<svg width="24" height="24" viewBox="0 0 24 24" fill="none" xmlns="http://www.w3.org/2000/svg">
<path d="M21.25 10.678C21.25 14.9602 17.212 18.606 12 18.606C11.1918 18.606 10.4089 18.5171 9.66349 18.3506C9.31402 18.2726 8.97387 18.3741 8.74699 18.4618C8.49347 18.5598 8.22629 18.7041 7.96663 18.8611C7.48482 19.1523 6.93758 19.544 6.42033 19.9142C6.3805 19.9427 6.34085 19.971 6.30142 19.9992C5.73145 20.4068 5.2075 20.7763 4.77882 21.0185C4.6926 21.0672 4.61602 21.1074 4.54877 21.14C4.5485 21.0909 4.54961 21.0359 4.55249 20.9745C4.57358 20.5248 4.6764 19.936 4.79993 19.2777C4.81295 19.2083 4.82621 19.1382 4.83957 19.0674C4.94763 18.4953 5.06248 17.8873 5.11509 17.3706C5.14472 17.0797 5.15903 16.7806 5.13174 16.5099C5.10687 16.2633 5.03591 15.9052 4.77691 15.628C3.49896 14.2605 2.75 12.5383 2.75 10.678C2.75 6.3958 6.78799 2.75 12 2.75C17.212 2.75 21.25 6.3958 21.25 10.678ZM4.57968 21.4358C4.58067 21.438 4.58111 21.4393 4.58107 21.4393C4.58104 21.4394 4.58055 21.4383 4.57968 21.4358ZM4.24793 21.2514C4.2481 21.2512 4.25204 21.2505 4.25922 21.2501C4.25135 21.2515 4.24776 21.2517 4.24793 21.2514Z" stroke="#E35760" stroke-width="1.5"/>
<circle cx="8" cy="11" r="1" fill="#E35760"/>
<circle cx="12" cy="11" r="1" fill="#E35760"/>
<circle cx="16" cy="11" r="1" fill="#E35760"/>
</svg>
