<svg fill="none" height="401" viewBox="0 0 1200 401" width="1200" xmlns="http://www.w3.org/2000/svg" xmlns:xlink="http://www.w3.org/1999/xlink"><clipPath id="a"><path d="m0 0h1200v400.457h-1200z"/></clipPath><g clip-path="url(#a)"><path d="m855.086 308.571v-308.571h62.4v308.571z" fill="#f7a600"/><g fill="#fff"><path d="m133.029 400.457h-133.029v-308.5713h127.543c61.714 0 98.057 33.6003 98.057 86.4003 0 34.285-23.314 56.228-39.086 63.771 19.2 8.914 43.886 28.114 43.886 69.257 0 57.6-40.457 88.457-97.371 88.457zm-10.286-254.4h-61.0287v71.314h61.0287c26.057 0 41.143-14.4 41.143-35.657s-15.086-35.657-41.143-35.657zm4.114 125.486h-64.457v76.114h64.457c28.114 0 41.829-17.143 41.829-38.4 0-20.571-13.715-37.714-41.143-37.714z"/><path d="m418.971 273.6v126.857h-61.714v-126.857l-95.314-181.7143h67.886l58.971 124.1143 58.286-124.1143h67.2z"/><path d="m690.514 400.457h-133.028v-308.5713h127.543c61.714 0 98.057 33.6003 98.057 86.4003 0 34.285-23.314 56.228-39.086 63.771 19.2 8.914 43.886 28.114 43.886 69.257 0 57.6-40.457 88.457-97.372 88.457zm-10.285-254.4h-60.343v71.314h60.343c26.057 0 41.143-14.4 41.143-35.657s-15.086-35.657-41.143-35.657zm4.114 125.486h-64.457v76.114h64.457c28.114 0 41.829-17.143 41.829-38.4 0-20.571-13.715-37.714-41.829-37.714z"/><path d="m1117.03 145.371v255.086h-61.72v-255.086h-82.967v-53.4853h227.657v53.4853z"/></g></g></svg>