<svg fill="none" height="88" viewBox="0 0 88 88" width="88" xmlns="http://www.w3.org/2000/svg" xmlns:xlink="http://www.w3.org/1999/xlink"><radialGradient id="a" cx="0" cy="0" gradientTransform="matrix(-.06262975 73.68417338 -80.78527082 -.06866551 44.0627 18)" gradientUnits="userSpaceOnUse" r="1"><stop offset=".0613883" stop-color="#e35760"/><stop offset="1" stop-color="#302634"/></radialGradient><linearGradient id="b"><stop offset="0" stop-color="#e35760"/><stop offset="1" stop-color="#302634"/></linearGradient><linearGradient id="c" gradientUnits="userSpaceOnUse" x1="44" x2="44" xlink:href="#b" y1="16" y2="32.5"/><linearGradient id="d"><stop offset="0" stop-color="#302634"/><stop offset="1" stop-color="#e35760"/></linearGradient><linearGradient id="e" gradientUnits="userSpaceOnUse" x1="21.9775" x2="21.9775" xlink:href="#d" y1="10.2472" y2="24"/><linearGradient id="f" gradientUnits="userSpaceOnUse" x1="22" x2="22" y1="12" y2="24"><stop offset="0" stop-color="#231f26" stop-opacity="0"/><stop offset="1" stop-color="#231f26" stop-opacity=".41"/></linearGradient><linearGradient id="g" gradientUnits="userSpaceOnUse" x1="21.9775" x2="21.9775" xlink:href="#b" y1="10.2472" y2="24"/><linearGradient id="h"><stop offset=".322917" stop-color="#231f26" stop-opacity="0"/><stop offset="1" stop-color="#231f26" stop-opacity=".41"/></linearGradient><linearGradient id="i" gradientUnits="userSpaceOnUse" x1="22" x2="22" xlink:href="#h" y1="12" y2="24"/><linearGradient id="j" gradientUnits="userSpaceOnUse" x1="65.9775" x2="65.9775" xlink:href="#b" y1="10.2472" y2="24"/><linearGradient id="k" gradientUnits="userSpaceOnUse" x1="66" x2="66" xlink:href="#h" y1="12" y2="24"/><linearGradient id="l" gradientUnits="userSpaceOnUse" x1="43.9775" x2="43.9775" xlink:href="#b" y1="10.2472" y2="24"/><linearGradient id="m" gradientUnits="userSpaceOnUse" x1="44" x2="44" xlink:href="#h" y1="12" y2="24"/><linearGradient id="n" gradientUnits="userSpaceOnUse" x1="19.9551" x2="19.9551" xlink:href="#d" y1="57.8315" y2="67"/><linearGradient id="o" gradientUnits="userSpaceOnUse" x1="19.9551" x2="19.9551" xlink:href="#d" y1="45.8315" y2="55"/><linearGradient id="p" gradientUnits="userSpaceOnUse" x1="19.9551" x2="19.9551" xlink:href="#d" y1="33.8315" y2="43"/><linearGradient id="q" gradientUnits="userSpaceOnUse" x1="31.9551" x2="31.9551" xlink:href="#d" y1="57.8315" y2="67"/><linearGradient id="r" gradientUnits="userSpaceOnUse" x1="31.9551" x2="31.9551" xlink:href="#d" y1="45.8315" y2="55"/><linearGradient id="s" gradientUnits="userSpaceOnUse" x1="31.9551" x2="31.9551" xlink:href="#d" y1="33.8315" y2="43"/><linearGradient id="t" gradientUnits="userSpaceOnUse" x1="43.9551" x2="43.9551" xlink:href="#d" y1="57.8315" y2="67"/><linearGradient id="u" gradientUnits="userSpaceOnUse" x1="43.9551" x2="43.9551" xlink:href="#d" y1="45.8315" y2="55"/><linearGradient id="v" gradientUnits="userSpaceOnUse" x1="43.9551" x2="43.9551" xlink:href="#d" y1="33.8315" y2="43"/><linearGradient id="w" gradientUnits="userSpaceOnUse" x1="55.9551" x2="55.9551" xlink:href="#d" y1="57.8315" y2="67"/><linearGradient id="x" gradientUnits="userSpaceOnUse" x1="55.9551" x2="55.9551" xlink:href="#d" y1="45.8315" y2="55"/><linearGradient id="y" gradientUnits="userSpaceOnUse" x1="55.9551" x2="55.9551" xlink:href="#d" y1="33.8315" y2="43"/><linearGradient id="z" gradientUnits="userSpaceOnUse" x1="67.9551" x2="67.9551" xlink:href="#d" y1="57.8315" y2="67"/><linearGradient id="A" gradientUnits="userSpaceOnUse" x1="67.9551" x2="67.9551" xlink:href="#d" y1="45.8315" y2="55"/><linearGradient id="B" gradientUnits="userSpaceOnUse" x1="67.9551" x2="67.9551" xlink:href="#d" y1="33.8315" y2="43"/><rect fill="#fff" fill-opacity=".4" height="57" rx="5" width="70" x="9" y="18"/><rect fill="url(#a)" height="56" rx="5" width="70" x="9" y="18"/><path d="m9 23c0-2.7614 2.2386-5 5-5h60c2.7614 0 5 2.2386 5 5v6h-70z" fill="url(#c)"/><path d="m9 18h70zm70 11.5h-70v-1h70zm-70-.5v-11zm70-11v11z" fill="#27212b"/><g stroke-width=".5"><rect fill="url(#e)" height="12" rx="2" stroke="url(#f)" width="4" x="20" y="12"/><rect fill="url(#g)" height="12.5" rx="2.25" stroke="url(#i)" width="4.5" x="19.75" y="11.75"/><rect fill="url(#j)" height="12.5" rx="2.25" stroke="url(#k)" width="4.5" x="63.75" y="11.75"/><rect fill="url(#l)" height="12.5" rx="2.25" stroke="url(#m)" width="4.5" x="41.75" y="11.75"/></g><rect fill="url(#n)" height="8" rx="2" width="8" x="16" y="59"/><rect fill="url(#o)" height="8" rx="2" width="8" x="16" y="47"/><rect fill="url(#p)" height="8" rx="2" width="8" x="16" y="35"/><rect fill="url(#q)" height="8" rx="2" width="8" x="28" y="59"/><rect fill="url(#r)" height="8" rx="2" width="8" x="28" y="47"/><rect fill="url(#s)" height="8" rx="2" width="8" x="28" y="35"/><rect fill="url(#t)" height="8" rx="2" width="8" x="40" y="59"/><rect fill="url(#u)" height="8" rx="2" width="8" x="40" y="47"/><rect fill="url(#v)" height="8" rx="2" width="8" x="40" y="35"/><rect fill="url(#w)" height="8" rx="2" width="8" x="52" y="59"/><rect fill="url(#x)" height="8" rx="2" width="8" x="52" y="47"/><rect fill="url(#y)" height="8" rx="2" width="8" x="52" y="35"/><rect fill="url(#z)" height="8" rx="2" width="8" x="64" y="59"/><rect fill="url(#A)" height="8" rx="2" width="8" x="64" y="47"/><rect fill="url(#B)" height="8" rx="2" width="8" x="64" y="35"/></svg>