<svg fill="none" height="88" viewBox="0 0 88 88" width="88" xmlns="http://www.w3.org/2000/svg" xmlns:xlink="http://www.w3.org/1999/xlink"><filter id="a" color-interpolation-filters="sRGB" filterUnits="userSpaceOnUse" height="20.75" width="28.8468" x="53.0765" y="32"><feFlood flood-opacity="0" result="BackgroundImageFix"/><feBlend in="SourceGraphic" in2="BackgroundImageFix" mode="normal" result="shape"/><feGaussianBlur result="effect1_foregroundBlur_8131_4466" stdDeviation=".5"/></filter><linearGradient id="b"><stop offset="0" stop-color="#e35760"/><stop offset="1" stop-color="#302634"/></linearGradient><radialGradient id="c" cx="0" cy="0" gradientTransform="matrix(0 26.9726 -22.9038 0 67.5295 32)" gradientUnits="userSpaceOnUse" r="1" xlink:href="#b"/><linearGradient id="d"><stop offset="0" stop-color="#302634"/><stop offset="1" stop-color="#e35760"/></linearGradient><linearGradient id="e" gradientUnits="userSpaceOnUse" x1="67.3258" x2="67.3258" xlink:href="#d" y1="29.3483" y2="58"/><radialGradient id="f" cx="0" cy="0" gradientTransform="matrix(-.06262975 73.68417338 -80.78527082 -.06866551 12.0627 18)" gradientUnits="userSpaceOnUse" r="1"><stop offset=".0613883" stop-color="#e35760"/><stop offset="1" stop-color="#302634"/></radialGradient><linearGradient id="g" gradientUnits="userSpaceOnUse" x1="12" x2="12" xlink:href="#b" y1="16" y2="32.5"/><linearGradient id="h" gradientUnits="userSpaceOnUse" x1="33.9775" x2="33.9775" xlink:href="#b" y1="10.2472" y2="24"/><linearGradient id="i"><stop offset=".322917" stop-color="#231f26" stop-opacity="0"/><stop offset="1" stop-color="#231f26" stop-opacity=".41"/></linearGradient><linearGradient id="j" gradientUnits="userSpaceOnUse" x1="34" x2="34" xlink:href="#i" y1="12" y2="24"/><linearGradient id="k" gradientUnits="userSpaceOnUse" x1="11.9775" x2="11.9775" xlink:href="#b" y1="10.2472" y2="24"/><linearGradient id="l" gradientUnits="userSpaceOnUse" x1="12" x2="12" xlink:href="#i" y1="12" y2="24"/><linearGradient id="m" gradientUnits="userSpaceOnUse" x1="-.044944" x2="-.044944" xlink:href="#d" y1="57.8315" y2="67"/><linearGradient id="n" gradientUnits="userSpaceOnUse" x1="-.044944" x2="-.044944" xlink:href="#d" y1="45.8315" y2="55"/><linearGradient id="o" gradientUnits="userSpaceOnUse" x1="-.044944" x2="-.044944" xlink:href="#d" y1="33.8315" y2="43"/><linearGradient id="p" gradientUnits="userSpaceOnUse" x1="11.9551" x2="11.9551" xlink:href="#d" y1="57.8315" y2="67"/><linearGradient id="q" gradientUnits="userSpaceOnUse" x1="11.9551" x2="11.9551" xlink:href="#d" y1="45.8315" y2="55"/><linearGradient id="r" gradientUnits="userSpaceOnUse" x1="11.9551" x2="11.9551" xlink:href="#d" y1="33.8315" y2="43"/><linearGradient id="s" gradientUnits="userSpaceOnUse" x1="23.9551" x2="23.9551" xlink:href="#d" y1="57.8315" y2="67"/><linearGradient id="t" gradientUnits="userSpaceOnUse" x1="23.9551" x2="23.9551" xlink:href="#d" y1="45.8315" y2="55"/><linearGradient id="u" gradientUnits="userSpaceOnUse" x1="23.9551" x2="23.9551" xlink:href="#d" y1="33.8315" y2="43"/><linearGradient id="v" gradientUnits="userSpaceOnUse" x1="35.9551" x2="35.9551" xlink:href="#d" y1="57.8315" y2="67"/><linearGradient id="w" gradientUnits="userSpaceOnUse" x1="35.9551" x2="35.9551" xlink:href="#d" y1="45.8315" y2="55"/><linearGradient id="x" gradientUnits="userSpaceOnUse" x1="35.9551" x2="35.9551" xlink:href="#d" y1="33.8315" y2="43"/><linearGradient id="y" gradientUnits="userSpaceOnUse" x1="-.000001" x2="85" y1="44" y2="44"><stop offset="0" stop-color="#27212b"/><stop offset=".201237" stop-color="#27212b" stop-opacity="0"/></linearGradient><linearGradient id="z" gradientUnits="userSpaceOnUse" x1="85" x2=".000003" y1="44" y2="44"><stop offset="0" stop-color="#673e60"/><stop offset="1" stop-color="#673e60" stop-opacity="0"/></linearGradient><clipPath id="A"><path d="m0 0h88v88h-88z"/></clipPath><mask id="B" fill="#fff"><path d="m85 75c0 5.5228-4.4772 10-10 10h-75l.00000717-82.00001 74.99999283.00001c5.5229 0 10 4.47715 10 10z" fill="#fff"/></mask><g clip-path="url(#A)"><path d="m67.5 32 14.2894 19.5h-28.5788z" fill="url(#c)"/><path d="m67.5 33 13.4234 18.75h-26.8468z" fill="url(#e)"/><g filter="url(#a)"><path clip-rule="evenodd" d="m80.2075 51.75-12.7075-17.75-12.7075 17.75h-.7159l13.4233-18.75 13.4234 18.75z" fill="#fff" fill-opacity=".2" fill-rule="evenodd"/></g><rect fill="#fff" fill-opacity=".4" height="57" rx="5" width="70" x="-23" y="18"/><rect fill="url(#f)" height="56" rx="5" width="70" x="-23" y="18"/><path d="m-23 23c0-2.7614 2.2386-5 5-5h60c2.7614 0 5 2.2386 5 5v6h-70z" fill="url(#g)"/><path d="m-23 18h70zm70 11.5h-70v-1h70zm-70-.5v-11zm70-11v11z" fill="#27212b"/><rect fill="url(#h)" height="12.5" rx="2.25" stroke="url(#j)" stroke-width=".5" width="4.5" x="31.75" y="11.75"/><rect fill="url(#k)" height="12.5" rx="2.25" stroke="url(#l)" stroke-width=".5" width="4.5" x="9.75" y="11.75"/><rect fill="url(#m)" height="8" rx="2" width="8" x="-4" y="59"/><rect fill="url(#n)" height="8" rx="2" width="8" x="-4" y="47"/><rect fill="url(#o)" height="8" rx="2" width="8" x="-4" y="35"/><rect fill="url(#p)" height="8" rx="2" width="8" x="8" y="59"/><rect fill="url(#q)" height="8" rx="2" width="8" x="8" y="47"/><rect fill="url(#r)" height="8" rx="2" width="8" x="8" y="35"/><rect fill="url(#s)" height="8" rx="2" width="8" x="20" y="59"/><rect fill="url(#t)" height="8" rx="2" width="8" x="20" y="47"/><rect fill="url(#u)" height="8" rx="2" width="8" x="20" y="35"/><rect fill="url(#v)" height="8" rx="2" width="8" x="32" y="59"/><rect fill="url(#w)" height="8" rx="2" width="8" x="32" y="47"/><rect fill="url(#x)" height="8" rx="2" width="8" x="32" y="35"/><path d="m85 75c0 5.5228-4.4772 10-10 10h-75l.00000717-82.00001 74.99999283.00001c5.5229 0 10 4.47715 10 10z" fill="url(#y)"/><path d="m86 75c0 6.0751-4.9249 11-11 11h-75.00000009l.00000018-2h74.99999991c4.9706 0 9-4.0294 9-9zm-85.99999274-73.00001 74.99999274.00001c6.0751 0 11 4.92487 11 11h-2c0-4.97057-4.0294-9-9-9l-74.99999292-.00001zm74.99999274.00001c6.0751 0 11 4.92487 11 11v62c0 6.0751-4.9249 11-11 11v-2c4.9706 0 9-4.0294 9-9v-62c0-4.97057-4.0294-9-9-9zm-75 83 .00000717-82.00001z" fill="url(#z)" mask="url(#B)"/></g></svg>