<svg fill="none" height="45" viewBox="0 0 80 45" width="80" xmlns="http://www.w3.org/2000/svg" xmlns:xlink="http://www.w3.org/1999/xlink"><clipPath id="a"><path d="m0 0h80v45h-80z"/></clipPath><g clip-path="url(#a)" fill="#fff"><path d="m9.46793 7.92914c-.47806-.57393-1.08073-1.03283-1.76218-1.34205-.64703-.28998-1.34594-.44736-2.05528-.463-.78424-.02526-1.56557.10685-2.29714.38888-.65735.25652-1.2542.64564-1.75301 1.14329-.48779.49259-.864997 1.0824-1.10667 1.73093-.5061818 1.41621-.5061818 2.96251 0 4.37871.239927.6534.61721 1.2482 1.10667 1.7449.49827.4981 1.09529.8875 1.75301 1.1433.73157.2818 1.5129.4139 2.29714.3886.70934-.0156 1.40825-.173 2.05528-.4627.68169-.3092 1.28412-.7682 1.76218-1.3423l-1.20437-.9258c-.27248.4031-.63539.7374-1.06012.9768-.47176.2707-1.00872.4084-1.55297.398-.56169.0243-1.12194-.0736-1.64145-.2871-.46943-.1855-.89411-.468-1.24623-.8285-.34967-.3826-.61569-.8333-.78119-1.3238-.35685-1.0744-.35685-2.2348 0-3.30928.16621-.48874.4322-.93778.78119-1.3192.34599-.37251.76761-.66754 1.23677-.86559.51976-.2132 1.08-.3109 1.64146-.28684.54448-.01035 1.08145.1273 1.55321.39802.42449.23944.7874.57393 1.06012.97677l1.20437-.92575zm3.52457 8.86376h1.4742v-5.3321c-.0327-.7674.127-1.53096.465-2.2216.2434-.47022.5898-.87979 1.0136-1.19888.3137-.24377.6771-.41583 1.0647-.50462.2094-.03634.4204-.06089.6325-.07388 1.0851 0 1.8291.3085 2.232.92575.4509.81048.6603 1.73193.6043 2.65673v5.7486h1.4742v-6.6003c.0715-1.08696-.2703-2.16094-.958-3.00848-.6478-.69136-1.6413-1.03693-2.9804-1.03693-.3508.00097-.6994.04933-1.0371.14367-.3459.09385-.6798.2274-.9949.39802-.3072.167-.5915.37227-.8463.61099-.2449.22741-.4548.48946-.6233.77751h-.0463v-8.08146936h-1.4742zm20.6922-5.1747v.7544c.0024.4406-.0619.8791-.1906 1.3007-.1178.3946-.3207.7592-.5944 1.0677-.274.3085-.6124.5539-.9913.7188-.4405.1877-.9161.2791-1.3949.2685-.2975-.0004-.5939-.0346-.8836-.1017-.2812-.0636-.5489-.1764-.7903-.3333-.2347-.1528-.4291-.3591-.5673-.6019-.1486-.2688-.2226-.5725-.2141-.8793-.0104-.2322.0335-.4635.1288-.6757.0952-.2123.2392-.3992.4201-.5463.3874-.3082.8359-.5323 1.3159-.6572.5258-.1434 1.0647-.2334 1.6087-.2685.558-.0371 1.023-.0556 1.3951-.0556zm-.7348-1.1989c-.6199 0-1.3082.0294-2.0645.0881-.7244.0594-1.4374.2151-2.1203.4627-.6317.2176-1.199.5882-1.6509 1.0786-.4662.5556-.7023 1.2672-.6601 1.9901-.0109.4594.0931.9142.3023 1.3238.1964.3715.4708.6966.8044.9536.3423.2635.7321.4599 1.1486.5785.4349.1266.8858.1906 1.3391.1897.7445.0197 1.4827-.1391 2.1528-.4628.638-.3516 1.167-.8702 1.5299-1.4997h.0465c0 .2809.0107.5694.0325.8656.0216.2962.0572.5648.1069.8054h1.3949c-.0433-.2808-.0836-.6403-.1207-1.0785-.0373-.4382-.0497-.8502-.0373-1.2357v-4.62851c.0143-.56359-.0919-1.1238-.3115-1.64334-.1918-.43484-.474-.82444-.8277-1.14305-.3532-.30899-.7687-.53928-1.2184-.67597-.4722-.14823-.9646-.22331-1.4599-.22211-1.9653 0-3.4378.50294-4.4174 1.50907l.8928 1.04583c.8667-.79869 2.0085-1.23618 3.1898-1.22174 1.7855 0 2.6783.89639 2.6783 2.68922v.2683zm7.0957-4.02208c.0311.38575.0575.79292.0793 1.22198.0216.42882.0325.78377.0325 1.0646v8.1091h1.4739v-5.3321c-.0325-.7674.1273-1.53096.465-2.2216.2434-.47022.5898-.87979 1.0138-1.19888.3135-.24377.6771-.41583 1.0647-.50462.2059-.04067.4138-.07003.6231-.08784 1.0851 0 1.8291.3085 2.232.92575.4509.81048.6606 1.73189.6046 2.65669v5.7626h1.4739v-6.6003c.0715-1.08696-.2703-2.16094-.9578-3.00848-.6417-.69136-1.6322-1.03693-2.9714-1.03693-.3505.00097-.6994.04933-1.0369.14367-.3459.09385-.68.2274-.9951.39802-.311.16171-.6002.3624-.8601.59703-.2449.2274-.4548.48946-.6233.77751h-.0463c0-.28083 0-.55852 0-.8331 0-.27457-.0187-.55227-.056-.8331zm15.4798 3.52227c.1937-.47045.4744-.90072.8276-1.26818.3506-.36313.767-.65695 1.2274-.86559.4803-.21778 1.0024-.32847 1.5299-.3239.5668-.0077 1.1293.10275 1.6507.3239.4718.20094.8972.49549 1.2509.86559.3438.36578.6097.79724.7811 1.26818.1818.49521.273 1.01861.2698 1.54591.0226.5612-.0724 1.1206-.279 1.6431-.1922.4752-.4856.9033-.8604 1.2544-.7561.7056-1.7532 1.0993-2.7898 1.1015-.5277.0048-1.0499-.1059-1.5299-.3239-.4604-.2084-.8771-.5023-1.2274-.8656-.3535-.3673-.6342-.7975-.8279-1.2682-.4014-.9903-.4014-2.097 0-3.08721zm-1.6648 10.11341c.6226.6782 1.3836 1.2162 2.2321 1.5782.8865.353 1.8351.526 2.7898.5092.9799.039 1.9558-.143 2.855-.5323.6655-.3059 1.2499-.7624 1.7067-1.3329.4019-.5172.6846-1.1161.8276-1.7543.1365-.5908.2082-1.1943.2138-1.8005v-10.30308h-1.4739v1.73093h-.0466c-.5093-.70339-1.2002-1.25663-1.9995-1.60147-.3369-.14366-.6897-.24762-1.0509-.30994-.3285-.05703-.6613-.08639-.9949-.08808-.7307-.0077-1.4553.1326-2.1297.41198-.631.26278-1.2007.6519-1.6739 1.14329-.4742.4962-.8497 1.07735-1.1067 1.71265-.2708.67062-.4068 1.38782-.4 2.11042-.0065.7251.1375 1.4436.423 2.1107.2696.6312.665 1.2013 1.1627 1.6756.5006.4735 1.0878.8475 1.7297 1.1016.6773.2686 1.4005.4038 2.1297.398.7467-.0026 1.4846-.1602 2.1668-.463.7154-.3231 1.3197-.8475 1.7391-1.5088h.0466v1.8515c.0026.5364-.0694 1.0706-.2141 1.5875-.1294.4818-.3646.9292-.6882 1.3098-.3443.3882-.776.6895-1.2601.8796-.6049.23-1.2495.3403-1.897.3239-.8058.0127-1.6032-.1665-2.3251-.5229-.6628-.3251-1.2395-.8006-1.6832-1.3888zm16.5816-9.2572c.0008-.4329.1043-.85934.3021-1.24509.2019-.39994.4744-.76042.8046-1.06435.3425-.31644.7394-.56864 1.1716-.74527.4417-.18481.9162-.27938 1.3952-.2777.4586-.02695.9178.04139 1.3486.20069.4308.15955.8233.40621 1.153.72506.2989.32342.5304.70267.6812 1.11585.151.41294.2179.85191.1975 1.29081zm8.658 1.1989v-.6481c.0038-.6836-.1094-1.36297-.3348-2.00861-.2102-.6069-.5409-1.16567-.9717-1.6431-.4373-.4784-.9692-.86126-1.5624-1.12476-.6686-.28926-1.3915-.43292-2.1205-.42137-.7122-.00553-1.4181.13452-2.0737.41198-.629.26591-1.1983.65479-1.6739 1.14329-.4827.49837-.8621 1.08674-1.1161 1.73118-.272.69279-.4078 1.43129-.3998 2.17539-.0073.745.1334 1.4843.4138 2.1754.2602.6432.6422 1.2311 1.1254 1.7309.4836.4938 1.0647.883 1.7064 1.1433.6831.2777 1.415.4178 2.153.412.8349.0065 1.6615-.1672 2.4225-.5092.8138-.391 1.5217-.9703 2.0645-1.6893l-1.1391-.9257c-.3356.5101-.7821.9389-1.3067 1.2542-.6131.3747-1.3222.5645-2.0412.5462-.4985.0051-.9923-.0926-1.4509-.287-.897-.3817-1.6148-1.088-2.0088-1.9764-.2104-.4638-.3394-.96-.3813-1.4672z"/><path d="m1.39575 44.5639h3.74774v-16.084h.0606l10.41581 16.084h4.7614v-20.9717h-3.7525v15.5796h-.0557l-10.22986-15.5796h-4.94749zm24.97005-5.9244c.5173 1.2978 1.3025 2.4736 2.3042 3.4508 1.002.9775 2.1986 1.7351 3.5128 2.2238 1.4305.5366 2.9491.8035 4.4778.7869 1.5474-.0009 3.0812-.2866 4.5243-.8425 1.3217-.5125 2.5266-1.2836 3.5433-2.268 1.0051-.985 1.7966-2.1648 2.3249-3.4667.5643-1.4241.8407-2.9452.8138-4.4757.0225-1.5606-.2601-3.1108-.8323-4.5638-.5231-1.3127-1.3149-2.5029-2.3251-3.4946-1.0096-.9787-2.2176-1.7314-3.5432-2.2079-1.4502-.5169-2.984-.7633-4.5244-.7264-1.5287-.0167-3.047.25-4.4778.7866-1.3135.4945-2.5091 1.2559-3.5106 2.2356-1.0099.9974-1.8014 2.192-2.325 3.5085-.5542 1.4631-.8194 3.0191-.7811 4.5823-.0206 1.5303.262 3.0497.8322 4.4711zm3.6174-7.6418c.3314-.8822.832-1.6917 1.4742-2.3835.6395-.6856 1.4155-1.2309 2.2783-1.6015.9392-.3975 1.9513-.5946 2.9714-.5785 1.0214-.0135 2.0347.1834 2.976.5785.8684.3682 1.6492.9137 2.2924 1.6015.6417.6921 1.1423 1.5016 1.4739 2.3835.3445.9352.5147 1.9249.5023 2.9207.0112 1.0593-.1653 2.1121-.5207 3.1103-.3239.9079-.825 1.7432-1.4742 2.4579-.6417.6959-1.4225 1.2511-2.2923 1.6292-.939.4045-1.953.6064-2.976.5924-1.0185.0152-2.0284-.1867-2.962-.5924-.8642-.3807-1.64-.9354-2.2785-1.6292-.6495-.7145-1.1506-1.5497-1.474-2.4579-.3541-.9984-.5289-2.0515-.5161-3.1103-.0085-1.0015.1683-1.9964.5207-2.9344zm26.9091 13.5662h3.4502l4.8824-15.9683h.0606l4.9009 15.9683h3.5711l6.1285-20.9717h-3.8082l-4.1384 15.1075h-.0604l-4.6499-15.1075h-3.6919l-4.7384 15.1075h-.0604l-3.9571-15.1075h-4.1244z"/></g></svg>