<svg fill="none" height="40" viewBox="0 0 175 40" width="175" xmlns="http://www.w3.org/2000/svg"><g fill="#fff"><path d="m49.5252 20.1381c0-4.1546 3.2667-7.7032 7.6417-7.7032 2.8291 0 4.5791 1.1829 5.95 2.6254l-1.4 1.4714c-1.1667-1.2406-2.5667-2.1638-4.5792-2.1638-3.0333 0-5.3375 2.5389-5.3375 5.7702 0 3.2024 2.3625 5.7413 5.4542 5.7413 1.8958 0 3.2958-.9809 4.4916-2.2215l1.4584 1.3271c-1.4875 1.6445-3.2667 2.8563-6.0667 2.8563-4.3167 0-7.6125-3.5198-7.6125-7.7032zm16.1875-12.37707 2.2167-1.06749v8.65526c.9916-1.5868 2.5375-2.8851 5.1041-2.8851 3.5875 0 5.6875 2.3947 5.6875 5.9145v9.1457h-2.2166v-8.6553c0-2.7408-1.4875-4.443-4.1125-4.443-2.5667 0-4.4625 1.8465-4.4625 4.6161v8.4534h-2.2167zm26.5417 14.31007v-1.356c-1.4-.4039-2.8875-.6347-4.3459-.6347-2.7708 0-4.3458 1.2117-4.3458 3.0293 0 1.8465 1.7208 2.9428 3.7333 2.9428 2.7417-.0288 4.9584-1.6445 4.9584-3.9814zm-10.9375 1.0963c0-3.1736 2.5958-4.8181 6.3583-4.8181 1.8958 0 3.2375.2597 4.55.6347v-.4616c0-2.6254-1.6042-3.9814-4.4042-3.9814-1.75 0-3.15.4328-4.5208 1.0675l-.6708-1.7888c1.6333-.7501 3.2375-1.2694 5.425-1.2694 2.1 0 3.7333.577 4.8125 1.6156 1.05 1.0387 1.5458 2.4524 1.5458 4.3277v9.0015h-2.1875v-2.1927c-1.05 1.2983-2.7417 2.51-5.3667 2.51-2.7708 0-5.5416-1.5868-5.5416-4.645zm16.8583-10.4152h2.2168v2.5678c.992-1.5868 2.537-2.8851 5.104-2.8851 3.588 0 5.688 2.3946 5.688 5.9144v9.1458h-2.217v-8.6265c0-2.7408-1.488-4.443-4.113-4.443-2.566 0-4.462 1.8465-4.462 4.6161v8.4534h-2.2168zm28.6708 6.6069c0-3.0293-2.654-4.9912-5.483-4.9912s-5.163 1.933-5.163 5.02c0 2.9717 2.392 5.0201 5.163 5.0201 2.829 0 5.483-2.0196 5.483-5.0489zm-12.221 10.7037 1.021-1.7022c1.692 1.2406 3.588 1.8753 5.717 1.8753 3.266 0 5.425-1.7888 5.425-5.2509v-1.731c-1.284 1.7022-3.121 3.1159-5.834 3.1159-3.558 0-7-2.6543-7-6.9531s3.442-6.9531 7-6.9531c2.8 0 4.609 1.356 5.805 2.9717v-2.6543h2.216v12.1462c0 2.2792-.7 4.0103-1.896 5.222-1.312 1.3272-3.295 1.9619-5.658 1.9619-2.508 0-4.783-.6924-6.796-2.0484zm29.225-10.8191c-.262-2.6831-1.808-4.9624-4.754-4.9624-2.567 0-4.521 2.1062-4.842 4.9624zm-4.346 6.6646c2.042 0 3.471-.8367 4.696-2.0773l1.371 1.2406c-1.487 1.6445-3.325 2.7697-6.125 2.7697-4.083 0-7.437-3.1159-7.437-7.7032 0-4.27 3.033-7.7032 7.145-7.7032 4.405 0 6.942 3.4909 6.942 7.8186 0 .2019 0 .4327-.029.779h-11.813c.321 3.087 2.625 4.8758 5.25 4.8758zm9.684-17.22404 2.216-1.09634v19.87828h-2.216zm6.271-.92323 2.216-1.06749v20.83036h-2.216zm5.162 23.62887.758-1.731c.73.375 1.371.5481 2.334.5481 1.312 0 2.158-.6924 3.062-2.7696l-6.766-14.6852h2.45l5.395 12.2905 4.784-12.2905h2.362l-6.241 15.2333c-1.255 3.0582-2.713 4.1546-4.959 4.1546-1.254 0-2.187-.2597-3.179-.7502z"/><path d="m20.8542 33.7844c-.3209.3174-.6709.6059-1.05.8656-.7292.5481-1.4875 1.0097-2.3042 1.4425-1.6042.8078-3.2958 1.4137-5.075 1.7599-.4375.0865-.875.1731-1.3125.2308l-.6708.0866-.3209.0288-.3208.0289-.67083.0577-.67084.0288c-.4375.0289-.90416.0289-1.34166.0577-1.3125 0-2.625-.0577-3.9375-.1731.14583-.2019.29166-.4327.4375-.6636.40833-.6347.7875-1.3271 1.1375-2.0195.64166-1.3849 1.1375-2.8274 1.54583-4.27.37917-1.4137.84583-2.7696 1.37083-4.1545.525-1.3848 1.1375-2.712 1.8375-4.0103-.49583.5482-.93333 1.1541-1.34166 1.7888-.40834.6059-.81667 1.2694-1.16667 1.9041-.72917 1.2983-1.37083 2.6832-1.86667 4.068-.525 1.356-1.07916 2.712-1.75 3.9526-.67083 1.2406-1.4875 2.3946-2.42083 3.491l-.9625 1.154 1.51667.202c1.86666.2596 3.7625.4039 5.65833.3462.46667-.0289.9625-.0289 1.42917-.0866l.7-.0577.70003-.0865c.4666-.0577.9333-.1731 1.4-.2308.4666-.1154.9333-.202 1.4-.3463.4666-.1154.9041-.2885 1.3708-.4327.4375-.1731.9042-.3462 1.3417-.5482.875-.3751 1.7208-.8655 2.5083-1.3848s1.5167-1.1252 2.1875-1.8176c.6417-.6925 1.225-1.4137 1.6333-2.2504-.3208.4039-.6416.7501-.9916 1.0386zm10.4416-24.89832c.525-.51932 1.225-.80782 1.9834-.80782.7291 0 1.4291.25965 1.9833.80782 1.0792 1.09633 1.0792 2.82742 0 3.92372-1.0792 1.0675-2.8583 1.0675-3.9667 0-.525-.5193-.8166-1.2117-.8166-1.9619 0-.7501.2916-1.4425.8166-1.96182zm1.9834 6.40492c1.1666 0 2.3041-.4328 3.1791-1.2983 1.75-1.7599 1.75-4.55845 0-6.31835-1.75-1.73106-4.6083-1.73106-6.3583 0-.8458.83667-1.3125 1.96186-1.3125 3.14475 0 1.1829.4667 2.3081 1.3125 3.1447.8458.8656 1.9833 1.3272 3.1792 1.3272zm1.3125 6.4049c-6.4459 5.6259-9.1292 6.1452-11.8125 4.9335l2.9166-3.6352c.4375-.5193.7292-1.1541.9042-1.8176l1.1667-4.8758-4.9 1.154c-.6709.1731-1.3125.4616-1.8375.8944l-3.675 2.8851c-1.2542-2.6543-.7-5.3086 4.9583-11.68465 5.3667-6.02984 16.6833-7.41468 20.0375-7.70319-.2625 3.31785-1.6625 14.54084-7.7583 19.84944zm-4.2875 8.713c-.0584.2596-.2042.5193-.4375.6635-.6709.4616-1.7209 1.0964-2.6542 1.6734l.0583-.1731c.4375-1.7599.4375-3.1159 0-4.0391 1.225-.3751 2.5375-1.0387 4.025-2.0485-.3791 1.356-.7875 2.9717-.9916 3.9238zm-10.1792-3.1448c-.3792.4905-.9917.7501-1.6042.7213h-.0291-1.4584l5.075-6.0587-6.125 5.0201v-1.4137-.0577c-.0291-.6059.2334-1.2118.7292-1.5868l5.3667-4.2123c.35-.2596.7583-.4616 1.1666-.577l2.1875-.5193-.525 2.1638c-.1166.4328-.2916.8367-.5833 1.1829zm-8.75-10.444-.175.0577c.5542-.9232 1.1958-1.9619 1.6625-2.6254.1458-.2309.4083-.3751.6708-.4328.9625-.202 2.5959-.6059 3.9667-.9521-1.0208 1.4714-1.6917 2.7985-2.0708 4.0103-.9042-.5193-2.275-.5193-4.0542-.0577zm31.8792-16.7335508c-.6125.0288508-15.4292.6924198-22.225 8.3379108-.6417.72127-1.2542 1.4714-1.8667 2.22154-.9917.2596-4.4333 1.1829-5.95 1.5002-.7.1443-1.3417.5482-1.75 1.1541-1.05 1.5002-2.85833 4.5873-2.91667 4.7027l-1.3125 2.2215 2.39167-1.0386c1.575-.6636 4.2-1.356 5.1333-.8079.1459.0866.3209.2597.35.6925.0292 1.0963.3209 2.1638.875 3.2313l-.3208.2596c-.9042.7213-1.4292 1.8176-1.3708 2.9717v4.1256h4.1708c1.1667.0577 2.275-.4616 3.0042-1.356l.2625-.3173c1.0791.5482 2.1583.8655 3.2666.8655.4375.0289.5834.1731.7.3462.5834.9233-.1166 3.5487-.8166 5.1066l-1.05 2.3658 2.2458-1.2983c.1458-.0865 3.2375-1.8753 4.7542-2.9139.5833-.4039.9916-1.0098 1.1375-1.7311.3208-1.5002 1.2541-4.9335 1.5166-5.9144.7-.5482 1.4292-1.1829 2.2167-1.8753 7.7-6.7223 8.4-21.4074 8.4292-22.013272l.0291-.923228z"/></g></svg>