<svg width="80" height="80" viewBox="0 0 80 80" fill="none" xmlns="http://www.w3.org/2000/svg">
<rect width="80" height="80" rx="40" fill="#36293B"/>
<mask id="mask0_6117_8555" style="mask-type:alpha" maskUnits="userSpaceOnUse" x="0" y="0" width="80" height="80">
<rect width="80" height="80" rx="40" fill="#51354F"/>
</mask>
<g mask="url(#mask0_6117_8555)">
<mask id="mask1_6117_8555" style="mask-type:alpha" maskUnits="userSpaceOnUse" x="0" y="0" width="80" height="80">
<rect width="80" height="80" rx="40" fill="#51354F"/>
</mask>
<g mask="url(#mask1_6117_8555)">
<path d="M24.5705 37.1431C24.1133 28.0003 29.7133 24.1907 32.5705 23.4288C51.4278 13.7145 62.2846 45.7145 66.856 59.4288C70.5132 70.4003 40.1895 71.6193 24.5705 70.8574C14.2849 70.8574 11.9989 60.5717 15.4275 60.5717C18.856 60.5717 25.1419 48.5717 24.5705 37.1431Z" fill="#E35760"/>
<path d="M32.1456 52.757L32.2758 61.8989L34.6101 65.2946L45.4173 61.7118L43.9979 42.3014L32.1456 52.757Z" fill="#A0789C"/>
<ellipse cx="3.66373" cy="4.39648" rx="3.66373" ry="4.39648" transform="matrix(-0.999296 0.0375133 0.0375133 0.999296 55.0117 35.5947)" fill="#6B4D68"/>
<ellipse cx="3.66373" cy="4.39648" rx="3.66373" ry="4.39648" transform="matrix(-0.999296 0.0375133 0.0375133 0.999296 30.1797 36.5713)" fill="#6B4D68"/>
<ellipse cx="12" cy="16" rx="12" ry="16" transform="matrix(-0.999296 0.0375133 0.0375133 0.999296 49.3672 23.3242)" fill="#A0789C"/>
<mask id="mask2_6117_8555" style="mask-type:alpha" maskUnits="userSpaceOnUse" x="25" y="23" width="25" height="33">
<ellipse cx="12" cy="16" rx="12" ry="16" transform="matrix(-0.999296 0.0375133 0.0375133 0.999296 49.3711 23.3252)" fill="#A0789C"/>
</mask>
<g mask="url(#mask2_6117_8555)">
<path d="M33.5251 49.3571C33.5543 49.8143 33.847 50.2359 34.3387 50.5291C34.8303 50.8223 35.4808 50.9631 36.1468 50.9204C36.8129 50.8778 37.44 50.6553 37.8903 50.3018C38.3406 49.9483 38.5771 49.4929 38.5479 49.0356L36.0365 49.1964L33.5251 49.3571Z" fill="white"/>
<circle cx="2.28571" cy="2.28571" r="2.28571" transform="matrix(-0.999296 0.0375133 0.0375133 0.999296 31.0234 45.4727)" fill="#6B4D68"/>
</g>
<circle cx="2.28571" cy="2.28571" r="2.28571" transform="matrix(-0.999296 0.0375133 0.0375133 0.999296 45.4609 44.7822)" fill="#6B4D68"/>
<path d="M33.488 46.7707L35.5792 41.5457L38.0562 46.5992L33.488 46.7707Z" fill="#6B4D68"/>
<mask id="mask3_6117_8555" style="mask-type:alpha" maskUnits="userSpaceOnUse" x="0" y="0" width="80" height="80">
<rect width="80" height="80" rx="40" transform="matrix(-1 0 0 1 80 0)" fill="#51354F"/>
</mask>
<g mask="url(#mask3_6117_8555)">
<path d="M55.428 66.857C59.5423 69.1427 64.3804 73.1427 66.2852 74.857L57.7137 81.7141L34.2852 84.5713C28.7613 82.6665 17.828 78.6284 18.2852 77.7141C18.8566 76.5713 24.5709 68.5713 28.5709 66.857C31.7709 65.4856 31.809 63.8094 31.428 61.7141C32.1899 62.0951 34.717 62.857 38.8566 62.857C43.428 62.857 45.5233 61.9046 46.2852 60.5713C47.6185 62.857 51.3137 64.5713 55.428 66.857Z" fill="white"/>
</g>
<ellipse cx="1.79466" cy="1.86141" rx="1.79466" ry="1.86141" transform="matrix(0.951862 0.306526 -0.306519 0.951865 29.7109 37.7148)" fill="#1C1D1C"/>
<ellipse cx="1.79466" cy="1.86141" rx="1.79466" ry="1.86141" transform="matrix(0.951862 0.306526 -0.306519 0.951865 39.9844 37.7148)" fill="#1C1D1C"/>
<path d="M49.7132 35.9999C44.6846 35.9999 36.1894 28.7618 32.5703 25.1427C40.7989 18.7427 48.1894 28.5713 50.856 34.2856L49.7132 35.9999Z" fill="#E35760"/>
<path d="M45.7137 29.7148L42.2852 34.2863" stroke="#27212B" stroke-linecap="round" stroke-linejoin="round"/>
<path d="M47.9989 30.8574L44.5703 35.4289" stroke="#27212B" stroke-linecap="round" stroke-linejoin="round"/>
</g>
</g>
</svg>
