<svg width="210" height="438" viewBox="0 0 210 438" fill="none" xmlns="http://www.w3.org/2000/svg">
<g clip-path="url(#clip0_1214_150030)">
<g clip-path="url(#clip1_1214_150030)">
<path d="M200.143 370.755C205.667 356.473 204.489 344.504 198.118 336.688C171.043 303.655 192.308 326.713 164.748 327.572C134.13 332.346 99.4758 411.996 78.2225 401.741C70.5381 397.591 84.9602 414.691 91.6101 422.495C98.0709 430.078 109.572 433.58 124.66 431.227C155.278 426.453 189.073 399.379 200.143 370.755Z" fill="url(#paint0_linear_1214_150030)"/>
<path opacity="0.6" d="M200.143 370.755C205.667 356.473 204.489 344.504 198.118 336.688C171.043 303.655 192.308 326.713 164.748 327.572C134.13 332.346 99.4758 411.996 78.2225 401.741C70.5381 397.591 84.9602 414.691 91.6101 422.495C98.0709 430.078 109.572 433.58 124.66 431.227C155.278 426.453 189.073 399.379 200.143 370.755Z" fill="url(#paint1_linear_1214_150030)"/>
<rect width="112.218" height="111.137" rx="55.5685" transform="matrix(-0.988061 0.154063 -0.360704 0.93268 208.188 304.289)" fill="url(#paint2_linear_1214_150030)"/>
<path fill-rule="evenodd" clip-rule="evenodd" d="M153.027 389.649C164.664 380.341 174.214 368.519 178.893 356.421C183.572 344.322 182.455 334.368 177.168 327.949C171.878 321.527 162.235 318.426 149.382 320.43C136.534 322.433 122.872 329.177 111.235 338.484C99.5975 347.792 90.0469 359.614 85.3684 371.712C80.6892 383.811 81.8065 393.765 87.0934 400.184C92.3831 406.606 102.026 409.707 114.879 407.703C127.727 405.7 141.39 398.956 153.027 389.649ZM149.274 319.739C175.27 315.686 189.015 332.192 179.547 356.673C170.079 381.154 140.984 404.34 114.988 408.394C88.9914 412.447 75.2466 395.941 84.7145 371.46C94.1824 346.978 123.278 323.792 149.274 319.739Z" fill="#673E60"/>
<path d="M154.515 356.091C157.202 351.615 153.642 349.644 148.094 348.603L152.539 342.472L148.004 341.993L143.677 347.962C142.486 347.836 141.247 347.727 140.029 347.618L144.387 341.61L139.855 341.13L135.41 347.26C134.417 347.173 133.442 347.085 132.503 346.986L132.51 346.968L126.257 346.305L123.369 350.291C123.369 350.291 126.756 350.592 126.663 350.637C128.5 350.832 128.46 351.773 128.086 352.547L123.022 359.532C123.182 359.549 123.336 359.575 123.482 359.61L122.997 359.559L115.903 369.344C115.477 369.812 114.588 370.534 113.304 370.4C113.331 370.448 110.008 370.051 110.008 370.051L105.877 374.412L111.786 375.041C112.883 375.159 113.952 375.288 115.005 375.407L110.512 381.607L115.031 382.088L119.479 375.953C120.707 376.106 121.904 376.241 123.08 376.364L118.649 382.475L123.183 382.955L127.671 376.765C135.555 377.211 142.034 376.196 146.968 370.374C150.943 365.686 149.765 363.283 146.058 361.97C149.487 361.146 152.537 359.378 154.498 356.103L154.515 356.091ZM138.559 368.68C135.202 373.314 125.946 371.764 122.87 371.445L128.828 363.23C131.902 363.554 142.063 363.846 138.559 368.68ZM144.854 356.865C141.796 361.081 134.114 359.739 131.554 359.469L136.959 352.017C139.516 352.286 148.042 352.467 144.856 356.861L144.854 356.865Z" fill="#E35760"/>
</g>
<g clip-path="url(#clip2_1214_150030)">
<path d="M37.9972 14.0637C29.9581 10.8481 23.1836 11.4394 18.724 14.9956C-0.124998 30.1108 13.047 18.2211 13.3562 33.8234C15.8589 51.1811 60.6671 71.2934 54.7329 83.2568C52.3372 87.5795 62.0973 79.5251 66.5524 75.8108C70.8808 72.2022 72.9343 65.7153 71.701 57.1617C69.1984 39.804 54.1086 20.5084 37.9972 14.0637Z" fill="url(#paint3_linear_1214_150030)"/>
<path opacity="0.6" d="M37.9972 14.0637C29.9581 10.8481 23.1836 11.4394 18.724 14.9956C-0.124998 30.1108 13.047 18.2211 13.3562 33.8234C15.8589 51.1811 60.6671 71.2934 54.7329 83.2568C52.3372 87.5795 62.0973 79.5251 66.5524 75.8108C70.8808 72.2022 72.9343 65.7153 71.701 57.1617C69.1984 39.804 54.1086 20.5084 37.9972 14.0637Z" fill="url(#paint4_linear_1214_150030)"/>
<rect width="63.5077" height="62.8394" rx="31.4197" transform="matrix(0.142707 0.989765 0.928475 0.371395 0.47168 9.09283)" fill="url(#paint5_linear_1214_150030)"/>
<path fill-rule="evenodd" clip-rule="evenodd" d="M48.376 40.8472C43.1885 34.2029 36.5659 28.7236 29.7567 25.9998C22.9464 23.2757 17.3114 23.8454 13.6487 26.7971C9.98407 29.7503 8.1688 35.1882 9.21934 42.4744C10.2696 49.7583 13.9946 57.5325 19.182 64.1767C24.3694 70.821 30.992 76.3003 37.8012 79.0241C44.6115 81.7482 50.2465 81.1785 53.9092 78.2268C57.5739 75.2736 59.3891 69.8357 58.3386 62.5495C57.2884 55.2656 53.5633 47.4914 48.376 40.8472ZM8.82823 42.5315C6.70335 27.7941 16.1233 20.1193 29.9033 25.6314C43.6832 31.1434 56.6048 47.755 58.7297 62.4924C60.8546 77.2298 51.4346 84.9046 37.6547 79.3925C23.8748 73.8805 10.9531 57.2689 8.82823 42.5315Z" fill="#673E60"/>
<path d="M29.4136 39.794C26.9006 38.245 25.763 40.2474 25.1394 43.3803L21.7013 40.8267L21.4013 43.3898L24.7486 45.8763C24.6697 46.5496 24.5999 47.2498 24.5306 47.9387L21.1616 45.4344L20.8616 47.9964L24.2983 50.5504C24.2427 51.112 24.187 51.663 24.1249 52.1941L24.1147 52.1898L23.6999 55.7241L25.9348 57.3835C25.9348 57.3835 26.1266 55.469 26.1517 55.5217C26.2735 54.4835 26.8053 54.5118 27.2408 54.7284L31.1573 57.6382C31.1678 57.5476 31.1834 57.4607 31.2039 57.3783L31.1724 57.6523L36.6586 61.729C36.9203 61.9726 37.3228 62.4807 37.2387 63.2064C37.2664 63.1913 37.0206 65.0696 37.0206 65.0696L39.4597 67.4348L39.8533 64.0945C39.927 63.4745 40.0069 62.8705 40.0803 62.2753L43.5571 64.8568L43.8577 62.3026L40.418 59.7464C40.5122 59.0527 40.5965 58.3759 40.6732 57.7112L44.1002 60.2573L44.4001 57.6942L40.9299 55.1155C41.2324 50.6566 40.6998 46.9835 37.4401 44.1548C34.8154 41.8759 33.449 42.5272 32.683 44.6166C32.2393 42.6711 31.2591 40.9337 29.4206 39.8037L29.4136 39.794ZM36.4285 48.903C39.0269 50.8319 38.0914 56.0604 37.8914 57.799L33.2849 54.3756C33.4879 52.6381 33.7182 46.8895 36.4285 48.903ZM29.7893 45.2662C32.1532 47.0232 31.3451 51.3623 31.1759 52.8095L26.9979 49.7039C27.1665 48.2584 27.3234 43.4345 29.7871 45.2653L29.7893 45.2662Z" fill="#E35760"/>
</g>
<g clip-path="url(#clip3_1214_150030)">
<path d="M179.591 133.223C185.696 124.393 186.853 116.041 183.791 109.671C170.746 82.7201 181.464 101.919 162.539 97.9913C140.887 96.2305 104.221 144.845 91.4139 134.374C86.8559 130.286 93.8854 144.304 97.1397 150.713C100.301 156.94 107.567 161.21 118.237 162.078C139.889 163.839 167.358 150.92 179.591 133.223Z" fill="url(#paint6_linear_1214_150030)"/>
<path opacity="0.6" d="M179.591 133.223C185.696 124.393 186.853 116.041 183.791 109.671C170.746 82.7201 181.464 101.919 162.539 97.9913C140.887 96.2305 104.221 144.845 91.4139 134.374C86.8559 130.286 93.8854 144.304 97.1397 150.713C100.301 156.94 107.567 161.21 118.237 162.078C139.889 163.839 167.358 150.92 179.591 133.223Z" fill="url(#paint7_linear_1214_150030)"/>
<rect width="78.6663" height="77.9086" rx="38.9543" transform="matrix(-0.996709 -0.081057 -0.568636 0.822589 195.962 89.2366)" fill="url(#paint8_linear_1214_150030)"/>
<path fill-rule="evenodd" clip-rule="evenodd" d="M144.381 138.383C153.838 133.945 162.284 127.451 167.455 119.972C172.626 112.491 173.494 105.523 170.942 100.282C168.388 95.0387 162.323 91.3452 153.235 90.6061C144.149 89.8672 133.732 92.2262 124.276 96.6643C114.819 101.102 106.373 107.596 101.203 115.076C96.0316 122.556 95.1628 129.524 97.7151 134.765C100.269 140.009 106.334 143.702 115.422 144.442C124.508 145.18 134.925 142.822 144.381 138.383ZM153.274 90.1176C171.657 91.6126 178.322 105.115 167.859 120.251C157.396 135.387 133.767 146.425 115.383 144.93C97.0002 143.435 90.3351 129.933 100.798 114.797C111.261 99.661 134.891 88.6226 153.274 90.1176Z" fill="#673E60"/>
<path d="M150.892 115.754C153.457 113.144 151.353 111.216 147.742 109.599L151.776 106.147L148.764 105.078L144.836 108.438C144.045 108.157 143.219 107.88 142.406 107.606L146.361 104.225L143.35 103.156L139.316 106.605C138.654 106.383 138.004 106.164 137.38 105.943L137.388 105.931L133.234 104.456L130.613 106.699C130.613 106.699 132.872 107.459 132.801 107.475C134.021 107.908 133.84 108.543 133.458 109.01L128.863 112.941C128.969 112.979 129.07 113.022 129.164 113.069L128.841 112.956L122.403 118.463C122.036 118.712 121.312 119.059 120.459 118.757C120.469 118.795 118.269 117.98 118.269 117.98L114.739 120.276L118.664 121.672C119.392 121.932 120.099 122.195 120.798 122.448L116.72 125.939L119.721 127.007L123.758 123.554C124.57 123.859 125.364 124.147 126.145 124.423L122.124 127.864L125.136 128.933L129.209 125.449C134.51 127.044 139.092 127.413 143.409 124.253C146.886 121.709 146.477 119.878 144.165 118.376C146.637 118.376 149.006 117.67 150.878 115.76L150.892 115.754ZM137.954 121.721C134.907 124.33 128.852 121.758 126.808 121.037L132.215 116.413C134.257 117.137 141.135 119 137.954 121.721ZM144.18 114.699C141.406 117.072 136.389 114.899 134.688 114.295L139.593 110.102C141.292 110.704 147.074 112.224 144.182 114.697L144.18 114.699Z" fill="#E35760"/>
</g>
</g>
<defs>
<linearGradient id="paint0_linear_1214_150030" x1="220.187" y1="318.928" x2="72.5567" y2="345.802" gradientUnits="userSpaceOnUse">
<stop stop-color="#51354F"/>
<stop offset="0.845533" stop-color="#262029"/>
</linearGradient>
<linearGradient id="paint1_linear_1214_150030" x1="280.383" y1="261.003" x2="111.955" y2="280.512" gradientUnits="userSpaceOnUse">
<stop stop-color="#51354F"/>
<stop offset="0.845533" stop-color="#262029"/>
</linearGradient>
<linearGradient id="paint2_linear_1214_150030" x1="0" y1="0" x2="133.831" y2="69.546" gradientUnits="userSpaceOnUse">
<stop stop-color="#51354F"/>
<stop offset="1" stop-color="#262029"/>
</linearGradient>
<linearGradient id="paint3_linear_1214_150030" x1="8.82482" y1="2.39433" x2="23.1181" y2="86.1035" gradientUnits="userSpaceOnUse">
<stop stop-color="#51354F"/>
<stop offset="0.845533" stop-color="#262029"/>
</linearGradient>
<linearGradient id="paint4_linear_1214_150030" x1="-23.5374" y1="-32.036" x2="-13.546" y2="63.4003" gradientUnits="userSpaceOnUse">
<stop stop-color="#51354F"/>
<stop offset="0.845533" stop-color="#262029"/>
</linearGradient>
<linearGradient id="paint5_linear_1214_150030" x1="0" y1="0" x2="75.7102" y2="39.3786" gradientUnits="userSpaceOnUse">
<stop stop-color="#51354F"/>
<stop offset="1" stop-color="#262029"/>
</linearGradient>
<linearGradient id="paint6_linear_1214_150030" x1="201.743" y1="101.18" x2="96.7142" y2="95.3171" gradientUnits="userSpaceOnUse">
<stop stop-color="#51354F"/>
<stop offset="0.845533" stop-color="#262029"/>
</linearGradient>
<linearGradient id="paint7_linear_1214_150030" x1="252.26" y1="71.5565" x2="134.262" y2="57.2675" gradientUnits="userSpaceOnUse">
<stop stop-color="#51354F"/>
<stop offset="0.845533" stop-color="#262029"/>
</linearGradient>
<linearGradient id="paint8_linear_1214_150030" x1="0" y1="0" x2="93.8173" y2="48.7527" gradientUnits="userSpaceOnUse">
<stop stop-color="#51354F"/>
<stop offset="1" stop-color="#262029"/>
</linearGradient>
<clipPath id="clip0_1214_150030">
<rect width="210" height="438" fill="white"/>
</clipPath>
<clipPath id="clip1_1214_150030">
<rect width="142.27" height="136.292" fill="white" transform="matrix(-0.994558 -0.104188 -0.104188 0.994558 216.525 312.22)"/>
</clipPath>
<clipPath id="clip2_1214_150030">
<rect width="80.5205" height="77.0572" fill="white" transform="matrix(-0.115346 0.993325 0.993325 0.115346 5.00879 4.42474)"/>
</clipPath>
<clipPath id="clip3_1214_150030">
<rect width="99.7331" height="95.5427" fill="white" transform="matrix(-0.942687 -0.333678 -0.333678 0.942687 200.345 96.0077)"/>
</clipPath>
</defs>
</svg>
