<svg fill="none" height="245" viewBox="0 0 1166 245" width="1166" xmlns="http://www.w3.org/2000/svg" xmlns:xlink="http://www.w3.org/1999/xlink"><filter id="a" color-interpolation-filters="sRGB" filterUnits="userSpaceOnUse" height="70.8315" width="104.253" x="236.111" y="163.807"><feFlood flood-opacity="0" result="BackgroundImageFix"/><feColorMatrix in="SourceAlpha" result="hardAlpha" type="matrix" values="0 0 0 0 0 0 0 0 0 0 0 0 0 0 0 0 0 0 127 0"/><feOffset dx="-1" dy="-4"/><feGaussianBlur stdDeviation="2"/><feComposite in2="hardAlpha" operator="out"/><feColorMatrix type="matrix" values="0 0 0 0 0 0 0 0 0 0 0 0 0 0 0 0 0 0 0.25 0"/><feBlend in2="BackgroundImageFix" mode="normal" result="effect1_dropShadow_27312_89850"/><feBlend in="SourceGraphic" in2="effect1_dropShadow_27312_89850" mode="normal" result="shape"/></filter><filter id="b" color-interpolation-filters="sRGB" filterUnits="userSpaceOnUse" height="70.4973" width="111.939" x="202.352" y="124.684"><feFlood flood-opacity="0" result="BackgroundImageFix"/><feColorMatrix in="SourceAlpha" result="hardAlpha" type="matrix" values="0 0 0 0 0 0 0 0 0 0 0 0 0 0 0 0 0 0 127 0"/><feOffset dy="4"/><feGaussianBlur stdDeviation="2"/><feComposite in2="hardAlpha" operator="out"/><feColorMatrix type="matrix" values="0 0 0 0 0 0 0 0 0 0 0 0 0 0 0 0 0 0 0.25 0"/><feBlend in2="BackgroundImageFix" mode="normal" result="effect1_dropShadow_27312_89850"/><feBlend in="SourceGraphic" in2="effect1_dropShadow_27312_89850" mode="normal" result="shape"/></filter><filter id="c" color-interpolation-filters="sRGB" filterUnits="userSpaceOnUse" height="73.9019" width="113.495" x="33.9995" y="96.6112"><feFlood flood-opacity="0" result="BackgroundImageFix"/><feColorMatrix in="SourceAlpha" result="hardAlpha" type="matrix" values="0 0 0 0 0 0 0 0 0 0 0 0 0 0 0 0 0 0 127 0"/><feOffset dx="-1" dy="-4"/><feGaussianBlur stdDeviation="2"/><feComposite in2="hardAlpha" operator="out"/><feColorMatrix type="matrix" values="0 0 0 0 0 0 0 0 0 0 0 0 0 0 0 0 0 0 0.25 0"/><feBlend in2="BackgroundImageFix" mode="normal" result="effect1_dropShadow_27312_89850"/><feBlend in="SourceGraphic" in2="effect1_dropShadow_27312_89850" mode="normal" result="shape"/></filter><filter id="d" color-interpolation-filters="sRGB" filterUnits="userSpaceOnUse" height="87.7074" width="117.142" x="67.3719" y="39.0723"><feFlood flood-opacity="0" result="BackgroundImageFix"/><feColorMatrix in="SourceAlpha" result="hardAlpha" type="matrix" values="0 0 0 0 0 0 0 0 0 0 0 0 0 0 0 0 0 0 127 0"/><feOffset dy="4"/><feGaussianBlur stdDeviation="2"/><feComposite in2="hardAlpha" operator="out"/><feColorMatrix type="matrix" values="0 0 0 0 0 0 0 0 0 0 0 0 0 0 0 0 0 0 0.25 0"/><feBlend in2="BackgroundImageFix" mode="normal" result="effect1_dropShadow_27312_89850"/><feBlend in="SourceGraphic" in2="effect1_dropShadow_27312_89850" mode="normal" result="shape"/></filter><filter id="e" color-interpolation-filters="sRGB" filterUnits="userSpaceOnUse" height="47.0842" width="67.8737" x="353.699" y="87.4702"><feFlood flood-opacity="0" result="BackgroundImageFix"/><feColorMatrix in="SourceAlpha" result="hardAlpha" type="matrix" values="0 0 0 0 0 0 0 0 0 0 0 0 0 0 0 0 0 0 127 0"/><feOffset dx="-1" dy="-4"/><feGaussianBlur stdDeviation="2"/><feComposite in2="hardAlpha" operator="out"/><feColorMatrix type="matrix" values="0 0 0 0 0 0 0 0 0 0 0 0 0 0 0 0 0 0 0.25 0"/><feBlend in2="BackgroundImageFix" mode="normal" result="effect1_dropShadow_27312_89850"/><feBlend in="SourceGraphic" in2="effect1_dropShadow_27312_89850" mode="normal" result="shape"/></filter><filter id="f" color-interpolation-filters="sRGB" filterUnits="userSpaceOnUse" height="46.8763" width="72.6553" x="371.539" y="66.1578"><feFlood flood-opacity="0" result="BackgroundImageFix"/><feColorMatrix in="SourceAlpha" result="hardAlpha" type="matrix" values="0 0 0 0 0 0 0 0 0 0 0 0 0 0 0 0 0 0 127 0"/><feOffset dy="4"/><feGaussianBlur stdDeviation="2"/><feComposite in2="hardAlpha" operator="out"/><feColorMatrix type="matrix" values="0 0 0 0 0 0 0 0 0 0 0 0 0 0 0 0 0 0 0.25 0"/><feBlend in2="BackgroundImageFix" mode="normal" result="effect1_dropShadow_27312_89850"/><feBlend in="SourceGraphic" in2="effect1_dropShadow_27312_89850" mode="normal" result="shape"/></filter><linearGradient id="g"><stop offset="0" stop-color="#51354f"/><stop offset="1" stop-color="#262029"/></linearGradient><linearGradient id="h" gradientUnits="userSpaceOnUse" x1="225.737" x2="273.73" xlink:href="#g" y1="73.55" y2="251.038"/><linearGradient id="i" gradientUnits="userSpaceOnUse" x1="209.694" x2="249.542" xlink:href="#g" y1="73.55" y2="233.102"/><linearGradient id="j"><stop offset="0" stop-color="#a0789c"/><stop offset="1" stop-color="#a0789c" stop-opacity="0"/></linearGradient><linearGradient id="k" gradientUnits="userSpaceOnUse" x1="302.808" x2="276.945" xlink:href="#j" y1="236.222" y2="178.929"/><linearGradient id="l" gradientUnits="userSpaceOnUse" x1="259.158" x2="285.598" xlink:href="#g" y1="234.305" y2="83.7811"/><linearGradient id="m"><stop offset="0" stop-color="#a0789c"/><stop offset=".926095" stop-color="#a0789c" stop-opacity="0"/></linearGradient><linearGradient id="n" gradientUnits="userSpaceOnUse" x1="284.921" x2="254.106" xlink:href="#m" y1="196.07" y2="125.745"/><linearGradient id="o" gradientUnits="userSpaceOnUse" x1="154.466" x2="53.538" xlink:href="#g" y1="-13.8055" y2="161.934"/><linearGradient id="p" gradientUnits="userSpaceOnUse" x1="141.963" x2="48.6659" xlink:href="#g" y1="-26.3086" y2="129.103"/><linearGradient id="q" gradientUnits="userSpaceOnUse" x1="89.5" x2="113.5" xlink:href="#j" y1="171.5" y2="108"/><linearGradient id="r" gradientUnits="userSpaceOnUse" x1="55.2221" x2="193.147" xlink:href="#g" y1="137.534" y2="40.824"/><linearGradient id="s" gradientUnits="userSpaceOnUse" x1="106.499" x2="136.499" xlink:href="#m" y1="127" y2="49.5"/><linearGradient id="t" gradientUnits="userSpaceOnUse" x1="428.136" x2="398.282" xlink:href="#g" y1="34.35" y2="144.756"/><linearGradient id="u" gradientUnits="userSpaceOnUse" x1="438.115" x2="413.328" xlink:href="#g" y1="34.35" y2="133.599"/><linearGradient id="v" gradientUnits="userSpaceOnUse" x1="379.62" x2="394.762" xlink:href="#j" y1="131.509" y2="97.967"/><linearGradient id="w" gradientUnits="userSpaceOnUse" x1="407.347" x2="390.9" xlink:href="#g" y1="134.347" y2="40.7143"/><linearGradient id="x" gradientUnits="userSpaceOnUse" x1="392.066" x2="410.465" xlink:href="#m" y1="109.123" y2="67.855"/><g fill="url(#h)"><path d="m199 156.306 111.972-38.306 33.444 76.76-107.994 50.24z"/><path d="m199 156.306 111.972-38.306 33.444 76.76-107.994 50.24z"/><path d="m199 156.306 111.972-38.306 33.444 76.76-107.994 50.24z"/></g><g filter="url(#a)" opacity=".5"><path d="m286.563 171.807c22.281 8.689 49.998 23.194 50.8 23.729l-62.497-16.377-5.347 6.016-28.408 49.463 24.063-51.468z" fill="#1c1d1c"/></g><path d="m344.416 194.76-107.994 50.24.589-1.473 27.757-61.92c.625-1.394 1.758-2.497 3.167-3.084l16.709-6.962c1.48-.617 3.145-.616 4.623.003l52.644 22.017z" fill="url(#i)"/><path clip-rule="evenodd" d="m247.546 237.784 1.75-3.973 1.83.806-1.75 3.973zm5.249-11.919 3.5-7.946 1.83.806-3.499 7.946zm6.999-15.892 3.5-7.946 1.83.806-3.499 7.946zm70.409-12.516 3.453 1.509-.8 1.832-3.453-1.508zm-13.811-6.032 6.905 3.016-.8 1.833-6.906-3.016zm-49.598 2.656 1.749-3.973c.483-1.097 1.063-2.122 1.725-3.07l1.64 1.145c-.588.842-1.104 1.754-1.534 2.731l-1.75 3.973zm35.786-8.689 6.906 3.016-.801 1.833-6.906-3.016zm-10.359-4.524 3.453 1.508-.8 1.833-3.453-1.508c-.979-.428-1.976-.749-2.979-.97l.431-1.953c1.129.248 2.25.61 3.348 1.09zm-16.889 1.32c1.989-1.266 4.21-2.133 6.53-2.548l.352 1.968c-2.063.37-4.039 1.141-5.807 2.267z" fill="url(#k)" fill-rule="evenodd"/><g filter="url(#b)"><path d="m276.537 187.182c-22.281-8.69-69.383-25.868-70.185-26.403l70.185 19.384 7.686-2.005 26.069-53.474-24.063 58.487z" fill="#1c1d1c"/></g><path d="m199 156.306 111.972-38.306c1.037 2.547 1.019 5.401-.052 7.934l-23.593 55.801c-.615 1.454-1.778 2.607-3.237 3.21l-4.887 2.016c-1.364.563-2.887.604-4.278.115l-68.677-24.137c-3.219-1.131-5.837-3.527-7.248-6.633z" fill="url(#l)"/><path clip-rule="evenodd" d="m304.934 123.358-1.442 3.765-1.868-.716 1.442-3.765zm-4.325 11.295-2.883 7.53-1.868-.715 2.883-7.53zm-5.766 15.06-2.883 7.53-1.868-.715 2.883-7.53zm-87.397 7.63-3.801-1.44.709-1.87 3.8 1.439zm15.201 5.757-7.601-2.878.709-1.871 7.6 2.879zm66.43 1.673-1.442 3.765c-.428 1.119-.957 2.171-1.571 3.15l-1.694-1.063c.546-.87 1.016-1.805 1.397-2.802l1.442-3.765zm-51.23 4.085-7.6-2.879.708-1.87 7.601 2.879zm15.201 5.758-7.6-2.879.708-1.87 7.601 2.879zm28.199 2.164c-1.923 1.363-4.098 2.338-6.394 2.867l-.449-1.949c2.042-.47 3.977-1.338 5.686-2.549zm-16.798 2.155-3.8-1.44.708-1.87 3.801 1.439c.998.379 2.009.65 3.022.821l-.333 1.972c-1.14-.192-2.278-.498-3.398-.922z" fill="url(#n)" fill-rule="evenodd"/><path d="m289.645 184.969c.245-.492.276-1.064.086-1.581l-.861-2.339c-.172-.469-.164-.984.025-1.446l1.036-2.541c.639-1.568-.839-3.172-2.454-2.662l-2.34.739c-.787.248-1.645-.012-2.162-.655l-1.448-1.804c-.942-1.174-2.795-.925-3.394.457l-.644 1.486c-.253.583-.769 1.012-1.389 1.154l-2.23.51c-.909.208-1.554 1.017-1.554 1.95v.084c0 1.104-.903 2-2.007 2-1.798 0-2.701 2.186-1.41 3.437l2.554 2.473c.531.514.735 1.28.531 1.99l-.862 2.992c-.369 1.279.591 2.554 1.922 2.554h2.772c.775 0 1.481.448 1.81 1.149l.27.575c.672 1.432 2.662 1.553 3.503.214l1.845-2.933c.366-.582 1.005-.935 1.693-.935h3.022c1.565 0 2.524-1.716 1.703-3.049l-.478-.776c-.362-.588-.395-1.321-.088-1.939z" fill="#e35760"/><path clip-rule="evenodd" d="m273.904 184.197c0-3.341 2.709-6.051 6.051-6.051s6.052 2.71 6.052 6.051c0 3.342-2.71 6.052-6.052 6.052s-6.051-2.71-6.051-6.052zm-1 0c0-3.894 3.157-7.051 7.051-7.051 3.895 0 7.052 3.157 7.052 7.051 0 3.895-3.157 7.052-7.052 7.052-3.894 0-7.051-3.157-7.051-7.052z" fill="#36293b" fill-rule="evenodd"/><path d="m69.1274 29.8557 117.1266 57.4148-33.76 85.8925-123.3273-45.013z" fill="url(#o)"/><path d="m69.1274 29.8557 117.1266 57.4148-33.76 85.8925-123.3273-45.013z" fill="url(#o)"/><path d="m69.1274 29.8557 117.1266 57.4148-33.76 85.8925-123.3273-45.013z" fill="url(#o)"/><g filter="url(#c)" opacity=".5"><path d="m123.396 112.426c10.593 24.138 20.89 57.045 21.099 58.087l-35.947-61.474-8.8561.521-60.6924 16.411 58.869-21.36z" fill="#1c1d1c"/></g><path d="m152.494 173.163-123.3273-45.013 1.6076-.689 70.1207-26.713c1.427-.544 3.008-.523 4.421.059l18.91 7.787c1.482.61 2.658 1.788 3.267 3.271l23.967 58.427z" fill="url(#p)"/><path clip-rule="evenodd" d="m46.1372 130.568 3.3564-1.304.7242 1.864-3.3564 1.304zm10.0692-3.912 6.7128-2.608.7242 1.865-6.7128 2.607zm13.4256-5.216 6.7128-2.607.7243 1.864-6.7129 2.608zm70.273 41.302 1.526 3.893-1.862.73-1.526-3.893zm-56.8474-46.517 6.7128-2.608.7243 1.864-6.7128 2.608zm50.7424 30.943 3.052 7.787-1.862.73-3.052-7.787zm-6.105-15.574 3.052 7.787-1.862.73-3.052-7.787zm-31.2118-20.585 3.3564-1.304c1.1174-.434 2.2524-.749 3.3904-.951l.35 1.969c-1.011.18-2.021.46-3.016.846l-3.3565 1.304zm26.6328 8.905 1.526 3.894-1.862.73-1.526-3.894c-.39-.994-.867-1.926-1.42-2.792l1.685-1.077c.623.975 1.16 2.023 1.597 3.139zm-12.875-11.008c2.301.51 4.484 1.468 6.419 2.815l-1.144 1.641c-1.72-1.198-3.662-2.05-5.708-2.504z" fill="url(#q)" fill-rule="evenodd"/><g filter="url(#d)"><path d="m105.495 114.351c-10.5929-24.1375-33.9147-74.2369-34.1231-75.2788l39.5931 69.8088 7.554 4.429 61.995-21.36-64.339 26.83z" fill="#1c1d1c"/></g><path d="m69.1274 29.8557 117.1266 57.4148c-1.177 2.7935-3.416 5.0039-6.225 6.1433l-62.112 25.1972c-1.463.594-3.101.587-4.559-.019l-5.829-2.424c-1.362-.566-2.468-1.614-3.106-2.944l-34.8157-72.5493c-1.627-3.3904-1.8003-7.2979-.4799-10.819z" fill="url(#r)"/><path clip-rule="evenodd" d="m177.409 86.4121-4.08 1.8345-.82-1.8241 4.08-1.8345zm-12.241 5.5037-8.16 3.6691-.82-1.8241 8.16-3.6691zm-16.321 7.3382-8.161 3.669-.82-1.824 8.161-3.6691zm-71.4452-60.7864-1.8154-4.0593 1.8258-.8165 1.8153 4.0593zm7.2615 16.2375-3.6308-8.1187 1.8258-.8165 3.6307 8.1187zm7.2615 16.2375-3.6308-8.1187 1.8258-.8165 3.6307 8.1188zm40.6012 35.6494-4.081 1.835c-1.096.493-2.217.867-3.347 1.129l-.451-1.949c1.004-.232 2.001-.565 2.978-1.004l4.081-1.835zm-33.3397-19.4119-3.6308-8.1187 1.8258-.8165 3.6307 8.1188zm18.8797 22.5799c-2.331-.395-4.567-1.247-6.571-2.502l1.062-1.695c1.782 1.116 3.771 1.874 5.844 2.226zm-13.434-10.4017-1.815-4.0594 1.826-.8165 1.815 4.0594c.437.9779.96 1.8892 1.556 2.7302l-1.633 1.156c-.67-.947-1.258-1.972-1.749-3.0697z" fill="url(#s)" fill-rule="evenodd"/><path d="m110.844 105.147c.447-.322 1.006-.444 1.547-.34l3.29.635c.49.095.997.003 1.423-.258l3.719-2.275c1.445-.884 3.266.317 3.023 1.993l-.593 4.09c-.118.816.277 1.622.995 2.028l3.279 1.854c1.31.741 1.363 2.61.096 3.423l-2.402 1.543c-.535.344-.875.922-.915 1.557l-.208 3.298c-.059.931-.754 1.697-1.674 1.847l-.837.137c-1.091.178-1.83 1.206-1.652 2.296l.237 1.454c.29 1.774-1.725 3-3.167 1.927l-4.469-3.324c-.593-.442-1.382-.52-2.05-.203l-4.123 1.953c-1.203.569-2.616-.172-2.83-1.485l-.671-4.11c-.125-.765-.681-1.389-1.427-1.602l-1.7223-.49c-1.5211-.433-1.9618-2.376-.7762-3.423l3.8795-3.424c.516-.455.761-1.143.65-1.822l-.745-4.563c-.252-1.544 1.287-2.767 2.735-2.172l1.919.789c.639.263 1.367.177 1.928-.226z" fill="#e35760"/><path clip-rule="evenodd" d="m114.717 124.068c4.097-.669 6.875-4.533 6.206-8.629-.669-4.097-4.532-6.876-8.629-6.207s-6.875 4.533-6.206 8.629c.669 4.097 4.532 6.876 8.629 6.207zm.161.987c4.642-.758 7.79-5.136 7.032-9.777-.758-4.642-5.135-7.791-9.777-7.033s-7.79 5.136-7.032 9.778c.758 4.641 5.135 7.79 9.777 7.032z" fill="#36293b" fill-rule="evenodd"/><path d="m444.768 85.8283-69.652-23.8283-20.804 47.748 67.177 31.252z" fill="url(#t)"/><path d="m444.768 85.8283-69.652-23.8283-20.804 47.748 67.177 31.252z" fill="url(#t)"/><path d="m444.768 85.8283-69.652-23.8283-20.804 47.748 67.177 31.252z" fill="url(#t)"/><g filter="url(#e)" opacity=".5"><path d="m390.299 95.4702c-13.86 5.4048-31.101 14.4278-31.6 14.7608l38.876-10.187 3.326 3.742 17.672 30.768-14.969-32.015z" fill="#1c1d1c"/></g><path d="m354.312 109.748 67.178 31.252-.367-.916-16.899-37.697c-.624-1.394-1.757-2.4971-3.167-3.0845l-8.69-3.621c-1.48-.6165-3.145-.6153-4.623.0031l-31.874 13.3304z" fill="url(#u)"/><path clip-rule="evenodd" d="m411.895 132.458-1.183-2.685-.915.403 1.183 2.685zm-3.548-8.056-2.365-5.37-.915.403 2.365 5.37zm-44.525-15.599-2.227.973.4.916 2.227-.973zm39.795 4.858-1.183-2.685c-.311-.707-.664-1.383-1.054-2.028l-.855.518c.367.608.7 1.246.994 1.913l1.183 2.685zm-30.885-8.75-4.455 1.946.4.916 4.455-1.945zm25.796.479c-1.11-1.063-2.349-1.967-3.678-2.696l-.481.877c1.253.687 2.421 1.539 3.468 2.541zm-19.114-3.397-2.227.973.4.916 2.227-.973c.669-.292 1.346-.536 2.028-.734l-.279-.96c-.723.21-1.441.468-2.149.778zm11.189-.957c-1.471-.363-2.995-.537-4.532-.507l.02 1c1.448-.029 2.885.136 4.272.478z" fill="url(#v)" fill-rule="evenodd"/><g filter="url(#f)"><path d="m396.536 105.034c13.86-5.4051 43.159-16.0909 43.658-16.4235l-43.658 12.0575-4.781-1.247-16.216-33.2632 14.968 36.3812z" fill="#1c1d1c"/></g><path d="m444.768 85.8283-69.652-23.8283c-.646 1.5841-.634 3.36.032 4.9355l14.313 33.8525c.615 1.455 1.778 2.608 3.238 3.21l1.378.569c1.364.563 2.887.603 4.279.114l41.903-14.7268c2.002-.7037 3.631-2.1938 4.509-4.1259z" fill="url(#w)"/><path clip-rule="evenodd" d="m380.532 66.1761.922 2.4497.936-.3522-.922-2.4496zm2.765 7.349 1.844 4.8993.936-.3521-1.844-4.8993zm3.688 9.7987 1.843 4.8993.936-.3522-1.844-4.8993zm49.828 2.9214 2.367-.9123-.36-.9331-2.367.9123zm-9.467 3.649 4.733-1.8245-.359-.9331-4.734 1.8245zm-9.468 3.649 4.734-1.8245-.36-.9331-4.733 1.8245zm-27.206-.4208.921 2.4497c.36.9561.895 1.7964 1.554 2.4975l.729-.6852c-.571-.6066-1.034-1.3342-1.347-2.1645l-.922-2.4497zm17.739 4.0698 4.733-1.8245-.359-.9331-4.734 1.8245zm-7.101 2.7368 2.367-.9123-.36-.9331-2.367.9123c-.827.319-1.679.4571-2.511.4344l-.028.9997c.963.026 1.946-.134 2.899-.501z" fill="url(#x)" fill-rule="evenodd"/><path d="m396.191 93.7228c.535-.0581 1.079.1154 1.504.4797l1.447 1.2414c.384.3304.869.5051 1.359.4899l1.548-.0482c1.662-.0516 2.709 1.9256 1.738 3.2824l-.712.996c-.473.66-.493 1.57-.049 2.29l.679 1.105c.809 1.314.01 2.99-1.465 3.069l-.714.039c-.623.033-1.181.372-1.503.912l-.893 1.496c-.412.688-1.241.972-2 .684l-.031-.012c-.881-.335-1.83.121-2.118 1.019-.469 1.46-2.445 1.516-3.105.088l-1.217-2.632c-.318-.689-.972-1.155-1.698-1.213l-2.035-.161c-1.307-.103-2.206-1.47-1.799-2.737l.557-1.733c.228-.708.033-1.505-.5-2.046-1.086-1.1023-.611-2.9615.837-3.2742l2.271-.4902c.656-.1417 1.182-.6249 1.392-1.2796l.572-1.7784c.479-1.4899 2.376-1.7928 3.371-.5382l.046.0583c.439.5535 1.114.8456 1.786.7726z" fill="#e35760"/><path clip-rule="evenodd" d="m392.882 106.541c2.578.981 5.353-.354 6.197-2.981.844-2.626-.562-5.5499-3.141-6.5301-2.579-.9801-5.353.3545-6.197 2.9811-.845 2.626.562 5.55 3.141 6.53zm-.306.952c3.095 1.177 6.425-.425 7.438-3.577 1.013-3.153-.675-6.6618-3.77-7.8381-3.095-1.1764-6.425.4254-7.438 3.5778-1.013 3.1523.675 6.6613 3.77 7.8373z" fill="#36293b" fill-rule="evenodd"/></svg>