<svg width="24" height="24" viewBox="0 0 24 24" fill="none" xmlns="http://www.w3.org/2000/svg">
    <path fill-rule="evenodd" clip-rule="evenodd"
          d="M5.8445 7.74616C6.32336 7.13026 7.06236 6.76962 7.84555 6.76962H15.7885C16.4923 6.76962 17.1643 7.06112 17.6429 7.57403L19.3256 9.37757C20.2248 10.3414 20.2248 11.8311 19.3256 12.7949L12.9785 19.5978C12.4781 20.1341 11.6245 20.1341 11.1241 19.5978L4.67445 12.6849C3.83407 11.7842 3.77202 10.4117 4.52775 9.43973L5.8445 7.74616ZM7.76361 8.00294C7.37201 8.00294 7.00251 8.18326 6.76308 8.49121L5.2249 10.4696H8.24367L9.39436 8.00294H7.76361ZM10.6809 8.00294L9.53018 10.4696H14.5724L13.4217 8.00294H10.6809ZM14.7082 8.00294L15.8589 10.4696H18.7171L16.791 8.40514C16.5517 8.14869 16.2157 8.00294 15.8638 8.00294H14.7082ZM18.7171 11.7029H15.8827L13.757 17.0192L18.7171 11.7029ZM12.0513 18.154L14.6308 11.7029H9.47178L12.0513 18.154ZM8.21988 11.7029L10.3456 17.0192L5.38552 11.7029H8.21988Z"
          fill="white"/>
    <path fill-rule="evenodd" clip-rule="evenodd"
          d="M12.069 3C12.4181 3 12.7012 3.28129 12.7012 3.62827V5.51308C12.7012 5.86006 12.4181 6.14135 12.069 6.14135C11.7198 6.14135 11.4368 5.86006 11.4368 5.51308V3.62827C11.4368 3.28129 11.7198 3 12.069 3Z"
          fill="white"/>
    <path fill-rule="evenodd" clip-rule="evenodd"
          d="M7.60698 3.14721C7.92342 3.00057 8.29956 3.13663 8.44712 3.4511L9.24866 5.15932C9.39622 5.47379 9.25931 5.8476 8.94287 5.99424C8.62643 6.14089 8.25028 6.00483 8.10273 5.69036L7.30119 3.98214C7.15363 3.66766 7.29054 3.29386 7.60698 3.14721Z"
          fill="white"/>
    <path fill-rule="evenodd" clip-rule="evenodd"
          d="M16.5306 3.1466C16.8471 3.29324 16.984 3.66705 16.8364 3.98153L16.0349 5.68974C15.8873 6.00422 15.5112 6.14027 15.1947 5.99363C14.8783 5.84699 14.7414 5.47318 14.8889 5.15871L15.6905 3.45049C15.838 3.13601 16.2142 2.99996 16.5306 3.1466Z"
          fill="white"/>
</svg>
