<svg fill="none" height="88" viewBox="0 0 88 88" width="88" xmlns="http://www.w3.org/2000/svg" xmlns:xlink="http://www.w3.org/1999/xlink"><filter id="a" color-interpolation-filters="sRGB" filterUnits="userSpaceOnUse" height="31.1343" width="46.38" x="18.5123" y="46.496"><feFlood flood-opacity="0" result="BackgroundImageFix"/><feBlend in="SourceGraphic" in2="BackgroundImageFix" mode="normal" result="shape"/><feGaussianBlur result="effect1_foregroundBlur_8131_5997" stdDeviation=".5"/></filter><filter id="b" color-interpolation-filters="sRGB" filterUnits="userSpaceOnUse" height="36.2076" width="42.3825" x="23.7844" y="3.99121"><feFlood flood-opacity="0" result="BackgroundImageFix"/><feBlend in="SourceGraphic" in2="BackgroundImageFix" mode="normal" result="shape"/><feGaussianBlur result="effect1_foregroundBlur_8131_5997" stdDeviation=".5"/></filter><linearGradient id="c"><stop offset="0" stop-color="#662c30"/><stop offset="1" stop-color="#302634"/></linearGradient><linearGradient id="d" gradientUnits="userSpaceOnUse" x1="40.496" x2="15.4336" xlink:href="#c" y1="54.6323" y2="70.8421"/><linearGradient id="e" gradientUnits="userSpaceOnUse" x1="70.5137" x2="32.4161" xlink:href="#c" y1="50.6857" y2="75.8023"/><linearGradient id="f" gradientUnits="userSpaceOnUse" x1="46.2208" x2="26.8506" xlink:href="#c" y1="66.0956" y2="84.6934"/><linearGradient id="g" gradientUnits="userSpaceOnUse" x1="65.0255" x2="42.2275" xlink:href="#c" y1="7.24247" y2="33.9692"/><linearGradient id="h" gradientUnits="userSpaceOnUse" x1="47.0815" x2="16.1565" xlink:href="#c" y1="14.1728" y2="33.1754"/><linearGradient id="i" gradientUnits="userSpaceOnUse" x1="71.3185" x2="54.7389" xlink:href="#c" y1="14.5748" y2="19.983"/><linearGradient id="j"><stop offset="0" stop-color="#e35760"/><stop offset="1" stop-color="#302634"/></linearGradient><linearGradient id="k" gradientUnits="userSpaceOnUse" x1="64.4357" x2="23.3059" xlink:href="#j" y1="50.7822" y2="91.099"/><linearGradient id="l" gradientUnits="userSpaceOnUse" x1="66.1067" x2="25.1542" xlink:href="#j" y1="8.84822" y2="49.1566"/><path d="m38.4844 55.5555-11.0956-3.1214c-.1594-.0448-.3187-.0666-.4751-.0676l-6.7359.1063.4211.8682 1.0628 22.2627 6.6255-.1046c.6383.0348 1.307-.2588 1.7049-.9421l9.5144-16.3377c.6055-1.0398.1039-2.3471-1.0221-2.6638z" fill="url(#d)"/><path d="m69.4554 49.8626c-.8482 7.6277-3.0076 14.9661-6.4607 20.8956-4.381 7.523-10.0203 11.363-15.6103 11.4994l-6.7477.1065-1.8828-1.4459 6.6373-8.3043c1.1798.236 2.3757.2487 3.5656.0385l3.7775-4.9386 7.3324-20.6062 6.7628-.1068c1.5684-.0247 2.8013 1.2836 2.6259 2.8618z" fill="url(#e)"/><path d="m25.0333 64.6668 10.8154-.1708c2.6426 4.7071 6.0251 7.4088 9.5524 8.1145l-9.81 8.3544-8.3249-6.3929z" fill="url(#f)"/><path d="m63.842 16.3968-3.9307 6.7496-1.2902 1.7559-9.2042-9.846-15.1935-3.8241 7.7191-5.73137 7.0742-.11168c5.4398.14738 10.7846 3.81025 14.8253 11.00765z" fill="url(#g)"/><path d="m31.776 37.9075c.7339-5.2514 2.3031-10.2612 4.6973-14.3724 2.7798-4.7733 6.2315-7.5797 9.7674-8.41l-12.0208-3.8742-11.1237 14.5244-.8319 14.8425 6.6718-.1053c1.4368-.0227 2.6384-1.1631 2.8399-2.605z" fill="url(#h)"/><path d="m70.6603 33.2478-1.5812-19.459c-.0841-1.0354-.9094-1.6274-1.7629-1.6311l-6.517.1028-.0017.1087 1.4949 23.0261 6.4792-.1023c1.0558.0137 1.9804-.916 1.8887-2.0452z" fill="url(#i)"/><path d="m56.4209 70.8625c-8.8191 15.1437-22.737 15.3634-31.0866.4908l3.9307-6.7496c6.2943 11.2117 16.7862 11.0461 23.4344-.3699 2.4162-4.149 3.9922-9.2129 4.7173-14.517.1975-1.4445 1.3999-2.589 2.8389-2.6117 1.5684-.0247 2.8014 1.2836 2.6259 2.8618-.8481 7.6277-3.0075 14.9661-6.4606 20.8956z" fill="url(#k)"/><path d="m18.4499 54.5241c-.105-1.2926 1.1219-2.3239 2.3529-1.9776l11.0955 3.1214c1.1261.3167 1.6277 1.624 1.0221 2.6638l-9.5143 16.3377c-.9089 1.5606-3.2307 1.0885-3.375-.6863z" fill="url(#k)"/><g filter="url(#a)"><path clip-rule="evenodd" d="m23.5243 74.4664c.3443-.1482.6564-.4101.8818-.7971l1.1361-1.9509c-.0692-.1198-.138-.2407-.2065-.3626zm28.6567 2.1638c1.872-1.764 3.6398-4.0202 5.2399-6.7677 3.4531-5.9296 5.6125-13.268 6.4606-20.8957.1325-1.1917-.9689-1.4342-2.1916-1.4708.8068.4998 1.3077 1.4262 1.1916 2.4708-.8482 7.6277-3.0075 14.9661-6.4607 20.8957-1.3121 2.2531-2.7371 4.1759-4.2398 5.7677zm-2.5567-8.1779c-6.3454 5.8619-14.2392 4.2693-19.3579-4.8461l3.654-6.2745c.6055-1.0398.104-2.3471-1.0221-2.6639l-11.8671-2.1678c-.8619-.2425-1.3436-.2771-1.5189.1678.3856-.1897.8378-.2487 1.2905-.1213l11.0955 3.1213c1.1261.3168 1.6276 1.6241 1.0221 2.6639l-3.654 6.2745c5.3913 9.6008 13.8612 10.8563 20.3579 3.8461z" fill="#fff" fill-opacity=".2" fill-rule="evenodd"/></g><path d="m29.9117 23.6335c6.6482-11.416 17.1402-11.5816 23.4345-.3699l3.9306-6.7496c-8.3496-14.87261-22.2675-14.65289-31.0865.4908-3.4291 5.8882-5.5824 13.1657-6.4428 20.7363-.1797 1.5814 1.055 2.8946 2.627 2.8698 1.4368-.0227 2.6384-1.1631 2.8399-2.6049.7339-5.2515 2.3031-10.2612 4.6973-14.3725z" fill="url(#l)"/><path d="m64.1606 33.3438c.1051 1.2926-1.1219 2.3239-2.3528 1.9776l-11.0956-3.1214c-1.126-.3167-1.6276-1.624-1.0221-2.6638l9.5144-16.3377c.9089-1.5606 3.2307-1.0885 3.3749.6863z" fill="url(#l)"/><g filter="url(#b)"><path clip-rule="evenodd" d="m33.9867 18.415c-1.4575 1.3464-2.8333 3.0862-4.0751 5.2185-2.3942 4.1112-3.9634 9.1209-4.6973 14.3724-.0604.4321-.2105.837-.4299 1.193.7553-.4605 1.3001-1.2642 1.4299-2.193.7339-5.2515 2.3031-10.2612 4.6973-14.3724.9539-1.6379 1.9868-3.0442 3.0751-4.2185zm30.027 15.8239c.7072-.3056 1.216-1.0437 1.1468-1.8952l-1.1605-17.8438c-.1357-1.6705-3.1974-3.0099-4.3146-1.8602 1.0634-.835 2.7709-.2689 2.894 1.245l1.5811 19.459c.0261.3201-.0296.6241-.1468.8952zm-6.6212-17.9292c-7.0662-12.42369-17.5034-14.83672-25.8674-6.1618 8.4295-7.85362 18.9409-5.76297 25.7501 6.3633z" fill="#fff" fill-opacity=".2" fill-rule="evenodd"/></g></svg>