<svg fill="none" height="591" viewBox="0 0 744 591" width="744" xmlns="http://www.w3.org/2000/svg" xmlns:xlink="http://www.w3.org/1999/xlink"><filter id="a" color-interpolation-filters="sRGB" filterUnits="userSpaceOnUse" height="143.664" width="176.257" x="252.214" y="89.0571"><feFlood flood-opacity="0" result="BackgroundImageFix"/><feBlend in="SourceGraphic" in2="BackgroundImageFix" mode="normal" result="shape"/><feGaussianBlur result="effect1_foregroundBlur_2788_68599" stdDeviation=".409989"/></filter><filter id="b" color-interpolation-filters="sRGB" filterUnits="userSpaceOnUse" height="130.939" width="228.853" x="345.562" y="104.243"><feFlood flood-opacity="0" result="BackgroundImageFix"/><feBlend in="SourceGraphic" in2="BackgroundImageFix" mode="normal" result="shape"/><feGaussianBlur result="effect1_foregroundBlur_2788_68599" stdDeviation=".409989"/></filter><filter id="c" color-interpolation-filters="sRGB" filterUnits="userSpaceOnUse" height="143.664" width="194.367" x="116.8" y="232.721"><feFlood flood-opacity="0" result="BackgroundImageFix"/><feBlend in="SourceGraphic" in2="BackgroundImageFix" mode="normal" result="shape"/><feGaussianBlur result="effect1_foregroundBlur_2788_68599" stdDeviation=".409989"/></filter><filter id="d" color-interpolation-filters="sRGB" filterUnits="userSpaceOnUse" height="590.399" width="618.695" x="125.023" y=".491783"><feFlood flood-opacity="0" result="BackgroundImageFix"/><feBlend in="SourceGraphic" in2="BackgroundImageFix" mode="normal" result="shape"/><feGaussianBlur result="effect1_foregroundBlur_2788_68599" stdDeviation="100"/></filter><filter id="e" color-interpolation-filters="sRGB" filterUnits="userSpaceOnUse" height="197.06" width="242.565" x="305.477" y="180.829"><feFlood flood-opacity="0" result="BackgroundImageFix"/><feBlend in="SourceGraphic" in2="BackgroundImageFix" mode="normal" result="shape"/><feGaussianBlur result="effect1_foregroundBlur_2788_68599" stdDeviation=".409989"/></filter><filter id="f" color-interpolation-filters="sRGB" filterUnits="userSpaceOnUse" height="45.0768" width="60.0809" x="391.132" y="279.913"><feFlood flood-opacity="0" result="BackgroundImageFix"/><feBlend in="SourceGraphic" in2="BackgroundImageFix" mode="normal" result="shape"/><feGaussianBlur result="effect1_foregroundBlur_2788_68599" stdDeviation=".409989"/></filter><filter id="g" color-interpolation-filters="sRGB" filterUnits="userSpaceOnUse" height="19.844" width="43.1964" x="407.246" y="281.186"><feFlood flood-opacity="0" result="BackgroundImageFix"/><feBlend in="SourceGraphic" in2="BackgroundImageFix" mode="normal" result="shape"/><feGaussianBlur result="effect1_foregroundBlur_2788_68599" stdDeviation=".819978"/></filter><filter id="h" color-interpolation-filters="sRGB" filterUnits="userSpaceOnUse" height="5.46323" width="17.6178" x="420.29" y="303.689"><feFlood flood-opacity="0" result="BackgroundImageFix"/><feBlend in="SourceGraphic" in2="BackgroundImageFix" mode="normal" result="shape"/><feGaussianBlur result="effect1_foregroundBlur_2788_68599" stdDeviation=".204994"/></filter><filter id="i" color-interpolation-filters="sRGB" filterUnits="userSpaceOnUse" height="4.37209" width="14.3317" x="416.315" y="310.449"><feFlood flood-opacity="0" result="BackgroundImageFix"/><feBlend in="SourceGraphic" in2="BackgroundImageFix" mode="normal" result="shape"/><feGaussianBlur result="effect1_foregroundBlur_2788_68599" stdDeviation=".204994"/></filter><filter id="j" color-interpolation-filters="sRGB" filterUnits="userSpaceOnUse" height="4.74193" width="11.6984" x="410.431" y="314.764"><feFlood flood-opacity="0" result="BackgroundImageFix"/><feBlend in="SourceGraphic" in2="BackgroundImageFix" mode="normal" result="shape"/><feGaussianBlur result="effect1_foregroundBlur_2788_68599" stdDeviation=".204994"/></filter><filter id="k" color-interpolation-filters="sRGB" filterUnits="userSpaceOnUse" height="104.883" width="104.706" x="219.633" y="51.4526"><feFlood flood-opacity="0" result="BackgroundImageFix"/><feBlend in="SourceGraphic" in2="BackgroundImageFix" mode="normal" result="shape"/><feGaussianBlur result="effect1_foregroundBlur_2788_68599" stdDeviation="9.66965"/></filter><linearGradient id="l"><stop offset="0" stop-color="#5d3340"/><stop offset="1" stop-color="#5d3340" stop-opacity="0"/></linearGradient><linearGradient id="m" gradientUnits="userSpaceOnUse" x1="311.713" x2="356.578" xlink:href="#l" y1="69.0707" y2="222.917"/><linearGradient id="n" gradientUnits="userSpaceOnUse" x1="411.142" x2="373.186" xlink:href="#l" y1="434.64" y2="278.945"/><linearGradient id="o" gradientUnits="userSpaceOnUse" x1="588.777" x2="407.176" y1="90.6974" y2="145.336"><stop offset="0" stop-color="#222"/><stop offset=".0001" stop-color="#784f76"/><stop offset=".206553" stop-color="#372a3c"/><stop offset=".930337" stop-color="#372a3c"/><stop offset=".969109" stop-color="#784f76"/><stop offset="1" stop-color="#49384f"/></linearGradient><linearGradient id="p"><stop offset="0" stop-color="#e35760"/><stop offset="1" stop-color="#302634"/></linearGradient><radialGradient id="q" cx="0" cy="0" gradientTransform="matrix(-75.43882161 -171.37473481 204.62753257 -90.07663786 344.423 232.554)" gradientUnits="userSpaceOnUse" r="1" xlink:href="#p"/><linearGradient id="r" gradientUnits="userSpaceOnUse" x1="419.86" x2="268.984" xlink:href="#p" y1="403.929" y2="61.1782"/><linearGradient id="s" gradientUnits="userSpaceOnUse" x1="345.653" x2="334.993" y1="231.733" y2="85.3674"><stop offset="0" stop-color="#fff"/><stop offset="1" stop-color="#fff" stop-opacity="0"/></linearGradient><linearGradient id="t"><stop offset="0" stop-color="#81557e"/><stop offset="1" stop-color="#36293b"/></linearGradient><radialGradient id="u" cx="0" cy="0" gradientTransform="matrix(216.88388598 -130.78626364 149.15611888 247.34676089 350.164 232.554)" gradientUnits="userSpaceOnUse" r="1" xlink:href="#t"/><linearGradient id="v"><stop offset="0" stop-color="#6b4d68" stop-opacity="0"/><stop offset="1" stop-color="#bba0b8"/></linearGradient><linearGradient id="w" gradientUnits="userSpaceOnUse" x1="323" x2="501.394" xlink:href="#v" y1="218.499" y2="245.153"/><linearGradient id="x" gradientUnits="userSpaceOnUse" x1="118.519" x2="387.062" y1="403.928" y2="403.928"><stop offset="0" stop-color="#222"/><stop offset=".0001" stop-color="#784f76"/><stop offset=".0637465" stop-color="#372a3c"/><stop offset=".535652" stop-color="#372a3c"/><stop offset=".554649" stop-color="#6f4a6e"/><stop offset=".664953" stop-color="#462f45"/><stop offset=".819968" stop-color="#372a3c"/></linearGradient><radialGradient id="y" cx="0" cy="0" gradientTransform="matrix(-160.71604275 151.69493598 -142.47723781 -150.95017968 310.399 216.563)" gradientUnits="userSpaceOnUse" r="1" xlink:href="#t"/><linearGradient id="z" gradientUnits="userSpaceOnUse" x1="160.338" x2="268.467" y1="287.901" y2="368.198"><stop offset="0" stop-color="#6b4d68" stop-opacity="0"/><stop offset=".74184" stop-color="#bba0b8"/><stop offset="1" stop-color="#6b4d68" stop-opacity="0"/></linearGradient><radialGradient id="A" cx="0" cy="0" gradientTransform="matrix(74.09912907 -50.2908177 54.89284622 80.87981631 436.371 183.217)" gradientUnits="userSpaceOnUse" r="1"><stop offset="0" stop-color="#36293b"/><stop offset="1" stop-color="#81557e"/></radialGradient><radialGradient id="B" cx="0" cy="0" gradientTransform="matrix(0 102.497 -102.497 0 102.497 102.497)" gradientUnits="userSpaceOnUse" r="1"><stop offset="0" stop-color="#ff8f96"/><stop offset=".9375" stop-color="#e35760"/></radialGradient><linearGradient id="C"><stop offset="0" stop-color="#6b2f38"/><stop offset=".314852" stop-color="#8c404b"/><stop offset=".425135" stop-color="#e25760"/><stop offset=".575" stop-color="#8c404b"/><stop offset="1" stop-color="#6b2f38"/></linearGradient><linearGradient id="D" gradientUnits="userSpaceOnUse" x1="571.918" x2="362.729" xlink:href="#C" y1="412.722" y2="447.819"/><linearGradient id="E" gradientUnits="userSpaceOnUse" x1="474.372" x2="492.403" xlink:href="#C" y1="112.972" y2="110.178"/><linearGradient id="F" gradientUnits="userSpaceOnUse" x1="371.068" x2="312.435" xlink:href="#C" y1="457.425" y2="457.331"/><radialGradient id="G" cx="0" cy="0" gradientTransform="matrix(85.34253882 134.79844182 -160.95411999 101.90201792 388.196 226.38)" gradientUnits="userSpaceOnUse" r="1" xlink:href="#p"/><linearGradient id="H" gradientUnits="userSpaceOnUse" x1="303.709" x2="474.403" xlink:href="#v" y1="92.3555" y2="361.959"/><linearGradient id="I" gradientUnits="userSpaceOnUse" x1="415.186" x2="403.574" y1="308.606" y2="326.608"><stop offset=".647547" stop-color="#402b38"/><stop offset="1" stop-color="#dc555f"/></linearGradient><radialGradient id="J" cx="0" cy="0" gradientTransform="matrix(-19.27635885 36.42822787 -34.9379179 -18.48774651 431.233 288.869)" gradientUnits="userSpaceOnUse" r="1"><stop offset="0" stop-color="#dc555f"/><stop offset="1" stop-color="#402b38"/></radialGradient><linearGradient id="K"><stop offset="0" stop-color="#6b4d68"/><stop offset="1" stop-color="#302634"/></linearGradient><linearGradient id="L" gradientUnits="userSpaceOnUse" x1="404.866" x2="407.876" xlink:href="#K" y1="287.533" y2="307.116"/><linearGradient id="M"><stop offset="0" stop-color="#302634"/><stop offset="1" stop-color="#80374c"/></linearGradient><linearGradient id="N" gradientUnits="userSpaceOnUse" x1="402.207" x2="406.612" xlink:href="#M" y1="275.303" y2="306.668"/><linearGradient id="O" gradientUnits="userSpaceOnUse" x1="443.642" x2="442.199" y1="284.8" y2="307.189"><stop offset=".272504" stop-color="#dc555f"/><stop offset=".791073" stop-color="#402b38"/></linearGradient><linearGradient id="P" gradientUnits="userSpaceOnUse" x1="466.244" x2="453.627" xlink:href="#K" y1="294.559" y2="282.723"/><linearGradient id="Q" gradientUnits="userSpaceOnUse" x1="482.296" x2="462.869" xlink:href="#M" y1="292.262" y2="273.698"/><linearGradient id="R"><stop offset="0" stop-color="#4e2f3c"/><stop offset="1" stop-color="#4e2f3c" stop-opacity="0"/></linearGradient><linearGradient id="S" gradientUnits="userSpaceOnUse" x1="435.6" x2="424.696" xlink:href="#R" y1="308.798" y2="300.146"/><linearGradient id="T" gradientUnits="userSpaceOnUse" x1="426.272" x2="418.404" xlink:href="#R" y1="315.147" y2="309.46"/><linearGradient id="U" gradientUnits="userSpaceOnUse" x1="418.382" x2="411.478" xlink:href="#R" y1="319.744" y2="315.116"/><linearGradient id="V" gradientUnits="userSpaceOnUse" x1="448.806" x2="454.405" y1="244.14" y2="268.025"><stop offset="0" stop-color="#80547d"/><stop offset="1" stop-color="#392b3d"/></linearGradient><radialGradient id="W" cx="0" cy="0" gradientTransform="matrix(-.00952156 27.55279835 -10.0162994 -.00346138 5.3394 -.000002)" gradientUnits="userSpaceOnUse" r="1"><stop offset=".41" stop-color="#e35760"/><stop offset="1" stop-color="#302634"/></radialGradient><radialGradient id="X" cx="0" cy="0" gradientTransform="matrix(51.65856687 -5.68096545 22.46391693 204.2705178 241.107 267.204)" gradientUnits="userSpaceOnUse" r="1"><stop offset=".0731776" stop-color="#dd565f"/><stop offset="1" stop-color="#432c39" stop-opacity="0"/></radialGradient><radialGradient id="Y" cx="0" cy="0" gradientTransform="matrix(25.01228628 -43.24878125 33.48738415 19.36692815 215.646 311.232)" gradientUnits="userSpaceOnUse" r="1" xlink:href="#p"/><linearGradient id="Z" gradientUnits="userSpaceOnUse" x1="239.47" x2="239.47" y1="270.045" y2="290.638"><stop offset="0" stop-color="#fff"/><stop offset="1" stop-color="#fdc8cc" stop-opacity="0"/></linearGradient><linearGradient id="aa"><stop offset=".758594" stop-color="#5d3548"/><stop offset=".824081" stop-color="#e35760"/><stop offset=".884111" stop-color="#5d3548"/></linearGradient><linearGradient id="ab" gradientUnits="userSpaceOnUse" x1="-9.83973" x2="9.83954" xlink:href="#aa" y1=".819976" y2=".758159"/><linearGradient id="ac" gradientUnits="userSpaceOnUse" x1="-4.91987" x2="4.91984" xlink:href="#aa" y1=".819976" y2=".804521"/><linearGradient id="ad" gradientUnits="userSpaceOnUse" x1="27.8792" x2="27.8792" y1="0" y2="8.19978"><stop offset="0" stop-color="#e35760"/><stop offset="1" stop-color="#6b4d68"/></linearGradient><radialGradient id="ae" cx="0" cy="0" gradientTransform="matrix(-52.47168346 5.6807909 -22.14654153 -204.56065661 202.542 333.292)" gradientUnits="userSpaceOnUse" r="1"><stop offset=".0731776" stop-color="#6f4b70"/><stop offset="1" stop-color="#3e2e42" stop-opacity="0"/></radialGradient><radialGradient id="af" cx="0" cy="0" gradientTransform="matrix(-25.51713102 44.12401908 -33.48808327 -19.36631853 228.975 288.508)" gradientUnits="userSpaceOnUse" r="1" xlink:href="#t"/><linearGradient id="ag" gradientUnits="userSpaceOnUse" x1="217.042" x2="217.042" y1="309.101" y2="329.694"><stop offset="0" stop-color="#fff" stop-opacity="0"/><stop offset="1" stop-color="#fff"/></linearGradient><linearGradient id="ah"><stop offset=".610838" stop-color="#3d2d41"/><stop offset=".673151" stop-color="#704c71"/><stop offset=".745849" stop-color="#3e2e43"/></linearGradient><linearGradient id="ai" gradientUnits="userSpaceOnUse" x1="-9.83973" x2="9.83954" xlink:href="#ah" y1=".819976" y2=".758159"/><linearGradient id="aj" gradientUnits="userSpaceOnUse" x1="-4.91987" x2="4.91984" xlink:href="#ah" y1=".819976" y2=".804521"/><linearGradient id="ak"><stop offset="0" stop-color="#302634"/><stop offset="1" stop-color="#e35760"/></linearGradient><linearGradient id="al" gradientUnits="userSpaceOnUse" x1="301.623" x2="301.623" xlink:href="#ak" y1="137.026" y2="143.98"/><linearGradient id="am" gradientUnits="userSpaceOnUse" x1="310.2" x2="310.2" xlink:href="#ak" y1="159.1" y2="166.054"/><radialGradient id="an" cx="0" cy="0" gradientTransform="matrix(-31.47329286 -35.67809753 24.79413378 -21.87204721 29.3592 29.5326)" gradientUnits="userSpaceOnUse" r="1" xlink:href="#p"/><linearGradient id="ao"><stop offset="0" stop-color="#ff959b"/><stop offset="1" stop-color="#ff959b" stop-opacity="0"/></linearGradient><linearGradient id="ap" gradientUnits="userSpaceOnUse" x1="11.601" x2="37.2332" xlink:href="#ao" y1="320.317" y2="297.521"/><radialGradient id="aq" cx="0" cy="0" gradientTransform="matrix(-31.47305339 -35.7155043 24.8169115 -21.86904527 29.3591 29.5635)" gradientUnits="userSpaceOnUse" r="1" xlink:href="#p"/><linearGradient id="ar" gradientUnits="userSpaceOnUse" x1="-9.89443" x2="44.1884" xlink:href="#ao" y1="314.299" y2="272.661"/><linearGradient id="as"><stop offset="0" stop-color="#81557e"/><stop offset="1" stop-color="#51354f"/></linearGradient><linearGradient id="at" gradientUnits="userSpaceOnUse" x1="-.001511" x2="45.7299" xlink:href="#as" y1=".010525" y2="40.9016"/><linearGradient id="au" gradientUnits="userSpaceOnUse" x1="637.061" x2="679.864" xlink:href="#ao" y1="225.786" y2="242.33"/><linearGradient id="av" gradientUnits="userSpaceOnUse" x1="-.001511" x2="45.7725" xlink:href="#as" y1=".010536" y2="40.8966"/><linearGradient id="aw" gradientUnits="userSpaceOnUse" x1="631.067" x2="713.694" xlink:href="#ao" y1="196.53" y2="235.392"/><radialGradient id="ax" cx="0" cy="0" gradientTransform="matrix(-11.14377844 24.77174476 -26.99312082 -12.14308321 29.9349 38.0214)" gradientUnits="userSpaceOnUse" r="1"><stop offset="0" stop-color="#302633" stop-opacity=".4"/><stop offset="1" stop-color="#302633" stop-opacity="0"/></radialGradient><radialGradient id="ay" cx="0" cy="0" gradientTransform="matrix(-14.47181266 43.7177632 -47.63672439 -15.76909935 35.5777 9.91154)" gradientUnits="userSpaceOnUse" r="1"><stop offset="0" stop-color="#a6608d"/><stop offset="1" stop-color="#372a3c"/></radialGradient><radialGradient id="az" cx="0" cy="0" gradientTransform="matrix(43.48421792 -26.20041695 36.33434136 60.30325473 420.31 437.827)" gradientUnits="userSpaceOnUse" r="1"><stop offset="0" stop-color="#64333f"/><stop offset="1" stop-color="#5f323e"/></radialGradient><radialGradient id="aA" cx="0" cy="0" gradientTransform="matrix(7.3242013 -26.18205338 114.64856458 32.07193697 455.142 405.957)" gradientUnits="userSpaceOnUse" r="1"><stop offset="0" stop-color="#673642"/><stop offset="1" stop-color="#cb5764"/></radialGradient><radialGradient id="aB" cx="0" cy="0" gradientTransform="matrix(41.5600044 19.32599519 -59.7885287 128.57353484 447.284 422.306)" gradientUnits="userSpaceOnUse" r="1"><stop offset="0" stop-color="#643440"/><stop offset="1" stop-color="#cb5765"/></radialGradient><radialGradient id="aC" cx="0" cy="0" gradientTransform="matrix(49.39216198 -15.37486724 12.49750009 40.14854497 450.145 429.555)" gradientUnits="userSpaceOnUse" r="1"><stop offset="0" stop-color="#6c3642"/><stop offset="1" stop-color="#ce5765"/></radialGradient><radialGradient id="aD" cx="0" cy="0" gradientTransform="matrix(-24.76853206 7.79808323 -35.55356093 -112.92640606 494.617 398.943)" gradientUnits="userSpaceOnUse" r="1"><stop offset="0" stop-color="#693643"/><stop offset="1" stop-color="#ca5663"/></radialGradient><radialGradient id="aE" cx="0" cy="0" gradientTransform="matrix(-49.46611412 -15.97044589 19.37055202 -59.99744423 489.761 414.098)" gradientUnits="userSpaceOnUse" r="1"><stop offset="0" stop-color="#663441"/><stop offset="1" stop-color="#c95663"/></radialGradient><radialGradient id="aF" cx="0" cy="0" gradientTransform="matrix(41.39656126 -56.4439432 27.0026916 19.80404829 506.821 453.49)" gradientUnits="userSpaceOnUse" r="1"><stop offset="0" stop-color="#63333f"/><stop offset="1" stop-color="#c95662"/></radialGradient><radialGradient id="aG" cx="0" cy="0" gradientTransform="matrix(-40.81440999 44.38844712 -37.63844101 -34.60789602 504.139 430.444)" gradientUnits="userSpaceOnUse" r="1"><stop offset="0" stop-color="#64333f"/><stop offset="1" stop-color="#cd5765"/></radialGradient><radialGradient id="aH" cx="0" cy="0" gradientTransform="matrix(-80.94153091 49.60492042 -18.74601725 -30.58832314 542.65 390.424)" gradientUnits="userSpaceOnUse" r="1"><stop offset="0" stop-color="#6c3641"/><stop offset="1" stop-color="#c95663"/></radialGradient><mask id="aI" fill="#fff"><ellipse cx=".489562" cy=".367247" fill="#fff" rx=".489562" ry=".367247" transform="matrix(.86528 -.50129 .498712 .866768 252.866 50.7819)"/></mask><path d="m665.439 132.847c-24.778-84.9675-183.147-113.5209-353.726-63.7763-170.579 49.7443-288.7737 158.9503-263.9954 243.9173" stroke="url(#m)" stroke-width=".966965"/><path d="m60.614 355.145c20.9626 85.988 177.899 121.579 350.528 79.495 172.629-42.085 295.578-145.908 274.616-231.896" stroke="url(#n)" stroke-width=".966965"/><path d="m575.784 150.891-59.264 103.113c-1.129 1.964-3.887 3.559-6.155 3.559h-74.197v-10.032c-2.93 5.224-10.516 10.032-17.219 10.032h-73.39v-25.009l78.31-4.1-16.81-12.71 16.81-17.22 16.809-8.609h20.91l12.299 15.579-21.562 2.662c-6.444.796-13.353 5.627-15.467 10.814-.456 1.12-.662 2.202-.606 3.195l.487 8.765 54.777 1.624 56.168-141.8566 22.139 12.2996 9.462 18.923c3.932 7.865 2.682 18.214-3.501 28.971z" fill="url(#o)"/><path clip-rule="evenodd" d="m239.056 133.305c13.586-23.532 46.626-42.6076 73.798-42.6076h114.797l-35.721 61.8696c-1.196 1.965-4.143 3.413-6.139 2.998l-.115-.024c-.697-.144-1.198-.501-1.43-1.018l-1.022-2.275c-.754-4.982-5.256-8.292-12.561-8.292-11.322 0-25.088 7.949-30.749 17.754-5.661 9.804-1.072 17.753 10.249 17.753 7.925 0 17.048-3.895 23.75-9.594l2.545-1.695c.765-.51 1.62-.88 2.448-1.059 2.612-.566 4.046.891 2.932 2.933l-36.185 62.674h-71.337c-2.321 0-2.981-1.854-1.36-3.819l.092-.112c.558-.676 1.323-1.288 2.185-1.747l3.795-2.023c7.567-3.144 14.594-8.697 18.247-15.023 5.66-9.805 1.071-17.753-10.25-17.753-11.322 0-25.089 7.948-30.749 17.753-3.964 6.865-2.902 12.82 1.977 15.774l1.171 1.352c.353.408.459.964.304 1.591-.497 2.008-3.391 4.007-5.803 4.007h-72.267z" fill="url(#q)" fill-rule="evenodd"/><path clip-rule="evenodd" d="m182.13 231.902-.473.82h72.267c2.412 0 5.306-1.999 5.803-4.007.155-.627.049-1.183-.304-1.591l-1.171-1.352c-.08-.048-.158-.097-.236-.147l.589.679c.353.408.459.964.304 1.591-.497 2.008-3.392 4.007-5.803 4.007zm73.869-8c-2.846-3.253-2.976-8.272.276-13.904 5.66-9.805 19.427-17.753 30.749-17.753 4.243 0 7.541 1.116 9.708 3.029-2.109-2.41-5.708-3.849-10.526-3.849-11.321 0-25.088 7.948-30.749 17.753-3.539 6.13-3.072 11.534.542 14.724zm16.194 7.74c.283.656 1.013 1.08 2.122 1.08h71.337l36.188-62.68c.694-1.276.392-2.322-.571-2.788.231.534.165 1.232-.272 2.013l-36.162 62.635h-71.338c-.52 0-.957-.093-1.304-.26zm67.444-56.028c-2.845-3.253-2.976-8.272.276-13.904 5.661-9.805 19.428-17.754 30.749-17.754 4.244 0 7.541 1.117 9.708 3.03-2.108-2.41-5.707-3.849-10.525-3.849-11.322 0-25.089 7.948-30.75 17.753-3.539 6.129-3.071 11.534.542 14.724zm44.605-21.099.003.008c.232.517.733.874 1.431 1.018l.114.024c1.995.415 4.937-1.03 6.136-2.992l35.724-61.8756h-1.291l-35.224 61.0106c-1.182 1.985-4.154 3.455-6.163 3.037l-.115-.024c-.227-.047-.433-.116-.615-.206z" fill="url(#r)" fill-rule="evenodd"/><g filter="url(#a)"><path clip-rule="evenodd" d="m253.107 231.901h.819c2.411 0 5.306-1.998 5.802-4.006.156-.627.049-1.183-.304-1.591l-1.171-1.353c-4.879-2.953-5.941-8.908-1.977-15.774 5.592-9.686 19.097-17.561 30.338-17.749-.134-.002-.27-.004-.407-.004-11.321 0-25.088 7.949-30.749 17.753-3.963 6.865-2.902 12.819 1.975 15.773l1.173 1.354c.353.408.459.964.304 1.591-.497 2.008-3.392 4.006-5.803 4.006zm91.729 0h.817l36.188-62.678c1.012-1.862-.094-3.236-2.281-3.031 1.629.172 2.342 1.421 1.46 3.036zm4.921-53.262c-11.024-.189-15.435-8.063-9.843-17.75 5.593-9.686 19.097-17.561 30.339-17.749-.135-.003-.271-.004-.407-.004-11.322 0-25.089 7.948-30.749 17.753-5.661 9.805-1.072 17.753 10.249 17.753.137 0 .274-.001.411-.003zm36.367-23.843c1.976.205 4.67-1.188 5.804-3.044l35.723-61.8749h-.817l-35.721 61.8689c-.981 1.613-3.142 2.878-4.989 3.05z" fill="url(#s)" fill-rule="evenodd"/></g><path clip-rule="evenodd" d="m427.558 90.6974h114.796c27.172 0 38.186 19.0756 24.6 42.6076l-57.399 99.417h-71.338c-2.321 0-2.981-1.854-1.36-3.819l.091-.112c.558-.676 1.324-1.288 2.185-1.747l3.791-2.021c7.57-3.143 14.599-8.698 18.252-15.025 5.661-9.805 1.072-17.753-10.25-17.753-11.321 0-25.088 7.948-30.749 17.753-3.963 6.864-2.902 12.818 1.975 15.772l1.173 1.354c.352.408.459.964.304 1.591-.497 2.008-3.392 4.007-5.803 4.007h-72.266l36.173-62.654c1.135-2.052-.3-3.52-2.921-2.953-.827.179-1.683.549-2.448 1.059l-2.544 1.695c-6.703 5.699-15.826 9.594-23.75 9.594-11.322 0-15.911-7.949-10.25-17.753 5.661-9.805 19.428-17.754 30.749-17.754 7.305 0 11.807 3.31 12.562 8.292l1.021 2.275c.232.517.733.874 1.43 1.018l.115.024c2.003.417 4.963-1.043 6.152-3.018z" fill="url(#u)" fill-rule="evenodd"/><g filter="url(#b)"><path clip-rule="evenodd" d="m347.328 232.721-.946 1.64h72.267.01c2.41-.006 5.296-2.001 5.793-4.006.155-.628.049-1.184-.304-1.591l-.451-.52c-.005.151-.028.309-.068.471-.497 2.008-3.392 4.006-5.803 4.006zm71.826-9.811c-1.143-3.066-.625-6.992 1.846-11.273 5.661-9.804 19.428-17.753 30.749-17.753 5.447 0 9.335 1.84 11.274 4.841-1.476-3.957-5.717-6.481-12.096-6.481-11.322 0-25.089 7.949-30.749 17.753-2.938 5.088-3.115 9.676-1.024 12.913zm17.643 9.49c-.116 1.132.689 1.957 2.232 1.961h.011 71.337l57.399-99.417c6.72-11.641 7.421-22.191 3.124-29.881 3.35 7.518 2.309 17.407-3.946 28.241l-57.398 99.417h-71.339c-.581 0-1.057-.116-1.42-.321z" fill="url(#w)" fill-rule="evenodd"/></g><path d="m253.907 403.518h-104.981c-18.635 0-30.406-9.118-30.406-23.552v-30.156l175.065-31.979 7.041-9.154c-.988-.933-1.687-1.973-1.871-3.108l-.219-1.345c-.544-3.359-3.131-5.709-7.174-6.517l-2.049-.41c-3.735-.747-8.424.729-12.948 3.314-2.651 1.515-5.159 4.757-7.038 7.887-2.161 3.6-3.836 7.481-5.894 11.141l-.597 1.062-9.84-8.2.82-16.4 25.829-19.679 31.979 12.709 34.029-56.578v25.009l-27.432 45.981c-3.533 5.922-11.027 9.752-16.436 6.071v19.625c0 2.737-.686 5.431-1.993 7.835l-31.478 57.88c-2.871 5.278-8.399 8.564-14.407 8.564z" fill="url(#x)"/><path clip-rule="evenodd" d="m297.278 209.997c-3.652 6.326-10.679 11.88-18.246 15.024l-3.795 2.022c-.862.46-1.627 1.072-2.185 1.748l-.092.111c-1.616 1.96-.965 3.809 1.341 3.819h71.357l-81.997 142.024h-114.797c-27.172 0-38.185-19.076-24.6-42.607l57.399-99.417h72.286c2.407-.011 5.287-2.004 5.783-4.006.155-.628.049-1.184-.304-1.591l-1.171-1.353c-4.88-2.953-5.941-8.909-1.978-15.774 5.661-9.804 19.428-17.753 30.75-17.753 11.321 0 15.91 7.949 10.249 17.753zm5.591 81.434c-.754-4.982-5.257-8.291-12.562-8.291-11.321 0-25.088 7.948-30.749 17.753s-1.072 17.753 10.25 17.753c7.925 0 17.047-3.894 23.75-9.594l2.544-1.695c.765-.509 1.621-.879 2.448-1.059 2.65-.573 4.088.934 2.882 3.022l10.196-17.659c-1.161 2.01-4.166 3.509-6.193 3.088l-.114-.024c-.697-.145-1.198-.502-1.431-1.019z" fill="url(#y)" fill-rule="evenodd"/><g filter="url(#c)"><path clip-rule="evenodd" d="m181.185 233.541h-.347l-57.399 99.417c-13.585 23.531-2.572 42.607 24.6 42.607h114.797l.473-.82h-114.449c-27.172 0-38.185-19.075-24.6-42.607zm129.163 59.599c-1.367 1.665-3.936 2.802-5.734 2.429l-.114-.024c-.697-.145-1.198-.502-1.43-1.019l-1.024-2.278c-.755-4.98-5.257-8.288-12.561-8.288-8.675 0-18.786 4.667-25.586 11.26 6.788-7.023 17.374-12.08 26.405-12.08 7.307 0 11.81 3.31 12.562 8.294l1.021 2.272c.232.517.733.874 1.43 1.019l.114.024c1.484.308 3.492-.413 4.917-1.609z" fill="url(#z)" fill-rule="evenodd"/></g><path clip-rule="evenodd" d="m492.435 125.969-13.926.007-3.884 6.734c-2.313.521-4.642 1.243-6.941 2.138l-2.51-4.343-15.239 8.809 2.567 4.441c-1.841 1.521-3.55 3.145-5.085 4.85l-6.324.003-6.957 12.064 6.184-.003c-.553 1.993-.747 3.882-.604 5.628l-8.016 4.633 5.359 9.271 8.342-4.821c1.086.657 2.318 1.2 3.687 1.614l-3.624 6.286 13.926-.008 3.445-5.973c2.585-.485 5.202-1.229 7.787-2.196l2.855 4.939 15.239-8.808-2.798-4.841c2.216-1.781 4.252-3.711 6.037-5.751l4.849-.002 6.957-12.064-4.989.002c.384-1.52.557-2.978.527-4.354l7.728-4.467-5.359-9.271-7.403 4.279c-1.525-1.054-3.379-1.861-5.534-2.373zm-31.289 42.444c8.523-.004 18.884-5.993 23.141-13.376 4.258-7.384.8-13.366-7.723-13.361-8.523.004-18.884 5.993-23.141 13.376-4.258 7.384-.8 13.366 7.723 13.361z" fill="url(#A)" fill-rule="evenodd"/><path d="m478.509 125.976.205-.355h-.41l-.205.355zm13.926-.007.41-.001.205-.355h-.41zm-17.81 6.741-.079.341.336-.076.153-.265zm-6.941 2.138-.435.251.111.193.352-.137zm-2.51-4.343.434-.251-.145-.251-.435.251zm-15.239 8.809-.145-.251-.435.251.145.251zm2.567 4.441.26.171.283-.234-.109-.188zm-5.085 4.85-.205.355h.311l.234-.259zm-6.324.003.205-.355h-.41l-.205.355zm-6.957 12.064h-.41l-.204.356.41-.001zm6.184-.003.449-.089.074-.266h-.318zm-.604 5.628.145.251.332-.192-.019-.236zm-8.016 4.633-.145-.251-.435.252.145.251zm5.359 9.271-.435.252.145.251.435-.252zm8.342-4.821.37-.316-.197-.119-.319.184zm3.687 1.614h.41l.153-.265-.249-.075zm-3.624 6.286h-.41l-.205.355h.41zm13.926-.008-.205.356.41-.001.205-.355zm3.445-5.973.102-.345-.351.065-.161.28zm7.787-2.196.435-.251-.109-.188-.343.128zm2.855 4.939-.434.252.145.251.435-.252zm15.239-8.808.145.251.435-.251-.145-.251zm-2.798-4.841-.252-.178-.294.236.111.193zm6.037-5.751.205-.355h-.317l-.233.266zm4.849-.002-.205.355h.41l.205-.355zm6.957-12.064h.41l.205-.356-.41.001zm-4.989.002-.45.097-.066.259h.311zm.527-4.354-.145-.251-.318.184.005.231zm7.728-4.467.145.251.435-.251-.145-.251zm-5.359-9.271.435-.251-.145-.251-.435.251zm-7.403 4.279-.381.309.195.134.331-.192zm-5.534-2.373h-.41l-.161.279.275.066zm-10.427-6.061 13.926-.007.41-.711-13.926.008zm-3.269 6.379 3.884-6.734h-.82l-3.884 6.735zm-7.323 2.445c2.263-.881 4.556-1.591 6.834-2.104l.158-.681c-2.349.529-4.714 1.262-7.048 2.171zm-2.973-4.398 2.51 4.342.869-.502-2.51-4.343zm-14.659 8.808 15.239-8.809-.291-.502-15.238 8.809zm2.856 3.939-2.567-4.441-.869.502 2.567 4.441zm-5.179 5.197c1.511-1.678 3.193-3.278 5.005-4.775l-.521-.342c-1.869 1.544-3.604 3.194-5.163 4.925zm-6.869.262 6.324-.003.41-.71-6.324.003zm-6.342 11.709 6.957-12.064h-.82l-6.957 12.064zm5.979-.358-6.184.003-.409.71 6.184-.003zm-.351 5.806c-.142-1.719.049-3.578.595-5.54l-.897.178c-.562 2.024-.759 3.942-.613 5.715zm-8.329 5.061 8.016-4.633-.29-.502-8.016 4.633zm5.649 8.769-5.359-9.271-.87.503 5.359 9.271zm7.761-4.821-8.341 4.821.29.502 8.342-4.821zm4.147 1.525c-1.348-.408-2.561-.943-3.631-1.59l-.741.631c1.103.667 2.354 1.219 3.745 1.64zm-3.528 6.625 3.624-6.285h-.82l-3.624 6.286zm13.721-.362-13.926.008-.41.71 13.926-.007zm2.83-5.618-3.445 5.974.82-.001 3.445-5.974zm8.18-2.507c-2.546.951-5.123 1.684-7.668 2.162l-.205.69c2.625-.492 5.283-1.248 7.908-2.229zm3.307 4.999-2.855-4.939-.869.503 2.855 4.939zm14.659-8.808-15.239 8.808.291.502 15.238-8.808zm-3.088-4.339 2.798 4.841.87-.502-2.798-4.841zm6.127-6.091c-1.758 2.008-3.763 3.909-5.944 5.662l.504.356c2.25-1.808 4.317-3.769 6.131-5.84zm5.399-.268-4.849.002-.41.71 4.849-.002zm6.342-11.709-6.957 12.064h.82l6.957-12.064zm-4.784.358 4.989-.003.41-.71-4.989.002zm.274-4.546c.029 1.355-.141 2.789-.519 4.287l.9-.193c.39-1.544.565-3.024.535-4.421zm8.041-4.882-7.728 4.467.29.502 7.728-4.467zm-5.649-8.769 5.359 9.271.87-.502-5.359-9.271zm-6.823 4.279 7.403-4.279-.29-.502-7.403 4.279zm-5.975-2.279c2.122.505 3.947 1.298 5.449 2.337l.763-.617c-1.55-1.071-3.432-1.89-5.62-2.411zm3.59-6.768-3.704 6.423.82-.001 3.704-6.423zm-8.148 29.068c-4.144 7.187-14.23 13.017-22.527 13.021l-.409.71c8.749-.004 19.385-6.152 23.756-13.732zm-7.518-13.006c8.297-.004 11.663 5.818 7.518 13.006l.82-.001c4.371-7.579.821-13.72-7.928-13.715zm-22.526 13.021c4.144-7.187 14.23-13.017 22.526-13.021l.41-.71c-8.749.004-19.386 6.152-23.756 13.732zm7.517 13.006c-8.296.004-11.662-5.819-7.517-13.006l-.82.001c-4.371 7.579-.822 13.72 7.928 13.715z" fill="#382b3d"/><g filter="url(#d)"><circle cx="102.497" cy="102.497" fill="url(#B)" fill-opacity=".4" r="102.497" transform="matrix(.992509 -.122172 -.39045 .920624 372.661 213.852)"/></g><path d="m400.633 259.98 146.448-55.69 4.147 33.909c.516 4.224-.138 8.979-1.925 13.986l-31.384 87.918c-9.235 25.872-40.749 50.739-68.854 54.331l-113.417 14.494c-6.162.787-10.439-1.73-11.049-6.503l-3.354-26.245z" fill="url(#D)"/><g clip-rule="evenodd" fill-rule="evenodd"><path d="m499.018 207.988c-5.845 7.949-18.232 11.689-28.083 12.948-11.231 1.435-11.259-1.365-6.887-11.808l33.831-29.661 2.804 21.956c.25 1.956.05 4.232-1.665 6.565zm-16.466 13.809-21.554 2.754 2.183 1.953c.401.36.577.898.503 1.54-.239 2.054-2.857 4.404-5.248 4.71l20.226-2.585c-2.302.294-3.192-1.461-1.833-3.616l.077-.122c.467-.741 1.149-1.446 1.946-2.011z" fill="url(#E)"/><path d="m346.172 321.705c-4.125 5.937-10.293 9.882-18.028 11.689-11.025 2.576-17.4-.566-18.893-6.954l-2.55-14.251 46.033-14.976-1.178 7.643.345.452c.343.451.912.684 1.624.666l.117-.002c2.069-.051 4.655-2.194 5.328-4.416l-5.911 19.516c.699-2.308-1.044-3.449-3.493-2.287-.766.363-1.515.918-2.143 1.588z" fill="url(#F)"/><path d="m480.174 204.855c7.11-4.078 13.378-10.478 16.2-17.218 4.372-10.443-1.187-17.745-12.418-16.31-11.23 1.435-23.878 11.064-28.25 21.507-3.061 7.312-1.254 13.083 3.958 15.395l1.335 1.195c.402.359.577.897.503 1.539-.237 2.045-2.832 4.382-5.214 4.706l-71.718 9.165-63.333 151.273 113.871-14.552c26.952-3.445 57.308-26.555 67.801-51.619l44.333-105.891-70.795 9.047c-2.278.273-3.152-1.475-1.8-3.619l.077-.122c.468-.742 1.149-1.446 1.946-2.011zm-144.117 77.007c7.249-.927 12.135 1.787 13.513 6.637l1.299 2.122c.295.483.838.774 1.547.829l.117.009c2.064.161 4.855-1.706 5.751-3.847l-7.875 18.809c.931-2.224-.686-3.537-3.241-2.633-.799.283-1.6.759-2.294 1.361l-2.302 1.998c-5.926 6.506-14.485 11.528-22.348 12.533-11.23 1.435-16.79-5.867-12.418-16.311 4.373-10.443 17.021-20.072 28.251-21.507z" fill="url(#G)"/></g><g filter="url(#e)"><path clip-rule="evenodd" d="m496.374 187.637c-2.822 6.74-9.09 13.14-16.2 17.218l-3.504 2.485c-.797.565-1.479 1.269-1.946 2.011l-.077.122c-.554.878-.734 1.689-.598 2.323.089-.422.28-.882.583-1.362l.077-.122c.467-.741 1.149-1.445 1.946-2.01l3.506-2.486c7.109-4.079 13.376-10.478 16.197-17.217 1.058-2.527 1.534-4.87 1.49-6.95-.097 1.831-.576 3.844-1.474 5.988zm-42.158 12.147c.084 3.938 2.037 6.932 5.448 8.445l1.335 1.195c.401.359.577.897.503 1.539-.01.086-.024.172-.042.258-.072-.333-.233-.617-.477-.835l-1.334-1.194c-3.684-1.634-5.667-4.996-5.433-9.408zm-97.004 90.393c-.001.002-.003.003-.004.005l-6.573 15.7v.004zm-35.571 85.878-.424 1.013 113.871-14.552c26.952-3.444 57.308-26.554 67.801-51.618l44.333-105.891-.404.052-43.909 104.877c-10.493 25.064-40.849 48.174-67.802 51.619zm28.974-70.279c.388-1.822-1.15-2.8-3.447-1.987-.799.283-1.601.758-2.295 1.36l-2.302 1.998c-5.926 6.506-14.484 11.528-22.347 12.533-8.517 1.089-13.773-2.849-13.908-9.37-.381 7.091 4.963 11.473 13.891 10.332 7.863-1.005 16.421-6.027 22.347-12.532l2.303-1.999c.694-.602 1.496-1.078 2.294-1.361 1.85-.654 3.208-.147 3.464 1.026z" fill="url(#H)" fill-rule="evenodd"/></g><path d="m398.34 316.257c-1.041-.663-.04-2.062.373-3.081l3.07-3.317 8.113-2.102 7.289-.062 5.643 9.148c-1.069 1.219-4.6 4.09-5.92 5.302-1.649 1.514-3.614 3.874-6.881 2.989-1.628-.441-.479-2.709.815-4.445-1.771 2.042-4.756 4.626-6.944 3.622-1.803-.827-.502-2.892 1.189-4.635-1.585 1.219-3.473 2.216-4.836 1.572-2.091-.989 1.321-4.306 3.46-5.889-1.284.608-3.521 2.075-5.371.898z" fill="url(#I)"/><path d="m405.427 318.406c-1.041-.895-9.417-6.486-13.475-9.169 5.746-6.121 17.601-18.739 19.051-20.244 1.58.429 4.089-.574 4.461-.626.352-.05 18.424-4.728 22.023-5.735.313-.088.615-.181.93-.28 1.713-.535 7.636-2.393 9.851-3.147 3.253-1.108 2.37 1.944 1.069 3.429-1.301 1.484-18.726 8.16-20.863 9.111s-.79 1.087-.093 1.965c.391.493 5.615 3.322 10.47 5.881 3.66 1.928 12.529 1.685 8.628 6.728-1.993 2.575-8.154 2.683-13.647 2.18 4.232.637 7.739 1.662 5.701 4.466-2.113 2.908-7.96 2.269-13.316 1.084 4.387 1.269 7.774 2.889 4.162 5.082-3.098 1.882-8.134.267-11.915-1.3 1.714.784 3.597 1.625 5.27 2.203.917.317 1.414 1.253.362 2.301-.797.794-2.024 1.541-3.8 1.791-4.089.574-13.568-4.601-14.869-5.72z" fill="url(#J)"/><g filter="url(#f)"><path clip-rule="evenodd" d="m392.555 308.595c4.148 2.745 12.186 8.114 13.204 8.989 1.301 1.119 10.78 6.294 14.869 5.72 1.776-.249 3.003-.997 3.8-1.791.099-.099.185-.197.258-.294-.015.337-.191.718-.59 1.116-.797.794-2.024 1.541-3.8 1.791-4.089.574-13.568-4.601-14.869-5.72-1.041-.895-9.417-6.485-13.475-9.169.194-.207.396-.421.603-.642zm32.307 11.21c2.052.329 4.013.24 5.517-.674 1.063-.645 1.52-1.241 1.523-1.793-.246.311-.636.634-1.191.971-3.098 1.882-8.134.267-11.915-1.3 1.714.784 3.596 1.625 5.27 2.204.344.119.629.325.796.592zm5.965-4.944c3.781.449 7.196.182 8.706-1.896.314-.431.496-.821.565-1.173-.068.114-.145.231-.233.352-2.113 2.908-7.96 2.268-13.316 1.083 1.688.489 3.228 1.029 4.278 1.634zm7.809-6.124c3.897-.002 7.425-.585 8.843-2.418.497-.643.786-1.199.906-1.685-.147.269-.337.556-.574.863-1.993 2.576-8.154 2.683-13.647 2.18 1.717.259 3.315.581 4.472 1.06zm-10.823-16.662c.168-.099.386-.208.661-.33.51-.227 1.893-.781 3.719-1.512 5.822-2.332 16.154-6.47 17.144-7.599.458-.523.864-1.239 1.056-1.901-.201.393-.453.77-.724 1.079-.99 1.129-11.322 5.267-17.144 7.599-1.826.731-3.209 1.285-3.719 1.512-1.261.561-1.309.839-.993 1.152z" fill="#422b39" fill-rule="evenodd"/></g><path d="m391.457 309.24-2.33-1.202 20.44-21.165 2.061.879c.663.284.574 1.205-.196 2.022l-17.533 18.603c-.743.789-1.836 1.175-2.442.863z" fill="url(#L)"/><path d="m387.757 308.619-8.876-4.425c-.649-.324-.49-1.296.343-2.106l22.04-21.401c.782-.76 1.859-1.081 2.41-.717l6.987 4.607c.53.349.385 1.209-.33 1.963l-20.15 21.219c-.739.779-1.818 1.162-2.424.86z" fill="url(#N)"/><g filter="url(#g)"><path d="m448.802 283.301c-.049 2.192-16.015 8.177-24.88 11.893-8.865 3.717-13.518 6.29-15.036 1.852 1.27-4.833 10.729-6.256 18.137-11.074 6.472-3.524 19.644-3.534 21.779-2.671z" fill="#6b3743" fill-opacity=".5"/></g><path d="m432.369 284.446c1.192-.168 15.231-.783 21.641-.714l5.562 15.945-11.232 4.231c-1.272-1.565-3.18-2.589-5.565-2.988l-1.258-.21c-1.903-.318-3.587-.933-5.002-1.827l-7.974-5.036c-.595-.375-1.515-.382-2.526.039-3.435 1.432-8.408 3.816-11.656 4.714-4.744 1.312-4.754-1.27-4.711-2.245.043-.974 1.851-2.843 2.968-3s8.925-3.836 12.967-6.019c4.042-2.182 5.297-2.681 6.786-2.89z" fill="url(#O)"/><path d="m454.747 281.843 3.708-2.236 3.756 19.172-3.219 1.85c-.963.553-1.882.445-2.03-.239l-3.558-16.454c-.138-.639.449-1.555 1.343-2.093z" fill="url(#P)"/><path d="m459.198 278.394 13.858-7.593c.996-.546 1.908-.379 1.987.362l2.131 20.071c.075.71-.647 1.67-1.609 2.139l-12.176 5.934c-.906.442-1.708.291-1.84-.346l-3.813-18.413c-.139-.671.515-1.635 1.462-2.154z" fill="url(#Q)"/><g filter="url(#h)"><path d="m420.867 304.278c1.027.517 7.704 2.512 11.008 3.493m0 0c2.898.86 4.184.48 5.481.781z" stroke="url(#S)" stroke-width=".409989"/></g><g filter="url(#i)"><path d="m430.095 314.223c-1.332-.31-3.098-.182-5.919-.72-3.055-.582-6.282-1.961-7.283-2.465" stroke="url(#T)" stroke-width=".409989"/></g><g filter="url(#j)"><path d="m421.578 318.907c-2.776-.643-8.643-2.584-10.569-3.554" stroke="url(#U)" stroke-width=".409989"/></g><path d="m428.514 261.495 9.34 10.41 27.315-31.601" stroke="url(#V)" stroke-linecap="round" stroke-width="6.55982"/><path d="m0 0h10.6597v26.2393h-10.6597z" fill="url(#W)" transform="matrix(1 0 -.5 .866025 212.408 288.508)"/><path d="m0 0h10.6597v26.2393h-10.6597z" fill="url(#W)" transform="matrix(1 0 -.5 .866025 234.548 288.508)"/><path d="m240.082 268.98.615-1.066c2.265-3.922 7.771-7.101 12.3-7.101h40.589" stroke="url(#X)" stroke-width="1.63996"/><path d="m203.799 290.638c3.153-5.462 8.683-10.7 15.372-14.562s13.99-6.031 20.297-6.031c6.306 0 11.102 2.169 13.332 6.031s1.711 9.1-1.443 14.562h-23.779z" fill="url(#Y)"/><path clip-rule="evenodd" d="m219.173 276.076c-6.689 3.862-12.219 9.1-15.372 14.562h.012c3.211-5.204 8.549-10.157 14.948-13.852 6.689-3.862 13.99-6.031 20.297-6.031 6.306 0 11.102 2.169 13.332 6.031 2.133 3.695 1.751 8.648-1.047 13.852h.016c3.154-5.462 3.673-10.7 1.443-14.562s-7.026-6.031-13.332-6.031c-6.307 0-13.608 2.169-20.297 6.031z" fill="url(#Z)" fill-opacity=".1" fill-rule="evenodd"/><rect fill="url(#ab)" height="2.45993" rx="1.22997" transform="matrix(-1 .00000008 .5 -.866025 243.568 271.465)" width="9.83973"/><rect fill="url(#ac)" height="2.45993" rx=".819978" transform="matrix(-1 .00000008 .5 -.866025 242.338 269.335)" width="4.91987"/><rect fill="#5d3548" height="8.19978" rx="3.27991" transform="matrix(-1 .00000008 .5 -.866025 251.357 297.739)" width="55.7585"/><rect height="7.3798" rx="2.86992" stroke="url(#ad)" stroke-opacity=".2" stroke-width=".819978" transform="matrix(-1 .00000008 .5 -.866025 251.125 297.077)" width="54.9385" x="-.204994" y="-.355061"/><path d="m203.567 331.517-.615 1.065c-2.265 3.922-7.771 7.101-12.3 7.101h-41.409" stroke="url(#ae)" stroke-width="1.63996"/><path d="m240.822 309.101c-3.153 5.462-8.682 10.7-15.372 14.562-6.689 3.862-13.99 6.032-20.297 6.032-6.306 0-11.102-2.17-13.332-6.032s-1.711-9.1 1.443-14.562h23.779z" fill="url(#af)"/><path clip-rule="evenodd" d="m193.277 309.101h-.014c-3.154 5.462-3.673 10.7-1.443 14.562s7.026 6.031 13.332 6.031c6.307 0 13.608-2.169 20.297-6.031 6.69-3.862 12.219-9.1 15.372-14.562h-.014c-3.211 5.204-8.549 10.157-14.948 13.852-6.689 3.862-13.99 6.032-20.297 6.032-6.306 0-11.102-2.17-13.332-6.032-2.133-3.695-1.751-8.648 1.047-13.852z" fill="url(#ag)" fill-opacity=".2" fill-rule="evenodd"/><rect fill="url(#ai)" height="2.45993" rx="1.22997" transform="matrix(1 0 -.5 .866025 200.277 328.261)" width="9.83973"/><rect fill="url(#aj)" height="2.45993" rx=".819978" transform="matrix(1 0 -.5 .866025 201.6 330.39)" width="4.91987"/><rect fill="#3d2d41" height="8.19978" rx="3.27991" transform="matrix(1 0 -.5 .866025 193.111 302.003)" width="55.7585"/><rect height="7.3798" rx="2.86992" stroke="url(#ad)" stroke-opacity=".2" stroke-width=".819978" transform="matrix(1 0 -.5 .866025 193.289 302.05)" width="54.9385" x=".204994" y=".355061"/><path d="m255.959 151.577-.29.346.521.115.206-.515zm-.056-.013.29-.346-.444-.098-.256.444zm-5.735 11.943.133.258zm12.736-7.083.133.258zm11.39-.815-.205.356.496-.702zm0 0 .205-.355-.495.702zm.84 0-.205.355h.431l.194-.372zm1.091-2.099.419-.018zm28.428-5.005-.205.355h.379l.219-.326zm11.441-17.076-.393-.028zm-47.937-.381c1.406-2.436 4.826-4.41 7.639-4.41l.41-.71c-3.266 0-7.237 2.292-8.869 5.12zm-11.429 19.796 11.429-19.796h-.82l-11.429 19.796zm-.332.679c.088-.221.198-.448.332-.679h-.82c-.155.267-.283.53-.385.787zm-.783.388.056.012.58-.693-.056-.012zm-5.945 11.164 6.645-11.511h-.82l-6.645 11.511zm.368.174c-.261.145-.49.037-.368-.174h-.82c-.482.834.422 1.264 1.453.69zm12.735-7.083-12.735 7.083.265.516 12.736-7.083zm3.172-.912c-.984 0-2.119.327-3.172.912l.266.516c.828-.461 1.722-.717 2.496-.717zm8.556 0h-8.556l-.41.711h8.556zm-.495.702.581-.693h-.001zm1.335-.702h-.84l-.41.71h.84zm.466-1.727-1.091 2.1.84-.035 1.09-2.1zm9.01-5.377c-3.382 0-7.491 2.452-9.01 5.377l.839-.035c1.309-2.52 4.848-4.632 7.761-4.632zm20.043 0h-20.043l-.41.71h20.043zm10.843-16.749-11.44 17.076.785.057 11.44-17.076zm-2.326-4.763c2.973 0 4.046 2.196 2.326 4.763l.785.057c1.996-2.98.751-5.53-2.701-5.53zm-37.579 0h37.579l.41-.71h-37.579z" fill="#5d3340"/><path clip-rule="evenodd" d="m297.647 143.98c1.935 0 4.288-1.358 5.255-3.034.967-1.675.183-3.034-1.751-3.034-1.935 0-4.288 1.359-5.255 3.034-.967 1.676-.183 3.034 1.751 3.034zm-7.589-3.034c-.967 1.676-3.32 3.034-5.254 3.034-1.935 0-2.719-1.358-1.752-3.034.967-1.675 3.32-3.034 5.255-3.034s2.719 1.359 1.751 3.034zm-12.845 0c-.968 1.676-3.32 3.034-5.255 3.034s-2.719-1.358-1.752-3.034c.968-1.675 3.32-3.034 5.255-3.034s2.719 1.359 1.752 3.034z" fill="url(#al)" fill-rule="evenodd"/><path d="m298.875 177.683.308-.342-.047-.013h-.056zm1.034.705-.431.258zm5.12 7.952.431-.258zm8.786-13.208h.41l.257-.444-.557.098zm-.007.002-.4-.016-.292.464.582-.102zm-37.074-20.012c1.406-2.436 4.826-4.411 7.639-4.411l.41-.71c-3.266 0-7.236 2.293-8.869 5.121zm-11.429 19.796 11.429-19.796h-.82l-11.429 19.796zm2.546 4.41c-2.812 0-3.953-1.975-2.546-4.41h-.82c-1.633 2.828-.309 5.12 2.956 5.12zm31.229 0h-31.229l-.41.71h31.229zm-.512.697c.406.114.72.325.91.621l.862-.516c-.242-.376-.642-.645-1.157-.789zm.91.621 5.121 7.952.861-.516-5.12-7.952zm5.121 7.952c.369.573 1.769.143 2.251-.691h-.82c-.122.211-.476.32-.57.175zm2.251-.691 7.375-12.775h-.82l-7.375 12.775zm7.075-13.121-.007.001-.22.693.007-.001zm-.397.132c-.038.067-.079.133-.12.2l.801.031c.048-.076.095-.154.139-.231zm11.43-19.796-11.43 19.796h.82l11.429-19.796zm-2.547-4.411c2.813 0 3.953 1.975 2.547 4.411h.819c1.633-2.828.31-5.121-2.956-5.121zm-38.038 0h38.038l.41-.71h-38.038z" fill="#5d3340"/><path clip-rule="evenodd" d="m298.637 163.02c-.968 1.675-3.32 3.033-5.255 3.033s-2.719-1.358-1.752-3.033c.968-1.676 3.32-3.034 5.255-3.034s2.719 1.358 1.752 3.034zm-12.846 0c-.968 1.675-3.32 3.034-5.255 3.034s-2.719-1.359-1.751-3.034c.967-1.676 3.319-3.034 5.254-3.034s2.719 1.358 1.752 3.034zm20.434 3.033c1.934 0 4.287-1.358 5.254-3.033.968-1.676.183-3.034-1.751-3.034-1.935 0-4.288 1.358-5.255 3.034-.967 1.675-.183 3.033 1.752 3.033z" fill="url(#am)" fill-rule="evenodd"/><ellipse cx="12.5692" cy="12.5516" fill="#e35760" rx="12.5692" ry="12.5516" transform="matrix(.722401 -.691474 .690697 .723144 25.3525 299.161)"/><path d="m0 0h29.5987v29.5676h-29.5987z" fill="url(#an)" transform="matrix(.970831 -.237819 .690721 .723122 10.6494 302.833)"/><path clip-rule="evenodd" d="m11.0988 302.723-.4504.11 20.423 21.381 28.7353-7.039-20.4229-21.381h-.0002l20.1026 21.046-28.2848 6.929z" fill="url(#ap)" fill-rule="evenodd" opacity=".4"/><path d="m0 0h29.5986v29.5986h-29.5986z" fill="url(#aq)" transform="matrix(.280881 -.960227 .970815 -.237882 10.6494 302.835)"/><path clip-rule="evenodd" d="m18.9632 274.414-8.3137 28.422 28.7348-7.041 8.3137-28.421zm.35.368-8.0045 27.364 27.6661-6.779 8.0045-27.364z" fill="url(#ar)" fill-rule="evenodd" opacity=".4"/><path d="m0 0h29.5987v29.5676h-29.5987z" fill="url(#an)" transform="matrix(.28082 -.960245 .690673 .723167 39.3848 295.794)"/><ellipse cx="16.8149" cy="16.7914" fill="#855173" rx="16.8149" ry="16.7914" transform="matrix(.945324 .326133 -.327149 .944973 670.644 229.2)"/><path d="m0 0h39.5967v39.5551h-39.5967z" fill="url(#at)" transform="matrix(.655533 .75455 -.327118 .944983 657.277 213.955)"/><path clip-rule="evenodd" d="m657.685 214.423-.407-.469-12.939 37.379 25.957 29.878.203-.586-25.55-29.409z" fill="url(#au)" fill-rule="evenodd" opacity=".4"/><path d="m0 0h39.5966v39.5966h-39.5966z" fill="url(#av)" transform="matrix(.98237 -.18942 .655582 .754508 657.275 213.956)"/><path clip-rule="evenodd" d="m696.173 206.455-38.898 7.501 25.959 29.876 38.898-7.501zm-.222.642-37.452 7.222 24.993 28.764 37.452-7.221z" fill="url(#aw)" fill-rule="evenodd" opacity=".4"/><path d="m0 0h39.5967v39.5552h-39.5967z" fill="url(#at)" transform="matrix(.982357 -.189484 -.32718 .944962 683.234 243.832)"/><g filter="url(#k)" opacity=".8"><ellipse cx="33.0489" cy="33.0556" fill="url(#ax)" rx="33.0489" ry="33.0556" transform="matrix(.865281 -.501288 .498714 .866767 226.904 91.8093)"/></g><ellipse cx="33.0489" cy="33.0556" fill="url(#ay)" rx="33.0489" ry="33.0556" transform="matrix(.865281 -.501288 .498714 .866767 219.256 57.7546)"/><path d="m260.028 47.1322c.713 1.2393.691 2.7969.002 4.3486-.688 1.5513-2.032 3.0598-3.884 4.1323-1.851 1.0725-3.825 1.4862-5.508 1.3091-1.684-.1772-3.039-.9369-3.752-2.1762s-.691-2.7969-.002-4.3486c.688-1.5513 2.032-3.0598 3.884-4.1323 1.851-1.0724 3.825-1.4862 5.508-1.3091 1.684.1772 3.039.9369 3.752 2.1762z" opacity=".1" stroke="#b79fb6" stroke-width=".966965"/><path d="m253.06 51.0941c-.135-.235-.092-.4584-.046-.5673.046-.1086.113-.1648.16-.1918l.964 1.6763c.281-.1626.519-.4128.652-.7254.133-.3129.18-.7505-.057-1.1612zm.114-.7591c.046-.027.128-.057.245-.0429s.332.0884.467.3234l-1.673.9694c.236.4108.637.5894.974.6299.336.0404.671-.041.951-.2035zm.712.2805c.135.235.092.4584.046.5673-.047.1086-.113.1648-.16.1918l-.964-1.6762c-.281.1625-.519.4127-.652.7253-.133.3129-.18.7505.057 1.1612zm-.114.7591c-.047.027-.128.057-.245.0429-.118-.0141-.332-.0884-.467-.3234l1.673-.9694c-.236-.4108-.637-.5894-.974-.6298-.336-.0405-.671.0409-.951.2035z" fill="#b79fb6" mask="url(#aI)" opacity=".1"/><g stroke="#b79fb6" stroke-width=".966965"><path d="m273.331 44.2375c2.029 3.5261 1.94 7.8815.081 12.1071-1.858 4.2253-5.476 8.2854-10.426 11.1533-4.951 2.868-10.263 3.9814-14.84 3.4839-4.576-.4976-8.38-2.5977-10.408-6.1238-2.029-3.526-1.94-7.8814-.081-12.1071 1.859-4.2253 5.476-8.2853 10.426-11.1533 4.951-2.8679 10.264-3.9813 14.84-3.4838s8.38 2.5976 10.408 6.1237z" opacity=".1"/><g stroke-linecap="round"><path d="m231.585 72.4027c.33.829.721 1.6398 1.174 2.4281 6.473 11.249 23.288 13.6672 37.557 5.4011s20.589-24.0863 14.116-35.3353c-.453-.7883-.958-1.5333-1.508-2.2342" opacity=".1"/><path d="m295.188 58.4927c.309 12.2078-6.665 24.7897-19.001 31.9358-12.337 7.1461-26.684 6.9144-37.067.5424" opacity=".1"/><path d="m294.979 81.8727c-3.565 5.802-8.725 10.9453-15.242 14.7202-6.518 3.7751-13.538 5.6861-20.329 5.8821" opacity=".1"/><path d="m253.211 50.8802c-3.003-4.3528-6.485-6.6726-8.351-7.532m8.351 7.532c-.593-2.6682-1.269-8.6472.506-12.1286m-.506 12.1286c1.218-3.7566 4.742-11.1759 9.881-13.9977m-9.881 13.9977c3.332-4.2781 11.917-12.0782 21.616-12.2556m-21.616 12.2556c7.511-4.1761 24.391-10.0378 35.705-2.7403m-35.705 2.7403c9.213-1.7716 34.997.3377 43.54 15.5245m-43.54-15.5245c11.664 4.0799 35.444 16.3267 40.364 33.4944m-40.364-33.4944c7.88 9.6415 25.006 31.5518 32.145 44.0574m-32.145-44.0574c1.844 14.3209 8.547 43.4543 20.967 50.1848m-20.967-50.1848c-4.988 12.2405-10.198 38.5428 5.975 51.2948m-5.975-51.2948c-9.826 10.5235-23.218 34.0253-3.489 48.4298m3.489-48.4298c-11.669 5.1412-28.861 19.8008-13.951 40.2003m13.951-40.2003c-5.936.6557-16.397 3.9607-20.887 12.0499m20.887-12.0499c-2.51-1.4249-8.774-3.2145-15.414-.2819" opacity=".1"/></g></g><path d="m432.179 434.857 24.742 9.805-9.891-6.48-7.027-8.633-16.67-.488z" fill="url(#az)"/><path d="m450.538 393.141 8.908 5.759-.413 7.478-11.191 4.913z" fill="url(#aA)"/><path d="m456.92 444.662.826-14.955-9.603-6.292-1.113 14.766z" fill="url(#aB)"/><path d="m457.746 429.707 37.824-19.019-9.6-6.29-37.827 19.017z" fill="url(#aC)"/><path d="m495.57 410.688-9.6-6.29c.521-5.129 1.554-15.352 1.539-15.417l8.936 5.855z" fill="url(#aD)"/><path d="m450.571 393.086-27.266 35.956 24.741 9.805.825-14.954 37.825-19.019.874-15.852-37.824 19.019z" fill="url(#aE)"/><path d="m511.051 447.759 27.267-35.956-8.885-5.822-.9.297-26.394 35.642z" fill="url(#aF)"/><path d="m465.113 445.967 8.939 5.857 32.209-16.196 1.342-4.179-5.107-4.79z" fill="url(#aG)"/><path d="m502.621 442.236 27.267-35.957-24.742-9.804-.825 14.954-37.824 19.019-.875 15.852 37.824-19.019z" fill="url(#aH)"/></svg>