<svg fill="none" height="88" viewBox="0 0 88 88" width="88" xmlns="http://www.w3.org/2000/svg" xmlns:xlink="http://www.w3.org/1999/xlink"><filter id="a" color-interpolation-filters="sRGB" filterUnits="userSpaceOnUse" height="14.2277" width="35.032" x="35.5022" y="23.7098"><feFlood flood-opacity="0" result="BackgroundImageFix"/><feBlend in="SourceGraphic" in2="BackgroundImageFix" mode="normal" result="shape"/><feGaussianBlur result="effect1_foregroundBlur_4170_6762" stdDeviation=".5"/></filter><filter id="b" color-interpolation-filters="sRGB" filterUnits="userSpaceOnUse" height="11.8221" width="28.6939" x="38.6639" y="16.7074"><feFlood flood-opacity="0" result="BackgroundImageFix"/><feBlend in="SourceGraphic" in2="BackgroundImageFix" mode="normal" result="shape"/><feGaussianBlur result="effect1_foregroundBlur_4170_6762" stdDeviation=".5"/></filter><filter id="c" color-interpolation-filters="sRGB" filterUnits="userSpaceOnUse" height="33.2172" width="19.6333" x="23.2315" y="39.672"><feFlood flood-opacity="0" result="BackgroundImageFix"/><feBlend in="SourceGraphic" in2="BackgroundImageFix" mode="normal" result="shape"/><feGaussianBlur result="effect1_foregroundBlur_4170_6762" stdDeviation=".5"/></filter><filter id="d" color-interpolation-filters="sRGB" filterUnits="userSpaceOnUse" height="27.293" width="16.1649" x="30.3607" y="43.3291"><feFlood flood-opacity="0" result="BackgroundImageFix"/><feBlend in="SourceGraphic" in2="BackgroundImageFix" mode="normal" result="shape"/><feGaussianBlur result="effect1_foregroundBlur_4170_6762" stdDeviation=".5"/></filter><linearGradient id="e"><stop offset="0" stop-color="#e35760"/><stop offset="1" stop-color="#2c2430"/></linearGradient><linearGradient id="f" gradientUnits="userSpaceOnUse" x1="29.2128" x2="73.8774" xlink:href="#e" y1="28.0598" y2="9.52257"/><linearGradient id="g"><stop offset="0" stop-color="#2c2430"/><stop offset="1" stop-color="#e35760"/></linearGradient><linearGradient id="h" gradientUnits="userSpaceOnUse" x1="9.37426" x2="65.8334" xlink:href="#g" y1="23.6099" y2=".593183"/><linearGradient id="i" gradientUnits="userSpaceOnUse" x1="0" x2="32.488" xlink:href="#g" y1="0" y2="16.682"/><linearGradient id="j" gradientUnits="userSpaceOnUse" x1="22.7499" x2="61.5626" xlink:href="#g" y1="21.9598" y2="7.00655"/><linearGradient id="k" gradientUnits="userSpaceOnUse" x1="34.0794" x2="49.5373" xlink:href="#e" y1="23.7892" y2="17.7494"/><linearGradient id="l" gradientUnits="userSpaceOnUse" x1="40.5701" x2="46.7397" xlink:href="#e" y1="33.2366" y2="81.2"/><linearGradient id="m" gradientUnits="userSpaceOnUse" x1="50.0688" x2="57.4666" xlink:href="#g" y1="15.2605" y2="75.7805"/><linearGradient id="n" gradientUnits="userSpaceOnUse" x1="48.1519" x2="52.3984" xlink:href="#g" y1="28.6005" y2="69.9767"/><linearGradient id="o" gradientUnits="userSpaceOnUse" x1="43.4142" x2="45.1868" xlink:href="#e" y1="39.0531" y2="55.5541"/><linearGradient id="p"><stop offset="0" stop-color="#81557e"/><stop offset="1" stop-color="#36293b" stop-opacity="0"/></linearGradient><radialGradient id="q" cx="0" cy="0" gradientTransform="matrix(4.2422208 28.3113333 -24.83177892 3.72083815 13.4282 38.9293)" gradientUnits="userSpaceOnUse" r="1" xlink:href="#p"/><linearGradient id="r"><stop offset="0" stop-color="#36293b"/><stop offset="1" stop-color="#81557e"/></linearGradient><radialGradient id="s" cx="0" cy="0" gradientTransform="matrix(-18.32154823 9.31798178 -8.17275522 -16.06973833 27.3352 32.0351)" gradientUnits="userSpaceOnUse" r="1" xlink:href="#r"/><linearGradient id="t"><stop offset="0" stop-color="#81557e"/><stop offset="1" stop-color="#36293b"/></linearGradient><radialGradient id="u" cx="0" cy="0" gradientTransform="matrix(-9.16081868 4.65901356 -4.08638668 -8.03488699 23.3522 34.0606)" gradientUnits="userSpaceOnUse" r="1" xlink:href="#t"/><radialGradient id="v" cx="0" cy="0" gradientTransform="matrix(-4.2422208 -28.3113333 24.83177892 -3.72083815 73.9296 45.463)" gradientUnits="userSpaceOnUse" r="1" xlink:href="#p"/><radialGradient id="w" cx="0" cy="0" gradientTransform="matrix(18.32156449 -9.3179498 8.17272718 16.0697526 60.0226 52.357)" gradientUnits="userSpaceOnUse" r="1" xlink:href="#r"/><radialGradient id="x" cx="0" cy="0" gradientTransform="matrix(9.16082681 -4.65899757 4.08637265 8.03489412 64.0054 50.3316)" gradientUnits="userSpaceOnUse" r="1" xlink:href="#t"/><path d="m40.0068 36.3055c-2.9745-2.2723-4.2728-4.909-3.9682-7.3372 1.3181-10.2815-.0887-2.8064 5.6913-6.1036 6.913-2.8691 24.2934 9.3177 27.3455 4.5055 1.0465-1.832.2807 3.5416-.0827 6.0027-.3531 2.3911-2.2684 4.5696-5.675 5.9834-6.913 2.8691-17.3496 1.5032-23.3109-3.0508z" fill="url(#f)"/><path clip-rule="evenodd" d="m38.106 34.5612c.4923.5536 1.0717 1.0956 1.7388 1.619l.6608-5.1007 1.9163.2482-.7875 6.0786c.5807.3482 1.1901.6715 1.8229.9693l.7981-6.1609 1.9163.2483-.8662 6.6862c.6092.2257 1.2336.4298 1.8692.6119l.9132-7.0499 1.9163.2482-.9419 7.2712c.6292.1335 1.2653.2462 1.9047.3375l.9535-7.3604 1.9163.2482-.9484 7.3216c.6474.0487 1.2946.0753 1.9381.0794l.9266-7.1527 1.9163.2482-.8868 6.8458c.6683-.0449 1.3284-.1156 1.976-.2126l.9926-7.6625 1.9163.2482-.9094 7.0199c.7004-.1737 1.379-.3821 2.0296-.626l.9616-7.4232 1.9163.2482-.8056 6.2183c.8442-.4764 1.5627-1.0092 2.1539-1.585l1.1458-8.8454c-2.2059 1.0677-6.7848-.6423-11.6791-2.4701-5.4871-2.0492-11.3706-4.2465-14.751-2.8435-2.4713 1.4097-3.6288.8503-4.2472.5514-.2001-.0967-.3437-.1662-.4572-.1328-.2888.0848-.382.8358-.7123 3.4988-.0769.6199-.1666 1.3434-.2747 2.1862-.1256 1.0014.0214 2.0382.4461 3.0703l.6023-4.6492 1.9163.2482zm30.0717-6.3919 1.4109.1828c.0613-1.1718-.0427-1.8064-.5136-.9821-.2247.3543-.5271.6165-.8973.7993z" fill="url(#h)" fill-rule="evenodd"/><rect fill="url(#i)" height="27.1663" rx="13.5523" transform="matrix(.923613 -.383327 .794654 .607062 29.7968 23.5033)" width="27.1046"/><rect fill="url(#i)" height="27.1663" rx="13.5523" transform="matrix(.923613 -.383327 .794654 .607062 29.7141 24.1421)" width="27.1046"/><path clip-rule="evenodd" d="m44.5368 20.363c-3.5087 1.366-5.1284 3.7275-4.7426 6.1912-.5713-1.8589-.0282-3.7128 1.5649-5.1961-2.7325 2.5438-2.3766 6.1778 1.3926 9.0573 4.7898 3.659 13.2777 4.7141 18.8448 2.4036 1.7992-.7468 3.0924-1.7616 3.857-2.9168 1.0054-2.2766.0546-4.9663-2.9644-7.1826-4.6577-3.4194-12.5583-4.4565-17.9523-2.3566z" fill="url(#j)" fill-rule="evenodd"/><g filter="url(#a)"><path clip-rule="evenodd" d="m36.5991 24.7098c-.167 2.3469 1.1435 4.8633 3.9919 7.0393 5.9477 4.5437 16.3979 5.9199 23.3109 3.0508 3.2998-1.3695 5.1972-3.4587 5.6323-5.7627-.1817 2.5536-2.1127 4.9064-5.715 6.4015-6.913 2.8691-17.3632 1.4928-23.311-3.0509-3.1087-2.3748-4.3855-5.1551-3.9091-7.678z" fill="#fff" fill-opacity=".3" fill-rule="evenodd"/></g><path clip-rule="evenodd" d="m39.6735 26.085c.1852-2.0475 1.8024-3.9241 4.7805-5.0835 5.394-2.0999 13.2946-1.0628 17.9523 2.3566 2.5769 1.8917 3.6469 4.1284 3.2798 6.1586 1.2868-2.3505.4822-5.1986-2.5899-7.5454-4.7897-3.6591-13.2777-4.7141-18.8447-2.4036-3.5259 1.4633-5.1083 3.9563-4.578 6.5173z" fill="url(#k)" fill-rule="evenodd"/><g filter="url(#b)"><path clip-rule="evenodd" d="m39.6639 24.2189c.3773-1.8607 1.9307-3.5482 4.5877-4.6509 5.5671-2.3105 14.055-1.2555 18.8447 2.4036 2.2449 1.7149 3.279 3.6974 3.1711 5.5579.4131-2.0378-.5845-4.2835-3.0883-6.1961-4.7897-3.6591-13.2776-4.7141-18.8447-2.4036-2.9579 1.2276-4.5481 3.1799-4.6705 5.2891z" fill="#fff" fill-opacity=".3" fill-rule="evenodd"/></g><path d="m29.7813 41.4891c2.9732-2.2742 5.8581-2.8352 8.1213-1.9042 9.5755 3.9694 2.7314.6507 4.3966 7.0933.9549 7.4235-15.3649 20.9977-11.522 25.2055 1.4932 1.4905-3.4912-.6584-5.7708-1.6547-2.2147-.9681-3.8143-3.3878-4.2849-7.046-.9549-7.4236 3.1013-17.1362 9.0598-21.6939z" fill="url(#l)"/><path clip-rule="evenodd" d="m31.963 40.1126c-.6634.3298-1.3384.7466-2.0185 1.2531l4.7487 1.9758-.7423 1.7841-5.659-2.3547c-.4883.469-.9602.9722-1.4136 1.5048l5.7356 2.3864-.7423 1.7841-6.2248-2.59c-.3775.5286-.7383 1.0776-1.0808 1.6431l6.5633 2.7309-.7423 1.784-6.7693-2.8166c-.2939.5722-.5695 1.1565-.8255 1.7495l6.8525 2.8512-.7423 1.7841-6.8163-2.8362c-.2168.612-.4123 1.2295-.585 1.8495l6.6591 2.7707-.7423 1.784-6.3734-2.6518c-.132.6567-.237 1.3122-.3133 1.9625l7.1336 2.9682-.7423 1.784-6.5353-2.7192c-.0161.7215.007 1.431.0716 2.1228l6.9108 2.8754-.7423 1.784-5.7889-2.4086c.2382.9394.5638 1.7725.9643 2.494l8.2349 3.4264c-.4516-2.4087 2.3999-6.3786 5.4478-10.6219 3.417-4.7572 7.0808-9.8581 6.6139-13.4883-.712-2.7545.1316-3.7247.5823-4.243.1458-.1677.2504-.2881.248-.4063-.0061-.301-.7063-.5879-3.1893-1.6053-.5781-.2369-1.2527-.5133-2.0376-.8387-.9334-.3839-1.9725-.5141-3.0799-.375l4.3285 1.801-.7423 1.7841zm-1.7216 30.6952-.5466 1.3136c1.1147.3665 1.7544.4327 1.0825-.238-.283-.3098-.4566-.6704-.5359-1.0756z" fill="url(#m)" fill-rule="evenodd"/><rect fill="url(#i)" height="27.1663" rx="13.5523" transform="matrix(.12758 .991828 -.794283 .607548 44.8137 34.9956)" width="27.1046"/><rect fill="url(#i)" height="27.1663" rx="13.5523" transform="matrix(.12758 .991828 -.794283 .607548 44.219 34.748)" width="27.1046"/><path clip-rule="evenodd" d="m43.9767 50.0432c-.3976-3.7445-2.2518-5.9271-4.7308-6.2009 1.8639-.0612 3.4547.8652 4.4759 2.64-1.7824-3.098-5.3-3.6116-8.977-.799-4.7875 3.662-8.0325 11.5758-7.2635 17.554.2485 1.9323.8886 3.4465 1.8029 4.4874 1.933 1.5672 4.7779 1.3553 7.7084-.9763 4.5217-3.5974 7.5952-10.9492 6.9841-16.7052z" fill="url(#n)" fill-rule="evenodd"/><g filter="url(#c)"><path clip-rule="evenodd" d="m41.8647 41.243c-2.2207-.7768-4.9927-.1724-7.8397 2.0052-5.945 4.5474-10.0148 14.2704-9.0599 21.694.4558 3.5436 1.9741 5.9227 4.0834 6.9469-2.4166-.8452-4.1805-3.3259-4.6781-7.1943-.9549-7.4236 3.1149-17.1467 9.0599-21.694 3.1071-2.3767 6.125-2.8794 8.4344-1.7578z" fill="#fff" fill-opacity=".3" fill-rule="evenodd"/></g><path clip-rule="evenodd" d="m39.7308 43.8489c1.9274.7158 3.3142 2.7687 3.6516 5.9468.6112 5.756-2.4623 13.1078-6.984 16.7053-2.5015 1.9902-4.9406 2.436-6.8034 1.5491 1.9306 1.8583 4.8899 1.829 7.9605-.5197 4.7875-3.662 8.0325-11.5758 7.2635-17.554-.487-3.7864-2.4776-5.9675-5.0882-6.1275z" fill="url(#o)" fill-rule="evenodd"/><g filter="url(#d)"><path clip-rule="evenodd" d="m41.5336 44.3291c1.6969.852 2.918 2.7938 3.285 5.6475.769 5.9782-2.476 13.892-7.2635 17.554-2.2435 1.716-4.4276 2.1939-6.1944 1.602 1.858.9329 4.2864.5592 6.7886-1.3548 4.7876-3.6619 8.0325-11.5757 7.2636-17.554-.4087-3.1768-1.8757-5.2235-3.8793-5.8947z" fill="#fff" fill-opacity=".3" fill-rule="evenodd"/></g><path d="m27.3778 65.0695c.1252.2462.0274.5479-.2225.6654-1.7607.8277-3.6582 1.3302-5.6006 1.4816-2.1087.1644-4.2292-.0882-6.2403-.7434-2.0111-.6551-3.8735-1.6999-5.48086-3.0748-1.60732-1.3749-2.92811-3.0529-3.88694-4.9382-.95882-1.8853-1.53692-3.9411-1.70128-6.0498s.08823-4.2292.74336-6.2403 1.69997-3.8735 3.07486-5.4808c1.26646-1.4806 2.79016-2.7181 4.49616-3.6534.2421-.1328.5435-.034.6687.2121l1.3838 2.721c.1252.2461.0266.5462-.2142.6815-1.2322.6925-2.3343 1.597-3.2548 2.6731-1.0289 1.2029-1.81086 2.5967-2.30115 4.1017-.49029 1.5051-.67933 3.092-.55632 4.6702.123 1.5781.55564 3.1166 1.27321 4.5275.71756 1.411 1.70606 2.6668 2.90896 3.6957s2.5966 1.8109 4.1017 2.3012 3.092.6793 4.6702.5563c1.4118-.1101 2.7919-.4679 4.0773-1.0559.2511-.1148.5517-.0178.6769.2283z" fill="url(#q)"/><path d="m23.6141 32.956c.7687.0408 1.2049.8985.7852 1.5438l-6.5515 10.0718c-.4198.6453-1.3807.5942-1.7296-.0919l-5.4467-10.7097c-.349-.6861.1757-1.4927.9444-1.4519z" fill="url(#s)"/><path d="m22.8857 33.8121c.3844.0204.6025.4493.3926.7719l-5.8078 8.9286c-.2099.3226-.6904.2971-.8648-.046l-4.8285-9.494c-.1745-.3431.0879-.7464.4722-.726z" fill="url(#u)"/><path d="m59.98 19.3227c-.1252-.2461-.0275-.5479.2224-.6654 1.7608-.8277 3.6582-1.3302 5.6007-1.4816 2.1087-.1643 4.2292.0882 6.2403.7434 2.0111.6551 3.8735 1.6999 5.4808 3.0748 1.6074 1.3749 2.9282 3.0529 3.887 4.9382s1.5369 3.9411 1.7013 6.0498c.1643 2.1087-.0883 4.2292-.7434 6.2403s-1.7 3.8735-3.0748 5.4809c-1.2665 1.4805-2.7902 2.718-4.4962 3.6533-.2421.1328-.5435.034-.6687-.2121l-1.3838-2.721c-.1252-.2461-.0266-.5462.2142-.6815 1.2322-.6925 2.3343-1.597 3.2548-2.6731 1.0289-1.2029 1.8108-2.5966 2.3011-4.1017s.6794-3.092.5564-4.6702c-.123-1.5781-.5557-3.1166-1.2733-4.5275-.7175-1.411-1.706-2.6668-2.9089-3.6957s-2.5966-1.8109-4.1017-2.3012c-1.5051-.4902-3.092-.6793-4.6702-.5563-1.4118.1101-2.7919.4679-4.0773 1.0559-.2511.1149-.5517.0178-.6769-.2283z" fill="url(#v)"/><path d="m63.7437 51.4361c-.7687-.0409-1.2049-.8986-.7852-1.5439l6.5515-10.0717c.4197-.6453 1.3806-.5942 1.7296.0919l5.4467 10.7096c.3489.6862-.1757 1.4928-.9445 1.452z" fill="url(#w)"/><path d="m64.4719 50.5801c-.3843-.0204-.6024-.4493-.3926-.7719l5.8079-8.9286c.2098-.3226.6903-.2971.8648.046l4.8284 9.494c.1745.3431-.0878.7464-.4722.726z" fill="url(#x)"/></svg>