<svg fill="none" height="88" viewBox="0 0 88 88" width="88" xmlns="http://www.w3.org/2000/svg" xmlns:xlink="http://www.w3.org/1999/xlink"><filter id="a" color-interpolation-filters="sRGB" filterUnits="userSpaceOnUse" height="51.4204" width="58.1297" x="23.5059" y="30.7227"><feFlood flood-opacity="0" result="BackgroundImageFix"/><feColorMatrix in="SourceAlpha" result="hardAlpha" type="matrix" values="0 0 0 0 0 0 0 0 0 0 0 0 0 0 0 0 0 0 127 0"/><feOffset dx="-3.58824" dy="-.717647"/><feGaussianBlur stdDeviation="1.07647"/><feComposite in2="hardAlpha" operator="out"/><feColorMatrix type="matrix" values="0 0 0 0 0.152941 0 0 0 0 0.129412 0 0 0 0 0.168627 0 0 0 0.25 0"/><feBlend in2="BackgroundImageFix" mode="normal" result="effect1_dropShadow_4170_6913"/><feBlend in="SourceGraphic" in2="effect1_dropShadow_4170_6913" mode="normal" result="shape"/></filter><filter id="b" color-interpolation-filters="sRGB" filterUnits="userSpaceOnUse" height="23.8" width="23" x="43" y="39.9995"><feFlood flood-opacity="0" result="BackgroundImageFix"/><feBlend in="SourceGraphic" in2="BackgroundImageFix" mode="normal" result="shape"/><feColorMatrix in="SourceAlpha" result="hardAlpha" type="matrix" values="0 0 0 0 0 0 0 0 0 0 0 0 0 0 0 0 0 0 127 0"/><feOffset dy="1"/><feGaussianBlur stdDeviation=".4"/><feComposite in2="hardAlpha" k2="-1" k3="1" operator="arithmetic"/><feColorMatrix type="matrix" values="0 0 0 0 0.286275 0 0 0 0 0.176471 0 0 0 0 0.227451 0 0 0 0.5 0"/><feBlend in2="shape" mode="normal" result="effect1_innerShadow_4170_6913"/></filter><linearGradient id="c"><stop offset=".111577" stop-color="#36293b"/><stop offset=".897208" stop-color="#81557e"/></linearGradient><linearGradient id="d" gradientUnits="userSpaceOnUse" x1="33.5783" x2="33.5784" xlink:href="#c" y1="-1.38617" y2="60.542"/><linearGradient id="e"><stop offset="0" stop-color="#81557e"/><stop offset="1" stop-color="#36293b"/></linearGradient><radialGradient id="f" cx="0" cy="0" gradientTransform="matrix(-.0458169 48.25577825 -48.08107833 -.04565103 32.6308 7)" gradientUnits="userSpaceOnUse" r="1" xlink:href="#e"/><linearGradient id="g" gradientUnits="userSpaceOnUse" x1="32.8354" x2="32.8354" xlink:href="#c" y1="19.6965" y2="29.385"/><radialGradient id="h" cx="0" cy="0" gradientTransform="matrix(-.04581064 48.24917825 -48.08137833 -.04565132 56.0963 34.8114)" gradientUnits="userSpaceOnUse" r="1"><stop offset=".141798" stop-color="#302634"/><stop offset="1" stop-color="#e35760"/></radialGradient><radialGradient id="i" cx="0" cy="0" gradientTransform="matrix(-.04582004 48.25907825 -48.08137833 -.04565132 54.878 33.5933)" gradientUnits="userSpaceOnUse" r="1"><stop offset="0" stop-color="#e35760"/><stop offset="1" stop-color="#302634"/></radialGradient><radialGradient id="j" cx="0" cy="0" gradientTransform="matrix(-22.95240313 -.1510265 .09766067 -14.8420787 65.9761 51.573)" gradientUnits="userSpaceOnUse" r="1" xlink:href="#e"/><g clip-rule="evenodd" fill-rule="evenodd"><path d="m13.8051 8.0679c-3.1096.08348-5.58706 2.6284-5.58706 5.7391v24.0013c0 .3003.02305.5952.06749.8831l-.0672-.0152-1.21833 13.0971.78584 1.5717c.21532.4306.78527.5313 1.13505.2004l9.52941-9.0143c.6663-.6303 1.5487-.9815 2.4658-.9815h8.9276l-.0004-.0001h23.8035c3.1707 0 5.7411-2.5704 5.7411-5.7412v-24.9321c0-2.7149-1.9017-5.05868-4.5584-5.61798l-.5674-.11945c-.4393-.09249-.888-.13313-1.3368-.12108z" fill="url(#d)"/><path d="m12.7412 7c-3.17079 0-5.7412 2.57042-5.7412 5.7412v23.8492c0 .3002.02304.595.06744.8828l-.06744-.0152v13.867c0 .6298.75329.9541 1.21081.5213l9.02119-8.5335c.6549-.6196 1.5187-.9695 2.419-.9812h32.7777c3.1708 0 5.7412-2.5704 5.7412-5.7412v-23.8492c0-3.17079-2.5704-5.7412-5.7412-5.7412z" fill="url(#f)"/><path d="m22.8386 24.666c0 2.0186-1.6364 3.655-3.655 3.655s-3.655-1.6364-3.655-3.655 1.6364-3.655 3.655-3.655 3.655 1.6364 3.655 3.655zm13.4017.0002c0 2.0186-1.6364 3.655-3.655 3.655s-3.655-1.6364-3.655-3.655 1.6364-3.655 3.655-3.655 3.655 1.6364 3.655 3.655zm9.7462 3.655c2.0186 0 3.655-1.6364 3.655-3.655s-1.6364-3.655-3.655-3.655-3.6549 1.6364-3.6549 3.655 1.6363 3.655 3.6549 3.655z" fill="url(#g)"/></g><g filter="url(#a)"><path clip-rule="evenodd" d="m36.2065 34.8114c-3.1707 0-5.7411 2.5704-5.7411 5.7412v23.8492c0 3.1708 2.5704 5.7412 5.7411 5.7412h33.1629c.5883.1638 1.1305.4766 1.5706.9152l9.4713 9.4388c.4525.4509 1.2242.1305 1.2242-.5083v-15.3283l-.006.0015c.0038-.0862.0058-.1729.0058-.2601v-23.8492c0-3.1708-2.5705-5.7412-5.7412-5.7412z" fill="url(#h)" fill-rule="evenodd"/><path clip-rule="evenodd" d="m34.9882 33.5933c-3.1707 0-5.7412 2.5704-5.7412 5.7411v23.8493c0 3.1708 2.5705 5.7412 5.7412 5.7412h32.5834c.5578.1553 1.0746.4448 1.5024.8493l10.1326 9.58c.4575.4326 1.2106.1082 1.2106-.5215v-15.3905l-.006.0014c.0038-.0862.0057-.1728.0057-.2599v-23.8493c0-3.1707-2.5704-5.7411-5.7411-5.7411z" fill="url(#i)" fill-rule="evenodd"/><g filter="url(#b)"><path clip-rule="evenodd" d="m44 49.4726c-.5523 0-1 .4477-1 1v2.8421c0 .5523.4477 1 1 1h.9574c.4423 0 .8268.2927.987.7049.0792.2038.1654.4041.2583.6006.1937.4096.134.903-.1863 1.2233l-.4936.4935c-.3905.3906-.3905 1.0237 0 1.4142l2.1192 2.1192c.3905.3906 1.0237.3906 1.4142 0l.5456-.5455c.3144-.3145.7966-.3782 1.2025-.1965.1589.0712.3203.138.4838.2004.4157.1584.7119.5446.7119.9895v.6812c0 .5523.4477 1 1 1h3c.5523 0 1-.4477 1-1v-.615c0-.4524.3059-.8432.7316-.9965.2625-.0945.5196-.2006.7706-.3175.4086-.1905.8989-.1297 1.2177.1891l.6121.6121c.3905.3905 1.0237.3905 1.4142 0l2.3091-2.3091c.3905-.3905.3905-1.0237 0-1.4142l-.71-.71c-.3081-.3081-.376-.7782-.2069-1.1797.0334-.0792.0656-.1588.0968-.2391.1602-.4122.5448-.7049.987-.7049h.7778c.5523 0 1-.4477 1-1v-2.8421c0-.5523-.4477-1-1-1h-.6112c-.4616 0-.8578-.3181-1.0043-.7559-.096-.2867-.2056-.5671-.328-.8405-.1818-.4059-.118-.8881.1965-1.2025l.7459-.746c.3905-.3905.3905-1.0236 0-1.4142l-2.1192-2.1192c-.3905-.3905-1.0237-.3905-1.4142 0l-.6939.694c-.3204.3203-.8138.38-1.2233.1863-.2656-.1255-.5381-.2388-.8167-.3392-.4257-.1533-.7316-.544-.7316-.9964v-.9395c0-.5523-.4477-1-1-1h-3c-.5523 0-1 .4477-1 1v1.0057c0 .4449-.2962.8311-.7119.9895-.0992.0378-.1976.0773-.2952.1184-.4015.1692-.8717.1012-1.1798-.2069l-.567-.567c-.3905-.3905-1.0236-.3905-1.4142 0l-2.3091 2.3091c-.3905.3906-.3905 1.0237 0 1.4142l.4692.4692c.3187.3187.3795.8091.1891 1.2177-.146.3133-.2751.6361-.3859.9673-.1465.4378-.5427.7559-1.0044.7559zm16.0346 2.37c0-2.9634-2.4023-5.3658-5.3658-5.3658-2.9634 0-5.3658 2.4024-5.3658 5.3658 0 2.9635 2.4024 5.3658 5.3658 5.3658 2.9635 0 5.3658-2.4023 5.3658-5.3658z" fill="url(#j)" fill-rule="evenodd"/></g></g></svg>