<svg width="88" height="88" viewBox="0 0 88 88" fill="none" xmlns="http://www.w3.org/2000/svg">
<g id="Live support">
<g id="Group 9713231">
<g id="Group 972858">
<path id="Union" fill-rule="evenodd" clip-rule="evenodd" d="M13.8054 8.0679C10.6957 8.15138 8.21826 10.6963 8.21826 13.807V37.8083C8.21826 38.1083 8.24127 38.4029 8.28562 38.6905L8.21833 38.6753L7 51.7724L7.78584 53.3441C8.00116 53.7747 8.57111 53.8754 8.92089 53.5445L18.4503 44.5302C19.0982 43.9173 19.9503 43.5683 20.8401 43.5495H53.647C56.8178 43.5495 59.3882 40.9791 59.3882 37.8083V12.8762C59.3882 10.1613 57.4864 7.81752 54.8297 7.25822L54.2624 7.13877C53.823 7.04628 53.3744 7.00564 52.9256 7.01769L13.8054 8.0679Z" fill="url(#paint0_linear_2788_69811)"/>
<path id="Union_2" fill-rule="evenodd" clip-rule="evenodd" d="M12.7412 7C9.57041 7 7 9.57042 7 12.7412V36.5904C7 36.8906 7.02304 37.1854 7.06744 37.4732L7 37.458V51.325C7 51.9548 7.75329 52.2791 8.21081 51.8463L17.232 43.3128C17.8869 42.6932 18.7507 42.3433 19.651 42.3316H52.4287C55.5995 42.3316 58.1699 39.7612 58.1699 36.5904V12.7412C58.1699 9.57041 55.5995 7 52.4287 7H12.7412Z" fill="url(#paint1_radial_2788_69811)"/>
<path id="Union_3" fill-rule="evenodd" clip-rule="evenodd" d="M22.8388 24.6657C22.8388 26.6843 21.2024 28.3207 19.1838 28.3207C17.1652 28.3207 15.5288 26.6843 15.5288 24.6657C15.5288 22.6471 17.1652 21.0107 19.1838 21.0107C21.2024 21.0107 22.8388 22.6471 22.8388 24.6657ZM36.2405 24.6659C36.2405 26.6845 34.6041 28.3209 32.5855 28.3209C30.5669 28.3209 28.9305 26.6845 28.9305 24.6659C28.9305 22.6473 30.5669 21.0109 32.5855 21.0109C34.6041 21.0109 36.2405 22.6473 36.2405 24.6659ZM45.9867 28.3209C48.0053 28.3209 49.6417 26.6845 49.6417 24.6659C49.6417 22.6473 48.0053 21.0109 45.9867 21.0109C43.9681 21.0109 42.3317 22.6473 42.3317 24.6659C42.3317 26.6845 43.9681 28.3209 45.9867 28.3209Z" fill="url(#paint2_linear_2788_69811)"/>
</g>
<g id="Group 972859" filter="url(#filter0_d_2788_69811)">
<path id="Union_4" fill-rule="evenodd" clip-rule="evenodd" d="M36.2065 34.8115C33.0357 34.8115 30.4653 37.3819 30.4653 40.5527V64.402C30.4653 67.5727 33.0357 70.1431 36.2065 70.1431H69.3711C69.9588 70.307 70.5004 70.6196 70.9402 71.0579L80.4115 80.4968C80.864 80.9477 81.6357 80.6272 81.6357 79.9884V64.6602L81.6295 64.6616C81.6333 64.5756 81.6352 64.489 81.6352 64.4019V40.5527C81.6352 37.3819 79.0648 34.8115 75.8941 34.8115H36.2065Z" fill="url(#paint3_radial_2788_69811)"/>
<path id="Union_5" fill-rule="evenodd" clip-rule="evenodd" d="M34.9882 33.5938C31.8175 33.5938 29.2471 36.1642 29.2471 39.3349V63.1842C29.2471 66.3549 31.8175 68.9254 34.9882 68.9254H67.5729C68.1303 69.0808 68.6467 69.3702 69.0743 69.7744L79.2068 79.3544C79.6644 79.787 80.4175 79.4626 80.4175 78.8329V63.4424L80.4112 63.4438C80.415 63.3577 80.417 63.2712 80.417 63.1842V39.3349C80.417 36.1642 77.8466 33.5938 74.6758 33.5938H34.9882Z" fill="url(#paint4_radial_2788_69811)"/>
<g id="Subtract" filter="url(#filter1_i_2788_69811)">
<path fill-rule="evenodd" clip-rule="evenodd" d="M44 49.4731C43.4477 49.4731 43 49.9208 43 50.4731L43 53.3152C43 53.8675 43.4477 54.3152 44 54.3152L44.9574 54.3152C45.3997 54.3152 45.7842 54.6079 45.9445 55.0201C46.0237 55.2239 46.1099 55.4242 46.2028 55.6207C46.3964 56.0302 46.3367 56.5236 46.0164 56.844L45.5229 57.3375C45.1323 57.728 45.1323 58.3612 45.5229 58.7517L47.642 60.8709C48.0326 61.2614 48.6657 61.2614 49.0563 60.8709L49.6018 60.3254C49.9163 60.0109 50.3984 59.9471 50.8043 60.1289C50.9632 60.2001 51.1246 60.2669 51.2881 60.3293C51.7039 60.4877 52 60.8739 52 61.3188L52 62C52 62.5523 52.4477 63 53 63L56 63C56.5523 63 57 62.5523 57 62L57 61.385C57 60.9325 57.3059 60.5418 57.7316 60.3885C57.994 60.294 58.2509 60.1881 58.5018 60.0712C58.9104 59.8808 59.4007 59.9416 59.7195 60.2603L60.3318 60.8726C60.7223 61.2632 61.3555 61.2632 61.746 60.8726L64.0551 58.5636C64.4456 58.173 64.4456 57.5399 64.0551 57.1493L63.3452 56.4394C63.037 56.1313 62.9691 55.6611 63.1383 55.2596C63.1717 55.1803 63.204 55.1005 63.2352 55.0201C63.3955 54.6079 63.78 54.3152 64.2223 54.3152L65 54.3152C65.5523 54.3152 66 53.8675 66 53.3152L66 50.4731C66 49.9208 65.5523 49.4731 65 49.4731L64.3889 49.4731C63.9272 49.4731 63.531 49.155 63.3845 48.7172C63.2885 48.4305 63.1789 48.1501 63.0565 47.8767C62.8748 47.4708 62.9385 46.9886 63.253 46.6742L63.9989 45.9282C64.3895 45.5377 64.3895 44.9045 63.9989 44.514L61.8798 42.3948C61.4892 42.0043 60.8561 42.0043 60.4655 42.3948L59.7716 43.0888C59.4513 43.4091 58.9579 43.4688 58.5483 43.2751C58.2827 43.1496 58.0103 43.0363 57.7316 42.9359C57.3059 42.7826 57 42.3919 57 41.9395L57 41C57 40.4477 56.5523 40 56 40L53 40C52.4477 40 52 40.4477 52 41L52 42.0057C52 42.4506 51.7039 42.8367 51.2881 42.9952C51.1888 43.0331 51.0902 43.0726 50.9925 43.1138C50.5909 43.283 50.1208 43.215 49.8127 42.9069L49.2459 42.3402C48.8554 41.9497 48.2222 41.9497 47.8317 42.3402L45.5226 44.6493C45.1321 45.0398 45.1321 45.673 45.5226 46.0635L45.9918 46.5326C46.3105 46.8514 46.3713 47.3417 46.1809 47.7503C46.035 48.0635 45.906 48.3862 45.7952 48.7172C45.6487 49.155 45.2525 49.4731 44.7908 49.4731L44 49.4731ZM60.0347 51.8431C60.0347 48.8797 57.6323 46.4773 54.6688 46.4773C51.7054 46.4773 49.303 48.8797 49.303 51.8431C49.303 54.8066 51.7054 57.2089 54.6688 57.2089C57.6323 57.2089 60.0347 54.8066 60.0347 51.8431Z" fill="url(#paint5_radial_2788_69811)"/>
</g>
</g>
</g>
</g>
<defs>
<filter id="filter0_d_2788_69811" x="23.5059" y="30.7232" width="58.1298" height="51.4201" filterUnits="userSpaceOnUse" color-interpolation-filters="sRGB">
<feFlood flood-opacity="0" result="BackgroundImageFix"/>
<feColorMatrix in="SourceAlpha" type="matrix" values="0 0 0 0 0 0 0 0 0 0 0 0 0 0 0 0 0 0 127 0" result="hardAlpha"/>
<feOffset dx="-3.58824" dy="-0.717647"/>
<feGaussianBlur stdDeviation="1.07647"/>
<feComposite in2="hardAlpha" operator="out"/>
<feColorMatrix type="matrix" values="0 0 0 0 0.152941 0 0 0 0 0.129412 0 0 0 0 0.168627 0 0 0 0.25 0"/>
<feBlend mode="normal" in2="BackgroundImageFix" result="effect1_dropShadow_2788_69811"/>
<feBlend mode="normal" in="SourceGraphic" in2="effect1_dropShadow_2788_69811" result="shape"/>
</filter>
<filter id="filter1_i_2788_69811" x="43" y="40" width="23" height="23.8" filterUnits="userSpaceOnUse" color-interpolation-filters="sRGB">
<feFlood flood-opacity="0" result="BackgroundImageFix"/>
<feBlend mode="normal" in="SourceGraphic" in2="BackgroundImageFix" result="shape"/>
<feColorMatrix in="SourceAlpha" type="matrix" values="0 0 0 0 0 0 0 0 0 0 0 0 0 0 0 0 0 0 127 0" result="hardAlpha"/>
<feOffset dy="1"/>
<feGaussianBlur stdDeviation="0.4"/>
<feComposite in2="hardAlpha" operator="arithmetic" k2="-1" k3="1"/>
<feColorMatrix type="matrix" values="0 0 0 0 0.286275 0 0 0 0 0.176471 0 0 0 0 0.227451 0 0 0 0.5 0"/>
<feBlend mode="normal" in2="shape" result="effect1_innerShadow_2788_69811"/>
</filter>
<linearGradient id="paint0_linear_2788_69811" x1="33.5785" y1="-1.386" x2="33.5785" y2="60.541" gradientUnits="userSpaceOnUse">
<stop offset="0.111577" stop-color="#36293B"/>
<stop offset="0.897208" stop-color="#81557E"/>
</linearGradient>
<radialGradient id="paint1_radial_2788_69811" cx="0" cy="0" r="1" gradientUnits="userSpaceOnUse" gradientTransform="translate(32.6308 7) rotate(90.0544) scale(48.2558 48.0811)">
<stop stop-color="#81557E"/>
<stop offset="1" stop-color="#36293B"/>
</radialGradient>
<linearGradient id="paint2_linear_2788_69811" x1="32.8355" y1="19.6963" x2="32.8356" y2="29.3848" gradientUnits="userSpaceOnUse">
<stop offset="0.111577" stop-color="#36293B"/>
<stop offset="0.897208" stop-color="#81557E"/>
</linearGradient>
<radialGradient id="paint3_radial_2788_69811" cx="0" cy="0" r="1" gradientUnits="userSpaceOnUse" gradientTransform="translate(56.0964 34.8115) rotate(90.0544) scale(48.2487 48.0816)">
<stop offset="0.141798" stop-color="#302634"/>
<stop offset="1" stop-color="#E35760"/>
</radialGradient>
<radialGradient id="paint4_radial_2788_69811" cx="0" cy="0" r="1" gradientUnits="userSpaceOnUse" gradientTransform="translate(54.8781 33.5937) rotate(90.0544) scale(48.2588 48.0816)">
<stop stop-color="#E35760"/>
<stop offset="1" stop-color="#302634"/>
</radialGradient>
<radialGradient id="paint5_radial_2788_69811" cx="0" cy="0" r="1" gradientUnits="userSpaceOnUse" gradientTransform="translate(65.9761 51.5735) rotate(-179.623) scale(22.9529 14.8424)">
<stop stop-color="#81557E"/>
<stop offset="1" stop-color="#36293B"/>
</radialGradient>
</defs>
</svg>
