<svg fill="none" height="88" viewBox="0 0 88 88" width="88" xmlns="http://www.w3.org/2000/svg" xmlns:xlink="http://www.w3.org/1999/xlink"><filter id="a" color-interpolation-filters="sRGB" filterUnits="userSpaceOnUse" height="19.9118" width="19.1118" x="34.4434" y="46.8188"><feFlood flood-opacity="0" result="BackgroundImageFix"/><feBlend in="SourceGraphic" in2="BackgroundImageFix" mode="normal" result="shape"/><feColorMatrix in="SourceAlpha" result="hardAlpha" type="matrix" values="0 0 0 0 0 0 0 0 0 0 0 0 0 0 0 0 0 0 127 0"/><feOffset dy="1"/><feGaussianBlur stdDeviation=".4"/><feComposite in2="hardAlpha" k2="-1" k3="1" operator="arithmetic"/><feColorMatrix type="matrix" values="0 0 0 0 0.286275 0 0 0 0 0.176471 0 0 0 0 0.227451 0 0 0 0.5 0"/><feBlend in2="shape" mode="normal" result="effect1_innerShadow_4170_6746"/></filter><filter id="b" color-interpolation-filters="sRGB" filterUnits="userSpaceOnUse" height="9.05" width="8.25" x="33" y="46.75"><feFlood flood-opacity="0" result="BackgroundImageFix"/><feBlend in="SourceGraphic" in2="BackgroundImageFix" mode="normal" result="shape"/><feColorMatrix in="SourceAlpha" result="hardAlpha" type="matrix" values="0 0 0 0 0 0 0 0 0 0 0 0 0 0 0 0 0 0 127 0"/><feOffset dy="1"/><feGaussianBlur stdDeviation=".4"/><feComposite in2="hardAlpha" k2="-1" k3="1" operator="arithmetic"/><feColorMatrix type="matrix" values="0 0 0 0 0.286275 0 0 0 0 0.176471 0 0 0 0 0.227451 0 0 0 0.5 0"/><feBlend in2="shape" mode="normal" result="effect1_innerShadow_4170_6746"/></filter><filter id="c" color-interpolation-filters="sRGB" filterUnits="userSpaceOnUse" height="9.05" width="8.25" x="45.375" y="57.75"><feFlood flood-opacity="0" result="BackgroundImageFix"/><feBlend in="SourceGraphic" in2="BackgroundImageFix" mode="normal" result="shape"/><feColorMatrix in="SourceAlpha" result="hardAlpha" type="matrix" values="0 0 0 0 0 0 0 0 0 0 0 0 0 0 0 0 0 0 127 0"/><feOffset dy="1"/><feGaussianBlur stdDeviation=".4"/><feComposite in2="hardAlpha" k2="-1" k3="1" operator="arithmetic"/><feColorMatrix type="matrix" values="0 0 0 0 0.286275 0 0 0 0 0.176471 0 0 0 0 0.227451 0 0 0 0.5 0"/><feBlend in2="shape" mode="normal" result="effect1_innerShadow_4170_6746"/></filter><linearGradient id="d"><stop offset="0" stop-color="#e35760"/><stop offset="1" stop-color="#302634"/></linearGradient><radialGradient id="e" cx="0" cy="0" gradientTransform="matrix(0 51.3516 -45.0403 0 44.0443 31.625)" gradientUnits="userSpaceOnUse" r="1" xlink:href="#d"/><radialGradient id="f" cx="0" cy="0" gradientTransform="matrix(0 -48.8125 42.8133 0 44 77)" gradientUnits="userSpaceOnUse" r="1"><stop offset=".161508" stop-color="#e35760"/><stop offset="1" stop-color="#302634"/></radialGradient><linearGradient id="g"><stop offset="0" stop-color="#81557e"/><stop offset="1" stop-color="#36293b"/></linearGradient><radialGradient id="h" cx="0" cy="0" gradientTransform="matrix(.0361241 -24.69877358 3.5493362 .00519121 53.5376 70.4041)" gradientUnits="userSpaceOnUse" r="1" xlink:href="#g"/><radialGradient id="i" cx="0" cy="0" gradientTransform="matrix(.05420132 -8.23293159 5.32379463 .03504908 37.0987 54.9914)" gradientUnits="userSpaceOnUse" r="1" xlink:href="#g"/><radialGradient id="j" cx="0" cy="0" gradientTransform="matrix(.05420132 -8.23293159 5.32379463 .03504908 49.4737 65.9914)" gradientUnits="userSpaceOnUse" r="1" xlink:href="#g"/><radialGradient id="k" cx="0" cy="0" gradientTransform="matrix(0 25.6758 -22.5202 0 44.0222 5.5)" gradientUnits="userSpaceOnUse" r="1" xlink:href="#d"/><linearGradient id="l"><stop offset="0" stop-color="#402b38"/><stop offset="1" stop-color="#dd565f"/></linearGradient><linearGradient id="m" gradientUnits="userSpaceOnUse" x1="44" x2="44" xlink:href="#l" y1="1.375" y2="32.3125"/><radialGradient id="n" cx="0" cy="0" gradientTransform="matrix(0 22.8229 -20.0179 0 20.6447 12.375)" gradientUnits="userSpaceOnUse" r="1" xlink:href="#d"/><linearGradient id="o" gradientUnits="userSpaceOnUse" x1="20.625" x2="20.625" xlink:href="#l" y1="8.70833" y2="36.2083"/><radialGradient id="p" cx="0" cy="0" gradientTransform="matrix(0 22.8229 -20.0179 0 67.3947 12.375)" gradientUnits="userSpaceOnUse" r="1" xlink:href="#d"/><linearGradient id="q" gradientUnits="userSpaceOnUse" x1="67.375" x2="67.375" xlink:href="#l" y1="8.70833" y2="36.2083"/><circle cx="44" cy="56.375" fill="url(#e)" r="24.75"/><circle cx="44" cy="56.375" fill="url(#f)" r="20.625"/><path clip-rule="evenodd" d="m64.6138 55.6875c.0074-.2282.0112-.4574.0112-.6875 0-11.3909-9.2341-20.625-20.625-20.625s-20.625 9.2341-20.625 20.625c0 .2301.0038.4593.0112.6875.3627-11.0726 9.453-19.9375 20.6138-19.9375s20.2511 8.8649 20.6138 19.9375z" fill="#fff" fill-opacity=".25" fill-rule="evenodd"/><g filter="url(#a)"><rect fill="url(#h)" height="24.75" rx="2.75" transform="matrix(.70710678 .70710678 -.70710678 .70710678 47.180995 -22.545398)" width="5.5" x="50.8052" y="45.6798"/></g><g filter="url(#b)"><path d="m41.25 50.875c0 2.2782-1.8468 4.125-4.125 4.125s-4.125-1.8468-4.125-4.125 1.8468-4.125 4.125-4.125 4.125 1.8468 4.125 4.125zm-5.5176 0c0 .7691.6235 1.3926 1.3926 1.3926s1.3926-.6235 1.3926-1.3926-.6235-1.3926-1.3926-1.3926-1.3926.6235-1.3926 1.3926z" fill="url(#i)"/></g><g filter="url(#c)"><path d="m53.625 61.875c0 2.2782-1.8468 4.125-4.125 4.125s-4.125-1.8468-4.125-4.125 1.8468-4.125 4.125-4.125 4.125 1.8468 4.125 4.125zm-5.5176 0c0 .7691.6235 1.3926 1.3926 1.3926s1.3926-.6235 1.3926-1.3926-.6235-1.3926-1.3926-1.3926-1.3926.6235-1.3926 1.3926z" fill="url(#j)"/></g><g stroke-width=".5"><path d="m43.8573 6.74807c.0449-.13819.2405-.13819.2854 0l2.3081 7.10373c.087.2678.3366.4491.6182.4491h7.4693c.1453 0 .2057.186.0881.2714l-6.0427 4.3903c-.2279.1655-.3232.4589-.2362.7267l2.3082 7.1037c.0449.1382-.1133.2531-.2309.1677l-6.0427-4.3903c-.2279-.1655-.5363-.1655-.7642 0l-6.0427 4.3903c-.1176.0854-.2758-.0295-.2309-.1677l2.3082-7.1037c.087-.2678-.0083-.5612-.2362-.7267l-6.0427-4.3903c-.1176-.0854-.0572-.2714.0881-.2714h7.4693c.2816 0 .5312-.1813.6182-.4491z" fill="url(#k)" stroke="url(#m)"/><path d="m20.4823 13.6231c.0449-.1382.2405-.1382.2854 0l1.9994 6.1536c.087.2678.3366.4491.6182.4491h6.4702c.1454 0 .2058.186.0882.2714l-5.2345 3.8031c-.2279.1655-.3232.4589-.2362.7267l1.9995 6.1536c.0449.1382-.1133.2531-.2309.1677l-5.2345-3.8031c-.2279-.1655-.5363-.1655-.7642 0l-5.2345 3.8031c-.1176.0854-.2758-.0295-.2309-.1677l1.9995-6.1536c.087-.2678-.0083-.5612-.2362-.7267l-5.2345-3.8031c-.1176-.0854-.0572-.2714.0882-.2714h6.4702c.2816 0 .5312-.1813.6182-.4491z" fill="url(#n)" stroke="url(#o)"/><path d="m67.2323 13.6231c.0449-.1382.2405-.1382.2854 0l1.9994 6.1536c.087.2678.3366.4491.6182.4491h6.4702c.1454 0 .2058.186.0882.2714l-5.2345 3.8031c-.2279.1655-.3232.4589-.2362.7267l1.9995 6.1536c.0449.1382-.1133.2531-.2309.1677l-5.2345-3.8031c-.2279-.1655-.5363-.1655-.7642 0l-5.2345 3.8031c-.1176.0854-.2758-.0295-.2309-.1677l1.9995-6.1536c.087-.2678-.0083-.5612-.2362-.7267l-5.2345-3.8031c-.1176-.0854-.0572-.2714.0882-.2714h6.4702c.2816 0 .5312-.1813.6182-.4491z" fill="url(#p)" stroke="url(#q)"/></g></svg>