<svg width="88" height="88" viewBox="0 0 88 88" fill="none" xmlns="http://www.w3.org/2000/svg">
<g id="Rates">
<g id="Group 9713238">
<path id="Union" fill-rule="evenodd" clip-rule="evenodd" d="M54.8555 31.248C54.8555 29.7683 55.1469 28.3031 55.7132 26.9361C56.2794 25.5691 57.1094 24.3269 58.1557 23.2806C59.2019 22.2344 60.4441 21.4044 61.8111 20.8382C63.1782 20.2719 64.6433 19.9805 66.123 19.9805C67.6027 19.9805 69.0679 20.2719 70.4349 20.8382C71.802 21.4044 73.0441 22.2344 74.0904 23.2807C75.1367 24.327 75.9666 25.5691 76.5329 26.9361C77.0364 28.1517 77.3226 29.4449 77.3798 30.7568H77.3912V37.1254H73.9619V30.7568H73.995C73.9408 29.8891 73.7435 29.035 73.4099 28.2297C73.0135 27.2728 72.4326 26.4033 71.7002 25.6709C70.9678 24.9385 70.0983 24.3575 69.1413 23.9611C68.1844 23.5647 67.1588 23.3607 66.123 23.3607C65.0872 23.3607 64.0616 23.5647 63.1047 23.9611C62.1477 24.3575 61.2783 24.9385 60.5459 25.6709C59.8135 26.4033 59.2325 27.2727 58.8361 28.2297C58.4399 29.1862 58.2359 30.2115 58.2357 31.2468H58.2848V37.6154H54.8556V31.248H54.8555Z" fill="url(#paint0_linear_2788_70082)"/>
<path id="Union_2" fill-rule="evenodd" clip-rule="evenodd" d="M52.9004 30.2675V30.2666C52.9005 28.7872 53.192 27.3224 53.7581 25.9556C54.3243 24.5886 55.1543 23.3465 56.2006 22.3002C57.2469 21.2539 58.489 20.4239 59.856 19.8577C61.2231 19.2914 62.6883 19 64.1679 19C65.6476 19 67.1128 19.2914 68.4798 19.8577C69.8469 20.4239 71.089 21.2539 72.1353 22.3002C73.1816 23.3465 74.0115 24.5886 74.5778 25.9557C75.0814 27.1715 75.3676 28.465 75.4248 29.7773H75.4351V30.1786C75.4353 30.2082 75.4355 30.2379 75.4355 30.2676H75.4351V36.146H72.0059V29.7773H72.04C71.9859 28.9092 71.7885 28.0549 71.4548 27.2492C71.0584 26.2923 70.4775 25.4228 69.7451 24.6904C69.0127 23.958 68.1432 23.377 67.1863 22.9806C66.2293 22.5843 65.2037 22.3803 64.1679 22.3803C63.1322 22.3803 62.1065 22.5843 61.1496 22.9806C60.1927 23.377 59.3232 23.958 58.5908 24.6904C57.8584 25.4228 57.2774 26.2923 56.881 27.2492C56.4848 28.2058 56.2808 29.2311 56.2807 30.2666H56.3296V36.6352H52.9004V30.2675Z" fill="url(#paint1_linear_2788_70082)"/>
<g id="Subtract" filter="url(#filter0_f_2788_70082)">
<path fill-rule="evenodd" clip-rule="evenodd" d="M53.8789 36.6358V37.6179H56.8183V30.7594H56.7265C56.7812 29.8194 56.993 28.894 57.3542 28.0219C57.7781 26.9987 58.3994 26.0689 59.1825 25.2857C59.9657 24.5025 60.8955 23.8812 61.9188 23.4574C62.9421 23.0335 64.0388 22.8154 65.1464 22.8154C66.0052 22.8154 66.8575 22.9465 67.6741 23.203C67.5143 23.1237 67.3516 23.0497 67.1863 22.9812C66.2293 22.5849 65.2037 22.3809 64.1679 22.3809C63.1322 22.3809 62.1065 22.5849 61.1496 22.9812C60.1927 23.3776 59.3232 23.9586 58.5908 24.691C57.8584 25.4234 57.2774 26.2929 56.881 27.2498C56.4848 28.2064 56.2808 29.2317 56.2807 30.2672H56.3296V36.6358H53.8789ZM72.9854 36.1465V37.128H76.4146V30.7594H76.4033C76.3462 29.4471 76.0599 28.1536 75.5563 26.9377C74.99 25.5707 74.1601 24.3285 73.1138 23.2822C72.9541 23.1226 72.7899 22.9679 72.6213 22.8185C73.4408 23.7483 74.1023 24.8082 74.5778 25.9562C75.0814 27.1721 75.3676 28.4656 75.4248 29.7779H75.4351V30.1792C75.4353 30.2088 75.4355 30.2385 75.4355 30.2682H75.4351V36.1465H72.9854Z" fill="white" fill-opacity="0.25"/>
</g>
<path id="Rectangle 2256" d="M50.5282 41.0421C50.7676 39.0475 52.3763 37.4961 54.3783 37.3292L73.7561 35.7144C74.2184 35.6759 74.6838 35.7137 75.1338 35.8262L79.0872 36.8145C80.971 37.2854 82.2925 38.978 82.2925 40.9198V64.7373C82.2925 67.0744 80.3979 68.969 78.0609 68.969H53.7297C52.0369 68.969 50.507 67.9602 49.8402 66.4042L48.4473 63.1542C48.1543 62.4705 48.0467 61.7216 48.1353 60.983L50.5282 41.0421Z" fill="url(#paint2_linear_2788_70082)"/>
<rect id="Rectangle 2255" x="48" y="35.6562" width="31.3531" height="31.3531" rx="4.23164" fill="url(#paint3_linear_2788_70082)"/>
<g id="Subtract_2" filter="url(#filter1_f_2788_70082)">
<path fill-rule="evenodd" clip-rule="evenodd" d="M48.7812 65.2281C49.5482 66.3062 50.8078 67.0094 52.2316 67.0094H75.1215C77.4586 67.0094 79.3531 65.1148 79.3531 62.7778V39.8879C79.3531 38.4641 78.6499 37.2045 77.5719 36.4375C78.0638 37.129 78.3531 37.9746 78.3531 38.8879V61.7778C78.3531 64.1148 76.4586 66.0094 74.1215 66.0094H51.2316C50.3184 66.0094 49.4727 65.7201 48.7812 65.2281Z" fill="white" fill-opacity="0.25"/>
</g>
<path id="Union_3" fill-rule="evenodd" clip-rule="evenodd" d="M65.6359 52.3131C65.6359 52.1856 65.7122 52.0672 65.8321 52.0237C67.4416 51.4397 68.5759 50.0345 68.5759 48.3938C68.5759 46.2293 66.6019 44.4746 64.1668 44.4746C61.7318 44.4746 59.7578 46.2293 59.7578 48.3938C59.7578 49.5845 60.3552 50.6512 61.2982 51.37C61.5828 51.587 61.7168 51.9552 61.7168 52.3131V57.212C61.7168 58.2943 62.5941 59.1716 63.6764 59.1716C64.7586 59.1716 65.6359 58.2943 65.6359 57.212V52.3131Z" fill="url(#paint4_linear_2788_70082)"/>
<path id="Union_4" fill-rule="evenodd" clip-rule="evenodd" d="M66.6145 53.2916C66.6145 53.0009 66.734 52.7091 66.9686 52.5373C67.9423 51.8242 68.5746 50.6726 68.5746 49.3732C68.5746 47.2088 66.82 45.4541 64.6555 45.4541C62.491 45.4541 60.7363 47.2088 60.7363 49.3732C60.7363 50.672 61.368 51.8231 62.3409 52.5363C62.5757 52.7083 62.6953 53.0005 62.6953 53.2916V57.2107C62.6953 58.293 63.5726 59.1703 64.6549 59.1703C65.7371 59.1703 66.6145 58.293 66.6145 57.2107V53.2916Z" fill="#4A2E48"/>
</g>
<g id="Group 9713243">
<g id="Group 9713241">
<path id="Vector" d="M34.8115 42.6361C32.0071 42.6361 29.2047 41.2556 27.0695 38.4919L22.6789 32.8092C19.8686 29.1718 15.295 29.1718 12.4847 32.8092L8.19256 38.3645C7.46244 39.3095 6.27968 39.3095 5.54759 38.3645C4.81747 37.4195 4.81747 35.8861 5.54759 34.9411L9.83977 29.3858C14.1083 23.861 21.0553 23.861 25.3219 29.3858L29.7125 35.0685C32.5228 38.7059 37.0963 38.7059 39.9066 35.0685L42.8074 31.314C43.5376 30.369 44.7203 30.369 45.4524 31.314C46.1825 32.259 46.1825 33.7898 45.4524 34.7374L42.5516 38.4919C40.4183 41.2556 37.6159 42.6361 34.8115 42.6361Z" fill="url(#paint5_radial_2788_70082)"/>
<path id="Vector_2" d="M34.8115 41.3939C32.0071 41.3939 29.2047 40.0134 27.0695 37.2497L22.6789 31.567C19.8686 27.9296 15.295 27.9296 12.4847 31.567L8.19256 37.1223C7.46244 38.0673 6.27968 38.0673 5.54759 37.1223C4.81747 36.1773 4.81747 34.644 5.54759 33.699L9.83977 28.1436C14.1083 22.6188 21.0553 22.6188 25.3219 28.1436L29.7125 33.8263C32.5228 37.4637 37.0963 37.4637 39.9066 33.8263L42.8074 30.0718C43.5376 29.1268 44.7203 29.1268 45.4524 30.0718C46.1825 31.0168 46.1825 32.5476 45.4524 33.4952L42.5516 37.2497C40.4183 40.0134 37.6159 41.3939 34.8115 41.3939Z" fill="url(#paint6_radial_2788_70082)"/>
<g id="Subtract_3" filter="url(#filter2_f_2788_70082)">
<path fill-rule="evenodd" clip-rule="evenodd" d="M27.0695 36.0074C29.2047 38.7711 32.0071 40.1516 34.8115 40.1516C37.6159 40.1516 40.4183 38.7711 42.5516 36.0074L45.4524 32.2529C45.6943 31.9389 45.8561 31.5609 45.9377 31.1614C46.1024 31.9671 45.9406 32.8615 45.4524 33.4951L42.5516 37.2496C40.4183 40.0132 37.6159 41.3938 34.8115 41.3938C32.0071 41.3938 29.2047 40.0132 27.0695 37.2496L22.6789 31.5668C19.8686 27.9295 15.295 27.9295 12.4847 31.5668L8.19256 37.1222C7.46244 38.0672 6.27968 38.0672 5.54759 37.1222C5.05945 36.4904 4.89766 35.5956 5.06225 34.7894C5.14384 35.189 5.30562 35.5669 5.54759 35.8801C6.27968 36.8251 7.46244 36.8251 8.19256 35.8801L12.4847 30.3247C15.295 26.6873 19.8686 26.6873 22.6789 30.3247L27.0695 36.0074Z" fill="white" fill-opacity="0.25"/>
</g>
</g>
<g id="Group 9713242">
<path id="Vector_3" d="M34.8115 55.0609C32.0071 55.0609 29.2047 53.6804 27.0695 50.9167L22.6789 45.234C19.8686 41.5966 15.295 41.5966 12.4847 45.234L8.19256 50.7893C7.46244 51.7343 6.27968 51.7343 5.54759 50.7893C4.81747 49.8443 4.81747 48.3109 5.54759 47.366L9.83977 41.8106C14.1083 36.2858 21.0553 36.2858 25.3219 41.8106L29.7125 47.4933C32.5228 51.1307 37.0963 51.1307 39.9066 47.4933L42.8074 43.7388C43.5376 42.7938 44.7203 42.7938 45.4524 43.7388C46.1825 44.6838 46.1825 46.2146 45.4524 47.1622L42.5516 50.9167C40.4183 53.6804 37.6159 55.0609 34.8115 55.0609Z" fill="url(#paint7_radial_2788_70082)"/>
<path id="Vector_4" d="M34.8115 53.8187C32.0071 53.8187 29.2047 52.4382 27.0695 49.6745L22.6789 43.9918C19.8686 40.3544 15.295 40.3544 12.4847 43.9918L8.19256 49.5472C7.46244 50.4921 6.27968 50.4921 5.54759 49.5472C4.81747 48.6022 4.81747 47.0688 5.54759 46.1238L9.83977 40.5684C14.1083 35.0436 21.0553 35.0436 25.3219 40.5684L29.7125 46.2511C32.5228 49.8885 37.0963 49.8885 39.9066 46.2511L42.8074 42.4966C43.5376 41.5516 44.7203 41.5516 45.4524 42.4966C46.1825 43.4416 46.1825 44.9724 45.4524 45.92L42.5516 49.6745C40.4183 52.4382 37.6159 53.8187 34.8115 53.8187Z" fill="url(#paint8_radial_2788_70082)"/>
<g id="Subtract_4" filter="url(#filter3_f_2788_70082)">
<path fill-rule="evenodd" clip-rule="evenodd" d="M27.0695 48.4322C29.2047 51.1959 32.0071 52.5765 34.8115 52.5765C37.6159 52.5765 40.4183 51.1959 42.5516 48.4322L45.4524 44.6777C45.6943 44.3638 45.8561 43.9858 45.9377 43.5864C46.1024 44.3921 45.9406 45.2865 45.4524 45.9201L42.5516 49.6746C40.4183 52.4383 37.6159 53.8189 34.8115 53.8189C32.0071 53.8189 29.2047 52.4383 27.0695 49.6746L22.6789 43.9919C19.8686 40.3546 15.295 40.3546 12.4847 43.9919L8.19256 49.5473C7.46244 50.4923 6.27968 50.4923 5.54759 49.5473C5.05942 48.9154 4.89765 48.0206 5.06228 47.2144C5.14387 47.6139 5.30564 47.9917 5.54759 48.3049C6.27968 49.2499 7.46244 49.2499 8.19256 48.3049L12.4847 42.7495C15.295 39.1121 19.8686 39.1121 22.6789 42.7495L27.0695 48.4322Z" fill="white" fill-opacity="0.25"/>
</g>
</g>
<g id="Group 9713243_2">
<path id="Vector_5" d="M34.8115 67.0609C32.0071 67.0609 29.2047 65.6804 27.0695 62.9167L22.6789 57.234C19.8686 53.5966 15.295 53.5966 12.4847 57.234L8.19256 62.7893C7.46244 63.7343 6.27968 63.7343 5.54759 62.7893C4.81747 61.8443 4.81747 60.3109 5.54759 59.366L9.83977 53.8106C14.1083 48.2858 21.0553 48.2858 25.3219 53.8106L29.7125 59.4933C32.5228 63.1307 37.0963 63.1307 39.9066 59.4933L42.8074 55.7388C43.5376 54.7938 44.7203 54.7938 45.4524 55.7388C46.1825 56.6838 46.1825 58.2146 45.4524 59.1622L42.5516 62.9167C40.4183 65.6804 37.6159 67.0609 34.8115 67.0609Z" fill="url(#paint9_radial_2788_70082)"/>
<path id="Vector_6" d="M34.8115 65.8187C32.0071 65.8187 29.2047 64.4382 27.0695 61.6745L22.6789 55.9918C19.8686 52.3544 15.295 52.3544 12.4847 55.9918L8.19256 61.5472C7.46244 62.4921 6.27968 62.4921 5.54759 61.5472C4.81747 60.6022 4.81747 59.0688 5.54759 58.1238L9.83977 52.5684C14.1083 47.0436 21.0553 47.0436 25.3219 52.5684L29.7125 58.2511C32.5228 61.8885 37.0963 61.8885 39.9066 58.2511L42.8074 54.4966C43.5376 53.5516 44.7203 53.5516 45.4524 54.4966C46.1825 55.4416 46.1825 56.9724 45.4524 57.92L42.5516 61.6745C40.4183 64.4382 37.6159 65.8187 34.8115 65.8187Z" fill="url(#paint10_radial_2788_70082)"/>
<g id="Subtract_5" filter="url(#filter4_f_2788_70082)">
<path fill-rule="evenodd" clip-rule="evenodd" d="M27.0695 60.4322C29.2047 63.1959 32.0071 64.5765 34.8115 64.5765C37.6159 64.5765 40.4183 63.1959 42.5516 60.4322L45.4524 56.6777C45.6943 56.3638 45.8561 55.9858 45.9377 55.5864C46.1024 56.3921 45.9406 57.2865 45.4524 57.9201L42.5516 61.6746C40.4183 64.4383 37.6159 65.8189 34.8115 65.8189C32.0071 65.8189 29.2047 64.4383 27.0695 61.6746L22.6789 55.9919C19.8686 52.3546 15.295 52.3546 12.4847 55.9919L8.19256 61.5473C7.46244 62.4923 6.27968 62.4923 5.54759 61.5473C5.05942 60.9154 4.89765 60.0206 5.06228 59.2144C5.14387 59.6139 5.30564 59.9917 5.54759 60.3049C6.27968 61.2499 7.46244 61.2499 8.19256 60.3049L12.4847 54.7495C15.295 51.1121 19.8686 51.1121 22.6789 54.7495L27.0695 60.4322Z" fill="white" fill-opacity="0.25"/>
</g>
</g>
</g>
</g>
<defs>
<filter id="filter0_f_2788_70082" x="53.5968" y="22.0988" width="23.1004" height="15.8015" filterUnits="userSpaceOnUse" color-interpolation-filters="sRGB">
<feFlood flood-opacity="0" result="BackgroundImageFix"/>
<feBlend mode="normal" in="SourceGraphic" in2="BackgroundImageFix" result="shape"/>
<feGaussianBlur stdDeviation="0.141055" result="effect1_foregroundBlur_2788_70082"/>
</filter>
<filter id="filter1_f_2788_70082" x="48.2812" y="35.9375" width="31.5723" height="31.5723" filterUnits="userSpaceOnUse" color-interpolation-filters="sRGB">
<feFlood flood-opacity="0" result="BackgroundImageFix"/>
<feBlend mode="normal" in="SourceGraphic" in2="BackgroundImageFix" result="shape"/>
<feGaussianBlur stdDeviation="0.25" result="effect1_foregroundBlur_2788_70082"/>
</filter>
<filter id="filter2_f_2788_70082" x="4.5" y="27.0967" width="42" height="14.7969" filterUnits="userSpaceOnUse" color-interpolation-filters="sRGB">
<feFlood flood-opacity="0" result="BackgroundImageFix"/>
<feBlend mode="normal" in="SourceGraphic" in2="BackgroundImageFix" result="shape"/>
<feGaussianBlur stdDeviation="0.25" result="effect1_foregroundBlur_2788_70082"/>
</filter>
<filter id="filter3_f_2788_70082" x="4.5" y="39.5215" width="42" height="14.7979" filterUnits="userSpaceOnUse" color-interpolation-filters="sRGB">
<feFlood flood-opacity="0" result="BackgroundImageFix"/>
<feBlend mode="normal" in="SourceGraphic" in2="BackgroundImageFix" result="shape"/>
<feGaussianBlur stdDeviation="0.25" result="effect1_foregroundBlur_2788_70082"/>
</filter>
<filter id="filter4_f_2788_70082" x="4.5" y="51.5215" width="42" height="14.7979" filterUnits="userSpaceOnUse" color-interpolation-filters="sRGB">
<feFlood flood-opacity="0" result="BackgroundImageFix"/>
<feBlend mode="normal" in="SourceGraphic" in2="BackgroundImageFix" result="shape"/>
<feGaussianBlur stdDeviation="0.25" result="effect1_foregroundBlur_2788_70082"/>
</filter>
<linearGradient id="paint0_linear_2788_70082" x1="67.0891" y1="11.4223" x2="67.0891" y2="40.7275" gradientUnits="userSpaceOnUse">
<stop stop-color="#81557E"/>
<stop offset="1" stop-color="#36293B"/>
</linearGradient>
<linearGradient id="paint1_linear_2788_70082" x1="64.3333" y1="15.829" x2="64.3333" y2="39.2017" gradientUnits="userSpaceOnUse">
<stop offset="0.111577" stop-color="#36293B"/>
<stop offset="0.897208" stop-color="#81557E"/>
</linearGradient>
<linearGradient id="paint2_linear_2788_70082" x1="66.6159" y1="19.4898" x2="66.616" y2="74.8477" gradientUnits="userSpaceOnUse">
<stop stop-color="#81557E"/>
<stop offset="1" stop-color="#36293B"/>
</linearGradient>
<linearGradient id="paint3_linear_2788_70082" x1="63.9066" y1="30.0187" x2="63.9066" y2="71.5723" gradientUnits="userSpaceOnUse">
<stop offset="0.111577" stop-color="#36293B"/>
<stop offset="0.897208" stop-color="#81557E"/>
</linearGradient>
<linearGradient id="paint4_linear_2788_70082" x1="64.1668" y1="32.2271" x2="64.0129" y2="61.7652" gradientUnits="userSpaceOnUse">
<stop stop-color="#81557E"/>
<stop offset="0.33457" stop-color="#36293B"/>
</linearGradient>
<radialGradient id="paint5_radial_2788_70082" cx="0" cy="0" r="1" gradientUnits="userSpaceOnUse" gradientTransform="translate(25.5367 25.2422) rotate(90.1152) scale(18.2647 38.5251)">
<stop stop-color="#E35760"/>
<stop offset="1" stop-color="#302634"/>
</radialGradient>
<radialGradient id="paint6_radial_2788_70082" cx="0" cy="0" r="1" gradientUnits="userSpaceOnUse" gradientTransform="translate(25.5367 24) rotate(90.1152) scale(18.2647 38.5251)">
<stop stop-color="#E35760"/>
<stop offset="1" stop-color="#302634"/>
</radialGradient>
<radialGradient id="paint7_radial_2788_70082" cx="0" cy="0" r="1" gradientUnits="userSpaceOnUse" gradientTransform="translate(25.5367 37.667) rotate(90.1152) scale(18.2647 38.5251)">
<stop stop-color="#E35760"/>
<stop offset="1" stop-color="#302634"/>
</radialGradient>
<radialGradient id="paint8_radial_2788_70082" cx="0" cy="0" r="1" gradientUnits="userSpaceOnUse" gradientTransform="translate(25.5367 36.4248) rotate(90.1152) scale(18.2647 38.5251)">
<stop stop-color="#E35760"/>
<stop offset="1" stop-color="#302634"/>
</radialGradient>
<radialGradient id="paint9_radial_2788_70082" cx="0" cy="0" r="1" gradientUnits="userSpaceOnUse" gradientTransform="translate(25.5367 49.667) rotate(90.1152) scale(18.2647 38.5251)">
<stop stop-color="#E35760"/>
<stop offset="1" stop-color="#302634"/>
</radialGradient>
<radialGradient id="paint10_radial_2788_70082" cx="0" cy="0" r="1" gradientUnits="userSpaceOnUse" gradientTransform="translate(25.5367 48.4248) rotate(90.1152) scale(18.2647 38.5251)">
<stop stop-color="#E35760"/>
<stop offset="1" stop-color="#302634"/>
</radialGradient>
</defs>
</svg>
