<svg fill="none" height="88" viewBox="0 0 88 88" width="88" xmlns="http://www.w3.org/2000/svg" xmlns:xlink="http://www.w3.org/1999/xlink"><filter id="a" color-interpolation-filters="sRGB" filterUnits="userSpaceOnUse" height="15.8009" width="23.0998" x="53.5971" y="22.0986"><feFlood flood-opacity="0" result="BackgroundImageFix"/><feBlend in="SourceGraphic" in2="BackgroundImageFix" mode="normal" result="shape"/><feGaussianBlur result="effect1_foregroundBlur_4170_6852" stdDeviation=".141055"/></filter><filter id="b" color-interpolation-filters="sRGB" filterUnits="userSpaceOnUse" height="31.5719" width="31.5719" x="48.2812" y="35.9375"><feFlood flood-opacity="0" result="BackgroundImageFix"/><feBlend in="SourceGraphic" in2="BackgroundImageFix" mode="normal" result="shape"/><feGaussianBlur result="effect1_foregroundBlur_4170_6852" stdDeviation=".25"/></filter><filter id="c" color-interpolation-filters="sRGB" filterUnits="userSpaceOnUse" height="14.7974" width="42" x="4.5" y="27.0962"><feFlood flood-opacity="0" result="BackgroundImageFix"/><feBlend in="SourceGraphic" in2="BackgroundImageFix" mode="normal" result="shape"/><feGaussianBlur result="effect1_foregroundBlur_4170_6852" stdDeviation=".25"/></filter><filter id="d" color-interpolation-filters="sRGB" filterUnits="userSpaceOnUse" height="14.7974" width="42" x="4.5" y="39.5211"><feFlood flood-opacity="0" result="BackgroundImageFix"/><feBlend in="SourceGraphic" in2="BackgroundImageFix" mode="normal" result="shape"/><feGaussianBlur result="effect1_foregroundBlur_4170_6852" stdDeviation=".25"/></filter><filter id="e" color-interpolation-filters="sRGB" filterUnits="userSpaceOnUse" height="14.7974" width="42" x="4.5" y="51.5212"><feFlood flood-opacity="0" result="BackgroundImageFix"/><feBlend in="SourceGraphic" in2="BackgroundImageFix" mode="normal" result="shape"/><feGaussianBlur result="effect1_foregroundBlur_4170_6852" stdDeviation=".25"/></filter><linearGradient id="f"><stop offset="0" stop-color="#81557e"/><stop offset="1" stop-color="#36293b"/></linearGradient><linearGradient id="g" gradientUnits="userSpaceOnUse" x1="67.0896" x2="67.0896" xlink:href="#f" y1="11.4221" y2="40.7272"/><linearGradient id="h"><stop offset=".111577" stop-color="#36293b"/><stop offset=".897208" stop-color="#81557e"/></linearGradient><linearGradient id="i" gradientUnits="userSpaceOnUse" x1="64.3334" x2="64.3334" xlink:href="#h" y1="15.829" y2="39.2017"/><linearGradient id="j" gradientUnits="userSpaceOnUse" x1="66.6159" x2="66.616" xlink:href="#f" y1="19.4898" y2="74.8477"/><linearGradient id="k" gradientUnits="userSpaceOnUse" x1="63.9066" x2="63.9066" xlink:href="#h" y1="30.0187" y2="71.5723"/><linearGradient id="l" gradientUnits="userSpaceOnUse" x1="64.1664" x2="64.0125" y1="32.2265" y2="61.7652"><stop offset="0" stop-color="#81557e"/><stop offset=".33457" stop-color="#36293b"/></linearGradient><linearGradient id="m"><stop offset="0" stop-color="#e35760"/><stop offset="1" stop-color="#302634"/></linearGradient><radialGradient id="n" cx="0" cy="0" gradientTransform="matrix(-.03672333 18.26466308 -38.52502213 -.07745926 25.5367 25.2424)" gradientUnits="userSpaceOnUse" r="1" xlink:href="#m"/><radialGradient id="o" cx="0" cy="0" gradientTransform="matrix(-.03672333 18.26466308 -38.52502213 -.07745926 25.5367 24)" gradientUnits="userSpaceOnUse" r="1" xlink:href="#m"/><radialGradient id="p" cx="0" cy="0" gradientTransform="matrix(-.03672333 18.26466308 -38.52502213 -.07745926 25.5367 37.6671)" gradientUnits="userSpaceOnUse" r="1" xlink:href="#m"/><radialGradient id="q" cx="0" cy="0" gradientTransform="matrix(-.03672333 18.26466308 -38.52502213 -.07745926 25.5367 36.4247)" gradientUnits="userSpaceOnUse" r="1" xlink:href="#m"/><radialGradient id="r" cx="0" cy="0" gradientTransform="matrix(-.03672333 18.26466308 -38.52502213 -.07745926 25.5367 49.6672)" gradientUnits="userSpaceOnUse" r="1" xlink:href="#m"/><radialGradient id="s" cx="0" cy="0" gradientTransform="matrix(-.03672333 18.26466308 -38.52502213 -.07745926 25.5367 48.4248)" gradientUnits="userSpaceOnUse" r="1" xlink:href="#m"/><path clip-rule="evenodd" d="m54.8559 31.2478c0-1.4797.2915-2.9449.8577-4.3119.5663-1.3671 1.3962-2.6092 2.4425-3.6555s2.2884-1.8762 3.6555-2.4425c1.367-.5662 2.8322-.8577 4.3119-.8577 1.4796 0 2.9448.2915 4.3119.8577 1.367.5663 2.6091 1.3962 3.6554 2.4425s1.8763 2.2884 2.4425 3.6555c.5036 1.2157.7898 2.509.847 3.8212h.0113v6.3686h-3.4292v-6.3686h.0331c-.0541-.868-.2515-1.7222-.5851-2.5277-.3964-.9569-.9774-1.8264-1.7098-2.5588s-1.6019-1.3134-2.5588-1.7097c-.9569-.3964-1.9826-.6004-3.0183-.6004-1.0358 0-2.0614.204-3.0184.6004-.9569.3963-1.8264.9773-2.5588 1.7097s-1.3134 1.6019-1.7097 2.5588c-.3963.9566-.6003 1.9818-.6004 3.0172h.0491v6.3686h-3.4293v-6.3674z" fill="url(#g)" fill-rule="evenodd"/><path clip-rule="evenodd" d="m52.9005 30.2675v-.0009c.0002-1.4794.2916-2.9442.8577-4.311.5663-1.367 1.3962-2.6091 2.4425-3.6554s2.2884-1.8763 3.6555-2.4425c1.367-.5663 2.8322-.8577 4.3119-.8577s2.9448.2914 4.3119.8577c1.367.5662 2.6092 1.3962 3.6554 2.4425 1.0463 1.0463 1.8763 2.2884 2.4425 3.6555.5036 1.2157.7899 2.5091.847 3.8213h.01v.3684c.0005.0407.0007.0814.0007.1222h-.0007v5.878h-3.4292v-6.3686h.0344c-.0541-.868-.2515-1.7222-.5851-2.5278-.3964-.9569-.9774-1.8264-1.7098-2.5588s-1.6019-1.3134-2.5588-1.7098c-.9569-.3963-1.9825-.6003-3.0183-.6003s-2.0614.204-3.0183.6003c-.957.3964-1.8265.9774-2.5589 1.7098s-1.3133 1.6019-1.7097 2.5588c-.3963.9566-.6003 1.9819-.6004 3.0174h.049v6.3686h-3.4293z" fill="url(#i)" fill-rule="evenodd"/><g filter="url(#a)"><path clip-rule="evenodd" d="m53.8792 36.6356v.9819h2.9394v-6.8585h-.0918c.0548-.9399.2666-1.8652.6278-2.7372.4238-1.0233 1.0451-1.953 1.8283-2.7362s1.713-1.4045 2.7363-1.8283c1.0232-.4239 2.12-.6421 3.2276-.6421.8586 0 1.7107.1311 2.5271.3875-.1597-.0792-.3223-.1531-.4875-.2216-.957-.3964-1.9826-.6004-3.0184-.6004-1.0357 0-2.0614.204-3.0183.6004s-1.8264.9774-2.5588 1.7098-1.3134 1.6019-1.7098 2.5588c-.3962.9566-.6002 1.9819-.6003 3.0173h.049v6.3686zm19.1064-.4895v.9815h3.4292v-6.3686h-.0112c-.0571-1.3122-.3434-2.6056-.847-3.8214-.5662-1.3671-1.3962-2.6092-2.4425-3.6555-.1599-.16-.3245-.3149-.4934-.4646.8197.93 1.4815 1.9902 1.9572 3.1386.5036 1.2158.7898 2.5092.847 3.8214h.01v.3684c.0005.0407.0007.0814.0007.1221h-.0007v5.8781z" fill="#fff" fill-opacity=".25" fill-rule="evenodd"/></g><path d="m50.5282 41.0421c.2394-1.9946 1.8481-3.546 3.8501-3.7129l19.3778-1.6148c.4623-.0385.9277-.0007 1.3777.1118l3.9534.9883c1.8838.4709 3.2053 2.1635 3.2053 4.1053v23.8175c0 2.3371-1.8946 4.2317-4.2316 4.2317h-24.3312c-1.6928 0-3.2227-1.0088-3.8895-2.5648l-1.3929-3.25c-.293-.6837-.4006-1.4326-.312-2.1712z" fill="url(#j)"/><rect fill="url(#k)" height="31.3531" rx="4.23164" width="31.3531" x="48" y="35.6562"/><g filter="url(#b)"><path clip-rule="evenodd" d="m48.7812 65.2281c.767 1.0781 2.0266 1.7813 3.4504 1.7813h22.8899c2.3371 0 4.2316-1.8946 4.2316-4.2316v-22.8899c0-1.4238-.7032-2.6834-1.7812-3.4504.4919.6915.7812 1.5371.7812 2.4504v22.8899c0 2.337-1.8945 4.2316-4.2316 4.2316h-22.8899c-.9132 0-1.7589-.2893-2.4504-.7813z" fill="#fff" fill-opacity=".25" fill-rule="evenodd"/></g><path clip-rule="evenodd" d="m65.6359 52.3131c0-.1278.0764-.2464.1965-.29 1.6091-.5842 2.7431-1.9892 2.7431-3.6297 0-2.1645-1.974-3.9192-4.4091-3.9192-2.435 0-4.409 1.7547-4.409 3.9192 0 1.1909.5975 2.2577 1.5407 2.9765.2846.2169.4186.5852.4186.9432v4.8989c0 1.0822.8774 1.9596 1.9596 1.9596s1.9596-.8774 1.9596-1.9596z" fill="url(#l)" fill-rule="evenodd"/><path clip-rule="evenodd" d="m66.6145 53.292c0-.2909.1197-.5829.3543-.7548.9734-.7131 1.6055-1.8646 1.6055-3.1637 0-2.1645-1.7546-3.9192-3.9191-3.9192s-3.9191 1.7547-3.9191 3.9192c0 1.2989.6318 2.4502 1.6049 3.1633.2348.172.3544.4642.3544.7552v3.9191c0 1.0823.8773 1.9596 1.9596 1.9596 1.0822 0 1.9595-.8773 1.9595-1.9596z" fill="#4a2e48" fill-rule="evenodd"/><path d="m34.8115 42.6364c-2.8044 0-5.6068-1.3806-7.742-4.1443l-4.3906-5.6827c-2.8103-3.6373-7.3839-3.6373-10.1942 0l-4.29214 5.5554c-.73012.945-1.91288.945-2.64497 0-.73012-.945-.73012-2.4784 0-3.4234l4.29218-5.5554c4.26853-5.5248 11.21553-5.5248 15.48213 0l4.3906 5.6827c2.8103 3.6374 7.3838 3.6374 10.1941 0l2.9008-3.7545c.7302-.945 1.9129-.945 2.645 0 .7301.945.7301 2.4759 0 3.4234l-2.9008 3.7545c-2.1333 2.7637-4.9357 4.1443-7.7401 4.1443z" fill="url(#n)"/><path d="m34.8115 41.3939c-2.8044 0-5.6068-1.3805-7.742-4.1442l-4.3906-5.6827c-2.8103-3.6374-7.3839-3.6374-10.1942 0l-4.29214 5.5553c-.73012.945-1.91288.945-2.64497 0-.73012-.945-.73012-2.4783 0-3.4233l4.29218-5.5554c4.26853-5.5248 11.21553-5.5248 15.48213 0l4.3906 5.6827c2.8103 3.6374 7.3838 3.6374 10.1941 0l2.9008-3.7545c.7302-.945 1.9129-.945 2.645 0 .7301.945.7301 2.4758 0 3.4234l-2.9008 3.7545c-2.1333 2.7637-4.9357 4.1442-7.7401 4.1442z" fill="url(#o)"/><g filter="url(#c)"><path clip-rule="evenodd" d="m27.0695 36.0069c2.1352 2.7637 4.9376 4.1443 7.742 4.1443s5.6068-1.3806 7.7401-4.1443l2.9008-3.7545c.2419-.3139.4037-.6919.4853-1.0913.1647.8057.0029 1.7001-.4853 2.3337l-2.9008 3.7545c-2.1333 2.7637-4.9357 4.1443-7.7401 4.1443s-5.6068-1.3806-7.742-4.1443l-4.3906-5.6827c-2.8103-3.6373-7.3839-3.6373-10.1942 0l-4.29214 5.5554c-.73012.945-1.91288.945-2.64497 0-.48817-.6319-.64994-1.5267-.48531-2.3329.08159.3995.24336.7773.48531 1.0905.73209.945 1.91485.945 2.64497 0l4.29214-5.5554c2.8103-3.6373 7.3839-3.6373 10.1942 0z" fill="#fff" fill-opacity=".25" fill-rule="evenodd"/></g><path d="m34.8115 55.0611c-2.8044 0-5.6068-1.3806-7.742-4.1443l-4.3906-5.6827c-2.8103-3.6373-7.3839-3.6373-10.1942 0l-4.29214 5.5554c-.73012.945-1.91288.945-2.64497 0-.73012-.945-.73012-2.4784 0-3.4234l4.29218-5.5554c4.26853-5.5248 11.21553-5.5248 15.48213 0l4.3906 5.6827c2.8103 3.6374 7.3838 3.6374 10.1941 0l2.9008-3.7545c.7302-.945 1.9129-.945 2.645 0 .7301.945.7301 2.4759 0 3.4234l-2.9008 3.7545c-2.1333 2.7637-4.9357 4.1443-7.7401 4.1443z" fill="url(#p)"/><path d="m34.8115 53.8186c-2.8044 0-5.6068-1.3805-7.742-4.1442l-4.3906-5.6827c-2.8103-3.6374-7.3839-3.6374-10.1942 0l-4.29214 5.5553c-.73012.945-1.91288.945-2.64497 0-.73012-.945-.73012-2.4784 0-3.4234l4.29218-5.5553c4.26853-5.5248 11.21553-5.5248 15.48213 0l4.3906 5.6827c2.8103 3.6373 7.3838 3.6373 10.1941 0l2.9008-3.7545c.7302-.945 1.9129-.945 2.645 0 .7301.945.7301 2.4758 0 3.4234l-2.9008 3.7545c-2.1333 2.7637-4.9357 4.1442-7.7401 4.1442z" fill="url(#q)"/><g filter="url(#d)"><path clip-rule="evenodd" d="m27.0695 48.4319c2.1352 2.7636 4.9376 4.1442 7.742 4.1442s5.6068-1.3806 7.7401-4.1442l2.9008-3.7546c.2419-.3139.4037-.6918.4853-1.0913.1647.8057.0029 1.7001-.4853 2.3338l-2.9008 3.7545c-2.1333 2.7636-4.9357 4.1442-7.7401 4.1442s-5.6068-1.3806-7.742-4.1442l-4.3906-5.6827c-2.8103-3.6374-7.3839-3.6374-10.1942 0l-4.29214 5.5553c-.73012.945-1.91288.945-2.64497 0-.48817-.6318-.64994-1.5267-.48531-2.3329.08159.3996.24336.7773.48531 1.0905.73209.945 1.91485.945 2.64497 0l4.29214-5.5554c2.8103-3.6373 7.3839-3.6373 10.1942 0z" fill="#fff" fill-opacity=".25" fill-rule="evenodd"/></g><path d="m34.8115 67.0612c-2.8044 0-5.6068-1.3806-7.742-4.1443l-4.3906-5.6827c-2.8103-3.6373-7.3839-3.6373-10.1942 0l-4.29214 5.5554c-.73012.945-1.91288.945-2.64497 0-.73012-.945-.73012-2.4784 0-3.4234l4.29218-5.5554c4.26853-5.5248 11.21553-5.5248 15.48213 0l4.3906 5.6828c2.8103 3.6373 7.3838 3.6373 10.1941 0l2.9008-3.7546c.7302-.945 1.9129-.945 2.645 0 .7301.945.7301 2.4759 0 3.4234l-2.9008 3.7545c-2.1333 2.7637-4.9357 4.1443-7.7401 4.1443z" fill="url(#r)"/><path d="m34.8115 65.8187c-2.8044 0-5.6068-1.3805-7.742-4.1442l-4.3906-5.6827c-2.8103-3.6374-7.3839-3.6374-10.1942 0l-4.29214 5.5554c-.73012.9449-1.91288.9449-2.64497 0-.73012-.945-.73012-2.4784 0-3.4234l4.29218-5.5554c4.26853-5.5248 11.21553-5.5248 15.48213 0l4.3906 5.6827c2.8103 3.6374 7.3838 3.6374 10.1941 0l2.9008-3.7545c.7302-.945 1.9129-.945 2.645 0 .7301.945.7301 2.4758 0 3.4234l-2.9008 3.7545c-2.1333 2.7637-4.9357 4.1442-7.7401 4.1442z" fill="url(#s)"/><g filter="url(#e)"><path clip-rule="evenodd" d="m27.0695 60.432c2.1352 2.7636 4.9376 4.1442 7.742 4.1442s5.6068-1.3806 7.7401-4.1442l2.9008-3.7545c.2419-.314.4037-.6919.4853-1.0914.1647.8057.0029 1.7002-.4853 2.3338l-2.9008 3.7545c-2.1333 2.7637-4.9357 4.1442-7.7401 4.1442s-5.6068-1.3805-7.742-4.1442l-4.3906-5.6827c-2.8103-3.6374-7.3839-3.6374-10.1942 0l-4.29214 5.5553c-.73012.945-1.91288.945-2.64497 0-.48817-.6318-.64994-1.5267-.48531-2.3329.08159.3996.24336.7774.48531 1.0905.73209.945 1.91485.945 2.64497 0l4.29214-5.5553c2.8103-3.6374 7.3839-3.6374 10.1942 0z" fill="#fff" fill-opacity=".25" fill-rule="evenodd"/></g></svg>