<svg fill="none" height="82" viewBox="0 0 176 82" width="176" xmlns="http://www.w3.org/2000/svg" xmlns:xlink="http://www.w3.org/1999/xlink"><filter id="a" color-interpolation-filters="sRGB" filterUnits="userSpaceOnUse" height="38.6862" width="35.8949" x="118.379" y="21.4595"><feFlood flood-opacity="0" result="BackgroundImageFix"/><feBlend in="SourceGraphic" in2="BackgroundImageFix" mode="normal" result="shape"/><feGaussianBlur result="effect1_foregroundBlur_2165_45830" stdDeviation=".64469"/></filter><filter id="b" color-interpolation-filters="sRGB" filterUnits="userSpaceOnUse" height="38.9757" width="36.1634" x="106.263" y="20.394"><feFlood flood-opacity="0" result="BackgroundImageFix"/><feBlend in="SourceGraphic" in2="BackgroundImageFix" mode="normal" result="shape"/><feGaussianBlur result="effect1_foregroundBlur_2165_45830" stdDeviation=".64469"/></filter><filter id="c" color-interpolation-filters="sRGB" filterUnits="userSpaceOnUse" height="39.5492" width="36.6926" x="85.7099" y="20.0967"><feFlood flood-opacity="0" result="BackgroundImageFix"/><feBlend in="SourceGraphic" in2="BackgroundImageFix" mode="normal" result="shape"/><feGaussianBlur result="effect1_foregroundBlur_2165_45830" stdDeviation=".64469"/></filter><filter id="d" color-interpolation-filters="sRGB" filterUnits="userSpaceOnUse" height="39.5462" width="36.6923" x="66.6763" y="20.0996"><feFlood flood-opacity="0" result="BackgroundImageFix"/><feBlend in="SourceGraphic" in2="BackgroundImageFix" mode="normal" result="shape"/><feGaussianBlur result="effect1_foregroundBlur_2165_45830" stdDeviation=".64469"/></filter><filter id="e" color-interpolation-filters="sRGB" filterUnits="userSpaceOnUse" height="39.5492" width="36.6926" x="43.3445" y="20.0967"><feFlood flood-opacity="0" result="BackgroundImageFix"/><feBlend in="SourceGraphic" in2="BackgroundImageFix" mode="normal" result="shape"/><feGaussianBlur result="effect1_foregroundBlur_2165_45830" stdDeviation=".64469"/></filter><filter id="f" color-interpolation-filters="sRGB" filterUnits="userSpaceOnUse" height="39.5462" width="36.6923" x="20.013" y="20.0996"><feFlood flood-opacity="0" result="BackgroundImageFix"/><feBlend in="SourceGraphic" in2="BackgroundImageFix" mode="normal" result="shape"/><feGaussianBlur result="effect1_foregroundBlur_2165_45830" stdDeviation=".64469"/></filter><linearGradient id="g"><stop offset="0" stop-color="#705170"/><stop offset=".335124" stop-color="#5b3959"/><stop offset=".727223" stop-color="#342134"/><stop offset="1" stop-color="#221826"/></linearGradient><linearGradient id="h" gradientUnits="userSpaceOnUse" x1="160.521" x2="124.618" xlink:href="#g" y1="23.4865" y2="63.4596"/><linearGradient id="i"><stop offset="0" stop-color="#6c466c"/><stop offset="1" stop-color="#302634"/></linearGradient><radialGradient id="j" cx="0" cy="0" gradientTransform="matrix(-15.27833283 -41.82236849 34.59381098 -12.63763333 20.3497 27.5046)" gradientUnits="userSpaceOnUse" r="1" xlink:href="#i"/><linearGradient id="k"><stop offset="0" stop-color="#704f72"/><stop offset="1" stop-color="#302634"/></linearGradient><linearGradient id="l" gradientUnits="userSpaceOnUse" x1="144.855" x2="118.832" xlink:href="#k" y1="54.3495" y2="27.9928"/><linearGradient id="m" gradientUnits="userSpaceOnUse" x1="148.734" x2="112.542" xlink:href="#g" y1="22.4253" y2="62.7208"/><radialGradient id="n" cx="0" cy="0" gradientTransform="matrix(-15.40151835 -42.15957218 34.87277893 -12.73954447 20.5138 27.7264)" gradientUnits="userSpaceOnUse" r="1" xlink:href="#i"/><linearGradient id="o" gradientUnits="userSpaceOnUse" x1="132.942" x2="106.709" xlink:href="#k" y1="53.5372" y2="26.968"/><linearGradient id="p" gradientUnits="userSpaceOnUse" x1="128.83" x2="92.0674" xlink:href="#g" y1="22.1399" y2="63.0702"/><radialGradient id="q" cx="0" cy="0" gradientTransform="matrix(-15.64418353 -42.82383527 35.42216734 -12.94024422 20.837 28.1632)" gradientUnits="userSpaceOnUse" r="1" xlink:href="#i"/><linearGradient id="r" gradientUnits="userSpaceOnUse" x1="112.789" x2="86.1425" xlink:href="#k" y1="53.742" y2="26.7542"/><linearGradient id="s" gradientUnits="userSpaceOnUse" x1="109.797" x2="73.0338" xlink:href="#g" y1="22.1399" y2="63.0702"/><linearGradient id="t" gradientUnits="userSpaceOnUse" x1="93.7548" x2="67.1087" xlink:href="#k" y1="53.742" y2="26.7542"/><linearGradient id="u" gradientUnits="userSpaceOnUse" x1="165.056" x2="45.9416" y1="37.616" y2="37.616"><stop offset="0" stop-color="#36293b"/><stop offset="1" stop-color="#36293b" stop-opacity="0"/></linearGradient><linearGradient id="v" gradientUnits="userSpaceOnUse" x1="86.4646" x2="49.7018" xlink:href="#g" y1="22.1399" y2="63.0702"/><linearGradient id="w" gradientUnits="userSpaceOnUse" x1="70.4231" x2="43.7769" xlink:href="#k" y1="53.742" y2="26.7542"/><linearGradient id="x" gradientUnits="userSpaceOnUse" x1="63.133" x2="26.3702" xlink:href="#g" y1="22.1398" y2="63.0702"/><linearGradient id="y" gradientUnits="userSpaceOnUse" x1="47.0915" x2="20.4453" xlink:href="#k" y1="53.742" y2="26.7541"/><path d="m136.377 62.0805c9.595-3.269 18.981-14.0187 20.963-24.0101 1.004-5.0614-.084-8.9573-2.65-11.1447l-4.819-4.2658-29.847 33.7855 5.219 4.608c2.499 2.1305 6.399 2.6402 11.134 1.0271z" fill="url(#h)"/><ellipse cx="18.3542" cy="18.4437" fill="#493149" rx="18.3542" ry="18.4437" transform="matrix(.946571 -.322496 -.194624 .980878 121.26 27.4706)"/><ellipse cx="15.1933" cy="15.2964" fill="url(#j)" rx="15.1933" ry="15.2964" transform="matrix(.946571 -.322496 -.194624 .980878 124.795 30.6109)"/><path d="m152.417 33.7233c-1.982 9.9914-11.368 20.7411-20.963 24.0101-9.595 3.2691-15.767-2.1804-13.784-12.1718 1.982-9.9914 11.368-20.7411 20.963-24.0102 9.595-3.269 15.767 2.1805 13.784 12.1719zm-32.427 11.048c-1.718 8.6574 3.629 13.3793 11.943 10.5467s16.447-12.147 18.164-20.8044c1.718-8.6574-3.629-13.3793-11.943-10.5467s-16.447 12.147-18.164 20.8044z" fill="url(#l)"/><g filter="url(#a)"><path clip-rule="evenodd" d="m131.454 57.7335c9.595-3.269 18.981-14.0188 20.963-24.0101.979-4.9327-.03-8.7584-2.457-10.9745 2.569 2.1866 3.659 6.0841 2.654 11.1484-1.982 9.9913-11.368 20.741-20.963 24.0101-4.858 1.6552-8.838 1.0753-11.327-1.1974 2.499 2.1275 6.398 2.6356 11.13 1.0235zm-9.152-3.2909c-2.235-1.8926-3.185-5.2743-2.312-9.6712 1.717-8.6574 9.85-17.9718 18.164-20.8044 4.218-1.4371 7.672-.9298 9.828 1.0493-2.166-1.8338-5.539-2.2694-9.631-.8754-8.314 2.8325-16.446 12.147-18.164 20.8044-.847 4.2653.022 7.5753 2.115 9.4973z" fill="#906385" fill-rule="evenodd"/></g><path d="m124.395 61.3306c9.673-3.2954 19.134-14.1318 21.133-24.2038 1.012-5.1022-.085-9.0295-2.671-11.2345l-4.859-4.3002-30.087 34.058 5.26 4.645c2.519 2.1478 6.452 2.6615 11.224 1.0355z" fill="url(#m)"/><ellipse cx="18.5022" cy="18.5924" fill="#493149" rx="18.5022" ry="18.5924" transform="matrix(.946571 -.322496 -.194624 .980878 109.156 26.4416)"/><ellipse cx="15.3158" cy="15.4198" fill="url(#n)" rx="15.3158" ry="15.4198" transform="matrix(.946571 -.322496 -.194624 .980878 112.72 29.6072)"/><path d="m140.565 32.7447c-1.998 10.0719-11.46 20.9083-21.132 24.2037-9.673 3.2955-15.894-2.198-13.895-12.27 1.998-10.0719 11.459-20.9083 21.132-24.2037 9.672-3.2955 15.894 2.198 13.895 12.27zm-32.689 11.1371c-1.732 8.7272 3.659 13.4872 12.04 10.6317 8.381-2.8554 16.579-12.245 18.311-20.9722 1.731-8.7272-3.659-13.4872-12.04-10.6317-8.381 2.8554-16.579 12.245-18.311 20.9722z" fill="url(#o)"/><g filter="url(#b)"><path clip-rule="evenodd" d="m119.433 56.9485c9.672-3.2955 19.134-14.1319 21.132-24.2038.987-4.9713-.029-8.8271-2.475-11.0613 2.589 2.2046 3.686 6.1327 2.674 11.2366-1.999 10.0719-11.46 20.9083-21.132 24.2037-4.899 1.6689-8.912 1.0838-11.421-1.2086 2.52 2.146 6.451 2.6589 11.222 1.0334zm-9.227-3.3189c-2.252-1.9081-3.209-5.3166-2.33-9.7478 1.732-8.7272 9.93-18.1168 18.311-20.9722 4.253-1.449 7.736-.937 9.909 1.0592-2.184-1.8498-5.585-2.2895-9.71-.8839-8.382 2.8554-16.58 12.245-18.311 20.9722-.853 4.2986.022 7.6348 2.131 9.5725z" fill="#906385" fill-rule="evenodd"/></g><path clip-rule="evenodd" d="m124.286 27.2916c-2.514 3.5097-5.022 7.0199-7.526 10.5306-.939.2207-1.88.4412-2.822.6616-.721 1.004-1.442 2.0115-2.164 3.0224.943-.1856 1.886-.3729 2.829-.5619-1.396 2.0751-2.792 4.1467-4.187 6.215 5.921.6032 11.82 1.2009 17.697 1.7928.827-1.3414 1.653-2.6864 2.477-4.0351-3.483-.3426-6.994-.6862-10.532-1.0307 1.102-1.5961 2.206-3.1921 3.312-4.7879 1.112-.2906 2.22-.5834 3.323-.8785.683-.9729 1.368-1.9491 2.055-2.9286-1.056.2092-2.112.4201-3.169.6328 1.846-2.6223 3.703-5.2435 5.569-7.8637-2.289-.2599-4.576-.5162-6.862-.7688z" fill="#e35760" fill-rule="evenodd"/><path d="m104.108 61.6581c9.825-3.3473 19.435-14.3544 21.465-24.5851 1.028-5.1826-.086-9.1718-2.713-11.4115l-4.935-4.368-30.5615 34.5946 5.3431 4.7182c2.559 2.1816 6.5532 2.7035 11.4014 1.0518z" fill="url(#p)"/><ellipse cx="18.7937" cy="18.8853" fill="#493149" rx="18.7937" ry="18.8853" transform="matrix(.946571 -.322496 -.194624 .980878 88.6286 26.2194)"/><ellipse cx="15.5571" cy="15.6627" fill="url(#q)" rx="15.5571" ry="15.6627" transform="matrix(.946571 -.322496 -.194624 .980878 92.2484 29.435)"/><path d="m120.532 32.6218c-2.03 10.2306-11.64 21.2378-21.465 24.5851-9.8249 3.3474-16.1439-2.2327-14.114-12.4633 2.03-10.2306 11.6402-21.2377 21.465-24.5851 9.825-3.3473 16.144 2.2327 14.114 12.4633zm-33.2038 11.3126c-1.7589 8.8647 3.7165 13.6997 12.2296 10.7993 8.5132-2.9005 16.8402-12.438 18.5992-21.3027s-3.716-13.6996-12.23-10.7992c-8.5127 2.9004-16.8399 12.4379-18.5988 21.3026z" fill="url(#r)"/><g filter="url(#c)"><path clip-rule="evenodd" d="m99.0668 57.207c9.8252-3.3474 19.4352-14.3545 21.4652-24.5851 1.002-5.0497-.03-8.9664-2.514-11.2358 2.629 2.2393 3.744 6.2294 2.716 11.4138-2.03 10.2306-11.641 21.2377-21.4654 24.5851-4.9755 1.6951-9.0519 1.1008-11.6002-1.2276 2.559 2.1797 6.5522 2.7006 11.3984 1.0496zm-9.3721-3.3711c-2.2878-1.9381-3.2599-5.4003-2.3668-9.9015 1.759-8.8647 10.0861-18.4022 18.5991-21.3026 4.32-1.4717 7.858-.9518 10.065 1.0758-2.218-1.8789-5.673-2.3254-9.863-.8977-8.5132 2.9004-16.8404 12.4379-18.5993 21.3026-.8664 4.3664.0225 7.7552 2.165 9.7234z" fill="#906385" fill-rule="evenodd"/></g><path clip-rule="evenodd" d="m117.164 29.2007c-1.088 0-2.175 0-3.26 0-2.469 1.7765-4.944 3.5546-7.426 5.3342-2.281 1.6108-4.824 1.6108-5.752 0-.9996-1.7796-1.9887-3.5577-2.9672-5.3342-1.1279 0-2.2573 0-3.3882 0 1.2742 2.3595 2.5758 4.7205 3.9048 7.0831 1.4358 2.5773 5.4966 2.5773 9.0676 0 3.28-2.3626 6.553-4.7236 9.821-7.0831zm-30.6992 19.6477h3.2373c2.4021-1.8134 4.8331-3.6237 7.2931-5.4309 2.2588-1.6108 4.7878-1.6108 5.7108 0 1.003 1.8072 2.007 3.6175 3.013 5.4309h3.32c-1.338-2.3626-2.669-4.7252-3.992-7.0877-1.413-2.5774-5.4684-2.5774-9.0303 0-3.2404 2.3625-6.4244 4.7251-9.5519 7.0877z" fill="#e35760" fill-rule="evenodd"/><path d="m85.074 61.6581c9.8249-3.3473 19.435-14.3544 21.465-24.5851 1.028-5.1826-.086-9.1718-2.713-11.4115l-4.9348-4.368-30.5613 34.5946 5.3431 4.7182c2.5589 2.1816 6.5532 2.7035 11.401 1.0518z" fill="url(#s)"/><ellipse cx="18.7937" cy="18.8853" fill="#493149" rx="18.7937" ry="18.8853" transform="matrix(.946571 -.322496 -.194624 .980878 69.5947 26.2194)"/><ellipse cx="15.5571" cy="15.6627" fill="url(#q)" rx="15.5571" ry="15.6627" transform="matrix(.946571 -.322496 -.194624 .980878 73.2148 29.435)"/><path d="m101.498 32.6218c-2.0296 10.2306-11.6399 21.2378-21.4648 24.5851-9.8249 3.3474-16.144-2.2327-14.114-12.4633 2.0299-10.2306 11.6402-21.2377 21.4651-24.5851 9.8249-3.3473 16.1437 2.2327 14.1137 12.4633zm-33.2036 11.3126c-1.759 8.8647 3.7164 13.6997 12.2295 10.7993 8.5132-2.9005 16.8403-12.438 18.5992-21.3027s-3.7164-13.6996-12.2296-10.7992c-8.5131 2.9004-16.8402 12.4379-18.5991 21.3026z" fill="url(#t)"/><g filter="url(#d)"><path clip-rule="evenodd" d="m80.0333 57.2068c9.8249-3.3473 19.4351-14.3544 21.4647-24.5851 1.002-5.0474-.029-8.9629-2.5102-11.2327 2.6262 2.2399 3.7402 6.2287 2.7122 11.4108-2.03 10.2306-11.6403 21.2377-21.4652 24.5851-4.9776 1.6959-9.0554 1.1003-11.6035-1.2306 2.5589 2.1822 6.5535 2.7044 11.402 1.0525zm-9.3752-3.3736c-2.2856-1.9387-3.2564-5.3998-2.3637-9.8989 1.7589-8.8647 10.0861-18.4022 18.5992-21.3026 4.3217-1.4724 7.8605-.9513 10.0675 1.0784-2.2178-1.8811-5.6735-2.3287-9.8659-.9004-8.5132 2.9005-16.8403 12.438-18.5992 21.3027-.866 4.3645.0216 7.7522 2.1621 9.7208z" fill="#906385" fill-rule="evenodd"/></g><path d="m86.2821 36.6218c.4606-.9811.923-1.962 1.3873-2.9428 2.3092.2313 4.6109.4618 6.9051.6916.6955-1.4805 1.3927-2.959 2.0916-4.4355-6.2624-.6272-12.6481-1.2668-19.1571-1.9187-.6877 1.4776-1.3718 2.9574-2.0523 4.4394 2.3801.2384 4.7509.4759 7.1124.7124-.4606.9811-.9174 1.9626-1.3705 2.9444-5.8848-.3092-10.6988.3349-11.2638 1.623-.5593 1.2888 3.337 2.7996 8.8753 3.6289-1.3931 3.1327-2.7786 6.2643-4.1564 9.3948 1.659.1662 3.3162.3321 4.9714.4979 1.4044-3.1316 2.8179-6.2603 4.2405-9.3864 5.7559.2964 10.4517-.3539 11.0446-1.6393.5986-1.2848-3.1015-2.776-8.6281-3.6097zm-2.0529 4.445c-.1625-.0163-.9079-.0349-2.5165-.196-1.2835-.1286-2.2083-.2772-2.539-.3104-4.9498-.7142-8.3694-1.9532-7.9443-2.9192.448-1.0254 4.6172-1.4483 9.7958-1.1537-.4978 1.0894-.9938 2.1791-1.4879 3.2689.3307.0331 1.2555.1818 2.539.3103 1.5581.1561 2.3596.1803 2.5221.1966.5016-1.0891 1.005-2.178 1.5103-3.2666 4.8876.7136 8.1896 1.9408 7.742 2.9046-.4475.9637-4.5438 1.4499-9.6215 1.1655z" fill="#e35760"/><path d="m45.9416 2.18514h119.114v77.3627h-119.114z" fill="url(#u)"/><path d="m61.742 61.6581c9.8249-3.3473 19.4352-14.3544 21.4651-24.5851 1.0284-5.1826-.0858-9.1718-2.713-11.4115l-4.9348-4.368-30.5614 34.5946 5.3431 4.7182c2.559 2.1816 6.5532 2.7035 11.401 1.0518z" fill="url(#v)"/><ellipse cx="18.7937" cy="18.8853" fill="#493149" rx="18.7937" ry="18.8853" transform="matrix(.946571 -.322496 -.194624 .980878 46.263 26.2194)"/><ellipse cx="15.5571" cy="15.6627" fill="url(#q)" rx="15.5571" ry="15.6627" transform="matrix(.946571 -.322496 -.194624 .980878 49.8831 29.435)"/><path d="m78.1666 32.6218c-2.03 10.2306-11.6402 21.2378-21.4652 24.5851-9.8249 3.3474-16.1439-2.2327-14.114-12.4633 2.03-10.2306 11.6402-21.2377 21.4651-24.5851 9.8249-3.3473 16.144 2.2327 14.1141 12.4633zm-33.204 11.3126c-1.7589 8.8647 3.7165 13.6997 12.2296 10.7993 8.5131-2.9005 16.8403-12.438 18.5992-21.3027s-3.7165-13.6996-12.2296-10.7992-16.8403 12.4379-18.5992 21.3026z" fill="url(#w)"/><g filter="url(#e)"><path clip-rule="evenodd" d="m56.7014 57.207c9.8249-3.3474 19.4352-14.3545 21.4651-24.5851 1.002-5.0497-.0301-8.9664-2.5139-11.2358 2.6291 2.2393 3.7444 6.2294 2.7157 11.4138-2.0299 10.2306-11.6402 21.2377-21.4651 24.5851-4.9755 1.6951-9.0519 1.1008-11.6002-1.2276 2.5591 2.1797 6.5523 2.7006 11.3984 1.0496zm-9.3721-3.3711c-2.2878-1.9381-3.2598-5.4003-2.3667-9.9015 1.7589-8.8647 10.086-18.4022 18.5992-21.3026 4.3198-1.4717 7.8574-.9518 10.0646 1.0758-2.2179-1.8789-5.6723-2.3254-9.8628-.8977-8.5132 2.9004-16.8403 12.4379-18.5992 21.3026-.8664 4.3664.0224 7.7552 2.1649 9.7234z" fill="#906385" fill-rule="evenodd"/></g><g fill="#e35760"><path d="m68.3562 26.2691-5.0999 9.405 6.0509 7.8749z" fill-opacity=".602"/><path d="m68.3561 26.2691-15.0007 8.63 9.9008.775z"/><path d="m58.0067 45.3557-3.475 6.4084 13.9508-6.6937z" fill-opacity=".602"/><path d="m54.5565 51.718 3.475-6.4084-5.4759-8.9352z"/><path d="m58.8315 43.8343 10.4758-.2853-6.0508-7.8749z" fill-opacity=".2"/></g><path d="m53.4018 34.9241 5.4758 8.9353 4.425-8.1603z" fill="#ff626e" fill-opacity=".6"/><path d="m38.4104 61.6581c9.8249-3.3474 19.4352-14.3545 21.4651-24.5851 1.0284-5.1826-.0858-9.1718-2.713-11.4116l-4.9348-4.3679-30.5614 34.5946 5.3431 4.7182c2.5589 2.1816 6.5532 2.7034 11.401 1.0518z" fill="url(#x)"/><ellipse cx="18.7937" cy="18.8853" fill="#493149" rx="18.7937" ry="18.8853" transform="matrix(.946571 -.322496 -.194624 .980878 22.9314 26.2194)"/><ellipse cx="15.5571" cy="15.6627" fill="url(#q)" rx="15.5571" ry="15.6627" transform="matrix(.946571 -.322496 -.194624 .980878 26.5514 29.4349)"/><path d="m54.8349 32.6218c-2.0299 10.2306-11.6402 21.2377-21.4651 24.5851-9.8249 3.3473-16.1439-2.2327-14.114-12.4633 2.03-10.2306 11.6402-21.2378 21.4651-24.5851 9.8249-3.3474 16.144 2.2327 14.114 12.4633zm-33.2039 11.3126c-1.7589 8.8647 3.7165 13.6996 12.2296 10.7992s16.8403-12.4379 18.5992-21.3026-3.7165-13.6997-12.2296-10.7993c-8.5131 2.9005-16.8403 12.438-18.5992 21.3027z" fill="url(#y)"/><g filter="url(#f)"><path clip-rule="evenodd" d="m33.3699 57.2068c9.8249-3.3473 19.4352-14.3544 21.4651-24.5851 1.0015-5.0474-.0292-8.9628-2.5105-11.2327 2.6265 2.2399 3.7403 6.2287 2.7121 11.4108-2.03 10.2306-11.6402 21.2377-21.4651 24.5851-4.9777 1.6958-9.0554 1.1003-11.6035-1.2306 2.5589 2.1822 6.5535 2.7044 11.4019 1.0525zm-9.3752-3.3736c-2.2856-1.9387-3.2563-5.3998-2.3636-9.8989 1.7589-8.8647 10.086-18.4022 18.5992-21.3026 4.3216-1.4724 7.8604-.9513 10.0674 1.0784-2.2178-1.8811-5.6735-2.3287-9.8659-.9004-8.5131 2.9004-16.8402 12.438-18.5992 21.3026-.866 4.3646.0217 7.7523 2.1621 9.7209z" fill="#906385" fill-rule="evenodd"/></g><path d="m47.6608 36.5206c1.277-2.7213-.338-4.2625-2.9177-5.3915.7132-1.2158 1.4282-2.4316 2.1451-3.6474-.7085-.2226-1.4172-.4415-2.1261-.6566-.6824 1.1983-1.3666 2.3966-2.0527 3.5947-.5725-.1942-1.1644-.3326-1.6862-.5246.6823-1.1983 1.3628-2.3967 2.0414-3.5952-.7087-.2189-1.4138-.4357-2.1151-.6505-.7018 1.2126-1.4017 2.4272-2.0999 3.6437-.4736-.1334-.891-.2644-1.3702-.398-.9757-.3057-1.9475-.6131-2.9156-.9223-.4585.7962-.917 1.5905-1.3754 2.383 0 0 1.5705.4631 1.5142.4607.8347.262.8083.8839.6709 1.3312-.8112 1.4005-1.6224 2.8011-2.4336 4.2016-1.1317 1.9534-2.2689 3.9065-3.4118 5.8594-.209.2743-.6254.6532-1.2735.5124-.0193.0558-1.5198-.461-1.5198-.461-.6672.8403-1.3362 1.6804-2.0072 2.5205.9277.2848 1.8574.5677 2.789.8489.5353.1417 1.0011.3257 1.5308.4671-.7402 1.2336-1.4823 2.4672-2.2263 3.7006.7087.2189 1.4193.4378 2.1317.6569.7395-1.2148 1.4751-2.4297 2.2071-3.6448.5838.1947 1.1676.3894 1.7087.5256-.7281 1.2152-1.4619 2.4302-2.2014 3.645.72.2194 1.4399.4387 2.1599.658.7365-1.2337 1.4712-2.4695 2.2041-3.7072 3.8072.9035 6.9262.7526 9.1657-2.7266 1.8307-2.7488 1.2361-4.4166-.4745-5.5654 1.6105-.2149 3.0303-1.1176 3.9384-3.1182zm-7.4295 6.9918c-1.5551 2.7661-5.9932 1.0486-7.4286.5912.9567-1.6398 1.9115-3.2797 2.8645-4.9197 1.4128.4564 6.1973 1.4523 4.5641 4.3285zm2.9347-7.2391c-1.4274 2.5451-5.0565 1.0317-6.2772.6967.8602-1.4928 1.7186-2.9858 2.5751-4.4788 1.2577.3932 5.2356 1.1284 3.7021 3.7821z" fill="#ff626e"/></svg>