<svg fill="none" height="194" viewBox="0 0 240 194" width="240" xmlns="http://www.w3.org/2000/svg" xmlns:xlink="http://www.w3.org/1999/xlink"><linearGradient id="a"><stop offset="0" stop-color="#36293b" stop-opacity=".85"/><stop offset="1" stop-color="#36293b" stop-opacity="0"/></linearGradient><linearGradient id="b" gradientUnits="userSpaceOnUse" x1="240" x2="300" xlink:href="#a" y1="114.5" y2="114.5"/><linearGradient id="c" gradientUnits="userSpaceOnUse" x1="-.000003" x2="60" xlink:href="#a" y1="308.5" y2="308.5"/><clipPath id="d"><path d="m4 0h232v16h-232z"/></clipPath><clipPath id="e"><path d="m0 40h240v20h-240z"/></clipPath><clipPath id="f"><path d="m49 84h142v26h-142z"/></clipPath><clipPath id="g"><path d="m48 134h144v20h-144z"/></clipPath><clipPath id="h"><path d="m76 178h88v16h-88z"/></clipPath><mask id="i" height="21" maskUnits="userSpaceOnUse" width="27" x="48" y="134"><path d="m61.1277 134.079c-7.1786 0-12.998 4.437-12.998 9.909 0 4.602 4.1149 8.471 9.6927 9.586 1.0554.211 2.1631.656 3.3053.656 1.1421 0 2.2499-.445 3.3053-.656 5.5777-1.115 9.6927-4.984 9.6927-9.586 0-5.472-5.8195-9.909-12.998-9.909z" fill="#fbfbfb"/></mask><g fill="#fff"><g clip-path="url(#d)"><path d="m24.6769 6.43066c1.5716 1.30734-3.031 3.83604-1.9972 2.792h-9.8038c-1.0606-.86533-1.7897-1.81066-2.1404-2.792z"/><path d="m21.8351 13.9667c-1.393.6928-2.8992 1.2924-4.4935 1.7886l-.7805.2447-.7847-.244c-7.37588-2.308-11.7764-6.284-11.7764-10.64v-5.116h4.49888v5.11533c0 .32667.03421.652.10584.97534.56664 2.64666 3.43188 5.08863 7.93928 6.73333.0045.0025.0096.0045.015.006l.0118-.0047.0192-.0073c1.6294.5683 3.4038.9564 5.2451 1.1487z"/><path d="m28.9833 6.43067c-.2084 1.01097-.6533 1.99744-1.3204 2.928-1.2327 1.72803-3.2148 3.30063-5.8256 4.60933-1.8406-.1924-3.6143-.5812-5.243-1.1493.588-.2167 1.1589-.4514 1.7095-.7034.0545-.022.1069-.0466.1582-.072 3.0475-1.3683 5.243-3.35137 6.2149-5.6133z"/><path d="m29.1223.00066376h-20.62342v2.80399624h20.62342z"/><path d="m29.1234 2.80534v2.31c0 .09533-.0054.19133-.0107.28666h-4.5011c.0054-.09533.0075-.19133.0075-.28666v-2.31z"/><path d="m75.9585 7.52c0 .95-.1711 1.72667-.5153 2.328-.4639.8641-1.3776 1.6068-2.5959 2.11-1.234.4844-2.6702.7303-4.1279.7067-2.5872 0-4.5705-.548-5.9528-1.6454-1.0558-.8514-1.6096-1.90337-1.5684-2.9793 0-1.27866.6126-2.35266 1.8367-3.22333 1.3899-.98867 3.3293-1.48333 5.8203-1.48333 1.6636 0 3.0727.26666 4.2295.79866.8253.376 1.5299.93334 2.1147 1.67134l-3.4618.89466c-.2309-.35133-.5838-.66666-1.0349-.92133-.5681-.29067-1.2839-.44529-2.0185-.436-1.593 0-2.7049.51133-3.3314 1.534-.2343.37229-.354.76875-.3528 1.16867-.0191.38346.0836.76548.3023 1.12407.2188.35858.5491.68664.9721.96529.6286.416 1.4679.6233 2.5156.622.9301 0 1.6678-.1687 2.2131-.506.3988-.27336.6457-.6187.7056-.98603h-3.0138v-1.74333zm18.8369 1.15734c.0085.45333-.0642.90533-.217 1.34866-.237.6133-.7654 1.1677-1.5161 1.5907-1.1429.6733-2.6706 1.0106-4.5833 1.0106-1.9458 0-3.465-.3433-4.5587-1.0293-.5904-.3748-1.0014-.8449-1.1868-1.3573-.1714-.51175-.2478-1.03408-.2277-1.5567v-5.07066h3.6628v4.75c0 .38266.0107.66666.0321.854.0663.59666.4993 1.01266 1.299 1.24796.3421.1.7163.15 1.0948.1467.8927 0 1.5662-.194 2.0206-.584.3379-.28666.5057-.84133.5057-1.66466v-4.74934h3.6639zm19.2906 3.71796h-3.912l-.907-1.5313h-5.056l-.97 1.5313h-3.8676l5.4096-8.7813h4zm-5.809-3.2673-1.515-2.8-1.538 2.8zm23.367 3.2673h-4.544l-3.498-3.3733v3.3733h-3.673v-8.7813h5.698c1.664 0 2.895.31067 3.693.932.646.50081.989 1.12734.969 1.77 0 .77667-.371 1.396-1.114 1.85934-.545.31866-1.225.53333-1.961.618zm-5.15-5.9533c.005-.14837-.041-.29567-.136-.43189-.094-.13621-.235-.25812-.412-.35744-.345-.202-.901-.302-1.667-.30133h-.684v2.18666h.684c.775 0 1.329-.10066 1.667-.302.176-.10072.316-.22359.41-.36047s.14-.28465.136-.43353zm23.262 1.55934c-.021.90868-.483 1.79208-1.325 2.53386-.842.7417-2.025 1.3071-3.392 1.6215-.716.1567-1.47.2369-2.229.2373h-5.409v-8.78066h5.409c1.308-.0032 2.589.23628 3.679.688 1.093.4382 1.973 1.055 2.544 1.78333.473.59572.72 1.25191.723 1.91667zm-3.798 0c.019-.57093-.269-1.12933-.818-1.58667-.721-.598-1.802-.89667-3.245-.896h-.838v4.97333h.838c1.443 0 2.524-.2993 3.245-.89733.547-.46.833-1.02067.814-1.59333zm22.046 4.39396h-3.91l-.909-1.5313h-5.056l-.969 1.5313h-3.87l5.41-8.7813h4.001zm-5.81-3.2673-1.514-2.8-1.528 2.8zm23.368 3.2673h-4.557l-3.497-3.3733v3.3733h-3.658v-8.7813h5.695c1.663 0 2.895.31067 3.693.932.645.50134.989 1.12734.969 1.77 0 .77667-.372 1.396-1.115 1.85934-.544.31904-1.225.53358-1.959.618zm-5.148-5.9533c.004-.14836-.043-.2955-.138-.43161s-.235-.25806-.411-.35772c-.347-.20133-.901-.30133-1.666-.30133h-.684v2.18666h.677c.773 0 1.328-.1 1.666-.302.177-.10066.317-.2234.413-.36021.095-.1368.143-.28461.141-.43379zm14.574 5.9533h-3.665v-8.7813h3.663zm20.568 0h-3.912l-.908-1.5313h-5.055l-.969 1.5313h-3.871l5.41-8.7813h3.991zm-5.807-3.2673-1.515-2.8-1.539 2.8zm25.714 3.2673h-3.663l-6.737-5.3773v5.3773h-3.663v-8.7813h3.663l6.737 5.372v-5.372h3.663z"/></g><g clip-path="url(#e)"><path d="m2.27131 47.3532-1.21114.9191c-.335142.2446-.601704.5375-.784206.8623-.1819481.3244-.275964.6735-.275964 1.026 0 .353.0940159.7021.275964 1.0265.182502.3244.449064.6177.784206.8619l9.75723 7.4768c.2311.1796.5005.3286.7963.4406v-9.063z"/><path d="m24.2744 47.3532 1.2111.9191c.3352.2446.6017.5375.7842.8623.182.3244.276.6735.276 1.026 0 .353-.094.7021-.276 1.0265-.1825.3244-.449.6177-.7842.8619l-9.7572 7.4768c-.2311.1796-.5005.3286-.7963.4406v-9.063z"/><path d="m21.9318 45.4775-6.1055-4.6454c-.3236-.2527-.7101-.4537-1.1376-.5909s-.8871-.2077-1.3511-.2077-.9236.0705-1.351.2077c-.4275.1372-.8147.3382-1.1376.5909l-6.12213 4.6454 8.57753 3.248z"/><path d="m37.1423 57.5536h8.5919c4.5167 0 6.9224-1.7881 6.9224-4.2174 0-2.2576-2.1309-3.6211-4.4188-3.7029v-.149c2.0916-.3579 3.6334-1.483 3.6334-3.2786 0-2.2875-2.2386-3.9119-6.6773-3.9119h-8.0522zm4.2517-2.6374v-4.0538h3.5643c2.0424 0 3.3094.8943 3.3094 2.1536 0 1.1473-1.0314 1.9002-3.4073 1.9002zm0-6.2367v-3.7777h3.2303c1.8853 0 2.956.7378 2.956 1.8406 0 1.2069-1.2964 1.9371-3.0346 1.9371zm17.4427-6.3857h-4.1831v15.2598h4.1831zm9.4746 15.4835c4.5758 0 7.4234-2.3768 7.4234-5.9014 0-3.5468-2.8476-5.9161-7.4234-5.9161-4.5764 0-7.4239 2.3697-7.4239 5.9161 0 3.5246 2.8475 5.9014 7.4239 5.9014zm.0194-2.4591c-2.111 0-3.191-1.4679-3.191-3.4646 0-1.997 1.08-3.4721 3.191-3.4721 2.0722 0 3.1523 1.4751 3.1523 3.4721 0 1.9967-1.0801 3.4646-3.1523 3.4646zm16.2476 2.4591c4.0161 0 6.5396-1.7885 6.7359-4.4184h-3.9475c-.2456 1.222-1.3058 1.9073-2.7398 1.9073-1.9538 0-3.2203-1.2443-3.2203-3.4348 0-2.1612 1.2764-3.3979 3.2203-3.3979 1.5319 0 2.5141.7676 2.7398 1.9073h3.9475c-.1769-2.645-2.8182-4.381-6.7558-4.381-4.5759 0-7.4041 2.4066-7.4041 5.9161 0 3.4797 2.779 5.9014 7.424 5.9014zm8.723-.2237h4.1831v-3.6362l1.1293-.9761 4.1143 4.6123h4.9l-5.882-6.4897 5.597-4.9552h-4.802l-4.8309 4.3442h-.2257v-8.1591h-4.1831zm21.5967.2237c4.016 0 6.539-1.7885 6.736-4.4184h-3.948c-.245 1.222-1.305 1.9073-2.739 1.9073-1.954 0-3.221-1.2443-3.221-3.4348 0-2.1612 1.277-3.3979 3.221-3.3979 1.532 0 2.514.7676 2.739 1.9073h3.948c-.177-2.645-2.818-4.381-6.756-4.381-4.576 0-7.404 2.4066-7.404 5.9161 0 3.4797 2.779 5.9014 7.424 5.9014zm12.906-6.8402c.01-1.4754 1.198-2.3395 2.907-2.3395 1.698 0 2.7.8271 2.69 2.235v6.721h4.183v-7.2871c.01-2.6823-2.072-4.3067-5.214-4.3067-2.288 0-3.82.8195-4.507 2.1682h-.177v-5.8342h-4.065v15.2598h4.183zm16.682 6.8327c2.229 0 3.672-.7378 4.409-1.8032h.118v1.587h3.967v-7.7193c0-2.7268-3.044-3.8745-6.403-3.8745-3.613 0-5.99 1.3113-6.569 3.3978l3.869.2384c.285-.76 1.178-1.319 2.681-1.319 1.423 0 2.239.5439 2.239 1.483v.0445c0 .7378-1.031.8347-3.653 1.0281-2.985.209-5.666.969-5.666 3.5246 0 2.2653 2.131 3.4126 5.008 3.4126zm1.198-2.1906c-1.287 0-2.21-.4544-2.21-1.3265 0-.8938.972-1.3336 2.446-1.4901.913-.097 2.405-.2606 2.906-.5141v1.2145c0 1.1997-1.306 2.1162-3.142 2.1162zm9.85 1.9744h4.183v-11.4449h-4.183zm2.101-12.9199c1.247 0 2.268-.7231 2.268-1.6098 0-.8791-1.021-1.6017-2.268-1.6017-1.237 0-2.258.7226-2.258 1.6017 0 .8867 1.021 1.6098 2.258 1.6098zm8.925 6.3034c.01-1.4754 1.168-2.3395 2.857-2.3395 1.679 0 2.691.8343 2.681 2.235v6.721h4.183v-7.2871c0-2.6676-2.062-4.3067-5.204-4.3067-2.239 0-3.859.8346-4.537 2.1682h-.177v-2.0193h-3.987v11.4449h4.184z"/><path d="m181.332 57.7473c1.257 0 2.347-.7973 2.356-1.7885-.009-.9761-1.099-1.7734-2.356-1.7734-1.297 0-2.367.7973-2.357 1.7734-.01.9912 1.06 1.7885 2.357 1.7885zm11.914.0298c4.016 0 6.54-1.7885 6.736-4.4184h-3.947c-.245 1.222-1.306 1.9073-2.74 1.9073-1.954 0-3.22-1.2443-3.22-3.4348 0-2.1612 1.276-3.3979 3.22-3.3979 1.532 0 2.514.7676 2.74 1.9073h3.947c-.176-2.645-2.818-4.3811-6.756-4.3811-4.576 0-7.403 2.4067-7.403 5.9162 0 3.4796 2.778 5.9014 7.423 5.9014zm15.538 0c4.576 0 7.424-2.3769 7.424-5.9014 0-3.5469-2.848-5.9162-7.424-5.9162s-7.424 2.3698-7.424 5.9162c0 3.5245 2.848 5.9014 7.424 5.9014zm.02-2.4591c-2.111 0-3.192-1.4679-3.192-3.4646 0-1.9971 1.081-3.4721 3.192-3.4721 2.071 0 3.152 1.475 3.152 3.4721 0 1.9967-1.081 3.4646-3.152 3.4646zm9.432 2.2354h4.183v-6.8699c0-1.2665 1.061-2.1087 2.455-2.1087 1.375 0 2.298.7154 2.298 1.8405v7.1381h4.055v-6.9891c0-1.1847.894-1.9895 2.416-1.9895 1.336 0 2.337.6336 2.337 1.9077v7.0709h4.173v-7.6971c0-2.4809-1.944-3.8968-4.752-3.8968-2.21 0-3.928.857-4.547 2.1683h-.157c-.481-1.326-2.023-2.1683-4.095-2.1683-2.032 0-3.574.8196-4.202 2.1683h-.177v-2.0193h-3.987z"/></g><g clip-path="url(#f)"><path d="m181.585 105.465-5.346-12.4431h3.585l3.646 8.9121 4.22-8.9121h3.523l-8.317 17.1381h-3.564zm-12.986-2.576c.307-.083.614-.187.901-.353.266-.145.532-.332.758-.54.225-.208.43-.457.594-.727.164-.291.307-.602.389-.914.102-.353.143-.7063.143-1.0802 0-.374-.041-.7271-.143-1.0803-.082-.3116-.225-.6232-.389-.914-.164-.2701-.369-.5194-.594-.7271-.226-.2077-.492-.3947-.758-.5401-.287-.1454-.594-.2493-.901-.3324-.328-.0831-.676-.1246-1.004-.1039-.328 0-.676.0416-1.004.1039-.307.0623-.614.187-.901.3324s-.533.3324-.758.5401-.43.457-.594.7271c-.164.2908-.307.6024-.389.914-.103.3532-.144.7271-.144 1.0803 0 .3531.041.7272.144 1.0802.082.312.225.623.389.914.164.27.369.519.594.727s.491.395.758.54c.287.146.573.27.901.353s.656.125 1.004.104c.328.021.655-.021 1.004-.104zm-3.626 2.784c-.553-.145-1.086-.353-1.577-.644-.963-.54-1.762-1.35-2.295-2.327-.286-.498-.491-1.038-.635-1.599-.286-1.205-.286-2.4515 0-3.6563.144-.5609.349-1.101.635-1.5996.533-.9764 1.332-1.7658 2.295-2.3266.491-.2701 1.024-.4986 1.577-.644.594-.1454 1.188-.2285 1.802-.2285.328 0 .656.0207.984.0623.307.0415.594.1039.88.187.267.083.533.1661.779.2908.246.1039.471.2285.696.3739.205.1246.41.2908.574.457s.328.3324.451.5194v-1.4957h3.4v12.5053h-3.4v-1.495c-.451.581-1.045 1.038-1.721 1.35-.389.187-.799.312-1.229.374-.471.083-.963.145-1.434.125-.594 0-1.188-.063-1.782-.229zm-12.332-9.4727c.492 0 .984-.0416 1.455-.1662.368-.1039.717-.2701 1.003-.5194.267-.2285.472-.5193.595-.8517.122-.3739.204-.7686.184-1.1633 0-.3947-.062-.7894-.184-1.1633-.123-.3324-.328-.6025-.595-.831-.286-.2285-.635-.4155-1.003-.4985-.471-.1247-.963-.187-1.455-.1662h-3.339v5.3596zm-6.862-8.3095h7.211c1.003-.0208 1.987.1246 2.929.4155.758.2285 1.454.644 2.048 1.1633.533.4986.943 1.101 1.209 1.7865.266.7271.41 1.4957.389 2.2644 0 .7686-.123 1.5372-.389 2.2435-.266.6855-.676 1.288-1.209 1.7865-.594.5402-1.29.9349-2.048 1.1634-.942.2908-1.946.4362-2.929.4154h-3.667v6.4187h-3.523zm-15.097 5.1311h3.38v1.4957c.205-.2908.451-.5609.738-.7686.287-.2285.614-.4363.963-.5817.368-.1662.778-.2908 1.188-.3739.45-.0831.901-.1247 1.372-.1247.717-.0207 1.434.1039 2.089.3532.594.2285 1.148.5817 1.598 1.0387.451.4778.779 1.0594.983 1.6826.246.7271.349 1.475.349 2.2436v7.5612h-3.38v-6.6679c0-.4778-.062-.9764-.205-1.4334-.123-.374-.307-.7271-.574-1.0387-.245-.2701-.573-.4986-.921-.6232-.799-.2701-1.68-.2701-2.499 0-.349.1246-.676.3531-.922.6232-.267.3116-.451.6647-.574 1.0387-.143.457-.205.9556-.205 1.4334v6.6679h-3.359zm-8.316 9.8261c.328-.083.635-.187.922-.353.286-.146.532-.333.758-.561.225-.229.409-.478.573-.748.164-.291.287-.582.348-.893.164-.6859.164-1.3922 0-2.0777-.143-.6232-.471-1.2049-.921-1.6411-.226-.2285-.492-.4155-.758-.5609-.287-.1662-.615-.2701-.922-.3532-.348-.0831-.717-.1246-1.065-.1246s-.717.0415-1.065.1246c-.328.0831-.635.187-.922.3532-.287.1454-.533.3324-.758.5609s-.41.4778-.574.7478c-.491.9141-.614 1.9735-.348 2.991.082.312.205.624.348.894.144.27.349.519.574.748.225.228.471.415.758.56.287.146.594.27.922.354.348.083.696.124 1.065.124.368 0 .717-.041 1.065-.145zm-3.052 2.825c-.615-.145-1.209-.353-1.762-.644-.532-.27-1.004-.602-1.454-.997-.43-.395-.799-.831-1.086-1.33-.307-.498-.532-1.038-.696-1.599-.328-1.205-.328-2.4722 0-3.6563.164-.5609.389-1.101.696-1.5996.615-.9971 1.495-1.8073 2.54-2.3266.553-.2909 1.147-.4986 1.762-.644 1.311-.3116 2.683-.3116 3.994 0 .615.1454 1.188.3531 1.741.644.533.27 1.004.6024 1.455 1.0179.43.3947.799.8309 1.106 1.3295.307.4985.553 1.0387.696 1.5996.328 1.2048.328 2.472 0 3.6565-.307 1.142-.942 2.16-1.802 2.929-.43.394-.922.727-1.455.997-.553.291-1.147.498-1.741.644-1.311.291-2.683.291-3.994-.021zm-13.151-2.825c.328-.083.635-.187.922-.353.287-.146.532-.333.758-.561.225-.229.409-.478.573-.748.164-.291.287-.582.348-.893.164-.6859.164-1.3922 0-2.0777-.143-.6232-.471-1.2049-.921-1.6411-.226-.2285-.492-.4155-.758-.5609-.287-.1662-.615-.2701-.922-.3532-.348-.0831-.717-.1246-1.065-.1246s-.717.0415-1.065.1246c-.328.0831-.635.187-.922.3532-.266.1454-.533.3324-.758.5609-.225.2077-.41.4778-.574.7478-.143.2909-.266.5817-.348.8933-.082.3324-.143.6855-.123 1.0387 0 .3531.041.7063.123 1.039.082.311.205.623.348.893.144.27.349.519.574.748.225.228.471.415.758.561.287.145.594.27.922.353.348.083.696.124 1.065.124.348 0 .717-.041 1.065-.124zm-3.073 2.825c-.614-.145-1.208-.353-1.761-.644-.533-.27-1.004-.602-1.4546-.997-.4302-.395-.7989-.831-1.0857-1.33-.3072-.498-.5326-1.038-.6964-1.599-.3278-1.205-.3278-2.4722 0-3.6563.1638-.5609.3892-1.101.6964-1.5996.3073-.4986.676-.9348 1.0857-1.3295.4306-.3947.9216-.7479 1.4546-1.0179.553-.2908 1.147-.4986 1.761-.644 1.311-.2908 2.684-.2908 3.995 0 .614.1454 1.188.3532 1.741.644.533.27 1.004.6024 1.454 1.0179.43.3947.799.8309 1.106 1.3295.308.4986.554 1.0387.697 1.5996.328 1.2048.328 2.472 0 3.6563-.307 1.142-.942 2.16-1.803 2.929-.43.395-.921.727-1.454.997-.553.291-1.147.499-1.741.644-1.291.312-2.663.312-3.995 0zm-26.6289-17.7822h3.5642l6.0633 9.4105 6.1042-9.4105h3.5438v17.6572h-3.5233v-12.1106l-5.0391 7.8106h-2.1508l-5.0391-7.8106v12.1106h-3.5232z"/><path d="m68.3493 91.0485c1.9665 0 3.5438-1.6204 3.5438-3.5939 0-1.9942-1.5978-3.5938-3.5438-3.5938-1.9665 0-3.5437 1.6203-3.5437 3.5938s1.5772 3.5939 3.5437 3.5939zm-10.8975 16.2245c-4.7933 0-8.6648-3.927-8.6648-8.7876 0-4.861 3.8715-8.7872 8.6648-8.7872s8.6647 3.9262 8.6647 8.7872c0 4.8606-3.8714 8.7876-8.6647 8.7876z"/></g></g><g clip-path="url(#g)"><g fill="#fff"><path d="m124.146 140.883c-1.515 0-2.736.577-3.287 1.351v-1.049h-4.972v1.705h2.769v4.486h-2.786v1.705l8.671-.027v-1.679h-3.475v-2.819c0-1.404 1.221-1.942 2.288-1.942.327 0 .655.053.774.132-.086.17-.121.327-.121.499 0 .616.569 1.154 1.548 1.154.792 0 1.634-.499 1.634-1.456.002-1.248-1.478-2.06-3.043-2.06z"/><path d="m108.609 140.87c-3.166 0-5.574 1.862-5.574 4.224 0 2.255 2.409 4.249 5.609 4.249 1.962 0 3.527-.472 4.577-1.39l-1.462-1.377c-.671.525-1.704.945-3.114.945-1.548 0-2.839-.853-2.994-1.837l8.242.013c.035-.118.068-.223.068-.603-.001-2.323-2.169-4.224-5.352-4.224zm-2.959 3.358c.326-1.01 1.583-1.627 2.941-1.627 1.308 0 2.547.59 2.77 1.627z"/><path d="m99.5762 144.084c0-1.915-1.669-3.214-4.061-3.214-1.7724 0-3.1484.63-3.7853 1.6-.5511-.983-1.806-1.6-3.3556-1.6-1.5828 0-2.5813.655-3.0113 1.364h-.035v-1.049l-4.3188.014v1.692h1.9443v6.165h2.4095v-4.396c0-1.207 1.032-1.993 2.4094-1.993s2.2884.655 2.2884 1.98v4.407h2.4095v-4.407c0-1.194 1.1004-1.98 2.4779-1.98 1.36 0 2.2199.655 2.2199 1.902v4.486h4.3369v-1.679h-1.9273v-3.292z"/><path d="m174.884 142.89h1.102l-2.238 4.263-2.408-4.263h1.257v-1.706h-5.077v1.706h1.393l3.51 6.164-1.874 3.595h2.615l5.075-9.759h1.515v-1.706h-4.87z"/><path d="m163.564 140.883c-1.515 0-2.736.577-3.287 1.351v-1.049h-4.972v1.705h2.77v4.486h-2.787v1.705l8.671-.027v-1.679h-3.475v-2.819c0-1.404 1.221-1.941 2.288-1.941.327 0 .655.052.774.131-.086.17-.121.327-.121.499 0 .616.569 1.154 1.548 1.154.792 0 1.634-.499 1.634-1.456.002-1.247-1.478-2.06-3.043-2.06z"/><path d="m186.24 140.87c-3.098 0-5.644 1.902-5.644 4.237s2.546 4.237 5.644 4.237c3.113 0 5.644-1.902 5.644-4.237s-2.531-4.237-5.644-4.237zm0 6.703c-1.79 0-3.235-1.103-3.235-2.466 0-1.364 1.446-2.466 3.235-2.466 1.79 0 3.234 1.102 3.234 2.466 0 1.363-1.444 2.466-3.234 2.466z"/><path d="m137.515 145.028c.928 0 1.704-.524 1.704-1.403 0-1.22-1.876-2.755-5.042-2.755s-5.574 1.862-5.574 4.224c0 2.256 2.409 4.249 5.609 4.249 2.271 0 3.803-.708 4.817-1.573l-1.428-1.338c-.827.721-1.841 1.102-3.235 1.102-1.548 0-3.148-.866-3.148-2.479 0-1.639 1.6-2.374 3.011-2.374 1.032 0 1.652.184 2.134.486-.258.21-.379.524-.379.761-.001.64.704 1.1 1.531 1.1z"/><path d="m151.95 141.184h-2.41v4.394c0 1.207-1.032 1.994-2.409 1.994-1.378 0-2.289-.656-2.289-1.981v-4.407h-4.336v1.679h1.927v2.86c0 1.941 1.428 3.607 3.991 3.607 1.618 0 2.718-.617 3.148-1.338h.018v1.062l4.301-.013v-1.693h-1.944v-6.164z"/><path d="m61.1277 134.079c-7.1786 0-12.998 4.437-12.998 9.909 0 5.473 5.8194 9.909 12.998 9.909 7.1785 0 12.998-4.436 12.998-9.909 0-5.472-5.8195-9.909-12.998-9.909z"/></g><g mask="url(#i)"><path d="m52.4213 145.804c0 2.293.8986 4.137 1.6592 5.613.657 1.291.657 1.502.657 2.503h.484c0-.922 0-1.265-.7256-2.635-.7606-1.449-1.6241-3.241-1.6241-5.481 0-2.371.3804-4.374 1.1059-5.77.3803-.738.7949-1.001 1.5205-1.001.7606 0 1.5555.211 1.7971 1.66.2767 1.686.7949 3.083 1.3483 4.558.8643 2.292 1.7629 4.611 1.5898 8.3-2.0738-.342-2.7993-1.133-3.0066-3.873l-.6913-8.511c-.0694-.764-.3803-1.107-1.0022-1.107s-.8986.474-1.0716.975c-.2073.553-.8986 3.135-.6219 5.77.173 1.608.8643 2.978 1.4519 4.164.8986 1.686.8986 1.818.9328 2.951h.484c0-1.001-.0342-1.291-.9679-3.083-.5877-1.159-1.2447-2.503-1.4168-4.058-.2767-2.582.3803-5.112.5876-5.639.2415-.632.4497-.711.6219-.711.173 0 .4497 0 .5182.764l.6913 8.484c.2073 2.74.9328 4.242 4.3549 4.242s4.1477-1.502 4.355-4.242l.6913-8.484c.0693-.764.3452-.764.5182-.764s.3804.079.6218.711c.2075.527.8645 3.056.5877 5.639-.173 1.555-.8291 2.898-1.4168 4.058-.9329 1.792-.9679 2.082-.9679 3.083h.4839c.0343-1.133.0343-1.265.9329-2.951.5877-1.186 1.2788-2.556 1.4519-4.164.2767-2.635-.4147-5.217-.6219-5.77-.173-.501-.4498-.975-1.0716-.975-.6219 0-.9329.343-1.0022 1.107l-.6914 8.511c-.2072 2.74-.9327 3.531-3.0066 3.873-.173-3.689.7256-6.007 1.5898-8.3.5534-1.476 1.0716-2.872 1.3484-4.558.2416-1.449 1.0365-1.66 1.7972-1.66.7254 0 1.1409.263 1.5204 1.001.7255 1.396 1.1059 3.399 1.1059 5.77 0 2.24-.8643 4.032-1.6243 5.481-.7254 1.37-.7254 1.713-.7254 2.635h.484c0-1.001 0-1.212.657-2.503.7607-1.476 1.6591-3.32 1.6591-5.613 0-2.424-.3802-4.453-1.1409-5.902-.3452-.632-.7949-1.212-1.9358-1.212-1.4863 0-2.074.764-2.247 1.976-.2415 1.66-.7606 3.03-1.3131 4.479-.8986 2.319-1.7972 4.743-1.6241 8.459-.1037 0-.2416 0-.4146 0h-.4146c.173-3.716-.7256-6.14-1.6241-8.459-.5534-1.449-1.0716-2.819-1.3132-4.479-.173-1.212-.7607-1.976-2.2469-1.976-1.1409 0-1.5898.58-1.9359 1.212-.7623 1.449-1.1426 3.478-1.1426 5.902zm8.7792-8.458h-.2415c-.2416.949-.6913 1.265-1.9359 1.476v.132c1.2446.211 1.6935.553 1.9359 1.502h.2415c.2416-.949.7256-1.291 1.9009-1.502v-.132c-1.1753-.211-1.6593-.527-1.9009-1.476z" fill="#000"/></g></g><g clip-path="url(#h)" fill="#fff"><path d="m76 186.775 1.7656-1.506c.9858.441 3.1045.889 4.6641.889 1.2653 0 1.7803-.176 1.7803-.463 0-.822-7.7245.03-7.7245-2.658 0-1.167 2.0305-2.181 5.6941-2.181 2.2511 0 4.1197.36 5.5469.881l-1.6185 1.498c-.7945-.381-2.31-.727-3.899-.727-.9858 0-1.6479.191-1.6479.456 0 .727 7.695-.03 7.695 2.687 0 1.263-2.2217 2.166-6.0177 2.166-2.3982-.014-4.8406-.411-6.2384-1.042z"/><path d="m88.6093 179.204c0-.668 1.074-1.204 2.4129-1.204s2.4424.536 2.4424 1.204-1.0887 1.219-2.4424 1.219c-1.3389 0-2.4129-.543-2.4129-1.219z"/><path d="m88.9182 181.018h4.2375v6.623h-4.2375z"/><path d="m111.444 187.641v-4.031c0-.507-.5-.889-1.765-.889-1.148 0-1.972.368-2.384.647v4.28h-4.237v-4.038c0-.507-.471-.889-1.736-.889-1.148 0-1.9574.368-2.384.647v4.28h-4.2375v-6.63h4.2375v.58l-.4414.492c.1618-.103.3237-.198.4414-.264.5738-.382 2.281-.977 4.37-.977 1.927 0 3.207.397 3.766 1.182.765-.573 2.502-1.182 4.591-1.182 2.442 0 3.987.631 3.987 1.99v4.802z"/><path d="m121.464 186.855c-.103-.066-.177-.146-.25-.227l.25.734v2.805h-4.237v-9.149h4.237v.771c1.045-.632 2.413-.933 3.928-.933 3.326 0 5.827 1.234 5.827 3.466 0 2.247-2.501 3.481-5.827 3.481-1.486 0-2.825-.287-3.928-.948zm5.444-2.533c0-.984-1.265-1.601-2.913-1.601-.913 0-2.001.25-2.531.603v2.011c.515.346 1.618.603 2.531.603 1.648 0 2.913-.617 2.913-1.616z"/><path d="m131.91 187.641v-9.149h4.238v9.142h-4.238z"/><path d="m136.854 184.322c0-1.916 2.884-3.466 7.033-3.466 3.928 0 6.783 1.44 6.783 3.686v.478h-9.122l-.354-.235c-.014.073-.014.147.03.235.309.587 1.398 1.086 3.325 1.086.927 0 2.472-.205 3.237-.565l1.839 1.388c-1.324.587-3.516.881-5.547.881-4.105-.007-7.224-1.336-7.224-3.488zm7.033-1.769c-1.839 0-2.56.55-2.722 1.028h5.459c-.103-.47-.795-1.028-2.737-1.028z"/><path d="m159.292 187.641-2.531-2.004-2.604 2.004h-4.62l4.532-3.4-4.253-3.223h4.65l2.28 1.799.162.125v-.257l2.089-1.667h4.65l-4.238 3.223 4.532 3.4z"/><path d="m147.212 191.849c0-.265-.279-.36-.706-.36-.412 0-.677.11-.839.213v1.395h-1.397v-2.166h1.383v.191l-.177.161c.265-.154.942-.404 1.663-.404.985 0 1.442.287 1.442.683v1.535h-1.369z"/><path d="m151.935 192.781c-.265.154-.912.375-1.633.375-.986 0-1.427-.279-1.427-.676v-1.542h1.383v1.256c0 .257.265.352.721.352.397 0 .662-.11.824-.213v-1.395h1.383v2.166h-1.383v-.161z"/><path d="m160.013 190.879c1.28 0 2.221.47 2.221 1.205v.146h-2.986l-.118-.08c0 .029.015.066.029.095.103.191.471.367 1.104.367.382 0 .824-.073 1.059-.183l.589.433c-.427.191-1.148.286-1.81.286-1.339 0-2.369-.433-2.369-1.138-.015-.624.927-1.131 2.281-1.131zm-.883.911h1.78c-.029-.154-.265-.375-.897-.375-.604 0-.824.213-.883.375z"/><path d="m162.514 190.938h1.383v2.166h-1.383z"/><path d="m156.599 190.938-.927 1.285.03.198-1.06-1.483h-1.177v.345l1.427 1.814h1.472l1.707-2.159z"/><path d="m162.411 190.27c0-.22.353-.397.794-.397.442 0 .795.177.795.397s-.353.396-.795.396c-.441-.007-.794-.176-.794-.396z"/><path d="m131.91 193.119v-3.003h.942v1.13c.353-.235.853-.352 1.398-.352 1.133 0 1.942.441 1.942 1.138 0 .72-.824 1.146-1.942 1.146-.559 0-1.06-.133-1.398-.353v.294zm2.075-.367c.75 0 1.221-.301 1.221-.727 0-.419-.485-.72-1.221-.72-.456 0-.912.132-1.133.294v.866c.221.162.677.287 1.133.287z"/><path d="m137.163 193.545c.103.022.25.036.368.036.309 0 .5-.044.633-.19l.22-.25-1.795-2.203h1.015l1.266 1.63 1.28-1.63h1.015l-2.104 2.57c-.294.367-.809.485-1.486.492-.132 0-.412-.015-.53-.029z"/></g><path d="m240 0h60v240h-60z" fill="url(#b)" transform="matrix(0 1 -1 0 240 -240)"/><path d="m0 194h60v240h-60z" fill="url(#c)" transform="matrix(0 -1 1 0 -194 194)"/></svg>