<svg fill="none" height="362" viewBox="0 0 328 362" width="328" xmlns="http://www.w3.org/2000/svg" xmlns:xlink="http://www.w3.org/1999/xlink"><mask id="a" fill="#fff"><path d="m180 111h116v34h-116z" fill="#fff"/></mask><mask id="b" fill="#fff"><path d="m180 213h116v34h-116z" fill="#fff"/></mask><rect fill="#3e3e3e" height="362" rx="16" width="328"/><path d="m26.8105 43.7148v2.2852h-7.5683v-2.2852zm-6.6113-11.9336v14.2188h-2.9297v-14.2188zm5.625 5.7911v2.2265h-6.582v-2.2265zm.9766-5.7911v2.295h-7.5586v-2.295zm3.8086 3.6524 1.748 3.2129 1.7969-3.2129h2.998l-2.9882 5.166 3.125 5.4004h-3.0079l-1.9042-3.3984-1.9043 3.3984h-3.0079l3.125-5.4004-2.9882-5.166zm12.0801 8.5644c.345 0 .651-.0651.9179-.1953.2669-.1367.4753-.3255.625-.5664.1563-.2474.2377-.5371.2442-.8691h2.6464c-.0065.7422-.205 1.403-.5957 1.9824-.3906.5729-.9147 1.0254-1.5722 1.3574-.6576.3256-1.3933.4883-2.2071.4883-.8203 0-1.5364-.1367-2.1484-.4101-.6055-.2735-1.11-.6511-1.5137-1.1329-.4036-.4882-.7063-1.0546-.9082-1.6992-.2018-.651-.3027-1.3476-.3027-2.0898v-.2832c0-.7487.1009-1.4453.3027-2.0899.2019-.651.5046-1.2174.9082-1.6992.4037-.4883.9082-.8691 1.5137-1.1426.6055-.2734 1.3151-.4101 2.1289-.4101.8659 0 1.6244.166 2.2754.498.6576.3321 1.1719.8073 1.543 1.4258.3776.612.5696 1.3379.5761 2.1777h-2.6464c-.0065-.3515-.0814-.6705-.2246-.957-.1368-.2864-.3386-.5143-.6055-.6836-.2604-.1758-.5827-.2637-.9668-.2637-.4102 0-.7455.0879-1.0059.2637-.2604.1693-.4622.4037-.6054.7031-.1433.293-.2442.6283-.3028 1.0059-.0521.3711-.0781.7617-.0781 1.1719v.2832c0 .4101.026.804.0781 1.1816s.1498.7129.293 1.0059c.1497.293.3548.5241.6152.6933.2604.1693.599.2539 1.0157.2539zm8.8085-12.998v15h-2.8125v-15zm-.4003 9.3457h-.7715c.0065-.7357.1041-1.4128.2929-2.0312.1888-.625.459-1.1654.8106-1.6211.3515-.4623.7715-.8204 1.2598-1.0743.4947-.2539 1.0416-.3808 1.6406-.3808.5208 0 .9928.0749 1.416.2246.4297.1432.7975.3776 1.1035.7031.3125.319.5534.7389.7227 1.2598.1692.5208.2539 1.1523.2539 1.8945v6.6797h-2.8321v-6.6992c0-.4688-.0683-.8366-.205-1.1035-.1302-.2735-.3223-.4655-.5762-.5762-.2474-.1172-.5534-.1758-.918-.1758-.4036 0-.7487.0749-1.0351.2246-.28.1498-.5046.3581-.6739.625-.1692.2604-.2929.5664-.3711.918-.0781.3516-.1171.7292-.1171 1.1328zm14.5703 3.2715v-4.707c0-.3386-.0554-.6283-.166-.8692-.1107-.2474-.2832-.4394-.5176-.5762-.2279-.1367-.5241-.205-.8887-.205-.3125 0-.5827.0553-.8105.166-.2279.1041-.4037.2571-.5274.459-.1237.1953-.1855.4264-.1855.6933h-2.8125c0-.4492.1041-.8756.3125-1.2793.2083-.4036.511-.7584.9082-1.0644.3971-.3125.8691-.5567 1.416-.7324.5534-.1758 1.1719-.2637 1.8555-.2637.8203 0 1.5494.1367 2.1875.4101.638.2735 1.1393.6836 1.5039 1.2305.3711.5469.5566 1.2305.5566 2.0508v4.5215c0 .5794.0358 1.0547.1074 1.4258.0716.3645.1758.6835.3125.957v.166h-2.8418c-.1367-.2865-.2409-.6445-.3125-1.0742-.0651-.4362-.0976-.8724-.0976-1.3086zm.3711-4.0527.0195 1.5917h-1.5723c-.3711 0-.6933.0424-.9668.127-.2734.0846-.498.2051-.6738.3613-.1758.1498-.306.3256-.3906.5274-.0781.2018-.1172.4232-.1172.664 0 .2409.0553.459.166.6543.1107.1888.2702.3386.4785.4493.2084.1041.4525.1562.7324.1562.4232 0 .7911-.0846 1.1036-.2539s.5533-.3776.7226-.625c.1758-.2474.2669-.4818.2735-.7031l.7421 1.1914c-.1041.2669-.2474.5436-.4296.8301-.1758.2864-.4004.5566-.6739.8105-.2734.2474-.6022.4525-.9863.6152-.3841.1563-.8398.2344-1.3672.2344-.6706 0-1.2793-.1335-1.8262-.4004-.5403-.2734-.97-.6478-1.289-1.123-.3125-.4818-.4688-1.0287-.4688-1.6407 0-.5533.1042-1.0449.3125-1.4746.2084-.4296.5143-.791.918-1.0839.4101-.2995.9212-.5241 1.5332-.6739.612-.1562 1.3216-.2343 2.1289-.2343zm7.3828-1.875v8.3105h-2.8125v-10.5664h2.6367zm-.4102 2.6562h-.7617c0-.7812.1009-1.4844.3027-2.1094.2019-.6315.4851-1.1686.8496-1.6113.3646-.4492.7976-.791 1.2989-1.0254.5078-.2409 1.0742-.3613 1.6992-.3613.4948 0 .9473.0716 1.3574.2148.4102.1433.7617.3711 1.0547.6836.2995.3125.5273.7259.6836 1.2403.1628.5143.2441 1.1425.2441 1.8847v6.7383h-2.832v-6.748c0-.4688-.0651-.8334-.1953-1.0938s-.3223-.4427-.5762-.5469c-.2474-.1106-.5534-.166-.9179-.166-.3777 0-.7064.0749-.9864.2246-.2734.1498-.5013.3581-.6836.625-.1758.2604-.3092.5664-.4004.918-.0911.3516-.1367.7292-.1367 1.1328zm15.5567-4.9121h2.5488v10.2148c0 .9636-.2149 1.7806-.6445 2.4512-.4232.6771-1.0157 1.1882-1.7774 1.5332-.7617.3516-1.6471.5274-2.6562.5274-.4427 0-.9115-.0586-1.4063-.1758-.4883-.1172-.957-.2995-1.4062-.5469-.4427-.2474-.8138-.5599-1.1133-.9375l1.2402-1.6602c.3255.3776.7031.6706 1.1328.879.4297.2148.905.3222 1.4258.3222.5078 0 .9375-.0944 1.2891-.2832.3515-.1823.6217-.4525.8105-.8105.1888-.3516.2832-.778.2832-1.2793v-7.793zm-7.1094 5.4102v-.2051c0-.8073.0976-1.5397.293-2.1973.2018-.6641.485-1.2337.8496-1.709.3711-.4752.8203-.8431 1.3476-1.1035.5274-.2604 1.1231-.3906 1.7871-.3906.7032 0 1.2923.1302 1.7676.3906s.8659.6315 1.1719 1.1133c.306.4752.5436 1.0384.7129 1.6894.1758.6446.3125 1.351.4101 2.1192v.4492c-.0976.7357-.2441 1.4193-.4394 2.0508s-.4525 1.1849-.7715 1.6601c-.319.4688-.7162.8334-1.1914 1.0938-.4688.2604-1.0287.3906-1.6797.3906s-1.2402-.1335-1.7676-.4004c-.5208-.2669-.9668-.6413-1.3379-1.123-.3711-.4818-.6575-1.0482-.8593-1.6992-.1954-.6511-.293-1.3607-.293-2.1289zm2.8125-.2051v.2051c0 .4361.0423.843.1269 1.2207.0847.3776.2149.7128.3907 1.0058.1823.2865.4069.5111.6738.6738.2734.1563.5957.2344.9668.2344.5143 0 .9342-.1074 1.2598-.3223.3255-.2213.5696-.524.7324-.9082.1627-.3841.2571-.8268.2832-1.3281v-1.2793c-.013-.4101-.0684-.778-.166-1.1035-.0977-.332-.2344-.6152-.4102-.8496s-.4036-.4167-.6836-.5469c-.2799-.1302-.612-.1953-.9961-.1953-.3711 0-.6933.0846-.9668.2539-.2669.1628-.4915.3874-.6738.6738-.1758.2865-.3093.625-.4004 1.0157-.0911.3841-.1367.8008-.1367 1.25zm13.8965 5.5566c-.8203 0-1.556-.1302-2.2071-.3906-.651-.2669-1.2044-.6348-1.6601-1.1035-.4492-.4688-.7943-1.0124-1.0352-1.6309-.2409-.625-.3613-1.2891-.3613-1.9922v-.3906c0-.8008.1139-1.5332.3418-2.1973.2279-.664.5534-1.2402.9766-1.7285.4296-.4883.9505-.8626 1.5625-1.123.6119-.267 1.302-.4004 2.0703-.4004.7487 0 1.4127.1237 1.9922.3711.5793.2474 1.0643.5989 1.4553 1.0547.397.4557.696 1.0026.898 1.6406.202.6315.303 1.3346.303 2.1094v1.1718h-8.3985v-1.875h5.6347v-.2148c0-.3906-.0716-.7389-.2148-1.0449-.1367-.3125-.3451-.5599-.625-.7422-.28-.1823-.638-.2735-1.0742-.2735-.3711 0-.6901.0814-.9571.2442-.2669.1627-.485.3906-.6543.6836-.1627.2929-.2864.638-.371 1.0351-.0782.3907-.1172.8204-.1172 1.2891v.3906c0 .4232.0586.8138.1757 1.1719.1237.3581.2963.6673.5176.9277.2279.2605.5013.4623.8203.6055.3256.1432.6934.2148 1.1036.2148.5078 0 .9798-.0976 1.416-.2929.4422-.2018.8232-.5046 1.1422-.9082l1.368 1.4843c-.222.3191-.525.625-.909.918-.377.293-.833.5339-1.3669.7227-.5338.1823-1.1425.2734-1.8261.2734zm19.336-4.9121h2.92c-.059.957-.322 1.8066-.791 2.5488-.462.7422-1.11 1.3216-1.944 1.7383-.826.4167-1.822.625-2.988.625-.911 0-1.728-.1562-2.451-.4687-.723-.319-1.341-.7748-1.855-1.3672-.508-.5925-.896-1.3086-1.163-2.1485-.267-.8398-.4-1.7806-.4-2.8222v-.9864c0-1.0416.137-1.9824.41-2.8222.28-.8464.677-1.5658 1.192-2.1582.52-.5925 1.142-1.0482 1.865-1.3672.722-.319 1.53-.4785 2.422-.4785 1.185 0 2.184.2148 2.998.6445.82.4297 1.455 1.0221 1.904 1.7773.456.7553.729 1.6146.82 2.5782h-2.929c-.033-.5729-.147-1.058-.342-1.4551-.195-.4037-.492-.7064-.889-.9082-.39-.2083-.911-.3125-1.562-.3125-.489 0-.915.0911-1.28.2734-.364.1823-.67.459-.918.8301-.247.3711-.433.8399-.556 1.4063-.117.5599-.176 1.2174-.176 1.9726v1.0059c0 .7356.055 1.3834.166 1.9433.111.5534.28 1.0222.508 1.4063.234.3776.534.664.898.8594.371.1888.817.2832 1.338.2832.612 0 1.117-.0977 1.514-.293s.7-.485.908-.8691c.215-.3842.342-.8627.381-1.4356zm7.48-3.5449v8.2617h-2.812v-10.5664h2.646zm3.184-2.3731-.049 2.6075c-.137-.0196-.303-.0359-.498-.0489-.189-.0195-.361-.0293-.517-.0293-.398 0-.743.0521-1.036.1563-.286.0976-.527.2441-.722.4394-.189.1953-.332.433-.43.7129-.091.28-.143.599-.156.9571l-.567-.1758c0-.6836.069-1.3119.205-1.8848.137-.5794.336-1.084.596-1.5137.267-.4297.593-.7617.977-.9961.384-.2343.823-.3515 1.318-.3515.156 0 .316.013.479.039.162.0196.296.0489.4.0879zm4.639 9.4434 2.802-9.375h3.018l-4.248 12.1582c-.091.2669-.215.5534-.371.8594-.15.306-.355.5957-.615.8691-.254.28-.577.5078-.967.6836-.384.1758-.856.2637-1.416.2637-.267 0-.485-.0163-.655-.0488-.169-.0326-.371-.0782-.605-.1368v-2.0605h.225c.078.0065.153.0097.224.0097.371 0 .674-.0423.908-.1269.235-.0846.424-.2148.567-.3906.143-.1693.257-.3907.342-.6641zm-1.172-9.375 2.295 7.6562.4 2.9786-1.914.205-3.799-10.8398zm10.927 2.0312v12.5977h-2.812v-14.6289h2.607zm6.69 3.1348v.2051c0 .7682-.091 1.4811-.273 2.1387-.176.6575-.437 1.2304-.782 1.7187-.345.4818-.774.8594-1.289 1.1328-.508.2669-1.094.4004-1.758.4004-.644 0-1.204-.1302-1.679-.3906-.476-.2604-.876-.625-1.201-1.0938-.319-.4752-.577-1.0254-.772-1.6504s-.345-1.2955-.449-2.0117v-.5371c.104-.7682.254-1.4713.449-2.1094.195-.6445.453-1.2011.772-1.6699.325-.4752.722-.8431 1.191-1.1035.475-.2604 1.032-.3906 1.67-.3906.67 0 1.26.1269 1.767.3808.515.2539.944.6185 1.29 1.0938.351.4753.615 1.0417.791 1.6992.182.6576.273 1.3867.273 2.1875zm-2.822.2051v-.2051c0-.4492-.039-.8626-.118-1.2402-.071-.3841-.188-.7194-.351-1.0059-.156-.2864-.365-.5078-.625-.664-.254-.1628-.563-.2442-.928-.2442-.384 0-.713.0619-.986.1856-.267.1237-.485.3027-.654.5371-.17.2343-.297.5143-.381.8398-.085.3255-.137.6934-.157 1.1035v1.3575c.033.4817.124.9147.274 1.2988.15.3776.381.6771.693.8984.313.2214.723.332 1.231.332.371 0 .683-.0813.937-.2441.254-.1693.459-.4004.615-.6934.163-.2929.277-.6315.342-1.0156.072-.3841.108-.7975.108-1.2402zm9.746-5.3711v1.9922h-6.153v-1.9922zm-4.629-2.6074h2.812v9.9902c0 .306.039.5404.118.7031.084.1628.208.2767.371.3418.162.0586.367.0879.615.0879.176 0 .332-.0065.469-.0195.143-.0195.263-.0391.361-.0586l.01 2.0703c-.241.0781-.502.14-.782.1856-.279.0455-.589.0683-.927.0683-.619 0-1.159-.1009-1.621-.3027-.456-.2084-.808-.5404-1.055-.9961s-.371-1.0547-.371-1.7969zm5.527 7.998v-.2051c0-.7747.111-1.4876.332-2.1386.222-.6576.544-1.2272.967-1.709s.944-.8561 1.563-1.1231c.618-.2734 1.328-.4101 2.128-.4101.801 0 1.514.1367 2.139.4101.625.267 1.149.6413 1.572 1.1231.43.4818.756 1.0514.977 1.709.221.651.332 1.3639.332 2.1386v.2051c0 .7682-.111 1.4811-.332 2.1387-.221.651-.547 1.2207-.977 1.709-.423.4817-.944.8561-1.562 1.123-.619.2669-1.328.4004-2.129.4004s-1.514-.1335-2.139-.4004c-.618-.2669-1.142-.6413-1.572-1.123-.423-.4883-.745-1.058-.967-1.709-.221-.6576-.332-1.3705-.332-2.1387zm2.813-.2051v.2051c0 .4427.039.8561.117 1.2403.078.3841.202.7226.371 1.0156.176.2864.404.511.684.6738s.621.2441 1.025.2441c.391 0 .726-.0813 1.006-.2441s.504-.3874.674-.6738c.169-.293.293-.6315.371-1.0156.084-.3842.127-.7976.127-1.2403v-.2051c0-.4296-.043-.8333-.127-1.2109-.078-.3841-.205-.7227-.381-1.0156-.169-.2995-.394-.5339-.674-.7031-.28-.1693-.618-.254-1.016-.254-.397 0-.735.0847-1.015.254-.274.1692-.498.4036-.674.7031-.169.2929-.293.6315-.371 1.0156-.078.3776-.117.7813-.117 1.2109z" fill="#fff"/><path d="m17.6133 82.0469 2.584 4.997 2.5908-4.997h1.4971l-3.4317 6.2343v3.7188h-1.3193v-3.7188l-3.4317-6.2343zm6.9726 6.3369v-.1572c0-.5332.0775-1.0277.2325-1.4834.1549-.4603.3782-.8591.6699-1.1963.2916-.3418.6448-.6061 1.0596-.793.4147-.1914.8795-.2871 1.3945-.2871.5195 0 .9866.0957 1.4014.2871.4192.1869.7747.4512 1.0664.793.2962.3372.5218.736.6767 1.1963.155.4557.2324.9502.2324 1.4834v.1572c0 .5332-.0774 1.0277-.2324 1.4834-.1549.4557-.3805.8545-.6767 1.1963-.2917.3372-.6449.6015-1.0596.7929-.4102.1869-.875.2803-1.3945.2803-.5196 0-.9867-.0934-1.4014-.2803-.4147-.1914-.7702-.4557-1.0664-.7929-.2917-.3418-.515-.7406-.6699-1.1963-.155-.4557-.2325-.9502-.2325-1.4834zm1.2647-.1572v.1572c0 .3691.0433.7178.1299 1.0459.0866.3236.2164.6107.3896.8613.1778.2507.3988.4489.6631.5947.2643.1413.5719.212.9229.212.3463 0 .6494-.0707.9091-.212.2644-.1458.4831-.344.6563-.5947.1732-.2506.303-.5377.3896-.8613.0912-.3281.1368-.6768.1368-1.0459v-.1572c0-.3646-.0456-.7087-.1368-1.0323-.0866-.3281-.2187-.6175-.3965-.8681-.1731-.2552-.3919-.4558-.6562-.6016-.2598-.1458-.5651-.2187-.916-.2187-.3464 0-.6517.0729-.916.2187-.2598.1458-.4785.3464-.6563.6016-.1732.2506-.303.54-.3896.8681-.0866.3236-.1299.6677-.1299 1.0323zm11.5801 2.0644v-5.6875h1.2714v7.3965h-1.2099zm.2392-1.5586.5264-.0136c0 .4921-.0524.9479-.1572 1.3671-.1003.4148-.2644.7748-.4922 1.0801-.2279.3054-.5264.5446-.8955.7178-.3692.1686-.8181.2529-1.3467.2529-.36 0-.6904-.0524-.9912-.1572-.2962-.1048-.5515-.2666-.7656-.4854-.2142-.2187-.3806-.5035-.4991-.8545-.1139-.3509-.1709-.7724-.1709-1.2646v-4.7715h1.2647v4.7852c0 .3327.0364.6084.1094.8271.0774.2142.18.3851.3076.5127.1321.1231.278.2097.4375.2598.164.0501.3327.0752.5058.0752.5378 0 .9639-.1026 1.2783-.3076.3145-.2097.5401-.4899.6768-.8409.1413-.3554.2119-.7496.2119-1.1826zm10.7393 1.3057c0-.1823-.041-.3509-.1231-.5059-.0774-.1595-.2392-.303-.4853-.4306-.2416-.1322-.6061-.2461-1.0938-.3418-.4101-.0866-.7815-.1892-1.1142-.3077-.3282-.1184-.6084-.262-.8408-.4306-.2279-.1686-.4034-.3669-.5264-.5947-.1231-.2279-.1846-.4945-.1846-.7998 0-.2917.0638-.5674.1914-.8272.1322-.2598.3168-.4899.5537-.6904.2416-.2005.531-.3578.8682-.4717s.7132-.1709 1.1279-.1709c.5925 0 1.0983.1048 1.5176.3144.4193.2097.7406.49.9639.8409.2233.3463.3349.7314.3349 1.1552h-1.2646c0-.205-.0615-.4033-.1846-.5947-.1185-.1959-.2939-.3577-.5264-.4853-.2278-.1276-.5081-.1914-.8408-.1914-.3509 0-.6357.0546-.8545.164-.2142.1048-.3714.2393-.4716.4033-.0957.1641-.1436.3373-.1436.5196 0 .1367.0228.2597.0684.3691.0501.1048.1367.2028.2597.294.1231.0865.2962.1686.5196.2461.2233.0774.5081.1549.8544.2324.6062.1367 1.1052.3008 1.4971.4922s.6836.4261.875.7041.2871.6152.2871 1.0117c0 .3236-.0683.6198-.205.8887-.1322.2688-.3259.5013-.5811.6972-.2507.1914-.5514.3418-.9023.4512-.3464.1048-.7361.1572-1.169.1572-.6517 0-1.2031-.1162-1.6543-.3486s-.793-.5332-1.0254-.9024c-.2324-.3691-.3486-.7587-.3486-1.1689h1.2715c.0182.3464.1185.6221.3008.8271.1822.2006.4056.3441.6699.4307.2643.082.5263.1231.7861.1231.3464 0 .6357-.0456.8682-.1368.2369-.0911.417-.2164.54-.3759.1231-.1595.1846-.3418.1846-.5469zm5.9951 2.0986c-.515 0-.9821-.0866-1.4014-.2597-.4147-.1778-.7724-.4262-1.0732-.7452-.2962-.319-.5241-.6972-.6836-1.1347s-.2393-.916-.2393-1.4356v-.2871c0-.6015.0889-1.137.2666-1.6064.1778-.474.4193-.875.7246-1.2032.3054-.3281.6517-.5765 1.0391-.7451s.7884-.2529 1.2031-.2529c.5287 0 .9844.0911 1.3672.2734.3874.1823.7041.4375.9502.7657.2461.3235.4284.7063.5469 1.1484.1185.4375.1777.916.1777 1.4355v.5674h-5.5234v-1.0322h4.2588v-.0957c-.0183-.3281-.0866-.6471-.2051-.957-.1139-.3099-.2962-.5651-.5469-.7657-.2506-.2005-.5924-.3007-1.0254-.3007-.2871 0-.5514.0615-.7929.1845-.2416.1185-.4489.2963-.6221.5332-.1732.237-.3076.5264-.4033.8682s-.1436.736-.1436 1.1826v.2871c0 .3509.0479.6813.1436.9912.1002.3054.2438.5743.4306.8067.1914.2324.4216.4147.6905.5468.2734.1322.5833.1983.9297.1983.4466 0 .8248-.0912 1.1347-.2734.3099-.1823.5811-.4262.8135-.7315l.7656.6084c-.1595.2415-.3623.4717-.6084.6904-.2461.2188-.5491.3965-.9092.5332-.3554.1368-.777.2051-1.2646.2051zm5.6191-5.9541v5.8174h-1.2646v-7.3965h1.1963zm-.3007 1.8389-.5264-.0205c.0045-.5059.0797-.973.2256-1.4014.1458-.4329.3509-.8089.6152-1.1279s.5788-.5651.9434-.7383c.3691-.1777.777-.2666 1.2236-.2666.3646 0 .6927.0501.9844.1504.2916.0957.54.2506.7451.4648.2096.2142.3691.4922.4785.834.1094.3373.1641.7497.1641 1.2373v4.8467h-1.2715v-4.8604c0-.3873-.057-.6972-.1709-.9296-.1139-.237-.2803-.4079-.499-.5127-.2188-.1094-.4877-.1641-.8067-.1641-.3144 0-.6015.0661-.8613.1982-.2552.1322-.4762.3145-.6631.5469-.1823.2324-.3258.499-.4307.7998-.1002.2962-.1503.6107-.1503.9434zm11.4365 2.543v-9.0645h1.2715v10.5h-1.1621zm-4.9766-2.1807v-.1436c0-.5651.0684-1.0778.2051-1.5381.1413-.4648.3395-.8636.5947-1.1962.2598-.3327.5674-.5879.9229-.7657.36-.1823.761-.2734 1.2031-.2734.4648 0 .8704.082 1.2168.2461.3509.1595.6471.3942.8887.7041.2461.3053.4397.6745.581 1.1074.1413.433.2393.9229.294 1.4697v.6289c-.0502.5424-.1481 1.03-.294 1.4629-.1413.433-.3349.8021-.581 1.1075-.2416.3053-.5378.54-.8887.7041-.3509.1595-.7611.2392-1.2305.2392-.4329 0-.8294-.0934-1.1894-.2803-.3555-.1868-.6631-.4488-.9229-.7861-.2552-.3372-.4534-.7337-.5947-1.1894-.1367-.4603-.2051-.9594-.2051-1.4971zm1.2715-.1436v.1436c0 .3691.0365.7155.1094 1.0391.0775.3235.1959.6083.3554.8544.1596.2461.3623.4398.6084.5811.2461.1367.5401.2051.8819.2051.4193 0 .7633-.0889 1.0322-.2666.2734-.1778.4922-.4125.6563-.7041.164-.2917.2916-.6084.3828-.9502v-1.6475c-.0547-.2506-.1345-.4922-.2393-.7246-.1002-.237-.2324-.4466-.3965-.6289-.1595-.1868-.3577-.335-.5947-.4443-.2324-.1094-.5081-.1641-.8271-.1641-.3464 0-.6449.0729-.8956.2188-.2461.1412-.4488.3372-.6084.5878-.1595.2461-.2779.5332-.3554.8614-.0729.3235-.1094.6699-.1094 1.039z" fill="#fff"/><rect fill="#242424" height="56" rx="8" width="296" x="16" y="100"/><path d="m40.0859 126.406v1.735c0 .932-.0833 1.718-.25 2.359-.1666.641-.4062 1.156-.7187 1.547s-.6901.674-1.1328.851c-.4375.172-.9323.258-1.4844.258-.4375 0-.8411-.054-1.2109-.164-.3698-.109-.7032-.284-1-.523-.2917-.245-.5417-.563-.75-.953-.2084-.391-.3672-.865-.4766-1.422-.1094-.558-.1641-1.209-.1641-1.953v-1.735c0-.932.0834-1.713.25-2.344.1719-.63.4141-1.135.7266-1.515.3125-.386.6875-.662 1.125-.828.4427-.167.9375-.25 1.4844-.25.4427 0 .8489.054 1.2187.164.375.104.7084.273 1 .508.2917.229.5391.536.7422.921.2083.381.3672.847.4766 1.399.1093.552.164 1.2.164 1.945zm-1.4531 1.969v-2.211c0-.51-.0312-.958-.0937-1.344-.0573-.39-.1433-.724-.2579-1-.1145-.276-.2604-.5-.4374-.672-.1719-.171-.3724-.296-.6016-.375-.224-.083-.4766-.125-.7578-.125-.3438 0-.6485.066-.9141.196-.2656.125-.4896.325-.6719.601-.177.276-.3125.638-.4062 1.086-.0938.448-.1406.992-.1406 1.633v2.211c0 .51.0286.961.0859 1.352.0625.39.1536.729.2734 1.015.1198.281.2657.513.4375.696.1719.182.3698.317.5938.406.2292.083.4818.125.7578.125.3542 0 .6641-.068.9297-.203.2656-.136.487-.347.6641-.633.1822-.292.3177-.664.4062-1.117.0885-.459.1328-1.006.1328-1.641zm3.4922 3.859c0-.244.0755-.45.2266-.617.1562-.172.3802-.258.6718-.258.2917 0 .5131.086.6641.258.1563.167.2344.373.2344.617 0 .24-.0781.443-.2344.61-.151.166-.3724.25-.6641.25-.2916 0-.5156-.084-.6718-.25-.1511-.167-.2266-.37-.2266-.61zm8.7891-10.672v11.438h-1.4453v-9.633l-2.9141 1.063v-1.305l4.1328-1.563z" fill="#fff"/><path d="m181 145v-34h-2v34z" fill="#7e7e7e" mask="url(#a)"/><g fill="#fff"><path d="m204.001 126-6.001 2.61 6.001 3.39 5.999-3.39z"/><path d="m198 128.586 6 3.414v-13z"/><path d="m204 119v13l6-3.414z"/><path d="m198 130 6 8v-4.645z"/><path d="m204 133.355v4.645l6-8z"/><path d="m231.383 123.125c0-.266-.042-.5-.125-.703-.078-.208-.219-.396-.422-.563-.198-.166-.474-.325-.828-.476-.349-.151-.792-.305-1.328-.461-.563-.167-1.071-.352-1.524-.555-.453-.208-.841-.445-1.164-.711-.323-.265-.57-.57-.742-.914s-.258-.737-.258-1.18c0-.442.091-.851.274-1.226.182-.375.442-.701.781-.977.344-.281.752-.5 1.226-.656s1.003-.234 1.586-.234c.855 0 1.579.164 2.172.492.599.323 1.055.747 1.367 1.273.313.521.469 1.078.469 1.672h-1.5c0-.427-.091-.804-.273-1.133-.183-.333-.459-.593-.828-.781-.37-.193-.839-.289-1.407-.289-.536 0-.979.081-1.328.242-.349.162-.609.381-.781.657-.167.276-.25.591-.25.945 0 .239.049.458.148.656.105.193.263.373.477.539.219.167.495.32.828.461.339.141.742.276 1.211.406.646.183 1.203.386 1.672.61s.854.476 1.156.758c.307.276.534.591.68.945.151.349.226.745.226 1.187 0 .464-.093.883-.281 1.258-.187.375-.456.695-.805.961-.348.266-.768.471-1.257.617-.485.141-1.026.211-1.625.211-.526 0-1.045-.073-1.555-.218-.505-.146-.966-.365-1.383-.657-.411-.291-.742-.651-.992-1.078-.245-.432-.367-.932-.367-1.5h1.5c0 .391.075.727.226 1.008.151.276.357.505.618.687.265.183.565.318.898.407.339.083.69.125 1.055.125.526 0 .971-.073 1.336-.219.364-.146.64-.354.828-.625.192-.271.289-.591.289-.961zm12.195-3.172v.719c0 .854-.107 1.62-.32 2.297-.214.677-.521 1.252-.922 1.726s-.883.836-1.445 1.086c-.558.25-1.183.375-1.875.375-.672 0-1.289-.125-1.852-.375-.557-.25-1.042-.612-1.453-1.086-.406-.474-.721-1.049-.945-1.726s-.336-1.443-.336-2.297v-.719c0-.854.109-1.617.328-2.289.224-.677.539-1.253.945-1.726.406-.48.888-.844 1.445-1.094.563-.25 1.18-.375 1.852-.375.693 0 1.318.125 1.875.375.563.25 1.044.614 1.445 1.094.407.473.716 1.049.93 1.726.219.672.328 1.435.328 2.289zm-1.492.719v-.734c0-.678-.07-1.277-.211-1.797-.135-.521-.336-.959-.602-1.313-.265-.354-.591-.622-.976-.805-.38-.182-.813-.273-1.297-.273-.469 0-.893.091-1.273.273-.375.183-.698.451-.969.805-.266.354-.472.792-.617 1.313-.146.52-.219 1.119-.219 1.797v.734c0 .682.073 1.286.219 1.812.145.521.354.961.625 1.321.276.354.601.622.976.804.38.183.805.274 1.274.274.489 0 .924-.091 1.304-.274.381-.182.701-.45.961-.804.266-.36.466-.8.602-1.321.135-.526.203-1.13.203-1.812zm10.648 4.101v1.227h-5.687v-1.227zm-5.39-10.148v11.375h-1.508v-11.375z"/></g><path d="m227.359 138.675h-1.801l-.01-.757h1.636c.27 0 .506-.046.708-.137.201-.091.358-.221.468-.39.114-.173.171-.378.171-.616 0-.26-.05-.472-.151-.634-.098-.166-.249-.287-.454-.362-.202-.078-.459-.117-.772-.117h-1.386v6.338h-.943v-7.109h2.329c.365 0 .69.037.977.112.286.072.529.185.727.342.202.153.355.348.459.586.105.237.157.522.157.854 0 .293-.075.558-.225.796-.15.234-.358.426-.625.576-.264.15-.573.246-.928.288zm-.044 3.325h-2.128l.532-.767h1.596c.3 0 .554-.052.762-.156.212-.104.373-.251.484-.439.11-.192.166-.419.166-.679 0-.264-.048-.492-.142-.684s-.243-.34-.444-.444c-.202-.104-.463-.156-.782-.156h-1.342l.009-.757h1.836l.2.273c.342.03.632.127.87.293.237.163.418.371.542.625.127.254.19.534.19.84 0 .443-.098.817-.293 1.123-.192.303-.464.534-.815.694-.352.156-.765.234-1.241.234zm8.257-.767v.767h-3.764v-.767zm-3.574-6.342v7.109h-.942v-7.109zm3.076 3.056v.767h-3.266v-.767zm.449-3.056v.771h-3.715v-.771zm3.838 4.321h-1.899v-.767h1.899c.368 0 .666-.058.894-.175.228-.118.394-.28.498-.489.107-.208.161-.446.161-.713 0-.244-.054-.473-.161-.688-.104-.215-.27-.387-.498-.518-.228-.133-.526-.2-.894-.2h-1.679v6.338h-.943v-7.109h2.622c.537 0 .992.092 1.363.278.371.185.652.443.844.771.192.326.288.699.288 1.119 0 .455-.096.844-.288 1.167-.192.322-.473.568-.844.737-.371.166-.826.249-1.363.249zm8.111 2.046v.742h-4.654v-.649l2.329-2.593c.287-.319.508-.589.665-.811.159-.224.27-.425.332-.6.065-.179.097-.362.097-.547 0-.235-.049-.446-.146-.635-.095-.192-.235-.345-.42-.459-.186-.114-.41-.171-.674-.171-.316 0-.579.062-.791.186-.208.12-.365.289-.469.508-.104.218-.156.468-.156.751h-.903c0-.4.088-.766.263-1.098.176-.332.437-.596.782-.791.345-.199.769-.298 1.274-.298.449 0 .833.08 1.152.239.319.156.563.378.733.664.172.283.259.616.259.996 0 .209-.036.42-.108.635-.068.212-.164.423-.288.635-.12.212-.262.42-.425.625-.159.205-.33.407-.512.605l-1.905 2.066zm5.429-3.379v1.084c0 .583-.052 1.074-.156 1.475-.104.4-.254.722-.449.966s-.431.422-.708.533c-.274.107-.583.161-.928.161-.273 0-.526-.035-.757-.103s-.439-.177-.625-.327c-.182-.153-.338-.352-.468-.596-.131-.244-.23-.54-.298-.888-.069-.349-.103-.756-.103-1.221v-1.084c0-.583.052-1.071.156-1.465.108-.394.259-.71.455-.947.195-.241.429-.414.703-.518.276-.104.586-.156.927-.156.277 0 .531.034.762.103.234.065.443.17.625.317.182.143.337.335.464.576.13.238.229.529.298.874.068.345.102.75.102 1.216zm-.908 1.23v-1.381c0-.319-.019-.599-.058-.84-.036-.244-.09-.453-.162-.625-.071-.173-.162-.313-.273-.42-.107-.108-.233-.186-.376-.235-.14-.052-.298-.078-.474-.078-.214 0-.405.041-.571.122-.166.078-.306.204-.42.376-.11.173-.195.399-.254.679-.058.28-.088.62-.088 1.021v1.381c0 .319.018.601.054.845.039.244.096.456.171.635.075.176.166.321.273.434.108.114.232.199.372.254.143.052.301.078.473.078.222 0 .415-.042.581-.126.166-.085.305-.217.415-.396.114-.182.199-.415.254-.698.055-.287.083-.628.083-1.026z" fill="#7e7e7e"/><path d="m284.274 131.856-5.434-5.892h10.868z" fill="#fff"/><path d="m17.6133 184.047 2.584 4.997 2.5908-4.997h1.4971l-3.4317 6.234v3.719h-1.3193v-3.719l-3.4317-6.234zm6.9726 6.337v-.157c0-.534.0775-1.028.2325-1.484.1549-.46.3782-.859.6699-1.196.2916-.342.6448-.606 1.0596-.793.4147-.192.8795-.287 1.3945-.287.5195 0 .9866.095 1.4014.287.4192.187.7747.451 1.0664.793.2962.337.5218.736.6767 1.196.155.456.2324.95.2324 1.484v.157c0 .533-.0774 1.027-.2324 1.483-.1549.456-.3805.855-.6767 1.196-.2917.338-.6449.602-1.0596.793-.4102.187-.875.281-1.3945.281-.5196 0-.9867-.094-1.4014-.281-.4147-.191-.7702-.455-1.0664-.793-.2917-.341-.515-.74-.6699-1.196-.155-.456-.2325-.95-.2325-1.483zm1.2647-.157v.157c0 .369.0433.718.1299 1.046.0866.323.2164.61.3896.861.1778.251.3988.449.6631.595.2643.141.5719.212.9229.212.3463 0 .6494-.071.9091-.212.2644-.146.4831-.344.6563-.595s.303-.538.3896-.861c.0912-.328.1368-.677.1368-1.046v-.157c0-.365-.0456-.709-.1368-1.033-.0866-.328-.2187-.617-.3965-.868-.1731-.255-.3919-.456-.6562-.601-.2598-.146-.5651-.219-.916-.219-.3464 0-.6517.073-.916.219-.2598.145-.4785.346-.6563.601-.1732.251-.303.54-.3896.868-.0866.324-.1299.668-.1299 1.033zm11.5801 2.064v-5.687h1.2714v7.396h-1.2099zm.2392-1.559.5264-.013c0 .492-.0524.948-.1572 1.367-.1003.415-.2644.775-.4922 1.08-.2279.305-.5264.545-.8955.718-.3692.168-.8181.253-1.3467.253-.36 0-.6904-.053-.9912-.158-.2962-.104-.5515-.266-.7656-.485-.2142-.219-.3806-.503-.4991-.854-.1139-.351-.1709-.773-.1709-1.265v-4.771h1.2647v4.785c0 .332.0364.608.1094.827.0774.214.18.385.3076.513.1321.123.278.209.4375.259.164.05.3327.075.5058.075.5378 0 .9639-.102 1.2783-.307.3145-.21.5401-.49.6768-.841.1413-.355.2119-.75.2119-1.183zm14.6973-4.128h1.1484v7.239c0 .651-.1321 1.207-.3965 1.668-.2643.46-.6334.809-1.1074 1.046-.4694.241-1.0117.362-1.6269.362-.2552 0-.556-.041-.9024-.123-.3418-.078-.679-.212-1.0117-.403-.3281-.187-.6038-.44-.8271-.759l.663-.752c.3099.374.6335.633.9707.779.3418.146.6791.219 1.0118.219.401 0 .7474-.075 1.039-.226.2917-.15.5173-.373.6768-.67.164-.291.2461-.651.2461-1.08v-5.674zm-5.0928 3.78v-.144c0-.565.0661-1.078.1983-1.538.1367-.465.3304-.863.581-1.196.2552-.333.5628-.588.9229-.766.36-.182.7656-.273 1.2168-.273.4648 0 .8704.082 1.2168.246.3509.159.6471.394.8886.704.2461.305.4398.674.5811 1.107s.2392.923.2939 1.47v.629c-.0501.542-.1481 1.03-.2939 1.463-.1413.433-.335.802-.5811 1.107-.2415.306-.5377.54-.8886.704-.351.16-.7611.24-1.2305.24-.4421 0-.8431-.094-1.2031-.281-.3555-.186-.6608-.448-.9161-.786-.2552-.337-.4511-.733-.5878-1.189-.1322-.46-.1983-.959-.1983-1.497zm1.2647-.144v.144c0 .369.0364.715.1093 1.039.0775.323.1937.608.3487.854.1595.246.3623.44.6084.581.2461.137.54.205.8818.205.4193 0 .7656-.088 1.0391-.266.2734-.178.4899-.413.6494-.704.164-.292.2916-.609.3828-.95v-1.648c-.0501-.251-.1276-.492-.2324-.724-.1003-.237-.2324-.447-.3965-.629-.1595-.187-.3578-.335-.5947-.445-.237-.109-.515-.164-.834-.164-.3464 0-.6449.073-.8955.219-.2461.141-.4489.337-.6084.588-.155.246-.2712.533-.3487.861-.0729.324-.1093.67-.1093 1.039zm9.9668 3.897c-.515 0-.9821-.087-1.4014-.26-.4147-.178-.7725-.426-1.0733-.745-.2962-.319-.524-.697-.6835-1.135-.1595-.437-.2393-.916-.2393-1.435v-.288c0-.601.0889-1.137.2666-1.606.1777-.474.4193-.875.7246-1.203s.6517-.577 1.0391-.745c.3873-.169.7884-.253 1.2031-.253.5286 0 .9844.091 1.3672.273.3874.183.7041.438.9502.766.2461.323.4284.706.5469 1.148.1184.438.1777.916.1777 1.436v.567h-5.5234v-1.032h4.2587v-.096c-.0182-.328-.0865-.647-.205-.957-.114-.31-.2963-.565-.5469-.765-.2507-.201-.5925-.301-1.0254-.301-.2871 0-.5514.061-.793.184-.2415.119-.4489.297-.622.534-.1732.237-.3077.526-.4034.868s-.1435.736-.1435 1.182v.288c0 .35.0478.681.1435.991.1003.305.2439.574.4307.806.1914.233.4216.415.6904.547.2735.132.5834.198.9297.198.4466 0 .8249-.091 1.1348-.273s.581-.426.8135-.731l.7656.608c-.1595.242-.3623.472-.6084.69-.2461.219-.5492.397-.9092.534-.3555.136-.777.205-1.2646.205zm7.4511-7.533v.97h-3.999v-.97zm-2.6455-1.798h1.2647v7.362c0 .251.0387.44.1162.567.0775.128.1777.212.3008.253.123.041.2552.062.3964.062.1049 0 .2142-.009.3282-.028.1185-.022.2073-.041.2666-.054l.0068 1.032c-.1002.032-.2324.062-.3965.089-.1595.032-.3532.048-.581.048-.3099 0-.5948-.062-.8545-.185-.2598-.123-.4671-.328-.6221-.615-.1504-.292-.2256-.684-.2256-1.176z" fill="#fff"/><rect fill="#242424" height="56" rx="8" width="296" x="16" y="202"/><path d="m40.1172 231.922c0 .693-.1615 1.281-.4844 1.766-.3177.479-.75.843-1.2969 1.093-.5416.25-1.1536.375-1.8359.375s-1.2969-.125-1.8438-.375c-.5468-.25-.9791-.614-1.2968-1.093-.3177-.485-.4766-1.073-.4766-1.766 0-.453.086-.867.2578-1.242.1771-.381.4245-.711.7422-.992.3229-.282.7031-.498 1.1406-.649.4427-.156.9297-.234 1.461-.234.6979 0 1.3203.135 1.8672.406.5468.266.9765.633 1.289 1.101.3177.469.4766 1.006.4766 1.61zm-1.4531-.031c0-.422-.0912-.795-.2735-1.118-.1823-.328-.4375-.583-.7656-.765s-.7083-.274-1.1406-.274c-.4427 0-.8255.092-1.1485.274-.3177.182-.5651.437-.7421.765-.1771.323-.2657.696-.2657 1.118 0 .437.086.812.2578 1.125.1771.307.4271.544.75.711.3282.161.7162.242 1.1641.242s.8333-.081 1.1562-.242c.323-.167.5704-.404.7422-.711.1771-.313.2657-.688.2657-1.125zm1.1875-5.305c0 .552-.1459 1.049-.4375 1.492-.2917.443-.6901.792-1.1953 1.047-.5053.255-1.0782.383-1.7188.383-.651 0-1.2318-.128-1.7422-.383-.5052-.255-.901-.604-1.1875-1.047-.2864-.443-.4297-.94-.4297-1.492 0-.662.1433-1.224.4297-1.688.2917-.463.6901-.817 1.1953-1.062s1.0808-.367 1.7266-.367c.651 0 1.2292.122 1.7344.367s.901.599 1.1875 1.062c.2916.464.4375 1.026.4375 1.688zm-1.4454.023c0-.38-.0807-.716-.2421-1.007-.1615-.292-.3855-.521-.6719-.688-.2865-.172-.6198-.258-1-.258s-.7136.081-1 .242c-.2813.157-.5026.381-.6641.672-.1562.292-.2343.638-.2343 1.039 0 .391.0781.732.2343 1.024.1615.291.3854.518.6719.679.2865.162.6198.243 1 .243s.7109-.081.9922-.243c.2864-.161.5104-.388.6719-.679.1614-.292.2421-.633.2421-1.024zm3.7188 7.625c0-.244.0755-.45.2266-.617.1562-.172.3802-.258.6718-.258.2917 0 .5131.086.6641.258.1563.167.2344.373.2344.617 0 .24-.0781.443-.2344.61-.151.166-.3724.25-.6641.25-.2916 0-.5156-.084-.6718-.25-.1511-.167-.2266-.37-.2266-.61zm11.7266-3.062v1.187h-8.2188v-.851l5.0938-7.883h1.1796l-1.2656 2.281-3.3672 5.266zm-1.586-7.547v11.375h-1.4453v-11.375zm4.7266 5.961-1.1563-.297.5703-5.664h5.836v1.336h-4.6094l-.3437 3.094c.2083-.12.4713-.232.789-.336.3229-.104.6927-.157 1.1094-.157.526 0 .9974.092 1.4141.274.4166.177.7708.432 1.0625.766.2968.333.5234.734.6797 1.203.1562.468.2343.992.2343 1.57 0 .547-.0755 1.049-.2265 1.508-.1459.458-.3672.859-.6641 1.203-.2969.338-.6719.602-1.125.789-.4479.187-.9766.281-1.5859.281-.4584 0-.8933-.062-1.3047-.187-.4063-.13-.7709-.326-1.0938-.586-.3177-.266-.5781-.594-.7812-.985-.1979-.395-.3229-.859-.375-1.39h1.375c.0625.427.1875.786.375 1.078s.4323.513.7343.664c.3073.146.6641.219 1.0704.219.3437 0 .6484-.06.914-.18s.4896-.292.6719-.516.3203-.494.4141-.812c.0989-.318.1484-.675.1484-1.07 0-.36-.0495-.693-.1484-1-.099-.308-.2474-.576-.4454-.805-.1927-.229-.4296-.406-.7109-.531-.2812-.131-.6042-.196-.9687-.196-.4844 0-.8516.065-1.1016.196-.2448.13-.4974.307-.7578.531zm14.3125-1.18v1.735c0 .932-.0833 1.718-.25 2.359s-.4063 1.156-.7188 1.547-.6901.674-1.1328.851c-.4375.172-.9323.258-1.4843.258-.4376 0-.8412-.054-1.211-.164-.3698-.109-.7031-.284-1-.523-.2917-.245-.5417-.563-.75-.953-.2083-.391-.3672-.865-.4766-1.422-.1093-.558-.164-1.209-.164-1.953v-1.735c0-.932.0833-1.713.25-2.344.1719-.63.414-1.135.7266-1.515.3124-.386.6874-.662 1.125-.828.4427-.167.9374-.25 1.4843-.25.4427 0 .849.054 1.2188.164.375.104.7083.273 1 .508.2916.229.539.536.7422.921.2083.381.3671.847.4765 1.399s.1641 1.2.1641 1.945zm-1.4531 1.969v-2.211c0-.51-.0313-.958-.0938-1.344-.0573-.39-.1432-.724-.2578-1s-.2604-.5-.4375-.672c-.1719-.171-.3724-.296-.6016-.375-.2239-.083-.4765-.125-.7578-.125-.3437 0-.6484.066-.914.196-.2657.125-.4896.325-.6719.601-.1771.276-.3125.638-.4063 1.086-.0937.448-.1406.992-.1406 1.633v2.211c0 .51.0287.961.0859 1.352.0626.39.1537.729.2735 1.015.1198.281.2656.513.4375.696.1719.182.3698.317.5937.406.2292.083.4818.125.7579.125.3541 0 .664-.068.9296-.203.2657-.136.487-.347.6641-.633.1823-.292.3177-.664.4063-1.117.0885-.459.1328-1.006.1328-1.641zm4.75 3.414h.1484c.8333 0 1.5104-.117 2.0312-.351.5209-.235.9219-.55 1.2032-.946.2812-.396.4739-.841.5781-1.336.1042-.5.1563-1.013.1563-1.539v-1.742c0-.516-.0599-.974-.1797-1.375-.1146-.401-.2761-.737-.4844-1.008-.2031-.271-.4349-.476-.6953-.617s-.5365-.211-.8282-.211c-.3333 0-.6328.068-.8984.203-.2604.13-.4818.315-.664.555-.1771.239-.3126.521-.4063.844s-.1406.674-.1406 1.054c0 .339.0416.667.125.985.0833.317.2109.604.3828.859s.3854.458.6406.609c.2604.146.5651.219.9141.219.3229 0 .625-.062.9062-.187.2865-.131.5391-.305.7578-.524.224-.224.4011-.476.5313-.758.1354-.281.2135-.575.2344-.882h.6875c0 .432-.086.859-.2578 1.281-.1667.417-.4011.797-.7032 1.14-.3021.344-.6562.62-1.0625.829-.4062.203-.8489.304-1.3281.304-.5625 0-1.0495-.109-1.4609-.328-.4115-.219-.75-.51-1.0157-.875-.2604-.364-.4557-.771-.5859-1.219-.125-.453-.1875-.911-.1875-1.375 0-.541.0755-1.049.2266-1.523.151-.474.375-.891.6718-1.25.2969-.365.6641-.648 1.1016-.852.4427-.203.9531-.304 1.5312-.304.6511 0 1.2058.13 1.6641.39.4583.261.8307.61 1.1172 1.047.2917.438.5052.93.6406 1.477s.2031 1.109.2031 1.687v.524c0 .588-.039 1.187-.1171 1.797-.073.604-.2162 1.182-.4297 1.734-.2084.552-.513 1.047-.9141 1.484-.401.433-.9245.776-1.5703 1.032-.6406.25-1.4323.375-2.375.375h-.1484zm9.3906-4.203-1.1563-.297.5703-5.664h5.836v1.336h-4.6094l-.3437 3.094c.2083-.12.4713-.232.789-.336.3229-.104.6927-.157 1.1094-.157.526 0 .9974.092 1.4141.274.4166.177.7708.432 1.0625.766.2968.333.5234.734.6797 1.203.1562.468.2343.992.2343 1.57 0 .547-.0755 1.049-.2265 1.508-.1459.458-.3672.859-.6641 1.203-.2969.338-.6719.602-1.125.789-.4479.187-.9766.281-1.5859.281-.4584 0-.8933-.062-1.3047-.187-.4063-.13-.7709-.326-1.0938-.586-.3177-.266-.5781-.594-.7812-.985-.1979-.395-.3229-.859-.375-1.39h1.375c.0625.427.1875.786.375 1.078s.4323.513.7343.664c.3073.146.6641.219 1.0704.219.3437 0 .6484-.06.914-.18s.4896-.292.6719-.516.3203-.494.4141-.812c.0989-.318.1484-.675.1484-1.07 0-.36-.0495-.693-.1484-1-.099-.308-.2474-.576-.4454-.805-.1927-.229-.4296-.406-.7109-.531-.2812-.131-.6042-.196-.9687-.196-.4844 0-.8516.065-1.1016.196-.2448.13-.4974.307-.7578.531zm11.9219-6.024v11.438h-1.4453v-9.633l-2.9141 1.063v-1.305l4.1328-1.563z" fill="#7e7e7e"/><path d="m181 247v-34h-2v34z" fill="#7e7e7e" mask="url(#b)"/><path clip-rule="evenodd" d="m206.136 230.751c-.119.009-.735.047-2.111.047-1.093 0-1.87-.034-2.143-.047-4.227-.192-7.382-.953-7.382-1.864s3.155-1.671 7.382-1.866v2.972c.277.021 1.068.069 2.162.069 1.313 0 1.97-.056 2.088-.068v-2.971c4.219.194 7.367.955 7.367 1.864s-3.147 1.67-7.367 1.863zm0-4.035v-2.66h5.887v-4.056h-16.027v4.056h5.886v2.659c-4.784.227-8.382 1.207-8.382 2.381s3.598 2.153 8.382 2.381v8.523h4.253v-8.526c4.773-.227 8.365-1.206 8.365-2.379s-3.589-2.152-8.365-2.38z" fill="#fff" fill-rule="evenodd"/><path d="m231.828 216.625h1.5v7.695c0 .854-.19 1.565-.57 2.133s-.886.995-1.516 1.281c-.625.282-1.304.422-2.039.422-.771 0-1.469-.14-2.094-.422-.619-.286-1.112-.713-1.476-1.281-.36-.568-.539-1.279-.539-2.133v-7.695h1.492v7.695c0 .594.109 1.084.328 1.469s.524.672.914.859c.396.188.854.282 1.375.282.526 0 .985-.094 1.375-.282.396-.187.703-.474.922-.859s.328-.875.328-1.469zm9.93 8.5c0-.266-.042-.5-.125-.703-.078-.208-.219-.396-.422-.563-.198-.166-.474-.325-.828-.476-.349-.151-.792-.305-1.328-.461-.563-.167-1.071-.352-1.524-.555-.453-.208-.841-.445-1.164-.711-.323-.265-.57-.57-.742-.914s-.258-.737-.258-1.18c0-.442.091-.851.274-1.226.182-.375.442-.701.781-.977.344-.281.752-.5 1.226-.656s1.003-.234 1.586-.234c.855 0 1.578.164 2.172.492.599.323 1.055.747 1.367 1.273.313.521.469 1.078.469 1.672h-1.5c0-.427-.091-.804-.273-1.133-.183-.333-.459-.593-.828-.781-.37-.193-.839-.289-1.407-.289-.536 0-.979.081-1.328.242-.349.162-.609.381-.781.657-.167.276-.25.591-.25.945 0 .239.049.458.148.656.105.193.263.373.477.539.219.167.495.32.828.461.339.141.742.276 1.211.406.646.183 1.203.386 1.672.61s.854.476 1.156.758c.307.276.534.591.68.945.151.349.226.745.226 1.187 0 .464-.093.883-.281 1.258-.187.375-.456.695-.804.961-.349.266-.769.471-1.258.617-.485.141-1.026.211-1.625.211-.526 0-1.045-.073-1.555-.218-.505-.146-.966-.365-1.383-.657-.411-.291-.742-.651-.992-1.078-.245-.432-.367-.932-.367-1.5h1.5c0 .391.075.727.226 1.008.151.276.357.505.618.687.265.183.565.318.898.407.339.083.69.125 1.055.125.526 0 .971-.073 1.336-.219.364-.146.64-.354.828-.625.192-.271.289-.591.289-.961zm6.515 2.875h-2.375l.016-1.227h2.359c.813 0 1.49-.169 2.032-.507.541-.344.948-.823 1.218-1.438.276-.62.415-1.344.415-2.172v-.695c0-.651-.079-1.229-.235-1.734-.156-.511-.385-.941-.687-1.289-.302-.355-.672-.623-1.11-.805-.432-.182-.929-.274-1.492-.274h-2.562v-1.234h2.562c.745 0 1.425.125 2.039.375.615.245 1.143.602 1.586 1.07.448.464.792 1.026 1.031 1.688.24.656.36 1.396.36 2.219v.679c0 .823-.12 1.565-.36 2.227-.239.656-.586 1.216-1.039 1.679-.448.464-.989.821-1.625 1.071-.63.245-1.341.367-2.133.367zm-1.57-11.375v11.375h-1.508v-11.375zm12.977 0v11.375h-1.485v-11.375zm3.656 0v1.234h-8.789v-1.234z" fill="#fff"/><path d="m227.452 236.891v7.109h-.928v-7.109zm2.285 0v.771h-5.493v-.771zm1.055 0h2.354c.533 0 .984.081 1.352.244.371.163.653.403.845.722.195.316.293.705.293 1.167 0 .326-.067.624-.2.894-.131.267-.319.495-.567.684-.244.185-.537.323-.879.415l-.263.102h-2.212l-.01-.766h1.67c.338 0 .62-.059.845-.176.224-.121.393-.282.507-.484.114-.201.171-.424.171-.669 0-.273-.053-.512-.161-.717-.107-.205-.277-.363-.508-.474-.228-.114-.522-.171-.883-.171h-1.412v6.338h-.942zm4.155 7.109-1.728-3.223.981-.005 1.753 3.169v.059zm6.299-2.261h.938c-.049.449-.178.851-.386 1.206s-.503.637-.884.845c-.381.205-.856.308-1.426.308-.416 0-.796-.078-1.137-.235-.339-.156-.63-.377-.874-.664-.245-.289-.433-.636-.567-1.04-.13-.407-.195-.859-.195-1.357v-.708c0-.498.065-.949.195-1.353.134-.407.324-.755.571-1.045.251-.289.552-.512.904-.669.351-.156.747-.234 1.186-.234.537 0 .991.101 1.363.303.371.202.659.481.864.84.208.354.337.766.386 1.235h-.938c-.045-.332-.13-.617-.254-.855-.124-.24-.299-.426-.527-.556s-.526-.196-.894-.196c-.315 0-.594.061-.835.181-.237.121-.437.291-.6.513-.16.221-.28.486-.362.796-.081.309-.122.652-.122 1.03v.718c0 .348.036.675.108.981.075.306.187.575.337.806.149.231.34.413.571.547.231.13.505.195.82.195.401 0 .72-.063.957-.19.238-.127.417-.31.537-.547.124-.238.212-.523.264-.855zm6.646 1.519v.742h-4.654v-.649l2.329-2.593c.287-.319.508-.589.664-.811.16-.224.271-.425.332-.6.066-.179.098-.362.098-.547 0-.235-.049-.446-.146-.635-.095-.192-.235-.345-.42-.459-.186-.114-.41-.171-.674-.171-.316 0-.58.062-.791.186-.208.12-.365.289-.469.508-.104.218-.156.468-.156.751h-.903c0-.4.087-.766.263-1.098s.436-.596.781-.791c.346-.199.77-.298 1.275-.298.449 0 .833.08 1.152.239.319.156.563.378.733.664.172.283.258.616.258.996 0 .209-.035.42-.107.635-.068.212-.164.423-.288.635-.12.212-.262.42-.425.625-.159.205-.33.407-.513.605l-1.904 2.066zm5.429-3.379v1.084c0 .583-.052 1.074-.156 1.475-.104.4-.254.722-.449.966s-.431.422-.708.533c-.274.107-.583.161-.928.161-.273 0-.526-.035-.757-.103s-.439-.177-.625-.327c-.182-.153-.338-.352-.469-.596-.13-.244-.229-.54-.297-.888-.069-.349-.103-.756-.103-1.221v-1.084c0-.583.052-1.071.156-1.465.108-.394.259-.71.454-.947.196-.241.43-.414.704-.518.276-.104.586-.156.927-.156.277 0 .531.034.762.103.234.065.443.17.625.317.182.143.337.335.464.576.13.238.229.529.298.874.068.345.102.75.102 1.216zm-.908 1.23v-1.381c0-.319-.019-.599-.059-.84-.035-.244-.089-.453-.161-.625-.071-.173-.162-.313-.273-.42-.108-.108-.233-.186-.376-.235-.14-.052-.298-.078-.474-.078-.215 0-.405.041-.571.122-.166.078-.306.204-.42.376-.111.173-.195.399-.254.679-.058.28-.088.62-.088 1.021v1.381c0 .319.018.601.054.845.039.244.096.456.171.635.075.176.166.321.273.434.108.114.231.199.371.254.144.052.302.078.474.078.221 0 .415-.042.581-.126.166-.085.304-.217.415-.396.114-.182.199-.415.254-.698.055-.287.083-.628.083-1.026z" fill="#7e7e7e"/><path d="m284.274 233.856-5.434-5.892h10.868z" fill="#fff"/><path clip-rule="evenodd" d="m302.273 170.102 2.685 1.767c.183.125.293.338.293.563 0 .226-.11.426-.293.551l-2.685 1.767c-.097.062-.219.1-.341.1-.098 0-.208-.025-.305-.075-.208-.113-.33-.339-.33-.577v-1.064h-3.612c-1.134 0-2.062.952-2.062 2.117v.826c0 .401-.317.727-.707.727-.391 0-.708-.326-.708-.727v-.826c0-1.955 1.55-3.558 3.465-3.558h3.612v-1.04c0-.238.122-.463.329-.576.208-.112.464-.1.659.025zm1.366 5.712c0-.401.318-.726.708-.726.378 0 .696.325.696.726v.827c0 1.954-1.55 3.557-3.466 3.557h-3.624v1.04c0 .238-.122.464-.329.576-.098.05-.195.075-.305.075-.122 0-.232-.025-.342-.1l-2.684-1.766c-.183-.113-.293-.326-.293-.551 0-.226.11-.426.293-.551l2.684-1.766c.208-.138.452-.138.659-.025.208.112.33.338.33.576v1.052h3.611c1.135 0 2.062-.952 2.062-2.117z" fill="#fff" fill-rule="evenodd"/><rect fill="#ffda58" height="56" rx="8" width="296" x="16" y="282"/><path d="m119.203 312.625 2.68-9h2.609l-3.961 11.375h-1.719zm-2.469-9 2.672 9 .406 2.375h-1.734l-3.937-11.375zm11.313 0v11.375h-2.336v-11.375zm9.828 9.547v1.828h-6.055v-1.828zm-5.289-9.547v11.375h-2.344v-11.375zm4.5 4.633v1.781h-5.266v-1.781zm.781-4.633v1.836h-6.047v-1.836zm4.117 9.57 2.266-9.57h1.266l.289 1.594-2.414 9.781h-1.36zm-1.164-9.57 1.875 9.57-.156 1.805h-1.516l-2.523-11.375zm6.977 9.531 1.851-9.531h2.321l-2.516 11.375h-1.515zm-1.57-9.531 2.281 9.609-.063 1.766h-1.359l-2.43-9.789.313-1.586zm20.343 5.422v.539c0 .865-.117 1.641-.351 2.328-.235.688-.565 1.274-.992 1.758-.428.479-.938.846-1.532 1.101-.588.256-1.242.383-1.961.383-.713 0-1.367-.127-1.961-.383-.588-.255-1.099-.622-1.531-1.101-.432-.484-.768-1.07-1.008-1.758-.234-.687-.351-1.463-.351-2.328v-.539c0-.87.117-1.646.351-2.328.235-.688.565-1.274.993-1.758.432-.484.942-.854 1.531-1.109.594-.256 1.247-.383 1.961-.383.719 0 1.372.127 1.961.383.593.255 1.104.625 1.531 1.109.432.484.766 1.07 1 1.758.24.682.359 1.458.359 2.328zm-2.367.539v-.555c0-.604-.055-1.135-.164-1.593-.109-.459-.271-.844-.484-1.157-.214-.312-.474-.547-.782-.703-.307-.161-.658-.242-1.054-.242s-.748.081-1.055.242c-.302.156-.56.391-.773.703-.209.313-.368.698-.477 1.157-.109.458-.164.989-.164 1.593v.555c0 .599.055 1.13.164 1.594.109.458.271.846.484 1.164.214.312.474.549.782.711.307.161.659.242 1.054.242.396 0 .748-.081 1.055-.242.307-.162.565-.399.773-.711.209-.318.368-.706.477-1.164.109-.464.164-.995.164-1.594zm6.399-5.961v11.375h-2.344v-11.375zm4.531 4.859v1.828h-5.172v-1.828zm.547-4.859v1.836h-5.719v-1.836zm3.703 0v11.375h-2.344v-11.375zm4.531 4.859v1.828h-5.172v-1.828zm.547-4.859v1.836h-5.719v-1.836zm8.992 9.547v1.828h-6.055v-1.828zm-5.289-9.547v11.375h-2.344v-11.375zm4.5 4.633v1.781h-5.266v-1.781zm.781-4.633v1.836h-6.047v-1.836zm1.375 0h4.242c.87 0 1.618.13 2.243.391.63.26 1.114.645 1.453 1.156.338.51.508 1.138.508 1.883 0 .609-.105 1.133-.313 1.57-.203.432-.492.794-.867 1.086-.37.286-.805.516-1.305.687l-.742.391h-3.687l-.016-1.828h2.742c.412 0 .753-.073 1.024-.219.27-.146.474-.349.609-.609.141-.261.211-.563.211-.906 0-.365-.068-.68-.203-.946-.136-.265-.341-.469-.617-.609-.276-.141-.623-.211-1.04-.211h-1.898v9.539h-2.344zm6.36 11.375-2.594-5.07 2.476-.016 2.626 4.977v.109zm9.812-2.977c0-.203-.031-.385-.094-.546-.057-.167-.166-.318-.328-.454-.161-.14-.388-.278-.679-.414-.292-.135-.67-.276-1.133-.421-.516-.167-1.005-.355-1.469-.563-.458-.208-.865-.451-1.219-.727-.349-.281-.625-.606-.828-.976-.198-.37-.297-.8-.297-1.289 0-.474.104-.904.313-1.289.208-.391.5-.724.875-1 .375-.282.818-.498 1.328-.649.516-.151 1.081-.226 1.695-.226.839 0 1.571.151 2.196.453s1.109.716 1.453 1.242c.349.526.523 1.128.523 1.805h-2.328c0-.334-.07-.625-.211-.875-.135-.255-.344-.456-.625-.602-.276-.146-.625-.219-1.047-.219-.406 0-.745.063-1.015.188-.271.12-.474.284-.61.492-.135.203-.203.432-.203.688 0 .192.047.367.141.523.099.156.244.302.437.438.193.135.43.263.711.382.281.12.607.237.977.352.619.187 1.164.398 1.633.633.473.234.869.497 1.187.789.318.291.557.622.719.992.161.37.242.789.242 1.258 0 .495-.096.937-.289 1.328s-.471.721-.836.992-.8.477-1.305.617c-.505.141-1.07.211-1.695.211-.563 0-1.117-.073-1.664-.218-.547-.152-1.044-.378-1.492-.68-.443-.302-.797-.688-1.063-1.156-.265-.469-.398-1.024-.398-1.664h2.351c0 .354.055.653.164.898.11.245.263.443.461.594.203.151.443.26.719.328.281.068.589.101.922.101.406 0 .74-.057 1-.171.266-.115.461-.274.586-.477.13-.203.195-.432.195-.688z" fill="#242424"/></svg>