<svg fill="none" height="3428" viewBox="0 0 1440 3428" width="1440" xmlns="http://www.w3.org/2000/svg" xmlns:xlink="http://www.w3.org/1999/xlink"><filter id="a" color-interpolation-filters="sRGB" filterUnits="userSpaceOnUse" height="5901" width="3622" x="-967" y="-1066"><feFlood flood-opacity="0" result="BackgroundImageFix"/><feBlend in="SourceGraphic" in2="BackgroundImageFix" mode="normal" result="shape"/><feGaussianBlur result="effect1_foregroundBlur_14557:48015" stdDeviation="250"/></filter><linearGradient id="b"><stop offset=".1111" stop-color="#a0789c"/><stop offset=".9407" stop-color="#231f26"/></linearGradient><radialGradient id="c" cx="0" cy="0" gradientTransform="matrix(210.64194868 -85.43091774 98.2883823 242.34383672 1206.82 2810.19)" gradientUnits="userSpaceOnUse" r="1" xlink:href="#b"/><radialGradient id="d" cx="0" cy="0" gradientTransform="matrix(174.61071271 -70.81722693 81.47523368 200.88965973 1205.43 2807.03)" gradientUnits="userSpaceOnUse" r="1" xlink:href="#b"/><radialGradient id="e" cx="0" cy="0" gradientTransform="matrix(125.14702152 -50.75613567 58.39503782 143.98190403 1205.44 2807.04)" gradientUnits="userSpaceOnUse" r="1" xlink:href="#b"/><radialGradient id="f" cx="0" cy="0" gradientTransform="matrix(81.97552478 -33.24698268 38.25051057 94.31248866 1205.46 2807.04)" gradientUnits="userSpaceOnUse" r="1" xlink:href="#b"/><radialGradient id="g" cx="0" cy="0" gradientTransform="matrix(-103.22157056 -240.47455216 206.84843715 -88.78785867 205.313 2167.93)" gradientUnits="userSpaceOnUse" r="1" xlink:href="#b"/><radialGradient id="h" cx="0" cy="0" gradientTransform="matrix(-85.56686856 -199.3445196 171.46901886 -73.60155688 202.13 2169.17)" gradientUnits="userSpaceOnUse" r="1" xlink:href="#b"/><radialGradient id="i" cx="0" cy="0" gradientTransform="matrix(-61.3309493 -142.88227244 122.90215006 -52.75465882 202.119 2169.18)" gradientUnits="userSpaceOnUse" r="1" xlink:href="#b"/><radialGradient id="j" cx="0" cy="0" gradientTransform="matrix(-40.17599426 -93.59772551 80.50970237 -34.55807631 202.146 2169.15)" gradientUnits="userSpaceOnUse" r="1" xlink:href="#b"/><radialGradient id="k" cx="0" cy="0" gradientTransform="matrix(167.64734538 -180.13809699 177.27292911 164.98084786 1408.84 1784.12)" gradientUnits="userSpaceOnUse" r="1" xlink:href="#b"/><radialGradient id="l" cx="0" cy="0" gradientTransform="matrix(138.97193732 -149.32619582 146.95148846 136.76189186 1406.32 1781.79)" gradientUnits="userSpaceOnUse" r="1" xlink:href="#b"/><radialGradient id="m" cx="0" cy="0" gradientTransform="matrix(99.60737595 -107.02873409 105.32603085 98.02273792 1406.32 1781.79)" gradientUnits="userSpaceOnUse" r="1" xlink:href="#b"/><radialGradient id="n" cx="0" cy="0" gradientTransform="matrix(65.24784541 -70.10920857 68.99410632 64.21006419 1406.35 1781.79)" gradientUnits="userSpaceOnUse" r="1" xlink:href="#b"/><radialGradient id="o" cx="0" cy="0" gradientTransform="matrix(-220.65789327 -49.64647431 57.34651354 -254.88135945 198.217 1416.15)" gradientUnits="userSpaceOnUse" r="1" xlink:href="#b"/><radialGradient id="p" cx="0" cy="0" gradientTransform="matrix(-182.91247058 -41.15401963 47.53724438 -211.28324501 197.311 1419.47)" gradientUnits="userSpaceOnUse" r="1" xlink:href="#b"/><radialGradient id="q" cx="0" cy="0" gradientTransform="matrix(-131.09678279 -29.49585425 34.07079133 -151.43047195 197.326 1419.47)" gradientUnits="userSpaceOnUse" r="1" xlink:href="#b"/><radialGradient id="r" cx="0" cy="0" gradientTransform="matrix(-85.87212932 -19.32062524 22.31736048 -99.19136889 197.302 1419.44)" gradientUnits="userSpaceOnUse" r="1" xlink:href="#b"/><radialGradient id="s" cx="0" cy="0" gradientTransform="matrix(0 -244.164 244.164 0 209.358 674.674)" gradientUnits="userSpaceOnUse" r="1" xlink:href="#b"/><radialGradient id="t" cx="0" cy="0" gradientTransform="matrix(0 -202.4 202.4 0 205.926 674.674)" gradientUnits="userSpaceOnUse" r="1" xlink:href="#b"/><radialGradient id="u" cx="0" cy="0" gradientTransform="matrix(0 -145.068 145.068 0 205.927 674.674)" gradientUnits="userSpaceOnUse" r="1" xlink:href="#b"/><radialGradient id="v" cx="0" cy="0" gradientTransform="matrix(0 -95.0271 95.0271 0 205.948 674.657)" gradientUnits="userSpaceOnUse" r="1" xlink:href="#b"/><radialGradient id="w" cx="0" cy="0" gradientTransform="matrix(-217.568 0 0 -217.568 1376.19 573.647)" gradientUnits="userSpaceOnUse" r="1" xlink:href="#b"/><radialGradient id="x" cx="0" cy="0" gradientTransform="matrix(-180.354 0 0 -180.354 1376.19 576.706)" gradientUnits="userSpaceOnUse" r="1" xlink:href="#b"/><radialGradient id="y" cx="0" cy="0" gradientTransform="matrix(-129.267 0 0 -129.267 1376.19 576.705)" gradientUnits="userSpaceOnUse" r="1" xlink:href="#b"/><radialGradient id="z" cx="0" cy="0" gradientTransform="matrix(-84.6764 0 0 -84.6764 1376.18 576.686)" gradientUnits="userSpaceOnUse" r="1" xlink:href="#b"/><clipPath id="A"><path d="m0 0h1440v3428h-1440z"/></clipPath><clipPath id="B"><path d="m0 361h1440v2781h-1440z"/></clipPath><g clip-path="url(#A)"><g fill="#36293b" filter="url(#a)" opacity=".81"><path d="m1384 468c425.81 0 771-231.469 771-517s-345.19-517-771-517c-425.812 0-771 231.469-771 517s345.188 517 771 517z" opacity=".9"/><path d="m1491 1714c201.03 0 364-238.18 364-532 0-293.815-162.97-532-364-532s-364 238.185-364 532c0 293.82 162.97 532 364 532z" opacity=".9"/><path d="m-98 2168c203.793 0 369-263.03 369-587.5s-165.207-587.5-369-587.5-369 263.03-369 587.5 165.207 587.5 369 587.5z" opacity=".9"/><path d="m1528.5 4335c327.78 0 593.5-376.3 593.5-840.5s-265.72-840.5-593.5-840.5-593.5 376.3-593.5 840.5 265.72 840.5 593.5 840.5z" opacity=".9"/></g><g clip-path="url(#B)"><g opacity=".5"><path d="m959.372 2634.46c-25.209 10.22-41.405 26.59-47.342 48.6-9.984 37.4 11.61 85.56 60.893 135.83 48.557 49.52 118.397 95.42 196.587 129.17 78.2 33.75 155.72 51.51 218.11 49.76 63.33-1.71 103.59-23.25 113.81-60.54 9.99-37.41-11.61-85.57-60.97-136.01-48.56-49.52-118.4-95.42-196.59-129.17-78.2-33.75-155.72-51.51-218.11-49.77-26.127.8-48.493 4.87-66.388 12.13zm491.578 344.35c-17.12 6.94-38.78 10.93-64.21 11.65-61.29 1.72-137.62-15.9-215.02-49.13-77.25-33.31-146.2-78.52-194.039-127.29-47.112-48.02-67.779-93.43-58.59-127.8 9.345-34.44 47.604-54.33 108.029-55.91 61.29-1.72 137.63 15.9 215.03 49.14 77.24 33.3 146.2 78.51 194.04 127.28 47.11 48.03 67.77 93.43 58.58 127.81-5.51 19.75-20.48 34.78-43.82 44.25z" fill="url(#c)" opacity=".25"/><path d="m1000.84 2661.26c-21.005 8.52-34.593 22.16-39.516 40.41-8.321 31.11 9.477 71.21 50.476 112.96 40.28 41 97.99 78.88 162.79 107.02 64.71 27.95 128.89 42.58 180.53 41.23 52.5-1.48 86.17-19.31 94.49-50.41s-9.47-71.21-50.47-112.96c-40.28-40.99-98-78.88-162.79-107.01-64.72-27.96-128.89-42.59-180.53-41.24-21.82.51-40.19 4-54.98 10zm174.69 256.88.94-3.51c-63.76-27.51-120.68-64.89-159.99-105.02-38.594-39.39-55.777-76.62-48.177-104.93s39.117-44.42 88.707-45.78c50.54-1.31 113.69 13.1 177.45 40.61 63.77 27.52 120.69 64.89 160 105.03 38.59 39.38 55.77 76.61 48.17 104.92s-39.11 44.43-88.71 45.78c-50.54 1.32-113.69-13.1-177.45-40.61z" fill="url(#d)" opacity=".25"/><path d="m1059.26 2702.21c-15.25 6.18-24.99 16.18-28.62 29.33-6.08 22.48 6.83 51.43 36.26 81.61 28.62 29.25 69.99 56.46 116.22 76.28l.95-3.51-.95 3.51c46.32 19.99 92.02 30.43 128.83 29.47 37.9-.99 61.94-14.07 68.03-36.55 6.08-22.49-6.83-51.44-36.26-81.62-28.62-29.25-69.99-56.46-116.22-76.27-46.32-20-92.02-30.44-128.83-29.48-15.45.64-28.67 2.87-39.41 7.23zm288.95 202.4c-9.96 4.04-22.39 6.37-37.38 6.82-35.86.99-80.54-9.24-125.74-28.85-45.21-19.6-85.62-45.95-113.52-74.46-27.17-27.75-39.31-53.89-33.95-73.58 5.36-19.68 27.49-30.95 62.25-31.91 35.86-1 80.54 9.23 125.75 28.84 45.2 19.61 85.61 45.96 113.51 74.46 27.17 27.76 39.31 53.9 33.95 73.58-2.88 11.18-11.48 19.67-24.87 25.1z" fill="url(#e)" opacity=".25"/><path d="m1110.5 2738.12c-10.12 4.11-16.8 10.78-19.11 19.63-4.05 14.99 4.48 34.26 23.85 54.12 18.66 19.12 45.52 36.79 75.49 49.65 64 27.62 120.56 25.32 128.74-5.31 8.17-30.62-35.35-76.14-99.34-103.76-30.06-13.03-59.74-19.76-83.75-19.19-10.2.38-18.88 2.02-25.88 4.86zm81.17 119.89.95-3.51c-29.11-12.59-54.86-29.45-72.78-47.82-17.13-17.45-24.88-33.9-21.55-46.09 3.33-12.2 17.23-19.29 39.2-19.86 23.07-.6 51.57 5.98 80.67 18.56 58.13 25 101.2 67.99 94.33 93.92-6.95 25.75-61.9 26.35-119.87 1.29z" fill="url(#f)" opacity=".25"/></g><g opacity=".5"><path d="m65.0314 2399.42c12.3532 28.78 29.5719 49.08 51.0466 59.47 36.491 17.56 79.826 3.43 122.232-39.86 41.774-42.65 77.861-108.66 101.557-185.84 23.695-77.18 32.318-156.59 24.063-223.46-8.322-67.87-32.989-114.8-69.4-132.6-36.491-17.56-79.826-3.42-122.39 39.92-41.773 42.65-77.8607 108.67-101.5562 185.85s-32.3189 156.58-24.064 223.46c3.5226 28.02 9.7424 52.63 18.5116 73.06zm274.1856-460.76c8.388 19.54 14.46 43.39 17.835 70.64 8.111 65.7-.499 143.87-23.795 220.29-23.372 76.25-58.903 141.45-100.043 183.47-40.508 41.38-81.335 55.04-114.869 38.89-33.6115-16.33-56.5071-60.82-64.3944-125.57-8.1115-65.69.4982-143.87 23.7942-220.29 23.3722-76.25 58.9032-141.45 100.0442-183.47 40.508-41.38 81.334-55.04 114.869-38.89 19.293 9.54 35.121 28.28 46.559 54.93z" fill="url(#g)" opacity=".25"/><path d="m85.686 2360.49c10.2944 23.98 24.656 41 42.473 49.62 30.345 14.62 66.455 3.05 101.663-32.98 34.576-35.39 64.357-89.96 84.151-153.88 19.637-63.87 26.702-129.62 19.962-184.96-6.965-56.28-27.416-95.49-57.761-110.11s-66.455-3.05-101.663 32.98c-34.575 35.39-64.357 89.96-84.1512 153.88-19.6372 63.87-26.7014 129.62-19.9613 184.96 2.7918 23.37 8.0432 43.61 15.2875 60.49zm224.864-138.89-3.424-1.65c-19.314 62.93-48.696 116.74-82.557 151.27-33.229 33.89-66.679 45.34-94.3 32-27.621-13.33-46.2242-49.93-52.7538-103.09-6.5967-54.15.3777-118.85 19.6916-181.79 19.3142-62.93 48.6962-116.74 82.5572-151.27 33.229-33.89 66.679-45.34 94.3-32 27.622 13.33 46.224 49.93 52.754 103.08 6.597 54.16-.378 118.86-19.692 181.8z" fill="url(#h)" opacity=".25"/><path d="m118.272 2305.75c7.473 17.41 17.976 29.65 30.813 35.94 21.942 10.65 48.005 2.22 73.48-23.59 24.684-25.13 46.081-64.24 59.964-109.9l-3.424-1.65 3.424 1.65c14.039-45.71 19.094-92.54 14.29-131.98-4.948-40.62-19.891-68.69-41.832-79.33-21.942-10.64-48.006-2.22-73.48 23.6-24.684 25.13-46.082 64.24-59.964 109.9-14.039 45.71-19.095 92.54-14.29 131.98 2.241 16.6 5.757 31.12 11.019 43.38zm161.169-270.86c4.881 11.37 8.406 25.06 10.418 41.14 4.737 38.44-.228 84.21-14.021 128.81-13.792 44.6-34.475 82.85-58.527 107.34-23.419 23.86-46.898 31.98-66.116 22.63-19.218-9.36-32.231-35.04-36.825-72.31-4.737-38.44.228-84.21 14.02-128.81 13.793-44.6 34.476-82.85 58.528-107.34 23.419-23.86 46.898-31.98 66.116-22.63 10.894 5.15 19.849 15.89 26.407 31.17z" fill="url(#i)" opacity=".25"/><path d="m146.899 2257.73c4.957 11.55 11.983 19.91 20.621 24.01 14.628 7.1 31.977 1.56 48.75-15.44 16.139-16.37 30.032-41.77 39.043-71.37 19.396-63.17 11.229-123.94-18.651-138.32s-68.398 23.64-87.793 86.81c-9.168 29.66-12.4 60.08-9.321 85.8 1.444 10.95 3.919 20.52 7.351 28.51zm104.99-64.45-3.423-1.65c-8.845 28.72-22.101 53.07-37.607 68.81-14.717 15.04-29.482 20.28-41.386 14.47-11.905-5.81-20.096-21.95-22.965-45.49-3.011-24.73.206-53.91 9.051-82.64 17.533-57.39 53.703-95.4 78.993-83.28 25.132 12.17 31.522 70.91 13.914 128.13z" fill="url(#j)" opacity=".25"/></g><g opacity=".5"><path d="m1125.34 1740.99c-20.06 21.56-29.88 44.45-28.46 67.61 2.51 39.31 37.54 73.37 98.79 96.05 60.35 22.34 139.2 31.1 221.95 24.63 82.76-6.47 159.88-27.36 216.92-58.97 57.92-32.04 88.34-71.28 86.08-110.61-2.51-39.32-37.54-73.37-98.92-96.18-60.35-22.34-139.2-31.1-221.96-24.63s-159.88 27.36-216.92 58.98c-23.86 13.3-43.23 27.81-57.48 43.12zm561.7 81.31c-13.63 14.64-32.37 28.74-55.61 41.64-56.04 31.06-132.02 51.52-213.88 58.07-81.74 6.43-159.56-2.13-219.01-24.12-58.54-21.66-91.85-53.62-94.14-89.75-2.18-36.27 26.9-73.03 82.19-103.55 56.03-31.06 132.02-51.52 213.88-58.08 81.74-6.42 159.56 2.13 219 24.13 58.54 21.66 91.86 53.61 94.15 89.75 1.1 20.88-8 41.95-26.58 61.91z" fill="url(#k)" opacity=".25"/><path d="m1171.78 1745.68c-16.72 17.96-24.99 37.08-23.81 56.3 2.07 32.7 31.07 61.15 82 79.95 50.03 18.46 115.19 25.66 183.82 20.45 68.49-5.33 132.32-22.7 179.56-48.77 47.99-26.63 73.49-59.27 71.42-91.97s-31.08-61.15-82.01-79.95c-50.03-18.46-115.18-25.66-183.81-20.45-68.5 5.32-132.32 22.69-179.56 48.77-19.98 10.96-35.85 23.02-47.61 35.67zm241.77 153.01-.23-3.69c-67.48 5.28-131.73-1.83-180.61-19.95-47.96-17.79-75.5-43.88-77.36-73.65-1.86-29.78 22.18-59.81 67.54-84.91 46.24-25.52 109.04-42.59 176.52-47.87 67.48-5.29 131.74 1.82 180.61 19.95 47.97 17.78 75.5 43.87 77.36 73.65 1.86 29.77-22.17 59.8-67.53 84.91-46.24 25.52-109.05 42.59-176.53 47.87z" fill="url(#l)" opacity=".25"/><path d="m1238.53 1755.35c-12.14 13.04-18 26.96-17.23 40.83 1.44 23.67 22.43 44.18 59.06 57.87 35.59 13.23 82.31 18.44 131.2 14.49l-.24-3.69.24 3.69c49.01-3.83 94.48-16.18 128.15-34.77 34.68-19.14 52.77-42.78 51.34-66.45-1.44-23.67-22.43-44.18-59.06-57.87-35.59-13.23-82.31-18.43-131.2-14.48-49.01 3.82-94.48 16.17-128.15 34.76-14.06 8.02-25.57 16.44-34.11 25.62zm330.17 47.79c-7.92 8.52-18.67 16.65-32.36 24.28-32.79 18.16-77.24 30.21-125.12 33.86-47.87 3.65-93.44-1.23-128.12-14.11-33.79-12.54-53.19-30.83-54.41-51.57-1.22-20.75 15.66-41.78 47.45-59.39 32.79-18.17 77.24-30.21 125.12-33.86 47.87-3.65 93.44 1.22 128.12 14.11 33.79 12.54 53.19 30.82 54.41 51.56.84 11.71-4.43 23.68-15.09 35.12z" fill="url(#m)" opacity=".25"/><path d="m1297.08 1763.87c-8.05 8.65-12.12 18.01-11.48 27.3.96 15.78 14.87 29.46 38.98 38.47 23.22 8.67 53.55 12.05 85.25 9.5 67.74-5.29 119.23-34.62 117.17-66.82-2.05-32.19-56.49-53.26-124.23-47.96-31.83 2.42-61.33 10.49-83.32 22.57-9.3 5.26-16.79 10.95-22.37 16.94zm112.52 71.58-.23-3.69c-30.81 2.38-59.87-.8-82.18-9.13-21.27-7.86-33.59-19.31-34.33-32.16-.75-12.86 9.85-26.09 29.95-37.18 21.11-11.66 49.48-19.29 80.29-21.68 61.5-4.89 114.73 14.07 116.52 41.3 1.66 27.1-48.88 54.09-110.25 58.85z" fill="url(#n)" opacity=".25"/></g><g opacity=".5"><path d="m265.614 1693.29c26.408 5.95 50.182 2 70.017-12.14 33.633-24.08 50.556-74.28 47.743-141.58-2.779-66.31-24.37-141.59-60.802-211.91-36.433-70.31-83.453-127.58-132.44-160.95-49.685-33.93-95.4851-39.29-129.2234-15.43-33.6337 24.09-50.5565 74.29-47.802 141.77 2.779 66.31 24.3698 141.59 60.8025 211.91 36.4329 70.31 83.4529 127.58 132.4399 160.95 20.566 13.93 40.519 23.17 59.265 27.38zm-137.188-546.8c17.932 4.04 37.291 12.94 57.263 26.54 48.126 32.78 94.343 89.28 130.52 158.74 36.014 69.43 57.408 143.68 60.153 208.99 2.711 64.31-13.01 111.81-43.928 133.94-31.081 22.08-74.202 16.54-121.571-15.88-48.126-32.79-94.343-89.28-130.5207-158.75-36.0142-69.43-57.4079-143.68-60.1529-208.99-2.711-64.31 13.0096-111.81 43.9279-133.93 17.947-12.58 39.8577-16.16 64.3087-10.66z" fill="url(#o)" opacity=".25"/><path d="m252.701 1649c22.006 4.95 41.889 1.71 58.345-10.02 27.981-20.02 42.217-61.72 39.824-117.65-2.359-54.93-20.235-117.11-50.308-175.51-30.132-58.22-69.113-105.56-109.592-133.27-41.235-28.07-79.407-32.7-107.3883-12.68-27.9811 20.01-42.2171 61.71-39.8243 117.64 2.3588 54.94 20.235 117.12 50.3082 175.52 30.1324 58.21 69.1134 105.56 109.5924 133.26 17.062 11.75 33.557 19.22 49.043 22.71zm44.703-300.93-3.159 2.26c29.713 57.33 47.334 118.66 49.554 172.38 2.187 52.72-10.521 91.8-36.008 110-25.488 18.2-60.817 13.42-99.736-13.14-39.618-27.12-77.959-73.73-107.673-131.06-29.7131-57.33-47.3338-118.66-49.5541-172.37-2.1862-52.72 10.5216-91.8 36.0088-110 25.4873-18.21 60.8173-13.42 99.7363 13.14 39.618 27.11 77.959 73.72 107.672 131.05z" fill="url(#p)" opacity=".25"/><path d="m236.424 1584c15.975 3.59 30.383 1.1 42.293-7.3 20.277-14.43 30.507-44.57 28.938-84.88-1.594-39.13-14.373-83.75-36.007-125.21l-3.158 2.25 3.158-2.25c-21.575-41.65-49.318-75.39-78.169-95.14-29.712-20.33-57.216-23.35-77.494-8.93-20.2763 14.43-30.5064 44.57-28.9374 84.89 1.5934 39.13 14.3724 83.74 36.0064 125.21 21.575 41.64 49.318 75.38 78.169 95.13 12.279 8.1 23.954 13.7 35.201 16.23zm-80.645-321.4c10.432 2.34 21.572 7.42 33.362 15.41 28.153 19.2 55.256 52.2 76.249 92.93 20.994 40.72 33.635 84.12 35.195 122.25 1.525 37.14-7.34 64.62-25.123 77.24-17.783 12.61-42.551 9.22-69.842-9.39-28.153-19.19-55.256-52.19-76.25-92.92-20.993-40.72-33.6343-84.12-35.1938-122.26-1.5254-37.13 7.3388-64.61 25.1228-77.23 9.975-7.25 22.461-9.19 36.48-6.03z" fill="url(#q)" opacity=".25"/><path d="m222.138 1526.98c10.595 2.38 20.343.82 28.268-4.92 13.517-9.62 20.372-29.64 19.337-56.18-1-25.54-9.299-54.51-23.318-81.4-29.816-57.55-74.727-87.24-102.264-67.52-27.536 19.72-25.835 80.04 3.981 137.58 13.961 27.08 32.013 48.95 50.797 61.88 8.076 5.37 15.864 8.91 23.199 10.56zm21.129-140.25-3.158 2.26c13.542 26.19 21.539 53.9 22.506 78.45.991 23.37-4.499 40.73-15.523 48.53-11.023 7.81-26.591 5.69-43.815-6.1-18.085-12.37-35.335-33.46-48.877-59.65-27.143-52.2-30.255-110.27-6.984-126.99 23.213-16.54 65.713 13.6 92.693 65.76z" fill="url(#r)" opacity=".25"/></g><g opacity=".5"><path d="m-29.5078 834.834c0 29.221 8.4777 52.49 25.43318 68.363 28.86042 26.876 78.10342 27.959 138.88962 3.067 59.886-24.532 124.1-71.43 180.738-132.037 56.639-60.606 99.208-127.887 119.591-189.396 20.743-62.41 16.234-111.473-12.446-138.529-28.861-26.876-78.104-27.959-139.071-3.067-59.886 24.531-124.1 71.43-180.738 132.036-56.6383 60.607-99.20741 127.888-119.59 189.396-8.4778 25.794-12.8068 49.424-12.8068 70.167zm470.4238-320.35c0 19.842-4.149 42.75-12.446 67.822-20.022 60.426-62.05 126.625-117.967 186.69-55.917 59.886-119.229 106.243-178.213 130.413-58.0809 23.81-104.6182 23.089-131.13369-1.623-26.51541-24.892-30.30331-71.249-10.46186-130.774 20.02185-60.426 62.04975-126.625 117.96655-186.69 55.917-59.885 119.229-106.242 178.212-130.413 58.082-23.81 104.619-23.088 131.135 1.624 15.151 14.43 22.908 35.895 22.908 62.951z" fill="url(#s)" opacity=".25"/><path d="m8.00977 806.876c0 24.351 7.03463 43.831 21.10413 56.999 23.9902 22.367 64.9358 23.449 115.4411 2.705 49.605-20.382 102.635-59.163 149.713-109.308 46.899-50.145 82.072-105.882 99.027-156.748 17.136-51.768 13.528-92.714-10.462-115.081-23.989-22.367-64.936-23.449-115.441-2.705-49.604 20.382-102.635 59.163-149.713 109.308-46.898 50.145-82.0715 105.882-99.027 156.748-7.2151 21.465-10.64223 40.946-10.64223 58.082zm283.55223-52.129-2.705-2.526c-46.177 49.424-98.485 87.664-147.007 107.505-47.6199 19.481-85.8599 19.12-107.6855-1.262-21.8257-20.383-24.71175-58.443-8.4778-107.325 16.5947-49.784 51.2272-104.619 97.4033-154.042 46.178-49.424 98.486-87.664 147.007-107.505 47.62-19.481 85.86-19.12 107.686 1.263 21.825 20.382 24.711 58.442 8.477 107.324-16.594 49.784-51.227 104.619-97.403 154.042z" fill="url(#t)" opacity=".25"/><path d="m63.9277 768.816c0 17.677 5.2309 31.746 15.332 41.306 17.3163 16.234 46.8983 16.956 83.3353 2.165 35.353-14.43 73.413-42.208 106.783-78.103l-2.706-2.526 2.706 2.526c33.55-35.896 58.622-75.579 70.708-111.834 12.446-37.338 9.56-66.74-7.756-82.974-17.317-16.234-46.899-16.955-83.335-2.164-35.354 14.43-73.413 42.208-106.783 78.103-33.55 35.895-58.6232 75.578-70.7085 111.834-4.8702 15.332-7.5758 29.221-7.5758 41.667zm276.5193-188.314c0 11.544-2.345 24.712-7.216 39.503-11.724 35.354-36.255 74.135-69.084 109.128s-69.806 62.23-104.258 76.3c-33.55 13.708-60.427 13.528-75.5787-.722s-17.1358-40.946-5.7721-75.217c11.7246-35.354 36.2568-74.135 69.0848-109.128 32.829-34.994 69.806-62.231 104.258-76.3 33.55-13.709 60.427-13.528 75.578.721 8.658 7.937 12.988 20.203 12.988 35.715z" fill="url(#u)" opacity=".25"/><path d="m112.99 735.446c0 11.725 3.427 21.285 10.282 27.598 11.544 10.823 31.205 11.364 55.195 1.623 23.088-9.379 47.8-27.417 69.445-50.686 46.357-49.603 64.215-105.701 40.585-127.707-23.629-22.006-78.284-.541-124.641 49.063-21.825 23.269-38.059 49.062-45.996 72.692-3.247 10.101-4.87 19.3-4.87 27.417zm132.217-23.99-2.706-2.525c-21.104 22.547-44.734 39.863-66.92 48.882-21.104 8.658-38.06 8.658-47.439-.18-9.38-8.839-10.643-25.614-3.427-47.259 7.575-22.728 23.268-47.439 44.372-69.987 42.028-45.094 94.338-67.28 114.36-48.701 19.841 18.578 1.082 72.331-40.946 117.245z" fill="url(#v)" opacity=".25"/></g><g opacity=".5"><path d="m1518.9 786.496c26.04 0 46.78-7.555 60.92-22.663 23.95-25.717 24.91-69.596 2.73-123.762-21.86-53.363-63.65-110.583-117.65-161.052-54.01-50.469-113.96-88.401-168.77-106.564-55.61-18.484-99.33-14.466-123.44 11.091-23.95 25.716-24.91 69.596-2.73 123.922 21.86 53.363 63.65 110.583 117.65 161.052 54.01 50.469 113.96 88.401 168.77 106.564 22.98 7.554 44.04 11.412 62.52 11.412zm-285.45-419.184c17.68 0 38.09 3.697 60.43 11.09 53.85 17.841 112.83 55.291 166.36 105.118 53.36 49.826 94.67 106.242 116.21 158.801 21.21 51.755 20.57 93.223-1.45 116.85-22.18 23.628-63.49 27.003-116.53 9.323-53.84-17.841-112.83-55.291-166.36-105.118-53.36-49.826-94.67-106.242-116.2-158.801-21.22-51.755-20.58-93.223 1.44-116.85 12.86-13.502 31.99-20.413 56.1-20.413z" fill="url(#w)" opacity=".25"/><path d="m1493.99 753.064c21.7 0 39.06-6.269 50.79-18.806 19.93-21.377 20.9-57.862 2.41-102.867-18.16-44.201-52.72-91.455-97.4-133.406-44.68-41.79-94.35-73.132-139.67-88.241-46.13-15.269-82.62-12.054-102.55 9.323s-20.89 57.863-2.41 102.867c18.16 44.201 52.72 91.455 97.4 133.406 44.69 41.79 94.35 73.132 139.68 88.241 19.12 6.429 36.48 9.483 51.75 9.483zm-46.45-252.668-2.25 2.411c44.04 41.147 78.12 87.759 95.8 130.995 17.35 42.433 17.03 76.508-1.13 95.956s-52.08 22.02-95.63 7.554c-44.37-14.787-93.23-45.647-137.27-86.794s-78.11-87.759-95.79-130.995c-17.36-42.433-17.04-76.507 1.12-95.956 18.17-19.448 52.08-22.02 95.64-7.554 44.36 14.787 93.22 45.647 137.26 86.794z" fill="url(#x)" opacity=".25"/><path d="m1460.08 703.237c15.75 0 28.29-4.661 36.8-13.662 14.47-15.43 15.11-41.789 1.93-74.257-12.86-31.503-37.61-65.417-69.59-95.152l-2.25 2.411 2.25-2.411c-31.99-29.896-67.35-52.237-99.66-63.006-33.27-11.09-59.47-8.519-73.93 6.911-14.47 15.43-15.11 41.79-1.93 74.257 12.86 31.504 37.61 65.418 69.6 95.153 31.98 29.895 67.34 52.237 99.65 63.006 13.66 4.339 26.04 6.75 37.13 6.75zm-167.8-246.399c10.28 0 22.02 2.09 35.2 6.43 31.5 10.447 66.06 32.306 97.24 61.559s55.45 62.203 67.99 92.902c12.21 29.896 12.05 53.845-.65 67.346s-36.48 15.269-67.02 5.143c-31.5-10.447-66.06-32.306-97.24-61.559-31.19-29.253-55.46-62.203-67.99-92.902-12.22-29.896-12.06-53.845.64-67.346 7.07-7.715 18-11.573 31.83-11.573z" fill="url(#y)" opacity=".25"/><path d="m1430.34 659.519c10.45 0 18.97-3.054 24.59-9.162 9.65-10.286 10.13-27.806 1.45-49.183-8.36-20.574-24.43-42.594-45.16-61.881-44.21-41.308-94.19-57.22-113.8-36.164-19.61 21.055-.48 69.756 43.72 111.064 20.73 19.448 43.72 33.914 64.77 40.986 9 2.893 17.2 4.34 24.43 4.34zm-21.37-117.815-2.25 2.411c20.09 18.805 35.52 39.861 43.55 59.631 7.72 18.805 7.72 33.914-.16 42.272-7.87 8.358-22.82 9.483-42.11 3.053-20.25-6.75-42.27-20.734-62.36-39.539-40.18-37.45-59.95-84.062-43.4-101.903 16.56-17.68 64.45-.964 104.48 36.486z" fill="url(#z)" opacity=".25"/></g></g></g></svg>