<svg fill="none" height="88" viewBox="0 0 88 88" width="88" xmlns="http://www.w3.org/2000/svg" xmlns:xlink="http://www.w3.org/1999/xlink"><linearGradient id="a" gradientUnits="userSpaceOnUse" x1="3" x2="88" y1="44" y2="44"><stop offset="0" stop-color="#673e60"/><stop offset="1" stop-color="#673e60" stop-opacity="0"/></linearGradient><linearGradient id="b"><stop offset="0" stop-color="#302634"/><stop offset="1" stop-color="#e35760"/></linearGradient><linearGradient id="c" gradientUnits="userSpaceOnUse" x1="27.0165" x2="27.0165" xlink:href="#b" y1=".19004" y2="77.1605"/><linearGradient id="d"><stop offset="0" stop-color="#e35760"/><stop offset="1" stop-color="#302634"/></linearGradient><radialGradient id="e" cx="0" cy="0" gradientTransform="matrix(0 69.6727 -31.3187 0 27.2407 10.8396)" gradientUnits="userSpaceOnUse" r="1" xlink:href="#d"/><radialGradient id="f" cx="0" cy="0" gradientTransform="matrix(0 60.4513 -11.6532 0 58.706 19.7283)" gradientUnits="userSpaceOnUse" r="1" xlink:href="#d"/><linearGradient id="g" gradientUnits="userSpaceOnUse" x1="57.7568" x2="57.7568" xlink:href="#b" y1="10.4884" y2="77.2716"/><mask id="h" fill="#fff"><path d="m3 13c0-5.52285 4.47715-10 10-10h75v82h-75c-5.52285 0-10-4.4771-10-10z" fill="#fff"/></mask><path d="m2 13c0-6.07513 4.92487-11 11-11h75v2h-75c-4.97056 0-9 4.02944-9 9zm86 73h-75c-6.07513 0-11-4.9249-11-11h2c0 4.9706 4.02944 9 9 9h75zm-75 0c-6.07513 0-11-4.9249-11-11v-62c0-6.07513 4.92487-11 11-11v2c-4.97056 0-9 4.02944-9 9v62c0 4.9706 4.02944 9 9 9zm75-83v82z" fill="url(#a)" mask="url(#h)"/><path d="m31.2162 10v10.4166h-5.4347v-10.4166zm-.6619 57.662v9.4985h-5.4347v-9.4985zm3.8322-11.5819c0-1.3418-.2439-2.4835-.7316-3.4251-.4645-.9416-1.231-1.7773-2.2993-2.507-1.0452-.7298-2.4619-1.436-4.2502-2.1186-3.0193-1.1771-5.6786-2.4247-7.9779-3.7429-2.2761-1.3418-4.0528-3.0014-5.3302-4.9788-1.2774-2.0009-1.9161-4.5315-1.9161-7.5918 0-2.919.6852-5.4496 2.0555-7.5917 1.3703-2.1422 3.2631-3.79 5.6785-4.9435 2.4387-1.177 5.2722-1.7655 8.5005-1.7655 2.4618 0 4.6915.3766 6.6888 1.1299 1.9974.7298 3.7161 1.8126 5.156 3.2486 1.44 1.4124 2.5432 3.1426 3.3096 5.1906s1.1497 4.3903 1.1497 7.0268h-9.9985c0-1.4124-.151-2.66-.4529-3.7429s-.7432-1.9892-1.3238-2.7189c-.5574-.7298-1.231-1.2712-2.0206-1.6243-.7897-.3766-1.6606-.565-2.6129-.565-1.4167 0-2.578.2825-3.4837.8475-.9058.565-1.5677 1.33-1.9858 2.2952-.3948.9416-.5922 2.0244-.5922 3.2485 0 1.2006.209 2.2481.627 3.1427.4413.8945 1.1961 1.7184 2.2645 2.4717 1.0684.7298 2.5316 1.483 4.3896 2.2599 3.0192 1.177 5.6669 2.4482 7.943 3.8135s4.0528 3.0367 5.3302 5.0141 1.9161 4.4962 1.9161 7.5564c0 3.0367-.6968 5.6262-2.0903 7.7683-1.3935 2.1187-3.3444 3.7429-5.8528 4.8729-2.5083 1.1064-5.4114 1.6596-8.7094 1.6596-2.1367 0-4.2618-.2825-6.3753-.8475-2.1135-.5885-4.0296-1.5301-5.7483-2.8248-1.7186-1.2947-3.0889-3.0132-4.1108-5.1554-1.0219-2.1657-1.5329-4.8257-1.5329-7.9801h10.0333c0 1.7184.2206 3.1544.6619 4.3079.4413 1.1299 1.0219 2.0362 1.7419 2.7189.7432.6591 1.5793 1.1299 2.5083 1.4124s1.8696.4237 2.8219.4237c1.4864 0 2.7057-.2707 3.658-.8121.9754-.5415 1.707-1.283 2.1947-2.2246.511-.9651.7665-2.048.7665-3.2486z" fill="url(#c)"/><path d="m31.2162 10.8396v10.4166h-5.4347v-10.4166zm-.6619 57.662v9.4985h-5.4347v-9.4985zm3.8322-11.5819c0-1.3418-.2439-2.4835-.7316-3.4251-.4645-.9416-1.231-1.7773-2.2993-2.507-1.0452-.7298-2.4619-1.436-4.2502-2.1186-3.0193-1.1771-5.6786-2.4247-7.9779-3.7429-2.2761-1.3418-4.0528-3.0014-5.3302-4.9788-1.2774-2.0009-1.9161-4.5315-1.9161-7.5918 0-2.919.6852-5.4496 2.0555-7.5917 1.3703-2.1422 3.2631-3.79 5.6785-4.9435 2.4387-1.177 5.2722-1.7655 8.5005-1.7655 2.4618 0 4.6915.3766 6.6888 1.1299 1.9974.7298 3.7161 1.8126 5.156 3.2486 1.44 1.4124 2.5432 3.1426 3.3096 5.1906s1.1497 4.3903 1.1497 7.0268h-9.9985c0-1.4124-.151-2.66-.4529-3.7429s-.7432-1.9892-1.3238-2.7189c-.5574-.7298-1.231-1.2712-2.0206-1.6243-.7897-.3766-1.6606-.565-2.6129-.565-1.4167 0-2.578.2825-3.4837.8475-.9058.565-1.5677 1.33-1.9858 2.2952-.3948.9416-.5922 2.0244-.5922 3.2485 0 1.2006.209 2.2481.627 3.1427.4413.8945 1.1961 1.7184 2.2645 2.4717 1.0684.7298 2.5316 1.483 4.3896 2.2599 3.0192 1.177 5.6669 2.4482 7.943 3.8135s4.0528 3.0367 5.3302 5.0141 1.9161 4.4962 1.9161 7.5564c0 3.0367-.6968 5.6262-2.0903 7.7683-1.3935 2.1187-3.3444 3.7429-5.8528 4.8729-2.5083 1.1064-5.4114 1.6596-8.7094 1.6596-2.1367 0-4.2618-.2825-6.3753-.8475-2.1135-.5885-4.0296-1.5301-5.7483-2.8248-1.7186-1.2947-3.0889-3.0132-4.1108-5.1554-1.0219-2.1657-1.5329-4.8257-1.5329-7.9801h10.0333c0 1.7184.2206 3.1544.6619 4.3079.4413 1.1299 1.0219 2.0362 1.7419 2.7189.7432.6591 1.5793 1.1299 2.5083 1.4124s1.8696.4237 2.8219.4237c1.4864 0 2.7057-.2707 3.658-.8121.9754-.5415 1.707-1.283 2.1947-2.2246.511-.9651.7665-2.048.7665-3.2486z" fill="url(#e)"/><g clip-rule="evenodd" fill-rule="evenodd"><path d="m31.2162 17.6319v-7.6319h-5.4347v.8395h5.4345v6.7923.8396h.0002c1.2694.1855 2.4655.4899 3.5881.9133 1.9974.7297 3.7161 1.8126 5.156 3.2485 1.44 1.4124 2.5432 3.1427 3.3096 5.1907.6841 1.828 1.0629 3.8904 1.1364 6.1872h.0135c0-2.6365-.3833-4.9788-1.1497-7.0268s-1.8696-3.7782-3.3096-5.1906c-1.4399-1.436-3.1586-2.5188-5.156-3.2486-1.1227-.4234-2.3188-.7278-3.5883-.9132zm-9.2586 14.5264c-.0056.1421-.0084.2863-.0084.4325 0 1.2005.209 2.2481.6271 3.1426.4412.8945 1.1961 1.7184 2.2644 2.4717 1.0684.7298 2.5316 1.4831 4.3896 2.2599 3.0193 1.177 5.6669 2.4482 7.943 3.8135 2.2761 1.3654 4.0528 3.0367 5.3302 5.0141 1.2177 1.885 1.855 4.262 1.9119 7.131.0029-.1371.0044-.2751.0044-.4141 0-3.0602-.6387-5.579-1.9161-7.5564s-3.0541-3.6488-5.3302-5.0141-4.9238-2.6365-7.943-3.8135c-1.858-.7769-3.3212-1.5301-4.3896-2.2599-1.0684-.7533-1.8232-1.5772-2.2645-2.4717-.3701-.792-.5763-1.7038-.6188-2.7356zm-11.9452 22.1837h10.0207c0 1.7185.2206 3.1544.6619 4.3079.4413 1.1299 1.0219 2.0362 1.7419 2.7189.7432.6591 1.5793 1.1299 2.5083 1.4124s1.8697.4237 2.8219.4237c1.4864 0 2.7057-.2707 3.658-.8121.9754-.5414 1.707-1.2829 2.1947-2.2246.511-.9651.7665-2.048.7665-3.2485 0-.1507-.0031-.2989-.0093-.4445-.0503 1.0442-.3027 1.9954-.757 2.8535-.4877.9416-1.2193 1.6831-2.1947 2.2246-.9523.5414-2.1716.8121-3.658.8121-.9523 0-1.8929-.1412-2.8219-.4237s-1.7651-.7533-2.5083-1.4124c-.72-.6827-1.3006-1.589-1.7419-2.7189-.4413-1.1535-.6619-2.5895-.6619-4.3079h-10.0333c0 .2838.0041.5637.0124.8395zm1.8732-22.1941c.0611-2.7476.7448-5.1423 2.0509-7.1842 1.3703-2.1422 3.2631-3.79 5.6785-4.9434 1.8325-.8845 3.888-1.4366 6.1663-1.6565v-.8395c-2.2783.2199-4.3336.772-6.1661 1.6564-2.4154 1.1535-4.3082 2.8013-5.6785 4.9435-1.3703 2.1421-2.0555 4.6727-2.0555 7.5917 0 .1452.0015.2892.0044.432zm18.6685 45.0126h.0002v-6.1521c-.0001 0-.0001 0-.0002 0z" fill="#fff" fill-opacity=".3"/><path d="m50.2959 21.7283c0-1.1046.8954-2 2-2h12.7901c1.1046 0 2 .8954 2 2v1.8271c0 1.1046-.8954 2-2 2h-3.0369v46.6173h3.0369c1.1046 0 2 .8954 2 2v1.8271c0 1.1046-.8954 2-2 2h-12.7901c-1.1046 0-2-.8954-2-2v-1.8271c0-1.1046.8954-2 2-2h3.0371v-46.6173h-3.0371c-1.1046 0-2-.8954-2-2z" fill="url(#f)"/><path d="m49.4561 21c0-1.1046.8954-2 2-2h12.7901c1.1045 0 2 .8954 2 2v1.8272c0 1.1045-.8955 2-2 2h-3.037v46.6172h3.037c1.1045 0 2 .8954 2 2v1.8271c0 1.1046-.8955 2-2 2h-12.7901c-1.1046 0-2-.8954-2-2v-1.8271c0-1.1046.8954-2 2-2h3.0371v-46.6172h-3.0371c-1.1046 0-2-.8955-2-2z" fill="url(#g)"/><path d="m50.6166 19.1841c-.2032.313-.3212.6864-.3212 1.0874v1.8271c0 1.1046.8954 2 2 2h3.0371v46.6172h-.8393v-45.8887h-3.0371c-1.1046 0-2-.8955-2-2v-1.8272c0-.8048.4753-1.4985 1.1605-1.8158zm15.3084 4.7303c-.2552.1183-.5397.1842-.8395.1842h-3.0369v.7285h2.1976c.7036 0 1.3223-.3634 1.6788-.9127zm.0001 52.4443c-.2553.1183-.5397.1842-.8396.1842h-12.7901c-1.1046 0-2-.8954-2-2v-1.8271c0-.401.118-.7743.3211-1.0874-.6852.3174-1.1604 1.0111-1.1604 1.8158v1.8272c0 1.1046.8954 2 2 2h12.7901c.7036 0 1.3224-.3634 1.6789-.9127z" fill="#fff" fill-opacity=".1"/></g></svg>