<svg fill="none" height="86" viewBox="0 0 766 86" width="766" xmlns="http://www.w3.org/2000/svg"><path clip-rule="evenodd" d="m85.5894 42.7947c0 23.6349-19.1598 42.7947-42.7947 42.7947s-42.7947-19.1598-42.7947-42.7947 19.1598-42.7947 42.7947-42.7947 42.7947 19.1598 42.7947 42.7947zm-17.1179-17.3939c0 3.0497-2.4722 5.5219-5.5219 5.5219-3.0496 0-5.5219-2.4722-5.5219-5.5219s2.4723-5.5219 5.5219-5.5219c3.0497 0 5.5219 2.4722 5.5219 5.5219zm-25.9529-.0003c5.4894 0 9.9394-2.9667 9.9394-6.6263s-4.45-6.6263-9.9394-6.6263c-5.4893 0-9.9394 2.9667-9.9394 6.6263s4.4501 6.6263 9.9394 6.6263z" fill="#fbff5c" fill-rule="evenodd"/><path d="m485.84 64.0723c0-4.4903-1.577-8.0342-4.732-10.6319-3.154-2.6347-8.924-5.1211-17.311-7.459-8.387-2.375-14.51-4.9541-18.369-7.7373-5.492-3.9336-8.239-9.0918-8.239-15.4746 0-6.1972 2.542-11.2256 7.626-15.08493 5.122-3.89648 11.653-5.84473 19.594-5.84473 5.381 0 10.187 1.03907 14.417 3.11719 4.268 2.07813 7.57 4.97266 9.908 8.68357 2.338 3.711 3.507 7.8487 3.507 12.4131h-6.902c0-5.5293-1.893-9.9639-5.678-13.3037-3.785-3.37695-8.869-5.06543-15.252-5.06543-6.197 0-11.133 1.3916-14.806 4.17483-3.674 2.7461-5.511 6.3457-5.511 10.7988 0 4.1191 1.651 7.4775 4.954 10.0752s8.591 4.8984 15.864 6.9023c7.274 1.9668 12.784 4.0264 16.532 6.1788 3.748 2.1152 6.569 4.6572 8.461 7.6259 1.893 2.9688 2.839 6.4756 2.839 10.5205 0 6.3829-2.56 11.5039-7.681 15.3633-5.084 3.8594-11.801 5.7891-20.151 5.7891-5.715 0-10.966-1.0205-15.753-3.0615-4.75-2.0411-8.368-4.8985-10.854-8.5723-2.449-3.6738-3.674-7.8857-3.674-12.6357h6.847c0 5.7148 2.133 10.2236 6.401 13.5263 4.268 3.3028 9.945 4.9541 17.033 4.9541 6.309 0 11.374-1.3916 15.196-4.1748 3.823-2.7832 5.734-6.4756 5.734-11.0771z" fill="#fbff5c"/><path d="m514.396 50.9912v33.0088h-6.847v-81.04688h27.609c8.424 0 15.067 2.15235 19.928 6.45704 4.898 4.30464 7.348 10.22364 7.348 17.75684 0 7.6074-2.357 13.4892-7.07 17.6455-4.676 4.1191-11.467 6.1787-20.373 6.1787zm0-5.7891h20.762c6.643 0 11.708-1.5771 15.196-4.7314 3.489-3.1543 5.233-7.5518 5.233-13.1924 0-5.6035-1.744-10.0566-5.233-13.3594-3.451-3.3398-8.368-5.04683-14.75-5.12105h-21.208z" fill="#fbff5c"/><path d="m613.867 61.2891h-36.794l-8.349 22.7109h-7.181l30.671-81.04688h6.513l30.67 81.04688h-7.125zm-34.679-5.8448h32.508l-16.254-44.1416z" fill="#fbff5c"/><path d="m698.087 58.7285c-.928 8.5352-3.989 15.0664-9.185 19.5938-5.158 4.5273-12.042 6.791-20.651 6.791-6.012 0-11.337-1.5029-15.976-4.5088-4.601-3.0059-8.164-7.2549-10.687-12.7471-2.524-5.5293-3.804-11.8379-3.841-18.9258v-10.5205c0-7.1992 1.262-13.582 3.785-19.1484 2.524-5.5664 6.142-9.85254 10.855-12.8584 4.75-3.04297 10.205-4.56446 16.365-4.56446 8.684 0 15.53 2.35645 20.54 7.06934 5.047 4.67582 7.979 11.15132 8.795 19.42672h-6.902c-1.707-13.7675-9.185-20.65133-22.433-20.65133-7.348 0-13.211 2.74613-17.59 8.23833-4.342 5.4921-6.513 13.081-6.513 22.7666v9.9082c0 9.3515 2.116 16.8105 6.346 22.3769 4.268 5.5664 10.02 8.3496 17.256 8.3496 7.162 0 12.561-1.707 16.198-5.1211 3.637-3.4511 5.882-8.6093 6.736-15.4746z" fill="#fbff5c"/><path d="m759.484 45.1465h-37.907v33.0644h43.585v5.7891h-50.432v-81.04688h50.154v5.84473h-43.307v30.55955h37.907z" fill="#fbff5c"/><path d="m485.84 64.0723c0-4.4903-1.577-8.0342-4.732-10.6319-3.154-2.6347-8.924-5.1211-17.311-7.459-8.387-2.375-14.51-4.9541-18.369-7.7373-5.492-3.9336-8.239-9.0918-8.239-15.4746 0-6.1972 2.542-11.2256 7.626-15.08493 5.122-3.89648 11.653-5.84473 19.594-5.84473 5.381 0 10.187 1.03907 14.417 3.11719 4.268 2.07813 7.57 4.97266 9.908 8.68357 2.338 3.711 3.507 7.8487 3.507 12.4131h-6.902c0-5.5293-1.893-9.9639-5.678-13.3037-3.785-3.37695-8.869-5.06543-15.252-5.06543-6.197 0-11.133 1.3916-14.806 4.17483-3.674 2.7461-5.511 6.3457-5.511 10.7988 0 4.1191 1.651 7.4775 4.954 10.0752s8.591 4.8984 15.864 6.9023c7.274 1.9668 12.784 4.0264 16.532 6.1788 3.748 2.1152 6.569 4.6572 8.461 7.6259 1.893 2.9688 2.839 6.4756 2.839 10.5205 0 6.3829-2.56 11.5039-7.681 15.3633-5.084 3.8594-11.801 5.7891-20.151 5.7891-5.715 0-10.966-1.0205-15.753-3.0615-4.75-2.0411-8.368-4.8985-10.854-8.5723-2.449-3.6738-3.674-7.8857-3.674-12.6357h6.847c0 5.7148 2.133 10.2236 6.401 13.5263 4.268 3.3028 9.945 4.9541 17.033 4.9541 6.309 0 11.374-1.3916 15.196-4.1748 3.823-2.7832 5.734-6.4756 5.734-11.0771z" fill="#fbff5c"/><g fill="#fff"><path d="m161.263 62.7363c0-3.1543-1.114-5.5664-3.34-7.2363-2.227-1.707-6.235-3.4883-12.024-5.3438-5.789-1.8925-10.372-3.748-13.749-5.5664-9.203-4.9726-13.804-11.6709-13.804-20.0947 0-4.3789 1.224-8.2754 3.674-11.6894 2.486-3.45121 6.03-6.14164 10.631-8.07132 4.639-1.92969 9.834-2.89454 15.586-2.89454 5.789 0 10.948 1.05762 15.475 3.17286 4.527 2.07812 8.034 5.0283 10.52 8.8506 2.524 3.8222 3.786 8.164 3.786 13.0254h-16.7c0-3.711-1.169-6.5869-3.506-8.628-2.338-2.0781-5.623-3.1171-9.853-3.1171-4.082 0-7.255.872-9.519 2.6162-2.263 1.707-3.395 3.9707-3.395 6.791 0 2.6347 1.317 4.8428 3.952 6.624 2.672 1.7813 6.587 3.4512 11.745 5.0098 9.5 2.8574 16.421 6.4013 20.763 10.6318s6.513 9.5 6.513 15.8086c0 7.0137-2.654 12.5244-7.96 16.5322-5.307 3.9707-12.451 5.9561-21.431 5.9561-6.234 0-11.912-1.1319-17.033-3.3955-5.121-2.3008-9.036-5.4366-11.745-9.4073-2.672-3.9707-4.008-8.5722-4.008-13.8046h16.755c0 8.9433 5.343 13.415 16.031 13.415 3.971 0 7.069-.7979 9.296-2.3936 2.226-1.6328 3.34-3.8964 3.34-6.791z"/><path d="m252.496 60.6211 10.91-57.66798h16.644l-17.98 81.04688h-16.81l-13.193-54.2168-13.192 54.2168h-16.811l-17.979-81.04688h16.644l10.965 57.55668 13.36-57.55668h14.138z"/><path d="m332.43 67.3008h-29.28l-5.566 16.6992h-17.757l30.17-81.04688h15.475l30.337 81.04688h-17.757zm-24.771-13.5264h20.262l-10.187-30.3369z"/><path d="m380.078 55.4443v28.5557h-16.699v-81.04688h31.617c6.086 0 11.43 1.11329 16.031 3.33985 4.639 2.22656 8.202 5.39943 10.688 9.51853 2.486 4.0821 3.729 8.7393 3.729 13.9717 0 7.9414-2.727 14.2129-8.182 18.8145-5.418 4.5644-12.933 6.8466-22.544 6.8466zm0-13.5263h14.918c4.416 0 7.775-1.0391 10.075-3.1172 2.338-2.0781 3.507-5.0469 3.507-8.9063 0-3.9707-1.169-7.1806-3.507-9.6299-2.338-2.4492-5.566-3.7109-9.685-3.7851h-15.308z"/><path d="m161.263 62.7363c0-3.1543-1.114-5.5664-3.34-7.2363-2.227-1.707-6.235-3.4883-12.024-5.3438-5.789-1.8925-10.372-3.748-13.749-5.5664-9.203-4.9726-13.804-11.6709-13.804-20.0947 0-4.3789 1.224-8.2754 3.674-11.6894 2.486-3.45121 6.03-6.14164 10.631-8.07132 4.639-1.92969 9.834-2.89454 15.586-2.89454 5.789 0 10.948 1.05762 15.475 3.17286 4.527 2.07812 8.034 5.0283 10.52 8.8506 2.524 3.8222 3.786 8.164 3.786 13.0254h-16.7c0-3.711-1.169-6.5869-3.506-8.628-2.338-2.0781-5.623-3.1171-9.853-3.1171-4.082 0-7.255.872-9.519 2.6162-2.263 1.707-3.395 3.9707-3.395 6.791 0 2.6347 1.317 4.8428 3.952 6.624 2.672 1.7813 6.587 3.4512 11.745 5.0098 9.5 2.8574 16.421 6.4013 20.763 10.6318s6.513 9.5 6.513 15.8086c0 7.0137-2.654 12.5244-7.96 16.5322-5.307 3.9707-12.451 5.9561-21.431 5.9561-6.234 0-11.912-1.1319-17.033-3.3955-5.121-2.3008-9.036-5.4366-11.745-9.4073-2.672-3.9707-4.008-8.5722-4.008-13.8046h16.755c0 8.9433 5.343 13.415 16.031 13.415 3.971 0 7.069-.7979 9.296-2.3936 2.226-1.6328 3.34-3.8964 3.34-6.791z"/><path d="m252.496 60.6211 10.91-57.66798h16.644l-17.98 81.04688h-16.81l-13.193-54.2168-13.192 54.2168h-16.811l-17.979-81.04688h16.644l10.965 57.55668 13.36-57.55668h14.138z"/><path d="m332.43 67.3008h-29.28l-5.566 16.6992h-17.757l30.17-81.04688h15.475l30.337 81.04688h-17.757zm-24.771-13.5264h20.262l-10.187-30.3369z"/><path d="m380.078 55.4443v28.5557h-16.699v-81.04688h31.617c6.086 0 11.43 1.11329 16.031 3.33985 4.639 2.22656 8.202 5.39943 10.688 9.51853 2.486 4.0821 3.729 8.7393 3.729 13.9717 0 7.9414-2.727 14.2129-8.182 18.8145-5.418 4.5644-12.933 6.8466-22.544 6.8466zm0-13.5263h14.918c4.416 0 7.775-1.0391 10.075-3.1172 2.338-2.0781 3.507-5.0469 3.507-8.9063 0-3.9707-1.169-7.1806-3.507-9.6299-2.338-2.4492-5.566-3.7109-9.685-3.7851h-15.308z"/></g></svg>