<svg fill="none" height="40" viewBox="0 0 175 40" width="175" xmlns="http://www.w3.org/2000/svg" xmlns:xlink="http://www.w3.org/1999/xlink"><clipPath id="a"><path d="m0 0h175v40h-175z"/></clipPath><g clip-path="url(#a)" fill="#fff"><path d="m51.0517 18.4525v12.493c0 .16.1296.2933.2851.2933h3.3703c.1556 0 .2852-.1333.2852-.2933v-12.5196c0-.4934.3889-.8934.8685-.8934h5.3276c.1555 0 .2852-.1332.2852-.2932v-3.4666c0-.16-.1297-.2933-.2852-.2933h-5.3017c-2.6703-.0267-4.835 2.2132-4.835 4.9731z"/><path d="m70.7677 13.1595c-4.9257 0-8.9831 4.2265-8.9442 9.2797.0519 5.0265 3.9925 9.1064 8.8276 9.1064 1.8665 0 3.6424-.72 5.0942-2.0133v1.4133c0 .16.1297.2933.2852.2933h3.3703c.1555 0 .2852-.1333.2852-.2933v-8.5998c.0129-5.0665-3.9926-9.1863-8.9183-9.1863zm4.9776 9.1997c0 2.8532-2.2295 5.1865-4.9776 5.1865s-4.9776-2.32-4.9776-5.1865c0-2.8533 2.2295-5.1866 4.9776-5.1866s4.9776 2.3199 4.9776 5.1866z"/><path d="m91.2486 13.1599c-1.8148 0-3.5518.64-4.9777 1.8266v-7.17315c0-.15999-.1296-.29333-.2851-.29333h-3.3704c-.1554 0-.2851.13334-.2851.29333v14.50625c0 5.0665 3.9666 9.2264 8.8924 9.253 4.9517.0266 8.9833-4.1065 8.9833-9.1997-.013-5.0931-4.0187-9.213-8.9574-9.213zm4.9905 9.1997c0 2.8532-2.2295 5.1865-4.9775 5.1865-2.7481 0-4.9777-2.3199-4.9777-5.1865 0-2.8533 2.2296-5.1866 4.9777-5.1866 2.735 0 4.9775 2.32 4.9775 5.1866z"/><path d="m111.367 13.1599c-1.815 0-3.552.64-4.978 1.8266v-7.17315c0-.15999-.129-.29333-.285-.29333h-3.371c-.155 0-.284.13334-.284.29333v14.50625c0 5.0665 3.966 9.2264 8.892 9.253 4.951.0266 8.982-4.1065 8.982-9.1997-.012-5.0931-4.031-9.213-8.956-9.213zm4.977 9.1997c0 2.8532-2.23 5.1865-4.977 5.1865-2.748 0-4.978-2.3199-4.978-5.1865 0-2.8533 2.23-5.1866 4.978-5.1866 2.747 0 4.977 2.32 4.977 5.1866z"/><path d="m134.232 7.50616h-3.37c-.155 0-.285.13333-.285.29333v14.54621c0 5.0799 4.005 9.1998 8.944 9.1998h1.102c.156 0 .285-.1334.285-.2934v-3.4665c0-.16-.129-.2934-.285-.2934h-1.102c-2.748 0-4.978-2.2933-4.978-5.1198v-4.9599h6.093c.155 0 .285-.1333.285-.2933v-3.4132c0-.16-.13-.2934-.285-.2934h-6.093v-5.58645c-.013-.18666-.142-.31999-.311-.31999z"/><path d="m166.056 13.1595c-4.926 0-8.945 4.1198-8.945 9.1997 0 5.0665 4.006 9.1997 8.945 9.1997 4.925 0 8.943-4.1198 8.943-9.1997s-4.005-9.1997-8.943-9.1997zm4.99 9.1997c0 2.8532-2.229 5.1865-4.978 5.1865-2.748 0-4.977-2.3199-4.977-5.1865 0-2.8533 2.229-5.1866 4.977-5.1866 2.735 0 4.978 2.32 4.978 5.1866z"/><path d="m150.708 31.2524h3.37c.155 0 .285-.1334.285-.2934v-17.1994c0-.16-.13-.2933-.285-.2933h-3.37c-.156 0-.286.1333-.286.2933v17.1994c-.012.16.117.2934.286.2934z"/><path d="m152.393 6.25311c-1.413 0-2.566 1.18663-2.566 2.63992 0 1.45327 1.153 2.63997 2.566 2.63997s2.567-1.1867 2.567-2.63997c0-1.46662-1.154-2.63992-2.567-2.63992z"/><path d="m145.691 26.2659c-1.412 0-2.566 1.1866-2.566 2.64 0 1.4532 1.154 2.6399 2.566 2.6399 1.413 0 2.567-1.1867 2.567-2.6399.013-1.4534-1.14-2.64-2.567-2.64z"/><path d="m123.344 31.2524h3.37c.156 0 .285-.1334.285-.2934v-17.1994c0-.16-.129-.2933-.285-.2933h-3.37c-.155 0-.285.1333-.285.2933v17.1994c0 .16.13.2934.285.2934z"/><path d="m125.029 11.533c1.417 0 2.566-1.182 2.566-2.63997 0-1.45798-1.149-2.63992-2.566-2.63992-1.418 0-2.567 1.18194-2.567 2.63992 0 1.45797 1.149 2.63997 2.567 2.63997z"/><path d="m25.5287 0c-4.7183 0-12.9885 5.77316-18.3161 13.3996-4.64059 6.6131-6.377575 12.5329-7.1294032 18.4927-.6610908 4.2266 2.7091732 8.1064 6.8571932 8.1064h16.42351c1.1667 0 2.1389-.9732 2.1518-2.1732.013-1.2133-.9462-2.1999-2.1258-2.1999h-16.46248c-1.63328 0-2.87768-1.4799-2.65732-3.1333.89442-6.5198 2.67029-11.2529 6.4035-16.5861 5.7683-7.98644 11.4978-10.65303 13.5978-11.34634 2.074-.70664 3.4999.27999 3.4999 2.51993 1.0888-.34666 2.6832-.71998 4.2128-.75998-.363-3.53323-2.774-6.31981-6.4554-6.31981z"/><path d="m31.258 29.5591c2.9425-2.9599 7.635-10.4263 7.635-16.8529 0-2.2666-.9981-6.45309-6.4684-6.45309-10.1885 0-23.03445 12.49289-16.8253 18.58609.7647.72 2.0221 1.48 3.9664 1.48 5.6647 0 10.7849-6.8132 12.2237-15.7196.2722-.0266.5445-.0266.8167-.0266 1.3481 0 2.0351.5066 2.0351 2.1066 0 4.3065-3.2796 11.2263-7.8424 15.2795-1.4517 1.3466-.5184 2.96.1945 3.4799 2.4629 2.0666 4.0962 4.2932 4.7054 6.7865.2723 1.0266 1.0759 1.7599 2.0869 1.7599 1.4778 0 2.0612-1.3733 2.0612-2.3199 0-2.1599-2.3593-5.9465-4.5888-8.1064zm-11.6793-7.5198c-3.9666 0 .9722-7.2664 7.6609-10.2263-1.7629 7.0398-5.3924 10.2263-7.6609 10.2263z"/><path d="m19.5791 22.0395v4.2799c5.6647 0 10.7848-6.8132 12.2237-15.7196-1.5555.12-3.098.56-4.5628 1.2134-1.763 7.0397-5.3924 10.2263-7.6609 10.2263z"/></g></svg>