<svg fill="none" height="120" viewBox="0 0 120 120" width="120" xmlns="http://www.w3.org/2000/svg" xmlns:xlink="http://www.w3.org/1999/xlink"><filter id="a" color-interpolation-filters="sRGB" filterUnits="userSpaceOnUse" height="71.6517" width="81" x="31" y="41.8647"><feFlood flood-opacity="0" result="BackgroundImageFix"/><feColorMatrix in="SourceAlpha" result="hardAlpha" type="matrix" values="0 0 0 0 0 0 0 0 0 0 0 0 0 0 0 0 0 0 127 0"/><feOffset dx="-5" dy="-1"/><feGaussianBlur stdDeviation="1.5"/><feComposite in2="hardAlpha" operator="out"/><feColorMatrix type="matrix" values="0 0 0 0 0.152941 0 0 0 0 0.129412 0 0 0 0 0.168627 0 0 0 0.25 0"/><feBlend in2="BackgroundImageFix" mode="normal" result="effect1_dropShadow_2788_73789"/><feBlend in="SourceGraphic" in2="effect1_dropShadow_2788_73789" mode="normal" result="shape"/></filter><linearGradient id="b"><stop offset=".111577" stop-color="#36293b"/><stop offset=".897208" stop-color="#81557e"/></linearGradient><linearGradient id="c" gradientUnits="userSpaceOnUse" x1="45.0356" x2="45.0356" xlink:href="#b" y1="-2.87681" y2="83.4163"/><radialGradient id="d" cx="0" cy="0" gradientTransform="matrix(-.06384371 67.24216969 -66.9982698 -.06361214 43.715 8.80822)" gradientUnits="userSpaceOnUse" r="1"><stop offset="0" stop-color="#81557e"/><stop offset="1" stop-color="#36293b"/></radialGradient><linearGradient id="e" gradientUnits="userSpaceOnUse" x1="44" x2="44" xlink:href="#b" y1="26.5" y2="40"/><radialGradient id="f" cx="0" cy="0" gradientTransform="matrix(-.0638346 67.2325697 -66.9982698 -.06361214 76.4123 47.5624)" gradientUnits="userSpaceOnUse" r="1"><stop offset=".141798" stop-color="#302634"/><stop offset="1" stop-color="#e35760"/></radialGradient><radialGradient id="g" cx="0" cy="0" gradientTransform="matrix(-.06384789 67.24656969 -66.9982698 -.06361214 74.715 45.8647)" gradientUnits="userSpaceOnUse" r="1"><stop offset="0" stop-color="#e35760"/><stop offset="1" stop-color="#302634"/></radialGradient><linearGradient id="h" gradientUnits="userSpaceOnUse" x1="93.2684" x2="93.2684" y1="63.9002" y2="75.5741"><stop offset="0" stop-color="#302634"/><stop offset="1" stop-color="#e35760"/></linearGradient><g clip-rule="evenodd" fill-rule="evenodd"><path d="m17.483 10.2969c-4.3331.1163-7.78533 3.6624-7.78533 7.9971v33.4444c0 .4184.03213.8293.09404 1.2304l-.09404-.0212-1.69767 18.25 1.09502 2.19c.30004.6001 1.09418.7404 1.58158.2793l13.2788-12.5609c.9219-.8721 2.1407-1.3608 3.409-1.3676h45.6356c4.4183 0 8-3.5817 8-8v-34.7414c0-3.7831-2.65-7.04904-6.3519-7.82839l-.7906-.16644c-.6122-.12888-1.2374-.18551-1.8628-.16872z" fill="url(#c)"/><path d="m16 8.80823c-4.4183 0-8 3.58177-8 7.99997v33.2326c0 .4184.03213.8294.09405 1.2305l-.09405-.0212v19.3229c0 .8776 1.04967 1.3295 1.6872.7265l12.5705-11.891c.9284-.8783 2.1579-1.3677 3.436-1.3677h12.44-.0002 33.1688c4.4183 0 8-3.5817 8-8v-33.2326c0-4.4183-3.5817-7.99997-8-7.99997z" fill="url(#d)"/><path d="m48.7442 33.4246c0 2.8128-2.2802 5.093-5.093 5.093s-5.0931-2.2802-5.0931-5.093 2.2803-5.0931 5.0931-5.0931 5.093 2.2803 5.093 5.0931zm-18.6744 0c0 2.8128-2.2802 5.093-5.093 5.093s-5.093-2.2802-5.093-5.093 2.2802-5.093 5.093-5.093 5.093 2.2802 5.093 5.093zm32.2558 5.093c2.8128 0 5.093-2.2802 5.093-5.093s-2.2802-5.0931-5.093-5.0931-5.093 2.2803-5.093 5.0931 2.2802 5.093 5.093 5.093z" fill="url(#e)"/><g filter="url(#a)"><path d="m48.6973 47.5624c-4.4183 0-8 3.5817-8 8v33.2325c0 4.4183 3.5817 8 8 8h46.2095c.82.2282 1.5757.6641 2.1891 1.2755l13.1981 13.1526c.63.628 1.706.182 1.706-.708v-21.3595l-.008.0019c.005-.1202.008-.241.008-.3625v-33.2325c0-4.4183-3.582-8-8-8z" fill="url(#f)"/><path d="m47 45.8647c-4.4183 0-8 3.5818-8 8v33.2326c0 4.4183 3.5817 8 8 8h45.4016c.7778.2165 1.4983.6199 2.0946 1.1838l14.1188 13.3489c.638.603 1.687.151 1.687-.726v-21.4462l-.008.0018c.006-.1201.008-.2409.008-.3623v-33.2326c0-4.4182-3.581-8-8-8z" fill="url(#g)"/><path d="m79.7442 70.4811c0 2.8128-2.2802 5.093-5.093 5.093s-5.0931-2.2802-5.0931-5.093 2.2803-5.093 5.0931-5.093 5.093 2.2802 5.093 5.093zm-18.6744 0c0 2.8128-2.2802 5.0931-5.093 5.0931s-5.093-2.2803-5.093-5.0931 2.2802-5.093 5.093-5.093 5.093 2.2802 5.093 5.093zm32.2558 5.093c2.8128 0 5.093-2.2802 5.093-5.093s-2.2802-5.093-5.093-5.093-5.093 2.2802-5.093 5.093 2.2802 5.093 5.093 5.093z" fill="url(#h)"/></g></g></svg>