<svg fill="none" height="120" viewBox="0 0 121 120" width="121" xmlns="http://www.w3.org/2000/svg" xmlns:xlink="http://www.w3.org/1999/xlink"><linearGradient id="a"><stop offset="0" stop-color="#81557e"/><stop offset="1" stop-color="#36293b"/></linearGradient><radialGradient id="b" cx="0" cy="0" gradientTransform="matrix(-.04779344 60.18378102 -50.16718418 -.03983901 38.9918 8)" gradientUnits="userSpaceOnUse" r="1" xlink:href="#a"/><linearGradient id="c"><stop offset="0" stop-color="#e35760"/><stop offset="1" stop-color="#302634"/></linearGradient><radialGradient id="d" cx="0" cy="0" gradientTransform="matrix(2.9462467 60.00000715 -78.27348978 3.84354972 37.3863 7.99999)" gradientUnits="userSpaceOnUse" r="1" xlink:href="#c"/><radialGradient id="e" cx="0" cy="0" gradientTransform="matrix(52.49591193 -.3952685 .33576372 44.59303595 66.7061 50.6757)" gradientUnits="userSpaceOnUse" r="1" xlink:href="#c"/><radialGradient id="f" cx="0" cy="0" gradientTransform="matrix(-14.50030565 34.49992056 -28.66716403 -12.04879994 93.8325 36.5)" gradientUnits="userSpaceOnUse" r="1" xlink:href="#a"/><linearGradient id="g"><stop offset=".111577" stop-color="#36293b"/><stop offset=".897208" stop-color="#81557e"/></linearGradient><linearGradient id="h" gradientUnits="userSpaceOnUse" x1="39.1953" x2="39.1953" xlink:href="#g" y1="66.3756" y2="96.7761"/><radialGradient id="i" cx="0" cy="0" gradientTransform="matrix(-.02405125 33.69279142 -25.26199356 -.01803302 39.0221 59.9877)" gradientUnits="userSpaceOnUse" r="1" xlink:href="#a"/><linearGradient id="j" gradientUnits="userSpaceOnUse" x1="60.3292" x2="60.3292" xlink:href="#g" y1="51.9476" y2="92.8741"/><radialGradient id="k" cx="0" cy="0" gradientTransform="matrix(-.01900718 31.47489426 -19.91969637 -.01202919 64.7359 57)" gradientUnits="userSpaceOnUse" r="1" xlink:href="#a"/><linearGradient id="l" gradientUnits="userSpaceOnUse" x1="87.5128" x2="87.5128" xlink:href="#g" y1="75.1343" y2="99.9425"/><radialGradient id="m" cx="0" cy="0" gradientTransform="matrix(-.02737533 33.65858887 -28.7094905 -.02335011 87.315 63.8)" gradientUnits="userSpaceOnUse" r="1" xlink:href="#a"/><radialGradient id="n" cx="0" cy="0" gradientTransform="matrix(-.02828147 12.48386797 -29.68102384 -.06724062 96.5664 99)" gradientUnits="userSpaceOnUse" r="1"><stop offset=".141798" stop-color="#302634"/><stop offset="1" stop-color="#e35760"/></radialGradient><radialGradient id="o" cx="0" cy="0" gradientTransform="matrix(-31.74387498 21.31491836 -17.31222174 -25.7827402 112.218 87.5602)" gradientUnits="userSpaceOnUse" r="1" xlink:href="#c"/><linearGradient id="p" gradientUnits="userSpaceOnUse" x1="25.536" x2="25.536" xlink:href="#g" y1="92.123" y2="113.329"/><radialGradient id="q" cx="0" cy="0" gradientTransform="matrix(-.02949028 32.80908675 -30.92288751 -.02779488 24.8162 78.3746)" gradientUnits="userSpaceOnUse" r="1" xlink:href="#a"/><radialGradient id="r" cx="0" cy="0" gradientTransform="matrix(-37.49993384 36.00011172 -31.56346458 -32.8784489 89.332 79.9998)" gradientUnits="userSpaceOnUse" r="1" xlink:href="#c"/><radialGradient id="s" cx="0" cy="0" gradientTransform="matrix(0 12 -23.9722 0 60.332 104)" gradientUnits="userSpaceOnUse" r="1"><stop offset="0" stop-color="#302634"/><stop offset="1" stop-color="#e35760"/></radialGradient><g clip-rule="evenodd" fill-rule="evenodd"><path d="m42.6814 8-7.7118 3.2034-.3789 6.3423c-1.4743.4696-2.8791 1.0949-4.195 1.8567l-4.0167-4.0167-8.1383 8.1383 4.1074 4.1074c-.7127 1.2974-1.2946 2.677-1.7277 4.1208l-5.168.3621-3.2034 7.9196 3.2034 3.233h4.9508c.4773 1.8436 1.1947 3.5906 2.1169 5.2056l-4.2796 4.2796 8.5757 8.5757 4.4541-4.4541c.3101.1606.6248.3139.9436.4596l-.2105 3.5228 2.9662 3.322h11.1526v-5.5227c1.8465-.4471 3.5993-1.1342 5.2235-2.0264l4.569 4.569 8.1383-8.1383-4.4783-4.4783c.9524-1.6452 1.6915-3.4293 2.1796-5.3145h3.8847v-11.1526l-3.2034-3.2923-1.9561.1371c-.1354-.2934-.2773-.5832-.4255-.8692l4.1286-4.1286-8.5757-8.5757-3.9541 3.9541c-1.7096-.9762-3.5671-1.7229-5.5306-2.1983v-5.938zm-2.2544 42.2007c6.8256 0 12.3588-5.5332 12.3588-12.3588s-5.5332-12.3588-12.3588-12.3588-12.3588 5.5332-12.3588 12.3588 5.5332 12.3588 12.3588 12.3588z" fill="url(#b)"/><path d="m42.9183 8h-11.1526v6.2259c-1.6125.4806-3.1451 1.1466-4.5732 1.9733l-4.0169-4.0169-8.1383 8.1383 4.1078 4.1077c-.772 1.4054-1.3904 2.9072-1.8327 4.4826h-5.0644v11.1526h4.9523c.4772 1.8431 1.1944 3.5895 2.1161 5.2041l-4.2808 4.2808 8.5757 8.5757 4.4546-4.4546c1.1739.6081 2.4113 1.1105 3.6998 1.4946v5.8106h11.1526v-5.5225c1.8468-.447 3.5999-1.1341 5.2243-2.0264l4.5687 4.5688 8.1383-8.1383-4.4779-4.4779c.9525-1.6454 1.6916-3.4296 2.1798-5.3149h3.8831v-11.1526h-3.9952c-.3947-1.406-.9297-2.7533-1.589-4.0259l4.1273-4.1273-8.5757-8.5757-3.9535 3.9535c-1.7095-.976-3.5669-1.7225-5.5302-2.1978zm-5.4575 39.2345c6.8256 0 12.3588-5.5332 12.3588-12.3588s-5.5332-12.3588-12.3588-12.3588c-6.8255 0-12.3588 5.5332-12.3588 12.3588s5.5333 12.3588 12.3588 12.3588z" fill="url(#d)"/><path d="m66.7061 47.8716 2.4345 5.861 4.82.2879c.3568 1.1202.832 2.1876 1.4108 3.1875l-3.0527 3.0526 6.1851 6.1851 3.1215-3.1216c.9862.5417 2.0347.9839 3.1322 1.3131l.2752 3.9282 6.0189 2.4346 2.457-2.4346v-3.7633c1.401-.3627 2.7285-.9079 3.9558-1.6087l3.2526 3.2525 6.517-6.5174-3.385-3.3851c.122-.2356.239-.4745.349-.7166l2.678.16 2.525-2.2542v-8.4759h-4.198c-.339-1.4036-.862-2.736-1.54-3.9706l3.473-3.4723-6.185-6.185-3.4038 3.4034c-1.2503-.7237-2.6061-1.2854-4.0386-1.6564v-2.9517h-8.4759l-2.5021 2.4345.1041 1.4859c-.2231.1029-.4434.2108-.6609.3234l-3.1376-3.1376-6.5175 6.5175 3.0051 3.005c-.742 1.2995-1.3096 2.7114-1.6709 4.2039h-4.5123zm32.072 1.7132c0-5.1874-4.2052-9.3926-9.3926-9.3926s-9.3926 4.2052-9.3926 9.3926 4.2052 9.3926 9.3926 9.3926 9.3926-4.2052 9.3926-9.3926z" fill="url(#e)"/><path d="m66.7061 47.6911v8.4758h4.7319c.3653 1.2254.8714 2.3902 1.4995 3.4754l-3.0531 3.0532 6.185 6.185 3.1221-3.1221c1.0682.5868 2.2095 1.0568 3.4069 1.3929v3.8487h8.4759v-3.7634c1.4007-.3627 2.7281-.9078 3.9553-1.6083l3.253 3.253 6.5174-6.5175-3.385-3.3851c.462-.8921.844-1.8326 1.136-2.8118h4.415v-8.4758h-4.196c-.34-1.4037-.862-2.7361-1.541-3.9707l3.472-3.4718-6.1847-6.185-3.4029 3.4029c-1.2505-.7238-2.6064-1.2855-4.0392-1.6565v-2.9513h-8.4758v3.0366c-1.0685.2999-2.0924.7065-3.0595 1.2075l-3.1371-3.1371-6.5174 6.5174 3.005 3.005c-.7418 1.2992-1.3092 2.7108-1.6704 4.203zm29.818 4.1477c0-5.1874-4.2052-9.3926-9.3925-9.3926-5.1874 0-9.3926 4.2052-9.3926 9.3926 0 5.1873 4.2052 9.3925 9.3926 9.3925 5.1873 0 9.3925-4.2052 9.3925-9.3925z" fill="url(#f)"/></g><path d="m25.5557 72.3399c-.0001-1.3692.2768-1.3399.2768-1.8399l26.5 16 .108 2.2352c-2.9182 1.0343-5.6045 2.6321-7.9062 4.7027z" fill="url(#h)"/><path d="m25.5557 70.3399c5.0669-4.5579 10.9804-8.0754 17.4042-10.3522l9.4806 26.7475c-2.9181 1.0343-5.6045 2.6322-7.9062 4.7027z" fill="url(#i)"/><path d="m53.1172 59.3728c.7153-1.3728.7153-1.3728 1.2152-1.8727l13.0001 27.4999-1.1933 3.38c-3.1183-.9383-6.397-1.2218-9.6302-.8326z" fill="url(#j)"/><path d="m54.1172 57.3728c7.1172-.8568 14.3348-.2328 21.1994 1.8329l-8.1774 27.1743c-3.1183-.9384-6.397-1.2219-9.6302-.8326z" fill="url(#k)"/><path d="m102.333 78.5c0 .1621.233-.5.233 2.162l-23.0482 16.5564c-1.9862-2.7651-4.5468-5.0681-7.5061-6.7513v-1.9671z" fill="url(#l)"/><path d="m86.0411 63.8c6.5145 3.7054 12.151 8.7752 16.5239 14.862l-23.0481 16.5564c-1.9863-2.7651-4.5468-5.0681-7.5062-6.7513z" fill="url(#m)"/><path d="m112.332 108.5c0 .5 0 .5-1.001 2.225l-28.3774.15c-.018-3.404-.7717-6.765-2.2095-9.851l1.0879-2.024z" fill="url(#n)"/><path d="m107.467 87.0399c3.165 6.7935 4.825 14.1911 4.864 21.6851l-28.3774.15c-.018-3.404-.7717-6.765-2.2095-9.8508z" fill="url(#o)"/><path d="m8.33203 111c0-1.5.00049-1 0-2l32.50097-14 1.4094 2.0879c-2.9448 4.0411-4.5314 8.9121-4.5314 13.9121z" fill="url(#p)"/><path d="m8.33203 109c0-11.0069 3.49267-21.7299 9.97517-30.6254l22.9343 16.7133c-2.9448 4.0409-4.5314 8.9121-4.5314 13.9121z" fill="url(#q)"/><path clip-rule="evenodd" d="m66.2598 105.275 23.2057-26.1539-26.4063 23.4299c-.8381-.355-1.7597-.551-2.7272-.551-3.866 0-7 3.134-7 7s3.134 7 7 7 7-3.134 7-7c0-1.369-.3929-2.646-1.0722-3.725z" fill="url(#r)" fill-rule="evenodd"/><circle cx="60.332" cy="109" fill="url(#s)" r="5"/></svg>