<svg fill="none" height="320" viewBox="0 0 547 320" width="547" xmlns="http://www.w3.org/2000/svg" xmlns:xlink="http://www.w3.org/1999/xlink"><filter id="a" color-interpolation-filters="sRGB" filterUnits="userSpaceOnUse" height="136" width="505" x="25" y="51"><feFlood flood-opacity="0" result="BackgroundImageFix"/><feColorMatrix in="SourceAlpha" result="hardAlpha" type="matrix" values="0 0 0 0 0 0 0 0 0 0 0 0 0 0 0 0 0 0 127 0"/><feOffset dx="10" dy="4"/><feGaussianBlur stdDeviation="7.5"/><feComposite in2="hardAlpha" operator="out"/><feColorMatrix type="matrix" values="0 0 0 0 0.317647 0 0 0 0 0.207843 0 0 0 0 0.309804 0 0 0 1 0"/><feBlend in2="BackgroundImageFix" mode="normal" result="effect1_dropShadow_15000_120307"/><feBlend in="SourceGraphic" in2="effect1_dropShadow_15000_120307" mode="normal" result="shape"/></filter><filter id="b" color-interpolation-filters="sRGB" filterUnits="userSpaceOnUse" height="199.735" width="233.416" x="310" y="8.06055"><feFlood flood-opacity="0" result="BackgroundImageFix"/><feBlend in="SourceGraphic" in2="BackgroundImageFix" mode="normal" result="shape"/><feGaussianBlur result="effect1_foregroundBlur_15000_120307" stdDeviation="1"/></filter><filter id="c" color-interpolation-filters="sRGB" filterUnits="userSpaceOnUse" height="348" width="435" x="201" y="1"><feFlood flood-opacity="0" result="BackgroundImageFix"/><feColorMatrix in="SourceAlpha" result="hardAlpha" type="matrix" values="0 0 0 0 0 0 0 0 0 0 0 0 0 0 0 0 0 0 127 0"/><feOffset dy="60"/><feGaussianBlur stdDeviation="75"/><feColorMatrix type="matrix" values="0 0 0 0 0.890196 0 0 0 0 0.341176 0 0 0 0 0.376471 0 0 0 0.62 0"/><feBlend in2="BackgroundImageFix" mode="normal" result="effect1_dropShadow_15000_120307"/><feColorMatrix in="SourceAlpha" result="hardAlpha" type="matrix" values="0 0 0 0 0 0 0 0 0 0 0 0 0 0 0 0 0 0 127 0"/><feOffset dy="4"/><feGaussianBlur stdDeviation="25"/><feColorMatrix type="matrix" values="0 0 0 0 0.890196 0 0 0 0 0.341176 0 0 0 0 0.376471 0 0 0 0.5 0"/><feBlend in2="effect1_dropShadow_15000_120307" mode="normal" result="effect2_dropShadow_15000_120307"/><feColorMatrix in="SourceAlpha" result="hardAlpha" type="matrix" values="0 0 0 0 0 0 0 0 0 0 0 0 0 0 0 0 0 0 127 0"/><feOffset dy="4"/><feGaussianBlur stdDeviation="15"/><feColorMatrix type="matrix" values="0 0 0 0 0 0 0 0 0 0 0 0 0 0 0 0 0 0 0.2 0"/><feBlend in2="effect2_dropShadow_15000_120307" mode="normal" result="effect3_dropShadow_15000_120307"/><feBlend in="SourceGraphic" in2="effect3_dropShadow_15000_120307" mode="normal" result="shape"/></filter><radialGradient id="d" cx="0" cy="0" gradientTransform="matrix(0 139 -247 0 247 181)" gradientUnits="userSpaceOnUse" r="1"><stop offset="0" stop-color="#81557e"/><stop offset="1" stop-color="#36293b"/></radialGradient><linearGradient id="e" gradientUnits="userSpaceOnUse" x1="30" x2="464" y1="295.5" y2="295.5"><stop offset="0" stop-color="#27212b"/><stop offset="1" stop-color="#846f91" stop-opacity="0"/></linearGradient><linearGradient id="f" gradientUnits="userSpaceOnUse" x1="292" x2="50" y1="303" y2="303"><stop offset="0" stop-color="#b778b2" stop-opacity="0"/><stop offset="1" stop-color="#51354f"/></linearGradient><clipPath id="g"><path d="m0 0h547v320h-547z"/></clipPath><clipPath id="h"><path d="m0 42h494v278h-494z"/></clipPath><mask id="i" fill="#fff"><path d="m0 58c0-8.8366 7.16344-16 16-16h462c8.837 0 16 7.1634 16 16v246c0 8.837-7.163 16-16 16h-462c-8.83654 0-16-7.163-16-16z" fill="#fff"/></mask><mask id="j" fill="#fff"><path d="m151.192 137h1v14h-1z" fill="#fff"/></mask><g clip-path="url(#g)"><g clip-path="url(#h)"><path d="m0 58c0-8.8366 7.16344-16 16-16h462c8.837 0 16 7.1634 16 16v246c0 8.837-7.163 16-16 16h-462c-8.83654 0-16-7.163-16-16z" fill="url(#d)"/><path d="m0 42h494zm502 262c0 13.255-10.745 24-24 24h-454c-13.2548 0-24-10.745-24-24 0 4.418 7.16344 8 16 8h462c4.418 0 8-3.582 8-8zm-502 16v-278zm478-278c13.255 0 24 10.7452 24 24v238c0 13.255-10.745 24-24 24v-16c4.418 0 8-3.582 8-8v-246c0-8.8366-3.582-16-8-16z" fill="#231d28" mask="url(#i)"/><path d="m30 294c0-8.837 7.1634-16 16-16h402c8.837 0 16 7.163 16 16v19h-434z" fill="url(#e)"/><rect fill="url(#f)" height="20" rx="10" width="242" x="50" y="293"/></g><g filter="url(#a)"><rect fill="#27212b" height="106" rx="16" width="475" x="30" y="62"/></g><path d="m57.6709 147.927v1.073h-5.2705v-1.073zm-5.0039-8.88v9.953h-1.3193v-9.953zm4.3066 4.279v1.073h-4.5732v-1.073zm.6289-4.279v1.08h-5.2021v-1.08zm5.5166 0v9.953h-1.2988v-9.953zm3.1993 0v1.08h-7.6905v-1.08zm4.6142.882-3.2949 9.071h-1.3467l3.794-9.953h.8681zm2.7617 9.071-3.3017-9.071-.0205-.882h.8681l3.8077 9.953zm-.1709-3.685v1.081h-5.5918v-1.081z" fill="#fff"/><rect fill="#51354f" height="17" rx="8.5" transform="matrix(-1 0 0 1 141.192 135.5)" width="55"/><path d="m152.192 151v-14h-2v14z" fill="#6b4d68" mask="url(#j)"/><path d="m164.667 139.047v9.953h-1.319v-9.953zm6.009 0-4.136 4.641-2.324 2.414-.219-1.409 1.75-1.927 3.343-3.719zm-1.272 9.953-3.684-4.854.786-1.045 4.471 5.899zm3.193-9.953 2.584 4.997 2.59-4.997h1.498l-3.432 6.234v3.719h-1.319v-3.719l-3.432-6.234zm13.754 6.788h1.312c-.068.629-.248 1.192-.54 1.688-.292.497-.704.891-1.237 1.183-.533.287-1.199.431-1.996.431-.584 0-1.115-.11-1.593-.328-.474-.219-.882-.529-1.224-.93-.342-.406-.606-.891-.793-1.456-.182-.57-.273-1.203-.273-1.901v-.991c0-.697.091-1.328.273-1.893.187-.57.454-1.058.8-1.463.351-.406.773-.718 1.265-.937.492-.218 1.046-.328 1.661-.328.752 0 1.388.141 1.907.424.52.283.923.674 1.21 1.176.292.497.472 1.073.54 1.729h-1.312c-.064-.465-.183-.863-.356-1.196-.173-.337-.419-.597-.738-.779-.319-.183-.736-.274-1.251-.274-.442 0-.832.085-1.169.253-.333.169-.613.408-.841.718-.223.31-.392.681-.506 1.114s-.171.914-.171 1.443v1.004c0 .488.05.946.151 1.374.105.429.262.805.471 1.128.21.324.477.579.8.766.324.182.707.273 1.149.273.56 0 1.007-.088 1.339-.266.333-.178.584-.433.752-.766.174-.332.297-.731.37-1.196zm6.583-6.788h3.295c.747 0 1.378.114 1.893.342.52.228.914.565 1.183 1.011.273.442.41.987.41 1.634 0 .456-.094.873-.28 1.251-.183.374-.447.693-.793.957-.342.26-.752.454-1.231.581l-.369.144h-3.097l-.013-1.073h2.338c.473 0 .868-.082 1.182-.247.315-.168.552-.394.711-.676.16-.283.239-.595.239-.937 0-.383-.075-.718-.225-1.005-.151-.287-.388-.508-.711-.663-.319-.159-.732-.239-1.237-.239h-1.976v8.873h-1.319zm5.817 9.953-2.42-4.512 1.374-.007 2.454 4.437v.082zm3.992-7.396v7.396h-1.271v-7.396zm-1.367-1.962c0-.205.062-.379.185-.52.127-.141.314-.212.56-.212.242 0 .426.071.554.212.132.141.198.315.198.52 0 .196-.066.364-.198.505-.128.137-.312.206-.554.206-.246 0-.433-.069-.56-.206-.123-.141-.185-.309-.185-.505zm7.704 7.396c0-.182-.041-.351-.123-.506-.077-.159-.239-.303-.485-.43-.242-.133-.606-.247-1.094-.342-.41-.087-.782-.189-1.114-.308-.328-.118-.609-.262-.841-.431-.228-.168-.403-.366-.527-.594-.123-.228-.184-.495-.184-.8 0-.292.064-.567.191-.827.132-.26.317-.49.554-.691.242-.2.531-.357.868-.471s.713-.171 1.128-.171c.593 0 1.098.105 1.518.314.419.21.74.49.964.841.223.346.335.732.335 1.155h-1.265c0-.205-.062-.403-.185-.594-.118-.196-.294-.358-.526-.486-.228-.127-.508-.191-.841-.191-.351 0-.636.055-.854.164-.215.105-.372.239-.472.403-.096.164-.144.337-.144.52 0 .136.023.26.069.369.05.105.136.203.26.294.123.086.296.168.519.246.223.077.508.155.855.232.606.137 1.105.301 1.497.493.392.191.683.426.875.704.191.278.287.615.287 1.011 0 .324-.069.62-.205.889-.133.269-.326.501-.581.697-.251.192-.552.342-.903.451-.346.105-.736.158-1.169.158-.651 0-1.203-.116-1.654-.349-.451-.232-.793-.533-1.025-.902-.233-.369-.349-.759-.349-1.169h1.271c.019.346.119.622.301.827.183.2.406.344.67.431.264.082.527.123.786.123.347 0 .636-.046.868-.137.237-.091.417-.217.541-.376.123-.16.184-.342.184-.547zm4.197-8.538v10.5h-1.271v-10.5zm4.519 3.104-3.227 3.452-1.804 1.873-.103-1.347 1.292-1.545 2.297-2.433zm-1.155 7.396-2.639-3.527.656-1.128 3.473 4.655z" fill="#fff"/><rect fill="#51354f" height="17" rx="8.5" transform="matrix(-1 0 0 1 330.192 135.5)" width="102"/><rect fill="#27212b" height="90" rx="16" width="434" x="30" y="178"/><rect fill="#51354f" height="25" rx="10" width="394" x="50" y="228"/><rect fill="#51354f" height="25" rx="10" width="309" x="50" y="193"/><g filter="url(#b)"><path d="m530.416 11.0606v-1zm10 10h1zm0 169.4014h-1zm-10 10v1zm-14.503 0v-1zm-72.038-5.329c2.943-.113 5.421 2.181 5.534 5.124.113 2.944-2.181 5.421-5.124 5.535-2.944.113-5.421-2.181-5.535-5.125-.113-2.943 2.181-5.421 5.125-5.534zm-126.911-185.0725c.552 0 1 .4478 1 1 0 .5523-.448 1-1 1zm9.928 2c-.552 0-1-.4477-1-1 0-.5522.448-1 1-1zm9.928-2c.552 0 1 .4478 1 1 0 .5523-.448 1-1 1zm9.928 2c-.552 0-1-.4477-1-1 0-.5522.448-1 1-1zm9.928-1.9999c.552 0 1 .4477 1 1 0 .5522-.448 1-1 1zm9.928 2c-.552 0-1-.4478-1-1 0-.5523.448-1 1-1zm9.928-2c.552 0 1 .4477 1 1 0 .5522-.448 1-1 1zm9.928 2c-.552 0-1-.4478-1-1 0-.5523.448-1 1-1zm9.928-2c.552 0 1 .4477 1 1 0 .5522-.448 1-1 1zm9.928 2c-.552 0-1-.4478-1-1 0-.5523.448-1 1-1zm9.928-2c.552 0 1 .4477 1 1 0 .5522-.448 1-1 1zm9.928 2c-.552 0-1-.4478-1-1 0-.5523.448-1 1-1zm9.928-2c.552 0 1 .4477 1 1 0 .5522-.448 1-1 1zm9.928 2c-.552 0-1-.4478-1-1 0-.5523.448-1 1-1zm9.928-2c.552 0 1 .4477 1 1 0 .5522-.448 1-1 1zm9.928 2c-.552 0-1-.4478-1-1 0-.5523.448-1 1-1zm9.928-2c.552 0 1 .4477 1 1 0 .5522-.448 1-1 1zm9.928 2c-.552 0-1-.4478-1-1 0-.5523.448-1 1-1zm9.928-2c.552 0 1 .4477 1 1 0 .5522-.448 1-1 1zm9.928 2c-.552 0-1-.4478-1-1 0-.5523.448-1 1-1zm9.928-2c.552 0 1 .4477 1 1 0 .5522-.448 1-1 1zm9.928 2c-.552 0-1-.4478-1-1 0-.5523.448-1 1-1zm9.175-1.165c.51.2116.752.7967.541 1.3068-.212.5102-.797.7523-1.307.5407zm4.107 6.7201c-.212-.5101.03-1.0952.54-1.3067.51-.2116 1.096.0305 1.307.5406zm2.682 8.7387c0 .5522-.448 1-1 1s-1-.4478-1-1zm-2 10.5876c0-.5523.448-1 1-1s1 .4477 1 1zm2 10.5876c0 .5522-.448 1-1 1s-1-.4478-1-1zm-2 10.5876c0-.5523.448-1.0001 1-1.0001s1 .4478 1 1zm2 10.5875c0 .5523-.448 1-1 1.0001-.552 0-1-.4478-1-1zm-2 10.5876c0-.5522.448-1 1-1s1 .4478 1 1zm2 10.5876c0 .5523-.448 1-1 1s-1-.4477-1-1zm-2 10.5881c0-.5527.448-1.0005 1-1.0005s1 .4478 1 1.0005zm2 10.587c0 .552-.448 1-1 1s-1-.448-1-1zm-2 10.588c0-.553.448-1 1-1s1 .447 1 1zm2 10.587c0 .553-.448 1-1 1s-1-.447-1-1zm-2 10.588c0-.552.448-1 1-1s1 .448 1 1zm2 10.588c0 .552-.448 1-1 1s-1-.448-1-1zm-2 10.587c0-.552.448-1 1-1s1 .448 1 1zm2 10.588c0 .552-.448 1-1 1s-1-.448-1-1zm-2 10.587c0-.552.448-1 1-1s1 .448 1 1zm1.165 9.505c-.211.51-.796.752-1.307.541-.51-.212-.752-.797-.54-1.307zm-6.72 4.107c.51-.212 1.095.03 1.307.54.211.51-.031 1.095-.541 1.307zm-7.071 2.682c-.552 0-1-.448-1-1s.448-1 1-1zm-7.252-2c.553 0 1 .448 1 1s-.447 1-1 1zm-8.115 2c-.552 0-1-.448-1-1s.448-1 1-1zm-8.979-2c.552 0 1 .448 1 1s-.448 1-1 1zm-8.979 2c-.552 0-1-.448-1-1s.448-1 1-1zm-8.979-2c.552 0 1 .448 1 1s-.448 1-1 1zm-8.979 2c-.553 0-1-.447-1-1 0-.552.447-1 1-1zm-8.98-2c.553 0 1 .448 1 1 .001.553-.447 1-.999 1zm-8.979 2c-.552 0-1-.447-1-1 0-.552.448-1 1-1zm-8.979-2c.553 0 1 .448 1 1 0 .553-.447 1-1 1zm-136.569-189.4015h4.964v2h-4.964zm14.892 0h9.928v2h-9.928zm19.856 0 9.928.0001v2l-9.928-.0001zm19.856.0001h9.928v2h-9.928zm19.856 0h9.928v2h-9.928zm19.856 0h9.928v2h-9.928zm19.856 0h9.928v2h-9.928zm19.856 0h9.928v2h-9.928zm19.856 0h9.928v2h-9.928zm19.856 0h9.928v2h-9.928zm19.856 0h9.928v2h-9.928zm19.856 0h4.964v2h-4.964zm4.964 0c1.49 0 2.913.2966 4.211.835l-.766 1.8475c-1.06-.4395-2.223-.6825-3.445-.6825zm10.165 6.789c.538 1.2984.835 2.7213.835 4.211h-2c0-1.2222-.243-2.3851-.682-3.4449zm.835 4.211v5.2938h-2v-5.2938zm0 15.8814v10.5876h-2v-10.5876zm0 21.1751v10.5876l-2 .0001v-10.5876zm0 21.1752v10.5876h-2v-10.5876zm0 21.1757v10.587h-2v-10.587zm0 21.175v10.587h-2v-10.587zm0 21.175v10.588h-2v-10.588zm0 21.175v10.588h-2v-10.588zm0 21.175v5.294h-2v-5.294zm0 5.294c0 1.49-.296 2.913-.835 4.211l-1.847-.766c.439-1.06.682-2.223.682-3.445zm-6.789 10.165c-1.298.538-2.721.835-4.211.835v-2c1.222 0 2.385-.243 3.445-.682zm-4.211.835h-3.626v-2h3.626zm-10.878 0h-3.625v-2h3.625zm-3.625 0h-4.49v-2h4.49zm-13.469 0h-8.979v-2h8.979zm-17.958 0h-8.979v-2h8.979zm-17.958 0h-8.98v-2h8.979zm-17.959 0h-4.489v-2h4.489zm81.847-190.4014v-1zm10 10h1zm0 169.4014h-1zm-10 10v1zm-14.503 0v-1zm-72.038-5.329c2.943-.113 5.421 2.181 5.534 5.124.113 2.944-2.181 5.421-5.124 5.535-2.944.113-5.421-2.181-5.535-5.125-.113-2.943 2.181-5.421 5.125-5.534zm-126.911-185.0725c.552 0 1 .4478 1 1 0 .5523-.448 1-1 1zm9.928 2c-.552 0-1-.4477-1-1 0-.5522.448-1 1-1zm9.928-2c.552 0 1 .4478 1 1 0 .5523-.448 1-1 1zm9.928 2c-.552 0-1-.4477-1-1 0-.5522.448-1 1-1zm9.928-1.9999c.552 0 1 .4477 1 1 0 .5522-.448 1-1 1zm9.928 2c-.552 0-1-.4478-1-1 0-.5523.448-1 1-1zm9.928-2c.552 0 1 .4477 1 1 0 .5522-.448 1-1 1zm9.928 2c-.552 0-1-.4478-1-1 0-.5523.448-1 1-1zm9.928-2c.552 0 1 .4477 1 1 0 .5522-.448 1-1 1zm9.928 2c-.552 0-1-.4478-1-1 0-.5523.448-1 1-1zm9.928-2c.552 0 1 .4477 1 1 0 .5522-.448 1-1 1zm9.928 2c-.552 0-1-.4478-1-1 0-.5523.448-1 1-1zm9.928-2c.552 0 1 .4477 1 1 0 .5522-.448 1-1 1zm9.928 2c-.552 0-1-.4478-1-1 0-.5523.448-1 1-1zm9.928-2c.552 0 1 .4477 1 1 0 .5522-.448 1-1 1zm9.928 2c-.552 0-1-.4478-1-1 0-.5523.448-1 1-1zm9.928-2c.552 0 1 .4477 1 1 0 .5522-.448 1-1 1zm9.928 2c-.552 0-1-.4478-1-1 0-.5523.448-1 1-1zm9.928-2c.552 0 1 .4477 1 1 0 .5522-.448 1-1 1zm9.928 2c-.552 0-1-.4478-1-1 0-.5523.448-1 1-1zm9.928-2c.552 0 1 .4477 1 1 0 .5522-.448 1-1 1zm9.928 2c-.552 0-1-.4478-1-1 0-.5523.448-1 1-1zm9.175-1.165c.51.2116.752.7967.541 1.3068-.212.5102-.797.7523-1.307.5407zm4.107 6.7201c-.212-.5101.03-1.0952.54-1.3067.51-.2116 1.096.0305 1.307.5406zm2.682 8.7387c0 .5522-.448 1-1 1s-1-.4478-1-1zm-2 10.5876c0-.5523.448-1 1-1s1 .4477 1 1zm2 10.5876c0 .5522-.448 1-1 1s-1-.4478-1-1zm-2 10.5876c0-.5523.448-1.0001 1-1.0001s1 .4478 1 1zm2 10.5875c0 .5523-.448 1-1 1.0001-.552 0-1-.4478-1-1zm-2 10.5876c0-.5522.448-1 1-1s1 .4478 1 1zm2 10.5876c0 .5523-.448 1-1 1s-1-.4477-1-1zm-2 10.5881c0-.5527.448-1.0005 1-1.0005s1 .4478 1 1.0005zm2 10.587c0 .552-.448 1-1 1s-1-.448-1-1zm-2 10.588c0-.553.448-1 1-1s1 .447 1 1zm2 10.587c0 .553-.448 1-1 1s-1-.447-1-1zm-2 10.588c0-.552.448-1 1-1s1 .448 1 1zm2 10.588c0 .552-.448 1-1 1s-1-.448-1-1zm-2 10.587c0-.552.448-1 1-1s1 .448 1 1zm2 10.588c0 .552-.448 1-1 1s-1-.448-1-1zm-2 10.587c0-.552.448-1 1-1s1 .448 1 1zm1.165 9.505c-.211.51-.796.752-1.307.541-.51-.212-.752-.797-.54-1.307zm-6.72 4.107c.51-.212 1.095.03 1.307.54.211.51-.031 1.095-.541 1.307zm-7.071 2.682c-.552 0-1-.448-1-1s.448-1 1-1zm-7.252-2c.553 0 1 .448 1 1s-.447 1-1 1zm-8.115 2c-.552 0-1-.448-1-1s.448-1 1-1zm-8.979-2c.552 0 1 .448 1 1s-.448 1-1 1zm-8.979 2c-.552 0-1-.448-1-1s.448-1 1-1zm-8.979-2c.552 0 1 .448 1 1s-.448 1-1 1zm-8.979 2c-.553 0-1-.447-1-1 0-.552.447-1 1-1zm-8.98-2c.553 0 1 .448 1 1 .001.553-.447 1-.999 1zm-8.979 2c-.552 0-1-.447-1-1 0-.552.448-1 1-1zm-8.979-2c.553 0 1 .448 1 1 0 .553-.447 1-1 1zm-136.569-189.4015h4.964v2h-4.964zm14.892 0h9.928v2h-9.928zm19.856 0 9.928.0001v2l-9.928-.0001zm19.856.0001h9.928v2h-9.928zm19.856 0h9.928v2h-9.928zm19.856 0h9.928v2h-9.928zm19.856 0h9.928v2h-9.928zm19.856 0h9.928v2h-9.928zm19.856 0h9.928v2h-9.928zm19.856 0h9.928v2h-9.928zm19.856 0h9.928v2h-9.928zm19.856 0h4.964v2h-4.964zm4.964 0c1.49 0 2.913.2966 4.211.835l-.766 1.8475c-1.06-.4395-2.223-.6825-3.445-.6825zm10.165 6.789c.538 1.2984.835 2.7213.835 4.211h-2c0-1.2222-.243-2.3851-.682-3.4449zm.835 4.211v5.2938h-2v-5.2938zm0 15.8814v10.5876h-2v-10.5876zm0 21.1751v10.5876l-2 .0001v-10.5876zm0 21.1752v10.5876h-2v-10.5876zm0 21.1757v10.587h-2v-10.587zm0 21.175v10.587h-2v-10.587zm0 21.175v10.588h-2v-10.588zm0 21.175v10.588h-2v-10.588zm0 21.175v5.294h-2v-5.294zm0 5.294c0 1.49-.296 2.913-.835 4.211l-1.847-.766c.439-1.06.682-2.223.682-3.445zm-6.789 10.165c-1.298.538-2.721.835-4.211.835v-2c1.222 0 2.385-.243 3.445-.682zm-4.211.835h-3.626v-2h3.626zm-10.878 0h-3.625v-2h3.625zm-3.625 0h-4.49v-2h4.49zm-13.469 0h-8.979v-2h8.979zm-17.958 0h-8.979v-2h8.979zm-17.958 0h-8.98v-2h8.979zm-17.959 0h-4.489v-2h4.489z" fill="#6b4d68"/></g><g filter="url(#c)"><rect fill="#e35760" height="48" rx="8" width="135" x="351" y="91"/><path d="m392.508 118.773v1.227h-6.024v-1.227zm-5.719-10.148v11.375h-1.508v-11.375zm4.922 4.891v1.226h-5.227v-1.226zm.719-4.891v1.234h-5.946v-1.234zm2.703 2.922 1.851 3.078 1.875-3.078h1.696l-2.766 4.172 2.852 4.281h-1.672l-1.953-3.172-1.954 3.172h-1.679l2.844-4.281-2.758-4.172zm10.187 7.422c.344 0 .662-.071.953-.211.292-.141.532-.334.719-.578.188-.25.294-.534.32-.852h1.376c-.027.5-.196.966-.508 1.399-.308.427-.711.773-1.211 1.039-.5.26-1.05.39-1.649.39-.635 0-1.19-.112-1.664-.336-.468-.224-.859-.531-1.172-.922-.307-.39-.539-.838-.695-1.343-.151-.511-.227-1.05-.227-1.617v-.329c0-.567.076-1.104.227-1.609.156-.51.388-.961.695-1.352.313-.39.704-.697 1.172-.921.474-.224 1.029-.336 1.664-.336.662 0 1.24.135 1.735.406.494.265.883.63 1.164 1.094.286.458.442.979.469 1.562h-1.376c-.026-.349-.124-.664-.296-.945-.167-.281-.396-.505-.688-.672-.286-.172-.622-.258-1.008-.258-.442 0-.815.089-1.117.266-.297.172-.534.406-.711.703-.172.292-.297.617-.375.976-.073.355-.109.717-.109 1.086v.329c0 .369.036.734.109 1.093.073.36.195.685.367.977.177.291.414.526.711.703.302.172.677.258 1.125.258zm6.438-10.969v12h-1.446v-12zm-.344 7.453-.602-.023c.006-.578.092-1.112.258-1.602.167-.495.401-.924.703-1.289.303-.365.662-.646 1.079-.844.421-.203.888-.304 1.398-.304.417 0 .792.057 1.125.171.333.11.617.287.852.532.239.245.421.562.546.953.125.385.188.857.188 1.414v5.539h-1.453v-5.555c0-.442-.065-.797-.196-1.062-.13-.271-.32-.466-.57-.586-.25-.125-.557-.188-.922-.188-.359 0-.687.076-.984.227-.292.151-.544.359-.758.625-.208.266-.372.57-.492.914-.115.339-.172.698-.172 1.078zm12.695 3.102v-4.352c0-.333-.067-.622-.203-.867-.13-.25-.328-.443-.594-.578-.265-.136-.593-.203-.984-.203-.364 0-.685.062-.961.187-.271.125-.484.289-.64.492-.151.204-.227.422-.227.657h-1.445c0-.302.078-.602.234-.899s.38-.565.672-.804c.297-.245.651-.438 1.062-.579.417-.145.881-.218 1.391-.218.615 0 1.156.104 1.625.312.474.208.844.524 1.109.945.271.417.407.941.407 1.571v3.937c0 .282.023.581.07.899.052.317.128.591.227.82v.125h-1.508c-.073-.167-.13-.388-.172-.664-.042-.281-.063-.542-.063-.781zm.25-3.68.016 1.016h-1.461c-.411 0-.779.033-1.102.101-.322.063-.593.159-.812.289s-.385.295-.5.492c-.115.193-.172.42-.172.68 0 .266.06.508.18.727.12.218.299.393.539.523.245.125.544.188.898.188.443 0 .834-.094 1.172-.282.339-.187.607-.416.805-.687.203-.271.312-.534.328-.789l.617.695c-.036.219-.135.461-.297.727-.161.265-.377.521-.648.765-.266.24-.583.44-.953.602-.365.156-.776.234-1.235.234-.573 0-1.075-.112-1.507-.336-.428-.224-.761-.523-1-.898-.235-.38-.352-.805-.352-1.274 0-.453.089-.851.266-1.195.177-.349.432-.638.765-.867.334-.234.735-.412 1.203-.531.469-.12.993-.18 1.571-.18zm4.914-1.523v6.648h-1.445v-8.453h1.367zm-.343 2.101-.602-.023c.005-.578.091-1.112.258-1.602.167-.495.401-.924.703-1.289s.662-.646 1.078-.844c.422-.203.888-.304 1.399-.304.416 0 .791.057 1.125.171.333.11.617.287.851.532.24.245.422.562.547.953.125.385.188.857.188 1.414v5.539h-1.454v-5.555c0-.442-.065-.797-.195-1.062-.13-.271-.32-.466-.57-.586-.25-.125-.557-.188-.922-.188-.359 0-.688.076-.984.227-.292.151-.545.359-.758.625-.209.266-.373.57-.492.914-.115.339-.172.698-.172 1.078zm13.218-3.906h1.313v8.273c0 .745-.151 1.381-.453 1.907s-.724.924-1.266 1.195c-.536.276-1.156.414-1.859.414-.292 0-.636-.047-1.031-.141-.391-.088-.776-.242-1.157-.461-.375-.213-.69-.502-.945-.867l.758-.859c.354.427.724.724 1.109.89.391.167.776.25 1.156.25.459 0 .855-.086 1.188-.257.333-.172.591-.427.773-.766.188-.333.282-.745.282-1.234v-6.485zm-5.82 4.32v-.164c0-.646.076-1.232.227-1.758.156-.531.377-.987.664-1.367.291-.38.643-.672 1.054-.875.412-.208.875-.312 1.391-.312.531 0 .995.093 1.391.281.401.182.739.45 1.015.805.282.349.503.77.664 1.265.162.495.274 1.055.336 1.68v.719c-.057.619-.169 1.177-.336 1.671-.161.495-.382.917-.664 1.266-.276.349-.614.617-1.015.805-.401.182-.87.273-1.407.273-.505 0-.963-.107-1.375-.32-.406-.214-.755-.513-1.046-.898-.292-.386-.516-.839-.672-1.36-.151-.526-.227-1.096-.227-1.711zm1.445-.164v.164c0 .422.042.818.125 1.188.089.369.222.695.399.976.182.281.414.503.695.664.281.157.617.235 1.008.235.479 0 .875-.102 1.188-.305.312-.203.559-.471.742-.805.187-.333.333-.695.437-1.086v-1.882c-.057-.287-.146-.563-.265-.829-.115-.27-.266-.51-.454-.718-.182-.214-.408-.383-.679-.508s-.589-.188-.953-.188c-.396 0-.737.084-1.024.25-.281.162-.513.386-.695.672-.177.281-.31.61-.399.985-.083.369-.125.765-.125 1.187zm11.391 4.453c-.588 0-1.122-.099-1.602-.297-.473-.203-.882-.487-1.226-.851-.339-.365-.599-.797-.781-1.297-.183-.5-.274-1.047-.274-1.641v-.328c0-.687.102-1.299.305-1.836.203-.541.479-1 .828-1.375s.745-.659 1.188-.851c.442-.193.901-.289 1.375-.289.604 0 1.125.104 1.562.312.443.208.805.5 1.086.875.281.37.49.807.625 1.313.135.5.203 1.047.203 1.64v.649h-6.312v-1.18h4.867v-.109c-.021-.375-.099-.74-.235-1.094-.13-.354-.338-.646-.625-.875-.286-.229-.677-.344-1.171-.344-.329 0-.631.07-.907.211-.276.135-.513.339-.711.609-.198.271-.351.602-.461.993-.109.39-.164.841-.164 1.351v.328c0 .401.055.779.164 1.133.115.349.279.656.493.922.218.266.481.474.789.625.312.151.666.227 1.062.227.511 0 .943-.105 1.297-.313s.664-.487.93-.836l.875.695c-.183.276-.414.539-.696.789-.281.25-.627.454-1.039.61-.406.156-.888.234-1.445.234z" fill="#fff"/></g><rect fill="#ff626e" height="18" rx="2" width="18" x="20" y="2"/><path d="m52.4752 9.45331c0-1.09669-.01-2.15777.005-3.21794.006-.40818.019-.82641.118-1.22089.5393-2.15503 2.6281-3.41883 5.1532-3.14489 2.0708.22464 3.7525 2.03542 3.7655 4.06352.0071 1.15331.001 2.30662.001 3.5202.3282 0 .6223-.00822.9154.00183.6533.02283.9784.32234.9794.91776.004 2.9659.004 5.9327 0 8.8986-.001.5689-.3261.8876-.9474.8894-3.6495.0082-7.299.0082-10.9485 0-.6053-.0009-.9284-.3059-.9294-.8538-.007-2.9969-.006-5.993 0-8.9899.001-.54063.3321-.83375.9334-.86024.2961-.01461.5942-.00365.9544-.00365zm9.1268 1.65099c-3.1033 0-6.1486 0-9.2108 0-.0161.1087-.0411.1963-.0411.2849-.002 2.2664.006 4.5338-.01 6.8002-.003.3689.2031.3717.4982.3717 2.7672-.0055 5.5333-.0028 8.3005-.0046.1461 0 .2921-.0155.4642-.0246-.001-2.4847-.001-4.9402-.001-7.4276zm-1.8648-1.66469c0-1.17796.001-2.31483 0-3.45171-.002-1.4236-1.1895-2.53856-2.7161-2.55499-1.5297-.01644-2.7782 1.12682-2.7832 2.55317-.004 1.00264 0 2.00619 0 3.00883v.44379c1.8598.00091 3.6385.00091 5.4993.00091z" fill="#fff"/><path d="m74.4746 6.04688v9.95312h-1.3193v-9.95312zm4.1699 4.47752v1.0801h-4.457v-1.0801zm.6768-4.47752v1.08007h-5.1338v-1.08007zm2.7549 2.55664v7.39648h-1.2715v-7.39648zm-1.3672-1.96192c0-.20508.0615-.37825.1846-.51953.1276-.14128.3144-.21191.5605-.21191.2415 0 .4261.07063.5537.21191.1322.14128.1983.31445.1983.51953 0 .19597-.0661.36458-.1983.50586-.1276.13672-.3122.20508-.5537.20508-.2461 0-.4329-.06836-.5605-.20508-.1231-.14128-.1846-.30989-.1846-.50586zm4.2519 1.96192 1.6202 2.69338 1.6406-2.69338h1.4834l-2.4199 3.65038 2.4951 3.7461h-1.4629l-1.709-2.7754-1.709 2.7754h-1.4697l2.4883-3.7461-2.4131-3.65038zm9.0235 7.53318c-.515 0-.9821-.0866-1.4014-.2597-.4147-.1778-.7725-.4262-1.0732-.7452-.2963-.319-.5241-.6972-.6836-1.1347s-.2393-.916-.2393-1.4356v-.2871c0-.6015.0889-1.137.2666-1.6064.1777-.474.4193-.87503.7246-1.20316.3054-.32812.6517-.57649 1.0391-.74511s.7884-.25293 1.2031-.25293c.5287 0 .9844.09114 1.3672.27343.3874.1823.7041.4375.9502.76563.2461.32357.4284.70634.5469 1.14844.1185.4375.1777.916.1777 1.4355v.5674h-5.5234v-1.0322h4.2588v-.0957c-.0183-.3281-.0866-.6471-.2051-.957-.114-.3099-.2962-.5651-.5469-.76566-.2506-.20052-.5924-.30078-1.0254-.30078-.2871 0-.5514.06152-.793.18457-.2415.11849-.4488.29622-.622.53317-.1732.237-.3076.5264-.4033.8682-.0958.3418-.1436.736-.1436 1.1826v.2871c0 .3509.0478.6813.1436.9912.1002.3054.2438.5743.4306.8067.1914.2324.4216.4147.6904.5468.2735.1322.5834.1983.9297.1983.4466 0 .8249-.0912 1.1348-.2734.3099-.1823.5811-.4262.8135-.7315l.7656.6084c-.1595.2415-.3623.4717-.6084.6904-.2461.2188-.5492.3965-.9092.5332-.3554.1368-.777.2051-1.2646.2051zm9.0166-1.5722v-9.0645h1.271v10.5h-1.162zm-4.9766-2.1807v-.1436c0-.5651.0684-1.0778.2051-1.5381.1413-.4648.3395-.86356.5947-1.19624.2598-.33268.5674-.58789.9229-.76563.3599-.18229.7609-.27343 1.2029-.27343.465 0 .871.08203 1.217.24609.351.15951.647.39421.889.7041.246.30534.439.67451.581 1.10741.141.433.239.9229.294 1.4697v.6289c-.05.5424-.148 1.03-.294 1.4629-.142.433-.335.8021-.581 1.1075-.242.3053-.538.54-.889.7041-.351.1595-.761.2392-1.23.2392-.433 0-.83-.0934-1.1899-.2803-.3555-.1868-.6631-.4488-.9229-.7861-.2552-.3372-.4534-.7337-.5947-1.1894-.1367-.4603-.2051-.9594-.2051-1.4971zm1.2715-.1436v.1436c0 .3691.0365.7155.1094 1.0391.0774.3235.1959.6083.3554.8544s.3623.4398.6083.5811c.246.1367.54.2051.882.2051.419 0 .763-.0889 1.032-.2666.274-.1778.492-.4125.656-.7041.165-.2917.292-.6084.383-.9502v-1.6475c-.054-.2506-.134-.4922-.239-.7246-.1-.237-.232-.4466-.396-.6289-.16-.18685-.358-.33496-.595-.44433-.233-.10938-.508-.16407-.827-.16407-.347 0-.645.07292-.896.21875-.246.14128-.4488.33725-.6083.58785-.1595.2461-.278.5332-.3554.8614-.0729.3235-.1094.6699-.1094 1.039zm11.6831-2.47458v6.23438h-1.265v-7.39648h1.23zm2.31-1.20312-.007 1.17578c-.105-.02279-.205-.03646-.301-.04101-.091-.00912-.196-.01368-.314-.01368-.292 0-.549.04558-.772.13672-.224.09115-.413.21879-.568.38279-.155.1641-.278.3601-.369.5879-.087.2233-.144.4694-.171.7383l-.355.2051c0-.4466.043-.8659.13-1.2578.091-.392.23-.73832.417-1.0391.186-.30534.423-.54232.71-.71094.292-.17317.638-.25976 1.04-.25976.091 0 .195.01139.314.03418.118.01823.2.03873.246.06152zm5.257 6.1729v-3.8077c0-.2916-.059-.5446-.178-.7588-.114-.2187-.287-.38732-.519-.50581-.233-.11849-.52-.17774-.862-.17774-.319 0-.599.05469-.841.16406-.236.10938-.423.25293-.56.43069-.132.1777-.198.3691-.198.5742h-1.265c0-.2643.068-.5264.205-.78614.137-.25976.333-.49446.588-.7041.26-.21419.57-.38281.93-.50586.364-.1276.77-.1914 1.216-.1914.538 0 1.012.09114 1.422.27343.415.1823.739.45801.971.82715.237.36459.356.82262.356 1.37402v3.4453c0 .2461.02.5082.061.7862.046.2779.112.5172.198.7177v.1094h-1.319c-.064-.1458-.114-.3395-.15-.5811-.037-.246-.055-.4739-.055-.6835zm.219-3.2198.013.8887h-1.278c-.36 0-.681.0296-.964.0889-.282.0547-.519.139-.711.2529-.191.1139-.337.2575-.437.4307-.101.1686-.151.3668-.151.5947 0 .2324.053.4443.158.6357.104.1914.262.3441.471.458.214.1094.476.1641.786.1641.388 0 .73-.082 1.026-.2461s.531-.3646.704-.6016c.178-.2369.273-.4671.287-.6904l.54.6084c-.032.1914-.119.4033-.26.6358-.141.2324-.33.4557-.567.6699-.233.2096-.511.3851-.834.5263-.319.1368-.679.2051-1.08.2051-.502 0-.941-.098-1.32-.2939-.373-.196-.665-.458-.875-.7862-.205-.3326-.307-.7041-.307-1.1142 0-.3965.077-.7451.232-1.0459.155-.3054.378-.5583.67-.7588.292-.2051.643-.36 1.053-.4648.41-.1049.868-.1573 1.374-.1573zm6.131-2.91208v.9707h-3.999v-.9707zm-2.645-1.79786h1.265v7.36234c0 .2506.038.4397.116.5674.077.1276.178.2119.301.2529s.255.0615.396.0615c.105 0 .214-.0091.328-.0273.119-.0228.208-.0411.267-.0547l.007 1.0322c-.101.0319-.233.0615-.397.0889-.159.0319-.353.0478-.581.0478-.31 0-.595-.0615-.854-.1846-.26-.123-.467-.3281-.622-.6152-.151-.2917-.226-.6836-.226-1.1758zm7.198 9.33104c-.515 0-.982-.0866-1.401-.2597-.415-.1778-.773-.4262-1.073-.7452-.297-.319-.524-.6972-.684-1.1347-.159-.4375-.239-.916-.239-1.4356v-.2871c0-.6015.089-1.137.266-1.6064.178-.474.42-.87503.725-1.20316.305-.32812.652-.57649 1.039-.74511s.788-.25293 1.203-.25293c.529 0 .985.09114 1.367.27343.388.1823.704.4375.951.76563.246.32357.428.70634.546 1.14844.119.4375.178.916.178 1.4355v.5674h-5.523v-1.0322h4.258v-.0957c-.018-.3281-.086-.6471-.205-.957-.114-.3099-.296-.5651-.546-.76566-.251-.20052-.593-.30078-1.026-.30078-.287 0-.551.06152-.793.18457-.241.11849-.449.29622-.622.53317-.173.237-.308.5264-.403.8682-.096.3418-.144.736-.144 1.1826v.2871c0 .3509.048.6813.144.9912.1.3054.244.5743.43.8067.192.2324.422.4147.691.5468.273.1322.583.1983.93.1983.446 0 .824-.0912 1.134-.2734.31-.1823.581-.4262.814-.7315l.765.6084c-.159.2415-.362.4717-.608.6904-.246.2188-.549.3965-.909.5332-.356.1368-.777.2051-1.265.2051z" fill="#fff"/><rect fill="#ff4e55" height="22" rx="2" width="22" x="18"/><rect fill="#ff626e" height="18" rx="2" width="18" x="157" y="2"/><path d="m198.164 14.6668c-1.254 0-2.507-.582-3.462-1.7472l-1.963-2.3958c-1.257-1.53356-3.302-1.53356-4.559 0l-1.919 2.3421c-.326.3984-.855.3984-1.183 0-.326-.3984-.326-1.0449 0-1.4433l1.92-2.34215c1.908-2.32927 5.015-2.32927 6.923 0l1.963 2.39585c1.256 1.5335 3.302 1.5335 4.558 0l1.297-1.58292c.327-.39841.856-.39841 1.183 0 .326.39842.326 1.04382 0 1.44332l-1.297 1.5829c-.954 1.1652-2.207 1.7472-3.461 1.7472z" fill="#fff"/><path d="m211.475 6.04688v9.95312h-1.32v-9.95312zm4.17 4.47752v1.0801h-4.457v-1.0801zm.676-4.47752v1.08007h-5.133v-1.08007zm2.755-.54688v10.5h-1.271v-10.5zm1.695 6.8838v-.1572c0-.5332.078-1.0277.233-1.4834.155-.4603.378-.85909.67-1.19632.291-.3418.645-.60612 1.059-.79297.415-.19141.88-.28711 1.395-.28711.519 0 .987.0957 1.401.28711.42.18685.775.45117 1.067.79297.296.33723.522.73602.676 1.19632.155.4557.233.9502.233 1.4834v.1572c0 .5332-.078 1.0277-.233 1.4834-.154.4557-.38.8545-.676 1.1963-.292.3372-.645.6015-1.06.7929-.41.1869-.875.2803-1.394.2803-.52 0-.987-.0934-1.402-.2803-.414-.1914-.77-.4557-1.066-.7929-.292-.3418-.515-.7406-.67-1.1963s-.233-.9502-.233-1.4834zm1.265-.1572v.1572c0 .3691.043.7178.13 1.0459.087.3236.216.6107.39.8613.177.2507.398.4489.663.5947.264.1413.572.212.923.212.346 0 .649-.0707.909-.212.264-.1458.483-.344.656-.5947.173-.2506.303-.5377.39-.8613.091-.3281.136-.6768.136-1.0459v-.1572c0-.3646-.045-.7087-.136-1.0323-.087-.3281-.219-.6175-.397-.8681-.173-.2552-.392-.45576-.656-.60159-.26-.14583-.565-.21875-.916-.21875-.346 0-.652.07292-.916.21875-.26.14583-.479.34639-.656.60159-.174.2506-.303.54-.39.8681-.087.3236-.13.6677-.13 1.0323zm11.416 2.5088v-3.8077c0-.2916-.059-.5446-.178-.7588-.114-.2187-.287-.38732-.519-.50581-.233-.11849-.52-.17774-.861-.17774-.319 0-.6.05469-.841.16406-.237.10938-.424.25293-.561.43069-.132.1777-.198.3691-.198.5742h-1.265c0-.2643.069-.5264.205-.78614.137-.25976.333-.49446.588-.7041.26-.21419.57-.38281.93-.50586.365-.1276.77-.1914 1.217-.1914.538 0 1.011.09114 1.422.27343.414.1823.738.45801.97.82715.237.36459.356.82262.356 1.37402v3.4453c0 .2461.02.5082.061.7862.046.2779.112.5172.199.7177v.1094h-1.32c-.064-.1458-.114-.3395-.15-.5811-.037-.246-.055-.4739-.055-.6835zm.219-3.2198.014.8887h-1.279c-.36 0-.681.0296-.964.0889-.282.0547-.519.139-.711.2529-.191.1139-.337.2575-.437.4307-.1.1686-.15.3668-.15.5947 0 .2324.052.4443.157.6357s.262.3441.471.458c.215.1094.477.1641.787.1641.387 0 .729-.082 1.025-.2461s.531-.3646.704-.6016c.178-.2369.274-.4671.287-.6904l.54.6084c-.032.1914-.118.4033-.26.6358-.141.2324-.33.4557-.567.6699-.232.2096-.51.3851-.834.5263-.319.1368-.679.2051-1.08.2051-.501 0-.941-.098-1.319-.2939-.374-.196-.666-.458-.875-.7862-.205-.3326-.308-.7041-.308-1.1142 0-.3965.078-.7451.232-1.0459.155-.3054.379-.5583.67-.7588.292-.2051.643-.36 1.053-.4648.41-.1049.868-.1573 1.374-.1573zm6.132-2.91208v.9707h-3.999v-.9707zm-2.646-1.79786h1.265v7.36234c0 .2506.039.4397.116.5674.078.1276.178.2119.301.2529s.255.0615.396.0615c.105 0 .215-.0091.328-.0273.119-.0228.208-.0411.267-.0547l.007 1.0322c-.1.0319-.233.0615-.397.0889-.159.0319-.353.0478-.581.0478-.31 0-.594-.0615-.854-.1846-.26-.123-.467-.3281-.622-.6152-.151-.2917-.226-.6836-.226-1.1758zm5.503 1.79786v7.39648h-1.271v-7.39648zm-1.367-1.96192c0-.20508.061-.37825.185-.51953.127-.14128.314-.21191.56-.21191.242 0 .426.07063.554.21191.132.14128.198.31445.198.51953 0 .19597-.066.36458-.198.50586-.128.13672-.312.20508-.554.20508-.246 0-.433-.06836-.56-.20508-.124-.14128-.185-.30989-.185-.50586zm4.662 3.541v5.8174h-1.265v-7.39648h1.197zm-.301 1.8389-.526-.0205c.004-.5059.08-.973.226-1.4014.145-.4329.35-.80891.615-1.12792.264-.31901.579-.5651.943-.73828.369-.17774.777-.2666 1.224-.2666.364 0 .692.05013.984.15039.292.0957.54.25065.745.46484.21.21419.369.49219.479.83399.109.33728.164.74968.164 1.23728v4.8467h-1.272v-4.8604c0-.3873-.057-.6972-.171-.9296-.114-.23702-.28-.40792-.499-.51273-.218-.10938-.487-.16407-.806-.16407-.315 0-.602.06608-.862.19825-.255.13216-.476.31445-.663.54685-.182.2324-.325.499-.43.7998-.101.2962-.151.6107-.151.9434zm11.567-3.41798h1.148v7.23928c0 .6517-.132 1.2077-.396 1.6679-.265.4603-.634.809-1.108 1.0459-.469.2416-1.011.3623-1.627.3623-.255 0-.556-.041-.902-.123-.342-.0775-.679-.2119-1.012-.4033-.328-.1869-.604-.4398-.827-.7588l.663-.752c.31.3737.634.6335.971.7793.342.1459.679.2188 1.012.2188.401 0 .747-.0752 1.039-.2256.291-.1504.517-.3737.676-.6699.164-.2917.246-.6517.246-1.0801v-5.6738zm-5.093 3.78028v-.1436c0-.5651.066-1.0778.198-1.5381.137-.4648.331-.86356.581-1.19624.255-.33268.563-.58789.923-.76563.36-.18229.766-.27343 1.217-.27343.465 0 .87.08203 1.217.24609.351.15951.647.39421.888.7041.246.30534.44.67451.581 1.10741.142.433.24.9229.294 1.4697v.6289c-.05.5424-.148 1.03-.294 1.4629-.141.433-.335.8021-.581 1.1075-.241.3053-.537.54-.888.7041-.351.1595-.761.2392-1.231.2392-.442 0-.843-.0934-1.203-.2803-.355-.1868-.661-.4488-.916-.7861-.255-.3372-.451-.7337-.588-1.1894-.132-.4603-.198-.9594-.198-1.4971zm1.265-.1436v.1436c0 .3691.036.7155.109 1.0391.077.3235.194.6083.349.8544.159.2461.362.4398.608.5811.246.1367.54.2051.882.2051.419 0 .765-.0889 1.039-.2666.273-.1778.49-.4125.649-.7041.164-.2917.292-.6084.383-.9502v-1.6475c-.05-.2506-.127-.4922-.232-.7246-.101-.237-.233-.4466-.397-.6289-.159-.18685-.358-.33496-.595-.44433-.237-.10938-.514-.16407-.834-.16407-.346 0-.644.07292-.895.21875-.246.14128-.449.33725-.608.58785-.155.2461-.272.5332-.349.8614-.073.3235-.109.6699-.109 1.039zm11.634-2.47458v6.23438h-1.264v-7.39648h1.23zm2.311-1.20312-.007 1.17578c-.105-.02279-.205-.03646-.301-.04101-.091-.00912-.196-.01368-.314-.01368-.292 0-.549.04558-.773.13672-.223.09115-.412.21879-.567.38279-.155.1641-.278.3601-.369.5879-.087.2233-.144.4694-.171.7383l-.356.2051c0-.4466.044-.8659.13-1.2578.091-.392.23-.73832.417-1.0391.187-.30534.424-.54232.711-.71094.292-.17317.638-.25976 1.039-.25976.091 0 .196.01139.315.03418.118.01823.2.03873.246.06152zm5.257 6.1729v-3.8077c0-.2916-.06-.5446-.178-.7588-.114-.2187-.287-.38732-.52-.50581-.232-.11849-.519-.17774-.861-.17774-.319 0-.599.05469-.841.16406-.237.10938-.424.25293-.56.43069-.132.1777-.198.3691-.198.5742h-1.265c0-.2643.068-.5264.205-.78614.137-.25976.333-.49446.588-.7041.26-.21419.57-.38281.93-.50586.364-.1276.77-.1914 1.216-.1914.538 0 1.012.09114 1.422.27343.415.1823.738.45801.971.82715.237.36459.355.82262.355 1.37402v3.4453c0 .2461.021.5082.062.7862.045.2779.112.5172.198.7177v.1094h-1.319c-.064-.1458-.114-.3395-.151-.5811-.036-.246-.054-.4739-.054-.6835zm.218-3.2198.014.8887h-1.278c-.36 0-.681.0296-.964.0889-.283.0547-.52.139-.711.2529s-.337.2575-.437.4307c-.101.1686-.151.3668-.151.5947 0 .2324.053.4443.157.6357.105.1914.262.3441.472.458.214.1094.476.1641.786.1641.388 0 .729-.082 1.026-.2461.296-.1641.53-.3646.704-.6016.177-.2369.273-.4671.287-.6904l.54.6084c-.032.1914-.119.4033-.26.6358-.141.2324-.33.4557-.567.6699-.233.2096-.511.3851-.834.5263-.319.1368-.679.2051-1.08.2051-.502 0-.941-.098-1.32-.2939-.373-.196-.665-.458-.875-.7862-.205-.3326-.307-.7041-.307-1.1142 0-.3965.077-.7451.232-1.0459.155-.3054.378-.5583.67-.7588.292-.2051.643-.36 1.053-.4648.41-.1049.868-.1573 1.374-.1573zm6.132-2.91208v.9707h-3.999v-.9707zm-2.645-1.79786h1.264v7.36234c0 .2506.039.4397.117.5674.077.1276.177.2119.3.2529s.256.0615.397.0615c.105 0 .214-.0091.328-.0273.119-.0228.207-.0411.267-.0547l.006 1.0322c-.1.0319-.232.0615-.396.0889-.159.0319-.353.0478-.581.0478-.31 0-.595-.0615-.855-.1846-.259-.123-.467-.3281-.622-.6152-.15-.2917-.225-.6836-.225-1.1758zm7.198 9.33104c-.515 0-.982-.0866-1.401-.2597-.415-.1778-.773-.4262-1.074-.7452-.296-.319-.524-.6972-.683-1.1347-.16-.4375-.239-.916-.239-1.4356v-.2871c0-.6015.088-1.137.266-1.6064.178-.474.419-.87503.725-1.20316.305-.32812.651-.57649 1.039-.74511.387-.16862.788-.25293 1.203-.25293.529 0 .984.09114 1.367.27343.388.1823.704.4375.95.76563.246.32357.429.70634.547 1.14844.119.4375.178.916.178 1.4355v.5674h-5.523v-1.0322h4.258v-.0957c-.018-.3281-.086-.6471-.205-.957-.114-.3099-.296-.5651-.547-.76566-.25-.20052-.592-.30078-1.025-.30078-.287 0-.551.06152-.793.18457-.242.11849-.449.29622-.622.53317-.173.237-.308.5264-.403.8682-.096.3418-.144.736-.144 1.1826v.2871c0 .3509.048.6813.144.9912.1.3054.243.5743.43.8067.192.2324.422.4147.691.5468.273.1322.583.1983.929.1983.447 0 .825-.0912 1.135-.2734.31-.1823.581-.4262.814-.7315l.765.6084c-.159.2415-.362.4717-.608.6904-.246.2188-.549.3965-.909.5332-.356.1368-.777.2051-1.265.2051z" fill="#fff"/><rect fill="#ff4e55" height="22" rx="2" width="22" x="155"/><path d="m54.8262 87.5967h-2.6592v-1.0733h2.6592c.5149 0 .9319-.082 1.2509-.2461.3191-.164.5515-.3919.6973-.6835.1504-.2917.2256-.6244.2256-.9981 0-.3418-.0752-.6631-.2256-.9639-.1458-.3007-.3782-.5423-.6973-.7246-.319-.1868-.736-.2802-1.2509-.2802h-2.3516v8.873h-1.3193v-9.9531h3.6709c.7519 0 1.3877.1299 1.9072.3896.5195.2598.9137.6198 1.1826 1.0801.2689.4557.4033.9775.4033 1.5654 0 .6381-.1344 1.1826-.4033 1.6338s-.6631.7953-1.1826 1.0322c-.5195.2325-1.1553.3487-1.9072.3487zm9.249 2.6387v-3.8077c0-.2916-.0592-.5446-.1777-.7588-.114-.2187-.2871-.3873-.5196-.5058-.2324-.1185-.5195-.1777-.8613-.1777-.319 0-.5993.0546-.8408.164-.237.1094-.4238.2529-.5606.4307-.1321.1777-.1982.3691-.1982.5742h-1.2647c0-.2643.0684-.5264.2051-.7861.1367-.2598.3327-.4945.5879-.7041.2598-.2142.5697-.3829.9297-.5059.3646-.1276.7702-.1914 1.2168-.1914.5378 0 1.0117.0911 1.4219.2734.4147.1823.7383.458.9707.8272.237.3646.3554.8226.3554 1.374v3.4453c0 .2461.0206.5082.0616.7862.0455.2779.1116.5172.1982.7177v.1094h-1.3193c-.0638-.1458-.114-.3395-.1504-.5811-.0365-.246-.0547-.4739-.0547-.6835zm.2187-3.2198.0137.8887h-1.2783c-.36 0-.6813.0296-.9639.0889-.2825.0547-.5195.139-.7109.2529s-.3372.2575-.4375.4307c-.1003.1686-.1504.3668-.1504.5947 0 .2324.0524.4443.1572.6357s.2621.3441.4717.458c.2142.1094.4762.1641.7861.1641.3874 0 .7292-.082 1.0254-.2461.2963-.1641.531-.3646.7041-.6016.1778-.2369.2735-.4671.2871-.6904l.5401.6084c-.0319.1914-.1185.4033-.2598.6358-.1413.2324-.3304.4557-.5674.6699-.2324.2096-.5104.3851-.834.5263-.319.1368-.679.2051-1.08.2051-.5013 0-.9411-.098-1.3194-.2939-.3737-.196-.6653-.458-.875-.7862-.205-.3326-.3076-.7041-.3076-1.1142 0-.3965.0775-.7451.2324-1.0459.155-.3054.3783-.5583.67-.7588.2916-.2051.6425-.36 1.0527-.4648.4102-.1049.8682-.1573 1.374-.1573zm4.2999-1.75v6.2344h-1.2647v-7.3965h1.2305zm2.3105-1.2031-.0068 1.1758c-.1049-.0228-.2051-.0365-.3008-.041-.0912-.0091-.196-.0137-.3145-.0137-.2916 0-.5491.0456-.7724.1367-.2233.0912-.4125.2188-.5674.3828-.155.1641-.278.3601-.3692.5879-.0865.2233-.1435.4694-.1709.7383l-.3554.2051c0-.4466.0433-.8659.1299-1.2578.0911-.392.2301-.7383.417-1.0391.1868-.3053.4238-.5423.7109-.7109.2917-.1732.638-.2598 1.0391-.2598.0911 0 .1959.0114.3144.0342.1185.0182.2005.0387.2461.0615zm4.6074.041v.9707h-3.999v-.9707zm-2.6455-1.7978h1.2647v7.3623c0 .2506.0387.4397.1162.5674.0774.1276.1777.2119.3008.2529.123.041.2552.0615.3964.0615.1049 0 .2142-.0091.3282-.0273.1185-.0228.2073-.0411.2666-.0547l.0068 1.0322c-.1003.0319-.2324.0615-.3965.0889-.1595.0319-.3532.0478-.581.0478-.3099 0-.5948-.0615-.8545-.1846-.2598-.123-.4672-.3281-.6221-.6152-.1504-.2917-.2256-.6836-.2256-1.1758zm5.3936 3.3769v5.8174h-1.2647v-7.3965h1.1963zm-.3008 1.8389-.5264-.0205c.0046-.5059.0798-.973.2256-1.4014.1458-.4329.3509-.8089.6152-1.1279.2644-.319.5788-.5651.9434-.7383.3691-.1777.777-.2666 1.2236-.2666.3646 0 .6927.0501.9844.1504.2917.0957.54.2506.7451.4648.2097.2142.3692.4922.4785.834.1094.3373.1641.7497.1641 1.2373v4.8467h-1.2715v-4.8604c0-.3873-.057-.6972-.1709-.9296-.1139-.237-.2803-.4079-.499-.5127-.2188-.1094-.4876-.1641-.8066-.1641-.3145 0-.6016.0661-.8614.1982-.2552.1322-.4762.3145-.6631.5469-.1823.2324-.3258.499-.4306.7998-.1003.2962-.1504.6107-.1504.9434zm9.8437 4.1152c-.5149 0-.9821-.0866-1.4013-.2597-.4147-.1778-.7725-.4262-1.0733-.7452-.2962-.319-.5241-.6972-.6836-1.1347s-.2392-.916-.2392-1.4356v-.2871c0-.6015.0888-1.137.2666-1.6064.1777-.474.4192-.875.7246-1.2032.3053-.3281.6517-.5765 1.039-.7451.3874-.1686.7885-.2529 1.2032-.2529.5286 0 .9843.0911 1.3672.2734.3873.1823.7041.4375.9502.7657.246.3235.4283.7063.5468 1.1484.1185.4375.1778.916.1778 1.4355v.5674h-5.5235v-1.0322h4.2588v-.0957c-.0182-.3281-.0866-.6471-.2051-.957-.1139-.3099-.2962-.5651-.5468-.7657-.2507-.2005-.5925-.3007-1.0254-.3007-.2871 0-.5515.0615-.793.1845-.2415.1185-.4489.2963-.6221.5332-.1731.237-.3076.5264-.4033.8682s-.1435.736-.1435 1.1826v.2871c0 .3509.0478.6813.1435.9912.1003.3054.2438.5743.4307.8067.1914.2324.4215.4147.6904.5468.2734.1322.5833.1983.9297.1983.4466 0 .8249-.0912 1.1348-.2734.3099-.1823.581-.4262.8134-.7315l.7657.6084c-.1595.2415-.3623.4717-.6084.6904-.2461.2188-.5492.3965-.9092.5332-.3555.1368-.777.2051-1.2647.2051zm5.6192-6.3711v6.2344h-1.2647v-7.3965h1.2305zm2.3105-1.2031-.0068 1.1758c-.1048-.0228-.2051-.0365-.3008-.041-.0911-.0091-.196-.0137-.3144-.0137-.2917 0-.5492.0456-.7725.1367-.2233.0912-.4124.2188-.5674.3828-.1549.1641-.278.3601-.3691.5879-.0866.2233-.1436.4694-.1709.7383l-.3555.2051c0-.4466.0433-.8659.1299-1.2578.0911-.392.2301-.7383.417-1.0391.1868-.3053.4238-.5423.7109-.7109.2917-.1732.638-.2598 1.0391-.2598.0911 0 .1959.0114.3144.0342.1185.0182.2005.0387.2461.0615z" fill="#fff"/><rect fill="#51354f" height="17" rx="8.5" transform="matrix(-1 0 0 1 331 78)" width="225"/><path d="m51.1553 110.547h3.2949c.7474 0 1.3786.114 1.8936.342.5195.228.9137.565 1.1826 1.011.2734.442.4101.987.4101 1.634 0 .456-.0934.873-.2803 1.251-.1822.374-.4466.693-.7929.957-.3418.26-.752.454-1.2305.581l-.3691.144h-3.0967l-.0137-1.073h2.3379c.474 0 .8682-.082 1.1826-.247.3145-.168.5515-.394.711-.676.1595-.283.2392-.595.2392-.937 0-.383-.0752-.718-.2256-1.005s-.3873-.508-.7109-.663c-.319-.159-.7314-.239-1.2373-.239h-1.9756v8.873h-1.3193zm5.8174 9.953-2.42-4.512 1.3741-.007 2.4541 4.437v.082zm6.9794-1.265v-3.807c0-.292-.0592-.545-.1777-.759-.1139-.219-.2871-.387-.5195-.506-.2324-.118-.5195-.178-.8613-.178-.3191 0-.5993.055-.8409.164-.2369.11-.4238.253-.5605.431-.1322.178-.1983.369-.1983.574h-1.2646c0-.264.0684-.526.2051-.786s.3327-.494.5879-.704c.2597-.214.5696-.383.9297-.506.3645-.127.7701-.191 1.2168-.191.5377 0 1.0117.091 1.4218.273.4147.183.7383.458.9707.827.237.365.3555.823.3555 1.374v3.446c0 .246.0205.508.0615.786.0456.278.1117.517.1983.718v.109h-1.3194c-.0638-.146-.1139-.34-.1504-.581-.0364-.246-.0547-.474-.0547-.684zm.2188-3.219.0137.888h-1.2784c-.36 0-.6813.03-.9638.089-.2826.055-.5195.139-.711.253-.1914.114-.3372.258-.4375.431-.1002.168-.1503.367-.1503.594 0 .233.0524.445.1572.636.1048.192.262.344.4717.458.2142.11.4762.164.7861.164.3874 0 .7292-.082 1.0254-.246s.5309-.364.7041-.601c.1777-.237.2734-.467.2871-.691l.54.609c-.0319.191-.1185.403-.2597.635-.1413.233-.3304.456-.5674.67-.2324.21-.5104.385-.834.527-.319.136-.679.205-1.0801.205-.5013 0-.9411-.098-1.3193-.294-.3737-.196-.6654-.458-.875-.786-.2051-.333-.3076-.704-.3076-1.115 0-.396.0774-.745.2324-1.046.1549-.305.3782-.558.6699-.758.2917-.205.6426-.36 1.0527-.465.4102-.105.8682-.157 1.3741-.157zm6.1318-2.912v.97h-3.999v-.97zm-2.6455-1.798h1.2647v7.362c0 .251.0387.44.1162.567.0775.128.1777.212.3008.253.123.041.2552.062.3965.062.1048 0 .2141-.009.3281-.028.1185-.022.2073-.041.2666-.054l.0068 1.032c-.1002.032-.2324.062-.3965.089-.1595.032-.3532.048-.581.048-.3099 0-.5948-.062-.8545-.185-.2598-.123-.4671-.328-.6221-.615-.1504-.292-.2256-.684-.2256-1.176zm7.1983 9.331c-.515 0-.9821-.087-1.4014-.26-.4147-.178-.7725-.426-1.0732-.745-.2963-.319-.5241-.697-.6836-1.135-.1595-.437-.2393-.916-.2393-1.435v-.288c0-.601.0889-1.137.2666-1.606.1777-.474.4193-.875.7246-1.203.3054-.328.6517-.577 1.0391-.745.3874-.169.7884-.253 1.2031-.253.5287 0 .9844.091 1.3672.273.3874.183.7041.438.9502.766.2461.323.4284.706.5469 1.148.1185.438.1777.916.1777 1.436v.567h-5.5234v-1.032h4.2588v-.096c-.0183-.328-.0866-.647-.2051-.957-.114-.31-.2963-.565-.5469-.765-.2507-.201-.5925-.301-1.0254-.301-.2871 0-.5514.061-.793.184-.2415.119-.4489.297-.622.534-.1732.237-.3076.526-.4034.868-.0957.342-.1435.736-.1435 1.182v.288c0 .35.0478.681.1435.991.1003.305.2439.574.4307.806.1914.233.4216.415.6904.547.2735.132.5834.198.9297.198.4466 0 .8249-.091 1.1348-.273s.581-.426.8135-.731l.7656.608c-.1595.242-.3623.472-.6084.69-.2461.219-.5492.397-.9092.534-.3555.136-.777.205-1.2646.205z" fill="#fff"/><rect fill="#51354f" height="17" rx="8.5" transform="matrix(-1 0 0 1 331 107)" width="242"/></g></svg>