<svg fill="none" height="290" viewBox="0 0 481 290" width="481" xmlns="http://www.w3.org/2000/svg" xmlns:xlink="http://www.w3.org/1999/xlink"><filter id="a" color-interpolation-filters="sRGB" filterUnits="userSpaceOnUse" height="52" width="52" x="18" y="154"><feFlood flood-opacity="0" result="BackgroundImageFix"/><feBlend in="SourceGraphic" in2="BackgroundImageFix" mode="normal" result="shape"/><feGaussianBlur result="effect1_foregroundBlur_15000_120353" stdDeviation="7.5"/></filter><filter id="b" color-interpolation-filters="sRGB" filterUnits="userSpaceOnUse" height="80" width="416" x="28" y="58"><feFlood flood-opacity="0" result="BackgroundImageFix"/><feColorMatrix in="SourceAlpha" result="hardAlpha" type="matrix" values="0 0 0 0 0 0 0 0 0 0 0 0 0 0 0 0 0 0 127 0"/><feOffset dx="10" dy="4"/><feGaussianBlur stdDeviation="6"/><feComposite in2="hardAlpha" operator="out"/><feColorMatrix type="matrix" values="0 0 0 0 0.317647 0 0 0 0 0.207843 0 0 0 0 0.309804 0 0 0 1 0"/><feBlend in2="BackgroundImageFix" mode="normal" result="effect1_dropShadow_15000_120353"/><feBlend in="SourceGraphic" in2="effect1_dropShadow_15000_120353" mode="normal" result="shape"/></filter><filter id="c" color-interpolation-filters="sRGB" filterUnits="userSpaceOnUse" height="348" width="438.62" x="-119.539" y="127"><feFlood flood-opacity="0" result="BackgroundImageFix"/><feColorMatrix in="SourceAlpha" result="hardAlpha" type="matrix" values="0 0 0 0 0 0 0 0 0 0 0 0 0 0 0 0 0 0 127 0"/><feOffset dy="60"/><feGaussianBlur stdDeviation="75"/><feColorMatrix type="matrix" values="0 0 0 0 0.890196 0 0 0 0 0.341176 0 0 0 0 0.376471 0 0 0 0.62 0"/><feBlend in2="BackgroundImageFix" mode="normal" result="effect1_dropShadow_15000_120353"/><feColorMatrix in="SourceAlpha" result="hardAlpha" type="matrix" values="0 0 0 0 0 0 0 0 0 0 0 0 0 0 0 0 0 0 127 0"/><feOffset dy="4"/><feGaussianBlur stdDeviation="25"/><feColorMatrix type="matrix" values="0 0 0 0 0.890196 0 0 0 0 0.341176 0 0 0 0 0.376471 0 0 0 0.5 0"/><feBlend in2="effect1_dropShadow_15000_120353" mode="normal" result="effect2_dropShadow_15000_120353"/><feColorMatrix in="SourceAlpha" result="hardAlpha" type="matrix" values="0 0 0 0 0 0 0 0 0 0 0 0 0 0 0 0 0 0 127 0"/><feOffset dy="4"/><feGaussianBlur stdDeviation="15"/><feColorMatrix type="matrix" values="0 0 0 0 0 0 0 0 0 0 0 0 0 0 0 0 0 0 0.2 0"/><feBlend in2="effect2_dropShadow_15000_120353" mode="normal" result="effect3_dropShadow_15000_120353"/><feBlend in="SourceGraphic" in2="effect3_dropShadow_15000_120353" mode="normal" result="shape"/></filter><filter id="d" color-interpolation-filters="sRGB" filterUnits="userSpaceOnUse" height="155.734" width="296.67" x="181.884" y="91.7827"><feFlood flood-opacity="0" result="BackgroundImageFix"/><feBlend in="SourceGraphic" in2="BackgroundImageFix" mode="normal" result="shape"/><feGaussianBlur result="effect1_foregroundBlur_15000_120353" stdDeviation="1"/></filter><filter id="e" color-interpolation-filters="sRGB" filterUnits="userSpaceOnUse" height="86" width="86" x="351" y="6"><feFlood flood-opacity="0" result="BackgroundImageFix"/><feBlend in="SourceGraphic" in2="BackgroundImageFix" mode="normal" result="shape"/><feGaussianBlur result="effect1_foregroundBlur_15000_120353" stdDeviation="7.5"/></filter><linearGradient id="f" gradientUnits="userSpaceOnUse" x1="332.959" x2="318.636" y1="80.4448" y2="-46.1416"><stop offset=".31" stop-color="#e35760"/><stop offset="1" stop-color="#302634"/></linearGradient><radialGradient id="g" cx="0" cy="0" gradientTransform="matrix(0 124.5 -226 0 226 165.5)" gradientUnits="userSpaceOnUse" r="1"><stop offset="0" stop-color="#81557e"/><stop offset="1" stop-color="#36293b"/></radialGradient><clipPath id="h"><path d="m0 0h481v290h-481z"/></clipPath><clipPath id="i"><path d="m0 41h452v249h-452z"/></clipPath><mask id="j" fill="#fff"><path d="m0 57c0-8.8366 7.16344-16 16-16h420c8.837 0 16 7.1634 16 16v217c0 8.837-7.163 16-16 16h-420c-8.83655 0-16-7.163-16-16z" fill="#fff"/></mask><g clip-path="url(#h)"><g fill="url(#f)"><path d="m23.6845 10.8957-11.4863 38.4359h-12.1982l17.3104-48.663151h7.733zm9.5126 38.4359-11.5187-38.4359-1.4884-10.227251h7.8302l17.4074 48.663151zm-.453-18.1484v9.0574h-24.1698v-9.0574z"/><path d="m67.1759 49.3316h-10.4509l.0647-9.0241h10.3862c2.1571 0 3.9798-.5348 5.4681-1.6043 1.51-1.0695 2.6532-2.6626 3.4298-4.7794.7981-2.139 1.1971-4.7683 1.1971-7.8877v-2.1056c0-2.3396-.2265-4.3895-.6795-6.1498-.4314-1.7825-1.0785-3.2642-1.9413-4.4451-.8628-1.2032-1.9414-2.1057-3.2356-2.7073-1.2727-.6016-2.7394-.90236-4.4004-.90236h-10.4833v-9.057491h10.4833c3.1925 0 6.1153.568181 8.7684 1.704541 2.6748 1.11409 4.9828 2.71836 6.9242 4.81284 1.9629 2.07219 3.4729 4.53427 4.5298 7.38637 1.0785 2.8298 1.6178 5.9715 1.6178 9.4251v2.0388c0 3.4314-.5393 6.5731-1.6178 9.4251-1.0569 2.8521-2.5561 5.3142-4.4974 7.3864-1.9414 2.0722-4.2387 3.6765-6.8918 4.8128-2.6316 1.1141-5.5221 1.6712-8.6714 1.6712zm-3.9474-48.663151v48.663151h-11.3569v-48.663151z"/><path d="m113.062 49.3316h-10.451l.064-9.0241h10.387c2.157 0 3.979-.5348 5.468-1.6043 1.51-1.0695 2.653-2.6626 3.43-4.7794.798-2.139 1.197-4.7683 1.197-7.8877v-2.1056c0-2.3396-.227-4.3895-.68-6.1498-.431-1.7825-1.078-3.2642-1.941-4.4451-.863-1.2032-1.941-2.1057-3.236-2.7073-1.272-.6016-2.739-.90236-4.4-.90236h-10.483v-9.057491h10.483c3.192 0 6.115.568181 8.768 1.704541 2.675 1.11409 4.983 2.71836 6.924 4.81284 1.963 2.07219 3.473 4.53427 4.53 7.38637 1.079 2.8298 1.618 5.9715 1.618 9.4251v2.0388c0 3.4314-.539 6.5731-1.618 9.4251-1.057 2.8521-2.556 5.3142-4.497 7.3864-1.942 2.0722-4.239 3.6765-6.892 4.8128-2.632 1.1141-5.522 1.6712-8.671 1.6712zm-3.948-48.663151v48.663151h-11.3567v-48.663151z"/><path d="m143.643.668449h18.54c3.624 0 6.773.557041 9.448 1.671121s4.735 2.76293 6.18 4.94653c1.467 2.1836 2.2 4.8797 2.2 8.0882 0 2.7852-.421 5.1137-1.262 6.9853-.841 1.8717-2.017 3.4203-3.527 4.6457-1.488 1.2033-3.224 2.1948-5.209 2.9746l-3.721 2.1725h-15.563l-.065-9.0575h11.519c1.445 0 2.642-.2674 3.591-.8021.95-.5348 1.661-1.2924 2.136-2.2727.496-1.0027.744-2.1948.744-3.5762 0-1.4038-.248-2.607-.744-3.6097-.496-1.0026-1.23-1.7714-2.2-2.3061-.949-.53478-2.125-.80216-3.527-.80216h-7.183v39.60566h-11.357zm25.788 48.663151-10.419-21.5241 12.036-.0669 10.548 21.0896v.5014z"/><path d="m222.273 40.3075v9.0241h-25.108v-9.0241zm-21.064-39.639051v48.663151h-11.357v-48.663151zm17.828 19.318151v8.7233h-21.872v-8.7233zm3.333-19.318151v9.057491h-25.205v-9.057491z"/><path d="m254.181 36.3971c0-.7576-.108-1.4372-.324-2.0388-.215-.6239-.614-1.2032-1.197-1.738-.582-.5347-1.423-1.0695-2.523-1.6043-1.079-.557-2.503-1.1363-4.271-1.7379-2.071-.713-4.067-1.5152-5.986-2.4064-1.92-.9136-3.635-1.972-5.145-3.1752-1.51-1.2255-2.707-2.6515-3.591-4.2781-.885-1.6488-1.327-3.565-1.327-5.7486 0-2.0945.453-3.97729 1.359-5.64841.906-1.6934 2.168-3.13057 3.786-4.3115 1.639-1.20321 3.559-2.11675 5.759-2.740639 2.2-.646167 4.605-.969251 7.215-.969251 3.452 0 6.493.623886 9.125 1.87166 2.653 1.22549 4.724 2.9746 6.212 5.24732 1.51 2.25045 2.265 4.91312 2.265 7.98802h-11.292c0-1.2255-.248-2.3062-.744-3.242-.475-.9359-1.198-1.6711-2.168-2.20591-.971-.53476-2.19-.80214-3.657-.80214-1.423 0-2.62.22282-3.591.66845s-1.704 1.0472-2.2 1.8048c-.496.7353-.744 1.5486-.744 2.4399 0 .7352.194 1.4037.582 2.0053.41.5793.981 1.1252 1.715 1.6377.755.5125 1.661 1.0027 2.718 1.4706 1.078.4679 2.286.9247 3.624 1.3703 2.502.8244 4.724 1.7491 6.665 2.7741 1.963 1.0026 3.613 2.1502 4.95 3.4425 1.359 1.27 2.384 2.7183 3.074 4.3449.712 1.6266 1.068 3.4648 1.068 5.5147 0 2.1836-.41 4.1221-1.23 5.8155-.819 1.6934-1.995 3.1306-3.526 4.3115-1.532 1.1587-3.365 2.0388-5.501 2.6404-2.135.6016-4.519.9024-7.151.9024-2.415 0-4.799-.3119-7.15-.9358-2.33-.6462-4.444-1.6266-6.342-2.9412-1.898-1.3369-3.419-3.0414-4.562-5.1136-1.122-2.0945-1.683-4.5789-1.683-7.4533h11.39c0 1.4261.183 2.6293.55 3.6097.366.9804.906 1.7714 1.617 2.373.712.5793 1.586 1.0026 2.621 1.27 1.036.2451 2.222.3677 3.559.3677 1.446 0 2.61-.2117 3.495-.6351.884-.4456 1.531-1.0249 1.941-1.7379.41-.7353.615-1.5375.615-2.4064z"/><path d="m298.643 36.3971c0-.7576-.108-1.4372-.323-2.0388-.216-.6239-.615-1.2032-1.198-1.738-.582-.5347-1.423-1.0695-2.523-1.6043-1.079-.557-2.503-1.1363-4.271-1.7379-2.071-.713-4.066-1.5152-5.986-2.4064-1.92-.9136-3.635-1.972-5.145-3.1752-1.51-1.2255-2.707-2.6515-3.591-4.2781-.885-1.6488-1.327-3.565-1.327-5.7486 0-2.0945.453-3.97729 1.359-5.64841.906-1.6934 2.168-3.13057 3.786-4.3115 1.639-1.20321 3.559-2.11675 5.759-2.740639 2.2-.646167 4.605-.969251 7.215-.969251 3.452 0 6.493.623886 9.125 1.87166 2.653 1.22549 4.724 2.9746 6.212 5.24732 1.51 2.25045 2.265 4.91312 2.265 7.98802h-11.292c0-1.2255-.248-2.3062-.744-3.242-.475-.9359-1.198-1.6711-2.168-2.20591-.971-.53476-2.19-.80214-3.656-.80214-1.424 0-2.621.22282-3.592.66845s-1.704 1.0472-2.2 1.8048c-.496.7353-.744 1.5486-.744 2.4399 0 .7352.194 1.4037.582 2.0053.41.5793.982 1.1252 1.715 1.6377.755.5125 1.661 1.0027 2.718 1.4706 1.078.4679 2.286.9247 3.624 1.3703 2.502.8244 4.724 1.7491 6.665 2.7741 1.963 1.0026 3.613 2.1502 4.95 3.4425 1.359 1.27 2.384 2.7183 3.074 4.3449.712 1.6266 1.068 3.4648 1.068 5.5147 0 2.1836-.41 4.1221-1.23 5.8155-.819 1.6934-1.995 3.1306-3.526 4.3115-1.532 1.1587-3.365 2.0388-5.501 2.6404-2.135.6016-4.519.9024-7.15.9024-2.416 0-4.8-.3119-7.151-.9358-2.33-.6462-4.444-1.6266-6.342-2.9412-1.898-1.3369-3.419-3.0414-4.562-5.1136-1.122-2.0945-1.683-4.5789-1.683-7.4533h11.39c0 1.4261.183 2.6293.55 3.6097s.906 1.7714 1.618 2.373c.711.5793 1.585 1.0026 2.62 1.27 1.036.2451 2.222.3677 3.56.3677 1.445 0 2.61-.2117 3.494-.6351.884-.4456 1.532-1.0249 1.941-1.7379.41-.7353.615-1.5375.615-2.4064z"/></g><g clip-path="url(#i)"><path d="m0 57c0-8.8366 7.16344-16 16-16h420c8.837 0 16 7.1634 16 16v217c0 8.837-7.163 16-16 16h-420c-8.83655 0-16-7.163-16-16z" fill="url(#g)"/><path d="m0 41h452zm460 233c0 13.255-10.745 24-24 24h-412c-13.2548 0-24-10.745-24-24 0 4.418 7.16344 8 16 8h420c4.418 0 8-3.582 8-8zm-460 16v-249zm436-249c13.255 0 24 10.7452 24 24v209c0 13.255-10.745 24-24 24v-16c4.418 0 8-3.582 8-8v-217c0-8.8366-3.582-16-8-16z" fill="#231d28" mask="url(#j)"/><rect fill="#ff626e" height="18" rx="2" width="18" x="35" y="169"/><path d="m63.5703 173.047v9.953h-1.3193v-9.953zm10.042 8.688v-3.807c0-.292-.0592-.545-.1777-.759-.114-.219-.2871-.387-.5196-.506-.2324-.118-.5195-.178-.8613-.178-.319 0-.5993.055-.8408.164-.237.11-.4238.253-.5606.431-.1321.178-.1982.369-.1982.574h-1.2646c0-.264.0683-.526.205-.786s.3327-.494.5879-.704c.2598-.214.5697-.383.9297-.506.3646-.127.7702-.191 1.2168-.191.5378 0 1.0117.091 1.4219.273.4147.183.7383.458.9707.827.237.365.3555.823.3555 1.374v3.446c0 .246.0205.508.0615.786.0455.278.1116.517.1982.718v.109h-1.3193c-.0638-.146-.1139-.34-.1504-.581-.0365-.246-.0547-.474-.0547-.684zm.2188-3.219.0136.888h-1.2783c-.36 0-.6813.03-.9639.089-.2825.055-.5195.139-.7109.253s-.3372.258-.4375.431c-.1003.168-.1504.367-.1504.594 0 .233.0524.445.1572.636.1049.192.2621.344.4717.458.2142.11.4763.164.7862.164.3873 0 .7291-.082 1.0253-.246.2963-.164.531-.364.7041-.601.1778-.237.2735-.467.2872-.691l.54.609c-.0319.191-.1185.403-.2598.635-.1413.233-.3304.456-.5674.67-.2324.21-.5104.385-.8339.527-.3191.136-.6791.205-1.0801.205-.5013 0-.9411-.098-1.3194-.294-.3737-.196-.6653-.458-.875-.786-.205-.333-.3076-.704-.3076-1.115 0-.396.0775-.745.2324-1.046.155-.305.3783-.558.67-.758.2916-.205.6425-.36 1.0527-.465s.8682-.157 1.374-.157zm5.9951 3.582c.3008 0 .5787-.062.834-.185.2552-.123.4648-.292.6289-.506.164-.219.2574-.467.2802-.745h1.2032c-.0228.438-.1709.845-.4444 1.224-.2689.373-.622.676-1.0595.909-.4375.228-.9183.342-1.4424.342-.556 0-1.0414-.098-1.4561-.294-.4101-.196-.7519-.465-1.0254-.807-.2689-.342-.4717-.734-.6084-1.176-.1321-.446-.1982-.918-.1982-1.415v-.287c0-.497.0661-.966.1982-1.408.1367-.447.3395-.841.6084-1.183.2735-.341.6153-.61 1.0254-.806.4147-.196.9001-.294 1.4561-.294.5787 0 1.0846.118 1.5176.355.4329.233.7724.552 1.0185.957.2507.401.3874.857.4102 1.367h-1.2032c-.0228-.305-.1093-.581-.2597-.827-.1459-.246-.3464-.442-.6016-.588-.2506-.15-.5446-.225-.8818-.225-.3874 0-.7132.077-.9776.232-.2597.151-.4671.356-.622.616-.1504.255-.2598.54-.3282.854-.0638.31-.0957.627-.0957.95v.287c0 .324.0319.643.0957.957.0638.315.1709.6.3213.855.155.255.3623.46.6221.615.2643.15.5924.226.9844.226zm7.3281 0c.3008 0 .5788-.062.834-.185s.4648-.292.6289-.506c.164-.219.2575-.467.2803-.745h1.2031c-.0228.438-.1709.845-.4444 1.224-.2688.373-.622.676-1.0595.909-.4375.228-.9183.342-1.4424.342-.556 0-1.0413-.098-1.4561-.294-.4101-.196-.7519-.465-1.0253-.807-.2689-.342-.4717-.734-.6084-1.176-.1322-.446-.1983-.918-.1983-1.415v-.287c0-.497.0661-.966.1983-1.408.1367-.447.3395-.841.6084-1.183.2734-.341.6152-.61 1.0253-.806.4148-.196.9001-.294 1.4561-.294.5788 0 1.0846.118 1.5176.355.4329.233.7724.552 1.0185.957.2507.401.3874.857.4102 1.367h-1.2031c-.0228-.305-.1094-.581-.2598-.827-.1458-.246-.3464-.442-.6016-.588-.2506-.15-.5446-.225-.8818-.225-.3874 0-.7132.077-.9775.232-.2598.151-.4672.356-.6221.616-.1504.255-.2598.54-.3281.854-.0638.31-.0957.627-.0957.95v.287c0 .324.0319.643.0957.957.0638.315.1709.6.3213.855.1549.255.3623.46.622.615.2643.15.5925.226.9844.226zm7.4375 1.039c-.515 0-.9821-.087-1.4014-.26-.4147-.178-.7724-.426-1.0732-.745-.2962-.319-.5241-.697-.6836-1.135-.1595-.437-.2393-.916-.2393-1.435v-.288c0-.601.0889-1.137.2666-1.606.1778-.474.4193-.875.7246-1.203.3054-.328.6517-.577 1.0391-.745.3874-.169.7884-.253 1.2031-.253.5287 0 .9844.091 1.3672.273.3874.183.7041.438.9502.766.2461.323.4284.706.5469 1.148.1185.438.1777.916.1777 1.436v.567h-5.5234v-1.032h4.2588v-.096c-.0183-.328-.0866-.647-.2051-.957-.1139-.31-.2962-.565-.5469-.765-.2506-.201-.5924-.301-1.0254-.301-.2871 0-.5514.061-.7929.184-.2416.119-.4489.297-.6221.534s-.3076.526-.4033.868-.1436.736-.1436 1.182v.288c0 .35.0479.681.1436.991.1002.305.2438.574.4306.806.1914.233.4216.415.6905.547.2734.132.5833.198.9297.198.4466 0 .8248-.091 1.1347-.273s.5811-.426.8135-.731l.7656.608c-.1595.242-.3623.472-.6084.69-.2461.219-.5491.397-.9092.534-.3554.136-.777.205-1.2646.205zm5.6192-6.112v8.819h-1.2715v-10.24h1.1625zm4.983 2.215v.144c0 .538-.063 1.037-.191 1.497-.128.456-.315.852-.561 1.189-.241.338-.54.6-.895.786-.356.187-.763.281-1.224.281-.469 0-.884-.078-1.244-.233s-.665-.38-.916-.676c-.2506-.297-.4511-.652-.6015-1.067-.1458-.415-.2461-.882-.3008-1.401v-.766c.0547-.547.1573-1.037.3077-1.47s.3486-.802.5946-1.107c.251-.31.554-.545.909-.704.356-.164.766-.246 1.231-.246s.877.091 1.237.273c.36.178.663.433.909.766s.431.731.554 1.196c.128.46.191.973.191 1.538zm-1.271.144v-.144c0-.369-.039-.715-.116-1.039-.078-.328-.199-.615-.363-.861-.159-.251-.364-.447-.615-.588-.251-.146-.549-.219-.895-.219-.319 0-.597.055-.834.164-.233.11-.431.258-.595.445-.164.182-.299.392-.403.629-.101.232-.1759.473-.226.724v1.771c.0911.319.219.619.383.902.164.278.383.504.656.677.273.168.618.253 1.032.253.342 0 .636-.071.882-.212.251-.146.456-.344.615-.595.164-.251.285-.538.363-.861.077-.328.116-.677.116-1.046zm5.981-3.78v.97h-3.999v-.97zm-2.645-1.798h1.264v7.362c0 .251.039.44.117.567.077.128.177.212.3.253s.256.062.397.062c.105 0 .214-.009.328-.028.119-.022.207-.041.267-.054l.006 1.032c-.1.032-.232.062-.396.089-.16.032-.353.048-.581.048-.31 0-.595-.062-.855-.185-.259-.123-.467-.328-.622-.615-.15-.292-.225-.684-.225-1.176zm10.698 1.798v.97h-3.999v-.97zm-2.645-1.798h1.264v7.362c0 .251.039.44.116.567.078.128.178.212.301.253s.255.062.397.062c.104 0 .214-.009.328-.028.118-.022.207-.041.266-.054l.007 1.032c-.1.032-.232.062-.396.089-.16.032-.353.048-.581.048-.31 0-.595-.062-.855-.185s-.467-.328-.622-.615c-.15-.292-.225-.684-.225-1.176zm5.393-1.306v10.5h-1.265v-10.5zm-.301 6.521-.526-.02c.004-.506.08-.973.226-1.401.145-.433.35-.809.615-1.128.264-.319.579-.565.943-.739.369-.177.777-.266 1.224-.266.364 0 .692.05.984.15.292.096.54.251.745.465.21.214.369.492.479.834.109.337.164.75.164 1.237v4.847h-1.272v-4.86c0-.388-.057-.698-.171-.93-.114-.237-.28-.408-.499-.513-.218-.109-.487-.164-.806-.164-.315 0-.602.066-.862.198-.255.133-.476.315-.663.547-.182.233-.325.499-.43.8-.101.296-.151.611-.151.943zm9.817 4.116c-.515 0-.982-.087-1.402-.26-.414-.178-.772-.426-1.073-.745-.296-.319-.524-.697-.684-1.135-.159-.437-.239-.916-.239-1.435v-.288c0-.601.089-1.137.267-1.606.178-.474.419-.875.724-1.203.306-.328.652-.577 1.04-.745.387-.169.788-.253 1.203-.253.528 0 .984.091 1.367.273.387.183.704.438.95.766.246.323.428.706.547 1.148.118.438.178.916.178 1.436v.567h-5.524v-1.032h4.259v-.096c-.018-.328-.087-.647-.205-.957-.114-.31-.296-.565-.547-.765-.251-.201-.592-.301-1.025-.301-.287 0-.552.061-.793.184-.242.119-.449.297-.622.534-.174.237-.308.526-.404.868-.095.342-.143.736-.143 1.182v.288c0 .35.048.681.143.991.101.305.244.574.431.806.191.233.421.415.69.547.274.132.584.198.93.198.447 0 .825-.091 1.135-.273s.581-.426.813-.731l.766.608c-.16.242-.362.472-.608.69-.247.219-.55.397-.91.534-.355.136-.777.205-1.264.205zm11.696-10.09v9.953h-1.299v-9.953zm3.199 0v1.08h-7.69v-1.08zm3.671 10.09c-.515 0-.982-.087-1.401-.26-.415-.178-.773-.426-1.074-.745-.296-.319-.524-.697-.683-1.135-.16-.437-.239-.916-.239-1.435v-.288c0-.601.089-1.137.266-1.606.178-.474.42-.875.725-1.203s.652-.577 1.039-.745c.387-.169.788-.253 1.203-.253.529 0 .984.091 1.367.273.388.183.704.438.95.766.247.323.429.706.547 1.148.119.438.178.916.178 1.436v.567h-5.523v-1.032h4.258v-.096c-.018-.328-.086-.647-.205-.957-.114-.31-.296-.565-.547-.765-.25-.201-.592-.301-1.025-.301-.287 0-.551.061-.793.184-.241.119-.449.297-.622.534s-.308.526-.403.868c-.096.342-.144.736-.144 1.182v.288c0 .35.048.681.144.991.1.305.244.574.43.806.192.233.422.415.691.547.273.132.583.198.929.198.447 0 .825-.091 1.135-.273s.581-.426.814-.731l.765.608c-.159.242-.362.472-.608.69-.246.219-.549.397-.909.534-.356.136-.777.205-1.265.205zm5.619-6.371v6.234h-1.264v-7.396h1.23zm2.311-1.204-.007 1.176c-.105-.023-.205-.036-.301-.041-.091-.009-.196-.013-.314-.013-.292 0-.549.045-.773.136-.223.091-.412.219-.567.383s-.278.36-.369.588c-.087.223-.144.469-.171.738l-.356.205c0-.446.044-.866.13-1.257.091-.392.23-.739.417-1.039.187-.306.424-.543.711-.711.292-.174.638-.26 1.039-.26.091 0 .196.011.315.034.118.018.2.039.246.061zm2.427 1.511v5.927h-1.272v-7.396h1.203zm-.26 1.948-.588-.02c.004-.506.071-.973.198-1.401.128-.433.317-.809.568-1.128.25-.319.562-.565.936-.739.374-.177.807-.266 1.299-.266.346 0 .665.05.957.15.292.096.545.249.759.458.214.21.38.479.499.807.118.328.177.724.177 1.189v4.929h-1.264v-4.867c0-.388-.066-.697-.198-.93-.128-.232-.31-.401-.547-.506-.237-.109-.515-.164-.834-.164-.374 0-.686.066-.937.198-.25.133-.451.315-.601.547-.151.233-.26.499-.329.8-.063.296-.095.611-.095.943zm4.792-.697-.848.26c.005-.406.071-.795.198-1.169.133-.374.322-.706.568-.998.25-.292.558-.522.923-.69.364-.174.781-.26 1.251-.26.396 0 .747.052 1.052.157.31.105.57.267.78.485.214.215.376.49.485.828.109.337.164.738.164 1.203v4.86h-1.271v-4.874c0-.415-.067-.736-.199-.964-.127-.232-.31-.394-.547-.485-.232-.096-.51-.144-.834-.144-.278 0-.524.048-.738.144-.214.095-.394.228-.54.396-.146.164-.257.353-.335.568-.073.214-.109.442-.109.683zm10.794 2.714c0-.182-.041-.351-.123-.506-.078-.159-.24-.303-.486-.43-.241-.133-.606-.247-1.093-.342-.411-.087-.782-.189-1.115-.308-.328-.118-.608-.262-.841-.431-.227-.168-.403-.366-.526-.594s-.184-.495-.184-.8c0-.292.063-.567.191-.827.132-.26.317-.49.554-.691.241-.2.531-.357.868-.471s.713-.171 1.128-.171c.592 0 1.098.105 1.517.314.42.21.741.49.964.841.224.346.335.732.335 1.155h-1.264c0-.205-.062-.403-.185-.594-.119-.196-.294-.358-.526-.486-.228-.127-.509-.191-.841-.191-.351 0-.636.055-.855.164-.214.105-.371.239-.471.403-.096.164-.144.337-.144.52 0 .136.023.26.068.369.051.105.137.203.26.294.123.086.296.168.52.246.223.077.508.155.854.232.606.137 1.105.301 1.497.493.392.191.684.426.875.704.192.278.287.615.287 1.011 0 .324-.068.62-.205.889-.132.269-.326.501-.581.697-.25.192-.551.342-.902.451-.346.105-.736.158-1.169.158-.652 0-1.203-.116-1.654-.349-.452-.232-.793-.533-1.026-.902-.232-.369-.348-.759-.348-1.169h1.271c.018.346.119.622.301.827.182.2.405.344.67.431.264.082.526.123.786.123.346 0 .636-.046.868-.137.237-.091.417-.217.54-.376.123-.16.185-.342.185-.547zm6.063-1.654v-.157c0-.534.078-1.028.233-1.484.155-.46.378-.859.67-1.196.291-.342.644-.606 1.059-.793.415-.192.88-.287 1.395-.287.519 0 .986.095 1.401.287.419.187.775.451 1.066.793.297.337.522.736.677 1.196.155.456.233.95.233 1.484v.157c0 .533-.078 1.027-.233 1.483s-.38.855-.677 1.196c-.291.338-.644.602-1.059.793-.41.187-.875.281-1.395.281-.519 0-.986-.094-1.401-.281-.415-.191-.77-.455-1.066-.793-.292-.341-.515-.74-.67-1.196s-.233-.95-.233-1.483zm1.265-.157v.157c0 .369.043.718.13 1.046.086.323.216.61.389.861.178.251.399.449.663.595.265.141.572.212.923.212.347 0 .65-.071.909-.212.265-.146.484-.344.657-.595s.303-.538.389-.861c.092-.328.137-.677.137-1.046v-.157c0-.365-.045-.709-.137-1.033-.086-.328-.218-.617-.396-.868-.173-.255-.392-.456-.656-.601-.26-.146-.565-.219-.916-.219-.347 0-.652.073-.916.219-.26.145-.479.346-.657.601-.173.251-.303.54-.389.868-.087.324-.13.668-.13 1.033zm8.941 3.773h-1.264v-8.176c0-.533.095-.982.287-1.346.196-.37.476-.648.841-.834.364-.192.797-.288 1.298-.288.146 0 .292.01.438.028.15.018.296.045.437.082l-.068 1.032c-.096-.023-.205-.039-.328-.048-.119-.009-.237-.013-.356-.013-.268 0-.501.054-.697.164-.191.104-.337.259-.437.464-.101.206-.151.458-.151.759zm1.573-7.396v.97h-4.006v-.97zm10.766-2.557h1.313v6.733c0 .748-.167 1.37-.499 1.866-.333.497-.775.871-1.327 1.122-.546.246-1.141.369-1.784.369-.674 0-1.285-.123-1.832-.369-.542-.251-.973-.625-1.292-1.122-.314-.496-.471-1.118-.471-1.866v-6.733h1.305v6.733c0 .52.096.948.287 1.285.192.338.458.588.8.752.346.164.748.246 1.203.246.461 0 .862-.082 1.203-.246.347-.164.616-.414.807-.752.191-.337.287-.765.287-1.285zm7.499 7.991c0-.182-.041-.351-.123-.506-.077-.159-.239-.303-.485-.43-.242-.133-.606-.247-1.094-.342-.41-.087-.782-.189-1.114-.308-.328-.118-.609-.262-.841-.431-.228-.168-.403-.366-.526-.594s-.185-.495-.185-.8c0-.292.064-.567.191-.827.133-.26.317-.49.554-.691.242-.2.531-.357.868-.471.338-.114.713-.171 1.128-.171.593 0 1.099.105 1.518.314.419.21.74.49.964.841.223.346.335.732.335 1.155h-1.265c0-.205-.062-.403-.185-.594-.118-.196-.294-.358-.526-.486-.228-.127-.508-.191-.841-.191-.351 0-.636.055-.854.164-.214.105-.372.239-.472.403-.096.164-.144.337-.144.52 0 .136.023.26.069.369.05.105.137.203.26.294.123.086.296.168.519.246.223.077.508.155.855.232.606.137 1.105.301 1.497.493.392.191.683.426.875.704.191.278.287.615.287 1.011 0 .324-.069.62-.205.889-.132.269-.326.501-.581.697-.251.192-.552.342-.903.451-.346.105-.736.158-1.169.158-.651 0-1.203-.116-1.654-.349-.451-.232-.793-.533-1.025-.902-.233-.369-.349-.759-.349-1.169h1.272c.018.346.118.622.3.827.183.2.406.344.67.431.265.082.527.123.786.123.347 0 .636-.046.869-.137.237-.091.417-.217.54-.376.123-.16.184-.342.184-.547zm5.995 2.099c-.515 0-.982-.087-1.401-.26-.415-.178-.773-.426-1.073-.745-.297-.319-.524-.697-.684-1.135-.159-.437-.239-.916-.239-1.435v-.288c0-.601.089-1.137.266-1.606.178-.474.42-.875.725-1.203s.652-.577 1.039-.745c.387-.169.788-.253 1.203-.253.529 0 .985.091 1.367.273.388.183.704.438.951.766.246.323.428.706.546 1.148.119.438.178.916.178 1.436v.567h-5.523v-1.032h4.259v-.096c-.019-.328-.087-.647-.206-.957-.113-.31-.296-.565-.546-.765-.251-.201-.593-.301-1.026-.301-.287 0-.551.061-.793.184-.241.119-.449.297-.622.534s-.307.526-.403.868-.144.736-.144 1.182v.288c0 .35.048.681.144.991.1.305.244.574.431.806.191.233.421.415.69.547.273.132.583.198.93.198.446 0 .824-.091 1.134-.273s.581-.426.814-.731l.765.608c-.159.242-.362.472-.608.69-.246.219-.549.397-.909.534-.356.136-.777.205-1.265.205zm12.189-1.402v-3.807c0-.292-.06-.545-.178-.759-.114-.219-.287-.387-.52-.506-.232-.118-.519-.178-.861-.178-.319 0-.599.055-.841.164-.237.11-.423.253-.56.431-.132.178-.198.369-.198.574h-1.265c0-.264.068-.526.205-.786s.333-.494.588-.704c.26-.214.57-.383.93-.506.364-.127.77-.191 1.216-.191.538 0 1.012.091 1.422.273.415.183.739.458.971.827.237.365.355.823.355 1.374v3.446c0 .246.021.508.062.786.045.278.112.517.198.718v.109h-1.319c-.064-.146-.114-.34-.151-.581-.036-.246-.054-.474-.054-.684zm.218-3.219.014.888h-1.278c-.36 0-.681.03-.964.089-.283.055-.52.139-.711.253s-.337.258-.437.431c-.101.168-.151.367-.151.594 0 .233.053.445.157.636.105.192.262.344.472.458.214.11.476.164.786.164.388 0 .729-.082 1.026-.246.296-.164.531-.364.704-.601.177-.237.273-.467.287-.691l.54.609c-.032.191-.119.403-.26.635-.141.233-.33.456-.567.67-.233.21-.511.385-.834.527-.319.136-.679.205-1.08.205-.502 0-.941-.098-1.32-.294-.373-.196-.665-.458-.875-.786-.205-.333-.307-.704-.307-1.115 0-.396.077-.745.232-1.046.155-.305.378-.558.67-.758.292-.205.643-.36 1.053-.465s.868-.157 1.374-.157zm4.3-1.333v5.817h-1.264v-7.396h1.196zm-.3 1.838-.527-.02c.005-.506.08-.973.226-1.401.146-.433.351-.809.615-1.128s.579-.565.943-.739c.369-.177.777-.266 1.224-.266.365 0 .693.05.984.15.292.096.54.251.745.465.21.214.37.492.479.834.109.337.164.75.164 1.237v4.847h-1.271v-4.86c0-.388-.057-.698-.171-.93-.114-.237-.281-.408-.499-.513-.219-.109-.488-.164-.807-.164-.314 0-.602.066-.861.198-.256.133-.477.315-.663.547-.183.233-.326.499-.431.8-.1.296-.15.611-.15.943zm11.436 2.543v-9.064h1.272v10.5h-1.163zm-4.977-2.18v-.144c0-.565.069-1.078.206-1.538.141-.465.339-.863.594-1.196.26-.333.568-.588.923-.766.36-.182.761-.273 1.203-.273.465 0 .871.082 1.217.246.351.159.647.394.889.704.246.305.44.674.581 1.107s.239.923.294 1.47v.629c-.05.542-.148 1.03-.294 1.463-.141.433-.335.802-.581 1.107-.242.306-.538.54-.889.704-.351.16-.761.24-1.23.24-.433 0-.83-.094-1.19-.281-.355-.186-.663-.448-.923-.786-.255-.337-.453-.733-.594-1.189-.137-.46-.206-.959-.206-1.497zm1.272-.144v.144c0 .369.036.715.109 1.039.078.323.196.608.356.854.159.246.362.44.608.581.246.137.54.205.882.205.419 0 .763-.088 1.032-.266.274-.178.492-.413.657-.704.164-.292.291-.609.382-.95v-1.648c-.054-.251-.134-.492-.239-.724-.1-.237-.232-.447-.396-.629-.16-.187-.358-.335-.595-.445-.233-.109-.508-.164-.827-.164-.347 0-.645.073-.896.219-.246.141-.449.337-.608.588-.16.246-.278.533-.356.861-.073.324-.109.67-.109 1.039zm14.28-.143h-2.659v-1.074h2.659c.515 0 .932-.082 1.251-.246s.552-.392.697-.683c.151-.292.226-.625.226-.998 0-.342-.075-.663-.226-.964-.145-.301-.378-.542-.697-.725-.319-.187-.736-.28-1.251-.28h-2.351v8.873h-1.32v-9.953h3.671c.752 0 1.388.13 1.907.39.52.259.914.619 1.183 1.08.269.455.403.977.403 1.565 0 .638-.134 1.183-.403 1.634s-.663.795-1.183 1.032c-.519.232-1.155.349-1.907.349zm6.235-2.331v6.234h-1.265v-7.396h1.23zm2.31-1.204-.007 1.176c-.104-.023-.205-.036-.3-.041-.092-.009-.196-.013-.315-.013-.292 0-.549.045-.772.136-.224.091-.413.219-.568.383s-.278.36-.369.588c-.086.223-.143.469-.171.738l-.355.205c0-.446.043-.866.13-1.257.091-.392.23-.739.417-1.039.186-.306.423-.543.711-.711.291-.174.638-.26 1.039-.26.091 0 .196.011.314.034.119.018.201.039.246.061zm2.543.042v7.396h-1.271v-7.396zm-1.367-1.962c0-.205.061-.379.185-.52.127-.141.314-.212.56-.212.242 0 .426.071.554.212.132.141.198.315.198.52 0 .196-.066.364-.198.505-.128.137-.312.206-.554.206-.246 0-.433-.069-.56-.206-.124-.141-.185-.309-.185-.505zm5.646 8.216 2.024-6.254h1.292l-2.659 7.396h-.848zm-1.688-6.254 2.085 6.289.143 1.107h-.847l-2.68-7.396zm10.473 6.131v-3.807c0-.292-.06-.545-.178-.759-.114-.219-.287-.387-.52-.506-.232-.118-.519-.178-.861-.178-.319 0-.599.055-.841.164-.237.11-.424.253-.56.431-.133.178-.199.369-.199.574h-1.264c0-.264.068-.526.205-.786s.333-.494.588-.704c.259-.214.569-.383.929-.506.365-.127.771-.191 1.217-.191.538 0 1.012.091 1.422.273.415.183.738.458.971.827.237.365.355.823.355 1.374v3.446c0 .246.021.508.062.786.045.278.111.517.198.718v.109h-1.319c-.064-.146-.114-.34-.151-.581-.036-.246-.054-.474-.054-.684zm.218-3.219.014.888h-1.278c-.36 0-.682.03-.964.089-.283.055-.52.139-.711.253-.192.114-.337.258-.438.431-.1.168-.15.367-.15.594 0 .233.052.445.157.636.105.192.262.344.472.458.214.11.476.164.786.164.387 0 .729-.082 1.025-.246.297-.164.531-.364.705-.601.177-.237.273-.467.287-.691l.54.609c-.032.191-.119.403-.26.635-.141.233-.33.456-.567.67-.233.21-.511.385-.834.527-.319.136-.679.205-1.081.205-.501 0-.941-.098-1.319-.294-.374-.196-.665-.458-.875-.786-.205-.333-.307-.704-.307-1.115 0-.396.077-.745.232-1.046.155-.305.378-.558.67-.758.292-.205.642-.36 1.053-.465.41-.105.868-.157 1.374-.157zm5.995 3.582c.301 0 .579-.062.834-.185.256-.123.465-.292.629-.506.164-.219.258-.467.281-.745h1.203c-.023.438-.171.845-.445 1.224-.268.373-.622.676-1.059.909-.438.228-.918.342-1.443.342-.556 0-1.041-.098-1.456-.294-.41-.196-.752-.465-1.025-.807-.269-.342-.472-.734-.608-1.176-.133-.446-.199-.918-.199-1.415v-.287c0-.497.066-.966.199-1.408.136-.447.339-.841.608-1.183.273-.341.615-.61 1.025-.806.415-.196.9-.294 1.456-.294.579 0 1.085.118 1.518.355.433.233.773.552 1.019.957.25.401.387.857.41 1.367h-1.203c-.023-.305-.11-.581-.26-.827-.146-.246-.346-.442-.602-.588-.25-.15-.544-.225-.882-.225-.387 0-.713.077-.977.232-.26.151-.467.356-.622.616-.151.255-.26.54-.328.854-.064.31-.096.627-.096.95v.287c0 .324.032.643.096.957.064.315.171.6.321.855.155.255.362.46.622.615.264.15.593.226.984.226zm6.447.136 2.057-6.63h1.354l-2.967 8.538c-.068.182-.159.378-.273.587-.11.215-.251.417-.424.609-.173.191-.383.346-.629.465-.242.123-.531.184-.868.184-.101 0-.228-.013-.383-.041-.155-.027-.264-.05-.328-.068l-.007-1.025c.036.004.093.009.171.013.082.009.139.014.171.014.287 0 .531-.039.731-.116.201-.073.369-.199.506-.376.141-.173.262-.413.362-.718zm-1.511-6.63 1.921 5.742.328 1.333-.909.465-2.721-7.54zm13.398 3.493h-2.659v-1.074h2.659c.515 0 .932-.082 1.251-.246s.552-.392.698-.683c.15-.292.225-.625.225-.998 0-.342-.075-.663-.225-.964-.146-.301-.379-.542-.698-.725-.319-.187-.736-.28-1.251-.28h-2.351v8.873h-1.319v-9.953h3.67c.752 0 1.388.13 1.908.39.519.259.913.619 1.182 1.08.269.455.404.977.404 1.565 0 .638-.135 1.183-.404 1.634s-.663.795-1.182 1.032c-.52.232-1.156.349-1.908.349zm4.54.287v-.157c0-.534.077-1.028.232-1.484.155-.46.378-.859.67-1.196.292-.342.645-.606 1.059-.793.415-.192.88-.287 1.395-.287.519 0 .987.095 1.401.287.42.187.775.451 1.067.793.296.337.522.736.676 1.196.155.456.233.95.233 1.484v.157c0 .533-.078 1.027-.233 1.483-.154.456-.38.855-.676 1.196-.292.338-.645.602-1.06.793-.41.187-.875.281-1.394.281-.52 0-.987-.094-1.402-.281-.414-.191-.77-.455-1.066-.793-.292-.341-.515-.74-.67-1.196s-.232-.95-.232-1.483zm1.264-.157v.157c0 .369.043.718.13 1.046.087.323.217.61.39.861.177.251.398.449.663.595.264.141.572.212.923.212.346 0 .649-.071.909-.212.264-.146.483-.344.656-.595s.303-.538.39-.861c.091-.328.136-.677.136-1.046v-.157c0-.365-.045-.709-.136-1.033-.087-.328-.219-.617-.397-.868-.173-.255-.392-.456-.656-.601-.26-.146-.565-.219-.916-.219-.346 0-.652.073-.916.219-.26.145-.479.346-.656.601-.173.251-.303.54-.39.868-.087.324-.13.668-.13 1.033zm8.429-6.727v10.5h-1.272v-10.5zm3.404 3.104v7.396h-1.271v-7.396zm-1.367-1.962c0-.205.062-.379.185-.52.127-.141.314-.212.56-.212.242 0 .426.071.554.212.132.141.198.315.198.52 0 .196-.066.364-.198.505-.128.137-.312.206-.554.206-.246 0-.433-.069-.56-.206-.123-.141-.185-.309-.185-.505zm6.357 8.456c.301 0 .579-.062.834-.185.256-.123.465-.292.629-.506.164-.219.258-.467.281-.745h1.203c-.023.438-.171.845-.445 1.224-.269.373-.622.676-1.059.909-.438.228-.919.342-1.443.342-.556 0-1.041-.098-1.456-.294-.41-.196-.752-.465-1.025-.807-.269-.342-.472-.734-.608-1.176-.133-.446-.199-.918-.199-1.415v-.287c0-.497.066-.966.199-1.408.136-.447.339-.841.608-1.183.273-.341.615-.61 1.025-.806.415-.196.9-.294 1.456-.294.579 0 1.085.118 1.518.355.433.233.772.552 1.019.957.25.401.387.857.41 1.367h-1.203c-.023-.305-.11-.581-.26-.827-.146-.246-.347-.442-.602-.588-.25-.15-.544-.225-.882-.225-.387 0-.713.077-.977.232-.26.151-.467.356-.622.616-.151.255-.26.54-.328.854-.064.31-.096.627-.096.95v.287c0 .324.032.643.096.957.063.315.171.6.321.855.155.255.362.46.622.615.264.15.592.226.984.226zm6.447.136 2.057-6.63h1.354l-2.967 8.538c-.068.182-.159.378-.273.587-.11.215-.251.417-.424.609-.173.191-.383.346-.629.465-.242.123-.531.184-.868.184-.101 0-.228-.013-.383-.041-.155-.027-.264-.05-.328-.068l-.007-1.025c.036.004.093.009.171.013.082.009.139.014.171.014.287 0 .531-.039.731-.116.201-.073.369-.199.506-.376.141-.173.262-.413.362-.718zm-1.511-6.63 1.921 5.742.328 1.333-.909.465-2.721-7.54z" fill="#fff"/><g filter="url(#a)"><rect fill="#ff4e55" height="22" rx="2" width="22" x="33" y="169"/></g><g filter="url(#b)"><rect fill="#27212b" height="56" rx="8" width="392" x="30" y="66"/><path d="m50.8262 94.0967h-2.6592v-1.0733h2.6592c.5149 0 .9319-.082 1.2509-.2461.3191-.164.5515-.3919.6973-.6835.1504-.2917.2256-.6244.2256-.9981 0-.3418-.0752-.6631-.2256-.9639-.1458-.3007-.3782-.5423-.6973-.7246-.319-.1868-.736-.2802-1.2509-.2802h-2.3516v8.873h-1.3193v-9.9531h3.6709c.7519 0 1.3877.1299 1.9072.3896.5195.2598.9137.6198 1.1826 1.0801.2689.4557.4033.9775.4033 1.5654 0 .6381-.1344 1.1826-.4033 1.6338s-.6631.7953-1.1826 1.0322c-.5195.2325-1.1553.3487-1.9072.3487zm6.2343-2.3311v6.2344h-1.2646v-7.3965h1.2305zm2.3106-1.2031-.0068 1.1758c-.1049-.0228-.2051-.0365-.3008-.041-.0912-.0091-.196-.0137-.3145-.0137-.2916 0-.5491.0456-.7724.1367-.2233.0912-.4125.2188-.5674.3828-.155.1641-.278.3601-.3692.5879-.0865.2233-.1435.4694-.1709.7383l-.3554.2051c0-.4466.0433-.8659.1299-1.2578.0911-.392.2301-.7383.4169-1.0391.1869-.3053.4239-.5423.711-.7109.2917-.1732.638-.2598 1.039-.2598.0912 0 .196.0114.3145.0342.1185.0182.2005.0387.2461.0615zm.6973 3.8213v-.1572c0-.5332.0774-1.0277.2324-1.4834.1549-.4603.3782-.8591.6699-1.1963.2917-.3418.6449-.6061 1.0596-.793.4147-.1914.8795-.2871 1.3945-.2871.5195 0 .9867.0957 1.4014.2871.4192.1869.7747.4512 1.0664.793.2962.3372.5218.736.6767 1.1963.155.4557.2325.9502.2325 1.4834v.1572c0 .5332-.0775 1.0277-.2325 1.4834-.1549.4557-.3805.8545-.6767 1.1963-.2917.3372-.6449.6015-1.0596.7929-.4101.1869-.875.2803-1.3945.2803-.5196 0-.9867-.0934-1.4014-.2803-.4147-.1914-.7702-.4557-1.0664-.7929-.2917-.3418-.515-.7406-.6699-1.1963-.155-.4557-.2324-.9502-.2324-1.4834zm1.2646-.1572v.1572c0 .3691.0433.7178.1299 1.0459.0866.3236.2165.6107.3896.8613.1778.2507.3988.4489.6631.5947.2643.1413.572.212.9229.212.3463 0 .6494-.0707.9092-.212.2643-.1458.483-.344.6562-.5947.1732-.2506.3031-.5377.3897-.8613.0911-.3281.1367-.6768.1367-1.0459v-.1572c0-.3646-.0456-.7087-.1367-1.0323-.0866-.3281-.2188-.6175-.3965-.8681-.1732-.2552-.392-.4558-.6563-.6016-.2597-.1458-.5651-.2187-.916-.2187-.3463 0-.6517.0729-.916.2187-.2598.1458-.4785.3464-.6563.6016-.1731.2506-.303.54-.3896.8681-.0866.3236-.1299.6677-.1299 1.0323zm9.1943 2.6318 2.0235-6.2549h1.292l-2.6592 7.3965h-.8477zm-1.6884-6.2549 2.0849 6.2891.1436 1.1074h-.8477l-2.6797-7.3965zm7.5947 0v7.3965h-1.2715v-7.3965zm-1.3672-1.9619c0-.2051.0615-.3783.1846-.5195.1276-.1413.3144-.2119.5605-.2119.2416 0 .4261.0706.5537.2119.1322.1412.1983.3144.1983.5195 0 .196-.0661.3646-.1983.5059-.1276.1367-.3121.205-.5537.205-.2461 0-.4329-.0683-.5605-.205-.1231-.1413-.1846-.3099-.1846-.5059zm8.0596 7.9229v-9.0645h1.2715v10.5h-1.1621zm-4.9766-2.1807v-.1436c0-.5651.0684-1.0778.2051-1.5381.1413-.4648.3395-.8636.5947-1.1962.2598-.3327.5674-.5879.9229-.7657.36-.1823.761-.2734 1.2031-.2734.4648 0 .8704.082 1.2168.2461.3509.1595.6471.3942.8887.7041.2461.3053.4397.6745.581 1.1074.1413.433.2393.9229.294 1.4697v.6289c-.0502.5424-.1481 1.03-.294 1.4629-.1413.433-.3349.8021-.581 1.1075-.2416.3053-.5378.54-.8887.7041-.3509.1595-.7611.2392-1.2305.2392-.4329 0-.8294-.0934-1.1894-.2803-.3555-.1868-.6631-.4488-.9229-.7861-.2552-.3372-.4534-.7337-.5947-1.1894-.1367-.4603-.2051-.9594-.2051-1.4971zm1.2715-.1436v.1436c0 .3691.0365.7155.1094 1.0391.0774.3235.1959.6083.3554.8544s.3623.4398.6084.5811c.2461.1367.5401.2051.8819.2051.4192 0 .7633-.0889 1.0322-.2666.2734-.1778.4922-.4125.6563-.7041.164-.2917.2916-.6084.3828-.9502v-1.6475c-.0547-.2506-.1345-.4922-.2393-.7246-.1003-.237-.2324-.4466-.3965-.6289-.1595-.1868-.3577-.335-.5947-.4443-.2324-.1094-.5081-.1641-.8272-.1641-.3463 0-.6448.0729-.8955.2188-.2461.1412-.4489.3372-.6084.5878-.1595.2461-.278.5332-.3554.8614-.0729.3235-.1094.6699-.1094 1.039zm10.0146 3.8965c-.5149 0-.982-.0866-1.4013-.2597-.4147-.1778-.7725-.4262-1.0733-.7452-.2962-.319-.5241-.6972-.6836-1.1347s-.2392-.916-.2392-1.4356v-.2871c0-.6015.0889-1.137.2666-1.6064.1777-.474.4193-.875.7246-1.2032.3053-.3281.6517-.5765 1.0391-.7451.3873-.1686.7884-.2529 1.2031-.2529.5286 0 .9844.0911 1.3672.2734.3873.1823.7041.4375.9502.7657.2461.3235.4284.7063.5468 1.1484.1185.4375.1778.916.1778 1.4355v.5674h-5.5235v-1.0322h4.2588v-.0957c-.0182-.3281-.0866-.6471-.205-.957-.114-.3099-.2963-.5651-.5469-.7657-.2507-.2005-.5925-.3007-1.0254-.3007-.2871 0-.5514.0615-.793.1845-.2415.1185-.4489.2963-.6221.5332-.1731.237-.3076.5264-.4033.8682s-.1435.736-.1435 1.1826v.2871c0 .3509.0478.6813.1435.9912.1003.3054.2438.5743.4307.8067.1914.2324.4215.4147.6904.5468.2735.1322.5834.1983.9297.1983.4466 0 .8249-.0912 1.1348-.2734.3099-.1823.581-.4262.8134-.7315l.7657.6084c-.1595.2415-.3623.4717-.6084.6904-.2461.2188-.5492.3965-.9092.5332-.3555.1368-.777.2051-1.2647.2051zm10.9235-7.5332v.9707h-3.9986v-.9707zm-2.6451-1.7978h1.2646v7.3623c0 .2506.0388.4397.1162.5674.0775.1276.1778.2119.3008.2529.1231.041.2552.0615.3965.0615.1048 0 .214-.0091.328-.0273.119-.0228.207-.0411.267-.0547l.007 1.0322c-.101.0319-.233.0615-.3969.0889-.1595.0319-.3532.0478-.5811.0478-.3099 0-.5947-.0615-.8545-.1846-.2597-.123-.4671-.3281-.622-.6152-.1504-.2917-.2256-.6836-.2256-1.1758zm5.3931-1.3057v10.5h-1.264v-10.5zm-.3 6.5215-.527-.0205c.005-.5059.08-.973.226-1.4014.146-.4329.351-.8089.615-1.1279s.579-.5651.943-.7383c.37-.1777.777-.2666 1.224-.2666.365 0 .693.0501.984.1504.292.0957.54.2506.746.4648.209.2142.369.4922.478.834.109.3373.164.7497.164 1.2373v4.8467h-1.271v-4.8604c0-.3873-.057-.6972-.171-.9296-.114-.237-.28-.4079-.499-.5127-.219-.1094-.488-.1641-.807-.1641-.314 0-.601.0661-.861.1982-.255.1322-.476.3145-.663.5469-.183.2324-.326.499-.431.7998-.1.2962-.15.6107-.15.9434zm9.816 4.1152c-.515 0-.982-.0866-1.401-.2597-.415-.1778-.773-.4262-1.074-.7452-.296-.319-.524-.6972-.683-1.1347-.16-.4375-.239-.916-.239-1.4356v-.2871c0-.6015.088-1.137.266-1.6064.178-.474.419-.875.725-1.2032.305-.3281.651-.5765 1.039-.7451.387-.1686.788-.2529 1.203-.2529.529 0 .984.0911 1.367.2734.388.1823.704.4375.95.7657.246.3235.429.7063.547 1.1484.119.4375.178.916.178 1.4355v.5674h-5.523v-1.0322h4.258v-.0957c-.018-.3281-.086-.6471-.205-.957-.114-.3099-.296-.5651-.547-.7657-.25-.2005-.592-.3007-1.025-.3007-.287 0-.551.0615-.793.1845-.242.1185-.449.2963-.622.5332-.173.237-.308.5264-.403.8682-.096.3418-.144.736-.144 1.1826v.2871c0 .3509.048.6813.144.9912.1.3054.243.5743.43.8067.192.2324.422.4147.691.5468.273.1322.583.1983.929.1983.447 0 .825-.0912 1.135-.2734.31-.1823.581-.4262.814-.7315l.765.6084c-.159.2415-.362.4717-.608.6904-.246.2188-.549.3965-.909.5332-.356.1368-.777.2051-1.265.2051zm11.566-4.792h-2.522l-.014-1.0595h2.29c.379 0 .709-.0638.992-.1914.282-.1277.501-.3099.656-.5469.159-.2416.239-.5287.239-.8614 0-.3645-.071-.6608-.212-.8886-.137-.2324-.348-.4011-.636-.5059-.282-.1094-.642-.164-1.08-.164h-1.941v8.873h-1.319v-9.9531h3.26c.511 0 .966.0524 1.368.1572.401.1003.74.2598 1.018.4785.283.2142.497.4876.643.8203.145.3327.218.7315.218 1.1963 0 .4102-.104.7816-.314 1.1143-.21.3281-.501.597-.875.8066-.369.2097-.802.3441-1.299.4033zm-.061 4.6553h-2.981l.746-1.0732h2.235c.419 0 .775-.073 1.066-.2188.297-.1458.522-.3509.677-.6152.155-.2689.233-.5856.233-.9502 0-.3692-.067-.6882-.199-.9571-.132-.2688-.339-.4762-.622-.622-.282-.1459-.647-.2188-1.094-.2188h-1.879l.013-1.0595h2.571l.28.3828c.478.041.884.1777 1.217.4101.332.2279.585.5196.758.875.178.3555.267.7474.267 1.1758 0 .6198-.137 1.1439-.41 1.5723-.269.4238-.65.7474-1.142.9707-.492.2187-1.071.3281-1.736.3281zm8.723-9.9531v9.9531h-1.299v-9.9531zm3.199 0v1.0801h-7.691v-1.0801zm7.294 6.7881h1.312c-.068.6289-.248 1.1917-.54 1.6884-.291.4968-.704.891-1.237 1.1827-.533.2871-1.199.4306-1.996.4306-.584 0-1.114-.1094-1.593-.3281-.474-.2188-.882-.5287-1.224-.9297-.341-.4056-.606-.8909-.793-1.456-.182-.5697-.273-1.2032-.273-1.9004v-.9913c0-.6972.091-1.3284.273-1.8935.187-.5697.454-1.0573.8-1.4629.351-.4056.773-.7178 1.265-.9365.492-.2188 1.046-.3281 1.661-.3281.752 0 1.388.1412 1.907.4238.52.2825.923.6745 1.21 1.1758.292.4967.472 1.0732.54 1.7295h-1.312c-.064-.4649-.183-.8636-.356-1.1963-.173-.3373-.419-.597-.738-.7793s-.736-.2735-1.251-.2735c-.442 0-.832.0843-1.169.253-.333.1686-.613.4078-.841.7177-.223.3099-.392.6814-.506 1.1143s-.171.9137-.171 1.4424v1.0049c0 .4876.051.9456.151 1.374.105.4284.262.8043.472 1.1279.209.3236.476.5788.799.7656.324.1823.707.2735 1.149.2735.56 0 1.007-.0889 1.34-.2666.332-.1778.583-.433.752-.7657.173-.3326.296-.7314.369-1.1962zm10.753 1.9004v-3.8077c0-.2916-.06-.5446-.178-.7588-.114-.2187-.287-.3873-.52-.5058-.232-.1185-.519-.1777-.861-.1777-.319 0-.599.0546-.841.164-.237.1094-.424.2529-.56.4307-.132.1777-.199.3691-.199.5742h-1.264c0-.2643.068-.5264.205-.7861.137-.2598.333-.4945.588-.7041.26-.2142.569-.3829.929-.5059.365-.1276.771-.1914 1.217-.1914.538 0 1.012.0911 1.422.2734.415.1823.738.458.971.8272.237.3646.355.8226.355 1.374v3.4453c0 .2461.021.5082.062.7862.045.2779.112.5172.198.7177v.1094h-1.319c-.064-.1458-.114-.3395-.151-.5811-.036-.246-.054-.4739-.054-.6835zm.218-3.2198.014.8887h-1.278c-.36 0-.682.0296-.964.0889-.283.0547-.52.139-.711.2529s-.337.2575-.438.4307c-.1.1686-.15.3668-.15.5947 0 .2324.052.4443.157.6357s.262.3441.472.458c.214.1094.476.1641.786.1641.387 0 .729-.082 1.026-.2461.296-.1641.53-.3646.704-.6016.177-.2369.273-.4671.287-.6904l.54.6084c-.032.1914-.119.4033-.26.6358-.141.2324-.33.4557-.567.6699-.233.2096-.511.3851-.834.5263-.319.1368-.679.2051-1.08.2051-.502 0-.942-.098-1.32-.2939-.373-.196-.665-.458-.875-.7862-.205-.3326-.307-.7041-.307-1.1142 0-.3965.077-.7451.232-1.0459.155-.3054.378-.5583.67-.7588.292-.2051.643-.36 1.053-.4648.41-.1049.868-.1573 1.374-.1573zm7.698 3.0489v-9.0645h1.271v10.5h-1.162zm-4.977-2.1807v-.1436c0-.5651.068-1.0778.205-1.5381.141-.4648.34-.8636.595-1.1962.26-.3327.567-.5879.923-.7657.36-.1823.761-.2734 1.203-.2734.465 0 .87.082 1.217.2461.351.1595.647.3942.888.7041.246.3053.44.6745.581 1.1074.142.433.24.9229.294 1.4697v.6289c-.05.5424-.148 1.03-.294 1.4629-.141.433-.335.8021-.581 1.1075-.241.3053-.537.54-.888.7041-.351.1595-.761.2392-1.231.2392-.433 0-.829-.0934-1.189-.2803-.356-.1868-.663-.4488-.923-.7861-.255-.3372-.454-.7337-.595-1.1894-.137-.4603-.205-.9594-.205-1.4971zm1.272-.1436v.1436c0 .3691.036.7155.109 1.0391.077.3235.196.6083.355.8544.16.2461.363.4398.609.5811.246.1367.54.2051.882.2051.419 0 .763-.0889 1.032-.2666.273-.1778.492-.4125.656-.7041.164-.2917.292-.6084.383-.9502v-1.6475c-.055-.2506-.134-.4922-.239-.7246-.101-.237-.233-.4466-.397-.6289-.159-.1868-.358-.335-.594-.4443-.233-.1094-.509-.1641-.828-.1641-.346 0-.644.0729-.895.2188-.246.1412-.449.3372-.609.5878-.159.2461-.278.5332-.355.8614-.073.3235-.109.6699-.109 1.039zm11.607 2.3243v-9.0645h1.272v10.5h-1.163zm-4.977-2.1807v-.1436c0-.5651.069-1.0778.206-1.5381.141-.4648.339-.8636.594-1.1962.26-.3327.568-.5879.923-.7657.36-.1823.761-.2734 1.203-.2734.465 0 .871.082 1.217.2461.351.1595.647.3942.889.7041.246.3053.44.6745.581 1.1074.141.433.239.9229.294 1.4697v.6289c-.05.5424-.148 1.03-.294 1.4629-.141.433-.335.8021-.581 1.1075-.242.3053-.538.54-.889.7041-.351.1595-.761.2392-1.23.2392-.433 0-.83-.0934-1.19-.2803-.355-.1868-.663-.4488-.923-.7861-.255-.3372-.453-.7337-.594-1.1894-.137-.4603-.206-.9594-.206-1.4971zm1.272-.1436v.1436c0 .3691.036.7155.109 1.0391.078.3235.196.6083.356.8544.159.2461.362.4398.608.5811.246.1367.54.2051.882.2051.419 0 .763-.0889 1.032-.2666.274-.1778.492-.4125.657-.7041.164-.2917.291-.6084.382-.9502v-1.6475c-.054-.2506-.134-.4922-.239-.7246-.1-.237-.232-.4466-.396-.6289-.16-.1868-.358-.335-.595-.4443-.233-.1094-.508-.1641-.827-.1641-.347 0-.645.0729-.896.2188-.246.1412-.449.3372-.608.5878-.16.2461-.278.5332-.356.8614-.073.3235-.109.6699-.109 1.039zm8.21-2.4746v6.2344h-1.265v-7.3965h1.231zm2.31-1.2031-.006 1.1758c-.105-.0228-.205-.0365-.301-.041-.091-.0091-.196-.0137-.315-.0137-.291 0-.549.0456-.772.1367-.223.0912-.412.2188-.567.3828-.155.1641-.278.3601-.37.5879-.086.2233-.143.4694-.17.7383l-.356.2051c0-.4466.043-.8659.13-1.2578.091-.392.23-.7383.417-1.0391.187-.3053.424-.5423.711-.7109.292-.1732.638-.2598 1.039-.2598.091 0 .196.0114.314.0342.119.0182.201.0387.246.0615zm4.102 7.5742c-.515 0-.982-.0866-1.401-.2597-.415-.1778-.773-.4262-1.074-.7452-.296-.319-.524-.6972-.683-1.1347-.16-.4375-.239-.916-.239-1.4356v-.2871c0-.6015.088-1.137.266-1.6064.178-.474.419-.875.725-1.2032.305-.3281.651-.5765 1.039-.7451.387-.1686.788-.2529 1.203-.2529.529 0 .984.0911 1.367.2734.388.1823.704.4375.95.7657.246.3235.429.7063.547 1.1484.119.4375.178.916.178 1.4355v.5674h-5.523v-1.0322h4.258v-.0957c-.018-.3281-.086-.6471-.205-.957-.114-.3099-.296-.5651-.547-.7657-.25-.2005-.592-.3007-1.025-.3007-.287 0-.551.0615-.793.1845-.242.1185-.449.2963-.622.5332-.173.237-.308.5264-.403.8682-.096.3418-.144.736-.144 1.1826v.2871c0 .3509.048.6813.144.9912.1.3054.243.5743.43.8067.192.2324.422.4147.691.5468.273.1322.583.1983.929.1983.447 0 .825-.0912 1.135-.2734.31-.1823.581-.4262.814-.7315l.765.6084c-.159.2415-.362.4717-.608.6904-.246.2188-.549.3965-.909.5332-.356.1368-.777.2051-1.265.2051zm8.661-2.0986c0-.1823-.041-.3509-.123-.5059-.077-.1595-.239-.303-.485-.4306-.242-.1322-.606-.2461-1.094-.3418-.41-.0866-.782-.1892-1.114-.3077-.328-.1184-.609-.262-.841-.4306-.228-.1686-.403-.3669-.526-.5947-.123-.2279-.185-.4945-.185-.7998 0-.2917.064-.5674.191-.8272.133-.2598.317-.4899.554-.6904.242-.2005.531-.3578.868-.4717.338-.1139.713-.1709 1.128-.1709.593 0 1.099.1048 1.518.3144.419.2097.74.49.964.8409.223.3463.335.7314.335 1.1552h-1.265c0-.205-.062-.4033-.185-.5947-.118-.1959-.294-.3577-.526-.4853-.228-.1276-.508-.1914-.841-.1914-.351 0-.636.0546-.854.164-.214.1048-.372.2393-.472.4033-.096.1641-.144.3373-.144.5196 0 .1367.023.2597.069.3691.05.1048.137.2028.26.294.123.0865.296.1686.519.2461.223.0774.508.1549.855.2324.606.1367 1.105.3008 1.497.4922s.683.4261.875.7041c.191.278.287.6152.287 1.0117 0 .3236-.069.6198-.205.8887-.132.2688-.326.5013-.581.6972-.251.1914-.552.3418-.903.4512-.346.1048-.736.1572-1.169.1572-.651 0-1.203-.1162-1.654-.3486s-.793-.5332-1.025-.9024c-.233-.3691-.349-.7587-.349-1.1689h1.272c.018.3464.118.6221.3.8271.183.2006.406.3441.67.4307.265.082.527.1231.786.1231.347 0 .636-.0456.869-.1368.237-.0911.417-.2164.54-.3759s.184-.3418.184-.5469zm7.233 0c0-.1823-.041-.3509-.123-.5059-.078-.1595-.24-.303-.486-.4306-.241-.1322-.606-.2461-1.094-.3418-.41-.0866-.781-.1892-1.114-.3077-.328-.1184-.608-.262-.841-.4306-.228-.1686-.403-.3669-.526-.5947-.123-.2279-.185-.4945-.185-.7998 0-.2917.064-.5674.192-.8272.132-.2598.317-.4899.554-.6904.241-.2005.53-.3578.868-.4717.337-.1139.713-.1709 1.128-.1709.592 0 1.098.1048 1.517.3144.419.2097.741.49.964.8409.223.3463.335.7314.335 1.1552h-1.265c0-.205-.061-.4033-.184-.5947-.119-.1959-.294-.3577-.527-.4853-.227-.1276-.508-.1914-.84-.1914-.351 0-.636.0546-.855.164-.214.1048-.371.2393-.472.4033-.095.1641-.143.3373-.143.5196 0 .1367.023.2597.068.3691.05.1048.137.2028.26.294.123.0865.296.1686.52.2461.223.0774.508.1549.854.2324.606.1367 1.105.3008 1.497.4922s.684.4261.875.7041c.192.278.287.6152.287 1.0117 0 .3236-.068.6198-.205.8887-.132.2688-.326.5013-.581.6972-.251.1914-.551.3418-.902.4512-.347.1048-.736.1572-1.169.1572-.652 0-1.203-.1162-1.654-.3486-.452-.2324-.793-.5332-1.026-.9024-.232-.3691-.349-.7587-.349-1.1689h1.272c.018.3464.118.6221.301.8271.182.2006.405.3441.67.4307.264.082.526.1231.786.1231.346 0 .636-.0456.868-.1368.237-.0911.417-.2164.54-.3759s.185-.3418.185-.5469z" fill="#fff"/><g clip-rule="evenodd" fill="#673e60" fill-rule="evenodd"><path d="m410.215 115.377 5.162-5.162v2.581l-2.581 2.581z"/><path d="m403.334 115.377 12.043-12.043v2.58l-9.463 9.463z"/></g></g><rect fill="#27212b" height="27" rx="13.5" width="392" x="30" y="132"/></g><g filter="url(#c)"><rect fill="#e35760" height="48" rx="8" width="138.619" x="30.4614" y="217"/><path d="m93.3022 234.625v11.375h-1.5156l-5.7265-8.773v8.773h-1.5079v-11.375h1.5079l5.75 8.797v-8.797zm5.961 11.531c-.5886 0-1.1224-.099-1.6016-.297-.4739-.203-.8828-.487-1.2265-.851-.3386-.365-.599-.797-.7813-1.297s-.2734-1.047-.2734-1.641v-.328c0-.687.1015-1.299.3047-1.836.2031-.541.4791-1 .8281-1.375.3489-.375.7448-.659 1.1875-.851.4427-.193.901-.289 1.375-.289.6042 0 1.1253.104 1.5623.312.443.208.805.5 1.086.875.281.37.49.807.625 1.313.136.5.203 1.047.203 1.64v.649h-6.3123v-1.18h4.8673v-.109c-.021-.375-.099-.74-.234-1.094-.131-.354-.339-.646-.625-.875-.2869-.229-.6775-.344-1.1723-.344-.3281 0-.6302.07-.9063.211-.276.135-.513.339-.7109.609-.1979.271-.3516.602-.4609.993-.1094.39-.1641.841-.1641 1.351v.328c0 .401.0547.779.1641 1.133.1145.349.2786.656.4921.922.2188.266.4818.474.7891.625.3125.151.6667.227 1.0625.227.5104 0 .9427-.105 1.2967-.313s.664-.487.93-.836l.875.695c-.182.276-.414.539-.695.789-.282.25-.628.454-1.04.61-.406.156-.8875.234-1.4448.234zm5.9528-8.609 1.852 3.078 1.875-3.078h1.695l-2.765 4.172 2.851 4.281h-1.672l-1.953-3.172-1.953 3.172h-1.68l2.844-4.281-2.758-4.172zm10.5 0v1.109h-4.57v-1.109zm-3.023-2.055h1.445v8.414c0 .287.044.503.133.649s.203.242.344.289c.14.047.291.07.453.07.12 0 .245-.01.375-.031.135-.026.237-.047.305-.063l.007 1.18c-.114.036-.265.07-.453.102-.182.036-.403.054-.664.054-.354 0-.68-.07-.976-.211-.297-.14-.534-.375-.711-.703-.172-.333-.258-.781-.258-1.344z" fill="#fff"/></g><g filter="url(#d)"><path d="m465.554 94.7825v-1zm10 9.9995h-1zm0 125.402h1zm-10 10v-1zm-204.503 0v-1zm-72.038-5.33c2.943-.113 5.421 2.182 5.534 5.125s-2.181 5.421-5.124 5.534-5.421-2.181-5.534-5.124c-.114-2.944 2.181-5.421 5.124-5.535zm255.229-141.0715c.553 0 1 .4477 1 1s-.447 1-1 1zm14.208 2c-.552 0-1-.4477-1-1s.448-1 1-1zm11.315-1.1649c.511.2115.753.7966.541 1.3067-.211.5102-.797.7523-1.307.5407zm4.107 6.7204c-.212-.511.03-1.096.541-1.307.51-.2117 1.095.03 1.306.541zm2.682 8.67c0 .552-.447 1-1 1-.552 0-1-.448-1-1zm-2 10.45c0-.553.448-1 1-1 .553 0 1 .447 1 1zm2 10.45c0 .552-.447 1-1 1-.552 0-1-.448-1-1zm-2 10.45c0-.552.448-1 1-1 .553 0 1 .448 1 1zm2 10.45c0 .552-.447 1-1 1-.552 0-1-.448-1-1zm-2 10.45c0-.552.448-1 1-1 .553 0 1 .448 1 1zm2 10.45c0 .552-.447 1-1 1-.552 0-1-.448-1-1zm-2 10.45c0-.552.448-1 1-1 .553 0 1 .448 1 1zm2 10.45c0 .553-.447 1-1 1-.552 0-1-.447-1-1zm-2 10.451c0-.553.448-1 1-1 .553 0 1 .447 1 1zm2 10.45c0 .552-.447 1-1 1-.552 0-1-.448-1-1zm-2 10.45c0-.553.448-1 1-1 .553 0 1 .447 1 1zm1.165 9.436c-.211.51-.796.752-1.306.54-.511-.211-.753-.796-.541-1.306zm-6.72 4.106c.51-.211 1.096.031 1.307.541.212.51-.03 1.095-.541 1.307zm-8.557 2.683c-.552 0-1-.448-1-1s.448-1 1-1zm-10.225-2c.552 0 1 .448 1 1s-.448 1-1 1zm-10.225 2c-.553 0-1-.448-1-1s.447-1 1-1zm-10.226-2c.553 0 1 .448 1 1s-.447 1-1 1zm-10.225 2c-.552 0-1-.448-1-1s.448-1 1-1zm-10.225-2c.552 0 1 .448 1 1s-.448 1-1 1zm-10.225 2c-.553 0-1-.448-1-1s.447-1 1-1zm-10.225-2c.552 0 1 .448 1 1s-.448 1-1 1zm-10.226 2c-.552 0-1-.448-1-1 0-.553.448-1 1-1zm-10.225-2c.552 0 1 .447 1 1 0 .552-.448 1-1 1zm-10.225 2c-.552 0-1-.448-1-1 0-.553.448-1 1-1zm-10.225-2c.552 0 1 .447 1 1 0 .552-.448 1-1 1zm-10.225 2c-.553 0-1-.448-1-1 0-.553.447-1 1-1zm-10.226-2c.553 0 1 .447 1 1 0 .552-.447 1-1 1zm-10.225 2c-.552 0-1-.448-1-1 0-.553.448-1 1-1zm-10.225-2c.552 0 1 .447 1 1 0 .552-.448 1-1 1zm-10.225 2c-.552 0-1-.448-1-1 0-.553.448-1 1-1zm-10.225-2c.552 0 1 .447 1 1 0 .552-.448 1-1 1zm-10.226 2c-.552 0-1-.448-1-1 0-.553.448-1 1-1zm-10.225-2c.553 0 1 .447 1 1 0 .552-.447 1-1 1zm-9.602 2c-.552 0-1-.448-1-1 0-.553.448-1 1-1zm-8.979-2c.552 0 1 .447 1 1 0 .552-.448 1-1 1zm-8.979 2c-.552 0-1-.448-1-1 0-.553.448-1 1-1zm-8.979-2c.552 0 1 .447 1 1 0 .552-.448 1-1 1zm-8.979 2c-.553 0-1-.448-1-1 0-.553.447-1 1-1zm-8.979-2c.552 0 1 .448 1 1s-.448 1-1 1zm-8.979 2c-.553 0-1-.448-1-1s.447-1 1-1zm-8.98-2c.553 0 1 .448 1 1s-.447 1-1 1zm243.431-145.4015h7.104v2h-7.104zm21.312 0h7.104v2h-7.104zm7.104 0c1.49 0 2.913.2966 4.211.8351l-.766 1.8474c-1.059-.4395-2.222-.6825-3.445-.6825zm10.165 6.7895c.539 1.298.835 2.721.835 4.21h-2c0-1.222-.243-2.385-.682-3.444zm.835 4.21v5.226h-2v-5.226zm0 15.676v10.45h-2v-10.45zm0 20.9v10.45h-2v-10.45zm0 20.9v10.45h-2v-10.45zm0 20.9v10.45h-2v-10.45zm0 20.901v10.45h-2v-10.45zm0 20.9v5.225h-2v-5.225zm0 5.225c0 1.49-.296 2.912-.835 4.211l-1.847-.766c.439-1.06.682-2.223.682-3.445zm-6.789 10.165c-1.298.538-2.721.835-4.211.835v-2c1.223 0 2.386-.243 3.445-.683zm-4.211.835h-5.112v-2h5.112zm-15.337 0h-10.225v-2h10.225zm-20.451 0h-10.225v-2h10.225zm-20.45 0h-10.225v-2h10.225zm-20.45 0h-10.226v-2h10.226zm-20.451 0h-10.225v-2h10.225zm-20.45 0h-10.225v-2h10.225zm-20.451 0h-10.225v-2h10.225zm-20.45 0h-10.225v-2h10.225zm-20.45 0h-10.226v-2h10.226zm-20.451 0h-5.112v-2h5.112zm-5.112 0h-4.49v-2h4.49zm-13.469 0h-8.979v-2h8.979zm-17.958 0h-8.979v-2h8.979zm-17.958 0h-8.979v-2h8.979zm-17.959 0h-4.489v-2h4.489zm271.847-146.4015v-1zm10 9.9995h-1zm0 125.402h1zm-10 10v-1zm-204.503 0v-1zm-72.038-5.33c2.943-.113 5.421 2.182 5.534 5.125s-2.181 5.421-5.124 5.534-5.421-2.181-5.534-5.124c-.114-2.944 2.181-5.421 5.124-5.535zm255.229-141.0715c.553 0 1 .4477 1 1s-.447 1-1 1zm14.208 2c-.552 0-1-.4477-1-1s.448-1 1-1zm11.315-1.1649c.511.2115.753.7966.541 1.3067-.211.5102-.797.7523-1.307.5407zm4.107 6.7204c-.212-.511.03-1.096.541-1.307.51-.2117 1.095.03 1.306.541zm2.682 8.67c0 .552-.447 1-1 1-.552 0-1-.448-1-1zm-2 10.45c0-.553.448-1 1-1 .553 0 1 .447 1 1zm2 10.45c0 .552-.447 1-1 1-.552 0-1-.448-1-1zm-2 10.45c0-.552.448-1 1-1 .553 0 1 .448 1 1zm2 10.45c0 .552-.447 1-1 1-.552 0-1-.448-1-1zm-2 10.45c0-.552.448-1 1-1 .553 0 1 .448 1 1zm2 10.45c0 .552-.447 1-1 1-.552 0-1-.448-1-1zm-2 10.45c0-.552.448-1 1-1 .553 0 1 .448 1 1zm2 10.45c0 .553-.447 1-1 1-.552 0-1-.447-1-1zm-2 10.451c0-.553.448-1 1-1 .553 0 1 .447 1 1zm2 10.45c0 .552-.447 1-1 1-.552 0-1-.448-1-1zm-2 10.45c0-.553.448-1 1-1 .553 0 1 .447 1 1zm1.165 9.436c-.211.51-.796.752-1.306.54-.511-.211-.753-.796-.541-1.306zm-6.72 4.106c.51-.211 1.096.031 1.307.541.212.51-.03 1.095-.541 1.307zm-8.557 2.683c-.552 0-1-.448-1-1s.448-1 1-1zm-10.225-2c.552 0 1 .448 1 1s-.448 1-1 1zm-10.225 2c-.553 0-1-.448-1-1s.447-1 1-1zm-10.226-2c.553 0 1 .448 1 1s-.447 1-1 1zm-10.225 2c-.552 0-1-.448-1-1s.448-1 1-1zm-10.225-2c.552 0 1 .448 1 1s-.448 1-1 1zm-10.225 2c-.553 0-1-.448-1-1s.447-1 1-1zm-10.225-2c.552 0 1 .448 1 1s-.448 1-1 1zm-10.226 2c-.552 0-1-.448-1-1 0-.553.448-1 1-1zm-10.225-2c.552 0 1 .447 1 1 0 .552-.448 1-1 1zm-10.225 2c-.552 0-1-.448-1-1 0-.553.448-1 1-1zm-10.225-2c.552 0 1 .447 1 1 0 .552-.448 1-1 1zm-10.225 2c-.553 0-1-.448-1-1 0-.553.447-1 1-1zm-10.226-2c.553 0 1 .447 1 1 0 .552-.447 1-1 1zm-10.225 2c-.552 0-1-.448-1-1 0-.553.448-1 1-1zm-10.225-2c.552 0 1 .447 1 1 0 .552-.448 1-1 1zm-10.225 2c-.552 0-1-.448-1-1 0-.553.448-1 1-1zm-10.225-2c.552 0 1 .447 1 1 0 .552-.448 1-1 1zm-10.226 2c-.552 0-1-.448-1-1 0-.553.448-1 1-1zm-10.225-2c.553 0 1 .447 1 1 0 .552-.447 1-1 1zm-9.602 2c-.552 0-1-.448-1-1 0-.553.448-1 1-1zm-8.979-2c.552 0 1 .447 1 1 0 .552-.448 1-1 1zm-8.979 2c-.552 0-1-.448-1-1 0-.553.448-1 1-1zm-8.979-2c.552 0 1 .447 1 1 0 .552-.448 1-1 1zm-8.979 2c-.553 0-1-.448-1-1 0-.553.447-1 1-1zm-8.979-2c.552 0 1 .448 1 1s-.448 1-1 1zm-8.979 2c-.553 0-1-.448-1-1s.447-1 1-1zm-8.98-2c.553 0 1 .448 1 1s-.447 1-1 1zm243.431-145.4015h7.104v2h-7.104zm21.312 0h7.104v2h-7.104zm7.104 0c1.49 0 2.913.2966 4.211.8351l-.766 1.8474c-1.059-.4395-2.222-.6825-3.445-.6825zm10.165 6.7895c.539 1.298.835 2.721.835 4.21h-2c0-1.222-.243-2.385-.682-3.444zm.835 4.21v5.226h-2v-5.226zm0 15.676v10.45h-2v-10.45zm0 20.9v10.45h-2v-10.45zm0 20.9v10.45h-2v-10.45zm0 20.9v10.45h-2v-10.45zm0 20.901v10.45h-2v-10.45zm0 20.9v5.225h-2v-5.225zm0 5.225c0 1.49-.296 2.912-.835 4.211l-1.847-.766c.439-1.06.682-2.223.682-3.445zm-6.789 10.165c-1.298.538-2.721.835-4.211.835v-2c1.223 0 2.386-.243 3.445-.683zm-4.211.835h-5.112v-2h5.112zm-15.337 0h-10.225v-2h10.225zm-20.451 0h-10.225v-2h10.225zm-20.45 0h-10.225v-2h10.225zm-20.45 0h-10.226v-2h10.226zm-20.451 0h-10.225v-2h10.225zm-20.45 0h-10.225v-2h10.225zm-20.451 0h-10.225v-2h10.225zm-20.45 0h-10.225v-2h10.225zm-20.45 0h-10.226v-2h10.226zm-20.451 0h-5.112v-2h5.112zm-5.112 0h-4.49v-2h4.49zm-13.469 0h-8.979v-2h8.979zm-17.958 0h-8.979v-2h8.979zm-17.958 0h-8.979v-2h8.979zm-17.959 0h-4.489v-2h4.489z" fill="#6b4d68"/></g><g filter="url(#e)"><rect fill="#ff4e55" height="56" rx="28" width="56" x="366" y="21"/></g><rect fill="#ff626e" height="52" rx="26" width="52" x="368.584" y="23"/><path d="m394.514 36c-3.389 0-6.131 2.8865-6.131 6.4532v2.4186c-1.19.2268-2.383.5291-2.383.9214v12.6221s0 .3491.373.5147c1.35.5758 6.664 2.5553 7.884 3.0088.158.0612.202.0612.243.0612.058 0 .085 0 .243-.0612 1.22-.4535 6.547-2.433 7.898-3.0088.345-.1512.359-.5003.359-.5003v-12.6365c0-.3923-1.176-.709-2.369-.9214v-2.4186c.017-3.5667-2.743-6.4532-6.117-6.4532zm0 3.0844c1.996 0 3.203 1.2705 3.203 3.3724v2.1019c-2.239-.1656-4.15-.1656-6.404 0v-2.1019c0-2.1055 1.207-3.3724 3.201-3.3724zm-.014 8.5695c2.787 0 5.125.2268 5.125.6335v7.8748c0 .1224-.013.1368-.116.18-.099.0468-4.753 1.8139-4.753 1.8139s-.188.0612-.242.0612c-.058 0-.243-.0756-.243-.0756s-4.654-1.7671-4.753-1.8139-.116-.0612-.116-.18v-7.8748c-.027-.4067 2.311-.6191 5.098-.6191z" fill="#fff"/></g></svg>