<svg fill="none" height="240" viewBox="0 0 452 240" width="452" xmlns="http://www.w3.org/2000/svg" xmlns:xlink="http://www.w3.org/1999/xlink"><filter id="a" color-interpolation-filters="sRGB" filterUnits="userSpaceOnUse" height="192.148" width="240.9" x="3.98291" y="37.9502"><feFlood flood-opacity="0" result="BackgroundImageFix"/><feBlend in="SourceGraphic" in2="BackgroundImageFix" mode="normal" result="shape"/><feGaussianBlur result="effect1_foregroundBlur_15000_120506" stdDeviation="1"/></filter><radialGradient id="b" cx="0" cy="0" gradientTransform="matrix(0 90 -179.5 0 241.962 113)" gradientUnits="userSpaceOnUse" r="1"><stop offset="0" stop-color="#81557e"/><stop offset="1" stop-color="#36293b"/></radialGradient><linearGradient id="c" gradientUnits="userSpaceOnUse" x1="410.289" x2="379.25" y1="302.9" y2="165.123"><stop offset=".31" stop-color="#e35760"/><stop offset="1" stop-color="#302634"/></linearGradient><clipPath id="d"><path d="m0 0h452v240h-452z"/></clipPath><clipPath id="e"><path d="m371.462 122h16v18h-16z"/></clipPath><clipPath id="f"><path d="m371.462 154h16v18h-16z"/></clipPath><mask id="g" fill="#fff"><path d="m62.4624 39c0-8.8366 7.1634-16 16-16h326.9996c8.837 0 16 7.1634 16 16v148c0 8.837-7.163 16-16 16h-326.9996c-8.8366 0-16-7.163-16-16z" fill="#fff"/></mask><g clip-path="url(#d)"><path d="m62.4624 39c0-8.8366 7.1634-16 16-16h326.9996c8.837 0 16 7.1634 16 16v148c0 8.837-7.163 16-16 16h-326.9996c-8.8366 0-16-7.163-16-16z" fill="url(#b)"/><path d="m62.4624 23h358.9996zm366.9996 164c0 13.255-10.745 24-24 24h-318.9996c-13.2548 0-24-10.745-24-24 0 4.418 7.1634 8 16 8h326.9996c4.419 0 8-3.582 8-8zm-366.9996 16v-180zm342.9996-180c13.255 0 24 10.7452 24 24v140c0 13.255-10.745 24-24 24v-16c4.419 0 8-3.582 8-8v-148c0-8.8366-3.581-16-8-16z" fill="#231d28" mask="url(#g)"/><rect fill="#36293b" height="20" rx="10" width="231" x="92.4624" y="121"/><rect fill="#36293b" height="20" rx="10" width="231" x="92.4624" y="153"/><path d="m357.775 122c.932 0 1.687.756 1.687 1.688v10.124c0 .932-.755 1.688-1.687 1.688h-10.125c-.932 0-1.688-.756-1.688-1.688v-10.124c0-.932.756-1.688 1.688-1.688zm-10.125 14.625c-1.551 0-2.813-1.262-2.813-2.813v-7.312h-1.687c-.932 0-1.688.756-1.688 1.688v10.124c0 .932.756 1.688 1.688 1.688h10.125c.932 0 1.687-.756 1.687-1.688v-1.687z" fill="#27212b"/><path d="m357.775 154c.932 0 1.687.756 1.687 1.688v10.124c0 .932-.755 1.688-1.687 1.688h-10.125c-.932 0-1.688-.756-1.688-1.688v-10.124c0-.932.756-1.688 1.688-1.688zm-10.125 14.625c-1.551 0-2.813-1.262-2.813-2.813v-7.312h-1.687c-.932 0-1.688.756-1.688 1.688v10.124c0 .932.756 1.688 1.688 1.688h10.125c.932 0 1.687-.756 1.687-1.688v-1.687z" fill="#27212b"/><g clip-path="url(#e)"><path d="m371.462 129.875h6.858v-6.75h-6.858zm2.286-4.5h2.286v2.25h-2.286zm6.857-2.25v6.75h6.857v-6.75zm4.572 4.5h-2.286v-2.25h2.286zm-13.715 11.25h6.858v-6.75h-6.858zm2.286-4.5h2.286v2.25h-2.286zm12.572-2.25h1.142v4.5h-3.428v-1.125h-1.143v3.375h-2.286v-6.75h3.429v1.125h2.286zm0 5.625h1.142v1.125h-1.142zm-2.286 0h1.143v1.125h-1.143z" fill="#27212b"/></g><g clip-path="url(#f)"><path d="m371.462 161.875h6.858v-6.75h-6.858zm2.286-4.5h2.286v2.25h-2.286zm6.857-2.25v6.75h6.857v-6.75zm4.572 4.5h-2.286v-2.25h2.286zm-13.715 11.25h6.858v-6.75h-6.858zm2.286-4.5h2.286v2.25h-2.286zm12.572-2.25h1.142v4.5h-3.428v-1.125h-1.143v3.375h-2.286v-6.75h3.429v1.125h2.286zm0 5.625h1.142v1.125h-1.142zm-2.286 0h1.143v1.125h-1.143z" fill="#27212b"/></g><path d="m98.9224 79.4844c0-.2324-.0365-.4375-.1094-.6153-.0684-.1823-.1914-.3463-.3692-.4921-.1731-.1459-.4147-.2849-.7246-.417-.3053-.1322-.6927-.2666-1.1621-.4034-.4922-.1458-.9365-.3076-1.333-.4853-.3965-.1823-.736-.3897-1.0185-.6221-.2826-.2324-.4991-.499-.6494-.7998-.1504-.3008-.2256-.6448-.2256-1.0322s.0797-.7451.2392-1.0733c.1595-.3281.3874-.6129.6836-.8544.3008-.2461.6585-.4375 1.0733-.5743.4147-.1367.8772-.205 1.3877-.205.7474 0 1.3808.1435 1.9003.4306.5241.2826.9229.654 1.1963 1.1143.273.4557.41.9433.41 1.4629h-1.3123c0-.3737-.0798-.7041-.2393-.9912-.1595-.2917-.401-.5196-.7246-.6836-.3235-.1687-.7337-.253-1.2304-.253-.4694 0-.8568.0707-1.1622.2119-.3053.1413-.5332.3327-.6835.5743-.1459.2415-.2188.5172-.2188.8271 0 .2097.0433.4011.1299.5742.0911.1687.2301.3259.417.4717.1914.1458.4329.2803.7246.4033.2962.1231.6494.2416 1.0596.3555.5651.1595 1.0527.3372 1.4628.5332.4102.196.7474.417 1.0118.6631.2688.2415.4671.5172.5944.8271.132.3054.199.6517.199 1.0391 0 .4056-.082.7725-.247 1.1006-.1636.3281-.3983.6084-.7037.8408-.3053.2324-.6722.4124-1.1005.54-.4239.1231-.8978.1846-1.4219.1846-.4603 0-.9138-.0638-1.3604-.1914-.442-.1276-.8454-.319-1.2099-.5742-.3601-.2552-.6494-.5697-.8682-.9434-.2142-.3782-.3213-.8157-.3213-1.3125h1.3125c0 .3418.0661.6358.1983.8819.1321.2415.3121.442.54.6015.2324.1595.4945.278.7861.3555.2963.0729.6039.1094.9229.1094.4603 0 .8499-.0638 1.1689-.1914s.5606-.3099.7246-.5469c.1687-.237.253-.5173.253-.8408zm4.6896 1.2031 1.9-6.084h.834l-.164 1.21-1.934 6.1865h-.814zm-1.279-6.084 1.621 6.1524.116 1.2441h-.855l-2.146-7.3965zm5.832 6.1045 1.544-6.1045h1.258l-2.146 7.3965h-.848zm-1.634-6.1045 1.859 5.9815.212 1.415h-.807l-1.989-6.2002-.164-1.1963zm10.096 6.1319v-3.8077c0-.2916-.059-.5446-.177-.7588-.114-.2187-.287-.3873-.52-.5058-.232-.1185-.519-.1777-.861-.1777-.319 0-.599.0546-.841.164-.237.1094-.424.2529-.561.4307-.132.1777-.198.3691-.198.5742h-1.264c0-.2643.068-.5264.205-.7861.136-.2598.332-.4945.588-.7041.259-.2142.569-.3829.929-.5059.365-.1276.77-.1914 1.217-.1914.538 0 1.012.0911 1.422.2734.415.1823.738.458.971.8272.237.3646.355.8226.355 1.374v3.4453c0 .2461.021.5082.062.7862.045.2779.111.5172.198.7177v.1094h-1.319c-.064-.1458-.114-.3395-.151-.5811-.036-.246-.055-.4739-.055-.6835zm.219-3.2198.014.8887h-1.278c-.36 0-.682.0296-.964.0889-.283.0547-.52.139-.711.2529-.192.1139-.338.2575-.438.4307-.1.1686-.15.3668-.15.5947 0 .2324.052.4443.157.6357s.262.3441.472.458c.214.1094.476.1641.786.1641.387 0 .729-.082 1.025-.2461.297-.1641.531-.3646.704-.6016.178-.2369.274-.4671.287-.6904l.541.6084c-.032.1914-.119.4033-.26.6358-.142.2324-.331.4557-.568.6699-.232.2096-.51.3851-.834.5263-.319.1368-.679.2051-1.08.2051-.501 0-.941-.098-1.319-.2939-.374-.196-.665-.458-.875-.7862-.205-.3326-.308-.7041-.308-1.1142 0-.3965.078-.7451.233-1.0459.155-.3054.378-.5583.67-.7588.291-.2051.642-.36 1.052-.4648.411-.1049.869-.1573 1.374-.1573zm4.3-1.4902v8.8184h-1.271v-10.2403h1.162zm4.983 2.2148v.1436c0 .5377-.063 1.0368-.191 1.4971-.128.4557-.314.8522-.561 1.1894-.241.3373-.54.5993-.895.7861-.356.1869-.763.2803-1.224.2803-.469 0-.884-.0775-1.244-.2324-.36-.155-.665-.3805-.916-.6768-.251-.2962-.451-.6517-.601-1.0664-.146-.4147-.247-.8818-.301-1.4013v-.7657c.054-.5468.157-1.0367.307-1.4697.151-.4329.349-.8021.595-1.1074.251-.3099.554-.5446.909-.7041.356-.1641.766-.2461 1.231-.2461s.877.0911 1.237.2734c.36.1778.663.433.909.7657.246.3326.431.7314.554 1.1962.128.4603.191.973.191 1.5381zm-1.271.1436v-.1436c0-.3691-.039-.7155-.116-1.039-.078-.3282-.199-.6153-.363-.8614-.159-.2506-.364-.4466-.615-.5878-.25-.1459-.549-.2188-.895-.2188-.319 0-.597.0547-.834.1641-.233.1093-.431.2575-.595.4443-.164.1823-.299.3919-.403.6289-.101.2324-.176.474-.226.7246v1.7705c.091.319.219.6198.383.9024.164.278.383.5035.656.6767.274.1686.618.253 1.032.253.342 0 .636-.0707.882-.212.251-.1458.456-.344.615-.5947.164-.2506.285-.5377.363-.8613.077-.3281.116-.6768.116-1.0459zm10.664 1.6543c0-.1823-.041-.3509-.123-.5059-.078-.1595-.239-.303-.485-.4306-.242-.1322-.607-.2461-1.094-.3418-.41-.0866-.782-.1892-1.114-.3077-.329-.1184-.609-.262-.841-.4306-.228-.1686-.404-.3669-.527-.5947-.123-.2279-.184-.4945-.184-.7998 0-.2917.064-.5674.191-.8272.132-.2598.317-.4899.554-.6904.241-.2005.531-.3578.868-.4717s.713-.1709 1.128-.1709c.592 0 1.098.1048 1.518.3144.419.2097.74.49.963.8409.224.3463.335.7314.335 1.1552h-1.264c0-.205-.062-.4033-.185-.5947-.118-.1959-.294-.3577-.526-.4853-.228-.1276-.508-.1914-.841-.1914-.351 0-.636.0546-.854.164-.215.1048-.372.2393-.472.4033-.096.1641-.144.3373-.144.5196 0 .1367.023.2597.069.3691.05.1048.136.2028.259.294.123.0865.297.1686.52.2461.223.0774.508.1549.854.2324.607.1367 1.106.3008 1.498.4922.391.1914.683.4261.875.7041.191.278.287.6152.287 1.0117 0 .3236-.069.6198-.205.8887-.133.2688-.326.5013-.582.6972-.25.1914-.551.3418-.902.4512-.346.1048-.736.1572-1.169.1572-.651 0-1.203-.1162-1.654-.3486s-.793-.5332-1.025-.9024c-.233-.3691-.349-.7587-.349-1.1689h1.271c.019.3464.119.6221.301.8271.182.2006.406.3441.67.4307.264.082.526.1231.786.1231.347 0 .636-.0456.868-.1368.237-.0911.417-.2164.54-.3759s.185-.3418.185-.5469zm5.995 2.0986c-.515 0-.982-.0866-1.401-.2597-.415-.1778-.773-.4262-1.074-.7452-.296-.319-.524-.6972-.683-1.1347-.16-.4375-.239-.916-.239-1.4356v-.2871c0-.6015.088-1.137.266-1.6064.178-.474.42-.875.725-1.2032.305-.3281.652-.5765 1.039-.7451s.788-.2529 1.203-.2529c.529 0 .984.0911 1.367.2734.388.1823.704.4375.95.7657.247.3235.429.7063.547 1.1484.119.4375.178.916.178 1.4355v.5674h-5.523v-1.0322h4.258v-.0957c-.018-.3281-.086-.6471-.205-.957-.114-.3099-.296-.5651-.547-.7657-.25-.2005-.592-.3007-1.025-.3007-.287 0-.551.0615-.793.1845-.241.1185-.449.2963-.622.5332-.173.237-.308.5264-.403.8682-.096.3418-.144.736-.144 1.1826v.2871c0 .3509.048.6813.144.9912.1.3054.243.5743.43.8067.192.2324.422.4147.691.5468.273.1322.583.1983.929.1983.447 0 .825-.0912 1.135-.2734.31-.1823.581-.4262.814-.7315l.765.6084c-.159.2415-.362.4717-.608.6904-.246.2188-.549.3965-.909.5332-.356.1368-.777.2051-1.265.2051zm5.619-6.3711v6.2344h-1.264v-7.3965h1.23zm2.311-1.2031-.007 1.1758c-.105-.0228-.205-.0365-.301-.041-.091-.0091-.196-.0137-.314-.0137-.292 0-.549.0456-.773.1367-.223.0912-.412.2188-.567.3828-.155.1641-.278.3601-.369.5879-.087.2233-.144.4694-.171.7383l-.356.2051c0-.4466.044-.8659.13-1.2578.091-.392.23-.7383.417-1.0391.187-.3053.424-.5423.711-.7109.292-.1732.638-.2598 1.039-.2598.091 0 .196.0114.315.0342.118.0182.2.0387.246.0615zm3.541 6.2959 2.023-6.2549h1.292l-2.659 7.3965h-.848zm-1.689-6.2549 2.085 6.2891.144 1.1074h-.848l-2.68-7.3965zm7.595 0v7.3965h-1.271v-7.3965zm-1.367-1.9619c0-.2051.061-.3783.184-.5195.128-.1413.315-.2119.561-.2119.242 0 .426.0706.554.2119.132.1412.198.3144.198.5195 0 .196-.066.3646-.198.5059-.128.1367-.312.205-.554.205-.246 0-.433-.0683-.561-.205-.123-.1413-.184-.3099-.184-.5059zm6.357 8.4561c.301 0 .579-.0616.834-.1846.255-.1231.465-.2917.629-.5059.164-.2187.258-.4671.28-.7451h1.204c-.023.4375-.171.8454-.445 1.2236-.269.3737-.622.6768-1.059.9092-.438.2279-.919.3418-1.443.3418-.556 0-1.041-.098-1.456-.2939-.41-.196-.752-.4649-1.025-.8067-.269-.3418-.472-.7337-.609-1.1757-.132-.4467-.198-.9183-.198-1.4151v-.2871c0-.4967.066-.9661.198-1.4082.137-.4466.34-.8408.609-1.1826.273-.3418.615-.6107 1.025-.8067.415-.1959.9-.2939 1.456-.2939.579 0 1.085.1185 1.518.3555.433.2324.772.5514 1.018.957.251.401.388.8568.411 1.3672h-1.204c-.022-.3054-.109-.5811-.259-.8272-.146-.2461-.347-.442-.602-.5879-.251-.1503-.544-.2255-.882-.2255-.387 0-.713.0774-.977.2324-.26.1504-.467.3555-.622.6152-.151.2552-.26.5401-.328.8545-.064.3099-.096.6266-.096.9502v.2871c0 .3236.032.6426.096.957.063.3145.17.5993.321.8545.155.2552.362.4603.622.6153.264.1504.592.2256.984.2256zm7.438 1.039c-.515 0-.982-.0866-1.402-.2597-.414-.1778-.772-.4262-1.073-.7452-.296-.319-.524-.6972-.683-1.1347-.16-.4375-.24-.916-.24-1.4356v-.2871c0-.6015.089-1.137.267-1.6064.178-.474.419-.875.725-1.2032.305-.3281.651-.5765 1.039-.7451.387-.1686.788-.2529 1.203-.2529.528 0 .984.0911 1.367.2734.387.1823.704.4375.95.7657.246.3235.428.7063.547 1.1484.118.4375.178.916.178 1.4355v.5674h-5.524v-1.0322h4.259v-.0957c-.018-.3281-.087-.6471-.205-.957-.114-.3099-.296-.5651-.547-.7657-.251-.2005-.592-.3007-1.025-.3007-.287 0-.552.0615-.793.1845-.242.1185-.449.2963-.622.5332-.174.237-.308.5264-.404.8682-.095.3418-.143.736-.143 1.1826v.2871c0 .3509.048.6813.143.9912.101.3054.244.5743.431.8067.191.2324.422.4147.69.5468.274.1322.584.1983.93.1983.447 0 .825-.0912 1.135-.2734.31-.1823.581-.4262.813-.7315l.766.6084c-.16.2415-.362.4717-.608.6904-.246.2188-.55.3965-.91.5332-.355.1368-.777.2051-1.264.2051zm9.092-6.3711v6.2344h-1.265v-7.3965h1.23zm2.31-1.2031-.007 1.1758c-.105-.0228-.205-.0365-.3-.041-.092-.0091-.196-.0137-.315-.0137-.292 0-.549.0456-.772.1367-.224.0912-.413.2188-.568.3828-.155.1641-.278.3601-.369.5879-.087.2233-.143.4694-.171.7383l-.355.2051c0-.4466.043-.8659.13-1.2578.091-.392.23-.7383.417-1.0391.186-.3053.423-.5423.711-.7109.291-.1732.638-.2598 1.039-.2598.091 0 .196.0114.314.0342.119.0182.201.0387.246.0615zm4.102 7.5742c-.515 0-.982-.0866-1.402-.2597-.414-.1778-.772-.4262-1.073-.7452-.296-.319-.524-.6972-.684-1.1347-.159-.4375-.239-.916-.239-1.4356v-.2871c0-.6015.089-1.137.267-1.6064.178-.474.419-.875.724-1.2032.306-.3281.652-.5765 1.039-.7451.388-.1686.789-.2529 1.204-.2529.528 0 .984.0911 1.367.2734.387.1823.704.4375.95.7657.246.3235.428.7063.547 1.1484.118.4375.178.916.178 1.4355v.5674h-5.524v-1.0322h4.259v-.0957c-.018-.3281-.087-.6471-.205-.957-.114-.3099-.296-.5651-.547-.7657-.251-.2005-.592-.3007-1.025-.3007-.287 0-.552.0615-.793.1845-.242.1185-.449.2963-.622.5332-.174.237-.308.5264-.404.8682-.095.3418-.143.736-.143 1.1826v.2871c0 .3509.048.6813.143.9912.101.3054.244.5743.431.8067.191.2324.421.4147.69.5468.274.1322.584.1983.93.1983.447 0 .825-.0912 1.135-.2734.31-.1823.581-.4262.813-.7315l.766.6084c-.16.2415-.362.4717-.608.6904-.247.2188-.55.3965-.91.5332-.355.1368-.777.2051-1.264.2051zm7.314-1.039c.301 0 .579-.0616.834-.1846.255-.1231.465-.2917.629-.5059.164-.2187.258-.4671.28-.7451h1.203c-.022.4375-.17.8454-.444 1.2236-.269.3737-.622.6768-1.059.9092-.438.2279-.919.3418-1.443.3418-.556 0-1.041-.098-1.456-.2939-.41-.196-.752-.4649-1.025-.8067-.269-.3418-.472-.7337-.609-1.1757-.132-.4467-.198-.9183-.198-1.4151v-.2871c0-.4967.066-.9661.198-1.4082.137-.4466.34-.8408.609-1.1826.273-.3418.615-.6107 1.025-.8067.415-.1959.9-.2939 1.456-.2939.579 0 1.085.1185 1.518.3555.433.2324.772.5514 1.018.957.251.401.388.8568.41 1.3672h-1.203c-.022-.3054-.109-.5811-.259-.8272-.146-.2461-.347-.442-.602-.5879-.251-.1503-.545-.2255-.882-.2255-.387 0-.713.0774-.977.2324-.26.1504-.468.3555-.622.6152-.151.2552-.26.5401-.329.8545-.063.3099-.095.6266-.095.9502v.2871c0 .3236.032.6426.095.957.064.3145.171.5993.322.8545.155.2552.362.4603.622.6153.264.1504.592.2256.984.2256zm7.438 1.039c-.515 0-.982-.0866-1.402-.2597-.414-.1778-.772-.4262-1.073-.7452-.296-.319-.524-.6972-.684-1.1347-.159-.4375-.239-.916-.239-1.4356v-.2871c0-.6015.089-1.137.267-1.6064.178-.474.419-.875.724-1.2032.306-.3281.652-.5765 1.039-.7451.388-.1686.789-.2529 1.204-.2529.528 0 .984.0911 1.367.2734.387.1823.704.4375.95.7657.246.3235.428.7063.547 1.1484.118.4375.178.916.178 1.4355v.5674h-5.524v-1.0322h4.259v-.0957c-.018-.3281-.087-.6471-.205-.957-.114-.3099-.296-.5651-.547-.7657-.251-.2005-.592-.3007-1.025-.3007-.288 0-.552.0615-.793.1845-.242.1185-.449.2963-.622.5332-.174.237-.308.5264-.404.8682-.095.3418-.143.736-.143 1.1826v.2871c0 .3509.048.6813.143.9912.1.3054.244.5743.431.8067.191.2324.421.4147.69.5468.274.1322.584.1983.93.1983.447 0 .825-.0912 1.135-.2734.31-.1823.581-.4262.813-.7315l.766.6084c-.16.2415-.362.4717-.609.6904-.246.2188-.549.3965-.909.5332-.355.1368-.777.2051-1.264.2051zm5.728-7.5332v7.3965h-1.271v-7.3965zm-1.367-1.9619c0-.2051.061-.3783.185-.5195.127-.1413.314-.2119.56-.2119.242 0 .426.0706.554.2119.132.1412.198.3144.198.5195 0 .196-.066.3646-.198.5059-.128.1367-.312.205-.554.205-.246 0-.433-.0683-.56-.205-.124-.1413-.185-.3099-.185-.5059zm5.646 8.2168 2.024-6.2549h1.292l-2.659 7.3965h-.848zm-1.688-6.2549 2.085 6.2891.143 1.1074h-.847l-2.68-7.3965zm9.194 7.5332c-.515 0-.982-.0866-1.401-.2597-.415-.1778-.773-.4262-1.073-.7452-.297-.319-.524-.6972-.684-1.1347-.159-.4375-.239-.916-.239-1.4356v-.2871c0-.6015.089-1.137.266-1.6064.178-.474.42-.875.725-1.2032.305-.3281.652-.5765 1.039-.7451s.789-.2529 1.203-.2529c.529 0 .985.0911 1.367.2734.388.1823.705.4375.951.7657.246.3235.428.7063.547 1.1484.118.4375.177.916.177 1.4355v.5674h-5.523v-1.0322h4.259v-.0957c-.019-.3281-.087-.6471-.205-.957-.114-.3099-.297-.5651-.547-.7657-.251-.2005-.593-.3007-1.026-.3007-.287 0-.551.0615-.793.1845-.241.1185-.449.2963-.622.5332-.173.237-.307.5264-.403.8682s-.144.736-.144 1.1826v.2871c0 .3509.048.6813.144.9912.1.3054.244.5743.431.8067.191.2324.421.4147.69.5468.273.1322.583.1983.93.1983.446 0 .825-.0912 1.134-.2734.31-.1823.581-.4262.814-.7315l.766.6084c-.16.2415-.363.4717-.609.6904-.246.2188-.549.3965-.909.5332-.356.1368-.777.2051-1.265.2051zm9.017-1.5722v-9.0645h1.271v10.5h-1.162zm-4.977-2.1807v-.1436c0-.5651.069-1.0778.205-1.5381.142-.4648.34-.8636.595-1.1962.26-.3327.568-.5879.923-.7657.36-.1823.761-.2734 1.203-.2734.465 0 .871.082 1.217.2461.351.1595.647.3942.889.7041.246.3053.439.6745.581 1.1074.141.433.239.9229.294 1.4697v.6289c-.051.5424-.149 1.03-.294 1.4629-.142.433-.335.8021-.581 1.1075-.242.3053-.538.54-.889.7041-.351.1595-.761.2392-1.231.2392-.432 0-.829-.0934-1.189-.2803-.355-.1868-.663-.4488-.923-.7861-.255-.3372-.453-.7337-.595-1.1894-.136-.4603-.205-.9594-.205-1.4971zm1.272-.1436v.1436c0 .3691.036.7155.109 1.0391.078.3235.196.6083.356.8544.159.2461.362.4398.608.5811.246.1367.54.2051.882.2051.419 0 .763-.0889 1.032-.2666.274-.1778.492-.4125.656-.7041.164-.2917.292-.6084.383-.9502v-1.6475c-.054-.2506-.134-.4922-.239-.7246-.1-.237-.232-.4466-.397-.6289-.159-.1868-.357-.335-.594-.4443-.233-.1094-.508-.1641-.827-.1641-.347 0-.645.0729-.896.2188-.246.1412-.449.3372-.608.5878-.16.2461-.278.5332-.356.8614-.073.3235-.109.6699-.109 1.039zm12.496 2.9942 2.058-6.6309h1.353l-2.967 8.5381c-.068.1823-.159.3783-.273.5879-.11.2142-.251.417-.424.6084s-.383.3463-.629.4648c-.241.1231-.531.1846-.868.1846-.1 0-.228-.0137-.383-.041-.155-.0274-.264-.0501-.328-.0684l-.007-1.0254c.037.0046.094.0092.171.0137.082.0091.139.0137.171.0137.287 0 .531-.0388.731-.1162.201-.0729.37-.1983.506-.376.142-.1732.262-.4124.363-.7178zm-1.511-6.6309 1.921 5.7422.328 1.333-.909.4649-2.721-7.5401zm5.619 3.7803v-.1572c0-.5332.078-1.0277.233-1.4834.155-.4603.378-.8591.67-1.1963.291-.3418.645-.6061 1.059-.793.415-.1914.88-.2871 1.395-.2871.519 0 .986.0957 1.401.2871.419.1869.775.4512 1.067.793.296.3372.521.736.676 1.1963.155.4557.233.9502.233 1.4834v.1572c0 .5332-.078 1.0277-.233 1.4834s-.38.8545-.676 1.1963c-.292.3372-.645.6015-1.06.7929-.41.1869-.875.2803-1.395.2803-.519 0-.986-.0934-1.401-.2803-.415-.1914-.77-.4557-1.066-.7929-.292-.3418-.515-.7406-.67-1.1963s-.233-.9502-.233-1.4834zm1.265-.1572v.1572c0 .3691.043.7178.13 1.0459.086.3236.216.6107.39.8613.177.2507.398.4489.663.5947.264.1413.572.212.922.212.347 0 .65-.0707.91-.212.264-.1458.483-.344.656-.5947.173-.2506.303-.5377.39-.8613.091-.3281.136-.6768.136-1.0459v-.1572c0-.3646-.045-.7087-.136-1.0323-.087-.3281-.219-.6175-.397-.8681-.173-.2552-.392-.4558-.656-.6016-.26-.1458-.565-.2187-.916-.2187-.347 0-.652.0729-.916.2187-.26.1458-.479.3464-.656.6016-.174.2506-.304.54-.39.8681-.087.3236-.13.6677-.13 1.0323zm11.58 2.0644v-5.6875h1.272v7.3965h-1.21zm.239-1.5586.527-.0136c0 .4921-.053.9479-.158 1.3671-.1.4148-.264.7748-.492 1.0801-.228.3054-.526.5446-.895.7178-.369.1686-.818.2529-1.347.2529-.36 0-.69-.0524-.991-.1572-.296-.1048-.552-.2666-.766-.4854-.214-.2187-.38-.5035-.499-.8545-.114-.3509-.171-.7724-.171-1.2646v-4.7715h1.265v4.7852c0 .3327.036.6084.109.8271.078.2142.18.3851.308.5127.132.1231.278.2097.437.2598.165.0501.333.0752.506.0752.538 0 .964-.1026 1.279-.3076.314-.2097.54-.4899.676-.8409.142-.3554.212-.7496.212-1.1826zm4.225-2.9668v6.2344h-1.265v-7.3965h1.231zm2.31-1.2031-.006 1.1758c-.105-.0228-.205-.0365-.301-.041-.091-.0091-.196-.0137-.315-.0137-.291 0-.549.0456-.772.1367-.223.0912-.413.2188-.567.3828-.155.1641-.278.3601-.37.5879-.086.2233-.143.4694-.17.7383l-.356.2051c0-.4466.043-.8659.13-1.2578.091-.392.23-.7383.417-1.0391.187-.3053.424-.5423.711-.7109.292-.1732.638-.2598 1.039-.2598.091 0 .196.0114.314.0342.119.0182.201.0387.246.0615zm5.907 1.4629v8.8184h-1.272v-10.2403h1.162zm4.983 2.2148v.1436c0 .5377-.064 1.0368-.191 1.4971-.128.4557-.315.8522-.561 1.1894-.241.3373-.54.5993-.895.7861-.356.1869-.764.2803-1.224.2803-.469 0-.884-.0775-1.244-.2324-.36-.155-.665-.3805-.916-.6768-.251-.2962-.451-.6517-.602-1.0664-.146-.4147-.246-.8818-.3-1.4013v-.7657c.054-.5468.157-1.0367.307-1.4697.151-.4329.349-.8021.595-1.1074.251-.3099.554-.5446.909-.7041.356-.1641.766-.2461 1.231-.2461.464 0 .877.0911 1.237.2734.36.1778.663.433.909.7657.246.3326.431.7314.554 1.1962.127.4603.191.973.191 1.5381zm-1.271.1436v-.1436c0-.3691-.039-.7155-.117-1.039-.077-.3282-.198-.6153-.362-.8614-.159-.2506-.364-.4466-.615-.5878-.251-.1459-.549-.2188-.896-.2188-.319 0-.597.0547-.834.1641-.232.1093-.43.2575-.594.4443-.164.1823-.299.3919-.404.6289-.1.2324-.175.474-.225.7246v1.7705c.091.319.219.6198.383.9024.164.278.382.5035.656.6767.273.1686.617.253 1.032.253.342 0 .636-.0707.882-.212.251-.1458.456-.344.615-.5947.164-.2506.285-.5377.362-.8613.078-.3281.117-.6768.117-1.0459zm7.246 2.3516v-3.8077c0-.2916-.06-.5446-.178-.7588-.114-.2187-.287-.3873-.52-.5058-.232-.1185-.519-.1777-.861-.1777-.319 0-.599.0546-.841.164-.237.1094-.424.2529-.56.4307-.132.1777-.198.3691-.198.5742h-1.265c0-.2643.068-.5264.205-.7861.137-.2598.333-.4945.588-.7041.26-.2142.57-.3829.93-.5059.364-.1276.77-.1914 1.216-.1914.538 0 1.012.0911 1.422.2734.415.1823.738.458.971.8272.237.3646.355.8226.355 1.374v3.4453c0 .2461.021.5082.062.7862.045.2779.112.5172.198.7177v.1094h-1.319c-.064-.1458-.114-.3395-.151-.5811-.036-.246-.054-.4739-.054-.6835zm.218-3.2198.014.8887h-1.278c-.36 0-.681.0296-.964.0889-.283.0547-.52.139-.711.2529s-.337.2575-.437.4307c-.101.1686-.151.3668-.151.5947 0 .2324.053.4443.157.6357.105.1914.262.3441.472.458.214.1094.476.1641.786.1641.388 0 .729-.082 1.026-.2461.296-.1641.53-.3646.704-.6016.177-.2369.273-.4671.287-.6904l.54.6084c-.032.1914-.119.4033-.26.6358-.141.2324-.33.4557-.567.6699-.233.2096-.511.3851-.834.5263-.319.1368-.679.2051-1.08.2051-.502 0-.941-.098-1.32-.2939-.373-.196-.665-.458-.875-.7862-.205-.3326-.307-.7041-.307-1.1142 0-.3965.077-.7451.232-1.0459.155-.3054.378-.5583.67-.7588.292-.2051.643-.36 1.053-.4648.41-.1049.868-.1573 1.374-.1573zm5.004 3.7188 2.058-6.6309h1.354l-2.967 8.5381c-.069.1823-.16.3783-.274.5879-.109.2142-.25.417-.424.6084-.173.1914-.382.3463-.628.4648-.242.1231-.531.1846-.869.1846-.1 0-.227-.0137-.382-.041-.155-.0274-.265-.0501-.329-.0684l-.006-1.0254c.036.0046.093.0092.171.0137.082.0091.139.0137.17.0137.288 0 .531-.0388.732-.1162.2-.0729.369-.1983.506-.376.141-.1732.262-.4124.362-.7178zm-1.51-6.6309 1.921 5.7422.328 1.333-.91.4649-2.72-7.5401zm7.321 1.4697v5.9268h-1.272v-7.3965h1.204zm-.26 1.9483-.588-.0205c.005-.5059.071-.973.199-1.4014.127-.4329.316-.8089.567-1.1279s.563-.5651.936-.7383c.374-.1777.807-.2666 1.299-.2666.347 0 .666.0501.957.1504.292.0957.545.2484.759.458s.381.4785.499.8066c.119.3282.178.7246.178 1.1895v4.9287h-1.265v-4.8672c0-.3874-.066-.6973-.198-.9297-.128-.2324-.31-.401-.547-.5058-.237-.1094-.515-.1641-.834-.1641-.374 0-.686.0661-.936.1982-.251.1322-.452.3145-.602.5469s-.26.499-.328.7998c-.064.2962-.096.6107-.096.9434zm4.792-.6973-.848.2598c.005-.4056.071-.7953.199-1.169.132-.3737.321-.7063.567-.998.251-.2917.558-.5218.923-.6904.365-.1732.782-.2598 1.251-.2598.396 0 .747.0524 1.053.1572.31.1048.569.2666.779.4854.214.2142.376.4899.485.8271.11.3373.164.7383.164 1.2031v4.8604h-1.271v-4.874c0-.4147-.066-.736-.198-.9639-.128-.2324-.31-.3942-.547-.4853-.233-.0957-.511-.1436-.834-.1436-.278 0-.524.0479-.738.1436-.215.0957-.395.2278-.541.3964-.145.1641-.257.3532-.334.5674-.073.2142-.11.4421-.11.6836zm9.557 4.8125c-.515 0-.982-.0866-1.402-.2597-.414-.1778-.772-.4262-1.073-.7452-.296-.319-.524-.6972-.683-1.1347-.16-.4375-.24-.916-.24-1.4356v-.2871c0-.6015.089-1.137.267-1.6064.178-.474.419-.875.725-1.2032.305-.3281.651-.5765 1.039-.7451.387-.1686.788-.2529 1.203-.2529.528 0 .984.0911 1.367.2734.387.1823.704.4375.95.7657.246.3235.428.7063.547 1.1484.118.4375.178.916.178 1.4355v.5674h-5.524v-1.0322h4.259v-.0957c-.018-.3281-.087-.6471-.205-.957-.114-.3099-.296-.5651-.547-.7657-.251-.2005-.592-.3007-1.025-.3007-.287 0-.552.0615-.793.1845-.242.1185-.449.2963-.622.5332-.173.237-.308.5264-.404.8682-.095.3418-.143.736-.143 1.1826v.2871c0 .3509.048.6813.143.9912.101.3054.244.5743.431.8067.191.2324.422.4147.69.5468.274.1322.584.1983.93.1983.447 0 .825-.0912 1.135-.2734.31-.1823.581-.4262.813-.7315l.766.6084c-.159.2415-.362.4717-.608.6904-.246.2188-.55.3965-.91.5332-.355.1368-.777.2051-1.264.2051zm5.619-5.9541v5.8174h-1.265v-7.3965h1.197zm-.301 1.8389-.526-.0205c.004-.5059.08-.973.225-1.4014.146-.4329.351-.8089.616-1.1279.264-.319.578-.5651.943-.7383.369-.1777.777-.2666 1.224-.2666.364 0 .692.0501.984.1504.292.0957.54.2506.745.4648.21.2142.369.4922.479.834.109.3373.164.7497.164 1.2373v4.8467h-1.272v-4.8604c0-.3873-.057-.6972-.171-.9296-.114-.237-.28-.4079-.499-.5127-.218-.1094-.487-.1641-.806-.1641-.315 0-.602.0661-.862.1982-.255.1322-.476.3145-.663.5469-.182.2324-.326.499-.43.7998-.101.2962-.151.6107-.151.9434zm9.871-3.418v.9707h-3.999v-.9707zm-2.645-1.7978h1.264v7.3623c0 .2506.039.4397.117.5674.077.1276.177.2119.3.2529s.256.0615.397.0615c.105 0 .214-.0091.328-.0273.118-.0228.207-.0411.267-.0547l.006 1.0322c-.1.0319-.232.0615-.396.0889-.16.0319-.353.0478-.581.0478-.31 0-.595-.0615-.855-.1846-.259-.123-.467-.3281-.622-.6152-.15-.2917-.225-.6836-.225-1.1758zm4.149 8.5244c0-.2142.066-.3942.198-.5401.137-.1504.333-.2255.588-.2255s.449.0751.581.2255c.137.1459.205.3259.205.5401 0 .2096-.068.3873-.205.5332-.132.1458-.326.2187-.581.2187s-.451-.0729-.588-.2187c-.132-.1459-.198-.3236-.198-.5332zm-219.3651 17.5967v1.0732h-5.2705v-1.0732zm-5.0039-8.8799v9.9531h-1.3193v-9.9531zm4.3067 4.2793v1.0732h-4.5733v-1.0732zm.6289-4.2793v1.0801h-5.2022v-1.0801zm2.3654 2.5566 1.62 2.6934 1.641-2.6934h1.483l-2.42 3.6504 2.495 3.7461h-1.463l-1.709-2.7754-1.709 2.7754h-1.469l2.488-3.7461-2.413-3.6504zm8.914 6.4942c.301 0 .579-.0616.834-.1846.255-.1231.465-.2917.629-.5059.164-.2187.257-.4671.28-.7451h1.203c-.023.4375-.171.8454-.444 1.2236-.269.3737-.622.6768-1.06.9092-.437.2281-.918.3421-1.442.3421-.556 0-1.041-.098-1.456-.2942-.41-.196-.752-.4649-1.026-.8067-.268-.3418-.471-.7337-.608-1.1757-.132-.4467-.198-.9183-.198-1.4151v-.2871c0-.4967.066-.9661.198-1.4082.137-.4466.34-.8408.608-1.1826.274-.3418.616-.6107 1.026-.8067.415-.1959.9-.2939 1.456-.2939.579 0 1.084.1185 1.517.3555.433.2324.773.5514 1.019.957.251.401.387.8568.41 1.3672h-1.203c-.023-.3054-.109-.5811-.26-.8272-.146-.2461-.346-.442-.601-.5879-.251-.1503-.545-.2255-.882-.2255-.388 0-.713.0774-.978.2324-.259.1504-.467.3555-.622.6152-.15.2552-.26.5401-.328.8545-.064.3099-.096.6266-.096.9502v.2871c0 .3236.032.6426.096.957.064.3145.171.5993.321.8545.155.2552.363.4603.622.6153.265.1504.593.2256.985.2256zm5.633-9.5977v10.5h-1.265v-10.5zm-.301 6.5215-.526-.0205c.004-.5059.079-.973.225-1.4014.146-.4329.351-.8089.615-1.1279.265-.319.579-.5651.944-.7383.369-.1777.777-.2666 1.223-.2666.365 0 .693.0501.985.1504.291.0957.54.2506.745.4648.209.2142.369.4922.478.834.11.3373.164.7497.164 1.2373v4.8467h-1.271v-4.8604c0-.3873-.057-.6972-.171-.9296-.114-.237-.28-.4079-.499-.5127-.219-.1094-.488-.1641-.807-.1641-.314 0-.601.0661-.861.1982-.255.1322-.476.3145-.663.5469-.182.2324-.326.499-.431.7998-.1.2962-.15.6107-.15.9434zm11.108 2.7139v-3.8077c0-.2916-.059-.5446-.177-.7588-.114-.2187-.288-.3873-.52-.5058s-.52-.1777-.861-.1777c-.319 0-.6.0546-.841.164-.237.1094-.424.2529-.561.4307-.132.1777-.198.3691-.198.5742h-1.265c0-.2643.069-.5264.206-.7861.136-.2598.332-.4945.587-.7041.26-.2142.57-.3829.93-.5059.365-.1276.77-.1914 1.217-.1914.538 0 1.012.0911 1.422.2734.414.1823.738.458.97.8272.237.3646.356.8226.356 1.374v3.4453c0 .2461.02.5082.061.7862.046.2779.112.5172.199.7177v.1094h-1.32c-.063-.1458-.114-.3395-.15-.5811-.036-.246-.055-.4739-.055-.6835zm.219-3.2198.014.8887h-1.279c-.36 0-.681.0296-.963.0889-.283.0547-.52.139-.711.2529-.192.1139-.338.2575-.438.4307-.1.1686-.15.3668-.15.5947 0 .2324.052.4443.157.6357s.262.3441.472.458c.214.1094.476.1641.786.1641.387 0 .729-.082 1.025-.2461s.531-.3646.704-.6016c.178-.2369.274-.4671.287-.6904l.54.6084c-.032.1914-.118.4033-.259.6358-.142.2324-.331.4557-.568.6699-.232.2096-.51.3851-.834.5263-.319.1364-.679.2054-1.08.2054-.501 0-.941-.098-1.319-.2942-.374-.196-.666-.458-.875-.7862-.205-.3326-.308-.7041-.308-1.1142 0-.3965.078-.7451.233-1.0459.155-.3054.378-.5583.67-.7588.291-.2051.642-.36 1.052-.4648.41-.1049.868-.1573 1.374-.1573zm4.3-1.333v5.8174h-1.265v-7.3965h1.196zm-.301 1.8389-.526-.0205c.004-.5059.079-.973.225-1.4014.146-.4329.351-.8089.616-1.1279.264-.319.578-.5651.943-.7383.369-.1777.777-.2666 1.224-.2666.364 0 .692.0501.984.1504.292.0957.54.2506.745.4648.21.2142.369.4922.479.834.109.3373.164.7497.164 1.2373v4.8467h-1.272v-4.8604c0-.3873-.057-.6972-.171-.9296-.114-.237-.28-.4079-.499-.5127-.219-.1094-.487-.1641-.806-.1641-.315 0-.602.0661-.862.1982-.255.1322-.476.3145-.663.5469-.182.2324-.326.499-.431.7998-.1.2962-.15.6107-.15.9434zm11.566-3.418h1.149v7.2393c0 .6512-.132 1.2072-.397 1.6682-.264.46-.633.809-1.107 1.046-.469.241-1.012.362-1.627.362-.255 0-.556-.041-.902-.123-.342-.078-.679-.212-1.012-.403-.328-.187-.604-.44-.827-.759l.663-.752c.31.374.633.633.971.779.341.146.679.219 1.011.219.401 0 .748-.075 1.039-.226.292-.15.518-.373.677-.67.164-.291.246-.651.246-1.0797v-5.6738zm-5.092 3.7803v-.1436c0-.5651.066-1.0778.198-1.5381.137-.4648.33-.8636.581-1.1962.255-.3327.563-.5879.923-.7657.36-.1823.765-.2734 1.217-.2734.464 0 .87.082 1.216.2461.351.1595.648.3942.889.7041.246.3053.44.6745.581 1.1074.141.433.239.9229.294 1.4697v.6289c-.05.5424-.148 1.03-.294 1.4629-.141.433-.335.8021-.581 1.1075-.241.3053-.538.54-.889.7041-.35.1595-.761.2395-1.23.2395-.442 0-.843-.094-1.203-.2806-.356-.1868-.661-.4488-.916-.7861-.255-.3372-.451-.7337-.588-1.1894-.132-.4603-.198-.9594-.198-1.4971zm1.264-.1436v.1436c0 .3691.037.7155.11 1.0391.077.3235.193.6083.348.8544.16.2461.363.4398.609.5811.246.1367.54.2051.882.2051.419 0 .765-.0889 1.039-.2666.273-.1778.49-.4125.649-.7041.164-.2917.292-.6084.383-.9502v-1.6475c-.05-.2506-.128-.4922-.233-.7246-.1-.237-.232-.4466-.396-.6289-.16-.1868-.358-.335-.595-.4443-.237-.1094-.515-.1641-.834-.1641-.346 0-.645.0729-.895.2188-.246.1412-.449.3372-.609.5878-.155.2461-.271.5332-.348.8614-.073.3235-.11.6699-.11 1.039zm9.967 3.8968c-.515 0-.982-.087-1.401-.26-.415-.1778-.773-.4262-1.073-.7452-.297-.319-.525-.6972-.684-1.1347-.16-.4375-.239-.916-.239-1.4356v-.2871c0-.6015.089-1.137.266-1.6064.178-.474.42-.875.725-1.2032.305-.3281.652-.5765 1.039-.7451s.788-.2529 1.203-.2529c.529 0 .984.0911 1.367.2734.388.1823.704.4375.95.7657.247.3235.429.7063.547 1.1484.119.4375.178.916.178 1.4355v.5674h-5.523v-1.0322h4.258v-.0957c-.018-.3281-.086-.6471-.205-.957-.114-.3099-.296-.5651-.547-.7657-.25-.2005-.592-.3007-1.025-.3007-.287 0-.551.0615-.793.1845-.241.1185-.449.2963-.622.5332-.173.237-.308.5264-.403.8682-.096.3418-.144.736-.144 1.1826v.2871c0 .3509.048.6813.144.9912.1.3054.244.5743.43.8067.192.2324.422.4147.691.5468.273.1322.583.1983.929.1983.447 0 .825-.0912 1.135-.2734.31-.1823.581-.4262.814-.7315l.765.6084c-.159.2415-.362.4717-.608.6904-.246.2188-.549.3965-.909.5332-.356.1364-.777.2054-1.265.2054zm9.201-7.5335v7.3965h-1.271v-7.3965zm-1.367-1.9619c0-.2051.062-.3783.185-.5195.127-.1413.314-.2119.56-.2119.242 0 .426.0706.554.2119.132.1412.198.3144.198.5195 0 .196-.066.3646-.198.5059-.128.1367-.312.205-.554.205-.246 0-.433-.0683-.56-.205-.123-.1413-.185-.3099-.185-.5059zm4.662 3.541v5.8174h-1.264v-7.3965h1.196zm-.301 1.8389-.526-.0205c.005-.5059.08-.973.226-1.4014.146-.4329.351-.8089.615-1.1279s.579-.5651.943-.7383c.369-.1777.777-.2666 1.224-.2666.364 0 .693.0501.984.1504.292.0957.54.2506.745.4648.21.2142.37.4922.479.834.109.3373.164.7497.164 1.2373v4.8467h-1.272v-4.8604c0-.3873-.056-.6972-.17-.9296-.114-.237-.281-.4079-.499-.5127-.219-.1094-.488-.1641-.807-.1641-.315 0-.602.0661-.861.1982-.256.1322-.477.3145-.663.5469-.183.2324-.326.499-.431.7998-.1.2962-.151.6107-.151.9434zm11.512-1.9961v8.8186h-1.271v-10.2405h1.162zm4.984 2.2148v.1436c0 .5377-.064 1.0368-.192 1.4971-.127.4557-.314.8522-.56 1.1894-.242.3373-.54.5993-.896.7861-.355.1866-.763.2806-1.224.2806-.469 0-.884-.078-1.244-.2327-.36-.155-.665-.3805-.916-.6768-.25-.2962-.451-.6517-.601-1.0664-.146-.4147-.246-.8818-.301-1.4013v-.7657c.055-.5468.157-1.0367.308-1.4697.15-.4329.348-.8021.594-1.1074.251-.3099.554-.5446.909-.7041.356-.1641.766-.2461 1.231-.2461s.877.0911 1.237.2734c.36.1778.663.433.909.7657.247.3326.431.7314.554 1.1962.128.4603.192.973.192 1.5381zm-1.272.1436v-.1436c0-.3691-.039-.7155-.116-1.039-.078-.3282-.198-.6153-.362-.8614-.16-.2506-.365-.4466-.616-.5878-.25-.1459-.549-.2188-.895-.2188-.319 0-.597.0547-.834.1641-.233.1093-.431.2575-.595.4443-.164.1823-.298.3919-.403.6289-.1.2324-.176.474-.226.7246v1.7705c.091.319.219.6198.383.9024.164.278.383.5035.656.6767.274.1686.618.253 1.032.253.342 0 .636-.0707.882-.212.251-.1458.456-.344.616-.5947.164-.2506.284-.5377.362-.8613.077-.3281.116-.6768.116-1.0459zm4.149-2.6182v6.2344h-1.264v-7.3965h1.23zm2.311-1.2031-.007 1.1758c-.105-.0228-.205-.0365-.301-.041-.091-.0091-.196-.0137-.314-.0137-.292 0-.549.0456-.772.1367-.224.0912-.413.2188-.568.3828-.155.1641-.278.3601-.369.5879-.087.2233-.144.4694-.171.7383l-.355.2051c0-.4466.043-.8659.13-1.2578.091-.392.23-.7383.416-1.0391.187-.3053.424-.5423.711-.7109.292-.1732.638-.2598 1.039-.2598.092 0 .196.0114.315.0342.118.0182.2.0387.246.0615zm.697 3.8213v-.1572c0-.5332.078-1.0277.233-1.4834.155-.4603.378-.8591.67-1.1963.291-.3418.645-.6061 1.059-.793.415-.1914.88-.2871 1.395-.2871.519 0 .986.0957 1.401.2871.419.1869.775.4512 1.067.793.296.3372.521.736.676 1.1963.155.4557.233.9502.233 1.4834v.1572c0 .5332-.078 1.0277-.233 1.4834s-.38.8545-.676 1.1963c-.292.3372-.645.6015-1.06.7929-.41.1866-.875.2806-1.395.2806-.519 0-.986-.094-1.401-.2806-.415-.1914-.77-.4557-1.066-.7929-.292-.3418-.515-.7406-.67-1.1963s-.233-.9502-.233-1.4834zm1.265-.1572v.1572c0 .3691.043.7178.13 1.0459.086.3236.216.6107.389.8613.178.2507.399.4489.664.5947.264.1413.572.212.922.212.347 0 .65-.0707.91-.212.264-.1458.483-.344.656-.5947.173-.2506.303-.5377.39-.8613.091-.3281.136-.6768.136-1.0459v-.1572c0-.3646-.045-.7087-.136-1.0323-.087-.3281-.219-.6175-.397-.8681-.173-.2552-.392-.4558-.656-.6016-.26-.1458-.565-.2187-.916-.2187-.347 0-.652.0729-.916.2187-.26.1458-.479.3464-.657.6016-.173.2506-.303.54-.389.8681-.087.3236-.13.6677-.13 1.0323zm10.015 2.8711c.3 0 .578-.0616.834-.1846.255-.1231.464-.2917.628-.5059.165-.2187.258-.4671.281-.7451h1.203c-.023.4375-.171.8454-.444 1.2236-.269.3737-.623.6768-1.06.9092-.438.2281-.918.3421-1.442.3421-.556 0-1.042-.098-1.456-.2942-.411-.196-.752-.4649-1.026-.8067-.269-.3418-.472-.7337-.608-1.1757-.132-.4467-.198-.9183-.198-1.4151v-.2871c0-.4967.066-.9661.198-1.4082.136-.4466.339-.8408.608-1.1826.274-.3418.615-.6107 1.026-.8067.414-.1959.9-.2939 1.456-.2939.578 0 1.084.1185 1.517.3555.433.2324.773.5514 1.019.957.25.401.387.8568.41 1.3672h-1.203c-.023-.3054-.11-.5811-.26-.8272-.146-.2461-.346-.442-.602-.5879-.25-.1503-.544-.2255-.881-.2255-.388 0-.714.0774-.978.2324-.26.1504-.467.3555-.622.6152-.15.2552-.26.5401-.328.8545-.064.3099-.096.6266-.096.9502v.2871c0 .3236.032.6426.096.957.064.3145.171.5993.321.8545.155.2552.362.4603.622.6153.265.1504.593.2256.985.2256zm7.437 1.0393c-.515 0-.982-.087-1.401-.26-.415-.1778-.773-.4262-1.074-.7452-.296-.319-.524-.6972-.683-1.1347-.16-.4375-.239-.916-.239-1.4356v-.2871c0-.6015.089-1.137.266-1.6064.178-.474.42-.875.725-1.2032.305-.3281.652-.5765 1.039-.7451s.788-.2529 1.203-.2529c.529 0 .984.0911 1.367.2734.388.1823.704.4375.95.7657.247.3235.429.7063.547 1.1484.119.4375.178.916.178 1.4355v.5674h-5.523v-1.0322h4.258v-.0957c-.018-.3281-.086-.6471-.205-.957-.114-.3099-.296-.5651-.547-.7657-.25-.2005-.592-.3007-1.025-.3007-.287 0-.551.0615-.793.1845-.241.1185-.449.2963-.622.5332-.173.237-.308.5264-.403.8682-.096.3418-.144.736-.144 1.1826v.2871c0 .3509.048.6813.144.9912.1.3054.243.5743.43.8067.192.2324.422.4147.691.5468.273.1322.583.1983.929.1983.447 0 .825-.0912 1.135-.2734.31-.1823.581-.4262.814-.7315l.765.6084c-.159.2415-.362.4717-.608.6904-.246.2188-.549.3965-.909.5332-.356.1364-.777.2054-1.265.2054zm8.661-2.0989c0-.1823-.041-.3509-.123-.5059-.077-.1595-.239-.303-.485-.4306-.242-.1322-.606-.2461-1.094-.3418-.41-.0866-.781-.1892-1.114-.3077-.328-.1184-.609-.262-.841-.4306-.228-.1686-.403-.3669-.526-.5947-.123-.2279-.185-.4945-.185-.7998 0-.2917.064-.5674.191-.8272.133-.2598.317-.4899.554-.6904.242-.2005.531-.3578.868-.4717.338-.1139.714-.1709 1.128-.1709.593 0 1.099.1048 1.518.3144.419.2097.74.49.964.8409.223.3463.335.7314.335 1.1552h-1.265c0-.205-.061-.4033-.185-.5947-.118-.1959-.293-.3577-.526-.4853-.228-.1276-.508-.1914-.841-.1914-.351 0-.635.0546-.854.164-.214.1048-.372.2393-.472.4033-.096.1641-.143.3373-.143.5196 0 .1367.022.2597.068.3691.05.1048.137.2028.26.294.123.0865.296.1686.519.2461.224.0774.508.1549.855.2324.606.1367 1.105.3008 1.497.4922s.683.4261.875.7041c.191.278.287.6152.287 1.0117 0 .3236-.068.6198-.205.8887-.132.2688-.326.5013-.581.6972-.251.1914-.552.3418-.903.4512-.346.1045-.736.1575-1.169.1575-.651 0-1.203-.116-1.654-.3489-.451-.2324-.793-.5332-1.025-.9024-.233-.3691-.349-.7587-.349-1.1689h1.272c.018.3464.118.6221.3.8271.183.2006.406.3441.67.4307.265.082.527.1231.786.1231.347 0 .636-.0456.869-.1368.237-.0911.417-.2164.54-.3759s.184-.3418.184-.5469zm7.233 0c0-.1823-.041-.3509-.123-.5059-.078-.1595-.24-.303-.486-.4306-.241-.1322-.606-.2461-1.093-.3418-.411-.0866-.782-.1892-1.115-.3077-.328-.1184-.608-.262-.841-.4306-.227-.1686-.403-.3669-.526-.5947-.123-.2279-.185-.4945-.185-.7998 0-.2917.064-.5674.192-.8272.132-.2598.317-.4899.554-.6904.241-.2005.531-.3578.868-.4717s.713-.1709 1.128-.1709c.592 0 1.098.1048 1.517.3144.42.2097.741.49.964.8409.223.3463.335.7314.335 1.1552h-1.265c0-.205-.061-.4033-.184-.5947-.119-.1959-.294-.3577-.526-.4853-.228-.1276-.509-.1914-.841-.1914-.351 0-.636.0546-.855.164-.214.1048-.371.2393-.471.4033-.096.1641-.144.3373-.144.5196 0 .1367.023.2597.068.3691.05.1048.137.2028.26.294.123.0865.296.1686.52.2461.223.0774.508.1549.854.2324.606.1367 1.105.3008 1.497.4922s.684.4261.875.7041c.192.278.287.6152.287 1.0117 0 .3236-.068.6198-.205.8887-.132.2688-.326.5013-.581.6972-.25.1914-.551.3418-.902.4512-.347.1045-.736.1575-1.169.1575-.652 0-1.203-.116-1.654-.3489-.452-.2324-.793-.5332-1.026-.9024-.232-.3691-.348-.7587-.348-1.1689h1.271c.018.3464.119.6221.301.8271.182.2006.405.3441.67.4307.264.082.526.1231.786.1231.346 0 .636-.0456.868-.1368.237-.0911.417-.2164.54-.3759s.185-.3418.185-.5469zm2.946 1.292c0-.2142.066-.3942.198-.5401.137-.1504.333-.2255.588-.2255s.449.0751.581.2255c.137.1459.205.3259.205.5401 0 .2096-.068.3873-.205.5332-.132.1457-.326.2187-.581.2187s-.451-.073-.588-.2187c-.132-.1459-.198-.3236-.198-.5332z" fill="#fff"/><g filter="url(#a)"><path d="m16.9828 40.9502v1zm-10.00001 10h1zm-.00001 161.8148h-1zm10.00002 10v-1zm220.5662.001v1c.199 0 .394-.06.56-.172zm.206-5.33c-2.944-.113-5.422 2.181-5.535 5.124-.113 2.944 2.181 5.422 5.125 5.535 2.943.113 5.421-2.181 5.534-5.125.113-2.943-2.181-5.421-5.124-5.534zm-127.657-177.4858c-.553 0-1 .4477-1 1s.447 1 1 1zm-9.802 2c.552 0 1-.4477 1-1s-.448-1-1-1zm-9.8015-2c-.5523 0-1 .4477-1 1s.4477 1 1 1zm-9.8016 2c.5523 0 1-.4477 1-1s-.4477-1-1-1zm-9.8015-2c-.5523 0-1 .4477-1 1s.4477 1 1 1zm-9.8016 2c.5523 0 1-.4477 1-1s-.4477-1-1-1zm-9.8016-2c-.5522 0-1 .4477-1 1s.4478 1 1 1zm-9.8015 2c.5523 0 1-.4477 1-1s-.4477-1-1-1zm-9.8016-2c-.5523 0-1 .4477-1 1s.4477 1 1 1zm-9.8015 2c.5523 0 1-.4477 1-1s-.4477-1-1-1zm-9.1118-1.1649c-.5101.2115-.7522.7966-.5406 1.3068.2115.5101.7966.7522 1.3068.5406zm-4.10649 6.7201c.21156-.5102-.03051-1.0952-.54067-1.3068s-1.09522.0305-1.30678.5407zm-2.68253 8.5015c0 .5523.44772 1 1 1 .55229 0 1-.4477 1-1zm2 10.1135c0-.5523-.44771-1-1-1-.55228 0-1 .4477-1 1zm-2 10.1134c0 .5523.44772 1 1 1 .55229 0 1-.4477 1-1zm2 10.1135c0-.5523-.44771-1-1-1-.55228 0-1 .4477-1 1zm-2 10.1134c0 .5523.44772 1 1 1 .55229 0 1-.4477 1-1zm2 10.1133c0-.552-.44771-1-1-1-.55228 0-1 .448-1 1zm-2 10.114c0 .552.44772 1 1 1 .55229 0 1-.448 1-1zm2 10.113c0-.552-.44771-1-1-1-.55228 0-1 .448-1 1zm-2 10.113c0 .553.44772 1 1 1 .55229 0 1-.447 1-1zm2 10.114c0-.552-.44771-1-1-1-.55228 0-1 .448-1 1zm-2 10.113c0 .553.44772 1 1 1 .55229 0 1-.447 1-1zm2 10.114c0-.552-.44771-1-1-1-.55228 0-1 .448-1 1zm-2 10.113c0 .553.44772 1 1 1 .55229 0 1-.447 1-1zm2 10.114c0-.553-.44771-1-1-1-.55228 0-1 .447-1 1zm-2 10.113c0 .552.44772 1 1 1 .55229 0 1-.448 1-1zm2 10.114c0-.553-.44772-1-1-1s-1 .447-1 1zm-1.16492 9.267c.21156.51.79662.752 1.30678.541.51016-.212.75223-.797.54067-1.307zm6.72004 4.107c-.5101-.212-1.0952.03-1.3067.54-.2116.511.0305 1.096.5406 1.307zm8.4577 2.682c.5523 0 1-.447 1-1 0-.552-.4477-1-1-1zm10.0257-2c-.5522 0-1 .448-1 1 0 .553.4478 1 1 1zm10.0258 2c.5522 0 1-.447 1-1 0-.552-.4477-1-1-1zm10.0257-2c-.5523 0-1 .448-1 1 0 .553.4477 1 1 1zm10.0257 2c.5523 0 1-.447 1-1 0-.552-.4477-1-1-1zm10.0257-2c-.5522 0-1 .448-1 1 0 .553.4477 1 1 1zm10.0258 2.001c.5522 0 1-.448 1-1 0-.553-.4478-1-1-1zm10.0257-2c-.5523 0-1 .447-1 1 0 .552.4477 1 1 1zm10.0253 2c.553 0 1-.448 1-1 0-.553-.447-1-1-1zm10.026-2c-.552 0-1 .447-1 1 0 .552.448 1 1 1zm10.026 2c.552 0 1-.448 1-1 0-.553-.448-1-1-1zm10.026-2c-.553 0-1 .447-1 1 0 .552.447 1 1 1zm10.025 2c.553 0 1-.448 1-1 0-.553-.447-1-1-1zm10.026-2c-.552 0-1 .447-1 1 0 .552.448 1 1 1zm10.026 2c.552 0 1-.448 1-1 0-.553-.448-1-1-1zm10.025-2c-.552 0-1 .447-1 1 0 .552.448 1 1 1zm10.026 2c.553 0 1-.448 1-1s-.447-1-1-1zm10.026-2c-.552 0-1 .448-1 1s.448 1 1 1zm10.026 2c.552 0 1-.448 1-1s-.448-1-1-1zm10.025-2c-.552 0-1 .448-1 1s.448 1 1 1zm10.026 2c.552 0 1-.448 1-1s-.448-1-1-1zm10.026-2c-.552 0-1 .448-1 1s.448 1 1 1zm5.573 1.828c.458-.309.578-.931.268-1.388-.309-.458-.931-.578-1.388-.269zm-1.12-1.657c-.457.31-.577.931-.268 1.389.309.457.931.577 1.388.268zm-121.991-181.9868h-4.9v2h4.9zm-14.702 0h-9.8015v2h9.8015zm-19.6031 0h-9.8015v2h9.8015zm-19.6031 0h-9.8016v2h9.8016zm-19.6031 0h-9.8016v2h9.8016zm-19.6031 0h-4.9008v2h4.9008zm-4.9008 0c-1.4897 0-2.9126.2967-4.211.8351l.7662 1.8474c1.0597-.4394 2.2226-.6825 3.4448-.6825zm-10.16494 6.7891c-.53841 1.2983-.83508 2.7212-.83508 4.2109h2.00001c-.00001-1.2222.24305-2.385.68252-3.4448zm-.83508 4.2109v5.0567h2l.00001-5.0567zm0 15.1702v10.1134h2v-10.1134zm0 20.2269v10.1134h2v-10.1134zm0 20.2267v10.114h2v-10.114zm0 20.227v10.113h2v-10.113zm0 20.227v10.113h2v-10.113zm0 20.227v10.113h2v-10.113zm0 20.227v10.113h2v-10.113zm0 20.227v5.056h2v-5.056zm0 5.056c0 1.49.29667 2.913.83508 4.211l1.84745-.766c-.43947-1.06-.68253-2.223-.68253-3.445zm6.78902 10.165c1.2984.539 2.7213.835 4.211.835v-2c-1.2222 0-2.3851-.243-3.4449-.682zm4.211.835h5.0128v-2h-5.0128zm15.0385 0h10.0258v-2h-10.0258zm20.0515 0h10.0257v-2h-10.0257zm20.0514 0 10.0258.001v-2l-10.0258-.001zm20.0515.001h10.0253v-2h-10.0253zm20.0513 0h10.026v-2h-10.026zm20.052 0h10.025v-2h-10.025zm20.051 0h10.026v-2h-10.026zm20.051 0h10.026v-2h-10.026zm20.052 0h10.026v-2h-10.026zm20.051 0h10.026v-2h-10.026zm20.052 0h5.013v-2h-5.013zm5.573-.172-1.12-1.657-.001.001zm0 0h.001l-1.121-1.657zm-221.1262-182.6438v1zm-10.00001 10h1zm-.00001 161.8148h-1zm10.00002 10v-1zm220.5662.001v1c.199 0 .394-.06.56-.172zm.206-5.33c-2.944-.113-5.422 2.181-5.535 5.124-.113 2.944 2.181 5.422 5.125 5.535 2.943.113 5.421-2.181 5.534-5.125.113-2.943-2.181-5.421-5.124-5.534zm-127.657-177.4858c-.553 0-1 .4477-1 1s.447 1 1 1zm-9.802 2c.552 0 1-.4477 1-1s-.448-1-1-1zm-9.8015-2c-.5523 0-1 .4477-1 1s.4477 1 1 1zm-9.8016 2c.5523 0 1-.4477 1-1s-.4477-1-1-1zm-9.8015-2c-.5523 0-1 .4477-1 1s.4477 1 1 1zm-9.8016 2c.5523 0 1-.4477 1-1s-.4477-1-1-1zm-9.8016-2c-.5522 0-1 .4477-1 1s.4478 1 1 1zm-9.8015 2c.5523 0 1-.4477 1-1s-.4477-1-1-1zm-9.8016-2c-.5523 0-1 .4477-1 1s.4477 1 1 1zm-9.8015 2c.5523 0 1-.4477 1-1s-.4477-1-1-1zm-9.1118-1.1649c-.5101.2115-.7522.7966-.5406 1.3068.2115.5101.7966.7522 1.3068.5406zm-4.10649 6.7201c.21156-.5102-.03051-1.0952-.54067-1.3068s-1.09522.0305-1.30678.5407zm-2.68253 8.5015c0 .5523.44772 1 1 1 .55229 0 1-.4477 1-1zm2 10.1135c0-.5523-.44771-1-1-1-.55228 0-1 .4477-1 1zm-2 10.1134c0 .5523.44772 1 1 1 .55229 0 1-.4477 1-1zm2 10.1135c0-.5523-.44771-1-1-1-.55228 0-1 .4477-1 1zm-2 10.1134c0 .5523.44772 1 1 1 .55229 0 1-.4477 1-1zm2 10.1133c0-.552-.44771-1-1-1-.55228 0-1 .448-1 1zm-2 10.114c0 .552.44772 1 1 1 .55229 0 1-.448 1-1zm2 10.113c0-.552-.44771-1-1-1-.55228 0-1 .448-1 1zm-2 10.113c0 .553.44772 1 1 1 .55229 0 1-.447 1-1zm2 10.114c0-.552-.44771-1-1-1-.55228 0-1 .448-1 1zm-2 10.113c0 .553.44772 1 1 1 .55229 0 1-.447 1-1zm2 10.114c0-.552-.44771-1-1-1-.55228 0-1 .448-1 1zm-2 10.113c0 .553.44772 1 1 1 .55229 0 1-.447 1-1zm2 10.114c0-.553-.44771-1-1-1-.55228 0-1 .447-1 1zm-2 10.113c0 .552.44772 1 1 1 .55229 0 1-.448 1-1zm2 10.114c0-.553-.44772-1-1-1s-1 .447-1 1zm-1.16492 9.267c.21156.51.79662.752 1.30678.541.51016-.212.75223-.797.54067-1.307zm6.72004 4.107c-.5101-.212-1.0952.03-1.3067.54-.2116.511.0305 1.096.5406 1.307zm8.4577 2.682c.5523 0 1-.447 1-1 0-.552-.4477-1-1-1zm10.0257-2c-.5522 0-1 .448-1 1 0 .553.4478 1 1 1zm10.0258 2c.5522 0 1-.447 1-1 0-.552-.4477-1-1-1zm10.0257-2c-.5523 0-1 .448-1 1 0 .553.4477 1 1 1zm10.0257 2c.5523 0 1-.447 1-1 0-.552-.4477-1-1-1zm10.0257-2c-.5522 0-1 .448-1 1 0 .553.4477 1 1 1zm10.0258 2.001c.5522 0 1-.448 1-1 0-.553-.4478-1-1-1zm10.0257-2c-.5523 0-1 .447-1 1 0 .552.4477 1 1 1zm10.0253 2c.553 0 1-.448 1-1 0-.553-.447-1-1-1zm10.026-2c-.552 0-1 .447-1 1 0 .552.448 1 1 1zm10.026 2c.552 0 1-.448 1-1 0-.553-.448-1-1-1zm10.026-2c-.553 0-1 .447-1 1 0 .552.447 1 1 1zm10.025 2c.553 0 1-.448 1-1 0-.553-.447-1-1-1zm10.026-2c-.552 0-1 .447-1 1 0 .552.448 1 1 1zm10.026 2c.552 0 1-.448 1-1 0-.553-.448-1-1-1zm10.025-2c-.552 0-1 .447-1 1 0 .552.448 1 1 1zm10.026 2c.553 0 1-.448 1-1s-.447-1-1-1zm10.026-2c-.552 0-1 .448-1 1s.448 1 1 1zm10.026 2c.552 0 1-.448 1-1s-.448-1-1-1zm10.025-2c-.552 0-1 .448-1 1s.448 1 1 1zm10.026 2c.552 0 1-.448 1-1s-.448-1-1-1zm10.026-2c-.552 0-1 .448-1 1s.448 1 1 1zm5.573 1.828c.458-.309.578-.931.268-1.388-.309-.458-.931-.578-1.388-.269zm-1.12-1.657c-.457.31-.577.931-.268 1.389.309.457.931.577 1.388.268zm-121.991-181.9868h-4.9v2h4.9zm-14.702 0h-9.8015v2h9.8015zm-19.6031 0h-9.8015v2h9.8015zm-19.6031 0h-9.8016v2h9.8016zm-19.6031 0h-9.8016v2h9.8016zm-19.6031 0h-4.9008v2h4.9008zm-4.9008 0c-1.4897 0-2.9126.2967-4.211.8351l.7662 1.8474c1.0597-.4394 2.2226-.6825 3.4448-.6825zm-10.16494 6.7891c-.53841 1.2983-.83508 2.7212-.83508 4.2109h2.00001c-.00001-1.2222.24305-2.385.68252-3.4448zm-.83508 4.2109v5.0567h2l.00001-5.0567zm0 15.1702v10.1134h2v-10.1134zm0 20.2269v10.1134h2v-10.1134zm0 20.2267v10.114h2v-10.114zm0 20.227v10.113h2v-10.113zm0 20.227v10.113h2v-10.113zm0 20.227v10.113h2v-10.113zm0 20.227v10.113h2v-10.113zm0 20.227v5.056h2v-5.056zm0 5.056c0 1.49.29667 2.913.83508 4.211l1.84745-.766c-.43947-1.06-.68253-2.223-.68253-3.445zm6.78902 10.165c1.2984.539 2.7213.835 4.211.835v-2c-1.2222 0-2.3851-.243-3.4449-.682zm4.211.835h5.0128v-2h-5.0128zm15.0385 0h10.0258v-2h-10.0258zm20.0515 0h10.0257v-2h-10.0257zm20.0514 0 10.0258.001v-2l-10.0258-.001zm20.0515.001h10.0253v-2h-10.0253zm20.0513 0h10.026v-2h-10.026zm20.052 0h10.025v-2h-10.025zm20.051 0h10.026v-2h-10.026zm20.051 0h10.026v-2h-10.026zm20.052 0h10.026v-2h-10.026zm20.051 0h10.026v-2h-10.026zm20.052 0h5.013v-2h-5.013zm5.573-.172-1.12-1.657-.001.001zm0 0h.001l-1.121-1.657z" fill="#6b4d68"/></g><rect fill="#ff626e" height="52" rx="26" width="52" x="132.047" y="2"/><path d="m155.213 31.5361h-4.251v4.2431" stroke="#fff" stroke-linecap="round" stroke-linejoin="round" stroke-width="2"/><path d="m160.881 24.4644h4.25v-4.2431" stroke="#fff" stroke-linecap="round" stroke-linejoin="round" stroke-width="2"/><path d="m151.104 31.5361c1.289 2.5188 3.914 4.2431 6.943 4.2431 3.028 0 5.653-1.7243 6.943-4.2431" stroke="#fff" stroke-linecap="round" stroke-linejoin="round" stroke-width="2"/><path d="m150.962 24.4643c1.29-2.5188 3.915-4.2431 6.943-4.2431 3.029 0 5.654 1.7243 6.944 4.2431" stroke="#fff" stroke-linecap="round" stroke-width="2"/><g fill="url(#c)"><path d="m268.692 239.505h-7.984l.049-6.677h7.935c1.647 0 3.04-.396 4.177-1.188 1.153-.791 2.027-1.97 2.62-3.536.61-1.583.915-3.529.915-5.837v-1.558c0-1.732-.173-3.249-.519-4.551-.33-1.319-.824-2.416-1.484-3.29-.659-.89-1.483-1.558-2.471-2.003-.973-.445-2.093-.668-3.362-.668h-8.009v-6.702h8.009c2.439 0 4.672.42 6.699 1.261 2.043.824 3.806 2.012 5.289 3.562 1.5 1.533 2.653 3.355 3.461 5.465.824 2.094 1.236 4.419 1.236 6.975v1.509c0 2.539-.412 4.864-1.236 6.974-.808 2.111-1.953 3.933-3.436 5.466-1.483 1.534-3.238 2.721-5.265 3.562-2.01.824-4.219 1.236-6.624 1.236zm-3.016-36.01v36.01h-8.676v-36.01z"/><path d="m314.543 232.828v6.677h-19.181v-6.677zm-16.091-29.333v36.01h-8.676v-36.01zm13.62 14.295v6.455h-16.71v-6.455zm2.546-14.295v6.702h-19.256v-6.702z"/><path d="m336.023 203.495v36.01h-8.676v-36.01zm10.827 0v6.702h-30.082v-6.702z"/><path d="m362.768 211.063-8.775 28.442h-9.318l13.224-36.01h5.907zm7.267 28.442-8.799-28.442-1.137-7.568h5.981l13.299 36.01zm-.346-13.429v6.702h-18.464v-6.702z"/><path d="m391.243 203.495v36.01h-8.651v-36.01z"/><path d="m421.127 232.828v6.677h-18.192v-6.677zm-15.102-29.333v36.01h-8.676v-36.01z"/><path d="m443.324 229.934c0-.561-.082-1.064-.247-1.509-.165-.462-.47-.89-.915-1.286s-1.087-.791-1.928-1.187c-.824-.412-1.911-.841-3.263-1.286-1.581-.528-3.106-1.121-4.572-1.781-1.467-.676-2.777-1.459-3.93-2.35-1.154-.906-2.069-1.962-2.744-3.165-.676-1.22-1.014-2.638-1.014-4.254 0-1.55.346-2.944 1.039-4.18.692-1.253 1.656-2.317 2.892-3.191 1.252-.89 2.719-1.566 4.399-2.028 1.681-.478 3.519-.717 5.512-.717 2.637 0 4.961.462 6.971 1.385 2.027.907 3.609 2.201 4.746 3.883 1.153 1.665 1.73 3.636 1.73 5.911h-8.627c0-.907-.189-1.706-.568-2.399-.363-.692-.915-1.237-1.656-1.632-.742-.396-1.673-.594-2.793-.594-1.088 0-2.002.165-2.744.495s-1.302.775-1.681 1.335c-.379.544-.568 1.146-.568 1.806 0 .544.148 1.039.445 1.484.313.428.749.832 1.31 1.212.576.379 1.268.742 2.076 1.088.824.346 1.747.684 2.768 1.014 1.912.61 3.609 1.294 5.092 2.053 1.5.742 2.76 1.591 3.782 2.547 1.038.94 1.821 2.012 2.348 3.215.544 1.204.816 2.564.816 4.081 0 1.616-.313 3.051-.939 4.304s-1.525 2.316-2.695 3.19c-1.17.858-2.57 1.509-4.202 1.954-1.631.445-3.452.668-5.462.668-1.846 0-3.667-.231-5.463-.693-1.78-.478-3.395-1.203-4.845-2.176-1.45-.989-2.612-2.251-3.485-3.784-.857-1.55-1.285-3.388-1.285-5.515h8.701c0 1.055.14 1.945.42 2.671.28.725.692 1.311 1.236 1.756.543.428 1.211.742 2.002.94.791.181 1.697.272 2.719.272 1.104 0 1.994-.157 2.669-.47.676-.33 1.17-.759 1.483-1.286.313-.545.47-1.138.47-1.781z"/></g></g></svg>