<svg fill="none" height="120" viewBox="0 0 121 120" width="121" xmlns="http://www.w3.org/2000/svg" xmlns:xlink="http://www.w3.org/1999/xlink"><linearGradient id="a"><stop offset=".41" stop-color="#e35760"/><stop offset="1" stop-color="#302634"/></linearGradient><radialGradient id="b" cx="0" cy="0" gradientTransform="matrix(-.01161195 33.60179799 -12.21529927 -.0042213 47.1786 43)" gradientUnits="userSpaceOnUse" r="1" xlink:href="#a"/><radialGradient id="c" cx="0" cy="0" gradientTransform="matrix(-.01161195 33.60179799 -12.21529927 -.0042213 74.1786 43)" gradientUnits="userSpaceOnUse" r="1" xlink:href="#a"/><radialGradient id="d" cx="0" cy="0" gradientTransform="matrix(58.99999685 -8.00000398 41.39128929 305.26059046 60.667 13)" gradientUnits="userSpaceOnUse" r="1"><stop offset=".0731776" stop-color="#dd565f"/><stop offset="1" stop-color="#432c39" stop-opacity="0"/></radialGradient><radialGradient id="e" cx="0" cy="0" gradientTransform="matrix(.05187268 -60.90337791 54.49888023 .04641783 60.6151 75)" gradientUnits="userSpaceOnUse" r="1"><stop offset="0" stop-color="#e35760"/><stop offset="1" stop-color="#302634"/></radialGradient><linearGradient id="f" gradientUnits="userSpaceOnUse" x1="60.667" x2="60.667" y1="17" y2="46"><stop offset="0" stop-color="#fff"/><stop offset="1" stop-color="#fdc8cc" stop-opacity="0"/></linearGradient><linearGradient id="g"><stop offset=".758594" stop-color="#5d3548"/><stop offset=".824081" stop-color="#e35760"/><stop offset=".884111" stop-color="#5d3548"/></linearGradient><linearGradient id="h" gradientUnits="userSpaceOnUse" x1="54.667" x2="78.6668" xlink:href="#g" y1="20" y2="19.9246"/><linearGradient id="i" gradientUnits="userSpaceOnUse" x1="57.667" x2="69.667" xlink:href="#g" y1="17" y2="16.9812"/><linearGradient id="j" gradientUnits="userSpaceOnUse" x1="26.667" x2="162.663" xlink:href="#g" y1="59.3333" y2="58.6071"/><linearGradient id="k"><stop offset="0" stop-color="#e35760"/><stop offset="1" stop-color="#6b4d68"/></linearGradient><linearGradient id="l" gradientUnits="userSpaceOnUse" x1="128.667" x2="128.667" xlink:href="#k" y1="56" y2="66"/><radialGradient id="m" cx="0" cy="0" gradientTransform="matrix(-59.99159945 8.00032565 -40.73282167 -305.44095708 60.167 106.065)" gradientUnits="userSpaceOnUse" r="1"><stop offset=".0731776" stop-color="#6f4b70"/><stop offset="1" stop-color="#3e2e42" stop-opacity="0"/></radialGradient><radialGradient id="n" cx="0" cy="0" gradientTransform="matrix(-.05194615 62.13557829 -54.49888095 -.04556177 60.8703 43)" gradientUnits="userSpaceOnUse" r="1"><stop offset="0" stop-color="#81557e"/><stop offset="1" stop-color="#36293b"/></radialGradient><linearGradient id="o" gradientUnits="userSpaceOnUse" x1="60.8184" x2="60.8184" y1="72" y2="101"><stop offset="0" stop-color="#fff" stop-opacity="0"/><stop offset="1" stop-color="#fff"/></linearGradient><linearGradient id="p"><stop offset=".610838" stop-color="#3d2d41"/><stop offset=".673151" stop-color="#704c71"/><stop offset=".745849" stop-color="#3e2e43"/></linearGradient><linearGradient id="q" gradientUnits="userSpaceOnUse" x1="41.8633" x2="65.863" xlink:href="#p" y1="99.981" y2="99.9056"/><linearGradient id="r" gradientUnits="userSpaceOnUse" x1="50.9727" x2="62.9726" xlink:href="#p" y1="102.979" y2="102.96"/><linearGradient id="s" gradientUnits="userSpaceOnUse" x1="-41.3652" x2="94.6309" xlink:href="#p" y1="65.3367" y2="64.6105"/><linearGradient id="t" gradientUnits="userSpaceOnUse" x1="60.6348" x2="60.6348" xlink:href="#k" y1="62.0034" y2="72.0034"/><clipPath id="u"><path d="m.666992 0h120v120h-120z"/></clipPath><g clip-path="url(#u)"><path d="m40.667 43h13v32h-13z" fill="url(#b)"/><path d="m67.667 43h13v32h-13z" fill="url(#c)"/><path d="m60.667 15.5v-1.5c0-5.52284 4.4771-10 10-10h49.5" stroke="url(#d)" stroke-width="2"/><path d="m31.667 46c0-7.6913 3.0553-15.0675 8.4939-20.5061 5.4385-5.4385 12.8148-8.4939 20.5061-8.4939s15.0675 3.0553 20.5061 8.4939c5.4385 5.4386 8.4939 12.8148 8.4939 20.5061h-29z" fill="url(#e)"/><path clip-rule="evenodd" d="m40.1609 25.4939c-5.4386 5.4386-8.4939 12.8148-8.4939 20.5061h.0172c.2526-7.3282 3.2743-14.3037 8.4767-19.5061 5.4385-5.4385 12.8148-8.4939 20.5061-8.4939s15.0675 3.0553 20.5061 8.4939c5.2024 5.2024 8.2241 12.1779 8.4767 19.5061h.0172c0-7.6913-3.0554-15.0675-8.4939-20.5061-5.4386-5.4386-12.8148-8.4939-20.5061-8.4939s-15.0676 3.0554-20.5061 8.4939z" fill="url(#f)" fill-opacity=".1" fill-rule="evenodd"/><rect fill="url(#h)" height="3" rx="1.5" transform="matrix(-1 0 -0 -1 133.334 38)" width="12" x="66.667" y="19"/><rect fill="url(#i)" height="3" rx="1" transform="matrix(-1 0 -0 -1 127.334 32)" width="6" x="63.667" y="16"/><rect fill="url(#j)" height="10" rx="4" transform="matrix(-1 0 -0 -1 189.334 112)" width="68" x="94.667" y="56"/><rect height="9.00001" rx="3.5" stroke="url(#l)" stroke-opacity=".2" transform="matrix(-1 0 -0 -1 188.334 111)" width="67" x="94.167" y="55.5"/><path d="m60.167 103.565v1.5c0 5.523-4.4772 10-10 10h-50.500008" stroke="url(#m)" stroke-width="2"/><path d="m89.8184 72c0 7.6913-3.0554 15.0675-8.4939 20.5061-5.4386 5.4386-12.8149 8.4939-20.5061 8.4939-7.6913 0-15.0676-3.0553-20.5061-8.4939-5.4386-5.4386-8.4939-12.8148-8.4939-20.5061h29z" fill="url(#n)"/><path clip-rule="evenodd" d="m31.8356 72h-.0172c0 7.6913 3.0553 15.0675 8.4939 20.5061 5.4385 5.4386 12.8148 8.4939 20.5061 8.4939 7.6912 0 15.0675-3.0553 20.5061-8.4939 5.4385-5.4386 8.4939-12.8148 8.4939-20.5061h-.0173c-.2526 7.3282-3.2742 14.3037-8.4766 19.5061-5.4386 5.4386-12.8149 8.4939-20.5061 8.4939-7.6913 0-15.0676-3.0553-20.5061-8.4939-5.2024-5.2024-8.2241-12.1779-8.4767-19.5061z" fill="url(#o)" fill-opacity=".2" fill-rule="evenodd"/><rect fill="url(#q)" height="3" rx="1.5" width="12" x="53.8633" y="98.981"/><rect fill="url(#r)" height="3" rx="1" width="6" x="56.9727" y="101.979"/><rect fill="url(#s)" height="10" rx="4" width="68" x="26.6348" y="62.0034"/><rect height="9.00001" rx="3.5" stroke="url(#t)" stroke-opacity=".2" width="67" x="27.1348" y="62.5034"/></g></svg>