<svg width="546" height="301" viewBox="0 0 546 301" fill="none" xmlns="http://www.w3.org/2000/svg">
<g opacity="0.6" filter="url(#filter0_f_4170_7452)">
<ellipse cx="284" cy="23" rx="324" ry="110" fill="#E35760" fill-opacity="0.5"/>
</g>
<rect x="202" y="89" width="306" height="56" rx="8" transform="rotate(-30 202 89)" fill="#E35760"/>
<path d="M293.451 72.1949L294.365 73.7781L289.122 76.8054L288.208 75.2222L293.451 72.1949ZM284.097 66.5716L289.785 76.4226L287.755 77.5945L282.067 67.7435L284.097 66.5716ZM290.311 68.3337L291.201 69.8763L286.641 72.5091L285.751 70.9665L290.311 68.3337ZM288.671 63.931L289.589 65.5209L284.352 68.5444L283.434 66.9544L288.671 63.931ZM291.533 62.2786L295.371 64.6454L295.241 60.138L297.561 58.7982L297.52 65.3354L303.323 68.6062L300.982 69.9578L297.051 67.5547L297.166 72.1609L294.812 73.5203L294.888 66.855L289.199 63.6263L291.533 62.2786ZM307.992 61.5532L310.015 60.3852C310.358 61.0717 310.515 61.7658 310.487 62.4675C310.464 63.1666 310.247 63.8271 309.836 64.4492C309.43 65.0686 308.823 65.6113 308.016 66.0775C307.384 66.4421 306.755 66.6606 306.13 66.7332C305.502 66.8012 304.891 66.7329 304.297 66.5282C303.709 66.3208 303.154 65.9796 302.633 65.5045C302.112 65.0294 301.643 64.431 301.227 63.7094L300.832 63.026C300.415 62.3043 300.134 61.5979 299.987 60.9066C299.843 60.2083 299.83 59.551 299.949 58.9348C300.073 58.316 300.322 57.7516 300.695 57.2415C301.068 56.7314 301.563 56.298 302.181 55.9412C303.002 55.4673 303.781 55.2164 304.516 55.1886C305.257 55.1581 305.933 55.3147 306.547 55.6582C307.164 55.9991 307.698 56.4852 308.146 57.1163L306.116 58.2881C305.865 57.9042 305.592 57.6138 305.298 57.4168C305.001 57.2152 304.675 57.124 304.319 57.143C303.965 57.1549 303.562 57.2911 303.111 57.5515C302.773 57.7468 302.514 57.9805 302.334 58.2527C302.154 58.5248 302.053 58.8389 302.03 59.1949C302.007 59.551 302.066 59.95 302.207 60.3919C302.35 60.8267 302.572 61.3057 302.874 61.8289L303.277 62.5258C303.571 63.0355 303.868 63.4621 304.169 63.8058C304.467 64.1449 304.772 64.4019 305.083 64.5769C305.397 64.7448 305.719 64.8234 306.05 64.8129C306.382 64.7953 306.729 64.6823 307.09 64.474C307.514 64.2292 307.824 63.9597 308.021 63.6655C308.218 63.3714 308.312 63.0496 308.303 62.7001C308.298 62.348 308.195 61.9657 307.992 61.5532ZM316.434 53.2517L317.348 54.8349L312.206 57.8036L311.292 56.2204L316.434 53.2517ZM309.577 51.8607L315.265 61.7117L313.235 62.8836L307.548 53.0325L309.577 51.8607ZM315.565 48.4036L321.253 58.2547L319.23 59.4226L313.542 49.5716L315.565 48.4036ZM322.431 46.686L324.466 56.3992L322.308 57.6453L320.281 45.681L321.654 44.888L322.431 46.686ZM329.372 53.5672L321.971 46.9516L320.782 45.3919L322.168 44.5911L331.537 52.3172L329.372 53.5672ZM327.133 49.9704L328.051 51.5604L322.848 54.5643L321.93 52.9743L327.133 49.9704ZM334.78 37.3099L340.467 47.1609L338.438 48.3328L330.667 44.0145L334.48 50.6179L332.45 51.7898L326.762 41.9388L328.792 40.7669L336.573 45.0881L332.757 38.4778L334.78 37.3099ZM347.068 36.4848L349.322 40.3887C349.276 40.6621 349.155 40.9996 348.96 41.401C348.762 41.7979 348.455 42.2188 348.038 42.6638C347.621 43.1089 347.054 43.5384 346.337 43.9525C345.701 44.3197 345.062 44.5506 344.419 44.6452C343.773 44.7352 343.144 44.6867 342.53 44.4995C341.922 44.3097 341.346 43.9802 340.805 43.511C340.261 43.0373 339.77 42.4216 339.333 41.6638L338.977 41.0481C338.54 40.2903 338.247 39.56 338.1 38.8572C337.957 38.1517 337.951 37.4905 338.082 36.8736C338.213 36.2568 338.47 35.6965 338.853 35.1928C339.236 34.6892 339.736 34.2589 340.354 33.9022C341.211 33.4074 341.996 33.141 342.707 33.1029C343.416 33.0603 344.057 33.2015 344.63 33.5265C345.204 33.8444 345.708 34.2995 346.14 34.8919L344.171 36.0287C343.929 35.7235 343.666 35.4873 343.383 35.3199C343.1 35.1526 342.787 35.0745 342.445 35.0857C342.107 35.0943 341.733 35.2171 341.322 35.4541C340.984 35.6494 340.722 35.8938 340.537 36.1873C340.353 36.4737 340.248 36.802 340.221 37.1723C340.195 37.5426 340.247 37.9513 340.379 38.3984C340.511 38.8455 340.727 39.3284 341.026 39.8471L341.389 40.4763C341.686 40.9905 341.999 41.4174 342.327 41.7571C342.653 42.0922 342.991 42.3391 343.341 42.4977C343.693 42.6493 344.053 42.7094 344.42 42.678C344.786 42.6467 345.161 42.5203 345.545 42.299C345.865 42.1141 346.116 41.9334 346.296 41.7568C346.482 41.5777 346.618 41.412 346.704 41.2598C346.793 41.1005 346.852 40.964 346.882 40.8501L345.875 39.1045L344.021 40.1749L343.185 38.727L347.068 36.4848ZM357.375 35.2886L358.289 36.8719L353.045 39.8992L352.131 38.316L357.375 35.2886ZM348.021 29.6653L353.708 39.5164L351.678 40.6883L345.991 30.8372L348.021 29.6653ZM354.234 31.4275L355.125 32.9701L350.565 35.6029L349.674 34.0603L354.234 31.4275ZM352.594 27.0247L353.512 28.6147L348.276 31.6381L347.358 30.0482L352.594 27.0247ZM366.747 27.6313L368.77 26.4633C369.112 27.1498 369.269 27.8439 369.241 28.5456C369.218 29.2447 369.001 29.9053 368.59 30.5273C368.184 31.1467 367.577 31.6895 366.77 32.1556C366.138 32.5202 365.51 32.7388 364.884 32.8113C364.256 32.8794 363.645 32.811 363.052 32.6063C362.463 32.399 361.908 32.0577 361.387 31.5826C360.866 31.1076 360.398 30.5092 359.981 29.7875L359.586 29.1041C359.17 28.3824 358.888 27.676 358.742 26.9847C358.597 26.2864 358.585 25.6291 358.704 25.0129C358.828 24.3941 359.076 23.8297 359.449 23.3196C359.822 22.8096 360.318 22.3761 360.936 22.0194C361.757 21.5454 362.535 21.2945 363.271 21.2667C364.011 21.2363 364.688 21.3928 365.301 21.7363C365.919 22.0773 366.452 22.5633 366.901 23.1944L364.871 24.3663C364.619 23.9824 364.346 23.6919 364.052 23.4949C363.755 23.2934 363.429 23.2021 363.073 23.2211C362.719 23.233 362.317 23.3692 361.866 23.6296C361.527 23.8249 361.268 24.0587 361.089 24.3308C360.909 24.6029 360.808 24.917 360.785 25.2731C360.762 25.6291 360.821 26.0281 360.961 26.47C361.104 26.9048 361.327 27.3838 361.629 27.907L362.031 28.6039C362.325 29.1136 362.623 29.5402 362.923 29.8839C363.221 30.223 363.526 30.4801 363.838 30.655C364.151 30.8229 364.473 30.9016 364.804 30.8911C365.137 30.8734 365.483 30.7604 365.844 30.5521C366.268 30.3073 366.579 30.0378 366.776 29.7437C366.973 29.4495 367.067 29.1277 367.057 28.7782C367.052 28.4262 366.949 28.0439 366.747 27.6313ZM366.302 19.1107L369.976 16.9896C370.729 16.5547 371.441 16.2937 372.113 16.2068C372.789 16.1172 373.401 16.2088 373.949 16.4815C374.498 16.7543 374.958 17.2132 375.331 17.8582C375.635 18.3859 375.807 18.8913 375.845 19.3744C375.885 19.8503 375.816 20.3083 375.637 20.7484C375.46 21.1814 375.198 21.5973 374.851 21.9962L374.404 22.7055L371.21 24.5493L370.283 22.9739L372.657 21.6028C373.014 21.3971 373.273 21.1634 373.434 20.9016C373.596 20.6399 373.67 20.3625 373.657 20.0692C373.649 19.7734 373.559 19.4766 373.387 19.1789C373.205 18.8632 372.988 18.6241 372.738 18.4618C372.488 18.2995 372.208 18.2264 371.899 18.2427C371.59 18.2589 371.255 18.3712 370.894 18.5795L369.25 19.5287L374.019 27.7898L371.989 28.9617L366.302 19.1107ZM377.497 25.782L372.715 22.6879L374.852 21.436L379.614 24.4334L379.669 24.5281L377.497 25.782ZM376.207 13.3919L380.858 16.6969L380.321 11.0169L382.533 9.73956L382.91 17.8758L384.98 21.4617L382.923 22.6492L380.853 19.0633L373.988 14.6732L376.207 13.3919ZM390.929 13.3448L388.419 14.794L387.505 13.2108L390.015 11.7616C390.403 11.5376 390.683 11.2922 390.853 11.0252C391.021 10.7538 391.095 10.4705 391.075 10.1754C391.055 9.88024 390.962 9.58833 390.795 9.29966C390.626 9.00647 390.412 8.76614 390.153 8.57865C389.895 8.39116 389.599 8.29105 389.267 8.27832C388.935 8.26558 388.575 8.3712 388.187 8.59516L386.381 9.63812L391.15 17.8992L389.121 19.0711L383.433 9.22003L387.269 7.00519C388.041 6.55987 388.782 6.31819 389.494 6.28014C390.207 6.23497 390.852 6.37132 391.426 6.68919C392 7.00705 392.469 7.47947 392.831 8.10644C393.198 8.74243 393.369 9.37735 393.344 10.0112C393.319 10.6451 393.102 11.2484 392.693 11.8213C392.289 12.3916 391.701 12.8995 390.929 13.3448ZM396.768 1.52081L402.456 11.3719L400.433 12.5398L394.745 2.68878L396.768 1.52081ZM399.8 -0.229188L400.718 1.36078L392.68 6.00141L391.762 4.41144L399.8 -0.229188ZM411.57 -0.764176L411.839 -0.297334C412.272 0.451417 412.558 1.18208 412.699 1.89466C412.84 2.60724 412.846 3.28004 412.719 3.91307C412.588 4.54158 412.33 5.11478 411.943 5.63267C411.561 6.14796 411.059 6.58529 410.437 6.94467C409.819 7.30144 409.189 7.51775 408.547 7.59361C407.91 7.66686 407.284 7.60408 406.67 7.40525C406.053 7.20192 405.47 6.86245 404.918 6.38685C404.372 5.90865 403.882 5.29517 403.45 4.54642L403.18 4.07957C402.745 3.32631 402.459 2.59565 402.321 1.88758C402.18 1.175 402.173 0.502197 402.301 -0.130826C402.433 -0.766453 402.69 -1.34191 403.072 -1.8572C403.459 -2.37509 403.961 -2.81242 404.579 -3.16919C405.202 -3.52857 405.832 -3.74488 406.469 -3.81814C407.111 -3.89399 407.738 -3.82895 408.35 -3.62301C408.966 -3.41968 409.548 -3.07891 410.095 -2.6007C410.643 -2.12961 411.135 -1.51744 411.57 -0.764176ZM409.789 0.88626L409.512 0.405887C409.21 -0.117337 408.897 -0.550069 408.573 -0.89231C408.249 -1.23455 407.917 -1.4876 407.576 -1.65146C407.234 -1.81533 406.892 -1.88809 406.547 -1.86976C406.201 -1.85594 405.856 -1.75008 405.513 -1.55216C405.17 -1.35424 404.906 -1.10855 404.721 -0.815076C404.537 -0.528718 404.431 -0.196837 404.402 0.180567C404.378 0.555366 404.433 0.968574 404.568 1.42019C404.702 1.87181 404.92 2.35923 405.223 2.88245L405.5 3.36282C405.799 3.88154 406.112 4.31427 406.439 4.66102C406.763 5.00326 407.097 5.25857 407.44 5.42694C407.782 5.5908 408.126 5.66582 408.472 5.652C408.819 5.63819 409.164 5.53232 409.507 5.3344C409.85 5.13648 410.114 4.89079 410.299 4.59732C410.485 4.30384 410.589 3.96971 410.614 3.59491C410.635 3.2156 410.579 2.80013 410.444 2.34852C410.307 1.89239 410.089 1.40497 409.789 0.88626Z" fill="white"/>
<rect x="438" y="121" width="306" height="56" rx="8" transform="rotate(-30 438 121)" fill="#E35760"/>
<path d="M529.451 104.195L530.365 105.778L525.122 108.805L524.208 107.222L529.451 104.195ZM520.097 98.5716L525.785 108.423L523.755 109.595L518.067 99.7435L520.097 98.5716ZM526.311 100.334L527.201 101.876L522.641 104.509L521.751 102.967L526.311 100.334ZM524.671 95.931L525.589 97.5209L520.352 100.544L519.434 98.9544L524.671 95.931ZM527.533 94.2786L531.371 96.6454L531.241 92.138L533.561 90.7982L533.52 97.3354L539.323 100.606L536.982 101.958L533.051 99.5547L533.166 104.161L530.812 105.52L530.888 98.855L525.199 95.6263L527.533 94.2786ZM543.993 93.5532L546.015 92.3852C546.358 93.0717 546.515 93.7658 546.487 94.4675C546.464 95.1666 546.247 95.8271 545.836 96.4492C545.43 97.0686 544.823 97.6113 544.016 98.0775C543.384 98.4421 542.756 98.6606 542.13 98.7332C541.502 98.8012 540.891 98.7329 540.297 98.5282C539.709 98.3208 539.154 97.9796 538.633 97.5045C538.112 97.0294 537.643 96.431 537.227 95.7094L536.832 95.026C536.415 94.3043 536.134 93.5979 535.987 92.9066C535.843 92.2083 535.83 91.551 535.95 90.9348C536.073 90.316 536.322 89.7516 536.695 89.2415C537.068 88.7314 537.563 88.298 538.181 87.9412C539.002 87.4673 539.781 87.2164 540.516 87.1886C541.257 87.1581 541.933 87.3147 542.547 87.6582C543.164 87.9991 543.698 88.4852 544.146 89.1163L542.116 90.2881C541.865 89.9042 541.592 89.6138 541.298 89.4168C541.001 89.2152 540.675 89.124 540.319 89.143C539.965 89.1549 539.562 89.2911 539.111 89.5515C538.773 89.7468 538.514 89.9805 538.334 90.2527C538.154 90.5248 538.053 90.8389 538.03 91.1949C538.007 91.551 538.066 91.95 538.207 92.3919C538.35 92.8267 538.572 93.3057 538.874 93.8289L539.277 94.5258C539.571 95.0355 539.868 95.4621 540.169 95.8058C540.467 96.1449 540.772 96.4019 541.083 96.5769C541.397 96.7448 541.719 96.8234 542.05 96.8129C542.382 96.7953 542.729 96.6823 543.09 96.474C543.514 96.2292 543.824 95.9597 544.021 95.6655C544.218 95.3714 544.312 95.0496 544.303 94.7001C544.298 94.348 544.195 93.9657 543.993 93.5532ZM552.434 85.2517L553.348 86.8349L548.206 89.8036L547.292 88.2204L552.434 85.2517ZM545.577 83.8607L551.265 93.7117L549.235 94.8836L543.548 85.0325L545.577 83.8607ZM551.565 80.4036L557.253 90.2547L555.23 91.4226L549.542 81.5716L551.565 80.4036ZM558.431 78.686L560.466 88.3992L558.308 89.6453L556.281 77.681L557.654 76.888L558.431 78.686ZM565.372 85.5672L557.971 78.9516L556.782 77.3919L558.169 76.5911L567.537 84.3172L565.372 85.5672ZM563.133 81.9704L564.051 83.5604L558.848 86.5643L557.93 84.9743L563.133 81.9704ZM570.78 69.3099L576.468 79.1609L574.438 80.3328L566.667 76.0145L570.48 82.6179L568.45 83.7898L562.763 73.9388L564.792 72.7669L572.573 77.0881L568.757 70.4778L570.78 69.3099ZM583.068 68.4848L585.322 72.3887C585.276 72.6621 585.155 72.9996 584.96 73.401C584.762 73.7979 584.455 74.2188 584.038 74.6638C583.621 75.1089 583.054 75.5384 582.337 75.9525C581.701 76.3197 581.062 76.5506 580.419 76.6452C579.773 76.7352 579.144 76.6867 578.53 76.4995C577.922 76.3097 577.346 75.9802 576.805 75.511C576.261 75.0373 575.77 74.4216 575.333 73.6638L574.977 73.0481C574.54 72.2903 574.247 71.56 574.1 70.8572C573.957 70.1517 573.951 69.4905 574.082 68.8736C574.213 68.2568 574.47 67.6965 574.853 67.1928C575.236 66.6892 575.736 66.2589 576.354 65.9022C577.211 65.4074 577.996 65.141 578.707 65.1029C579.416 65.0603 580.057 65.2015 580.63 65.5265C581.204 65.8444 581.708 66.2995 582.14 66.8919L580.171 68.0287C579.929 67.7235 579.666 67.4873 579.383 67.3199C579.1 67.1526 578.787 67.0745 578.445 67.0857C578.107 67.0943 577.733 67.2171 577.322 67.4541C576.984 67.6494 576.722 67.8938 576.537 68.1873C576.353 68.4737 576.248 68.802 576.221 69.1723C576.195 69.5426 576.247 69.9513 576.379 70.3984C576.511 70.8455 576.727 71.3284 577.026 71.8471L577.389 72.4763C577.686 72.9905 577.999 73.4174 578.327 73.7571C578.653 74.0922 578.991 74.3391 579.341 74.4977C579.693 74.6493 580.053 74.7094 580.42 74.678C580.786 74.6467 581.162 74.5203 581.545 74.299C581.865 74.1141 582.116 73.9334 582.296 73.7568C582.482 73.5777 582.618 73.412 582.704 73.2598C582.793 73.1005 582.852 72.964 582.882 72.8501L581.875 71.1045L580.021 72.1749L579.185 70.727L583.068 68.4848ZM593.375 67.2886L594.289 68.8719L589.045 71.8992L588.131 70.316L593.375 67.2886ZM584.021 61.6653L589.708 71.5164L587.678 72.6883L581.991 62.8372L584.021 61.6653ZM590.234 63.4275L591.125 64.9701L586.565 67.6029L585.674 66.0603L590.234 63.4275ZM588.594 59.0247L589.512 60.6147L584.276 63.6381L583.358 62.0482L588.594 59.0247ZM602.747 59.6313L604.77 58.4633C605.112 59.1498 605.269 59.8439 605.241 60.5456C605.218 61.2447 605.001 61.9053 604.59 62.5273C604.184 63.1467 603.577 63.6895 602.77 64.1556C602.138 64.5202 601.51 64.7388 600.884 64.8113C600.256 64.8794 599.645 64.811 599.052 64.6063C598.463 64.399 597.908 64.0577 597.387 63.5826C596.866 63.1076 596.398 62.5092 595.981 61.7875L595.587 61.1041C595.17 60.3824 594.888 59.676 594.742 58.9847C594.597 58.2864 594.585 57.6291 594.704 57.0129C594.828 56.3941 595.076 55.8297 595.449 55.3196C595.822 54.8096 596.318 54.3761 596.936 54.0194C597.757 53.5454 598.535 53.2945 599.271 53.2667C600.011 53.2363 600.688 53.3928 601.301 53.7363C601.919 54.0773 602.452 54.5633 602.901 55.1944L600.871 56.3663C600.619 55.9824 600.346 55.6919 600.052 55.4949C599.755 55.2934 599.429 55.2021 599.073 55.2211C598.719 55.233 598.317 55.3692 597.866 55.6296C597.527 55.8249 597.268 56.0587 597.089 56.3308C596.909 56.6029 596.808 56.917 596.785 57.2731C596.762 57.6291 596.821 58.0281 596.961 58.47C597.104 58.9048 597.327 59.3838 597.629 59.907L598.031 60.6039C598.325 61.1136 598.623 61.5402 598.923 61.8839C599.221 62.223 599.526 62.4801 599.838 62.655C600.151 62.8229 600.473 62.9016 600.804 62.8911C601.137 62.8734 601.483 62.7604 601.844 62.5521C602.268 62.3073 602.579 62.0378 602.776 61.7437C602.973 61.4495 603.067 61.1277 603.057 60.7782C603.052 60.4262 602.949 60.0439 602.747 59.6313ZM602.302 51.1107L605.976 48.9896C606.729 48.5547 607.441 48.2937 608.113 48.2068C608.789 48.1172 609.401 48.2088 609.949 48.4815C610.498 48.7543 610.958 49.2132 611.331 49.8582C611.635 50.3859 611.807 50.8913 611.845 51.3744C611.885 51.8503 611.816 52.3083 611.637 52.7484C611.46 53.1814 611.198 53.5973 610.851 53.9962L610.404 54.7055L607.21 56.5493L606.283 54.9739L608.657 53.6028C609.014 53.3971 609.273 53.1634 609.434 52.9016C609.596 52.6399 609.67 52.3625 609.657 52.0692C609.649 51.7734 609.559 51.4766 609.387 51.1789C609.205 50.8632 608.988 50.6241 608.738 50.4618C608.488 50.2995 608.208 50.2264 607.899 50.2427C607.59 50.2589 607.255 50.3712 606.894 50.5795L605.25 51.5287L610.019 59.7898L607.989 60.9617L602.302 51.1107ZM613.497 57.782L608.715 54.6879L610.852 53.436L615.614 56.4334L615.669 56.5281L613.497 57.782ZM612.207 45.3919L616.858 48.6969L616.321 43.0169L618.533 41.7396L618.91 49.8758L620.98 53.4617L618.923 54.6492L616.853 51.0633L609.988 46.6732L612.207 45.3919ZM626.929 45.3448L624.419 46.794L623.505 45.2108L626.015 43.7616C626.403 43.5376 626.683 43.2922 626.853 43.0252C627.021 42.7538 627.095 42.4705 627.075 42.1754C627.055 41.8802 626.962 41.5883 626.795 41.2997C626.626 41.0065 626.412 40.7661 626.153 40.5786C625.895 40.3912 625.599 40.2911 625.267 40.2783C624.935 40.2656 624.575 40.3712 624.187 40.5952L622.381 41.6381L627.15 49.8992L625.121 51.0711L619.433 41.22L623.269 39.0052C624.041 38.5599 624.782 38.3182 625.494 38.2801C626.207 38.235 626.852 38.3713 627.426 38.6892C628 39.0071 628.469 39.4795 628.831 40.1064C629.198 40.7424 629.369 41.3773 629.344 42.0112C629.319 42.6451 629.102 43.2484 628.693 43.8213C628.289 44.3916 627.701 44.8995 626.929 45.3448ZM632.768 33.5208L638.456 43.3719L636.433 44.5398L630.745 34.6888L632.768 33.5208ZM635.8 31.7708L636.718 33.3608L628.68 38.0014L627.762 36.4114L635.8 31.7708ZM647.57 31.2358L647.839 31.7027C648.272 32.4514 648.558 33.1821 648.699 33.8947C648.84 34.6072 648.846 35.28 648.719 35.9131C648.588 36.5416 648.33 37.1148 647.943 37.6327C647.561 38.148 647.059 38.5853 646.437 38.9447C645.819 39.3014 645.189 39.5178 644.547 39.5936C643.91 39.6669 643.284 39.6041 642.67 39.4053C642.054 39.2019 641.47 38.8625 640.918 38.3869C640.372 37.9086 639.882 37.2952 639.45 36.5464L639.18 36.0796C638.745 35.3263 638.459 34.5956 638.321 33.8876C638.18 33.175 638.173 32.5022 638.301 31.8692C638.433 31.2335 638.69 30.6581 639.072 30.1428C639.459 29.6249 639.961 29.1876 640.579 28.8308C641.202 28.4714 641.832 28.2551 642.469 28.1819C643.111 28.106 643.738 28.171 644.35 28.377C644.966 28.5803 645.548 28.9211 646.095 29.3993C646.643 29.8704 647.135 30.4826 647.57 31.2358ZM645.789 32.8863L645.512 32.4059C645.21 31.8827 644.897 31.4499 644.573 31.1077C644.249 30.7654 643.917 30.5124 643.576 30.3485C643.234 30.1847 642.892 30.1119 642.547 30.1302C642.201 30.1441 641.856 30.2499 641.513 30.4478C641.17 30.6458 640.906 30.8915 640.721 31.1849C640.537 31.4713 640.431 31.8032 640.402 32.1806C640.378 32.5554 640.433 32.9686 640.568 33.4202C640.702 33.8718 640.92 34.3592 641.223 34.8824L641.5 35.3628C641.799 35.8815 642.112 36.3143 642.439 36.661C642.763 37.0033 643.097 37.2586 643.44 37.4269C643.782 37.5908 644.126 37.6658 644.472 37.652C644.819 37.6382 645.164 37.5323 645.507 37.3344C645.85 37.1365 646.114 36.8908 646.299 36.5973C646.485 36.3038 646.589 35.9697 646.614 35.5949C646.635 35.2156 646.579 34.8001 646.444 34.3485C646.307 33.8924 646.089 33.405 645.789 32.8863Z" fill="white"/>
<rect x="131" y="54" width="186" height="34.8824" rx="4.86275" transform="rotate(-30 131 54)" fill="#E35760"/>
<path d="M186.529 43.6832L187.085 44.6456L183.897 46.4857L183.342 45.5234L186.529 43.6832ZM180.843 40.2651L184.301 46.253L183.067 46.9653L179.61 40.9775L180.843 40.2651ZM184.62 41.3362L185.162 42.2739L182.39 43.8742L181.848 42.9366L184.62 41.3362ZM183.623 38.6601L184.181 39.6265L180.998 41.4643L180.44 40.4978L183.623 38.6601ZM185.363 37.6557L187.696 39.0943L187.617 36.3545L189.027 35.5401L189.002 39.5137L192.53 41.5019L191.107 42.3234L188.717 40.8627L188.787 43.6626L187.356 44.4889L187.402 40.4374L183.944 38.4749L185.363 37.6557ZM195.368 37.2147L196.598 36.5048C196.806 36.9221 196.901 37.344 196.884 37.7705C196.87 38.1954 196.738 38.5969 196.488 38.975C196.242 39.3515 195.873 39.6815 195.382 39.9648C194.998 40.1864 194.616 40.3193 194.236 40.3634C193.854 40.4047 193.483 40.3632 193.122 40.2387C192.764 40.1127 192.427 39.9053 192.11 39.6165C191.794 39.3278 191.509 38.964 191.255 38.5254L191.016 38.11C190.762 37.6713 190.591 37.2419 190.502 36.8217C190.414 36.3972 190.407 35.9977 190.479 35.6232C190.554 35.247 190.705 34.904 190.932 34.5939C191.159 34.2839 191.46 34.0204 191.836 33.8035C192.335 33.5155 192.808 33.363 193.255 33.346C193.705 33.3275 194.116 33.4227 194.489 33.6315C194.865 33.8388 195.189 34.1342 195.461 34.5178L194.228 35.2301C194.075 34.9967 193.909 34.8202 193.73 34.7004C193.55 34.5779 193.351 34.5225 193.135 34.534C192.92 34.5413 192.675 34.624 192.401 34.7823C192.195 34.9011 192.038 35.0431 191.929 35.2085C191.819 35.3739 191.758 35.5649 191.744 35.7813C191.73 35.9977 191.766 36.2402 191.851 36.5088C191.938 36.7731 192.073 37.0643 192.257 37.3823L192.502 37.8059C192.68 38.1157 192.861 38.3751 193.044 38.5839C193.225 38.7901 193.41 38.9463 193.6 39.0527C193.79 39.1547 193.986 39.2025 194.187 39.1961C194.389 39.1854 194.6 39.1168 194.819 38.9901C195.077 38.8413 195.266 38.6775 195.385 38.4987C195.505 38.3199 195.562 38.1243 195.557 37.9119C195.554 37.6979 195.491 37.4655 195.368 37.2147ZM200.499 32.1687L201.054 33.1311L197.929 34.9356L197.373 33.9733L200.499 32.1687ZM196.331 31.3232L199.788 37.3111L198.555 38.0234L195.098 32.0355L196.331 31.3232ZM199.971 29.2219L203.428 35.2098L202.198 35.9197L198.741 29.9318L199.971 29.2219ZM204.144 28.1778L205.381 34.0819L204.07 34.8393L202.837 27.5669L203.672 27.0849L204.144 28.1778ZM208.363 32.3605L203.865 28.3393L203.142 27.3912L203.985 26.9045L209.679 31.6007L208.363 32.3605ZM207.002 30.1742L207.56 31.1407L204.398 32.9666L203.84 32.0001L207.002 30.1742ZM211.651 22.4786L215.108 28.4665L213.874 29.1788L209.151 26.554L211.468 30.5678L210.234 31.2801L206.777 25.2923L208.011 24.5799L212.741 27.2065L210.421 23.1885L211.651 22.4786ZM219.12 21.9771L220.49 24.35C220.462 24.5163 220.388 24.7214 220.27 24.9654C220.149 25.2066 219.963 25.4625 219.709 25.733C219.456 26.0035 219.111 26.2646 218.676 26.5163C218.289 26.7395 217.9 26.8798 217.509 26.9373C217.117 26.9921 216.734 26.9626 216.362 26.8488C215.992 26.7334 215.642 26.5331 215.313 26.2479C214.982 25.96 214.684 25.5857 214.418 25.1251L214.202 24.7509C213.936 24.2903 213.758 23.8463 213.669 23.4191C213.582 22.9903 213.578 22.5884 213.658 22.2134C213.738 21.8385 213.894 21.4979 214.126 21.1918C214.359 20.8856 214.663 20.6241 215.039 20.4073C215.56 20.1065 216.037 19.9446 216.469 19.9214C216.9 19.8956 217.29 19.9814 217.638 20.1789C217.987 20.3721 218.293 20.6488 218.556 21.0089L217.359 21.6998C217.212 21.5144 217.052 21.3708 216.88 21.269C216.708 21.1673 216.518 21.1199 216.31 21.1267C216.104 21.1319 215.877 21.2066 215.627 21.3506C215.422 21.4693 215.263 21.6179 215.15 21.7963C215.038 21.9703 214.974 22.1699 214.958 22.395C214.942 22.62 214.974 22.8685 215.054 23.1402C215.134 23.412 215.265 23.7055 215.447 24.0208L215.668 24.4033C215.848 24.7159 216.039 24.9754 216.238 25.1818C216.436 25.3855 216.642 25.5356 216.854 25.632C217.068 25.7241 217.287 25.7607 217.51 25.7416C217.733 25.7225 217.961 25.6457 218.194 25.5112C218.389 25.3988 218.541 25.289 218.651 25.1817C218.763 25.0728 218.846 24.9721 218.899 24.8796C218.952 24.7827 218.988 24.6997 219.007 24.6305L218.394 23.5695L217.268 24.2201L216.759 23.34L219.12 21.9771ZM225.385 21.25L225.94 22.2124L222.753 24.0525L222.197 23.0902L225.385 21.25ZM219.699 17.8319L223.156 23.8198L221.922 24.5321L218.465 18.5442L219.699 17.8319ZM223.476 18.903L224.017 19.8407L221.245 21.441L220.704 20.5034L223.476 18.903ZM222.479 16.2268L223.037 17.1933L219.854 19.0311L219.296 18.0646L222.479 16.2268ZM231.081 16.5956L232.311 15.8856C232.519 16.3029 232.615 16.7248 232.598 17.1513C232.583 17.5763 232.452 17.9778 232.202 18.3559C231.955 18.7324 231.586 19.0623 231.095 19.3456C230.712 19.5672 230.33 19.7001 229.949 19.7442C229.567 19.7855 229.196 19.744 228.835 19.6196C228.478 19.4935 228.14 19.2861 227.824 18.9974C227.507 18.7086 227.222 18.3448 226.969 17.9062L226.729 17.4908C226.476 17.0521 226.305 16.6227 226.216 16.2025C226.128 15.7781 226.12 15.3785 226.193 15.004C226.268 14.6279 226.419 14.2848 226.646 13.9747C226.872 13.6647 227.174 13.4012 227.549 13.1844C228.048 12.8963 228.521 12.7438 228.968 12.7269C229.418 12.7084 229.83 12.8035 230.203 13.0123C230.578 13.2196 230.902 13.515 231.175 13.8986L229.941 14.6109C229.788 14.3776 229.622 14.201 229.443 14.0813C229.263 13.9588 229.065 13.9033 228.848 13.9149C228.633 13.9221 228.389 14.0049 228.114 14.1632C227.909 14.2819 227.751 14.4239 227.642 14.5894C227.533 14.7548 227.471 14.9457 227.457 15.1621C227.443 15.3785 227.479 15.6211 227.565 15.8897C227.652 16.1539 227.787 16.4451 227.97 16.7631L228.215 17.1867C228.394 17.4965 228.575 17.7559 228.757 17.9648C228.939 18.1709 229.124 18.3271 229.313 18.4335C229.504 18.5355 229.699 18.5834 229.9 18.577C230.103 18.5663 230.313 18.4976 230.533 18.3709C230.79 18.2221 230.979 18.0583 231.099 17.8795C231.219 17.7007 231.276 17.5051 231.27 17.2927C231.267 17.0787 231.204 16.8463 231.081 16.5956ZM230.811 11.4163L233.044 10.127C233.502 9.86269 233.935 9.70409 234.343 9.65122C234.754 9.59677 235.126 9.65245 235.459 9.81824C235.793 9.98404 236.073 10.263 236.299 10.655C236.484 10.9758 236.588 11.283 236.612 11.5766C236.636 11.8659 236.594 12.1443 236.485 12.4118C236.378 12.675 236.218 12.9278 236.007 13.1703L235.736 13.6015L233.794 14.7222L233.231 13.7646L234.674 12.9312C234.891 12.8061 235.048 12.6641 235.146 12.505C235.245 12.3459 235.29 12.1772 235.282 11.999C235.277 11.8192 235.222 11.6388 235.118 11.4578C235.007 11.2659 234.875 11.1206 234.723 11.0219C234.571 10.9233 234.401 10.8789 234.213 10.8887C234.025 10.8986 233.821 10.9669 233.602 11.0935L232.603 11.6705L235.502 16.6919L234.268 17.4042L230.811 11.4163ZM237.616 15.4715L234.709 13.5907L236.008 12.8298L238.903 14.6517L238.936 14.7093L237.616 15.4715ZM236.832 7.94023L239.659 9.94916L239.332 6.49661L240.677 5.72018L240.906 10.6657L242.164 12.8454L240.914 13.5672L239.656 11.3876L235.483 8.71903L236.832 7.94023ZM245.781 7.91158L244.255 8.79248L243.699 7.83014L245.225 6.94924C245.461 6.81311 245.631 6.66392 245.734 6.50167C245.836 6.33669 245.881 6.16449 245.869 5.98509C245.857 5.80569 245.8 5.62826 245.699 5.45279C245.596 5.27458 245.466 5.12849 245.309 5.01453C245.152 4.90056 244.972 4.83971 244.77 4.83197C244.568 4.82423 244.35 4.88843 244.114 5.02456L243.016 5.65852L245.915 10.68L244.681 11.3923L241.224 5.40439L243.556 4.05811C244.025 3.78743 244.475 3.64052 244.908 3.61739C245.342 3.58994 245.733 3.67282 246.082 3.86603C246.432 4.05924 246.716 4.3464 246.936 4.7275C247.159 5.11408 247.263 5.50001 247.248 5.8853C247.233 6.27058 247.101 6.63734 246.853 6.98558C246.607 7.33223 246.249 7.6409 245.781 7.91158ZM249.33 0.724467L252.787 6.71235L251.557 7.4223L248.1 1.43441L249.33 0.724467ZM251.172 -0.339258L251.73 0.627193L246.845 3.44797L246.287 2.48151L251.172 -0.339258ZM258.327 -0.664447L258.491 -0.380681C258.753 0.0744425 258.928 0.518573 259.013 0.951709C259.099 1.38485 259.103 1.7938 259.025 2.17858C258.946 2.56062 258.789 2.90904 258.554 3.22383C258.322 3.53705 258.016 3.80288 257.638 4.02132C257.262 4.23818 256.879 4.36967 256.489 4.41578C256.102 4.4603 255.722 4.42214 255.348 4.30128C254.974 4.17769 254.619 3.97135 254.284 3.68225C253.951 3.39158 253.654 3.01868 253.391 2.56356L253.227 2.27979C252.963 1.82193 252.789 1.3778 252.705 0.947403C252.619 0.514266 252.615 0.105308 252.693 -0.27947C252.773 -0.665832 252.929 -1.01562 253.162 -1.32883C253.397 -1.64363 253.702 -1.90946 254.078 -2.12632C254.456 -2.34476 254.839 -2.47625 255.226 -2.52078C255.616 -2.56689 255.997 -2.52735 256.369 -2.40217C256.744 -2.27858 257.098 -2.07144 257.43 -1.78077C257.764 -1.49442 258.062 -1.12231 258.327 -0.664447ZM257.245 0.338759L257.076 0.0467669C256.892 -0.271271 256.702 -0.534304 256.505 -0.742333C256.308 -0.950362 256.106 -1.10418 255.899 -1.20378C255.691 -1.30338 255.483 -1.34761 255.274 -1.33647C255.063 -1.32807 254.853 -1.26372 254.645 -1.14342C254.437 -1.02312 254.276 -0.873772 254.164 -0.695387C254.052 -0.521326 253.987 -0.319594 253.97 -0.0901922C253.955 0.137627 253.989 0.388793 254.071 0.663304C254.152 0.937816 254.285 1.23409 254.469 1.55213L254.637 1.84412C254.819 2.15942 255.009 2.42245 255.208 2.63322C255.405 2.84125 255.608 2.99644 255.817 3.09878C256.024 3.19838 256.233 3.24398 256.444 3.23558C256.655 3.22718 256.864 3.16283 257.073 3.04253C257.281 2.92223 257.442 2.77288 257.554 2.5945C257.667 2.41611 257.731 2.21301 257.745 1.98519C257.759 1.75463 257.724 1.50209 257.643 1.22758C257.559 0.95033 257.427 0.654055 257.245 0.338759Z" fill="white"/>
<rect x="424" y="54" width="186" height="34.8824" rx="4.86275" transform="rotate(-30 424 54)" fill="#E35760"/>
<path d="M479.529 43.6832L480.085 44.6456L476.897 46.4857L476.342 45.5234L479.529 43.6832ZM473.843 40.2651L477.3 46.253L476.067 46.9653L472.61 40.9775L473.843 40.2651ZM477.62 41.3362L478.162 42.2739L475.39 43.8742L474.848 42.9366L477.62 41.3362ZM476.623 38.6601L477.181 39.6265L473.998 41.4643L473.44 40.4978L476.623 38.6601ZM478.363 37.6557L480.696 39.0943L480.617 36.3545L482.027 35.5401L482.002 39.5137L485.53 41.5019L484.107 42.3234L481.717 40.8627L481.787 43.6626L480.356 44.4889L480.402 40.4374L476.944 38.4749L478.363 37.6557ZM488.368 37.2147L489.598 36.5048C489.806 36.9221 489.901 37.344 489.884 37.7705C489.87 38.1954 489.738 38.5969 489.488 38.975C489.242 39.3515 488.873 39.6815 488.382 39.9648C487.998 40.1864 487.616 40.3193 487.236 40.3634C486.854 40.4047 486.483 40.3632 486.122 40.2387C485.764 40.1127 485.427 39.9053 485.11 39.6165C484.794 39.3278 484.509 38.964 484.255 38.5254L484.016 38.11C483.762 37.6713 483.591 37.2419 483.502 36.8217C483.414 36.3972 483.407 35.9977 483.479 35.6232C483.554 35.247 483.705 34.904 483.932 34.5939C484.159 34.2839 484.46 34.0204 484.836 33.8035C485.335 33.5155 485.808 33.363 486.255 33.346C486.705 33.3275 487.116 33.4227 487.489 33.6315C487.865 33.8388 488.189 34.1342 488.461 34.5178L487.228 35.2301C487.075 34.9967 486.909 34.8202 486.73 34.7004C486.55 34.5779 486.351 34.5225 486.135 34.534C485.92 34.5413 485.675 34.624 485.401 34.7823C485.195 34.9011 485.038 35.0431 484.929 35.2085C484.819 35.3739 484.758 35.5649 484.744 35.7813C484.73 35.9977 484.766 36.2402 484.851 36.5088C484.938 36.7731 485.073 37.0643 485.257 37.3823L485.501 37.8059C485.68 38.1157 485.861 38.3751 486.044 38.5839C486.225 38.7901 486.41 38.9463 486.6 39.0527C486.79 39.1547 486.986 39.2025 487.187 39.1961C487.389 39.1854 487.6 39.1168 487.819 38.9901C488.077 38.8413 488.266 38.6775 488.385 38.4987C488.505 38.3199 488.562 38.1243 488.557 37.9119C488.554 37.6979 488.491 37.4655 488.368 37.2147ZM493.499 32.1687L494.054 33.1311L490.929 34.9356L490.373 33.9733L493.499 32.1687ZM489.331 31.3232L492.788 37.3111L491.555 38.0234L488.098 32.0355L489.331 31.3232ZM492.971 29.2219L496.428 35.2098L495.198 35.9197L491.741 29.9318L492.971 29.2219ZM497.144 28.1778L498.381 34.0819L497.07 34.8393L495.837 27.5669L496.672 27.0849L497.144 28.1778ZM501.363 32.3605L496.865 28.3393L496.142 27.3912L496.985 26.9045L502.679 31.6007L501.363 32.3605ZM500.002 30.1742L500.56 31.1407L497.398 32.9666L496.84 32.0001L500.002 30.1742ZM504.651 22.4786L508.108 28.4665L506.874 29.1788L502.151 26.554L504.468 30.5678L503.234 31.2801L499.777 25.2923L501.011 24.5799L505.741 27.2065L503.421 23.1885L504.651 22.4786ZM512.12 21.9771L513.49 24.35C513.462 24.5163 513.388 24.7214 513.27 24.9654C513.149 25.2066 512.963 25.4625 512.709 25.733C512.456 26.0035 512.111 26.2646 511.676 26.5163C511.289 26.7395 510.9 26.8798 510.509 26.9373C510.117 26.9921 509.734 26.9626 509.362 26.8488C508.992 26.7334 508.642 26.5331 508.313 26.2479C507.982 25.96 507.684 25.5857 507.418 25.1251L507.202 24.7509C506.936 24.2903 506.758 23.8463 506.669 23.4191C506.582 22.9903 506.578 22.5884 506.658 22.2134C506.738 21.8385 506.894 21.4979 507.126 21.1918C507.359 20.8856 507.663 20.6241 508.039 20.4073C508.56 20.1065 509.037 19.9446 509.469 19.9214C509.9 19.8956 510.29 19.9814 510.638 20.1789C510.987 20.3721 511.293 20.6488 511.556 21.0089L510.359 21.6998C510.212 21.5144 510.052 21.3708 509.88 21.269C509.708 21.1673 509.518 21.1199 509.31 21.1267C509.104 21.1319 508.877 21.2066 508.627 21.3506C508.422 21.4693 508.263 21.6179 508.15 21.7963C508.038 21.9703 507.974 22.1699 507.958 22.395C507.942 22.62 507.974 22.8685 508.054 23.1402C508.134 23.412 508.265 23.7055 508.447 24.0208L508.668 24.4033C508.848 24.7159 509.038 24.9754 509.238 25.1818C509.436 25.3855 509.642 25.5356 509.854 25.632C510.068 25.7241 510.287 25.7607 510.51 25.7416C510.733 25.7225 510.961 25.6457 511.194 25.5112C511.389 25.3988 511.541 25.289 511.651 25.1817C511.763 25.0728 511.846 24.9721 511.899 24.8796C511.952 24.7827 511.988 24.6997 512.007 24.6305L511.394 23.5695L510.268 24.2201L509.759 23.34L512.12 21.9771ZM518.385 21.25L518.94 22.2124L515.753 24.0525L515.197 23.0902L518.385 21.25ZM512.699 17.8319L516.156 23.8198L514.922 24.5321L511.465 18.5442L512.699 17.8319ZM516.476 18.903L517.017 19.8407L514.245 21.441L513.704 20.5034L516.476 18.903ZM515.479 16.2268L516.037 17.1933L512.854 19.0311L512.296 18.0646L515.479 16.2268ZM524.081 16.5956L525.311 15.8856C525.519 16.3029 525.615 16.7248 525.598 17.1513C525.583 17.5763 525.452 17.9778 525.202 18.3559C524.955 18.7324 524.586 19.0623 524.095 19.3456C523.712 19.5672 523.33 19.7001 522.949 19.7442C522.567 19.7855 522.196 19.744 521.835 19.6196C521.478 19.4935 521.14 19.2861 520.824 18.9974C520.507 18.7086 520.222 18.3448 519.969 17.9062L519.729 17.4908C519.476 17.0521 519.305 16.6227 519.216 16.2025C519.128 15.7781 519.12 15.3785 519.193 15.004C519.268 14.6279 519.419 14.2848 519.646 13.9747C519.872 13.6647 520.174 13.4012 520.549 13.1844C521.048 12.8963 521.521 12.7438 521.968 12.7269C522.418 12.7084 522.83 12.8035 523.203 13.0123C523.578 13.2196 523.902 13.515 524.175 13.8986L522.941 14.6109C522.788 14.3776 522.622 14.201 522.443 14.0813C522.263 13.9588 522.065 13.9033 521.848 13.9149C521.633 13.9221 521.388 14.0049 521.114 14.1632C520.909 14.2819 520.751 14.4239 520.642 14.5894C520.533 14.7548 520.471 14.9457 520.457 15.1621C520.443 15.3785 520.479 15.6211 520.565 15.8897C520.652 16.1539 520.787 16.4451 520.97 16.7631L521.215 17.1867C521.394 17.4965 521.575 17.7559 521.757 17.9648C521.939 18.1709 522.124 18.3271 522.313 18.4335C522.504 18.5355 522.699 18.5834 522.9 18.577C523.103 18.5663 523.313 18.4976 523.533 18.3709C523.79 18.2221 523.979 18.0583 524.099 17.8795C524.219 17.7007 524.276 17.5051 524.27 17.2927C524.267 17.0787 524.204 16.8463 524.081 16.5956ZM523.811 11.4163L526.044 10.127C526.502 9.86269 526.935 9.70409 527.343 9.65122C527.754 9.59677 528.126 9.65245 528.459 9.81824C528.793 9.98404 529.073 10.263 529.299 10.655C529.484 10.9758 529.588 11.283 529.612 11.5766C529.636 11.8659 529.594 12.1443 529.485 12.4118C529.378 12.675 529.218 12.9278 529.007 13.1703L528.735 13.6015L526.794 14.7222L526.231 13.7646L527.674 12.9312C527.891 12.8061 528.048 12.6641 528.146 12.505C528.245 12.3459 528.29 12.1772 528.282 11.999C528.277 11.8192 528.222 11.6388 528.117 11.4578C528.007 11.2659 527.875 11.1206 527.723 11.0219C527.571 10.9233 527.401 10.8789 527.213 10.8887C527.025 10.8986 526.821 10.9669 526.602 11.0935L525.603 11.6705L528.502 16.6919L527.268 17.4042L523.811 11.4163ZM530.616 15.4715L527.709 13.5907L529.008 12.8298L531.903 14.6517L531.936 14.7093L530.616 15.4715ZM529.832 7.94023L532.659 9.94916L532.332 6.49661L533.677 5.72018L533.906 10.6657L535.164 12.8454L533.914 13.5672L532.656 11.3876L528.483 8.71903L529.832 7.94023ZM538.781 7.91158L537.255 8.79248L536.699 7.83014L538.225 6.94924C538.461 6.81311 538.631 6.66392 538.734 6.50167C538.836 6.33669 538.881 6.16449 538.869 5.98509C538.857 5.80569 538.8 5.62826 538.699 5.45279C538.596 5.27458 538.466 5.12849 538.309 5.01453C538.152 4.90056 537.972 4.83971 537.77 4.83197C537.568 4.82423 537.35 4.88843 537.114 5.02456L536.016 5.65852L538.915 10.68L537.681 11.3923L534.224 5.40439L536.556 4.05811C537.025 3.78743 537.475 3.64052 537.908 3.61739C538.342 3.58994 538.733 3.67282 539.082 3.86603C539.432 4.05924 539.716 4.3464 539.936 4.7275C540.159 5.11408 540.263 5.50001 540.248 5.8853C540.233 6.27058 540.101 6.63734 539.853 6.98558C539.607 7.33223 539.249 7.6409 538.781 7.91158ZM542.33 0.724467L545.787 6.71235L544.557 7.4223L541.1 1.43441L542.33 0.724467ZM544.172 -0.339258L544.73 0.627193L539.845 3.44797L539.287 2.48151L544.172 -0.339258ZM551.327 -0.664447L551.491 -0.380681C551.753 0.0744425 551.928 0.518573 552.013 0.951709C552.099 1.38485 552.103 1.7938 552.025 2.17858C551.946 2.56062 551.789 2.90904 551.554 3.22383C551.322 3.53705 551.016 3.80288 550.638 4.02132C550.262 4.23818 549.879 4.36967 549.489 4.41578C549.102 4.4603 548.722 4.42214 548.348 4.30128C547.974 4.17769 547.619 3.97135 547.284 3.68225C546.951 3.39158 546.654 3.01868 546.391 2.56356L546.227 2.27979C545.963 1.82193 545.789 1.3778 545.705 0.947403C545.619 0.514266 545.615 0.105308 545.693 -0.27947C545.773 -0.665832 545.929 -1.01562 546.162 -1.32883C546.397 -1.64363 546.702 -1.90946 547.078 -2.12632C547.456 -2.34476 547.839 -2.47625 548.226 -2.52078C548.616 -2.56689 548.997 -2.52735 549.369 -2.40217C549.744 -2.27858 550.098 -2.07144 550.43 -1.78077C550.764 -1.49442 551.062 -1.12231 551.327 -0.664447ZM550.245 0.338759L550.076 0.0467669C549.892 -0.271271 549.702 -0.534304 549.505 -0.742333C549.308 -0.950362 549.106 -1.10418 548.899 -1.20378C548.691 -1.30338 548.483 -1.34761 548.274 -1.33647C548.063 -1.32807 547.853 -1.26372 547.645 -1.14342C547.437 -1.02312 547.276 -0.873772 547.163 -0.695387C547.052 -0.521326 546.987 -0.319594 546.97 -0.0901922C546.955 0.137627 546.989 0.388793 547.071 0.663304C547.152 0.937816 547.285 1.23409 547.469 1.55213L547.637 1.84412C547.819 2.15942 548.009 2.42245 548.208 2.63322C548.405 2.84125 548.608 2.99644 548.817 3.09878C549.024 3.19838 549.233 3.24398 549.444 3.23558C549.655 3.22718 549.864 3.16283 550.073 3.04253C550.281 2.92223 550.442 2.77288 550.554 2.5945C550.667 2.41611 550.731 2.21301 550.745 1.98519C550.759 1.75463 550.724 1.50209 550.643 1.22758C550.559 0.95033 550.427 0.654055 550.245 0.338759Z" fill="white"/>
<rect x="-226" y="120.285" width="524.571" height="96.7143" rx="13.7143" transform="rotate(-30 -226 120.285)" fill="#E35760"/>
<path d="M-68.5838 92.59L-67.0168 95.3041L-76.0057 100.494L-77.5727 97.7798L-68.5838 92.59ZM-84.6191 82.9501L-74.8691 99.8376L-78.3486 101.847L-88.0986 84.959L-84.6191 82.9501ZM-73.9673 85.9709L-72.4405 88.6153L-80.258 93.1287L-81.7847 90.4843L-73.9673 85.9709ZM-76.7784 78.4233L-75.2048 81.149L-84.1821 86.332L-85.7557 83.6063L-76.7784 78.4233ZM-71.8723 75.5907L-65.2925 79.6479L-65.5162 71.9211L-61.5379 69.6242L-61.6093 80.8309L-51.6604 86.438L-55.6735 88.755L-62.413 84.6353L-62.215 92.5318L-66.2513 94.8621L-66.1211 83.4358L-75.8738 77.901L-71.8723 75.5907ZM-43.6557 74.3471L-40.1878 72.3448C-39.6011 73.5217 -39.3317 74.7116 -39.3795 75.9145C-39.4195 77.1129 -39.7916 78.2453 -40.4956 79.3116C-41.1919 80.3734 -42.2321 81.3039 -43.6162 82.103C-44.6987 82.728 -45.7763 83.1027 -46.8489 83.2271C-47.9259 83.3437 -48.973 83.2266 -49.9901 82.8756C-50.9995 82.5202 -51.9506 81.9353 -52.8435 81.1208C-53.7365 80.3064 -54.5401 79.2806 -55.2544 78.0434L-55.9307 76.8719C-56.645 75.6348 -57.1277 74.4237 -57.3788 73.2387C-57.6267 72.0415 -57.6483 70.9148 -57.4437 69.8585C-57.2314 68.7977 -56.8054 67.8301 -56.1659 66.9556C-55.5263 66.0812 -54.6769 65.3382 -53.6176 64.7266C-52.2103 63.9141 -50.876 63.484 -49.6148 63.4363C-48.3459 63.3841 -47.1858 63.6525 -46.1344 64.2414C-45.0753 64.8259 -44.1612 65.6591 -43.3922 66.7409L-46.8718 68.7499C-47.3033 68.0917 -47.7712 67.5938 -48.2755 67.2561C-48.7843 66.9106 -49.3437 66.7542 -49.9538 66.7868C-50.5606 66.8072 -51.2506 67.0406 -52.0238 67.4871C-52.6037 67.8219 -53.0477 68.2225 -53.3557 68.689C-53.6637 69.1555 -53.8374 69.694 -53.8768 70.3044C-53.9162 70.9148 -53.8151 71.5987 -53.5736 72.3563C-53.3289 73.1016 -52.9476 73.9228 -52.4297 74.8197L-51.74 76.0144C-51.2355 76.8881 -50.7256 77.6195 -50.2102 78.2086C-49.6993 78.79 -49.1768 79.2307 -48.6428 79.5306C-48.1055 79.8184 -47.5534 79.9532 -46.9865 79.9352C-46.4163 79.905 -45.8219 79.7113 -45.2033 79.3542C-44.4764 78.9345 -43.9441 78.4726 -43.6064 77.9683C-43.2686 77.464 -43.1077 76.9123 -43.1237 76.3132C-43.1319 75.7097 -43.3093 75.0543 -43.6557 74.3471ZM-29.1853 60.116L-27.6183 62.83L-36.4332 67.9193L-38.0002 65.2053L-29.1853 60.116ZM-40.9389 57.7313L-31.1889 74.6188L-34.6685 76.6278L-44.4185 59.7403L-40.9389 57.7313ZM-30.6742 51.805L-20.9242 68.6925L-24.3922 70.6947L-34.1422 53.8072L-30.6742 51.805ZM-18.9044 48.8604L-15.4149 65.5117L-19.1148 67.6478L-22.59 47.1376L-20.2355 45.7782L-18.9044 48.8604ZM-7.00592 60.6568L-19.6931 49.3158L-21.7317 46.642L-19.354 45.2693L-3.29438 58.5139L-7.00592 60.6568ZM-10.8442 54.4909L-9.2705 57.2165L-18.1898 62.3661L-19.7634 59.6404L-10.8442 54.4909ZM2.26571 32.7871L12.0157 49.6746L8.53614 51.6836L-4.78473 44.2808L1.75099 55.601L-1.72858 57.6099L-11.4786 40.7224L-7.99901 38.7135L5.34015 46.1212L-1.20226 34.7894L2.26571 32.7871ZM23.3317 31.3727L27.1955 38.065C27.1157 38.5339 26.9084 39.1123 26.5737 39.8004C26.2345 40.4808 25.7078 41.2025 24.9935 41.9654C24.2793 42.7283 23.3074 43.4646 22.078 44.1745C20.9877 44.8039 19.8914 45.1997 18.7891 45.3619C17.6824 45.5163 16.6033 45.4331 15.552 45.1122C14.5084 44.7868 13.5225 44.222 12.5942 43.4176C11.6614 42.6056 10.82 41.5501 10.07 40.251L9.46064 39.1955C8.71064 37.8965 8.20948 36.6445 7.95715 35.4396C7.71255 34.2303 7.70252 33.0968 7.92706 32.0393C8.15159 30.9818 8.59196 30.0213 9.24817 29.1579C9.90437 28.2945 10.7621 27.557 11.8215 26.9453C13.2906 26.0971 14.6353 25.6404 15.8554 25.5752C17.0711 25.5022 18.1696 25.7443 19.1511 26.3014C20.1359 26.8463 20.9987 27.6265 21.7397 28.6421L18.3645 30.5908C17.9491 30.0677 17.4988 29.6627 17.0136 29.3758C16.5283 29.0889 15.9923 28.9551 15.4054 28.9743C14.8263 28.9891 14.1849 29.1996 13.4812 29.6058C12.9013 29.9407 12.4524 30.3596 12.1346 30.8627C11.8201 31.3536 11.6398 31.9165 11.5939 32.5512C11.548 33.186 11.6381 33.8866 11.8641 34.6531C12.0901 35.4196 12.4598 36.2474 12.9732 37.1366L13.596 38.2153C14.1049 39.0968 14.6409 39.8287 15.2038 40.4109C15.7623 40.9854 16.3418 41.4086 16.9421 41.6806C17.5457 41.9404 18.1619 42.0434 18.7907 41.9897C19.4195 41.9359 20.0626 41.7193 20.7198 41.3399C21.2688 41.0229 21.6982 40.7131 22.0081 40.4105C22.3257 40.1034 22.5586 39.8194 22.707 39.5585C22.8586 39.2854 22.9605 39.0513 23.0128 38.8561L21.2851 35.8637L18.1071 37.6985L16.6741 35.2164L23.3317 31.3727ZM40.9993 29.3222L42.5663 32.0362L33.5774 37.226L32.0105 34.5119L40.9993 29.3222ZM24.9641 19.6822L34.7141 36.5697L31.2345 38.5786L21.4845 21.6911L24.9641 19.6822ZM35.6158 22.703L37.1426 25.3475L29.3252 29.8609L27.7984 27.2164L35.6158 22.703ZM32.8047 15.1554L34.3784 17.8811L25.4011 23.0641L23.8274 20.3385L32.8047 15.1554ZM57.0661 16.1953L60.5341 14.1931C61.1207 15.3699 61.3902 16.5598 61.3424 17.7627C61.3023 18.9611 60.9303 20.0935 60.2262 21.1598C59.5299 22.2217 58.4897 23.1521 57.1056 23.9512C56.0231 24.5762 54.9455 24.9509 53.873 25.0753C52.7959 25.192 51.7489 25.0748 50.7317 24.7238C49.7224 24.3684 48.7712 23.7835 47.8783 22.969C46.9854 22.1546 46.1818 21.1288 45.4675 19.8916L44.7912 18.7201C44.0769 17.483 43.5942 16.2719 43.343 15.0869C43.0952 13.8897 43.0735 12.763 43.2781 11.7067C43.4905 10.6459 43.9164 9.67827 44.556 8.80385C45.1955 7.92943 46.0449 7.18642 47.1043 6.57481C48.5116 5.76231 49.8458 5.33221 51.107 5.28451C52.3759 5.23235 53.5361 5.50072 54.5875 6.08964C55.6466 6.6741 56.5606 7.50727 57.3296 8.58916L53.85 10.5981C53.4185 9.93996 52.9506 9.44203 52.4463 9.10428C51.9376 8.7588 51.3782 8.60237 50.7681 8.63499C50.1613 8.65541 49.4713 8.88884 48.698 9.33526C48.1181 9.67009 47.6741 10.0707 47.3661 10.5373C47.0581 11.0038 46.8844 11.5422 46.8451 12.1526C46.8057 12.763 46.9067 13.4469 47.1482 14.2045C47.393 14.9498 47.7743 15.771 48.2921 16.6679L48.9819 17.8626C49.4863 18.7363 49.9962 19.4678 50.5116 20.0569C51.0225 20.6382 51.545 21.0789 52.079 21.3788C52.6163 21.6666 53.1684 21.8015 53.7354 21.7834C54.3056 21.7532 54.9 21.5595 55.5186 21.2024C56.2454 20.7827 56.7777 20.3208 57.1155 19.8165C57.4532 19.3122 57.6141 18.7605 57.5981 18.1614C57.5899 17.5579 57.4126 16.9025 57.0661 16.1953ZM56.3034 1.58847L62.6014 -2.04769C63.8927 -2.79323 65.1139 -3.24054 66.265 -3.38964C67.4238 -3.5432 68.4733 -3.38618 69.4134 -2.91859C70.3535 -2.451 71.1427 -1.66433 71.7811 -0.558606C72.3035 0.346082 72.5975 1.21247 72.6632 2.04056C72.7322 2.85645 72.6133 3.64162 72.3065 4.39606C72.0031 5.13831 71.5539 5.8513 70.9589 6.53504L70.1918 7.75113L64.7173 10.9118L63.1272 8.21117L67.1982 5.86073C67.8091 5.50805 68.2531 5.10738 68.5302 4.65874C68.8072 4.21009 68.9347 3.73442 68.9125 3.23173C68.8981 2.72457 68.7435 2.21583 68.4489 1.70549C68.1364 1.16423 67.7658 0.754453 67.3371 0.476173C66.9083 0.197894 66.4288 0.0726706 65.8985 0.100504C65.3681 0.128337 64.7936 0.320825 64.175 0.677968L61.3566 2.3052L69.5329 16.467L66.0534 18.476L56.3034 1.58847ZM75.4946 13.0251L67.2979 7.72082L70.9612 5.57486L79.124 10.7131L79.2177 10.8755L75.4946 13.0251ZM73.2837 -8.2151L81.256 -2.54938L80.3356 -12.2865L84.1283 -14.4763L84.7735 -0.528414L88.3226 5.61882L84.7966 7.65453L81.2475 1.5073L69.4793 -6.01868L73.2837 -8.2151ZM98.5219 -8.29592L94.2188 -5.81155L92.6518 -8.52561L96.9549 -11.01C97.6199 -11.3939 98.0986 -11.8147 98.3912 -12.2722C98.6793 -12.7376 98.8061 -13.2232 98.7718 -13.7291C98.7374 -14.2351 98.5773 -14.7355 98.2916 -15.2304C98.0015 -15.733 97.6347 -16.145 97.1914 -16.4664C96.7481 -16.7878 96.2418 -16.9594 95.6724 -16.9813C95.1031 -17.0031 94.4859 -16.822 93.821 -16.4381L90.7241 -14.6502L98.9005 -0.488325L95.4209 1.5206L85.6709 -15.3669L92.2473 -19.1638C93.5695 -19.9272 94.8407 -20.3415 96.0609 -20.4067C97.2843 -20.4841 98.3883 -20.2504 99.3731 -19.7055C100.358 -19.1606 101.16 -18.3507 101.781 -17.2759C102.41 -16.1856 102.704 -15.0972 102.661 -14.0106C102.618 -12.924 102.246 -11.8896 101.545 -10.9075C100.852 -9.92984 99.8441 -9.05931 98.5219 -8.29592ZM108.532 -28.5655L118.282 -11.6781L114.814 -9.67582L105.064 -26.5633L108.532 -28.5655ZM113.728 -31.5655L115.301 -28.8399L101.522 -20.8845L99.9487 -23.6102L113.728 -31.5655ZM133.906 -32.4827L134.368 -31.6824C135.109 -30.3988 135.6 -29.1462 135.841 -27.9247C136.083 -26.7031 136.094 -25.5497 135.875 -24.4645C135.652 -23.3871 135.209 -22.4045 134.546 -21.5166C133.891 -20.6333 133.03 -19.8836 131.963 -19.2675C130.903 -18.6559 129.824 -18.2851 128.723 -18.155C127.631 -18.0295 126.558 -18.1371 125.506 -18.4779C124.449 -18.8265 123.448 -19.4085 122.503 -20.2238C121.566 -21.0436 120.727 -22.0952 119.985 -23.3788L119.523 -24.1791C118.778 -25.4704 118.287 -26.723 118.05 -27.9368C117.808 -29.1584 117.797 -30.3118 118.016 -31.3969C118.243 -32.4866 118.684 -33.4731 119.339 -34.3564C120.001 -35.2442 120.862 -35.994 121.922 -36.6056C122.989 -37.2216 124.069 -37.5925 125.161 -37.718C126.261 -37.8481 127.336 -37.7366 128.385 -37.3835C129.442 -37.035 130.439 -36.4508 131.377 -35.631C132.317 -34.8234 133.16 -33.774 133.906 -32.4827ZM130.853 -29.6534L130.378 -30.4769C129.86 -31.3738 129.323 -32.1156 128.768 -32.7023C128.213 -33.289 127.643 -33.7228 127.058 -34.0037C126.473 -34.2846 125.886 -34.4094 125.295 -34.378C124.701 -34.3543 124.11 -34.1728 123.522 -33.8335C122.934 -33.4942 122.482 -33.073 122.164 -32.5699C121.849 -32.079 121.667 -31.5101 121.618 -30.8631C121.577 -30.2206 121.671 -29.5122 121.902 -28.738C122.132 -27.9638 122.507 -27.1283 123.024 -26.2313L123.5 -25.4078C124.013 -24.5186 124.55 -23.7768 125.109 -23.1823C125.665 -22.5956 126.237 -22.158 126.826 -21.8693C127.411 -21.5884 128.001 -21.4598 128.596 -21.4835C129.19 -21.5072 129.781 -21.6887 130.369 -22.028C130.957 -22.3673 131.409 -22.7884 131.727 -23.2915C132.045 -23.7946 132.225 -24.3674 132.266 -25.01C132.303 -25.6602 132.206 -26.3724 131.976 -27.1466C131.741 -27.9286 131.367 -28.7641 130.853 -29.6534Z" fill="white"/>
<defs>
<filter id="filter0_f_4170_7452" x="-240" y="-287" width="1048" height="620" filterUnits="userSpaceOnUse" color-interpolation-filters="sRGB">
<feFlood flood-opacity="0" result="BackgroundImageFix"/>
<feBlend mode="normal" in="SourceGraphic" in2="BackgroundImageFix" result="shape"/>
<feGaussianBlur stdDeviation="100" result="effect1_foregroundBlur_4170_7452"/>
</filter>
</defs>
</svg>
