<svg width="546" height="301" viewBox="0 0 546 301" fill="none" xmlns="http://www.w3.org/2000/svg">
<g opacity="0.6" filter="url(#filter0_f_4170_7409)">
<ellipse cx="284" cy="23" rx="324" ry="110" fill="#E35760" fill-opacity="0.5"/>
</g>
<path fill-rule="evenodd" clip-rule="evenodd" d="M279.79 117.883C281.032 120.036 280.295 122.788 278.143 124.03L255.92 136.86C253.768 138.103 251.016 137.366 249.773 135.213C248.53 133.061 249.268 130.309 251.42 129.066L273.643 116.236C275.795 114.993 278.547 115.731 279.79 117.883Z" fill="#36293B"/>
<path fill-rule="evenodd" clip-rule="evenodd" d="M295.804 108.638C291.479 101.147 281.901 98.581 274.411 102.906L265.681 107.946C263.528 109.188 260.776 108.451 259.534 106.299C258.291 104.146 259.028 101.394 261.181 100.152L269.911 95.1114C281.706 88.3015 296.788 92.3428 303.598 104.138C310.408 115.933 306.366 131.015 294.571 137.825L285.841 142.865C283.689 144.108 280.937 143.371 279.694 141.218C278.452 139.066 279.189 136.314 281.341 135.071L290.071 130.031C297.562 125.706 300.128 116.128 295.804 108.638Z" fill="#36293B"/>
<path fill-rule="evenodd" clip-rule="evenodd" d="M233.759 144.459C238.083 151.949 247.661 154.516 255.152 150.191L263.881 145.151C266.034 143.908 268.786 144.646 270.029 146.798C271.271 148.95 270.534 151.703 268.381 152.945L259.652 157.985C247.857 164.795 232.774 160.754 225.964 148.959C219.154 137.164 223.196 122.082 234.991 115.272L243.721 110.231C245.873 108.989 248.625 109.726 249.868 111.879C251.11 114.031 250.373 116.783 248.221 118.026L239.491 123.066C232 127.391 229.434 136.969 233.759 144.459Z" fill="#36293B"/>
<path fill-rule="evenodd" clip-rule="evenodd" d="M174.565 80.1244C175.669 82.0376 175.014 84.4839 173.101 85.5885L148.748 99.6484C146.835 100.753 144.389 100.097 143.284 98.1843C142.18 96.2711 142.835 93.8247 144.748 92.7202L169.101 78.6603C171.014 77.5557 173.46 78.2112 174.565 80.1244Z" fill="#E35760"/>
<path fill-rule="evenodd" clip-rule="evenodd" d="M193.557 69.0614C188.561 60.4076 177.495 57.4426 168.842 62.4389L159.275 67.9622C157.362 69.0667 154.915 68.4112 153.811 66.4981C152.706 64.5849 153.362 62.1385 155.275 61.0339L164.842 55.5107C177.322 48.3053 193.28 52.5813 200.485 65.0614C207.691 77.5416 203.415 93.4999 190.935 100.705L181.368 106.229C179.455 107.333 177.009 106.678 175.904 104.764C174.799 102.851 175.455 100.405 177.368 99.3004L186.935 93.7771C195.589 88.7808 198.554 77.7152 193.557 69.0614Z" fill="#E35760"/>
<path fill-rule="evenodd" clip-rule="evenodd" d="M124.292 109.247C129.288 117.901 140.354 120.866 149.007 115.87L158.574 110.346C160.487 109.242 162.934 109.897 164.038 111.811C165.143 113.724 164.487 116.17 162.574 117.275L153.007 122.798C140.527 130.003 124.569 125.727 117.364 113.247C110.158 100.767 114.434 84.8087 126.914 77.6033L136.481 72.08C138.394 70.9755 140.84 71.631 141.945 73.5441C143.05 75.4573 142.394 77.9037 140.481 79.0082L130.914 84.5315C122.26 89.5278 119.295 100.593 124.292 109.247Z" fill="#E35760"/>
<path fill-rule="evenodd" clip-rule="evenodd" d="M560.565 34.1244C561.669 36.0376 561.014 38.4839 559.101 39.5885L534.748 53.6484C532.835 54.7529 530.389 54.0974 529.284 52.1843C528.18 50.2711 528.835 47.8247 530.748 46.7202L555.101 32.6603C557.014 31.5557 559.46 32.2112 560.565 34.1244Z" fill="#E35760"/>
<path fill-rule="evenodd" clip-rule="evenodd" d="M579.557 23.0614C574.561 14.4076 563.495 11.4426 554.842 16.4389L545.275 21.9622C543.362 23.0667 540.915 22.4112 539.811 20.4981C538.706 18.5849 539.362 16.1385 541.275 15.0339L550.842 9.51068C563.322 2.30527 579.28 6.58126 586.485 19.0614C593.691 31.5416 589.415 47.4999 576.935 54.7053L567.368 60.2286C565.455 61.3331 563.009 60.6776 561.904 58.7645C560.799 56.8513 561.455 54.4049 563.368 53.3004L572.935 47.7771C581.588 42.7808 584.554 31.7152 579.557 23.0614Z" fill="#E35760"/>
<path fill-rule="evenodd" clip-rule="evenodd" d="M510.292 63.2472C515.288 71.901 526.354 74.866 535.007 69.8697L544.574 64.3464C546.487 63.2419 548.934 63.8974 550.038 65.8105C551.143 67.7237 550.487 70.1701 548.574 71.2746L539.007 76.7979C526.527 84.0033 510.569 79.7273 503.364 67.2472C496.158 54.767 500.434 38.8087 512.914 31.6033L522.481 26.08C524.394 24.9755 526.84 25.631 527.945 27.5441C529.05 29.4573 528.394 31.9037 526.481 33.0082L516.914 38.5315C508.26 43.5278 505.295 54.5934 510.292 63.2472Z" fill="#E35760"/>
<path fill-rule="evenodd" clip-rule="evenodd" d="M455.84 126.542C456.945 128.456 456.289 130.902 454.376 132.007L431.472 145.23C429.559 146.335 427.113 145.679 426.008 143.766C424.904 141.853 425.559 139.407 427.472 138.302L450.376 125.078C452.289 123.974 454.736 124.629 455.84 126.542Z" fill="#E35760"/>
<path fill-rule="evenodd" clip-rule="evenodd" d="M473.291 116.376C468.658 108.35 458.396 105.601 450.37 110.234L441.373 115.429C439.46 116.533 437.013 115.878 435.909 113.965C434.804 112.051 435.46 109.605 437.373 108.501L446.37 103.306C458.222 96.4632 473.377 100.524 480.219 112.376C487.062 124.227 483.001 139.382 471.149 146.224L462.152 151.419C460.239 152.524 457.792 151.868 456.688 149.955C455.583 148.042 456.239 145.595 458.152 144.491L467.149 139.296C475.175 134.663 477.924 124.401 473.291 116.376Z" fill="#E35760"/>
<path fill-rule="evenodd" clip-rule="evenodd" d="M408.557 153.933C413.191 161.958 423.453 164.708 431.478 160.075L440.476 154.88C442.389 153.775 444.835 154.431 445.94 156.344C447.044 158.257 446.389 160.704 444.476 161.808L435.478 167.003C423.626 173.845 408.472 169.785 401.629 157.933C394.787 146.081 398.847 130.927 410.699 124.084L419.697 118.89C421.61 117.785 424.056 118.441 425.161 120.354C426.265 122.267 425.61 124.713 423.697 125.818L414.699 131.013C406.674 135.646 403.924 145.908 408.557 153.933Z" fill="#E35760"/>
<path fill-rule="evenodd" clip-rule="evenodd" d="M266.899 0.364341C267.866 2.03837 267.292 4.17893 265.618 5.14543L246.97 15.912C245.296 16.8785 243.155 16.305 242.189 14.6309C241.222 12.9569 241.796 10.8164 243.47 9.84985L262.118 -0.916748C263.792 -1.88325 265.933 -1.30968 266.899 0.364341Z" fill="#E35760"/>
<path fill-rule="evenodd" clip-rule="evenodd" d="M280.816 -7.67024C277.11 -14.0881 268.904 -16.287 262.486 -12.5816L255.16 -8.35209C253.486 -7.38559 251.346 -7.95916 250.379 -9.63318C249.413 -11.3072 249.986 -13.4478 251.66 -14.4143L258.986 -18.6438C268.752 -24.2821 281.24 -20.9361 286.878 -11.1702C292.516 -1.40437 289.17 11.0832 279.404 16.7215L272.079 20.9511C270.405 21.9176 268.264 21.344 267.297 19.67C266.331 17.9959 266.905 15.8554 268.579 14.8889L275.904 10.6593C282.322 6.95401 284.521 -1.25242 280.816 -7.67024Z" fill="#E35760"/>
<path fill-rule="evenodd" clip-rule="evenodd" d="M228.271 22.6657C231.977 29.0835 240.183 31.2824 246.601 27.5771L253.927 23.3476C255.601 22.3811 257.741 22.9546 258.708 24.6287C259.674 26.3027 259.101 28.4433 257.427 29.4098L250.101 33.6393C240.335 39.2776 227.847 35.9316 222.209 26.1657C216.571 16.3999 219.917 3.91229 229.683 -1.72603L237.008 -5.95558C238.682 -6.92208 240.823 -6.34851 241.79 -4.67449C242.756 -3.00046 242.182 -0.859897 240.508 0.106601L233.183 4.33615C226.765 8.04148 224.566 16.2479 228.271 22.6657Z" fill="#E35760"/>
<path fill-rule="evenodd" clip-rule="evenodd" d="M23.8993 15.3643C24.8658 17.0384 24.2922 19.1789 22.6182 20.1454L3.96992 30.912C2.29589 31.8785 0.155329 31.305 -0.81117 29.6309C-1.77767 27.9569 -1.2041 25.8164 0.469919 24.8499L19.1182 14.0833C20.7922 13.1168 22.9328 13.6903 23.8993 15.3643Z" fill="#E35760"/>
<path fill-rule="evenodd" clip-rule="evenodd" d="M37.8158 7.32976C34.1104 0.911943 25.904 -1.28696 19.4862 2.41836L12.1604 6.64791C10.4864 7.61441 8.3458 7.04084 7.3793 5.36682C6.4128 3.6928 6.98636 1.55223 8.66038 0.585732L15.9862 -3.64381C25.752 -9.28214 38.2396 -5.93611 43.8779 3.82976C49.5163 13.5956 46.1702 26.0832 36.4044 31.7215L29.0786 35.9511C27.4045 36.9176 25.264 36.344 24.2975 34.67C23.331 32.9959 23.9045 30.8554 25.5786 29.8889L32.9044 25.6593C39.3222 21.954 41.5211 13.7476 37.8158 7.32976Z" fill="#E35760"/>
<path fill-rule="evenodd" clip-rule="evenodd" d="M-14.7287 37.6657C-11.0234 44.0835 -2.81697 46.2824 3.60085 42.5771L10.9266 38.3476C12.6007 37.3811 14.7412 37.9546 15.7077 39.6287C16.6742 41.3027 16.1007 43.4433 14.4266 44.4098L7.10085 48.6393C-2.66502 54.2776 -15.1526 50.9316 -20.7909 41.1657C-26.4292 31.3999 -23.0832 18.9123 -13.3173 13.274L-5.99155 9.04442C-4.31752 8.07792 -2.17696 8.65149 -1.21046 10.3255C-0.243961 11.9995 -0.817521 14.1401 -2.49155 15.1066L-9.81734 19.3361C-16.2352 23.0415 -18.4341 31.2479 -14.7287 37.6657Z" fill="#E35760"/>
<path fill-rule="evenodd" clip-rule="evenodd" d="M61.1636 80.8848C61.9921 82.3197 61.5004 84.1545 60.0656 84.9829L45.4975 93.3938C44.0626 94.2222 42.2279 93.7306 41.3994 92.2957C40.571 90.8608 41.0626 89.026 42.4975 88.1976L57.0656 79.7867C58.5004 78.9583 60.3352 79.4499 61.1636 80.8848Z" fill="#E35760"/>
<path fill-rule="evenodd" clip-rule="evenodd" d="M71.5748 74.874C68.7536 69.9875 62.5053 68.3133 57.6188 71.1345L51.8959 74.4386C50.461 75.267 48.6262 74.7754 47.7978 73.3405C46.9694 71.9056 47.461 70.0709 48.8959 69.2424L54.6188 65.9383C62.375 61.4603 72.2929 64.1177 76.7709 71.874C81.249 79.6302 78.5915 89.548 70.8353 94.0261L65.1124 97.3302C63.6775 98.1586 61.8427 97.667 61.0143 96.2321C60.1859 94.7973 60.6775 92.9625 62.1124 92.1341L67.8353 88.8299C72.7218 86.0087 74.396 79.7604 71.5748 74.874Z" fill="#E35760"/>
<path fill-rule="evenodd" clip-rule="evenodd" d="M30.9874 98.3067C33.8086 103.193 40.0569 104.867 44.9434 102.046L50.6663 98.7421C52.1012 97.9136 53.9359 98.4053 54.7644 99.8401C55.5928 101.275 55.1012 103.11 53.6663 103.938L47.9434 107.242C40.1872 111.72 30.2693 109.063 25.7913 101.307C21.3132 93.5505 23.9707 83.6326 31.7269 79.1546L37.4498 75.8504C38.8847 75.022 40.7195 75.5136 41.5479 76.9485C42.3763 78.3834 41.8847 80.2182 40.4498 81.0466L34.7269 84.3507C29.8404 87.1719 28.1662 93.4202 30.9874 98.3067Z" fill="#E35760"/>
<path fill-rule="evenodd" clip-rule="evenodd" d="M138.899 0.364341C139.866 2.03837 139.292 4.17893 137.618 5.14543L118.97 15.912C117.296 16.8785 115.155 16.305 114.189 14.6309C113.222 12.9569 113.796 10.8164 115.47 9.84985L134.118 -0.916748C135.792 -1.88325 137.933 -1.30968 138.899 0.364341Z" fill="#E35760"/>
<path fill-rule="evenodd" clip-rule="evenodd" d="M152.816 -7.67024C149.11 -14.0881 140.904 -16.287 134.486 -12.5816L127.16 -8.35209C125.486 -7.38559 123.346 -7.95916 122.379 -9.63318C121.413 -11.3072 121.986 -13.4478 123.66 -14.4143L130.986 -18.6438C140.752 -24.2821 153.24 -20.9361 158.878 -11.1702C164.516 -1.40437 161.17 11.0832 151.404 16.7215L144.079 20.9511C142.405 21.9176 140.264 21.344 139.297 19.67C138.331 17.9959 138.905 15.8554 140.579 14.8889L147.904 10.6593C154.322 6.95401 156.521 -1.25242 152.816 -7.67024Z" fill="#E35760"/>
<path fill-rule="evenodd" clip-rule="evenodd" d="M100.271 22.6657C103.977 29.0835 112.183 31.2824 118.601 27.5771L125.927 23.3476C127.601 22.3811 129.741 22.9546 130.708 24.6287C131.674 26.3027 131.101 28.4433 129.427 29.4098L122.101 33.6393C112.335 39.2776 99.8474 35.9316 94.2091 26.1657C88.5708 16.3999 91.9168 3.91229 101.683 -1.72603L109.008 -5.95558C110.682 -6.92208 112.823 -6.34851 113.79 -4.67449C114.756 -3.00046 114.182 -0.859897 112.508 0.106601L105.183 4.33615C98.7648 8.04148 96.5659 16.2479 100.271 22.6657Z" fill="#E35760"/>
<path fill-rule="evenodd" clip-rule="evenodd" d="M419.256 19.6203C421.465 23.4467 420.154 28.3394 416.328 30.5485L378.091 52.6243C374.265 54.8335 369.372 53.5225 367.163 49.6961C364.954 45.8698 366.265 40.9771 370.091 38.7679L408.328 16.6921C412.154 14.483 417.047 15.794 419.256 19.6203Z" fill="white"/>
<path fill-rule="evenodd" clip-rule="evenodd" d="M446.364 3.96973C438.994 -8.7954 422.671 -13.1691 409.906 -5.79911L394.885 2.87313C391.059 5.08227 386.166 3.77127 383.957 -0.0550677C381.748 -3.88141 383.059 -8.77413 386.885 -10.9833L401.906 -19.6555C422.324 -31.4437 448.432 -24.4481 460.22 -4.03027C472.008 16.3876 465.013 42.4957 444.595 54.284L429.574 62.9562C425.748 65.1653 420.855 63.8543 418.646 60.028C416.437 56.2017 417.748 51.3089 421.574 49.0998L436.595 40.4275C449.36 33.0576 453.734 16.7349 446.364 3.96973Z" fill="white"/>
<path fill-rule="evenodd" clip-rule="evenodd" d="M340.054 65.3469C347.424 78.1121 363.747 82.4857 376.512 75.1158L391.533 66.4435C395.359 64.2344 400.252 65.5454 402.461 69.3717C404.67 73.1981 403.359 78.0908 399.533 80.2999L384.512 88.9722C364.094 100.76 337.986 93.7647 326.198 73.3469C314.41 52.9291 321.405 26.8209 341.823 15.0327L356.844 6.36045C360.67 4.15132 365.563 5.46231 367.772 9.28866C369.981 13.115 368.67 18.0077 364.844 20.2169L349.823 28.8891C337.058 36.2591 332.684 52.5818 340.054 65.3469Z" fill="white"/>
<defs>
<filter id="filter0_f_4170_7409" x="-240" y="-287" width="1048" height="620" filterUnits="userSpaceOnUse" color-interpolation-filters="sRGB">
<feFlood flood-opacity="0" result="BackgroundImageFix"/>
<feBlend mode="normal" in="SourceGraphic" in2="BackgroundImageFix" result="shape"/>
<feGaussianBlur stdDeviation="100" result="effect1_foregroundBlur_4170_7409"/>
</filter>
</defs>
</svg>
