<svg fill="none" height="72" viewBox="0 0 72 72" width="72" xmlns="http://www.w3.org/2000/svg"><rect fill="#51354f" height="72" rx="36" width="72"/><path clip-rule="evenodd" d="m49.0629 33.5582c.5102-1.4663.8037-2.9309.8037-4.3249 0-7.8608-6.3724-14.2333-14.2333-14.2333-7.8608 0-14.2333 6.3725-14.2333 14.2333 0 1.1393.196 2.3258.5462 3.5218 1.4825 2.6554 4.6732 8.157 7.6481 11.4183l.0061-.0259c2.1624 1.8703 4.357 3.0525 6.0329 3.0525 1.4359 0 3.2524-.8678 5.1032-2.2925 3.0106-3.0269 6.6422-8.4574 8.3264-11.3493zm1.2336.5859c-.9267 1.6114-2.5123 4.1337-4.2802 6.6027.4052.094.7966.2553 1.1359.5138 1.5728 1.1984 1.429 4.032 1.429 4.032s-2.6938.8905-4.2666-.3079c-.3416-.2602-.6022-.5976-.8009-.9663-.4653.5623-.9284 1.0928-1.3813 1.5756 1.5529 3.8399 5.4558 7.5426 7.7343 7.5426 2.8918 0 8.4-5.9641 8.4-10.6033 0-4.495-3.5307-8.1654-7.9702-8.3892zm-37.2965 8.3892c0-4.5044 3.5454-8.1807 7.9979-8.3905.9774 1.7124 2.4755 4.2228 4.1285 6.6338-.3625.097-.7106.251-1.0164.484-1.5728 1.1984-1.4291 4.032-1.4291 4.032s2.6939.8905 4.2667-.3079c.2907-.2215.5227-.4988.7079-.8038.4735.5768.9449 1.1123 1.4067 1.5875-1.5986 3.7768-5.4182 7.3682-7.6622 7.3682-2.8918 0-8.4-5.9641-8.4-10.6033zm20.455-8.6245s.2436-4.8013-2.4214-6.832c-2.6651-2.0306-7.2296-.5217-7.2296-.5217s-.2436 4.8013 2.4214 6.832c2.6651 2.0306 7.2296.5217 7.2296.5217zm6.7704-6.832c-2.665 2.0307-2.4214 6.832-2.4214 6.832s4.5645 1.5089 7.2296-.5217c2.665-2.0307 2.4214-6.832 2.4214-6.832s-4.5645-1.5089-7.2296.5217zm12.3513 14.1838c-1.5728 1.1984-1.429 4.032-1.429 4.032s2.6938.8905 4.2666-.3079 1.4291-4.032 1.4291-4.032-2.6939-.8905-4.2667.3079zm-33.8913 0c1.5728 1.1984 1.4291 4.032 1.4291 4.032s-2.6939.8905-4.2667-.3079-1.429-4.032-1.429-4.032 2.6938-.8905 4.2666.3079zm16.8146 6.7394c-4.1421 0-7.5 3.3579-7.5 7.5v1.5h15v-1.5c0-4.1421-3.3579-7.5-7.5-7.5zm-18.7667 9c0-1.5464 1.2536-2.8 2.8-2.8h3.7334c1.5464 0 2.8 1.2536 2.8 2.8zm31.2667-2.8c-1.5464 0-2.8 1.2536-2.8 2.8h9.3334c0-1.5464-1.2536-2.8-2.8-2.8z" fill="#ff626e" fill-rule="evenodd"/></svg>