<svg fill="none" height="72" viewBox="0 0 72 72" width="72" xmlns="http://www.w3.org/2000/svg"><rect fill="#51354f" height="72" rx="36" width="72"/><g clip-rule="evenodd" fill="#ff626e" fill-rule="evenodd"><path d="m22.4653 39.0202c-.3036-1.1093-.4653-2.2743-.4653-3.4759 0-7.4803 6.268-13.5443 14-13.5443s14 6.064 14 13.5443c0 1.1237-.1414 2.2154-.4081 3.2594-3.694 1.5646-8.5318 2.5128-13.8274 2.5128-5.0468 0-9.6778-.8612-13.2992-2.2963zm14.9826-14.4849c.1922.4101-.1194.8533-.6959.9899-4.9262 1.168-8.4168 5.3586-8.4168 9.6922 0 .4322-.4927.7826-1.1003.7826-.6077 0-1.1003-.3504-1.1003-.7826 0-4.7967 3.8447-9.7363 9.9215-11.177.5765-.1367 1.1996.0849 1.3918.4949z"/><path d="m62.5 40.9461c0 4.6752-11.9764 8.4652-26.75 8.4652s-26.75-3.79-26.75-8.4652c0-3.5781 7.0151-6.6377 16.9304-7.8766v3.8547c-2.9167.6394-4.7405 1.5509-4.7405 2.5624 0 1.9346 6.6704 3.5029 14.8987 3.5029 8.2284 0 14.8987-1.5683 14.8987-3.5029 0-1.9345-6.6703-3.5028-14.8987-3.5028-2.4386 0-4.7403.1377-6.7721.3819v-3.6383c2.0607-.161 4.2156-.2464 6.4335-.2464 14.7736 0 26.75 3.79 26.75 8.4651zm-33.9566-8.1544.7731-.0808v.0165c-.2593.0202-.517.0417-.7731.0643zm0 0c-.8031.0709-1.591.1534-2.3617.2469zm-2.3617.2469-.2513.0262v.0047c.0835-.0104.1673-.0207.2513-.0309zm3.1348 3.3271c-1.2392.149-2.3779.3375-3.3861.5585v.0018l3.3861-.5338zm-11.3165 5.1343c0 .8284-.6716 1.5-1.5 1.5s-1.5-.6716-1.5-1.5.6716-1.5 1.5-1.5 1.5.6716 1.5 1.5zm10.5 5.5c.8284 0 1.5-.6716 1.5-1.5s-.6716-1.5-1.5-1.5-1.5.6716-1.5 1.5.6716 1.5 1.5 1.5zm16.5-1.5c0 .8284-.6716 1.5-1.5 1.5s-1.5-.6716-1.5-1.5.6716-1.5 1.5-1.5 1.5.6716 1.5 1.5zm11.5-3.5c.8284 0 1.5-.6716 1.5-1.5s-.6716-1.5-1.5-1.5-1.5.6716-1.5 1.5.6716 1.5 1.5 1.5z"/></g></svg>