<svg width="64" height="64" viewBox="0 0 64 64" fill="none" xmlns="http://www.w3.org/2000/svg">
<path fill-rule="evenodd" clip-rule="evenodd" d="M30.8638 2.92576C30.9254 2.94176 31.0262 2.94176 31.0878 2.92576C31.1494 2.9096 31.099 2.89648 30.9758 2.89648C30.8526 2.89648 30.8022 2.9096 30.8638 2.92576ZM28.8248 3.29296C28.8054 3.3432 28.8024 3.4512 28.818 3.53296C28.8401 3.64912 28.8483 3.63728 28.8552 3.47888C28.8598 3.36752 28.8998 3.26176 28.9438 3.244C29.0065 3.21872 29.006 3.21056 28.9417 3.20672C28.8968 3.20384 28.844 3.24272 28.8248 3.29296ZM54.4648 5.2976C54.3897 5.3944 53.934 5.888 53.4521 6.39456C52.9702 6.90096 52.5326 7.37872 52.4798 7.45616C52.427 7.53344 52.2254 7.73552 52.0318 7.90496C51.8382 8.07456 51.5214 8.37584 51.3278 8.57456C51.1342 8.77344 50.5153 9.35216 49.9526 9.8608C49.3899 10.3694 48.8427 10.8714 48.7366 10.976C48.6305 11.0808 48.4443 11.2352 48.3225 11.3192C48.2009 11.403 47.9849 11.5693 47.8425 11.6883C46.8347 12.5323 46.5702 12.7443 46.4454 12.8082C46.3675 12.848 46.1886 12.9872 46.0478 13.1174C45.907 13.2477 45.7299 13.3955 45.6542 13.4459C45.2568 13.7109 43.915 14.6557 43.6571 14.8523C43.4936 14.977 43.2446 15.148 43.1038 15.2322C42.963 15.3163 42.5742 15.5638 42.2398 15.7819C41.9054 16 41.511 16.2392 41.3635 16.3134C41.216 16.3877 40.9856 16.5235 40.8515 16.6154C40.7174 16.7072 40.5502 16.8088 40.4798 16.841C40.4094 16.8731 40.2654 16.9546 40.1598 17.0219C39.908 17.1824 39.9164 17.1838 39.8164 16.9579C39.7688 16.8502 39.7132 16.7787 39.6931 16.799C39.6729 16.8192 39.6904 16.8698 39.7321 16.9115C39.9088 17.0882 39.8068 17.2074 39.2158 17.5142C38.2934 17.9931 37.043 18.6024 36.5998 18.789L36.1971 18.9586L36.0729 18.808L35.9488 18.6576L35.9897 18.8262C36.042 19.0424 36.0036 19.0704 35.2638 19.3581C34.9294 19.4882 34.4273 19.6842 34.1483 19.7939C33.8691 19.9035 33.3363 20.0754 32.9643 20.1755C31.6923 20.5181 30.624 20.7864 30.3518 20.8317L30.0798 20.8768L30.0736 20.5992L30.0672 20.3216L29.9907 20.6096C29.8928 20.9781 29.9979 20.9472 27.2958 21.3998C25.2936 21.7352 25.3886 21.7557 25.5568 21.0256C25.5963 20.8541 25.5912 20.8576 25.5092 21.0576C25.4588 21.1808 25.4153 21.3758 25.4126 21.491C25.4052 21.8075 24.8771 21.8942 21.7918 22.085C21.299 22.1154 20.4206 22.1701 19.8398 22.2064C17.328 22.3635 11.8651 22.2144 9.6318 21.9277C9.2094 21.8734 8.5038 21.7989 8.0638 21.7618C7.6238 21.7248 6.947 21.6389 6.5598 21.5709C6.1726 21.503 5.4382 21.3869 4.9278 21.3131C4.4174 21.2392 3.78556 21.1227 3.5238 21.0542C2.60316 20.8133 2.36476 20.9357 2.9438 21.3517C3.1198 21.4781 3.26396 21.6005 3.26396 21.6237C3.26412 21.6467 3.44412 21.8096 3.6638 21.9856C4.03164 22.2803 4.36236 22.5661 5.2158 23.3269C5.56716 23.6402 6.25244 24.232 6.86764 24.7534C7.08556 24.9382 7.4078 25.2178 7.5838 25.3747C7.7598 25.5317 8.0334 25.7683 8.1918 25.9005C8.3502 26.0328 8.66892 26.3149 8.89996 26.5274C9.131 26.7397 9.64508 27.1872 10.0425 27.5216C10.44 27.856 10.8268 28.1928 10.9025 28.2701C10.978 28.3474 11.1454 28.4914 11.2745 28.5901C11.6228 28.8566 12.5736 29.6685 13.7278 30.6856C14.291 31.1818 14.8526 31.6635 14.9758 31.756C15.099 31.8486 15.3006 32.0171 15.4238 32.1306C15.547 32.244 15.8206 32.4811 16.0318 32.6574C16.5252 33.0696 17.3553 33.7901 18.631 34.9136C19.9604 36.0845 20.764 36.7776 21.7835 37.6336C22.6635 38.3723 22.6612 38.3587 22.1076 39.6749C21.8766 40.2242 21.6156 40.8464 21.528 41.0576C21.4401 41.2688 21.3083 41.5856 21.2347 41.7616C21.1612 41.9376 21.0592 42.1824 21.0081 42.3056C20.9569 42.4288 20.862 42.6448 20.7972 42.7856C20.7324 42.9264 20.6185 43.2 20.5443 43.3936C20.47 43.5872 20.3102 43.9834 20.1892 44.2739C20.0683 44.5645 19.8659 45.0541 19.7395 45.3619C19.5366 45.8558 19.219 46.6067 18.6225 48.0016C18.1296 49.1544 17.9198 49.6707 17.9198 49.7312C17.9198 49.7678 17.8443 49.9467 17.7521 50.1288C17.6012 50.4266 17.46 50.7574 16.7342 52.5136C16.6179 52.7952 16.3592 53.4144 16.1595 53.8896C15.9596 54.3648 15.7441 54.8976 15.6803 55.0736C15.5456 55.4456 15.3432 55.9256 15.1675 56.2896C15.0641 56.5037 14.8272 57.0618 14.5968 57.6336C14.3798 58.172 13.8918 59.3314 13.6873 59.7938C13.5512 60.1018 13.4398 60.3835 13.4398 60.4198C13.4398 60.4562 13.3708 60.6221 13.2864 60.7886C13.1406 61.0763 13.096 61.241 13.1124 61.4299C13.1312 61.6443 13.5148 61.3205 15.0212 59.8184C15.9088 58.9336 16.6651 58.1808 16.7019 58.1456C17.051 57.8125 22.1907 52.5432 23.8398 50.8277C24.2622 50.3883 24.7518 49.8792 24.9278 49.6963C26.5734 47.9866 27.6206 46.8826 27.9011 46.5616C28.0857 46.3504 28.4137 46.0018 28.6302 45.787C28.8467 45.5722 29.211 45.189 29.4398 44.9355C29.6686 44.6821 30.0286 44.2954 30.2398 44.0763C30.451 43.8571 31.052 43.2035 31.5752 42.6238C32.0984 42.044 32.7928 41.2816 33.1184 40.9296C33.4438 40.5776 33.8654 40.111 34.055 39.8926C34.2446 39.6742 34.9038 38.9301 35.5198 38.2389C37.2105 36.3416 39.3304 33.807 39.9246 32.9725C40.1372 32.6739 40.5537 32.1125 41.0912 31.4003C41.7048 30.5869 43.2856 28.2973 43.6806 27.6496C43.7556 27.5264 43.9584 27.2096 44.1312 26.9456C44.4553 26.4498 44.79 25.8974 45.2361 25.1216C45.9923 23.8069 46.394 23.1901 46.5732 23.0688C46.7321 22.9613 46.7518 22.9246 46.6761 22.8768C46.5827 22.8176 46.7224 22.5381 47.6814 20.8656C47.8126 20.6368 48.056 20.1904 48.2224 19.8736C48.5985 19.1568 48.6611 19.0864 48.9505 19.0558L49.1838 19.031L48.9438 19.0203C48.6473 19.007 48.6139 19.132 49.2225 17.9776C49.5078 17.4363 49.9694 16.5184 50.2483 15.9376C50.5272 15.3568 50.8139 14.7808 50.8856 14.6576C50.9572 14.5344 51.0726 14.304 51.1422 14.1456C51.2118 13.9872 51.3241 13.7424 51.392 13.6016C51.7768 12.8032 52.7115 10.7158 52.908 10.2162C53.034 9.89584 53.2604 9.3888 53.411 9.0896C53.5617 8.7904 53.7192 8.416 53.7611 8.2576C53.803 8.0992 53.8833 7.8832 53.9398 7.7776C54.1121 7.45488 54.3304 6.91952 54.8209 5.61632C55.0088 5.11728 54.77 4.90352 54.4648 5.2976ZM34.2443 5.8576C34.2443 5.8928 34.2856 5.9936 34.3358 6.0816C34.386 6.1696 34.4273 6.2128 34.4273 6.1776C34.4273 6.1424 34.386 6.0416 34.3358 5.9536C34.2856 5.8656 34.2443 5.8224 34.2443 5.8576ZM31.767 9.82592C31.8201 9.87904 31.8824 9.98192 31.9054 10.0549C31.9286 10.1277 31.9614 10.1733 31.9784 10.1563C32.0264 10.1083 31.8128 9.7296 31.7376 9.7296C31.7008 9.7296 31.714 9.77296 31.767 9.82592ZM32.4523 11.1696C32.4523 11.2048 32.4936 11.3056 32.5438 11.3936C32.594 11.4816 32.6353 11.5248 32.6353 11.4896C32.6353 11.4544 32.594 11.3536 32.5438 11.2656C32.4936 11.1776 32.4523 11.1344 32.4523 11.1696ZM27.2353 11.8131C27.2113 11.9416 27.2043 12.0595 27.22 12.0752C27.2356 12.0907 27.2681 11.9986 27.2923 11.8701C27.3163 11.7416 27.3233 11.6237 27.3076 11.608C27.292 11.5925 27.2595 11.6846 27.2353 11.8131ZM26.9118 13.5696C26.8875 13.6802 26.8809 13.7842 26.8972 13.8003C26.9136 13.8166 26.9452 13.7381 26.9678 13.6256C27.0211 13.3589 26.9694 13.3072 26.9118 13.5696ZM30.9526 14.3144C30.9299 14.4794 30.9236 14.6269 30.9388 14.6419C30.9539 14.657 30.9862 14.5358 31.0107 14.3725C31.0352 14.2093 31.0414 14.0618 31.0244 14.045C31.0075 14.028 30.9752 14.1493 30.9526 14.3144ZM39.3278 16.1296C39.3824 16.2352 39.4416 16.3216 39.4592 16.3216C39.4768 16.3216 39.4464 16.2352 39.3918 16.1296C39.3372 16.024 39.278 15.9376 39.2604 15.9376C39.2428 15.9376 39.2732 16.024 39.3278 16.1296ZM59.9518 17.6035C60.031 17.6354 60.0958 17.696 60.0958 17.7382C60.0958 17.7805 60.1144 17.7965 60.1369 17.7738C60.1993 17.7114 60.0304 17.5371 59.912 17.5416C59.8414 17.5445 59.8544 17.5645 59.9518 17.6035ZM58.8958 17.6458C58.9574 17.6618 59.0582 17.6618 59.1198 17.6458C59.1814 17.6296 59.131 17.6165 59.0078 17.6165C58.8846 17.6165 58.8342 17.6296 58.8958 17.6458ZM57.9998 17.7738C58.0614 17.7898 58.1622 17.7898 58.2238 17.7738C58.2854 17.7576 58.235 17.7445 58.1118 17.7445C57.9886 17.7445 57.9382 17.7576 57.9998 17.7738ZM30.3507 18.3696C30.3507 18.4928 30.3638 18.5432 30.38 18.4816C30.396 18.42 30.396 18.3192 30.38 18.2576C30.3638 18.196 30.3507 18.2464 30.3507 18.3696ZM54.2878 18.2858C54.3494 18.3018 54.4502 18.3018 54.5118 18.2858C54.5734 18.2696 54.523 18.2565 54.3998 18.2565C54.2766 18.2565 54.2262 18.2696 54.2878 18.2858ZM53.3918 18.4138C53.4534 18.4298 53.5542 18.4298 53.6158 18.4138C53.6774 18.3976 53.627 18.3845 53.5038 18.3845C53.3806 18.3845 53.3302 18.3976 53.3918 18.4138ZM60.304 19.0416C60.3046 19.1824 60.3177 19.2325 60.3331 19.1528C60.3484 19.0733 60.3478 18.9581 60.3318 18.8968C60.3158 18.8357 60.3032 18.9008 60.304 19.0416ZM49.6798 18.9258C49.7414 18.9418 49.8422 18.9418 49.9038 18.9258C49.9654 18.9096 49.915 18.8965 49.7918 18.8965C49.6686 18.8965 49.6182 18.9096 49.6798 18.9258ZM60.4307 19.9056C60.4307 20.0288 60.4438 20.0792 60.46 20.0176C60.476 19.956 60.476 19.8552 60.46 19.7936C60.4438 19.732 60.4307 19.7824 60.4307 19.9056ZM54.5273 23.0896L53.0878 24.5456L54.5438 23.1061C55.8968 21.7686 56.0286 21.6336 55.9833 21.6336C55.9742 21.6336 55.319 22.2888 54.5273 23.0896ZM60.2219 22.4496L59.8078 22.8816L60.2398 22.4675C60.4774 22.2397 60.6718 22.0453 60.6718 22.0355C60.6718 21.9883 60.6067 22.0483 60.2219 22.4496ZM58.4947 24.2416L57.7598 24.9936L58.5118 24.2587C59.2104 23.576 59.2929 23.4896 59.2467 23.4896C59.2374 23.4896 58.899 23.828 58.4947 24.2416ZM56.4478 26.3376C56.1856 26.6016 55.9854 26.8176 56.003 26.8176C56.0206 26.8176 56.2496 26.6016 56.5118 26.3376C56.774 26.0736 56.9742 25.8576 56.9566 25.8576C56.939 25.8576 56.71 26.0736 56.4478 26.3376ZM54.3664 28.4976L53.8558 29.0256L54.3838 28.515C54.8742 28.041 54.9409 27.9696 54.8944 27.9696C54.8846 27.9696 54.647 28.2072 54.3664 28.4976ZM47.2315 30.4496L45.2158 32.4816L47.2478 30.4659C49.1363 28.5928 49.3086 28.4176 49.2635 28.4176C49.2544 28.4176 48.34 29.332 47.2315 30.4496ZM52.4465 30.4816L51.8078 31.1376L52.4638 30.4989C52.8246 30.1475 53.1198 29.8523 53.1198 29.8429C53.1198 29.7965 53.04 29.8723 52.4465 30.4816ZM50.4625 32.5296L49.8878 33.1216L50.4798 32.5469C50.8054 32.2309 51.0718 31.9645 51.0718 31.9549C51.0718 31.9085 50.9963 31.9798 50.4625 32.5296ZM48.7337 34.3216L48.3518 34.7216L48.7518 34.3397C48.9718 34.1294 49.1518 33.9494 49.1518 33.9397C49.1518 33.8923 49.0886 33.9501 48.7337 34.3216ZM42.5692 35.1696C42.5664 35.24 42.6062 35.3534 42.6579 35.4218C42.7096 35.4902 42.7518 35.5176 42.7518 35.4826C42.7518 35.4477 42.7257 35.3918 42.694 35.3584C42.6622 35.325 42.6224 35.24 42.6054 35.1696L42.5747 35.0416L42.5692 35.1696ZM37.5358 42.6261C37.4534 42.6618 37.5219 42.6683 37.7278 42.6445C37.9038 42.6242 38.0598 42.5973 38.0745 42.5846C38.13 42.5368 37.658 42.5731 37.5358 42.6261ZM36.9438 42.7338C37.0054 42.7498 37.1062 42.7498 37.1678 42.7338C37.2294 42.7176 37.179 42.7045 37.0558 42.7045C36.9326 42.7045 36.8822 42.7176 36.9438 42.7338ZM35.5198 42.9456C35.3931 42.9862 35.3865 42.9968 35.4878 42.9968C35.5582 42.9968 35.6878 42.9738 35.7758 42.9456C35.9025 42.905 35.9091 42.8944 35.8078 42.8944C35.7374 42.8944 35.6078 42.9174 35.5198 42.9456ZM41.0878 42.9488C41.3097 43.0994 41.4363 43.1432 41.2798 43.0154C41.1918 42.9434 41.091 42.8843 41.0558 42.884C41.0206 42.8837 41.035 42.913 41.0878 42.9488ZM46.2123 43.5536C46.2123 43.5888 46.2536 43.6896 46.3038 43.7776C46.354 43.8656 46.3953 43.9088 46.3953 43.8736C46.3953 43.8384 46.354 43.7376 46.3038 43.6496C46.2536 43.5616 46.2123 43.5184 46.2123 43.5536ZM53.1243 44.6416C53.1243 44.6768 53.1656 44.7776 53.2158 44.8656C53.266 44.9536 53.3073 44.9968 53.3073 44.9616C53.3073 44.9264 53.266 44.8256 53.2158 44.7376C53.1656 44.6496 53.1243 44.6064 53.1243 44.6416ZM37.5998 44.9627C37.6702 45.0202 37.7854 45.0952 37.8558 45.1298L37.9838 45.1926L37.8558 45.0885C37.7854 45.031 37.6702 44.956 37.5998 44.9214L37.4718 44.8586L37.5998 44.9627ZM44.4798 44.8942C44.4798 44.9118 44.5662 44.971 44.6718 45.0256C44.7774 45.0802 44.8638 45.1106 44.8638 45.093C44.8638 45.0754 44.7774 45.0162 44.6718 44.9616C44.5662 44.907 44.4798 44.8766 44.4798 44.8942ZM45.2478 45.3422C45.2478 45.3598 45.3342 45.419 45.4398 45.4736C45.5454 45.5282 45.6318 45.5586 45.6318 45.541C45.6318 45.5234 45.5454 45.4642 45.4398 45.4096C45.3342 45.355 45.2478 45.3246 45.2478 45.3422ZM53.8923 46.2416C53.8923 46.2768 53.9336 46.3776 53.9838 46.4656C54.034 46.5536 54.0753 46.5968 54.0753 46.5616C54.0753 46.5264 54.034 46.4256 53.9838 46.3376C53.9336 46.2496 53.8923 46.2064 53.8923 46.2416ZM47.4558 51.036C47.5614 51.1267 47.6742 51.2011 47.7065 51.2013C47.776 51.2016 47.7752 51.201 47.4878 51.0155L47.2638 50.871L47.4558 51.036ZM47.9678 51.356C48.0734 51.4467 48.1862 51.5211 48.2185 51.5213C48.288 51.5216 48.2872 51.521 47.9998 51.3355L47.7758 51.191L47.9678 51.356ZM56.2078 52.0138C56.2694 52.0298 56.3702 52.0298 56.4318 52.0138C56.4934 51.9976 56.443 51.9845 56.3198 51.9845C56.1966 51.9845 56.1462 51.9976 56.2078 52.0138ZM55.4398 52.1418C55.5014 52.1578 55.6022 52.1578 55.6638 52.1418C55.7254 52.1256 55.675 52.1125 55.5518 52.1125C55.4286 52.1125 55.3782 52.1256 55.4398 52.1418Z" fill="#FBD659"/>
<path fill-rule="evenodd" clip-rule="evenodd" d="M31.2636 2.88959C30.0937 3.05247 29.3718 3.16351 29.0159 3.23551C28.9055 3.25791 28.8726 3.32543 28.8387 3.59999C28.8158 3.78527 28.7686 4.06639 28.7339 4.22479C28.699 4.38319 28.5983 4.90158 28.5102 5.37678C28.4219 5.85198 28.2787 6.61519 28.1919 7.07279C28.1052 7.53039 27.9188 8.52398 27.7777 9.28078C27.6366 10.0376 27.4929 10.8008 27.4582 10.9768C27.2951 11.8062 27.2007 12.3025 27.1054 12.8328C27.0484 13.1496 26.9735 13.5528 26.9388 13.7288C26.7815 14.5269 26.7391 14.752 26.5583 15.7448C26.4526 16.3256 26.3399 16.916 26.3079 17.0568C26.2339 17.3843 26.1369 17.8824 26.0214 18.5288C25.8593 19.4365 25.5979 20.8235 25.5247 21.1633C25.4313 21.5985 25.4686 21.6835 25.7377 21.6486C25.9721 21.6184 28.4468 21.2089 28.9596 21.1157C29.9774 20.9304 29.9559 20.9499 30.0775 20.0968C30.1564 19.5433 30.555 16.9358 30.7233 15.8728C30.7595 15.644 30.8156 15.2696 30.8481 15.0408C30.8804 14.812 30.9519 14.3368 31.0068 13.9848C31.1124 13.3083 31.2633 12.3206 31.3588 11.6808C31.6297 9.86686 31.6571 9.72878 31.7455 9.72878C31.7943 9.72878 32.6396 11.3896 32.6396 11.4854C32.6396 11.4969 32.7859 11.8192 32.9646 12.2016C33.1433 12.584 33.3635 13.0552 33.4535 13.2488C33.5438 13.4424 33.7396 13.86 33.8887 14.1768C34.038 14.4936 34.254 14.9544 34.3687 15.2008C34.4836 15.4472 34.6918 15.8936 34.8315 16.1928C34.9711 16.492 35.1579 16.8952 35.2465 17.0888C35.7302 18.1461 36.0895 18.8694 36.1499 18.9067C36.303 19.0014 39.8076 17.2993 39.8076 17.1302C39.8076 17.0609 38.4627 14.3397 34.2987 5.98446C33.4566 4.29471 32.7676 2.87967 32.7676 2.83999C32.7676 2.70415 32.5428 2.71151 31.2636 2.88959ZM58.8156 17.6705C57.8423 17.8078 57.234 17.8974 56.6716 17.9861C56.2572 18.0513 54.1657 18.3393 53.3787 18.4393C52.8705 18.5038 52.4936 18.5568 51.3916 18.7181C50.7864 18.8065 49.6964 18.9579 48.9783 19.0531C48.6497 19.0966 48.6028 19.1475 48.2222 19.8728C48.0558 20.1896 47.8124 20.636 47.6812 20.8648C46.42 23.0643 46.4392 22.9654 47.3033 22.8219C48.0587 22.6963 49.4475 22.476 49.9516 22.4016C50.1628 22.3705 50.6956 22.2859 51.1356 22.2137C51.5756 22.1416 52.2236 22.0387 52.5756 21.9849C52.9276 21.9313 53.374 21.8592 53.5676 21.8245C54.6097 21.6384 56.0129 21.4326 56.042 21.4617C56.1147 21.5345 55.8425 21.8206 52.6031 25.0774C41.8251 35.9133 42.5233 35.1897 42.6774 35.364C42.707 35.3974 42.7699 35.5256 42.8174 35.6488C42.8649 35.772 43.0017 36.0888 43.1215 36.3528C43.2414 36.6168 43.3767 36.9192 43.4222 37.0248C43.4676 37.1304 43.5657 37.3534 43.6404 37.5205C43.715 37.6875 43.8803 38.0763 44.0076 38.3845C44.135 38.6926 44.3366 39.1557 44.4555 39.4134C44.5743 39.6712 44.6716 39.8936 44.6716 39.9075C44.6716 39.9216 44.7411 40.0851 44.826 40.2709C44.911 40.4568 45.187 41.0835 45.4391 41.6635C45.6915 42.2437 45.9502 42.8341 46.0142 42.9755C46.078 43.1171 46.2054 43.4121 46.2972 43.6312C46.3889 43.8504 46.5329 44.1816 46.6172 44.3672C46.7015 44.5529 46.8489 44.892 46.9444 45.1208C47.2102 45.7565 47.3612 46.0949 47.4683 46.2945C47.674 46.6782 47.2724 46.5749 46.3996 46.019C46.3468 45.9854 46.1164 45.8517 45.8876 45.7217C45.6588 45.5918 45.0396 45.2339 44.5116 44.9261C42.1484 43.5488 40.5806 42.6507 40.2556 42.4883L39.9036 42.3123L38.4636 42.5289C36.8281 42.775 36.2647 42.8632 35.8076 42.9445C35.6316 42.9758 35.3383 43.02 35.1558 43.0425C34.6769 43.1019 34.7263 43.1504 36.1796 44.0478C38.7673 45.6456 40.8787 46.9464 41.5356 47.3472C41.9052 47.5726 42.3084 47.8219 42.4316 47.9011C42.5548 47.9803 43.174 48.3627 43.8076 48.7509C44.9195 49.432 45.4487 49.7577 48.7036 51.7646C49.5308 52.2747 50.2267 52.7213 50.2499 52.7569C50.3052 52.8419 50.6382 52.8277 51.4236 52.7064C52.6011 52.5246 54.0467 52.3094 55.7916 52.0561C56.7358 51.9192 56.7156 52.0675 55.9919 50.5781C54.394 47.2889 53.7111 45.8801 52.9278 44.2568C52.69 43.764 52.2148 42.7848 51.8718 42.0808C51.5289 41.3768 51.0534 40.3976 50.8151 39.9048C50.5769 39.412 50.1159 38.4616 49.7908 37.7928C49.4655 37.124 49.0039 36.1737 48.7651 35.6813C48.5094 35.1541 48.3499 34.7513 48.3775 34.7021C48.4033 34.656 48.7262 34.3102 49.0951 33.9336C49.4639 33.5569 50.7126 32.2696 51.8697 31.0728C53.0268 29.876 54.4222 28.4357 54.9705 27.8721C55.519 27.3086 56.3852 26.4155 56.8956 25.8873C57.406 25.3593 58.2832 24.4525 58.8448 23.872C59.4065 23.2917 60.0526 22.6235 60.2806 22.3873L60.6951 21.9579L60.6148 21.3313C60.4713 20.2107 60.2852 18.9198 60.2217 18.6038C60.1876 18.4341 60.1596 18.1875 60.1596 18.0561C60.1596 17.5515 59.9947 17.5041 58.8156 17.6705Z" fill="white"/>
</svg>
