<svg fill="none" height="45" viewBox="0 0 55 45" width="55" xmlns="http://www.w3.org/2000/svg"><path d="m38.6869 26.8953-10.795 13.8174-1.2061-9.6456-7.1162-.7692z" fill="#03578c"/><path d="m27.7412 24.1732-8.1716 6.1247 1.6886-16.007z" fill="#03578c"/><path d="m27.5603 24.1436-6.3021-9.8527 5.9704 1.361z" fill="#0099f7"/><path d="m47.8837 29.5582h-.0301l-1.6585 11.1841h-18.3031v-.0296l10.7949-13.8174z" fill="#28adff"/><path d="m19.5696 30.2978 8.051-6.0359-.0603-.1183 11.1266 2.7516z" fill="#0099f7"/><path d="m32.1134 21.0369-4.3723 3.1363-.1809-.0296-.3317-8.4917 11.3076 2.6333.0301-.0296.9649 3.4618z" fill="#0474ba"/><path d="m54.3065 28.9367-6.4227.6214-9.1968-2.6629.5428-.1775-7.0861-5.6809 15.2275 5.5625 2.9852 1.1243.6634-.6805-1.0253-4.6157-3.4978-.0591-5.7894-.5326 4.4325-1.7753 5.2166 1.864.392-8.4621.3618.1184z" fill="#0474ba"/><path d="m51.0197 27.0432-.6634.6806-2.9851-1.1244-.8745-4.231 3.4978.0592z" fill="#03578c"/><path d="m38.9281 3.52094-3.4676.85805-4.0707 1.83444.0603-2.39661 6.5433-3.81682z" fill="#49484d"/><path d="m40.6771 10.1191-9.3778-.0592.0905-3.84642 4.0707-1.83444 3.4677-.85804z" fill="#ffb536"/><path d="m21.2582 14.3796-13.0866 26.5698h-.03016l-8.14144 2.1007z" fill="#ffc767"/><path d="m21.3186 14.2909-1.7489 16.007-7.9003 12.7523-3.49777-2.1008 13.08657-26.5697z" fill="#ffb536"/><path d="m24.4847 30.8304-4.4326 11.0954-8.3827 1.1244 7.9003-12.7523z" fill="#ffc767"/><path d="m27.892 40.7423-.9046 3.8168-6.875-2.6333h-.0603l4.4326-11.0954 2.2012.2367z" fill="#ffb536"/><path d="m38.5361 18.2852-17.2176-3.9943 9.9808-4.2311h.1508l5.7291 6.6277z" fill="#ffb536"/><path d="m50.4467 13.3737h-.0301l-11.8805 4.9115-1.3569-1.5977 5.3975-6.0063z" fill="#ffc767"/><path d="m42.5767 10.6812-5.3974 6.0063-5.88-6.6277 9.3778.0592 1.8695.5622z" fill="#03578c"/><path d="m50.4166 13.3736-1.7187 3.5801-3.528 3.1068h-.0302l-4.4325 1.7752-1.176-.1183-.9951-3.4322 11.8504-4.882z" fill="#0099f7"/><path d="m39.2297 26.7178-.5428.1775-10.9155-2.6925-.0302-.0296 4.4024-3.1363z" fill="#03578c"/><path d="m47.3712 26.5994-15.2275-5.5625h-.0302l7.4178.6805 1.176.1184 5.7894.5326z" fill="#0099f7"/><path d="m50.7483 13.4624-.392 8.4621-5.2165-1.864h.0301l3.528-3.1068 1.7187-3.5801h.0302z" fill="#03578c"/></svg>