<svg xmlns="http://www.w3.org/2000/svg" width="40" height="40" fill="none">
    <g fill="#10d078">
        <path d="M37.705 1.059c-.147 0-3.413.147-7.473 1.118C24.73 3.472 20.61 5.619 18.08 8.532a65.854 65.854 0 0 0-1.56 1.854c-1 .265-3.766 1.03-5.031 1.265a2.87 2.87 0 0 0-1.795 1.177c-.912 1.324-2.5 4.031-2.56 4.149L5.31 20.096l3.325-1.442c1.442-.647 3.472-1.089 4.06-.736.03.03.06.03.089.206 0 .942.235 1.854.676 2.766a3.533 3.533 0 0 0-1.353 2.972v4.06h4.06c1.148.06 2.236-.47 2.972-1.353a6.713 6.713 0 0 0 2.766.677c.147.03.176.059.176.088.354.589-.088 2.619-.735 4.06l-1.442 3.296 3.119-1.824c.118-.06 2.825-1.648 4.149-2.56a2.796 2.796 0 0 0 1.177-1.795c.264-1.265 1-4.031 1.265-5.031.588-.471 1.206-1 1.854-1.56 6.826-6.032 7.444-19.096 7.473-19.655L39 1zm-24.45 14.565c-.766-.236-1.648-.207-2.502-.06.324-.529.648-1.03.912-1.412.06-.117.177-.176.324-.206.589-.117 1.5-.353 2.413-.559-.53.795-.883 1.53-1.148 2.236zm4.001 9.444a1.19 1.19 0 0 1-1.03.471h-.382l2.442-3.825-3.825 2.472v-.412c-.03-.412.147-.795.47-1.03l4.679-3.707c.235-.206.559-.353.853-.412l1.236-.294-.294 1.235c-.089.324-.206.618-.412.854zm8.768 2.972a.56.56 0 0 1-.206.324c-.382.265-.882.588-1.412.912.147-.853.176-1.736-.059-2.501a12.172 12.172 0 0 0 2.236-1.118c-.206.883-.441 1.765-.559 2.383zm3.884-7.885c-4.06 3.59-6.297 4.649-7.915 4.707h-.059c-.5 0-.912-.088-1.324-.235l2.178-2.766c.412-.53.706-1.118.882-1.765l1.177-4.943-4.943 1.177a4.293 4.293 0 0 0-1.765.853l-2.766 2.177a3.787 3.787 0 0 1-.236-1.324v-.059c.03-1.589 1.119-3.854 4.708-7.915 4.326-4.913 13.27-6.237 16.625-6.561-.324 3.384-1.648 12.328-6.562 16.654z"/>
        <path d="M11.622 33.736c-1.5.294-3.03.382-4.56.412-.883 0-1.766-.03-2.678-.118.353-.588.677-1.177.971-1.795.56-1.265.971-2.53 1.295-3.825a32.38 32.38 0 0 1 1.088-3.648 45.919 45.919 0 0 1 1.413-3.62c-.471.471-.883.972-1.265 1.501-.383.53-.766 1.089-1.119 1.648-.676 1.118-1.265 2.354-1.765 3.56-.47 1.177-.971 2.354-1.56 3.413a16.945 16.945 0 0 1-2.089 2.972L0 35.825l2.09.294c1.647.236 3.324.353 5.001.295.853-.03 1.677-.089 2.53-.236a17.67 17.67 0 0 0 2.472-.559 15.582 15.582 0 0 0 4.56-2.207c.678-.5 1.325-1.059 1.854-1.706s1.03-1.324 1.354-2.09c-1.118 1.178-2.472 2.03-3.855 2.708-1.412.676-2.883 1.118-4.384 1.412zM29.055 15.065c1.06 0 2.118-.412 2.942-1.207a4.138 4.138 0 0 0 0-5.855c-.794-.795-1.824-1.207-2.942-1.207s-2.148.442-2.942 1.207a4.138 4.138 0 0 0 0 5.855 4.14 4.14 0 0 0 2.942 1.206zM27.76 9.65c.353-.354.795-.53 1.265-.53.471 0 .942.176 1.266.53a1.776 1.776 0 0 1 0 2.53 1.776 1.776 0 0 1-2.53 0c-.677-.677-.677-1.824 0-2.53z"/>
    </g>
</svg>