<svg viewBox="0 0 200 200" xmlns="http://www.w3.org/2000/svg"><path d="m115 95-12.4-12.4-12.4-12.4c-1.2-1.2-2.7-1.7-4.2-1.7s-3 .5-4.2 1.7l-15.9 15.9-15.9 15.9-5-5-5-5c-.9-.9-2-1-3-.6-.9.4-1.7 1.3-1.7 2.5v55.2c0 .8.3 1.5.8 2s1.2.8 2 .8h55.2c1.2 0 2.1-.7 2.5-1.7s.3-2.1-.6-3l-6-6-6-6 15.9-15.9 15.9-15.9c1.2-1.2 1.7-2.7 1.7-4.2.1-1.5-.5-3-1.7-4.2z" fill="#fff"/><path d="m109.2 143.3c-1.5 0-3-.6-4.1-1.7-2.3-2.3-2.3-6 0-8.3l35.7-35.7c2.3-2.3 6-2.3 8.3 0l3.9 3.9v-41.8h-41.8l4 4c2.3 2.3 2.3 6 0 8.3s-6 2.3-8.3 0l-13.9-14c-1.7-1.7-2.2-4.2-1.3-6.4s3-3.6 5.4-3.6h61.8c3.2 0 5.9 2.6 5.9 5.9v61.8c0 2.4-1.4 4.5-3.6 5.4s-4.7.4-6.4-1.3l-9.8-9.8-31.6 31.6c-1.2 1.1-2.7 1.7-4.2 1.7z" fill="#f9943c"/></svg>