<svg width="95" height="95" viewBox="0 0 95 95" fill="none" xmlns="http://www.w3.org/2000/svg">
<rect width="95" height="95" rx="15" fill="#150D1A"/>
<path d="M74.2915 38.1665L57.0838 20.9588C51.5837 15.4587 42.6663 15.4587 37.1662 20.9588L19.9585 38.1665C14.4584 43.6666 14.4584 52.584 19.9585 58.084L37.1663 75.2918C42.6663 80.7919 51.5837 80.7919 57.0837 75.2918L74.2915 58.084C79.7916 52.584 79.7916 43.6666 74.2915 38.1665Z" stroke="#EA7125" stroke-width="14.0838"/>
<path d="M74.2915 38.1665L57.0838 20.9588C51.5837 15.4587 42.6663 15.4587 37.1662 20.9588L19.9585 38.1665C14.4584 43.6666 14.4584 52.584 19.9585 58.084L37.1663 75.2918C42.6663 80.7919 51.5837 80.7919 57.0837 75.2918L74.2915 58.084C79.7916 52.584 79.7916 43.6666 74.2915 38.1665Z" stroke="url(#paint0_linear_29129_959)" stroke-opacity="0.2" stroke-width="14.0838"/>
<path d="M57.8607 45.7235L49.8438 37.7066C48.3428 36.2056 45.9092 36.2056 44.4081 37.7066L36.3913 45.7235C34.8902 47.2245 34.8902 49.6582 36.3913 51.1592L44.4081 59.1761C45.9092 60.6771 48.3428 60.6771 49.8438 59.1761L57.8607 51.1592C59.3617 49.6582 59.3617 47.2245 57.8607 45.7235Z" fill="#EA7125"/>
<path d="M57.8607 45.7235L49.8438 37.7066C48.3428 36.2056 45.9092 36.2056 44.4081 37.7066L36.3913 45.7235C34.8902 47.2245 34.8902 49.6582 36.3913 51.1592L44.4081 59.1761C45.9092 60.6771 48.3428 60.6771 49.8438 59.1761L57.8607 51.1592C59.3617 49.6582 59.3617 47.2245 57.8607 45.7235Z" fill="url(#paint1_linear_29129_959)" fill-opacity="0.2"/>
<defs>
<linearGradient id="paint0_linear_29129_959" x1="77.7089" y1="27.5001" x2="30.6249" y2="74.5841" gradientUnits="userSpaceOnUse">
<stop stop-color="white"/>
<stop offset="1" stop-color="white" stop-opacity="0"/>
</linearGradient>
<linearGradient id="paint1_linear_29129_959" x1="53.8523" y1="41.7151" x2="40.3997" y2="55.1676" gradientUnits="userSpaceOnUse">
<stop stop-color="white"/>
<stop offset="1" stop-color="white" stop-opacity="0"/>
</linearGradient>
</defs>
</svg>
