<svg width="499" height="500" viewBox="0 0 499 500" fill="#000000" xmlns="http://www.w3.org/2000/svg">
<path fill-rule="evenodd" clip-rule="evenodd" d="M203.111 3.61395C193.069 5.46845 177.355 9.53999 168.189 12.6569C159.023 15.7764 143.741 22.2502 134.229 27.039C124.719 31.8279 107.457 42.9053 95.874 51.6509C84.2906 60.3965 68.9825 74.3092 61.854 82.5696C54.7282 90.8275 45.3096 102.865 40.9251 109.32C36.5431 115.776 28.7 129.522 23.5017 139.869C18.3007 150.213 10.8932 168.993 7.04333 181.601C0.629535 202.595 0.037453 208.253 0.000936882 248.864C-0.0329709 286.254 0.83559 296.353 5.54095 313.284C8.60831 324.33 15.2099 342.22 20.21 353.042C25.2101 363.864 34.7199 380.794 41.3424 390.667C47.9675 400.536 62.4252 417.404 73.474 428.148C84.5227 438.891 102.053 453.169 112.426 459.875C122.802 466.581 139.477 475.551 149.482 479.808C159.485 484.064 177.386 489.868 189.261 492.703C201.137 495.541 220.861 498.616 233.096 499.539C245.882 500.504 265.157 499.912 278.431 498.147C291.131 496.456 311.069 492.064 322.741 488.384C334.41 484.703 351.002 478.149 359.609 473.819C368.216 469.487 382.301 461.169 390.909 455.331C399.516 449.497 414.827 436.453 424.934 426.345C435.041 416.238 448.082 400.928 453.917 392.32C459.749 383.713 467.647 370.494 471.466 362.943C475.284 355.392 481.831 338.96 486.012 326.427C490.386 313.315 494.93 291.857 496.709 275.894C499.043 254.944 499.08 242.033 496.855 223.167C495.235 209.427 490.861 188.461 487.134 176.575C483.409 164.689 475.563 145.693 469.7 134.36C463.836 123.027 454.407 107.768 448.745 100.452C443.082 93.1358 433.035 81.495 426.418 74.583C419.798 67.671 406.754 56.4136 397.429 49.5643C388.105 42.7175 374.02 33.5311 366.13 29.1518C358.24 24.7724 343.391 18.1995 333.135 14.5427C322.876 10.8885 304.848 6.06836 293.069 3.83305C281.292 1.60035 260.34 -0.121125 246.513 0.00668094C232.684 0.137096 213.153 1.75945 203.111 3.61395ZM308.28 30.941C318.784 33.9484 335.803 40.6256 346.101 45.7822C356.398 50.9362 371.897 60.1722 380.541 66.3017C389.184 72.4312 404.109 85.77 413.705 95.9423C423.301 106.115 436.504 123.556 443.043 134.702C449.585 145.847 458.62 166.116 463.124 179.744C470.331 201.544 471.453 208.913 472.454 241.039C473.417 271.778 472.731 281.189 468.132 300.511C465.13 313.138 458.701 332.061 453.849 342.562C448.998 353.065 440.328 368.577 434.584 377.033C428.841 385.489 417.659 399 409.733 407.052C401.806 415.106 387.687 427.144 378.352 433.803C369.02 440.464 352.554 449.992 341.763 454.977C330.973 459.964 312.381 466.383 300.448 469.244C285.502 472.828 269.675 474.45 249.578 474.463C233.508 474.474 212.008 472.716 201.708 470.548C191.424 468.386 174.243 463.104 163.525 458.813C152.808 454.52 135.83 445.699 125.794 439.207C115.76 432.715 101.61 421.859 94.3534 415.08C87.0945 408.299 76.0223 396.092 69.7493 387.949C63.4764 379.806 53.7187 364.547 48.0666 354.041C42.417 343.535 34.7147 324.374 30.9562 311.463C26.4386 295.952 23.6243 278.698 22.6592 260.601C21.5898 240.562 22.3853 226.933 25.6222 209.805C28.0557 196.928 33.5488 177.316 37.8264 166.223C42.104 155.13 51.5434 136.955 58.8023 125.839C66.0586 114.719 79.1966 98.4593 87.997 89.7007C96.7973 80.942 111.039 69.0248 119.646 63.2187C128.253 57.41 141.164 49.726 148.337 46.1396C155.51 42.5532 167.38 37.6548 174.715 35.2526C182.049 32.8529 195.547 29.1831 204.71 27.099C216.39 24.4438 231.505 23.6326 255.277 24.3916C279.177 25.1532 294.822 27.086 308.28 30.941ZM235.793 63.0987C232.251 64.8932 226.675 70.3315 223.404 75.1829C219.927 80.3447 217.457 87.9401 217.457 93.4749C217.457 98.6837 219.233 105.478 221.403 108.574C225.217 114.02 224.484 114.834 199.233 133.157C184.869 143.578 173.116 153.58 173.116 155.383C173.116 157.662 179.214 158.891 193.153 159.42L213.187 160.182L225.637 187.569C232.486 202.632 240.316 216.453 243.039 218.282C245.765 220.11 249.99 220.841 252.434 219.902C254.876 218.965 263.274 205.439 271.094 189.841L285.317 161.486H304.856C320.161 161.486 324.397 160.67 324.397 157.715C324.397 155.641 314.128 146.045 301.575 136.389C289.023 126.733 277.735 117.964 276.493 116.905C275.252 115.844 276.133 112.268 278.449 108.96C280.768 105.65 282.646 98.8036 282.625 93.7409C282.604 88.6808 281.12 81.6437 279.328 78.099C277.534 74.5569 272.096 68.9804 267.244 65.7096C262.39 62.4388 254.776 59.781 250.327 59.8018C245.877 59.8227 239.338 61.3068 235.793 63.0987ZM142.393 185.853C137.847 192.183 129.349 203.407 123.511 210.793C113.368 223.626 112.645 224.043 107.215 220.241C104.088 218.052 96.8052 216.268 91.0252 216.279C85.0444 216.286 77.2273 218.467 72.8715 221.336C68.6669 224.111 63.719 229.091 61.8801 232.406C60.0413 235.718 58.4945 243.261 58.4424 249.164C58.3824 256.209 60.2238 262.278 63.7972 266.822C66.7941 270.63 72.6054 275.484 76.7109 277.607C80.8163 279.731 87.2249 281.468 90.9548 281.468C94.6846 281.468 101.057 279.749 105.118 277.649L112.499 273.833L131.722 299.136C142.296 313.054 152.119 324.455 153.554 324.473C154.994 324.492 156.517 315.743 156.958 304.942L157.751 285.38L186.59 272.339C205.201 263.924 216.148 257.448 217.449 254.081C218.56 251.211 218.513 247.103 217.347 244.952C216.179 242.8 202.603 234.584 187.172 226.694L159.123 212.348L158.945 194.134C158.807 179.828 157.899 175.748 154.715 175.13C152.362 174.671 147.19 179.176 142.393 185.853ZM337.439 194.244V213.96L308.682 227.301C286.806 237.453 279.571 242.062 278.442 246.563C277.625 249.816 277.745 253.757 278.71 255.317C279.675 256.877 293.231 264.558 308.836 272.383L337.209 286.611L337.976 305.349C338.419 316.218 339.969 324.492 341.664 325.052C343.271 325.582 353.172 314.489 363.67 300.399L382.758 274.78L392.609 279.655C399.354 282.994 404.98 283.977 410.442 282.777C414.829 281.815 421.835 278.153 426.008 274.642C430.182 271.128 434.939 264.185 436.582 259.211C438.823 252.422 438.823 247.915 436.582 241.125C434.939 236.151 430.182 229.208 426.008 225.695C421.835 222.184 414.994 218.558 410.805 217.638C406.183 216.623 399.362 217.562 393.467 220.024C388.123 222.257 383.451 224.085 383.084 224.085C382.716 224.085 374.033 212.935 363.79 199.306C353.547 185.678 343.427 174.528 341.301 174.528C338.231 174.528 337.439 178.568 337.439 194.244ZM240.606 282.24C238.634 284.251 231.198 297.811 224.082 312.373L211.145 338.85H192.13C175.703 338.85 173.137 339.471 173.262 343.415C173.348 346.062 183.69 355.569 197.871 366.042L222.335 384.107L218.592 391.345C216.534 395.325 214.854 402.456 214.859 407.187C214.864 411.922 217.238 419.681 220.133 424.428C223.028 429.178 229.44 434.752 234.385 436.818C239.328 438.883 245.288 440.574 247.627 440.574C249.967 440.574 256.01 438.615 261.06 436.218C266.107 433.823 272.442 428.247 275.137 423.828C277.831 419.41 280.033 412.274 280.03 407.97C280.027 403.666 278.249 396.744 276.081 392.584C273.914 388.426 272.453 384.79 272.836 384.506C273.22 384.221 285.02 375.418 299.055 364.946C313.09 354.474 324.147 344.612 323.625 343.029C323.075 341.37 314.399 339.836 303.082 339.401L283.491 338.647L269.386 309.405C258.65 287.154 253.952 279.976 249.735 279.373C246.686 278.938 242.578 280.226 240.606 282.24Z" fill="#000000"/>
</svg>
