<svg xmlns="http://www.w3.org/2000/svg" width="200" height="200" fill="#000000"><path fill-opacity=".067" fill-rule="evenodd" d="M0 100.005V200.01l100.25-.255 100.25-.255.255-99.75L201.01 0H0zm.481.495c0 55 .121 77.647.269 50.326.148-27.32.148-72.32 0-100C.602 23.147.481 45.5.481 100.5M43 38.5c0 2.296.367 2.5 4.5 2.5H52v32h-4.5c-4.133 0-4.5.204-4.5 2.5V78h23v-2.5c0-2.296-.367-2.5-4.5-2.5H57V36h-7c-6.8 0-7 .071-7 2.5m4.741 92.877c-7.824 2.901-9.742 6.71-9.739 19.341.001 9.766 1.565 14.223 6.174 17.601 3.308 2.424 11.409 3.303 16.12 1.748 3.871-1.277 8.704-5.554 8.704-7.703 0-2.371-3.731-1.479-6.846 1.636-2.537 2.537-3.776 3-8.021 3-7.09 0-10.217-2.817-10.889-9.809L42.746 152H70v-4.48c0-6.328-2.572-12.093-6.471-14.502-4.343-2.684-11.087-3.385-15.788-1.641m82.894-.269c-1.69 1.015-1.033 1.957 6.975 10.002l8.84 8.882-6.002 6.254c-10.265 10.695-10.964 11.638-9.621 12.981.935.935 3.084-.672 9.687-7.241l8.486-8.442 8.442 8.398c7.388 7.35 8.644 8.231 10.059 7.057 1.439-1.194.673-2.29-6.958-9.955l-8.574-8.614 8.498-9.107c7.329-7.854 8.289-9.281 6.978-10.368-1.289-1.07-2.795.091-9.914 7.642l-8.394 8.903-8.319-8.756c-7.239-7.621-8.56-8.611-10.183-7.636m-82.159 4.236c-3.375 1.528-5.476 5.252-5.476 9.703V148h22.263l-.557-4.153c-1.032-7.693-8.908-11.82-16.23-8.503"/><path fill-opacity=".218" fill-rule="evenodd" d="M0 100.005V200.01l100.25-.255 100.25-.255.255-99.75L201.01 0H0zm.481.495c0 55 .121 77.647.269 50.326.148-27.32.148-72.32 0-100C.602 23.147.481 45.5.481 100.5M43 38.5c0 2.296.367 2.5 4.5 2.5H52v32h-4.5c-4.133 0-4.5.204-4.5 2.5V78h23v-2.5c0-2.296-.367-2.5-4.5-2.5H57V36h-7c-6.8 0-7 .071-7 2.5m4.741 92.877C39.816 134.316 38 138.033 38 151.32c0 8.092.313 9.852 2.27 12.782 1.248 1.869 3.836 4.185 5.75 5.146 7.319 3.678 19.29.92 22.439-5.169 1.584-3.062 1.578-3.079-1.039-3.079-1.606 0-3.388.96-4.569 2.463-2.215 2.815-7.223 4.065-12.399 3.094-4.338-.814-7.443-5.319-7.448-10.807L43 152h27.274l-.509-6.34c-.568-7.08-2.621-11.017-6.896-13.228-4.222-2.183-10.843-2.645-15.128-1.055m82.923-.276c-1.649.983-.949 2 6.902 10.023l8.737 8.929-8.151 8.351c-4.484 4.593-8.152 8.767-8.152 9.274s.464 1.386 1.03 1.952c.707.707 3.678-1.662 9.468-7.55l8.437-8.58 8.344 8.291c6.058 6.019 8.807 8.113 10.033 7.643.928-.356 1.688-.947 1.688-1.313s-3.805-4.45-8.455-9.076l-8.455-8.411 8.446-9.202c7.507-8.177 8.268-9.35 6.84-10.535-1.405-1.166-2.641-.213-9.837 7.591l-8.231 8.924-8.404-8.703c-7.233-7.49-8.66-8.55-10.24-7.608m-82.281 4.429c-3.496 1.785-5.383 5.121-5.383 9.517V148h22.263l-.557-4.153c-1.052-7.846-9.156-11.976-16.323-8.317"/><path fill-opacity=".36" fill-rule="evenodd" d="M0 100.005V200.01l100.25-.255 100.25-.255.255-99.75L201.01 0H0zm.481.495c0 55 .121 77.647.269 50.326.148-27.32.148-72.32 0-100C.602 23.147.481 45.5.481 100.5M43 38.5c0 2.296.367 2.5 4.5 2.5H52v32h-4.5c-4.133 0-4.5.204-4.5 2.5V78h23v-2.5c0-2.296-.367-2.5-4.5-2.5H57V36h-7c-6.8 0-7 .071-7 2.5m3.271 93.464c-6.67 3.027-8.264 6.602-8.264 18.536 0 11.315 1.427 14.965 7.234 18.505 6.984 4.258 19.91 1.472 23.264-5.015 1.524-2.946 1.509-2.99-1.027-2.99-1.522 0-3.475 1.047-4.778 2.562-1.472 1.712-3.606 2.75-6.433 3.129C48.224 167.77 43 163.383 43 155.55V152h27l-.002-5.25c-.002-7.257-2.453-11.723-7.96-14.5-5.434-2.74-10.172-2.826-15.767-.286m83.982-.817c-.862.862.953 3.396 7.316 10.214l8.462 9.069-8.524 8.563c-8.031 8.068-8.424 8.661-6.818 10.267 1.606 1.607 2.179 1.201 9.925-7.027l8.219-8.733 8.396 8.291c6.088 6.013 8.859 8.113 10.083 7.643.928-.356 1.688-.947 1.688-1.313s-3.795-4.44-8.433-9.054l-8.433-8.389 8.441-9.046c7.684-8.235 8.297-9.184 6.843-10.589-1.451-1.401-2.353-.735-9.776 7.211l-8.179 8.754-8.459-8.504c-4.653-4.677-8.717-8.504-9.032-8.504s-1.088.516-1.719 1.147m-80.865 3.782c-3.376 1.446-6.388 6.023-6.388 9.706V148h22.263l-.557-4.153c-.721-5.377-4.171-8.866-9.303-9.409-2.147-.228-4.853-.007-6.015.491"/><path fill-opacity=".11" fill-rule="evenodd" d="M0 100.005V200.01l100.25-.255 100.25-.255.012-100c.007-55-.11-78.062-.259-51.25L199.981 97H102V0H0zm.481.495c0 55 .121 77.647.269 50.326.148-27.32.148-72.32 0-100C.602 23.147.481 45.5.481 100.5M43 38.5c0 2.296.367 2.5 4.5 2.5H52v32h-4.5c-4.133 0-4.5.204-4.5 2.5V78h23v-2.5c0-2.296-.367-2.5-4.5-2.5H57V36h-7c-6.8 0-7 .071-7 2.5m4.643 92.528c-7.25 2.173-9.643 7.058-9.643 19.688 0 11.391 1.578 15.516 7.062 18.457 4.141 2.221 12.61 2.409 17.448.387 2.977-1.244 7.475-6.537 7.486-8.81.009-1.675-4.983-.642-5.99 1.24C62.596 164.624 57.85 167 54 167c-6.742 0-11-4.47-11-11.547V152h27l-.002-5.25c-.002-7.257-2.453-11.723-7.96-14.5q-6.885-3.472-14.395-1.222m82.565.222c-.768.926 1.125 3.581 7.309 10.25l8.346 9-8.645 8.734c-8.288 8.373-8.563 8.796-6.681 10.233 1.844 1.407 2.463.968 10.195-7.234l8.232-8.733 8.463 8.65c7.612 7.78 8.645 8.515 10.268 7.306 1.664-1.24 1.162-1.995-6.445-9.672-4.537-4.579-8.25-8.718-8.25-9.198s3.652-4.678 8.116-9.327c7.593-7.909 8.008-8.561 6.426-10.107-1.578-1.542-2.241-1.078-9.983 7.003l-8.292 8.655-8.362-8.405c-4.598-4.623-8.653-8.405-9.01-8.405-.358 0-1.117.563-1.687 1.25m-79.834 3.439c-3.346.657-6.488 4.741-7.088 9.213L42.737 148h11.131C64.392 148 65 147.889 65 145.968c0-4.329-2.87-9.016-6.432-10.504-3.521-1.471-4.279-1.543-8.194-.775"/></svg>