<svg xmlns="http://www.w3.org/2000/svg" width="300" height="300" fill="#000000"><g fill="#000000"><path d="M134.134 66.654c5.391-6.328 3.281-15.703 3.281-15.703l-15.703 23.203c-.234 0 5.625.235 12.422-7.5zM81.395 193.434l1.875-9.375s-7.734 13.593-8.438 15.468c-.703 2.109.47 5.859 3.516 5.625 3.047-.235 6.797-4.687 6.797-7.968 0-4.219-3.75-3.75-3.75-3.75z"/><path d="M220.623 44.38s11.718.469 23.906 1.875c-27.423-21.562-53.438-27.89-74.531-27.89-29.063 0-48.751 11.953-49.923 12.656l9.141-14.531s-36.563-3.516-49.454 35.156c-3.28-8.203-6.328-20.156-6.328-20.156S54.45 48.13 63.356 75.787c-21.797-7.97-52.969-18.985-54.14-19.22-1.641-.234-2.11.47-2.11.47s-.469.703.938 1.875c2.578 2.109 51.797 38.437 62.578 45.468-2.344 8.438-2.344 12.422 0 16.406 3.281 5.391 3.515 8.204 3.047 12.188-.469 3.985-4.688 38.437-5.625 42.656s-10.782 19.219-10.313 23.671c.469 4.454 6.563 23.438 11.953 25.548 3.985 1.406 13.828 4.453 20.391 4.453 2.344 0 4.453-.47 5.39-1.407 3.985-3.515 5.157-4.219 7.969-4.219h.704c1.171 0 2.578.235 4.218.235 3.75 0 8.672-.702 12.188-3.984 5.156-5.156 14.062-12.188 16.875-15.47 3.516-4.452 5.391-10.546 4.454-16.64-.704-5.625 2.343-10.547 5.858-15.468 4.454-5.86 12.657-16.407 12.657-16.407 16.172 12.188 26.25 30.703 26.25 51.328 0 36.562-31.875 66.094-71.25 66.094a75.589 75.589 0 0 1-17.813-2.109c18.047 6.327 33.281 8.437 45.704 8.437 26.484 0 40.546-9.61 40.546-9.61s-4.921 6.329-12.89 13.594h.234c43.829-6.094 65.156-42.187 65.156-42.187s-1.64 11.718-3.75 19.687c58.36-43.827 48.516-98.671 48.281-100.546.469.704 6.329 7.735 9.375 11.484 9.377-96.562-69.608-127.734-69.608-127.734zM130.856 198.6c-.937 1.171-4.921 4.687-7.734 7.266-2.813 2.577-5.859 5.155-8.203 7.499-.938.937-2.813 1.406-5.625 1.406h-7.031c3.515-4.688 13.828-15.469 17.343-17.813 4.219-2.811 6.329-5.625 3.75-10.546-2.578-4.922-9.375-3.75-9.375-3.75s3.985-1.641 7.5-1.641c-4.453-1.171-10.078.001-12.656 2.579-2.812 2.577-2.344 11.718-3.516 17.578-1.171 6.093-5.156 9.14-11.25 14.765-3.28 3.047-5.625 3.985-7.5 3.985-3.984-.703-8.672-1.876-11.953-3.047-2.343-3.048-5.86-13.125-6.797-17.344.704-2.344 3.516-7.266 4.922-10.077 2.813-5.392 4.453-8.439 4.922-11.252.938-3.983 3.985-28.592 5.156-38.905 3.047 3.984 7.266 10.547 6.329 14.765 6.796-9.608 1.875-18.983-.47-22.733-2.109-3.75-4.921-11.251-2.577-19.219 2.343-7.97 10.78-30 10.78-30s2.813 4.922 6.798 3.984c3.984-.938 36.094-49.219 36.094-49.219s8.672 18.985-.469 32.813c-9.375 13.828-18.516 16.406-18.516 16.406s12.891 2.344 24.845-6.328c4.921 11.484 9.608 23.437 9.843 25.078-.703 1.641-10.078 24.141-11.016 25.547-.469.469-3.75 1.406-6.094 1.875-3.983 1.171-6.327 1.875-7.265 2.578-1.641 1.406-9.141 22.031-12.657 32.108-4.218 1.173-8.437 3.517-11.484 8.204 1.641-1.172 6.797-1.875 10.547-2.344 3.281-.235 13.359 5.157 15.938 15.234v.469c.469 3.75-.704 7.266-2.579 10.079zm-22.031 2.812c2.109-3.047 1.875-8.204 2.109-9.844.235-1.641.704-4.687 2.579-5.156s6.328.234 6.328 3.515c0 3.048-3.282 3.75-5.625 5.86-1.641 1.64-4.922 5.156-5.391 5.625zm93.516-44.765c2.344-11.954 2.578-22.266 1.875-30.704 9.14 12.188 14.765 26.953 16.407 42.188.233 1.875 2.108 3.75 3.983 5.625 1.642 1.406 3.517 3.281 3.517 4.452 0 5.392-.469 10.782-1.407 16.173-.235.704-2.343 1.875-3.985 2.812-2.343 1.172-4.452 2.344-4.921 4.219-5.156 18.046-16.172 33.984-30.937 45.234 21.796-22.734 32.343-60.234 15.468-89.999zm-14.766 92.109c15.235-11.719 26.954-28.125 32.11-46.641.234-.703 2.344-1.875 3.75-2.813 2.344-1.171 4.688-2.577 5.156-4.452.938-5.392 1.407-11.017 1.407-16.642 0-2.108-2.11-4.217-4.219-6.327-1.173-1.406-3.048-3.048-3.048-4.219-1.875-17.11-8.671-33.281-19.218-46.64-4.688-28.125-23.438-36.797-23.907-37.031.469.703 12.657 18.281 4.219 38.906-8.671 20.859-30.937 17.578-32.812 17.813-1.875 0-9.14 9.373-18.282 26.717-1.171-.467-6.093-1.64-11.718-.702 4.218-11.719 10.547-28.359 11.718-29.765.469-.469 3.985-1.407 6.329-2.11 4.453-1.172 6.563-1.875 7.265-2.813.469-.702 2.813-6.094 5.156-11.718 2.11 0 7.5-.469 7.969-.703.469-.469 4.923-11.954 4.923-13.36 0-1.172-9.142-23.906-12.657-32.578 1.64-1.875 3.282-4.219 4.922-6.797 48.047 5.157 85.547 45.938 85.547 95.391 0 37.968-22.266 71.015-54.61 86.484z"/><path d="M125.227 122.188c4.452-5.157 2.109-14.766-6.094-16.407 2.11-4.922 5.156-14.765 5.156-14.765s-23.906 37.499-26.015 38.203c-2.11.703-4.219-7.5-4.219-7.5-4.453 17.109 7.5 19.453 8.906 14.063 6.563-1.642 17.813-8.673 22.266-13.594z"/></g></svg>