<svg xmlns="http://www.w3.org/2000/svg" width="64" height="64" fill="#000000"><path fill-opacity=".118" fill-rule="evenodd" d="M18.5 2.882C6.778 8.51.027 18.996.01 31.601c-.012 8.464 1.288 12.709 4.544 14.842 2.369 1.552 2.389 1.538 1.425-.999-1.403-3.691.235-6.055 4.698-6.779 2.865-.465 4.235-.168 5.788 1.255 2.27 2.08 7.549 3.507 11.903 3.22 1.577-.104 3.524.355 4.326 1.021 1.141.947 1.621.947 2.207-.001.412-.666 2.065-1.406 3.674-1.646A97 97 0 0 0 44 41.529c1.375-.303 1.938-.284 1.25.043s-1.282 1.57-1.32 2.761c-.068 2.098-.098 2.104-.93.167-.743-1.728-.874-1.592-.97 1l-.11 3-1.492-2.75c-1.593-2.936-2.745-3.741-1.79-1.25.317.825.051 1.5-.59 1.5s-.888-.45-.548-1 .141-1-.441-1S36 44.978 36 46.174v2.175l-2.314-2.175c-2.925-2.747-5.109-2.751-7.844-.016l-2.158 2.158.564-2.158c.597-2.281-.726-3.038-1.586-.908-.403 1-.52 1-.583 0-.043-.687-1.015-1.25-2.158-1.25-1.808 0-1.998.426-1.457 3.25.546 2.85.474 3.004-.585 1.25-1.325-2.193-2.883-3.461-4.284-3.485-.498-.008-.16.808.75 1.814 2.385 2.636 2.041 3.557-.412 1.104-1.551-1.551-1.794-2.396-.973-3.385.847-1.021.489-1.469-1.588-1.991-3.37-.846-6.011 2.312-3.323 3.973.717.444.682 1.09-.114 2.048-.639.77-1.607 1.125-2.152.788s-.217.568.728 2.011C7.457 52.82 8.88 54 9.674 54s1.203.39.909.866c-.803 1.299 2.275 3.695 8.42 6.556 4.368 2.033 7.057 2.56 13.092 2.568 6.599.009 8.435-.416 14-3.24 3.523-1.787 6.292-3.812 6.155-4.5-.138-.687.394-1.25 1.182-1.25 1.665 0 5.815-5.42 4.872-6.363-.351-.35-.187-.637.363-.637s1-.675 1-1.5c0-1.774-.633-1.844-4.251-.468-2.485.945-2.596.889-1.315-.664 1.289-1.562 1.203-1.593-1.101-.386l-2.5 1.309 1.905-2.145c1.048-1.181 1.411-2.146.807-2.146s-1.751.932-2.549 2.07c-1.079 1.541-1.606 1.733-2.062.75-.337-.726-.404-.191-.149 1.188.256 1.38-.009 3.18-.588 4-.851 1.207-.933 1.125-.424-.428.345-1.056.102-2.245-.541-2.643-2.268-1.401-.041-5.98 3.659-7.526C54.128 37.92 58 38.796 58 41.094c0 .563-.45.746-1 .406s-1 .364-1 1.563c0 1.663.306 1.928 1.284 1.117.789-.656 1.841-.721 2.733-.17C62.552 45.577 65 38.77 65 30.155c0-4.119-.286-7.203-.635-6.853-.349.349-1.871-1.939-3.381-5.084C55.415 6.624 44.912.026 32 .011c-6.22-.008-8.524.482-13.5 2.871M25 7.819c0 1.208 1.897 2.617 2.591 1.924.251-.252-.229-1.027-1.067-1.723-.95-.789-1.524-.865-1.524-.201m.459 7.248c-.363.586-.445 1.281-.183 1.543s.743-.218 1.069-1.067c.676-1.762.1-2.072-.886-.476M.349 32c0 4.675.173 6.587.383 4.25.211-2.338.211-6.163 0-8.5-.21-2.338-.383-.425-.383 4.25M26.2 29.051c-1.34 2.146-1.602 4.987-.45 4.879 1.673-.157 4.652-1.794 3.383-1.86-.863-.044-1.174-.806-.844-2.069.711-2.715-.611-3.316-2.089-.95M15.459 43.067c-1.076 1.741.149 2.11 1.521.457.789-.95.865-1.524.201-1.524-.584 0-1.36.48-1.722 1.067M9 44c-1.282.828-1.246.972.25.985.963.008 1.75-.435 1.75-.985 0-1.22-.113-1.22-2 0m21.723 6.332c.295 1.545-.035 2.649-.874 2.922-.965.314-.925.408.14.331 1.768-.128 2.609-3.387 1.229-4.767-.626-.626-.801-.09-.495 1.514M55 49.059c0 .582-.45.781-1 .441s-1-.141-1 .441c0 1.529 1.554 1.301 3-.441.86-1.036.898-1.5.122-1.5-.617 0-1.122.477-1.122 1.059m-32.435 4.836c-.305.493.096 1.145.89 1.449q1.444.555.887-.895c-.645-1.68-1.011-1.794-1.777-.554M48 54c0 .55.477 1 1.059 1s.781-.45.441-1-.816-1-1.059-1-.441.45-.441 1m-7 .893c0 .491.739 1.176 1.641 1.523 1.373.527 1.435.38.378-.893-1.44-1.735-2.019-1.916-2.019-.63m-7.128 1.857c-1.243 1.586-1.208 1.621.378.378.962-.755 1.75-1.543 1.75-1.75 0-.823-.821-.294-2.128 1.372M25 57.393c0 .216.698.661 1.552.989.89.341 1.291.173.941-.393-.587-.951-2.493-1.406-2.493-.596"/><path fill-opacity=".32" fill-rule="evenodd" d="M20.035 2.202C12.556 5.073 4.99 12.739 2.154 20.319c-3.693 9.87-2.408 22.974 2.573 26.238 2.321 1.521 2.376 1.504 1.346-.42-1.638-3.061-1.296-4.95 1.177-6.51 4.351-2.744 6.269-2.773 9.329-.141 1.607 1.381 4.084 2.512 5.504 2.513 1.421 0 2.858.275 3.193.61.928.929 9.794 1.086 10.352.184.269-.436 1.618-.793 2.997-.793s3.434-.496 4.568-1.103c1.512-.809 2.247-.803 2.758.023.471.762 1.29.472 2.528-.896 2.758-3.048 6.963-2.617 9.521.976 1.175 1.65 2.469 3 2.876 3 .406 0 1.501-1.726 2.432-3.836 1.703-3.861 2.439-16.744.902-15.794-.435.269-1.605-1.804-2.6-4.605-2.506-7.057-10.373-14.784-17.929-17.611-7.451-2.788-16.305-2.77-23.646.048M25 7.833C25 9.165 25.625 10 26.622 10c1.389 0 1.43-.252.283-1.75a91 91 0 0 1-1.622-2.167c-.156-.229-.283.559-.283 1.75M43 8.5c-.718.865-.815 1.5-.229 1.5.558 0 1.274-.675 1.591-1.5s.419-1.5.229-1.5-.906.675-1.591 1.5m-16.75 5.22c-.687.246-1.25 1.116-1.25 1.935 0 1.263.244 1.244 1.619-.131 1.76-1.76 1.607-2.509-.369-1.804M27.5 23c.34.55 1.068 1 1.618 1s.722-.45.382-1-1.068-1-1.618-1-.722.45-.382 1M.336 32c0 4.125.177 5.813.392 3.75s.216-5.437 0-7.5C.513 26.188.336 27.875.336 32m25.18-3.017c-.922 1.019-1.527 2.902-1.343 4.185.258 1.802.883 2.271 2.75 2.064 3.416-.38 5.591-2.284 3.874-3.394-1.05-.679-1.054-.995-.019-1.665.937-.605.628-1.123-1.154-1.934-2.006-.915-2.725-.784-4.108.744m25.297-1.3c.721.289 1.584.253 1.916-.079s-.258-.568-1.312-.525c-1.165.048-1.402.285-.604.604m-35.249 20.61c.376.986.935 1.541 1.243 1.233s.001-1.114-.683-1.793c-.988-.98-1.102-.865-.56.56m11.895.774c-.363.586-.445 1.281-.183 1.543s.743-.218 1.069-1.067c.676-1.762.1-2.072-.886-.476M29 51.559c0 .857.45 1.281 1 .941s1-1.041 1-1.559S30.55 50 30 50s-1 .702-1 1.559M13 52c-.901.582-1.025.975-.309.985.655.008 1.469-.435 1.809-.985.767-1.242.421-1.242-1.5 0m3 .048c0 .577-1.423 1.647-3.163 2.378l-3.162 1.33 3.912 2.583c11.2 7.394 24.732 7.571 36.214.475 3.1-1.916 3.292-2.258 1.609-2.869-1.05-.382-2.791-.234-3.868.327-1.077.562-2.652 1.098-3.5 1.193s-2.835.713-4.416 1.375c-2.438 1.022-3.058.951-4.097-.469-.861-1.177-1.435-1.332-1.935-.522-1.06 1.714-6.671 1.391-8.765-.504C23.63 56.26 23 56.11 23 56.908c0 .773-1.19 1.104-3.25.905-2.972-.286-3.237-.591-3.103-3.563.082-1.788-.031-3.25-.25-3.25-.218 0-.397.472-.397 1.048m18.603.627c-.431 1.359-1.547 1.811-4.373 1.769-2.086-.031-4.387-.423-5.112-.871-1.05-.649-1.094-.397-.219 1.239 1.276 2.383 4.304 3.576 6.949 2.736 1.791-.568 4.683-5.351 3.781-6.253-.246-.245-.707.376-1.026 1.38M21 53.5c0 1.787-1.663 2.011-2.233.301-.25-.751-.644-.563-1.052.5C17.21 55.617 17.619 56 19.531 56 21.333 56 22 55.46 22 54c0-1.1-.225-2-.5-2s-.5.675-.5 1.5m18.07.309c-.038.72-.52 1.031-1.07.691s-1 .309-1 1.441c0 2.156.747 2.525 2.614 1.294.677-.447.802-1.518.32-2.735-.436-1.1-.825-1.411-.864-.691m4.885 1.545c.471.471 1.661.401 2.659-.158 1.553-.869 1.434-.989-.853-.853-1.468.087-2.277.539-1.806 1.011"/><path fill-opacity=".549" fill-rule="evenodd" d="M22.3 1.862c-2.86.988-7.019 3.057-9.242 4.598C5.683 11.57-.099 23.139.077 32.432c.159 8.403 4.341 16.502 5.101 9.877.248-2.162 1.07-3.051 3.572-3.859 1.961-.634 2.904-1.427 2.379-2-.479-.523-1.162-2.187-1.519-3.7-.547-2.322-.326-2.75 1.417-2.75 1.271 0 2.722 1.184 3.77 3.075.936 1.691 2.258 3.829 2.937 4.75 1.121 1.523 1.291 1.47 1.866-.575.348-1.237 1.01-2.25 1.47-2.25s1.574-1.554 2.475-3.454c2.477-5.219 3.535-5.734 7.734-3.762 3.127 1.468 3.661 2.202 3.688 5.073.027 2.695.357 3.233 1.674 2.727 1.393-.534 1.444-.391.339.94-.881 1.061-1.523 1.216-1.98.476-.46-.745-1.075-.614-1.924.409-1.588 1.913-.542 3.69 1.706 2.9 1.278-.449 1.441-.302.638.574-1.283 1.398-9.102-.737-8.583-2.344.379-1.171-2.86-2.441-4.581-1.796-.685.257-.953.939-.596 1.516.379.613.169.753-.505.336-.679-.419-1.155-.089-1.155.799 0 1.762 5.966 3.689 8.981 2.901 1.116-.292 2.59-.101 3.274.424 1.463 1.123 6.159-.942 4.989-2.194-.409-.438.299-.253 1.573.411 2.945 1.533 6.374-.484 8.832-5.195 1.979-3.795 2.194-13.02.355-15.236-.687-.828-.89-1.505-.452-1.505s-.186-1.046-1.387-2.324-1.916-2.592-1.588-2.919-.285-1.066-1.36-1.641-2.217-.783-2.538-.462-1.331-.163-2.244-1.076c-1.506-1.506-1.878-1.517-4.012-.119C33.129 11.306 31.38 12 30.535 12c-2.362 0-1.818 2.673.715 3.51l2.25.744-2.387.46c-1.313.254-2.719-.076-3.125-.733-.469-.758-.964-.829-1.357-.193-.341.552.045 1.258.858 1.569.86.331 1.224 1.228.871 2.148-.541 1.409-.826 1.386-2.616-.212-1.964-1.752-1.993-1.735-1.265.707.585 1.961.48 2.248-.485 1.331-1.492-1.416-.056-8.831 1.71-8.831.621 0 1.467-.337 1.879-.75.413-.412.088-.75-.722-.75-2.357 0-8.206 4.799-9.943 8.159-.878 1.697-2.987 3.671-4.686 4.385l-3.089 1.299 1.375-4.568C12.109 14.987 16.782 9.714 22.5 6.754c4.552-2.356 13.643-2.818 17.269-.878 1.872 1.002 2.362.945 2.853-.333.867-2.26 2.378-1.882 2.378.595 0 1.176 1.772 4.06 3.937 6.41 2.271 2.463 4.433 6.108 5.108 8.611 1.293 4.794.671 13.273-1.133 15.447-.939 1.131-.667 1.394 1.44 1.394 1.874 0 3.029.835 4.148 3 2.039 3.943 3.261 3.79 4.068-.511.362-1.931 1.058-3.758 1.545-4.059.488-.301.887-2.846.887-5.656s-.296-4.812-.657-4.45c-.361.361-1.41-1.567-2.329-4.284-3.476-10.268-10.965-17.463-21.4-20.562C34.095-.458 28.686-.344 22.3 1.862m7.949 5.931c-.273.711-.236 1.553.081 1.87.989.99 5.337-.55 5.337-1.89 0-1.671-4.776-1.653-5.418.02m4.156 6.362c-.426.689-.276.884.371.483.597-.369 1.4-.163 1.783.457.383.621.077 1.521-.681 2.001-.758.481-.928.873-.378.873 2.054 0 3.547-1.683 2.927-3.299-.738-1.922-2.976-2.209-4.022-.515m-6.964 9.316c2.351 1.852 3.874 1.98 3.314.279-.226-.687-1.501-1.376-2.833-1.529-2.345-.271-2.361-.231-.481 1.25M.3 32c0 3.025.187 4.263.416 2.75s.229-3.988 0-5.5S.3 28.975.3 32m42.7.559c0 .857.45 1.281 1 .941s1-1.041 1-1.559S44.55 31 44 31s-1 .702-1 1.559M14.45 53.903c-.522.497-1.763 1.059-2.756 1.25-1.369.263-.764 1.022 2.5 3.136 6.087 3.943 14.062 6.068 20.345 5.419 5.739-.592 14.689-4.069 16.68-6.479 1.125-1.363.916-1.461-1.719-.808-1.65.41-4.013.82-5.25.912s-2.25.456-2.25.809c0 1.132-5.255 2.003-6.227 1.031-.583-.583-2.029-.525-3.827.154-2.46.928-3.34.758-5.918-1.148C24.363 56.948 23 56.431 23 57.03c0 .649-1.52.965-3.75.78-3.243-.268-3.708-.614-3.437-2.56.342-2.459.079-2.718-1.363-1.347"/><path fill-opacity=".507" fill-rule="evenodd" d="M24.407 1.407C10.519 4.778.597 17.529.601 32c.002 5.76 1.921 13 3.445 13 .49 0 .646-.64.345-1.423C3.745 41.894 7.336 38 9.535 38c1.208 0 1.315-.412.5-1.934C9.466 35.002 9 33.257 9 32.188s-.686-2.513-1.525-3.209c-1.367-1.134-1.367-1.441 0-2.951C8.314 25.101 9 23.573 9 22.631c0-2.643 3.507-8.843 6.658-11.771 5.335-4.956 11.065-7.133 17.263-6.559 3.069.284 6.53.818 7.691 1.188 1.59.506 2.24.185 2.627-1.295.444-1.697-.249-2.121-5.029-3.081-6.577-1.321-7.209-1.307-13.803.294m20.835 4.312c.131 1.622 1.396 3.771 3.035 5.157 5.863 4.956 8.624 15.165 6.422 23.744-.69 2.69-.508 3.197 1.324 3.676 1.169.305 2.361 1.458 2.65 2.561s1.11 2.229 1.825 2.504c.918.352 1.653-1.362 2.492-5.806 2.013-10.673-1.684-21.432-9.923-28.876-2.14-1.933-4.826-4.015-5.97-4.627-1.89-1.012-2.059-.86-1.855 1.667M31 8.5c0 .825.436 1.5.969 1.5s.709-.675.393-1.5c-.317-.825-.753-1.5-.969-1.5S31 7.675 31 8.5m2.538 3.75c-1.442 2.057-1.434 2.353.09 3.468.917.67 2.163.905 2.769.523.694-.436.453-.823-.647-1.041-2.381-.472-2.224-2.2.2-2.2 1.073 0 2.417.787 2.987 1.75.9 1.519.996 1.442.726-.582-.284-2.13-2.127-4.114-3.856-4.153-.382-.008-1.403.997-2.269 2.235m-13.754 3.856c-2.148 2.258-3.646 4.366-3.328 4.683s1.11.045 1.761-.606S20.21 19 21.2 19s1.8-.115 1.8-.257c0-.141.419-1.716.93-3.5.512-1.783.667-3.243.345-3.243-.321 0-2.342 1.848-4.491 4.106m22.55-1.856c-1.298 2.07-.334 4.817 2.748 7.83 2.861 2.797 3.896 4.642 1.918 3.42-.899-.556-1.433.757-1.118 2.75.179 1.135-.602.934-4.922-1.27-4.496-2.294-4.78-3.16-1.96-5.98 1.1-1.1 2-2.408 2-2.906s-.9-.671-2-.384-2 .868-2 1.29-.9 1.002-2 1.29c-1.1.287-2 .115-2-.384 0-.498.788-.938 1.75-.976 1.496-.06 1.46-.195-.25-.93-2.749-1.181-4.328-1.181-2.5 0 1.09.704 1.142.974.191.985-.72.008-1.031.465-.691 1.015s-.11 1-1 1-1.324.476-.964 1.059c.363.586 2.06.814 3.809.511 3.092-.536 3.078-.51-.684 1.313l-3.838 1.86 3.053 1.064c3.194 1.113 4.903 4.722 3.709 7.832-.52 1.356-.371 1.429.848.416.814-.675 1.994-.909 2.623-.52.843.521.864.184.079-1.283-1.503-2.809-.015-3.807 1.542-1.033l1.28 2.281.638-2.25c.912-3.214 2.405-2.78 2.405.698 0 1.713-.989 4.017-2.36 5.496l-2.361 2.547.477-2.496c.531-2.774-.374-3.101-3.024-1.09-1.665 1.264-1.636 1.428.505 2.831 3.33 2.182 6.15.661 8.756-4.722 2.784-5.75 2.407-13.129-.898-17.6-1.203-1.626-1.914-3.397-1.582-3.935.333-.539.155-.979-.395-.979s-1.353.563-1.784 1.25m-23.883 7.804c-.982 1.086-2.499 1.749-3.369 1.474s-2.932.441-4.582 1.591c-1.65 1.151-2.155 1.812-1.123 1.469s2.559-.056 3.394.637c1.301 1.08 1.416.94.806-.983q-.713-2.243.522-2.242c.679 0 .938.296.576.658s-.179 1.235.407 1.941c.853 1.028 1.695.898 4.241-.655 3.344-2.038 5.143-2.507 4.282-1.115-.607.983 3.045.855 4.041-.142.378-.378-.037-.687-.923-.687-.885 0-2.198-.788-2.916-1.75-1.822-2.44-3.277-2.493-5.356-.196m21.79.052c-3.035 1.123-2.817 2.238.695 3.564 3.345 1.262 4.668-.124 2.694-2.823-.823-1.126-1.781-1.335-3.389-.741M20 23c0 .55.45 1 1 1s1-.45 1-1-.45-1-1-1-1 .45-1 1m-1.478 4.812c-.288.287-1.535.635-2.772.772-1.238.137-2.7.301-3.25.363-.55.063-.208.575.76 1.138.967.564 2.407 2.575 3.199 4.47C17.915 38.04 20 39.215 20 36.55c0-.798.572-1.81 1.271-2.25.985-.62 3.739-5.495 3.727-6.597-.006-.469-5.999-.369-6.476.109m5.207 10.792c-.335.335.226 1.505 1.246 2.6 1.46 1.567 2.245 1.764 3.69.924 1.271-.739 1.398-1.077.414-1.098-.782-.016-2.168-.706-3.081-1.532s-1.934-1.228-2.269-.894M11.441 55.905c1.27 2.054 9.439 5.944 14.809 7.051 6.747 1.391 14.929.128 21-3.242 3.495-1.941 5.353-4.543 2.447-3.428-5.702 2.188-14.122 3.94-14.434 3.004-.255-.767-1.22-.755-3.333.042-2.332.881-3.452.822-5.201-.275-1.226-.768-4.152-1.299-6.503-1.18-2.767.141-4.82-.328-5.822-1.33-1.659-1.659-3.89-2.142-2.963-.642"/></svg>