<svg xmlns="http://www.w3.org/2000/svg" width="24" height="24" fill="#000000"><path fill="url(#a)" fill-rule="evenodd" d="M12 24c6.628 0 12-5.373 12-12 0-.799-.078-1.58-.227-2.335l-5.141.598 4.246-3.336a9.895 9.895 0 0 0-.049-.103l-5.934.913 4.183-3.585-.083-.095-5.206 1.785c.835-.939 2.262-2.525 3.243-3.567A11.946 11.946 0 0 0 12 0C5.372 0 0 5.373 0 12s5.372 12 12 12Z" clip-rule="evenodd"/><path fill="#000000" d="M10.264 1.895 15 7.737l-3.158 4.42 3.948-1.736 4.895 3.158-7.264.947 5.21 5.526-8.367-2.842 3.157-2.684L9.79 15l-3.632 5.052.79-4.42-3.79.315 4.263-2.052 2.843-12Z"/><defs><linearGradient id="a" x1="0" x2="24" y1="0" y2="24" gradientUnits="userSpaceOnUse"><stop stop-color="#ababab"/><stop offset=".623" stop-color="#ababab"/><stop offset="1" stop-color="#ababab"/></linearGradient></defs></svg>