<svg xmlns="http://www.w3.org/2000/svg" width="200" height="200" fill="#000000"><path fill-opacity=".047" fill-rule="evenodd" d="M90.242 3c.216 1.429-1.587 3.905-2.454 3.369-.616-.381-.479-.953.355-1.488.827-.529-1.231-.773-5.266-.625-4.624.17-6.485.601-6.167 1.43.25.653 1.093.943 1.873.644.779-.299 1.417-.046 1.417.563 0 1.64-2.082 1.343-4.232-.603-1.546-1.399-2.042-1.464-2.727-.357-.517.837-1.735 1.127-3.189.76-2.072-.523-2.151-.443-.668.669 1.439 1.078 1.081 1.233-2.443 1.062-4.013-.194-6.727.755-9.533 3.335-.753.693-1.783 1.004-2.289.691-.505-.312-.919-.095-.919.483 0 1.399 4.872.789 8-1.002 3.454-1.977 34.857-2.18 36.821-.238.727.719 2.19 1.307 3.25 1.307s1.929.436 1.929.969.749.681 1.664.33c1.169-.449 1.434-.266.891.612-.524.848-.173 1.188 1.086 1.055 3.9-.412 5.485.02 4.707 1.284-.424.688.562.384 2.191-.675 2.712-1.762 2.835-1.771 1.469-.105-1.384 1.686-1.311 1.772 1 1.184 2.104-.535 2.025-.396-.508.899-2.698 1.379-2.749 1.484-.5 1.049 1.375-.267 3.374.164 4.441.957 2.332 1.731 3.953 1.888 2.964.286-.446-.721-.274-.882.457-.43.644.398.926 1.12.626 1.604-.669 1.083 2.576 2.868 4.17 2.293.637-.23 1.448.051 1.802.624.387.625.025.804-.906.446-1.171-.449-1.499.015-1.343 1.9.131 1.577.682 2.313 1.498 1.999.71-.272 1.291-.011 1.291.581 0 .591.702.806 1.56.477 1.029-.395 1.74.094 2.092 1.439.293 1.12 1.497 2.289 2.676 2.597 2.125.556 2.126.573.157 2.095-1.606 1.242-1.651 1.419-.235.925 1.015-.353 1.75-.119 1.75.557 0 .641.427.902.95.579.993-.614 5.711 5.132 5.332 6.495-.12.431.465 1.047 1.302 1.368.836.321 1.291.213 1.012-.239s.14-.822.932-.822c.977 0 1.132.372.48 1.158-1.148 1.383-.45 5.862.988 6.341.559.186.762.75.451 1.253s-.119.915.427.915c.545 0 1.279.907 1.631 2.015.351 1.108 1.055 1.757 1.564 1.442.541-.334.521.491-.047 1.986-.542 1.424-.579 2.557-.085 2.557.971 0 2.643 7.449 2.301 10.25-.118.963.155 1.75.607 1.75s.88.563.952 1.25.377 3.5.679 6.25c.388 3.536.273 4.414-.393 3-.778-1.65-.955-1.704-1.013-.309-.038.93.402 1.983.979 2.339.726.449.713 1.052-.042 1.962-.791.953-.777 1.418.053 1.695.852.284.865 2.032.051 6.847-.601 3.556-1.307 7.751-1.568 9.323-.261 1.571-.936 3.412-1.5 4.092s-.73 1.531-.368 1.893.107.658-.567.658-.948.45-.608 1 .141 1-.441 1-.946.36-.809.801c.389 1.246-2.525 8.199-3.437 8.199-.447 0-.813.664-.813 1.476 0 2.645-3.444 7.069-5.486 7.046-1.244-.014-2.082.726-2.242 1.978l-.255 2 1.012-2c.888-1.755.939-1.694.419.5-.326 1.375-.635 3.02-.687 3.655s-.66.937-1.351.672c-1.181-.453-3.093 1.956-3.311 4.173-.055.55-.437 1.007-.849 1.015s-1.332.385-2.044.837c-1.815 1.151-6.099-1.873-5.764-4.069.149-.981.08-1.235-.152-.566-.556 1.598-4.29-.592-4.29-2.517 0-.725-.387-1.079-.859-.787-.473.292-2.052-.806-3.508-2.441-1.457-1.635-2.307-2.979-1.891-2.987.417-.009.154-.398-.584-.866-1.12-.71-1.121-1.205-.01-2.985.733-1.174 1.856-2.134 2.495-2.134s1.644-1.384 2.233-3.075c.685-1.964 1.499-2.811 2.253-2.345.74.457.914.299.466-.425-.392-.635-.405-1.653-.029-2.262.477-.771.944-.696 1.544.25.652 1.03.892.876.993-.643.074-1.1.081-2.338.015-2.75-.065-.412.802-.75 1.926-.75 1.392 0 1.95-.558 1.75-1.75-.215-1.282.301-1.687 1.93-1.516 2.553.268 4.607-2.708 3.629-5.256-.425-1.107.301-2.476 2.159-4.073 1.54-1.323 2.481-2.405 2.092-2.405s.507-1.125 1.991-2.5 2.351-2.5 1.929-2.5c-.423 0-.204-.681.486-1.512 1.025-1.236 1.552-1.281 2.873-.25 1.437 1.121 1.464 1.067.245-.488-.755-.963-.98-1.757-.5-1.765.479-.009.28-.391-.444-.85-.725-.46-1.459-1.69-1.633-2.735s-.819-1.788-1.434-1.65c-.614.137-1.124-.313-1.132-1q-.015-1.254-1 .25c-.806 1.228-1.141 1.258-1.846.166-.699-1.084-.97-1.049-1.444.186-.32.835-.149 1.663.38 1.84.53.176-.37 1.78-1.998 3.563s-3.604 4.159-4.389 5.281c-1.303 1.859-1.441 1.452-1.573-4.639-.09-4.137-.879-8.335-2.074-11.037-1.061-2.398-1.713-4.36-1.45-4.36s0-.896-.586-1.99c-.585-1.095-1.595-1.882-2.244-1.75-.75.153-1.453-2.121-1.936-6.26-.416-3.575-1.221-7.4-1.789-8.5s-1.19-2.9-1.384-4-.7-2.807-1.125-3.793-.526-2.041-.223-2.344-.561-2.544-1.921-4.98-2.247-4.793-1.972-5.239c.276-.446-1.048-.811-2.941-.811-3.737 0-4.319 1.209-4.774 9.917-.108 2.062-.62 3.749-1.137 3.75-.518 0-.148.58.82 1.288.969.709 1.63 1.721 1.469 2.25s.543 2.214 1.565 3.743c1.022 1.53 1.597 3.042 1.278 3.361s.745 1.695 2.364 3.058c1.62 1.363 2.945 3.166 2.945 4.007 0 .952-1.552-.024-4.118-2.589-2.264-2.265-4.739-4.118-5.5-4.118-.76 0-1.382-.437-1.382-.97 0-.534-1.158-3.501-2.572-6.595s-2.318-5.878-2.007-6.19c.312-.311-.369-1.221-1.512-2.021-1.493-1.046-1.772-1.761-.993-2.54.596-.596 1.077-1.556 1.069-2.134s-.423-.407-.92.38-1.618 1.534-2.49 1.662c-.871.128-1.353-.142-1.07-.6s-.624-1.727-2.016-2.822c-1.757-1.382-2.142-2.167-1.259-2.571.698-.319.145-.3-1.23.042-1.375.343-2.651 1.017-2.835 1.497s-.86.56-1.5.176c-.713-.427-.661-.076.134.905 1.576 1.946-.019 3.325-2.597 2.246-.936-.392-4.313-.782-7.505-.866-3.89-.102-6.11-.638-6.735-1.626-.512-.81-.973-1.023-1.023-.473s-.678-.575-1.395-2.5c-.718-1.925-1.734-3.412-2.258-3.306-1.735.354-1.006-3.163 1.024-4.944 2.521-2.211.123-2.442-2.956-.285-1.15.805-2.296 1.259-2.547 1.009-.251-.251-2.419 1.792-4.819 4.54-3.143 3.598-4.603 4.645-5.218 3.741-.583-.858-.761-.622-.562.745.161 1.1.701 2.296 1.202 2.658.53.383.387 1.919-.343 3.681-1.483 3.58-1.087 11.111.683 12.982.688.727 1.25 1.965 1.25 2.75 0 .786.459 1.429 1.019 1.429.561 0 .766 1.013.456 2.25s-.64 3.262-.732 4.5c-.128 1.709-.616 2.108-2.029 1.659-2.139-.679-4.616 1.998-4.713 5.091-.057 1.855-.137 1.872-1.093.229-1.312-2.254-3.188-1.187-2.381 1.355.334 1.054.218 1.916-.258 1.916-.477 0-.845 1.799-.818 3.997s.402 3.998.834 4 .275.957-.35 2.124c-.644 1.204-.701 1.853-.132 1.501.551-.341 1.473.73 2.048 2.379s.731 3.013.347 3.029.099.495 1.073 1.062 1.51 1.453 1.191 1.969c-.319.517-.028.939.646.939s.929.296.567.658-.187 1.225.387 1.917 1.195 2.534 1.378 4.092.383 3.197.446 3.642.533.55 1.045.234 1.21-.125 1.55.427c.341.551 1.61.844 2.819.65 1.86-.298 2.188-.974 2.122-4.379-.069-3.547.169-3.984 2-3.661 8.545 1.504 9.203 1.449 11.464-.959 2.186-2.327 2.36-2.349 6.928-.89 2.577.824 5.483 1.473 6.458 1.444.974-.03 1.513.364 1.198.874-.316.51.113.665.952.342 1.725-.661 4.86 1.952 3.78 3.15-.386.429-.207.498.397.153.605-.344 3.882 2.284 7.283 5.84s6.441 6.466 6.756 6.466 1.86 1.083 3.433 2.406c2.607 2.194 2.713 2.525 1.202 3.75-.911.739-1.393.894-1.07.344.561-.956-2.086-4.162-3.178-3.85-.289.083-.375-.367-.192-1 .184-.632 0-.816-.408-.409-.962.962-3.574-1.192-2.855-2.354 1.114-1.803-1.985-.808-5.255 1.686-2.797 2.133-3.84 2.412-6.095 1.625-1.496-.521-2.596-1.488-2.445-2.147.151-.66-.187-.915-.75-.566-.564.348-1.025.13-1.025-.485s-.472-.826-1.049-.47c-.716.443-.678 1.094.123 2.059 1.825 2.199-.237 1.664-4.342-1.125-4.938-3.355-5.139-.775-.232 2.968 1.925 1.468 3.493 3.209 3.485 3.869-.011.829-.277.787-.862-.136-.646-1.02-.97-.859-1.373.683-.46 1.759-.228 1.904 1.808 1.13 1.893-.72 2.454-.515 2.961 1.081.344 1.084.93 1.786 1.303 1.56.9-.543 3.219 2.007 2.489 2.737-.313.313.61 1.107 2.052 1.764 2.189.997 2.422 1.456 1.412 2.787-.665.876-.81 1.255-.323.841s1.787.036 2.889 1c1.435 1.256 1.764 1.327 1.159.252-.534-.95-.047-.801 1.328.405 1.195 1.048 2.172 2.51 2.172 3.25s.563 1.352 1.25 1.36q1.25.016-.25.985c-1.234.798-1.133.972.569.985 2.519.018 10.883 9.091 11.044 11.979.101 1.812-1.252 2.567-3.863 2.154-.412-.065-.75.407-.75 1.049s-.296.87-.658.508-1.346-.099-2.187.584c-1.266 1.027-1.427.968-.938-.342.345-.923.064-1.584-.673-1.584-.697 0-1.216.684-1.155 1.519.115 1.571-5.747 3.477-8.139 2.645-.687-.239-1.25.227-1.25 1.034 0 .808-.45 1.469-1 1.469s-1.007-.787-1.015-1.75c-.009-1.032-.317-1.32-.75-.702-1.06 1.512-5.469 1.648-4.565.141.393-.654-.074-.549-1.037.233-1.86 1.51-6.633 2.411-6.633 1.253 0-.379-2.024-.528-4.497-.332-3.02.24-4.285.735-3.853 1.507.354.633-.27.212-1.387-.934-1.368-1.404-3.187-2.045-5.572-1.966-1.948.064-3.324-.235-3.057-.666s-.498-.784-1.697-.784c-1.918 0-2.016-.201-.809-1.664 1.24-1.504 1.162-1.552-.813-.5-1.467.782-2.993.857-4.647.228-1.354-.515-2.806-.628-3.226-.25-.419.377-.439.124-.043-.564.445-.773.124-1.25-.84-1.25-.857 0-1.595-.787-1.638-1.75s-.297-1.213-.565-.556c-.267.656-1.209.916-2.094.576-1.192-.457-1.446-.191-.979 1.024.346.903.274 1.862-.16 2.13-1.208.746-.998-2.733.263-4.366.869-1.125.816-1.262-.243-.625-1.054.635-1.201.286-.658-1.558l.7-2.375-1.592 2.169c-.876 1.193-1.334 2.993-1.017 4 .54 1.719.502 1.716-.617-.039-.965-1.513-1.358-1.609-2.061-.5-.642 1.014-.871.794-.883-.849-.011-1.698.395-2.065 1.735-1.562 1.532.574 1.579.446.378-1.032-.755-.928-2.019-1.687-2.809-1.687-.832 0-1.136-.486-.724-1.155.393-.634.281-.886-.249-.559-.529.327-2.286-.487-3.904-1.81s-2.353-2.42-1.633-2.44 1.001-.534.625-1.143c-.486-.786-.907-.745-1.454.14-.538.869-1.243.373-2.335-1.644-1.51-2.787-1.75-2.807-2.02-.169-.069.672-1.175 1.745-2.459 2.385-3.321 1.655-4.499 3.047-3.69 4.356.521.844 1.065.835 2.113-.035.776-.644 1.411-.836 1.411-.426s.67.189 1.489-.491 1.216-1.678.882-2.218c-.335-.541.144-.828 1.063-.637 1.653.342 2.265 1.78.816 1.917-.413.039-1.462.715-2.331 1.502-.87.787-1.947 1.093-2.394.679s-.021.486.946 1.998c.968 1.513 1.541 2.75 1.274 2.75s2.493 2.98 6.135 6.622c6.909 6.912 14.551 12.711 16.748 12.711.706 0 1.052.375.769.834s-.064.833.487.833.82.94.599 2.089c-.312 1.619-.11 1.847.895 1.012.956-.793 2.658-.421 6.455 1.411 2.836 1.368 5.541 2.488 6.009 2.488.469 0 1.385 1.012 2.036 2.25q1.188 2.26.63.359c-.468-1.599-.318-1.696.969-.628 1.042.865 1.523.909 1.523.141 0-.617.477-1.122 1.059-1.122s.8.419.484.931a1.104 1.104 0 0 0 .369 1.514c.519.321 1.229-.315 1.578-1.415.437-1.374 1.318-1.885 2.822-1.636 1.204.199 2.931-.287 3.839-1.081 1.989-1.74 3.778.163 1.903 2.024-.894.887-1.02.689-.53-.837.611-1.899.547-1.892-1.261.14-1.349 1.514-2.366 1.882-3.48 1.258-1.086-.607-1.753-.418-2.148.61-.383 1 .054 1.492 1.325 1.492 1.043 0 2.604.707 3.469 1.571 1.315 1.316 1.571 1.336 1.571.123 0-2.055 2.96-4.253 5.213-3.871 1.049.178 2.667-.272 3.597-1 1.519-1.189 1.551-1.146.318.427-.755.963-2.641 1.75-4.191 1.75-3.209 0-4.87 1.805-2.825 3.069.838.518 2.253.267 3.65-.649 1.738-1.139 2.693-1.23 4.01-.382 1.551.999 1.556 1.06.044.594-1.204-.371-1.641.035-1.537 1.425.149 1.974 1.721 2.804 1.721.908 0-.702.644-.691 2 .035 1.213.649 2 .691 2 .105 0-.543 1.969-.773 4.5-.525 2.475.242 4.501.098 4.502-.32.002-.418 2.589-.798 5.75-.844 8.403-.122 13.597-.962 14.032-2.268.21-.631-.555-1.148-1.701-1.148-1.185 0-2.083-.647-2.083-1.5 0-1.539-2.12-2.047-3.362-.804-.383.382-1.399.798-2.259.925-.859.126-1.259-.075-.887-.446s1.2-.675 1.841-.675c.642-.001 1.212-1.126 1.266-2.5.21-5.309.332-5.655 1.401-4 .807 1.248.985 1.164 1.064-.5.051-1.1.321-1.437.598-.75.716 1.774 2.338 1.551 2.338-.321 0-1.426.145-1.426 1.564-.008 2.17 2.17 1.143 3.263-2.94 3.127-2.766-.092-3.44.251-3.331 1.693.078 1.032.688 1.596 1.422 1.315.707-.271 1.285-.068 1.285.451 0 .584.974.573 2.557-.029 1.766-.671 2.356-.646 1.906.082-.358.579-.365 2.193-.016 3.585.52 2.073.897 2.314 2.081 1.331.796-.66 2.127-.939 2.959-.619s1.513.179 1.513-.311 1.688-1.437 3.75-2.104 5.55-2.143 7.75-3.279 4.338-1.976 4.75-1.865.75-.151.75-.582c0-.432 1.358-1.587 3.018-2.567s2.777-2.172 2.483-2.647c-.293-.475-.007-1.189.637-1.587.731-.452.903-.291.457.43-.392.635-.263 1.155.287 1.155 1.001 0 2.574-1.913 2.603-3.167.008-.366.425-1.041.925-1.5.529-.484.609-.309.191.417-.947 1.647.434 1.539 2.749-.215 1.153-.874 1.552-1.898 1.058-2.718-.535-.89-.18-.83 1.092.183 1.036.825 1.577.988 1.203.363-.375-.625-.001-1.701.831-2.391 1.276-1.059 1.415-.959.895.637-.49 1.499-.405 1.59.411.439.565-.799.825-1.78.578-2.181-.248-.401.014-1.016.582-1.367s.813-.994.544-1.429c-.268-.434.618-.668 1.971-.52 2.129.234 2.324.016 1.449-1.618-.787-1.471-.703-1.77.381-1.354.848.325 1.61-.299 1.95-1.597.484-1.854.86-1.984 2.881-1.002 2.048.996 2.122.966.62-.251-1.585-1.286-1.52-1.641.935-5.091 1.665-2.34 3.177-3.504 4.096-3.151 1.226.471 1.246.306.129-1.04-1.068-1.286-1.079-1.753-.056-2.385.699-.432 1.345-1.185 1.435-1.674s.536-.764.989-.613c.454.151.54-.187.191-.75-.348-.564-.276-1.587.161-2.275.436-.687.819-1.475.851-1.75.265-2.279 2.791-7.922 3.383-7.556.412.255.662-.528.556-1.74s.209-2.716.701-3.343c.491-.626 1.093-3.052 1.336-5.391s1.159-5.044 2.035-6.012c.927-1.025 1.189-2.009.627-2.356-.531-.328-1.025-2.173-1.098-4.099-.439-11.512.038-18.502 1.264-18.533.643-.017.328-.519-.7-1.117-1.417-.823-2.079-.755-2.735.281-.476.751-.872.951-.881.445-.008-.507.739-1.755 1.661-2.774 1.286-1.42 1.402-2.127.5-3.029C188.529 79.129 188 76.98 188 75s-.437-4.037-.971-4.571c-.535-.535-1.176-2.087-1.426-3.45-.25-1.364-.541-2.704-.647-2.979s-.14-.838-.074-1.25c.065-.413-.647-.75-1.582-.75-1.261 0-1.409-.291-.573-1.127.724-.724.818-1.939.264-3.397-.475-1.249-.568-2.565-.208-2.926.361-.361-.196-.329-1.237.071-1.514.581-1.761.38-1.231-.999.447-1.165.286-1.493-.496-1.01-.748.462-.955.185-.584-.781.335-.875.012-1.498-.776-1.498-.972 0-1.091.487-.423 1.734.65 1.214.525 1.888-.417 2.249-.794.305-1.345-.166-1.345-1.15 0-3.406-.3-4.268-1.274-3.666-1.628 1.006-1.14-.142.692-1.628 1.15-.932 1.451-.971.941-.122-.484.806-.142 1.25.961 1.25 1.283 0 .858-.847-1.691-3.372-1.871-1.854-5.653-6.329-8.403-9.944s-5.557-6.389-6.238-6.164c-.681.224-1.155.087-1.054-.306s-1.567-2.514-3.707-4.714-3.513-3.377-3.053-2.615c.461.762-.559.353-2.266-.909s-2.842-2.717-2.522-3.235-.285-.477-1.343.089c-1.315.704-2.383.706-3.371.006-1.174-.832-1.117-.919.304-.462.963.31 1.75.176 1.75-.297s-1.125-1.143-2.5-1.488-2.5-1.095-2.5-1.667-.45-.762-1-.422-1 .115-1-.5-.414-.862-.919-.55c-.506.313-1.631-.143-2.5-1.012-.87-.87-1.581-1.272-1.581-.894 0 .377-1.039.006-2.308-.826-1.611-1.056-2.825-1.223-4.02-.554-1.252.7-1.64.605-1.442-.353.16-.775-.853-1.44-2.48-1.627-1.744-.201-2.779-.933-2.829-2-.049-1.041-.272-1.207-.583-.434-.278.687-.944 1.25-1.48 1.25-.537 0-.766-.339-.51-.754.707-1.143-5.739-.895-6.583.254-.447.608-.74.481-.75-.325-.009-.839-1.025-1.231-2.765-1.069-1.513.141-3.822-.099-5.132-.534-2.675-.888-12.993-1.346-12.876-.572m-6.639 2.833c-.283.459.12.834.897.834s1.18-.375.897-.834S84.71 5 84.5 5s-.614.375-.897.833m8.955.074c-.309.498.34.671 1.441.383 2.335-.611 2.63-1.29.56-1.29-.793 0-1.693.408-2.001.907m7.173 1.013c-.435 1.663-.305 2.054.437 1.312.582-.582.86-1.647.62-2.369-.25-.749-.703-.295-1.057 1.057m7.144-1.253c-.069.183-.188.671-.265 1.083s-.545 1.389-1.04 2.171c-.534.844.17.641 1.734-.5 1.448-1.057 2.647-2.184 2.665-2.504.032-.605-2.873-.84-3.094-.25m14.997 4.083c-1.243 1.586-1.208 1.621.378.378C123.916 8.821 124.445 8 123.622 8c-.207 0-.995.787-1.75 1.75m-21.365.239c-.35.566.051.734.941.393 1.732-.665 2.049-1.382.611-1.382-.518 0-1.216.445-1.552.989m12.572.594c.048 1.165.285 1.402.604.605.289-.722.253-1.585-.079-1.917s-.568.258-.525 1.312m12.671 1.079c.688.278 1.813.278 2.5 0 .688-.277.125-.504-1.25-.504s-1.937.227-1.25.504M122 13.058c0 .683-.838.956-2 .652-2.812-.735-2.49.69.519 2.3 1.883 1.008 2.199 1.576 1.25 2.25-.82.583-.326.697 1.398.323 1.67-.363 2.857-.113 3.174.669.396.974.713.955 1.445-.087.516-.735 1.287-1.336 1.714-1.336s1.157.601 1.623 1.336c.509.803.852.886.862.207.024-1.813-2.288-3.121-4.985-2.819-1.375.154-3.372.036-4.437-.263-1.824-.512-1.835-.618-.19-1.821 1.108-.81 1.359-1.517.687-1.932-.583-.36-1.06-.126-1.06.521M101.5 15c.34.55.816 1 1.059 1s.441-.45.441-1-.477-1-1.059-1-.781.45-.441 1m39.844 3.681c.379.649.231 1.463-.328 1.809-1.641 1.015-1.173 2.236 1.085 2.826 1.155.302 1.823.999 1.483 1.548s-.19 1.261.331 1.583 1.21.159 1.532-.362.148-1.217-.387-1.548-.751-1.178-.481-1.882c.27-.705-.502-2.153-1.716-3.218s-1.897-1.406-1.519-.756m-12.854 2.335c-.346.559-1.047.758-1.559.441-.512-.316-.931-.126-.931.422s.825.935 1.833.859 1.834-.723 1.834-1.438c0-1.564-.336-1.645-1.177-.284m13.085-.137c-.31.501.109 1.169.931 1.485.822.315 1.494.164 1.494-.336 0-1.356-1.777-2.198-2.425-1.149M147 23c-1.282.828-1.246.972.25.985.963.008 1.75-.435 1.75-.985 0-1.22-.113-1.22-2 0m-14.464 3.942c-.326.527.369 1.472 1.543 2.1 1.632.874 2.405.851 3.278-.096.86-.932.853-1.077-.026-.584-.644.361-1.852-.026-2.687-.86-.874-.875-1.767-1.112-2.108-.56m23.511.558c.442 2.329-.117 3.578-1.297 2.899-.726-.418-.901-.338-.417.191.459.5 1.134.917 1.5.925s1.153.325 1.746.704c1.51.963 1.104-2.941-.466-4.485-.691-.679-1.17-.784-1.066-.234m-4.437 3.322c-.329.533.066 1.224.879 1.535.812.312 1.239 1.187.949 1.945s.177 1.963 1.039 2.679c1.33 1.104 1.473 1.052.939-.34-.429-1.117-.098-1.641 1.036-1.641.916 0 1.383-.457 1.038-1.016-.346-.559-1.016-.777-1.491-.484-.474.294-1.521-.407-2.326-1.557s-1.734-1.654-2.063-1.121m-9.82 4.27c.656.876.927 1.858.602 2.182-.324.325.355.343 1.509.042s2.099-.995 2.099-1.54c0-.544-.62-.752-1.378-.461s-1.974.001-2.702-.643c-1.079-.956-1.104-.878-.13.42m16.63 1.038c-.424.686-.153.946.691.662.764-.257 1.953.247 2.641 1.12 1.104 1.4 1.174 1.364.591-.298-.477-1.362-.269-1.749.748-1.393.775.272 1.362 1.142 1.304 1.935-.058.792.729 1.503 1.75 1.58 1.043.079 1.855-.516 1.855-1.357 0-.823-.399-1.25-.887-.949-.487.301-1.442-.122-2.122-.941-1.455-1.753-5.571-1.978-6.571-.359M51.459 40.067c-1.026 1.66-.105 1.89 1.33.332.71-.769.849-1.399.309-1.399-.539 0-1.277.48-1.639 1.067M145.5 40c-.34.55.11 1 1 1s1.34-.45 1-1-.79-1-1-1-.66.45-1 1m12.95.225c.165.701.806 1.163 1.425 1.025s1.125.736 1.125 1.941c0 2.12.046 2.129 1.395.284 1.211-1.656 1.178-2.066-.244-3.106q-1.639-1.2-2.274-.171c-.421.682-.819.645-1.181-.11-.335-.698-.43-.646-.246.137m-96.099 1.248c.327.851-.355 2.117-1.615 3-1.2.84-1.701 1.527-1.113 1.527C61 46 64 42.691 64 41.171c0-.644-.498-1.171-1.107-1.171s-.853.663-.542 1.473M149.2 41.2c-1.46 1.46-1.556 2.8-.2 2.8.55 0 .887-.506.75-1.125-.441-1.984 1.976-2.031 2.494-.048.526 2.009 6.384 3.584 7.374 1.981.292-.471.16-.793-.294-.714-3.332.579-6.148-.313-6.614-2.094q-.894-3.414-3.51-.8m15.55 1.489c-2.117.554-2.328 1.978-.293 1.978.801 0 1.687-.6 1.969-1.334.281-.733.413-1.281.293-1.217-.121.064-1.006.322-1.969.573m3.524 1.321c-.132 1.749.036 1.823 1.287.571 1.781-1.78 1.828-2.581.152-2.581-.708 0-1.356.905-1.439 2.01M80 45.062c0 .516.9.938 2 .938s2-.354 2-.787-.9-.855-2-.938-2 .271-2 .787m90 1.316c0 .207.635.904 1.411 1.548 1.08.897 1.585.889 2.154-.032.472-.763.321-.942-.41-.489-.635.392-1.155.236-1.155-.346S171.55 46 171 46s-1 .17-1 .378m-5 1.015c0 .949 2.993 1.427 3.527.563.325-.526-.336-.956-1.468-.956s-2.059.177-2.059.393m-103.387 1.79c.289.467.944.591 1.456.274 1.308-.808 1.161-1.124-.525-1.124-.801 0-1.22.383-.931.85m8.93-.252c-.317.512-.118 1.213.441 1.559S72 50.416 72 49.559c0-1.757-.6-2.015-1.457-.628m5.668 2.607c-.835.946-.902 1.462-.191 1.462.604 0 .823.445.487.989-.365.591.093.718 1.141.316.984-.378 1.25-.839.608-1.053-.629-.21-.896-1.027-.593-1.817.694-1.807.202-1.773-1.452.103M94.5 51c.34.55.816 1 1.059 1s.441-.45.441-1-.477-1-1.059-1-.781.45-.441 1m61.514 1.414c.648.648 1.324.648 1.972 0 .647-.647.309-.985-.986-.985s-1.633.338-.986.985M88.5 53c.34.55.816 1 1.059 1s.441-.45.441-1-.477-1-1.059-1-.781.45-.441 1m7.221.414c-1.688 1.28-1.69 1.384-.031 2.021.962.369 1.429.351 1.038-.04s-.209-1.315.403-2.053c1.405-1.692.88-1.666-1.41.072m76.687 1.27c2.318 2.5 6.292 4.258 5.038 2.228-.31-.502-1.197-.912-1.97-.912s-1.887-.9-2.476-2-1.523-2-2.076-2 .115 1.208 1.484 2.684M153 54c-1.09.704-1.142.974-.191.985.72.008 1.031.465.691 1.015s-.169 1 .379 1 .929-.9.846-2-.167-1.993-.188-1.985-.712.452-1.537.985m3.5 1c.34.55.816 1 1.059 1s.441-.45.441-1-.477-1-1.059-1-.781.45-.441 1m-41.462 2.545c.654.788 1.588 1.186 2.075.885 1.54-.952.964-1.999-1.189-2.161-1.693-.127-1.856.107-.886 1.276M56 59c-.901.582-1.025.975-.309.985.655.008 1.469-.435 1.809-.985.767-1.242.421-1.242-1.5 0m12.702.333c-.281.734.078 1.334.798 1.334s1.079-.6.798-1.334C70.016 58.6 69.657 58 69.5 58s-.516.6-.798 1.333m7.841-.402c-.317.512-.118 1.213.441 1.559S78 60.416 78 59.559c0-1.757-.6-2.015-1.457-.628m85.573-.263c-.164 1.656.962 4.332 1.824 4.332.4 0 .727-.655.727-1.456s-.341-1.245-.758-.988-.964-.325-1.217-1.294-.512-1.236-.576-.594m-46.244 3.082c-1.243 1.586-1.208 1.621.378.378 1.666-1.307 2.195-2.128 1.372-2.128-.207 0-.995.788-1.75 1.75m-14.308.957c-.542 1.425-.428 1.54.56.56.684-.679.991-1.486.683-1.793-.308-.308-.867.247-1.243 1.233m57.308.043c-1.243 1.586-1.208 1.621.378.378 1.666-1.307 2.195-2.128 1.372-2.128-.207 0-.995.788-1.75 1.75m-82.059-.067c.721.289 1.584.253 1.916-.079s-.258-.568-1.312-.525c-1.165.048-1.402.285-.604.604m79.266 1.067c-.043 1.237.371 2.25.921 2.25s1 1.143 1 2.539c0 2.129.228 2.331 1.412 1.25 1.21-1.105 1.156-1.575-.373-3.289-.981-1.1-2.031-2.675-2.333-3.5-.359-.981-.575-.722-.627.75m21.934-.721c1.828 1.156 2.987 1.227 2.987.184 0-.433-1.007-.863-2.237-.956-1.759-.132-1.919.033-.75.772M117 63.941c0 .518.445 1.216.989 1.552.566.35.734-.051.393-.941-.665-1.732-1.382-2.049-1.382-.611m65 1c0 .518.445 1.216.989 1.552.566.35.734-.051.393-.941-.665-1.732-1.382-2.049-1.382-.611m-20.635 1.244c.966.54 2.349.755 3.074.477s1.822-.091 2.439.416c.772.634.827.565.179-.221-.519-.629-2.407-1.259-4.196-1.399-2.581-.203-2.89-.054-1.496.727m-99.906.882c-.363.586-.445 1.281-.183 1.543s.743-.218 1.069-1.067c.676-1.762.1-2.072-.886-.476M69 67.059c0 .582-.52.738-1.155.346-.699-.433-.883-.276-.467.397.377.611 1.344.858 2.148.55.805-.309 1.214-.964.909-1.457-.747-1.208-1.435-1.13-1.435.164M54.872 68.75c-1.214 1.548-1.189 1.607.22.509.876-.683 1.888-.946 2.25-.584s.658.133.658-.508c0-1.712-1.555-1.422-3.128.583M85 69c.589 1.1 1.295 2 1.57 2s.019-.9-.57-2-1.295-2-1.57-2-.019.9.57 2m-8.434.31c.286.746 1.176 1.357 1.977 1.357 1.959 0 1.835-.394-.52-1.655-1.552-.83-1.866-.766-1.457.298m87.434.083c0 .216.698.661 1.552.989.89.341 1.291.173.941-.393-.587-.951-2.493-1.406-2.493-.596m-1.636 2.113c3.647 1.902 4.573 1.914 2.077.026-1.067-.808-2.616-1.48-3.441-1.494s-.211.647 1.364 1.468M182 71.435c0 .239.418 1.535.929 2.879.656 1.726.532 3.011-.425 4.377-.952 1.359-1.051 2.361-.335 3.371.823 1.161.911 1.101.457-.312-.31-.963-.176-1.75.297-1.75 1.376 0 2.265-5.069 1.129-6.438-.569-.685-.739-1.542-.377-1.904s.133-.658-.508-.658c-.642 0-1.167.196-1.167.435M67.564 73.293c.376.986.935 1.541 1.243 1.233s.001-1.114-.683-1.793c-.988-.98-1.102-.865-.56.56m111.249-.61c.721.289 1.584.253 1.916-.079s-.258-.568-1.312-.525c-1.165.048-1.402.285-.604.604m-73.89.567c-.638 2.086-.55 3.638.181 3.186.511-.316.693-.955.406-1.42s.043-1.073.734-1.352c.998-.402.999-.522.006-.585-.687-.043-1.284.033-1.327.171m-27.359 4.457c-.542 1.425-.428 1.54.56.56.684-.679.991-1.486.683-1.793-.308-.308-.867.247-1.243 1.233m-19.961.126c-.283.459.12.834.897.834s1.18-.375.897-.834S58.71 77 58.5 77s-.614.375-.897.833m11.01.35c.289.467.944.591 1.456.274 1.308-.808 1.161-1.124-.525-1.124-.801 0-1.22.383-.931.85m11.846-.116c-.363.586-.445 1.281-.183 1.543s.743-.218 1.069-1.067c.676-1.762.1-2.072-.886-.476m43.072.883c-.323.522.438 1.447 1.691 2.055 2.039.989 2.096.958.544-.299-.954-.772-1.442-1.697-1.084-2.055s.378-.651.044-.651c-.335 0-.872.427-1.195.95m61.264 1.341c-.265 1.387.025 2.376.696 2.376.633 0 1.09-.816 1.017-1.813-.21-2.849-1.213-3.178-1.713-.563M86 80c0 .55.477 1 1.059 1s.781-.45.441-1-.816-1-1.059-1-.441.45-.441 1m30.813-.317c.721.289 1.584.253 1.916-.079s-.258-.568-1.312-.525c-1.165.048-1.402.285-.604.604M101 81c0 .55.477 1 1.059 1s.781-.45.441-1-.816-1-1.059-1-.441.45-.441 1m4.5 0c.34.55.816 1 1.059 1s.441-.45.441-1-.477-1-1.059-1-.781.45-.441 1m-46.758 3.085c-.967.563-2.199.751-2.738.417-.553-.341-.728.055-.4.908.513 1.337.844 1.343 2.818.049 1.231-.806 2.611-1.127 3.068-.713s.507.192.111-.496c-.844-1.468-.642-1.456-2.859-.165m43.288.451c.628.757.852 1.846.497 2.42s-.168 1.044.414 1.044S104 87.325 104 86.5s.112-1.795.25-2.155-.563-.774-1.556-.919c-1.428-.21-1.567.022-.664 1.11M178.5 84c.34.55.816 1 1.059 1s.441-.45.441-1-.477-1-1.059-1-.781.45-.441 1m-66.157 3.239c.087 1.468.539 2.277 1.011 1.806s.401-1.661-.158-2.659c-.869-1.553-.989-1.434-.853.853M90 87.059c0 .582.45.781 1 .441s1-.816 1-1.059S91.55 86 91 86s-1 .477-1 1.059m87 0c0 .582.45.781 1 .441s1-.816 1-1.059-.45-.441-1-.441-1 .477-1 1.059m7.496.919c.337 1.75.017 1.944-2.302 1.398-1.86-.438-2.384-.31-1.694.411.55.575 1.892 1.196 2.983 1.379 1.466.247 2.017-.258 2.114-1.941.073-1.251-.233-2.5-.68-2.776s-.636.412-.421 1.529m-128.841.772c-.255.412.575.75 1.845.75s2.1-.338 1.845-.75c-.254-.412-1.085-.75-1.845-.75s-1.591.338-1.845.75M93 88.893c0 .491.739 1.176 1.641 1.523 1.373.527 1.435.38.378-.893-1.44-1.735-2.019-1.916-2.019-.63m81.872.357c1.573 2.005 3.128 2.295 3.128.583 0-.641-.296-.87-.658-.508s-1.374.099-2.25-.584c-1.409-1.098-1.434-1.039-.22.509M116 90c-1.207.78-1.049.972.809.985 1.288.008 2.036-.427 1.691-.985-.743-1.202-.639-1.202-2.5 0m-18.5 2c.34.55.816 1 1.059 1s.441-.45.441-1-.477-1-1.059-1-.781.45-.441 1m89.7.2c-1.54 1.54-1.561 4.087-.029 3.576.645-.215 1.244-1.377 1.333-2.583.189-2.567.235-2.532-1.304-.993m-19.2.859c0 .582.45.781 1 .441s1-.816 1-1.059-.45-.441-1-.441-1 .477-1 1.059m3.923-1.011c-.042.249-.227 1.242-.412 2.207s.078 1.499.584 1.186c.505-.312 1.188.133 1.517.99s.964 1.331 1.412 1.054 1.526.208 2.395 1.077c.87.87 1.567 1.211 1.549.759-.034-.898-6.92-8.007-7.045-7.273m6.827.929c.688.782 1.25 2.485 1.25 3.782 0 1.343.438 2.089 1.016 1.731.559-.346.758-1.047.441-1.559-.316-.512.112-.931.953-.931 1.026 0 1.313-.557.875-1.699-.442-1.152-.788-1.293-1.072-.439-.31.929-.985.791-2.567-.524-1.18-.982-1.583-1.144-.896-.361m-88.017 1.147c.679.684 1.486.991 1.793.683.308-.308-.247-.867-1.233-1.243-1.425-.542-1.54-.428-.56.56m69.267.043c0 .458.675.833 1.5.833s1.5-.375 1.5-.833c0-.459-.675-.834-1.5-.834s-1.5.375-1.5.834m12-.789c0 .207.787.995 1.75 1.75 1.586 1.243 1.621 1.208.378-.378-1.307-1.666-2.128-2.195-2.128-1.372M77.015 96.75c.011 2.001.258 2.366.908 1.341.49-.775.66-2.013.377-2.75-.811-2.115-1.301-1.577-1.285 1.409m61.716-.83c-.435 1.663-.305 2.054.437 1.312.582-.582.86-1.647.62-2.369-.25-.749-.703-.295-1.057 1.057m-79.106-.122c-.271.439-.146 1.36.279 2.047.596.964 1.071.89 2.076-.321 1.117-1.346 1.045-1.471-.503-.877-1.242.477-1.58.328-1.082-.477.398-.644.498-1.17.223-1.17s-.722.359-.993.798M168 96.5c-.685.825-1.077 1.534-.872 1.577s1.227.237 2.272.433 2.275.949 2.735 1.674c.601.947.839.976.85.101.008-.668-.898-1.703-2.013-2.3s-1.764-1.513-1.441-2.035c.925-1.496-.155-1.108-1.531.55m-9 .5c0 .55.423 1 .941 1s1.219-.45 1.559-1-.084-1-.941-1-1.559.45-1.559 1m-50.667 2.544c0 .801.375 1.456.834 1.456s.833-.423.833-.941-.375-1.173-.833-1.456c-.459-.283-.834.14-.834.941M90.5 100c-.34.55-.141 1 .441 1S92 100.55 92 100s-.198-1-.441-1-.719.45-1.059 1m44.481.523c-1.057 1.273-.995 1.42.378.893.902-.347 1.641-1.032 1.641-1.523 0-1.286-.579-1.105-2.019.63M163 99.892c0 .674-.52.905-1.155.513-.744-.46-.881-.273-.387.528.546.882 1.078.931 1.838.171.589-.589.763-1.378.387-1.754-.375-.376-.683-.132-.683.542m19.241-.394c.408.45.274 1.382-.298 2.071-.721.868-.718 1.452.008 1.901.577.356 1.083.509 1.126.339.659-2.663.542-3.917-.416-4.465-.639-.366-.827-.296-.42.154M159 100.941c0 .518.445 1.216.989 1.552.566.35.734-.051.393-.941-.665-1.732-1.382-2.049-1.382-.611m9.733.183c.679.684 1.486.991 1.793.683.308-.308-.247-.867-1.233-1.243-1.425-.542-1.54-.428-.56.56m-68.85 1.614c-1.241 1.581-1.212 1.628.286.457 1.409-1.102 1.834-1.024 2.72.5.578.993 1.064 1.298 1.081.677.016-.62-.585-1.638-1.337-2.262-1.05-.871-1.689-.725-2.75.628M165 104c0 1.1.354 2 .786 2s.785-.9.785-2-.353-2-.785-2-.786.9-.786 2m11.783 0c.25.825.477 2.001.503 2.613.026.62.946.878 2.077.582 1.985-.519 1.987-.548.083-1.293-1.07-.419-1.357-.793-.637-.832s1.026-.527.681-1.086c-.346-.559-1.009-.781-1.474-.494s-1.035.182-1.267-.234-.216-.081.034.744M93 103.383c0 .211.901.619 2.001.907 1.101.288 1.75.115 1.441-.383-.538-.871-3.442-1.313-3.442-.524m19 .51c0 .491.739 1.176 1.641 1.523 1.373.527 1.435.38.378-.893-1.44-1.735-2.019-1.916-2.019-.63m6.079.69c.048 1.165.285 1.402.604.605.289-.722.253-1.585-.079-1.917s-.568.258-.525 1.312M168.15 106c-.858 2.46-.777 3 .446 3 .82 0 1.419-.562 1.329-1.25-.373-2.879.139-3.939 1.627-3.368.89.341 1.291.173.941-.393-1.192-1.929-3.312-.947-4.343 2.011m17.289-.6c.035 1.185-.578 2.078-1.439 2.094-1.002.019-1.388.817-1.164 2.405.185 1.307-.19 2.702-.834 3.1-.828.512-.711.899.402 1.326.941.361 1.476.116 1.334-.611-.131-.668.344-1.095 1.055-.95.972.199 1.04-.208.271-1.645-.753-1.407-.655-2.213.373-3.067 1.098-.911 1.49-.774 1.836.645.242.992.392.192.333-1.777s-.584-3.581-1.167-3.583-1.034.926-1 2.063M92 105.393c0 .216.698.661 1.552.989.89.341 1.291.173.941-.393-.587-.951-2.493-1.406-2.493-.596m15.974 1.644c-.997.63-1.069.937-.224.948.688.008 1.25.69 1.25 1.515 0 1.772 1.16 1.94 2.707.393 1.391-1.391 3.293 1.552 3.293 5.097 0 .545.9.22 2-.722 2.04-1.747 2.814-3.889 1-2.768-.55.34-1 .196-1-.32 0-.515-1.463-1.529-3.25-2.252s-3.487-1.654-3.776-2.068c-.29-.415-1.19-.335-2 .177m50.693-.37c-.367.366-.667 1.341-.667 2.166 0 1.813 1.303.709 1.607-1.362.239-1.63.049-1.793-.94-.804M4.405 112c.166 2.475.836 5.815 1.489 7.422.653 1.608.964 3.506.69 4.218-.273.713-.059 1.566.476 1.897s.684 1.068.331 1.639c-.418.677.185.784 1.734.307 3.19-.983 3.444-1.314 2.058-2.7-.651-.65-1.183-2.191-1.183-3.424s-.457-2.524-1.016-2.869-.715-1.117-.346-1.714c.401-.647.206-.797-.483-.371-.674.416-1.207.064-1.28-.846a76 76 0 0 0-.283-2.809c-.088-.687.306-1.581.875-1.985.609-.433.349-.741-.634-.75-.916-.008-1.906-.577-2.198-1.265s-.396.775-.23 3.25m168.151-2.09c-.382.617-1.113.864-1.625.547s-.931-.068-.931.551c0 .62.787.877 1.75.572s3.039.115 4.614.933c3.815 1.981 4.384 1.874 2.061-.385-1.059-1.03-2.313-1.647-2.787-1.372s-1.205-.055-1.625-.735c-.552-.893-.955-.924-1.457-.111m16.444.149c0 .582.45.781 1 .441s1-.816 1-1.059-.45-.441-1-.441-1 .477-1 1.059m-77.317 1.325c-.31.808.066 1.993.836 2.632 1.142.947 1.321.751.972-1.062-.559-2.904-1.112-3.384-1.808-1.57M166 111.5c0 .825.177 1.5.393 1.5s.652-.675.969-1.5.139-1.5-.393-1.5c-.533 0-.969.675-.969 1.5m-2.457.431c-.317.512-.193 1.167.274 1.456s.85-.13.85-.931c0-1.686-.316-1.833-1.124-.525m-6.835 4.059c.314 1.203 1.105 1.61 2.444 1.26 1.39-.364 1.665-.833.924-1.574-1.814-1.814-3.875-1.622-3.368.314m8.042-.401c-1.512.811-2.75 1.7-2.75 1.975s1.234-.147 2.742-.937c2.591-1.357 2.84-1.29 4.494 1.218.963 1.46 1.754 2.093 1.757 1.405.004-.687.007-1.475.007-1.75s-.206-.388-.457-.25-1.039-.512-1.75-1.443c-1.164-1.524-1.567-1.545-4.043-.218m-43.186 2.118c-.542 1.425-.428 1.54.56.56.684-.679.991-1.486.683-1.793-.308-.308-.867.247-1.243 1.233m57.021-.269c1.249.914 1.525 1.989 1.022 3.99-.45 1.795-.328 2.518.353 2.097.572-.354 1.04-1.318 1.04-2.143 0-.91.492-1.222 1.25-.794 1 .564 1 .436 0-.641-.687-.741-1.25-1.707-1.25-2.147 0-1.238 2.356-.472 3.688 1.2 1.026 1.287 1.176 1.216 1.06-.5-.113-1.648-.906-2.028-4.505-2.156-3.721-.133-4.115.029-2.658 1.094M177 118.941c0 .518.445 1.216.989 1.552.566.35.734-.051.393-.941-.665-1.732-1.382-2.049-1.382-.611m-22.256 2.186c.418 1.601.757 1.707 2.065.644 1.347-1.094 1.461-.992.819.729-.599 1.605-.498 1.753.513.75.973-.966.989-1.52.069-2.44-1.999-1.999-4.024-1.814-3.466.317m6.829 1.779-2.928 3.594 3.376-3.218c1.857-1.77 3.175-3.387 2.928-3.594s-1.766 1.241-3.376 3.218M95 122.195c0 .56.624.78 1.386.487 1.137-.436 1.117.008-.116 2.478-1.157 2.32-1.229 3.276-.314 4.175.653.641 1.101.715.997.165s-.137-2.068-.071-3.372c.105-2.112.31-2.222 1.868-1 1.586 1.243 1.621 1.208.378-.378-1.197-1.526-1.144-1.75.416-1.75 2.574 0 .992-1.216-2.011-1.546-1.393-.153-2.533.181-2.533.741m87 .864c0 .582.45.781 1 .441s1-.816 1-1.059-.45-.441-1-.441-1 .477-1 1.059m-89.447 1.856a1.116 1.116 0 0 0 .362 1.532c.521.322 1.21.159 1.532-.362a1.116 1.116 0 0 0-.362-1.532 1.116 1.116 0 0 0-1.532.362M163 126.059c0 .582.45.781 1 .441s1-.816 1-1.059-.45-.441-1-.441-1 .477-1 1.059m19.241-.561c.408.45.225 1.441-.407 2.202-.877 1.057-.82 1.671.242 2.592.765.665 1.076.811.693.327s-.263-1.695.269-2.69c.677-1.265.592-2.024-.285-2.529-.689-.396-.919-.352-.512.098m-31.508 1.626c.679.684 1.486.991 1.793.683.308-.308-.247-.867-1.233-1.243-1.425-.542-1.54-.428-.56.56m9.726-.057c-.363.586-.445 1.281-.183 1.543s.743-.218 1.069-1.067c.676-1.762.1-2.072-.886-.476M165.5 127c-.34.55-.168 1 .382 1s1.278-.45 1.618-1 .168-1-.382-1-1.278.45-1.618 1m-154.55.651c-1.02.275-1.55 1.599-1.55 3.869 0 1.898.311 2.948.691 2.333.426-.69.955-.282 1.384 1.068.538 1.695.995 1.934 2.039 1.067 1.039-.862 1.616-.614 2.524 1.083.937 1.751 1.356 1.917 2.054.814.483-.762.884-.897.893-.302.023 1.639-1.019 2.341-2.583 1.741-.771-.296-1.402-1.22-1.402-2.053 0-1.234-.279-1.284-1.5-.271-1.562 1.296-2.126 3.505-.665 2.602.46-.284 1.577 1.039 2.484 2.941 1.829 3.836 2.153 3.956 5.554 2.07 2.316-1.283 2.323-1.329.298-1.858-1.141-.298-2.288-.129-2.548.376-.26.506-.352.345-.205-.356.151-.716 1.281-1.126 2.58-.936 2.221.326 2.185.18-.913-3.732-1.774-2.239-2.956-4.506-2.628-5.037s-.259-.801-1.306-.599c-1.046.201-1.887-.16-1.869-.802.079-2.819-.338-4.66-1.032-4.553-.412.064-1.447.304-2.3.535m143.383.833c0 1.124.324 1.215 1.334.378.733-.609 1.333-1.277 1.333-1.484s-.6-.378-1.333-.378c-.734 0-1.334.668-1.334 1.484m18.299-.27c.268.432 1.134.786 1.927.786s1.441-.354 1.441-.786-.867-.785-1.927-.785c-1.059 0-1.708.353-1.441.785M98.5 129c.34.55.816 1 1.059 1s.441-.45.441-1-.477-1-1.059-1-.781.45-.441 1m50.167-.333c-.367.366-.667 1.131-.667 1.7 0 .626.466.567 1.183-.15.651-.651.951-1.416.667-1.7s-.817-.217-1.183.15m-42.785 2.024a6.2 6.2 0 0 0 0 1.559c.065.412-.332.75-.882.75s-1 .45-1 1c0 1.638 1.432 1.139 2.739-.954.768-1.23.857-2.177.241-2.559-.539-.333-1.033-.241-1.098.204m-4.372 1.325c.346.559 1.047.758 1.559.441 1.387-.857 1.129-1.457-.628-1.457-.857 0-1.276.457-.931 1.016m47.362.734c-1.243 1.586-1.208 1.621.378.378 1.666-1.307 2.195-2.128 1.372-2.128-.207 0-.995.787-1.75 1.75M96 133c0 .55.477 1 1.059 1s.781-.45.441-1-.816-1-1.059-1-.441.45-.441 1m12.015.628c-.02 1.496 2.492 3.532 3.327 2.697.362-.362.71.429.774 1.758.082 1.716.249 1.906.576.655.259-.994.971-1.475 1.634-1.104.871.49.886.346.055-.557-.616-.668-1.889-1.329-2.83-1.467s-2.118-.894-2.616-1.68c-.499-.789-.911-.924-.92-.302m49.444 7.439c-.363.586-.389 1.336-.059 1.666s.6.052.6-.618 1.158.032 2.574 1.559 2.09 2.938 1.5 3.135c-.591.197-1.074 1.027-1.074 1.846 0 1.231.222 1.26 1.286.166 1.361-1.398 2.066-5.846.9-5.681-2.034.288-3.186-.305-3.186-1.64 0-1.732-1.573-2-2.541-.433M165 141c0 .55.477 1 1.059 1s.781-.45.441-1-.816-1-1.059-1-.441.45-.441 1m-53.623 2.178c.109 2.374.302 2.516 1.702 1.25.868-.785 2.218-1.421 3-1.413 1.182.013 1.171.173-.066.956-1.176.743-1.03.906.699.776 1.732-.131 1.95-.449 1.048-1.536-.626-.755-2.163-1.176-3.414-.937-1.252.24-2.46-.062-2.685-.669-.224-.608-.352.1-.284 1.573m37.113 1.838c-.346.559-1.117.715-1.714.346-.632-.391-.799-.208-.398.44.758 1.226 3.622.508 3.622-.909 0-1.192-.734-1.132-1.51.123m23.51.317c0 .734.668 1.334 1.484 1.334 1.124 0 1.215-.324.378-1.334-.609-.733-1.277-1.333-1.484-1.333s-.378.6-.378 1.333M116.158 148c0 1.375.227 1.938.504 1.25.278-.687.278-1.812 0-2.5-.277-.687-.504-.125-.504 1.25m35.172.25c.108 2.797 1.052 3.558 2.17 1.75.34-.55.174-1-.368-1s-1.193-.787-1.447-1.75-.414-.512-.355 1m4.067-.744c1.044.786 2.311 1.174 2.817.862 1.245-.77.523-1.346-2.329-1.861-2.268-.41-2.292-.361-.488.999m-10.641.158c.691.279.995.93.676 1.446-.319.517-.022.816.662.665.683-.151 1.775.745 2.425 1.993 1.682 3.225 2.437 3.778 1.793 1.315-.305-1.163-.971-2.372-1.481-2.688-.532-.328-.374-1.281.37-2.234 1.147-1.466 1.104-1.509-.362-.362-1.118.873-1.873.955-2.309.25-.356-.577-1.184-1.013-1.839-.97-.852.056-.834.223.065.585m21.007 1.07c-.207.421-.508 2.341-.67 4.266-.161 1.925-.811 3.831-1.443 4.235-.845.539-.849.738-.015.75.624.008 1.862-1.094 2.75-2.45 1.842-2.812 2.07-3.934.615-3.035-1.343.83-1.277-.823.087-2.187.727-.727.75-1.296.069-1.716-.56-.346-1.187-.285-1.393.137m4.85.449c.289.467.944.591 1.456.274 1.308-.808 1.161-1.124-.525-1.124-.801 0-1.22.383-.931.85m-145.8 1.5c.721.289 1.584.253 1.916-.079s-.258-.568-1.312-.525c-1.165.048-1.402.285-.604.604m3.053 3.113c-.235 2.362-.057 4.837.395 5.5.592.866.778.784.662-.296-.327-3.06.088-4.112 1.327-3.367.937.563.925.35-.049-.852-.873-1.078-.955-1.815-.25-2.251.577-.356 1.042-1.184 1.034-1.839q-.016-1.189-.879.172c-.729 1.151-.938 1.151-1.338 0-.261-.75-.667.57-.902 2.933m128.884-1.963c2.049 2.147 2.542 2.091 1.667-.19-.347-.904-1.258-1.643-2.024-1.643-1.061 0-.976.437.357 1.833M24 152.806c0 .522.675 1.509 1.5 2.194s1.5.933 1.5.551-.675-1.369-1.5-2.194-1.5-1.073-1.5-.551m137.458 1.111c.277 1.883 1.831 1.72 2.116-.223.11-.748-.373-1.361-1.074-1.361s-1.17.713-1.042 1.584m-21.507.642c-.848 1.022-.87 1.441-.073 1.441.617 0 1.122-.436 1.122-.969s.675-.709 1.5-.393c.825.317 1.5.351 1.5.076 0-1.314-2.992-1.429-4.049-.155m14.382 1.965c0 .688.587 1.164 1.305 1.059 2.225-.327 2.531-1.305.568-1.819-1.093-.286-1.873.031-1.873.76M150 157c0 .55.45 1 1 1s1-.45 1-1-.45-1-1-1-1 .45-1 1m-119.73 1.931c.08 1.062.502 1.71.938 1.441 1.108-.686.993-3.372-.146-3.372-.516 0-.872.869-.792 1.931M113.5 158c-.34.55-.141 1 .441 1s1.059-.45 1.059-1-.198-1-.441-1-.719.45-1.059 1m28.75-.294c-2.941.566-2.889 1.757.084 1.928 1.384.079 2.333-.429 2.333-1.25 0-.761-.038-1.323-.084-1.248s-1.095.331-2.333.57m5.102.054c.363.588.095 1.297-.596 1.576-.899.362-.917.529-.065.585 1.721.114 2.548-1.656 1.171-2.506-.698-.432-.904-.292-.51.345m5.648 1.633c0 .216.675.652 1.5.969s1.5.139 1.5-.393c0-.533-.675-.969-1.5-.969s-1.5.177-1.5.393m6 .607c0 .55.45 1 1 1s1-.45 1-1-.45-1-1-1-1 .45-1 1m-125.457.931c-.317.512-.193 1.167.274 1.456s.85-.13.85-.931c0-1.686-.316-1.833-1.124-.525m80.124-.264c-1.017 1.016-.795 2.333.392 2.333.582 0 .741-.562.353-1.25-.563-.998-.435-.999.638-.004 1.115 1.035 1.012 1.502-.604 2.753-1.664 1.288-1.689 1.416-.168.886 2.68-.935 4.058-4.042 2.122-4.785-1.938-.744-1.922-.744-2.733.067m27.205 1.641c.895 1.103.982 1.692.25 1.692-.617 0-1.122.546-1.122 1.214 0 .771.611.604 1.671-.456 1.56-1.561 1.774-1.558 3.25.036 2.401 2.594 3.579 2.336 3.579-.782 0-1.551-.338-2.612-.75-2.357s-.75 1.138-.75 1.963-.457 1.217-1.016.872a1.196 1.196 0 0 1-.391-1.64c.356-.576-.177-.881-1.234-.706-1.022.168-2.534-.107-3.359-.611-1.295-.791-1.312-.685-.128.775M43 162.941c0 .518.375 1.173.833 1.456.459.283.834-.14.834-.941S44.292 162 43.833 162s-.833.423-.833.941m76 .059c0 .55.477 1 1.059 1s.781-.45.441-1-.816-1-1.059-1-.441.45-.441 1m-69.648.76c.363.588.095 1.297-.596 1.576-.989.398-.983.523.029.585.953.059 1.021.573.263 1.989-.796 1.488-.7 1.862.436 1.695.802-.117 1.809-.599 2.237-1.07.428-.47.201-.522-.505-.115-.945.544-1.161.063-.819-1.824.255-1.41-.024-2.865-.621-3.234-.616-.381-.8-.21-.424.398m3.742-.26c-.035.55.354 1.66.864 2.466.6.949.506 2.008-.265 3-1.04 1.337-.972 1.361.525.188.945-.74 1.62-1.865 1.5-2.5s.378-1.03 1.106-.879c.74.153 1.026-.208.649-.818-.371-.602-1.276-.863-2.01-.581-.733.281-1.552-.026-1.819-.682-.268-.657-.515-.744-.55-.194m53.379.544c-.325.526.111.956.968.956s1.559.45 1.559 1 .436 1 .969 1c1.379 0 .151-2.74-1.514-3.379-.765-.294-1.657-.103-1.982.423M34 164.393c0 .216.698.661 1.552.989.89.341 1.291.173.941-.393-.587-.951-2.493-1.406-2.493-.596m28.872 1.915c.755.931 2.068 1.692 2.917 1.692 1.442 0 .833-1.482-.622-1.515-.367-.009-1.342-.433-2.167-.942-1.295-.8-1.312-.695-.128.765M155.5 166c.34.55.816 1 1.059 1s.441-.45.441-1-.477-1-1.059-1-.781.45-.441 1m-116.23 2.061c.844 1.351 1.371 1.529 1.93.649.714-1.123 1.211-.253.904 1.583-.185 1.108 3.622-1.032 4.532-2.548.429-.715-.053-.606-1.131.255-1.679 1.34-1.818 1.334-1.299-.055.45-1.202-.176-1.576-2.758-1.649-3.013-.086-3.226.087-2.178 1.765m31.878 1.073c-1.111 1.78-1.11 2.275.01 2.985.738.468.989.857.557.866-.432.008-.284.952.33 2.098.887 1.659.766 2.469-.599 3.977-.942 1.041-2.216 1.612-2.83 1.27s-.497.005.259.773c1.069 1.086 1.477 1.118 1.835.141.254-.691.942-.959 1.53-.596.632.391.777.189.355-.493-.392-.635-.214-1.155.397-1.155 1.141 0 .93-7.411-.244-8.585-.336-.336-.368-1.242-.072-2.013.8-2.085-.011-1.697-1.528.732M116 167.378c0 .207.787.995 1.75 1.75 1.586 1.243 1.621 1.208.378-.378-1.307-1.666-2.128-2.195-2.128-1.372m4 .409c0 .433 1.007.863 2.237.956 1.759.132 1.919-.033.75-.772-1.828-1.156-2.987-1.227-2.987-.184m6.262-.1c.969.256 1.509.875 1.198 1.377-.313.507.238.613 1.238.237 1.583-.593 1.635-.471.43 1.012-.755.928-1.205 1.721-1 1.764 3.103.637 3.776.559 3.591-.42-.12-.636.348-1.043 1.042-.903 1.003.201 1.01-.147.034-1.711-.884-1.416-1.441-1.626-1.995-.753-.423.665-.776.746-.785.178-.008-.567-1.253-1.08-2.765-1.138-1.513-.059-1.957.102-.988.357M98.6 169.161c.281.456 1.499 1.305 2.706 1.889 1.979.956 2.024.923.46-.344-.954-.772-1.517-1.622-1.25-1.888.266-.267-.171-.485-.972-.485s-1.226.373-.944.828M59 170c1.282.828 1.246.972-.25.985-.962.008-1.75.465-1.75 1.015 0 1.221 2.223.878 3.235-.5 1.208-1.645.869-2.501-.985-2.485-1.496.013-1.532.157-.25.985m25.426.694c.145.993.597 1.731 1.003 1.639 1.518-.343 1.576-1.084.175-2.246-1.174-.975-1.394-.861-1.178.607m45.446.056c-1.243 1.586-1.208 1.621.378.378 1.666-1.307 2.195-2.128 1.372-2.128-.207 0-.995.787-1.75 1.75M144 170c.825.533 1.95.969 2.5.969s.325-.436-.5-.969-1.95-.969-2.5-.969-.325.436.5.969m-54.662 1.437c.32.835-.159 1.625-1.143 1.884-.963.254-.492.497 1.09.563 2.487.104 2.671-.098 1.715-1.884-1.227-2.292-2.49-2.72-1.662-.563m24.746.626c1.261.951 2.889 1.501 3.617 1.221s1.954.014 2.723.653c1.071.888 1.573.856 2.147-.138.412-.715.377-.961-.08-.547-.456.414-1.636.022-2.623-.871-.986-.893-2.485-1.358-3.331-1.034-.845.325-1.537.229-1.537-.212s-.722-.802-1.605-.802c-1.208 0-1.037.428.689 1.73m41.788-.313c-1.269 1.619-1.222 1.64.628.283 1.1-.807 2.188-1.594 2.417-1.75s-.054-.283-.628-.283-1.662.787-2.417 1.75M63 172c-.901.582-1.025.975-.309.985.655.008 1.469-.435 1.809-.985.767-1.242.421-1.242-1.5 0m44.739 1.112c.274 1.044-.061 2.571-.743 3.393-.683.822-.826 1.495-.318 1.495 1.596 0 3.188-2.186 2.637-3.622-.291-.758-.068-1.378.495-1.378s1.25.563 1.528 1.25c.301.747.536.545.583-.5.043-.963-.259-1.784-.671-1.827s-1.483-.219-2.379-.393c-1.167-.228-1.488.22-1.132 1.582m19.261.766c0 .482.749 1.495 1.664 2.25 1.508 1.244 1.552 1.162.465-.878-1.24-2.327-2.129-2.9-2.129-1.372m7.333.578c0 .801.383 1.22.85.931s.591-.944.274-1.456c-.808-1.308-1.124-1.161-1.124.525m17.68-.485c-1.179.745-1.037.907.68.777 1.193-.09 1.948-.52 1.679-.956-.599-.969-.537-.973-2.359.179m-88.318 1.381c-.456 1.188-.299 1.521.486 1.036.781-.483.944-.157.5 1-.391 1.019-.257 1.468.33 1.105.544-.336.989-.161.989.389s-.457 1.283-1.016 1.628c-1.279.79-.298 2.49 1.436 2.49.856 0 1.136-.872.817-2.542-.326-1.705-.075-2.445.763-2.25.688.161 1.456-.271 1.709-.959.294-.804-.111-1.032-1.137-.638-1.168.448-1.429.18-.976-1 .35-.914.113-1.611-.548-1.611-.641 0-.888.45-.548 1s.179 1-.358 1-1.155-.54-1.375-1.199c-.246-.738-.659-.525-1.072.551M97.5 175c.34.55 1.068 1 1.618 1s.722-.45.382-1-1.068-1-1.618-1-.722.45-.382 1m34 1c.34.55.816 1 1.059 1s.441-.45.441-1-.477-1-1.059-1-.781.45-.441 1m-55.121 1.379c.127.86.509 1.842.85 2.184.342.341.518-.083.392-.942-.127-.86-.509-1.842-.85-2.184-.342-.341-.518.083-.392.942m32.653 1.56c-.757 1.416-.699 2.134.215 2.661.689.396.931.364.538-.071-.393-.436-.265-1.633.285-2.66s.775-1.869.5-1.869-.967.873-1.538 1.939m26.581-.756c.289.467.944.591 1.456.274 1.308-.808 1.161-1.124-.525-1.124-.801 0-1.22.383-.931.85M125.5 179c.34.55.816 1 1.059 1s.441-.45.441-1-.477-1-1.059-1-.781.45-.441 1M80 180c0 .55.477 1 1.059 1s.781-.45.441-1-.816-1-1.059-1-.441.45-.441 1m48.564 1.293c.376.986.935 1.541 1.243 1.233s.001-1.114-.683-1.793c-.988-.98-1.102-.865-.56.56m-23.564.766c0 .582-.419.8-.931.484a1.096 1.096 0 0 0-1.505.353c-.315.511.216.807 1.181.659s2.063.454 2.439 1.338c.446 1.047.632.648.532-1.143-.14-2.535-1.716-4.088-1.716-1.691m-11 2.774c0 .459.675.834 1.5.834s1.5-.375 1.5-.834-.675-.833-1.5-.833-1.5.375-1.5.833m4.5.167c.34.55.816 1 1.059 1s.441-.45.441-1-.477-1-1.059-1-.781.45-.441 1m-10.993.989c-.35.566.051.734.941.393 1.732-.665 2.049-1.382.611-1.382-.518 0-1.216.445-1.552.989m12.306 1.694c.721.289 1.584.253 1.916-.079s-.258-.568-1.312-.525c-1.165.048-1.402.285-.604.604"/><path fill-opacity=".099" fill-rule="evenodd" d="M93.768 3.725c1.797.222 4.497.218 6-.01 1.503-.229.032-.411-3.268-.405s-4.529.192-2.732.415m-10.499.968c.973.254 2.323.237 3-.037s-.119-.481-1.769-.461-2.204.244-1.231.498m24.481-.031c.688.278 1.813.278 2.5 0 .688-.277.125-.504-1.25-.504s-1.937.227-1.25.504m-30 1c.688.278 1.813.278 2.5 0 .688-.277.125-.504-1.25-.504s-1.937.227-1.25.504m34.917.005c-.367.366-.66 1.154-.652 1.75.011.733.253.716.75-.051.404-.624 1.635-1.359 2.735-1.634 1.935-.484 1.932-.504-.083-.616-1.146-.064-2.384.184-2.75.551M73.813 6.683c.721.289 1.584.253 1.916-.079s-.258-.568-1.312-.525c-1.165.048-1.402.285-.604.604m45 0c.721.289 1.584.253 1.916-.079s-.258-.568-1.312-.525c-1.165.048-1.402.285-.604.604M67.5 8c-1.261.542-1.445.859-.5.859.825 0 2.4-.386 3.5-.859 1.261-.542 1.445-.859.5-.859-.825 0-2.4.386-3.5.859M64 10.094c0 .498.9.906 2 .906s2-.173 2-.383-.9-.619-2-.907c-1.1-.287-2-.115-2 .384m7.762-.387c1.244.239 3.044.23 4-.02s-.062-.446-2.262-.435-2.982.216-1.738.455m12.988-.001c1.237.238 3.263.238 4.5 0 1.237-.239.225-.434-2.25-.434s-3.487.195-2.25.434M57.5 12.097c-2.2 1.072-3.1 1.682-2 1.356s3.237-.843 4.75-1.148 2.75-.949 2.75-1.43c0-1.218-.905-1.017-5.5 1.222m36.25-1.435c.688.278 1.813.278 2.5 0 .688-.277.125-.504-1.25-.504s-1.937.227-1.25.504M133 11.5c1.375.786 2.95 1.429 3.5 1.429s-.125-.643-1.5-1.429-2.95-1.429-3.5-1.429.125.643 1.5 1.429m-34.187.183c.721.289 1.584.253 1.916-.079s-.258-.568-1.312-.525c-1.165.048-1.402.285-.604.604M109 15c.825.533 1.95.969 2.5.969s.325-.436-.5-.969-1.95-.969-2.5-.969-.325.436.5.969m31.217-.493c.395.418-.168 1.886-1.25 3.262-2.853 3.627-2.623 9.666.488 12.776 2.636 2.637 6.063 3.237 6.883 1.205.394-.977.521-.969.583.035.06.98.562 1.027 2.107.2 1.115-.597 1.721-1.582 1.345-2.19-.396-.641-.227-.823.403-.433 1.735 1.072 2.526-1.284 1.06-3.156-1.203-1.537-1.162-1.57.414-.334 1.511 1.185 1.75 1.152 1.75-.24 0-1.444.224-1.43 2.143.128 6.011 4.882 8.857 7.522 8.857 8.217 0 .424 1.774 2.711 3.943 5.084s3.826 4.567 3.683 4.876.87 1.688 2.25 3.063l2.511 2.5-1.836-3C169.88 37.235 159.52 26.729 148 18.563c-1.263-.895-1.304-.811-.259.529.683.876.908 1.96.5 2.41-.407.45-.178.495.509.099 1.39-.8 1.728 2.099.475 4.07-1.134 1.783-5.797 2.628-7.998 1.45-4.135-2.212-1.004-11.401 3.319-9.742 2.704 1.038 1.476-.317-1.796-1.98-1.787-.91-2.927-1.311-2.533-.892M113 15.893c0 .491.739 1.176 1.641 1.523 1.373.527 1.435.38.378-.893-1.44-1.735-2.019-1.916-2.019-.63m8.5 5.246c2.75 1.706 5.865 3.835 6.922 4.731 1.132.96 1.6 1.082 1.14.297-.854-1.455-10.974-8.179-12.264-8.148-.439.01 1.452 1.415 4.202 3.12m-62.1 7.725c-7.846 5.763-9.919 9.44-11.073 19.636-.328 2.897.196 5.27 1.9 8.604C53.383 63.279 52.98 70 49.454 70c-2.635 0-3.452.98-4.511 5.413-.567 2.369-.762 2.564-.841.837-.177-3.897-1.951-2.443-2.642 2.166-.827 5.517.825 13.473 3.929 18.919 1.306 2.291 2.647 5.346 2.98 6.789s1.429 3.64 2.435 4.883c1.595 1.969 2.126 2.101 4.128 1.029 1.988-1.064 2.205-1.723 1.609-4.883-.379-2.009-.791-4.778-.916-6.153s-.774-2.5-1.442-2.5c-1.478 0-5.269-5.551-4.567-6.688.276-.446.025-.812-.557-.812S48 88.55 48 88c0-1.739 1.84-1.081 2.462.881C51.163 91.09 55 95.736 55 94.376c0-.512-.701-1.932-1.558-3.155-.857-1.224-1.28-2.674-.941-3.223s.14-.998-.442-.998c-1.681 0-1.228-2.721.568-3.41.894-.344 2.323-.054 3.174.643 1.169.957 1.11.594-.241-1.483-2.759-4.239-7.493-3.183-6.722 1.5.158.963-.158 1.75-.703 1.75-1.596 0-2.513-10.425-1.143-12.985.928-1.735 1.797-2.107 3.923-1.682 2.695.539 2.733.475 2.84-4.846.126-6.212 3.539-15.041 5.376-13.906.691.427.913.299.537-.309-.787-1.274 3.158-6.498 4.351-5.76.472.291 1.223-.044 1.67-.746 1.833-2.884 9.8-4.418 16.247-3.129 2.682.537 3.154 1.05 2.981 3.25-.112 1.437.119 3.513.515 4.613l2.087 5.813c.754 2.097 1.127 4.572.831 5.5-.345 1.082-.235 1.271.309.527.609-.834 1.604-.51 3.531 1.147 1.475 1.269 2.374 2.651 1.996 3.07-.377.42-.12.438.571.04.762-.438 1.521-.009 1.927 1.09.369.997.928 2.038 1.243 2.313 2.805 2.448 3.271 12 .586 12-2.199 0-3.63 2.482-2.239 3.883.97.978.861 1.097-.524.569-2.531-.963-2.166-.022 1.358 3.503 2.056 2.055 2.938 3.763 2.603 5.042-.278 1.064-.147 1.838.292 1.719s.832.131.875.554 1.213 1.994 2.6 3.49 2.522 3.715 2.522 4.933c0 3.185 2.032 7.182 3.963 7.795 2.371.753 8.36 7.16 8.686 9.293.18 1.179-.403 1.85-1.69 1.947-2.478.187-14.545-7.899-14.209-9.521.137-.664-.151-1.094-.641-.957s-1.84-.831-3-2.153S97 110.072 97 110.534s-1.334-.438-2.964-2c-1.631-1.562-2.686-3.291-2.346-3.842.35-.565.117-.691-.535-.287-.685.422-1.155.078-1.155-.846 0-.857-.477-1.559-1.059-1.559s-.735-.562-.34-1.25c.396-.687.343-.908-.116-.491-.46.418-1.883-.223-3.161-1.424-2.33-2.19-3.379-1.29-1.124.965.933.933.921 1.2-.057 1.2-2.805 0-10.085-2.285-9.629-3.022.269-.435-.483-.537-1.671-.227-2.25.589-2.286.002-.322-5.251.736-1.966.723-1.967-.76-.063-1.479 1.9-1.521 1.896-2.202-.25-.381-1.203-.443-3.2-.136-4.437s.3-1.687-.016-1C68.611 88.485 67 88.318 67 86.5c0-.825-.477-1.5-1.059-1.5s-.738-.52-.346-1.155c.443-.716.275-.883-.443-.439-.791.489-.851 1.287-.19 2.523.532.995.646 2.164.253 2.6s-.196.495.438.133c1.215-.695 3.652 4.7 2.599 5.753-.322.322-.06.585.581.585 1.866 0 1.346 4.407-.667 5.665-1.977 1.234-7.427 1.156-10.666-.152-1.62-.654-1.769-.558-.785.505.668.721 3.644 1.513 6.614 1.759 4.586.381 5.613.143 6.817-1.575 1.346-1.922 1.687-1.952 6.853-.612 2.99.775 6.362 1.41 7.492 1.41 1.242 0 5.216 3.181 10.032 8.031 4.388 4.418 9.667 9.206 11.733 10.641 3.025 2.101 3.529 2.883 2.587 4.017-.972 1.171-1.863.726-5.294-2.64-2.268-2.227-4.636-4.049-5.26-4.049-.625 0-2.528 1.172-4.231 2.605l-3.095 2.604-3.415-2.604c-4.522-3.45-5.169-3.286-2.396.608 2.269 3.187 2.243 3.179-3.159-.94-2.995-2.284-5.66-3.94-5.92-3.679-.261.261 4.905 5.972 11.481 12.69 27.662 28.264 28.052 28.704 26.446 29.842-1.232.872-1.164.953.377.451 2.077-.677 4.923 1.128 4.038 2.561-.31.501.032.788.761.637.733-.152 1.175.395.991 1.225-.184.825.005 1.162.419.748.413-.414 1.566-.016 2.56.884 1.277 1.155 2.931 1.487 5.62 1.126 3.716-.498 3.858-.4 5.631 3.888 1.001 2.42 2.671 4.855 3.712 5.412 1.04.557 1.891 1.473 1.891 2.036s-.562.706-1.25.318c-.936-.528-.968-.399-.13.512.869.943 2.274.507 6.25-1.939 5.406-3.327 6.455-4.565 3.129-3.695-1.101.288-1.791.183-1.535-.233.257-.415-.592-1.323-1.888-2.016s-2.923-2.321-3.617-3.617c-.693-1.296-1.53-2.188-1.86-1.984-.329.205-.374-2.402-.099-5.794.548-6.754 4.395-13.562 8.815-15.597 1.791-.824 2.163-1.573 1.646-3.307-.615-2.066-.561-2.102.697-.458 1.155 1.509 1.641 1.584 3.148.481 1.655-1.209 9.976-.899 17.194.641 1.1.235 2.675.496 3.5.581 1.124.115 1.045.333-.315.869-1.726.681-1.717.805.178 2.52 1.941 1.756 2.035 1.722 3.606-1.316.887-1.715 1.3-3.625.917-4.244-.399-.646-.249-.849.353-.478 1.045.647 4.414-5.532 5.636-10.338l.636-2.5-1.189 2.319c-.875 1.707-1.734 2.155-3.255 1.698-1.137-.342-3.867-.884-6.067-1.204-2.2-.321-4.519-.991-5.153-1.49-.718-.565-1.295-.479-1.53.226-.208.623-2.389 1.261-4.847 1.417-2.459.155-6.917 1.464-9.907 2.908-6.182 2.986-6.447 3.057-5.468 1.471.446-.721.274-.882-.457-.43-.644.398-.934 1.106-.645 1.573.589.954-2.128 4.012-3.564 4.012-.511 0-.929-.45-.929-1s.402-1 .893-1 1.19-.787 1.554-1.75c.758-2.007 1.226-2.458-7.51 7.25-3.213 3.57-4.004 4.785-1.955 3 1.895-1.65 4.01-3.675 4.7-4.5s1.269-1.115 1.286-.644c.018.47-1.093 2.192-2.468 3.826s-2.5 3.837-2.5 4.895-.338 1.916-.75 1.908-5.475-4.454-11.25-9.879l-10.5-9.864 3.75-3.554c2.063-1.955 3.75-3.921 3.751-4.371.001-2.036 9.179-12.317 10.995-12.317 1.338 0 2.151-.879 2.545-2.75.714-3.396.858-3.638 6.739-11.3 4.387-5.716 4.665-6.401 3.38-8.339-2.431-3.668-4.285-3.01-9.335 3.311l-4.825 6.04-.608-7.9c-.461-5.997-1.247-8.992-3.262-12.43-1.459-2.491-3.098-4.803-3.642-5.139-.543-.336-.988-2.055-.988-3.819 0-3.736-6.088-25.009-8.481-29.638-3.125-6.043-7.496-1.684-7.482 7.464.007 5.392 2.331 11.494 6.417 16.851 3.636 4.767 3.189 6.65-.704 2.965-1.787-1.692-4.206-3.566-5.375-4.164-1.312-.672-3.341-4.105-5.304-8.977-3.288-8.155-7.43-13.245-12.258-15.065-2.378-.896-2.723-.76-3 1.189-.292 2.05-.758 2.178-6.813 1.872-3.575-.181-7.763.155-9.307.747s-2.559.674-2.255.183c.303-.491-.118-2.177-.937-3.747S64.995 34.825 64.974 34c-.029-1.144-.386-1.04-1.506.441C62.083 36.272 62 36.191 62 33.02c0-1.849.745-4.185 1.655-5.191 2.504-2.767.138-2.191-4.255 1.035m76.732 3.636c6.816 7.511 9.403 11.182 14.092 19.998 2.048 3.851 3.735 6.642 3.75 6.202.014-.439-.647-2.101-1.47-3.693-1.886-3.646-.861-4.428 5.996-4.574 2.75-.059 4.406.093 3.68.337-.937.315-.714.868.767 1.905 1.184.83 1.78 1.973 1.378 2.643-.39.65.078.543 1.039-.237.962-.781 1.651-1.006 1.532-.5-.396 1.682 3.765 9.422 4.659 8.665.483-.41.392-.071-.203.754-1.651 2.288-2.307 9.622-.994 11.109.877.994.736.988-.608-.03-.998-.755-1.75-.884-1.75-.3 0 1.459-6.535 5.127-7.769 4.36-.566-.351-1.246-1.539-1.511-2.639s-.31-.025-.101 2.39c.21 2.414.381 6.77.381 9.68v5.29l3.25-.915c11.357-3.198 16.26-10.53 15.606-23.34-.223-4.362-.837-6.583-2.15-7.779-1.01-.921-1.799-1.938-1.751-2.261.424-2.897-7.084-11.221-9.035-10.015-.739.456-.973.345-.587-.279 1.432-2.317-11.07-4.989-14.598-3.12-1.33.705-1.933.494-2.449-.858-.917-2.401-1.658-3.29-9.692-11.627-4.204-4.362-4.776-4.818-1.462-1.166m-79.445.305c-2.748 2.868-3.604 4.88-1.532 3.6.699-.433.883-.276.467.397-.377.611-1.289.879-2.025.597-3.272-1.256-2.824 6.874.476 8.64 1.434.768 2.075.554 2.888-.966 1.187-2.218.053-3.399-2.371-2.469-.874.335-1.59.112-1.59-.497 0-1.203.218-1.284 4.121-1.531 2.398-.151 2.555.067 1.842 2.554-.429 1.496-.575 2.924-.325 3.175s-.794.768-2.32 1.151c-2.161.543-3.16.222-4.511-1.446l-1.735-2.143-.645 2.566c-.75 2.988.25 7.884 1.458 7.138.454-.281.624.548.376 1.842-.519 2.717 1.541 4.509 2.835 2.465.479-.758.736-1.807.57-2.33-.438-1.385 4.901-7.582 10.147-11.778 1.863-1.49 2.003-2.079 1.014-4.25C64.556 36.731 63 36.169 63 38.5c0 1.803-1.956 2.035-2.103.25-.056-.687-.094-2.937-.084-5 .021-4.489-.596-4.63-4.126-.945M57.5 34c.34.55.816 1 1.059 1s.441-.45.441-1-.477-1-1.059-1-.781.45-.441 1m51.702 4.61c-.714.775-1.556 3.58-1.87 6.234-.623 5.262 1.616 11.772 6.054 17.601 1.279 1.68 2.631 4.019 3.003 5.197.767 2.425 4.611 3.959 4.611 1.841 0-3.442-2.427-11.337-3.317-10.787-.545.337-.686.118-.313-.486.924-1.495-2.376-14.324-3.504-13.627-.494.305-.65.957-.346 1.449.303.491-.771.797-2.387.681-1.659-.12-2.67-.648-2.323-1.212.339-.549.632-1.899.653-3 .024-1.28.668-1.951 1.787-1.862 2.046.162 2.279-.962.5-2.416-.875-.716-1.64-.599-2.548.387m-21.981 1.553c.442 1.325 3.779 2.081 3.779.856 0-.443-.712-1.078-1.582-1.412-2.247-.862-2.637-.764-2.197.556M92 41.878c0 .617.399 1.122.887 1.122.487 0 1.084 1.35 1.326 3s.069 3-.386 3-.827.745-.827 1.655c0 1.539-.128 1.539-1.831-.002-1.007-.912-2.036-1.453-2.286-1.203s-.554-.741-.675-2.203-.725-3.129-1.343-3.703c-1.538-1.428-.407 7.222 1.558 11.925 1.113 2.664 1.902 3.37 3.272 2.926 1.463-.473 1.528-.388.345.45-1.256.888-1.195 1.327.437 3.129 1.043 1.153 2.545 1.848 3.337 1.544s2.057-.04 2.813.587c1.043.866 1.373.83 1.373-.149 0-.709.27-1.019.6-.689s.29 1.102-.089 1.715c-.501.811-1.08.791-2.124-.076-.79-.655-1.762-.863-2.161-.462s.228 1.502 1.395 2.448c2.944 2.387 3.866 5.534 3.873 13.225.004 4.693-.339 6.486-1.181 6.167-.653-.247-.942-1.087-.643-1.867.299-.779.009-1.417-.645-1.417-1.065 0-1.073 1.061-.063 7.75.021.138.699.25 1.507.25.891 0 1.243.587.896 1.492-.326.85.114 1.755 1.026 2.104.878.338 1.351 1.013 1.049 1.5-.867 1.404 5.691 8.904 7.786 8.904 1.041 0 1.655.384 1.364.854-.681 1.102 3.801 3.146 6.898 3.146 1.317 0 2.715-.52 3.107-1.155.417-.674.277-.884-.336-.505-1.092.675-2.524-1.741-1.587-2.678.293-.294 1.604-.127 2.913.37 3.415 1.299 4.743-1.751 5.02-11.532.172-6.084-.235-9.054-1.7-12.402-2.451-5.6-7.415-10.459-9.995-9.785-1.052.275-1.661.092-1.352-.406.308-.499.031-.907-.616-.907-.683 0-.956.838-.652 2 .287 1.1.115 2-.384 2-.498 0-.906-.675-.906-1.5 0-.848-.895-1.5-2.059-1.5-1.132 0-1.807.408-1.499.907.309.498-.358.666-1.48.373-1.123-.294-1.824-.751-1.559-1.016.671-.671-2.382-8.295-9.583-23.933C94.821 42.99 92 39.798 92 41.878m87.705 13.594c1.477 3.01 2.852 5.304 3.057 5.099.449-.449-4.595-10.571-5.268-10.571-.26 0 .735 2.462 2.211 5.472M183.653 64c.348 1.375 1.25 4.075 2.005 6 1.174 2.995 1.29 3.083.803.61-.313-1.589-1.215-4.289-2.005-6-1.08-2.339-1.279-2.49-.803-.61m-77.388 2.127c.896 2.205 2.158 3.488 3.642 3.704 3.415.498 2.319-2.795-1.713-5.15l-3.3-1.927zM69 70.998c0 1.174.429 2.934.952 3.913 1.661 3.103 2.026 7.407.766 9.026-1.072 1.376-1.009 1.399.532.191 1.483-1.164 1.762-1.164 1.827 0 .174 3.126.834 4.833 3.008 7.773C77.345 93.606 78.711 95 79.121 95c.409 0 1.053.973 1.431 2.163.609 1.92.791 1.976 1.62.494.64-1.144.461-2.344-.572-3.817-1.686-2.408-.584-5.84 1.876-5.84 1.792 0 2.845 1.671 1.958 3.107-.491.794-.892.77-1.42-.085-.504-.814-.893-.594-1.231.699-.412 1.575-.038 1.823 2.243 1.489 2.239-.329 2.634-.794 2.174-2.556-.744-2.854-2.262-4.207-4.686-4.178-1.206.015-2.134-.762-2.362-1.976-.206-1.1-1.009-2.365-1.785-2.811-.775-.447-1.148-1.235-.828-1.752.32-.518-.492-1.349-1.804-1.848-2.446-.929-6.318-5.839-5.361-6.796 2.255-2.255 14.384 7.187 13.813 10.754-.172 1.074.192 1.953.809 1.953s.801-.52.409-1.155c-.457-.738-.273-.882.509-.398.672.415.972 1.408.666 2.206-.307.798-.135 1.19.381.871s1.238 1.02 1.605 2.975c.401 2.139 1.517 4.008 2.8 4.692 1.901 1.012 1.989.961.805-.475-.731-.886-1.555-3.042-1.83-4.792s-1.36-4.102-2.41-5.228c-1.049-1.127-2.169-2.869-2.487-3.872s-.886-1.826-1.261-1.829c-.376-.002-2.295-1.465-4.265-3.25s-4.22-3.29-5-3.345-2.431-.423-3.668-.818c-1.854-.591-2.25-.342-2.25 1.416m88.158.002c0 1.375.227 1.938.504 1.25.278-.687.278-1.812 0-2.5-.277-.687-.504-.125-.504 1.25m17.385-.069c-.317.512-.193 1.167.274 1.456s.85-.13.85-.931c0-1.686-.316-1.833-1.124-.525M120 74c0 .55-1.725 1-3.833 1-2.667 0-3.884.457-4 1.5l-.334 3c-.091.825-.516 1.5-.943 1.5-.428 0 .526 1.427 2.119 3.171 1.594 1.745 2.667 3.545 2.385 4s.234.829 1.146.829 2.921 1.353 4.466 3.006l2.808 3.007.343-5.654c.189-3.11-.198-6.938-.859-8.507s-.886-2.866-.5-2.882-.067-.479-1.006-1.027c-.943-.549-1.455-1.657-1.143-2.469.311-.811.292-1.474-.042-1.474s-.607.45-.607 1m67.079 1.583c.048 1.165.285 1.402.604.605.289-.722.253-1.585-.079-1.917s-.568.258-.525 1.312M50 76c0 .55.477 1 1.059 1s.781-.45.441-1-.816-1-1.059-1-.441.45-.441 1m65.309 1.458c-.891 1.557-.782 2.239.535 3.324.911.752 1.09 1.079.398.728-.992-.503-1.014-.104-.103 1.895.634 1.393 1.538 2.295 2.007 2.005s.854-.051.854.531.675 1.059 1.5 1.059c.944 0 1.5-.952 1.5-2.566 0-3.496-1.858-6.703-3.514-6.067-.764.293-1.513-.221-1.708-1.172-.307-1.501-.475-1.471-1.469.263m-42.304 2.101c-.007 2.882 2.59 6.213 3.853 4.941.658-.663.177-2.011-1.428-4-2.14-2.653-2.421-2.762-2.425-.941M42.242 80.75c-.199 3.835 1.981 12.263 3.754 14.518 1.034 1.314 2.195 3.704 2.58 5.311s1.049 3.371 1.477 3.921c.427.55.815 1.338.862 1.75s.117 1.088.155 1.5c.039.412.457-.15.93-1.25.82-1.908.863-1.897.93.25.038 1.237.419 2.25.847 2.25 1.224 0 .76-7.257-.626-9.778-.69-1.257-1.746-1.972-2.356-1.595-.638.394-.823.227-.437-.397.366-.593-.464-3.205-1.846-5.803C47.13 88.828 46 86.115 46 85.398 46 83.621 43.838 79 43.006 79c-.37 0-.714.787-.764 1.75m144.773-1c.009.412.452 1.425.985 2.25.784 1.213.972 1.069.985-.75.008-1.237-.435-2.25-.985-2.25s-.993.338-.985.75M166 83.393c0 .216.698.661 1.552.989.89.341 1.291.173.941-.393-.587-.951-2.493-1.406-2.493-.596M77 85.8c0 .44.563 1.395 1.25 2.122 1.032 1.092.857 1.121-1 .165-1.537-.79-2.25-.819-2.25-.091 0 .587.672 1.325 1.494 1.64.822.316 1.265.945.984 1.4s-.104 1.077.392 1.384c1.166.72 2.096-2.833 1.42-5.42-.502-1.919-2.29-2.856-2.29-1.2m27.429 1.2c0 1.1.381 2 .848 2s.751.787.632 1.75c-.37 2.99 1.118 5.1 6.261 8.875 3.978 2.92 5.197 3.388 6.146 2.362.918-.992.903-1.122-.066-.575-1.117.631-1.77-1.117-1.368-3.662.065-.412-.407-.75-1.049-.75s-.882-.284-.535-.631.006-1.524-.758-2.615-1.148-2.612-.853-3.38c.346-.903.037-1.205-.874-.856-.775.298-2.478-.597-3.785-1.989-2.86-3.043-4.599-3.243-4.599-.529m84.803 1c0 1.925.206 2.713.457 1.75.252-.963.252-2.537 0-3.5-.251-.963-.457-.175-.457 1.75m-51.318 7.25c-3.343 4.2-5.229 7.768-4.495 8.502.32.32.715.394.879.165s2.178-2.716 4.475-5.526c3.658-4.474 4.351-6.391 2.31-6.391-.321 0-1.747 1.463-3.169 3.25m20.232 3.25c-.095 1.65-.405 4.125-.688 5.5l-.514 2.5 1.075-2.465c.592-1.356.901-3.831.688-5.5l-.387-3.035zm-29.625 5.405c-.531 2.417-.308 3.737.824 4.869 1.404 1.404 1.503 1.321 1.03-.861-.507-2.337-.474-2.352 1.051-.472 1.55 1.911 1.574 1.909 1.574-.139 0-1.144-.844-3.123-1.875-4.397l-1.876-2.316zm60.25-.139c-.254.971-.113 2.659.314 3.75.59 1.511.791 1.09.845-1.766.075-4.018-.41-4.848-1.159-1.984M107 106.359c0 1.759 4.466 7.285 6.97 8.625 1.33.711 2.307.35 4.038-1.492l2.283-2.431-2.895-1.048c-1.593-.576-4.583-1.969-6.646-3.094-3.068-1.675-3.75-1.777-3.75-.56m49.446 1.728c-.369.598-.267 1.492.227 1.986.531.531.898.087.898-1.087 0-2.273-.185-2.42-1.125-.899M4.481 110.875c.286 1.856.519 4.084.519 4.95 0 1.063.329 1.246 1.013.562s.514-2.292-.519-4.95c-1.528-3.927-1.53-3.928-1.013-.562m120.401.875a5.7 5.7 0 0 0 0 1.5c.065.412-.444.764-1.132.781-1.875.048-5.151 4.968-4.045 6.074.96.96 7.295-6.029 7.295-8.046 0-1.192-1.934-1.474-2.118-.309m63.276 1.25c0 1.375.227 1.938.504 1.25.278-.687.278-1.812 0-2.5-.277-.687-.504-.125-.504 1.25m-1.079 4.583c.048 1.165.285 1.402.604.605.289-.722.253-1.585-.079-1.917s-.568.258-.525 1.312m-180.451.943c-.371.968-.439 1.996-.152 2.284s.54-.114.559-.893.679-.292 1.465 1.083 1.429 2.05 1.429 1.5-.591-2.065-1.312-3.367c-1.17-2.109-1.387-2.176-1.989-.607m142.612 6.78c-2.343 4.507-3.363 7.069-2.267 5.694s2.259-3.294 2.582-4.265c.324-.97 1.001-1.509 1.506-1.198.505.313.621-.203.258-1.149-.483-1.256-.304-1.497.666-.898.923.571 1.087.435.541-.447-.443-.718-.251-1.595.444-2.025.675-.417 1.07-1.466.878-2.332-.191-.867-2.263 2.109-4.608 6.62m-54.558-3.332c-1.867 1.639-3.796 2.655-4.288 2.258s.427.737 2.041 2.521c1.615 1.784 3.003 4.16 3.086 5.281s.74 2.584 1.461 3.251c1.032.956 1.161.949.606-.035-.478-.846.055-1.25 1.65-1.25 3.914 0 13.205 11.564 13.257 16.5.005.55.909 1.001 2.008 1.001 1.098.001 1.997.526 1.997 1.167s.41 1.54.91 1.999c.529.484.609.309.191-.417-.974-1.693.583-1.578 2.958.218 2.991 2.263 3.658 1.807 1.781-1.218-1.035-1.667-1.162-2.258-.323-1.5 2.374 2.145 3.433 1.366 1.36-1-4.606-5.256-4.906-6.268-.991-3.343 4.727 3.53 3.806 1.733-3.096-6.039a496 496 0 0 1-10.336-12.118c-2.82-3.437-5.453-6.25-5.852-6.25s-1.692-.901-2.875-2.003l-2.15-2.003zM7.121 123c-.017.825.587 2.85 1.343 4.5 1.768 3.862 1.794 2.066.036-2.5-.741-1.925-1.362-2.825-1.379-2m177.379 2c-.34.55-.141 1 .441 1s1.059-.45 1.059-1-.198-1-.441-1-.719.45-1.059 1m-172.628 2.5c.54 1.1 1.714 2.9 2.61 4l1.628 2-.982-2c-.54-1.1-1.714-2.9-2.61-4l-1.628-2zm-1.208 5.332c.185.732.336 1.546.336 1.809s.45.199 1-.141 1-1.068 1-1.618-.412-.746-.915-.435-1.104.225-1.336-.191-.27-.157-.085.576m158.669.624c0 .801.383 1.22.85.931s.591-.944.274-1.456c-.808-1.308-1.124-1.161-1.124.525M16 134.378c0 .207.788.995 1.75 1.75 1.586 1.243 1.621 1.208.378-.378-1.307-1.666-2.128-2.195-2.128-1.372m83 1.087c0 1.012 6.399 7.678 8.387 8.737 1.969 1.049 2.015.995.665-.788-4.248-5.615-9.052-9.834-9.052-7.949m-75.498 7.579c2.749 3.049 6.123 6.276 7.498 7.172s3.962 2.608 5.75 3.804c1.788 1.197 3.25 1.967 3.25 1.711s-1.913-1.726-4.25-3.268-7.174-5.539-10.748-8.883l-6.499-6.08zM16 144c.589 1.1 1.295 2 1.57 2s.019-.9-.57-2-1.295-2-1.57-2-.019.9.57 2m2.593 4c3.478 7.034 19.523 22.937 27.566 27.321 1.838 1.002 2.54 1.167 1.562.368-1.541-1.258-1.575-1.531-.25-2.039.841-.323 1.529-.103 1.529.488 0 .592.565.859 1.255.594.691-.265 2.062.587 3.047 1.893 1.955 2.591 1.607 2.932-1.368 1.34-1.064-.57-1.934-.765-1.934-.435 0 .665 14.389 7.489 15.684 7.438.449-.017.135-.58-.698-1.25-.832-.67-2.371-2.568-3.42-4.218-1.89-2.974-4.538-5.385-5.637-5.132-.315.073-1.359-.655-2.322-1.618-1.26-1.26-3.356-1.75-7.485-1.75-5.724 0-5.748-.013-12.713-6.75-3.838-3.713-8.313-8.511-9.944-10.663-4.51-5.953-5.763-7.389-4.872-5.587M172 151c-1.175 1.65-1.911 3-1.636 3s1.461-1.35 2.636-3 1.911-3 1.636-3-1.461 1.35-2.636 3m-12 13.258c-5.225 5.044-7.7 7.759-5.5 6.034 3.972-3.116 16.366-15.332 15.469-15.248-.258.024-4.744 4.171-9.969 9.214M41 156.49c0 .685 6.123 3.72 6.58 3.263.217-.217-1.174-1.143-3.093-2.058-1.918-.914-3.487-1.456-3.487-1.205m66.5 5.046c-1.65.756-2.325 1.378-1.5 1.383s2.625-.633 4-1.419c3.162-1.807 1.473-1.783-2.5.036M52 162c.825.533 2.175.945 3 .914.989-.036.819-.347-.5-.914-2.749-1.181-4.328-1.181-2.5 0m48 1.896c-2.059.573-2.201.811-.802 1.349.933.358 2.382 1.975 3.218 3.592 1.437 2.779 1.39 3.07-.854 5.301-3.937 3.917-5.562 5.044-5.562 3.856 0-.706-1.272-.846-3.645-.401-2.61.49-3.444.361-2.941-.455.387-.626.245-1.138-.316-1.138-1.378 0-5.099-4.011-6.106-6.583-.871-2.224-.871-2.224-8.492-2.945-3.802-.359-4.461-.241-2.75.495 1.259.542 2.25 1.848 2.25 2.966 0 2.793 5.525 8.783 10.405 11.281 3.868 1.98 10.744 2.734 14.888 1.633.986-.262 3.123-1.645 4.75-3.072 3.378-2.964 4.071-8.519 1.396-11.194-.859-.858-1.63-2.465-1.713-3.571-.083-1.105-.393-1.965-.689-1.91s-1.662.413-3.037.796m-39.187.787c.721.289 1.584.253 1.916-.079s-.258-.568-1.312-.525c-1.165.048-1.402.285-.604.604M64 165.906c0 .499.9.671 2 .384s2-.696 2-.907c0-.21-.9-.383-2-.383s-2 .408-2 .906m29 0c0 .499.9.671 2 .384s2-.696 2-.907c0-.21-.9-.383-2-.383s-2 .408-2 .906m-8.25.8c1.237.238 3.263.238 4.5 0 1.237-.239.225-.434-2.25-.434s-3.487.195-2.25.434M138.5 170c-.34.55-.141 1 .441 1s1.059-.45 1.059-1-.198-1-.441-1-.719.45-1.059 1M79 175.393c0 .216.698.661 1.552.989.89.341 1.291.173.941-.393-.587-.951-2.493-1.406-2.493-.596M136 181c-.901.582-1.025.975-.309.985.655.008 1.469-.435 1.809-.985.767-1.242.421-1.242-1.5 0m-5 2c-.825.533-1.05.969-.5.969s1.675-.436 2.5-.969 1.05-.969.5-.969-1.675.436-2.5.969m-5.5 2c-1.319.567-1.489.878-.5.914.825.031 2.175-.381 3-.914 1.828-1.181.249-1.181-2.5 0m-54.687 1.683c.721.289 1.584.253 1.916-.079s-.258-.568-1.312-.525c-1.165.048-1.402.285-.604.604m3.584.484c-.283.458.16.833.985.833s1.732-.375 2.015-.833c.283-.459-.16-.834-.985-.834s-1.732.375-2.015.834m42.353.495c.688.278 1.813.278 2.5 0 .688-.277.125-.504-1.25-.504s-1.937.227-1.25.504m-38 1c.688.278 1.813.278 2.5 0 .688-.277.125-.504-1.25-.504s-1.937.227-1.25.504m33 0c.688.278 1.813.278 2.5 0 .688-.277.125-.504-1.25-.504s-1.937.227-1.25.504m-25.5 1.027c.963.252 2.537.252 3.5 0 .963-.251.175-.457-1.75-.457s-2.713.206-1.75.457m18 0c.963.252 2.537.252 3.5 0 .963-.251.175-.457-1.75-.457s-2.713.206-1.75.457"/><path fill-opacity=".53" fill-rule="evenodd" d="M93.768 3.725c1.797.222 4.497.218 6-.01 1.503-.229.032-.411-3.268-.405s-4.529.192-2.732.415m-10.499.968c.973.254 2.323.237 3-.037s-.119-.481-1.769-.461-2.204.244-1.231.498m24.481-.031c.688.278 1.813.278 2.5 0 .688-.277.125-.504-1.25-.504s-1.937.227-1.25.504M77.813 5.683c.721.289 1.584.253 1.916-.079s-.258-.568-1.312-.525c-1.165.048-1.402.285-.604.604m36 0c.721.289 1.584.253 1.916-.079s-.258-.568-1.312-.525c-1.165.048-1.402.285-.604.604m5 1c.721.289 1.584.253 1.916-.079s-.258-.568-1.312-.525c-1.165.048-1.402.285-.604.604m-49 1c.721.289 1.584.253 1.916-.079s-.258-.568-1.312-.525c-1.165.048-1.402.285-.604.604M64 10.094c0 .498.9.906 2 .906s2-.173 2-.383-.9-.619-2-.907c-1.1-.287-2-.115-2 .384m7.762-.387c1.244.239 3.044.23 4-.02s-.062-.446-2.262-.435-2.982.216-1.738.455m14 0c1.244.239 3.044.23 4-.02s-.062-.446-2.262-.435-2.982.216-1.738.455M57.5 12.072c-2.2 1.058-2.875 1.639-1.5 1.292 3.814-.963 7-2.255 7-2.839 0-.848-1.253-.496-5.5 1.547m36.313-1.389c.721.289 1.584.253 1.916-.079s-.258-.568-1.312-.525c-1.165.048-1.402.285-.604.604M132 11c.825.533 1.95.969 2.5.969s.325-.436-.5-.969-1.95-.969-2.5-.969-.325.436.5.969m-33.187.683c.721.289 1.584.253 1.916-.079s-.258-.568-1.312-.525c-1.165.048-1.402.285-.604.604M109 15c.825.533 1.95.969 2.5.969s.325-.436-.5-.969-1.95-.969-2.5-.969-.325.436.5.969m31-.551c0 .275 1.35 1.198 3 2.051s3 1.326 3 1.051-1.35-1.198-3-2.051-3-1.326-3-1.051m10 5.929c0 .207.787.995 1.75 1.75 1.586 1.243 1.621 1.208.378-.378-1.307-1.666-2.128-2.195-2.128-1.372M155.5 25c.995 1.1 2.035 2 2.31 2s-.315-.9-1.31-2-2.035-2-2.31-2 .315.9 1.31 2m-28.5-.622c0 .207.787.995 1.75 1.75 1.586 1.243 1.621 1.208.378-.378-1.307-1.666-2.128-2.195-2.128-1.372m-68.012 5.029c-5.835 4.243-6.723 5.397-9.046 11.751-2.548 6.973-2.45 10.5.454 16.236C53.526 63.576 53.032 70 49.427 70c-2.608 0-3.427.988-4.484 5.413-.567 2.369-.762 2.564-.841.837-.168-3.697-1.876-2.548-2.602 1.75-.926 5.481.231 11.468 3.478 18 1.504 3.025 3.035 6.749 3.404 8.275s1.568 3.675 2.666 4.773c1.632 1.632 2.381 1.793 4.087.879 1.781-.952 1.995-1.713 1.447-5.141-.577-3.605-.458-3.941 1.137-3.227.98.437 3.865.981 6.412 1.207 3.814.338 4.885.05 6.065-1.636 1.371-1.957 1.673-1.983 6.869-.6 2.989.795 6.346 1.452 7.458 1.458 1.192.007 5.304 3.314 10 8.043 4.388 4.418 9.667 9.206 11.733 10.641 3.025 2.101 3.529 2.883 2.587 4.017-.972 1.171-1.863.726-5.294-2.64-2.268-2.227-4.636-4.049-5.26-4.049-.625 0-2.528 1.172-4.231 2.605l-3.095 2.604-3.415-2.604c-4.531-3.457-5.165-3.285-2.383.645l2.3 3.25-4.482-3.435c-7.658-5.869-7.345-5.67-6.896-4.37.371 1.074 5.53 6.468 38.793 40.555 10.144 10.395 11.314 10.949 17.586 8.329 3.215-1.344 6.534-5.831 6.534-8.833 0-.745-1.58-2.885-3.511-4.757l-3.512-3.403 5.262-5.543 5.261-5.543-5.617 5.334-5.617 5.335-8.883-8.591-8.883-8.591 3.75-3.35c2.063-1.842 3.75-3.751 3.751-4.243.001-2.014 9.136-12.394 10.907-12.394 1.946 0 3.514-2.509 2.546-4.075-.304-.491 1.71-3.613 4.476-6.936 6.837-8.216 7.299-9.217 5.466-11.834-2.329-3.325-3.949-2.645-9.118 3.826l-4.778 5.981-.596-7.733c-.621-8.054-2.237-12.411-5.802-15.636-1.352-1.224-2.102-3.118-2.102-5.309 0-3.982-6.019-25.486-8.448-30.184-3.435-6.643-7.843-1.478-7.302 8.555.33 6.098.542 6.592 7.781 18.05 1.815 2.871.377 4.322-1.553 1.567-.812-1.16-3.018-3.061-4.903-4.226-2.643-1.633-4.051-3.71-6.162-9.09-3.133-7.987-8.064-14.29-12.345-15.782-2.623-.915-2.982-.797-3.258 1.071-.287 1.942-.967 2.105-9.065 2.177l-8.755.078-1.495-3.151C65.673 36.616 65 34.613 65 33.899c0-.934-.305-.994-1.085-.214s-.386 2.193 1.402 5.025l2.487 3.94-3.498 1.884c-3.79 2.042-8.785 8.544-9.864 12.839-.505 2.012-.987 2.42-1.933 1.635-1.871-1.553-3.842-9.544-3.092-12.534l.655-2.607 1.776 2.193c1.277 1.578 2.376 2.004 3.913 1.516 2.888-.917 3.88-4.364 1.842-6.402-1.471-1.47-1.74-1.465-3.266.061-1.552 1.551-1.525 1.627.387 1.127 2.772-.725 3.909 1.44 1.83 3.484-1.568 1.541-1.816 1.492-3.619-.707C51.871 43.841 51 41.918 51 40.867 51 38.939 58.508 30 60.127 30c.48 0 .873 2.25.873 5 0 2.778.46 5 1.034 5 .663 0 .797-1.793.372-4.993-.455-3.431-.264-5.473.609-6.525 2.319-2.795.519-2.382-4.027.925M135.5 32c2.709 2.75 5.15 5 5.425 5s-1.716-2.25-4.425-5-5.15-5-5.425-5 1.716 2.25 4.425 5m27.5-.5c1.292 1.375 2.574 2.5 2.849 2.5s-.557-1.125-1.849-2.5-2.574-2.5-2.849-2.5.557 1.125 1.849 2.5m5 6c1.292 1.375 2.574 2.5 2.849 2.5s-.557-1.125-1.849-2.5-2.574-2.5-2.849-2.5.557 1.125 1.849 2.5m-59.378 1.63c-2.864 4.088-2.102 11.503 1.887 18.37 1.917 3.3 4.228 7.427 5.136 9.172 2.048 3.935 5.355 5.153 5.355 1.972 0-3.627-7.67-28.742-9.265-30.337-1.323-1.323-1.676-1.23-3.113.823m36.988 5.37c2.526 3.85 4.843 7.225 5.148 7.5 1.559 1.406-4.548-8.505-6.949-11.276-1.536-1.773-.726-.074 1.801 3.776m-58.98-3.25c-1.894 7.069.971 15.005 8.364 23.162 6.5 7.173 7.677 9.827 6.035 13.612-1.073 2.472-1.074 2.471-.531-.283.717-3.635-1.407-7.551-7.517-13.857C87.951 58.693 85 52.045 85 45.906c0-2.415-.471-2.81-4.08-3.42-14.183-2.396-26.677 8.508-27.219 23.754-.19 5.349-.329 5.637-2.464 5.103-1.245-.312-2.932-.011-3.75.668-3.42 2.838-.611 16.053 4.963 23.356 1.869 2.448 3.229 4.621 3.022 4.828-.524.524 2.09.861 8.528 1.1 5.324.198 5.51.116 5.818-2.565.186-1.618-.952-5.359-2.737-9-2.123-4.328-2.45-5.51-1.072-3.873 1.092 1.296 2.758 4.535 3.704 7.197 1.686 4.749 1.839 4.873 8.017 6.546 3.464.937 6.579 1.424 6.922 1.082.342-.343-1.672-2.774-4.478-5.403-3.468-3.249-5.557-6.219-6.528-9.279-3.821-12.042-4.888-16.092-4.373-16.606.951-.951 9.133 3.145 12.917 6.468 3.547 3.114 6.241 7.669 7.845 13.26.454 1.583.5 2.878.103 2.878-.398 0-1.294-2.138-1.992-4.75-1.459-5.462-9.568-14.156-14.955-16.034-4.619-1.61-4.209.571 1.265 6.735 2.451 2.76 4.942 5.925 5.536 7.033S81.899 87 82.913 87c2.369 0 4.478 2.537 3.73 4.487-.635 1.656-3.643 2.105-3.643.544 0-.532.675-.709 1.5-.393.957.368 1.5-.017 1.5-1.062 0-2.315-2.868-3.136-4.668-1.337-1.349 1.35-1.339 1.847.097 4.624 2.516 4.864 22.735 24.618 28.701 28.039 10.693 6.132 11.804 2.346 2.045-6.969-4.848-4.629-6.175-6.531-6.175-8.855 0-1.628-.459-3.243-1.019-3.59-.56-.346-2.185-2.96-3.61-5.809-1.426-2.848-3.52-6.192-4.656-7.429S95.166 87 95.794 87c.629 0 .937-.562.685-1.25-.711-1.94 1.139-4.111 2.92-3.427 1.72.66 2.239 3.677.632 3.677-.532 0-.709-.675-.393-1.5.675-1.758-1.187-2.039-2.238-.338-.404.654.228 1.928 1.446 2.915 1.191.964 1.713 1.903 1.161 2.088-1.21.404 2.447 8.341 5.404 11.726 3.497 4.002 10.731 8.109 14.285 8.109 3.728 0 4.089-.633 1.554-2.721-1.651-1.361-1.644-1.408.127-.843 1.032.329 2.581.028 3.442-.669 1.223-.99 1.401-.994.814-.017-.413.688-.477 1.25-.141 1.25 1.525 0 3.508-7.528 3.508-13.319 0-7.403-1.28-11.84-4.77-16.537-3.4-4.576-8.23-6.514-12.972-5.205-2.005.554-3.743.906-3.863.784-.12-.123-2.074-4.885-4.342-10.583-5.822-14.624-7.691-17.949-11.343-20.175-4.05-2.47-4.346-2.453-5.08.285m22.981.322c-.656 1.71.932 5.428 2.317 5.428 1.394 0 1.871-2.333.973-4.75-.974-2.621-2.43-2.92-3.29-.678m63.852 3.178c1.541 2.337 2.993 4.25 3.226 4.25.722 0-3.107-6.086-4.609-7.327-.781-.645-.159.74 1.383 3.077m-84.796-2.083c-1.201 1.2-.699 5.061.82 6.322C91.573 50.72 94 49.505 94 46.731c0-3.529-3.33-6.067-5.333-4.064m91.028 12.82c.915 1.919 1.841 3.31 2.058 3.093.457-.457-2.578-6.58-3.263-6.58-.251 0 .291 1.569 1.205 3.487M151.071 53.5c0 .55.643 2.125 1.429 3.5s1.429 2.05 1.429 1.5-.643-2.125-1.429-3.5-1.429-2.05-1.429-1.5m-44.824 12.954c.853 2.777 1.61 3.546 3.494 3.546 3.381 0 2.599-2.897-1.415-5.241l-3.167-1.85zm50.832 5.129c.048 1.165.285 1.402.604.605.289-.722.253-1.585-.079-1.917s-.568.258-.525 1.312m1.116 4.917c.02 1.65.244 2.204.498 1.231s.237-2.323-.037-3-.481.119-.461 1.769m28.884-.917c.048 1.165.285 1.402.604.605.289-.722.253-1.585-.079-1.917s-.568.258-.525 1.312m-74.472.999c-1.795 4.676-.358 7.373 7.509 14.093.531.454 1.543 1.667 2.25 2.696 1.106 1.611 1.298.927 1.387-4.939.108-7.127-1.43-11.71-4.298-12.811-2.913-1.118-6.229-.653-6.848.961m1.748.936c-1.271 3.311 3.011 9.482 6.579 9.482 2.095 0 1.113-6.044-1.389-8.545-2.82-2.821-4.361-3.099-5.19-.937M73.04 80.141c.502 1.749 1.935 4.304 3.186 5.679 1.799 1.978 1.909 2.369.524 1.872-.963-.346-1.75-.293-1.75.117C75 88.966 78.02 93 78.887 93c1.85 0 .339-7.066-2.336-10.926-3.719-5.367-4.641-5.875-3.511-1.933M42.426 84.25c.375 2.888 2.008 7.986 3.628 11.329S49 101.931 49 102.264s.476 1.857 1.057 3.387c.847 2.227 1.243 2.489 1.985 1.315.776-1.226.93-1.18.943.284.008.963.423 1.75.921 1.75s.685-1.013.414-2.25c-.397-1.808-.283-1.955.578-.75 1.475 2.065 1.411-.189-.105-3.703-.663-1.538-2.382-4.597-3.819-6.797-1.438-2.2-3.145-5.463-3.794-7.25-2.965-8.164-3.485-9.25-4.43-9.25-.636 0-.755 1.938-.324 5.25m145.653-3.667c.048 1.165.285 1.402.604.605.289-.722.253-1.585-.079-1.917s-.568.258-.525 1.312m-138.412.084c-1.299 1.299-.633 5.877 1.322 9.083 2.621 4.299 3.275 4.127 1.398-.367C50.726 85.408 51.122 83 53.437 83c.923 0 1.279-.578.925-1.5-.587-1.528-3.486-2.042-4.695-.833M159.32 88c0 3.575.182 5.037.403 3.25s.222-4.713 0-6.5c-.221-1.787-.403-.325-.403 3.25m-53.814.56c1.136 6.696 1.46 7.244 6.431 10.893 2.657 1.951 5.102 3.547 5.432 3.547s-.326-2.362-1.461-5.25c-1.887-4.802-4.303-7.863-9.239-11.704-1.724-1.342-1.792-1.196-1.163 2.514m83.726-.56c0 1.925.206 2.713.457 1.75.252-.963.252-2.537 0-3.5-.251-.963-.457-.175-.457 1.75m-82.153 4.583c.048 1.165.285 1.402.604.605.289-.722.253-1.585-.079-1.917s-.568.258-.525 1.312m29.555 4.081c-3.403 4.368-4.607 7.408-2.884 7.28 1.24-.092 9.202-10.658 8.535-11.326-1.192-1.192-2.047-.58-5.651 4.046m-23.555-.081c.048 1.165.285 1.402.604.605.289-.722.253-1.585-.079-1.917s-.568.258-.525 1.312m45.116 2.917c.02 1.65.244 2.204.498 1.231s.237-2.323-.037-3-.481.119-.461 1.769m-29.719 4.611c-.489 2.226-.228 3.566.92 4.714 1.126 1.125 1.604 1.224 1.604.33 0-.7.45-.995 1-.655 1.351.835 1.264-1.826-.161-4.953-1.539-3.38-2.534-3.213-3.363.564m28.603.472c.048 1.165.285 1.402.604.605.289-.722.253-1.585-.079-1.917s-.568.258-.525 1.312M189.232 106c0 1.925.206 2.713.457 1.75.252-.963.252-2.537 0-3.5-.251-.963-.457-.175-.457 1.75m-82.232.593c0 .903 1.813 3.455 4.029 5.672l4.029 4.029 2.471-2.321c2.914-2.738 3.136-3.973.713-3.973-.967 0-3.892-1.136-6.5-2.524-4.039-2.151-4.742-2.281-4.742-.883M4.481 110.875c.286 1.856.519 4.084.519 4.95 0 1.063.329 1.246 1.013.562s.514-2.292-.519-4.95c-1.528-3.927-1.53-3.928-1.013-.562m118.266 3.108c-3.888 4.542-4.335 5.536-2.891 6.428 1.265.782 7.334-7.185 6.959-9.134-.24-1.244-1.28-.552-4.068 2.706m65.411-.983c0 1.375.227 1.938.504 1.25.278-.687.278-1.812 0-2.5-.277-.687-.504-.125-.504 1.25M6.616 118.559c-.365.95-.427 1.963-.14 2.251.288.288.531-.114.539-.893.013-1.167.187-1.152.985.083.533.825.969 1.05.969.5s-.38-1.6-.845-2.334c-.67-1.057-.983-.976-1.508.393m145.546.984c-1.675 3.677-1.355 4.462.456 1.119.846-1.562 1.351-3.026 1.123-3.255-.229-.228-.939.733-1.579 2.136m-56.336 1.04c-1.424.746-2.864 2.074-3.2 2.95-.36.936-1.131 1.295-1.869.869-.691-.398-.232.403 1.02 1.78s2.481 3.563 2.73 4.856 1.2 3.051 2.114 3.906c.913.856 1.346.994.961.306-1.387-2.478 3.349-1.249 6.772 1.756 3.14 2.757 7.082 9.081 7.165 11.494.058 1.712 1.421 3.324 4.761 5.631l3.22 2.224-2.5-2.84-2.5-2.841 4.75 3.211c2.612 1.766 4.75 2.766 4.75 2.222s-.45-1.267-1-1.607-1-1.052-1-1.582 1.237-.192 2.75.751l2.75 1.715-2.55-2.942c-5.207-6.007-5.651-7.088-1.7-4.139 2.063 1.539 3.75 2.547 3.75 2.24 0-1.073-24.078-28.364-26.321-29.834-1.931-1.265-2.644-1.283-4.853-.126M148.5 127c-.853 1.65-1.326 3-1.051 3s1.198-1.35 2.051-3 1.326-3 1.051-3-1.198 1.35-2.051 3M12 128c.589 1.1 1.295 2 1.57 2s.019-.9-.57-2-1.295-2-1.57-2-.019.9.57 2m170.624 3.539c-.965 2.514-.681 3.163.498 1.136.584-1.004.851-2.036.593-2.293-.257-.258-.749.263-1.091 1.157M16 134.378c0 .207.788.995 1.75 1.75 1.586 1.243 1.621 1.208.378-.378-1.307-1.666-2.128-2.195-2.128-1.372m126.872 1.372c-1.243 1.586-1.208 1.621.378.378 1.666-1.307 2.195-2.128 1.372-2.128-.207 0-.995.787-1.75 1.75m-42.989 1c1.446 2.655 8.004 8.696 8.693 8.008.333-.333-1.293-2.665-3.613-5.182-4.273-4.636-6.845-6.067-5.08-2.826M24 143.5c2.987 3.025 5.657 5.5 5.932 5.5s-1.945-2.475-4.932-5.5-5.657-5.5-5.932-5.5 1.945 2.475 4.932 5.5m-8 .5c.589 1.1 1.295 2 1.57 2s.019-.9-.57-2-1.295-2-1.57-2-.019.9.57 2m160 1c-.589 1.1-.845 2-.57 2s.981-.9 1.57-2 .845-2 .57-2-.981.9-1.57 2m-143.817 5.565c.926 1.064 3.176 2.786 5 3.827 3.915 2.233 2.883 1.125-2.683-2.882-2.327-1.675-3.296-2.07-2.317-.945m138.689 2.185c-1.243 1.586-1.208 1.621.378.378 1.666-1.307 2.195-2.128 1.372-2.128-.207 0-.995.787-1.75 1.75M23.5 155c.995 1.1 2.035 2 2.31 2s-.315-.9-1.31-2-2.035-2-2.31-2 .315.9 1.31 2m138.5 7.5c-4.097 4.125-7.225 7.5-6.95 7.5s3.853-3.375 7.95-7.5 7.225-7.5 6.95-7.5-3.853 3.375-7.95 7.5m-117.559-4.055c1.068.855 2.38 1.555 2.917 1.555 1.27 0 .703-.462-2.358-1.92-2.357-1.122-2.389-1.102-.559.365m-14.483 3.805c4.144 4.415 5.042 5.209 5.042 4.458 0-.16-2.138-2.298-4.75-4.75L25.5 157.5zM52 162c.825.533 2.175.945 3 .914.989-.036.819-.347-.5-.914-2.749-1.181-4.328-1.181-2.5 0m46.813 2.683c.721.289 1.584.253 1.916-.079s-.258-.568-1.312-.525c-1.165.048-1.402.285-.604.604m-34 1c.721.289 1.584.253 1.916-.079s-.258-.568-1.312-.525c-1.165.048-1.402.285-.604.604m30 0c.721.289 1.584.253 1.916-.079s-.258-.568-1.312-.525c-1.165.048-1.402.285-.604.604m-23.063 1.023c1.237.238 3.263.238 4.5 0 1.237-.239.225-.434-2.25-.434s-3.487.195-2.25.434m13 0c1.237.238 3.263.238 4.5 0 1.237-.239.225-.434-2.25-.434s-3.487.195-2.25.434M37.5 169c.995 1.1 2.035 2 2.31 2s-.315-.9-1.31-2-2.035-2-2.31-2 .315.9 1.31 2m114.372 2.75c-1.243 1.586-1.208 1.621.378.378 1.666-1.307 2.195-2.128 1.372-2.128-.207 0-.995.787-1.75 1.75M41 171.378c0 .207.788.995 1.75 1.75 1.586 1.243 1.621 1.208.378-.378-1.307-1.666-2.128-2.195-2.128-1.372m103.441 5.177c-1.864 1.494-1.852 1.512.309.465 1.238-.6 2.25-1.3 2.25-1.555 0-.765-.519-.544-2.559 1.09M50 177.494c0 .673 10.122 5.717 10.571 5.268.205-.205-2.089-1.58-5.099-3.057S50 177.234 50 177.494m20.813 9.189c.721.289 1.584.253 1.916-.079s-.258-.568-1.312-.525c-1.165.048-1.402.285-.604.604m4 1c.721.289 1.584.253 1.916-.079s-.258-.568-1.312-.525c-1.165.048-1.402.285-.604.604m43 0c.721.289 1.584.253 1.916-.079s-.258-.568-1.312-.525c-1.165.048-1.402.285-.604.604m-39.063.979c.688.278 1.813.278 2.5 0 .688-.277.125-.504-1.25-.504s-1.937.227-1.25.504m34.063.021c.721.289 1.584.253 1.916-.079s-.258-.568-1.312-.525c-1.165.048-1.402.285-.604.604m-26.563 1.006c.963.252 2.537.252 3.5 0 .963-.251.175-.457-1.75-.457s-2.713.206-1.75.457m18 0c.963.252 2.537.252 3.5 0 .963-.251.175-.457-1.75-.457s-2.713.206-1.75.457"/><path fill-opacity=".475" fill-rule="evenodd" d="M95.25 3.689c.963.252 2.537.252 3.5 0 .963-.251.175-.457-1.75-.457s-2.713.206-1.75.457M83.269 4.693c.973.254 2.323.237 3-.037s-.119-.481-1.769-.461-2.204.244-1.231.498m24.481-.031c.688.278 1.813.278 2.5 0 .688-.277.125-.504-1.25-.504s-1.937.227-1.25.504M77.813 5.683c.721.289 1.584.253 1.916-.079s-.258-.568-1.312-.525c-1.165.048-1.402.285-.604.604m36 0c.721.289 1.584.253 1.916-.079s-.258-.568-1.312-.525c-1.165.048-1.402.285-.604.604m5 1c.721.289 1.584.253 1.916-.079s-.258-.568-1.312-.525c-1.165.048-1.402.285-.604.604M64 10.031c0 .533.675.969 1.5.969s1.5-.177 1.5-.393-.675-.652-1.5-.969-1.5-.139-1.5.393m7.762-.324c1.244.239 3.044.23 4-.02s-.062-.446-2.262-.435-2.982.216-1.738.455m14 0c1.244.239 3.044.23 4-.02s-.062-.446-2.262-.435-2.982.216-1.738.455M59.441 11.45c-1.875 1.401-1.864 1.431.309.884 1.237-.312 2.25-.965 2.25-1.451 0-1.19-.295-1.124-2.559.567M140 14.43c0 .275.9.981 2 1.57s2 .845 2 .57-.9-.981-2-1.57-2-.845-2-.57m10 5.948c0 .207.787.995 1.75 1.75 1.586 1.243 1.621 1.208.378-.378-1.307-1.666-2.128-2.195-2.128-1.372m4 3c0 .207.787.995 1.75 1.75 1.586 1.243 1.621 1.208.378-.378-1.307-1.666-2.128-2.195-2.128-1.372m-27 1c0 .207.787.995 1.75 1.75 1.586 1.243 1.621 1.208.378-.378-1.307-1.666-2.128-2.195-2.128-1.372m-68.23 5.18c-5.659 4.107-7.282 6.434-9.356 13.421-1.773 5.968-1.291 10.763 1.576 15.686 1.323 2.274 1.688 4.316 1.295 7.25-.462 3.443-.912 4.085-2.858 4.085-2.764 0-3.526 1.075-4.487 6.329-.584 3.19-.167 5.364 2.094 10.919 1.552 3.815 3.485 7.682 4.295 8.594 1.619 1.824 4.68 8.746 4.656 10.53-.009.62-.488.453-1.066-.372-.822-1.174-.913-1.011-.417.75.372 1.323.193 2.25-.435 2.25-.587 0-1.074-.787-1.082-1.75-.012-1.391-.196-1.466-.893-.365-.703 1.111-1.096.976-1.985-.684-.609-1.138-1.107-2.626-1.107-3.306s-1.325-3.973-2.946-7.316C42.854 88.974 40.939 79 42.871 79c1.276 0 1.554-3.619.337-4.372-1.051-.649-1.578 2.636-1.508 9.409.041 4.061.851 7.128 3.034 11.5 1.638 3.28 3.279 7.212 3.648 8.738.368 1.527 1.568 3.675 2.666 4.773 1.632 1.632 2.381 1.793 4.087.879 1.781-.952 1.995-1.713 1.447-5.141-.577-3.605-.458-3.941 1.137-3.227.98.437 3.865.981 6.412 1.207 3.814.338 4.885.05 6.065-1.636 1.371-1.957 1.673-1.983 6.869-.6 2.989.795 6.346 1.452 7.458 1.458 1.192.007 5.304 3.314 10 8.043 4.388 4.418 9.667 9.206 11.733 10.641 3.025 2.101 3.529 2.883 2.587 4.017-.971 1.171-1.87.719-5.33-2.676-4.485-4.402-6.018-4.51-10.23-.72l-2.218 1.994-3.466-2.643c-4.339-3.31-5.101-3.339-2.987-.113.913 1.392 1.9 2.291 2.194 1.997s1.591.157 2.882 1.003c2.119 1.389 2.407 1.385 2.951-.033.332-.865 1.898-2.241 3.48-3.06l2.877-1.487 8.485 8.146c4.668 4.481 8.199 8.612 7.848 9.18s-.175.746.392.396c1.296-.802 14.491 11.176 13.707 12.443-.317.513-.175.81.315.659.491-.151 2.577 1.198 4.635 2.997 2.963 2.591 3.602 3.737 3.067 5.5-1.085 3.582-4.503 6.648-8.178 7.338-2.945.552-3.879.189-6.801-2.643-1.864-1.806-3.111-3.732-2.773-4.28s.176-.724-.362-.392c-.538.333-4.534-2.973-8.881-7.345-4.347-4.373-7.421-7.95-6.832-7.95s1.887.9 2.882 2c2.296 2.538 3.5 2.544 3.5.018 0-2.446-8.036-11.018-10.329-11.018-2.133 0-2.138 1.826-.01 4.177.913 1.01 1.444 2.051 1.18 2.316-.265.264-3.326-2.45-6.803-6.031-3.477-3.582-6.043-6.79-5.704-7.129.34-.34 1.39.009 2.333.774 1.032.838.779.114-.635-1.818-1.292-1.766-2.75-2.963-3.24-2.661-.489.303-.305 1.297.409 2.211 1.157 1.479 1.111 1.514-.419.315-.945-.74-1.62-1.703-1.5-2.141.263-.96-8.525-8.103-9.173-7.455-.25.25 5.648 6.64 13.107 14.199 7.459 7.558 14.757 15.093 16.218 16.743 9.114 10.297 19.166 19.5 21.299 19.5 4.091 0 9.08-2.738 10.701-5.872 2.222-4.296 2.006-5.309-1.944-9.138l-3.51-3.401 4.76-5.045 4.76-5.044-5.119 4.833-5.118 4.833-8.882-8.59-8.881-8.589 3.75-3.35c2.063-1.842 3.75-3.751 3.751-4.243.001-2.014 9.136-12.394 10.907-12.394 1.949 0 3.513-2.509 2.543-4.079-.305-.494 1.977-4.033 5.072-7.864 5.889-7.288 6.662-10.327 3.166-12.455-1.936-1.179-2.173-.979-9.405 7.934l-3.217 3.964-.039-6c-.052-7.977-1.516-12.847-5.083-16.909-1.817-2.07-2.945-4.47-2.945-6.265 0-3.542-6.367-26.201-8.546-30.416-3.021-5.842-7.412-1.491-7.439 7.372-.018 5.672 1.486 9.587 6.458 16.815 2.242 3.26 3.229 5.502 2.525 5.737-.636.212-1.795-.527-2.576-1.642-.781-1.116-2.962-2.981-4.847-4.146-2.643-1.633-4.051-3.71-6.162-9.09-3.148-8.024-8.067-14.291-12.405-15.803-2.751-.959-3.008-.861-3.008 1.153 0 2.104-.393 2.201-8.931 2.198-8.603-.004-8.989-.102-10.5-2.658-.863-1.46-1.569-3.463-1.569-4.45 0-1.291-.305-1.491-1.085-.711s-.398 2.174 1.362 4.961l2.446 3.876-3.611 2.295c-4.154 2.64-8.658 8.527-9.699 12.676l-.716 2.851-1.761-2.175c-2.071-2.557-3.384-9.182-2.422-12.214l.676-2.129 1.462 2.087c.804 1.148 2.041 2.087 2.75 2.087 2.005 0 4.714-3.535 4.045-5.278-.851-2.217-3.099-2.846-4.431-1.241-.901 1.085-.736 1.259.814.853 2.684-.702 3.767 1.504 1.724 3.512-1.568 1.541-1.816 1.492-3.619-.707-1.064-1.298-1.932-3.098-1.928-4 .009-2.274 2.882-6.362 6.743-9.595L61 28.822v5.03c0 2.767.471 5.321 1.046 5.676.708.438.828-.996.372-4.434-.466-3.513-.282-5.553.597-6.612 2.352-2.834.494-2.363-4.245 1.076M135.5 32c2.709 2.75 5.15 5 5.425 5s-1.716-2.25-4.425-5-5.15-5-5.425-5 1.716 2.25 4.425 5m27-1c.995 1.1 2.035 2 2.31 2s-.315-.9-1.31-2-2.035-2-2.31-2 .315.9 1.31 2m5.5 6.5c1.292 1.375 2.574 2.5 2.849 2.5s-.557-1.125-1.849-2.5-2.574-2.5-2.849-2.5.557 1.125 1.849 2.5m-59.839 2.047c-1.727 3.789-1.406 11.056.673 15.251 2.517 5.078 8.44 14.541 9.663 15.437 3.525 2.581 3.285-1.07-1.069-16.267-4.735-16.527-6.826-19.78-9.267-14.421m-21.666 2.475c-.82 3.732.237 10.485 2.266 14.478.838 1.65 3.876 5.55 6.752 8.668 5.685 6.162 7.042 9.391 5.462 12.999-.947 2.163-.98 2.126-.456-.508.671-3.375-2.708-9.728-7.388-13.89-4.04-3.593-6.867-9.296-7.693-15.522-.61-4.603-.932-5.096-3.678-5.645-4.875-.975-9.597-.697-13.115.773-8.475 3.541-14.706 13.139-14.996 23.1-.138 4.756-.316 5.105-2.405 4.713-1.24-.233-2.928.135-3.75.817-3.427 2.844-.625 16.05 4.956 23.362 1.869 2.448 3.229 4.621 3.022 4.828-.524.524 2.09.861 8.528 1.1 5.324.198 5.51.116 5.818-2.565.186-1.618-.952-5.359-2.737-9-2.123-4.328-2.45-5.51-1.072-3.873 1.092 1.296 2.758 4.535 3.704 7.197 1.686 4.749 1.839 4.873 8.017 6.546 3.464.937 6.593 1.41 6.952 1.051.36-.36-1.649-2.791-4.465-5.402-3.508-3.255-5.568-6.164-6.546-9.249-4.25-13.39-4.732-15.339-3.984-16.087 1.085-1.085 7.996 2.088 12.112 5.563 3.762 3.175 8.251 11.346 8.099 14.741-.083 1.85-.241 1.714-.833-.717-1.762-7.238-9.504-16.063-16.114-18.367-4.363-1.521-3.854.783 1.505 6.818 2.451 2.76 4.942 5.925 5.536 7.033S81.899 87 82.913 87c2.369 0 4.478 2.537 3.73 4.487-.635 1.656-3.643 2.105-3.643.544 0-.532.675-.709 1.5-.393.957.368 1.5-.017 1.5-1.062 0-2.315-2.868-3.136-4.668-1.337-1.349 1.35-1.338 1.849.108 4.646 2.799 5.412 23.507 25.355 29.645 28.549 5.338 2.779 8.915 2.995 8.915.538 0-.599-.52-.769-1.155-.377-.651.403-.885.278-.536-.285.339-.55-2.291-3.754-5.846-7.12-5.131-4.86-6.463-6.734-6.463-9.097 0-1.636-.459-3.258-1.019-3.605-.56-.346-2.185-2.96-3.61-5.809-1.426-2.848-3.52-6.192-4.656-7.429S95.166 87 95.794 87c.629 0 .937-.562.685-1.25-.711-1.94 1.139-4.111 2.92-3.427 1.72.66 2.239 3.677.632 3.677-.532 0-.709-.675-.393-1.5.675-1.758-1.187-2.039-2.238-.338-.409.662.319 2.025 1.691 3.166 1.565 1.302 1.796 1.782.659 1.369-2.269-.822-2.209-.096.25 3.03 1.1 1.399 2 3.156 2 3.905 0 2.148 6.984 9.319 11.142 11.44 3.594 1.834 9.858 2.652 9.858 1.288 0-.352-.787-1.275-1.75-2.052-1.62-1.307-1.589-1.368.416-.819 1.191.326 2.46.117 2.819-.465.359-.581 1.028-.825 1.487-.541 2.625 1.622 4.083-15.032 1.89-21.584-2.941-8.782-9.916-13.806-16.604-11.96-2.005.554-3.743.906-3.863.784-.12-.123-2.074-4.885-4.342-10.583-5.822-14.624-7.691-17.949-11.343-20.175-4.19-2.555-4.432-2.506-5.215 1.057M142 39.378c0 .207.787.995 1.75 1.75 1.586 1.243 1.621 1.208.378-.378-1.307-1.666-2.128-2.195-2.128-1.372m38.564 17.915c.376.986.935 1.541 1.243 1.233s.001-1.114-.683-1.793c-.988-.98-1.102-.865-.56.56m-74.294 9.234c.892 2.909 1.531 3.473 3.933 3.473 2.553 0 2.75-.218 1.803-1.99-.586-1.094-2.356-2.657-3.934-3.473l-2.868-1.483zM158.158 77c0 1.375.227 1.938.504 1.25.278-.687.278-1.812 0-2.5-.277-.687-.504-.125-.504 1.25m-85.136 3.075c.511 1.785 1.953 4.37 3.204 5.745 1.799 1.978 1.909 2.369.524 1.872-2.163-.778-2.223.187-.193 3.085 2.174 3.105 3.121 2.773 2.994-1.051-.108-3.262-3.278-9.424-6.018-11.698-1.233-1.024-1.307-.726-.511 2.047m115.057.508c.048 1.165.285 1.402.604.605.289-.722.253-1.585-.079-1.917s-.568.258-.525 1.312M159.272 88c0 2.475.195 3.487.434 2.25.238-1.237.238-3.263 0-4.5-.239-1.237-.434-.225-.434 2.25m29.96 0c0 1.925.206 2.713.457 1.75.252-.963.252-2.537 0-3.5-.251-.963-.457-.175-.457 1.75m-49.35.25c-.066.688-.054 1.621.024 2.074.079.454-.263.573-.76.266s-2.506 1.499-4.464 4.012c-3.101 3.981-3.419 4.882-2.461 6.984.605 1.328 1.365 2.394 1.69 2.369C135.174 103.858 144 91.622 144 89.967c0-.964-.712-2.026-1.582-2.36-2.184-.838-2.401-.783-2.536.643M106 92.045c0 2.696 4.336 6.955 7.08 6.955 1.901 0 2.092-.39 1.539-3.155-.865-4.327-2.357-5.845-5.741-5.845-2.233 0-2.878.459-2.878 2.045m1.079.538c.048 1.165.285 1.402.604.605.289-.722.253-1.585-.079-1.917s-.568.258-.525 1.312m6 4c.048 1.165.285 1.402.604.605.289-.722.253-1.585-.079-1.917s-.568.258-.525 1.312M158.158 99c0 1.375.227 1.938.504 1.25.278-.687.278-1.812 0-2.5-.277-.687-.504-.125-.504 1.25m-29.851 3.998c-.857 2.269-.766 3.33.432 5.04s1.698 1.881 2.374.814c.703-1.11.859-1.093.872.098.011 1.051.316 1.149 1.111.354s.624-2.091-.621-4.716c-2.269-4.781-2.876-5.013-4.168-1.59M189.232 106c0 1.925.206 2.713.457 1.75.252-.963.252-2.537 0-3.5-.251-.963-.457-.175-.457 1.75m-82.232.601c0 .899 1.813 3.447 4.029 5.664l4.029 4.029 2.471-2.321c2.832-2.661 3.142-3.973.938-3.973-.844 0-3.769-1.133-6.5-2.517-4.237-2.147-4.967-2.276-4.967-.882m17.675-.942c-1.174 1.173-.729 2.492.575 1.704.688-.416-.888 1.393-3.5 4.02s-4.75 5.12-4.75 5.541.836 1.523 1.858 2.447c1.765 1.598 2.031 1.468 5.321-2.595 1.904-2.352 3.742-4.754 4.085-5.338.753-1.286-2.632-6.736-3.589-5.779M4.079 109.583c.048 1.165.285 1.402.604.605.289-.722.253-1.585-.079-1.917s-.568.258-.525 1.312m184 3c.048 1.165.285 1.402.604.605.289-.722.253-1.585-.079-1.917s-.568.258-.525 1.312M5 115.559c0 .857.457 1.276 1.016.931.559-.346.758-1.047.441-1.559C5.6 113.544 5 113.802 5 115.559m1.624 2.98c-.965 2.514-.681 3.163.498 1.136.584-1.004.851-2.036.593-2.293-.257-.258-.749.263-1.091 1.157m145 2c-.965 2.514-.681 3.163.498 1.136.584-1.004.851-2.036.593-2.293-.257-.258-.749.263-1.091 1.157m-41.498 4.809c-.855 1.031-.627 1.793.968 3.237 2.046 1.851 2.114 1.851 3.472-.006 1.203-1.645 1.158-2.067-.34-3.205-2.202-1.672-2.731-1.675-4.1-.026M12 128c.589 1.1 1.295 2 1.57 2s.019-.9-.57-2-1.295-2-1.57-2-.019.9.57 2m136 0c-.589 1.1-.845 2-.57 2s.981-.9 1.57-2 .845-2 .57-2-.981.9-1.57 2m34.624 3.539c-.965 2.514-.681 3.163.498 1.136.584-1.004.851-2.036.593-2.293-.257-.258-.749.263-1.091 1.157M16 134.378c0 .207.788.995 1.75 1.75 1.586 1.243 1.621 1.208.378-.378-1.307-1.666-2.128-2.195-2.128-1.372m126.872 1.372c-1.243 1.586-1.208 1.621.378.378 1.666-1.307 2.195-2.128 1.372-2.128-.207 0-.995.787-1.75 1.75m-42.989 1c1.446 2.655 8.004 8.696 8.693 8.008.333-.333-1.293-2.665-3.613-5.182-4.273-4.636-6.845-6.067-5.08-2.826M24 143.5c2.987 3.025 5.657 5.5 5.932 5.5s-1.945-2.475-4.932-5.5-5.657-5.5-5.932-5.5 1.945 2.475 4.932 5.5m-8 .5c.589 1.1 1.295 2 1.57 2s.019-.9-.57-2-1.295-2-1.57-2-.019.9.57 2m154.872 8.75c-1.243 1.586-1.208 1.621.378.378 1.666-1.307 2.195-2.128 1.372-2.128-.207 0-.995.787-1.75 1.75M23 154.378c0 .207.788.995 1.75 1.75 1.586 1.243 1.621 1.208.378-.378-1.307-1.666-2.128-2.195-2.128-1.372m143.437 3.872-2.937 3.25 3.25-2.937c3.029-2.738 3.71-3.563 2.937-3.563-.172 0-1.635 1.463-3.25 3.25M31.5 164c.995 1.1 2.035 2 2.31 2s-.315-.9-1.31-2-2.035-2-2.31-2 .315.9 1.31 2m126.937 2.25-2.937 3.25 3.25-2.937c3.029-2.738 3.71-3.563 2.937-3.563-.172 0-1.635 1.463-3.25 3.25m-87.187.439c.963.252 2.537.252 3.5 0 .963-.251.175-.457-1.75-.457s-2.713.206-1.75.457m15 0c.963.252 2.537.252 3.5 0 .963-.251.175-.457-1.75-.457s-2.713.206-1.75.457M37.5 169c.995 1.1 2.035 2 2.31 2s-.315-.9-1.31-2-2.035-2-2.31-2 .315.9 1.31 2m114.372 2.75c-1.243 1.586-1.208 1.621.378.378 1.666-1.307 2.195-2.128 1.372-2.128-.207 0-.995.787-1.75 1.75m-7.431 4.805c-1.864 1.494-1.852 1.512.309.465 1.238-.6 2.25-1.3 2.25-1.555 0-.765-.519-.544-2.559 1.09M55 180.393c0 .216.698.661 1.552.989.89.341 1.291.173.941-.393-.587-.951-2.493-1.406-2.493-.596m15.813 6.29c.721.289 1.584.253 1.916-.079s-.258-.568-1.312-.525c-1.165.048-1.402.285-.604.604m4 1c.721.289 1.584.253 1.916-.079s-.258-.568-1.312-.525c-1.165.048-1.402.285-.604.604m43 0c.721.289 1.584.253 1.916-.079s-.258-.568-1.312-.525c-1.165.048-1.402.285-.604.604m-38 1c.721.289 1.584.253 1.916-.079s-.258-.568-1.312-.525c-1.165.048-1.402.285-.604.604m33 0c.721.289 1.584.253 1.916-.079s-.258-.568-1.312-.525c-1.165.048-1.402.285-.604.604m-26.563 1.006c.963.252 2.537.252 3.5 0 .963-.251.175-.457-1.75-.457s-2.713.206-1.75.457m18 0c.963.252 2.537.252 3.5 0 .963-.251.175-.457-1.75-.457s-2.713.206-1.75.457"/></svg>