<svg xmlns="http://www.w3.org/2000/svg" width="32" height="32" version="1.1" fill="#000000"><path fill-opacity=".016" d="M 8.218 1.607 C 2.700 4.421, 0.500 8.523, 0.500 16 C 0.500 23.654, 2.776 27.717, 8.618 30.489 C 13.361 32.740, 21.566 32.158, 25.601 29.284 C 29.718 26.353, 33 19.726, 33 14.346 C 33 11.891, 32.645 10.101, 32.212 10.369 C 31.779 10.637, 30.844 9.544, 30.134 7.940 C 27.139 1.174, 15.603 -2.159, 8.218 1.607 M 0.300 16 C 0.300 19.025, 0.487 20.263, 0.716 18.750 C 0.945 17.238, 0.945 14.763, 0.716 13.250 C 0.487 11.738, 0.300 12.975, 0.300 16 M 15 16 C 15 16.550, 15.450 17, 16 17 C 16.550 17, 17 16.550, 17 16 C 17 15.450, 16.550 15, 16 15 C 15.450 15, 15 15.450, 15 16" stroke="none" fill="#000000" fill-rule="evenodd"/><path fill-opacity=".083" d="M 7.922 2.274 C -2.718 9.444, -2.718 22.556, 7.922 29.726 C 17.962 36.492, 32.880 27.473, 32.967 14.583 C 32.985 11.879, 32.718 9.949, 32.373 10.293 C 32.029 10.638, 30.781 9.486, 29.600 7.734 C 24.419 0.046, 14.816 -2.373, 7.922 2.274 M 13.655 5.750 C 13.400 6.162, 14.455 6.500, 16 6.500 C 17.545 6.500, 18.600 6.162, 18.345 5.750 C 18.091 5.338, 17.035 5, 16 5 C 14.965 5, 13.909 5.338, 13.655 5.750 M 7.750 9.080 C 6.395 9.869, 6 11.436, 6 16.015 C 6 21.127, 6.305 22.092, 8.250 23.129 C 10.257 24.198, 10.358 24.155, 9.185 22.733 C 8.073 21.385, 8.169 20.980, 9.804 20.105 C 10.867 19.536, 12.093 19.392, 12.529 19.785 C 12.964 20.178, 13.024 19.981, 12.662 19.347 C 12.261 18.647, 13.238 17.764, 15.150 17.097 C 18.887 15.795, 19.035 15.781, 18.882 16.750 C 18.568 18.738, 19.099 20.057, 19.993 19.505 C 21.082 18.832, 17.531 11, 16.137 11 C 15.685 11, 14.457 12.596, 13.407 14.547 C 12.358 16.498, 10.488 18.758, 9.250 19.570 C 7.019 21.034, 7 21.004, 7 16 L 7 10.954 9.750 12.596 L 12.500 14.237 10.224 12.345 C 8.427 10.850, 8.206 10.194, 9.174 9.226 C 10.648 7.752, 10.123 7.698, 7.750 9.080 M 22.776 9.104 C 23.820 10.207, 23.638 10.787, 21.776 12.293 C 19.566 14.081, 19.564 14.103, 21.684 13.067 C 24.906 11.493, 25 11.594, 25 16.622 C 25 20.881, 24.862 21.137, 23.250 19.872 C 21.706 18.662, 21.645 18.686, 22.726 20.074 C 23.694 21.317, 23.694 21.921, 22.726 22.946 C 21.725 24.006, 21.913 24.032, 23.750 23.087 C 25.700 22.084, 26 21.140, 26 16 C 26 10.860, 25.700 9.916, 23.750 8.913 C 21.872 7.947, 21.711 7.978, 22.776 9.104 M 0.300 16 C 0.300 19.025, 0.487 20.263, 0.716 18.750 C 0.945 17.238, 0.945 14.763, 0.716 13.250 C 0.487 11.738, 0.300 12.975, 0.300 16 M 14.055 14.896 C 13.130 16.625, 13.252 16.693, 15.435 15.663 C 16.752 15.041, 17.616 14.188, 17.356 13.766 C 16.536 12.440, 15.108 12.929, 14.055 14.896 M 14.800 21.200 C 15.733 22.133, 16.267 22.133, 17.200 21.200 C 18.133 20.267, 17.867 20, 16 20 C 14.133 20, 13.867 20.267, 14.800 21.200 M 13.655 26.250 C 13.909 26.663, 14.965 27, 16 27 C 17.035 27, 18.091 26.663, 18.345 26.250 C 18.600 25.837, 17.545 25.500, 16 25.500 C 14.455 25.500, 13.400 25.837, 13.655 26.250" stroke="none" fill="#000000" fill-rule="evenodd"/><path fill-opacity=".066" d="M 8.962 2.250 C 4.159 4.672, 0 11.053, -0 16 C -0 20.947, 4.159 27.328, 8.962 29.750 C 14.573 32.580, 17.427 32.580, 23.038 29.750 C 26.364 28.073, 28.180 26.227, 30.169 22.500 C 32.485 18.161, 34.133 10.534, 32.375 12.292 C 32.031 12.635, 30.794 11.023, 29.625 8.708 C 27.330 4.163, 20.816 -0, 16 -0 C 14.583 -0, 11.416 1.012, 8.962 2.250 M 10.705 7.182 L 5.910 10.224 6.205 16.297 L 6.500 22.370 11.250 25.156 L 16 27.942 20.750 25.151 L 25.500 22.360 25.500 15.996 L 25.500 9.632 21 6.895 C 18.525 5.389, 16.275 4.153, 16 4.148 C 15.725 4.143, 13.342 5.508, 10.705 7.182 M 11.200 8.204 C 7.937 10.220, 7.924 10.258, 9.997 11.710 C 12.921 13.759, 15 12.646, 15 9.031 C 15 7.364, 14.887 6.037, 14.750 6.083 C 14.613 6.128, 13.015 7.083, 11.200 8.204 M 17.184 9.741 C 17.548 12.901, 19.692 13.677, 22.460 11.653 C 24.299 10.308, 24.247 10.179, 21.240 8.624 C 17.072 6.469, 16.814 6.539, 17.184 9.741 M 7 16 C 7 20.399, 7.837 20.943, 10.345 18.171 C 12.440 15.856, 12.424 15.042, 10.250 13.392 C 7.506 11.309, 7 11.715, 7 16 M 21.750 13.392 C 19.522 15.083, 19.541 16.275, 21.829 18.345 C 24.521 20.781, 25 20.427, 25 16 C 25 11.715, 24.494 11.309, 21.750 13.392 M 0.232 16 C 0.232 17.925, 0.438 18.712, 0.689 17.750 C 0.941 16.788, 0.941 15.213, 0.689 14.250 C 0.438 13.287, 0.232 14.075, 0.232 16 M 13.500 19 C 13.840 19.550, 14.316 20, 14.559 20 C 14.802 20, 15 19.550, 15 19 C 15 18.450, 14.523 18, 13.941 18 C 13.359 18, 13.160 18.450, 13.500 19 M 17 19.059 C 17 19.641, 17.450 19.840, 18 19.500 C 18.550 19.160, 19 18.684, 19 18.441 C 19 18.198, 18.550 18, 18 18 C 17.450 18, 17 18.477, 17 19.059 M 9.104 20.914 C 8.027 21.597, 8.415 22.163, 10.805 23.399 C 14.725 25.426, 15 25.407, 15 23.107 C 15 20.432, 11.766 19.229, 9.104 20.914 M 18.250 20.662 C 17.563 20.940, 17 22.239, 17 23.550 L 17 25.933 20.576 23.822 C 23.209 22.269, 23.803 21.490, 22.826 20.872 C 21.371 19.949, 20.156 19.893, 18.250 20.662" stroke="none" fill="#000000" fill-rule="evenodd"/><path fill-opacity=".102" d="M 11.880 1.174 C 9.888 1.704, 6.816 3.626, 5.052 5.447 C -5.675 16.514, 4.981 34.584, 19.989 30.775 C 24.756 29.565, 31 23.203, 31 19.556 C 31 18.215, 31.450 16.840, 32 16.500 C 32.550 16.160, 33 15.432, 33 14.882 C 33 14.332, 32.599 14.130, 32.110 14.432 C 31.620 14.735, 30.932 13.452, 30.581 11.582 C 29.858 7.727, 23.181 1, 20.079 1 C 19.025 1, 17.564 0.822, 16.832 0.605 C 16.099 0.388, 13.871 0.644, 11.880 1.174 M 10.250 7.030 L 5 10.040 5 15.947 L 5 21.853 10.520 25.012 L 16.041 28.170 21.270 25.220 L 26.500 22.270 26.795 16.234 L 27.090 10.198 21.673 7.099 C 18.694 5.395, 16.086 4.004, 15.878 4.009 C 15.670 4.015, 13.137 5.374, 10.250 7.030 M 11.184 8.852 L 7.869 10.619 10.594 11.861 C 13.569 13.216, 14.954 12.235, 14.985 8.750 C 15.003 6.668, 15.294 6.661, 11.184 8.852 M 17.015 8.750 C 17.045 12.151, 18.513 13.331, 21.036 11.981 L 23.327 10.755 20.913 8.900 C 17.883 6.570, 16.996 6.536, 17.015 8.750 M 7 15.976 C 7 19.675, 7.182 19.973, 8.882 19.063 C 11.319 17.759, 12.204 15.395, 10.691 14.229 C 7.389 11.685, 7 11.869, 7 15.976 M 22.089 13.718 L 19.679 15.679 22.089 18.089 L 24.500 20.500 24.820 18.250 C 24.995 17.012, 24.995 15.045, 24.820 13.878 C 24.501 11.762, 24.494 11.761, 22.089 13.718 M 9.568 20.891 C 9.084 21.673, 13.049 25, 14.465 25 C 15.855 25, 14.779 21.952, 13.066 21.035 C 10.704 19.771, 10.271 19.753, 9.568 20.891 M 18.750 21.080 C 17.788 21.641, 17 22.745, 17 23.534 C 17 24.734, 17.571 24.695, 20.505 23.296 C 22.925 22.142, 23.622 21.378, 22.755 20.828 C 21.168 19.820, 20.882 19.838, 18.750 21.080" stroke="none" fill="#000000" fill-rule="evenodd"/></svg>