<svg xmlns="http://www.w3.org/2000/svg" width="64" height="64" fill="#000000"><path fill-opacity=".161" fill-rule="evenodd" d="M18.5 2.882C6.619 8.586.026 18.969.011 32c-.008 6.22.482 8.524 2.871 13.5C8.589 57.388 18.977 63.98 32 63.98c13.359 0 23.259-6.486 29.602-19.395C64.549 38.586 65 36.675 65 30.168c0-4.126-.286-7.216-.635-6.866-.349.349-1.871-1.939-3.381-5.084C55.415 6.624 44.912.026 32 .011c-6.22-.008-8.524.482-13.5 2.871m.475 17.648c-.738.89-.35 1.073 1.516.716 1.38-.263 2.509-.802 2.509-1.196 0-1.168-2.949-.816-4.025.48M.349 32c0 4.675.173 6.587.383 4.25.211-2.338.211-6.163 0-8.5-.21-2.338-.383-.425-.383 4.25m36.523-5.25c-1.243 1.586-1.208 1.621.378.378C38.916 25.821 39.445 25 38.622 25c-.207 0-.995.788-1.75 1.75M28 31.5c1.292 1.375 2.574 2.5 2.849 2.5s-.557-1.125-1.849-2.5-2.574-2.5-2.849-2.5.557 1.125 1.849 2.5"/><path fill-opacity=".261" fill-rule="evenodd" d="M20.357 2.082c-7.029 2.703-13.671 8.82-17.051 15.704C.896 22.694.501 24.699.51 32c.011 9.841 1.966 15.201 7.967 21.843 8.273 9.158 23.098 12.59 34.992 8.102 8.478-3.199 15.341-10.288 18.849-19.469C64.872 35.794 66.055 25 64.235 25c-.421 0-1.591-2.324-2.6-5.165-2.533-7.13-10.361-14.841-17.954-17.681-7.318-2.738-16.319-2.766-23.324-.072M23.5 16c-5.793 5.854-5.868 6-3.108 6 2.146 0 4.762 1.819 10.845 7.541 4.408 4.147 8.232 7.323 8.498 7.057.265-.265-2.086-2.873-5.224-5.794l-5.707-5.312 5.989-5.714c4.958-4.729 5.747-5.915 4.576-6.887-1.111-.922-1.326-.875-1.003.218.227.765-2.031 3.613-5.016 6.329l-5.429 4.938-2.672-2.672-2.672-2.672 3.408-3.516C27.859 13.582 30.006 12 30.755 12c.75 0 1.085-.45.745-1-1.052-1.703-1.878-1.187-8 5m14 10c-1.581 1.65-2.418 3-1.861 3s2.069-1.125 3.361-2.5c3.145-3.348 9.19-3.495 11.443-.277 2.177 3.107 1.939 6.741-.617 9.463C48.63 36.958 48.154 38 48.769 38 50.652 38 53 33.736 53 30.316c0-7.397-9.906-10.155-15.5-4.316m-22-.845c-2.844 1.555-4.506 3.898-4.461 6.286.03 1.546.393 1.245 1.458-1.206.781-1.796 2.226-3.521 3.211-3.834.986-.312 2.692-.95 3.792-1.417l2-.849-2-.037c-1.1-.02-2.9.455-4 1.057m12.789 6.633c5.499 5.541 6.504 7.031 5.473 8.117-1.021 1.077-.835 1.073.978-.022 2.212-1.335 2.153-1.44-4.473-8.118C26.575 28.044 23.104 25 22.554 25s2.031 3.054 5.735 6.788M.32 32c0 3.575.182 5.038.403 3.25s.222-4.712 0-6.5C.502 26.962.32 28.425.32 32m24.604 5.75L22.5 40.5l2.75-2.424C27.82 35.81 28.459 35 27.674 35c-.179 0-1.416 1.237-2.75 2.75m11.942 10.404c-2.549 2.679-4.242 5.113-3.764 5.409s2.339-1.138 4.134-3.186 3.827-4.288 4.514-4.979S43 43.886 43 43.571c0-1.326-1.774 0-6.134 4.583"/><path fill-opacity=".386" fill-rule="evenodd" d="M22.3 1.862C11.528 5.584 4.524 12.949 1.339 23.905c-4.147 14.266 3.475 30.458 17.322 36.797 17.479 8.002 38.442-1.222 43.528-19.154.632-2.227 1.522-4.476 1.98-4.998.974-1.113 1.146-11.198.174-10.226-.361.361-1.41-1.567-2.329-4.284-3.476-10.268-10.965-17.463-21.4-20.562C34.095-.458 28.686-.344 22.3 1.862m.943 13.932c-3.441 3.138-6.254 5.966-6.25 6.283s1.339.381 2.968.142c2.588-.38 4.066.617 11.75 7.923 4.834 4.597 8.939 8.695 9.122 9.108.184.413 1.139.75 2.124.75 1.199 0-.727-2.463-5.833-7.457L29.5 25.085l4.882-4.96c3.261-3.315 5.419-4.766 6.5-4.374 1.288.468 1.219.134-.339-1.639-1.821-2.072-2.005-2.101-2.654-.419-.384.994-2.683 3.731-5.108 6.083l-4.41 4.276-2.626-2.276-2.626-2.276 3.523-3.825c2.279-2.475 4.073-3.614 5.082-3.227 1.295.497 1.345.34.295-.925-.695-.838-1.546-1.503-1.891-1.479-.346.023-3.444 2.611-6.885 5.75M39.5 23.842c-1.65 1.008-3.618 2.582-4.372 3.496-2.187 2.648.594 2.073 4.054-.838 3.759-3.163 7.231-3.178 10.363-.045 3.261 3.26 3.097 6.143-.545 9.545-3.775 3.527-3.827 4.479-.141 2.573 3.389-1.753 5.623-6.517 4.727-10.085-.696-2.776-5.89-6.481-9.086-6.481-1.1 0-3.35.826-5 1.835m-25.341 1.759c-3.445 2.413-4.405 5.875-2.736 9.869 1.799 4.306 5.734 6.958 9.077 6.119 3.2-.803 9.668-6.518 7.424-6.56-.866-.016-2.632 1.096-3.924 2.471-2.942 3.132-7.209 3.265-9.961.311-2.572-2.761-2.594-5.836-.063-9.053 3.756-4.775 5.69-4.314 13.389 3.189l7.027 6.849-5.7 5.476c-5.186 4.984-5.547 5.601-4.008 6.853 1.468 1.194 1.611 1.162 1.085-.243-.406-1.086.942-3.143 4.097-6.25C32.453 42.084 35.037 40 35.61 40s2.016 1.037 3.207 2.305l2.166 2.306-3.901 3.809c-2.573 2.512-4.358 3.542-5.242 3.023-.737-.433-.535.133.449 1.257 1.776 2.029 1.826 2.004 7.169-3.555C44.821 43.563 45.415 42 42.17 42c-.941 0-5.743-4.05-10.67-9-9.634-9.679-12.4-10.859-17.341-7.399M.3 32c0 3.025.187 4.263.416 2.75s.229-3.988 0-5.5S.3 28.975.3 32"/><path fill-opacity=".567" fill-rule="evenodd" d="M23.951 1.303C6.099 6.35-3.588 25.141 2.46 42.99c2.561 7.56 10.964 15.972 18.55 18.571 7.279 2.494 17.118 2.361 23.161-.313 9.149-4.046 17.045-13.492 18.409-22.02.375-2.35 1.074-4.514 1.551-4.809.478-.295.869-1.887.869-3.537s-.394-2.757-.875-2.459c-.481.297-1.18-1.364-1.552-3.691-1.338-8.374-9.266-17.939-18.107-21.85C38.84.393 29.665-.313 23.951 1.303m-1.558 14.848L15.5 23.14l3.5-.6c3.29-.564 3.95-.164 11.01 6.68 12.977 12.581 12.329 12.153 16.398 10.81 7.571-2.498 9.862-9.914 4.669-15.107-4.215-4.214-8.918-4.028-13.842.55-4.069 3.783-2.807 4.783 1.851 1.466 3.995-2.845 9.915-2.352 11.559.962 2.08 4.196-1.475 9.994-6.174 10.067-1.196.019-4.671-2.634-8.467-6.464l-6.437-6.495 4.848-4.923c3.236-3.285 5.387-4.727 6.467-4.335 1.314.478 1.261.181-.287-1.581-2.096-2.387-3.81-2.894-3.045-.901.268.699-1.684 3.408-4.337 6.022l-4.825 4.751-2.379-2.532-2.379-2.533 3.306-3.411c1.824-1.881 3.924-3.173 4.685-2.881 2.039.782 1.675-1.019-.478-2.364-1.615-1.008-2.754-.25-8.75 5.83M17.5 23.85c-4.925 1.601-7.5 4.918-7.5 9.661C10 37.16 14.996 42 18.762 42c2.713 0 10.118-4.537 10.202-6.25.071-1.464-2.368-.719-4.641 1.417-2.741 2.574-7.738 2.847-10.037.547-2.417-2.416-2.067-7.663.658-9.87 3.825-3.097 6.177-2.284 12.84 4.438l6.227 6.283-4.756 4.599c-2.615 2.529-5.352 4.776-6.082 4.993-.961.286-.755.911.75 2.274C25.944 52.26 26 52.26 26 50.445c0-1.025 2.106-3.797 4.679-6.16l4.68-4.296 2.338 2.196 2.337 2.196-3.679 3.768c-2.024 2.072-4.057 3.535-4.518 3.251s-.837-.097-.837.419c0 1.021 2.907 3.727 3.274 3.047.124-.23 3.085-3.391 6.579-7.023 5.449-5.665 5.987-6.535 3.781-6.113-2.166.414-4.194-1.029-12.826-9.119-5.639-5.286-10.716-9.566-11.281-9.511s-1.927.392-3.027.75M.232 32c0 1.925.206 2.712.457 1.75.252-.962.252-2.538 0-3.5-.251-.962-.457-.175-.457 1.75"/></svg>