<!-- Generated by IcoMoon.io -->
<svg version="1.1" xmlns="http://www.w3.org/2000/svg" width="32" height="32" viewBox="0 0 32 32" fill="#000000">
<title>abyss</title>
<path d="M13.756 0.149c-3.57 0.216-6.686 0.927-9.695 2.32l-1.505 0.69c0 6.402 0 12.804 0 19.206 4.436 3.284 8.976 6.422 13.471 9.623 4.469-3.17 8.934-6.347 13.409-9.509v-19.32l-1.48-0.69c-1.806-0.842-4.077-1.581-5.886-1.915-2.769-0.511-5.524-0.573-8.314-0.405zM21.316 7.107l2.36 0.453-0.008 12.821c-1.202 0.814-3.672 2.341-3.672 2.341 0-1.714 0-3.427 0-5.141h-8v5.267l-3.512-2.467-0.008-12.824 2.36-0.428c1.946-0.353 3.169-0.548 5.16-0.548 1.919 0.035 3.493 0.174 5.32 0.525zM13.116 10.167c-1.206 0.19-1.12 0.038-1.12 1.976v1.757h8.011l-0.045-1.8-0.045-1.8-0.8-0.106c-0.851-0.113-5.328-0.133-6-0.028z"/>
</svg>
