<svg width="499" height="500" viewBox="0 0 499 500" fill="#000000" xmlns="http://www.w3.org/2000/svg">
<path fill-rule="evenodd" clip-rule="evenodd" d="M224.054 1.43422C12.9574 24.2192 -76.1542 283.842 76.811 430.421C235.265 582.257 499.175 469.173 498.751 249.621C498.465 101.74 370.007 -14.3196 224.054 1.43422ZM268.096 24.3541C450.301 39.1497 541.11 252.388 425.434 393.817C313.202 531.035 91.0621 489.725 35.7593 321.351C-14.7785 167.481 107.395 11.305 268.096 24.3541ZM227.602 42.372C97.8645 56.9998 13.0283 183.514 49.0712 308.61C80.2542 416.838 193.851 480.949 303.07 451.957C416.356 421.885 482.59 304.561 450.011 191.669C422.302 95.6535 326.344 31.2383 227.602 42.372ZM279.508 67.8388C429.56 93.861 486.811 278.25 377.22 382.544C272.543 482.162 98.9476 427.991 69.726 286.59C43.7936 161.102 154.09 46.0879 279.508 67.8388ZM240.336 111.457C242.222 114.555 326.568 260.672 351.239 303.576C357.559 314.567 363.272 324.151 363.935 324.874C365.086 326.13 377.805 306.493 377.729 303.576C377.715 303.026 352.501 258.963 321.697 205.658L265.69 108.739L252.017 108.46L238.343 108.181L240.336 111.457ZM195.44 167.44C179.158 195.604 154.992 237.396 141.739 260.313C128.486 283.229 117.653 302.563 117.665 303.277C117.677 303.991 120.554 309.464 124.057 315.439C130.336 326.151 130.446 326.269 131.924 323.932C133.539 321.378 206.681 194.635 210.845 187.173C218.349 173.73 224.387 163.749 225.174 163.486C225.928 163.235 282.674 260.223 282.122 260.816C282.017 260.928 279.025 260.598 275.474 260.083C266.083 258.72 238.507 257.843 235.287 258.804C232.949 259.503 217.765 282.632 218.899 283.766C219.021 283.889 222.479 283.516 226.584 282.937C238.03 281.323 271.014 282.484 282.006 284.887C300.476 288.927 296.966 285.588 314.009 315.333L329.026 341.544L342.353 341.824C353.891 342.066 355.603 341.901 355.104 340.598C354.786 339.77 330.821 298.053 301.849 247.895C272.876 197.737 243.97 147.609 237.612 136.499C231.254 125.39 225.826 116.285 225.548 116.266C225.271 116.247 211.721 139.276 195.44 167.44ZM182.351 267.397L139.649 341.544L152.37 341.826L165.091 342.107L174 337.968C213.47 319.629 260.788 316.254 298.161 329.113C301.271 330.183 303.999 330.874 304.224 330.649C304.636 330.238 292.714 308.839 289.354 303.958C284.197 296.467 224.81 296.489 195.427 303.993C191.388 305.024 187.958 305.75 187.803 305.607C187.649 305.463 199.002 285.473 213.032 261.184C227.063 236.895 238.542 216.582 238.542 216.043C238.542 214.826 226.239 193.227 225.553 193.24C225.278 193.245 205.837 226.616 182.351 267.397Z" fill="#000000"/>
</svg>
