<!-- Generated by IcoMoon.io -->
<svg version="1.1" xmlns="http://www.w3.org/2000/svg" width="32" height="32" viewBox="0 0 32 32" fill="#000000">
<title>ach</title>
<path d="M13.722 5.872l-2.316 4.049v5.389c0 2.964 0.047 5.389 0.105 5.389s0.415-0.182 0.794-0.404c0.379-0.222 1.146-0.576 1.705-0.786s1.556-0.449 2.216-0.531c0.696-0.086 1.616-0.092 2.19-0.014 0.544 0.074 1.257 0.183 1.584 0.243l0.594 0.108v-9.671l-2.157-3.779c-1.186-2.079-2.211-3.838-2.278-3.91s-1.163 1.691-2.437 3.918zM3.902 22.842c-2.146 3.705-3.902 6.806-3.902 6.891 0 0.096 1.499 0.154 3.96 0.154h3.96v-6.891c0-3.79-0.026-6.891-0.058-6.891s-1.814 3.032-3.96 6.737zM24.079 22.964v6.923h3.96c2.594 0 3.96-0.056 3.96-0.162 0-0.089-1.721-3.137-3.824-6.772s-3.885-6.678-3.96-6.761c-0.077-0.085-0.137 2.876-0.137 6.772zM15.414 22.411c-0.453 0.162-1.117 0.497-1.475 0.745s-0.837 0.67-1.063 0.938c-0.226 0.268-0.631 0.95-0.898 1.516-0.423 0.895-0.487 1.206-0.49 2.376-0.002 0.812 0.078 1.488 0.201 1.703 0.203 0.356 0.208 0.356 4.558 0.356h4.354l-0.043-3.525-0.043-3.525-0.792-0.384c-0.6-0.291-1.119-0.397-2.139-0.44s-1.546 0.015-2.17 0.238z"/>
</svg>
