<!-- Generated by IcoMoon.io -->
<svg version="1.1" xmlns="http://www.w3.org/2000/svg" width="32" height="32" viewBox="0 0 32 32" fill="#000000">
<title>acm</title>
<path d="M15.694 0.004c-0.203 0.013-0.341 0.026-0.488 0.045-2.927 0.371-5.597 2.831-7.295 6.721-1.003 2.297-1.61 4.965-1.769 7.77-0.030 0.525-0.036 0.785-0.036 1.455s0.006 0.917 0.036 1.459c0.254 4.57 1.718 8.746 4.019 11.47 0.391 0.463 0.881 0.952 1.32 1.317 1.56 1.298 3.353 1.903 5.116 1.726 1.112-0.111 2.168-0.504 3.188-1.186 0.496-0.331 0.919-0.683 1.399-1.162 0.296-0.295 0.48-0.497 0.711-0.775 2.746-3.314 4.232-8.615 3.961-14.131-0.173-3.531-1.069-6.865-2.549-9.495-1.101-1.955-2.483-3.438-4.021-4.314-0.94-0.535-1.92-0.835-2.936-0.897-0.135-0.008-0.551-0.010-0.657-0.003zM16.451 0.495c0.501 0.045 0.94 0.139 1.418 0.303 2.322 0.797 4.392 3.053 5.77 6.29 0.889 2.087 1.454 4.519 1.634 7.036 0.045 0.633 0.062 1.13 0.062 1.828 0 0.987-0.043 1.801-0.145 2.736-0.395 3.637-1.59 6.955-3.349 9.302-1.553 2.071-3.44 3.262-5.428 3.424-0.317 0.026-0.708 0.021-1.034-0.013-1.013-0.105-2.003-0.48-2.942-1.115-1.446-0.976-2.728-2.543-3.725-4.553-1.183-2.384-1.905-5.272-2.079-8.312-0.031-0.54-0.037-0.772-0.037-1.468s0.006-0.928 0.037-1.468c0.217-3.781 1.277-7.295 2.991-9.908 0.97-1.479 2.146-2.627 3.395-3.314 0.158-0.087 0.513-0.258 0.664-0.321 0.677-0.28 1.307-0.423 2.047-0.464 0.122-0.007 0.575 0.004 0.72 0.017zM15.73 1.071c-2.26 0.115-4.386 1.697-6.008 4.474-0.292 0.5-0.615 1.145-0.861 1.717-0.924 2.154-1.482 4.629-1.635 7.245-0.031 0.527-0.036 0.75-0.036 1.445 0 0.792 0.014 1.198 0.064 1.86 0.301 4.003 1.569 7.641 3.52 10.095 0.44 0.553 0.988 1.112 1.473 1.501 1.352 1.084 2.813 1.562 4.277 1.399 1.009-0.113 2.005-0.527 2.931-1.221 1.439-1.078 2.694-2.796 3.621-4.961 0.321-0.748 0.586-1.503 0.824-2.344 0.437-1.546 0.715-3.249 0.808-4.956 0.048-0.884 0.048-1.871 0-2.745-0.313-5.667-2.56-10.593-5.748-12.602-0.819-0.516-1.686-0.817-2.578-0.895-0.117-0.010-0.539-0.018-0.652-0.013zM16.396 1.649c1.518 0.143 2.963 1.009 4.243 2.544 0.431 0.518 0.876 1.169 1.249 1.833 0.919 1.634 1.602 3.601 1.991 5.736 0.051 0.282 0.117 0.684 0.112 0.689-0.001 0.001-0.033-0.064-0.070-0.145-0.294-0.642-0.68-1.268-1.127-1.825-0.417-0.52-0.849-0.951-1.386-1.382-0.065-0.052-0.136-0.107-0.157-0.123s-0.107-0.077-0.192-0.138c-1.871-1.349-4.247-1.901-6.532-1.518-2.298 0.386-4.323 1.65-5.688 3.552-0.255 0.356-0.484 0.737-0.703 1.172-0.066 0.131-0.11 0.21-0.107 0.191 0.506-3.107 1.573-5.785 3.088-7.751 0.268-0.348 0.5-0.611 0.824-0.936 0.336-0.337 0.554-0.528 0.876-0.768 0.929-0.694 1.887-1.072 2.891-1.141 0.144-0.010 0.544-0.005 0.688 0.009zM15.924 2.725c-0.896 0.087-1.632 0.657-1.857 1.44-0.056 0.194-0.063 0.254-0.064 0.502 0 0.21 0.002 0.231 0.025 0.342 0.076 0.356 0.24 0.664 0.493 0.924 0.418 0.431 0.97 0.658 1.595 0.658 0.26 0 0.478-0.032 0.699-0.102 0.277-0.088 0.554-0.241 0.746-0.411l0.047-0.041-0.2-0.183c-0.11-0.101-0.202-0.183-0.206-0.183s-0.025 0.017-0.049 0.037c-0.069 0.061-0.21 0.151-0.312 0.199-0.35 0.165-0.761 0.202-1.135 0.102-0.565-0.151-0.99-0.578-1.1-1.107-0.025-0.121-0.027-0.327-0.005-0.453 0.020-0.112 0.067-0.25 0.12-0.357 0.118-0.235 0.32-0.452 0.561-0.601 0.508-0.315 1.178-0.323 1.68-0.018 0.041 0.025 0.101 0.067 0.133 0.092l0.058 0.047 0.061-0.055c0.034-0.030 0.123-0.116 0.198-0.192l0.137-0.138-0.027-0.023c-0.3-0.254-0.658-0.41-1.066-0.465-0.124-0.017-0.417-0.024-0.533-0.013zM12.967 3.634l-0.388 0.224-1.11 2.265c-0.611 1.246-1.113 2.271-1.116 2.279s0.195-0.115 0.44-0.273l0.446-0.287 0.588-1.189 0.808-0.308c0.444-0.17 0.809-0.307 0.81-0.306s0.053 0.173 0.114 0.381c0.061 0.208 0.114 0.385 0.117 0.393 0.005 0.013 0.043 0.006 0.297-0.057 0.16-0.039 0.293-0.073 0.295-0.075 0.003-0.003-0.863-3.146-0.893-3.24-0.005-0.016-0.012-0.029-0.016-0.029s-0.181 0.101-0.394 0.224zM18.54 3.439c-0.037 0.113-0.922 3.213-0.919 3.221 0.002 0.005 0.104 0.035 0.228 0.066l0.225 0.056 0.045-0.143c0.025-0.078 0.148-0.473 0.274-0.877 0.274-0.877 0.265-0.851 0.272-0.844 0.003 0.003 0.11 0.503 0.238 1.111l0.233 1.105 0.212 0.005 0.285-0.668c0.157-0.368 0.293-0.687 0.303-0.709l0.017-0.041 0.089 0.26c0.049 0.143 0.211 0.623 0.361 1.067l0.273 0.807 0.329 0.229c0.181 0.126 0.33 0.228 0.331 0.227s-0.234-0.816-0.523-1.811l-0.525-1.809-0.209-0.122c-0.115-0.067-0.21-0.12-0.212-0.119s-0.098 0.264-0.215 0.582c-0.235 0.64-0.236 0.643-0.241 0.637-0.002-0.002-0.094-0.455-0.206-1.007s-0.204-1.009-0.206-1.017c-0.003-0.011-0.428-0.237-0.445-0.237-0.002 0-0.009 0.013-0.014 0.030zM13.163 4.835c0.084 0.355 0.151 0.647 0.149 0.649-0.007 0.006-1.187 0.47-1.189 0.467-0.002-0.002 0.195-0.402 0.436-0.889s0.442-0.883 0.445-0.88c0.003 0.004 0.075 0.297 0.158 0.653zM15.968 15.953v8.176l-0.121-0.005c-0.066-0.003-0.182-0.007-0.258-0.010-0.313-0.011-0.743-0.059-1.074-0.12l-0.080-0.015v-8.028c0-4.416 0.002-8.028 0.004-8.028s0.075-0.012 0.162-0.027c0.408-0.070 0.743-0.1 1.319-0.117l0.048-0.001v8.176zM16.715 7.814c0.588 0.054 1.249 0.191 1.787 0.37l0.105 0.035 0.002 3.194 0.002 3.194h-2.061v-6.803l0.030 0c0.016 0 0.077 0.004 0.134 0.010zM12.919 19.747l-0.002 3.788-0.187-0.081c-0.433-0.187-0.875-0.424-1.245-0.669l-0.1-0.066-0.002-6.764-0.002-6.764 0.030-0.023c0.043-0.033 0.359-0.229 0.481-0.299 0.314-0.18 0.565-0.305 0.889-0.441l0.137-0.058 0.002 3.794c0.001 2.087 0.001 5.499 0 7.582zM19.333 8.507c0.259 0.117 0.578 0.284 0.839 0.44 0.106 0.063 0.484 0.31 0.531 0.347 0.015 0.012 0.016 0.163 0.016 2.95v2.938h3.381l0.006 0.052c0.038 0.346 0.037 1.108-0 1.432l-0.006 0.048h-3.381l-0.001 5.887-0.021 0.015c-0.073 0.053-0.35 0.235-0.462 0.303-0.279 0.171-0.606 0.344-0.907 0.481l-0.137 0.062-0.002-3.374-0.002-3.374h-2.636v-1.532h2.636v-6.739l0.021 0.008c0.011 0.004 0.068 0.029 0.125 0.055zM21.498 9.939c0.643 0.586 1.213 1.317 1.643 2.104 0.408 0.748 0.712 1.605 0.86 2.428 0.010 0.058 0.020 0.112 0.022 0.121 0.003 0.015-0.066 0.016-1.359 0.016h-1.363v-4.844l0.034 0.030c0.019 0.016 0.092 0.082 0.162 0.146zM9.866 15.955l-0 5.433-0.046-0.050c-0.064-0.070-0.249-0.297-0.344-0.42-0.446-0.583-0.809-1.218-1.086-1.902l-0.056-0.139v-5.847l0.056-0.139c0.336-0.83 0.806-1.601 1.388-2.275 0.044-0.051 0.082-0.093 0.084-0.093s0.004 2.445 0.003 5.433zM18.61 20.465l-0.002 3.221-0.105 0.035c-0.453 0.151-1.005 0.275-1.505 0.338-0.187 0.024-0.367 0.042-0.417 0.042h-0.030v-6.858h2.061l-0.002 3.221zM24.033 17.259c-0.002 0.009-0.014 0.076-0.027 0.148-0.206 1.169-0.709 2.355-1.408 3.319-0.366 0.506-0.821 1.005-1.262 1.386l-0.034 0.030v-4.899h1.367c1.297 0 1.367 0.001 1.364 0.016zM23.993 19.543c-0.637 4.266-2.438 7.879-4.822 9.671-0.891 0.669-1.839 1.051-2.821 1.134-0.216 0.018-0.642 0.011-0.862-0.014-1.613-0.187-3.156-1.207-4.469-2.954-1.354-1.803-2.37-4.276-2.885-7.022-0.055-0.295-0.131-0.744-0.126-0.749 0.002-0.002 0.029 0.051 0.061 0.117 0.369 0.779 0.895 1.55 1.495 2.193 1.102 1.18 2.484 2.021 4.038 2.46 1.088 0.307 2.261 0.398 3.394 0.264 1.4-0.166 2.759-0.677 3.918-1.475 0.091-0.063 0.202-0.141 0.246-0.174 0.061-0.046 0.088-0.060 0.11-0.060 0.025 0 0.030-0.003 0.030-0.022 0-0.017 0.028-0.044 0.13-0.126 0.925-0.742 1.675-1.643 2.242-2.693 0.096-0.177 0.259-0.513 0.309-0.636 0.012-0.029 0.023-0.051 0.025-0.049s-0.005 0.063-0.016 0.134zM12.583 24.773c-0.139 0.21-0.405 0.256-0.773 0.133-0.052-0.017-0.098-0.028-0.101-0.024-0.006 0.007-0.119 0.315-0.119 0.324 0 0.002 0.146 0.057 0.325 0.122 0.321 0.116 0.324 0.117 0.319 0.14-0.003 0.013-0.142 0.401-0.309 0.862-0.197 0.544-0.301 0.841-0.294 0.845 0.030 0.018 0.52 0.189 0.526 0.183 0.010-0.011 0.902-2.486 0.898-2.49-0.003-0.003-0.423-0.157-0.429-0.157-0.001 0-0.020 0.028-0.042 0.062zM19.109 24.731c-0.26 0.029-0.541 0.156-0.715 0.323-0.252 0.242-0.319 0.562-0.196 0.94 0.074 0.228 0.22 0.402 0.418 0.497 0.138 0.067 0.191 0.078 0.369 0.077 0.133-0.001 0.161-0.004 0.239-0.025 0.255-0.070 0.434-0.194 0.511-0.354 0.017-0.035 0.033-0.063 0.037-0.063 0.008 0 0.038 0.099 0.058 0.187 0.023 0.106 0.028 0.272 0.009 0.354-0.039 0.173-0.138 0.284-0.3 0.334-0.154 0.048-0.286 0.006-0.375-0.12l-0.018-0.026-0.26 0.089c-0.143 0.049-0.261 0.090-0.263 0.091-0.009 0.007 0.026 0.068 0.074 0.132 0.156 0.207 0.423 0.313 0.712 0.282 0.332-0.036 0.622-0.192 0.787-0.423 0.058-0.082 0.12-0.215 0.147-0.32 0.032-0.124 0.041-0.367 0.017-0.524-0.029-0.196-0.108-0.462-0.205-0.687-0.235-0.548-0.598-0.813-1.045-0.763zM14.056 25.171c-0.392 0.064-0.642 0.327-0.642 0.675 0 0.152 0.044 0.259 0.15 0.366 0.035 0.035 0.078 0.075 0.096 0.088 0.023 0.017 0.028 0.025 0.018 0.028-0.169 0.054-0.245 0.097-0.338 0.189-0.107 0.106-0.158 0.212-0.187 0.389-0.026 0.159-0.001 0.338 0.066 0.471 0.12 0.237 0.358 0.4 0.696 0.475 0.533 0.118 0.956-0.036 1.157-0.423 0.062-0.119 0.085-0.206 0.090-0.344 0.006-0.148-0.005-0.209-0.054-0.312-0.030-0.063-0.052-0.092-0.116-0.155-0.043-0.043-0.098-0.090-0.122-0.105-0.048-0.030-0.053-0.040-0.023-0.048 0.048-0.013 0.161-0.078 0.209-0.12 0.096-0.085 0.161-0.219 0.181-0.368 0.029-0.221-0.073-0.442-0.277-0.596-0.115-0.087-0.311-0.166-0.496-0.199-0.11-0.020-0.317-0.025-0.409-0.010zM19.307 25.202c0.173 0.085 0.307 0.361 0.272 0.559-0.038 0.214-0.244 0.365-0.483 0.353-0.151-0.007-0.247-0.079-0.329-0.247-0.118-0.243-0.107-0.433 0.032-0.567 0.093-0.090 0.214-0.134 0.356-0.13 0.083 0.002 0.098 0.005 0.152 0.032zM16.501 25.264c-0.419 0.068-0.692 0.294-0.782 0.648-0.018 0.072-0.021 0.102-0.020 0.268 0.001 0.177 0.002 0.191 0.026 0.268 0.071 0.233 0.205 0.396 0.409 0.499 0.145 0.073 0.318 0.103 0.506 0.089 0.238-0.018 0.425-0.104 0.519-0.239 0.031-0.045 0.039-0.024 0.039 0.098-0 0.39-0.137 0.618-0.398 0.664-0.115 0.020-0.237-0.010-0.303-0.074-0.037-0.036-0.083-0.114-0.083-0.141 0-0.011-0.010-0.014-0.039-0.013-0.078 0.001-0.517 0.041-0.523 0.047-0.011 0.011 0.023 0.116 0.061 0.19 0.092 0.177 0.246 0.3 0.46 0.367 0.111 0.034 0.222 0.046 0.376 0.040 0.216-0.008 0.386-0.060 0.542-0.164 0.232-0.155 0.375-0.395 0.437-0.735 0.016-0.089 0.019-0.142 0.020-0.329 0.001-0.24-0.012-0.379-0.054-0.589-0.083-0.414-0.27-0.692-0.553-0.825-0.125-0.059-0.204-0.074-0.394-0.078-0.114-0.002-0.189 0.001-0.246 0.010zM14.464 25.606c0.151 0.048 0.234 0.169 0.225 0.332-0.011 0.217-0.186 0.345-0.417 0.306-0.133-0.022-0.24-0.099-0.291-0.208-0.021-0.044-0.024-0.064-0.024-0.134 0-0.075 0.003-0.088 0.030-0.143 0.062-0.125 0.18-0.185 0.345-0.176 0.041 0.002 0.1 0.013 0.132 0.023zM16.77 25.679c0.083 0.013 0.181 0.063 0.228 0.115 0.073 0.083 0.115 0.2 0.125 0.345 0.007 0.104-0.006 0.173-0.047 0.257-0.068 0.139-0.216 0.222-0.397 0.222-0.171 0-0.297-0.071-0.36-0.206-0.066-0.14-0.082-0.362-0.035-0.488 0.068-0.181 0.264-0.281 0.487-0.246zM14.26 26.641c0.111 0.026 0.199 0.083 0.251 0.162 0.158 0.24 0.028 0.597-0.239 0.658-0.078 0.018-0.124 0.018-0.205 0.001-0.132-0.028-0.235-0.098-0.286-0.193-0.039-0.073-0.049-0.119-0.049-0.211 0.001-0.215 0.115-0.379 0.29-0.42 0.054-0.013 0.175-0.011 0.237 0.004z"/>
</svg>
