<svg xmlns="http://www.w3.org/2000/svg" width="499" height="500" fill="#000000"><path fill-rule="evenodd" d="M218.055 2.053C18.297 27.517-71.075 271.338 65.65 417.837c156.942 168.158 432.928 61.305 432.928-167.618C498.578 98.941 367.52-17 218.055 2.053zm-35.59 60.118c-9.882 38.707 10.084 105.887 41.431 139.401 10.9 11.655 14.278 16.915 12.193 19-1.586 1.586-4.972 9.05-7.522 16.588l-4.639 13.7-13.104-19.454c-7.208-10.702-15.084-23.299-17.504-28-12.637-24.55-29.011-33.49-37.531-20.489-5.943 9.072-8.332 8.306-11.565-3.702-3.199-11.88-.533-21.537 7.498-27.161 5.023-3.521 5.078-4.247 1.183-16.076-6.96-21.141.01-44.886 20.747-70.693 9.879-12.291 11.28-12.787 8.813-3.114zM346.02 90.134c7.285 14.621 8.787 34.371 3.714 48.916-2.642 7.577-2.233 9.079 4.231 15.543 6.165 6.165 6.975 8.744 5.861 18.628-1.81 16.065-5.37 18.681-13.138 9.649-9.984-11.608-18.05-7.833-32.687 15.3-6.635 10.48-16.934 26.429-22.891 35.437l-10.831 16.377-4.247-11.098c-2.333-6.105-5.777-13.529-7.651-16.496-3.085-4.88-2.027-6.833 11.116-20.509 27.597-28.724 42.456-69.184 42.675-116.202l.135-28.618 8.538 9.876c4.695 5.432 11.523 15.87 15.175 23.197zm-33.73 6.347c-1.478 22.643-6.825 47.18-8.968 41.157-.596-1.676.76-10.161 3.012-18.855 2.254-8.694 4.096-22.463 4.096-30.6s.757-14.795 1.686-14.795c.927 0 1.006 10.393.174 23.093zm-114.124 28.277c3.489 12.006 3.502 17.581.037 14.113-2.943-2.943-9.074-38.447-8.8-50.967.272-12.518.409-12.247 2.621 5.278 1.285 10.161 4.049 24.371 6.142 31.576zm67.515-.564 6.392 5.938-18.084.786c-20.871.911-23.854-.585-15.186-7.611 8.311-6.738 19.052-6.382 26.878.887zm-33.041 24.701c-4.904 9.498-6.759 17.406-7.023 29.929l-.357 17.023-6.125-7.683c-3.371-4.225-9.288-13.492-13.154-20.594l-7.026-12.911 5.318-5.318c4.7-4.701 32.315-16.071 34.276-14.113.415.417-2.243 6.567-5.909 13.667zm30.349-3.587c3.42 6.529 6.44 18.11 7.226 27.712l1.349 16.496h-40.312l.015-8.578c.058-35.184 20.138-57.737 31.722-35.63zm30.394-.594c11.087 6.852 11.28 10.612 1.435 27.776-12.42 21.652-15.08 22.37-16.701 4.505-1.158-12.777-4.072-22.083-12.109-38.689-2.003-4.136 17.823.507 27.375 6.408zm-98.759 75.077c6.722 11.655 11.795 21.663 11.277 22.238-1.612 1.8-53.828-15.925-53.828-18.274 0-4.091 5.538-16.971 12.223-28.425l6.619-11.338 5.746 7.305c3.159 4.017 11.243 16.839 17.963 28.494zm150.185-13.347c4.194 8.585 7.036 16.561 6.318 17.723-1.264 2.045-48.895 18.134-53.685 18.134-2.452 0 23.701-45.224 30.94-53.509 4.841-5.534 5.382-4.953 16.427 17.652zm-76.278-9.011c6.876 0 6.179 3.867-1.62 8.977-5.463 3.578-7.517 3.739-12.22.963-4.513-2.666-5.896-2.674-6.849-.042-2.13 5.88-16.59-.657-16.59-7.501 0-2.634 14.864-4.666 24.743-3.384 4.172.544 9.815.987 12.536.987zm-5.856 28.164c15.775 23.817 7.07 46.755-15.833 41.724-17.512-3.848-19.692-22.843-4.957-43.183 9.882-13.64 10.832-13.574 20.79 1.459zm-16.662 9.235c-7.501 10.713-4.584 23.305 5.4 23.305 8.385 0 12.001-9.114 7.781-19.615-4.031-10.032-7.966-11.133-13.181-3.69zm-93.206 10.209c1.85 13.798 8.14 23.17 18.599 27.72l8.38 3.645-8.441.103c-8.287.1-8.387.25-5.579 8.311 3.605 10.343 1.32 41.901-4.204 58.051-7.942 23.207-9.167 53.199-3.278 80.22 1.393 6.398.691 5.762-3.661-3.296-8.068-16.802-9.282-40.447-3.901-76.048 10.219-67.605-9.649-94.8-50.925-69.698-11.53 7.012-11.528 7.015-5.379-7.783 12.352-29.721 55.164-45.282 58.389-21.225zm233.539-3.875c11.441 5.701 14.677 9.04 20.312 20.951 8.675 18.335 8.947 17.936-7.153 10.441-36.781-17.124-51.7-2.399-48.045 47.42 3.967 54.089 3.127 91.545-2.251 100.474-4.342 7.203-4.624 7.321-3.131 1.32 4.115-16.549 4.12-41.82.011-60.704-12.038-55.303-12.653-61.793-7.572-79.838 1.016-3.613-.319-4.621-6.136-4.629l-7.435-.008 8.435-5.144c10.422-6.355 15.706-14.302 18.055-27.168 2.291-12.537 13.92-13.574 34.91-3.115zm-192.02 4.669c19.24 4.885 23.8 7.171 31.834 15.941 15.174 16.562 31.946 16.889 49.078.956 9.931-9.238 15.975-12.537 27.274-14.891 7.984-1.663 20.235-4.899 27.224-7.189 15.194-4.983 16.461-4.165 12.439 8.026-12.003 36.369-149.433 42.463-176.673 7.836-7.812-9.932-7.559-20.748.428-18.246 3.264 1.024 16.044 4.429 28.396 7.567zm-85.951 5.487c-6.044 4.418-2.906 9.203 3.418 5.213 4.943-3.117 7.585-8.955 4.054-8.955-1.294 0-4.659 1.683-7.472 3.742zm278.594-.066c0 3.751 7.601 8.076 9.992 5.688 1.684-1.687-4.611-9.364-7.675-9.364-1.275 0-2.317 1.654-2.317 3.676zm-171.991 32.946c2.832 1.795 2.697 2.547-.684 3.846-4.125 1.583-17.353-2.054-17.353-4.772 0-2.238 14.197-1.507 18.037.926zm86.655 1.951c-8.19 4.439-19.475 2.85-12.244-1.724 2.138-1.351 7.449-2.428 11.803-2.394l7.918.066zm19.599 14.888c-4.819 12.674-14.637 16.859-26.142 11.148-8.076-4.009-8.836-5.02-4.455-5.944 9.19-1.939 10.842-5.875 2.508-5.972-4.281-.053-10.587-1.647-14.007-3.545-5.672-3.143-4.851-3.431 9.243-3.241 11.132.153 18.047-1.306 24.695-5.212l9.233-5.424.786 5.614c.433 3.085-.406 8.746-1.861 12.576zm56.357 15.899c-2.824 1.565-8.245 6.155-12.049 10.198l-6.912 7.356-1.665-12.154c-2.357-17.206-2.077-25.826 1.114-34.216l2.776-7.308 10.935 16.638c10.406 15.836 10.686 16.778 5.801 19.486zM146.27 304.48c1.298 29.789.19 31.296-13.643 18.551l-11.655-10.739 9.612-13.848c12.167-17.525 14.701-16.551 15.686 6.036zm54.057-12.98c5.91 2.143 14.529 3.014 21.114 2.132 10.877-1.454 10.98-1.396 4.532 2.529-3.629 2.209-10.755 4.157-15.836 4.326l-9.237.306 7.424 3.286c6.659 2.945 6.984 3.647 3.157 6.822-6.81 5.651-19.964 4.376-25.509-2.47-6.601-8.153-6.788-25.282-.248-22.508 2.542 1.077 9.111 3.587 14.603 5.577zm65.235 9.013c0 2.65-1.188 5.553-2.639 6.45-1.452.898-2.639 2.816-2.639 4.265 0 1.447 2.639.784 5.867-1.475 12.51-8.765 26.121 1.169 16.368 11.945-5.872 6.49-8.078 6.382-9.873-.485-1.673-6.393-7.084-4.368-7.084 2.652 0 16.097-21.011 16.744-28.15.866-3.909-8.691-4.553-9.15-5.479-3.912-1.207 6.836-3.075 7.311-9.702 2.466-5.569-4.073-4.756-11.919 1.654-15.957 3.508-2.21 6.287-1.523 12.537 3.095 9.055 6.696 9.66 6.034 4.173-4.576-4.872-9.42-4.012-10.151 11.905-10.151 10.887 0 13.062.803 13.062 4.817zm-133.515 29.544 9.884 8.578-1.932 23.632-1.935 23.632-9.013-10.425c-4.957-5.736-12.46-15.633-16.675-21.996l-7.662-11.565 7.184-10.162c8.713-12.32 7.976-12.256 20.149-1.694zm265.408 11.658c.039 1.691-6.744 12.201-15.071 23.349l-15.141 20.273-1.71-8.837c-6.256-32.331-5.897-35.084 5.978-45.81l11.024-9.96 7.424 8.952c4.083 4.925 7.456 10.338 7.496 12.033zm-181.245-4.511c-9.253 5.643-14.376 18.99-14.975 39.024-.404 13.453-.383 13.447-6.962 2.655-13.785-22.608-4.545-46.855 17.844-46.836l12.536.008zm93.056.285c6.706 7.409 6.556 29.615-.283 42.054l-5.08 9.238-.792-7.918c-2.362-23.582-6.403-35.604-14.165-42.136l-7.952-6.691h11.668c8.443 0 13.036 1.507 16.604 5.453zm-30.508 13.022c2.745 5.131 2.006 5.279-26.3 5.279-16.018 0-29.124-.496-29.124-1.103 0-11.257 49.634-14.997 55.424-4.176zm-155.036 27.673c13.062 16.509 13.648 17.559 22.5 40.289 6.606 16.962 4.516 17.643-19.222 6.257-33.7-16.163-44.57-36.189-32.23-59.383l8.255-15.517 4.07 6.237c2.238 3.434 9.72 13.384 16.627 22.117zm288.597-5.899c9.412 20.777-17.187 51.295-51.083 58.611-10.111 2.182-10.014 2.533-3.357-12.136 2.871-6.326 5.247-13.705 5.278-16.395.032-2.689 5.508-10.953 12.173-18.364 6.661-7.411 14.679-17.955 17.815-23.431l5.7-9.958 4.495 5.888c2.473 3.238 6.514 10.343 8.979 15.785zm-218.294 28.204c8.136 8.076 17.168 16.186 20.071 18.021 2.903 1.836 1.56 1.58-2.982-.563-12.444-5.875-24.754-17.144-33.091-30.291l-7.475-11.787v8.28c0 4.553-1.28 9.071-2.842 10.037-1.969 1.214-2.315-2.193-1.125-11.061 2.735-20.362 4.186-21.885 8.618-9.029 2.562 7.435 9.435 17.068 18.826 26.393zm75.087-32.706c-1.98 5.16-32.841 4.465-34.572-.776-.802-2.431 3.811-3.299 17.522-3.299 15.699 0 18.367.638 17.05 4.075zm67.04 23.637c-.026 7.258-.517 10.227-1.087 6.598-.573-3.629-1.663-9.44-2.426-12.916l-1.385-6.319-4.213 6.319c-10.57 15.851-38.293 39.309-46.461 39.309-1.333 0 4.663-4.732 13.328-10.518 16.3-10.884 26.179-22.769 34.039-40.948l4.563-10.557 1.845 7.918c1.013 4.355 1.821 13.856 1.797 21.114zm-102.158-11.877c9.462 0 10.454.642 10.454 6.773 0 17.588 12.28 21.367 13.711 4.217.765-9.2 1.343-9.741 11.927-11.153 6.118-.818 13.539-3.674 16.495-6.348 7.454-6.748 7.723 9.224.357 21.304-18.33 30.062-61.414 25.475-74.053-7.883-4.548-12.003-1.169-19.602 5.524-12.418 3.534 3.795 8.385 5.508 15.585 5.508zm-64.325 25.514c-.968.966-1.76.174-1.76-1.76 0-1.935.792-2.727 1.76-1.761a2.501 2.501 0 0 1 0 3.521z" clip-rule="evenodd"/></svg>