<svg xmlns="http://www.w3.org/2000/svg" width="32" height="32" version="1.1" fill="#000000"><path fill-opacity=".141" d="M 9.450 1.407 C -0.639 5.801, -3.022 19.213, 4.882 27.118 C 13.138 35.373, 25.681 32.772, 31.033 21.695 C 33.092 17.434, 33.758 10.414, 32 11.500 C 31.450 11.840, 31 11.451, 31 10.636 C 31 8.299, 25.916 2.863, 22.329 1.364 C 18.254 -0.338, 13.420 -0.322, 9.450 1.407 M 0.272 16 C 0.272 18.475, 0.467 19.488, 0.706 18.250 C 0.944 17.012, 0.944 14.988, 0.706 13.750 C 0.467 12.512, 0.272 13.525, 0.272 16" stroke="none" fill="#000000" fill-rule="evenodd"/><path fill-opacity=".092" d="M 7.401 7.398 C 6.423 9.947, 12.438 15.962, 14.201 14.199 C 15.177 13.223, 14.670 12.203, 11.759 9.292 C 8.551 6.084, 7.997 5.843, 7.401 7.398 M 19.494 10.007 C 17.271 12.326, 16.884 13.284, 17.800 14.200 C 18.716 15.116, 19.674 14.729, 21.993 12.506 C 25.147 9.485, 25.911 7, 23.687 7 C 22.965 7, 21.078 8.353, 19.494 10.007 M 9.670 19.823 C 8.201 21.356, 7 23.121, 7 23.746 C 7 26.196, 8.826 25.775, 11.884 22.619 C 14.518 19.902, 14.842 19.114, 13.713 18.176 C 12.640 17.286, 11.755 17.646, 9.670 19.823 M 18.200 18.200 C 17.273 19.127, 17.607 20.024, 19.689 22.198 C 21.166 23.739, 22.965 25, 23.687 25 C 25.863 25, 25.172 22.539, 22.198 19.689 C 20.024 17.607, 19.127 17.273, 18.200 18.200" stroke="none" fill="#000000" fill-rule="evenodd"/><path fill-opacity=".608" d="M 7.660 7.741 C 6.922 8.935, 12.720 14.613, 13.688 13.645 C 14.078 13.255, 13.014 11.553, 11.323 9.862 C 9.633 8.171, 7.984 7.217, 7.660 7.741 M 20.476 10.025 C 16.670 13.998, 18.238 15.223, 22.138 11.323 C 23.829 9.633, 24.783 7.984, 24.259 7.660 C 23.735 7.336, 22.032 8.400, 20.476 10.025 M 9.510 20.990 C 7.935 22.634, 6.955 24.289, 7.333 24.667 C 8.065 25.398, 14 20.187, 14 18.813 C 14 17.231, 12.339 18.036, 9.510 20.990 M 18 18.813 C 18 20.192, 23.596 25.070, 24.333 24.333 C 24.715 23.951, 23.813 22.370, 22.327 20.819 C 19.643 18.018, 18 17.256, 18 18.813" stroke="none" fill="#000000" fill-rule="evenodd"/><path fill-opacity=".474" d="M 10 10.500 C 11.292 11.875, 12.574 13, 12.849 13 C 13.124 13, 12.292 11.875, 11 10.500 C 9.708 9.125, 8.426 8, 8.151 8 C 7.876 8, 8.708 9.125, 10 10.500 M 20.924 10.750 L 18.500 13.500 21.250 11.076 C 22.762 9.742, 24 8.505, 24 8.326 C 24 7.541, 23.190 8.180, 20.924 10.750 M 9.924 21.750 L 7.500 24.500 10.250 22.076 C 12.820 19.810, 13.459 19, 12.674 19 C 12.495 19, 11.258 20.238, 9.924 21.750 M 21 21.500 C 22.292 22.875, 23.574 24, 23.849 24 C 24.124 24, 23.292 22.875, 22 21.500 C 20.708 20.125, 19.426 19, 19.151 19 C 18.876 19, 19.708 20.125, 21 21.500" stroke="none" fill="#000000" fill-rule="evenodd"/></svg>