<svg xmlns="http://www.w3.org/2000/svg" width="40" height="40" fill="#000000"><g clip-path="url(#a)"><path fill="#0d0d0d" d="M19.51 1.629c.871-.455 1.935.6 1.471 1.47-.269.71-1.289.9-1.81.359-.551-.52-.371-1.547.338-1.83m-9.378 1.01c.53-.218 1.2.268 1.146.845.056.627-.71 1.088-1.25.79-.715-.277-.633-1.438.104-1.634zm19.205 1.653c-.827-.1-.958-1.401-.161-1.664.618-.302 1.185.263 1.275.85-.13.5-.548.957-1.114.813zM12.265 6.63c.886-.56 2.15.274 2.013 1.302-.046 1.039-1.425 1.64-2.203.938-.752-.551-.639-1.816.19-2.24zm13.517.594c.395-1.017 1.996-1.049 2.445-.056.445.77-.102 1.726-.894 1.988-1.049.196-2.045-.938-1.551-1.93zM18.38 9.098c-.009-.875.788-1.527 1.62-1.587.552.11 1.153.346 1.39.902.44.768.049 1.825-.748 2.178-.364.204-.795.128-1.192.104-.607-.298-1.117-.882-1.07-1.597zM4.435 10.373c.809-.498 1.9.41 1.594 1.289-.169.76-1.19 1.069-1.774.583-.624-.454-.525-1.547.18-1.872m29.945-.002c.686-.533 1.819.078 1.737.944.046.79-.933 1.386-1.614.98-.75-.338-.827-1.492-.123-1.925zm-12.078 1.572c1.132-.406 2.477.08 3.122 1.09.852 1.234.399 3.114-.922 3.822-1.37.837-3.368.128-3.874-1.401-.574-1.369.262-3.082 1.674-3.51m-6.644.136c1.255-.592 2.944-.096 3.55 1.188.713 1.25.162 2.99-1.114 3.635-1.277.725-3.078.176-3.696-1.166-.693-1.298-.078-3.06 1.26-3.657m-6.653 2.274c.096-.809.858-1.335 1.628-1.39.83.1 1.492.745 1.582 1.585-.055.83-.697 1.643-1.577 1.638-.969.083-1.818-.88-1.633-1.832zm19.65-1.213c.994-.578 2.375.264 2.33 1.407.069 1.21-1.46 2.064-2.45 1.353-1.028-.591-.948-2.256.12-2.76zm-15.701 4.266c1.163-.32 2.492.228 3.063 1.297.624 1.076.37 2.57-.601 3.36-1.245 1.158-3.54.693-4.202-.887-.761-1.448.163-3.39 1.74-3.77m12.602-.006c1.13-.324 2.458.112 3.066 1.142.804 1.178.42 2.935-.776 3.695-1.254.881-3.195.418-3.884-.96-.836-1.427.005-3.442 1.594-3.877M5.473 18.744c1.005-.38 2.119.728 1.712 1.724-.249.908-1.528 1.244-2.188.574-.773-.628-.487-2.026.477-2.298zm27.231 1.445c-.029-.832.58-1.57 1.434-1.616.688.11 1.357.664 1.302 1.413.063.99-1.129 1.662-1.972 1.197-.395-.2-.597-.606-.764-.994zm-32.17-.957c.604-.264 1.352.26 1.214.93-.032.76-1.154 1.053-1.566.418-.365-.44-.147-1.12.352-1.348m38.109-.016c.425-.303 1.108-.086 1.277.412.286.543-.239 1.287-.85 1.195-.858.078-1.136-1.23-.427-1.607m-22.406 3.648c1.59-.414 3.3.912 3.31 2.55.104 1.655-1.58 3.122-3.208 2.74-1.258-.203-2.246-1.415-2.205-2.687-.004-1.216.914-2.346 2.103-2.603m6.298-.004c1.615-.451 3.375.899 3.35 2.575.085 1.624-1.547 3.042-3.14 2.72-1.5-.194-2.607-1.842-2.189-3.298.212-.97 1.022-1.759 1.98-1.997m-12.144 1.008c1.117-.19 2.165 1.056 1.711 2.116-.33 1.13-1.975 1.437-2.702.514-.853-.887-.216-2.507.991-2.63m18.471.052c.996-.417 2.219.444 2.142 1.525.04 1.19-1.47 2.01-2.443 1.316-1.104-.624-.903-2.459.301-2.841m5.163 5.178c-.39-.727.319-1.69 1.126-1.556.402-.007.683.31.94.576.053.431.141.944-.216 1.277-.486.614-1.586.439-1.85-.296zM4.432 27.745c.754-.503 1.84.246 1.67 1.128-.09.78-1.072 1.226-1.72.784-.694-.401-.669-1.545.05-1.912zm14.904 1.633c.988-.436 2.246.424 2.152 1.512.073 1.202-1.483 2.035-2.448 1.312-1.072-.62-.894-2.443.297-2.824zm-6.904 1.61c.841-.443 1.97.322 1.893 1.264.026.773-.728 1.432-1.491 1.317-.632-.013-1.044-.58-1.247-1.118.01-.587.252-1.241.845-1.462zm13.983.014c.865-.534 2.094.234 2.013 1.24.022 1.052-1.368 1.727-2.173 1.035-.78-.541-.685-1.844.16-2.275m2.432 6.012c-.384-.583.068-1.284.693-1.417.502.103 1.033.48.928 1.063-.073.788-1.226 1.03-1.621.354m-19.302-.506c.153-.461.524-.92 1.067-.8.792.056 1.027 1.25.334 1.618-.623.42-1.346-.156-1.401-.818m9.312.53c.151-.683 1.035-1.015 1.617-.652.384.165.497.595.596.961-.053.19-.1.382-.146.572-.239.283-.544.566-.942.555-.737.087-1.402-.747-1.125-1.436"/></g><defs><clipPath id="a"><path fill="#ffffff" d="M0 0h40v40H0z"/></clipPath></defs></svg>