<svg width="500" height="397" viewBox="0 0 500 397" fill="#000000" xmlns="http://www.w3.org/2000/svg">
<path fill-rule="evenodd" clip-rule="evenodd" d="M389.118 1.83369C388.109 2.83988 387.279 60.6766 387.274 130.357C387.263 271.98 387.793 267.982 367.378 280.428C337.297 298.77 308.774 277.36 304.755 233.417C288.689 57.713 32.0798 42.6174 2.20476 215.619C-19.3734 340.598 121.988 441.674 227.361 376.607L236.507 370.957L221.637 354.894C203.602 335.416 194.464 320.277 186.571 296.804C179.33 275.268 180.804 276.714 171.198 281.723C134.546 300.835 95.3104 254.525 118.61 219.652C142.937 183.237 194.844 204.323 194.844 250.621C194.844 379.779 363.722 443.684 455.956 349.426C496.77 307.713 499.909 292.054 499.959 129.898L500 0H445.476C415.485 0 390.124 0.824746 389.118 1.83369ZM305.5 97.7188C291.971 101.361 271.361 110.464 264.782 115.701C262.894 117.205 267.424 123.86 277.645 134.601C294.517 152.331 312.029 183.674 314.822 201.137C315.749 206.937 316.708 211.685 316.95 211.685C317.195 211.685 322.245 209.211 328.178 206.187C340.989 199.655 352.755 199.204 363.543 204.829C367.876 207.088 371.895 208.936 372.478 208.936C373.06 208.936 373.539 182.956 373.539 151.204V93.4713L346.735 93.6528C331.991 93.7517 313.437 95.5827 305.5 97.7188Z" fill="#000000"/>
</svg>
