<!-- Generated by IcoMoon.io -->
<svg version="1.1" xmlns="http://www.w3.org/2000/svg" width="32" height="32" viewBox="0 0 32 32" fill="#000000">
<title>adx</title>
<path d="M16 0c1.934 1.912 3.867 3.825 5.797 5.74-1.019 1.011-2.040 2.021-3.061 3.031-0.915-0.911-1.822-1.828-2.736-2.738-0.913 0.911-1.821 1.826-2.735 2.738-1.021-1.010-2.042-2.020-3.062-3.031 1.93-1.916 3.862-3.829 5.797-5.74zM10.204 26.273c1.027-1.002 2.039-2.017 3.061-3.023 0.913 0.911 1.822 1.826 2.735 2.738 0.915-0.911 1.823-1.826 2.737-2.738l3.061 3.029c-1.929 1.918-3.862 3.831-5.798 5.741-1.931-1.916-3.875-3.821-5.796-5.748z"/>
<path d="M6.067 9.822c1.233-1.224 2.468-2.446 3.705-3.666 2.079 2.049 4.155 4.103 6.228 6.16 2.079-2.050 4.155-4.104 6.228-6.16 1.238 1.218 2.473 2.439 3.705 3.663v0.029c-2.065 2.056-4.135 4.107-6.21 6.152 2.069 2.054 4.139 4.106 6.21 6.156v0.023c-1.232 1.228-2.467 2.453-3.705 3.674-2.082-2.049-4.147-4.115-6.227-6.165-2.082 2.049-4.146 4.117-6.228 6.165-1.239-1.221-2.475-2.445-3.707-3.673v-0.021c2.068-2.055 4.138-4.108 6.21-6.159-2.069-2.052-4.139-4.102-6.21-6.153z"/>
</svg>
