<!-- Generated by IcoMoon.io -->
<svg version="1.1" xmlns="http://www.w3.org/2000/svg" width="32" height="32" viewBox="0 0 32 32" fill="#000000">
<title>ae</title>
<path d="M6.613 8.489c0.33-0.055 0.71-0.087 1.097-0.087 0.99 0 1.931 0.206 2.785 0.577l-0.045-0.017c1.633 0.705 2.929 1.989 4.033 3.348 1.187 1.447 2.156 3.054 3.229 4.584 0.852 1.202 1.745 2.396 2.859 3.368 0.627 0.54 1.331 0.999 2.125 1.262 1.134 0.376 2.387 0.312 3.51-0.071 1.378-0.492 2.491-1.443 3.18-2.664l0.015-0.029c0.683 0 1.368 0.005 2.051 0-0.696 1.721-1.943 3.099-3.518 3.945l-0.041 0.020c-0.687 0.369-1.485 0.648-2.329 0.792l-0.047 0.007c-1.176 0.161-2.401 0.124-3.528-0.28-1.294-0.437-2.407-1.286-3.352-2.256-2.513-2.568-4.031-5.914-6.478-8.535-0.65-0.679-1.38-1.302-2.235-1.709-0.652-0.316-1.418-0.501-2.227-0.501-0.332 0-0.658 0.031-0.973 0.091l0.032-0.005c-1.525 0.256-2.824 1.073-3.703 2.227l-0.010 0.014c-0.724 0.944-1.16 2.142-1.16 3.442 0 0.53 0.072 1.043 0.208 1.529l-0.010-0.040c0.463 1.646 1.59 2.969 3.065 3.686l0.035 0.015c1.398 0.668 3.093 0.791 4.526 0.162 0.834-0.355 1.561-0.922 2.205-1.552 0.619-0.626 1.193-1.302 1.712-2.018l0.035-0.050c0.032-0.042 0.067-0.081 0.104-0.12 0.355 0.548 0.73 1.079 1.088 1.624-1.034 1.344-2.206 2.634-3.699 3.473-0.627 0.36-1.355 0.635-2.128 0.785l-0.045 0.007c-3.433 0.576-6.827-1.22-8.282-4.383-1.297-2.86-0.686-6.224 1.533-8.446 1.145-1.155 2.655-1.947 4.342-2.19l0.041-0.005z"/>
<path d="M20.925 9.259c0.97-0.539 2.127-0.857 3.359-0.857 0.357 0 0.707 0.027 1.049 0.078l-0.039-0.005c0.892 0.116 1.7 0.369 2.44 0.74l-0.044-0.020c2.007 0.972 3.555 2.859 4.070 5.034 0.136 0.527 0.215 1.132 0.215 1.755 0 0.337-0.023 0.668-0.067 0.993l0.004-0.038c-3.024-0.005-6.049-0.005-9.073 0-0.005-0.614 0-1.229 0-1.843h7.201c-0.237-1.415-0.964-2.629-1.998-3.487l-0.009-0.008c-1.408-1.172-3.398-1.666-5.17-1.154-0.856 0.258-1.629 0.74-2.3 1.324-0.887 0.772-1.63 1.692-2.318 2.641-0.355-0.548-0.737-1.083-1.107-1.624 1.049-1.369 2.251-2.69 3.789-3.529z"/>
</svg>
