<svg xmlns="http://www.w3.org/2000/svg" width="64" height="64" version="1.1" fill="#000000"><path fill-opacity=".224" d="M 19.331 2.851 C 11.895 6.452, 6.263 11.858, 2.982 18.542 C -0.367 25.368, -0.514 38.254, 2.680 45.196 C 5.461 51.243, 12.840 58.599, 18.742 61.210 C 36.180 68.924, 57.443 59.173, 62.270 41.250 C 62.900 38.913, 63.771 37, 64.207 37 C 64.643 37, 64.968 34.188, 64.930 30.750 C 64.880 26.332, 64.607 25.086, 64 26.500 C 63.211 28.335, 63.134 28.294, 63.061 26 C 62.933 22.017, 58.601 13.838, 54.382 9.613 C 48.882 4.105, 41.500 0.947, 32.740 0.354 C 26.201 -0.089, 24.903 0.153, 19.331 2.851 M 42 5.465 C 42 6.392, 48.230 13, 49.104 13 C 51.092 13, 49.801 10.341, 46.553 7.750 C 43.231 5.099, 42 4.481, 42 5.465 M 38.550 10 C 40.109 20.020, 40.113 20.030, 41.673 18.470 C 42.956 17.186, 42.821 16.363, 40.571 11.754 C 38.206 6.910, 38.048 6.773, 38.550 10 M 21.116 12.781 C 21.186 14.428, 21.410 14.820, 21.685 13.774 C 22.073 12.293, 22.490 12.435, 24.622 14.774 L 27.106 17.500 25.590 14.371 C 23.508 10.074, 20.962 9.169, 21.116 12.781 M 48.655 20.829 C 46.832 22.843, 46.430 24.470, 47.995 23.503 C 49.038 22.859, 51.347 19, 50.690 19 C 50.481 19, 49.565 19.823, 48.655 20.829 M 0.320 32 C 0.320 35.575, 0.502 37.038, 0.723 35.250 C 0.945 33.462, 0.945 30.538, 0.723 28.750 C 0.502 26.962, 0.320 28.425, 0.320 32 M 36.609 36.423 C 36.909 37.205, 37.882 38.125, 38.771 38.466 C 40.099 38.975, 40.058 38.721, 38.539 37.043 C 36.361 34.636, 35.862 34.476, 36.609 36.423" stroke="none" fill="#000000" fill-rule="evenodd"/><path fill-opacity=".237" d="M 20.967 4.507 C 19.610 5.281, 17.520 6.360, 16.323 6.905 C 13.712 8.093, 9.309 15.324, 7.463 21.456 C 6.729 23.896, 5.673 26.742, 5.117 27.781 C 3.708 30.415, 6.260 42.062, 9.433 47.476 C 12.574 52.836, 17.779 57.442, 22.430 58.977 C 25.215 59.896, 28.127 59.894, 35.266 58.970 C 49.652 57.107, 56.716 52.365, 58.795 43.174 C 60.287 36.580, 60.355 30, 58.933 30 C 58.320 30, 58.136 29.147, 58.500 28 C 58.852 26.890, 58.680 26, 58.113 26 C 57.551 26, 56.804 24.471, 56.453 22.602 C 56.102 20.733, 54.620 17.896, 53.158 16.297 C 51.696 14.698, 51.081 14.145, 51.791 15.069 C 52.871 16.473, 52.741 17.325, 50.995 20.284 C 48.733 24.118, 46.416 25.594, 45.644 23.694 C 45.376 23.037, 45.122 23.288, 45.079 24.250 C 44.942 27.285, 43.502 26.185, 39.483 19.974 L 35.583 13.948 34.213 16.562 C 33.460 18, 32.624 18.958, 32.356 18.690 C 32.088 18.422, 33.260 15.447, 34.960 12.080 C 37.793 6.466, 37.903 5.899, 36.275 5.262 C 32.650 3.845, 27.432 4.556, 24.112 6.920 C 19.880 9.933, 21.697 11.337, 27.740 9.724 C 30.048 9.108, 32.208 8.874, 32.538 9.205 C 32.869 9.536, 32.191 11.665, 31.032 13.937 C 29.873 16.210, 29.261 18.616, 29.674 19.284 C 30.086 19.953, 29.203 19.702, 27.711 18.727 C 24.311 16.503, 23.974 18.426, 27.073 22.365 C 28.212 23.814, 28.697 25, 28.150 25 C 26.910 25, 20 14.085, 20 12.126 C 20 11.024, 19.502 11.132, 17.854 12.595 L 15.709 14.500 17.064 12 C 17.810 10.625, 18.291 8.876, 18.135 8.114 C 17.953 7.229, 18.407 6.942, 19.393 7.321 C 20.242 7.646, 21.245 7.413, 21.622 6.802 C 22.067 6.082, 21.848 5.976, 21 6.500 C 20.127 7.039, 19.932 6.919, 20.415 6.138 C 20.813 5.494, 21.526 5.207, 22 5.500 C 22.474 5.793, 23.163 5.545, 23.531 4.950 C 24.623 3.183, 23.598 3.005, 20.967 4.507 M 39.042 6.652 C 39.105 7.936, 42.910 14.641, 42.958 13.554 C 42.981 13.033, 44.524 14.085, 46.387 15.891 C 50.802 20.170, 52.334 18.198, 48.359 13.352 C 45.427 9.778, 38.967 5.132, 39.042 6.652 M 43 15.550 C 43 16.790, 46.185 22.148, 46.647 21.686 C 47.184 21.149, 44.266 15, 43.474 15 C 43.213 15, 43 15.247, 43 15.550 M 53 19.441 C 53 20.298, 53.450 21, 54 21 C 54.550 21, 55 20.577, 55 20.059 C 55 19.541, 54.550 18.840, 54 18.500 C 53.450 18.160, 53 18.584, 53 19.441 M 17.118 23.601 C 17.053 26.406, 17.525 30.208, 18.167 32.050 C 19.175 34.940, 19.431 35.131, 20.042 33.449 C 20.430 32.377, 20.310 30.658, 19.774 29.628 C 19.238 28.599, 18.447 25.674, 18.017 23.128 L 17.235 18.500 17.118 23.601 M 52.248 30.676 C 51.425 32.121, 51.310 33.631, 51.905 35.176 C 52.663 37.146, 52.902 37.246, 53.474 35.834 C 53.846 34.918, 54 32.893, 53.818 31.334 C 53.492 28.551, 53.464 28.539, 52.248 30.676 M 33 32.567 C 33 32.878, 34.559 34.786, 36.465 36.806 C 39.847 40.391, 39.966 40.431, 41.433 38.489 C 42.260 37.395, 42.915 36.050, 42.889 35.500 C 42.863 34.950, 42.620 35.048, 42.349 35.717 C 42.002 36.572, 40.693 36.200, 37.948 34.467 C 33.941 31.938, 33 31.576, 33 32.567 M 39.750 43.119 C 35.604 47.447, 35.242 48.495, 37.582 49.393 C 40.940 50.682, 43 50.053, 43 47.741 C 43 46.498, 43.900 44.919, 45 44.232 C 46.100 43.545, 47 42.482, 47 41.869 C 47 41.152, 46.397 41.244, 45.308 42.128 C 44.377 42.882, 43.898 43.029, 44.242 42.452 C 44.586 41.876, 44.560 40.909, 44.184 40.304 C 43.758 39.618, 42.087 40.679, 39.750 43.119" stroke="none" fill="#000000" fill-rule="evenodd"/><path fill-opacity=".305" d="M 26.441 7.570 C 24.628 9.036, 24.814 9.104, 29.250 8.589 C 31.863 8.286, 34 8.277, 34 8.569 C 34 8.861, 33.313 10.427, 32.474 12.050 C 31.635 13.672, 31.201 15, 31.510 15 C 31.818 15, 31.589 15.900, 31 17 C 30.411 18.100, 30.137 19, 30.390 19 C 30.981 19, 37 7.912, 37 6.822 C 37 5.344, 28.445 5.949, 26.441 7.570 M 39.678 7.765 C 40.010 8.719, 42.319 11.617, 44.809 14.205 C 49.035 18.597, 51 19.412, 51 16.774 C 51 16.165, 50.763 15.904, 50.473 16.194 C 49.826 16.841, 42.428 10.121, 42.684 9.118 C 42.785 8.722, 42.014 7.865, 40.971 7.214 C 39.347 6.200, 39.161 6.279, 39.678 7.765 M 16.453 14.615 C 15.379 16.202, 14.194 18.175, 13.820 19 C 13.337 20.066, 13.120 20.119, 13.070 19.184 C 13.032 18.461, 13.460 17.008, 14.023 15.957 C 14.849 14.414, 14.752 14.158, 13.523 14.629 C 12.626 14.974, 11.985 14.656, 11.965 13.857 C 11.916 11.998, 9.080 17.097, 9.035 19.123 C 9.016 20.015, 8.130 22.715, 7.066 25.123 C 5.274 29.179, 5.233 30.025, 6.502 36.675 C 8.635 47.853, 11.901 52.474, 20.831 56.952 C 24.403 58.743, 26.117 59.004, 30.606 58.444 C 35.083 57.884, 35.845 57.518, 34.902 56.382 C 33.987 55.280, 34.185 55, 35.878 55 C 37.045 55, 38 54.587, 38 54.082 C 38 53.577, 38.273 52.452, 38.607 51.582 C 39.029 50.483, 38.637 50, 37.324 50 C 35.890 50, 35.472 49.336, 35.592 47.250 C 35.685 45.644, 34.826 43.460, 33.528 42 C 32.099 40.393, 31.286 38.150, 31.251 35.721 C 31.221 33.642, 30.706 31.351, 30.107 30.629 C 29.508 29.907, 29.126 29.130, 29.259 28.902 C 29.391 28.674, 28.671 29.391, 27.657 30.494 C 25.818 32.495, 25.816 32.495, 26.542 30.500 C 28.058 26.338, 27.619 24.535, 25.085 24.517 C 23.011 24.502, 22.369 23.599, 20.538 18.115 L 18.407 11.730 16.453 14.615 M 16.699 21 C 15.932 24.941, 17.897 34.148, 19.627 34.715 C 21.542 35.343, 21.973 32.254, 20.408 29.116 C 19.588 27.473, 18.572 24.187, 18.149 21.814 L 17.381 17.500 16.699 21 M 27.500 21 C 26.684 22.320, 27.880 24.192, 29.069 23.457 C 30.284 22.707, 30.276 20, 29.059 20 C 28.541 20, 27.840 20.450, 27.500 21 M 38.460 21.263 C 38.084 22.232, 38.330 23.692, 39.006 24.507 C 39.683 25.322, 39.993 26.917, 39.697 28.052 C 39.254 29.745, 39.412 29.903, 40.579 28.935 C 42.351 27.464, 42.337 25.233, 40.537 22 C 39.308 19.793, 39.065 19.706, 38.460 21.263 M 52.161 24.938 C 50.972 27.379, 50 29.966, 50 30.688 C 50 32.816, 51.702 32.188, 52.543 29.750 C 53.210 27.820, 53.378 28.048, 53.727 31.355 C 54.235 36.173, 53.564 37.998, 51.281 38.006 C 49.012 38.014, 45.990 43.245, 46.696 45.944 C 47.151 47.687, 48.027 48, 52.450 48 C 55.919 48, 57.691 47.581, 57.738 46.750 C 57.777 46.063, 58.297 43.105, 58.893 40.177 C 59.774 35.846, 59.699 34.318, 58.488 31.977 C 57.670 30.394, 56.980 28.514, 56.955 27.800 C 56.930 27.085, 56.327 25.150, 55.615 23.500 L 54.321 20.500 52.161 24.938 M 33 36.356 C 33 37.185, 34.350 38.825, 36 40 C 40.002 42.850, 39.953 40.340, 35.945 37.174 C 33.682 35.387, 33 35.197, 33 36.356 M 42.718 37.532 C 41.281 39.491, 41.230 39.849, 42.459 39.377 C 43.346 39.037, 44.240 39.461, 44.596 40.391 C 45.273 42.153, 47 41.609, 47 39.632 C 47 38.945, 46.438 37.644, 45.750 36.742 C 44.618 35.257, 44.332 35.331, 42.718 37.532 M 54 41 C 54.589 42.100, 55.295 43, 55.570 43 C 55.845 43, 55.589 42.100, 55 41 C 54.411 39.900, 53.705 39, 53.430 39 C 53.155 39, 53.411 39.900, 54 41 M 19 46 C 19.825 46.533, 22.075 46.923, 24 46.866 L 27.500 46.763 24.500 46 C 22.850 45.580, 20.600 45.190, 19.500 45.134 C 17.854 45.049, 17.766 45.202, 19 46 M 43.741 45.593 C 43.353 45.980, 43.302 47.355, 43.627 48.648 C 44.007 50.163, 43.779 51, 42.986 51 C 42.018 51, 42.021 51.320, 43 52.500 C 43.685 53.325, 44.977 54.007, 45.872 54.015 C 47.289 54.029, 47.305 54.157, 46 55 C 45.175 55.533, 44.958 55.976, 45.518 55.985 C 46.414 55.998, 54 51.278, 54 50.707 C 54 50.585, 51.876 50.655, 49.279 50.861 C 45.245 51.182, 44.734 51.026, 45.762 49.786 C 46.703 48.653, 46.691 47.959, 45.706 46.612 C 45.012 45.664, 44.128 45.205, 43.741 45.593 M 20 53.398 C 20 54.240, 27.110 58.224, 27.650 57.684 C 27.949 57.384, 26.350 56.199, 24.097 55.049 C 21.844 53.900, 20 53.157, 20 53.398" stroke="none" fill="#000000" fill-rule="evenodd"/><path fill-opacity=".266" d="M 28.250 7.119 C 23.448 8.505, 24.303 9.161, 29.938 8.414 C 34.742 7.777, 34.862 7.823, 34.375 10.129 L 33.875 12.500 35.362 10 C 36.702 7.747, 36.684 7.433, 35.174 6.820 C 33.020 5.946, 32.189 5.982, 28.250 7.119 M 42 10.297 C 42 10.684, 43.800 12.800, 46 15 C 48.200 17.200, 50 18.641, 50 18.203 C 50 17.765, 48.200 15.648, 46 13.500 C 43.800 11.352, 42 9.910, 42 10.297 M 16.388 15.530 C 14.356 18.632, 12.811 26.400, 13.601 29.547 C 14.023 31.227, 13.606 32.229, 12.092 33.175 C 10.941 33.893, 9.968 35.160, 9.930 35.991 C 9.882 37.009, 9.580 36.850, 9 35.500 C 8.345 33.975, 8.125 34.569, 8.074 38 C 8.033 40.752, 8.740 43.702, 9.893 45.593 C 11.732 48.607, 19.951 56, 21.464 56 C 21.881 56, 21.159 55.115, 19.861 54.033 C 16.635 51.346, 17.981 51.514, 23.596 54.500 C 28.581 57.150, 31 57.641, 31 56 C 31 55.450, 30.636 55, 30.191 55 C 29.746 55, 28.612 54.437, 27.671 53.750 C 26.190 52.668, 26.468 52.500, 29.730 52.500 C 32.804 52.500, 33.556 52.110, 33.801 50.389 C 34.050 48.644, 33.445 48.170, 30.301 47.650 C 28.211 47.305, 24.587 47.017, 22.250 47.011 C 19.913 47.005, 18 46.657, 18 46.238 C 18 45.818, 19.741 42.167, 21.869 38.124 L 25.737 30.772 22.619 24.698 C 19.534 18.691, 19.496 18.660, 19.181 21.884 C 18.999 23.753, 19.740 26.918, 20.918 29.300 C 22.759 33.021, 22.815 33.613, 21.451 34.977 C 20.099 36.329, 19.820 36.331, 18.967 35 C 15.945 30.279, 15.340 23.122, 17.456 17.126 C 19.121 12.405, 18.775 11.888, 16.388 15.530 M 54.436 32.250 C 54.580 36.261, 55.416 41.064, 56.309 43 C 57.546 45.685, 57.931 46.005, 57.961 44.375 C 57.982 43.206, 58.219 40.731, 58.486 38.875 C 58.902 35.990, 58.844 35.863, 58.086 38 C 57.362 40.041, 57.179 39.491, 57.086 35 C 56.958 28.808, 56.153 25, 54.972 25 C 54.534 25, 54.293 28.262, 54.436 32.250 M 51 28 C 50.361 29.194, 50.063 30.396, 50.338 30.671 C 50.613 30.946, 51.361 30.194, 52 29 C 52.639 27.806, 52.937 26.604, 52.662 26.329 C 52.387 26.054, 51.639 26.806, 51 28 M 42.914 37.642 C 42.136 38.600, 42.035 39.063, 42.689 38.671 C 43.351 38.274, 44.286 38.688, 44.800 39.607 C 45.486 40.833, 45.917 40.943, 46.480 40.032 C 46.898 39.357, 46.585 38.157, 45.782 37.354 C 44.510 36.082, 44.151 36.118, 42.914 37.642 M 32 43.294 C 32 44.141, 31.438 45.060, 30.750 45.338 C 30.063 45.615, 30.486 45.878, 31.691 45.921 C 34.507 46.023, 35.396 44.573, 33.489 42.991 C 32.280 41.988, 32 42.045, 32 43.294 M 43.958 45 C 43.902 45.275, 43.775 47.188, 43.678 49.251 C 43.509 52.818, 43.646 52.995, 46.500 52.864 C 48.927 52.754, 49.062 52.644, 47.206 52.289 C 45.479 51.958, 45.062 51.379, 45.517 49.945 C 45.850 48.897, 45.658 47.244, 45.091 46.270 C 44.525 45.297, 44.015 44.725, 43.958 45" stroke="none" fill="#000000" fill-rule="evenodd"/></svg>