<!-- Generated by IcoMoon.io -->
<svg version="1.1" xmlns="http://www.w3.org/2000/svg" width="32" height="32" viewBox="0 0 32 32" fill="#000000">
<title>aergo</title>
<path d="M17.614 0.1c-0.504 0.080-1.457 0.37-2.118 0.644s-1.617 0.77-2.126 1.099c-0.509 0.33-1.309 1.020-1.777 1.533s-1.094 1.415-1.391 2.004c-0.297 0.589-0.667 1.534-0.823 2.099-0.205 0.743-0.281 1.582-0.274 3.030 0.007 1.493 0.093 2.308 0.337 3.204 0.18 0.661 0.583 1.762 0.897 2.448s0.969 1.859 1.456 2.607c0.872 1.337 0.881 1.363 0.527 1.509-0.198 0.082-1.236 0.504-2.307 0.938s-2.544 1.14-3.272 1.569c-0.735 0.433-1.83 1.279-2.46 1.902-0.739 0.73-1.342 1.516-1.725 2.25-0.324 0.621-0.73 1.666-0.903 2.323s-0.355 1.537-0.406 1.955l-0.092 0.761h4.785l0.101-0.601c0.055-0.33 0.205-0.933 0.333-1.338s0.436-1.059 0.685-1.451c0.249-0.393 0.805-0.971 1.236-1.285s1.252-0.809 1.825-1.1c0.573-0.291 1.906-0.869 2.963-1.285s1.97-0.727 2.028-0.691c0.058 0.036 0.553 0.861 1.1 1.833s1.166 2.264 1.377 2.87c0.211 0.606 0.429 1.54 0.485 2.076l0.102 0.974h4.76v-0.647c0-0.356-0.115-1.203-0.254-1.882s-0.463-1.775-0.719-2.436c-0.255-0.661-0.892-1.958-1.416-2.883-0.928-1.639-0.943-1.686-0.603-1.824 0.192-0.078 1.506-0.702 2.92-1.385 1.535-0.742 2.987-1.572 3.604-2.061 0.568-0.45 1.408-1.262 1.868-1.805s1.089-1.47 1.4-2.062c0.311-0.591 0.685-1.534 0.832-2.096 0.156-0.595 0.27-1.657 0.273-2.543 0.004-1.012-0.090-1.844-0.28-2.483-0.157-0.529-0.583-1.538-0.945-2.243-0.44-0.855-1.008-1.633-1.708-2.337-0.579-0.583-1.622-1.392-2.33-1.806-0.705-0.413-1.75-0.9-2.323-1.083-0.734-0.234-1.585-0.349-2.883-0.387-1.013-0.030-2.255 0.011-2.759 0.090zM21.439 4.645c0.454 0.121 1.196 0.422 1.65 0.669s1.071 0.721 1.372 1.054c0.3 0.333 0.747 0.986 0.992 1.452 0.411 0.779 0.446 0.987 0.442 2.609-0.003 1.624-0.040 1.831-0.463 2.641-0.252 0.484-0.868 1.279-1.368 1.768-0.531 0.52-1.438 1.163-2.18 1.549-0.7 0.363-1.983 0.954-2.852 1.315s-1.646 0.656-1.725 0.656c-0.080 0-0.471-0.504-0.869-1.119s-1.008-1.715-1.354-2.443c-0.347-0.728-0.74-1.753-0.875-2.278s-0.244-1.431-0.244-2.013c0-0.582 0.106-1.414 0.235-1.848s0.472-1.185 0.761-1.668c0.347-0.581 0.824-1.082 1.407-1.479 0.485-0.33 1.277-0.705 1.762-0.833s1.241-0.237 1.682-0.241c0.44-0.005 1.172 0.090 1.626 0.211z"/>
</svg>
