<svg xmlns="http://www.w3.org/2000/svg" width="200" height="200" fill="#000000"><path fill-opacity=".157" fill-rule="evenodd" d="M102 7.109c-44.163 14.077-67.888 22.06-68.732 23.127-.55.695-6.428 15.214-13.061 32.264C4.022 104.1 3 106.889 3 109.454c0 1.219 5.678 12.078 12.618 24.131s16.277 28.366 20.75 36.25 8.96 14.784 9.972 15.333c2.212 1.2 77.245 12.832 82.778 12.832 3.667 0 4.981-1.047 24.164-19.25a16656 16656 0 0 1 30.503-28.88L194 140.239l-.024-6.869c-.047-13.561-5.789-79.439-7.056-80.967-1.174-1.414-13.549-9.982-52.858-36.597-11.32-7.664-18.336-11.792-20-11.766-1.409.022-6.837 1.403-12.062 3.069M75.544 20.593c-20.876 6.83-38.426 12.932-39 13.56-.754.824-.66.922.338.353.937-.534 2.386.38 4.5 2.836l3.118 3.623 33.691-11.757c18.53-6.466 34-12.065 34.377-12.443.924-.923 2.326-8.788 1.548-8.678-.339.048-17.696 5.675-38.572 12.506M126 16.378c0 .207.787.995 1.75 1.75 1.586 1.243 1.621 1.208.378-.378-1.307-1.666-2.128-2.195-2.128-1.372M70.932 58.336 59.364 65.5l-4.998 25.108-4.997 25.107 11.566 10.817c9.648 9.024 10.239 9.458 3.565 2.62-7.187-7.364-8.013-8.606-8.129-12.23-.19-5.921 2.5-7.404 11.922-6.572 10.334.912 11.862 1.293 23.443 5.836 9.834 3.857 10.858 4.058 17.941 3.522 4.74-.358 8.151-1.147 9.246-2.138.954-.863 2.046-1.57 2.427-1.57s2.47-1.176 4.641-2.613c4.328-2.864 13.763-4.219 20.536-2.948l3.718.698-.516 4.681c-.479 4.353-1.139 5.275-9.372 13.108-4.871 4.634-7.057 7.023-4.857 5.31s8.639-7.531 14.31-12.926l10.31-9.81-5.67-19.5c-3.118-10.725-6.182-20.03-6.809-20.677-.628-.648-8.033-3.92-16.457-7.271l-15.316-6.094-2.806 2.271c-1.543 1.249-7.765 6.764-13.825 12.256l-11.019 9.986 4.861 9.687c2.674 5.328 5.288 9.951 5.81 10.273 1.007.623 1.603-1.67 2.661-10.248.543-4.402.94-5.205 2.303-4.664.906.36 5.697 2.146 10.647 3.968 12.454 4.586 12.5 4.607 12.5 5.711 0 .541-1.848 5.181-4.107 10.311-4.511 10.245-4.06 9.913-14.893 10.979l-6.5.64-16.216-11.314L69.068 96.5l-.034-13.163L69 70.173l6.135-8.336c3.375-4.586 6.58-8.899 7.123-9.587 1.425-1.804 1.354-1.766-11.326 6.086"/><path fill-opacity=".419" fill-rule="evenodd" d="M74.123 16.45C51.59 23.706 35.004 29.571 33.947 30.655 32.958 31.67 25.549 49.6 17.484 70.5 4.877 103.17 2.958 108.877 3.799 111.185c2.094 5.748 40.675 72.075 42.629 73.287 3.304 2.049 82.218 14.053 85.118 12.947 1.326-.505 15.921-13.677 32.433-29.271C193.321 140.437 194 139.708 194 135.912c0-7.277-6.131-81.323-6.838-82.587-.387-.692-11.269-8.531-24.183-17.421-37.566-25.862-46.806-31.907-48.7-31.859-.978.025-19.049 5.607-40.156 12.405m28.377-4.941C97 13.334 79.901 18.87 64.501 23.811l-27.998 8.983-14.77 38.293-14.769 38.292 20.125 35.277c11.068 19.402 20.639 35.668 21.268 36.146s19.258 3.694 41.398 7.145l40.256 6.276 4.244-3.809c2.335-2.095 15.833-14.792 29.995-28.217 18.161-17.214 25.747-25.039 25.739-26.552-.007-1.18-1.355-18.795-2.996-39.145s-2.986-37.958-2.988-39.129c-.004-1.673-7.401-7.189-34.528-25.75-18.988-12.992-35.075-23.578-35.75-23.526-.675.053-5.727 1.589-11.227 3.414M79 29.547c-17.875 6.229-32.858 11.474-33.296 11.655-.771.318-25.197 62.01-26.349 66.547-.409 1.609 1.137 5.163 5.435 12.5C28.093 125.887 36.288 139.95 43 151.5s12.352 21.156 12.533 21.347 16.398 2.558 36.04 5.26l35.712 4.913 5.608-5.234c3.084-2.88 14.965-14.302 26.402-25.384l20.794-20.15-2.035-34.811c-1.12-19.146-2.377-35.069-2.795-35.385-.417-.315-2.784-1.921-5.259-3.57s-16.32-11.432-30.767-21.741c-14.447-10.31-26.597-18.695-27-18.634S96.875 23.318 79 29.547m7.5 13.591c1.1.655 2.362 1.68 2.804 2.277.477.645.676.273.49-.915-.202-1.282-1.208-2.099-2.804-2.277-2.354-.262-2.381-.212-.49.915m-25 3.227C48.933 48.883 48 49.295 48 52.334c0 1.879-4.934 23.507-6.597 28.916-.417 1.356.048 1.75 2.061 1.75 1.429 0 2.76-.562 2.956-1.25s1.28-5.191 2.407-10.008c1.127-4.818 2.935-10.003 4.017-11.523 1.083-1.521 7.033-5.792 13.222-9.492 12.546-7.5 12.294-7.741-4.566-4.362m10.315 10.998c-6.427 3.926-11.981 7.441-12.342 7.813s-2.855 11.829-5.54 25.462l-4.883 24.787 2.225 2.39c1.224 1.315 10.112 9.951 19.752 19.191l17.528 16.801 17.396-3.967c9.567-2.182 18.357-4.726 19.532-5.654 7.271-5.74 34.511-31.946 34.496-33.186-.01-.825-2.616-10.275-5.79-21l-5.771-19.5-15.459-6.215c-8.502-3.418-16.202-6.118-17.11-6-1.651.215-27.861 23.35-27.835 24.569.032 1.454 10.684 20.358 11.549 20.496.515.083 1.328-3.337 1.806-7.6s1.205-7.75 1.615-7.75c1.278 0 22.473 8.108 23.307 8.916.435.421-1.196 5.047-3.625 10.28l-4.415 9.513-8.201 1.047-8.201 1.047-16.498-11.541-16.497-11.541.707-13.611.708-13.61 6.185-8c5.914-7.648 8.028-10.634 7.355-10.387-.17.063-5.567 3.325-11.994 7.25m10.935 9.313C79.22 71.996 77.58 79 79.864 79c2.079 0 6.452-8.237 6.912-13.018.263-2.74.309-4.976.101-4.969-.207.007-2.064 2.555-4.127 5.663m6.5 75.932c-1.674.748-1.575 1.924.321 3.821 1.86 1.859 6.53 2.07 8.229.371.66-.66 1.2-.853 1.2-.429 0 .425.729.043 1.619-.847.891-.891 1.34-1.898.999-2.239-.834-.834-10.795-1.379-12.368-.677"/><path fill-opacity=".207" fill-rule="evenodd" d="M74.5 16.651c-21.45 6.906-39.543 12.999-40.208 13.54s-3.681 7.357-6.705 15.146C6.076 100.756 3.06 108.999 3.677 110.685c.972 2.655 40.325 71.593 41.703 73.054.658.696 19.476 4.155 43.018 7.906 37.163 5.921 42.102 6.51 44.106 5.261 2.675-1.668 57.155-52.955 59.866-56.358 1.833-2.3 1.805-3.189-1.369-43.698-2.064-26.345-3.7-42.092-4.509-43.395-1.391-2.241-67.759-47.845-70.992-48.781-1.186-.343-17.874 4.532-41 11.977m13.5-.798c-12.925 4.209-29.696 9.61-37.269 12.002-9.693 3.061-14.079 4.928-14.816 6.304C34.378 37.031 7 108.059 7 109.175c0 .942 39.583 70.712 40.843 71.992.725.737 76.902 12.833 80.815 12.833 1.83 0 9.861-6.993 31.868-27.75l29.421-27.75.016-4.5c.01-2.475-1.304-21.11-2.919-41.41-2.047-25.732-3.331-37.291-4.24-38.169-4.082-3.939-67.595-46.404-69.28-46.321-1.113.054-12.599 3.543-25.524 7.753m32 8.525c0 .207.787.995 1.75 1.75 1.586 1.243 1.621 1.208.378-.378-1.307-1.666-2.128-2.195-2.128-1.372M70.479 52.65c-14.167 8.255-15.133 9.394-18.044 21.283-1.952 7.971-2.253 8.505-5.5 9.762L43.5 85.026l3.09-.456 3.091-.456-1.304 6.193a869 869 0 0 0-2.389 11.837c-.936 4.867-1.354 5.573-3.037 5.133-1.764-.461-1.951.029-1.951 5.106 0 3.872-.394 5.617-1.269 5.617-1.315 0-14.866-5.319-18.025-7.075-1.714-.952-1.718-.849-.1 2.289.932 1.807 2.764 4.983 4.071 7.058 1.306 2.074 3.702 6.349 5.323 9.5S38.855 143.825 44.853 154c10.724 18.193 10.969 18.511 14.776 19.141 2.129.353 18.344 2.58 36.034 4.949l32.164 4.307 25.586-24.823c24.104-23.384 25.589-25.033 25.614-28.448.089-12.066-3.466-65.788-4.418-66.775-2.008-2.08-13.141-8.744-11.732-7.023 1.239 1.514.713 1.983-5.25 4.687-5.13 2.326-6.627 3.482-6.627 5.117 0 1.751-.253 1.903-1.479.885-1.071-.888-1.21-1.729-.505-3.046.82-1.533.432-1.998-2.459-2.952-1.888-.623-4.698-2.118-6.245-3.322-2.708-2.109-2.689-2.033.522 2.057 3.4 4.33 3.487 5.031.402 3.235-2.902-1.69-18.521-7.684-22-8.442-5.068-1.105-10.388 2.174-23.043 14.204-13.37 12.709-14.084 14.439-9.809 23.777C89.135 97.536 89.708 101 87.95 101c-1.985 0-6.455-2.826-9.45-5.975-2.487-2.615-3.086-4.213-3.502-9.34-.831-10.232.326-14.771 5.934-23.276C83.719 58.182 86 53.605 86 52.239c0-3.416-1.384-2.139-9.505 8.768l-6.554 8.803.279 13.29.28 13.289 15.441 10.893 15.44 10.892 7.646-.676c4.204-.373 8.103-.974 8.664-1.338 1.983-1.286 9.304-19.228 8.023-19.665-.668-.228-5.939-2.189-11.714-4.357-11.242-4.22-11.947-4.14-11.996 1.362-.046 5.284-1.231 10.5-2.385 10.495-1.094-.004-11.69-19.823-11.547-21.598.09-1.119 26.522-24.897 27.676-24.897.463 0 8.046 2.854 16.852 6.341l16.009 6.342 6.174 20.658 6.174 20.659-7.795 7.5c-4.287 4.125-12.581 11.923-18.431 17.329l-10.635 9.829-17.558 4.001-17.559 4.001-3.239-2.712c-1.782-1.491-10.862-10.152-20.178-19.247l-16.938-16.535 4.294-22.083c6.16-31.681 4.788-28.355 13.822-33.514C77.517 53.916 84 49.671 84 48.766c0-2.105-6.396-.268-13.521 3.884M158 51.378c0 .207.787.995 1.75 1.75 1.586 1.243 1.621 1.208.378-.378-1.307-1.666-2.128-2.195-2.128-1.372M160.5 91c-.34.55-.168 1 .382 1s1.278-.45 1.618-1 .168-1-.382-1-1.278.45-1.618 1m-52.643 7.75c-.798.963-2.763 3.711-4.366 6.109-2.821 4.22-2.853 4.403-1.011 5.75 4.327 3.164 11.715.962 14.403-4.293 1.642-3.21 1.379-4.994-1.072-7.277-2.685-2.502-6.016-2.623-7.954-.289M166 126.534a1614 1614 0 0 0-7.316 3.589c-2.649 1.307-10.629 6.951-17.734 12.541-8.361 6.579-14.598 10.707-17.683 11.704-9.843 3.18-31.624 7.726-35.619 7.435-3.571-.261-4.193-.651-4.475-2.803-.186-1.423-2.931-5.15-6.37-8.649-5.943-6.046-6.096-6.127-9.174-4.897-1.721.688-3.927 1.532-4.902 1.876-1.426.503-1.554.974-.654 2.415.823 1.319 2.083 1.698 4.788 1.44 3.129-.299 4.367.264 8.404 3.817 2.604 2.293 4.735 4.635 4.735 5.205 0 .623-.603.538-1.507-.213-1.198-.994-2.403-.999-5.881-.025-3.561.997-4.281 1.581-3.872 3.143.276 1.056.824 2.119 1.218 2.362.714.441 52.524 6.526 55.566 6.526.879 0 10.491-8.522 21.36-18.939 16.432-15.747 19.973-19.639 21.009-23.097.685-2.287 1.102-4.268.926-4.401-.175-.133-1.444.304-2.819.971"/><path fill-opacity=".687" fill-rule="evenodd" d="M72.617 17.519C51.781 24.31 34.38 30.234 33.949 30.683c-.431.45-3.79 8.692-7.464 18.317a5719 5719 0 0 1-14.582 37.678C7.556 97.776 4 107.891 4 109.156c0 2.842 40.794 74.551 42.863 75.345.821.315 19.931 3.488 42.467 7.051 35.851 5.669 41.237 6.306 43.072 5.1 4.099-2.692 60.459-56.64 60.993-58.381.298-.974-.964-20.375-2.804-43.113-2.445-30.196-3.717-41.693-4.719-42.644-.755-.715-16.587-11.699-35.184-24.408-27.409-18.731-34.415-23.09-37-23.021-1.753.047-20.236 5.642-41.071 12.434M113.5 7.545C95.433 13.234 36.414 32.271 36.198 32.48 35.313 33.333 7 107.633 7 109.101c0 1.715 38.068 69.106 40.544 71.773.816.879 15.944 3.67 41.991 7.747l40.716 6.374 6.624-6.184c3.644-3.401 17.342-16.319 30.44-28.705l23.815-22.522-.545-4.542c-.301-2.498-1.704-20.292-3.119-39.542s-2.755-35.9-2.978-37c-.247-1.226-5.356-5.355-13.196-10.667-7.036-4.766-21.718-14.794-32.628-22.283C114.865 7.213 114.762 7.148 113.5 7.545M72.488 54.287c-9.66 5.208-14.32 8.947-15.846 12.713-2.338 5.772-10.03 46.316-9.322 49.137 1.062 4.232 36.736 38.337 41.299 39.482 3.675.923 30.389-4.94 36.088-7.919 4.532-2.37 31.991-27.063 35.368-31.805 1.153-1.62 2.073-4.525 2.102-6.639.053-3.873-1.891-11.905-3.355-13.862-.455-.608-.989-2.408-1.185-4s-1.37-6.269-2.607-10.394c-3.232-10.779-6.203-13.356-22.855-19.824-7.329-2.847-14.349-5.176-15.6-5.176s-4.03 1.287-6.175 2.86c-5.728 4.202-21.277 19.028-22.552 21.505-1.214 2.359-1.971 2.993 16.294-13.661C109.995 61.367 115.184 57 115.673 57c2.252 0 32.671 12.87 33.338 14.105.415.767 3.35 10.314 6.523 21.216 5.65 19.414 5.729 19.858 3.867 21.608-1.045.983-9.394 8.771-18.553 17.307l-16.652 15.52-7.848 1.713a1680 1680 0 0 0-17.82 4.032l-9.973 2.319-20.27-19.515c-16.43-15.817-20.179-19.922-19.79-21.66.264-1.18 2.486-12.385 4.937-24.9s4.701-23.151 5.001-23.636c.299-.485 5.274-3.681 11.056-7.102S80 51.609 80 51.393c0-.88-1.793-.19-7.512 2.894m3.933 7.277-5.594 7.563-.535 13.187-.535 13.186 15.871 11.237 15.872 11.237 6-.643c10.539-1.128 10.417-1.039 14.689-10.758 2.136-4.859 3.695-9.022 3.465-9.252s-5.368-2.358-11.419-4.729l-11.002-4.311-.616 4.499c-.339 2.475-.588 5.674-.554 7.11l.064 2.61.989-2.479c1.617-4.053 4.002-6.021 7.289-6.017 4.175.005 9.394 3.347 10.192 6.527.906 3.609-2.328 10.333-6.065 12.613-4.442 2.709-11.412 2.448-15.634-.584-1.869-1.343-6.868-4.568-11.108-7.167s-9.416-6.476-11.5-8.613l-3.79-3.886V82.108c0-10.537.078-10.911 3.398-16.197C81.793 56.525 83.215 54 82.606 54c-.325 0-3.109 3.404-6.185 7.564m93.305-.93c3.376 3.089 4.297 4.67 4.582 7.866l.356 4 .168-4.631c.15-4.148-.171-4.886-3.082-7.071-5.516-4.141-6.455-4.217-2.024-.164M175.349 81c0 4.675.173 6.587.383 4.25.211-2.338.211-6.163 0-8.5-.21-2.338-.383-.425-.383 4.25M87 85.278c0 2.363 6.698 15.202 8.984 17.222 1.721 1.521 1.033-.457-2.869-8.25C88.123 84.281 87 82.634 87 85.278M176.355 98.5c-.003 4.95.166 7.101.376 4.78.209-2.321.212-6.371.005-9-.206-2.629-.378-.73-.381 4.22m1.148 21.07.38 12.069-16.191 15.936c-8.906 8.765-20.108 19.728-24.895 24.362l-8.702 8.425-5.298-.1-5.297-.1 4.878.964 4.878.963 7.622-7.272c4.192-4.001 15.823-15.26 25.845-25.021l18.224-17.748-.912-12.274-.913-12.274zM37.22 140.25c.797 1.238 5.218 8.709 9.823 16.604 8.72 14.949 10.042 16.251 16.272 16.036 2.83-.097 2.7-.204-1.172-.966-2.396-.471-4.958-1.355-5.693-1.966-.735-.61-5.429-8.05-10.431-16.533S36.665 138 36.347 138c-.317 0 .075 1.012.873 2.25m31.542 33.457c1.244.239 3.044.23 4-.02s-.062-.446-2.262-.435-2.982.216-1.738.455m7.488.982c.963.252 2.537.252 3.5 0 .963-.251.175-.457-1.75-.457s-2.713.206-1.75.457m7 1c.963.252 2.537.252 3.5 0 .963-.251.175-.457-1.75-.457s-2.713.206-1.75.457m16.75 2.353c6.325.995 12.85 1.79 14.5 1.767s-2.175-.856-8.5-1.851-12.85-1.79-14.5-1.767 2.175.856 8.5 1.851"/></svg>