<svg xmlns="http://www.w3.org/2000/svg" width="250" height="250" version="1.1" fill="#000000"><path fill-opacity=".051" d="M 115.855 27.914 C 109.672 29.918, 100.637 35.655, 95.267 40.987 C 89.726 46.489, 87.980 49.788, 50.748 125.107 C 29.434 168.223, 11.997 203.838, 11.998 204.250 C 11.999 204.662, 21.768 205, 33.707 205 L 55.414 205 61.783 198.472 C 65.286 194.882, 67.814 192.492, 67.401 193.160 C 66.988 193.829, 68.807 192.829, 71.444 190.938 C 77.390 186.674, 87.229 176.180, 86.455 174.928 C 86.140 174.417, 86.126 174, 86.424 174 C 86.722 174, 88.077 176.192, 89.435 178.872 C 90.793 181.552, 94.568 186.408, 97.825 189.665 C 113.673 205.513, 130.767 207.191, 148.375 194.627 C 155.615 189.460, 160.121 184.644, 163.007 178.986 L 165.027 175.027 173.091 183.091 C 178.814 188.814, 181.631 190.972, 182.797 190.524 C 183.700 190.178, 184.172 190.161, 183.845 190.488 C 183.208 191.126, 186.300 195.127, 192.132 201.211 L 195.765 205 217.466 205 L 239.167 205 217.458 162.250 C 155.465 40.175, 159.075 46.976, 152.760 40.362 C 149.443 36.889, 144.208 32.790, 140.699 30.920 C 135.409 28.100, 133.327 27.575, 126.500 27.336 C 122.100 27.182, 117.310 27.442, 115.855 27.914 M 121.608 85.257 C 119.648 89.523, 117.322 94.410, 116.439 96.117 C 115.557 97.824, 115.285 98.942, 115.836 98.601 C 117.279 97.710, 118.273 103.331, 117.547 108.272 C 116.290 116.820, 113.691 126.927, 112.879 126.425 C 111.836 125.781, 114.093 130.764, 120.375 142.979 L 125.250 152.458 132.124 138.537 C 135.904 130.881, 138.605 124.365, 138.126 124.058 C 135.629 122.458, 132.709 99.646, 134.897 98.833 C 135.391 98.650, 133.405 93.775, 130.483 88 L 125.171 77.500 121.608 85.257" stroke="none" fill="#ffffff" fill-rule="evenodd"/><path fill-opacity=".38" d="M 117.618 28.054 C 110.871 29.739, 101.752 35.291, 95.531 41.500 C 89.680 47.340, 88.486 49.593, 50.765 126 L 12.011 204.500 32.516 204.770 C 49.548 204.995, 53.534 204.775, 56.049 203.475 C 60.309 201.272, 67.455 191.121, 75.026 176.520 C 78.587 169.654, 81.745 164.028, 82.044 164.018 C 82.344 164.008, 84.594 168.146, 87.044 173.213 C 94.766 189.178, 108.374 200.626, 121.830 202.477 C 131.579 203.817, 143.365 199.066, 153.635 189.655 C 158.907 184.825, 161.077 181.818, 165.150 173.701 L 170.169 163.699 172.468 167.747 C 173.733 169.973, 177.407 176.903, 180.634 183.147 C 184.410 190.455, 188.302 196.371, 191.557 199.750 L 196.613 205 217.307 205 C 228.688 205, 237.987 204.662, 237.971 204.250 C 237.954 203.838, 219.990 168.175, 198.050 125 C 160.023 50.168, 157.876 46.211, 152.101 40.323 C 141.810 29.830, 128.897 25.235, 117.618 28.054 M 115.083 96.834 L 105.701 115.680 115.101 133.828 C 120.270 143.809, 124.835 151.980, 125.245 151.987 C 125.655 151.994, 130.225 143.538, 135.402 133.196 L 144.814 114.392 135.469 96.467 C 130.329 86.608, 125.751 78.417, 125.294 78.265 C 124.837 78.112, 120.242 86.469, 115.083 96.834" stroke="none" fill="#ffffff" fill-rule="evenodd"/><path fill-opacity=".314" d="M 112.976 30.270 C 106.067 33.176, 99.727 37.552, 94.302 43.160 C 90.266 47.332, 79.966 67.679, 19.463 191 L 13.330 203.500 33.898 203.771 C 52.634 204.018, 54.691 203.876, 56.983 202.182 C 61.366 198.943, 66.780 190.924, 74.154 176.750 C 78.089 169.188, 81.596 163, 81.948 163 C 82.300 163, 84.594 167.140, 87.044 172.201 C 92.551 183.571, 101.149 193.176, 110.229 198.100 C 116.040 201.250, 117.161 201.500, 125.500 201.500 C 134.034 201.500, 134.874 201.300, 141.738 197.632 C 152.650 191.802, 158.846 185.264, 164.908 173.184 C 167.719 167.583, 170.236 163, 170.501 163 C 170.767 163, 173.739 168.512, 177.105 175.250 C 183.963 188.975, 191.065 200.232, 194.296 202.495 C 196.038 203.715, 200.284 204, 216.723 204 C 227.875 204, 237 203.718, 237 203.374 C 237 203.030, 230.983 190.993, 223.629 176.624 C 216.275 162.256, 198.430 127.133, 183.972 98.574 C 158.965 49.176, 157.386 46.349, 151.523 40.486 C 143.148 32.111, 135.821 28.591, 126 28.225 C 119.971 28.001, 117.416 28.402, 112.976 30.270 M 114.830 96.323 L 105.184 115.645 114.842 134.312 C 120.154 144.578, 124.839 152.983, 125.253 152.989 C 125.668 152.995, 130.348 144.304, 135.653 133.677 L 145.300 114.353 135.579 95.677 C 130.232 85.404, 125.546 77, 125.167 77 C 124.787 77, 120.135 85.695, 114.830 96.323" stroke="none" fill="#ffffff" fill-rule="evenodd"/><path fill-opacity=".106" d="M 129.347 63.054 C 118.293 64.989, 105.279 71.726, 98.315 79.119 C 85.094 93.153, 80.136 115.395, 86.315 132.948 C 87.757 137.044, 88.839 140.457, 88.719 140.531 C 88.598 140.605, 84.900 142.580, 80.500 144.920 C 76.100 147.260, 69.040 151.663, 64.811 154.704 L 57.122 160.233 59.692 164.367 C 61.106 166.640, 63.808 170.412, 65.698 172.750 C 68.175 175.813, 68.696 177, 67.567 177 C 65.371 177, 65.615 178.290, 68.286 180.799 L 70.571 182.946 75.889 172.254 C 82.048 159.868, 81.253 159.742, 88.603 174.270 C 98.321 193.478, 115.928 204.490, 131.384 201.026 C 138.963 199.327, 146.565 195.135, 153.320 188.928 C 158.335 184.320, 160.436 181.339, 164.466 173.113 C 167.197 167.538, 169.897 163.128, 170.466 163.312 C 171.035 163.496, 174.650 169.690, 178.500 177.076 C 182.350 184.462, 187.027 192.625, 188.893 195.215 L 192.285 199.925 196.121 197.212 C 200.061 194.427, 200.949 193.002, 198.750 192.997 C 198.063 192.996, 199.525 191.215, 202 189.040 C 205.154 186.268, 205.977 185.073, 204.750 185.043 C 202.271 184.982, 202.553 184.056, 206.196 180.298 C 208.663 177.752, 209 177, 207.673 177 C 206.050 177, 206.050 176.854, 207.662 174.394 C 209.302 171.890, 209.285 171.722, 207.244 170.144 C 206.076 169.240, 199.519 164.035, 192.674 158.579 L 180.229 148.658 183.239 143.766 C 186.956 137.726, 189.740 128.994, 190.588 120.722 L 191.231 114.442 181.171 94.341 C 171.526 75.069, 170.912 74.120, 166.305 71.337 C 154.257 64.059, 140.813 61.046, 129.347 63.054 M 114.578 95.843 L 104.696 115.686 114.598 134.833 C 120.044 145.364, 124.835 153.984, 125.245 153.990 C 126.233 154.003, 145 116.463, 145 114.474 C 145 112.598, 126.113 76, 125.144 76 C 124.768 76, 120.013 84.929, 114.578 95.843" stroke="none" fill="#ffffff" fill-rule="evenodd"/></svg>