<svg xmlns="http://www.w3.org/2000/svg" width="64" height="64" version="1.1" fill="#000000"><path fill-opacity=".173" d="M 20 1.742 C 13.648 3.979, 3.869 13.948, 1.671 20.428 C -0.468 26.737, -0.468 37.263, 1.671 43.572 C 3.969 50.346, 13.654 60.031, 20.428 62.329 C 26.667 64.445, 37.250 64.475, 43.357 62.394 C 49.491 60.304, 58.242 52.279, 60.999 46.216 C 62.178 43.622, 63.561 40.719, 64.072 39.764 C 65.236 37.586, 65.306 22.693, 64.148 23.408 C 63.680 23.698, 62.737 22.064, 62.052 19.778 C 60.279 13.863, 50.094 3.884, 43.572 1.671 C 37.407 -0.420, 26.043 -0.385, 20 1.742 M 0.349 32 C 0.349 36.675, 0.522 38.587, 0.732 36.250 C 0.943 33.912, 0.943 30.087, 0.732 27.750 C 0.522 25.412, 0.349 27.325, 0.349 32" stroke="none" fill="#000000" fill-rule="evenodd"/><path fill-opacity=".374" d="M 20.035 2.202 C 12.556 5.073, 4.990 12.739, 2.154 20.319 C -5.799 41.575, 9.523 64, 32 64 C 44.214 64, 55.582 56.913, 60.531 46.214 C 61.984 43.071, 63.585 39.719, 64.087 38.764 C 65.203 36.640, 65.314 23.688, 64.210 24.370 C 63.775 24.639, 62.605 22.566, 61.610 19.765 C 59.104 12.708, 51.237 4.981, 43.681 2.154 C 36.230 -0.634, 27.376 -0.616, 20.035 2.202 M 0.336 32 C 0.336 36.125, 0.513 37.813, 0.728 35.750 C 0.944 33.688, 0.944 30.313, 0.728 28.250 C 0.513 26.188, 0.336 27.875, 0.336 32" stroke="none" fill="#000000" fill-rule="evenodd"/><path fill-opacity=".606" d="M 22.300 1.862 C 11.528 5.584, 4.524 12.949, 1.339 23.905 C -2.808 38.171, 4.814 54.363, 18.661 60.702 C 36.140 68.704, 57.103 59.480, 62.189 41.548 C 62.821 39.321, 63.711 37.072, 64.169 36.550 C 65.143 35.437, 65.315 25.352, 64.343 26.324 C 63.982 26.685, 62.933 24.757, 62.014 22.040 C 58.538 11.772, 51.049 4.577, 40.614 1.478 C 34.095 -0.458, 28.686 -0.344, 22.300 1.862 M 22 24.734 C 16.775 33.902, 12.355 41.988, 12.177 42.702 C 11.949 43.616, 13.132 43.999, 16.177 43.998 L 20.500 43.996 26 35 C 29.025 30.052, 31.725 26.004, 32 26.004 C 32.275 26.004, 34.975 30.052, 38 35 L 43.500 43.996 47.823 43.998 C 50.868 43.999, 52.051 43.616, 51.823 42.702 C 51.361 40.844, 32.601 8.066, 32 8.066 C 31.725 8.066, 27.225 15.567, 22 24.734 M 0.300 32 C 0.300 35.025, 0.487 36.263, 0.716 34.750 C 0.945 33.237, 0.945 30.762, 0.716 29.250 C 0.487 27.738, 0.300 28.975, 0.300 32 M 27.717 37.390 L 23.934 43.746 27.584 49.873 C 29.591 53.243, 31.579 56, 32 56 C 32.421 56, 34.409 53.243, 36.416 49.873 L 40.066 43.746 36.283 37.390 C 34.202 33.895, 32.275 31.035, 32 31.035 C 31.725 31.035, 29.798 33.895, 27.717 37.390" stroke="none" fill="#000000" fill-rule="evenodd"/><path fill-opacity=".577" d="M 24.081 1.537 C 17.074 3.488, 12.992 6.066, 8.083 11.643 C 0.873 19.834, -1.294 31.912, 2.460 42.990 C 5.028 50.569, 13.431 58.972, 21.010 61.540 C 33.323 65.712, 45.123 63.037, 54.129 54.031 C 58.666 49.494, 60.116 47.214, 61.497 42.441 C 62.443 39.174, 63.618 35.719, 64.109 34.764 C 65.327 32.390, 65.246 27.730, 64 28.500 C 63.450 28.840, 63 28.272, 63 27.237 C 63 18.644, 52.746 5.731, 43.490 2.669 C 36.004 0.193, 30.141 -0.149, 24.081 1.537 M 21.377 25.153 C 15.945 34.587, 11.350 42.687, 11.167 43.153 C 10.983 43.619, 13.103 44, 15.877 44 L 20.921 44 26.115 35.500 C 28.972 30.825, 31.620 27, 32 27 C 32.380 27, 35.028 30.825, 37.885 35.500 L 43.079 44 48.123 44 C 50.897 44, 53.017 43.619, 52.833 43.153 C 51.642 40.126, 32.603 8, 32 8 C 31.590 8, 26.809 15.719, 21.377 25.153 M 0.232 32 C 0.232 33.925, 0.438 34.712, 0.689 33.750 C 0.941 32.788, 0.941 31.212, 0.689 30.250 C 0.438 29.288, 0.232 30.075, 0.232 32 M 27.572 36.881 C 25.608 40.115, 24 43.234, 24 43.811 C 24 45.033, 31.258 56.978, 32 56.978 C 32.742 56.978, 40 45.033, 40 43.811 C 40 42.234, 32.985 31, 32 31 C 31.530 31, 29.537 33.646, 27.572 36.881" stroke="none" fill="#000000" fill-rule="evenodd"/></svg>