<svg xmlns="http://www.w3.org/2000/svg" width="40" height="40" fill="#000000"><path fill="#000000" d="M20 40c11.046 0 20-8.954 20-20S31.046 0 20 0 0 8.954 0 20s8.954 20 20 20Z"/><path fill="#000000" fill-rule="evenodd" d="M24.892 21.307a7.972 7.972 0 0 1 1.913 4.59 7.536 7.536 0 0 1-1.193 4.678 11.367 11.367 0 0 1-3.46 3.091.358.358 0 0 1-.295.087.35.35 0 0 1-.252-.176.301.301 0 0 1 .091-.441 8.93 8.93 0 0 0 2.641-3.179 6.143 6.143 0 0 0 .456-3.795 5.249 5.249 0 0 0-1.73-3.179 19.367 19.367 0 0 0-3.46-2.295 15.701 15.701 0 0 1-3.914-2.736 8.74 8.74 0 0 1-1.456-2.12 7.65 7.65 0 0 1-.638-2.471 7.297 7.297 0 0 1 1.283-4.767 8.123 8.123 0 0 1 3.551-3.001.353.353 0 0 1 .547.087.379.379 0 0 1-.092.442 9.749 9.749 0 0 0-2.558 3.265A6.18 6.18 0 0 0 15.88 13a5.873 5.873 0 0 0 1.73 3.09c1.07.91 2.229 1.711 3.459 2.39 1.41.744 2.7 1.697 3.823 2.827ZM21.475 5.87a.407.407 0 0 0 .16.242 16.013 16.013 0 0 1 1.974 2.296 7.352 7.352 0 0 1-.182 7.68.916.916 0 0 0 .09 1.06 1.04 1.04 0 0 0 1.367.264c1.524-1.244 1.776-3.722 1.877-4.717.014-.134.024-.242.035-.315a6.555 6.555 0 0 0-.274-1.853 9.448 9.448 0 0 0-.728-1.678 5.406 5.406 0 0 0-1.092-1.413 8.2 8.2 0 0 0-2.732-1.853.42.42 0 0 0-.454 0 .408.408 0 0 0-.041.287Zm-2.435 27.75c.09-.089.09-.265-.092-.441-.741-.701-1.413-1.47-2.003-2.296a7.353 7.353 0 0 1 .182-7.68.786.786 0 0 0 0-1.06 1.04 1.04 0 0 0-1.364-.265c-1.525 1.245-1.776 3.722-1.877 4.717-.014.135-.025.242-.036.316.002.628.094 1.252.274 1.854.188.581.432 1.143.728 1.677a5.402 5.402 0 0 0 1.093 1.412 8.197 8.197 0 0 0 2.73 1.853c.091.089.275.002.365-.087Z" clip-rule="evenodd"/></svg>