<svg xmlns="http://www.w3.org/2000/svg" width="24" height="24" fill="#000000"><g clip-path="url(#a)"><circle cx="12" cy="12" r="12" fill="#696969"/><mask id="b" width="24" height="24" x="0" y="0" maskUnits="userSpaceOnUse" style="mask-type:alpha"><circle cx="12" cy="12" r="12" fill="#000000"/></mask><g mask="url(#b)"><path fill="#000000" fill-rule="evenodd" d="m17.508 14.279-.165.352c3.34 1.32 5.604 3.89 5.604 6.843 0 4.302-4.807 7.79-10.736 7.79-5.93 0-10.737-3.488-10.737-7.79 0-2.951 2.262-5.519 5.596-6.84l-.165-.355c-2.842-6.061-1.124-9.562.338-9.937 1.463-.376 3.918.653 4.905 8.118l.058.44.058-.44c.987-7.465 3.442-8.494 4.905-8.118 1.462.375 3.18 3.876.339 9.937Z" clip-rule="evenodd"/></g><path fill="#696969" fill-rule="evenodd" d="M12.526 19.79a.421.421 0 0 0-.842 0c0 .477-.148 1.039-.405 1.324-.114.126-.231.181-.368.18-.152-.002-.399-.076-.753-.359a.421.421 0 1 0-.526.658c.435.348.86.538 1.27.543.425.005.762-.19 1.003-.459.074-.082.14-.173.2-.27.06.097.126.188.2.27.242.268.579.463 1.004.459.41-.005.835-.195 1.27-.543a.421.421 0 0 0-.526-.658c-.355.284-.601.357-.754.359-.136.001-.254-.054-.368-.18-.256-.285-.405-.848-.405-1.324Z" clip-rule="evenodd"/></g><defs><clipPath id="a"><path fill="#000000" d="M0 0h24v24H0z"/></clipPath></defs></svg>