<!-- Generated by IcoMoon.io -->
<svg version="1.1" xmlns="http://www.w3.org/2000/svg" width="32" height="32" viewBox="0 0 32 32" fill="#000000">
<title>agld</title>
<path d="M0.115 10.476c0.198 0.128 0.537 0.234 0.753 0.236s0.459 0.174 0.539 0.383 0.146 2.353 0.146 4.765c0 3.778-0.055 4.432-0.395 4.715-0.217 0.181-0.675 0.455-1.019 0.609-0.505 0.227 0.253 0.284 3.953 0.3l4.577 0.019 0.299-1.337c0.164-0.735 0.254-1.383 0.198-1.438s-0.362 0.301-0.681 0.792c-0.319 0.491-0.849 1.035-1.179 1.208-0.379 0.199-1.203 0.286-2.244 0.236-1.28-0.061-1.718-0.18-1.978-0.535-0.255-0.349-0.333-1.455-0.333-4.708 0-3.546 0.063-4.315 0.377-4.629 0.207-0.207 0.632-0.377 0.945-0.377s0.635-0.108 0.716-0.24c0.095-0.154-0.776-0.239-2.443-0.236-1.762 0.003-2.476 0.078-2.232 0.236zM28.211 14.144c-0.421 0.435-0.766 0.866-0.766 0.959s0.162 0.168 0.36 0.168c0.298 0 0.36 0.454 0.36 2.648 0 2.525 0.029 2.677 0.617 3.265 0.512 0.512 0.765 0.593 1.484 0.476 0.477-0.077 1.078-0.352 1.336-0.61 0.466-0.466 0.462-0.468-0.482-0.341-0.704 0.094-1.058 0.021-1.362-0.283-0.342-0.342-0.399-0.798-0.343-2.723l0.068-2.312 1.259-0.072c0.905-0.052 1.259-0.17 1.259-0.42 0-0.261-0.328-0.347-1.319-0.347-1.247 0-1.319-0.033-1.319-0.599 0-0.33-0.087-0.599-0.193-0.599s-0.538 0.356-0.959 0.791zM12.461 14.592c-0.264 0.146-0.732 0.493-1.042 0.772s-0.723 0.815-0.919 1.192c-0.196 0.377-0.357 1.161-0.357 1.742 0 0.592 0.193 1.385 0.44 1.804 0.242 0.412 0.817 0.956 1.279 1.21 0.608 0.334 1.158 0.434 1.996 0.36 0.636-0.056 1.439-0.312 1.783-0.569s0.84-0.754 1.1-1.102c0.282-0.377 0.515-1.149 0.576-1.903 0.084-1.042 0.001-1.418-0.464-2.108-0.311-0.462-0.941-1.028-1.4-1.258s-1.212-0.416-1.673-0.412c-0.462 0.004-1.055 0.126-1.319 0.272zM21.092 14.592c-0.264 0.146-0.732 0.493-1.042 0.772s-0.723 0.815-0.919 1.192c-0.196 0.377-0.357 1.148-0.357 1.711s0.173 1.36 0.385 1.769c0.216 0.418 0.821 0.966 1.381 1.252 0.738 0.376 1.272 0.477 2.060 0.388 0.585-0.066 1.349-0.33 1.696-0.588s0.875-0.825 1.171-1.261c0.371-0.544 0.539-1.145 0.539-1.92 0-0.773-0.171-1.384-0.544-1.942-0.299-0.448-0.92-1.003-1.378-1.234s-1.212-0.416-1.673-0.412-1.055 0.126-1.319 0.272zM14.711 15.182c0.307 0.215 0.709 0.751 0.893 1.191s0.334 1.456 0.334 2.257c0 1.227-0.093 1.55-0.589 2.045-0.375 0.375-0.861 0.589-1.343 0.589-0.534 0-0.986-0.232-1.547-0.794-0.582-0.582-0.84-1.1-0.966-1.942-0.104-0.694-0.062-1.514 0.105-2.074 0.153-0.51 0.514-1.092 0.803-1.295s0.801-0.368 1.138-0.368 0.864 0.176 1.171 0.391zM23.317 15.166c0.294 0.206 0.695 0.686 0.893 1.067 0.211 0.409 0.358 1.34 0.358 2.274 0 1.359-0.083 1.664-0.589 2.169-0.36 0.36-0.864 0.589-1.3 0.589-0.407 0-1.013-0.254-1.416-0.593-0.417-0.351-0.826-1.027-1.002-1.656-0.181-0.646-0.23-1.462-0.125-2.083 0.096-0.566 0.422-1.269 0.733-1.581 0.323-0.323 0.848-0.561 1.238-0.561 0.372 0 0.917 0.168 1.211 0.374z"/>
</svg>
