<svg xmlns="http://www.w3.org/2000/svg" width="200" height="200" fill="#000000"><path fill-opacity=".294" fill-rule="evenodd" d="M81 1.433C39.41 10.149 7.621 43.057.971 84.28-.777 95.114.205 115.285 2.978 125.5c4.378 16.133 12.753 30.968 24.435 43.286 9.283 9.789 17.11 15.535 29.087 21.353 16.288 7.913 22.806 9.286 44 9.267 16.77-.015 18.611-.204 26.949-2.765 9.51-2.92 21.976-8.798 29.491-13.906 6.651-4.52 19.608-17.306 24.616-24.291 6.236-8.697 13.121-23.592 15.459-33.444 1.109-4.675 2.459-9.882 3.001-11.571C201.327 109.337 201.314 86 200 86c-.55 0-1-.828-1-1.84 0-4.677-4.489-18.588-8.926-27.66-10.512-21.496-26.654-37.35-48.382-47.518C128.221 2.679 119.699.816 102.5.418 92.424.185 85.366.518 81 1.433M.392 100c0 7.425.157 10.463.35 6.75s.192-9.787 0-13.5c-.193-3.713-.35-.675-.35 6.75"/><path fill-opacity=".156" fill-rule="evenodd" d="M84.919.945C44.185 8.426 14.1 35.626 3.236 74.799.843 83.426.547 86.216.561 100c.013 12.719.409 16.989 2.205 23.799 4.879 18.49 13.459 33.534 26.676 46.771 18.293 18.322 40.114 27.94 66.058 29.117 28.844 1.309 53.968-8.361 74.536-28.687 14.841-14.668 23.413-30.289 28.26-51.5 2.295-10.047 3.553-32.143 1.766-31.038-.656.405-1.062-.452-1.062-2.243 0-1.595-.873-6.313-1.94-10.484-9.043-35.358-35.824-62.533-71.266-72.315C118.523 1.413 113.561.773 103 .479 95.575.272 87.439.482 84.919.945M64.5 88.714c-19.25 33.355-35.13 60.955-35.289 61.333-.159.377 11.766-11.419 26.5-26.215 23.884-23.984 26.865-27.334 27.492-30.896 1.945-11.054 14.027-16.181 23.028-9.771 3.28 2.335 5.769 6.727 5.769 10.18 0 1.912 6.445 8.482 29.636 30.206 16.299 15.27 29.462 27.31 29.25 26.756-.888-2.319-70.429-122.239-70.886-122.239-.275 0-16.25 27.291-35.5 60.646m28.723.843C91.574 90.711 91 92.117 91 95c0 8.753 11.512 9.433 13.553.8.493-2.085.058-3.28-1.912-5.25-2.907-2.907-6.191-3.254-9.418-.993M.378 100c0 6.325.163 8.912.361 5.75s.198-8.338 0-11.5-.361-.575-.361 5.75m93.09 10.486c-.158.558-1.469 8.889-2.913 18.514s-2.871 18.738-3.17 20.25l-.544 2.75h21.409l-.517-2.75c-.285-1.512-1.77-11.128-3.301-21.367l-2.783-18.617-3.946.103c-2.171.057-4.077.56-4.235 1.117"/><path fill-opacity=".585" fill-rule="evenodd" d="M86.585 1.037C53.261 6.292 25.37 26.366 10.916 55.5 3.587 70.273.762 82.237.644 99c-.131 18.685 2.713 30.888 10.957 47 18.39 35.943 58.739 57.719 98.676 53.256 23.078-2.578 43.944-12.509 60.243-28.67 14.493-14.372 24.696-33.974 27.629-53.086.591-3.85 1.474-8.034 1.963-9.297 1.138-2.943 1.164-17.203.03-17.203-.471 0-1.132-2.633-1.469-5.85-1.201-11.494-8.284-29.746-15.969-41.15C169.477 24.373 148.012 9.42 124.5 3.455 113.239.598 96.24-.486 86.585 1.037M75.015 70.25a39286 39286 0 0 1-35.723 61.664C33.081 142.592 28 151.589 28 151.907c0 .319 12.324-11.738 27.386-26.793 24.857-24.845 27.434-27.733 27.91-31.281 1.122-8.369 7.068-13.176 15.523-12.551 6.577.487 10.858 4.228 12.575 10.989 1.043 4.111 3.541 6.723 30.619 32.021 16.216 15.15 29.591 27.437 29.723 27.306C172.129 151.204 100.642 28 100.02 28c-.315 0-11.568 19.013-25.005 42.25m20.342 17.806C92.851 88.992 90 92.734 90 95.088c0 3.225 3.947 6.912 7.398 6.912 5.892 0 9.639-6.735 6.239-11.211-1.816-2.389-5.736-3.683-8.28-2.733M.349 100c0 4.675.173 6.587.383 4.25.211-2.338.211-6.163 0-8.5-.21-2.338-.383-.425-.383 4.25m92.646 10.25c-.003.688-1.353 9.755-3 20.15S87 150.132 87 151.15c0 1.681.945 1.85 10.333 1.85 5.684 0 10.554-.22 10.823-.489.425-.425-1.156-11.506-5.244-36.761l-1.093-6.75H97.41c-2.859 0-4.412.44-4.415 1.25"/><path fill-opacity=".524" fill-rule="evenodd" d="M89.512 1.098C66.457 3.55 44.717 14.244 28.35 31.181.441 60.064-7.157 102.61 8.917 140c11.699 27.215 36.8 48.554 66.583 56.607 5.653 1.529 10.464 1.892 25 1.889 15.954-.003 18.909-.271 26-2.355 28.643-8.418 51.865-28.17 64.002-54.438 6.779-14.673 7.998-21.029 7.998-41.703 0-16.498-.255-19.366-2.355-26.5-5.262-17.878-14.052-32.335-27.519-45.263-21.1-20.258-50.144-30.221-79.114-27.139M69.5 79.177C53 107.83 36.687 136.024 33.25 141.831c-3.438 5.807-6.25 10.805-6.25 11.107S39.825 140.668 55.5 125c24.68-24.669 28.501-28.89 28.504-31.493.011-9.023 11.435-15.434 19.798-11.109 4.114 2.127 6.246 4.978 7.552 10.098 1.109 4.346 3.173 6.505 31.118 32.545 16.462 15.339 30.067 27.753 30.233 27.587s-2.511-5.052-5.951-10.857S147 107.784 130.5 79.142 100.275 27.07 100 27.073s-14 23.45-30.5 52.104m24.815 8.83c-2.586 1.042-4.327 3.959-4.283 7.177.072 5.291 6.129 8.818 10.903 6.35 4.795-2.48 5.55-8.14 1.61-12.079-2.567-2.568-4.574-2.921-8.23-1.448M93 108.77c0 .924-6.079 40.065-6.52 41.98-.514 2.233-.433 2.25 11.046 2.25h11.565l-.561-3.25c-.308-1.787-1.675-10.45-3.038-19.25s-2.706-17.35-2.986-19c-.477-2.808-.797-3.002-5.008-3.026-2.474-.015-4.498.118-4.498.296"/></svg>