<svg xmlns="http://www.w3.org/2000/svg" width="24" height="24" fill="#000000"><g clip-path="url(#a)"><path fill="url(#b)" fill-rule="evenodd" d="M21.765 15.321c0 .253-.044.506-.133.74-.657 1.719-1.53 3.135-2.623 4.247-1.094 1.12-2.529 2.238-4.305 3.363-.107.07-.227.126-.347.17a1.952 1.952 0 0 1-.784.159h-1.669V4.74h2.762c.159 0 .31.063.418.17l4.778 4.754.089.089c.499.252.89.941 1.182 2.06.246.98.455 2.048.613 3.211.012.101.019.202.019.297Z" clip-rule="evenodd"/><path fill="#828282" d="M11.905 4.74H9.143a.593.593 0 0 0-.417.17L3.859 9.754s-.032.019-.045.031c.879.594 1.65 1.018 2.282 1.24.715.252 1.833.536 3.357.859.442.752.745 1.378.91 1.877.164.5.297 1.245.404 2.219l1.138 8.02V4.74Z"/><path fill="#b5b5b5" d="M11.854 24h-1.662c-.398 0-.79-.113-1.125-.328-1.777-1.125-3.218-2.244-4.311-3.363-.955-.973-1.745-2.18-2.364-3.615-.089-.209-.17-.417-.253-.632A2.035 2.035 0 0 1 2 15.309c0-.094.006-.19.019-.284.158-1.163.367-2.231.62-3.21.278-1.088.657-1.758 1.13-2.03.88.594 1.65 1.018 2.289 1.239.714.253 1.833.537 3.35.86.442.745.746 1.371.91 1.877.158.506.297 1.245.405 2.219l.714 5.043.417 2.978Z"/><path fill="#ffffff" fill-rule="evenodd" d="M6.987 17.427a10.818 10.818 0 0 1-1.51 3.57c-.24-.22-.468-.435-.677-.65-.954-.974-1.744-2.18-2.363-3.616 1.63-.77 3.147-.537 4.55.695Z" clip-rule="evenodd"/><path fill="#171717" fill-rule="evenodd" d="M11.86 23.994h-1.662c-.398 0-.79-.113-1.125-.328-1.435-.91-2.648-1.808-3.635-2.712a10.819 10.819 0 0 0 1.511-3.571c.62.537 1.214 1.264 1.783 2.187.31.5 2.326 1.068 3.128 1.523v2.901Z" clip-rule="evenodd"/><path fill="#b2b2b2" fill-rule="evenodd" d="M9.028 19.088c-.12.064-.758.525-1.915 1.372.986 1.536 1.865 2.351 2.636 2.459.771.107 1.473-.02 2.117-.373v-3.458c-1.77-.063-2.711-.063-2.831 0h-.007Z" clip-rule="evenodd"/><path fill="#ffffff" fill-rule="evenodd" d="M11.86 14.45v8.102c-1.062-.158-1.884-.391-2.478-.707-.84-.45-1.207-1.056-1.106-1.827.285-2.124 1.214-3.679 1.947-4.52.24-.278.455-.48.62-.6.613-.423 1.017-.449 1.017-.449Z" clip-rule="evenodd"/><path fill="#0f0f0f" fill-rule="evenodd" d="M11.86 14.45v1.94a2.182 2.182 0 0 1-.916-.196c-.24-.108-.48-.335-.72-.695.24-.279.455-.48.62-.601.612-.423 1.017-.449 1.017-.449Z" clip-rule="evenodd"/><path fill="#dbdbdb" fill-rule="evenodd" d="M11.86 20.334v2.219c-.499-.076-.948-.165-1.346-.279a5.658 5.658 0 0 1-1.131-.43c1.65-1.01 2.478-1.51 2.478-1.51Z" clip-rule="evenodd"/><path fill="#5c5c5c" fill-rule="evenodd" d="M11.905 21.857v.696c-.5-.076-.948-.165-1.346-.278l1.346-.418Z" clip-rule="evenodd"/><path fill="#212121" fill-rule="evenodd" d="M11.86 18.494c-.081 0-.644.14-1.68.417a.568.568 0 0 0-.386.733l.196.544a.768.768 0 0 0 .373.424l1.498.746v-2.864Z" clip-rule="evenodd"/><path fill="#0f0f0f" d="M10.868 21.004a.632.632 0 1 0 0-1.264.632.632 0 0 0 0 1.264Z"/><path fill="#424242" fill-rule="evenodd" d="M11.899 19.045h.006v1.277h-.006l-1.543-.892c.986-.259 1.498-.385 1.543-.385Z" clip-rule="evenodd"/><path fill="#5e5e5e" fill-rule="evenodd" d="M9.44 5.828c-.083.089-.557.531-1.138.961-.525.38-1.138.727-1.524 1.087-.783.734-2.579 2.055-2.895 1.852l.133-.126c-.215-.316-.916-1.46-.796-2.914.246-2.933.986-6.055 1.542-6.295.72.48 2.136 2.11 3.78 4.36.07.096.164.21.259.33.183.22.43.53.468.67l.183-.051c.013.057.013.095-.013.126Z" clip-rule="evenodd"/><path fill="#454545" fill-rule="evenodd" d="M4.85 1.277A78.73 78.73 0 0 0 6.797 3.75c.417.5.948 1.17 1.587 2.01-.253.335-.455.588-.613.758-.158.17-.386.405-.696.696-.259-.064-.455-.108-.575-.146a4.396 4.396 0 0 1-.43-.164c-.151.19-.271.329-.36.41-.088.083-.335.254-.727.506-.322-1.005-.512-1.953-.569-2.844-.057-.891.089-2.124.436-3.691v-.007Z" clip-rule="evenodd"/><path fill="#0f0f0f" fill-rule="evenodd" d="M9.737 14.677c-.367.727-.69 1.107-.974 1.15-.202.032-.657-.113-1.365-.448a6.23 6.23 0 0 1-.468-.227c-.145-.07-.29-.146-.449-.228l-.79-1.056c.12-.094.209-.17.266-.234a2.62 2.62 0 0 0 .227-.29c.424.12.79.227 1.1.322.335.101.607.19.81.266.05.018.094.037.151.063.019.006.044.019.063.025.373.152.847.373 1.429.657Z" clip-rule="evenodd"/><path fill="#1f1f1f" fill-rule="evenodd" d="M8.245 13.995c-.114.676-.29 1.106-.531 1.302a.398.398 0 0 1-.316.082 3.832 3.832 0 0 1-.329-.158c-.044-.019-.088-.044-.139-.07a2.515 2.515 0 0 1-.164-.132 4.256 4.256 0 0 1-.183-.17.167.167 0 0 1-.038-.171l.316-.835a.285.285 0 0 1 .303-.19h.006l.114.013c.335.101.607.19.81.266.05.019.094.038.151.063Z" clip-rule="evenodd"/><path fill="#d4d4d4" fill-rule="evenodd" d="M7.29 14.5a.76.76 0 0 1-.094.513l-.127.208c-.044-.019-.088-.044-.139-.07a2.515 2.515 0 0 1-.164-.132 4.256 4.256 0 0 1-.183-.17.167.167 0 0 1-.038-.171l.316-.835a.285.285 0 0 1 .303-.19l.127.848Z" clip-rule="evenodd"/><path fill="#545454" fill-rule="evenodd" d="M7.379 13.679c-.013.24-.025.582-.038 1.024-.006.032-.038.063-.076.057H7.26a2.833 2.833 0 0 1-.38-.089 2.638 2.638 0 0 1-.29-.12l.272-.708a.285.285 0 0 1 .303-.19h.006l.209.026Z" clip-rule="evenodd"/><path fill="#ffffff" fill-rule="evenodd" d="M8.03 14.772a.63.63 0 0 1-.86-.234.628.628 0 0 1 .203-.847c.297.095.537.171.72.24.051.02.095.039.152.064.02.006.044.019.063.025a.628.628 0 0 1-.278.752Z" clip-rule="evenodd"/><path fill="url(#c)" fill-rule="evenodd" d="M21.765 15.321c0 .253-.044.506-.133.74-.063.164-.126.328-.196.486-.632 1.505-1.44 2.756-2.427 3.761l-.05.05-.835.79-.019.014c-.942.834-2.08 1.668-3.4 2.509a1.78 1.78 0 0 1-.348.17h-2.484l.032-.22.392-2.794.714-5.038c.095-.879.221-1.568.36-2.06a2.876 2.876 0 0 1 .19-.537c.17-.43.423-.93.764-1.505 1.518-.316 2.636-.607 3.357-.854.234-.082.487-.19.752-.322.133-.063.265-.139.41-.215a19.14 19.14 0 0 0 1.018-.632l.089.089c.386.195.702.644.96 1.352.051.12.096.26.133.398.032.101.064.203.089.31.247.98.455 2.048.613 3.211.013.101.02.202.02.297Z" clip-rule="evenodd"/><path fill="#d4d4d4" d="M20.027 12.863a.82.82 0 0 0-.822-.822.82.82 0 0 0-.821.822c0 .392.278.701.645.784v.935h.379v-.942c.354-.095.62-.398.62-.777Zm-.62.385v-.1h-.378v.113a.438.438 0 0 1-.266-.405.44.44 0 0 1 .442-.442.44.44 0 0 1 .443.442c0 .171-.101.316-.24.386v.006Z"/><path fill="#d4d4d4" d="M20.362 14.146a.844.844 0 0 0-.285.057l-.22-.29-.304.233.208.272a.813.813 0 0 0-.22.55c0 .233.1.442.258.594l-1.156 1.41.29.24 1.208-1.467c.076.02.145.044.227.044a.82.82 0 0 0 .822-.821.82.82 0 0 0-.822-.822h-.006Zm.057 1.252.038-.045-.291-.24-.127.152a.408.408 0 0 1-.038-.537l.095.126.304-.234-.07-.088s.02-.007.032-.007a.44.44 0 0 1 .442.443c0 .22-.17.398-.385.43ZM17.657 15.074a.818.818 0 0 0-.803.72l-3.192.228.025.38 3.205-.228c.114.316.41.544.765.544a.82.82 0 0 0 .822-.822.82.82 0 0 0-.822-.822Zm0 1.264a.446.446 0 0 1-.36-.196h.107l-.025-.385-.14.013a.448.448 0 0 1 .418-.316.44.44 0 0 1 .442.442.44.44 0 0 1-.442.442ZM17.606 12.42l-.133.354-1.44-.544-2.662 1.498a2.89 2.89 0 0 1 .19-.537L16 11.807l1.605.613ZM21.044 11.504l-2.313-.322-.095.727-.38-.045.178-1.352c.133-.063.265-.14.41-.215l-.069.505 2.137.304c.05.12.094.26.132.398Z"/><path fill="#ffffff" fill-rule="evenodd" d="M21.436 16.548c-.632 1.504-1.44 2.756-2.427 3.76l-.05.052-.835.79-.019.012c-.942.835-2.08 1.669-3.4 2.51a1.77 1.77 0 0 1-.348.17h-2.484l.032-.221.392-2.794c.79-.449 2.401-.948 2.711-1.447 1.903-3.066 4.052-4.008 6.428-2.832Z" clip-rule="evenodd"/><path fill="#171717" fill-rule="evenodd" d="M11.854 23.994h1.713c.411 0 .816-.12 1.157-.347 1.48-.955 2.724-1.896 3.742-2.845a11.415 11.415 0 0 1-1.555-3.741c-.638.562-1.251 1.327-1.833 2.294-.316.525-2.396 1.119-3.223 1.6v3.04Z" clip-rule="evenodd"/><path fill="#b2b2b2" fill-rule="evenodd" d="M14.693 19.094c.12.063.758.525 1.915 1.372-.986 1.536-1.865 2.351-2.636 2.459-.771.107-1.473-.02-2.117-.373v-3.458c1.77-.063 2.711-.063 2.831 0h.007Z" clip-rule="evenodd"/><path fill="#ffffff" fill-rule="evenodd" d="M14.344 21.844c-.594.322-1.422.556-2.484.714v-8.103s.405.025 1.018.449c.164.12.386.322.626.6.727.841 1.656 2.396 1.94 4.52.101.764-.265 1.378-1.1 1.82Z" clip-rule="evenodd"/><path fill="#0f0f0f" fill-rule="evenodd" d="M13.504 15.504c-.24.36-.487.588-.727.696a2.16 2.16 0 0 1-.917.196v-1.94s.405.024 1.018.448c.164.12.386.322.626.6Z" clip-rule="evenodd"/><path fill="#dbdbdb" fill-rule="evenodd" d="M14.344 21.844c-.316.17-.695.316-1.137.436-.399.114-.847.203-1.347.278V20.34s.828.5 2.484 1.504Z" clip-rule="evenodd"/><path fill="#5c5c5c" fill-rule="evenodd" d="M13.207 22.28c-.399.114-.847.203-1.347.279v-.696l1.347.418Z" clip-rule="evenodd"/><path fill="#212121" fill-rule="evenodd" d="M11.86 18.5c.083 0 .645.14 1.682.417a.568.568 0 0 1 .385.733l-.196.544a.768.768 0 0 1-.373.424l-1.498.745V18.5Z" clip-rule="evenodd"/><path fill="#0f0f0f" d="M12.853 21.004a.632.632 0 1 0 0-1.264.632.632 0 0 0 0 1.264Z"/><path fill="#424242" fill-rule="evenodd" d="M11.86 19.05h-.005v1.278h.006l1.542-.892c-.986-.259-1.498-.385-1.542-.385Z" clip-rule="evenodd"/><path fill="url(#d)" fill-rule="evenodd" d="M14.357 5.739c-.152-.165.461-.803.746-1.189C16.929 2.047 18.269.58 18.927.145c.752-.5 1.599 3.647 1.833 6.44.126 1.511-.588 2.693-.828 3.04-.215.317-2.111-1.074-2.92-1.832-.386-.36-1-.708-1.518-1.087a10.5 10.5 0 0 1-1.137-.955V5.74Z" clip-rule="evenodd"/><path fill="url(#e)" fill-rule="evenodd" d="M19.395 4.975a10.647 10.647 0 0 1-.341 2.073c-.07.253-.145.512-.228.771-.392-.252-.638-.423-.727-.505a4.15 4.15 0 0 1-.36-.411c-.164.07-.31.126-.43.164a7.587 7.587 0 0 1-.581.146 12.529 12.529 0 0 1-.695-.69c-.051-.063-.108-.126-.177-.208-.12-.152-.266-.335-.43-.55a60.83 60.83 0 0 1 1.119-1.441c.17-.209.322-.398.467-.569a89.876 89.876 0 0 0 1.947-2.478c.348 1.574.493 2.807.436 3.698Z" clip-rule="evenodd"/><path fill="#363636" fill-rule="evenodd" d="M19.054 7.048c-.07.252-.146.512-.228.77-.392-.252-.638-.423-.727-.505a4.166 4.166 0 0 1-.36-.41c-.164.069-.31.126-.43.164a7.571 7.571 0 0 1-.581.145 12.52 12.52 0 0 1-.696-.689c-.05-.063-.107-.126-.177-.209h1.954l1.245.734Z" clip-rule="evenodd"/><path fill="url(#f)" fill-rule="evenodd" d="M18.074 4.229 16.16 6.656a2.735 2.735 0 0 0-.126-.133c-.152-.177-.354-.43-.607-.759.423-.556.79-1.036 1.119-1.44.36-.026.865-.051 1.53-.095Z" clip-rule="evenodd"/><path fill="#ffffff" d="M20.968 6.656c-.158-1.89-.802-6.175-1.713-6.611a.413.413 0 0 0-.417.031c-.758.506-2.206 2.168-3.874 4.45-.013.019-.026.038-.045.057a.85.85 0 0 0-.22-.032H9.11a.85.85 0 0 0-.222.032.347.347 0 0 1-.044-.057C7.176 2.244 5.73.582 4.97.076a.399.399 0 0 0-.417-.031C3.65.48 2.998 4.766 2.847 6.656c-.133 1.574.62 2.82.853 3.16l.032.045.151-.133.133-.126c-.215-.316-.917-1.46-.796-2.914.246-2.933.986-6.056 1.542-6.296.72.48 2.136 2.111 3.78 4.362 0 0 0 .012.012.019.064.088.152.19.234.297l.013.012c.183.221.43.531.468.67l.183-.05.183-.05c-.05-.184-.215-.405-.474-.721h5.487c-.253.31-.424.537-.474.72l.366.101c.038-.139.29-.449.468-.67l.013-.012c.088-.108.17-.215.233-.304 0-.006.013-.006.013-.012 1.65-2.25 3.06-3.881 3.824-4.368.512.246 1.258 3.369 1.498 6.302.12 1.454-.575 2.598-.815 2.945l.303.228.032-.044c.234-.342.986-1.587.86-3.16Z"/><path fill="#0f0f0f" fill-rule="evenodd" d="M14.035 14.677c.367.727.69 1.107.974 1.15.202.032.657-.113 1.365-.448.145-.063.303-.139.468-.227.145-.07.29-.146.448-.228l.79-1.056a2.265 2.265 0 0 1-.265-.234 2.617 2.617 0 0 1-.228-.29c-.423.12-.79.227-1.1.322-.334.101-.606.19-.808.266-.051.018-.095.037-.152.063-.02.006-.044.019-.063.025a24.35 24.35 0 0 0-1.429.657Z" clip-rule="evenodd"/><path fill="#1f1f1f" fill-rule="evenodd" d="M15.526 13.995c.114.676.291 1.106.531 1.302.089.07.196.101.316.082.101-.044.215-.095.329-.158.044-.019.088-.044.14-.07.05-.037.107-.081.163-.132.057-.05.12-.107.184-.17a.167.167 0 0 0 .038-.171l-.316-.835a.285.285 0 0 0-.304-.19h-.006l-.114.013c-.335.101-.607.19-.809.266-.05.019-.095.038-.152.063Z" clip-rule="evenodd"/><path fill="#d4d4d4" fill-rule="evenodd" d="M16.48 14.5a.76.76 0 0 0 .096.513l.126.208c.044-.019.088-.044.139-.07.05-.037.107-.081.164-.132.057-.05.12-.107.184-.17a.167.167 0 0 0 .038-.171l-.317-.835a.285.285 0 0 0-.303-.19l-.126.848Z" clip-rule="evenodd"/><path fill="#545454" fill-rule="evenodd" d="M16.393 13.679c.012.24.025.582.037 1.024.007.032.038.063.076.057h.007a2.83 2.83 0 0 0 .379-.089c.076-.025.17-.063.29-.12l-.271-.708a.285.285 0 0 0-.303-.19H16.6l-.208.026Z" clip-rule="evenodd"/><path fill="#d4d4d4" fill-rule="evenodd" d="M15.741 14.772a.63.63 0 0 0 .86-.234.628.628 0 0 0-.202-.847c-.297.095-.538.171-.72.24a2.68 2.68 0 0 0-.152.064c-.02.006-.045.019-.064.025a.628.628 0 0 0 .278.752Z" clip-rule="evenodd"/></g><defs><linearGradient id="b" x1="16.942" x2="16.108" y1="21.598" y2="6.428" gradientUnits="userSpaceOnUse"><stop stop-color="#171717"/><stop offset="1" stop-color="#707070"/></linearGradient><linearGradient id="c" x1="22.22" x2="10.919" y1="12.237" y2="20.264" gradientUnits="userSpaceOnUse"><stop stop-color="#b2b2b2"/><stop offset="1" stop-color="#878787"/></linearGradient><linearGradient id="d" x1="18.429" x2="18.003" y1=".206" y2="9.759" gradientUnits="userSpaceOnUse"><stop stop-color="#474747"/><stop offset="1" stop-color="#5c5c5c"/></linearGradient><linearGradient id="e" x1="17.417" x2="17.417" y1="7.819" y2="1.277" gradientUnits="userSpaceOnUse"><stop stop-color="#707070"/><stop offset="1" stop-color="#454545"/></linearGradient><linearGradient id="f" x1="18.491" x2="14.977" y1="4.184" y2="6.327" gradientUnits="userSpaceOnUse"><stop stop-color="#7a7a7a"/><stop offset="1" stop-color="#363636"/></linearGradient><clipPath id="a"><path fill="#ffffff" d="M0 0h24v24H0z"/></clipPath></defs></svg>