<svg xmlns="http://www.w3.org/2000/svg" width="200" height="200" fill="#000000"><path fill-opacity=".227" fill-rule="evenodd" d="M0 100.005V200.01l100.25-.255 100.25-.255.255-99.75L201.01 0H0zm.481.495c0 55 .121 77.647.269 50.326.148-27.32.148-72.32 0-100C.602 23.147.481 45.5.481 100.5m83.313-36.758c-7.082 7.008-13.135 13.767-13.449 15.019-1.013 4.035 1.555 7.747 13.565 19.609 16.11 15.911 15.191 15.945 32.298-1.162 17.051-17.052 17.011-16.228 1.542-31.947C106.298 53.624 102.827 51 98.886 51c-1.496 0-6.393 4.135-15.092 12.742M97.789 52.83c-1.921.752-21.075 19.175-24.614 23.675-2.924 3.717-2.255 6.742 2.595 11.745C79.252 91.841 79.687 92 86.036 92c6.238 0 6.837-.206 10.112-3.482l3.482-3.481 3.691 3.78 3.691 3.779-3.506 3.398L100 99.392l-3.298-3.196c-3.021-2.929-3.837-3.195-9.75-3.181l-6.452.015 8.117 7.985c11.255 11.072 10.74 11.164 26.647-4.779 14.593-14.625 15.03-15.691 9.12-22.233-3.615-4.001-3.62-4.003-11.203-4.003-7.076 0-7.794.202-10.684 3.003l-3.099 3.003-3.395-3.503L92.608 69l3.395-3.503 3.395-3.503 3.099 3.003c2.792 2.706 3.735 3.003 9.543 3.003h6.444l-7.492-7.402c-7.586-7.496-10.109-8.98-13.203-7.768m-.805 13.687L94.6 69.055l2.7 2.7 2.7 2.7 2.521-2.521 2.52-2.52-2.836-2.718-2.837-2.717zM84.193 77.301l-3.199 3.301 3.503 3.395L88 87.392l3.298-3.196C94.097 81.483 95.337 81 99.505 81c4.264 0 5.383.462 8.501 3.506l3.59 3.506 3.417-3.525 3.416-3.525-3.693-3.693-3.693-3.693-3.14 3.212C105.165 79.589 104.097 80 99.568 80c-4.466 0-5.597-.421-8.068-3-1.581-1.65-3.152-3-3.491-3s-2.056 1.485-3.816 3.301m12.494 12.504-2.695 2.813 2.813 2.695 2.813 2.695 2.695-2.813 2.695-2.813-2.813-2.695-2.813-2.695zm-75.35 34.672L18.174 132h2.944c1.695 0 3.189-.637 3.52-1.5.766-1.995 6.02-1.934 7.148.082.543.97 1.877 1.454 3.446 1.25l2.561-.332-2.778-7c-2.724-6.866-2.851-7.005-6.646-7.273l-3.869-.272zM41 124.5v7.5h6v-15h-6zm10 0v7.5h3c2.667 0 3-.333 3-3 0-2.762.278-3 3.5-3s3.5.238 3.5 3c0 2.667.333 3 3 3h3v-15h-3c-2.667 0-3 .333-3 3 0 2.762-.278 3-3.5 3s-3.5-.238-3.5-3c0-2.667-.333-3-3-3h-3zm23-1.655c0 7.33 1.934 9.488 8.5 9.488s8.5-2.158 8.5-9.488c0-5.828-.009-5.845-3-5.845-2.972 0-3 .052-3 5.531 0 4.211-.393 5.682-1.645 6.163-2.412.925-4.355-2.37-4.355-7.385 0-3.93-.22-4.309-2.5-4.309-2.382 0-2.5.277-2.5 5.845m21 1.655c0 7.333.056 7.5 2.5 7.5 2.368 0 2.504-.304 2.579-5.75l.079-5.75 2.004 5.75c1.779 5.102 2.312 5.75 4.729 5.75 2.451 0 2.935-.627 4.824-6.25l2.101-6.25.092 6.25c.088 5.975.202 6.25 2.592 6.25 2.444 0 2.5-.167 2.5-7.5V117h-8.711l-1.441 5.25-1.442 5.25-1.783-5.25-1.784-5.25H95zm30.224-.25-3.056 7.25 2.58.332c1.587.205 2.921-.277 3.466-1.25 1.128-2.016 6.382-2.077 7.148-.082.332.866 1.827 1.5 3.538 1.5h2.963l-3.055-7.5c-3.034-7.45-3.079-7.5-6.792-7.5-3.691 0-3.774.088-6.792 7.25m19.776.25c0 7.333.056 7.5 2.5 7.5 2.308 0 2.5-.357 2.5-4.641v-4.641l4.085 4.641c3.103 3.526 4.786 4.641 7 4.641H164v-7.5c0-7.333-.056-7.5-2.5-7.5-2.25 0-2.5.4-2.5 4 0 2.2-.294 4-.654 4s-2.195-1.8-4.078-4c-2.545-2.973-4.174-4-6.346-4H145zm23.534-5.537c-2.324 2.567-1.415 4.649 2.935 6.724 4.514 2.152 4.529 3.648.031 3.123-2.781-.324-3.5-.061-3.5 1.282 0 3.476 9.355 3.383 12.529-.124 2.248-2.484.528-5.464-4.021-6.965-4.782-1.579-4.481-3.306.492-2.832 3.309.316 4 .075 4-1.395 0-2.699-9.99-2.55-12.466.187M27 121.918c0 .505-.273 1.63-.607 2.5C25.952 125.567 26.392 126 28 126s2.048-.433 1.607-1.582c-.334-.87-.607-1.995-.607-2.5s-.45-.918-1-.918-1 .413-1 .918m104-.059c0 .538-.273 1.689-.607 2.559-.43 1.12-.019 1.582 1.406 1.582 1.527 0 1.886-.488 1.487-2.016-.563-2.153-2.286-3.755-2.286-2.125M79.168 143.75c.158 4.458.193 4.515.565.931.353-3.408.577-3.679 2.081-2.517 1.241.958 1.183.712-.219-.931-1.048-1.228-2.06-2.233-2.25-2.233s-.269 2.137-.177 4.75m11.084-.25c-.011 2.75.205 4.1.48 3s1.01-2.331 1.634-2.735c.832-.538.819-.738-.046-.75-.65-.008-1.376-1.027-1.614-2.265s-.443 0-.454 2.75m26.034 0c.008 2.75.202 3.756.432 2.236s.223-3.77-.014-5-.425.014-.418 2.764"/><path fill-opacity=".335" fill-rule="evenodd" d="M0 100.005V200.01l100.25-.255 100.25-.255.255-99.75L201.01 0H0zm.481.495c0 55 .121 77.647.269 50.326.148-27.32.148-72.32 0-100C.602 23.147.481 45.5.481 100.5m82.952-36.351c-17.705 17.705-17.672 16.027-.641 33.059C94.888 109.303 95.801 110 99.557 110s4.662-.692 16.707-12.764c17.147-17.185 17.132-16.147.486-32.932-10.344-10.431-12.844-12.449-16.067-12.97-3.806-.616-3.86-.575-17.25 12.815m.802 1.115c-14.264 14.298-14.847 15.839-8.619 22.733C79.15 91.908 79.386 92 85.92 92c6.332 0 6.868-.186 10.086-3.506l3.398-3.506 3.8 3.711 3.801 3.712-3.708 3.797-3.708 3.797-3.586-3.503c-3.293-3.215-4.076-3.501-9.545-3.487l-5.958.015 8.117 7.985c11.211 11.028 10.654 11.129 26.591-4.807 14.641-14.641 15.07-15.681 9.176-22.205-3.579-3.961-3.691-4.003-10.778-4.003-6.602 0-7.424.24-10.535 3.082l-3.374 3.082-3.563-3.563-3.563-3.563 3.414-3.522 3.413-3.522 3.099 3.003c2.798 2.712 3.724 3.001 9.551 2.987l6.452-.016-7.624-7.484C99.87 49.68 99.763 49.699 84.235 65.264M97 66.5l-2.4 2.555 2.5 2.5 2.5 2.5L102 71.5l2.4-2.555-2.5-2.5-2.5-2.5zM83.982 77.519l-3.411 3.519 3.696 3.695 3.695 3.696 3.317-3.215C94.182 82.401 95.269 82 100 82c4.652 0 5.836.418 8.503 3.003l3.099 3.003 3.413-3.522 3.414-3.522-3.696-3.695-3.695-3.696-3.317 3.215C104.883 79.537 103.682 80 99.389 80c-4.267 0-5.444-.448-7.889-3-1.581-1.65-3.152-3-3.491-3s-2.151 1.583-4.027 3.519m13.002 11.998L94.6 92.055l2.7 2.7 2.7 2.7 2.521-2.521 2.52-2.52-2.836-2.718-2.837-2.717zm74.33 27.563c-5.779 1.713-4.961 7.788 1.26 9.349 4.136 1.038 2.865 2.893-1.574 2.298-3.425-.46-4-.269-4 1.323 0 4.173 13.16 3.173 14.517-1.103.826-2.603-.13-3.887-4.139-5.562-4.519-1.889-4.443-3.819.122-3.079 2.991.486 3.5.287 3.5-1.369 0-1.065-.562-1.943-1.25-1.951-.687-.007-2.15-.202-3.25-.432s-3.434.006-5.186.526M21.245 124.2l-3.077 7.3 2.538.328c1.396.181 3.023-.157 3.616-.75 1.357-1.357 6.354-1.411 7.178-.078.556.899 6.5 1.495 6.5.652 0-.191-1.27-3.454-2.823-7.25-2.78-6.799-2.883-6.906-6.839-7.202l-4.017-.299zm19.755.3v7.5h6v-15h-6zm10 0v7.5h3c2.533 0 3-.389 3-2.5 0-2.19.433-2.5 3.5-2.5s3.5.31 3.5 2.5c0 2.111.467 2.5 3 2.5h3v-15h-3c-2.667 0-3 .333-3 3 0 2.762-.278 3-3.5 3s-3.5-.238-3.5-3c0-2.667-.333-3-3-3h-3zm23-1.571c0 6.404 1.262 8.597 5.57 9.678 3.054.766 7.398-.284 9.68-2.34 1.287-1.16 1.75-3.123 1.75-7.422 0-5.806-.02-5.845-2.95-5.845-2.89 0-2.956.117-3.25 5.75-.26 4.983-.567 5.75-2.3 5.75s-2.04-.767-2.3-5.75c-.294-5.633-.36-5.75-3.25-5.75-2.935 0-2.95.03-2.95 5.929m21 1.516c0 7.392.054 7.555 2.5 7.555 2.37 0 2.503-.3 2.561-5.75l.061-5.75 1.719 5.5c1.562 5 2.004 5.528 4.864 5.808 2.967.29 3.23.034 4.616-4.5l1.471-4.808.104 4.75c.1 4.588.206 4.75 3.104 4.75h3v-15h-8.744l-1.492 5.25-1.493 5.25-1.485-5c-1.484-4.994-1.491-5-6.136-5.305L95 116.89zm30.548-1.245c-1.516 3.465-2.982 6.863-3.259 7.55-.614 1.526 5.276 1.763 6.211.25.824-1.333 5.821-1.279 7.178.078.593.593 2.212.931 3.597.75l2.518-.328-2.778-7c-2.738-6.9-2.834-7.004-6.744-7.3l-3.966-.3zM145 124.5c0 7.333.056 7.5 2.5 7.5 2.271 0 2.5-.386 2.5-4.208v-4.208l4.288 4.208c2.91 2.856 5.159 4.208 7 4.208 2.708 0 2.712-.01 2.712-7.5V117h-3c-2.793 0-3 .255-3 3.703v3.703l-3.792-3.703c-2.484-2.425-4.727-3.703-6.5-3.703-2.703 0-2.708.013-2.708 7.5M27.221 123c-.756 1.939-.648 2.576.48 2.838 2.11.491 2.462-.238 1.418-2.943l-.923-2.395zM131 121.859c0 .538-.273 1.689-.607 2.559-.43 1.12-.019 1.582 1.406 1.582 1.527 0 1.886-.488 1.487-2.016-.563-2.153-2.286-3.755-2.286-2.125m-68.954 18.586c-.66.795-1.001 2.482-.759 3.75.398 2.08.454 2.041.577-.395.075-1.485.924-3.159 1.886-3.72.963-.561 1.243-1.033.622-1.05-.62-.016-1.667.62-2.326 1.415m17.122 3.305c.159 4.497.189 4.545.566.905.397-3.839.402-3.842 2.582-2.007 1.825 1.536 1.786 1.387-.24-.905-1.334-1.509-2.571-2.743-2.75-2.743s-.25 2.137-.158 4.75m11.104-.25c0 2.75.192 4.015.426 2.811.245-1.263 1.35-2.368 2.613-2.613l2.189-.426-2.18-.136c-1.408-.088-2.334-.933-2.614-2.386-.239-1.238-.434 0-.434 2.75m26.014 0c.008 2.75.202 3.756.432 2.236s.223-3.77-.014-5-.425.014-.418 2.764m5.221-3.511c-.35.566.051.734.941.393 1.732-.665 2.049-1.382.611-1.382-.518 0-1.216.445-1.552.989m6.147.011c.635.825 1.361 2.625 1.614 4l.46 2.5.136-2.628c.075-1.448-.649-3.243-1.614-4-1.523-1.194-1.6-1.177-.596.128m4.632 3.5c.008 2.75.202 3.756.432 2.236s.223-3.77-.014-5-.425.014-.418 2.764m2.714-4.107c0 .216.698.661 1.552.989.89.341 1.291.173.941-.393-.587-.951-2.493-1.406-2.493-.596m-14.921 4.19c.048 1.165.285 1.402.604.605.289-.722.253-1.585-.079-1.917s-.568.258-.525 1.312m-47.329.079c.688.278 1.813.278 2.5 0 .688-.277.125-.504-1.25-.504s-1.937.227-1.25.504m33.874.877c-.965 2.514-.681 3.163.498 1.136.584-1.004.851-2.036.593-2.293-.257-.258-.749.263-1.091 1.157m4.407-1.039c0 .55.436 1.675.969 2.5s.969 1.05.969.5-.436-1.675-.969-2.5-.969-1.05-.969-.5M68.158 146c0 1.375.227 1.938.504 1.25.278-.687.278-1.812 0-2.5-.277-.687-.504-.125-.504 1.25M84 145.378c0 .207.787.995 1.75 1.75 1.586 1.243 1.621 1.208.378-.378-1.307-1.666-2.128-2.195-2.128-1.372m52.564.915c.376.986.935 1.541 1.243 1.233s.001-1.114-.683-1.793c-.988-.98-1.102-.865-.56.56"/><path fill-opacity=".588" fill-rule="evenodd" d="M0 100.005V200.01l100.25-.255 100.25-.255.255-99.75L201.01 0H0zm.481.495c0 55 .121 77.647.269 50.326.148-27.32.148-72.32 0-100C.602 23.147.481 45.5.481 100.5M95.5 52.151C92.373 53.857 73.024 73.188 71.43 76.2c-3.026 5.716-2.192 7.339 10.32 20.076 13.422 13.662 16.598 15.602 21.637 13.211 4.047-1.921 24.14-22.112 25.46-25.585 1.85-4.865.252-7.403-12.779-20.297-13.35-13.208-15.329-14.311-20.568-11.454M84.235 65.264C73.459 76.066 72 77.929 72 80.882c0 2.571.92 4.274 3.946 7.299 3.842 3.842 4.111 3.939 10.25 3.696 5.59-.221 6.705-.624 9.849-3.565l3.544-3.317 3.708 3.797 3.708 3.797-3.801 3.712-3.8 3.711-3.398-3.506C92.862 93.262 92.157 93 86.583 93h-6.025l6.471 6.575c7.258 7.375 11.17 9.843 14.339 9.047C104.441 107.851 128 83.755 128 81.383c0-2.311-2.423-6.033-5.944-9.132-2.086-1.835-3.743-2.249-9.008-2.25-5.912-.001-6.731.269-9.769 3.213l-3.317 3.215-3.714-3.715L92.533 69l3.715-3.714 3.714-3.715 3.317 3.215c2.965 2.873 3.935 3.214 9.156 3.214h5.84l-7.874-7.5c-11.076-10.55-10.846-10.592-26.166 4.764M97 66.5l-2.4 2.555 2.5 2.5 2.5 2.5L102 71.5l2.4-2.555-2.5-2.5-2.5-2.5zm11.006 9.994C105.012 79.583 104.012 80 99.601 80c-4.282 0-5.485-.465-8.322-3.214l-3.317-3.215-3.714 3.715L80.533 81l3.715 3.714 3.714 3.715 3.317-3.215C94.182 82.401 95.269 82 100 82c4.651 0 5.837.419 8.5 3l3.095 2.999 3.705-3.794 3.705-3.794-3.801-3.712-3.8-3.711zM97.169 90.32l-2.18 2.321 2.403 2.257c2.328 2.187 2.469 2.202 4.505.458 2.582-2.211 2.647-3.554.274-5.701-2.332-2.111-2.403-2.101-5.002.665m73.081 27.171c-4.95 2.151-4.237 6.698 1.338 8.538 4.778 1.577 4.387 3.365-.588 2.698-3.442-.462-4-.274-4 1.349 0 3.667 11.125 3.841 13.776.216 1.945-2.66 1.083-4.587-3.035-6.792-4.695-2.514-4.802-3.934-.241-3.194 2.926.475 3.5.27 3.5-1.252 0-3.077-5.446-3.868-10.75-1.563M21.178 124.25c-1.751 3.988-3.182 7.588-3.18 8 .004 1.446 6.06.762 6.64-.75.33-.86 1.823-1.5 3.5-1.5s3.17.64 3.5 1.5c.335.872 1.832 1.5 3.577 1.5 2.713 0 2.941-.244 2.366-2.534-.35-1.393-1.724-4.993-3.053-8-2.329-5.265-2.561-5.466-6.292-5.466-3.85 0-3.894.045-7.058 7.25M41 125v8h6v-16h-6zm10 0v8h3c2.667 0 3-.333 3-3 0-2.762.278-3 3.5-3s3.5.238 3.5 3c0 2.667.333 3 3 3h3v-16h-3c-2.533 0-3 .389-3 2.5 0 2.19-.433 2.5-3.5 2.5s-3.5-.31-3.5-2.5c0-2.111-.467-2.5-3-2.5h-3zm23-2.434c0 7.071 1.164 9.187 5.506 10.001C87.58 134.082 91 131.214 91 122.929c0-5.921-.004-5.929-3-5.929-2.962 0-3 .067-3 5.393 0 4.007-.409 5.55-1.59 6.003-2.666 1.023-3.41-.276-3.41-5.955 0-5.379-.034-5.441-3-5.441-2.974 0-3 .048-3 5.566m21 2.379c0 7.925.04 8.055 2.5 8.055 2.368 0 2.504-.304 2.579-5.75l.079-5.75 2.004 5.75c1.783 5.114 2.308 5.75 4.746 5.75 2.381 0 2.948-.623 4.321-4.75l1.58-4.75.095 4.75c.093 4.59.197 4.75 3.096 4.75h3v-16h-4.442c-4.441 0-4.442.001-5.808 4.75l-1.366 4.75-1.52-4.5c-1.485-4.395-1.629-4.507-6.192-4.805L95 116.89zm32.093-5.753c-.495 1.27-1.844 4.483-2.997 7.141s-2.096 5.246-2.096 5.75c0 1.554 5.744 1.028 6.362-.583.33-.86 1.823-1.5 3.5-1.5s3.17.64 3.5 1.5c.617 1.608 6.638 2.151 6.638.599 0-.496-1.312-3.983-2.916-7.75-2.871-6.746-2.977-6.854-7.002-7.157-3.489-.262-4.22.031-4.989 2M145 125c0 7.867.042 8 2.5 8 2.313 0 2.5-.353 2.5-4.712v-4.713l4.784 4.713c2.802 2.759 5.703 4.712 7 4.712 2.103 0 2.216-.407 2.216-8v-8h-3c-2.793 0-3 .255-3 3.703v3.703l-3.792-3.703c-2.484-2.425-4.727-3.703-6.5-3.703H145zm-118.29-1c-.381 1.457-.03 2 1.29 2s1.671-.543 1.29-2c-.288-1.1-.868-2-1.29-2s-1.002.9-1.29 2m104 0c-.34 1.3-.03 2 .884 2 .773 0 1.406-.9 1.406-2s-.398-2-.883-2c-.486 0-1.119.9-1.407 2M62.2 140.2c-1.998 1.998-1.175 7.8 1.107 7.8.731 0 .696-.397-.107-1.2-1.768-1.768-1.459-5.55.55-6.72.963-.561 1.278-1.033.7-1.05-.577-.016-1.59.51-2.25 1.17m8.98 1.05c.217 1.526 1.049 2.293 2.585 2.383 1.885.111 1.927.057.25-.319-2.956-.665-2.456-3.114.735-3.598 2.506-.379 2.456-.43-.57-.566-2.905-.131-3.279.131-3 2.1m8.03 2.25c.116 4.594.159 4.678.531 1.039l.405-3.961 3.389 3.961 3.39 3.961-.131-5c-.115-4.407-.177-4.545-.528-1.159l-.398 3.84-3.392-3.84-3.393-3.841zm10.926.25c.075 2.613.328 3.765.562 2.561.245-1.263 1.35-2.368 2.613-2.613l2.189-.426-2.25-.136c-1.237-.075-2.25-.78-2.25-1.566 0-.787 1.013-1.626 2.25-1.864 1.929-.372 1.858-.453-.5-.57-2.651-.131-2.745.035-2.614 4.614m10.173-4.028c3.301.496 3.083 2.432-.383 3.401-1.334.373-1.823.722-1.086.777s2.221 1.112 3.299 2.35c1.896 2.177 1.919 2.18.72.081-.99-1.733-.982-2.477.037-3.706 1.745-2.102.536-3.656-2.705-3.475l-2.691.15zm8.16.328c-.368.596-.399 1.353-.069 1.683s.607-.037.615-.816c.013-1.167.187-1.152.985.083.582.901.975 1.025.985.309.021-1.684-1.716-2.553-2.516-1.259m5.727-.371c1.166.307 1.814 1.754 2.075 4.634l.38 4.187.174-4.177c.128-3.042.65-4.301 1.925-4.634.963-.251-.05-.457-2.25-.457s-3.237.201-2.304.447m6.839 1.255c-1.494 2.791-1.279 4.636.715 6.145 1.489 1.127 1.563 1.115.5-.077-1.702-1.909-1.571-4.539.321-6.431.865-.864 1.106-1.571.536-1.571s-1.502.87-2.072 1.934m6.215-.942c2.01 1.272 2.315 5.043.55 6.808-.912.912-.916 1.2-.019 1.2 1.618 0 2.737-4.956 1.545-6.845-.533-.845-1.612-1.701-2.397-1.904-.829-.213-.694.098.321.741m4.886 3.758c.075 2.613.331 3.738.57 2.5.528-2.74 1.745-2.872 3.492-.378 1.173 1.675 1.329 1.411 1.48-2.5.163-4.204.057-4.372-2.754-4.372-2.841 0-2.92.135-2.788 4.75m.864-2.25c0 .833.889 1.5 2 1.5s2-.667 2-1.5-.889-1.5-2-1.5-2 .667-2 1.5m-26.856 4.25c-1.091 2.55-1.066 2.609.34.809.834-1.068 1.516-2.305 1.516-2.75 0-1.52-.678-.81-1.856 1.941m4.427-1.074c-.372.97-.36 1.446.027 1.059s1.336.077 2.108 1.031c1.238 1.529 1.263 1.438.214-.766-1.595-3.348-1.576-3.338-2.349-1.324M68.158 146c0 1.375.227 1.938.504 1.25.278-.687.278-1.812 0-2.5-.277-.687-.504-.125-.504 1.25m2.921.583c.048 1.165.285 1.402.604.605.289-.722.253-1.585-.079-1.917s-.568.258-.525 1.312"/><path fill-opacity=".963" fill-rule="evenodd" d="M0 100.005V200.01l100.25-.255 100.25-.255.255-99.75L201.01 0H0zm.481.495c0 55 .121 77.647.269 50.326.148-27.32.148-72.32 0-100C.602 23.147.481 45.5.481 100.5m82.311-36.708c-17.238 17.239-17.233 16.047-.136 33.327 13.077 13.217 16.092 15.101 20.535 12.838 3.299-1.679 23.661-21.912 25.443-25.28 2.629-4.971 1.084-7.565-12.515-21.021-17.28-17.097-16.088-17.102-33.327.136m1.502 1.502C69.98 79.608 69.415 81.07 75.792 87.297 79.437 90.856 79.857 91 86.605 91c6.501 0 7.234-.223 9.905-3.01l2.884-3.011 3.806 3.716 3.805 3.716-3.708 3.797-3.708 3.797-3.586-3.503c-3.22-3.143-4.147-3.5-9.045-3.487l-5.458.015 8.232 8.098c7.358 7.237 8.526 8.026 11 7.426 3.051-.741 23.493-20.325 25.838-24.754 2.037-3.847 1.894-4.341-2.697-9.322-4.085-4.432-4.195-4.478-10.708-4.478-6.172 0-6.803.217-10.168 3.502l-3.586 3.503-3.759-3.849-3.759-3.849 3.654-3.654C97.556 63.644 99.521 62 99.913 62s2.006 1.35 3.587 3c2.516 2.626 3.564 3 8.412 3h5.538L110 60.5c-10.489-10.559-10.321-10.591-25.706 4.794M97 66.5l-2.4 2.555 2.5 2.5 2.5 2.5L102 71.5l2.4-2.555-2.5-2.5-2.5-2.5zM84.25 76.724C82.463 78.623 81 80.499 81 80.893s1.575 2.241 3.5 4.107l3.5 3.392 3.298-3.196C94.096 82.484 95.338 82 99.5 82c4.163 0 5.404.484 8.206 3.2l3.301 3.199 3.999-3.905 3.999-3.905-3.708-3.797-3.708-3.797-3.586 3.503C104.887 79.539 103.769 80 99.5 80c-4.212 0-5.423-.482-8.458-3.365L87.5 73.27zM97.169 90.32l-2.18 2.321 2.326 2.185 2.326 2.185 2.36-2.512 2.361-2.513-2.139-1.993c-2.641-2.46-2.422-2.474-5.054.327m-75.705 33.052c-1.905 4.123-3.464 7.976-3.464 8.562 0 1.668 5.982 1.276 6.638-.434.759-1.978 5.331-1.925 6.796.079.736 1.007 2.279 1.459 4.262 1.25l3.107-.329-3.319-8c-3.216-7.753-3.43-8.01-6.937-8.313-3.606-.311-3.632-.284-7.083 7.185M41 124.5v8.5h6v-17h-6zm10 0v8.5h3c2.667 0 3-.333 3-3 0-2.762.278-3 3.5-3s3.5.238 3.5 3c0 2.667.333 3 3 3h3v-17h-3c-2.667 0-3 .333-3 3 0 2.762-.278 3-3.5 3s-3.5-.238-3.5-3c0-2.667-.333-3-3-3h-3zm22.371-7.025c-.339.885-.395 3.924-.123 6.754.661 6.883 3.324 9.163 9.958 8.525 6.906-.663 7.794-1.789 7.794-9.876V116h-6v6c0 5.701-.122 6-2.45 6-2.281 0-2.471-.396-2.75-5.75-.284-5.446-.446-5.767-3.056-6.067-1.823-.21-2.964.228-3.373 1.292M95 124.445c0 8.357.055 8.555 2.393 8.555 2.683 0 3.74-1.775 2.922-4.904-.906-3.465 1.321-2.358 2.322 1.154.75 2.633 1.501 3.307 3.954 3.549 2.81.278 3.142-.046 4.623-4.5l1.595-4.799.095 4.75c.093 4.59.197 4.75 3.096 4.75h3v-7.5c0-4.125.007-7.838.015-8.25s-1.953-.885-4.358-1.049l-4.374-.299-1.506 5.299-1.506 5.299-1.485-5c-1.484-4.994-1.491-5-6.136-5.305L95 115.89zm29.8-.195-3.488 8.25 3.012.326c1.964.212 3.318-.223 3.893-1.25 1.126-2.012 6.38-2.067 7.145-.076.58 1.512 6.633 2.196 6.643.75.003-.412-1.397-4.238-3.112-8.5-3.11-7.731-3.127-7.75-6.861-7.75-3.74 0-3.746.007-7.232 8.25m19.619-6.901c-.284.742-.383 4.455-.218 8.25.29 6.7.379 6.91 3.049 7.217 2.659.306 2.751.157 2.79-4.5l.039-4.816 4.373 4.75c3.053 3.316 5.154 4.75 6.96 4.75 2.581 0 2.588-.023 2.588-8.5V116h-3c-2.858 0-3 .199-3 4.208v4.208l-4.288-4.208c-4.305-4.225-8.297-5.453-9.293-2.859m25.581-.061c-1.548.779-2.619 2.277-2.811 3.934-.262 2.25.333 3.004 3.75 4.747 5.136 2.62 5.156 3.462.061 2.647-3.491-.558-4-.397-4 1.265 0 2.271 1.865 3.119 6.859 3.119 4.282 0 8.141-2.324 8.141-4.902 0-2.098-2.571-4.578-5.75-5.547-3.665-1.117-2.682-2.883 1.25-2.245 2.932.476 3.5.271 3.5-1.262 0-3.139-6.266-4.139-11-1.756m-142.516 6.005c-.789 1.936-.173 3.131 1.319 2.561.511-.195.587-1.254.17-2.354-.707-1.865-.808-1.879-1.489-.207m103.223.718c-.337 1.289-.025 1.989.887 1.989 1.545 0 1.932-2.557.52-3.43-.488-.301-1.121.347-1.407 1.441M62.2 140.2c-2.161 2.161-1.45 6.729 1.236 7.953 3.301 1.504 5.564.438 5.564-2.622 0-1.75-.54-2.526-1.75-2.516-1.401.013-1.471.192-.354.899 1.672 1.059.752 4.086-1.242 4.086-2.113 0-3.85-2.592-3.481-5.195.249-1.755 1.163-2.453 3.827-2.923 3.474-.614 3.477-.62.45-.75-1.678-.073-3.59.408-4.25 1.068m8.995 3.55c.288 4.492.468 4.761 3.305 4.946 2.544.166 2.649.09.691-.5-1.27-.383-2.282-1.034-2.25-1.446s.059-1.167.059-1.677c0-.509.787-1.132 1.75-1.384 1.317-.344 1.193-.486-.5-.573-2.964-.153-2.435-2.443.75-3.248 2.246-.567 2.164-.643-.805-.75L70.89 139zm7.98.5c.171 5.161.181 5.176.562.905l.387-4.344 3.397 3.844 3.396 3.845-.09-5c-.08-4.453-.158-4.622-.709-1.551l-.618 3.448-2.685-3.198c-1.477-1.76-2.94-3.199-3.25-3.199s-.486 2.363-.39 5.25M90 144c0 4.821.099 4.995 2.75 4.864 2.358-.117 2.429-.198.5-.57C91.878 148.03 91 147.135 91 146s.878-2.03 2.25-2.294l2.25-.434-2.25-.136c-1.237-.075-2.25-.78-2.25-1.566 0-.787 1.013-1.626 2.25-1.864 1.929-.372 1.858-.453-.5-.57-2.651-.131-2.75.043-2.75 4.864m7-.5c0 2.475.45 4.5 1 4.5s1.016-1.012 1.036-2.25c.034-2.137.159-2.099 2.495.75 2.365 2.886 3.424 2.559 1.511-.466-.587-.928-.54-1.934.127-2.738 1.747-2.105.147-4.296-3.138-4.296-2.926 0-3.031.156-3.031 4.5m9.939.142c-1.094 2.552-1.764 4.867-1.488 5.143s.786-.238 1.132-1.142c.347-.904 1.66-1.643 2.917-1.643s2.57.739 2.917 1.643c.346.904.856 1.418 1.132 1.142.591-.592-3.213-9.785-4.049-9.785-.314 0-1.466 2.089-2.561 4.642m7.259-3.963c1.217.321 1.803 1.774 2.07 5.134l.372 4.687.18-4.677c.135-3.517.614-4.79 1.93-5.134.963-.251-.05-.457-2.25-.457s-3.236.201-2.302.447m7.002.521c-3.683 3.683 1.487 10.175 6.341 7.963 1.913-.871 2.459-1.878 2.459-4.535 0-3.562-1.24-4.628-5.382-4.628-1.22 0-2.758.54-3.418 1.2m10.95 4.05c.082 2.887.337 4.012.566 2.5.506-3.338 1.642-3.488 3.783-.5l1.613 2.25-.637-2.641c-.353-1.461-.174-2.927.4-3.282 1.932-1.194-.056-3.577-2.982-3.577-2.842 0-2.89.092-2.743 5.25M99 141.5c0 1.03.655 1.52 1.75 1.31 2.108-.406 1.975-2.181-.197-2.633-.906-.189-1.553.362-1.553 1.323m23.243-.343c-3.303 3.303 1.684 8.808 5.278 5.826 2.486-2.064 1.503-6.422-1.528-6.776-1.379-.161-3.066.266-3.75.95M133 141.5c0 .833.889 1.5 2 1.5s2-.667 2-1.5-.889-1.5-2-1.5-2 .667-2 1.5m-24.361.998c-.893 2.327-.832 2.502.861 2.502 1.683 0 1.873-.863.624-2.834-.675-1.064-.975-.997-1.485.332"/></svg>