<svg xmlns="http://www.w3.org/2000/svg" width="200" height="200" fill="#000000"><path fill-opacity=".059" fill-rule="evenodd" d="M68.036 62.092a66504 66504 0 0 1-33.827 48.658L29.845 117h37.667l15.261-21.998 15.26-21.997-.267-26.661-.266-26.66zM103 46.223v26.652l15.25 22.031 15.25 22.03 18.818.032 18.818.032-1.91-2.75c-1.051-1.513-15.775-22.775-32.721-47.25s-31.416-45.159-32.157-45.964C103.214 19.804 103 23.813 103 46.223M87.029 96.996c-7.274 10.527-13.024 19.342-12.777 19.589s12.382.328 26.969.182l26.521-.267-12.861-18.44c-7.074-10.142-13.258-18.837-13.744-19.323-.51-.51-6.463 7.195-14.108 18.259M30 146c0 13.2.186 24 .413 24 .544 0 31.603-44.878 32.279-46.641.427-1.112-2.498-1.359-16.085-1.359H30zm21.432 2.291L33.364 174.5l33.891.263c18.64.145 48.933.145 67.317 0l33.426-.263-18.243-26.25L131.512 122l-31.006.041-31.006.042zM138 122.574c0 1.115 32.478 47.404 33.268 47.415.423.006.648-10.676.5-23.739l-.268-23.75-16.75-.274c-9.213-.151-16.75.006-16.75.348"/><path fill-opacity=".296" fill-rule="evenodd" d="M64.5 67.565c-18.15 26.144-33.15 47.962-33.333 48.485-.203.579 6.829.931 18 .901l18.333-.049 15.249-22.201L97.998 72.5l.001-26.25c.001-14.437-.111-26.243-.249-26.234S82.65 41.422 64.5 67.565m38.507-21.515.007 26.45 15.327 22 15.327 22 18.66.272 18.659.272-10.301-14.772c-5.666-8.125-20.585-29.622-33.155-47.772S104.3 21.073 103.839 20.55s-.836 10.952-.832 25.5M87.166 97.286 73.861 116.5l26.219.267c14.421.147 26.421.065 26.667-.181.352-.352-23.091-34.908-25.645-37.8-.347-.393-6.618 7.932-13.936 18.5M30 146.2c0 13.31.378 23.772.841 23.25C32.482 167.595 63 123.088 63 122.549c0-.302-7.425-.549-16.5-.549H30zm39.267-22.964c-3.919 4.95-35.322 51.043-34.996 51.368.226.226 30.351.295 66.945.153l66.535-.257-18.145-26-18.146-26-30.596-.264c-23.722-.205-30.82.02-31.597 1m69.352.014c2.024 3.434 31.574 45.75 31.948 45.75.238 0 .433-10.575.433-23.5V122h-16.559c-12.974 0-16.399.271-15.822 1.25"/><path fill-opacity=".319" fill-rule="evenodd" d="M64.917 67.531c-17.92 25.833-32.909 47.532-33.309 48.219-.57.981 3.152 1.25 17.266 1.25h17.993L82.45 94.524l15.584-22.476-.267-25.743-.267-25.744zM103 46.293v25.721l15.648 22.493L134.296 117h17.852c9.819 0 17.852-.196 17.852-.436 0-.615-63.968-92.745-65.633-94.528-1.159-1.241-1.367 2.458-1.367 24.257M87.208 97.655 74.178 116.5l13.471.279c7.409.153 19.301.153 26.427 0l12.957-.279L114.927 99c-6.658-9.625-12.687-18.105-13.397-18.845-1.068-1.112-3.552 1.923-14.322 17.5M30 146.648v23.648l16-23.11c8.8-12.711 16-23.353 16-23.648 0-.296-7.2-.538-16-.538H30zm21.744 2.13L33.988 174.5l66.166.257c36.391.142 66.35.073 66.576-.153s-7.59-11.929-17.367-26.007L131.585 123l-31.042.028-31.043.028zm87.872-24.528c1.216 2.073 29.606 43.176 30.528 44.2.477.53.856-9.318.856-22.25V123h-16.059c-12.572 0-15.9.271-15.325 1.25"/><path fill-opacity=".287" fill-rule="evenodd" d="M104 47.255v25.7l15.25 22.005 15.25 22.004 17.809.018c13.593.014 17.634-.266 17.068-1.181-.408-.66-14.673-21.247-31.7-45.75a81903 81903 0 0 1-32.318-46.524C104.198 21.842 104 25.296 104 47.255M64.593 68.5c-17.548 25.3-32.341 46.563-32.872 47.25-.765.989 2.768 1.25 16.948 1.25h17.914l15.226-21.984 15.225-21.985-.267-25.265L96.5 22.5zm22.705 29.521L74.154 117h52.984l-5.758-8.25c-3.167-4.537-8.889-12.75-12.717-18.25s-7.244-10.328-7.59-10.729-6.546 7.812-13.775 18.25M30 146.2c0 12.76.375 22.772.833 22.25.934-1.067 29.397-42.249 30.548-44.2.577-.979-2.748-1.25-15.322-1.25H30zm36.033-17.45c-2.22 3.162-10.276 14.75-17.902 25.75l-13.866 20 32.795.263c18.037.145 47.91.145 66.384 0l33.59-.263-17.767-25.711-17.767-25.712-30.716-.038L70.069 123zm80.632 5.5c4.283 6.188 11.511 16.619 16.061 23.181l8.274 11.93V123h-32.123z"/></svg>