<svg xmlns="http://www.w3.org/2000/svg" width="200" height="200" fill="#000000"><path fill-opacity=".188" fill-rule="evenodd" d="M106.097 2.196c1.34 1.094.054 1.329-8.001 1.457-5.278.084-12.27.648-15.537 1.251-4.486.83-6.117.811-6.666-.077-.532-.861-2.997-.436-9.213 1.586C36.578 16.205 11.385 43.254 2.799 75 .795 82.41.508 85.744.565 101c.059 16.142.278 18.198 2.815 26.5 10.359 33.888 35.19 58.668 69.343 69.2 8.199 2.528 9.996 2.706 27.277 2.706 17.374 0 19.048-.168 27.5-2.767 16.163-4.969 29.367-12.587 40.864-23.578 15.811-15.112 26.616-34.208 27.195-48.061.978-23.406 1.751-30.987 3.051-29.909.847.703 1.433 4.172 1.647 9.75.182 4.763.357 2.134.387-5.841.034-8.935-.213-12.773-.644-10-.694 4.465-.701 4.471-.85.815-.082-2.026-.803-6.751-1.6-10.5-8.901-41.83-44.331-73.83-86.105-77.769-5.794-.546-6.68-.439-5.348.65m34.946 24.736c-3.637 5.669-3.751 7.074-.793 9.769 3.961 3.607 6.462 4.496 8.708 3.093 2.526-1.577 2.966-2.74 2.319-6.124l-.517-2.703-2.501 2.501c-4.243 4.243-5.963.755-2.162-4.385 2.374-3.212 2.235-6.272-.304-6.644-1.087-.159-2.81 1.471-4.75 4.493m-91.995-1.965c-.799.495-1.811.679-2.25.408-1.193-.737-.963 5.359.429 11.346 1.212 5.212 2.348 6.549 3.349 3.941.283-.737.381-4.772.219-8.968-.246-6.373-.534-7.48-1.747-6.727m36.031.616c.048 1.165.285 1.402.604.605.289-.722.253-1.585-.079-1.917s-.568.258-.525 1.312M154 27.393c0 .216.698.661 1.552.989.89.341 1.291.173.941-.393-.587-.951-2.493-1.406-2.493-.596m.954 4.693c-.614 1.147-.928 2.274-.697 2.504.23.23.932-.708 1.559-2.086 1.378-3.024.707-3.35-.862-.418m-62.454.911c-6.67.756-10.506 1.788-10.488 2.82.007.376 6.325 7.208 14.039 15.183l14.027 14.5-12.289.634c-9.822.507-12.753.344-14.598-.812-1.27-.795-3.066-1.3-3.989-1.122-1.284.247-.908.873 1.592 2.654 3.074 2.188 4.206 2.334 18.614 2.395 13.923.06 15.607-.123 18.216-1.984 3.957-2.819 6.971-6.265 5.481-6.265-1.624 0-.467-1.894 4.292-7.028 3.636-3.921 4.173-4.166 8-3.652 2.748.369 4.744.077 6.044-.884 1.922-1.421 1.922-1.451 0-2.955-1.067-.836-5.072-3.287-8.9-5.447-11.421-6.446-26.817-9.536-40.041-8.037M24.07 58.125C20.998 63.176 16.234 78.828 14.976 88c-1.116 8.139-.707 20.621.869 26.513.678 2.535.819 2.596 2.19.944 1.145-1.381 1.396-4.295 1.15-13.362-.379-13.962 1.288-23.531 6.269-35.98 1.95-4.874 3.546-9.37 3.546-9.989 0-2.283-3.087-1.031-4.93 1.999m119.582 5.116c.832 5.127-.449 12.759-2.142 12.759-.777 0-2.073 2.27-2.999 5.25-.897 2.888-1.866 5.813-2.154 6.5-1.019 2.433 2.701 1.218 3.825-1.25.626-1.375 1.411-2.5 1.744-2.5s5.991 5.4 12.574 12 12.313 12 12.734 12c1.128 0 .931-12.386-.309-19.509-1.063-6.106-1.198-6.296-12.47-17.536-11.157-11.125-11.383-11.287-10.803-7.714M56 70.782c0 2.63.707 7.243 1.571 10.25 1.912 6.653 1.989 7.565.999 11.836-1.084 4.676 1.336 3.766 3.035-1.141 1.099-3.174 1.01-4.392-.669-9.169C59.871 79.529 59 74.564 59 71.525 59 67.281 58.652 66 57.5 66c-1.124 0-1.5 1.198-1.5 4.782m23.451 6.649c-1.778 1.319-1.811 1.589-.374 3.049 1.305 1.327 2.683 1.462 8 .784 6.369-.811 6.402-.831 3.923-2.429-3.797-2.446-9.248-3.109-11.549-1.404m29.799.789c-3.496 1.687-2.673 2.764 2.25 2.947 2.475.091 5.287.204 6.25.25 1.087.051 1.871-.77 2.07-2.167.29-2.044-.077-2.244-4-2.182-2.376.037-5.333.556-6.57 1.152m-25.948 5.792C80.685 85.066 78 89.871 78 93.5c0 3.373 2.501 8.163 4.945 9.47 3.256 1.743 6.081 1.158 9.132-1.893C94.47 98.684 95 97.31 95 93.5s-.53-5.184-2.923-7.577c-3.013-3.013-4.977-3.441-8.775-1.911m26.055-.02C106.02 85.338 104 89.037 104 93.799c0 3.48.587 4.942 2.923 7.278 4.297 4.297 9.725 3.437 12.529-1.984 2.934-5.675 1.109-12.605-3.924-14.898-3.002-1.368-3.264-1.377-6.171-.203m-27.117 3.03c-2.366 2.751-3.053 5.894-2.07 9.478 2.584 9.421 14.815 5.956 13.51-3.828-.281-2.105-1.293-4.692-2.25-5.75-2.28-2.519-6.98-2.468-9.19.1m24.737.728c-1.663 2.11-2.049 3.64-1.657 6.578.679 5.088 3.154 7.672 7.35 7.672 6.339 0 9.025-8.238 4.792-14.698-2.229-3.402-7.632-3.171-10.485.448M.397 100c0 7.975.156 11.237.346 7.25s.189-10.513 0-14.5c-.19-3.987-.346-.725-.346 7.25M86 91.5c0 .825.675 1.5 1.5 1.5s1.5-.675 1.5-1.5-.675-1.5-1.5-1.5-1.5.675-1.5 1.5m26 0c0 .825.675 1.5 1.5 1.5s1.5-.675 1.5-1.5-.675-1.5-1.5-1.5-1.5.675-1.5 1.5m-46.264 12.75c-3.953 3.002-4.236 10.681-.659 17.832 4.85 9.693 24.358 22.418 34.371 22.418 6.006 0 16.072-4.388 22.026-9.603 4.93-4.316 13.269-17.012 14.106-21.473 1.626-8.665-2.46-11.735-11.246-8.448-2.983 1.116-7.836 2.024-10.822 2.024-3.39 0-5.712.49-6.212 1.31-1.331 2.18-5.605 4.69-7.988 4.69-1.233 0-3.78-1.35-5.659-3-2.747-2.412-4.327-3-8.06-3-2.554 0-7.204-.9-10.333-2-6.681-2.348-7.35-2.401-9.524-.75m20.268 12.525c.002.949 1.011 3.3 2.241 5.225s2.917 5.485 3.747 7.91c.829 2.426 2.717 5.305 4.194 6.398 2.337 1.729 3.074 1.827 5.665.754 2.807-1.163 4.097-3.213 5.7-9.062.377-1.375 1.253-3.175 1.947-4 1.417-1.685 4.502-7.549 4.502-8.557 0-.361-.787-.317-1.75.1-2.587 1.118-21.203 1.426-23.914.395-1.889-.719-2.335-.558-2.332.837"/><path fill-opacity=".261" fill-rule="evenodd" d="M89.058 4.081C73.653 5.95 58.294 11.656 45.192 20.378c-6.314 4.204-20.064 17.531-24.886 24.123-1.207 1.649-2.22 2.708-2.25 2.352-.031-.355 2.449-3.888 5.51-7.85 6.53-8.451 6.685-10.494.214-2.801-33.597 39.934-31.378 96.907 5.213 133.885 8.886 8.98 16.925 14.58 29.444 20.51 14.354 6.8 24.128 8.847 42.063 8.809 16.47-.034 25.333-1.738 38.768-7.453 12.054-5.128 30.654-18.652 29.103-21.162-.332-.538 1.173-2.848 3.345-5.134 19.143-20.147 28.775-52.206 24.231-80.657-1.591-9.96-7.155-25.126-12.567-34.256-6.72-11.336-22.175-26.908-32.88-33.131C131.429 6.528 109.216 1.636 89.058 4.081m16.432 9.305c-.654 2.878-2.323 14.072-2.13 14.288.085.096 1.472.321 3.081.5 2.368.264 3.035-.118 3.497-2.002.567-2.312.586-2.307 2.846.75 1.423 1.924 3.16 3.078 4.635 3.078 2.528 0 2.778-.704 4.175-11.75l.664-5.25h-3.129c-2.368 0-3.129.446-3.129 1.833 0 3.152-1.257 3.274-3.066.299-2.254-3.707-6.759-4.763-7.444-1.746m-27.936.526c-.31.502.114 4.131.941 8.066.828 3.934 1.505 7.348 1.505 7.587 0 .774 3.459.431 4.907-.487 1.196-.757 1.213-2.032.109-8.484C83.76 13.253 83.624 13 80.918 13c-1.54 0-3.054.41-3.364.912m63.105 11.973c-1.462 2.687-2.659 6.062-2.659 7.5 0 3.07 2.908 6.303 6.475 7.198 4.682 1.175 7.216-.299 10.559-6.143 1.75-3.057 3.02-5.696 2.823-5.864-.196-.168-1.459-.88-2.806-1.582-2.176-1.135-2.623-1.031-4 .925-3.992 5.669-5.987 7.611-6.019 5.855-.018-.949.866-3.199 1.964-5s1.998-3.764 2-4.363c.003-.86-4.024-3.411-5.384-3.411-.162 0-1.491 2.198-2.953 4.885m-92.53-1.611c-2.307 1.109-2.352 1.367-1.678 9.671.38 4.692.883 8.722 1.116 8.956.87.869 5.433-1.913 5.433-3.312 0-1.596 3.496-3.118 6.243-2.719.959.139 2.67-.396 3.802-1.189 1.989-1.393 1.826-1.636-4.71-7.062-3.723-3.09-7.01-5.589-7.302-5.551-.293.037-1.6.58-2.904 1.206M91.5 32.649c-19.074 3.056-37.263 14.168-47.1 28.776l-3.326 4.939 7.989 8.322c4.394 4.577 8.41 9.428 8.924 10.781.671 1.764.348 4.782-1.143 10.679-3.247 12.84-1.558 20.505 7.013 31.827 2.279 3.01 4.143 6.048 4.143 6.75s.402 1.277.893 1.277c1.676 0 1.951-2.746.547-5.452-1.279-2.466-.989-2.358 3.329 1.243 6.811 5.68 13.827 9.74 20.954 12.128l6.223 2.084 6.777-2.54c13.111-4.913 24.091-14.338 29.529-25.345 3.777-7.647 3.952-13.17.742-23.465-1.174-3.765-1.945-7.035-1.715-7.266.521-.52 4.616 13.122 5.322 17.73.285 1.86-.168 5.616-1.007 8.345-.983 3.195-1.17 5.182-.526 5.58 1.189.735.389 3.156-2.665 8.061l-2.243 3.603 7.89 7.844c4.34 4.314 8.045 7.642 8.234 7.397s1.981-2.492 3.981-4.99c4.962-6.198 10.441-18.071 12.224-26.486 3.191-15.068 1.304-30.056-5.577-44.27-3.4-7.025-5.776-10.192-13.277-17.697-9.881-9.887-18.246-14.877-30.135-17.979-6.297-1.642-20.888-2.695-26-1.876m-28.845 22.18C61.745 55.835 61 57.06 61 57.551s.701-.106 1.557-1.328c1.877-2.68 3.123-2.781 5.864-.473 2.077 1.748 2.077 1.748.174-.5-2.31-2.728-3.759-2.831-5.94-.421m74.453 2.882c2.34 4.59 2.55 15.784.429 22.833-.805 2.675-1.286 5.041-1.068 5.258C137.507 86.841 140 74.866 140 68.839c0-6.47-2.256-14.839-4.001-14.839-.431 0 .068 1.67 1.109 3.711M22.154 61.817C7.198 94.265 13.783 133.594 38.54 159.68c5.179 5.458 7.492 7.245 8.75 6.762.941-.361 1.71-1.118 1.71-1.683s-3.099-4.289-6.886-8.275c-23.293-24.522-29.599-61.547-15.669-92.001 3.383-7.397 3.52-9.483.62-9.483-1.212 0-2.759 2.148-4.911 6.817M171 57.035c0 1.735.299 1.875 2.028.95 2.163-1.158 1.804-2.985-.587-2.985-.793 0-1.441.916-1.441 2.035M73.958 62.25C78.102 66.665 79 67.459 79 66.708c0-.16-2.138-2.298-4.75-4.75L69.5 57.5zm51.479-1.121c-1.615 1.721-4.692 4.421-6.837 6S115.205 70 115.823 70c1.128 0 14.17-11.9 13.114-11.965-.31-.019-1.885 1.373-3.5 3.094m4.872-.879c-1.121 1.237-3.66 4.823-5.641 7.968l-3.602 5.718 5.503 5.502c5.45 5.451 5.512 5.48 6.427 3.072 2.221-5.84 4.185-19.818 3.115-22.166-1.343-2.947-3.188-2.977-5.802-.094M63.31 64.5c.005 3.3.192 4.529.415 2.732s.218-4.497-.01-6c-.229-1.503-.411-.032-.405 3.268m2.773-5.217c.23.156 1.317.943 2.417 1.75 1.85 1.357 1.897 1.336.628-.283-.755-.962-1.843-1.75-2.417-1.75s-.857.127-.628.283m64.316 3.018c-2.357 2.767-5.076 6.859-7.139 10.743-.159.299 1.342 1.133 3.335 1.854 3.091 1.118 3.843 1.092 5.11-.174 1.627-1.627 3.501-13.738 2.325-15.025-.403-.441-2.037.73-3.631 2.602M71 65c.589 1.1 1.295 2 1.57 2s.019-.9-.57-2-1.295-2-1.57-2-.019.9.57 2m-11.7 4c0 3.025.187 4.263.416 2.75s.229-3.987 0-5.5-.416-.275-.416 2.75m14.617.694c.601 1.207 1.619 2.519 2.262 2.916.77.477-.166 1.893-2.756 4.167L69.5 80.221l4.229-2.861c2.325-1.573 4.222-3.085 4.214-3.36s-1.164-1.85-2.568-3.5c-1.742-2.047-2.205-2.303-1.458-.806m20.352-.001c.973.254 2.323.237 3-.037s-.119-.481-1.769-.461-2.204.244-1.231.498m-8.519.969c.688.278 1.813.278 2.5 0 .688-.277.125-.504-1.25-.504s-1.937.227-1.25.504M64.158 73c0 1.375.227 1.938.504 1.25.278-.687.278-1.812 0-2.5-.277-.687-.504-.125-.504 1.25m.921 4.583c.048 1.165.285 1.402.604.605.289-.722.253-1.585-.079-1.917s-.568.258-.525 1.312m1.037 3.608c-.17 2.483 1.454 3.046 3.021 1.048 1.218-1.555 1.186-1.601-.303-.436-1.413 1.104-1.738 1.028-2.134-.5-.407-1.568-.483-1.582-.584-.112m-3.037 7.392c.048 1.165.285 1.402.604.605.289-.722.253-1.585-.079-1.917s-.568.258-.525 1.312m20.576.246C80.262 92.578 82.665 100 87.272 100 89.275 100 92 96.254 92 93.5c0-2.851-2.752-6.5-4.902-6.5-.983 0-2.533.823-3.443 1.829m24.758.664c-1.679 2.563-1.326 6.702.79 9.251 1.322 1.593 5.029 1.624 6.597.056 1.554-1.554 1.554-9.046 0-10.6-2.013-2.013-5.637-1.379-7.387 1.293M86 91.5c0 1.03.655 1.52 1.75 1.31 2.108-.406 1.975-2.181-.197-2.633-.906-.189-1.553.362-1.553 1.323m26 0c0 .825.675 1.5 1.5 1.5s1.5-.675 1.5-1.5-.675-1.5-1.5-1.5-1.5.675-1.5 1.5m-27 5.059c0 .857.457 1.276 1.016.931.559-.346.758-1.047.441-1.559C85.6 94.544 85 94.802 85 96.559m25.543-.628c-.317.512-.118 1.213.441 1.559s1.016-.074 1.016-.931c0-1.757-.6-2.015-1.457-.628m-51.464 6.652c.048 1.165.285 1.402.604.605.289-.722.253-1.585-.079-1.917s-.568.258-.525 1.312M92.2 102.2c-2.099 2.099-1.316 5.525 1.877 8.211 3.72 3.13 6.772 3.282 10.294.511 4.173-3.282 5.109-5.735 3.054-8.005-1.351-1.493-3.094-1.917-7.88-1.917-3.446 0-6.672.527-7.345 1.2M86 116.888c0 1.077 1.164 3.342 2.586 5.032 2.407 2.861 2.733 2.97 4.722 1.577 3.379-2.367 4.463-1.8 5.262 2.753l.746 4.25.92-3.5c1.287-4.894 2.246-5.57 5.177-3.649 3.264 2.139 3.087 2.194 5.505-1.719 2.655-4.295 2.809-7.091.318-5.758-.971.519-6.252.944-11.736.944s-10.765-.425-11.736-.944c-1.406-.753-1.764-.547-1.764 1.014m-25-.505c0 1.073 2.975 6.617 3.551 6.617.275 0-.243-1.463-1.152-3.25-1.857-3.65-2.399-4.411-2.399-3.367m4 7.995c0 .207.787.995 1.75 1.75 1.586 1.243 1.621 1.208.378-.378-1.307-1.666-2.128-2.195-2.128-1.372m-24.679 8.164c4.797 9.631 21.688 26.729 22.53 22.806.221-1.028-4.183-6.135-11.847-13.742-7.706-7.648-11.64-10.986-10.683-9.064M91 149.276c0 2.812 2.035 3.697 8.5 3.697s8.5-.885 8.5-3.697c0-2.02-.33-2.334-1.75-1.662-.963.455-4 .828-6.75.828s-5.787-.373-6.75-.828c-1.42-.672-1.75-.358-1.75 1.662m-31.554 20.811c-.369.598-1.556.856-2.638.573-1.472-.385-1.816-.124-1.37 1.04.328.854.084 2.171-.543 2.927-.627.755-.735 1.373-.24 1.373 1.746 0 5.102-2.964 5.627-4.969.582-2.226.214-2.642-.836-.944m83.118.62c-.542 1.425-.428 1.54.56.56.684-.679.991-1.486.683-1.793-.308-.308-.867.247-1.243 1.233M59 175.059c0 .582.45.781 1 .441s1-.816 1-1.059-.45-.441-1-.441-1 .477-1 1.059m65.59 3.842c-1.37 1.514-1.453 2.055-.405 2.66.723.418.977.387.563-.07-.414-.456-.007-1.653.905-2.66.911-1.007 1.432-1.831 1.157-1.831s-1.274.855-2.22 1.901m-49.026 2.806c-.542 1.425-.428 1.54.56.56.684-.679.991-1.486.683-1.793-.308-.308-.867.247-1.243 1.233m2.515.876c.048 1.165.285 1.402.604.605.289-.722.253-1.585-.079-1.917s-.568.258-.525 1.312m23.901.941c-1.838 2.215-.792 2.47 1.27.309.963-1.008 1.355-1.833.872-1.833-.482 0-1.446.686-2.142 1.524"/><path fill-opacity=".627" fill-rule="evenodd" d="M86.5 4.717C55.711 9 27.39 29.409 13.254 57.5c-25.135 49.949-.981 112.337 51.448 132.883 12.332 4.833 19.887 6.119 35.798 6.091 12.421-.021 16.45-.418 23.433-2.304 28.292-7.644 52.457-27.905 64.218-53.842C211.574 88.67 185.182 27.487 131.5 8.996c-12.046-4.149-32.174-6.063-45-4.279m17.992 11.533c-1.448 11.669-1.35 12.215 2.258 12.563 2.812.272 3.255.002 3.286-2l.036-2.313 2.214 2.633c2.712 3.225 6.041 4.383 7.511 2.612.594-.716 1.389-4.713 1.766-8.883l.688-7.582-2.672-.671c-3.337-.837-4.578-.106-4.583 2.7-.003 1.9-.267 1.759-1.985-1.059-1.513-2.481-2.677-3.25-4.924-3.25-2.801 0-2.975.254-3.595 5.25M79.25 12.706c-2.615.503-2.722 1.815-.924 11.294 1.211 6.382 1.287 6.494 4.204 6.182 1.633-.175 3.318-.658 3.743-1.073.426-.416.084-4.035-.759-8.043-1.602-7.617-2.175-9.156-3.323-8.93-.38.075-1.704.331-2.941.57m62.993 9.544C140.502 24.423 137 31.86 137 33.383c0 2.13 4.895 7.61 6.839 7.657 1.099.027.738.541-1.068 1.521-2.555 1.387-3.067 1.289-8.089-1.545-9.623-5.431-19.138-8.128-30.682-8.696-13.537-.666-22.596 1.196-34.5 7.091C45.6 51.247 31.744 73.937 31.889 101c.059 11.014 1.799 18.584 6.619 28.805 8.118 17.212 21.447 28.697 40.992 35.322 5.948 2.017 8.953 2.373 20 2.373 10.805 0 14.266-.394 20.5-2.332 11.445-3.558 19.542-8.535 28.597-17.58 13.069-13.054 19.415-28.205 19.514-46.588.103-19.276-5.905-34.353-19.403-48.691l-4.887-5.191 5.59-3.155c5.81-3.279 7.128-4.586 3.445-3.417l-2.145.68 2.015-2.162c1.108-1.19 2.836-3.985 3.84-6.211l1.826-4.049-2.446-1.88c-1.345-1.034-2.778-1.89-3.183-1.902-.406-.012-1.929 1.891-3.385 4.228-3.222 5.173-3.252 5.209-3.893 4.569-.283-.283.635-2.571 2.039-5.083l2.553-4.568-2.261-1.584c-2.726-1.909-4.238-2-5.573-.334m-95.149 2.5c-2.034 1.673-2.08 2.124-1.051 10.226.592 4.662 1.232 8.633 1.424 8.824.772.772 6.533-2.948 6.533-4.219 0-1.527 2.699-2.885 4.061-2.043 1.041.643 6.939-2.233 6.939-3.384C65 32.912 52.245 23 50.647 23c-.784 0-2.383.788-3.553 1.75m-23.117 32.5c-8.388 13.679-12.271 40.321-8.552 58.677 2.171 10.715 6.531 21.59 12.218 30.476C32.842 154.526 44.636 167 47.116 167c3.586 0 2.523-2.921-3.226-8.87-6.745-6.979-13.525-16.999-17.393-25.705-9.398-21.153-9.15-47.331.648-68.588 2.581-5.601 2.911-7.065 1.871-8.317-1.848-2.227-2.816-1.894-5.039 1.73m146.515-1.238c-.344.557.488 3.37 1.849 6.25 11.443 24.218 11.144 51.033-.831 74.738-4.031 7.979-8.11 13.677-14.824 20.712-3.86 4.043-5.723 6.748-5.339 7.75.325.846 1.039 1.538 1.587 1.538 1.658 0 7.748-5.816 13.001-12.419 20.957-26.336 25.657-62.942 11.911-92.764-2.175-4.72-3.694-6.817-4.935-6.817-.986 0-2.075.456-2.419 1.012M84 89c-2.398 2.398-2.567 5.746-.443 8.777 1.892 2.702 3.595 2.817 5.788.394 2.197-2.427 2.105-7.454-.174-9.516-2.329-2.108-2.746-2.08-5.171.345m25.571-.429c-3.18 3.18-1.126 11.429 2.845 11.429 4.101 0 6.117-8.302 2.755-11.345-2.283-2.066-3.597-2.086-5.6-.084M86 90.927c0 1.431.642 2.073 2.073 2.073 2.563 0 2.272-3.31-.334-3.812-1.2-.231-1.739.308-1.739 1.739m26-.01c0 1.228.646 2.083 1.573 2.083.932 0 1.442-.68 1.25-1.667-.486-2.509-2.823-2.853-2.823-.416m-28 5.666c0 .871.534 1.406 1.188 1.188 1.854-.618 2.161-2.771.395-2.771-.87 0-1.583.713-1.583 1.583m26-.083c0 .825.45 1.5 1 1.5s1-.675 1-1.5-.45-1.5-1-1.5-1 .675-1 1.5m-16.75 5.531c-3.925 1.578-2.364 6.825 2.83 9.51 3.359 1.737 5.51 1.356 9.338-1.655 3.077-2.42 3.404-6.376.648-7.851-2.337-1.251-9.708-1.253-12.816-.004M86 116.8c0 .971 3.095 6.034 4.301 7.035 1.122.931 1.693.877 2.629-.251.77-.928 3.111-1.441 6.57-1.441s5.8.513 6.57 1.441c.936 1.128 1.507 1.182 2.629.251 1.206-1.001 4.301-6.064 4.301-7.035 0-.165-6.075-.3-13.5-.3s-13.5.135-13.5.3m-26.359 52.031c-.539.834-1.777 1.101-3.32.713-2.14-.537-2.331-.384-1.462 1.169.733 1.309.577 2.253-.585 3.536-1.465 1.62-1.412 1.751.711 1.751 1.262 0 2.892.787 3.623 1.75 1.23 1.621 1.331 1.584 1.36-.5.025-1.763.627-2.265 2.782-2.318 2.661-.065 2.679-.102.554-1.128-1.262-.61-2.325-2.176-2.5-3.683-.218-1.881-.547-2.245-1.163-1.29m78.359.997c0 1.14-.748 2.491-1.663 3.003-1.473.825-1.416 1.009.5 1.617 1.19.378 2.163 1.331 2.163 2.119 0 1.941 1.638 1.818 2.405-.18.404-1.054 1.341-1.425 2.699-1.07 1.892.495 1.943.392.559-1.137-1.153-1.274-1.264-2.141-.458-3.582.939-1.678.79-1.83-1.268-1.292-1.283.336-2.919.124-3.635-.47-.998-.829-1.302-.597-1.302.992M77.325 176.4c-.741 1.313-1.746 1.723-3.256 1.328-1.767-.462-1.966-.309-1.044.803.64.77.834 2.338.442 3.572-.574 1.811-.39 2.081 1.044 1.531.959-.368 2.36-.156 3.116.471 1.064.883 1.373.79 1.373-.415 0-.855 1.013-1.877 2.25-2.271 2.152-.684 2.164-.745.273-1.41-1.087-.382-2.235-1.778-2.552-3.102-.542-2.268-.637-2.297-1.646-.507m42.675.338c0 1.126-.787 2.351-1.75 2.722-1.667.642-1.667.721 0 1.657.963.54 1.764 1.973 1.782 3.183.03 2.096.098 2.113 1.426.359 1.013-1.336 2.029-1.639 3.711-1.105 2.085.661 2.176.567.916-.952-1.061-1.278-1.119-1.968-.243-2.844 1.697-1.697 1.412-3.069-.487-2.341-.924.355-2.456-.104-3.5-1.048-1.749-1.583-1.855-1.562-1.855.369m-21.237 3.059c-.381 1.46-1.347 2.203-2.861 2.203-2.167 0-2.189.069-.431 1.355 1.135.83 1.609 1.993 1.223 3-.681 1.774.786 2.295 1.808.642.407-.659 1.335-.62 2.71.117 1.804.965 1.999.879 1.422-.625-.423-1.102-.019-2.236 1.099-3.084 1.657-1.258 1.636-1.343-.33-1.373-1.177-.018-2.529-.999-3.08-2.235l-.983-2.203z"/><path fill-opacity=".492" fill-rule="evenodd" d="M161.5 27c.995 1.1 2.035 2 2.31 2s-.315-.9-1.31-2-2.035-2-2.31-2 .315.9 1.31 2m-3.515 13.122c-6.317 3.317-11.916 6.45-12.443 6.962-.603.587.914 2.873 4.097 6.174 13.167 13.655 18.775 27.968 18.705 47.742-.048 13.343-2.584 22.847-9.068 33.985-4.835 8.303-15.988 19.456-24.291 24.291-11.253 6.551-20.604 9.023-34.485 9.117-13.282.089-22.093-1.927-32.239-7.375l-5.239-2.814-.87 3.648c-1.273 5.336-.732 10.004 1.335 11.515 1.711 1.251 1.689 1.354-.413 1.903-1.222.32-2.467 1.515-2.765 2.656S59.418 180 58.993 180s-.958 1.577-1.183 3.505l-.409 3.504 7.549 2.891c12.271 4.698 22.131 6.48 35.55 6.425 43.466-.18 80.407-28.441 92.713-70.93 2.009-6.934 2.28-10.025 2.23-25.395-.053-16.083-.276-18.212-2.757-26.288-4.307-14.023-13.584-30.676-20.843-37.416l-2.374-2.204zm12.433 15.232c-.317.826 1.058 5.588 3.057 10.583 4.78 11.947 6.486 20.433 6.508 32.355.04 22.823-7.876 42.469-23.73 58.892-4.279 4.432-6.297 7.258-5.908 8.274 1.083 2.821 4.691 1.601 9.49-3.208 12.534-12.562 20.847-28.106 24.737-46.25 1.661-7.751 1.855-25.787.357-33.201-1.554-7.692-5.613-19.682-8.223-24.291-2.381-4.205-5.319-5.679-6.288-3.154m-60.263 33.25c-4.642 3.251-1.175 13.083 3.694 10.477 2.441-1.307 3.543-4.383 2.729-7.624-.866-3.452-3.743-4.73-6.423-2.853m-25.938.646c-1.113 1.354-1.521 3.212-1.335 6.071.206 3.182 2.604-.4 2.724-4.071.12-3.651.05-3.751-1.389-2M112 91c0 1.1.6 2 1.333 2 1.881 0 2.619-.962 1.991-2.598-.816-2.127-3.324-1.676-3.324.598m-2 5.5c0 .917.484 1.505 1.075 1.308s1.075-.785 1.075-1.308-.484-1.111-1.075-1.308S110 95.583 110 96.5m-18.121 7.146c-1.602 1.93-.38 4.045 4.097 7.094l3.289 2.239 3.857-2.167c4.215-2.37 5.688-5.132 3.89-7.297-1.662-2.003-13.447-1.9-15.133.131M87 118.194c0 .382 1.094 1.957 2.43 3.5 1.951 2.252 2.682 2.559 3.7 1.556.699-.687 3.565-1.25 6.37-1.25s5.671.563 6.37 1.25c1.018 1.003 1.749.696 3.7-1.556 1.336-1.543 2.43-3.118 2.43-3.5s-5.625-.694-12.5-.694-12.5.312-12.5.694m50.199 51.065c.388 2.03.056 2.843-1.342 3.286-2.532.804-2.34 2.246.352 2.635 1.385.201 2.438 1.253 2.824 2.82l.614 2.5.744-2.25c.558-1.687 1.516-2.25 3.831-2.25 2.902 0 2.991-.108 1.471-1.787-.979-1.081-1.389-2.661-1.038-4 .58-2.221-.982-3.111-2.148-1.224-.372.602-1.631.32-3.218-.719-2.604-1.707-2.605-1.706-2.09.989m-59.563 6.247c-.343.893-1.855 1.494-3.76 1.494-2.987 0-3.086.111-1.582 1.773 1.098 1.213 1.31 2.239.671 3.25-1.43 2.261-1.156 2.84 1.068 2.258 1.185-.31 2.853.211 4 1.249 1.906 1.725 1.967 1.703 1.967-.722 0-1.603.809-2.897 2.25-3.6l2.25-1.098-2.25-.671c-1.266-.378-2.25-1.47-2.25-2.497 0-2.373-1.625-3.361-2.364-1.436m42.364.839c0 1.961-.507 2.655-1.941 2.655-2.702 0-3.461 1.662-1.048 2.293 1.186.31 1.989 1.365 1.989 2.613 0 2.449 1.247 2.706 2.983.615.891-1.074 1.727-1.211 3.056-.5 2.873 1.537 3.315 1.168 1.647-1.378-1.401-2.137-1.391-2.509.099-4 1.525-1.524 1.471-1.643-.742-1.643-1.312 0-3.208-.745-4.214-1.655-1.728-1.564-1.829-1.509-1.829 1m-21.495 2.64c-.428 1.347-1.53 2.026-3.322 2.048l-2.683.034 2.1 1.755c1.592 1.331 1.902 2.292 1.282 3.967-.926 2.504-.598 2.664 2.291 1.118 1.477-.79 2.344-.79 3.134 0 1.809 1.809 2.768 1.238 2.138-1.271-.409-1.628-.103-2.553.981-2.969 2.451-.941 1.851-2.667-.926-2.667-1.51 0-2.5-.571-2.5-1.441 0-2.343-1.802-2.757-2.495-.574M50 182.43c0 .275.9.981 2 1.57s2 .845 2 .57-.9-.981-2-1.57-2-.845-2-.57"/></svg>