<svg xmlns="http://www.w3.org/2000/svg" width="200" height="200" fill="#000000"><path fill-opacity=".251" fill-rule="evenodd" d="M92.493 23.416c-2.889 2.889-3.137 5.219-.896 8.419 2.24 3.199 6.448 2.588 8.254-1.198 1.606-3.364.465-6.862-2.808-8.614-1.707-.913-2.48-.677-4.55 1.393m21.007 6.22c-9.66 8.579-26.377 12.945-33.285 8.693-1.493-.919 1.721 2.85 7.142 8.375 9.997 10.189 10.839 12.273 4.224 10.446-1.895-.523-3.701-.696-4.014-.384-.993.993-.609 9.792.475 10.876.724.724.634 1.382-.291 2.149-.978.812-2.987.766-7.542-.173-6.988-1.44-6.916-1.524-5.58 6.553.621 3.755 1.892 4.591 8.231 5.411 3.936.509 3.636 1.315-.749 2.016-2.285.366-4.311.943-4.502 1.283-.191.341-.653 3.432-1.027 6.869L75.901 98l3.799.015c2.797.012 3.404.268 2.3.97-1.236.786-1.28 1.308-.25 2.971.688 1.109 1.25 2.92 1.25 4.023 0 1.76.581 1.976 4.745 1.763l4.746-.242.57 4.93c.375 3.236-.031 7.1-1.182 11.25-.964 3.476-1.367 6.32-.895 6.32.471 0 1.152-1.345 1.513-2.989s1.03-3.219 1.487-3.501c.456-.282.594.388.306 1.489s-.133 1.999.343 1.996 1.86-3.972 3.073-8.82c2.797-11.173 4.212-14.92 5.101-13.504.983 1.566 25.193 1.84 25.193.285 0-1.635-3.224-7.226-5-8.672-1.252-1.019-.963-1.226 1.75-1.252 3.658-.036 3.856-.647 1.801-5.564-1.051-2.515-2.082-3.475-3.75-3.495-2.11-.025-1.975-.33 1.635-3.684l3.937-3.657L123.202 74c-3.655-3.273-4.859-4.943-4.107-5.695 1.594-1.594-2.804-11.305-5.12-11.305-1.078 0-2.192-1.183-2.825-3-1.223-3.507-.981-3.452-6.095-1.405-2.193.877-4.456 1.438-5.031 1.246s2.604-5.492 7.064-11.78c9.246-13.035 11.293-16.078 10.777-16.019-.201.023-2.165 1.64-4.365 3.594m.75 40.724c-2.557 1.266-2.966 2.64-.785 2.64.805 0 1.946-.9 2.535-2s.942-1.945.785-1.877c-.157.067-1.298.624-2.535 1.237m-19.858 76.157c-1.86 1.86-2.335 3.098-1.819 4.75.929 2.979 2.331 3.806 5.927 3.494 2.464-.214 3-.708 3-2.761 0-1.831-.602-2.585-2.25-2.82-1.237-.175-2.25.162-2.25.75 0 .589.45 1.07 1 1.07s1 .45 1 1c0 1.572-2.722 1.167-3.362-.5-.94-2.452.411-4.5 2.969-4.5 2.705 0 3.205-1.474.811-2.393-2.253-.865-2.251-.865-5.026 1.91m17.888-1.465c-4.927 1.912-3.608 9.948 1.633 9.948 3.527 0 5.331-2.048 4.909-5.576-.411-3.439-3.547-5.535-6.542-4.372m-50.746.893c-.321.519-1.228 2.769-2.014 5-1.249 3.538-1.246 4.055.024 4.055.801 0 1.456-.45 1.456-1s.9-1 2-1 2 .45 2 1 .675 1 1.5 1c1.831 0 1.837.346-.094-5.322-1.489-4.37-3.518-5.924-4.872-3.733M69 150c0 5.121 1.936 7.217 2.079 2.25l.079-2.75 1.004 2.75c1.16 3.174 2.313 3.481 3.758 1 .971-1.667 1.021-1.667 1.05 0 .016.963.705 1.75 1.53 1.75 1.133 0 1.5-1.222 1.5-5 0-4.155-.305-5-1.807-5-1.051 0-2.244 1.15-2.851 2.75l-1.044 2.75-1.124-2.75C71.248 143.039 69 144.251 69 150m12.76-4.25c-.876 1.837-.121 8.63 1.001 9.004.712.237 1.239-.444 1.239-1.601 0-1.291.808-2.173 2.25-2.456l2.25-.443-2.25-.744c-2.789-.921-2.947-2.51-.25-2.51 1.1 0 2-.45 2-1 0-1.151-5.701-1.38-6.24-.25M103 150c0 4.889.067 5 3 5 1.65 0 3-.45 3-1s-.675-1-1.5-1c-1.083 0-1.5-1.111-1.5-4s-.417-4-1.5-4c-1.133 0-1.5 1.222-1.5 5m17 0v5.127l3.25-.314c3.139-.302 3.25-.467 3.25-4.813s-.111-4.511-3.25-4.813l-3.25-.314zm9.975-2.5-1.95 5c-1.107 2.837-.19 3.204 3.119 1.25 1.694-1 2.208-1 2.57 0 .249.688 1.09 1.25 1.869 1.25 1.737 0 1.748.328-.177-5.322-1.765-5.181-3.922-6.046-5.431-2.178M138 150c0 4.889.067 5 3 5 1.65 0 3-.45 3-1s-.9-1-2-1c-1.667 0-2-.667-2-4 0-2.2-.45-4-1-4s-1 2.25-1 5m-25.638-1.5c-.801 2.086.382 4.751 1.889 4.256 1.964-.645 2.217-5.756.284-5.756-.879 0-1.857.675-2.173 1.5M123 152.059c0 .582.45.781 1 .441s1-.816 1-1.059-.45-.441-1-.441-1 .477-1 1.059M58.04 166.38c-1.26 3.818-.644 6.216.938 3.655.666-1.077 1.194-1.137 2.255-.256.763.632 4.423 1.126 8.135 1.098 6.707-.052 6.746-.068 6.44-2.714-.224-1.935-.962-2.755-2.699-3.001-1.823-.258-2.249.031-1.793 1.218.328.856.166 1.822-.36 2.147-.53.328-.956-.798-.956-2.527 0-1.857-.411-2.864-1.016-2.49-.559.346-.728 1.095-.375 1.666.41.664-.127.794-1.489.362-2.556-.811-4.235 2.142-2.016 3.548 1.117.707 1.047.886-.354.899-.962.008-1.75-.61-1.75-1.374s-.837-2.423-1.861-3.687l-1.86-2.298zm21.672-2.758C78.621 164.713 78.866 171 80 171c.55 0 1.007-.562 1.015-1.25q.015-1.254 1 .25c.876 1.333 1.094 1.333 1.97 0q.985-1.504 1-.25c.008.688.589 1.25 1.291 1.25.886 0 1.16-1.223.895-4-.41-4.305-2.01-5.333-2.914-1.873l-.557 2.127-1.638-2.172c-.901-1.195-1.959-1.852-2.35-1.46m18.288.217c0 1.433-4.656 3.105-5.71 2.051-1.582-1.582-4.427.148-4.093 2.487.265 1.853 1.033 2.149 6.053 2.331 3.413.124 5.75-.21 5.75-.821 0-.566.65-.38 1.444.414.84.84 2.512 1.239 4 .955 2.257-.432 2.552-.972 2.524-4.623-.026-3.454-.232-3.872-1.25-2.545-.67.873-1.796 1.393-2.502 1.155s-1.943.116-2.75.785c-1.21 1.004-1.466.846-1.466-.906 0-1.167-.45-2.122-1-2.122s-1 .378-1 .839m13.667-.172c-1.265 1.264-.746 7.529.583 7.041.688-.252 1.138-.964 1-1.583-.381-1.715 1.533-1.342 3.57.695 2.572 2.572 9.583 1.828 8.859-.939-.27-1.035-.084-1.881.415-1.881.498 0 .906.9.906 2 0 2.671 5.62 2.894 6.311.25.435-1.667.463-1.667.573 0 .159 2.398 2.834 2.213 3.616-.25.349-1.1 1.11-2 1.69-2 .711 0 .692.438-.059 1.342-1.332 1.606-.5 2.658 2.102 2.658 1.483 0 1.83-.604 1.583-2.75-.248-2.162-.906-2.818-3.072-3.067-1.825-.21-2.964.228-3.374 1.295-.538 1.403-.805 1.346-2.051-.433-1.545-2.205-4.978-2.946-3.686-.795.592.985.435.994-.743.042-1.51-1.221-5.422-.757-7.543.894-.726.565-1.325.419-1.619-.394-.354-.98-.921-1.026-2.347-.191-1.074.629-2.74.767-3.881.321-1.871-.731-1.851-.786.309-.852 1.272-.038 2.031-.519 1.691-1.07-.698-1.13-3.821-1.345-4.833-.333M144 167c0 2.2.45 4 1 4s1-1.8 1-4-.45-4-1-4-1 1.8-1 4m-54 1.559c0 .857.45 1.281 1 .941s1-1.041 1-1.559-.45-.941-1-.941-1 .702-1 1.559m6-.559c0 .55.45 1 1 1s1-.45 1-1-.45-1-1-1-1 .45-1 1m33.079.583c.048 1.165.285 1.402.604.605.289-.722.253-1.585-.079-1.917s-.568.258-.525 1.312M120.5 169c-1.759.756-1.662.868.809.93 1.632.041 2.55-.349 2.191-.93-.34-.55-.704-.968-.809-.93-.105.039-1.091.457-2.191.93m-16.687.683c.721.289 1.584.253 1.916-.079s-.258-.568-1.312-.525c-1.165.048-1.402.285-.604.604"/><path fill-opacity=".461" fill-rule="evenodd" d="M92.2 23.2c-2.84 2.84-.469 10.8 3.216 10.8 2.16 0 4.584-3.505 4.584-6.629C100 23.88 98.425 22 95.5 22c-1.155 0-2.64.54-3.3 1.2m1.911 29.573 13.141 12.773-6.705 25.977c-3.688 14.287-7.325 28.129-8.082 30.758-2.665 9.263.197 3.688 5.006-9.751l4.865-13.595 8.347-4.333 8.346-4.333 1.776 2.437c1.394 1.914 2.333 2.297 4.373 1.785 2.592-.65 2.595-.66 1.058-4.571-1.234-3.144-2.054-3.925-4.138-3.947-2.56-.027-2.54-.081 1.33-3.677l3.929-3.65-4.8-4.345c-3.786-3.428-5.09-4.103-6.178-3.201-2.563 2.127-1.462 3.66 3.121 4.348 2.475.371 4.5.899 4.5 1.173 0 .275-1.575 2.562-3.5 5.083l-3.5 4.584v-3.156c0-3.136-.026-3.152-4.114-2.498-3.987.638-4.091.584-3.38-1.738 1.938-6.33 3.422-8.624 6.371-9.845 1.718-.712 3.123-1.707 3.123-2.212 0-2.235-4.19-8.839-5.607-8.839-.862 0-2.076-1.35-2.699-3-1.316-3.486-1.396-3.503-6.626-1.411l-3.972 1.59-8.787-7.59C86.476 43.415 82.173 40 81.746 40s5.137 5.748 12.365 12.773M88 62.5c0 3.025.39 5.5.867 5.5C89.84 68 95 60.544 95 59.138c0-.887-3.277-2.097-5.75-2.124-.85-.01-1.25 1.745-1.25 5.486m-5.494 21.392c-4.272.65-5.105 2.167-5.388 9.803-.115 3.119-.004 3.203 4.632 3.525 4.558.316 4.643.377 2.096 1.493-2.65 1.163-2.651 1.169-1 4.768 1.515 3.299 1.938 3.561 5.028 3.104 1.856-.275 3.563-.688 3.793-.919.231-.231-.123-5.425-.787-11.543-.987-9.1-1.495-11.097-2.793-10.981-.873.078-3.384.415-5.581.75m-21.492 63.571c-2.579 6.784-2.311 9.693.535 5.8 1.206-1.649 1.367-1.649 3.189 0 3.024 2.736 3.356 2.085 1.494-2.93-2.047-5.513-3.838-6.498-5.218-2.87M69 150c0 5.138 1.915 7.184 2.106 2.25l.107-2.75 1.086 2.75c1.398 3.536 1.984 3.462 3.956-.5l1.617-3.25.064 3.309c.097 5.041 2.064 2.784 2.064-2.368 0-5.45-2.293-6.072-4.393-1.191l-1.398 3.25-1.202-3.25C71.117 143.142 69 144.066 69 150m13 0c0 2.75.45 5 1 5s1-.9 1-2c0-1.111.667-2 1.5-2 .825 0 1.5-.45 1.5-1s-.675-1-1.5-1-1.5-.45-1.5-1 .675-1 1.5-1 1.5-.45 1.5-1-1.125-1-2.5-1c-2.333 0-2.5.333-2.5 5m12.2-3.8c-1.547 1.547-1.547 6.053 0 7.6.66.66 2.46 1.2 4 1.2 2.444 0 2.8-.381 2.8-3 0-2.333-.444-3-2-3-2.206 0-2.724 1.575-.75 2.28.688.245.932.788.543 1.207-1.382 1.486-3.938-.446-3.613-2.733.229-1.615 1.099-2.344 3.07-2.57 1.513-.174 2.75-.737 2.75-1.25 0-1.357-5.388-1.146-6.8.266m8.8 3.8c0 4.889.067 5 3 5 1.65 0 3-.45 3-1s-.9-1-2-1c-1.667 0-2-.667-2-4 0-2.2-.45-4-1-4s-1 2.25-1 5m8.427-4.259c-2.077 1.469-2.486 4.52-.927 6.9 1.898 2.896 4.59 3.022 7.027.329 1.454-1.606 1.639-2.599.887-4.75-.965-2.76-4.711-4.089-6.987-2.479m8.573 4.196c0 4.588.211 5.062 2.25 5.048 3.672-.025 4.681-1.285 4.416-5.518-.23-3.672-.487-3.99-3.457-4.28l-3.209-.314zm9.53-.376c-1.872 4.901-1.391 6.998.89 3.879 1.374-1.879 1.437-1.88 3.496-.016 1.153 1.043 2.297 1.696 2.543 1.45.811-.811-2.92-9.874-4.065-9.874-.617 0-1.906 2.052-2.864 4.561M138 150c0 4.889.067 5 3 5 1.65 0 3-.45 3-1s-.9-1-2-1c-1.667 0-2-.667-2-4 0-2.2-.45-4-1-4s-1 2.25-1 5m-26 0c0 2.277.456 3 1.893 3 2.121 0 3.342-2.225 2.469-4.5-.317-.825-1.428-1.5-2.469-1.5-1.437 0-1.893.723-1.893 3m10-2c0 .55.423 1 .941 1s1.219-.45 1.559-1-.084-1-.941-1-1.559.45-1.559 1m-59.417.866c-.431.697-.513 1.537-.183 1.867.895.895 1.871-.421 1.387-1.871-.338-1.016-.574-1.016-1.204.004m69 0c-.431.697-.513 1.537-.183 1.867.895.895 1.871-.421 1.387-1.871-.338-1.016-.574-1.016-1.204.004M122 152c0 .55.675 1 1.5 1s1.5-.45 1.5-1-.675-1-1.5-1-1.5.45-1.5 1m-14.728 15c0 2.475.195 3.488.434 2.25.238-1.238.238-3.262 0-4.5-.239-1.238-.434-.225-.434 2.25m-49.174.149c-1.429 4.098-1.436 4.077.933 2.609 1.678-1.04 2.195-.998 2.984.242 1.259 1.979 1.265-.133.01-3.435-1.303-3.426-2.596-3.234-3.927.584m21.018.601c.064 2.063.322 2.963.573 2 .559-2.138 2.311-2.327 2.311-.25 0 .825.45 1.5 1 1.5 1.459 0 1.225-1.727-.615-4.535-2.29-3.496-3.403-3.058-3.269 1.285m5.551-3.083c-1.021 1.02-.793 3.529.262 2.877.51-.315 1.124.446 1.363 1.691.273 1.42.486.866.572-1.485.128-3.519-.659-4.622-2.197-3.083m13.333.5c0 .641-.296.87-.658.508s-1.233-.18-1.936.403c-.894.742-1.867.746-3.237.012-2.321-1.242-4.759.93-3.812 3.397.686 1.788 4.643 2.054 4.643.313 0-.933.267-.933 1.2 0 .66.66 2.235 1.2 3.5 1.2 1.962 0 2.3-.514 2.3-3.5 0-1.925-.45-3.5-1-3.5s-1 .525-1 1.167m14.116 2.583c.064 2.063.322 2.963.573 2 .56-2.142 3.16-2.306 3.949-.25.317.825 1.54 1.468 2.719 1.43 2.027-.067 2.037-.112.197-.832-1.835-.718-1.815-.796.346-1.362 1.261-.329 3.004-.326 3.873.007 1.346.517 1.294.719-.346 1.362-1.765.691-1.738.76.323.825 2.397.075 3.154-2.398 1-3.268-.961-.388-.948-.522.059-.583.72-.043 1.017-.551.661-1.128-.443-.716-1.094-.678-2.059.123-1.078.895-1.744.894-2.824-.002-1.094-.908-1.709-.857-2.721.226-1.318 1.411-4.866 1.162-4.866-.341 0-.446.787-1.016 1.75-1.268 1.317-.344 1.193-.486-.5-.573-1.973-.102-2.236.346-2.134 3.634M144 167.5c0 1.925.45 3.5 1 3.5s1-1.575 1-3.5-.45-3.5-1-3.5-1 1.575-1 3.5m-71.118-1.964c-.066.53-.066 1.302 0 1.714.065.412-.332.75-.882.75s-1 .675-1 1.5c0 2.001 3.895 1.937 4.668-.078.333-.867-.131-2.314-1.031-3.214s-1.69-1.203-1.755-.672m29.236.391c-1.904 1.177-.938 4.506 1.393 4.803 1.972.251 1.972.245-.011-.668-1.646-.758-1.7-.934-.309-.992.93-.038 1.938-.469 2.239-.957.838-1.355-1.819-3.109-3.312-2.186m25.055 1.637c.426 3.621 2.43 4.283 2.276.752-.066-1.488-.678-2.892-1.361-3.12-.837-.279-1.135.493-.915 2.368m12.3-1.52c-.325.526-.002.97.718.986.798.019.618.433-.462 1.062-2.129 1.24-1.366 2.908 1.33 2.908 1.381 0 1.941-.691 1.941-2.393 0-2.464-2.476-4.264-3.527-2.563M64 166.941c0 .518.498 1.249 1.107 1.625.771.477.696.944-.25 1.544-1.067.676-.996.863.334.875 2.055.018 3.236-1.603 1.809-2.485-.568-.351-.774-1.057-.457-1.569.316-.512-.127-.931-.984-.931s-1.559.423-1.559.941m5.195 1.559c.02 1.65.244 2.204.498 1.231s.237-2.323-.037-3-.481.119-.461 1.769m62 0c.02 1.65.244 2.204.498 1.231s.237-2.323-.037-3-.481.119-.461 1.769m2.491-.75c.342.963.847 2.156 1.121 2.651.561 1.015 3.21-2.205 3.161-3.842-.017-.583-.692-.185-1.5.882-1.28 1.693-1.468 1.725-1.468.25 0-.93-.436-1.691-.969-1.691s-.688.787-.345 1.75m-43.992-.111c-.799.799.104 2.361 1.365 2.361.518 0 .941-.675.941-1.5 0-1.546-1.18-1.987-2.306-.861M96 168.5c0 .825.45 1.5 1 1.5s1-.675 1-1.5-.45-1.5-1-1.5-1 .675-1 1.5"/><path fill-opacity=".339" fill-rule="evenodd" d="M92.571 23.571c-4.049 4.05.285 12.086 4.883 9.052 2.678-1.767 3.177-6.268.966-8.711-2.102-2.323-3.769-2.42-5.849-.341m2.679 30.056C101.713 60.174 107 66.146 107 66.898s-3.15 13.367-7 28.032c-3.85 14.666-6.976 27.094-6.947 27.617.029.524 2.441-5.572 5.359-13.547s5.968-16.075 6.778-18l1.474-3.5 1.239 3.731 1.239 3.731 5.036-2.552 5.035-2.551 1.45 2.07c.798 1.139 2.55 2.071 3.894 2.071 2.829 0 2.757.199 1.37-3.779-1.007-2.889-1.465-3.119-7.5-3.766-3.535-.378-7.579-.468-8.985-.199-1.639.313-2.406.085-2.136-.634.233-.617 1.202-3.816 2.155-7.109s2.397-7.271 3.209-8.841c1.704-3.297 2.78-2.161-17.67-18.666l-11.5-9.282zm-6.665 4.121c-.931.931-.677 9.252.282 9.252.477 0 2.034-1.762 3.459-3.916l2.592-3.917-2.874-1.002c-1.581-.551-3.137-.738-3.459-.417M60.597 149.67c-.875 2.568-1.378 4.882-1.118 5.143.261.26.758-.266 1.104-1.17.825-2.148 3.327-2.096 5.125.107 1.302 1.595 1.377 1.51.852-.956-.931-4.374-2.441-7.794-3.441-7.794-.512 0-1.647 2.101-2.522 4.67M69 149.5c0 2.475.45 4.5 1 4.5s1.018-1.238 1.039-2.75c.039-2.696.07-2.681 1.609.75l1.57 3.5 1.776-4 1.776-4 .447 4c.412 3.686.46 3.587.615-1.25.197-6.169-1.012-6.748-3.134-1.5l-1.517 3.75-1.09-2.815c-.6-1.548-1.091-3.236-1.091-3.75s-.675-.935-1.5-.935c-1.111 0-1.5 1.167-1.5 4.5m13 .559c0 3.118.384 4.822 1 4.441.55-.34 1-1.266 1-2.059S84.45 151 85 151s1-.477 1-1.059-.45-.781-1-.441c-1.751 1.082-1.074-1.724.75-3.108 1.591-1.208 1.5-1.331-1-1.36-2.642-.031-2.75.167-2.75 5.027m12.571-3.488c-3.192 3.193-.575 8.857 3.804 8.232 2.644-.377 3.445-4.274 1.067-5.187-1.237-.475-1.507-.227-1.05.963.818 2.133-.108 3.467-1.924 2.77-1.989-.763-1.894-5.971.122-6.745.875-.336 2-.357 2.5-.048.501.309.91.085.91-.497 0-1.609-3.652-1.265-5.429.512m9.075-.416c-.433.91-.643 3.16-.466 5 .247 2.587.83 3.417 2.57 3.665 1.237.175 2.25-.162 2.25-.75 0-.589-.649-1.07-1.443-1.07-.976 0-1.552-1.372-1.783-4.25-.238-2.968-.578-3.751-1.128-2.595m7.554.045c-.66.66-1.2 2.37-1.2 3.8 0 5.187 4.796 6.767 7.592 2.5 1.517-2.316 1.517-2.684 0-5-1.761-2.687-4.456-3.236-6.392-1.3m9.225.135c-1.026 2.674.006 8.136 1.594 8.436 2.384.45 5.438-2.222 4.421-3.868-.476-.77-.882-2.301-.903-3.402-.045-2.434-4.257-3.395-5.112-1.166m9.23 3.165c-1.675 4.915-1.598 5.092 1.419 3.25 1.746-1.066 2.277-.956 3.606.75 1.503 1.93 1.535 1.905.931-.706-1.05-4.532-2.511-7.794-3.492-7.794-.512 0-1.621 2.025-2.464 4.5m8.54.25c.26 4.053.635 4.797 2.555 5.07 1.238.175 2.25-.162 2.25-.75 0-.589-.675-1.07-1.5-1.07-1.083 0-1.5-1.111-1.5-4 0-2.2-.475-4-1.055-4-.634 0-.933 1.893-.75 4.75M112.2 147.2c-1.775 1.775-1.457 4.592.647 5.718 3.294 1.763 5.726-2.945 2.953-5.718-.66-.66-1.47-1.2-1.8-1.2s-1.14.54-1.8 1.2m9.8.8c0 .55.675 1 1.5 1s1.5-.45 1.5-1-.675-1-1.5-1-1.5.45-1.5 1m-60 1.5c0 .825.45 1.5 1 1.5s1-.675 1-1.5-.45-1.5-1-1.5-1 .675-1 1.5m69.583-.634c-.431.697-.513 1.537-.183 1.867.895.895 1.871-.421 1.387-1.871-.338-1.016-.574-1.016-1.204.004M122 151.417c0 .87.713 1.583 1.583 1.583.871 0 1.406-.534 1.188-1.187-.618-1.855-2.771-2.162-2.771-.396m-63.795 15.424c-.926 2.657-.836 2.811 1.403 2.383 1.517-.29 2.392.012 2.392.826 0 .706.227 1.056.505.779.712-.713-1.531-6.829-2.505-6.829-.442 0-1.25 1.278-1.795 2.841m21.413-1.289c-.327.854-.183 1.297.321.985.505-.311 1.205.34 1.556 1.448.352 1.108 1.025 2.015 1.496 2.015s.182-1.35-.641-3c-1.721-3.451-1.922-3.557-2.732-1.448m4.963.097c-.345.9-.392 1.873-.105 2.161s.569-.114.624-.893c.055-.78.46-.292.9 1.083l.801 2.5.099-2.691c.116-3.132-1.403-4.547-2.319-2.16M98.6 165.6c-.356.927-.422 1.911-.147 2.186s.791-.259 1.147-1.186.422-1.911.147-2.186-.791.259-1.147 1.186m8.632 1.4c0 1.925.206 2.713.457 1.75.252-.963.252-2.537 0-3.5-.251-.963-.457-.175-.457 1.75m4.847.75c.043 2.063.336 3.075.65 2.25s1.066-1.831 1.671-2.235c.761-.508.715-.739-.15-.75-1.883-.023-1.501-1.803.5-2.326 1.317-.344 1.193-.486-.5-.573-1.967-.101-2.24.356-2.171 3.634m32.377-.75c.022 1.65.378 3 .792 3s.752-1.35.752-3-.356-3-.792-3-.774 1.35-.752 3M127 166c0 .55.45 1 1 1s1-.45 1-1-.45-1-1-1-1 .45-1 1m-68 1c0 .55.45 1 1 1s1-.45 1-1-.45-1-1-1-1 .45-1 1m5 .059c0 .582.45.781 1 .441s1-.816 1-1.059-.45-.441-1-.441-1 .477-1 1.059m5.195 1.441c.02 1.65.244 2.204.498 1.231s.237-2.323-.037-3-.481.119-.461 1.769m5 0c.02 1.65.244 2.204.498 1.231s.237-2.323-.037-3-.481.119-.461 1.769m14.185-1.048c-1.044 2.722 2.552 5.084 4.05 2.661.302-.488-.234-.825-1.191-.75-1.087.086-1.687-.519-1.6-1.613.169-2.125-.497-2.283-1.259-.298M91.5 167c.34.55.816 1 1.059 1s.441-.45.441-1-.477-1-1.059-1-.781.45-.441 1m3.5.059c0 .582.45.781 1 .441s1-.816 1-1.059-.45-.441-1-.441-1 .477-1 1.059m6.38.393c-.676 1.761.303 3.554 1.929 3.533.772-.01.7-.327-.205-.899-.767-.486-1.119-1.605-.781-2.485.338-.881.389-1.601.114-1.601s-.751.653-1.057 1.452M104 167c0 .55.477 1 1.059 1s.781-.45.441-1-.816-1-1.059-1-.441.45-.441 1m19-.25c0 .623.498 1.44 1.107 1.816.771.477.696.944-.25 1.544-.908.575-.963.864-.166.875 1.937.025 2.23-1.373.72-3.437-.776-1.062-1.411-1.421-1.411-.798m8.158 1.25c0 1.375.227 1.938.504 1.25.278-.687.278-1.812 0-2.5-.277-.687-.504-.125-.504 1.25m2.972.219c1.105 2.583 2.87 2.925 2.87.555 0-.609-.293-.814-.651-.456s-1.266-.13-2.016-1.084c-1.183-1.503-1.21-1.371-.203.985m7.695.455c.426 2.093.678 2.345.969.97.217-1.021-.043-2.293-.576-2.826-.626-.626-.766.031-.393 1.856m-24.506-.185a2.445 2.445 0 0 0 2.192 2.192c1.443.148 1.525.066.3-.3-.928-.277-1.915-1.264-2.192-2.192-.366-1.225-.448-1.143-.3.3M65.638 169.5c-.316.825-.139 1.5.393 1.5.533 0 .969-.675.969-1.5s-.177-1.5-.393-1.5-.652.675-.969 1.5m5.905-.569c-.317.512-.193 1.167.274 1.456s.85-.13.85-.931c0-1.686-.316-1.833-1.124-.525M139 169.5c0 .825.436 1.5.969 1.5s.709-.675.393-1.5c-.317-.825-.753-1.5-.969-1.5s-.393.675-.393 1.5"/><path fill-rule="evenodd" d="M93.023 23.977C89.602 27.398 91.139 33 95.5 33c4.709 0 5.868-7.663 1.511-9.994-1.556-.833-2.387-.63-3.988.971m3.679 30.942 11.202 11.241-6.489 24.549c-3.57 13.502-6.297 24.742-6.062 24.977.235.236 1.563-2.86 2.95-6.879s5.262-14.957 8.611-24.307 5.904-17.492 5.679-18.093-4.613-4.502-9.751-8.668L89.5 46.921c-2.2-1.784 1.041 1.816 7.202 7.998m-19.767 92.202c-.698 1.306-.737 1.875-.1 1.481.61-.377 1.202.705 1.44 2.629.314 2.536.441 2.203.565-1.481.177-5.251-.213-5.79-1.905-2.629m5.732-1.454c-.367.366-.638 2.504-.604 4.75.056 3.568.182 3.788 1.002 1.741.517-1.289.644-2.819.284-3.402s.175-1.666 1.189-2.408c1.461-1.068 1.528-1.348.32-1.348-.839 0-1.825.3-2.191.667m11.89 1.556c-1.989 2.838-1.964 4.196.107 5.905 1.508 1.244 1.552 1.162.465-.878-1.518-2.847-.046-5.935 3.119-6.544l2.252-.434-2.193-.136c-1.247-.077-2.865.823-3.75 2.087m17.193-1.143c-2.463 1.434-2.301 6.555.25 7.92 2.948 1.578 6-.373 6-3.835 0-4.479-2.627-6.195-6.25-4.085m9.25 3.587c0 2.566.27 4.396.6 4.066s.6-2.227.6-4.216c0-2.283.424-3.474 1.15-3.231.633.213 1.144 2.035 1.136 4.05-.014 3.763.865 4.798 1.863 2.196.31-.807.153-1.722-.349-2.032s-.642-1.27-.311-2.133c.612-1.593-1.164-3.324-3.439-3.352-.824-.01-1.25 1.577-1.25 4.652m9.494-1.308c-.879 2.105-1.406 4.348-1.17 4.984s.772-.193 1.191-1.843c1.071-4.218 1.608-4.913 2.595-3.357.473.746.859.907.859.357s-.422-1.668-.938-2.484c-.739-1.168-1.277-.671-2.537 2.343m-67.769-1.642c.673.479 1.377 1.869 1.563 3.09.187 1.221.885 2.766 1.551 3.432.875.875.834.12-.144-2.707-.747-2.156-1.996-4.092-2.776-4.302-1.05-.283-1.101-.156-.194.487m6.603 3.533c-.048 3.283.035 3.511.368 1 .237-1.787.852-3.25 1.367-3.25.516 0 .937-.45.937-1s-.587-1-1.304-1c-.859 0-1.326 1.454-1.368 4.25M104 150c0 2.2.349 4 .776 4s.605-1.8.395-4-.559-4-.776-4-.395 1.8-.395 4m8.229-2.829c-1.67 1.67-1.547 4.32.271 5.829 2.135 1.772 4.692-.55 4.301-3.906-.333-2.848-2.665-3.83-4.572-1.923M139.272 150c0 2.475.195 3.488.434 2.25.238-1.238.238-3.262 0-4.5-.239-1.238-.434-.225-.434 2.25m-78.957.976c-1.23 3.258-.912 3.764 1.1 1.752.699-.699.995-2.06.657-3.024-.499-1.42-.832-1.179-1.757 1.272m12.261.024c.37 1.375.866 2.712 1.103 2.971.528.578 2.29-2.093 2.29-3.471 0-.55-.39-.384-.867.37-.702 1.108-1.091 1.012-2.033-.5-1.026-1.648-1.085-1.573-.493.63m27.018.152c.391.633-.145 1.819-1.191 2.634-1.764 1.375-1.77 1.437-.071.849 1.007-.349 2.02-.635 2.25-.635s.418-.9.418-2-.477-2-1.059-2-.739.518-.347 1.152m34.042-.372c-.338.546.056 1.549.875 2.229 1.626 1.35 1.965.291.599-1.866-.523-.824-1.101-.967-1.474-.363M112.232 167c0 1.925.206 2.713.457 1.75.252-.963.252-2.537 0-3.5-.251-.963-.457-.175-.457 1.75m-43.153 1.583c.048 1.165.285 1.402.604.605.289-.722.253-1.585-.079-1.917s-.568.258-.525 1.312m73 0c.048 1.165.285 1.402.604.605.289-.722.253-1.585-.079-1.917s-.568.258-.525 1.312"/></svg>