<!-- Generated by IcoMoon.io -->
<svg version="1.1" xmlns="http://www.w3.org/2000/svg" width="32" height="32" viewBox="0 0 32 32" fill="#000000">
<title>akro</title>
<path d="M15.103 0.072c-0.348 0.073-0.977 0.31-1.399 0.528s-1.56 0.871-2.531 1.452c-0.97 0.581-2.374 1.403-3.12 1.827s-1.6 0.912-1.898 1.085c-0.298 0.173-1.033 0.604-1.633 0.958s-1.324 0.873-1.609 1.155c-0.284 0.281-0.711 0.931-0.949 1.445l-0.431 0.934 0.052 6.748c0.047 6.125 0.082 6.81 0.384 7.416 0.183 0.367 0.604 0.933 0.936 1.258s2.134 1.479 4.006 2.567c1.871 1.087 4.302 2.493 5.401 3.124 1.143 0.656 2.361 1.216 2.847 1.306 0.48 0.090 1.211 0.091 1.683 0.003 0.459-0.086 1.577-0.576 2.485-1.089s2.098-1.199 2.645-1.523c0.547-0.324 2.214-1.297 3.705-2.163s2.929-1.728 3.196-1.917c0.267-0.189 0.734-0.842 1.039-1.453l0.555-1.11v-6.546c0-5.279-0.051-6.691-0.264-7.294-0.145-0.412-0.468-1.017-0.718-1.344-0.268-0.352-1.436-1.172-2.854-2.005-1.32-0.775-3.498-2.053-4.84-2.84s-2.928-1.668-3.525-1.957-1.41-0.565-1.808-0.612c-0.398-0.047-1.008-0.026-1.356 0.047zM18.18 2.489c0.743 0.426 3.019 1.738 5.057 2.916s3.979 2.344 4.313 2.593c0.334 0.249 0.759 0.787 0.945 1.197 0.308 0.679 0.338 1.271 0.338 6.799s-0.029 6.12-0.338 6.799c-0.186 0.409-0.611 0.948-0.945 1.198s-1.258 0.823-2.053 1.274c-0.795 0.451-3.070 1.762-5.056 2.914-3.191 1.852-3.707 2.095-4.447 2.095-0.743 0-1.288-0.259-4.795-2.276-2.177-1.252-4.283-2.46-4.681-2.686s-1.13-0.651-1.627-0.945c-0.554-0.327-1.060-0.81-1.308-1.245-0.396-0.698-0.404-0.824-0.407-7.090-0.003-6.047 0.016-6.416 0.362-7.095 0.201-0.394 0.668-0.906 1.039-1.139s1.040-0.628 1.487-0.879c0.447-0.251 2.678-1.525 4.957-2.83 3.666-2.101 4.239-2.374 4.975-2.374 0.649 0 1.128 0.17 2.183 0.776zM15.012 5.39c-0.298 0.136-1.356 0.732-2.35 1.325s-2.651 1.554-3.682 2.136c-1.234 0.697-1.99 1.248-2.214 1.614-0.31 0.509-0.339 0.987-0.34 5.628l-0.001 5.072 0.538 0.55c0.296 0.303 2.334 1.589 4.53 2.858 3.617 2.091 4.057 2.3 4.676 2.217 0.43-0.058 2.178-0.954 4.713-2.417 2.867-1.655 4.126-2.482 4.366-2.868 0.307-0.495 0.337-0.979 0.337-5.513 0-4.519-0.031-5.020-0.334-5.513-0.239-0.388-1.483-1.205-4.37-2.868-2.546-1.468-4.274-2.352-4.681-2.397-0.355-0.039-0.89 0.040-1.188 0.176zM18.145 7.54c0.861 0.502 2.364 1.368 3.338 1.926s2.032 1.229 2.35 1.491l0.578 0.477v9.117l-0.592 0.495c-0.326 0.272-0.814 0.609-1.085 0.748s-1.509 0.851-2.752 1.582-2.561 1.483-2.93 1.672c-0.369 0.189-0.874 0.344-1.121 0.344s-1.166-0.415-2.041-0.923c-0.874-0.507-2.592-1.492-3.816-2.189-1.545-0.879-2.278-1.402-2.395-1.71-0.093-0.244-0.169-2.355-0.169-4.691 0-2.5 0.075-4.387 0.182-4.587 0.1-0.187 0.852-0.72 1.672-1.185s1.734-0.987 2.033-1.16c0.298-0.174 1.030-0.601 1.627-0.95s1.49-0.847 1.985-1.108c0.517-0.272 1.043-0.429 1.235-0.368 0.184 0.058 1.040 0.517 1.901 1.018zM14.998 10.856c-0.489 0.259-1.516 0.842-2.281 1.296-0.917 0.544-1.461 0.995-1.597 1.322-0.13 0.313-0.184 1.348-0.146 2.788 0.060 2.287 0.061 2.292 0.602 2.774 0.298 0.266 1.368 0.95 2.377 1.521s1.927 1.038 2.040 1.038c0.113 0 1.124-0.528 2.248-1.173s2.174-1.318 2.335-1.496c0.237-0.262 0.299-0.813 0.325-2.911 0.032-2.508 0.020-2.601-0.398-3.014-0.237-0.234-1.217-0.87-2.179-1.412s-1.903-1.036-2.093-1.096c-0.204-0.065-0.707 0.082-1.235 0.362zM18.085 12.526l1.808 1.044v4.844l-1.808 1.049c-0.994 0.577-1.924 1.049-2.067 1.049s-1.078-0.461-2.079-1.025c-1-0.564-1.879-1.113-1.952-1.22s-0.133-1.13-0.133-2.274 0.060-2.17 0.133-2.283c0.073-0.112 0.946-0.661 1.939-1.22s1.929-1.014 2.079-1.012c0.15 0.002 1.086 0.474 2.080 1.048z"/>
</svg>
