<svg xmlns="http://www.w3.org/2000/svg" width="200" height="200" version="1.1" fill="#000000"><path fill-opacity=".086" d="M 71.598 24.841 C 71.115 25.623, 78.134 38.294, 93.566 64.500 L 98.866 73.500 70.356 74 L 41.846 74.500 37.673 81.760 C 35.378 85.753, 28.888 97.029, 23.250 106.817 C 17.613 116.606, 13 124.869, 13 125.181 C 13 125.492, 15.965 130.867, 19.588 137.124 C 23.212 143.381, 29.607 154.468, 33.799 161.763 C 37.991 169.058, 41.815 174.895, 42.296 174.735 C 42.778 174.574, 49.274 163.881, 56.731 150.971 C 64.189 138.062, 70.503 127.275, 70.763 127 C 71.312 126.418, 70.759 125.540, 81.159 143.500 C 85.618 151.200, 91.735 161.669, 94.753 166.765 L 100.240 176.030 129.346 175.765 L 158.452 175.500 167.710 159.500 C 181.627 135.450, 187 125.814, 187 124.905 C 187 124.454, 183.036 117.203, 178.192 108.792 C 157.552 72.956, 141.260 44.801, 135.493 35 L 129.314 24.500 100.726 24.235 C 85.002 24.089, 71.894 24.362, 71.598 24.841 M 97.698 80.158 C 96.327 82.546, 91.250 91.250, 86.417 99.500 C 81.585 107.750, 76.330 116.862, 74.740 119.750 L 71.850 125 99.925 125 C 115.366 125, 128 124.765, 128 124.479 C 128 124.192, 124.781 118.454, 120.847 111.729 C 112.421 97.325, 103.262 81.461, 101.466 78.158 C 100.198 75.827, 100.180 75.837, 97.698 80.158" stroke="none" fill="#000000" fill-rule="evenodd"/><path fill-opacity=".498" d="M 72.817 28.250 C 77.014 35.137, 98.082 72.051, 98.628 73.472 C 99.128 74.776, 95.492 75.003, 70.394 75.234 L 41.586 75.500 27.311 100.291 L 13.035 125.081 26.641 148.791 C 34.124 161.831, 40.765 173.058, 41.399 173.740 C 42.288 174.697, 45.715 169.500, 56.419 150.960 C 64.046 137.750, 70.574 126.763, 70.926 126.546 C 71.277 126.329, 77.850 137.126, 85.532 150.540 L 99.500 174.928 129.033 174.964 L 158.565 175 166.940 160.250 C 171.546 152.137, 177.214 142.350, 179.536 138.500 C 181.858 134.650, 184.511 130.012, 185.433 128.194 C 187.325 124.463, 188.342 126.951, 176.769 107 C 173.738 101.775, 168.797 93.225, 165.790 88 C 155.088 69.408, 144.715 51.441, 142.407 47.500 C 141.118 45.300, 137.729 39.337, 134.875 34.250 L 129.685 25 100.261 25 L 70.837 25 72.817 28.250 M 97.446 79.758 C 96.317 81.816, 90.129 92.610, 83.696 103.745 C 77.263 114.879, 72 124.217, 72 124.495 C 72 124.773, 84.648 125, 100.107 125 C 123.485 125, 128.126 124.770, 127.689 123.631 C 127.400 122.878, 122.775 114.666, 117.412 105.381 C 112.049 96.096, 106.050 85.692, 104.081 82.259 C 102.111 78.827, 100.275 76.018, 100 76.018 C 99.725 76.017, 98.576 77.700, 97.446 79.758" stroke="none" fill="#000000" fill-rule="evenodd"/><path fill-opacity=".402" d="M 72.300 26.250 C 72.583 26.938, 85.452 49.325, 100.899 76 L 128.983 124.500 100.492 124.765 C 84.821 124.911, 72 125.299, 72 125.628 C 72 125.956, 78.351 137.206, 86.114 150.627 L 100.228 175.030 129.234 174.765 L 158.240 174.500 172.582 149.756 L 186.924 125.011 184.099 120.256 C 182.545 117.640, 179.474 112.350, 177.274 108.500 C 175.074 104.650, 171.047 97.675, 168.325 93 C 165.604 88.325, 160.515 79.550, 157.018 73.500 C 153.521 67.450, 147.648 57.325, 143.968 51 C 140.287 44.675, 135.394 36.237, 133.094 32.250 L 128.912 25 100.349 25 C 77.891 25, 71.896 25.267, 72.300 26.250 M 28.147 99.596 C 20.366 113.124, 14 124.613, 14 125.128 C 14 125.643, 17.974 132.912, 22.830 141.282 C 27.687 149.652, 33.874 160.425, 36.580 165.222 C 39.286 170.019, 41.725 173.956, 42 173.971 C 42.275 173.986, 44.934 169.836, 47.910 164.749 C 59.915 144.224, 63.082 138.767, 73.007 121.500 C 78.698 111.600, 87.069 97.088, 91.610 89.250 L 99.866 75 71.080 75 L 42.294 75 28.147 99.596" stroke="none" fill="#000000" fill-rule="evenodd"/><path fill-opacity=".185" d="M 73 126.540 C 73 127.240, 76.322 133.410, 79.438 138.500 C 80.785 140.700, 83.808 145.875, 86.155 150 C 88.503 154.125, 91.116 158.668, 91.962 160.095 C 92.808 161.522, 95.066 165.460, 96.981 168.845 L 100.462 175 129.346 175 L 158.230 175 156.803 172.750 C 156.018 171.512, 149.607 160.488, 142.555 148.250 L 129.735 126 101.367 126 C 85.765 126, 73 126.243, 73 126.540" stroke="none" fill="#000000" fill-rule="evenodd"/></svg>