<svg width="500" height="500" viewBox="0 0 500 500" fill="#000000" xmlns="http://www.w3.org/2000/svg">
<path fill-rule="evenodd" clip-rule="evenodd" d="M0 250V500H250H500V250V0H250H0V250ZM241.97 35.115L242.693 53.98L166.97 113.645C125.325 146.463 88.1575 176.152 84.375 179.622L77.5 185.935V251.717C77.5 287.897 78.3425 317.532 79.375 317.575C80.4075 317.615 86.1625 321.895 92.165 327.085L103.08 336.52L90.29 359.015C83.255 371.388 77.5 382.817 77.5 384.417C77.5 390.83 88.4825 392.5 130.662 392.5H174.153L208.325 419.372L242.5 446.247V464.225C242.5 474.115 241.585 482.77 240.465 483.462C236.772 485.745 201.848 479.712 181.373 473.257C101.613 448.11 42.2125 384.795 22.06 303.442C13.99 270.87 14.4775 225.2 23.2525 191.975C47.6525 99.565 122.963 32.345 218.75 17.4775C241.415 13.96 241.155 13.7625 241.97 35.115ZM306.11 22.9375C376.95 40.4775 433.82 88.37 464.417 156.25C484.81 201.487 489.575 259.897 476.795 307.992C469.01 337.3 449.982 375.12 431.782 397.46C393.99 443.855 327.882 479.3 272.5 482.865L258.75 483.75L258.018 465.703C257.175 444.97 252.89 450.495 297.185 415.175L325.622 392.5H369.225C411.925 392.5 422.5 390.85 422.5 384.183C422.5 382.455 416.875 371.23 410 359.24C403.125 347.25 397.5 337.012 397.5 336.49C397.5 335.965 403.125 331.247 410 326.005L422.5 316.472V250.995V185.518L414.225 178.385C409.673 174.46 372.548 144.845 331.725 112.572L257.5 53.895V36.1125C257.5 26.335 258.263 17.57 259.195 16.64C261.553 14.2825 282.533 17.0975 306.11 22.9375ZM325.078 128.348C365.598 160.438 398.75 187.9 398.75 189.375C398.75 193.173 341.645 237.645 339.512 235.51C338.545 234.543 319.258 201.688 296.653 162.5C274.045 123.312 254.02 90.97 252.15 90.6275C250.28 90.285 247.505 90.8475 245.985 91.8775C244.462 92.9075 225.483 124.688 203.805 162.5C182.125 200.312 163.105 232.63 161.537 234.317C159.327 236.695 152.107 232.192 129.462 214.317C113.39 201.63 100.185 190.483 100.12 189.543C99.995 187.763 247.7 70 250.06 70C250.8 70 284.558 96.255 325.078 128.348ZM319.5 235C356.378 298.938 389.682 356.593 393.512 363.125L400.475 375H328.988H257.5V345.18V315.362L216.25 282.65C193.563 264.657 175 248.758 175 247.313C175 243.043 248.452 117.4 250.537 118.105C251.587 118.46 282.62 171.062 319.5 235ZM161.798 260.345C198.623 289.41 231.842 316.057 235.625 319.562L242.5 325.935V374.425C242.5 407.895 241.668 422.64 239.813 422.02C238.335 421.527 204.585 395.433 164.813 364.033L92.5 306.94V257.22C92.5 229.875 93.0275 207.5 93.6725 207.5C94.3175 207.5 124.975 231.28 161.798 260.345ZM399.54 313.148C395.055 316.94 390.38 319.71 389.152 319.3C386.07 318.273 349.53 255.12 350.482 252.465C350.905 251.288 363.625 240.525 378.75 228.547L406.25 206.775L406.973 256.513L407.697 306.25L399.54 313.148ZM134.09 360.625L150.495 373.75L137.747 374.505C130.737 374.923 119.515 374.923 112.81 374.505L100.623 373.75L108.053 360.625C112.14 353.407 115.977 347.5 116.582 347.5C117.187 347.5 125.065 353.407 134.09 360.625ZM297.5 393.485C297.5 394.97 261.162 422.5 259.202 422.5C258.265 422.5 257.5 415.75 257.5 407.5V392.5H277.5C288.5 392.5 297.5 392.942 297.5 393.485Z" fill="#000000"/>
</svg>
