<svg xmlns="http://www.w3.org/2000/svg" width="24" height="24" fill="#000000"><g clip-path="url(#a)"><circle cx="11.999" cy="12" r="12" fill="#0a0a0a"/><path fill="#8a8a8a" d="M11.999 0c-6.628 0-12 5.372-12 12s5.372 12 12 12 12-5.372 12-12-5.374-12-12-12Zm1.416 5.9c-1.502.756.016 1.065-.052 1.512-.02.125-.138.36-.529.451a.086.086 0 0 1 0 .027c.477-.042.497.444.393.492-.843.394-.722 1.076-.399 1.498.175.229.354.262.474.426.287.39.332.803-.122 1.217-.14.127-.33.268-.575.433-.234.157-.521.333-.867.538-1.382.815-2.455.805-1.661 2.028.516.722-.041 1.309-.53 1.495-.487.185-.23.826.37.82-1.035.01-.832.583-.671.753.3.314.405.599-.349 1.105-1.169.789.067 1.377.067 1.377a8.107 8.107 0 0 1 1.883 1.822c.02.024.163.195.177.284-5.191-.48-9.256-4.848-9.256-10.164S6.008 2.14 11.36 1.822c.003.05.009.098.009.147 0 .04 0 .079.01.117h-.01c.137.71 1.583 1.95 2.551 2.762 0 0 .617.5-.506 1.05V5.9Z"/></g><defs><clipPath id="a"><path fill="#ffffff" d="M-.001 0h24v24h-24z"/></clipPath></defs></svg>