<!-- Generated by IcoMoon.io -->
<svg version="1.1" xmlns="http://www.w3.org/2000/svg" width="32" height="32" viewBox="0 0 32 32" fill="#000000">
<title>alice</title>
<path d="M12.939 0.241c-0.399 0.12-1.152 0.541-1.674 0.937s-1.151 0.954-1.397 1.241c-0.246 0.287-0.734 1.101-1.084 1.81s-0.767 2.059-0.926 3.002l-0.291 1.714-0.813-0.233c-0.447-0.128-1.523-0.233-2.39-0.233-1.21 0-1.736 0.125-2.263 0.54-0.377 0.297-0.935 1.021-1.24 1.61-0.402 0.777-0.586 1.691-0.669 3.332-0.087 1.717-0.010 2.536 0.319 3.398 0.239 0.625 0.67 1.436 0.958 1.802s0.991 0.905 1.563 1.196c0.571 0.292 1.668 0.595 2.436 0.674 1.152 0.119 1.367 0.216 1.226 0.557-0.095 0.227-0.39 1.019-0.657 1.759s-0.486 1.991-0.486 2.779c0 0.911 0.182 1.791 0.5 2.414 0.275 0.539 0.9 1.331 1.39 1.761s1.422 0.985 2.073 1.233c0.757 0.289 1.582 0.407 2.291 0.327 0.609-0.069 1.543-0.331 2.074-0.583s1.524-0.961 2.207-1.575c0.683-0.614 1.566-1.735 1.961-2.491l0.719-1.374-0.941-1.368c-0.517-0.752-0.941-1.493-0.941-1.647s0.329 0.236 0.732 0.866c0.403 0.63 1.333 1.703 2.068 2.386s2.115 1.606 3.067 2.052c1.177 0.551 2.241 0.844 3.32 0.913 1.293 0.083 1.779-0.005 2.617-0.476 0.566-0.318 1.278-0.915 1.582-1.326s0.72-1.221 0.924-1.801c0.204-0.579 0.37-1.705 0.369-2.502-0.002-0.986-0.201-1.874-0.623-2.781-0.341-0.733-1.087-1.785-1.658-2.339l-1.038-1.007 1.117-0.934c0.615-0.514 1.372-1.461 1.684-2.105s0.574-1.663 0.583-2.266c0.009-0.603-0.225-1.642-0.52-2.309s-1.075-1.789-1.732-2.492c-0.787-0.841-1.602-1.417-2.382-1.683-0.652-0.223-1.796-0.404-2.541-0.404s-1.651 0.113-2.013 0.251c-0.573 0.218-0.718 0.158-1.102-0.451-0.244-0.386-0.835-1.191-1.314-1.788-0.529-0.661-1.484-1.393-2.433-1.867-1.102-0.55-1.911-0.774-2.745-0.758-0.65 0.012-1.509 0.12-1.907 0.24zM14.803 6.676c0.148 0.921 0.336 2.433 0.417 3.361l0.148 1.687 0.923 0.062c0.508 0.034 1.168 0.188 1.466 0.341s0.85 0.564 1.225 0.914l0.682 0.635 1.083-1.175c0.596-0.647 1.785-1.526 2.643-1.955 1.223-0.611 1.871-0.773 3-0.748l1.44 0.031-1.471 0.216c-0.809 0.118-1.933 0.451-2.498 0.739s-1.678 1.133-2.475 1.878l-1.448 1.354 0.431 1.023c0.29 0.689 0.391 1.446 0.309 2.318-0.067 0.713-0.188 1.47-0.269 1.682-0.106 0.279 0.331 0.622 1.576 1.234 0.948 0.466 2.736 1.567 3.975 2.447s2.253 1.751 2.254 1.936c0.001 0.185-0.8-0.291-1.781-1.058s-2.817-1.929-4.082-2.582l-2.299-1.188-0.733 0.766c-0.403 0.421-1.117 0.904-1.585 1.073s-0.852 0.38-0.852 0.468c0 0.088-0.608 0.079-1.352-0.020s-1.421-0.14-1.505-0.093c-0.084 0.048-0.681 0.997-1.328 2.109s-1.596 2.392-2.11 2.843c-0.514 0.452-1.071 0.821-1.237 0.821s0.174-0.493 0.757-1.095c0.582-0.602 1.604-1.946 2.272-2.987l1.213-1.893-0.936-0.771c-0.514-0.424-1.13-1.137-1.368-1.585s-0.496-1.327-0.574-1.954l-0.142-1.14-2.061-0.722c-1.133-0.397-2.499-0.724-3.035-0.728s-1.384 0.165-1.885 0.375c-0.836 0.349-0.904 0.345-0.828-0.054 0.050-0.261 0.545-0.571 1.242-0.778 0.703-0.209 1.613-0.279 2.316-0.179 0.637 0.091 1.681 0.371 2.318 0.622s1.361 0.541 1.607 0.645c0.336 0.141 0.512 0.018 0.707-0.494 0.198-0.522 0.162-0.845-0.156-1.378l-0.415-0.697 1.026 1.241 0.417-0.636c0.229-0.35 0.868-0.89 1.42-1.2s1.191-0.564 1.419-0.564c0.229 0 0.416-0.055 0.416-0.123s-0.234-1.604-0.519-3.413c-0.286-1.81-0.576-3.58-0.646-3.934l-0.127-0.644 0.373 0.644c0.205 0.354 0.494 1.397 0.642 2.318zM10.444 12.729c0 0.071-0.058 0.129-0.129 0.129s-0.129-0.058-0.129-0.129 0.058-0.129 0.129-0.129c0.071 0 0.129 0.058 0.129 0.129z"/>
</svg>
