<svg xmlns="http://www.w3.org/2000/svg" width="200" height="200" fill="#000000"><path fill-opacity=".435" fill-rule="evenodd" d="M86.5.714C65.429 3.626 45.111 13.86 29.419 29.464 16.161 42.649 7.67 57.561 2.761 76.281c-3.097 11.811-3.097 35.627 0 47.438 4.897 18.677 13.337 33.48 26.693 46.816 13.001 12.982 27.763 21.494 45.496 26.234 13.19 3.526 35.241 3.761 48.05.513 38.255-9.702 67.61-39.968 74.566-76.879.923-4.897 2.073-9.684 2.556-10.639 1.251-2.474 1.139-21.043-.122-20.264-.58.358-1-.614-1-2.313 0-5.896-5.03-22.525-9.597-31.726C172.288 20.977 136.836-.518 98.178.15 93.405.232 88.15.486 86.5.714m-5.278 60.958-6.277 10.334 20.361 33.747 20.361 33.747 17.167.274 17.166.273V94.464l-10.481-10.445-10.48-10.445-.27 22.718-.269 22.717L116 98.327c-6.875-11.375-16.1-26.601-20.5-33.836l-8-13.154zM129 58.268v5.268L139.5 74 150 84.464V53h-21zM52.5 108.74c-9.9 16.322-18.15 30.033-18.333 30.469-.184.435 5.292.791 12.167.791h12.5l12.083-19.864C77.563 109.211 83 100.007 83 99.683c0-.604-11.992-20.708-12.319-20.652-.1.017-8.281 13.386-18.181 29.709M.37 100c0 5.775.165 8.138.367 5.25s.202-7.612 0-10.5S.37 94.225.37 100"/><path fill-opacity=".112" fill-rule="evenodd" d="M88 .599C69.194 4.066 58.079 8.216 45.312 16.536 3.814 43.579-11.54 97.871 9.635 142.688c11.096 23.484 32.848 43.049 57.163 51.415l5.307 1.825 5.447-2.409c2.997-1.325 5.448-2.255 5.448-2.067 0 .292 4.896-2.143 20.5-10.196 1.65-.852 3.787-2.228 4.75-3.057.963-.83 1.757-1.102 1.765-.604s.346.454.75-.098c.404-.551 2.76-2.328 5.235-3.948s7.875-5.669 12-8.997 8.397-6.727 9.493-7.552c3.727-2.805 17.142-16.48 21.082-21.491 2.159-2.745 4.952-6.12 6.207-7.5s4.398-5.659 6.983-9.509 5.159-7.331 5.718-7.735c.664-.479.67-.745.017-.765-.593-.018-.557-.33.088-.765 1.626-1.099 10.085-17.462 14.462-27.978l3.847-9.243-1.81-5.261c-10.746-31.234-37.762-55.68-70.587-63.872C115.754.947 93.773-.465 88 .599m-6.828 60.976-6.328 10.427 19.675 32.749c10.82 18.012 20.58 33.536 21.688 34.499 1.62 1.408 3.901 1.749 11.654 1.743 5.301-.004 12.676-.294 16.389-.645l6.75-.637V95.466l-10.981-10.947-10.98-10.946-.27 22.644-.269 22.645-18.27-30.181a94261 94261 0 0 0-20.5-33.857l-2.23-3.677zM129 58.267v5.267L140 74.5l11 10.966V53h-22zm-76.5 50.425c-9.9 16.29-18.155 30.012-18.344 30.494-.188.481 5.365.749 12.341.595l12.684-.281L71.086 120c6.547-10.725 11.906-19.888 11.909-20.361.005-.888-8.84-15.802-11.18-18.852-1.16-1.512-3.436 1.776-19.315 27.905"/><path fill-opacity=".242" fill-rule="evenodd" d="M88.5.604c-8.22 1.218-18.73 3.919-25.16 6.467C32.717 19.204 9.955 45.873 2.376 78.5c-2.727 11.737-2.508 32.932.464 44.94 4.193 16.942 14.077 34.546 26.206 46.675 6.567 6.567 6.728 6.656 10.561 5.854 5.954-1.247 14.3-3.705 20.393-6.007 3.025-1.142 6.237-2.241 7.137-2.44.9-.2 2.475-.803 3.5-1.341s5.238-2.624 9.363-4.637c12.653-6.174 24.151-13.443 31.217-19.734l3.717-3.31-20.029-33.259-20.028-33.259 5.232-8.741c2.878-4.808 5.733-9.489 6.344-10.404.928-1.385 4.522 3.965 21.58 32.122l20.467 33.785.269-22.586.27-22.585 10.98 10.946C146.059 90.54 151 96.126 151 96.933c0 2.643 1.358.609 9.069-13.583 1.539-2.832 2.592-5.356 2.34-5.607-.251-.252.229-1.027 1.067-1.723S165 74 165 73.078s.461-2.139 1.023-2.701c.563-.563 1.242-1.891 1.509-2.95s2.07-6.612 4.007-12.339c1.938-5.727 3.779-12.027 4.091-14s.771-3.919 1.019-4.323c.735-1.199-12.692-14.041-19.553-18.7-9.147-6.211-23.372-12.677-33.14-15.061C115.742.998 95.215-.391 88.5.604m40.507 57.646.007 5.25 10.243 10.242c5.634 5.632 10.581 10.545 10.993 10.916s.75-6.6.75-15.491V53h-22zm-76.523 50.444c-9.891 16.238-18.139 29.938-18.328 30.445-.201.542 4.909.806 12.378.642l12.721-.281L71.118 120c6.524-10.725 11.867-19.872 11.872-20.327.012-.97-10.973-19.545-11.895-20.114-.345-.213-8.719 12.898-18.611 29.135"/><path fill-opacity=".402" fill-rule="evenodd" d="M88 .701c-15.731 1.713-37.119 10.871-50.749 21.73C18.604 37.288 5.441 60.123 1.473 84.5c-3.33 20.457-.058 41.529 9.335 60.125 2.836 5.614 3.336 6.096 6.003 5.785 2.799-.326 12.544-1.975 16.689-2.825 3.797-.778 16.87-4.696 17.933-5.374.587-.374 1.367-.687 1.734-.696.366-.008 1.004-.353 1.416-.765.413-.412-4.05-.75-9.916-.75S34 139.733 34 139.408c0-.494 14.393-24.329 32.375-53.612 2.264-3.687 4.47-6.351 4.903-5.918s3.382 5.024 6.555 10.204l5.77 9.418-10.731 17.684c-13.117 21.616-13.517 22.34-11.722 21.202.743-.47 1.575-.868 1.85-.883 1.378-.077 19.837-10.602 20.953-11.947.711-.856 1.735-1.556 2.278-1.556s3.831-2.265 7.31-5.033l6.324-5.032-5.783-9.718a5443 5443 0 0 0-12.54-20.928l-6.756-11.21 6.321-10.522 6.321-10.522 3.829 6.233c2.106 3.427 8.357 13.657 13.891 22.732s10.233 16.681 10.443 16.903c1.227 1.295 13.396-16.973 13.403-20.122.004-1.841.433-2.555 1.328-2.211 1.578.606 4.02-4.189 3.002-5.895-.386-.646-1.517-1.763-2.513-2.482-1.398-1.009-1.811-2.661-1.811-7.25V53h12.675l1.791-5.75a579 579 0 0 1 3.133-9.75c.739-2.2 1.582-5.948 1.873-8.329s.762-5.306 1.046-6.5c1.895-7.963 1.65-8.557-4.893-11.863C127.849 2.334 107.068-1.375 88 .701"/></svg>