<!-- Generated by IcoMoon.io -->
<svg version="1.1" xmlns="http://www.w3.org/2000/svg" width="32" height="32" viewBox="0 0 32 32" fill="#000000">
<title>alpaca</title>
<path d="M12.814 1.021c-0.8 0.169-1.959 0.499-2.574 0.734s-1.639 0.731-2.274 1.103c-0.635 0.371-1.645 1.071-2.243 1.554s-1.504 1.394-2.012 2.024c-0.508 0.629-1.203 1.61-1.543 2.18s-0.803 1.488-1.027 2.040c-0.224 0.552-0.523 1.501-0.664 2.108s-0.324 1.7-0.407 2.429c-0.093 0.815-0.090 1.906 0.007 2.833 0.087 0.829 0.275 1.956 0.419 2.504s0.512 1.58 0.82 2.294c0.308 0.714 0.809 1.711 1.113 2.216s1.126 1.533 1.827 2.284c0.701 0.751 1.821 1.742 2.49 2.203s1.606 1.034 2.082 1.275c0.476 0.24 0.906 0.436 0.955 0.436s0.088-0.098 0.088-0.217c0-0.12 0.099-0.353 0.221-0.519 0.177-0.241 0.288-0.266 0.556-0.122 0.184 0.099 0.802 0.254 1.372 0.346 0.766 0.124 1.629 0.104 3.304-0.074 1.247-0.133 2.678-0.311 3.18-0.396s1.473-0.352 2.158-0.594c0.685-0.242 1.371-0.479 1.524-0.527 0.207-0.065 0.391 0.133 0.709 0.761l0.43 0.848 0.619-0.316c0.34-0.174 1.084-0.659 1.652-1.077s1.491-1.23 2.050-1.802c0.559-0.573 1.381-1.595 1.827-2.273s1.040-1.785 1.321-2.461c0.281-0.676 0.666-1.803 0.855-2.504 0.27-1.003 0.345-1.787 0.351-3.681 0.007-2.098-0.048-2.614-0.43-4.017-0.241-0.885-0.748-2.23-1.128-2.988s-0.959-1.752-1.288-2.208c-0.329-0.457-1.008-1.264-1.509-1.795s-1.399-1.326-1.996-1.768c-0.597-0.441-1.683-1.102-2.414-1.467s-1.851-0.818-2.49-1.005c-0.639-0.187-1.648-0.418-2.241-0.513s-1.789-0.168-2.656-0.162c-0.867 0.006-2.232 0.148-3.032 0.317zM19.996 2.238c0.776 0.223 1.784 0.57 2.239 0.769s1.432 0.765 2.17 1.256c0.738 0.491 1.863 1.441 2.5 2.112s1.512 1.786 1.943 2.478 1.010 1.878 1.287 2.635c0.276 0.757 0.61 2.093 0.742 2.969s0.24 1.898 0.241 2.272l0.001 0.68-1.868 0.713c-1.027 0.392-2.715 1.111-3.75 1.598s-2.331 1.191-2.879 1.566c-0.548 0.374-1.016 0.657-1.039 0.627s-0.12-0.875-0.216-1.88c-0.096-1.004-0.144-2.76-0.107-3.901 0.038-1.176-0.011-2.412-0.114-2.852-0.173-0.743-0.151-0.837 0.503-2.158 0.411-0.831 0.79-1.919 0.949-2.733 0.146-0.743 0.217-1.545 0.157-1.782-0.069-0.274-0.26-0.469-0.525-0.535-0.293-0.074-0.601 0.017-1.035 0.304-0.34 0.225-1.104 0.981-1.697 1.68-0.963 1.134-1.124 1.258-1.494 1.146-0.228-0.069-1.013-0.121-1.743-0.117s-1.59 0.041-1.91 0.082c-0.551 0.071-0.645 0.004-1.772-1.27-0.654-0.74-1.456-1.471-1.782-1.626-0.45-0.213-0.671-0.238-0.924-0.103-0.182 0.098-0.373 0.344-0.423 0.547s0.020 0.948 0.156 1.655c0.144 0.749 0.533 1.87 0.93 2.684 0.654 1.338 0.676 1.436 0.525 2.283-0.087 0.487-0.129 1.744-0.093 2.794s-0.020 3.067-0.124 4.482c-0.104 1.415-0.189 3.043-0.188 3.617 0.001 0.98-0.027 1.059-0.471 1.288-0.26 0.135-0.543 0.377-0.63 0.538s-0.139 0.964-0.117 1.783c0.022 0.819 0.098 1.62 0.17 1.78 0.082 0.184 0.060 0.291-0.062 0.291-0.106 0-0.431-0.122-0.723-0.27s-0.98-0.588-1.527-0.977-1.464-1.184-2.035-1.768c-0.571-0.584-1.311-1.465-1.644-1.959s-0.886-1.501-1.23-2.237c-0.344-0.736-0.76-1.824-0.925-2.418-0.235-0.846-0.298-1.671-0.293-3.818 0.006-2.535 0.040-2.844 0.467-4.15 0.254-0.776 0.753-1.958 1.11-2.627s0.978-1.64 1.381-2.158c0.402-0.518 1.056-1.251 1.453-1.628s1.090-0.962 1.54-1.3c0.45-0.338 1.384-0.896 2.075-1.241s1.64-0.753 2.109-0.907c0.469-0.154 1.365-0.386 1.992-0.517 0.771-0.161 1.811-0.216 3.215-0.17 1.55 0.050 2.432 0.17 3.486 0.474zM12.069 8.015c0.799 0.834 1.453 1.619 1.453 1.745s0.042 0.228 0.093 0.228c0.051 0 0.468-0.122 0.925-0.272 0.606-0.198 1.162-0.247 2.050-0.18 0.67 0.051 1.363 0.17 1.54 0.264 0.265 0.142 0.381 0.092 0.655-0.277 0.183-0.247 0.874-1.028 1.536-1.735 0.854-0.914 1.319-1.287 1.602-1.287 0.362 0 0.399 0.069 0.399 0.752 0 0.414-0.154 1.21-0.343 1.77s-0.526 1.379-0.75 1.821c-0.224 0.442-0.48 0.803-0.57 0.803s-0.163-0.122-0.163-0.27c0-0.149 0.234-0.746 0.521-1.328s0.529-1.33 0.54-1.663c0.010-0.333-0.067-0.636-0.173-0.673s-0.465 0.172-0.798 0.465c-0.334 0.293-0.832 0.861-1.108 1.262l-0.502 0.729 0.405 0.532c0.223 0.292 0.569 0.854 0.77 1.248s0.407 1.073 0.459 1.509l0.094 0.792-0.994 0.211c-0.547 0.116-1.089 0.27-1.206 0.342-0.163 0.101-0.127 0.25 0.155 0.646 0.202 0.283 0.541 0.559 0.755 0.612s0.551 0.010 0.75-0.096c0.199-0.106 0.391-0.164 0.427-0.128s0.101 1.181 0.144 2.545c0.044 1.364 0.097 3.546 0.118 4.848l0.039 2.368-0.654 0.673c-0.36 0.37-1.19 1.096-1.846 1.613-1.1 0.868-1.264 0.943-2.131 0.978-0.838 0.034-1.059-0.034-2.045-0.633-0.608-0.369-1.501-0.974-1.983-1.345s-0.921-0.746-0.974-0.833c-0.054-0.087-0.002-2.38 0.116-5.095l0.214-4.937 0.761 0.073c0.69 0.066 0.805 0.023 1.236-0.462 0.36-0.405 0.423-0.567 0.26-0.668-0.118-0.073-0.687-0.222-1.264-0.331-1.003-0.189-1.049-0.219-1.049-0.681 0-0.266 0.149-0.908 0.331-1.426s0.555-1.221 0.828-1.561l0.497-0.618-0.326-0.386c-0.179-0.212-0.628-0.778-0.998-1.257s-0.758-0.872-0.864-0.872c-0.105 0-0.040 0.168 0.145 0.374s0.58 0.736 0.878 1.178c0.486 0.721 0.52 0.846 0.329 1.204-0.117 0.219-0.311 0.399-0.43 0.399s-0.324-0.206-0.454-0.459c-0.13-0.252-0.372-0.906-0.537-1.453-0.186-0.615-0.321-0.865-0.355-0.655-0.030 0.187 0.177 0.896 0.46 1.577s0.556 1.332 0.606 1.446c0.050 0.114 0.012 0.208-0.085 0.208s-0.413-0.499-0.705-1.11c-0.291-0.61-0.63-1.488-0.754-1.951s-0.225-1.071-0.226-1.353c-0.001-0.282 0.048-0.562 0.109-0.623s0.229-0.112 0.373-0.112c0.144-0.001 0.917 0.681 1.715 1.515zM21.324 8.453c0 0.16-0.221 0.758-0.491 1.328s-0.557 1.038-0.638 1.038c-0.081 0-0.277-0.143-0.435-0.318-0.235-0.259-0.252-0.385-0.095-0.679 0.106-0.198 0.457-0.653 0.78-1.010s0.653-0.649 0.733-0.649c0.081 0 0.147 0.131 0.147 0.291zM12.36 15.135c0 0.091-0.075 0.166-0.166 0.166s-0.166-0.075-0.166-0.166 0.075-0.166 0.166-0.166c0.091 0 0.166 0.075 0.166 0.166zM19.498 15.135c0 0.091-0.075 0.166-0.166 0.166s-0.166-0.075-0.166-0.166c0-0.091 0.075-0.166 0.166-0.166s0.166 0.075 0.166 0.166zM15.25 15.704c-0.129 0.184-0.234 0.57-0.234 0.858s-0.112 0.617-0.249 0.73-0.249 0.34-0.249 0.503c0 0.163 0.201 0.603 0.446 0.979 0.315 0.481 0.63 0.737 1.070 0.869 0.473 0.142 0.737 0.138 1.089-0.013 0.256-0.11 0.633-0.462 0.839-0.782s0.372-0.745 0.37-0.944c-0.002-0.199-0.146-0.548-0.32-0.774-0.204-0.265-0.286-0.566-0.23-0.844 0.054-0.271-0.012-0.531-0.177-0.696-0.184-0.184-0.543-0.257-1.192-0.242-0.727 0.017-0.98 0.094-1.163 0.356zM16.145 15.832c0.155 0.155 0.244 0.155 0.398 0 0.11-0.11 0.326-0.199 0.48-0.199s0.324 0.113 0.377 0.251c0.053 0.138 0.026 0.436-0.061 0.663-0.133 0.35-0.093 0.455 0.262 0.687 0.303 0.198 0.405 0.395 0.369 0.706-0.038 0.328-0.156 0.444-0.491 0.483-0.307 0.036-0.52-0.063-0.702-0.323l-0.262-0.374-0.402 0.378c-0.243 0.228-0.556 0.356-0.79 0.323-0.217-0.031-0.414-0.19-0.446-0.36-0.032-0.168 0.102-0.476 0.297-0.684 0.263-0.28 0.327-0.493 0.245-0.817-0.066-0.261-0.027-0.538 0.095-0.686 0.113-0.136 0.255-0.247 0.317-0.247s0.202 0.090 0.312 0.199zM15.68 16.37c0 0.132 0.080 0.288 0.177 0.349s0.211 0.075 0.253 0.034c0.042-0.042 0.029-0.199-0.029-0.349s-0.171-0.273-0.253-0.273c-0.081 0-0.148 0.108-0.148 0.239zM16.676 16.463c0 0.091 0.075 0.166 0.166 0.166s0.166-0.075 0.166-0.166-0.075-0.166-0.166-0.166c-0.091 0-0.166 0.075-0.166 0.166zM16.957 18.655c0.304 0.11 0.528 0.278 0.496 0.373s-0.25 0.241-0.485 0.324c-0.288 0.102-0.595 0.082-0.941-0.062-0.283-0.117-0.514-0.261-0.514-0.319s0.168-0.19 0.373-0.292 0.406-0.194 0.445-0.205c0.039-0.011 0.32 0.070 0.625 0.18zM27.467 26.247c0 0.085-0.514 0.616-1.142 1.178s-1.469 1.239-1.868 1.504c-0.399 0.265-0.82 0.481-0.936 0.482s-0.293-0.179-0.393-0.399c-0.147-0.323-0.123-0.481 0.128-0.827 0.173-0.239 0.713-0.578 1.223-0.769 0.502-0.188 1.324-0.561 1.826-0.829s0.969-0.49 1.038-0.492c0.068-0.003 0.125 0.065 0.125 0.151z"/>
</svg>
