<svg width="500" height="500" viewBox="0 0 500 500" fill="#000000" xmlns="http://www.w3.org/2000/svg">
<path fill-rule="evenodd" clip-rule="evenodd" d="M208.474 1.28925C129.643 18.4442 75.1437 55.7301 35.089 119.91C28.8791 129.858 23.7985 138.592 23.7985 139.32C23.7985 140.046 21.2078 146.256 18.043 153.117C-5.917 205.054 -6.02328 282.337 17.78 343.598C21.7605 353.842 25.9402 362.624 27.0669 363.11C28.1909 363.599 29.1129 365.074 29.1129 366.392C29.1129 377.334 68.6734 425.438 95.6201 447.259C102.97 453.213 137.633 475.157 139.687 475.157C140.413 475.157 146.623 477.747 153.483 480.912C237.507 519.673 353.337 497.753 421.962 430.109C446.35 406.072 475.523 367.484 475.523 359.268C475.523 358.542 478.114 352.333 481.279 345.472C505.239 293.534 505.345 216.252 481.542 154.99C477.561 144.746 473.382 135.964 472.255 135.478C471.131 134.989 470.209 133.514 470.209 132.196C470.209 121.254 430.648 73.1507 403.702 51.3297C396.352 45.3749 361.689 23.4317 359.635 23.4317C358.909 23.4317 352.699 20.841 345.839 17.6762C333.188 11.841 313.888 6.24228 292.176 2.11032C280.001 -0.206759 218.141 -0.812601 208.474 1.28925ZM386.379 101.067C385.348 105.771 383.589 111.449 382.476 113.689C379.189 120.297 355.822 194.519 355.888 198.143C355.933 200.617 364.245 201.464 388.412 201.464H420.875L413.191 207.443C408.966 210.73 403.415 215.423 400.859 217.87C392.217 226.139 385.59 228.037 365.34 228.037C348.456 228.037 344.908 228.796 343.657 232.687C342.833 235.246 339.743 243.613 336.788 251.287L331.418 265.237H312.841C296.194 265.237 294.464 264.754 296.175 260.587C297.804 256.628 305.337 230.67 305.43 228.701C305.545 226.288 224.455 228.541 219.706 231.082C212.497 234.94 179.54 260.571 178.36 263.239C177.871 264.337 166.214 265.237 152.452 265.237C125.062 265.237 124.363 263.93 144.747 250.849C149.104 248.051 155.064 243.563 157.987 240.876C160.91 238.19 165.693 234.241 168.616 232.099C173.351 228.629 168.332 228.196 122.487 228.122L71.0436 228.037L101.229 204.871C117.832 192.13 134.391 178.977 138.032 175.642C141.669 172.307 145.371 169.578 146.253 169.578C147.138 169.578 151.334 166.591 155.58 162.938C164.612 155.171 168.653 154.389 165.906 160.942C164.835 163.501 161.266 173.365 157.974 182.864L151.993 200.136L179.92 200.893L207.85 201.65L240.047 177.117C267.432 156.249 286.097 141.72 305.462 126.196C307.654 124.44 313.633 120.045 318.748 116.434C331.051 107.748 337.248 102.757 342.397 97.3897C345.613 94.0416 351.719 92.907 367.452 92.7396L388.258 92.5191L386.379 101.067ZM323.736 149.181C319.902 152.362 312.9 157.953 308.178 161.606C303.456 165.26 298.221 169.445 296.547 170.907C294.873 172.368 286.33 178.881 277.562 185.38C268.793 191.88 260.484 198.159 259.094 199.331C257.704 200.505 269.797 201.464 285.966 201.464H315.363L319.963 186.186C322.492 177.783 326.372 165.914 328.585 159.807C333.836 145.323 332.337 142.044 323.736 149.181ZM116.564 313.474C122.54 320.276 127.43 326.552 127.43 327.424C127.43 330.586 120.029 328.915 116.801 325.025C112.291 319.591 90.7442 319.747 84.6565 325.258C71.7319 336.955 72.3988 326.885 85.4962 312.583C100.937 295.726 100.972 295.726 116.564 313.474ZM154.002 309.081V321.039H169.862C183.055 321.039 185.458 321.727 184.15 325.133C182.896 328.399 178.743 329.074 163.639 328.455L144.701 327.682L143.904 312.403C143.179 298.511 143.601 297.124 148.554 297.124C153.239 297.124 154.002 298.798 154.002 309.081ZM244.522 299.874C258.114 307.15 246.603 318.382 225.557 318.382C211.575 318.382 209.803 318.979 209.803 323.696C209.803 327.238 208.031 329.01 204.488 329.01C199.764 329.01 199.174 327.238 199.174 313.067V297.124H219.278C230.335 297.124 241.695 298.362 244.522 299.874ZM278.89 313.067C278.89 327.238 278.3 329.01 273.576 329.01C268.851 329.01 268.261 327.238 268.261 313.067C268.261 298.896 268.851 297.124 273.576 297.124C278.3 297.124 278.89 298.896 278.89 313.067ZM327.698 306.148L345.32 315.174V306.148C345.32 299.898 346.545 297.124 349.306 297.124C352.41 297.124 353.292 300.677 353.292 313.152V329.18L340.67 322.176C333.727 318.32 326.853 314.244 325.391 313.115C315.618 305.56 310.777 307.245 310.777 318.203C310.777 326.037 309.679 329.01 306.791 329.01C303.69 329.01 302.805 325.468 302.805 313.067C302.805 293.962 303.515 293.763 327.698 306.148ZM419.722 299.781C419.722 301.28 412.194 302.438 402.45 302.438C392.706 302.438 385.178 303.597 385.178 305.095C385.178 306.594 392.706 307.753 402.45 307.753C416.031 307.753 419.722 308.606 419.722 311.738C419.722 314.871 416.031 315.724 402.45 315.724C392.706 315.724 385.178 316.883 385.178 318.382C385.178 319.88 392.706 321.039 402.45 321.039C416.031 321.039 419.722 321.892 419.722 325.025C419.722 328.234 415.587 329.01 398.464 329.01H377.207V313.067V297.124H398.464C410.866 297.124 419.722 298.232 419.722 299.781ZM209.803 306.424C209.803 309.485 213.199 310.41 224.418 310.41C235.636 310.41 239.032 309.485 239.032 306.424C239.032 303.363 235.636 302.438 224.418 302.438C213.199 302.438 209.803 303.363 209.803 306.424ZM95.4129 311.895C92.7849 315.063 93.4386 315.724 99.2047 315.724C106.671 315.724 108.622 311.919 102.38 309.522C100.294 308.723 97.1586 309.791 95.4129 311.895ZM177.916 352.925C177.916 354.387 175.825 355.721 173.266 355.891C168.837 356.183 168.837 356.257 173.266 357.413C178.947 358.899 179.45 363.554 173.931 363.554C171.738 363.554 169.945 365.348 169.945 367.54C169.945 369.732 168.749 371.526 167.288 371.526C165.826 371.526 164.63 366.743 164.63 360.897C164.63 351.331 165.295 350.268 171.273 350.268C174.927 350.268 177.916 351.464 177.916 352.925ZM196.517 360.897C196.517 366.743 195.321 371.526 193.86 371.526C192.398 371.526 191.202 368.635 191.202 365.1C191.202 361.566 190.477 356.783 189.59 354.472C188.532 351.713 189.443 350.268 192.247 350.268C195.457 350.268 196.517 352.907 196.517 360.897ZM212.46 354.254C212.46 356.446 210.666 358.24 208.474 358.24C206.282 358.24 204.488 356.446 204.488 354.254C204.488 352.062 206.282 350.268 208.474 350.268C210.666 350.268 212.46 352.062 212.46 354.254ZM247.004 352.925C247.004 354.387 245.21 355.582 243.018 355.582C240.361 355.582 239.032 358.24 239.032 363.554C239.032 367.938 237.836 371.526 236.375 371.526C234.913 371.526 233.718 367.938 233.718 363.554C233.718 359.17 232.522 355.582 231.061 355.582C229.599 355.582 228.403 354.387 228.403 352.925C228.403 351.464 232.588 350.268 237.704 350.268C242.819 350.268 247.004 351.464 247.004 352.925ZM268.261 352.925C268.261 354.387 266.17 355.721 263.611 355.891C259.182 356.183 259.182 356.257 263.611 357.413C269.292 358.899 269.795 363.554 264.276 363.554C258.757 363.554 259.259 368.209 264.94 369.695C267.802 370.441 266.779 371.029 262.283 371.217C255.478 371.504 254.975 370.795 254.975 360.897C254.975 351.331 255.64 350.268 261.618 350.268C265.272 350.268 268.261 351.464 268.261 352.925ZM292.952 360.232C295.152 365.714 296.314 370.795 295.53 371.526C294.746 372.256 293.571 371.361 292.92 369.533C291.515 365.6 281.547 365.018 281.547 368.868C281.547 370.33 280.447 371.526 279.103 371.526C277.761 371.526 278.539 366.743 280.835 360.897C286.009 347.725 287.888 347.624 292.952 360.232ZM314.332 358.904L318.552 367.54L320.311 358.904C322.883 346.272 329.377 347.698 329.377 360.897C329.377 371.111 324.387 376.418 323.754 366.876C323.462 362.446 323.388 362.446 322.232 366.876C320.847 372.171 313.543 373.25 313.224 368.204C313.057 365.547 312.746 365.547 311.675 368.204C308.879 375.129 305.462 371.111 305.462 360.897C305.462 348.023 308.664 347.303 314.332 358.904ZM286.862 360.897C286.862 362.845 287.659 363.642 288.634 362.669C289.607 361.694 289.607 360.1 288.634 359.124C287.659 358.152 286.862 358.949 286.862 360.897ZM274.904 406.069C273.966 407.589 260.529 408.708 243.525 408.687C223.344 408.657 215.069 407.818 217.774 406.069C223.193 402.567 277.067 402.567 274.904 406.069Z" fill="#000000"/>
</svg>
