<svg xmlns="http://www.w3.org/2000/svg" width="24" height="24" fill="#000000"><path fill="#050505" d="M0 3.333A3.333 3.333 0 0 1 3.333 0h17.334A3.333 3.333 0 0 1 24 3.333v17.334A3.333 3.333 0 0 1 20.667 24H3.333A3.333 3.333 0 0 1 0 20.667V3.333Z"/><path fill="#ffffff" fill-rule="evenodd" d="M3.667 20.334h4.879l.713-2.587h5.483l.713 2.587h4.879l-5.455-17H9.122l-2.375 7.4a4.334 4.334 0 0 1-2.545 7.931l-.535 1.669Zm6.727-6.707h3.213l-1.546-5.611h-.121l-1.546 5.611Z" clip-rule="evenodd"/><path fill="#bfbfbf" d="m6.486 14.248-.48-.277a.243.243 0 0 1-.11-.147l-.068-.33a.183.183 0 0 0-.21-.141l-.023.006-.274.094a.332.332 0 0 1-.275-.03L2.42 11.908a3.268 3.268 0 0 0-.527.588l2.485 1.435a.195.195 0 0 0 .145.019l.373-.108a.183.183 0 0 1 .14.016l.01.006a.18.18 0 0 1 .085.12l.068.33a.227.227 0 0 0 .107.152l2.024 1.17c.112-.24.195-.496.246-.751l-1.093-.63.003-.006Zm-2.365.42-.068-.331a.183.183 0 0 0-.21-.14l-.023.005-.28.091a.32.32 0 0 1-.269-.026L1.509 13.25c-.091.258-.145.53-.169.807l1.238.715a.206.206 0 0 0 .145.019l.373-.108a.183.183 0 0 1 .14.016l.009.006a.18.18 0 0 1 .086.12l.068.33a.227.227 0 0 0 .106.152l2.748 1.587a3.14 3.14 0 0 0 .616-.55L4.228 14.82a.21.21 0 0 1-.107-.152Zm2.172-1.565.373-.108a.183.183 0 0 1 .14.016l.01.005c.043.025.076.07.088.116l.068.33a.221.221 0 0 0 .11.148l.524.302a3.171 3.171 0 0 0-4.37-2.523l2.918 1.685c.043.038.093.04.14.029Zm-3.917 2.445a.224.224 0 0 1-.109-.147l-.068-.33a.178.178 0 0 0-.213-.136l-.015.004-.28.09a.32.32 0 0 1-.27-.026l-.009-.005c.392 1.687 2.094 2.741 3.793 2.345.066-.014.13-.035.199-.054l-3.025-1.746-.003.005Z"/></svg>