<svg xmlns="http://www.w3.org/2000/svg" width="32" height="32" fill="#000000"><path fill-opacity=".357" fill-rule="evenodd" d="M7.859 2.158C-6 10.194-.051 32 16 32c8.913 0 17-8.372 17-17.6 0-2.485-.362-4.294-.806-4.02-.443.274-1.605-.988-2.583-2.804C25.819.535 15.213-2.107 7.859 2.158M.3 16c0 3.025.187 4.263.416 2.75.229-1.512.229-3.987 0-5.5C.487 11.738.3 12.975.3 16m14.5 3.2c.933.933 1.467.933 2.4 0 .933-.933.667-1.2-1.2-1.2s-2.133.267-1.2 1.2"/><path fill-opacity=".366" fill-rule="evenodd" d="M9.45 1.407C-.639 5.801-3.022 19.213 4.882 27.118c8.256 8.255 20.799 5.654 26.151-5.423 2.059-4.261 2.725-11.281.967-10.195-.55.34-1-.049-1-.864 0-2.337-5.084-7.773-8.671-9.272C18.254-.338 13.42-.322 9.45 1.407m5.226 6.309c-.28.452 1.653 4.114 4.295 8.139 5.892 8.977 7.709 7.785 2.35-1.541-3.697-6.434-5.587-8.31-6.645-6.598M.272 16c0 2.475.195 3.488.434 2.25.238-1.238.238-3.262 0-4.5C.467 12.512.272 13.525.272 16m8.478 1.517C6.84 20.092 6.429 23 7.974 23c1.43 0 4.34-6.091 3.361-7.036-.459-.444-1.622.255-2.585 1.553m5.875.281c-.271.439-.073 1.451.441 2.25.817 1.269 1.051 1.269 1.868 0C17.926 18.506 17.464 17 16 17c-.485 0-1.104.359-1.375.798"/><path fill-opacity=".577" fill-rule="evenodd" d="M8.962 2.25C4.159 4.672 0 11.053 0 16c0 4.947 4.159 11.328 8.962 13.75 5.611 2.83 8.465 2.83 14.076 0 3.326-1.677 5.142-3.523 7.131-7.25 2.316-4.339 3.964-11.966 2.206-10.208-.344.343-1.581-1.269-2.75-3.584C27.33 4.163 20.816 0 16 0c-1.417 0-4.584 1.012-7.038 2.25m1.739 11.5c-2.573 4.338-4.219 8.13-3.736 8.613 1.327 1.33 2.704.016 5.648-5.394 1.488-2.733 2.971-4.969 3.296-4.968.325.001 1.845 2.234 3.379 4.964 3.047 5.427 4.427 6.72 5.754 5.393C25.959 21.441 17.533 6 16.115 6c-.449 0-2.885 3.487-5.414 7.75M.232 16c0 1.925.206 2.712.457 1.75.252-.962.252-2.537 0-3.5-.251-.963-.457-.175-.457 1.75m14.06 1.489c-.951 1.052-.888 1.601.293 2.581 2.216 1.84 4.433-.497 2.372-2.501-1.214-1.18-1.659-1.193-2.665-.08"/><path fill-opacity=".727" fill-rule="evenodd" d="M11.594 1.041C7.391 2.299 2.123 7.83.938 12.23c-2.93 10.883 8.02 21.743 18.954 18.799C24.257 29.854 31 23.192 31 20.056c0-1.066.45-2.216 1-2.556.55-.34 1-1.518 1-2.618 0-1.1-.45-1.722-1-1.382-.55.34-1-.307-1-1.438 0-3.107-6.647-9.87-10.848-11.037-4.189-1.163-4.618-1.162-8.558.016m2.674 6.209C12.418 9.619 6 21.109 6 22.054c0 .52.787.946 1.75.945 1.058-.001 2.86-1.977 4.558-5C13.852 15.25 15.445 13 15.848 13c.402 0 2.046 2.25 3.652 5 1.781 3.05 3.618 5 4.71 5 2.587 0 2.279-1.189-2.46-9.491-4.247-7.44-5.645-8.61-7.482-6.259M.158 16c0 1.375.227 1.938.504 1.25.278-.687.278-1.812 0-2.5-.277-.687-.504-.125-.504 1.25m14.134 1.451c-1.783 2.029 1.062 4.33 3.18 2.572 1.262-1.047 1.272-1.421.072-2.622-1.686-1.685-1.728-1.685-3.252.05"/></svg>