<!-- Generated by IcoMoon.io -->
<svg version="1.1" xmlns="http://www.w3.org/2000/svg" width="32" height="32" viewBox="0 0 32 32" fill="#000000">
<title>amb</title>
<path d="M15.975 25.301c-6.757-0.14-11.973-3.084-15.732-8.666-0.338-0.478-0.309-0.896 0-1.374 2.863-4.289 6.731-7.178 11.864-8.217 5.468-1.122 10.545-0.057 15.060 3.31 1.824 1.374 3.364 3.029 4.598 4.936 0.309 0.449 0.309 0.87 0.029 1.317-2.917 4.403-6.897 7.263-12.085 8.329-1.265 0.252-2.499 0.366-3.733 0.366zM21.025 8.867c0.057 0.057 0.057 0.083 0.083 0.083 1.683 1.262 2.803 2.889 3.31 4.907 0.028 0.083 0.112 0.169 0.197 0.197 0.478 0.252 0.644 0.756 0.392 1.205-0.224 0.421-0.785 0.561-1.205 0.309-0.449-0.281-0.533-0.785-0.223-1.262 0.057-0.083 0.083-0.197 0.057-0.281-0.704-3.055-3.538-5.609-6.65-5.915-1.99-0.223-3.871 0.197-5.525 1.346-0.083 0.057-0.169 0.112-0.252 0.112-0.14-0.029-0.309-0.057-0.364-0.169-0.057-0.169-0.029-0.364-0.057-0.561-3.842 1.262-6.897 3.673-9.254 7.038 1.122 1.655 2.468 3.084 4.011 4.292 1.515 1.177 4.346 2.663 5.159 2.691-0.029-0.029-0.029-0.057-0.057-0.057-1.626-1.262-2.663-2.889-3.141-4.879-0.057-0.223-0.14-0.364-0.309-0.478-0.392-0.281-0.421-0.813-0.14-1.205 0.281-0.364 0.813-0.421 1.177-0.14s0.478 0.842 0.169 1.205c-0.169 0.197-0.14 0.338-0.112 0.561 0.87 3.533 4.037 5.777 6.843 5.889 1.065 0.028 2.13 0.083 3.141-0.252 0.842-0.281 1.626-0.644 2.328-1.177 0.252-0.197 0.561-0.14 0.644 0.112 0.057 0.14 0 0.338 0 0.504 0.057-0.029 0.14-0.029 0.252-0.083 3.616-1.291 6.479-3.59 8.721-6.702 0.14-0.197 0.112-0.309 0-0.478-1.403-1.964-3.084-3.616-5.131-4.936-1.232-0.782-2.577-1.398-4.063-1.876z"/>
<path d="M22.986 15.99c0 3.897-3.141 7.012-7.066 7.012-3.842 0-6.983-3.169-6.983-7.095 0-3.842 3.169-6.983 7.066-6.983 3.871 0.026 6.983 3.195 6.983 7.066zM22.202 15.99c0-3.421-2.803-6.224-6.225-6.224s-6.227 2.832-6.227 6.253c0 3.421 2.806 6.224 6.224 6.224 3.421-0.028 6.227-2.832 6.227-6.253zM24.163 16.551c0.281 0 0.478 0.197 0.449 0.449-0.224 1.824-0.954 3.421-2.159 4.796-0.169 0.197-0.421 0.223-0.59 0.057-0.169-0.169-0.169-0.392 0-0.59 1.065-1.205 1.738-2.608 1.935-4.234 0.028-0.254 0.112-0.449 0.364-0.478zM7.394 14.699c0.14-0.87 0.392-1.709 0.756-2.525 0.364-0.756 0.842-1.431 1.403-2.076 0.029-0.029 0.057-0.057 0.083-0.112 0.197-0.169 0.421-0.197 0.59-0.029s0.169 0.392 0 0.59c-0.616 0.673-1.177 1.431-1.486 2.299-0.223 0.616-0.364 1.262-0.561 1.907-0.057 0.252-0.223 0.392-0.449 0.338-0.25 0.028-0.335-0.14-0.335-0.392z"/>
<path d="M16.032 20.253h-1.262c-0.478 0-0.644-0.197-0.561-0.644 0.169-1.122 0.364-2.216 0.561-3.338 0.029-0.223 0.029-0.364-0.169-0.533-0.756-0.644-0.982-1.709-0.561-2.637 0.392-0.842 1.346-1.403 2.271-1.291 0.982 0.112 1.795 0.842 1.964 1.85 0.14 0.813-0.112 1.543-0.756 2.104-0.169 0.14-0.197 0.281-0.169 0.478 0.197 1.122 0.364 2.244 0.561 3.364 0.083 0.449-0.083 0.644-0.561 0.644l-1.317 0.002z"/>
</svg>
