<svg xmlns="http://www.w3.org/2000/svg" width="200" height="200" fill="#000000"><path fill-opacity=".22" fill-rule="evenodd" d="M98.75 10.706c1.237.238 2.25.861 2.25 1.383 0 .912-2.064.715-6.637-.633-1.176-.347-2.427-.161-2.782.413s-1.231.819-1.946.544c-.722-.277-1.302.188-1.302 1.044 0 1.782 1.477 1.946 5.102.568 1.667-.634 2.565-.634 2.565 0 0 .536-.75.975-1.667.975-.916 0-1.393.273-1.06.606.334.334-.251 1.527-1.298 2.652-1.476 1.584-2.216 1.787-3.282.902-.757-.628-1.659-.861-2.003-.517s-2.306.811-4.36 1.037c-2.055.227-4.207.771-4.783 1.211-.576.439-1.936 1.118-3.023 1.509-1.769.636-1.724.416.427-2.094 1.322-1.544-.182-.226-3.342 2.928-3.461 3.453-5.459 6.199-5.023 6.904.422.684.292.904-.315.53-1.561-.965-7.888 11.857-9.693 19.644-1.921 8.291-1.989 22.944-.146 31.536C59.59 96.575 70.171 111.268 82 117.352l5.5 2.829-4.766-4.66c-2.621-2.564-4.51-5.074-4.198-5.579.312-.506-.018-.704-.734-.441s-3.879-1.88-7.028-4.761l-5.726-5.24 4.499-5c2.475-2.75 5.849-6.652 7.497-8.67l2.998-3.67-4-2.83c-2.2-1.557-4.009-3.65-4.021-4.651-.031-2.641-2.457-4.667-5.7-4.76l-2.821-.081 2.579-1.169c2.239-1.014 2.476-1.553 1.796-4.071-.431-1.595-.426-3.62.01-4.5.461-.928.239-2.646-.531-4.098-.976-1.842-1.328-2.041-1.339-.758-.008.957-.952 2.307-2.098 3-1.146.692-3.051 3.058-4.233 5.258l-2.15 4-.369-3c-.379-3.088 1.289-14.308 3.049-20.5.547-1.925 2.121-5.25 3.496-7.388 3.067-4.767 4.261-3.538 3.811 3.922-.385 6.38.73 8.774 2.492 5.351 2.13-4.14 7.283-8.885 9.649-8.885 2.042 0 5.122 1.102 12.189 4.361 1.866.861 2.587.763 3.5-.476.632-.858 1.712-1.371 2.399-1.139 1.212.408 1.718-1.998 1.284-6.107-.361-3.409 2.411-1.108 3.542 2.941 1.384 4.955 3.027 5.233 11.681 1.975l6.707-2.524 3.531 3.531c2.806 2.806 3.654 3.214 4.125 1.985.327-.851 1.333-1.533 2.237-1.515 1.5.029 1.496.144-.049 1.317-1.261.959-1.643 2.616-1.5 6.51l.192 5.223 2.25-2.597c1.238-1.428 2.245-2.459 2.239-2.291s-.616 2.331-1.355 4.806c-.74 2.475-1.126 5.125-.86 5.889.281.803.038 1.113-.575.734-.584-.361-1.386-.129-1.784.515-.435.704-.292.904.358.502 1.345-.831 2.496 2.495 1.638 4.732-.349.909-.103 2.295.548 3.078.959 1.156.602 1.726-1.888 3.013-1.689.874-3.081 1.914-3.094 2.313-.013.398-1.588 2.461-3.5 4.584-1.912 2.124-3.477 4.433-3.477 5.132s3.143 4.072 6.984 7.494l6.984 6.222-12.234 11.892c-12.348 12.003-12.799 13.608-2.062 7.342 9.868-5.759 19.711-19.596 23.433-32.942 2.091-7.494 1.796-28.422-.506-36-5.845-19.237-22.59-35.833-36.156-35.833-2.395 0-4.123-.375-3.84-.834s-.974-.772-2.794-.697c-2.348.097-2.655.262-1.059.57m-1.33 3.211c-1.269 1.258 0 1.894 3.191 1.597 5.515-.513 6.968-2.672 1.551-2.306-2.376.161-4.51.48-4.742.709M83 15.059c0 .582-.419.8-.931.484a1.096 1.096 0 0 0-1.505.353c-.315.511.192.816 1.127.679C83.234 16.348 84.96 14 83.583 14c-.32 0-.583.477-.583 1.059m28.877.937c-.893.529-4.043 1.249-7 1.6-2.958.352-5.715.838-6.127 1.081-1.784 1.05-.457 2.114 3.405 2.732 2.285.365 4.63.958 5.213 1.318 1.976 1.222 14.632.86 14.632-.418 0-.655-.457-1.474-1.016-1.819-.559-.346-.787-1-.506-1.454.64-1.036-2.329-2.246-3.593-1.465-.514.318-.811.008-.66-.687.351-1.614-2.233-2.142-4.348-.888m-6.268 9.828c-.353.571-.154 1.339.441 1.707 1.486.918 2.012.188 1.021-1.417-.532-.859-1.047-.962-1.462-.29M122 29.406c0 .812.52 1.797 1.155 2.189q1.152.712.335-.61c-.594-.962-.362-1.15.846-.686 2.316.888 2.085-.003-.336-1.299-1.58-.846-2-.76-2 .406M65.079 51.583c.048 1.165.285 1.402.604.605.289-.722.253-1.585-.079-1.917s-.568.258-.525 1.312m76.047 3.917c.036 1.65.68 5.25 1.43 8l1.365 5-.535-6.473c-.567-6.851-2.381-12.093-2.26-6.527m-25.428 1.099c-.798 3.127-5.51 8.327-9.198 10.149-4.963 2.453-9.295 2.389-14.429-.212-4.415-2.238-5.179-3.104-6.423-7.288L84.236 54.5l-.732 3.767c-.856 4.401.75 9.097 3.856 11.273 1.147.803 1.647 1.467 1.113 1.475-.535.009-.322.427.473.931.886.56 2.241.533 3.5-.071 1.859-.892 1.892-.854.347.399-1.565 1.268-1.574 1.517-.107 2.984s1.818 1.462 4.207-.062c2.462-1.569 2.53-1.565 1.235.071-1.237 1.561-1.088 1.731 1.5 1.711 1.579-.012 3.997-.902 5.372-1.978 3.374-2.639 4.753-2.515 2.405.216l-1.905 2.216 2.5-1.588c1.375-.873 2.484-2.208 2.465-2.966s1.467-3.55 3.304-6.205c2.716-3.927 3.281-5.606 3.029-9-.307-4.143-.315-4.151-1.1-1.074M74 55.43c0 .275.9.981 2 1.57s2 .845 2 .57-.9-.981-2-1.57-2-.845-2-.57m5 2.948c0 .207.787.995 1.75 1.75 1.586 1.243 1.621 1.208.378-.378C79.821 58.084 79 57.555 79 58.378M71.5 63c.995 1.1 2.035 2 2.31 2s-.315-.9-1.31-2-2.035-2-2.31-2 .315.9 1.31 2m50.5 3c-.825.533-1.05.969-.5.969s1.675-.436 2.5-.969 1.05-.969.5-.969-1.675.436-2.5.969m-15 5.393c0 .216.698.661 1.552.989.89.341 1.291.173.941-.393-.587-.951-2.493-1.406-2.493-.596m30.144 3.357c-1.091 2.55-1.066 2.609.34.809.834-1.068 1.516-2.305 1.516-2.75 0-1.52-.678-.81-1.856 1.941M88 73.956c0 .536.9 1.455 2 2.044s2 .713 2 .276-.9-1.357-2-2.044c-1.108-.692-2-.815-2-.276M140.232 77c0 1.925.206 2.713.457 1.75.252-.963.252-2.537 0-3.5-.251-.963-.457-.175-.457 1.75m-46.153 9.128c-.043.895.708 2.245 1.671 3 1.521 1.192 1.604 1.175.634-.128-.613-.825-1.365-2.175-1.671-3-.464-1.255-.568-1.234-.634.128M90.232 88c.687 1.1 1.577 2 1.977 2s.475.787.165 1.75c-.45 1.399-.36 1.465.448.327.719-1.013.53-2.085-.656-3.719-2.049-2.823-3.66-3.121-1.934-.358m14.689 2.724c-1.332 1.493-1.634 2.111-.671 1.373s1.764-.949 1.78-.469c.017.479.508.051 1.092-.953 1.704-2.93.428-2.901-2.201.049M97 93.387c0 .212 1.326.581 2.947.819 1.621.237 2.72.064 2.441-.387-.495-.802-5.388-1.194-5.388-.432m-4 1.157c0 .116.6.709 1.333 1.318.997.827 1.334.773 1.334-.211 0-.725-.6-1.318-1.334-1.318-.733 0-1.333.095-1.333.211m5.269 3.149c.973.254 2.323.237 3-.037s-.119-.481-1.769-.461-2.204.244-1.231.498M101 116.059c0 .582-.562.73-1.25.328s-.393.247.655 1.441c1.048 1.195 2.15 2.172 2.45 2.172s.04-.505-.577-1.122-.884-1.742-.593-2.5.256-1.378-.078-1.378-.607.477-.607 1.059M9.302 152.501c-2.9 2.032-3.896 6.944-1.995 9.845.816 1.246 3.345 2.879 5.619 3.629 5.326 1.758 3.936 3.932-1.455 2.277-3.388-1.039-3.633-.957-4.584 1.545-1.348 3.546.954 5.203 7.232 5.203 3.925 0 5.091-.451 6.808-2.635 2.133-2.711 2.679-6.861 1.208-9.181-.459-.724-2.574-1.914-4.7-2.645-5.521-1.898-5.916-4.031-.589-3.18 3.834.613 4.156.481 4.768-1.958.436-1.735.19-2.911-.729-3.493-2.215-1.403-9.247-1.043-11.583.593M25 162.937V175h3.5c3.481 0 3.5-.024 3.5-4.5 0-4.133.204-4.5 2.5-4.5s2.5.367 2.5 4.5c0 4.476.019 4.5 3.5 4.5H44v-24h-3.5c-3.417 0-3.5.095-3.5 4 0 3.574-.26 4-2.44 4-2.097 0-2.483-.526-2.75-3.75-.283-3.424-.593-3.777-3.56-4.063l-3.25-.314zM47 163v12h15v-3.5c0-3.481-.024-3.5-4.5-3.5-2.475 0-4.5-.45-4.5-1s1.8-1 4-1c3.778 0 4-.167 4-3s-.222-3-4-3c-2.889 0-4-.417-4-1.5 0-1.111 1.167-1.5 4.5-1.5 4.333 0 4.5-.111 4.5-3v-3H47zm18 0v12h16v-7h-5c-2.75 0-5-.45-5-1s1.8-1 4-1c3.778 0 4-.167 4-3 0-2.844-.213-3-4.083-3-5.806 0-4.592-2.413 1.411-2.805 4.436-.289 4.672-.453 4.672-3.25V151H65zm18 0v12h3.5c3.222 0 3.5-.238 3.5-3 0-1.65.34-3 .756-3s1.353 1.35 2.084 3c1.101 2.489 1.91 3 4.744 3 3.941 0 4.095-.45 1.499-4.388-1.872-2.84-1.872-2.922.007-4.938 3.699-3.971 1.75-11.837-3.377-13.624-1.656-.578-5.194-1.05-7.862-1.05H83zm19-8.5c0 3.067.31 3.5 2.5 3.5 2.471 0 2.5.1 2.5 8.5v8.5h7v-8.5c0-8.4.029-8.5 2.5-8.5 2.19 0 2.5-.433 2.5-3.5V151h-17zm23.302-2.488c-2.981 1.2-5.302 6.018-5.302 11.004 0 7.531 3.911 11.926 10.646 11.962 3.509.019 4.624-.522 7.25-3.513 2.502-2.848 3.104-4.42 3.104-8.096 0-9.55-7.218-14.772-15.698-11.357M143 163v12h3.5c3.188 0 3.5-.256 3.5-2.872 0-2.571.414-2.939 3.945-3.503 2.436-.39 4.541-1.48 5.5-2.851 1.588-2.266 2.049-7.322.934-10.229-1.021-2.661-5.926-4.545-11.829-4.545H143zm20 0v12h7v-24h-7zm15.511-10.814C173.087 167.198 171 173.272 171 174.05c0 .522 1.32.95 2.933.95 2.054 0 3.122-.599 3.567-2 .491-1.546 1.513-2 4.5-2s4.009.454 4.5 2c.468 1.475 1.513 2 3.982 2h3.347l-2.97-8.25c-1.634-4.537-3.508-9.825-4.165-11.75-.995-2.917-1.736-3.552-4.451-3.814-2.022-.195-3.437.184-3.732 1m-50.099 5.565c-1.675 1.154-2.381 5.199-1.371 7.856 1.3 3.419 5.666 3.295 6.994-.199 1.726-4.541-2.261-9.971-5.623-7.657M90 160.573c0 3.283 3.345 2.991 3.82-.333.242-1.701-.179-2.24-1.75-2.24-1.557 0-2.07.638-2.07 2.573m60-.073c0 2.787 2.065 3.331 3.964 1.044 1.512-1.823.53-3.544-2.023-3.544-1.404 0-1.941.692-1.941 2.5m31.484 1.793c-.789 1.936-.173 3.131 1.319 2.561.511-.195.587-1.254.17-2.354-.707-1.865-.808-1.879-1.489-.207"/><path fill-opacity=".165" fill-rule="evenodd" d="M91 13.078c-1.156.841-.755.962 1.75.531 1.827-.314 3.25-.132 3.25.416 0 .536-.787.982-1.75.99-1.186.011-1.364.261-.552.777.82.522.269 1.384-1.747 2.735-1.62 1.085-2.947 2.31-2.948 2.723-.002.413-.501.75-1.11.75s-.848-.675-.531-1.5c.356-.93-.005-1.5-.952-1.5-.841 0-1.266.423-.947.941.345.558-.848.708-2.932.37-2.133-.346-4.102-.082-5.01.671-.822.683-2.171.983-2.996.666s-1.394-.255-1.263.138-.03.714-.358.714c-1.056 0-3.938 2.739-6.147 5.842-1.309 1.837-1.584 2.719-.704 2.252.796-.422.453.059-.763 1.069-2.94 2.444-7.022 11.93-8.828 20.516-5.643 26.825 5.356 54.582 25.874 65.293l5.164 2.695-5.68-5.333A781 781 0 0 0 70.557 104.5l-5.582-5 7.376-8.536 7.375-8.536-3.863-2.906C73.696 77.892 72 75.761 72 74.668c0-2.409-2.738-4.594-5.809-4.636-1.279-.018-2.033-.478-1.691-1.032.34-.55 1.468-1 2.507-1 1.666 0 1.765-.355.839-3.013-.578-1.656-.808-3.643-.512-4.415.296-.771.196-2.678-.223-4.237l-.762-2.835-.693 2.75c-.382 1.513-1.278 2.75-1.991 2.75s-2.308 1.8-3.545 4c-1.236 2.2-2.579 4-2.983 4-2.041 0 2.38-23.331 5.423-28.618 1.303-2.265 2.086-4.403 1.738-4.75s.088-.632.968-.632c2.009 0 2.75 2.366 2.355 7.521-.169 2.212.004 4.909.384 5.993.614 1.749.894 1.581 2.479-1.483 1.776-3.434 5.463-6.986 8.436-8.127.854-.328 4.647.68 8.428 2.24 7.105 2.93 8.641 2.938 8.667.047.013-1.432.158-1.466.947-.219.796 1.259 1.027 1.22 1.598-.267.367-.956.449-2.878.183-4.27-.732-3.828 2.501-2.701 3.808 1.328 1.711 5.273 2.694 5.736 8.138 3.831 11.021-3.856 10.255-3.85 13.993-.112 2.584 2.584 3.555 3.065 3.975 1.968.626-1.63 3.343-1.997 3.343-.45 0 .55-.725 1-1.611 1-1.327 0-1.481.661-.87 3.75.408 2.063.758 4.313.778 5 .054 1.849.475 1.552 2.131-1.5 1.782-3.285 2.14-.874.508 3.419-.586 1.54-1.134 5.663-1.218 9.164-.14 5.807.063 6.483 2.315 7.73l2.467 1.366-3.25.036c-1.787.019-4.037.844-5 1.834-3.935 4.044-8.25 9.591-8.256 10.612-.003.599 3.484 4.381 7.75 8.405s7.261 7.076 6.655 6.783c-1.199-.58-23.817 20.316-22.94 21.193 1.149 1.149 11.728-5.247 15.963-9.651 6.488-6.747 8.279-9.277 11.619-16.416 8.148-17.41 7.837-38.484-.831-56.494-3.895-8.092-12.504-17.849-18.21-20.64l-3.5-1.711 2.5 2.038c1.375 1.12 2.093 2.048 1.595 2.06s-.099.913.886 2.001c1.601 1.769 1.623 2.044.203 2.589-.874.335-1.947.393-2.386.128-.439-.264-2.598-.169-4.798.212-2.882.499-5.118.195-8-1.086-2.2-.978-5.013-1.788-6.25-1.8S98 20.539 98 19.975c0-1.453 4.479-2.972 8.815-2.99 2.027-.009 4.284-.395 5.016-.859 2.123-1.346-4.114-2.192-7.982-1.083-5.165 1.482-7.648 1.219-7.488-.793.164-2.062-3.141-2.785-5.361-1.172m14.526 12.881c-.359.58.07 1.333.954 1.672 2.2.844 2.884-.084 1.133-1.537-.985-.818-1.639-.86-2.087-.135M122 29.333c0 1.89.964 2.618 2.623 1.981 1.096-.42 1.161-.869.28-1.931-1.457-1.755-2.903-1.78-2.903-.05M129.5 34c.34.55 1.068 1 1.618 1s.722-.45.382-1-1.068-1-1.618-1-.722.45-.382 1m11.845 23.75c.329 2.612 1.009 6.55 1.512 8.75l.913 4 .115-4.11c.169-6.044-1.009-13.39-2.148-13.39-.6 0-.755 1.875-.392 4.75m-57.667-.462c-.958 3.635 1.108 10.449 3.723 12.281 1.124.787 1.606 1.438 1.072 1.446-.535.009-.339.417.436.908 1.658 1.049 4.329.271 3.526-1.028-.304-.492-.125-.895.399-.895s1.211.675 1.528 1.5c.403 1.051-.078 1.5-1.608 1.5-2.043 0-2.075.108-.505 1.677 1.434 1.434 2.08 1.494 4.454.412 2.678-1.22 2.708-1.315.846-2.677-1.062-.777-1.485-1.412-.94-1.412s1.525.534 2.177 1.186c.915.915.811 1.601-.455 3-1.549 1.713-1.478 1.813 1.264 1.792 1.598-.012 4.03-.902 5.405-1.978 3.342-2.614 4.778-2.527 2.405.146-1.892 2.13-1.89 2.137.289.994 1.207-.633 2.446-1.558 2.754-2.055.738-1.195-.404-4.085-1.614-4.085-.524 0-.674.45-.334 1s.169 1-.379 1-.931-.866-.852-1.924c.118-1.562.499-1.735 2.024-.919 1.033.553 1.985.856 2.116.674 3.49-4.85 4.584-7.033 4-7.979-.446-.722-.281-.891.436-.447.8.494 1.133-.459 1.084-3.096l-.07-3.809-1.829 4.111c-1.849 4.154-5.584 7.508-10.399 9.339-1.447.55-2.624 1.574-2.616 2.275.011.883.314.814.985-.225.704-1.09.974-1.142.985-.191.008.733.523.995 1.17.596.715-.443.883-.275.44.44-1.004 1.626-4.595 1.442-4.595-.236 0-1.216-2.094-1.88-8.75-2.774-.687-.093-1.25-.57-1.25-1.061 0-.49-.45-.614-1-.274s-1 .115-1-.5-.395-.874-.878-.575c-.483.298-1.238-.913-1.677-2.691L85.03 57l-.618-2.5zm53.711 16.962c-1.647 3.22-1.644 3.233.322 1.483 1.931-1.72 1.986-1.684 2.072 1.353.126 4.422 1.217 4.996 1.217.64 0-1.985-.533-3.937-1.184-4.339-.813-.503-.579-.969.75-1.489 1.651-.647 1.682-.768.21-.828-.98-.04-2.443 1.334-3.387 3.18M88 73.956c0 .536.9 1.455 2 2.044s2 .713 2 .276-.9-1.357-2-2.044c-1.108-.692-2-.815-2-.276m6.079 12.627c.048 1.165.285 1.402.604.605.289-.722.253-1.585-.079-1.917s-.568.258-.525 1.312m-3.515 1.71c.376.986.935 1.541 1.243 1.233s.001-1.114-.683-1.793c-.988-.98-1.102-.865-.56.56M105 90.813c-1.375 1.404-1.713 1.966-.75 1.248s1.764-.913 1.78-.433c.017.479.508.051 1.092-.953 1.612-2.772.667-2.71-2.122.138m-7.25 2.849c.688.278 1.813.278 2.5 0 .688-.277.125-.504-1.25-.504s-1.937.227-1.25.504m.519 4.031c.973.254 2.323.237 3-.037s-.119-.481-1.769-.461-2.204.244-1.231.498m1.344 19.49c.289.467.944.591 1.456.274 1.308-.808 1.161-1.124-.525-1.124-.801 0-1.22.383-.931.85M9.282 152.646c-5.102 4.306-3.374 10.835 3.468 13.108 2.338.777 4.25 1.874 4.25 2.439 0 .932-4.298.778-7.887-.283-.842-.249-1.692.674-2.166 2.35-.962 3.406 1.017 4.74 7.033 4.74 10.052 0 12.376-12.296 2.793-14.779-1.725-.447-3.34-1.422-3.588-2.166-.352-1.055.437-1.211 3.575-.709 3.736.597 4.073.455 4.682-1.969.84-3.348.555-3.575-5.181-4.126-3.673-.353-5.291-.03-6.979 1.395M25 163v12h3c2.889 0 3-.167 3-4.5s.111-4.5 3-4.5c2.895 0 3 .16 3 4.563 0 4.546.012 4.563 3.25 4.25l3.25-.313v-23l-3.25-.313c-3.238-.313-3.25-.296-3.25 4.25 0 4.403-.105 4.563-3 4.563-2.889 0-3-.167-3-4.5s-.111-4.5-3-4.5h-3zm22 0v12h15v-3c0-2.889-.167-3-4.5-3-3.333 0-4.5-.389-4.5-1.5 0-1.083 1.111-1.5 4-1.5 3.778 0 4-.167 4-3s-.222-3-4-3c-2.889 0-4-.417-4-1.5 0-1.111 1.167-1.5 4.5-1.5 4.333 0 4.5-.111 4.5-3v-3H47zm18 0v12h16v-3c0-2.933-.111-3-5-3-3.778 0-5-.367-5-1.5 0-1.083 1.111-1.5 4-1.5 3.778 0 4-.167 4-3s-.222-3-4-3c-2.889 0-4-.417-4-1.5 0-1.111 1.167-1.5 4.5-1.5 4.333 0 4.5-.111 4.5-3v-3H65zm18-.137V175h3.5c3.222 0 3.5-.238 3.5-3 0-1.65.395-3 .879-3 .483 0 1.438 1.35 2.121 3 1.034 2.496 1.81 3 4.621 3 1.859 0 3.379-.199 3.379-.443 0-.243-.944-2.043-2.099-4-1.154-1.956-1.676-3.557-1.16-3.557 1.278 0 3.259-4.553 3.259-7.491 0-1.319-1.027-3.592-2.282-5.051-1.926-2.238-3.334-2.738-9-3.193L83 150.726zM102 154c0 2.533.389 3 2.5 3 2.481 0 2.5.067 2.5 9v9h5.922l.289-8.75c.288-8.721.298-8.751 3.039-9.066 2.303-.265 2.75-.794 2.75-3.25V151h-17zm23.11-1.604c-3.321 1.84-5.033 5.35-5.075 10.404-.043 5.317 1.991 9.435 5.437 11.005 4.352 1.983 8.222 1.44 11.666-1.637 2.681-2.395 3.242-3.702 3.638-8.478.447-5.392.309-5.805-3.054-9.168-3.862-3.862-8.17-4.588-12.612-2.126M143 163v12h3.5c3.222 0 3.5-.238 3.5-3 0-2.358.439-3 2.05-3 2.832 0 7.579-2.59 8.329-4.545 1.049-2.735.629-7.86-.799-9.743-1.67-2.202-6.682-3.712-12.323-3.712H143zm20 0v12h7v-24h-7zm15.504-10.814c-1.599 4.357-7.504 21.929-7.504 22.331 0 .266 1.341.483 2.981.483 2.346 0 3.115-.533 3.608-2.5.531-2.116 1.21-2.5 4.411-2.5s3.88.384 4.411 2.5c.498 1.985 1.257 2.5 3.688 2.5 2.82 0 3.012-.215 2.447-2.75-.337-1.512-2.138-6.8-4.001-11.75-3.183-8.453-3.576-9.019-6.474-9.314-1.879-.191-3.273.2-3.567 1M90 160c0 2.459.383 3.073 1.75 2.81 1.104-.213 1.75-1.25 1.75-2.81s-.646-2.597-1.75-2.81c-1.367-.263-1.75.351-1.75 2.81m38.023-2.049c-.909.583-1.478 2.526-1.478 5.049 0 6.383 4.462 8.032 7.421 2.743 1.379-2.466 1.379-3.02 0-5.486q-2.52-4.505-5.943-2.306M150 160c0 2.349.441 3 2.031 3 2.518 0 3.612-2.521 1.958-4.513-2.072-2.496-3.989-1.769-3.989 1.513m30.71 3c-.381 1.457-.03 2 1.29 2s1.671-.543 1.29-2c-.288-1.1-.868-2-1.29-2s-1.002.9-1.29 2"/><path fill-opacity=".163" fill-rule="evenodd" d="M56.138 53.667c-1.429 7.117-1.463 18.619-.074 25.534 3.4 16.928 15.987 34.66 27.512 38.755 2.407.856 1.895.112-2.9-4.208a7130 7130 0 0 1-10.812-9.765l-4.987-4.516 7.283-8.373 7.282-8.373-3.721-3.216c-2.047-1.769-3.721-4.11-3.721-5.2C72 72.336 68.415 70 65.394 70c-.832 0-1.234-.45-.894-1s1.507-1 2.594-1c1.644 0 1.802-.325.941-1.934-.569-1.064-1.065-4.102-1.103-6.75-.059-4.201-.206-4.529-1.152-2.566-.597 1.237-1.617 2.25-2.266 2.25s-2.605 2.763-4.347 6.14c-2.738 5.309-3.166 5.75-3.161 3.25.005-2.792 1.144-10.418 2.56-17.14.407-1.934.284-3.25-.303-3.25-.543 0-1.499 2.55-2.125 5.667m77.117-1.447c-.66 2.354-1.301 6.701-1.425 9.66-.192 4.568.122 5.663 2.083 7.25l2.309 1.87-2.861-.001c-2.205 0-4.065 1.314-8.111 5.73-2.888 3.152-5.25 6.247-5.25 6.878s2.515 3.219 5.59 5.75c5.728 4.716 10.45 9.931 8.534 9.426-1.116-.295-23.499 20.175-22.813 20.862.596.595 7.779-2.839 11.702-5.595 3.356-2.358 5.406-4.722 5.461-6.3.014-.412.476-.788 1.026-.835 1.819-.155 3.599-2.214 3.081-3.563-.28-.731.037-1.221.705-1.09 1.953.383 8.505-14.084 10.177-22.47 1.566-7.852 1.847-18.884.619-24.292-.374-1.65-.572 1.588-.439 7.196.197 8.332-.012 10.1-1.14 9.667-.771-.296-2.733.944-4.437 2.803L135.01 78.5l1.516-3.145c1.514-3.141 3.088-4.888 4.974-5.52 1.127-.378 1.105-1.565-.203-11.029-.51-3.682-.591-6.487-.181-6.234s1.065-.056 1.455-.687c.835-1.351-1.997-3.191-5.594-3.634-2.206-.271-2.674.228-3.722 3.969M83.78 57.489c-.327 1.645-.094 3.895.518 5 .611 1.106 1.007 2.706.879 3.556-.281 1.859 3.799 5.622 6.095 5.622.902 0 1.427-.344 1.168-.765-.26-.42-.015-1.046.544-1.392S94 69.471 94 70.191c0 .788 1.195 1.309 3 1.309 1.65 0 3-.338 3-.75s-.227-.745-.505-.739c-.277.007-2.094-.652-4.037-1.464s-3.293-1.089-3.001-.616-.164 1.126-1.015 1.453c-.885.34-1.285.171-.935-.395.336-.544.134-.989-.448-.989s-1.073-.787-1.091-1.75c-.03-1.64-.112-1.644-1.323-.051-1.141 1.502-1.297 1.328-1.346-1.5-.031-1.759-.477-4.774-.991-6.699l-.935-3.5zm31.553 2.011c0 .825.375 1.5.834 1.5s.833-.675.833-1.5-.375-1.5-.833-1.5c-.459 0-.834.675-.834 1.5m-5.833 5.632c-4.152 3.109-5.447 4.868-3.583 4.868.596 0 1.083-.45 1.083-1s.705-1 1.567-1c1.164 0 1.39.58.877 2.25-.483 1.571.273 1.05 2.503-1.726 1.757-2.187 2.71-4.138 2.117-4.336-.592-.197-.822-.77-.511-1.273.831-1.345.359-1.087-4.053 2.217m-5.01 6.884c-.346.559-1.016.777-1.49.484s-2.084.6-3.577 1.984L96.708 77l2.396-.004c3.02-.004 9.199-3.697 8.386-5.011-.787-1.274-2.203-1.259-3 .031M88 73.378c0 .207.787.995 1.75 1.75 1.586 1.243 1.621 1.208.378-.378C88.821 73.084 88 72.555 88 73.378m4 .545c0 1.489 3.06 2.115 5.072 1.038 2.642-1.413 2.461-1.617-1.572-1.769-1.925-.072-3.5.257-3.5.731m15.405 1.219c-1.898 2.134-1.897 2.136.345.759 1.237-.76 2.25-1.724 2.25-2.142 0-1.205-.557-.909-2.595 1.383m32.48.108c-.235 2.548.316 5.279 1.261 6.25.635.653.728.357.268-.851-.425-1.116-.193-2.168.586-2.649.71-.439 1.015-1.519.677-2.399-.728-1.897-2.628-2.136-2.792-.351m-.723 10.293c-1.675 3.677-1.355 4.462.456 1.119.846-1.562 1.351-3.026 1.123-3.255-.229-.228-.939.733-1.579 2.136M10 152.232c-2.049 1.079-2.555 2.179-2.807 6.104l-.308 4.788 5.058 2.136c2.781 1.175 5.057 2.547 5.057 3.048 0 .831-4.497.604-7.887-.398-.832-.246-1.685.647-2.134 2.232-.624 2.203-.344 2.826 1.683 3.75 4.208 1.917 9.183 1.354 11.883-1.347 4.452-4.451 2.77-9.641-3.863-11.921-4.858-1.671-4.72-3.147.286-3.043 3.336.07 3.989-.272 4.515-2.368.338-1.347.39-2.674.115-2.948-1.215-1.216-9.306-1.238-11.598-.033m115.493-.12c-6.902 3.359-7.268 17.227-.56 21.189 5.613 3.316 11.534 1.563 14.573-4.312 5.197-10.051-4.368-21.571-14.013-16.877M25 163.5V175h3c2.889 0 3-.167 3-4.5s.111-4.5 3-4.5 3 .167 3 4.5.111 4.5 3 4.5h3v-23h-3c-2.833 0-3 .222-3 4s-.167 4-3 4-3-.222-3-4-.167-4-3-4h-3zm22 0V175h15v-3c0-2.889-.167-3-4.5-3-3.833 0-4.5-.296-4.5-2 0-1.667.667-2 4-2 3.6 0 4-.25 4-2.5s-.4-2.5-4-2.5c-2.889 0-4-.417-4-1.5 0-1.111 1.167-1.5 4.5-1.5 4.133 0 4.5-.204 4.5-2.5 0-2.444-.167-2.5-7.5-2.5H47zm18 0V175h16v-3c0-2.933-.111-3-5-3-4.333 0-5-.267-5-2 0-1.667.667-2 4-2 3.6 0 4-.25 4-2.5s-.4-2.5-4-2.5c-2.889 0-4-.417-4-1.5 0-1.111 1.167-1.5 4.5-1.5 4.133 0 4.5-.204 4.5-2.5 0-2.444-.167-2.5-7.5-2.5H65zm18 0V175h3c2.653 0 3-.34 3-2.941 0-4.315 1.522-4.534 3.868-.558 1.638 2.776 2.691 3.499 5.098 3.499 3.583 0 3.592-.034 1.093-4.143-1.921-3.159-1.921-3.217 0-5.659 2.517-3.2 2.467-7.26-.132-10.563-1.882-2.394-2.707-2.635-9-2.635H83zm19-9c0 2 .5 2.5 2.5 2.5 2.481 0 2.5.067 2.5 9v9h6v-18h3c2.533 0 3-.389 3-2.5 0-2.471-.1-2.5-8.5-2.5s-8.5.029-8.5 2.5m41 9V175h3.5c3.192 0 3.5-.254 3.5-2.889 0-2.51.459-2.975 3.504-3.546 6.387-1.198 9.341-7.192 6.346-12.881-1.726-3.279-2.752-3.652-10.1-3.669L143 152zm20 0V175h7v-23h-7zm15.669-10.75c-.472.789-7.669 21.365-7.669 21.925 0 .179 1.341.325 2.981.325 2.346 0 3.115-.533 3.608-2.5.535-2.128 1.204-2.5 4.5-2.5s3.966.372 4.5 2.5c.489 1.946 1.269 2.5 3.519 2.5 1.591 0 2.898-.338 2.904-.75.007-.412-1.68-5.588-3.749-11.5-3.721-10.636-3.795-10.75-6.953-10.75-1.756 0-3.394.338-3.641.75M89 160c0 2.222.467 3 1.8 3 .99 0 2.319-.519 2.953-1.153 1.602-1.602-.265-4.847-2.788-4.847-1.517 0-1.965.685-1.965 3m37.944-.895c-3.072 5.74 2.394 12.666 6.244 7.911 2.221-2.743 2.292-4.886.255-7.793-1.963-2.804-5.032-2.859-6.499-.118m23.056.965c0 2.607.337 3.021 2.24 2.75 2.559-.366 3.63-3.653 1.608-4.935-2.581-1.636-3.848-.917-3.848 2.185m31.221 1.93c-.756 1.939-.648 2.576.48 2.838 2.11.491 2.462-.238 1.418-2.943l-.923-2.395z"/><path fill-opacity=".115" fill-rule="evenodd" d="M56.609 79.5c1.686 15.043 14.982 34.062 26.895 38.471 2.491.922 2.01.218-2.859-4.181a4474 4474 0 0 1-10.929-9.909l-5.072-4.618 4.097-4.382c2.253-2.409 5.51-6.164 7.237-8.343l3.14-3.962-4.102-3.788C71.15 75.219 70.54 75 64.457 75c-6 0-6.464.159-6.557 2.25-.096 2.172-.13 2.163-.976-.25-.616-1.759-.71-1.017-.315 2.5M98 76.218c0 1.077 2.187.955 4-.223 1.149-.747.856-.926-1.25-.767-1.513.115-2.75.56-2.75.99m25.608 2.671c-4.538 4.648-4.243 5.666 3.358 11.611 5.705 4.462 8.932 8.5 6.793 8.5-1.399 0-23.088 20.005-22.416 20.676 1.36 1.36 18-9.647 17.383-11.499-.124-.372.042-.677.37-.677 1.505 0 3.94-2.964 3.461-4.212-.294-.766-.107-1.128.415-.806 2.112 1.306 8.767-13.244 10.651-23.285.651-3.474.601-3.564-1.067-1.896-.962.963-1.524 2.339-1.248 3.059s-.362 3.071-1.419 5.225-1.646 3.015-1.309 1.915.707-2.549.821-3.221.484-1.497.822-1.835.145-1.96-.429-3.605c-.744-2.134-1.351-2.682-2.118-1.915-1.572 1.572-2.981 1.314-2.314-.424.456-1.189-.31-1.5-3.69-1.5-3.639 0-4.824.572-8.064 3.889m-113.38 73.287c-2.52 1.275-3.552 4.122-3.056 8.43.27 2.349 1.109 3.136 4.784 4.489 6.333 2.331 6.706 4.405.641 3.573-4.214-.577-4.754-.421-5.513 1.596-1.047 2.782 1.727 4.659 6.916 4.678 4.389.017 7.787-2.546 8.542-6.442.753-3.879-1.018-6.212-6.02-7.931-5.811-1.998-5.947-3.99-.229-3.345 4.21.474 4.604.324 5.18-1.973.343-1.368.454-2.657.247-2.865-1.056-1.055-9.515-1.21-11.492-.21m115.695-.071c-2.968 1.09-5.923 6.568-5.923 10.979 0 6.244 4.882 11.916 10.258 11.916 8.528 0 13.574-10.843 8.738-18.775-2.901-4.758-7.442-6.189-13.073-4.12M25 163v11h3c2.833 0 3-.222 3-4s.167-4 3-4 3 .222 3 4 .167 4 3 4h3v-22h-3c-2.833 0-3 .222-3 4s-.167 4-3 4-3-.222-3-4-.167-4-3-4h-3zm22 0v11h7.5c7.333 0 7.5-.056 7.5-2.5 0-2.296-.367-2.5-4.5-2.5-3.833 0-4.5-.296-4.5-2 0-1.667.667-2 4-2 3.6 0 4-.25 4-2.5s-.4-2.5-4-2.5c-2.889 0-4-.417-4-1.5 0-1.111 1.167-1.5 4.5-1.5 4.133 0 4.5-.204 4.5-2.5 0-2.444-.167-2.5-7.5-2.5H47zm18 0v11h8c7.867 0 8-.042 8-2.5 0-2.333-.333-2.5-5-2.5-4.333 0-5-.267-5-2 0-1.667.667-2 4-2 3.6 0 4-.25 4-2.5s-.4-2.5-4-2.5c-2.889 0-4-.417-4-1.5 0-1.111 1.167-1.5 4.5-1.5 4.133 0 4.5-.204 4.5-2.5 0-2.444-.167-2.5-7.5-2.5H65zm18 0v11h3c2.667 0 3-.333 3-3 0-1.772.524-3 1.281-3 .704 0 1.79 1.35 2.413 3 .967 2.562 1.654 3 4.704 3h3.573l-1.911-3.142c-1.891-3.11-1.89-3.169.153-5.932 1.548-2.095 1.901-3.604 1.414-6.043-1.128-5.636-3.081-6.883-10.782-6.883H83zm19-8.5c0 2 .5 2.5 2.5 2.5 2.471 0 2.5.1 2.5 8.5v8.5h6v-17h3c2.533 0 3-.389 3-2.5 0-2.471-.1-2.5-8.5-2.5s-8.5.029-8.5 2.5m42 8.5v11h3c2.493 0 3-.402 3-2.381 0-1.974.741-2.568 4.326-3.471 5.96-1.501 8.399-7.003 5.524-12.464-1.711-3.251-2.76-3.652-9.6-3.669L144 152zm19 0v11h7v-22h-7zm15.5-9.75a4589 4589 0 0 1-3.926 11l-3.488 9.75h3.051c2.209 0 3.194-.551 3.573-2 .408-1.559 1.364-2 4.339-2 2.938 0 3.962.46 4.451 2 .439 1.383 1.513 2 3.481 2 3.237 0 3.359 1.111-1.458-13.25-2.904-8.657-2.97-8.75-6.261-8.75-1.828 0-3.522.563-3.762 1.25M89 160c0 2.498.401 3 2.393 3 2.758 0 4.172-2.614 2.502-4.627-.627-.755-1.985-1.373-3.017-1.373-1.42 0-1.878.732-1.878 3m38.035-1.066c-2.262 4.227-.244 10.066 3.48 10.066 1.843 0 4.485-3.918 4.485-6.651 0-4.669-5.932-7.212-7.965-3.415M150 160c0 2.683.327 3.093 2.25 2.82 1.648-.235 2.25-.989 2.25-2.82s-.602-2.585-2.25-2.82c-1.923-.273-2.25.137-2.25 2.82m31.157 1.707c-1.569 2.931-1.476 3.293.843 3.293 2.15 0 2.281-.42 1.087-3.478-.755-1.933-.799-1.928-1.93.185"/></svg>