<svg xmlns="http://www.w3.org/2000/svg" width="24" height="24" fill="#000000"><circle cx="12" cy="12" r="12" fill="#000000"/><path fill="#000000" fill-rule="evenodd" d="M13.571 8.082c-.618-1.252-2.4-1.26-3.03-.014L6.522 16.01a1.626 1.626 0 0 1-2.186.717.407.407 0 0 1-.179-.547l4.568-9.03c1.387-2.74 5.307-2.722 6.668.031l4.45 9.006c.099.202.016.445-.185.545a1.626 1.626 0 0 1-2.178-.738l-3.91-7.912Z" clip-rule="evenodd"/><path fill="#000000" d="M14.03 15.308a2.033 2.033 0 1 1-4.066 0 2.033 2.033 0 0 1 4.066 0Z"/></svg>