<svg xmlns="http://www.w3.org/2000/svg" xml:space="preserve" width="244.871" height="284.643" version="1.0" viewBox="18.001 -2.84 244.871 284.643" fill="#000000"><path d="M216.07 184.766c-.002-7.176-.002-14.312-.002-21.251M216.066 118.762V95.534a98.826 98.826 0 0 0-29.006-69.369c-17.853-17.887-42.75-29.02-70.026-29.006-27.277-.013-52.176 11.12-70.027 29.007-17.887 17.85-29.02 42.749-29.006 70.028h44.386c.01-15.163 6.081-28.683 16.005-38.644 9.959-9.924 23.479-15.994 38.642-16.007 15.161.013 28.68 6.083 38.641 16.007 9.753 9.789 15.788 23.019 16.001 37.864.004.26.004 186.388.004 186.388h44.389V229.52l-.003-110.758z"/><path d="M171.681 118.763h-46.804v44.753h46.802M262.87 118.763h-46.804v44.753h46.802M262.872 184.766h-46.804v44.754h46.802M171.681 184.762h-46.803v44.754h46.801"/></svg>