<!-- Generated by IcoMoon.io -->
<svg version="1.1" xmlns="http://www.w3.org/2000/svg" width="32" height="32" viewBox="0 0 32 32" fill="#000000">
<title>amp</title>
<path d="M15.204 15.962c0-1.463-1.186-2.65-2.65-2.65s-2.649 1.187-2.649 2.65c0 1.464 1.186 2.65 2.649 2.65s2.65-1.186 2.65-2.65z"/>
<path d="M20.722 13.312c-0.010 0-0.019 0.001-0.029 0.002l0.002-0.002c-2.067 0-3.742-1.675-3.742-3.742 0-1.463-1.187-2.65-2.65-2.65s-2.65 1.187-2.65 2.65c0 1.464 1.187 2.649 2.65 2.649 0.009 0 0.019-0.001 0.029-0.001l-0.001 0.001c2.067 0 3.742 1.676 3.742 3.742s-1.676 3.742-3.742 3.742c-1.463 0-2.65 1.186-2.65 2.649s1.187 2.65 2.65 2.65 2.649-1.186 2.649-2.65c0-2.067 1.676-3.742 3.742-3.742 1.463 0 2.65-1.187 2.65-2.649s-1.187-2.65-2.65-2.65z"/>
<path d="M15.984 0c-8.828 0-15.984 7.157-15.984 15.984s7.157 15.984 15.984 15.984 15.984-7.156 15.984-15.984c0-8.827-7.156-15.984-15.984-15.984zM15.984 28.113c-6.698 0-12.128-5.43-12.128-12.128s5.43-12.128 12.128-12.128c6.699 0 12.128 5.43 12.128 12.128s-5.43 12.128-12.128 12.128z"/>
</svg>
