<!-- Generated by IcoMoon.io -->
<svg version="1.1" xmlns="http://www.w3.org/2000/svg" width="32" height="32" viewBox="0 0 32 32" fill="#000000">
<title>ampl</title>
<path d="M15.489 5.398l-0.050-0.144-0.051 0.144-5.613 15.743c-0.002 0.003-0.004 0.008-0.007 0.014-0.006 0.013-0.015 0.031-0.025 0.055-0.022 0.047-0.052 0.116-0.087 0.201-0.070 0.17-0.158 0.407-0.231 0.671s-0.132 0.558-0.142 0.842c-0.010 0.284 0.028 0.562 0.153 0.793 0.137 0.253 0.374 0.444 0.647 0.588s0.587 0.244 0.883 0.313c0.295 0.069 0.574 0.108 0.779 0.129 0.102 0.011 0.187 0.017 0.245 0.021 0.015 0.001 0.029 0.002 0.041 0.002v0.991h-8.244v-0.998c0.008-0.002 0.017-0.003 0.027-0.006 0.045-0.009 0.111-0.024 0.193-0.043 0.163-0.039 0.39-0.098 0.645-0.181 0.508-0.165 1.132-0.424 1.58-0.801 0.45-0.378 0.83-1.019 1.097-1.561 0.134-0.272 0.24-0.52 0.313-0.701 0.036-0.090 0.064-0.164 0.083-0.215 0.009-0.025 0.017-0.045 0.022-0.059 0.002-0.007 0.004-0.012 0.005-0.015l0.001-0.004 0-0.001 7.998-20.644 1.090-0.256 7.514 20.904c0.001 0.004 0.003 0.009 0.005 0.015 0.004 0.013 0.011 0.033 0.020 0.059 0.017 0.051 0.044 0.124 0.077 0.215 0.068 0.181 0.167 0.429 0.293 0.701 0.252 0.542 0.615 1.184 1.056 1.562 0.414 0.355 1.056 0.614 1.589 0.784 0.267 0.085 0.509 0.149 0.684 0.191 0.088 0.021 0.158 0.037 0.208 0.047 0.010 0.002 0.020 0.004 0.028 0.006 0.002 0 0.004 0.001 0.005 0.001v0.998h-9.339v-0.996c0.013-0.002 0.028-0.004 0.045-0.007 0.058-0.009 0.141-0.023 0.243-0.042 0.202-0.038 0.476-0.096 0.763-0.178s0.586-0.188 0.839-0.322c0.252-0.133 0.466-0.298 0.569-0.501 0.086-0.17 0.088-0.419 0.052-0.687-0.037-0.27-0.116-0.571-0.205-0.85s-0.187-0.54-0.263-0.73c-0.038-0.095-0.071-0.173-0.094-0.227-0.012-0.027-0.021-0.048-0.027-0.062-0.003-0.007-0.006-0.013-0.007-0.016l-0.002-0.004-5.407-15.741z"/>
</svg>
