<!-- Generated by IcoMoon.io -->
<svg version="1.1" xmlns="http://www.w3.org/2000/svg" width="32" height="32" viewBox="0 0 32 32" fill="#000000">
<title>ankr</title>
<path d="M15.969 0l-13.857 8 2.956 1.7 10.901-6.282v-3.418z"/>
<path d="M15.969 0l-13.857 8 2.956 1.7 10.901-9.7z"/>
<path d="M15.969 0l13.857 8-2.956 1.7-10.901-6.282v-3.418z"/>
<path d="M15.969 0l13.857 8-2.956 1.7-10.901-9.7zM5.068 9.7v3.307h-2.956v-5.007l2.956 1.7z"/>
<path d="M5.068 13.007h-2.956v-5.007l2.956 5.007zM26.869 9.7v3.307h2.956v-5.007l-2.956 1.7z"/>
<path d="M26.869 13.007h2.956v-5.007l-2.956 5.007zM15.969 32l-13.857-8 2.956-1.7 10.901 6.282v3.418z"/>
<path d="M15.969 32l-13.857-8 2.956-1.7 10.901 9.7z"/>
<path d="M15.969 32l13.857-8-2.956-1.7-10.901 6.282v3.418z"/>
<path d="M15.969 32l13.857-8-2.956-1.7-10.901 9.7zM26.869 22.3v-3.307h2.956v5.007l-2.956-1.7z"/>
<path d="M26.869 22.3l2.956-3.307v5.007l-2.956-1.7zM5.068 22.3v-3.307h-2.956v5.007l2.956-1.7z"/>
<path d="M5.068 22.3l-2.956-3.307v5.007l2.956-1.7zM17.447 31.15v-10.088l-1.478 0.868-1.478-0.868v10.088l1.478 0.85 1.478-0.85z"/>
<path d="M15.969 9.349c-3.677 0-6.651 2.975-6.651 6.651s2.975 6.651 6.651 6.651 6.651-2.975 6.651-6.651-2.975-6.651-6.651-6.651zM15.969 19.695c-2.032 0-3.695-1.663-3.695-3.695s1.663-3.695 3.695-3.695c2.032 0 3.695 1.663 3.695 3.695s-1.663 3.695-3.695 3.695z"/>
</svg>
