<!-- Generated by IcoMoon.io -->
<svg version="1.1" xmlns="http://www.w3.org/2000/svg" width="32" height="32" viewBox="0 0 32 32" fill="#000000">
<title>api3</title>
<path d="M14.172 0.027c-0.207 0.032-0.826 0.146-1.375 0.254s-1.424 0.339-1.945 0.511c-0.52 0.173-1.504 0.599-2.185 0.947s-1.687 0.965-2.234 1.37c-0.547 0.406-1.357 1.099-1.799 1.542s-1.134 1.25-1.538 1.794-0.993 1.493-1.309 2.108c-0.317 0.615-0.744 1.598-0.95 2.185s-0.479 1.546-0.606 2.133c-0.173 0.795-0.232 1.593-0.232 3.137 0 1.541 0.059 2.342 0.231 3.132 0.127 0.584 0.372 1.487 0.545 2.007s0.599 1.504 0.947 2.185c0.348 0.682 0.965 1.687 1.37 2.234s1.099 1.357 1.542 1.799c0.442 0.442 1.25 1.134 1.794 1.538s1.493 0.993 2.108 1.309c0.615 0.317 1.598 0.744 2.185 0.95s1.546 0.479 2.133 0.606c0.795 0.173 1.593 0.232 3.137 0.232 1.541 0 2.341-0.059 3.132-0.231 0.584-0.127 1.487-0.372 2.007-0.545s1.504-0.599 2.185-0.947c0.682-0.348 1.687-0.965 2.234-1.37s1.357-1.099 1.799-1.542c0.442-0.442 1.134-1.249 1.538-1.794s0.993-1.493 1.309-2.108c0.317-0.615 0.744-1.598 0.95-2.185s0.479-1.546 0.606-2.133c0.173-0.795 0.232-1.593 0.232-3.137 0-1.541-0.059-2.341-0.231-3.132-0.127-0.584-0.372-1.487-0.545-2.007s-0.599-1.504-0.947-2.185c-0.348-0.682-0.965-1.687-1.37-2.234s-1.099-1.357-1.542-1.799c-0.442-0.442-1.249-1.134-1.794-1.538s-1.493-0.992-2.108-1.308c-0.615-0.316-1.542-0.726-2.059-0.912s-1.421-0.449-2.007-0.584c-0.722-0.167-1.674-0.261-2.948-0.293-1.035-0.026-2.051-0.021-2.258 0.011zM19.755 1.636c0.656 0.183 1.685 0.55 2.289 0.816s1.586 0.809 2.185 1.208c0.598 0.398 1.479 1.093 1.956 1.543s1.219 1.286 1.647 1.857c0.429 0.571 1.014 1.479 1.302 2.018s0.718 1.571 0.958 2.293c0.24 0.722 0.504 1.784 0.586 2.361 0.094 0.654 0.125 1.763 0.082 2.948-0.055 1.517-0.135 2.14-0.399 3.092-0.181 0.656-0.548 1.685-0.814 2.289s-0.809 1.586-1.208 2.185c-0.398 0.598-1.093 1.479-1.543 1.956s-1.286 1.219-1.857 1.647c-0.571 0.429-1.48 1.014-2.018 1.302s-1.571 0.718-2.293 0.958c-0.722 0.24-1.785 0.504-2.361 0.586-0.654 0.094-1.763 0.125-2.948 0.082-1.517-0.055-2.14-0.135-3.092-0.399-0.656-0.182-1.685-0.548-2.289-0.814s-1.586-0.809-2.185-1.208c-0.598-0.398-1.479-1.093-1.956-1.543s-1.219-1.286-1.647-1.857c-0.429-0.571-1.014-1.48-1.302-2.018s-0.718-1.571-0.958-2.293c-0.24-0.722-0.504-1.784-0.586-2.361-0.094-0.654-0.125-1.762-0.082-2.948 0.055-1.517 0.135-2.14 0.399-3.092 0.182-0.656 0.548-1.685 0.814-2.289s0.809-1.586 1.208-2.185c0.398-0.598 1.093-1.479 1.543-1.956s1.286-1.219 1.857-1.647c0.571-0.429 1.477-1.012 2.014-1.296s1.481-0.693 2.098-0.909c0.618-0.216 1.549-0.474 2.070-0.572 0.669-0.126 1.593-0.165 3.143-0.133 1.903 0.040 2.354 0.090 3.388 0.379zM15.050 4.933c-0.345 0.601-0.832 1.462-1.082 1.912s-1.16 2.062-2.021 3.58c-0.861 1.518-2.612 4.595-3.891 6.838s-2.471 4.332-2.651 4.642c-0.18 0.311-0.327 0.635-0.328 0.721-0.001 0.124 2.252 0.157 10.851 0.157 9.799 0 10.853-0.019 10.853-0.198 0-0.109-0.305-0.716-0.678-1.349s-2.044-3.522-3.713-6.42c-1.669-2.898-3.218-5.58-3.443-5.96s-0.967-1.664-1.648-2.854c-0.752-1.313-1.314-2.164-1.43-2.163-0.108 0-0.464 0.477-0.818 1.094zM17.166 16.103c-0.164 0.604-0.357 1.347-0.428 1.651s-0.161 0.604-0.199 0.666c-0.038 0.062-0.643-0.441-1.344-1.118s-1.289-1.262-1.308-1.301c-0.019-0.039 0.49-0.204 1.129-0.367s1.361-0.367 1.602-0.454c0.242-0.087 0.531-0.162 0.643-0.167 0.18-0.008 0.169 0.118-0.095 1.089z"/>
</svg>
