<svg xmlns="http://www.w3.org/2000/svg" width="64" height="64" version="1.1" fill="#000000"><path fill-opacity=".11" d="M 22.396 1.418 C 8.608 5.734, -0.932 19.892, 0.238 34.304 C 2.231 58.848, 29.168 71.981, 49.744 58.439 C 55.465 54.674, 61.543 46.540, 62.604 41.229 C 62.964 39.430, 63.650 37.716, 64.129 37.420 C 64.608 37.124, 65 34.182, 65 30.882 C 65 27.582, 64.605 25.126, 64.122 25.425 C 63.639 25.723, 62.953 24.512, 62.597 22.734 C 61.634 17.917, 55.658 9.549, 50.790 6.200 C 42.271 0.339, 31.590 -1.459, 22.396 1.418 M 25.081 19.828 C 21.551 26.247, 16.899 34.763, 14.744 38.750 L 10.826 46 14.688 46 L 18.550 46 24.871 34.500 C 28.347 28.175, 31.486 23.008, 31.846 23.017 C 32.600 23.037, 40 36.479, 40 37.829 C 40 38.323, 35.837 40.250, 30.750 42.113 L 21.500 45.500 36.389 45.778 C 44.578 45.930, 51.503 45.831, 51.777 45.556 C 52.235 45.098, 33.689 10.362, 32.167 8.828 C 31.800 8.458, 28.611 13.408, 25.081 19.828 M 0.320 32 C 0.320 35.575, 0.502 37.038, 0.723 35.250 C 0.945 33.462, 0.945 30.538, 0.723 28.750 C 0.502 26.962, 0.320 28.425, 0.320 32" stroke="none" fill="#000000" fill-rule="evenodd"/><path fill-opacity=".207" d="M 23.951 1.303 C 14.895 3.863, 6.679 11.040, 2.687 19.878 C -0.216 26.304, -0.205 37.720, 2.710 44.176 C 5.683 50.759, 12.247 57.484, 18.853 60.716 C 26.180 64.301, 36.966 64.546, 44.176 61.290 C 53.171 57.227, 63 45.257, 63 38.363 C 63 37.128, 63.450 35.840, 64 35.500 C 64.550 35.160, 65 33.082, 65 30.882 C 65 28.470, 64.603 27.127, 64 27.500 C 63.441 27.845, 63 27.076, 63 25.755 C 63 18.856, 53.208 6.749, 44.519 2.905 C 38.845 0.395, 29.684 -0.318, 23.951 1.303 M 21.104 26.407 C 15.547 36.531, 11 45.081, 11 45.407 C 11 45.733, 12.764 46, 14.919 46 L 18.838 46 25.306 34.357 L 31.774 22.714 35.826 30.052 C 38.054 34.087, 39.695 37.685, 39.472 38.046 C 39.248 38.407, 34.888 40.232, 29.783 42.101 L 20.500 45.500 28.750 45.790 C 33.287 45.950, 40.579 45.950, 44.954 45.790 L 52.908 45.500 42.704 26.774 C 37.092 16.475, 32.209 8.038, 31.854 8.024 C 31.499 8.011, 26.662 16.283, 21.104 26.407 M 0.272 32 C 0.272 34.475, 0.467 35.487, 0.706 34.250 C 0.944 33.013, 0.944 30.988, 0.706 29.750 C 0.467 28.512, 0.272 29.525, 0.272 32" stroke="none" fill="#000000" fill-rule="evenodd"/><path fill-opacity=".417" d="M 25.230 1.528 C 18.044 3.493, 14.580 5.420, 10 10 C 2.723 17.277, -0.769 27.854, 1.086 37 C 3.889 50.817, 12.605 59.635, 26.750 62.964 C 38.794 65.798, 53.574 58.448, 59.340 46.757 C 62.946 39.444, 65.604 29.997, 64.291 29.161 C 63.719 28.797, 62.921 26.925, 62.518 25 C 62.115 23.075, 60.611 19.314, 59.175 16.641 C 52.886 4.938, 37.618 -1.859, 25.230 1.528 M 20.758 26.281 L 10.223 45.500 31.258 45.770 C 42.827 45.919, 52.482 45.851, 52.713 45.620 C 53.203 45.131, 33.192 8.236, 32.056 7.534 C 31.636 7.275, 26.552 15.711, 20.758 26.281 M 25.793 34.260 C 22.677 39.870, 20.255 44.588, 20.410 44.743 C 20.659 44.992, 29.603 41.863, 37.150 38.885 L 39.801 37.840 36.328 31.670 C 34.418 28.276, 32.541 25.176, 32.157 24.779 C 31.773 24.383, 28.909 28.649, 25.793 34.260 M 0.158 32 C 0.158 33.375, 0.385 33.938, 0.662 33.250 C 0.940 32.563, 0.940 31.438, 0.662 30.750 C 0.385 30.063, 0.158 30.625, 0.158 32" stroke="none" fill="#000000" fill-rule="evenodd"/><path fill-opacity=".133" d="M 45.298 7.740 C 44.309 8.708, 42.259 10.594, 40.743 11.931 C 38.037 14.317, 37.956 14.326, 36.419 12.431 C 34.826 10.467, 41.674 23.775, 49.461 37.777 C 51.823 42.025, 53.559 45.837, 53.319 46.250 C 52.654 47.391, 10 47.178, 10 46.034 C 10 45.503, 11.616 42.128, 13.592 38.534 C 15.567 34.940, 16.929 32, 16.617 32 C 16.306 32, 15.315 33.462, 14.415 35.250 C 13.516 37.038, 11.209 40.140, 9.289 42.145 C 5.184 46.433, 5.355 47.788, 10.751 53.669 C 21.164 65.018, 37.077 66.282, 50.500 56.826 C 59.558 50.445, 64.983 36.943, 62.584 26.753 C 60.948 19.801, 58.682 15.646, 54.198 11.374 C 48.788 6.219, 47.422 5.662, 45.298 7.740 M 42.405 13.250 L 40.500 15.500 42.750 13.595 C 44.864 11.805, 45.455 11, 44.655 11 C 44.465 11, 43.453 12.012, 42.405 13.250 M 18.500 28 C 17.647 29.650, 17.174 31, 17.449 31 C 17.724 31, 18.647 29.650, 19.500 28 C 20.353 26.350, 20.826 25, 20.551 25 C 20.276 25, 19.353 26.350, 18.500 28 M 25.848 34.902 L 20.282 44.804 26.891 42.368 C 37.705 38.380, 39.089 37.760, 38.788 37.029 C 37.629 34.223, 32.393 25.004, 31.957 25.002 C 31.658 25.001, 28.909 29.456, 25.848 34.902" stroke="none" fill="#000000" fill-rule="evenodd"/></svg>