<svg xmlns="http://www.w3.org/2000/svg" width="40" height="40" fill="#000000"><g clip-path="url(#a)"><path fill="#000000" d="M30.929 13.357h-3.536c-.393 0-.786-.178-1.072-.464l-1.428-1.607c-.429-.464-1.107-.5-1.607-.107l-.107.107-1.215 1.393c-.393.464-1 .714-1.607.714H1.036A20.874 20.874 0 0 0 0 18.32h18.286c.321 0 .643-.142.857-.357l1.714-1.785c.214-.215.5-.357.822-.357h.071c.321 0 .643.142.857.392l1.429 1.608c.285.32.678.5 1.071.5H40a20.877 20.877 0 0 0-1.036-4.93H30.93v-.035Zm-11.715 9.857-1.428-1.607c-.429-.464-1.107-.5-1.607-.107l-.108.107L14.821 23a2.038 2.038 0 0 1-1.571.714H.286c.321 1.715.893 3.393 1.643 5h9.107c.321 0 .607-.142.857-.357l1.714-1.785c.214-.215.5-.358.822-.358h.071c.321 0 .643.143.857.393l1.429 1.607c.285.322.678.5 1.071.5h20.214a20.03 20.03 0 0 0 1.643-5H20.286c-.429 0-.822-.178-1.072-.5Zm7-15.571 1.715-1.786c.214-.214.5-.357.821-.357h.071c.322 0 .643.143.858.357l1.428 1.607a1.41 1.41 0 0 0 1.072.465h3.857C29.32-.93 16.714-2.68 7.82 4a20.465 20.465 0 0 0-3.928 3.929h21.464c.357.071.643-.072.857-.286Zm-13.821 26c-.429 0-.822-.179-1.072-.464L9.893 31.57a1.133 1.133 0 0 0-1.607-.071l-.072.072-1.25 1.392a2.038 2.038 0 0 1-1.571.715H5.32c7.536 8.071 20.286 8.464 28.393.857.322-.286.607-.607.929-.929h-22.25v.036Z"/></g><defs><clipPath id="a"><path fill="#000000" d="M0 0h40v40H0z"/></clipPath></defs></svg>