<svg xmlns="http://www.w3.org/2000/svg" width="200" height="200" fill="#000000"><path fill-opacity=".153" fill-rule="evenodd" d="M0 100.005V200.01l100.25-.255 100.25-.255.255-99.75L201.01 0H0zm.481.495c0 55 .121 77.647.269 50.326.148-27.32.148-72.32 0-100C.602 23.147.481 45.5.481 100.5M86 37.555C56.026 43.993 34.545 72.503 36.315 103.5c.521 9.123 4.016 22.306 6.128 23.117.604.231 11.625.3 24.491.152l23.393-.269-5.007-3.111c-15.349-9.538-17.965-29.804-5.515-42.724 5.146-5.34 10.59-7.909 18.195-8.586l6.5-.579 2.907-16.844c2.459-14.244 2.691-16.981 1.5-17.734-2.098-1.329-15.497-.958-22.907.633m23.693 35.085c-.352.352 1.035 1.523 3.083 2.603 9.242 4.87 14.525 13.816 14.507 24.568-.014 8.327-2.711 14.485-8.804 20.102-5.286 4.872-9.623 6.778-17.438 7.662l-5.951.673-.974 5.126C92.565 141.538 89 161.635 89 162.216c0 1.16 10.945 1.548 18.34.65 39.391-4.779 64.605-43.64 53.21-82.011-2.856-9.617-.541-8.855-26.919-8.855-12.813 0-23.586.288-23.938.64"/><path fill-opacity=".481" fill-rule="evenodd" d="M0 100.005V200.01l100.25-.255 100.25-.255.255-99.75L201.01 0H0zm.481.495c0 55 .121 77.647.269 50.326.148-27.32.148-72.32 0-100C.602 23.147.481 45.5.481 100.5m84.687-62.967c-11.218 2.435-20.652 7.88-30.204 17.431-9.817 9.818-15 19.001-17.593 31.171-2.164 10.16-1.373 25.1 1.795 33.865l2.348 6.5 24.243.268c15.953.176 24.243-.08 24.243-.75 0-.56-.61-1.018-1.356-1.018-2.742 0-10.265-6.888-12.989-11.893C65.495 94.441 79.063 72 100.508 72h4.146l2.986-17.25c2.052-11.852 2.654-17.48 1.923-17.985-1.747-1.207-17.593-.708-24.395.768M109 72.752c0 .413 2.094 1.862 4.653 3.22 8.333 4.421 13.36 13.436 13.325 23.9-.051 15.3-11.426 27.093-26.157 27.118l-5.679.01-1.036 5.25c-2.943 14.916-5.223 29.966-4.631 30.559 1.377 1.376 20.082.512 26.525-1.226 21.4-5.772 39.759-24.125 45.599-45.583 2.769-10.175 2.335-25.341-1.024-35.75L157.913 72h-24.457c-13.451 0-24.456.338-24.456.752"/><path fill-opacity=".492" fill-rule="evenodd" d="M0 100.005V200.01l100.25-.255 100.25-.255.255-99.75L201.01 0H0zm.481.495c0 55 .121 77.647.269 50.326.148-27.32.148-72.32 0-100C.602 23.147.481 45.5.481 100.5M84 37.6c-22.779 6.08-40.565 24.018-46.461 46.86-2.903 11.243-1.405 31.098 2.987 39.59l1.525 2.95h23.975c13.186 0 23.974-.395 23.974-.879 0-.483-1.333-1.43-2.962-2.105-5.142-2.13-11.731-10.153-13.59-16.547-4.987-17.153 6.571-33.425 24.959-35.143l6.325-.59 3.046-17.105c1.676-9.408 2.835-17.448 2.576-17.868-.819-1.324-20.612-.696-26.354.837m25 35.333c0 .513.966 1.239 2.146 1.613 3.737 1.186 11.07 8.768 13.496 13.954 4.129 8.829 2.937 19.963-2.967 27.703-5.036 6.603-11.284 9.964-19.631 10.562-5.301.379-7.103.892-7.448 2.118-1.553 5.527-5.789 33.257-5.174 33.871 1.509 1.509 20.93.677 27.078-1.159 18.247-5.45 32.373-17.042 40.329-33.095 5.083-10.256 6.588-16.871 6.597-29 .009-10.553-.44-13.068-4.149-23.25L157.728 72h-24.364c-14.402 0-24.364.381-24.364.933"/><path fill-opacity=".965" fill-rule="evenodd" d="M0 100.005V200.01l100.25-.255 100.25-.255.255-99.75L201.01 0H0zm.481.495c0 55 .121 77.647.269 50.326.148-27.32.148-72.32 0-100C.602 23.147.481 45.5.481 100.5M85 37.132c-12.726 3.46-25.124 10.841-33.049 19.676-5.456 6.083-12.97 20.453-14.843 28.385-.609 2.581-1.095 9.556-1.078 15.5.025 9.084.463 12.083 2.75 18.807l2.72 8h23.917c23.885 0 28.021-.612 22.163-3.282-4.327-1.971-10.312-8.12-12.652-12.997-3.357-6.997-3.195-16.111.417-23.494 4.494-9.185 12.126-14.18 23.481-15.367l6.011-.628 2.144-12.116c1.178-6.664 2.565-14.276 3.081-16.915.516-2.64.938-5.227.938-5.75 0-1.231-21.355-1.082-26 .181m24 35.848c0 .538 1.73 1.862 3.845 2.941 7.697 3.927 13.078 12.139 13.901 21.217.692 7.632-1.154 13.933-5.807 19.82-4.629 5.857-11.244 9.161-19.919 9.952l-6.48.59-2.93 17.257c-1.611 9.491-2.592 17.591-2.179 18 .412.409 5.546.717 11.409.686 17.547-.095 31.83-6.044 44.194-18.409 17.718-17.717 23.563-44.326 14.852-67.61L157.856 72h-24.428c-15.281 0-24.428.367-24.428.98"/></svg>