<svg xmlns="http://www.w3.org/2000/svg" width="24" height="24" fill="#000000"><circle cx="12" cy="12" r="12" fill="#000000"/><path fill="#000000" d="M9.015 7.613 8.249 9.94h4.431l-.766-2.326H9.015ZM7.151 13.27l1.968 1.45 1.367-4.19h-2.44l-.895 2.74ZM12.549 7.613l1.365 4.168 2.013-1.451-.89-2.717H12.55ZM13.975 15.343l-3.07-2.237-.504-.36-.77 2.338 2.332 1.699 2.012-1.44ZM14.482 14.984l2.41-1.735-.761-2.323-3.626 2.61 1.977 1.448ZM8.38 7.613H5.852l-2.23 6.798 2.046 1.473 2.714-8.27ZM6.962 13.865l-.775 2.373 5.795 4.187 1.97-1.423-6.99-5.137ZM14.83 6.998l-.77-2.348H6.824l-.77 2.348h8.776ZM17.4 12.877l1.993-1.433-2.231-6.794h-2.464l2.702 8.227ZM20.359 14.398l-.775-2.355-7.123 5.113 2.01 1.468 5.888-4.226Z"/></svg>