<svg width="500" height="647" viewBox="0 0 500 647" fill="#000000" xmlns="http://www.w3.org/2000/svg">
<path fill-rule="evenodd" clip-rule="evenodd" d="M239.067 10.2948C209.252 39.4605 136.958 84.3775 90.5674 102.559C66.5474 111.973 20.2424 125.875 12.9054 125.875C10.1894 125.875 9.47444 128.132 6.73244 145.36C0.330439 185.586 -1.42356 220.099 1.12044 255.771C12.5254 415.688 99.6604 555.63 241.245 641.422L249.923 646.68L258.745 641.39C280.737 628.201 305.515 610.544 326.567 593.058C341.798 580.406 373.747 548.516 386.184 533.549C451.328 455.156 487.558 368.906 498.247 266.763C500.181 248.28 499.891 196.356 497.745 176.835C495.87 159.778 491.464 132.044 490.03 128.277C489.486 126.848 488.308 125.875 487.119 125.875C483.564 125.875 454.849 118.188 438.492 112.858C408.618 103.123 381.246 91.0932 356.067 76.6327C310.592 50.5176 276.742 26.7326 258.593 8.14352C254.207 3.65111 250.382 -0.0129552 250.093 3.44311e-05C249.804 0.013024 244.842 4.64532 239.067 10.2948ZM257.567 27.0884C284.369 50.5286 337.788 84.7582 377.567 103.983C406.876 118.147 436.949 128.743 473.687 137.851L477.807 138.872L479.893 152.108C484.085 178.703 484.568 186.3 484.54 225.296C484.512 266.423 483.543 278.009 477.457 309.978L474.841 323.717H453.954C442.466 323.717 433.067 323.432 433.067 323.084C433.067 322.735 434.925 316.705 437.195 309.683C442.327 293.812 442.167 292.509 433.799 282.011C430.399 277.747 423.894 269.369 419.342 263.394L411.067 252.532L411.057 243.91C411.042 231.467 409.267 212.758 407.076 201.949C401.943 176.623 387.454 162.314 359.94 155.401C344.195 151.444 332.969 150.647 309.429 151.816C278.07 153.371 216.255 153.134 200.675 151.396C187.478 149.924 177.734 150.28 158.635 152.928C148.8 154.292 134.023 154.634 132.317 153.538C131.507 153.019 131.067 150.204 131.066 145.551C131.066 138.546 130.952 138.22 126.552 132.62C124.069 129.459 121.316 126.875 120.434 126.875C118.557 126.875 112.107 132.246 110.352 135.272C109.684 136.424 109.122 139.215 109.102 141.474L109.067 145.581L103.817 146.211C100.929 146.558 96.7084 146.846 94.4364 146.85C89.8674 146.86 90.7984 148.265 85.3874 133.181C83.9354 129.136 83.5614 128.741 82.6374 130.286C82.0484 131.268 79.5854 135.062 77.1634 138.716C72.2284 146.161 70.0674 150.781 70.0674 153.888C70.0674 155.041 68.8854 157.533 67.4414 159.425C65.1884 162.376 64.8834 163.581 65.2984 167.895C65.7504 172.591 65.5524 173.153 62.2934 176.409C59.0674 179.632 58.8504 180.231 59.4134 184.338C59.7484 186.781 61.4194 191.375 63.1274 194.547C65.9104 199.718 66.1664 200.904 65.6064 206.003C65.0354 211.195 65.1764 211.795 67.2184 212.887C68.4494 213.545 74.4314 214.44 80.5114 214.878C120.509 217.752 132.423 220.627 158.422 233.68C178.26 243.639 177.417 242.11 176.668 266.763C175.999 288.818 174.34 310.146 172.706 317.722L171.521 323.217L98.4044 323.473L25.2874 323.73L24.7424 321.475C23.0584 314.514 19.8494 295.248 18.1264 281.751C12.7744 239.834 13.7274 190.213 20.6794 148.857C21.5574 143.636 22.3984 139.233 22.5484 139.072C22.6984 138.91 29.7384 136.986 38.1944 134.796C69.5274 126.682 102.406 114.351 130.067 100.341C167.881 81.1881 219.456 47.581 242.465 27.0994C246.259 23.7221 249.634 20.9613 249.965 20.9623C250.296 20.9643 253.717 23.7211 257.567 27.0884ZM124.516 136.097C126.703 139.218 126.444 140.241 124.067 137.866C120.907 134.708 120.108 135.422 120.75 140.832C121.384 146.18 119.422 150.855 116.544 150.855C115.732 150.855 115.067 151.305 115.067 151.855C115.067 153.363 119.422 153.053 121.626 151.387C124.345 149.333 125.067 149.502 125.067 152.199C125.067 153.488 125.972 155.361 127.078 156.361C130.085 159.08 146.278 159.529 161.567 157.317C176.496 155.157 193.067 154.288 193.067 155.663C193.067 156.213 190.817 156.972 188.067 157.35C182.88 158.063 182.238 158.62 184.267 160.648C185.2 161.58 184.423 161.847 180.767 161.847C175.764 161.847 175.487 162.191 177.095 166.417C177.66 167.903 177.931 169.311 177.696 169.544C177.04 170.2 169.067 167.866 169.067 167.018C169.067 166.608 168.167 166.272 167.067 166.272C164.656 166.272 164.427 168.384 166.7 169.655C167.599 170.157 168.925 171.974 169.649 173.693L170.964 176.819L167.393 175.328C165.429 174.507 163.653 173.837 163.445 173.837C163.237 173.837 163.06 172.826 163.052 171.589C163.039 169.753 162.852 169.615 162.033 170.839C161.164 172.136 160.83 172.077 159.548 170.399C158.095 168.496 158.067 168.499 158.067 170.577C158.067 171.742 158.66 173.289 159.384 174.016C160.782 175.417 163.325 181.907 162.715 182.516C161.82 183.409 159.126 181.445 157.907 179.01C157.17 177.539 155.896 176.335 155.077 176.335C154.23 176.335 153.31 175.04 152.945 173.337C152.592 171.689 152.25 170.957 152.185 171.711C152.09 172.816 151.776 172.841 150.567 171.839C149.304 170.79 149.067 170.978 149.067 173.024C149.067 174.361 148.463 176.279 147.725 177.287C146.443 179.039 146.308 179.015 144.725 176.757C142.804 174.016 142.592 175.174 144.181 179.728C144.793 181.484 145.79 182.756 146.395 182.554C147 182.352 148.189 183.568 149.036 185.257C149.95 187.079 151.233 188.218 152.194 188.061C153.2 187.897 154.305 188.986 155.116 190.941C155.833 192.671 157.505 195.376 158.832 196.951C161.799 200.474 160.829 200.635 156.503 197.337L153.25 194.857L152.21 197.837C151.639 199.474 150.788 200.815 150.319 200.815C148.839 200.815 147.067 198.49 147.067 196.548C147.067 194.824 147.194 194.804 148.686 196.295C149.577 197.185 150.419 197.779 150.559 197.616C150.698 197.452 151.606 195.744 152.577 193.821L154.341 190.324L152.188 192.241C150.065 194.133 150.014 194.133 148.557 192.241C147.687 191.112 147.313 189.308 147.648 187.853C148.194 185.48 148.142 185.45 146.313 187.103C143.821 189.357 143.184 189.278 142.098 186.577L141.194 184.329L141.13 186.643C141.031 190.281 142.93 193.179 144.539 191.846C146.552 190.176 147.08 192.753 145.404 196.069C144.64 197.58 143.814 198.817 143.567 198.817C142.406 198.817 140.154 192.741 140.721 191.136C141.241 189.664 141.112 189.556 140.028 190.56C138.962 191.547 138.322 191.458 136.838 190.116C135.085 188.531 135.02 188.546 135.679 190.38C136.712 193.252 138.176 194.871 139.18 194.251C139.668 193.95 140.067 195.277 140.067 197.2C140.067 201.776 138.72 202.46 136.147 199.192C135.003 197.738 134.067 196.992 134.067 197.534C134.067 199.256 136.236 204.811 136.915 204.827C138.618 204.867 140.19 206.753 141.067 209.806L142.029 213.162L138.556 209.797C136.645 207.947 134.81 205.577 134.477 204.529C133.909 202.741 133.712 202.78 131.22 205.165C129.046 207.245 122.409 210.807 120.707 210.807C120.474 210.807 121.134 209.139 122.175 207.099C123.216 205.059 124.067 201.636 124.067 199.49V195.592L121.284 200.914C119.505 204.317 117.25 206.945 115.034 208.2L111.567 210.163L113.75 207.737C116.398 204.796 117.578 201.788 118.473 195.697C119.025 191.935 118.744 190.391 116.954 187.359C115.142 184.291 115.001 183.488 116.148 182.78C117.183 182.14 117.454 180.059 117.206 174.631C116.863 167.096 115.244 161.806 112.279 158.529C109.775 155.763 103.389 152.752 98.1474 151.865L93.5674 151.09L97.6684 150.973C108.725 150.656 119.021 158.367 123.303 170.172L125.176 175.336L124.596 171.006C123.884 165.683 119.813 157.445 116.276 154.17C114.011 152.073 113.621 150.855 113.513 145.547C113.271 133.643 119.216 128.537 124.516 136.097ZM85.6484 147.641C86.2874 151.633 86.2144 151.767 82.5634 153.29C80.5064 154.15 78.7034 154.852 78.5574 154.852C78.4104 154.852 79.3544 152.266 80.6554 149.107C81.9554 145.947 83.0444 142.687 83.0744 141.863C83.1704 139.187 84.9264 143.128 85.6484 147.641ZM104.083 156.714C107.539 158.56 111.876 164.369 110.686 165.558C110.345 165.898 108.379 164.826 106.317 163.174C98.8594 157.203 96.2054 156.791 92.4494 161.018C90.5874 163.115 90.5904 163.125 92.7514 161.992C95.8464 160.371 98.5994 160.573 100.195 162.538C100.949 163.468 101.055 163.922 100.43 163.548C99.1194 162.763 97.6134 164.363 96.6224 167.592C95.9804 169.683 96.2344 169.84 100.256 169.84C102.634 169.84 106.129 169.397 108.022 168.854C112.143 167.673 113.029 168.602 113.052 174.122C113.066 177.553 112.888 177.808 111.133 176.87C104.213 173.169 104.283 179.136 111.264 188.036C113.701 191.143 114.065 192.318 113.507 195.289C112.375 201.316 109.655 203.813 104.223 203.813C101.638 203.813 94.1954 205.186 87.6814 206.865C80.1874 208.796 74.7794 209.684 72.9534 209.284C67.4914 208.085 70.2854 205.209 76.8174 205.306C80.2484 205.357 81.0674 205.027 81.0674 203.592C81.0674 201.429 82.6344 201.244 83.4294 203.313C84.2074 205.341 86.3904 205.198 91.0674 202.814C93.2234 201.715 96.5324 200.815 98.4204 200.815C100.702 200.815 102.068 200.257 102.493 199.15C103.497 196.535 102.135 195.955 93.2564 195.215C85.3244 194.554 84.9334 194.618 84.3964 196.671C83.7564 199.114 82.0674 199.583 82.0674 197.318C82.0674 196.482 81.1764 195.819 80.0524 195.819C78.9444 195.819 76.3574 194.266 74.3024 192.367L70.5674 188.915L72.8174 187.314C74.0544 186.434 75.0674 185.034 75.0674 184.204C75.0674 182.984 75.6234 183.09 77.9654 184.755C80.0324 186.226 81.7214 186.646 83.8554 186.219C87.1564 185.56 96.3624 187.915 102.287 190.935C105.463 192.555 106.067 193.369 106.067 196.039C106.067 199.635 107.547 198.852 108.568 194.715C109.138 192.407 108.609 191.715 103.889 188.601C96.7884 183.917 91.7154 181.429 84.9334 179.306L79.2994 177.542L83.1834 171.538C85.4134 168.091 87.0674 164.304 87.0674 162.646C87.0674 160.911 88.0484 158.777 89.5224 157.305C92.5784 154.251 98.9854 153.991 104.083 156.714ZM354.657 158.865C364.447 161.358 375.437 165.468 380.067 168.366C385.527 171.787 391.96 179.381 395.13 186.147C400.612 197.854 404.187 217.416 403.966 234.499L403.866 242.282L401.977 230.292C399.551 214.89 394.892 196.282 391.783 189.58C388.982 183.541 382.796 176.248 375.765 170.695C367.955 164.526 367.901 166.233 375.657 174.135C387.737 186.443 393.261 200.873 399.64 236.787C401.055 244.755 402.82 252.174 403.563 253.273C404.306 254.373 411.688 263.141 419.969 272.758C431.032 285.607 435.031 290.94 435.046 292.871C435.08 297.115 421.511 341.555 419.505 343.77C418.122 345.296 416.673 345.721 413.619 345.498C410.098 345.239 409.528 344.861 409.266 342.616C408.923 339.668 410.457 338.051 414.067 337.552C416.493 337.216 416.591 336.894 417.368 326.715C417.809 320.944 418.027 311.409 417.854 305.525L417.538 294.826L421.881 297.369C431.588 303.054 426.968 295.779 414.067 285.065C408.842 280.726 399.352 272.83 392.979 267.519C372.259 250.251 365.54 242.321 347.433 213.768C338.559 199.774 330.533 186.814 329.599 184.965C327.074 179.974 326.529 172.061 328.401 167.585C330.326 162.983 329.142 162.782 325.504 167.092C322.293 170.897 320.067 175.815 320.067 179.104C320.067 182.102 326.075 194.472 333.997 207.787C337.423 213.544 339.403 217.537 338.397 216.658C330.404 209.68 313.995 209.568 298.88 216.387C294.564 218.334 288.336 220.429 285.04 221.041C279.128 222.14 279.007 222.115 275.916 219.229C274.193 217.62 270.584 211.807 267.896 206.311C264.542 199.455 263.196 197.417 263.607 199.816C264.459 204.786 268.009 215.64 270.225 220.05C272.502 224.581 271.311 224.827 266.697 220.779C262.518 217.113 256.078 204.364 252.577 192.822L250 184.329L250.504 190.324C251.179 198.341 254.581 210.992 257.962 218.052C259.475 221.211 260.545 223.797 260.34 223.797C259.122 223.797 254.238 220.638 252.375 218.643C249.245 215.293 245.42 206.477 243.137 197.348C242.055 193.023 240.321 188.634 239.283 187.597C238.245 186.56 234.059 184.683 229.981 183.426L222.567 181.14L222.532 191.728C222.505 199.78 221.939 204.228 220.166 210.308C216.945 221.361 211.108 235.744 204.512 248.886C201.45 254.987 199.147 260.181 199.394 260.428C199.641 260.675 201.523 258.829 203.576 256.326C205.628 253.823 207.755 251.775 208.301 251.775C209.952 251.775 208.24 259.897 203.034 276.765C198.231 292.321 196.067 304.029 196.067 314.448C196.067 319.384 195.91 319.72 193.606 319.72C190.922 319.72 191.198 319.045 187.036 335.79L184.905 344.368H180.596H176.287L177.293 341.485C178.641 337.621 177.692 336.962 175.415 340.182C171.454 345.783 170.444 346.619 166.88 347.247L163.192 347.897L166.733 341.234C168.803 337.339 171.278 334.114 172.692 333.47C174.395 332.695 175.543 330.869 176.575 327.294C178.702 319.925 181.05 293.476 181.767 268.791C182.14 255.996 182.725 248.133 183.217 249.307C183.671 250.389 184.957 253.298 186.074 255.771L188.106 260.268L187.663 255.272C187.388 252.169 185.201 245.731 181.893 238.285L176.567 226.295L176.579 212.306C176.592 196.894 177.761 190.463 182.115 181.831C185.779 174.566 190.824 168.86 197.493 164.437C204.279 159.937 207.824 159.155 211.899 161.26C215.306 163.021 216.714 165.05 219.239 171.839L220.912 176.335L220.968 171.339C220.999 168.483 220.224 164.584 219.157 162.237L217.291 158.133L254.429 158.56C274.855 158.796 295.617 158.568 300.567 158.055C305.517 157.541 317.933 157.059 328.157 156.985C343.818 156.872 347.993 157.168 354.657 158.865ZM101.217 166.343C101.217 166.865 100.733 167.453 100.142 167.65C99.5514 167.847 99.0674 167.259 99.0674 166.343C99.0674 165.427 99.5514 164.839 100.142 165.036C100.733 165.233 101.217 165.821 101.217 166.343ZM152.777 177.834C153.065 178.933 153.81 179.837 154.434 179.844C155.057 179.851 156.719 182.324 158.128 185.34C160.884 191.243 160.389 192.235 156.586 188.435C154.902 186.753 154.362 185.352 154.757 183.689C155.308 181.37 155.29 181.364 153.691 183.329C152.071 185.321 152.059 185.32 150.196 183.129C149.012 181.736 148.504 179.995 148.813 178.382C149.392 175.358 152.033 174.992 152.777 177.834ZM71.0674 182.937C71.0674 185.008 70.3064 185.265 68.1714 183.915C66.3214 182.744 67.5224 179.686 69.5294 180.456C70.3754 180.779 71.0674 181.897 71.0674 182.937ZM243.049 214.804C245.806 220.274 245.982 220.994 244.162 219.367C240.854 216.406 238.017 211.298 236.482 205.537C234.217 197.035 234.916 194.466 237.496 201.815C238.75 205.387 241.249 211.232 243.049 214.804ZM72.4854 197.425C74.3134 198.126 74.5804 200.381 72.9554 201.384C71.7824 202.108 70.1084 200.177 70.0824 198.068C70.0654 196.645 70.2924 196.584 72.4854 197.425ZM156.424 203.813L159.133 209.309L156.1 205.849C153.406 202.777 153.067 202.63 153.067 204.535C153.067 205.715 153.516 207.947 154.065 209.493C154.955 212 154.629 211.832 151.065 207.931C147.297 203.808 145.254 199.86 148.638 203.242C149.503 204.106 150.58 204.812 151.031 204.812C152.077 204.812 153.067 202.261 153.067 199.568C153.067 197.014 153.081 197.032 156.424 203.813ZM146.067 206.596C146.067 207.408 147.046 209.7 148.242 211.689L150.417 215.304L147.636 212.806C144.84 210.295 143.632 208.021 142.437 203.02L141.79 200.316L143.929 202.717C145.105 204.038 146.067 205.783 146.067 206.596ZM326.417 231.83C327.079 233.721 326.731 235.698 325.047 239.61C323.805 242.494 322.289 244.689 321.678 244.488C321.067 244.288 319.096 241.292 317.298 237.833C313.312 230.163 313.985 228.54 320.96 228.995C324.823 229.247 325.666 229.684 326.417 231.83ZM297.118 234.883C298.008 236.544 297.798 238.146 296.103 242.627C293.897 248.458 291.446 252.486 290.611 251.652C290.349 251.39 289.137 247.453 287.919 242.904C285.406 233.525 285.706 232.832 292.282 232.805C295.039 232.794 296.286 233.329 297.118 234.883ZM266.238 235.443C267.244 236.352 268.067 237.613 268.067 238.245C268.067 239.949 259.337 252.027 258.787 251.084C258.527 250.64 257.542 247.153 256.596 243.337C254.954 236.713 254.957 236.341 256.663 235.094C259.141 233.283 264.048 233.462 266.238 235.443ZM307.15 246.272C310.889 252.893 312.839 253.797 315.685 250.23C316.934 248.666 318.081 247.991 318.457 248.599C318.811 249.171 317.967 250.859 316.583 252.351C313.686 255.475 313.452 257.681 315.581 261.794C317.047 264.627 317.015 264.739 314.566 265.354C313.174 265.702 310.982 267.333 309.694 268.978L307.352 271.967L305.061 268.753C301.378 263.584 293.772 261.205 290.71 264.265C289.885 265.089 288.328 265.763 287.249 265.763C286.171 265.763 284.271 266.587 283.027 267.593C281.304 268.988 280.92 270.038 281.415 272.007C282.211 275.177 287.737 278.753 291.84 278.753C294.469 278.753 295.283 279.473 297.913 284.131C301.534 290.541 305.293 293.741 309.202 293.741C313.753 293.741 312.546 295.224 306.426 297.151C303.323 298.129 299.669 300.043 298.305 301.407C296.224 303.485 295.912 304.539 296.369 307.942C296.668 310.173 298.185 314.523 299.74 317.608L302.567 323.217L297.057 323.132C291.304 323.042 288.407 321.95 283.841 318.158C282.342 316.912 279.805 315.606 278.205 315.254C274.907 314.53 274.067 312.09 274.067 303.228V297.978L280.03 297.547C287.461 297.01 290.067 294.965 290.067 289.67C290.067 286.603 289.147 284.835 285.076 280.083C282.319 276.865 280.081 273.251 280.076 272.011C280.064 268.985 273.423 261.767 270.651 261.767C268.031 261.767 266.067 263.529 266.067 265.88C266.067 267.438 265.719 267.405 262.274 265.52C259.538 264.023 257.677 263.646 255.592 264.169C251.345 265.234 245.497 271.579 243.968 276.78C243.244 279.239 241.843 281.841 240.854 282.561C239.865 283.281 238.372 285.192 237.536 286.808C236.7 288.422 235.373 289.744 234.588 289.744C230.03 289.744 225.525 294.598 227.89 296.961C228.451 297.522 228.678 298.586 228.395 299.326C228.111 300.064 229.508 302.656 231.499 305.084L235.12 309.499L231.585 311.584C227.056 314.254 225.326 317.8 226.885 321.219L228.024 323.717H214.046H200.067V314.834C200.067 302.91 202.221 292.128 208.091 274.665C210.787 266.647 213.292 258.216 213.658 255.93C214.023 253.645 214.701 251.775 215.163 251.775C215.626 251.775 217.832 254.248 220.067 257.27C226.081 265.404 229.117 264.664 235.54 253.5C237.049 250.877 239.176 248.254 240.266 247.671C243.197 246.104 247.349 248.195 251.602 253.381C254.389 256.781 255.873 257.77 258.181 257.77C260.803 257.77 261.726 256.872 265.864 250.298C268.451 246.188 271.063 242.816 271.669 242.804C272.275 242.792 275.875 245.533 279.669 248.894C283.463 252.255 287.578 255.475 288.813 256.047C291.855 257.457 293.934 255.457 298.551 246.678C300.556 242.866 302.634 240.017 303.17 240.347C303.705 240.677 305.496 243.343 307.15 246.272ZM233.22 245.217C234.153 247.261 233.907 248.375 231.687 252.159C230.233 254.639 228.644 256.914 228.157 257.214C227.124 257.853 224.707 245.171 225.59 243.743C225.917 243.214 227.518 242.782 229.147 242.782C231.317 242.782 232.407 243.434 233.22 245.217ZM337.817 247.593C343.046 253.013 344.687 261.544 341.305 265.718C339.805 267.569 339.135 267.738 336.805 266.853C334.033 265.8 333.298 264.358 334.998 263.308C335.51 262.992 336.27 263.284 336.687 263.959C337.773 265.715 339.15 259.981 338.401 256.817C338.069 255.418 337.252 253.598 336.585 252.774C335.917 251.949 335.088 250.478 334.741 249.502C334.395 248.527 333.089 247.319 331.839 246.818C329.761 245.984 329.845 245.9 332.817 245.842C334.717 245.805 336.794 246.533 337.817 247.593ZM332.465 250.276C333.071 251.375 334.159 252.651 334.883 253.111C336.746 254.294 335.983 259.987 333.741 261.639C332.527 262.533 332.039 263.836 332.335 265.386C332.585 266.693 332.388 267.762 331.896 267.762C331.405 267.762 329.373 268.442 327.381 269.274C323.35 270.956 323.316 272.374 327.343 270.844C329.29 270.105 330.025 270.209 330.438 271.284C330.736 272.059 330.56 272.953 330.048 273.269C329.536 273.585 329.269 275.154 329.455 276.754L329.794 279.662L326.82 278.126C324.5 276.927 323.934 276.882 324.251 277.921C324.474 278.653 326.507 280.152 328.769 281.251C332.273 282.954 333.562 284.552 337.474 292.044C340 296.883 342.067 301.466 342.067 302.229C342.067 302.994 342.94 305.106 344.007 306.923C345.634 309.694 345.896 311.76 345.636 319.72C345.465 324.941 345.011 329.955 344.627 330.862C343.86 332.675 341.086 333.674 336.766 333.695C328.422 333.736 329.334 308.986 337.79 305.902L340.567 304.89L337.439 304.811C333.649 304.715 332.753 305.712 330.547 312.476C329.575 315.457 328.239 317.722 327.452 317.722C325.473 317.722 322.489 314.472 320.01 309.617C315.771 301.314 315.102 297.909 314.968 283.964C314.852 271.79 314.684 270.559 313.379 272.304C312.255 273.808 312.07 275.911 312.575 281.461C313.229 288.658 313.227 288.667 310.554 289.338C307.282 290.158 304.06 287.286 300.174 280.086C297.849 275.778 297.135 275.202 293.567 274.756C289.608 274.262 285.067 271.993 285.067 270.511C285.067 270.088 287.542 270.033 290.567 270.389C296.05 271.032 297.258 270.351 294.867 267.962C294.207 267.302 293.915 266.763 294.218 266.763C295.643 266.763 301.067 269.034 301.067 269.63C301.067 270.001 302.529 272.067 304.317 274.224C306.105 276.379 308.104 280.191 308.759 282.695L309.951 287.246L309.7 282.25C309.508 278.446 310.008 276.351 311.793 273.47C313.083 271.389 314.573 269.954 315.103 270.282C315.633 270.61 316.067 270.39 316.067 269.793C316.067 269.118 317.198 269.294 319.067 270.26C320.717 271.112 322.067 271.379 322.067 270.852C322.067 270.326 321.175 269.612 320.084 269.267C318.223 268.676 318.199 268.489 319.699 266.201C321.164 263.968 321.163 263.56 319.682 261.302C317.278 257.636 317.605 256.668 322.809 252.04C327.878 247.532 330.67 247.022 332.465 250.276ZM321.067 254.166C321.067 254.382 321.742 254.817 322.567 255.134C323.392 255.45 324.067 255.273 324.067 254.741C324.067 254.209 323.392 253.773 322.567 253.773C321.742 253.773 321.067 253.95 321.067 254.166ZM370.077 291.926C372.707 297.481 373.065 299.315 373.061 307.23C373.058 312.176 372.587 317.91 372.014 319.97L370.973 323.717H362.077C354.017 323.717 353.034 323.508 351.624 321.496C350.753 320.255 350.067 317.214 350.067 314.601C350.067 311.717 349.113 307.88 347.577 304.581C345.286 299.665 345.22 299.138 346.747 298.004C349.742 295.777 352.054 291.306 352.06 287.724C352.069 283.121 348.729 271.166 346.823 268.978C346.001 268.035 345.558 266.621 345.84 265.836C346.183 264.879 349.754 267.89 356.72 275.013C364.35 282.814 367.878 287.281 370.077 291.926ZM273.753 267.936C275.167 269.264 276.067 271.266 276.067 273.086C276.067 275.287 277.369 277.437 281.067 281.345C284.812 285.301 286.067 287.39 286.067 289.665C286.067 293.199 284.055 294.062 276.987 293.557C272.808 293.258 272.55 293.065 272.254 289.994C271.891 286.235 270.067 285.558 270.067 289.182C270.067 291.197 269.508 291.671 266.817 291.931L263.567 292.247L266.817 294.019C269.878 295.688 270.072 296.124 270.155 301.511C270.203 304.656 270.54 309.41 270.905 312.073C271.524 316.603 271.819 317.003 275.455 318.248C277.593 318.981 281.418 321.047 283.955 322.84C286.492 324.633 289.565 326.801 290.786 327.657C292.3 328.719 293.014 330.262 293.036 332.519C293.054 334.467 293.479 335.572 294.069 335.207C294.637 334.856 294.808 332.942 294.464 330.795C293.946 327.554 294.151 326.926 295.878 326.475C296.989 326.184 298.949 326.481 300.233 327.134C302.404 328.239 302.548 328.839 302.295 335.747C301.95 345.171 300.481 347.12 296.14 343.913C294.514 342.712 290.72 340.641 287.709 339.31C284.697 337.979 281.482 335.744 280.564 334.345C279.092 332.099 278.105 331.764 272.231 331.505C266.165 331.237 265.538 331.007 265.244 328.94C265.067 327.691 266.029 324.689 267.382 322.269C268.868 319.613 269.317 318.073 268.515 318.379C266.564 319.128 264.383 322.83 263.11 327.554C261.394 333.921 259.126 333.1 255.023 324.625C253.136 320.728 250.223 316.12 248.549 314.384C245.569 311.293 245.513 311.052 245.896 302.894C246.286 294.585 246.297 294.556 249.427 293.437L252.567 292.314L249.567 291.773C247.429 291.386 246.475 290.586 246.247 288.989C246.072 287.756 245.443 286.747 244.851 286.747C244.124 286.747 243.961 289.269 244.348 294.49C244.844 301.169 244.761 301.794 243.745 299.031C243.097 297.269 241.952 295.246 241.199 294.534C240.054 293.451 240.002 293.566 240.881 295.24C242.825 298.941 243.894 305.505 242.742 306.656C241.043 308.353 238.541 307.916 236.472 305.562C234.682 303.525 234.677 303.434 236.389 304.06C238.361 304.779 242.067 303.252 242.067 301.721C242.067 301.193 240.919 301.301 239.457 301.966C237.303 302.948 236.649 302.885 235.707 301.608C235.08 300.756 234.04 300.238 233.396 300.455C232.65 300.706 232.42 300.103 232.762 298.794C233.058 297.664 234.121 296.739 235.125 296.739C236.128 296.739 237.266 296.227 237.653 295.602C238.156 294.786 237.322 294.657 234.712 295.147C232.562 295.55 231.067 295.434 231.067 294.865C231.067 293.729 236.924 292.266 237.834 293.175C238.177 293.517 239.382 291.891 240.512 289.558C242.83 284.777 246.617 283.164 253.4 284.069C255.508 284.351 256.962 284.31 256.631 283.98C256.3 283.649 254.126 283.116 251.798 282.795C247.742 282.235 247.574 282.072 247.726 278.874C247.814 277.038 248.443 275.024 249.124 274.398C250.079 273.517 250.222 273.653 249.751 274.993C249.372 276.069 250.063 277.776 251.572 279.489C252.909 281.008 254.018 281.744 254.035 281.123C254.053 280.504 253.392 279.437 252.567 278.753C250.649 277.162 250.644 274.353 252.556 272.767C253.375 272.087 253.857 271.228 253.626 270.855C252.958 269.775 260.44 269.859 261.773 270.947C262.437 271.488 263.46 271.634 264.048 271.271C264.636 270.908 265.052 270.981 264.973 271.435C264.895 271.888 264.915 273.832 265.019 275.755C265.171 278.581 265.36 278.869 265.999 277.254C266.434 276.155 266.551 274.62 266.259 273.843C265.921 272.945 266.154 272.693 266.897 273.153C267.541 273.55 268.067 273.343 268.067 272.695C268.067 271.821 268.415 271.803 269.409 272.627C271.391 274.271 272.004 273.024 270.976 269.441C270.476 267.701 270.067 266.161 270.067 266.02C270.067 265.181 271.749 266.055 273.753 267.936ZM338.045 273.067C338.057 273.511 338.517 273.597 339.067 273.257C340.576 272.325 340.267 275.345 338.722 276.627C337.982 277.24 336.055 278.006 334.441 278.328C331.974 278.822 331.48 278.583 331.348 276.836C331.262 275.692 331.644 274.756 332.197 274.756C332.78 274.756 332.908 273.813 332.501 272.508C331.807 270.28 331.82 270.277 333.934 272.163C336.346 274.316 336.487 274.051 335.05 270.075L334.034 267.262L336.028 269.76C337.125 271.134 338.033 272.622 338.045 273.067ZM405.193 283.791C408.796 287.343 411.081 290.531 411.549 292.659C411.951 294.486 411.956 302.222 411.561 309.85L410.842 323.717H400.469H390.096L393.663 313.975C395.625 308.616 398.117 301.817 399.201 298.863C400.441 295.485 400.937 292.426 400.538 290.614C400.19 289.029 396.877 283.802 393.176 278.997C389.474 274.192 386.095 269.675 385.666 268.961C384.242 266.586 399.476 278.157 405.193 283.791ZM340.903 269.853C343.652 270.81 344.285 271.776 346.052 277.704C348.484 285.862 348.588 289.556 346.47 292.576C343.746 296.463 341.028 295.018 336.921 287.502L333.24 280.763L336.403 279.911C339.251 279.144 339.853 279.398 342.432 282.454C346.118 286.823 347.181 285.896 343.706 281.345C342.255 279.443 341.067 276.693 341.067 275.233C341.067 273.702 340.115 271.785 338.817 270.703C336.196 268.518 336.6 268.354 340.903 269.853ZM268.452 278.475C268.565 282.14 268.481 282.228 264.336 282.798C257.905 283.681 258.346 284.428 265.014 283.946L270.918 283.519L275.404 288.131C281.318 294.212 282.102 293.991 277.09 287.656C274.877 284.859 273.067 282.248 273.067 281.855C273.067 281.462 272.003 279.698 270.702 277.937L268.337 274.733L268.452 278.475ZM397.067 292.737C397.067 293.834 394.548 301.816 391.47 310.473C382.758 334.976 382.031 334.997 388.167 310.566C390.423 301.587 392.688 293.453 393.203 292.492C394.474 290.113 397.067 290.278 397.067 292.737ZM314.427 303.054C315.19 304.878 317.002 308.25 318.453 310.548C321.341 315.118 320.92 315.764 317.067 312.676C315.692 311.573 313.217 309.69 311.567 308.49C308.87 306.53 308.713 306.507 310.015 308.268C310.811 309.347 312.675 311.577 314.156 313.225C316.39 315.71 316.967 317.528 317.534 323.861C318.004 329.107 317.866 331.717 317.096 332.192C316.48 332.573 313.791 332.585 311.122 332.218C307.013 331.653 306.198 331.176 305.802 329.108C305.513 327.596 305.897 326.35 306.808 325.84C308.052 325.145 307.901 324.41 305.838 321.119C302.144 315.23 299.741 308.163 300.46 305.302C300.945 303.372 302.194 302.448 305.829 301.331C312.515 299.277 312.878 299.35 314.427 303.054ZM247.638 315.973C250.568 319.434 255.595 329.517 254.791 330.321C254.526 330.586 253.106 328.748 251.634 326.239C248.364 320.664 242.569 314.724 240.399 314.724C239.263 314.724 239.564 315.327 241.435 316.798C243.768 318.631 249.764 326.466 254.384 333.719C256.188 336.55 255.324 338.938 252.409 339.177C251.396 339.26 249.584 339.862 248.383 340.515C243.698 343.063 238.632 340.95 239.714 336.9C240.053 335.633 240.84 334.791 241.463 335.03C242.086 335.269 244.165 334.133 246.082 332.506L249.567 329.547L245.938 331.027L242.308 332.507L236.083 326.231C231.104 321.211 229.992 319.53 230.531 317.835C231.451 314.939 235.726 312.814 240.728 312.766C244.217 312.732 245.333 313.25 247.638 315.973ZM349.668 326.302C351.279 330.156 350.343 332.71 347.32 332.71C346.17 332.71 345.964 331.976 346.442 329.587C346.786 327.87 347.067 325.622 347.067 324.591C347.067 321.724 348.014 322.346 349.668 326.302ZM367.067 328.263C367.067 328.565 366.354 330.191 365.482 331.876C364.362 334.039 363.585 334.626 362.833 333.875C362.082 333.125 362.26 332.064 363.441 330.263C364.934 327.988 367.067 326.811 367.067 328.263ZM371.752 330.789L374.567 331.866L372.206 333.787C368.16 337.078 365.924 335.848 367.674 331.293C368.395 329.415 368.216 329.436 371.752 330.789ZM407.317 336.369C406.582 336.666 406.067 338.691 406.067 341.286C406.067 344.543 405.674 345.699 404.567 345.699C402.308 345.699 402.52 338.124 404.817 336.787C405.779 336.226 407.017 335.79 407.567 335.816C408.117 335.843 408.005 336.092 407.317 336.369ZM164.063 339.454C164.056 340.917 160.08 346.699 159.082 346.699C157.777 346.699 157.786 346.615 159.58 342.324C160.413 340.334 161.763 338.705 162.58 338.705C163.398 338.705 164.065 339.042 164.063 339.454ZM215.269 378.596C230.883 384.573 239.819 401.088 237.112 418.968C235.616 428.85 231.265 437.33 224.54 443.472C217.272 450.109 210.214 452.783 198.38 453.381C177.584 454.434 163.604 445.075 157.889 426.276C151.382 404.87 163 383.117 184.091 377.215C191.959 375.014 207.736 375.713 215.269 378.596ZM270.935 405.215L285.303 434.129L299.617 404.902C307.489 388.828 314.39 375.676 314.953 375.676C316.213 375.676 316.095 375.029 322 414.501C327.569 451.731 327.246 450.912 336.388 450.83C339.413 450.803 342.827 450.279 343.975 449.665C346.845 448.131 348.068 445.498 362.559 409.648C374.894 379.133 376.472 375.676 378.061 375.676C378.473 375.676 384.326 389.239 391.068 405.815C406.33 443.344 406.563 443.869 409.683 447.573C411.616 449.868 413.082 450.616 415.656 450.616C417.532 450.616 419.067 451.065 419.067 451.615C419.067 452.229 414.067 452.614 406.067 452.614C398.067 452.614 393.067 452.229 393.067 451.615C393.067 451.065 393.517 450.616 394.067 450.616C395.785 450.616 395.197 448.05 390.981 437.143L386.896 426.575L374.888 426.855L362.88 427.134L360.435 433.13C354.371 447.993 354.251 450.616 359.63 450.616C360.906 450.616 362.227 451.065 362.567 451.615C363.24 452.703 317.459 453.085 314.667 452.014C313.577 451.597 313.364 450.915 313.963 449.766C314.881 448.004 309.174 402.654 308.034 402.654C307.681 402.654 301.894 413.906 295.174 427.659C288.454 441.411 282.515 452.391 281.975 452.057C281.435 451.724 275.584 440.648 268.972 427.444C262.36 414.24 256.72 403.667 256.438 403.949C255.742 404.644 251.062 439.033 250.921 444.481C250.797 449.283 251.938 450.576 256.317 450.601C257.829 450.609 259.067 451.065 259.067 451.615C259.067 452.225 254.381 452.614 247.008 452.614C239.223 452.614 235.168 452.26 235.567 451.615C235.907 451.065 237.268 450.616 238.591 450.616C239.929 450.616 241.447 449.775 242.011 448.721C242.57 447.679 245.29 432.053 248.056 413.999C254.039 374.954 253.939 375.472 255.408 375.935C256.045 376.136 263.033 389.313 270.935 405.215ZM124.067 378.668C128.764 380.375 133.774 385.25 135.167 389.467C136.508 393.526 135.758 400.383 133.476 404.919C132.583 406.696 129.802 410.263 127.296 412.847L122.739 417.544L132.452 429.541C144.402 444.303 150.042 449.429 155.245 450.26C162.325 451.392 160.296 452.614 151.376 452.592C137.22 452.557 134.833 450.86 120.253 430.476C114.145 421.936 114.001 421.818 108.973 421.126C106.172 420.741 103.559 420.811 103.167 421.282C102.775 421.753 102.704 428.114 103.011 435.417C103.61 449.723 103.959 450.571 109.258 450.601C110.738 450.609 112.227 451.065 112.567 451.615C112.969 452.264 107.724 452.614 97.5674 452.614C87.4104 452.614 82.1654 452.264 82.5674 451.615C82.9074 451.065 84.4604 450.616 86.0194 450.616C87.7344 450.616 89.1814 449.925 89.6854 448.867C90.1434 447.906 90.6704 432.807 90.8564 415.316C91.2404 379.335 91.1264 378.673 84.5444 378.673C82.6324 378.673 81.0674 378.233 81.0674 377.696C81.0674 376.216 119.726 377.09 124.067 378.668ZM187.412 380.763C185 381.337 181.356 383.423 178.722 385.739C171.189 392.366 168.153 403.641 170.028 418.039C172.503 437.046 183.689 448.826 199.334 448.896C210.156 448.945 217.225 444.03 221.202 433.691C224.122 426.101 224.39 409.654 221.726 401.552C216.681 386.207 201.984 377.302 187.412 380.763ZM102.979 382.42C102.931 382.833 102.968 390.36 103.062 399.149C103.178 410.073 103.601 415.363 104.399 415.87C105.042 416.278 108.07 416.619 111.13 416.628C115.907 416.641 117.064 416.254 119.316 413.895C122.916 410.125 124.067 406.595 124.067 399.326C124.067 388.114 118.357 381.671 108.419 381.671C105.475 381.671 103.028 382.007 102.979 382.42ZM369.817 408.511C367.204 415.57 365.067 421.635 365.067 421.991C365.067 422.347 369.615 422.638 375.174 422.638C382.834 422.638 385.172 422.335 384.829 421.389C384.581 420.702 382.395 414.632 379.972 407.902C377.549 401.171 375.342 395.668 375.067 395.672C374.792 395.675 372.43 401.454 369.817 408.511ZM204.296 520.31L204.567 540.044L207.317 540.36C208.829 540.534 210.067 540.994 210.067 541.382C210.067 541.771 205.792 542.087 200.567 542.087C195.342 542.087 191.067 541.771 191.067 541.382C191.067 540.994 192.305 540.534 193.817 540.36L196.567 540.044L196.843 524.184C197.113 508.655 197.077 508.335 195.093 508.946C189.789 510.577 188.622 510.803 189.293 510.073C190.449 508.816 202.491 500.699 203.296 500.634C203.697 500.602 204.147 509.455 204.296 520.31ZM238.037 501.854C239.395 502.541 241.577 504.67 242.884 506.586C244.957 509.623 245.202 510.92 244.803 516.738C244.26 524.635 241.446 530.104 234.752 536.27C230.627 540.069 224.067 544.255 224.067 543.088C224.067 542.81 226.083 540.726 228.547 538.457C234.921 532.586 238.126 525.553 238.189 517.295C238.247 509.76 236.714 505.787 232.932 503.669C230.571 502.346 230.027 502.37 227.698 503.895C220.486 508.617 225.565 523.599 233.372 520.633C235.152 519.957 236.067 519.949 236.067 520.61C236.067 522.253 230.811 523.758 227.121 523.169C221.662 522.299 218.567 518.483 218.567 512.624C218.567 507.475 221.173 503.345 225.567 501.529C228.597 500.277 235.261 500.451 238.037 501.854ZM273.199 504.395C279.136 511.033 275.685 521.307 263.954 531.914L257.726 537.546H264.974C271.65 537.546 272.451 537.316 275.144 534.625C278.303 531.469 278.623 532.009 277.014 537.796L275.973 541.543H262.793H249.614L257.293 533.799C268.144 522.857 271.466 514.104 267.602 506.639C264.837 501.295 257.09 501.911 254.669 507.666C253.302 510.913 252.379 510.036 252.5 505.607C252.599 501.98 256.331 500.427 263.949 500.84C269.663 501.15 270.631 501.523 273.199 504.395ZM299.447 501.575H310.663L306.873 509.319C302.458 518.338 297.067 533.909 297.067 537.638C297.067 539.438 296.294 540.575 294.52 541.382C290.431 543.243 288.829 542.89 289.597 540.294C291.079 535.283 299.31 516.89 302.092 512.37C303.728 509.713 305.067 507.322 305.067 507.055C305.067 506.789 301.043 506.571 296.124 506.571C288.016 506.571 287.035 506.779 285.624 508.792C284.117 510.94 284.067 510.865 284.067 506.46C284.067 501.5 284.719 500.229 286.847 501.044C287.608 501.336 293.278 501.575 299.447 501.575ZM285.974 636.217C286.383 639.246 286.555 639.485 286.869 637.466C287.083 636.092 287.721 634.406 288.285 633.719C289.043 632.797 288.808 632.47 287.39 632.47C285.746 632.47 285.542 633.012 285.974 636.217ZM291.203 636.717C291.291 639.448 291.504 640.084 291.801 638.497L292.263 636.031L293.644 638.497L295.024 640.963L295.739 638.465L296.454 635.967L297.161 638.465C297.711 640.412 297.88 639.97 297.925 636.467L297.983 631.97L296.174 635.364L294.365 638.757L293.268 635.614C291.76 631.293 291.042 631.677 291.203 636.717Z" fill="#000000"/>
</svg>
