<svg xmlns="http://www.w3.org/2000/svg" width="24" height="24" fill="#000000"><path fill="url(#a)" d="M23.064 17.338c0 3.112-2.075 5.899-5.899 4.806-3.823-1.092-6.773-1.365-9.667-.328-2.895 1.038-9.724.819-6.774-7.756C.724 14.06 5.694 1 11.32 1c1.332 0 2.689.74 3.987 1.913a7.459 7.459 0 1 0 7.184 11.852c.369 1.1.573 2.005.573 2.573Z"/><path fill="#e3e3e3" d="M22.49 14.764a7.459 7.459 0 1 1-7.184-11.852c3.19 2.875 6.017 8.35 7.185 11.852Z"/><path fill="#d1d1d1" d="M24 10.268c0 1.688-.56 3.247-1.51 4.497-1.167-3.501-3.993-8.977-7.183-11.851A7.456 7.456 0 0 1 24 10.269Z"/><defs><linearGradient id="a" x1="11.37" x2="11.593" y1="4.359" y2="22.55" gradientUnits="userSpaceOnUse"><stop offset=".01" stop-color="#7f7f7f"/><stop offset="1" stop-color="#919191"/></linearGradient></defs></svg>