<svg xmlns="http://www.w3.org/2000/svg" width="200" height="200" fill="#000000"><path fill-opacity=".416" fill-rule="evenodd" d="M64.533 17.256c-1.082 1.784-3.376 5.719-5.097 8.744a969 969 0 0 1-5.78 10 1099 1099 0 0 0-6.352 11c-2.037 3.575-4.063 6.65-4.504 6.833-.44.184-.8.904-.8 1.602s-2.474 5.273-5.498 10.167-6.222 10.586-7.108 12.648c-.886 2.063-2.012 3.75-2.503 3.75-.49 0-.891.37-.891.822 0 .779-3.903 8.009-8.656 16.036A602 602 0 0 0 13.757 105c-.787 1.375-2.47 4.3-3.741 6.5-6.047 10.469-7.007 12.151-8.129 14.244-1.059 1.976-.647 3.154 3.455 9.867 2.562 4.192 4.658 8.245 4.658 9.006s.36 1.383.801 1.383c.44 0 1.794 1.912 3.008 4.25s3.337 6.05 4.717 8.25 2.943 4.9 3.474 6 2.101 3.8 3.488 6 3.104 5.125 3.815 6.5c2.287 4.423 5.183 8.988 5.697 8.98.275-.005 2.429-3.489 4.786-7.744s5.235-9.311 6.395-11.236 3.449-5.975 5.087-9 3.701-6.625 4.587-8 2.11-3.4 2.721-4.5 2.081-3.687 3.267-5.75a3349 3349 0 0 0 4.299-7.5c1.178-2.062 2.973-5.1 3.989-6.75s2.843-4.913 4.058-7.25c1.215-2.338 2.57-4.25 3.01-4.25.441 0 .801-.608.801-1.352 0-.743 2.469-5.356 5.488-10.25 3.018-4.894 6.185-10.457 7.039-12.363.853-1.906 1.888-3.706 2.299-4s2.082-3.121 3.712-6.283c1.629-3.161 3.311-5.748 3.737-5.75s1.237 1.011 1.801 2.248c.565 1.237 2.125 4.05 3.467 6.25s3.008 5.125 3.702 6.5c1.367 2.709 3.96 6.921 6.898 11.21 1.022 1.49 1.857 3.402 1.857 4.25s.395 1.54.879 1.54c.483 0 1.471 1.463 2.194 3.25 1.251 3.087 2.306 4.871 6.927 11.71 4.107 6.077 4.462 5.978-22.598 6.273l-24.599.267-2.543 4.5a1042 1042 0 0 1-4.57 8 288 288 0 0 0-3.9 7 243 243 0 0 1-4.237 7.5c-3.833 6.482-6.697 11.549-14.27 25.25L47.828 186H165.77l1.848-2.75c1.016-1.513 2.347-3.65 2.958-4.75 2.196-3.955 5.742-10.057 7.555-13 1.017-1.65 2.843-4.912 4.058-7.25s2.57-4.25 3.01-4.25c.441 0 .801-.845.801-1.878s.658-2.423 1.461-3.09c.804-.667 1.767-2.176 2.141-3.353.373-1.177 1.599-3.499 2.723-5.16a1248 1248 0 0 0 3.816-5.669c3.335-4.99 3.306-7.379-.172-14.091-1.783-3.442-3.554-6.484-3.934-6.759s-1.37-1.85-2.2-3.5-2.555-4.8-3.835-7-2.97-5.125-3.757-6.5-2.497-4.3-3.801-6.5-3.607-6.25-5.119-9-3.316-5.9-4.009-7-1.964-3.35-2.825-5c-.86-1.65-2.88-5.025-4.489-7.5s-3.571-5.908-4.361-7.628-1.931-3.434-2.537-3.809S154 49.046 154 48.024c0-1.021-.367-2.007-.816-2.191s-2.719-3.708-5.046-7.833c-2.326-4.125-5.325-9.3-6.663-11.5s-3.422-5.913-4.631-8.25L134.645 14l-34.072.006-34.073.007z"/><path fill-opacity=".429" fill-rule="evenodd" d="M66 14.822c0 .778-3.937 8.084-7.909 14.678-2.662 4.419-5.997 10.285-9.378 16.5-1.647 3.025-3.539 6.175-4.207 7s-1.881 2.85-2.696 4.5-2.53 4.8-3.81 7-2.97 5.125-3.757 6.5a602 602 0 0 1-3.587 6.142C25.903 85.169 22 92.399 22 93.178c0 .452-.401.822-.891.822-.491 0-1.642 1.688-2.559 3.75s-2.756 5.55-4.087 7.75-3.418 5.912-4.64 8.25S7.241 118 6.801 118c-.441 0-.801.9-.801 2s-.395 2-.879 2c-.483 0-1.459 1.402-2.169 3.115-1.041 2.514-1.046 3.505-.027 5.137.695 1.112 2.185 3.648 3.311 5.635a257 257 0 0 0 3.895 6.613c1.017 1.65 2.843 4.912 4.058 7.25s2.57 4.25 3.01 4.25c.441 0 .801.718.801 1.596 0 .877.827 2.79 1.837 4.25s2.143 3.329 2.516 4.154 2.01 3.525 3.636 6 3.692 6.188 4.592 8.25 2.037 3.75 2.528 3.75c.49 0 .891.702.891 1.559 0 2.21 1.47 1.023 3.46-2.793.937-1.796 2.68-4.902 3.872-6.903s4.106-7.052 6.475-11.226 4.731-7.852 5.25-8.172.943-1.419.943-2.441.36-2.007.8-2.191 2.467-3.258 4.504-6.833 4.893-8.525 6.348-11a423 423 0 0 0 5.636-10c1.646-3.025 3.538-6.175 4.206-7 .667-.825 1.881-2.85 2.696-4.5 1.502-3.038 4.602-8.528 7.904-14 .996-1.65 3.715-6.375 6.042-10.5s4.599-7.65 5.048-7.833c.449-.184.816-1.148.816-2.143 0-3.047 2.764-3.19 4.315-.224 3.239 6.196 10.224 17.724 10.927 18.033.417.184.758 1.17.758 2.191 0 1.022.424 2.12.943 2.441s2.881 3.998 5.25 8.172 5.277 9.226 6.463 11.226c4.195 7.074 5.125 9.023 4.571 9.577-.308.308-11.664.56-25.235.56H81.318l-2.909 5.089c-1.6 2.799-3.747 6.736-4.771 8.75-1.024 2.013-2.261 3.811-2.75 3.994s-.888 1.196-.888 2.25-.401 1.917-.891 1.917c-.491 0-1.65 1.688-2.577 3.75-1.985 4.415-4.865 9.71-6.25 11.488-.541.694-2.27 3.737-3.842 6.762s-3.665 6.694-4.649 8.154c-4.179 6.194-7.511 5.846 55.959 5.845l57.75-.001 3-5.181c1.65-2.849 4.076-7.011 5.391-9.249a844 844 0 0 0 4.392-7.568c1.1-1.925 2.826-4.85 3.835-6.5s3.066-5.25 4.571-8c1.506-2.75 3.204-5.755 3.774-6.677.57-.923 2.737-4.619 4.816-8.214 4.146-7.172 4.111-7.664-1.133-16.109a262 262 0 0 1-4.004-6.75 3349 3349 0 0 0-4.299-7.5 581 581 0 0 1-3.267-5.75c-.611-1.1-1.835-3.125-2.721-4.5s-2.95-4.975-4.587-8c-1.638-3.025-3.921-7.075-5.075-9s-4.002-6.875-6.329-11-4.599-7.65-5.048-7.833c-.449-.184-.816-1.159-.816-2.167s-.367-1.983-.816-2.167-2.72-3.708-5.048-7.833-5.175-9.075-6.329-11-3.436-5.975-5.073-9c-1.636-3.025-3.933-6.959-5.104-8.743l-2.13-3.243-33.75-.007c-18.562-.004-33.75.363-33.75.815"/><path fill-opacity=".142" fill-rule="evenodd" d="M65.967 17.25c-.702 1.788-1.994 3.832-2.871 4.543-1.422 1.152-1.624 7.57-1.849 59-.272 62.069-.494 59.546 4.334 49.207.899-1.925 2.261-3.86 3.027-4.3.765-.44 1.392-1.391 1.392-2.115 0-.723.9-2.459 2-3.858 1.1-1.398 2-3.259 2-4.135s.399-1.592.886-1.592 1.679-1.687 2.648-3.75 2.095-3.975 2.501-4.25c.407-.275 1.465-2.075 2.351-4s2.512-4.85 3.614-6.5 2.695-4.35 3.539-6 2.86-5.025 4.478-7.5c1.619-2.475 3.374-5.469 3.901-6.653 1.587-3.564 2.939-3.605 4.547-.137.839 1.809 2.364 4.64 3.389 6.29 1.683 2.711 3.753 6.247 7.903 13.5.787 1.375 2.503 4.3 3.815 6.5s3.383 5.912 4.605 8.25 2.582 4.25 3.022 4.25c.441 0 .801.81.801 1.8s.408 2.227.906 2.75c1.363 1.43 5.094 8.373 5.094 9.48 0 .54-3.324.97-7.5.97H117v27.5c0 15.125.112 27.592.25 27.704s11.05.45 24.25.75l24 .546 2.897-5.5c1.593-3.025 3.203-5.725 3.578-6s1.36-1.85 2.19-3.5c1.701-3.383 5.201-9.522 7.981-14 1.025-1.65 2.51-4.386 3.301-6.08.79-1.693 2.138-3.661 2.995-4.372s1.558-1.852 1.558-2.536.9-2.386 2-3.785c1.1-1.398 2-3.066 2-3.706s.674-1.838 1.498-2.662c.825-.825 1.782-2.626 2.127-4.003.634-2.526.164-3.802-3.895-10.579-1.226-2.048-3.746-6.548-5.598-10-1.853-3.452-3.904-6.952-4.557-7.777s-1.729-2.625-2.39-4-2.034-3.85-3.051-5.5c-1.811-2.936-5.347-9.018-7.558-13-.611-1.1-1.835-3.125-2.721-4.5s-2.95-4.975-4.587-8c-1.638-3.025-3.945-7.075-5.127-9-1.183-1.925-2.816-4.932-3.63-6.682s-1.956-3.475-2.538-3.835-1.762-2.415-2.624-4.568c-.861-2.153-1.967-3.915-2.458-3.915-.49 0-.891-.9-.891-2s-.36-2-.801-2c-.44 0-1.8-1.913-3.022-4.25s-3.326-6.05-4.675-8.25c-1.35-2.2-2.742-4.788-3.095-5.75-.592-1.619-3.135-1.75-33.902-1.75H67.243z"/><path fill-opacity=".507" fill-rule="evenodd" d="M118 27.8c0 7.59-.409 14.227-.908 14.75s-2.133 3.2-3.631 5.95a744 744 0 0 1-6.342 11.317c-6.787 11.846-6.546 11.102-4.718 14.57.903 1.712 2.735 4.913 4.072 7.113s2.711 4.675 3.051 5.5 1.033 2.175 1.538 3c.504.825 1.839 3.075 2.965 5s3.125 5.3 4.442 7.5c1.316 2.2 3.097 5.35 3.956 7s2.703 4.8 4.097 7 3.01 5.219 3.59 6.709 1.805 2.927 2.722 3.193c.916.266 11.341.771 23.166 1.123 11.825.351 22.31.864 23.3 1.14 1.646.459 1.775 1.741 1.5 14.92-.165 7.93.038 14.417.45 14.417.412-.001.75-.719.75-1.594s.9-2.737 2-4.135c1.1-1.399 2-3.135 2-3.858s.627-1.675 1.392-2.115c.766-.44 2.107-2.375 2.98-4.3 1.552-3.421 2.307-4.725 5.878-10.15 2.238-3.4 2.215-5.974-.08-8.965-1.006-1.312-2.153-3.06-2.547-3.885s-1.812-3.3-3.15-5.5-3.228-5.575-4.202-7.5-2.115-3.95-2.535-4.5c-2.422-3.17-5.736-8.737-5.736-9.637 0-.576-.9-2.192-2-3.59-1.1-1.399-2-3.102-2-3.785s-.701-1.825-1.558-2.536-2.198-2.679-2.98-4.372c-1.472-3.189-2.62-5.17-5.672-9.79-.984-1.49-1.79-3.402-1.79-4.25s-.4-1.54-.89-1.54c-.489 0-1.854-1.912-3.032-4.25-1.179-2.337-3.222-6.05-4.542-8.25s-3.104-5.35-3.965-7c-.862-1.65-2.475-4.35-3.585-6s-2.754-4.687-3.653-6.75c-.9-2.062-1.95-3.75-2.333-3.75s-1.508-1.8-2.5-4-2.185-4-2.652-4c-.466 0-.848-.9-.848-2 0-1.833-.667-2-8-2h-8z"/></svg>