<!-- Generated by IcoMoon.io -->
<svg version="1.1" xmlns="http://www.w3.org/2000/svg" width="32" height="32" viewBox="0 0 32 32" fill="#000000">
<title>atom</title>
<path d="M19.899 9.462l-10.335 10.321c-0.113-0.212-0.235-0.478-0.342-0.751l-0.019-0.056c-0.361-0.938-0.541-1.933-0.541-2.983s0.18-2.046 0.541-2.984c0.361-0.938 0.862-1.752 1.502-2.443s1.409-1.236 2.307-1.639c0.898-0.402 1.884-0.603 2.957-0.603s2.065 0.206 2.972 0.619c0.374 0.17 0.689 0.343 0.989 0.537l-0.030-0.018zM18.987 23.12c-0.898 0.402-1.884 0.603-2.957 0.603s-2.064-0.206-2.973-0.618c-0.337-0.153-0.657-0.326-0.958-0.519l10.335-10.32c0.114 0.213 0.235 0.478 0.342 0.751l0.019 0.055c0.361 0.938 0.541 1.933 0.541 2.984s-0.18 2.046-0.541 2.984c-0.361 0.938-0.862 1.752-1.502 2.442s-1.409 1.237-2.307 1.639zM20.551 26.32c1.383-0.598 2.58-1.407 3.592-2.427s1.795-2.21 2.353-3.571c0.558-1.36 0.836-2.803 0.836-4.328s-0.279-2.968-0.836-4.329c-0.33-0.807-0.737-1.552-1.22-2.235l6.722-6.712-2.671-2.667-6.742 6.733c-0.605-0.412-1.262-0.768-1.971-1.069-1.383-0.587-2.91-0.881-4.582-0.881s-3.199 0.299-4.583 0.897c-1.383 0.598-2.58 1.407-3.592 2.427s-1.796 2.211-2.353 3.571c-0.557 1.36-0.836 2.803-0.836 4.329s0.279 2.968 0.836 4.328c0.331 0.807 0.738 1.552 1.221 2.236l-6.721 6.712 2.671 2.667 6.742-6.732c0.605 0.412 1.262 0.768 1.971 1.069 1.383 0.587 2.91 0.881 4.582 0.881s3.2-0.299 4.583-0.896z"/>
</svg>
