<svg xmlns="http://www.w3.org/2000/svg" width="64" height="64" version="1.1" fill="#000000"><path fill-opacity=".145" d="M 22.396 1.418 C 8.608 5.734, -0.932 19.892, 0.238 34.304 C 2.223 58.757, 29.205 71.955, 49.674 58.485 C 55.302 54.782, 59.947 48.788, 62.063 42.500 C 62.803 40.300, 63.766 38.072, 64.204 37.550 C 65.170 36.397, 65.283 24.383, 64.319 25.347 C 63.945 25.722, 62.991 24.112, 62.199 21.769 C 56.722 5.566, 38.656 -3.671, 22.396 1.418 M 0.320 32 C 0.320 35.575, 0.502 37.038, 0.723 35.250 C 0.945 33.462, 0.945 30.538, 0.723 28.750 C 0.502 26.962, 0.320 28.425, 0.320 32" stroke="none" fill="#000000" fill-rule="evenodd"/><path fill-opacity=".551" d="M 23.951 1.303 C 14.895 3.863, 6.679 11.040, 2.687 19.878 C -0.216 26.304, -0.205 37.720, 2.710 44.176 C 5.683 50.759, 12.247 57.484, 18.853 60.716 C 26.180 64.301, 36.966 64.546, 44.176 61.290 C 53.171 57.227, 63 45.257, 63 38.363 C 63 37.128, 63.450 35.840, 64 35.500 C 64.550 35.160, 65 33.082, 65 30.882 C 65 28.470, 64.603 27.127, 64 27.500 C 63.441 27.845, 63 27.076, 63 25.755 C 63 18.856, 53.208 6.749, 44.519 2.905 C 38.845 0.395, 29.684 -0.318, 23.951 1.303 M 0.272 32 C 0.272 34.475, 0.467 35.487, 0.706 34.250 C 0.944 33.013, 0.944 30.988, 0.706 29.750 C 0.467 28.512, 0.272 29.525, 0.272 32" stroke="none" fill="#000000" fill-rule="evenodd"/><path fill-opacity=".213" d="M 26.223 1.051 C 11.520 3.986, 0.706 17.162, 0.706 32.141 C 0.706 37.777, 1.255 40.077, 3.873 45.395 C 13.336 64.617, 37.085 69.278, 53.249 55.086 C 57.429 51.416, 63 41.026, 63 36.899 C 63 35.370, 63.450 33.840, 64 33.500 C 64.550 33.160, 65 31.982, 65 30.882 C 65 29.782, 64.550 29.160, 64 29.500 C 63.421 29.858, 63 28.897, 63 27.219 C 63 22.991, 57.480 12.629, 53.249 8.914 C 45.904 2.465, 35.014 -0.703, 26.223 1.051 M 27.961 17.691 C 26.172 20.886, 23.835 25.075, 22.769 27 L 20.831 30.500 23.459 27.500 C 24.905 25.850, 26.840 23.262, 27.760 21.750 C 29.940 18.162, 30.689 18.279, 32.713 22.524 C 35.359 28.073, 36.305 24.311, 33.875 17.905 C 32.747 14.932, 31.687 12.361, 31.519 12.191 C 31.352 12.021, 29.751 14.496, 27.961 17.691 M 24.988 29.225 C 22.076 33.226, 18.587 38.075, 17.236 40 L 14.779 43.500 17.413 40.500 C 18.862 38.850, 20.600 37.650, 21.274 37.833 C 21.948 38.017, 22.236 37.902, 21.913 37.579 C 21.590 37.256, 23.293 34.856, 25.698 32.246 C 29.723 27.877, 31.930 23.597, 30.761 22.428 C 30.498 22.165, 27.900 25.223, 24.988 29.225 M 0.158 32 C 0.158 33.375, 0.385 33.938, 0.662 33.250 C 0.940 32.563, 0.940 31.438, 0.662 30.750 C 0.385 30.063, 0.158 30.625, 0.158 32" stroke="none" fill="#000000" fill-rule="evenodd"/><path fill-opacity=".974" d="M 25.230 1.528 C 17.806 3.558, 14.384 5.528, 9.436 10.619 C -2.273 22.667, -2.002 41.903, 10.048 53.952 C 22.388 66.293, 41.612 66.293, 53.952 53.952 C 58.660 49.245, 63 40.643, 63 36.022 C 63 34.975, 63.450 33.840, 64 33.500 C 64.550 33.160, 65 31.982, 65 30.882 C 65 29.782, 64.550 29.160, 64 29.500 C 63.450 29.840, 63 29.208, 63 28.097 C 63 26.985, 62.061 23.566, 60.914 20.499 C 55.735 6.657, 39.003 -2.238, 25.230 1.528 M 26.273 19.751 C 23.949 24.013, 20.886 29.413, 19.467 31.750 C 15.310 38.597, 17.403 36.659, 24.058 27.500 C 27.454 22.825, 30.352 19, 30.498 19 C 30.644 19, 32.437 22.938, 34.483 27.750 C 38.276 36.672, 40.407 39.926, 41.646 38.687 C 42.462 37.871, 32.686 12.728, 31.385 12.296 C 30.898 12.134, 28.598 15.489, 26.273 19.751 M 22 32.184 C 17.875 37.746, 14.140 42.906, 13.700 43.649 C 13.046 44.754, 14.956 44.976, 24.200 44.866 L 35.500 44.733 27.500 43.772 C 23.100 43.244, 19.358 42.675, 19.184 42.507 C 19.011 42.339, 21.825 38.372, 25.438 33.692 C 29.701 28.169, 31.793 24.623, 31.396 23.591 C 31.061 22.716, 30.497 22.016, 30.143 22.035 C 29.789 22.055, 26.125 26.622, 22 32.184 M 38.256 23 C 38.532 23.825, 40.229 27.996, 42.026 32.270 C 43.823 36.543, 45.097 40.236, 44.856 40.477 C 44.616 40.718, 39.739 40.258, 34.020 39.455 C 25.868 38.311, 23.457 38.260, 22.865 39.219 C 22.449 39.892, 22.309 40.643, 22.554 40.888 C 23.142 41.475, 50.236 45.098, 50.685 44.648 C 50.876 44.458, 48.045 39.171, 44.394 32.901 C 40.742 26.630, 37.981 22.175, 38.256 23 M 0.158 32 C 0.158 33.375, 0.385 33.938, 0.662 33.250 C 0.940 32.563, 0.940 31.438, 0.662 30.750 C 0.385 30.063, 0.158 30.625, 0.158 32" stroke="none" fill="#000000" fill-rule="evenodd"/></svg>