<!-- Generated by IcoMoon.io -->
<svg version="1.1" xmlns="http://www.w3.org/2000/svg" width="32" height="32" viewBox="0 0 32 32" fill="#000000">
<title>auction</title>
<path d="M6.56 0.225c-0.285 0.148-0.702 0.584-0.927 0.97-0.321 0.551-0.368 0.844-0.216 1.372 0.114 0.396 0.493 0.874 0.924 1.165 0.71 0.478 0.846 0.491 4.617 0.427l3.886-0.065 0.618-0.692c0.388-0.435 0.618-0.925 0.618-1.32s-0.229-0.885-0.618-1.32l-0.618-0.692-3.883-0.057c-2.822-0.041-4.024 0.017-4.4 0.212zM15.443 5.903c-4.717 1.741-8.806 3.284-9.086 3.43s-0.639 0.576-0.798 0.955c-0.159 0.38-0.229 0.928-0.156 1.218s0.415 0.766 0.761 1.057 0.883 0.525 1.195 0.521c0.311-0.004 4.616-1.505 9.566-3.335 8.851-3.273 9.007-3.34 9.404-4.082 0.277-0.517 0.357-0.938 0.256-1.342-0.081-0.323-0.378-0.818-0.659-1.099-0.341-0.341-0.744-0.508-1.209-0.5-0.384 0.006-4.557 1.435-9.275 3.176zM23.384 10.95c-0.582 0.215-4.585 1.749-8.895 3.407s-8.001 3.104-8.204 3.212c-0.202 0.108-0.518 0.486-0.702 0.84-0.209 0.405-0.283 0.873-0.198 1.259 0.074 0.338 0.421 0.855 0.771 1.149s0.854 0.535 1.12 0.535c0.266 0 4.476-1.53 9.355-3.4 7.113-2.727 8.986-3.524 9.453-4.027 0.364-0.392 0.582-0.863 0.582-1.256 0-0.392-0.22-0.867-0.582-1.26-0.32-0.347-0.821-0.681-1.112-0.742s-1.006 0.066-1.588 0.281zM15.342 22.111c-4.889 1.808-9.069 3.448-9.289 3.646s-0.487 0.588-0.594 0.867c-0.124 0.325-0.11 0.762 0.041 1.217 0.129 0.391 0.439 0.853 0.689 1.028s0.762 0.318 1.138 0.318c0.376 0 4.619-1.44 9.43-3.201 7.032-2.574 8.861-3.322 9.329-3.815 0.377-0.397 0.582-0.845 0.582-1.267 0-0.46-0.212-0.866-0.72-1.373-0.419-0.419-0.928-0.717-1.218-0.713-0.274 0.004-4.498 1.486-9.387 3.293zM16.872 28.146c-0.204 0.119-0.52 0.504-0.702 0.856-0.208 0.401-0.281 0.87-0.196 1.254 0.074 0.338 0.421 0.855 0.771 1.149 0.628 0.529 0.682 0.535 4.422 0.535 2.271 0 3.987-0.092 4.29-0.23 0.277-0.126 0.663-0.498 0.857-0.827s0.353-0.852 0.353-1.163c0-0.343-0.244-0.81-0.619-1.185l-0.619-0.619-4.093 0.006c-2.384 0.004-4.248 0.097-4.463 0.222z"/>
</svg>
