<svg xmlns="http://www.w3.org/2000/svg" width="200" height="200" fill="#000000"><path fill-opacity=".086" fill-rule="evenodd" d="M84.5 12.468c-14.841 3.238-31.727 12.06-42.699 22.308C30.845 45.009 22.248 58.925 17.05 74.84 14.147 83.729 14 84.982 14 100.789c0 14.981.253 17.445 2.582 25.159 9.091 30.108 29.861 51.122 60.918 61.631 6.339 2.145 8.728 2.371 25.291 2.395 15.986.023 19.136-.244 25-2.116 37.078-11.839 61.79-42.949 63.878-80.418 1.351-24.232-5.187-44.621-20.237-63.117-13.088-16.085-29.558-26.433-49.932-31.37-9.451-2.291-27.632-2.529-37-.485m0 8.129c-14.092 3.129-30.95 12.812-41.191 23.66-26.576 28.15-30.48 71.025-9.376 102.952 13.866 20.976 36.578 33.829 62.639 35.448 22.543 1.4 41.772-4.741 59.428-18.979 13.081-10.549 23.568-27.987 27.088-45.042 8.779-42.535-15.278-83.633-56.588-96.675-9.348-2.951-31.599-3.674-42-1.364M80.629 37.25c-.768 1.788-5.229 12.25-9.912 23.25S59.976 85.675 57.256 92l-4.945 11.5-5.905.5c-5.535.469-5.926.67-6.219 3.215-.321 2.783.374 3.213 6.469 4.005 2.064.268 1.926.808-3.25 12.747-5.858 13.51-6.217 15.115-3.822 17.103 2.807 2.329 4.688-.269 10.989-15.175 5.108-12.084 6.456-14.449 8.397-14.733 1.611-.236 2.151.067 1.78 1-.292.736-2.856 6.66-5.699 13.166-2.842 6.505-5.029 12.532-4.859 13.392.169.861 1.087 2.056 2.039 2.656 2.679 1.687 4.105-.431 10.702-15.896l5.964-13.98 6.552-.296c4.288-.193 6.551.086 6.551.808 0 .607-2.469 6.682-5.486 13.5-5.353 12.098-5.846 14.763-2.937 15.879 2.764 1.061 4.196-.594 7.962-9.197a5093 5093 0 0 1 6.571-14.944l2.765-6.25 10.812.011 10.813.011 7.172 14.99c3.945 8.245 7.888 15.266 8.763 15.601 1.847.709 4.565-1.225 4.565-3.248 0-.765-2.7-7.078-6-14.028s-6-12.795-6-12.988.831-.349 1.847-.349c1.395 0 3.596 3.657 8.991 14.935 3.928 8.214 7.601 15.218 8.161 15.565 1.474.91 4.721-.329 5.383-2.054.312-.813-2.346-7.371-5.907-14.572-3.561-7.202-6.475-13.27-6.475-13.484s2.909-.39 6.465-.39c7.458 0 6.03-1.595 14.622 16.344 6.473 13.514 8.103 15.656 10.682 14.032.952-.6 1.857-1.73 2.012-2.511.154-.781-7.858-18.283-17.805-38.893s-21.099-43.883-24.781-51.719-7.145-14.245-7.695-14.242-2.993 4.945-5.429 10.984c-2.435 6.04-4.667 10.742-4.959 10.45s-2.675-5.124-5.296-10.738S95.527 34.5 94.886 34.5c-.64 0-2.062 2.362-3.159 5.25S89.425 45 89.05 45s-1.708-2.475-2.962-5.5c-1.253-3.025-2.68-5.5-3.17-5.5s-1.52 1.462-2.289 3.25M81.643 54c-3.242 7.049-20.73 47.529-20.933 48.455-.116.525.678.975 1.764 1 1.635.037 3.759-4.113 12.395-24.221 8.701-20.259 10.254-24.635 9.403-26.5-.99-2.169-1.067-2.132-2.629 1.266m13.07-2.38c-1.417 1.417-.553 5.001 2.741 11.38 3.134 6.067 3.402 6.325 4.028 3.875.492-1.923-.227-4.407-2.692-9.296-1.85-3.67-3.684-6.351-4.077-5.959m18.895 6.437-2.891 7.051 9.309 19.446L129.335 104h6.332c3.483 0 6.333-.442 6.333-.982 0-1.085-24.651-52.02-25.174-52.015-.179.002-1.627 3.176-3.218 7.054M81.047 83.449c-4.605 10.758-8.187 19.684-7.96 19.836.227.153 3.408.115 7.068-.085 5.152-.28 6.763-.739 7.135-2.031.264-.918 2.494-6.421 4.954-12.229l4.473-10.559-3.649-7.246-3.648-7.245zm24.577-7.088c-.445 1.774.905 5.628 4.877 13.921 5.528 11.54 7.566 14.413 9.415 13.27.588-.363-1.894-6.483-6.004-14.8-3.853-7.798-7.156-14.329-7.339-14.512s-.61.771-.949 2.121m-7.976 18.6c-1.569 3.825-2.807 7.245-2.751 7.6.169 1.069 13.104 1.027 13.104-.042-.001-1.3-6.36-14.462-7.001-14.49-.275-.013-1.783 3.107-3.352 6.932"/><path fill-opacity=".262" fill-rule="evenodd" d="M87.763 12.51c-17.78 3.373-32.16 10.522-44.815 22.279-18.868 17.53-28.951 40.83-28.945 66.892.003 17.914 4.91 34.294 14.697 49.064 8.906 13.441 24.811 26.774 38.8 32.526C82.15 189.294 85.873 190 103.005 190c14.607 0 16.841-.241 24.291-2.623 30.682-9.807 51.621-30.676 60.271-60.07 3.124-10.614 4.293-28.915 2.555-40.018-5.52-35.279-32.124-64.534-66.622-73.26-10.83-2.74-25.925-3.381-35.737-1.519M91 18.63c-28.514 5.512-51.197 22.367-63.046 46.846-14.14 29.215-10.705 61.217 9.385 87.428 16.306 21.275 47.58 33.812 75.214 30.151 19.743-2.615 34.034-9.696 48.552-24.055 13.408-13.261 19.67-24.62 23.322-42.3 8.483-41.069-18.116-83.804-59.606-95.764-7.182-2.07-27.778-3.475-33.821-2.306M74.523 53.25A24322 24322 0 0 1 63.979 78c-1.528 3.575-4.44 10.55-6.472 15.5s-4.156 9.563-4.723 10.25c-.588.714-3.308 1.25-6.347 1.25-2.926 0-5.609.47-5.964 1.044-1.189 1.924 1.713 3.956 5.649 3.956 2.133 0 3.878.211 3.878.469s-2.69 6.549-5.977 13.979c-6.042 13.657-6.569 16.915-2.646 16.355 1.693-.242 3.34-3.14 8.127-14.303 7.245-16.893 7.004-16.5 10.122-16.5 3.049 0 3.039.041-3.738 15.251-5.215 11.705-5.809 14.459-3.321 15.413 2.445.938 3.517-.781 9.953-15.963l6.02-14.201 7.23-.294c5.612-.228 7.23.014 7.23 1.082 0 .757-2.514 7.101-5.586 14.098s-5.325 13.405-5.005 14.238c.339.882 1.507 1.382 2.793 1.196 1.804-.261 3.256-2.796 7.896-13.781 3.127-7.404 6.188-14.267 6.802-15.25.956-1.531 2.607-1.789 11.453-1.789 8.591 0 10.597.296 11.878 1.75.848.962 4.121 7.375 7.273 14.25 6.462 14.091 7.039 15 9.511 15 3.58 0 2.857-3.285-3.53-16.029-3.567-7.118-6.485-13.399-6.485-13.957s1.123-1.014 2.495-1.014c2.233 0 3.275 1.628 9.926 15.5 6.107 12.737 7.807 15.5 9.537 15.5 1.158 0 2.335-.6 2.616-1.333.282-.734-2.432-7.501-6.031-15.039S132 110.715 132 110.461s3.299-.461 7.33-.461h7.331l7.115 15.01c3.913 8.256 7.849 15.293 8.747 15.637s2.29-.032 3.095-.836c1.283-1.283.339-3.72-7.707-19.887C145.889 95.765 118 36.957 118 35.765c0-.512-.528-.756-1.173-.541s-3.124 5.057-5.509 10.759c-2.385 5.703-4.542 10.574-4.794 10.826s-2.789-4.552-5.64-10.676C98.034 40.01 95.372 35 94.967 35c-.404 0-1.739 2.475-2.967 5.5S89.422 46 89 46s-1.772-2.475-3-5.5-2.565-5.5-2.972-5.5c-.406 0-4.234 8.212-8.505 18.25m5.838 2.002C79.184 58.138 74.151 69.725 69.176 81s-9.187 21.121-9.361 21.879c-.526 2.301 4.182 2.061 5.689-.29.737-1.149 5.632-12.345 10.878-24.88 8.347-19.946 9.398-23.098 8.417-25.25-.616-1.352-1.385-2.458-1.71-2.457s-1.552 2.364-2.728 5.25m13.566-2.991c-.836 1.834-.364 3.725 2.496 10 1.94 4.257 3.939 7.739 4.443 7.739.505 0 1.189-1.083 1.521-2.406.41-1.635-.551-4.838-3.003-10C97.401 53.417 95.593 50 95.368 50s-.875 1.018-1.441 2.261m19.188 5.271-3.161 7.533 9.289 19.717 9.289 19.718 7.234.294c5.996.243 7.234.028 7.234-1.258C143 102.047 117.368 50 116.635 50c-.197 0-1.781 3.39-3.52 7.532M80.6 82.588c-4.789 10.774-8.545 20.077-8.346 20.674.493 1.478 13.993.946 14.97-.59C88.846 100.123 97 79.967 97 78.506 97 77.028 90.343 63 89.642 63c-.184 0-4.252 8.815-9.042 19.588m24.488-6.8c-1.032 2.49-.669 3.781 3.385 12.048 2.497 5.092 5.189 10.812 5.982 12.711s1.803 3.487 2.244 3.53 1.587.227 2.547.41c.96.184 1.986-.054 2.28-.529.486-.787-14.046-30.958-14.911-30.958-.205 0-.892 1.255-1.527 2.788m-5.973 13.381c-.493 1.282-2.071 4.974-3.506 8.205S93 103.418 93 103.624s3.809.376 8.464.376h8.464l-3.987-8.25c-2.192-4.537-4.424-8.399-4.958-8.581s-1.374.718-1.868 2"/><path fill-opacity=".105" fill-rule="evenodd" d="M84.5 13.485c-26.727 5.909-47.81 22.192-59.638 46.061Q19.188 70.999 22.893 71c.526 0 3.26-4.026 6.076-8.946 5.515-9.638 16.321-21.989 24.567-28.081 33.651-24.859 80.68-20.679 109.627 9.745 5.845 6.142 13.509 17.327 15.784 23.032.819 2.054 1.987 3.25 3.174 3.25 2.635 0 2.354-2.11-1.239-9.279-11.786-23.518-33.336-40.545-59.145-46.732-9.731-2.333-27.853-2.578-37.237-.504M76.125 50.72C68.205 70.002 68.205 70 70.831 70c1.633 0 3.043-2.083 6.767-10 2.587-5.5 5.275-10 5.973-10 2.568 0 2.551 5.437-.037 12.314C80.496 70.385 80.524 70 82.98 70c1.309 0 2.684-1.381 4.058-4.074 2.314-4.536 3.748-4.27 5.976 1.107.87 2.101 1.916 2.967 3.583 2.967 2.692 0 2.501-.927-2.045-9.898-2.157-4.255-2.369-5.41-1.388-7.562.636-1.397 1.673-2.54 2.303-2.54 1.786 0 7.984 13.664 7.727 17.035-.215 2.829-.043 2.965 3.765 2.965 3.824 0 3.952-.103 3.059-2.452-.742-1.953-.222-3.989 2.555-10 1.918-4.151 3.92-7.548 4.448-7.548s3.219 4.5 5.979 10c4.35 8.669 5.352 10 7.523 10 2.45 0 2.473-.07 1.083-3.25-2.48-5.672-14.477-30.954-14.879-31.356-.212-.212-2.335 4.45-4.718 10.36s-4.7 11.163-5.148 11.673c-.452.514-3.126-4.054-6.001-10.25C98.008 41.03 95.358 36 94.971 36s-1.592 2.339-2.678 5.197-2.437 5.351-3.002 5.539c-.565.189-2.042-2.158-3.282-5.214s-2.537-5.728-2.882-5.939-3.496 6.601-7.002 15.137m-54.562 84.53c1.587 5.119 6.973 14.687 11.96 21.25 11.456 15.075 28.249 26.007 48.618 31.648 7.315 2.026 33.374 2.252 39.859.346 23.552-6.923 38.184-16.359 50.817-32.768 5.125-6.658 11.562-19.295 10.817-21.238-1.054-2.747-3.218-1.524-5.457 3.085-9.6 19.76-31.037 37.204-53.356 43.419-9.337 2.601-25.073 3.553-35.111 2.125-9.07-1.29-23.115-6.32-31.276-11.2-11.993-7.173-27.728-24.556-32.369-35.76-1.592-3.843-5.667-4.664-4.502-.907m18.55.402c-.79 1.733-.869 2.992-.228 3.633 1.565 1.565 3.775.13 4.937-3.205.996-2.855.907-3.08-1.214-3.08-1.504 0-2.701.908-3.495 2.652m12.066.263c-1.727 4.956 1.833 5.897 4.295 1.135 1.995-3.857 1.953-4.05-.876-4.05-1.755 0-2.676.786-3.419 2.915m21.982-.368c-1.612 3.537-1.46 4.453.741 4.453 1.235 0 2.288-1.105 3-3.149 1.396-4.004 1.425-3.851-.741-3.851-1.012 0-2.362 1.146-3 2.547m52.154.703c1.533 3.77 5.685 5.212 5.685 1.975 0-2.291-2.994-5.225-5.332-5.225-1.493 0-1.531.351-.353 3.25m12.141 0c1.277 3.052 5.544 5.258 5.544 2.867 0-2.829-2.48-6.117-4.612-6.117-2.197 0-2.236.133-.932 3.25m20.544-2.7c0 1.729 3.269 6.45 4.467 6.45 2.337 0 2.805-1.937 1.096-4.544-1.377-2.102-5.563-3.537-5.563-1.906"/><path fill-opacity=".285" fill-rule="evenodd" d="M87.277 13.584c-10.246 1.72-22.651 6.585-31.713 12.437-5.599 3.616-6.512 4.541-4.735 4.8 1.21.177 1.942.74 1.627 1.25-1.014 1.64 1.193.993 3.915-1.149 3.489-2.743 18.948-9.407 26.846-11.572 4.48-1.228 10.157-1.727 19.783-1.74 16.001-.022 24.083 1.868 38.389 8.977 5.285 2.626 10.114 4.38 11.587 4.208 2.212-.259 1.637-.887-4.656-5.089-8.918-5.955-21.052-10.507-32.82-12.311-10.898-1.672-17.397-1.628-28.223.189m-48.829 146.5c-1.614 2.612 14.74 15.734 26.632 21.369 13.268 6.286 21.476 8.023 37.92 8.023 15.99 0 24.523-1.725 36.678-7.412 12.027-5.629 27.915-18.356 26.738-21.422-.799-2.082-2.662-1.201-10.862 5.135-7.869 6.079-22.119 13.333-31.054 15.808-9.243 2.559-30.537 3.052-40.086.928C71.291 179.594 57.887 173.147 48 165c-5.985-4.931-8.684-6.32-9.552-4.916"/></svg>