<svg xmlns="http://www.w3.org/2000/svg" width="250" height="250" version="1.1" fill="#000000"><path fill-opacity=".086" d="M 102.500 1.622 C 79.808 5.715, 60.710 14.827, 43.159 29.932 C 23.520 46.835, 9.689 69.229, 3.362 94.368 C -0.055 107.945, -0.992 132.064, 1.370 145.636 C 5.995 172.206, 17.060 193.937, 35.426 212.519 C 50.291 227.558, 65.547 237.281, 83.787 243.340 C 100.527 248.901, 110.658 250.311, 129.500 249.704 C 148.038 249.106, 159.911 246.611, 174.833 240.178 C 212.929 223.754, 241.809 187.592, 248.070 148.475 C 248.773 144.089, 249.719 140.072, 250.174 139.550 C 251.230 138.335, 251.266 108.718, 250.210 109.370 C 249.775 109.639, 248.846 106.178, 248.146 101.679 C 244.365 77.400, 230.502 52.028, 210.985 33.668 C 192.748 16.512, 171.047 5.618, 147.074 1.586 C 135.417 -0.375, 113.474 -0.357, 102.500 1.622 M 109.583 15.037 C 26.436 28.147, -13.302 121.405, 35.060 189.928 C 50.758 212.170, 75.618 228.002, 104.500 234.149 C 112.593 235.872, 136.741 235.849, 145.500 234.111 C 200.276 223.239, 238.805 174.052, 235.667 119 C 234.082 91.180, 223.134 66.954, 203.090 46.910 C 187.508 31.328, 172.653 22.882, 151.074 17.334 C 140.264 14.555, 119.817 13.423, 109.583 15.037 M 115.321 29.096 C 70.040 33.309, 33.425 70.255, 29.087 116.111 C 25.349 155.616, 46.222 193.292, 81.598 210.896 C 96.844 218.483, 108.498 221.211, 125.500 221.171 C 147.579 221.120, 167.150 214.322, 184.897 200.539 C 202.775 186.655, 215.859 164.755, 220.063 141.680 C 221.510 133.739, 221.510 116.261, 220.063 108.320 C 210.983 58.487, 165.903 24.389, 115.321 29.096 M 81 86.975 L 81 96.950 97.250 97.225 L 113.500 97.500 113.663 105.500 C 113.752 109.900, 113.864 117.213, 113.913 121.750 L 114 130 125 130 L 136 130 136.087 121.750 C 136.136 117.213, 136.248 109.900, 136.337 105.500 L 136.500 97.500 152.750 97.225 L 169 96.950 169 86.975 L 169 77 125 77 L 81 77 81 86.975 M 0.402 125 C 0.402 133.525, 0.556 137.012, 0.743 132.750 C 0.931 128.488, 0.931 121.513, 0.743 117.250 C 0.556 112.987, 0.402 116.475, 0.402 125 M 105.250 113.689 C 106.213 113.941, 107.787 113.941, 108.750 113.689 C 109.713 113.438, 108.925 113.232, 107 113.232 C 105.075 113.232, 104.287 113.438, 105.250 113.689 M 142.269 113.693 C 143.242 113.947, 144.592 113.930, 145.269 113.656 C 145.946 113.382, 145.150 113.175, 143.500 113.195 C 141.850 113.215, 141.296 113.439, 142.269 113.693 M 95.813 114.683 C 96.534 114.972, 97.397 114.936, 97.729 114.604 C 98.061 114.272, 97.471 114.036, 96.417 114.079 C 95.252 114.127, 95.015 114.364, 95.813 114.683 M 152.813 114.683 C 153.534 114.972, 154.397 114.936, 154.729 114.604 C 155.061 114.272, 154.471 114.036, 153.417 114.079 C 152.252 114.127, 152.015 114.364, 152.813 114.683 M 88.813 115.683 C 89.534 115.972, 90.397 115.936, 90.729 115.604 C 91.061 115.272, 90.471 115.036, 89.417 115.079 C 88.252 115.127, 88.015 115.364, 88.813 115.683 M 164.813 116.683 C 165.534 116.972, 166.397 116.936, 166.729 116.604 C 167.061 116.272, 166.471 116.036, 165.417 116.079 C 164.252 116.127, 164.015 116.364, 164.813 116.683 M 75.566 118.582 C 70.823 120.319, 68 122.714, 68 125 C 68 129.941, 79.721 133.764, 102.647 136.300 L 113.500 137.500 113.769 160.250 L 114.038 183 125 183 L 135.962 183 136.231 160.250 L 136.500 137.500 147.377 136.297 C 172.768 133.488, 184.838 128.863, 181.426 123.250 C 180.176 121.193, 174.754 118.363, 170.500 117.546 C 168.096 117.084, 168.274 117.271, 171.395 118.483 C 182.808 122.916, 179.281 127.937, 162.227 131.532 C 131.068 138.102, 72 133.237, 72 124.102 C 72 121.770, 73.658 120.381, 78.605 118.568 C 80.747 117.783, 81.825 117.141, 81 117.141 C 80.175 117.141, 77.730 117.789, 75.566 118.582" stroke="none" fill="#ffffff" fill-rule="evenodd"/><path fill-opacity=".262" d="M 104.027 1.623 C 94.790 3.170, 77.429 8.758, 69.500 12.737 C 16.998 39.084, -10.499 98.818, 3.880 155.287 C 9.198 176.173, 19.889 195.605, 34.482 210.909 C 45.224 222.173, 55.955 229.977, 70.460 237.071 C 100.331 251.681, 133.493 253.941, 164.634 243.487 C 183.660 237.100, 198.351 227.903, 213.129 213.127 C 232.400 193.859, 243.496 172.628, 248.659 145.143 C 250.496 135.365, 251.574 113.003, 250.252 112.097 C 249.774 111.769, 248.841 107.942, 248.180 103.594 C 246.768 94.306, 241.426 77.787, 236.937 68.829 C 215.663 26.368, 171.837 -0.301, 124 0.106 C 117.675 0.160, 108.687 0.842, 104.027 1.623 M 104.655 15.597 C 62.931 23.135, 28.940 54.493, 17.461 96.035 C 14.222 107.759, 13.058 129.134, 14.954 142.100 C 18.384 165.558, 28.858 186.027, 46.416 203.584 C 63.973 221.142, 84.442 231.616, 107.900 235.046 C 120.878 236.943, 142.239 235.779, 154 232.532 C 201.108 219.529, 233.699 178.797, 235.724 130.395 C 237.116 97.135, 226.483 69.432, 203.520 46.487 C 186.712 29.692, 167.242 19.525, 144.119 15.470 C 133.752 13.652, 115.089 13.712, 104.655 15.597 M 106 30.948 C 80.450 36.379, 58.067 51.777, 44.087 73.540 C 19.713 111.485, 25.667 162.210, 58.185 193.650 C 101.671 235.694, 171.780 228.031, 205.093 177.593 C 234.476 133.104, 221.604 73.086, 176.460 44.087 C 156.055 30.980, 129.310 25.993, 106 30.948 M 81 87 L 81 98 97 98 L 113 98 113 104.928 L 113 111.856 107.250 112.439 C 81.348 115.063, 67 119.511, 67 124.918 C 67 130.565, 78.232 134.008, 108.250 137.560 L 113 138.123 113 160.561 L 113 183 125 183 L 137 183 137 160.561 L 137 138.123 141.750 137.560 C 171.768 134.008, 183 130.565, 183 124.918 C 183 119.511, 168.652 115.063, 142.750 112.439 L 137 111.856 137 104.928 L 137 98 153 98 L 169 98 169 87 L 169 76 125 76 L 81 76 81 87 M 0.385 125 C 0.385 131.875, 0.545 134.688, 0.740 131.250 C 0.936 127.813, 0.936 122.188, 0.740 118.750 C 0.545 115.313, 0.385 118.125, 0.385 125 M 96.500 115.141 C 82.048 116.975, 72.500 120.543, 72.500 124.108 C 72.500 126.287, 81.026 129.976, 90.169 131.752 C 100.711 133.801, 145.753 134.156, 156.500 132.275 C 166.235 130.572, 173.384 128.319, 176.142 126.086 C 178.433 124.231, 178.443 124.147, 176.624 122.137 C 173.397 118.571, 162.125 115.764, 145.676 114.429 L 137 113.725 137 121.862 L 137 130 125 130 L 113 130 113 122 L 113 114 108.250 114.126 C 105.638 114.196, 100.350 114.653, 96.500 115.141" stroke="none" fill="#ffffff" fill-rule="evenodd"/><path fill-opacity=".11" d="M 107.500 1.389 C 53.651 10.351, 13.882 47.876, 2.922 100.066 C 0.318 112.462, -0.156 133.320, 1.899 145 C 6.791 172.808, 22.467 200.922, 42.748 218.264 C 86.911 256.028, 146.650 259.991, 194.372 228.323 C 223.508 208.989, 242.821 178.460, 248.666 142.500 C 251.753 123.508, 250.179 106.403, 243.499 86.340 C 236.841 66.344, 227.753 51.571, 213.091 36.909 C 195.207 19.025, 174.373 7.825, 149 2.453 C 138.695 0.272, 117.481 -0.272, 107.500 1.389 M 115.500 13.637 C 87.724 16.594, 65.986 26.712, 46.696 45.663 C 23.465 68.485, 11.967 97.539, 13.319 130 C 15.212 175.450, 44.457 215.191, 87.271 230.494 C 127.750 244.961, 172.802 234.775, 203.580 204.196 C 225.431 182.485, 236.347 156.086, 236.325 125 C 236.303 94.705, 226.379 69.902, 205.605 48.224 C 188.715 30.599, 169.302 19.831, 146.574 15.483 C 138.734 13.983, 121.737 12.973, 115.500 13.637 M 104 31.954 C 86.448 35.697, 70.716 44.531, 57.153 58.258 C 38.664 76.972, 30.026 98.225, 30.026 125 C 30.026 151.811, 38.800 173.206, 57.551 192.123 C 76.139 210.875, 98.173 219.974, 125 219.974 C 151.435 219.974, 171.854 211.884, 190.300 194.102 C 211.869 173.309, 220.845 151.007, 219.723 121 C 219.131 105.189, 216.906 95.567, 211.065 83.554 C 201.303 63.478, 182.181 45.258, 162.099 36.898 C 145.695 30.069, 122.209 28.070, 104 31.954 M 80 87 L 80 98 96.500 98 L 113 98 113 104.857 L 113 111.713 104.250 112.378 C 92.717 113.255, 78.020 116.328, 72.443 119.028 C 64.415 122.914, 64.415 127.086, 72.443 130.972 C 78.023 133.674, 92.214 136.632, 104.023 137.556 L 113 138.258 113 161.129 L 113 184 125 184 L 137 184 137 161.143 L 137 138.287 145.750 137.622 C 157.283 136.745, 171.980 133.672, 177.557 130.972 C 185.585 127.086, 185.585 122.914, 177.557 119.028 C 171.972 116.324, 157.279 113.255, 145.708 112.375 L 136.915 111.707 137.208 105.103 L 137.500 98.500 153.750 98.225 L 170 97.950 170 86.975 L 170 76 125 76 L 80 76 80 87 M 102.500 115.113 C 85.124 116.739, 72.554 120.445, 73.191 123.754 C 74.920 132.734, 132.061 137.008, 163.099 130.479 C 175.303 127.912, 180.153 123.670, 174.312 120.673 C 168.775 117.831, 139.163 113.170, 137.461 114.872 C 137.208 115.126, 137 118.589, 137 122.568 L 137 129.804 131 130.500 C 127.700 130.883, 122.300 130.883, 119 130.500 L 113 129.804 113 121.902 C 113 117.556, 112.662 114.061, 112.250 114.135 C 111.838 114.209, 107.450 114.649, 102.500 115.113 M 0.336 125 C 0.336 129.125, 0.513 130.813, 0.728 128.750 C 0.944 126.688, 0.944 123.313, 0.728 121.250 C 0.513 119.188, 0.336 120.875, 0.336 125" stroke="none" fill="#ffffff" fill-rule="evenodd"/><path fill-opacity=".281" d="M 111.503 1.172 C 89.303 3.701, 67.663 12.556, 49.289 26.629 C 41.461 32.624, 30.346 44.004, 25.536 50.947 L 22.572 55.225 26.969 58.974 L 31.366 62.723 35.527 57.070 C 49.140 38.578, 73.405 22.405, 96.523 16.415 C 108.825 13.227, 128.538 12.129, 141.105 13.932 C 152.417 15.554, 168.695 21.093, 178.789 26.753 C 201.267 39.359, 220.442 60.964, 229.117 83.460 C 235.547 100.133, 236.362 104.802, 236.366 125 C 236.369 141.819, 236.132 144.382, 233.754 153.206 C 229.176 170.191, 220.365 186.553, 208.163 200.730 L 202.030 207.856 205.978 210.983 C 210.761 214.771, 211.543 214.483, 218.619 206.334 C 238.671 183.241, 249.104 155.920, 249.296 126 C 249.433 104.733, 245.335 87.397, 235.736 68.625 C 216.764 31.525, 181.881 6.946, 140.504 1.521 C 127.803 -0.143, 123.510 -0.195, 111.503 1.172" stroke="none" fill="#ffffff" fill-rule="evenodd"/></svg>