<svg width="500" height="500" viewBox="0 0 500 500" fill="#000000" xmlns="http://www.w3.org/2000/svg">
<path fill-rule="evenodd" clip-rule="evenodd" d="M219.351 2.02016C34.8924 25.7943 -59.8735 231.311 41.122 388.538C152.563 562.025 422.214 526.004 486.888 328.991C543.428 156.768 397.971 -21.0003 219.351 2.02016ZM256.546 97.4646C268.938 107.908 300.704 168.739 300.676 181.97C300.649 195.616 231.778 322.511 214.929 339.965C197.688 357.823 106.678 356.358 106.678 338.22C106.678 332.301 237.847 100.649 243.714 96.2126C249.117 92.1263 250.354 92.2465 256.546 97.4646ZM344.003 248.948C345.418 250.67 357.386 270.649 370.599 293.349C405.3 352.965 406.482 350.98 336.216 350.98C283.297 350.98 276.94 349.65 276.94 338.573C276.94 335.203 312.149 272.629 325.963 251.452C329.982 245.287 339.862 243.917 344.003 248.948Z" fill="#000000"/>
</svg>
