<svg xmlns="http://www.w3.org/2000/svg" width="200" height="200" fill="#000000"><path fill-opacity=".192" fill-rule="evenodd" d="M107.037 34.25A86230 86230 0 0 1 86.85 80.141c-5.968 13.552-10.842 25.027-10.832 25.5s2.147 2.244 4.75 3.937l7.392 4.806 2.661 1.728 13.239-19.306c7.282-10.618 13.601-19.712 14.042-20.208.446-.501 1.265.165 1.843 1.5.572 1.321 5.982 13.427 12.02 26.902l10.98 24.5 4.007.307c7.971.609 14.071-4.612 14.03-12.007-.02-3.621-1.869-8.232-16.963-42.3-5.604-12.65-13.257-30.65-17.006-40-8.056-20.094-9.124-22.5-9.987-22.5-.359 0-4.854 9.563-9.989 21.25m-83.37-1.886c-5.775 1.636-9.346 4.127-12.513 8.728-2.071 3.01-2.297 4.285-1.929 10.91.357 6.449 1.029 8.694 4.787 16 3.723 7.238 6.308 10.433 17.43 21.543 35.547 35.512 88.489 62.036 128.095 64.178 20.186 1.091 30.463-5.397 30.463-19.232 0-6.047-1.371-6.658-2.418-1.078-.806 4.295-6.029 9.052-11.819 10.762-7.26 2.144-23.852 1.399-35.009-1.571-23.771-6.33-47.94-18.409-72.254-36.112-21.457-15.623-35.706-35.299-35.9-49.575-.094-6.938 1.877-10.17 8.489-13.917 4.152-2.353 5.233-2.495 18.411-2.408 10.967.071 15.462.53 20.75 2.115 3.713 1.114 6.75 1.698 6.75 1.3 0-1.258-15.529-6.922-26.22-9.562-12.704-3.138-29.965-4.106-37.113-2.081m28.37 12.81C44.356 47.378 40 52.726 40 59.95c0 4.967 1.18 5.207 2.853.58 1.778-4.916 5.193-7.178 12.923-8.559 7.96-1.423 16.862-.34 28.955 3.522 4.273 1.365 8.034 2.487 8.358 2.494.658.014 2.911-4.593 2.911-5.953 0-.479-2.93-1.846-6.511-3.038-13.244-4.407-29.597-6.076-37.452-3.822M156.73 97.676c7.348 16.449 8.37 21.204 5.746 26.732-3.207 6.76-14.318 9.939-26.976 7.718-3.3-.579-7.8-1.318-10-1.644l-4-.591 2.777 1.601c1.528.88 7.153 3.004 12.5 4.72 8.646 2.773 11.108 3.128 22.223 3.203 10.079.069 13.112-.25 15.662-1.645 8.608-4.71 9.845-13.485 3.648-25.886-2.9-5.803-5.99-9.685-14.433-18.134C157.968 87.838 152.468 83 151.654 83c-1.076 0 .311 4.008 5.076 14.676M52.062 158.75C34.508 198.652 35.161 197.056 37.213 195c2.578-2.583 43.217-62.947 42.662-63.368-.206-.157-2.175-1.348-4.375-2.648-2.2-1.299-4.934-2.952-6.075-3.673-2.003-1.266-2.598-.121-17.363 33.439"/><path fill-opacity=".214" fill-rule="evenodd" d="M116 13.871c0 .479-9 21.248-20 46.154s-20 45.43-20 45.608c0 .651 13.508 9.366 14.489 9.349.556-.01 2.44-2.147 4.187-4.75s7.879-11.59 13.626-19.972l10.45-15.24 4.777 10.74c2.627 5.907 6.646 14.79 8.931 19.74s5.672 12.487 7.528 16.75c3.699 8.497 4.391 8.884 12.086 6.746 5.808-1.613 8.45-5.222 8.296-11.33-.105-4.205-1.829-8.942-9.273-25.472-11.358-25.221-22.296-50.899-28.516-66.944-2.612-6.738-5.161-12.25-5.665-12.25s-.916.392-.916.871M28.901 32.05c-12.49 1.43-18.895 6.836-19.708 16.631-1.683 20.304 24.709 49.347 69.562 76.548 28.966 17.567 59.925 27.907 84.315 28.161 9.908.103 10.942-.08 16.498-2.921 7.487-3.829 10.709-8.928 10.226-16.185l-.319-4.784-1.226 4.065c-2.323 7.699-8.954 11.378-21.982 12.197-10.63.668-20.85-1.014-35.767-5.889-20.176-6.593-37.507-15.895-65-34.887-12.529-8.655-26.803-26.162-31.444-38.566-4.321-11.549-1.976-19.048 7.481-23.92 5.542-2.855 6.381-2.994 17.393-2.879 8.211.087 13.671.706 18.806 2.133 3.98 1.105 7.031 1.678 6.781 1.273C83.16 40.832 58.025 33.599 48 32.518c-10.86-1.171-12.592-1.213-19.099-.468m19.418 15.021c-5.879 2.91-9.334 9.155-7.778 14.06.523 1.646.97 1.272 2.791-2.335 1.805-3.577 3.004-4.593 7.168-6.071 6.954-2.469 21.043-1.736 32.5 1.691 10.509 3.143 10.424 3.143 11.841.034 1.087-2.385.934-2.646-2.349-4.018-13.172-5.504-36.291-7.263-44.173-3.361M151 83.464c0 .33 2.481 6.064 5.513 12.743s6.145 14.271 6.917 16.87c3.582 12.062-3.874 19.854-19.044 19.901-6.461.02-14.682-1.058-19.886-2.607-1.345-.401-1.673-.264-1 .417 1.609 1.63 19.795 7.084 27.718 8.314 13.399 2.079 25.404-.807 29.054-6.985 5.013-8.487-.915-22.635-15.752-37.596C157.815 87.76 151 82.187 151 83.464M66.701 126.25c-.282.688-6.684 15.2-14.227 32.25-16.524 37.352-16.911 38.264-15.707 37 .523-.55 6.266-8.875 12.762-18.5 6.495-9.625 16.003-23.658 21.129-31.184l9.32-13.684-5.87-3.566c-6.605-4.013-6.699-4.042-7.407-2.316"/><path fill-opacity=".105" fill-rule="evenodd" d="M112.761 22.25c-6.155 14.361-32.891 75.081-34.866 79.188-1.042 2.166-1.895 4.087-1.895 4.27s3.173 2.385 7.05 4.893c5.361 3.468 7.367 4.298 8.373 3.463.728-.604 6.848-9.303 13.601-19.331s12.65-18.65 13.105-19.16c.469-.527 1.53.769 2.457 3 3.814 9.176 22.601 49.999 23.365 50.77.459.464 3.349.321 6.422-.317 7.197-1.494 9.627-4.334 9.627-11.251 0-4.185-2.073-9.644-13.335-35.115-7.334-16.588-16.845-38.822-21.136-49.41S117.405 14 117.012 14s-2.306 3.712-4.251 8.25M26.5 32.61c-10.41 2.708-14.786 6.246-16.485 13.326-4.552 18.977 20.337 48.537 64.018 76.031 20.984 13.207 42.944 22.704 64.967 28.095 13.647 3.341 34.589 3.46 40.624.232 6.252-3.344 9.392-7.607 9.297-12.621-.043-2.295-.324-3.498-.623-2.673-1.329 3.667-6.989 8.147-12.283 9.722-21.733 6.467-60.31-5.707-98.257-31.006-29.746-19.832-45.668-39.88-45.734-57.584-.023-6.046.167-6.558 3.754-10.145 2.481-2.481 5.632-4.328 9.181-5.382 6.752-2.005 20.504-2.066 28.541-.125 8.193 1.978 9.062 1.76 2.5-.627-12.277-4.465-24.405-6.943-36-7.355-6.325-.224-12.4-.174-13.5.112m24 13.892c-5.948 2.103-9.515 6.549-9.437 11.764.058 3.822.16 3.993 1.053 1.755 2.237-5.608 5.696-7.696 14.884-8.987 7.053-.991 17.373.303 27.5 3.447 7.45 2.313 8.087 2.367 9.263.792 1.942-2.6 1.065-3.617-4.829-5.608-13.381-4.519-30.593-5.935-38.434-3.163m102.005 39.515c.399 1.257 2.522 6.156 4.716 10.885 4.948 10.66 7.779 18.637 7.779 21.917 0 4.488-4.531 10.776-9.075 12.595-7.855 3.142-11.636 3.144-28.925.017-5.217-.944 11.306 4.501 18.549 6.112 10.173 2.263 24.59 1.719 29.494-1.114 11.062-6.39 7.953-21.369-8.01-38.588-4.311-4.65-9.507-9.728-11.546-11.283-3.588-2.737-3.684-2.754-2.982-.541M54.78 153.739a27406 27406 0 0 1-15.205 34.511c-1.403 3.162-2.359 5.75-2.125 5.75.612 0 41.55-60.834 41.549-61.741-.001-.583-7.255-5.203-11.023-7.02-.297-.143-6.236 12.682-13.196 28.5"/><path fill-opacity=".634" fill-rule="evenodd" d="M115.082 18.095c-1.068 2.423-10.212 23.122-20.319 45.998l-18.376 41.593 6.131 4.098c3.372 2.255 6.617 4.238 7.211 4.407 1.18.338 7.54-8.188 20.157-27.02 4.484-6.694 8.482-12.161 8.884-12.149.401.012 3.369 5.974 6.594 13.25a14887 14887 0 0 0 11.998 26.978l6.134 13.75h3.784c5.538 0 10.543-2.415 11.818-5.702 1.956-5.046.251-11.504-7.626-28.891-9.138-20.172-22.918-52.453-29.201-68.407-2.491-6.325-4.69-11.682-4.888-11.905s-1.233 1.578-2.301 4M54.508 155.25c-7.035 16.088-13.674 31.05-14.754 33.25-1.263 2.574-1.442 3.465-.502 2.5 1.118-1.147 35.477-51.898 39.05-57.679.65-1.052-8.057-7.321-10.168-7.321-.46 0-6.591 13.162-13.626 29.25"/></svg>