<svg xmlns="http://www.w3.org/2000/svg" width="64" height="64" version="1.1" fill="#000000"><path fill-opacity=".365" d="M 18.500 2.882 C 6.619 8.586, 0.026 18.969, 0.011 32 C 0.003 38.220, 0.493 40.524, 2.882 45.500 C 8.589 57.388, 18.977 63.980, 32 63.980 C 45.359 63.980, 55.259 57.494, 61.602 44.585 C 64.549 38.586, 65 36.675, 65 30.168 C 65 26.042, 64.714 22.952, 64.365 23.302 C 64.016 23.651, 62.494 21.363, 60.984 18.218 C 55.415 6.624, 44.912 0.026, 32 0.011 C 25.780 0.003, 23.476 0.493, 18.500 2.882 M 31 15.441 C 31 21.814, 31.396 26, 32 26 C 32.600 26, 33 22.020, 33 16.059 C 33 10.510, 32.558 5.845, 32 5.500 C 31.357 5.103, 31 8.656, 31 15.441 M 26.232 21 C 26.232 22.925, 26.438 23.712, 26.689 22.750 C 26.941 21.788, 26.941 20.212, 26.689 19.250 C 26.438 18.288, 26.232 19.075, 26.232 21 M 37.015 21.583 C 37.024 23.188, 37.461 25.175, 37.987 26 C 38.638 27.021, 38.748 26.224, 38.330 23.500 C 37.572 18.557, 36.995 17.715, 37.015 21.583 M 0.349 32 C 0.349 36.675, 0.522 38.587, 0.732 36.250 C 0.943 33.912, 0.943 30.087, 0.732 27.750 C 0.522 25.412, 0.349 27.325, 0.349 32 M 24.500 26 C 24.840 26.550, 25.316 27, 25.559 27 C 25.802 27, 26 26.550, 26 26 C 26 25.450, 25.523 25, 24.941 25 C 24.359 25, 24.160 25.450, 24.500 26 M 19.500 36 C 19.160 36.550, 19.359 37, 19.941 37 C 20.523 37, 21 36.550, 21 36 C 21 35.450, 20.802 35, 20.559 35 C 20.316 35, 19.840 35.450, 19.500 36 M 42.500 36 C 42.840 36.550, 43.316 37, 43.559 37 C 43.802 37, 44 36.550, 44 36 C 44 35.450, 43.523 35, 42.941 35 C 42.359 35, 42.160 35.450, 42.500 36" stroke="none" fill="#000000" fill-rule="evenodd"/><path fill-opacity=".382" d="M 22.173 1.484 C 4.440 7.018, -4.848 27.992, 2.790 45.258 C 5.401 51.160, 12.757 58.539, 18.804 61.320 C 25.480 64.391, 38.553 64.375, 45.268 61.289 C 51.689 58.336, 59.386 50.269, 61.494 44.280 C 62.420 41.651, 63.587 38.719, 64.089 37.764 C 65.264 35.525, 65.282 24.708, 64.110 25.432 C 63.620 25.735, 62.937 24.476, 62.591 22.635 C 61.698 17.873, 56.503 10.476, 51.218 6.441 C 43.332 0.419, 31.860 -1.539, 22.173 1.484 M 31 17.800 C 31 30.077, 30.697 34.007, 29.750 34.030 C 29.063 34.047, 29.321 34.538, 30.325 35.122 C 31.329 35.706, 32.384 35.949, 32.671 35.663 C 33.608 34.726, 32.932 3.532, 31.954 2.554 C 31.349 1.949, 31 7.523, 31 17.800 M 26 18.441 C 26 20.884, 25.550 23.160, 25 23.500 C 23.507 24.423, 23.793 27.936, 25.500 29.643 C 26.325 30.468, 27.010 30.998, 27.023 30.821 C 27.036 30.645, 27.317 26.788, 27.648 22.250 C 28.070 16.451, 27.915 14, 27.125 14 C 26.461 14, 26 15.819, 26 18.441 M 36.342 22.108 C 36.679 26.724, 36.964 30.645, 36.977 30.821 C 36.990 30.998, 37.675 30.468, 38.500 29.643 C 40.186 27.957, 40.536 24, 39 24 C 38.450 24, 38 22.002, 38 19.559 C 38 17.116, 37.489 14.803, 36.866 14.417 C 36.036 13.904, 35.895 15.973, 36.342 22.108 M 0.320 32 C 0.320 35.575, 0.502 37.038, 0.723 35.250 C 0.945 33.462, 0.945 30.538, 0.723 28.750 C 0.502 26.962, 0.320 28.425, 0.320 32 M 18.149 29.887 C 17.183 30.499, 17.636 30.866, 19.739 31.175 C 23.264 31.692, 25.222 31.168, 24.447 29.915 C 23.738 28.767, 19.942 28.751, 18.149 29.887 M 39.553 29.915 C 38.778 31.168, 40.736 31.692, 44.261 31.175 C 46.364 30.866, 46.817 30.499, 45.851 29.887 C 44.058 28.751, 40.262 28.767, 39.553 29.915 M 18.952 36.089 C 17.995 37.879, 18.096 38.128, 19.656 37.828 C 20.657 37.635, 21.628 36.695, 21.812 35.739 C 22.278 33.318, 20.306 33.560, 18.952 36.089 M 42.188 35.739 C 42.372 36.695, 43.333 37.633, 44.323 37.824 C 45.911 38.129, 45.969 37.924, 44.821 36.085 C 43.239 33.552, 41.729 33.353, 42.188 35.739 M 29.500 38 C 29.160 38.550, 29.359 39, 29.941 39 C 30.523 39, 31 38.550, 31 38 C 31 37.450, 30.802 37, 30.559 37 C 30.316 37, 29.840 37.450, 29.500 38 M 23.768 43.168 C 24.350 43.750, 25.415 44.028, 26.137 43.788 C 26.886 43.538, 26.432 43.085, 25.080 42.731 C 23.417 42.296, 23.026 42.426, 23.768 43.168 M 38.500 43 C 36.870 43.701, 36.812 43.872, 38.191 43.930 C 39.121 43.968, 40.160 43.550, 40.500 43 C 41.211 41.850, 41.176 41.850, 38.500 43 M 36.500 51.528 C 34.300 52.253, 33.400 52.861, 34.500 52.878 C 35.600 52.896, 37.850 52.292, 39.500 51.536 C 43.279 49.806, 41.739 49.801, 36.500 51.528 M 27 52.376 C 28.925 53.123, 30.687 53.569, 30.917 53.367 C 31.650 52.721, 30.587 52.249, 27 51.626 L 23.500 51.018 27 52.376" stroke="none" fill="#000000" fill-rule="evenodd"/><path fill-opacity=".46" d="M 22.300 1.862 C 11.528 5.584, 4.524 12.949, 1.339 23.905 C -2.808 38.171, 4.814 54.363, 18.661 60.702 C 36.140 68.704, 57.103 59.480, 62.189 41.548 C 62.821 39.321, 63.711 37.072, 64.169 36.550 C 65.143 35.437, 65.315 25.352, 64.343 26.324 C 63.982 26.685, 62.933 24.757, 62.014 22.040 C 58.538 11.772, 51.049 4.577, 40.614 1.478 C 34.095 -0.458, 28.686 -0.344, 22.300 1.862 M 30.774 4.750 C 30.530 6.813, 30.218 13.900, 30.081 20.500 C 29.944 27.100, 29.653 33.962, 29.435 35.750 C 29.069 38.750, 29.258 39, 31.895 39 C 34.274 39, 34.750 38.583, 34.750 36.500 C 34.750 35.125, 34.407 34, 33.988 34 C 33.570 34, 33.288 30.962, 33.363 27.250 C 33.626 14.265, 32.992 1, 32.109 1 C 31.620 1, 31.019 2.688, 30.774 4.750 M 35.874 17.691 C 35.664 27.348, 35.802 28.814, 37.191 31.713 C 37.926 33.246, 39.146 34.500, 39.902 34.500 C 42.146 34.500, 42.096 39.603, 39.832 41.652 C 37.882 43.417, 37.773 43.412, 36.306 41.487 C 34.850 39.574, 34.821 39.593, 35.541 41.992 C 36.235 44.305, 36.159 44.377, 34.482 42.992 C 32.879 41.668, 32.731 41.669, 33.171 43 C 33.443 43.825, 34.192 44.455, 34.833 44.400 C 35.475 44.345, 37.013 44.200, 38.250 44.078 C 39.487 43.956, 41.761 42.337, 43.303 40.480 L 46.105 37.105 44.016 35.016 C 42.038 33.038, 42.080 30.313, 44.069 31.543 C 44.581 31.859, 45.483 31.819, 46.073 31.455 C 47.636 30.489, 43.255 27.688, 41.334 28.425 C 40.120 28.891, 39.862 28.501, 40.204 26.711 C 40.448 25.437, 40.052 23.838, 39.324 23.158 C 38.596 22.478, 38 19.940, 38 17.520 C 38 10.723, 36.022 10.882, 35.874 17.691 M 25.658 18.244 C 25.316 21.128, 24.644 23.619, 24.164 23.779 C 23.683 23.939, 23.516 25.246, 23.790 26.684 C 24.148 28.554, 23.947 29.085, 23.085 28.552 C 22.422 28.143, 20.526 28.368, 18.872 29.053 C 16.855 29.889, 16.269 30.548, 17.092 31.057 C 17.767 31.474, 18.876 31.601, 19.558 31.339 C 21.821 30.471, 22.264 33.127, 20.108 34.637 C 17.299 36.604, 17.444 37.679, 20.964 40.967 C 24.640 44.400, 29.549 45.618, 30.432 43.315 C 30.965 41.929, 30.825 41.900, 29.379 43.101 C 27.880 44.344, 27.781 44.232, 28.404 41.992 C 28.979 39.920, 28.910 39.795, 27.998 41.250 C 26.636 43.422, 25.597 43.454, 23.529 41.386 C 21.639 39.497, 22.031 35.222, 24.404 31.834 C 26.241 29.211, 26.528 30.098, 24.883 33.316 C 23.805 35.425, 23.831 35.439, 25.633 33.716 C 27.140 32.276, 27.567 30.105, 27.847 22.466 C 28.220 12.256, 26.711 9.345, 25.658 18.244 M 0.300 32 C 0.300 35.025, 0.487 36.263, 0.716 34.750 C 0.945 33.237, 0.945 30.762, 0.716 29.250 C 0.487 27.738, 0.300 28.975, 0.300 32 M 38.031 30.500 C 38.031 31.050, 38.467 32.175, 39 33 C 39.533 33.825, 39.969 34.050, 39.969 33.500 C 39.969 32.950, 39.533 31.825, 39 31 C 38.467 30.175, 38.031 29.950, 38.031 30.500 M 13.030 39.576 C 12.998 40.729, 17.354 45.191, 18.091 44.759 C 18.334 44.617, 18.199 44.917, 17.790 45.426 C 17.362 45.961, 16.191 45.578, 15.024 44.521 C 13.911 43.514, 13.019 43.097, 13.043 43.595 C 13.127 45.389, 23.044 52.133, 26.398 52.677 C 29.999 53.262, 30.960 54.847, 30.986 60.250 C 30.994 61.763, 31.450 63, 32 63 C 32.550 63, 33 60.961, 33 58.469 C 33 53.849, 33.149 53.678, 38.097 52.603 C 40.959 51.981, 50.961 45.015, 50.985 43.628 C 50.993 43.148, 50.345 43.299, 49.544 43.964 C 48.743 44.628, 47.548 44.839, 46.889 44.432 C 46.162 43.982, 45.953 44.114, 46.357 44.769 C 46.724 45.362, 45.781 46.730, 44.262 47.810 C 41.358 49.874, 33.619 52.425, 34.478 51.036 C 34.753 50.591, 36.445 49.937, 38.239 49.582 C 40.033 49.227, 42.400 48.216, 43.500 47.334 L 45.500 45.731 43.500 46.522 C 42.400 46.957, 39.625 47.786, 37.333 48.365 C 33.869 49.239, 33.046 49.929, 32.450 52.458 L 31.734 55.500 31.117 52.677 C 30.605 50.333, 29.566 49.533, 25 47.960 C 18.389 45.683, 18.716 45.731, 19.595 47.155 C 20.048 47.886, 19.869 48.037, 19.106 47.565 C 18.185 46.996, 18.177 46.491, 19.074 45.411 C 20.510 43.681, 18.436 40.619, 16.366 41.413 C 15.644 41.690, 14.605 41.148, 14.057 40.208 C 13.509 39.269, 13.047 38.984, 13.030 39.576 M 49.570 40.679 C 49.075 41.968, 48.687 42.112, 48.131 41.211 C 47.576 40.313, 46.761 40.626, 45.130 42.361 C 43.241 44.372, 43.132 44.837, 44.434 45.336 C 45.346 45.686, 45.879 45.432, 45.738 44.714 C 45.607 44.046, 46.009 43.595, 46.631 43.710 C 47.953 43.956, 51.575 40.242, 50.784 39.451 C 50.489 39.155, 49.942 39.708, 49.570 40.679 M 30.023 45.472 C 29.053 46.641, 29.091 47.233, 30.207 48.350 C 31.390 49.533, 31.905 49.543, 33.455 48.409 C 34.976 47.297, 35.076 46.796, 34.026 45.531 C 32.438 43.617, 31.573 43.605, 30.023 45.472 M 21.523 48.902 C 22.060 49.428, 23.850 50.179, 25.500 50.570 C 29.370 51.488, 28.501 50.635, 24.023 49.121 C 22.110 48.475, 20.985 48.376, 21.523 48.902" stroke="none" fill="#000000" fill-rule="evenodd"/><path fill-opacity=".963" d="M 24.407 1.407 C 18.089 2.940, 13.247 5.877, 8.653 10.962 C 4.075 16.030, 2.496 19.202, 1.043 26.250 C -0.243 32.489, 0.847 40.810, 3.671 46.310 C 5.744 50.349, 11.620 56.602, 15.726 59.139 C 19.197 61.285, 29.976 64.357, 30.876 63.457 C 31.128 63.205, 30.922 60.877, 30.417 58.283 C 29.610 54.135, 29.139 53.495, 26.500 52.959 C 20.270 51.692, 8.358 41.633, 11.089 39.945 C 11.732 39.548, 11.689 38.313, 10.968 36.417 C 9.202 31.776, 9.617 23.666, 11.841 19.350 C 14.397 14.389, 19.511 9.514, 24.218 7.551 C 28.594 5.725, 29 5.679, 29 7 C 29 7.550, 27.988 8.003, 26.750 8.007 C 25.512 8.010, 23.150 8.907, 21.500 10 C 19.850 11.093, 18.950 11.975, 19.500 11.962 C 20.050 11.948, 21.374 11.276, 22.441 10.468 C 23.509 9.661, 25.309 9.013, 26.441 9.028 C 27.839 9.047, 27.056 9.794, 24 11.354 C 12.400 17.277, 9.480 33.526, 18.494 41.995 C 19.839 43.258, 20.695 44.685, 20.397 45.166 C 19.768 46.184, 26.092 49.037, 28.718 48.921 C 29.776 48.874, 29.990 48.636, 29.244 48.336 C 28.553 48.057, 28.242 47.418, 28.553 46.915 C 28.864 46.412, 28.586 46, 27.937 46 C 27.104 46, 27.161 45.508, 28.128 44.336 C 29.363 42.839, 29.290 42.784, 27.405 43.789 C 25.776 44.656, 24.829 44.569, 23.155 43.396 C 21.970 42.566, 20.997 42.250, 20.994 42.693 C 20.990 43.137, 20.292 42.165, 19.441 40.533 C 18.191 38.137, 18.125 37.134, 19.098 35.318 C 19.760 34.080, 20.742 33.341, 21.280 33.673 C 21.819 34.006, 22.032 33.653, 21.755 32.889 C 21.477 32.125, 20.744 31.612, 20.125 31.750 C 19.506 31.887, 18.438 32.112, 17.750 32.250 C 14.818 32.836, 16.806 29.400, 20 28.361 C 22.797 27.450, 23.433 26.775, 23.169 25.001 C 22.970 23.670, 23.249 23.036, 23.866 23.417 C 24.503 23.811, 25.154 21.761, 25.577 18.026 C 25.952 14.712, 26.584 12, 26.981 12 C 27.378 12, 27.985 15.643, 28.328 20.096 C 28.985 28.616, 28.085 31.957, 23.898 36.549 C 22.204 38.406, 22.171 38.799, 23.542 40.757 C 25.227 43.163, 28.228 42.757, 27.267 40.253 C 26.895 39.285, 27.070 38.925, 27.716 39.325 C 29.318 40.315, 29.661 37.712, 29.865 23 C 30.067 8.379, 30.783 1, 31.998 1 C 33.120 1, 33.936 9.727, 34.147 24 C 34.351 37.748, 34.706 40.300, 36.284 39.325 C 36.942 38.918, 37.099 39.300, 36.701 40.336 C 35.783 42.729, 39.642 42.537, 40.933 40.126 C 41.711 38.672, 41.472 37.832, 39.865 36.378 C 35.683 32.593, 34.854 29.509, 35.589 20.456 C 35.966 15.805, 36.663 12, 37.138 12 C 37.612 12, 38 13.294, 38 14.875 C 38 19.291, 39.148 24.027, 40.078 23.452 C 40.537 23.168, 40.749 24.230, 40.549 25.811 C 40.235 28.295, 40.479 28.632, 42.343 28.285 C 45.365 27.722, 48.911 30.448, 47.292 32.090 C 46.379 33.017, 45.748 33.035, 44.700 32.166 C 43.284 30.991, 42 31.546, 42 33.333 C 42 33.883, 42.297 34.036, 42.660 33.673 C 43.023 33.310, 43.978 33.951, 44.781 35.097 C 45.996 36.832, 46.024 37.586, 44.951 39.591 C 44.242 40.916, 43.063 42, 42.331 42 C 41.599 42, 41 42.402, 41 42.893 C 41 45.012, 37.460 45.051, 35.759 42.950 C 34.791 41.756, 34 41.130, 34 41.560 C 34 41.991, 34.788 43.242, 35.750 44.341 C 37.161 45.952, 37.203 46.231, 35.964 45.783 C 34.930 45.409, 34.429 45.843, 34.429 47.114 C 34.429 48.151, 34.773 49, 35.194 49 C 37.037 49, 43.943 45.717, 43.524 45.039 C 43.008 44.203, 47.030 40.108, 48.333 40.144 C 48.792 40.156, 49.467 39.832, 49.833 39.423 C 50.200 39.014, 49.861 39.050, 49.080 39.504 C 47.973 40.147, 47.837 39.907, 48.463 38.414 C 50.784 32.882, 51.274 28.052, 49.984 23.441 C 48.491 18.109, 43.390 12.380, 38.670 10.735 C 35.944 9.785, 35.819 9.581, 37.551 8.903 C 39.354 8.198, 39.332 8.135, 37.250 8.070 C 36.013 8.032, 35 7.520, 35 6.933 C 35 4.491, 43.274 8.551, 47.699 13.165 C 54.060 19.795, 55.961 30.730, 52.079 38.346 C 50.758 40.936, 50.609 41.739, 51.603 40.915 C 54.629 38.403, 53.761 40.758, 50.209 44.695 C 46.388 48.931, 39.829 53, 36.824 53 C 35.886 53, 34.859 53.420, 34.541 53.933 C 33.859 55.037, 32.113 64, 32.580 64 C 32.757 64, 35.286 63.505, 38.201 62.901 C 50.457 60.358, 60.818 50.246, 62.603 39.083 C 62.966 36.813, 63.654 34.714, 64.131 34.419 C 64.609 34.124, 65 32.532, 65 30.882 C 65 29.232, 64.606 28.125, 64.125 28.423 C 63.644 28.720, 62.945 27.059, 62.573 24.732 C 61.702 19.282, 58.152 13.274, 53.115 8.723 C 48.075 4.169, 44.861 2.531, 38.201 1.122 C 31.891 -0.214, 31.006 -0.196, 24.407 1.407 M 44.113 12.197 C 45.550 13.464, 47.524 15.752, 48.499 17.281 C 49.473 18.811, 50.498 19.836, 50.775 19.558 C 51.579 18.754, 46.137 12.132, 43.709 10.961 C 41.813 10.045, 41.870 10.221, 44.113 12.197 M 15.620 15.254 C 12.160 19.790, 10.978 23.367, 11.137 28.815 C 11.266 33.224, 11.316 33.128, 11.991 27.184 C 12.526 22.473, 13.502 19.742, 15.833 16.434 C 19.449 11.305, 19.292 10.440, 15.620 15.254 M 52.161 27.500 C 52.057 29.700, 51.741 32.625, 51.458 34 L 50.944 36.500 52.019 34.036 C 52.610 32.680, 52.927 29.755, 52.722 27.536 L 52.349 23.500 52.161 27.500 M 0.232 32 C 0.232 33.925, 0.438 34.712, 0.689 33.750 C 0.941 32.788, 0.941 31.212, 0.689 30.250 C 0.438 29.288, 0.232 30.075, 0.232 32 M 39 32.941 C 39 33.459, 39.445 34.157, 39.989 34.493 C 40.555 34.843, 40.723 34.442, 40.382 33.552 C 39.717 31.820, 39 31.503, 39 32.941 M 12.079 35.583 C 12.127 36.748, 12.364 36.985, 12.683 36.188 C 12.972 35.466, 12.936 34.603, 12.604 34.271 C 12.272 33.939, 12.036 34.529, 12.079 35.583 M 30.750 39.662 C 31.438 39.940, 32.563 39.940, 33.250 39.662 C 33.938 39.385, 33.375 39.158, 32 39.158 C 30.625 39.158, 30.063 39.385, 30.750 39.662 M 16.500 43 C 17.495 44.100, 18.535 45, 18.810 45 C 19.085 45, 18.495 44.100, 17.500 43 C 16.505 41.900, 15.465 41, 15.190 41 C 14.915 41, 15.505 41.900, 16.500 43" stroke="none" fill="#000000" fill-rule="evenodd"/></svg>