<svg xmlns="http://www.w3.org/2000/svg" width="2084" height="2084" fill="#000000"><path fill-opacity=".063" fill-rule="evenodd" d="M989.5.633c-19.817 1.2-50.139 3.724-65.367 5.442C803.832 19.644 689.226 53.229 581.5 106.482c-43.019 21.267-76.138 40.272-115 65.994-59.716 39.523-109.034 79.968-161.545 132.479-42.395 42.396-72.459 77.426-106.558 124.16C131.641 520.61 78.561 626.643 45.543 734.459 22.457 809.845 9.444 878.6 2.288 963c-2.22 26.184-2.539 124.972-.487 151 11.342 143.895 45.861 270.506 107.088 392.792 52.769 105.391 116.979 193.57 202.261 277.76 49.694 49.058 96.577 87.184 154.85 125.928 143.495 95.404 306.956 153 479.5 168.955 45.036 4.165 117.467 5.418 157.5 2.724 70.995-4.776 129.399-13.768 193-29.714 73.049-18.316 139.437-42.786 207.5-76.481 118.115-58.475 223.205-138.103 312.077-236.464 132.59-146.748 220.577-328.326 253.427-523 7.954-47.131 13.545-103.84 14.198-144l.212-13 .586 14c.322 7.7.585-7.15.584-33s-.264-40.25-.584-32l-.582 15-.213-12.5c-.446-26.029-3.653-67.573-7.759-100.5-41.001-328.799-238.335-619.586-530.305-781.449C1426.18 63.101 1294.794 21.293 1158.5 6.018 1118.281 1.511 1104.109.801 1049 .531c-29.425-.144-56.2-.098-59.5.102m25 95.963c-99.356 3.718-187.655 19.737-278 50.436C619.051 186.94 511.958 249.041 416 332.883c-19.941 17.424-65.693 63.176-83.117 83.117-73.093 83.656-128.491 173.731-168.845 274.537C96.011 860.47 78.821 1046.679 114.607 1226c46.099 231.007 175.028 434.374 364.893 575.566 126.902 94.371 281.849 156.904 439.5 177.373 45.802 5.947 71.767 7.52 123.5 7.484 55.856-.039 88.764-2.397 139.5-9.996 264.785-39.659 501.289-190.78 648.575-414.427 23.141-35.139 38.853-62.605 58.35-102 137.997-278.83 129.741-606.901-22.127-879.353-69.342-124.4-167.037-232.292-284.904-314.64-68.555-47.896-148.103-88.562-227.899-116.503-82.052-28.732-167.316-45.904-255.495-51.457-17.366-1.094-69.491-1.994-84-1.451m-27 42.494c-221.213 13.611-428.577 106.979-585.004 263.406-157.071 157.071-250.199 364.633-263.47 587.215-1.308 21.939-1.319 81.802-.018 103.289 9.364 154.737 55.451 298.677 137.821 430.44 56.487 90.359 134.337 175.024 220.671 239.985 193.144 145.332 435.323 207.533 673.5 172.983 132.785-19.262 259.05-67.691 371.5-142.49 51.21-34.064 92.353-67.797 137.091-112.4 34.063-33.96 57.63-60.991 85.316-97.859 99.173-132.061 160.843-291.234 176.539-455.659 3.997-41.869 5.128-101.72 2.636-139.5-9.826-149.001-52.401-286.826-127.16-411.651-52.208-87.171-122.007-168.226-200.731-233.104-147.791-121.796-330.224-193.219-522.902-204.718-19.643-1.172-86.358-1.132-105.789.063M530 529.557C530 530.567 818.258 904 819.038 904c.416 0 28.428-35.887 62.247-79.75s62.441-80.946 63.603-82.408l2.112-2.658-80.822-104.842L785.357 529.5l-127.679-.254c-70.223-.139-127.678 0-127.678.311m633.893 173.693c-73.887 95.838-245.69 318.7-381.785 495.25-136.094 176.55-253.438 328.762-260.765 338.25L508.022 1554h268.506l135.295-175.5c74.413-96.525 135.651-175.5 136.084-175.5s61.655 78.975 136.047 175.5l135.26 175.5h255.912l-6.813-8.822c-151.102-195.658-391.813-508.469-391.813-509.173 0-.523 87.3-114.182 194-252.573s194.36-252.254 194.8-253.027c.685-1.204-18.394-1.405-133.134-1.405h-133.933zM.462 1041.5c-.001 25.85.129 36.568.287 23.819.158-12.75.158-33.9 0-47s-.287-2.669-.287 23.181"/><path fill-opacity=".125" fill-rule="evenodd" d="M986.5 1.038C914.283 5.214 846.078 15.76 779 33.122 534.04 96.524 317.972 249.96 176.342 461.087 77.547 608.359 18.517 776.069 3.55 952c-4.073 47.875-4.576 122.505-1.12 166 8.1 101.915 27.504 191.932 61.12 283.534 45.054 122.769 111.847 233.688 202.038 335.512 16.012 18.077 62.477 64.612 80.412 80.532 92.872 82.441 194.759 145.881 306.903 191.093 188.502 75.997 398.704 94.701 600.097 53.398 113.455-23.268 223.11-66.058 324-126.433 53.056-31.75 110.534-74.026 158-116.212 19.997-17.773 56.06-53.429 75.273-74.424 82.003-89.61 148.409-193.941 194.765-306 36.625-88.535 61.117-184.1 71.889-280.5 4.812-43.059 5.503-57.464 5.539-115.5.035-56.669-.442-68.069-4.518-108-21.272-208.393-103.499-402.433-239.005-564-109.23-130.239-252.977-234.232-410.804-297.195C1328.764 34.16 1230.037 11.434 1118 2.414c-22.833-1.838-108.078-2.73-131.5-1.376M997 97.104c-185.908 9.07-363.75 71.959-514.5 181.938-40.219 29.342-75.597 60.135-115.012 100.107-43.28 43.891-76.114 83.944-109.725 133.851-25.489 37.846-42.651 67.502-63.888 110.398C53.639 906.647 64.855 1241.349 223.785 1516c63.524 109.777 148.678 205.477 251.416 282.553 104.049 78.059 223.763 133.876 351.299 163.794 46.136 10.823 90.908 17.744 144.5 22.338 16.024 1.374 31.309 1.76 70 1.77 48.741.013 60.741-.493 95.5-4.027 200.128-20.347 387.081-103.171 537.954-238.323 16.792-15.042 49.913-47.942 65.544-65.105 186.979-205.31 274.583-482.256 239.455-757-17.282-135.163-63.038-263.726-135.447-380.575-57.921-93.467-137.247-181.035-225.506-248.935-133.402-102.631-291.94-167.929-458.752-188.949-52.629-6.631-111.238-8.95-162.748-6.437m3 41.58c-194.726 8.955-383.184 81.731-534 206.21-37.457 30.916-79.74 72.483-111.495 109.606-46.25 54.068-88.921 118.417-120.955 182.4-80.237 160.265-111.018 340.674-88.481 518.6 32.512 256.675 174.816 488.549 388.931 633.735 61.192 41.492 123.925 73.835 193.432 99.726 162.621 60.574 339.557 72.71 510.068 34.986 209.742-46.404 396.778-167.088 526.838-339.94 107.3-142.602 169.873-314.881 179.744-494.877 1.502-27.391.659-93.977-1.508-119.13-12.562-145.783-56.322-279.764-131.229-401.793-148.667-242.184-404.621-400.938-687.845-426.63-29.772-2.701-51.866-3.582-84.861-3.384-17.676.106-35.064.327-38.639.491M539.198 542.432C597.374 618.286 818.618 904.917 819 904.928c.788.023 127.5-164.797 127.5-165.845 0-.516-36.225-47.979-80.5-105.475l-80.5-104.536-128.302-.036L528.896 529zm755.508-9.182c-1.885 2.337-71.754 92.9-155.264 201.25l-390.764 507c-131.411 170.5-239.377 310.563-239.926 311.25-.796.999 26.046 1.25 133.543 1.25h134.54l135.303-175.51c74.417-96.53 135.611-175.393 135.987-175.25s60.833 78.335 134.35 173.76 134.437 174.289 135.378 175.254c1.615 1.656 8.812 1.74 129.457 1.5l127.747-.254-199.496-258.747-199.496-258.746 182.139-236.254A1986263 1986263 0 0 1 1553.66 546.25l13.318-17.25h-268.844z"/><path fill-opacity=".144" fill-rule="evenodd" d="M1003 .59c-29.895 1.604-47.368 2.827-64.493 4.513C768.142 21.876 607.093 79.377 464.5 174.344 236.379 326.271 76.32 563.093 21.584 829.676-3.025 949.534-6.572 1073.003 11.12 1194c16.051 109.777 48.289 212.374 98.037 312 51.218 102.57 114.323 190.372 194.826 271.076C469.38 1942.888 680.066 2046.101 913 2075.429c68.459 8.619 146.456 10.061 218.5 4.04 331.97-27.749 632.714-216.152 804.788-504.168 78.538-131.455 126.297-276.202 141.647-429.301 3.866-38.562 4.56-54.597 4.54-105-.02-50.208-.646-64.537-4.547-104-18.773-189.906-89.903-371.063-205.745-524-99.439-131.28-226.312-235.597-374.683-308.07-121.926-59.555-249.012-93.111-390-102.976C1092.702.918 1015.627-.088 1003 .59m-2.5 96.08c-80.601 3.926-157.905 17.129-232.663 39.739C491.86 219.872 268.833 424.941 162.506 693c-35.875 90.443-56.592 181.718-64.689 285-1.732 22.094-1.732 104.906 0 127 7.63 97.326 25.575 180.504 57.387 266 74.547 200.344 213.902 368.803 396.796 479.664 120.673 73.146 257.282 118.547 398 132.271 57.773 5.635 121.138 5.813 178.5.501 187.252-17.341 366.984-91.027 512-209.911 45.816-37.559 95.958-87.713 132.994-133.025 68.187-83.425 122.356-179.262 158.543-280.5 28.263-79.07 45.292-158.63 52.652-246 2.565-30.448 2.575-115.195.018-145-7.196-83.861-22.176-156.212-48.24-232.988-27.721-81.66-69.104-163.698-117.792-233.512-105.606-151.431-251.444-268.126-421.175-337.012-98.898-40.138-199.77-62.528-308.5-68.475-16.447-.9-72.601-1.117-88.5-.343m4.5 41.951c-15.983.787-50.125 3.455-63 4.923-185.878 21.195-356.342 96.504-497.32 219.71-20.787 18.167-63.259 60.639-81.426 81.426-107.973 123.547-179.533 270.441-209.682 430.421-10.801 57.31-14.932 102.887-14.994 165.399-.049 49.766 1.591 76.178 7.513 121 21.867 165.5 92.349 327.068 198.488 455 36.836 44.4 84.185 91.431 127.099 126.247 133.968 108.686 297.725 177.545 467.822 196.718 58.161 6.555 126.199 7.29 184.5 1.991 153.121-13.915 303.578-68.411 430-155.747 127.875-88.34 228.266-204.346 297.011-343.209 30.501-61.611 51.413-118.656 67.89-185.197 26.543-107.191 32.935-221.264 18.602-331.96-22.02-170.06-92.194-330.587-202.189-462.515-19.204-23.033-36.669-41.922-59.972-64.859-23.588-23.219-33.357-32.125-55.342-50.45-95.715-79.782-208.11-139.414-327.973-174.009-59.544-17.186-119.324-27.919-184.027-33.042-18.434-1.459-86.192-2.675-103-1.847m-475.512 391.36c2.843 4.6 288.837 374.519 289.551 374.519 1.315 0 128.081-164.639 127.684-165.831-.179-.536-36.516-47.931-80.75-105.322L785.548 529H657.215c-83.625 0-128.122.342-127.727.981m639.54 165.799c-70.66 91.696-248.109 321.916-394.331 511.6-146.223 189.683-266.096 345.496-266.385 346.25-.444 1.156 20.45 1.365 133.831 1.337l134.357-.033L912 1378.999c74.525-96.764 135.725-175.921 136-175.905.275.017 61.459 79.203 135.964 175.968L1319.427 1555h127.787c79.84 0 127.786-.356 127.786-.948 0-.521-89.55-117.096-199-259.055-109.45-141.958-199-258.505-199-258.992 0-.622 379.137-493.257 389.235-505.755.807-.999-26.09-1.244-133.863-1.22l-134.872.031z"/><path fill-opacity=".139" fill-rule="evenodd" d="M1010 .675c-228.224 7.202-443.945 86.89-621.172 229.464-57.603 46.339-112.283 101.003-158.494 158.446C101.081 549.255 23.434 741.118 4.547 946.5c-5.457 59.337-5.455 129.966.005 190.5 17.296 191.75 87.771 374.925 203.511 528.951 32.946 43.846 56.412 70.712 98.35 112.603 53.746 53.686 100.336 91.857 161.663 132.449 145.438 96.266 310.486 153.479 485.924 168.442 58.143 4.959 125.978 4.6 186-.984 160.723-14.953 316.26-67.628 454-153.754 128.69-80.466 240.879-191.283 323.666-319.707 90.223-139.958 145.638-300.746 160.777-466.5 3.242-35.495 3.984-53.448 3.989-96.5.005-45.213-.828-64.092-4.522-102.5-17.374-180.67-82.643-354.871-188.226-502.373-64.631-90.291-144.332-170.985-233.208-236.114C1510.752 94.224 1340.657 27.633 1161 7.037c-48.206-5.526-103.565-7.859-151-6.362m-23.5 96.443c-177.134 10.46-348.654 70.893-493.564 173.902C341.677 378.542 225.299 528.875 158.137 703.5 123.47 793.638 103.074 888.897 97.009 989c-1.289 21.272-1.289 83.728 0 105 7.051 116.385 33.091 224.622 79.296 329.599 38.704 87.936 90.528 168.903 156.751 244.901 15.311 17.571 65.034 67.161 83.05 82.828 96.845 84.218 202.721 145.567 320.394 185.651 171.657 58.473 354.238 66.529 530.452 23.406 174.398-42.679 335.961-136.288 459.386-266.167 146.915-154.598 236.709-351.654 257.101-564.218 2.932-30.564 3.873-52.073 3.873-88.5 0-79.638-8.563-150.596-27.342-226.557-36.554-147.867-106.245-281.086-208.642-398.837-14.875-17.105-64.754-67.241-81.328-81.746-66.012-57.774-134.432-103.762-209.5-140.813-114.749-56.636-236.282-88.649-366.5-96.538-19.199-1.163-87.119-1.094-107.5.109m17 41.981c-270.342 11.282-522.429 144.182-684.712 360.98C224.506 626.032 165.272 772.352 145.552 928c-17.08 134.816-3.647 271.102 39.424 399.961 38.183 114.238 99.767 221.128 179.201 311.039 81.325 92.049 182.68 168.313 291.612 219.419 235.784 110.619 502.808 115.453 741.59 13.423 238.438-101.882 422.574-303.372 502.942-550.342 41.569-127.744 54.139-261.283 37.133-394.5-29.21-228.806-145.136-437.976-323.954-584.522-94.919-77.789-207.571-136.545-326-170.032-92.366-26.118-188.043-37.352-284-33.347M529 528.994c0 .79 273.335 356.159 286.706 372.752l3.422 4.247 63.936-82.928c35.165-45.611 63.902-83.521 63.86-84.247S910.54 690.475 866.165 633l-80.683-104.5-128.241-.254c-85.089-.168-128.241.083-128.241.748m641.331 164.756c-516.196 669.632-662.049 858.908-662.702 860-.596.998 26.498 1.25 134.136 1.25h134.882l135.32-175.535c74.427-96.545 135.701-175.407 136.165-175.25.465.157 61.536 79.035 135.713 175.285l134.867 175 128.644.254c70.754.139 128.644.022 128.644-.26s-89.772-116.947-199.493-259.254c-109.722-142.307-199.493-258.965-199.492-259.24 0-.275 87.747-114.308 194.993-253.407S1567 529.532 1567 529.343s-60.675-.343-134.834-.343h-134.834z"/></svg>