<svg xmlns="http://www.w3.org/2000/svg" width="24" height="24" fill="#000000"><g clip-path="url(#a)"><path fill="#000000" d="M0 2a2 2 0 0 1 2-2h20a2 2 0 0 1 2 2v20a2 2 0 0 1-2 2H2a2 2 0 0 1-2-2V2Z"/><path fill="#000000" d="M17.236 13.043h2.535a.24.24 0 0 0 .16-.059.203.203 0 0 0 .069-.144v-1.68a.202.202 0 0 0-.067-.149.24.24 0 0 0-.162-.061h-3.553l-2.8-5.783a.288.288 0 0 0-.11-.121.324.324 0 0 0-.165-.046h-2.286a.324.324 0 0 0-.165.046.288.288 0 0 0-.112.12l-2.798 5.777H4.23a.246.246 0 0 0-.165.064.21.21 0 0 0-.049.07.195.195 0 0 0-.015.083v1.68c0 .056.024.11.067.149a.24.24 0 0 0 .162.061h2.535l-2.743 5.662a.194.194 0 0 0 .022.194c.02.028.048.052.08.068A.244.244 0 0 0 4.23 19h2.04c.06 0 .117-.016.166-.045a.288.288 0 0 0 .113-.122L12 7.583l5.452 11.25c.024.05.063.092.113.122s.107.045.166.045h2.04a.245.245 0 0 0 .11-.026.221.221 0 0 0 .082-.07.196.196 0 0 0 .017-.2l-2.744-5.661Z"/></g><defs><clipPath id="a"><path fill="#000000" d="M0 0h24v24H0z"/></clipPath></defs></svg>