<svg xmlns="http://www.w3.org/2000/svg" width="64" height="64" version="1.1" fill="#000000"><path fill-opacity=".106" d="M 24.599 19.817 C 21.450 20.559, 19.647 23.749, 21.246 25.750 C 21.912 26.584, 21.910 27, 21.239 27 C 20.686 27, 19.908 28.012, 19.511 29.250 C 18.899 31.156, 18.716 31.232, 18.321 29.750 C 17.295 25.910, 13.918 29.165, 13.777 34.130 C 13.716 36.285, 14.294 37.756, 15.476 38.449 C 16.462 39.027, 18.542 40.539, 20.100 41.810 C 25.871 46.518, 35.602 47.413, 41.110 43.741 C 42.975 42.498, 45.680 40.959, 47.122 40.321 C 49.876 39.101, 52.051 33.850, 50.075 33.192 C 49.484 32.995, 49 31.971, 49 30.917 C 49 29.863, 48.325 29, 47.500 29 C 46.649 29, 46 29.897, 46 31.071 C 46 32.949, 45.854 32.997, 44.439 31.582 C 42.600 29.743, 33.568 27.075, 30.031 27.325 C 28.460 27.436, 27.443 26.910, 27.233 25.878 C 26.701 23.264, 37.705 22.656, 40.868 25.125 C 43.639 27.288, 45.028 26.824, 44.285 23.983 C 43.734 21.873, 42.513 20.796, 40 20.201 C 36.660 19.409, 27.319 19.177, 24.599 19.817 M 31.269 20.693 C 32.242 20.947, 33.592 20.930, 34.269 20.656 C 34.946 20.382, 34.150 20.175, 32.500 20.195 C 30.850 20.215, 30.296 20.439, 31.269 20.693" stroke="none" fill="#000000" fill-rule="evenodd"/><path fill-opacity=".368" d="M 25.335 20.222 C 23.595 20.782, 21.949 22.086, 21.679 23.120 C 21.100 25.335, 22.270 25.585, 23.919 23.598 C 24.558 22.827, 26.189 21.919, 27.541 21.579 C 28.893 21.240, 30 20.520, 30 19.981 C 30 18.837, 29.574 18.859, 25.335 20.222 M 36 20.883 C 36 21.498, 36.533 22, 37.186 22 C 37.838 22, 39.411 22.977, 40.682 24.171 C 41.952 25.364, 43.229 26.105, 43.518 25.816 C 44.411 24.923, 42.584 21.521, 41 21.128 C 40.175 20.924, 38.712 20.534, 37.750 20.261 C 36.788 19.989, 36 20.269, 36 20.883 M 23.250 29.910 C 19.588 31.627, 18.978 32.359, 18.843 35.201 C 18.725 37.682, 18.531 37.260, 18.061 33.500 L 17.436 28.500 15.870 32 C 14.059 36.047, 14.428 37.774, 17.386 39.102 C 18.549 39.624, 21.029 41.165, 22.898 42.526 C 27.766 46.071, 37.161 46.059, 42.405 42.500 C 44.431 41.125, 46.492 40, 46.985 40 C 48.573 40, 49.165 38.028, 48.495 34.976 C 47.591 30.861, 46.199 31.251, 45.728 35.750 L 45.336 39.500 45.168 35.776 C 45.029 32.686, 44.461 31.773, 41.838 30.416 C 36.771 27.796, 28.255 27.564, 23.250 29.910 M 33 31.393 C 33 32.342, 35.993 32.820, 36.527 31.956 C 36.852 31.430, 36.191 31, 35.059 31 C 33.927 31, 33 31.177, 33 31.393 M 27.500 39 C 27.132 39.595, 28.323 40, 30.441 40 C 34.762 40, 34.303 39.940, 37.968 40.991 C 39.936 41.555, 41.204 41.479, 41.641 40.772 C 42.008 40.177, 41.870 39.962, 41.333 40.294 C 40.796 40.626, 39.100 40.246, 37.564 39.449 C 34.360 37.787, 28.414 37.521, 27.500 39" stroke="none" fill="#000000" fill-rule="evenodd"/><path fill-opacity=".084" d="M 23.757 22.250 C 22.462 23.488, 22.099 23.996, 22.951 23.380 C 23.803 22.765, 25.850 21.788, 27.500 21.209 C 29.978 20.341, 30.118 20.144, 28.306 20.079 C 27.099 20.036, 25.052 21.012, 23.757 22.250 M 36.109 20.443 C 36.353 20.686, 38.202 22.005, 40.218 23.373 C 42.573 24.971, 43.683 25.336, 43.321 24.393 C 43.011 23.586, 41.485 22.268, 39.928 21.463 C 37.212 20.058, 35.183 19.516, 36.109 20.443 M 21.568 31.341 C 19.503 33.406, 19.141 34.503, 19.637 37.191 C 19.973 39.011, 20.965 41.072, 21.843 41.770 C 26.185 45.228, 36.723 45.568, 41.703 42.411 C 42.986 41.598, 44.189 39.511, 44.582 37.414 C 45.129 34.497, 44.848 33.404, 43.101 31.657 C 41.307 29.862, 39.532 29.441, 32.528 29.150 C 24.615 28.820, 23.957 28.952, 21.568 31.341 M 16.843 34.500 C 16.647 36.975, 16.826 39, 17.243 39 C 17.659 39, 18 36.975, 18 34.500 C 18 32.025, 17.820 30, 17.601 30 C 17.381 30, 17.040 32.025, 16.843 34.500 M 25.250 31.491 C 21.278 33.217, 21.052 34.592, 24.750 34.539 C 26.855 34.509, 27.575 35.027, 27.820 36.750 C 28.060 38.446, 27.642 39, 26.119 39 C 25.008 39, 23.641 38.212, 23.080 37.250 C 22.209 35.754, 22.056 35.899, 22.030 38.250 C 22.001 40.951, 22.108 41, 28.059 41 C 32.430 41, 33.917 41.326, 33.395 42.170 C 32.902 42.968, 33.227 43.127, 34.418 42.670 C 35.378 42.301, 37.477 42, 39.082 42 C 41.350 42, 42 41.547, 42 39.965 C 42 38.205, 41.715 38.082, 39.893 39.057 C 37.403 40.390, 35.406 38.991, 36.336 36.567 C 37.048 34.710, 40.105 34.505, 41.800 36.200 C 42.733 37.133, 43 36.924, 43 35.257 C 43 34.078, 42 32.413, 40.777 31.557 C 38 29.611, 29.656 29.576, 25.250 31.491 M 46.667 34.667 C 46.300 35.033, 46.039 36.496, 46.086 37.917 C 46.170 40.453, 46.188 40.447, 47.053 37.550 C 47.962 34.507, 47.828 33.506, 46.667 34.667" stroke="none" fill="#000000" fill-rule="evenodd"/><path fill-opacity=".985" d="M 37 20.430 C 37 20.705, 37.900 21.411, 39 22 C 40.100 22.589, 41 22.845, 41 22.570 C 41 22.295, 40.100 21.589, 39 21 C 37.900 20.411, 37 20.155, 37 20.430 M 23.250 30.491 C 20.375 31.740, 20 32.357, 20 35.829 C 20 38.397, 20.605 40.213, 21.750 41.079 C 23.239 42.206, 23.313 42.194, 22.250 41.002 C 21.563 40.231, 21 38.142, 21 36.359 C 21 32.821, 21.747 32.074, 27 30.355 C 29.157 29.649, 29.733 29.184, 28.500 29.144 C 27.400 29.108, 25.038 29.714, 23.250 30.491 M 34.750 29.662 C 35.438 29.940, 36.563 29.940, 37.250 29.662 C 37.938 29.385, 37.375 29.158, 36 29.158 C 34.625 29.158, 34.063 29.385, 34.750 29.662 M 42.500 36.441 C 42.500 42.195, 43.339 42.626, 44.318 37.373 C 44.651 35.587, 44.386 33.546, 43.700 32.613 C 42.714 31.271, 42.500 31.952, 42.500 36.441 M 17.195 36.500 C 17.215 38.150, 17.439 38.704, 17.693 37.731 C 17.947 36.758, 17.930 35.408, 17.656 34.731 C 17.382 34.054, 17.175 34.850, 17.195 36.500 M 24.281 35.919 C 24.123 38.024, 26.566 39.512, 27.554 37.913 C 28.173 36.911, 26.340 34, 25.090 34 C 24.725 34, 24.361 34.864, 24.281 35.919 M 38.500 36 C 38.840 36.550, 38.641 37, 38.059 37 C 37.477 37, 37 37.450, 37 38 C 37 39.521, 39.712 39.193, 40.324 37.598 C 40.897 36.104, 40.239 35, 38.774 35 C 38.284 35, 38.160 35.450, 38.500 36 M 46.158 38 C 46.158 39.375, 46.385 39.938, 46.662 39.250 C 46.940 38.563, 46.940 37.438, 46.662 36.750 C 46.385 36.063, 46.158 36.625, 46.158 38 M 26 43.008 C 28.473 43.792, 38.721 44.335, 37.917 43.640 C 37.687 43.441, 34.350 43.040, 30.500 42.747 C 26.431 42.438, 24.547 42.547, 26 43.008" stroke="none" fill="#000000" fill-rule="evenodd"/></svg>