<svg xmlns="http://www.w3.org/2000/svg" xml:space="preserve" width="86.858" height="86.858" style="enable-background:new 0 0 86.858 86.858" fill="#000000"><path d="m15.95 44.01 19.219-24.037a1.1 1.1 0 0 0 .115-1.206 1.142 1.142 0 0 0-1.016-.604h-8.219c-.353 0-.692.163-.905.436L8.91 39.204V19.283c0-.618-.514-1.12-1.144-1.12H1.145c-.631 0-1.145.502-1.145 1.12v48.293c0 .618.514 1.12 1.145 1.12h6.621c.63 0 1.144-.502 1.144-1.12V50.26l.965-.017L27.25 68.344c.216.224.519.352.832.352h7.839c.436 0 .841-.248 1.034-.639a1.106 1.106 0 0 0-.18-1.229L15.95 44.01zM86.827 20.192c0-.811-.661-1.47-1.472-1.47h-7.652c-.613 0-1.168.387-1.38.961L68.04 42.18c-1.501 4.254-2.663 7.78-3.586 10.881-.892-3.129-2.003-6.653-3.431-10.881l-7.93-22.477a1.468 1.468 0 0 0-1.386-.981h-7.653c-.809 0-1.468.657-1.472 1.467l-.107 46.476c0 .396.153.766.43 1.038.277.28.648.433 1.042.433l4.745.002v-.705l.018.703a1.47 1.47 0 0 0 1.44-1.767l-.006-29.83a333.028 333.028 0 0 0 2.654 8.192l7.555 22.135c.205.594.764.994 1.392.994h4.55c.618 0 1.176-.391 1.381-.971l8.168-22.543c1.19-3.254 2.252-6.29 3.213-9.179l-.01 31.497c0 .394.152.763.43 1.039.277.278.646.431 1.039.431h4.871a1.45 1.45 0 0 0 1.039-.431c.279-.278.433-.646.433-1.04l-.032-46.471z"/></svg>