<svg xmlns="http://www.w3.org/2000/svg" width="20" height="20" fill="#000000"><circle cx="10" cy="10" r="10" fill="url(#a)"/><circle cx="10" cy="10" r="9.688" fill="#000000"/><path fill="url(#b)" fill-rule="evenodd" d="m13.454 5.313-2.81 4.013 1.79.739-5.723 4.623 2.81-4.097-2.023-.69zM1.563 8.732v2.598H3.6c.315 0 .855-.215.855-.8.007-.219-.082-.403-.3-.622.036-.064.124-.241.129-.465.007-.28-.356-.711-.684-.711zm.52.526h1.435a.232.232 0 0 1 0 .465H2.082zm0 .998h1.572a.274.274 0 0 1 0 .547H2.082zm2.393 1.074L5.87 8.732h.548l1.394 2.598h-.588L6.137 9.333l-1.08 1.997zM12.9 8.732v2.598h2.858v-.52H13.42v-.526h1.819v-.506h-1.82V9.25h2.34v-.52zm3.214 0v2.598h1.921c.335 0 .937-.387.937-.923v-.752c0-.536-.602-.923-.937-.923zm.52 2.072V9.258h1.265c.2 0 .56.096.56.55v.446c0 .454-.36.55-.56.55z" clip-rule="evenodd"/><defs><linearGradient id="a" x1="0" x2="20" y1="10" y2="10" gradientUnits="userSpaceOnUse"><stop stop-color="#A8A8A8"/><stop offset=".38" stop-color="#737373"/><stop offset="1" stop-color="#4D4D4D"/></linearGradient><linearGradient id="b" x1="1.552" x2="18.982" y1="10.824" y2="8.412" gradientUnits="userSpaceOnUse"><stop stop-color="#A8A8A8"/><stop offset=".185" stop-color="#707070"/><stop offset=".471" stop-color="#7A7A7A"/><stop offset=".645" stop-color="#4D4D4D"/></linearGradient></defs></svg>