<svg xmlns="http://www.w3.org/2000/svg" width="24" height="24" fill="#000000"><path fill="#000000" fill-rule="evenodd" d="m8.618 7.402 1.86-1.906a5.6 5.6 0 0 1-2.052-1.122l-.117-.101a5.5 5.5 0 0 1-.646-.694A5.82 5.82 0 0 1 6.427 0L1 .002a11.6 11.6 0 0 0 .578 3.611C2.405 6.14 4.146 8.332 6.382 9.69zm14.38-7.4c-.004.244-.009.488-.024.734a11.4 11.4 0 0 1-2.312 6.205c-.393.527-.853.995-1.312 1.46l-.151.155q-.149.147-.294.3l-4.742 4.855-6.096 6.248a5.571 5.571 0 0 0-.952 1.3 5.9 5.9 0 0 0-.69 2.74q-2.712.001-5.423-.002l.007-.36.01-.276c.136-2.672 1.249-5.277 3.075-7.191l5.417-5.551 6.414-6.573c1.046-1.054 1.645-2.542 1.648-4.044q2.713-.004 5.425 0m-.294 21.39c.197.854.292 1.729.296 2.605l-2.7.001q-1.365-.004-2.727.002a6 6 0 0 0-.24-1.646 5.677 5.677 0 0 0-3.812-3.854l1.934-1.978q1.08-1.108 2.163-2.213c2.535 1.531 4.419 4.147 5.086 7.084M9.285 0a2.65 2.65 0 0 0 .257 1.182c.542 1.251 2.058 1.92 3.318 1.456 1.098-.347 1.856-1.48 1.858-2.638zm5.325 23.235c.076.25.11.508.109.763H9.286c.01-.963.507-1.925 1.346-2.402 1.123-.701 2.71-.393 3.501.684.218.281.38.608.477.955" clip-rule="evenodd"/></svg>