<svg xmlns="http://www.w3.org/2000/svg" width="24" height="24" fill="#000000"><g clip-path="url(#a)"><path fill="#171717" d="M0 2a2 2 0 0 1 2-2h20a2 2 0 0 1 2 2v20a2 2 0 0 1-2 2H2a2 2 0 0 1-2-2V2Z"/><path fill="#ffffff" fill-rule="evenodd" d="M10.796 2.682c-.615.382-1.206.741-1.319.809l-.21.12v16.786l1.334.802c.726.441 1.348.801 1.378.801.03 0 .644-.36 1.371-.794l1.31-.794v-7.745l-.486-.367c-.27-.203-.487-.39-.487-.412 0-.023.217-.21.487-.412l.487-.367V3.61l-1.311-.808C12.63 2.36 12.017 2 11.98 2c-.03 0-.563.307-1.184.682Zm1.648 1.73.42.247v6.33h-1.799V4.66l.435-.24c.232-.135.45-.24.48-.248.022 0 .231.113.464.24Zm.42 11.685-.008 3.244-.397.24c-.225.134-.442.247-.48.247-.045 0-.262-.113-.494-.247l-.42-.24v-6.48h1.798v3.236ZM6.068 5.505 3.5 6.981V17.1l1.52.891c.832.494 1.986 1.176 2.562 1.513.577.345 1.072.622 1.109.622.03 0 .052-1.678.052-3.73l-.007-3.723-.517-.36c-.292-.202-.524-.382-.524-.412 0-.03.232-.224.524-.427l.524-.374V7.558c0-1.94-.022-3.536-.052-3.528-.037 0-1.213.666-2.622 1.475Zm.952 3.46v2.023H5.223l.015-1.505.022-1.513.862-.51c.472-.284.869-.517.884-.517.007 0 .015.907.015 2.023Zm.015 6.038-.023 2.135-.314-.172c-.084-.05-.22-.13-.376-.218a36.837 36.837 0 0 1-.516-.299l-.584-.33v-3.258h1.835l-.022 2.142Zm8.149 5.214v-8.105c0-7.438.007-8.105.12-8.06.067.022 1.25.697 2.621 1.483l2.502 1.446v4.082H18.78V8.015l-.914-.54-.921-.532-.023 5.072c-.007 2.786 0 5.078.015 5.1.023.016.442-.21.937-.509l.906-.539v-3.28h1.648V17.115l-1.626.959a384.697 384.697 0 0 0-3.37 1.992l-.247.15Z" clip-rule="evenodd"/></g><defs><clipPath id="a"><path fill="#ffffff" d="M0 0h24v24H0z"/></clipPath></defs></svg>