<svg xmlns="http://www.w3.org/2000/svg" width="200" height="200" fill="#000000"><path fill-opacity=".137" fill-rule="evenodd" d="M0 100.005V200.01l100.25-.255 100.25-.255.255-99.75L201.01 0H0zm.481.495c0 55 .121 77.647.269 50.326.148-27.32.148-72.32 0-100C.602 23.147.481 45.5.481 100.5m60.225-78.484c-4.411 3.47-6.89 8.371-5.75 11.369C56.487 37.412 53.58 43 49.954 43c-3.587 0-7.441 15.376-6.781 27.052.355 6.279.742 7.479 3.063 9.474 2.35 2.022 3.153 2.177 6.96 1.343 5.727-1.254 14.031-5.485 17.584-8.958 4.094-4.003 4.838-6.921 7.626-29.911.233-1.925.281 1.675.105 8-.333 12.015-1.948 18.675-5.45 22.472-2.652 2.875-4.441 9.688-3.651 13.902 1.648 8.785 9.484 13.044 22.96 12.482 7.188-.3 8.594-.103 8.948 1.252.566 2.164 5.093 2.91 8.121 1.339 1.398-.725 5.835-1.257 10.321-1.238 8.674.038 12.669-1.397 16.125-5.79 3.839-4.881 3.779-8.778-.259-16.753l-3.628-7.166 2.054-10.5c2.514-12.849 2.056-15.843-3.312-21.667-4.733-5.134-8.467-7.326-13.553-7.957-1.959-.243-4.039-.814-4.624-1.27-1.995-1.555-8.563-2.091-8.563-.698 0 4.883-10.685 6.935-14.107 2.708C88.316 29.169 88 29.07 88 30.526c0 1.281-1.294.537-4.843-2.782-2.663-2.492-6.241-5.253-7.95-6.137-4.4-2.275-11.337-2.079-14.501.409m68.94 2.987c-6.884 3.437-7.073 3.895-2.887 7.005 3.347 2.486 3.873 2.612 4.991 1.194 1.091-1.383 1.251-1.275 1.254.857.002 1.342 1.127 4.655 2.5 7.36 3.014 5.941 3.043 7.085.491 19.608l-2.006 9.84L136 74.276c3.404 5.768 9.802 7.482 12.509 3.35 2.202-3.36 3.258-12.825 1.386-12.424-.901.192-1.395-.587-1.395-2.202 0-1.467.517-2.397 1.25-2.25 1.705.341 1.561-2.616-.648-13.318-2.962-14.351-8.793-24.52-13.987-24.392-.888.022-3.349.905-5.469 1.963M104.2 36.2c-3.068 3.068 1.132 8.763 4.955 6.717 2.433-1.302 2.378-5.562-.089-6.882-2.495-1.335-3.397-1.304-4.866.165m36.835 3.734c-1.317 2.461-1.335 9.148-.033 12.57.74 1.947 1.588 2.551 3.25 2.315 2.017-.286 2.278-.958 2.545-6.547.312-6.53-.889-10.272-3.297-10.272-.786 0-1.895.87-2.465 1.934m-52.864.659c-2.303 1.613-4.764 5.434-3.456 5.366.432-.022 2.284-1.323 4.116-2.89 3.531-3.021 2.994-5.035-.66-2.476m-31.139 4.346c-2.493 4.659 3.557 8.284 6.361 3.811.796-1.27.796-2.23 0-3.5-1.62-2.584-5.054-2.752-6.361-.311M124 43.455c0 .954 5.238 5.64 5.742 5.137.891-.892-2.693-5.592-4.265-5.592-.812 0-1.477.205-1.477.455m-35.405 3.044C82.88 51.796 81.22 62.59 84.984 69.97c1.853 3.631 1.87 3.923.25 4.394-.953.277 2.091.422 6.766.32l8.5-.184 1.928-4c2.486-5.159 2.62-15.683.256-20.189-3.427-6.535-9.405-8.152-14.089-3.812m2.286 1.013c-3.592 1.94-5.882 7.253-5.877 13.639C85.008 66.919 87.797 73 90.44 73c1.025 0 .726-.743-.985-2.455C84.661 65.752 87.038 56 93 56s8.339 9.752 3.545 14.545L94.091 73h2.503c1.976 0 2.91-.896 4.433-4.25 5.361-11.811-1.399-25.963-10.146-21.238m28.213 1.617c-3.757 4.034-4.808 15.542-1.927 21.121.81 1.57.304 1.75-4.909 1.75C105.89 72 102 73.889 102 76.98c0 2.284 10.342 9.02 13.85 9.02 3.087 0 11.633-8.298 10.795-10.482-.384-1.002.014-1.518 1.172-1.518 1.883 0 1.951-.24 2.805-9.815.686-7.704.133-10.134-3.211-14.108-3.038-3.611-5.567-3.899-8.317-.948m1.695.929c-.94.549-2.175 2.672-2.744 4.72-1.449 5.215-1.353 5.47 1.386 3.676 2.272-1.489 2.565-1.458 4.5.477 2.267 2.267 2.786 7.86 1.034 11.135-.81 1.512-.708 1.934.465 1.934 5.192 0 5.585-15.985.517-21.053-2.199-2.199-2.748-2.294-5.158-.889m-72.384 9.049c-2.483 2.747-2.391 11.146.153 13.958 2.298 2.538 3.062 2.448 5.99-.711C56.328 70.433 57 68.576 57 65.576c0-7.448-4.588-10.901-8.595-6.469M90 60.5c0 .825.675 1.5 1.5 1.5s1.5-.675 1.5-1.5-.675-1.5-1.5-1.5-1.5.675-1.5 1.5m29.15 1.45c.43 1.289 1.801 1.521 1.925.325.041-.399-.465-.905-1.125-1.125s-1.02.14-.8.8m19.24 5.477c-.941 2.45.036 6.038 1.731 6.361 1.832.349 2.976-2.702 2.169-5.788-.604-2.309-3.094-2.674-3.9-.573M77.835 78.933c-1.99 1.611-2.119 2.148-1.07 4.45C77.42 84.822 78.572 86 79.324 86c2.271 0 4.92-3.656 4.228-5.836-.907-2.859-3.119-3.335-5.717-1.231m23.622 13.621c.672 1.955 1.926 4.258 2.787 5.118 1.647 1.648 3.756 1.069 3.756-1.03 0-1.721 5.971-3.712 9-3.001l2.5.587-2.233-1.658c-1.694-1.259-2.703-1.407-4.184-.615-3.13 1.676-7.905 1.223-10.083-.955-2.748-2.748-2.951-2.544-1.543 1.554m-2.291 10.341c1.768 2.831.246 7.105-2.53 7.105-2.986 0-6.076-3.357-5.258-5.713.341-.983-.516-.437-1.905 1.213s-2.329 3.793-2.089 4.763c.351 1.42-.145 1.275-2.551-.75-6.498-5.468-12.703-1.544-12.328 7.796.238 5.934 2.619 9.412 8.555 12.501 2.442 1.271 3.54 2.021 2.44 1.668-1.1-.354-4.354-.893-7.231-1.198-5.689-.604-8.269.595-8.269 3.842 0 2.502 4.661 2.613 5.311.128.435-1.667.463-1.667.573 0 .093 1.403 1.059 1.753 4.866 1.764 2.612.007 5.762.284 6.998.616 2.051.549 2.195.337 1.644-2.422-.481-2.405-.181-3.251 1.47-4.134 1.73-.926 1.914-1.533 1.106-3.657-1.339-3.523-1.217-13.145.178-14.007.812-.502.944.097.452 2.054C89.824 117.55 91.67 128 92.989 128c.466 0 1.548-.269 2.404-.597 1.388-.533 1.397-.909.082-3.451-1.673-3.236-2.02-9.407-.475-8.452.55.34 1 1.985 1 3.655 0 3.627 3.448 8.845 5.846 8.845.94 0 2.713.703 3.939 1.562 2.408 1.687 2.127 1.921 3.684-3.062.522-1.673-1.004-2.061-1.969-.5-.34.55-1.088 1-1.663 1-.574 0 .33-1.565 2.01-3.479 3.124-3.557 4.401-7.81 4.562-15.187.113-5.178-.288-5.583-4.1-4.144-2.62.988-3.578.849-6.665-.972-3.166-1.869-3.467-1.908-2.478-.323m-37.604 3.91c-1.484 4.676 2.201 17.017 6.058 20.289 1.138.965 2.765 1.36 4.122 1 2.512-.665 2.739-.119-4.16-10.015-1.605-2.302-3.453-6.293-4.107-8.869-1.025-4.035-1.29-4.368-1.913-2.405m13.049 3.767c-.668 1.74.941 5.428 2.367 5.428.5 0 1.596-.982 2.437-2.182 1.127-1.609 1.241-2.528.434-3.5-1.498-1.805-4.504-1.659-5.238.254m42.639 1.067c-1.351.57-1.629 6.435-.601 12.658 1.256 7.599 7.738 1.32 7.809-7.564.041-5.115-.026-5.237-2.958-5.427-1.65-.107-3.562.043-4.25.333m-5.131 10.804c-1.516 6.02-1.454 6.343 1.131 5.851 2.031-.388 2.216-.91 1.903-5.362-.19-2.713-.699-4.932-1.131-4.932-.431 0-1.288 1.999-1.903 4.443M75 121c0 1.1.402 2 .893 2 1.124 0 2.173-2.601 1.371-3.402C76.061 118.394 75 119.051 75 121m18.676 9.491c-4.826 1.671-5.35 2.217-4.069 4.247 1.433 2.272 3.895 3.011 3.096.93-.339-.882-.218-1.85.269-2.15.486-.301 1.172.359 1.523 1.467.445 1.403 1.511 2.015 3.506 2.015 2.359 0 2.94-.487 3.283-2.75l.416-2.75.15 2.75c.179 3.284 2.707 3.722 3.685.638 1.351-4.256-5.224-6.694-11.859-4.397m29.79.472c.977 1.079 1.511 2.654 1.187 3.5-.408 1.062.018 1.537 1.378 1.537 1.388 0 1.969-.679 1.969-2.3 0-2.815-1.746-4.7-4.355-4.7-1.879 0-1.886.076-.179 1.963m-13.466.331c-3.479 1.76-3.327 5.111.25 5.522 2.368.273 2.75-.04 2.75-2.25 0-1.411.45-2.566 1-2.566s1 1.125 1 2.5c0 2 .5 2.5 2.5 2.5 2.053 0 2.506-.492 2.532-2.75.03-2.634.094-2.668 1.5-.809.807 1.068 1.468 1.431 1.468.807 0-3.529-8.186-5.389-13-2.954m-68.898 20.43c-1.234 5.927-2.442 11.485-2.685 12.351-.665 2.376 14.103 2.67 16.686.332 1.666-1.508 1.938-1.509 3.425-.022 2.015 2.016 5.858 2.086 7.801.143 1.257-1.257 1.642-1.268 2.631-.076 1.621 1.953 17.651 1.825 20.875-.167 2.08-1.285 2.548-1.248 4.3.337 1.651 1.495 2.447 1.597 4.981.64l3.016-1.138-.694 3.188c-1.171 5.389-2.324 7.688-3.854 7.688-1.801 0-2.713-1.396-3.535-5.413-.791-3.872-2.639-3.136-2.291.913.244 2.831 4.165 7.5 6.298 7.5 2.123 0 4.841-4.128 5.467-8.304.61-4.069.893-4.427 3.322-4.198 1.46.138 3.896.582 5.412.986 1.871.5 3.529.231 5.159-.837 2.001-1.311 2.587-1.349 3.519-.225.788.95 3.256 1.276 8.342 1.105 3.973-.134 7.567-.308 7.988-.385 1.732-.321 4.728-6.9 4.731-10.392.003-3.15.342-3.75 2.119-3.75 1.978 0 2.071.353 1.435 5.444-.776 6.215.465 9.556 3.551 9.556 3.149 0 5.73-1.772 7.462-5.123 2.213-4.278.84-4.966-2.188-1.097-1.386 1.771-3.387 3.22-4.447 3.22-1.564 0-1.925-.709-1.914-3.75.023-6.501.893-8.25 4.103-8.25 1.585 0 2.883-.45 2.883-1s-1.157-1-2.572-1c-2.198 0-2.525-.386-2.25-2.663.452-3.739-1.781-4.073-2.52-.376L147.05 150h-7.025c-9.238 0-11.212 1.773-12.245 11-.312 2.787-4.146 4.094-5.056 1.723-.292-.76.308-5.396 1.333-10.303 2.273-10.874 2.248-10.42.571-10.42-.828 0-1.626 1.587-2.012 4-.601 3.759-.845 4-4.046 4-1.874 0-4.135.28-5.025.621-2.214.85-4.545 5.634-4.545 9.329 0 1.965-.504 3.05-1.417 3.05-1.953 0-2.36-1.753-1.498-6.466.404-2.209.519-4.365.256-4.792-.838-1.356-2.063.118-2.686 3.233-.848 4.242-3.552 8.025-5.735 8.025-2.675 0-4.146-3.275-2.92-6.5 1.248-3.282 1.281-5.5.083-5.5-.505 0-1.683 2.003-2.617 4.451-.935 2.448-2.624 5.261-3.753 6.25-1.99 1.745-2.027 1.739-1.23-.201 1.495-3.639 1.726-8.24.526-10.483-.978-1.827-1.866-2.145-5.124-1.835l-3.941.376.641-4.279c.979-6.528-1.239-5.281-2.616 1.471-2.602 12.763-3.58 16.357-4.502 16.549-.532.111-1.112-1.374-1.288-3.299-.471-5.125-1.825-5.783-3.526-1.712-2.743 6.566-7.653 7.016-7.653.701 0-4.781 3.759-8.339 7.751-7.337 1.877.471 2.394.279 2.052-.761-.659-2.003-5.534-2.297-8.278-.499-1.29.845-3.486 4.028-4.88 7.072S53.62 163 53.02 163c-.768 0-.784-.572-.055-1.934 1.583-2.958 1.235-8.723-.639-10.597-1.186-1.186-2.664-1.514-5.068-1.123-3.368.546-3.389.525-2.716-2.648 1.033-4.876 1.032-4.921-.12-5.349-.65-.242-1.967 3.872-3.32 10.375m5.307.316c-3.023 1.125-4.996 6.376-3.57 9.505 1.3 2.854 3.332 3.141 5.673.8 5.15-5.149 3.66-12.448-2.103-10.305m33.364.71c-3.938 4.485-3.296 10.562 1.063 10.058 3.532-.408 6.852-6.654 5.189-9.761-1.343-2.509-4.191-2.644-6.252-.297m34.564.727c-3.935 2.756-4.162 10.523-.309 10.523 4.118 0 8.919-9.152 5.829-11.11-1.93-1.222-3.118-1.096-5.52.587m17.778 1.103c-3.369 4.284-2.569 9.42 1.469 9.42 3.124 0 5.642-3.935 5.235-8.179-.425-4.424-3.72-5.034-6.704-1.241"/><path fill-opacity=".346" fill-rule="evenodd" d="M0 100.005V200.01l100.25-.255 100.25-.255.255-99.75L201.01 0H0zm.481.495c0 55 .121 77.647.269 50.326.148-27.32.148-72.32 0-100C.602 23.147.481 45.5.481 100.5m62.923-80.526c-1.152.466-3.753 2.784-5.779 5.151-3.372 3.94-3.629 4.665-3.04 8.591.752 5.018-1.231 8.95-4.771 9.461-1.824.263-2.674 1.707-4.607 7.823-4.278 13.53-2.919 28.687 2.733 30.481 2.389.758 9.138-.971 14.554-3.73C72.975 72.414 75.304 68.593 77.576 53l1.385-9.5-.487 8.753c-.551 9.917-2.049 15.084-6.048 20.854-3.922 5.659-4.503 13.414-1.385 18.46 3.37 5.452 9.35 7.791 19.959 7.806 5.638.009 8.944.452 9.82 1.318 2.224 2.201 6.018 2.645 8.529 1 1.726-1.131 3.903-1.388 8.347-.985 9.539.865 16.416-2.213 19.899-8.906 2.191-4.211 1.687-7.967-2.001-14.917l-3.406-6.419 1.889-8.982c2.592-12.325 2.459-15.245-.936-20.599C129.848 35.691 121.905 30 117.951 30c-1.489 0-4.322-.675-6.297-1.5-4.649-1.943-8.781-1.996-8.055-.104.826 2.153-3.573 4.604-8.265 4.604-3.228 0-4.587-.523-5.777-2.223-.856-1.222-1.557-1.645-1.557-.94s-2.138-.518-4.75-2.718c-5.132-4.322-12.539-8.1-15.75-8.034-1.1.023-2.943.423-4.096.889m64.346 5.718c-2.612 1.455-4.75 2.932-4.75 3.284s1.997 2.047 4.438 3.767c2.919 2.058 4.603 2.723 4.921 1.943.266-.652.519-.339.562.696s1.064 3.475 2.267 5.423c2.669 4.319 2.75 9.942.308 21.577-1.61 7.672-1.617 8.483-.098 11.421 1.844 3.566 6.645 6.474 9.92 6.008 10.139-1.444 6.328-42.154-5.062-54.061-3.304-3.454-6.378-3.468-12.506-.058m-24.364 11.744c-.939 2.448.288 4.444 3.179 5.17 2.979.747 4.607-.848 4.191-4.106-.332-2.591-6.445-3.474-7.37-1.064m37.502 3.314c-1.377 3.566-.547 11.02 1.451 13.017 1.285 1.286 1.834 1.334 3.111.275 2.085-1.731 2.081-10.839-.007-13.819-2.061-2.943-3.268-2.804-4.555.527m-53.919 1.074c-1.239 1.003-2.077 2.299-1.861 2.879s1.658-.241 3.205-1.824c3.116-3.189 2.189-3.916-1.344-1.055M58.2 44.2c-1.714 1.714-1.482 5.478.382 6.193 2.638 1.012 3.445.706 4.332-1.643 1.561-4.133-1.844-7.42-4.714-4.55m67.974 1.745c2.304 2.917 3.826 3.809 3.826 2.244 0-1.211-3.921-5.189-5.115-5.189-.57 0 .01 1.325 1.289 2.945m-37.025.583c-6.052 5.092-7.934 17.573-3.64 24.127.866 1.321 1.372 2.726 1.126 3.123s2.772.497 6.708.222c6.996-.489 7.196-.579 8.905-4 2.468-4.939 2.342-14.923-.251-20.006-3.315-6.497-7.806-7.709-12.848-3.466m1.068 1.033C84.75 51.39 82.802 63.47 86.61 69.917 88.277 72.74 88.876 73 93.693 73c4.516 0 5.494-.356 6.908-2.514 3.632-5.543 3.008-16.42-1.23-21.457-2.825-3.358-5.78-3.832-9.154-1.468m29.508 1.191c-3.57 3.944-5.006 14.749-2.75 20.683.965 2.538.923 2.565-3.935 2.565-5.907 0-9.535 1.241-10.428 3.568-.868 2.263 1.254 4.497 7.508 7.901 5.65 3.075 6.937 2.878 12.657-1.935C126.285 78.583 127.412 73 124.5 73c-.825 0-1.5-.257-1.5-.571 0-.315.675-1.247 1.5-2.072 2.127-2.127 1.927-8.661-.329-10.702-2.369-2.144-4.809-2.106-6.091.095-.907 1.558-1.023 1.499-1.05-.532-.042-3.195 2.59-9.135 4.347-9.809 6.18-2.372 10.965 11.05 7.174 20.123-.797 1.907-1.066 3.468-.598 3.468 1.421 0 3.047-6.001 3.047-11.248 0-5.569-2.227-11.097-5.353-13.287-2.726-1.909-3.99-1.848-5.922.287m-30.652 9.883c-2.461 3.129-2.632 6.383-.547 10.415C89.692 71.305 90.746 72 93 72c5.394 0 7.855-8.372 3.927-13.365C95.788 57.186 94.02 56 93 56s-2.788 1.186-3.927 2.635M49 59c-2.772 2.772-2.776 10.86-.007 14.139l1.994 2.361 3.006-3.266c3.7-4.018 4.119-9.663.968-13.045C52.445 56.488 51.54 56.46 49 59m41 1.5c0 .825.675 1.5 1.5 1.5s1.5-.675 1.5-1.5-.675-1.5-1.5-1.5-1.5.675-1.5 1.5m29 2.083c0 1.766 2.153 1.459 2.771-.395.218-.654-.317-1.188-1.188-1.188-.87 0-1.583.712-1.583 1.583m29.559-.678c-.367.594-.26 1.807.238 2.697.818 1.461.971 1.446 1.587-.16.781-2.036-.787-4.217-1.825-2.537m-10.138 5.439c-.959 2.501-.022 6.156 1.579 6.156 1.041 0 1.5-1.046 1.5-3.417 0-3.545-2.064-5.382-3.079-2.739m-60.712 11.28c-1.182 1.182-.795 5.06.623 6.237 2.014 1.671 4.943-.871 4.513-3.917-.339-2.403-3.586-3.869-5.136-2.32m30.374 1.659c.23.156 1.317.943 2.417 1.75 1.85 1.357 1.897 1.336.628-.283-.755-.963-1.843-1.75-2.417-1.75s-.857.127-.628.283M102 93.077c0 1.057.916 2.839 2.036 3.959 2.099 2.099 3.964 1.865 3.964-.497 0-1.263 5.528-4.023 7.324-3.657.454.092.549-.278.212-.823-.382-.618-1.869-.391-3.959.606-3.036 1.448-3.637 1.452-6.462.042-2.946-1.469-3.115-1.449-3.115.37M89.306 105.25c-1.498 2.338-2.83 4.414-2.962 4.614-.131.2-1.448-.587-2.926-1.75-3.413-2.684-4.677-2.656-7.976.183-4.773 4.104-4.035 14.11 1.445 19.59 1.706 1.706 1.608 1.78-2.379 1.78-2.288 0-4.688.326-5.334.725-1.72 1.063-1.432 5.295.408 6.001 2.576.989 3.416.71 3.448-1.143.029-1.667.079-1.667 1.05 0 .805 1.381 2.382 1.75 7.489 1.75 6.447 0 6.467-.009 5.825-2.568-.487-1.938-.132-2.927 1.444-4.031 1.721-1.205 1.919-1.91 1.125-3.997-.529-1.394-.904-4.867-.832-7.719l.131-5.185.755 5.5c1.029 7.505 1.792 9 4.59 9 2.415 0 3.331-2.302 1.393-3.5-.55-.34-.954-2.054-.898-3.809l.103-3.191.725 3c1.011 4.178 3.265 7.5 5.088 7.5.845 0 2.575.727 3.844 1.616 2.64 1.849 3.691 1.155 4.717-3.116l.72-3-2.149 1.905c-1.183 1.048-2.15 1.44-2.15.872 0-.567.705-1.617 1.566-2.332 2.423-2.011 4.434-6.525 4.434-9.954 0-1.818.415-2.852 1-2.491 1.252.774 1.249-.064-.018-4.626-.995-3.579-1.063-3.619-5.404-3.13-3.086.348-5.087.013-6.71-1.124-2.955-2.069-4.491-2.1-2.439-.049 1.871 1.872 2.032 4.568.371 6.229-1.941 1.941-4.633 1.385-6.409-1.326-1.549-2.365-1.541-2.651.132-4.5.997-1.101 1.282-1.974.646-1.974-.627 0-2.366 1.912-3.863 4.25m-27.564-.658c-1.429 1.428-.723 9.383 1.315 14.829 2.98 7.966 4.726 9.789 8.623 9l3.18-.643-3.412-4.639c-4.671-6.352-7.333-11.436-8.219-15.698-.41-1.975-1.08-3.257-1.487-2.849m13.959 5.04c-.385.386-.701 1.783-.701 3.104 0 1.92.452 2.339 2.25 2.084 1.644-.234 2.25-.989 2.25-2.806 0-2.414-2.315-3.865-3.799-2.382m42.316 1.813c-2.026 1.122-2.456 2.081-2.337 5.215.08 2.112-.072 2.827-.337 1.59-.709-3.31-1.698-2.757-3.1 1.734-1.792 5.743-1.649 9.386.339 8.623.87-.334 1.995-.607 2.5-.607s.954-.787.997-1.75c.063-1.394.195-1.445.65-.25 1.432 3.763 4.245 2.954 6.694-1.927 3.16-6.296 2.52-14.111-1.148-14.038-.976.02-2.892.654-4.258 1.41M75 120.5c0 .825.45 1.5 1 1.5s1-.675 1-1.5-.45-1.5-1-1.5-1 .675-1 1.5m17.25 9.991c-3.324 1.444-3.706 2.157-2.643 4.927.813 2.119 3.134 2.013 3.704-.168.435-1.667.463-1.667.573 0 .086 1.304.99 1.75 3.55 1.75 2.978 0 3.488-.365 3.85-2.75l.416-2.75.15 2.823c.198 3.728 3.513 3.339 3.955-.465.253-2.171-.248-2.817-2.899-3.741-4.156-1.449-6.665-1.361-10.656.374m18.529.371c-2.032 1.015-3.404 2.52-3.608 3.957-.293 2.073.021 2.286 2.961 2 2.523-.245 3.45-.901 3.979-2.819l.69-2.5.099 2.75c.081 2.218.57 2.75 2.53 2.75 1.726 0 2.557-.653 2.864-2.25l.434-2.25.136 2.309c.16 2.708 2.136 1.96 2.136-.809 0-3.72-7.302-5.595-12.221-3.138m12.736.521c.912 1.391 1.367 2.999 1.012 3.573-.371.6.257 1.044 1.477 1.044 1.792 0 2.074-.506 1.809-3.25-.263-2.73-.764-3.302-3.134-3.573-2.801-.321-2.809-.306-1.164 2.206m-45.13 9.78c-.462.735-1.776 5.808-2.918 11.272C73.276 162.913 71 166.3 71 159.083c0-5.186-1.393-5.193-4.032-.02-1.606 3.148-2.567 3.992-4.27 3.75-2.811-.4-3.489-4.956-1.248-8.378 1.185-1.807 2.492-2.435 5.073-2.435 2.424 0 3.477-.454 3.477-1.5 0-1.078-1.101-1.5-3.911-1.5-3.14 0-4.422.607-6.5 3.077-1.424 1.692-2.589 3.667-2.589 4.389s-.924 2.375-2.053 3.673l-2.053 2.361.698-2.495c1.011-3.614.719-7.926-.65-9.574-.653-.787-2.9-1.431-4.995-1.431H44.14l.93-3.243c1.239-4.321 1.187-4.757-.57-4.757-.825 0-1.5.157-1.5.349s-1.125 5.434-2.5 11.651-2.5 11.629-2.5 12.028c0 1.476 15.198 1.073 17.546-.466 1.985-1.301 2.339-1.304 2.83-.024.676 1.762 6.705 1.981 8.382.304.81-.81 1.545-.845 2.45-.116.71.573 5.313 1.088 10.227 1.145 6.901.08 9.339-.262 10.707-1.499 1.626-1.472 1.91-1.463 3.488.115 1.199 1.199 2.692 1.56 4.941 1.195l3.224-.523-1.002 3.671c-.55 2.018-1.469 4.244-2.04 4.945-1.563 1.917-4.753-1.393-4.753-4.93 0-1.964-.505-2.845-1.632-2.845-2.468 0-1.166 7.935 1.68 10.24 4.496 3.64 8.406.961 9.621-6.591l.619-3.851 6.183.662c4.993.535 6.436.357 7.499-.924 1.142-1.376 1.53-1.398 2.923-.166 1.058.936 4.068 1.438 8.815 1.47 6.819.047 7.344-.113 9.75-2.972 1.777-2.113 2.542-4.201 2.542-6.945 0-3.207.352-3.923 1.928-3.923 1.738 0 1.872.54 1.362 5.481-.657 6.363.544 8.519 4.744 8.519 2.92 0 7.966-4.799 7.966-7.577 0-2.454-2.426-1.541-4.203 1.583-1.843 3.239-4.498 3.936-5.458 1.435-.329-.857-.202-3.445.281-5.75.755-3.594 1.28-4.237 3.689-4.513 3.162-.363 3.17-2.51.011-2.978-1.559-.231-1.916-.863-1.555-2.75.628-3.286-2.323-3.346-3.147-.063-.547 2.179-1.207 2.421-7.614 2.783-8.373.473-10.646 2.199-12.495 9.489-.765 3.019-1.845 4.963-2.868 5.164-2.153.425-2.169-3.607-.051-12.92 1.552-6.824 1.354-10.605-.496-9.461-.506.313-1.231 2.406-1.61 4.653-.59 3.491-.989 4.006-2.745 3.547-2.84-.743-8.334 1.733-9.761 4.399-.651 1.216-1.226 3.737-1.279 5.602-.054 1.906-.557 3.228-1.148 3.018-.602-.213-.965-2.812-.851-6.084.234-6.659-1.294-7.117-3.401-1.021-1.716 4.966-4.578 7.935-6.82 7.074-1.648-.632-1.703-2.334-.319-10.022.765-4.255-2.049-2.309-4.151 2.87-1.24 3.056-2.573 5.752-2.96 5.992-.388.24-.506-1.973-.262-4.918.403-4.855.21-5.508-2.065-6.999-1.583-1.037-3.441-1.411-5.03-1.012-2.466.619-2.502.549-1.655-3.203.888-3.937-.151-6.562-1.652-4.175m2.302 11.087C76.953 155.004 76.85 163 80.55 163c4.339 0 7.707-9.92 3.868-11.393-2.01-.772-1.752-.816-3.731.643m-36.063 1.612c-2.546 2.814-1.867 8.532 1.063 8.949 2.8.399 5.576-3.653 5.136-7.496-.401-3.495-3.66-4.258-6.199-1.453M114 154c-2.481 2.481-2.752 8.774-.417 9.67 2.069.794 5.184-2.371 6.356-6.458.772-2.69.617-3.379-.943-4.214-2.503-1.34-2.692-1.302-4.996 1.002m19.825-.962c-2.503 1.461-4.324 7.655-2.793 9.501 1.767 2.128 4.625 1.789 6.411-.762 2.053-2.93 2.038-8.378-.025-9.17-1.888-.724-1.541-.766-3.593.431"/><path fill-opacity=".597" fill-rule="evenodd" d="M0 100.005V200.01l100.25-.255 100.25-.255.255-99.75L201.01 0H0zm.481.495c0 55 .121 77.647.269 50.326.148-27.32.148-72.32 0-100C.602 23.147.481 45.5.481 100.5m61.105-79.566c-1.602 1.056-4.166 3.785-5.696 6.064-2.34 3.484-2.61 4.522-1.696 6.528.805 1.768.76 3.17-.175 5.429-1.207 2.912-1.652 3.221-4.977 3.45-2.657.183-6.31 13.966-6.433 24.271-.093 7.861.192 9.581 1.99 12 2.695 3.626 6.49 4.015 13.479 1.382 8.741-3.294 15.12-8.725 17.128-14.582.939-2.737 1.726-4.174 1.75-3.194.063 2.537-2.715 8.832-4.943 11.204-1.04 1.108-2.326 3.95-2.857 6.315-2.84 12.642 7.378 21.233 23.694 19.923 4.788-.384 6.863-.154 7.893.876 2.167 2.167 6.316 2.844 8.619 1.406 1.285-.802 4.832-1.213 9.421-1.092 5.745.152 8.324-.272 11.751-1.931 8.906-4.311 10.911-13.567 4.974-22.97l-2.832-4.487 1.683-10.013c2.357-14.018 2.198-16.444-1.4-21.411-3.539-4.885-11.227-10.099-14.905-10.108-1.405-.004-3.843-.679-5.418-1.5-1.576-.822-4.357-1.494-6.181-1.494-2.677 0-3.377.433-3.635 2.25-.237 1.669-1.296 2.491-4.098 3.183-4.18 1.033-9.392-.277-8.972-2.255.137-.648-.452-1.178-1.309-1.178-.987 0-1.279.458-.796 1.25.419.688-1.467-.723-4.191-3.135-8.82-7.806-16.226-9.9-21.868-6.181m70.299 2.477c-1.988.693-5.041 2.276-6.784 3.517l-3.169 2.257 5.284 3.785C136.67 39.743 138.68 46.543 135.5 61c-2.136 9.71-1.931 11.4 1.868 15.429 2.677 2.839 4.123 3.571 7.051 3.571 5.381 0 7.058-4.248 6.911-17.5-.183-16.57-6.249-34.822-12.835-38.622-2.583-1.49-3.492-1.554-6.61-.467m-27.901 14.108c-1.031 1.243-.934 1.878.533 3.5 2.3 2.541 4.127 2.514 5.517-.083 2.081-3.887-3.189-6.864-6.05-3.417m37.441 1.602c-.417.675-.758 3.87-.758 7.101 0 4.241.48 6.346 1.727 7.576 1.628 1.603 1.811 1.59 3.167-.239.792-1.068 1.432-3.768 1.424-6-.023-6.302-3.561-11.672-5.56-8.438M87 42c-1.1 1.1-2 2.536-2 3.191 0 .667.551.456 1.25-.478.688-.918 2.15-2.34 3.25-3.16 1.1-.819 1.438-1.504.75-1.521-.687-.018-2.15.868-3.25 1.968m-28.8 2.2c-2.848 2.848.264 8.319 3.3 5.8 1.973-1.638 1.922-5.624-.082-6.393-2.014-.773-1.816-.809-3.218.593m67.93 1.231c1.287 1.338 2.532 2.24 2.766 2.007.596-.597-3.001-4.438-4.156-4.438-.522 0 .103 1.094 1.39 2.431m-35.94.595c-3.239 1.974-6.691 8.02-5.892 10.317.221.636.728-.293 1.125-2.066.868-3.865 5.772-8.277 9.201-8.277 5.095 0 7.906 5.171 8.698 16 .293 4.007.348 3.867.503-1.282.206-6.819-1.532-11.556-5.339-14.55-3.39-2.667-4.135-2.68-8.296-.142m28.239 4.442c-.889 1.357-1.385 3.045-1.102 3.75.349.869.541.769.594-.313.112-2.26 3.596-5.145 5.719-4.736.985.19 2.818 1.871 4.075 3.736 2.586 3.837 3.013 3.404.822-.833-2.451-4.741-7.525-5.546-10.108-1.604M77.158 58c0 1.375.227 1.938.504 1.25.278-.687.278-1.812 0-2.5-.277-.687-.504-.125-.504 1.25m12.361-.021C85.771 62.121 88.224 72 93 72c2.944 0 5.471-3.827 5.358-8.114-.177-6.769-5.089-10.051-8.839-5.907m26.676.521c.02 1.65.244 2.204.498 1.231s.237-2.323-.037-3-.481.119-.461 1.769m-68.034 2.047C45.726 65.89 47.432 74 50.99 74c2.434 0 6.001-5.361 6.006-9.027.009-6.192-6.537-9.471-8.835-4.426M83.089 60c-.121 3.888 1.755 9.605 3.995 12.17l2.035 2.33-1.769-2.895c-.973-1.592-2.312-5.417-2.976-8.5-.663-3.083-1.242-4.48-1.285-3.105m7.056-.675c-.908 1.094-.834 1.688.331 2.655 1.224 1.016 1.619.936 2.145-.435.897-2.337-.981-4.022-2.476-2.22m27.935 1.298c-2.24 2.576-2.371 4.902-.543 9.627.573 1.481.083 1.751-3.18 1.756-2.121.003-5.544.474-7.607 1.047-2.989.83-3.75 1.523-3.75 3.417 0 1.807 1.369 3.232 5.719 5.953C111.864 84.39 114.81 86 115.266 86s1.981-1.237 3.389-2.75 3.162-2.623 3.9-2.468c1.808.38 3.706-3.385 2.933-5.82-.343-1.079-1.3-1.962-2.128-1.962-1.197 0-1.08-.54.567-2.635 2.464-3.131 2.664-7.076.516-10.142-2.032-2.902-3.576-2.805-6.363.4M130.272 62c0 2.475.195 3.487.434 2.25.238-1.237.238-3.263 0-4.5-.239-1.237-.434-.225-.434 2.25m-10.633-1.306c-1.195 1.195-.645 3.306.861 3.306.825 0 1.5-.648 1.5-1.441 0-1.671-1.427-2.798-2.361-1.865m29.556 2.806c.02 1.65.244 2.204.498 1.231s.237-2.323-.037-3-.481.119-.461 1.769m-10.678 4.445c-.838 2.642.307 6.28 1.818 5.777.641-.214 1.165-1.889 1.165-3.722 0-3.784-1.997-5.16-2.983-2.055m-38.221 2.675C99.084 72.479 98.424 74 98.83 74c.835 0 4.554-5.97 4.017-6.449-.191-.171-1.339 1.21-2.551 3.069m27.848.13c-1.091 2.55-1.066 2.609.34.809.834-1.068 1.516-2.305 1.516-2.75 0-1.52-.678-.81-1.856 1.941M78.04 79.452c-1.761 2.122-.857 5 1.685 5.363 1.649.236 2.363-.317 2.834-2.193 1.066-4.248-1.899-6.327-4.519-3.17m30.043.831c.23.156 1.317.943 2.417 1.75 1.85 1.357 1.897 1.336.628-.283-.755-.963-1.843-1.75-2.417-1.75s-.857.127-.628.283m-5.538 13.967c.948 3.138 2.061 4.115 3.888 3.414 2.375-.911 1.877-3.202-.98-4.503-3.468-1.58-3.689-1.497-2.908 1.089m-7.867 6.528c-1.982.259-3.751 1.686-5.94 4.791l-3.117 4.423-2.125-1.996c-1.169-1.098-3.062-1.996-4.207-1.996-2.748 0-8.843 6.846-7.39 8.299.709.709.725 1.449.048 2.265-1.112 1.339.147 5.008 3.322 9.686 1.027 1.513 1.484 2.75 1.015 2.75s-1.7-1.463-2.734-3.25-3.156-4.726-4.712-6.53c-1.557-1.805-3.62-5.967-4.584-9.249-.965-3.283-2.142-5.969-2.617-5.97-.474 0-.69 3.036-.479 6.749.442 7.786 4.001 16.098 7.65 17.871 1.861.904 2.006 1.236.75 1.719-.922.353-1.558 1.798-1.558 3.537v2.94l10.542.104 10.542.104-1.175-2.195c-1-1.869-.85-2.46 1.012-3.967 1.987-1.609 2.082-2.122 1.036-5.611-.632-2.112-.943-4.945-.69-6.296.398-2.121.479-2.033.597.645.222 5.048 2.171 9.6 3.837 8.96.804-.308 2.153-.561 2.996-.561 1.34 0 1.322-.322-.144-2.559-.922-1.408-1.476-3.32-1.231-4.25.36-1.364.475-1.304.595.309.151 2.018 3.317 6.5 4.592 6.5.379 0 2.139.688 3.912 1.53 2.769 1.314 3.162 1.948 2.788 4.5-.394 2.682-.158 2.982 2.428 3.098 8.653.387 12.786-.42 13.207-2.579.45-2.308-1.096-3.754-5.636-5.273-3.428-1.147-3.472-1.208-.585-.809 4.014.555 6.802-2.282 8.505-8.652 2.15-8.045-2.053-12.608-7.687-8.347-2.575 1.948-3.44 1.894-3.447-.218-.003-.963-.475-3.441-1.049-5.509-.906-3.263-1.292-3.625-2.929-2.75-2.787 1.492-5.892 1.232-9.398-.786-1.715-.988-4.388-1.63-5.94-1.427m-2.011 1.889c-1.382 1.381-.593 5.302 1.267 6.298 2.928 1.566 4.001 1.272 5.234-1.435.861-1.889.827-2.831-.143-4-1.29-1.555-5.144-2.078-6.358-.863M75.362 110.5c-.784 2.043.37 4.756 1.817 4.274.648-.216 1.66-1.167 2.25-2.112.813-1.305.71-1.949-.429-2.675-2.103-1.341-2.974-1.218-3.638.513m36.788 5.518c-.083 1.385-1.359 4.31-2.836 6.5-1.478 2.19-1.963 3.393-1.078 2.674 1.384-1.125 1.672-.984 2.051 1 .383 2.005.459 1.938.577-.508.075-1.548.614-3.708 1.198-4.799s.876-3.199.649-4.684c-.407-2.672-.413-2.674-.561-.183m2.929 1.565c.048 1.165.285 1.402.604.605.289-.722.253-1.585-.079-1.917s-.568.258-.525 1.312m-39.496 2.283c-.431.697-.513 1.537-.183 1.867.895.895 1.871-.421 1.387-1.871-.338-1.016-.574-1.016-1.204.004m15.667 10.879c-3.628 1.806-3.782 2.157-2 4.556.818 1.101 2.954 1.772 6.181 1.941 4.502.236 4.994.04 5.65-2.242l.72-2.5.099 2.75c.055 1.512.46 2.75.9 2.75 1.555 0 3.2-2.429 3.2-4.725 0-4.199-8.475-5.653-14.75-2.53m17.75-.839c0 .499.9.671 2 .384s2-.696 2-.907c0-.21-.9-.383-2-.383s-2 .408-2 .906m13.25.128c1.046.637 1.75 2.282 1.75 4.089 0 2.341.395 2.948 1.75 2.687 1.268-.244 1.75-1.298 1.75-3.824 0-3.267-.22-3.503-3.5-3.752-2.844-.216-3.172-.066-1.75.8m-78.968 11.227c-1.415 1.856-5.544 22.613-4.856 24.408.465 1.211.908 1.298 1.997.395.856-.711 1.629-.789 1.991-.203.889 1.439 9.772 1.104 12.279-.462 1.894-1.184 2.596-1.14 5.132.315 2.681 1.539 3.145 1.55 5.297.121 1.925-1.278 2.728-1.339 4.368-.331 2.726 1.674 20.655.561 21.283-1.322.334-1.003.863-.917 2.291.376 1.217 1.101 2.933 1.523 4.978 1.223 3.093-.454 3.114-.427 2.461 3.13-.362 1.974-1.043 3.986-1.514 4.472-1.599 1.652-3.877-.267-4.545-3.83-.874-4.657-3.444-4.797-3.444-.188 0 4.145 3.337 8.635 6.418 8.635 3.016 0 5.143-2.549 6.556-7.857l1.161-4.357 5.377.672c3.237.405 6.171.247 7.372-.396 1.19-.637 2.225-.695 2.566-.144.314.508 4.14.924 8.503.924 7.071 0 8.196-.264 10.367-2.435 2.558-2.557 4.028-7.336 3.046-9.896-.395-1.028.04-1.511 1.359-1.511 1.739 0 1.892.567 1.484 5.498-.533 6.418.684 8.502 4.961 8.502 4.774 0 10.169-7.436 6.873-9.474-.527-.325-1.635.719-2.463 2.32-1.614 3.121-4.385 4.749-5.755 3.379-.462-.462-.553-2.927-.204-5.479.59-4.302.863-4.661 3.758-4.942 3.664-.357 4.331-3.132.871-3.624-1.577-.223-2.25-.997-2.25-2.583 0-1.245-.296-2.56-.658-2.922-1.027-1.027-3.342 1.361-3.342 3.447 0 1.644-.808 1.878-6.484 1.878-5.67 0-6.867.345-9.526 2.75-2.111 1.908-3.268 4.103-3.78 7.171-.769 4.606-2.747 6.449-3.847 3.584-.35-.914.1-5.014 1-9.112s1.637-8.6 1.637-10.005c0-3.808-2.289-2.408-3.584 2.192-.962 3.415-1.439 3.879-3.705 3.606-1.431-.173-3.55.193-4.71.813-2.876 1.54-5.993 6.897-5.997 10.31-.003 1.723-.414 2.556-1.064 2.154-.675-.417-.815-2.616-.385-6.059.567-4.539.423-5.404-.901-5.404-.997 0-1.978 1.491-2.668 4.053-.6 2.229-2.016 4.977-3.146 6.107-1.884 1.884-2.187 1.921-3.655.453-1.356-1.355-1.426-2.255-.458-5.857.711-2.644.79-4.616.209-5.206-1.291-1.311-2.329.025-4.453 5.733-.979 2.63-2.211 5.049-2.738 5.375-.596.368-.641-.308-.12-1.783 2.439-6.898-.343-12.396-5.874-11.612-2.634.374-2.738.226-2.5-3.579.149-2.376-.23-4.138-.945-4.391-1.253-.443-1.943 1.717-4.784 14.972-.958 4.466-2.082 7.507-2.645 7.159-.539-.333-.845-2.028-.679-3.765.402-4.208-1.45-4.065-4.419.341-3.082 4.573-6.161 4.718-6.588.309-.417-4.303 2.771-7.536 7.016-7.115 3.935.389 4.863-1.837 1.326-3.181-4.691-1.784-9.102.955-11.966 7.431-2.46 5.563-4.378 7.819-2.542 2.991 1.542-4.057 1.161-6.34-1.504-9.005-1.902-1.902-3.091-2.325-5.111-1.818-2.59.65-2.621.597-1.95-3.373.697-4.129-.456-6.236-2.178-3.978m1.209 13.113c-2.272 3.467-1.624 8.036 1.196 8.437 2.8.399 5.576-3.653 5.136-7.496-.441-3.843-4.077-4.383-6.332-.941m35.204-.589c-2.22 2.452-2.243 8.067-.037 8.914 2.385.915 6.538-4.198 6.147-7.569-.38-3.274-3.702-4.006-6.11-1.345m33.862 1.438c-1.705 2.433-2.09 7.329-.647 8.221 2.546 1.574 7.09-3.806 7.09-8.394 0-2.869-4.396-2.751-6.443.173m19.138-.438c-2.22 2.452-2.243 8.067-.037 8.914 2.385.915 6.538-4.198 6.147-7.569-.38-3.274-3.702-4.006-6.11-1.345"/><path fill-opacity=".966" fill-rule="evenodd" d="M65.762 18.707c1.244.239 3.044.23 4-.02s-.062-.446-2.262-.435-2.982.216-1.738.455m-8.765 5.034C48.409 33.498 41 53.422 41 66.762c0 8.342 1.706 13.344 5.37 15.745 2.365 1.549 2.929 1.549 8.333-.001 3.189-.915 7.71-2.772 10.047-4.127s4.252-2.107 4.254-1.671.865-.621 1.919-2.349c1.053-1.727 2.401-3.441 2.996-3.809.595-.367 1.081-1.107 1.081-1.644s-1.394.612-3.098 2.553-6.355 5.138-10.335 7.105c-8.936 4.417-13.748 4.447-16.968.106-4.93-6.647-.818-35.642 5.176-36.493 1.251-.177 3.02-1.46 3.931-2.851 1.375-2.099 1.457-3.055.483-5.635-1.046-2.774-.888-3.518 1.477-6.931 1.458-2.103 3.816-4.695 5.242-5.76s2.068-1.951 1.427-1.968c-.641-.018-3.043 2.101-5.338 4.709M75 20.35c0 .231 1.18 1.193 2.623 2.139s2.318 1.224 1.944.62C78.854 21.955 75 19.626 75 20.35M140.5 25c.995 1.1 2.035 2 2.31 2s-.315-.9-1.31-2-2.035-2-2.31-2 .315.9 1.31 2m-57.104 1.711c2.336 2.584 3.254 3.011 4.75 2.211 1.422-.761 1.854-.643 1.854.508 0 2.251 3.786 3.833 7.505 3.135 3.598-.675 6.04-2.874 5.022-4.521-.843-1.364 8.704-1.413 10.064-.053.545.545 3.221 1.408 5.947 1.917 4.279.8 4.702.741 3.099-.432-4.474-3.271-20.649-4.525-30.667-2.376-4.772 1.023-5.314.937-7.799-1.247-2.467-2.166-2.45-2.101.225.858m44.483 7.855c2.409 2.096 5.22 5.189 6.247 6.873 1.026 1.683 1.868 2.559 1.87 1.946.008-2.271-6.314-9.213-10.496-11.524-1.1-.608-.029.609 2.379 2.705M145.082 31c-.044.275.798 2.75 1.872 5.5s1.962 4.325 1.973 3.5c.019-1.417-3.675-10.064-3.845-9m-40.986 6.385c-.999 1.203-.83 1.881.9 3.611 2.735 2.735 4.504 2.115 4.504-1.579 0-2.196-.516-2.991-2.088-3.215-1.148-.164-2.64.368-3.316 1.183m37.571 2.282c-.834.833-.88 10.615-.06 12.751.334.87 1.401 1.582 2.372 1.582 1.27 0 1.935-1.063 2.371-3.788 1.064-6.654-1.9-13.328-4.683-10.545M86.405 43.25 84.5 45.5l2.25-1.905c1.237-1.048 2.25-2.06 2.25-2.25 0-.8-.805-.209-2.595 1.905m63.198 1.25c3.799 19.923 2.855 32.263-2.707 35.385-2.249 1.262-2.948 1.236-5.878-.226-4.01-2.001-4.089-2.008-3.444-.326.282.734 1.055 1.365 1.719 1.403s2.595.38 4.291.759c4.424.988 8.017-3.454 8.971-11.09.865-6.924-.13-18.721-2.071-24.545-.799-2.398-1.195-3.01-.881-1.36m-91.944.947c-.961 2.503.402 4.686 2.718 4.356C61.894 49.586 62.5 48.786 62.5 47c0-2.914-3.846-4.147-4.841-1.553m69.441.258c.729 1.212 1.54 1.989 1.803 1.726s-.333-1.255-1.324-2.205c-1.722-1.649-1.744-1.628-.479.479m-37.338.368c-.955.557-2.259 2.006-2.897 3.22-.979 1.864-.727 1.779 1.624-.543 3.257-3.218 7.804-3.634 10.932-1 2.077 1.748 2.077 1.748.174-.5-2.045-2.416-6.742-2.978-9.833-1.177m46.524 3.427c.008 2.75.202 3.756.432 2.236s.223-3.77-.014-5-.425.014-.418 2.764m-16.697-.644c-.291.47.599.64 1.976.376 1.565-.299 3.336.224 4.72 1.395L128.5 52.5l-1.905-2.25c-1.886-2.228-5.986-3.044-7.006-1.394m-29.047 8.489c-1.728 1.264-1.697 1.34.528 1.25 2.863-.115 3.832 2.845 1.255 3.834-1.136.436-2.23.053-3.049-1.066C88.162 59.84 88 60.123 88 63.586 88 68.171 90.275 72 93 72c4.678 0 6.852-10.148 3-14-2.362-2.362-3.016-2.44-5.458-.655m44.537 1.238c.048 1.165.285 1.402.604.605.289-.722.253-1.585-.079-1.917s-.568.258-.525 1.312m-86.207 1.072c-.769.929-1.341 3.753-1.3 6.433.112 7.528 3.792 10.339 7.041 5.379 1.96-2.991 2.188-9.797.401-11.95-1.653-1.992-4.427-1.929-6.142.138m70.215-.26c-.917 1.106-.795 1.364.59 1.25.981-.082 1.916.68 2.134 1.738.325 1.58-.032 1.778-2.212 1.231-2.332-.585-2.597-.368-2.584 2.117.019 3.442.891 4.814 3.594 5.657 2.897.903 4.664-1.517 4.664-6.388 0-5.918-3.383-8.983-6.186-5.605M149.158 63c0 1.375.227 1.938.504 1.25.278-.687.278-1.812 0-2.5-.277-.687-.504-.125-.504 1.25m-15.079.583c.048 1.165.285 1.402.604.605.289-.722.253-1.585-.079-1.917s-.568.258-.525 1.312m5.616 3.056c-1.043 1.042-.836 6.156.276 6.843 1.346.832 2.41-3.978 1.314-5.938-.493-.88-1.208-1.287-1.59-.905m-61.62 12.77c-1.459 1.758-.52 5.591 1.37 5.591 1.896 0 3.776-2.613 3.376-4.69-.444-2.307-3.152-2.821-4.746-.901m61.004 4.174c.048 1.165.285 1.402.604.605.289-.722.253-1.585-.079-1.917s-.568.258-.525 1.312m0 6c.048 1.165.285 1.402.604.605.289-.722.253-1.585-.079-1.917s-.568.258-.525 1.312m-3.513 6.167c-2.161 2.762-2.334 3.226-.657 1.761 2.005-1.751 4.649-5.511 3.876-5.511-.157 0-1.605 1.688-3.219 3.75m-54.753 3.933c.721.289 1.584.253 1.916-.079s-.258-.568-1.312-.525c-1.165.048-1.402.285-.604.604m18.909 1.367c1.222 1.287 2.416 2.139 2.652 1.894s-.763-1.296-2.222-2.338L97.5 98.712zm-12.972-.327c3.283.408 3.869 1.076 2.5 2.848-.412.534-.042.223.823-.693.866-.915 2.441-1.884 3.5-2.155s-.773-.471-4.073-.447-4.537.226-2.75.447m23.967.893c-.338.339-2.101 1.001-3.916 1.472l-3.301.857 3.5-.56c1.925-.307 7.1-.894 11.5-1.303l8-.744-7.583-.169c-4.171-.093-7.861.108-8.2.447m-49.994 1.081c-.253.442-.765 2.491-1.137 4.553l-.677 3.75H0v89.01l100.25-.255 100.25-.255.261-44.5.26-44.5-37.186.274c-24.409.18-37.538-.077-38.211-.75-1.481-1.481-5.73-1.195-8.624.581-1.625.996-1.8 1.285-.5.823 7.486-2.66 10.047-.973 9.251 6.091-.557 4.94-4.385 11.455-6.751 11.489-.826.012-.376.587 1 1.28 1.514.762 2.62 2.28 2.803 3.85.258 2.204-.171 2.686-2.875 3.226-5.934 1.187-11.77.741-12.729-.973-.828-1.48-.951-1.48-1.519 0-.486 1.266-2.104 1.609-7.592 1.609-6.074 0-7.176-.287-8.531-2.223-.856-1.222-1.557-2.595-1.557-3.051 0-1.306 6.603-3.724 10.218-3.741 2.269-.011 2.855-.286 1.898-.892-.793-.502-2.693-.501-4.449.002-2.168.622-3.295.517-3.851-.358-.606-.954-.789-.931-.801.103-.008.737-.975 2.117-2.148 3.067-1.806 1.462-1.954 2.062-.965 3.91 1.167 2.18 1.154 2.183-9.398 2.183-11.412 0-12.836-.7-10.783-5.301.787-1.765.447-2.873-1.748-5.695C62.3 121.283 61 116.928 61 109.351c0-6.932 1.379-8.477 2.453-2.749.372 1.981.898 3.381 1.168 3.11.271-.271.109-1.974-.36-3.784-.832-3.212-2.615-4.84-3.538-3.231m32.527-.053c-1.96.819-1.465 4.092.865 5.724 3.072 2.152 5.053.992 4.689-2.746-.304-3.118-2.458-4.273-5.554-2.978M73.846 108c-1.965 1.965-4.008 3-5.923 3-1.608 0-2.916.338-2.907.75.038 1.716 9.387 15.779 11.193 16.838.71.416.558-.109-.338-1.166-3.406-4.017-5.183-8.693-4.014-10.564.701-1.124.747-1.984.126-2.368-1.371-.848 1.543-6.166 4.139-7.556 1.156-.618 3.163-.921 4.46-.674 1.297.248 2.12.066 1.829-.404-1.157-1.872-5.682-.739-8.565 2.144m1.49 3.567c-.331.862-.089 2.08.538 2.707 1.408 1.408 4.742-1.468 3.685-3.178-.998-1.615-3.531-1.332-4.223.471M.46 155.5c0 24.75.13 34.732.289 22.182s.159-32.8 0-45S.46 130.75.46 155.5m109.961-34.863c-1.144 2.348-1.703 4.037-1.243 3.753 1.187-.733 4.005-6.377 3.633-7.274-.171-.412-1.247 1.172-2.39 3.521m11.149 8.25c-.301.487.122 1.442.941 2.122s1.489 2.306 1.489 3.613c0 3.034 3.575 3.294 4.516.329 1.264-3.984-4.904-9.369-6.946-6.064m-78.647 11.28c-3.55 15.276-5.441 24.976-4.995 25.628.315.46 3.89.939 7.944 1.065 5.699.177 7.789-.148 9.206-1.431 1.689-1.528 1.963-1.531 3.45-.044 2.037 2.037 5.839 2.083 7.493.09 1.097-1.323 1.48-1.336 2.872-.102 2.069 1.832 19.225 1.604 21.502-.286 1.234-1.024 1.936-.968 3.746.299 1.351.946 3.181 1.32 4.653.951 2.112-.53 2.348-.332 1.817 1.527l-1.196 4.193c-.881 3.095-3.85 2.003-4.253-1.566-.461-4.066-2.01-5.862-3.785-4.389-2.548 2.115.358 10 4.356 11.822 3.786 1.725 6.773-.698 8.202-6.655 1.242-5.173 1.976-5.508 8.322-3.793 1.841.497 3.507.254 5.01-.731 1.989-1.304 2.517-1.3 4.52.03 1.654 1.098 2.86 1.242 4.451.532 1.372-.612 3.127-.628 4.723-.043 5.625 2.063 12.483-4.348 11.782-11.014-.264-2.511.04-3.25 1.337-3.25 1.47 0 1.556.571.692 4.619-1.201 5.632.07 9.052 3.701 9.964 3.207.804 6.934-1.535 9.091-5.707 1.207-2.334 1.321-3.388.459-4.241-.858-.849-1.824-.314-3.835 2.124-3.578 4.339-5.192 4.18-5.173-.509.019-4.676.815-5.954 3.985-6.399s3.288-3.239.155-3.683c-1.737-.246-2.218-.82-1.853-2.213.664-2.542-2.087-4.907-3.363-2.891-.5.79-.915 2.223-.924 3.186-.013 1.487-1 1.75-6.581 1.75-3.611 0-7.431.463-8.489 1.03-2.536 1.357-4.945 6.138-4.945 9.813 0 3.036-2.669 5.183-3.559 2.864-.266-.693.389-5.514 1.455-10.712 1.067-5.199 1.725-9.8 1.463-10.224-1.077-1.742-3.361-.59-3.923 1.979-1.088 4.963-1.341 5.25-4.655 5.282-5.093.049-9.781 4.933-9.781 10.191 0 1.527-.455 2.777-1.012 2.777-.624 0-.767-1.629-.373-4.25.352-2.338.695-4.7.762-5.25s-.706-1-1.719-1c-1.323 0-2.31 1.409-3.5 5-1.401 4.225-2.046 5-4.158 5-2.721 0-3.028-1.685-1.504-8.25.621-2.677.458-3.25-.928-3.25-1.06 0-2.558 1.939-4.054 5.25-2.274 5.031-2.35 5.094-1.816 1.519.789-5.282-1.647-8.769-6.126-8.769H80.19l.55-4.101c.488-3.634.334-4.06-1.345-3.737-1.541.297-2.348 2.463-4.319 11.594-2.363 10.944-3.576 13.294-3.576 6.93 0-4.529-2.677-4.635-4.797-.19-1.911 4.008-4.451 5.493-5.814 3.4-2.42-3.716 1.896-10.125 6.521-9.685 4.302.41 4.888-2.767.681-3.691-4.755-1.044-8.237 1.253-11.239 7.415l-2.648 5.435.515-4.568c.428-3.797.141-4.942-1.701-6.784-1.512-1.512-3.081-2.089-4.939-1.816-2.58.378-2.718.193-2.651-3.55.042-2.318-.444-4.129-1.178-4.384-.687-.239-1.285-.285-1.327-.101m2.65 13.403c-1.895 1.895-3.003 5.866-2.212 7.928 1.27 3.311 6.07.618 7.245-4.066 1.225-4.877-1.742-7.154-5.033-3.862m33.913.811c-2.159 3.295-1.604 7.031 1.102 7.417 2.73.39 4.574-1.942 4.762-6.02.122-2.667-.258-3.336-2.037-3.589-1.449-.207-2.74.532-3.827 2.192m33.96 1.061c-2.196 3.351-1.546 6.973 1.325 7.38 1.789.254 2.584-.428 3.75-3.218 2.128-5.092 1.899-6.604-.998-6.604-1.523 0-3.093.941-4.077 2.442m19.111-.219c-.856 1.222-1.557 3.502-1.557 5.066 0 2.511.321 2.807 2.743 2.527 1.834-.211 3.179-1.232 4.062-3.082 2.643-5.541-1.833-9.388-5.248-4.511m26.013 9.664c-.681 1.101 1.868 3.342 2.772 2.438.362-.362.658-1.258.658-1.992 0-1.489-2.578-1.825-3.43-.446"/></svg>