<svg xmlns="http://www.w3.org/2000/svg" width="20" height="20" fill="#000000"><mask id="a" width="20" height="20" x="0" y="0" maskUnits="userSpaceOnUse" style="mask-type:alpha"><circle cx="10" cy="10" r="10" fill="#d9d9d9"/></mask><g mask="url(#a)"><path fill="url(#b)" d="M0 0h20v5H0z"/><path fill="url(#c)" d="M0 5h20v5H0z"/><path fill="url(#d)" d="M0 10h20v5H0z"/><path fill="url(#e)" d="M0 15h20v5H0z"/></g><circle cx="15" cy="15" r="5" fill="#141414"/><path fill="#b8b8b8" fill-rule="evenodd" d="m13.41 14.348 1.59-1.59 1.59 1.59.925-.924L15 10.909l-2.515 2.515.925.924Zm-1.577-.27-.924.924.924.923.923-.924-.923-.923ZM15 17.244l-1.59-1.59-.925.924L15 19.094l2.515-2.515-.925-.924-1.59 1.59Zm3.167-3.166-.923.924.923.923.924-.923-.924-.924ZM15 14.064l.938.937-.938.938-.937-.938.162-.168.084-.078.691-.691Z" clip-rule="evenodd"/><defs><linearGradient id="b" x1="10" x2="10" y1="0" y2="5" gradientUnits="userSpaceOnUse"><stop offset=".479" stop-color="#d6d6d6"/><stop offset="1" stop-color="#858585"/></linearGradient><linearGradient id="c" x1="10" x2="10" y1="5" y2="10" gradientUnits="userSpaceOnUse"><stop offset=".505" stop-color="#999999"/><stop offset="1" stop-color="#525252"/></linearGradient><linearGradient id="d" x1="10" x2="10" y1="10" y2="15" gradientUnits="userSpaceOnUse"><stop offset=".401" stop-color="#dedede"/><stop offset="1" stop-color="#ababab"/></linearGradient><linearGradient id="e" x1="10" x2="10" y1="15" y2="20" gradientUnits="userSpaceOnUse"><stop offset=".479" stop-color="#e5e5e5"/><stop offset="1" stop-color="#8a8a8a"/></linearGradient></defs></svg>