<svg xmlns="http://www.w3.org/2000/svg" width="200" height="200" fill="#000000"><path fill-opacity=".494" fill-rule="evenodd" d="M68.372 3.651C63.933 14.277 64.497 25.87 70.288 43l3.212 9.5-2.805 3c-1.542 1.65-4.338 6.162-6.212 10.027-1.875 3.865-4.836 8.365-6.581 10-8.069 7.56-16.896 25.222-16.906 33.828-.007 6.117-5.946 12.586-14.632 15.941-2.276.878-8.097 2.339-12.936 3.246s-9.84 2.045-11.113 2.529L0 131.95V200h115.77l.647-5.25c.357-2.887 1.038-11.775 1.514-19.75 1.006-16.831 3.73-26.583 7.174-25.683 1.042.273 1.895.178 1.895-.211s2.097-1.726 4.66-2.972c5.657-2.748 15.356-10.092 18.523-14.026 1.274-1.583 3.78-3.616 5.567-4.519 2.793-1.41 3.25-2.165 3.25-5.374 0-2.651.58-4.096 2-4.983 2.592-1.619 2.592-5.845.001-7.463-1.1-.687-3.675-3.682-5.723-6.655l-3.723-5.407 2.369-1.573C157.38 93.84 164 87.313 164 86.201c0-.526.675-1.516 1.5-2.201 2.049-1.701 1.883-4.329-.58-9.156-2.495-4.891-5.675-7.904-12.603-11.94-6.779-3.949-7.3-6.244-3.509-15.439 1.58-3.831 3.503-9.441 4.273-12.466 1.691-6.637 1.712-24.783.036-30.749C152.056.475 151.592 0 148.961 0 146.194 0 146 .251 146 3.84 146 18.139 132.302 47 125.516 47c-1.286 0-4.877.971-7.979 2.159l-5.642 2.159-5.697-2.694c-3.134-1.481-7.65-3.015-10.035-3.408-4.171-.688-4.545-1.057-9.725-9.589-7.145-11.77-9.598-18.475-10.199-27.877L75.743 0H72.82c-2.417 0-3.185.63-4.448 3.651M150 78.418c0 3.771-1.009 5.535-4.072 7.119-5.888 3.045-14.928.905-14.928-3.535 0-2.735-1.729-3.377-2.95-1.096-1.987 3.714-1.237 4.85 4.04 6.116 8.619 2.067 29.179-.452 32.358-3.965 1.501-1.659 1.507-1.959.066-3.4-1.809-1.81-7.717-3.643-11.764-3.651-2.243-.005-2.75.439-2.75 2.412m-35 2.592c0 4.435-2.106 6.987-6.768 8.202-1.503.392-.257.475 2.768.184 10.202-.979 17.029-5.578 15.488-10.434-.518-1.632-1.536-1.962-6.055-1.962H115zm-26.41 1.88c-1.704.668-1.542.976 1.5 2.851 1.875 1.157 4.76 2.427 6.41 2.822l3 .719-2.25-2.455C96.013 85.476 95 83.838 95 83.186c0-1.307-3.428-1.466-6.41-.296m36.647 74.963c-2.387 1.476-7.916 32.716-6.822 38.547l.676 3.6h6.87c6.843 0 6.884-.017 10.099-4.075 6.497-8.203 7.796-17.326 2.845-19.976-2.836-1.518-7.859 1.056-12.624 6.469l-4.129 4.691 1.465-6.305c.806-3.467 2.122-8.523 2.924-11.236 2.392-8.085 1.776-13.618-1.304-11.715m31.889 20.652c-4.792 4.329-7.376 10.494-6.942 16.563l.316 4.432 8.169.289 8.17.289 2.576-3.378c2.651-3.476 5.177-9.441 4.349-10.269-.257-.257-1.695 1.305-3.196 3.471-1.501 2.165-4.517 5.177-6.703 6.692-3.292 2.281-4.437 2.591-6.67 1.806-4.203-1.478-3.315-4.101 2.805-8.288 9.531-6.519 11.693-14.172 4.217-14.92-2.385-.239-3.989.51-7.091 3.313m2.173 2.745c-2.034 2.234-4.299 6.048-4.299 7.241 0 .342 1.397-.191 3.105-1.184 3.157-1.838 6.895-5.872 6.895-7.442 0-1.714-3.695-.817-5.701 1.385m-28.802 1.887c-4.339 3.809-8.914 11.335-8.131 13.375 1.774 4.622 11.291-1.428 14.191-9.021 2.952-7.731.111-9.773-6.06-4.354"/><path fill-opacity=".124" fill-rule="evenodd" d="M68.481 3.699c-4.596 11-3.156 28.223 3.695 44.212l1.891 4.41-2.394 2.59C68.672 58.156 64 65.155 64 66.404c0 .516 1.446-1.244 3.214-3.913 6.274-9.472 13.15-14.631 21.209-15.912 9.26-1.471 23.851 4.507 25.996 10.651.524 1.502.733 2.952.463 3.222s-2.367-.438-4.661-1.572-5.955-2.303-8.138-2.596c-5.194-.696-16.005 1.382-20.082 3.862-4.9 2.979-2.981 3.218 3.104.385 4.246-1.977 6.997-2.514 12.918-2.521 6.905-.009 8.044.298 13.875 3.74l6.352 3.75-9.449.563c-8.7.518-10.054.895-17.078 4.75-4.196 2.303-8.437 4.201-9.426 4.217-1.622.028-1.602.148.203 1.233 1.848 1.11 1.734 1.241-1.5 1.719-2.661.394-3.5.998-3.5 2.518 0 1.554 1.056 2.261 4.73 3.167 2.601.643 5.976 2.043 7.5 3.112 1.523 1.069 4.52 2.511 6.66 3.206 5.115 1.66 16.88 1.369 20.912-.518 1.759-.823 2.298-1.208 1.198-.856-3.955 1.267-17.081 1.587-21 .511-2.2-.603-5.549-2.049-7.443-3.212-3.683-2.263-3.315-2.984 2.193-4.294 2.107-.501 2.75-.288 2.75.91 0 .861 1.105 2.669 2.455 4.019 1.939 1.94 3.484 2.455 7.365 2.455 6.768 0 10.18-2.706 10.18-8.073V77h5.532c4.803 0 5.652.297 6.437 2.25.497 1.237.933 1.688.968 1 .121-2.392 3.063-1.309 3.063 1.128 0 3.205 2.145 4.771 7.335 5.356 6.429.725 10.473-1.678 11.276-6.702.581-3.633.898-3.954 4.258-4.311 1.997-.211-.644-.456-5.869-.542-5.985-.099-11.317.394-14.409 1.332-6.245 1.894-6.591 1.874-6.591-.381 0-4.538 24.287-6.559 32.782-2.728 5.011 2.259 5.536 3.988.968 3.186l-3.25-.57 3.362 1.283c1.849.707 4.04 2.165 4.869 3.242 1.428 1.855 1.472 1.809.848-.876-1.552-6.675-9.579-15.27-16.63-17.806-4.074-1.466-5.037-6.321-2.352-11.861 5.552-11.46 7.86-25.138 6.406-37.973C152.935 2.599 152.28 0 150.974 0c-.447 0-.31 1.688.304 3.75.615 2.063 1.128 9.15 1.141 15.75.025 12.259-1.073 17.858-5.552 28.309l-1.846 4.309-3.344-2.551c-1.839-1.403-4.769-2.835-6.511-3.184-1.741-.348-3.166-.832-3.166-1.075s1.074-1.874 2.386-3.625c4.975-6.638 9.782-18.261 12.124-29.314C148.221 4.293 148.391 0 147 0c-.55 0-1 1.953-1 4.34 0 13.446-13.282 42.633-19.42 42.674-3.204.021-6.58 1.118-6.58 2.138 0 .518.844.467 1.934-.117 1.064-.569 4.855-1.035 8.424-1.035 5.541 0 6.943.382 9.601 2.619 2.515 2.116 6.041 7.13 6.041 8.591 0 .17-4.838.305-10.75.299-5.912-.005-12.662.368-15 .829-3.611.712-4.25.592-4.25-.8 0-.9-.661-2.916-1.469-4.479-1.428-2.761-1.385-2.877 1.532-4.085 1.65-.684 2.804-1.441 2.562-1.682-.242-.242-1.752.239-3.356 1.069-2.745 1.419-3.25 1.339-8.62-1.369-3.137-1.583-7.695-3.176-10.128-3.541-4.069-.61-4.745-1.157-8.414-6.807-2.195-3.379-5.676-9.704-7.736-14.056-3.158-6.668-3.815-9.221-4.184-16.25C75.94 3.637 75.305 0 74.732 0c-.649 0-.824 2.83-.482 7.811.623 9.098 4.266 18.752 11.202 29.689l4.44 7-3.696 1.003c-2.033.552-5.101 1.771-6.819 2.71s-3.478 1.388-3.911.997-.423-.035.02.79c.551 1.023.479 1.182-.227.5-1.47-1.421-5.876-14.845-7.319-22.3-1.32-6.815-.655-19.462 1.051-20.03.562-.188.775-.739.474-1.226s.158-2.248 1.02-3.915C71.353 1.35 71.6 0 71.039 0c-.557 0-1.708 1.665-2.558 3.699m55.769 57.524c-3.437.581-6.25 1.397-6.25 1.813s1.633 2.191 3.629 3.943c2.595 2.279 4.234 3.013 5.75 2.576 11.503-3.315 14.332-3.723 21.292-3.071 4.031.378 7.329.432 7.329.122 0-.91-7.499-4.475-10.629-5.053-6.437-1.188-15.228-1.326-21.121-.33M96.5 70.33c-9.616 4.41-12.197 5.938-10.814 6.399.65.216 4.401-1.273 8.336-3.309 8.092-4.188 16.384-5.628 21.978-3.817 1.925.623 4.85 1.4 6.5 1.727 2.238.443 1.731-.028-2-1.855-7.317-3.584-14.91-3.313-24 .855m56.268-1.162c.582.582 1.647.86 2.369.62.749-.25.295-.703-1.057-1.057-1.663-.435-2.054-.305-1.312.437M134.5 70c.34.55.816 1 1.059 1s.441-.45.441-1-.477-1-1.059-1-.781.45-.441 1m-76.111 4.947c-4.913 5.441-13.919 18.856-13.165 19.611.294.293 1.947-1.971 3.674-5.032 1.728-3.061 3.954-6.378 4.948-7.372s2.096-2.56 2.449-3.48c.95-2.475 3.685-2.063 3.823.576.066 1.237.048 2.805-.04 3.484-.093.724.479.99 1.382.643 1.656-.635 1.751-1.484.604-5.377-.405-1.375-.347-3.575.128-4.889.475-1.313.739-2.462.586-2.552-.153-.091-2.128 1.884-4.389 4.388M131 71.059c0 .582.45.781 1 .441s1-.816 1-1.059-.45-.441-1-.441-1 .477-1 1.059m-36.634 3.826c-4.326 2.137-9.553 4.182-11.616 4.545S79 80.52 79 81.045c0 1.664 5.827 1.046 19.4-2.058 7.248-1.658 16.198-3.12 19.889-3.25 3.691-.131 6.711-.532 6.711-.893 0-1.493-9.822-3.844-16.062-3.844-5.775 0-7.799.54-14.572 3.885M123.5 85.708c-2.662 2.346-2.746 2.579-.75 2.062 3.334-.863 2.727.92-1 2.94-4.979 2.7-22.241 2.427-30.25-.477-5.538-2.009-5.824-2.029-3.719-.269 3.443 2.878 12.452 4.34 23.476 3.809 8.563-.412 10.226-.799 13.504-3.139 2.783-1.986 3.816-2.312 4.039-1.274.39 1.816 5.529 2.615 16.891 2.629 5.055.006 9.469.461 9.809 1.011s-.028 1-.819 1-2.013.695-2.719 1.546c-.705.85-1.871 1.319-2.59 1.043s-1.574-.071-1.899.455c-.78 1.261-12.62 1.231-15.965-.041-4.021-1.529-2.091.659 2.768 3.138 2.737 1.396 4.267 1.73 4.515.985.207-.619 2.026-1.133 4.042-1.141s4.332-.436 5.144-.95c1.518-.96 5.023 1.282 5.023 3.212 0 .516.9 2.082 2 3.48s2 2.876 2 3.282-3.262 1.809-7.25 3.116c-6.398 2.096-9.072 2.371-22.75 2.337-13.277-.033-17.148-.427-26.993-2.75-14.397-3.397-17.376-3.434-20.552-.257-3.633 3.633-3.319 8.315.827 12.334 5.536 5.366 15.632 7.405 36.218 7.318 9.35-.04 20.713-.435 25.25-.877s8.25-.449 8.25-.017c0 .433-.45.787-1 .787s-.888.542-.75 1.205c.137.662-.2 1.243-.75 1.29s-2.51 1.53-4.356 3.295c-3.134 2.998-4.427 3.658-6.468 3.304-.454-.079-.585.243-.293.716.606.981-4.349 3.536-12.383 6.385-11.598 4.111-33.486 3.136-52.741-2.351-8.42-2.399-13.696-5.517-19.46-11.502-4.704-4.884-7.382-10.972-8.969-20.389l-1.256-7.453-.725 4.894c-.554 3.743-1.596 5.787-4.429 8.688-4.788 4.903-10.381 7.218-23.861 9.877-6.017 1.187-11.304 2.384-11.75 2.659C-.394 132.362-.219 200 .987 200c.624 0 1.083-12.385 1.25-33.713l.263-33.713 3.5-.734c1.925-.404 7.071-1.421 11.435-2.26 10.37-1.995 17.956-5.756 21.513-10.668l2.803-3.869.67 4.186c2.092 13.087 10.962 21.371 29.079 27.159 15.315 4.893 34.113 6.859 45.143 4.722l4.143-.802-1.956 5.596c-1.382 3.954-2.23 10.284-2.89 21.573-.514 8.787-1.215 17.562-1.559 19.5-.47 2.656-.337 3.254.54 2.431.698-.656 1.71-8.645 2.532-20 .934-12.89 1.965-20.599 3.241-24.223 1.762-5.005 2.2-5.448 7.538-7.617 6.618-2.69 18.849-11.469 21.85-15.683 1.147-1.61 3.657-3.585 5.58-4.388 3.157-1.319 3.465-1.797 3.194-4.947-.222-2.573.282-4.03 1.922-5.558 2.753-2.565 2.858-5.581.243-6.981-1.088-.582-3.785-3.719-5.993-6.97-3.612-5.319-3.828-5.97-2.16-6.499 1.019-.324 3.509-2.378 5.533-4.565s3.999-3.981 4.389-3.985 1.206-1.078 1.813-2.387c1.096-2.365 1.082-2.371-2.124-1.032-1.774.742-6.321 1.819-10.103 2.395s-8.001 1.32-9.376 1.654c-2.348.57-2.379.657-.5 1.422 1.931.787 1.925.818-.167.886-1.191.038-2.323-.4-2.515-.975-.191-.575-3.41-1.744-7.153-2.598-5.042-1.15-6.665-1.915-6.266-2.955.704-1.834.619-1.795-2.899 1.306m35.548 1.241c-.799.506-1.811.697-2.25.426s-.798-.016-.798.566c0 1.567 2.568 1.284 4-.441 1.42-1.711 1.139-1.873-.952-.551M130.5 89c.34.55.816 1 1.059 1s.441-.45.441-1-.477-1-1.059-1-.781.45-.441 1m20.5 0c-1.165.753-.872.973 1.309.985 1.621.009 2.548-.408 2.191-.985-.767-1.242-1.579-1.242-3.5 0m-17.187.683c.721.289 1.584.253 1.916-.079s-.258-.568-1.312-.525c-1.165.048-1.402.285-.604.604m-23.793 8.391c-3.014 1.609-6.277 2.926-7.25 2.926-.974 0-1.77.45-1.77 1s.686 1 1.525 1c1.651 0 15.475-6.711 15.475-7.513 0-1.088-2.791-.183-7.98 2.587m-66.904 1.024c-.614 1.76-1.086 3.921-1.049 4.801s.692-.406 1.456-2.859c1.6-5.135 1.264-6.736-.407-1.942m18.518 60.652c-1.745 3.918-5.051 19.971-6.194 30.074-.991 8.766.103 10.176 7.899 10.176 5.773 0 6.513-.257 9.353-3.25 3.95-4.163 6.174-8.61 6.436-12.873.657-10.673-6.711-11.615-15.422-1.974l-3.643 4.033.609-3.218c.335-1.77 1.683-6.977 2.994-11.572 1.582-5.538 2.171-9.499 1.748-11.75-.819-4.37-1.714-4.286-3.78.354m63.464-1.368c-1.339 1.613-4.088 14.123-6.124 27.867-1.805 12.184-1.029 13.751 6.808 13.751 5.262 0 6.13-.315 8.965-3.25 8.437-8.733 9.563-20.75 1.946-20.75-3.691 0-9.805 4.491-12.784 9.39l-1.855 3.05.612-3.97c.337-2.184 1.675-7.689 2.973-12.235 2.502-8.759 2.842-11.928 1.507-14.032-.661-1.043-1.063-1.008-2.048.179M93.97 178.794c-2.156 2.157-4.195 3.648-4.529 3.314s-.488-.158-.342.392-.303 2.8-.996 5-1.113 5.8-.932 8l.329 4 9.208.152 9.208.153 2.042-4.218c2.34-4.835 2.507-6.182.887-7.182-.736-.456-.882-.273-.402.503 1.058 1.712-6.593 8.746-10.43 9.589-6.249 1.373-8.2-3.864-2.57-6.896 1.894-1.02 5.072-3.347 7.064-5.171 3.129-2.866 3.578-3.833 3.307-7.123-.299-3.622-.499-3.822-4.118-4.121-3.292-.271-4.332.215-7.726 3.608m66.448-2.825c-2.699 1.092-7.342 6.625-9.121 10.871-.769 1.837-1.264 5.437-1.098 8l.301 4.66h16.98l3.26-5.456c4.3-7.197 4.172-9.526-.209-3.789-5.504 7.21-12.315 10.561-15.331 7.545-2.282-2.282-1.064-4.316 4.875-8.138 6.927-4.457 9.691-8.685 8.044-12.301-1.126-2.471-3.826-2.959-7.701-1.392m-62.689 4.123c-.974.567-1.51 1.453-1.191 1.969.319.517.115.939-.453.939s-1.757 1.4-2.642 3.11c-1.774 3.431-1.305 3.342 4.326-.823 1.798-1.329 3.008-2.838 2.691-3.352s-.101-.935.481-.935 1.059-.45 1.059-1c0-1.277-1.994-1.234-4.271.092m61.022 1.658c-1.443 1.512-3.101 4.012-3.683 5.554l-1.06 2.804 3.098-1.804c3.264-1.901 7.894-6.816 7.894-8.381 0-1.909-3.723-.821-6.249 1.827m-91.507 2.246c-4.137 3.975-8.05 9.989-6.52 10.019.427.009.156.408-.602.889-1.837 1.163-.531 3.096 2.093 3.096 5.004 0 13.336-10.133 12.594-15.317-.497-3.474-3.042-3.033-7.565 1.313m62.112.254c-7.234 7.572-9.383 12.758-5.847 14.115C128.35 200.223 138 189.691 138 182.55c0-4.07-3.856-3.311-8.644 1.7"/><path fill-opacity=".478" fill-rule="evenodd" d="M68.005 5.681C64.633 14.639 65.452 28.032 70.226 42l3.589 10.5-2.207 2.5c-1.215 1.375-2.636 3.193-3.158 4.039-.523.846.253.171 1.724-1.5s4.171-4.326 6-5.899c2.116-1.819 2.502-2.44 1.059-1.706-2.11 1.074-2.405.831-4.27-3.52-5.926-13.825-7.543-30.147-4.003-40.403 2.548-7.382 1.797-7.642-.955-.33m6.382-3.086c-1.73 6.893 3.513 22.529 12.01 35.812C88.379 41.504 90 44.222 90 44.446s-.787.613-1.75.865c-.963.251.725.456 3.75.455 4.008-.002 4.696-.175 2.537-.638-2.324-.498-3.986-2.254-7.697-8.131-7.024-11.125-11.008-21.935-11.136-30.212C75.647 3.053 75.473 0 75.319 0c-.155 0-.574 1.168-.932 2.595m72.22-1.013c-.334.87-.607 3.016-.607 4.77 0 8.156-6.603 25.485-13.57 35.613-1.972 2.867-3.4 5.398-3.174 5.624.779.779 7.65-10.104 11.105-17.589 1.903-4.125 4.138-10.2 4.966-13.5 2.543-10.137 3.435-20.534 1.28-14.918m4.831 1.168c.369 1.513.916 7.7 1.215 13.75.611 12.349-.836 20.701-5.315 30.681l-2.601 5.796-3.403-2.989c-1.872-1.643-4.4-2.936-5.619-2.872-1.986.104-2.013.167-.257.613 3.213.816 6.699 3.491 8.771 6.728 1.071 1.674 1.759 2.373 1.53 1.555-.23-.818.864-4.315 2.431-7.77 3.951-8.713 5.967-18.226 6-28.309C154.216 11.848 152.506 0 151.313 0c-.301 0-.244 1.237.125 2.75M98.813 46.683c.721.289 1.584.253 1.916-.079s-.258-.568-1.312-.525c-1.165.048-1.402.285-.604.604m-18.306 1.306c-.35.566.051.734.941.393 1.732-.665 2.049-1.382.611-1.382-.518 0-1.216.445-1.552.989m44.243-.327c.688.278 1.813.278 2.5 0 .688-.277.125-.504-1.25-.504s-1.937.227-1.25.504m-12.159 6.629c2.547 3.026 3.416 8.384 1.159 7.136-.687-.38.325.7 2.25 2.401 2.212 1.953 2.948 3.12 2 3.171-1.254.066 4.306 3.001 5.686 3.001.251 0-1.263-1.651-3.365-3.669l-3.821-3.669 4-.884c2.2-.487 7.375-1.251 11.5-1.698 7.206-.782 7.284-.818 2-.912-3.025-.054-8.312.506-11.75 1.243-6.147 1.319-6.25 1.306-6.25-.812 0-1.185-.701-3.155-1.558-4.378s-1.34-2.577-1.073-3.008c.266-.432-.342-.784-1.351-.784-1.647 0-1.588.294.573 2.862M97.25 56.689c.963.252 2.537.252 3.5 0 .963-.251.175-.457-1.75-.457s-2.713.206-1.75.457m-6.437.994c.721.289 1.584.253 1.916-.079s-.258-.568-1.312-.525c-1.165.048-1.402.285-.604.604m-8.063 2.385C80.688 61.157 79 62.271 79 62.544s1.688-.35 3.75-1.385 4.425-2.133 5.25-2.441c1.333-.498 1.333-.564 0-.595-.825-.019-3.187.856-5.25 1.945m24.333-1.703c.23.2 1.542.9 2.917 1.555 2.357 1.122 2.389 1.102.559-.365-1.593-1.276-4.848-2.391-3.476-1.19M146 58.93c0 .512-1.012 1.092-2.25 1.288-1.859.295-1.71.447.856.875 2.627.438 3.032.24 2.633-1.287-.501-1.914-1.239-2.436-1.239-.876m9.267 7.356c.631 1.338 2.404 2.906 3.94 3.486S162 71.37 162 72.036c0 .892-.349.92-1.328.107-2.438-2.024-14.678-3.174-21.422-2.013-3.437.591-6.25 1.171-6.25 1.287s5.063.038 11.25-.175c10.251-.353 11.645-.181 15.7 1.935 4.515 2.357 6.902 5.354 3.384 4.248-1.686-.529-1.695-.486-.116.531.945.609 2.189 1.881 2.764 2.826.812 1.334.895 1.048.374-1.282-1.093-4.877-4.258-9.149-10.612-14.323-1.46-1.189-1.508-1.077-.477 1.109m-48.517.437c1.787.222 4.713.222 6.5 0 1.787-.221.325-.403-3.25-.403s-5.037.182-3.25.403m-12 2.843c-2.612 1.36-4.75 2.696-4.75 2.97s2.138-.572 4.75-1.879 5.425-2.629 6.25-2.938c1.333-.499 1.333-.565 0-.593-.825-.018-3.638 1.08-6.25 2.44M134 67.921c-1.375.398 2.45.544 8.5.326s11.45-.552 12-.743c2.001-.693-18.071-.284-20.5.417m-30.097 2.092C99.686 70.726 93 73.464 93 74.477c0 .234 1.912-.443 4.25-1.504 7.925-3.597 28.489-1.909 27.402 2.25-.256.977-.042 1.777.474 1.777s1.345 1.013 1.843 2.25c.497 1.237.933 1.688.968 1 .129-2.545 2.834-1.147 3.416 1.767.404 2.016 1.461 3.342 3.19 4 6.997 2.66 13.859-.312 15.021-6.504.542-2.891 1.11-3.461 3.787-3.797 1.732-.218-.676-.463-5.351-.545-5.092-.09-10.468.448-13.409 1.34-6.939 2.105-7.916 1.97-7.346-1.011.263-1.375.035-2.5-.506-2.5s-.424-.675.261-1.5c1.015-1.223.96-1.5-.294-1.5-.847 0-1.689.45-1.873 1-.212.638-2.866.464-7.333-.483-3.85-.815-7.45-1.437-8-1.382s-3.069.45-5.597.878m-45.971 5.742c-2.248 2.441-2.484 2.893-.682 1.311L60 74.651l.015 2.425c.009 1.333.472 3.099 1.031 3.924.747 1.105.853.71.401-1.5-.338-1.65-.776-3.533-.974-4.185-.199-.652.177-1.378.833-1.613.657-.236.938-.708.626-1.05-.313-.342-2.113 1.054-4 3.103m71.881-3.072c.721.289 1.584.253 1.916-.079s-.258-.568-1.312-.525c-1.165.048-1.402.285-.604.604M83 75c-2.06.66-2.148.816-.5.885 1.1.046 2.675-.352 3.5-.885 1.752-1.132.536-1.132-3 0m1.5 2.388c-5.692 1.266-7.507 2.216-7.485 3.921.012.901.203.895.788-.024.424-.668 3.113-1.717 5.975-2.331s5.46-1.529 5.772-2.035c.312-.505.429-.857.259-.781s-2.559.638-5.309 1.25m15 1.652c-6.6 1.584-14.025 2.95-16.5 3.035l-4.5.155 3.698.719c2.033.396 4.508 1.356 5.5 2.135 1.625 1.277 1.674 1.252.499-.25-1.113-1.424-1.004-1.751.75-2.25L93 81.433c1.408-.4 2-.09 2 1.045 0 .887 1.105 2.717 2.455 4.067C99.418 88.509 100.928 89 105 89c6.673 0 10-2.979 10-8.955 0-4.892.544-4.856-15.5-1.005m-46.628 2.71c-1.243 1.586-1.208 1.621.378.378C54.916 80.821 55.445 80 54.622 80c-.207 0-.995.787-1.75 1.75m71.722 3.146c-1.336 1.476-1.426 2.016-.405 2.436.946.389.653 1.115-1.05 2.604-1.298 1.135-1.908 2.064-1.355 2.064s2.066-1.104 3.361-2.453c1.632-1.7 3.123-2.32 4.855-2.019 1.567.272 1.27.009-.796-.705-2.087-.721-3.108-1.631-2.782-2.481.706-1.838.197-1.684-1.828.554m38.505-.494c-1.699.941-1.992 1.467-1.003 1.797 2.095.698-2.434 2.849-7.968 3.784-4.593.776-4.6.783-.878.899 3.701.116 4.467.8 3 2.679-.412.528.69-.507 2.449-2.3 1.759-1.794 3.559-3.265 4-3.269s1.321-1.129 1.957-2.5 1.086-2.476 1-2.457-1.237.635-2.557 1.367m-11.286 3.281c.721.289 1.584.253 1.916-.079s-.258-.568-1.312-.525c-1.165.048-1.402.285-.604.604m-6.544 1.01c.973.254 2.323.237 3-.037s-.119-.481-1.769-.461-2.204.244-1.231.498M90.5 90.957c2.2 1.095 5.125 1.972 6.5 1.949 1.704-.028 1.068-.451-2-1.329-2.475-.709-5.4-1.586-6.5-1.949-1.1-.364-.2.235 2 1.329m16-.957-8 .633 7.5.113c4.125.063 8.4-.273 9.5-.746 1.103-.474 1.327-.809.5-.746-.825.062-5.1.398-9.5.746m25.25.662c.688.278 1.813.278 2.5 0 .688-.277.125-.504-1.25-.504s-1.937.227-1.25.504m7 1.061c1.787.222 4.713.222 6.5 0 1.787-.221.325-.403-3.25-.403s-5.037.182-3.25.403m-20.937.96c.721.289 1.584.253 1.916-.079s-.258-.568-1.312-.525c-1.165.048-1.402.285-.604.604m-14.063 1.049c2.337.211 6.162.211 8.5 0 2.337-.21.425-.383-4.25-.383s-6.588.173-4.25.383m9 3.336c-2.062 1.089-3.75 2.203-3.75 2.476s1.8-.422 4-1.544 4-2.257 4-2.52c0-.654-.007-.652-4.25 1.588m16.25-.471c0 .199 1.688 1.217 3.75 2.261 3.081 1.56 4.766 1.759 9.444 1.114 3.131-.431 6.103-1.038 6.604-1.347.501-.31 1.824.435 2.94 1.656 2.063 2.257 5.675 8.732 5.086 9.115-1.662 1.081-9.225 3.773-12.824 4.565-10.962 2.412-33.25.879-49.877-3.429-3.489-.904-7.531-1.506-8.983-1.338-3.218.373 22.068 5.468 33.86 6.823 10.833 1.244 27.05-.256 32.803-3.036 5.367-2.593 10.197-2.657 10.197-.136 0 3.028-3.197 5.028-11.574 7.239-13.86 3.659-50.24 2.641-61.294-1.716-3.208-1.265-3.415-1.26-1.772.041 6.441 5.099 48.767 7.187 62.321 3.075 6.866-2.083 8.319-1.927 8.319.894 0 1.307-.653 2.919-1.451 3.581-2.612 2.168-27.785 4.262-44.049 3.664-20.721-.762-30.029-3.43-33.101-9.487-1.637-3.229-2.337-3.635-1.693-.985 1.001 4.124 4.517 6.857 11.75 9.133 6.212 1.954 9.228 2.216 25.544 2.216 10.175 0 22.496-.345 27.381-.766l8.881-.766-2.718 3.766-2.718 3.766 3.837-4.166c2.11-2.292 4.848-4.459 6.085-4.817 2.302-.666 3.891-4.409 2.932-6.908-.295-.768.557-2.422 1.892-3.677 2.778-2.61 3.17-5.71.836-6.606-.876-.336-3.574-3.334-5.996-6.662-3.29-4.523-4.088-6.279-3.157-6.952.811-.587.548-.662-.755-.217-6.238 2.134-14.104 2.658-18.25 1.216-2.338-.812-4.25-1.314-4.25-1.114m-24.5 4.116c-1.1.265-2.427.887-2.95 1.384-1.507 1.433 1.638 1.011 4.45-.597 2.532-1.448 2.128-1.66-1.5-.787m-63.43 9.233c-.175 8.568-10.329 15.801-26.07 18.569-4.675.822-9.85 1.862-11.5 2.311l-3 .817-.027 34.429L.447 200.5l.526-34 .527-34 11.213-2.206c14.121-2.779 20.195-5.386 25.201-10.816l3.959-4.296 1.06 4.942c2.023 9.43 6.27 14.958 16.282 21.187 4.988 3.103 4.327 1.735-.843-1.747-4.97-3.347-9.793-8.607-12.342-13.463-.693-1.32-2.077-6.27-3.075-11-1.178-5.583-1.839-7.392-1.885-5.155m38.761 1.304c-1.906 1.536-3.124 4.75-1.8 4.75.533 0 .969-.527.969-1.171s.745-1.994 1.655-3c1.901-2.101 1.455-2.415-.824-.579m62.574 27-1.905 2.25 2.25-1.905c2.114-1.79 2.705-2.595 1.905-2.595-.19 0-1.202 1.012-2.25 2.25m-9.29 5.283c-10.294 5.349-18.239 6.838-32.991 6.186-9.312-.412-15.641-1.335-24.124-3.517-12.73-3.276-15.79-3.453-5.674-.328 15.738 4.86 33.776 7.033 44.174 5.319 3.3-.543 6.079-.918 6.176-.831.097.086-.702 2.758-1.775 5.937-1.383 4.096-2.23 10.654-2.906 22.491-.525 9.191-1.22 17.835-1.544 19.21-.531 2.255-.471 2.314.609.608.686-1.083 1.63-9.206 2.209-19 .744-12.594 1.567-18.785 3.121-23.464 2.096-6.314 2.151-6.373 8.11-8.759 3.3-1.322 7.35-3.508 9-4.858 3.827-3.132 3.383-3.03-4.385 1.006m-71.293 15.946c-.923 1.829-2.915 10.563-4.426 19.41C53.933 199.163 54.177 200 63.565 200c5.923 0 6.386-.18 9.457-3.677 6.014-6.85 7.96-16.219 4.096-19.717-2.795-2.529-6.729-1.09-12.326 4.507-2.636 2.636-4.788 4.476-4.784 4.089s.954-4.302 2.11-8.702c3.761-14.315 3.58-24.701-.296-17.021m62.109 1.19c-.595 1.557-2.271 9.862-3.724 18.455-3.345 19.78-3.053 20.876 5.575 20.876 5.273 0 6.118-.308 8.91-3.25 5.512-5.808 8.171-13.35 6.374-18.076-2.016-5.302-10.274-2.466-16.145 5.543l-3.139 4.283.67-3.5c.369-1.925 1.805-7.618 3.192-12.651 1.386-5.034 2.371-10.174 2.188-11.422-.491-3.356-2.663-3.5-3.901-.258m-28.033 16.582C91.897 179.902 87 188.898 87 193.598c0 6.072.465 6.402 9.018 6.402 7.487 0 7.909-.125 10.393-3.077 1.424-1.692 2.589-3.455 2.589-3.918s.283-1.666.628-2.673-.82-.135-2.59 1.939c-5.331 6.246-11.263 8.361-14.467 5.158-2.392-2.392-2.004-3.09 3.763-6.78 6.136-3.925 9.666-7.973 9.666-11.084 0-4.878-4.63-5.939-10.102-2.314m63.392-.286c-6.369 3.883-10.604 13.662-8.884 20.515.644 2.567.757 2.596 8.834 2.31l8.181-.29 2.703-4.5c4.658-7.755 4.663-10.144.01-4.273-5.742 7.242-11.865 10.142-14.934 7.073-2.146-2.146-1.275-4.389 2.55-6.567 8.009-4.561 12.25-10.497 10.215-14.298-1.322-2.471-4.593-2.459-8.675.03m2.201 2.3c-2.668 1.493-5.201 4.662-6.408 8.017l-1.002 2.783 3.062-1.783c3.178-1.85 7.857-6.793 7.857-8.3 0-1.538-1.496-1.844-3.509-.717m-65.792 2.985c-2.867 3.877-4.003 6.75-2.67 6.75 1.568 0 8.971-7.11 8.971-8.616 0-2.561-3.877-1.412-6.301 1.866m-29.161 2.049c-4.437 4.631-8.021 11.11-7.031 12.712 1.019 1.649 5.513 1.111 8.503-1.018 3.266-2.326 6.99-9.416 6.99-13.309 0-4.157-3.587-3.472-8.462 1.615m64.874-2.487c-1.148.961-3.736 3.905-5.75 6.544-5.814 7.617-4.295 12.462 2.845 9.073 4.121-1.955 8.555-8.473 9.24-13.582.475-3.537.324-3.844-1.865-3.814-1.31.019-3.322.819-4.47 1.779"/><path fill-opacity=".525" fill-rule="evenodd" d="M132.5 77.472c-2.2.725-3.494 1.365-2.875 1.423s1.385 1.403 1.702 2.99c.615 3.074 4.448 5.12 9.572 5.11 3.568-.007 7.806-3.823 8.601-7.745l.659-3.25-6.83.077c-3.756.042-8.629.67-10.829 1.395m-26.521 1.166C95.67 80.714 95 80.954 95 82.565c0 .839 1.158 2.683 2.572 4.098 2.299 2.299 3.167 2.523 8.167 2.109 6.491-.539 9.261-2.996 9.261-8.216 0-3.693-.102-3.714-9.021-1.918m50.585 28.655c.376.986.935 1.541 1.243 1.233s.001-1.114-.683-1.793c-.988-.98-1.102-.865-.56.56m-71.814 2.369c.688.278 1.813.278 2.5 0 .688-.277.125-.504-1.25-.504s-1.937.227-1.25.504m6.063 1.021c.721.289 1.584.253 1.916-.079s-.258-.568-1.312-.525c-1.165.048-1.402.285-.604.604m-51.654 5.462c-1.269 2.206-3.85 4.92-5.734 6.032-3.812 2.249-4.692 3.547-1.175 1.733 3.367-1.736 6.758-5.061 8.419-8.253 2.291-4.405 1.081-4.014-1.51.488m122.92-2.968c-.043.923-1.265 2.611-2.714 3.75-1.449 1.14-2.202 2.073-1.674 2.073 1.668 0 5.547-4.798 4.995-6.179-.362-.905-.553-.793-.607.356m-52.266 1.506c.721.289 1.584.253 1.916-.079s-.258-.568-1.312-.525c-1.165.048-1.402.285-.604.604m33.937-.021c.688.278 1.813.278 2.5 0 .688-.277.125-.504-1.25-.504s-1.937.227-1.25.504m-27 1c.688.278 1.813.278 2.5 0 .688-.277.125-.504-1.25-.504s-1.937.227-1.25.504m17.514.056c1.52.229 3.77.223 5-.014s-.014-.425-2.764-.418-3.756.202-2.236.432M88 119c.825.533 1.95.969 2.5.969s.325-.436-.5-.969-1.95-.969-2.5-.969-.325.436.5.969m5.813 1.683c.721.289 1.584.253 1.916-.079s-.258-.568-1.312-.525c-1.165.048-1.402.285-.604.604m5.437 1.006c.963.252 2.537.252 3.5 0 .963-.251.175-.457-1.75-.457s-2.713.206-1.75.457m41.25.311-5 .686 4.5.057c2.475.032 5.625-.303 7-.743 3.111-.996.764-.996-6.5 0m-32.738.707c1.244.239 3.044.23 4-.02s-.062-.446-2.262-.435-2.982.216-1.738.455M26 126c-.825.533-1.05.969-.5.969s1.675-.436 2.5-.969 1.05-.969.5-.969-1.675.436-2.5.969m-8.25 2.662c.688.278 1.813.278 2.5 0 .688-.277.125-.504-1.25-.504s-1.937.227-1.25.504m74.063.021c.721.289 1.584.253 1.916-.079s-.258-.568-1.312-.525c-1.165.048-1.402.285-.604.604m56.454.035c1.522.23 2.508.837 2.191 1.35-.916 1.482.174 1.08 1.542-.568 1.073-1.292.709-1.479-2.628-1.35-3.039.117-3.277.24-1.105.568M8.5 129.681c-1.1.247-3.463.905-5.25 1.462L0 132.155l.236 34.173.236 34.172.278-33.464c.153-18.405.646-33.832 1.096-34.282s3.931-1.436 7.736-2.192 5.568-1.364 3.918-1.352-3.9.224-5 .471m88.769.012c.973.254 2.323.237 3-.037s-.119-.481-1.769-.461-2.204.244-1.231.498m40 0c.973.254 2.323.237 3-.037s-.119-.481-1.769-.461-2.204.244-1.231.498m-28.019 1.049c3.713.192 9.787.192 13.5 0 3.713-.193.675-.35-6.75-.35s-10.463.157-6.75.35m32.622 8.008c-1.243 1.586-1.208 1.621.378.378 1.666-1.307 2.195-2.128 1.372-2.128-.207 0-.995.787-1.75 1.75m-11.372 6.324c-3.3 1.606-6.787 2.921-7.75 2.923s-1.75.483-1.75 1.07c0 1.672 10.412-2.232 14.5-5.436 2.77-2.171 1.921-1.926-5 1.443m-52.687 2.609c.721.289 1.584.253 1.916-.079s-.258-.568-1.312-.525c-1.165.048-1.402.285-.604.604m4 1c.721.289 1.584.253 1.916-.079s-.258-.568-1.312-.525c-1.165.048-1.402.285-.604.604m4.437 1.006c.963.252 2.537.252 3.5 0 .963-.251.175-.457-1.75-.457s-2.713.206-1.75.457m18.25.311-13 .592 12.5.134c6.875.073 13.4-.253 14.5-.726s1.325-.799.5-.726-7.35.401-14.5.726m14.616 6.098c-.614 1.76-1.084 3.696-1.046 4.301.039.606.716-.66 1.504-2.812.789-2.152 1.259-4.087 1.046-4.301-.214-.213-.891 1.052-1.504 2.812m-57.461 4.679c-.894 2.048-2.76 10.556-4.148 18.908C54.316 198.888 54.619 200 63.042 200c5.123 0 6.059-.34 8.961-3.25 8.06-8.082 9.443-20.75 2.266-20.75-3.46 0-9.722 4.378-12.355 8.639-1.142 1.849-2.207 3.361-2.366 3.361-.517 0 1.429-9.291 3.466-16.549 3.143-11.203 2.178-18.781-1.359-10.674m62.4-.421c-.493 1.296-2.136 9.615-3.651 18.487-3.436 20.11-3.155 21.157 5.661 21.157 5.298 0 5.959-.264 8.813-3.513 5.625-6.407 7.974-13.524 5.938-17.992-2.228-4.89-10.322-1.906-15.996 5.896l-2.988 4.109.681-4c.375-2.2 1.35-6.475 2.168-9.5 3.188-11.793 3.589-13.854 2.996-15.4-.89-2.318-2.588-1.963-3.622.756m-6.745 7.144c.005 3.3.192 4.529.415 2.732s.218-4.497-.01-6c-.229-1.503-.411-.032-.405 3.268m-20.724 9.434c-6.168 4.066-10.595 14.199-8.992 20.584.596 2.375.957 2.482 8.34 2.482 8.427 0 10.196-1.017 12.938-7.436 1.167-2.732.974-2.647-2.783 1.225-5.571 5.74-12.014 7.012-14.487 2.86-.919-1.544-.619-2.207 1.811-4 1.602-1.182 4.739-3.512 6.971-5.178 9.141-6.822 5.575-16.716-3.798-10.537M116.349 183c0 4.675.173 6.588.383 4.25s.211-6.162 0-8.5c-.21-2.338-.383-.425-.383 4.25m42.98-6.059c-5.827 3.553-10.496 14.272-8.932 20.505.619 2.467.908 2.554 8.486 2.554h7.845l2.58-3.75c1.419-2.062 3.044-4.988 3.611-6.5.817-2.178-.19-1.502-4.84 3.25-4.509 4.608-6.544 6-8.775 6-6.456 0-7.061-4.774-1.054-8.316 8.047-4.744 12.145-11.147 9.09-14.202-1.989-1.988-4.206-1.861-8.011.459m-61.678 3.119c-2.664 2.096-5.651 6.82-5.651 8.938 0 1.763 8.8-4.792 9.533-7.101 1.053-3.318-.853-4.22-3.882-1.837m61.347.942c-1.542 1.651-3.274 4.35-3.848 5.998l-1.045 2.997 2.698-1.409c4.125-2.156 8.547-7.235 7.858-9.028-.891-2.324-2.536-1.905-5.663 1.442m-27.01.377c-6.115 4.185-11.969 13.734-9.928 16.193 1.708 2.058 3.975 1.768 8.101-1.035 4.16-2.827 8.131-10.174 7.659-14.171-.428-3.624-1.671-3.834-5.832-.987m-64.079 1.351C64.124 185.915 59 193.621 59 196.128c0 4.492 8.041 2.391 12.197-3.186 2.388-3.204 4.747-9.925 4.087-11.645-.805-2.097-3.893-1.497-7.375 1.433m47.241 11.438c-.083 1.468-.409 3.493-.726 4.5-.543 1.732-.513 1.735.564.056.627-.976.954-3.001.726-4.5l-.414-2.724z"/></svg>