<svg xmlns="http://www.w3.org/2000/svg" width="64" height="64" fill="#000000"><path fill-opacity=".231" fill-rule="evenodd" d="M21.882 1.321C12.953 4.658 6.444 10.703 2.378 19.435c-3.55 7.623-3.348 18.041.504 26.065C8.589 57.388 18.977 63.98 32 63.98c13.359 0 23.259-6.486 29.602-19.395C64.549 38.586 65 36.675 65 30.168c0-4.126-.274-7.227-.609-6.893s-1.926-2.027-3.536-5.249c-3.233-6.469-8.502-11.772-15.06-15.155C40.442.109 27.39-.737 21.882 1.321m3.931 1.362c.721.289 1.584.253 1.916-.079s-.258-.568-1.312-.525c-1.165.048-1.402.285-.604.604m11 0c.721.289 1.584.253 1.916-.079s-.258-.568-1.312-.525c-1.165.048-1.402.285-.604.604M26.667 5.667c-.932.932-.832 2.333.166 2.333.459 0 .834-.675.834-1.5 0-1.699-.073-1.76-1-.833M30 6.5c0 .825.436 1.5.969 1.5s.709-.675.393-1.5c-.317-.825-.753-1.5-.969-1.5S30 5.675 30 6.5m4.079.083c.048 1.165.285 1.402.604.605.289-.722.253-1.585-.079-1.917s-.568.258-.525 1.312m3.668-.365c-.355.924-.04 1.839.733 2.136.745.286 1.612-.15 1.926-.969s.165-1.238-.332-.931-1.084.016-1.305-.647c-.261-.784-.619-.64-1.022.411m-26.291 6.853c-.375.607-.241 1.544.298 2.083.64.64 1.185.448 1.57-.555.699-1.823-.885-3.119-1.868-1.528M30 14.969c0 .532.675.709 1.5.393.825-.317 1.5-.753 1.5-.969S32.325 14 31.5 14s-1.5.436-1.5.969m20.44.129c-.866 1.4 1.316 1.901 2.431.558.828-.999.723-1.323-.431-1.323-.84 0-1.741.344-2 .765M27 16c0 .55.45 1 1 1s1-.45 1-1-.45-1-1-1-1 .45-1 1M9.733 18.124c.679.684 1.486.991 1.793.683.308-.308-.247-.867-1.233-1.243-1.425-.542-1.54-.428-.56.56m21.961-.485c-.799.799.104 2.361 1.365 2.361.518 0 .941-.675.941-1.5 0-1.546-1.18-1.987-2.306-.861m6.306.643c0 .705 1.125 1.375 2.5 1.489 1.64.135 2.5-.306 2.5-1.282 0-.922-.953-1.489-2.5-1.489-1.375 0-2.5.577-2.5 1.282m-14.435.613c-.305.493.156 1.168 1.023 1.5 2.753 1.057 3.731.694 2.412-.895-1.412-1.702-2.625-1.915-3.435-.605m-4.762 1.856c-.404 1.477-.246 2.023.46 1.586.681-.421.842-.054.438.999-.351.915-.25 1.664.223 1.664.474 0 1.135-.712 1.469-1.582.836-2.178.763-2.632-.317-1.965-.509.314-1.089-.222-1.291-1.191-.3-1.444-.477-1.356-.982.489m-11.07.373c.679.684 1.486.991 1.793.683.308-.308-.247-.867-1.233-1.243-1.425-.542-1.54-.428-.56.56m47.28-.153c-1.179.745-1.037.907.68.777 1.193-.09 1.948-.52 1.679-.956-.599-.969-.537-.973-2.359.179M.349 32c0 4.675.173 6.587.383 4.25.211-2.338.211-6.163 0-8.5-.21-2.338-.383-.425-.383 4.25M5 24.455c0 .772 2.976 1.392 3.399.709.254-.412-.406-.814-1.468-.894S5 24.273 5 24.455M32 25c0 .55.45 1 1 1s1-.45 1-1-.45-1-1-1-1 .45-1 1m3.813-.317c.721.289 1.584.253 1.916-.079s-.258-.568-1.312-.525c-1.165.048-1.402.285-.604.604M56 24.393c0 .216.675.652 1.5.969s1.5.139 1.5-.393c0-.533-.675-.969-1.5-.969s-1.5.177-1.5.393M4 28c0 .55.477 1 1.059 1s.781-.45.441-1-.816-1-1.059-1S4 27.45 4 28m35.079 6.583c.048 1.165.285 1.402.604.605.289-.722.253-1.585-.079-1.917s-.568.258-.525 1.312M5.667 38.667C4.516 39.817 4.938 41 6.5 41c.825 0 1.5-.675 1.5-1.5 0-1.562-1.183-1.984-2.333-.833M39.5 40c-.34.55.084 1 .941 1S42 40.55 42 40s-.423-1-.941-1-1.219.45-1.559 1m17.833.456c0 .801.383 1.22.85.931s.591-.944.274-1.456c-.808-1.308-1.124-1.161-1.124.525M7.507 43.989c-.35.566.051.734.941.393C10.18 43.717 10.497 43 9.059 43c-.518 0-1.216.445-1.552.989M55.5 44c.34.55.816 1 1.059 1s.441-.45.441-1-.477-1-1.059-1-.781.45-.441 1M10 47c-.901.582-1.025.975-.309.985.655.008 1.469-.435 1.809-.985.767-1.242.421-1.242-1.5 0m42-.607c0 .216.698.661 1.552.989.89.341 1.291.173.941-.393-.587-.951-2.493-1.406-2.493-.596m-40.333 2.274c-1.222 1.222-.688 2.334 1.083 2.254 1.056-.048 1.252-.28.494-.585-.691-.279-1.002-.918-.691-1.421.656-1.063.087-1.222-.886-.248m37.876 1.264c-.74 1.197 1.141 2.382 2.473 1.559C53.135 50.799 52.4 49 51 49c-.485 0-1.141.419-1.457.931m-19.279 1.787c1.52.229 3.77.223 5-.014s-.014-.425-2.764-.418-3.756.202-2.236.432m-5.795 5.332c-.368.596-.399 1.353-.069 1.683s.607-.037.615-.816c.013-1.167.187-1.152.985.083.582.901.975 1.025.985.309.021-1.684-1.716-2.553-2.516-1.259m8.788.713c.093 1.23.523 2.237.956 2.237 1.043 0 .972-1.159-.184-2.987-.739-1.169-.904-1.009-.772.75m-3.619.737c-.316.825-.139 1.5.393 1.5.533 0 .969-.675.969-1.5s-.177-1.5-.393-1.5-.652.675-.969 1.5M37 58c-1.282.828-1.246.972.25.985.962.008 1.75-.435 1.75-.985 0-1.22-.113-1.22-2 0"/><path fill-opacity=".128" fill-rule="evenodd" d="M21.23 1.825C13.974 4.415 7.124 10.484 3.5 17.534c-2.684 5.22-3 6.792-3 14.901 0 8.179.29 9.588 2.966 14.42 12.753 23.025 45.779 22.699 57.051-.562a8464 8464 0 0 0 3.645-7.529c1.064-2.205 1.106-15.048.048-14.394-.435.269-1.601-1.791-2.59-4.578-2.219-6.248-9.761-14.08-16.385-17.017-6.674-2.959-17.208-3.376-24.005-.95m2.094.554C14.617 5.228 7.51 11.465 3.89 19.435c-2.182 4.804-2.485 8.061-.64 6.889 1.948-1.237 6.559-.989 6.055.325-.243.632-.027 1.404.478 1.717.506.313 1.449-1.196 2.095-3.354C14.422 16.523 22.415 11 32.158 11c14.81 0 24.647 14.099 19.679 28.206-1.02 2.896-3.04 6.397-4.49 7.78L44.71 49.5l2.78-3.772c2.706-3.671 2.732-3.825.956-5.787-1.619-1.79-1.924-1.837-2.714-.426-.569 1.016-.444 2.127.347 3.08.978 1.178.979 1.742.007 2.697-.962.946-1.159.909-.907-.167.176-.756-.241-1.581-.929-1.833-.787-.289-1.25.459-1.25 2.016 0 1.956-.843 2.812-4.02 4.083-5.085 2.035-8.875 2.035-13.96 0-3.485-1.394-4.024-2.027-4.052-4.75-.017-1.727-.692-4.015-1.5-5.082C18.614 38.43 18 35.442 18 32.416c0-3.702-.433-5.368-1.5-5.778-1.748-.67-2.012-3.301-.386-3.843.613-.204.943-1.254.735-2.333-.301-1.552-.795-1.126-2.364 2.038-3.378 6.807-1.861 22 2.195 22 .634 0 1.528.41 1.987.91.484.529.309.609-.417.191-2.075-1.194-1.405.685 1.021 2.861 1.249 1.121 1.834 1.701 1.3 1.288-1.673-1.293-2.812-.82-2.154.895C19.103 52.432 16.466 56 14.46 56c-.676 0-2.033-1.226-3.015-2.724s-2.598-3.597-3.591-4.663c-3.715-3.987-4.812-11.73-1.635-11.534 1.003.062 1.01.188.031.583-2.057.83-1.413 3.338.857 3.338 1.462 0 1.931-.459 1.531-1.5-.316-.825-.192-1.5.277-1.5.468 0 1.087.901 1.375 2.001.288 1.101.223 1.816-.144 1.589-.368-.227-1.478.179-2.467.903-1.245.91-1.446 1.533-.652 2.024.631.39 1.648.208 2.26-.404 1.636-1.636 2.296-1.398 4.202 1.51.945 1.443 1.273 2.348.728 2.011-1.472-.909-3.766 2.217-2.532 3.451q.999 1 2.28-.543c.704-.848 1.978-1.542 2.832-1.542 1.214 0 1.07-.513-.666-2.36C13.654 44.002 10 35.153 10 31.789c0-1.618-.293-1.896-1.122-1.067-1.86 1.86-6.639-.936-8.148-4.768-.314-.8-.563 1.921-.551 6.046.013 4.698.287 6.566.735 5 .649-2.272.775-2.135 1.381 1.5 1.527 9.162 7.782 16.899 17.068 21.113 4.96 2.251 7.534 2.778 13.426 2.747 4.615-.024 7.733-.512 8.5-1.328.98-1.044.638-1.15-1.789-.558-7.622 1.859-15.465 1.14-16.338-1.5-.409-1.238-.232-1.263 1.108-.157 1.371 1.131 1.824.92 3.213-1.5L29.1 54.5l-.412 2.75c-.277 1.855.033 2.75.951 2.75.748 0 1.361-.927 1.361-2.059 0-1.206.443-1.785 1.068-1.399.588.363.827 1.29.532 2.059-.321.836.101 1.399 1.048 1.399 1.152 0 1.454-.684 1.107-2.5-.263-1.375-.09-2.5.384-2.5.473 0 .861.873.861 1.941s.453 2.221 1.007 2.563c1.472.91 2.407-2.3 1.121-3.85-.821-.989-.738-1.321.332-1.321.786 0 1.382.263 1.326.584-.057.321.245 1.382.672 2.359.645 1.475 1.041 1.56 2.346.5 1.339-1.088 1.47-1.009.89.539-.568 1.515-.309 1.705 1.562 1.146 3.857-1.15 6.587-3.322 10.663-8.477C71.497 31.276 58.7 2.883 33.561 1.376c-3.446-.206-7.863.226-10.237 1.003M32 6c0 1.1-.45 2-1 2s-1-.675-1-1.5-.436-1.5-.969-1.5-.709.675-.393 1.5c.797 2.076-1.608 1.894-3.293-.25-1.237-1.574-1.313-1.473-.752 1 .711 3.134-.25 3.571-2.201 1-1.462-1.927-1.879-.567-.496 1.617.713 1.125 1.53 1.147 4.62.128 2.276-.751 5.823-.995 9.013-.621 4.152.488 5.381.303 5.834-.878.316-.823.138-1.496-.394-1.496a.97.97 0 0 0-.969.969c0 .532-.688.704-1.53.381-1.007-.386-1.312-1.272-.893-2.594.423-1.332.265-1.777-.47-1.322C36.498 4.81 36 5.804 36 6.642s-.562 1.326-1.25 1.084c-.687-.243-1.187-1.18-1.111-2.084.076-.903-.261-1.642-.75-1.642S32 4.9 32 6m-21.345 5.75c-.255.412.575.75 1.845.75s2.1-.338 1.845-.75c-.599-.97-3.091-.97-3.69 0m35.727.697c-.324.844.921 2.922 2.988 4.99 1.949 1.949 4.084 5.348 4.745 7.553 1.339 4.468 1.67 4.655 4.444 2.508 1.785-1.382 1.793-1.451.09-.855-2.905 1.017-4.03-1.839-1.355-3.438 2.138-1.279 2.121-1.301-.544-.743-3.066.642-3.701-.83-1.008-2.337.958-.536 1.418-1.298 1.024-1.692-.395-.395-1.363-.182-2.153.473-1.044.867-1.623.887-2.124.076-.379-.613.143-1.746 1.161-2.517 1.017-.771 1.378-1.416.8-1.433s-1.539.457-2.137 1.055c-1.612 1.612-2.788-.81-1.277-2.631.851-1.025.877-1.456.086-1.456-.617 0-1.122.45-1.122 1s-.675 1-1.5 1-1.5-.477-1.5-1.059.52-.738 1.155-.346c.715.443.883.275.44-.44-.948-1.535-1.542-1.456-2.213.292M8.405 15.155c-.393.634-.302.899.202.588.503-.311 1.725.026 2.714.75 2.339 1.71.423 2.975-2.3 1.518C7.548 17.223 7 17.236 7 18.058c0 .621.895 1.363 1.989 1.649s1.719.956 1.391 1.488-1.712.688-3.073.346c-1.407-.353-2.23-.225-1.906.298 1.422 2.302 4.688 1.953 6.316-.674.909-1.466 2.548-3.677 3.642-4.915 2.034-2.3 1.014-3.223-1.159-1.05-.933.933-1.467.933-2.4 0-1.507-1.507-2.484-1.52-3.395-.045m19.277-.503C26.451 15.882 26.969 18 28.5 18c1.666 0 1.874-.862.666-2.765-.441-.696-1.109-.958-1.484-.583M30 15c0 .55.675 1 1.5 1s1.5-.45 1.5-1-.675-1-1.5-1-1.5.45-1.5 1m5 1c0 .55.45 1 1 1s1-.45 1-1-.45-1-1-1-1 .45-1 1m-14.789 1.399c.709.77 1.447 1.25 1.639 1.067.593-.564-.91-2.466-1.948-2.466-.54 0-.401.63.309 1.399m17.008 1.049c-2.233 2.839-3.46 3.342-2.584 1.06.877-2.285-2.665-3.188-4.211-1.073-.708.968-1.069 2.326-.803 3.019.55 1.434 5.114 1.211 6.651-.326.561-.561 2.344-.755 3.962-.431 2.657.531 2.91.357 2.604-1.794-.467-3.292-3.212-3.514-5.619-.455m-18.82 2.989c-1.114 3.606-.827 4.05 2.351 3.638.688-.09 1.25.532 1.25 1.381 0 1.686 1.546 2.087 2.444.634.799-1.292-.474-4.189-1.549-3.525-.492.304-.895-.149-.895-1.006S21.583 21 21.073 21c-.509 0-1.072-.703-1.25-1.563s-.818.04-1.424 2m4.946-1.894c-.697 1.816-.551 1.992 2.405 2.9 1.803.554 2.25.303 2.25-1.269 0-1.078-.712-2.233-1.582-2.567-2.223-.853-2.408-.797-3.073.936m9.003 4.184-4.152.378 2.402 2.402C31.919 27.828 33 29.803 33 30.896c0 1.092.461 2.271 1.025 2.619s.96.263.881-.191c-.465-2.678.338-5.568 2.011-7.241 1.69-1.69 1.788-3.394.166-2.908-.32.096-2.451.345-4.735.552m-5.012 3.84c-.331.862-.35 4.341-.043 7.731.61 6.721 2.838 9.702 7.25 9.702 2.196 0 4.419-3.371 3.096-4.694-.855-.855-3.627 2.357-2.841 3.292.889 1.059-2.816-1.649-4.708-3.441-.809-.766-1.592-3.955-1.823-7.429-.383-5.768-.309-6.012 1.414-4.657 1.664 1.307 1.702 1.28.447-.321-1.686-2.149-2.029-2.171-2.792-.183M38.81 29.5c.331 2.832.072 3.5-1.356 3.5-1.594 0-1.617.169-.239 1.75.838.962 1.32 2.313 1.071 3-.249.688-.027 1.25.493 1.25s.82 1.15.665 2.556c-.175 1.597.158 2.412.888 2.172 1.572-.517 2.078-4.529.771-6.104-.626-.754-.803-3.361-.438-6.445.488-4.123.32-5.179-.825-5.179-1.055 0-1.33.933-1.03 3.5M3.619 28.193c.321.519 1.213.702 1.982.407.77-.296 1.399-.075 1.399.49 0 .566.457.745 1.016.4 1.619-1 .246-2.24-2.48-2.24-1.375 0-2.237.424-1.917.943M32 35c.825.533 2.175.945 3 .914.989-.036.819-.347-.5-.914-2.749-1.181-4.328-1.181-2.5 0m22.584 2.359c.347.902 1.519 1.641 2.606 1.641 1.146 0 1.794.525 1.542 1.25-.239.688-1.468 1.207-2.732 1.155-2.032-.085-2.107.043-.649 1.11 2.811 2.055 2.029 3.964-.851 2.077-1.375-.901-2.5-1.263-2.5-.804s-.918 1.82-2.039 3.023-1.684 2.196-1.25 2.204.154.418-.623.91c-1.2.759-1.173 1.133.178 2.484 2.117 2.117 2.995 2.011 5.475-.659C55.517 49.837 61 39.166 61 37.621c0-.278-.979-.318-2.176-.087-1.197.23-2.782-.084-3.523-.699-1.056-.877-1.211-.764-.717.524m-45.03 8.215c-1.346.991-1.626 1.754-.908 2.472s1.425.573 2.291-.47c1.856-2.236.87-3.662-1.383-2.002m42.018.31c-.907 1.467 2.334 3.61 3.578 2.366.753-.753.466-1.385-.982-2.16-1.15-.616-2.287-.706-2.596-.206M28 48c1.939 1.253 3 1.253 3 0 0-.55-1.012-.993-2.25-.985-1.819.013-1.963.201-.75.985m21.617 1.556c-.865 2.254-.801 2.444.824 2.444 2.107 0 2.747-1.599 1.165-2.912-1.057-.877-1.514-.769-1.989.468M15 51.417c0 .779-.562 1.643-1.25 1.921-.954.385-.937.523.071.583 1.634.098 4.312-2.455 3.465-3.302C16.2 49.534 15 49.953 15 51.417m8.459 3.65c-.363.586-.389 1.336-.059 1.666s.6.027.6-.673c0-.741.65-1.025 1.552-.678.89.341 1.291.173.941-.393-.8-1.295-2.208-1.259-3.034.078"/><path fill-opacity=".14" fill-rule="evenodd" d="M29.25.716c1.512.229 3.987.229 5.5 0S35.025.3 32 .3s-4.262.187-2.75.416m-5.437.967c.721.289 1.584.253 1.916-.079s-.258-.568-1.312-.525c-1.165.048-1.402.285-.604.604m15 0c.721.289 1.584.253 1.916-.079s-.258-.568-1.312-.525c-1.165.048-1.402.285-.604.604M12.776 6.506C9.446 8.769 3 16.747 3 18.606c0 .41 1.473-1.326 3.273-3.857s4.613-5.614 6.25-6.848c6.114-4.607 6.273-5.485.253-1.395M47.5 4.657c.55.551 2.34 2.01 3.977 3.244s4.45 4.316 6.25 6.848 3.271 4.186 3.268 3.677C60.985 16.525 53.373 7.74 50 5.736c-1.925-1.143-3.05-1.629-2.5-1.079m-18.979 3.31c-.216.348 1.154.737 3.044.864 1.889.128 3.435.044 3.435-.186 0-.714-6.065-1.348-6.479-.678m-4.31 1.634c-.71.769-.849 1.399-.309 1.399 1.038 0 2.541-1.902 1.948-2.466-.192-.183-.93.297-1.639 1.067M24 12.532C18.242 15.129 10.567 23.9 12.426 25.76c.316.315.576.161.578-.343.002-.505.967-2.492 2.144-4.417 1.955-3.198 2.208-3.327 2.926-1.5.825 2.1.775 2.2 1.301-2.654.069-.635 2.099-1.992 4.512-3.017 4.028-1.711 4.273-1.721 3-.128-.763.954-2.466 2.683-3.784 3.842-2.011 1.767-2.209 2.418-1.226 4.032.797 1.308 1.127 1.444 1.029.425-.299-3.132.156-4 2.094-4 1.13 0 2-.667 2-1.532 0-1.711 3.787-3.477 5.807-2.708.72.274 1.071 1.115.782 1.869S33.551 17 34.148 17s.85.901.562 2.001c-.307 1.175-.116 1.75.464 1.391.544-.335.718-1.686.388-3.001-.579-2.306.732-3.342 1.88-1.485.308.498 1.378.692 2.379.431 2.343-.613 4.942 2.3 3.415 3.827-.594.594-.842 1.7-.551 2.458.774 2.015-2.398 1.713-3.546-.339-.842-1.503-1.273-1.549-3.473-.372-1.414.757-3.611 1.069-5.028.713-1.406-.353-2.808-.158-3.178.441-.364.589-1.193.868-1.842.619-.718-.276-1.167.538-1.148 2.084.016 1.395-.532 2.731-1.22 2.968-.745.257-1.25-.435-1.25-1.712 0-1.178-.412-1.887-.916-1.576-.504.312-2.079.124-3.5-.416-1.674-.637-2.584-.639-2.584-.007 0 .536.625.975 1.389.975 1.507 0 3.185 5.992 2.76 9.86-.143 1.299.553 3.261 1.546 4.361 1.789 1.982 1.81 1.975 2.437-.861.509-2.306.654-1.94.75 1.89.096 3.865-.201 4.75-1.596 4.75-3.058 0 .94 3.036 5.289 4.017 4.979 1.123 13.382-.591 14.043-2.865.265-.908 1.359-3.316 2.432-5.35 2.475-4.693 2.462-6.505-.05-7.302-2.434-.773-2.707-5.981-.468-8.941.807-1.068 1.484-3.543 1.504-5.5l.036-3.559 2.357 2.883c1.297 1.585 2.847 4.285 3.445 6l1.088 3.117-.542-3c-.674-3.734-5.118-9.406-9.282-11.845-4.355-2.552-13.688-3.13-18.138-1.123m9.55.39c.522.507 2.75 1.184 4.95 1.505l4 .582-3.5-1.428c-4.116-1.68-6.841-2.009-5.45-.659M10.5 16c.34.55.816 1 1.059 1s.441-.45.441-1-.477-1-1.059-1-.781.45-.441 1m-2.326 2.603c.896.896 2.109 1.464 2.695 1.263s-.147-.935-1.629-1.629c-2.491-1.168-2.572-1.14-1.066.366m45.333 1.386c-.35.566.051.734.941.393 1.732-.665 2.049-1.382.611-1.382-.518 0-1.216.445-1.552.989M.954 24.149C-.598 29.884.238 39.488 2.79 45.258c2.604 5.887 9.338 12.646 15.736 15.794 4.102 2.019 6.465 2.446 13.474 2.438 10.527-.012 15.928-2.229 22.924-9.412 4.369-4.486 9.147-13.341 7.881-14.607-.267-.266-1.012 1.276-1.656 3.427-1.571 5.242-9.253 13.593-15.541 16.893-4.375 2.296-6.328 2.681-13.608 2.683-9.674.002-14.581-1.914-21.336-8.33-7.71-7.323-11.469-19.952-8.808-29.588.6-2.169.907-4.127.683-4.351s-.937 1.551-1.585 3.944M61.086 20.5c.104 1.894 1.77 5.084 1.828 3.5.031-.825-.381-2.175-.914-3s-.945-1.05-.914-.5M55 23c-1.333.862-1.333.969 0 .969.825 0 2.175-.436 3-.969 1.333-.862 1.333-.969 0-.969-.825 0-2.175.436-3 .969m-24 .9-4.5.6-.288 8.712c-.254 7.658-.042 8.958 1.75 10.75C30.12 46.12 37 46.865 37 44.941c0-.582.47-.769 1.044-.414s1.697.103 2.496-.561c1.165-.966 1.323-2.915.794-9.836-.64-8.382-1.925-11.292-4.834-10.948-.55.065-3.025.388-5.5.718M4.733 26.124c.679.684 1.486.991 1.793.683.308-.308-.247-.867-1.233-1.243-1.425-.542-1.54-.428-.56.56M63.32 32c0 3.575.182 5.038.403 3.25s.222-4.712 0-6.5c-.221-1.788-.403-.325-.403 3.25M6.613 30.183c.289.467.944.591 1.456.274 1.308-.808 1.161-1.124-.525-1.124-.801 0-1.22.383-.931.85M28 30.371c0 .719 1.122 1.819 2.493 2.444 2.328 1.061 2.412 1.006 1.272-.82C30.256 29.579 28 28.606 28 30.371M35 31c0 1.381.667 2 2.155 2 2.092 0 2.102-.059.345-2-.995-1.1-1.965-2-2.155-2S35 29.9 35 31m17.195.5c.02 1.65.244 2.204.498 1.231s.237-2.323-.037-3-.481.119-.461 1.769m-29.116.083c.048 1.165.285 1.402.604.605.289-.722.253-1.585-.079-1.917s-.568.258-.525 1.312M29 35.333c0 .734.337 1.671.75 2.084.413.412.75 1.226.75 1.807 0 .582.816 1.557 1.813 2.167 1.476.903 2.172.671 3.75-1.252 2.879-3.509 2.525-5.207-.942-4.513-1.637.327-3.172.101-3.559-.525-.943-1.527-2.562-1.38-2.562.232m-9 1.608c0 .518.445 1.216.989 1.552.566.35.734-.051.393-.941C20.717 35.82 20 35.503 20 36.941M58.5 38c-1.63.701-1.688.872-.309.93.93.038 1.969-.38 2.309-.93.711-1.15.676-1.15-2 0m-25.99 2.016c.346.559 1.047.758 1.559.441C35.456 39.6 35.198 39 33.441 39c-.857 0-1.276.457-.931 1.016M8 45c-.901.582-1.025.975-.309.985.655.008 1.469-.435 1.809-.985.767-1.242.421-1.242-1.5 0m46.733 1.124c.679.684 1.486.991 1.793.683.308-.308-.247-.867-1.233-1.243-1.425-.542-1.54-.428-.56.56M25 46.892c0 1.081 4.991 2.451 5.839 1.602.811-.811-1.909-2.46-4.089-2.479-.962-.008-1.75.386-1.75.877M37.5 47c-.34.55-.168 1 .382 1s1.278-.45 1.618-1 .168-1-.382-1-1.278.45-1.618 1M8.601 49.164c.255.412 1.124.495 1.931.185 2.036-.781 1.834-1.252-.463-1.079-1.062.08-1.722.482-1.468.894M51 48.378c0 .207.615.888 1.367 1.512 1.05.871 1.689.725 2.75-.628 1.256-1.6 1.222-1.636-.367-.39-1.145.899-1.75.985-1.75.25 0-.617-.45-1.122-1-1.122s-1 .17-1 .378m-39.986 4.036c.648.648 1.324.648 1.972 0 .647-.647.309-.985-.986-.985s-1.633.338-.986.985M48 51.378c0 .207.788.995 1.75 1.75 1.586 1.243 1.621 1.208.378-.378C48.821 51.084 48 50.555 48 51.378m-32.559 3.177c-1.864 1.494-1.852 1.512.309.465 1.238-.6 2.25-1.3 2.25-1.555 0-.765-.519-.544-2.559 1.09m15.675 3.719c-.093 1.415-.817 1.696-3.588 1.391-1.909-.211-3.277-.069-3.04.316.238.384 2.813.725 5.722.757s4.53-.149 3.601-.402c-.928-.252-1.888-1.219-2.134-2.147-.399-1.514-.457-1.505-.561.085"/><path fill-opacity=".993" fill-rule="evenodd" d="M33.731 15.08c.354 1.352.807 1.806 1.057 1.057.24-.722-.038-1.787-.62-2.369-.742-.742-.872-.351-.437 1.312m9.463 6.17c-.629 2.372-1.38 3.19-2.778 3.029-1.054-.121-1.353.029-.666.333.688.305 1.317 2.205 1.4 4.221.139 3.398.182 3.447.588.667.242-1.65.797-3.45 1.235-4 1.011-1.27 2.369-7.5 1.635-7.5-.303 0-.939 1.462-1.414 3.25M17.25 26.002c.962.604 1.75 2.173 1.75 3.489s.45 2.669 1 3.009 1 1.465 1 2.5.52 2.203 1.155 2.595c.674.417.884.277.505-.336-.357-.577.099-1.336 1.013-1.687 1.266-.486 1.384-.915.494-1.805-.642-.642-1.181-1.865-1.199-2.717-.048-2.339-2.179-4.677-4.972-5.452-2.074-.576-2.2-.508-.746.404m7.314 1.705c-.542 1.425-.428 1.54.56.56.684-.679.991-1.486.683-1.793-.308-.308-.867.247-1.243 1.233M.3 32c0 3.025.187 4.263.416 2.75s.229-3.988 0-5.5S.3 28.975.3 32m63 0c0 3.025.187 4.263.416 2.75s.229-3.988 0-5.5-.416-.275-.416 2.75m-33.8-1c-.34.55-.141 1 .441 1S31 31.55 31 31s-.198-1-.441-1-.719.45-1.059 1m5.5 1c0 .55.45 1 1 1s1-.45 1-1-.45-1-1-1-1 .45-1 1m-5.807 3.764c.518 2.691 8.807 3.698 8.807 1.07 0-.524-.43-.686-.956-.361s-2.582-.089-4.569-.919c-3.346-1.398-3.589-1.382-3.282.21M41 35.029c0 .462.45 2.025 1 3.471.675 1.776.664 3.26-.035 4.565-1.838 3.434-.232 2.053 1.988-1.71 1.182-2.004 1.94-4.192 1.683-4.861C45.092 35.077 41 33.783 41 35.029m-22 3.38c0 .19.675.906 1.5 1.591.865.718 1.5.815 1.5.229 0-.558-.675-1.274-1.5-1.591s-1.5-.419-1.5-.229m18.717 7.207c-.338.339-2.101.968-3.916 1.398-2.733.647-2.871.793-.801.848 1.375.037 3.625-.576 5-1.362s2.013-1.445 1.417-1.465c-.596-.019-1.361.242-1.7.581M22 46.899C22 48.452 27.21 50 32.436 50c3.951 0 5.957-.534 7.703-2.049l2.361-2.05-3.2 1.55c-4.005 1.938-10.936 1.987-14.55.102-1.512-.789-2.75-1.083-2.75-.654M8 53.378c0 .207.787.995 1.75 1.75 1.586 1.243 1.621 1.208.378-.378C8.821 53.084 8 52.555 8 53.378m45.872 1.372c-1.243 1.586-1.208 1.621.378.378.962-.755 1.75-1.543 1.75-1.75 0-.823-.821-.294-2.128 1.372M29.25 63.716c1.512.229 3.987.229 5.5 0s.275-.416-2.75-.416-4.262.187-2.75.416"/></svg>