<!-- Generated by IcoMoon.io -->
<svg version="1.1" xmlns="http://www.w3.org/2000/svg" width="32" height="32" viewBox="0 0 32 32" fill="#000000">
<title>bel</title>
<path d="M5.653 6.113c0-1.879 1.518-3.405 3.397-3.413 3.12-0.014 7.291-0.033 7.505-0.033 1.964 0 4.469 0.976 6.139 2.996s1.915 3.095 2.112 5.402c0.059 0.688-0.089 1.838-0.147 1.817-1.080-0.392-1.719-0.934-3.438-0.934-0.089 0-4.114 0-7.269 0-2.062 0-3.732 1.671-3.732 3.733v4.321h-1.154c-1.885 0-3.413-1.528-3.413-3.413v-10.476z"/>
<path d="M10.215 25.994c0.058 1.836 1.558 3.297 3.395 3.305 3.129 0.014 7.39 0.034 7.606 0.034 1.964 0 4.467-0.979 6.136-3.004s1.825-3.423 2.021-5.737c0.059-0.69 0-5.206-4.715-7.71-0.043-0.023-0.737 2.996-1.817 3.929-0.21 0.182-2.799 3.536-8.447 3.143-0.243-0.017-4.223 0-4.223 0v4.665l0.043 1.375z"/>
</svg>
