<svg width="500" height="499" viewBox="0 0 500 499" fill="#000000" xmlns="http://www.w3.org/2000/svg">
<path fill-rule="evenodd" clip-rule="evenodd" d="M223.658 1.36511C61.5222 20.14 -49.0175 207.45 21.8486 343.331C24.7689 348.931 27.1653 355.228 27.1795 357.331C27.1901 359.43 32.2874 368.987 38.5067 378.569C168.897 579.479 463.615 514.663 498.488 277.406C506.099 225.634 483.855 135.335 456.836 108.319C454.16 105.643 451.972 102.245 451.972 100.769C451.972 84.7336 350.986 11.9242 328.746 11.9242C326.569 11.9242 317.964 9.70834 309.621 7.00042C290.393 0.759821 251.126 -1.8136 223.658 1.36511ZM348.434 159.685C407.198 198.314 317.819 250.302 209.498 240.508C177.173 237.584 129.854 227.655 129.854 223.797C129.854 222.133 127.464 220.77 124.544 220.77C121.624 220.77 119.231 219.574 119.227 218.115C119.224 216.657 139.521 215.956 164.328 216.561C256.259 218.802 318.382 193.436 312.41 156.099C309.738 139.391 318.955 140.308 348.434 159.685ZM370.391 251.258C485.883 309.933 286.393 389.514 145.783 340.864C121.054 332.305 106.686 321.363 124.544 324.687C195.616 337.915 312.923 314.447 333.624 282.858C340.318 272.638 341.776 258.798 337.461 246.434C333.486 235.039 340.48 236.062 370.391 251.258Z" fill="#000000"/>
</svg>
