<svg xmlns="http://www.w3.org/2000/svg" width="32" height="32" version="1.1" fill="#000000"><path fill-opacity=".184" d="M 10.667 6.667 C 10.300 7.033, 10 9.058, 10 11.167 L 10 15 14.500 15 C 16.975 15, 19 15.450, 19 16 C 19 16.550, 16.975 17, 14.500 17 L 10 17 10 21.500 L 10 26 14.365 26 C 17.222 26, 19.612 25.306, 21.283 23.992 C 23.498 22.250, 23.829 21.234, 23.785 16.313 C 23.720 9.132, 21.117 6, 15.212 6 C 13.079 6, 11.033 6.300, 10.667 6.667 M 12 10.899 C 12 12.435, 12.875 12.868, 16.571 13.162 C 21.885 13.585, 22.274 13.380, 20.930 10.869 C 19.478 8.156, 12 8.182, 12 10.899 M 16.250 18.732 C 12.840 19.039, 12 19.499, 12 21.057 C 12 23.862, 19.464 23.869, 20.965 21.066 C 22.191 18.774, 22.274 17.936, 21.250 18.175 C 20.837 18.271, 18.587 18.522, 16.250 18.732" stroke="none" fill="#000000" fill-rule="evenodd"/><path fill-opacity=".226" d="M 10.667 6.667 C 10.300 7.033, 10 9.058, 10 11.167 L 10 15 15.750 15.015 C 19.831 15.026, 21.065 15.312, 20 16 C 19.175 16.533, 16.587 16.976, 14.250 16.985 L 10 17 10 21.050 L 10 25.100 15.741 24.800 C 20.936 24.529, 21.612 24.229, 22.843 21.652 C 23.771 19.708, 23.878 18.478, 23.179 17.779 C 22.480 17.080, 22.493 16.013, 23.219 14.418 C 25.245 9.972, 20.442 6, 13.042 6 C 12.102 6, 11.033 6.300, 10.667 6.667 M 12 10.500 C 12 12.557, 12.487 13.002, 14.750 13.014 C 16.262 13.021, 18.512 13.299, 19.750 13.630 C 21.332 14.054, 22 13.799, 22 12.772 C 22 10.392, 18.576 8, 15.171 8 C 12.455 8, 12 8.359, 12 10.500 M 20 18.011 C 19.175 18.538, 17.038 18.976, 15.250 18.985 C 12.454 18.998, 12 19.349, 12 21.500 C 12 23.590, 12.474 24, 14.889 24 C 18.409 24, 22.356 21.014, 21.862 18.727 C 21.597 17.501, 21.098 17.309, 20 18.011" stroke="none" fill="#000000" fill-rule="evenodd"/><path fill-opacity=".149" d="M 10.190 10.750 L 10.500 14.500 15.500 14.772 C 19.116 14.969, 20.085 14.766, 19 14.038 C 18.175 13.484, 16.262 13.024, 14.750 13.015 C 12.487 13.003, 12 12.557, 12 10.500 C 12 8.319, 12.438 8, 15.429 8 C 19.180 8, 22 10.123, 22 12.949 C 22 15.618, 19.999 16.824, 14.980 17.181 C 10.591 17.494, 10.494 17.576, 10.190 21.250 L 9.879 25 14.505 25 C 21.988 25, 22.875 24.075, 22.875 16.275 C 22.875 12.579, 22.398 8.980, 21.815 8.277 C 21.193 7.527, 18.509 7, 15.317 7 L 9.879 7 10.190 10.750 M 16.750 17.735 C 12.243 18.090, 12 18.260, 12 21.055 C 12 23.742, 12.300 24, 15.429 24 C 19.238 24, 22 21.868, 22 18.929 C 22 17.868, 21.887 17.081, 21.750 17.180 C 21.613 17.279, 19.363 17.529, 16.750 17.735" stroke="none" fill="#000000" fill-rule="evenodd"/><path fill-opacity=".518" d="M 11 11 L 11 15 15.750 14.825 L 20.500 14.651 16.250 14.268 C 12.300 13.912, 12 13.678, 12 10.943 C 12 8.202, 12.261 8, 15.800 8 C 20.071 8, 22 9.400, 22 12.500 C 22 15.686, 20.044 17, 15.300 17 L 11 17 11 21 L 11 25 15.429 25 C 20.382 25, 23.065 23.085, 22.884 19.679 C 22.776 17.650, 22.734 17.638, 22.276 19.500 C 21.437 22.917, 19.896 24, 15.878 24 C 12.236 24, 12 23.818, 12 21 C 12 18.176, 12.230 18, 15.929 18 C 20.404 18, 23 15.981, 23 12.500 C 23 8.874, 20.421 7, 15.429 7 L 11 7 11 11" stroke="none" fill="#000000" fill-rule="evenodd"/></svg>