<svg xmlns="http://www.w3.org/2000/svg" width="1080" height="1080" fill="#000000"><path fill-opacity=".051" fill-rule="evenodd" d="M8 8.987v8.988L4 20.5c-2.478 1.564-4 3.281-4 4.513 0 2.705.978 2.519 6.637-1.263L11.5 20.5l.285-10.25C12.056.515 11.968 0 10.035 0 8.139 0 8 .615 8 8.987m61 23.322c0 24.273.311 32.732 1.25 34.009.688.936 5.075 3.874 9.75 6.529 4.675 2.656 13 7.445 18.5 10.642s14.275 8.256 19.5 11.241a6995 6995 0 0 1 39.5 22.742c5.5 3.193 14.5 8.375 20 11.515s16.075 9.225 23.5 13.522C226.591 157.319 233.26 161 234.5 161s7.909-3.681 33.5-18.491c7.425-4.297 18-10.382 23.5-13.522s14.5-8.322 20-11.515A6995 6995 0 0 1 351 94.73c5.225-2.985 14-8.044 19.5-11.241s13.825-7.986 18.5-10.642 9.063-5.593 9.75-6.529c.939-1.277 1.25-9.736 1.25-34.009V0h-5v64.502l-43.25 24.944a124547 124547 0 0 0-80.115 46.249C251.36 147.413 234.649 157 234.5 157s-16.86-9.587-37.135-21.305c-20.276-11.718-56.327-32.53-80.115-46.249L74 64.502V0h-5zm70.221-19.176.279 13.134 12 6.989c6.6 3.844 26.85 15.534 45 25.978a31443 31443 0 0 1 35.503 20.447c2.413 1.406 3.772.727 38-18.989C289.526 49.446 310.9 37.099 317.5 33.256l12-6.989.279-13.134C330.047.512 329.979 0 328.029 0 326.104 0 326 .61 326 11.925V23.85l-5.25 2.879c-2.887 1.584-11.325 6.427-18.75 10.762s-16.425 9.522-20 11.527c-6.862 3.847-7.696 4.327-23.5 13.512-16.615 9.656-23.41 13.47-24 13.47s-7.385-3.814-24-13.47c-15.804-9.185-16.638-9.665-23.5-13.512-3.575-2.005-12.575-7.192-20-11.527s-15.863-9.178-18.75-10.762L143 23.85V11.925C143 .61 142.896 0 140.971 0c-1.95 0-2.018.512-1.75 13.133M457 51.845c0 59.764-1.515 52.309 12.222 60.123A2945 2945 0 0 1 487 122.184C509.842 135.427 516.337 139 517.571 139c.724 0 2.016-1 2.872-2.223 1.372-1.958 1.557-10.227 1.557-69.5C522 .667 521.98 0 520 0s-2 .667-2 67.5c0 37.125-.209 67.5-.465 67.5-.255 0-3.743-1.951-7.75-4.336-6.857-4.082-23.53-13.73-41.023-23.737l-7.737-4.427-.013-51.25C461 .671 460.974 0 459 0s-2 .667-2 51.845m122-26.568c0 21.26.247 25.631 1.557 27.5 2.497 3.565.269 4.517 30.699-13.108 5.365-3.107 14.14-8.175 19.5-11.261C644.733 20.359 644 21.387 644 9.845 644 .667 643.865 0 642 0c-1.851 0-2 .667-2 8.977 0 8.207-.193 9.103-2.25 10.446-1.237.808-13.95 8.244-28.25 16.524l-26 15.055-.267-25.501C582.975.829 582.902 0 580.983 0 579.058 0 579 .738 579 25.277m122 7.032c0 24.273.311 32.732 1.25 34.009.688.936 5.075 3.874 9.75 6.529a2847 2847 0 0 1 18 10.337c25.916 15.025 29.97 17.366 36 20.784 3.575 2.027 12.35 7.065 19.5 11.195 7.15 4.131 20.65 11.92 30 17.309s24.305 14.012 33.233 19.163c8.929 5.151 16.924 9.365 17.767 9.365s8.838-4.214 17.767-9.365 23.883-13.774 33.233-19.163 22.85-13.178 30-17.309c7.15-4.13 15.925-9.168 19.5-11.195 6.399-3.627 12.254-7.006 39-22.509 7.425-4.303 15.866-9.128 18.757-10.721s5.704-3.731 6.25-4.751c.598-1.118.993-14.608.993-33.921V0h-5l-.018 32.25-.018 32.25-20.232 11.655-63.232 36.423a57507 57507 0 0 0-59.956 34.574l-16.956 9.806-5.044-2.87c-2.774-1.578-17.869-10.265-33.544-19.304a313393 313393 0 0 0-119.244-68.707l-2.743-1.577-.007-32.25L706 0h-5zm70.221-19.134.279 13.175L817 52.742c25.025 14.515 46.454 26.857 47.62 27.426 1.816.886 6.323-1.397 31.5-15.96 16.159-9.347 37.48-21.664 47.38-27.37l18-10.375.279-13.231C962.047.512 961.98 0 960.029 0 958.104 0 958 .61 958 11.908v11.908l-6.25 3.474c-5.881 3.269-29.739 16.979-67.963 39.057C874.594 71.656 866.815 76 866.5 76s-8.094-4.343-17.287-9.651c-33.897-19.574-63.856-36.776-68.963-39.598L775 23.85V11.925C775 .61 774.896 0 772.971 0c-1.95 0-2.018.512-1.75 13.175M3.25 99.745C.983 100.874 0 102.064 0 103.681c0 2.836.391 2.859 4.575.272l3.312-2.046 13.306 7.712c7.319 4.241 21.632 12.506 31.807 18.366 36.745 21.162 80.454 46.362 130 74.949 29.998 17.309 51.207 28.959 52.242 28.698.958-.242 24.583-13.614 52.5-29.715s61.927-35.707 75.577-43.568l24.819-14.294 27.931 16.073c15.362 8.84 27.931 16.435 27.931 16.877 0 .861-.57 1.2-44 26.227-79.405 45.758-130.264 75.089-146.378 84.418-9.833 5.692-18.438 10.35-19.122 10.35s-9.289-4.658-19.122-10.35a61818 61818 0 0 0-67.878-39.173c-27.5-15.852-62.6-36.098-78-44.991C9.11 168.611 1.056 164 .538 164c-.296 0-.532 1.012-.524 2.25.011 1.767 1.675 3.165 7.75 6.51 4.255 2.343 12.686 7.166 18.736 10.717s15.05 8.755 20 11.566 13.5 7.734 19 10.942 14.275 8.281 19.5 11.273 14 8.051 19.5 11.242 14.5 8.352 20 11.468 16.075 9.201 23.5 13.522a5735 5735 0 0 0 22.755 13.174 7605 7605 0 0 1 18.756 10.817l19.244 11.142c5.36 3.103 12.445 7.238 15.745 9.189 4.181 2.472 7.213 3.547 10 3.547s5.819-1.075 10-3.547a2565 2565 0 0 1 15.5-9.051c22.505-13.037 29.032-16.808 38-21.958a5687 5687 0 0 0 23-13.313c7.425-4.321 18-10.407 23.5-13.522s14.5-8.276 20-11.468c5.5-3.191 14.275-8.25 19.5-11.242s14-8.06 19.5-11.263 13.375-7.725 17.5-10.051 11.325-6.45 16-9.164 9.175-5.286 10-5.716c.874-.455 1.5-2.164 1.5-4.091 0-2.95-.543-3.598-5-5.968-2.75-1.463-9.5-5.28-15-8.483s-14.396-8.343-19.769-11.423a8680 8680 0 0 1-14.5-8.326c-2.602-1.499-5.296-2.737-5.987-2.75-1.358-.025-6.408 2.815-54.244 30.508-7.425 4.299-16.425 9.47-20 11.491s-12.125 6.947-19 10.946c-6.875 4-17.225 9.98-23 13.289-17.491 10.024-29.285 16.809-33.522 19.289l-4.023 2.353-3.977-2.36c-3.82-2.266-10.699-6.228-33.478-19.282a4893 4893 0 0 1-23-13.289c-6.875-3.999-15.425-8.925-19-10.946s-12.575-7.192-20-11.491a42115 42115 0 0 0-22.755-13.163 11819 11819 0 0 1-19-11.009c-5.36-3.114-14.02-8.108-19.245-11.099-9.571-5.479-14.911-8.549-47.135-27.105-9.699-5.585-18.249-10.126-19-10.091s-2.827.792-4.615 1.681m627.25 2.907c-19.885 11.527-28.592 16.517-36.5 20.92-12.737 7.092-14 8.127-14 11.484 0 3.216 1.299 4.229 15.686 12.239 4.298 2.392 12.089 6.832 17.314 9.866s15.575 9.036 23 13.339l23 13.331c5.225 3.029 13.55 7.837 18.5 10.684 12.5 7.19 25.14 14.482 45 25.962 9.35 5.404 27.35 15.763 40 23.018a13599 13599 0 0 1 32.756 18.839l19.255 11.147 19 11a5561 5561 0 0 1 19.245 11.205c12.86 7.531 14.613 7.54 27.244.142 5.225-3.061 13.775-8.04 19-11.065l19-11 19.5-11.288c5.5-3.183 20.35-11.724 33-18.98 12.65-7.255 30.65-17.614 40-23.018 9.35-5.405 21.05-12.145 26-14.978s15.075-8.697 22.5-13.031c7.425-4.333 15.188-8.734 17.25-9.778 3.374-1.709 3.75-2.292 3.75-5.826 0-2.83-.489-4.105-1.75-4.565-.963-.351-7.6-4.015-14.75-8.142-41.842-24.154-41.778-24.118-43.362-24.139-1.312-.017-5.711 2.421-35.138 19.476a11990 11990 0 0 1-33 19.023c-10.725 6.16-24 13.811-29.5 17.002s-18.775 10.84-29.5 16.999-21.09 12.148-23.033 13.31l-3.534 2.114-3.466-2.126c-1.907-1.169-12.242-7.159-22.967-13.31s-24-13.796-29.5-16.987-18.775-10.842-29.5-17.002a10638 10638 0 0 1-33-19.032 7958 7958 0 0 0-22.5-13.005c-4.95-2.844-13.5-7.778-19-10.965-5.5-3.186-14.5-8.361-20-11.501s-17.936-10.277-27.635-15.861-18.249-10.15-19-10.146c-.751.005-4.965 2.095-9.365 4.645m-18.497 15.388c-15.123 8.767-27.628 16.336-27.79 16.821-.161.484 3.212 2.878 7.497 5.32 11.385 6.488 96.35 55.435 143.79 82.835a48894 48894 0 0 0 81.5 46.945c22.275 12.796 42.178 24.339 44.229 25.652 4.649 2.977 5.891 2.977 10.542.002 2.051-1.311 23.529-13.767 47.729-27.678a61532 61532 0 0 0 81.5-46.945 35108 35108 0 0 1 56.293-32.442c10.336-5.935 18.661-11.175 18.5-11.644-.161-.47-12.746-8.051-27.967-16.847l-27.675-15.993-36.825 21.274a542163 542163 0 0 1-76.125 43.967C885.586 221.788 867.269 232 866.495 232s-18.414-9.824-39.201-21.83A348305 348305 0 0 0 730 154.002c-32.725-18.886-66.348-38.312-74.718-43.17-8.37-4.857-15.345-8.809-15.5-8.782-.155.028-12.655 7.223-27.779 15.99m-78.218 39.46c-2.023 1.375-3.876 2.5-4.116 2.5s-10.441 5.85-22.669 13-22.426 13-22.664 13-2.885 1.569-5.884 3.488L473 192.975v38.544c0 30.87.261 38.644 1.311 39.047.721.277 6.234-2.361 12.25-5.861s11.839-6.867 12.939-7.483 9.65-5.579 19-11.029 17.982-10.423 19.181-11.05c1.845-.964 3.079-.619 8 2.232 3.201 1.854 17.744 10.245 32.319 18.647s36.4 21.01 48.5 28.017 23.8 13.741 26 14.964c2.2 1.222 14.125 8.088 26.5 15.258a79192 79192 0 0 0 93 53.794c14.575 8.418 33.787 19.612 42.694 24.875C839.243 407.438 871.6 426 872.341 426c.363 0 .659-17.892.659-39.759 0-36.788-.131-39.841-1.75-40.84-.962-.595-4-2.328-6.75-3.853-2.75-1.524-13.325-7.62-23.5-13.546s-20.187-11.726-22.25-12.889A1693 1693 0 0 1 811.5 311l-6.75-3.856c-1.788-1.021-10.225-5.914-18.75-10.873a15393 15393 0 0 0-42-24.285c-14.575-8.399-36.4-21.007-48.5-28.018s-23.687-13.697-25.75-14.858c-8.718-4.905-11.792-6.679-26.378-15.217-8.434-4.937-19.956-11.573-25.603-14.747-5.648-3.175-16.794-9.614-24.769-14.309-15.001-8.833-25.513-14.886-35-20.153a438 438 0 0 1-11-6.367c-6.597-3.973-8.406-4.084-13.215-.817M411.5 228.436c-7.7 4.525-23.225 13.54-34.5 20.032s-21.962 12.681-23.75 13.75l-3.25 1.945v385.542l14.25 8.361c7.838 4.598 22.575 13.139 32.75 18.979 27.225 15.626 76.733 44.215 82.553 47.67a557 557 0 0 0 9.5 5.501c10.082 5.67 13.255 7.499 31.062 17.905 10.239 5.984 19.17 10.879 19.846 10.879.677 0 2.425-.825 3.885-1.833 1.46-1.007 6.929-4.239 12.154-7.181 9.326-5.252 44.396-25.483 75-43.266 17.034-9.899 20.333-11.794 27-15.513 2.475-1.381 13.95-8 25.5-14.709s26.737-15.478 33.75-19.486l12.75-7.287V430.488l-18.25-10.658c-10.038-5.863-20.5-11.875-23.25-13.361-2.75-1.485-7.025-3.939-9.5-5.452-4.659-2.847-20.64-12.117-44-25.522-21.432-12.298-63.451-36.576-75.88-43.842-6.258-3.659-11.658-6.663-12-6.675-.341-.012-1.745-.902-3.12-1.978s-3.104-1.966-3.842-1.978c-.739-.012-8.164 3.955-16.5 8.815S496.575 345.546 482 353.944a17961 17961 0 0 0-39.226 22.663c-6.999 4.066-12.962 7.393-13.25 7.393S429 347.1 429 302c0-77.468-.097-81.994-1.75-81.896-.962.058-8.05 3.807-15.75 8.332M0 281.373c0 2.169 3.319 4.366 28.25 18.7A33262 33262 0 0 1 81 330.471a32167 32167 0 0 0 55.717 32.093l31.216 17.936.034 33.309c.018 18.32-.305 33.102-.717 32.85-1.189-.729-53.792-31.255-87.75-50.924C54.059 380.999 3.703 351.947.75 350.3c-.412-.23-.747.621-.744 1.891.007 2.468.076 2.519 15.494 11.323 4.95 2.827 13.5 7.756 19 10.954A7101 7101 0 0 0 74 397.259l20.5 11.734c6.05 3.462 12.881 7.58 15.18 9.151s4.372 2.856 4.607 2.856c.234 0 4.428 2.32 9.32 5.154l21.893 12.688c7.15 4.144 15.161 8.687 17.802 10.096l4.802 2.562 1.948-2.361c1.844-2.235 1.948-4.133 1.948-35.639 0-30.247-.159-33.465-1.75-35.326-.963-1.125-6.25-4.626-11.75-7.78-21.412-12.275-29.27-16.806-57.5-33.153-5.225-3.026-14-8.068-19.5-11.205s-14.5-8.312-20-11.499L42 303.236a1753 1753 0 0 0-17.5-9.995c-4.4-2.468-9.575-5.492-11.5-6.72s-5.638-3.441-8.25-4.919L0 278.916zm1068 4.304a8983 8983 0 0 1-22.987 13.157c-6.317 3.602-12.505 7.567-13.75 8.812l-2.263 2.263V473.52c0 106.387.347 164.26.993 165.467.546 1.02 3.359 3.158 6.25 4.751s11.332 6.419 18.757 10.725c26.164 15.171 24.806 14.484 25.429 12.861.842-2.193.682-6.043-.194-4.688-.49.758-8.306-3.239-23.466-12l-22.731-13.136-.019-163.65L1034 310.2l23-13.286c19.543-11.29 23-13.635 23-15.601 0-1.272-.112-2.298-.25-2.279-.138.018-5.425 3.007-11.75 6.643m-767.55 6.241c-.522.505-9.725 5.978-20.45 12.163s-24.9 14.379-31.5 18.208c-6.6 3.83-13.8 7.947-16 9.15-2.2 1.202-8.838 5.019-14.75 8.483L207 346.218v288.748l7.75-4.594c4.262-2.527 16.975-9.89 28.25-16.364a13176 13176 0 0 0 26.25-15.1l5.75-3.329.017-104.54.017-104.539 10.594-6c5.827-3.3 12.57-7.034 14.984-8.297l4.388-2.297v-39.453c0-37.325-.097-39.453-1.8-39.453-.99 0-2.228.413-2.75.918m689.023 38.447c-1.085.751-6.248 3.828-11.473 6.839-5.225 3.01-15.575 8.994-23 13.298a8043 8043 0 0 1-29 16.702c-8.525 4.882-16.288 9.808-17.25 10.947-1.646 1.947-1.75 9.32-1.75 123.737 0 108.5.168 121.908 1.557 123.889.856 1.223 2.149 2.223 2.873 2.223s6.437-2.962 12.694-6.583A5831 5831 0 0 1 950.5 606.28c8.25-4.705 16.462-9.64 18.25-10.968l3.25-2.414V416.183l11.25-6.256c6.188-3.441 12.038-6.927 13-7.746 1.604-1.367 1.75-4.375 1.75-36.136 0-25.613-.313-34.958-1.2-35.845-1.595-1.595-4.892-1.521-7.327.165M961.5 351.563c-16.5 9.602-34.607 20.041-40.237 23.197l-10.237 5.74-.013 121.849L911 624.198l3.75-2.215c2.063-1.218 14.325-8.294 27.25-15.726 12.925-7.431 24.06-13.957 24.745-14.502.972-.774 1.3-20.368 1.5-89.623l.255-88.632 12.75-7.408 12.75-7.407v-32.343c0-25.235-.275-32.33-1.25-32.289-.687.028-14.75 7.908-31.25 17.51m-438 69.846c-8.8 5.09-21.121 12.256-27.38 15.923-6.258 3.667-11.528 6.668-11.711 6.668s-9.174 5.188-19.98 11.529-21.512 12.579-23.789 13.861-5.715 3.22-7.64 4.307l-3.5 1.975v128.547l9.5 5.522c12.752 7.412 51.404 29.687 78.75 45.383l22.249 12.77 23.055-13.447c12.68-7.396 23.265-13.447 23.522-13.447s2.145-1.069 4.195-2.375c3.65-2.324 30.321-17.843 39.229-22.825 8.242-4.61 12.462-7.005 16.75-9.509l4.25-2.481V476.236l-17.75-10.244c-9.763-5.635-19.775-11.382-22.25-12.772s-14.175-8.142-26-15.004c-40.162-23.307-45.21-26.216-45.355-26.139-.08.042-7.345 4.241-16.145 9.332M.015 423.18c.014 1.971 3.395 4.256 22.5 15.198L45 451.257v186.277l-21.75 12.522C5.676 660.175 1.435 663.03 1.162 664.93c-.427 2.97.381 2.687 12.338-4.327 21.172-12.419 28.187-16.462 31.22-17.996 1.772-.895 3.684-2.493 4.25-3.552.685-1.28 1.03-33.18 1.03-95.334 0-87.728-.106-93.502-1.75-94.904-.962-.821-5.238-3.478-9.502-5.905a2045 2045 0 0 1-16-9.225 929 929 0 0 0-15.498-8.82C.157 420.946 0 420.91.015 423.18m805.655 61.483c-.368.369-.67 47.78-.67 105.358v104.688l15.25 8.81c8.388 4.846 20.2 11.611 26.25 15.034s14.143 8.074 17.984 10.336c3.841 2.261 7.331 4.111 7.755 4.111s.656-47.333.516-105.184l-.255-105.184-11-6.445c-6.05-3.544-19.775-11.475-30.5-17.624s-20.661-11.943-22.08-12.875-2.881-1.393-3.25-1.025M108.2 495.2c-.916.916-1.2 22.561-1.2 91.326v90.125l2.25 2.017c1.237 1.109 4.275 3.13 6.75 4.49s10.575 6.009 18 10.331C158.055 707.492 166.231 712 167.571 712c.724 0 2.016-1 2.872-2.223 1.381-1.97 1.557-12.257 1.557-90.889 0-100.899 1.057-90.192-9.5-96.273-3.3-1.901-9.375-5.356-13.5-7.678-7.649-4.306-20.008-11.505-30.151-17.562-5.987-3.576-8.695-4.129-10.649-2.175m2.815 91.459.016 88.841 22.656 13a12297 12297 0 0 0 28.484 16.308l5.829 3.308-.015-88.808-.016-88.808-22.617-13c-12.44-7.15-25.258-14.504-28.485-16.341L111 497.818zM948 681.674a9993 9993 0 0 1-28 16.085c-11.848 6.761-12 6.891-12 10.241 0 1.515.563 3.205 1.25 3.754s8.9 5.394 18.25 10.767a21976 21976 0 0 1 78.244 45.158 5843 5843 0 0 0 18.756 10.826c38.162 21.905 49.698 28.579 51.891 30.016 3.026 1.982 4.609 1.248 4.609-2.139 0-1.375-.428-2.235-.951-1.912s-14.136-7.029-30.25-16.338c-32.265-18.638-105.03-60.583-125.049-72.083-7.013-4.028-12.75-7.678-12.75-8.111s2.362-2.092 5.25-3.686 15.488-8.808 28.001-16.031l22.751-13.133 25.249 14.54c13.887 7.997 29.299 16.905 34.249 19.796 33.942 19.826 51.62 29.62 52.491 29.082.555-.343 1.009-1.749 1.009-3.124 0-1.449-.43-2.234-1.022-1.868-1.092.674-2.138.128-22.978-12.003a4764 4764 0 0 0-22.5-13.016c-4.95-2.837-21.659-12.434-37.132-21.326s-28.747-16.167-29.5-16.164c-.752.003-9.693 4.804-19.868 10.669M262 699.07c-6.325 3.729-21.175 12.369-33 19.198s-21.635 13.108-21.799 13.951c-.292 1.494 1.818 2.973 13.299 9.322 2.75 1.52 14.102 8.096 25.227 14.612S266.2 768 266.499 768s2.222 1.073 4.272 2.384 13.967 8.286 26.479 15.5a29413 29413 0 0 1 45 26.008c12.238 7.09 24.5 14.138 27.25 15.662s14.45 8.252 26 14.95a37034 37034 0 0 0 96.266 55.609c12.796 7.363 28.054 16.2 33.906 19.637 7.541 4.43 11.653 6.25 14.118 6.25 2.618 0 8.087-2.693 22.095-10.879 17.613-10.293 20.852-12.161 29.865-17.23 2.063-1.16 10.546-6.08 18.853-10.934 15.471-9.041 19.548-11.383 27.397-15.735 2.475-1.373 10.8-6.192 18.5-10.711 13.801-8.098 36.279-21.077 74.5-43.016 18.396-10.56 39.173-22.639 48.379-28.126 2.267-1.351 4.877-2.706 5.802-3.011s1.915-1.166 2.202-1.913c.551-1.436-1.178-2.569-23.883-15.643-18.831-10.844-41.88-24.067-42.746-24.523-.411-.216-9.411 4.66-20 10.836A10561 10561 0 0 1 659 777.298c-44.81 25.799-61.728 35.56-74 42.696-6.875 3.998-14.975 8.642-18 10.322s-10.363 5.895-16.308 9.369L539.885 846l-4.193-2.359a4683 4683 0 0 1-8.192-4.621c-4.952-2.801-35.667-20.584-61-35.316-10.45-6.077-25.3-14.635-33-19.017-7.7-4.383-20.3-11.657-28-16.165s-16.7-9.688-20-11.511c-3.3-1.824-15-8.584-26-15.022s-22.025-12.83-24.5-14.206c-6.89-3.828-10.32-5.801-26-14.95-7.975-4.654-18.325-10.64-23-13.303s-9.4-5.383-10.5-6.042c-1.737-1.041-3.515-.306-13.5 5.582M25.5 719.542c-6.05 3.533-14.034 8.119-17.743 10.191-5.202 2.906-6.745 4.281-6.75 6.017-.004 1.237.19 2.25.431 2.25.24 0 8.593-4.713 18.562-10.473l18.124-10.472 27.938 16.123C81.428 742.045 94 749.637 94 750.049s-20.925 12.815-46.5 27.564C7.551 800.651 1 804.751 1 806.714c0 2.402.956 2.912 2.55 1.363.523-.508 5.45-3.496 10.95-6.639 29.231-16.707 29.194-16.686 62.5-35.971 7.425-4.299 15.3-8.786 17.5-9.972 3.437-1.853 4-2.626 4-5.494 0-2.984-.53-3.619-5-5.996-2.75-1.463-9.5-5.28-15-8.483s-14.396-8.343-19.769-11.423a8680 8680 0 0 1-14.5-8.326c-2.602-1.499-5.406-2.71-6.231-2.691s-6.45 2.926-12.5 6.46m826.985 55.39c-1.109.312-4.709 2.18-8 4.15s-10.71 6.3-16.485 9.623a5312 5312 0 0 0-21.5 12.45l-11 6.409-.263 35.085c-.232 31.083-.081 35.236 1.331 36.407 2.272 1.886 3.928 1.113 30.612-14.296 12.826-7.406 24.253-13.955 25.394-14.554 2.305-1.209-.957-2.901 40.426 20.968a19781 19781 0 0 1 52.744 30.505c14.755 8.559 28.022 16.19 35.256 20.276 3.575 2.02 12.575 7.209 20 11.532a4329 4329 0 0 0 22.5 13.012c21.014 12.029 50.247 28.884 53.329 30.748l3.329 2.014-.329-2.722c-.294-2.434-3.824-4.735-33.329-21.73a129830 129830 0 0 1-56.5-32.565c-12.925-7.456-31.825-18.355-42-24.22s-35.15-20.266-55.5-32.003-37.45-21.338-38-21.336c-.55.001-12.843 6.823-27.319 15.159S800.443 875 799.931 875c-.556 0-.931-13.056-.931-32.379v-32.379l27.63-15.871c15.197-8.729 27.914-15.794 28.26-15.701.347.094 27.851 15.876 61.12 35.073 33.27 19.197 80.29 46.306 104.49 60.242s47.487 27.352 51.75 29.812c5.656 3.264 7.75 5.022 7.75 6.505 0 1.117.24 1.791.533 1.498s.242-2.357-.115-4.587c-.698-4.368-.505-4.23-25.418-18.196-3.575-2.004-12.575-7.176-20-11.492-20.306-11.805-31.514-18.297-41.755-24.185a9728 9728 0 0 1-18.5-10.666c-5.085-2.94-18.245-10.526-29.245-16.858s-30.8-17.731-44-25.332-27.15-15.605-31-17.788-8.125-4.739-9.5-5.68c-3.119-2.136-5.909-2.818-8.515-2.084m-622.985 2c-1.1.312-5.375 2.557-9.5 4.988a2610 2610 0 0 1-16.5 9.617 6363 6363 0 0 0-20 11.612l-11 6.415-.263 35.085c-.232 31.083-.081 35.236 1.331 36.407 2.272 1.886 3.928 1.113 30.612-14.296 12.826-7.406 24.253-13.955 25.394-14.554 2.305-1.209-.957-2.901 40.426 20.968a19781 19781 0 0 1 52.744 30.505c14.755 8.559 28.022 16.19 35.256 20.276 3.575 2.02 12.575 7.209 20 11.532a4329 4329 0 0 0 22.5 13.012c32.92 18.845 50.788 29.202 56 32.463 10.387 6.499 55.58 32.246 57.465 32.739 1.119.293 2.414-.404 3.418-1.837 1.41-2.014 1.617-6.546 1.617-35.476 0-30.132-.16-33.356-1.75-35.237-.962-1.139-8.725-6.065-17.25-10.947-14.464-8.284-29.088-16.734-52-30.048-5.225-3.036-12.425-7.156-16-9.156s-10.89-6.189-16.256-9.309-13.915-8.078-19-11.02c-5.084-2.941-15.319-8.874-22.744-13.183a6245 6245 0 0 0-22.5-12.997c-10.97-6.292-41.868-24.08-69.5-40.012-11.275-6.501-25.225-14.505-31-17.787s-11.625-6.737-13-7.678c-3.118-2.133-5.912-2.817-8.5-2.082m-6 7.938c-4.4 2.594-16.887 9.814-27.75 16.046L176 812.245v32.378c0 19.322.375 32.377.931 32.377.512 0 12.775-6.82 27.25-15.156 14.476-8.336 26.769-15.158 27.319-15.159s17.65 9.598 38 21.333A760346 760346 0 0 1 370 925.981a48713 48713 0 0 1 53.785 31.093c19.407 11.234 47.532 27.511 62.5 36.171s27.552 15.747 27.965 15.75.737-14.732.722-32.745l-.028-32.75-8.722-4.915c-4.797-2.704-22.897-13.098-40.222-23.098s-49.725-28.678-72-41.508a336767 336767 0 0 1-140-80.695c-9.075-5.233-17.85-10.329-19.5-11.323l-3-1.808zm514 56.316c-11.55 6.675-26.169 15.074-32.487 18.666-6.317 3.592-12.505 7.549-13.75 8.794L689 870.909V1080h5V871.199l31.686-18.35c17.428-10.092 32.053-18.499 32.5-18.682.448-.184.814 31.252.814 69.857 0 65.98.103 70.15 1.721 69.53 1.68-.645 29.299-16.436 72.086-41.215C844.526 925.553 854.286 920 854.496 920s11.547 6.456 25.193 14.346 42.586 24.586 64.311 37.103a86279 86279 0 0 1 55.25 31.853l15.75 9.097V1080h5.026l-.263-34.712-.263-34.712-4-2.671c-2.2-1.469-7.6-4.667-12-7.106s-14.075-7.964-21.5-12.278c-22.028-12.799-31.981-18.561-41.5-24.026-15.335-8.802-67.758-39.044-80-46.149-5.013-2.91-6.987-2.91-12 0-7.573 4.396-31.041 17.944-50.5 29.155a10382 10382 0 0 0-26.6 15.366c-3.905 2.273-7.41 4.133-7.788 4.133s-.636-30.585-.571-67.966c.065-37.382-.169-68.432-.52-69-.352-.569-1.4-1.023-2.33-1.009s-11.141 5.487-22.691 12.161m-623 2c-11.55 6.675-26.169 15.074-32.487 18.666-6.317 3.592-12.505 7.549-13.75 8.794L66 872.909V1080h5V873.211l24.75-14.25c13.613-7.837 28.028-16.209 32.035-18.605s7.495-4.356 7.75-4.356c.256 0 .465 31.548.465 70.107 0 65.902.103 70.067 1.721 69.447 1.68-.645 29.299-16.436 72.086-41.215C221.526 927.553 231.286 922 231.496 922s11.547 6.456 25.193 14.346 42.586 24.586 64.311 37.103a86279 86279 0 0 1 55.25 31.853l15.75 9.097V1080h5v-33.345c0-38.065 1.127-33.731-10.5-40.369-13.087-7.471-28.977-16.613-37-21.286-4.4-2.563-12.95-7.511-19-10.997s-15.05-8.686-20-11.558-19.8-11.429-33-19.015-28.476-16.412-33.946-19.612c-5.471-3.2-10.895-5.818-12.054-5.818s-6.583 2.618-12.054 5.818c-5.47 3.2-20.746 12.025-33.946 19.612s-28.078 16.2-33.061 19.141-9.839 5.645-10.789 6.01c-1.626.624-1.72-3.306-1.609-67.426.065-37.448-.169-68.553-.52-69.121-.352-.569-1.4-1.023-2.33-1.009s-11.141 5.487-22.691 12.161m534.973 48.179c-1.085.751-6.248 3.828-11.473 6.839-5.225 3.01-15.575 8.994-23 13.298a8043 8043 0 0 1-29 16.702c-8.525 4.882-16.288 9.808-17.25 10.947-1.63 1.929-1.75 6.83-1.75 71.46 0 68.722.019 69.389 2 69.389 1.98 0 2-.676 2.028-69.25l.028-69.25 8.722-4.915c4.797-2.704 22.989-13.166 40.426-23.25S652.379 895 652.954 895c.706 0 1.046 10.504 1.046 32.342v32.343l-12.75 7.407-12.75 7.408-.259 52.75c-.256 52.247-.24 52.75 1.75 52.75 1.986 0 2.009-.591 2.009-51.409v-51.408l11.25-6.256c6.188-3.441 12.038-6.927 13-7.746 1.604-1.367 1.75-4.375 1.75-36.136 0-25.613-.313-34.958-1.2-35.845-1.595-1.595-4.892-1.521-7.327.165M24.5 894.568c-2.2 1.378-8.387 4.989-13.75 8.025C2.523 907.25 1 908.5 1 910.591c0 2.904-1.342 3.462 16.13-6.707C23.635 900.098 29.417 897 29.979 897c.674 0 1.021 10.996 1.021 32.342v32.343l-12.75 7.407L5.5 976.5l-.259 51.75c-.256 51.247-.239 51.75 1.75 51.75 1.985 0 2.009-.591 2.009-50.409v-50.408l11.25-6.256c6.188-3.441 12.038-6.927 13-7.746 1.604-1.367 1.75-4.375 1.75-36.136 0-25.613-.313-34.958-1.2-35.845-1.839-1.839-4.9-1.388-9.3 1.368m799 118.861c-16.5 9.53-37.65 21.777-47 27.215l-17 9.886-.277 14.735c-.267 14.224-.206 14.735 1.75 14.735 1.934 0 2.027-.608 2.027-13.281v-13.281l9.25-5.39c20.53-11.963 25.688-14.962 35.75-20.784 5.775-3.342 18.6-10.741 28.5-16.443l18-10.367 18 10.366c26.803 15.435 35.098 20.241 64.25 37.228l9.25 5.39v13.281c0 12.673.093 13.281 2.027 13.281 1.956 0 2.017-.511 1.75-14.735l-.277-14.735-17-9.887c-40.96-23.821-77.47-44.639-78.204-44.593-.438.027-14.296 7.848-30.796 17.379m-596-13.549c-1.65 1.015-21.225 12.332-43.5 25.149s-42.187 24.359-44.25 25.649l-3.75 2.347v13.488c0 12.82.099 13.487 2 13.487 1.891 0 2-.667 2-12.281v-12.281l9.25-5.399c19.068-11.13 27.965-16.287 54.75-31.73l27.5-15.856 18 10.366c26.845 15.46 35.123 20.257 64.25 37.229l9.25 5.39v12.281c0 11.671.101 12.281 2.028 12.281 1.953 0 2.018-.512 1.75-13.735l-.278-13.736-17-9.886c-40.034-23.282-77.466-44.642-78.204-44.626-.438.009-2.146.847-3.796 1.863m850.7 56.32c-.792.792-1.2 5.044-1.2 12.5 0 9.378.255 11.3 1.5 11.3 1.253 0 1.5-2.056 1.5-12.5 0-6.875-.135-12.5-.3-12.5s-.84.54-1.5 1.2m-623 2c-.778.778-1.2 4.822-1.2 11.5 0 9.633.129 10.3 2 10.3 1.852 0 2-.667 2-9 0-5.293.409-9 .993-9 .547 0 8.038 4.073 16.649 9.05 13.309 7.694 16.22 9.006 19.431 8.75 3.619-.287 2.964-.771-15.647-11.55-10.683-6.187-20.235-11.25-21.225-11.25s-2.341.54-3.001 1.2"/><path fill-opacity=".517" fill-rule="evenodd" d="M536.5 156.577c-1.1.832-14.946 8.959-30.769 18.059s-29.436 17.212-30.25 18.026c-1.255 1.255-1.481 7.183-1.481 38.85 0 21.288.39 37.611.907 37.931.499.308 8.037-3.544 16.75-8.56 21.153-12.178 41.136-23.743 44.93-26.005l3.087-1.839 14.413 8.302c41.296 23.788 109.238 62.994 122.413 70.64 8.25 4.787 26.7 15.455 41 23.707 65.831 37.987 79.854 46.115 92 53.328 20.255 12.029 59.808 34.786 61.75 35.529 1.648.63 1.75-1.596 1.75-38.258V347.36l-38.75-22.383c-21.312-12.311-48.2-27.834-59.75-34.495a285122 285122 0 0 1-142-81.987 72978 72978 0 0 0-54.5-31.453c-18.425-10.622-34.388-19.927-35.473-20.678-2.481-1.716-3.526-1.679-6.027.213M408 231.378a10715 10715 0 0 1-37.25 21.657L351 264.458v385.081l13.75 7.901c7.563 4.346 25 14.406 38.75 22.356C533.432 754.919 538.802 758 539.801 758c.534 0 13.51-7.248 28.835-16.106 31.144-18.002 54.45-31.452 115.864-66.867 23.1-13.321 42.563-24.681 43.25-25.246.986-.809 1.25-23.991 1.25-109.781s-.264-108.972-1.25-109.782c-.687-.564-13.175-7.9-27.75-16.302a62539 62539 0 0 1-48-27.698c-19.631-11.343-42.195-24.358-92.923-53.599-10.133-5.84-18.81-10.619-19.283-10.619s-17.382 9.526-37.577 21.169l-54.64 31.5c-9.858 5.682-18.295 10.331-18.75 10.331S428 348.1 428 303c0-64.972-.26-81.985-1.25-81.928-.687.04-9.125 4.678-18.75 10.306m-117 67.055c-5.775 3.444-22.875 13.383-38 22.087s-31.662 18.249-36.75 21.211l-9.25 5.386v286.749l29.75-17.095c16.363-9.402 31.438-18.152 33.5-19.445l3.75-2.351.013-104.238.014-104.237 14.736-8.561 14.737-8.561.262-38.689c.207-30.651-.001-38.671-1-38.603-.694.048-5.987 2.904-11.762 6.347m193.463 144.663c-29.679 17.103-54.525 31.558-55.213 32.122-.976.802-1.25 14.992-1.25 64.782 0 49.805.274 63.974 1.25 64.754.688.55 23.3 13.712 50.25 29.249s51.539 29.725 54.643 31.529l5.643 3.28 26.857-15.513a48781 48781 0 0 1 53.818-31.029c14.829-8.534 27.766-16.019 28.75-16.634 1.689-1.054 1.789-4.738 1.789-65.664v-64.546l-6.75-3.911c-3.712-2.151-16.2-9.362-27.75-16.025s-33.235-19.173-48.188-27.802C553.359 419.06 540.517 412 539.775 412s-25.632 13.993-55.312 31.096m321.454 43.321c-.229.229-.286 47.141-.127 104.25l.29 103.833 14.71 8.426a8883 8883 0 0 1 32.525 18.75c9.798 5.678 18.236 10.324 18.75 10.324.574 0 .935-40.108.935-103.878 0-81.894-.265-104.092-1.25-104.891-1.92-1.557-63.936-37.231-64.724-37.231-.381 0-.88.187-1.109.417M265 698.328c-4.125 2.372-18.3 10.519-31.5 18.104s-24.597 14.354-25.328 15.043c-1.383 1.304-.726 1.71 52.828 32.573 10.175 5.864 52.25 30.145 93.5 53.958a226173 226173 0 0 0 149 85.968c16.5 9.513 30.888 17.91 31.973 18.661 2.247 1.555 6.664 1.806 8.077.459.522-.499 6.575-4.146 13.45-8.106s21.275-12.259 32-18.443l62.5-36.039c41.442-23.895 68-39.242 113.271-65.45 11.699-6.773 21.481-12.655 21.738-13.07s-5.265-4.047-12.271-8.07a10755 10755 0 0 1-33.074-19.115C729.98 748.31 720.617 743 720.357 743s-32.958 18.759-72.664 41.686c-39.706 22.928-80.23 46.324-90.053 51.991l-17.859 10.304-40.141-23.2A85830 85830 0 0 0 448 793.952l-58-33.427c-25.575-14.739-53.475-30.865-62-35.836-31.681-18.472-53.346-30.689-54.407-30.682-.601.005-4.468 1.949-8.593 4.321"/><path fill-opacity=".435" fill-rule="evenodd" d="M525.974 163.83c-7.41 4.307-21.911 12.693-32.224 18.636L475 193.272v37.864c0 20.825.258 37.864.574 37.864s6.278-3.319 13.25-7.375a9742 9742 0 0 1 31.827-18.394l19.151-11.019 58.849 33.968c32.367 18.683 68.074 39.278 79.349 45.767 29.415 16.929 122.226 70.68 158 91.505 16.775 9.764 31.737 18.394 33.25 19.177l2.75 1.422-.008-38.275-.008-38.276-3.742-2.073c-5.414-2.999-80.994-46.607-182.742-105.438a19410 19410 0 0 0-39.097-22.544 13071 13071 0 0 1-35-20.197C556.258 165.299 540.114 156 539.798 156c-.192 0-6.413 3.524-13.824 7.83M393 241.018c-17.875 10.373-34.414 20.003-36.753 21.398l-4.252 2.538.252 192.202.253 192.201 24 13.917c13.2 7.654 30.075 17.398 37.5 21.654 7.425 4.255 26.55 15.296 42.5 24.535C520.035 746.267 538.938 757 540.218 757c.735 0 2.225-.614 3.309-1.365s15.248-9.01 31.473-18.354c29.75-17.133 125.4-72.352 143-82.555l9.5-5.507v-218.63l-15-8.617c-8.25-4.739-27.15-15.622-42-24.185C564.749 336.809 540.614 323 539.79 323c-.514 0-2.814 1.084-5.112 2.41L498 346.549c-17.875 10.301-40.521 23.391-50.324 29.09S429.21 386 428.426 386c-1.223 0-1.426-11.668-1.426-82 0-45.1-.337-81.965-.75-81.921s-15.375 8.566-33.25 18.939m-127.5 73.12c-19.8 11.52-40.95 23.764-47 27.208l-11 6.263-.253 142.658-.254 142.659 26.254-15.14c14.439-8.326 29.178-16.805 32.753-18.841l6.5-3.703.5-104.642.5-104.642 15-8.729 15-8.729.25-37.75c.197-29.709-.016-37.729-1-37.654-.687.053-17.45 9.522-37.25 21.042m253 108.326a21674 21674 0 0 1-54.5 31.469c-18.425 10.603-34.288 19.976-35.25 20.828-1.632 1.445-1.749 5.823-1.735 65.144.009 34.977.346 64.079.75 64.67.597.873 35.952 21.457 103.235 60.102 4.125 2.37 8.039 4.311 8.697 4.316 1.449.009 17.314-9.028 92.56-52.722l19.757-11.472-.257-65-.257-64.999-32-18.477c-17.6-10.163-41-23.686-52-30.052s-21.8-12.569-24-13.786l-4-2.211zm288.259 167.997.259 103.462 6.741 3.887c3.708 2.139 18.092 10.481 31.966 18.539S871.186 731 871.475 731s.525-46.549.525-103.442V524.117l-9.25-5.384C826.25 497.492 807.902 487 807.254 487c-.415 0-.637 46.557-.495 103.461M240.171 713.633l-32.262 18.633 3.295 2.006c1.813 1.104 15.446 9.004 30.296 17.557l45.5 26.205a40468 40468 0 0 1 51 29.457c44.103 25.513 74.737 43.185 91.5 52.787 7.7 4.41 23.45 13.498 35 20.196s31.8 18.385 45 25.972 25.307 14.705 26.904 15.818c2.356 1.642 3.259 1.803 4.778.855 1.03-.644 10.748-6.261 21.595-12.484 20.667-11.856 80.501-46.359 124.723-71.923a99290 99290 0 0 1 84.354-48.707l14.354-8.276-5.354-3.048c-2.945-1.676-17.639-10.164-32.655-18.864C733.184 751.118 720.635 744 720.312 744c-.526 0-10.552 5.727-47.312 27.027-6.325 3.665-28.15 16.263-48.5 27.996a27422 27422 0 0 0-60.793 35.156l-23.793 13.822-29.707-17.168A35574 35574 0 0 0 462 803.024c-31.369-18.044-110.377-63.653-132.5-76.489C281.852 698.889 274.975 695 273.734 695c-.715 0-15.818 8.385-33.563 18.633"/><path fill-opacity=".167" fill-rule="evenodd" d="M534 159.847c-2.475 1.545-6.975 4.173-10 5.84-3.025 1.668-12.7 7.221-21.5 12.341a27082 27082 0 0 1-21.25 12.351l-5.25 3.042v37.29c0 20.509.176 37.289.39 37.289s6.452-3.55 13.86-7.89c7.409-4.339 15.446-9.001 17.86-10.358 10.083-5.671 12.823-7.245 21.541-12.371 5.033-2.96 9.596-5.381 10.14-5.381s9.252 4.785 19.35 10.633c20.607 11.935 23.289 13.48 28.609 16.484 2.063 1.165 12.075 6.941 22.25 12.837 31.256 18.109 58.326 33.75 62 35.823 10.351 5.84 19.984 11.392 33 19.02 15.278 8.953 18.713 10.933 26 14.992 2.475 1.378 10.933 6.265 18.796 10.859 7.863 4.593 14.455 8.352 14.648 8.352s3.403 1.854 7.133 4.12 8.839 5.256 11.352 6.643C787.051 374.039 803.26 383.626 807 386c.825.524 9.375 5.467 19 10.985s18.175 10.473 19 11.01 3.075 1.814 5 2.837c8.026 4.268 18.619 10.516 20.25 11.945 1.663 1.457 1.75-.355 1.75-36.374v-37.907l-12.25-7.157c-6.737-3.937-14.05-8.162-16.25-9.39-10.353-5.777-14.4-8.118-34.777-20.112C796.729 304.777 786.715 299 786.47 299s-5.288-2.86-11.208-6.357c-9.19-5.428-18.127-10.623-34.012-19.771a940 940 0 0 0-7-3.982c-2.062-1.161-13.875-7.973-26.25-15.139s-33.525-19.409-47-27.206l-48-27.78c-63.346-36.668-72.3-41.764-73.359-41.746-.628.01-3.166 1.283-5.641 2.828m-235 135.56c-3.318 2.171-33.602 19.7-73.71 42.666L207.08 348.5l-.04 59.585c-.022 32.771.259 94.132.625 136.356l.666 76.772 9.584-.708c5.272-.39 9.735-1.113 9.918-1.607.184-.494.961-.898 1.728-.898 1.971 0 20.136-10.059 33.727-18.677 2.083-1.32 4.895-2.822 6.25-3.337l2.462-.936V386.236l15-8.868 15.001-8.868.249-37.75.25-37.691c0 .032-1.575 1.089-3.5 2.348m239.562 28.369c-1.071 1.079-9.661 6.08-12.812 7.459l-2.75 1.203v42.781c0 45.798-.135 44.665 4.911 41.131 3.471-2.432 11.034-6.35 12.255-6.35.583 0 10.122 5.332 21.197 11.849s22.162 12.979 24.637 14.359c6.685 3.728 9.592 5.404 32 18.459 11.275 6.569 23.2 13.445 26.5 15.28 3.3 1.836 6.563 4.034 7.25 4.886.971 1.204 1.247 15.735 1.235 65.108-.009 34.958-.357 64.096-.775 64.753-.709 1.116-10.495 7.038-33.21 20.096-5.225 3.004-10.962 6.305-12.75 7.336a1187 1187 0 0 1-7 3.996c-2.062 1.167-11.625 6.726-21.25 12.354s-19.56 11.37-22.079 12.762c-7.769 4.295-9.403 5.244-9.921 5.764-.275.275-1.771 1.157-3.324 1.958-2.597 1.34-3.201 1.264-7.5-.948-2.572-1.324-5.87-3.218-7.33-4.209-1.46-.992-3.148-1.803-3.75-1.803-.777 0-1.092 12.284-1.084 42.25l.013 42.25 3.473 2.25c1.911 1.237 3.93 2.25 4.488 2.25s1.014.45 1.014 1 .493 1 1.096 1c.602 0 2.404.932 4.003 2.07l2.907 2.07 2.632-2.07c1.447-1.138 3.246-2.07 3.997-2.07s1.365-.45 1.365-1 .442-1 .982-1c.541 0 7.628-3.841 15.75-8.536s15.617-9.013 16.655-9.594l5.5-3.081c1.987-1.113 4.807-2.87 6.267-3.906s2.902-1.883 3.204-1.883 6.983-3.743 14.846-8.317a5545 5545 0 0 1 25.296-14.621c6.05-3.467 24.275-13.97 40.5-23.34s34-19.612 39.5-22.761l10-5.724V430.801L698 414.319c-15.675-9.065-33.9-19.547-40.5-23.293s-18.75-10.74-27-15.544-17.25-9.974-20-11.489-12.379-7.083-21.398-12.374c-9.019-5.29-16.585-9.619-16.815-9.619-.229 0-5.758-3.15-12.287-7s-12.312-7-12.852-7-1.131-.337-1.315-.75c-.611-1.375-6.542-4.208-7.271-3.474M516 336.756c0 .416-1.35 1.353-3 2.084l-3 1.328v42.916c0 23.604.199 42.916.443 42.916.243 0 2.043-.944 4-2.099l3.557-2.099v-42.901c0-27.934-.349-42.901-1-42.901-.55 0-1 .34-1 .756m291 176.309v26.21l5.25-.605c2.888-.333 8.962-.909 13.5-1.281s8.25-1.004 8.25-1.404 4.95-1.049 11-1.441 11-1.125 11-1.628c0-.504 1.512-.916 3.36-.916 1.849 0 5.449-.286 8-.636 4.393-.602 4.64-.802 4.632-3.75-.005-2.219-.652-3.438-2.25-4.243-6.251-3.146-11.823-6.284-27.242-15.341-4.95-2.908-10.35-6.066-12-7.019-1.65-.952-5.382-3.144-8.294-4.871s-5.724-3.14-6.25-3.14-.956-.45-.956-1-.614-1-1.365-1-2.551-.933-4-2.073L807 486.855zm52.25 28.195c-6.187.527-11.25 1.311-11.25 1.742 0 .43-4.5 1.104-10 1.498s-10 1.063-10 1.488-4.725 1.095-10.5 1.489l-10.5.715v7.904c0 7.764.044 7.904 2.5 7.904 1.375 0 2.5-.36 2.5-.8s7.087-1.394 15.75-2.119 15.978-1.677 16.258-2.117 5.341-1.122 11.25-1.517c5.908-.396 10.742-1.109 10.742-1.583 0-.475 1.35-.864 3-.864h3v-7.5c0-4.125-.337-7.432-.75-7.35s-5.812.582-12 1.11M510.008 696.75l.007 42.75 3.993 2.28 3.992 2.28v-42.602c0-33.486-.276-42.853-1.289-43.779-1.449-1.326-5.413-3.679-6.197-3.679-.283 0-.511 19.237-.506 42.75"/></svg>