<svg xmlns="http://www.w3.org/2000/svg" width="200" height="200" fill="#000000"><path fill-opacity=".129" fill-rule="evenodd" d="M0 100.005V200.01l100.25-.255 100.25-.255.255-99.75L201.01 0H0zm.481.495c0 55 .121 77.647.269 50.326.148-27.32.148-72.32 0-100C.602 23.147.481 45.5.481 100.5M86.5 38.404c-15.399 4.891-27.258 16.23-36.795 35.183-4.803 9.545-6.85 18.026-6.838 28.333.026 21.704 11.05 36.457 32.633 43.672 7.01 2.343 9.547 2.669 20.5 2.635 30.845-.096 51.879-10.125 61.296-29.227 3.051-6.189 3.203-7.051 3.176-18-.025-10.301-.325-12.23-2.876-18.5-6.153-15.12-19.692-31.474-31.884-38.512-8.344-4.817-16.714-6.997-26.567-6.921-4.755.037-10.445.638-12.645 1.337M74.578 65.12c-4.167.978-6.841 2.645-6.118 3.816.615.994 12.527-.523 13.756-1.752 1.335-1.335.104-3.21-2.025-3.084-.93.056-3.456.515-5.613 1.02m32.083.01c-1.012.588-2.921.862-4.244.609-3.543-.677-4.889 1.524-2.341 3.83 2.028 1.835 2.16 1.824 6.687-.598 2.54-1.359 4.795-3.033 5.011-3.721.478-1.521-2.58-1.593-5.113-.12m-41.132 8.823c-.397.642.896 1.759 3.149 2.722l3.822 1.633-3 .829c-1.65.456-4.35 1.946-6 3.31-2.614 2.162-2.743 2.486-1 2.521 1.1.022 4.214 1.163 6.919 2.536C72.125 88.877 76.063 90 78.169 90c2.107 0 3.831.45 3.831 1s1.176 1 2.613 1c2.336 0 2.567.32 2.174 3-.687 4.679 1.719 3.678 4.81-2 2.947-5.415 4.946-6.182 7.707-2.957.962 1.123 2.174 1.78 2.693 1.459s2.364.15 4.099 1.048c3.855 1.993 8.812 1.525 18.133-1.713 7.091-2.463 8.39-4.124 4.303-5.504-1.738-.586-2.219-1.233-1.627-2.186.646-1.04 1.319-1.098 2.902-.25 2.448 1.31 5.193 1.445 5.193.257 0-.466-3.196-2.491-7.103-4.5-8.052-4.142-15.312-4.83-22.861-2.167-4.22 1.489-8.036.766-8.036-1.522 0-1.749-3.449-.935-6.458 1.524-2.926 2.392-2.989 2.398-6 .586-1.673-1.007-5.885-2.137-9.36-2.511-3.474-.373-6.916-.908-7.648-1.189-.733-.281-1.635-.021-2.005.578m6.021 10.918c.523.479 2.176 1.159 3.673 1.512 2.171.512 2.606.335 2.143-.871-.345-.898-1.835-1.512-3.673-1.512-1.817 0-2.701.359-2.143.871m35.554 1.043c-1.077.683-.689 1.249 1.701 2.485 1.702.881 4.201 1.601 5.551 1.601 2.26 0 2.364-.199 1.3-2.492-.858-1.849-1.93-2.49-4.156-2.485-1.65.004-3.628.405-4.396.891m22.229 7.163c-1.742.516-4.329 2.319-5.75 4.007-4.41 5.241-3.038 10.617 3.784 14.834 4.418 2.73 6.832 2.627 10.49-.451 4.19-3.526 5.65-8.319 3.847-12.631-2.353-5.63-6.415-7.521-12.371-5.759M79.67 98.551c-3.252 3.915-7.934 13.157-7.43 14.668.187.561 1.597-.627 3.133-2.641l2.792-3.661 3.892 3.516c3.881 3.506 5.065 3.985 12.224 4.944 3.099.416 4.362.014 7-2.229 1.77-1.505 4.428-3.495 5.905-4.423 2.677-1.681 2.685-1.678 2.5 1.044-.17 2.489.092 2.705 2.945 2.433 3.129-.298 6.902 2.126 5.881 3.778-1.305 2.112-10.667 3.071-24.753 2.537C79.171 117.963 74 118.38 74 120.108c0 .491 1.013.897 2.25.903s4.459.681 7.159 1.5c5.656 1.716 13.19 1.869 22.899.465 7.205-1.042 10.692-.207 10.692 2.559 0 3.253 2.725 1.125 5.858-4.574 3.104-5.646 3.219-6.183 1.762-8.25-3.846-5.456-6.541-7.858-11.887-10.592-5.33-2.726-5.733-2.795-5.733-.994 0 1.066.675 2.197 1.5 2.513.825.317 1.5 1.004 1.5 1.528s-.402.704-.892.4c-.491-.303-4.466.2-8.833 1.118-6.797 1.429-8.61 1.482-12.589.368-6.365-1.782-7.586-3.419-5.395-7.237 3.277-5.709 1.702-6.468-2.621-1.264m-17.461-.883c-6.764 3.333-9.186 9.832-5.243 14.065 4.432 4.757 9.948 3.459 13.736-3.233 2.919-5.154 2.945-8.934.075-10.943-2.787-1.952-4.425-1.931-8.568.111M104.5 127c-1.65.42-8.007.817-14.128.882-8.726.092-11.405.452-12.414 1.668-1.063 1.282-.992 1.845.414 3.25 1.323 1.324 3.516 1.7 9.914 1.7 7.245 0 9.128-.413 15.963-3.5 4.262-1.925 7.749-3.838 7.75-4.25.001-.905-3.404-.792-7.499.25"/><path fill-opacity=".275" fill-rule="evenodd" d="M0 100.005V200.01l100.25-.255 100.25-.255.255-99.75L201.01 0H0zm.481.495c0 55 .121 77.647.269 50.326.148-27.32.148-72.32 0-100C.602 23.147.481 45.5.481 100.5m91.497-63.525c-20.18 2.605-37.965 16.959-48.166 38.874-5.033 10.812-7.028 19.503-7.036 30.651-.013 18.902 8.53 30.633 26.979 37.05 8.123 2.825 23.86 5.438 32.745 5.438 15.32 0 33.043-4.465 44.104-11.111 14.639-8.796 22.79-25.997 20.378-43.005-3.801-26.8-28.615-53.874-52.982-57.808-7.073-1.141-7.836-1.146-16.022-.089M66.036 74.75c.02.412 1.897 1.65 4.171 2.75 5.084 2.459 5.21 3.817.428 4.594-4.734.77-5.335 1.475-3.234 3.797 2.858 3.157 9.659 4.332 17.123 2.957C90.101 87.82 91 87.358 91 85.516c0-2.507-2.936-5.922-6.779-7.884-5.047-2.576-18.271-4.672-18.185-2.882m37.115 2.506c-6.008 2.074-6.419 2.099-7.628.445-1.203-1.646-1.307-1.635-1.785.191-.805 3.08 1.518 6.506 5.288 7.802 1.911.656 3.024 1.223 2.474 1.259-2.127.141 9.846 5.048 12.349 5.061 4.307.023 17.149-3.421 17.15-4.6.001-.597-3.712-2.26-8.249-3.695l-8.25-2.609 5.782-.055c3.18-.03 7.398.62 9.372 1.445 8.062 3.368 6.614.674-1.964-3.657-8.175-4.126-15.767-4.618-24.539-1.587M72.5 83.959l-3 .722 2.815 1.159C76.379 87.514 78 87.275 78 85c0-2.1-.617-2.217-5.5-1.041m35.064 1.384-2.936 1.253 3.587 1.702c4.283 2.032 9.866 2.383 7.985.502-.66-.66-1.2-2.01-1.2-3 0-2.139-3.054-2.327-7.436-.457M120.5 86c-.34.55-.141 1 .441 1S122 86.55 122 86s-.198-1-.441-1-.719.45-1.059 1M79.151 99.633C76.108 103.325 71.525 113 72.819 113c.39 0 1.803-1.77 3.139-3.933l2.431-3.933 3.483 3.058c4.731 4.154 9.284 5.918 13.316 5.16 5.013-.943 13.971-5.392 13.488-6.699-.234-.634-.941-1.038-1.571-.896-9.517 2.133-15.5 2.553-19.864 1.395-7.001-1.859-7.825-3.047-5.201-7.496 2.779-4.708.985-4.723-2.889-.023M108 101.912c0 .576 1.688 1.915 3.75 2.976s5.888 3.987 8.5 6.503c2.8 2.698 4.75 3.968 4.75 3.095 0-1.944-6.644-9.257-9.925-10.924-4.171-2.12-7.075-2.797-7.075-1.65m8.5 15.216c-3.564 1.752-5.635 1.925-19 1.585-8.25-.211-16.912-.185-19.25.057-4.495.465-5.943 2.23-1.831 2.23 1.331 0 5.152.7 8.491 1.556 11.523 2.951 35.308-1.115 36.878-6.306.499-1.647-.482-1.484-5.288.878m-11 10.014c-1.65.533-8.138 1.057-14.417 1.164-12.768.217-15.081 1.485-7.452 4.084 7.072 2.41 12.282 2.039 19.529-1.389 3.487-1.65 6.903-3 7.59-3 .688-.001 1.25-.451 1.25-1.001 0-1.215-2.472-1.161-6.5.142"/><path fill-opacity=".696" fill-rule="evenodd" d="M0 100.005V200.01l100.25-.255 100.25-.255.255-99.75L201.01 0H0zm.481.495c0 55 .121 77.647.269 50.326.148-27.32.148-72.32 0-100C.602 23.147.481 45.5.481 100.5M87 37.503c-9.414 2.131-17.725 6.594-25.437 13.66-26.792 24.551-33.768 65.013-14.398 83.524 4.365 4.172 14.045 8.899 23.639 11.544 6.487 1.789 10.446 2.122 25.196 2.122 14.877 0 18.699-.327 25.5-2.182 22.771-6.212 36.513-19.524 39.768-38.524 4.226-24.674-18.401-59.429-44.768-68.762-7.759-2.747-20.774-3.356-29.5-1.382M66.127 74.416c.345.369 2.573 1.665 4.95 2.878 5.711 2.914 5.945 4.306.84 4.99-5.715.767-6.772 2.109-3.402 4.318 5.262 3.448 21.593 2.79 22.304-.899.516-2.682-4.989-7.379-10.604-9.047-5.992-1.779-14.993-3.211-14.088-2.24m39.373 2.566c-6.949 2.303-10.127 2.528-10.838.768-.277-.687-.54-.045-.583 1.427-.09 3.036 3.92 6.823 7.223 6.823 1.117 0 1.74.291 1.385.647-1.337 1.337 9.724 5.535 13.313 5.053 5.603-.752 15.071-3.777 14.535-4.643-.27-.437-4.136-1.847-8.591-3.135-5.82-1.681-7.586-2.543-6.273-3.061 3.141-1.237 7.621-.868 13.318 1.099 3.019 1.042 5.653 1.731 5.853 1.532s-2.874-1.993-6.829-3.986c-9.009-4.536-14.56-5.159-22.513-2.524m-34.4 6.889-2.399.672 2.697 1.228C75.477 87.63 78 87.335 78 85c0-2.114-2.134-2.463-6.9-1.129M80 85c0 .55.45 1 1 1s1-.45 1-1-.45-1-1-1-1 .45-1 1m27.07.417-2.429 1.346 3.13 1.618c1.721.891 4.797 1.619 6.834 1.619 3.526 0 3.625-.088 2.05-1.829-.91-1.006-1.655-2.356-1.655-3 0-1.576-4.916-1.424-7.93.246M120 86c0 .55.45 1 1 1s1-.45 1-1-.45-1-1-1-1 .45-1 1M79.898 99.406c-2.907 3.457-4.427 6.113-5.88 10.277-.911 2.611-.878 2.671.456.817 4.758-6.613 4.025-6.34 7.706-2.87 6.392 6.026 10.217 6.69 19.191 3.332 5.625-2.104 9.296-4.962 6.374-4.962-.825 0-4.682.719-8.572 1.597-6.523 1.473-7.459 1.469-12.046-.055-6.703-2.226-7.689-3.554-5.616-7.563 2.159-4.175 1.587-4.379-1.613-.573M109 102.067c0 .491 1.708 1.764 3.795 2.828 2.087 1.065 5.687 3.989 8 6.498s4.205 3.996 4.205 3.303c0-2.094-9.323-11.115-12.774-12.359-1.774-.64-3.226-.762-3.226-.27m7.829 15.108c-3.058 1.595-5.727 1.905-16 1.858-6.781-.031-13.229-.131-14.329-.223-1.1-.091-4.475-.057-7.5.078l-5.5.244 5.5 1.684c3.964 1.214 9.13 1.681 18.5 1.673 12.036-.01 13.432-.213 18.823-2.728 3.242-1.513 5.542-3.17 5.191-3.739-.348-.562-.718-.963-.823-.891s-1.843.991-3.862 2.044M104 127.678c-4.436 1.008-9.262 1.298-15.2.914-9.785-.633-12.104.531-6.122 3.075 7.289 3.1 12.373 2.919 20.484-.731 11.461-5.157 11.601-5.704.838-3.258"/><path fill-opacity=".959" fill-rule="evenodd" d="M42.5 33.565c-4.842 2.506-10.22 8.357-12.453 13.548-4.797 11.149-3.583 20.221 3.72 27.804l4.415 4.583-1.54 5c-5.565 18.069-4.16 36.222 3.598 46.486 1.793 2.372 3.662 4.848 4.153 5.502.594.791-.665 3.102-3.758 6.899-10.041 12.328-15.584 27.87-18.14 50.863l-.639 5.75h153.213l-.614-5.25c-3.209-27.438-9.513-47.46-18.527-58.841l-2.932-3.702 3.425-5.089c6.064-9.011 7.981-15.366 7.881-26.118-.049-5.302-.731-11.521-1.544-14.075l-1.457-4.574 3.764-3.16C170.383 74.726 175 65.095 175 58.466c0-10.642-4.752-18.73-13.526-23.023-4.81-2.353-6.392-2.643-11.969-2.196-6.605.531-13.109 3.448-16.814 7.542-1.796 1.984-1.839 1.976-7.499-1.437-7.965-4.804-15.148-6.715-25.192-6.702-9.282.012-18.4 2.016-26.93 5.919l-5.43 2.485-3.57-3.409c-1.964-1.875-4.553-3.912-5.754-4.527-3.163-1.619-12.324-1.36-15.816.447m43 3.84c-21.72 5.366-41.09 26.774-47.632 52.646-1.634 6.46-1.999 10.423-1.689 18.345.465 11.904 2.979 18.507 9.639 25.325 15.213 15.573 54.379 20.421 83.533 10.34 33.14-11.459 42.394-45.104 21.182-77.011-9.775-14.704-24.26-26.012-38.033-29.691-6.146-1.641-20.266-1.617-27 .046M69 75.669c1.925.829 4.552 2.48 5.837 3.669l2.337 2.162-2.837.632c-2.734.608-2.71.636.663.75 3.014.103 3.521.474 3.648 2.676.136 2.361-.092 2.505-3 1.881-1.732-.372-3.996-1.121-5.033-1.665-1.53-.803-1.624-1.154-.5-1.866 1.033-.655.814-.881-.865-.893-3.658-.025-2.582 2.635 1.77 4.376 4.492 1.798 8.624 1.992 14.309.673 4.79-1.112 5.056-1.393 4.275-4.505-.805-3.208-6.563-6.23-15.46-8.116-8.295-1.758-9.62-1.7-5.144.226m36 1.759c-7.071 2.599-7.755 2.674-9.395 1.035-1.473-1.474-1.605-1.445-1.605.355 0 3.32 3.357 6.515 6.844 6.515 1.963 0 3.156.504 3.156 1.334Q104 88 106 86c2.801-2.801 10-2.843 10-.059 0 1.068.457 2.224 1.016 2.569.559.346.717 1.113.351 1.705-.451.73.268.851 2.234.375 8.468-2.048 10.572-2.81 9.776-3.54-.911-.835-8.696-3.386-13.825-4.53-2.276-.508-2.618-.866-1.5-1.573 1.956-1.238 10.183-1.188 13.522.081 5.232 1.989 3.666-.032-1.949-2.515-6.385-2.824-14.705-3.262-20.625-1.085m-24.361 6.266C79.513 84.82 79.954 86 81.5 86c.825 0 1.5-.423 1.5-.941 0-1.261-1.562-2.164-2.361-1.365M120 86.583c0 1.766 2.153 1.459 2.771-.395.218-.654-.317-1.188-1.188-1.188-.87 0-1.583.713-1.583 1.583m-12.559 2.862c1.068.855 2.643 1.519 3.5 1.476 1.347-.068 1.355-.155.059-.635-.825-.306-2.4-.97-3.5-1.476-1.968-.906-1.969-.895-.059.635m6.372 2.238c.721.289 1.584.253 1.916-.079s-.258-.568-1.312-.525c-1.165.048-1.402.285-.604.604m-35.075 9.567c-2.426 3.334-5.051 8.75-4.242 8.75.249 0 1.164-1.375 2.033-3.056l1.58-3.055 3.459 3.037c7.693 6.754 11.421 7.285 21.301 3.035 5.114-2.2 7.157-4.743 2.881-3.585-10.322 2.793-13.681 3.011-19.275 1.248-6.109-1.926-7.32-3.473-5.628-7.188 1.535-3.368.698-3.046-2.109.814M109.5 103c.34.55 1.265 1 2.056 1s3.127 1.474 5.191 3.276c6.391 5.579 7.932 6.323 3.753 1.81-4.257-4.596-13.105-9.491-11-6.086m6 15.09c-4.291 1.564-7.412 1.768-22 1.441l-17-.381 6 2.013c5.034 1.689 7.61 1.922 16 1.448 10.723-.607 19.493-2.692 21.503-5.114.683-.823 1.074-1.437.869-1.363-.204.073-2.622.953-5.372 1.956m-11 9.91c-1.65.42-7.838.817-13.75.882s-10.75.509-10.75.986c0 1.514 11.88 4.317 15.201 3.588 3.572-.785 16.046-6.513 13.799-6.337-.825.065-2.85.461-4.5.881"/></svg>