<svg xmlns="http://www.w3.org/2000/svg" width="200" height="200" fill="#000000"><path fill-opacity=".188" fill-rule="evenodd" d="M105.923 4.923C103.396 7.45 103 8.597 103 13.384c0 4.605 2.452 17.862 4.598 24.866.795 2.593-1.849 2.176-4.571-.721-3.626-3.86-8.195-4.904-17.437-3.986-4.45.442-11.583.691-15.853.553-6.944-.224-8.472.087-14.5 2.948-3.988 1.894-8.829 5.292-11.864 8.327-2.819 2.821-6.644 6.548-8.5 8.282-7.946 7.429-10.736 11.107-11.338 14.951-.336 2.143-1.101 6.146-1.7 8.896-.598 2.75-1.216 7.565-1.371 10.699-.34 6.843-.581 7.288-5.282 9.785C8.098 101.747 5.04 105.149 3.485 111c-1.965 7.396-1.863 11.348.344 13.345 1.006.91 2.154 1.655 2.553 1.655.398 0 2.38 1.125 4.403 2.5 2.024 1.375 4.974 2.5 6.556 2.5 2.481 0 2.799.309 2.319 2.25-.306 1.238-1.027 6.075-1.601 10.75-1.768 14.393 1.101 24.69 8.606 30.875 5.566 4.588 11.466 6.282 23.835 6.842 10.245.463 11.206.685 14 3.232 11.072 10.09 27.958 15.382 42.074 13.184 12.548-1.954 20.316-7.768 29.004-21.706 3.721-5.971 5.65-8.02 9.308-9.89 8.049-4.114 13-10.717 17.506-23.347 3.326-9.321 3.485-17.254.445-22.19-1.185-1.925-3.771-6.65-5.746-10.5l-3.591-7 2.75-2.686c1.683-1.644 2.762-3.779 2.782-5.5.017-1.548.692-3.688 1.5-4.755 2.24-2.962 1.813-7.996-.958-11.288-2.394-2.846-2.399-2.899-.429-4.129 1.097-.686 2.453-2.56 3.013-4.166.799-2.293 1.803-3.057 4.68-3.563 5.578-.982 20.935-9.388 25.836-14.142 6.75-6.548 7.855-12.386 2.989-15.794-5.637-3.949-16.185.645-29.328 12.773-4.023 3.713-7.761 6.75-8.306 6.75s-1.246 1.013-1.557 2.25c-.416 1.652-1.386 2.308-3.649 2.47-3.886.277-7.587 2.668-9.029 5.833-1.454 3.19-3.199 3.096-5.604-.303l-1.946-2.75 3.769-1.78c4.192-1.98 6.518-6.164 5.726-10.303-.402-2.106.339-3.37 3.902-6.654 4.416-4.07 12.256-15.671 14.363-21.252 2.03-5.377 1.513-10.449-1.357-13.319-3.665-3.664-8.644-3.527-12.689.348-4.158 3.984-8.776 13.679-9.947 20.886-.53 3.26-1.424 6.387-1.987 6.95S137 41.896 137 43.725c0 2.589-.531 3.526-2.399 4.237-2.847 1.082-5.601 4.718-5.601 7.395 0 1.673-.25 1.595-2-.63-1.1-1.398-2-3.729-2-5.18s-1.077-3.715-2.394-5.032-2.109-2.678-1.761-3.026c.618-.619 2.225-20.731 2.341-29.307C123.27 6.002 119.359 2 113.236 2c-3.519 0-4.97.58-7.313 2.923M86.5 37.083c-3.618.573-3.421.647 2.059.775 3.575.084 6.854.744 8 1.61 2.237 1.692 3.441 1.916 3.441.639 0-2.065-8.098-3.879-13.5-3.024m9.068 8.951C96.534 51.571 96.806 52 99.346 52c2.668 0 5.176 2.346 4.199 3.927-.345.558.538 1.307 1.961 1.664 3.324.834 4.28-.1 1.58-1.545-1.147-.614-2.086-1.945-2.086-2.959 0-2.324-2.548-4.627-3.47-3.136-1.177 1.905-3.529 1.111-3.562-1.201-.017-1.237-.7-3.135-1.518-4.216-1.386-1.834-1.446-1.733-.882 1.5m-8.733 1.897c-.287 3.014-.089 3.695.848 2.917 1.23-1.021 1.376-6.842.172-6.846-.355-.001-.814 1.767-1.02 3.929M74.624 53.33c.068 3.482.667 7.345 1.331 8.586 1.724 3.22 2.083 2.199.969-2.757-.529-2.358-.696-4.719-.369-5.247.715-1.159-.437-6.912-1.384-6.913-.369 0-.615 2.849-.547 6.331m-22.017-.748c-.844 2.2-.758 5.207.166 5.778.425.262.772-1.286.772-3.441 0-4.39-.077-4.582-.938-2.337m37.06.085c-.367.366-.667 1.131-.667 1.7 0 .626.466.567 1.183-.15.651-.651.951-1.416.667-1.7s-.817-.217-1.183.15m-26.4 3.083c-1.124 3.17-1.086 9.168.071 11.009.435.692.512 2.138.171 3.212-.697 2.196.987 6.029 2.649 6.029.731 0 .694-.473-.112-1.445-.728-.876-1.268-5.401-1.373-11.499-.095-5.53-.231-10.055-.302-10.055-.07-.001-.567 1.236-1.104 2.749m59.308 1.129c-.31.501.109 1.169.931 1.485.822.315 1.494.164 1.494-.336 0-1.356-1.777-2.198-2.425-1.149M91 59.559c0 1.451.433 2.292 1 1.941.55-.34 1-1.491 1-2.559S92.55 57 92 57s-1 1.152-1 2.559M51.554 61.25c-.211.688-.624 3.275-.916 5.75a263 263 0 0 1-1.213 8.75c-.419 2.618-.297 4.25.318 4.25 1.024 0 2.266-6.797 2.787-15.25.281-4.551-.164-6.147-.976-3.5m72.239-.689c-1.055 1.774 1.12 5.686 2.802 5.041.876-.336 2.728.294 4.146 1.409 3.205 2.521 4.05 1.845 1.864-1.491-1.251-1.909-2.237-2.4-3.955-1.968-1.728.433-2.534.022-3.293-1.678-.553-1.239-1.256-1.83-1.564-1.313M111 63c.589 1.1 1.28 2 1.535 2 .256 0 .465-.9.465-2 0-1.131-.667-2-1.535-2-1.225 0-1.319.404-.465 2m-18.341 2.445C91.85 67.554 94.437 71 96.829 71c1.203 0 1.093-.469-.527-2.25-1.126-1.237-2.247-2.902-2.491-3.699-.344-1.123-.604-1.034-1.152.394M78 70.5c0 2.471 1.355 3.353 2.444 1.59.723-1.169-.385-4.09-1.551-4.09-.491 0-.893 1.125-.893 2.5m34.813-1.817c.721.289 1.584.253 1.916-.079s-.258-.568-1.312-.525c-1.165.048-1.402.285-.604.604m-15.045 6.042c1.797.222 4.497.218 6-.01 1.503-.229.032-.411-3.268-.405s-4.529.192-2.732.415M74 78.544l-2.5 1.472 3-.637c3.31-.703 5.81-2.401 3.45-2.344-.797.02-2.575.699-3.95 1.509m43-.161c0 .211 1.111.596 2.47.856 1.358.26 2.232.087 1.941-.383-.512-.829-4.411-1.246-4.411-.473m20.5.617c.34.55 1.041 1 1.559 1s.941-.45.941-1-.702-1-1.559-1-1.281.45-.941 1m-75 1.464c-2.53 1.158-2.667 1.386-.872 1.455 1.17.044 2.687-.594 3.372-1.419 1.491-1.797 1.35-1.799-2.5-.036m40-.517c-1.546.624-1.148.812 1.753.83 2.064.013 4.003-.382 4.309-.877.677-1.096-3.304-1.065-6.062.047m-19 3.631c-4.386 2.62-3.958 2.955 1.75 1.369 2.135-.592 3.75-1.667 3.75-2.494 0-1.889-.691-1.748-5.5 1.125M52 82.927c-2.475.363-6.3 1.617-8.5 2.788s-5.125 2.623-6.5 3.228c-2.198.966-1.975 1.046 1.848.66 2.398-.242 5.314-1.319 6.5-2.402 1.184-1.079 4.177-2.254 6.652-2.611 4.365-.629 9.497-2.717 6-2.441-.825.065-3.525.415-6 .778m8.625 5.542c-2.132.76-4.325 1.831-4.875 2.381s.743.379 2.875-.381c2.131-.76 5.986-1.401 8.566-1.425S72.16 88.55 72.5 88c.916-1.483-7.311-1.158-11.875.469m61.441-.088c-1.954.651-3.708 2.074-4.192 3.4-.685 1.877-.391 2.482 1.658 3.415 5.234 2.385 16.081-1.983 12.878-5.186-2.009-2.009-6.894-2.778-10.344-1.629M26.5 93.511c-2.321 1.027-2.548 1.341-1 1.392 2.147.071 5.248-1.494 4.471-2.256-.259-.254-1.821.135-3.471.864m-14.369 10.574C9.309 106.332 7 108.624 7 109.178s2.138-.763 4.75-2.927 5.65-4.443 6.75-5.063c1.579-.89 1.659-1.134.381-1.158-.891-.016-3.929 1.808-6.75 4.055m62.426.138c-2.05 2.925-2.045 8.652.007 9.44 2.545.977 6.43-1.427 7.942-4.914 1.301-2.998 1.25-3.384-.659-4.999-2.802-2.37-5.418-2.201-7.29.473M7.073 114.635c-3.081 3.917-2.576 5.884 2.367 9.22 2.591 1.749 4.207 2.387 3.879 1.534-.309-.805-1.857-2.133-3.44-2.952-3.259-1.685-3.543-3.253-1.353-7.487 1.891-3.657 1.28-3.79-1.453-.315M147 116.706c2.81 1.027 5.895 4.539 6.531 7.433.86 3.916-2.848 11.457-6.584 13.388-3.877 2.005-7.864 1.85-14.295-.556-6.437-2.409-10.652-6.016-10.652-9.119 0-1.233 1.204-3.499 2.675-5.035 2.609-2.723 2.394-2.679-8.75 1.793-6.284 2.521-11.875 4.948-12.425 5.392-.55.445-3.656 1.578-6.902 2.519-7.07 2.048-12.02 1.557-20.807-2.063-8.286-3.414-15.206-4.147-20.048-2.124-3.295 1.377-3.743 1.976-3.743 5.002 0 4.763 5.003 11.849 13.226 18.734C78.535 163.214 90.86 167.314 111 167.298c19.888-.016 34.272-3.854 39.339-10.498 3.552-4.657 8.159-15.086 9.666-21.881 1.123-5.066 1.046-6.016-.84-10.28-1.653-3.735-2.959-5.098-6.372-6.647-2.361-1.071-4.968-1.922-5.793-1.891-1.333.051-1.333.118 0 .605m-8.677 4.895c-.814 2.122 1.341 3.365 5.868 3.384 4.131.017 5.586-1.344 3.773-3.529-1.692-2.038-8.845-1.93-9.641.145"/><path fill-opacity=".242" fill-rule="evenodd" d="M108.11 3.396c-3.268 1.811-5.034 5.336-5.063 10.104-.023 3.78 3.808 22.061 5.381 25.677 1.049 2.41-2.927 1.233-5.909-1.749-3.708-3.708-9.773-4.858-18.587-3.525-4.163.63-10.688.871-14.5.536-6.173-.542-7.479-.326-11.932 1.972-2.75 1.419-5.618 2.583-6.373 2.585s-4.157 2.817-7.561 6.254c-3.404 3.438-7.286 7.212-8.628 8.388-1.341 1.176-4.219 4.169-6.396 6.652-3.43 3.912-4.131 5.558-5.259 12.362-.716 4.316-1.804 9.091-2.418 10.609s-.857 4.444-.54 6.5c.693 4.492-.428 6.224-5.828 9.005-5.511 2.839-10.15 8.055-10.879 12.234-1.896 10.87-1.897 10.726.016 12.446 4.647 4.18 10.027 6.934 13.434 6.878l3.569-.058-1.282 6.617c-2.789 14.4-1.267 27.433 4.012 34.354 5.353 7.018 20.098 11.797 31.633 10.251 4.261-.571 4.845-.335 11 4.451 3.575 2.78 9.875 6.507 14 8.284 7.052 3.037 8.217 3.232 19.5 3.254 10.22.02 12.693-.298 16.676-2.138 6.744-3.117 13.075-9.401 19.032-18.892 4.432-7.062 5.937-8.641 10.08-10.582 6.028-2.823 10.13-7.398 13.945-15.549 5.682-12.143 7.172-22.238 4.105-27.816-.907-1.65-3.568-6.716-5.912-11.258-3.915-7.583-4.118-8.336-2.482-9.212 1.799-.963 4.363-5.932 3.93-7.618-.129-.501.582-2.552 1.581-4.556 2.156-4.331 1.519-8.14-1.867-11.155l-2.313-2.061 2.862-2.409c1.693-1.424 2.863-3.394 2.863-4.82 0-2.072.475-2.411 3.378-2.411 4.125 0 9.02-1.976 17.823-7.196C192.255 54.435 198 48.143 198 43.594c0-5.299-4.72-8.635-10.25-7.245-6.967 1.751-30.621 20.162-30.709 23.901-.032 1.351-.903 1.75-3.818 1.75-4.369 0-7.957 2.17-9.261 5.601-1.239 3.257-4.163 3.021-6.246-.505-2.192-3.711-2.158-4.096.361-4.096 1.142 0 3.44-1.363 5.106-3.029 2.523-2.523 2.958-3.64 2.602-6.688-.37-3.168.029-4.059 2.976-6.646 7.31-6.419 16.212-22.288 16.229-28.932.02-7.55-8.284-11.408-14.324-6.657-3.559 2.799-9.781 15.728-10.407 21.625-.282 2.655-1.192 5.604-2.021 6.554-1.006 1.154-1.323 2.863-.953 5.141.512 3.154.328 3.459-2.407 4.006-2.215.443-3.397 1.567-4.693 4.461l-1.731 3.867-1.727-2.289c-.95-1.259-1.727-3.183-1.727-4.274s-1.112-3.307-2.471-4.922c-2.112-2.51-2.335-3.407-1.538-6.185.512-1.787.896-5.113.853-7.391s.252-8.511.655-13.852l.733-9.711-3.039-3.039c-3.365-3.365-7.871-3.978-12.083-1.643M83.5 36.924c-5.677 1.558-8.242 2.933-10.263 5.501C71.191 45.026 69 45.841 69 44c0-1.493-1.649-1.208-3.454.597-.885.885-2.322 1.319-3.221.974-1.414-.542-1.323-.944.7-3.097L65.349 40h-3.875c-2.863 0-3.581.293-2.752 1.122.617.617.882 1.748.588 2.513s-.024 2.005.6 2.756c.792.954.833 2.155.136 3.987-.698 1.837-.67 2.622.095 2.622.69 0 .814.828.335 2.25-.416 1.237-.897 4.5-1.067 7.25-.171 2.75-.368 5.9-.438 7s-.602 2.982-1.182 4.183c-1.919 3.972-.559 5.129 4.618 3.928 4.402-1.022 5.831-2.728 3.492-4.173-.606-.375-.855-1.908-.554-3.413s.079-3.201-.492-3.772c-.718-.718-.7-1.67.057-3.085.769-1.437.779-2.242.034-2.703-.615-.379-.789-1.895-.414-3.601.391-1.781.16-3.532-.584-4.429-1.662-2.002-.602-2.817 2.613-2.01 1.459.367 2.885 1.558 3.17 2.649.367 1.402 1.068 1.808 2.395 1.387 2.311-.734 2.403.299.24 2.689-1.515 1.674-1.515 1.855 0 2.436C74.415 60.373 74.52 63 72.5 63c-.943 0-1.5.951-1.5 2.559 0 2.725.222 2.691 5.291-.821 2.108-1.46 2.528-2.251 1.715-3.23-.592-.714-.989-1.682-.882-2.153.106-.47-.153-1.648-.577-2.618-.446-1.021-.274-2.362.411-3.186.858-1.034.888-1.969.111-3.421C76.481 49.031 76 47.877 76 47.566c0-1.148 2.793-.52 3.965.892.798.961 2.285 1.278 4.372.929l3.163-.527-2.979 2.54c-2.357 2.01-2.723 2.798-1.75 3.771.676.676 1.239 2.151 1.251 3.279.022 2.046.026 2.046 1.75-.055.951-1.158 2.515-2.381 3.478-2.719.963-.337 1.75-1.318 1.75-2.18 0-1.278-.384-1.361-2.086-.45-2.523 1.35-4.13.214-1.656-1.171C88.3 51.292 89 49.715 89 47.95c0-1.622.41-2.95.911-2.95C91.072 45 96 50.816 96 52.185c0 .601 1.043.77 2.5.404 1.442-.361 2.5-.196 2.5.392 0 .56.675 1.019 1.5 1.019 2.137 0 1.878.75-1.25 3.616-1.912 1.752-2.357 2.681-1.458 3.049.986.404 1.019.858.137 1.92-1.495 1.802 1.008 2.898 4.573 2.004 2.955-.742 3.406.988.498 1.911-1.1.349-2 1.302-2 2.117 0 1.224 1.088 1.364 6.25.8 3.438-.375 6.408-.818 6.602-.985s-1.269-.607-3.25-.979c-3.846-.721-4.955-2.453-1.571-2.453 2.427 0 3.708-2.661 2.07-4.299-.886-.886-2.237-.595-5.651 1.216-2.467 1.309-4.775 2.091-5.129 1.738-.859-.86 2.468-4.453 4.811-5.197 2.442-.775 2.38-2.161-.132-2.958-1.245-.395-2-1.513-2-2.96 0-2.549-2.911-4.303-4.058-2.446-1.071 1.732-2.942.122-2.942-2.531 0-1.275-.675-2.878-1.5-3.563S95 41.84 95 40.723c0-1.978.055-1.983 2.024-.202 1.452 1.315 2.329 1.526 3.107.748 2.961-2.961-9.658-6.258-16.631-4.345m-3.423 4.665C76.129 44.911 76.192 46 80.333 46c3.959 0 5.057-.825 3.536-2.658-.613-.738-.695-1.342-.183-1.342.513 0 1.805-.661 2.873-1.468 1.863-1.41 1.834-1.47-.732-1.5-1.471-.018-4.058 1.133-5.75 2.557m25.673 3.117c1.237.238 2.25 1.167 2.25 2.064 0 1.298.253 1.377 1.242.388 1.514-1.514-.581-3.198-3.742-3.007-1.725.105-1.691.181.25.555m-54.424.99c-1.196.233-2.86 1.47-3.699 2.75s-3.123 3.315-5.076 4.522S39 55.83 39 56.646s-1.366 2.633-3.036 4.038c-3.433 2.888-6.326 7.862-5.604 9.634.28.686.515.512.561-.413.091-1.838 3.172-4.905 4.927-4.905q1.19 0 .521 2.75c-.668 2.747-.666 2.748 1.481.845 1.183-1.048 2.15-2.51 2.15-3.25S40.638 64 41.417 64c1.909 0 2.485-1.989 1.413-4.885C41.802 56.339 44.091 52 46.582 52c.845 0 1.255.454.912 1.009-1.092 1.767.57 4.991 2.573 4.991 2.542 0 2.457 1.755-.188 3.897-2.06 1.668-2.068 1.771-.281 3.559 1.788 1.787 1.777 1.883-.378 3.314-1.564 1.039-2.22 2.472-2.22 4.852C47 75.48 46.55 77 46 77s-1 .948-1 2.107c0 1.51.448 1.935 1.582 1.5.87-.334 2.22-.607 3-.607.837 0 1.418-1 1.418-2.441 0-1.343.408-2.693.906-3.001s.673-1.453.387-2.544c-.285-1.091-.185-2.778.222-3.749.621-1.479 1.739-23.54 1.173-23.129-.104.075-1.166.327-2.362.56M120 58c-2.759 2.158-2.093 2.7.968.788 2.891-1.806 3.897.088 1.206 2.27-2.383 1.932-2.187 3.942.385 3.942.793 0 1.441.612 1.441 1.361 0 .894 1.781 1.571 5.191 1.975 2.855.338 5.337.47 5.514.292.178-.177-.629-1.532-1.791-3.011-1.475-1.875-2.691-2.505-4.019-2.084-1.961.623-2.231.235-3.331-4.783-.709-3.236-2.139-3.429-5.564-.75m-32.056 2.223c-3.382 3.702-3.479 4.088-1.455 5.768.819.68 1.283 1.57 1.03 1.978s.653.53 2.011.27c3.002-.574 3.313 1.359.369 2.293-3.936 1.249-.416 2.344 3.851 1.197 4.42-1.188 5.174-2.072 2.925-3.429-.729-.44-1.635-1.638-2.012-2.663-.566-1.536-.952-1.642-2.199-.607-2.516 2.088-2.784.322-.434-2.856C94.124 59.341 94.058 57 91.885 57c-.549 0-2.322 1.45-3.941 3.223m-10.957 8.329c-1.368.758-3.274 1.393-4.237 1.413-2.032.041-2.127.461-.708 3.113.822 1.537 1.441 1.734 2.934.935C76.017 73.456 77.798 73 78.934 73 80.458 73 81 72.359 81 70.559c0-3.196-.979-3.686-4.013-2.007M38.69 70.436c-1.144.867-1.42 1.613-.75 2.027 1.61.995 1.266 4.537-.44 4.537-1.634 0-1.882.879-.735 2.606.474.713 1.844-.091 3.86-2.268 1.719-1.856 2.732-3.617 2.25-3.915-.481-.298-.875-1.414-.875-2.482 0-2.271-.816-2.396-3.31-.505M125 72.508c0 1.399-.52 1.582-2.75.967-3.171-.875-10.785-.933-20.596-.157-7.63.603-9.178 1.261-5.272 2.242 1.44.361 2.618 1.027 2.618 1.479s1.46.403 3.243-.109c1.784-.511 5.352-.93 7.929-.93 2.743 0 5.282-.597 6.124-1.439 1.252-1.251 1.907-1.219 5.039.25 5.143 2.413 4.709 4.061-.903 3.428-3.633-.409-5.16-.077-7.46 1.623-3.454 2.554-5.43 2.773-4.56.506.538-1.4-.004-1.561-3.801-1.133-2.436.274-5.776 1.459-7.424 2.632-3.543 2.522-4.187 2.625-4.187.665 0-.807 1.237-2.159 2.75-3.003l2.75-1.535-2.616.578c-1.438.317-4.43.089-6.649-.509-3.366-.906-4.536-.797-7.07.657-3.415 1.96-5.168 1.194-3.065-1.34 1.247-1.503 1.137-1.592-1.108-.897-1.371.425-4.332 1.84-6.58 3.145-4.699 2.727-6.883 3.042-6.05.872.674-1.758-.689-1.93-3.474-.44-1.089.583-4.547 1.464-7.684 1.958S46.25 84.026 43.5 85.381c-2.75 1.356-6.125 2.919-7.5 3.474-2.451.99-2.436 1.011.75 1.077 1.788.038 3.25.488 3.25 1.001 0 1.505-3.894 2.309-7.713 1.593-3.595-.674-9.287.928-9.287 2.614 0 .494 1.184.601 2.63.238 1.992-.5 2.519-.322 2.169.731-.466 1.401-1.965 2.032-9.299 3.91-4.518 1.157-11.978 7.047-11.342 8.954.284.854 1.409.421 3.524-1.359 3.136-2.639 5.318-3.351 5.318-1.735 0 .483-2.475 2.993-5.5 5.577-4.324 3.694-5.5 5.319-5.5 7.601 0 2.326.745 3.306 3.75 4.933 2.063 1.117 4.538 2.586 5.5 3.265 2.849 2.01 4.99-.242 6.256-6.585.625-3.131.916-5.915.645-6.186-.833-.833 3.881-5.255 6.964-6.532 2.314-.958 2.682-1.492 1.779-2.58-.857-1.033-.826-1.749.126-2.896 2.669-3.216.146-2.305-2.906 1.049-1.768 1.942-3.584 3.303-4.036 3.023-.866-.535-4.078 6.957-4.078 9.513 0 2.209-2.89 5.939-4.602 5.939-1.166 0-1.343-.776-.816-3.584.623-3.321.504-3.56-1.612-3.25-3.465.507-3.456-1.722.013-3.159 1.681-.696 4.144-2.558 5.473-4.137s2.8-2.87 3.271-2.87 2.844-2.025 5.273-4.5c4.265-4.346 7-5.677 7-3.407 0 1.036 9.078.916 11.5-.152.55-.243 1.225.003 1.5.546s-2.875 2.659-7 4.702c-9.164 4.539-8.275 4.664 3.5.492 6.958-2.465 8.936-3.574 8.717-4.888-.204-1.223.809-1.992 3.62-2.749 2.146-.578 5.044-1.949 6.44-3.047 3.747-2.948 6.632-2.306 3.54.786-3.672 3.672 4.822 1.267 12.746-3.609 4.869-2.996 13.039-5.538 14.633-4.553 1.481.916.825 2.435-1.446 3.348-2.24.9-2.239.904.25.963 1.375.033 4.525-1.287 7-2.932 5.952-3.957 10.405-3.992 6.75-.053-1.016 1.096-.947 1.241.372.781.892-.312 3.679-.876 6.193-1.253 4.133-.619 4.46-.862 3.416-2.535-1.582-2.532-1.055-2.725 5.269-1.921 3.025.385 5.05.763 4.5.841-.769.109 12.139 7.048 13.25 7.123.137.009-.65-.883-1.75-1.983-2.214-2.214-2.708-5.358-.75-4.773.688.205 3.387 1.006 6 1.78 4.538 1.345 6.168 3.342 3.5 4.291-.687.244-.066.299 1.382.122q5.289-.648 2.133 2.839c-1.655 1.83-1.646 1.989.189 3.331 2.607 1.907 6.943 1.888 6.209-.026-.303-.79.324-2.549 1.393-3.908S158 87.096 158 85.767c0-2.398-3.664-6.767-5.675-6.767-.575 0-2.796-1.213-4.935-2.696-2.789-1.932-5.73-2.887-10.39-3.372-3.575-.373-7.738-1.009-9.25-1.413-2.221-.594-2.75-.404-2.75.989M28.71 76c-.287 1.1-.115 2 .384 2 .498 0 .906-.9.906-2s-.173-2-.383-2-.619.9-.907 2m104.29.149c-4.414 1.3-6.386 2.865-5.157 4.094.57.57 2.109.316 3.992-.658 1.686-.872 4.718-1.585 6.738-1.585 3.15 0 3.495.213 2.427 1.5-1.315 1.585-.877 1.832 2.729 1.542 1.226-.099 3.575.615 5.219 1.587 2.919 1.724 4.853 1.476 3.652-.468-1.142-1.847-9.173-5.99-12.63-6.515-1.909-.29-5.045-.064-6.97.503m-54.774 5.855C75.855 83.449 73.188 84 68.559 84c-3.516 0-6.542-.422-6.726-.938-.183-.516-2.804-.082-5.833.967-3.025 1.048-6.513 1.92-7.75 1.938-3.859.056-2.458 2.029 1.5 2.112 4.128.087 3.632.443-1.899 1.365-4.323.721-9.436 4.371-8.056 5.751.584.584 2.215.159 4.321-1.125 3.517-2.143 6.425-2.754 5.427-1.139-1.242 2.009 1.865 2.284 3.466.307 3.322-4.103 8.182-6.23 14.241-6.234 4.446-.003 5.75.336 5.75 1.496 0 2.151 1.319 1.854 3.881-.873 1.226-1.305 4.004-3.173 6.174-4.152 2.17-.978 3.945-2.16 3.945-2.627 0-1.576-5.478-.854-8.774 1.156m-42.976.765c-1.237.203-2.25 1.022-2.25 1.82 0 1.074.711 1.278 2.75.789 1.513-.362 2.945-.829 3.183-1.035.963-.835-1.578-1.921-3.683-1.574M27.158 87c0 1.375.227 1.938.504 1.25.278-.687.278-1.812 0-2.5-.277-.687-.504-.125-.504 1.25m94.199.945c-3.136 1.333-5.551 5.117-4.259 6.673 2.877 3.467 15.123 1.716 15.7-2.245.164-1.127-.358-2.593-1.161-3.259-1.977-1.641-7.653-2.286-10.28-1.169m-47.862 16.469c-2.633 2.634-4.042 6.717-3.134 9.084 1.315 3.427 9.879.872 12.214-3.643 1.86-3.598 1.797-4.852-.325-6.463-2.687-2.04-6.091-1.642-8.755 1.022m62.755 11.705c-1.787.516-3.25 1.156-3.25 1.421 0 .775 8.405-.708 9.45-1.668 1.215-1.115-1.915-.991-6.2.247m10.495.915c10.059 3.164 7.129 19.825-3.795 21.582-6.613 1.063-20.95-6.17-20.95-10.57 0-2.593 3.472-6.585 6.998-8.045 1.686-.699 2.891-1.445 2.678-1.659-.549-.548-26.857 9.718-28.676 11.191-5.486 4.441-16.946 4.785-26.621.8-5.409-2.228-8.445-2.833-14.211-2.833-7.017 0-7.457.14-10.25 3.266-1.727 1.933-2.914 4.381-2.908 6 .026 7.281 10.207 20.284 19.563 24.986 10.337 5.195 13.755 5.749 35.427 5.736 20.93-.012 33.366-1.583 40.15-5.073 6.804-3.499 15.212-18.685 16.392-29.604.98-9.068-4.025-15.558-12.629-16.378-4.227-.402-4.276-.377-1.168.601m-6.245 2.698c-4.29 1.072-3.703 4.498.972 5.672 3.023.758 7.528-.906 7.528-2.781 0-1.061-5.775-4.225-6.399-3.507-.056.064-1.001.341-2.101.616"/><path fill-opacity=".369" fill-rule="evenodd" d="M109.5 2.945c-3.29 1.347-5.638 4.664-6.178 8.727-.449 3.374 3.135 22.395 5.196 27.578 1.107 2.783-1.963 2.144-5.585-1.164-4.422-4.039-10.368-5.374-18.292-4.109-3.484.557-10.116.935-14.738.84-7.711-.159-10.556.433-14.903 3.098-.825.506-3.003 1.479-4.841 2.161-1.908.71-4.408 2.855-5.83 5.003-1.369 2.069-4.242 4.921-6.385 6.339s-4.646 3.724-5.563 5.124c-.918 1.4-3.105 3.988-4.862 5.752-2.662 2.671-3.3 4.229-3.829 9.34-.349 3.374-1.351 8.244-2.226 10.821-.921 2.711-1.326 5.898-.961 7.558.826 3.763-.821 6.656-4.789 8.413-6.022 2.666-10.814 7.735-11.902 12.589C1.62 120.798 1.937 121.946 8 126.167c4.033 2.809 6.518 3.83 9.317 3.831 3.164.002 3.73.302 3.306 1.752-1.345 4.6-2.623 14.225-2.623 19.752 0 9.513 2.433 16.209 7.861 21.637C31.82 179.098 37.891 181 50.95 181h9.587l4.981 4.141c6.154 5.115 16.913 10.392 24.329 11.931 8.374 1.739 19.619.779 26.173-2.233 7.903-3.633 11.231-6.845 18.477-17.834 4.283-6.496 7.229-9.97 8.784-10.361 1.287-.323 4.147-1.896 6.356-3.496 6.66-4.825 15.363-23.885 15.363-33.647 0-1.693-.94-4.861-2.088-7.04a2209 2209 0 0 1-5.964-11.445l-3.874-7.484 2.459-2.567c1.353-1.412 2.617-3.916 2.809-5.565s1.133-4.196 2.092-5.659c2.172-3.315 1.403-7.606-1.924-10.732l-2.387-2.242 2.939-2.472c1.755-1.477 2.938-3.444 2.938-4.884 0-2.073.474-2.411 3.384-2.411 4.177 0 17.725-6.648 24.562-12.052 8.216-6.494 10.313-13.026 5.419-16.875-1.449-1.14-3.653-2.073-4.898-2.073-4.993 0-20.04 9.774-26.059 16.927-1.502 1.785-3.783 3.645-5.069 4.134-1.389.528-2.339 1.712-2.339 2.914 0 1.597-.654 2.025-3.096 2.025-4.196 0-8.639 2.8-9.82 6.189-1.11 3.183-3.394 2.971-6.312-.584-2.482-3.024-2.19-4.067 1.44-5.148 4.471-1.332 7.528-6.658 6.058-10.554-.925-2.451-.808-2.915.87-3.448 3.906-1.239 15.539-18.315 17.942-26.334 2.716-9.064-3.554-15.597-11.497-11.978-4.775 2.176-11.348 15.016-12.172 23.78-.229 2.433-1.133 5.215-2.009 6.183-1.118 1.236-1.392 2.673-.919 4.827.509 2.318.321 3.067-.771 3.067-.794 0-2.63.933-4.079 2.073-1.988 1.563-2.638 2.976-2.646 5.75l-.011 3.677-2.739-3.474c-1.506-1.911-2.853-4.808-2.992-6.439s-1.118-3.892-2.176-5.026c-1.658-1.778-1.796-2.728-1.006-6.922.504-2.673.676-5.249.382-5.725-.294-.475.004-5.49.661-11.145 1.07-9.202 1.017-10.627-.504-13.568-2.35-4.544-7.218-6.255-12.104-4.256M81.942 36.896c-4.51 1.46-7.386 3.226-9.687 5.948-2.195 2.596-2.245 2.606-2.25.427-.005-2.013-.246-2.118-2.505-1.089-1.375.626-2.5 1.742-2.5 2.479 0 .736-.675 1.339-1.5 1.339-2.23 0-1.814-2.666.69-4.42 2.312-1.62 2.266-2.254-.19-2.603-3.447-.491-5.195.205-8.882 3.536-2.139 1.932-4.513 3.273-5.276 2.98-.837-.321-2.12.707-3.232 2.59-1.015 1.718-3.367 4.021-5.227 5.119S38 55.968 38 56.911c0 .942-1.343 2.705-2.983 3.919-3.675 2.716-6.597 7.99-5.201 9.386.647.647 1.187.35 1.573-.868.611-1.922 4.45-4.843 5.278-4.015.259.26-.09 1.372-.777 2.472-1.037 1.659-.946 2.461.536 4.723 1.812 2.764 1.604 3.292-1.926 4.893-.55.249-.212 1.094.75 1.876C37.548 81.166 37.462 82 34.969 82c-2.119 0-3.577 2.207-2.553 3.864.371.6 1.713.536 3.588-.172C38.359 84.804 39 83.956 39 81.735 39 78.661 42.889 74 45.455 74c1.962 0 1.983 1.392.045 3-.825.685-1.5 2.042-1.5 3.016 0 1.549.47 1.652 3.75.819 2.788-.707 3.803-1.514 3.956-3.143.113-1.206.444-3.992.735-6.192 1.358-10.249 1.537-12.458 1.553-19.146.014-5.525.45-7.681 1.926-9.5 2.334-2.879 3.83-1.794 2.264 1.642-.938 2.057-.877 2.504.337 2.504 1.664 0 1.905 1.778.536 3.942-.622.982-.406 1.813.675 2.604 1.446 1.057 1.44 1.371-.072 3.53-1.969 2.81-2.152 5.584-.41 6.198.944.333.832 1.17-.461 3.422-1.342 2.337-1.45 3.247-.5 4.21s.834 1.507-.539 2.522c-1.886 1.393-2.327 4.097-.821 5.028C58.403 79.367 67 76.717 67 75.352c0-.679-.398-1.48-.886-1.781-.487-.301-.768-3.205-.625-6.453s-.093-6.478-.526-7.178-.367-2.379.147-3.73c.722-1.898.554-2.735-.739-3.681-1.155-.844-1.323-1.441-.543-1.923C65.409 49.629 69 51.744 69 53.652c0 1.147.686 1.45 2.5 1.103 3.005-.574 3.269.747.496 2.479-1.985 1.24-1.983 1.268.25 3.003l2.254 1.75-2.25.623c-1.53.424-2.25 1.386-2.25 3.007 0 1.31.21 2.383.466 2.383 1.453 0 7.551-3.538 7.645-4.435.254-2.444-.34-6.125-1.12-6.938-.46-.48-.355-1.929.233-3.22.785-1.721.751-2.732-.126-3.788-.79-.953-.849-1.655-.173-2.073.562-.347 1.787.262 2.721 1.354 1.331 1.554 2.116 1.763 3.613.962 3.071-1.644 3.295-.085.322 2.253-1.937 1.523-2.414 2.452-1.652 3.214.589.589 1.071 2.106 1.071 3.371 0 2.857 1.638 3.015 2.518.243.359-1.132 1.74-2.471 3.068-2.976C90.119 55.384 91 54.254 91 52.87c0-2.049-.11-2.08-1.829-.525-2.821 2.553-3.803 1.957-1.251-.76 1.651-1.757 2.081-3.051 1.579-4.75-.69-2.334-.689-2.334 1.767.222 1.351 1.406 2.953 3.485 3.56 4.618.748 1.397 1.84 1.935 3.389 1.669 1.257-.215 2.96.078 3.785.651 1.269.882 1.076 1.361-1.255 3.111-1.658 1.244-2.454 2.532-2 3.231.415.64.755 2.063.755 3.163 0 2.089 2.286 2.497 5.75 1.028.994-.421 1.75-.31 1.75.257 0 .549-1.155 1.288-2.566 1.642-1.725.433-2.455 1.207-2.225 2.359.273 1.371 1.137 1.623 4.316 1.26 2.186-.25 5.438-.475 7.225-.5 4.526-.064 4.065-1.392-.75-2.162-4.404-.704-5.461-2.384-1.5-2.384 2 0 2.5-.5 2.5-2.5 0-3.18-3.087-3.354-7.863-.442-1.849 1.127-3.649 1.762-4 1.41-.608-.611 1.454-2.557 5.494-5.183 1.652-1.073 1.694-1.363.357-2.5-.832-.707-2.06-2.522-2.729-4.035-1.222-2.763-3.599-3.627-4.769-1.734-.925 1.496-2.49.17-2.49-2.11 0-1.087-.736-3.1-1.635-4.472-1.876-2.863-1.169-4.346 1.153-2.419 2.555 2.12 3.932-.298 1.449-2.545-2.312-2.092-12.511-3.035-17.025-1.574m-1.21 4.64c-2.053 1.395-3.732 2.97-3.732 3.5 0 1.115 3.035 1.272 5.595.289 1.631-.626 1.62-.724-.161-1.348-1.691-.593-1.532-.875 1.323-2.351C85.54 40.703 87 39.735 87 39.474c0-1.193-2.863-.252-6.268 2.062m23.916 3.156c1.181.231 2.426 1.408 2.766 2.614.568 2.016.702 2.051 1.656.436 1.481-2.507.304-3.763-3.379-3.606-2.171.093-2.505.271-1.043.556M43.35 54.531c-.323.842-.321 2.862.004 4.489.766 3.828-.097 6.016-2.073 5.258-1.025-.394-1.399-.133-1.099.767.25.75-.701 2.436-2.114 3.747-2.458 2.282-2.016 2.407 2.301.651.826-.336 1.581.258 1.906 1.5.611 2.337 3.725 2.829 3.725.589 0-.807 1.204-2.099 2.676-2.87l2.677-1.403-2.278-1.219-2.278-1.219 2.602-2.715c3.26-3.403 3.286-4.316.101-3.517-2.49.625-3.088-.383-2.575-4.339.233-1.792-2.874-1.548-3.575.281m55.091.937c-1.067.808-1.434 1.483-.813 1.5.62.018 1.687-.643 2.372-1.468 1.581-1.905.935-1.918-1.559-.032m24.115.442c-.413.667-1.944 1.689-3.403 2.271s-2.115 1.258-1.458 1.503 2.092-.035 3.189-.622c2.98-1.595 3.509.45.607 2.352-3.2 2.097-3.178 3.586.053 3.586 1.868 0 2.466.465 2.25 1.75-.206 1.227.304 1.693 1.706 1.56 1.1-.104 3.688.186 5.75.644 4.321.96 4.445.699 1.761-3.704-2.034-3.336-3.417-4.02-4.521-2.234-.972 1.573-2.49.12-2.49-2.384 0-3.035-2.429-6.365-3.444-4.722M90 57.295c-1.624 1.329-6 7.284-6 8.165 0 .297.675.54 1.5.54 2.037 0 1.894 1.671-.25 2.92-2.381 1.386.282 1.401 2.871.015 1.095-.586 2.527-.87 3.184-.631s-.042 1.015-1.555 1.725c-4.322 2.03-3.321 3.282 2 2.502 5.923-.867 7.115-1.917 4.926-4.336-.922-1.019-1.676-2.41-1.676-3.091 0-.784-.735-1.006-2-.604-2.375.754-2.638-.726-.452-2.54 1.651-1.37 1.619-5.107-.048-5.598-.55-.162-1.675.258-2.5.933M76 68.616c-1.375.775-3.287 1.22-4.25.99-2.069-.495-2.277 1.291-.442 3.801 1.172 1.602 1.749 1.656 5.55.517 3.67-1.099 4.201-1.607 3.942-3.77-.363-3.028-1.505-3.394-4.8-1.538m48 3.882c0 1.288-.436 1.506-1.75.875-2.163-1.04-17.068-.796-28.2.463-2.111.239-.055 1.913 2.95 2.401l2.5.406-2.812 1.177c-2.086.874-3.926.897-7.129.091-3.543-.893-4.876-.798-7.438.526-3.145 1.627-4.142.984-1.921-1.237 2.281-2.281-2.027-1.316-8.33 1.865-3.34 1.686-6.351 2.787-6.692 2.446s.042-1.038.851-1.55c2.518-1.592-3.194-1.082-6.029.539-1.375.786-4.3 1.448-6.5 1.471-3.664.038-5.045.511-11 3.768-1.1.602-3.488 1.647-5.306 2.322-3.536 1.313-3.241 2.492.806 3.218 1.375.247-.713.51-4.639.585-5.494.105-7.684.589-9.5 2.103L21.5 95.933l2.75.034c5.502.066 1.805 2.982-3.829 3.019-4.091.027-16.052 9.716-14.236 11.532.251.251 2.302-.901 4.558-2.56 2.309-1.698 4.367-2.59 4.707-2.039.332.538-1.827 2.774-4.8 4.97-6.132 4.53-7.782 8.203-5.044 11.229.937 1.035 2.126 1.882 2.641 1.882s2.082.9 3.48 2c2.87 2.257 6.753 2.623 7.96.75 1.583-2.457 3.005-11.679 1.878-12.171-.586-.255.482-1.831 2.373-3.502 2.311-2.041 7.394-4.36 15.5-7.073 12.681-4.243 16.499-5.961 13.312-5.989-2.976-.026-1.928-1.729 1.484-2.412 1.778-.355 4.996-1.813 7.15-3.239 2.832-1.873 3.737-2.145 3.267-.978l-1.255 3.106c-.533 1.317-.096 1.313 3.702-.027 2.368-.835 7.108-3.086 10.533-5.001C83.939 85.936 93 83.767 93 85.785c0 .581-1.345 1.351-2.989 1.712s-3.275 1.121-3.626 1.689c-1.179 1.907 7.968-.27 11.669-2.778 1.954-1.324 4.654-2.394 6-2.376 2.366.031 2.383.079.505 1.5-2.436 1.842-1.078 1.907 6.8.325 5.394-1.083 5.607-1.238 4.063-2.944-1.55-1.712-1.376-1.798 3.544-1.76 4.02.031 5.054.353 4.635 1.444-.333.869.116 1.403 1.18 1.404.946 0 4.644 1.389 8.219 3.086 5.488 2.606 7.24 2.99 11.25 2.465 4.78-.625 6.66.707 2.75 1.948-2.804.89-2.492 2.194.95 3.974 4.155 2.149 7.05 1.977 7.05-.417 0-1.068.914-3.492 2.031-5.385 2.803-4.75 1.233-8.008-5.48-11.37-2.778-1.391-5.726-3.102-6.551-3.802-.825-.699-4.2-1.54-7.5-1.868s-7.687-.88-9.75-1.224c-3.12-.522-3.75-.339-3.75 1.09m-95.834 3.786c-1.424 2.776-1.991 12.614-.732 12.673.514.024.938-2.432.941-5.457s.323-5.5.709-5.5c1.079 0 1.934-2.871 1.023-3.434-.443-.274-1.317.499-1.941 1.718M116.8 75.1c-.208.623-3.428 1.228-7.413 1.393-6.756.281-14.261 2.877-15.878 5.493-.974 1.575 1.049 1.201 4.684-.868 1.819-1.035 4.995-2.131 7.057-2.437 3.218-.476 3.75-.284 3.75 1.354 0 1.796.275 1.762 4.673-.576 3.484-1.852 5.52-2.326 8-1.861 4.184.785 4.25.009.173-2.025-3.736-1.864-4.557-1.941-5.046-.473m13.95 2.062c-3.321 1.213-3.794 3.417-.5 2.326 3.932-1.302 11.75-1.747 11.75-.668 0 .557-.562 1.24-1.25 1.518-.687.277.562.54 2.777.583 2.216.043 5.028.78 6.25 1.636 1.7 1.19 2.22 1.249 2.209.25-.008-.719-2.259-2.544-5.001-4.057-5.279-2.911-11.062-3.477-16.235-1.588M81 80.709c-.825.304-2.336 1.281-3.357 2.171-1.371 1.196-3.898 1.62-9.652 1.62-4.41 0-7.552-.394-7.236-.908.323-.525-.455-.582-1.849-.135-1.323.425-4.768 1.268-7.656 1.873-6.339 1.328-6.814 2.639-1 2.755l4.25.085-5 1.231c-5.126 1.261-9.5 3.489-9.5 4.84 0 1.222 2.342.815 4.441-.773 2.376-1.797 5.235-1.904 5.844-.218.306.847 1.381.403 3.333-1.378 1.585-1.445 3.865-3.133 5.066-3.75C61.442 86.706 74.366 86.599 73.5 88c-1.116 1.805 1.536 1.045 3.792-1.087 1.214-1.148 3.896-2.957 5.958-4.02 2.063-1.064 3.75-2.15 3.75-2.413 0-.63-4.087-.474-6 .229m53 1.986c0 .51.941 1.937 2.09 3.171 1.576 1.692 2.99 2.169 5.75 1.939 4.762-.397 4.641-1.63-.34-3.464-6.547-2.41-7.5-2.619-7.5-1.646m-13.728 5.516c-1.225.591-2.493 1.911-2.817 2.932-.813 2.561-2.818 2.354-2.145-.222.431-1.648.196-1.936-1.133-1.392-1.388.568-23.846 6.2-31.953 8.013l-2.276.509 2.776 2.39c3.035 2.612 2.655 4.367-.573 2.64q-5.434-2.908-9.615 2.059c-1.873 2.225-2.554 4.045-2.339 6.25.297 3.052.396 3.107 5.289 2.928l4.985-.182-2.485 1.91c-3.681 2.828-10.996 2.637-13.812-.36-2.558-2.724-2.754-5.663-.648-9.736.839-1.622 1.121-2.95.627-2.95-2.796 0-23.866 11.141-25.372 13.415-1.575 2.379-5.918 23.144-6.467 30.92-.492 6.985-.266 8.985 1.458 12.882 2.814 6.362 5.525 7.843 15.954 8.717 4.826.404 10.124 1.451 11.774 2.325s6.473 5.137 10.717 9.472 9.733 8.888 12.197 10.119c13.079 6.532 29.82 3.965 39.231-6.015 2.738-2.903 10.904-14.849 10.136-14.827-.155.004-5.664.679-12.243 1.5-31.004 3.867-52.506-.892-66.38-14.694-13.491-13.42-14.677-26.498-2.887-31.85 7.111-3.228 15.273-2.659 25.556 1.783 9.031 3.902 14.917 4.671 22.173 2.898 4.869-1.19 2.601.705-2.616 2.186-6.763 1.921-12.653 1.391-21.566-1.938-9.462-3.535-16.688-4.046-21.562-1.526-6.163 3.188-7.045 10.01-2.343 18.133 5.508 9.516 16.023 16.986 28.358 20.147 9.443 2.42 33.763 2.384 48.229-.071 13.984-2.374 20.077-5.527 24.264-12.555 7.459-12.522 9.98-24.58 6.47-30.944-2.294-4.158-7.413-7.077-12.409-7.077-2.039 0-3.977-.437-4.307-.971-.843-1.364 3.926-2.381 8.036-1.714 3.882.63 4.033.292 1.994-4.443-1.799-4.176-4.798-7.618-10.256-11.771-3.876-2.95-4.388-3.089-6.5-1.768C133.08 97.029 125 98.206 125 96.905c0-.498.93-.905 2.066-.905 3.351 0 5.934-1.904 5.934-4.375 0-3.948-7.47-5.952-12.728-3.414M26.947 99.667c-3.616 3.266-5.133 6.333-3.134 6.333.447 0 2.106-1.35 3.687-3s3.33-3 3.887-3c.58 0 .5.513-.187 1.2-1.621 1.621-1.519 3.8.178 3.8.757 0 1.927-.663 2.6-1.474s2.646-1.74 4.385-2.066c1.74-.327 4.282-1.492 5.65-2.589 2.112-1.696 2.186-1.919.487-1.481-6.517 1.679-7.603 1.705-10.506.257-3.041-1.517-3.174-1.479-7.047 2.02m-7.915 7.274c-.588 1.098-3.086 3.178-5.55 4.623-5.069 2.97-5.634 3.889-1.958 3.187 3.122-.597 3.773.339 2.521 3.63-.562 1.478-.594 2.78-.075 3.1 1.249.773 4.03-3.469 4.03-6.146 0-1.222.921-3.782 2.047-5.69 1.244-2.108 1.656-3.711 1.05-4.085-.548-.339-1.478.282-2.065 1.381m103.107 3.092c-1.298 1.082-3.184 1.967-4.191 1.967-2.52 0-3.473 1.904-1.792 3.584 2.267 2.267 9.88 2.845 14.123 1.073 4.332-1.81 4.939-4.69 1.498-7.1-2.992-2.097-6.774-1.91-9.638.476m-30.889 5.619c-.687.283-1.25 1.122-1.25 1.864 0 1.422-2.941 2.75-5.021 2.269-2.736-.634-1.909 2.291 1.198 4.238 3.801 2.382 9.317 2.194 13.361-.456 2.867-1.879 3.225-5.097.712-6.414-2.433-1.274-7.499-2.12-9-1.501m42.632 2.729c-5.422 1.937-10.702 5.476-11.386 7.631-.992 3.127 1.23 5.821 7.353 8.912 7.861 3.968 12.119 4.661 16.074 2.616 5.876-3.039 9.108-12.312 5.795-16.627-3.06-3.985-10.725-5.074-17.836-2.532m4.559 2.12c-1.905 1.472-1.897 1.538.42 3.5 3.703 3.135 10.139 2.455 10.139-1.073 0-3.649-6.92-5.24-10.559-2.427"/><path fill-opacity=".98" fill-rule="evenodd" d="M109.213 3.484c-2.2.971-3.812 2.703-4.87 5.233-1.479 3.535-1.438 4.503.623 14.771 1.213 6.043 2.819 12.455 3.569 14.25 1.308 3.131 1.271 3.262-.931 3.262-1.262 0-3.151-.962-4.199-2.138-3.922-4.402-7.145-4.934-25.652-4.233-15.464.585-17.719.898-21.745 3.012-2.471 1.297-5.036 2.359-5.7 2.359s-2.918 2.057-5.008 4.57-5.938 6.113-8.55 7.999S32 56.662 32 57.475c0 .814-1.148 2.231-2.551 3.15-3.415 2.238-5.044 5.74-5.801 12.474-.346 3.079-1.283 7.448-2.081 9.71-.979 2.775-1.175 5.071-.603 7.064 1.06 3.696-.674 6.415-5.78 9.067-5.359 2.783-10.012 7.449-10.683 10.714a134 134 0 0 1-1.48 6.196c-1.204 4.506.165 7.685 4.186 9.723 1.811.917 4.06 2.34 4.998 3.162 1.075.942 3.017 1.341 5.25 1.08 1.95-.227 3.545-.054 3.545.385 0 .44-.723 4.962-1.606 10.05-1.871 10.77-1.352 18.795 1.654 25.593 4.674 10.57 11.822 14.264 28.952 14.96l11.5.468 4.371 3.846c9.365 8.244 25.663 13.699 37.519 12.558 13.696-1.318 21.972-6.98 31.283-21.404 4.333-6.712 6.206-8.683 10.16-10.686 6.144-3.114 10.717-8.317 14.348-16.325 3.42-7.541 6.133-18.585 5.304-21.593-.328-1.192-3.098-7.157-6.156-13.256l-5.56-11.089 2.615-2.615c1.544-1.544 2.629-3.762 2.648-5.412.017-1.537.692-3.669 1.5-4.736 2.334-3.086 1.842-8.276-1.06-11.177l-2.527-2.528 3.027-2.828c1.666-1.556 3.028-3.722 3.028-4.814 0-1.589.907-2.121 4.545-2.667 7.72-1.157 23.953-10.67 28.344-16.609 7.138-9.655-.719-16.635-12.156-10.8-5.443 2.777-13.223 8.689-18.159 13.799-2.159 2.236-4.533 4.065-5.275 4.065s-1.598 1.237-1.902 2.75c-.488 2.423-1.016 2.756-4.445 2.798-4.361.053-8.952 3.488-8.952 6.696 0 3.082-4.114 1.728-6.775-2.23l-2.344-3.486 2.865-.742c4.619-1.197 7.561-5.034 7.071-9.224-.373-3.198.152-4.153 5.134-9.35 9.166-9.561 15.8-22.515 14.519-28.349C163.729 12.49 159.646 9 156.442 9c-1.259 0-3.751 1.231-5.539 2.735C146.807 15.181 141 27.501 141 32.743c0 2.131-.661 4.748-1.468 5.816-.808 1.067-1.483 3.629-1.5 5.691-.023 2.702-.464 3.75-1.577 3.75-2.769 0-6.455 4.664-6.455 8.167v3.257l-2.959-3.462c-1.701-1.99-2.977-4.652-3-6.26-.024-1.639-1.048-3.73-2.473-5.051-1.728-1.602-2.167-2.673-1.515-3.702.504-.797.923-6.26.932-12.14.009-6.77.424-10.944 1.13-11.38.684-.423.92-2.427.61-5.177-.866-7.682-6.982-11.651-13.512-8.768m-24.01 32.714c-6.464.975-10.325 2.881-13.232 6.532l-2.205 2.77.724-3.375c.577-2.69.448-3.218-.633-2.601-2.765 1.576-5.779 4.793-5.267 5.621.29.47.078.855-.472.855-2.423 0-1.844-2.033 1.385-4.869 1.923-1.688 3.497-3.309 3.497-3.6 0-1.133-6.36-.454-9.439 1.007-1.783.846-4.227 2.871-5.431 4.5-2.322 3.141-4.757 4.04-3.736 1.378 1.143-2.98-1.84-.842-4.663 3.341-1.523 2.257-4.416 5.121-6.427 6.364-2.012 1.244-3.128 2.438-2.481 2.653 2.032.678 1.304 1.787-2.625 3.995-5.292 2.974-7.337 5.52-8.193 10.202-.67 3.664-.545 4.031 1.379 4.051 2.025.022 2.009.105-.384 1.956-2.18 1.686-2.339 2.195-1.242 3.978.745 1.209.847 2.044.25 2.044-.554 0-1.008.675-1.008 1.5s-.45 1.5-1 1.5c-1.033 0-1.404 3.263-.476 4.19.287.288 1.661.306 3.051.04 2.211-.422 2.448-.849 1.888-3.397-.391-1.783-.145-3.511.634-4.45 1.041-1.254 1.011-1.702-.161-2.444-.887-.561-.984-.914-.253-.924 2.009-.026 2.754-4.191.931-5.211C28.726 73.307 28 72.158 28 71.25c0-1.264.275-1.375 1.176-.474s1.598.48 2.985-1.8C33.156 67.339 34.482 66 35.108 66c.805 0 .776.434-.099 1.489-.784.945-.995 2.773-.577 5 .412 2.196.267 3.511-.387 3.511C33.47 76 33 77.35 33 79s-.402 3-.893 3c-1.237 0-2.157 2.705-1.502 4.414.467 1.216 1.138 1.211 4.791-.033 3.832-1.306 4.208-1.722 3.837-4.25-.323-2.197.274-3.38 2.762-5.474 4.239-3.566 5.646-2.452 1.783 1.412-3.727 3.727-2.713 5.417 2.264 3.771 1.902-.629 3.964-1.264 4.583-1.412 1.687-.404 3.205-11.845 3.705-27.932.264-8.51.886-10.496 3.286-10.496 1.312 0 1.305.275-.059 2.223-2.1 2.997-1.959 4.039.443 3.277 2.367-.751 2.563.374.532 3.059-2.142 2.832-1.893 4.348.608 3.694 2.056-.537 2.036-.406-.5 3.326-2.934 4.318-3.441 6.942-1.172 6.072 2.562-.983 2.562.972.001 3.378Q53.244 70.999 56.5 71c2.143 0 1.853 1.741-.5 3-2.284 1.222-2.682 4.801-.622 5.592 1.141.438 11.198-2.153 12.515-3.224.215-.176-.149-.972-.811-1.769-.715-.862-1.3-5.442-1.443-11.298-.132-5.416-.609-10.443-1.058-11.17-.586-.948-.288-1.222 1.051-.967 1.059.202 2.013 1.373 2.202 2.704.292 2.055.729 2.274 3.5 1.748l3.166-.601-2.485 1.924c-2.638 2.043-2.625 2.146.485 3.883 1.809 1.011 1.698 1.12-1.167 1.148-1.741.016-3.332.527-3.534 1.133-.589 1.766.6 9.227 1.79 11.235.986 1.664 1.508 1.72 5.5.586 5.13-1.456 6.912-3.205 6.168-6.051-.405-1.546-1.04-1.872-2.645-1.36-1.161.371-3.462.887-5.112 1.148-2.889.457-2.852.387 1-1.897 3.116-1.847 3.949-2.912 3.77-4.818C77.447 53.171 77.439 48 78.25 48c.515 0 1.169.886 1.452 1.969.481 1.838.709 1.87 3.407.475 3.9-2.017 3.611-.46-.398 2.137-1.766 1.144-3.054 2.719-2.863 3.5.191.78.556 2.534.811 3.896.709 3.796 1.3 3.804 4.439.061C86.852 57.945 88 57.179 88 58.101c0 .839-1.354 2.822-3.009 4.408l-3.01 2.883 2.76 1.223c1.774.786 2.156 1.252 1.068 1.304-1.749.084-3.383 1.84-2.517 2.706.27.271 2.115-.186 4.1-1.015 4.443-1.857 4.842-.644.431 1.308-2.856 1.264-2.977 1.481-1.197 2.14 2.813 1.04 11.961-1.5 11.543-3.206-.182-.744-.969-1.712-1.75-2.152-.78-.44-1.419-1.677-1.419-2.75 0-2.221-1.048-2.502-2.8-.75-.782.782-1.2.824-1.2.122 0-.592.697-1.655 1.548-2.362 2.438-2.023 1.447-5.516-1.473-5.191-2.292.254-2.331.171-.747-1.579 1.833-2.026 2.211-4.19.731-4.19-.518 0-1.219.45-1.559 1s-1.111 1-1.714 1-.297-.883.68-1.963c.977-1.079 1.511-2.654 1.187-3.5-.325-.845-.267-1.533.128-1.529.906.01 3.219 4.913 3.219 6.822 0 1.092.891 1.293 3.75.847 3.449-.539 3.594-.469 1.809.869-1.068.8-2.291 1.454-2.719 1.454s-.509.699-.181 1.554c.513 1.337.903 1.267 2.783-.5 1.203-1.13 2.755-2.054 3.449-2.054s-.178 1.212-1.938 2.693c-2.901 2.441-3.026 2.764-1.327 3.442 1.728.69 1.695.802-.417 1.434-3.192.955-2.214 2.811 1.87 3.549 2.183.395 2.607.666 1.171.75-2.384.14-2.724.837-1.414 2.902.607.956 2.982 1.102 9.629.591 7.712-.593 8.591-.847 6.987-2.02-1.009-.737-2.622-1.341-3.584-1.341s-2.047-.48-2.409-1.067c-.396-.64.08-.94 1.191-.75 1.373.235 1.932-.392 2.166-2.433.276-2.399-.028-2.75-2.382-2.75-1.484 0-4.213.937-6.066 2.081-2.534 1.567-3.225 1.709-2.791.578.318-.828 2.099-2.226 3.959-3.109 3.364-1.597 3.921-4.55.857-4.55-.766 0-1.393-.83-1.393-1.845 0-2.374-4.103-6.195-4.729-4.405-.634 1.811-2.271 1.535-2.271-.382 0-.898-.972-3.26-2.16-5.25s-1.548-3.055-.8-2.368c1.82 1.673 4.96 1.592 4.96-.128 0-3.487-7.701-5.644-15.797-4.424m-3.989 5.516c-4.563 2.959-4.439 4.482.286 3.525 2.982-.604 2.985-.612.5-1.243-2.43-.616-2.388-.694 1.5-2.771 2.2-1.175 3.528-2.156 2.95-2.181s-2.933 1.177-5.236 2.67M101 44.945c0 .58 1.463 1.062 3.25 1.07s2.756.346 2.152.75c-.763.511-.572 1.595.626 3.552l1.725 2.817.474-2.817c.261-1.549.654-3.492.874-4.317.306-1.151-.708-1.571-4.351-1.805-2.857-.183-4.75.116-4.75.75M43.933 54.58c-1.019 1.228-1.06 2.245-.185 4.564 1.048 2.777.854 3.264-2.811 7.04-4.433 4.568-4.992 5.669-1.714 3.373q4.029-2.823 3.702-.307c-.317 2.443.086 4.072.825 3.333.413-.412.757-1.05.765-1.416.038-1.626 1.762-3.167 3.544-3.167C49.127 68 50 67.55 50 67s-.9-1-2-1c-2.845 0-2.476-1.588.961-4.129 3.2-2.366 3.168-4.545-.042-2.827-2.782 1.488-4.219.205-3.545-3.165.658-3.29.403-3.52-1.441-1.299m77.626 1.952c-1.068.807-2.996 1.468-4.285 1.468-2.043 0-2.205.26-1.262 2.023.996 1.86 1.259 1.901 3.258.5 4.067-2.848 4.716-1.537.965 1.95l-3.735 3.473 3.5.127c3.19.115 3.279.194 1 .889-3.458 1.055-1.219 1.747 7.754 2.397 7.212.522 7.248.512 6.122-1.667-2.051-3.968-4.141-5.743-6.049-5.137-1.884.598-2.172.174-3.263-4.805-.683-3.117-1.262-3.293-4.005-1.218M109 71.949c-1.375.468-4.75.903-7.5.965-5.889.133-9.5.971-9.5 2.203 0 .485 1.35.883 3 .883s3 .45 3 1c0 1.314-7.588 1.291-10.057-.03-1.414-.757-2.71-.625-4.884.5-3.55 1.835-4.901 1.972-3.259.33 3.336-3.336-2.097-2.592-8.453 1.158-4.138 2.441-6.129 2.69-4.347.542 1.647-1.985.457-1.893-6.5.5-3.197 1.1-7.139 2-8.759 2s-5.038 1.085-7.594 2.411-5.885 2.891-7.397 3.478c-3.517 1.366-3.517 2.857 0 3.414 1.513.239-.04.427-3.449.418q-6.2-.017-8.75 1.654c-3.304 2.164-3.258 3.483.098 2.841 1.778-.34 2.424-.143 1.965.6-.376.609-2.356 1.383-4.399 1.721s-4.844 1.04-6.223 1.56C12.576 101.385 6 107.54 6 109.449c0 2.111.58 1.973 4.594-1.088 1.903-1.452 3.748-2.352 4.1-2s.452.767.223.924c-4.784 3.27-10.044 8.374-10.499 10.186C3.734 120.196 5.472 124 7.4 124c.732 0 2.474.9 3.873 2 2.541 1.998 7.248 2.622 9.33 1.235.606-.404 1.909-3.21 2.895-6.235s2.021-6.115 2.299-6.866c.409-1.103.091-1.145-1.645-.215-2.899 1.551-2.724-.033.319-2.892 2.287-2.148 18.005-8.227 38.569-14.916 4.697-1.528 11.449-4.405 15.005-6.394 6.538-3.656 15.967-6.164 14.549-3.869-.392.633-1.576 1.152-2.633 1.152-2.183 0-10.25 3.044-9.652 3.643 1.221 1.22 14.96-1.886 18.268-4.13 4.602-3.124 8.154-3.471 4.423-.433l-2.5 2.035 3-.52c11.319-1.961 15.5-2.966 15.5-3.725 0-.479-.873-.87-1.941-.87s-2.177-.382-2.466-.85 1.667-.804 4.346-.75c3.77.077 4.639.382 3.843 1.35-.765.931-.478 1.25 1.124 1.25 1.183 0 4.931 1.403 8.329 3.119 5.401 2.726 6.875 3.048 11.721 2.56 4.99-.503 5.35-.415 3.603.881-1.068.792-2.818 1.44-3.889 1.44-1.5 0-.824 1.047 2.941 4.556l4.889 4.556 2.214-2.569c1.217-1.413 1.961-3.225 1.654-4.027-.308-.801.384-2.656 1.536-4.121S159 86.952 159 86c0-2.628-3.541-6.573-7.216-8.039-1.806-.721-4.553-2.185-6.105-3.254-1.551-1.069-4.701-2.094-7-2.278-2.298-.184-6.831-.641-10.072-1.017-4.69-.544-5.73-.419-5.093.61.607.983.222 1.12-1.608.572-4.096-1.228-10.288-1.538-12.906-.645m8.755 3.286c-.188.564-3.922 1.341-8.298 1.727-7.76.684-15.457 3.291-15.457 5.234 0 .532 1.517.03 3.37-1.116 1.854-1.145 5.529-2.379 8.168-2.74 4.292-.588 4.727-.474 4.129 1.085-.367.958-.331 1.568.082 1.356 5.452-2.806 9.044-3.872 11.432-3.395 3.71.742 3.621-.645-.133-2.062-1.981-.748-3.064-.777-3.293-.089m13.344 2.319c-1.871.812-3.147 1.731-2.836 2.042s1.552.038 2.757-.607c2.427-1.299 10.59-1.712 11.709-.593.392.392.051 1.131-.758 1.643-1.054.667-.36.935 2.45.946 2.297.009 4.74.74 5.896 1.765 1.491 1.321 1.861 1.391 1.509.288-.743-2.326-9.964-6.973-13.826-6.966-1.925.003-5.031.671-6.901 1.482M80.37 81.44c-1.721.75-3.435 1.857-3.809 2.461-.402.65-3.945 1.099-8.679 1.099-5.079 0-7.774-.365-7.382-1 .819-1.326.391-1.27-3.846.5-1.974.825-4.954 1.5-6.622 1.5S47 86.509 47 87.132c0 .745 1.382.946 4.049.588 3.408-.457 3.863-.319 2.877.869-.644.776-2.578 1.413-4.298 1.415-3.086.003-10.349 3.609-9.328 4.63.29.289 1.578-.138 2.863-.95C47.133 91.177 50 90.652 50 92.433c0 2.281 1.013 1.947 4.58-1.511 3.385-3.28 8.275-4.859 15.17-4.898 3.113-.018 4.25.375 4.25 1.469 0 1.034 1.41.417 4.577-2 2.517-1.921 5.217-3.493 6-3.493.782 0 1.423-.45 1.423-1 0-1.346-1.859-1.201-5.63.44M135 83.106c0 1.69 4.929 4.024 7.839 3.713 2.771-.297 2.601-.468-2.429-2.439-2.976-1.167-5.41-1.74-5.41-1.274m-23.5 5.544c-2.75.744-12.65 2.722-22 4.397-12.245 2.193-22.009 4.729-34.907 9.065-25.133 8.449-24.622 8.156-26.772 15.388-5.355 18.007-7.208 36.125-4.591 44.884 1.639 5.487 8.06 11.79 13.77 13.518 2.475.748 9.497 1.639 15.604 1.98 11.017.613 11.134.646 15.125 4.253 9.547 8.628 22.967 13.479 34.812 12.583 12.71-.961 20.043-5.848 28.329-18.881 2.202-3.463 3.913-6.387 3.802-6.498s-4.47.445-9.687 1.236c-12.418 1.882-33.503 1.853-42.485-.059-20.287-4.318-37.5-19.893-37.5-33.932 0-4.078.487-5.271 3.297-8.081 6.633-6.633 15.016-7.07 28.823-1.503 6.941 2.798 11.492 4.021 15.151 4.07 3.844.052 4.699.298 3.229.93-4 1.719-10.217.925-20.625-2.632-13.071-4.468-18.22-4.223-23.565 1.122-4.009 4.009-4.21 7.036-.932 14.075 4.949 10.627 18.029 19.963 32.122 22.928 13.4 2.818 42.434 1.256 57.5-3.094 7.434-2.146 12.668-7.682 17.027-18.008 5.649-13.381 5.087-23.649-1.531-27.985-1.354-.888-4.832-2.192-7.729-2.899l-5.267-1.286 6.156-.11 6.157-.111-1.125-3.75c-1.194-3.981-10.15-13.7-14.865-16.13-2.409-1.242-2.948-1.167-5.385.75-1.489 1.172-3.885 2.069-5.323 1.994l-2.615-.136 2.5-.455c2.924-.533 6-3.03 6-4.871 0-2.199-4.255-4.402-8.5-4.402-4.362 0-8.5 2.218-8.5 4.557 0 .794-.45 1.443-1 1.443-1.276 0-1.26-.646.081-3.151.595-1.111.932-2.14.75-2.285s-2.581.343-5.331 1.086m-52 4.928c-2.2 1.314-4.788 2.397-5.75 2.406S52 96.45 52 97s.533 1 1.184 1c1.829 0 9.51-3.926 10.858-5.55 1.697-2.046.112-1.652-4.542 1.128m-32.982 7.404c-2.138 2.19-3.598 4.271-3.244 4.625s1.827-.762 3.274-2.481c1.446-1.719 3.265-3.126 4.041-3.126 1.626 0 1.887 1.588.411 2.5-1.484.917-1.211 2.5.433 2.5.788 0 1.71-.876 2.05-1.946.439-1.383 1.893-2.138 5.022-2.607 2.423-.363 5.213-1.324 6.2-2.135 1.699-1.397 1.688-1.435-.205-.716-3.527 1.338-11.5 1.685-11.5.501 0-2.199-2.684-1.005-6.482 2.885m45.041 1.1c-5.959 5.232-6.707 14.09-1.305 15.446 2.519.632 7.153-.759 8.206-2.463.456-.737-.142-.756-1.968-.062-3.981 1.514-5.433 1.22-6.597-1.335-1.624-3.563 1.127-9.234 5.488-11.313 3.263-1.556 3.662-1.556 6.055.012 2.183 1.43 2.562 1.459 2.562.191 0-.818-.87-1.953-1.934-2.523q-5.08-2.718-10.507 2.047m-52.901 5.571c-1.013 1.357-3.376 3.198-5.25 4.092-4.025 1.919-4.524 3.573-.797 2.638 2.583-.649 2.604-.609 1.954 3.731-.61 4.077-.547 4.249.889 2.445.85-1.068 1.546-3.655 1.546-5.75s.434-3.809.965-3.809c1.148 0 3.3-3.746 2.85-4.963-.173-.468-1.144.258-2.157 1.616m103.98 2.847c-.316.825-1.377 1.507-2.357 1.515-.979.009-2.456.467-3.281 1.019-1.298.869-1.239 1.203.441 2.485 3.905 2.98 16.559 1.066 16.559-2.504 0-3.529-10.113-5.768-11.362-2.515M90.5 118c-.472 1.488-1.513 2-4.067 2-4.214 0-4.414 1.441-.483 3.474 7.845 4.057 19.96-.889 14-5.715-3.066-2.483-8.631-2.341-9.45.241m42.748.826c-5.316 1.891-8.705 4.29-10.319 7.306-2.242 4.19 9.456 11.84 18.134 11.858 3.696.008 5.05-.512 7.128-2.74 5.402-5.793 6.2-10.521 2.5-14.823-3.078-3.578-10.079-4.221-17.443-1.601m4.952 1.374c-.66.66-1.2 1.769-1.2 2.465 0 3.248 9.684 4.625 12.095 1.72 1.149-1.384 1.008-1.883-.988-3.5-2.622-2.123-8.091-2.501-9.907-.685M99.5 130c-1.63.701-1.688.872-.309.93.93.038 1.969-.38 2.309-.93.711-1.15.676-1.15-2 0"/></svg>