<svg xmlns="http://www.w3.org/2000/svg" width="200" height="200" fill="#000000"><path fill-opacity=".388" fill-rule="evenodd" d="M87 1.579c-8.703 1.52-18.412 4.132-24.199 6.512C32.909 20.38 11.557 45.29 3.308 77.5c-1.366 5.333-1.786 10.809-1.764 23 .033 17.719 1.788 26.878 7.536 39.32 1.606 3.476 2.92 6.533 2.92 6.795s2.294 3.875 5.098 8.03c14.06 20.836 34.808 35.71 58.678 42.065 9.646 2.568 39.947 2.55 49.093-.03 9.888-2.789 23.846-9.157 31.229-14.248 8.691-5.992 20.717-18.139 26.767-27.036 5.083-7.475 10.997-20.581 13.869-30.737 2.526-8.93 2.511-39.362-.024-48.883-6.355-23.87-21.229-44.618-42.065-58.678C150.49 14.294 146.843 12 146.54 12c-.302 0-2.91-1.152-5.795-2.56-10.431-5.092-22.016-7.563-37.245-7.946-7.7-.194-15.125-.155-16.5.085"/><path fill-opacity=".09" fill-rule="evenodd" d="M88 1.622c-4.598.581-15.348 3.153-21 5.024-6.437 2.132-19.661 8.891-23.167 11.841C42.19 19.869 40.492 21 40.058 21 39.029 21 21 39.029 21 40.058c0 .434-1.131 2.132-2.513 3.775C13.208 50.107 6.975 64.395 3.364 78.5.88 88.205.836 111.62 3.282 121.773c4.809 19.957 13.447 35.254 28.111 49.775C42.662 182.709 60.496 192.732 76 196.62c10.376 2.601 38.452 2.633 48 .054 36.244-9.79 62.828-36.371 72.682-72.674 1.374-5.059 1.762-10.379 1.755-24-.008-15.093-.319-18.601-2.259-25.5C186.283 39.319 159.422 13.039 124 3.883 116.607 1.972 95.652.656 88 1.622m7.635 38.451c-3.861 3.036-3.685 8.583.374 11.79 3.846 3.038 4.171 7.738.627 9.085-4.712 1.792-5.066 8.671-.636 12.399C99.281 76.108 100.341 82 97.557 82 95.386 82 93 86.027 93 89.693c0 2.448.738 3.793 3 5.465 2.008 1.484 3 3.086 3 4.842s-.992 3.358-3 4.842c-2.262 1.672-3 3.017-3 5.465 0 3.666 2.386 7.693 4.557 7.693 2.784 0 1.724 5.892-1.557 8.653-4.531 3.813-3.848 10.715 1.25 12.628 2.937 1.102 2.235 6.111-1.241 8.856-5.209 4.115-3.639 12.187 2.614 13.438 7.535 1.507 11.72-9.059 5.377-13.575-2.165-1.542-3-2.952-3-5.068 0-1.613.432-2.932.961-2.932 2.06 0 5.039-4.493 5.039-7.6 0-2.353-.81-3.903-3-5.747-1.784-1.5-3-3.487-3-4.9 0-1.481 1.13-3.213 3-4.595 2.45-1.812 3-2.94 3-6.158s-.55-4.346-3-6.158c-2.008-1.484-3-3.086-3-4.842s.992-3.358 3-4.842c2.45-1.812 3-2.94 3-6.158s-.55-4.346-3-6.158c-1.87-1.382-3-3.114-3-4.595 0-1.413 1.216-3.4 3-4.9 2.254-1.897 3-3.373 3-5.936 0-3.301-2.773-7.411-5-7.411-.55 0-1-1.319-1-2.932 0-2.116.835-3.526 3-5.068 4.103-2.921 4.284-8.845.365-11.927C102.916 38.933 100.952 38 100 38s-2.916.933-4.365 2.073m17.246 9.934c-.89.52-2.163 2.26-2.829 3.867-.996 2.404-.932 3.457.358 5.952.863 1.668 2.473 3.319 3.579 3.671 2.794.886 2.871 7.045.097 7.77-1.053.276-2.664 1.949-3.579 3.72-2.778 5.372.673 11.013 6.739 11.013 2.686 0 6.285-2.945 7.227-5.916.814-2.562-2.086-8.17-4.559-8.817-2.958-.773-2.624-6.549.476-8.208 2.181-1.168 4.61-4.87 4.61-7.029 0-.482-1.165-2.261-2.589-3.953-2.67-3.174-6.294-3.961-9.53-2.07m16.342 11.55c-3.074 2.153-3.093 8.554-.034 11.404 4.633 4.317 11.811.808 11.811-5.775 0-6.095-6.606-9.252-11.777-5.629m-16.956 54.409c-1.161 1.082-2.394 2.859-2.74 3.95-.814 2.562 2.086 8.17 4.559 8.817 2.774.725 2.697 6.884-.097 7.77-1.106.352-2.716 2.003-3.579 3.671-2.704 5.229.881 10.826 6.935 10.826 2.382 0 7.655-4.909 7.655-7.126 0-2.181-3.109-6.774-4.989-7.371-2.794-.886-2.871-7.045-.097-7.77 1.053-.276 2.627-1.878 3.497-3.561 3.813-7.373-5.158-14.783-11.144-9.206m16.922 11.073c-3.059 2.85-3.04 9.251.034 11.404 3.151 2.208 7.346 1.936 9.738-.632 6.282-6.743-3.052-17.033-9.772-10.772"/><path fill-opacity=".352" fill-rule="evenodd" d="M89 1.621c-11.373 1.431-23.076 4.874-32.17 9.465-16.701 8.431-29.652 19.728-38.988 34.009C5.985 63.235 1.581 78.233 1.573 100.5c-.005 14.455 1.037 20.727 5.646 34 9.006 25.933 30.58 47.692 57.781 58.278 12.261 4.771 17.738 5.659 35 5.676 19.396.02 26.464-1.371 40.734-8.013 27.684-12.888 47.336-35.914 55.422-64.941 2.997-10.758 3.298-38.322.53-48.5-5.267-19.363-14.287-35.108-27.361-47.759C155.66 16.017 141.773 8.471 122 3.521c-6.433-1.61-26.242-2.751-33-1.9m-9.841 26.98c-4.867 3.409-4.632 9.549.495 12.908 3.235 2.12 3.187 6.703-.088 8.456-5.36 2.868-5.335 10.215.044 13.094 3.1 1.659 3.434 7.435.476 8.208-1.053.276-2.664 1.949-3.579 3.72-2.017 3.901-.77 7.999 3.059 10.048 3.535 1.892 3.132 5.441-1.066 9.4C76.503 96.319 75 98.708 75 100s1.503 3.681 3.5 5.565c4.198 3.959 4.601 7.508 1.066 9.4-3.829 2.049-5.076 6.147-3.059 10.048.915 1.771 2.526 3.444 3.579 3.72 2.774.725 2.697 6.884-.097 7.77-1.106.352-2.716 2.003-3.579 3.671-1.92 3.712-.594 7.854 3.156 9.861 3.275 1.753 3.323 6.336.088 8.456-5.488 3.596-5.262 10.194.459 13.401 3.484 1.953 8.244.074 9.892-3.904 1.523-3.678.59-6.428-3.064-9.03-3.601-2.564-4.137-7.444-.93-8.461 2.719-.863 5.306-6.097 4.534-9.172-.339-1.352-1.948-3.217-3.575-4.142-3.707-2.11-4.208-7.128-.867-8.696 1.157-.543 2.807-2.176 3.667-3.629 1.299-2.197 1.355-3.143.33-5.616-.677-1.636-2.327-3.561-3.666-4.277-3.535-1.892-3.132-5.441 1.066-9.4 1.997-1.884 3.5-4.273 3.5-5.565s-1.503-3.681-3.5-5.565c-4.198-3.959-4.601-7.508-1.066-9.4 1.339-.716 2.989-2.641 3.666-4.277 1.025-2.473.969-3.419-.33-5.616-.86-1.453-2.51-3.086-3.667-3.629-3.361-1.578-2.851-6.64.891-8.851 1.647-.972 3.259-2.821 3.582-4.107.741-2.953-1.91-8.209-4.565-9.052-3.207-1.017-2.671-5.897.93-8.461 1.617-1.152 3.233-3.015 3.591-4.142.92-2.901-1.225-7.439-4.147-8.77-3.306-1.507-4.515-1.428-7.226.471M61.734 39.994c-3.961 3.116-3.834 8.623.275 11.869C64.094 53.51 65 55.1 65 57.113 65 58.701 64.55 60 64 60c-2.227 0-5 4.11-5 7.411 0 2.563.746 4.039 3 5.936 1.65 1.388 3 3.497 3 4.687S63.65 81.459 62 83c-4.2 3.923-4.2 9.053 0 12.158 2.008 1.484 3 3.086 3 4.842s-.992 3.358-3 4.842c-4.2 3.105-4.2 8.235 0 12.158 3.803 3.552 3.803 6.454 0 9.653-2.19 1.844-3 3.394-3 5.747 0 3.107 2.979 7.6 5.039 7.6.529 0 .961 1.299.961 2.887 0 2.013-.906 3.603-2.991 5.25-4.109 3.246-4.236 8.753-.275 11.869 5.087 4.001 11.466.814 11.466-5.729 0-2.886-.661-4.208-3.109-6.221-3.929-3.23-3.982-6.285-.158-9.008 4.7-3.347 4.439-10.44-.481-13.074-3.535-1.891-3.28-5.985.548-8.816 2.45-1.812 3-2.94 3-6.158s-.55-4.346-3-6.158c-2.008-1.484-3-3.086-3-4.842s.992-3.358 3-4.842c2.45-1.812 3-2.94 3-6.158s-.55-4.346-3-6.158c-3.828-2.831-4.083-6.925-.548-8.816 4.92-2.634 5.181-9.727.481-13.074-3.824-2.723-3.771-5.778.158-9.008 7.904-6.498-.326-18.267-8.357-11.95m35.115-1.359c-2.267.65-4.657 5.92-4.072 8.98.265 1.384 1.773 3.471 3.352 4.639 3.743 2.767 3.72 6.005-.062 8.698-4.7 3.347-4.439 10.44.481 13.074 3.535 1.891 3.28 5.985-.548 8.816-2.45 1.812-3 2.94-3 6.158s.55 4.346 3 6.158c2.008 1.484 3 3.086 3 4.842s-.992 3.358-3 4.842c-2.45 1.812-3 2.94-3 6.158s.55 4.346 3 6.158c3.828 2.831 4.083 6.925.548 8.816-4.92 2.634-5.181 9.727-.481 13.074 3.824 2.723 3.771 5.778-.158 9.008-6.34 5.212-2.916 14.856 4.828 13.599 4.544-.737 6.263-2.811 6.263-7.554 0-3.331-.527-4.431-3-6.259-1.783-1.318-3-3.128-3-4.462 0-1.352 1.193-3.093 3-4.38 2.454-1.747 3-2.845 3-6.029 0-3.659-2.807-7.971-5.189-7.971-.446 0-.811-1.265-.811-2.812 0-1.965.904-3.48 3-5.03 2.45-1.812 3-2.94 3-6.158s-.55-4.346-3-6.158c-2.008-1.484-3-3.086-3-4.842s.992-3.358 3-4.842c2.45-1.812 3-2.94 3-6.158s-.55-4.346-3-6.158c-2.096-1.55-3-3.065-3-5.03 0-1.547.365-2.812.811-2.812 2.382 0 5.189-4.312 5.189-7.971 0-3.184-.546-4.282-3-6.029-1.807-1.287-3-3.028-3-4.38 0-1.334 1.217-3.144 3-4.462 2.473-1.828 3-2.928 3-6.259 0-2.223-.649-4.691-1.442-5.484-1.59-1.589-6.134-2.518-8.709-1.78m15.176 12.34c-4.188 4.188-3.143 10.901 1.948 12.517 2.797.887 2.899 7.047.129 7.771-2.867.75-5.435 5.274-4.687 8.255 2.033 8.099 12.542 8.493 15.058.566.814-2.562-2.086-8.17-4.559-8.817-2.985-.78-2.62-6.551.52-8.232 3.728-1.995 5.075-6.149 3.182-9.811-2.424-4.688-8.058-5.782-11.591-2.249m16.886 10.896c-1.673 1.354-2.311 2.909-2.311 5.629 0 6.637 7.398 9.945 12.211 5.461 3.059-2.85 3.04-9.251-.034-11.404-2.988-2.093-7.053-1.964-9.866.314m-16.886 54.104c-2.952 2.952-3.532 6.602-1.533 9.653.941 1.437 2.566 2.836 3.61 3.109 1.357.355 1.896 1.39 1.892 3.63-.005 2.422-.678 3.515-2.964 4.816-3.735 2.125-4.68 5.659-2.593 9.695 2.834 5.48 10.308 5.45 13.153-.053 1.479-2.86 1.486-3.442.076-6.4-.854-1.79-2.478-3.548-3.609-3.907-2.836-.9-2.949-7.052-.143-7.785 2.473-.647 5.373-6.255 4.559-8.817-1.738-5.476-8.706-7.683-12.448-3.941m16.886 10.896c-5.159 4.178-1.718 13.129 5.047 13.129 4.101 0 7.042-3.061 7.042-7.328 0-6.638-6.942-9.969-12.089-5.801"/><path fill-opacity=".957" fill-rule="evenodd" d="M89 1.944C54.39 6.117 24.838 27.432 10.399 58.636 4.48 71.427 1.754 84.208 1.682 99.5c-.098 20.895 4.582 37.091 15.877 54.952C21.969 161.425 38.087 179 40.071 179c.427 0 2.048 1.051 3.602 2.336 6.861 5.671 21.765 12.301 34.591 15.388 10.198 2.454 34.562 2.434 44.236-.037 37.856-9.668 64.559-36.373 74.181-74.187 2.485-9.767 2.518-34.123.06-44.236-3.133-12.892-9.75-27.75-15.405-34.591-1.285-1.554-2.337-3.129-2.339-3.5-.003-.814-11.399-12.674-15.539-16.173-10.352-8.749-28.563-17.571-41.958-20.327C111.65 1.646 97.647.901 89 1.944M78.201 29.028c-4.327 4.03-3.774 9.24 1.334 12.587 3.258 2.134 3.371 6.651.204 8.094-3.049 1.389-5.143 5.547-4.361 8.661.348 1.388 1.981 3.32 3.628 4.292 3.886 2.296 4.095 6.387.448 8.776-5.458 3.576-5.4 10.647.112 13.597 3.535 1.892 3.132 5.441-1.066 9.4C76.503 96.319 75 98.708 75 100s1.503 3.681 3.5 5.565c4.198 3.959 4.601 7.508 1.066 9.4-5.512 2.95-5.57 10.021-.112 13.597 3.625 2.375 3.425 6.431-.424 8.621-5.268 2.997-4.858 10.571.709 13.108 2.952 1.345 3.116 6.181.261 7.709-5.314 2.844-6.156 8.914-1.799 12.972 3.009 2.804 6.988 2.566 10.163-.608 3.64-3.641 3.381-6.926-.864-10.929-4.391-4.141-4.566-7.321-.53-9.618 5.333-3.034 4.898-10.801-.745-13.304-3.324-1.475-2.808-5.098 1.275-8.948 2.183-2.059 3.5-4.24 3.5-5.797 0-2.359-4.273-7.768-6.136-7.768-2.293 0-.615-5.369 2.636-8.435 1.997-1.884 3.5-4.273 3.5-5.565s-1.503-3.681-3.5-5.565C84.249 91.369 82.571 86 84.864 86 86.727 86 91 80.591 91 78.232c0-1.557-1.317-3.738-3.5-5.797-4.083-3.85-4.599-7.473-1.275-8.948 5.643-2.503 6.078-10.27.745-13.304-4.036-2.297-3.861-5.477.53-9.618 4.245-4.003 4.504-7.288.864-10.929-3.175-3.174-7.154-3.412-10.163-.608M61.153 39.867C59.602 41.212 59 42.882 59 45.837c0 3.399.515 4.484 3 6.321 1.783 1.318 3 3.128 3 4.462 0 1.352-1.193 3.093-3 4.38-2.462 1.753-3 2.841-3 6.068C59 70.884 61.595 75 64 75c.55 0 1 1.265 1 2.812 0 1.965-.904 3.48-3 5.03-2.45 1.812-3 2.94-3 6.158s.55 4.346 3 6.158c2.008 1.484 3 3.086 3 4.842s-.992 3.358-3 4.842c-2.45 1.812-3 2.94-3 6.158s.55 4.346 3 6.158c2.096 1.55 3 3.065 3 5.03 0 1.547-.45 2.812-1 2.812-2.405 0-5 4.116-5 7.932 0 3.227.538 4.315 3 6.068 3.899 2.776 3.899 5.96 0 8.842-2.485 1.837-3 2.922-3 6.321 0 9.823 12.753 10.761 14.624 1.075.55-2.844.166-3.699-2.997-6.683-4.472-4.217-4.565-6.299-.436-9.692 2.576-2.118 3.209-3.38 3.209-6.402 0-3.011-.64-4.298-3.2-6.435-3.83-3.197-4.093-6.211-.735-8.411 5.491-3.598 5.726-10.431.452-13.158-4.111-2.126-4.111-6.788 0-8.914 5.274-2.727 5.039-9.56-.452-13.158-3.358-2.2-3.095-5.214.735-8.411 2.56-2.137 3.2-3.424 3.2-6.435 0-3.022-.633-4.284-3.209-6.402-4.129-3.393-4.036-5.475.436-9.692 3.163-2.984 3.547-3.839 2.997-6.683-1.193-6.177-7.94-8.825-12.471-4.895m33.758.004c-3.63 2.94-3.209 8.682.889 12.103 4.055 3.386 4.058 5.836.009 9.163-2.518 2.07-3.209 3.405-3.209 6.201 0 3.684 2.625 7.662 5.055 7.662 2.494 0 1.588 5.611-1.201 7.438-5.457 3.576-5.395 10.901.114 13.411 3.424 1.56 3.424 6.742 0 8.302-5.339 2.432-5.402 9.946-.113 13.412 2.788 1.826 3.693 7.437 1.2 7.437-2.43 0-5.055 3.978-5.055 7.662 0 2.796.691 4.131 3.209 6.201 4.049 3.327 4.046 5.777-.009 9.163C89.791 153.043 92.483 162 100 162s10.209-8.957 4.2-13.974c-4.055-3.386-4.058-5.836-.009-9.163 2.518-2.07 3.209-3.405 3.209-6.201 0-3.684-2.625-7.662-5.055-7.662-2.493 0-1.588-5.611 1.2-7.437 5.289-3.466 5.226-10.98-.113-13.412-3.424-1.56-3.424-6.742 0-8.302 5.509-2.51 5.571-9.835.114-13.411-2.789-1.827-3.695-7.438-1.201-7.438 2.43 0 5.055-3.978 5.055-7.662 0-2.796-.691-4.131-3.209-6.201-4.049-3.327-4.046-5.777.009-9.163C110.209 46.957 107.517 38 100 38c-1.528 0-3.818.842-5.089 1.871m16.544 11.584c-1.35 1.35-2.455 3.539-2.455 4.865 0 2.83 3.519 7.68 5.573 7.68 2.794 0 1.564 5.005-2.073 8.435-4.184 3.946-4.496 7.198-1.048 10.919 4.31 4.65 11.54 2.511 13.146-3.889.704-2.803-1.46-6.785-4.598-8.465-2.116-1.132-2.916-7-.955-7S125 59.098 125 56.691c0-1.319-1.104-3.59-2.452-5.045-3.202-3.455-7.751-3.534-11.093-.191m17.212 10.361C123.951 67.027 126.918 75 133.573 75c4.704 0 7.427-2.912 7.427-7.943 0-2.942-.565-4.339-2.223-5.5-3.002-2.103-8.091-1.973-10.11.259m-17.215 54.83c-3.448 3.721-3.136 6.973 1.048 10.919 3.637 3.43 4.867 8.435 2.073 8.435-2.054 0-5.573 4.85-5.573 7.68 0 3.443 4.238 7.32 8.002 7.32 3.713 0 7.998-4.121 7.998-7.691 0-2.407-3.994-7.309-5.955-7.309-.575 0-1.045-1.298-1.045-2.885 0-1.963.788-3.401 2.465-4.5 5.108-3.347 5.661-8.557 1.334-12.587-3.066-2.857-7.365-2.6-10.347.618m16.542 11.088c-3.852 4.898-.585 12.266 5.438 12.266 4.955 0 7.568-2.437 7.568-7.057 0-5.031-2.723-7.943-7.427-7.943-2.544 0-3.983.705-5.579 2.734"/></svg>