<svg xmlns="http://www.w3.org/2000/svg" width="200" height="200" fill="#000000"><path fill-opacity=".02" fill-rule="evenodd" d="M78 1.157c0 .529-.419.702-.931.386-.512-.317-1.182-.169-1.489.327-.307.497-2.25 1.22-4.319 1.606s-4.397 1.225-5.174 1.863c-1.08.888-1.511.867-1.833-.089C63.576 3.237 61 3.815 61 5.981c0 2.153-3.989 3.762-6.098 2.459-.689-.426-.952-.33-.611.222.951 1.538-5.005 4.563-7.454 3.786-1.563-.496-2.01-.311-1.66.687.619 1.765-2.845 5.248-3.536 3.553-.341-.839-.506-.803-.562.121-.043.72-.524 1.034-1.068.698-.566-.35-.734.051-.393.941.328.854.115 1.552-.472 1.552s-1.951.948-3.03 2.106c-1.08 1.159-2.442 1.81-3.028 1.448-.682-.421-.822-.01-.389 1.144.599 1.599.481 1.644-1.054.394-1.42-1.155-1.946-1.174-2.937-.102-.965 1.042-.866 1.184.491.708 2.46-.863 1.213 1.802-1.753 3.745-2.211 1.449-2.346 1.435-1.84-.19.517-1.664.488-1.664-.585.005-.621.967-.873 2.173-.559 2.681.314.507-.562 2.145-1.946 3.638S20 38.608 20 38.993c0 .386-1.012 1.19-2.25 1.787-1.238.596-1.722 1.115-1.076 1.152.656.038.221 1.139-.986 2.494-1.522 1.708-2.394 2.078-2.946 1.25-.433-.649-.581.055-.331 1.57.266 1.602-.142 3.342-.978 4.178-.788.788-1.433 1.942-1.433 2.564 0 .621-.41.876-.912.566s-.785.226-.63 1.191-.205 2.655-.8 3.755-.987 2.337-.87 2.75-.576.786-1.538.829-1.216.296-.563.562c.862.351.606 2.097-.93 6.369C2.49 73.531 1.209 75.638.57 75.256c-.589-.352-.452.121.302 1.052.755.931.916 1.692.358 1.692C.575 78 .211 85.794.204 99.999c-.007 12.851.365 21.768.892 21.441.497-.307.904-.081.904.501s-.562 1.066-1.25 1.074c-.776.01-.87.294-.248.75 1.333.979 3.44 5.204 3.949 7.92.225 1.202.906 3.114 1.514 4.25S6.819 138 6.512 138s.166 1.105 1.051 2.456 1.276 2.995.869 3.655c-.469.758-.317.936.413.484.669-.412 1.155-.108 1.155.724 0 .79.686 2.005 1.524 2.701s1.316 1.474 1.06 1.729c-.255.255-.035.979.488 1.608 5.82 6.992 7.414 9.708 7.022 11.967-.079.454.318.54.881.191.564-.348 1.081-.156 1.15.426s.181 1.471.25 1.976.535 1.291 1.035 1.75c.529.484.609.309.191-.417-.918-1.596 1.032-1.653 2.017-.059.405.655.206 1.368-.441 1.583-1.662.554-1.465 1.893.279 1.893.801 0 1.224-.375.941-.834-1.346-2.178 1.142-.423 4.489 3.167 2.052 2.2 4.267 4 4.922 4 .656 0 1.192.702 1.192 1.559s.36 1.337.8 1.065c.439-.272 2.647.939 4.906 2.691s5.504 3.955 7.213 4.896 3.048 2.066 2.976 2.5c-.315 1.889.194 2.462 1.355 1.527.841-.678 2.069-.669 3.75.026 1.375.568 3.163 1.166 3.973 1.329.81.162 1.979.988 2.598 1.836.62.847 1.367 1.3 1.66 1.007s1.748-.228 3.234.145c2.009.504 2.575 1.156 2.211 2.548-.269 1.029-.081 1.871.418 1.871.498 0 .906-.675.906-1.5 0-.833.889-1.5 2-1.5 1.1 0 2 .338 2 .75.001 1.182 6.284 1.593 23 1.505 17.21-.091 22.993-.441 22.997-1.394.003-.629 6.081-2.155 9.003-2.26.825-.029 2.095-.627 2.821-1.327 1.693-1.632 4.175-1.646 4.194-.024.008.688.57.161 1.25-1.171.679-1.332 1.86-2.627 2.624-2.88.96-.317 1.133-.032.558.921-.689 1.145-.559 1.16.764.088 1.303-1.055 1.689-1.055 2.113 0 .285.711.554.31.597-.891.044-1.211.917-2.448 1.96-2.779 1.035-.329 2.893-1.475 4.129-2.547 1.237-1.072 2.64-1.707 3.119-1.411s.871.061.871-.521.563-.947 1.25-.809 1.137-.312 1-1c-.138-.687.387-1.25 1.167-1.25.779 0 1.679-.563 2-1.25.466-1 .7-1 1.166 0 .321.687 1.012 1.25 1.536 1.25.562 0 .514-.817-.119-2-.589-1.1-.717-2.044-.285-2.099.432-.054 1.899-.166 3.262-.25 1.927-.117 2.481-.705 2.5-2.651.017-1.889.538-2.484 2.131-2.436 1.316.04 2.067-.524 2-1.5-.061-.882.621-1.509 1.563-1.438 1.03.077 1.469-.4 1.145-1.245-.289-.753-.998-1.078-1.575-.721-.628.388-.751.166-.306-.554.544-.88 1.098-.909 2.065-.106.914.759 1.522.774 1.97.049.356-.577.171-1.049-.411-1.049-1.959 0-1.082-1.911 2.542-5.535 2.113-2.112 4.201-3.371 5.052-3.045.861.331 1.185.128.798-.5-.359-.581-1.305-.806-2.101-.501-.95.365-.567-.904 1.111-3.681 1.408-2.331 3.117-4.088 3.799-3.905s.906 0 .499-.408c-.408-.407-.183-1.431.5-2.275 1.013-1.252.988-1.381-.139-.703-.774.467-1.184.441-.935-.058.245-.489 1.022-2.352 1.728-4.139.705-1.788 1.715-3.25 2.244-3.25.528 0 .64.52.248 1.155-.453.731-.274.882.489.41.902-.557.919-1.085.068-2.11-.644-.776-.779-1.927-.313-2.661.451-.712.862-1.519.913-1.794.95-5.114 1.793-8 2.339-8 .373 0 .686-1.013.696-2.25.011-1.237.15-4.05.311-6.25.26-3.575.376-3.734 1.092-1.5.465 1.453.787-4.622.769-14.5-.019-9.869-.341-15.532-.769-13.5l-.737 3.5-.298-3.75a238 238 0 0 1-.382-5.5c-.046-.963-.533-2.087-1.083-2.5-.627-.47-.441-1.117.5-1.735 1.092-.717 1.144-.989.191-1-.72-.008-1.031-.465-.691-1.015s.238-1-.226-1c-.913 0-5.829-12.402-5.378-13.568.151-.389-.26-1.039-.914-1.443-.917-.567-.914-1.248.015-2.983.661-1.236.781-1.987.266-1.668-1.222.755-5.458-2.213-4.763-3.337.293-.475.075-1.145-.484-1.491-1.394-.862-1.276-2.274.234-2.791.688-.235.326-.282-.802-.104-1.376.217-2.591-.573-3.683-2.396-1.845-3.077-4.227-6.234-7.515-9.961-2.53-2.867-2.975-4.105-.839-2.332 1.029.854 1.597.869 2.1.056.379-.613.419-1.385.089-1.715s-.6-.02-.6.689c0 1.018-.347 1.001-1.654-.084-.909-.754-1.809-1.259-2-1.122-1.079.779-2.449-.086-4.341-2.743-1.309-1.838-1.625-2.866-.818-2.664.722.181.973.14.557-.092s-.442-.946-.058-1.586-.062-.548-.992.205c-1.463 1.188-2.124 1.044-4.942-1.073-1.788-1.344-4.039-2.734-5.002-3.089s-1.757-1.672-1.765-2.927c-.011-1.528-.28-1.865-.816-1.02-.603.95-2.817.248-8.985-2.849C139.683 7.652 136 5.574 136 5.294c0-.279.787-.208 1.75.158 1.403.534 1.502.417.5-.593-.861-.867-1.572-.937-2.285-.224-1.261 1.261-10.763-1.708-12.071-3.772-.707-1.116-.869-1.091-.894.137-.021 1.013-.269 1.129-.765.357C121.299-.098 78-.294 78 1.157m-13.187.526c.721.289 1.584.253 1.916-.079s-.258-.568-1.312-.525c-1.165.048-1.402.285-.604.604m82.266 7.9c.048 1.165.285 1.402.604.605.289-.722.253-1.585-.079-1.917s-.568.258-.525 1.312M168 24.59c0 .091.761.783 1.692 1.538.931.754 1.378.848.994.207-.384-.64-.133-1.382.558-1.648s.244-.433-.994-.372-2.25.185-2.25.275M20 32.378c0 .207.788.995 1.75 1.75 1.586 1.243 1.621 1.208.378-.378C20.821 32.084 20 31.555 20 32.378M178.275 34c-.083 1.1.176 2 .574 2 .399 0 .793-.9.876-2s-.176-2-.574-2c-.399 0-.793.9-.876 2M80.333 49.333a1.33 1.33 0 0 0 1.318 1.334c.984 0 1.038-.337.211-1.334C81.253 48.6 80.66 48 80.544 48s-.211.6-.211 1.333m-9.916 2.028c.434 1.336.206 1.708-.807 1.32-.777-.299-1.334-.008-1.238.645.255 1.74 3.628 6.328 3.628 4.936 0-.651-.615-1.758-1.367-2.46-1.145-1.069-1.148-1.441-.018-2.289.993-.746 1.064-1.408.272-2.513-.889-1.24-.971-1.177-.47.361m14.603 7.163c.696.838 1.471 1.318 1.723 1.067.693-.694-.716-2.591-1.924-2.591-.664 0-.588.574.201 1.524m-10.284 3.074c-.846.846.276 3.402 1.493 3.402.639 0 .602-.498-.098-1.342-.612-.738-.818-1.638-.456-2s.433-.658.158-.658-.769.269-1.097.598M194.5 63c.34.55.816 1 1.059 1s.441-.45.441-1-.477-1-1.059-1-.781.45-.441 1M1.079 65.583c.048 1.165.285 1.402.604.605.289-.722.253-1.585-.079-1.917s-.568.258-.525 1.312m115.844-1.5c-.042.23-.216 1.13-.387 2-.17.871.263 1.584.964 1.584s1.188-.587 1.083-1.305c-.188-1.281-1.51-3.096-1.66-2.279m-28.416 2.906c-.35.566.051.734.941.393 1.732-.665 2.049-1.382.611-1.382-.518 0-1.216.445-1.552.989m3.766 6.033c-.083 1.112.271 1.76.788 1.441 1.136-.703 1.258-3.463.152-3.463-.433 0-.856.91-.94 2.022M120.5 72c.34.55.816 1 1.059 1s.441-.45.441-1-.477-1-1.059-1-.781.45-.441 1m-38.767 1.124c.679.684 1.486.991 1.793.683.308-.308-.247-.867-1.233-1.243-1.425-.542-1.54-.428-.56.56m20.831 1.169c.376.986.935 1.541 1.243 1.233s.001-1.114-.683-1.793c-.988-.98-1.102-.865-.56.56m19.436.1c0 .216.698.661 1.552.989.89.341 1.291.173.941-.393-.587-.951-2.493-1.406-2.493-.596M152 75c-.901.582-1.025.975-.309.985.655.008 1.469-.435 1.809-.985.767-1.242.421-1.242-1.5 0m-94.128 2.75c-1.243 1.586-1.208 1.621.378.378C59.916 76.821 60.445 76 59.622 76c-.207 0-.995.787-1.75 1.75m6.398.319c-.173 2.297.298 2.499 1.079.463.31-.807.227-1.676-.185-1.931-.412-.254-.814.406-.894 1.468M84.5 77c2.749 1.181 4.328 1.181 2.5 0-.825-.533-2.175-.945-3-.914-.989.036-.819.347.5.914m35.5 0c-.901.582-1.025.975-.309.985.655.008 1.469-.435 1.809-.985.767-1.242.421-1.242-1.5 0m14.015 3.75c.009.412.452 1.425.985 2.25.784 1.213.972 1.069.985-.75.008-1.237-.435-2.25-.985-2.25s-.993.338-.985.75m-80.412 2.083c-.283.459.12.834.897.834s1.18-.375.897-.834S54.71 82 54.5 82s-.614.375-.897.833M.409 99.5c-.001 9.35.149 13.31.334 8.799.185-4.51.186-12.16.002-17C.562 86.46.41 90.15.409 99.5m68.463-13.75c-1.243 1.586-1.208 1.621.378.378C70.916 84.821 71.445 84 70.622 84c-.207 0-.995.787-1.75 1.75m31.681-.835a1.116 1.116 0 0 0 .362 1.532c.521.322 1.21.159 1.532-.362a1.116 1.116 0 0 0-.362-1.532 1.116 1.116 0 0 0-1.532.362m24.447.144c0 .582-.403.81-.895.506-.493-.305-1.116.022-1.387.726-.292.762.274 1.28 1.396 1.28 1.144 0 1.886-.702 1.886-1.785 0-.982-.225-1.786-.5-1.786s-.5.477-.5 1.059m-24.428 3.691c.497.412 1.241 1.2 1.651 1.75.426.571.753.249.762-.75.008-.973-.725-1.75-1.652-1.75-.916 0-1.259.338-.761.75m35.935.239c-.35.566.051.734.941.393 1.732-.665 2.049-1.382.611-1.382-.518 0-1.216.445-1.552.989M58 90.378c0 .207.788.995 1.75 1.75 1.586 1.243 1.621 1.208.378-.378C58.821 90.084 58 89.555 58 90.378M72.5 92c.34.55.816 1 1.059 1s.441-.45.441-1-.477-1-1.059-1-.781.45-.441 1m41.815.378c.291.758.001 1.974-.643 2.702-.967 1.091-.876 1.1.519.049 1.461-1.102 1.531-4.129.095-4.129-.275 0-.262.62.029 1.378m-23.648.289c-.367.366-.667 1.131-.667 1.7 0 .626.466.567 1.183-.15.651-.651.951-1.416.667-1.7s-.817-.217-1.183.15m35.762 1.219c0 1.146.515 1.689 1.311 1.384.999-.384 1.038-.833.163-1.887-1.458-1.757-1.474-1.751-1.474.503m-21.762-.219c-.367.366-.667 1.131-.667 1.7 0 .626.466.567 1.183-.15.651-.651.951-1.416.667-1.7s-.817-.217-1.183.15m19.412 1.916c.048 1.165.285 1.402.604.605.289-.722.253-1.585-.079-1.917s-.568.258-.525 1.312m-6.377 1.75c-.281.734.121 1.334.893 1.334.773 0 1.405-.6 1.405-1.334 0-.733-.402-1.333-.893-1.333s-1.123.6-1.405 1.333M66 99.059c0 .582.45.781 1 .441s1-.816 1-1.059S67.55 98 67 98s-1 .477-1 1.059M113.5 101c-.34.55-.141 1 .441 1s1.059-.45 1.059-1-.198-1-.441-1-.719.45-1.059 1M81 105c-1.09.704-1.142.974-.191.985.763.009 1.009.537.59 1.265-.396.688-.334.899.136.471.71-.646 1.655-3.756 1.127-3.706-.089.009-.837.452-1.662.985m27 .059c0 .582.45.781 1 .441s1-.816 1-1.059-.45-.441-1-.441-1 .477-1 1.059m2.565.836c-.305.493.096 1.145.89 1.449q1.444.555.887-.895c-.645-1.68-1.011-1.794-1.777-.554M68 106.393c0 .216.698.661 1.552.989.89.341 1.291.173.941-.393-.587-.951-2.493-1.406-2.493-.596m24 2.107c-1.292 1.375-1.82 2.5-1.174 2.5S92 110.523 92 109.941s.563-.735 1.25-.34c.688.396.916.351.509-.099s-.24-1.422.372-2.16c1.932-2.328.322-1.453-2.131 1.158m-16.298 1.167c.282.733.839 1.333 1.238 1.333.4 0 .727-.6.727-1.333 0-.734-.557-1.334-1.238-1.334s-1.008.6-.727 1.334m24.956-.218q-.557 1.45.887.895c.794-.304 1.195-.956.89-1.449-.766-1.24-1.132-1.126-1.777.554m6.421.134c.048 1.165.285 1.402.604.605.289-.722.253-1.585-.079-1.917s-.568.258-.525 1.312m-41.266 1.1c.721.289 1.584.253 1.916-.079s-.258-.568-1.312-.525c-1.165.048-1.402.285-.604.604M111 112.11c-1.309.941-1.298 1.015.083.58.893-.282 1.584.072 1.584.81 0 .72-.6 1.079-1.334.798-.733-.282-1.333.013-1.333.654s.419.907.931.591 1.218-.111 1.569.457c.944 1.527 2.374.265 1.987-1.754-.183-.96-.368-2.084-.41-2.496-.108-1.05-1.314-.909-3.077.36m-45.943 1.459c.644.775 1.599 1.144 2.123.82 1.164-.72.3-1.701-1.765-2.004-1.204-.177-1.28.073-.358 1.184m47.676 5.555c.679.684 1.486.991 1.793.683.308-.308-.247-.867-1.233-1.243-1.425-.542-1.54-.428-.56.56m-50.464.569c.973.254 2.323.237 3-.037s-.119-.481-1.769-.461-2.204.244-1.231.498m52.731 2.2c0 .491.739 1.176 1.641 1.523 1.373.527 1.435.38.378-.893-1.44-1.735-2.019-1.916-2.019-.63m-33 1.548c0 1.945 1.688 2.873 2.585 1.421q.729-1.177-.6-.352c-.962.594-1.15.362-.686-.846.351-.915.202-1.664-.33-1.664-.533 0-.969.648-.969 1.441m-3.814 2.614c-1.273.51-2.053 1.351-1.734 1.867.319.517.123 1.222-.436 1.568-.559.345-1.009 1.164-1.001 1.819q.014 1.196.875-.166c.609-.961 1.062-1.029 1.554-.233.382.617 1.142.846 1.69.507.599-.37.311-1.373-.724-2.516-1.528-1.689-1.542-1.901-.124-1.901.878 0 1.874-.45 2.214-1 .718-1.162.72-1.162-2.314.055m120.268-.129c.307.497.016 1.084-.647 1.305-.748.249-.541.657.545 1.074.964.37 1.501.266 1.194-.231s-.016-1.084.647-1.305c.748-.249.541-.657-.545-1.074-.964-.37-1.501-.266-1.194.231m-103.826 1.792c.965.705 2.231 1.289 2.813 1.297s.384.452-.441.985c-.901.582-1.025.975-.309.985 1.915.024 2.581-1.944.878-2.597-.857-.329-1.325-.973-1.042-1.432.284-.459-.422-.764-1.568-.678-1.945.147-1.967.243-.331 1.44m102.451 5.865c.048 1.165.285 1.402.604.605.289-.722.253-1.585-.079-1.917s-.568.258-.525 1.312m-124.266.1c.721.289 1.584.253 1.916-.079s-.258-.568-1.312-.525c-1.165.048-1.402.285-.604.604M72 136c-1.282.828-1.246.972.25.985.963.008 1.75-.435 1.75-.985 0-1.22-.113-1.22-2 0m27.57.887c-.301.487.122 1.442.941 2.122 1.034.858 1.489.893 1.489.113 0-.617-.477-1.122-1.059-1.122s-.781-.45-.441-1 .393-1 .118-1-.747.399-1.048.887m26.43 1.491c0 .207.685.946 1.523 1.641 1.273 1.057 1.42.995.893-.378-.538-1.401-2.416-2.384-2.416-1.263m-57.75 5.296c-2.43 1.695-2.961 3.326-1.083 3.326.641 0 .885-.281.542-.624s.369-1.453 1.584-2.467c2.689-2.245 2.046-2.39-1.043-.235m-51.917 14.782c0 .801.383 1.22.85.931s.591-.944.274-1.456c-.808-1.308-1.124-1.161-1.124.525m165.174.533c-.35.566.051.734.941.393 1.732-.665 2.049-1.382.611-1.382-.518 0-1.216.445-1.552.989M28.459 174.067c-.363.586-.389 1.336-.059 1.666s.6.049.6-.625.52-.905 1.155-.513c.715.443.883.275.44-.44-.884-1.431-1.296-1.448-2.136-.088m139.354.616c.721.289 1.584.253 1.916-.079s-.258-.568-1.312-.525c-1.165.048-1.402.285-.604.604m-135.34 3.361c-.325.526-.452.99-.282 1.033 2.494.617 3.809.597 3.809-.058 0-1.253-2.866-2.045-3.527-.975M64.5 198c-.34.55-.168 1 .382 1s1.278-.45 1.618-1 .168-1-.382-1-1.278.45-1.618 1m62.5.5c0 .825.436 1.5.969 1.5s.709-.675.393-1.5c-.317-.825-.753-1.5-.969-1.5s-.393.675-.393 1.5m5.5-.5c.34.55.816 1 1.059 1s.441-.45.441-1-.477-1-1.059-1-.781.45-.441 1"/><path fill-opacity=".172" fill-rule="evenodd" d="M81.5 1.413C67.106 4.195 50.334 11.644 39.293 20.16c-7.192 5.548-18.657 17.807-22.995 24.589C10.867 53.239 5.418 65.48 2.832 75 .843 82.326.531 85.78.576 100c.044 13.638.422 17.832 2.179 24.175 5.082 18.355 13.509 33.114 26.214 45.912 29.439 29.656 74.835 37.925 112.548 20.501 20.768-9.596 39.505-28.368 49.149-49.242 3.909-8.46 8.28-24.385 8.434-30.724.085-3.543.212-3.771.9-1.622.489 1.526.788-2.372.769-10-.021-7.933-.301-11.221-.769-9l-.737 3.5-.131-4.122c-.073-2.267-1.257-8.567-2.633-14-9.052-35.756-36.065-62.853-72.324-72.551C114.304.187 91.718-.561 81.5 1.413m-8.25 47.278c-3.042 1.531-5.242 3.308-5.232 4.225.011.871 4.43 7.999 9.822 15.841l9.804 14.256-4.969 5.462c-2.732 3.004-5.322 5.243-5.755 4.976s-3.122-4.294-5.976-8.948c-6.548-10.678-6.988-11.049-10.784-9.086C56.926 77.09 53 81.522 53 83.501c0 .678 3.69 5.395 8.201 10.483l8.201 9.25-1.886 3.133c-4.77 7.926-10.534 22.492-10.505 26.548.007.872 1.637-1.34 3.622-4.915 1.986-3.575 5.874-9.35 8.641-12.832l5.029-6.333 3.806 4.333c2.093 2.382 3.825 4.634 3.848 5.002.024.369-2.375 4.194-5.331 8.5-8.059 11.744-12.559 21.442-9.876 21.287.412-.024 2.453-2.665 4.536-5.869 4.37-6.727 14.581-18.311 15.758-17.881.44.161 4.724 4.793 9.521 10.293 4.796 5.5 9.106 10.15 9.578 10.333 2.036.792.45-2.74-5.485-12.211-9.779-15.607-9.502-13.664-2.712-18.999 3.237-2.543 6.297-4.623 6.8-4.623s6.046 7.387 12.316 16.416 11.765 16.191 12.21 15.916c.444-.275-3.453-8.756-8.66-18.848-10.871-21.066-11.091-18.2 1.903-24.735 8.549-4.299 20.996-8.303 28.846-9.279l5.861-.728-.426-5.886c-.234-3.237-.936-6.396-1.561-7.021-2.504-2.504-29.878 8.249-42.085 16.534-2.943 1.997-5.672 3.631-6.065 3.631-.777 0-4.085-6.482-4.085-8.005 0-1.066 15.889-8.987 18.073-9.01.785-.009 2.091-.436 2.903-.949 1.244-.787.931-1.957-2-7.476-1.912-3.599-3.873-6.547-4.358-6.552-.985-.009-5.072 2.339-14.398 8.271-3.454 2.197-6.566 3.709-6.915 3.359-.35-.349-3.88-6.824-7.844-14.387s-7.828-13.853-8.585-13.977-3.738.964-6.626 2.417M.385 100c0 6.875.16 9.688.355 6.25.196-3.437.196-9.062 0-12.5-.195-3.437-.355-.625-.355 6.25M87.5 97.127c-2.75 2.23-5.118 4.367-5.262 4.75-.144.382 1.125 2.881 2.821 5.555l3.082 4.86 5.656-5.396c3.111-2.968 5.828-5.482 6.037-5.587.727-.364-5.339-8.266-6.334-8.252-.55.008-3.25 1.839-6 4.07"/><path fill-opacity=".522" fill-rule="evenodd" d="M81.698 1.523C61.761 5.297 44.459 14.581 29.52 29.52 8.831 50.208-1.074 75.489.336 104c.753 15.217 3.545 26.119 10.114 39.5 27.767 56.558 99.555 73.612 149.752 35.575 21.118-16.003 36.277-42.771 38.533-68.045.526-5.896.819-6.879 1.35-4.53.374 1.651.664-1.945.646-8-.022-7.902-.228-9.733-.731-6.5l-.7 4.5-.15-4.685c-.547-17.082-9.379-39.178-21.928-54.862C164.829 21.463 143.272 7.696 124 2.962 112.687.183 92.417-.507 81.698 1.523M72.75 48.566c-2.872 1.495-4.754 3.157-4.759 4.203-.005.952 4.343 8.135 9.663 15.962l9.671 14.232-5.099 5.391-5.099 5.392-6.313-9.623c-5.443-8.295-6.657-9.584-8.797-9.344C58.95 75.125 53 80.724 53 83.265c0 1.03 3.6 5.888 8 10.795 4.4 4.908 8 9.097 8 9.31s-1.591 3.03-3.535 6.259c-3.346 5.555-7.41 16.66-8.92 24.371-.544 2.778.041 2.088 2.834-3.342 2.98-5.793 6.615-11.091 13.376-19.494 1.103-1.371 1.74-1.086 5.25 2.341C80.202 115.65 82 117.763 82 118.2s-2.074 3.608-4.609 7.047c-7.215 9.789-13.325 22.835-10.641 22.721.412-.017 2.648-2.83 4.969-6.25 2.32-3.42 6.67-8.918 9.667-12.218 4.887-5.381 5.587-5.83 6.782-4.347C93.377 131.614 105.535 145 106.194 145c1.858 0 .423-3.185-6.259-13.894-3.886-6.227-6.837-11.918-6.558-12.645.541-1.411 10.353-9.482 11.463-9.43.363.018 5.807 7.443 12.097 16.5C127.478 140.708 130 143.694 130 140.996c0-.553-4.05-8.803-9-18.333-4.95-9.531-9-17.76-9-18.286 0-1.164 11.453-7.305 19-10.187 6.992-2.67 15.177-4.855 21.25-5.673l4.75-.64-.014-4.688c-.007-2.579-.297-5.749-.644-7.044-.568-2.124-1.021-2.292-4.617-1.717-9.563 1.529-25.433 8.465-38.505 16.828-3.454 2.21-6.434 3.844-6.623 3.631-1.428-1.611-3.56-7.138-3.063-7.941.783-1.268 12.784-7.287 17.716-8.885 2.063-.669 3.75-1.687 3.75-2.262 0-1.62-6.359-12.799-7.28-12.799-1.315 0-6.708 2.941-14.001 7.635-3.73 2.401-6.88 4.363-7 4.36S93.125 68.475 89 60.512c-8.378-16.174-8.275-16.098-16.25-11.946M.374 99.5c.002 6.05.167 8.396.366 5.213.199-3.182.197-8.132-.004-11C.535 90.846.372 93.45.374 99.5m87.803-2.546c-2.751 2.175-5.238 4.336-5.527 4.803s.868 2.989 2.57 5.606l3.095 4.758 5.343-5.277c2.938-2.901 5.342-5.635 5.342-6.074 0-1.158-4.38-7.743-5.16-7.758-.363-.006-2.912 1.767-5.663 3.942"/><path fill-opacity=".393" fill-rule="evenodd" d="M85.539 1.042C44.807 7.457 13.415 36.166 2.879 76.635c-3.398 13.054-3.219 33.895.409 47.571 15.629 58.919 78.128 90.47 134.104 67.7 24.136-9.818 44.696-30.378 54.514-54.514 3.732-9.174 6.141-19.079 6.886-28.316.472-5.86.765-6.897 1.291-4.576.407 1.794.668-.617.648-6-.023-6.564-.198-7.782-.647-4.5-.575 4.209-.66 3.982-1.312-3.5-3.023-34.682-25.463-66.399-57.426-81.166-15.805-7.303-39.62-10.841-55.807-8.292m-12.72 47.489c-2.575 1.34-4.977 2.915-5.338 3.5-.361.584 3.936 7.834 9.55 16.111l10.206 15.049-4.831 4.905c-2.657 2.697-5.073 4.902-5.368 4.899-.296-.003-3.163-4.278-6.37-9.5C67.21 77.865 64.181 74 63.229 74c-2.396 0-7.813 4.025-9.688 7.199l-1.648 2.791 8.515 9.665 8.515 9.665-2.527 4.09c-3.65 5.907-6.235 12.034-8.451 20.031-2.83 10.211-2.369 10.956 1.855 3.001 3.979-7.493 9.744-15.814 12.996-18.757 1.908-1.727 2.073-1.656 5.555 2.412 1.974 2.306 3.293 4.69 2.932 5.298s-2.329 3.355-4.374 6.105c-3.989 5.366-10.284 16.57-11.376 20.25-1.149 3.872 1.953 2.628 4.987-2 1.533-2.338 5.728-7.793 9.323-12.124l6.536-7.874 3.561 3.891c1.958 2.14 6.338 7.033 9.732 10.874 9.426 10.664 9.761 7.535.749-7.004-4.086-6.593-7.279-12.443-7.096-13 .411-1.246 11.557-10 12.002-9.426.175.227 5.381 7.726 11.568 16.663C127.289 140.764 130 143.885 130 140.838c0-.639-4.069-8.976-9.042-18.527s-8.736-17.86-8.363-18.465c1.174-1.9 20.565-10.635 28.385-12.787 4.114-1.133 9.15-2.059 11.191-2.059 4.464 0 5.105-.863 4.988-6.71-.188-9.396-1.456-9.918-13.916-5.735-10.493 3.522-20.756 8.386-29.146 13.813l-7.082 4.582-2.007-3.933-2.006-3.934 4.637-2.717c2.55-1.495 7.387-3.712 10.749-4.928 3.485-1.26 6.248-2.887 6.428-3.784.274-1.369-3.382-8.807-6.076-12.363-1.013-1.336-8.241 2.235-17.088 8.444-2.666 1.871-4.958 3.259-5.092 3.084-.134-.176-3.577-6.731-7.652-14.568-8.267-15.902-8.18-15.839-16.089-11.72M.355 99.5c-.003 4.95.166 7.101.376 4.78.209-2.321.212-6.371.005-9-.206-2.629-.378-.73-.381 4.22m87.392-2.015-5.753 4.549 2.711 4.233c1.492 2.328 2.821 4.399 2.955 4.601.475.719 11.34-9.129 11.34-10.277 0-.642-1.237-2.626-2.75-4.41l-2.75-3.244z"/></svg>