<svg xmlns="http://www.w3.org/2000/svg" width="200" height="200" fill="#000000"><path fill-opacity=".133" fill-rule="evenodd" d="M167 1.563c-19.443 5.061-38.915 21.857-50.026 43.151-2.956 5.667-3.677 6.359-8.18 7.855-5.541 1.84-17.983 9.822-21.794 13.981l-2.5 2.729 11.002-.602c6.051-.331 11.507-.281 12.125.111.815.516.601 3.596-.779 11.212-1.046 5.775-1.777 12.075-1.625 14 .243 3.066.587 3.471 2.777 3.27 1.375-.127 7.163-2.602 12.863-5.5s10.696-5.398 11.102-5.554c.713-.274 2.134 3.823 5.562 16.034.888 3.163 1.973 5.75 2.41 5.75 2.068 0 8.063-21.453 8.063-28.853 0-3.002.72-4.446 3.589-7.201 10.599-10.179 20.874-27.615 24.403-41.414 1.996-7.806 2.663-21.009 1.383-27.407-.722-3.609-1.854-3.78-10.375-1.562M87.874 4.972C54.081 9.25 23.968 31.534 9.823 62.73c-12.094 26.674-10.508 62.068 3.898 86.998l2.444 4.229 4.089-2.086c5.847-2.984 14.178-2.305 19.257 1.57 3.977 3.033 7.431 9.387 7.467 13.735l.022 2.675 3.934-1.675c3.235-1.378 4.047-2.298 4.567-5.176.933-5.158 4.962-10.685 9.46-12.98 2.178-1.111 4.562-2.02 5.298-2.02s7.306-9.787 14.601-21.75l13.264-21.75-.659-5.5c-.633-5.29-1.093-6.808-1.792-5.917-.18.229-8.542 12.005-18.582 26.167S58.621 145 58.359 145s-.272-.338-.021-.75 8.877-15.375 19.17-33.25C87.8 93.125 96.467 78.092 96.767 77.593c.505-.841-11.698-.374-27.267 1.042l-6 .546L76 66.765c12.126-12.045 20.01-17.831 28.458-20.886 3.021-1.093 4.299-2.434 6.541-6.868 3.403-6.734 10.703-16.755 17.237-23.665l4.873-5.155-3.304-1.071c-12.171-3.943-29.783-5.686-41.931-4.148m50.349 38.585c-2.745 1.922-2.949 6.476-.394 8.788 4.791 4.336 12.006-.991 9.021-6.66-2.118-4.026-4.929-4.719-8.627-2.128M176 52.226c-2.884 5.984-9.416 15.142-15.489 21.715-3.81 4.123-4.333 5.325-5.463 12.559-1.683 10.773-4.133 17.603-11.838 33l-6.505 13-3.963-16.5c-2.18-9.075-4.299-16.863-4.71-17.308-.411-.444-9.85 11.438-20.975 26.404l-20.228 27.212 2.585 5.11c2.999 5.926 3.185 8.746 1.005 15.168l-1.581 4.656 3.501 2.886c4.38 3.61 7.12 10.414 6.389 15.864L98.19 200h7.277c8.073 0 22.228-3.219 32.437-7.377 21.714-8.843 42.789-29.921 51.971-51.978 9.169-22.025 10.243-45.895 3.063-68.09-3.255-10.062-10.935-24.928-13.064-25.286-.782-.131-2.451 2.004-3.874 4.957m-69.801 53.76c-1.815.43-3.44.947-3.611 1.148-4.563 5.381-29.255 39.866-28.841 40.28.322.322 1.524.589 2.67.592s3.397.692 5.004 1.529c1.606.838 3.223 1.173 3.593.744 1.259-1.459 25.938-41.991 26.57-43.639.692-1.802-.118-1.901-5.385-.654"/><path fill-opacity=".421" fill-rule="evenodd" d="M169.168 1.578c-8.501 1.785-21.257 8.155-29.011 14.485-7.944 6.485-17.879 18.96-22.761 28.577-2.506 4.938-4.314 7.36-5.493 7.36C107.922 52 86 65.672 86 68.155c0 .374 5.175.426 11.5.114 13.17-.648 12.232-1.594 10 10.069-2.019 10.551-2.009 18.662.022 18.662 2.056 0 13.627-5.305 19.635-9.002 2.68-1.649 5.073-2.998 5.318-2.998.54 0 3.784 10.501 5.509 17.831.69 2.932 1.603 4.957 2.03 4.5 2.223-2.382 6.219-16.576 6.709-23.831l.54-8 6.187-6.5c10.941-11.495 18.386-24.281 22.16-38.058 1.947-7.107 2.558-28.229.862-29.797-.578-.533-3.542-.358-7.304.433M86 5.601c-14.48 2.655-26.107 6.838-36.776 13.231C7.547 43.805-9.128 95.761 9.958 141.175c1.693 4.029 3.875 8.358 4.849 9.621l1.771 2.295 4.461-2.023c5.951-2.7 9.541-2.58 15.779.529C42.714 154.535 47 160.529 47 165.838c0 3.674-.239 3.578 4.243 1.705 2.961-1.237 3.587-2.077 4.144-5.562.83-5.188 6.568-11.542 12.113-13.413 3.771-1.272 4.758-2.588 17.217-22.938l13.216-21.588-.716-5.714-.717-5.713-20.179 28.442c-19.336 27.254-24.006 33.634-23.018 31.443.248-.55 9.993-17.576 21.656-37.835s21.01-37.03 20.771-37.268c-.238-.239-7.7.158-16.582.881C70.267 79 63 79.306 63 78.958c0-.349 5.099-5.618 11.332-11.708 11.3-11.042 21.573-18.628 29.549-21.819 3.152-1.261 4.733-2.718 6.304-5.807 3.607-7.094 9.952-15.879 16.163-22.378 3.287-3.44 5.719-6.512 5.405-6.827-.315-.314-3.876-1.466-7.913-2.558-7.154-1.935-31.637-3.398-37.84-2.26m52.4 37.164c-2.255 1.505-3.42 5.051-2.477 7.533C138.295 56.537 148 54.551 148 47.826c0-4.383-5.932-7.51-9.6-5.061m36.292 12.564c-2.645 4.569-7.933 11.976-11.75 16.459-5.604 6.58-6.942 8.801-6.942 11.522 0 6.949-4.209 19.571-11.533 34.586-4.13 8.467-7.676 15.217-7.879 15-.204-.218-2.051-7.371-4.105-15.896s-4.068-16.124-4.475-16.886c-.76-1.424-5.521 4.578-29.851 37.632l-11.223 15.246 2.198 2.973c2.932 3.966 3.631 12.273 1.468 17.45-1.506 3.604-1.496 3.943.144 5.189.966.733 2.075 1.347 2.464 1.364s1.852 1.984 3.25 4.37c1.933 3.299 2.542 5.729 2.542 10.147v5.81l8.304-.638c35.002-2.691 66.29-24.688 81.288-57.151 6.438-13.932 7.783-20.849 7.783-40.006 0-14.376-.335-18.212-2.173-24.854-2.329-8.416-9.675-24.708-12.8-28.385l-1.902-2.24zm-67.924 50.869c-3.322.883-5.251 3.044-17.543 19.647-7.595 10.26-14.124 19.167-14.507 19.793-.835 1.362 9.153 4.925 10.304 3.677.961-1.043 26.978-43.401 26.978-43.923 0-.505-.705-.397-5.232.806"/><path fill-opacity=".313" fill-rule="evenodd" d="M166.501 2.549c-2.749.754-8.682 3.196-13.183 5.426-13.55 6.714-28.421 22.374-36.587 38.525-2.206 4.364-3.17 5.226-7.582 6.774-5.157 1.811-18.359 10.093-21.353 13.397-1.6 1.764-1.232 1.817 10.367 1.493 11.287-.315 11.992-.223 11.463 1.5-1.16 3.775-3.626 19.739-3.626 23.467 0 2.783.424 3.869 1.509 3.869.83 0 6.763-2.707 13.185-6.016 6.421-3.308 12.017-5.671 12.435-5.25.613.619 2.578 7.081 6.312 20.766.977 3.579 7.52-19.473 7.544-26.576.012-3.655.546-5.063 2.656-7 4.574-4.199 14.134-16.696 17.836-23.316 6.216-11.117 8.691-19.746 9.261-32.298.28-6.154.22-12.342-.134-13.75-.74-2.952-2.412-3.119-10.103-1.011M84.46 6.378C48.401 12.295 18.033 38.089 7.204 72 3.499 83.601 2.55 90.196 2.669 103.5c.136 15.108 2.802 27.305 8.661 39.619 5.004 10.518 4.629 10.196 9.186 7.873 10.495-5.351 23.66.88 26.61 12.593.611 2.428 1.254 4.415 1.428 4.415s1.46-.435 2.858-.967c1.91-.726 2.833-2.122 3.712-5.612 1.468-5.831 6.959-11.776 12.376-13.401 3.822-1.146 4.567-2.135 16.75-22.209C95.4 107.439 97 104.257 97 100.46c0-2.388-.402-4.59-.894-4.894-.491-.304-10.918 13.617-23.171 30.936s-22.472 31.294-22.711 31.056c-.238-.239 1.807-4.174 4.545-8.746C64.099 133.236 95 79 95 78.203c0-.438-7.088-.215-15.75.494s-16.106 1.174-16.54 1.033c-.435-.141 4.595-5.613 11.177-12.159 11.805-11.741 21.04-18.688 29.487-22.182 3.518-1.455 4.854-2.807 7.198-7.284 3.494-6.673 10.132-15.805 16.218-22.311 2.482-2.654 4.295-5.042 4.03-5.307s-4.016-1.386-8.335-2.491c-10.182-2.604-27.52-3.342-38.025-1.618m52.995 37.077C136.105 44.805 135 46.85 135 48c0 2.678 4.294 7 6.955 7 2.906 0 6.048-3.517 6.03-6.75-.019-3.309-.784-4.582-3.669-6.1-3.122-1.643-4.099-1.458-6.861 1.305m39.425 8.795c-3.295 6.479-9.192 14.836-14.798 20.97-4.683 5.124-5.129 6.06-6.08 12.764-.564 3.979-2.142 10.56-3.507 14.625C150.216 107.397 137.53 134 136.572 134c-.228 0-2.306-7.909-4.618-17.575s-4.545-17.204-4.963-16.75c-.417.454-8.073 10.725-17.013 22.825-8.939 12.1-17.599 23.732-19.243 25.85l-2.99 3.85 2.32 4.644c2.671 5.348 3.022 12.167.858 16.652-1.415 2.931-1.356 3.081 2.718 7 4.629 4.451 6.917 10.679 6 16.33l-.552 3.397 6.706-.686c25.444-2.607 45.323-11.611 61.795-27.992 14.455-14.375 23.139-30.166 27.521-50.045 2.18-9.892 1.706-31.354-.929-42-2.241-9.056-12.342-31.5-14.176-31.5-.531 0-1.938 1.913-3.126 4.25M106 106.711c-1.903.313-6.022 5.177-17.237 20.35-12.516 16.934-14.399 19.94-12.5 19.945 1.231.004 3.466.647 4.968 1.431 2.573 1.342 2.84 1.27 4.615-1.256 2.154-3.066 22.356-35.822 24.083-39.048 1.222-2.283 1.247-2.274-3.929-1.422"/><path fill-opacity=".34" fill-rule="evenodd" d="M167.216 3.019c-19.939 5.223-38.282 20.971-49.229 42.263-2.55 4.96-4.159 6.946-5.987 7.394-4.487 1.099-13.376 6.013-19.5 10.782l-6 4.672 11.109-.698c7.921-.498 11.311-.371 11.814.443.388.628.036 4.625-.782 8.883-.817 4.258-1.75 10.33-2.072 13.492-.54 5.294-.426 5.75 1.431 5.75 1.11 0 7.161-2.649 13.446-5.888l11.427-5.887 1.664 4.137c.915 2.276 2.477 7.288 3.471 11.138 1.801 6.981 1.81 6.992 3.022 4 3.279-8.091 3.797-11.022 2.398-13.55-1.041-1.878-1.365-2.042-1.393-.7-.019.963-.485 1.75-1.035 1.75s-1.029-.787-1.063-1.75c-.046-1.247-.368-1.031-1.121.75l-1.058 2.5-.815-2.835c-.448-1.559-.571-3.471-.272-4.25C137.287 83.81 140 83.472 140 85c0 .55.9 1 2 1s2 .54 2 1.2c0 .87.301.899 1.096.104.603-.603 1.207-3.6 1.342-6.661.237-5.344.501-5.836 6.654-12.364 13.982-14.836 21.917-31.263 23.491-48.632.682-7.53-.161-18.693-1.405-18.592-.373.03-3.956.914-7.962 1.964M82.164 7.053c-7.505 1.344-19.05 5.356-26.947 9.365C47.906 20.13 37.806 27 39.659 27c.87 0 .869.612-.003 2.492-1.361 2.934-2.333 3.182-2.967.758-.408-1.561-.47-1.569-.573-.07-.064.925-1.099 1.825-2.3 2-3.451.506-15.191 15.896-20.794 27.261C4.968 75.777 3.504 82.422 3.538 102.5c.032 19.282 1.427 26.057 8.494 41.25 4.033 8.669 6.183 10.505 5.809 4.962-.233-3.46.641-5.712 2.218-5.712.518 0 .941.675.941 1.5 0 1.658.783 1.763 12.5 1.678 4.4-.032 7.438.178 6.75.465-2.115.886-1.413 5.02 1.136 6.69 2.67 1.75 6.614 9.162 6.614 12.431 0 1.915.293 2.03 2.881 1.128 2.309-.805 3.004-1.768 3.496-4.847.802-5.016 7.7-12.671 13.047-14.48 3.673-1.242 4.749-2.681 16.841-22.54 12.805-21.031 12.91-21.251 12.076-25.505l-.841-4.291L75 124.262c-27.33 38.707-26.076 36.995-26.676 36.396-.291-.291 8.362-15.971 19.227-34.844C78.417 106.942 87.549 91.05 87.845 90.5c.297-.55-.217-.387-1.141.363-1.439 1.166-1.771 1.126-2.31-.28-.574-1.495-.751-1.482-1.98.138-1.262 1.662-1.352 1.631-1.382-.471C81.014 89.013 80.55 88 80 88s-1 .99-1 2.2c0 1.573-.307 1.893-1.078 1.122-1.718-1.718-.701-6.752 1.446-7.16 1.16-.22 1.612.062 1.191.742-.398.645.089 1.096 1.182 1.096 1.022 0 2.399.54 3.059 1.2.898.898 1.2.905 1.2.031 0-.642.617-.931 1.371-.642 1.643.63 4.096-1.658 6.255-5.832l1.579-3.054-6.352.626c-3.494.344-11.303.912-17.353 1.263l-11 .638L71 69.556c12.177-12.378 21.013-19.263 30.302-23.61 3.735-1.748 6.869-3.91 7.206-4.971 1.232-3.882 10.938-17.613 16.669-23.581 3.273-3.408 5.585-6.423 5.137-6.699-5.508-3.401-36.434-5.74-48.15-3.642m-4.497 18.614C76.613 26.72 76.891 32 78 32c.55 0 1-.675 1-1.5s.45-1.5 1-1.5 1 .675 1 1.5c0 2.077 1.752 1.888 2.311-.25.435-1.667.463-1.667.573 0 .135 2.04 1.221 2.245 2.916.55.933-.933 1.2-.933 1.2 0 0 1.591 3.693 1.549 4.338-.05.403-1 .52-1 .583 0C93.034 32.538 95 32.302 95 30.5c0-1.943 1.755-1.953 2.177-.013.221 1.018.681.717 1.456-.952l1.133-2.439-6.883.022c-4.438.014-6.883.423-6.883 1.152 0 .801-.349.781-1.2-.07-.66-.66-2.037-1.2-3.059-1.2s-1.581-.45-1.241-1c.683-1.105-1.773-1.394-2.833-.333m59.008.737c-.669 1.743.273 5.596 1.368 5.596.446 0 1.016-.788 1.268-1.75.435-1.667.463-1.667.573 0 .149 2.248 2.116 2.302 2.116.059 0-1.476.189-1.444 1.481.25 1.194 1.565 1.654 1.678 2.375.584.624-.946 1.101-1.022 1.578-.25 1.062 1.718 6.566 1.389 6.566-.393 0-.825.45-1.5 1-1.5s1 .675 1 1.5.45 1.5 1 1.5 1-.413 1-.918.26-1.597.578-2.426c.482-1.254-.567-1.501-6.25-1.472-3.977.021-7.135.512-7.563 1.176-.529.822-.739.791-.75-.11-.008-.687-1.167-1.25-2.574-1.25-1.451 0-2.292-.433-1.941-1 .34-.55-.035-1-.834-1s-1.694.632-1.991 1.404M41 31c0 .55.477 1 1.059 1s.781-.45.441-1-.816-1-1.059-1-.441.45-.441 1m59.5 0c-.34.55-.141 1 .441 1S102 31.55 102 31s-.198-1-.441-1-.719.45-1.059 1m59 0c-.34.55.11 1 1 1s1.34-.45 1-1-.79-1-1-1-.66.45-1 1M137 43c-1.111 1.111-2 3.333-2 5 0 6.547 7.929 9.449 11.927 4.365 2.722-3.46 2.617-5.912-.382-8.91-2.973-2.973-6.842-3.158-9.545-.455m41.006 7.985c-2.119 5.116-8.211 14.04-14.852 21.756-4.635 5.385-6.154 7.904-6.154 10.205 0 1.68.48 3.054 1.067 3.054 1.299 0 .235 4.068-1.437 5.5-.643.55-1.977 3.7-2.966 7-2.381 7.946-15.847 35.606-17.126 35.179-.553-.184-2.818-7.937-5.035-17.228l-4.031-16.894-16.484 22.215c-9.066 12.219-16.635 22.669-16.819 23.222-.185.553 1.009 1.006 2.654 1.006 2.818 0 2.923.14 1.835 2.445l-1.154 2.446-.926-2.196-.925-2.195-.396 2.25c-.432 2.456-1.795 2.981-2.595 1-.403-1-.52-1-.583 0-.043.688-.727 1.25-1.52 1.25-2.543 0-2.71 1.877-.44 4.948 2.96 4.003 3.714 12.676 1.489 17.136-1.624 3.255-1.622 3.261 1.888 6.476 4.357 3.991 6.504 8.961 6.504 15.056v4.68l7.978-.615c39.497-3.046 73.39-30.862 84.556-69.397 4.765-16.443 4.788-37.433.058-53.505-2.592-8.807-8.182-21.298-11.473-25.635l-1.788-2.357zM18.158 85.31c-.692.834-.78 2.377-.243 4.25l.843 2.94.958-2.426.959-2.427.751 2.427.752 2.426.735-2.5.734-2.5.761 2.303c.61 1.849 1.039 2.071 2.176 1.127 1.089-.903 1.763-.887 2.916.07 1.146.951 1.831.97 2.903.081 1.077-.894 1.515-.865 1.886.127.299.801.844.37 1.434-1.134l.952-2.427.789 2.427.79 2.426.443-2.25c.243-1.237.887-2.25 1.432-2.25s.71-.452.369-1.004c-.686-1.109-12.396-.795-14.303.383-.657.407-1.195.262-1.195-.32S24.1 86 23 86s-2-.45-2-1c0-1.411-1.554-1.242-2.842.31M41 91.059c0 .582.45.781 1 .441s1-.816 1-1.059S42.55 90 42 90s-1 .477-1 1.059m118.51-.043c.346.559 1.047.758 1.559.441 1.387-.857 1.129-1.457-.628-1.457-.857 0-1.276.457-.931 1.016m-52.223 15.705c-2.863.357-4.718 2.433-17.051 19.09-15.393 20.787-16.69 22.718-13.003 19.364 1.634-1.486 2.796-1.937 3.221-1.25.365.591.3 1.128-.145 1.193s.541.415 2.191.776c3.49.765 3.875.371 10.653-10.894a2144 2144 0 0 1 11.163-18.25c3.658-5.912 6.546-10.678 6.418-10.59s-1.68.34-3.447.561m29.924 37.529c-1.134 1.371-.468 6.75.836 6.75.448 0 1.009-1.012 1.247-2.25l.434-2.25.136 2.25c.157 2.59 2.136 3.108 2.136.559 0-1.476.189-1.444 1.481.25 1.194 1.565 1.654 1.678 2.375.584q.894-1.356 1.552-.293c1.139 1.844 6.418.849 7.166-1.35.649-1.909.7-1.898 1.123.25.593 3.017 1.955 2.852 2.56-.312l.489-2.561-7.123.135c-11.98.226-12.621.145-11.985-1.512.697-1.817-.988-1.99-2.427-.25m-117.132 4.333c.048 1.165.285 1.402.604.605.289-.722.253-1.585-.079-1.917s-.568.258-.525 1.312m16 0c.048 1.165.285 1.402.604.605.289-.722.253-1.585-.079-1.917s-.568.258-.525 1.312M41 150c0 .55.45 1 1 1s1-.45 1-1-.45-1-1-1-1 .45-1 1m59 0c0 .55.45 1 1 1s1-.45 1-1-.45-1-1-1-1 .45-1 1m60 0c0 .55.477 1 1.059 1s.781-.45.441-1-.816-1-1.059-1-.441.45-.441 1"/></svg>