<svg xmlns="http://www.w3.org/2000/svg" width="64" height="64" fill="#000000"><path fill-opacity=".161" fill-rule="evenodd" d="M20 1.742C13.648 3.979 3.869 13.948 1.671 20.428c-5.605 16.528 1.851 33.911 17.638 41.12 5.101 2.33 6.806 2.608 14 2.285 6.212-.278 9.366-.963 13.054-2.834 5.961-3.023 14.057-11.669 15.678-16.742.66-2.066 1.596-4.185 2.08-4.707 1.131-1.222 1.158-16.84.027-16.142-.468.29-1.411-1.344-2.096-3.63-1.773-5.915-11.958-15.894-18.48-18.107C37.407-.42 26.043-.385 20 1.742M19 32v13h26V19H19zM.349 32c0 4.675.173 6.587.383 4.25.211-2.338.211-6.163 0-8.5-.21-2.338-.383-.425-.383 4.25"/><path fill-opacity=".481" fill-rule="evenodd" d="M21.332 1.851C7.53 6.621-.938 19.728.247 34.489c.935 11.649 7.338 21.195 17.592 26.231 4.842 2.378 6.89 2.78 14.161 2.78 7.29 0 9.314-.4 14.214-2.806 6.824-3.351 13.056-10.072 15.324-16.527.901-2.567 2.049-5.448 2.551-6.403 1.126-2.147 1.217-13.071.103-12.382-.445.274-1.314-1.388-1.931-3.695C57.963 5.617 38.179-3.971 21.332 1.851m-2.896 17.454c-.275.718-.374 6.906-.218 13.75L18.5 45.5l13.75.278 13.75.278V18H32.469c-10.21 0-13.655.321-14.033 1.305M.32 32c0 3.575.182 5.038.403 3.25s.222-4.712 0-6.5C.502 26.962.32 28.425.32 32"/><path fill-opacity=".775" fill-rule="evenodd" d="M24.734 1.03C19.053 2.456 13.932 5.376 9.613 9.652c-12.221 12.097-12.221 32.515 0 44.735 12.222 12.222 32.563 12.222 44.769 0 4.139-4.144 8.592-12.462 8.608-16.078.006-1.205.46-2.469 1.01-2.809s1-2.418 1-4.618c0-2.412-.397-3.755-1-3.382-.556.343-1.004-.408-1.01-1.691-.016-3.721-4.414-11.997-8.608-16.196C47.124 2.345 34.29-1.37 24.734 1.03M18 32v14h28V18H18zM.272 32c0 2.475.195 3.487.434 2.25.238-1.237.238-3.262 0-4.5C.467 28.512.272 29.525.272 32"/><path fill-opacity=".92" fill-rule="evenodd" d="M26.932 1.074C9.981 3.701-1.616 19.885 1.107 37.112c3.908 24.723 34.331 34.842 52.765 17.551 4.084-3.832 9.126-13.97 9.127-18.354C63 34.554 63.45 32.84 64 32.5s1-1.068 1-1.618-.45-.722-1-.382c-.59.364-1-.74-1.001-2.691-.001-4.472-4.987-14.58-9.127-18.505-6.707-6.357-17.584-9.68-26.94-8.23M24.75 16.743c3.988.189 10.513.189 14.5 0 3.987-.19.725-.346-7.25-.346s-11.238.156-7.25.346M18 32v14h28V18H18zm30.397 0c0 7.975.156 11.237.346 7.25s.189-10.512 0-14.5c-.19-3.988-.346-.725-.346 7.25m-33.005 0c0 7.425.157 10.462.35 6.75s.192-9.788 0-13.5c-.193-3.712-.35-.675-.35 6.75m9.814 16.741c3.689.191 9.989.193 14 .002 4.012-.19.994-.347-6.706-.348s-10.982.154-7.294.346"/></svg>