<svg xmlns="http://www.w3.org/2000/svg" width="200" height="200" fill="#000000"><path fill-opacity=".251" fill-rule="evenodd" d="M0 100.005V200.01l100.25-.255 100.25-.255.255-99.75L201.01 0H0zm.481.495c0 55 .121 77.647.269 50.326.148-27.32.148-72.32 0-100C.602 23.147.481 45.5.481 100.5m35.604-2.67 1.602 30.926 6.407 6.087 6.406 6.087 19.25.035L89 141v-13H60.406l-3.556-3.75-3.556-3.75-2.201-21c-3.079-29.374-2.54-27.334-7.814-29.595-2.456-1.052-5.439-2.158-6.63-2.457l-2.165-.543zM94 134.5v6.5h37v-13H94zm42 .048v6.547l6.167-.297 6.167-.298 2.787-6.25 2.787-6.25H136z"/><path fill-opacity=".597" fill-rule="evenodd" d="M0 100.005V200.01l100.25-.255 100.25-.255.255-99.75L201.01 0H0zm.481.495c0 55 .121 77.647.269 50.326.148-27.32.148-72.32 0-100C.602 23.147.481 45.5.481 100.5m33.855-27.754c.328 3.715 1.096 17.779 1.707 31.254l1.112 24.5 6.672 6.241 6.673 6.242 19.25.008L89 141v-13H60.392l-3.237-3.341-3.238-3.34-2.604-24.41c-1.433-13.425-2.876-24.714-3.209-25.086-.332-.373-3.7-1.837-7.484-3.254l-6.879-2.577zM94 134.5v6.5h37v-13H94zm42 0v6.5h12.632l2.434-5.721 2.767-6.5c.184-.429-3.754-.779-8.75-.779H136z"/><path fill-opacity=".467" fill-rule="evenodd" d="M0 100.005V200.01l100.25-.255 100.25-.255.255-99.75L201.01 0H0zm.481.495c0 55 .121 77.647.269 50.326.148-27.32.148-72.32 0-100C.602 23.147.481 45.5.481 100.5m76.532-35.894c-8.997 2.417-14.622 6.872-18.809 14.894-2.179 4.174-2.61 6.321-2.61 13 0 6.693.432 8.832 2.639 13.09 4.773 9.208 13.424 14.882 24.445 16.034 8.057.842 16.285-1.061 22.414-5.186l5.078-3.417 4.165 2.809c6.816 4.598 10.535 5.67 19.665 5.67 7.052 0 9.438-.44 14.006-2.583 11.106-5.21 16.974-14.343 16.974-26.417 0-8.445-2.777-15.121-8.61-20.701-6.157-5.888-12.38-8.164-22.37-8.183-9.031-.017-13.264 1.242-20.138 5.989l-3.638 2.512-4.362-3.035c-4.697-3.268-14.103-6.123-19.822-6.016-1.947.036-6.009.729-9.027 1.54m-43.016 3.037c-.001 1.021.694 15.132 1.545 31.357l1.548 29.5 6.464 6.25 6.464 6.25H89v-13H60.971l-3.466-3.25-3.466-3.25-2.561-24c-1.409-13.2-2.736-24.519-2.951-25.152s-2.783-2.058-5.708-3.164a766 766 0 0 1-7.069-2.705c-1.287-.51-1.751-.202-1.753 1.164m47.004 9.427c-9.321 3.916-12.854 15.386-7.535 24.462C81.635 115.471 102 108.889 102 92.31c0-5.48-2.421-10.086-7.136-13.578-3.095-2.292-10.306-3.157-13.863-1.662m46.414.296c-8.671 3.931-11.756 15.648-6.421 24.393 3.171 5.2 7.575 7.421 13.797 6.961 9.053-.67 14.495-6.707 14.495-16.08 0-6.162-2.097-10.657-6.399-13.72-3.85-2.742-11.219-3.482-15.472-1.554M94 134.5v6.5h37v-13H94zm42 0v6.5h12.739l2.63-6.066c1.447-3.336 2.631-6.261 2.631-6.5s-4.05-.434-9-.434h-9z"/><path fill-opacity=".951" fill-rule="evenodd" d="M0 100.005V200.01l100.25-.255 100.25-.255.255-99.75L201.01 0H0zm.481.495c0 55 .121 77.647.269 50.326.148-27.32.148-72.32 0-100C.602 23.147.481 45.5.481 100.5M77.5 63.878C69.681 65.93 61.528 72.354 57.672 79.5c-1.754 3.252-2.158 5.683-2.158 13 0 10.411 1.792 14.887 8.603 21.498 10.411 10.103 30.999 10.88 43.13 1.627 3.14-2.395 3.612-2.499 4.805-1.062.727.876 3.601 2.795 6.385 4.265 4.557 2.405 6.113 2.672 15.563 2.672 8.983 0 11.11-.326 14.722-2.256 11.044-5.901 16.722-14.983 16.722-26.744 0-16.294-11.475-28.054-28.567-29.277-8.571-.613-15.741 1.148-22.101 5.428-5.034 3.387-5.094 3.4-7.176 1.495-4.708-4.306-10.846-6.482-19.1-6.773-4.4-.155-9.35.072-11 .505M34.006 70.75c.004 2.612.677 16.742 1.496 31.399l1.489 26.65 6.255 6.082 6.254 6.081 19.75.019L89 141v-14H60.392l-3.143-3.25-3.143-3.25-2.553-23.373C50.149 84.272 49 73.186 49 72.493 49 71.521 36.622 66 34.443 66c-.244 0-.44 2.138-.437 4.75M81.5 77.491c-9.618 3.431-13.202 14.93-7.545 24.205 2.936 4.813 6.549 6.733 12.671 6.733 8.4 0 14-5.219 14.962-13.943 1.305-11.84-9.325-20.834-20.088-16.995m48.979-.522C123.071 78.648 119 84.215 119 92.667c0 6.684 2.645 11.319 8.036 14.083 5.403 2.771 8.151 2.822 13.464.25 5.376-2.602 8.5-8.02 8.5-14.738 0-10.173-8.855-17.485-18.521-15.293M94 134.5v6.5h37v-13H94zm42 0v6.5h12.739l2.63-6.066c1.447-3.336 2.631-6.261 2.631-6.5s-4.05-.434-9-.434h-9z"/></svg>