<svg xmlns="http://www.w3.org/2000/svg" width="24" height="24" fill="#000000"><rect width="24" height="24" fill="#050505" rx="4"/><path fill="#8a8a8a" fill-rule="evenodd" d="M4 11.185v-.54h6.31l-.267.27-.266.27H4Zm0-1v.298h6.468l.263-.27c.143-.15.258-.286.258-.301 0-.016-1.571-.028-3.494-.028H4v.302Zm0-.756v.29h1.815v-.58H4v.29Zm0-.736v.29h1.819l-.012-.282-.011-.278L4.9 8.41 4 8.404v.29Zm0-.444V7.67H10.549l.286.29.286.29H4Zm0-1.023v.29H10.549l.286-.29.286-.29H4v.29Zm0-.733v.29h1.815v-.58H4v.29Zm0-.734v.29l.9-.008.896-.012.011-.282.012-.278H4v.29Zm0-.444v-.58h6.472l.286.29.285.29H4Zm0-.735V4h5.769l.263.26c.146.142.262.273.262.289 0 .02-1.417.03-3.147.03H4Zm5.368 1.345c0-.093-.038-.166-.162-.29l-.162-.166h2.14v.58H9.367v-.124Zm-.116.695c.089-.089.116-.15.116-.267v-.15h1.814v.58H10.16c-.564 0-1.023-.012-1.023-.024s.054-.073.116-.139Zm0 1.953c-.062-.061-.116-.123-.116-.142 0-.016.46-.027 1.023-.027h1.023v.579H9.368v-.147c0-.116-.027-.178-.116-.263Zm-.046.98c.124-.124.162-.198.162-.29v-.124h1.815v.58H9.044l.162-.167ZM14.246 11.185l-.27-.27-.27-.27h5.58v.54h-5.039Zm-1.254-1.279c0 .015.127.147.282.297l.278.275 2.857-.004 2.858-.004v-.58l-3.136-.003c-1.726 0-3.14.007-3.14.019Zm-.193-.188v-.58h1.954l.286.29.285.29H12.8Zm0-1.025v.29h1.815v-.58h-1.815v.29Zm0-.444V7.67h1.815v.58h-1.815Zm0-1.023v.29h1.815v-.58h-1.815v.29Zm0-.444v-.58h1.815v.58h-1.815Zm0-1.023v.29h1.815v-.58h-1.815v.29Zm0-.444v-.58h1.815v.58h-1.815Zm0-.735V4h1.815v.58h-1.815ZM5.406 19.984l-.267-.27-.266-.27H10.31l-.266.27-.267.27H5.406Zm-1.209-1.28c-.023.016.081.144.24.298l.281.274 2.877-.003 2.873-.004.274-.278c.209-.209.263-.282.213-.298-.097-.027-6.712-.015-6.758.012ZM4 18.228v.29h2.514l-.282-.29-.282-.29H4v.29Zm0-.735v.29h1.815v-.58H4v.29Zm0-.733v.29h1.815v-.58H4v.29Zm0-.734v.29h1.815v-.58H4v.29Zm0-.734v.29h1.815v-.58H4v.29Zm0-.733v.29h1.815v-.58H4v.29Zm0-.734v.29h1.815v-.58H4v.29Zm0-.445v-.58h1.815v.58H4Zm5.367 0v-.58h1.815v.58H9.367Zm0 .735v-.58h1.815v.58H9.367Zm0 .733v-.579h1.815v.58H9.367Zm0 .734v-.58h1.815v.58H9.367Zm0 .734v-.58h1.815v.58H9.367Zm0 .733v-.58h1.815v.58H9.367Zm0 .734v-.58h1.815v.58H9.367Zm-.706.735.301-.29.297-.29h1.923v.58H8.661ZM12.799 19.714v.27l.83.004c.456.004.861.008.9.012.054.004.065-.039.077-.278l.012-.279h-1.819v.27Zm.035-1.003c-.023.015-.035.139-.027.294l.011.266.9.012.896.007v-.606l-.869.004c-.479 0-.888.011-.911.023Zm-.035-.484v.29h1.815v-.58h-1.815v.29Zm0-.734v.29h1.815v-.58h-1.815v.29Zm0-.446v-.58h6.58l.262.26c.147.143.263.274.263.29 0 .019-1.599.03-3.553.03H12.8Zm0-1.023v.29h6.545l.259-.263c.147-.143.274-.27.29-.29.011-.015-1.576-.027-3.534-.027H12.8v.29Zm0-.734v.29h1.815V15h-1.815v.29Zm0-.733v.29h1.815v-.58h-1.815v.29Zm0-.444v-.58h6.503l.262.26c.147.142.263.274.263.29 0 .018-1.58.03-3.514.03h-3.514Zm0-.734V12.8h5.769l.262.259c.147.143.263.274.263.29 0 .019-1.417.03-3.147.03h-3.147Zm5.368 1.344c0-.093-.038-.166-.162-.29l-.162-.166h2.14v.58h-1.816v-.124Zm-.124.73c.1-.1.123-.159.123-.29v-.162h1.815v.58H17.92l.124-.128Zm.027 1.905c-.054-.05-.097-.105-.097-.124 0-.015.452-.03 1.004-.03h1.004v.579h-1.815v-.166c0-.128-.023-.19-.096-.26Zm.096.896c0-.147.012-.279.027-.29.012-.016.421-.027.908-.027h.88v.58h-1.815v-.263Zm0 .754c0-.158.008-.293.016-.301.007-.008.417-.02.907-.02l.892-.003v.606h-1.815v-.282Zm0 .977v-.54h.904c.652 0 .856-.013.912.072.031.048.015.128.007.26l-.015.208h-1.808Z" clip-rule="evenodd"/></svg>