<svg xmlns="http://www.w3.org/2000/svg" width="21" height="20" fill="#000000"><path fill="#6b6b6b" d="M10.218 9.687c.514.085.997.11 2.32.11 1.527 0 1.606.01 2.063.239.204.1.358.203.508.344.239.226.587.684.646.856.053.145.057.477.006.64-.106.354-.98 1.022-1.718 1.314-.254.1-.865.257-1.238.32-.264.043-.746.081-1.662.131-.687.035-1.8-.1-2.443-.3-.21-.063-.492-.142-.63-.173-.464-.1-1.135-.47-1.423-.787-.32-.348-.499-.888-.414-1.248.044-.191.254-.552.389-.665.254-.213.994-.514 1.542-.624a18.4 18.4 0 0 0 .53-.113c.358-.094 1.11-.116 1.524-.044Z"/><path fill="#171717" d="M9.299.02c-.028.017-.066.023-.081.01-.029-.015-.624.057-.803.1-.05.01-.141.023-.195.023-.056.003-.103.012-.103.022 0 .012-.038.018-.085.018a.323.323 0 0 0-.15.032c-.06.031-.41.09-.461.078C7.405.3 7.396.31 7.396.325s-.104.053-.226.082a1.206 1.206 0 0 0-.26.078 3.283 3.283 0 0 1-.36.125 2.266 2.266 0 0 0-.361.129.127.127 0 0 1-.082.028.25.25 0 0 0-.125.06.56.56 0 0 1-.154.081c-.113.035-.62.282-.768.376l-.188.11A9.993 9.993 0 0 0 1.047 5.54C.504 6.634.234 7.524.07 8.731c-.169 1.273-.03 2.907.348 4.155a10.111 10.111 0 0 0 3.578 5.12 9.905 9.905 0 0 0 4.198 1.84 8.871 8.871 0 0 0 1.819.154c1.405 0 2.565-.223 3.816-.737.367-.15.934-.43 1.17-.574.128-.081.15-.094.41-.25a3.63 3.63 0 0 0 .304-.217c.082-.066.147-.113.147-.103 0 .01.026-.006.06-.038.129-.119.27-.226.301-.226a.978.978 0 0 0 .188-.156.873.873 0 0 1 .182-.157c.013 0 .11-.091.213-.204.107-.113.213-.204.232-.204.022 0 .06-.025.082-.056.04-.05.04-.05-.019-.006-.034.025.05-.076.185-.226.138-.15.26-.267.276-.257.016.009.022.003.019-.013-.016-.044.266-.382.298-.36.018.009.022.006.012-.01-.01-.019.053-.128.144-.248.214-.294.524-.77.69-1.063.075-.131.148-.228.16-.216.013.013.013-.003 0-.034-.016-.041-.012-.054.013-.038s.031.003.015-.031c-.015-.041-.01-.047.022-.029.025.016.035.013.02-.009-.013-.019.027-.132.087-.254.235-.464.574-1.398.677-1.862a.542.542 0 0 1 .06-.18c.01 0 .022-.05.025-.112a.62.62 0 0 1 .028-.166c.01-.028.025-.1.028-.16.006-.06.02-.154.028-.207.05-.266.085-.583.129-1.141.025-.32-.019-1.095-.097-1.71a10.053 10.053 0 0 0-4.396-7.073A10.349 10.349 0 0 0 10.845.024C10.544-.004 9.349-.01 9.299.021Zm2.085.211c.834.122 1.58.323 2.283.605a9.882 9.882 0 0 1 6.08 10.748 9.856 9.856 0 0 1-3.067 5.663 4.763 4.763 0 0 1-.38.326c-.012 0-.238-.27-.501-.599-.389-.483-.527-.633-.718-.774a6.086 6.086 0 0 1-.264-.195c-.015-.012.01-.206.054-.426.044-.223.103-.57.125-.771.05-.402.097-.524.32-.816.404-.536.502-.877.417-1.48-.028-.219-.025-.247.031-.325.07-.1.16-.42.16-.574 0-.129-.06-.358-.156-.593a8.122 8.122 0 0 1-.189-.611 8.5 8.5 0 0 0-.204-.659c-.194-.514-.485-1.492-.457-1.546.063-.119.069-.338.019-.564-.05-.216-.05-.241 0-.43a.991.991 0 0 0 .037-.388.512.512 0 0 1 .057-.355.796.796 0 0 0 .078-.247c0-.123-.088-.386-.16-.48-.047-.06-.072-.16-.094-.386a6.425 6.425 0 0 0-.185-1.044c-.132-.442-.558-.777-1.68-1.32a17.441 17.441 0 0 0-1.424-.63c-.68-.273-.655-.27-2.524-.28-1.615-.009-1.493-.03-2.148.358-.962.571-1.646 1.13-2.135 1.747-.445.564-.627.903-.715 1.332-.038.195-.066.875-.078 2.101-.013.834-.022.972-.082 1.223-.103.42-.078.784.088 1.317.125.407.285 1.157.42 1.96.063.379.069.53.069 1.495.003.975-.003 1.079-.053 1.129-.041.04-.129.06-.38.072-.288.016-.348.031-.523.122-.248.129-.499.367-.605.58-.088.176-.16.477-.195.81-.012.118-.031.212-.044.212-.034 0-.564-.67-.79-1.003a9.883 9.883 0 0 1-1.574-7.18c.273-1.627.919-3.085 1.976-4.452.335-.433 1.131-1.239 1.564-1.584A9.973 9.973 0 0 1 9.107.175c.471-.05 1.785-.016 2.277.056Zm-.445 2.073c.285.06.897.288 1.458.548.138.063.404.179.596.254.72.292 1.248.662 1.467 1.041.15.257.285.78.348 1.352l.013.134-.098-.015c-.056-.013-.135-.029-.175-.041-.132-.038-.06.056.081.103a.636.636 0 0 1 .198.12c.128.134.172.498.088.702l-.044.11-.07-.113a.443.443 0 0 1-.068-.173c0-.087-.104-.213-.232-.272-.129-.06-.86-.073-1.167-.016-.445.078-.859.285-1.182.599-.128.119-.144.15-.14.27 0 .078.015.131.037.131s.17.12.332.263c.477.433.79.543 1.455.515.392-.016.49-.05.756-.245.097-.072.181-.125.19-.12.032.035.082.374.064.446-.013.047-.088.132-.176.198-.172.128-.207.194-.063.119.11-.057.126-.06.126-.01 0 .022-.044.066-.094.095-.094.053-.129.15-.054.15a.242.242 0 0 0 .104-.047c.078-.06.107-.06.107 0 0 .025.018.047.043.047.025 0 .054.044.066.1.013.057.148.477.298.935.273.821.339 1.066.292 1.066a.514.514 0 0 1-.116-.145 3.34 3.34 0 0 0-.289-.357 3.494 3.494 0 0 1-.282-.345c-.047-.069-.09-.119-.1-.113-.025.025.128.248.288.42.157.167.182.242.047.138a3.305 3.305 0 0 0-.326-.203c-.423-.239-.492-.248-2.264-.239-1.643.007-1.514.016-2.448-.166-.164-.031-.276-.028-.675.019-.727.085-1.404.223-1.856.373-.555.188-.715.276-.95.52-.41.43-.48.621-.414 1.142.047.386.12.583.273.78.358.446 1.063.756 2.656 1.164l.755.191.69.003c1.076 0 2.393-.066 2.734-.138.828-.175 1.239-.354 1.86-.818.56-.42.564-.42.59-.395.012.012.021.204.021.42v.398l-.135.251c-.172.317-.288.464-.498.643-.2.17-.286.294-.414.592-.104.242-.113.286-.072.286.015 0 .056-.075.097-.17a.706.706 0 0 1 .135-.225l.066-.06-.022.298c-.032.473-.1.86-.239 1.348-.134.477-.185.562-.354.63-.056.022-.254.113-.445.204a6.18 6.18 0 0 1-1.113.411c-.298.078-.304.078-1.443.066-.63-.003-1.708.003-2.398.015l-1.254.029-.44-.116c-.573-.15-.761-.213-1.065-.36-.546-.264-1.208-.785-1.39-1.095-.084-.144-.084-.144-.084-.787a76.72 76.72 0 0 0-.04-1.74c-.035-1.038-.045-1.12-.133-1.502a4.505 4.505 0 0 1-.094-.511c0-.113-.216-1.107-.316-1.468a2.359 2.359 0 0 1-.028-1.144c.056-.242.069-.367.06-.674a27.12 27.12 0 0 1 .012-1.888c.022-.552.034-.664.103-.862.257-.756.831-1.492 1.612-2.07.367-.27 1.241-.85 1.442-.95.273-.14.28-.14 1.881-.122 1.324.016 1.559.025 1.819.076Zm3.392 3.881c.17.054.34.17.34.235 0 .016-.054-.003-.117-.04l-.12-.07.133.126c.169.163.291.405.291.574 0 .282-.351.63-.727.718-.257.063-.806.022-1.095-.082-.291-.103-.435-.203-.661-.454-.235-.257-.245-.358-.05-.536.122-.113.454-.298.483-.267a.57.57 0 0 1-.07.163c-.112.198-.137.542-.053.702.098.185.195.232.508.248.377.019.474-.003.609-.141.14-.138.166-.26.116-.527-.07-.363-.23-.523-.55-.542-.112-.006-.203-.025-.203-.038 0-.05.395-.119.69-.122.204 0 .354.016.476.053Zm-4.113 3.503c.514.084.997.11 2.32.11 1.527 0 1.605.009 2.063.238.204.1.357.203.508.344.238.226.586.684.646.856.053.145.056.477.006.64-.106.354-.981 1.022-1.718 1.314-.254.1-.865.257-1.238.32-.264.043-.747.081-1.662.131-.687.035-1.8-.1-2.443-.3-.21-.063-.492-.142-.63-.173-.464-.1-1.135-.47-1.424-.787-.32-.348-.498-.888-.413-1.248.043-.191.254-.552.388-.665.254-.213.994-.514 1.543-.624.226-.044.46-.097.53-.113.357-.094 1.11-.116 1.524-.043ZM4.51 14.892c.028.02.032.123.016.443-.022.388-.019.426.047.558.163.338.96.987 1.54 1.254.128.06.467.175.752.26l.514.15 2.524-.006c2.828-.003 2.609.013 3.346-.241.401-.138 1.223-.536 1.263-.612.016-.034.07-.178.113-.323.044-.14.094-.272.11-.288.078-.085.771.58 1.094 1.044.066.097.182.25.257.345l.135.166-.11.094c-.181.157-.636.464-.68.464-.022 0-.04.013-.04.029 0 .1-1.694.975-1.885.975-.022 0 .028-.073.113-.163.172-.182.088-.126-.157.103-.132.122-.207.163-.455.242-1.016.322-1.887.454-2.994.454a9.147 9.147 0 0 1-2.568-.326c-.066-.019-.11-.044-.094-.06.066-.062.404-.131.771-.156.282-.02.464-.05.634-.107.26-.088.818-.357.793-.383-.01-.009-.104.029-.21.082-.107.053-.207.088-.217.072a4.306 4.306 0 0 1-.125-.157c-.144-.19-.414-.316-.771-.357-.336-.04-1.066-.013-1.377.053l-.22.044-.137-.147c-.132-.144-.135-.148-.041-.022a.652.652 0 0 1 .097.163c0 .019-.081.05-.178.069a3.68 3.68 0 0 0-.417.113c-.129.044-.258.084-.283.094-.06.019-.627-.295-1.097-.609-.593-.395-1.436-1.1-1.712-1.439l-.116-.14.038-.352c.053-.489.112-.69.276-.9.294-.376.67-.54 1.204-.517.116.006.225.022.247.034Zm3.982 3.694c.198.056.26.094.408.235.197.191.207.176-.173.304-.2.07-.338.091-.674.11-.345.019-.464.04-.643.11-.24.09-.26.088-.649-.054-.2-.072-.225-.103-.094-.134.104-.022.355-.173.292-.173-.025 0-.154.044-.285.097l-.235.098-.204-.091-.204-.095.166-.084c.091-.044.351-.132.58-.191.226-.063.461-.126.517-.145.317-.103.822-.097 1.198.013Zm-1.63.022a.223.223 0 0 1-.097.031c-.079 0-.527.154-.693.239-.126.062-.16.069-.23.037-.043-.019-.078-.047-.078-.06 0-.037.31-.144.537-.184l.31-.063c.166-.038.31-.038.25 0Z"/><path fill="#171717" d="M7.694 4.517c-.035.01-.188.044-.342.079-.245.056-.8.291-.765.326.006.009.125-.035.266-.094.355-.157.74-.236 1.139-.236.35 0 .523.035.843.17.273.116.417.241.627.536.1.138.207.257.242.26.053.01.053.01.009-.031a1.54 1.54 0 0 1-.182-.239c-.238-.354-.42-.495-.872-.67-.203-.076-.3-.095-.573-.104a2.8 2.8 0 0 0-.392.003ZM10.155 5.15c0 .041.107.132.157.132.031 0 .031-.01 0-.05-.053-.063-.157-.116-.157-.081ZM5.9 5.615c-.163.06-.392.257-.46.4-.057.12-.073.584-.02.584.02 0 .032-.1.032-.241 0-.352.106-.515.464-.696a.61.61 0 0 0 .132-.082c0-.01-.004-.016-.007-.012a1.862 1.862 0 0 0-.14.047ZM10.218 5.59c0 .015.031.053.066.087a.973.973 0 0 1 .156.251c.088.182.217.345.217.27 0-.082-.23-.511-.304-.57-.085-.067-.135-.082-.135-.039ZM8.023 5.837c-.386.063-1.27.417-1.693.674-.442.273-.715.552-.728.74-.003.028.013.129.035.22a.47.47 0 0 0 .179.285.723.723 0 0 0 .235.141c.16.032.599.022 1.204-.028.31-.025.755-.047.987-.047.772 0 1.27-.11 1.753-.386.298-.172.41-.298.41-.464 0-.094.02-.144.067-.182.06-.047.066-.075.047-.207-.047-.3-.47-.611-.866-.63a1.118 1.118 0 0 1-.313-.072c-.126-.056-.2-.063-.69-.06-.301 0-.583.01-.627.016Zm1.972.28c.314.14.502.388.44.573-.042.113-.101.132-.073.022.019-.085-.013-.116-.458-.42-.291-.2-.367-.314-.185-.276.057.01.182.056.276.1Zm-.931 0c.144.046.348.122.455.169.238.11.658.395.702.48.037.068.01.322-.038.354-.019.009-.025.037-.015.062.018.05-.082.126-.38.276-.43.213-.906.301-1.655.301-.242 0-.753.022-1.135.053-.847.063-.976.048-1.154-.15a.995.995 0 0 1-.148-.204c-.034-.072-.028-.088.057-.157.06-.047.069-.069.031-.053-.135.047.006-.066.57-.455.794-.545.838-.567.725-.344a.637.637 0 0 0-.066.332c.003.326.173.552.555.734.15.069.232.087.411.087.373 0 .627-.131.774-.4.073-.136.085-.192.085-.412 0-.316-.047-.526-.144-.633a.35.35 0 0 1-.075-.1c0-.044.194-.02.445.06ZM4.875 6.69c-.013.016.01.063.05.103.047.048.072.057.082.029.018-.054-.104-.179-.132-.132ZM4.511 6.94c0 .073.364.092.458.02.053-.041.034-.044-.198-.047-.144 0-.26.012-.26.028ZM5.06 7.458c-.176.075-.38.389-.304.464.025.025.047.003.078-.072.066-.16.2-.3.32-.348.06-.019.11-.05.11-.063 0-.037-.097-.028-.204.02ZM5.295 7.656c-.103.037-.295.26-.226.26.016 0 .079-.04.135-.094a.86.86 0 0 1 .163-.113c.028-.01.053-.031.053-.047 0-.031-.05-.034-.125-.006ZM10.315 7.831c-.006.223-.166.348-.448.348-.185 0-.185.063 0 .076.197.015.404-.088.464-.232.034-.082.037-.135.015-.195l-.028-.084-.003.087ZM9.34 7.925c-.053.022-.367.032-.957.032-.482-.003-.834.006-.783.022.053.012.426.025.83.028.7.003.944-.019.988-.091.022-.038.022-.038-.078.01Z"/><path fill="#ffffff" d="M9.064 6.116c.144.047.348.123.455.17.238.11.658.395.702.48.037.068.01.322-.038.354-.019.009-.025.037-.015.062.018.05-.082.126-.38.276-.43.213-.906.301-1.655.301-.242 0-.753.022-1.135.054-.847.062-.976.047-1.154-.151a.995.995 0 0 1-.148-.204c-.034-.072-.028-.088.057-.157.06-.047.069-.069.031-.053-.135.047.006-.066.57-.455.794-.545.838-.567.725-.344a.637.637 0 0 0-.066.332c.003.326.173.552.555.734.15.069.232.087.411.087.373 0 .627-.131.774-.4.073-.136.085-.192.085-.412 0-.316-.047-.526-.144-.633a.35.35 0 0 1-.075-.1c0-.044.194-.02.445.06ZM14.331 6.185c.17.054.34.17.34.235 0 .016-.054-.003-.117-.04l-.12-.07.133.126c.169.163.291.405.291.574 0 .282-.351.63-.727.718-.257.063-.806.022-1.095-.082-.291-.103-.435-.203-.661-.454-.235-.257-.245-.358-.05-.536.122-.113.454-.298.483-.267a.57.57 0 0 1-.07.163c-.112.198-.137.543-.053.702.098.185.195.232.508.248.377.019.474-.003.609-.141.14-.138.166-.26.116-.527-.07-.363-.23-.523-.55-.542-.112-.006-.203-.025-.203-.038 0-.05.395-.119.69-.122.204 0 .354.016.476.053Z"/><path fill="#757575" d="M4.875 6.69c-.013.016.01.063.05.104.047.047.072.056.081.028.02-.054-.103-.179-.131-.132ZM4.511 6.94c0 .073.364.092.458.02.053-.041.034-.044-.198-.047-.144 0-.26.012-.26.028ZM8.493 18.586c.198.056.26.094.408.235.197.191.207.176-.173.304-.2.07-.338.091-.674.11-.345.019-.464.04-.643.11-.241.09-.26.088-.649-.054-.2-.072-.226-.103-.094-.134.104-.022.354-.173.292-.173-.025 0-.154.044-.286.097l-.235.098-.204-.091-.203-.095.166-.084c.09-.044.351-.132.58-.191.226-.063.46-.126.517-.145.317-.103.822-.097 1.198.013ZM6.863 18.608a.221.221 0 0 1-.098.031c-.078 0-.526.154-.693.239-.125.062-.16.069-.228.037-.044-.019-.079-.047-.079-.06 0-.037.31-.144.536-.184l.31-.063c.167-.038.311-.038.252 0Z"/><path fill="#757575" fill-rule="evenodd" d="M10.939 2.304c.285.06.896.288 1.458.548.138.063.404.179.595.254.721.292 1.248.662 1.468 1.041.15.257.285.78.348 1.352l.012.134-.097-.015c-.056-.013-.135-.029-.176-.041-.131-.038-.059.056.082.103a.638.638 0 0 1 .198.12c.128.134.172.498.087.702l-.043.11-.07-.113a.444.444 0 0 1-.069-.173c0-.087-.103-.213-.231-.272-.129-.06-.86-.073-1.167-.016-.445.078-.859.285-1.182.599-.128.119-.144.15-.141.27 0 .078.016.131.038.131.021 0 .169.12.332.263.476.433.79.543 1.455.515.392-.016.489-.05.755-.245.098-.072.182-.125.192-.119.031.034.081.373.062.445-.012.047-.087.132-.175.198-.173.128-.207.194-.063.119.11-.057.126-.06.126-.01 0 .022-.044.066-.095.095-.094.053-.128.15-.053.15a.243.243 0 0 0 .104-.047c.078-.06.106-.06.106 0 0 .025.02.047.044.047.025 0 .053.044.066.1.013.057.147.477.298.935.273.821.338 1.066.291 1.066a.515.515 0 0 1-.116-.145 3.357 3.357 0 0 0-.288-.357 3.463 3.463 0 0 1-.282-.345c-.047-.069-.091-.119-.1-.113-.026.025.128.248.288.42.157.167.182.242.047.138a3.315 3.315 0 0 0-.326-.203c-.423-.239-.492-.248-2.264-.239-1.643.007-1.514.016-2.449-.166-.163-.031-.276-.028-.674.019-.727.085-1.405.223-1.856.373-.555.188-.715.276-.95.52-.41.43-.48.621-.414 1.142.047.386.12.583.273.78.357.446 1.063.756 2.656 1.164l.755.191.69.003c1.075 0 2.392-.066 2.734-.138.828-.175 1.239-.354 1.86-.818.56-.42.564-.42.589-.395.012.012.022.204.022.42v.398l-.135.251c-.172.317-.288.464-.498.643-.201.17-.286.295-.414.592-.104.242-.113.286-.072.286.015 0 .056-.075.097-.17a.707.707 0 0 1 .135-.225l.065-.06-.022.298c-.03.473-.1.86-.238 1.348-.135.477-.185.562-.354.63-.057.022-.254.113-.445.204a6.192 6.192 0 0 1-1.114.411c-.297.078-.304.078-1.442.066-.63-.003-1.709.003-2.398.015l-1.255.029-.439-.116c-.573-.15-.761-.213-1.066-.36-.545-.264-1.207-.785-1.389-1.095-.084-.144-.084-.144-.084-.787a76.72 76.72 0 0 0-.041-1.74c-.035-1.038-.044-1.12-.132-1.502a4.51 4.51 0 0 1-.094-.511c0-.113-.216-1.107-.316-1.468a2.359 2.359 0 0 1-.029-1.144c.057-.242.07-.367.06-.674-.019-.646-.013-1.23.012-1.888.022-.552.035-.664.104-.862.257-.756.83-1.492 1.612-2.07.366-.269 1.241-.85 1.442-.95.273-.14.279-.14 1.881-.122 1.323.016 1.558.025 1.819.076ZM7.352 4.596c.153-.035.307-.07.341-.079.035-.01.21-.01.392-.003.273.01.37.028.574.104.452.175.634.316.872.67.072.11.153.217.182.239.044.04.044.04-.01.031-.034-.003-.14-.122-.241-.26-.21-.295-.354-.42-.627-.536a1.809 1.809 0 0 0-.844-.17c-.398 0-.784.079-1.138.236-.141.06-.26.103-.266.094-.035-.035.52-.27.765-.326Zm2.96.686c-.05 0-.157-.09-.157-.131 0-.035.103.018.157.081.03.04.03.05 0 .05Zm-4.873.734c.069-.144.298-.342.461-.401l.012-.005c.067-.023.123-.042.13-.042.002-.004.005.003.005.012a.61.61 0 0 1-.131.082c-.358.181-.464.345-.464.696 0 .14-.013.241-.032.241-.053 0-.037-.464.02-.583Zm4.844-.339c-.034-.034-.066-.072-.066-.087 0-.044.05-.029.135.037.076.06.304.49.304.57 0 .076-.128-.087-.216-.269a.97.97 0 0 0-.157-.25Zm-3.953.834c.423-.257 1.307-.611 1.693-.674a9.36 9.36 0 0 1 .627-.015c.489-.004.564.003.69.06.078.034.219.065.313.071.395.019.819.33.865.63.02.132.013.16-.046.207-.048.038-.066.088-.066.182 0 .166-.113.292-.411.464-.483.276-.982.386-1.753.386-.232 0-.677.022-.988.047-.605.05-1.044.06-1.204.028a.723.723 0 0 1-.235-.14.47.47 0 0 1-.178-.286 1.042 1.042 0 0 1-.035-.22c.013-.188.285-.467.728-.74Zm-1.405.283c-.04-.041-.063-.088-.05-.104.028-.047.15.078.131.132-.009.028-.034.019-.081-.028Zm.044.166c-.094.072-.458.053-.458-.02 0-.015.116-.027.26-.027.232.003.251.006.198.047Zm-.213.962c-.076-.075.128-.389.304-.464.106-.047.203-.056.203-.019 0 .013-.05.044-.11.063-.118.047-.253.188-.32.348-.03.075-.052.097-.077.072Zm.313-.006c-.069 0 .122-.223.226-.26.075-.028.125-.025.125.006 0 .016-.025.038-.053.047a.86.86 0 0 0-.163.113.409.409 0 0 1-.135.094Zm4.797.263c.283 0 .442-.125.449-.348l.003-.087.028.084c.022.06.019.113-.016.195-.06.144-.266.247-.464.232-.185-.013-.185-.076 0-.076Zm-1.483-.222c.59 0 .903-.01.957-.032.1-.047.1-.047.078-.009-.044.072-.289.094-.988.09a9.732 9.732 0 0 1-.83-.027c-.05-.016.3-.025.783-.022Z" clip-rule="evenodd"/><path fill="#525252" d="M4.511 14.892c.029.02.032.123.016.442-.022.39-.019.427.047.559.163.338.96.987 1.54 1.254.128.06.467.175.752.26l.514.15 2.524-.006c2.829-.003 2.609.013 3.346-.241.401-.138 1.223-.536 1.263-.612.016-.034.07-.178.113-.323.044-.14.094-.272.11-.288.078-.085.771.58 1.094 1.044.066.097.182.25.257.345l.135.166-.11.094c-.181.157-.636.464-.68.464-.022 0-.04.013-.04.029 0 .1-1.694.975-1.885.975-.022 0 .028-.073.113-.163.172-.182.088-.126-.157.103-.132.122-.207.163-.455.241-1.015.323-1.887.455-2.994.455a9.148 9.148 0 0 1-2.568-.326c-.066-.019-.11-.044-.094-.06.066-.062.405-.131.771-.156.283-.02.464-.05.634-.107.26-.088.818-.357.793-.383-.01-.009-.103.029-.21.082-.107.053-.207.088-.216.072a4.306 4.306 0 0 1-.126-.157c-.144-.19-.414-.316-.771-.357-.336-.04-1.066-.013-1.377.053l-.22.044-.137-.147c-.132-.144-.135-.148-.04-.022a.65.65 0 0 1 .096.163c0 .019-.081.05-.178.069a3.68 3.68 0 0 0-.417.113c-.129.044-.257.084-.283.094-.06.019-.627-.295-1.097-.609-.593-.395-1.436-1.1-1.712-1.439l-.116-.14.038-.352c.053-.489.113-.69.276-.9.294-.376.67-.54 1.204-.517.116.006.225.022.247.034Z"/><path fill="#dedede" d="M11.384.231c.834.122 1.58.323 2.283.605a9.882 9.882 0 0 1 6.08 10.748 9.856 9.856 0 0 1-3.067 5.663 4.743 4.743 0 0 1-.38.326c-.012 0-.238-.27-.501-.599-.39-.483-.527-.633-.718-.774a6.278 6.278 0 0 1-.264-.194c-.015-.013.01-.207.054-.427.043-.223.103-.57.125-.771.05-.402.097-.524.32-.816.404-.536.502-.877.417-1.48-.028-.219-.025-.247.031-.325.07-.1.16-.42.16-.574 0-.129-.06-.358-.157-.593a8.085 8.085 0 0 1-.188-.611 8.589 8.589 0 0 0-.204-.659c-.194-.514-.486-1.492-.457-1.546.062-.119.069-.338.019-.564-.05-.216-.05-.241 0-.43a.988.988 0 0 0 .037-.388.512.512 0 0 1 .057-.355.795.795 0 0 0 .078-.247c0-.123-.088-.386-.16-.48-.047-.06-.072-.16-.094-.386a6.425 6.425 0 0 0-.185-1.044c-.132-.442-.558-.777-1.68-1.32a17.426 17.426 0 0 0-1.424-.63c-.68-.273-.655-.27-2.524-.28-1.615-.008-1.493-.03-2.148.358-.963.571-1.646 1.13-2.135 1.747-.445.564-.627.903-.715 1.332-.038.195-.066.875-.078 2.101-.013.834-.022.972-.082 1.223-.103.42-.078.784.088 1.317.125.408.285 1.157.42 1.96.063.379.069.53.069 1.495.003.975-.003 1.079-.053 1.129-.041.04-.129.06-.38.072-.288.016-.348.031-.523.122-.248.129-.499.367-.605.58-.088.176-.16.477-.195.81-.012.118-.031.212-.044.212-.034 0-.564-.67-.79-1.003a9.883 9.883 0 0 1-1.574-7.18c.273-1.627.919-3.085 1.975-4.452.336-.433 1.132-1.239 1.565-1.584A9.973 9.973 0 0 1 9.107.175c.471-.05 1.785-.016 2.277.056Z"/><path fill="#171717" d="m13.175 4.765-.088.078.107-.05c.084-.04.16-.05.376-.034.147.012.32.034.385.053.157.044.286.188.358.395.05.154.147.266.188.223.035-.035-.204-.486-.298-.565-.138-.116-.376-.179-.68-.179-.232 0-.27.01-.348.079ZM12.604 4.796c-.191.085-.505.33-.627.496-.154.2-.317.542-.314.649.003.078.003.078.028-.01.016-.047.079-.194.145-.329.156-.314.385-.546.718-.721.241-.126.272-.179.05-.085ZM11.475 5.718c-.079.154-.132.499-.072.46.021-.012.037-.05.037-.084s.028-.147.063-.25c.081-.239.066-.308-.028-.126ZM11.629 6.138c0 .063.012.12.028.132.019.01.022-.032.013-.1-.025-.157-.041-.173-.041-.032ZM12.767 7.803c.044.129 1.402.358 1.402.238 0-.018-.073-.031-.16-.031-.248 0-.803-.09-1.041-.17-.116-.04-.207-.056-.201-.037ZM6.781 9.518c-.028.057-.12.176-.198.26a6.504 6.504 0 0 0-.316.38c-.094.119-.264.32-.38.442-.382.41-.46.602-.498 1.235-.016.251-.035.546-.044.659l-.019.204.047-.189c.025-.103.06-.395.079-.649.043-.661.094-.79.498-1.244.527-.59.944-1.142.903-1.186-.01-.009-.04.032-.072.088ZM12.789 16.633c-.147.05-.42.137-.611.19l-.342.101-.646-.016c-.36-.009-.586-.006-.518.01.07.012.399.025.734.025l.608.003.53-.176c.289-.097.537-.188.546-.203.025-.041-.003-.035-.301.066ZM12.146 17.137c-.05.016-.286.029-.518.025-.232 0-.435 0-.454.004-.082.018.317.056.611.06.267 0 .351-.01.44-.06.115-.063.078-.079-.08-.029ZM13.798 11.258c-.11.022-.41.07-.674.104a8.587 8.587 0 0 0-.869.163c-.37.09-.432.1-1.097.113-.398.01-.809 0-.94-.016-.822-.113-1.775-.226-1.816-.22-.069.016.517.139 1.047.223.383.06.565.07 1.396.07.915-.004.975-.007 1.373-.089.229-.043.608-.103.847-.131.423-.047.824-.12.978-.179.062-.022.069-.034.031-.056a.14.14 0 0 0-.063-.029l-.213.047ZM8.173 11.387a.418.418 0 0 0 .125 0c.029-.01-.003-.016-.072-.013-.069 0-.094.007-.053.013ZM14.67 18.047c.043.018.15.047.235.062.088.02.194.047.241.066.044.016.11.025.141.016.035-.006 0-.028-.09-.053-.085-.022-.151-.05-.151-.063 0-.013-.031-.022-.07-.022a1.468 1.468 0 0 1-.228-.019c-.125-.016-.141-.016-.078.013Z"/><path fill="#757575" d="M9.993 6.116c.314.141.502.389.44.574-.041.113-.101.132-.073.022.02-.085-.012-.116-.458-.42-.291-.2-.366-.314-.184-.276.056.01.181.056.275.1Z"/></svg>