<svg xmlns="http://www.w3.org/2000/svg" width="24" height="24" fill="#000000"><path fill="#8a8a8a" d="M24 12c0 6.627-5.373 12-12 12S0 18.627 0 12 5.373 0 12 0s12 5.373 12 12Z"/><path fill="#000000" fill-rule="evenodd" d="M12 23.368c6.279 0 11.368-5.09 11.368-11.368C23.368 5.721 18.278.632 12 .632 5.721.632.632 5.722.632 12c0 6.279 5.09 11.368 11.368 11.368ZM12 24c6.627 0 12-5.373 12-12S18.627 0 12 0 0 5.373 0 12s5.373 12 12 12Z" clip-rule="evenodd"/><mask id="a" width="24" height="24" x="0" y="0" maskUnits="userSpaceOnUse" style="mask-type:alpha"><circle cx="12" cy="12" r="6" fill="#8a8a8a" stroke="#000000" stroke-width="12"/></mask><g fill-rule="evenodd" clip-rule="evenodd" mask="url(#a)"><path fill="#ebebeb" d="m13.462 8.055-.253.01c-.905.032-1.849.134-2.696.291-1.589.294-2.84.76-3.63 1.352-.422.316-.67.628-.797 1.005-.04.117-.045.525-.009.649.229.776 1.203 1.472 2.765 1.973.256.082.856.25 1.195.333 1.68.414 3.749.575 5.748.447 2.743-.175 5.058-.884 6.087-1.862.67-.636.73-1.37.165-2.023-.509-.587-1.495-1.105-2.808-1.474a15.5 15.5 0 0 0-1.632-.393 18.62 18.62 0 0 0-2.643-.296 44.307 44.307 0 0 0-1.492-.012Z"/><path fill="#8a8a8a" d="M17.3 4.214c-.568.193-.906.516-.967.929l-.041.274-.344-.036c-.517-.055-1.447.067-1.905.25a4.499 4.499 0 0 0-.851.503l-.569.43c-.1.075-.132.07-.251-.037-.48-.433-1.256-.753-1.835-.755-.208-.001-.23-.017-.236-.17-.005-.147-.01-.153-.045-.04-.029.092-.076.12-.163.099-.067-.017-.53-.036-1.027-.042-.835-.01-.912-.021-.993-.137-.048-.07-.074-.14-.058-.156.017-.017-.087-.132-.231-.257-.346-.3-.403-.344-.446-.344-.02 0-.105-.069-.189-.153a.786.786 0 0 0-.318-.19 3.728 3.728 0 0 1-.255-.065c-.22-.07-.987-.09-1.326-.033-.338.056-.406.095-.694.39-.393.402-.453.546-.402.959.03.247.086.372.236.532.108.115.236.284.285.374.108.204.434.556.549.594.072.024.069.071-.017.287-.057.142-.098.28-.092.304.006.025-.014.198-.044.384s-.059.366-.063.4c-.08.694-.107.778-.325.986-.123.117-.252.212-.287.212-.08.001-.578.521-.578.605 0 .034-.021.071-.046.083-.133.06-.679 1.18-.812 1.67-.069.25-.275.752-.46 1.116-.691 1.368-.973 2.578-.974 4.184 0 1.088.078 1.681.342 2.58.069.236.138.499.153.585.038.213.55 1.28.898 1.866.646 1.091 1.475 2.017 2.304 2.572.564.377 1.374.77 1.764.856.16.035.455.116.657.181.202.065.698.178 1.102.25.65.117.891.13 2.082.103 1.167-.025 1.433-.05 1.99-.185 2.763-.669 4.9-2.304 5.969-4.566.12-.256.235-.553.254-.662.02-.108.112-.446.207-.75.315-1.016.376-1.413.41-2.669.032-1.17.035-1.196.2-1.445.092-.14.216-.392.275-.561.21-.604.838-1.635 1.043-1.714.056-.022.091-.115.091-.246 0-.176.029-.221.17-.271.095-.033.239-.159.322-.28a1.1 1.1 0 0 1 .29-.296c.169-.09.242-.337.146-.49-.055-.09-.038-.17.089-.407.13-.244.153-.351.129-.632a2.26 2.26 0 0 0-.136-.584 1.348 1.348 0 0 1-.097-.492c.01-.267-.178-.646-.32-.646-.045 0-.168-.132-.272-.292-.444-.684-.838-1.085-1.366-1.393a47.52 47.52 0 0 1-.659-.389c-.193-.12-.622-.512-.622-.57 0-.025.11-.119.243-.208.368-.244.613-.716.612-1.177-.001-.63-.278-1.04-.872-1.29-.343-.143-1.082-.11-1.623.072Zm-7.054 5.577c0 .013-.04.141-.091.285-.121.344-.115.592.024.892.153.333.382.524.913.764 1.066.482 1.675.49 2.104.027.24-.258.492-.971.468-1.327-.019-.28-.015-.288.134-.252.403.097.707.248.782.39.112.211.06.751-.117 1.197a1.183 1.183 0 0 1-.451.599c-.424.324-.777.416-1.588.416-1.066 0-1.725-.133-2.484-.5a16.203 16.203 0 0 0-.977-.437c-.451-.171-.882-.48-1.296-.93l-.344-.373.405-.135c.224-.074.599-.21.835-.301.235-.092.676-.202.98-.246.656-.094.703-.098.703-.069Zm1.286.408c0 .143-.213.173-.265.037-.04-.108.008-.16.153-.16.071 0 .112.045.112.123Zm10.393.216c.155.092.212.187.296.501.099.366.099.403-.001.666a1.51 1.51 0 0 1-.275.447c-.19.191-.952.584-1.32.682-1.384.367-2.805.507-3.968.393-.723-.071-.702-.065-2.018-.614-.261-.11-.275-.153-.112-.361.065-.082.166-.367.226-.632l.108-.483.201.085c.437.183 1.063.102 2.542-.329.083-.024.11.034.145.314.059.477.315.868.668 1.02.381.164.887.248 1.504.248.484 0 .553-.016.803-.183.424-.281.569-.627.572-1.359l.002-.588.218.04c.12.021.304.09.41.153Zm-8.923.145c0 .177-.15.277-.244.163-.102-.123-.035-.278.12-.278.08 0 .124.04.124.115Zm6.11.02c.122.122.084.234-.08.234-.107 0-.153-.034-.153-.113 0-.192.107-.248.233-.12Zm1.573.049c.05.155-.006.246-.15.246-.126 0-.2-.138-.147-.276.051-.134.252-.114.297.03Zm-9.109.347c.064.196-.42.41-.574.254-.082-.082-.073-.107.078-.226.175-.138.455-.154.496-.028Zm7.837.43c.034.104-.284.454-.413.454-.252 0-.216-.313.052-.46.183-.101.326-.099.36.006Z"/><path fill="#4f4f4f" d="M17.3 4.214c-.568.193-.906.516-.967.929l-.041.274-.344-.036c-.517-.055-1.447.067-1.905.25a4.5 4.5 0 0 0-.851.503l-.569.43c-.1.075-.132.07-.251-.037-.48-.433-1.256-.753-1.835-.755-.208-.001-.23-.017-.236-.17-.005-.147-.01-.153-.045-.04-.027.087-.08.122-.163.108a14.964 14.964 0 0 0-.98-.028c-.897-.008-1.094-.03-1.04-.118.018-.029.004-.07-.03-.092-.036-.021-.05-.062-.033-.09.035-.056-.576-.617-.672-.617-.02 0-.105-.07-.19-.154-.083-.084-.172-.156-.195-.158a6.235 6.235 0 0 1-.503-.11 3.56 3.56 0 0 0-.765-.04c-.53.025-.633.04-.75.114-.042.026-.077.034-.077.017 0-.016-.151.127-.336.32-.36.373-.445.593-.362.944.027.113.043.224.038.248-.006.023.085.145.202.27.118.125.213.25.213.28 0 .029.028.053.062.053.033 0 .061.04.061.089 0 .049.048.117.107.152.059.034.086.063.059.064-.073.003.15.22.313.306.135.07.137.08.042.227a1.142 1.142 0 0 0-.13.41c-.016.143-.041.3-.056.35-.015.052-.042.231-.06.4-.017.17-.043.363-.057.431a1.758 1.758 0 0 0-.03.23c-.004.11-.413.539-.512.539-.08 0-.592.512-.593.594-.001.04-.022.081-.047.093-.133.059-.679 1.18-.812 1.67-.069.25-.275.752-.46 1.116-.691 1.368-.973 2.578-.974 4.184 0 1.088.078 1.681.342 2.58.069.236.138.496.153.58.048.265.812 1.74 1.232 2.375.94 1.424 2.397 2.55 3.786 2.924.26.07.496.14.522.157a9.6 9.6 0 0 0 .77.19c.606.136.917.166 1.947.189 1.05.023 1.335.009 1.982-.102 2.38-.406 4.462-1.631 5.762-3.393.384-.52 1.041-1.774 1.041-1.986 0-.065.08-.37.178-.678.32-1.002.383-1.41.417-2.675.032-1.17.035-1.196.2-1.445.092-.14.216-.392.275-.561.21-.604.838-1.635 1.043-1.714.056-.022.091-.115.091-.246 0-.176.029-.221.17-.271.095-.033.239-.16.322-.28.082-.122.213-.255.29-.296.169-.091.242-.337.146-.49-.055-.09-.038-.17.089-.407.13-.244.153-.351.129-.632a2.258 2.258 0 0 0-.136-.584 1.349 1.349 0 0 1-.097-.492c.01-.267-.178-.646-.32-.646-.045 0-.168-.132-.272-.292-.444-.684-.838-1.085-1.366-1.393a47.52 47.52 0 0 1-.659-.389c-.193-.12-.622-.512-.622-.57 0-.025.11-.119.243-.208.368-.244.613-.716.612-1.177-.001-.63-.278-1.04-.872-1.29-.343-.143-1.082-.11-1.623.072Zm1.334.58a.935.935 0 0 1 .408 1.178c-.154.371-.232.388-.665.147a58.93 58.93 0 0 0-.794-.434c-.226-.121-.426-.273-.447-.34-.052-.166.117-.474.32-.585.261-.142.899-.124 1.178.034Zm-11.747.204c.113.049.286.175.383.28.305.33.209.417-1.193 1.07-.189.089-.376.16-.416.16-.112 0-.373-.614-.373-.879-.001-.258.185-.484.52-.633.244-.109.822-.108 1.079.002Zm3.36 4.793c0 .013-.042.141-.092.285-.099.28-.121.627-.046.702a.192.192 0 0 1 .05.087c.024.177.43.687.547.687.02 0 .152.053.294.117.141.065.279.118.306.118.027 0 .11.04.184.088.272.177 1.025.273 1.305.166.33-.126.695-.628.78-1.073a.442.442 0 0 1 .05-.123c.02-.034.033-.206.028-.382-.009-.295 0-.318.117-.289.07.018.18.042.245.055a.651.651 0 0 1 .135.034.196.196 0 0 0 .06.023c.417.089.55.547.36 1.235-.11.397-.517.954-.698.954-.028 0-.105.048-.17.107a.7.7 0 0 1-.302.138c-.28.047-1.794.037-2.174-.014-.578-.078-.609-.084-.652-.128-.023-.023-.092-.042-.154-.042s-.113-.02-.113-.046c0-.053-.557-.297-.627-.276-.025.008-.046-.01-.046-.04 0-.046-.305-.204-.444-.23a.348.348 0 0 1-.076-.023.951.951 0 0 1-.245-.104.654.654 0 0 0-.184-.074.374.374 0 0 1-.153-.084 4.787 4.787 0 0 0-.306-.224 4.943 4.943 0 0 1-.571-.519l-.357-.372.25-.074c.139-.04.285-.087.327-.103a.264.264 0 0 1 .109-.022c.018.004.105-.04.193-.098.088-.058.234-.119.324-.135a.65.65 0 0 0 .25-.102c.048-.04.087-.053.087-.03s.035.02.077-.006c.108-.068.203-.085.688-.121.236-.018.44-.044.454-.059.032-.032.19-.034.19-.003Zm1.285.415c0 .073-.043.116-.116.116-.117 0-.216-.153-.16-.246.057-.091.276.012.276.13Zm10.21.065c.042.005.076.027.076.048 0 .02.083.087.183.146.1.06.18.128.176.152a.176.176 0 0 0 .006.074c.022.057.07.276.102.473.058.353-.408 1.126-.679 1.126-.047 0-.128.043-.18.096a.493.493 0 0 1-.215.118 1.087 1.087 0 0 0-.261.102 1.167 1.167 0 0 1-.25.111c-.017.015-.194.054-.412.091a4.716 4.716 0 0 0-.306.065l-.245.062c-.05.012-.092.026-.092.032 0 .035-.945.137-1.186.129a1.773 1.773 0 0 0-.435.054c-.302.082-1.978-.075-2.307-.216a2.864 2.864 0 0 0-.297-.114.97.97 0 0 1-.19-.085c-.072-.04-.148-.054-.17-.033-.02.021-.038.007-.038-.033s-.038-.072-.085-.072c-.047 0-.199-.05-.338-.113l-.252-.114.121-.155c.067-.085.104-.172.083-.194-.022-.021-.007-.039.032-.039.04 0 .067-.02.062-.046a.33.33 0 0 1 .026-.138c.02-.05.052-.175.072-.277.02-.101.047-.226.061-.277.014-.05.027-.126.03-.168.003-.058.065-.052.248.021.271.11 1.001.093 1.44-.032.265-.076.437-.122.582-.158a.281.281 0 0 0 .092-.031.66.66 0 0 1 .148-.037.596.596 0 0 0 .229-.095c.06-.05.087-.045.107.017.052.167.121.455.13.545l.02.165a.36.36 0 0 0 .085.156c.042.046.107.138.144.204.065.116.226.22.484.311.361.128.56.157 1.261.183.64.024.654.022.934-.165.161-.107.301-.254.322-.337.02-.082.063-.148.095-.148s.042-.026.023-.057a.068.068 0 0 1 .023-.094c.068-.042.071-.073.086-.776l.01-.528.185.021.26.03Zm-8.725.312c-.045.178-.143.242-.243.158-.128-.106-.093-.285.06-.31.191-.032.223-.006.183.152Zm7.67.053c.02.063.02.143-.001.177-.054.089-.274.077-.285-.014-.04-.33-.03-.353.13-.311a.249.249 0 0 1 .157.148Zm-1.575-.056c.118.118.086.217-.081.25-.186.035-.215-.002-.146-.185.058-.156.12-.173.227-.065Zm-7.553.351c.106.171-.269.423-.512.346-.175-.056-.16-.169.041-.293.184-.115.417-.14.471-.053Zm7.836.415c.063.165-.21.512-.403.513-.3 0-.237-.325.096-.5.252-.13.262-.13.307-.013Z"/><path fill="#404040" d="M17.637 4.148a2.605 2.605 0 0 0-.46.146c-.177.103.08.079.344-.032.135-.057.439-.1.75-.108.491-.01.539 0 .848.191.18.111.309.173.287.137-.023-.036-.184-.147-.358-.248-.366-.21-.794-.236-1.411-.086Zm-11.462.12c-.01.01-.28.024-.6.033-.321.008-.618.042-.66.074-.042.033-.077.043-.077.024 0-.02-.131.108-.291.284-.16.176-.31.328-.334.339-.023.01-.027.059-.009.107.019.049.003.089-.034.089-.087 0-.09.409-.003.462.035.022.055.086.044.142-.011.056.077.209.196.34.12.13.209.264.2.296-.01.032.011.04.046.02.056-.035.074.007.057.131-.003.023.039.066.093.096.055.03.083.082.063.115-.02.032-.002.051.041.042.044-.01.081.024.084.075.004.05.04.085.08.077.04-.009.074.012.074.046s.033.055.073.046c.114-.024.128.174.02.282-.054.054-.097.112-.095.13 0 .019 0 .04-.004.049a10.17 10.17 0 0 0-.033.412c-.015.219-.048.412-.073.43-.025.018-.048.102-.051.186-.02.546-.073.695-.332.932-.143.13-.27.227-.282.214-.03-.03-.536.467-.54.53 0 .027-.043.075-.094.107-.05.032-.072.058-.047.059.024 0-.077.201-.226.446-.148.246-.33.64-.401.876-.155.505-.375 1.057-.759 1.903-.543 1.197-.774 2.308-.775 3.72 0 .981.108 1.772.343 2.513.08.254.147.518.147.587.001.21.765 1.69 1.235 2.395.493.738 1.224 1.513 1.843 1.952.553.392 1.555.882 2.027.99.212.048.537.129.722.179 1.034.279 1.31.314 2.515.318 1.324.004 2-.07 2.883-.32 2.55-.719 4.579-2.355 5.562-4.486.12-.26.218-.543.218-.63 0-.085.081-.401.181-.702.317-.951.433-1.676.452-2.831l.016-1.044-.146.183c-.081.101-.18.267-.22.369-.29.726-1.055 1.184-2.318 1.386-.425.068-.978.246-2.09.673-1.055.405-1.396.46-3.71.594-.472.027-1.59.05-2.484.05-1.525 0-1.68-.01-2.515-.172-1.804-.347-2.403-.493-2.605-.634a.514.514 0 0 0-.248-.085c-.158 0-.527-.378-.693-.71-.179-.358-.3-.893-.355-1.562-.057-.695-.042-1.021.067-1.474.045-.186.1-.476.124-.645.084-.614.646-2.62.841-3.006.344-.677.821-1.273 1.268-1.584l.27-.188-.043.38c-.024.21-.096.504-.16.655-.065.15-.093.273-.062.273.087 0 .292-.614.338-1.014.023-.202.08-.589.125-.859.046-.27.102-.67.125-.89.054-.534.139-.717.515-1.121.215-.232.42-.383.635-.468.66-.26 1.503-.56 1.572-.56.112 0 .449-.19.408-.23-.02-.02-.098-.007-.174.03-.076.038-.483.182-.905.32-.96.313-1.238.453-1.577.793-.346.346-.416.318-.95-.392-.436-.58-.527-.862-.413-1.277.074-.267.422-.56.83-.7.221-.075.418-.089.86-.06.594.04.88.138 1.292.447.107.081.223.147.258.147.034 0 .135.096.225.214s.188.2.218.181c.03-.018-.077-.146-.237-.284a3.298 3.298 0 0 1-.336-.32c-.026-.038-.046-.041-.046-.006 0 .034-.066-.014-.145-.106-.08-.093-.163-.15-.184-.128-.022.022-.04.006-.04-.036 0-.041-.028-.058-.062-.037-.033.02-.06.007-.06-.03 0-.039-.025-.054-.055-.036-.03.019-.18-.004-.334-.05-.154-.047-.288-.077-.299-.067Zm10.65.18c-.065.05-.09.091-.054.092.036.001.119-.039.184-.088.066-.05.09-.091.054-.092-.035-.001-.118.038-.184.088Zm2.768.309c.023.068.063.228.088.356.025.128.065.252.09.276.073.073-.04-.438-.133-.601-.053-.094-.071-.106-.045-.031Zm-3.128.074c-.034.088-.026.095.034.034.042-.041.06-.09.042-.11-.019-.019-.053.016-.076.076Zm-.091.3c.003.071.017.086.037.037.017-.045.015-.098-.005-.118-.02-.02-.035.016-.032.08Zm-.066.225c0 .059-.035.11-.077.115-.042.004.085.03.283.06.476.07 1.463.62 2.173 1.211.179.15.342.254.363.233.02-.02.006-.038-.034-.038-.142 0-.067-.222.112-.327.2-.119.53-.515.474-.57-.02-.02-.076.045-.127.144-.103.2-.563.532-.674.488a5.302 5.302 0 0 1-.474-.332c-.553-.417-1.309-.824-1.643-.887-.153-.029-.3-.086-.326-.128-.035-.055-.049-.046-.05.03Zm-1.565.09c-.251.035-.66.176-.969.334-.265.135-.83.543-.753.543.024 0 .134-.069.244-.152.11-.084.41-.25.666-.369.457-.211.805-.275 1.947-.359.152-.01 0-.02-.337-.021-.338-.001-.696.01-.798.024Zm-4.498.14c0 .085.014.12.031.077a.237.237 0 0 0 0-.154c-.017-.042-.03-.007-.03.077Zm-1.85.077c0 .025.273.046.605.046.333 0 .733.017.89.039.156.021.284.015.284-.015 0-.062 0-.062-1.027-.093-.413-.013-.752-.003-.752.023Zm2.055.164c.068.027.275.064.46.083l.338.034-.307-.081c-.355-.094-.7-.12-.49-.036Zm.982.202c.1.036.212.082.248.103.035.02.011-.01-.053-.07a.411.411 0 0 0-.248-.103c-.105.004-.095.018.053.07Zm.632.354c.278.202.332.29.758 1.23.28.619.349.834.25.786-.54-.264-1.618-.703-1.978-.806-1.054-.302-2.316-.295-3.281.02-.722.234-1.335.534-1.601.782-.107.1-.237.317-.296.495-.059.175-.131.334-.163.353a.132.132 0 0 0-.056.1c0 .155.179-.1.302-.43.144-.385.332-.57.84-.828a5.34 5.34 0 0 1 2.451-.593c.997-.003 1.743.127 2.46.428.33.14.723.297.871.35.308.111 1.078.81 1.373 1.246.104.152.268.37.365.483.098.113.168.215.157.227-.011.01-.177-.032-.369-.095a7.956 7.956 0 0 0-1.041-.214c-.381-.055-.955-.14-1.276-.19-.684-.105-1.728-.115-2.35-.021-.413.062-.608.122-1.645.508a5.31 5.31 0 0 1-.856.22c-.556.087-.608.127-.165.127h.34l.342.39c.38.433 1.031.901 1.451 1.042.152.05.442.174.644.275 1.08.534 1.497.627 2.791.624.961-.003 1.184-.05 1.6-.34.221-.153.255-.16.34-.075.219.218-.608.82-1.33.967a10.27 10.27 0 0 1-2.657.22 23.072 23.072 0 0 1-1.257-.074c-.186-.024-.263-.015-.223.024.108.106 1.782.198 2.546.14.696-.053 1.553-.186 1.953-.303.283-.083.767-.403.985-.651l.181-.207.771.307c.753.3.79.308 1.584.343 1.82.082 3.816-.274 4.799-.857.202-.12.388-.204.414-.189.126.079.022.33-.257.62-.497.517-1.362.827-2.534.91-.583.04-.603.038-.812-.122-.118-.09-.215-.137-.215-.103 0 .07.663.56.758.56.035 0 .01-.04-.056-.089-.157-.115-.085-.138.586-.181.5-.032 1.186-.192 1.464-.34.17-.092.237.042.126.251-.07.132-.068.136.028.057.067-.055.098-.155.087-.275-.014-.147.008-.193.104-.211.113-.022.893-.782.888-.866a.9.9 0 0 0-.085-.186c-.075-.133-.068-.173.062-.37.08-.12.162-.305.183-.41.038-.191-.113-.842-.227-.982-.032-.039-.042-.177-.022-.307.04-.27-.127-.608-.34-.686-.068-.026-.171-.134-.23-.241a6.518 6.518 0 0 0-.474-.65c-.46-.571-.878-.833-1.407-.882-.33-.03-.455-.006-1.108.225-.404.144-.985.389-1.29.545-.305.157-.622.316-.705.353-.083.037-.358.173-.611.301-.566.287-.96.342-1.207.17a4.829 4.829 0 0 0-.265-.172c-.192-.11.07.15.287.285a.599.599 0 0 0 .438.1c.124-.017.819-.321 1.544-.676 1.729-.846 2.322-1.053 2.907-1.015.629.042.853.18 1.417.876.263.323.463.602.445.62-.017.018-.221.044-.453.06-2.837.182-3.07.213-4.07.544-.784.258-1.268.47-1.731.756-.193.119-.387.202-.432.185-.044-.017-.12-.174-.167-.348a1.702 1.702 0 0 0-.277-.544 6.539 6.539 0 0 1-.336-.442 4.522 4.522 0 0 0-.456-.522 1.824 1.824 0 0 1-.473-.737 31.29 31.29 0 0 0-.394-.977l-.232-.547.133-.108c.073-.06.133-.129.133-.155 0-.025-.068.017-.15.095l-.151.141-.288-.253c-.158-.14-.315-.254-.35-.254-.033 0 .052.083.191.183ZM19.605 7.5a.157.157 0 0 0 .145.038c.047-.015.019-.043-.064-.065-.102-.026-.126-.018-.08.027Zm2.187 2.041c.223.094.384.423.314.644-.036.113-.047.114-.235.017-.16-.083-.36-.1-1.055-.09-1.462.02-2.1.107-3.002.408-1.365.457-1.76.549-2.237.522-.236-.014-.448-.045-.473-.07-.06-.06.115-.184.59-.415.22-.107.468-.23.552-.273.264-.136 1.544-.513 1.994-.588.533-.088 2.159-.221 2.838-.233.316-.005.586.025.714.078Zm-11.518.3c.024.024.008.044-.035.044-.044 0-.063.04-.043.092.02.05.006.092-.03.092-.037 0-.05.042-.031.092.02.051.008.093-.024.093-.033 0-.06.11-.06.245 0 .139.03.246.068.246.038 0 .053.04.035.087-.019.049.007.122.056.163.05.04.079.086.065.1-.037.037.348.41.439.425a.826.826 0 0 1 .228.11c.081.054.19.097.242.097.052 0 .094.022.094.049 0 .026.06.053.133.058.072.006.15.04.174.078.023.037.067.063.097.057a.197.197 0 0 1 .087.002c.15.058.758.097.95.06a.387.387 0 0 1 .108-.004c.025.004.046-.022.046-.057 0-.036.02-.056.046-.045.025.012.142-.073.26-.189.118-.115.174-.19.123-.166-.05.024-.038 0 .027-.053.066-.053.097-.097.07-.097-.028 0-.016-.041.026-.092.042-.05.056-.092.03-.092-.025 0-.014-.037.023-.082.038-.046.05-.1.028-.123-.022-.022-.009-.04.03-.04.038 0 .053-.042.034-.093-.02-.05-.008-.092.027-.092.037 0 .054-.148.042-.371-.016-.31-.006-.36.064-.302.047.038.111.053.144.033.033-.02.078-.009.1.026.02.035.062.049.091.03.03-.017.07-.005.09.028.02.033.077.044.127.025.05-.02.09 0 .09.044 0 .043.016.062.035.042.057-.056.253.16.224.246-.015.042-.003.076.026.076.028 0 .052.125.052.277 0 .152-.02.276-.044.276-.024 0-.03.039-.011.086.018.047.005.103-.03.125-.035.021-.047.08-.028.129.019.05 0 .09-.04.09-.041 0-.059.041-.04.092.02.05.008.092-.027.092s-.046.028-.025.062c.02.033.004.061-.037.061-.042 0-.06.016-.041.034.038.039-.243.34-.296.318-.018-.008-.06.035-.094.095s-.087.092-.12.072c-.031-.02-.074.008-.094.06-.02.053-.061.08-.091.062-.03-.019-.055-.003-.055.035 0 .037-.029.05-.064.029-.035-.022-.098-.015-.138.016-.075.057-.882.112-1.393.096-.314-.01-.828-.06-.828-.082a.465.465 0 0 0-.153-.035 4.661 4.661 0 0 1-.49-.088.57.57 0 0 0-.11-.02.202.202 0 0 1-.128-.088c-.028-.044-.11-.085-.182-.09-.073-.006-.133-.034-.133-.062 0-.029-.027-.035-.061-.014-.034.02-.062.007-.062-.03 0-.039-.027-.052-.06-.032-.035.021-.062.008-.062-.03s-.028-.052-.062-.031c-.033.02-.06.007-.06-.03 0-.038-.028-.052-.062-.031-.034.02-.062.007-.062-.031s-.027-.052-.06-.03c-.035.02-.062.006-.062-.032 0-.037-.028-.051-.062-.03-.033.02-.06.007-.06-.03 0-.039-.027-.054-.058-.034-.031.02-.075.007-.096-.028-.022-.035-.063-.049-.092-.031-.03.018-.07.004-.092-.03-.022-.036-.065-.048-.096-.029-.032.02-.058.007-.058-.028 0-.034-.038-.048-.085-.03-.047.018-.13-.03-.184-.107-.054-.078-.1-.114-.1-.082-.001.033-.03.011-.066-.048-.034-.06-.086-.095-.114-.078-.028.018-.067-.01-.086-.06-.02-.05-.072-.091-.118-.091-.097 0-.429-.332-.38-.38.018-.018-.066-.109-.188-.202-.247-.189-.241-.222.046-.256.111-.013.21-.05.221-.08.011-.032.06-.043.108-.024.048.018.088 0 .088-.041s.041-.059.092-.04c.05.02.092.008.092-.027s.025-.048.056-.028c.03.019.065.006.077-.029.011-.034.112-.074.224-.088a.693.693 0 0 0 .281-.09c.043-.036.097-.047.119-.025.022.022.04.005.04-.038s.04-.063.09-.044c.05.02.107.007.129-.027.021-.035.117-.045.216-.023.099.021.178.013.178-.02 0-.065.708-.061.775.005Zm1.28.338c.006.072-.027.145-.072.162-.138.053-.249-.026-.234-.168.017-.16 0-.147.163-.135.089.007.137.054.143.14Zm9.952.062c.273.02.322.034.322.094 0 .034.016.046.035.026.044-.044.308.211.287.276-.009.026.015.046.052.046s.052.041.033.09c-.019.05-.009.106.022.126.031.019.044.179.028.355-.042.468-.044.473-.103.473-.03 0-.04.025-.021.055.018.03-.01.072-.062.092-.052.02-.08.061-.061.092.018.03-.008.089-.058.13-.05.042-.091.058-.091.036 0-.023-.06.014-.132.082-.073.068-.156.109-.184.091-.029-.018-.052.002-.052.043 0 .042-.017.058-.038.037-.021-.02-.079.003-.128.052-.05.05-.115.074-.146.055-.03-.02-.056-.004-.056.034 0 .038-.028.051-.061.03-.034-.02-.062-.007-.062.031s-.027.052-.061.03c-.034-.02-.062-.005-.062.035 0 .039-.04.055-.091.036-.051-.02-.092-.01-.092.02s-.049.058-.108.06c-.251.01-.419.038-.49.084-.043.027-.103.034-.134.014-.032-.02-.076-.005-.099.032-.022.036-.08.051-.126.033-.048-.018-.086-.009-.086.02 0 .03-.062.056-.138.06-.076.004-.276.02-.445.038-1.35.133-2.73.14-2.897.012a.193.193 0 0 0-.167-.023c-.05.02-.107.008-.127-.025-.02-.032-.061-.045-.09-.027-.03.018-.07.005-.092-.03-.022-.035-.065-.048-.096-.028-.032.019-.057.004-.057-.034 0-.037-.028-.051-.062-.03-.034.02-.061.007-.061-.031s-.026-.053-.057-.034c-.032.02-.075.007-.096-.028-.022-.034-.065-.047-.097-.028-.031.02-.057.005-.057-.033s-.027-.052-.061-.03c-.034.02-.061.005-.061-.034 0-.04-.041-.056-.09-.037-.05.019-.107.007-.127-.025a.069.069 0 0 0-.094-.025c-.032.02-.057.005-.057-.033s-.028-.052-.062-.03c-.034.02-.061.008-.061-.028 0-.036-.035-.058-.077-.05-.107.022-.058-.205.067-.309.075-.061.077-.073.01-.044-.05.022-.039-.003.027-.057.065-.053.096-.096.069-.096-.027 0-.024-.035.008-.077a.587.587 0 0 0 .069-.255.538.538 0 0 1 .067-.246c.06-.072.064-.088.071-.297.003-.077.02-.104.036-.062.017.042.082.077.145.077.063 0 .128.024.146.052.054.088 1.009.068 1.186-.024.088-.046.184-.069.213-.05.03.018.093 0 .14-.04.048-.04.114-.055.146-.034.033.02.079.007.101-.03.023-.037.08-.052.125-.034.047.017.1.005.121-.028.02-.033.06-.045.09-.027.029.018.07.004.092-.03.021-.036.065-.048.096-.029.031.02.057.004.057-.035 0-.038.034-.059.075-.045.08.027.18.35.182.584.001.076.028.138.06.138s.041.028.02.062c-.02.034-.007.061.031.061s.053.025.035.055c-.019.03.011.072.066.094.055.02.083.056.061.078-.054.054.148.27.214.229.03-.018.053-.002.053.035 0 .038.024.055.053.037.029-.018.103.005.166.05.062.047.146.071.187.056.04-.015.09 0 .112.036.022.035.12.047.22.027s.183-.01.183.021c0 .033.274.062.613.066.372.004.613-.017.613-.054 0-.034.026-.045.058-.026.031.02.116-.027.187-.104.072-.077.163-.14.203-.14.04 0 .074-.033.074-.074 0-.041.047-.131.106-.2.059-.068.09-.124.07-.124-.021 0-.005-.04.036-.09.04-.049.056-.118.034-.153-.021-.036-.02-.097.005-.136.061-.099.066-.973.005-.973-.027 0-.03-.03-.007-.068.024-.039.058-.044.08-.011.021.031.1.06.177.067Zm-8.475.28c.008.056-.025.143-.075.193-.072.072-.112.075-.209.015-.066-.041-.12-.104-.12-.14 0-.194.376-.258.404-.069Zm7.675.122c.017.127-.01.178-.118.219-.155.058-.254.029-.2-.06.02-.031.005-.057-.033-.057-.04 0-.048-.032-.02-.077a.474.474 0 0 0 .058-.123c.015-.083.023-.087.157-.077.096.007.14.057.156.175Zm-1.554-.053c.157.12.09.253-.123.244-.13-.006-.176-.039-.176-.125 0-.107.076-.21.153-.207.017 0 .083.04.146.088Zm-7.588.312c.054.053.038.109-.067.231-.077.09-.157.144-.18.123-.021-.022-.039-.008-.039.031 0 .1-.175.09-.28-.016-.048-.048-.088-.103-.088-.123 0-.066.235-.27.271-.234.02.02.036.005.036-.032 0-.087.253-.072.347.02Zm7.82.41c.026.22.007.273-.16.432-.196.188-.321.196-.426.028-.052-.085-.047-.123.024-.168.05-.032.068-.06.039-.06-.03 0-.02-.042.022-.092.042-.05.1-.076.13-.058.03.018.054.003.054-.035 0-.038.028-.052.062-.03.034.02.061.008.061-.028 0-.092.182-.081.193.012Zm-4.947 2.067c-.677.312-1.135.726-1.366 1.235-.524 1.152-.627 1.647-.465 2.225.149.533.462.82 1.27 1.164l.62.265.798-.003c1.408-.006 2.092-.181 2.472-.633.518-.616.589-1.002.385-2.097a12.22 12.22 0 0 0-.2-.921c-.074-.231-.717-.945-.969-1.074-.54-.276-2.083-.374-2.545-.161Zm1.767.073c.536.08.987.331 1.333.742.302.36.334.444.517 1.384.198 1.014.16 1.25-.305 1.906-.299.42-.598.524-1.993.688-.72.084-1.037.038-1.748-.253-.782-.32-1.156-.657-1.29-1.159a1.63 1.63 0 0 1-.05-.61c.039-.28.51-1.523.661-1.751.247-.371.761-.752 1.253-.928.275-.099 1.034-.107 1.622-.02Zm-1.34.514c-.347.347-.061.966.553 1.2.139.053.155.093.155.39 0 .182-.018.459-.04.615-.046.34-.029.336-.889.158-.338-.07-.654-.113-.702-.094-.122.047-.109.368.02.479.39.333 1.405.725 1.883.725.301 0 1.18-.545 1.394-.866.215-.32.215-.567-.001-.598-.084-.012-.2.032-.277.105-.21.198-.558.315-.935.315h-.348l.04-.285c.02-.157.038-.433.038-.614 0-.248.022-.33.09-.33.124 0 .51-.349.619-.558.123-.239.111-.44-.038-.63-.123-.157-.149-.162-.77-.162-.6 0-.652.01-.793.15Zm6.01.038c-.022.036-.027.079-.01.095.015.016.045-.014.065-.066.041-.108.006-.127-.055-.03Zm-.52.748a3.24 3.24 0 0 0-.223.476c-.055.152-.151.4-.214.553-.08.198-.087.242-.021.157.05-.066.148-.273.216-.46.069-.188.195-.473.28-.634.175-.33.148-.396-.038-.092Zm-3.875 3.893c.02.133-.001.148-.846.62-.152.085-.359.203-.46.262-.174.103-1.03.36-2.055.618-.641.161-2.36.304-3.626.3-1.14-.003-1.52-.038-2.63-.242a130.29 130.29 0 0 0-1.38-.245c-.844-.145-1.138-.25-1.53-.546-.17-.13-.398-.28-.506-.336-.23-.12-.3-.213-.218-.295.038-.038.155-.016.329.062.425.19 1.344.434 1.903.504.282.035.761.121 1.065.192.98.227 3.008.22 6.102-.018.586-.045 1-.115 1.411-.239.627-.188 1.615-.538 1.963-.695.283-.128.455-.107.478.058Z"/><path fill="#242424" d="M17.637 4.148a2.6 2.6 0 0 0-.46.147c-.177.103.08.079.344-.033.135-.057.439-.1.75-.107.491-.011.539 0 .848.19.18.112.309.174.287.138-.023-.036-.184-.148-.358-.248-.366-.21-.794-.237-1.411-.087Zm-11.462.12c-.01.01-.28.025-.6.034-.321.008-.618.042-.66.074-.042.033-.077.043-.077.023 0-.02-.131.109-.291.285-.16.177-.31.33-.334.34-.023.01-.027.06-.009.108.019.048.003.088-.034.088-.087 0-.09.41-.003.464.035.022.055.086.044.142-.011.056.077.21.196.34.12.132.209.265.2.297-.01.033.011.041.046.02.056-.035.074.007.057.132-.003.022.039.066.093.096.055.03.083.082.063.115-.02.033-.002.052.041.042.044-.009.081.025.084.076.004.05.04.085.08.077.04-.009.074.012.074.046s.033.054.073.046c.114-.024.128.174.02.283-.054.053-.097.112-.095.13 0 .018 0 .04-.004.049-.003.008-.018.194-.033.413-.015.22-.048.413-.073.431-.025.018-.048.102-.051.187-.02.546-.073.696-.332.934-.143.13-.27.227-.282.214-.03-.03-.536.468-.54.531 0 .027-.043.075-.094.107-.05.032-.072.059-.047.06.024 0-.077.201-.226.447-.148.246-.33.64-.401.877-.155.507-.375 1.06-.759 1.908-.543 1.2-.774 2.313-.775 3.731 0 .957.097 1.703.317 2.424.072.237.15.528.172.646l.04.216.26-.512c.143-.282.384-.637.535-.789.316-.318.383-.316.823.017.542.41 1.07.606 1.993.737.211.03.858.152 1.656.313.462.093.859.11 2.423.108 1.241-.001 2.046-.03 2.392-.084.671-.105 1.649-.335 2.11-.495.2-.07.42-.126.49-.126.144 0 .144 0 1.168-.58.83-.468.77-.464 1.542-.095.623.299 1.042.752 1.35 1.46.18.414.246.482.215.222-.004-.038.078-.326.182-.64.325-.973.44-1.694.46-2.86l.016-1.046-.146.184c-.081.1-.18.267-.22.369-.29.727-1.055 1.187-2.318 1.39-.425.067-.978.246-2.09.674-1.055.406-1.396.46-3.71.595-.472.027-1.59.05-2.484.05-1.525 0-1.68-.01-2.515-.172-1.804-.348-2.403-.494-2.605-.636a.514.514 0 0 0-.248-.085c-.158 0-.527-.378-.693-.711-.179-.36-.3-.895-.355-1.566-.057-.696-.042-1.023.067-1.477.045-.187.1-.477.124-.647.084-.615.646-2.626.841-3.012.344-.68.821-1.277 1.268-1.588l.27-.188-.043.38c-.024.21-.096.505-.16.656-.064.151-.093.275-.062.275.087 0 .292-.616.338-1.017.023-.203.08-.59.125-.86.046-.272.102-.673.125-.893.054-.535.139-.719.515-1.124.215-.232.42-.383.635-.468.66-.26 1.503-.563 1.572-.563.112 0 .449-.19.408-.23-.02-.02-.098-.006-.174.032-.076.037-.483.18-.905.319-.96.315-1.238.455-1.577.795-.346.347-.416.319-.95-.393-.436-.581-.527-.864-.413-1.28.074-.267.422-.561.83-.7.221-.076.418-.09.86-.061.594.039.88.138 1.292.448.107.08.223.147.258.147.034 0 .135.097.225.215s.188.2.218.181c.03-.018-.077-.147-.237-.285a3.3 3.3 0 0 1-.336-.32c-.026-.039-.046-.042-.046-.006 0 .033-.066-.015-.145-.107-.08-.093-.163-.15-.184-.128-.022.022-.04.006-.04-.036 0-.041-.028-.058-.062-.037-.033.02-.06.007-.06-.03 0-.039-.025-.055-.055-.036-.03.018-.18-.005-.334-.051-.154-.047-.288-.076-.299-.066Zm10.65.18c-.065.05-.09.092-.054.093.036.001.119-.039.184-.088.066-.05.09-.091.054-.093-.035 0-.118.04-.184.089Zm2.768.31c.023.068.063.229.088.357.025.128.065.253.09.277.073.073-.04-.438-.133-.603-.053-.093-.071-.105-.045-.03Zm-3.128.075c-.034.088-.026.095.034.034.042-.041.06-.091.042-.11-.019-.019-.053.015-.076.076Zm-.091.3c.003.072.017.086.037.037.017-.044.015-.097-.005-.118-.02-.02-.035.016-.032.081Zm-.066.226c0 .059-.035.11-.077.115-.042.004.085.031.283.06.476.07 1.463.621 2.173 1.214.179.15.342.255.363.234.02-.021.006-.038-.034-.038-.142 0-.067-.223.112-.329.2-.118.53-.515.474-.571-.02-.02-.076.046-.127.145-.103.2-.563.533-.674.489a5.3 5.3 0 0 1-.474-.333c-.553-.417-1.309-.826-1.643-.889-.153-.028-.3-.086-.326-.128-.035-.055-.049-.046-.05.03Zm-1.565.09c-.251.035-.66.176-.969.335-.265.135-.83.544-.753.544.024 0 .134-.069.244-.153.11-.084.41-.25.666-.369.457-.212.805-.276 1.947-.36.152-.01 0-.02-.337-.021-.338-.001-.696.01-.798.024Zm-4.498.14c0 .085.014.12.031.077a.239.239 0 0 0 0-.153c-.017-.043-.03-.008-.03.077Zm-1.85.077c0 .026.273.047.605.047.333 0 .733.017.89.039.156.021.284.014.284-.016 0-.061 0-.061-1.027-.093-.413-.013-.752-.002-.752.023Zm2.055.165c.068.027.275.064.46.083l.338.034-.307-.08c-.355-.095-.7-.12-.49-.037Zm.982.203c.1.035.212.082.248.102.035.021.011-.01-.053-.07a.41.41 0 0 0-.248-.102c-.105.004-.095.018.053.07Zm.632.355c.278.202.332.29.758 1.232.28.62.349.836.25.788-.54-.264-1.618-.704-1.978-.808-1.054-.303-2.316-.295-3.281.02-.722.235-1.335.535-1.601.784-.107.1-.237.318-.296.496-.059.175-.131.335-.163.354a.132.132 0 0 0-.056.1c0 .156.179-.1.302-.43.144-.387.332-.573.84-.831A5.33 5.33 0 0 1 9.29 7.5c.997-.003 1.743.127 2.46.429.33.14.723.298.871.351.308.111 1.078.811 1.373 1.248.104.153.268.37.365.484.098.114.168.216.157.228-.011.011-.177-.032-.369-.095a7.929 7.929 0 0 0-1.041-.215c-.381-.055-.955-.14-1.276-.19-.684-.106-1.728-.115-2.35-.021-.413.062-.608.122-1.645.508a5.3 5.3 0 0 1-.856.222c-.556.087-.608.126-.165.126h.34l.342.391c.38.435 1.031.904 1.451 1.045.152.051.442.175.644.275 1.08.536 1.497.63 2.791.626.961-.003 1.184-.05 1.6-.34.221-.154.255-.161.34-.076.219.22-.608.822-1.33.97-.96.195-1.699.257-2.657.22a22.966 22.966 0 0 1-1.257-.074c-.186-.024-.263-.016-.223.024.108.106 1.782.199 2.546.14.696-.053 1.553-.187 1.953-.304.283-.083.767-.403.985-.652l.181-.208.771.308c.753.3.79.309 1.584.344 1.82.082 3.816-.275 4.799-.859.202-.12.388-.205.414-.19.126.08.022.332-.257.622-.497.518-1.362.83-2.534.912-.583.04-.603.038-.812-.123-.118-.09-.215-.136-.215-.103 0 .07.663.56.758.56.035 0 .01-.039-.056-.087-.157-.116-.085-.138.586-.182.5-.032 1.186-.192 1.464-.341.17-.092.237.043.126.252-.07.132-.068.136.028.057.067-.055.098-.155.087-.275-.014-.148.008-.194.104-.212.113-.022.893-.784.888-.868a.904.904 0 0 0-.085-.186c-.075-.134-.068-.174.062-.37a1.43 1.43 0 0 0 .183-.413c.038-.19-.113-.844-.227-.983-.032-.039-.042-.178-.022-.308.04-.27-.127-.61-.34-.688-.068-.025-.171-.134-.23-.241a6.532 6.532 0 0 0-.474-.653c-.46-.571-.878-.833-1.407-.883-.33-.03-.455-.005-1.108.226-.404.144-.985.39-1.29.546-.305.157-.622.316-.705.354-.083.037-.358.173-.611.302-.566.287-.96.343-1.207.17a4.818 4.818 0 0 0-.265-.173c-.192-.11.07.151.287.286a.598.598 0 0 0 .438.1c.124-.017.819-.322 1.544-.677 1.729-.848 2.322-1.055 2.907-1.017.629.041.853.18 1.417.877.263.325.463.604.445.622-.017.018-.221.045-.453.06-2.837.183-3.07.214-4.07.545-.784.26-1.268.471-1.731.758-.193.12-.387.203-.432.186-.044-.018-.12-.174-.167-.349a1.708 1.708 0 0 0-.277-.546 6.55 6.55 0 0 1-.336-.443 4.53 4.53 0 0 0-.456-.523 1.828 1.828 0 0 1-.473-.739 31.407 31.407 0 0 0-.394-.979l-.232-.548.133-.108c.073-.06.133-.13.133-.155 0-.026-.068.017-.15.095l-.151.141-.288-.254c-.158-.14-.315-.254-.35-.254-.033 0 .052.083.191.184Zm7.541 1.12a.157.157 0 0 0 .145.037c.047-.015.019-.043-.064-.065-.102-.027-.126-.019-.08.027Zm2.187 2.045c.223.093.384.424.314.645-.036.113-.047.114-.235.017-.16-.083-.36-.1-1.055-.09-1.462.02-2.1.107-3.002.41-1.365.457-1.76.549-2.237.522-.236-.014-.448-.045-.473-.07-.06-.06.115-.184.59-.416.22-.107.468-.23.552-.274.264-.136 1.544-.514 1.994-.589.533-.088 2.159-.222 2.838-.233.316-.005.586.024.714.078Zm-11.518.3c.024.025.008.044-.035.044-.044 0-.063.04-.043.093.02.05.006.092-.03.092-.037 0-.05.041-.031.092.02.051.008.093-.024.093-.033 0-.06.11-.06.246 0 .139.03.246.068.246.038 0 .053.04.035.088-.019.048.007.121.056.162.05.042.079.087.065.1-.037.038.348.413.439.427a.823.823 0 0 1 .228.11c.081.054.19.098.242.098.052 0 .094.022.094.048 0 .027.06.053.133.059.072.005.15.04.174.078.023.037.067.063.097.057a.197.197 0 0 1 .087.002c.15.058.758.097.95.06a.379.379 0 0 1 .108-.004c.025.004.046-.022.046-.057 0-.036.02-.056.046-.045.025.012.142-.073.26-.189.118-.116.174-.19.123-.167-.05.024-.038 0 .027-.053.066-.053.097-.097.07-.097-.028 0-.016-.041.026-.092.042-.051.056-.093.03-.093-.025 0-.014-.037.023-.082.038-.046.05-.101.028-.123-.022-.023-.009-.04.03-.04.038 0 .053-.042.034-.093-.02-.05-.008-.092.027-.092.037 0 .054-.15.042-.373-.016-.31-.006-.36.064-.302.047.038.111.053.144.033.033-.02.078-.009.1.026.02.035.062.049.091.03.03-.017.07-.005.09.028.02.033.077.044.127.025.05-.02.09 0 .09.044 0 .043.016.062.035.042.057-.056.253.16.224.247-.015.042-.003.076.026.076.028 0 .052.125.052.277 0 .153-.02.277-.044.277-.024 0-.03.04-.011.087.018.047.005.103-.03.125-.035.021-.047.08-.028.129.019.05 0 .09-.04.09-.041 0-.059.042-.04.093.02.05.008.092-.027.092s-.046.028-.025.062c.02.033.004.061-.037.061-.042 0-.06.016-.041.035.038.038-.243.34-.296.318-.018-.008-.06.035-.094.095s-.087.092-.12.073c-.031-.02-.074.007-.094.06-.02.052-.061.08-.091.061-.03-.018-.055-.003-.055.035 0 .038-.029.051-.064.03-.035-.023-.098-.015-.138.016-.075.056-.882.112-1.393.096-.314-.01-.828-.061-.828-.082a.465.465 0 0 0-.153-.035 4.672 4.672 0 0 1-.49-.088.569.569 0 0 0-.11-.02.201.201 0 0 1-.128-.09c-.028-.043-.11-.084-.182-.09-.073-.005-.133-.033-.133-.061 0-.029-.027-.035-.061-.014-.034.02-.062.007-.062-.031s-.027-.052-.06-.03c-.035.02-.062.006-.062-.032 0-.037-.028-.051-.062-.03-.033.02-.06.007-.06-.031s-.028-.052-.062-.031c-.034.02-.062.007-.062-.03 0-.039-.027-.053-.06-.032-.035.021-.062.008-.062-.03s-.028-.052-.062-.031c-.033.02-.06.007-.06-.03 0-.039-.027-.054-.058-.034-.031.02-.075.006-.096-.028-.022-.035-.063-.05-.092-.031-.03.018-.07.004-.092-.031-.022-.035-.065-.048-.096-.028-.032.02-.058.007-.058-.028s-.038-.048-.085-.03c-.047.018-.13-.03-.184-.108-.054-.078-.1-.114-.1-.081-.001.033-.03.01-.066-.05-.034-.06-.086-.094-.114-.077-.028.018-.067-.01-.086-.06-.02-.05-.072-.092-.118-.092-.097 0-.429-.332-.38-.38.018-.019-.066-.11-.188-.202-.247-.19-.241-.224.046-.257.111-.013.21-.05.221-.081.011-.032.06-.043.108-.024.048.019.088 0 .088-.04 0-.042.041-.06.092-.04.05.02.092.007.092-.028s.025-.048.056-.028c.03.019.065.006.077-.029.011-.034.112-.074.224-.088a.691.691 0 0 0 .281-.091c.043-.036.097-.047.119-.025.022.023.04.006.04-.037 0-.044.04-.063.09-.044.05.019.107.006.129-.028.021-.035.117-.045.216-.023.099.022.178.013.178-.02 0-.065.708-.061.775.006Zm1.28.339c.006.072-.027.145-.072.162-.138.054-.249-.026-.234-.168.017-.161 0-.147.163-.135.089.006.137.054.143.14Zm9.952.062c.273.02.322.034.322.095 0 .034.016.045.035.025.044-.043.308.212.287.277-.009.026.015.046.052.046s.052.041.033.09c-.019.05-.009.107.022.126.031.02.044.18.028.356-.042.47-.044.475-.103.475-.03 0-.04.025-.021.055.018.03-.01.072-.062.092-.052.02-.08.061-.061.092.018.03-.008.089-.058.13-.05.043-.091.058-.091.036 0-.022-.06.015-.132.083-.073.068-.156.109-.184.09-.029-.017-.052.003-.052.044 0 .042-.017.058-.038.037-.021-.02-.079.003-.128.052-.05.05-.115.075-.146.055-.03-.019-.056-.004-.056.034 0 .038-.028.052-.061.03-.034-.02-.062-.006-.062.032s-.027.051-.061.03c-.034-.02-.062-.005-.062.034 0 .04-.04.056-.091.037-.051-.02-.092-.01-.092.02s-.049.058-.108.06c-.251.01-.419.038-.49.084-.043.027-.103.034-.134.014-.032-.02-.076-.005-.099.032-.022.036-.08.052-.126.033-.048-.018-.086-.009-.086.02 0 .03-.062.057-.138.06-.076.005-.276.021-.445.038-1.35.134-2.73.14-2.897.012a.193.193 0 0 0-.167-.022c-.05.019-.107.008-.127-.025-.02-.033-.061-.045-.09-.027-.03.018-.07.004-.092-.031-.022-.035-.065-.048-.096-.028-.032.02-.057.004-.057-.034 0-.037-.028-.051-.062-.03-.034.02-.061.007-.061-.031s-.026-.053-.057-.034c-.032.02-.075.007-.096-.028-.022-.035-.065-.047-.097-.028-.031.02-.057.005-.057-.033s-.027-.052-.061-.031c-.034.02-.061.006-.061-.034s-.041-.056-.09-.037c-.05.02-.107.008-.127-.025a.069.069 0 0 0-.094-.024c-.032.019-.057.004-.057-.034 0-.038-.028-.052-.062-.03-.034.02-.061.008-.061-.028 0-.036-.035-.058-.077-.05-.107.022-.058-.206.067-.31.075-.061.077-.073.01-.044-.05.022-.039-.003.027-.057.065-.053.096-.096.069-.096-.027 0-.024-.035.008-.077a.59.59 0 0 0 .069-.256.54.54 0 0 1 .067-.246c.06-.073.064-.088.071-.299.003-.076.02-.103.036-.061.017.042.082.077.145.077.063 0 .128.024.146.052.054.088 1.009.068 1.186-.024.088-.046.184-.069.213-.05.03.018.093 0 .14-.04.048-.04.114-.055.146-.035.033.02.079.007.101-.03.023-.036.08-.052.125-.034.047.018.1.005.121-.027.02-.034.06-.046.09-.028.029.018.07.005.092-.03.021-.035.065-.048.096-.028.031.019.057.003.057-.035 0-.04.034-.06.075-.046.08.027.18.352.182.586.001.076.028.138.06.138s.041.028.02.062c-.02.034-.007.061.031.061s.053.025.035.055c-.019.03.011.073.066.094.055.021.083.057.061.079-.054.054.148.27.214.229.03-.018.053-.002.053.036 0 .037.024.054.053.036.029-.018.103.005.166.051.062.046.146.071.187.055.04-.015.09.001.112.036.022.035.12.047.22.027s.183-.01.183.022.274.062.613.066c.372.004.613-.017.613-.055 0-.033.026-.045.058-.025.031.02.116-.027.187-.104.072-.077.163-.14.203-.14.04 0 .074-.034.074-.075 0-.041.047-.131.106-.2s.09-.125.07-.125c-.021 0-.005-.04.036-.09.04-.05.056-.118.034-.154-.021-.035-.02-.096.005-.135.061-.1.066-.975.005-.975-.027 0-.03-.031-.007-.069.024-.039.058-.044.08-.011.021.031.1.061.177.067Zm-8.475.28c.008.057-.025.144-.075.194-.072.073-.112.075-.209.015-.066-.041-.12-.104-.12-.14 0-.195.376-.259.404-.07Zm7.675.123c.017.128-.01.178-.118.22-.155.058-.254.028-.2-.06.02-.032.005-.058-.033-.058-.04 0-.048-.032-.02-.077a.477.477 0 0 0 .058-.123c.015-.084.023-.087.157-.077.096.007.14.057.156.175Zm-1.554-.053c.157.12.09.254-.123.244-.13-.005-.176-.039-.176-.125 0-.107.076-.21.153-.207.017 0 .083.04.146.088Zm-7.588.313c.054.052.038.108-.067.231-.077.09-.157.145-.18.123-.021-.022-.039-.008-.039.032 0 .1-.175.09-.28-.016-.048-.049-.088-.104-.088-.123 0-.067.235-.271.271-.236.02.02.036.006.036-.032 0-.086.253-.072.347.02Zm7.82.411c.026.22.007.273-.16.432-.196.19-.321.197-.426.028-.052-.084-.047-.123.024-.168.05-.032.068-.06.039-.06-.03 0-.02-.042.022-.092.042-.05.1-.077.13-.058.03.018.054.002.054-.035 0-.038.028-.052.062-.031.034.02.061.008.061-.027 0-.093.182-.082.193.011Zm-4.947 2.07c-.677.314-1.135.729-1.366 1.239-.524 1.155-.627 1.65-.465 2.23.149.534.462.822 1.27 1.167l.62.265.798-.003c1.408-.006 2.092-.182 2.472-.634.518-.617.589-1.005.385-2.102-.073-.39-.163-.805-.2-.923-.074-.232-.717-.947-.969-1.076-.54-.277-2.083-.376-2.545-.162Zm1.767.074c.536.081.987.332 1.333.744.302.36.334.445.517 1.388.198 1.016.16 1.252-.305 1.91-.299.421-.598.525-1.993.689-.72.084-1.037.038-1.748-.254-.782-.32-1.156-.657-1.29-1.16a1.64 1.64 0 0 1-.05-.613c.039-.28.51-1.525.661-1.755.247-.371.761-.754 1.253-.93.275-.099 1.034-.107 1.622-.019Zm-1.34.516c-.347.347-.061.968.553 1.203.139.052.155.092.155.39 0 .182-.018.46-.04.617-.046.34-.029.336-.889.158-.338-.07-.654-.113-.702-.095-.122.047-.109.37.02.48.39.335 1.405.727 1.883.727.301 0 1.18-.546 1.394-.867.215-.322.215-.569-.001-.6-.084-.011-.2.033-.277.105-.21.198-.558.316-.935.316h-.348l.04-.286c.02-.157.038-.434.038-.615 0-.249.022-.33.09-.33.124 0 .51-.35.619-.56.123-.24.111-.442-.038-.632-.123-.157-.149-.162-.77-.162-.6 0-.652.01-.793.15Zm6.01.037c-.022.037-.027.08-.01.095.015.017.045-.013.065-.065.041-.109.006-.128-.055-.03Zm-.52.75c-.067.11-.167.325-.223.477-.055.153-.151.402-.214.554-.08.199-.087.243-.021.158.05-.066.148-.273.216-.462.069-.188.195-.473.28-.634.175-.33.148-.398-.038-.093Zm-3.875 3.902c.02.134-.001.149-.846.622a29.59 29.59 0 0 0-.46.263c-.174.102-1.03.36-2.055.618-.641.162-2.36.305-3.626.302-1.14-.003-1.52-.038-2.63-.243-.388-.072-1.009-.183-1.38-.246-.844-.145-1.138-.25-1.53-.547a4.65 4.65 0 0 0-.506-.337c-.23-.12-.3-.213-.218-.295.038-.039.155-.017.329.061.425.192 1.344.436 1.903.506.282.035.761.121 1.065.192.98.227 3.008.222 6.102-.017.586-.046 1-.116 1.411-.24.627-.189 1.615-.54 1.963-.697.283-.128.455-.107.478.058ZM4.98 23.416c.02.166.056.57.079.898.029.424.065.606.126.63.072.027.08-.076.046-.628-.053-.866-.1-1.137-.203-1.172-.068-.022-.078.033-.048.273Zm10.74.101c.134.466.28 1.08.28 1.183 0 .105.012.11.087.03.075-.077.074-.148-.001-.511a4.58 4.58 0 0 0-.176-.631c-.098-.236-.255-.294-.19-.071Z"/><path fill="#8a8a8a" d="M17.872 4.087c-.371.083-.776.216-.747.245.018.019.178-.015.355-.074.188-.062.528-.11.817-.113.458-.006.519.008.822.196.18.111.309.173.287.137-.023-.036-.184-.148-.358-.248-.262-.151-.383-.182-.686-.177a3.714 3.714 0 0 0-.49.034Zm-11.697.175c-.01.01-.28.026-.6.034-.321.009-.618.042-.66.075-.042.032-.077.043-.077.023 0-.02-.131.109-.291.285-.16.176-.31.329-.334.34-.023.01-.027.059-.009.107.019.049.003.089-.034.089-.087 0-.09.41-.003.463.035.022.055.086.044.142-.011.056.077.21.196.34.12.132.209.265.2.297-.01.032.011.041.046.02.056-.035.074.007.057.132-.003.022.039.065.093.096.055.03.083.082.063.115-.02.032-.002.051.041.042.044-.01.081.025.084.075.004.051.04.086.08.077.04-.008.074.013.074.046 0 .034.033.055.073.047.114-.024.128.174.02.282-.054.054-.097.113-.095.13 0 .019 0 .04-.004.049-.003.008-.018.194-.033.413-.015.22-.048.413-.073.43-.025.019-.048.103-.051.188-.02.546-.073.695-.332.933-.143.131-.27.227-.282.215-.03-.03-.536.467-.54.53 0 .027-.043.075-.094.107-.05.032-.072.059-.047.06.024 0-.077.201-.226.447a4.73 4.73 0 0 0-.401.877c-.155.506-.375 1.059-.759 1.906-.543 1.2-.774 2.312-.775 3.73 0 .909.095 1.682.288 2.33.055.187.132.459.17.605l.071.265.267-.497c.156-.29.39-.612.563-.775.342-.32.313-.326.972.158.41.302.928.5 1.502.577.322.043.84.135 1.963.348.56.106.925.128 2.147.131 2.126.005 3.178-.114 4.477-.508.236-.071.585-.165.775-.207.19-.043.425-.133.522-.201.096-.068.459-.28.806-.471l.63-.348.535.229c.704.302 1.306.88 1.574 1.51.096.229.198.415.225.415.028 0 .036-.036.02-.081-.018-.045.054-.34.16-.655.325-.973.442-1.697.46-2.851.02-1.166.001-1.193-.342-.5-.342.689-1.076 1.189-1.937 1.32-.703.106-.876.154-1.864.517-1.99.733-1.956.728-6.444.933-1.034.047-1.632-.005-2.91-.252a26.722 26.722 0 0 0-1.042-.184c-.362-.05-1.267-.303-1.542-.432a.95.95 0 0 0-.286-.091c-.05 0-.217-.14-.37-.31-.297-.33-.47-.76-.593-1.465-.088-.503-.092-1.574-.008-1.888.036-.134.11-.493.167-.798.13-.716.666-2.615.825-2.927.175-.344.633-1.044.804-1.228.178-.191.7-.557.74-.518.05.05-.127.88-.228 1.075-.052.1-.07.183-.041.183.088 0 .255-.492.325-.953.036-.237.103-.666.15-.954.045-.287.102-.703.124-.923.05-.49.142-.678.53-1.087.32-.335.396-.373 1.642-.822.942-.34 1.003-.366.958-.41-.021-.022-.1-.01-.176.025a15.35 15.35 0 0 1-1.365.484c-.451.107-1 .463-1.305.849-.117.147-.261.034-.734-.57-.313-.4-.416-.584-.458-.819-.074-.405.021-.673.32-.911.387-.308.724-.392 1.387-.348.594.039.88.138 1.292.448.107.08.223.146.258.146.034 0 .135.097.225.215s.188.2.218.181c.03-.018-.077-.146-.237-.285a3.3 3.3 0 0 1-.336-.32c-.026-.038-.046-.041-.046-.006 0 .034-.066-.014-.145-.106-.08-.093-.163-.15-.184-.129-.022.022-.04.006-.04-.035 0-.042-.028-.058-.062-.037-.033.02-.06.007-.06-.031s-.025-.054-.055-.035c-.03.018-.18-.005-.334-.051-.154-.047-.288-.077-.299-.067Zm10.65.182c-.065.05-.091.09-.058.09.034 0 .115-.04.18-.09.066-.05.092-.09.059-.09a.44.44 0 0 0-.18.09Zm2.866.586c0 .085.013.12.03.077a.238.238 0 0 0 0-.154c-.017-.042-.03-.008-.03.077Zm.056.282c.003.072.017.086.037.037.018-.044.015-.097-.005-.118-.02-.02-.035.016-.032.081Zm-3.439.063c0 .108.047.137.274.168.252.035.638.21 1.105.5.654.406 1.116.74 1.237.894.04.051.093.072.118.046.025-.025.014-.046-.026-.046-.142 0-.067-.222.112-.328.2-.118.53-.515.474-.571-.02-.02-.076.046-.127.144-.108.21-.553.538-.667.492a5.05 5.05 0 0 1-.482-.336c-.532-.4-1.27-.798-1.633-.88-.16-.036-.311-.099-.337-.14-.03-.046-.047-.026-.048.057Zm-1.565.068c-.45.063-1.056.336-1.496.673-.363.278-.285.26.156-.035.61-.409 1.097-.554 2.076-.618l.675-.045h-.613c-.338 0-.696.011-.798.025Zm-4.498.14c0 .085.014.12.031.078a.238.238 0 0 0 0-.154c-.017-.042-.03-.008-.03.077Zm-1.85.077c0 .026.297.047.66.047.362 0 .763.018.89.04.126.02.23.013.23-.017 0-.061 0-.06-1.028-.093-.413-.012-.752-.002-.752.023Zm2.087.166c.085.026.292.063.46.083l.306.035-.307-.082a2.445 2.445 0 0 0-.46-.082l-.153-.001.154.047Zm.95.202c.1.035.212.082.248.102.035.021.011-.01-.053-.07a.411.411 0 0 0-.248-.102c-.105.004-.095.018.053.07Zm.6.328c.126.086.293.26.37.384.164.268.716 1.503.716 1.604 0 .084-.076.09-.156.015-.067-.063-.579-.278-1.47-.618-1.112-.425-2.743-.457-3.846-.075-1.066.369-1.564.725-1.734 1.237-.056.17-.127.325-.159.344a.132.132 0 0 0-.056.101c0 .157.18-.102.306-.442.151-.404.304-.55.89-.845.722-.365 1.34-.523 2.177-.556 1.304-.052 1.824.055 3.404.702.474.195 1.176.802 1.519 1.314.102.152.27.367.372.476.102.11.174.211.16.226-.015.015-.252-.038-.526-.118a7.912 7.912 0 0 0-1.103-.211 21.877 21.877 0 0 1-.943-.124 9.706 9.706 0 0 0-2.224-.07c-.549.054-.8.117-1.481.373-.451.17-1.022.337-1.268.372-.554.079-.613.122-.164.122h.342l.346.395c.374.428 1.025.9 1.41 1.022.132.043.546.225.92.405.85.412 1.36.516 2.525.516.938 0 1.172-.05 1.615-.343.236-.157.261-.162.356-.067.094.095.087.117-.11.32-.447.463-.878.618-2.237.806-.654.09-2.246.08-2.867-.018-.134-.021-.23-.011-.23.024 0 .073 1.252.175 1.932.157 1.834-.049 2.99-.364 3.492-.952l.201-.236.668.271c1.043.422 1.903.499 3.582.318 1.3-.14 2.232-.392 2.883-.78.364-.217.405-.229.475-.134.042.057.076.12.076.14 0 .02-.15.193-.333.385-.535.558-1.37.868-2.562.949-.582.039-.601.036-.813-.126-.12-.091-.217-.142-.217-.112 0 .07.668.568.76.566.037-.002.02-.03-.04-.066-.18-.104-.058-.179.29-.179.418 0 1.135-.137 1.554-.297.363-.138.456-.083.314.185-.07.131-.068.136.028.056.067-.055.098-.155.087-.275-.014-.147.008-.193.104-.212.113-.021.893-.783.888-.866a.904.904 0 0 0-.085-.187c-.075-.134-.068-.174.062-.37.08-.12.162-.306.183-.412.038-.191-.113-.844-.227-.983-.032-.039-.042-.177-.022-.308.04-.27-.127-.609-.34-.688-.068-.025-.171-.133-.23-.24a6.528 6.528 0 0 0-.474-.653c-.46-.57-.862-.822-1.398-.877-.335-.034-.455-.012-1.007.18-.345.121-1.22.512-1.945.868-1.482.73-1.679.777-2.06.496a1.872 1.872 0 0 0-.226-.154c-.067 0 .015.085.236.245.36.261.542.241 1.32-.144 1.687-.835 2.114-1.03 2.657-1.212.496-.167.646-.191 1.012-.167.621.04.848.181 1.408.872.26.322.459.61.44.64-.018.03-.51.072-1.094.094-1.134.043-1.976.122-2.47.234-.475.107-1.805.548-1.844.612-.02.03-.082.056-.14.056-.058 0-.32.128-.58.283-.261.156-.51.27-.553.253-.043-.016-.117-.172-.164-.347a1.726 1.726 0 0 0-.275-.545c-.104-.126-.27-.339-.37-.474a6.015 6.015 0 0 0-.473-.54 1.713 1.713 0 0 1-.438-.708c-.08-.228-.25-.657-.376-.955l-.231-.542.146-.166.145-.166-.165.147-.166.146-.288-.254c-.158-.14-.318-.254-.354-.254-.037 0 .036.07.163.157ZM19.605 7.5a.157.157 0 0 0 .145.039c.047-.016.019-.044-.064-.065-.102-.027-.126-.02-.08.026Zm2.187 2.045c.223.094.384.424.314.645-.036.113-.047.114-.235.017-.157-.082-.361-.1-1.017-.093-1.403.015-2.13.119-3.166.454-1.455.469-1.625.508-2.105.48-.24-.013-.454-.044-.48-.069-.192-.193 1.99-1.09 3.106-1.277 1.206-.201 3.262-.291 3.583-.157Zm-11.518.301c.024.024.008.044-.035.044-.044 0-.063.04-.043.092.02.05.006.092-.03.092-.037 0-.05.042-.031.093.02.05.008.092-.024.092-.033 0-.06.11-.06.246 0 .139.03.246.068.246.038 0 .053.04.035.088-.019.048.007.121.056.162.05.041.079.086.065.1-.037.037.348.412.439.427a.825.825 0 0 1 .228.11c.081.054.19.097.242.097.052 0 .094.022.094.049 0 .027.06.053.133.058.072.006.15.04.174.078.023.037.067.063.097.057a.197.197 0 0 1 .087.002c.15.058.758.098.95.061a.379.379 0 0 1 .108-.004c.025.004.046-.022.046-.058 0-.036.02-.056.046-.044.025.011.142-.074.26-.19.118-.115.174-.19.123-.166-.05.024-.038 0 .027-.053.066-.054.097-.097.07-.097-.028 0-.016-.042.026-.093.042-.05.056-.092.03-.092-.025 0-.014-.037.023-.082.038-.046.05-.101.028-.123-.022-.023-.009-.04.03-.04.038 0 .053-.043.034-.093-.02-.051-.008-.093.027-.093.037 0 .054-.148.042-.372-.016-.31-.006-.36.064-.302.047.038.111.053.144.033.033-.02.078-.009.1.026.02.035.062.049.091.031.03-.018.07-.006.09.027.02.033.077.044.127.025.05-.019.09 0 .09.044 0 .043.016.062.035.042.057-.056.253.16.224.246-.015.043-.003.077.026.077.028 0 .052.125.052.277 0 .153-.02.277-.044.277-.024 0-.03.039-.011.086.018.048.005.104-.03.125-.035.022-.047.08-.028.13s0 .09-.04.09c-.041 0-.059.041-.04.092.02.05.008.092-.027.092s-.046.028-.025.062c.02.034.004.062-.037.062-.042 0-.06.015-.041.034.038.038-.243.34-.296.318-.018-.008-.06.035-.094.095s-.087.093-.12.073c-.031-.02-.074.007-.094.06-.02.053-.061.08-.091.061-.03-.018-.055-.003-.055.035 0 .038-.029.051-.064.03-.035-.023-.098-.015-.138.016-.075.056-.882.112-1.393.096-.314-.01-.828-.061-.828-.082a.465.465 0 0 0-.153-.035 4.672 4.672 0 0 1-.49-.088.577.577 0 0 0-.11-.02.202.202 0 0 1-.128-.089c-.028-.044-.11-.085-.182-.09-.073-.005-.133-.033-.133-.062 0-.029-.027-.035-.061-.014-.034.02-.062.007-.062-.03 0-.039-.027-.053-.06-.032-.035.021-.062.007-.062-.03 0-.038-.028-.052-.062-.031-.033.02-.06.007-.06-.03 0-.039-.028-.053-.062-.032-.034.021-.062.007-.062-.03 0-.038-.027-.052-.06-.031-.035.02-.062.007-.062-.031s-.028-.052-.062-.03c-.033.02-.06.006-.06-.031 0-.038-.027-.053-.058-.034-.031.02-.075.007-.096-.028-.022-.035-.063-.049-.092-.03-.03.017-.07.003-.092-.032-.022-.034-.065-.047-.096-.028-.032.02-.058.007-.058-.027 0-.035-.038-.049-.085-.03-.047.017-.13-.03-.184-.109-.054-.077-.1-.114-.1-.08-.001.032-.03.01-.066-.05-.034-.06-.086-.095-.114-.077-.028.017-.067-.01-.086-.06-.02-.05-.072-.092-.118-.092-.097 0-.429-.332-.38-.38.018-.019-.066-.11-.188-.203-.247-.19-.241-.223.046-.256.111-.013.21-.05.221-.081.011-.032.06-.043.108-.024.048.019.088 0 .088-.04 0-.042.041-.06.092-.04.05.02.092.007.092-.028s.025-.047.056-.028c.03.019.065.006.077-.028.011-.035.112-.075.224-.09a.691.691 0 0 0 .281-.09c.043-.036.097-.047.119-.024.022.022.04.005.04-.038 0-.044.04-.063.09-.044.05.02.107.007.129-.028.021-.034.117-.045.216-.023.099.022.178.013.178-.019 0-.066.708-.062.775.005Zm1.28.338c.006.072-.027.145-.072.163-.138.053-.249-.027-.234-.168.017-.162 0-.148.163-.136.089.007.137.054.143.141Zm9.952.062c.273.02.322.034.322.095 0 .034.016.045.035.025.044-.043.308.212.287.277-.009.026.015.046.052.046s.052.041.033.09c-.019.05-.009.107.022.126.031.02.044.18.028.356-.042.469-.044.474-.103.474-.03 0-.04.025-.021.055.018.03-.01.072-.062.092-.052.02-.08.062-.061.092.018.03-.008.09-.058.131-.05.042-.091.058-.091.035 0-.022-.06.015-.132.083-.073.068-.156.109-.184.091-.029-.018-.052.002-.052.043 0 .042-.017.059-.038.038-.021-.021-.079.002-.128.051-.05.05-.115.075-.146.055-.03-.019-.056-.004-.056.034 0 .038-.028.052-.061.031-.034-.02-.062-.007-.062.03 0 .039-.027.052-.061.032-.034-.021-.062-.006-.062.033 0 .04-.04.056-.091.036-.051-.019-.092-.01-.092.02 0 .032-.049.059-.108.06-.251.01-.419.04-.49.085-.043.027-.103.034-.134.014-.032-.02-.076-.005-.099.032-.022.036-.08.051-.126.033-.048-.018-.086-.009-.086.02 0 .03-.062.057-.138.06-.076.004-.276.021-.445.038-1.35.134-2.73.14-2.897.012a.193.193 0 0 0-.167-.022c-.05.019-.107.008-.127-.025-.02-.033-.061-.045-.09-.027-.03.018-.07.004-.092-.031-.022-.035-.065-.048-.096-.028-.032.02-.057.004-.057-.034 0-.037-.028-.051-.062-.03-.034.02-.061.007-.061-.031s-.026-.053-.057-.034c-.032.02-.075.007-.096-.028-.022-.035-.065-.047-.097-.028-.031.02-.057.005-.057-.033s-.027-.052-.061-.031c-.034.021-.061.006-.061-.034s-.041-.056-.09-.037c-.05.02-.107.008-.127-.025a.069.069 0 0 0-.094-.024c-.032.02-.057.004-.057-.034 0-.038-.028-.051-.062-.03-.034.02-.061.008-.061-.028 0-.035-.035-.058-.077-.05-.107.022-.058-.205.067-.309.075-.062.077-.073.01-.044-.05.022-.039-.004.027-.057.065-.054.096-.097.069-.097-.027 0-.024-.035.008-.077a.59.59 0 0 0 .069-.255.538.538 0 0 1 .067-.246c.06-.073.064-.088.071-.299.003-.076.02-.104.036-.061.017.042.082.077.145.077.063 0 .128.023.146.052.054.088 1.009.068 1.186-.024.088-.046.184-.069.213-.05.03.017.093 0 .14-.04.048-.04.114-.055.146-.035.033.02.079.007.101-.03.023-.036.08-.052.125-.034.047.018.1.005.121-.028.02-.033.06-.045.09-.027.029.018.07.004.092-.03.021-.036.065-.048.096-.029.031.02.057.004.057-.034 0-.04.034-.06.075-.046.08.027.18.352.182.585.001.077.028.139.06.139s.041.027.02.061c-.02.034-.007.062.031.062s.053.025.035.055c-.019.03.011.072.066.094.055.02.083.056.061.078-.054.054.148.27.214.23.03-.019.053-.003.053.035 0 .038.024.054.053.036.029-.018.103.006.166.051.062.046.146.071.187.056.04-.016.09 0 .112.035.022.036.12.048.22.028s.183-.01.183.021c0 .032.274.062.613.066.372.004.613-.017.613-.054 0-.034.026-.045.058-.026.031.02.116-.027.187-.104.072-.077.163-.14.203-.14.04 0 .074-.034.074-.075 0-.04.047-.13.106-.2.059-.068.09-.125.07-.125-.021 0-.005-.04.036-.09.04-.048.056-.118.034-.153-.021-.035-.02-.096.005-.136.061-.1.066-.974.005-.974-.027 0-.03-.03-.007-.068.024-.04.058-.044.08-.012.021.031.1.061.177.067Zm-8.475.28c.008.057-.025.144-.075.194-.072.072-.112.075-.209.015-.066-.041-.12-.104-.12-.14 0-.195.376-.259.404-.07Zm7.675.123c.017.127-.01.178-.118.219-.155.059-.254.029-.2-.06.02-.031.005-.057-.033-.057-.04 0-.048-.032-.02-.077a.477.477 0 0 0 .058-.123c.015-.084.023-.087.157-.077.096.007.14.057.156.175Zm-1.554-.053c.157.12.09.254-.123.244-.13-.005-.176-.039-.176-.125 0-.107.076-.21.153-.207.017 0 .083.04.146.088Zm-7.588.312c.054.053.038.11-.067.232-.077.09-.157.145-.18.123-.021-.022-.039-.008-.039.031 0 .1-.175.09-.28-.016-.048-.048-.088-.103-.088-.123 0-.067.235-.27.271-.235.02.02.036.006.036-.032 0-.086.253-.072.347.02Zm7.82.412c.026.22.007.273-.16.432-.196.188-.321.197-.426.028-.052-.085-.047-.123.024-.168.05-.033.068-.06.039-.06-.03 0-.02-.042.022-.093.042-.05.1-.076.13-.058.03.019.054.003.054-.035 0-.038.028-.052.062-.03.034.02.061.008.061-.028 0-.092.182-.081.193.012Zm-4.947 2.073c-.625.283-1.137.733-1.336 1.173-.43.951-.535 1.297-.535 1.758 0 .88.272 1.236 1.299 1.695.478.214.654.26 1.077.286.58.033 1.51-.068 2.131-.234.363-.096.465-.155.662-.379.555-.635.624-1.034.39-2.255-.089-.46-.212-.907-.28-1.016-.173-.28-.742-.822-.94-.897-.711-.267-2.014-.336-2.468-.13Zm2.221.152c.245.077.413.195.712.498.451.457.523.621.712 1.634.178.958.125 1.223-.377 1.885-.203.268-.296.336-.57.416-.7.204-2.49.319-2.687.172a4.272 4.272 0 0 0-.518-.226c-.457-.175-.883-.48-1.071-.766-.276-.419-.26-1.123.04-1.758.082-.174.169-.398.193-.498.14-.575.823-1.21 1.56-1.451.256-.085 1.65-.02 2.006.094Zm-1.741.371c-.173.124-.232.409-.143.68.067.204.405.5.69.603.117.043.144.433.068.988-.037.27-.049.286-.23.286-.105 0-.432-.058-.726-.13-.295-.072-.578-.114-.629-.094-.128.049-.118.368.014.48.424.362 1.241.667 1.784.667.38 0 .448-.022.835-.262.504-.312.778-.629.791-.916.008-.173-.013-.21-.134-.227-.085-.012-.201.033-.283.11-.161.152-.704.372-.918.372-.309 0-.342-.047-.342-.491 0-.618.042-.756.266-.868.26-.13.593-.575.593-.793a.595.595 0 0 0-.117-.318c-.108-.133-.17-.147-.752-.164-.499-.015-.662.002-.767.077Zm5.957.1c-.022.036-.027.079-.01.095.015.016.045-.014.065-.066.041-.108.006-.127-.055-.029Zm-.52.75c-.16.26-.377.844-.348.93.012.039.071-.077.13-.256.06-.18.177-.45.261-.6.176-.315.14-.375-.043-.074Zm-.49 1.153c-.035.068-.051.123-.034.123.017 0 .06-.055.096-.123.036-.068.052-.123.035-.123-.017 0-.06.055-.096.123Zm-3.384 2.752c-.01.092-.074.196-.142.231-.067.035-.403.223-.746.417-.616.35-.784.408-2.32.803-1.045.268-1.588.317-3.527.318-1.487.001-1.908-.018-2.362-.108-.303-.06-.8-.152-1.104-.204-1.081-.187-1.231-.218-1.625-.335a2.55 2.55 0 0 1-.736-.373 4.248 4.248 0 0 0-.537-.351c-.116-.056-.199-.143-.199-.208 0-.133.096-.141.312-.028.287.15 1.426.46 1.957.531.287.039.784.13 1.104.203.517.118.758.133 2.116.13 2.559-.006 4.658-.166 5.46-.416.58-.181 1.993-.696 2.04-.744.02-.019.1-.034.181-.034.125 0 .145.026.128.168ZM5.014 23.148c-.05.05.138 1.722.202 1.786.04.04.05-.01.026-.154-.02-.119-.062-.531-.096-.917-.06-.69-.075-.773-.132-.715Zm10.68.233c0 .009.053.16.117.337.064.175.136.459.159.63.023.17.071.327.106.348.043.027.05-.058.022-.261-.07-.496-.257-1.07-.35-1.07-.03 0-.054.007-.054.016Z"/><path fill="#000000" d="M17.872 4.087c-.371.083-.776.216-.747.245.018.019.178-.015.355-.074.188-.062.528-.11.817-.113.458-.006.519.008.822.196.18.111.309.173.287.137-.023-.036-.184-.148-.358-.248-.262-.151-.383-.182-.686-.177a3.714 3.714 0 0 0-.49.034Zm-12.876.269c-.253.076-.701.538-.781.806-.156.523.023.898.829 1.728l.298.306-.097.225a2.396 2.396 0 0 0-.135.532c-.02.169-.076.542-.123.83-.081.499-.097.533-.342.738-.78.652-1.342 1.45-1.586 2.248-.154.505-.374 1.058-.758 1.905-.543 1.2-.774 2.312-.775 3.73 0 .909.095 1.682.288 2.33.055.187.132.459.17.605l.071.265.267-.497c.156-.29.39-.612.563-.775.342-.32.313-.326.972.158.41.302.928.5 1.502.577.322.043.84.135 1.963.348.56.106.925.128 2.147.131 2.126.005 3.178-.114 4.477-.508.236-.071.585-.165.775-.207.19-.043.425-.133.522-.201.096-.068.459-.28.806-.471l.63-.348.535.229c.704.302 1.306.88 1.574 1.51.096.229.198.415.225.415.028 0 .036-.036.02-.081-.018-.045.054-.34.16-.655.325-.973.442-1.697.46-2.851.02-1.166.001-1.193-.342-.5-.342.689-1.076 1.189-1.937 1.32-.703.106-.876.154-1.864.517-1.99.733-1.956.728-6.443.933-1.035.047-1.633-.005-2.91-.252a26.722 26.722 0 0 0-1.043-.184c-.362-.05-1.267-.303-1.542-.432a.95.95 0 0 0-.286-.091c-.05 0-.217-.14-.37-.31-.297-.33-.47-.76-.593-1.465-.088-.503-.092-1.574-.008-1.888.036-.134.11-.493.167-.798.13-.716.666-2.615.825-2.927.175-.344.633-1.044.804-1.228.178-.191.7-.557.74-.518.05.05-.127.88-.228 1.075-.052.1-.07.183-.041.183.088 0 .255-.492.325-.953.036-.237.103-.666.15-.954.045-.287.102-.703.124-.923.023-.22.083-.482.135-.584.17-.338.682-.814 1.015-.946.57-.225 1.539-.578 1.744-.635.11-.031.185-.083.164-.115-.02-.033-.067-.04-.106-.016-.094.058-.988.378-1.332.476-.555.159-1.017.456-1.336.859-.117.147-.261.034-.734-.57-.313-.4-.416-.584-.458-.819-.074-.405.021-.673.32-.911.387-.308.724-.392 1.387-.348.594.039.88.138 1.292.448.107.08.223.146.258.146.034 0 .136.098.227.218.09.119.18.202.197.184.1-.1-.826-.82-1.245-.966-.334-.118-1.383-.147-1.713-.048Zm11.83.088c-.066.05-.092.09-.059.09.034 0 .115-.04.18-.09.066-.05.092-.09.059-.09a.44.44 0 0 0-.18.09Zm2.864.586c0 .085.014.12.031.077a.238.238 0 0 0 0-.154c-.017-.042-.03-.008-.03.077Zm.057.282c.003.072.017.086.037.037.018-.044.015-.097-.005-.118-.02-.02-.035.016-.032.081Zm-3.439.063c0 .108.047.137.274.168.252.035.638.21 1.105.5.654.406 1.116.74 1.237.894.04.051.093.072.118.046.025-.025.014-.046-.026-.046-.142 0-.067-.222.112-.328.2-.118.53-.515.474-.571-.02-.02-.076.046-.127.144-.108.21-.553.538-.667.492a5.05 5.05 0 0 1-.482-.336c-.532-.4-1.27-.798-1.633-.88-.16-.036-.311-.099-.337-.14-.03-.046-.047-.026-.048.057Zm-1.565.068c-.45.063-1.056.336-1.496.673-.363.278-.285.26.156-.035.61-.409 1.097-.554 2.076-.618l.675-.045h-.613c-.338 0-.696.011-.798.025Zm-6.286.237c.196.042 1.74.064 1.595.022-.085-.024-.499-.044-.92-.043-.422 0-.726.01-.675.02Zm2.025.146c.085.026.292.063.46.083l.306.035-.307-.082a2.445 2.445 0 0 0-.46-.082l-.153-.001.154.047Zm.95.202c.1.035.212.082.248.102.035.021.011-.01-.053-.07a.411.411 0 0 0-.248-.102c-.105.004-.095.018.053.07Zm.6.328c.126.086.293.26.37.384.164.268.716 1.503.716 1.604 0 .084-.076.09-.156.015-.067-.063-.579-.278-1.47-.618-1.112-.425-2.743-.457-3.846-.075-1.066.369-1.564.725-1.734 1.237-.056.17-.127.325-.159.344a.132.132 0 0 0-.056.101c0 .157.18-.102.306-.442.151-.404.304-.55.89-.845.722-.365 1.34-.523 2.177-.556 1.304-.052 1.824.055 3.404.702.474.195 1.176.802 1.519 1.314.102.152.27.367.372.476.102.11.174.211.16.226-.015.015-.252-.038-.526-.118a7.912 7.912 0 0 0-1.103-.211 21.877 21.877 0 0 1-.943-.124 9.706 9.706 0 0 0-2.224-.07c-.549.054-.8.117-1.481.373-.451.17-1.022.337-1.268.372-.554.079-.613.122-.164.122h.342l.346.395c.374.428 1.025.9 1.41 1.022.132.043.546.225.92.405.85.412 1.36.516 2.525.516.938 0 1.172-.05 1.615-.343.236-.157.261-.162.356-.067.094.095.087.117-.11.32-.447.463-.878.618-2.237.806-.654.09-2.246.08-2.867-.018-.134-.021-.23-.011-.23.024 0 .073 1.252.175 1.932.157 1.834-.049 2.99-.364 3.492-.952l.201-.236.668.271c1.043.422 1.903.499 3.582.318 1.3-.14 2.232-.392 2.883-.78.364-.217.405-.229.475-.134.042.057.076.12.076.14 0 .02-.15.193-.333.385-.535.558-1.37.868-2.562.949-.582.039-.601.036-.813-.126-.12-.091-.217-.142-.217-.112 0 .07.668.568.76.566.037-.002.02-.03-.04-.066-.18-.104-.058-.179.29-.179.418 0 1.135-.137 1.554-.297.363-.138.456-.083.314.185-.07.131-.068.136.028.056.067-.055.098-.155.087-.275-.014-.147.008-.193.104-.212.113-.021.893-.783.888-.866a.904.904 0 0 0-.085-.187c-.075-.134-.068-.174.062-.37.08-.12.162-.306.183-.412.038-.191-.113-.844-.227-.983-.032-.039-.042-.177-.022-.308.04-.27-.127-.609-.34-.688-.068-.025-.171-.133-.23-.24a6.528 6.528 0 0 0-.474-.653c-.46-.57-.862-.822-1.398-.877-.335-.034-.455-.012-1.007.18-.345.121-1.22.512-1.945.868-1.482.73-1.679.777-2.06.496a1.872 1.872 0 0 0-.226-.154c-.067 0 .015.085.236.245.36.261.542.241 1.32-.144 1.687-.835 2.114-1.03 2.657-1.212.496-.167.646-.191 1.012-.167.621.04.848.181 1.408.872.26.322.459.61.44.64-.018.03-.51.072-1.094.094-1.134.043-1.976.122-2.47.234-.475.107-1.805.548-1.844.612-.02.03-.082.056-.14.056-.058 0-.32.128-.58.283-.261.156-.51.27-.553.253-.043-.016-.117-.172-.164-.347a1.726 1.726 0 0 0-.275-.545c-.104-.126-.27-.339-.37-.474a6.015 6.015 0 0 0-.473-.54 1.713 1.713 0 0 1-.438-.708c-.08-.228-.25-.657-.376-.955l-.231-.542.146-.166.145-.166-.165.147-.166.146-.288-.254c-.158-.14-.318-.254-.354-.254-.037 0 .036.07.163.157ZM19.605 7.5a.157.157 0 0 0 .145.039c.047-.016.019-.044-.064-.065-.102-.027-.126-.02-.08.026Zm2.187 2.045c.223.094.384.424.314.645-.036.113-.047.114-.235.017-.157-.082-.361-.1-1.017-.093-1.403.015-2.13.119-3.166.454-1.455.469-1.625.508-2.105.48-.24-.013-.454-.044-.48-.069-.192-.193 1.99-1.09 3.106-1.277 1.206-.201 3.262-.291 3.583-.157Zm-11.515.307c-.225.589-.198 1.002.09 1.351.316.386 1.393.84 1.991.84.59 0 .876-.252 1.151-1.013.115-.317.146-.496.12-.69l-.036-.262.42.12c.23.067.472.174.536.238.18.18.197.591.046 1.1-.151.508-.31.722-.745 1.002-.295.19-.351.202-1.118.249-1.288.078-1.983-.044-2.964-.522a11.26 11.26 0 0 0-.91-.406c-.34-.112-.99-.601-1.337-1.007l-.293-.34.2-.06c.11-.033.477-.162.814-.287.781-.291 1.19-.387 1.678-.393.31-.004.383.012.357.08Zm1.296.322c.02.141-.114.226-.264.169-.095-.037-.125-.215-.049-.292.088-.088.294-.006.313.123Zm10.32.152c.262.102.393.397.394.89 0 .62-.149.83-.865 1.208-.508.268-.973.41-1.986.607-.588.115-1.718.169-2.546.122-.841-.047-.875-.055-1.655-.366-.438-.175-.821-.343-.851-.373-.033-.033.006-.164.097-.32.083-.147.202-.463.263-.703l.11-.437.178.09c.345.172.846.168 1.5-.012.332-.09.745-.217.917-.28l.314-.114.033.364c.043.467.274.876.586 1.036.244.125 1.203.313 1.596.313.13 0 .33-.032.445-.07.248-.083.635-.437.725-.662.107-.27.172-.85.128-1.143-.023-.153-.031-.29-.017-.303.028-.028.395.06.633.153Zm-8.86.143c.048.127-.09.354-.204.332-.158-.031-.238-.209-.145-.322.1-.12.304-.127.349-.01Zm7.66.22c0 .175-.026.22-.134.235-.17.024-.27-.152-.197-.347.039-.101.094-.137.192-.123.114.017.139.059.139.235Zm-1.504-.093c.11.133.03.278-.152.278-.166 0-.252-.123-.193-.277.046-.118.248-.119.345 0Zm-7.605.307c.061.075.04.125-.115.281-.209.21-.41.225-.522.04-.055-.092-.037-.138.105-.261.194-.17.42-.195.532-.06Zm7.83.433c.07.184-.04.402-.257.505-.196.094-.223.094-.312.005-.134-.134-.058-.337.182-.484.233-.143.34-.15.386-.026Zm-4.977 2.057c-.625.283-1.137.733-1.336 1.173-.43.951-.535 1.297-.535 1.758 0 .88.272 1.236 1.299 1.695.478.214.654.26 1.077.286.58.033 1.51-.068 2.131-.234.363-.096.465-.155.662-.379.555-.635.624-1.034.39-2.255-.089-.46-.212-.907-.28-1.016-.173-.28-.742-.822-.94-.897-.711-.267-2.014-.336-2.468-.13Zm2.221.152c.245.077.413.195.712.498.451.457.523.621.712 1.634.178.958.125 1.223-.377 1.885-.203.268-.296.336-.57.416-.7.204-2.49.319-2.687.172a4.272 4.272 0 0 0-.518-.226c-.457-.175-.883-.48-1.071-.766-.276-.419-.26-1.123.04-1.758.082-.174.169-.398.193-.498.14-.575.823-1.21 1.56-1.451.256-.085 1.65-.02 2.006.094Zm-1.741.371c-.173.124-.232.409-.143.68.067.204.405.5.69.603.117.043.144.433.068.988-.037.27-.049.286-.23.286-.105 0-.432-.058-.726-.13-.295-.072-.578-.114-.629-.094-.128.049-.118.368.014.48.424.362 1.241.667 1.784.667.38 0 .448-.022.835-.262.504-.312.778-.629.791-.916.008-.173-.013-.21-.134-.227-.085-.012-.201.033-.283.11-.161.152-.704.372-.918.372-.309 0-.342-.047-.342-.491 0-.618.042-.756.266-.868.26-.13.593-.575.593-.793a.595.595 0 0 0-.117-.318c-.108-.133-.17-.147-.752-.164-.499-.015-.662.002-.767.077Zm5.957.1c-.022.036-.027.079-.01.095.015.016.045-.014.065-.066.041-.108.006-.127-.055-.029Zm-.52.75c-.16.26-.377.844-.348.93.012.039.071-.077.13-.256.06-.18.177-.45.261-.6.176-.315.14-.375-.043-.074Zm-.49 1.153c-.035.068-.051.123-.034.123.017 0 .06-.055.096-.123.036-.068.052-.123.035-.123-.017 0-.06.055-.096.123Zm-3.384 2.752c-.01.092-.074.196-.142.231-.067.035-.403.223-.746.417-.616.35-.784.408-2.32.803-1.045.268-1.588.317-3.527.318-1.487.001-1.908-.018-2.362-.108-.303-.06-.8-.152-1.104-.204-1.081-.187-1.231-.218-1.625-.335a2.55 2.55 0 0 1-.736-.373 4.248 4.248 0 0 0-.537-.351c-.116-.056-.199-.143-.199-.208 0-.133.096-.141.312-.028.287.15 1.426.46 1.957.531.287.039.784.13 1.104.203.517.118.758.133 2.116.13 2.559-.006 4.658-.166 5.46-.416.58-.181 1.993-.696 2.04-.744.02-.019.1-.034.181-.034.125 0 .145.026.128.168ZM5.014 23.148c-.05.05.138 1.722.202 1.786.04.04.05-.01.026-.154-.02-.119-.062-.531-.096-.917-.06-.69-.075-.773-.132-.715Zm10.68.233c0 .009.053.16.117.337.064.175.136.459.159.63.023.17.071.327.106.348.043.027.05-.058.022-.261-.07-.496-.257-1.07-.35-1.07-.03 0-.054.007-.054.016Z"/></g><path fill="#000000" fill-rule="evenodd" d="M12 23.579c6.395 0 11.579-5.184 11.579-11.579C23.579 5.605 18.395.421 12 .421 5.605.421.421 5.605.421 12c0 6.395 5.184 11.579 11.579 11.579ZM12 24c6.627 0 12-5.373 12-12S18.627 0 12 0 0 5.373 0 12s5.373 12 12 12Z" clip-rule="evenodd"/></svg>