<svg xmlns="http://www.w3.org/2000/svg" width="24" height="24" fill="#000000"><path fill="#6E6E6E" d="M0 0h24v24H0z"/><path fill="#6B6B6B" d="M6.768 15.07c-1.806-.76-2.305.08-2.178.635.106.462.816 1.465 2.812 1.782 2.495.396 3.723-1.188 5.109-2.06 1.386-.871 2.654-.594 5.03-.515 1.901.064 2.72-.897 2.891-1.386.185-.343.444-1.227 0-2.02s-1.742.595-2.733 1.347c-.91.554-1.727.364-3.564.238-1.838-.127-2.15.118-2.733.673-.792.752-2.828 2.067-4.634 1.307"/><path fill="#FFFFFF" d="M10.214 10.158c-3.707-.888-5.717.818-6.258 1.782 2.535 1.077 4.462 1.082 5.11.95.461-.21 1.575-.697 2.336-.95.76-.254.766-1.004.673-1.347-.633-.145-1.893-.435-1.861-.435M16.154 8.811c-.823.697-2.851 1.479-3.762 1.782 0 .697.555 1.056.832 1.149l1.861-.119c1.122.106 3.731-.008 5.188-1.307 1.458-1.299-.026-2.231-.95-2.535-.713.053-2.345.333-3.169 1.03"/><path fill="#000000" fill-rule="evenodd" d="M20.606 8.303c-.494-.597-1.298-.708-2.078-.594a5.5 5.5 0 0 0-2.348.976c-.314.224-.84.526-1.383.798-.546.273-1.095.507-1.455.602-.375.099-.62.19-.775.26a2 2 0 0 0-.208.108l-.015-.002a6 6 0 0 1-.235-.04c.851-.873 2.934-2.429 5.817-2.948.784-.14 1.36-.17 1.777-.129.419.041.66.152.795.277.129.12.174.267.165.427a1 1 0 0 1-.057.265m.206.313c.09-.168.157-.363.168-.562a.83.83 0 0 0-.267-.676c-.204-.189-.523-.314-.979-.36-.456-.044-1.064-.01-1.865.133-3.07.553-5.262 2.25-6.088 3.145-.562-.447-1.497-.997-2.625-1.315-1.214-.343-2.662-.42-4.113.2-.714.305-1.208.61-1.53.907-.324.298-.484.598-.51.89-.025.292.088.547.25.75.163.203.382.363.59.472l.009.005.01.003c2.391.897 4.035 1.05 5.27.845 1.216-.203 2.018-.752 2.722-1.235l.034-.023.007-.005.007-.006c.279-.242.414-.55.406-.826.043.174.127.356.272.514.26.285.695.469 1.366.43q.483-.029.925-.048c.925-.043 1.724-.08 2.427-.233.729-.159 1.848-.438 2.658-.906.405-.233.753-.525.927-.893.17-.357.163-.763-.07-1.206m-9.042 2.056h.001c.13.024.214.126.22.29.007.166-.074.386-.29.577l-.016.01-.149.102a1 1 0 0 0 .025-.105c-.009-.26-.077-.686-.264-.961zm0 0 .028-.157zm-3.337-.595c-.499.774-1.089 2.373-.298 2.74-1.014.003-2.3-.223-3.991-.842.484-.81 1.861-2.068 4.289-1.898m-4.578 1.764a1.5 1.5 0 0 1-.354-.31.73.73 0 0 1-.182-.526c.017-.19.123-.42.409-.684s.743-.55 1.44-.848c1.368-.584 2.739-.516 3.902-.187a7.7 7.7 0 0 1 2.086.95c-.499-.093-.737-.141-1.031-.2l-.752-.151c-3.148-.618-4.93.945-5.518 1.956m8.734-1.156c.006.181.065.4.224.573a.96.96 0 0 0 .44.264c-.104-.231-.027-.748.054-1.1-.295.083-.49.158-.611.212q-.068.03-.107.051m2.765-1.134q.206-.111.397-.221l.048-.002a.554.554 0 1 1-.445.223m.962-.574.05-.036.002-.001.002-.001a5.2 5.2 0 0 1 2.204-.917c.825-.12 1.553.042 1.92.672.232.4.23.722.103.993-.134.282-.417.533-.8.754-.762.44-1.837.711-2.567.87l-.152.031c.229-.601.333-1.735-.762-2.365m2.095 3.45c-.218.183-.436.365-.64.52l-.005.004-.005.003c-.479.291-.933.386-1.496.392-.373.004-.803-.031-1.323-.074q-.373-.031-.816-.063c-.917-.063-1.435-.032-1.794.076-.351.106-.558.288-.849.565a6.5 6.5 0 0 1-1.975 1.245c-.85.334-1.844.482-2.786.085-.891-.375-1.424-.34-1.71-.182a.61.61 0 0 0-.307.68c.092.4.75 1.38 2.715 1.691 1.216.193 2.12-.095 2.893-.54.388-.224.745-.487 1.093-.752l.123-.093c.305-.232.608-.462.918-.658.716-.45 1.4-.601 2.203-.632.505-.019 1.066.01 1.71.045q.548.031 1.184.054c1.857.062 2.623-.873 2.776-1.306l.003-.01.004-.007c.175-.325.417-1.163.001-1.906a.33.33 0 0 0-.15-.15.35.35 0 0 0-.203-.02c-.172.026-.389.135-.638.304-.247.168-.512.383-.78.607zm1.866-1.23a.57.57 0 0 1 .258.251c.468.835.2 1.758.006 2.126-.198.546-1.07 1.521-3.004 1.457a60 60 0 0 1-1.205-.055c-.636-.034-1.178-.063-1.673-.044-.773.029-1.414.174-2.085.596-.301.189-.595.412-.9.645l-.124.094c-.35.265-.716.536-1.119.768-.81.466-1.769.772-3.048.569-2.028-.322-2.79-1.35-2.91-1.873a.85.85 0 0 1 .424-.94c.382-.211 1.002-.215 1.917.17.864.364 1.79.234 2.607-.087a6.2 6.2 0 0 0 1.899-1.197c.293-.278.534-.496.943-.62.403-.12.959-.149 1.88-.085q.457.031.834.064c.511.042.923.076 1.286.072.53-.006.938-.093 1.369-.354.198-.15.409-.327.625-.508l.148-.124c.268-.223.541-.446.798-.62.255-.173.508-.308.736-.343a.6.6 0 0 1 .338.038m-.388.994c.059.028.084.099.056.158-.494 1.038-1.34 1.542-2.244 1.75-.9.205-1.859.12-2.599-.02-.681-.13-2.351-.097-4.225 1.246-1.943 1.393-4.1 1.068-4.946.727a.119.119 0 0 1 .09-.22c.791.319 2.858.633 4.717-.7 1.928-1.381 3.664-1.428 4.409-1.287.725.137 1.647.217 2.5.022.85-.195 1.627-.662 2.083-1.62.029-.06.1-.084.159-.056m-5.239-1.042a.356.356 0 1 0 0-.712.356.356 0 0 0 0 .713m-5.94.397a.357.357 0 1 0-.001-.713.357.357 0 0 0 0 .713m1.306.158a.554.554 0 1 0 0-1.109.554.554 0 0 0 0 1.109" clip-rule="evenodd"/></svg>