<svg xmlns="http://www.w3.org/2000/svg" width="100" height="100" version="1.1" fill="#000000"><path fill-opacity=".18" d="M 38.286 11.394 C 27.872 14.788, 17.925 23.658, 13.180 33.782 C 10.805 38.848, 10.500 40.699, 10.500 50.021 C 10.500 59.833, 10.715 60.980, 13.695 67.032 C 17.761 75.292, 24.708 82.239, 32.968 86.305 C 39.023 89.286, 40.165 89.500, 50 89.500 C 59.862 89.500, 60.966 89.291, 67.110 86.266 C 75.128 82.319, 83.045 74.274, 86.804 66.253 C 89.197 61.147, 89.500 59.316, 89.500 49.979 C 89.500 40.141, 89.290 39.032, 86.266 32.890 C 82.303 24.839, 74.233 16.918, 66.253 13.243 C 59.300 10.042, 45.279 9.115, 38.286 11.394 M 37.257 28.843 C 31.494 32.219, 31.013 32.769, 31.001 36 C 30.990 38.834, 30.418 39.824, 27.994 41.203 C 25.117 42.841, 25 43.180, 25 49.897 C 25 56.577, 25.131 56.964, 27.951 58.630 C 30.183 59.949, 30.974 61.227, 31.201 63.878 C 31.466 66.983, 32.165 67.772, 37.326 70.781 C 41.454 73.188, 43.860 74.001, 45.576 73.570 C 47.948 72.975, 48 72.738, 48 62.481 C 48 56.160, 47.603 52, 47 52 C 46.429 52, 46 55, 46 59 C 46 62.850, 45.663 65.998, 45.250 65.996 C 44.837 65.994, 43.027 65.094, 41.226 63.996 C 39.425 62.898, 37.513 62, 36.976 62 C 34.738 62, 36.313 63.675, 41.055 66.338 C 43.834 67.899, 45.923 69.699, 45.696 70.338 C 45.081 72.076, 42.594 71.538, 37.538 68.575 C 30.938 64.707, 31.421 60.052, 38.621 58.126 C 40.133 57.722, 41.549 56.853, 41.768 56.196 C 42.389 54.333, 38.872 53.458, 37.605 55.160 C 35.364 58.172, 32.742 58.918, 29.781 57.387 C 27.213 56.059, 27 55.494, 27 50 C 27 44.516, 27.215 43.942, 29.750 42.654 C 32.361 41.328, 32.990 41.539, 42.218 46.845 L 51.937 52.433 52.218 62.966 C 52.487 73.006, 52.605 73.515, 54.734 73.817 C 55.962 73.992, 59.675 72.692, 62.984 70.928 C 68.534 67.970, 69 67.458, 69 64.314 C 69 61.576, 69.588 60.572, 71.994 59.203 C 74.888 57.556, 74.988 57.259, 74.994 50.203 C 75 43.143, 74.903 42.852, 72.006 41.203 C 69.584 39.825, 69.009 38.832, 68.994 36 C 68.978 32.756, 68.531 32.256, 62.902 29.163 C 58.675 26.841, 56.094 26.011, 54.414 26.432 C 52.065 27.022, 52 27.305, 52 36.960 C 52 42.496, 52.442 47.155, 53 47.500 C 53.631 47.890, 54 45.510, 54 41.059 C 54 37.177, 54.337 34.002, 54.750 34.004 C 55.163 34.006, 56.973 34.906, 58.774 36.004 C 62.272 38.136, 64 38.518, 64 37.159 C 64 36.696, 61.750 35.093, 59 33.597 C 56.250 32.100, 54 30.228, 54 29.438 C 54 27.293, 55.923 27.688, 61.750 31.030 C 65.811 33.358, 67 34.589, 67 36.464 C 67 39.048, 63.714 42, 60.837 42 C 58.570 42, 57.480 43.880, 58.915 45.315 C 59.674 46.074, 60.500 46.129, 61.387 45.478 C 67.960 40.655, 67.681 40.745, 70.430 42.546 C 72.705 44.037, 73 44.901, 73 50.083 C 73 55.395, 72.756 56.064, 70.356 57.322 C 67.865 58.627, 67.140 58.382, 57.866 53.104 L 48.021 47.500 48.010 37.285 C 48.001 28.216, 47.783 26.954, 46.066 26.035 C 43.725 24.783, 44.738 24.460, 37.257 28.843 M 38.250 31.030 C 34.698 33.067, 33 34.681, 33 36.020 C 33 37.109, 33.201 38, 33.446 38 C 35.071 38, 46.041 30.624, 45.744 29.732 C 45.074 27.723, 43.560 27.986, 38.250 31.030 M 39.754 36.779 C 37.144 38.275, 35.006 39.748, 35.004 40.051 C 35.001 40.488, 40.194 43.407, 45.250 45.810 C 45.663 46.006, 46 43.429, 46 40.083 C 46 36.737, 45.663 34.013, 45.250 34.029 C 44.837 34.044, 42.364 35.282, 39.754 36.779 M 54 60 C 54 63.300, 54.337 65.992, 54.750 65.983 C 55.163 65.974, 57.697 64.673, 60.381 63.092 L 65.263 60.218 62.381 58.445 C 56.348 54.733, 55.054 54, 54.535 54 C 54.241 54, 54 56.700, 54 60 M 60.500 65.501 C 54.720 68.816, 52.653 71.643, 56.212 71.368 C 59.537 71.110, 67 65.984, 67 63.958 C 67 62.881, 66.888 62.014, 66.750 62.030 C 66.612 62.047, 63.800 63.609, 60.500 65.501" stroke="none" fill="#000000" fill-rule="evenodd"/><path fill-opacity=".058" d="M 39.033 11.536 C 26.410 15.078, 16.461 24.757, 12.081 37.759 C 7.458 51.482, 10.723 66.027, 20.977 77.392 C 30.568 88.021, 46.979 92.532, 61.068 88.412 C 72.298 85.128, 80.983 77.475, 86.362 66.123 C 89.198 60.137, 89.500 58.581, 89.500 49.948 C 89.500 40.933, 89.290 39.972, 85.765 32.840 C 81.290 23.785, 75.452 18.043, 66.429 13.820 C 58.446 10.084, 47.470 9.169, 39.033 11.536 M 37.250 28.626 C 31.534 31.879, 31 32.469, 31 35.535 C 31 38.199, 30.384 39.251, 28 40.659 C 25.088 42.379, 25 42.652, 25.006 49.966 C 25.012 57.285, 25.098 57.549, 28.006 59.203 C 30.377 60.552, 31.002 61.593, 31.009 64.203 C 31.018 67.214, 31.586 67.823, 37.567 71.223 C 43.133 74.387, 44.406 74.764, 46.057 73.732 C 47.776 72.659, 48 71.335, 48 62.259 C 48 56.086, 47.602 52, 47 52 C 46.429 52, 46 55, 46 59 C 46 62.850, 45.832 66, 45.626 66 C 45.420 66, 43.208 64.857, 40.709 63.461 C 37.810 61.841, 35.932 61.301, 35.518 61.970 C 35.162 62.547, 36.294 63.802, 38.034 64.759 C 43.637 67.843, 46.215 70.185, 45.162 71.238 C 43.928 72.472, 34.273 67.218, 33.757 65.030 C 33.023 61.915, 34.214 60.132, 38.057 58.594 C 40.226 57.726, 42 56.338, 42 55.508 C 42 53.370, 39.406 53.640, 36.040 56.129 C 33.989 57.645, 32.405 58.068, 30.535 57.598 C 27.992 56.960, 27.919 56.733, 28.205 50.324 C 28.677 39.738, 30.863 39.776, 48.250 50.675 L 52 53.025 52 62.977 C 52 71.982, 52.195 73.034, 54.046 74.025 C 55.736 74.929, 57.220 74.490, 62.546 71.511 C 68.526 68.167, 69 67.651, 69 64.477 C 69 61.682, 69.552 60.766, 72 59.500 C 74.942 57.979, 75 57.798, 74.994 50.224 C 74.988 42.694, 74.912 42.457, 71.994 40.797 C 69.608 39.439, 69 38.416, 69 35.757 C 69 32.751, 68.439 32.099, 63.324 29.161 C 59.960 27.229, 56.600 26.023, 55.074 26.201 C 52.507 26.499, 52.499 26.530, 52.216 37.250 C 52.034 44.168, 52.301 48, 52.966 48 C 53.579 48, 54 45.153, 54 41 C 54 37.150, 54.168 34, 54.374 34 C 54.580 34, 56.792 35.143, 59.291 36.539 C 62.190 38.159, 64.068 38.699, 64.482 38.030 C 64.838 37.453, 63.706 36.198, 61.966 35.241 C 56.295 32.120, 53.781 29.819, 54.862 28.738 C 55.834 27.766, 64.675 32.086, 66.099 34.228 C 67.637 36.543, 65.668 39.916, 61.896 41.425 C 59.753 42.282, 58 43.452, 58 44.023 C 58 46.134, 60.949 46.098, 63.851 43.952 C 65.975 42.382, 67.585 41.930, 69.420 42.390 C 71.863 43.004, 72 43.385, 72 49.540 C 72 55.412, 71.770 56.148, 69.629 57.123 C 67.575 58.059, 66.004 57.481, 57.879 52.801 L 48.500 47.398 48.226 37.449 C 48.008 29.550, 47.608 27.242, 46.285 26.250 C 44.107 24.617, 44.459 24.524, 37.250 28.626 M 38.775 30.814 C 34.254 33.384, 32.299 35.633, 33.523 36.856 C 34.399 37.732, 45.500 31.273, 45.500 29.887 C 45.500 27.784, 43.660 28.037, 38.775 30.814 M 40.250 36.675 C 37.913 38.036, 36 39.495, 36 39.916 C 36 40.337, 38.250 41.907, 41 43.403 L 46 46.125 46 40.062 C 46 36.728, 45.663 34.045, 45.250 34.100 C 44.837 34.155, 42.587 35.314, 40.250 36.675 M 54 59.974 C 54 63.288, 54.153 66, 54.340 66 C 54.527 66, 57.026 64.717, 59.893 63.150 C 65.089 60.308, 65.098 60.294, 62.803 58.798 C 61.536 57.972, 59.038 56.543, 57.250 55.623 L 54 53.949 54 59.974 M 60.075 66.026 C 53.467 69.668, 53.365 69.765, 54.717 71.117 C 56.374 72.774, 66.930 66.434, 66.985 63.750 C 67.010 62.489, 65.722 62.914, 60.075 66.026" stroke="none" fill="#000000" fill-rule="evenodd"/><path fill-opacity=".142" d="M 40.500 11.409 C 20.410 16.387, 7.181 36.576, 10.874 56.619 C 14.045 73.830, 26.340 85.953, 43.944 89.227 C 60.061 92.224, 77.946 83.028, 85.322 67.952 C 96.642 44.816, 84.395 18.024, 59.540 11.552 C 52.562 9.735, 47.412 9.696, 40.500 11.409 M 37.250 28.573 C 31.494 31.836, 31 32.386, 31 35.532 C 31 38.317, 30.445 39.236, 28 40.500 C 25.058 42.022, 25 42.201, 25 49.810 C 25 57.370, 25.077 57.614, 28 59.341 C 30.386 60.750, 31 61.801, 31 64.470 C 31 67.566, 31.511 68.114, 37.554 71.493 C 43.810 74.992, 44.220 75.086, 46.554 73.556 C 48.860 72.046, 49 71.419, 49 62.599 C 49 55.504, 48.638 52.944, 47.500 52 C 46.189 50.912, 46 51.726, 46 58.473 L 46 66.190 41.486 63.545 C 37.426 61.165, 34.998 60.890, 35.001 62.809 C 35.002 63.189, 37.252 64.763, 40.001 66.308 C 42.750 67.852, 45 69.764, 45 70.558 C 45 72.489, 44.278 72.315, 39 69.111 C 32.335 65.066, 32.346 59.981, 39.022 58.646 C 41.114 58.227, 42 57.465, 42 56.084 C 42 52.910, 40.175 52.675, 36.903 55.428 C 33.501 58.290, 32.729 58.461, 29.934 56.965 C 28.353 56.118, 28 54.838, 28 49.943 C 28 44.667, 28.273 43.833, 30.301 42.909 C 32.260 42.016, 33.929 42.628, 41.551 47.028 C 46.473 49.870, 50.865 52.714, 51.311 53.348 C 51.757 53.982, 51.901 58.397, 51.632 63.159 C 51.213 70.549, 51.399 72.051, 52.900 73.409 C 55.303 75.584, 55.944 75.473, 62.643 71.714 C 67.975 68.723, 68.528 68.095, 68.811 64.708 C 69.057 61.761, 69.732 60.673, 72.061 59.469 C 74.939 57.980, 75 57.784, 75 50 C 75 42.180, 74.952 42.026, 72 40.500 C 69.562 39.239, 69 38.314, 69 35.560 C 69 32.427, 68.507 31.897, 62.446 28.507 C 56.190 25.008, 55.780 24.914, 53.446 26.444 C 51.140 27.954, 51 28.581, 51 37.401 C 51 44.006, 51.394 47.082, 52.342 47.869 C 54.426 49.598, 55 48.187, 55 41.333 C 55 37.850, 55.284 35, 55.632 35 C 55.980 35, 57.771 35.932, 59.614 37.070 C 62.706 38.981, 65 38.994, 65 37.100 C 65 36.670, 62.750 35.093, 60 33.597 C 55.224 30.997, 53.573 28.981, 56.250 29.016 C 56.938 29.025, 59.300 30.050, 61.500 31.293 C 67.743 34.822, 67.434 40.063, 60.907 41.369 C 58.480 41.854, 57.924 42.423, 58.179 44.161 C 58.641 47.300, 60.262 47.413, 63.378 44.525 C 66.406 41.719, 67.253 41.530, 70.066 43.035 C 71.644 43.880, 72 45.161, 72 50 C 72 54.939, 71.660 56.111, 69.966 57.018 C 68.267 57.927, 66.374 57.246, 58.466 52.878 L 49 47.649 49 37.360 C 49 28.210, 48.786 26.956, 47.066 26.035 C 44.357 24.586, 44.225 24.620, 37.250 28.573 M 38.250 31.566 C 35.913 32.967, 34 34.791, 34 35.619 C 34 36.797, 35.091 36.531, 39.017 34.394 C 41.777 32.892, 44.532 31.064, 45.140 30.332 C 47.054 28.026, 42.922 28.766, 38.250 31.566 M 39.750 37.220 C 37.688 38.415, 36 39.665, 36 39.997 C 36 40.330, 38.025 41.585, 40.500 42.788 L 45 44.974 45 39.987 C 45 37.244, 44.663 35.010, 44.250 35.023 C 43.837 35.036, 41.813 36.024, 39.750 37.220 M 55 59.917 C 55 62.712, 55.276 65, 55.614 65 C 56.706 65, 64 60.652, 64 60.001 C 64 59.488, 60.701 57.565, 55.750 55.193 C 55.337 54.995, 55 57.121, 55 59.917 M 60.230 66.146 C 57.353 67.806, 55 69.803, 55 70.583 C 55 72.429, 54.967 72.437, 60.456 69.369 C 64.695 66.999, 66.921 64.588, 65.853 63.520 C 65.637 63.303, 63.106 64.485, 60.230 66.146" stroke="none" fill="#000000" fill-rule="evenodd"/><path fill-opacity=".112" d="M 43.121 11.127 C 35.170 12.448, 29.669 15.254, 23.388 21.194 C 6.688 36.987, 6.141 61.906, 22.144 77.908 C 33.888 89.653, 52.666 92.801, 67.548 85.520 C 74.143 82.294, 82.342 73.640, 85.804 66.253 C 88.221 61.095, 88.500 59.361, 88.496 49.500 C 88.493 39.362, 88.271 38.078, 85.662 33.117 C 79.628 21.641, 68.599 13.291, 56.566 11.087 C 53.303 10.489, 50.153 10.053, 49.566 10.117 C 48.980 10.181, 46.079 10.636, 43.121 11.127 M 37.501 28.031 C 31.957 31.281, 30 33.435, 30 36.290 C 30 37.339, 28.650 39.459, 27 41 C 24.249 43.570, 24 44.353, 24 50.448 C 24 56.782, 24.140 57.173, 26.994 58.797 C 29.331 60.127, 29.989 61.197, 29.994 63.682 C 30 67.070, 31.416 68.426, 39.736 73.016 C 43.495 75.090, 44.255 75.201, 46.486 74.007 C 48.904 72.713, 49 72.295, 49 63.031 C 49 53.980, 48.207 51, 45.800 51 C 45.360 51, 45 54.159, 45 58.020 L 45 65.041 41.040 63.020 C 36.348 60.627, 35 60.497, 35 62.438 C 35 63.228, 37.250 65.100, 40 66.597 C 42.750 68.093, 45 69.696, 45 70.159 C 45 71.550, 43.490 71.133, 38.571 68.384 C 34.618 66.174, 33.937 65.358, 34.195 63.134 C 34.428 61.119, 35.322 60.236, 38 59.375 C 40.339 58.623, 41.606 57.543, 41.820 56.120 C 42.322 52.784, 39.343 52.384, 36.342 55.385 C 33.436 58.291, 32.735 58.464, 29.934 56.965 C 27.043 55.418, 27.121 45.030, 30.037 43.209 C 31.829 42.090, 33.208 42.571, 41.515 47.218 L 50.956 52.500 50.978 62.771 C 51 72.868, 51.044 73.063, 53.615 74.234 C 55.930 75.289, 56.988 75.009, 62.865 71.787 C 68.926 68.463, 69.527 67.841, 69.809 64.596 C 70.044 61.900, 70.827 60.624, 73.059 59.306 C 75.884 57.637, 76 57.282, 76 50.314 C 76 43.413, 75.854 42.952, 73 40.842 C 71.037 39.391, 69.995 37.738, 69.985 36.062 C 69.963 32.481, 69.312 31.795, 62.320 27.984 C 56.918 25.039, 55.816 24.763, 53.570 25.786 C 51.064 26.928, 51 27.202, 51 36.779 C 51 46.017, 51.781 49, 54.200 49 C 54.640 49, 55 45.841, 55 41.980 L 55 34.959 58.960 36.980 C 63.655 39.375, 65 39.503, 65 37.558 C 65 36.764, 62.750 34.852, 60.001 33.308 C 55.386 30.716, 53.742 29, 55.874 29 C 56.355 29, 58.855 30.177, 61.429 31.616 C 65.382 33.826, 66.063 34.642, 65.805 36.866 C 65.572 38.881, 64.678 39.764, 62 40.625 C 59.661 41.377, 58.394 42.457, 58.180 43.880 C 57.726 46.897, 60.620 47.686, 63.301 45.275 C 66.725 42.196, 67.806 41.826, 69.979 42.989 C 72.937 44.572, 72.941 54.931, 69.984 56.778 C 68.217 57.881, 66.829 57.380, 58.734 52.717 L 49.500 47.398 49.226 37.449 C 49.008 29.550, 48.608 27.242, 47.285 26.250 C 44.860 24.432, 43.093 24.753, 37.501 28.031 M 38.250 31.675 C 35.913 33.036, 34 34.800, 34 35.595 C 34 36.659, 35.385 36.250, 39.241 34.047 C 44.405 31.098, 46.441 28.904, 43.833 29.100 C 43.100 29.155, 40.587 30.314, 38.250 31.675 M 39.698 37.445 L 35.896 39.702 38.198 41.195 C 44.939 45.569, 45 45.559, 45 40.035 C 45 37.266, 44.663 35.042, 44.250 35.094 C 43.837 35.146, 41.789 36.204, 39.698 37.445 M 55 59.965 C 55 62.734, 55.179 65, 55.398 65 C 55.617 65, 57.662 63.940, 59.943 62.644 L 64.090 60.289 61.795 58.800 C 55.061 54.432, 55 54.442, 55 59.965 M 60.250 66.293 C 55.264 69.252, 53.712 71, 56.072 71 C 58.157 71, 66 65.790, 66 64.405 C 66 63.632, 65.888 63.040, 65.750 63.089 C 65.612 63.138, 63.138 64.580, 60.250 66.293" stroke="none" fill="#000000" fill-rule="evenodd"/></svg>