<svg width="500" height="334" viewBox="0 0 500 334" fill="#000000" xmlns="http://www.w3.org/2000/svg">
<path fill-rule="evenodd" clip-rule="evenodd" d="M0 166.667V333.333H250H500V166.667V0H250H0V166.667ZM462.963 166.667V300.926H247.685H32.4074V166.667V32.4074H247.685H462.963V166.667ZM69.4444 85.1343C69.4444 99.3704 70.9306 101.102 85.5139 103.833C151.829 116.278 153.361 209.241 87.5417 226.968C70.787 231.477 69.4444 233.065 69.4444 248.38V264.921L86.8056 261.745C130.75 253.708 162.009 222.833 173.954 175.662C189.338 114.935 207.829 113.894 231.764 172.417C258.352 237.417 280.102 251.648 321.921 231.403L343.222 221.093L355.639 232.704C371.486 247.523 391.556 257.602 413.356 261.694L430.556 264.921V248.38C430.556 233.222 429.106 231.431 413.194 226.954C341.759 206.861 348.366 101.852 421.065 101.852C428.824 101.852 430.556 98.8981 430.556 85.6481C430.556 36.7268 342.102 89.6157 326.019 148.148C305.532 222.731 293.926 223.333 263.968 151.37C240.963 96.1065 206.361 76.9213 174.662 101.852C160.69 112.843 154.681 113.495 151.19 104.394C140.5 76.5324 69.4444 59.7917 69.4444 85.1343Z" fill="#000000"/>
</svg>
