<svg xmlns="http://www.w3.org/2000/svg" width="200" height="200" fill="#000000"><path fill-opacity=".141" fill-rule="evenodd" d="M92 17.922c0 .794-1.201.97-3.75.548-2.959-.489-3.434-.375-2.25.539 1.19.92.778 1.039-2 .577-2.666-.444-3.143-.325-2 .5 1.149.829.681.961-2 .566-1.925-.284-2.861-.259-2.08.056 1.754.707-10.88 5.465-12.722 4.791-.793-.29-1.022-.023-.586.682.483.781.157.944-1 .5-1.156-.443-1.482-.28-1 .5.483.781.157.944-1 .5-.944-.362-1.475-.268-1.18.208.571.925-7.299 6.577-8.076 5.8-.254-.253 1.137-1.449 3.091-2.656 3.226-1.994 5.26-4.138 2.303-2.428-3.94 2.279-6.684 4.639-6.482 5.575.128.589-.393 1.297-1.157 1.575-.96.348-1.138.078-.578-.875.446-.759-.167-.523-1.361.525-2.596 2.277-2.905 3.392-.422 1.522.962-.725-.699 1.234-3.691 4.353s-5.664 5.448-5.935 5.177c-.272-.272 1.277-2.395 3.441-4.719 3.086-3.313 3.219-3.579.616-1.232C38.6 43.737 32.329 51.663 29.527 56.5c-2.107 3.637-.206 1.419 4.28-4.993 1.819-2.6 3.562-4.471 3.874-4.159s-.572 1.922-1.964 3.577c-6.751 8.023-12.465 21.739-15.252 36.611-3.007 16.047 1.623 39.876 10.743 55.294 4.364 7.377 16.682 20.284 23.801 24.936 9.316 6.089 9.635 6.33 6.241 4.723-5.24-2.483-3.727-.764 1.787 2.03 2.771 1.404 5.471 2.285 6 1.958.53-.327.963-.07.963.571s.646.918 1.435.615c.79-.303 1.591-.084 1.781.485.19.57 1.569 1.107 3.064 1.194s2.719.44 2.719.786c.002 1.534 16.841 3.129 26.895 2.547 13.619-.788 24.34-3.532 35.606-9.114 20.413-10.114 35.475-27.846 42.52-50.061 3.418-10.774 3.912-31.007 1.051-43-6.766-28.36-27.181-50.438-55.571-60.097-6.87-2.337-10.084-2.787-22.75-3.186-10.854-.342-14.75-.156-14.75.705m55.615 31.757c10.262 10.184 16.154 20.216 19.483 33.167 2.49 9.689 2.691 25.216.436 33.654-3.427 12.824-8.897 19.69-9.806 12.31l-.408-3.31-.16 3.25c-.088 1.787-.685 3.25-1.327 3.25s-.865.301-.497.669c.367.368-.049 1.461-.926 2.43-1.479 1.634-1.443 1.722.498 1.215 1.729-.452 2.092-.093 2.092 2.069 0 1.944-2.118 4.735-8.236 10.853-4.531 4.531-6.893 7.275-5.25 6.098 3.633-2.602 13.512-13.035 15.236-16.091 1.518-2.692 1.634-4.33.159-2.243-.943 1.333-1.011 1.333-.61 0 .248-.825.982-1.379 1.63-1.232 1.894.431 7.157-12.456 9.299-22.768 1.425-6.857 1.819-11.587 1.418-17-1.405-18.975-11.414-38.71-24.915-49.126-3.328-2.568-2.926-1.97 1.884 2.805M87.5 52.529c-2.2.792-4.112 1.448-4.25 1.456s-.25.442-.25.964 1.688.216 3.75-.679 5.775-1.937 8.25-2.315l4.5-.688-4-.089c-2.2-.05-5.8.558-8 1.351m18.313-.846c.721.289 1.584.253 1.916-.079s-.258-.568-1.312-.525c-1.165.048-1.402.285-.604.604m-59.23 1.183c-.431.697-.513 1.537-.183 1.867.895.895 1.871-.421 1.387-1.871-.338-1.016-.574-1.016-1.204.004m30.18 5.589c-4.884 3.729-13.145 15.117-12.143 16.739.518.838 4.381-4.725 7.871-11.335.545-1.033 1.67-2.112 2.5-2.399 2.281-.789 7.509-5.294 6.877-5.926-.305-.304-2.602 1.01-5.105 2.921m-51.304 4.612c-.363.586-.445 1.281-.183 1.543s.743-.218 1.069-1.067c.676-1.762.1-2.072-.886-.476m11.683 2.183c-.149 3.947-.892 4.401-4.458 2.721-2.136-1.006-2.135-.993.066.622 1.237.908 2.25 2.271 2.25 3.029S35.42 73 35.934 73c.513 0 1.121 1.237 1.35 2.75l.416 2.75.15-2.75c.083-1.513.548-2.75 1.033-2.75.486 0 1.115-.885 1.398-1.966.302-1.154.046-1.877-.62-1.75-.623.119-1.413-1.584-1.755-3.784l-.622-4zm-14.518 4.289c-.965 2.514-.681 3.163.498 1.136.584-1.004.851-2.036.593-2.293-.257-.258-.749.263-1.091 1.157m-2.545 8.044c.048 1.165.285 1.402.604.605.289-.722.253-1.585-.079-1.917s-.568.258-.525 1.312m41.492 4.56c-2.719 9.413-3.575 15.89-3.404 25.743l.167 9.614.651-12c.42-7.73 1.455-14.789 2.91-19.839 1.243-4.312 2.026-8.073 1.742-8.358-.285-.285-1.215 1.893-2.066 4.84m-42.492-.56c.048 1.165.285 1.402.604.605.289-.722.253-1.585-.079-1.917s-.568.258-.525 1.312m51.803 5.299C67.391 90.374 67 91.277 67 95.848c0 4.259.503 5.655 3.104 8.617 1.707 1.944 3.844 3.533 4.75 3.531.988-.002.336-.802-1.629-2-8.09-4.933-6.328-18.543 2.81-21.69 2.825-.973 3.028-1.204 1.097-1.25-1.467-.035-3.844 1.421-6.25 3.826m45.931-3.199c.721.289 1.584.253 1.916-.079s-.258-.568-1.312-.525c-1.165.048-1.402.285-.604.604M18.195 86.5c.02 1.65.244 2.204.498 1.231s.237-2.323-.037-3-.481.119-.461 1.769m93.246-.945c-1.83 1.467-1.798 1.487.559.365 3.061-1.458 3.628-1.92 2.358-1.92-.537 0-1.849.7-2.917 1.555M50 91c-1.1 1.1-1.971 2.787-1.937 3.75.051 1.399.237 1.32.929-.393.475-1.179 1.897-2.866 3.159-3.75S53.895 89 53.223 89c-.673 0-2.123.9-3.223 2m92.507-.011c-.35.566.051.734.941.393 1.732-.665 2.049-1.382.611-1.382-.518 0-1.216.445-1.552.989M17.365 100.5c.003 5.5.171 7.622.373 4.716.203-2.905.201-7.405-.004-10s-.371-.216-.369 5.284m89.714-7.917c.048 1.165.285 1.402.604.605.289-.722.253-1.585-.079-1.917s-.568.258-.525 1.312m.921 9.316c0 .928 5.886 6.598 6.258 6.028.153-.235-1.192-1.851-2.99-3.591-1.797-1.741-3.268-2.837-3.268-2.437m9.25 6.79c.963.252 2.537.252 3.5 0 .963-.251.175-.457-1.75-.457s-2.713.206-1.75.457M18.158 114c0 1.375.227 1.938.504 1.25.278-.687.278-1.812 0-2.5-.277-.687-.504-.125-.504 1.25m1.012 4.5c-.016 1.1.357 2.9.83 4 1.095 2.548 1.095-.081 0-3.5-.644-2.01-.806-2.108-.83-.5m40.261 2.84c.495 4.022 3.58 12.983 4.241 12.321.211-.211-.114-1.684-.722-3.272-.608-1.589-1.755-5.139-2.548-7.889-1.28-4.433-1.39-4.565-.971-1.16m-37.4 7.16c0 .55.436 1.675.969 2.5s.969 1.05.969.5-.436-1.675-.969-2.5-.969-1.05-.969-.5M24 133.373c0 1.08 3.972 8.627 4.541 8.627.275 0-.465-1.912-1.644-4.25-2.318-4.597-2.897-5.472-2.897-4.377m41 2.264c0 .534 1.688 2.521 3.75 4.417l3.75 3.446-3.5-3.989c-1.925-2.194-3.612-4.181-3.75-4.417s-.25.009-.25.543M30.706 145.96c2.324 4.482 18.852 21.01 23.334 23.334 3.327 1.724 3.365 1.724.985 0-9.608-6.964-17.117-14.479-24.319-24.338-1.724-2.362-1.724-2.323 0 1.004m103.735 14.595c-1.864 1.494-1.852 1.512.309.465 1.238-.6 2.25-1.3 2.25-1.555 0-.765-.519-.544-2.559 1.09"/><path fill-opacity=".11" fill-rule="evenodd" d="M103 18.022c13.801.851 21.8 2.813 32.578 7.989 16.438 7.895 30.503 21.942 38.362 38.315 5.508 11.475 7.129 18.313 7.745 32.674.454 10.575.206 13.886-1.607 21.5-4.207 17.672-14.787 34.606-28.613 45.797-7.421 6.008-21.579 13.089-31.465 15.737-6.279 1.682-6.697 1.909-2.569 1.399 24.825-3.07 49.579-21.272 61.107-44.933 6.108-12.537 7.629-18.851 8.188-34 .404-10.955.143-14.416-1.661-22-5.694-23.935-21.662-44.085-43.565-54.974-12.604-6.266-22.979-8.55-38-8.363l-12 .149zm-16.187.661c.721.289 1.584.253 1.916-.079s-.258-.568-1.312-.525c-1.165.048-1.402.285-.604.604M56.441 29.555c-1.864 1.494-1.852 1.512.309.465 1.237-.6 2.25-1.3 2.25-1.555 0-.765-.519-.544-2.559 1.09m-4.569 3.195c-1.243 1.586-1.208 1.621.378.378.962-.755 1.75-1.543 1.75-1.75 0-.823-.821-.294-2.128 1.372M83 32.987c-9.983 2.671-20.269 7.842-27 13.574-3.025 2.576-5.806 5.207-6.18 5.847s-2.174 2.759-4 4.71c-1.826 1.95-4.361 5.422-5.634 7.714-1.89 3.404-2.033 4.168-.781 4.168.951 0 1.314.569.957 1.5-.317.825-.19 1.502.281 1.505s2.207 1.112 3.857 2.465l3 2.461-3.25-1.185C42.462 75.095 41 74.21 41 73.781S40.325 73 39.5 73q-1.5.002-1.632 3.25l-.131 3.25-.695-3.5-.695-3.5-1.243 2.997c-4.546 10.965-5.466 30.128-2.039 42.496 10.574 38.158 49.304 59.659 87.185 48.399 3.162-.94 5.75-2.114 5.75-2.609s.45-.623 1-.283 1 .066 1-.608.281-.945.624-.602c.936.936 8.131-3.001 14.685-8.035 6.294-4.836 14.004-13.85 13.377-15.642-.425-1.217-3.054-1.288-6.186-.168-1.411.505-1.116-.053 1-1.894l3-2.609-3.5-3.01-3.5-3.011 3.856 1.533c4.765 1.894 5.612 1.414 5.764-3.263l.12-3.691 1.022 4.25c.562 2.338 1.376 4.25 1.809 4.25 6.399 0 11.277-30.295 7.487-46.5-5.448-23.291-22.528-42.009-45.748-50.137-10.355-3.625-28.056-4.252-38.81-1.376M47.405 36.25 45.5 38.5l2.25-1.905C49.864 34.805 50.455 34 49.655 34c-.19 0-1.202 1.013-2.25 2.25m-6.459 5.5L37.5 45.5l3.75-3.446c2.063-1.896 3.75-3.583 3.75-3.75 0-.764-.846-.044-4.054 3.446m-5.569 6.5C32.424 51.619 30.699 54 31.21 54c.25 0 1.902-1.8 3.67-4 3.432-4.271 3.78-5.497.497-1.75M87.5 52.474c-2.2.823-4.112 1.503-4.25 1.511-.847.051-.085 27.93.775 28.357.564.279.451.393-.25.252-.929-.187-1.411-3.986-1.775-14.009l-.5-13.754-4.549 3.477c-4.497 3.437-8.5 8.04-10.848 12.475-.876 1.656-1.187 10.993-1.13 33.979l.078 31.695 3.171 3.272c1.743 1.799 3.532 3.271 3.974 3.271s.804-7.738.804-17.195v-17.196l-2.75-2.959c-1.513-1.628-2.111-2.591-1.33-2.141 1.119.646 1.232.413.535-1.095-1.142-2.47-1.142-10.358 0-12.828.68-1.47.578-1.724-.44-1.096-.907.561-1.086.434-.569-.402.415-.672.996-.979 1.291-.684.296.295 1.822-.378 3.392-1.496 5.038-3.587 14.287-2.095 17.182 2.77.447.75 1.122 1.174 1.5.941.611-.375.811 4.982.356 9.554-.092.921-1.237 2.946-2.546 4.5-1.308 1.555-2.399 3.266-2.425 3.802s-.642 1.133-1.371 1.326c-1.086.288-1.084.182.01-.586.872-.613-.413-.77-3.709-.453-3.94.378-5.873.014-8.835-1.665l-3.791-2.15 2.5 2.277 2.5 2.276-.5 17.859-.5 17.859 3.5 1.755c1.925.966 5.975 2.37 9 3.122 6.036 1.499 22.754 1.6 27.5.166l3-.907v-19.677c0-12.452.367-19.678 1-19.679.642 0 .896 6.97.709 19.492l-.291 19.492 2.608-.992c6.364-2.419 6.021-1.124 5.474-20.639l-.5-17.851 2.5-2.276 2.5-2.277-3.791 2.15c-2.962 1.679-4.895 2.043-8.835 1.665-3.296-.317-4.581-.16-3.709.453 1.094.768 1.096.874.01.586-.729-.193-1.268-.697-1.198-1.12s-.983-2.088-2.34-3.701c-3.55-4.218-4.173-8.233-1.967-12.67 3.241-6.518 9.07-8.94 16.477-6.844 1.294.366 1.903.298 1.353-.15-.619-.506-.79-5.003-.448-11.816l.553-11 .322 11.25c.178 6.188.386 11.588.463 12 .315 1.681 1.803 3.249 2.61 2.75.474-.293 1.187-.006 1.585.638q.729 1.177-.6.352c-1.018-.628-1.12-.374-.44 1.096 1.142 2.47 1.142 10.358 0 12.828-.697 1.508-.584 1.741.535 1.095.781-.45.182.513-1.33 2.141l-2.75 2.959v17.196c0 9.457.398 17.195.884 17.195 1.659 0 8.252-8.152 10.124-12.518 6.319-14.743 5.061-39.347-2.912-56.93-2.87-6.331-10.238-14.952-14.918-17.457L118 54.93v14.035c0 12.73-.163 14.028-1.75 13.956-1.045-.047-1.247-.282-.5-.583.915-.369 1.25-4.192 1.25-14.261V54.321l-2.75-1.33c-4.157-2.011-21.841-2.353-26.75-.517M99.463 101c0 27.225.129 38.363.286 24.75s.157-35.888 0-49.5-.286-2.475-.286 24.75m8.762-31.095c-.224 18.348-.219 18.399 1.775 16.595 2.3-2.082 2.741-3.36.524-1.52-1.29 1.07-1.514-.963-1.775-16.128L108.45 51.5zm-17.019-.533c-.194 15.903-.307 16.795-1.956 15.518-1.294-1.003-1.229-.745.25.987l2 2.343.288-9.161c.159-5.038.139-13.075-.044-17.86-.183-4.784-.425-1.106-.538 8.173M29 57c-.589 1.1-.845 2-.57 2s.981-.9 1.57-2 .845-2 .57-2-.981.9-1.57 2m43.951 16.125c-.292 7.521-.098 11.49.549 11.242.581-.223.886-3.627.729-8.125-.493-14.077-.823-14.879-1.278-3.117m-29.392-5.593c-1.068.807-1.46 1.468-.873 1.468.588 0 1.629-.675 2.314-1.5 1.557-1.876 1.067-1.866-1.441.032m-20.935 2.007c-.965 2.514-.681 3.163.498 1.136.584-1.004.851-2.036.593-2.293-.257-.258-.749.263-1.091 1.157m-2.545 8.044c.048 1.165.285 1.402.604.605.289-.722.253-1.585-.079-1.917s-.568.258-.525 1.312M61 84c-2.161 7.347-2.5 10.467-2.5 23 0 13.067.247 15.143 2.5 21l2.5 6.5.277-14.75c.152-8.113.152-21.388 0-29.5L63.5 75.5zm-41.921-2.417c.048 1.165.285 1.402.604.605.289-.722.253-1.585-.079-1.917s-.568.258-.525 1.312m-.884 4.917c.02 1.65.244 2.204.498 1.231s.237-2.323-.037-3-.481.119-.461 1.769m32.028 4.057C48.585 91.703 48 93.12 48 95.934c0 4.485 1.788 6.336 5.69 5.888 2.296-.263 2.818-.818 2.856-3.034.025-1.492.362-3.03.75-3.417 1.363-1.363.683-4.312-1.23-5.336-2.566-1.373-3.222-1.315-5.843.522m93.527-.477c-1.764 1.028-2.349 3.987-1.046 5.291.388.387.725 1.925.75 3.417.038 2.216.56 2.771 2.856 3.034 3.902.448 5.69-1.403 5.69-5.888 0-2.814-.585-4.231-2.223-5.377-2.571-1.801-3.612-1.884-6.027-.477M17.36 100c0 5.225.169 7.362.375 4.75s.206-6.888 0-9.5-.375-.475-.375 4.75m48.872-4c0 1.925.206 2.713.457 1.75.252-.963.252-2.537 0-3.5-.251-.963-.457-.175-.457 1.75m67 0c0 1.925.206 2.713.457 1.75.252-.963.252-2.537 0-3.5-.251-.963-.457-.175-.457 1.75m-43.36 9.75c-1.243 1.586-1.208 1.621.378.378 1.666-1.307 2.195-2.128 1.372-2.128-.207 0-.995.787-1.75 1.75M108 104.378c0 .207.787.995 1.75 1.75 1.586 1.243 1.621 1.208.378-.378-1.307-1.666-2.128-2.195-2.128-1.372m-31.25 5.284c.688.278 1.813.278 2.5 0 .688-.277.125-.504-1.25-.504s-1.937.227-1.25.504m5.063.021c.721.289 1.584.253 1.916-.079s-.258-.568-1.312-.525c-1.165.048-1.402.285-.604.604m38.937-.021c.688.278 1.813.278 2.5 0 .688-.277.125-.504-1.25-.504s-1.937.227-1.25.504M18.158 114c0 1.375.227 1.938.504 1.25.278-.687.278-1.812 0-2.5-.277-.687-.504-.125-.504 1.25m.921 4.583c.048 1.165.285 1.402.604.605.289-.722.253-1.585-.079-1.917s-.568.258-.525 1.312m1 4c.048 1.165.285 1.402.604.605.289-.722.253-1.585-.079-1.917s-.568.258-.525 1.312M24 133.373c0 1.08 3.972 8.627 4.541 8.627.275 0-.465-1.912-1.644-4.25-2.318-4.597-2.897-5.472-2.897-4.377m5.97 11.571c.573 1.07 1.535 2.25 2.139 2.623s.325-.501-.62-1.944c-2.002-3.055-3.038-3.518-1.519-.679m3.03 4.434c0 .207.788.995 1.75 1.75 1.586 1.243 1.621 1.208.378-.378-1.307-1.666-2.128-2.195-2.128-1.372m8 9.122c2.987 3.025 5.657 5.5 5.932 5.5s-1.945-2.475-4.932-5.5-5.657-5.5-5.932-5.5 1.945 2.475 4.932 5.5m7 5.878c0 .207.788.995 1.75 1.75 1.586 1.243 1.621 1.208.378-.378-1.307-1.666-2.128-2.195-2.128-1.372m4.433 3.513c.713 1.154 4.567 3.483 4.567 2.759 0-.231-1.18-1.193-2.623-2.139s-2.318-1.224-1.944-.62M58 171.493c0 .677 8.123 4.718 8.575 4.265.21-.209-1.634-1.36-4.097-2.556-2.463-1.197-4.478-1.966-4.478-1.709m21.813 9.19c.721.289 1.584.253 1.916-.079s-.258-.568-1.312-.525c-1.165.048-1.402.285-.604.604m5 1c.721.289 1.584.253 1.916-.079s-.258-.568-1.312-.525c-1.165.048-1.402.285-.604.604m7.451 1.035c1.52.229 3.77.223 5-.014s-.014-.425-2.764-.418-3.756.202-2.236.432m11 0c1.52.229 3.77.223 5-.014s-.014-.425-2.764-.418-3.756.202-2.236.432"/><path fill-opacity=".323" fill-rule="evenodd" d="M103 18.022c14.304.882 21.998 2.843 33.5 8.535 16.569 8.2 28.687 20.309 36.971 36.943 6.641 13.336 8.855 23.937 8.252 39.5-.541 13.946-2.147 21.024-7.203 31.744-10.698 22.686-29.823 38.564-54.52 45.264-6.342 1.721-6.739 1.941-2.569 1.425 12.315-1.523 28.17-8.574 39.315-17.483 32.865-26.274 40.143-75.772 16.303-110.878-15.954-23.494-40.695-36.267-69.549-35.909l-12 .149zm-16.187.661c.721.289 1.584.253 1.916-.079s-.258-.568-1.312-.525c-1.165.048-1.402.285-.604.604M51.872 32.75c-1.243 1.586-1.208 1.621.378.378.962-.755 1.75-1.543 1.75-1.75 0-.823-.821-.294-2.128 1.372M83 33.045C70.039 36.39 61.636 41.31 51.5 51.49c-8.031 8.066-15 17.57-12.814 17.475 2.356-.103 5.929-3.291 10.668-9.518 6.461-8.489 14.855-15.438 24.146-19.988 9.98-4.888 17.171-6.441 30.46-6.577 7.477-.077 10.484-.387 8.54-.882-5.958-1.516-21.74-.957-29.5 1.045M47.872 35.75c-1.243 1.586-1.208 1.621.378.378.962-.755 1.75-1.543 1.75-1.75 0-.823-.821-.294-2.128 1.372M127 37c.825.533 1.95.969 2.5.969s.325-.436-.5-.969-1.95-.969-2.5-.969-.325.436.5.969m-86.054 4.75L37.5 45.5l3.75-3.446c2.063-1.896 3.75-3.583 3.75-3.75 0-.764-.846-.044-4.054 3.446M131 38.43c0 .275.9.981 2 1.57s2 .845 2 .57-.9-.981-2-1.57-2-.845-2-.57m7 3.948c0 .207.787.995 1.75 1.75 1.586 1.243 1.621 1.208.378-.378-1.307-1.666-2.128-2.195-2.128-1.372m6 5.122c1.292 1.375 2.574 2.5 2.849 2.5s-.557-1.125-1.849-2.5-2.574-2.5-2.849-2.5.557 1.125 1.849 2.5M34.872 48.75c-1.243 1.586-1.208 1.621.378.378C36.916 47.821 37.445 47 36.622 47c-.207 0-.995.788-1.75 1.75m53.983 2.168c-6.122 1.974-15.273 7.749-19.031 12.009C65.305 68.049 60.87 76.236 58.95 83c-.703 2.475-1.892 5.009-2.643 5.632-1.144.948-1.118 1.227.164 1.718.841.323 1.575 1.614 1.631 2.869.057 1.254.653-.194 1.325-3.219 2.492-11.209 6.255-19.916 11.021-25.5l2.56-3-.254 11.657c-.14 6.412.107 11.433.548 11.159.44-.274.724-5.719.629-12.1-.195-13.176-.342-12.898 9.559-18.015 4.155-2.147 6.717-2.659 15.01-3.001l10-.412-.303 11.856c-.167 6.521-.167 14.944 0 18.718l.303 6.863 2-2.345c1.48-1.736 1.545-1.993.25-.99-1.651 1.278-1.75.389-1.75-15.768 0-18.55-.031-18.46 5.453-15.961l2.547 1.16v13.756c0 8.397-.399 13.954-1.025 14.265-.564.279-.451.393.25.252.929-.187 1.411-3.984 1.775-14.002l.5-13.745 3.835 2.826 3.836 2.827.164 12.238c.155 11.498.053 12.203-1.688 11.65-6.691-2.124-12.816.56-16.026 7.024-1.599 3.22-1.708 4.354-.732 7.612.631 2.106 2.569 5.025 4.306 6.487 2.648 2.228 3.899 2.592 7.732 2.251 2.515-.224 5.473-.749 6.573-1.166 1.729-.656 1.797-.579.5.572-1.265 1.123-1.422 4.135-1 19.188l.5 17.857-3.5 1.849c-1.925 1.017-3.007 1.869-2.405 1.894s3.752-1.675 7-3.776c10.291-6.659 14.44-14.206 16.559-30.123 1.036-7.781 1.472-9.057 3.092-9.057 3.39 0 5.663-1.964 6.848-5.919.996-3.323.892-4.442-.715-7.733-1.661-3.401-2.379-3.906-6.181-4.348l-4.301-.5-2.35-6.743c-3.385-9.717-6.937-15.225-12.85-19.927-8.972-7.135-14.711-9.218-26.197-9.511-5.5-.14-11.19.129-12.645.599M31.872 52.75c-1.243 1.586-1.208 1.621.378.378.962-.755 1.75-1.543 1.75-1.75 0-.823-.821-.294-2.128 1.372M152.5 56c.995 1.1 2.035 2 2.31 2s-.315-.9-1.31-2-2.035-2-2.31-2 .315.9 1.31 2M29 57c-.589 1.1-.845 2-.57 2s.981-.9 1.57-2 .845-2 .57-2-.981.9-1.57 2m126 2.378c0 .207.787.995 1.75 1.75 1.586 1.243 1.621 1.208.378-.378-1.307-1.666-2.128-2.195-2.128-1.372M127.104 73.5c.081 9.437.442 12.382 1.69 13.79 1.515 1.707 1.453 1.719-1.353.256-6.446-3.361-13.218-.782-15.413 5.869-1.478 4.48-.464 8.04 3.158 11.088 6.295 5.297 14.539 1.096 15.929-8.116l.738-4.887-.256 4.5c-.141 2.475-.635 5.361-1.097 6.414-.658 1.5-.533 1.736.58 1.09.842-.489 1.081-.454.587.086-.459.5-1.359.91-2 .91a1.17 1.17 0 0 0-1.167 1.167c0 .641-.338 1.504-.75 1.916-1.09 1.091-.93 35.417.165 35.417 1.985 0 9.136-9.516 11.161-14.853 1.644-4.331 2.267-8.735 2.676-18.897.292-7.287.823-13.25 1.179-13.25s.63 1.237.608 2.75c-.032 2.283.438 2.805 2.771 3.072 3.912.449 5.69-1.401 5.69-5.921 0-3.025-.547-4.213-2.541-5.52-3.26-2.136-7.407-.574-7.561 2.848-.057 1.249-.653-.204-1.325-3.229-2.49-11.201-6.25-19.906-11.016-25.5l-2.555-3zM159.5 66c.853 1.65 1.776 3 2.051 3s-.198-1.35-1.051-3-1.776-3-2.051-3 .198 1.35 1.051 3M22.624 69.539c-.965 2.514-.681 3.163.498 1.136.584-1.004.851-2.036.593-2.293-.257-.258-.749.263-1.091 1.157m18.835.528c-.363.586-.445 1.281-.183 1.543s.743-.218 1.069-1.067c.676-1.762.1-2.072-.886-.476m120.572.433c0 .55.436 1.675.969 2.5s.969 1.05.969.5-.436-1.675-.969-2.5-.969-1.05-.969-.5M35.204 75.424c-4.486 9.944-5.526 29.086-2.272 41.81 5.12 20.02 18.021 35.837 36.568 44.834 12.586 6.105 20.72 7.623 37 6.907 4.978-.219 4.209-.393-4.509-1.022C74.557 165.977 55.645 153.88 42.656 130c-6.896-12.679-9.527-30.178-6.594-43.854.584-2.725.922-6.898.75-9.275L36.5 72.55zm-15.125 2.159c.048 1.165.285 1.402.604.605.289-.722.253-1.585-.079-1.917s-.568.258-.525 1.312m-1 4c.048 1.165.285 1.402.604.605.289-.722.253-1.585-.079-1.917s-.568.258-.525 1.312m147 0c.048 1.165.285 1.402.604.605.289-.722.253-1.585-.079-1.917s-.568.258-.525 1.312m-88.066 2.228c-7.999 1.256-12.095 10.225-8.495 18.603.643 1.497.512 1.734-.598 1.09-.842-.489-1.081-.454-.587.086.459.5 1.359.91 2 .91a1.17 1.17 0 0 1 1.167 1.167c0 .641.338 1.504.75 1.916 1.09 1.091.93 35.417-.165 35.417-1.985 0-9.136-9.516-11.161-14.853-1.644-4.331-2.267-8.735-2.676-18.897-.292-7.287-.823-13.25-1.179-13.25s-.63 1.237-.608 2.75c.032 2.283-.438 2.805-2.771 3.072-3.813.437-5.659-1.36-5.85-5.694l-.16-3.628-.409 3.321c-.49 3.984 1.796 7.907 5.089 8.733 2.109.53 2.439 1.427 3.406 9.266 1.609 13.042 4.405 19.618 11.179 26.291 6.453 6.357 13.571 9.585 22.826 10.35 5.965.494 5.416.262-3.771-1.589-3.025-.61-7.075-1.906-9-2.881l-3.5-1.773.5-17.859c.422-15.056.265-18.068-1-19.191-1.297-1.151-1.229-1.228.5-.572 1.1.417 4.031.94 6.513 1.162 3.563.318 5.114-.07 7.371-1.845 2.958-2.327 5.668-7.521 5.546-10.631-.038-.98-.718.327-1.511 2.905-2.777 9.022-9.977 11.455-16.019 5.413-5.603-5.603-4.514-13.401 2.266-16.234 4.357-1.82 9.317-.475 12.318 3.341C91.093 92.117 92 92.766 92 92.151s-1.237-2.485-2.75-4.154c-2.934-3.238-7.187-4.822-11.237-4.186M18.158 86c0 1.375.227 1.938.504 1.25.278-.687.278-1.812 0-2.5-.277-.687-.504-.125-.504 1.25M89.5 86c.995 1.1 2.035 2 2.31 2s-.315-.9-1.31-2-2.035-2-2.31-2 .315.9 1.31 2m77.579-.417c.048 1.165.285 1.402.604.605.289-.722.253-1.585-.079-1.917s-.568.258-.525 1.312M49.861 90.059l-2.361 2.06 3-1.757C54.448 88.05 54.507 88 53.277 88c-.58 0-2.118.927-3.416 2.059M168.232 92c0 1.925.206 2.713.457 1.75.252-.963.252-2.537 0-3.5-.251-.963-.457-.175-.457 1.75M17.36 100c0 5.225.169 7.362.375 4.75s.206-6.888 0-9.5-.375-.475-.375 4.75m48.872-4c0 1.925.206 2.713.457 1.75.252-.963.252-2.537 0-3.5-.251-.963-.457-.175-.457 1.75m67 0c0 1.925.206 2.713.457 1.75.252-.963.252-2.537 0-3.5-.251-.963-.457-.175-.457 1.75M80 97.941c0 1.132.45 2.059 1 2.059s1-.648 1-1.441-.45-1.719-1-2.059-1 .309-1 1.441m38.531-.648c-.428.986-.497 2.074-.155 2.417 1.016 1.015 1.835-.411 1.367-2.382-.414-1.747-.468-1.748-1.212-.035m49.664 11.207c.02 1.65.244 2.204.498 1.231s.237-2.323-.037-3-.481.119-.461 1.769m-51.404 20.015c.325 21.767.927 20.032-7.441 21.436-3.098.52-3.836.856-2.043.931 1.544.065 4.694-.357 7-.937l4.193-1.054-.29-19.946c-.16-10.97-.61-19.945-1-19.946-.391-.001-.579 8.781-.419 19.516M18.158 114c0 1.375.227 1.938.504 1.25.278-.687.278-1.812 0-2.5-.277-.687-.504-.125-.504 1.25m148.921.583c.048 1.165.285 1.402.604.605.289-.722.253-1.585-.079-1.917s-.568.258-.525 1.312m-148 4c.048 1.165.285 1.402.604.605.289-.722.253-1.585-.079-1.917s-.568.258-.525 1.312m147 0c.048 1.165.285 1.402.604.605.289-.722.253-1.585-.079-1.917s-.568.258-.525 1.312m-2.455 6.956c-.965 2.514-.681 3.163.498 1.136.584-1.004.851-2.036.593-2.293-.257-.258-.749.263-1.091 1.157M24 133.373c0 1.08 3.972 8.627 4.541 8.627.275 0-.465-1.912-1.644-4.25-2.318-4.597-2.897-5.472-2.897-4.377m129.405 9.877-1.905 2.25 2.25-1.905c2.114-1.79 2.705-2.595 1.905-2.595-.19 0-1.202 1.012-2.25 2.25m-5.459 6.5-3.446 3.75 3.75-3.446c3.49-3.208 4.21-4.054 3.446-4.054-.167 0-1.854 1.688-3.75 3.75M33 149.378c0 .207.788.995 1.75 1.75 1.586 1.243 1.621 1.208.378-.378-1.307-1.666-2.128-2.195-2.128-1.372m8 9.122c2.987 3.025 5.657 5.5 5.932 5.5s-1.945-2.475-4.932-5.5-5.657-5.5-5.932-5.5 1.945 2.475 4.932 5.5m100.872-3.75c-1.243 1.586-1.208 1.621.378.378 1.666-1.307 2.195-2.128 1.372-2.128-.207 0-.995.787-1.75 1.75M137 158.089c-2.154 1.762-2.196 1.897-.306.973 1.207-.59 2.471-1.52 2.809-2.067.903-1.461.297-1.196-2.503 1.094m-89 6.289c0 .207.788.995 1.75 1.75 1.586 1.243 1.621 1.208.378-.378-1.307-1.666-2.128-2.195-2.128-1.372m4.433 3.513c.713 1.154 4.567 3.483 4.567 2.759 0-.231-1.18-1.193-2.623-2.139s-2.318-1.224-1.944-.62m62.38-.208c.721.289 1.584.253 1.916-.079s-.258-.568-1.312-.525c-1.165.048-1.402.285-.604.604M58 171.493c0 .677 8.123 4.718 8.575 4.265.21-.209-1.634-1.36-4.097-2.556-2.463-1.197-4.478-1.966-4.478-1.709m21.813 9.19c.721.289 1.584.253 1.916-.079s-.258-.568-1.312-.525c-1.165.048-1.402.285-.604.604m5 1c.721.289 1.584.253 1.916-.079s-.258-.568-1.312-.525c-1.165.048-1.402.285-.604.604m7.451 1.035c1.52.229 3.77.223 5-.014s-.014-.425-2.764-.418-3.756.202-2.236.432m11 0c1.52.229 3.77.223 5-.014s-.014-.425-2.764-.418-3.756.202-2.236.432"/><path fill-opacity=".985" fill-rule="evenodd" d="M95.728 17.722c1.775.221 4.925.224 7 .008 2.074-.217.622-.397-3.228-.402-3.85-.004-5.548.173-3.772.394M112 18c0 1.174.769 1.174 3.5 0 1.772-.762 1.687-.867-.75-.93-1.513-.038-2.75.38-2.75.93m-25.187.683c.721.289 1.584.253 1.916-.079s-.258-.568-1.312-.525c-1.165.048-1.402.285-.604.604M118 19c-1.828 1.181-.249 1.181 2.5 0 1.319-.567 1.489-.878.5-.914-.825-.031-2.175.381-3 .914m18.083 4.38c1.02.929 10.917 5.602 10.917 5.154 0-.564-9.55-5.534-10.633-5.534-.385 0-.513.171-.284.38M91.75 31.662c.688.278 1.813.278 2.5 0 .688-.277.125-.504-1.25-.504s-1.937.227-1.25.504m14 0c.688.278 1.813.278 2.5 0 .688-.277.125-.504-1.25-.504s-1.937.227-1.25.504M155.5 35c.995 1.1 2.035 2 2.31 2s-.315-.9-1.31-2-2.035-2-2.31-2 .315.9 1.31 2m-107.628.75c-1.243 1.586-1.208 1.621.378.378.962-.755 1.75-1.543 1.75-1.75 0-.823-.821-.294-2.128 1.372M150 34.378c0 .207.787.995 1.75 1.75 1.586 1.243 1.621 1.208.378-.378-1.307-1.666-2.128-2.195-2.128-1.372m8 7.122c1.866 1.925 3.617 3.5 3.892 3.5s-1.026-1.575-2.892-3.5-3.617-3.5-3.892-3.5 1.026 1.575 2.892 3.5m2-3.187c0 .172 1.463 1.635 3.25 3.25l3.25 2.937-2.937-3.25c-2.738-3.029-3.563-3.71-3.563-2.937M40.924 41.75 38.5 44.5l2.75-2.424C43.82 39.81 44.459 39 43.674 39c-.179 0-1.416 1.237-2.75 2.75m18.948 2c-1.243 1.586-1.208 1.621.378.378.962-.755 1.75-1.543 1.75-1.75 0-.823-.821-.294-2.128 1.372m-4.467 3.5L53.5 49.5l2.25-1.905c1.237-1.048 2.25-2.06 2.25-2.25 0-.8-.805-.209-2.595 1.905M143.5 47c.995 1.1 2.035 2 2.31 2s-.315-.9-1.31-2-2.035-2-2.31-2 .315.9 1.31 2m25 1c.995 1.1 2.035 2 2.31 2s-.315-.9-1.31-2-2.035-2-2.31-2 .315.9 1.31 2m-133.628.75c-1.243 1.586-1.208 1.621.378.378C36.916 47.821 37.445 47 36.622 47c-.207 0-.995.788-1.75 1.75M163 47.378c0 .207.787.995 1.75 1.75 1.586 1.243 1.621 1.208.378-.378-1.307-1.666-2.128-2.195-2.128-1.372m-70.25 3.328c1.237.238 3.263.238 4.5 0 1.237-.239.225-.434-2.25-.434s-3.487.195-2.25.434m10 0c1.237.238 3.263.238 4.5 0 1.237-.239.225-.434-2.25-.434s-3.487.195-2.25.434M81 54.583c-5.16 2.935-9.279 6.605-12.25 10.917-1.137 1.65.142.633 2.842-2.26 2.699-2.893 7.383-6.597 10.408-8.232s5.05-2.975 4.5-2.978-3.025 1.146-5.5 2.553m37 .425c3.025 1.635 7.709 5.339 10.408 8.232 2.7 2.893 3.944 3.85 2.765 2.127-2.85-4.168-8.326-8.894-13.161-11.361-6.144-3.134-6.154-2.317-.012 1.002m34.5.992c.995 1.1 2.035 2 2.31 2s-.315-.9-1.31-2-2.035-2-2.31-2 .315.9 1.31 2M42.872 60.75c-1.243 1.586-1.208 1.621.378.378.962-.755 1.75-1.543 1.75-1.75 0-.823-.821-.294-2.128 1.372m134.823 1.737c.915 1.919 1.841 3.31 2.058 3.093.457-.457-2.578-6.58-3.263-6.58-.251 0 .291 1.569 1.205 3.487m-1.664 6.013c0 .55.436 1.675.969 2.5s.969 1.05.969.5-.436-1.675-.969-2.5-.969-1.05-.969-.5M64.452 72.093c-.88 1.701-1.422 3.27-1.205 3.487s1.143-1.174 2.058-3.093c2.056-4.312 1.344-4.642-.853-.394m70.243.394c.915 1.919 1.841 3.31 2.058 3.093.457-.457-2.578-6.58-3.263-6.58-.251 0 .291 1.569 1.205 3.487m44.384 5.096c.048 1.165.285 1.402.604.605.289-.722.253-1.585-.079-1.917s-.568.258-.525 1.312M61.116 80.098c-.614 1.76-1.084 3.696-1.046 4.301.039.606.716-.66 1.504-2.812.789-2.152 1.259-4.087 1.046-4.301-.214-.213-.891 1.052-1.504 2.812m76.041-2.598c-.003.55.602 2.575 1.343 4.5s1.362 2.825 1.379 2-.587-2.85-1.343-4.5c-.755-1.65-1.376-2.55-1.379-2M19.079 81.583c.048 1.165.285 1.402.604.605.289-.722.253-1.585-.079-1.917s-.568.258-.525 1.312m14 0c.048 1.165.285 1.402.604.605.289-.722.253-1.585-.079-1.917s-.568.258-.525 1.312m147 0c.048 1.165.285 1.402.604.605.289-.722.253-1.585-.079-1.917s-.568.258-.525 1.312m5 2c.048 1.165.285 1.402.604.605.289-.722.253-1.585-.079-1.917s-.568.258-.525 1.312m-153 2c.048 1.165.285 1.402.604.605.289-.722.253-1.585-.079-1.917s-.568.258-.525 1.312m52.421-.416c1.1.608 2.922 1.832 4.048 2.72 1.127.887.782.376-.766-1.137-1.547-1.513-3.369-2.736-4.048-2.72s-.334.529.766 1.137m27.718 1.583c-1.548 1.513-1.893 2.024-.766 1.137 1.126-.888 2.948-2.112 4.048-2.72s1.445-1.12.766-1.137-2.501 1.207-4.048 2.72m54.861-1.167c.048 1.165.285 1.402.604.605.289-.722.253-1.585-.079-1.917s-.568.258-.525 1.312m14.079.417c0 1.375.227 1.938.504 1.25.278-.687.278-1.812 0-2.5-.277-.687-.504-.125-.504 1.25m-163.079.583c.048 1.165.285 1.402.604.605.289-.722.253-1.585-.079-1.917s-.568.258-.525 1.312M59.158 88c0 1.375.227 1.938.504 1.25.278-.687.278-1.812 0-2.5-.277-.687-.504-.125-.504 1.25m11.714-.25c-1.243 1.586-1.208 1.621.378.378C72.916 86.821 73.445 86 72.622 86c-.207 0-.995.787-1.75 1.75M127 86.378c0 .207.787.995 1.75 1.75 1.586 1.243 1.621 1.208.378-.378-1.307-1.666-2.128-2.195-2.128-1.372M140.158 88c0 1.375.227 1.938.504 1.25.278-.687.278-1.812 0-2.5-.277-.687-.504-.125-.504 1.25m46.037 2.5c.02 1.65.244 2.204.498 1.231s.237-2.323-.037-3-.481.119-.461 1.769m-155 1c.02 1.65.244 2.204.498 1.231s.237-2.323-.037-3-.481.119-.461 1.769m17.677-.75c-1.243 1.586-1.208 1.621.378.378C50.916 89.821 51.445 89 50.622 89c-.207 0-.995.787-1.75 1.75m7.378-.67c.962.561 1.802 2.01 1.866 3.22.093 1.764.208 1.844.583.402.512-1.975-1.292-4.72-3.071-4.672-.621.017-.34.489.622 1.05m85.79.372c-.663.799-.995 2.261-.739 3.25.375 1.442.49 1.362.583-.402.064-1.21.903-2.659 1.866-3.22s1.243-1.033.622-1.05c-.62-.016-1.669.623-2.332 1.422m6.96-1.074c0 .207.787.995 1.75 1.75 1.586 1.243 1.621 1.208.378-.378-1.307-1.666-2.128-2.195-2.128-1.372m19.195 2.122c.02 1.65.244 2.204.498 1.231s.237-2.323-.037-3-.481.119-.461 1.769m14.165 8.5c0 5.225.169 7.362.375 4.75s.206-6.888 0-9.5-.375-.475-.375 4.75m-165.005.5c-.003 4.95.166 7.101.376 4.78.209-2.321.212-6.371.005-9-.206-2.629-.378-.73-.381 4.22m50.785-5c-.232 7.308 5.017 12.533 12.36 12.305 3.958-.124 3.963-.129.5-.501-8.028-.862-10.932-3.582-12.07-11.304l-.663-4.5zm62.86.066c0 1.961-.475 4.548-1.055 5.75-1.019 2.11-1.002 2.118.5.243C131.849 99.806 132.711 92 131.5 92c-.275 0-.5 1.605-.5 3.566m21.16.102c-.088 1.743-.419 3.993-.736 5-.542 1.729-.511 1.732.562.06.626-.974.957-3.224.736-5l-.402-3.228zM47.195 96.5c.02 1.65.244 2.204.498 1.231s.237-2.323-.037-3-.481.119-.461 1.769m44.963-.5c0 1.375.227 1.938.504 1.25.278-.687.278-1.812 0-2.5-.277-.687-.504-.125-.504 1.25m14.921-.417c.048 1.165.285 1.402.604.605.289-.722.253-1.585-.079-1.917s-.568.258-.525 1.312M80 97.941c0 1.132.45 2.059 1 2.059s1-.648 1-1.441-.45-1.719-1-2.059-1 .309-1 1.441m38.531-.648c-.428.986-.497 2.074-.155 2.417 1.016 1.015 1.835-.411 1.367-2.382-.414-1.747-.468-1.748-1.212-.035M57 99.45c0 .798-.788 1.957-1.75 2.576-1.584 1.018-1.588 1.075-.043.597 1.48-.457 1.753.43 2.051 6.675.331 6.907.353 6.823.543-2.048.11-5.088-.026-9.25-.301-9.25s-.5.653-.5 1.45m85.278 7.55c.106 8.433.158 8.691.464 2.298.299-6.273.564-7.127 2.051-6.616 1.571.54 1.577.477.072-.797-.899-.762-1.876-2.06-2.171-2.885s-.482 2.775-.416 8m-51.77-6.026c-.344 1.086-1.785 2.886-3.202 4S85.201 107 85.776 107c1.209 0 6.224-5.702 6.224-7.077 0-1.596-.839-1.005-1.492 1.051m17.496-1.301c-.006 1.648 4.931 7.333 6.335 7.297.639-.017.343-.507-.657-1.088s-2.686-2.481-3.746-4.22-1.93-2.634-1.932-1.989m18.496 5.571c-1.1.65-4.025 1.477-6.5 1.836l-4.5.653 3.8.133c3.35.118 9.7-2.102 9.7-3.392 0-.65-.209-.586-2.5.77M31.195 108.5c.02 1.65.244 2.204.498 1.231s.237-2.323-.037-3-.481.119-.461 1.769m137 0c.02 1.65.244 2.204.498 1.231s.237-2.323-.037-3-.481.119-.461 1.769m18.037.5c0 1.925.206 2.713.457 1.75.252-.963.252-2.537 0-3.5-.251-.963-.457-.175-.457 1.75m-168.074 5c0 1.375.227 1.938.504 1.25.278-.687.278-1.812 0-2.5-.277-.687-.504-.125-.504 1.25m163 0c0 1.375.227 1.938.504 1.25.278-.687.278-1.812 0-2.5-.277-.687-.504-.125-.504 1.25m-149.079.583c.048 1.165.285 1.402.604.605.289-.722.253-1.585-.079-1.917s-.568.258-.525 1.312m135 0c.048 1.165.285 1.402.604.605.289-.722.253-1.585-.079-1.917s-.568.258-.525 1.312m18 1c.048 1.165.285 1.402.604.605.289-.722.253-1.585-.079-1.917s-.568.258-.525 1.312M58.195 120.5c.02 1.65.244 2.204.498 1.231s.237-2.323-.037-3-.481.119-.461 1.769m83 0c.02 1.65.244 2.204.498 1.231s.237-2.323-.037-3-.481.119-.461 1.769m-106.164 4c0 .55.436 1.675.969 2.5s.969 1.05.969.5-.436-1.675-.969-2.5-.969-1.05-.969-.5m24.055.5c-.031.825.381 2.175.914 3 1.181 1.828 1.181.249 0-2.5-.567-1.319-.878-1.489-.914-.5m80.993-.332c-.043.643-.338 1.993-.655 3-.547 1.741-.518 1.744.571.044.631-.983.925-2.333.655-3-.355-.875-.514-.887-.571-.044M61 130.582c0 4.004 14.253 17.454 18.446 17.406.58-.007-.971-1.165-3.446-2.574-5.886-3.352-8.66-5.947-12.141-11.36-1.572-2.445-2.859-4.008-2.859-3.472m76.24 1.791c-1.89 4.149-7.411 9.683-12.662 12.696-5.318 3.05-5.662 4.06-.469 1.374 5.921-3.061 16.292-14.375 14.668-16-.249-.248-.94.62-1.537 1.93m35.962 5.149c-1.197 2.463-1.966 4.478-1.709 4.478.677 0 4.718-8.123 4.265-8.575-.209-.21-1.36 1.634-2.556 4.097M25 135.642c0 .537.7 1.849 1.555 2.917 1.467 1.83 1.487 1.798.365-.559-1.458-3.061-1.92-3.628-1.92-2.358m19 5.736c0 .207.788.995 1.75 1.75 1.586 1.243 1.621 1.208.378-.378-1.307-1.666-2.128-2.195-2.128-1.372m109.872 1.372c-1.243 1.586-1.208 1.621.378.378.963-.755 1.75-1.543 1.75-1.75 0-.823-.821-.294-2.128 1.372m18 4c-1.243 1.586-1.208 1.621.378.378 1.666-1.307 2.195-2.128 1.372-2.128-.207 0-.995.787-1.75 1.75M48 146.313c0 .172 1.462 1.635 3.25 3.25l3.25 2.937-2.937-3.25c-2.738-3.029-3.563-3.71-3.563-2.937m100.437 2.937-2.937 3.25 3.25-2.937c3.029-2.738 3.71-3.563 2.937-3.563-.172 0-1.635 1.463-3.25 3.25M33 149.378c0 .207.788.995 1.75 1.75 1.586 1.243 1.621 1.208.378-.378-1.307-1.666-2.128-2.195-2.128-1.372m51.813.305c.721.289 1.584.253 1.916-.079s-.258-.568-1.312-.525c-1.165.048-1.402.285-.604.604m29 0c.721.289 1.584.253 1.916-.079s-.258-.568-1.312-.525c-1.165.048-1.402.285-.604.604m51.059 1.067c-1.243 1.586-1.208 1.621.378.378 1.666-1.307 2.195-2.128 1.372-2.128-.207 0-.995.787-1.75 1.75m4 0c-1.243 1.586-1.208 1.621.378.378 1.666-1.307 2.195-2.128 1.372-2.128-.207 0-.995.787-1.75 1.75m-78.603-.057c.973.254 2.323.237 3-.037s-.119-.481-1.769-.461-2.204.244-1.231.498m17 0c.973.254 2.323.237 3-.037s-.119-.481-1.769-.461-2.204.244-1.231.498M56 153.378c0 .207.788.995 1.75 1.75 1.586 1.243 1.621 1.208.378-.378-1.307-1.666-2.128-2.195-2.128-1.372m85.872 1.372c-1.243 1.586-1.208 1.621.378.378 1.666-1.307 2.195-2.128 1.372-2.128-.207 0-.995.787-1.75 1.75m16.094 4-5.466 5.75 5.75-5.466c5.342-5.078 6.208-6.034 5.466-6.034-.156 0-2.744 2.588-5.75 5.75m-117.008-.5c4.144 4.415 5.042 5.209 5.042 4.458 0-.16-2.138-2.298-4.75-4.75L36.5 153.5zM162 158.5c-2.429 2.475-4.191 4.5-3.916 4.5s2.487-2.025 4.916-4.5 4.191-4.5 3.916-4.5-2.487 2.025-4.916 4.5m-114 5.878c0 .207.788.995 1.75 1.75 1.586 1.243 1.621 1.208.378-.378-1.307-1.666-2.128-2.195-2.128-1.372m101.872 1.372c-1.243 1.586-1.208 1.621.378.378 1.666-1.307 2.195-2.128 1.372-2.128-.207 0-.995.787-1.75 1.75M145 169.089c-2.154 1.762-2.196 1.897-.306.973 1.207-.59 2.471-1.52 2.809-2.067.903-1.461.297-1.196-2.503 1.094m-56.25-.427c.688.278 1.813.278 2.5 0 .688-.277.125-.504-1.25-.504s-1.937.227-1.25.504m20.063.021c.721.289 1.584.253 1.916-.079s-.258-.568-1.312-.525c-1.165.048-1.402.285-.604.604m30.727 3.664c-1.439 1.052-1.557 1.525-.537 2.155.923.57 1.066.419.487-.517-.576-.933-.375-1.155.679-.75.892.342 1.498.006 1.498-.83 0-1.706.122-1.703-2.127-.058M133.5 176c.34.55.816 1 1.059 1s.441-.45.441-1-.477-1-1.059-1-.781.45-.441 1m-5 2c.34.55.816 1 1.059 1s.441-.45.441-1-.477-1-1.059-1-.781.45-.441 1m-3 1c-.34.55-.141 1 .441 1s1.059-.45 1.059-1-.198-1-.441-1-.719.45-1.059 1m-4 1c-.34.55-.168 1 .382 1s1.278-.45 1.618-1 .168-1-.382-1-1.278.45-1.618 1m-6 1c-2.768.704-2.806.771-.5.866 1.375.057 3.175-.333 4-.866 1.702-1.1.822-1.1-3.5 0m-30.687.683c.721.289 1.584.253 1.916-.079s-.258-.568-1.312-.525c-1.165.048-1.402.285-.604.604m7.456 1.01c.973.254 2.323.237 3-.037s-.119-.481-1.769-.461-2.204.244-1.231.498m13 0c.973.254 2.323.237 3-.037s-.119-.481-1.769-.461-2.204.244-1.231.498"/></svg>