<svg xmlns="http://www.w3.org/2000/svg" width="200" height="200" fill="#000000"><path fill-opacity=".161" fill-rule="evenodd" d="M41 100v49h46v-31l12.75-.004c28.678-.008 45.941-6.323 54.727-20.017 7.405-11.542 3.759-27.662-8.242-36.448-5.802-4.247-16.336-8.103-25.927-9.49C116.353 51.468 96.891 51 77.058 51H41zm50.962-29.75c-3.787 1.909-4.511 2.76-4.784 5.62-.244 2.544.315 4.035 2.28 6.086l2.602 2.716-2.52 5.414c-3.598 7.729-3.404 8.662 1.974 9.468 6.016.902 17.198.134 18.611-1.279.841-.841.35-2.799-1.916-7.641l-3.046-6.511 2.403-1.574c5.347-3.504 3.913-10.34-2.727-12.997-5.221-2.089-7.607-1.959-12.877.698"/><path fill-opacity=".131" fill-rule="evenodd" d="M42 100v49h44v-30.748l17.25-.539c10.718-.335 19.645-1.142 23.574-2.131 19.648-4.949 31.205-16.492 31.122-31.082-.06-10.684-4.237-18.186-13.314-23.915-13.394-8.454-21.226-9.576-66.882-9.581L42 51zm50.5-30.614c-6.339 2.763-7.694 7.185-3.621 11.823l2.962 3.373-2.864 6.459c-1.895 4.275-2.528 6.797-1.871 7.459 1.471 1.485 19.245 1.918 21.834.532 2.428-1.299 2.26-2.471-1.463-10.24l-2.255-4.707 2.373-1.555c5.205-3.411 4.22-9.802-1.942-12.6-4.848-2.201-8.96-2.371-13.153-.544"/><path fill-opacity=".037" fill-rule="evenodd" d="M42 100c0 46 .107 49 1.75 49 1.642 0 1.75-2.916 1.75-47.25V54.5l36 .063c39.79.07 45.472.706 57 6.371 11.234 5.521 16.513 13.387 16.478 24.551-.027 8.603-2.101 13.595-8.113 19.526-3.432 3.385-3.695 3.848-1.232 2.163 12.741-8.716 16.172-24.758 8.021-37.501-2.415-3.776-5.406-6.804-8.896-9.008-13.532-8.544-21.249-9.656-67.008-9.661L42 51zm44.687-27.195C83.492 76.14 83.253 79.78 86 83.273c2.496 3.172 2.495 4.354-.005 10.005-3.512 7.94-1.065 9.722 13.348 9.722 13.584 0 15.725-2.072 11.652-11.278-1.862-4.21-1.855-7.722.014-7.722.438 0 1.272-1.367 1.854-3.037 1.177-3.375.301-6.752-2.314-8.922-1.512-1.256-1.555-1.148-.477 1.217 1.544 3.39.492 7.326-2.48 9.274l-2.377 1.557 2.892 5.972c3.456 7.133 3.492 7.548.785 8.997-2.544 1.362-20.335.906-21.786-.558-.657-.662-.014-3.197 1.901-7.5l2.893-6.5-2.373-2.219c-3.614-3.38-4.07-6.055-1.601-9.395 2.702-3.654 2.214-3.686-1.239-.081m23.582 44.888c.973.254 2.323.237 3-.037s-.119-.481-1.769-.461-2.204.244-1.231.498m-25.602 1.974c-.367.366-.667 6.854-.667 14.416 0 10.065-.335 13.886-1.25 14.255-.687.277-.237.54 1 .583C85.987 149 86 148.912 86 134c0-8.25-.15-15-.333-15s-.634.3-1 .667"/><path fill-opacity=".19" fill-rule="evenodd" d="M42.079 53.25c.043 1.237.306 1.688.583 1 .769-1.905 70.486-1.765 80.5.162 15.549 2.992 25.646 8.836 30.804 17.83 1.658 2.892 3.019 4.674 3.025 3.96.023-3.196-7.212-12.368-12.347-15.653C131.855 52.368 122.153 51 76.928 51H42zm115 26.333c.048 1.165.285 1.402.604.605.289-.722.253-1.585-.079-1.917s-.568.258-.525 1.312m-48.905 2.731c-2.494 2.656-2.943 4.569-.619 2.641 1.519-1.261 3.871-4.955 3.154-4.955-.198 0-1.339 1.042-2.535 2.314m-19.769.54C89.453 84.035 90.717 85 91.214 85c1.408 0-.089-1.865-2.52-3.14-2.179-1.143-2.181-1.136-.289.994m20.271 16.268c-1.072.623-5.9.92-11.703.719-6.357-.219-9.532.003-8.909.626.533.531 5.22.981 10.416 1 7.694.027 9.772-.292 11.198-1.717 1.981-1.98 1.664-2.179-1.002-.628"/></svg>