<svg xmlns="http://www.w3.org/2000/svg" width="200" height="200" fill="#000000"><path fill-opacity=".106" fill-rule="evenodd" d="M182 56.667c-2.475 1.504-5.4 3.582-6.5 4.619s-3.125 2.509-4.5 3.274-4.288 3.202-6.473 5.415S160.179 74 159.72 74c-.458 0-2.045 1.307-3.526 2.904-3.527 3.802-8.12 6.275-16.694 8.989-3.85 1.218-7.781 2.641-8.736 3.161-2.253 1.227-10.293 1.22-12.528-.01-.955-.526-4.436-1.693-7.736-2.592-5.334-1.455-6.854-2.514-13.693-9.544C92.576 72.559 88.675 69 88.139 69s-3.215-1.125-5.952-2.5c-2.81-1.411-6.656-2.486-8.832-2.467-3.34.028-4.062.462-5.404 3.25-.852 1.769-3.079 6.114-4.949 9.655-2.975 5.632-3.484 7.696-4.068 16.5-.755 11.372-2.251 17.836-4.737 20.458-3.158 3.333-5.197 8.247-5.197 12.53 0 3.059-.679 5.053-2.403 7.06-1.322 1.538-2.646 4.007-2.942 5.487C42.793 143.284 33.235 152 29.369 152c-.941 0-2.479.694-3.416 1.543-.938.848-3.448 1.807-5.579 2.13S15.375 157.3 14 158.572c-1.852 1.712-3.926 2.392-8 2.62-7.19.403-7.094 2.224.137 2.605 4.287.225 6.541-.212 9.416-1.827 6.243-3.506 14.438-6.205 17.226-5.672 1.441.275 3.655.107 4.92-.374 2.697-1.025 3.093-3.895.551-3.987-1.488-.054-1.451-.188.25-.891 1.1-.455 2.969-1.889 4.153-3.187C45.961 144.235 52 132.394 52 129.532c0-2.601 3.355-10.813 5.529-13.532 1.164-1.456 5.362-17.982 5.334-21-.045-4.934 1.589-12.859 3.097-15.019.967-1.386 2.138-3.636 2.601-5 .727-2.143.936-1.757 1.538 2.827.383 2.92 1.418 6.105 2.299 7.079.91 1.005 1.602 3.506 1.602 5.786 0 2.841.731 4.866 2.499 6.921 1.374 1.599 2.499 3.301 2.5 3.783.001.985 17.215 17.759 22.19 21.623 1.77 1.375 5.714 4.793 8.765 7.596 7.836 7.2 12.985 10.404 16.719 10.404 1.765 0 3.487.45 3.827 1s3.741 1 7.559 1c6.83 0 6.941.042 6.941 2.632 0 3.929 3.661 9.319 6.02 8.864 1.066-.205 2.199.049 2.518.565.32.519 7.422.939 15.867.939 11.58 0 16.016.363 18.292 1.499 1.652.824 5.096 1.785 7.653 2.136 4.281.586 4.65.467 4.65-1.499 0-1.846-.578-2.137-4.25-2.14-2.481-.002-5.613-.834-7.524-2-2.706-1.65-5.049-1.997-13.5-2.003-5.624-.004-13.287-.296-17.028-.65-6.142-.58-6.941-.913-8.25-3.443-1.851-3.58-1.843-5.266.021-4.55.808.31 2.721-.089 4.25-.887 1.53-.798 3.771-1.453 4.981-1.457 1.21-.003 2.56-.568 3-1.256.44-.687 2.38-1.979 4.311-2.87s4.144-2.801 4.916-4.244c.773-1.444 3.297-4.599 5.609-7.012 3.602-3.76 4.307-5.214 4.926-10.163.882-7.062 1.384-8.461 3.038-8.461 1.421 0 2.5-2.164 2.5-5.014 0-1.018.9-2.137 2-2.486 1.188-.377 2.006-1.521 2.015-2.817.008-1.201.57-3.159 1.25-4.351a350 350 0 0 0 3.015-5.465c2.159-3.996 4.065-20.354 2.675-22.951-.525-.982-.955-2.913-.955-4.291 0-3.207-1.241-4.062-7.5-5.165-2.166-.381-4.251.232-7.5 2.207m.405 4.833c-1.483 1.375-3.043 2.5-3.466 2.5-.732 0-2.924 1.708-8.678 6.76-2.882 2.53-2.515 3.981.588 2.321 1.111-.595 3.084-1.081 4.385-1.081s2.828-.462 3.393-1.027c.564-.564 3.345-1.301 6.178-1.636 4.232-.502 5.266-.316 5.786 1.039.348.907.089 2.305-.575 3.105-.665.801-1.191 3.76-1.169 6.577l.04 5.121-5.194-.514c-16.011-1.582-16.91-1.919-16.542-6.201.389-4.509-.578-5.169-3.346-2.282-1.268 1.322-3.558 3.362-5.09 4.533-2.627 2.007-2.671 2.164-.776 2.766 4.747 1.506 8.194 10.486 4.561 11.881-.825.316-1.5 1.051-1.5 1.632 0 .637 1.173.451 2.95-.468 1.623-.839 4.071-1.526 5.441-1.526s2.77-.451 3.111-1.003c.41-.664 1.294-.641 2.617.067 1.465.784 1.916 1.892 1.689 4.155-.268 2.687-1.147 3.513-6.808 6.395-4.518 2.3-9.092 3.673-15 4.503-7.992 1.122-8.764 1.065-12.924-.955-2.433-1.182-4.651-1.92-4.93-1.641s.077 3.448.792 7.042c1.305 6.568 1.102 8.198-.871 6.978-.589-.363-1.067-3.746-1.067-7.541 0-3.785-.45-7.16-1-7.5-1.225-.757-1.262-2.538-.091-4.388.635-1.002 3.48-1.431 10.235-1.544 6.31-.105 10.298-.664 12.249-1.715 1.791-.965 2.465-1.823 1.77-2.252-.826-.511-.817-1.181.033-2.544.972-1.556.691-2.259-1.77-4.422-3.481-3.06-5.007-3.203-9.522-.895-3.086 1.578-3.194 1.771-1.154 2.07 2.616.383 2.863 1.436.75 3.19-.825.685-1.5 2.09-1.5 3.122 0 1.176-.708 1.878-1.893 1.878-2.075 0-3.107-1.853-3.107-5.582 0-2.92.3-2.905-6.213-.317-4.203 1.67-6.766 2.009-12.501 1.652-3.967-.246-7.792-.897-8.5-1.445-.707-.549-2.137-1.303-3.177-1.676-1.605-.575-1.7-.447-.628.845.695.838 1.884 1.523 2.641 1.523s1.378.45 1.378 1 1.07 1 2.378 1c3.227 0 4.858 2.212 4.038 5.477-.911 3.633-3.852 4.523-14.946 4.523-8.266 0-9.524-.233-10.434-1.932-.569-1.063-1.908-2.21-2.977-2.549-1.602-.509-1.924-1.487-1.831-5.568L90.341 90l6.08-.079c3.343-.043 5.517-.306 4.829-.583-.687-.278-1.25-1.337-1.25-2.354s-.899-2.135-1.998-2.483-2.272-1.729-2.608-3.068S94.147 79 93.37 79s-1.885-1.013-2.461-2.25c-1.065-2.284-11.809-7.786-15.159-7.762-2.68.019-2.492 10.8.25 14.285 1.155 1.468 2 4.057 2 6.126 0 2.528 1.034 4.985 3.513 8.342C85.982 103.795 96.686 115 98 115c.55 0 1.93.93 3.067 2.067 1.571 1.571 2.389 1.8 3.408.954 1.022-.849 1.94-.567 3.856 1.183 5.433 4.961 8.79 6.998 10.706 6.497 1.131-.296 1.963-.014 1.963.665 0 2.547 10.798 6.41 20.431 7.31 7.064.659 7.941 1.103 6.57 3.322-1.304 2.11-18.09-.439-23.786-3.611-2.357-1.313-4.913-2.387-5.679-2.387s-2.122-.729-3.012-1.619c-.891-.891-1.844-1.394-2.119-1.12-.747.747 9.119 7.739 10.92 7.739.856 0 1.819.424 2.139.942.791 1.28 7.319 2.148 17.536 2.332 6.435.116 9.653-.324 13.246-1.81 2.611-1.08 4.748-2.302 4.75-2.714s.874-.75 1.937-.75 2.211-.878 2.552-1.952c.34-1.074 2.748-4.126 5.35-6.784 4.097-4.183 4.89-5.686 5.916-11.199.685-3.685 2.04-7.278 3.216-8.53 1.118-1.19 2.033-2.867 2.033-3.727s.652-2.104 1.449-2.766 1.991-2.853 2.653-4.872 1.97-4.212 2.907-4.875c.992-.703 1.964-3.204 2.33-6 .346-2.637.86-6.37 1.142-8.295 1.191-8.12 1.176-9.658-.122-12.75-1.165-2.774-1.87-3.25-4.81-3.25-2.29 0-4.351.839-6.144 2.5m-8.655 14.189c-2.714.71-2.125 3.311.75 3.311 1.833 0 2.5-.533 2.5-2 0-2.038-.183-2.112-3.25-1.311m-9.186 10.207c-.304.493.311 1.955 1.367 3.25 1.734 2.125 1.987 2.184 2.602.604 1.305-3.353-2.184-6.742-3.969-3.854m-69.38 10.746c.189 1.584 1.154 2.95 2.407 3.409 1.851.679 2.107.375 2.22-2.642S99.647 94 97.403 94c-2.154 0-2.488.397-2.219 2.642m34.759 3.522c-.722 1.835-1.492 3.674-1.711 4.086s.55.75 1.709.75c2.846 0 4.755-4.732 2.728-6.76-1.218-1.217-1.595-.951-2.726 1.924m-54.394 3.985c1.34 3.775 1.102 16.134-.32 16.608-1.452.484-1.647 3.866-.273 4.716.526.325 1.668-.496 2.539-1.825 1.222-1.865 1.517-4.552 1.294-11.771-.255-8.257-.511-9.397-2.182-9.716-1.597-.306-1.762.005-1.058 1.988m65.641 8.601c.329 3.975 2.263 4.778 2.377.987.089-2.959-.562-4.737-1.734-4.737-.525 0-.814 1.688-.643 3.75M71.5 139.406c-3.277 1.451-7.5 6.577-7.5 9.105 0 .875-1.575 2.249-3.5 3.053-1.925.805-3.5 2.132-3.5 2.949 0 1.033 1.07 1.487 3.5 1.487 2.42 0 3.5-.456 3.5-1.477 0-.812 1.072-2.179 2.383-3.038s2.645-2.875 2.966-4.48c.582-2.909 4.758-6.005 8.101-6.005.853 0 1.55-.675 1.55-1.5 0-1.858-3.418-1.901-7.5-.094m54.136 8.344c.76 3.098 4.721 7.25 6.916 7.25 2.047 0 1.805-2.75-.302-3.43-.963-.311-2.517-1.916-3.453-3.567-2.166-3.818-4.072-3.97-3.161-.253M95 164.779c0 1.431.518 1.909 1.75 1.612 2.795-.675 7.503 1.041 8.673 3.16 1.613 2.92 2.673 3.417 7.319 3.434 3.464.012 4.733-.536 6.916-2.985 2.091-2.347 3.507-3 6.507-3 2.109 0 3.835-.45 3.835-1s-2.165-1-4.811-1c-4.688 0-9.189 2.476-9.189 5.055 0 1.777-5.967.625-6.568-1.268-.312-.983-1.064-1.787-1.671-1.787s-1.826-.654-2.708-1.452c-.883-.799-3.506-1.757-5.829-2.128-3.802-.608-4.224-.473-4.224 1.359"/><path fill-opacity=".482" fill-rule="evenodd" d="M182.873 56.75c-1.318.962-3.111 2.2-3.985 2.75-4.384 2.758-12.921 9.747-23.976 19.625-2.338 2.09-6.674 4.5-10.234 5.69-3.398 1.135-7.978 2.746-10.178 3.58-6.198 2.351-15.401 2-23.769-.906-5.808-2.017-8.068-3.443-11.481-7.244-2.337-2.602-4.25-5.072-4.25-5.488S94.335 74 93.523 74s-2.214-1.125-3.115-2.5S88.16 69 87.415 69c-.746 0-3.815-1.125-6.821-2.5s-6.845-2.5-8.53-2.5C69.462 64 69 64.377 69 66.5c0 1.375-.45 2.5-1 2.5s-1 .643-1 1.429c0 .785-.57 2.023-1.268 2.75-3.521 3.67-6.713 14.949-6.742 23.821-.023 7.394-1.726 14.043-4.394 17.159-2.812 3.284-5.55 9.985-5.574 13.644-.012 1.845-1.126 4.928-2.522 6.982-1.375 2.024-2.5 4.406-2.5 5.294 0 1.643-6.44 8.921-7.893 8.921-.438 0-1.612.9-2.607 2s-2.589 2-3.541 2-3.019.672-4.595 1.494c-1.575.821-4.023 1.496-5.44 1.5-1.448.003-3.603 1.1-4.924 2.506-1.929 2.053-3.29 2.5-7.615 2.5-2.897 0-5.545.45-5.885 1-.622 1.006.081 1.159 6.5 1.416 3.192.127 8.772-1.786 10-3.428C19.043 158.592 28.532 156 32.596 156c7.095 0 9.816-2.095 5.154-3.969-1.599-.643-1.766-.923-.578-.968 4.216-.159 14.125-16.079 15.194-24.409.371-2.893 1.811-6.608 3.572-9.218 2.991-4.431 4.652-10.977 7.088-27.936.771-5.367 2.088-9.641 4.002-12.986 3.105-5.427 3.511-5.147 4.295 2.953.264 2.732.975 5.132 1.579 5.334S74 86.959 74 89.15c0 2.708.8 5.033 2.5 7.261 1.375 1.803 2.5 3.716 2.5 4.252 0 1.116 15.885 16.486 21.329 20.638 1.993 1.521 6.448 5.431 9.898 8.689 9.067 8.562 14.722 11.144 25.787 11.775 7.616.434 8.986.773 8.986 2.224 0 .942.486 3.106 1.08 4.809 1.605 4.605 6.595 5.97 23.985 6.561 11.231.382 16.012.983 20.884 2.624 6.554 2.208 9.405 2.103 8.479-.311-.331-.861-2.67-1.624-6.053-1.973-3.032-.313-6.169-1.113-6.971-1.779-.907-.752-7.592-1.514-17.681-2.014l-17.246-.855c-1.49-.074-4.82-6.687-4.02-7.982.375-.606 1.085-.852 1.578-.547 1.189.735 11.75-2.365 12.569-3.69.352-.57 2.109-1.65 3.905-2.4 1.95-.815 4.418-3.19 6.128-5.896 1.575-2.493 3.426-4.533 4.113-4.534s1.25-.512 1.25-1.135.829-1.86 1.843-2.75c1.199-1.052 2.084-3.706 2.536-7.6.507-4.372 1.357-6.675 3.157-8.555 1.355-1.414 2.464-3.511 2.464-4.66 0-1.148.63-2.33 1.399-2.625.77-.295 1.96-2.256 2.645-4.357s1.531-4.045 1.879-4.32c3.118-2.464 5.68-18.325 4.431-27.434-.517-3.773-1.175-4.939-3.447-6.114-3.768-1.949-8.118-1.831-11.034.298m-.584 4.051c-.984.99-3.127 2.641-4.763 3.669-4.064 2.555-5.336 3.586-8.364 6.78-1.434 1.513-3.106 2.75-3.716 2.75-.609 0-1.71 1.125-2.446 2.5s-1.867 2.5-2.514 2.5-2.015.927-3.041 2.061c-1.597 1.764-1.655 2.194-.405 2.985.803.508 1.99.93 2.637.939 1.227.016 4.323 5.42 4.323 7.546 0 1.709-2.7 3.772-3.936 3.009-.684-.423-.641-1.245.132-2.483.972-1.556.691-2.26-1.77-4.427-4.251-3.745-5.607-3.924-11.038-1.458-4.571 2.075-4.71 2.243-2.138 2.59 2.935.396 3.729 2.648 1.267 3.593-.844.324-1.229 1.232-.893 2.107.771 2.01-1.96 2.043-3.62.043-.682-.822-1.004-2.397-.716-3.5.649-2.48-1.307-2.615-7.288-.505-4.778 1.686-13.23 1.965-17.601.583-9.763-3.089-10.932-1.535-1.863 2.475 5.469 2.419 7.41 4.203 5.769 5.304-.523.351-1.241 1.425-1.597 2.388-.463 1.256-1.743 1.75-4.53 1.75-2.137 0-6.616.285-9.954.634-5.669.593-6.232.46-8.512-2-1.343-1.449-2.904-2.634-3.47-2.634-1.487 0-2.201-2.448-1.191-4.082.476-.771.611-2.418.299-3.66-.549-2.189-.342-2.259 6.792-2.288 5.982-.025 6.984-.241 5.358-1.157-1.1-.619-3.248-2.518-4.772-4.22-7.541-8.413-9.988-10.674-13.943-12.882-2.36-1.318-5.865-2.692-7.788-3.054l-3.497-.658.335 7.25c.184 3.988.91 7.926 1.614 8.751s1.544 3.226 1.867 5.336c.804 5.263 5.387 12.057 13.116 19.448 3.575 3.419 6.775 6.216 7.111 6.216s2.039 1.428 3.784 3.173c2.537 2.538 3.237 2.842 3.492 1.521.258-1.331 1.349-.877 5.591 2.326 2.9 2.189 5.604 3.98 6.009 3.98s4.19 1.667 8.409 3.704c5.914 2.856 9.338 3.83 14.942 4.25 9.951.747 8.944 2.634-1.189 2.23-6.047-.241-9.001-.891-12.493-2.75-2.514-1.339-5.075-2.434-5.69-2.434s-2.809-1.147-4.876-2.549c-4.439-3.013-5.695-2.576-2.373.826 7.059 7.23 16.347 10.566 30.064 10.798 9.032.153 9.98-.029 15.384-2.956 3.167-1.715 6.353-3.119 7.081-3.119.727 0 1.322-.637 1.322-1.416s1.688-3.249 3.75-5.488c6.357-6.902 7.25-8.383 7.265-12.049.008-1.951.57-4.527 1.25-5.724.679-1.198 2.923-5.096 4.985-8.663s3.75-7.184 3.75-8.037.9-2.034 2-2.623c1.317-.705 2-2.094 2-4.067 0-1.649.675-4.613 1.5-6.587 1.717-4.108 2.005-15.534.465-18.412-1.405-2.625-9.113-2.713-11.676-.133M179 71.533c-1.925.737-5.187 1.613-7.25 1.948-3.598.585-3.75.769-3.75 4.564 0 3.829.111 3.959 3.5 4.08 3.991.143 3.631.071 9.175 1.825 6.37 2.016 7.575 1.098 7.167-5.455-.29-4.664-.081-5.498 1.377-5.496 1.117.001 1.517-.524 1.143-1.499-.716-1.864-6.447-1.847-11.362.033m-6.471 3.822c-2.499 1.827-1.319 4.896 1.717 4.465 1.615-.229 2.344-1.099 2.57-3.07.355-3.08-1.262-3.606-4.287-1.395m11.284 6.328c.721.289 1.584.253 1.916-.079s-.258-.568-1.312-.525c-1.165.048-1.402.285-.604.604M165 85.918c0 1.974 1.275 4.082 2.468 4.082.799 0 1.081-.908.777-2.5-.441-2.304-3.245-3.671-3.245-1.582M96.835 93.73c-3.082.711-3.153 3.604-.147 6.011l2.812 2.253.318-3.629c.35-3.984-.446-5.221-2.983-4.635m71.665 1.871C161.471 98.26 151.723 100 143.857 100c-6.047 0-7.77.33-8.25 1.582-.923 2.404-.735 3.415.643 3.452.688.019 3.05.903 5.25 1.966 8.007 3.868 22.542 1.479 32.75-5.382 3.054-2.053 3.718-6.033 1.168-7.011-2.077-.797-2.248-.773-6.918.994M114 99.5c0 .867.595 1.209 1.5.862.825-.317 1.5-.705 1.5-.862s-.675-.545-1.5-.862c-.905-.347-1.5-.005-1.5.862m16.184 1.402c-.657 1.884-.704 3.277-.122 3.636 1.297.802 3.265-4.611 2.099-5.777-.55-.55-1.335.3-1.977 2.141m-53.557 4.348c1.347 3.981.648 14.617-1.073 16.339-.865.865-1.272 2.059-.904 2.654.422.682 1.349.242 2.509-1.191C79.99 119.556 79.714 103 76.826 103c-.555 0-.639.95-.199 2.25m-4.879 34.411c-2.847 1.5-7.748 7.858-7.748 10.052 0 .687-1.107 1.527-2.459 1.866-3.45.866-5.081 3-2.926 3.827 2.322.891 5.385-.249 5.385-2.005 0-.805.619-1.701 1.375-1.991s2.16-2.269 3.119-4.397c1.618-3.587 2.859-4.493 8.756-6.388.963-.309 1.75-1.026 1.75-1.594 0-1.443-3.97-1.098-7.252.63m54.284 8.522c-.022 1.821.61 2.886 1.968 3.317 1.1.349 2 1.054 2 1.567s.675.933 1.5.933c2.187 0 1.835-1.759-.5-2.5-1.1-.349-2-.968-2-1.376s-.661-1.615-1.468-2.683c-1.409-1.863-1.47-1.833-1.5.742M95 165.019c0 .575 1.041.758 2.391.419 1.315-.33 2.691-.114 3.059.481.367.595 1.551 1.081 2.63 1.081 1.123 0 2.45 1.07 3.102 2.5 1.356 2.975 3.87 3.416 3.12.547-.972-3.718-14.302-8.404-14.302-5.028m22.947 3.188c-2.127 2.127-2.772 3.351-1.915 3.637.711.237 2.157-.756 3.214-2.207 1.51-2.074 2.758-2.637 5.837-2.637 2.155 0 3.917-.45 3.917-1s-1.765-1-3.923-1c-3.082 0-4.611.688-7.13 3.207"/><path fill-opacity=".517" fill-rule="evenodd" d="M182.643 57.5c-.825.825-1.904 1.5-2.397 1.5-.494 0-1.954 1.125-3.246 2.5s-2.833 2.506-3.424 2.512c-.592.007-2.898 1.695-5.125 3.75-10.26 9.469-19 16.199-21.843 16.819-1.709.372-5.526 1.744-8.482 3.048-4.321 1.906-7.095 2.371-14.151 2.371-11.818 0-20.218-3.404-26.138-10.591-2.224-2.7-4.785-5.324-5.691-5.832s-2.234-1.745-2.953-2.75S87.026 69 85.974 69s-3.389-.826-5.194-1.835C74.272 63.524 69 63.436 69 66.967c0 .965-1.125 3.412-2.5 5.438S64 76.424 64 76.833s-.9 2.509-2 4.667c-1.388 2.722-2.005 5.925-2.017 10.461-.023 8.68-2.471 19.866-4.918 22.47-2.602 2.769-4.954 8.538-5.61 13.759-.291 2.321-1.638 5.672-2.992 7.448S44 139.598 44 140.491c0 1.378-5.626 7.479-10.181 11.041-1.562 1.221-11.401 4.468-13.54 4.468-.82 0-3.16 1.322-5.2 2.938-2.684 2.125-5.074 3.043-8.644 3.319l-4.935.383 5.293.18c4.388.149 6.438-.44 12-3.452 5.229-2.832 8.029-3.691 12.707-3.9 7.743-.345 7.5-.296 7.5-1.5 0-.568-1.013-1.439-2.25-1.937-1.601-.643-1.767-.923-.577-.968 1.734-.065 7.827-5.568 7.827-7.068 0-.469.627-1.479 1.392-2.245C47.854 139.289 52 130.157 52 127.196c0-1.579 1.833-6.521 4.073-10.983 3.349-6.67 4.233-9.676 4.973-16.912.495-4.841 1.369-10.826 1.942-13.301 1.209-5.22 4.172-11.972 5.262-11.989.412-.006.75-.686.75-1.511s.45-1.5 1-1.5c1.041 0 1.437 1.977 1.133 5.655-.099 1.185.731 4.464 1.844 7.287S75 90.407 75 92.037 75.442 95 75.983 95s2.107 2.138 3.481 4.75 4.271 6.1 6.439 7.75c2.167 1.65 4.502 4.013 5.188 5.25s1.564 2.25 1.952 2.25c.728 0 4.962 3.443 10.146 8.25 1.63 1.513 3.38 2.75 3.888 2.75s.923.399.923.886c0 1.947 7.469 7.963 13.797 11.112 5.41 2.693 8.321 3.449 15.095 3.919 8.321.578 8.394.607 8.691 3.418.409 3.884 3.064 7.665 5.381 7.665 1.055 0 2.157.387 2.45.861.293.473 8.082 1.096 17.309 1.382 12.748.397 17.497.909 19.777 2.133 3.232 1.736 8.5 2.189 8.5.731 0-1.177-2.519-2.1-5.832-2.136-1.467-.016-5.818-.903-9.668-1.971-4.311-1.196-10.266-1.956-15.5-1.98-14.145-.062-18.621-.894-19.897-3.694-1.808-3.967-1.428-6.644.858-6.046 2.46.643 9.548-1.748 12.827-4.328 1.365-1.074 3.073-1.952 3.796-1.952s2.566-1.687 4.096-3.75 4.478-5.49 6.551-7.618c2.073-2.127 3.789-4.827 3.813-6 .082-3.955 2.611-11.906 4.144-13.027.836-.612 1.865-2.236 2.285-3.609s1.316-3.171 1.991-3.996 2.232-3.75 3.459-6.5c1.228-2.75 2.875-6.2 3.662-7.668.942-1.757 1.495-6.324 1.619-13.381.178-10.098.056-10.822-2.119-12.583-2.844-2.303-10.287-2.523-12.442-.368M185 58.689c-2.782 1.154-18.254 13.27-22 17.227-.825.872-2.738 2.383-4.25 3.357-3.185 2.054-3.745 5.727-.872 5.727 1.032 0 2.369.593 2.971 1.318 1.513 1.823 1.898 7.876.532 8.363-.69.246-.95-.487-.677-1.911.316-1.655-.427-3.084-2.623-5.04-3.694-3.292-5.742-3.392-11.886-.583-2.582 1.18-8.397 2.959-12.922 3.951-8.225 1.804-9.166 1.778-22.273-.62-6.743-1.233-10.377-3.922-18-13.313-1.375-1.694-2.881-3.099-3.346-3.123-.465-.023-2.187-.997-3.826-2.165-1.64-1.167-4.409-2.465-6.154-2.884s-3.853-1.046-4.682-1.392c-1.289-.538-1.456.571-1.149 7.635.226 5.206.877 8.848 1.758 9.843.769.868 1.399 3.037 1.399 4.82 0 4.257 4.561 10.954 12.839 18.851 3.604 3.437 6.764 6.25 7.023 6.25s1.634 1.109 3.055 2.463c9.662 9.214 17.673 16.235 19.859 17.406 6.91 3.701 16.372 6.131 23.87 6.131 6.835 0 8.54-.414 15.432-3.75 4.468-2.162 8.391-4.808 9.267-6.25.836-1.375 3.292-4.442 5.457-6.816 3.279-3.594 4.05-5.264 4.603-9.973.398-3.385 1.419-6.471 2.543-7.684 2.226-2.403 7.052-11.313 7.052-13.021 0-.658.9-2.011 2-3.006s2-2.796 2-4.001.691-3.577 1.535-5.269c1.772-3.552 2.371-19.724.79-21.305-1.257-1.257-7.334-2.062-9.325-1.236m-8.958 13.968c-6.985 1.512-8.199 2.499-7.801 6.343.229 2.207.845 2.569 5.259 3.086 2.75.323 6.267 1.11 7.815 1.75 3.843 1.589 5.685 1.461 5.685-.395 0-.857-.446-1.283-.992-.946s-1.712.211-2.591-.282c-1.316-.736-1.036-1.128 1.582-2.213 2.711-1.122 3.12-1.738 2.764-4.159-.279-1.903.021-2.841.91-2.841.73 0 1.327-.45 1.327-1 0-1.34-6.053-1.055-13.958.657m-5.053 3.364c-1.513 2.827-.449 3.979 3.677 3.979 2.824 0 3.424-.323 2.941-1.582-.334-.87-.607-2.22-.607-3 0-2.212-4.76-1.735-6.011.603m-5.241 9.564c-.784.784.341 4.415 1.369 4.415 1.136 0 1.155-3.714.022-4.414-.473-.292-1.099-.293-1.391-.001M93 90.82c-.86.39-1.629 2.314-1.803 4.51-.246 3.107.066 3.926 1.657 4.342 1.079.282 2.186 1.371 2.46 2.42.449 1.719 1.504 1.908 10.64 1.908 9.703 0 10.248-.115 12.613-2.667l2.472-2.667-2.769-1.827c-1.524-1.004-3.489-1.829-4.367-1.832S111.268 94.1 110 93c-1.677-1.455-3.741-2-7.571-2-2.896 0-5.865-.194-6.597-.43-.733-.237-2.007-.124-2.832.25m49.75.26c-2.164 1.26-2.217 2.596-.186 4.627 1.168 1.168 1.853 1.276 2.7.429.848-.848.768-1.144-.314-1.169-.996-.023-.746-.621.8-1.911 1.238-1.032 2.25-2.142 2.25-2.466 0-.938-3.333-.626-5.25.49m-48.603 4.056c-1.187 1.901-1.054 2.395 1.216 4.5 3.378 3.132 4.637 2.982 4.637-.554 0-1.605.273-3.63.607-4.5.988-2.575-4.817-2.077-6.46.554M165.5 97.19c-3.631 1.476-8.148 2.168-16.5 2.528-8.92.384-11.783.854-12.76 2.094-1.096 1.39-.456 1.976 4.902 4.486 6.072 2.845 6.281 2.87 14.26 1.715 10.107-1.463 21.855-7.228 21.387-10.495-.398-2.778-4.938-2.91-11.289-.328m-52.054 1.897c-.369.598-.28 1.479.199 1.958 1.183 1.183 3.786-.538 2.924-1.933-.873-1.414-2.258-1.425-3.123-.025M130.5 101c-.375 1.183-.458 2.376-.183 2.651s.808-.468 1.183-1.651.458-2.376.183-2.651-.808.468-1.183 1.651m-52.706 10.292c.349 6.655.121 8.65-1.131 9.902-.862.862-1.296 1.839-.964 2.171s1.196-.177 1.92-1.131c1.462-1.924 1.884-15.894.544-18.005-.444-.699-.61 2.48-.369 7.063M105 119.835c0 1.315 5.828 6.165 7.408 6.165.784 0 1.575.384 1.759.854.789 2.022 16.646 8.442 22.821 9.24 8.352 1.078 10.012 1.092 10.012.083 0-.453-3.639-1.303-8.086-1.89-5.725-.756-10.22-2.122-15.39-4.678-4.016-1.985-7.69-3.618-8.163-3.628-.474-.011-2.656-1.586-4.85-3.5-3.991-3.483-5.511-4.213-5.511-2.646m-32.064 19.95c-2.282 1.021-4.619 3.316-6.5 6.385-1.615 2.636-3.161 4.811-3.436 4.833s-1.625.921-3 1.997l-2.5 1.956 2.781.022c1.694.013 3.033-.633 3.424-1.652.353-.92 1.352-2.425 2.219-3.343s2.33-3.069 3.252-4.779c1.095-2.03 2.805-3.401 4.932-3.952 1.791-.464 3.437-1.386 3.657-2.048.506-1.517-.372-1.411-4.829.581m53.134 7.906c-.038 1.205.38 2.469.93 2.809 1.183.731 1.183-.248 0-3-.829-1.928-.862-1.921-.93.191m4.141 4.708c.709.77 1.447 1.25 1.639 1.067.593-.564-.91-2.466-1.948-2.466-.54 0-.401.63.309 1.399m-32.177 12.523c1.944.381 4.194 1.038 5 1.46s.592.058-.475-.808c-1.068-.866-3.318-1.522-5-1.459-3.043.114-3.04.119.475.807M122 166c-1.116.721-.539.973 2.25.985 2.063.008 3.75-.435 3.75-.985 0-1.274-4.029-1.274-6 0m-15.571 2.571c.864.865 1.571 2.065 1.571 2.667s.261.834.581.514c.809-.808-1.422-4.752-2.688-4.752-.57 0-.329.707.536 1.571m11.849-.321c-1.794 2.32-2.401 3.75-1.587 3.742.445-.004 1.329-1.129 1.965-2.5 1.265-2.726 1.125-3.185-.378-1.242"/><path fill-opacity=".965" fill-rule="evenodd" d="M182.389 57.783c-5.657 4.6-7.886 6.217-8.572 6.217-.411 0-2.03 1.237-3.597 2.75-11.122 10.737-20.644 18.223-23.22 18.256-1.995.026-11.884 4.814-10.151 4.915.742.044 2.767-.568 4.5-1.359 10.786-4.92 11.632-4.983 16.995-1.264 2.258 1.566 2.757 2.561 2.423 4.837-.231 1.576-.049 2.865.406 2.865s.827-1.543.827-3.429c0-3.557-2.096-6.571-4.571-6.571-2.739 0-1.65-4.835 1.45-6.437 1.583-.819 3.144-2.181 3.468-3.026.325-.845.978-1.537 1.452-1.537s3.301-2.247 6.281-4.994c2.981-2.746 5.87-5.004 6.42-5.016s2.575-1.411 4.5-3.108c3.109-2.741 4.033-3.035 8.272-2.629 2.625.252 5.079.765 5.454 1.14s.627 4.674.558 9.552c-.118 8.474-2.289 18.611-4.724 22.055-3.071 4.344-4.341 7.601-2.528 6.48.883-.545 2.291-3.28 5.399-10.48.356-.825 1.298-2.625 2.093-4 1-1.728 1.451-5.642 1.461-12.677.014-9.812-.08-10.252-2.62-12.25-3.223-2.535-9.042-2.676-11.976-.29M69.414 66.75c-.288.963-1.158 2.875-1.933 4.25-3.715 6.593-6.625 13.864-7 17.493-.971 9.39-1.493 18.852-1.013 18.372.285-.285.992-5.134 1.571-10.776 1.098-10.701 4.154-20.842 6.559-21.765.771-.296 1.402-1.427 1.402-2.514 0-1.136.532-1.8 1.25-1.562.714.237 1.551 3.113 1.952 6.703.387 3.458.935 6.52 1.219 6.804.763.762-.159-12.932-1.02-15.164-.78-2.021-.861-2.02 7.599-.06 1.984.46 1.777.164-1-1.434-4.437-2.552-8.879-2.713-9.586-.347M86.5 71.305c1.65 1.207 5.129 4.415 7.732 7.13 2.602 2.714 5.073 4.593 5.491 4.175s-.023-1.199-.981-1.735-2.429-2.302-3.268-3.925-2.076-2.958-2.75-2.967c-.673-.01-2.284-1.135-3.579-2.5-1.295-1.366-3.095-2.458-4-2.427-1.146.038-.736.72 1.355 2.249M182 72c-1.375.44-4.075.907-6 1.037-2.362.159-2.79.373-1.316.66 2.186.425 4.114 5.202 2.896 7.174-.313.506.141 1.192 1.008 1.524 2.546.977 3.388.705 2.774-.895-.383-.997.047-1.511 1.281-1.532 3.018-.051 5.679-2.63 5.079-4.922-.31-1.187-.049-2.052.622-2.061.646-.009.495-.443-.344-.985-1.719-1.111-2.531-1.111-6 0m-12.333 2.667c-.367.366-.667 1.941-.667 3.5 0 2.037.491 2.829 1.75 2.818 1.391-.012 1.466-.196.365-.893-.917-.581-1.164-1.759-.731-3.485.664-2.648.482-3.14-.717-1.94m14.083 8.995c.688.278 1.813.278 2.5 0 .688-.277.125-.504-1.25-.504s-1.937.227-1.25.504m-83.75.9c0 1.201 8.461 5.513 10.298 5.248 1.547-.223.406-1.059-4.075-2.985-3.423-1.471-6.223-2.49-6.223-2.263m-25.162 4.869c.218 2.736 1.081 5.091 2.257 6.155 2.242 2.029 2.594.961.405-1.229-.825-.825-1.5-3.268-1.5-5.428S75.659 85 75.243 85c-.417 0-.599 1.994-.405 4.431M166 87.382c0 .825.45 1.778 1 2.118s1-.057 1-.882-.45-1.778-1-2.118-1 .057-1 .882m-48.5 3.694c3.941.903 11.553.961 13.71.104.94-.374-2.435-.705-7.5-.736-5.467-.033-7.991.223-6.21.632m26.192-.375c-2.115.548-1.966 4.387.197 5.1.917.303 1.123.028.606-.808-.493-.799.102-1.948 1.611-3.108 2.374-1.825 1.574-2.218-2.414-1.184m-51.41 1.549c.246.688.019 2.082-.505 3.099-.757 1.467-.283 2.5 2.29 5 2.525 2.452 2.98 2.652 2.053.901-.655-1.237-1.625-2.25-2.155-2.25-.531 0-.965-.9-.965-2s.45-2 1-2 1-.675 1-1.5c0-.993.993-1.5 2.941-1.5 3.233 0 5.04 1.776 3.055 3.002-.857.53-1.043 1.933-.583 4.388.564 3.005.39 3.61-1.034 3.61-.942 0-1.456.257-1.142.57.313.314 3.763.255 7.666-.129 6.985-.688 7.097-.745 7.097-3.57 0-1.934.509-2.871 1.559-2.871.857 0 1.281-.45.941-1s-1.308-1-2.151-1c-.844 0-2.678-.9-4.076-2-2.026-1.593-4.057-2-9.991-2-5.531 0-7.333.322-7 1.25M168 97.164c-3.433 1.543-7.463 2.149-17 2.559-16.326.701-18.609 2.133-9.823 6.164 4.489 2.059 6.171 2.3 12.647 1.81 12.38-.936 27.948-9.652 21.594-12.09-2.099-.806-2.216-.781-7.418 1.557m-89 1.88c0 .526.45.956 1 .956s1 .508 1 1.128c0 1.846 17.43 18.193 22.058 20.689 1.343.724.417-.377-2.058-2.445-2.475-2.069-8.437-7.704-13.25-12.523-4.812-4.818-8.75-8.331-8.75-7.805m38.813-.361c.721.289 1.584.253 1.916-.079s-.258-.568-1.312-.525c-1.165.048-1.402.285-.604.604m67.559 1.924c-.372 1.041-1.395 2.746-2.274 3.789-1.355 1.608-1.37 1.825-.098 1.426 1.669-.523 4.504-5.652 3.614-6.541-.312-.312-.871.285-1.242 1.326m-68.372.32c0 .509-.787 1.132-1.75 1.384-1.317.344-1.193.486.5.573 1.385.071 2.25-.461 2.25-1.384 0-.825-.225-1.5-.5-1.5s-.5.417-.5.927m63.254 7.299c-.566.701-1.36 3.749-1.763 6.774s-1.609 6.737-2.68 8.25-1.722 2.75-1.447 2.75c1.264 0 4.826-6.349 5.193-9.258.225-1.783.928-4.494 1.561-6.024 1.264-3.054.762-4.502-.864-2.492m-122.682 2.518c-.401 1.784-1.307 3.584-2.015 4-2.047 1.203-4.285 6.335-5.406 12.396-.569 3.08-2.186 7.297-3.593 9.37-2.744 4.043-3.52 7.315-.946 3.99 2.851-3.684 6.152-10.974 6.145-13.573-.006-2.372 2.005-7.262 5.847-14.212.846-1.532 1.349-3.332 1.118-4-.232-.668-.75.245-1.15 2.029M105 119.392c0 1.124 6.453 6.548 7.827 6.579 1.18.026-.361-1.462-6.077-5.867-.963-.742-1.75-1.062-1.75-.712m6 10.446c3.575 3.38 6.917 6.15 7.427 6.154 1.173.01-9.243-9.799-11.927-11.232-1.1-.588.925 1.698 4.5 5.078m4-2.851c0 1.183 6.906 4.213 8.429 3.698.589-.2-.616-.976-2.679-1.725s-3.75-1.721-3.75-2.161-.45-.799-1-.799-1 .444-1 .987m54.108 3.355c-1.696 2.466-3.652 4.712-4.346 4.992-.787.317-.621.538.44.587 1.681.078 8.467-8.585 7.491-9.562-.275-.275-1.888 1.518-3.585 3.983m-43.195 2.054c1.417 1.707 11.113 4.14 13.201 3.312.762-.303.165-.586-1.327-.629s-5.053-1.002-7.914-2.129c-3.944-1.555-4.901-1.689-3.96-.554M120 136.551c0 .621 5.209 2.865 9 3.877 2.319.619 2.355.578.5-.57-1.1-.68-2.117-1.143-2.26-1.027-.144.115-1.584-.475-3.201-1.311-3.15-1.629-4.039-1.842-4.039-.969m38.75 1.517c-2.062 1.089-3.75 2.184-3.75 2.434 0 .716 5.341-1.728 6.964-3.187 1.971-1.77 1.242-1.599-3.214.753m-84.192 1.839c-.309.498.34.671 1.441.383 2.335-.611 2.63-1.29.56-1.29-.793 0-1.693.408-2.001.907m-5.051 2.082c-.35.566.051.734.941.393 1.732-.665 2.049-1.382.611-1.382-.518 0-1.216.445-1.552.989m63.243-.327c.688.278 1.813.278 2.5 0 .688-.277.125-.504-1.25-.504s-1.937.227-1.25.504m13.385 4.033c.935 5.003 2.052 6.265 5.565 6.29 1.21.008 2.56.64 3 1.403.615 1.067 4.57 1.481 17.097 1.789 10.141.25 15.43.066 14-.488-1.263-.49-8.273-1.134-15.576-1.433-7.304-.298-13.518-.928-13.809-1.399-.292-.471-2.09-.857-3.996-.857-2.86 0-3.648-.48-4.51-2.747-.575-1.511-.851-3.761-.614-5 .258-1.351-.063-2.253-.802-2.253-.925 0-1.014 1.167-.355 4.695m3.865-3.636c0 .582.45.781 1 .441s1-.816 1-1.059-.45-.441-1-.441-1 .477-1 1.059m-109.693 4.528c-1.757 1.783-4.119 3.536-5.25 3.895S33 151.779 33 152.567c0 .893-1.037 1.439-2.75 1.448-1.512.009-3.337.388-4.054.843-.748.474 1.174.696 4.5.52 3.192-.168 6.367-.323 7.054-.342s1.25-.516 1.25-1.103c0-.613-.853-.797-2-.433-1.419.45-2 .18-2-.933 0-.862.563-1.58 1.25-1.596 1.603-.038 7.988-5.813 7.568-6.845-.175-.43-1.755.678-3.511 2.461m24.549 2.336c-1.828 2.792-3.969 5.077-4.757 5.077s-1.166.266-.841.591c1.028 1.028 4.742-.663 4.742-2.158 0-.788.338-1.436.75-1.439.946-.008 4.467-6.11 3.871-6.706-.243-.243-1.937 1.843-3.765 4.635m-48.894 10.036c-2.701 2.309-4.561 3.008-8.462 3.181l-5 .22 4.687.372c3.718.296 5.523-.155 8.73-2.18 2.224-1.403 4.476-2.552 5.004-2.552.529 0 1.239-.45 1.579-1 1.365-2.209-3.295-.813-6.538 1.959M192 157.404c1.375.839 3.377 1.541 4.45 1.561 3.109.056.465-1.848-3.481-2.507l-3.469-.579z"/></svg>