<svg xmlns="http://www.w3.org/2000/svg" width="32" height="32" fill="#000000"><g clip-path="url(#a)"><path fill="#FFFFFF" d="M16 32c8.837 0 16-7.163 16-16S24.837 0 16 0 0 7.163 0 16s7.163 16 16 16"/><path fill="#1F1F1F" d="M28.2 15.641c-.24-8.127-5.814-12.69-12.517-12.492-6.704.199-12.095 6.115-11.885 13.213s5.942 12.69 12.645 12.49c6.704-.198 11.968-6.112 11.758-13.21"/><path fill="#1F1F1F" d="M4.778 11.734c0 .102.011.206-.103.263a.43.43 0 0 1 .103-.263M4.815 11.664l-.029.04q-.01-.04.03-.04"/><path fill="#A1A1A1" d="m4.726 16.869-.015-.072c.05-.092.066-.179-.029-.253v-.118c.018-.145.08-.296-.04-.429.061-.204-.019-.415.033-.62.066-.01.121-.043.136-.106.078-.334.205-.662.145-1.015l.158-.93c.103-.07.092-.18.098-.283l.021-.156.018-.06q.002-.026.006-.053.038-.017.03-.058.004-.027.01-.054c.057-.068.087-.145.065-.237l.046-.095c.054-.097.124-.187.1-.31l.005-.056c.072-.009.069-.076.094-.122.282-.526.417-1.118.746-1.626.265-.41.49-.845.797-1.228.117-.146.331-.15.395.004.074.181.207.343.174.566-.014.096.028.203.079.296.019.035.03.078.09.072.204-.019.128.103.071.174-.234.285-.374.625-.542.947-.13.252-.215.528-.35.777-.265.484-.43 1.004-.594 1.524-.077.246-.08.516-.11.775-.043.38-.103.762-.113 1.144-.013.468-.044.94.031 1.407.077.479.135.96.242 1.435.11.494.317.953.502 1.422.167.422.363.826.6 1.213.144.236.341.425.492.653.22.33.5.61.8.87.177.194.362.379.568.54.251.308.59.493.934.671.356.289.766.48 1.183.658q.543.348 1.177.47a.54.54 0 0 1 .251.045c.247.126.508.195.787.187l.088.01.048.012c.75.156 1.508.119 2.265.111.154.017.306.017.445-.067l.136-.014c.035.017.063.014.083-.022l.07-.005c.275-.01.53-.136.803-.158.016 0 .03-.034.044-.053.189.01.339-.113.512-.154.157-.008.283-.087.405-.174a.2.2 0 0 1 .147-.047c.032.01.06.01.07-.03l.079-.04c.13.004.23-.062.322-.141l.154-.085q.06.018.08-.041l.036-.023c.086-.023.175-.042.215-.137.432-.185.786-.492 1.17-.75.025.007.033-.006.036-.027l.04-.04c.147-.048.242-.166.357-.26.388-.317.682-.722 1.034-1.073.333-.331.517-.777.83-1.128.281-.314.386-.727.548-1.106.144-.334.3-.66.414-1.01.103-.319.118-.643.187-.961.067-.31.103-.623.038-.94-.021-.101-.02-.233-.181-.118-.003-.036-.012-.074-.007-.109.07-.452.098-.904.04-1.36-.033-.256-.04-.516-.06-.774.066-.053-.024-.2.102-.2.082 0 .092.097.105.17.014.08.014.2.12.188.1-.011.056-.128.064-.201.034-.323-.078-.635-.07-.956.044-.013.138.097.132-.024-.015-.35-.056-.698-.189-1.03-.206-.514-.427-1.023-.575-1.56-.053-.193.004-.35.131-.5.119-.14.287-.201.424-.31.2-.162.313-.158.503.023.06.055.097.147.201.139v.002c-.01.091-.021.183.115.182a.1.1 0 0 1 .008.024c-.021.06-.002.092.064.087q.028.049.052.097c-.027.053-.014.085.049.091l.032.048c.098.218.185.438.228.674.048.226.11.448.253.637.002.098.058.188.041.288-.015.074.003.142.02.214.085.351.29.663.316 1.036.037.551.094 1.102.057 1.656-.06-.005-.09-.058-.137-.085-.068-.04-.148-.059-.19.025-.082.16-.184.31-.183.51.002.333-.007.67-.043 1.003-.057.553-.17 1.099-.325 1.634-.117.406-.169.826-.365 1.215-.206.41-.337.858-.524 1.278a8.1 8.1 0 0 1-1.533 2.32c-.37.388-.736.78-1.142 1.131-.257.221-.52.443-.808.617-.294.176-.589.356-.886.529a6.7 6.7 0 0 1-1.299.599c-.42.136-.842.258-1.276.354-.814.181-1.621.361-2.463.31-.474-.03-.945-.105-1.422-.08-.023 0-.048-.007-.072-.012-.493-.109-.971-.267-1.453-.412-.124-.037-.261.015-.37-.06-.17-.115-.361-.175-.55-.245-.72-.266-1.37-.66-2.008-1.077-.257-.169-.45-.43-.695-.62-.664-.515-1.246-1.103-1.666-1.839a1 1 0 0 0-.293-.323.5.5 0 0 1-.125-.131c-.468-.7-.867-1.432-1.112-2.244-.105-.35-.292-.668-.4-1.024-.112-.37-.243-.732-.296-1.118-.013-.096.004-.21-.088-.283z"/><path fill="#666666" d="M4.726 16.869c.091.074.074.186.088.282.053.386.185.748.296 1.118.107.356.295.674.4 1.024.244.813.643 1.545 1.112 2.244a.5.5 0 0 0 .125.131q.183.13.293.323c.42.736 1.001 1.324 1.666 1.84.244.19.439.452.695.62.637.416 1.289.811 2.008 1.077.189.07.38.13.55.245.11.075.246.022.37.06.48.144.96.303 1.453.412.023.005.047.013.072.011.476-.025.948.05 1.421.08.842.052 1.65-.128 2.463-.31a14 14 0 0 0 1.277-.354 6.8 6.8 0 0 0 1.299-.599c.297-.171.591-.352.886-.529.289-.173.552-.395.807-.617.406-.35.773-.743 1.143-1.13a8.1 8.1 0 0 0 1.532-2.32c.188-.42.318-.869.525-1.279.195-.388.247-.809.365-1.214a9.5 9.5 0 0 0 .325-1.635 9 9 0 0 0 .043-1.003c-.001-.199.1-.349.182-.51.043-.084.124-.065.19-.025.047.027.078.08.138.086.028.178-.07.357-.004.535-.016.008-.044.015-.045.026-.04.247-.118.49-.152.734-.04.285 0 .582.007.874q-.004.031-.006.064c-.043.018-.049.042-.009.07l-.022.107q-.063.014-.049.078c0 .164-.08.31-.121.464-.114.421-.235.84-.378 1.253-.122.352-.278.692-.42 1.037a.9.9 0 0 0-.183.36c-.277.722-.738 1.332-1.184 1.949-.239.33-.517.634-.782.946-.179.212-.359.43-.586.588-.462.32-.875.703-1.355 1.005-.495.313-.988.625-1.521.866-.646.291-1.33.471-2.018.632-.43.1-.86.204-1.301.213-.743.013-1.489.027-2.228-.072-.55-.074-1.107-.094-1.642-.258l-.004-.004c-.038-.04-.083-.067-.14-.062-.31.002-.579-.158-.844-.274-.49-.216-.976-.445-1.446-.706-.548-.305-1.017-.712-1.469-1.131-.375-.35-.754-.702-1.09-1.095q-.411-.48-.795-.98c-.24-.316-.408-.674-.633-.997l-.234-.476q.007-.02-.014-.023l-.024-.049c-.033-.096-.049-.215-.201-.141-.127-.107-.126-.272-.19-.407.01-.216-.09-.406-.147-.605-.003-.013-.043-.015-.065-.023.016-.115-.048-.21-.078-.315-.152-.525-.208-1.069-.3-1.606-.034-.2-.113-.398-.05-.608z"/><path fill="#F2F2F2" d="m5.114 13.327-.158.93c-.126.098-.131-.05-.188-.093.088-.852.307-1.673.59-2.48.01-.027.008-.059.01-.089.151-.257.239-.542.367-.81.264-.549.542-1.087.896-1.59.254-.36.51-.72.797-1.051Q8 7.489 8.651 6.913c.24-.214.494-.41.744-.608.471-.374.995-.667 1.522-.951a10.7 10.7 0 0 1 2.41-.934c.428-.11.858-.215 1.29-.267.532-.065 1.076-.098 1.617-.02.161.024.329.011.494.004.565-.024 1.112.083 1.66.2.451.096.903.2 1.333.36.494.181.992.355 1.45.635.36.221.747.399 1.1.639q.507.345.977.736c.236.197.474.394.695.607.183.176.346.374.511.567.648.754 1.167 1.591 1.622 2.472.273.528.473 1.088.697 1.637.077.187.108.394.161.592.073.438.159.874.215 1.314.062.477.112.956.117 1.438l.002.945c0 .222-.075.44-.038.665-.044.399-.055.801-.154 1.192-.01.04-.004.084-.004.126q-.103.007-.098-.098c.008-.25-.011-.5.019-.75.047-.395.112-.792.115-1.189.003-.752-.02-1.502-.192-2.244-.064-.274-.092-.562-.161-.84-.042-.17-.083-.358-.231-.465a.94.94 0 0 1-.365-.53c-.017-.057-.01-.142-.102-.155.017-.1-.04-.19-.041-.288-.02-.238-.073-.462-.253-.636a3 3 0 0 0-.228-.675q.007-.04-.032-.048c.002-.04-.007-.074-.05-.09l-.051-.097q.003-.07-.065-.087a.1.1 0 0 0-.007-.025c-.01-.078-.037-.145-.114-.181v-.002a6.3 6.3 0 0 0-.78-1.217 9 9 0 0 0-.706-.784c-.42-.415-.832-.835-1.277-1.225a4 4 0 0 0-.881-.567c-.387-.19-.797-.346-1.155-.581-.351-.232-.727-.354-1.126-.438a.4.4 0 0 1-.13-.062c-.32-.2-.67-.32-1.042-.357a2 2 0 0 1-.516-.106.5.5 0 0 0-.176-.042c-.31-.006-.62-.021-.93-.034-.541-.022-1.087-.043-1.627.033-.602.084-1.197.208-1.792.336-.372.08-.684.314-1.064.363-.231.029-.468.082-.642.238-.187.169-.409.237-.634.309a1 1 0 0 0-.198.09c-.33.195-.598.48-.945.647-.349.167-.62.425-.87.709a1.7 1.7 0 0 1-.414.355 1 1 0 0 0-.231.204c-.199.223-.335.502-.569.689-.326.261-.547.598-.772.937-.254.383-.463.791-.692 1.187-.133.228-.209.478-.32.712-.103.218-.226.449-.213.71l-.006.055c-.09.085-.139.183-.1.31l-.045.095c-.084.062-.112.139-.066.237l-.01.054-.03.057-.005.054c-.02.016-.03.034-.018.06l-.02.155c-.108.069-.106.175-.1.283zM6.028 21.122c.225.323.393.681.633.997q.385.502.796.98c.336.394.714.746 1.09 1.095.45.42.92.826 1.468 1.13.47.262.957.492 1.446.707.266.117.534.277.845.274.014.094.085.06.14.062l.003.003c-.019.063.035.146-.068.185-.175.065-.176.107-.044.243.204.207.485.257.732.378.067-.01.093.056.142.077.045.074.038.14-.03.196-.464-.18-.93-.352-1.389-.54-.557-.23-1.072-.541-1.57-.876a14 14 0 0 1-2.072-1.735c-.329-.33-.605-.705-.907-1.058-.28-.328-.554-.66-.776-1.032-.21-.353-.423-.705-.589-1.081.047-.085.102.05.15-.005"/><path fill="#E3E3E3" d="M25.653 21.972c-.14.313-.338.592-.532.872-.299.434-.602.867-.931 1.279-.423.527-.89 1.013-1.446 1.408-.282.2-.54.43-.84.605-.444.26-.903.49-1.364.715-.382.187-.773.356-1.174.497-.477.168-.96.327-1.467.381-.447.048-.895.09-1.343.135q-.038-.025-.08-.003l-.126.001-.603-.003h-.04l-.14-.008-.007-.005-.006.005c-.056.037-.117.025-.177.02a.44.44 0 0 0-.04-.25q.09-.006.181-.008c.93.006 1.855.013 2.77-.213.755-.186 1.505-.378 2.19-.758.494-.275 1.01-.508 1.488-.815.47-.304.903-.66 1.334-1.015.294-.242.585-.496.79-.827.114-.185.219-.377.346-.554.404-.56.822-1.112 1.124-1.738.019-.037.041-.058.082-.06l-.06.208c-.018.065-.02.122.07.131zM26.056 11.991c.091.014.086.098.102.155a.94.94 0 0 0 .365.53c.149.107.19.296.231.466.069.276.097.564.16.839.173.742.196 1.493.193 2.244-.002.397-.067.794-.115 1.19-.03.25-.01.5-.018.749q-.006.105.097.098c-.154.306-.123.658-.24.975-.125.342-.228.691-.352 1.033-.026.071-.045.162-.13.202-.048-.066-.078-.025-.11.017a1 1 0 0 0-.182.35c-.034.133-.084.262-.214.336-.019-.102.054-.167.092-.247.13-.28.303-.548.376-.841.137-.552.356-1.082.429-1.65.054-.421.182-.834.19-1.258.014-.824 0-1.648-.003-2.472a.7.7 0 0 0-.087-.332c-.017-.032-.035-.069-.08-.062-.036.005-.04.037-.05.067a1.1 1.1 0 0 0-.074.39c.008.33.002.66 0 .989 0 .076.012.159-.077.217-.112-.17-.031-.375-.115-.544-.065-.18.032-.357.004-.535.037-.554-.02-1.104-.058-1.657-.025-.372-.23-.684-.314-1.036-.018-.072-.036-.14-.02-.213"/><path fill="#F2F2F2" d="M25.843 21.176c.131-.074.18-.203.214-.336a1 1 0 0 1 .182-.35c.032-.042.062-.083.11-.017-.032.176-.126.329-.191.492-.139.35-.303.688-.506 1.006-.088-.009-.087-.066-.068-.131l.06-.207q.098-.229.199-.458M15.337 27.62c.03.08.057.163.04.25-.38-.037-.764-.05-1.136-.146-.01-.06-.05-.115-.033-.18l.171.008q.025.04.055.004c.19.045.388-.002.578.05.047.028.095.061.15.014z"/><path fill="#E3E3E3" d="M14.209 27.542c-.018.066.022.121.033.181-.222-.001-.428-.08-.637-.133-.143-.037-.307-.023-.423-.14.07-.057.075-.123.03-.197.345.056.68.14.997.29M4.768 14.164c.057.042.06.19.188.093.06.353-.067.681-.145 1.015-.014.063-.07.096-.136.105l.004-.13c.036-.05.027-.105.02-.16-.064-.104-.013-.21.012-.307.049-.204.004-.414.057-.616M6.028 21.122c-.047.055-.102-.08-.149.005-.105-.174-.174-.364-.255-.549l.132-.004.024.049q-.007.018.015.022z"/><path fill="#1F1F1F" d="M5.153 19.399c.023.007.062.01.065.022.057.2.159.389.147.605-.12-.192-.146-.416-.212-.627"/><path fill="#666666" d="M4.641 15.998c.122.133.059.283.041.43-.094-.137-.038-.286-.04-.43"/><path fill="#A1A1A1" d="m5.756 20.574-.132.004c-.057-.032-.05-.094-.07-.145.153-.075.17.044.201.141z"/><path fill="#666666" d="M4.682 16.545c.094.074.078.161.03.252-.074-.077-.04-.165-.03-.253"/><path fill="#A1A1A1" d="M4.699 15.087c.006.055.015.11-.021.16-.008-.055-.02-.11.02-.16M16.478 27.86q.04-.023.08.003zM15.554 27.85l.007-.004.007.005-.007.008z"/><path fill="#E3E3E3" d="M5.512 11.965c-.012-.26.11-.49.213-.71.112-.234.188-.482.32-.711.23-.396.44-.804.692-1.187.225-.34.447-.677.773-.938.232-.187.37-.466.568-.688.07-.078.14-.151.232-.205.158-.093.29-.217.413-.355.25-.283.521-.542.87-.709.347-.166.616-.451.946-.646a1 1 0 0 1 .197-.09c.226-.072.447-.14.635-.31.173-.154.41-.208.641-.238.38-.049.692-.283 1.064-.363a26 26 0 0 1 1.792-.336c.54-.076 1.086-.055 1.627-.032.31.012.62.027.93.033.064.001.12.021.177.043.166.065.338.087.516.106a2.4 2.4 0 0 1 1.042.356c.04.026.084.053.129.062.4.085.774.206 1.127.439.357.235.766.39 1.154.58.316.155.612.33.881.567.445.39.857.81 1.277 1.226q.38.373.706.784c.299.377.575.777.78 1.216-.104.009-.142-.083-.2-.139-.19-.18-.304-.184-.504-.023-.137.11-.305.172-.424.312-.127.15-.184.305-.13.5.148.536.368 1.045.574 1.56.133.331.174.679.19 1.03.004.12-.089.01-.134.022-.03-.157-.126-.299-.118-.466-.003-.168-.006-.335-.176-.436-.004-.132-.093-.245-.086-.38q-.011-.011-.021-.022l-.044-.08a.28.28 0 0 0-.099-.255c-.238-.644-.593-1.231-.97-1.794-.285-.423-.68-.77-1.028-1.15a.34.34 0 0 0-.16-.138.1.1 0 0 0-.017-.014q-.01-.053-.064-.05a9.6 9.6 0 0 0-1.445-1.043q-.585-.353-1.232-.603c-.427-.164-.854-.335-1.295-.435-.45-.103-.922-.128-1.386-.159a7.7 7.7 0 0 0-1.223.026c-.33.031-.66.062-.989.105-.683.088-1.3.369-1.936.59-.451.156-.845.437-1.26.668-.469.26-.848.642-1.276.956-.165.12-.292.293-.434.444-.25.265-.493.535-.747.796-.18.185-.27.427-.422.627-.24.318-.475.644-.633 1.004-.24.55-.502 1.096-.65 1.684a.6.6 0 0 0-.14.498c-.09.228-.09.471-.123.71-.075.544-.141 1.086-.097 1.637-.028.268.008.534.016.8.01.368.15.713.15 1.08 0 .112.017.228.056.34.103.296.184.6.294.893.214.563.427 1.127.77 1.628.063.092.145.177.244.156.1-.02.152-.13.15-.244.101.088.148.214.218.324.24.381.538.716.847 1.043-.285.037-.37.138-.341.404-.299-.26-.581-.54-.8-.87-.151-.228-.349-.418-.492-.653a8 8 0 0 1-.6-1.213c-.185-.468-.392-.927-.503-1.422-.106-.474-.164-.956-.24-1.435-.075-.467-.045-.938-.033-1.407.01-.382.07-.762.114-1.143.03-.26.033-.53.11-.775.163-.52.33-1.041.593-1.525.136-.249.22-.525.351-.776.168-.323.307-.662.542-.948.058-.07.132-.193-.071-.173-.06.006-.071-.037-.09-.072-.05-.092-.094-.2-.08-.297.034-.223-.1-.384-.174-.565-.063-.155-.277-.15-.394-.005-.308.382-.532.819-.798 1.229-.329.507-.463 1.1-.745 1.626-.025.046-.022.113-.094.122z"/><path fill="#666666" d="m24.142 11.74.044.08q.002.018.02.022c-.006.135.083.248.087.38.072.14.048.319.176.436-.009.168.088.309.118.467-.007.32.105.633.07.956-.007.073.037.19-.064.2-.105.012-.105-.107-.12-.188-.012-.072-.023-.17-.104-.17-.127.001-.038.148-.102.201-.087-.098-.017-.23-.075-.334 0-.138-.012-.272-.091-.392l-.008-.085c.011-.08.046-.163-.044-.223-.05-.461-.237-.882-.39-1.311-.03-.088-.025-.196-.116-.258a.13.13 0 0 0-.06-.127c-.06-.168-.173-.307-.247-.466-.169-.357-.39-.678-.619-.995l.003-.01-.01.003c-.577-.801-1.248-1.503-2.11-2.002-.04-.066-.075-.137-.171-.129a.5.5 0 0 0-.19-.13l-.023-.024c-.144-.049-.256-.163-.41-.194a1 1 0 0 0-.337-.206c-.618-.213-1.225-.46-1.878-.555-.325-.048-.647-.132-.974-.15-1.038-.054-2.073-.007-3.079.28-.58.167-1.172.314-1.687.657-.202.135-.44.218-.632.364-.303.23-.64.41-.933.658-.136.115-.277.212-.352.38-.392.345-.719.75-1.037 1.161-.125.16-.29.295-.35.5q-.074 0-.051.068a.03.03 0 0 0-.017.019q-.064-.01-.063.056-.045.021-.036.072c-.075.111-.14.228-.172.36-.19.242-.295.523-.39.81-.089.003-.08.084-.099.133-.05.135-.078.28-.137.41-.16.35-.223.723-.316 1.09-.054.216-.063.44-.125.657-.036.127-.107.277-.03.423-.043.123-.034.25-.028.376-.065.1-.045.207-.023.315q-.034.341.002.682l-.055-.015c-.012-.02-.036-.039-.036-.06 0-.35-.03-.704.018-1.055.009-.068.05-.156-.069-.166-.117-.01-.096.084-.096.153q-.004.465 0 .93a.7.7 0 0 1-.044.232c-.01.028-.027.059-.063.054-.04-.005-.033-.042-.038-.07-.011-.061.03-.142-.066-.168-.045-.55.022-1.094.097-1.637.032-.24.032-.482.123-.71.083-.156.104-.33.14-.498.147-.588.409-1.134.65-1.684.158-.36.392-.686.632-1.004.152-.2.242-.442.423-.627.253-.26.497-.531.747-.796.142-.15.27-.323.434-.444.429-.314.807-.696 1.275-.956.416-.231.81-.512 1.26-.669.637-.22 1.254-.501 1.937-.59.33-.042.658-.073.988-.104a7.7 7.7 0 0 1 1.223-.026c.464.031.936.055 1.387.158.44.1.868.272 1.294.436a8 8 0 0 1 1.232.603c.509.308 1 .645 1.445 1.042q.003.063.065.05a.1.1 0 0 1 .016.015c-.003.111.069.136.162.137.346.381.743.728 1.027 1.151.378.563.733 1.15.97 1.794.015.092.033.183.1.255z"/><path fill="#F2F2F2" d="M8.917 22.267c-.03-.266.055-.367.34-.404.099.056.142.162.217.24.328.343.698.634 1.067.927.03.11.078.193.215.143.207.045.343.212.522.307.564.3 1.145.557 1.761.74.287.084.568.166.868.175.03 0 .064-.002.09.01.229.097.467.136.713.134.104 0 .21-.01.31.01.387.083.77-.015 1.154-.022.317-.006.624-.099.938-.13.442-.046.854-.202 1.27-.332.276-.085.558-.18.814-.332.353-.212.724-.396 1.066-.626.054.009.083-.02.103-.066a.14.14 0 0 0 .117-.08l.418-.325c.227.073.228.074.166.325l-.04.04-.036.028c-.385.258-.738.564-1.17.75-.103-.003-.198.005-.215.137l-.036.022q-.074-.042-.08.042l-.154.085c-.138-.023-.236.045-.323.14l-.078.042c-.056-.068-.063-.017-.072.029a.2.2 0 0 0-.146.047c-.155.01-.32 0-.405.174-.174.041-.324.163-.512.154-.186-.027-.36.035-.532.082-.108.03-.245.005-.316.13l-.07.005c-.044-.057-.067-.029-.083.021l-.136.015c-.156-.026-.312-.052-.445.067-.757.007-1.515.044-2.264-.112q-.016-.042-.049-.012l-.088-.01c-.012-.062-.059-.09-.115-.096-.225-.021-.444-.09-.672-.091a.54.54 0 0 0-.251-.046c-.006-.065-.044-.092-.105-.108-.204-.052-.398-.141-.597-.204-.16-.05-.29-.19-.476-.158-.417-.178-.827-.369-1.183-.657.013-.079-.05-.102-.1-.134q-.314-.212-.633-.423c-.063-.042-.11-.12-.2-.114a5 5 0 0 1-.568-.54z"/><path fill="#080808" d="M22.617 9.933c.228.318.45.638.618.995.074.159.187.298.248.466.005.05-.012.109.06.127.09.062.085.17.116.258.152.43.34.85.39 1.31-.004.079-.058.167.043.224l.008.084a.45.45 0 0 0 .091.392c.057.104-.012.236.075.334.02.259.027.517.06.774.058.456.029.908-.04 1.36-.005.035.004.072.007.11l-.046.297c-.113.085-.062.206-.068.314l-.018.118c-.062.02-.064.055-.026.102l-.027.183-.018.05c-.083.04-.062.101-.03.163.013.162-.096.286-.135.432a7.7 7.7 0 0 1-.67 1.65c-.327.617-.752 1.178-1.207 1.71l-.029.035-.112.113c-.132.004-.109-.066-.06-.136.156-.223.306-.45.476-.662.262-.326.526-.65.702-1.033.079-.171.14-.353.243-.508.17-.255.3-.538.377-.818.122-.436.267-.866.335-1.322.09-.608.097-1.222.151-1.832.041-.46-.084-.93-.115-1.393-.042-.652-.297-1.232-.473-1.839-.096-.331-.28-.638-.426-.955-.058-.126-.094-.274-.185-.37-.287-.307-.48-.685-.777-.987-.39-.395-.69-.875-1.183-1.175-.257-.157-.495-.351-.738-.531-.215-.16-.473-.257-.668-.456l.14-.067c.153.03.266.145.41.194q.007.015.022.024c.073.03.14.069.19.13.03.08.083.128.172.129.862.499 1.533 1.2 2.11 2.001l.007.007z"/><path fill="#E3E3E3" d="m24.248 16.664.045-.299c.162-.115.16.017.18.12.066.315.03.628-.037.938-.069.319-.084.643-.188.961-.114.35-.27.676-.413 1.01-.161.38-.267.792-.547 1.106-.314.352-.498.797-.832 1.129-.351.35-.645.755-1.033 1.072-.116.094-.21.211-.357.26.062-.252.061-.252-.165-.325.208-.195.45-.355.622-.59.126-.172.282-.323.385-.513l.112-.113q.035.001.029-.034c.454-.534.88-1.093 1.207-1.71a7.7 7.7 0 0 0 .67-1.65c.038-.147.147-.271.136-.433.062-.045.036-.106.029-.163l.018-.05c.151-.114.145-.28.145-.443q-.002-.137-.006-.274M11.602 24.136c.185-.032.316.107.476.158.2.062.392.152.597.204.06.015.099.043.105.107a3.3 3.3 0 0 1-1.177-.469zM9.485 22.808c.091-.005.136.072.2.114q.317.21.633.423c.05.034.113.056.1.134-.344-.178-.683-.363-.934-.67M13.03 24.651c.228 0 .447.07.672.092.057.005.103.032.115.096a1.6 1.6 0 0 1-.787-.187M16.952 24.862c.07-.125.207-.1.315-.13.173-.047.346-.11.532-.081-.014.018-.028.051-.044.052-.274.022-.527.148-.803.159M25.762 11.067c.18.174.233.398.253.636-.143-.188-.205-.41-.253-.636M18.311 24.497c.086-.173.25-.163.406-.174-.122.087-.249.166-.406.174M16.218 24.97c.134-.118.29-.092.445-.066-.14.083-.291.083-.445.067M19.013 24.206c.086-.096.185-.164.323-.141-.094.079-.193.145-.323.14M5.408 12.33c-.04-.127.009-.225.1-.31.025.122-.046.213-.1.31M19.605 23.917c.017-.132.112-.141.215-.138-.04.095-.129.114-.215.138M5.114 13.327c-.006-.108-.009-.215.098-.283-.006.104.005.213-.098.283M5.296 12.662c-.046-.098-.018-.175.066-.237.022.092-.008.168-.066.237M25.215 9.864c.077.036.104.103.114.181-.137.001-.125-.09-.114-.181M16.8 24.89c.015-.051.038-.08.082-.023-.02.037-.049.04-.083.022M25.453 10.253c.043.017.052.051.049.091q-.093-.009-.049-.09M25.337 10.069q.067.017.064.087-.097.004-.064-.087M18.863 24.276c.008-.046.015-.097.07-.03-.01.04-.038.042-.07.03M19.49 23.98q.006-.082.08-.042-.021.06-.08.042M5.256 12.774l.03-.058q.008.041-.03.058M5.233 12.887c-.011-.025-.002-.044.018-.06zM13.905 24.848q.033-.031.048.012zM25.502 10.344q.04.008.032.048zM20.99 23.03l.036-.028c-.003.02-.011.034-.036.027"/><path fill="#A1A1A1" d="M14.209 27.542a3.7 3.7 0 0 0-.996-.289c-.05-.021-.076-.086-.143-.077-.011-.149-.174-.13-.242-.217-.031-.042-.098-.068-.068-.135.023-.053.08-.047.129-.05.324-.018.646.017.967.042.618.049 1.23.14 1.853.155.666.018 1.311-.1 1.952-.22a7.8 7.8 0 0 0 1.565-.48c.639-.268 1.263-.558 1.853-.921.21-.128.371-.312.562-.455.24-.18.515-.317.75-.51.321-.26.623-.546.887-.861.19-.226.384-.448.566-.681.194-.248.417-.474.611-.723.156-.2.2-.464.367-.65.257-.288.394-.637.547-.977.204-.453.366-.923.578-1.372.128-.273.156-.573.287-.842.153-.315.195-.663.254-1.002.026-.149.006-.305.005-.458 0-.043-.005-.093-.05-.109-.065-.02-.05.054-.079.078-.085.075-.007.211-.108.28-.006-.293-.047-.59-.007-.875.034-.245.112-.487.152-.734.001-.011.03-.018.045-.026.084.168.002.374.114.544.09-.058.077-.14.077-.218.002-.329.007-.659 0-.988-.004-.14.032-.263.073-.39.01-.03.014-.062.05-.067.046-.007.064.03.08.062a.7.7 0 0 1 .088.332c.002.824.016 1.648.002 2.472-.008.423-.135.836-.19 1.257-.072.569-.29 1.1-.428 1.65-.073.294-.246.562-.376.841-.038.08-.111.147-.093.247l-.199.459c-.041 0-.064.022-.082.06-.302.625-.72 1.176-1.124 1.737-.128.177-.232.368-.347.554-.204.332-.495.586-.79.827-.43.354-.863.711-1.334 1.015-.476.306-.993.54-1.488.815-.684.38-1.435.572-2.19.758-.913.225-1.84.219-2.769.213-.06 0-.121.005-.182.007h-.175q-.062-.139-.15-.014c-.19-.053-.387-.005-.577-.05l-.055-.004-.171-.009z"/><path fill="#E3E3E3" d="M26.254 17.068c.101-.067.023-.204.109-.279.027-.024.014-.098.078-.078.046.015.05.065.05.11 0 .152.02.308-.005.456-.059.34-.1.688-.254 1.002-.13.27-.159.57-.287.842-.211.449-.374.92-.577 1.373-.154.34-.29.69-.547.976-.167.186-.212.45-.367.65-.195.25-.418.476-.612.723-.182.233-.377.456-.565.681-.264.315-.566.601-.888.863-.235.191-.509.329-.75.509-.19.143-.352.327-.561.455-.591.363-1.215.652-1.854.921a7.8 7.8 0 0 1-1.564.48c-.641.12-1.286.237-1.952.22-.624-.016-1.236-.107-1.854-.155-.321-.025-.643-.061-.967-.042-.049.003-.106-.002-.13.05-.03.066.038.093.07.134.068.087.23.069.242.218-.247-.12-.528-.17-.732-.379-.132-.134-.131-.176.044-.242.103-.04.05-.123.068-.185.535.164 1.094.184 1.643.258.739.1 1.484.086 2.227.072.44-.008.871-.112 1.301-.213.69-.16 1.372-.34 2.018-.632.533-.24 1.026-.554 1.522-.865.479-.302.892-.686 1.354-1.006.228-.157.407-.376.587-.588.264-.311.543-.615.781-.946.446-.617.908-1.228 1.184-1.948a.45.45 0 0 0 .184-.361c.141-.345.297-.686.42-1.037.142-.413.263-.832.377-1.254.042-.154.12-.299.12-.464.047-.007.072-.028.05-.079l.022-.106q.051-.03.008-.071z"/><path fill="#A1A1A1" d="M25.25 20.14a.45.45 0 0 1-.183.362.86.86 0 0 1 .183-.361"/><path fill="#E3E3E3" d="M12.446 26.367c-.054-.003-.125.032-.14-.062.058-.004.102.023.14.062"/><path fill="#A1A1A1" d="M26.217 17.309c.023.05-.002.07-.048.078q-.016-.063.048-.079M26.248 17.13q.041.043-.008.072c-.04-.028-.034-.052.008-.071M5.795 20.646q-.021-.003-.015-.023.021.004.015.023"/><path fill="#E3E3E3" d="M15.012 27.607q.086-.125.15.014c-.056.047-.103.014-.15-.014M14.38 27.552l.055.004q-.03.036-.055-.004"/><path fill="#080808" d="M20.482 22.96a.14.14 0 0 1-.117.081c-.055-.009-.1-.007-.103.066-.342.23-.713.414-1.066.626-.256.153-.537.247-.814.332-.416.13-.828.286-1.27.332-.314.032-.621.125-.938.13-.384.007-.766.105-1.154.022-.1-.02-.207-.01-.31-.01a1.7 1.7 0 0 1-.712-.135c-.027-.012-.06-.008-.09-.009-.3-.01-.581-.092-.869-.176a9.4 9.4 0 0 1-1.761-.739c-.18-.095-.315-.262-.522-.307a.36.36 0 0 0-.215-.143c-.37-.292-.74-.584-1.067-.926-.075-.078-.119-.184-.216-.241-.308-.327-.606-.662-.847-1.043-.07-.11-.117-.236-.218-.325.01-.068-.035-.112-.067-.163a8 8 0 0 1-.897-2.139c.008-.111-.002-.217-.088-.3l-.012-.068q.048-.042-.01-.067c-.046-.11-.02-.226-.035-.338.01-.029.015-.056-.022-.07l-.02-.072.028-.077c.018-.217-.086-.42-.058-.64.023-.185-.012-.37-.05-.553a3.3 3.3 0 0 1-.001-.681c.1-.099.06-.207.023-.316-.006-.126-.014-.252.028-.376.106.01.078.093.078.155.002.317.018.636-.003.952-.023.346.017.68.064 1.022.063.462.22.9.286 1.359.038.262.226.463.274.726.072.385.31.707.444 1.07.108.295.238.572.469.793.095.092.202.172.262.3.178.376.528.614.786.928.175.213.425.377.627.581.051.052.104.104.164.145.487.333 1.01.6 1.534.869.531.27 1.087.451 1.662.578.2.045.42.012.614.072.418.129.848.151 1.274.16.49.009.975-.112 1.458-.2.268-.048.529-.14.796-.187.288-.052.566-.137.844-.226.612-.195 1.104-.637 1.715-.836.098-.032.117-.028.122.063z"/><path fill="#A1A1A1" d="M7.229 18.193c.2.755.49 1.472.897 2.139.032.051.077.095.067.163.003.115-.05.224-.15.245s-.18-.065-.244-.156c-.344-.502-.557-1.066-.77-1.628-.11-.293-.191-.597-.294-.893a1 1 0 0 1-.055-.34c0-.368-.14-.713-.15-1.08-.009-.267-.046-.533-.017-.8.096.026.056.107.067.167.005.028-.003.066.038.071.036.004.053-.026.063-.054a.7.7 0 0 0 .044-.232q-.005-.465 0-.93c0-.069-.021-.164.096-.154.119.01.078.1.069.167-.049.351-.017.704-.018 1.056 0 .019.023.04.036.06-.023.293.045.583.042.877-.063.051-.05.089.02.116l.05.216c-.053.042-.032.063.02.075l.021.072c-.01.011-.03.024-.029.036 0 .029.027.034.051.034.016.112-.01.23.034.338-.034.029-.023.05.011.067q.007.033.012.068a.56.56 0 0 0 .088.3M6.874 12.998c-.036.17-.056.343-.14.499a.6.6 0 0 1 .14-.499M24.469 12.657c-.128-.117-.104-.295-.176-.435.17.1.172.268.176.435M24.142 11.74c-.068-.071-.085-.162-.099-.255a.28.28 0 0 1 .099.255M22.045 8.54c-.092 0-.163-.026-.162-.137a.34.34 0 0 1 .162.137M21.868 8.388q-.062.013-.065-.05.055-.003.064.05M24.207 11.842q-.019-.003-.021-.022z"/><path fill="#1F1F1F" d="M20.482 22.96c-.005-.09-.024-.094-.122-.062-.611.198-1.103.64-1.715.836a7 7 0 0 1-.844.225c-.268.049-.528.14-.796.188-.483.087-.967.209-1.458.2-.426-.009-.856-.032-1.274-.16-.194-.06-.413-.027-.614-.072a7 7 0 0 1-1.662-.579c-.525-.267-1.048-.535-1.534-.869a1.2 1.2 0 0 1-.164-.144c-.202-.204-.452-.368-.627-.582-.257-.313-.609-.551-.786-.928-.06-.128-.167-.208-.262-.3-.23-.22-.362-.498-.47-.792-.133-.363-.372-.686-.443-1.07-.048-.262-.236-.464-.274-.726-.066-.459-.222-.897-.286-1.36-.047-.342-.087-.675-.064-1.021.022-.316.005-.635.003-.953 0-.061.027-.144-.078-.154-.077-.146-.006-.296.03-.422.062-.217.07-.44.125-.658.093-.367.156-.74.316-1.089.06-.13.086-.276.137-.41.018-.05.01-.131.099-.133.063.005.106-.027.13-.081.12-.267.365-.467.45-.74.139-.438.472-.74.71-1.106.24-.368.553-.69.834-1.032.029-.034.033-.063-.008-.09.075-.168.215-.265.352-.38.293-.247.63-.427.933-.657.192-.146.43-.229.632-.364.515-.343 1.106-.492 1.687-.657 1.006-.286 2.04-.335 3.079-.28.326.018.649.102.974.15.653.095 1.26.341 1.877.555a1 1 0 0 1 .338.206l-.14.067c.195.199.453.297.668.456.243.18.48.374.738.531.492.3.792.78 1.183 1.175.297.302.489.679.777.986.09.097.127.245.184.37.146.318.33.625.427.957.176.605.43 1.186.473 1.838.03.463.156.933.115 1.393-.055.61-.061 1.224-.152 1.833-.068.455-.213.885-.334 1.32a2.9 2.9 0 0 1-.377.82c-.103.153-.164.336-.243.507-.177.384-.44.707-.702 1.033-.17.212-.32.44-.476.663-.05.07-.072.14.06.135-.103.19-.258.341-.385.514-.17.234-.414.393-.622.589zm-.401-12.566-.039-.013c-.01-.06-.061-.093-.096-.136-.047-.072-.09-.15-.19-.16-.188-.267-.438-.45-.761-.506a4.3 4.3 0 0 0-1.575.012c-.687.134-1.386.169-2.07.31a7 7 0 0 1-.93.123c-.383.025-.76.102-1.14.146-.248.03-.5.044-.745.103-.11.026-.128.088-.043.164.095.084.192.167.296.24.165.113.246.258.21.462-.017.093-.023.19-.042.283-.096.465-.128.938-.184 1.408-.033.279-.053.56-.097.838-.045.283-.127.564-.117.852.014.425-.141.826-.165 1.246-.02.352-.113.7-.123 1.052-.01.38-.082.753-.127 1.128-.058.48-.099.965-.168 1.445-.05.347-.16.658-.36.94-.277.389-.594.744-.896 1.113-.05.062-.098.126-.026.204.27.31.334.35.65.204.54-.25 1.143-.294 1.685-.562.405-.2.877-.267 1.32-.383a39 39 0 0 0 1.626-.467c.293-.09.586-.191.886-.253.492-.102.991-.173 1.452-.39a2.6 2.6 0 0 0 .825-.578c.292-.315.479-.669.525-1.097.016-.15-.004-.306.085-.44.165.053.123-.095.136-.158.035-.178.04-.36.074-.538.08-.429.047-.855-.023-1.28l-.006-.767c0-.098-.002-.194-.077-.27.003-.107-.07-.112-.146-.105-.255.023-.467-.097-.682-.205.036-.076.107-.112.176-.151.315-.173.51-.456.691-.752.078-.126.088-.26.11-.399.028-.184-.002-.378.083-.553.145-.045.157-.17.17-.29.01-.109-.002-.22.011-.328a5 5 0 0 0-.017-1.294l-.04.15c-.047-.106-.013-.24-.113-.329q.013-.025-.014-.018z"/><path fill="#080808" d="M9.833 8.876c.041.027.037.056.009.09-.282.342-.594.664-.835 1.032-.238.366-.571.667-.71 1.106-.085.273-.33.473-.45.74-.023.054-.066.085-.13.081.094-.287.2-.569.39-.81a.38.38 0 0 0 .172-.361q-.01-.051.036-.072a.08.08 0 0 0 .062-.056q.004-.015.017-.019.049-.015.05-.067c.06-.206.227-.34.351-.5.319-.411.646-.817 1.038-1.163z"/><path fill="#1F1F1F" d="m7.02 17.204-.048-.216c.01-.042.03-.086-.021-.116.003-.293-.066-.583-.042-.878l.054.014c.038.183.073.368.05.554-.028.22.076.423.058.64q-.026 0-.05.002M8.28 10.753a.38.38 0 0 1-.172.361c.032-.133.097-.25.172-.36M24.192 13.79a.46.46 0 0 1-.091-.393c.079.12.091.255.091.392M6.984 15.012c.037.108.077.217-.023.315-.023-.107-.042-.214.023-.315M24.093 13.313c-.101-.058-.047-.146-.044-.224.09.06.055.144.044.223M20.499 7.925c-.09 0-.142-.049-.171-.129.095-.008.131.062.17.129M23.543 11.52c-.072-.018-.055-.077-.06-.127a.13.13 0 0 1 .06.127M8.445 10.538q-.001.052-.05.068-.022-.07.05-.068M8.38 10.624a.08.08 0 0 1-.064.056q-.002-.065.063-.056M22.617 9.933l-.008-.007.01-.003zM20.138 7.666a.06.06 0 0 1-.023-.024z"/><path fill="#E3E3E3" d="M10.541 23.03q.134.033.215.143c-.137.05-.185-.033-.215-.143"/><path fill="#1F1F1F" d="M20.262 23.107c.002-.073.048-.076.103-.066-.02.045-.049.075-.103.066"/><path fill="#A1A1A1" d="M24.253 16.937c0 .163.006.329-.145.443l.027-.183c.041-.026.043-.061.026-.102l.018-.117z"/><path fill="#1F1F1F" d="m24.253 16.937-.074.04c.006-.108-.045-.229.069-.314zM24.09 17.43c.006.058.033.119-.03.163-.032-.062-.053-.122.03-.163M24.162 17.096c.016.04.015.076-.026.102-.038-.046-.036-.081.026-.102M22.048 21.387c.006.024-.007.032-.029.034z"/><path fill="#666666" d="M7.229 18.193a.56.56 0 0 1-.088-.3c.086.083.096.19.088.3M7.083 17.42c-.025 0-.05-.005-.051-.034 0-.012.02-.025.03-.037.036.015.031.042.021.07M7.13 17.825c-.035-.017-.046-.038-.012-.067q.06.024.011.067M7.02 17.204l.05-.003-.029.078c-.052-.012-.073-.033-.02-.075M6.95 16.872c.051.03.03.074.02.116-.07-.027-.083-.065-.02-.116"/><path fill="#E3E3E3" d="M19.945 10.245c.036.042.085.075.097.136-.119-.006-.137.09-.152.169-.072.403-.143.807-.098 1.22l-.02.155c-.088.03-.07.08-.027.137-.018.208-.1.404-.108.616-.011.361-.11.696-.376.961l-.04-.026-.183-.05c.097-.204.227-.397.258-.624.07-.54.036-1.082.043-1.624a.32.32 0 0 0-.1-.246c-.031-.03-.06-.067-.11-.054-.055.015-.072.067-.075.114-.008.11-.006.22-.006.33 0 .063-.001.13-.075.149-.115.029-.186.113-.26.191-.07.077-.137.119-.227.023-.077-.081-.124-.032-.165.046-.083.159-.113.331-.157.502-.048.182.023.39-.123.548a1.1 1.1 0 0 1 0-.416c.058-.365.139-.728.123-1.101a.9.9 0 0 0-.09-.368c-.057-.11-.167-.14-.28-.131-.092.005-.059.09-.07.144-.371-.011-.733.072-1.1.103-.515.043-1.024.148-1.545.159-.278.006-.303.066-.316.363a1.3 1.3 0 0 1-.09.436c-.057-.098-.031-.204-.01-.3a.67.67 0 0 0-.005-.361c-.017-.051.022-.145-.075-.136-.073.006-.073.086-.078.146-.049.65-.2 1.287-.196 1.943 0 .115.033.271-.1.364-.03-.322.051-.64.04-.961-.006-.144-.077-.19-.18-.124-.204.128-.36.071-.524-.07-.122-.104-.193-.075-.222.081-.044.226-.063.456-.112.68-.043.197-.026.411-.158.584-.008-.036-.025-.072-.02-.106q.1-.731.205-1.462c.084-.589.206-1.176.063-1.773-.028-.115.037-.158.143-.152.43.02.852-.069 1.27-.134.744-.117 1.499-.142 2.24-.296.45-.093.914-.123 1.374-.162.422-.036.812.052 1.11.38.19.209.186.212.419.044.014-.01.034-.011.051-.017l.04-.029z"/><path fill="#F2F2F2" d="M19.906 10.273c-.017.006-.037.008-.052.018-.232.167-.228.164-.418-.044-.299-.328-.69-.417-1.11-.381-.46.04-.925.069-1.375.162-.74.154-1.495.18-2.24.296-.418.066-.84.155-1.27.134-.106-.005-.17.037-.143.152.143.597.021 1.185-.063 1.773q-.105.731-.205 1.462c-.004.034.014.07.02.106-.027.196-.046.394-.082.589-.077.408-.124.818-.152 1.232.014.156-.107.287-.083.445-.057.04-.032.09-.021.14l-.018.226c-.08.028-.07.066-.012.11l-.015.113c-.059.037-.04.09-.03.14-.082.113-.038.24-.042.362-.05.373-.124.745-.145 1.12-.03.522-.18 1.027-.2 1.55-.004.087.012.215-.093.28-.192.118-.286.318-.415.49-.06.079-.179.115-.177.239-.028.008-.036.029-.018.05.016.02.038.018.05-.009l.075.002q.022.034.039-.003.055-.02.109-.042c.043.072.202-.007.186.143-.031.04-.075.026-.114.027q-.018-.029-.031.002c-.397.145-.789.304-1.167.491-.073-.078-.025-.142.025-.204.3-.369.619-.724.895-1.114.2-.281.31-.591.36-.939.07-.48.11-.964.169-1.445.045-.374.116-.747.127-1.128.01-.351.103-.7.123-1.052.024-.42.179-.82.165-1.246-.01-.288.072-.57.117-.852.044-.278.064-.56.097-.838.056-.47.088-.943.184-1.408.019-.093.025-.19.042-.283.036-.204-.045-.349-.21-.463a3 3 0 0 1-.296-.239c-.085-.076-.067-.137.043-.164.245-.059.497-.074.745-.103.381-.044.758-.121 1.14-.146q.471-.03.93-.123c.684-.141 1.384-.176 2.07-.31a4.3 4.3 0 0 1 1.575-.012c.322.057.572.24.76.505l.15.19"/><path fill="#666666" d="M11.893 21.155c.04-.002.083.012.114-.028.036-.002.077.008.108-.006.395-.166.808-.27 1.219-.387.386-.11.77-.235 1.159-.34.513-.136 1.024-.29 1.54-.415q.418-.1.834-.207c.504-.13 1.025-.202 1.492-.451a1.66 1.66 0 0 0 .71-.746c.23-.458.27-.956.326-1.453.026-.054.082-.104.023-.17l.014-.16c.04-.088.015-.179.02-.268l.063-.79.014-.327c.035-.014.036-.041.026-.071.044-.248.053-.51.298-.668.076.076.077.172.077.27q0 .384.006.766c-.014.233-.062.464-.03.7l-.002.06-.075.708c-.047.005-.05.034-.038.07-.026.145-.066.29-.043.438-.09.135-.07.293-.085.442-.047.428-.234.782-.525 1.097a2.6 2.6 0 0 1-.825.578c-.46.217-.96.288-1.453.39-.3.062-.592.162-.885.253-.539.166-1.08.325-1.625.467-.444.117-.916.184-1.32.383-.543.268-1.146.312-1.687.562-.315.146-.379.106-.65-.204.38-.187.771-.346 1.168-.49l.016.003zM19.26 13.638c.267-.265.365-.6.377-.961.007-.212.09-.407.108-.615.054-.036.035-.087.026-.137l.02-.155c.172.01.125.144.141.244.008.045.015.109.076.107.063-.001.062-.064.063-.111.002-.127-.011-.256.007-.381.02-.136-.015-.287.09-.403.03.057.012.119.015.179.017.371-.083.73-.099 1.098-.085.175-.055.37-.084.553-.022.14-.032.274-.109.399-.181.297-.376.58-.69.752-.07.039-.14.075-.178.151-.173-.042-.359.036-.526-.06l.123-.118a.1.1 0 0 0 .03-.02c.047-.002.085-.016.1-.066l.25-.198.215-.216q.04 0 .046-.04z"/><path fill="#F2F2F2" d="M18.497 14.298c.167.095.354.017.526.06.216.107.427.227.682.204.077-.006.15-.001.147.105-.245.158-.254.42-.297.668-.029.016-.035.04-.027.071l-.014.327c-.057-.003-.077.095-.138.06-.065-.035-.028-.108-.038-.165-.018-.11.037-.228-.034-.333 0-.108-.014-.22.002-.327.026-.183-.051-.245-.22-.229-.153-.157-.37-.121-.553-.185-.06-.097-.146-.104-.246-.074-.043.013-.087.004-.106-.042-.021-.05.02-.076.05-.105.079-.08.172-.06.266-.035"/><path fill="#A1A1A1" d="M20.169 11.224c-.106.117-.07.268-.09.403-.02.125-.006.254-.008.381-.001.048 0 .11-.063.112-.061.001-.067-.062-.076-.108-.017-.1.03-.233-.14-.243-.045-.413.026-.818.098-1.221.015-.079.033-.174.152-.168l.039.012v.014l.013.004c.1.088.066.223.113.329q-.037.225-.013.45l-.005.036q-.01-.007-.021 0z"/><path fill="#080808" d="M20.195 11.19q-.025-.225.013-.45l.04-.151c.062.465.067.879.017 1.294-.014.108 0 .22-.012.329-.012.119-.024.245-.169.29.016-.368.116-.728.099-1.1-.003-.06.015-.121-.014-.179q.011-.006.021.001c.005-.003.012-.007.011-.01q-.002-.012-.007-.025zM19.906 16.404c-.032-.235.015-.467.03-.7.07.426.102.851.022 1.281-.032.178-.038.361-.073.538-.013.064.029.211-.136.157-.023-.15.017-.293.043-.438.037-.01.075-.02.038-.07l.075-.708q.03-.03.002-.06"/><path fill="#666666" d="m19.906 10.273-.15-.19c.1.012.144.089.19.162zM20.095 10.411l-.013-.004v-.013q.026-.007.014.017z"/><path fill="#A1A1A1" d="M18.533 14.555c.184.064.402.027.553.185-.063.134-.052.282-.075.424-.019.108-.066.164-.175.168-.154.004-.314-.03-.444.098-.034.033-.095.009-.137-.018a.6.6 0 0 0-.401-.076c-.089-.09-.158-.2-.271-.266l-.04-.023c-.086-.07-.19-.097-.294-.125-.048-.057-.114-.032-.17-.032-.389 0-.766.095-1.15.135-.455.048-.908.125-1.36.2-.232.04-.503.039-.554.362-.075-.003-.123.037-.166.094-.194.253-.346.265-.58.053-.181-.165-.28-.159-.417.026-.006.007-.023.008-.034.011.028-.414.076-.824.153-1.232.037-.194.055-.393.082-.589.132-.172.115-.387.158-.584.049-.223.069-.454.112-.68.03-.156.1-.184.222-.08.165.141.319.198.523.069.104-.065.175-.02.18.124.012.322-.068.64-.04.962-.01.144.012.292-.04.432-.072.162-.046.221.11.227.175.007.347-.013.515-.069.092-.06.197-.043.298-.046.118.03.23-.023.34-.044.215-.04.438.027.644-.07.09-.006.18-.008.271-.022.203-.029.4-.082.6-.113.17-.026.32-.083.476-.144.106.012.19-.014.223-.13.275-.223.352-.537.397-.867.146-.157.076-.366.123-.547.044-.171.074-.344.157-.502.041-.078.088-.127.164-.046.09.095.156.054.228-.023.075-.08.145-.163.26-.192.073-.018.075-.085.075-.149 0-.11-.002-.22.005-.33.004-.046.021-.099.077-.113.048-.013.078.025.108.053q.105.1.101.246c-.008.542.027 1.085-.043 1.624-.03.227-.161.42-.258.624l-.469.41c-.206.104-.358.277-.532.423-.08.068-.056.161.077.163q.21 0 .42-.004z"/><path fill="#F2F2F2" d="M17.42 13.914c-.155.06-.307.117-.476.143-.2.031-.398.085-.6.114-.091.014-.18.016-.271.022a1.8 1.8 0 0 0-.723 0c-.091.015-.209 0-.261.114-.102.002-.206-.014-.299.046-.122-.094-.263-.037-.394-.04-.104-.003-.185-.018-.23-.118.052-.141.03-.289.04-.433.134-.092.1-.248.1-.363-.004-.656.148-1.294.196-1.943.004-.06.005-.14.079-.146.096-.009.059.085.074.136a.7.7 0 0 1 .006.36c-.021.097-.047.203.01.301l-.03.251c-.047.03-.048.072-.034.118.02.422-.071.835-.107 1.251-.011.125.036.205.156.17.093-.028.191-.004.278-.05.203-.016.406-.044.609-.061.188-.016.385.002.568-.07.076.033.129-.048.205-.038.21.027.419-.016.627-.038.199-.02.383-.1.528-.25.08.015.09-.06.098-.1.034-.156.065-.314.076-.473.031-.436.063-.872.13-1.304.046-.131.022-.265.013-.4q.01-.076-.067-.067h-.001c.01-.056-.021-.139.07-.145.113-.008.223.021.28.131.06.113.084.238.09.368.016.374-.065.736-.123 1.102-.023.139-.03.276 0 .415-.045.33-.122.643-.397.867-.086.025-.169.054-.223.13z"/><path fill="#666666" d="M14.935 13.845c-.086.047-.184.023-.277.05-.121.037-.168-.044-.157-.169.036-.417.128-.829.107-1.25.044-.03.088-.06.035-.119l.03-.25c.057-.14.082-.289.089-.437.013-.297.038-.357.316-.363.52-.012 1.03-.117 1.546-.16.366-.03.728-.113 1.1-.102.004.04.018.07.067.068.01.133.034.268-.013.4-.032-.126-.13-.085-.21-.081-.745.044-1.482.148-2.22.255-.169.024-.244.104-.256.25-.036.438-.039.879-.117 1.313-.026.013-.033.031-.011.055l-.003.096c-.03.054-.022.11-.017.168l-.005.013c-.013.075-.131.145-.006.224q0 .02.003.04"/><path fill="#F2F2F2" d="m18.569 13.973.469-.41.182.05q-.026.031-.006.067l-.214.216-.251.198c-.055-.01-.102-.008-.1.066a.1.1 0 0 1-.03.02c-.196-.026-.045-.136-.051-.207"/><path fill="#A1A1A1" d="M19.77 11.925c.008.049.028.1-.026.137-.044-.056-.06-.107.027-.137M19.214 13.68q-.022-.036.006-.068l.04.026q-.006.04-.046.041"/><path fill="#666666" d="M17.853 15.336a.6.6 0 0 1 .401.075c.042.028.103.051.137.018.13-.127.29-.094.444-.098.109-.003.157-.06.175-.168.023-.142.013-.29.075-.424.17-.016.247.046.22.229-.015.107-.002.218-.001.327-.066.03-.043.092-.043.14a1.7 1.7 0 0 1-.05.422l-.01.006.006.01c-.082.397-.054.806-.12 1.208-.055.345-.05.7-.125 1.042-.065.299-.177.587-.432.786-.241.189-.522.3-.813.383-.59.169-1.19.306-1.785.458-.806.205-1.6.454-2.405.665-.405.106-.79.267-1.196.368-.175.042-.361.084-.511.201q-.054.022-.11.042l-.039.003-.074-.002c0-.023-.008-.038-.033-.04-.002-.125.117-.162.177-.24.128-.171.224-.372.415-.49.105-.065.09-.193.093-.28.02-.523.17-1.028.2-1.55.022-.375.095-.747.146-1.12.13-.093.037-.23.067-.344l.004-.157.015-.113.01.006.01-.004.012.005q-.005-.004-.011-.006l-.009-.111.018-.225c.084-.035.075-.085.02-.141-.023-.158.097-.29.083-.445.012-.004.028-.004.034-.012.137-.184.236-.19.417-.026.233.214.387.2.58-.052.043-.057.09-.098.165-.093.007.199 0 .397-.055.59-.065.048-.053.108-.024.17-.009.114-.046.225-.058.336-.036.345-.095.688-.099 1.037l-.01.07c-.044.01-.038.04-.03.074-.014.451-.064.9-.115 1.35-.014.126.04.14.145.11.153-.041.31-.07.464-.11.197-.053.407-.028.6-.106.054-.003.109.003.16-.008q.414-.087.828-.167c.392-.078.789-.137 1.178-.233.15-.04.297-.093.454-.107.07-.006.123-.052.122-.114 0-.177.062-.343.075-.517.036-.469.188-.923.162-1.402-.01-.201.046-.406.073-.609.088-.105.091-.39.005-.51z"/><path fill="#E3E3E3" d="M11.82 20.985c.15-.117.337-.158.511-.201.407-.1.792-.262 1.197-.368.804-.211 1.6-.46 2.405-.666.596-.151 1.195-.288 1.785-.457.29-.083.572-.194.813-.383.255-.2.367-.487.432-.786.075-.342.07-.697.126-1.042.065-.402.037-.81.119-1.208l.007-.006-.004-.009c.037-.138.049-.279.05-.422 0-.049-.022-.11.044-.14.071.105.016.223.034.333.01.056-.027.129.038.166.062.034.081-.064.138-.06q-.031.393-.064.79c-.056.085-.033.176-.019.267l-.014.161c-.051.05-.034.11-.023.17-.057.495-.097.995-.326 1.453a1.66 1.66 0 0 1-.71.745c-.467.25-.988.323-1.492.452q-.416.107-.834.207c-.517.126-1.027.278-1.54.415-.389.104-.772.23-1.16.34-.41.116-.823.22-1.218.387-.031.013-.072.004-.108.006.015-.15-.143-.07-.187-.143"/><path fill="#A1A1A1" d="M12.663 16.963c-.029.113.064.25-.067.344.004-.122-.04-.249.042-.361zM12.733 16.217c.054.056.063.105-.02.14-.012-.049-.036-.1.02-.14"/><path fill="#E3E3E3" d="m12.695 16.582.008.11v.003l-.01.003-.01-.006c-.058-.044-.067-.082.013-.11M11.565 20.986q.035.006.033.041c-.014.028-.036.029-.051.009-.017-.021-.009-.041.018-.05M12.663 16.963a.1.1 0 0 1-.025-.017c-.01-.051-.03-.104.03-.14zM11.893 21.155l-.016.005-.016-.004q.014-.03.032-.001M11.672 21.03q.02 0 .04-.003-.018.036-.04.003"/><path fill="#A1A1A1" d="M19.395 17.123c-.01-.06-.028-.12.023-.17.06.067.003.116-.023.17M19.432 16.793c-.014-.091-.037-.182.02-.269-.006.09.02.181-.02.268"/><path fill="#1F1F1F" d="M19.83 17.172c.036.05 0 .061-.04.07-.01-.037-.008-.065.04-.07"/><path fill="#E3E3E3" d="M19.529 15.407c-.008-.03-.002-.056.026-.071.01.03.009.057-.026.07"/><path fill="#1F1F1F" d="M19.906 16.404q.029.03-.002.06z"/><path fill="#E3E3E3" d="M18.569 13.973c.006.07-.145.181.05.207q-.06.06-.122.119c-.093-.026-.186-.046-.267.035-.03.029-.07.055-.05.104.02.046.064.057.107.043.1-.03.186-.023.245.074q-.21.005-.42.003c-.132-.001-.157-.095-.076-.162.172-.146.325-.32.532-.423M18.65 14.16c-.003-.075.044-.077.099-.067-.015.05-.053.064-.1.066"/><path fill="#1F1F1F" d="M20.195 11.19q.004.013.007.027c0 .002-.007.005-.01.009z"/><path fill="#F2F2F2" d="m13.767 17.792.01-.07c.11-.04.09-.139.102-.224.014-.103.034-.205.182-.147-.004.097.006.198-.014.292-.074.347-.07.703-.129 1.05-.01.058.028.123.12.1.06-.013.121-.01.182-.014.485-.094.957-.249 1.45-.299a.4.4 0 0 0 .196-.016c.152-.059.312-.077.474-.095q.367-.04.726-.111c.12-.025.189-.097.186-.246a3.3 3.3 0 0 1 .092-.785c.027-.124.075-.254.043-.39.05-.316.117-.632.144-.95.013-.158.078-.337-.051-.486-.062-.157-.196-.215-.343-.256.007-.092-.097-.087-.133-.144.07-.078.186.011.243-.08.104.03.209.055.294.127l.04.022c.113.065.183.175.271.266l.033.107c-.026.17-.017.34-.005.51-.026.203-.084.407-.073.608.026.48-.126.933-.162 1.403-.013.172-.076.339-.075.517 0 .06-.053.108-.122.113-.157.014-.304.067-.454.107-.014-.019-.03-.055-.04-.053-.227.033-.457.022-.683.083a9 9 0 0 1-.919.199c-.18.029-.387.01-.524.179-.192.078-.402.053-.6.105-.154.04-.31.07-.464.112-.105.028-.16.015-.145-.112.051-.448.101-.897.114-1.35.05-.007.082-.022.032-.073z"/><path fill="#E3E3E3" d="M14.06 17.35c-.147-.058-.166.044-.181.147-.012.085.007.183-.102.224.002-.349.063-.692.099-1.037.011-.111.049-.222.057-.336.085-.046.037-.111.025-.17.055-.194.062-.392.055-.59.051-.324.322-.322.554-.361.452-.077.905-.154 1.361-.201.384-.04.76-.135 1.148-.135.058 0 .124-.026.171.032-.057.09-.173 0-.243.08.036.056.14.051.133.142-.128.008-.257.005-.382.026-.757.128-1.514.24-2.281.274-.108.005-.178.031-.2.158-.057.32-.1.642-.108.97a3.2 3.2 0 0 1-.106.78zM15.089 14.306c.052-.114.17-.099.26-.114.24-.04.483-.056.724 0-.206.096-.43.03-.644.07-.11.02-.222.074-.34.044M14.166 14.195c.045.1.126.115.23.118.131.003.272-.054.394.04-.167.056-.34.075-.515.069-.155-.006-.18-.065-.109-.227M17.42 13.914c.054-.077.137-.106.222-.13-.032.116-.116.143-.223.13"/><path fill="#080808" d="M14.975 13.25c.078-.434.08-.875.116-1.313.012-.146.087-.226.256-.25.739-.107 1.476-.21 2.22-.255.08-.005.178-.045.21.08a16 16 0 0 0-.13 1.303c-.01.159-.042.317-.075.473-.009.04-.018.115-.098.1-.047-.025-.062-.068-.077-.117-.104-.351-.12-.74-.4-1.023q-.003-.008-.005-.018c-.107-.258-.265-.41-.582-.391-.214.012-.417.081-.63.083-.265.002-.384.167-.245.39.15.242.209.516.34.763.104.2.161.425.239.639-.183.073-.38.054-.568.07-.204.018-.405.045-.61.06l-.002-.04.006-.223.005-.014c.046-.052.035-.109.017-.167l.003-.097.011-.055z"/><path fill="#1F1F1F" d="M16.112 13.715c-.078-.214-.134-.438-.24-.639-.13-.247-.188-.522-.339-.763-.139-.223-.02-.388.246-.39.213-.002.415-.07.63-.083.317-.019.473.133.581.391q.003.01.005.018c.28.284.296.671.4 1.023.015.05.03.092.077.118a.84.84 0 0 1-.529.25c-.208.021-.416.065-.626.037-.077-.01-.13.07-.206.038z"/><path fill="#E3E3E3" d="M14.642 12.358c.053.057.01.087-.034.118-.015-.047-.013-.09.034-.119M17.79 11.113c-.048.003-.063-.027-.067-.068q.078-.011.067.068"/><path fill="#1F1F1F" d="m14.939 13.581-.007.224c-.125-.079-.007-.149.007-.224M14.961 13.401c.018.058.029.116-.017.168-.005-.057-.012-.114.017-.168M14.975 13.25q-.007.027-.012.055c-.022-.024-.015-.042.012-.055"/><path fill="#E3E3E3" d="M14.83 19.109c.136-.17.343-.151.524-.18q.466-.073.918-.198c.227-.062.457-.05.684-.083.01-.002.026.034.04.053-.39.096-.786.155-1.179.233q-.414.08-.826.167c-.052.011-.108.006-.161.008"/><path fill="#A1A1A1" d="M17.882 15.952c-.012-.17-.022-.34.005-.51.086.12.083.405-.005.51M13.958 16.178c.011.06.06.124-.025.17-.028-.061-.04-.122.025-.17"/><path fill="#E3E3E3" d="M13.767 17.792c.05.051.018.066-.031.074-.008-.033-.014-.065.031-.074"/><path fill="#A1A1A1" d="m19.211 15.858.004.01-.007.005-.005-.009zM12.704 16.694l.011.006-.012-.005v-.001"/><path fill="#1F1F1F" d="M17.388 16.837c.033.134-.016.265-.043.39-.06.26-.098.52-.092.784.003.15-.067.222-.186.246q-.36.072-.726.111a1.9 1.9 0 0 0-.474.095.4.4 0 0 1-.195.017c.119-.139.156-.27-.032-.383-.018-.011-.03-.039-.036-.061a2.2 2.2 0 0 0-.382-.81.45.45 0 0 1-.08-.43c.021-.078.03-.158-.012-.23-.05-.091-.039-.19-.048-.285-.014-.163.061-.222.213-.216.295.013.574-.094.862-.124.466-.05.633-.123.731.404.01.049.026.112.078.112.244-.001.26.178.281.346.02.154.074.108.141.033"/><path fill="#080808" d="M17.388 16.837c-.067.074-.12.121-.14-.033-.022-.169-.038-.348-.282-.346-.052 0-.069-.063-.078-.112-.098-.527-.265-.453-.731-.404-.288.03-.567.137-.862.124-.152-.006-.228.053-.213.216.008.096-.003.194.048.284.041.073.033.153.011.232a.45.45 0 0 0 .08.428c.19.24.305.517.383.81.006.023.018.05.036.062.188.114.15.244.032.383-.495.048-.967.204-1.452.298-.012-.123.096-.205.105-.333.01-.136.016-.277.034-.415.051-.406.119-.812.137-1.22.013-.29.105-.56.118-.844.004-.07.053-.11.12-.12.447-.069.889-.181 1.345-.183.042.05.058.024.07-.022.44-.098.905-.064 1.331-.241.13.15.065.328.051.486-.026.32-.093.634-.143.95"/><path fill="#666666" d="M16.079 15.663c-.457.002-.898.114-1.345.183-.066.01-.116.052-.12.12-.013.284-.105.556-.118.843-.017.408-.085.814-.137 1.222-.018.138-.024.278-.034.414-.009.128-.116.21-.105.333-.06.004-.123 0-.181.015-.093.023-.13-.044-.12-.1.059-.349.054-.705.128-1.051.02-.094.01-.194.014-.292.07-.255.1-.517.106-.78.008-.327.051-.648.107-.97.022-.126.092-.152.2-.157.768-.034 1.526-.146 2.282-.275.125-.02.254-.018.382-.025.147.041.282.099.342.256-.426.176-.891.144-1.332.242-.03-.015-.056-.015-.07.022"/><path fill="#1F1F1F" d="M16.079 15.663c.013-.037.04-.037.07-.022-.012.046-.028.072-.07.022"/></g><defs><clipPath id="a"><path fill="#FFFFFF" d="M0 0h32v32H0z"/></clipPath></defs></svg>