<svg xmlns="http://www.w3.org/2000/svg" width="64" height="64" fill="#000000"><circle cx="32" cy="32" r="32" fill="#1c1c1c"/><path fill="#595959" d="M28.138 45.603H15.923c-.957 0-1.306-.453-1.056-1.389 1.64-6.124 3.287-12.246 4.924-18.37.223-.838.689-1.494 1.405-1.962 2.94-1.923 5.888-3.837 8.835-5.752a4.095 4.095 0 0 1 2.267-.656c.903-.002 1.805-.004 2.707 0 .629.004.83.274.67.887-.11.423-.22.846-.333 1.268-.058.22-.162.408-.382.505-.362.161-.63-.01-.599-.401.02-.235.013-.44-.218-.566-.236-.127-.452-.04-.653.088a.871.871 0 0 0-.375.521c-.09.335-.184.67-.266 1.007-.094.389.084.626.49.632.683.009 1.366.007 2.048 0 .47-.003.765-.236.892-.701.213-.782.417-1.566.627-2.349.164-.613.509-.89 1.136-.89 3.285-.003 6.571-.004 9.857 0 .894 0 1.265.492 1.032 1.36-2.264 8.459-4.53 16.92-6.796 25.378-.253.944-.845 1.39-1.822 1.39H28.138Zm1.877-2.773c2.358 0 4.716-.008 7.074.006.38.003.655-.116.917-.386a141.94 141.94 0 0 1 2.458-2.461c.192-.188.316-.395.383-.652.21-.823.424-1.644.657-2.46.088-.307.059-.543-.193-.76-.235-.2-.441-.432-.66-.651-.441-.443-.44-.55.015-1.006.592-.593 1.183-1.186 1.778-1.776.14-.138.261-.282.313-.477.137-.522.269-1.046.416-1.565.071-.25.03-.44-.17-.621-.313-.287-.602-.6-.906-.898-.338-.334-.76-.258-.953.185-.082.186-.138.389-.172.59-.076.453-.3.8-.638 1.11-.474.434-.916.905-1.371 1.36-.694.695-.746.688-1.43-.015-.257-.264-.225-.497.007-.736.306-.314.592-.655.934-.924.982-.771 1.529-1.772 1.697-2.996a.155.155 0 0 1 .01-.037c.102-.246.034-.432-.157-.619a148.957 148.957 0 0 1-2.242-2.24.737.737 0 0 0-.577-.243c-1.095.01-2.19.001-3.286.004-.507.002-.678.133-.815.639-.519 1.924-1.034 3.848-1.548 5.773-.147.55-.048.684.512.685.696.003 1.392.001 2.089.002.173 0 .346.018.416.21.062.17.014.33-.109.464-.078.086-.161.166-.243.248l-6.014 6.014c-.155.155-.318.303-.462.467-.137.158-.244.334-.15.563.099.236.304.202.494.202 2.05 0 4.098-.003 6.147.004a.885.885 0 0 0 .685-.28c.868-.88 1.744-1.754 2.622-2.625.152-.151.246-.318.3-.527.157-.623.325-1.244.502-1.862.118-.416.406-.625.714-.545.34.09.65.588.561.922-.226.857-.465 1.712-.686 2.571a1.23 1.23 0 0 1-.34.59c-.824.816-1.652 1.63-2.457 2.463-.273.284-.563.394-.955.393-4.304-.01-8.608-.007-12.912-.006-.128 0-.26-.008-.385.013a.633.633 0 0 0-.53.448c-.08.237.042.392.197.542.195.188.396.37.571.576.21.246.453.33.778.328 2.371-.01 4.742-.005 7.114-.005ZM27.89 24.562c-1.224 0-2.448-.002-3.672 0-.53.001-.708.141-.847.654l-.743 2.755c-.156.583-.058.705.56.705h.348c.51.006.618.146.486.643-.473 1.776-.95 3.552-1.423 5.328-.266.997-.253 1.102-1.374 1.07-.504-.014-.707.146-.836.619-.26.955-.516 1.911-.769 2.868-.123.467-.004.624.474.625 1.92.002 3.84-.005 5.76.005.413.002.655-.175.759-.562.533-1.987 1.068-3.973 1.596-5.96.114-.433-.023-.598-.477-.601-.722-.005-1.443-.003-2.165 0-.164 0-.317-.02-.394-.181-.079-.167-.032-.33.078-.47.072-.09.158-.169.24-.25l6.313-6.315c.192-.19.418-.378.308-.692-.119-.333-.422-.236-.665-.238-1.186-.007-2.371-.003-3.557-.003Z"/><path fill="#fafafa" d="M30.014 42.829c-2.371 0-4.742-.005-7.113.007-.325.002-.57-.082-.778-.328-.175-.206-.377-.388-.57-.576-.156-.15-.278-.305-.197-.542a.632.632 0 0 1 .529-.449c.126-.02.257-.012.385-.012 4.304 0 8.608-.005 12.912.006.392.001.681-.11.955-.393.805-.834 1.633-1.647 2.456-2.464.17-.168.28-.354.341-.59.22-.859.46-1.713.686-2.57.089-.335-.22-.833-.561-.922-.308-.08-.596.128-.714.545a69.58 69.58 0 0 0-.502 1.862 1.091 1.091 0 0 1-.3.526c-.878.872-1.754 1.745-2.622 2.626a.882.882 0 0 1-.685.28c-2.05-.008-4.098-.004-6.147-.005-.19 0-.395.035-.493-.201-.095-.228.012-.404.149-.563.143-.165.306-.312.462-.467l6.014-6.014c.082-.082.165-.163.243-.248.123-.134.17-.294.109-.465-.07-.19-.243-.208-.417-.21-.696 0-1.391.002-2.087 0-.56-.002-.66-.135-.513-.686.514-1.925 1.03-3.85 1.548-5.773.136-.506.308-.637.815-.639 1.095-.003 2.19.004 3.286-.004a.736.736 0 0 1 .577.242c.74.755 1.486 1.503 2.242 2.24.191.187.26.374.157.62a.154.154 0 0 0-.01.037c-.169 1.224-.715 2.225-1.697 2.996-.342.268-.628.61-.934.924-.232.238-.264.47-.008.735.686.704.738.71 1.43.017.456-.456.898-.927 1.372-1.362.338-.31.562-.657.638-1.11a2.56 2.56 0 0 1 .172-.59c.192-.442.615-.519.953-.184.303.298.592.61.906.898.198.182.24.371.17.621-.148.52-.28 1.043-.416 1.565-.051.195-.174.339-.313.477-.595.59-1.186 1.183-1.778 1.776-.455.455-.456.563-.014 1.005.218.22.424.452.659.653.253.216.28.452.193.758a95.904 95.904 0 0 0-.657 2.46 1.357 1.357 0 0 1-.383.653c-.827.813-1.651 1.629-2.458 2.461-.262.27-.536.389-.917.386-2.359-.016-4.717-.009-7.075-.009Z"/><path fill="#fafafa" d="M27.892 24.562c1.185 0 2.37-.004 3.556.003.243.001.546-.096.665.237.111.314-.116.5-.308.693l-6.313 6.314c-.082.082-.168.16-.24.251-.11.14-.157.302-.078.47.077.16.23.18.394.18.722-.003 1.443-.005 2.165 0 .454.003.591.168.477.6-.528 1.989-1.063 3.974-1.596 5.961-.104.388-.347.565-.76.562-1.92-.01-3.84-.003-5.76-.005-.477 0-.596-.158-.473-.624.253-.957.51-1.913.77-2.869.128-.472.331-.633.835-.619 1.12.032 1.108-.072 1.374-1.07.475-1.776.95-3.552 1.423-5.328.132-.497.025-.637-.486-.642-.117-.002-.233 0-.349 0-.617-.001-.715-.123-.559-.706l.743-2.755c.139-.512.315-.652.847-.653 1.225-.002 2.449 0 3.673 0Z"/></svg>