<svg xmlns="http://www.w3.org/2000/svg" width="200" height="200" fill="#000000"><path fill-opacity=".235" fill-rule="evenodd" d="M124.25 57.674c-1.237.864-2.25 2.368-2.25 3.343 0 1.493-.512 1.649-3.25.993-1.787-.429-4.037-1.105-5-1.502s-2.537-.38-3.5.038-3.999 1.559-6.748 2.537c-4.635 1.648-5.13 1.659-6.809.139-2.532-2.291-5.144-.455-5.361 3.767-.234 4.545-2.075 5.983-8.921 6.967-3.251.468-7.148 1.168-8.661 1.556-1.75.448-2.795.302-2.875-.404A20 20 0 0 0 70.5 73c-.138-.55-.306-2.366-.375-4.036L70 65.928l-7.133.18c-5.484.138-7.49.597-8.678 1.984-1.317 1.539-1.702 1.593-2.617.372-1.135-1.518-5.572-.97-5.572.688 0 .555-.693.552-1.75-.008-.962-.51-3.531-.633-5.707-.275-4.451.732-5.272 2.28-5.443 10.267-.09 4.192-.411 4.79-3.35 6.246C23.774 88.344 20 92.913 20 97.189c0 1.219-1.365 3.624-3.033 5.345-2.172 2.241-3.193 4.443-3.6 7.762-.526 4.297-.326 4.854 2.756 7.669 3.64 3.325 7.371 3.885 10.436 1.567 1.067-.808 4.009-1.483 6.536-1.5 2.527-.018 7.252-.921 10.5-2.007s7.705-1.99 9.905-2.008 6.869-.498 10.375-1.066 6.511-.899 6.677-.732c.166.166-.331 3.898-1.105 8.292-1.768 10.032-1.792 9.489.434 9.489 1.035 0 3.078-1.569 4.541-3.487 1.463-1.917 3.625-4.003 4.805-4.635 1.845-.987 2.441-.778 4.247 1.487 2.843 3.566 4.411 3.315 8.526-1.365 2.637-2.999 4.253-3.983 6.554-3.99 1.682-.006 5.245-1.399 7.929-3.102l4.875-3.091 15.202.601c8.362.331 18.625 1.035 22.808 1.565 4.183.531 8.292.701 9.131.379s2.083-.127 2.764.434c1.801 1.485 19.397 4.327 22.291 3.601 2.727-.684 3.591-3.045 3.071-8.397a152 152 0 0 1-.483-7.066c-.112-2.816-1.127-4.551-4.826-8.25-2.697-2.696-5.604-4.684-6.851-4.684-1.192 0-6.779-1.141-12.416-2.536-5.636-1.394-11.13-2.256-12.207-1.914-1.078.342-3.396-.052-5.151-.875s-5.695-1.804-8.755-2.178l-5.564-.681.26-4.412c.143-2.427.96-5.41 1.814-6.631 1.005-1.434 1.554-4.437 1.554-8.496V56l-3.75.052c-2.062.029-4.763.759-6 1.622M42.66 85.75C39.89 90.289 34.223 102 34.796 102c.41 0 2.505-3.487 4.656-7.75l4.288-8.5c.208-.412.153-.75-.122-.75s-.706.338-.958.75m4.799.317c-.363.586-.445 1.281-.183 1.543s.743-.218 1.069-1.067c.676-1.762.1-2.072-.886-.476m77.194 1.178c-.961 3.83-1.979 14.299-1.333 13.713.799-.725 2.986-14.985 2.389-15.582-.258-.258-.733.583-1.056 1.869m-73.566 1.593c-.687 1.283-1.052 2.531-.811 2.772.786.785 2.925-2.506 2.486-3.824-.27-.81-.885-.424-1.675 1.052m12.258 2.705c-.326.849-.369 1.767-.096 2.04.274.273.737-.422 1.03-1.543.624-2.383-.069-2.751-.934-.497m94.734.04c.048 1.165.285 1.402.604.605.289-.722.253-1.585-.079-1.917s-.568.258-.525 1.312M144.5 93c-.34.55-.141 1 .441 1S146 93.55 146 93s-.198-1-.441-1-.719.45-1.059 1M43.459 94.067c-.363.586-.445 1.281-.183 1.543s.743-.218 1.069-1.067c.676-1.762.1-2.072-.886-.476M67 95c0 .55.45 1 1 1s1-.45 1-1-.45-1-1-1-1 .45-1 1m71.5 2c-.34.55-.141 1 .441 1S140 97.55 140 97s-.198-1-.441-1-.719.45-1.059 1m20.138 1.5c-.316.825-.139 1.5.393 1.5.533 0 .969-.675.969-1.5s-.177-1.5-.393-1.5-.652.675-.969 1.5M174 97.393c0 .216.698.661 1.552.989.89.341 1.291.173.941-.393-.587-.951-2.493-1.406-2.493-.596m-134.75 4.269c-1.43.577-1.699 2.338-.357 2.338.491 0 1.152-.675 1.469-1.5.316-.825.477-1.464.357-1.421-.121.043-.781.306-1.469.583m-10.791 1.405c-.363.586-.445 1.281-.183 1.543s.743-.218 1.069-1.067c.676-1.762.1-2.072-.886-.476"/><path fill-opacity=".328" fill-rule="evenodd" d="M125.337 57.477c-1.16.812-2.383 2.569-2.718 3.903l-.609 2.428-4.755-1.713c-4.644-1.673-4.905-1.659-11.183.607-3.535 1.277-6.652 2.545-6.926 2.818s-1.476-.421-2.672-1.544c-1.983-1.864-2.291-1.901-3.513-.429-1.045 1.259-1.092 2.266-.218 4.584 1.038 2.75.924 3.045-1.537 3.981C87.604 73.481 75.444 76 72.435 76c-2.482 0-2.577-.218-2.82-6.477-.13-3.359-1.811-4.084-7.15-3.082-2.385.447-3.457 1.257-3.764 2.842l-.429 2.217-.136-2.25c-.172-2.851-2.936-2.964-3.973-.162-.694 1.877-.905 1.928-2.09.5-1.494-1.801-4.634-2.108-5.598-.547-.354.572-1.524.761-2.601.419s-3.739-.321-5.916.047L34 70.176V82h3.05c1.677 0 4.377-.687 6-1.526 1.691-.874 2.95-1.088 2.95-.5 0 1.48 1.622 1.261 3.331-.448 1.231-1.231 1.562-1.247 2.003-.098.767 1.998-.204 2.572-4.351 2.572-2.027 0-4.989.415-6.584.923-1.594.507-4.539 1.194-6.544 1.525-7.336 1.213-15.19 10.19-12.808 14.639.772 1.444.693 1.913-.325 1.913-.741 0-2.57 1.276-4.063 2.834-3.465 3.617-3.387 8.499.198 12.416 2.713 2.964 5.387 3.404 9.828 1.617 1.548-.623 4.323-1.056 6.167-.962s3.868-.244 4.5-.751c1.51-1.214 10.103-3.283 15.148-3.647 2.2-.159 6.7-.786 10-1.392 8.359-1.537 11.5-1.432 11.5.385 0 .825-.585 1.5-1.3 1.5-.788 0-1.8 2.422-2.57 6.148-1.044 5.055-1.035 6.298.05 6.995.883.567 1.995.022 3.358-1.647 1.12-1.373 2.535-2.496 3.143-2.496s1.342-.619 1.633-1.375 1.895-1.575 3.566-1.821c2.671-.392 3.115-.104 3.659 2.375.78 3.551 1.407 3.531 4.939-.156 1.635-1.707 5.022-3.614 7.937-4.469 2.797-.821 6.818-2.678 8.936-4.128l3.851-2.635 16.868.651c9.323.36 19.379 1.305 22.481 2.113 3.087.804 5.99 1.229 6.452.943 1.233-.762 14.983 1.552 18.648 3.138 4.041 1.749 5.4 1.717 8.126-.192 2.058-1.442 2.186-2.142 1.739-9.554-.318-5.281-.997-8.514-1.999-9.516-.834-.834-1.517-1.935-1.517-2.445 0-.511-.527-.929-1.171-.929s-1.914-.672-2.82-1.492c-.907-.821-5.443-2.23-10.079-3.131s-9.33-2.007-10.43-2.459-4.25-1.032-7-1.29-7.25-.957-10-1.553-6.723-1.371-8.829-1.722c-2.637-.439-3.415-.905-2.5-1.495 1.085-.7 1.053-1.039-.171-1.843q-1.504-.985-.25-1c.741-.009 1.25-1.34 1.25-3.268 0-1.789.9-6.401 2-10.247s2-7.333 2-7.747c0-1.34-6.491-.798-8.663.724M38 73c0 .55.45 1 1 1s1-.45 1-1-.45-1-1-1-1 .45-1 1m6.543.931c-.317.512-.118 1.213.441 1.559S46 75.416 46 74.559c0-1.757-.6-2.015-1.457-.628M63 75c0 .55.423 1 .941 1s1.219-.45 1.559-1-.084-1-.941-1S63 74.45 63 75m-3.25 4.662c.688.278 1.813.278 2.5 0 .688-.277.125-.504-1.25-.504s-1.937.227-1.25.504m-5.75.721c0 .211.9.619 2 .907 1.1.287 2 .115 2-.384 0-.498-.9-.906-2-.906s-2 .173-2 .383m8 1.685c-2.475.36-5.009.464-5.631.232s-4.896.342-9.5 1.277c-4.603.935-10.046 1.909-12.095 2.164-2.492.311-5.224 1.784-8.25 4.447-4.845 4.265-5.455 6.125-2.926 8.92 2.112 2.334.853 4.222-2.29 3.433-1.942-.487-2.589-.182-3.008 1.419-.293 1.122-.931 2.04-1.417 2.04-.485 0-.883.9-.883 2 0 2.76 4.859 2.686 8.438-.13 2.272-1.787 3.064-1.94 4.918-.947 1.758.941 2.793.881 5.052-.291 1.562-.81 3.419-1.252 4.126-.981 2.081.799 7.183-2.388 7.808-4.876.573-2.284 6.658-6.773 6.658-4.913 0 .537-.779 2.333-1.731 3.992-1.99 3.468-1.342 4.791 1.58 3.227 1.111-.595 4.079-1.081 6.595-1.081 3.338 0 5.039-.541 6.288-2C67.801 97.584 69 97.44 69 99.607c0 1.055.544 1.398 1.582 1 .87-.334 2.054-.607 2.631-.607.646 0 .846-1.524.519-3.962-.437-3.258-.095-4.433 1.924-6.612 1.603-1.73 2.349-3.565 2.15-5.288-.289-2.488-.619-2.64-5.806-2.681-3.025-.024-7.525.251-10 .611m52.328 9.33c.166 9.282 1.291 11.909 2.795 6.528l.678-2.426.099 2.656c.091 2.409.542 2.706 4.85 3.187 9.521 1.064 16.25.702 16.25-.875 0-1.916 1.623-1.894 2.362.032.333.868 1.828 1.5 3.548 1.5 1.634 0 3.25.45 3.59 1 .94 1.521 5.778 1.194 8.28-.558 2.098-1.47 2.279-1.418 3.163.908.809 2.128 1.735 2.541 6.747 3.008 3.196.298 7.679.832 9.962 1.187 3.678.573 4.232.397 4.845-1.534.494-1.559.031-2.885-1.626-4.649-1.735-1.846-2.002-2.663-1.061-3.245 3.14-1.94-2.167-6.117-7.774-6.117-1.578 0-3.019-.429-3.203-.954s-2.363-1.126-4.844-1.337-5.489-.906-6.685-1.546c-2.806-1.502-6.58-1.487-8.1.033-.929.929-1.477.813-2.45-.516-1.305-1.781-7.97-3.186-19.754-4.162-3.575-.296-7.702-.805-9.172-1.13l-2.672-.591zm4.83-4.398c0 1.375.227 1.938.504 1.25.278-.687.278-1.812 0-2.5-.277-.687-.504-.125-.504 1.25M62 88.035c0 1.725.305 1.872 2 .965 1.1-.589 2-1.505 2-2.035S65.1 86 64 86c-1.345 0-2 .667-2 2.035M131 89c0 .55.675 1 1.5 1s1.5-.45 1.5-1-.675-1-1.5-1-1.5.45-1.5 1m-49.3 3.341c-.283.737-.141 1.946.316 2.685.689 1.115 1.104 1.12 2.42.027 1.212-1.006 1.319-1.643.454-2.686-1.436-1.73-2.533-1.739-3.19-.026m12.988-.695c-1.472 1.471-.698 4.503 1.062 4.164.963-.186 1.75-1.194 1.75-2.24 0-1.99-1.631-3.106-2.812-1.924m11.648.921c-.834 2.172 1.282 4.215 2.797 2.7 1.28-1.28.487-4.267-1.133-4.267-.585 0-1.333.705-1.664 1.567M30.3 94.401c.547 1.641 2.421 1.769 3.02.208.389-1.014-.046-1.43-1.389-1.329-1.075.081-1.809.586-1.631 1.121m120.738.053c-1.642 1.979-.54 4.789 1.709 4.356 1.091-.21 1.753-1.245 1.753-2.74 0-2.898-1.728-3.705-3.462-1.616M59 95.5c0 .825.675 1.5 1.5 1.5s1.5-.675 1.5-1.5-.675-1.5-1.5-1.5-1.5.675-1.5 1.5m71.688-.854c-1.305 1.304-.682 2.354 1.395 2.354 1.164 0 1.909-.524 1.688-1.187-.487-1.462-2.157-2.094-3.083-1.167M165.5 95c.34.55.816 1 1.059 1s.441-.45.441-1-.477-1-1.059-1-.781.45-.441 1m2.25 4.749c-.963.219-1.75.815-1.75 1.324 0 1.208 3.71 1.205 4.457-.004.749-1.211-.501-1.821-2.707-1.32"/><path fill-opacity=".687" fill-rule="evenodd" d="M125.306 57.644c-.656.267-1.7 2.021-2.32 3.898-1.056 3.199-1.262 3.326-3.306 2.033-5.089-3.219-9.19-2.865-17.916 1.547C99.52 66.257 97 66.249 97 65.107c0-1.362-3.211-2.296-4.267-1.24-1.677 1.677.219 4.991 3.065 5.355 2.611.334 2.567.406-1.298 2.155-3.423 1.549-19.997 5.586-23 5.602-1.611.009-3.66-5.219-2.5-6.379 2.328-2.328 1.037-3.718-3.165-3.407-3.564.263-4.394.773-5.75 3.534-2.025 4.124-3.079 4.132-3.107.023l-.022-3.25-1.991 2.5c-1.828 2.297-2.074 2.358-3.027.75-1.486-2.507-3.246-2.148-4.688.957-2.468 5.314-.552 10.794 2.374 6.792 1.125-1.538 1.407-1.582 1.9-.296.462 1.204 1.431 1.345 4.778.697C63.473 77.512 68 77.785 68 79.607c0 1.138.51 1.397 1.75.887 4.012-1.652 5.172-1.572 7.244.5 2.583 2.583 2.068 6.589-1.169 9.097-1.708 1.323-1.941 2.26-1.383 5.564.611 3.619.437 4.079-1.961 5.171-2.983 1.36-4.45.832-4.549-1.635-.051-1.284-.329-1.149-1.152.559-.597 1.237-1.917 2.306-2.933 2.375-5.215.353-7.637.664-10.597 1.36-2.781.655-3.252.494-3.265-1.11-.013-1.577-.17-1.636-.985-.375-.533.825-.976 1.007-.985.405-.008-.602.888-1.912 1.991-2.911 2.267-2.051 2.097-2.854-.4-1.896-.924.354-2.305 2.138-3.067 3.964-1.129 2.701-2.099 3.441-5.213 3.973-2.104.36-5.308 1.16-7.12 1.777-2.352.801-3.78.816-4.99.052-1.287-.812-2.3-.638-4.206.722-3.953 2.82-9.603 2.91-10.321.164-.4-1.531-.472-1.542-.573-.089-.13 1.866 5.28 6.839 7.44 6.839.772 0 3.212-.723 5.422-1.608 2.21-.884 4.707-1.343 5.55-1.02.842.324 3.206-.042 5.252-.812 2.046-.771 5.395-1.68 7.443-2.021s4.106-1.305 4.575-2.142c.751-1.342.998-1.347 2.079-.045.944 1.138 1.964 1.263 4.425.544 3.067-.897 11.409-2.044 14.832-2.04 2.058.003 7.102 4.953 6.326 6.209-.318.514-1.655.935-2.972.935-1.915 0-2.603.751-3.435 3.75-.573 2.063-1.044 4.85-1.047 6.194-.006 2.419.017 2.413 2.244-.581 3.158-4.247 7.79-8.363 9.411-8.363.752 0 2.19 1.35 3.193 3.001l1.826 3.001 4.081-4.001C93.006 113.8 95.634 112 96.6 112c2.829 0 8.713-2.341 11.159-4.439 1.966-1.686 3.592-1.906 12.501-1.69 19.814.482 28.885 1.136 30.936 2.234 1.154.617 3.755.839 5.877.499 2.158-.345 4.075-.174 4.426.394.34.551 2.407 1.002 4.592 1.002s5.589.675 7.563 1.5c7.652 3.197 13.23 1.211 11.919-4.244-.364-1.516-.788-3.889-.943-5.275-.155-1.385-1.086-3.748-2.07-5.25-1.988-3.034-3.112-3.611-2.15-1.104.344.894.161 2.185-.405 2.867-.728.877-.586 1.609.483 2.496 1.812 1.504 1.979 5.143.312 6.81-1.602 1.602-5.719 1.461-8.8-.3-1.375-.786-4.863-1.445-7.75-1.465-4.557-.03-5.25-.297-5.25-2.019 0-1.915-.119-1.927-3.474-.327-2.817 1.343-3.959 1.435-6.047.484-1.415-.645-3.65-1.173-4.967-1.173s-2.677-.457-3.022-1.016a1.19 1.19 0 0 0-1.627-.4c-.549.34-5.58.509-11.18.377-5.601-.132-11.376-.199-12.834-.148-2.623.09-2.646.031-2.161-5.611.27-3.136.048-7.614-.492-9.952l-.983-4.25h5.447c8.963 0 15.075-6.32 10.742-11.108-1.701-1.88-1.158-3.892 1.05-3.892 1.511 0 2.372-1.827 3.141-6.664.513-3.228.423-3.333-2.781-3.257-1.822.043-3.849.297-4.506.565M63 70.5c0 .825.675 1.5 1.5 1.5s1.5-.675 1.5-1.5-.675-1.5-1.5-1.5-1.5.675-1.5 1.5m-27.75 2.207c-.687 1.481-1.25 3.952-1.25 5.492 0 2.578.304 2.801 3.809 2.801 2.095 0 4.682-.648 5.75-1.439 1.639-1.215 1.75-1.753.711-3.454-.773-1.267-.866-2.239-.25-2.62.539-.333.98-1.253.98-2.046 0-1.03-1.213-1.439-4.25-1.433-3.634.006-4.431.398-5.5 2.699M38 72.5c0 .833.889 1.5 2 1.5s2-.667 2-1.5-.889-1.5-2-1.5-2 .667-2 1.5m24.25 2.75c.229.688 1.017 1.25 1.75 1.25s1.521-.562 1.75-1.25c.248-.744-.461-1.25-1.75-1.25s-1.998.506-1.75 1.25M38 77.573c0 .932.68 1.442 1.667 1.25 2.509-.486 2.853-2.823.416-2.823-1.228 0-2.083.646-2.083 1.573M91.62 82c-2.035 2.2-4.132 4-4.66 4-1.468 0-1.145 1.672.676 3.493 1.514 1.515 1.879 1.4 4.911-1.538l3.275-3.175 2.269 2.61c2.468 2.838 5.656 3.434 6.507 1.216C105.043 87.445 97.165 78 95.75 78c-.236 0-2.094 1.8-4.13 4m-29.014 5.584c-.373.973-.15 1.431.581 1.187C64.682 88.273 65.505 86 64.19 86c-.537 0-1.249.713-1.584 1.584m69.207 2.099c.721.289 1.584.253 1.916-.079s-.258-.568-1.312-.525c-1.165.048-1.402.285-.604.604m-50.454 2.114c-.86 1.377-.797 2.251.268 3.707 1.318 1.803 1.485 1.813 3.116.182 1.304-1.304 1.467-2.13.669-3.395-1.516-2.403-2.766-2.555-4.053-.494m12.681-.345C92.577 93.215 93.595 97 95.532 97c2.066 0 3.488-3.214 2.334-5.276-1.179-2.105-2.242-2.181-3.826-.272m12.034.41c-.714 1.334-.599 2.397.404 3.75 1.296 1.748 1.523 1.767 3.059.255 1.329-1.31 1.434-2.054.525-3.75-1.396-2.61-2.684-2.693-3.988-.255M60 95c0 .55.45 1 1 1s1-.45 1-1-.45-1-1-1-1 .45-1 1m91 1c0 1.111.667 2 1.5 2s1.5-.889 1.5-2-.667-2-1.5-2-1.5.889-1.5 2M21.64 98.427c.422 3.241 1.032 4.235 2.003 3.264.353-.354.176-1.216-.393-1.917S22 97.825 21.737 97s-.307-.183-.097 1.427M131 96c0 .55.45 1 1 1s1-.45 1-1-.45-1-1-1-1 .45-1 1m-43.569 2.427c-1.729 1.264-1.547 1.639 2.9 5.961 2.61 2.537 5.013 4.612 5.339 4.612 1.027 0 9.33-8.687 9.33-9.761 0-2.973-6.132-1.944-7.351 1.233-.74 1.93-3.258 1.989-3.986.093-.975-2.541-4.178-3.64-6.232-2.138M166 101c0 .55.9 1 2 1s2-.45 2-1-.9-1-2-1-2 .45-2 1"/><path fill-opacity=".903" fill-rule="evenodd" d="M126.809 57.678c-2.113.557-6.216 8.817-5.238 10.545.398.702-.153.377-1.224-.723-1.072-1.1-2.249-2.787-2.616-3.75-.916-2.4-6.991-2.269-12.59.272-5.246 2.38-7.475 2.486-9.176.436-1.663-2.004-3.386-.358-2.511 2.398.528 1.663 1.812 2.188 6.712 2.742l6.059.686-.503 3.751c-.429 3.203-.117 4.033 2.138 5.684 2.191 1.604 3.826 1.855 9.619 1.476 5.793-.38 7.449-.901 9.75-3.073 3.298-3.113 3.427-4.219.771-6.622-2.603-2.356-2.523-3.351.358-4.446 1.624-.617 2.678-2.153 3.382-4.927 1.311-5.168.516-5.886-4.931-4.449M86.813 74.683c.721.289 1.584.253 1.916-.079s-.258-.568-1.312-.525c-1.165.048-1.402.285-.604.604m16.952 9.381c2.77 3.179 2.859 5.54.235 6.226-2.75.719-6-.256-6-1.8 0-1.925-2.983-2.697-3.656-.945-.845 2.203-4.106 3.665-6.487 2.91-1.665-.529-1.954-1.219-1.487-3.556.503-2.514.28-2.899-1.679-2.899C82.296 84 79 88.379 79 91.559c0 1.633.123 1.639 1.829.096 2.523-2.283 4.829-2.071 5.503.507.627 2.399-.82 5.838-2.457 5.838-.58 0-1.899-1.013-2.931-2.25l-1.877-2.25-.034 2.185c-.093 6.139 5.669 13.011 12.126 14.462 9.046 2.033 16.507-1.492 20.134-9.51 3.102-6.858.334-16.637-4.708-16.637-1.202 0-2.831-.562-3.62-1.25s-.429-.096.8 1.314m-10.793 7.47c-1.033 1.244-1.024 2 .046 4 1.648 3.078 3.315 3.133 5.255.173 1.218-1.859 1.266-2.617.254-4-1.549-2.12-3.88-2.192-5.555-.173m12.414.216c-.837 1.326-.747 2.295.37 4 1.821 2.78 3.383 2.858 5.012.25.999-1.599.999-2.401 0-4-1.54-2.466-3.914-2.577-5.382-.25m-29.843 1.422c-.383.919-.23 2.545.341 3.612 1.647 3.076-.685 5.279-5.964 5.631-2.488.167-5.481.815-6.65 1.44-1.169.626-2.841.863-3.716.528-2.245-.862-7.947 1.624-6.665 2.906q1 .999 3.884-.195c1.587-.657 6.987-1.234 12.001-1.281 5.701-.054 9.276-.503 9.542-1.2.747-1.954-2.001-13.291-2.773-11.441m12.164 4.301c-.939.686-1.707 1.725-1.707 2.308 0 1.02 8.666 10.219 9.627 10.219.816 0 10.373-9.868 10.373-10.712 0-.444-.935-1.391-2.078-2.105-2.261-1.412-3.632-.77-7.084 3.317-1.535 1.817-1.75 1.846-2.348.31-.362-.93-1.652-2.341-2.867-3.138-1.787-1.17-2.537-1.208-3.916-.199m94.018 1.8c-.297.775-.156 2.03.314 2.79.69 1.117.985 1.039 1.54-.408.378-.984.237-2.239-.313-2.789q-1-1-1.541.407m-69.165 4.63c-.326.527-.248 1.132.174 1.345 1.304.657 35.753.906 35.101.253-1.47-1.469-34.432-2.963-35.275-1.598M44 106.06c-1.925 1.014-4.236 1.866-5.135 1.892-.9.026-3.15.689-5 1.473-2.822 1.195-3.072 1.54-1.551 2.132.997.388 2.931.197 4.297-.426 1.366-.622 3.609-1.131 4.986-1.131s3.862-.703 5.523-1.562c2.462-1.273 2.801-1.829 1.828-3-.656-.791-1.25-1.389-1.32-1.33-.071.06-1.703.938-3.628 1.952m138.68.791c-.583 2.915-.933 3.149-4.714 3.149-4.586 0-4.535 1.497.086 2.511 2.045.45 3.828.142 5.489-.946 2.78-1.821 3.064-3.356 1.114-6.023-1.248-1.706-1.391-1.611-1.975 1.309m-32.68-.326c0 1.001 4.991 2.416 6.491 1.84 2.847-1.093 1.507-2.365-2.491-2.365-2.2 0-4 .236-4 .525m-70.345 2.304c-.91 1.006-1.655 2.367-1.655 3.025s-1.252 1.446-2.782 1.752c-2.168.434-3.051 1.418-4 4.46-1.777 5.693-1.504 6.57 1.032 3.321 3.704-4.746 7.101-7.32 9.75-7.387 2.355-.06 6.853-2.58 5.927-3.321-1.677-1.344-5.483-3.679-5.995-3.679-.342 0-1.367.823-2.277 1.829M162 109c0 .55 2.363.993 5.25.985 3.758-.011 4.824-.291 3.75-.985-1.979-1.279-9-1.279-9 0m-138 1.5c-1.375.786-3.288 1.445-4.25 1.465-3.566.072-1.611 2.035 2.027 2.035 4.472 0 9.214-2.757 7.075-4.113-1.74-1.102-1.883-1.084-4.852.613"/></svg>