<svg xmlns="http://www.w3.org/2000/svg" width="200" height="200" fill="#000000"><path fill-opacity=".055" fill-rule="evenodd" d="M81.894 1.556C44.5 8.326 13.249 37.347 3.344 74.5-.299 88.165-.581 109.992 2.718 123c4.648 18.325 13.758 34.576 26.558 47.37 12.691 12.685 30.003 22.499 47.284 26.805 11.961 2.98 33.142 3.204 44.94.474 29.492-6.823 54.743-26.594 67.951-53.205 4.488-9.044 9.549-25.745 9.549-31.513 0-1.547.45-3.091 1-3.431.558-.345 1-5.01 1-10.559 0-5.961-.4-9.941-1-9.941-.55 0-1.001-1.237-1.003-2.75-.001-1.513-1.138-7.025-2.527-12.25C183.224 24.161 132.875-7.673 81.894 1.556m13.093 20.452c-.74.458-1.449 1.431-1.575 2.162-.125.732-.536 2.905-.912 4.83a331 331 0 0 0-.907 4.794c-.377 2.184-3.476 5.206-5.333 5.2-.968-.003-3.335-.433-5.26-.956-4.792-1.301-8.59-1.973-14.619-2.584-5.112-.518-5.119-.515-5.858 2.764-1.967 8.719-1.704 9.343 4.384 10.405 2.617.457 5.009 3.859 5.189 7.377.179 3.511-.719 10.891-1.745 14.35-.302 1.017-.659 2.817-.794 4-.134 1.182-.558 3.125-.942 4.317-.605 1.882-.395 2.091 1.594 1.588 1.26-.319 2.519-.919 2.799-1.334s1.854-.946 3.5-1.179 3.712-.744 4.593-1.133c.88-.39 2.005-.633 2.5-.54.494.092 3.213.115 6.042.049 5.409-.124 6.061-.7 6.929-6.118.22-1.375.597-3.4.838-4.5.24-1.1.471-2.53.513-3.179.237-3.647 6.811-5.604 11.105-3.306 1.044.559 3.377 1.237 5.185 1.507 6.303.943 7.311 1.161 10.987 2.376 3.626 1.2 9.719 6.986 9.883 9.387.046.668.216 2.34.378 3.715.335 2.844-1.777 8.586-4.103 11.157-.861.951-2.981 2.032-4.712 2.402-1.73.369-3.704 1.122-4.387 1.671-.741.597-3.158.703-6 .263-17.641-2.731-29.501-2.422-38.396 1.001-2 .769-3.891 1.145-4.202.834s-1.294.162-2.185 1.053c-.89.89-2.152 1.619-2.804 1.619s-3.736 2.665-6.854 5.923c-6.135 6.41-10.905 15.273-15.381 28.577-3.737 11.111-4.056 14.098-1.64 15.391 1.067.571 2.142.837 2.388.591s1.985-.007 3.864.532 5.824 1.214 8.765 1.499 6.716 1.227 8.387 2.091c2.846 1.471 2.998 1.836 2.397 5.734-.779 5.057-1.372 8.429-2.005 11.412-.281 1.323.013 2.282.714 2.327.656.042 2.093.264 3.193.493s3.936.633 6.303.897 4.729.743 5.25 1.066c.521.322.97-.004.998-.724.185-4.771 1.422-10.821 2.823-13.809 1.792-3.82 4.451-4.506 10.876-2.804 3.089.819 4.081 2.941 3.338 7.144a157 157 0 0 0-.52 3.5 236 236 0 0 1-1.035 6.432c-.365 2.074-.296 3.708.152 3.631s1.04-.05 1.315.06 1.625.325 3 .477c1.375.153 4.39.621 6.701 1.039 4.049.734 4.224.658 4.839-2.109 1.982-8.92 3.627-14.936 4.251-15.553.39-.386 3.471-1.144 6.847-1.685 20.206-3.241 32.817-22.038 25.642-38.222-1.075-2.425-2.591-4.911-3.367-5.524-1.635-1.289-5.168-1.455-5.945-.279-.747 1.131-11.59 3.851-13.712 3.441-1.531-.297-1.712.346-1.416 5.01.542 8.533-5.052 16.278-13.033 18.046-2.874.637-10.617.631-11.652-.008-.423-.262-2.769-.731-5.212-1.043-7.873-1.005-10.381-1.451-13.618-2.42-1.746-.523-3.389-.736-3.651-.474-.262.263-2.732-.193-5.488-1.011-2.757-.819-5.257-1.244-5.556-.945s-1.351.196-2.337-.231c-.986-.426-2.423-.901-3.193-1.057-1.6-.322-3.062-2.313-3.085-4.198C59.954 124.1 72.714 108 76.83 108c1.059 0 2.473-.661 3.143-1.468.671-.807 1.513-1.429 1.873-1.382s.879 0 1.154-.106c2.407-.928 6.459-1.382 11.5-1.29 18.857.345 31.299.274 33.5-.192 1.375-.29 3.85-.816 5.5-1.168s5.137-1.718 7.75-3.034c2.613-1.317 4.75-2.21 4.75-1.985s1.983-1.456 4.406-3.733c11.285-10.609 11.794-23.409 1.393-35.078-2.728-3.06-5.573-5.564-6.323-5.564-.751 0-2.603-1.066-4.117-2.368-2.748-2.363-2.751-2.381-1.556-8.865 1.712-9.295 1.579-11.767-.636-11.767-1.009 0-2.125-.292-2.482-.648-1.036-1.036-10.459-1.527-11.047-.576-.554.898-1.274 4.229-2.208 10.224-.642 4.12-3.524 6.94-6.682 6.536-8.418-1.076-10.121-2.977-8.6-9.6.56-2.44 1.186-5.684 1.391-7.209.204-1.526.644-3.213.975-3.75.332-.538.24-1.003-.205-1.034-4.926-.35-9.569-1.091-11.551-1.845-1.334-.507-3.031-.547-3.771-.09M.37 100c0 5.775.165 8.138.367 5.25s.202-7.612 0-10.5S.37 94.225.37 100"/><path fill-opacity=".22" fill-rule="evenodd" d="M86.585 1.037C45.415 7.529 13.775 35.96 3.293 75.881 1.15 84.041.767 87.7.767 100c0 16.304 2.236 27.433 8.115 40.401 7.876 17.37 23.842 35.343 39.97 44.997 10.834 6.484 27.202 12.015 40.334 13.629 29.538 3.629 60.583-7.624 81.889-29.684 18.484-19.137 27.136-39.63 29.592-70.093.333-4.137.137-6.25-.582-6.25-.597 0-1.085-1.742-1.085-3.872 0-5.904-4.397-21.954-8.371-30.555C174.693 24.081 141.431 1.916 103.5.511c-6.05-.224-13.662.013-16.915.526m5.536 23.836c-.6 2.794-1.379 6.891-1.733 9.104-.446 2.787-1.142 4.02-2.266 4.013-.892-.006-7.47-1.096-14.618-2.421-7.148-1.326-13.061-2.334-13.141-2.24s-.812 3.439-1.627 7.434l-1.481 7.263 2.623.568c4.877 1.057 8.194 2.672 9.148 4.455.648 1.211.17 5.989-1.509 15.058-1.352 7.307-2.327 13.416-2.167 13.576s2.774-.581 5.809-1.648 9.528-2.298 14.429-2.737L94.5 76.5l1.544-8.431c.849-4.638 2.096-8.616 2.771-8.841 1.627-.542 20.568 3.541 25.409 5.478 5.408 2.164 7.779 5.579 7.761 11.179-.018 5.811-1.579 8.915-6 11.938-3.405 2.329-3.785 2.365-16.485 1.579-16.361-1.013-24.412-.703-31.94 1.228-15.336 3.933-23.858 12.45-31.436 31.416-4.21 10.539-7.397 23.167-6.056 23.996.588.364 6.909 1.704 14.046 2.978s13.208 2.693 13.491 3.151c.284.458-.211 4.708-1.098 9.444s-1.477 8.712-1.31 8.835c.166.123 3.678.781 7.803 1.462 4.125.682 8.214 1.437 9.087 1.679 1.27.352 1.838-1.013 2.84-6.825 2.254-13.067 1.544-12.06 7.956-11.279 3.089.376 5.963 1.013 6.385 1.416s.085 4.302-.75 8.665c-2.219 11.596-2.705 10.751 7.232 12.566 5.561 1.016 8.979 1.243 9.377.622.346-.538 1.199-4.415 1.897-8.617 1.758-10.59 1.892-10.763 8.798-11.389 11.732-1.064 20.595-6.789 25.296-16.339 4.963-10.08 4.047-22.349-2.161-28.957l-1.948-2.073-7.255 2.263c-3.989 1.245-8.927 2.527-10.971 2.849-3.489.549-3.681.765-3.132 3.511.935 4.675-.509 9.765-3.849 13.568-4.067 4.632-7.724 6.428-13.09 6.428-3.818 0-41.175-6.188-45.962-7.614-2.415-.719-2.216-2.133 1.286-9.143 3.552-7.108 9.161-12.528 16.389-15.837 4.933-2.259 6.104-2.36 26.12-2.268 16.448.075 22.198-.251 26.735-1.516C150.844 98.723 160 89.035 160 75.351c0-3.441-.538-7.516-1.195-9.054-2.202-5.157-7.981-11.379-13.417-14.447-2.963-1.672-5.388-3.335-5.388-3.695s.675-4.182 1.5-8.493 1.5-8.412 1.5-9.113c0-.803-3.201-1.911-8.642-2.992-10.149-2.015-9.768-2.284-11.442 8.075-1.595 9.874-1.46 9.747-8.772 8.237-4.744-.98-6.048-1.625-5.7-2.82.249-.852.949-4.474 1.556-8.049s1.311-7.209 1.564-8.075c.363-1.242-.914-1.828-6.041-2.773a844 844 0 0 1-9.406-1.779c-2.807-.561-2.944-.406-3.996 4.5M.32 100c0 3.575.182 5.037.403 3.25s.222-4.713 0-6.5C.502 94.963.32 96.425.32 100"/><path fill-opacity=".106" fill-rule="evenodd" d="M89.176 1.016C53.328 5.999 25.252 26.27 9.995 58.185c-14.707 30.766-11.58 68.801 8.053 97.934 5.51 8.176 17.657 20.323 25.833 25.833 19.001 12.805 44.591 19.522 64.869 17.028 25.391-3.124 44.599-12.177 61.326-28.904 16.261-16.261 26.564-37.569 28.486-58.911.33-3.666 1.013-7.969 1.519-9.563.521-1.644.543-3.375.051-4-.477-.606-1.173-4.61-1.546-8.899-3.017-34.69-28.372-67.92-61.905-81.135C122.63 2.031 102.172-.79 89.176 1.016m3.501 19.734c-.242.413-1.01 3.981-1.706 7.93-.697 3.949-1.573 7.676-1.947 8.282-.481.778-4.587.341-13.942-1.483-7.294-1.423-13.762-2.419-14.375-2.215-1.178.393-3.974 13.495-3.161 14.811.263.424 1.934 1.075 3.715 1.446 5.119 1.067 7.739 3.185 7.736 6.252-.002 1.5-.902 7.355-2 13.012-2.916 15.021-3.074 14.439 3.253 11.995 3.292-1.271 8.709-2.219 14.526-2.541 5.102-.283 9.508-.89 9.792-1.349s1.162-4.512 1.953-9.008c.79-4.495 1.57-8.306 1.732-8.469.48-.479 22.997 4.456 26.017 5.703 10.389 4.289 10.198 18.664-.311 23.403-3.73 1.682-5.034 1.738-15.379.659-14.63-1.525-19.557-1.466-28.063.336-15.099 3.198-23.716 9.944-30.842 24.144-4.483 8.934-9.15 22.21-10.27 29.211l-.609 3.811 11.852 2.2c6.519 1.209 13.121 2.449 14.673 2.755 1.662.327 2.628 1.055 2.352 1.774-.257.671-1.033 4.722-1.723 9.002-.96 5.951-.979 7.953-.079 8.509 1.534.949 17.072 3.471 17.673 2.869.254-.254 1.273-4.473 2.265-9.375 1.991-9.844 1.242-9.252 9.941-7.848 3.764.608 3.835 1.078 1.84 12.225-1.168 6.524-1.136 7.377.303 8.104 1.962.992 16.991 3.555 17.552 2.993.222-.221 1.091-4.346 1.932-9.165.841-4.82 1.802-9.204 2.135-9.743s1.817-.985 3.297-.992c7.813-.034 19.247-5.01 24.03-10.457 5.92-6.743 7.625-11.209 7.644-20.031.015-6.953-.345-8.615-2.745-12.698-1.519-2.584-3.212-4.977-3.763-5.317-.55-.341-3.479.308-6.509 1.442-3.029 1.133-8.02 2.356-11.09 2.717l-5.584.656.582 3.638c1.329 8.308-4.034 16.682-12.263 19.147-3.894 1.167-6.464.901-27.841-2.873-12.953-2.288-23.758-4.367-24.013-4.621-.786-.786 4.547-11.556 7.681-15.513 1.634-2.063 5.804-5.267 9.266-7.119l6.296-3.368 23-.138c17.956-.108 24.009-.481 27.599-1.702 17.343-5.899 25.336-14.971 25.33-28.751-.002-4.693-.595-7.624-2.132-10.545-2.511-4.771-9.843-11.794-14.763-14.14-2.71-1.292-3.374-2.124-2.986-3.739 1.026-4.266 3.301-17.06 3.075-17.287-.521-.52-14.912-3.289-17.098-3.289-2.132 0-2.455.658-3.561 7.25-1.96 11.679-1.984 11.711-7.648 10.537-2.649-.549-5.18-1.337-5.625-1.751s-.072-4.682.828-9.484 1.463-8.903 1.252-9.114C111.206 22.873 97.184 20 94.994 20c-1.032 0-2.074.337-2.317.75"/><path fill-opacity=".107" fill-rule="evenodd" d="M87.61 1.723c-.254.254-1.958.622-3.786.816-10.751 1.145-31.532 9.74-41.517 17.171C16.122 39.201 1.859 67.214 1.684 99.5c-.067 12.348.942 19.216 4.485 30.5 2.419 7.709 8.549 20.705 11.054 23.439.977 1.066 1.777 2.262 1.777 2.658 0 1.236 9.272 12.232 13.41 15.903 2.169 1.925 4.655 4.175 5.524 5s5.852 4.056 11.073 7.18c10.023 5.996 24.526 11.679 31.9 12.499 2.425.27 5.35.839 6.5 1.264 2.719 1.006 22.467 1.006 25.186 0 1.15-.425 4.075-.992 6.5-1.259s5.644-.969 7.157-1.56 2.75-.895 2.75-.676c0 .595 17.972-7.2 20.658-8.959 1.276-.837 2.592-1.484 2.922-1.439.331.046 1.222-.734 1.979-1.733s1.392-1.447 1.409-.996.661.227 1.431-.5c.769-.726 3.07-2.671 5.114-4.321 16.046-12.958 28.401-32.656 32.972-52.567.938-4.088 2.035-8.558 2.437-9.933 1.307-4.472.458-26.161-1.348-34.438-5.159-23.642-18.47-44.542-37.46-58.817-10.672-8.022-30.166-16.41-42.614-18.335-4.305-.666-28.339-1.237-28.89-.687m4.897 18.266c-.383.619-.85 2.112-1.039 3.318A3830 3830 0 0 0 90.582 29c-1.213 7.838-1.713 9.092-3.42 8.589-1.506-.444-22.661-4.408-26.091-4.889-1.001-.14-1.828 1.745-2.764 6.3-2.18 10.606-2.246 10.251 2.193 11.813 2.2.774 4.675 1.654 5.5 1.956s1.765.501 2.089.443c.651-.116.38 5.879-.442 9.788-.289 1.375-.778 4.3-1.085 6.5s-.858 5.125-1.223 6.5-.561 3.108-.435 3.85c.126.743-.208 1.08-.744.749-.563-.348-.753.242-.45 1.4.63 2.41 1.711 2.474 7.414.442 2.407-.858 7.976-1.991 12.376-2.517 11.926-1.428 12.035-1.459 11.683-3.388-.188-1.03.118-1.468.752-1.076.711.439.914-.542.608-2.933-.253-1.977-.089-3.364.365-3.084s.666-.853.472-2.517c-.209-1.791.045-2.781.622-2.425.537.332.725-.049.418-.848-.905-2.359.746-2.581 8.111-1.088C123.979 66.101 130 68.838 130 73.233c0 1.037.451 1.606 1.002 1.266 1.515-.937.327 6.35-1.487 9.118-3.228 4.927-6.172 5.923-15.978 5.409-19.716-1.033-32.678-.418-38.957 1.847-8.249 2.977-13.61 6.31-18.051 11.227-6.129 6.784-14.972 27.539-17.315 40.641l-.938 5.241 3.507.968c1.928.533 8.364 1.767 14.301 2.743l10.795 1.774-.539 5.017c-.296 2.759-.753 5.366-1.015 5.794-.263.428-.647 2.116-.854 3.75-.288 2.275.023 2.976 1.327 2.987 1.464.013 1.493.151.202.985-.825.533-1.202.976-.838.985.364.008 4.189.69 8.5 1.515 9.753 1.866 10.338 1.863 10.338-.059 0-.857.451-1.28 1.002-.94.625.387.831-.706.549-2.913-.249-1.942-.006-3.807.539-4.144s.7-1.531.344-2.653c-.384-1.208-.254-1.798.317-1.445.572.354.847-.901.675-3.075-.168-2.115.045-3.127.503-2.386.437.707 1.082 1.247 1.433 1.2s2.101-.078 3.888-.07c5.268.025 5.905.906 4.737 6.547A435 435 0 0 0 96.6 171.5c-.2 1.1-.663 2.715-1.028 3.59-1.247 2.99 2.009 4.23 16.703 6.36 3.366.488 3.881.269 4.75-2.017 1.269-3.338 1.216-4.31-.135-2.433-.864 1.202-.934 1.102-.351-.5.401-1.1.695-2.797.655-3.772s.29-1.547.733-1.273c.443.273.647-.865.453-2.529-.194-1.665.018-2.798.47-2.518.453.279.754-.71.668-2.2-.147-2.56.094-2.713 4.424-2.798 10.19-.2 21.063-6.196 27.071-14.929 1.696-2.465 2.781-4.481 2.413-4.481s-.236-.562.296-1.25c1.59-2.054 2.395-4.94 1.167-4.181-.751.463-.805.091-.175-1.198 2.492-5.104-1.475-20.434-6.035-23.323-1.436-.91-3.071-.722-7.718.886-3.243 1.123-8.306 2.324-11.251 2.67l-5.354.63.267 6.038c.41 9.246-3.309 14.489-11.923 16.809-3.449.929-7.513.463-27.833-3.188-19.188-3.447-23.585-4.528-22.709-5.584.598-.72.694-1.316.214-1.324-.479-.009-.37-.346.244-.75.613-.404 2.032-2.535 3.152-4.735 2.722-5.347 8.506-10.963 14.132-13.724 4.342-2.13 5.861-2.261 27.1-2.337 28.008-.101 34.18-1.662 45.292-11.458C156.531 92.244 162.108 84 160.398 84c-.354 0-.025-.761.73-1.692.754-.931.847-1.377.206-.993-.882.529-.893-.023-.043-2.276.924-2.447.735-4.179-1.063-9.757-2.663-8.262-6.764-13.438-13.782-17.4-4.612-2.602-5.298-3.387-5.224-5.974.046-1.639.484-3.226.972-3.528.488-.301.596-1.467.24-2.589-.384-1.208-.254-1.798.317-1.445.568.351.852-.837.69-2.883-.152-1.913.04-3.284.427-3.045.387.24.703-.447.703-1.526 0-1.167-.824-2.134-2.035-2.386-11.191-2.336-17.94-3.436-18.379-2.996-.292.292-.639 1.309-.771 2.26-.342 2.459-1.218 8.084-1.96 12.578l-.635 3.848-4.645-.676c-5.569-.809-8.054-2.721-6.293-4.843.65-.783.872-2.229.494-3.214-.431-1.123-.301-1.552.349-1.151.656.405.902-.507.672-2.486-.2-1.719.116-3.705.703-4.412 2.34-2.82-.573-4.94-8.652-6.298-4.253-.714-8.292-1.514-8.975-1.776s-1.555.03-1.937.649"/></svg>