<!-- Generated by IcoMoon.io -->
<svg version="1.1" xmlns="http://www.w3.org/2000/svg" width="32" height="32" viewBox="0 0 32 32" fill="#000000">
<title>btcst</title>
<path d="M12.927 0.339c-12.753 2.842-17.276 18.046-8.052 27.066 8.83 8.635 23.541 4.367 26.614-7.721 2.758-10.846-7.716-21.762-18.562-19.345zM21.83 8.289c0.891 0.854 0.788 2.205-0.214 2.816-0.448 0.273-0.87 0.299-4.868 0.303-4.788 0.004-5.169 0.068-6.030 1.003-0.456 0.495-0.386 0.73 0.394 1.326l0.596 0.455 4.073 0.085c3.788 0.079 4.119 0.11 4.734 0.433 1.917 1.009 2.492 3.289 1.28 5.080-0.968 1.431-1.206 1.486-6.412 1.486h-4.5l-0.49 0.412c-0.694 0.583-0.694 1.458 0 2.041l0.49 0.412 4.326-0.003c5.349-0.004 6.412-0.381 6.733-2.389 0.064-0.4 0.186-0.633 0.332-0.633 0.649 0-0.371 2.084-1.36 2.779l-0.69 0.485-9.696 0.093-0.464-0.464c-0.825-0.825-0.827-1.774-0.007-2.595l0.457-0.457 4.351-0.001c4.729-0.001 5.253-0.071 6.106-0.82 1.618-1.421-0.249-2.201-5.269-2.203l-3.514-0.001-0.864-0.438c-0.957-0.485-1.698-1.478-1.776-2.38-0.062-0.72 0.25-0.665 0.397 0.070 0.067 0.337 0.342 0.879 0.611 1.206 0.908 1.102 1.033 1.13 5.555 1.221 4.319 0.087 4.682 0.157 5.413 1.038 0.453 0.546 0.688-0.934 0.308-1.94-0.627-1.661-1.513-1.952-5.96-1.961-4.881-0.009-5.988-0.531-6.384-3.009-0.491-3.072 1.226-3.981 7.448-3.943l4.408 0.027 0.486 0.466zM11.521 8.563c-0.921 0.456-1.494 1.341-1.586 2.448-0.106 1.273 0.026 1.503 0.569 0.995 1.042-0.975 1.141-0.992 6.218-1.078l4.671-0.080 0.304-0.376c0.434-0.536 0.394-1.379-0.087-1.86l-0.391-0.391-4.505 0c-4.285 0-4.538 0.017-5.194 0.341z"/>
</svg>
