<svg xmlns="http://www.w3.org/2000/svg" width="64" height="64" fill="#000000"><path fill="#000000" d="M32 64c17.673 0 32-14.327 32-32C64 14.327 49.673 0 32 0 14.327 0 0 14.327 0 32c0 17.673 14.327 32 32 32Z"/><path fill="#000000" d="M11.984 27.236c.076 0 .094.056.132.094.451.45.902.902 1.353 1.334.038.038.076.094.094.094 1.73-1.73 3.44-3.42 5.151-5.131l.056-.095c.358-1.315.715-2.65 1.053-3.966.038-.113.075-.17.188-.188 1.918-.507 3.816-1.015 5.733-1.523.245-.075.245-.075.433.113l10.658 10.659c.17.169.17.169.357 0l3.647-3.647c.038-.038.094-.056.17-.113-.076-.056-.095-.075-.132-.094L27.812 11.71c-.094-.094-.188-.113-.3-.076-1.768.47-3.535.94-5.302 1.429-2.236.602-4.455 1.203-6.692 1.786-.037.019-.094.019-.131.037a.04.04 0 0 0-.038.038l-3.365 12.332v-.02Zm.113-.057c-.037.02-.056.038-.094.02l.489-.227c-.15.076-.263.132-.395.207Z"/><path fill="#000000" d="M24.09 45.3a.33.33 0 0 0-.094-.076c-.019-.038-.056-.038-.075-.038-.094-.037-.188-.056-.188-.056-1.222-.338-2.463-.658-3.684-.977-.094-.02-.15-.076-.188-.17-.527-1.955-1.034-3.89-1.56-5.846-.02-.113-.02-.169.056-.244 3.59-3.59 7.18-7.181 10.79-10.771.038-.038.094-.076.113-.15a.571.571 0 0 1-.132-.095l-3.647-3.647c-.169-.169-.169-.169-.357 0L15.8 32.554c-1.222 1.222-2.443 2.444-3.665 3.647-.038.038-.075.113-.15.113v.075c.093.038.075.131.093.207 1.072 3.985 2.143 7.989 3.215 11.974.019.038.019.094.056.113l12.332 3.327c.526-.545 1.052-1.053 1.56-1.56-1.73-1.748-3.44-3.44-5.15-5.15ZM35.332 13.23 40.2 18.1c.02.019.038.056.076.056l.169.113c.019.038.038.038.056.038h.038c1.297.338 2.594.695 3.891 1.034.094.018.15.056.17.169.394 1.503.807 2.988 1.202 4.492.132.47.245.94.376 1.41.019.075.02.132-.037.17-.038.018-.057.056-.075.075l-8.084 8.083-2.613 2.613c-.056.056-.112.094-.131.15l3.966 3.966c.038-.037.057-.094.094-.131l10.565-10.565c.827-.827 1.635-1.654 2.462-2.462.094-.094.113-.17.075-.282 0-.019-.018-.057-.018-.075-1.072-3.985-2.143-7.97-3.196-11.956-.019-.056-.019-.113-.056-.15h-.02L36.78 11.52l-.076.075-1.39 1.39-.057.057c-.038.038-.038.057 0 .094.019.057.056.075.075.094Z"/><path fill="#000000" d="M52.419 36.333c.019-.038 0-.056-.056-.113l-1.448-1.447-.019-.02c-1.691 1.693-3.402 3.403-5.094 5.095l-.113.113c-.037.056-.037.113-.056.15-.338 1.279-.696 2.576-1.034 3.854-.019.094-.056.15-.17.17-1.935.507-3.872 1.033-5.808 1.56-.131.037-.225.018-.32-.076-3.552-3.553-7.105-7.124-10.677-10.677-.056-.056-.112-.132-.169-.17-1.315 1.317-2.631 2.632-3.947 3.948.019.02.075.057.113.094a915.182 915.182 0 0 1 4.267 4.286c2.913 2.914 5.846 5.846 8.76 8.779.037.037.093.056.075.113h.075c.038-.057.113-.057.17-.076l2.086-.563c2.913-.79 5.846-1.56 8.76-2.35.413-.113.808-.226 1.221-.32.057-.019.076-.019.076-.056l3.308-12.294Z"/><path fill="#000000" fill-opacity=".08" d="M32 63C14.88 63 1 49.12 1 32h-2c0 18.225 14.775 33 33 33v-2Zm31-31c0 17.12-13.88 31-31 31v2c18.225 0 33-14.775 33-33h-2ZM32 1c17.12 0 31 13.88 31 31h2C65 13.775 50.225-1 32-1v2Zm0-2C13.775-1-1 13.775-1 32h2C1 14.88 14.88 1 32 1v-2Z"/></svg>