<svg xmlns="http://www.w3.org/2000/svg" width="200" height="200" fill="#000000"><path fill-opacity=".157" fill-rule="evenodd" d="M50.5 46.67c-1.1.241-3.957 1.407-6.349 2.592C33.173 54.7 28.614 67.803 33.217 80.686c3.221 9.014-8.385 23.859-19.292 24.675-9.517.713-14.583 6.108-13.635 14.52.717 6.364 5.829 11.121 11.945 11.115 8.906-.008 15.108-7.392 12.979-15.451-.883-3.34-.73-4.583.984-8 3.365-6.704 6.305-9.956 11.611-12.845l5.049-2.748 6.149 1.71c4.973 1.382 6.939 1.499 10.276.608 5.172-1.38 8.931.331 17.076 7.775 6.997 6.395 12.151 16.396 13.634 26.455 1.448 9.828 3.566 14.906 7.749 18.578 4.831 4.242 9.16 5.922 15.259 5.922C124.73 153 135 142.782 135 131.114c0-5.787 4.695-14.081 9.941-17.558 3.7-2.454 5.368-2.919 10-2.791 22.113.612 22.486.59 27.252-1.543 6.065-2.717 12.467-9.321 15.58-16.074 2.155-4.675 2.41-6.383 2.02-13.5-.524-9.542-2.519-14.129-8.962-20.603-14.705-14.779-39.587-10.611-48.727 8.162-2.66 5.462-3.122 7.649-3.498 16.557-.372 8.833-.801 10.893-3.075 14.773-1.453 2.479-4.496 5.735-6.763 7.235-3.768 2.494-4.945 2.728-13.695 2.728-12.416 0-19.431-2.218-26.167-8.274-8.878-7.983-12.534-16.712-10.692-25.533C81.516 58.874 66.075 43.26 50.5 46.67m106.72 20.173c-.96.609-1.21 4.168-1 14.235l.28 13.422h2.5c2.403 0 2.511-.273 2.772-7 .15-3.85.505-7.644.788-8.431.547-1.518.63-1.44 11.094 10.321 7.971 8.961 8.783 8.202 9.123-8.535.249-12.204.096-13.69-1.473-14.292-2.758-1.058-4.126 1.932-4.182 9.141-.027 3.606-.302 6.809-.61 7.118-.309.308-4.187-3.351-8.618-8.131-4.432-4.78-8.358-8.684-8.726-8.676-.367.009-1.244.381-1.948.828"/><path fill-opacity=".391" fill-rule="evenodd" d="M45.537 49.056C36.629 53.5 32.059 60.66 32.022 70.23c-.012 3.151.665 7.447 1.505 9.547 1.372 3.429 1.37 4.262-.019 8.201-3.547 10.053-12.291 17.915-20.008 17.99-11.599.114-17.339 13.039-9.342 21.036 5.473 5.473 13.215 4.906 18.481-1.352 2.314-2.749 2.543-3.711 2.086-8.749-.375-4.135-.038-6.72 1.249-9.597 2.434-5.437 7.567-11.031 12.367-13.48 3.671-1.873 4.501-1.944 9.295-.793 3.169.76 7.64 1.014 11.235.638 5.778-.604 6.173-.49 12.174 3.518 10.895 7.275 17.525 18.513 19.87 33.677 1.307 8.454 2.129 10.36 6.455 14.969 4.582 4.883 8.315 6.498 15.13 6.546 6.264.044 10.873-1.682 15.347-5.748 3.16-2.871 6.153-8.909 6.153-12.412 0-5.035 2.992-13.142 6.198-16.794 6.066-6.908 13.937-8.933 24.444-6.287 8.465 2.131 20.728-2.242 27.31-9.738 5.747-6.546 7.457-11.108 7.461-19.902.003-9.326-2.049-14.878-7.889-21.342C185.956 53.995 178.801 51 169.645 51c-8.875 0-14.515 2.081-20.642 7.617-6.747 6.095-9.204 12.089-9.992 24.383-.788 12.268-2.217 16.157-7.787 21.183-5.627 5.078-9.567 5.974-21.036 4.785-15.04-1.56-23.879-7.397-30.206-19.949-2.209-4.382-2.481-6.779-2.051-18.07.284-7.443-2.119-13.064-7.673-17.954-7.089-6.239-16.957-7.811-24.721-3.939m111.034 17.515C155.318 67.825 155 70.567 155 80.137c0 12.582.823 15.863 3.976 15.863 2.776 0 3.466-1.662 4.024-9.698l.5-7.198 7 7.912c11.785 13.321 13.5 12.482 13.5-6.603 0-11.758-.211-13.456-1.776-14.293-1.126-.603-2.406-.598-3.5.014-1.391.779-1.724 2.402-1.724 8.416 0 4.097-.41 7.45-.911 7.45s-2.126-1.463-3.61-3.25C167.674 72.964 159.862 65 158.991 65c-.466 0-1.555.707-2.42 1.571"/><path fill-opacity=".152" fill-rule="evenodd" d="M48.014 48.959C40.716 51.478 35.668 56.9 33.407 64.65c-1.613 5.526-1.612 6.223.024 12.598 1.608 6.265 1.616 7.094.117 11.609C30.59 97.76 20.137 107 13.022 107c-9.72 0-15.138 10.074-9.735 18.102 4.711 7.002 14.682 6.904 19.555-.192 1.999-2.91 2.253-4.19 1.733-8.728-.462-4.038-.156-6.342 1.272-9.57 2.336-5.279 8.361-11.31 13.695-13.706 3.738-1.679 4.377-1.7 8.5-.275 3.195 1.104 6.21 1.354 10.643.882 5.857-.623 6.467-.477 11.53 2.762 10.479 6.703 17.692 17.331 19.946 29.392 2.076 11.105 4.023 16.199 7.717 20.195 4.775 5.165 12.267 7.562 18.951 6.064 10.152-2.275 15.534-8.368 17.088-19.347.538-3.794 2.033-8.964 3.322-11.489 4.293-8.404 15.511-13.648 23.532-11.001 5.207 1.719 16.87.667 22.05-1.987 10.711-5.49 18.303-19.045 16.706-29.827-2.357-15.913-14.511-26.648-30.027-26.52-11.784.097-21.046 5.614-26.283 15.655-2.952 5.658-2.999 5.874-3.68 16.941-.835 13.571-5.958 21.405-16.33 24.969-5.234 1.799-16.369.714-24.715-2.409-6.816-2.55-14.217-9.158-17.99-16.063-2.711-4.962-2.927-6.143-2.99-16.348-.076-12.367-.861-14.624-7.18-20.663-2.424-2.317-5.827-4.245-9.264-5.25-6.642-1.941-6.328-1.95-13.054.372M156.25 65.662c-.916.37-1.25 4.209-1.25 14.35 0 11.253.294 14.139 1.571 15.417.865.864 1.958 1.571 2.429 1.571 2.671 0 4-3.427 4-10.31v-7.167l7.63 8.292c6.315 6.863 8.082 8.24 10.25 7.989l2.62-.304.5-13c.599-15.565.473-16.343-2.775-17.158-3.738-.939-5.222 1.779-5.24 9.599l-.016 6.559-6.946-7.5c-3.82-4.125-6.963-7.838-6.984-8.25-.043-.826-3.817-.883-5.789-.088"/><path fill-opacity=".198" fill-rule="evenodd" d="M68.5 56.657c-1.973 1.572-1.97 1.586.25 1.062 1.767-.418 2.25-.097 2.25 1.491 0 1.531-.487 1.896-2.001 1.5-1.101-.288-1.806-.206-1.566.181.239.387.022 1.358-.484 2.157-.741 1.171-.921 1.187-.934.08-.012-1.107-.306-1.132-1.515-.128-.825.685-1.5 2.09-1.5 3.122C63 67.344 62.289 68 60.967 68c-1.119 0-3.609 1.575-5.534 3.5S51.498 75 50.967 75s-.968.338-.968.75c-.003 1.551-4.846 6.308-6.145 6.035-.85-.179-1.245.459-1.062 1.715.241 1.654.111 1.741-.75.5-.908-1.306-1.163-1.312-1.977-.046-.706 1.098-.18 1.819 2.153 2.949 1.899.919 2.567 1.669 1.735 1.946-.744.248-1.526-.069-1.738-.705s-.831-.882-1.374-.545-1.998-.338-3.232-1.496l-2.242-2.107-1.665 5.281c-1.799 5.707-7.547 12.557-12.828 15.288l-3.076 1.591 2.026 2.172c1.984 2.128 1.987 2.219.155 4.466-1.029 1.262-2.233 2.3-2.675 2.308s-.742.659-.667 1.446-.203 1.22-.619.963c-1.198-.74-8.13 6.5-7.382 7.709.406.657.208.802-.498.365-.644-.398-.912-1.142-.595-1.654.316-.512.098-.931-.484-.931S6 123.436 6 123.969s-.787.723-1.75.423c-.962-.3-.175.873 1.75 2.607 3.068 2.763 4.04 3.095 7.868 2.686 6.131-.654 9.264-4.008 9.897-10.596.486-5.058-.262-6.192-2.565-3.889-.933.933-1.2.933-1.2 0 0-.66.397-1.2.883-1.2s2.047-2.459 3.47-5.464c3.399-7.178 8.865-13.106 14.913-16.171 4.103-2.079 5.146-2.268 6.466-1.172 1.029.854 4.75 1.33 10.724 1.373 8.9.064 9.309.171 14.96 3.922 9.015 5.984 14.459 13.564 18.683 26.012.932 2.75 1.742 4.195 1.798 3.21.228-3.964 4.326-9.895 8.796-12.731l4.601-2.917-2.897-1.071C90.76 104.687 84.336 99.29 79.198 89.5c-2.382-4.54-2.602-5.902-2.382-14.812.221-9.002.019-10.221-2.446-14.75-1.479-2.716-2.954-4.924-3.279-4.906-.325.017-1.491.749-2.591 1.625m123.148 7.028c-.9.9-.816 2.535.102 1.979.412-.25 1.308.15 1.99.888 1.618 1.752-.304 3.054-2.194 1.486-1.062-.881-1.726-.622-2.984 1.164-1.371 1.947-1.765 2.069-2.575.798q-.956-1.5-.972 11.179c-.012 10.178-.325 12.988-1.586 14.25-2.613 2.612-4.931 1.811-9.792-3.386-3.218-3.441-4.661-4.435-4.716-3.25-.049 1.061-.271 1.229-.587.446-.28-.694-1.423-1.752-2.542-2.35-1.306-.699-1.805-.72-1.396-.058.35.567.179 1.313-.38 1.659-.559.345-1.016 2.128-1.016 3.962 0 3.503-1.263 4.548-5.498 4.548-1.285 0-2.515.54-2.736 1.201-.311.934-.564.934-1.142 0-.408-.661-.265-1.201.317-1.201 1.306 0 1.405-2.668.128-3.457-.512-.317-1.256-.049-1.654.595-.452.731-.291.903.43.457.635-.392 1.155-.236 1.155.346 0 1.341-1.683 1.381-2.5.059-.34-.55-1.491-1-2.559-1-1.404 0-1.941.692-1.941 2.5 0 1.375-.38 2.5-.845 2.5-1.362 0-3.815-3.261-4.889-6.5l-.995-3-1.238 4.5c-1.545 5.613-10.17 14.677-14.856 15.615l-3.142.628 4.029 2.919c4.443 3.218 5.483 4.97 4.489 7.56-.566 1.475-.794 1.511-1.591.25-.816-1.29-.948-1.286-1.065.028-.074.825-.062 1.893.025 2.373.088.48-.588.586-1.501.235-1.024-.393-2.325.128-3.393 1.359-.952 1.098-2.095 1.667-2.539 1.265s-.52.07-.167 1.05c.454 1.264-.009 2.036-1.591 2.654-1.227.48-3.249 1.838-4.494 3.019s-2.707 1.873-3.25 1.537-.987-.164-.987.382c0 .811-2.808 2.273-5 2.603-.275.041-1.4.612-2.5 1.269-1.346.803-1.526 1.203-.55 1.224 1.155.024 1.197.283.208 1.272-.988.988-1.436.938-2.2-.25-.832-1.296-1.08-1.302-1.888-.046-1.95 3.031 3.153 7.848 10.705 10.107 11.523 3.446 25.225-6.046 25.225-17.476 0-10.501 9.466-22.774 18.624-24.148 2.49-.373 7.756-.172 11.702.447 16.175 2.537 29.823-5.536 34.184-20.221 1.79-6.029 1.886-10.6.332-15.789-1.183-3.946-2.279-4.848-3.18-2.616-.363.901-.526.918-.583.059-.043-.655.371-1.469.921-1.809s1-.973 1-1.406c0-1.366-3.673-5.088-4.352-4.409m-16.943 11.989c.506 1.318.245 1.521-1.225.957-1.818-.698-1.818-.662-.019 1.326 1.017 1.124 1.909 2.043 1.981 2.043s.235-1.35.361-3-.214-3-.756-3c-.541 0-.695.753-.342 1.674"/></svg>