<!-- Generated by IcoMoon.io -->
<svg version="1.1" xmlns="http://www.w3.org/2000/svg" width="32" height="32" viewBox="0 0 32 32" fill="#000000">
<title>btrst</title>
<path d="M10.358 0.974c-1.173 0.473-1.191 0.514-0.656 1.496 1.715 3.151 6.042 4.465 9.451 2.869 1.678-0.785 3.805-3.065 3.529-3.783-0.116-0.301-2.022-1.024-2.098-0.795-1.148 3.444-6.827 3.839-8.722 0.607-0.506-0.863-0.406-0.837-1.504-0.394zM6.057 3.416c-0.413 0.326-0.811 0.65-0.885 0.722s0.075 0.54 0.33 1.041c1.567 3.084-0.626 6.847-4.152 7.122-1.028 0.080-1.11 0.185-1.207 1.547l-0.059 0.831 0.725 0.052c5.196 0.374 9.196-5.588 6.956-10.368-0.764-1.631-0.809-1.655-1.708-0.947zM24.687 3.525c-2.592 4.423-0.125 10.033 4.867 11.069 1.664 0.346 2.364 0.195 2.346-0.505-0.042-1.605-0.146-1.765-1.159-1.8-3.475-0.121-5.704-3.841-4.229-7.057l0.457-0.996-0.642-0.554c-1.119-0.965-1.164-0.969-1.639-0.158zM14.192 8.623c-7.363 1.983-7.735 12.141-0.534 14.567 5.785 1.949 11.401-3.598 9.588-9.469-1.169-3.784-5.299-6.11-9.054-5.098zM17.744 11.16c1.948 0.664 3.373 2.725 3.366 4.866-0.018 5.376-7.244 7.051-9.65 2.236-2.036-4.075 1.949-8.58 6.284-7.103zM0 17.381c0 0.073 0.082 0.603 0.182 1.178l0.182 1.044 1.007 0.091c3.54 0.321 5.683 3.966 4.138 7.036l-0.461 0.917 0.777 0.716c1.009 0.929 1.127 0.909 1.731-0.3 1.989-3.981 0.232-8.727-3.807-10.28-0.971-0.373-3.748-0.672-3.748-0.402zM28.627 17.673c-4.167 1.421-6.168 6.157-4.284 10.14 0.649 1.371 0.77 1.417 1.761 0.661 0.966-0.737 0.954-0.704 0.506-1.464-1.832-3.105 0.709-7.363 4.392-7.363 0.647 0 0.998-0.713 0.998-2.029 0-0.483-1.887-0.452-3.373 0.055zM14.514 26.049c-1.816 0.384-3.732 1.732-4.772 3.358-0.637 0.997-0.616 1.088 0.352 1.504 1.109 0.477 1.27 0.456 1.688-0.22 2.005-3.243 6.737-3.062 8.702 0.334 0.187 0.324 0.201 0.324 1.179-0.022 1.225-0.433 1.259-0.597 0.392-1.896-1.564-2.342-4.773-3.644-7.541-3.058z"/>
</svg>
