<!-- Generated by IcoMoon.io -->
<svg version="1.1" xmlns="http://www.w3.org/2000/svg" width="32" height="32" viewBox="0 0 32 32" fill="#000000">
<title>bts</title>
<path d="M13.040 20.040l-6.887-6.887v8.277h6.347c0.065-0.491 0.261-0.965 0.539-1.39zM12.501 22.788h-6.347c0.147 2.241 1.047 4.253 2.405 5.84l4.482-4.532c-0.278-0.376-0.474-0.834-0.539-1.309zM22.512 14.625c-1.587-1.391-3.599-2.29-5.84-2.405v6.347c0.507 0.082 0.965 0.278 1.358 0.54zM19.077 24.031l4.482 4.482c1.358-1.587 2.208-3.566 2.355-5.758h-6.38c-0.082 0.458-0.229 0.883-0.458 1.276zM19.535 21.43h6.347c-0.147-2.241-1.047-4.253-2.404-5.84l-4.483 4.499c0.279 0.376 0.458 0.851 0.54 1.341zM9.524 29.561c1.587 1.39 3.599 2.29 5.84 2.405v-6.347c-0.507-0.082-0.966-0.278-1.358-0.54zM16.672 25.618v6.347c2.241-0.147 4.253-1.047 5.84-2.438l-4.45-4.45c-0.425 0.262-0.883 0.458-1.391 0.54zM6.154 11.108c1.701 1.701 7.034 7.083 7.934 7.967 0.393-0.23 0.818-0.426 1.244-0.508v-10.371l-9.161-8.196c-0.016 0-0.016 10.797-0.016 11.108z"/>
</svg>
