<svg xmlns="http://www.w3.org/2000/svg" width="18" height="18" fill="#000000"><g fill="#000000"><path d="M17.725 7.155a8.923 8.923 0 0 0-1.35-3.206 8.903 8.903 0 0 0-1.093-1.322 8.899 8.899 0 0 0-2.847-1.92 8.914 8.914 0 0 0-6.961 0 8.898 8.898 0 0 0-2.847 1.92 8.899 8.899 0 0 0-1.92 2.847 8.915 8.915 0 0 0 0 6.961 8.911 8.911 0 0 0 1.92 2.847 8.895 8.895 0 0 0 2.847 1.92 8.914 8.914 0 0 0 6.961 0 8.895 8.895 0 0 0 2.847-1.92 8.901 8.901 0 0 0 1.92-2.847 8.915 8.915 0 0 0 .523-5.28zm-8.762 9.633a7.825 7.825 0 0 1-7.824-7.824c0-4.317 3.508-7.825 7.824-7.825s7.825 3.508 7.825 7.825c0 4.316-3.508 7.824-7.825 7.824z"/><path d="M9.101 16.108h.212c.037 0 .073 0 .11-.01h.01c.036 0 .063 0 .1-.009h.027c.028 0 .056 0 .083-.009h.028c.027 0 .055-.009.092-.009h.018c.037 0 .073-.01.11-.01.037 0 .065-.009.101-.018h.018c.028 0 .056-.009.083-.009h.019c.036-.01.064-.01.1-.018a1.47 1.47 0 0 0 .212-.046h.018c.027-.01.064-.01.092-.019h.009l.211-.055a8.212 8.212 0 0 1-2.047-.192c-1.011-.22-1.975-.615-2.792-1.296a5.659 5.659 0 0 1-2.039-4.398 5.345 5.345 0 0 1 1.258-3.417 5.455 5.455 0 0 1 4.059-1.929h.211v-1.22h-.238a6.622 6.622 0 0 0-2.7.615c-.432.202-.836.45-1.213.734-.389.296-.743.635-1.056 1.01a6.25 6.25 0 0 0-.762 1.13 6.46 6.46 0 0 0-.505 1.221 6.675 6.675 0 0 0-.248 1.277l-.028.404v.238a6.629 6.629 0 0 0 .615 2.7c.23.506.644 1.25 1.259 1.81a7.103 7.103 0 0 0 4.408 1.525z"/><path d="M11.104 14.932a9.327 9.327 0 0 1-1.35-.147c-1.892-.34-3.518-1.497-4.114-3.241-.726-2.122.385-4.418 2.497-5.115a3.908 3.908 0 0 1 1.25-.203c.541 0 1.083.11 1.58.312l.513-1.092a9.876 9.876 0 0 0-.468-.174 5.41 5.41 0 0 0-1.626-.249 5.153 5.153 0 0 0-1.625.267 5.108 5.108 0 0 0-1.81 1.047 5.265 5.265 0 0 0-.688.744 5.178 5.178 0 0 0-1.038 2.792 5.221 5.221 0 0 0 .276 2.056c.233.68.61 1.304 1.102 1.828.45.487.974.854 1.607 1.194.661.349 1.479.533 2.332.653a14.86 14.86 0 0 0 1.718.091c.376-.138.532-.202.735-.285.174-.082.348-.165.523-.266.175-.101.203-.12.496-.312a.497.497 0 0 0 .073-.056c-1.01.175-1.267.165-1.983.156z"/><path d="M13.363 13.566c-.285.017-.69.044-1.148.044-.818 0-1.82-.072-2.673-.357-1.323-.44-2.571-1.57-2.571-2.966A2.515 2.515 0 0 1 9.487 7.77c.946 0 1.763.524 2.195 1.286l1.093-.542a3.547 3.547 0 0 0-.653-.872 3.723 3.723 0 0 0-5.271 0 3.724 3.724 0 0 0-1.093 2.636c.002.513.112 1.02.322 1.488.192.422.46.817.8 1.185.596.642 1.413 1.156 2.286 1.45.835.275 2.066.377 3.26.294.33-.028.578-.055 1-.147a6.894 6.894 0 0 0 1.103-1.093c-.285.028-.808.083-1.166.11z"/></g></svg>