<svg width="500" height="500" viewBox="0 0 500 500" fill="#000000" xmlns="http://www.w3.org/2000/svg">
<path fill-rule="evenodd" clip-rule="evenodd" d="M200.065 5.42604C8.21428 46.6008 -65.6461 278.42 67.6738 420.938C210.412 573.527 467.104 492.616 497.389 285.485C522.158 116.093 366.699 -30.3366 200.065 5.42604ZM296.171 69.2338C389.128 93.8198 450.677 187.491 434.069 279.094C406.863 429.152 226.986 487.071 120.103 380.188C11.5835 271.666 72.9586 89.2442 226.289 64.5733C239.623 62.4279 280.828 65.1752 296.171 69.2338ZM231.284 87.0589C94.7598 108.858 40.1306 268.025 136.199 364.091C235.133 463.027 402.2 400.63 413.898 260.372C422.06 162.503 326.544 71.8487 231.284 87.0589ZM260.006 147.875V160.362H250.278C193.631 160.362 146.367 211.57 146.367 272.945V301.859L156.977 323.263C177.289 364.251 221.953 392.636 266.133 392.636C273.263 392.636 277.184 393.605 276.24 395.133C270.598 404.262 206.718 394.142 179.957 379.878C71.3152 321.972 123.589 138.062 249.391 135.594L260.006 135.387V147.875ZM286.225 171.706C304.583 176.487 303.811 175.403 297.577 187.623C292.824 196.939 291.713 197.711 285.539 195.983C198.369 171.581 140.757 275.253 205.622 339.8C229.286 363.349 258.74 373.392 304.548 373.532L332.857 373.617L318.284 381.124C278.933 401.4 203.194 380.198 175.069 341.034C115.16 257.61 188.296 146.199 286.225 171.706ZM287.182 204.447C300.556 208.765 316.199 220.514 324.96 232.817L330.135 240.082L319.86 245.324L309.585 250.567L298.513 240.362C272.806 216.667 237.096 220.366 218.172 248.684C197.647 279.396 217.22 321.935 259.082 337.597C281.135 345.849 343.342 349.6 361.839 343.796C364.247 343.039 364.389 343.973 362.431 347.635C344.866 380.455 254.204 374.144 213.849 337.287C149.314 278.355 204.802 177.84 287.182 204.447Z" fill="#000000"/>
</svg>
