<svg xmlns="http://www.w3.org/2000/svg" width="32" height="32" fill="#000000"><path fill-opacity=".086" fill-rule="evenodd" d="M10.538 6.348c-2.787 2.038-.973 3.628 3.898 3.416C19.762 9.532 22 11.219 22 15.467c0 7.78-10.125 9.016-12.502 1.527C9.15 15.897 7.996 15 6.933 15c-2.806 0-2.499 4.174.576 7.829 3.514 4.175 7.172 5.265 12.058 3.593C24.93 24.586 27 21.764 27 16.289c0-3.772-.543-5.032-3.4-7.889C20.893 5.693 19.403 5 16.291 5c-2.15 0-4.738.607-5.753 1.348m-5.202 4.219c-.834 2.172 1.282 4.215 2.797 2.7C9.413 11.987 8.62 9 7 9c-.585 0-1.333.705-1.664 1.567M12.5 14c-.729 1.18.217 3 1.559 3 .518 0 .941-.9.941-2 0-2.109-1.455-2.691-2.5-1m4.5 1c0 1.1.402 2 .893 2 1.124 0 2.173-2.601 1.371-3.402C18.061 12.394 17 13.051 17 15"/><path fill-opacity=".103" fill-rule="evenodd" d="M5.694 10.639C4.761 11.573 5.888 13 7.559 13 8.352 13 9 12.325 9 11.5c0-1.506-2.111-2.056-3.306-.861M12.5 14c-.399.646-.276 1.624.274 2.174q1 1 1.726-.174c.399-.646.276-1.624-.274-2.174q-1-1-1.726.174m4.5.5c0 .825.45 1.5 1 1.5s1-.675 1-1.5-.45-1.5-1-1.5-1 .675-1 1.5m5 1.429C22 19.804 19.631 22 15.452 22c-2.529 0-3.827-.643-5.044-2.5-.901-1.375-2.486-2.5-3.523-2.5-2.265 0-2.299.299-.436 3.901C8.423 24.719 12.207 27 16.565 27 21.68 27 27 21.698 27 16.6c0-3.173-.296-3.6-2.5-3.6-2.098 0-2.5.471-2.5 2.929"/><path fill-opacity=".388" fill-rule="evenodd" d="M12.597 13.844c-.346.56-.142 1.319.453 1.687 1.538.95 2.53-.351 1.246-1.635-.718-.718-1.277-.735-1.699-.052M17 15c0 .55.45 1 1 1s1-.45 1-1-.45-1-1-1-1 .45-1 1m6 1.045C23 18.637 18.704 23 16.152 23 14.547 23 13 24.758 13 26.582c0 1.015 5.365.281 8.033-1.099C26.156 22.834 29.208 14 25 14c-1.348 0-2 .667-2 2.045"/><path fill-opacity=".875" fill-rule="evenodd" d="M17 15c0 .55.45 1 1 1s1-.45 1-1-.45-1-1-1-1 .45-1 1"/></svg>