<svg width="500" height="398" viewBox="0 0 500 398" fill="#000000" xmlns="http://www.w3.org/2000/svg">
<path fill-rule="evenodd" clip-rule="evenodd" d="M128.529 75.6719C128.529 144.433 127.939 151.55 122.079 153.581C98.9621 161.598 50.7858 186.631 27.4919 202.734L0 221.738L13.2023 242.636C20.4669 254.128 26.8764 264.105 27.4514 264.806C28.0264 265.51 36.205 260.781 45.6221 254.301C68.4258 238.611 124.128 212.711 130.121 215.008C133.026 216.124 135.893 227.034 137.46 242.949L140.032 269.059H163.599H187.166L189.2 257.08C190.317 250.49 192.469 234.321 193.977 221.144L196.726 197.187H250.129H303.532L306.119 215.616C307.542 225.752 309.735 241.925 310.988 251.552L313.269 269.059H336.537C362.139 269.059 364.317 266.365 364.472 234.505C364.597 208.919 386.84 212.87 445.178 248.835L471.314 264.949L485.659 243.83L500 222.711L479.201 207.268C458.042 191.552 405.49 163.12 383.767 155.63L371.788 151.499V75.7493V0H336.773H301.759V67.2647V134.529H250.159H198.558V67.2647V0H163.544H128.529V75.6719ZM136.428 318.938C112.865 338.764 114.203 372.805 139.21 389.631C184.674 420.226 233.669 356.835 192.495 320.685C175.692 305.931 152.737 305.216 136.428 318.938ZM307.531 320.939C268.466 355.239 310.763 416.463 357.004 392.553C372.813 384.378 379.159 372.945 379.159 352.641C379.159 313.852 336.906 295.15 307.531 320.939Z" fill="#000000"/>
</svg>
