<svg xmlns="http://www.w3.org/2000/svg" width="200" height="200" fill="#000000"><path fill-opacity=".455" fill-rule="evenodd" d="M0 100.005V200.01l100.25-.255 100.25-.255.255-99.75L201.01 0H0zm.481.495c0 55 .121 77.647.269 50.326.148-27.32.148-72.32 0-100C.602 23.147.481 45.5.481 100.5M53 80.748c0 4.253.383 5.273 2.5 6.66 1.52.996 2.5 2.581 2.5 4.044C58 93.851 55.689 97 53.929 97c-1.257 0-1.19 11.721.071 12.5.55.34 1 1.915 1 3.5s-.45 3.16-1 3.5-1 3.291-1 6.559c0 6.544.779 7.153 5.8 4.53 9.091-4.749 13.249-16.631 7.745-22.134-1.35-1.35-3.262-2.473-4.25-2.494-1.131-.025-.654-.536 1.29-1.382 6.361-2.77 10.2-10.949 8.355-17.8-1.34-4.979-4.504-6.894-12.44-7.531l-6.5-.522zm35.025 5.002.025 9.75 3.98-4.217 3.981-4.217-2.714-5.533c-4.092-8.344-5.302-7.377-5.272 4.217m21.552-4.392c-4.555 5.332-4.577 5.392-4.531 12.75l.045 7.392 11.369-11.984c6.253-6.591 11.156-12.328 10.896-12.75-.261-.421-3.338-.766-6.838-.766h-6.363zm34.45 4.309.027 9.833 3.473-3.735c4.051-4.357 4.103-4.83 1.182-10.714-3.715-7.482-4.713-6.498-4.682 4.616m21.07-3.917-5.069 5.75.026 7.5.027 7.5 11.426-12c6.285-6.6 11.442-12.562 11.46-13.25.023-.874-1.899-1.25-6.384-1.25h-6.417zm-5.045 36L160 131h5.941c3.268 0 6.144-.338 6.393-.75s-2.401-6.375-5.889-13.25l-6.341-12.5zm-55 0L105 130h6c3.3 0 5.977-.338 5.948-.75S114.243 123.325 111 117l-5.897-11.5z"/><path fill-opacity=".345" fill-rule="evenodd" d="M0 100.005V200.01l100.25-.255 100.25-.255.255-99.75L201.01 0H0zm.481.495c0 55 .121 77.647.269 50.326.148-27.32.148-72.32 0-100C.602 23.147.481 45.5.481 100.5m37.635-6.846c.064 9.815.314 17.097.557 16.182.3-1.133 1.997-1.878 5.32-2.335 6.542-.9 10.398.905 10.806 5.057.447 4.561-2.403 6.56-10.251 7.19l-6.548.526V130l7.75-.022c14.238-.04 23.25-7.245 23.25-18.589 0-3.843-3.594-8.36-6.705-8.428-1.131-.025-.654-.536 1.29-1.382 6.361-2.77 10.2-10.949 8.355-17.8-1.684-6.256-4.247-7.226-20.143-7.625L38 75.808zM83 83.953C83 91.29 84.323 97 86.024 97c.386 0 2.792-2.234 5.346-4.964l4.643-4.965-2.715-5.535C90.717 76.272 90.397 76 86.792 76H83zm21.238 3.297c-5.535 6.188-11.677 12.801-13.651 14.696-3.537 3.399-3.587 3.558-3.572 11.5l.015 8.054 3.398-4 3.398-4 3.837 8.205 3.837 8.204 7.75.046c4.263.025 7.75-.186 7.75-.469s-2.93-6.361-6.511-13.508l-6.511-12.993 11.915-12.742c6.553-7.009 11.706-13.081 11.452-13.493-.255-.412-3.294-.75-6.753-.75h-6.29zM139 84.749c0 6.307.429 9.429 1.486 10.81 1.429 1.868 1.654 1.765 6-2.751 2.482-2.58 4.495-5.28 4.473-6s-1.035-3.333-2.25-5.808c-1.966-4.004-2.622-4.534-5.959-4.81l-3.75-.311zm17.695 6.218L143 105.934v15.522l3.176-3.854 3.177-3.853 4.334 8.625 4.335 8.626h6.822c3.753 0 7.096-.274 7.431-.608.334-.335-2.375-6.594-6.022-13.91l-6.629-13.302 11.688-12.458C177.74 83.87 183 77.754 183 77.132c0-.723-2.279-1.132-6.305-1.132h-6.305zM46.064 86.88c-1.431.399-2.705 1.7-3.088 3.15-2.288 8.675-2.549 7.97 2.94 7.97 8.207 0 12.037-2.124 12.069-6.693.029-4.178-5.484-6.225-11.921-4.427"/><path fill-opacity=".857" fill-rule="evenodd" d="M0 100.005V200.01l100.25-.255 100.25-.255.255-99.75L201.01 0H0zm.481.495c0 55 .121 77.647.269 50.326.148-27.32.148-72.32 0-100C.602 23.147.481 45.5.481 100.5m30.04-22.25C21.203 118.756 19 128.494 19 129.177c0 .453 7.762.813 17.25.801 14.653-.019 17.852-.301 21.25-1.874 7.234-3.349 11.5-9.549 11.5-16.715 0-3.859-3.619-8.388-6.705-8.391-1.086 0-.421-.691 1.685-1.75 6.793-3.413 10.338-12.159 7.591-18.731C69.224 76.898 65.844 76 47.051 76c-15.786 0-16.02.032-16.53 2.25m49.585 8c2.818 5.638 5.33 10.47 5.582 10.739s2.682-1.842 5.402-4.693l4.944-5.183-2.725-5.556L90.583 76H74.982zm25.945-1c-4.575 5.088-15.912 17.2-25.192 26.918l-16.873 17.667 7.257.397c8.163.447 7.697.739 17.956-11.244l4.698-5.488 3.802 8.237 3.801 8.237 7.75.013c4.263.007 7.75-.218 7.75-.501s-2.919-6.34-6.487-13.46l-6.487-12.945 11.878-12.791c6.533-7.034 11.676-13.128 11.428-13.54s-3.265-.75-6.706-.75h-6.256zM131 76.518C131 77.831 141.109 97 141.801 97c.43 0 2.768-2.023 5.194-4.495 4.395-4.478 4.406-4.508 3.1-8.25-2.733-7.826-3.336-8.255-11.618-8.255-4.112 0-7.477.233-7.477.518m31.426 8.232c-4.344 4.813-15.667 16.922-25.162 26.91S120 130.086 120 130.41s3.326.59 7.392.59h7.392l7.299-8.597 7.299-8.598 4.32 8.598 4.32 8.597h7.489c4.119 0 7.489-.221 7.489-.491 0-.269-3.006-6.522-6.68-13.894l-6.681-13.405 11.431-12.177c6.286-6.698 11.575-12.82 11.753-13.605.254-1.122-1.049-1.428-6.087-1.428h-6.412zM46.571 86.868c-2.913.629-3.075.904-4.928 8.382-.674 2.722-.63 2.75 4.273 2.75 8.207 0 12.037-2.124 12.069-6.693.029-4.166-4.505-5.929-11.414-4.439m-4.712 20.79c-2.294.394-2.842 1.252-4.171 6.527l-1.53 6.072 6.89-.493c8.34-.596 11.952-2.61 11.952-6.665 0-1.57-.657-3.4-1.461-4.066-1.634-1.357-7.658-2.066-11.68-1.375"/><path fill-opacity=".77" fill-rule="evenodd" d="M90 37.529v37.528l2.998 5.939 2.998 5.939-3.058 3.483c-2.56 2.915-3.007 4.175-2.748 7.736l.31 4.254 11.94-13.204L114.379 76h6.252c3.438 0 6.455.338 6.704.75s-4.883 6.528-11.403 13.59l-11.856 12.84 6.533 13.038c3.594 7.172 6.164 13.363 5.713 13.758-.452.396-4.007.517-7.9.269l-7.079-.451-3.661-8.061c-3.611-7.948-3.69-8.035-5.672-6.242-1.952 1.766-2.01 3.021-2.01 43.164V200h110V0H90zm41.051 39.221c.028.412 2.399 5.371 5.269 11.019l5.217 10.269 4.936-5.01 4.935-5.011-1.312-3.758C147.362 76.428 146.76 76 138.477 76c-4.112 0-7.454.338-7.426.75m31.369 8c-4.348 4.813-15.671 16.916-25.163 26.896-9.491 9.98-17.257 18.418-17.257 18.75s3.326.604 7.392.604h7.392l7.299-8.597 7.299-8.598 4.32 8.598 4.32 8.597h7.489c4.119 0 7.489-.221 7.489-.491 0-.269-3.005-6.52-6.678-13.889l-6.678-13.399 11.428-12.149c6.285-6.682 11.573-12.807 11.751-13.611.258-1.163-.983-1.461-6.087-1.461h-6.412z"/></svg>