<svg width="64" height="64" viewBox="0 0 64 64" fill="#000000" xmlns="http://www.w3.org/2000/svg">
    <path d="M32 64C49.6731 64 64 49.6731 64 32C64 14.3269 49.6731 0 32 0C14.3269 0 0 14.3269 0 32C0 49.6731 14.3269 64 32 64Z" fill="#ffffff"/>
    <path d="M29.2077 19.5042C31.0342 19.1135 32.818 19.0881 34.6316 19.468C34.6413 19.3638 34.6549 19.2857 34.6549 19.2069C34.6568 18.3076 34.6548 17.4076 34.6574 16.5082C34.6587 16.1144 34.7719 16.002 35.1794 16.0014C36.3002 15.9988 37.4211 16.0001 38.542 16.0033C38.9455 16.0045 39.051 16.11 39.0516 16.5196C39.0536 17.9906 39.0568 19.4616 39.0464 20.9326C39.0451 21.1511 39.1098 21.2826 39.3026 21.3905C39.5529 21.5303 39.7844 21.7011 40.0554 21.8796C40.0554 21.5411 40.0412 21.226 40.0651 20.9148C40.0716 20.8284 40.1919 20.6792 40.2611 20.6785C41.8321 20.6652 43.4038 20.6684 45 20.6684C45 28.5283 45 36.3627 45 44.222C44.8732 44.2283 44.7568 44.2391 44.6404 44.2391C43.2395 44.2404 41.8386 44.2328 40.4377 44.2461C40.144 44.2487 40.0464 44.1667 40.0574 43.8733C40.0793 43.2648 40.0638 42.6557 40.0638 41.9958C39.7204 42.2302 39.4138 42.4214 39.1312 42.6437C39.0613 42.6983 39.049 42.8507 39.049 42.9587C39.0426 44.4506 39.0432 45.9432 39.0419 47.4352C39.0413 47.9299 38.9695 47.9992 38.4579 47.9992C37.3694 47.9992 36.2808 47.9985 35.1923 47.9973C34.7629 47.9966 34.6678 47.9033 34.6665 47.4707C34.6646 46.5815 34.6652 45.693 34.6645 44.8038C34.6645 44.7002 34.6645 44.5961 34.6645 44.4481C32.8406 44.7873 31.0465 44.819 29.2148 44.4081C29.2071 44.5434 29.1961 44.6526 29.1961 44.7619C29.1948 45.672 29.198 46.5822 29.1941 47.4923C29.1922 47.9128 29.1016 47.9985 28.6812 47.9992C27.5604 48.0004 26.4395 48.0004 25.3187 47.9979C24.9151 47.9973 24.8265 47.909 24.8265 47.5088C24.8252 45.9534 24.8226 44.3973 24.8297 42.8418C24.8304 42.6544 24.776 42.542 24.615 42.4277C21.6314 40.3133 19.8301 37.4685 19.2002 33.9117C18.7248 31.2301 19.0902 28.6623 20.3592 26.2373C21.3022 24.4348 22.5725 22.8888 24.2353 21.6706C24.2528 21.6579 24.2683 21.6401 24.2877 21.6338C24.8265 21.4617 24.842 21.0584 24.8323 20.5852C24.8051 19.2203 24.8213 17.8547 24.8232 16.4898C24.8239 16.0992 24.9215 16.0039 25.3219 16.0033C26.4428 16.0014 27.5636 16.0007 28.6845 16.002C29.1016 16.0026 29.2045 16.0941 29.2077 16.5044C29.2148 17.3301 29.2097 18.1551 29.209 18.9808C29.2077 19.137 29.2077 19.2939 29.2077 19.5042ZM40.0431 31.8964C40.0328 31.8964 40.0224 31.8964 40.0114 31.8964C40.0114 31.3248 40.0321 30.7525 40.003 30.1822C39.9869 29.8722 39.9299 29.5489 39.8142 29.2625C39.6324 28.8122 39.4093 28.3726 39.1603 27.9535C38.1778 26.2995 36.8597 24.9994 35.008 24.2995C33.6698 23.7933 32.2818 23.719 30.8719 23.9133C29.7639 24.0664 28.7006 24.3579 27.7279 24.9175C25.8768 25.9826 24.789 27.6111 24.2023 29.5908C23.8751 30.6947 23.692 31.8189 23.8854 32.9762C24.0749 34.1067 24.4701 35.161 25.0574 36.1487C27.4026 40.0955 31.7676 40.7871 35.0494 39.5397C37.0667 38.7731 38.4236 37.29 39.4267 35.4545C39.8737 34.6371 40.1699 33.7968 40.0477 32.8479C40.0088 32.536 40.0431 32.214 40.0431 31.8964Z" fill="#ffffff"/>
</svg>
