<svg xmlns="http://www.w3.org/2000/svg" width="583" height="582" fill="#000000"><path fill="#000000" fill-rule="evenodd" d="M292 0 155 136.5l136.5 137.496v.504l.253-.249.247.249v-.493L429.5 138.5l-.932-.034 1.432.034L292 0Zm54.488 136.512L291.75 191.25 237 136.5 292 82l54 54.5.488.012ZM136.5 152.5 0 289l130 134 79-77-40-39-39 33.5L82.5 289l54-53L251 346l-96 98.5L292 582l136.5-137.5-94.5-93L446.5 236l54.5 53-47 51.5-40-33.5-40 39 80 77 129-134-136.5-136.5L292 307 136.5 152.5Zm98 293 58.5-56 54.5 56-54.5 57-58.5-57Z" clip-rule="evenodd"/></svg>