<svg xmlns="http://www.w3.org/2000/svg" width="200" height="200" fill="#000000"><path fill-opacity=".204" fill-rule="evenodd" d="M72 4v4H56v8H40v8h-8v8h-8v8h-8v16H8v16H0v56h8v24h8v8h8v8h8v8h8v8h8v8h24v8h56v-8h24v-8h8v-8h8v-8h8v-8h8v-8h8v-23.885l4.25-.308 4.25-.307.265-28.008.265-28.009-4.515.359-4.515.359V56h-8V40h-8v-8h-8v-8h-8v-8h-16V8h-16V0H72zM56 20v4H40v8h-8v8h-8v16h-8v16H8v16h8v-8h8V64h8V48h8v-8h8v-8h8v-8h16v-8H56zm16 24v4h-8v8h-8v8h-8v16h-4c-3.6 0-4 .25-4 2.5 0 1.556.567 2.5 1.5 2.5.825 0 1.5-.675 1.5-1.5q0-1.5 3-1.5t3-1.5c0-1.048 1.056-1.5 3.5-1.5 3.333 0 3.5-.167 3.5-3.5 0-3.417.095-3.5 4-3.5h4v-8h8v-8h8V40h-8zM.441 100c0 15.675.138 22.087.307 14.25.169-7.838.169-20.663 0-28.5C.579 77.912.441 84.325.441 100M160 85.5c0 1.556.567 2.5 1.5 2.5.825 0 1.5.675 1.5 1.5s.675 1.5 1.5 1.5 1.5.675 1.5 1.5c0 1.083 1.111 1.5 4 1.5 3.6 0 4-.25 4-2.5 0-1.556-.567-2.5-1.5-2.5-.825 0-1.5.675-1.5 1.5s-.675 1.5-1.5 1.5c-.833 0-1.5-.889-1.5-2s.667-2 1.5-2c.825 0 1.5-.45 1.5-1s-.675-1-1.5-1-1.5-.675-1.5-1.5c0-1.083-1.111-1.5-4-1.5-3.6 0-4 .25-4 2.5M38 93c0 2.889.417 4 1.5 4 .825 0 1.5.675 1.5 1.5s.675 1.5 1.5 1.5c1.083 0 1.5 1.111 1.5 4s.417 4 1.5 4c.825 0 1.5.675 1.5 1.5 0 1.083 1.111 1.5 4 1.5 3.6 0 4-.25 4-2.5 0-2.75-1.454-3.366-2.362-1-.851 2.219-3.638 1.836-3.638-.5 0-1.111.667-2 1.5-2 .825 0 1.5-.45 1.5-1s-.675-1-1.5-1-1.5-.675-1.5-1.5-.511-1.5-1.135-1.5c-.625 0-2.178-1.125-3.453-2.5S41.624 95 41.048 95 40 94.1 40 93c0-1.111.667-2 1.5-2 .825 0 1.5-.45 1.5-1s-1.125-1-2.5-1c-2.25 0-2.5.4-2.5 4m113-1.5c0 1.556.567 2.5 1.5 2.5q1.5 0 1.5 3t1.5 3c.825 0 1.5.45 1.5 1s1.8 1 4 1c3.905 0 4-.083 4-3.5 0-3.858-.66-4.348-2.488-1.847-.665.909-1.727 1.332-2.36.941-1.665-1.029-1.416-3.594.348-3.594.825 0 1.5-.45 1.5-1s-.675-1-1.5-1-1.5-.675-1.5-1.5c0-1.083-1.111-1.5-4-1.5-3.6 0-4 .25-4 2.5M56 99c0 .55-.675 1-1.5 1-2.099 0-1.882.742 1 3.412 1.375 1.275 2.5 2.828 2.5 3.453 0 .624.45 1.135 1 1.135 1.534 0 1.187-6.956-.429-8.571C56.896 97.753 56 97.604 56 99m84 1c0 1.1.45 2 1 2s1 .675 1 1.5.675 1.5 1.5 1.5 1.5.675 1.5 1.5c0 .933.944 1.5 2.5 1.5 1.375 0 2.5-.45 2.5-1s-.675-1-1.5-1-1.5-.675-1.5-1.5-.675-1.5-1.5-1.5-1.5-.482-1.5-1.071c0-1.125-2.447-3.929-3.429-3.929-.314 0-.571.9-.571 2"/><path fill-opacity=".315" fill-rule="evenodd" d="M72 4v4H56v8H40v8h-8v8h-8v8h-8v16H8v16H0v56h8v24h8v8h8v8h8v8h8v8h8v8h24v8h56v-8h24v-8h8v-8h8v-8h8v-8h8v-8h8v-23.885l4.25-.308 4.25-.307.265-28.008.265-28.009-4.515.359-4.515.359V56h-8V40h-8v-8h-8v-8h-8v-8h-16V8h-16V0H72zM56 20v4H40v8h-8v8h-8v16h-8v16H8v16h8v-8h8V64h8V48h8v-8h8v-8h8v-8h16v-8H56zm16 24v4h-8v8h-8v8h-8v16h-4c-3.6 0-4 .25-4 2.5 0 2.746 2.416 3.464 3.362 1 .316-.825 1.714-1.5 3.107-1.5C47.861 82 49 81.55 49 81s1.575-1 3.5-1c3.417 0 3.5-.095 3.5-4v-4h8v-8h8v-8h8V40h-8zM.441 100c0 15.675.138 22.087.307 14.25.169-7.838.169-20.663 0-28.5C.579 77.912.441 84.325.441 100M148 81.5c0 .825-.675 1.5-1.5 1.5s-1.5.675-1.5 1.5c0 1.179-1.389 1.5-6.5 1.5-7.786 0-10.5 1.939-10.5 7.5 0 3.067.31 3.5 2.5 3.5 1.556 0 2.5-.567 2.5-1.5 0-.825.675-1.5 1.5-1.5s1.5-.675 1.5-1.5q0-1.5 3-1.5t3-1.5c0-.825.675-1.5 1.5-1.5 1.167 0 1.5 1.333 1.5 6s.333 6 1.5 6c.825 0 1.5.675 1.5 1.5s.637 1.5 1.417 1.5c.779 0 1.566.391 1.75.868s1.345 1.182 2.583 1.567c1.674.521 2.25.298 2.25-.868 0-.862-.675-1.567-1.5-1.567s-1.5-.675-1.5-1.5-.675-1.5-1.5-1.5c-.933 0-1.5-.944-1.5-2.5 0-1.375-.45-2.5-1-2.5s-1-2.25-1-5v-5h4c3.6 0 4-.25 4-2.5s-.4-2.5-4-2.5c-2.889 0-4 .417-4 1.5m-76.5 4.036c-1.233 1.506-3.055 2.447-4.75 2.454-1.773.006-2.75.543-2.75 1.51q0 1.5-3 1.5c-2.667 0-3 .333-3 3q0 3 1.5 3c.825 0 1.5.675 1.5 1.5s.675 1.5 1.5 1.5c1.19 0 1.5 1.444 1.5 7 0 3.85.233 7 .517 7s2.422-1.943 4.75-4.317l4.233-4.317 8.25.423c6.186.317 8.25.772 8.25 1.817 0 .767.675 1.394 1.5 1.394s1.5.675 1.5 1.5.511 1.5 1.135 1.5c.625 0 2.178 1.125 3.453 2.5s3.238 2.5 4.364 2.5c1.154 0 2.048.655 2.048 1.5 0 1.167 1.333 1.5 6 1.5s6-.333 6-1.5c0-1.083 1.111-1.5 4-1.5s4-.417 4-1.5c0-1.133 1.222-1.5 5-1.5 4.889 0 5 .067 5 3q0 3 1.5 3t1.5 3c0 1.65.45 3 1 3s1 .675 1 1.5.675 1.5 1.5 1.5 1.5.675 1.5 1.5q0 1.5 3 1.5c1.65 0 3 .45 3 1s.675 1 1.5 1 1.5.675 1.5 1.5c0 .933.944 1.5 2.5 1.5 1.375 0 2.5-.45 2.5-1s-.675-1-1.5-1-1.5-.675-1.5-1.5-.675-1.5-1.5-1.5-1.5-.675-1.5-1.5c0-.845-.894-1.5-2.048-1.5-1.126 0-3.09-1.125-4.364-2.5s-2.828-2.5-3.453-2.5c-.695 0-1.135-1.936-1.135-5 0-3.778.367-5 1.5-5 .825 0 1.5-.675 1.5-1.5s.675-1.5 1.5-1.5 1.5-.42 1.5-.934c0-.513 1.203-1.076 2.673-1.25 2.868-.339 4.548-2.816 1.91-2.816-.87 0-1.583-.675-1.583-1.5s-.675-1.5-1.5-1.5-1.5-.675-1.5-1.5-.675-1.5-1.5-1.5-1.5-.675-1.5-1.5-.675-1.5-1.5-1.5q-1.5 0-1.5 3t1.5 3c.825 0 1.5.675 1.5 1.5s.675 1.5 1.5 1.5 1.5.675 1.5 1.5q0 1.5-3 1.5t-3 1.5-3 1.5-3-1.5c0-.933-.944-1.5-2.5-1.5s-2.5.567-2.5 1.5c0 2.25-5.228 1.883-7.278-.511-.947-1.107-1.722-2.489-1.722-3.072 0-1.375 2.549-3.917 3.929-3.917.589 0 1.071-.675 1.071-1.5s.675-1.5 1.5-1.5 1.5-.675 1.5-1.5c0-.933-.944-1.5-2.5-1.5s-2.5.567-2.5 1.5c0 .825-.675 1.5-1.5 1.5s-1.5.675-1.5 1.5-.675 1.5-1.5 1.5-1.5.675-1.5 1.5c0 1.187-1.409 1.496-6.75 1.483-5.793-.015-7.069-.354-9-2.391-1.237-1.306-2.25-3.548-2.25-4.984 0-1.732-1.346-3.917-4-6.492-2.2-2.135-4-4.385-4-4.999C90 86.418 87.752 86 84 86c-4.667 0-6-.333-6-1.5 0-2.374-4.265-1.695-6.5 1.036m87.5-1.113c0 .783 1.35 2.773 3 4.423 3.022 3.022 3.849 5.154 2 5.154-.55 0-1 .675-1 1.5 0 .833-.889 1.5-2 1.5s-2-.667-2-1.5c0-.825.675-1.5 1.5-1.5s1.5-.675 1.5-1.5-.675-1.5-1.5-1.5-1.5-.45-1.5-1-1.8-1-4-1c-3.6 0-4 .25-4 2.5 0 1.556.567 2.5 1.5 2.5q1.5 0 1.5 3t1.5 3c.825 0 1.5.675 1.5 1.5 0 1.083 1.111 1.5 4 1.5h4v-9h4.5c4.333 0 4.5-.111 4.5-3 0-1.65-.511-3-1.135-3-.625 0-2.178-1.125-3.453-2.5-1.736-1.873-3.331-2.5-6.364-2.5-2.834 0-4.048.427-4.048 1.423m9 5.077c0 .825.675 1.5 1.5 1.5s1.5-.675 1.5-1.5-.675-1.5-1.5-1.5-1.5.675-1.5 1.5M18.25 92.626C14.581 96.499 14.381 97 16.5 97q1.5 0 1.5 3c0 1.65.45 3 1 3s1-.675 1-1.5.675-1.5 1.5-1.5 1.5-.675 1.5-1.5c0-1.152 1.278-1.5 5.5-1.5 3.025 0 5.5-.45 5.5-1s-2.475-1-5.5-1c-5.444 0-5.5-.03-5.5-3 0-3.753-.686-3.663-4.75.626M38 93c0 2.889.417 4 1.5 4 .825 0 1.5.675 1.5 1.5s.675 1.5 1.5 1.5c1.111 0 1.5 1.167 1.5 4.5s.389 4.5 1.5 4.5c.825 0 1.5.45 1.5 1s1.8 1 4 1c3.6 0 4-.25 4-2.5 0-1.556-.567-2.5-1.5-2.5-.825 0-1.5.675-1.5 1.5s-.675 1.5-1.5 1.5-1.5-.675-1.5-1.5.675-1.5 1.5-1.5 1.5-.675 1.5-1.5-.675-1.5-1.5-1.5-1.5-.675-1.5-1.5-.675-1.5-1.5-1.5-1.5-.675-1.5-1.5-.675-1.5-1.5-1.5-1.5-.675-1.5-1.5-.675-1.5-1.5-1.5-1.5-.464-1.5-1.031c0-.568.675-1.291 1.5-1.607 2.366-.908 1.75-2.362-1-2.362-2.25 0-2.5.4-2.5 4m17 5.5c0 .825-.675 1.5-1.5 1.5s-1.5.675-1.5 1.5.675 1.5 1.5 1.5 1.5.675 1.5 1.5.675 1.5 1.5 1.5 1.5.713 1.5 1.583c0 3.527 2.522.463 2.807-3.411.239-3.242-.039-4.172-1.25-4.172-.856 0-1.557-.675-1.557-1.5s-.675-1.5-1.5-1.5-1.5.675-1.5 1.5m113.667-.833c-.367.366-.667 1.679-.667 2.916 0 1.238-.417 2.4-.926 2.584-.509.183-1.233 1.57-1.608 3.083-.532 2.143-.328 2.75.926 2.75.884 0 1.608.45 1.608 1s.675 1 1.5 1c1.051 0 1.5-1.061 1.5-3.548 0-2.5.738-4.232 2.5-5.864 1.375-1.275 2.5-2.828 2.5-3.453 0-1.203-6.202-1.6-7.333-.468M125 104.5c0 .825-.675 1.5-1.5 1.5s-1.5.45-1.5 1 1.125 1 2.5 1c1.556 0 2.5-.567 2.5-1.5 0-.825.675-1.5 1.5-1.5s1.5-.45 1.5-1-1.125-1-2.5-1c-1.556 0-2.5.567-2.5 1.5m-104 6c0 .825-.675 1.5-1.5 1.5s-1.5.675-1.5 1.5-.675 1.5-1.5 1.5-1.5.675-1.5 1.5-.675 1.5-1.5 1.5-1.5.45-1.5 1 1.35 1 3 1q3 0 3 1.5c0 .825.45 1.5 1 1.5s1-.675 1-1.5.675-1.5 1.5-1.5 1.5-.675 1.5-1.5c0-1.25 2-1.5 12-1.5h12v3c0 1.65.45 3 1 3s1-.675 1-1.5.675-1.5 1.5-1.5 1.5-.675 1.5-1.5.675-1.5 1.5-1.5 1.5-.45 1.5-1c0-.625-6-1-16-1H23v-3c0-1.65-.45-3-1-3s-1 .675-1 1.5m34 2.5c0 .55 1.35 1 3 1s3-.45 3-1-1.35-1-3-1-3 .45-3 1m87 7.5c0 1.556.567 2.5 1.5 2.5.825 0 1.5.675 1.5 1.5 0 .933.944 1.5 2.5 1.5s2.5-.567 2.5-1.5c0-1.167 1.333-1.5 6-1.5s6-.333 6-1.5c0-.825.675-1.5 1.5-1.5s1.5-.45 1.5-1c0-1.596-4.727-1.155-5.362.5-.436 1.137-2.279 1.5-7.607 1.5-5.583 0-7.031-.309-7.031-1.5 0-.825-.675-1.5-1.5-1.5-.933 0-1.5.944-1.5 2.5"/><path fill-opacity=".54" fill-rule="evenodd" d="M72 4v4H56v8H40v8h-8v8h-8v8h-8v16H8v16H0v56h8v24h8v8h8v8h8v8h8v8h8v8h24v8h56v-8h24v-8h8v-8h8v-8h8v-8h8v-8h8v-23.885l4.25-.308 4.25-.307.265-28.008.265-28.009-4.515.359-4.515.359V56h-8V40h-8v-8h-8v-8h-8v-8h-16V8h-16V0H72zM56 20v4H40v8h-8v8h-8v16h-8v16H8v16h8v-8h8V64h8V48h8v-8h8v-8h8v-8h16v-8H56zm16 24v4h-8v8h-8v8h-8v16h-4c-3.778 0-4 .167-4 3 0 3.218 2.572 4.279 3.638 1.5.317-.825 1.653-1.5 2.969-1.5 1.46 0 2.393-.585 2.393-1.5 0-1.048 1.056-1.5 3.5-1.5 3.417 0 3.5-.095 3.5-4v-4h8v-8h8v-8h8V40h-8zM.441 100c0 15.675.138 22.087.307 14.25.169-7.838.169-20.663 0-28.5C.579 77.912.441 84.325.441 100M148 81.5c0 .825-.627 1.5-1.393 1.5s-1.652.675-1.969 1.5c-.431 1.124-2.231 1.5-7.178 1.5-7.848 0-9.46 1.181-9.46 6.929 0 3.404.327 4.071 2 4.071 2.083 0 6-3.264 6-5 0-.55 1.35-1 3-1q3 0 3-1.5c0-.825.675-1.5 1.5-1.5 1.167 0 1.5 1.333 1.5 6s.333 6 1.5 6c.825 0 1.5.675 1.5 1.5s.675 1.5 1.5 1.5 1.5.675 1.5 1.5.675 1.5 1.5 1.5 1.5.45 1.5 1 1.103 1 2.45 1 2.81.608 3.25 1.35 3.163 1.622 6.05 1.953l5.25.603v-4.453c0-3.292.391-4.453 1.5-4.453.825 0 1.5-.675 1.5-1.5s.675-1.5 1.5-1.5 1.5-.675 1.5-1.5c0-1.111-1.167-1.5-4.5-1.5-4.333 0-4.5.111-4.5 3q0 3-1.5 3c-.825 0-1.5.675-1.5 1.5 0 2.377-7.142 1.984-9.278-.511-.947-1.107-1.722-2.457-1.722-3s-.675-.989-1.5-.989q-1.5 0-1.5-3t-1.5-3c-1.111 0-1.5-1.167-1.5-4.5V85h4.5c4.133 0 4.5-.204 4.5-2.5s-.367-2.5-4.5-2.5c-3.333 0-4.5.389-4.5 1.5m11 3.5c0 2.833-.222 3-4 3-3.745 0-4 .184-4 2.893 0 1.649.645 3.141 1.5 3.469.825.316 1.5 1.714 1.5 3.107 0 1.392.45 2.531 1 2.531s1 .675 1 1.5c0 1.111 1.167 1.5 4.5 1.5h4.5v-4.5c0-3.333-.389-4.5-1.5-4.5-.825 0-1.5.675-1.5 1.5s-.675 1.5-1.5 1.5c-2.117 0-1.84-1.145.908-3.75 2.742-2.599 3.592-2.804 3.592-.867 0 1.449 2.932 2.58 6.75 2.603 1.822.011 2.25-.541 2.25-2.903 0-1.604.563-3.143 1.25-3.421.688-.277.012-.54-1.5-.583-1.813-.052-2.75.432-2.75 1.421 0 .825-.675 1.5-1.5 1.5s-1.5-.464-1.5-1.031c0-.568.675-1.291 1.5-1.607s1.5-1.203 1.5-1.969S170.325 85 169.5 85s-1.5-.675-1.5-1.5c0-1.111-1.167-1.5-4.5-1.5-4.333 0-4.5.111-4.5 3M52 84c0 .55.675 1 1.5 1s1.5.675 1.5 1.5.675 1.5 1.5 1.5c1.111 0 1.5 1.167 1.5 4.5s.389 4.5 1.5 4.5c.825 0 1.5.675 1.5 1.5s.675 1.5 1.5 1.5c1.19 0 1.5 1.444 1.5 7 0 4.311.412 7 1.071 7 1.385 0 3.929-2.544 3.929-3.929 0-.589.675-1.071 1.5-1.071s1.5-.675 1.5-1.5.71-1.5 1.577-1.5c1.776 0 7.423 5.267 7.423 6.923 0 .592 1.35 1.077 3 1.077q3 0 3 1.5t3 1.5 3 1.5c0 1.246 1.944 1.5 11.5 1.5s11.5-.254 11.5-1.5c0-1.111 1.167-1.5 4.5-1.5s4.5-.389 4.5-1.5c0-1.083 1.111-1.5 4-1.5 3.778 0 4 .167 4 3q0 3 1.5 3t1.5 3 1.5 3c.825 0 1.5.675 1.5 1.5s.675 1.5 1.5 1.5 1.5.675 1.5 1.5q0 1.5 3 1.5t3 1.5c0 .825.675 1.5 1.5 1.5s1.5.675 1.5 1.5c0 .933.944 1.5 2.5 1.5s2.5-.567 2.5-1.5c0-.825-.45-1.5-1-1.5s-1-.675-1-1.5-.675-1.5-1.5-1.5-1.5-.675-1.5-1.5q0-1.5-3-1.5t-3-1.5c0-.825-.675-1.5-1.5-1.5s-1.5-.675-1.5-1.5-.675-1.5-1.5-1.5c-2.377 0-1.984-7.142.511-9.278 1.107-.947 2.457-1.722 3-1.722s.989-.675.989-1.5q0-1.5 3-1.5t3-1.5c0-.825-.675-1.5-1.5-1.5s-1.5-.675-1.5-1.5-.675-1.5-1.5-1.5-1.5-.675-1.5-1.5-.675-1.5-1.5-1.5-1.5-.675-1.5-1.5-.675-1.5-1.5-1.5q-1.5 0-1.5 3t1.5 3c.825 0 1.5.675 1.5 1.5s.675 1.5 1.5 1.5 1.5.675 1.5 1.5q0 1.5-3 1.5t-3 1.5c0 .938-.948 1.5-2.531 1.5-1.393 0-2.791-.675-3.107-1.5s-1.605-1.5-2.862-1.5-2.545.675-2.862 1.5c-.316.825-1.714 1.5-3.107 1.5-1.583 0-2.531-.562-2.531-1.5 0-.825-.675-1.5-1.5-1.5s-1.5-.675-1.5-1.5.675-1.5 1.5-1.5 1.5-.675 1.5-1.5.675-1.5 1.5-1.5 1.5-.675 1.5-1.5.45-1.5 1-1.5 1-.675 1-1.5c0-1.264-2.278-1.5-14.5-1.5S98 96.764 98 95.5c0-.825-.45-1.5-1-1.5s-1-.675-1-1.5-.471-1.5-1.048-1.5c-.576 0-2.09-1.125-3.364-2.5-1.896-2.045-3.257-2.5-7.484-2.5-3.67 0-5.333-.434-5.742-1.5-.471-1.226-2.931-1.5-13.469-1.5C56.964 83 52 83.385 52 84m-32 5.048c0 .576-1.125 2.09-2.5 3.364C14.94 94.785 14.216 97 16 97c.55 0 1 1.35 1 3q0 3 1.5 3c.825 0 1.5-.675 1.5-1.5s.675-1.5 1.5-1.5 1.5-.675 1.5-1.5c0-1.167 1.333-1.5 6-1.5s6-.333 6-1.5-1.333-1.5-6-1.5h-6v-3q0-3-1.5-3c-.825 0-1.5.471-1.5 1.048m18 3.279c0 3.018.479 4.643 1.483 5.028.951.365 1.358 1.567 1.135 3.357-.192 1.533-.153 2.001.086 1.038.77-3.099 2.296-1.863 2.296 1.859 0 4.993 3.309 8.351 8.25 8.374 2.063.009 3.75.467 3.75 1.017s1.35 1 3 1 3-.45 3-1-1.35-1-3-1c-2.667 0-3-.333-3-3q0-3-1.5-3c-.825 0-1.5.712-1.5 1.583 0 1.766-2.153 1.459-2.771-.395-.218-.654.317-1.188 1.188-1.188S52 105.325 52 104.5s-.675-1.5-1.5-1.5-1.5-.675-1.5-1.5-.675-1.5-1.5-1.5-1.5-.511-1.5-1.135c0-.625-1.125-2.178-2.5-3.453C40.643 92.765 40.276 91 42.583 91c2.638 0 .958-2.477-1.91-2.816-2.545-.302-2.673-.103-2.673 4.143m121.667-3.66c-1.151 1.15-.729 2.333.833 2.333.825 0 1.5-.675 1.5-1.5 0-1.562-1.183-1.984-2.333-.833M55 98.5c0 .825-.675 1.5-1.5 1.5s-1.5.675-1.5 1.5.675 1.5 1.5 1.5 1.5.675 1.5 1.5.675 1.5 1.5 1.5 1.5.675 1.5 1.5.675 1.5 1.5 1.5c1.111 0 1.5-1.167 1.5-4.5s-.389-4.5-1.5-4.5c-.825 0-1.5-.675-1.5-1.5s-.675-1.5-1.5-1.5-1.5.675-1.5 1.5m122 3c0 .825-.675 1.5-1.5 1.5q-1.5 0-1.5 3t1.5 3c.825 0 1.5-.675 1.5-1.5s.675-1.5 1.5-1.5 1.5-.675 1.5-1.5c0-.933.944-1.5 2.5-1.5s2.5-.567 2.5-1.5c0-1.083-1.111-1.5-4-1.5s-4 .417-4 1.5m-52 3c0 .825-.675 1.5-1.5 1.5s-1.5.675-1.5 1.5c0 .933.944 1.5 2.5 1.5s2.5-.567 2.5-1.5c0-.825.675-1.5 1.5-1.5s1.5-.675 1.5-1.5c0-.933-.944-1.5-2.5-1.5s-2.5.567-2.5 1.5m-105 6c0 .825-.675 1.5-1.5 1.5s-1.5.482-1.5 1.071c0 1.385-2.544 3.929-3.929 3.929-.589 0-1.071.675-1.071 1.5 0 .933.944 1.5 2.5 1.5s2.5.567 2.5 1.5c0 .825.675 1.5 1.5 1.5s1.5-.675 1.5-1.5.675-1.5 1.5-1.5 1.5-.675 1.5-1.5c0-1.246 1.944-1.5 11.5-1.5H46v3q0 3 1.5 3c.825 0 1.5-.675 1.5-1.5s.675-1.5 1.5-1.5 1.5-.675 1.5-1.5.675-1.5 1.5-1.5 1.5-.439 1.5-.975c0-.58-6.379-1.086-15.75-1.25L23.5 114.5l-.316-2.75c-.328-2.845-3.184-3.967-3.184-1.25m132 4c0 2.19.433 2.5 3.5 2.5s3.5-.31 3.5-2.5-.433-2.5-3.5-2.5-3.5.31-3.5 2.5m-10 5.5q0 3 1.5 3c.825 0 1.5.675 1.5 1.5q0 1.5 3 1.5t3-1.5c0-1.133 1.222-1.5 5-1.5 4.883 0 9-2.287 9-5 0-1.598-5.004-1.154-5.638.5-.435 1.133-2.264 1.5-7.469 1.5-5.46 0-6.893-.312-6.893-1.5 0-.825-.675-1.5-1.5-1.5q-1.5 0-1.5 3"/><path fill-opacity=".234" fill-rule="evenodd" d="M72 4v4H56v8H40v8h-8v8h-8v8h-8v16H8v16H0v56h8v24h8v8h8v8h8v8h8v8h8v8h24v8h56v-8h24v-8h8v-8h8v-8h8v-8h8v-8h8v-23.885l4.25-.308 4.25-.307.265-28.008.265-28.009-4.515.359-4.515.359V56h-8V40h-8v-8h-8v-8h-8v-8h-16V8h-16V0H72zm0 8v4H56v8H40v8h-8v8h-8v16h-8v16H8v22.5c0 19.333.211 22.5 1.5 22.5.859 0 1.5.901 1.5 2.107 0 1.462-.459 1.931-1.5 1.531-1.178-.452-1.5.277-1.5 3.393 0 3.964.005 3.969 4 3.969h4v16h8v16h8v8h8v8h16v8h16v8h40v-8h16v-8h16v-8h8v-16h8v-8h8v-16h-8v16h-8v8h-8v8h-16v8H72v-8H56v-8h-8v-8h-8v-16h-4c-3.905 0-4-.083-4-3.5 0-3.481-.024-3.5-4.5-3.5-2.475 0-4.5.45-4.5 1s-.675 1-1.5 1c-2.069 0-1.877-1.233.511-3.278 1.639-1.403 4.048-1.722 13-1.722H46v2.5c0 1.375.471 2.5 1.048 2.5.576 0 2.09-1.125 3.364-2.5s2.828-2.5 3.453-2.5c.624 0 1.135-.675 1.135-1.5q0-1.5 3-1.5c2.333 0 3-.444 3-2s-.667-2-3-2c-2.533 0-3-.389-3-2.5 0-1.556.567-2.5 1.5-2.5.825 0 1.5.675 1.5 1.5s.675 1.5 1.5 1.5c1.111 0 1.5-1.167 1.5-4.5s-.389-4.5-1.5-4.5c-.825 0-1.5-.675-1.5-1.5s-.675-1.5-1.5-1.5-1.5.675-1.5 1.5-.675 1.5-1.5 1.5-1.5.675-1.5 1.5.675 1.5 1.5 1.5 1.5.45 1.5 1-.482 1-1.071 1c-1.385 0-3.929-2.544-3.929-3.929 0-.589-.675-1.071-1.5-1.071s-1.5-.675-1.5-1.5-.675-1.5-1.5-1.5-1.5-.675-1.5-1.5-.675-1.5-1.5-1.5c-1.941 0-1.941-1.617 0-2.362 3.027-1.161 1.665-3.638-2-3.638-3.481 0-3.5.024-3.5 4.5 0 3.333.389 4.5 1.5 4.5 1.042 0 1.542 1.144 1.636 3.75.084 2.321.301 2.893.57 1.5.757-3.931 2.294-2.424 2.294 2.25 0 3.333.389 4.5 1.5 4.5.825 0 1.5.675 1.5 1.5 0 1.111 1.167 1.5 4.5 1.5 2.475 0 4.5.45 4.5 1 0 .625-6.022 1-16.066 1H22.867l.317-2.673c.339-2.868 2.816-4.548 2.816-1.91 0 1.092.93 1.583 3 1.583 2.97 0 3-.056 3-5.5V100h-4.5c-3.439 0-4.5.373-4.5 1.583 0 .871-.534 1.406-1.188 1.188-1.854-.618-2.161-2.771-.395-2.771.87 0 1.583-.675 1.583-1.5 0-1.167 1.333-1.5 6-1.5s6-.333 6-1.5-1.333-1.5-6-1.5h-6v-3q0-3-1.5-3c-.825 0-1.5.675-1.5 1.5s-.675 1.5-1.5 1.5-1.5.675-1.5 1.5-.675 1.5-1.5 1.5-1.5.675-1.5 1.5.675 1.5 1.5 1.5q1.5 0 1.5 3c0 2.061.492 3 1.571 3 2.021 0 4.429 2.408 4.429 4.429 0 .864-.675 1.571-1.5 1.571s-1.5.45-1.5 1-.675 1-1.5 1-1.5.675-1.5 1.5-.675 1.5-1.5 1.5-1.5.675-1.5 1.5-.675 1.5-1.5 1.5-1.5-.675-1.5-1.5.675-1.5 1.5-1.5 1.5-.675 1.5-1.5.45-1.5 1-1.5c1.016 0 5-3.586 5-4.5 0-.275-.675-.5-1.5-.5s-1.5-.675-1.5-1.5-.675-1.5-1.5-1.5q-1.5 0-1.5-3t-1.5-3c-.825 0-1.5-.675-1.5-1.5s.675-1.5 1.5-1.5 1.5-.675 1.5-1.5.675-1.5 1.5-1.5 1.5-.675 1.5-1.5.675-1.5 1.5-1.5 1.5-.675 1.5-1.5.675-1.5 1.5-1.5 1.5.675 1.5 1.5.675 1.5 1.5 1.5 1.5.675 1.5 1.5q0 1.5 3 1.5c2.97 0 3-.056 3-5.5V80h4c3.778 0 4 .167 4 3 0 2.333.444 3 2 3 1.111 0 2-.667 2-1.5 0-.938.948-1.5 2.531-1.5 1.393 0 2.791-.675 3.107-1.5.328-.855 1.82-1.5 3.469-1.5C55.816 80 56 79.745 56 76v-4h8v-8h8v-8h8V40h-8v-8h56v8h8v8h16v16h8v8h8v-8h-8V48h-8v-8h-8v-8h-8v-8h-16v-8h-16V8H72zM56 44v4h-8v8h-8v24h8V64h8v-8h8v-8h8v-8H56zM.441 100c0 15.675.138 22.087.307 14.25.169-7.838.169-20.663 0-28.5C.579 77.912.441 84.325.441 100M148 81c0 .55-.675 1-1.5 1s-1.5.675-1.5 1.5c0 1.2-1.5 1.5-7.5 1.5s-7.5.3-7.5 1.5c0 .825-.675 1.5-1.5 1.5-1.111 0-1.5 1.167-1.5 4.5V97h-14c-11.778 0-14-.238-14-1.5 0-.825-.675-1.5-1.5-1.5s-1.5-.675-1.5-1.5-.675-1.5-1.5-1.5-1.5-.675-1.5-1.5-.675-1.5-1.5-1.5-1.5-.675-1.5-1.5c0-1.167-1.333-1.5-6-1.5-4.888 0-6-.303-6-1.636 0-1.371-.752-1.533-4.64-1-2.551.35-8.401.636-13 .636-6.764 0-8.36.286-8.36 1.5 0 .825.675 1.5 1.5 1.5s1.5.45 1.5 1 .675 1 1.5 1c1.111 0 1.5 1.167 1.5 4.5s.389 4.5 1.5 4.5c.825 0 1.5.675 1.5 1.5s.675 1.5 1.5 1.5c1.2 0 1.5 1.5 1.5 7.5s.3 7.5 1.5 7.5c.825 0 1.5-.675 1.5-1.5s.675-1.5 1.5-1.5 1.5-.675 1.5-1.5.675-1.5 1.5-1.5 1.5-.675 1.5-1.5.45-1.5 1-1.5 1 .675 1 1.5.675 1.5 1.5 1.5 1.5.675 1.5 1.5.675 1.5 1.5 1.5 1.5.675 1.5 1.5q0 1.5 3 1.5c1.65 0 3 .45 3 1s1.139 1 2.531 1 2.791.675 3.107 1.5c.465 1.212 2.764 1.5 11.969 1.5 6.929 0 11.393-.392 11.393-1 0-.55 2.025-1 4.5-1 3.333 0 4.5-.389 4.5-1.5 0-1.083 1.111-1.5 4-1.5 3.6 0 4 .25 4 2.5 0 1.556.567 2.5 1.5 2.5q1.5 0 1.5 3t1.5 3c.825 0 1.5.675 1.5 1.5s.675 1.5 1.5 1.5 1.5.675 1.5 1.5q0 1.5 3 1.5t3 1.5c0 .825.675 1.5 1.5 1.5s1.5.675 1.5 1.5q0 1.5 3 1.5t3-1.5c0-.825-.675-1.5-1.5-1.5s-1.5-.675-1.5-1.5-.675-1.5-1.5-1.5-1.5-.675-1.5-1.5q0-1.5-3-1.5t-3-1.5c0-.825-.675-1.5-1.5-1.5s-1.5-.675-1.5-1.5-.675-1.5-1.5-1.5c-1.083 0-1.5-1.111-1.5-4s.417-4 1.5-4c.825 0 1.5-.675 1.5-1.5s.675-1.5 1.5-1.5 1.5-.675 1.5-1.5q0-1.5 3-1.5t3-1.5c0-.825.675-1.5 1.5-1.5s1.5.675 1.5 1.5c0 .915.933 1.5 2.393 1.5 1.316 0 2.652.675 2.969 1.5.415 1.083 2.112 1.5 6.107 1.5H171v-4.5c0-3.333.389-4.5 1.5-4.5.825 0 1.5-.675 1.5-1.5s.675-1.5 1.5-1.5c1.167 0 1.5-1.333 1.5-6s-.333-6-1.5-6c-.825 0-1.5-.675-1.5-1.5s-.675-1.5-1.5-1.5-1.5-.482-1.5-1.071C171 80.9 168.038 80 158.071 80c-6.047 0-10.071.4-10.071 1m4.75 4.735-4.75.375v3.945c0 4.467 1.7 5.397 2.184 1.195.283-2.461.763-2.782 4.566-3.057 2.894-.21 4.25-.768 4.25-1.75 0-.794-.338-1.362-.75-1.263s-2.887.349-5.5.555M142 90c0 .55-1.025 1-2.278 1-2.232 0-5.722 3.057-5.722 5.011 0 .544-1.35.989-3 .989q-3 0-3 1.5c0 .825-.675 1.5-1.5 1.5s-1.5.675-1.5 1.5q0 1.5 3 1.5c3.14 0 4.078 1.649 1.5 2.638-2.72 1.044-1.686 3.362 1.5 3.362 1.65 0 3 .45 3 1s1.125 1 2.5 1 2.5-.42 2.5-.934c0-.513 1.203-1.076 2.673-1.25 2.868-.339 4.548-2.816 1.91-2.816-.87 0-1.583-.675-1.583-1.5s-.675-1.5-1.5-1.5q-1.5 0-1.5-3t1.5-3c.825 0 1.5.675 1.5 1.5s.675 1.5 1.5 1.5 1.5.675 1.5 1.5.675 1.5 1.5 1.5 1.5.45 1.5 1 .675 1 1.5 1 1.5-.45 1.5-1-.675-1-1.5-1-1.5-.675-1.5-1.5-.675-1.5-1.5-1.5c-1.152 0-1.5-1.278-1.5-5.5s-.348-5.5-1.5-5.5c-.825 0-1.5.45-1.5 1m18 0c0 .55.45 1 1 1s1-.45 1-1-.45-1-1-1-1 .45-1 1m8 0c0 .55.675 1 1.5 1s1.5-.45 1.5-1-.675-1-1.5-1-1.5.45-1.5 1m-5 3c0 .55.45 1 1 1s1-.45 1-1-.45-1-1-1-1 .45-1 1m-12 4.5c0 1.375.45 2.5 1 2.5s1-1.125 1-2.5-.45-2.5-1-2.5-1 1.125-1 2.5m9-1.5c0 .55.45 1 1 1s1-.45 1-1-.45-1-1-1-1 .45-1 1m6 3c0 2.2.45 4 1 4s1-1.8 1-4-.45-4-1-4-1 1.8-1 4m-12 2.5c0 .825.45 1.5 1 1.5s1-.675 1-1.5-.45-1.5-1-1.5-1 .675-1 1.5m23 0c0 .825-.675 1.5-1.5 1.5-1.083 0-1.5 1.111-1.5 4s.417 4 1.5 4c.825 0 1.5.675 1.5 1.5 0 1.083 1.111 1.5 4 1.5s4-.417 4-1.5c0-.825.675-1.5 1.5-1.5 1.083 0 1.5-1.111 1.5-4 0-2.2-.45-4-1-4s-1-.675-1-1.5c0-1.111-1.167-1.5-4.5-1.5s-4.5.389-4.5 1.5m-55 3c0 .825-.675 1.5-1.5 1.5s-1.5.675-1.5 1.5c0 2.069 1.233 1.877 3.278-.511 1.922-2.246 2.238-3.989.722-3.989-.55 0-1 .675-1 1.5m35 0c0 1.083 1.111 1.5 4 1.5s4-.417 4-1.5-1.111-1.5-4-1.5-4 .417-4 1.5M50 107c0 .55.45 1 1 1s1-.45 1-1-.45-1-1-1-1 .45-1 1m72 3c0 .55 1.125 1 2.5 1s2.5-.45 2.5-1-1.125-1-2.5-1-2.5.45-2.5 1m30 5c0 2.762.278 3 3.5 3 1.925 0 3.5.45 3.5 1 0 .571-3 1-7 1-5.556 0-7-.31-7-1.5 0-.825-.675-1.5-1.5-1.5q-1.5 0-1.5 3t1.5 3c.825 0 1.5.675 1.5 1.5q0 1.5 3 1.5t3-1.5c0-1.167 1.333-1.5 6-1.5s6-.333 6-1.5c0-.825.45-1.5 1-1.5s1-.675 1-1.5c0-.933-.944-1.5-2.5-1.5-2 0-2.5-.5-2.5-2.5 0-2.25-.4-2.5-4-2.5-3.778 0-4 .167-4 3m-140.333 5.667C10.233 122.1 11.133 123 14 123q3 0 3 1.5c0 .833.889 1.5 2 1.5 1.1 0 2-.492 2-1.094 0-.601-.9-1.329-2-1.616s-2-1.146-2-1.907c0-1.405-4.094-1.955-5.333-.716"/></svg>