<svg xmlns="http://www.w3.org/2000/svg" width="200" height="200" fill="#000000"><path fill-opacity=".11" fill-rule="evenodd" d="M80.5 1.659C48.62 8.474 20.628 31.347 7.933 60.956 2.41 73.838.87 80.909.281 96.09c-.565 14.553.725 24.068 4.93 36.363 11.136 32.564 38.857 57.223 73.289 65.192 12.419 2.875 33.933 2.443 46.706-.938 31.016-8.21 55.822-29.961 67.385-59.085 3.176-7.998 6.342-20.864 6.479-26.33.062-2.461.172-2.555.93-.792.533 1.24.841-3.13.811-11.5-.029-8.258-.344-12.335-.811-10.5l-.763 3-.126-3.5c-.069-1.925-.991-7.1-2.049-11.5-9.23-38.373-39.952-67.611-78.9-75.091-9.396-1.804-28.649-1.676-37.662.25m6.822 29.439c-22.183 3.704-43.357 20.878-52.017 42.191-7.718 18.992-6.921 38.393 2.366 57.644 3.79 7.855 5.915 10.781 12.709 17.5 9.082 8.982 16.113 13.55 26.285 17.08 32.335 11.22 68.339-2.723 84.323-32.653 4.459-8.349 3.881-15.155-1.802-21.233-5.452-5.831-12.562-7.076-19.963-3.493-3.342 1.618-5.44 3.745-8.677 8.795-5.009 7.814-9 11.427-16.546 14.981-4.645 2.187-6.899 2.59-14.5 2.59-7.757 0-9.76-.373-14.507-2.705-10.675-5.242-18.221-15.31-20.067-26.771-3.744-23.249 17.4-44.136 40.449-39.956 11.075 2.008 18.607 7.351 25.875 18.352 3.872 5.86 7.114 8.422 12.077 9.541 10.983 2.477 21.191-6.346 20.39-17.624-.502-7.057-5.236-14.796-15.239-24.912-6.627-6.702-9.669-8.916-17.5-12.74-14.21-6.94-28.567-9.106-43.656-6.587m4.576 56.172c-13.301 8.886-5.285 29.802 10.419 27.186 5.486-.914 11.209-6.691 12.151-12.268 2.094-12.393-12.204-21.843-22.57-14.918M.392 100c0 7.425.157 10.463.35 6.75s.192-9.787 0-13.5c-.193-3.713-.35-.675-.35 6.75"/><path fill-opacity=".357" fill-rule="evenodd" d="M86.5.651C73.089 2.81 57.409 8.839 45.668 16.349c-7.457 4.771-21.75 18.521-27.24 26.207C12.495 50.861 5.519 65.788 2.798 76c-2.949 11.069-3.21 35.522-.494 46.363C9.68 151.806 28.906 175.89 55.5 189c32.904 16.22 70.344 13.711 101.41-6.795 7.509-4.957 19.784-17.249 25.053-25.086 8.922-13.273 15.37-30.465 16.734-44.619.503-5.225.855-6.366 1.389-4.5.393 1.375.7-2.675.683-9-.019-6.589-.311-10.005-.685-8-.569 3.055-.742 2.611-1.357-3.5-1.606-15.95-9.035-34.151-19.737-48.353-13.163-17.469-32.837-30.491-54.844-36.301C116.588.851 93.59-.49 86.5.651m-4.27 31.3c-18.537 5.02-35.673 18.542-44.051 34.762-18.351 35.53-4.822 78.068 30.321 95.336 22.065 10.842 46.484 10.034 67.309-2.228 7.321-4.311 19.758-16.79 24.136-24.217 8.903-15.105 1.54-30.304-14.208-29.331-7.178.444-9.763 2.276-15.9 11.267-5.84 8.557-11.426 12.869-20.197 15.592-16.083 4.993-33.445-2.524-41.204-17.838-2.635-5.201-2.936-6.767-2.936-15.294 0-8.186.366-10.281 2.648-15.148C73.799 72.799 84.592 65.805 98.5 65.184c13.902-.62 24.323 5.179 31.992 17.803 7.059 11.62 18.262 14.14 27.669 6.224 10.288-8.657 7.112-21.984-9.122-38.285C134.561 36.389 122.33 31.048 102 30.388c-10.216-.331-13.829-.046-19.77 1.563M93.5 85.959c-1.1.458-3.321 2.229-4.936 3.936-2.389 2.524-3.011 4.175-3.339 8.854-.335 4.799-.015 6.313 1.936 9.149 6.612 9.608 18.802 9.217 25.565-.82 6.162-9.143-1.309-22.17-12.624-22.015-2.531.035-5.502.438-6.602.896M.378 100c0 6.325.163 8.912.361 5.75s.198-8.338 0-11.5-.361-.575-.361 5.75"/><path fill-opacity=".685" fill-rule="evenodd" d="M85.5 1.081C76.34 2.359 61 7.688 52.444 12.563 10.184 36.646-9.44 84.623 4.671 129.365c4.926 15.62 12.748 28.502 24.561 40.452 27.671 27.989 68.914 36.948 106.521 23.138 34.363-12.619 60.014-46.193 62.996-82.455.502-6.1.819-7.288 1.336-5 .399 1.762.673-.92.665-6.5-.008-5.901-.26-8.174-.665-6-.55 2.953-.759 2.323-1.337-4.03-.767-8.429-4.373-21.804-8.23-30.525-6.119-13.836-20.341-30.926-33.518-40.278C136.972 3.954 110.408-2.394 85.5 1.081M82 31.888C59.05 38.131 40.57 55.502 32.945 78c-3.378 9.965-3.885 29.018-1.047 39.361 8.179 29.813 33.376 50.563 63.588 52.365 12.654.755 23.388-1.486 35.511-7.415 7.948-3.886 10.888-6.045 18.018-13.227C159.586 138.435 164 130.68 164 122.758c0-9.818-6.941-16.758-16.762-16.758-7.54 0-12.43 2.913-16.731 9.968-7.352 12.057-17.333 18.19-29.837 18.335-21.174.244-37.012-16.409-35.407-37.228 2.061-26.723 32.103-40.96 54.368-25.765 3.054 2.084 6.742 6.093 9.894 10.756 6.144 9.089 11.297 12.301 18.695 11.649 13.122-1.156 19.756-14.896 13.19-27.316-8.716-16.488-24.791-29.172-43.561-34.374-9.503-2.633-26.434-2.698-35.849-.137M94.5 85.47c-10.834 3.922-13.561 17.879-4.968 25.424 4.118 3.615 7.15 4.546 12.482 3.831 4.97-.667 9.297-3.754 11.363-8.106 5.953-12.545-5.915-25.84-18.877-21.149M.36 100c0 5.225.169 7.362.375 4.75s.206-6.888 0-9.5S.36 94.775.36 100"/><path fill-opacity=".13" fill-rule="evenodd" d="M91 .691c-6.82.724-18.342 3.348-19.72 4.492-.769.638-2.568 1.285-3.998 1.437s-2.866.638-3.191 1.079S62.825 8.5 62 8.5s-1.376.596-1.225 1.324-.209 1.026-.8.66c-1.389-.858-8.196 2.35-7.472 3.522.303.489-.293.727-1.323.529-2.069-.399-7.56 3.752-6.443 4.869.386.386.013.437-.829.114-.944-.362-2.934.776-5.195 2.972-2.016 1.958-4.013 3.593-4.439 3.635s-.661.48-.524.975c.138.495-.312.788-1 .65-.687-.137-1.126.346-.975 1.074s-.074 1.109-.501.845c-1.374-.849-7.37 5.948-7.661 8.685-.156 1.457-.62 2.986-1.031 3.398-.412.411-.658.298-.547-.252.507-2.514-.198-2.562-2.1-.145-1.136 1.444-1.803 3.049-1.484 3.566.32.518.055 1.266-.589 1.664-.731.452-.903.291-.457-.43.392-.635.513-1.155.269-1.155-.728 0-3.872 5.141-4.102 6.709-.117.798-.856 1.858-1.642 2.356-1.056.667-1.092.908-.141.92.856.01.649.702-.616 2.06-2.387 2.562-4.886 8.808-4.675 11.683.089 1.199-.191 1.962-.622 1.695-.728-.449-1.471 1.776-3.784 11.327-2.696 11.129-1.89 33.261 1.557 42.75.799 2.2 1.579 4.45 1.733 5 2.206 7.853 2.834 9.5 3.625 9.5.512 0 .693.617.404 1.371s.207 2.104 1.103 3 1.302 1.629.902 1.629c-.399 0-.068.787.736 1.75s1.938 2.875 2.522 4.25c.964 2.273 3.324 5.394 11.131 14.719 1.849 2.208 3.323 3.074 4.695 2.759 1.1-.253 1.463-.21.806.096-1.513.704-.533 3.426 1.234 3.426.729 0 1.604.878 1.944 1.95.632 1.992 7.349 6.755 8.84 6.269.454-.148.569.145.256.651-.555.899 2.18 2.604 3.67 2.289.413-.088.75.283.75.824s2.25 2.123 5 3.517c2.879 1.459 5 2.055 5 1.406 0-.62.788-.254 1.75.814 2.344 2.6 7.25 4.676 7.25 3.067 0-.682.52-.519 1.25.394 1.269 1.588 7.591 3.457 15.75 4.657 6.019.885 26.499.84 31.5-.069 2.2-.4 5.575-.964 7.5-1.252 5.097-.764 11.135-3.049 10.29-3.894-.401-.401.033-.436.965-.079.976.375 3.124-.233 5.066-1.433 1.855-1.147 3.666-1.79 4.026-1.431s.653.128.653-.513c0-.642.338-1.114.75-1.049 2.265.358 3.252-.357 3.265-2.368.012-1.69.235-1.903.899-.856.729 1.152 1.51 1.007 4.491-.835 1.992-1.231 3.312-2.709 2.947-3.299-.386-.625-.19-.778.472-.369 1.38.853 7.176-3.249 7.176-5.079 0-.722.572-1.312 1.271-1.312s2.254-1.013 3.456-2.25 3.668-3.756 5.479-5.597c1.812-1.841 3.294-3.77 3.294-4.287s.535-1.27 1.19-1.674c1.484-.918 6.492-8.225 6.725-9.814.095-.647.645-1.784 1.221-2.527s2.052-3.601 3.278-6.351 2.596-5.699 3.044-6.554c2.182-4.165 5.71-22.086 6.091-30.946.139-3.234.211-3.31.951-1 .59 1.841.801.919.801-3.5s-.211-5.341-.801-3.5c-.742 2.317-.814 2.244-.977-1-.097-1.925-.364-4.4-.594-5.5s-.493-3.463-.586-5.25c-.092-1.788-.571-3.25-1.064-3.25s-.625-.44-.293-.977c.557-.902-.762-7.513-2.199-11.023-.338-.825-.675-1.725-.75-2-.898-3.315-2.062-5.827-3.405-7.355-.898-1.02-1.582-2.145-1.521-2.5s-.33-1.91-.869-3.456c-.703-2.016-1.442-2.636-2.611-2.191-1.275.485-1.368.356-.426-.594.942-.949.309-2.492-2.895-7.059-2.255-3.215-4.485-5.845-4.955-5.845s-.742-.409-.605-.909c.39-1.417-6.407-7.106-7.645-6.4-.608.346-.783.273-.39-.162 1.113-1.234-1.203-4.748-2.741-4.157-.83.318-1.179.022-.882-.752.282-.735-1.438-2.497-4.051-4.148-2.497-1.579-4.541-3.231-4.541-3.671 0-.441-.675-.801-1.5-.801s-1.5-.477-1.5-1.059-.412-.805-.915-.494-1.178 0-1.5-.691c-.469-1.008-.701-1.008-1.17 0-.809 1.735-2.461.529-1.764-1.288.309-.807.065-1.468-.544-1.468-1.855 0-2.551-.301-3.963-1.713-1.065-1.065-1.667-1.098-2.806-.152-1.152.955-1.388.921-1.144-.168.452-2.023-17.413-7.741-27.961-8.95C102.643.033 97.925-.043 91 .691M86.677 29.4c-.485 1.262-7.922 3.303-10.032 2.753-.471-.123-1.463.281-2.206.898s-1.832.824-2.42.461-.945-.065-.794.664c.151.728-.287 1.211-.975 1.074-.687-.138-1.25.248-1.25.857s-.698.839-1.552.511c-.89-.341-1.291-.173-.941.393.336.544.134.989-.448.989S65 37.534 65 36.965s-1.416.579-3.148 2.55c-1.747 1.991-3.749 3.355-4.5 3.067-.743-.286-1.352-.136-1.352.333 0 .468-.902 1.088-2.004 1.376q-2.005.523-1.393 2.116c.336.876.113 1.649-.496 1.718s-1.669.181-2.357.25c-.687.069-1.306.688-1.375 1.375-.291 2.909-.411 3.244-1.125 3.132-2.063-.326-3.25.265-3.25 1.618 0 .825-.498 1.5-1.107 1.5s-.858.649-.553 1.443c.329.858-.836 2.663-2.874 4.453-1.885 1.655-2.996 3.277-2.467 3.603.592.366.504 1.324-.228 2.497-.961 1.537-1.484 1.672-2.73.703-1.324-1.031-1.363-.971-.274.424 1.468 1.88.577 5.197-1.122 4.179-.63-.377-.47.162.355 1.198.874 1.098.979 1.571.25 1.133-.899-.54-1.251.178-1.254 2.558-.002 1.82-.895 4.772-1.985 6.559S28.417 88 28.892 88c.474 0 .646 2.362.382 5.25-.71 7.769-.709 7.936.085 12 .509 2.61.377 3.75-.436 3.75-.856 0-.836.4.077 1.5.928 1.118.944 1.5.063 1.5-.649 0-.898.457-.553 1.016.346.559 1.042.761 1.548.448.505-.312.634.176.285 1.085s-.107 1.979.538 2.377c.645.399 1.273 2.153 1.396 3.897.122 1.745.673 3.181 1.223 3.19.55.01.325.454-.5.987-1.282.828-1.246.972.25.985.962.008 1.654.353 1.538.765-.117.412.349 1.762 1.035 3s.951 2.25.59 2.25c-.362 0-.04.761.715 1.692 1.181 1.456 1.163 1.589-.128.954-.825-.406-.487.012.75.93 1.237.917 2.25 2.263 2.25 2.989 0 .727.952 1.988 2.115 2.803 2.539 1.778 5.854 7.007 5.964 9.406.048 1.05.277 1.235.585.472.871-2.161 8.277 3.804 8.385 6.754.084 2.296.162 2.337.951.5.473-1.1.891-1.411.93-.691.038.72.482 1.055.985.744s1.065-.225 1.25.191c.184.416 2.551 2.303 5.26 4.194s4.598 2.908 4.198 2.261q-.723-1.173.851-.571c1.11.426 1.278.966.567 1.822-.715.863-.577 1.217.475 1.217.816 0 1.484-.601 1.484-1.336 0-.999.92-.842 3.66.627 2.014 1.079 4.039 1.728 4.5 1.443.462-.286.84-.091.84.433s.698 1.22 1.552 1.548c.976.374 1.299.187.872-.505-.482-.781.881-.889 4.698-.372 2.958.4 5.534 1.144 5.725 1.653.192.511.984.397 1.768-.253.908-.754 3.22-.966 6.403-.589 2.74.324 4.982.22 4.982-.231 0-1.346 8.314-2.069 9.782-.851 1.004.833 1.256.767 1.024-.269-.168-.756.219-1.395.861-1.42.641-.025 1.488-.367 1.881-.76s1.496-.297 2.45.214c1.343.718 2.359.23 4.485-2.157 1.984-2.226 2.965-2.736 3.524-1.831.552.894.967.648 1.445-.859.368-1.161.98-2.025 1.359-1.919s1.665-.35 2.858-1.013c1.705-.946 2.292-.938 2.741.038.314.683.321.232.015-1.002-.432-1.743-.207-2.109 1.01-1.643.869.334 1.565.082 1.565-.565 0-.641.52-.845 1.155-.453.634.393.899.302.588-.202-.685-1.108 1.086-3.473 3.78-5.05 1.087-.636 1.855-1.679 1.705-2.317-.161-.683.66-1.029 2-.843 1.433.2 2.176-.155 2.013-.961-.143-.703.431-1.543 1.275-1.867 1.264-.485 1.31-.866.26-2.159-1.087-1.338-1.009-1.47.526-.895 1.142.428 1.564.291 1.152-.375-.357-.579.139-1.924 1.103-2.989s1.346-1.953.848-1.972c-.498-.02.22-.679 1.595-1.465s1.947-1.445 1.271-1.465c-.947-.027-.967-.608-.089-2.535.626-1.375 1.503-2.5 1.947-2.5s.521-.749.17-1.664c-.411-1.071-.246-1.422.462-.984 1.565.967 2.302-.672 1.079-2.4-.8-1.13-.884-1.008-.375.548.512 1.567.39 1.739-.563.792-.956-.948-.943-1.538.063-2.75.704-.848.945-1.542.535-1.542s-.127-.749.628-1.664c1.251-1.516 1.162-1.552-.999-.4-1.304.695-2.09.809-1.746.254.814-1.317-.348-4.329-1.416-3.67-.453.28-1.111-.397-1.462-1.505-.352-1.108-1.172-2.047-1.822-2.085-.651-.039-.283-.432.817-.873 1.792-.719 1.615-.989-1.707-2.595-2.039-.985-3.475-2.167-3.191-2.627s.077-.835-.46-.835c-.536 0-1.202.562-1.48 1.25-.388.961-.522.948-.583-.059-.043-.72-.417-1.099-.829-.843s-.577-2.08-.365-5.191.587-5.094.834-4.407c.246.688 1.873 1.236 3.614 1.218 3.001-.03 3.065-.109 1.226-1.5-1.524-1.152-2.112-1.199-2.735-.218-.632.996-.796.993-.809-.015-.019-1.601 6.015-5.335 7.319-4.529.54.334.657.088.261-.551-.392-.635-.21-1.155.405-1.155s.84-.45.5-1-.156-1 .41-1c.565 0 .74-.749.389-1.664-.401-1.044-.242-1.419.426-1.006 1.394.862 2.206-1.377 1.8-4.965-.178-1.576.106-3.391.631-4.034.638-.781.448-1.453-.572-2.024-.84-.47-1.666-1.76-1.834-2.866s-1.243-3.345-2.386-4.976-1.88-3.527-1.638-4.215c.244-.693-.376-1.281-1.393-1.32-1.663-.064-1.648-.15.167-.93 1.799-.773 1.736-.866-.635-.93-2.575-.068-5.817-3.538-6.285-6.726-.113-.77-.534-1.363-.936-1.319-.788.085-5.664-3.642-9.525-7.281-1.31-1.234-2.024-1.605-1.586-.823.493.88-.183.689-1.775-.5-1.414-1.057-2.56-2.146-2.546-2.421.095-1.889-.383-2.283-1.212-1q-.969 1.5-.985.25c-.008-.687-.809-1.25-1.78-1.25-.97 0-3.445-.901-5.499-2.002s-4.072-2.013-4.485-2.028c-4.056-.144-8.251-1.465-8.251-2.598 0-.755-.477-1.372-1.059-1.372s-.721.563-.308 1.25c.568.946.363.935-.844-.042-.877-.71-1.751-.872-1.942-.359-.196.527-2.303.638-4.847.256-2.475-.371-6.3-.365-8.5.016-2.2.38-4.427.283-4.95-.215-1.403-1.338-3.261-1.101-3.873.494m41.76 4.371c.342.341 1.324.723 2.184.85.859.126 1.283-.05.942-.392-.342-.341-1.324-.723-2.184-.85-.859-.126-1.283.05-.942.392m25.376 18.912c.721.289 1.584.253 1.916-.079s-.258-.568-1.312-.525c-1.165.048-1.402.285-.604.604M9.543 61.931c-.317.512-.193 1.167.274 1.456s.85-.13.85-.931c0-1.686-.316-1.833-1.124-.525m157 14c-.317.512-.193 1.167.274 1.456s.85-.13.85-.931c0-1.686-.316-1.833-1.124-.525M157 92c-1.282.828-1.246.972.25.985.963.008 1.75-.435 1.75-.985 0-1.22-.113-1.22-2 0m-18.493 1.989c-.35.566.051.734.941.393 1.732-.665 2.049-1.382.611-1.382-.518 0-1.216.445-1.552.989M.31 100.5c.005 3.3.192 4.529.415 2.732s.218-4.497-.01-6C.486 95.729.304 97.2.31 100.5m144.503 4.183c.721.289 1.584.253 1.916-.079s-.258-.568-1.312-.525c-1.165.048-1.402.285-.604.604M28 119.059c0 .582.45.781 1 .441s1-.816 1-1.059-.45-.441-1-.441-1 .477-1 1.059m5.459 11.008c-.363.586-.445 1.281-.183 1.543s.743-.218 1.069-1.067c.676-1.762.1-2.072-.886-.476m18.62 24.516c.048 1.165.285 1.402.604.605.289-.722.253-1.585-.079-1.917s-.568.258-.525 1.312m74.793 11.167c-1.243 1.586-1.208 1.621.378.378 1.666-1.307 2.195-2.128 1.372-2.128-.207 0-.995.787-1.75 1.75M114 170c-.825.533-1.05.969-.5.969s1.675-.436 2.5-.969 1.05-.969.5-.969-1.675.436-2.5.969"/></svg>