<svg xmlns="http://www.w3.org/2000/svg" width="501" height="500" fill="#000000"><path fill-opacity=".11" fill-rule="evenodd" d="M218 1.573c-34.036 4.802-68.807 17.102-97.762 34.582-52.445 31.662-93.14 85.102-110.291 144.832C-8.509 245.262.002 316.135 33.102 373.794 72.799 442.948 140.529 488.164 220 498.566c15.932 2.086 55.401 1.52 70-1.003 81.822-14.139 149.78-64.34 185.34-136.911 14.362-29.309 21.397-54.673 25.145-90.652 1.896-18.195 1.894-24.49-.01-41.155-4.133-36.162-11.023-60.698-25.135-89.497C439.777 66.771 371.954 16.666 290 2.428 276.449.073 232.339-.45 218 1.573m-67.601 87.399c-18.519 9.039-29.69 28.862-28.013 49.712.953 11.86 5.837 21.436 15.969 31.316 13.065 12.74 29.125 18.751 39.033 14.611 7.956-3.324 15.717-15.067 16.433-24.863.516-7.074-.295-8.165-7.655-10.295-8.475-2.453-19.222-7.685-23.5-11.442-10.564-9.274-13.06-28.291-6.131-46.699 1.306-3.472 2.283-6.308 2.17-6.303-.113.006-3.85 1.789-8.306 3.963m195.413 4.278c2.204 6.117 2.618 8.969 2.65 18.25.034 9.8-.245 11.6-2.553 16.5-6.264 13.295-20.507 20.43-51.813 25.954-15.159 2.675-21.588 4.996-28.101 10.144-5.7 4.506-9.141 9.286-12.252 17.021-1.986 4.941-2.207 7.71-2.703 33.881-.586 30.951-.613 31.094-6.458 34.634-2.823 1.709-6.321 1.91-41.582 2.395-37.287.512-38.683.601-44.317 2.847-8.001 3.188-17.699 12.38-21.755 20.618-3.882 7.885-4.863 15.25-4.863 36.506 0 28.725 1.692 34.853 12.662 45.88 6.238 6.269 6.311 6.405 4.224 7.867-5.926 4.151-17.222 13.88-23.419 20.169l-6.968 7.073 4.869 4.943 4.869 4.943 7.206-6.285c8.602-7.503 17.701-14.089 26.848-19.434l6.712-3.922 7.569 2.404c21.088 6.696 43.028 9.627 72.863 9.732 30.044.107 55.516-3.183 75.5-9.751l7.5-2.465 11.5 7.595c8.479 5.6 14.958 11.037 24.665 20.701l13.164 13.106 6.086-5.373c3.347-2.955 6.085-5.955 6.085-6.665 0-2.28-22.164-23.801-32.539-31.594l-10.038-7.541 5.641-5.533c3.177-3.117 6.906-8.113 8.538-11.441l2.898-5.909.341-25c.366-26.852-.235-32.344-4.459-40.713-3.225-6.39-7.201-10.722-15.464-16.848-4-2.965-7.989-6.925-9.371-9.301-2.856-4.914-8.883-25.22-11.131-37.507-2.699-14.756.196-20.414 13.972-27.305C367.395 171.317 379 155.879 379 135.121c0-14.77-4.858-27.119-14.431-36.686C359.068 92.938 347.837 86 344.44 86c-.86 0-.44 2.218 1.372 7.25m-220.7 104.266c-8.644 2.428-16.565 7.245-23.091 14.041-8.08 8.414-11.269 15.431-11.828 26.023l-.426 8.081 2.866 1.117c5.303 2.068 10.836 3.211 15.568 3.216 22.399.027 43.325-17.118 46.772-38.32 1.47-9.045.657-11.263-4.837-13.189-6.69-2.346-18.495-2.803-25.024-.969m230.606-.424c-2.081.489-5.18 1.613-6.888 2.496l-3.104 1.605.563 7.447c1.425 18.836 17.614 36.29 37.492 40.419 7.275 1.511 17.839.645 23.687-1.942 4.499-1.99 4.532-2.041 4.532-6.972 0-10.079-5.6-22.482-13.697-30.332-11.082-10.746-28.667-15.999-42.585-12.721m-174.263 5.363c-4.988 4.987-2.37 11.549 5.545 13.899l4.5 1.337-5.612 2.538c-8.832 3.995-11.288 9.462-6.433 14.316 3.205 3.206 4.799 3.112 16.89-.993 5.585-1.896 13.305-3.973 17.155-4.616 4.391-.732 7.839-1.935 9.25-3.226 2.873-2.629 3.01-7.95.275-10.685-4.548-4.548-29.977-15.025-36.468-15.025-1.478 0-3.732 1.084-5.102 2.455m107.393-.437c-6.819 3.602-10.534 12.684-8.696 21.255 1.317 6.14 6.672 12.007 12.565 13.766 11.326 3.379 23.198-9.613 20.345-22.263-2.708-12.007-14.187-18.056-24.214-12.758M.378 250c0 6.325.163 8.913.361 5.75.198-3.162.198-8.338 0-11.5s-.361-.575-.361 5.75m168.616 20.934c-7.608 2.314-13.027 6.879-16.108 13.566-1.62 3.518-1.845 6.807-1.864 27.29-.025 26.357.264 27.622 7.876 34.499 15.984 14.44 63.483 23.598 107.551 20.734 45.408-2.95 74.514-13.029 82.038-28.407l2.65-5.416-.318-22.85c-.298-21.362-.464-23.121-2.54-27.003-1.222-2.285-3.922-5.56-6-7.279-7.479-6.186-5.797-6.077-92.211-5.982-43.212.047-79.696.429-81.074.848m10.879 19.75c-5.064 3.143-5.873 5.941-5.873 20.32V324.2l3.4 3.4 3.4 3.4h10.696C208.71 331 211 328.505 211 309.747c0-10.264-.236-11.802-2.28-14.835-3.34-4.956-5.984-5.884-16.72-5.871-7.025.009-10.184.437-12.127 1.643m116.694.262c-4.898 3.23-5.493 5.37-5.532 19.904L291 324.2l3.4 3.4 3.4 3.4h22.229l3.736-3.421 3.735-3.42.329-12.476c.373-14.121-.579-17.34-6.128-20.723-4.621-2.819-20.866-2.827-25.134-.014"/><path fill-opacity=".176" fill-rule="evenodd" d="M229 .633c-1.375.199-6.55.847-11.5 1.44-12.254 1.467-29.782 5.395-42.866 9.605C85.2 40.458 20.746 114.792 3.826 208.667 1.763 220.113 1.513 224.58 1.513 250s.25 29.887 2.313 41.333c9.506 52.743 33.096 98.426 69.755 135.086 38.541 38.54 85.688 62.505 139.919 71.12 13.921 2.211 46.272 3.016 61.07 1.52 60.565-6.126 115.137-32.63 156.881-76.193 36.959-38.571 59.375-85.385 67.69-141.366 1.772-11.933 1.772-51.067 0-63-8.315-55.981-30.731-102.795-67.69-141.366-40.814-42.592-93.517-68.752-152.445-75.668C267.913.164 235.934-.368 229 .633M153.902 86.94c-20.469 7.797-32.902 27.992-31.627 51.371.411 7.533.997 9.853 4.044 16 10.767 21.725 38.039 37.159 52.566 29.748 9.683-4.94 18.397-22.137 15.167-29.934-1.018-2.456-2.539-3.288-11.223-6.132-17.089-5.597-26.049-13.403-28.867-25.151-1.85-7.712-.741-21.857 2.376-30.305 1.413-3.83 2.477-7.05 2.365-7.156s-2.272.595-4.801 1.559m189.581 1.028c2.577 4.983 5.517 17.818 5.517 24.087 0 3.154-.898 8.641-1.995 12.193-4.677 15.144-18.24 23.006-49.505 28.7-21.873 3.983-29.032 7.169-37.358 16.628-7.839 8.906-8.477 12.021-9.097 44.472-.603 31.566-.707 32.076-7.304 35.681-2.893 1.581-7.38 1.825-41.741 2.271l-38.5.5-6.774 3.209c-12.411 5.879-21.351 17.426-23.807 30.751-.673 3.654-.96 15.072-.741 29.5.328 21.655.532 23.922 2.543 28.311 3.086 6.738 8.1 13.425 12.483 16.647l3.748 2.757-8.143 6.412c-9.417 7.416-23.809 21.228-23.809 22.85 0 1.413 7.933 10.063 9.228 10.063.536 0 4.085-2.88 7.887-6.4 6.784-6.281 20.299-16.019 28.571-20.585l4.186-2.311 10.814 3.14c42.15 12.243 102.576 12.026 143.648-.514l8.834-2.697 4.354 2.379c8.892 4.857 22.316 15.689 33.706 27.195l11.729 11.849 6.271-5.729c3.45-3.151 6.421-6.085 6.603-6.52.582-1.393-25.038-26.196-33.331-32.267-4.4-3.222-8.375-6.184-8.833-6.582s1.459-2.866 4.259-5.486c3.092-2.891 6.365-7.347 8.333-11.342l3.241-6.579.297-26.358c.249-22.055.03-27.283-1.338-32.025-2.681-9.289-7.451-16.15-15.287-21.986-6.583-4.904-12.115-10.253-13.631-13.182-1.411-2.727-7.816-25.257-9.628-33.871-.622-2.954-.951-8.187-.732-11.63.532-8.352 3.546-12.325 12.588-16.59 16.346-7.711 28.411-18.435 34.379-30.557 2.887-5.865 3.343-7.889 3.682-16.34.473-11.757-.91-18.905-5.39-27.86-5.342-10.677-17.61-20.996-29.262-24.612-2.31-.717-2.314-.703-.695 2.428M124.105 197.526c-17.326 4.841-31.045 19.564-34.203 36.704-.656 3.56-.907 7.615-.557 9.01.89 3.545 7.25 5.941 17.326 6.527C132.322 251.26 156 229.884 156 205.234c0-4.22-.138-4.408-4.75-6.473-6.175-2.765-19.502-3.371-27.145-1.235m232.395-.84c-1.1.249-3.913 1.158-6.25 2.02l-4.25 1.566v6.207c0 16.696 12.306 33.322 30.09 40.655 7.362 3.035 24.002 3.295 31.281.487l4.871-1.879-.446-7.698c-1.063-18.368-15.904-35.525-35.164-40.654-4.877-1.298-15.825-1.681-20.132-.704m-175.326 5.628c-4.924 5.242-1.663 12.787 6.151 14.23 4.439.82 3.975 1.523-2.627 3.98-5.517 2.054-7.698 4.61-7.698 9.024 0 3.853 3.572 7.452 7.394 7.452 1.522 0 6.443-1.288 10.936-2.861 7.925-2.776 14.107-4.361 21.976-5.635 2.093-.338 4.68-1.49 5.75-2.56 2.323-2.323 2.558-7.622.47-10.603-3.074-4.389-29.33-15.341-36.778-15.341-2.26 0-4.128.775-5.574 2.314m109.827-1.191c-9.542 3.805-13.82 16.936-8.751 26.857 2.591 5.07 5.955 7.836 10.827 8.901 7.419 1.622 13.986-1.686 17.673-8.901 7.548-14.772-5.514-32.533-19.749-26.857m-120.675 69.921c-5.727 1.133-9.485 3.234-13.055 7.3-5.899 6.719-6.412 9.703-6.075 35.358l.304 23.132 3.032 4.333c10.506 15.012 43.041 24.404 88.491 25.545 47.084 1.181 84.445-6.78 99.973-21.305 7.497-7.013 8.258-10.528 7.841-36.211L350.5 288.5l-3.093-5.5c-3.824-6.8-10.769-11.405-18.623-12.348-7.786-.935-153.569-.574-158.458.392m8.572 20.243c-4.859 3.269-6.132 7.927-5.714 20.908.285 8.871.695 11.174 2.401 13.5 3.347 4.563 7.934 6.309 16.415 6.247 9.578-.07 13.836-1.558 16.715-5.84 2.076-3.086 2.285-4.539 2.285-15.846 0-18.792-2.174-21.256-18.756-21.256-8.706 0-10.372.285-13.346 2.287m117-.002c-4.521 3.039-5.774 7.163-5.84 19.215-.061 11.161 1.307 15.293 6.268 18.929 2.421 1.774 4.287 2.071 13 2.071 16.312 0 18.674-2.663 18.674-21.049 0-18.773-2.342-21.451-18.756-21.451-8.703 0-10.374.286-13.346 2.285"/><path fill-opacity=".118" fill-rule="evenodd" d="M231.5.607c-36.141 3.689-63.478 11.338-92.457 25.871-23.855 11.964-42.714 25.369-61.915 44.011-39.316 38.169-63.819 84.86-73.247 139.572-2.024 11.75-2.315 16.77-2.315 39.939s.291 28.189 2.315 39.939c9.428 54.712 33.931 101.403 73.247 139.572 38.151 37.039 84.797 59.931 138.872 68.155 14.22 2.163 51.944 2.482 65.5.554 14.782-2.102 29.301-5.216 41.5-8.902 89.609-27.077 156.493-101.846 173.508-193.962C514.932 195.612 471.659 95.516 386 39.738 356.165 20.311 321.263 7.52 283 1.992 275.25.872 238.568-.114 231.5.607m4.897 83.487L222.311 98.18l-15.905-9.026c-11.489-6.519-15.996-8.623-16.232-7.577-.179.797 1.326 10.33 3.344 21.186 4.314 23.201 5.301 25.263 14.426 30.126 9.758 5.202 22.199 7.344 42.556 7.331 18.31-.013 28.803-1.426 38.881-5.238 6.927-2.619 13.092-7.834 14.541-12.298 1.256-3.873 8.209-41.887 7.745-42.35-.181-.182-7.64 3.791-16.575 8.829l-16.245 9.158-14.182-14.156-14.182-14.157zm-86.513 4.586c-9.014 4.492-18.422 13.539-22.172 21.32-8.266 17.15-7.606 36.281 1.736 50.355 10.841 16.333 33.21 28.968 45.449 25.673 8.691-2.341 18.512-15.241 19.785-25.988.829-7-.42-8.459-9.921-11.595-16.758-5.529-24.445-11.092-28.947-20.945-1.916-4.194-2.284-6.693-2.286-15.5-.002-9.99.909-14.581 5.013-25.25.963-2.504-.344-2.213-8.657 1.93m194.651 2.816c3.811 10.125 5.003 19.285 3.561 27.356-3.473 19.435-15.355 27.17-52.552 34.212-24.541 4.646-34.089 10.42-40.858 24.711L251.5 184.5l-.5 29.046c-.446 25.933-.696 29.345-2.328 31.834-3.797 5.79-5.525 6.029-47.672 6.599l-38.5.521-5.748 2.822c-8.859 4.348-16.099 11.579-20.493 20.464l-3.759 7.602-.325 25.794c-.273 21.706-.062 26.706 1.332 31.556 2.132 7.421 6.541 14.293 12.362 19.269l4.629 3.956-2.452 1.718c-5.428 3.801-19.867 16.416-24.931 21.78l-5.384 5.704 5.294 5.36 5.293 5.36 6.591-6.068c7.325-6.745 17.131-13.923 27.345-20.019l6.754-4.031 8.246 2.601c19.145 6.039 37.666 8.64 66.246 9.303 32.535.755 57.211-2.082 80.648-9.271l8.655-2.655 8.348 5.452c11.49 7.502 19.668 14.38 31.021 26.091l9.671 9.977 6.578-5.883c3.618-3.235 6.578-6.213 6.578-6.618.001-.405-4.612-5.528-10.249-11.385-10.256-10.655-20.518-19.603-28.497-24.849l-4.248-2.792 6.39-6.774c9.866-10.458 10.798-13.692 11.371-39.464.547-24.585-.451-33.218-4.897-42.348-3.343-6.865-8.08-12.083-17.407-19.174-3.271-2.488-6.928-6.313-8.127-8.5-3.253-5.938-10.396-32.882-10.996-41.478-.46-6.596-.234-8.037 1.874-11.951 2.096-3.893 3.787-5.21 13.486-10.5 14.243-7.77 20.319-12.504 26.358-20.539 7.259-9.657 9.433-16.291 9.344-28.51-.058-7.999-.576-11.421-2.585-17.102-4.955-14.007-13.613-23.646-26.544-29.553-3.425-1.565-6.668-2.845-7.205-2.845-.538 0 .123 2.923 1.468 6.496M123.5 197.35c-16.194 5.362-28.974 18.109-32.956 32.871-.932 3.454-1.548 8.304-1.369 10.779.298 4.13.654 4.664 4.325 6.491 5.651 2.813 19.648 3.307 28.188.996 12.412-3.36 24.849-13.998 30.511-26.099 2.528-5.402 3.09-7.912 3.185-14.224l.116-7.664-4-1.97c-5.06-2.491-21.898-3.201-28-1.18m227.861.731c-5.992 2.304-6.634 3.911-5.31 13.282 1.96 13.863 12.326 27.253 26.536 34.279 7.699 3.806 7.96 3.858 19.385 3.858 9.342 0 12.42-.378 15.919-1.954l4.338-1.953-.43-8.201c-.351-6.688-1.029-9.417-3.675-14.792-5.681-11.539-16.578-20.803-28.979-24.636-8.512-2.63-20.775-2.579-27.784.117m-169.625 3.169c-2.937 2.231-3.886 6.454-2.302 10.246 1.167 2.793 2.281 3.652 6.227 4.803l4.806 1.401-4.947 2.188c-2.721 1.204-5.751 2.916-6.733 3.805-2.486 2.249-2.378 8.716.188 11.282 3.313 3.313 6.081 3.343 14.062.148 4.105-1.642 12.188-3.942 17.963-5.11 11.892-2.406 14.4-4.05 14.4-9.441 0-4.633-2.354-7.019-11.4-11.554-14.982-7.512-28.36-10.733-32.264-7.768m108.764.631c-4.758 2.185-6.89 4.415-8.962 9.373C276.651 222.952 284.815 237 296.5 237c12.031 0 20.085-14.598 14.619-26.5-2.185-4.758-4.415-6.89-9.373-8.962-4.696-1.962-6.336-1.912-11.246.343m-126.117 71.521c-5.533 2.577-9.821 7.363-11.956 13.346-.958 2.684-1.345 9.874-1.361 25.252-.025 24.333.475 26.544 7.557 33.422 22.826 22.169 111.179 28.725 161.377 11.974 15.592-5.203 24.15-10.849 28.059-18.511 1.755-3.441 1.941-6.012 1.941-26.877 0-25.497-.403-27.664-6.301-33.88-1.759-1.855-4.999-4.207-7.199-5.228-3.793-1.76-8.227-1.857-85.5-1.868l-81.5-.012zm18.26 15.562c-7.437 2.396-9.643 7.375-9.643 21.769 0 17.454 3.457 21.267 19.284 21.267 9.647 0 13.138-1.179 16.628-5.615 1.873-2.381 2.088-3.987 2.088-15.57 0-14.137-.84-17.169-5.62-20.302-3.142-2.058-18.011-3.071-22.737-1.549m117 0c-7.562 2.436-9.643 7.022-9.643 21.252 0 18.03 3.323 21.784 19.284 21.784 9.647 0 13.138-1.179 16.628-5.615 1.873-2.381 2.088-3.987 2.088-15.57 0-14.137-.84-17.169-5.62-20.302-3.142-2.058-18.011-3.071-22.737-1.549m-189.312 67.973c-2.293 1.041-4.694 2.874-5.336 4.072-.987 1.845-.807 2.564 1.169 4.68C109.706 369.482 113.376 371 119 371c5.461 0 9.365-1.536 12.384-4.872 1.786-1.974 1.795-2.206.17-4.686-2.103-3.21-8.857-6.398-13.554-6.398-1.925 0-5.376.852-7.669 1.893m-12.108 20.724c-4.22 2.08-8.223 6.852-8.223 9.802 0 2.865 5.108 5.537 10.585 5.537 5.133 0 12.198-3.597 14.509-7.387 2.602-4.267 2.415-5.332-1.344-7.624-3.976-2.424-10.974-2.572-15.527-.328m60.432 10.5c-2.599 1.472-5.607 8.598-5.631 13.339-.025 4.864 2.532 10.166 6.202 12.856 2.691 1.973 2.752 1.974 4.852.073 3.839-3.474 5.171-7.315 4.716-13.603-.601-8.305-5.978-15.022-10.139-12.665m-53.318 16.353c-5.106 3.061-8.612 9.591-8.151 15.183.297 3.593.518 3.82 3.994 4.109 4.689.39 10.911-2.721 13.935-6.968 1.549-2.175 2.419-5.079 2.705-9.023l.42-5.815-4.37.009c-2.867.007-5.802.868-8.533 2.505m32.561.744c-3.814 2.535-7.898 9.739-7.898 13.934 0 3.437 2.869 10.808 4.207 10.808 2.692 0 8.229-3.707 10.315-6.906 3.408-5.226 4.059-10.283 2.015-15.637-1.966-5.146-3.584-5.558-8.639-2.199"/><path fill-opacity=".182" fill-rule="evenodd" d="M230 1.019c-32.329 3.038-60.873 11.012-89.551 25.019C91.088 50.146 51.065 90.335 26.46 140.5c-11.588 23.626-18.627 46.442-23.138 75-2.2 13.933-2.475 52.554-.469 66q6.45 43.227 23.576 78c20.119 40.847 48.96 73.733 86.556 98.694 65.027 43.174 146.097 53.193 221.015 27.315 14.996-5.18 40.506-17.967 54.5-27.318 15.726-10.509 25.965-18.851 38.404-31.29 37.089-37.09 60.747-82.73 70.27-135.568 2.063-11.446 2.313-15.913 2.313-41.333s-.25-29.887-2.313-41.333c-9.523-52.838-33.181-98.478-70.27-135.568-31.11-31.11-71.188-53.888-114.607-65.137C288.76 1.864 253.066-1.147 230 1.019m6.496 82.905L222.5 97.847l-16.391-9.449c-9.016-5.197-16.608-9.233-16.872-8.969-.436.437 4.004 26.157 6.831 39.571 3.044 14.443 21.209 21.885 53.61 21.965 22.846.056 37.407-2.806 46.935-9.225 2.645-1.782 5.596-4.6 6.557-6.262 1.59-2.749 10.179-45.462 9.316-46.326-.203-.202-7.536 3.73-16.297 8.74S279.858 97 279.367 97c-.492 0-6.957-6.075-14.367-13.5S251.295 70 251.01 70s-6.817 6.266-14.514 13.924m-86.295 4.182c-12.637 6.128-22.682 18.284-26.749 32.369-2.497 8.649-2.285 22.408.456 29.63 5.678 14.961 20.292 28.981 35.979 34.518 3.637 1.284 8.188 2.334 10.113 2.334 11.364-.003 23.641-13.563 24.737-27.321.597-7.49-.22-8.416-10.237-11.596-20.925-6.645-29.187-15.018-31.13-31.55-.77-6.552 1.093-18.357 4.053-25.686 2.839-7.027 2.198-7.267-7.222-2.698m192.307-1.356c5.568 13.506 7.054 27.364 4.044 37.718-4.211 14.487-18.781 22.549-51.552 28.525-20.931 3.817-29.449 8.038-36.745 18.208-7.015 9.78-7.641 13.165-8.006 43.299-.193 15.942-.764 28.111-1.393 29.712-.651 1.655-2.708 3.506-5.277 4.75-3.98 1.927-6.045 2.038-37.758 2.038-18.452 0-35.972.452-38.935 1.005-13.331 2.488-27.152 13.565-32.039 25.678-2.272 5.631-2.347 6.731-2.347 34.338v28.521l3.234 6.568c2.004 4.073 5.291 8.515 8.648 11.69l5.414 5.12-9.148 7.47c-5.031 4.108-12.284 10.649-16.118 14.536l-6.969 7.067 5.345 5.412 5.345 5.412 8.124-7.035c8.14-7.048 18.009-14.112 27.689-19.82l5.17-3.048 7.633 2.501c40.79 13.369 110.281 13.115 150.016-.548l5.382-1.851 5.847 3.552c10.241 6.221 23.083 16.821 33.476 27.63l10.087 10.493 6.873-6.199 6.874-6.2-1.688-2.575c-4.78-7.296-29.568-29.961-38.602-35.298l-2.913-1.721 5.413-5.284c3.442-3.361 6.587-7.764 8.64-12.099l3.228-6.815.346-23.424c.374-25.313-.357-32.036-4.407-40.576-3.327-7.016-7.507-11.732-15.9-17.939-3.99-2.951-8.191-6.881-9.336-8.733-2.256-3.65-9.163-27.174-11.181-38.079-1.639-8.858-.69-14.919 2.992-19.112 1.583-1.804 7.13-5.417 12.326-8.03 21.402-10.765 34.047-26.46 35.365-43.896 1.681-22.221-9.233-42.291-27.848-51.212-8.272-3.965-10.429-4.368-9.349-1.749M128.067 196.135c-20.11 3.336-37.729 22.317-38.861 41.864l-.443 7.653 4.949 2.129C120.501 259.305 156 235.776 156 206.495v-6.191l-3.75-1.659c-4.021-1.778-13.176-3.72-16.636-3.528-1.163.064-4.559.522-7.547 1.018m229.34-.104c-6.06 1.201-11.347 3.648-12.095 5.598-1.148 2.993 1.344 16.147 4.142 21.867 9.425 19.264 33.171 31.046 52.559 26.079 11.44-2.931 12.44-4.632 9.862-16.776-5.031-23.69-31.23-41.376-54.468-36.768M183 200.294c-5.024 2.541-6.251 10.379-2.193 14.017.931.835 3.268 1.948 5.193 2.472l3.5.953-4.5 2.002c-5.983 2.663-8.4 5.523-8.4 9.941 0 2.667.703 4.185 2.756 5.951 3.557 3.059 5.546 2.982 14.678-.57 4.143-1.612 12.018-3.842 17.5-4.957 8.035-1.634 10.402-2.529 12.216-4.62 2.621-3.023 2.823-5.474.777-9.43-1.769-3.422-15.617-10.49-28.329-14.46-9.513-2.972-9.83-3.003-13.198-1.299m104.875 3.145c-8.798 5.978-10.132 19.642-2.74 28.062 6.013 6.849 15.479 7.12 21.969.63C318.42 220.816 311.67 201 296.5 201c-3.69 0-5.995.652-8.625 2.439m-120.241 68.592c-5.115 1.532-10.298 5.937-13.248 11.261-2.869 5.178-2.888 5.324-3.235 25.208-.447 25.654.227 29.009 7.238 36.019 11.581 11.581 36.926 18.884 75.189 21.665 43.201 3.14 91.452-5.801 108.582-20.122 7.175-5.997 7.84-8.841 7.84-33.512 0-13.456-.437-23.278-1.141-25.628-1.655-5.522-6.476-10.835-12.288-13.541l-5.071-2.361-80.5.076c-44.275.042-81.79.462-83.366.935m12.428 17.796c-5.742 3.08-7.062 6.903-7.062 20.457 0 13.323 1.026 16.542 6.299 19.756 2.622 1.599 5.049 1.953 13.416 1.956 9.995.004 10.291-.063 13.738-3.089 4.753-4.173 5.862-8.538 5.392-21.232-.441-11.891-1.706-14.757-7.916-17.923-4.881-2.489-19.17-2.444-23.867.075m117.194-.182c-5.986 2.951-7.256 6.498-7.256 20.273 0 13.718.992 16.887 6.299 20.122 2.622 1.599 5.049 1.953 13.416 1.956 9.994.004 10.292-.063 13.736-3.087 4.642-4.076 5.849-8.926 5.38-21.612-.425-11.479-1.743-14.405-7.902-17.545-4.58-2.336-19.021-2.401-23.673-.107M112.88 355.172c-1.992.531-5.042 2.432-6.78 4.225l-3.159 3.259 2.201 2.797c2.663 3.386 9.162 6.495 13.64 6.525 6.166.041 14.218-4.506 14.218-8.029 0-2.467-6.248-7.646-10.723-8.889-4.311-1.197-4.496-1.195-9.397.112m-12.38 21.035c-4.652 1.626-9.075 5.353-10.535 8.878-1.244 3.004-1.165 3.346 1.259 5.431 7.164 6.162 20.555 2.614 25.385-6.726 1.389-2.686 1.384-3.141-.052-4.727-1.683-1.859-8.013-4.116-11.173-3.984-1.036.043-3.234.551-4.884 1.128m56.274 13.543c-6.083 6.433-5.634 17.323.987 23.944 3.131 3.131 3.611 3.307 5.582 2.044 2.933-1.88 6.657-9.422 6.657-13.482 0-4.452-2.305-9.707-5.595-12.757-3.419-3.168-4.429-3.135-7.631.251m-49.315 13.13c-7.232 3.285-12.471 12.239-10.877 18.591 1.893 7.541 17.654 1.057 21.358-8.786 2.39-6.349.431-11.71-4.261-11.663-1.199.012-3.998.848-6.22 1.858m32.043.695c-4.254 2.218-6.122 4.105-8.015 8.093-3.464 7.301-1.036 18.332 4.036 18.332 3.33 0 10.072-6.242 11.537-10.683 1.54-4.665.706-12.813-1.569-15.327-2.16-2.387-2.201-2.39-5.989-.415"/></svg>