<svg xmlns="http://www.w3.org/2000/svg" width="200" height="200" fill="#000000"><path fill-opacity=".361" fill-rule="evenodd" d="M82 1.693C41.23 8.923 8.615 41.879 1.609 82.926c-11.65 68.25 47.215 127.115 115.465 115.465 40.843-6.972 74.69-40.356 80.997-79.891.702-4.4 1.648-8.427 2.103-8.95 1.056-1.215 1.092-20.832.036-20.18-.435.269-1.363-3.15-2.063-7.598s-2.731-11.954-4.512-16.68C176.499 19.648 129.921-6.804 82 1.693M.37 100c0 5.775.165 8.138.367 5.25s.202-7.612 0-10.5S.37 94.225.37 100"/><path fill-opacity=".184" fill-rule="evenodd" d="M82.74 1.583c-20.802 3.76-38.323 12.931-53.275 27.882C9.18 49.75-1.131 76.318.342 104.5c2.397 45.857 33.285 82.662 78.158 93.132 11.032 2.575 31.968 2.575 43 0 39.045-9.11 68.966-39.513 76.083-77.309.913-4.853 2.056-9.604 2.539-10.559 1.045-2.066 1.198-21.418.162-20.381-.394.393-1.29-2.686-1.993-6.844-5.238-31.012-26.237-58.796-54.791-72.496-18.707-8.975-40.856-12.059-60.76-8.46m5.091 21.371c-19.369 3.554-36.425 13.334-48.243 27.661C22.121 71.791 16.915 99.879 25.617 126c3.845 11.543 9.593 20.417 19.819 30.601 7.657 7.625 10.674 9.857 18.602 13.76C76.829 176.659 86.574 179 100 179c13.429 0 23.163-2.339 36-8.652 8.149-4.007 10.853-6.035 19.013-14.26 10.583-10.668 14.123-16.064 12.363-18.853-2.026-3.213-4.493-1.832-10.299 5.765-9.833 12.866-23.825 22.391-39.113 26.624-8.849 2.451-27.079 2.451-35.928 0-26.306-7.284-46.012-28.24-51.713-54.994-1.942-9.113-1.23-25.642 1.474-34.213 3.038-9.63 9.177-20.316 15.644-27.23C62.108 37.509 79.128 30 100 30s37.892 7.509 52.559 23.187c6.456 6.903 12.591 17.573 15.655 27.23 2.259 7.117 3.705 28.897 1.989 29.957-.582.36-1.339-.228-1.682-1.308-.787-2.48-4.164-3.607-6.069-2.026-2.061 1.71-1.884 2.727 2.148 12.36 4.336 10.359 5.034 10.557 15.355 4.35 7.286-4.381 9.094-6.781 7.005-9.298-1.662-2.003-3.635-1.819-7.123.664l-2.971 2.116.776-3.866c1.331-6.635.735-23.428-1.096-30.866-3.908-15.87-14.983-33.307-27.324-43.017-7.639-6.01-19.102-11.88-28.249-14.463-8.368-2.364-25.648-3.441-33.142-2.066m6.813 29.071c-1.263 2.139-1.607 3.931-1.11 5.787l.719 2.688 1.329-3c1.025-2.316 1.342-2.544 1.388-1 .05 1.662.225 1.746 1.03.5 1.331-2.059 1.238-4.292-.263-6.345-1.153-1.576-1.423-1.457-3.093 1.37m19.408 1.155c1.221 4.258 4.029 6.115 5.543 3.665.417-.674.277-.884-.336-.505-.577.357-1.316-.047-1.643-.898-.34-.885-.171-1.285.395-.935 2.034 1.257.899-1.456-1.234-2.95-3.223-2.258-3.749-1.945-2.725 1.623m-11.302.907c-1.941 3.41-2.177 5.691-.811 7.848.691 1.092 1.144.614 1.894-2 .756-2.63 1.008-2.894 1.077-1.126.049 1.27.54 2.031 1.09 1.691 1.733-1.071.971-9.512-.857-9.494-.354.004-1.43 1.39-2.393 3.081m-16 5.063q-2.75 2.017-2.717 4.683l.034 2.667 1.966-2.361c2.198-2.638 2.554-2.128.821 1.177-1.123 2.141-1.105 2.148.911.36 2.298-2.039 3.775-6.545 2.54-7.754-.443-.433-2.042.12-3.555 1.228M110 63.409c0 2.643.588 4.834 1.5 5.591 1.26 1.046 1.511.865 1.57-1.128.066-2.218.126-2.242.93-.372.755 1.758.868 1.659.93-.816.084-3.363-1.302-6.229-3.402-7.035-1.226-.47-1.528.272-1.528 3.76m14.121-3.314c-3.094.646-5.067 2.251-5.106 4.155-.021 1.039.758.941 3.301-.414 1.974-1.052 2.052-1.004.812.5-1.828 2.216.08 2.126 2.873-.136 3.352-2.714 2.314-4.98-1.88-4.105M74 61.596C74 63.431 78.44 68 80.223 68c2.059 0 2.062-.028.182-2.146-1.904-2.144-1.904-2.145.595-.939 2.416 1.165 2.406 1.12-.306-1.355C78.187 61.273 74 60.044 74 61.596m18.165 2.637c-2.269 3.671-2.597 5.477-1.511 8.307.578 1.506.87 1.428 2.513-.668 1.6-2.041 1.776-2.093 1.265-.372-.587 1.973-.574 1.973.986.059 1.932-2.371 2.046-6.542.247-9.003-1.246-1.704-1.479-1.592-3.5 1.677M103 67.941c0 1.618.402 3.189.893 3.493 1.06.655 2.43-4.102 1.579-5.48-1.184-1.915-2.472-.88-2.472 1.987m23.223-.384C125 68.413 124 69.818 124 70.679c0 1.345.239 1.372 1.692.193 1.457-1.181 1.585-1.163.926.128-.422.825-.058.626.808-.441 1.345-1.658 2.17-4.559 1.297-4.559-.153 0-1.278.701-2.5 1.557m-56.98 1.693c1.651 2.499 5.719 3.674 5.399 1.559C74.253 68.241 72.844 67 70.319 67c-2.432 0-2.487.115-1.076 2.25m48.507.636c-1.513 1.449-2.75 3.613-2.75 4.807 0 1.294-.809 2.429-2.001 2.807-2.336.742-4.087 3.597-3.792 6.184.371 3.248-1.263 9.693-3.947 15.566-2.08 4.551-3.103 5.75-4.909 5.75-2.601 0-3.786-1.829-4.792-7.396-1.332-7.367-6.137-11.701-12.759-11.508-3.009.088-2.882.198 1.445 1.25 2.737.666 5.367 2.051 6.216 3.274 1.839 2.651 3.777 9.938 3.672 13.803-.101 3.695-1.678 5.426-2.406 2.642-.297-1.137-.132-1.816.366-1.507.499.308.907.083.907-.499 0-1.343-3.673-5.059-5-5.059-1.21 0-1.204-.199-.1 3.65l.899 3.136-5.273-3.124-5.273-3.125 1.515-3.178c1.564-3.277.942-8.126-.701-5.468-.685 1.108-.91 1.104-1.323-.028-.301-.825-.777-.313-1.206 1.294-.411 1.542-.205 3.596.49 4.896 1.097 2.049 1.011 2.19-1.016 1.66-1.636-.428-1.143.339 1.886 2.932 2.977 2.548 4.083 4.244 4.032 6.183-.063 2.392-.161 2.462-.93.672-.827-1.924-.862-1.916-.93.203-.098 3.068 1.983 7.297 3.591 7.297 1.712 0 1.825-7.114.139-8.8-2.08-2.08.584-1.303 4.383 1.279 4.714 3.203 6.244 7.74 6.245 18.521 0 6.575-.488 9.576-2.157 13.25L90.112 146l-18.806.025-18.806.025 4.211 3.975L60.923 154h78.154l4.212-3.975 4.211-3.975-19.296-.025-19.296-.025-2.444-5.25c-1.959-4.207-2.441-6.84-2.427-13.25l.017-8 3.863-2.381c2.124-1.31 4.861-4.159 6.082-6.332 2.44-4.341 7.216-7.777 10.817-7.783 3.191-.005 6.109-1.66 9.934-5.633 3.444-3.578 3.903-3.589 2.194-.055-.994 2.055-.935 2.044 1-.177 1.965-2.256 2.953-9.16 1.306-9.122-1.526.035-5.25 4.83-5.25 6.759 0 2.2-3.904 5.224-6.746 5.224-1.099 0-2.262-1.184-2.948-3-1.579-4.184-3.722-3.949-3.027.332.499 3.075.275 3.428-2.906 4.578-2.141.774-4.374 2.715-5.895 5.125Q108.712 113 104.566 113c-2.444 0-1.862-3.391 1.514-8.822 3.297-5.304 4.858-10.491 4.896-16.273.015-2.302.743-4.246 2.024-5.405 1.1-.995 2-2.457 2-3.247 0-.791.97-2.634 2.156-4.095 1.216-1.498 1.884-1.894 1.532-.908-.344.963-.351 1.75-.017 1.75 1.21 0 3.266-3.549 3.297-5.691.047-3.249-1.145-3.369-4.218-.423m13.465 1.065c-1.768 1.615-3.215 3.637-3.215 4.493 0 1.879 1.126 1.996 2.947.306 1.087-1.01 1.195-.985.561.13-.535.938-.342 1.234.603.926 2.046-.668 4.147-5.523 3.156-7.294-.695-1.242-1.385-.997-4.052 1.439m-52.312.926-2.318 1.877 4.316.729c3.34.565 4.678.366 5.921-.877 1.475-1.475 1.405-1.607-.858-1.621-1.958-.012-2.156-.215-.964-.985 1.177-.761.932-.973-1.139-.985-1.452-.008-3.683.83-4.958 1.862m18.779-.226c-.776.776 2.285 3.272 4.068 3.317.688.018 1.138-.53 1-1.218-.457-2.283-3.587-3.58-5.068-2.099m-31.908 6.436c-.3 2.044.157 3.819 1.353 5.25l1.806 2.163.113-2.5c.061-1.375.34-1.935.618-1.244.769 1.906 2.338.433 1.64-1.538C70.563 78.124 67.961 75 66.959 75c-.403 0-.936 1.389-1.185 3.087M92 75.8c0 1.424 2.351 3.2 4.235 3.2 1.525 0 1.655-.338.765-2-1.024-1.913-5-2.867-5-1.2m-17.286.819C73.712 77.621 76.678 80 78.929 80c2.606 0 2.68-1.604.137-2.965-2.212-1.183-3.465-1.303-4.352-.416m48.536 1.602c-2.492 2.667-3.269 6.87-.908 4.91.738-.612 1.628-.828 1.976-.479.914.914 1.898-2.128 1.511-4.672l-.329-2.166zm-39.479 1.196c-.271 1.419.083 3.368.786 4.331 1.168 1.596 1.342 1.502 1.991-1.084.491-1.957.248-3.297-.786-4.331-1.33-1.33-1.553-1.208-1.991 1.084m17.788.051c2.515 1.903 4.108 1.915 4.108.032 0-1.003-1.003-1.5-3.025-1.5-2.874 0-2.928.073-1.083 1.468m30.026 1.051c-.835 3.324.129 4.963 2.004 3.407 1.79-1.486 1.801-3.358.026-4.83-1.106-.918-1.515-.631-2.03 1.423m6.146-.917c-1.164 1.165.979 6.911 2.702 7.243 1.501.289 1.74-.09 1.26-1.994-.569-2.255-.534-2.272.857-.41 1.093 1.463 1.45 1.572 1.45.441 0-2.745-4.779-6.77-6.269-5.28m-80.72 1.885c-.724.872-.917 2.217-.468 3.25.732 1.684.785 1.684 1.187.001.232-.969.837-1.505 1.346-1.191.508.314.924-.356.924-1.488 0-2.421-1.256-2.661-2.989-.572M91 84.032c0 2.226.599 3.259 2.25 3.884 2.909 1.1 3.181.761 1.667-2.08-1.133-2.126-1.095-2.213.419-.964 1.415 1.168 1.664 1.16 1.664-.05C97 82.858 94.958 81 92.8 81c-1.338 0-1.8.779-1.8 3.032m-17.313.718c.343.963 1.076 2.334 1.63 3.047 1.476 1.903 2.827-.66 1.578-2.993-1.273-2.379-4.054-2.426-3.208-.054M63 87.965c0 2.941.516 4.241 2 5.035 1.728.925 2.002.759 2.015-1.215.013-1.842.204-1.994.985-.785.763 1.181.973.948.985-1.095C69 87.281 66.325 84 64.171 84 63.473 84 63 85.602 63 87.965m50.642-.599c-1.13 2.098-1.583 4.245-1.171 5.543.818 2.578 2.491 1.803 2.629-1.218.091-2.012.156-1.987.796.309.612 2.198.781 2.278 1.4.668 1.044-2.718.858-5.075-.553-7.005-1.138-1.556-1.433-1.394-3.101 1.703m12.608-.145c-2.626 2.81-2.97 5.708-.638 5.365 2.064-.302 3.609-3.056 3.204-5.708-.308-2.011-.373-2.003-2.566.343m20.508-.505c-2.801 1.415-5.38 4.995-4.345 6.03.316.316 1.543-.285 2.726-1.335 2.141-1.901 2.146-1.899.983.316-.991 1.89-.931 2.137.392 1.629 1.996-.766 4.921-6.358 3.821-7.305-.459-.396-2.069-.097-3.577.665m-42.747 2.771c-.724.872-.917 2.217-.468 3.25.732 1.684.785 1.684 1.187.001.232-.969.837-1.505 1.346-1.191.508.314.924-.356.924-1.488 0-2.421-1.256-2.661-2.989-.572m-52.345.64c-1.746 1.015-1.726 1.18.425 3.47 2.291 2.438 4.375 2.929 7.445 1.751 1.48-.568 1.394-.834-.669-2.063-2.346-1.398-2.347-1.406-.117-.941 3.334.695 2.729-.246-1.218-1.895-4.053-1.694-3.554-1.666-5.866-.322M.37 100c0 5.775.165 8.138.367 5.25s.202-7.612 0-10.5S.37 94.225.37 100m97.237-8.418c-1.065 2.775-.685 4.385.893 3.78.825-.317 1.5-1.653 1.5-2.969 0-2.705-1.474-3.205-2.393-.811m-14.152 2.742c-.426 1.698-.259 3.272.418 3.949.836.836 1.131.752 1.142-.323.013-1.233.161-1.226.985.05.798 1.235.972 1.137.985-.559.008-1.132-.623-2.932-1.404-3.999-1.362-1.863-1.446-1.827-2.126.882M128.2 93.2c-1.581 1.581-1.545 4.869.05 4.55 1.67-.334 2.716-1.864 2.735-4 .018-2.036-1.082-2.253-2.785-.55m12.803 4.297c-1.06 1.276-.815 1.515 1.625 1.582 1.579.043 2.31.306 1.622.583-2.233.901-1.338 2.5 1 1.787 2.407-.733 5.75-3.316 5.75-4.442 0-1.441-8.75-1.013-9.997.49m-40.253 1.215c-2.371 2.636-2.415 5.073-.058 3.16 1.458-1.182 1.576-1.165.853.128-.645 1.153-.554 1.238.393.365.677-.624 1.081-2.139.897-3.367-.33-2.202-.359-2.206-2.085-.286m-41.386.458c-1.971.954-4.364 4.697-4.364 6.825 0 .954 5.708-.669 7.642-2.173.628-.488 1.371-1.765 1.652-2.837.426-1.632.21-1.79-1.326-.968-2.757 1.475-3.737 1.123-1.527-.549 2.213-1.673 1.095-1.834-2.077-.298m8.311.235c-.96 2.501-.808 6.836.301 8.59.811 1.283 1.162 1.212 2.477-.5 2.531-3.295 2.984-6.487 1.177-8.294-1.507-1.506-1.635-1.481-1.7.335-.069 1.921-.087 1.922-.825.037-.701-1.788-.804-1.8-1.43-.168m43.336.082c-.724.872-.917 2.217-.468 3.25.732 1.684.785 1.684 1.187.001.232-.969.837-1.505 1.346-1.191.508.314.924-.356.924-1.488 0-2.421-1.256-2.661-2.989-.572m21.739 2.231c-.963 1.067-1.714 2.804-1.671 3.861.044 1.068.304 1.363.585.665.279-.691.922-1 1.428-.687 1.128.697 2.2-1.83 1.743-4.109-.299-1.491-.521-1.462-2.085.27m-56.72 2.591c-.017 1.044-.49 1.525-1.117 1.137-.723-.446-.974.456-.75 2.689.248 2.471-.061 3.362-1.163 3.363-.961.001-1.613 1.17-1.813 3.252-.173 1.787 0 3.25.382 3.25 1.347 0 4.431-4.328 4.431-6.219 0-1.052.469-2.789 1.042-3.86.707-1.321.717-2.506.031-3.684-.95-1.631-1.014-1.626-1.043.072m60.618 1.452c-.259.419.131 1.584.867 2.591 1.387 1.897 4.479 1.611 7.332-.677 1.099-.882 1.007-1.214-.5-1.808-2.495-.981-7.119-1.045-7.699-.106m-15.009.933c-.351.352-.603 1.577-.56 2.723s.307 1.518.585.827c.279-.691.918-1.002 1.421-.691s.915-.11.915-.935c0-1.719-1.413-2.871-2.361-1.924m4.111 3.523c-2.428 3.039-2.225 4.842.5 4.433 1.701-.255 2.326-1.107 2.563-3.494.367-3.692-.621-3.995-3.063-.939m6.235 2.319c-.013 1.634-.178 1.712-.985.464-.828-1.282-.972-1.246-.985.25-.008.963.997 2.763 2.235 4l2.25 2.25.329-2.885c.192-1.682-.329-3.543-1.25-4.464-1.439-1.439-1.58-1.405-1.594.385m-59.054 48.106C81.646 164.618 88.628 166 100 166s18.354-1.382 27.069-5.358l5.431-2.478h-65z"/><path fill-opacity=".308" fill-rule="evenodd" d="M82.74 1.583c-20.802 3.76-38.323 12.931-53.275 27.882C9.18 49.75-1.131 76.318.342 104.5c2.397 45.857 33.285 82.662 78.158 93.132 11.032 2.575 31.968 2.575 43 0 39.045-9.11 68.966-39.513 76.083-77.309.913-4.853 2.056-9.604 2.539-10.559 1.045-2.066 1.198-21.418.162-20.381-.394.393-1.29-2.686-1.993-6.844-5.238-31.012-26.237-58.796-54.791-72.496-18.707-8.975-40.856-12.059-60.76-8.46m5.091 21.371C51.784 29.568 26.278 56.38 21.917 92.242c-1.939 15.945 1.885 33.878 10.29 48.258 2.47 4.226 7.734 10.628 13.284 16.155 8.049 8.016 10.49 9.78 19.602 14.171C77.708 176.906 86.652 179 100 179c13.302 0 22.332-2.102 34.5-8.032 10.613-5.172 18.32-11.127 25.563-19.752 6.637-7.904 8.675-11.779 7.33-13.939-2.179-3.496-4.12-2.49-9.827 5.092-3.096 4.113-7.288 8.936-9.317 10.717-5.051 4.435-15.71 11.125-21.749 13.65-6.731 2.815-19.06 5.264-26.5 5.264-7.408 0-19.735-2.441-26.5-5.246-2.75-1.141-8.71-4.504-13.243-7.473-13.413-8.785-22.648-21.041-27.879-37.001-2.583-7.879-2.875-10.114-2.85-21.78.033-14.892 1.322-20.389 7.67-32.697C49.172 44.587 73.405 30 100 30c31.418 0 58.59 20.082 68.214 50.417 2.259 7.117 3.705 28.897 1.989 29.957-.582.36-1.339-.228-1.682-1.308-.787-2.48-4.164-3.607-6.069-2.026-2.061 1.71-1.884 2.727 2.148 12.36 4.351 10.394 5.272 10.653 15.502 4.35 7.147-4.403 8.922-6.811 6.858-9.298-1.567-1.888-3.445-1.836-6.526.183-1.373.9-2.655 1.462-2.849 1.25-.193-.212.055-3.085.553-6.385.497-3.3.641-9.375.32-13.5-2.672-34.258-25.027-61.808-57.629-71.02-8.224-2.324-25.569-3.389-32.998-2.026m6.906 28.914c-1.892 3.202-2.269 6.685-.822 7.579.503.311 1.367-.675 1.921-2.191.793-2.173 1.026-2.333 1.1-.756.079 1.664.257 1.748 1.064.5 1.331-2.059 1.238-4.292-.263-6.345-1.156-1.581-1.411-1.477-3 1.213m19.315 1.312c1.221 4.258 4.029 6.115 5.543 3.665.417-.674.277-.884-.336-.505-.577.357-1.316-.047-1.643-.898-.34-.885-.171-1.285.395-.935 2.034 1.257.899-1.456-1.234-2.95-3.223-2.258-3.749-1.945-2.725 1.623m-11.336.724c-1.899 3.215-2.155 5.855-.777 8.031.691 1.092 1.144.614 1.894-2 .756-2.63 1.008-2.894 1.077-1.126.049 1.27.54 2.031 1.09 1.691 1.756-1.085.966-9.5-.891-9.5-.373 0-1.45 1.307-2.393 2.904M86.75 59.15q-2.75 2.017-2.717 4.683l.034 2.667 1.966-2.361c2.198-2.638 2.554-2.128.821 1.177-1.123 2.141-1.105 2.148.911.36 2.298-2.039 3.775-6.545 2.54-7.754-.443-.433-2.042.12-3.555 1.228M110 63.409c0 2.643.588 4.834 1.5 5.591 1.26 1.046 1.511.865 1.57-1.128.066-2.218.126-2.242.93-.372.755 1.758.868 1.659.93-.816.084-3.363-1.302-6.229-3.402-7.035-1.226-.47-1.528.272-1.528 3.76m14.121-3.314c-3.094.646-5.067 2.251-5.106 4.155-.021 1.039.758.941 3.301-.414 1.974-1.052 2.052-1.004.812.5-1.828 2.216.08 2.126 2.873-.136 3.352-2.714 2.314-4.98-1.88-4.105M74 61.596C74 63.431 78.44 68 80.223 68c2.059 0 2.062-.028.182-2.146-1.904-2.144-1.904-2.145.595-.939 2.416 1.165 2.406 1.12-.306-1.355C78.187 61.273 74 60.044 74 61.596m18.104 2.736c-2.238 3.621-2.618 6.309-1.206 8.538.701 1.106 1.078 1.01 1.955-.5.818-1.409 1.102-1.5 1.148-.37.048 1.151.404 1.049 1.531-.441 1.86-2.459 1.902-7.954.072-9.473-1.118-.927-1.816-.48-3.5 2.246M103 67.833c0 3.604.857 4.453 2.667 2.643 1.09-1.09 1.172-1.909.346-3.452-1.548-2.892-3.013-2.498-3.013.809m23.223-.276C125 68.413 124 69.818 124 70.679c0 1.345.239 1.372 1.692.193 1.457-1.181 1.585-1.163.926.128-.422.825-.058.626.808-.441 1.345-1.658 2.17-4.559 1.297-4.559-.153 0-1.278.701-2.5 1.557m-56.98 1.693c1.651 2.499 5.719 3.674 5.399 1.559C74.253 68.241 72.844 67 70.319 67c-2.432 0-2.487.115-1.076 2.25m48.507.636c-1.513 1.449-2.75 3.381-2.75 4.291s-1.237 2.558-2.75 3.659c-1.825 1.33-2.776 2.955-2.828 4.834-.239 8.725-5.439 22.33-8.534 22.33-2.522 0-4.888-2.745-4.888-5.67 0-6.921-6.363-13.399-13-13.237-3.402.083-3.365.123 1.329 1.413 2.655.73 5.446 2.152 6.201 3.16 1.707 2.282 3.688 9.863 3.594 13.757-.089 3.691-1.668 5.43-2.397 2.642-.297-1.137-.132-1.816.366-1.507C93.804 106.615 93 104 91 102c-3.51-3.51-4.883-2.452-3.055 2.355l.945 2.485-5.319-3.152-5.318-3.151 1.515-3.178c1.564-3.277.942-8.126-.701-5.468-.685 1.108-.91 1.104-1.323-.028-.301-.825-.777-.313-1.206 1.294-.411 1.542-.205 3.596.49 4.896 1.097 2.049 1.011 2.19-1.016 1.66-1.636-.428-1.143.339 1.886 2.932 2.977 2.548 4.083 4.244 4.032 6.183-.063 2.392-.161 2.462-.93.672-.827-1.924-.862-1.916-.93.203-.095 2.975 1.965 7.297 3.477 7.297 1.812 0 2.33-5.73.726-8.02-1.868-2.668-.491-2.492 3.91.499 4.714 3.203 6.244 7.74 6.245 18.521 0 6.575-.488 9.576-2.157 13.25L90.112 146l-18.806.025-18.806.025 4.211 3.975L60.923 154h78.154l4.212-3.975 4.211-3.975-19.296-.025-19.296-.025-2.444-5.25c-1.959-4.207-2.441-6.84-2.427-13.25l.017-8 3.863-2.381c2.124-1.31 4.861-4.159 6.082-6.332 2.44-4.341 7.216-7.777 10.817-7.783 3.191-.005 6.109-1.66 9.934-5.633 3.444-3.578 3.903-3.589 2.194-.055-.994 2.055-.935 2.044 1-.177 2.014-2.313 2.934-9.139 1.23-9.139-1.586 0-5.174 4.646-5.174 6.699 0 2.265-3.864 5.301-6.746 5.301-1.099 0-2.262-1.184-2.948-3-1.579-4.184-3.722-3.949-3.027.332.499 3.075.275 3.428-2.906 4.578-2.141.774-4.374 2.715-5.895 5.125Q108.712 113 104.566 113c-2.444 0-1.862-3.391 1.514-8.822 3.206-5.158 4.855-10.477 4.896-15.793.013-1.713.924-4.259 2.024-5.658 1.1-1.398 2-3.076 2-3.727s.97-2.381 2.156-3.842c1.216-1.498 1.884-1.894 1.532-.908-.344.963-.351 1.75-.017 1.75 1.21 0 3.266-3.549 3.297-5.691.047-3.249-1.145-3.369-4.218-.423m13.491.936c-3.334 2.739-4.404 6.845-1.785 6.845.801 0 1.243-.344.984-.765-.26-.42.054-1.089.698-1.487.774-.478.902-.288.377.56q-.792 1.283.596.831c1.995-.651 4.146-5.525 3.191-7.23-.653-1.167-1.406-.936-4.061 1.246M78.59 71.901c-1.66 1.834-1.573 1.926 2.453 2.606 3.192.54 4.551.328 5.779-.901 1.475-1.475 1.405-1.607-.858-1.621-1.958-.012-2.156-.215-.964-.985 1.147-.741.771-.973-1.595-.985-1.787-.009-3.822.788-4.815 1.886m19.092-.25c-.776.776 2.285 3.272 4.068 3.317.688.018 1.138-.53 1-1.218-.457-2.283-3.587-3.58-5.068-2.099m-31.908 6.436c-.3 2.044.157 3.819 1.353 5.25l1.806 2.163.049-2.5c.035-1.79.293-2.115.908-1.143.587.925 1.073 1.011 1.531.27 1.098-1.775-2.287-7.057-4.558-7.112-.35-.008-.84 1.374-1.089 3.072M92 75.8c0 1.424 2.351 3.2 4.235 3.2 1.525 0 1.655-.338.765-2-1.024-1.913-5-2.867-5-1.2m-17.286.819C73.712 77.621 76.678 80 78.929 80c2.606 0 2.68-1.604.137-2.965-2.212-1.183-3.465-1.303-4.352-.416m48.536 1.608C120.938 80.695 120.222 84 122 84c.55 0 1.007-.562 1.015-1.25.011-.86.301-.799.932.198.721 1.14 1.055.891 1.573-1.171.361-1.44.505-3.369.319-4.285-.287-1.413-.682-1.301-2.589.735m-39.479 1.19c-.271 1.419.083 3.368.786 4.331 1.168 1.596 1.342 1.502 1.991-1.084.491-1.957.248-3.297-.786-4.331-1.33-1.33-1.553-1.208-1.991 1.084m18.226.581c1.743 1.511 2.63 1.727 3.642.886 1.95-1.617.698-2.884-2.851-2.884h-3.094zm29.556.647c-.81 3.229.641 5.031 2.372 2.945 1.262-1.52.618-5.59-.884-5.59-.453 0-1.123 1.19-1.488 2.645m6.247-1.111c-1.217 1.216.854 6.968 2.633 7.311 1.501.289 1.74-.09 1.26-1.994-.569-2.255-.534-2.272.857-.41 1.263 1.691 1.45 1.723 1.45.25 0-2.86-4.639-6.719-6.2-5.157m-80.789 1.953c-.724.872-.917 2.217-.468 3.25.732 1.684.785 1.684 1.187.001.232-.969.837-1.505 1.346-1.191.508.314.924-.356.924-1.488 0-2.421-1.256-2.661-2.989-.572M91 84.032c0 2.226.599 3.259 2.25 3.884 2.909 1.1 3.181.761 1.667-2.08-1.133-2.126-1.095-2.213.419-.964 1.415 1.168 1.664 1.16 1.664-.05C97 82.858 94.958 81 92.8 81c-1.338 0-1.8.779-1.8 3.032m-17.313.718c.343.963 1.076 2.334 1.63 3.047 1.476 1.903 2.827-.66 1.578-2.993-1.273-2.379-4.054-2.426-3.208-.054M63 87.965c0 2.941.516 4.241 2 5.035 1.728.925 2.002.759 2.015-1.215.013-1.842.204-1.994.985-.785.763 1.181.973.948.985-1.095C69 87.281 66.325 84 64.171 84 63.473 84 63 85.602 63 87.965m50.642-.599c-1.13 2.098-1.583 4.245-1.171 5.543.818 2.578 2.491 1.803 2.629-1.218.091-2.012.156-1.987.796.309.612 2.198.781 2.278 1.4.668 1.044-2.718.858-5.075-.553-7.005-1.138-1.556-1.433-1.394-3.101 1.703m12.687-.446c-2.815 2.299-3.378 5.267-1.068 5.63 2.026.318 4.011-2.773 3.552-5.528-.301-1.8-.399-1.804-2.484-.102m20.688-.307c-4.474 2.349-6.821 7.094-2.892 5.847 1.52-.482 1.913-.331 1.38.533-.578.934-.257.945 1.422.046 2.377-1.272 4.613-5.961 3.36-7.047-.433-.375-1.904-.096-3.27.621m-43.006 2.874c-.724.872-.917 2.217-.468 3.25.732 1.684.785 1.684 1.187.001.232-.969.837-1.505 1.346-1.191.508.314.924-.356.924-1.488 0-2.421-1.256-2.661-2.989-.572m-52.345.64c-1.746 1.015-1.726 1.18.425 3.47 2.291 2.438 4.375 2.929 7.445 1.751 1.48-.568 1.394-.834-.669-2.063-2.346-1.398-2.347-1.406-.117-.941 3.069.639 2.824.004-.7-1.818-3.452-1.785-3.946-1.816-6.384-.399M.37 100c0 5.775.165 8.138.367 5.25s.202-7.612 0-10.5S.37 94.225.37 100m97.237-8.418c-1.065 2.775-.685 4.385.893 3.78.825-.317 1.5-1.653 1.5-2.969 0-2.705-1.474-3.205-2.393-.811m-14.405 3.352c-.123 1.614.231 3.216.787 3.559.556.344 1.018.036 1.026-.684.011-.951.281-.899.985.191.821 1.271.972 1.222.985-.316.018-2.141-1.732-5.684-2.807-5.684-.414 0-.853 1.32-.976 2.934M128.2 93.2c-1.581 1.581-1.545 4.869.05 4.55 1.67-.334 2.716-1.864 2.735-4 .018-2.036-1.082-2.253-2.785-.55m12.803 4.297c-1.299 1.565-.739 1.873 2.997 1.651 1.007-.06 1.089.092.25.464-2.208.979-1.351 2.554 1 1.837 2.407-.733 5.75-3.316 5.75-4.442 0-1.441-8.75-1.013-9.997.49m-40.253 1.215c-2.371 2.636-2.415 5.073-.058 3.16 1.458-1.182 1.576-1.165.853.128-.645 1.153-.554 1.238.393.365.677-.624 1.081-2.139.897-3.367-.33-2.202-.359-2.206-2.085-.286m-41.386.458c-1.971.954-4.364 4.697-4.364 6.825 0 .954 5.708-.669 7.642-2.173.628-.488 1.371-1.765 1.652-2.837.426-1.632.21-1.79-1.326-.968-2.757 1.475-3.737 1.123-1.527-.549 2.213-1.673 1.095-1.834-2.077-.298m8.311.235c-.95 2.476-.812 6.83.271 8.542.755 1.193 1.271 1.019 2.951-1 2.425-2.913 2.676-6.227.603-7.947-1.241-1.03-1.512-.922-1.57.628-.067 1.787-.105 1.785-.825-.055-.701-1.788-.804-1.8-1.43-.168m43.336.082c-.724.872-.917 2.217-.468 3.25.732 1.684.785 1.684 1.187.001.232-.969.837-1.505 1.346-1.191.508.314.924-.356.924-1.488 0-2.421-1.256-2.661-2.989-.572m21.739 2.231c-.963 1.067-1.714 2.804-1.671 3.861.044 1.068.304 1.363.585.665.279-.691.922-1 1.428-.687 1.128.697 2.2-1.83 1.743-4.109-.299-1.491-.521-1.462-2.085.27m-57.568 2.915c-.724.785-1.174 2.649-1 4.142.221 1.886-.14 2.717-1.182 2.72-.96.003-1.613 1.175-1.813 3.255-.173 1.787 0 3.25.382 3.25 1.347 0 4.431-4.328 4.431-6.219 0-1.052.469-2.789 1.042-3.86s.686-2.57.25-3.331c-.671-1.172-.993-1.166-2.11.043m61.466 1.128c-.259.419.131 1.584.867 2.591 1.378 1.884 4.474 1.614 7.282-.636 1.063-.852 1.063-1.188 0-1.862-1.638-1.039-7.523-1.106-8.149-.093m-15.009.933c-.351.352-.603 1.577-.56 2.723s.307 1.518.585.827c.279-.691.918-1.002 1.421-.691s.915-.11.915-.935c0-1.719-1.413-2.871-2.361-1.924m4.111 3.523c-2.428 3.039-2.225 4.842.5 4.433 1.701-.255 2.326-1.107 2.563-3.494.367-3.692-.621-3.995-3.063-.939m4.744 1.792c-.973 1.574.441 4.886 2.574 6.027 1.698.909 1.932.691 1.932-1.801 0-3.961-2.956-6.733-4.506-4.226m-57.563 48.633C81.646 164.618 88.628 166 100 166s18.354-1.382 27.069-5.358l5.431-2.478h-65z"/><path fill-opacity=".413" fill-rule="evenodd" d="M82.74 1.583C62.035 5.326 44.456 14.544 29.5 29.5 9.181 49.819-1.13 76.342.342 104.5c2.387 45.655 33.587 82.839 78.158 93.149 11.01 2.546 31.99 2.546 43 0 38.618-8.933 68.994-39.756 76.05-77.169.932-4.939 2.089-9.761 2.572-10.716 1.045-2.066 1.198-21.418.162-20.381-.394.393-1.29-2.686-1.993-6.844-2.257-13.365-7.67-26.717-15.832-39.054-5.083-7.684-18.26-20.861-25.944-25.944C134.212 2.786 107.747-2.939 82.74 1.583m2.155 21.921c-46.452 9.257-74.344 57.286-59.367 102.23 8.078 24.244 29.112 44.228 53.712 51.034 8.769 2.426 32.751 2.426 41.52 0 14.098-3.9 29.645-13.92 39.28-25.316 6.513-7.702 8.733-12.003 7.338-14.217-1.868-2.967-4.072-2.508-7.003 1.46-11.392 15.418-22.63 24.034-38.404 29.442-8.705 2.985-10.482 3.247-21.971 3.247s-13.266-.262-21.971-3.247c-41.822-14.338-60.685-59.574-41.34-99.134 8.747-17.888 26.25-32 45.934-37.035 16.489-4.217 34.835-1.967 50.664 6.214 12.345 6.38 23.853 18.196 30.019 30.821C168.617 79.879 171 90.066 171 101.899c0 7.726-1.2 11.196-2.479 7.167-.787-2.48-4.164-3.607-6.069-2.026-2.061 1.71-1.884 2.727 2.148 12.36 4.351 10.394 5.272 10.653 15.502 4.35 7.147-4.403 8.922-6.811 6.858-9.298-1.523-1.835-3.909-1.805-6.401.08-1.068.807-2.225 1.468-2.571 1.468s-.239-3.038.239-6.75c2.307-17.911-3.252-38.728-14.579-54.59-17.406-24.378-49.35-37.015-78.753-31.156m9.855 27.985c-1.872 2.553-2.341 7.028-.835 7.958.503.311 1.405-.675 2.006-2.191l1.091-2.756-.514 3-.514 3 1.472-2.5c1.827-3.101 1.91-5.138.294-7.258-1.133-1.486-1.413-1.417-3 .747m19.302 1.691c.925 3.227 2.684 5.029 4.386 4.491 1.952-.617 1.62-2.704-.819-5.143-3.477-3.477-4.688-3.256-3.567.652m-11.336.724c-1.879 3.18-2.271 7.635-.754 8.573.529.327 1.389-.884 1.91-2.691.751-2.605.966-2.808 1.038-.977.049 1.27.54 2.031 1.09 1.691 1.756-1.085.966-9.5-.891-9.5-.373 0-1.45 1.307-2.393 2.904m14.848 1.389c.376.986.935 1.541 1.243 1.233s.001-1.114-.683-1.793c-.988-.98-1.102-.865-.56.56M86.25 59.35C85.013 60.571 84 62.622 84 63.908c0 2.068.194 2.179 1.687.964 1.499-1.219 1.605-1.148.949.628-.722 1.956-.692 1.954 1.349-.064 2.203-2.178 3.212-7.512 1.515-8.012-.55-.162-2.013.705-3.25 1.926M110 63.409c0 2.643.588 4.834 1.5 5.591 1.26 1.046 1.511.865 1.57-1.128.066-2.218.126-2.242.93-.372.755 1.758.868 1.659.93-.816.084-3.363-1.302-6.229-3.402-7.035-1.226-.47-1.528.272-1.528 3.76m14.121-3.407c-4.936 1.166-6.715 4.357-3.072 5.514 2.662.844 6.951-1.956 6.951-4.539 0-1.087-.112-1.931-.25-1.875s-1.771.462-3.629.9M74 61.596C74 63.431 78.44 68 80.223 68c2.059 0 2.062-.028.182-2.146-1.904-2.144-1.904-2.145.595-.939 2.416 1.165 2.406 1.12-.306-1.355C78.187 61.273 74 60.044 74 61.596m18.104 2.736c-2.238 3.621-2.618 6.309-1.206 8.538.701 1.106 1.078 1.01 1.955-.5.818-1.409 1.102-1.5 1.148-.37.048 1.151.404 1.049 1.531-.441 1.86-2.459 1.902-7.954.072-9.473-1.118-.927-1.816-.48-3.5 2.246M122 64c-.901.582-1.025.975-.309.985.655.008 1.469-.435 1.809-.985.767-1.242.421-1.242-1.5 0m-19 3.333c0 4.115.792 5.017 2.717 3.093 1.305-1.305 1.288-1.769-.142-3.952-2.142-3.269-2.575-3.125-2.575.859m22.655.496c-2.299 2.54-2.27 4.915.037 3.043 1.459-1.183 1.57-1.166.808.128s-.651 1.311.808.128c1.74-1.412 2.354-5.128.847-5.128-.465 0-1.59.823-2.5 1.829M69 69.5c3.694 3.932 7.297 2.966 4.663-1.25-.43-.687-2.183-1.25-3.896-1.25h-3.116zm48.75.386c-1.513 1.449-2.75 3.381-2.75 4.291s-1.237 2.558-2.75 3.659c-1.825 1.33-2.776 2.955-2.828 4.834-.234 8.576-5.44 22.33-8.451 22.33-2.294 0-4.971-3.192-4.971-5.928 0-6.671-6.478-13.139-13-12.979-3.4.083-3.362.124 1.335 1.414 2.659.731 5.072 1.567 5.363 1.858 1.489 1.488 4.988 13.826 4.559 16.072-.638 3.336-1.885 4.094-2.55 1.55-.286-1.094-.112-1.738.386-1.429C93.804 106.615 93 104 91 102c-3.51-3.51-4.883-2.452-3.055 2.355l.945 2.485-5.319-3.152-5.318-3.151 1.515-3.178c1.564-3.277.942-8.126-.701-5.468-.685 1.108-.91 1.104-1.323-.028-.301-.825-.777-.313-1.206 1.294-.411 1.542-.205 3.596.49 4.896 1.097 2.049 1.011 2.19-1.016 1.66-1.636-.428-1.143.339 1.886 2.932 2.977 2.548 4.083 4.244 4.032 6.183-.063 2.392-.161 2.462-.93.672-.734-1.709-.87-1.554-.93 1.061-.043 1.867.808 4.006 2.18 5.482l2.25 2.42.575-3.481c.346-2.103.048-4.362-.754-5.702-1.187-1.985-1.142-2.151.426-1.567 3.793 1.411 7.269 4.801 8.417 8.21 2.083 6.184 1.603 19.853-.889 25.327L90.112 146l-18.806.025-18.806.025 4.211 3.975L60.923 154h78.154l4.212-3.975 4.211-3.975-19.23-.025-19.229-.025-2.206-4.25c-1.666-3.212-2.296-6.449-2.577-13.25l-.373-9 3.845-2.316c2.114-1.274 5.115-4.326 6.669-6.783 2.915-4.607 6.923-7.401 10.617-7.401 2.992 0 5.976-1.726 9.734-5.629 3.444-3.578 3.903-3.589 2.194-.055-.994 2.055-.935 2.044 1-.177 2.014-2.313 2.934-9.139 1.23-9.139-1.586 0-5.174 4.646-5.174 6.699 0 2.265-3.864 5.301-6.746 5.301-1.099 0-2.262-1.184-2.948-3-1.579-4.184-3.722-3.949-3.027.332.498 3.068.272 3.429-2.865 4.563-2.1.759-4.557 2.905-6.411 5.601-2.966 4.311-6.024 6.227-7.994 5.01-1.68-1.039-1.159-3.132 2.071-8.328 3.203-5.152 4.855-10.477 4.896-15.775.013-1.703.924-4.135 2.024-5.403s2-3.082 2-4.031c0-2.046 2.368-4.268 3.424-3.212 1.061 1.061 3.576-2.729 3.576-5.389 0-3.309-1.163-3.441-4.25-.482m13.491.936c-3.334 2.739-4.404 6.845-1.785 6.845.801 0 1.243-.344.984-.765-.26-.42.054-1.089.698-1.487.774-.478.902-.288.377.56q-.792 1.283.596.831c1.995-.651 4.146-5.525 3.191-7.23-.653-1.167-1.406-.936-4.061 1.246M78.59 71.901c-1.66 1.834-1.573 1.926 2.453 2.606 3.192.54 4.551.328 5.779-.901 1.475-1.475 1.405-1.607-.858-1.621-1.958-.012-2.156-.215-.964-.985 1.147-.741.771-.973-1.595-.985-1.787-.009-3.822.788-4.815 1.886m19.092-.25c-.776.776 2.285 3.272 4.068 3.317.688.018 1.138-.53 1-1.218-.457-2.283-3.587-3.58-5.068-2.099M65.713 78.25c-.37 2.342.018 3.801 1.387 5.222 1.886 1.958 1.9 1.954 1.915-.5.012-1.915.225-2.14.946-1.001 1.268 2.004 2.376.666 1.565-1.89C70.805 77.81 68.325 75 67.042 75c-.448 0-1.046 1.463-1.329 3.25M92 75.8c0 1.424 2.351 3.2 4.235 3.2 1.525 0 1.655-.338.765-2-1.024-1.913-5-2.867-5-1.2m-17.325.858C73.537 77.796 76.14 80 78.622 80c2.872 0 3.102-1.542.444-2.965-2.238-1.197-3.465-1.303-4.391-.377m48.575 1.569C120.938 80.695 120.222 84 122 84c.55 0 1.007-.562 1.015-1.25.011-.86.301-.799.932.198.721 1.14 1.055.891 1.573-1.171.361-1.44.505-3.369.319-4.285-.287-1.413-.682-1.301-2.589.735m-39.546 1.441c-.343 1.734-.029 3.377.81 4.238 1.17 1.201 1.47 1.007 2.057-1.335.467-1.857.206-3.223-.809-4.238-1.33-1.33-1.56-1.18-2.058 1.335m17.305-1.673c-.86.531-.548 1.215 1.071 2.348 1.677 1.175 2.631 1.312 3.591.515.719-.596 1.094-1.429.834-1.851-.747-1.208-4.162-1.837-5.496-1.012m30.544 2.65c-.81 3.229.641 5.031 2.372 2.945 1.262-1.52.618-5.59-.884-5.59-.453 0-1.123 1.19-1.488 2.645m6.247-1.111c-1.217 1.216.854 6.968 2.633 7.311 1.501.289 1.74-.09 1.26-1.994-.569-2.255-.534-2.272.857-.41 1.263 1.691 1.45 1.723 1.45.25 0-2.86-4.639-6.719-6.2-5.157m-80.789 1.953c-.724.872-.917 2.217-.468 3.25.732 1.684.785 1.684 1.187.001.232-.969.837-1.505 1.346-1.191.508.314.924-.356.924-1.488 0-2.421-1.256-2.661-2.989-.572M91 83.965c0 1.908.69 3.334 1.934 4 2.805 1.501 3.283 1.294 2.526-1.09-.454-1.43-.312-1.902.433-1.441 1.491.922 1.415-1.726-.093-3.234-2.332-2.332-4.8-1.424-4.8 1.765m-28 3.441c0 3.5.452 4.766 2 5.594 1.728.925 2.002.759 2.015-1.215.013-1.842.204-1.994.985-.785.763 1.181.973.948.985-1.095.014-2.388-1.585-4.52-4.735-6.312-.921-.524-1.25.481-1.25 3.813m10.756-2.156c.697 2.758 2.444 4.044 3.398 2.501.928-1.502-.847-4.751-2.596-4.751-.923 0-1.185.734-.802 2.25m39.886 2.116c-1.13 2.098-1.583 4.245-1.171 5.543.818 2.578 2.491 1.803 2.629-1.218.091-2.012.156-1.987.796.309.612 2.198.781 2.278 1.4.668 1.044-2.718.858-5.075-.553-7.005-1.138-1.556-1.433-1.394-3.101 1.703m12.687-.445c-2.781 2.269-3.38 5.265-1.123 5.621 2.331.367 4.005-1.905 3.616-4.906-.314-2.423-.376-2.441-2.493-.715m20.446-.327c-2.757 1.461-4.775 4.225-4.775 6.54 0 .985.267.999 1.2.066 1.504-1.504 3.152-1.578 2.238-.1-.466.754.001.735 1.489-.061 2.401-1.285 4.593-5.934 3.36-7.127-.433-.419-2.013-.112-3.512.682m-42.764 2.893c-.724.872-.917 2.217-.468 3.25.715 1.645.796 1.636 1.213-.132.358-1.521.621-1.619 1.33-.5.636 1.005.888.626.899-1.355.017-3.05-1.098-3.524-2.974-1.263m-52.345.616c-1.747 1.039-1.727 1.203.425 3.494 2.291 2.438 4.375 2.929 7.445 1.751 1.48-.568 1.394-.834-.669-2.063l-2.367-1.41 2.413.511c2.067.439 2.211.313 1-.871-2.026-1.983-6.11-2.683-8.247-1.412M.37 100c0 5.775.165 8.138.367 5.25s.202-7.612 0-10.5S.37 94.225.37 100m97.237-8.418c-1.065 2.775-.685 4.385.893 3.78.825-.317 1.5-1.653 1.5-2.969 0-2.705-1.474-3.205-2.393-.811m-14.405 3.352c-.123 1.614.231 3.216.787 3.559.556.344 1.018.036 1.026-.684.011-.951.281-.899.985.191.821 1.271.972 1.222.985-.316.018-2.141-1.732-5.684-2.807-5.684-.414 0-.853 1.32-.976 2.934M128.2 93.2c-1.581 1.581-1.545 4.869.05 4.55 1.67-.334 2.716-1.864 2.735-4 .018-2.036-1.082-2.253-2.785-.55m12.823 4.272c-1.777 2.141 1.164 4.911 4.224 3.978 2.555-.778 5.753-3.339 5.753-4.605 0-1.488-8.674-.943-9.977.627m-40.273 1.246c-2.158 2.392-2.255 4.282-.219 4.282 1.742 0 2.798-2.087 2.304-4.552-.299-1.491-.521-1.462-2.085.27m10.081.753c-.9 1.976-.901 2.859-.004 3.756s1.173.76 1.173-.586c0-.967.45-1.481 1-1.141s1-.282 1-1.382c0-3.122-1.867-3.504-3.169-.647m-53.379 1.175c-1.348 1.455-2.452 3.457-2.452 4.448 0 1.584.393 1.674 3.25.741 3.209-1.047 6.75-4.185 6.75-5.981 0-.528-.83-.48-1.934.111-2.838 1.518-3.871 1.202-1.625-.497 1.742-1.317 1.762-1.468.202-1.468-.956 0-2.842 1.191-4.191 2.646m10.223-1.241c-.976 2.543-.802 6.857.348 8.595.84 1.271 1.292 1.118 2.962-1 2.36-2.994 2.572-6.293.515-8-1.241-1.03-1.512-.922-1.57.628-.067 1.787-.105 1.785-.825-.055-.701-1.788-.804-1.8-1.43-.168m64.566 2.581c-.683 1.093-1.234 2.78-1.226 3.75.012 1.35.215 1.45.862.429.466-.735 1.246-1.283 1.735-1.219.488.064 1.03-1.023 1.204-2.415.379-3.03-.86-3.292-2.575-.545m-56.211 1.823c-.016.72-.519 1.007-1.116.638-.73-.451-.977.598-.754 3.191.24 2.78-.054 3.862-1.049 3.862-1.775 0-3.185 3.762-2.08 5.55 1.226 1.984 4.969-1.61 4.969-4.771 0-1.326.469-3.287 1.042-4.358.707-1.321.717-2.506.031-3.684-.63-1.08-1.024-1.242-1.043-.428m60.696 1.799c-.968.967 1.599 4.392 3.292 4.392.845 0 2.583-.733 3.861-1.628 1.822-1.276 2.032-1.814.973-2.485-1.557-.986-7.224-1.181-8.126-.279m-15.087 1.086c-.351.352-.587 1.802-.523 3.223q.116 2.575.576.821c.253-.969.875-1.505 1.384-1.191s.924-.104.924-.929c0-1.719-1.413-2.871-2.361-1.924m3.918 3.529c-1.923 2.744-1.981 4.4-.179 5.092 1.987.762 3.622-1.276 3.622-4.515 0-3.371-1.33-3.595-3.443-.577m5.011 1.563c-.804 2.532.209 5.024 2.55 6.277 1.64.878 1.882.637 1.882-1.873 0-1.584-.859-3.658-1.909-4.608-1.815-1.643-1.94-1.632-2.523.204M72.5 160.533C80.754 164.44 88.601 166 100 166s19.246-1.56 27.5-5.467l5-2.366h-65z"/></svg>