<svg xmlns="http://www.w3.org/2000/svg" width="250" height="250" version="1.1" fill="#000000"><path fill-opacity=".067" d="M 116.465 26.944 C 117.040 27.874, 115.228 28.114, 108.860 27.952 C 95.628 27.614, 79.064 30.531, 68.500 35.059 C 67.400 35.531, 64.594 36.401, 62.264 36.993 C 59.399 37.721, 55.516 40.242, 50.264 44.785 C 45.994 48.478, 42.151 52.044, 41.724 52.708 C 41.297 53.373, 40.284 53.662, 39.474 53.351 C 38.513 52.983, 38 53.410, 38 54.579 C 38 55.565, 36.274 58.425, 34.164 60.936 C 32.053 63.446, 29.993 66.845, 29.584 68.490 C 29.176 70.134, 28.386 71.761, 27.830 72.105 C 26.266 73.072, 24.061 86.353, 23.880 95.900 C 23.727 103.958, 26.438 119.771, 28.290 121.623 C 29.609 122.942, 29.012 125.679, 27.009 127.492 C 25.131 129.192, 25.117 129.368, 26.759 130.628 C 28.281 131.794, 28.311 132.086, 27 132.951 C 25.802 133.741, 26.118 134.065, 28.573 134.560 C 31.259 135.101, 31.880 135.894, 33.495 140.840 C 36.519 150.098, 45.715 170.151, 47.250 170.833 C 47.663 171.017, 48 171.710, 48 172.375 C 48 173.040, 49.463 175.162, 51.250 177.092 C 54.509 180.611, 59.915 187.040, 62.252 190.175 C 63.538 191.902, 69.610 196.978, 74.600 200.500 C 76.159 201.600, 78.729 203.714, 80.311 205.198 C 81.893 206.682, 83.483 208.032, 83.844 208.198 C 84.205 208.364, 86.446 211.112, 88.824 214.305 C 91.202 217.498, 94.240 220.608, 95.574 221.216 C 96.908 221.824, 98 222.699, 98 223.161 C 98 223.622, 98.862 224, 99.917 224 C 100.971 224, 101.983 224.354, 102.167 224.788 C 102.814 226.318, 113.387 230.028, 118.907 230.661 C 121.983 231.014, 124.725 231.616, 125 231.999 C 125.275 232.382, 128.875 232.427, 133 232.098 C 140.268 231.518, 140.510 231.415, 140.816 228.750 C 141.042 226.786, 140.685 226, 139.566 226 C 138.705 226, 138 225.520, 138 224.933 C 138 224.346, 137.189 224.123, 136.198 224.437 C 135.206 224.752, 133.519 224.347, 132.448 223.536 C 130.579 222.124, 130.612 222.062, 133.250 222.032 C 134.762 222.014, 136 221.550, 136 221 C 136 220.450, 134.200 220, 132 220 C 129.111 220, 128 220.417, 128 221.500 C 128 223.316, 127.515 223.358, 124.684 221.790 C 123.483 221.124, 120.250 220.446, 117.500 220.283 C 114.750 220.120, 111.825 219.935, 111 219.871 C 108.015 219.641, 99.033 216.300, 99.675 215.658 C 100.037 215.296, 99.358 215, 98.167 215 C 95.819 215, 95.225 213.481, 97.250 212.659 C 98.191 212.278, 98.129 211.890, 97 211.091 C 94.363 209.227, 98.135 209.766, 102.562 211.886 C 110.727 215.797, 134.412 218.524, 152.500 217.636 C 168.550 216.848, 169.699 216.701, 171.150 215.250 C 171.838 214.562, 173.184 214, 174.143 214 C 175.772 214, 182.890 210.359, 184 208.958 C 184.275 208.611, 185.953 207.831, 187.728 207.223 C 189.504 206.616, 191.673 205.530, 192.549 204.810 C 195.694 202.223, 205 192.540, 205 191.854 C 205 191.469, 206.157 189.778, 207.572 188.097 C 208.986 186.416, 209.883 184.620, 209.565 184.106 C 209.248 183.592, 209.342 183.020, 209.775 182.835 C 211.335 182.172, 216.249 171.092, 215.663 169.564 C 215.300 168.619, 215.600 168, 216.420 168 C 217.197 168, 218.078 166.397, 218.480 164.252 C 218.867 162.191, 219.480 160.278, 219.842 160.002 C 220.887 159.203, 224 152.958, 224 151.660 C 224 151.011, 224.900 149.919, 226 149.232 C 228.636 147.586, 228.544 145.137, 225.808 144.124 C 223.663 143.331, 223.672 143.299, 226.241 142.654 C 228.157 142.174, 228.953 141.251, 229.184 139.248 C 229.434 137.069, 229.967 136.549, 231.751 136.738 C 233.753 136.950, 233.867 136.759, 232.776 135.013 C 231.743 133.358, 231.861 132.821, 233.525 131.596 C 235.237 130.336, 235.289 130.061, 233.917 129.528 C 232.953 129.155, 232.333 127.721, 232.333 125.869 C 232.333 124.194, 231.737 122.455, 231.007 122.004 C 230.278 121.554, 229.506 119.475, 229.291 117.386 C 229.077 115.296, 228.526 113.117, 228.066 112.543 C 227.607 111.969, 226.899 109.950, 226.494 108.057 C 226.088 106.163, 225.136 103.993, 224.378 103.235 C 223.620 102.477, 223 101.228, 223 100.459 C 223 99.690, 222.100 97.458, 221 95.500 C 219.900 93.542, 219 91.433, 219 90.814 C 219 90.195, 217.805 88.123, 216.345 86.208 C 214.885 84.294, 212.745 80.877, 211.589 78.614 C 208.100 71.784, 202.944 65.162, 194 56.024 C 179.962 41.681, 167.950 35.423, 144 29.972 C 141.525 29.409, 138.825 28.686, 138 28.367 C 137.175 28.047, 133.575 27.672, 130 27.532 C 126.425 27.393, 121.747 26.929, 119.605 26.501 C 116.645 25.910, 115.892 26.016, 116.465 26.944 M 144 43.740 C 144 44.258, 146.588 45.253, 149.750 45.952 C 152.912 46.651, 155.950 47.566, 156.500 47.986 C 157.050 48.405, 158.850 48.993, 160.500 49.291 C 166.373 50.354, 173 53.235, 173 54.726 C 173 55.626, 173.582 55.991, 174.474 55.649 C 175.284 55.338, 176.297 55.627, 176.724 56.292 C 177.537 57.557, 181.462 60, 182.683 60 C 183.073 60, 181.866 58.425, 180 56.500 C 178.134 54.575, 175.844 53, 174.911 53 C 173.978 53, 172.971 52.367, 172.675 51.594 C 172.378 50.821, 170.642 49.865, 168.818 49.469 C 166.993 49.073, 165.275 48.446, 165 48.077 C 163.401 45.927, 144 41.921, 144 43.740 M 66.091 54.270 C 62.566 57.146, 59.191 60.400, 58.591 61.500 C 57.991 62.600, 57.204 63.726, 56.841 64.003 C 56.479 64.279, 56.421 65.751, 56.712 67.275 C 57.136 69.493, 57.516 69.817, 58.621 68.900 C 59.379 68.270, 60 67.173, 60 66.461 C 60 65.749, 60.563 64.940, 61.250 64.662 C 61.994 64.362, 61.788 64.126, 60.742 64.079 C 59.236 64.011, 59.163 63.712, 60.232 62 C 60.919 60.900, 62.048 60, 62.741 60 C 63.433 60, 64 59.325, 64 58.500 C 64 57.675, 64.405 57, 64.900 57 C 65.768 57, 73 50.214, 73 49.400 C 73 48.679, 72.569 48.983, 66.091 54.270 M 111.804 62.560 C 106.743 63.538, 104.239 64.644, 101.554 67.088 C 99.599 68.866, 98 70.913, 98 71.636 C 98 72.549, 97.125 72.775, 95.130 72.376 C 92.450 71.840, 92.212 72.057, 91.538 75.649 C 91.141 77.764, 90.520 79.721, 90.158 79.998 C 88.321 81.400, 84.987 87.170, 85.518 88.028 C 85.853 88.571, 85.443 89.276, 84.608 89.597 C 83.418 90.054, 83.349 90.458, 84.289 91.465 C 84.949 92.171, 86.054 92.533, 86.745 92.268 C 87.435 92.003, 88 92.271, 88 92.864 C 88 93.458, 86.537 94.365, 84.750 94.881 C 82.963 95.397, 82.239 95.860, 83.143 95.910 C 84.047 95.959, 85.063 96.722, 85.401 97.604 C 85.740 98.486, 86.594 98.986, 87.300 98.715 C 88.006 98.444, 89.463 98.865, 90.537 99.651 C 92.217 100.879, 92.281 101.213, 90.995 102.040 C 89.750 102.839, 89.865 103.100, 91.681 103.599 C 93.929 104.215, 95.403 106.539, 94.487 108.021 C 94.201 108.484, 94.425 109.144, 94.984 109.490 C 95.610 109.877, 96 108.514, 96 105.937 C 96 102.304, 96.200 101.921, 97.524 103.020 C 98.362 103.716, 98.834 104.499, 98.572 104.762 C 98.310 105.024, 98.646 105.788, 99.318 106.461 C 102.478 109.621, 105.938 110.297, 122.440 110.978 C 131.823 111.365, 138.375 111.785, 137 111.911 C 134.682 112.124, 134.646 112.203, 136.500 113 C 137.600 113.473, 139.700 113.891, 141.167 113.930 C 142.633 113.968, 144.023 114.562, 144.254 115.250 C 144.584 116.232, 145.022 116.213, 146.294 115.164 C 147.981 113.771, 150 114.335, 150 116.199 C 150 116.793, 149.213 117.877, 148.250 118.608 C 146.827 119.688, 146.780 119.948, 148 120 C 149.152 120.049, 149.049 120.405, 147.559 121.532 C 145.221 123.300, 146.025 123.372, 151.101 121.852 C 153.210 121.220, 154.698 120.320, 154.408 119.852 C 154.119 119.383, 154.809 119, 155.941 119 C 157.073 119, 158 118.625, 158 118.167 C 158 116.530, 156.758 116.142, 154.397 117.039 C 152.539 117.746, 152 117.619, 152 116.475 C 152 115.664, 152.338 115.053, 152.750 115.118 C 156.263 115.673, 158 114.826, 158 112.559 C 158 111.216, 158.457 109.835, 159.016 109.490 C 159.575 109.144, 159.774 108.443, 159.457 107.931 C 158.059 105.668, 160.650 107.319, 163.666 110.612 C 165.825 112.968, 167.525 114.012, 168.558 113.616 C 169.799 113.140, 170.072 113.585, 169.821 115.667 C 169.644 117.129, 170.016 118.499, 170.647 118.712 C 171.278 118.924, 171.728 118.299, 171.647 117.323 C 171.566 116.347, 172.175 115.537, 173 115.524 C 173.925 115.509, 174.617 114.350, 174.805 112.500 C 175.054 110.062, 176.239 108.776, 181.137 105.635 C 184.452 103.509, 187.951 101.564, 188.914 101.312 C 189.876 101.061, 194.001 102.651, 198.082 104.847 L 205.500 108.839 205.322 113.979 C 205.198 117.551, 205.503 118.993, 206.322 118.706 C 209.586 117.562, 204.894 94, 201.403 94 C 200.431 94, 200.220 93.150, 200.654 90.982 C 201.175 88.376, 201.013 88.058, 199.465 88.652 C 198.153 89.155, 197.887 88.992, 198.473 88.043 C 199.079 87.063, 198.863 86.977, 197.590 87.689 C 195.536 88.839, 185.395 86.718, 179.273 83.857 C 174.824 81.779, 172.988 80.027, 175.191 79.961 C 175.911 79.939, 175.105 79.314, 173.400 78.572 C 171.694 77.830, 170.021 76.497, 169.681 75.611 C 169.341 74.725, 167.951 74, 166.593 74 C 165.235 74, 162.645 72.650, 160.839 71 C 159.032 69.350, 156.556 68, 155.336 68 C 154.116 68, 152.838 67.547, 152.496 66.993 C 150.744 64.159, 145.185 62.721, 134.543 62.348 C 128.470 62.135, 122.375 61.804, 121 61.613 C 119.625 61.423, 115.487 61.849, 111.804 62.560 M 53.394 73.500 C 52.100 77.633, 52.964 78.138, 54.750 74.293 C 56.183 71.208, 56.322 70, 55.245 70 C 54.829 70, 53.996 71.575, 53.394 73.500 M 100 105.059 C 100 105.641, 100.450 105.840, 101 105.500 C 101.550 105.160, 102 104.684, 102 104.441 C 102 104.198, 101.550 104, 101 104 C 100.450 104, 100 104.477, 100 105.059 M 184.750 106.656 C 182.137 107.967, 180 109.390, 180 109.820 C 180 110.728, 188.467 114.999, 190.277 115.003 C 191.974 115.007, 200 110.672, 200 109.752 C 200 109.338, 199.325 109, 198.500 109 C 197.675 109, 197 108.550, 197 108 C 197 107.450, 196.380 107, 195.622 107 C 194.865 107, 193.685 106.325, 193 105.500 C 191.431 103.609, 190.592 103.726, 184.750 106.656 M 112.813 107.683 C 113.534 107.972, 114.397 107.936, 114.729 107.604 C 115.061 107.272, 114.471 107.036, 113.417 107.079 C 112.252 107.127, 112.015 107.364, 112.813 107.683 M 100.750 112.706 C 101.987 112.944, 104.013 112.944, 105.250 112.706 C 106.487 112.467, 105.475 112.272, 103 112.272 C 100.525 112.272, 99.513 112.467, 100.750 112.706 M 129.671 113.584 C 130.005 114.455, 130.558 114.792, 130.901 114.334 C 131.243 113.875, 131.931 113.162, 132.428 112.750 C 132.926 112.338, 132.372 112, 131.198 112 C 129.661 112, 129.233 112.443, 129.671 113.584 M 144 113 C 144 113.550, 144.423 114, 144.941 114 C 145.459 114, 146.160 113.550, 146.500 113 C 146.840 112.450, 146.416 112, 145.559 112 C 144.702 112, 144 112.450, 144 113 M 149.648 113.526 C 150.125 114.769, 150.535 114.821, 151.867 113.808 C 152.765 113.125, 153.688 112.439, 153.917 112.283 C 154.146 112.127, 153.147 112, 151.698 112 C 149.747 112, 149.215 112.396, 149.648 113.526 M 178 114.531 C 178 115.374, 178.675 116.322, 179.500 116.638 C 180.981 117.207, 181.701 119.234, 180.250 118.750 C 179.444 118.481, 179 119.324, 179 121.122 C 179 121.898, 179.464 121.860, 180.500 121 C 181.325 120.315, 182 119.080, 182 118.255 C 182 117.035, 182.280 116.988, 183.500 118 C 186.201 120.241, 185.071 117.966, 182.250 115.484 C 179.034 112.653, 178 112.421, 178 114.531 M 122.212 116.032 C 120.421 118.900, 120.739 119.818, 122.602 117.158 C 123.483 115.900, 124.029 114.695, 123.814 114.481 C 123.600 114.266, 122.879 114.964, 122.212 116.032 M 197.016 116.057 L 193.531 118 196.766 118 C 199.416 118, 200 118.391, 200 120.167 C 200 123.214, 200.615 122.162, 201.413 117.750 C 202.182 113.492, 201.848 113.363, 197.016 116.057 M 134.597 116.391 C 135.108 117.719, 140 118.175, 140 116.894 C 140 116.402, 139.662 115.943, 139.250 115.872 C 135.723 115.272, 134.231 115.438, 134.597 116.391 M 172.771 118.766 C 172.517 119.737, 172.658 121.425, 173.085 122.516 C 173.675 124.027, 173.876 123.606, 173.930 120.750 C 174.005 116.732, 173.520 115.902, 172.771 118.766 M 186.500 123 C 186.840 123.550, 187.316 124, 187.559 124 C 187.802 124, 188 123.550, 188 123 C 188 122.450, 187.523 122, 186.941 122 C 186.359 122, 186.160 122.450, 186.500 123 M 202.234 164.325 C 200.538 167.804, 197.612 172.665, 195.733 175.126 C 193.854 177.588, 192.033 180.734, 191.686 182.117 C 191.338 183.500, 190.139 185.686, 189.021 186.976 C 186.046 190.406, 187.417 190.720, 190.922 187.411 C 193.053 185.400, 193.575 184.349, 192.714 183.802 C 191.893 183.280, 192.100 183.026, 193.357 183.015 C 194.585 183.005, 195.021 182.497, 194.644 181.515 C 194.309 180.643, 194.884 179.598, 196.037 178.980 C 197.117 178.402, 198 177.045, 198 175.965 C 198 174.884, 198.338 174, 198.752 174 C 199.528 174, 204.308 164.224, 205.474 160.250 C 206.642 156.271, 205.398 157.836, 202.234 164.325 M 144 228.441 C 144 229.298, 144.450 230, 145 230 C 145.550 230, 146 229.577, 146 229.059 C 146 228.541, 145.550 227.840, 145 227.500 C 144.450 227.160, 144 227.584, 144 228.441" stroke="none" fill="#000000" fill-rule="evenodd"/><path fill-opacity=".084" d="M 112 29.622 C 104.611 30.240, 88.787 33.011, 84.500 34.437 C 82.300 35.169, 77.800 36.571, 74.500 37.553 C 63.278 40.893, 48.075 49.618, 48.021 52.750 C 48.010 53.438, 47.643 54, 47.206 54 C 46.123 54, 34 70.463, 34 71.934 C 34 72.581, 32.987 75.223, 31.750 77.805 C 29.842 81.786, 29.497 84.172, 29.483 93.500 C 29.474 99.550, 29.814 106.750, 30.238 109.500 C 30.662 112.250, 31.407 117.200, 31.895 120.500 C 32.837 126.878, 38.166 145.574, 40.042 149.078 C 40.658 150.229, 40.900 151.434, 40.579 151.754 C 40.258 152.075, 40.602 153.049, 41.343 153.919 C 42.084 154.788, 43.472 157.525, 44.429 160 C 49.347 172.725, 66.974 193.137, 80.504 201.774 C 85.261 204.811, 93.772 208.208, 96.999 208.358 C 98.925 208.448, 101.723 209.346, 103.217 210.354 C 104.779 211.408, 110.941 213.042, 117.717 214.199 C 127.385 215.850, 132.013 216.103, 143.500 215.604 C 161.252 214.833, 173.159 212.605, 177.079 209.322 C 177.947 208.595, 179.115 208, 179.675 208 C 181.407 208, 187 204.904, 187 203.946 C 187 203.447, 188.013 202.784, 189.250 202.473 C 192.640 201.621, 206 185.951, 206 182.827 C 206 181.887, 206.450 180.840, 207 180.500 C 207.550 180.160, 208 179.459, 208 178.941 C 208 177.172, 205.351 177.998, 203 180.500 C 201.708 181.875, 200.028 183, 199.267 183 C 198.505 183, 198.146 183.427, 198.469 183.950 C 198.792 184.472, 197.693 185.906, 196.028 187.138 C 194.363 188.369, 193 190.019, 193 190.805 C 193 191.732, 192.311 192.053, 191.037 191.720 C 189.957 191.437, 188.552 191.835, 187.914 192.603 C 187.277 193.371, 186.183 194, 185.485 194 C 184.786 194, 183.952 194.682, 183.633 195.515 C 183.100 196.902, 179.402 198.920, 176.194 199.573 C 174.592 199.900, 175.542 198.611, 181.750 192.036 C 184.088 189.561, 186 186.777, 186 185.851 C 186 184.925, 186.338 184.017, 186.750 183.833 C 187.716 183.404, 193.086 176.265, 194.892 173.009 C 198.723 166.102, 200.370 162.374, 200.131 161.150 C 199.985 160.407, 200.346 160.096, 200.933 160.459 C 201.553 160.842, 202 160.280, 202 159.118 C 202 158.018, 202.468 156.829, 203.041 156.475 C 203.613 156.121, 203.808 154.970, 203.473 153.916 C 202.810 151.826, 204.517 151.217, 205.338 153.250 C 205.615 153.938, 205.878 152.839, 205.921 150.809 C 205.964 148.779, 205.520 146.821, 204.933 146.459 C 203.232 145.407, 202.593 146.804, 204 148.500 C 205.546 150.362, 204.576 151.723, 202.771 150.225 C 201.860 149.469, 200.985 149.538, 199.718 150.464 C 198.183 151.587, 198.149 151.843, 199.471 152.350 C 200.312 152.673, 200.948 153.739, 200.884 154.719 C 200.775 156.387, 200.739 156.389, 200.311 154.751 C 199.600 152.032, 191.644 150.942, 189.895 153.324 C 189.563 153.777, 188.538 153.395, 187.617 152.475 C 186.196 151.054, 185.693 151.005, 184.280 152.151 C 182.882 153.285, 182.747 153.283, 183.433 152.143 C 184.070 151.085, 183.727 150.949, 181.875 151.526 L 179.500 152.266 182 150.166 C 185.113 147.551, 184.448 147.470, 179.528 149.863 C 176.343 151.412, 175.302 151.519, 173.342 150.503 C 171.051 149.314, 166 149.576, 166 150.884 C 166 151.241, 164.232 151.580, 162.072 151.637 L 158.144 151.740 160.767 147.620 C 162.210 145.354, 164.203 142.571, 165.195 141.436 C 166.188 140.300, 167 138.993, 167 138.530 C 167 138.067, 168.148 136.184, 169.551 134.344 C 172.437 130.561, 170.919 129.715, 166.885 132.859 C 165.573 133.881, 163.136 135.417, 161.468 136.271 C 158.686 137.698, 158.417 138.293, 158.199 143.503 C 157.908 150.465, 156.270 152.496, 151.713 151.547 C 149.946 151.179, 147.150 150.872, 145.500 150.864 C 142.827 150.852, 142.734 150.758, 144.648 149.996 C 147.710 148.776, 148.306 147.313, 145.989 146.707 C 144.757 146.385, 144 146.682, 144 147.488 C 144 148.235, 142.976 148.727, 141.596 148.644 C 140.274 148.565, 139.371 148.210, 139.590 147.855 C 140.475 146.421, 136.746 146.111, 135.354 147.503 C 133.597 149.260, 132.586 149.478, 133.569 147.888 C 134.490 146.398, 132.179 145.052, 128.500 144.936 C 126.850 144.885, 126.063 144.615, 126.750 144.338 C 127.438 144.060, 127.993 143.083, 127.985 142.167 C 127.975 141.127, 127.693 140.912, 127.235 141.596 C 126.485 142.715, 121 144.435, 121 143.551 C 121 143.283, 122.237 142.393, 123.750 141.572 C 126.982 139.819, 125.241 139.477, 121.578 141.146 C 120.195 141.777, 119.300 142.677, 119.590 143.146 C 119.881 143.616, 119.641 144, 119.059 144 C 118.088 144, 117.587 142.617, 117.882 140.750 C 117.947 140.338, 117.550 140, 117 140 C 116.450 140, 116 140.450, 116 141 C 116 141.550, 115.523 142, 114.941 142 C 114.359 142, 114.160 141.550, 114.500 141 C 114.840 140.450, 114.304 139.924, 113.309 139.832 C 112.314 139.739, 114.179 139.402, 117.453 139.082 L 123.406 138.500 128.208 130.156 L 133.010 121.813 130.255 116.907 C 128.740 114.209, 127.275 112.007, 127 112.013 C 126.559 112.023, 118.562 124.921, 113.765 133.361 C 111.405 137.512, 108.425 138.952, 102.500 138.805 C 98.713 138.710, 98.349 138.589, 101 138.304 C 105.631 137.807, 110.111 135.989, 109.428 134.884 C 109.128 134.398, 109.359 134, 109.941 134 C 110.523 134, 111 133.325, 111 132.500 C 111 131.248, 108.962 131, 98.655 131 C 87.580 131, 86.124 130.794, 84.500 129 C 83.505 127.900, 82.210 127, 81.623 127 C 81.035 127, 81.555 127.701, 82.777 128.557 C 85.374 130.375, 85.764 132.507, 83.330 131.573 C 82.411 131.221, 81.282 131.510, 80.821 132.216 C 80.330 132.966, 80.181 131.797, 80.462 129.405 C 80.855 126.056, 80.538 124.964, 78.721 123.405 C 74.515 119.797, 71.710 119.074, 68.455 120.758 L 65.500 122.287 68.368 119.394 C 70.669 117.072, 70.916 116.436, 69.618 116.177 C 67.547 115.763, 67.499 114, 69.559 114 C 70.416 114, 70.866 113.592, 70.558 113.094 C 70.250 112.596, 69.098 112.423, 67.999 112.711 C 66.362 113.139, 66 112.740, 66 110.510 C 66 108.439, 65.622 107.931, 64.421 108.392 C 63.102 108.898, 62.958 108.461, 63.546 105.749 C 63.934 103.962, 64.757 102.162, 65.376 101.750 C 66.166 101.222, 66.055 100.703, 65 100 C 63.667 99.111, 63.667 98.889, 65 98 C 66.244 97.171, 66.268 96.851, 65.143 96.125 C 64.224 95.532, 64.134 95.035, 64.866 94.583 C 65.460 94.216, 66.425 92.135, 67.011 89.958 C 67.598 87.781, 68.510 86, 69.039 86 C 69.567 86, 70 85.325, 70 84.500 C 70 83.675, 70.450 83, 71 83 C 71.550 83, 72 82.130, 72 81.067 C 72 80.004, 72.900 78.849, 74 78.500 C 75.100 78.151, 76 77.169, 76 76.317 C 76 74.206, 90.055 61.010, 92.309 61.004 C 93.304 61.002, 93.887 60.626, 93.604 60.169 C 93.322 59.712, 94.645 58.728, 96.545 57.982 C 98.445 57.237, 100 56.311, 100 55.926 C 100 55.140, 119.383 52.378, 122.500 52.719 C 123.600 52.839, 127.200 53.159, 130.500 53.430 C 139.344 54.155, 144.072 55.075, 143.522 55.964 C 143.255 56.396, 144.860 57.042, 147.089 57.398 C 149.317 57.755, 152.210 58.747, 153.518 59.604 C 154.825 60.460, 156.134 61.140, 156.427 61.115 C 157.379 61.034, 163.181 64.442, 166.020 66.750 C 167.543 67.987, 169.077 69, 169.430 69 C 169.782 69, 171.223 69.755, 172.631 70.678 C 174.039 71.601, 176.161 72.454, 177.346 72.574 C 178.531 72.694, 180.450 73.100, 181.612 73.477 C 183.089 73.955, 183.913 73.670, 184.351 72.529 C 184.760 71.461, 184.585 71.139, 183.844 71.597 C 183.066 72.078, 182.871 71.455, 183.223 69.613 C 183.585 67.719, 183.188 66.545, 181.875 65.625 C 180.851 64.907, 180.347 63.952, 180.756 63.501 C 181.165 63.050, 180.671 62.980, 179.657 63.345 C 178.366 63.810, 177.673 63.467, 177.342 62.199 C 177.082 61.204, 174.877 59.515, 172.444 58.445 C 170.010 57.375, 168.015 56.191, 168.009 55.813 C 168.004 55.435, 166.313 55.360, 164.250 55.646 C 161.542 56.021, 160.902 55.884, 161.948 55.152 C 163.101 54.344, 162.796 54.006, 160.448 53.494 C 158.827 53.140, 154.602 52.011, 151.060 50.984 C 147.517 49.957, 144.268 49.334, 143.839 49.600 C 143.410 49.865, 141.639 49.348, 139.904 48.450 C 137.948 47.439, 135.086 46.951, 132.374 47.167 C 128.687 47.460, 128 47.229, 128 45.698 C 128 44.625, 127.547 44.162, 126.893 44.566 C 125.738 45.280, 117.989 43.119, 118.015 42.090 C 118.076 39.762, 120.336 39.019, 128.047 38.793 C 136.472 38.547, 146.015 39.273, 147.653 40.285 C 148.127 40.579, 150.256 41.145, 152.384 41.544 C 159.453 42.870, 169.107 46.908, 174.336 50.726 C 182.850 56.941, 190 63.423, 190 64.925 C 190 65.425, 190.338 65.983, 190.750 66.167 C 191.899 66.677, 199 77.499, 199 78.740 C 199 79.341, 199.356 79.983, 199.791 80.167 C 201.097 80.717, 206.775 91.429, 209.069 97.669 C 213.565 109.901, 214.828 135.156, 211.572 147.723 C 209.485 155.776, 209.595 157.177, 212.004 153.226 C 213.102 151.425, 214 148.950, 214 147.726 C 214 146.502, 214.893 142.800, 215.985 139.500 C 217.077 136.200, 218.211 132.262, 218.504 130.750 C 218.798 129.238, 219.512 128, 220.090 128 C 220.669 128, 221.898 127.244, 222.821 126.321 C 224.806 124.335, 225.139 111.657, 223.307 107.826 C 222.696 106.547, 221.175 102.575, 219.928 99 C 218.680 95.425, 216.900 91.375, 215.971 90 C 215.041 88.625, 213.462 85.700, 212.461 83.500 C 209.215 76.368, 198.899 62.095, 192.117 55.354 C 180.669 43.975, 166.912 36.588, 149.543 32.495 C 139.677 30.169, 121.805 28.802, 112 29.622 M 83.967 41.953 C 69.784 47.721, 52.367 62.124, 51.326 68.946 C 51.148 70.112, 50.275 72.177, 49.386 73.533 C 48.497 74.890, 48.043 76, 48.377 76 C 48.711 76, 48.370 77.688, 47.620 79.750 C 45.628 85.226, 43.697 94.030, 44.345 94.678 C 44.653 94.986, 46.164 93.086, 47.703 90.455 C 49.241 87.825, 52.413 82.762, 54.750 79.204 C 57.087 75.646, 59 72.345, 59 71.868 C 59 71.390, 59.631 71, 60.401 71 C 62.343 71, 66.250 64.279, 64.681 63.639 C 63.786 63.274, 63.784 63.139, 64.673 63.079 C 66.312 62.969, 72 57.124, 72 55.550 C 72 53.523, 84.238 43, 86.596 43 C 87.251 43, 88.045 42.325, 88.362 41.500 C 88.678 40.675, 88.839 40.025, 88.719 40.055 C 88.598 40.085, 86.460 40.939, 83.967 41.953 M 83.289 116.221 C 81.835 117.738, 80.838 119.166, 81.073 119.394 C 81.706 120.009, 86.407 120.225, 96.604 120.106 C 104.906 120.009, 105.951 119.775, 108.465 117.445 C 109.982 116.039, 111.020 114.686, 110.772 114.438 C 110.524 114.190, 104.833 113.869, 98.126 113.725 C 85.971 113.463, 85.923 113.471, 83.289 116.221 M 184.250 115.328 C 186.731 117.302, 186.443 118.197, 182.502 120.750 C 177.708 123.855, 177.136 123.623, 177.561 118.750 C 177.766 116.412, 177.689 115.293, 177.391 116.262 C 177.093 117.231, 176.433 117.767, 175.924 117.453 C 175.377 117.115, 175 122.131, 175 129.757 L 175 142.632 179.250 144.991 C 181.588 146.289, 184.884 148.390, 186.576 149.661 L 189.652 151.972 194.361 148.986 C 196.951 147.344, 199.504 146, 200.035 146 C 200.566 146, 201 145.599, 201 145.108 C 201 144.618, 202.012 143.963, 203.250 143.653 C 205.440 143.105, 205.492 142.787, 205.207 131.795 C 205.046 125.583, 204.711 119.909, 204.464 119.187 C 203.772 117.165, 201.760 118.972, 202.319 121.113 C 202.591 122.151, 202.332 123, 201.744 123 C 199.989 123, 192 117.998, 192 116.899 C 192 116.340, 191.598 116.131, 191.106 116.434 C 190.615 116.738, 188.477 116.300, 186.356 115.462 C 183.348 114.272, 182.885 114.242, 184.250 115.328 M 74.500 119 C 74.160 119.550, 74.584 120, 75.441 120 C 76.298 120, 77 119.550, 77 119 C 77 118.450, 76.577 118, 76.059 118 C 75.541 118, 74.840 118.450, 74.500 119 M 158.673 121.143 C 158.362 122.330, 157.572 122.701, 156.147 122.328 C 155.007 122.030, 152.026 122.777, 149.524 123.989 L 144.973 126.191 147.394 128.096 C 148.726 129.143, 150.091 130, 150.428 130 C 150.764 130, 152.824 131.126, 155.005 132.503 L 158.970 135.006 166.129 130.417 L 173.288 125.829 170.413 123.943 C 168.833 122.906, 166.289 121.783, 164.761 121.447 C 163.233 121.112, 162.221 120.451, 162.513 119.979 C 162.805 119.507, 162.161 119.187, 161.084 119.269 C 160.006 119.350, 158.921 120.193, 158.673 121.143 M 184.741 122.374 C 182.673 123.645, 180.747 124.920, 180.460 125.207 C 179.812 125.854, 183.713 128.463, 186.777 129.432 C 188.953 130.120, 189.035 129.953, 188.631 125.625 C 188.366 122.793, 188.637 120.922, 189.354 120.628 C 189.984 120.369, 190.050 120.136, 189.500 120.110 C 188.950 120.084, 186.808 121.103, 184.741 122.374 M 191.452 125.508 C 191.579 127.988, 191.867 130.185, 192.092 130.391 C 192.671 130.922, 200.005 126.125, 199.975 125.235 C 199.949 124.454, 193.502 121, 192.069 121 C 191.602 121, 191.324 123.029, 191.452 125.508 M 81 123.427 C 81 124.213, 82.203 125.801, 83.674 126.958 C 86.087 128.856, 87.550 129.049, 98.674 128.933 C 112.103 128.794, 113.627 128.007, 108.096 124.068 C 105.544 122.251, 103.721 122, 93.096 122 C 83.284 122, 81 122.270, 81 123.427 M 151.260 124.485 C 150.478 125.373, 150.386 126.120, 151.010 126.506 C 151.554 126.843, 152 126.641, 152 126.059 C 152 125.477, 152.675 125, 153.500 125 C 154.325 125, 155 124.550, 155 124 C 155 122.547, 152.703 122.845, 151.260 124.485 M 70 125 C 69.099 125.582, 68.975 125.975, 69.691 125.985 C 70.346 125.993, 71.160 125.550, 71.500 125 C 72.267 123.758, 71.921 123.758, 70 125 M 69.500 128 C 69.840 128.550, 70.316 129, 70.559 129 C 70.802 129, 71 128.550, 71 128 C 71 127.450, 70.523 127, 69.941 127 C 69.359 127, 69.160 127.450, 69.500 128 M 73 129.110 C 71.734 130.020, 71.773 130.101, 73.250 129.626 C 74.213 129.316, 75 129.351, 75 129.703 C 75 130.055, 74.213 131.270, 73.250 132.404 C 71.936 133.952, 71.896 134.161, 73.092 133.241 C 73.968 132.568, 74.980 132.313, 75.342 132.675 C 75.704 133.037, 76 132.133, 76 130.667 C 76 127.780, 75.331 127.433, 73 129.110 M 132.048 132.430 C 130.372 134.867, 129 137.342, 129 137.930 C 129 139.297, 141.651 139.374, 142.492 138.013 C 142.828 137.470, 142.603 136.457, 141.992 135.763 C 141.381 135.068, 140.015 133.037, 138.955 131.250 C 137.896 129.463, 136.594 128, 136.063 128 C 135.531 128, 133.724 129.994, 132.048 132.430 M 178.143 134.090 C 178.347 139.849, 178.894 140.605, 185.318 144.013 L 189.924 146.456 195.350 143.709 C 198.781 141.972, 200.997 140.140, 201.375 138.730 C 202.249 135.468, 202.130 129, 201.196 129 C 200.753 129, 198.263 130.350, 195.661 132 C 193.059 133.650, 190.565 135, 190.119 135 C 188.829 135, 182.630 131.748, 181.179 130.309 C 178.774 127.927, 177.961 128.940, 178.143 134.090 M 78.405 136.146 C 76.510 138.280, 76.512 138.285, 78.750 137.110 C 79.987 136.461, 81 135.495, 81 134.965 C 81 133.544, 80.521 133.762, 78.405 136.146 M 170.079 141.583 C 170.127 142.748, 170.364 142.985, 170.683 142.188 C 170.972 141.466, 170.936 140.603, 170.604 140.271 C 170.272 139.939, 170.036 140.529, 170.079 141.583 M 110.500 143 C 110.840 143.550, 111.316 144, 111.559 144 C 111.802 144, 112 143.550, 112 143 C 112 142.450, 111.523 142, 110.941 142 C 110.359 142, 110.160 142.450, 110.500 143 M 177 146.500 C 177.860 147.536, 177.898 148, 177.122 148 C 176.505 148, 176 148.440, 176 148.979 C 176 149.555, 177.105 149.454, 178.691 148.731 C 180.728 147.803, 180.971 147.425, 179.691 147.179 C 178.761 147, 178 146.436, 178 145.927 C 178 145.417, 177.495 145, 176.878 145 C 176.102 145, 176.140 145.464, 177 146.500 M 153.679 147.711 C 153.378 148.197, 153.496 149.185, 153.941 149.905 C 154.556 150.899, 154.927 150.927, 155.488 150.020 C 155.894 149.363, 155.776 148.376, 155.226 147.826 C 154.666 147.266, 153.985 147.216, 153.679 147.711 M 198.500 148 C 198.160 148.550, 198.359 149, 198.941 149 C 199.523 149, 200 148.550, 200 148 C 200 147.450, 199.802 147, 199.559 147 C 199.316 147, 198.840 147.450, 198.500 148 M 100.461 221.492 C 102.089 222.823, 103.629 223.705, 103.881 223.452 C 104.134 223.200, 105.276 223.604, 106.420 224.350 C 108.298 225.576, 110.575 226.217, 116.462 227.179 C 117.694 227.381, 118.558 226.850, 118.785 225.750 C 119.027 224.577, 118.529 224, 117.273 224 C 116.243 224, 114.972 223.612, 114.450 223.138 C 113.452 222.231, 101.019 218.974, 98.794 219.036 C 98.083 219.056, 98.832 220.161, 100.461 221.492 M 123 228 C 123 228.550, 123.477 229, 124.059 229 C 124.641 229, 124.840 228.550, 124.500 228 C 124.160 227.450, 123.684 227, 123.441 227 C 123.198 227, 123 227.450, 123 228" stroke="none" fill="#000000" fill-rule="evenodd"/><path fill-opacity=".032" d="M 117.500 32 C 117.160 32.550, 117.584 33, 118.441 33 C 119.298 33, 120 32.550, 120 32 C 120 31.450, 119.577 31, 119.059 31 C 118.541 31, 117.840 31.450, 117.500 32 M 125.247 32.250 C 125.474 32.938, 127.649 33.794, 130.080 34.153 C 161.826 38.839, 182.873 50.875, 197.135 72.500 C 203.411 82.015, 208.282 91.127, 211.567 99.500 C 214.730 107.559, 215.668 109, 217.751 109 C 218.988 109, 219.136 108.059, 218.581 103.750 C 217.860 98.153, 216.164 92.295, 214.675 90.257 C 214.175 89.573, 212.533 86.423, 211.025 83.257 C 205.979 72.662, 196.303 59.743, 187.500 51.849 C 173.794 39.557, 151.425 31.385, 130.667 31.084 C 126.418 31.023, 124.946 31.340, 125.247 32.250 M 101.450 32.915 C 100.927 33.419, 99.375 34.063, 98 34.348 C 96.625 34.632, 97.075 34.688, 99 34.473 C 100.925 34.257, 104.525 33.669, 107 33.166 L 111.500 32.250 106.950 32.125 C 104.448 32.056, 101.973 32.412, 101.450 32.915 M 86.191 36.850 C 84.921 37.207, 84.021 37.950, 84.191 38.500 C 84.361 39.050, 84.950 39.350, 85.500 39.166 C 86.050 38.982, 88.750 38.225, 91.500 37.482 L 96.500 36.132 92.500 36.165 C 90.300 36.184, 87.461 36.492, 86.191 36.850 M 77 40.941 C 77 42.792, 79.034 43.089, 81.221 41.558 C 83.431 40.010, 83.425 40, 80.223 40 C 78.450 40, 77 40.423, 77 40.941 M 66 47.393 C 66 47.609, 66.675 48.045, 67.500 48.362 C 68.325 48.678, 69 48.501, 69 47.969 C 69 47.436, 68.325 47, 67.500 47 C 66.675 47, 66 47.177, 66 47.393 M 48 61.059 C 48 61.641, 48.450 61.840, 49 61.500 C 49.550 61.160, 50 60.684, 50 60.441 C 50 60.198, 49.550 60, 49 60 C 48.450 60, 48 60.477, 48 61.059 M 42.656 67.207 C 39.585 71.233, 37 77.098, 37 80.039 C 37 81.196, 36.302 82.841, 35.448 83.694 C 34.141 85.002, 33.993 87.234, 34.507 97.873 C 34.843 104.818, 35.543 112.409, 36.062 114.742 C 36.581 117.076, 36.917 119.326, 36.808 119.742 C 36.293 121.727, 38.354 135.252, 40.124 141.500 C 45.860 161.752, 52.339 173.057, 66.228 187.045 C 77.510 198.409, 85.888 203.039, 100.694 206.098 C 104.590 206.902, 106.636 207.785, 106.348 208.536 C 105.145 211.670, 119.651 214.208, 138.921 214.236 C 154.206 214.258, 154.707 214.189, 165.442 210.612 C 171.460 208.606, 177.215 206.073, 178.231 204.983 C 179.247 203.892, 180.912 203, 181.932 203 C 182.952 203, 184.047 202.319, 184.366 201.488 C 184.829 200.281, 184.396 200.107, 182.223 200.626 C 180.726 200.984, 178.772 201.649, 177.881 202.103 C 176.991 202.558, 176.021 202.687, 175.724 202.391 C 175.428 202.095, 173.682 202.640, 171.843 203.602 C 170.004 204.564, 167.486 205.466, 166.246 205.608 C 164.291 205.830, 164.182 205.675, 165.425 204.432 C 166.213 203.644, 167.255 203, 167.741 203 C 169.203 203, 179.534 191.660, 183.902 185.260 C 188.842 178.024, 191.127 172.823, 190.098 171.159 C 189.256 169.797, 181.419 170.551, 179.327 172.195 C 178.682 172.702, 176.057 172.871, 173.495 172.569 C 170.356 172.200, 168.410 172.447, 167.531 173.326 C 166.814 174.043, 164.826 174.533, 163.113 174.415 C 161.401 174.296, 160 174.604, 160 175.100 C 160 176.505, 157.833 176.159, 155.948 174.453 C 154.404 173.056, 154.087 173.056, 152.690 174.453 C 151.109 176.034, 144 176.646, 144 175.201 C 144 173.592, 137.168 171.949, 133.150 172.592 C 130.104 173.079, 128.695 172.838, 127.477 171.620 C 126.561 170.704, 126.348 170, 126.988 170 C 129.567 170, 126.655 168.182, 119.801 165.514 C 115.785 163.950, 112.275 162.343, 112 161.941 C 111.725 161.540, 108.013 160.886, 103.750 160.488 C 96.878 159.847, 96 159.955, 96 161.442 C 96 162.364, 95.543 162.835, 94.984 162.490 C 94.425 162.144, 94.226 161.443, 94.543 160.931 C 94.859 160.419, 93.686 160, 91.937 160 C 89.472 160, 88.993 160.287, 89.813 161.275 C 90.647 162.280, 89.846 162.525, 86.023 162.434 C 80.947 162.312, 78 160.487, 78 157.464 C 78 156.358, 77.471 155.989, 76.448 156.382 C 74.355 157.185, 70 154.208, 70 151.974 C 70 150.986, 68.650 149.042, 67 147.653 C 63.642 144.828, 63.302 144, 65.500 144 C 66.325 144, 67 143.550, 67 143 C 67 142.450, 66.577 142, 66.059 142 C 65.541 142, 64.840 142.450, 64.500 143 C 64.160 143.550, 63.459 144, 62.941 144 C 62.423 144, 62 143.550, 62 143 C 62 142.450, 62.627 142, 63.394 142 C 64.224 142, 64.730 141.068, 64.645 139.697 C 64.546 138.109, 63.896 137.411, 62.551 137.447 C 61.445 137.477, 60.044 136.417, 59.315 135 C 58.369 133.161, 58.026 132.963, 58.015 134.250 C 57.997 136.312, 57.588 136.385, 54.705 134.842 C 51.049 132.886, 50.143 131.590, 51.526 130.298 C 52.338 129.540, 53.088 129.488, 53.746 130.146 C 55.583 131.983, 58.480 131.770, 61.500 129.575 C 63.150 128.376, 66.094 126.476, 68.042 125.353 C 71.225 123.520, 71.809 123.461, 73.792 124.778 C 77.035 126.931, 76.831 132.217, 73.435 134.035 C 70.473 135.620, 68.091 134.634, 66.513 131.168 C 65.311 128.529, 63.856 128.400, 62.357 130.799 C 60.876 133.171, 62.280 135.071, 67.487 137.742 L 71.474 139.787 75.154 137.669 C 78.395 135.804, 78.883 135.010, 79.239 131.025 C 79.770 125.081, 79.587 124.698, 74.962 122.099 L 71.017 119.882 63.987 123.576 C 57.184 127.151, 56.892 127.213, 54.978 125.480 C 52.426 123.170, 52.456 119.802, 55.051 117.454 C 56.980 115.708, 57.261 115.696, 59.801 117.254 C 61.325 118.190, 62.364 119.620, 62.187 120.541 C 61.973 121.652, 62.451 122.061, 63.687 121.825 C 65.918 121.400, 66.630 117.448, 64.781 115.748 C 60.560 111.870, 57.058 111.200, 52.750 113.447 C 51.237 114.236, 50 114.458, 50 113.941 C 50 113.423, 50.337 112.999, 50.750 112.999 C 51.163 112.998, 51.631 111.090, 51.792 108.759 C 52.143 103.651, 54.766 94.263, 56.066 93.459 C 56.580 93.142, 57 92.218, 57 91.406 C 57 90.240, 56.580 90.154, 55 91 C 53.644 91.726, 53 91.737, 53 91.035 C 53 90.466, 52.325 90, 51.500 90 C 49.684 90, 49.528 91.590, 51.240 92.648 C 52.089 93.173, 51.755 93.586, 50.181 93.957 C 48.916 94.256, 48.015 94.725, 48.177 95 C 48.339 95.275, 47.466 97.128, 46.236 99.118 C 45.006 101.108, 44 103.669, 44 104.809 C 44 105.949, 43.518 107.180, 42.930 107.543 C 42.341 107.907, 41.457 109.171, 40.965 110.352 C 40.370 111.779, 40.212 109.983, 40.492 105 C 41.544 86.292, 42.333 79.363, 43.618 77.527 C 44.378 76.443, 45 74.755, 45 73.777 C 45 72.800, 45.950 71.050, 47.111 69.889 C 49.217 67.783, 49.218 67.773, 47.236 65.792 C 45.255 63.810, 45.244 63.814, 42.656 67.207 M 40.813 72.683 C 41.534 72.972, 42.397 72.936, 42.729 72.604 C 43.061 72.272, 42.471 72.036, 41.417 72.079 C 40.252 72.127, 40.015 72.364, 40.813 72.683 M 87 114.820 C 84.298 116.044, 81 118.466, 81 119.225 C 81 119.633, 86.468 119.762, 93.152 119.509 C 103.627 119.114, 105.559 118.777, 107.152 117.067 C 109.570 114.472, 109.504 114.294, 106.250 114.632 C 96.512 115.643, 93.850 115.709, 95.115 114.908 C 96.779 113.854, 89.310 113.773, 87 114.820 M 48.079 120.583 C 48.127 121.748, 48.364 121.985, 48.683 121.188 C 48.972 120.466, 48.936 119.603, 48.604 119.271 C 48.272 118.939, 48.036 119.529, 48.079 120.583 M 120.324 123.816 C 119.424 125.292, 117.616 128.204, 116.305 130.288 C 114.994 132.371, 113.501 135.183, 112.986 136.538 C 112.071 138.943, 112.161 139, 116.870 139 C 121.969 139, 124.140 137.546, 125.447 133.256 C 125.823 132.022, 126.754 130.389, 127.516 129.627 C 128.278 128.865, 129.185 126.950, 129.532 125.371 C 130.013 123.178, 129.910 122.854, 129.096 124 C 128.067 125.448, 127.894 125.315, 127.625 122.861 C 127.556 122.235, 126.253 121.590, 124.730 121.427 C 122.621 121.203, 121.569 121.773, 120.324 123.816 M 81.399 123.159 C 81.177 123.521, 82.245 124.871, 83.773 126.159 C 86.414 128.385, 87.162 128.484, 99.025 128.175 L 111.500 127.850 108.553 125.481 C 105.886 123.336, 104.481 123.083, 93.705 122.806 C 87.160 122.638, 81.622 122.796, 81.399 123.159 M 189 127.500 C 189 128.875, 189.450 130, 190 130 C 190.550 130, 191 128.875, 191 127.500 C 191 126.125, 190.550 125, 190 125 C 189.450 125, 189 126.125, 189 127.500 M 179 127.414 C 179 128.190, 189.024 134, 190.362 134 C 191.095 134, 192.775 133.030, 194.097 131.844 C 196.137 130.014, 196.198 129.804, 194.500 130.458 C 190.147 132.132, 189.194 132.047, 184.534 129.569 C 179.559 126.924, 179 126.706, 179 127.414 M 132.726 132.568 C 131.208 135.081, 130.226 137.556, 130.542 138.068 C 131.172 139.087, 140.297 139.369, 141.266 138.400 C 142.001 137.666, 139.976 133, 138.923 133 C 138.507 133, 137.901 133.563, 137.577 134.250 C 137.253 134.938, 137.234 134.225, 137.534 132.666 C 137.882 130.860, 137.707 130.063, 137.052 130.468 C 136.440 130.846, 136.264 130.475, 136.618 129.552 C 137.882 126.258, 135.354 128.218, 132.726 132.568 M 197.813 128.683 C 198.534 128.972, 199.397 128.936, 199.729 128.604 C 200.061 128.272, 199.471 128.036, 198.417 128.079 C 197.252 128.127, 197.015 128.364, 197.813 128.683 M 175.794 131.951 C 175.507 133.904, 175.739 134.920, 176.419 134.694 C 177.889 134.205, 178.412 131.012, 177.218 129.818 C 176.593 129.193, 176.088 129.949, 175.794 131.951 M 203 134.111 C 203 139.808, 201.392 142.006, 195.053 144.975 L 189.919 147.380 184.469 144.528 C 178.678 141.499, 175.069 137.547, 177.276 136.654 C 177.977 136.370, 177.752 136.124, 176.750 136.079 C 175.475 136.021, 175 136.772, 175 138.843 C 175 141.297, 175.953 142.254, 181.969 145.843 C 185.803 148.129, 189.447 150, 190.069 150 C 191.430 150, 203.201 142.937, 204.220 141.509 C 204.902 140.554, 204.200 130.971, 203.383 130.083 C 203.172 129.854, 203 131.667, 203 134.111 M 83.729 133.761 C 82.228 135.328, 81 136.810, 81 137.055 C 81 137.300, 86.737 137.353, 93.750 137.172 C 105.648 136.867, 106.650 136.686, 108.741 134.476 C 109.973 133.173, 110.648 131.906, 110.241 131.661 C 109.833 131.416, 104.315 131.147, 97.979 131.064 C 86.535 130.914, 86.439 130.933, 83.729 133.761 M 55 132.882 C 55 133.432, 55.450 134.160, 56 134.500 C 56.550 134.840, 57 134.668, 57 134.118 C 57 133.568, 56.550 132.840, 56 132.500 C 55.450 132.160, 55 132.332, 55 132.882 M 134.564 133.707 C 134.022 135.132, 134.136 135.247, 135.124 134.267 C 135.808 133.588, 136.115 132.781, 135.807 132.474 C 135.499 132.166, 134.940 132.721, 134.564 133.707 M 159 145.941 C 159 147.623, 159.173 149, 159.383 149 C 160.232 149, 160.671 143.915, 159.866 143.417 C 159.390 143.123, 159 144.259, 159 145.941 M 76.687 162.876 C 78.624 164.857, 79.601 165.324, 79.823 164.378 C 80.234 162.628, 77.644 160, 75.509 160 C 74.269 160, 74.554 160.695, 76.687 162.876 M 102 163.500 C 102 164.325, 102.450 165, 103 165 C 103.550 165, 104 164.325, 104 163.500 C 104 162.675, 103.550 162, 103 162 C 102.450 162, 102 162.675, 102 163.500" stroke="none" fill="#000000" fill-rule="evenodd"/><path fill-opacity=".161" d="M 158 38.866 C 168.954 43.179, 179.654 50.557, 189.294 60.442 C 193.023 64.265, 207.995 86.073, 208.005 87.695 C 208.008 88.138, 209.117 89.850, 210.469 91.500 C 212.805 94.349, 212.930 94.387, 212.964 92.250 C 212.984 91.013, 212.502 90, 211.893 90 C 211.284 90, 211.009 89.418, 211.283 88.706 C 211.794 87.373, 210.371 84.162, 205.429 75.500 C 199.362 64.866, 185.756 50.202, 177.947 45.882 C 176.338 44.992, 174.447 43.786, 173.745 43.203 C 172.055 41.801, 157.651 36.987, 155.324 37.047 C 154.321 37.073, 155.525 37.891, 158 38.866 M 52.750 114.220 C 49.181 116.288, 49 116.643, 49 121.558 C 49 126.622, 49.083 126.766, 53.300 129.003 L 57.599 131.284 64.158 127.142 C 71.453 122.535, 72.990 122.203, 75.227 124.750 C 78.237 128.178, 78.246 130.607, 75.261 133.876 L 72.451 136.952 69.225 134.991 C 67.451 133.912, 66 132.348, 66 131.515 C 66 130.682, 65.325 130, 64.500 130 C 63.570 130, 63 130.942, 63 132.480 C 63 134.366, 63.958 135.448, 67.005 137.003 C 70.740 138.908, 71.216 138.940, 74.048 137.475 C 77.693 135.590, 79.270 131.955, 78.416 127.403 C 77.920 124.761, 77.080 123.797, 74.447 122.845 C 72.610 122.180, 71.331 121.274, 71.605 120.830 C 71.879 120.386, 71.408 120.290, 70.558 120.616 C 69.707 120.943, 69.279 121.643, 69.606 122.172 C 69.933 122.701, 69.593 123.022, 68.850 122.886 C 68.108 122.749, 65.381 123.700, 62.791 124.998 C 58.830 126.984, 57.679 127.175, 55.541 126.201 C 51.985 124.581, 51.919 118.754, 55.430 116.454 C 57.662 114.992, 58.069 114.999, 60.430 116.546 C 61.843 117.472, 63 118.853, 63 119.615 C 63 120.377, 63.450 121, 64 121 C 64.550 121, 65 119.919, 65 118.599 C 65 116.907, 63.949 115.577, 61.443 114.099 C 57.117 111.547, 57.367 111.543, 52.750 114.220 M 84.306 125.532 C 85.912 126.945, 88.263 127.961, 89.806 127.910 C 92.457 127.821, 92.450 127.805, 89.376 126.914 C 87.657 126.416, 85.690 125.331, 85.003 124.504 C 84.317 123.677, 83.248 123.014, 82.628 123.032 C 82.007 123.049, 82.763 124.174, 84.306 125.532 M 87.288 124.101 C 88.491 124.802, 89.961 124.818, 91.788 124.150 C 94.291 123.234, 94.154 123.154, 90 123.109 C 86.418 123.071, 85.865 123.273, 87.288 124.101 M 84.034 134.463 L 81.651 137 93.076 136.985 C 99.359 136.976, 105.175 136.533, 106 136 C 107.110 135.283, 106.480 135.027, 103.583 135.015 C 98.593 134.996, 99.245 134.292, 104.852 133.648 C 112.613 132.757, 110.351 132.214, 98.270 132.069 C 86.789 131.931, 86.343 132.006, 84.034 134.463 M 119.872 137.664 C 118.628 139.172, 118.710 139.216, 120.750 138.129 C 123.077 136.889, 123.650 136, 122.122 136 C 121.640 136, 120.627 136.749, 119.872 137.664 M 180 143.430 C 180 143.705, 180.900 144.411, 182 145 C 183.100 145.589, 184 145.845, 184 145.570 C 184 145.295, 183.100 144.589, 182 144 C 180.900 143.411, 180 143.155, 180 143.430 M 187.768 148.168 C 188.350 148.750, 189.415 149.028, 190.137 148.788 C 190.886 148.538, 190.432 148.085, 189.080 147.731 C 187.417 147.296, 187.026 147.426, 187.768 148.168 M 164.065 189.060 C 162.726 189.617, 161.067 189.856, 160.379 189.592 C 159.691 189.328, 158.065 189.948, 156.765 190.970 C 154.810 192.508, 152.819 192.800, 145.201 192.664 C 140.140 192.574, 135.999 192.775, 136 193.111 C 136 193.448, 134.875 193.508, 133.500 193.245 C 132.125 192.982, 131 192.369, 131 191.883 C 131 191.398, 130.325 191, 129.500 191 C 128.675 191, 128 191.675, 128 192.500 C 128 193.333, 127.111 194, 126 194 C 124.900 194, 124 193.590, 124 193.088 C 124 191.717, 116.546 190.732, 111.996 191.501 C 109.793 191.873, 108.245 192.587, 108.555 193.089 C 108.865 193.590, 108.390 194, 107.500 194 C 106.610 194, 106.160 194.450, 106.500 195 C 106.840 195.550, 106.615 196, 106 196 C 105.385 196, 105.160 196.450, 105.500 197 C 105.840 197.550, 105.641 198, 105.059 198 C 104.477 198, 104 196.650, 104 195 C 104 193.350, 103.555 192, 103.011 192 C 102.467 192, 102.078 193.012, 102.147 194.250 C 102.215 195.488, 101.937 197.287, 101.528 198.250 C 100.903 199.724, 101.336 200, 104.276 200 C 106.926 200, 107.893 200.482, 108.290 202 C 108.577 203.100, 109.530 204, 110.406 204 C 111.283 204, 112 204.398, 112 204.883 C 112 205.369, 113.013 206.070, 114.250 206.442 C 116.423 207.093, 116.432 207.144, 114.507 207.907 C 112.704 208.621, 112.848 208.871, 116.007 210.508 C 121.019 213.106, 141.663 213.874, 148.065 211.700 C 155.027 209.335, 163.484 204.340, 163.492 202.587 C 163.497 201.727, 164.911 200.230, 166.636 199.261 C 174.172 195.028, 178.557 189.171, 174.250 189.092 C 173.287 189.075, 171.150 188.832, 169.500 188.554 C 167.850 188.275, 165.404 188.503, 164.065 189.060 M 112 193 C 112 193.550, 112.477 194, 113.059 194 C 113.641 194, 113.840 193.550, 113.500 193 C 113.160 192.450, 112.684 192, 112.441 192 C 112.198 192, 112 192.450, 112 193" stroke="none" fill="#000000" fill-rule="evenodd"/></svg>