<svg width="499" height="500" viewBox="0 0 499 500" fill="#000000" xmlns="http://www.w3.org/2000/svg">
<path fill-rule="evenodd" clip-rule="evenodd" d="M207.477 2.13658C5.22704 41.8784 -69.2741 281.321 75.0434 427.773C133.063 486.649 222.923 512.547 305.467 494.178L321.93 490.513V449.673C321.93 414.221 321.293 409.078 317.11 410.684C199.145 455.951 77.345 374.115 77.345 249.584C77.345 125.053 199.145 43.2174 317.11 88.4844C321.293 90.0898 321.93 84.9473 321.93 49.4951V8.6557L305.467 4.89599C283.527 -0.114859 227.025 -1.70466 207.477 2.13658ZM219.468 147.282C144.86 171.769 119.599 262.845 171.623 319.767C236.777 391.054 354.111 347.07 354.676 251.152C355.093 180.219 284.452 125.95 219.468 147.282ZM397.409 158.53C431.958 214.677 430.553 291.182 393.966 346.007L387.165 356.198H431.482H475.802L482.189 341.303C504.637 288.937 504.346 209.632 481.509 156.297L475.802 142.97H431.82H387.836L397.409 158.53Z" fill="#000000"/>
</svg>
