<!-- Generated by IcoMoon.io -->
<svg version="1.1" xmlns="http://www.w3.org/2000/svg" width="32" height="32" viewBox="0 0 32 32" fill="#000000">
<title>cfg</title>
<path d="M13.52 0.16c-0.054 0.088-0.28 0.16-0.501 0.16s-0.939 0.18-1.594 0.4-1.3 0.4-1.433 0.4c-0.133 0-0.761 0.294-1.397 0.652s-1.299 0.777-1.475 0.929-0.625 0.47-0.997 0.708c-0.372 0.237-1.182 0.944-1.8 1.57s-1.123 1.232-1.123 1.347c0 0.115-0.178 0.42-0.396 0.679s-0.686 0.982-1.040 1.607c-0.354 0.626-0.644 1.246-0.644 1.379s-0.18 0.778-0.4 1.433-0.4 1.373-0.4 1.594c0 0.221-0.072 0.447-0.16 0.501-0.095 0.059-0.16 1.065-0.16 2.48s0.065 2.421 0.16 2.48c0.088 0.054 0.16 0.294 0.16 0.532s0.144 0.827 0.32 1.308c0.176 0.481 0.32 1.028 0.32 1.214s0.261 0.835 0.58 1.442c0.319 0.607 0.769 1.355 1 1.662s0.612 0.856 0.846 1.222c0.234 0.366 0.944 1.177 1.579 1.803s1.248 1.138 1.363 1.138c0.115 0 0.42 0.178 0.679 0.396s0.982 0.686 1.607 1.040c0.626 0.354 1.246 0.644 1.379 0.644s0.778 0.18 1.433 0.4 1.373 0.4 1.594 0.4c0.221 0 0.447 0.072 0.501 0.16 0.059 0.095 1.065 0.16 2.48 0.16s2.421-0.065 2.48-0.16c0.054-0.088 0.294-0.16 0.532-0.16s0.827-0.144 1.308-0.32c0.481-0.176 1.028-0.32 1.214-0.32s0.835-0.261 1.442-0.58c0.607-0.319 1.355-0.769 1.662-1s0.856-0.612 1.222-0.846c0.366-0.234 1.177-0.944 1.803-1.579s1.138-1.248 1.138-1.363c0-0.115 0.178-0.42 0.396-0.679s0.686-0.982 1.040-1.607c0.354-0.626 0.644-1.246 0.644-1.379s0.18-0.778 0.4-1.433 0.4-1.373 0.4-1.594c0-0.221 0.072-0.447 0.16-0.501 0.095-0.059 0.16-1.065 0.16-2.48s-0.065-2.421-0.16-2.48c-0.088-0.054-0.16-0.294-0.16-0.532s-0.144-0.827-0.32-1.308c-0.176-0.481-0.32-1.028-0.32-1.214s-0.261-0.835-0.58-1.442c-0.319-0.607-0.769-1.355-1-1.662s-0.612-0.856-0.846-1.222c-0.234-0.366-0.944-1.177-1.579-1.803s-1.248-1.138-1.363-1.138c-0.115 0-0.42-0.178-0.679-0.396s-0.982-0.686-1.607-1.040c-0.626-0.354-1.246-0.644-1.379-0.644s-0.778-0.18-1.433-0.4-1.373-0.4-1.594-0.4c-0.221 0-0.447-0.072-0.501-0.16-0.059-0.095-1.065-0.16-2.48-0.16s-2.421 0.065-2.48 0.16zM18.72 2.686c0.396 0.092 1.116 0.269 1.6 0.393s1.193 0.387 1.575 0.584c0.382 0.197 1.174 0.651 1.76 1.009s1.479 1.070 1.985 1.582c0.506 0.512 0.92 0.959 0.92 0.993s-0.126 0.2-0.28 0.367c-0.154 0.168-0.408 0.405-0.565 0.528-0.255 0.2-0.358 0.15-0.985-0.48-0.385-0.387-1.204-1.056-1.82-1.487s-1.397-0.886-1.735-1.011c-0.338-0.125-0.831-0.291-1.095-0.368s-0.768-0.23-1.12-0.341c-0.381-0.12-1.513-0.201-2.8-0.201-1.188 0-2.412 0.082-2.72 0.182s-0.977 0.285-1.486 0.412c-0.573 0.143-1.359 0.528-2.064 1.010-0.626 0.429-1.289 0.888-1.474 1.020s-0.552 0.456-0.816 0.72c-0.264 0.264-0.588 0.631-0.72 0.816s-0.591 0.848-1.020 1.474c-0.483 0.705-0.868 1.491-1.010 2.064-0.127 0.509-0.31 1.178-0.407 1.486s-0.205 1.424-0.241 2.48c-0.040 1.192 0.007 2.163 0.124 2.56 0.103 0.352 0.247 0.793 0.318 0.979s0.18 0.669 0.24 1.072c0.106 0.706 0.091 0.745-0.427 1.060-0.295 0.18-0.589 0.328-0.653 0.328s-0.239-0.233-0.388-0.519-0.332-0.826-0.404-1.2c-0.072-0.374-0.215-1.022-0.316-1.44s-0.185-1.588-0.185-2.6 0.077-2.164 0.172-2.56c0.094-0.396 0.274-1.116 0.398-1.6s0.448-1.315 0.719-1.847c0.271-0.532 0.799-1.432 1.175-2s0.747-1.058 0.826-1.090c0.079-0.032 0.383-0.296 0.675-0.588s0.556-0.596 0.588-0.675c0.032-0.079 0.522-0.451 1.090-0.826s1.468-0.904 2-1.175c0.532-0.271 1.363-0.595 1.847-0.719s1.187-0.281 1.562-0.348c0.375-0.067 0.733-0.173 0.796-0.236s0.908-0.083 1.878-0.046c0.97 0.038 2.088 0.144 2.484 0.236zM18.16 6.526c0.44 0.085 1.124 0.26 1.52 0.387s1.031 0.428 1.41 0.668c0.38 0.24 0.912 0.648 1.184 0.908s0.549 0.471 0.618 0.471c0.069 0 0.238 0.113 0.376 0.251s0.251 0.304 0.251 0.369c0 0.065-0.19 0.347-0.423 0.628s-0.471 0.511-0.53 0.511c-0.059 0-0.249-0.126-0.422-0.28s-0.602-0.504-0.952-0.777c-0.35-0.273-0.816-0.551-1.034-0.617s-0.556-0.219-0.748-0.34c-0.193-0.121-0.661-0.329-1.040-0.461-0.427-0.149-1.28-0.241-2.242-0.242-0.854-0.001-1.754 0.078-2 0.177s-0.843 0.358-1.328 0.577c-0.484 0.219-1.045 0.475-1.246 0.571s-0.746 0.553-1.21 1.017c-0.464 0.464-0.922 1.009-1.017 1.21s-0.354 0.762-0.574 1.246c-0.221 0.484-0.486 1.105-0.588 1.381-0.116 0.309-0.161 1.074-0.117 2 0.038 0.824 0.139 1.788 0.223 2.142s0.266 0.821 0.405 1.040c0.138 0.219 0.305 0.576 0.371 0.795s0.343 0.686 0.617 1.039c0.273 0.352 0.713 0.839 0.977 1.081s1.056 0.721 1.76 1.063c0.704 0.343 1.424 0.679 1.6 0.747s0.68 0.166 1.12 0.218l0.8 0.094v0.8c0 0.789-0.007 0.799-0.48 0.769-0.264-0.017-0.84-0.097-1.28-0.177s-1.319-0.354-1.954-0.609c-0.635-0.254-1.495-0.751-1.912-1.103s-0.977-0.859-1.246-1.127c-0.269-0.268-0.613-0.645-0.765-0.838s-0.471-0.658-0.708-1.033c-0.237-0.375-0.535-1.006-0.663-1.402s-0.304-1.080-0.393-1.52c-0.088-0.44-0.16-1.34-0.16-2s0.074-1.56 0.164-2c0.090-0.44 0.251-1.088 0.358-1.44s0.324-0.892 0.483-1.2c0.158-0.308 0.424-0.704 0.59-0.88s0.49-0.597 0.719-0.935c0.229-0.338 0.694-0.803 1.032-1.032s0.759-0.553 0.935-0.719c0.176-0.166 0.528-0.41 0.782-0.543s0.866-0.377 1.36-0.543c0.494-0.165 1.114-0.304 1.378-0.307s0.588-0.079 0.72-0.168c0.132-0.089 0.744-0.13 1.36-0.092s1.48 0.139 1.92 0.224zM18.144 10.8c0.607 0.22 1.218 0.49 1.359 0.6s0.418 0.38 0.616 0.6c0.198 0.22 0.36 0.458 0.36 0.528s-0.216 0.204-0.48 0.296c-0.264 0.092-0.48 0.224-0.48 0.295s-0.106 0.168-0.235 0.218c-0.129 0.050-0.336-0.010-0.459-0.133s-0.677-0.408-1.232-0.633c-0.555-0.225-1.2-0.41-1.434-0.41s-0.882 0.186-1.44 0.412c-0.558 0.227-1.205 0.616-1.437 0.864s-0.515 0.765-0.629 1.148c-0.114 0.383-0.272 0.862-0.351 1.064s-0.143 0.496-0.143 0.653c0 0.157 0.187 0.745 0.415 1.307s0.551 1.14 0.717 1.284c0.166 0.144 0.609 0.409 0.985 0.589s0.94 0.407 1.254 0.504c0.314 0.097 0.712 0.176 0.884 0.176s0.868-0.284 1.545-0.63l1.232-0.63 0.484 0.587c0.266 0.323 0.481 0.624 0.478 0.67s-0.093 0.199-0.201 0.34-0.495 0.409-0.86 0.596c-0.366 0.186-0.977 0.448-1.36 0.581s-1.091 0.242-1.575 0.242-1.193-0.109-1.575-0.242c-0.382-0.133-0.984-0.389-1.338-0.57s-0.869-0.558-1.145-0.84c-0.276-0.281-0.592-0.625-0.702-0.764s-0.38-0.749-0.6-1.355c-0.245-0.675-0.4-1.445-0.4-1.984s0.155-1.309 0.4-1.984c0.22-0.607 0.49-1.218 0.6-1.359s0.508-0.553 0.884-0.916c0.376-0.363 1.024-0.782 1.44-0.931s0.9-0.334 1.076-0.409c0.176-0.076 0.752-0.143 1.281-0.149 0.647-0.007 1.321 0.12 2.064 0.389z"/>
</svg>
