<svg xmlns="http://www.w3.org/2000/svg" width="250" height="250" version="1.1" fill="#000000"><path fill-opacity=".137" d="M 117.500 27.072 C 98.181 29.004, 79.184 37.326, 63.165 50.875 C 52.320 60.049, 39.442 78.911, 35.940 90.750 L 34.683 95 23.842 95 L 13 95 13 125 L 13 155 23.842 155 L 34.683 155 35.940 159.250 C 38.103 166.564, 44.743 178.255, 51.605 186.831 C 68.431 207.862, 95.296 221.919, 121 223.143 L 128.500 223.500 128.765 193.750 L 129.030 164 126.120 164 C 120.923 164, 110.618 160.123, 105.545 156.258 C 95.125 148.322, 89.842 137.804, 89.842 125 C 89.842 107.617, 100.686 92.971, 117.349 87.850 C 139.602 81.011, 164.001 96.562, 166.613 119.250 L 167.275 125 197.281 125 L 227.288 125 226.635 117.250 C 224.737 94.683, 215.592 74.160, 200.112 57.724 C 183.296 39.872, 162.548 29.620, 137.999 27.035 C 132.775 26.485, 127.825 26.088, 127 26.154 C 126.175 26.219, 121.900 26.632, 117.500 27.072 M 188.344 153.041 C 177.613 155.164, 167.799 162.372, 163.052 171.615 C 158.538 180.406, 158.501 194.563, 162.967 204.659 C 165.835 211.142, 172.211 217.373, 179.174 220.498 C 187.346 224.165, 198.325 224.453, 204.710 221.167 C 209.870 218.511, 210 218.508, 210 221.040 C 210 222.953, 210.517 223.063, 218.250 222.790 L 226.500 222.500 226.772 203.723 L 227.044 184.946 212.272 185.223 L 197.500 185.500 197.500 192.500 L 197.500 199.500 202.898 199.807 L 208.295 200.115 204.494 202.698 C 199.282 206.240, 191.771 206.397, 187.090 203.064 C 176.240 195.338, 178.538 174.948, 190.712 170.930 C 195.735 169.272, 200.193 170.538, 205.362 175.087 C 208.425 177.784, 210.399 178.856, 211.298 178.313 C 215.371 175.853, 224 168.347, 224 167.263 C 224 165.361, 216.596 158.343, 212.291 156.165 C 205.078 152.515, 196.595 151.409, 188.344 153.041" stroke="none" fill="#000000" fill-rule="evenodd"/><path fill-opacity=".073" d="M 108.500 29.460 C 77.047 35.211, 50.012 57.581, 37.400 88.292 L 34.645 95 24.323 95 L 14 95 14 125 L 14 155 24.316 155 L 34.632 155 36.964 160.750 C 47.429 186.551, 67.707 206.692, 92.691 216.098 C 101.650 219.471, 116.077 222.255, 122.269 221.807 L 126.500 221.500 126.500 193.500 L 126.500 165.500 124.250 165.813 C 123.013 165.985, 122 165.619, 122 165 C 122 164.381, 121.204 164.009, 120.232 164.174 C 117.556 164.627, 107.263 159.042, 101.917 154.236 C 84.673 138.732, 84.673 111.268, 101.917 95.764 C 107.039 91.160, 117.622 85.312, 119.890 85.833 C 120.658 86.009, 121.565 85.703, 121.905 85.153 C 122.318 84.485, 125.350 84.486, 131.012 85.155 C 140.666 86.296, 147.821 89.374, 154.574 95.291 C 161.361 101.238, 167.952 114.241, 167.985 121.750 L 168 125 197.138 125 L 226.275 125 225.600 116.250 C 222.289 73.327, 187.933 35.574, 146.306 29.115 C 136.935 27.661, 117.362 27.840, 108.500 29.460 M 197.595 153.738 C 197.358 153.975, 194.055 154.286, 190.254 154.429 C 178.300 154.878, 168.485 161.590, 163.097 173 C 160.867 177.722, 160.501 179.844, 160.505 188 C 160.510 196.366, 160.857 198.252, 163.415 203.800 C 167.207 212.030, 174.174 218.413, 181.773 220.622 C 188.860 222.683, 202.581 222.160, 206.358 219.685 C 209.796 217.432, 211.352 217.545, 210.710 220 C 210.220 221.876, 210.680 222, 218.117 222 L 226.046 222 225.773 204.250 L 225.500 186.500 214 186.210 C 198.036 185.807, 198 185.821, 198 192.412 C 198 198.439, 198.610 199, 205.165 199 C 207.899 199, 209.048 199.396, 208.793 200.250 C 208.259 202.038, 198.018 206.930, 194.730 206.968 C 191.362 207.007, 184.659 202.936, 182.391 199.473 C 177.985 192.750, 178.871 180.494, 184.201 174.423 C 189.779 168.071, 199.503 168.156, 206.119 174.616 C 208.671 177.109, 210.226 177.949, 211.186 177.356 C 215.034 174.981, 223 168.464, 223 167.691 C 223 165.691, 218.721 161.030, 214.255 158.164 C 210.010 155.439, 198.857 152.477, 197.595 153.738" stroke="none" fill="#000000" fill-rule="evenodd"/><path fill-opacity=".039" d="M 98.500 33 C 98.114 33.625, 97.168 33.895, 96.399 33.600 C 95.629 33.304, 95 33.485, 95 34 C 95 34.515, 94.325 34.678, 93.500 34.362 C 92.651 34.036, 92 34.338, 92 35.060 C 92 35.760, 91.740 36.074, 91.423 35.756 C 90.596 34.930, 81.240 39.232, 74.537 43.520 C 66.938 48.380, 54.761 60.054, 49.527 67.496 C 44.850 74.145, 40.177 82.753, 36.903 90.750 L 34.754 96 24.377 96 L 14 96 14 125 L 14 154 24.377 154 L 34.754 154 36.903 159.250 C 40.177 167.247, 44.850 175.855, 49.527 182.504 C 54.761 189.946, 66.938 201.620, 74.537 206.480 C 81.240 210.768, 90.596 215.070, 91.423 214.244 C 91.740 213.926, 92 214.240, 92 214.940 C 92 215.662, 92.651 215.964, 93.500 215.638 C 94.325 215.322, 95 215.525, 95 216.090 C 95 216.656, 95.470 216.828, 96.044 216.473 C 96.618 216.118, 97.630 216.277, 98.294 216.825 C 98.957 217.374, 100.737 217.585, 102.250 217.295 L 105 216.767 105 188.341 L 105 159.914 100.500 155.103 C 98.025 152.457, 96 149.832, 96 149.269 C 96 148.706, 95.328 147.687, 94.507 147.005 C 92.297 145.171, 88 130.640, 88 125 C 88 119.360, 92.297 104.829, 94.507 102.995 C 95.328 102.313, 96 101.294, 96 100.731 C 96 100.168, 98.025 97.543, 100.500 94.897 L 105 90.086 105 61.543 C 105 37.570, 104.773 33, 103.582 33 C 102.802 33, 101.497 32.744, 100.683 32.432 C 99.869 32.119, 98.886 32.375, 98.500 33 M 154 32.953 L 151.500 33.589 151.219 60.045 C 151.065 74.595, 151.164 87.400, 151.439 88.500 C 151.715 89.600, 154.433 93.346, 157.479 96.823 C 162.785 102.882, 167 110.214, 167 113.386 C 167 114.209, 167.452 115.161, 168.004 115.502 C 168.556 115.843, 168.783 117.107, 168.510 118.311 C 168.236 119.515, 168.699 121.394, 169.539 122.487 C 171.240 124.698, 171.865 124.728, 206.741 124.250 L 224.982 124 224.313 119.750 C 223.945 117.412, 223.646 114.037, 223.647 112.250 C 223.649 110.463, 223.220 109, 222.694 109 C 222.159 109, 221.990 107.449, 222.310 105.478 C 222.649 103.388, 222.499 102.192, 221.941 102.537 C 221.423 102.856, 221 101.952, 221 100.527 C 221 99.102, 220.363 96.412, 219.585 94.549 C 218.807 92.687, 218.432 90.901, 218.752 90.582 C 219.072 90.262, 218.822 90, 218.198 90 C 217.574 90, 217.304 89.371, 217.600 88.601 C 217.895 87.832, 217.648 86.901, 217.052 86.532 C 216.455 86.163, 216.226 85.443, 216.543 84.931 C 216.859 84.419, 216.641 84, 216.059 84 C 215.477 84, 215 83.388, 215 82.640 C 215 81.891, 213.913 79.678, 212.585 77.721 C 211.257 75.764, 210.362 73.972, 210.595 73.738 C 210.829 73.505, 209.890 72.095, 208.510 70.605 C 207.129 69.116, 206 67.486, 206 66.984 C 206 65.358, 195.159 53.807, 190.060 50 C 188.219 48.625, 185.853 46.689, 184.803 45.697 C 181.887 42.943, 168.567 36.197, 164.560 35.445 C 162.602 35.078, 161 34.351, 161 33.830 C 161 33.308, 160.530 33.172, 159.956 33.527 C 159.382 33.882, 158.370 33.755, 157.706 33.245 C 157.043 32.735, 155.375 32.604, 154 32.953 M 201.618 155.715 C 201.278 156.055, 201 158.872, 201 161.976 C 201 167.171, 201.329 167.991, 205.145 172.309 C 207.425 174.889, 209.728 177, 210.263 177 C 210.798 177, 212.774 175.650, 214.653 174 C 216.532 172.350, 218.432 171, 218.874 171 C 219.317 171, 220.174 169.913, 220.779 168.585 C 221.734 166.491, 221.489 165.761, 218.931 163.085 C 217.309 161.388, 215.537 160, 214.991 160 C 214.446 160, 214 159.605, 214 159.121 C 214 157.433, 202.942 154.391, 201.618 155.715 M 177.419 158.386 C 171.648 161.073, 166.253 167.057, 162.862 174.533 C 159.857 181.158, 159.660 193.282, 162.439 200.500 C 166.529 211.122, 174.797 219.186, 181.812 219.397 L 185.222 219.500 185.204 212.451 C 185.188 206.420, 184.748 204.661, 182.156 200.265 C 179.402 195.593, 179.147 194.419, 179.344 187.314 C 179.525 180.802, 179.999 178.819, 182.192 175.410 C 184.270 172.179, 184.894 169.817, 185.162 164.168 C 185.411 158.888, 185.152 156.884, 184.168 156.508 C 182.496 155.870, 183.303 155.646, 177.419 158.386 M 204.696 187.732 C 200.906 188.126, 200.892 188.143, 201.196 192.278 C 201.476 196.096, 201.768 196.483, 204.843 197.107 C 209.721 198.097, 210.386 199.239, 207.915 202.381 C 206.736 203.880, 205.520 204.853, 205.211 204.545 C 204.903 204.236, 203.832 205.225, 202.832 206.742 C 201.099 209.369, 200.251 217.918, 201.590 219.257 C 201.915 219.582, 203.988 219.210, 206.197 218.431 C 210.690 216.845, 212 217.213, 212 220.059 C 212 221.597, 212.701 222, 215.375 222 C 217.231 222, 220.044 221.742, 221.625 221.426 L 224.500 220.853 224.205 204.556 L 223.909 188.259 219.315 187.630 C 214.667 186.993, 211.599 187.014, 204.696 187.732" stroke="none" fill="#000000" fill-rule="evenodd"/><path fill-opacity=".123" d="M 79 42.094 C 79 42.592, 78.138 43, 77.083 43 C 76.029 43, 75.017 43.337, 74.833 43.750 C 74.650 44.163, 72.567 45.813, 70.204 47.418 C 64.805 51.085, 49.540 67.045, 47.358 71.304 C 46.458 73.062, 45.446 74.725, 45.110 75 C 44.027 75.886, 37.001 90.635, 36.968 92.091 C 36.951 92.866, 36.339 94.287, 35.608 95.250 C 34.496 96.714, 32.624 97, 24.140 97 L 14 97 14 125 L 14 153 24.140 153 C 32.624 153, 34.496 153.286, 35.608 154.750 C 36.339 155.713, 36.951 157.134, 36.968 157.909 C 37.001 159.365, 44.027 174.114, 45.110 175 C 45.446 175.275, 46.458 176.938, 47.358 178.696 C 49.540 182.955, 64.805 198.915, 70.204 202.582 C 72.567 204.187, 74.650 205.838, 74.833 206.250 C 75.017 206.662, 76.029 207, 77.083 207 C 78.138 207, 79 207.408, 79 207.906 C 79 208.405, 79.900 208.577, 81 208.290 C 82.980 207.772, 83 206.926, 83 125 C 83 43.074, 82.980 42.228, 81 41.710 C 79.900 41.423, 79 41.595, 79 42.094 M 172.282 162.312 C 170.513 163.515, 168.273 165.963, 167.305 167.750 C 166.337 169.537, 165.247 171, 164.884 171 C 164.520 171, 163.431 173.921, 162.465 177.490 C 160.461 184.895, 160.857 194.512, 163.476 202.061 C 165.240 207.144, 172.338 215.547, 175.647 216.470 L 177.794 217.070 177.783 188.535 C 177.775 167.868, 177.459 160.017, 176.636 160.062 C 176.011 160.096, 174.052 161.109, 172.282 162.312" stroke="none" fill="#000000" fill-rule="evenodd"/></svg>