<!-- Generated by IcoMoon.io -->
<svg version="1.1" xmlns="http://www.w3.org/2000/svg" width="32" height="32" viewBox="0 0 32 32" fill="#000000">
<title>chat</title>
<path d="M16.437 27.693c1.125-0.078 2.241-0.26 3.332-0.544 1.347 0.411 2.771 0.504 4.16 0.272 0.055-0.009 0.111-0.013 0.166-0.013 0.496 0 1.146 0.288 2.095 0.895v-0.999c0-0.173 0.046-0.343 0.134-0.492s0.213-0.272 0.364-0.357c0.412-0.233 0.796-0.502 1.146-0.798 1.381-1.17 2.162-2.731 2.162-4.384 0-0.555-0.088-1.094-0.254-1.608 0.417-0.779 0.755-1.597 1.003-2.446 0.801 1.201 1.231 2.611 1.234 4.055 0 2.247-1.046 4.341-2.854 5.873-0.302 0.255-0.62 0.492-0.951 0.707v2.336c0 0.804-0.927 1.266-1.581 0.788-0.618-0.462-1.259-0.894-1.919-1.295-0.189-0.113-0.386-0.213-0.588-0.299-0.544 0.082-1.1 0.123-1.661 0.123-2.258 0-4.343-0.676-5.985-1.813h-0.002zM4.499 23.021c-2.852-2.419-4.499-5.714-4.499-9.246 0-7.216 6.808-12.983 15.121-12.983 8.314 0 15.122 5.767 15.122 12.983 0 7.217-6.81 12.985-15.122 12.985-0.934 0-1.858-0.072-2.763-0.216-0.392 0.093-1.957 1.023-4.213 2.67-0.817 0.598-1.976 0.021-1.976-0.985v-3.985c-0.584-0.368-1.142-0.777-1.669-1.223v0zM12.412 24.086c0.069 0 0.139 0.005 0.208 0.016 0.815 0.137 1.653 0.208 2.501 0.208 7.022 0 12.643-4.762 12.643-10.535 0-5.772-5.62-10.534-12.643-10.534-7.019 0-12.643 4.762-12.643 10.534 0 2.792 1.313 5.42 3.634 7.387 0.584 0.492 1.225 0.94 1.912 1.33 0.385 0.218 0.624 0.624 0.624 1.062v2.297c1.784-1.198 2.958-1.765 3.764-1.765v0zM8.676 16.225c-1.095 0-1.983-0.879-1.983-1.96 0-1.082 0.887-1.96 1.983-1.96s1.983 0.878 1.983 1.96c0 1.082-0.887 1.96-1.983 1.96zM15.121 16.225c-1.095 0-1.983-0.879-1.983-1.96 0-1.082 0.887-1.96 1.983-1.96s1.983 0.878 1.983 1.96c0 1.082-0.887 1.96-1.983 1.96v0zM21.566 16.225c-1.095 0-1.983-0.879-1.983-1.96 0-1.082 0.887-1.96 1.983-1.96s1.983 0.878 1.983 1.96-0.887 1.96-1.983 1.96z"/>
</svg>
