<svg xmlns="http://www.w3.org/2000/svg" width="200" height="200" fill="#000000"><path fill-opacity=".373" fill-rule="evenodd" d="M0 100.005V200.01l100.25-.255 100.25-.255.255-99.75L201.01 0H0zm.481.495c0 55 .121 77.647.269 50.326.148-27.32.148-72.32 0-100C.602 23.147.481 45.5.481 100.5m175.683-44.198c-1.181 1.424-.467 5.698.953 5.698.485 0 .883-1.575.883-3.5 0-3.848-.234-4.128-1.836-2.198m-43.497 29.365c-1.622 1.621-.568 5.421 1.803 6.501 4.153 1.893 7.532-2.766 4.33-5.968-1.294-1.294-5.047-1.62-6.133-.533M35.2 110.2c-1.627 1.627-1.517 3.8.193 3.8 1.31 0 2.607-2.03 2.607-4.082 0-1.282-1.374-1.144-2.8.282m5.8 1.883c0 2.437 2.337 2.093 2.823-.416.192-.987-.318-1.667-1.25-1.667-.927 0-1.573.855-1.573 2.083m17-.19c0 .491.712 1.166 1.582 1.5 2.258.867 2.423.784 1.78-.893-.616-1.604-3.362-2.099-3.362-.607M47.185 123.75c.2 1.055 1.42 1.876 3.074 2.066 2.206.255 2.741-.087 2.741-1.75 0-1.64-.634-2.066-3.073-2.066-2.387 0-3 .391-2.742 1.75M62 123c0 .55.45 1 1 1s1-.45 1-1-.45-1-1-1-1 .45-1 1m19 11.5c0 .825.45 1.5 1 1.5s1-.675 1-1.5-.45-1.5-1-1.5-1 .675-1 1.5m-11 9.286c-3.529 2.372-4.01 3.256-3.92 7.214.043 1.925-.231 4.5-.61 5.722-.548 1.768-.156 2.464 1.921 3.41 1.435.654 2.609 1.567 2.609 2.029 0 1.281 4.78.999 5.216-.308.466-1.399 16.798-1.255 21.284.188 3.275 1.053 5.868 4.747 8.642 12.309 3.055 8.328 5.804 10.132 5.94 3.9l.081-3.75 1.421 3.25c.782 1.787 1.818 3.25 2.302 3.25 1.169 0 1.923-4.219 1.71-9.574-.201-5.05-.972-6.189-3.031-4.48-1.238 1.027-1.597.762-2.178-1.608-.382-1.561-1.174-3.15-1.76-3.532-.585-.382.497-.678 2.404-.659 14.801.152 16.959-.204 20.152-3.326 2.249-2.199 2.755-3.241 1.845-3.804-.986-.609-.962-.891.109-1.317 1.012-.403.948-.562-.248-.621-1.138-.056-1.48-.768-1.164-2.421.698-3.652-2.299-5.979-6.904-5.361-2.101.282-4.039.16-4.305-.271s-2.563-.55-5.104-.263c-3.304.372-4.862.127-5.474-.863-.681-1.102-1.108-1.13-2.096-.142-1.5 1.5-6.842 1.662-6.842.207 0-.667-.622-.711-1.75-.122-.963.503-5.35.85-9.75.772-4.4-.079-9.205.16-10.678.531-1.864.468-2.842.245-3.218-.737-.715-1.862-3.51-1.703-6.604.377m3 .977c0 .419-1.01 1.207-2.244 1.75-3.125 1.375-3.359 4.204-.597 7.224 2.338 2.556 2.338 2.559.156 2.022-1.344-.331-2.39-.006-2.715.841-.333.869.383 1.609 1.935 1.998 1.356.34 2.467 1.133 2.47 1.76.003.628 1.052-.167 2.332-1.766 1.958-2.448 2.428-2.646 2.964-1.25.739 1.925 4.749 2.208 6.499.458.933-.933 1.2-.933 1.2 0 0 .66.9 1.2 2 1.2 1.467 0 2-.667 2-2.5 0-1.375.45-2.5 1-2.5s1 1.125 1 2.5v2.5h12.5c12.287 0 12.501-.038 12.532-2.25.03-2.17.083-2.183 1.468-.353.974 1.287 3.034 2.025 6.408 2.296 4.167.334 5.144.079 6.029-1.575.856-1.601.539-2.6-1.68-5.296-1.505-1.827-1.934-2.689-.954-1.914 2.149 1.697 4.085.266 3.102-2.295-.47-1.224-1.561-1.633-3.783-1.417-2.624.256-3.175.772-3.456 3.236-.244 2.142.295 3.418 2 4.734l2.334 1.801-3-.191c-3.442-.219-4.846-1.654-3.366-3.437.561-.676.872-2.266.693-3.534-.323-2.277-.503-2.307-15.016-2.492-14.244-.181-14.698-.123-15 1.922-.466 3.155-2.811 3.446-2.811.348 0-2.683-2.405-3.644-3.338-1.333-.403 1-.52 1-.583 0-.133-2.11-5.809-1.473-7.425.833-1.429 2.04-1.473 2.02-2.136-1-.587-2.675-2.518-4.454-2.518-2.32m-.921 4.765c-.043.565.821 1.798 1.921 2.74 1.673 1.432 2 1.468 2 .222 0-.819-.638-1.49-1.417-1.49s-1.643-.562-1.921-1.25c-.277-.687-.54-.788-.583-.222m8.671.049c-1.131 1.141-.9 6.423.281 6.423.568 0 1.295-.686 1.617-1.526.452-1.176.902-1.262 1.969-.377 1.1.913 1.383.733 1.383-.881 0-1.504-.494-1.9-1.909-1.53-1.253.328-2.026-.078-2.25-1.183-.187-.925-.679-1.342-1.091-.926M99 150c0 .55.9 1 2 1 1.111 0 2 .667 2 1.5 0 .933-.944 1.5-2.5 1.5-1.375 0-2.5.372-2.5.827s1.35.628 3 .386c2.539-.372 3-.884 3-3.326 0-2.413-.411-2.887-2.5-2.887-1.375 0-2.5.45-2.5 1m8.5 0c-.352.57.517 1 2.024 1 3.181 0 2.888 2.343-.352 2.82-3.224.474-2.63 1.68.828 1.68 2.718 0 3-.306 3-3.25 0-2.779-.354-3.25-2.441-3.25-1.343 0-2.719.45-3.059 1m8.5.622c0 1.329.271 1.398 1.5.378.825-.685 1.5-1.415 1.5-1.622s-.675-.378-1.5-.378-1.5.73-1.5 1.622m-62.921 1.961c.048 1.165.285 1.402.604.605.289-.722.253-1.585-.079-1.917s-.568.258-.525 1.312"/><path fill-opacity=".437" fill-rule="evenodd" d="M0 100.005V200.01l100.25-.255 100.25-.255.255-99.75L201.01 0H0zm.481.495c0 55 .121 77.647.269 50.326.148-27.32.148-72.32 0-100C.602 23.147.481 45.5.481 100.5m86.945-88.084C80.785 16.312 62.444 26.925 46.668 36L17.984 52.5l.258 47.377.258 47.377 22.5 12.98c12.375 7.139 30.67 17.685 40.655 23.436l18.154 10.457 40.846-23.576c22.465-12.966 40.8-24.02 40.745-24.563s-.167-21.859-.25-47.367l-.15-46.38-12.25-7.01c-6.738-3.855-23.275-13.399-36.75-21.207s-26.3-15.21-28.5-16.445l-4-2.248zm9.865-1.472c-1.093 1.018-2.762 2.009-3.709 2.203-1.465.3-1.288.836 1.185 3.6 1.598 1.786 3.302 2.911 3.786 2.5.485-.411.246.079-.53 1.089-1.049 1.365-2.196 1.684-4.467 1.242l-3.056-.593 3 2.001c2.051 1.368 2.465 2.003 1.309 2.007-.93.004-1.969-.443-2.309-.993-.906-1.466-2.747-1.223-1.898.25.396.688-.394.238-1.755-1-1.511-1.373-3.755-2.25-5.758-2.25-3.786 0-18.814 7.811-22.836 11.869-1.435 1.447-1.966 1.772-1.18.721 1.047-1.401-.036-1.061-4.073 1.279-3.025 1.754-11.912 6.834-19.75 11.29L21 54.261V130l2.25-.006c1.238-.003 3.99-.488 6.116-1.079 5.015-1.392 8.42-.479 9.841 2.64 1.564 3.433.354 4.304-6.729 4.844-8.825.672-11.478 1.933-11.478 5.454 0 1.596.651 3.443 1.447 4.103 2.113 1.754 8.274 1.875 14.466.286 2.978-.764 6.215-1.18 7.194-.924s2.527-.361 3.44-1.37 3.018-2.133 4.678-2.497c1.757-.386 3.225-1.455 3.513-2.557.636-2.434 1.958-2.427 2.733.014.333 1.049 1.263 2.16 2.067 2.468 2.036.781 1.832 5.358-.288 6.477-2.221 1.173-9.413 1.283-11.21.172-.888-.549-1.921-.2-2.953.997-.946 1.098-3.596 2.095-6.562 2.468-2.737.345-5.087.739-5.223.875-.749.748 16.338 9.701 17.79 9.321 1.055-.276 1.909.211 2.179 1.242.247.946 10.343 7.422 22.841 14.651l22.399 12.954 4.26-2.35 4.26-2.35-6.266-12.167-6.267-12.166-8.255-.145c-4.54-.08-8.89-.389-9.666-.687s-1.66.105-1.963.895c-.805 2.099-4.262 1.757-7.663-.758-2.497-1.845-2.877-2.682-2.393-5.26.316-1.686.134-4.224-.404-5.639-1.196-3.147-.07-5.21 2.965-5.433 1.254-.093 2.452-.687 2.664-1.321.558-1.674 5.179-1.414 5.848.33.4 1.041 1.067 1.215 2.243.586.92-.493 5.713-.791 10.65-.663 4.937.129 9.472-.135 10.078-.585.606-.451 2.539-.318 4.296.294 2.679.934 3.508.828 5.148-.655 1.075-.973 1.954-1.28 1.954-.681 0 1.684 3.215 2.308 6.718 1.303 2.197-.63 3.288-.563 3.548.217.225.676 2.218 1.013 4.982.843 4.918-.302 6.752 1.271 6.752 5.793 0 1.136.563 2.073 1.25 2.081.915.012.885.247-.113.879-1.146.726-1.147.936-.006 1.316.968.323.501 1.36-1.634 3.621-2.726 2.889-3.533 3.169-9.121 3.169h-6.13l.454 4.25c.251 2.338.039 6.835-.47 9.995l-.926 5.744 5.098-2.964c2.804-1.631 16.674-9.616 30.822-17.745l25.723-14.78.027-33.133.026-33.134-2.739-.524c-1.507-.288-3.502-.115-4.435.384-2.785 1.491-5.729 1.035-7.058-1.093-1.371-2.196-4.43-2.531-9.59-1.051-4.362 1.251-8.178-.417-8.178-3.574 0-1.268.87-2.77 1.934-3.34 2.43-1.3 8.145-1.336 11.472-.071 1.793.682 3.482.566 5.771-.397 1.875-.788 4.096-1.045 5.28-.61 1.124.413 3.281 1.05 4.793 1.416 2.601.629 2.75.476 2.75-2.819 0-2.46-.588-3.798-2-4.554-2.179-1.166-2.647-4.923-.997-8.005 1.431-2.674-.014-3.102-4.848-1.436-3.766 1.297-4.472 1.279-6.683-.169-3.039-1.991-3.089-2.844-.282-4.81 1.204-.844 1.991-1.692 1.75-1.885-.242-.192-4.265-2.518-8.94-5.168s-17.95-10.318-29.5-17.04C97.909 7.847 99.716 8.684 97.291 10.944M76.554 25.913c-.892 1.443 5.088 2.349 7.387 1.118C85.074 26.425 86 25.793 86 25.627c0-.793-8.947-.522-9.446.286M65.5 43c-.34.55-.115 1 .5 1s.868.404.563.898c-.305.493 1.356 1.843 3.691 2.999s3.723 2.102 3.083 2.102c-2.046.002.847 5.871 3.116 6.322 1.513.3 1.329.442-.703.543-1.513.075-2.75.55-2.75 1.057 0 1.522 5.028 2.13 13.632 1.649 8.674-.486 13.098-2.312 16.148-6.666 1.494-2.133 1.15-2.056-4.136.928-5.341 3.014-6.209 3.203-11.789 2.572-3.955-.447-5.566-.98-4.69-1.551.734-.478 3.585-.619 6.335-.314 4.301.477 5.42.211 8-1.903 3.954-3.238 2.859-4.113-2.03-1.621C89.951 53.319 90 53.308 90 52c0-3.009-11.113-9.244-12.494-7.01-.485.785-6.869-1.02-8.154-2.305-1.008-1.008-3.142-.834-3.852.315m66.043 11.931a1.086 1.086 0 0 0 .336 1.494c.501.31 1.169-.109 1.485-.931.622-1.62-.881-2.085-1.821-.563m-34.289 5.04c-3.433 1.559-5.865 1.848-12.712 1.513-8.79-.43-11.5.51-6.779 2.352 3.019 1.178 8.017 1.082 10.035-.193.714-.451 1.961-.566 2.771-.255 1.499.575 11.148-2.766 12.881-4.46 1.606-1.57-1.645-1.022-6.196 1.043m3.246 3.242c-1.65.581-3.512 1.458-4.138 1.951-.626.492-3.058.588-5.403.213-2.954-.472-4.06-.349-3.597.4.463.748-.965.913-4.627.535-4.18-.431-5.586-.197-6.673 1.113-1.831 2.207-.726 3.01 6.171 4.485 3.153.674 5.992 1.645 6.309 2.158 1.32 2.135 2.458.665 2.458-3.174v-4.106L94 70c3.392 3.631 3.638 4.182 1.5 3.362-1.041-.4-1.5.069-1.5 1.531 0 3.961 1.912 2.738 8.744-5.592 1.784-2.176 3.584-4.299 4-4.718 1.272-1.281-5.127 1.706-6.994 3.265-1.547 1.293-1.75 1.276-1.75-.146 0-.885 1.575-2.356 3.5-3.269 5.243-2.488 4.652-3.208-1-1.22m-4.917 5.653c-.431.697-.513 1.537-.183 1.867.895.895 1.871-.421 1.387-1.871-.338-1.016-.574-1.016-1.204.004m44.835 4.95c-1.148.796-1.267 3.568-.168 3.934 1.888.629 2.75.099 2.75-1.691 0-2.234-1.152-3.235-2.582-2.243M51 80.878c0 .482.749 1.495 1.664 2.25 1.508 1.244 1.552 1.162.465-.878-1.24-2.327-2.129-2.9-2.129-1.372M93 84.5c-.685.825-2.064 1.5-3.066 1.5s-2.409.829-3.127 1.841c-2.25 3.171-5.548 4.32-10.335 3.603-2.681-.403-4.197-1.079-3.813-1.702.414-.67-.294-.8-2.01-.369-1.567.394-2.649.249-2.649-.354 0-.56.9-1.019 2-1.019s2-.45 2-1c0-2.163-3.981-.836-6 2-1.988 2.792-2.01 3.005-.318 3.079 1.014.044 1.274.299.589.576-2.086.845 3.846 5.926 8.419 7.211 3.969 1.116 4.42 1.015 8.579-1.917 3.828-2.698 4.829-2.981 7.811-2.208 2.66.689 3.42 1.403 3.42 3.214 0 2.953 2.927 5.018 4.659 3.286 1.16-1.16.811-4.58-1.735-16.991-.531-2.585-2.609-2.937-4.424-.75m-17.5.5c-.361.583.656 1 2.441 1C79.623 86 81 85.55 81 85s-1.098-1-2.441-1-2.719.45-3.059 1m56.167 1.065c-2.926 4.177 1.246 8.927 6.649 7.571 3.27-.821 4.006-3.113 2.151-6.699-1.877-3.63-6.544-4.093-8.8-.872M114 87.729c-3.215 1.224-3.814 3.825-1.046 4.549 2.628.687 5.541-1.546 4.74-3.633-.66-1.721-1.217-1.859-3.694-.916M92.5 90c-.34.55-.141 1 .441 1S94 90.55 94 90s-.198-1-.441-1-.719.45-1.059 1m-4.184 7.618c-.334.871.021 1.982.788 2.468 2.135 1.351 2.896 1.094 2.896-.979 0-2.439-2.873-3.6-3.684-1.489m-28.79 8.341c-.414.668-.258 1.709.344 2.311 1.537 1.537 2.51.231 1.36-1.823-.7-1.251-1.153-1.38-1.704-.488m-25.378 4.616c-1.22 2.678-.805 4.425 1.051 4.425 1.487 0 3.731-3.125 3.769-5.25.049-2.71-3.485-2.105-4.82.825M41.2 109.2c-1.9 1.9-1.458 4.8.733 4.8 2.003 0 3.665-3.224 2.573-4.991-.824-1.333-1.841-1.274-3.306.191m16.928 1.072c-1.575 1.575-1.408 3.728.29 3.728.78 0 2.13.273 3 .607 2.304.884 2.053-2.832-.29-4.295-1.389-.868-2.162-.878-3-.04M84 114.107c0 1.339.483 1.922 1.326 1.598.729-.28 4.434-.841 8.233-1.248 5.665-.607 6.474-.901 4.494-1.633-1.414-.523-3.48-.524-4.984-.003-1.413.49-3.469.537-4.569.105-3.359-1.319-4.5-1.02-4.5 1.181m-22.977 7.588c-.808 1.28-1.292 1.442-1.664.555-.289-.687-1.126-1.25-1.859-1.25s-1.54.563-1.792 1.25c-.366 1-.723 1-1.783 0-.729-.687-2.859-1.25-4.733-1.25-3.217 0-3.371.155-2.73 2.75.374 1.513 1.065 3.145 1.536 3.627 1.285 1.316 6.002-.194 6.002-1.922 0-1.333.344-1.328 2.991.041 5.424 2.804 10.884-.865 6.59-4.429-1.121-.93-1.659-.798-2.558.628m33.977.433c-2.209.885-2.303 1.113-.801 1.958 1.793 1.009 9.801-.894 9.801-2.329 0-1.071-6.019-.823-9 .371m18.997 5.122c-1.472 2.011-1.714 2.71-.634 1.832 1.64-1.331 4.12-5.082 3.36-5.082-.191 0-1.418 1.463-2.726 3.25m-41.556.203c-1.86 1.391-1.816 1.479 1.059 2.094 2.123.455 3.877 2.003 6 5.298l3 4.655.33-3.473c.182-1.911-.156-3.636-.75-3.834s-1.08-.967-1.08-1.709-.9-1.635-2-1.984-2-1.054-2-1.567c0-1.395-2.36-1.126-4.559.52m-10.85 8.4c-.29.469.103 1.706.874 2.75 1.096 1.485 1.666 1.635 2.625.689.967-.952.955-1.533-.055-2.75-1.43-1.723-2.654-1.968-3.444-.689M84.158 141c0 1.375.227 1.938.504 1.25.278-.687.278-1.812 0-2.5-.277-.687-.504-.125-.504 1.25M155 142.455c0 .772 2.976 1.392 3.399.709.254-.412-.406-.814-1.468-.894s-1.931.003-1.931.185m-82 2.117c0 .524-1.013 1.398-2.25 1.941-3.013 1.322-3.463 5.024-.813 6.68 2.604 1.626 2.684 3.203.128 2.534-1.115-.291-2.16.079-2.465.873-.333.869.383 1.609 1.935 1.998 1.356.34 2.465 1.081 2.465 1.645s.948-.179 2.107-1.652c1.926-2.448 2.215-2.533 3.345-.988 1.505 2.058 6.004 1.258 6.961-1.237.827-2.154-.123-3.056-1.63-1.549-.651.651-1.543 1.183-1.983 1.183-1.161 0-.984-5.768.2-6.5.55-.34 1-.089 1 .558 0 .706.848.953 2.128.619 1.995-.522 2.09-.281 1.519 3.883-.543 3.964-.396 4.44 1.372 4.44 1.446 0 1.981-.675 1.981-2.5 0-1.442.576-2.5 1.361-2.5.918 0 1.204.826.877 2.534l-.484 2.533 12.623-.13c12.204-.127 12.624-.203 12.655-2.284.03-2.077.082-2.087 1.456-.272 1.425 1.882 7.26 2.952 10.762 1.973 2.411-.673 2.246-5.027-.25-6.586-1.1-.687-2-1.681-2-2.209 0-.527.54-.419 1.2.241 1.862 1.862 2.971 1.422 2.62-1.04-.608-4.259-6.82-2.937-6.82 1.452 0 1.082.983 2.764 2.185 3.737l2.186 1.77-3.147.461c-3.454.507-5.09-1.432-3.164-3.752.601-.725.946-2.355.767-3.623-.319-2.248-.635-2.312-12.749-2.585-9.255-.209-12.63.046-13.235 1-.634.999-.816 1.006-.828.03-.008-.687-.69-1.25-1.515-1.25-.933 0-1.5.944-1.5 2.5s-.567 2.5-1.5 2.5-1.5-.944-1.5-2.5-.567-2.5-1.5-2.5c-.825 0-1.5.54-1.5 1.2 0 .933-.267.933-1.2 0-2.524-2.524-5.812-1.391-7.608 2.619-1.642 3.668-1.783 3.75-3.556 2.066-1.016-.964-1.61-2.345-1.32-3.069.346-.865.553-.717.605.434.043.963.754 1.75 1.579 1.75 1.901 0 1.884-2.909-.032-5.441-.807-1.068-1.468-1.512-1.468-.987M98.5 150c-.352.57.517 1 2.024 1 3.181 0 2.888 2.343-.352 2.82-3.318.488-2.585 2.243.828 1.983 2.679-.204 3-.581 3-3.516 0-2.818-.348-3.287-2.441-3.287-1.343 0-2.719.45-3.059 1m8.5 0c0 .55 1.162 1 2.583 1 3.133 0 2.79 2.348-.411 2.82-1.195.175-2.172.79-2.172 1.366s1.109.835 2.465.576 2.67.026 2.921.633c.251.608.492-.807.535-3.145.076-4.073-.046-4.25-2.921-4.25-1.65 0-3 .45-3 1m9 .622c0 1.329.271 1.398 1.5.378.825-.685 1.5-1.415 1.5-1.622s-.675-.378-1.5-.378-1.5.73-1.5 1.622m-64 1.319c0 1.962 1.691 3.702 2.658 2.734.785-.785-.65-4.675-1.725-4.675-.513 0-.933.873-.933 1.941M49 153c0 .55.45 1 1 1s1-.45 1-1-.45-1-1-1-1 .45-1 1m2.158 5c0 1.375.227 1.938.504 1.25.278-.687.278-1.812 0-2.5-.277-.687-.504-.125-.504 1.25"/><path fill-opacity=".3" fill-rule="evenodd" d="M0 100.005V200.01l100.25-.255 100.25-.255.255-99.75L201.01 0H0zm.481.495c0 55 .121 77.647.269 50.326.148-27.32.148-72.32 0-100C.602 23.147.481 45.5.481 100.5M90.5 10.466c-4.95 2.889-23.287 13.495-40.75 23.569L18 52.352v95.327l2.25 1.036c1.238.57 19.497 10.992 40.578 23.161 21.08 12.168 38.63 22.116 39 22.106s18.897-10.544 41.172-23.409l40.5-23.391.237-47.341.236-47.341-34.665-20c-19.066-11-37.623-21.639-41.237-23.643L99.5 5.214zm9.212.335c.676.429.96 1.738.642 2.954-.541 2.069-.724 2.105-3.463.689-1.59-.823-2.891-1.268-2.891-.99s1.8 1.424 4 2.546 4 2.508 4 3.079-.562.751-1.25.399c-.687-.351.013.522 1.556 1.941L105.112 24h-3.088c-1.844 0-3.322.614-3.672 1.526-.482 1.255-.864 1.299-2.161.25-1.305-1.057-1.43-1.035-.728.129.626 1.039.486 1.181-.541.547-2.589-1.6-4.907-1.124-6.52 1.339-.885 1.35-1.188 2.195-.672 1.876s1.004-.036 1.087.627.37 2.781.639 4.706l.489 3.5-.873-3.379c-.48-1.859-1.48-3.764-2.222-4.235-2.132-1.351-4.517-1.027-4.517.614 0 .825.375 1.5.834 1.5s.833.477.833 1.059-.454.779-1.008.436c-.555-.343-1.427.418-1.937 1.691-.511 1.273-.957 1.725-.992 1.005-.034-.72-.481-1.051-.992-.735-.51.315-1.073-.43-1.25-1.658-.187-1.304-1.568-2.832-3.321-3.677-1.65-.795-3.787-1.826-4.75-2.292-1.127-.544-1.75-.449-1.75.27 0 .613-.698.847-1.551.52-1.002-.385-3.006.906-5.658 3.643-2.259 2.331-3.825 3.45-3.48 2.488.344-.962.409-1.75.142-1.75-1.219 0-12.093 6.485-13.238 7.895-.706.87-1.896 1.587-2.643 1.594-.748.006-5.666 2.486-10.93 5.511l-9.572 5.5-.035 28.25c-.03 24.46.166 28.25 1.465 28.25 1.922 0 1.922 1.405 0 3-1.816 1.507-1.941 4.159-.275 5.825.967.967.967 1.639 0 3.186-.674 1.079-1.225 2.877-1.225 3.994 0 1.579.502 1.929 2.25 1.569 6.604-1.364 11.868-1.581 13.76-.569 2.826 1.513 4.181 5.362 2.99 8.495-.813 2.137-1.581 2.5-5.297 2.5-6.19 0-13.896 2.78-13.477 4.862.372 1.85.642 1.847 15.355-.205 5.544-.773 11.027-1.912 12.184-2.531S51.746 140 52.818 140c1.108 0 2.174-.863 2.472-2 .287-1.1.999-2 1.581-2s1.54.9 2.129 2c1.513 2.826 2.815 2.483 2.228-.587-.431-2.257-.192-2.544 1.879-2.25 2.931.416 3.764 3.727 1.376 5.473-1.989 1.455-1.269 4.971.76 3.708.691-.43 2.27-.651 3.507-.492s2.25-.191 2.25-.78c0-1.555 4.968-1.318 5.576.265.403 1.051 1.243 1.108 3.924.269 3.209-1.004 3.433-1.365 3.771-6.087l.359-5.019.185 5.25c.176 4.991.321 5.255 2.935 5.344 8.775.298 11.541-.047 13.329-1.665 1.652-1.495 1.921-1.522 1.921-.191 0 2.336 2.983 3.003 5.641 1.262 1.297-.851 2.359-1.138 2.359-.64 0 1.429 3.808 2.056 6.971 1.148 2.131-.611 3.025-.462 3.421.571.407 1.06 1.15 1.165 3.072.435 4.64-1.764 8.536 1.005 8.536 6.068 0 1.055.563 1.925 1.25 1.933.915.012.885.247-.113.879-1.151.729-1.151.936 0 1.33.966.33.423 1.433-1.864 3.787-2.437 2.509-4.029 3.297-6.5 3.219-6.588-.207-7.431.349-7.58 4.998-.075 2.349-.424 6.467-.776 9.15s-.252 4.668.222 4.411c.885-.48 49.348-28.525 56.187-32.515l3.816-2.226.226-31.537c.249-34.796.237-34.858-5.737-30.604-4.311 3.069-7.743 2.681-11.754-1.33s-5.961-3.825-13.531 1.291c-4.592 3.103-4.64 3.192-3.581 6.642.915 2.984.729 4.232-1.267 8.494-2.296 4.903-3.993 5.919-6.854 4.106-.746-.473-1.462-2.194-1.59-3.824-.128-1.631-1.205-3.937-2.394-5.126-1.188-1.188-2.157-2.723-2.154-3.41.013-3.049 2.225-8.803 3.833-9.971.969-.703 2.373-2.854 3.121-4.779 2.389-6.151 4.237-6.953 16.091-6.978 9.787-.02 15.92-1.279 15.941-3.272.004-.412.458-.75 1.008-.75s1 .624 1 1.386c0 1.172 5.522 4.614 7.401 4.614.33 0 .599-1.053.599-2.339 0-1.526-.87-2.737-2.5-3.479-1.682-.767-2.5-1.945-2.5-3.604 0-3.152-3.471-5.634-6.915-4.945-4.286.857-12.103-7.645-8.352-9.084.884-.339 1.868-.213 2.187.281.319.493 1.324.621 2.232.284 1.147-.426-2.986-3.334-13.5-9.498-34.778-20.391-44.565-25.788-45.601-25.147-.704.434-.283 1.385 1.178 2.663l2.271 1.987-2.767-1.686c-1.993-1.214-2.485-2.026-1.759-2.901 1.183-1.426.347-2.538-1.891-2.517-1.125.011-1.232.239-.371.786m-13.791 24.95c.478 3.451.547 3.521.877.877.197-1.579-.036-3.266-.519-3.749-.503-.503-.656.722-.358 2.872M74 34.882c0 .55.45 1.278 1 1.618s1 .168 1-.382-.45-1.278-1-1.618-1-.168-1 .382m8 1.785C82 37.4 82.675 38 83.5 38s1.5-.6 1.5-1.333c0-.734-.675-1.334-1.5-1.334s-1.5.6-1.5 1.334M63.756 42.26c-4.151 5.074-8.054 12.449-7.264 13.727.312.504.812 3.668 1.111 7.029.406 4.57.15 6.711-1.016 8.491-1.012 1.546-1.345 3.453-.948 5.437.623 3.118-1.161 4.464-2.229 1.682-.29-.756-2.065-2.202-3.944-3.214C45.689 73.377 44.173 71 46.654 71c1.285 0 1.357-.282.373-1.468-.671-.807-1.682-1.37-2.248-1.25s-1.259-.416-1.54-1.191c-.343-.945-.01-1.217 1.009-.826 1.294.496 1.356.145.414-2.35-1.076-2.85-3.531-3.545-2.794-.79.202.756.438 2.05.525 2.875.269 2.568 4.611 14.238 7.441 20 1.746 3.556 3.405 5.602 4.692 5.788 2.95.427 6.825 10.587 5.171 13.56-.658 1.184-1.474 2.377-1.812 2.652s-.564 1.85-.5 3.5c.1 2.607.529 3.04 3.281 3.307 2.228.216 3.264-.154 3.5-1.249.257-1.198 1.559-.626 5.661 2.486 3.701 2.808 5.922 3.853 7.275 3.424 1.072-.34 1.884-.247 1.805.207-.366 2.103.219 3.325 1.593 3.325 1.506 0 1.89-1.476 1.524-5.862-.123-1.481.209-2.112.89-1.691.597.369 1.086 2.398 1.086 4.508 0 3.162.641 4.401 3.641 7.034 3.034 2.665 4.158 3.085 6.75 2.528 1.71-.368 4.684-.789 6.609-.935 2.862-.218 3.81-.888 5.202-3.674 2.784-5.574 2.481-6.006-3.702-5.279-6.581.773-7.175-.509-1.491-3.218 2.212-1.054 3.893-2.526 3.75-3.284-.204-1.084-2.75-1.336-12.102-1.196-7.616.114-11.623-.176-11.229-.814.348-.564 3.662-.83 7.691-.617 3.893.207 8.272-.113 9.73-.71 2.643-1.082 2.638-1.089-1.475-1.972-2.269-.488-4.914-1.757-5.876-2.82-1.712-1.892-1.644-1.921 3.159-1.352 6.951.823 8.114-.734 6.296-8.431-.742-3.143-1.458-6.615-1.59-7.715s-.535-3.18-.894-4.621c-.521-2.093-.009-3.28 2.534-5.882 2.485-2.543 2.891-3.456 1.842-4.147-1.553-1.023 1.509-4.056 7.267-7.196l3.385-1.846-2.686-2.154c-2.112-1.693-2.475-2.528-1.699-3.904.813-1.441.581-1.761-1.312-1.813-2.287-.063-2.288-.069-.152-.93 2.865-1.156 3.924-3.007 1.72-3.007-1.58 0-1.562-.143.191-1.468 1.093-.827 1.395-1.482.691-1.5-2.146-.055-1.365-1.871 1-2.326l2.25-.434-2.25-.136c-2.482-.15-2.934-1.998-1-4.083 1.02-1.1.93-1.235-.488-.736-.956.336-4.106.918-7 1.294s-5.581 1.176-5.97 1.778c-1.021 1.577-4.09 1.36-5.51-.389-.67-.825-1.24-1.05-1.266-.5-.135 2.882-1.649 3.53-4.696 2.01-1.674-.835-5.147-1.912-7.718-2.392s-5.445-1.535-6.388-2.344c-3.334-2.86-4.014-2.725-7.458 1.486M131 56.073c0 3.34.315 4.014 1.75 3.74 2.117-.403 2.866-4.366 1.204-6.368-2.03-2.446-2.954-1.623-2.954 2.628M101 57c-.825.533-1.05.969-.5.969s1.675-.436 2.5-.969 1.05-.969.5-.969-1.675.436-2.5.969m3.441 3.45c-1.875 1.401-1.864 1.431.309.884 1.237-.312 2.25-.965 2.25-1.451 0-1.19-.295-1.124-2.559.567m-5.628 2.233c.721.289 1.584.253 1.916-.079s-.258-.568-1.312-.525c-1.165.048-1.402.285-.604.604M110 72c0 .55.423 1 .941 1s1.219-.45 1.559-1-.084-1-.941-1-1.559.45-1.559 1m-34.69 1.116c-9.145 1.108-14.7 4.504-12.232 7.478 2.316 2.791 6.971 4.615 9.78 3.833 1.453-.404 3.612-.639 4.796-.522s2.45-.265 2.811-.849c.463-.749 1.241-.748 2.642.001 2.814 1.506 8.311.791 8.674-1.129.322-1.704-3.475-3.865-7.078-4.028-2.181-.098-2.18-.106.106-.75 1.27-.357 2.314-1.1 2.32-1.65.023-2.012-5.575-3.141-11.819-2.384m-4.252 5.28c-2.619.946-3.044 1.395-1.778 1.881 1.914.735 11.72-1.369 11.72-2.514 0-1.156-6.056-.771-9.942.633m38.694.445c-3.666 2.213-3.667 4.411-.002 3.554 3.415-.799 5.707-2.847 4.809-4.299-.856-1.385-1.423-1.297-4.807.745m7.701 3.827c-2.49 2.028-3.746 2.331-8.008 1.939-6.412-.591-7.942.291-7.001 4.037.394 1.571.953 4.544 1.242 6.606.288 2.063.978 3.75 1.533 3.75s.81-1.35.568-3c-.536-3.653 1.615-4.045 5.486-1 3.634 2.859 7.785 2.542 10.21-.779 2.371-3.246 2.605-10.276.416-12.465-1.323-1.323-1.827-1.219-4.446.912M84 85.833c0 .642-1.013 1.219-2.25 1.283-1.852.095-1.922.201-.394.594 1.995.513 4.455-1.232 3.327-2.36-.375-.376-.683-.158-.683.483m66.25 5.9c-2.11.732-1.489 4.267.75 4.267 2.027 0 2.574-1.595 1.235-3.6-.404-.605-1.297-.905-1.985-.667m-66.27 7.803c-3.719 3.98-7.78 5.758-11.701 5.122-2.395-.389-3.294-.197-3.018.644.216.659 1.787 1.337 3.492 1.506 1.704.169 3.627.945 4.273 1.724.995 1.198 1.682 1.03 4.469-1.096 3.296-2.514 6.032-7.356 5.335-9.445-.203-.61-1.486.085-2.85 1.545m61.27.138c-4.744 3.31-1.606 8.534 4.862 8.094 3.797-.259 3.913-.372 3.336-3.268-1.149-5.772-1.575-6.5-3.765-6.448-1.201.029-3.195.759-4.433 1.622M66.5 102c.34.55 1.068 1 1.618 1s.722-.45.382-1-1.068-1-1.618-1-.722.45-.382 1m50.712 2.529c-2.773 1.446-5.148 4.431-5.15 6.471-.001 1.225.176 1.196.966-.157.561-.961 1.744-1.454 2.817-1.173 1.35.353 2.196-.355 3.137-2.625 1.533-3.704 1.258-4.095-1.77-2.516m-76.511 3.103c-1.326 1.326-.771 7.368.677 7.368 2.082 0 3.816-2.607 3.449-5.185-.322-2.261-2.758-3.55-4.126-2.183m-6.743 2.446c-1.33 2.485-.6 4.922 1.475 4.922 1.633 0 3.567-2.947 3.567-5.434 0-2.302-3.739-1.922-5.042.512M47 112c0 .55.45 1 1 1s1-.45 1-1-.45-1-1-1-1 .45-1 1m27.5 0c.34.55.816 1 1.059 1s.441-.45.441-1-.477-1-1.059-1-.781.45-.441 1m-.767 4.124c.679.684 1.486.991 1.793.683.308-.308-.247-.867-1.233-1.243-1.425-.542-1.54-.428-.56.56m92.307 1.328c-2.44 2.94.787 7.596 4.324 6.239 3.066-1.177 1.422-7.691-1.942-7.691-.647 0-1.719.653-2.382 1.452m-47.594 1.798c-.378 1.237-2.128 4.275-3.887 6.75l-3.198 4.5 4.319-.351 4.32-.35v-6.4c0-6.745-.418-7.861-1.554-4.149M37 120.941c0 .518 1.913 1.315 4.25 1.771 2.95.577 4.552 1.512 5.237 3.059.73 1.648 1.838 2.229 4.25 2.229 1.795 0 3.263-.506 3.263-1.125q0-1.125 3.25-.407c1.788.395 4.706.864 6.485 1.041 1.78.177 4.428 1.261 5.885 2.407S73.078 132 74.065 132c1.101 0 1.92.871 2.115 2.25.189 1.328 1.018 2.25 2.024 2.25.937 0 2.385.9 3.218 2 1.439 1.901 1.516 1.814 1.546-1.764.065-7.67-7.795-15.509-11.667-11.637-1.803 1.803-5.444.066-5.1-2.432.236-1.712-.279-2.233-2.451-2.483-1.513-.174-2.75.094-2.75.596 0 .998-6.684.87-7.702-.149-1.016-1.015-16.298-.725-16.298.31m-4.884 1.116c-.064.856-1.354 2.046-2.866 2.644l-2.75 1.086 3 .036c3.303.04 8.36-1.625 5.323-1.753-.922-.038-1.882-.857-2.134-1.82-.354-1.356-.483-1.4-.573-.193m107.169 10.082c.081 1.068.909 2.631 1.84 3.474 1.538 1.392 1.757 1.333 2.384-.641.726-2.287-.507-4.208-2.929-4.563-.871-.128-1.383.557-1.295 1.73m7.914 3.412c-.716.811-.991 1.977-.611 2.592 1.044 1.689 17.287 9.052 18.422 8.351.545-.337.99-.188.99.33 0 .519.901 1.178 2.001 1.466 1.101.288 1.75.115 1.441-.383-.308-.499.142-.907.999-.907.982 0 1.559-.895 1.559-2.42 0-2.015-.835-2.697-5-4.08-2.75-.913-5-2.133-5-2.71 0-.655-1.717-.857-4.564-.536-3.735.421-4.777.172-5.74-1.37-1.4-2.241-2.727-2.339-4.497-.333M73 144.809c0 .655-.685 1.191-1.521 1.191-.837 0-2.059 1.178-2.714 2.617-1.046 2.296-.92 2.839 1.021 4.411C72.526 155.246 72.58 156 70 156c-1.1 0-2 .492-2 1.094 0 .601.9 1.329 2 1.616s2 .981 2 1.541c0 .561.948-.187 2.107-1.66 1.926-2.448 2.215-2.533 3.345-.988 1.505 2.058 6.004 1.258 6.961-1.237.827-2.154-.123-3.056-1.63-1.549-.651.651-1.543 1.183-1.983 1.183-1.161 0-.984-5.768.2-6.5.55-.34 1-.089 1 .558 0 .706.848.953 2.123.62 1.979-.517 2.089-.253 1.623 3.883-.434 3.853-.253 4.439 1.377 4.439 1.313 0 1.877-.719 1.877-2.393 0-1.316.711-2.666 1.579-2.999 1.3-.499 1.464-.079.925 2.374l-.654 2.979 10.575-.043c8.507-.035 10.575-.325 10.575-1.481 0-.866-.993-1.437-2.5-1.437-3.252 0-3.225-1.601.041-2.421 2.842-.713 2.408-2.579-.6-2.579-1.068 0-1.941-.45-1.941-1s1.35-1 3-1c2.933 0 3 .111 3 5 0 3.778.367 5 1.5 5 .882 0 1.509-.927 1.522-2.25l.022-2.25 1.916 2.493c1.672 2.177 1.999 2.278 2.567.798.357-.932.365-2.157.015-2.722-.349-.565-.139-1.954.467-3.086s.832-2.908.502-3.947c-.544-1.717-1.728-1.89-12.993-1.903-10.802-.012-12.452.203-12.84 1.677-.405 1.536-.457 1.531-.562-.06-.186-2.812-3.116-2.107-3.116.75 0 1.556-.567 2.5-1.5 2.5s-1.5-.944-1.5-2.5-.567-2.5-1.5-2.5c-.825 0-1.514.787-1.53 1.75-.029 1.667-.079 1.667-1.05 0-.561-.963-2.144-1.75-3.519-1.75-1.951 0-2.892.878-4.291 4.004-1.754 3.917-1.831 3.962-3.554 2.058-.969-1.071-1.526-2.535-1.238-3.254.394-.984.544-.998.603-.058.043.688.754 1.25 1.579 1.25s1.486-.562 1.468-1.25c-.041-1.623-2.968-5.509-2.968-3.941m51.238 2.353c-1.818 1.818-1.518 3.911.936 6.524l2.175 2.314h-2.675c-3.381 0-3.49 1.757-.161 2.593 4.74 1.189 7.672-4.353 3.487-6.593-2.662-1.425-2.592-3.323.092-2.471 1.666.529 2.02.288 1.74-1.182-.42-2.203-3.85-2.929-5.594-1.185M98.5 150c-.34.55.282 1 1.382 1 3.054 0 3.529 1.859.659 2.579-3.492.877-3.199 2.421.459 2.421 2.762 0 3-.278 3-3.5 0-3.044-.318-3.5-2.441-3.5-1.343 0-2.719.45-3.059 1m17.5.583c0 .871.534 1.406 1.188 1.188 1.854-.618 2.161-2.771.395-2.771-.87 0-1.583.713-1.583 1.583m-55 3.965c-2.475 1.317-5.318 2.408-6.317 2.424-1.336.021-1.667.559-1.25 2.028.312 1.1.789 2.796 1.061 3.768.285 1.02 9.892 7.216 22.701 14.642l22.207 12.873 4.159-2.206 4.16-2.207-5.262-10.497c-7.133-14.231-6.888-14.015-15.685-13.797-4.001.1-8.017-.206-8.924-.679-1.135-.592-1.827-.398-2.219.621-.809 2.108-4.329 1.833-7.755-.607-2.568-1.828-2.854-2.513-2.293-5.5.352-1.876.477-3.377.278-3.335s-2.386 1.154-4.861 2.472M41.5 155c-.586.948.091 1.38 1.75 1.118.413-.065.75.407.75 1.049s.236.931.524.643c.724-.725-.549-3.81-1.572-3.81-.459 0-1.112.45-1.452 1m6.5 3.5c0 1.375.402 2.5.893 2.5 1.166 0 2.274-2.921 1.551-4.09-1.089-1.763-2.444-.881-2.444 1.59"/><path fill-opacity=".587" fill-rule="evenodd" d="M0 100.005V200.01l100.25-.255 100.25-.255.255-99.75L201.01 0H0zm.481.495c0 55 .121 77.647.269 50.326.148-27.32.148-72.32 0-100C.602 23.147.481 45.5.481 100.5M66.5 24.111C48.35 34.606 30.125 45.121 26 47.477l-7.5 4.285-.251 47.869-.252 47.869 2.752 1.58c1.513.87 19.395 11.177 39.739 22.906s37.694 21.51 38.558 21.736 19.77-10.106 42.013-22.96l40.441-23.371.26-47.655.259-47.655-2.259-1.177c-1.243-.648-19.675-11.241-40.961-23.541s-38.835-22.356-39-22.348S84.65 13.616 66.5 24.111m39.423-9.861c-1.313 4.292-.032 5.886 5.209 6.479 4.686.531 8.419 2.054 7.437 3.035-.331.332-1.135.07-1.786-.581-1.438-1.438-3.143-1.575-2.283-.183.34.55.029 1.03-.691 1.067s.611.666 2.958 1.399c6.31 1.971 7.574 2.527 7.015 3.086-.278.277-1.73.038-3.227-.531-3.633-1.381-4.7-.533-3.454 2.744.707 1.86.7 2.801-.025 3.043-.6.2.171 2.559 1.805 5.521 1.57 2.844 3.174 7.421 3.565 10.171.392 2.75 1.54 6.8 2.552 9s2.156 4.9 2.541 6c1.058 3.017 3.705-8.974 3.15-14.266-.483-4.615.765-6.686 1.808-2.999.352 1.246 1.35 3.66 2.218 5.364 1.885 3.704 1.105 8.006-1.609 8.867-2.267.72-3.287 5.904-1.612 8.194 1.035 1.416 1.593 1.31 5.249-.998 2.25-1.42 5.221-2.866 6.602-3.212 3.88-.974 4.119-3.376.688-6.916-1.668-1.721-3.033-3.67-3.033-4.332S140.626 53 140.169 53s-1.469-1.237-2.248-2.75-1.869-3.123-2.419-3.578c-.559-.462.214-.634 1.748-.389 1.512.242 2.75.013 2.75-.51 0-.545 1.807-.69 4.25-.339l4.25.61-2.935-2.272c-1.614-1.25-4.595-3.736-6.625-5.525-3.207-2.828-3.853-3.057-4.937-1.75-1.749 2.107-2.263 1.912-4.276-1.624-1.259-2.212-1.471-3.476-.732-4.367.572-.689.783-1.922.469-2.739-.781-2.036-23.127-14.867-23.541-13.517m.077 3.128c0 .207.787.995 1.75 1.75 1.586 1.243 1.621 1.208.378-.378-1.307-1.666-2.128-2.195-2.128-1.372m.508 8.609c-.347.561-1.679.757-2.96.436-1.357-.341-2.649-.069-3.093.65-.489.79-.352.981.379.53.729-.451.936-.168.572.782-.527 1.372-2.142 1.292-4.888-.242-.541-.302-1.722-.603-2.626-.669-1.495-.11-1.509.201-.163 3.452l1.48 3.574-2.824-2.5c-1.554-1.375-2.237-1.732-1.519-.794.719.939.973 2.246.566 2.905-.503.813-.315.935.583.379.97-.599 1.149-.358.666.898-.364.949-.247 1.462.261 1.148.506-.313 1.207-.104 1.558.464s1.021.796 1.488.507 1.575.198 2.459 1.083c1.191 1.191 1.95 1.325 2.923.518.723-.6 1.61-.795 1.972-.433s.658-.037.658-.886.711-2.134 1.58-2.856c.893-.74 1.396-2.278 1.157-3.531-.298-1.555-.022-2.065.919-1.704.856.329 1.344-.228 1.344-1.532 0-2.341-1.553-3.699-2.492-2.179m18.983 3.671c.271.362-.01 1.262-.622 2-.85 1.023-.75 1.342.42 1.342 1.501 0 1.785-2.423.407-3.471-.383-.291-.475-.233-.205.129M64.5 31.178c-2.823 1.578-5.032 4.016-6.887 7.603-2.092 4.046-3.964 5.274-2.61 1.711.548-1.442.997-3.022.997-3.511 0-1.565-10.466 3.899-11.377 5.939-1.086 2.433-3.806 3.722-2.907 1.377.46-1.198-.68-.897-4.521 1.193-2.825 1.538-4.977 3.069-4.783 3.403s-.04 1.648-.521 2.92c-.757 2.004-1.359 2.236-4.511 1.735C20.939 52.524 21 52.247 21 82.532v27.287l4.75-.046c2.612-.025 6.033-.695 7.602-1.488 1.959-.99 5.717-1.388 12-1.269 12.679.238 13.363.168 13.977-1.43.968-2.523-2.62-11.761-4.986-12.839-2.307-1.052-8.555-12.882-9.802-18.563-.531-2.417-1.567-3.586-4.125-4.655C38.527 68.74 37 67.38 37 66.487c0-1.215-.79-1.537-3.189-1.301-2.674.263-3.304-.09-3.901-2.186-.391-1.375-.755-1.986-.81-1.357s-.817 1.418-1.694 1.755c-1.351.518-1.511-.035-1.051-3.643.299-2.34.566-4.648.594-5.127.108-1.849 3.053 1.731 3.081 3.744.028 1.926.128 1.962 1.05.378 1.342-2.304 2.416-2.207 4.881.439 1.236 1.326 2.039 1.672 2.039.877 0-1.057.327-1.045 1.687.062 1.483 1.205 1.605 1.153 1.012-.43-.376-1-.27-1.551.237-1.238.502.311 1.073-.229 1.269-1.198.269-1.324.78-.924 2.06 1.609.937 1.855 1.464 3.758 1.173 4.23-.838 1.356 1.541 5.03 2.767 4.272.641-.396.823-.227.433.404-.825 1.334 2.213 7.952 3.958 8.621.816.314 1.305-.471 1.374-2.206.267-6.71.296-14.781.056-15.692-1.085-4.124.235-7.84 4.224-11.892 2.337-2.375 5.711-5.944 7.497-7.933 2.022-2.251 3.814-3.397 4.75-3.038.926.355 1.503.001 1.503-.923 0-4.312-7.233-1.631-10.919 4.047-1.397 2.152-2.598 3.187-2.844 2.45-1.187-3.561 6.112-9.654 11.387-9.505 1.859.053 3.631-.309 3.937-.805.795-1.287-6.671-1.058-9.061.277m70.85-.128c.11.605.639 1.134 1.175 1.176.536.041 1.562.795 2.28 1.675 1.106 1.355 1.137 1.251.2-.679-.608-1.253-1.494-2.038-1.97-1.744-.475.294-1.094.07-1.375-.497-.317-.641-.434-.615-.31.069m-59.318 2.943c1.267 4.574 1.222 5.277-.282 4.374-.849-.51-.81-.209.122.941C77.372 41.156 80 41.597 80 40c0-.55-.45-1-1-1s-1-1.039-1-2.309-.66-3.182-1.468-4.25c-1.339-1.771-1.383-1.634-.5 1.552m8.699 1.087c.354 1.352.807 1.806 1.057 1.057.24-.722-.038-1.787-.62-2.369-.742-.742-.872-.351-.437 1.312M154 60.031c0 .533.675.969 1.5.969s1.5-.177 1.5-.393-.675-.652-1.5-.969-1.5-.139-1.5.393m-42.982 6.698c-1.969.787-4.38 3.243-3.776 3.847.264.264 1.673.027 3.13-.527 3.175-1.208 11.622-.238 11.643 1.337.016 1.146 1.942-1.354 1.97-2.557.014-.633-2.476-1.278-8.735-2.261-1.513-.237-3.417-.165-4.232.161M27.91 74.738c-.89 2.339-.717 3 1.187 4.542 3.236 2.62 5.344 1.816 5.727-2.183.521-5.446-5.022-7.337-6.914-2.359M75 74.191c0 1.447 2.26 1.983 5.667 1.344 1.946-.365 3.296-.905 3.002-1.199-.808-.808-8.67-.939-8.669-.145m33.708.985c-2.245.819-2.564 1.293-1.627 2.421.64.772 1.671 1.396 2.291 1.388.621-.009.453-.452-.372-.985-1.363-.881-.735-1.232 1.638-.915.351.047.992-.486 1.424-1.185.615-.995 1.101-1.01 2.235-.068.797.661 2.261.891 3.253.51 1.704-.654 1.698-.733-.123-1.447-2.616-1.024-5.384-.935-8.719.281M73.75 81.299C72.237 81.897 71 82.797 71 83.3s.787.601 1.75.218 2.875-.899 4.25-1.147c1.375-.247 3.25-.675 4.166-.951s1.955-.033 2.309.539 1.179 1.027 1.834 1.009c.655-.017.317-.692-.75-1.5-2.222-1.681-6.801-1.752-10.809-.169M175.923 95.75c-.042 1.513-.254 3.425-.472 4.25s-1.032 4.337-1.811 7.804-1.67 6.559-1.981 6.871c-.312.311.505 2.144 1.815 4.071 1.85 2.724 2.18 4.034 1.478 5.879-.496 1.306-.517 2.375-.046 2.375s1.36-1.999 1.975-4.443C178.291 116.959 178.387 93 177 93c-.55 0-1.034 1.237-1.077 2.75m-48.359 4.674c-.365 2.433-2.024 6.37-3.686 8.75-1.663 2.379-3.934 5.788-5.048 7.575s-2.395 3.02-2.847 2.74-1.338 1.057-1.969 2.969c-1.099 3.331-6.079 8.542-8.162 8.542-.547 0-1.658.664-2.469 1.475-1.753 1.752-9.58 1.098-13.098-1.095-2.592-1.615-7.285-1.84-7.285-.349 0 .568.563 1.247 1.25 1.511.837.32 1.136 2.126.903 5.468l-.346 4.99h7.54c6.658 0 7.722-.26 9.096-2.223l1.557-2.222v2.222c0 1.768.573 2.223 2.8 2.223 1.54 0 3.34-.54 4-1.2.847-.847 1.2-.868 1.2-.073 0 1.527 2.82 2.02 6.75 1.179 1.974-.422 3.25-.3 3.25.311 0 .612 1.401.743 3.583.333 4.852-.91 8.417 1.408 8.417 5.473 0 1.637.354 2.977.787 2.977 2.16 0 .701 4.243-2.393 6.959-3.001 2.635-3.999 2.968-7.309 2.439-2.109-.338-4.091-.197-4.405.311-.644 1.042-2.826 17.478-2.38 17.925.159.158 3.193-1.426 6.744-3.521s14.894-8.673 25.206-14.619c10.313-5.946 18.75-11.13 18.75-11.519s-3.037-2.07-6.75-3.736c-19.394-8.703-24.014-11.383-27.149-15.747-3.469-4.832-3.631-5.289-1.851-5.223 8.419.312 10.166-1.554 12.423-13.274.374-1.945-.213-3.018-2.632-4.806-1.712-1.267-3.885-2.191-4.827-2.054-3.837.556-6.039-1.141-6.721-5.177-.881-5.215-2.107-5.021-2.929.466M108 108c-1.282.828-1.246.972.25.985.963.008 1.75-.435 1.75-.985 0-1.22-.113-1.22-2 0m-54.93 4.132c-1.337 1.09-3.587 1.89-5 1.778-1.414-.111-3.837.314-5.385.944-3.313 1.349-3.724 1.394-3.567.396.313-1.978-.307-2.172-2.448-.77-2.553 1.673-3.67 1.172-3.67-1.647 0-1.148-.726-1.833-1.943-1.833-2.727 0-9.057 3.913-9.057 5.599 0 1.521.214 1.551 13.5 1.902 4.95.131 11.925.509 15.5.839s8.644.33 11.264 0c3.9-.492 4.557-.851 3.62-1.98-.629-.758-2.866-1.653-4.971-1.99-2.795-.447-4.041-1.233-4.62-2.915l-.793-2.303zm64.681 8.264c-.884 1.854-2.969 4.921-4.633 6.816l-3.025 3.446 5.313-.079 5.312-.079-.491-6.5c-.271-3.575-.576-6.607-.68-6.737-.104-.131-.912 1.279-1.796 3.133m-64.259 7.617c-.352.569-3.625.898-7.462.75-6.141-.236-6.743-.092-5.933 1.421.497.927.903 3.739.903 6.25 0 4.103.234 4.566 2.309 4.566 1.27 0 3.182-.661 4.25-1.468 1.067-.808 2.898-1.483 4.069-1.5 1.17-.018 2.704-.727 3.41-1.578.705-.85 1.903-1.307 2.662-1.016s2.234-.004 3.278-.656c1.49-.931 2.454-.889 4.48.196 3.559 1.904 4.975.224 2.51-2.978-1.058-1.375-1.934-1.937-1.946-1.25-.036 2.009-2.111 1.447-4.61-1.25-2.34-2.525-6.765-3.356-7.92-1.487M174.158 135c-.041 1.925.788 5.075 1.842 7l1.916 3.5.042-3.027c.023-1.666-.579-3.916-1.338-5s-1.606-2.873-1.884-3.973c-.307-1.218-.533-.632-.578 1.5m-91.079-.417c.048 1.165.285 1.402.604.605.289-.722.253-1.585-.079-1.917s-.568.258-.525 1.312m-5.406 3.69c-1.005 1.035-2.508 1.62-3.341 1.301-.832-.319-2.034-.245-2.672.166-.638.41-2.06.764-3.16.787-2.418.049-4.5 1.236-4.5 2.567 0 .631.654.626 1.847-.012 1.219-.653 2.185-.65 2.842.007.661.661 1.426.477 2.276-.547 1.583-1.908 2.914-1.949 4.956-.155.97.852 2.833 1.194 4.829.886 2.531-.389 3.233-.972 3.171-2.636-.046-1.253-.301-1.579-.616-.789-.385.967-.998.669-2.171-1.054-1.597-2.348-1.675-2.36-3.461-.521M33.5 141c-1.772.762-1.687.867.75.93 1.513.038 2.75-.38 2.75-.93 0-1.174-.769-1.174-3.5 0m39.506 3.683c-.003.65-.883 1.461-1.955 1.801-3.052.968-3.738 4.648-1.184 6.344 2.738 1.817 2.828 4.166.133 3.462-2.763-.723-2.549 1.557.25 2.665 1.825.723 2.674.386 4.495-1.782 1.714-2.041 2.246-2.275 2.25-.99.007 2.523 3.793 3.319 6.053 1.273 1.048-.948 1.64-2.152 1.316-2.677-.362-.585-1.01-.533-1.677.134-.598.598-1.447 1.087-1.887 1.087-1.163 0-.983-6.769.2-7.5.55-.34 1 .084 1 .941S82.675 151 83.5 151c2.034 0 1.921-3.901-.136-4.691-2.261-.867-4.581.787-6.406 4.568l-1.542 3.195-2.283-2.431c-1.459-1.552-1.895-2.67-1.208-3.095.591-.365 1.075-.187 1.075.395S73.675 150 74.5 150c1.85 0 1.85-.1.006-3.636-.821-1.575-1.496-2.332-1.5-1.681M86 152.5c0 4.977.336 6.5 1.434 6.5.808 0 1.571-1.166 1.75-2.673.45-3.804 2.816-4.262 2.816-.545v2.949l10 .115c8.214.094 10-.15 10-1.366 0-.894-.947-1.48-2.393-1.48-1.316 0-2.621-.593-2.899-1.319-.321-.837.241-1.293 1.542-1.25 1.126.038 2.243-.493 2.482-1.181.257-.739-.417-1.25-1.649-1.25-1.145 0-2.083-.45-2.083-1s1.35-1 3-1c2.933 0 3 .111 3 5 0 3.778.367 5 1.5 5 .879 0 1.514-.931 1.533-2.25l.034-2.25 1.894 2.271c1.955 2.345 3.725 1.459 2.656-1.328-.309-.803-.114-2.636.433-4.073.695-1.829.65-3.027-.151-3.992-1.409-1.697-5.082-1.795-6.699-.178-.933.933-1.2.933-1.2 0 0-1.625-7.68-1.579-8.338.05-.403 1-.52 1-.583 0-.131-2.075-7.837-1.615-8.39.5-.435 1.667-.463 1.667-.573 0-.209-3.147-2.97-1.943-3.303 1.44-.296 3.012-.408 3.094-2.021 1.471-.939-.945-1.453-2.381-1.143-3.19.353-.919-.038-1.471-1.042-1.471-1.311 0-1.607 1.197-1.607 6.5m38.2-5.3c-1.815 1.815-1.441 4.633.8 6.032 2.609 1.629 2.672 4.116.084 3.295-1.054-.335-2.197-.153-2.541.403-.96 1.554 4.258 2.48 5.97 1.059 2.101-1.743 1.845-4.727-.513-5.989-1.1-.589-2-1.785-2-2.658 0-1.308.267-1.365 1.524-.322 1.807 1.5 2.965.697 2.131-1.477-.705-1.836-3.769-2.029-5.455-.343M98 150c0 .55.873 1 1.941 1s2.199.418 2.515.928c.693 1.123-3.03 2.453-4.436 1.585-.561-.347-.754.016-.441.831.305.797 1.875 1.642 3.488 1.879 2.808.412 2.933.268 2.933-3.396 0-3.586-.189-3.827-3-3.827-1.65 0-3 .45-3 1m18 .393c0 2.184 2.571 2.652 2.733.497.079-1.043-.502-1.89-1.295-1.89-.791 0-1.438.627-1.438 1.393m-55.5 6.471c-3.728 1.966-5.068 3.272-5.266 5.136-.24 2.266 1.441 3.485 17.927 13 10.006 5.775 20.163 11.534 22.571 12.797l4.379 2.298 3.444-2.129c1.895-1.171 3.445-2.326 3.445-2.566 0-1.266-10.067-20.194-11.647-21.9-1.576-1.701-3.122-1.997-10.353-1.981-4.675.011-9.441.551-10.591 1.2-1.751.989-2.667.79-5.624-1.219-4.022-2.733-5.132-4.753-3.507-6.378 1.496-1.496 1.071-1.341-4.778 1.742"/></svg>