<svg xmlns="http://www.w3.org/2000/svg" width="200" height="200" fill="#000000"><path fill-opacity=".078" fill-rule="evenodd" d="M83.919.946C62.42 4.887 45.48 13.545 30.176 28.413 16.987 41.226 8.126 56.155 3.241 73.794.849 82.433.551 85.259.527 99.5c-.029 17.288 1.234 24.966 6.17 37.5 9.361 23.774 30.758 45.659 54.303 55.542 13.703 5.752 20.611 6.962 39.5 6.919 14.516-.033 18.242-.374 25.499-2.335 35.148-9.495 64.284-39.514 71.461-73.626.926-4.4 2.101-9.382 2.612-11.071C201.34 108.234 201.28 87 200 87c-.55 0-1.008-1.237-1.017-2.75-.026-4.133-3.3-15.861-6.63-23.75-9.313-22.063-30.394-43.223-52.383-52.581C127.569 2.642 118.906.9 103 .485 95.025.277 86.439.484 83.919.946m4.499 24.023c-3.207 1.297-7.404 6.827-11.029 14.531-5.883 12.501-6.201 11.652 6.164 16.428 13.801 5.331 34.911 10.923 44.334 11.745l7.388.644-.602-4.409c-.331-2.424-.883-8.683-1.228-13.908-.344-5.225-1.036-11.125-1.537-13.111-.786-3.117-1.243-3.548-3.339-3.147-1.362.26-4.108-.438-6.249-1.59-5.935-3.191-22.875-8.159-27.582-8.089-2.331.035-5.175.443-6.32.906M64.5 52.896c3.569 2.488 4.5 2.612 4.5.604 0-.825-.562-1.506-1.25-1.514-.687-.007-2.375-.276-3.75-.597-2.371-.554-2.345-.476.5 1.507m-5.496.804c.002.44.902 2.274 2 4.075 2.183 3.58 4.181 4.596 10.996 5.593l4.5.658-3.5-2.159a413 413 0 0 1-7.481-4.763C59.158 52.943 59 52.861 59.004 53.7M84.5 64.516c25.574 12.345 62.313 22.832 64.963 18.544.812-1.314-3.116-4.753-6.847-5.995-2.866-.954-2.96-.918-1.175.449 1.068.817 2.305 1.486 2.75 1.486s.809.45.809 1c0 1.973-3.992.946-7.215-1.856-2.396-2.083-5.18-3.195-10.285-4.107-12.555-2.243-31.799-7.178-41.5-10.643-5.225-1.867-9.725-3.355-10-3.308s3.55 2.041 8.5 4.43M66 67.998c0 5.183 1.663 8.001 4.725 8.007 2.543.005 2.795.348 3.01 4.109.327 5.703 3.965 11.774 9.135 15.245l4.371 2.935-.629 5.353c-.416 3.54-.266 5.353.445 5.353.591 0 5.114 2.025 10.05 4.5s9.146 4.5 9.355 4.5.682-1.38 1.053-3.068c.89-4.051 2.741-4.595 8.544-2.508 6.631 2.385 9.352 1.863 9.777-1.877.185-1.624 1.041-3.468 1.903-4.098.861-.63 1.265-1.633.897-2.228s-.193-1.377.388-1.736c.582-.359.78-1.527.441-2.595-.482-1.52.051-2.174 2.459-3.014 3.624-1.263 3.665-1.467 1.076-5.376-1.093-1.65-1.99-3.754-1.993-4.675-.005-1.122-1.575-2.162-4.757-3.15-2.612-.812-10.6-3.578-17.75-6.147-15.171-5.452-33.398-11.017-38.75-11.832-3.595-.547-3.75-.452-3.75 2.302M.385 100c0 6.875.16 9.688.355 6.25.196-3.437.196-9.062 0-12.5-.195-3.437-.355-.625-.355 6.25m82.122 11.989c-.344.556.036.74.868.421 2.111-.811 9.798 2.824 17.312 8.186l6.455 4.606-.674 4.149c-.371 2.282-1.042 4.541-1.492 5.02s-3.666-2.176-7.147-5.9c-5.581-5.97-16.687-15.234-17.157-14.31-.094.186-1.052 2.139-2.128 4.339s-4.79 7.529-8.252 11.841c-3.462 4.313-6.707 8.579-7.211 9.479-.836 1.494-1.101 1.472-3.005-.251-1.149-1.04-2.331-1.647-2.628-1.35-1.037 1.036 10.902 10.717 17.45 14.15 16.926 8.873 37.976 9.319 54.059 1.146C134.38 150.76 144 143.258 144 141.785c0-.574-1.913.578-4.25 2.561-5.01 4.249-11.52 8.313-14.103 8.805-1.453.276-3.123-2.155-8.009-11.651-9.857-19.163-9.958-19.282-21.527-25.25-10.355-5.342-12.517-6.02-13.604-4.261m23.535 27.139c.053 2.994 3.452 9.499 4.271 8.174.878-1.421-1.079-7.863-2.83-9.316-1.241-1.03-1.476-.843-1.441 1.142m-31.387 30.701c-1.923 2.125-2.202 8.224-.455 9.971 1.697 1.697 7.314 1.491 8.82-.324 1.534-1.848.432-3.328-1.237-1.659-1.82 1.82-5.595 1.404-6.744-.745-2.235-4.175 2.628-8.589 6.05-5.491 2.55 2.307 3.736.988 1.417-1.575-2.264-2.501-5.678-2.578-7.851-.177m13.095-1.252C86.62 169.716 86.847 181 88 181c.55 0 1-1.125 1-2.5 0-2 .5-2.5 2.5-2.5s2.5.5 2.5 2.5c0 1.375.45 2.5 1 2.5.564 0 1-2.833 1-6.5s-.436-6.5-1-6.5c-.55 0-1 1.381-1 3.07 0 2.608-.337 3.021-2.244 2.75-1.567-.224-2.396-1.175-2.75-3.159-.278-1.562-.844-2.5-1.256-2.084m11.917.09C98.595 169.738 98.899 181 100 181c.564 0 1-2.833 1-6.5 0-6.546-.115-7.051-1.333-5.833M106 170c-3.922 3.922-1.357 11 3.985 11 2.791 0 6.681-2.667 5.546-3.802-.31-.311-1.097-.032-1.748.619-1.528 1.528-5.047 1.519-6.583-.017-1.769-1.769-1.463-4.252.774-6.277 1.87-1.692 2.113-1.696 4.587-.075 3.232 2.118 4.389 1.26 1.945-1.442-2.319-2.562-5.948-2.564-8.506-.006m13.746 4.25c-2.477 6.371-2.602 8.641-.304 5.498 1.608-2.199 5.169-2.266 6.37-.119.502.896 1.343 1.459 1.87 1.25C128.78 180.444 124.256 168 123 168c-.454 0-1.918 2.813-3.254 6.25M122 175c0 .55.45 1 1 1s1-.45 1-1-.45-1-1-1-1 .45-1 1"/><path fill-opacity=".328" fill-rule="evenodd" d="M86.585 1.037C61.113 5.053 37.818 18.224 22.467 37.289 14.286 47.448 6.862 62.3 3.352 75.523 1.069 84.126.704 87.496.704 100c0 12.5.366 15.879 2.649 24.5 6.576 24.825 21.304 45.499 42.046 59.02 9.933 6.474 18.975 10.408 31.302 13.616 7.338 1.91 11.29 2.283 23.799 2.244 13.001-.041 16.332-.403 25-2.718 31.591-8.44 58.251-32.905 68.587-62.94 1.556-4.522 3.57-12.047 4.474-16.722 2.144-11.075 3.027-26 1.538-26-.604 0-1.099-1.489-1.099-3.31 0-4.664-3.664-18.601-7.048-26.807-6.399-15.518-20.883-33.336-34.746-42.746C141.376 7.393 122.557 1.217 103.5.511c-6.05-.224-13.662.013-16.915.526M88 24.691c-4.281 2.213-8.713 8.665-12.963 18.876-3.691 8.866-4.188 8.005 7.168 12.424 17.979 6.998 50.307 14.831 52.432 12.705 1.134-1.134-1.682-31.882-3.186-34.791-1.318-2.548-5.451-4.68-5.451-2.811 0 .498.675.906 1.5.906s1.5.45 1.5 1c0 1.524-2.172 1.193-5.504-.839-4.321-2.636-21.313-8.124-27.081-8.747-3.599-.389-5.852-.047-8.415 1.277M61 50.865c0 .36 1.013 1.281 2.25 2.047s3.165 1.988 4.284 2.714c1.845 1.198 2.053 1.091 2.239-1.152.112-1.361-.128-2.485-.534-2.498s-2.426-.416-4.489-.895-3.75-.576-3.75-.216m-2.436 3.385c1.154 3.718 4.429 7.714 6.752 8.24 14.733 3.335 15.429 3.244 8.184-1.061-3.3-1.961-7.874-4.885-10.163-6.497-5.003-3.523-5.686-3.62-4.773-.682M72.5 58.679C76.825 62.049 97.367 71.117 114 77c15.123 5.349 18.756 6.265 26.75 6.742 7.78.464 9.25.315 9.25-.94 0-2.002-2.774-4.392-7.287-6.277-4.156-1.737-5.284-.198-1.213 1.657 1.375.626 2.5 1.517 2.5 1.979 0 1.605-1.951.821-5.324-2.141-2.887-2.535-5.565-3.431-17.938-6.004-16.853-3.505-28.424-6.738-41.166-11.503-4.989-1.866-8.172-2.691-7.072-1.834m-6.903 7.928c-.339.884-.145 3.359.432 5.5.905 3.362 1.435 3.893 3.882 3.893 2.651 0 2.864.308 3.291 4.75.582 6.053 4.595 12.466 9.897 15.812 3.239 2.045 3.974 3.028 3.555 4.758-1.874 7.734-2.572 6.748 8.584 12.13 5.644 2.722 10.559 5.109 10.921 5.303s.954-.99 1.314-2.631c1.058-4.816 2.488-5.325 8.525-3.031 6.471 2.459 10.002 1.916 10.002-1.539 0-1.325.675-3.084 1.5-3.909s1.5-2.181 1.5-3.013.408-1.764.906-2.072.671-1.46.383-2.559c-.287-1.099-.106-1.999.403-1.999s1.768-.616 2.798-1.369c1.817-1.328 1.8-1.537-.559-6.983-1.337-3.088-2.937-5.622-3.555-5.631s-10.068-3.216-21-7.125C89.723 70.221 71.987 65 67.979 65c-.971 0-2.043.723-2.382 1.607M.349 100c0 4.675.173 6.587.383 4.25.211-2.338.211-6.163 0-8.5-.21-2.338-.383-.425-.383 4.25m81.042 12.744c-1.097 1.516-2.763 4.408-3.702 6.426-.939 2.019-4.404 6.899-7.701 10.845-3.297 3.945-6.374 7.853-6.839 8.683-.713 1.275-1.172 1.305-2.951.193-1.159-.723-2.465-.947-2.903-.497-1.413 1.454 9.974 10.626 18.205 14.662 10.288 5.046 17.941 6.944 28 6.944 14.057 0 26.411-4.619 36.418-13.616 6.45-5.8 5.078-7.145-1.648-1.615-5.387 4.429-11.452 8.231-13.13 8.231-.618 0-3.653-5.062-6.745-11.25-9.419-18.849-10.224-19.816-21.239-25.526-12.995-6.737-13.351-6.816-15.765-3.48m1.609 1.12c0 .475 1.809 2.118 4.021 3.65s6.968 5.912 10.572 9.731 6.696 6.79 6.874 6.6c.899-.958 2.22-7.724 1.668-8.547-1.034-1.543-12.957-9.325-16.656-10.871-3.863-1.614-6.479-1.841-6.479-.563m23.557 26.386c.381 1.238 1.293 3.375 2.028 4.75 1.291 2.417 1.336 2.427 1.375.297.049-2.71-1.955-7.297-3.188-7.297-.499 0-.595 1.012-.215 2.25m-33 29.973c-4.987 7.119 3.441 15.779 9.479 9.741 2.857-2.857 1.498-4.392-2.039-2.303-2.416 1.427-3.119 1.482-4.48.353-3.844-3.19.43-8.451 4.916-6.05 3.269 1.75 4.432.65 2.073-1.958-2.535-2.8-7.918-2.683-9.949.217M87 175.083c0 5.219.329 6.976 1.25 6.673.688-.226 1.395-1.64 1.572-3.143.431-3.658 3.556-3.153 3.994.646.181 1.566.931 2.741 1.75 2.741 1.109 0 1.434-1.589 1.434-7 0-5.556-.31-7-1.5-7-.933 0-1.5.944-1.5 2.5 0 1.833-.533 2.5-2 2.5s-2-.667-2-2.5c0-1.556-.567-2.5-1.5-2.5-1.192 0-1.5 1.454-1.5 7.083M99 175c0 5.556.31 7 1.5 7s1.5-1.444 1.5-7-.31-7-1.5-7-1.5 1.444-1.5 7m6.547-5.052c-3.96 4.376-.834 12.052 4.909 12.052 2.327 0 5.544-2.802 5.544-4.829 0-1.632-1.021-1.462-3.23.537-2.42 2.19-5.138.7-5.587-3.065-.392-3.284 1.975-4.431 5.383-2.608 2.861 1.531 4.31.582 2.797-1.833-1.62-2.587-7.566-2.741-9.816-.254m13.698 3.841c-1.235 3.185-2.245 6.335-2.245 7 0 1.718 1.95 1.504 2.638-.289.317-.825 1.667-1.5 3-1.5 1.334 0 2.684.675 3 1.5.317.825 1.252 1.5 2.077 1.5 1.087 0 1.335-.665.898-2.407-1.241-4.944-4.586-11.593-5.833-11.593-.709 0-2.3 2.605-3.535 5.789"/><path fill-opacity=".146" fill-rule="evenodd" d="M81.113 2.545c-37.7 8.179-65.69 34.101-76.668 71.004C1.168 84.564.042 103.763 1.971 115.72 9.34 161.398 46.725 195.423 94 199.478c26.075 2.236 56.602-9.421 76.329-29.149 19.874-19.873 31.395-50.261 29.13-76.829-3.914-45.907-36.574-82.502-81.297-91.091-9.188-1.764-28.619-1.693-37.049.136m3.932 23.07C81.89 28.27 72 46.929 72 50.226c0 3.347 16.08 9.453 43 16.329 10.436 2.666 21.026 3.269 20.961 1.195-.021-.687-.649-8.393-1.396-17.124-1.249-14.609-1.554-16.069-3.822-18.337-1.644-1.645-3.259-2.327-4.854-2.05l-2.389.414 2.5 1.11c1.375.611 1.92 1.139 1.21 1.174-.709.034-3.184-.904-5.5-2.085C113.35 26.587 100.869 23 94.389 23c-5.266 0-6.719.407-9.344 2.615M60 50.945c0 .645-.45.895-1 .555-.566-.35-1 .478-1 1.906 0 3.214 5.529 9.584 8.354 9.624 1.938.028 1.976.13.396 1.05-1.096.638-1.745 2.216-1.736 4.22.024 5.635 1.054 7.764 4.047 8.362 2.375.475 2.902 1.19 3.469 4.699.91 5.642 5.723 12.927 10.063 15.234 3.27 1.739 3.54 2.21 3.093 5.405-.269 1.925-.78 4.218-1.135 5.096-.491 1.211.465 2.02 3.962 3.356 2.535.968 4.436 1.932 4.225 2.143s-2.237-.345-4.503-1.235-4.748-1.377-5.516-1.082-2.618 3.116-4.111 6.269c-1.494 3.154-4.868 8.258-7.498 11.344-2.631 3.085-5.805 7.097-7.055 8.916-2.18 3.172-2.35 3.236-4.187 1.573-1.539-1.393-2.156-1.485-3.142-.469-2.895 2.983 17.252 16.682 30.083 20.455 13.808 4.06 28.48 2.719 41.761-3.818 7.566-3.723 16.43-10.809 16.43-13.133 0-2.361-1.969-1.612-6.695 2.548-4.408 3.88-13.182 9.544-13.748 8.875-.157-.186-2.747-5.329-5.755-11.429-6.292-12.759-7.977-15.425-12.802-20.248-2.321-2.32-2.756-3.101-1.292-2.317 2.055 1.1 2.283.904 3.289-2.831 1.198-4.451 2.218-4.786 7.657-2.513 6.699 2.799 11.346 1.538 11.346-3.078 0-1.197.679-2.741 1.509-3.429.83-.689 1.787-2.994 2.128-5.123.34-2.128.925-3.87 1.3-3.87.374 0 1.482-.586 2.46-1.301 1.68-1.228 1.608-1.657-1.275-7.608-2.974-6.14-2.996-6.291-.838-5.695 4.523 1.248 16.237 1.704 17.716.69 2.924-2.006-2.761-7.146-9.5-8.59l-3-.643 2.806 2.574c3.835 3.517 1.573 3.274-2.521-.271-2.278-1.972-5.278-3.222-9.785-4.076-18.7-3.544-42.32-10.12-52.471-14.61-4.632-2.048-5.545-2.844-5.051-4.401.748-2.356.203-2.698-5.728-3.585-3.37-.505-4.75-.37-4.75.461m13 9.593c0 .232 1.912 1.402 4.25 2.6 2.778 1.423 3.738 2.351 2.773 2.679-.812.276 2.549 1.756 7.469 3.29s9.019 2.699 9.108 2.591c.089-.109-5.185-2.759-11.719-5.889C78.346 62.678 73 60.307 73 60.538m-3.25 4.124c.688.278 1.813.278 2.5 0 .688-.277.125-.504-1.25-.504s-1.937.227-1.25.504m31.39 8.811c.852.852 20.121 7.6 20.531 7.189.22-.219-4.15-2.033-9.711-4.031-9.93-3.567-11.764-4.102-10.82-3.158m-17.596 40.455c-.315.51.292 1.203 1.35 1.538 1.058.336 5.85 4.433 10.649 9.104 4.8 4.672 8.851 8.367 9.003 8.212s.575-1.883.94-3.84c.643-3.44.485-3.678-4.739-7.146C95.748 118.476 85.69 113 84.592 113c-.261 0-.732.418-1.048.928m23.898 27.572c.385 1.65 1.15 3.45 1.7 4q.999 1 .3-2c-.385-1.65-1.15-3.45-1.7-4q-1-1-.3 2m-33.241 27.528c-5.082 4.734-2.917 12.135 3.741 12.792 3.398.336 7.058-1.985 7.058-4.475 0-1.562-2.59-1.817-3.5-.345-.909 1.47-4.075 1.217-5.447-.436-.885-1.066-.907-1.968-.087-3.5 1.316-2.46 3.3-2.653 5.092-.494.716.863 2.121 1.355 3.122 1.093 1.557-.407 1.82.162 1.82 3.931 0 3.739.303 4.406 2 4.406 1.467 0 2-.667 2-2.5 0-3.147 2.737-3.371 3.18-.26.176 1.232 1.107 2.39 2.07 2.573 1.533.292 1.75-.543 1.75-6.74 0-6.406-.189-7.073-2-7.073-1.467 0-2 .667-2 2.5 0 1.556-.567 2.5-1.5 2.5s-1.5-.944-1.5-2.5c0-1.833-.533-2.5-2-2.5-1.318 0-2 .667-2 1.955 0 1.803-.19 1.765-2.455-.5-2.984-2.985-6.43-3.142-9.344-.427m31.254.427c-4.822 4.821-1.815 12.545 4.884 12.545 1.794 0 3.801-.54 4.461-1.2.933-.933 1.2-.933 1.2 0 0 1.732 3.679 1.479 4.362-.3.316-.825 1.441-1.5 2.5-1.5s2.183.675 2.5 1.5c.512 1.335 4.638 2.234 4.638 1.011 0-.27-1.173-3.42-2.606-7-3.222-8.047-5.421-8.626-7.919-2.084-1.187 3.107-2.126 4.26-3.15 3.867-.803-.308-2.524.01-3.825.706-3.113 1.666-5.73.612-5.32-2.143.497-3.34 3.309-4.63 5.59-2.565 2.299 2.081 4.23 2.209 4.23.281 0-1.882-4.756-5.573-7.18-5.573-1.051 0-3.015 1.105-4.365 2.455M98 175c0 6.333.19 7 2 7s2-.667 2-7-.19-7-2-7-2 .667-2 7"/><path fill-opacity=".118" fill-rule="evenodd" d="M155.372 30.722a1189 1189 0 0 1-12.711 14.25l-6.838 7.528.338 8.5.339 8.5h-7.657c-12.978 0-10.997 1.256 7.103 4.503 7.303 1.31 13.526 4.142 14.951 6.804 2.115 3.953-1.855 5.376-11.623 4.165-3.709-.46-6.93-.649-7.159-.42-.229.228.777 2.715 2.235 5.526 2.874 5.537 2.745 6.555-1.007 7.982-1.355.515-2.171 1.41-1.813 1.988.782 1.266-2.225 7.952-3.577 7.952-.524 0-.953 1.26-.953 2.8 0 5.535-3.696 6.545-11.582 3.165-2.611-1.119-5.082-1.682-5.49-1.25s-1.175 2.392-1.705 4.356c-.85 3.15-.632 4.034 1.844 7.5 1.545 2.161 5.384 9.104 8.533 15.429s5.874 11.685 6.056 11.911c.676.836 7.747-3.544 12.368-7.661 4.857-4.328 7.277-5.19 8.593-3.061 1.185 1.917-8.298 9.548-17.117 13.773-10.877 5.212-16.736 6.403-28.368 5.768-13.863-.758-27.257-5.906-37.673-14.48l-5.666-4.665-4.646 5.085c-13.387 14.647-18.491 20.376-19.723 22.136-1.252 1.786-.774 2.442 5.857 8.059 11.965 10.136 30.566 18.513 46.987 21.162 10.297 1.661 28.943.759 38.936-1.884 35.874-9.488 62.451-36.065 71.939-71.939 2.638-9.976 3.545-28.64 1.89-38.901-2.695-16.702-10.528-34.282-20.738-46.539C171.184 31.427 163.46 24 161.942 24c-.384 0-3.34 3.025-6.57 6.722m-59.989 92.787c4.885 4.67 8.996 8.491 9.136 8.491s.452-1.351.695-3.002c.284-1.938-.119-3.484-1.137-4.364-2.481-2.144-15.334-9.635-16.514-9.625-.585.006 2.934 3.831 7.82 8.5m-21.978-.259L71.5 125.5l2.25-1.905c1.237-1.048 2.25-2.06 2.25-2.25 0-.8-.805-.209-2.595 1.905m-6.029 6c-3.637 3.919-6.723 8.736-6.037 9.422.274.275 1.045-.552 1.712-1.836s2.759-4.248 4.648-6.586c4.077-5.044 3.91-5.561-.323-1m40.703 13.333c.048 1.165.285 1.402.604.605.289-.722.253-1.585-.079-1.917s-.568.258-.525 1.312m-34.905 26.731c-6.72 7.154 3.378 18.213 10.512 11.512L86 178.651v2.244c0 3.528 4.399 2.482 4.816-1.145.174-1.512.707-2.75 1.184-2.75s1.01 1.238 1.184 2.75c.285 2.485.735 2.774 4.661 2.994 3.648.204 4.432-.085 4.881-1.802.532-2.035.546-2.036 2.654-.082 1.667 1.544 3.476 1.948 8.464 1.89 4.319-.051 6.507-.501 6.857-1.412.695-1.812 3.946-1.699 4.661.162.562 1.465 3.736 2.068 4.877.927.315-.315-.822-3.915-2.527-8-3.427-8.209-5.621-9.475-7.705-4.444l-1.236 2.984-2.787-2.984c-3.352-3.589-7.774-3.977-10.536-.926-1.841 2.034-1.87 2.035-2.592.084-.581-1.571-1.663-1.974-5.293-1.974-4.159 0-4.563.214-4.563 2.416 0 3.049-1.752 3.183-2.18.167-.38-2.675-4.82-3.89-4.82-1.32 0 1.985-1.384 2.017-3 .07-1.922-2.316-7.304-1.87-9.826.814m3.493 3.353c-1.233 1.232-.681 4.39.87 4.986.846.324 2.308-.094 3.25-.928s2.613-1.738 3.713-2.006c1.548-.377 1.392-.513-.691-.603-1.48-.064-2.969-.566-3.309-1.116-.704-1.14-2.841-1.325-3.833-.333m30.903 1.011c-.354.922-.004 2.317.778 3.098 1.228 1.229 1.775 1.19 4.029-.287 1.434-.94 3.286-1.449 4.115-1.13.83.318 1.508.142 1.508-.39 0-.533-1.098-.969-2.441-.969s-2.719-.45-3.059-1c-.989-1.6-4.227-1.155-4.93.678"/></svg>