<svg xmlns="http://www.w3.org/2000/svg" width="200" height="200" fill="#000000"><path fill-opacity=".196" fill-rule="evenodd" d="M81.998 12.413c-30.069 6.334-55.716 32-64.042 64.087-2.68 10.328-3.597 27.692-2.029 38.415 5.227 35.743 29.569 64.082 62.03 72.213 7.181 1.799 10.424 2.044 21.5 1.622 15.181-.579 25.136-2.644 35.383-7.34 19.798-9.072 34.803-25.088 43.404-46.327 5.31-13.112 7.132-24.456 6.437-40.083-1.027-23.112-8.566-41.471-23.455-57.117-12.333-12.96-23.938-20.061-39.726-24.308-8.385-2.256-31.134-2.925-39.502-1.162m53.382 14.039c-.306.799-.266 1.924.09 2.5.357.576.171 1.048-.411 1.048S134 30.552 134 31.227s1.18.047 2.623-1.396 2.317-3.12 1.941-3.727c-.955-1.546-2.523-1.375-3.184.348m8.093 5.592c-.913 1.477 1.393 3.945 3.082 3.297 1.053-.405 1.152-1.02.392-2.441-1.129-2.109-2.492-2.445-3.474-.856M141 34.794c0 .529.727 1.564 1.615 2.302 1.398 1.16 1.566 1.086 1.25-.545-.376-1.944-2.865-3.469-2.865-1.757M138.5 39c-.349 1.1-1.081 2-1.626 2-.546 0-.714.451-.373 1.001.861 1.394 5.377-2.155 4.767-3.746-.72-1.874-2.05-1.517-2.768.745m-99 1c-.34.55-.141 1 .441 1S41 40.55 41 40s-.198-1-.441-1-.719.45-1.059 1m2.167 1.667c-.367.366-.667 1.131-.667 1.7 0 .626.466.567 1.183-.15.651-.651.951-1.416.667-1.7s-.817-.217-1.183.15m-6.676 3.575C32.268 49.336 31.897 50 32.332 50c.237 0 1.632-1.575 3.1-3.5s2.305-3.5 1.859-3.5c-.445 0-1.481 1.009-2.3 2.242m8.676-.575c-.367.366-.667 1.131-.667 1.7 0 .626.466.567 1.183-.15.651-.651.951-1.416.667-1.7s-.817-.217-1.183.15M156 45.378c0 .207.787.995 1.75 1.75 1.586 1.243 1.621 1.208.378-.378-1.307-1.666-2.128-2.195-2.128-1.372M37.278 47.25a26 26 0 0 0-1.674 2.489c-1.19 2.082 1.817.418 3.176-1.758 1.344-2.152.075-2.77-1.502-.731m1.865 2.893c-.705 1.128-1.062 2.271-.793 2.54.268.269 1.011-.489 1.65-1.683 1.511-2.824.809-3.526-.857-.857m92.67 28.54c.721.289 1.584.253 1.916-.079s-.258-.568-1.312-.525c-1.165.048-1.402.285-.604.604m-18.862 8.593c.487 4.12.508 4.141.847.847.191-1.858-.033-3.758-.499-4.224s-.622 1.054-.348 3.377m-46.236-1.58c-1.293.336-.39 1.16 3.274 2.986 4.209 2.097 5.322 2.305 6.612 1.234 1.274-1.058 1.718-1.031 2.484.148 2.476 3.811 2.222 10.936-.39 10.936-.696 0-1.266.875-1.266 1.945 0 1.471.313 1.684 1.285.877.958-.795 1.286-.653 1.286.556 0 .892.45 1.622 1 1.622s1 .477 1 1.059-.45.781-1 .441c-1.325-.819-1.286.814.051 2.151 1.562 1.562 5.853.398 7.096-1.925.911-1.702.825-1.924-.531-1.378-.889.359-2.403.914-3.366 1.234-1.667.554-1.667.513 0-.861 2.146-1.768 2.234-2.721.25-2.721-.825 0-1.447-.338-1.382-.75s.035-.975-.068-1.25c-.942-2.513-.694-6.895.493-8.705 1.635-2.496 1.942-4.713.533-3.842-.509.314-3.051-.559-5.649-1.941-4.472-2.377-7.654-2.871-11.712-1.816m30.035.374c-.963.566-1.698 2.02-1.634 3.23.067 1.262.291 1.561.526.7.287-1.048 1.902-1.545 5.356-1.65 2.8-.085 5.573-.778 6.393-1.598 1.265-1.265.792-1.465-3.721-1.58-2.844-.072-5.957.332-6.92.898m26.366 3.211q.115 3.228.616 1.219c.275-1.1.935-2.275 1.468-2.611s.255-.884-.616-1.218c-1.255-.482-1.56.06-1.468 2.61m-62.488.365c-3.283 3.54-2.55 5.528 1.478 4.008 2.591-.978 3.685-.754 8.419 1.725 7.036 3.684 9.953 2.636 7.858-2.823-.458-1.195-.951-1.329-1.921-.525-.965.801-2.591.431-6.254-1.426l-4.95-2.508-2.303 2.451C61.688 91.897 60.196 93 59.639 93s.28-1.35 1.861-3 2.583-3 2.228-3c-.356 0-1.751 1.191-3.1 2.646m29.68-.692c-1.932 1.178-3.135 2.691-3.049 3.834.133 1.77.314 1.79 2.868.324 1.5-.86 2.922-2.588 3.161-3.838s.385-2.272.323-2.27c-.061.002-1.547.879-3.303 1.95m17.885 5.796c2.478 2.885 3.227 4.557 1.834 4.092-.689-.229-2.731 1.062-4.539 2.871-2.38 2.379-4.213 3.297-6.638 3.322l-3.35.036L98 106.5c2.948 1.685 7 1.945 7 .449 0-.578 1.575-1.709 3.5-2.513 3.088-1.291 3.5-1.89 3.5-5.089 0-2.281-.649-4.119-1.75-4.955-2.525-1.917-3.817-1.692-2.057.358m-64.589 1.405c-1.601 2.286-1.026 4.42 1.829 6.789 3.909 3.245 6.565-3.825 2.738-7.289-2.357-2.133-2.753-2.09-4.567.5m80.591.345c.02 1.65.244 2.204.498 1.231s.237-2.323-.037-3-.481.119-.461 1.769M98 96c0 .55.477 1 1.059 1s.781-.45.441-1-.816-1-1.059-1-.441.45-.441 1m-38.882 1.75c.436 2.757-.333 5.25-1.618 5.25-3.377 0 .16 4.682 5.75 7.611 2.17 1.137 2.733 2.12 2.668 4.665l-.081 3.224-1.37-3.124c-.754-1.719-2.09-3.401-2.971-3.739-1.831-.703-1.458.164 2.202 5.113 2.932 3.964 3.784 4.046 5.22.5a169 169 0 0 1 2.558-5.896c1.39-3.026 1.364-3.125-.672-2.593-1.445.378-1.89.187-1.401-.603.431-.699.059-1.158-.94-1.158-.91 0-3.074-.787-4.809-1.75a266 266 0 0 0-3.485-1.914c-.182-.09 1.123-1.553 2.899-3.25L66.297 97h-3.649c-2.006 0-3.595.338-3.53.75m7.132 2.47c-1.237.597-2.25 1.676-2.25 2.398 0 1.554 3.121 3.395 5.684 3.352 1.716-.029 1.719-.087.06-1.053-1.245-.725-1.577-1.735-1.141-3.47.688-2.743.738-2.717-2.353-1.227m-16.845 5.935c-.472.763-.271.88.592.347.823-.509 1.806-.125 2.655 1.036.741 1.015 1.348 1.398 1.348.853 0-1.159-2.067-3.391-3.141-3.391-.408 0-1.062.52-1.454 1.155m47.678 3.21c.23.2 1.542.949 2.917 1.663 2.287 1.189 2.383 1.158 1.128-.364-.755-.915-2.068-1.664-2.917-1.664s-1.357.164-1.128.365m-10.524 5.855c-1.439 2.053-1.799 2.12-4.807.886-5.821-2.389-8.951-2.555-10.415-.552-2.459 3.363-1.603 3.954 5.412 3.739 6.629-.204 9.321-.615 12.822-1.959 1.2-.46 1.528-.303 1.034.496-.398.644-.273 1.17.277 1.17s1.278-.45 1.618-1 .093-1-.548-1-.921-.638-.622-1.417c.299-.78-.14-1.68-.975-2-2.116-.812-2.066-.834-3.796 1.637m24.254-1.537c.721.289 1.584.253 1.916-.079s-.258-.568-1.312-.525c-1.165.048-1.402.285-.604.604m-11.563 2.979c-1.741.703-1.566 2.338.25 2.338.825 0 1.5-.675 1.5-1.5s-.112-1.464-.25-1.421-.812.306-1.5.583m-5.791 3.405c-1.173 1.897.537 2.365 2.279.623 1.559-1.558 1.562-1.69.035-1.69-.91 0-1.952.48-2.314 1.067m-22.356 1.843c-1.211 1.051-1.777 2.173-1.257 2.495.519.321 1.202-.089 1.518-.911.315-.822 1.487-1.494 2.605-1.494S76 121.55 76 121c0-1.618-2.522-1.149-4.897.91M87 123c0 .55.675 1 1.5 1s1.5-.45 1.5-1-.675-1-1.5-1-1.5.45-1.5 1m-9 1.441c0 .857.45 1.559 1 1.559s1-.423 1-.941-.45-1.219-1-1.559-1 .084-1 .941m4.218-.287c.519 1.558 2.756 1.83 2.835.346.029-.55-.698-1.155-1.615-1.346-1.043-.215-1.5.159-1.22 1M70 127.059c0 .582-.45.781-1 .441-1.852-1.145-1.019 2.173 1.006 4.006 1.104.998 1.796 2.025 1.54 2.281-.827.828 2.414 6.121 4.399 7.183 3.361 1.799 16.055.793 16.055-1.272 0-.572.745-1.863 1.655-2.869C95.2 135.121 95.19 135 93.5 135c-1.725 0-1.728-.091-.063-1.93 1.679-1.856 1.662-1.909-.426-1.363-1.591.416-2.031 1.11-1.643 2.592.779 2.981-.936 5.469-3.581 5.194a148 148 0 0 0-4.11-.365c-2.678-.188-1.67-3.4 1.328-4.234l2.495-.695-2.782-.099c-4.157-.149-9.121-2.526-11.444-5.479-2.187-2.78-3.274-3.299-3.274-1.562m94.316 3.244c-1.169 2.308-2.612 5.772-3.207 7.697-.946 3.063-.908 3.274.309 1.69 1.688-2.198 3.015-.631 2.048 2.418l-.663 2.089 2.105-2.105c2.579-2.579 6.173-11.717 5.4-13.731-.411-1.071-1.086-.61-2.49 1.697-2.268 3.73-3.325 3.405-1.818-.558 1.639-4.312.671-3.85-1.684.803m-76.181-1.764c-1.85.804-4.55 1.513-6 1.577-1.909.084-2.118.249-.76.597 1.745.448 12.625-2.401 12.625-3.306 0-.799-2.553-.306-5.865 1.132m68.489 3c-.965 2.514-.681 3.163.498 1.136.584-1.004.851-2.036.593-2.293-.257-.258-.749.263-1.091 1.157m2.551 1.977c-.688 1.508-1.044 2.948-.793 3.199.678.679 2.804-3.656 2.395-4.884-.194-.582-.915.176-1.602 1.685M77.5 174c1.1.473 2.9.884 4 .914 1.651.046 1.738-.114.5-.914-.825-.533-2.625-.945-4-.914-2.29.05-2.332.127-.5.914m8.5 1.094c0 .498.9.906 2 .906s2-.173 2-.383-.9-.619-2-.907c-1.1-.287-2-.115-2 .384M77 177c.825.533 2.625.945 4 .914 2.29-.05 2.332-.127.5-.914-1.1-.473-2.9-.884-4-.914-1.651-.046-1.738.114-.5.914m8.75 1.662c.688.278 1.813.278 2.5 0 .688-.277.125-.504-1.25-.504s-1.937.227-1.25.504M75 179.796c0 1.036 5.998 2.54 6.826 1.711.772-.772-.02-1.208-3.576-1.97-1.883-.403-3.25-.294-3.25.259M85 182c0 .55.9 1 2 1s2-.45 2-1-.9-1-2-1-2 .45-2 1m-10 1.419c4.116 1.68 6.841 2.009 5.45.659-.523-.507-2.75-1.184-4.95-1.505l-4-.582zM84 185c0 .55.927 1 2.059 1s1.781-.45 1.441-1-1.266-1-2.059-1-1.441.45-1.441 1"/><path fill-opacity=".19" fill-rule="evenodd" d="M83 12.444C48.771 19.816 22.911 47.9 16.5 84.659c-8.953 51.344 25.638 100.624 73.02 104.029 9.013.648 26.246-1.036 34.335-3.356 28.88-8.28 50.509-31.969 58.738-64.332 2.731-10.74 2.518-33.381-.416-44.242-2.698-9.989-6.124-18.414-10.322-25.386C168.369 45.582 153.544 29 151.854 29c-.531 0 1.985 2.95 5.59 6.556 3.606 3.605 6.556 7.035 6.556 7.621s-3.037-2.221-6.75-6.239-6.643-7.655-6.513-8.082c.348-1.142-7.845-6.544-15.007-9.895-14.17-6.63-38.336-9.617-52.73-6.517m-3.5 2.966c-3.3.757-8.7 2.565-12 4.016C61.008 22.281 49 29.982 49 31.29c0 .443 2.034-.593 4.52-2.304C65.586 20.684 80.446 16.04 95 16.023c9.872-.012 13.561.646 23.283 4.157 7.588 2.74 6.829 3.241-1.33.878-8.574-2.483-14.301-3.431-13.568-2.245.319.518 2.726 1.477 5.348 2.131 5.084 1.27 16.555 6.102 15.941 6.715-.202.202-1.968-.302-3.925-1.119-1.957-.818-5.513-1.921-7.903-2.451-3.889-.863-4.142-.813-2.405.474 1.068.79 2.33 1.437 2.805 1.437 1.199 0 9.754 3.947 9.754 4.5 0 .248-1.154.012-2.565-.525-4.231-1.608-4.198-1.022.065 1.174 12.506 6.444 21.061 13.889 28.085 24.44 5.987 8.993 8.896 14.985 11.608 23.911 1.382 4.548 1.68 5.032 1.232 2-.325-2.2-1.454-6.573-2.508-9.718-2.122-6.331-2.445-8.716-.978-7.232.516.523 2.343 5 4.061 9.95s2.853 7.331 2.523 5.291c-.329-2.039-1.424-6.211-2.433-9.27s-1.465-5.79-1.012-6.069c1.603-.991 5.27 9.194 7.521 20.89l1.378 7.158-.528-6.164c-.291-3.391-1.411-9.347-2.489-13.238-2.234-8.062-2.239-8.098-1.161-8.098.858 0 2.632 4.468 4.964 12.5.799 2.75 1.777 11.75 2.174 20l.722 15 .157-12.5c.118-9.348-.361-14.896-1.9-22-1.131-5.225-2.208-10.493-2.394-11.708-.97-6.358-8.253-18.641-17.108-28.856-7.275-8.392-21.864-17.919-28.914-18.883-1.1-.15-4.475-1.056-7.5-2.013-7.436-2.351-28.355-2.999-36.5-1.13M78 19.571c-7.104 1.859-20.441 8.445-25.301 12.493-5.721 4.765-3.849 4.53 3.577-.45C64.028 26.416 76.27 21.506 84 20.496c3.025-.396 6.175-1.105 7-1.577 2.477-1.417-6.889-.947-13 .652m-1.5 4.316c-3.3.959-7.575 2.54-9.5 3.513-5.116 2.586-16 9.96-16 10.84 0 .416 2.187-.814 4.86-2.735 7.761-5.575 22.289-11.47 28.331-11.494 1.48-.006 2.969-.461 3.309-1.011.93-1.505-4.194-1.092-11 .887M152 34.5c1.866 1.925 3.617 3.5 3.892 3.5s-1.026-1.575-2.892-3.5-3.617-3.5-3.892-3.5 1.026 1.575 2.892 3.5M43.079 36.583c.048 1.165.285 1.402.604.605.289-.722.253-1.585-.079-1.917s-.568.258-.525 1.312m-3.412 2.084c-.367.366-.667 1.321-.667 2.122 0 1.181.283 1.221 1.5.211.825-.685 1.5-1.64 1.5-2.122 0-1.036-1.384-1.161-2.333-.211M44.5 40c.34.55.816 1 1.059 1s.441-.45.441-1-.477-1-1.059-1-.781.45-.441 1m30.968 1.771C51.669 49.857 35.729 73.248 36.142 99.48c.106 6.723.312 8.001.812 5.02.657-3.919.681-3.939 1.208-1 .393 2.188.579 1.563.688-2.307.423-14.976 5.18-21.461 11.877-16.193 1.399 1.1 2.871 2 3.272 2s1.508-2.039 2.459-4.53c2.226-5.827 10.177-13.977 16.274-16.681 13.458-5.966 37.107-.99 47.596 10.016 2.838 2.977 7.363 3.438 6.289.64-.68-1.773 4.771-3.657 6.263-2.165 1.702 1.702 4.366 1.804 3.729.143-.301-.783-.11-1.423.422-1.423.533 0 1.025.45 1.094 1s.181 1.427.25 1.95.688 1.512 1.375 2.2c1 1 1.25.998 1.25-.009 0-.692.45-.981 1-.641 1.386.857 1.26.113-.665-3.923-.915-1.92-2.009-3.278-2.431-3.018-.421.261-1.091-.053-1.489-.697-.452-.731-.291-.903.43-.457 2.703 1.67.4-2.94-5.04-10.087-13.193-17.336-36.744-24.543-57.337-17.547m-34.337.571c-.612.738-.821 1.634-.464 1.991.75.751 3.333-1.152 3.333-2.455 0-1.317-1.607-1.057-2.869.464M141 41.965c0 .53 1.012 1.496 2.25 2.145 2.238 1.175 2.24 1.17.345-.964-2.116-2.384-2.595-2.602-2.595-1.181M34.787 45.068c-2.925 3.873-10.682 17.975-9.039 16.432 2.259-2.12 12.278-17.922 11.963-18.867-.183-.548-1.498.548-2.924 2.435m99.326-1.674c1.249 1.726 1.179 1.833-.79 1.208-1.647-.522-2.316-.199-2.81 1.356-.356 1.123-1.119 2.042-1.695 2.042s1.751 2.991 5.171 6.647c3.419 3.656 6.652 7.895 7.184 9.42 1.04 2.981 3.827 4.792 3.827 2.485 0-.762-.53-1.562-1.177-1.778s-.846-.928-.441-1.583C144.274 61.747 147 61.603 147 63c0 .55.45 1 1 1 1.743 0 1.079-2.888-.91-3.952-1.216-.651-1.728-1.715-1.41-2.931.359-1.373-1.391-3.838-6.22-8.763-3.695-3.77-6.101-6.002-5.347-4.96m-91.098 1.578c-1.235 2.307.14 2.751 1.911.617.755-.91.817-1.63.173-2.028-.549-.339-1.487.296-2.084 1.411m-8.699 6.278c-5.08 8.216-6.773 11.626-6.106 12.294.301.3 1.809-1.611 3.351-4.249s4.071-6.55 5.621-8.695c2.93-4.055 3.456-5.6 1.908-5.6-.501 0-2.649 2.813-4.774 6.25m2.295 2.149c-3.732 5.622-5.996 10.55-5.209 11.337.252.252 1.407-1.402 2.567-3.674 1.159-2.273 2.509-3.884 3-3.581s1.218.025 1.616-.619c.478-.774.288-.902-.56-.377q-1.284.793-.821-.596c.254-.764.95-1.389 1.546-1.389s1.458-.41 1.917-.91c.492-.538.268-.583-.547-.111-.943.547-1.233.36-.916-.59.254-.764.988-1.389 1.629-1.389.642 0 1.167-.337 1.167-.75V49c0-2.317-2.033-.657-5.389 4.399M147.75 67.572C144.525 69.321 144.158 71 147 71c2.26 0 2.564 1.036.817 2.783-2 2-.173 2.453 3.09.765 3.659-1.892 3.925-3.097.86-3.899-1.769-.462-1.977-.839-1-1.816 2.847-2.847 1.186-3.541-3.017-1.261m-8.186 6.721c.376.986.935 1.541 1.243 1.233s.001-1.114-.683-1.793c-.988-.98-1.102-.865-.56.56m11.449 2.887c-3.099.889-3.298 1.139-1.785 2.245 1.296.947 1.424 1.523.537 2.41s-.699 1.169.785 1.18c1.592.013 1.68.187.479.946-2.367 1.497-.343 2.418 3.126 1.424 3.871-1.111 4.729-2.97 1.799-3.899-1.568-.498-1.856-.984-1.055-1.785 1.247-1.247 1.49-3.748.351-3.611-.412.05-2.319.54-4.237 1.09m-39.476 2.749c-1.633 3.158-4.274 4.493-6.896 3.487-.977-.375-1.641-.129-1.641.608 0 .858-1.082 1.062-3.522.666-1.938-.314-3.335-.261-3.105.119.621 1.028-1.592 2.666-3.873 2.867-1.901.167-1.911.11-.19-1.154 1.281-.941 1.467-1.542.638-2.054-.644-.398-1.521-.159-1.948.532-.443.716-1.321.92-2.043.474-.775-.48-1.016-.379-.623.258.354.573-.11 1.655-1.032 2.405-1.484 1.206-1.591 1.136-.934-.613.704-1.874.623-1.866-1.562.155L82.5 89.811l-3.472-2.406c-5.103-3.536-11.481-3.309-16.878.601-4.855 3.518-5.396 2.336-2.177-4.756 2.266-4.991 1.833-5.707-.605-1C57.482 85.889 56.463 97 58.014 97c.542 0 .986.477.986 1.059s-.563.721-1.25.308c-.955-.574-.947-.376.035.835 1.06 1.309 1.003 1.868-.328 3.199-1.984 1.984-1.122 7.125 1.693 10.099 1.041 1.1 3.266 3.575 4.943 5.5 1.802 2.068 3.249 3.021 3.535 2.33.267-.643 2.006-4.192 3.864-7.885 1.858-3.694 2.868-6.205 2.243-5.58-.624.624-1.585 1.135-2.135 1.135-.569 0-.495-.505.172-1.172.896-.896.675-1.426-.938-2.25-2.001-1.023-2.36-3.42-.415-2.772.506.169.338-.394-.372-1.25-1.725-2.078-2.637-1.966-5.247.644l-2.2 2.2 3.95 1.774c2.173.975 3.275 1.766 2.45 1.758s-2.996-.813-4.825-1.788l-3.324-1.773 3.074-3.291C65.616 98.27 67 96.581 67 96.327s-1.867-.319-4.149-.144c-2.866.219-4.297-.112-4.629-1.072-.277-.798-.033-1.112.573-.737.58.358 2.145.155 3.478-.452 2.038-.929 3.406-.608 8.615 2.021 3.405 1.719 6.624 2.859 7.152 2.532C79.279 97.71 79.253 92.94 78 91q-.969-1.5-.985-.25c-.023 1.889-3.474 1.501-7.434-.835l-3.534-2.085-3.273 2.296c-2.303 1.615-2.853 1.772-1.856.53 2.819-3.51 4.794-3.844 9.262-1.564 3.296 1.682 4.595 1.905 5.991 1.033 1.499-.936 2.027-.643 3.306 1.831 1.994 3.855 1.921 5.646-.319 7.886-2.115 2.115-3.759 6.892-1.829 5.315.772-.631 1.61-.48 2.46.443 1.025 1.112 1.031 1.4.028 1.4-.76 0-.45.812.782 2.043 1.626 1.626 2.548 1.852 4.513 1.104 2.911-1.106 5.803-4.147 3.945-4.147-.654 0-2.171.475-3.373 1.055-2.086 1.008-2.099.987-.281-.472 1.75-1.404 1.766-1.581.205-2.18-1.533-.588-1.5-.79.347-2.084C88.114 100.807 88.683 99 87 99c-.55 0-1 .675-1 1.5s-.675 1.5-1.5 1.5c-.918 0-1.5-.934-1.5-2.406 0-1.952.397-2.303 2.097-1.858 1.91.499 1.98.36.785-1.554-.939-1.503-1.533-1.757-2.082-.892-1.355 2.131-.907-.855.548-3.661.742-1.429 1.631-2.316 1.976-1.971s1.426.014 2.402-.735c1.003-.771.797-.262-.476 1.172-4.389 4.943-1.877 8.181 3.711 4.783 2.213-1.346 3.029-2.461 2.607-3.56-.503-1.313-.349-1.381.859-.378 2.349 1.949 11.998-.413 13.968-3.42 1.17-1.785 1.251-2.493.329-2.866-.673-.273-.211-.532 1.026-.575 2.857-.1 2.936 2.235.169 5.002-1.974 1.974-1.993 2.18-.367 3.977.944 1.042 2.105 1.654 2.582 1.359 1.332-.823 1.026-9.847-.384-11.339-1.033-1.094-.842-1.112 1.107-.108 1.916.988 2.247 1.758 1.775 4.122-.957 4.782 2.281 3.15 3.843-1.936.552-1.799.072-3.02-2.065-5.25-3.465-3.617-3.992-3.615-5.873.023m15.229.997c-3.193 2.86-3.262 3.099-3.084 10.632.1 4.239.55 8.012 1 8.386s2.393-.136 4.318-1.131 2.938-1.811 2.25-1.811c-.722-.001-1.25-1.269-1.25-3.002q0-3-1.5-3c-.833 0-1.5-.889-1.5-2 0-1.1-.538-2-1.196-2s.33-1.575 2.196-3.5c2.405-2.481 4.281-3.504 6.446-3.515 2.34-.012 2.703-.242 1.554-.985-2.68-1.732-5.901-1.06-9.234 1.926m6.209 4.604c-.926 1.116-.99 2.141-.237 3.794.568 1.246.902 3.454.742 4.906-.271 2.473-.133 2.569 2.19 1.511 2.238-1.02 5.33-5.357 5.33-7.476 0-.759-5.163-4.265-6.282-4.265-.26 0-1.044.688-1.743 1.53m32.22.97c.02 1.65.244 2.204.498 1.231s.237-2.323-.037-3-.481.119-.461 1.769m-120.637.407c-.309.498.34.671 1.441.383 2.335-.611 2.63-1.29.56-1.29-.793 0-1.693.408-2.001.907m109.692.887c-2.004.205-3.25.884-3.25 1.769 0 .791.398 1.437.883 1.437.486 0 1.128.936 1.427 2.079.868 3.317 5.101 2.204 5.518-1.451.406-3.553-.436-4.259-4.578-3.834m7.945 1.706c.02 1.65.244 2.204.498 1.231s.237-2.323-.037-3-.481.119-.461 1.769m-19.116 2.083c.048 1.165.285 1.402.604.605.289-.722.253-1.585-.079-1.917s-.568.258-.525 1.312M155 91c0 .55.45 1 1 1s1-.45 1-1-.45-1-1-1-1 .45-1 1m11.355 8.5c-.003 4.95.166 7.101.376 4.78.209-2.321.212-6.371.005-9-.206-2.629-.378-.73-.381 4.22m-59.654-5.333 2.202 2.359-1.998 3.155c-2.39 3.775-5.834 5.131-11.905 4.688-3.484-.254-4.1-.093-2.729.713.974.572 2.549 1.198 3.5 1.391.951.192 2.935.816 4.409 1.387 2.12.821 3.168.682 5.012-.661 1.282-.935 3.199-2.181 4.26-2.77 1.061-.59 2.346-2.324 2.856-3.854 1.144-3.432-1.718-7.889-5.408-8.42l-2.4-.346zm9.408.583c-1.55 1.284-2.155 3.015-2.273 6.5-.088 2.612-.528 4.75-.977 4.75s-.304 1.125.323 2.5c1.46 3.204 4.226 3.183 7.465-.056 1.904-1.904 2.372-3.117 1.833-4.75-.398-1.207-.939-4.106-1.202-6.444-.525-4.658-1.813-5.28-5.169-2.5m54.219 4.75c.005 3.85.185 5.302.402 3.228.216-2.075.213-5.225-.008-7s-.398-.078-.394 3.772M43.2 95.2c-1.837 1.837-1.44 4.41 1.142 7.412 2.742 3.187 5.278 2.75 6.238-1.076 1.248-4.97-4.13-9.586-7.38-6.336m100.975 3.366c-.096 2.787-.656 7.668-1.244 10.848s-.858 5.992-.601 6.249c.873.874 2.802-13.339 2.41-17.762l-.391-4.401zm1.904-2.983c.048 1.165.285 1.402.604.605.289-.722.253-1.585-.079-1.917s-.568.258-.525 1.312m-48.536.348c-.683 1.105.894 2.299 1.818 1.375.95-.951.773-2.306-.302-2.306-.518 0-1.2.419-1.516.931m5.254 2.075c-2.026 3.559-5.95 4.042-8.085.993-1.401-2-1.401-2-3.217.007-.999 1.103-1.631 2.161-1.406 2.35 1.377 1.154 9.507 2.367 11.29 1.685 3.083-1.179 5.957-4.724 5.274-6.504-.876-2.283-1.955-1.872-3.856 1.469M141.158 97c0 1.375.227 1.938.504 1.25.278-.687.278-1.812 0-2.5-.277-.687-.504-.125-.504 1.25m-1.858 5c0 3.025.187 4.263.416 2.75s.229-3.987 0-5.5-.416-.275-.416 2.75m12.356-2.794c-.665 2.545.096 3.814 1.207 2.015.581-.939 1.203-.882 2.696.247C158.39 103.609 159 103.349 159 100c0-1.65-.45-3-1-3s-1 .466-1 1.035c0 .714-.601.714-1.934 0-2.619-1.401-2.749-1.356-3.41 1.171m-10.37 5.294c.008 2.75.202 3.756.432 2.236s.223-3.77-.014-5-.425.014-.418 2.764m-92.074.75c-.743.9-.348 2.091 1.411 4.25 1.667 2.047 2.224 2.365 1.754 1-.378-1.1-1.123-2.562-1.655-3.25-.532-.687-.624-1.25-.205-1.25s1.36.787 2.091 1.75c1.118 1.473 1.333 1.504 1.36.2.032-1.57-1.803-3.95-3.046-3.95-.372 0-1.142.563-1.71 1.25m-6.133 2.333c.048 1.165.285 1.402.604.605.289-.722.253-1.585-.079-1.917s-.568.258-.525 1.312m62.444.391c-1.617 1.788-1.683 2.359-.518 4.536.733 1.369 2.044 2.526 2.914 2.569 1.033.052 1.147.254.331.583-.687.278-1.25 1.123-1.25 1.879 0 .755-1.534 2.598-3.408 4.093-2.837 2.264-3.357 3.277-3.1 6.043.175 1.881-.154 3.323-.758 3.323-.587 0-.766.301-.398.669.367.368-.037 1.448-.899 2.401-1.057 1.168-1.215 1.949-.486 2.4.595.367.823 1.087.506 1.599-.874 1.415.084 1.134 3.986-1.168 4.117-2.429 4.267-2.948 1.557-5.401-2.508-2.27-2.523-3.716-.063-5.943 2.686-2.431 4.015-1.204 3.477 3.211l-.455 3.732 1.423-4.276c.782-2.352 2.142-5.374 3.02-6.715 2.071-3.16 2.023-5.162-.152-6.429-1.579-.919-1.587-1.022-.083-1.05.916-.016 1.861-.592 2.098-1.28.506-1.465-1.241-5.75-2.344-5.75-.416 0-1.385-.241-2.152-.535s-2.228.385-3.246 1.509M60 109.891c1.375 1.135 2.8 2.075 3.167 2.087.366.012 1.118 1.259 1.671 2.772.88 2.41 1.014 2.48 1.083.568.047-1.311-1.018-2.942-2.671-4.086-4.164-2.883-6.07-3.67-3.25-1.341m35.566.002c-.304.492.682 1.203 2.19 1.582l2.742.688-2.499 1.366c-2.382 1.303-2.277 1.358 2.244 1.169 2.609-.109 4.746-.503 4.75-.875.004-.373-1.179-1.611-2.628-2.75-2.754-2.167-5.857-2.705-6.799-1.18m42.513.69c.048 1.165.285 1.402.604.605.289-.722.253-1.585-.079-1.917s-.568.258-.525 1.312m7 0c.048 1.165.285 1.402.604.605.289-.722.253-1.585-.079-1.917s-.568.258-.525 1.312m17.079.417c0 1.375.227 1.938.504 1.25.278-.687.278-1.812 0-2.5-.277-.687-.504-.125-.504 1.25m7.037.5c.02 1.65.244 2.204.498 1.231s.237-2.323-.037-3-.481.119-.461 1.769m-30.001 3.064c-.692 2.588-1.048 4.915-.792 5.171.613.613 2.813-7.589 2.383-8.88-.183-.548-.899 1.121-1.591 3.709m-52.314-.444c-1.863 1.863-2.562 1.991-5.75 1.05-8.697-2.566-9.086-2.52-10.669 1.269-1.888 4.52-1.847 4.838.473 3.596 3.202-1.713 3.508-1.17.62 1.101-1.773 1.395-2.547 2.783-2.229 4 .268 1.025.08 1.864-.419 1.864-1.469 0-1.036 3.648.594 5 .825.685 1.5 1.83 1.5 2.546s1.165 2.685 2.589 4.377c2.456 2.919 2.957 3.075 9.75 3.032 3.939-.025 8.511-.663 10.161-1.419 2.166-.992 2.479-1.396 1.128-1.455-1.59-.069-1.675-.319-.565-1.657 1.082-1.303 1.069-1.724-.074-2.431-1.1-.68-.883-1.27 1.064-2.89 2.832-2.356 2.476-2.532-1.981-.978-2.788.972-3.14 1.468-2.591 3.655.402 1.601.154 2.835-.673 3.36-1.519.963-6.198 1.137-7.072.262-1.246-1.245.575-3.402 2.871-3.402 1.316 0 2.393-.45 2.393-1s-1.619-1-3.599-1c-4.604 0-9.831-2.481-11.909-5.653-2.383-3.636-.614-4.994 7.27-5.584 7.926-.593 14.778-3.407 13.13-5.394-.586-.705-.777-1.746-.426-2.314.394-.637-.019-.78-1.078-.374-1.164.447-1.484.283-.993-.511 1.218-1.971-1.266-1.299-3.515.95m78.278-.12c0 1.375.227 1.938.504 1.25.278-.687.278-1.812 0-2.5-.277-.687-.504-.125-.504 1.25m-49.658 0c-1.1.473-1.48.891-.844.93.658.04.93.939.63 2.085-.408 1.561-.156 1.872 1.121 1.382 1.489-.571 3.593-3.4 3.593-4.831 0-.791-2.127-.586-4.5.434m21.579.583c.048 1.165.285 1.402.604.605.289-.722.253-1.585-.079-1.917s-.568.258-.525 1.312M172 116.441c0 1.343-.43 2.707-.956 3.032s-.703 1.252-.393 2.059c.352.918-.043 1.468-1.056 1.468-1.272 0-1.536-.803-1.234-3.75.212-2.062.186-2.963-.058-2-.518 2.051-1.439 2.214-3.103.55-.933-.933-1.2-.822-1.2.5 0 .935.506 1.587 1.125 1.45.619-.138 1.352.376 1.63 1.141.458 1.26-1.527 1.185-5.736-.218-.286-.095-.665.277-.844.827s1.058 1.403 2.75 1.895 3.075 1.31 3.075 1.817c0 .979-3.795.103-5.534-1.277-1.748-1.388-3.026.281-5.927 7.733-1.606 4.124-5.447 10.706-9.046 15.5-19.9 26.506-52.903 34.621-81.844 20.126-2.668-1.337-4.548-1.939-4.177-1.34 1.101 1.783 12.079 6.952 18.271 8.604 5.593 1.492 22.35 2.041 28.078.92l2.679-.524-2.5 1.152c-3.88 1.789-20.517 1.523-28-.448-3.575-.941-9.762-3.252-13.75-5.135S57 167.505 57 168.001c0 1.603 16.303 9.006 23 10.444 3.575.768 5.462 1.432 4.193 1.476-4.1.141-11.496-2.089-20.101-6.059-4.624-2.134-8.596-3.691-8.827-3.46-.879.879 7.557 5.763 15.235 8.822 7.777 3.098 8.438 3.188 23.727 3.231 15.412.044 16.875.64 4.961 2.023-10.723 1.245-28.998-2.847-39.88-8.929-2.45-1.37-4.274-1.947-4.052-1.282.682 2.048 14.814 8.588 23.154 10.715 16.714 4.264 35.996 1.473 54.09-7.828 8.637-4.44 25.396-20.678 30.606-29.654 4.754-8.193 9.265-19.091 8.448-20.413-.37-.598-.308-1.088.137-1.088.445-.001.897-2.701 1.004-6s-.006-5.999-.25-5.999c-.245 0-.445 1.098-.445 2.441m-11 .059c0 .825.436 1.5.969 1.5s.709-.675.393-1.5c-.317-.825-.753-1.5-.969-1.5s-.393.675-.393 1.5m-62.333.167c-1.117 1.116-.747 2.333.711 2.333.757 0 1.937-.675 2.622-1.5 1.034-1.246.914-1.5-.711-1.5-1.076 0-2.256.3-2.622.667m42.412 1.131c-.043.714-.976 3.155-2.072 5.424s-1.783 4.336-1.525 4.593c.721.722 4.641-8.982 4.128-10.221-.274-.662-.483-.582-.531.204M56.45 118.94c-.522.517-3.2 1.111-5.95 1.32l-5 .38 5.128.18c3.514.123 5.519-.292 6.372-1.32 1.367-1.647.964-2.058-.55-.56m26.55.61c-3.051.874-3.695 1.3-2 1.324 1.375.02 3.85-.582 5.5-1.338 3.692-1.691 2.434-1.686-3.5.014m10.54-.203c-1.332.974-1.51 1.553-.644 2.089 1.687 1.042 4.104-.079 4.104-1.905 0-1.887-1.054-1.943-3.46-.184m54.374.739c-2.139 2.139-2.152 4.001-.033 4.708.764.254 1.131-.294.937-1.402-.192-1.098.376-1.962 1.432-2.179 1.318-.271 1.75.297 1.75 2.297 0 1.681.459 2.504 1.25 2.24.688-.229 1.25-1.678 1.25-3.219 0-3.915-3.731-5.3-6.586-2.445m-13.29 1.453c-.965 2.514-.681 3.163.498 1.136.584-1.004.851-2.036.593-2.293-.257-.258-.749.263-1.091 1.157m-94.874.123c.688.278 1.813.278 2.5 0 .688-.277.125-.504-1.25-.504s-1.937.227-1.25.504m48.5.056c-1.411.506-1.726 3.282-.372 3.282 1.31 0 3.343-2.751 2.421-3.276-.44-.25-1.361-.252-2.049-.006m46.952 3.804c-1.197 2.463-1.966 4.478-1.709 4.478.677 0 4.718-8.123 4.265-8.575-.209-.21-1.36 1.634-2.556 4.097m-12.952-2.806c1.513.229 3.987.229 5.5 0s.275-.416-2.75-.416-4.263.187-2.75.416M74 124c0 .55.45 1 1 1s1-.45 1-1-.45-1-1-1-1 .45-1 1m3.667-.333c-1.151 1.15-.729 2.333.833 2.333.825 0 1.5-.675 1.5-1.5 0-1.562-1.183-1.984-2.333-.833m4.333.906c0 .932.68 1.442 1.667 1.25 2.509-.486 2.853-2.823.416-2.823-1.228 0-2.083.646-2.083 1.573m-22.076 2.177L57.5 129.5l2.75-2.424c2.57-2.266 3.209-3.076 2.424-3.076-.179 0-1.416 1.237-2.75 2.75m-16.66-1.032c1.52.229 3.77.223 5-.014s-.014-.425-2.764-.418-3.756.202-2.236.432M167.5 126c.34.55 1.041 1 1.559 1s.941-.45.941-1-.702-1-1.559-1-1.281.45-.941 1m-77.637 1.47c-.259.259-2.921 1.129-5.917 1.934-4.596 1.236-4.941 1.475-2.21 1.53 3.949.081 12.264-2.049 12.264-3.141 0-.848-3.351-1.109-4.137-.323m30.387.219c.963.252 2.537.252 3.5 0 .963-.251.175-.457-1.75-.457s-2.713.206-1.75.457m24.75.252c0 .518.45 1.219 1 1.559 1.691 1.045 1.109 2.5-1 2.5-2.974 0-2.421 1.583 1.056 3.023 2.294.95 3.34.981 4.2.121.859-.859.845-1.144-.056-1.144-.66 0-1.2-.695-1.2-1.544 0-.885.702-1.418 1.646-1.25 3.074.549 2.462-1.973-.75-3.092-3.899-1.36-4.896-1.395-4.896-.173M62 130.5c-1.813 1.929-3.349 2.5-6.733 2.5-2.412 0-4.162.361-3.889.803s2.513.554 4.979.25c3.309-.408 5.045-1.273 6.635-3.303 2.688-3.433 2.13-3.573-.992-.25m52.033-1.905c-.048 1.585 3.342 4.405 5.296 4.405.919 0 1.671-.436 1.671-.969s-.676-.709-1.502-.392c-.879.337-2.318-.402-3.467-1.781-1.08-1.297-1.979-1.865-1.998-1.263m-70.512 1.259c.626.626 10.769.183 11.456-.501.263-.261-2.326-.373-5.752-.249-3.427.123-5.993.461-5.704.75m91.679.346c-.66.66-1.2 1.637-1.2 2.171s-.787 1.899-1.75 3.033c-1.677 1.976-1.675 2.003.066.652 1.613-1.252 5.24-7.056 4.41-7.056-.179 0-.866.54-1.526 1.2m-8.2.869c-2.004.382-2.645.76-1.5.883 1.1.118 3.032.328 4.292.467 2.488.275 3.976-.956 1.952-1.614-.684-.222-2.819-.103-4.744.264m10.459-.002c-.363.586-.445 1.281-.183 1.543s.743-.218 1.069-1.067c.676-1.762.1-2.072-.886-.476m-90.446 2.904c-1.179.745-1.037.907.68.777 1.193-.09 1.948-.52 1.679-.956-.599-.969-.537-.973-2.359.179m76.928 3.306c-1.957 1.773-4.882 4.252-6.5 5.51l-2.941 2.286-.608-3.786-.608-3.787-.142 4.333c-.171 5.225-2.321 5.283-3.26.088-.582-3.218-.627-3.147-.75 1.197l-.132 4.618-5.816 1.632c-9.96 2.795-24.768 1.796-26.208-1.768-.711-1.758-.86-1.809-.913-.315-.051 1.451-.425 1.592-1.997.75-2.441-1.306-3.359-1.319-2.566-.035.34.55.029 1.007-.691 1.015-.962.012-.911.297.191 1.076 1.23.87 1.255 1.159.137 1.606-1.151.46-1.151.694 0 1.5 1.108.777 1.083.879-.137.546-.984-.268-1.528-1.737-1.581-4.27-.045-2.123-.583-4.028-1.196-4.232-.707-.236-.938.602-.632 2.289.34 1.875.102 2.534-.804 2.23-.708-.238-1.292-1.176-1.298-2.084s-1.026-2.364-2.266-3.233c-1.241-.869-1.954-2.069-1.585-2.666.415-.672.202-.796-.559-.326-.918.568-.737 1.303.716 2.904 2.014 2.221 2.579 5.645.931 5.645-.517 0-.694-.642-.393-1.427.338-.879-.868-2.446-3.143-4.085l-3.69-2.659 2.865 2.637c3.335 3.068 2.738 4.802-.673 1.955-1.265-1.057-.279-.009 2.191 2.329 2.471 2.338 5.06 4.25 5.755 4.25.694 0 1.622.563 2.062 1.252 1.703 2.665 9.931 5.45 18.782 6.356 13.965 1.431 29.488-4.605 40.953-15.924 4.374-4.318 4.96-5.074 1.539-1.984-8.262 7.46-11.23 8.462-3.873 1.306 5.065-4.925 5.357-5.346 1.399-2.017-4.882 4.107-8.5 6.513-8.5 5.653 0-.236 2.829-3.29 6.287-6.786s4.229-4.444 1.715-2.106c-6.075 5.649-7.604 5.458-2.002-.25 5.128-5.225 5.096-5.891-.059-1.223m17.295-.483c.409 1.564.132 2.206-.952 2.206-1.208 0-1.281.298-.349 1.421.968 1.167.81 1.325-.878.884-2.892-.757-2.559.202.936 2.69 3.465 2.468 5.562 1.91 3.975-1.056-.905-1.689-.701-1.939 1.58-1.939 3.354 0 2.82-1.532-1.486-4.257l-3.403-2.155zM87.5 137c-.34.55-.141 1 .441 1S89 137.55 89 137s-.198-1-.441-1-.719.45-1.059 1m30.5 7.059c0 .582.45.781 1 .441s1-.816 1-1.059-.45-.441-1-.441-1 .477-1 1.059m16.933.156c-1.626 6.867.674 10.623 4.289 7.007 1.799-1.799 1.915-2.352.778-3.722-1.265-1.525-4.923-3.896-5.067-3.285m1.067 4.726c0 .518.45 1.219 1 1.559s1-.084 1-.941-.45-1.559-1-1.559-1 .423-1 .941M73.275 151c-.096 1.275.461 1.994 1.537 1.985 1.455-.014 1.481-.149.188-.985-1.09-.704-1.142-.974-.191-.985.72-.008 1.031-.465.691-1.015-1.004-1.624-2.063-1.148-2.225 1M65 150.924c0 .474.675 1.121 1.5 1.438s1.5.187 1.5-.286c0-.474-.675-1.121-1.5-1.438s-1.5-.187-1.5.286m12 .17c0 .498.9.906 2 .906s2-.173 2-.383-.9-.619-2-.907c-1.1-.287-2-.115-2 .384m50 .406c-1.04 1.253-.896 1.5.878 1.5 1.597 0 2.122.619 2.122 2.5 0 2.809 2.069 3.326 4 1 1.019-1.227.953-1.5-.359-1.5-.881 0-1.885-1.125-2.23-2.5-.707-2.817-2.555-3.236-4.411-1M108 162c0 .55.9 1 2 1q2 0 2 2c0 1.111-.667 2-1.5 2-.825 0-1.5.48-1.5 1.066s1.237.924 2.75.75c5.116-.588 3.847-7.816-1.372-7.816-1.308 0-2.378.45-2.378 1m-9 2.5c0 .825.45 1.5 1 1.5s1-.675 1-1.5-.45-1.5-1-1.5-1 .675-1 1.5m-5 .55c0 1.171 2.843 6.95 3.419 6.95.203 0-.089-1.8-.647-4-.915-3.603-2.772-5.58-2.772-2.95m-4.985 4.7c-.008 1.238.435 2.25.985 2.25 1.253 0 1.253-1.061 0-3-.784-1.213-.972-1.069-.985.75m10.985.333c0 2.437 2.337 2.093 2.823-.416.192-.987-.318-1.667-1.25-1.667-.927 0-1.573.855-1.573 2.083M93.5 180l-7 .647 6.5.119c3.575.065 8.3-.254 10.5-.709l4-.827-3.5.062c-1.925.033-6.65.352-10.5.708"/><path fill-opacity=".458" fill-rule="evenodd" d="M84.5 12.484C33.556 21.968 3.077 77.739 20.043 130.428c10.425 32.376 36.657 54.643 68.457 58.11 8.488.925 28.579-1.277 37.48-4.108 22.299-7.092 41.507-24.916 51.07-47.388 5.405-12.701 7.352-22.927 7.244-38.042-.115-16.14-2.777-28.04-9.075-40.564-3.932-7.818-11.545-18.833-14.893-21.547-.942-.764.698 1.761 3.646 5.611 6.248 8.161 14.174 24.202 16.553 33.5 2.013 7.867 3.142 22.349 1.549 19.86-.577-.902-1.517-4.93-2.087-8.952-1.605-11.316-3.763-18.618-8.395-28.408-3.886-8.214-13.13-21.206-18.416-25.884-1.171-1.036-1.907-2.242-1.636-2.681.271-.438-.034-1.122-.678-1.52-.731-.452-.903-.291-.457.43.392.635.168 1.155-.498 1.155s1.237 2.588 4.229 5.75 6.475 7.325 7.738 9.25c2.107 3.209 2.021 3.167-1.025-.5-1.828-2.2-5.719-6.544-8.647-9.654-3.321-3.527-4.906-5.911-4.214-6.339 2.921-1.805-9.116-8.96-21.66-12.875-14.307-4.464-28.87-5.561-41.828-3.148m.808 1.606C68.88 16.573 54.687 24.081 42 37c-16.621 16.926-25.223 39.103-24.824 64l.136 8.5.743-11.5c.409-6.325 1.693-15.1 2.854-19.5C22.884 71.018 30.22 54 31.471 54c.309 0-.629 2.352-2.086 5.228-6.433 12.693-9.543 26.163-9.508 41.173.014 5.996.387 11.263.829 11.705.443.443.639-2.843.437-7.302-.633-13.92 2.714-29.634 8.934-41.956C31.7 59.632 33.254 57 33.529 57s-.902 2.777-2.616 6.172c-5.981 11.848-8.457 25.55-7.83 43.328.179 5.081.436 3.299.937-6.5.734-14.381 2.594-24.162 4.15-21.833.559.836.639.252.215-1.566-.449-1.923-.322-2.68.376-2.249.668.413.846-.138.488-1.507-.384-1.468-.198-1.931.582-1.449.726.448.942.176.589-.743-.702-1.83 4.331-11.925 5.565-11.162 1.072.662 3.162-2.841 2.779-4.655-.145-.685.241-1.266.858-1.291.618-.025 3.317-2.485 5.999-5.468s7.054-7.145 9.717-9.25c5.236-4.139 5.43-5.166.316-1.671-1.735 1.185-2.479 1.438-1.654.56 2.992-3.181 13.668-8.839 21-11.13 9.648-3.013 17.668-3.954 25.359-2.975 5.745.731 5.916.825 2.641 1.454-3.449.662-3.456.674-.5.817 1.65.079 6.6 1.4 11 2.935 22.557 7.866 38.368 25.739 45.722 51.683 1.844 6.508 2.268 10.503 2.273 21.417.003 9.186-.356 13.538-1.139 13.798-.629.21-.914 1.259-.633 2.333.301 1.151.008 1.952-.713 1.952-.673 0-.976.646-.673 1.435.303.79.238 1.577-.143 1.75-.382.173-1.961 3.433-3.509 7.244-6.563 16.153-18.882 29.626-33.805 36.973-10.587 5.213-16.564 6.605-28.266 6.583-13.797-.025-27.649-4.611-38.412-12.716-7.564-5.697-7.822-5.843-5.282-2.994 1.331 1.494 4.818 4.367 7.75 6.386 2.931 2.019 5.33 3.85 5.33 4.069 0 .998-8.366-4.457-12.849-8.379-2.735-2.393-5.33-4.351-5.765-4.351-1.453 0 7.044 8.05 12.364 11.716 2.888 1.989 5.25 3.795 5.25 4.014 0 1.318-9.327-5.202-15.176-10.609-3.795-3.508-7.105-6.173-7.356-5.922-.943.942 12.874 13.89 18.585 17.414 3.271 2.019 5.947 3.86 5.947 4.092 0 1.242-11.209-5.974-17.843-11.487l-7.657-6.363 8.324 8.086c13.84 13.446 30.002 20.015 49.317 20.044 11.951.019 26.288-3.455 36.073-8.741 17.596-9.504 33.326-27.969 39.762-46.674 1.037-3.015 2.65-10.055 3.585-15.645 2.017-12.064 1.543-31.043-1.008-40.364-6.942-25.358-23.116-45.442-44.747-55.565-10.427-4.879-31.429-7.731-43.498-5.906m1.192 2.536c-1.1.216-4.475.885-7.5 1.484-10.863 2.155-28.47 12.16-36 20.458-3.181 3.505-.629 2.065 4.158-2.347 12.58-11.596 26.822-17.593 45.411-19.124 9.051-.745 9.311-.819 2.931-.841-3.85-.013-7.9.153-9 .37m17.769 1.067c.973.254 2.323.237 3-.037s-.119-.481-1.769-.461-2.204.244-1.231.498m-23.982 3.816c-3.417.743-7.017 1.866-8 2.496-1.634 1.048-1.616 1.089.213.484 7.491-2.478 16.866-3.649 26-3.248 5.5.242 8.65.115 7-.282-4.941-1.19-18.575-.892-25.213.55m5.1 3.49c-8.458 1.239-26.575 8.146-25.139 9.583.247.246 2.429-.633 4.85-1.954 6.331-3.454 13.212-5.475 23.969-7.04 5.188-.755 7.633-1.365 5.433-1.356-2.2.01-6.301.355-9.113.767M143 24.35c0 .231 1.18 1.193 2.623 2.139s2.318 1.224 1.944.62c-.713-1.154-4.567-3.483-4.567-2.759m-81.26 4.313c-3.717 1.983-9.372 6.133-12.566 9.221s-4.202 4.222-2.241 2.518c5.826-5.061 10.606-8.371 17.274-11.965 3.461-1.865 5.843-3.389 5.293-3.385-.55.003-4.042 1.628-7.76 3.611m46.073-2.98c.721.289 1.584.253 1.916-.079s-.258-.568-1.312-.525c-1.165.048-1.402.285-.604.604m-21.218 2.165c-3.381.565-4.075 1.146-5.177 4.343-1.084 3.145-1.061 3.609.155 3.143.804-.309 1.426.044 1.425.809-.002 1.044 1.598 1.281 6.942 1.027l6.945-.33.308-3.17c.254-2.622.782-3.225 3.057-3.486 1.539-.177 2.75.172 2.75.793 0 .611-.771.978-1.714.817-.986-.169-1.866.449-2.073 1.456-.221 1.078.245 1.75 1.214 1.75.865 0 1.573.675 1.573 1.5 0 2.829 1.845 1.499 3.122-2.25.806-2.367 1.41-3.127 1.639-2.061.199.928 1.347 1.879 2.55 2.113 1.802.35 1.703.45-.561.562-1.904.094-2.747.674-2.741 1.886.006 1.262 1.684 2.272 6.019 3.624 10.558 3.292 24.044 14.4 29.29 24.126 4.865 9.019 6.895 14.012 8.199 20.165 2.595 12.247 1.446 31.344-2.13 35.414-.763.868-1.387 2.484-1.387 3.59 0 3.609-5.848 13.822-11.474 20.039-11.559 12.773-23.921 18.301-41.607 18.605L82 162.5v3.281c0 2.116-.581 3.505-1.636 3.91-2.374.91-4.864-1.035-4.864-3.8 0-1.911.469-2.34 2.334-2.138 1.451.157 2.183-.201 1.935-.945-.507-1.523-5.769-3.011-5.769-1.632 0 .552-1.013 1.848-2.25 2.88-1.396 1.165-1.735 1.89-.893 1.911.746.018 1.117.658.824 1.422-.848 2.21 10.348 4.948 20.319 4.969 17.185.036 32.109-6.213 45.511-19.056 20.768-19.902 27.694-55.005 16.317-82.695C142.983 44.213 123.406 29.408 97 27.633c-3.575-.241-8.257-.144-10.405.215m-13.022 3.114c-1.82.65-1.827.727-.122 1.381 1.423.546 1.687 1.417 1.249 4.116-.419 2.586-.231 3.298.769 2.915C76.872 38.835 78.182 33 76.9 33c-.414 0-.899-.614-1.077-1.363-.21-.885-.999-1.122-2.25-.675M65.5 34.153c-6.122 3.341-6.681 3.923-5.334 5.547 1.151 1.387 1.361 1.302 1.844-.743.855-3.621 2.7-3.401 4.106.488 1.706 4.716 3.31 4.584 2.365-.195-.408-2.062-.758-4.312-.778-5s-.074-1.236-.12-1.22-.983.522-2.083 1.123m-17.554 8.513L44.5 46.331l3.089-2.119c3.57-2.449 6.077-5.212 4.73-5.212-.51 0-2.477 1.65-4.373 3.666M77 40.888c-9.535 3.086-16.277 7.181-23.055 14.002-10.356 10.422-15.713 21.429-17.982 36.949-1.249 8.546-.158 19.632 2.71 27.531.825 2.271 1.601 4.697 1.724 5.39.339 1.91 2.603 3.981 2.603 2.381 0-.692.45-.981 1-.641s1 1.068 1 1.618-.419.741-.931.425c-1.621-1.002-2.114 1.175-.558 2.466.819.68 1.489 1.65 1.489 2.156s.446 1.463.992 2.127c.545.664 2.781 3.539 4.967 6.387 10.014 13.047 25.848 20.135 42.541 19.046 19.992-1.304 37.676-13.773 46.986-33.129 16.403-34.103-.244-76.097-34.341-86.632-8.199-2.534-21.447-2.568-29.145-.076m-38.9 3.407c-1.265 2.107-1.243 2.128.479.479.991-.95 1.587-1.942 1.324-2.205s-1.074.514-1.803 1.726m25.979-.712c.048 1.165.285 1.402.604.605.289-.722.253-1.585-.079-1.917s-.568.258-.525 1.312M40.5 46c-.34.55-.141 1 .441 1S42 46.55 42 46s-.198-1-.441-1-.719.45-1.059 1m7.187 1.805c-3.027 3.159-3.431 4.418-1.136 3.537 1.259-.483 1.421-.077.859 2.162-.53 2.112-.367 2.647.699 2.289.856-.289 1.424-2.004 1.477-4.461.047-2.195.411-4.518.809-5.162 1.222-1.978.11-1.306-2.708 1.635m-5.723 1.359c-1.145 2.233-1.118 2.26.61.61.994-.95 1.533-2.001 1.197-2.336s-1.148.442-1.807 1.726m-7.686.086C32.779 51.188 31.836 53 32.326 53c.244 0 1.181-1.125 2.082-2.5 1.686-2.573 1.592-3.476-.13-1.25M165 51c.589 1.1 1.295 2 1.57 2s.019-.9-.57-2-1.295-2-1.57-2-.019.9.57 2M45 60.154c0 1.745.248 1.885 1.5.846.825-.685 1.5-1.367 1.5-1.515 0-.149-.675-.53-1.5-.847-1.039-.398-1.5.068-1.5 1.516m124-1.213c0 .518.445 1.216.989 1.552.566.35.734-.051.393-.941-.665-1.732-1.382-2.049-1.382-.611M33.679 63.546c-2.349 4.927-2.018 5.765.437 1.11 1.116-2.115 1.852-4.022 1.636-4.238s-1.149 1.192-2.073 3.128m2.6-.26c-.854 1.876-.694 2.829.805 4.779l1.872 2.435.006-3.5c.01-4.896-1.311-6.724-2.683-3.714m135.235.214c5.068 15.8 5.946 21.14 5.919 36-.023 12.572-.405 16.376-2.364 23.5-4.337 15.775-11.374 28.815-21.387 39.63-3.098 3.347-5.399 6.32-5.112 6.607s-1.411 2.006-3.774 3.82c-8.823 6.775-7.211 6.386 2.846-.685 6.304-4.433 17.801-16.263 16.789-17.275-.312-.311-3.275 2.465-6.586 6.169s-6.524 6.734-7.14 6.734c-.617 0 .719-1.912 2.968-4.25 9.939-10.328 17.352-23.283 22.013-38.468 2.462-8.021 2.7-10.255 2.755-25.782.052-15.05-.212-17.918-2.303-25-1.299-4.4-3.015-9.125-3.813-10.5-.961-1.653-1.235-1.823-.811-.5m-90.153.567c-11.688 1.563-21.269 9.936-26.042 22.758l-.865 2.325-2.839-2.631c-5.833-5.406-11.61-.607-11.613 9.649-.002 4.087.559 5.326 4.498 9.941 5.009 5.867 5.205 6.397 2.859 7.71-1.182.662-1.457 1.655-.981 3.55.57 2.273 1.186 2.631 4.519 2.631 2.209 0 4.39-.641 5.103-1.5 1.818-2.191 3.249-1.833 2 .5-.589 1.1-2.067 2.006-3.285 2.014-3.499.021-6.744 1.13-6.145 2.1.935 1.513 7.676.973 9.601-.769 1.006-.91 1.829-1.205 1.829-.655 0 2.073-3.685 4.21-7.665 4.445-3.214.19-3.999.578-3.547 1.754.318.83.725 1.071.904.535s2.123-.804 4.321-.594c3.255.31 4.353-.056 5.92-1.975 1.525-1.865 2.184-2.1 3.172-1.129.995.979.909 1.601-.429 3.079-.922 1.019-1.676 2.18-1.676 2.58s1.129-.536 2.508-2.079l2.509-2.806-.411 2.5c-.225 1.375-.507 2.95-.626 3.5-.534 2.464.109 7.5.957 7.5.515 0 1.111-1.463 1.324-3.25l.388-3.25.784 3.167c.431 1.741 2.115 4.441 3.743 6 2.873 2.75 3.271 2.833 13.642 2.826 9.658-.006 11.161-.263 15.682-2.681 7.132-3.813 10.744-7.468 9.927-10.043-.531-1.673-.325-1.944 1.069-1.409 1.232.473 1.571.258 1.184-.751-.761-1.983.374-2.809 2.002-1.458 1.893 1.571 2.897.251 1.286-1.69-1.159-1.396-1.01-1.51 1.248-.943 2.769.695 4.743-.936 2.278-1.882-2.394-.918-1.722-2.402.865-1.908 1.54.295 2.57-.101 2.968-1.138.387-1.009.073-1.59-.858-1.59-.808 0-1.469-.45-1.469-1s.45-1 1-1 1-.845 1-1.878c0-2.131 1.604-3.673 6.244-6.004 2.293-1.152 3.515-2.684 4.245-5.319.563-2.036 2.491-5.215 4.284-7.065 6.028-6.219 6.24-12.759.576-17.733-4.033-3.541-7.506-3.812-12.197-.952l-3.348 2.041-4.76-4.452c-5.696-5.328-11.049-8.197-18.795-10.072-7.905-1.913-12.853-2.306-18.888-1.499M65.317 74.25c-6.561 6.802-10.196 16.307-8.222 21.499.812 2.137.698 2.394-.826 1.863-1.52-.53-1.498-.407.156.874 1.675 1.297 1.759 1.802.645 3.883-.72 1.345-.986 3.43-.608 4.762 1.433 5.052 2.806 7.822 3.625 7.315.47-.29 1.152.728 1.515 2.263.658 2.779 4.063 7.291 5.503 7.291.416 0 .951-1.013 1.189-2.25.381-1.975.45-1.922.57.435.075 1.477-.286 3.795-.802 5.151-.742 1.953-.534 2.832 1 4.22 1.066.965 1.938 2.375 1.938 3.134 0 2.97 3.33 6.322 7.359 7.408 4.556 1.228 14.231.487 16.325-1.251 1.89-1.568 1.622-2.896-.434-2.146-1.523.555-1.491.338.25-1.678 1.498-1.734 1.671-2.43.689-2.773-1.024-.357-.955-.851.315-2.254 2.461-2.72.632-2.97-6.004-.822-7.358 2.382-11.996 1.402-16.024-3.384-2.519-2.995-2.569-3.249-.882-4.482.983-.72 3.84-1.314 6.347-1.322 2.508-.007 5.541-.277 6.741-.599 1.835-.492 2.095-.251 1.634 1.514-.66 2.523 1.774 2.9 3.704.575.696-.838 1.47-1.319 1.722-1.068.251.251 2.195-.45 4.32-1.557 2.125-1.108 4.342-1.719 4.926-1.358.584.36.938.06.787-.669-.151-.728.288-1.211.975-1.074.688.138 1.25-.452 1.25-1.309s.45-1.281 1-.941c2.094 1.294.815 3.06-6.59 9.105-1.856 1.514-1.857 1.541-.019.954 1.532-.49 1.671-.339.733.791-.637.768-.878 2.129-.534 3.023.375.978.116 1.627-.65 1.627-.7 0-.972.302-.603.67.368.369-.017 1.719-.857 3-.839 1.282-1.066 2.33-.503 2.33s1.023.684 1.023 1.52c0 1.281.615 1.207 3.896-.467 5.516-2.814 7.104-4.717 7.104-8.514 0-2.899 3.88-9.735 3.967-6.989.018.577-.529 1.691-1.217 2.473-.687.783-.315.649.827-.298 1.52-1.26 1.977-2.594 1.702-4.973-.365-3.17-.34-3.193.995-.934l1.37 2.319 2.62-3.96c2.996-4.527 2.752-5.329-1.267-4.176-2.126.61-2.994.45-3.407-.627-.391-1.02.101-1.388 1.678-1.254 5.686.486 6.627-.018 7.737-4.139.881-3.273.796-4.427-.461-6.222-.849-1.212-1.544-3.652-1.544-5.422 0-4.384-1.024-4.693-5.352-1.613-2.93 2.084-3.949 2.373-4.922 1.393-.971-.978-.862-1.097.524-.569 1.466.558 1.774.041 1.9-3.191.118-3.043.238-3.273.568-1.088l.418 2.769 2.627-2.067c1.445-1.136 3.152-3.592 3.793-5.457 1.099-3.195.978-3.573-2.095-6.552-3.739-3.624-6.337-3.431-8.511.632-1.495 2.793-4.95 5.195-4.95 3.441 0-1.512-1.914-1.264-3.652.474-.83.83-2.035 1.182-2.679.781-2.016-1.255-8.612-.878-9.15.523-.278.723-.905 1.066-1.394.764-.49-.302-2.105.406-3.59 1.574l-2.7 2.124-3.854-2.165c-6.467-3.635-13.189-2.993-18.35 1.752L57.762 91.5l.677-2.5c1.252-4.624 3.834-9.949 4.596-9.478.749.463 2.407-2.396 2.147-3.703-.075-.374 1.238-1.836 2.918-3.25C69.779 71.156 70.763 70 70.285 70s-2.713 1.912-4.968 4.25M32 72.472c0 .576.9 1.609 2 2.296 1.162.726 2.034 2.397 2.081 3.99l.081 2.742 1.298-2.943c1.079-2.446 1.065-3.175-.081-4.321C36.62 73.478 36 72.467 36 71.991s-.9-.799-2-.716-2 .622-2 1.197M32 78c0 .55.477 1 1.059 1s.781-.45.441-1-.816-1-1.059-1-.441.45-.441 1m93.837 3.928c-3.752 3.751-4.007 4.348-3.345 7.817.395 2.065.809 4.996.921 6.513.311 4.222 1.901 5.238 5.011 3.2 1.451-.951 2.883-1.484 3.183-1.185.299.3-.391.841-1.534 1.204-1.612.511-1.94 1.203-1.467 3.091.386 1.536.181 2.432-.557 2.432-.643 0-.85-.561-.461-1.25.535-.948.406-.974-.535-.106-.682.629-1.086 1.856-.897 2.726.293 1.347.715 1.395 2.844.327 1.742-.875 2.761-2.49 3.36-5.326.622-2.942 1.678-4.553 3.81-5.812 2.626-1.551 4.83-5.024 4.83-7.61 0-.506-1.85-2.145-4.112-3.642-4.038-2.672-4.138-2.686-5.573-.764-3.126 4.187-3.405 5.308-1.572 6.333 1.798 1.006 2.563 7.124.89 7.124-.476 0-.64-1.181-.365-2.624.379-1.982.041-2.744-1.383-3.116-1.037-.271-1.885-1.303-1.885-2.293s-.562-2.027-1.25-2.305c-.825-.333-.719-.531.312-.583.859-.043 2.563-1.433 3.787-3.089 1.816-2.456 2.702-2.89 4.819-2.359 1.955.491 2.48.309 2.135-.74-.251-.765-1.908-1.534-3.681-1.708-2.649-.261-3.946.406-7.285 3.745m12.163.013c0 .518.445 1.216.989 1.552.566.35.734-.051.393-.941-.665-1.732-1.382-2.049-1.382-.611M32.276 83.329c.479 1.438 3.724 2.189 3.724.861 0-.526-.926-1.199-2.057-1.495-1.309-.342-1.915-.111-1.667.634M112 84.879c0 .666-1.151 2.362-2.557 3.769-1.406 1.406-1.996 2.37-1.311 2.141 1.801-.6 5.358-5.633 4.551-6.439-.376-.376-.683-.138-.683.529m-68.524 3.196c-.362 1.142-.393 2.342-.067 2.667.325.325.591-.173.591-1.107 0-3.226 3.016-3.009 6.699.483 3.322 3.149 3.445 3.19 1.793.591-3.092-4.86-7.867-6.255-9.016-2.634m20.929.08c-.436.704-.275.883.411.459.619-.383 2.488.009 4.155.871 1.666.861 3.029 1.341 3.029 1.066C72 90.046 66.517 87 65.609 87c-.27 0-.812.52-1.204 1.155M85 90.741c0 1.022-.562 2.465-1.25 3.206-.988 1.065-.989 1.199-.005.644 1.977-1.116 3.421-4.371 2.258-5.089-.552-.341-1.003.217-1.003 1.239M164.066 99c-.084 5.225-.523 11.412-.975 13.75s-.469 4.25-.036 4.25c1.844 0 3.375-16.812 2.095-23-.845-4.085-.945-3.625-1.084 5m-120.54-5.05C41.2 98.448 41.592 99.773 47 105.69c2.75 3.009 5 5.841 5 6.293s1.429 1.32 3.176 1.929c3.414 1.19 3.236.483-.329-1.311-1.204-.606-2.41-1.776-2.681-2.601-.411-1.255-.234-1.288 1.082-.201 2.469 2.037 2.85-.108.66-3.709-1.728-2.842-2.211-3.1-3.698-1.978-1.449 1.095-1.519 1.078-.46-.11 1.919-2.152 1.489-6.76-.938-10.042-2.729-3.692-3.381-3.693-5.286-.01m30.287-2.267c.721.289 1.584.253 1.916-.079s-.258-.568-1.312-.525c-1.165.048-1.402.285-.604.604m24.687.672c-4.824 1.449-5.861 4.579-2.334 7.048 1.253.879 2.597 1.597 2.985 1.597 1.59 0 3.849-3.305 3.849-5.63 0-1.369.375-2.256.833-1.973.459.283.834-.14.834-.941 0-1.704-.787-1.717-6.167-.101m-73.421 2.228c.048 1.165.285 1.402.604.605.289-.722.253-1.585-.079-1.917s-.568.258-.525 1.312m54.277-.43c.279.909-.101 2.483-.843 3.498-1.296 1.773-1.57 1.738-6.953-.903-5.825-2.856-8.667-3.252-12.06-1.681-1.425.66-.794.761 2.198.351 2.308-.317 4.97-.144 5.914.385 1.514.847 1.372 1.149-1.197 2.552L63.5 99.946l3.106-.569c2.29-.42 3.267-.15 3.719 1.027.411 1.072.059 1.596-1.071 1.596-1.575 0-1.575.108-.005 1.677 1.408 1.408 2.125 1.486 4.464.484 2.419-1.036 2.556-1.012 1.037.183-2.304 1.812-2.248 2.993.083 1.745 1.357-.726 1.834-.63 1.834.37 0 .743-.51 1.155-1.134.915-.623-.239-1.834 1.041-2.689 2.846l-1.555 3.28 4.924.185c2.709.101 5.584.732 6.391 1.401 1.184.983 1.85.804 3.47-.935 2.214-2.376 1.867-2.755-.926-1.011-1.344.839-2.33.847-3.737.03-1.776-1.031-1.734-1.117.589-1.219 1.551-.067 1.931-.321 1-.667-1.637-.609-5-3.838-5-4.801 0-.331.563-.316 1.25.032s.463-.012-.5-.801c-1.848-1.515-2.425-5.714-.785-5.714 1.851 0 3.204-3.895 2.002-5.763-.955-1.484-1.044-1.496-.611-.084m27.375 1.927c.354 1.352.807 1.806 1.057 1.057.24-.722-.038-1.787-.62-2.369-.742-.742-.872-.351-.437 1.312m60.045 9.42c-.545 11.687-.423 13.48.831 12.226 1.108-1.108 1.628-17.168.671-20.726-.783-2.907-1.037-1.467-1.502 8.5M90.75 96.08c-1.127.656-1.719 2.159-1.664 4.22l.086 3.2.845-2.814c.464-1.548 1.381-3.46 2.036-4.25 1.393-1.678 1.103-1.757-1.303-.356m6.479.108c.618 1.854 2.771 2.161 2.771.395 0-.87-.713-1.583-1.583-1.583-.871 0-1.406.534-1.188 1.188m-13.896 2.605c0 .711.637 1.049 1.415.75.779-.299 1.829-.543 2.334-.543s.918-.338.918-.75-1.05-.75-2.333-.75-2.334.582-2.334 1.293M27 100.5c0 .825.45 1.5 1 1.5s1-.675 1-1.5-.45-1.5-1-1.5-1 .675-1 1.5m85.063 1.781c-.034.98-.735 2.04-1.557 2.355-.822.316-1.229 1.003-.904 1.529.324.525 1.207.14 1.962-.855 1.008-1.33 1.381-1.434 1.404-.393.018.779.267 1.182.553.895s.091-1.599-.436-2.917c-.716-1.788-.974-1.944-1.022-.614m-25.248 2.228c1.273.932 2.585 1.424 2.916 1.093.801-.801.256-1.214-2.731-2.07l-2.5-.717zm4.623 1.391c.381.616.01 1.1-.844 1.1-.838 0-1.982.856-2.541 1.902-.882 1.647-.719 1.836 1.214 1.413 1.728-.378 1.905-.258.785.53-1.166.82-.918 1.15 1.277 1.701 2.088.524 2.473.987 1.649 1.98-.759.915-.762 1.489-.01 1.954.585.362.809 1.072.496 1.578-.644 1.043 1.806.23 5.536-1.835 2.39-1.324 2.324-1.358-1.5-.781-3.719.561-3.864.496-2.059-.919 1.068-.838 2.418-1.53 3-1.538.583-.009.384-.448-.441-.977-.825-.53-2.4-.701-3.5-.382-1.949.566-1.951.544-.097-.871 2.092-1.596 1.584-3.156-1.579-4.849-1.494-.8-1.877-.801-1.386-.006m79.669.6c-.139 1.1-.589 4.362-1.001 7.25s-.387 5.25.054 5.25c1.291 0 1.994-4.251 1.583-9.566-.211-2.714-.496-4.034-.636-2.934m-78.471 2.006c-.315.822-.164 1.494.336 1.494 1.356 0 2.198-1.777 1.149-2.425-.501-.31-1.169.109-1.485.931m6.364-.113c0 .216.698.661 1.552.989.89.341 1.291.173.941-.393-.587-.951-2.493-1.406-2.493-.596M112.5 115c-.34.55-.141 1 .441 1s1.059-.45 1.059-1-.198-1-.441-1-.719.45-1.059 1M70 121.059c0 .582.45.781 1 .441s1-.816 1-1.059-.45-.441-1-.441-1 .477-1 1.059m29.029-.098c-.809.512-1.211 1.191-.893 1.509s1.148-.108 1.844-.946c1.443-1.738 1.166-1.902-.951-.563M165 121c0 .55.45 1 1 1s1-.45 1-1-.45-1-1-1-1 .45-1 1m-123.436 2.293c.376.986.935 1.541 1.243 1.233s.001-1.114-.683-1.793c-.988-.98-1.102-.865-.56.56m32.001.602c-.305.493.09 1.142.876 1.444s1.648.011 1.915-.645c.361-.887.506-.873.565.056.113 1.796 4.079 1.553 4.079-.25 0-1.667-6.454-2.192-7.435-.605M82 124.5c0 .833.889 1.5 2 1.5s2-.667 2-1.5-.889-1.5-2-1.5-2 .667-2 1.5m21.911 1.371c-2.238 1.812-2.256 1.953-.588 4.5 2.509 3.829 3.677 3.234 3.677-1.871 0-2.475-.175-4.5-.389-4.5s-1.429.842-2.7 1.871M46 127.5c0 .825.436 1.5.969 1.5s.709-.675.393-1.5c-.317-.825-.753-1.5-.969-1.5s-.393.675-.393 1.5m28.553.585c.38.616 2.236 1.765 4.124 2.553 3.035 1.269 4.124 1.241 9.405-.241 3.285-.922 6.212-2.063 6.504-2.536.86-1.392-3.853-.989-9.019.771-4.438 1.512-5.044 1.511-8.248-.017-1.902-.907-3.147-1.145-2.766-.53m-18.249 1.716c-2.299.228-3.041.722-2.643 1.758.738 1.923 5.246 1.846 5.994-.102.746-1.944.545-2.044-3.351-1.656M48 131.029c0 .469.45 1.131 1 1.471s1 .086 1-.563c0-.855.485-.815 1.75.142 1.484 1.123 1.562 1.113.51-.067-1.422-1.597-4.26-2.251-4.26-.983m13.602 1.807c-.285.459-.125 2.147.355 3.75.866 2.895.872 2.89.957-.836.085-3.697-.3-4.552-1.312-2.914m27.011.98c-.402.651-1.549 1.184-2.55 1.184s-2.436.749-3.191 1.664c-1.244 1.508-1.162 1.552.878.465 1.251-.667 2.25-.777 2.25-.248 0 .524-.562 1.179-1.25 1.457-.793.32-.653.533.383.583.899.043 1.881-.866 2.183-2.022.308-1.178 1.025-1.806 1.633-1.431.596.369.825 1.089.508 1.601s-.098.931.484.931c1.205 0 1.237-.686.161-3.434-.52-1.329-.986-1.563-1.489-.75m-30.41 1.038c-1.037.657-.986 1.081.25 2.107 1.313 1.09 1.547.964 1.547-.839 0-2.391-.013-2.4-1.797-1.268m-7.203.524c0 .207.788.995 1.75 1.75 1.586 1.243 1.621 1.208.378-.378-1.307-1.666-2.128-2.195-2.128-1.372m3 0c0 .207.788.995 1.75 1.75 1.586 1.243 1.621 1.208.378-.378-1.307-1.666-2.128-2.195-2.128-1.372m7 21.596c0 2.094-.488 3.026-1.583 3.026-2.595 0-1.06 2.23 2.976 4.324l3.771 1.957 2.168-2.173c1.408-1.412 1.792-2.425 1.095-2.891-.59-.394-1.354-1.481-1.698-2.415-.345-.933-1.999-2.408-3.678-3.275L61 153.949zm-26-1.596c0 .207.788.995 1.75 1.75 1.586 1.243 1.621 1.208.378-.378-1.307-1.666-2.128-2.195-2.128-1.372M85 167c0 4.406 1.298 5.18 3.086 1.84 1.041-1.947 1.248-1.994 2.096-.479 1.292 2.309 2.833 1.092 2.748-2.17-.062-2.381-.165-2.461-.893-.691-.755 1.836-.881 1.856-1.537.25-.393-.963-1.083-1.75-1.534-1.75-.45 0-1.025.787-1.277 1.75-.344 1.317-.486 1.193-.573-.5C86.911 161.274 85 162.854 85 167m-8 0c0 .55.675 1 1.5 1s1.5-.45 1.5-1-.675-1-1.5-1-1.5.45-1.5 1m-13.267 3.124c.679.684 1.486.991 1.793.683.308-.308-.247-.867-1.233-1.243-1.425-.542-1.54-.428-.56.56M70 173c.825.533 1.95.969 2.5.969s.325-.436-.5-.969-1.95-.969-2.5-.969-.325.436.5.969m-1 3c.825.533 1.95.969 2.5.969s.325-.436-.5-.969-1.95-.969-2.5-.969-.325.436.5.969m-3 2.5c1.375.786 2.95 1.429 3.5 1.429s-.125-.643-1.5-1.429-2.95-1.429-3.5-1.429.125.643 1.5 1.429m15.813 1.183c.721.289 1.584.253 1.916-.079s-.258-.568-1.312-.525c-1.165.048-1.402.285-.604.604m8.937.979c.688.278 1.813.278 2.5 0 .688-.277.125-.504-1.25-.504s-1.937.227-1.25.504m-15.937 1.021c.721.289 1.584.253 1.916-.079s-.258-.568-1.312-.525c-1.165.048-1.402.285-.604.604"/><path fill-opacity=".356" fill-rule="evenodd" d="M88.193 12.072c-3.469.451-8.84 1.555-11.934 2.455-5.914 1.719-20.707 8.771-21.671 10.331-.31.501 2.243-.61 5.674-2.468 14.325-7.762 30.279-10.601 47.613-8.471 12.136 1.492 23.01 5.717 32.867 12.774 4.267 3.054 6.901 4.598 5.853 3.43S145.055 28 145.5 28s-.014-.911-1.022-2.024c-1.008-1.114-2.315-1.85-2.905-1.635-1.547.561-4.731-1.276-4.069-2.347 1.599-2.588-12.805-7.6-27.443-9.549-11.607-1.545-12.693-1.564-21.868-.373m5.62 4.611c.721.289 1.584.253 1.916-.079s-.258-.568-1.312-.525c-1.165.048-1.402.285-.604.604m44.876 5.011c-.373.603-.02 1.349.785 1.658.804.308 1.771.061 2.148-.55.397-.641.235-.832-.382-.45-.588.363-1.25.117-1.472-.547-.282-.848-.603-.881-1.079-.111m-53.876 2.989c.721.289 1.584.253 1.916-.079s-.258-.568-1.312-.525c-1.165.048-1.402.285-.604.604M141 25.43c0 .275.9.981 2 1.57s2 .845 2 .57-.9-.981-2-1.57-2-.845-2-.57m-90.128 2.32c-1.243 1.586-1.208 1.621.378.378.962-.755 1.75-1.543 1.75-1.75 0-.823-.821-.294-2.128 1.372m27.344.216c-11.595 3.121-20.628 8.454-29.711 17.541-4.403 4.404-8.824 9.579-9.826 11.5-2.008 3.852-1.864 3.698 5.861-6.26 10.882-14.029 30.74-23.693 48.763-23.732 26.026-.057 49.582 16.529 60.792 42.803 1.568 3.675 2.863 5.983 2.878 5.129.044-2.546-7.405-17.06-11.586-22.574-8.054-10.622-20.551-19.715-32.372-23.553-9.442-3.067-25.149-3.452-34.799-.854m68.784.412c0 .207.787.995 1.75 1.75 1.586 1.243 1.621 1.208.378-.378-1.307-1.666-2.128-2.195-2.128-1.372M41.473 36.25 34.5 43.5l7.25-6.973C48.484 30.05 49.457 29 48.723 29c-.152 0-3.415 3.263-7.25 7.25m110.327-.668c.6 1.145 1.868 2.72 2.817 3.5s4.349 5.405 7.555 10.277c3.205 4.873 5.828 8.418 5.828 7.879 0-1.389-9.314-15.458-11.328-17.11-.919-.755-1.672-1.852-1.672-2.438 0-.585 1.463.258 3.25 1.873l3.25 2.937-2.927-3.24c-1.61-1.781-3.148-3.018-3.419-2.747s-1.381-.297-2.468-1.261c-1.909-1.692-1.94-1.68-.886.33m-56.131 2.862c4.492.738 10.427 2.091 13.187 3.008 11.746 3.902 25.13 15.942 30.944 27.839 5.738 11.738 6.7 16.078 6.7 30.209 0 15.666-2.189 23.71-9.49 34.876C125.833 151.468 109.182 161 90.5 161c-14.288 0-26.273-5.062-36.903-15.588-4.712-4.666-6.625-5.984-7.466-5.143-.824.824-1.131.828-1.131.014 0-.614.563-1.313 1.25-1.554.938-.328.851-.91-.35-2.333-.88-1.043-2.904-4.708-4.498-8.146-1.595-3.437-3.264-6.25-3.709-6.25s-.57-.389-.276-.866c.294-.476-.122-3.963-.924-7.75s-1.466-9.146-1.476-11.91L35 96.447l-4 .382c-3.578.341-4 .147-4-1.835 0-1.992.355-2.15 3.5-1.56 2.187.41 3.5.264 3.5-.389C34 92.47 33.495 92 32.878 92c-.807 0-.794-.397.048-1.411.899-1.082.884-1.588-.061-2.172-.883-.546-.684-.966.701-1.482 2.063-.769 1.994-.823-3.066-2.404-.825-.257-1.5-1.21-1.5-2.116 0-1.653 1.101-1.624 5.424.145 1.565.641 1.798.46 1.25-.968-.371-.966-.674-2.844-.674-4.174C35 75.667 34.449 75 33 75c-2.403 0-2.565-1.293-.429-3.429 2.083-2.082 3.164-1.982 3.908.363 1.139 3.59 4.035 1.867 7.365-4.382 1.833-3.441 2.354-4.974 1.207-3.552-1.11 1.375-2.273 3.265-2.586 4.199-.326.977-1.183 1.463-2.016 1.143-.797-.306-1.449-.058-1.449.551 0 2.093-1.514 1.103-2.818-1.843-1.021-2.308-1.048-3.452-.121-5.25.832-1.618.846-1.984.046-1.235-.626.586-2.407 4.073-3.957 7.749-1.551 3.675-3.007 6.496-3.235 6.268s-.453.785-.499 2.251c-.046 1.467-.42 4.692-.831 7.167-.496 2.988-.421 4.037.222 3.122.99-1.408 3.193-.761 3.193.937 0 1.407-4.744 1.136-5.407-.309-.316-.687-.373-.35-.126.75s.58 8.616.741 16.701c.16 8.086.541 13.996.846 13.134.32-.907 1.294 1.115 2.312 4.799.967 3.501 3.53 9.663 5.696 13.693 4.419 8.222 4.666 9.002 2.227 7.045-1.134-.91-.943-.277.568 1.878 1.254 1.787 2.564 3.25 2.911 3.25.348 0 .092-.54-.568-1.2s-1.2-1.562-1.2-2.005 3.712 2.92 8.25 7.472c9.665 9.696 19.983 15.536 32.283 18.272 15.218 3.386 32.472.502 46.17-7.718 5.672-3.403 19.86-16.592 18.891-17.56-.296-.296-2.621 1.777-5.166 4.608-6.284 6.99-18.252 14.641-27.928 17.855-6.687 2.222-9.805 2.662-19 2.68-9.485.02-12.097-.36-18.962-2.755-14.505-5.06-29.347-17.409-36.115-30.05-1.501-2.805-2.372-4.773-1.936-4.375.437.398 2.067-.029 3.623-.948 3.943-2.329 4.793-.828 1.485 2.625-2.772 2.894-2.291 4.687.927 3.452 1.46-.56 1.604-.204 1.011 2.497-.809 3.684-.017 3.953 3.079 1.045 3.198-3.004 4.949-1.491 2.406 2.08-2.362 3.317-2.556 4.446-.64 3.71 1.849-.709 3.588 1.167 2.956 3.187-.282.9.648.373 2.08-1.18 2.596-2.815 4.992-2.912 3.935-.16-.361.942.057 1.468 1.169 1.468 1.406 0 1.615.587 1.108 3.122-.551 2.754-.44 2.968.944 1.82.863-.716 1.348-2.147 1.078-3.179s-.189-1.736.181-1.564c.369.172 2.94 1.508 5.714 2.969 9.251 4.872 15.548 6.116 28.367 5.604 9.579-.383 12.718-.927 18.09-3.132 7.657-3.143 18.158-10.757 22.788-16.523C139.969 136.91 146 125.591 146 122.95c0-1.111.703-3.093 1.562-4.404.858-1.31 2.053-6.588 2.655-11.727.894-7.644.81-11.023-.463-18.571-1.591-9.438-6.917-22.884-8.641-21.818-.51.315-.714-.241-.454-1.235.618-2.361-10.836-14.817-17.638-19.182-7.279-4.671-17.211-7.747-27.021-8.37l-8.5-.54zm-20.958 1.921c-3.735 1.273-7.335 2.86-8 3.527-.666.667.957.255 3.606-.916s7.6-2.734 11-3.473c3.917-.852 5.084-1.364 3.183-1.398-1.65-.029-6.055.988-9.789 2.26m88.456 5.625c1.283 1.919 4.232 7.094 6.554 11.5s4.234 7.629 4.25 7.163c.055-1.599-7.961-16.152-10.549-19.153l-2.587-3zM32 47c-1.175 1.65-1.911 3-1.636 3s1.461-1.35 2.636-3 1.911-3 1.636-3-1.461 1.35-2.636 3m30.441-.445c-1.864 1.494-1.852 1.512.309.465 1.237-.6 2.25-1.3 2.25-1.555 0-.765-.519-.544-2.559 1.09m66.094 6.073c3.32 3.23 7.275 7.447 8.79 9.372s2.311 2.564 1.77 1.421c-1.446-3.059-9.783-12.082-13.432-14.537-1.782-1.199-.527.437 2.872 3.744M56.798 50.25c-5.912 5.333-7.915 6.751-9.556 6.765-1.379.012-1.455.197-.364.889.851.538 1.063 1.393.554 2.234-.454.749 2.188-1.556 5.872-5.123S60 48.41 60 48.265c0-.654-.886-.105-3.202 1.985m116.907 7.222c1.477 3.01 2.852 5.304 3.057 5.099.449-.449-4.595-10.571-5.268-10.571-.26 0 .735 2.462 2.211 5.472m-148.255.627c-1.422 2.805-2.417 5.268-2.212 5.472s1.58-2.089 3.057-5.099S28.766 53 28.506 53s-1.635 2.295-3.056 5.099m144.648 6.151c2.191 5.557 3.658 7.896 2.407 3.837-1.192-3.869-3.491-9.087-4.004-9.087-.259 0 .459 2.362 1.597 5.25m-91.364 1.167c-2.622.705-5.097 1.631-5.5 2.057-.404.426.166.501 1.266.167 12.99-3.944 28.227-1.617 33.527 5.121 1.085 1.379 1.973 3.292 1.973 4.25 0 2.401-2.381 4.163-4.518 3.343-1.163-.446-2.251-.024-3.166 1.228-1.2 1.641-1.525 1.699-2.325.412-.718-1.154-1.336-1.244-2.71-.394-.98.606-2.681.774-3.781.374-2.052-.747-4.5.488-4.5 2.27 0 .559.659.453 1.495-.241.822-.682 2.347-1.017 3.389-.745 1.042.273 2.492.127 3.222-.324.759-.47 1.922-.326 2.719.334 1.082.899 1.682.758 2.701-.636 1.042-1.424 1.721-1.571 3.314-.718 1.729.925 2.302.591 4.164-2.421 2.699-4.368 6.139-4.615 10.441-.75 1.714 1.539 1.299.856-.945-1.556-4.886-5.252-13.663-9.708-23-11.677-8.387-1.769-11.479-1.785-17.766-.094m-58.122 4.207c-.886 2.603-1.579 5.215-1.539 5.804s.939-1.367 1.997-4.348 1.751-5.593 1.539-5.804-1.11 1.745-1.997 4.348m45.35 2.448L62.5 75.144l3.75-2.691C69.564 70.076 70.642 69 69.712 69c-.158 0-1.846 1.382-3.75 3.072m107.117.511c.048 1.165.285 1.402.604.605.289-.722.253-1.585-.079-1.917s-.568.258-.525 1.312m1 4c.048 1.165.285 1.402.604.605.289-.722.253-1.585-.079-1.917s-.568.258-.525 1.312M60.872 77.75c-1.243 1.586-1.208 1.621.378.378C62.916 76.821 63.445 76 62.622 76c-.207 0-.995.787-1.75 1.75m-42.793.833c.048 1.165.285 1.402.604.605.289-.722.253-1.585-.079-1.917s-.568.258-.525 1.312M32 78.5c0 .825.45 1.5 1 1.5s1-.675 1-1.5-.45-1.5-1-1.5-1 .675-1 1.5m100.46-.763c3.447.508 7.998 4.71 8.844 8.166.724 2.957-1.568 7.607-5.296 10.744-1.61 1.354-3.06 3.815-3.439 5.835-.677 3.613-2.923 5.518-6.503 5.518-1.17 0-2.066.651-2.066 1.5 0 .825-.787 1.507-1.75 1.515-1.207.011-1.373.255-.535.788.885.562.405 1.982-1.772 5.234-1.643 2.455-3.428 4.35-3.965 4.213-.538-.138-.978.355-.978 1.095s-.9 2.16-2 3.155c-1.529 1.384-2.004 1.479-2.015.405-.013-1.143-.196-1.125-.985.095-.533.825-.976 2.884-.985 4.576-.016 3.359-2.466 6.155-7.715 8.807-3.829 1.934-5.684 2.079-4.698.367.396-.687-.446-.188-1.871 1.109-2.357 2.145-3.316 2.326-10.56 1.997-6.076-.276-8.526-.827-10.319-2.322l-2.352-1.96 2.277 2.463c2.001 2.163 3.278 2.504 10.5 2.799 6.474.265 9.398-.104 13.744-1.736 6.985-2.622 12.048-6.808 12.215-10.1.077-1.519 2.164-4.675 5.32-8.045 2.857-3.049 6.137-7.393 7.29-9.654 1.377-2.699 3.394-4.742 5.875-5.955 2.546-1.243 4.105-2.853 4.779-4.931.55-1.697 2.493-4.784 4.317-6.861 4.509-5.133 5.503-8.056 4.141-12.182-1.438-4.357-5.39-7.412-9.343-7.222l-3.115.15zm24.681.263c0 .825.386 2.4.859 3.5.542 1.261.859 1.445.859.5 0-.825-.386-2.4-.859-3.5-.542-1.261-.859-1.445-.859-.5m-31.371 1.966c-1.375 1.081-3.083 3.444-3.796 5.25-.714 1.806-2.237 4.373-3.386 5.704l-2.088 2.419 2.663-1.919c1.465-1.056 2.925-3.199 3.244-4.763.319-1.563 1.981-4.151 3.692-5.75 3.559-3.324 3.374-3.854-.329-.941m-68.375 3.632c-.827 1.979-1.367 4.201-1.199 4.937s1.013-.882 1.881-3.598c1.843-5.773 1.474-6.499-.682-1.339m117.684-2.015c.048 1.165.285 1.402.604.605.289-.722.253-1.585-.079-1.917s-.568.258-.525 1.312M17.158 83c0 1.375.227 1.938.504 1.25.278-.687.278-1.812 0-2.5-.277-.687-.504-.125-.504 1.25m112.822.25c-.984 2.031-.952 2.079.325.5 1.752-2.166 3.528-2.211 6.722-.17l2.473 1.58-2.361-2.08c-3.071-2.706-5.797-2.641-7.159.17m48.099-.667c.048 1.165.285 1.402.604.605.289-.722.253-1.585-.079-1.917s-.568.258-.525 1.312m-158 1c.048 1.165.285 1.402.604.605.289-.722.253-1.585-.079-1.917s-.568.258-.525 1.312M159.252 87.5c.011 2.2.216 2.982.455 1.738s.23-3.044-.02-4-.446.062-.435 2.262m-116.298-.414c-.614 1.147-.855 2.347-.535 2.666.32.32.581.088.581-.514s.707-1.802 1.571-2.667c.865-.864 1.106-1.571.536-1.571s-1.539.939-2.153 2.086m8.164 1.796C53.253 91.018 55 93.67 55 94.775c0 1.106.788 2.311 1.75 2.677 1.403.534 1.502.417.5-.593-.687-.692-1.25-2.063-1.25-3.046s-1.687-3.355-3.75-5.272c-5.097-4.739-5.954-4.48-1.132.341M176.195 87.5c.02 1.65.244 2.204.498 1.231s.237-2.323-.037-3-.481.119-.461 1.769M16.272 90c0 2.475.195 3.487.434 2.25.238-1.237.238-3.263 0-4.5-.239-1.237-.434-.225-.434 2.25m2.886-1c0 1.375.227 1.938.504 1.25.278-.687.278-1.812 0-2.5-.277-.687-.504-.125-.504 1.25m2.921-.417c.048 1.165.285 1.402.604.605.289-.722.253-1.585-.079-1.917s-.568.258-.525 1.312m157 1c.048 1.165.285 1.402.604.605.289-.722.253-1.585-.079-1.917s-.568.258-.525 1.312m-134.473.954c-2.094 2.094-2.078 3.1.022 1.357 1.416-1.175 2.001-.903 4.5 2.09 1.579 1.892 2.924 4.357 2.988 5.478.097 1.701.192 1.747.575.278.467-1.79-2.586-7.578-5.097-9.662-1.061-.88-1.755-.774-2.988.459M41.252 94.5c.011 2.2.216 2.982.455 1.738s.23-3.044-.02-4-.446.062-.435 2.262m118.932 3c-.111 3.3-.408 8.475-.66 11.5l-.458 5.5 1.002-5.5c.55-3.025.847-8.2.659-11.5l-.342-6zM68 96c1.925 1.054 2.922 1.935 2.215 1.958-.974.032-1.026.526-.215 2.042.726 1.356.737 2 .035 2-.569 0-1.035.45-1.035 1 0 1.423 4.341 1.24 5.947-.25 1.102-1.022 1.231-.921.712.552-.401 1.136-.246 1.561.421 1.149.581-.359.8-1.322.486-2.14-.324-.844.403-2.334 1.682-3.448 2.198-1.914 2.2-1.932.072-.715-1.872 1.07-2.882.864-7.135-1.451-2.726-1.483-5.345-2.678-5.82-2.655s.71.904 2.635 1.958m109.286 3.5c.008 2.75.202 3.756.432 2.236s.223-3.77-.014-5-.425.014-.418 2.764M15.3 101c0 3.025.187 4.263.416 2.75s.229-3.987 0-5.5-.416-.275-.416 2.75m11.7-.5c0 .825.675 1.5 1.5 1.5s1.5-.675 1.5-1.5-.675-1.5-1.5-1.5-1.5.675-1.5 1.5m4 0c0 .825.675 1.5 1.5 1.5s1.5-.675 1.5-1.5-.675-1.5-1.5-1.5-1.5.675-1.5 1.5m10-.938c0 .502 3.345 4.631 10.075 12.438 1.185 1.375.897.7-.64-1.5C47.27 105.971 41 98.702 41 99.562m14.564 2.145c-.542 1.425-.428 1.54.56.56.684-.679.991-1.486.683-1.793-.308-.308-.867.247-1.243 1.233m69.631 2.793c.02 1.65.244 2.204.498 1.231s.237-2.323-.037-3-.481.119-.461 1.769m-71.362.957c1.425 1.847 2.08 3.754 1.746 5.083-.339 1.352-.06 2.127.767 2.127 1.019 0 1.086-.936.309-4.332-.545-2.383-1.212-4.112-1.481-3.842-.27.269-1.194-.069-2.055-.752-.861-.682-.54.09.714 1.716M27 106c0 1.1.398 2 .883 2 .486 0 1.131.947 1.434 2.105.702 2.682 3.209 1.909 3.104-.956-.044-1.182.293-2.149.75-2.149.456 0 .829-.675.829-1.5 0-1.048-1.056-1.5-3.5-1.5-2.833 0-3.5.381-3.5 2m152.072 3.5c-.145 6.735-3.899 20.334-8.116 29.393-3.196 6.869-3.513 8.001-1.57 5.607 3.553-4.378 4.29-2.364 1.173 3.205-1.477 2.637-1.927 3.895-1.001 2.795 2.802-3.33 9.175-17.547 11.292-25.196 1.849-6.676 4.009-21.729 2.357-16.421-.604 1.938-.947 2.125-1.84 1-.604-.761-1.348-2.058-1.654-2.883s-.594.3-.641 2.5m-90.462-.927c-.42 1.096-.099 1.475 1.061 1.25.915-.178 1.851-.885 2.079-1.573.613-1.839-2.43-1.526-3.14.323M16.252 111.5c.011 2.2.216 2.982.455 1.738s.23-3.044-.02-4-.446.062-.435 2.262m59.238-2.484c-.346.559-1.117.715-1.714.346-.647-.401-.797-.206-.371.483.392.635 2.317 1.155 4.276 1.155 3.055 0 3.386-.214 2.319-1.5-1.435-1.729-3.597-1.961-4.51-.484M176.232 111c0 1.925.206 2.713.457 1.75.252-.963.252-2.537 0-3.5-.251-.963-.457-.175-.457 1.75M93 110c-.901.582-1.025.975-.309.985.655.008 1.469-.435 1.809-.985.767-1.242.421-1.242-1.5 0m-73.805 2.5c.02 1.65.244 2.204.498 1.231s.237-2.323-.037-3-.481.119-.461 1.769m2.963.5c0 1.375.227 1.938.504 1.25.278-.687.278-1.812 0-2.5-.277-.687-.504-.125-.504 1.25m2.921.583c.048 1.165.285 1.402.604.605.289-.722.253-1.585-.079-1.917s-.568.258-.525 1.312m8.404-.555c-.395.638-1.829.948-3.189.688-2.351-.45-2.438-.297-1.792 3.148.911 4.855 1.159 5.136 4.526 5.136 2.175 0 2.764-.378 2.334-1.5-.317-.825-.109-1.5.461-1.5.687 0 .734-1.059.138-3.136-1.096-3.822-1.549-4.34-2.478-2.836m59.922 1.114c-1.898 2.134-1.897 2.136.345.759 1.237-.76 2.25-1.724 2.25-2.142 0-1.205-.557-.909-2.595 1.383m-36.731 1.434c1.745.752 3.457 2.26 3.803 3.352.346 1.091 2.001 3.138 3.676 4.547 1.95 1.641 2.829 3.128 2.444 4.133-.331.863.299 2.715 1.4 4.116 1.102 1.4 2.003 2.183 2.003 1.74 0-.444-.711-1.592-1.58-2.552-1.221-1.349-1.334-2.204-.5-3.763.594-1.11 1.035-3.06.98-4.333l-.099-2.316-.665 2.371-.665 2.371-3.236-3.022c-1.779-1.662-3.235-3.967-3.235-5.121s-.337-2.13-.75-2.168-2.1-.216-3.75-.396l-3-.326zm100.013 5.666c-.989 3.455-3.096 8.967-4.682 12.248s-2.69 6.159-2.453 6.395c1.089 1.089 9.972-21.814 9.273-23.91-.186-.558-1.148 1.812-2.138 5.267M175.158 117c0 1.375.227 1.938.504 1.25.278-.687.278-1.812 0-2.5-.277-.687-.504-.125-.504 1.25m-157.625 3c.913 7.385 5.955 20.605 11.122 29.168 13.918 23.061 35.539 36.834 61.845 39.396 9.917.966 7.702-.234-2.853-1.546-10.167-1.263-15.403-2.846-25.147-7.599-20.112-9.813-37.412-32.058-43.487-55.919-1.281-5.03-1.83-6.33-1.48-3.5m77.967-3c.34.55.816 1 1.059 1s.441-.45.441-1-.477-1-1.059-1-.781.45-.441 1m6.5 3.723-4.5 4.587 4.75-3.775c2.612-2.077 4.75-4.172 4.75-4.655 0-1.249-.025-1.23-5 3.843m-81.921-2.14c.048 1.165.285 1.402.604.605.289-.722.253-1.585-.079-1.917s-.568.258-.525 1.312m3 0c.048 1.165.285 1.402.604.605.289-.722.253-1.585-.079-1.917s-.568.258-.525 1.312m1 4c.048 1.165.285 1.402.604.605.289-.722.253-1.585-.079-1.917s-.568.258-.525 1.312m150 0c.048 1.165.285 1.402.604.605.289-.722.253-1.585-.079-1.917s-.568.258-.525 1.312m-153 1c.048 1.165.285 1.402.604.605.289-.722.253-1.585-.079-1.917s-.568.258-.525 1.312m6.062-.583c0 .825.386 2.4.859 3.5.542 1.261.859 1.445.859.5 0-.825-.386-2.4-.859-3.5-.542-1.261-.859-1.445-.859-.5M92 123c0 .55.477 1 1.059 1s.781-.45.441-1-.816-1-1.059-1-.441.45-.441 1m-59 2.452c0 .916-.432 1.399-.96 1.073s-.433.884.212 2.691c.768 2.153 1.29 2.71 1.517 1.619.519-2.506 3.469-3.23 4.944-1.212.697.952 1.513 1.485 1.814 1.183.892-.891-1.737-5.806-3.106-5.806-.691 0-1.969-.273-2.839-.607q-1.58-.605-1.582 1.059M72 125c0 .55.477 1 1.059 1s.781-.45.441-1-.816-1-1.059-1-.441.45-.441 1m32 .98-2.5 1.936 2.75 2.769 2.75 2.77v-4.728c0-2.6-.112-4.717-.25-4.705s-1.375.894-2.75 1.958m-18.834-.104c-1.057.67-.976.983.393 1.508.95.365 1.963.427 2.251.14.288-.288-.114-.531-.893-.539-1.167-.013-1.152-.187.083-.985.825-.533 1.05-.969.5-.969s-1.6.38-2.334.845m10.268.874c.221 1.507 1.566 2.151 1.566.75V126c0-.55-.41-1-.912-1-.501 0-.795.787-.654 1.75m-4.621-.067c.721.289 1.584.253 1.916-.079s-.258-.568-1.312-.525c-1.165.048-1.402.285-.604.604M73 127.544c0 .116.6.709 1.333 1.318.997.827 1.334.773 1.334-.211 0-.725-.6-1.318-1.334-1.318-.733 0-1.333.095-1.333.211M29.031 129.5c0 .55.436 1.675.969 2.5s.969 1.05.969.5-.436-1.675-.969-2.5-.969-1.05-.969-.5M36 131.441c0 .857.45 1.559 1 1.559s1-.423 1-.941-.45-1.219-1-1.559-1 .084-1 .941M24.031 132.5c0 .55.436 1.675.969 2.5s.969 1.05.969.5-.436-1.675-.969-2.5-.969-1.05-.969-.5m145.593 3.039c-.965 2.514-.681 3.163.498 1.136.584-1.004.851-2.036.593-2.293-.257-.258-.749.263-1.091 1.157M84 135.393c0 .216.698.661 1.552.989.89.341 1.291.173.941-.393-.587-.951-2.493-1.406-2.493-.596m-54.991 1.19c.012 1.166 5.866 11.417 6.52 11.417.268 0-.945-2.588-2.696-5.75-3.699-6.68-3.836-6.883-3.824-5.667m-3.009.79c0 1.08 3.972 8.627 4.541 8.627.275 0-.465-1.912-1.644-4.25-2.318-4.597-2.897-5.472-2.897-4.377m16.507.616c-.35.566.051.734.941.393 1.732-.665 2.049-1.382.611-1.382-.518 0-1.216.445-1.552.989m124.952 2.078c-.363.586-.445 1.281-.183 1.543s.743-.218 1.069-1.067c.676-1.762.1-2.072-.886-.476m-20.181 2.183c-1.954 2.527-2.621 4.08-1.438 3.349 1.184-.732 3.553-4.599 2.818-4.599-.227 0-.848.563-1.38 1.25M50.4 146.4c-.366.954-.171 2.229.434 2.834.8.8 1.282.627 1.766-.634.366-.954.171-2.229-.434-2.834-.8-.8-1.282-.627-1.766.634m113.6.6c-.589 1.1-.845 2-.57 2s.981-.9 1.57-2 .845-2 .57-2-.981.9-1.57 2m-132.03 1.944c.573 1.07 1.535 2.25 2.139 2.623s.325-.501-.62-1.944c-2.002-3.055-3.038-3.518-1.519-.679m4.03.434c0 .207.788.995 1.75 1.75 1.586 1.243 1.621 1.208.378-.378-1.307-1.666-2.128-2.195-2.128-1.372m127.872 2.372c-1.243 1.586-1.208 1.621.378.378 1.666-1.307 2.195-2.128 1.372-2.128-.207 0-.995.787-1.75 1.75M46.5 157c3.266 3.3 6.162 6 6.437 6s-2.171-2.7-5.437-6-6.162-6-6.437-6 2.171 2.7 5.437 6M35 153.378c0 .207.788.995 1.75 1.75 1.586 1.243 1.621 1.208.378-.378-1.307-1.666-2.128-2.195-2.128-1.372m6 2.122c1.292 1.375 2.574 2.5 2.849 2.5s-.557-1.125-1.849-2.5-2.574-2.5-2.849-2.5.557 1.125 1.849 2.5m117.872-.75c-1.243 1.586-1.208 1.621.378.378 1.666-1.307 2.195-2.128 1.372-2.128-.207 0-.995.787-1.75 1.75M42.5 162c2.709 2.75 5.15 5 5.425 5s-1.716-2.25-4.425-5-5.15-5-5.425-5 1.716 2.25 4.425 5m109.466.555c-13.567 13.789-28.807 21.738-46.693 24.356l-5.773.845 4.662.122c5.279.138 17.83-2.085 22.338-3.956 1.65-.685 3.338-1.172 3.75-1.083s.75-.25.75-.753 2.856-2.511 6.347-4.463c6.115-3.42 9.509-6.304 8.828-7.502-.179-.314.221-.753.889-.976.787-.262.933.081.414.975-.44.759.377.308 1.817-1.003s2.524-2.865 2.411-3.454c-.113-.59.426-1.093 1.199-1.118.772-.025 1.526-.872 1.674-1.883.148-1.01 1.049-2.698 2-3.75 3.721-4.111.562-1.617-4.613 3.643m10.439-3.305-1.905 2.25 2.25-1.905c2.114-1.79 2.705-2.595 1.905-2.595-.19 0-1.202 1.012-2.25 2.25m-5.533 1.5c-1.243 1.586-1.208 1.621.378.378 1.666-1.307 2.195-2.128 1.372-2.128-.207 0-.995.787-1.75 1.75M49 163.378c0 .207.788.995 1.75 1.75 1.586 1.243 1.621 1.208.378-.378-1.307-1.666-2.128-2.195-2.128-1.372m99.872 4.372c-1.243 1.586-1.208 1.621.378.378 1.666-1.307 2.195-2.128 1.372-2.128-.207 0-.995.787-1.75 1.75m3.533 1.5-1.905 2.25 2.25-1.905c2.114-1.79 2.705-2.595 1.905-2.595-.19 0-1.202 1.012-2.25 2.25M50 168.378c0 .207.788.995 1.75 1.75 1.586 1.243 1.621 1.208.378-.378-1.307-1.666-2.128-2.195-2.128-1.372m92 4.711c-2.154 1.762-2.196 1.897-.306.973 1.207-.59 2.471-1.52 2.809-2.067.903-1.461.297-1.196-2.503 1.094"/></svg>