<!-- Generated by IcoMoon.io -->
<svg version="1.1" xmlns="http://www.w3.org/2000/svg" width="32" height="32" viewBox="0 0 32 32" fill="#000000">
<title>chr</title>
<path d="M28.997 6.432c0 3.552-2.88 6.432-6.432 6.432s-6.432-2.88-6.432-6.432c0-3.552 2.88-6.432 6.432-6.432s6.432 2.88 6.432 6.432z"/>
<path d="M15.54 6.008c6.378-0.176 13.033 3.946 13.033 10.326 0 0-6.568 0-6.601-0.085-0.931-2.37-3.029-3.285-5.501-3.302-3.576-0.024-6.589 2.857-6.517 6.432 0.071 3.506 3.010 6.203 6.517 6.178 2.472-0.017 4.147-0.93 5.332-3.3 0.045-0.091 6.79-0.169 6.77 0-0.677 6.009-6.135 9.497-12.102 9.732-7.172 0.282-13.16-5.435-13.372-12.61-0.211-7.13 5.311-13.176 12.441-13.372z"/>
</svg>
