<!-- Generated by IcoMoon.io -->
<svg version="1.1" xmlns="http://www.w3.org/2000/svg" width="32" height="32" viewBox="0 0 32 32" fill="#000000">
<title>ckb</title>
<path d="M23.423 0.21c-0.172 0.172-0.312 4.096-0.312 8.72v8.408l-2.89-0.149c-1.589-0.082-2.889-0.047-2.889 0.079 0.001 0.366 13.977 14.217 14.345 14.217 0.184 0 0.281-7.050 0.217-15.667l-0.117-15.667-4.021-0.127c-2.212-0.070-4.162 0.014-4.333 0.185zM0 16.168v15.794l8.222-0.256 0.121-8.556 0.12-8.556h2.88c1.584 0 2.879-0.152 2.879-0.339 0-0.436-13.458-13.884-13.894-13.884-0.18 0-0.328 7.108-0.328 15.795z"/>
</svg>
