<svg width="218" height="500" viewBox="0 0 218 500" fill="#000000" xmlns="http://www.w3.org/2000/svg">
<path fill-rule="evenodd" clip-rule="evenodd" d="M96.2703 4.48515C94.952 7.75043 93.1675 13.7217 92.3046 17.7487C90.9143 24.2499 89.548 25.0729 80.1357 25.0729H69.5329V39.5589V54.0476L58.2136 53.5416C47.1607 53.0488 46.9103 53.2273 47.5921 61.0283C49.6136 84.1436 48.4098 88.879 36.984 102.784C30.504 110.668 23.779 115.893 18.6627 117.017C-2.02626 121.561 15.5359 144.924 39.642 144.924C45.8157 144.924 46.1353 144.256 44.5958 134.617L42.9472 124.31L61.5907 115.973C83.084 106.361 83.9789 106.18 81.795 111.872C78.9292 119.34 82.4129 120.384 98.7872 116.967C107.6 115.129 114.77 114.375 114.722 115.292C114.578 117.984 105.792 127.759 101.091 130.454C96.9575 132.824 76.4816 156.843 70.8645 165.906C69.3997 168.271 64.9066 174.573 60.8823 179.913C56.8579 185.253 53.7498 192.449 53.9762 195.903C54.2026 199.36 51.2036 209.883 47.3125 219.29C39.7219 237.641 38.6645 243.468 42.9233 243.468C44.6118 243.468 44.9714 248.904 43.8874 258.117C42.4412 270.427 42.838 272.765 46.3829 272.765C49.5204 272.765 50.8041 275.993 51.4087 285.416C52.0479 295.383 53.1452 297.915 56.5756 297.353C59.7104 296.842 61.4576 299.444 62.8052 306.627C65.6044 321.545 68.5874 325.782 75.0966 324.078C81.4887 322.408 85.4118 326.946 85.4731 336.087C85.5157 342.631 78.2927 346.62 61.5428 349.297C54.5541 350.416 46.5561 356.187 29.5825 372.367L6.94393 393.948L7.72695 407.265C8.15842 414.589 9.15185 423.879 9.93755 427.906C10.9656 433.198 10.2838 435.23 7.48193 435.23C-1.05148 435.23 -2.59356 442.091 4.45368 448.709C9.74312 453.679 11.698 454.292 13.4106 451.522C14.942 449.042 16.1458 448.864 17.4216 450.925C18.423 452.547 18.6148 454.888 17.8504 456.13C15.44 460.026 30.9435 472.85 35.8067 470.983C41.8712 468.658 41.3652 472.304 34.6295 479.474C26.176 488.473 29.6571 490.29 59.3802 492.399C78.0769 493.723 87.4999 495.521 89.4042 498.128C91.7586 501.345 95.7829 500.706 115.854 493.923C128.873 489.52 142.067 486.558 145.172 487.336C149.801 488.5 152.486 485.986 160.114 473.354C165.225 464.884 173.305 452.83 178.065 446.568C185.211 437.172 186.721 432.815 186.721 421.604C186.721 410.938 187.536 408.338 190.521 409.486C198.589 412.581 200.376 404.5 194.602 391.032C191.56 383.934 189.602 376.085 190.255 373.592C190.907 371.099 189.182 365.341 186.417 360.797C183.655 356.254 181.394 350.091 181.394 347.1C181.394 344.109 180.161 339.357 178.651 336.537C175.071 329.849 182.23 318.072 188.841 319.776C200.943 322.898 208.693 277.828 200.131 254.122C193.147 234.788 190.609 231.51 179.966 228.093C161.251 222.082 161.837 222.476 165.329 218.27C167.076 216.166 168.138 209.287 167.688 202.988C166.892 191.786 167.044 191.554 174.517 192.438C181.977 193.325 182.126 193.096 180.765 182.946C179.588 174.17 180.251 172.157 185.013 170.053C189.658 168.005 190.513 165.642 189.85 156.709C189.32 149.577 190.391 144.74 192.974 142.596C195.137 140.801 198.309 133.482 200.024 126.331C202.589 115.643 204.523 112.849 210.885 110.631C219.983 107.459 219.214 103.168 208.222 95.7824C198.208 89.0521 195.379 69.599 203.143 60.8578C211.884 51.0167 209.514 48.6277 192.713 50.3455C172.413 52.4229 161.989 45.7699 167.987 34.5651C173.332 24.5775 168.578 20.6384 157.863 26.1782C145.78 32.4264 138.7 31.7446 139.478 24.4071C140.051 18.9925 139.086 18.4784 129.458 19.083C120.017 19.6769 118.046 18.7022 112.147 10.5283C103.616 -1.28902 99.2693 -2.94296 96.2703 4.48515ZM103.576 352.256C104.34 354.546 103.059 355.505 100.023 354.919C97.4129 354.411 94.7389 352.386 94.0837 350.413C93.3193 348.122 94.6004 347.164 97.6366 347.75C100.247 348.258 102.921 350.282 103.576 352.256Z" fill="#000000"/>
</svg>
