<svg xmlns="http://www.w3.org/2000/svg" width="32" height="32" fill="#000000"><g clip-path="url(#a)"><path fill="#B0B0B0" d="M16 32c8.837 0 16-7.163 16-16S24.837 0 16 0 0 7.163 0 16s7.163 16 16 16"/><path fill="#FAFAFA" d="M25.08 15.027c-.212-6.148-6.36-7.42-8.48-7.42s-4.876.848-6.572 3.392c0 0-6.572 1.908-5.088 8.056s7.844 5.3 7.844 5.3h9.477s3.243-.212 4.727-3.604c1.06-2.544-1.06-5.512-1.908-5.724m-4.24-3.604a1.483 1.483 0 1 1 0 2.968 1.483 1.483 0 1 1 0-2.968m-5.724 0a1.483 1.483 0 1 1 0 2.968 1.483 1.483 0 1 1 0-2.968m8.056 6.36c-.636 2.12-1.908 4.028-5.3 4.028-3.18 0-5.936-3.392-5.088-5.512s4.664.424 6.996-.424 4.028-.212 3.392 1.908m-8.268 1.696c-.89-1.187 2.968-1.484 4.028-1.272s1.908.212 2.12 1.06-2.12 1.696-3.18 1.696-2.332-.636-2.968-1.484"/></g><defs><clipPath id="a"><path fill="#FFFFFF" d="M0 0h32v32H0z"/></clipPath></defs></svg>