<svg xmlns="http://www.w3.org/2000/svg" width="200" height="200" fill="#000000"><path fill-opacity=".09" fill-rule="evenodd" d="M80.113 1.482C53.275 7.568 31.093 22.525 16.598 44.31 10.153 53.996 6.97 60.819 3.279 72.861.827 80.86.629 82.871.606 100c-.022 17.368.144 19.042 2.711 27.353 7.31 23.668 21.513 43.088 40.993 56.049 9.698 6.453 16.529 9.637 28.551 13.311 7.912 2.417 10.154 2.645 26.639 2.713 15.967.066 18.903-.187 26-2.237 10.27-2.966 25.008-9.945 32.852-15.558 9.521-6.813 26.222-24.52 24.547-26.025-.871-.782-72.673-41.582-74.231-42.18-1.517-.582-1.668.892-1.668 16.245 0 13.663-.297 17.308-1.557 19.106-2.035 2.906-7.641 3.025-10.443.223-1.844-1.844-2-3.333-2-19.107 0-14.553-.217-17.024-1.454-16.549-.799.307-7.365 3.955-14.591 8.107-14.53 8.349-17.61 9.074-20.882 4.914-4.551-5.785-1.966-8.889 15.694-18.845 6.747-3.804 12.119-7.362 11.938-7.906-.182-.545-6.152-4.278-13.268-8.297-16.9-9.546-18.863-11.963-14.364-17.682 3.399-4.322 6.621-3.542 22.171 5.365 7.682 4.4 14.145 8 14.361 8S93 79.4 93 70.111c0-14.924.215-17.154 1.844-19.167 2.276-2.811 7.292-3.036 10.143-.456 1.864 1.687 2.013 3.056 2.013 18.5 0 9.173.253 16.932.563 17.241s6.833-2.99 14.498-7.333c14.825-8.4 18.458-9.377 21.939-5.896 2.632 2.632 2.535 6.296-.25 9.384-1.238 1.373-8.264 5.854-15.614 9.958-13.08 7.303-13.314 7.494-11 8.948 1.3.817 18.308 10.544 37.794 21.616 26.016 14.781 35.647 19.793 36.245 18.862 1.889-2.937 5.146-12.82 6.678-20.268.906-4.4 1.985-8.15 2.397-8.333 1.165-.518.919-27.167-.25-27.167-.55 0-1-1.075-1-2.388 0-8.345-9.289-30.657-17.629-42.344-9.35-13.104-25.638-26.516-39.816-32.786C128.184 2.568 119.61.795 102.5.401 90.975.136 84.714.439 80.113 1.482M.395 100.5c.001 7.7.158 10.718.348 6.706.191-4.011.189-10.311-.002-14C.549 89.518.393 92.8.395 100.5"/><path fill-opacity=".285" fill-rule="evenodd" d="M80 1.948C44.064 9.586 15.528 35.197 4.705 69.524c-8.96 28.42-4.723 60.342 11.259 84.824 29.952 45.881 90.199 59.277 137.045 30.471 8.295-5.1 23.135-18.704 27.856-25.535l2.223-3.217-5.294-3.012a31028 31028 0 0 1-37.294-21.354l-32-18.342-.5 16.796c-.449 15.095-.702 16.994-2.5 18.757-3.379 3.315-6.827 3.571-10.109.75l-2.891-2.484-.315-16.992-.314-16.991-13.797 7.902C68.99 126.3 63.218 129 61.178 129c-5.497 0-8.874-5.962-6.204-10.951.535-1.001 7.275-5.359 14.978-9.684 7.702-4.326 14.014-8.107 14.026-8.402s-6.165-4.077-13.728-8.404c-7.562-4.326-14.298-8.585-14.968-9.463-1.804-2.364-1.535-6.562.589-9.185 3.259-4.025 7.203-3.044 21.84 5.436C84.977 82.556 91.389 86 91.961 86 92.639 86 93 80.117 93 69.073V52.145l2.635-2.072c3.006-2.365 4.281-2.524 7.708-.963 3.986 1.817 4.657 4.905 4.657 21.437 0 8.499.218 15.453.485 15.453.266 0 6.986-3.64 14.932-8.089 15.072-8.439 16.635-8.824 20.833-5.138 2.302 2.021 2.269 7.708-.057 10.034-.993.993-7.743 5.133-15 9.199s-13.179 7.64-13.163 7.943c.026.459 15.978 9.655 69.05 39.805l5.728 3.254 3.168-8.754c1.742-4.815 3.687-12.017 4.321-16.004.635-3.987 1.502-7.25 1.928-7.25s.775-5.175.775-11.5c0-7-.391-11.5-1-11.5-.55 0-1-1.053-1-2.34 0-3.904-3.69-17.053-7.05-25.126-10.436-25.067-33.2-46.258-59.227-55.135C116.553-.116 96.028-1.459 80 1.948M.382 100.5c.002 6.6.164 9.17.359 5.711.196-3.459.195-8.859-.003-12S.38 93.9.382 100.5"/><path fill-opacity=".409" fill-rule="evenodd" d="M84.46 1.448C53.626 6.24 25.835 26.279 11.579 54c-32.254 62.716 8.025 137.553 78.156 145.211 32.204 3.516 66.451-10.381 86.762-35.207 4.931-6.028 5.605-7.314 4.412-8.414-1.36-1.255-71.675-41.59-72.502-41.59-.224 0-.414 7.088-.422 15.75-.01 10.632-.423 16.557-1.271 18.233-1.501 2.968-5.44 4.554-9.055 3.646-4.717-1.184-5.659-4.86-5.659-22.079 0-8.553-.243-15.55-.539-15.55s-6.484 3.444-13.75 7.653c-14.637 8.48-18.581 9.461-21.84 5.436-2.598-3.208-2.42-8.251.379-10.744 1.237-1.102 7.763-5.091 14.5-8.863S83 100.31 83 99.927s-6.073-4.15-13.496-8.37-13.948-8.517-14.5-9.549c-1.873-3.5-1.179-7.725 1.631-9.935C58.084 70.933 60.236 70 61.417 70s8.433 3.561 16.116 7.914L91.5 85.829l.515-16.165c.283-8.89.899-16.964 1.368-17.942 1.912-3.987 7.922-4.914 11.756-1.813 2.274 1.839 2.379 2.537 2.861 18.966l.5 17.057 14-7.935c7.7-4.364 14.766-7.949 15.703-7.966 3.135-.057 6.651 2.202 7.82 5.024 2.17 5.24-.111 7.636-15.804 16.605l-14.279 8.159 37.138 21.225c29.167 16.67 37.329 20.928 38.032 19.841 2.031-3.144 7.041-20.698 7.592-26.6.326-3.492.977-6.586 1.446-6.876s.852-4.127.852-8.527-.389-7.76-.864-7.466c-.476.294-1.166-2.404-1.534-5.995s-1.825-10.217-3.239-14.725C180.458 23.169 133.47-6.17 84.46 1.448M.349 100c0 4.675.173 6.587.383 4.25.211-2.338.211-6.163 0-8.5-.21-2.338-.383-.425-.383 4.25"/><path fill-opacity=".215" fill-rule="evenodd" d="M88.678 1.058c-22.87 2.515-43.802 12.984-60.282 30.15C9.997 50.372.815 73.255.793 100c-.024 28.115 9.095 50.06 29.121 70.086 19.707 19.708 42.307 29.098 70.086 29.121 20.144.017 35.48-4.22 51.941-14.35 9.039-5.563 21.562-16.852 26.829-24.186l3.242-4.515-36.756-21.013-36.756-21.014-.5 17.027c-.482 16.397-.587 17.097-2.861 18.935a8.136 8.136 0 0 1-10.278 0c-2.274-1.839-2.379-2.536-2.861-18.979l-.5-17.069-14 7.968c-7.7 4.383-15.159 7.973-16.576 7.979-2.589.01-6.104-3.008-7.233-6.212-.334-.947-.14-3.059.43-4.694.847-2.43 3.573-4.398 14.936-10.778 7.644-4.293 13.908-8.031 13.918-8.306s-5.777-3.78-12.86-7.79C53.87 83.014 52.043 81.045 54.147 75.007c2.495-7.155 7.177-6.656 23.385 2.493C84.84 81.625 91.085 85 91.41 85s.59-7.22.59-16.045c0-15.703.052-16.098 2.455-18.5 3.235-3.236 8.392-3.311 11.346-.167 1.993 2.122 2.169 3.484 2.424 18.858l.275 16.571 13.812-7.859C131.045 72.89 137.222 70 139.108 70c3.462 0 7.892 3.877 7.892 6.907 0 4.802-2.319 6.917-16.107 14.689-10.691 6.026-13.606 8.093-12.644 8.966 1.916 1.736 70.43 40.438 71.589 40.438 2.339 0 7.984-18.969 8.863-29.782.326-4.005.976-7.519 1.446-7.809.469-.29.853-2.327.853-4.527 0-2.412-.397-3.755-1-3.382-.611.378-1-1.17-1-3.983 0-12.063-5.763-29.8-14.143-43.526-6.88-11.267-21.533-25.939-32.739-32.781-18.525-11.308-41.893-16.521-63.44-14.152M.272 100c0 2.475.195 3.487.434 2.25.238-1.237.238-3.263 0-4.5-.239-1.237-.434-.225-.434 2.25"/></svg>