<svg width="500" height="500" viewBox="0 0 500 500" fill="#000000" xmlns="http://www.w3.org/2000/svg">
<path fill-rule="evenodd" clip-rule="evenodd" d="M226.219 1.10895C17.8295 20.5223 -75.2541 275.084 71.236 424.949C202.459 559.195 430.388 505.423 487.819 326.671C542.45 156.638 404.157 -15.4674 226.219 1.10895ZM198.693 114.461C224.595 121.289 248.703 149.262 248.703 172.49C248.703 174.024 249.153 175.278 249.703 175.278C250.252 175.278 250.702 174.024 250.702 172.49C250.702 155.115 267.986 129.623 286.222 120.101C346.325 88.7204 410.224 151.208 380.456 212.252C371.225 231.179 345.643 249.226 328.043 249.226C326.177 249.226 324.65 249.675 324.65 250.225C324.65 250.775 325.904 251.224 327.438 251.224C344.813 251.224 370.305 268.508 379.826 286.744C411.207 346.847 348.72 410.746 287.676 380.978C268.748 371.748 250.702 346.166 250.702 328.565C250.702 326.699 250.252 325.172 249.703 325.172C249.153 325.172 248.703 326.426 248.703 327.96C248.703 346.157 230.959 371.6 211.729 380.978C150.667 410.756 88.334 347.035 119.548 286.744C128.927 268.627 154.609 251.224 171.967 251.224C173.501 251.224 174.755 250.775 174.755 250.225C174.755 249.675 173.501 249.226 171.967 249.226C154.592 249.226 129.1 231.942 119.579 213.706C91.3289 159.6 139.706 98.9143 198.693 114.461Z" fill="#000000"/>
</svg>
