<svg xmlns="http://www.w3.org/2000/svg" width="250" height="240" version="1.1" fill="#000000"><path fill-opacity=".267" d="M 108.500 6.109 C 93.315 8.297, 75.704 15.143, 62 24.185 C 52.527 30.435, 38.209 45.076, 31.492 55.381 C 6.965 93.009, 7.392 140.232, 32.602 178.153 C 38.127 186.464, 53.118 201.647, 61.252 207.171 C 73.109 215.223, 89.381 221.976, 104.500 225.120 C 112.238 226.729, 135.762 226.729, 143.500 225.120 C 158.700 221.959, 174.890 215.224, 186.916 207.057 C 196.205 200.749, 210.519 185.858, 217.150 175.604 C 238.455 142.659, 240.645 101.799, 222.998 66.500 C 206.561 33.621, 175.185 11.166, 138.566 6.072 C 129.709 4.841, 117.195 4.856, 108.500 6.109 M 111 57.560 C 91.424 61.780, 74.706 76.772, 67.774 96.322 C 65.370 103.101, 65 105.646, 65 115.391 C 65 128.242, 66.334 133.924, 71.832 144.500 C 78.608 157.532, 92.920 168.992, 107.932 173.404 C 114.895 175.450, 132.490 175.511, 139.992 173.515 C 153.441 169.936, 168.689 158.391, 175.514 146.620 C 192.942 116.558, 182.265 78.806, 151.861 62.988 C 139.028 56.312, 125.269 54.484, 111 57.560 M 114.385 89.617 C 108.626 91.660, 102.398 97.310, 99.235 103.362 C 97.028 107.585, 96.546 109.835, 96.525 116 C 96.504 122.464, 96.908 124.237, 99.454 128.833 C 108.492 145.150, 128.779 148.869, 142.565 136.734 C 157.958 123.184, 153.980 98.650, 135 90.077 C 129.637 87.654, 120.495 87.450, 114.385 89.617" stroke="none" fill="#000000" fill-rule="evenodd"/><path fill-opacity=".085" d="M 113.838 6.098 C 88.080 8.247, 64.012 19.970, 44.962 39.648 C 30.766 54.311, 22.439 69.111, 16.819 89.670 C 15.007 96.296, 14.674 100.267, 14.652 115.500 C 14.628 131.884, 14.863 134.383, 17.277 143.337 C 20.471 155.184, 27.981 171.177, 34.421 179.844 C 39.033 186.052, 39.177 186.149, 41.126 184.386 C 44.058 181.733, 51.325 169.718, 55.892 159.973 C 59.425 152.431, 60.212 151.421, 62.694 151.233 C 64.771 151.075, 65.118 151.263, 64.029 151.956 C 63.220 152.470, 62.852 153.186, 63.212 153.546 C 63.940 154.274, 66.001 153.272, 65.999 152.191 C 65.998 151.811, 64.864 150.182, 63.479 148.571 C 61.754 146.566, 61.322 145.419, 62.108 144.933 C 62.747 144.538, 62.909 143.662, 62.474 142.957 C 61.982 142.162, 62.094 141.940, 62.776 142.362 C 63.373 142.731, 64.132 142.595, 64.463 142.060 C 64.794 141.525, 65.725 141.341, 66.532 141.651 C 67.339 141.960, 68 141.881, 68 141.473 C 68 139.901, 65.622 132.453, 64.831 131.550 C 64.374 131.027, 64 124.658, 64 117.396 C 64 106.051, 64.342 103.181, 66.429 97.011 C 72.815 78.135, 86.525 64.528, 105.858 57.877 C 114.483 54.909, 134.312 55.205, 143.831 58.443 C 159.808 63.877, 171.615 74.469, 179.385 90.341 L 183.869 99.500 184.286 118 C 184.655 134.367, 185.006 137.500, 187.326 145.176 C 190.883 156.944, 196.777 169.404, 203.142 178.611 L 208.432 186.264 211.469 182.752 C 220.769 171.993, 230.493 149.590, 233.071 132.986 C 234.812 121.765, 233.755 98.441, 231.053 88.500 C 228.333 78.490, 223.469 67.094, 217.918 57.723 C 211.679 47.193, 191.073 26.947, 180.581 21.040 C 159.191 8.996, 137.450 4.129, 113.838 6.098 M 103.482 131.028 C 102.549 132.539, 107.520 137.660, 112.500 140.318 C 118.144 143.331, 129.862 143.329, 135.500 140.315 C 139.606 138.120, 146.391 132.058, 145.613 131.280 C 145.374 131.041, 137.453 130.892, 128.012 130.950 C 114.471 131.033, 110.356 131.376, 108.526 132.575 C 106.413 133.959, 106.220 133.944, 106.353 132.405 C 106.528 130.395, 104.481 129.413, 103.482 131.028 M 68.116 145.177 C 68.052 146.099, 67.213 147.009, 66.250 147.200 C 65.229 147.402, 64.937 147.822, 65.548 148.207 C 67.211 149.256, 69.243 147.442, 68.714 145.380 C 68.322 143.852, 68.210 143.814, 68.116 145.177 M 70.459 148.067 C 70.096 148.653, 70.014 149.348, 70.276 149.610 C 70.538 149.872, 71.019 149.392, 71.345 148.543 C 72.021 146.781, 71.445 146.471, 70.459 148.067 M 103 177.170 C 94.386 179.001, 81.495 183.226, 75.517 186.178 C 67.629 190.075, 54 199.170, 54 200.538 C 54 202.034, 71.254 213.275, 78.341 216.397 C 94.793 223.645, 111.250 226.626, 129.778 225.715 C 145.332 224.950, 158.358 221.546, 172.500 214.551 C 183.383 209.167, 193.566 202.311, 193.430 200.458 C 193.322 198.994, 182.356 191.566, 174.373 187.549 C 165.066 182.867, 154.723 179.296, 145.185 177.471 C 136.515 175.812, 110.274 175.625, 103 177.170" stroke="none" fill="#000000" fill-rule="evenodd"/><path fill-opacity=".17" d="M 106 7.174 C 93.150 9.006, 74.332 16.636, 61.960 25.031 C 53.247 30.942, 53.161 31.215, 58.718 35.282 C 69.770 43.370, 86.083 50.543, 100.407 53.614 C 105.120 54.625, 113.036 55.138, 124 55.143 C 146.174 55.153, 155.648 53.117, 173.500 44.507 C 182.632 40.102, 194 32.617, 194 31.008 C 194 29.990, 179.419 20.187, 173.500 17.226 C 166.318 13.632, 151.920 8.996, 143.240 7.483 C 133.945 5.862, 116.232 5.715, 106 7.174 M 33.259 53.750 C 20.091 73.359, 14.491 92.344, 14.602 117 C 14.679 134.086, 17.767 147.706, 24.916 162.494 C 30.042 173.096, 36.208 182.458, 37.328 181.338 C 37.698 180.969, 38 181.417, 38 182.333 C 38 183.250, 38.450 184, 39 184 C 39.550 184, 40 183.613, 40 183.140 C 40 182.667, 41.511 180.678, 43.357 178.720 C 45.204 176.762, 48.780 171.161, 51.304 166.275 C 60.492 148.486, 63.938 132.848, 63.487 111 C 63.170 95.665, 60.643 83.901, 54.739 70.277 C 50.790 61.163, 41.356 46, 39.635 46 C 38.991 46, 36.121 49.487, 33.259 53.750 M 205.804 49.250 C 198.413 59.121, 190.946 75.023, 187.374 88.500 C 185.856 94.230, 185.525 99.129, 185.551 115.500 C 185.582 134.389, 185.735 136, 188.321 144.500 C 189.826 149.450, 193.072 157.705, 195.532 162.845 C 200.072 172.329, 207.584 184, 209.147 184 C 210.766 184, 219.030 171.736, 222.902 163.587 C 231.321 145.867, 234.804 128.200, 233.645 109.090 C 232.822 95.505, 231.089 87.596, 226.210 75.169 C 222.691 66.203, 210.719 46, 208.926 46 C 208.547 46, 207.142 47.462, 205.804 49.250 M 101 178.495 C 86.500 181.737, 70.223 188.909, 59.132 196.942 L 53.764 200.830 60.117 205.507 C 79.990 220.137, 110.269 228.131, 134.521 225.150 C 139.874 224.493, 147.982 223.019, 152.539 221.876 C 162.880 219.283, 177.666 212.135, 177.107 210 C 176.891 209.175, 176.796 205.017, 176.897 200.759 C 176.998 196.502, 176.607 192.135, 176.030 191.055 C 174.659 188.494, 164.788 183.854, 153.500 180.464 C 145.423 178.039, 142.604 177.725, 126 177.402 C 112.344 177.136, 105.798 177.422, 101 178.495 M 179.923 199.128 C 179.881 203.182, 179.696 207.287, 179.512 208.250 C 179.137 210.207, 179.200 210.244, 181.412 209.395 C 182.279 209.063, 182.740 208.388, 182.435 207.895 C 182.131 207.403, 182.696 206.985, 183.691 206.967 C 186.258 206.920, 190 203.533, 190 201.256 C 190 198.216, 188.725 197.733, 187.260 200.219 C 186.125 202.147, 185.996 202.190, 186.428 200.500 C 186.935 198.516, 185.126 195.649, 181.750 193.084 C 180.123 191.848, 179.995 192.272, 179.923 199.128" stroke="none" fill="#000000" fill-rule="evenodd"/><path fill-opacity=".134" d="M 110.176 7.003 C 99.920 8.449, 88.488 11.671, 79.710 15.588 C 71.559 19.225, 55 29.458, 55 30.857 C 55 32.069, 68.784 40.806, 76.384 44.412 C 91.879 51.764, 106.583 55, 124.500 55 C 147.994 55, 170.660 47.946, 188.718 35.015 L 194.057 31.192 190.599 28.346 C 181.261 20.659, 162.619 11.946, 149.012 8.909 C 139.095 6.696, 119.261 5.722, 110.176 7.003 M 34.661 52.223 C 32.153 55.737, 28.064 62.862, 25.573 68.056 C 21.106 77.371, 15.351 96.802, 16.336 99.245 C 16.614 99.935, 16.878 99.487, 16.921 98.250 C 16.986 96.404, 17.583 95.992, 20.250 95.958 C 53.291 95.531, 60.060 95.622, 60.498 96.500 C 61.712 98.931, 59.629 87.008, 57.803 81.069 C 55.181 72.544, 47.987 57.928, 43.086 51.167 L 39.220 45.834 34.661 52.223 M 204.162 53.252 C 198.428 62.052, 194.588 70.072, 191.115 80.500 C 187.696 90.766, 185.999 100.737, 187.867 99.582 C 188.508 99.186, 188.774 98.443, 188.457 97.931 C 188.141 97.419, 188.584 97, 189.441 97 C 190.298 97, 191 97.460, 191 98.022 C 191 98.691, 197.469 98.950, 209.750 98.772 C 224.102 98.564, 228.441 98.207, 228.250 97.250 C 228.112 96.563, 228.498 96, 229.107 96 C 229.716 96, 229.955 96.675, 229.638 97.500 C 229.288 98.414, 229.637 99, 230.531 99 C 231.339 99, 232 98.586, 232 98.079 C 232 94.556, 227.227 78.114, 224.285 71.500 C 220.463 62.910, 210.628 47, 209.140 47 C 208.642 47, 206.402 49.813, 204.162 53.252 M 15.158 103 C 15.158 104.375, 15.385 104.938, 15.662 104.250 C 15.940 103.563, 15.940 102.438, 15.662 101.750 C 15.385 101.063, 15.158 101.625, 15.158 103 M 95.750 181.662 C 96.438 181.940, 97.563 181.940, 98.250 181.662 C 98.938 181.385, 98.375 181.158, 97 181.158 C 95.625 181.158, 95.063 181.385, 95.750 181.662 M 83.677 184.543 C 75.161 187.668, 54.930 199.283, 55.029 200.992 C 55.109 202.368, 66.632 209.704, 75.759 214.188 C 82.575 217.538, 86.843 219.072, 88.478 218.759 C 89.832 218.501, 90.731 218.627, 90.475 219.040 C 90.220 219.453, 90.721 220.063, 91.588 220.395 C 94.042 221.337, 94.149 221.158, 92.576 218.750 C 91.409 216.963, 91.147 213.050, 91.303 199.750 C 91.525 180.873, 91.860 181.541, 83.677 184.543 M 92.353 194.260 L 92.205 203.500 93.387 195 C 94.557 186.575, 94.526 184.991, 93.191 185.010 C 92.811 185.015, 92.434 189.178, 92.353 194.260 M 93.185 209.643 C 93.038 214.530, 93.336 215.915, 94.641 216.416 C 95.904 216.901, 96.033 216.745, 95.201 215.743 C 94.606 215.026, 93.951 211.978, 93.745 208.970 L 93.370 203.500 93.185 209.643 M 96.015 213.083 C 96.024 213.863, 96.475 215.175, 97.018 216 C 97.802 217.190, 97.942 217.041, 97.695 215.276 C 97.338 212.718, 95.992 210.961, 96.015 213.083 M 97 221 C 95.718 221.828, 95.754 221.972, 97.250 221.985 C 98.213 221.993, 99 221.550, 99 221 C 99 219.780, 98.887 219.780, 97 221" stroke="none" fill="#000000" fill-rule="evenodd"/></svg>