<svg xmlns="http://www.w3.org/2000/svg" width="200" height="200" fill="#000000"><path fill-opacity=".075" fill-rule="evenodd" d="M75.015 5.75c.016 5.913 1.346 9.652 2.735 7.692C79.326 11.219 83.558 9 86.223 9 88.848 9 89 8.753 89 4.5V0H75zm34.999-3.5c.031 5.19 1.01 6.489 5.321 7.066 2.291.306 5.178.863 6.415 1.237 2.147.649 2.25.423 2.25-4.936V0h-7c-6.597 0-6.999.13-6.986 2.25M61.326 21.314c-8.707 3.394-9.546 3.914-10.022 6.215l-.617 2.998c-.172.841-.622 1.516-1 1.5A42 42 0 0 0 48.3 32c-.385 0-.16-.54.5-1.2s1.2-1.871 1.2-2.691c0-1.131-.38-1.022-1.574.45-.866 1.067-1.289 1.379-.941.691.903-1.783-.336-1.544-2.306.444-1.557 1.571-1.558 1.648-.012 1.063 1.817-.687 3.298 1.681 2.182 3.488-.416.672-.176.766.651.255.892-.551 1.068-.42.553.414-.415.672-1.372.986-2.125.697-.754-.289-2.058.162-2.899 1.003-1.795 1.795-1.97 1.079-.436-1.787.8-1.496.784-2.347-.06-3.184-.866-.86-.994-.728-.515.53.436 1.145-.099 2.031-1.69 2.805-2.131 1.037-2.175 1.009-.518-.327.995-.802 1.387-1.72.87-2.04-.517-.319-3.581 1.524-6.81 4.095C17.01 50.533 5.018 71.591 3.165 91.5c-1.574 16.922 1.419 32.155 9.216 46.9 3.973 7.514 14.344 19.562 22.659 26.323 9.217 7.494 25.116 15.42 36.71 18.299l4.25 1.055V200h14l.001-6.75v-6.75H111V200h14v-8.031c0-5.566.384-8.142 1.25-8.392 9.501-2.742 16.604-5.418 23.167-8.727 33.569-16.927 53.453-53.08 47.528-86.416-3.826-21.529-15.597-40.508-33.285-53.668-6.52-4.851-21.607-13.152-22.422-12.337-.655.655 2.755 6.571 3.788 6.571.536 0 .974.675.974 1.5 0 1.343 1.168 1.935 3.214 1.63.393-.058.45.582.127 1.423-.366.953-.087 1.419.741 1.238.73-.16 1.348.288 1.373.995.054 1.543 2.614 3.289 3.772 2.574.452-.28.699.067.548.77s.248 1.3.887 1.325c1.216.047 10.271 9.194 15.885 16.045 4.181 5.103 11.167 19.081 13.179 26.371 1.957 7.085 2.18 25.684.398 33.129-1.854 7.746-9.184 22.458-14.558 29.217-17.418 21.914-49.497 34.858-80.077 32.311l-8.737-.728 6.21-5.764 6.209-5.765 11.165-.572c9.452-.484 15.403-1.594 22.444-4.188.976-.359.803-1.408-.724-4.401l-2.005-3.93-4.696 1.414c-4.495 1.352-18.505 3.451-19.177 2.872-.177-.152.754-2.007 2.07-4.122 5.408-8.69 8.505-19.092 9.354-31.409l.662-9.616 4.891.47c5.512.53 14.358-1.831 18.207-4.859 4.21-3.312 13.959-4.947 25.355-4.253 7.429.453 10.623.286 11.705-.612 2.075-1.722.026-4.833-3.643-5.534-9.595-1.833-9.061-1.6-7.092-3.093 2.106-1.596 10.601-1.889 13.277-.458 1.461.783 2.171.463 3.51-1.58 4.608-7.034 2.317-13.91-5.966-17.906-6.447-3.109-10.627-3.648-12.272-1.582-1.039 1.304-1.218 1.324-1 .112.162-.908-.698-1.619-2.236-1.846-1.375-.203-3.026-.801-3.669-1.329-.793-.651-1.508-.379-2.22.846-.578.993-1.064 1.412-1.081.933-.016-.48-.791-.255-1.722.5-1.142.926-1.448.967-.943.125.585-.973.137-1.014-2.037-.188-1.532.583-2.465.739-2.073.346.393-.392-.067-1.354-1.021-2.136-.953-.783-1.102-1.095-.329-.695.942.49 1.161.336.665-.466-.406-.658-1.6-.922-2.654-.587-1.054.334-1.916.142-1.916-.428s-.675-.777-1.5-.461c-.825.317-1.5.153-1.5-.364 0-.518-.562-.983-1.25-1.036-3.367-.255-13.725-3.656-17.5-5.745-2.338-1.294-4.25-2.012-4.25-1.597C114 60.238 126.648 68 130.465 68c1.97 0 1.97.007.008 1.354-1.085.745-3.998 2.092-6.473 2.994l-4.5 1.64 9-.561c4.95-.309 10.35-.59 12-.624 2.759-.058 15 .932 15 1.213 0 .067 1.236.285 2.746.484 7.507.991 14.046 4.032 16.082 7.479.92 1.556 1.672 3.098 1.672 3.425 0 .328-2.162.596-4.804.596-6.303 0-14.415 4.001-17.178 8.471-2.039 3.299-3.837 4.529-6.623 4.529-1.176 0-1.116-.506.326-2.75 1.414-2.201.77-1.882-3.227 1.603-9.518 8.296-17.969 10.693-26.916 7.634-4.9-1.676-4.929-1.673-6.719.665-1.564 2.042-1.607 2.492-.329 3.458 1.888 1.426 1.854 4.206-.15 12.326-5.089 20.625-20.437 38.951-39.88 47.617-2.2.981-4.252 1.906-4.559 2.056-.73.356-15.421-7.12-19.378-9.86-1.684-1.167-5.67-4.35-8.856-7.072l-5.793-4.95 7.139-3.623c15.349-7.789 29.81-22.822 39.54-41.104 3.638-6.834 6.491-13 6.016-13-.198 0-2.664 3.334-5.481 7.409-7.153 10.347-18.106 21.741-25.911 26.954l-6.606 4.412-1.62-2.138c-2.168-2.861-4.773-8.603-6.53-14.392-1.709-5.634-1.906-21.098-.341-26.745C42.348 72.245 53.707 59.013 69 51.527c3.025-1.481 6.208-3.059 7.073-3.508 4.784-2.479 18.762-4.235 28.427-3.569 5.5.378 11.237.77 12.75.869 1.513.1 2.75.593 2.75 1.098 0 .504.293.623.652.265.358-.359-.532-1.835-1.978-3.281-1.958-1.958-3.252-2.473-5.069-2.017-1.531.385-2.596.148-2.86-.636-.324-.963-.812-.924-2.139.171-1.344 1.11-1.652 1.132-1.412.102.202-.869-.885-1.391-3.194-1.533-1.925-.119-3.5-.308-3.5-.421 0-.754-7.254-1.458-14-1.36-24.322.357-51.804 22.928-57.87 47.528-3.911 15.859-2.622 27.392 4.687 41.931l4.357 8.665-4.087 1.128c-9.344 2.578-9.644 2.437-14.144-6.659-2.231-4.509-4.631-11.09-5.333-14.623-1.575-7.925-1.602-24.737-.05-31.294C15.155 79.758 23.494 61.068 24.94 60c.372-.275 1.439-1.615 2.372-2.978.932-1.362 4.056-4.93 6.942-7.928 2.885-2.998 4.684-5.119 3.996-4.713-.687.405-1.25.26-1.25-.322S37.45 43 38 43s1-.702 1-1.559c0-.964-.477-1.285-1.25-.84-.687.396-.913.348-.502-.106s1.981-.956 3.486-1.117c1.506-.16 2.894-.761 3.085-1.335S44.606 37 45.142 37c.537 0 .677.483.312 1.074-.594.961 4.654-1.539 8.546-4.071 1.475-.959 10.959-5.175 14.108-6.272.884-.307 1.865-1.835 2.18-3.395.314-1.56.877-3.624 1.249-4.586.937-2.423-.581-2.19-10.211 1.564M78.25 54.659c-4.164.888-2.547 9.601 3.218 17.341 2.998 4.024 11.417 10.974 13.314 10.989.706.006-.608-2.493-2.918-5.553C86.942 70.917 83 63.475 83 60.702c0-1.785.469-1.898 5.25-1.271 2.888.378 6.713 1.546 8.5 2.595 1.787 1.048 3.25 1.557 3.25 1.129 0-1.312-3.902-5.053-6.873-6.589-3.097-1.602-11.349-2.66-14.877-1.907"/><path fill-opacity=".423" fill-rule="evenodd" d="M75 1.418c0 4.438 2.928 5.792 7.316 3.383 1.201-.66 3.099-1.09 4.218-.957 1.422.17 2.08-.372 2.188-1.801C88.863.167 88.308 0 81.938 0 76.615 0 75 .33 75 1.418m35-.489c0 .51.706 1.634 1.569 2.498 1.162 1.161 2.056 1.309 3.44.568 1.255-.671 2.077-.665 2.499.019.347.56 1.049.76 1.561.443.512-.316.931-.098.931.484S120.9 6 122 6c1.556 0 2-.667 2-3V0h-7c-3.85 0-7 .418-7 .929m48.762 32.934c.521 1.392.372 1.442-.994.331-1.372-1.114-1.563-1.041-1.305.5.33 1.972 2.276 1.917 4.364-.123 1.099-1.074.983-1.387-.675-1.821-1.54-.403-1.861-.146-1.39 1.113m2.488 2.168c-1.238.498-2.214 1.707-2.171 2.687.046 1.047.287 1.267.583.532.705-1.747 3.005-1.561 3.72.302.385 1.004.192 1.303-.548.845-.704-.435-.869-.263-.429.448.392.635 1.399 1.155 2.237 1.155s1.318.563 1.066 1.25-.964 1.138-1.583 1c-2.062-.458-1.159 1.579 1.625 3.667 1.512 1.133 3.414 2.629 4.225 3.322.812.694 1.824 1.317 2.25 1.386s1.113.235 1.525.368c.412.134 1.039.207 1.393.161.353-.045.854.726 1.113 1.715.276 1.059-.072 1.798-.849 1.798-.726 0-1.087-.375-.804-.834s-.208-.833-1.092-.833c-1.271 0-.998.888 1.306 4.25 4.158 6.065 7.698 13.363 10.35 21.336 3.261 9.805 3.267 28.64.013 39.119-6.652 21.419-22.498 39.016-44.354 49.254-14.349 6.722-22.925 8.505-40.993 8.524-8.616.009-16.014-.331-16.439-.756s.181-1.442 1.348-2.259 3.882-3.282 6.034-5.477c3.905-3.984 3.926-3.991 11.818-4.008 7.835-.018 19.39-1.933 24.622-4.082l2.715-1.115-1.963-3.849-1.964-3.85-3.961 1.398c-4.113 1.451-19.059 3.833-19.745 3.146-.215-.215.516-1.908 1.626-3.761 5.325-8.896 8.602-20.157 9.649-33.16l.709-8.79 4.262.639c5.15.772 14.393-1.676 18.873-4.999 4.548-3.373 13.609-4.751 25.987-3.951 9.293.601 10.623.485 11.183-.976 1.013-2.639-1.312-4.434-7.369-5.692-5.264-1.092-5.502-1.263-3.673-2.641 1.447-1.091 3.827-1.361 9.158-1.04l7.202.434 1.548-3.867c.851-2.127 1.547-4.796 1.547-5.931 0-2.945-7.431-9.956-9.25-8.727-.137.093-1.331-.409-2.652-1.116-2.094-1.121-2.323-1.083-1.793.299.334.871.108 1.893-.503 2.27-.673.416-.83.232-.397-.467.392-.635.236-1.155-.346-1.155S167 74.675 167 75.5s.719 1.5 1.599 1.5c1.917 0 7.401 5.635 7.401 7.606 0 .943-1.212 1.396-3.75 1.4-7.153.01-11.497 1.956-16.978 7.605-2.928 3.019-6.117 5.389-7.25 5.389-2.104 0-2.555-.91-1.272-2.571.412-.534.074-.287-.753.55C140.526 102.515 131.128 107 125 107c-1.612 0-5.048-.719-7.637-1.598-4.641-1.576-4.731-1.565-6.494.75-1.728 2.27-1.722 2.378.188 3.258 1.125.519 1.791 1.595 1.547 2.5-.236.875-.715 3.39-1.065 5.59-1.652 10.394-6.839 22.128-13.476 30.489-7.283 9.175-14.658 15.075-26.404 21.124l-5.841 3.008-8.395-4.101c-7.539-3.683-20.882-13.182-24.191-17.221-1.092-1.333-.467-1.926 4.5-4.272 16.447-7.769 30.222-22.025 41.171-42.61 5.421-10.193 6.346-12.775 3.097-8.644-1.1 1.398-2 2.804-2 3.124 0 .319-1.984 3.19-4.409 6.379-5.358 7.044-17.34 18.563-23.954 23.027-5.489 3.704-5.569 3.67-9.76-4.21-5.41-10.173-6.938-26.421-3.535-37.593 4.033-13.237 16.232-27.476 29.211-34.095 3.878-1.977 6.877-4.115 6.665-4.751-.241-.722.303-.932 1.448-.56 1.171.38 1.405.282.647-.27-.653-.475-2.903-.71-5-.52s-5.516.461-7.597.604-4.331.851-5 1.573c-.969 1.045-.93 1.149.189.511.948-.541 1.169-.421.68.37-.398.644-1.111.931-1.585.638s-1.144-.075-1.49.484c-.345.559-1.487 1.016-2.538 1.016-1.309 0-1.723.485-1.318 1.541.325.847.199 1.469-.281 1.381-2.06-.376-3.265.286-6.978 3.828-13.306 12.696-19.174 27.792-18.086 46.529.646 11.132 2.014 15.898 7.255 25.269l3.433 6.139-7.028 2.05-7.028 2.05-4.374-9.143c-5.688-11.89-6.984-17.769-6.868-31.144.115-13.18 1.701-19.751 7.722-32 3.669-7.463 4.361-9.768 4.056-13.5-.202-2.475-.393-5.175-.424-6-.124-3.333-9.139 9.153-13.718 19-10.847 23.328-10.03 48.037 2.348 70.93 5.839 10.798 11.447 17.434 22.721 26.885 8.064 6.761 24.06 14.793 35.096 17.625l5 1.283.29 8.138.291 8.139H90v-13.578l10.5-.047 10.5-.048V200h13.919l.291-8.046.29-8.047 8.937-3c18.184-6.105 31.32-14.865 43.523-29.026 7.057-8.189 10.941-14.724 14.722-24.768 2.891-7.682 5.318-19.786 5.318-26.531.001-20.308-10.754-44.015-26.911-59.325-3.624-3.433-6.814-6.217-7.089-6.186s-1.512.463-2.75.96M165.5 46c.34.55.816 1 1.059 1s.441-.45.441-1-.477-1-1.059-1-.781.45-.441 1m6 2c-1.63.701-1.688.872-.309.93.93.038 1.969-.38 2.309-.93.711-1.15.676-1.15-2 0M76 57.41c0 5.554 2.579 11.04 7.911 16.83C88.613 79.345 93.46 83 95.528 83c.345 0-.907-1.793-2.783-3.984-3.841-4.488-8.474-12.584-9.753-17.045C82.142 59.008 82.151 59 86.4 59c2.508 0 6.201.982 8.976 2.387 5.499 2.784 5.598 1.526.222-2.825-3.368-2.725-4.629-3.094-11.687-3.414L76 54.788zm39 1.567c0 1.239 6.275 5.426 11.187 7.466 3.53 1.466 3.68 1.447 3.538-.448-.156-2.063-5.804-4.682-7.644-3.545-.527.326-1.323.02-1.77-.679-1.159-1.816-5.311-4-5.311-2.794M129.539 70.2c-1.079.625-3.779 1.705-6 2.401l-4.039 1.265 6 .053c6.863.061 10.73-.738 9.92-2.049-.307-.496-.988-.637-1.514-.312-.525.325-.832.051-.681-.609.393-1.712-1.395-2.075-3.686-.749M141 71.393c0 .216.698.661 1.552.989.89.341 1.291.173.941-.393-.587-.951-2.493-1.406-2.493-.596"/><path fill-opacity=".251" fill-rule="evenodd" d="M76 1.368c0 1.765 7.159 1.656 7.75-.118C84.038.386 82.906 0 80.083 0 77.295 0 76 .434 76 1.368m9.75-.706c.688.278 1.813.278 2.5 0 .688-.277.125-.504-1.25-.504s-1.937.227-1.25.504M119 .893c0 1.151 2.142 1.937 3.75 1.376C124.93 1.509 124.099 0 121.5 0c-1.375 0-2.5.402-2.5.893m45.449 35.925c-1.206.867-1.798 3.516-.624 2.79.89-.55 5.175 3.756 5.175 5.2 0 .435 1.125.792 2.5.792 3.037 0 3.13-.661.444-3.175a382 382 0 0 1-4.301-4.107c-1.235-1.2-2.673-1.875-3.194-1.5m2.152 11.346c.255.412 1.124.495 1.931.185 2.036-.781 1.834-1.252-.463-1.079-1.062.08-1.722.482-1.468.894m11.105 1.821c.302 1.155.155 2.028-.328 1.939-2.275-.417-2.588.215-.819 1.65 1.067.866 1.42 1.315.784.999q-1.155-.573-.592 1.582c.377 1.444.193 1.928-.558 1.464-1.301-.803 1.361 6.093 3.234 8.381 2.208 2.696 5.526 12.07 7.204 20.349 2.102 10.373 1.382 25.368-1.663 34.651-9.682 29.517-37.66 51.663-70.891 56.114-8.246 1.105-29.455.842-30.677-.381-.34-.339 2.019-3.102 5.241-6.139l5.859-5.521 6.619-.037c7.355-.04 22.434-2.42 26.195-4.133 2.301-1.048 2.354-1.261.995-3.985-.79-1.583-1.802-3.105-2.25-3.381-.447-.277-4.806.379-9.686 1.458s-10.341 1.971-12.136 1.983l-3.262.022 2.53-4.009c5.893-9.334 9.458-21.911 9.352-32.991-.068-7.209-.106-7.326-.979-3-2.36 11.7-5.667 19.728-11.999 29.132-4.062 6.031-13.47 15.034-18.379 17.587-1.65.858-3.225 1.887-3.5 2.286-.627.911-7.74 4.503-10.777 5.443-4.277 1.322-23.877-10.146-32.139-18.806l-3.416-3.58 4.916-2.286c17.155-7.976 30.852-21.818 42.107-42.555 4.777-8.803 5.579-11.584 1.645-5.703-4.332 6.474-10.345 13.652-15.763 18.819C59.384 122.285 48.132 131 46.933 131c-1.222 0-5.585-7.424-7.934-13.5-3.184-8.238-3.293-25.186-.217-33.672 2.134-5.886 7.414-14.707 11.095-18.536C51.045 64.077 52 62.6 52 62.01c0-.591 1.013-1.481 2.25-1.979 1.464-.588 1.693-.926.655-.968-.877-.034-2.41.837-3.405 1.937s-2.565 2-3.488 2c-2.407 0-3.172 1.102-1.862 2.681.906 1.091.771 1.226-.673.672-1.347-.517-1.595-.353-.977.647.605.979.38 1.168-.836.701-.915-.351-1.664-.215-1.664.302s-1.445 1.314-3.211 1.772C32.795 71.328 28.275 81.884 27.344 96.5c-.755 11.845.704 19.147 5.895 29.5 2.343 4.675 4.401 8.808 4.572 9.184.172.377-2.719 1.594-6.422 2.705-7.816 2.345-7.328 2.639-12.24-7.389-8.064-16.463-9.172-34.645-3.243-53.207 1.281-4.008 1.747-7.772 1.465-11.835-.227-3.277-.428-6.795-.446-7.819-.058-3.282-5.572 6.643-9.462 17.029-2.978 7.951-3.779 11.644-4.206 19.398-.697 12.635.383 22.508 2.703 24.723.985.941 2.131 2.836 2.546 4.211 1.955 6.478 9.225 21.139 12.222 24.65 1.226 1.436 1.98 3.013 1.676 3.505s-.182.771.272.62c1.025-.342 4.763 3.322 5.592 5.481.937 2.442 13.476 12.423 20.232 16.106 7.764 4.232 13.47 6.512 21.474 8.58l6.474 1.672-.311 8.193-.31 8.193h14.326l-.201-5.25C89.59 185.27 88.71 186 100.5 186H111v14h14v-16.777l3.7-.695c8.833-1.657 28.773-11.289 34.878-16.847.713-.649 2.981-2.531 5.04-4.181 10.337-8.287 21.335-24.947 25.743-39 3.692-11.767 3.674-32.354-.039-44-1.993-6.255-8.043-19.21-9.347-20.015-.536-.332-.975.399-.975 1.623s-.27 1.955-.6 1.625-.6-2.187-.6-4.127c0-2.019-.681-4.078-1.592-4.817-1.325-1.072-1.45-1.053-.745.116q.843 1.401-.265.717c-.611-.377-.885-1.275-.609-1.994s-.158-1.855-.965-2.525c-1.226-1.017-1.376-.872-.918.882m-97.45 5.764c.416.232.501.835.19 1.339-.337.545-1.356.496-2.507-.121-1.799-.962-1.896-.764-1.343 2.748.327 2.082 1.423 5.609 2.435 7.837 1.856 4.091 9.606 12.113 13.944 14.435 1.901 1.017 1.46-.016-2.309-5.408-5.304-7.587-7.104-10.905-8.045-14.829-.635-2.648-.512-2.75 3.301-2.75 4.198 0 6.158-1.372 3.446-2.412-.892-.343-2.326-.052-3.187.645-1.223.99-1.401.994-.814.017q.748-1.249-1.226-1.25c-1.088 0-2.577-.151-3.309-.336s-.992-.147-.576.085m99.451 1.262c-.286 1.094-.16 1.989.28 1.989 1.175 0 2.067-2.848 1.083-3.457-.463-.286-1.077.374-1.363 1.468M92.333 58.66c0 .737.211 1.13.468.873s1.6.424 2.986 1.514c1.385 1.089 2.72 1.78 2.966 1.534.795-.796-.723-2.42-3.606-3.858-2.32-1.157-2.814-1.168-2.814-.063m30.355 3.985c-.371.372.109 1.225 1.068 1.897 2.45 1.715 3.585 1.742 3.828.089.12-.818-.491-1.315-1.438-1.169-.905.14-1.902-.138-2.214-.619-.313-.48-.873-.569-1.244-.198M182 65.277c0 .463-.52.52-1.155.128-.721-.446-.882-.274-.43.457.398.644 1.142.912 1.654.595.512-.316.945.014.963.734q.03 1.313 1.349-.425c.724-.954 1.61-1.442 1.968-1.084s.651.131.651-.504c0-.636-1.125-1.062-2.5-.949s-2.5.586-2.5 1.048m-53.25 5.475c-1.831.413-2.486 3.248-.75 3.248.55 0 1-.388 1-.861 0-.474 1.238-.638 2.75-.364s2.525.31 2.25.079c-2.136-1.793-3.752-2.44-5.25-2.102M123.5 73c-1.908.82-1.897.863.25.93 1.237.038 2.25-.38 2.25-.93s-.112-.968-.25-.93c-.138.039-1.15.457-2.25.93m54.084 4.359c.347.902 1.332 1.641 2.19 1.641s1.372-.127 1.143-.283a91 91 0 0 1-2.19-1.641c-1.543-1.183-1.691-1.146-1.143.283M175 78.911c0 1.491.644 2.098 2.25 2.119 2.009.028 2.063.14.5 1.05-.963.561-1.75 1.897-1.75 2.97 0 1.099-.68 1.95-1.559 1.95-.924 0-1.268.47-.846 1.155.49.791.273.877-.69.273-.773-.484-2.903-.98-4.735-1.102-2.97-.199-3.186-.046-2 1.418 1.133 1.397 1.107 1.516-.17.801-1.22-.682-1.266-.587-.25.508.687.74 3.049 1.439 5.25 1.552 3.64.187 4.465-.36 4.152-2.755-.047-.357 1.09-.945 2.526-1.305 1.961-.492 2.326-.941 1.467-1.8-1.57-1.57-1.437-2.419.496-3.161 1.333-.511 1.418-.36.452.804-.811.978-.856 1.64-.142 2.082 1.617.999 1.257 1.962-1.136 3.043-2.819 1.273-3.364 3.062-1.187 3.898 1.967.755 2.606-.06 4.466-5.696 1.068-3.237 1.086-4.155.088-4.488-.691-.23-2.589-1.54-4.219-2.912-2.876-2.42-2.963-2.431-2.963-.404M162.094 89c.268 2.809-.092 4-1.211 4-.624 0-.886-.882-.593-2.002.513-1.959.461-1.957-2.461.124-1.641 1.168-3.462 3.172-4.045 4.452-1.044 2.292-5.805 4.149-7.675 2.993-.517-.319-2.215.484-3.774 1.786-7.054 5.887-17.346 8.074-24.985 5.309-4.003-1.45-4.229-1.42-6.336.823-2.057 2.19-2.077 2.36-.35 2.909 1.01.32 2.061.609 2.336.643.275.033 2.274.461 4.441.95 5.398 1.217 13.028-.378 18.738-3.916 7.341-4.55 15.328-5.712 30.559-4.448 6.118.508 7.335.35 7.862-1.024.975-2.541-1.345-4.434-6.432-5.248-2.567-.412-5.006-.659-5.418-.549-1.054.278-.934-.534.39-2.654.856-1.371.85-2.302-.025-3.737-.798-1.309-1.12-1.439-1.021-.411"/><path fill-opacity=".284" fill-rule="evenodd" d="M168.286 41.284c1.218 1.256 2.803 2.306 3.524 2.333.72.027.088-1-1.406-2.284-3.489-2.998-5.012-3.034-2.118-.049M180 61.441c0 .793.408 1.693.907 2.001.498.309.671-.34.383-1.441-.611-2.335-1.29-2.63-1.29-.56m-99.217 2.476c.529 1.417.398 1.426-1.259.083-1.726-1.398-1.775-1.356-.723.619.621 1.165.807 2.474.414 2.91s-.076.421.705-.033c1.066-.618 1.256-.398.764.885-.469 1.222.821 3.139 4.536 6.739 5.428 5.259 9.744 8.273 8.204 5.73-4.307-7.118-9.953-14.294-11.058-14.056-.751.161-1.366-.176-1.366-.75S81.375 65 81.833 65c.459 0 .834-.6.834-1.333 0-.734-.557-1.334-1.238-1.334-.712 0-.987.673-.646 1.584m106.636 5.333c-.692 2.178-.74 2.186-1.497.25-.43-1.1-.813-1.411-.852-.691-.038.72-.515 1.034-1.059.698-.587-.363-.721.086-.33 1.105.436 1.136.277 1.48-.471 1.018-.832-.514-.851.101-.072 2.336.716 2.053 1.723 3.034 3.115 3.034 1.958 0 1.974-.092.337-1.901-1.293-1.428-1.417-2.088-.501-2.654.752-.464.962-.337.549.331-.369.597-.213 1.368.346 1.714S188 74.361 188 73.437c0-1.41.252-1.473 1.559-.388 1.384 1.148 1.233 1.621-1.342 4.195-2.737 2.738-2.84 3.136-1.826 7.078.591 2.298 1.532 4.509 2.092 4.913q1.015.734-.054.75c-.712.01-.839 1.773-.379 5.265.648 4.922-.723 17.235-2.867 25.75-2.016 8.008-11.041 23.025-18.091 30.102-4.927 4.946-13.981 11.738-20.524 15.397-3.613 2.02-6.568 4.309-6.568 5.087s-.477 1.414-1.059 1.414-.735-.562-.34-1.25c.402-.698.331-.895-.161-.447-.484.442-.893 1.79-.91 2.996-.017 1.246-.677 2.214-1.53 2.242-.825.028-1.397.564-1.27 1.193.13.649-.639.976-1.777.757-1.104-.213-1.776-.014-1.495.441.793 1.283 4.474 1.986 5.1.974.308-.498 1.321-.908 2.251-.911 3.224-.009 18.829-8.655 26.163-14.495 4.097-3.262 12.342-11.672 16.176-16.5 6.476-8.155 13.21-23.318 14.854-33.447 1.273-7.839 1.27-21.848-.006-28.576-1.357-7.155-5.048-17.063-6.111-16.406-.474.293-.594-.165-.267-1.019.328-.854.128-1.552-.444-1.552-.571 0-1.361 1.013-1.755 2.25M11.458 72.068c-.363.588-1.238.847-1.944.576-3.23-1.24-8.47 29.251-6.016 35.007.434 1.017.705 3.199.602 4.849s.17 2.54.607 1.978c1.216-1.565 6.293-1.437 6.293.159 0 .75.338 1.363.75 1.363s.75-10.125.75-22.5-.086-22.5-.191-22.5-.488.481-.851 1.068M191 77c0 .55.477 1 1.059 1s.781-.45.441-1-.816-1-1.059-1-.441.45-.441 1M31.554 78.862c.386.749.214 1.663-.382 2.032-3.339 2.064-5.203 20.198-3.089 30.057 1.183 5.515 2.824 6.35 6.417 3.266 1.779-1.527 2.014-3.045 2.124-13.717.098-9.478.553-13.103 2.163-17.247l2.038-5.247-2.662.626c-1.465.344-3.075 1.002-3.578 1.462-.509.465-1.541.075-2.324-.879-.775-.943-1.093-1.102-.707-.353M190 87.941c0 1.324.624 2.031 1.75 1.98 1.056-.048 1.252-.28.494-.585-.691-.279-1.021-.887-.734-1.352s.065-1.128-.494-1.474c-.562-.348-1.016.291-1.016 1.431m-10 .951c0 .674-.45.948-1 .608s-1-.141-1 .441.423 1.059.941 1.059c1.235 0 2.427-1.965 1.659-2.733-.33-.33-.6-.049-.6.625m-21.595 2.953c.452.732-.05 1.155-1.371 1.155-1.278 0-2.436.926-2.994 2.394-1.112 2.926-6.5 5.78-9.492 5.029-1.347-.339-2.706.062-3.515 1.037q-2.973 3.586 4.181 1.628c2.357-.646 4.736-1.28 5.286-1.409s1.632-.63 2.405-1.112c.961-.6 1.179-.512.69.278-.392.635-.263 1.155.287 1.155s1.261-.423 1.581-.94c.358-.579 1.745-.535 3.61.115 1.666.581 3.306.779 3.645.441.338-.339-.095-.616-.963-.616-1.1 0-1.494-.776-1.298-2.557.19-1.732-.129-2.399-.99-2.069-1.335.512-1.423-1.054-.173-3.055a1.38 1.38 0 0 0-.432-1.904c-.731-.452-.903-.291-.457.43m-78.87 7.742c-.932 1.422-1.467 2.814-1.189 3.093.279.278 1.226-.886 2.106-2.587 1.944-3.76 1.409-4.056-.917-.506m78.198-.463c.679.684 1.486.991 1.793.683.308-.308-.247-.867-1.233-1.243-1.425-.542-1.54-.428-.56.56m7.267-.206c0 .505-.286 1.743-.635 2.75-.56 1.618-.441 1.598 1.015-.168.913-1.108 1.531-1.39 1.384-.633-.145.752.523 1.5 1.486 1.662 2.072.348 2.167-.395.358-2.779-1.412-1.859-3.608-2.366-3.608-.832m7.192 2.147c-.665 1.064-.81 1.935-.323 1.935 1.373 0 3.333-2.757 2.38-3.346-.467-.289-1.393.346-2.057 1.411m-96.988 4.98c-.773 1.238-.839 1.955-.181 1.955.572 0 1.306-.694 1.632-1.543.9-2.346-.072-2.621-1.451-.412m35.979.459-2.118 2.436 4.218 1.168c6.003 1.661 11.41 1.491 17.557-.553 3.869-1.286 5.038-2.077 4.245-2.87s-2.225-.794-5.188-.003c-3.899 1.041-12.434-.042-15.559-1.973-.57-.352-1.99.455-3.155 1.795M137 105.059c0 .582.45.781 1 .441s1-.816 1-1.059-.45-.441-1-.441-1 .477-1 1.059m-106.187 9.624c.721.289 1.584.253 1.916-.079s-.258-.568-1.312-.525c-1.165.048-1.402.285-.604.604m80.871 3.669c-.447 2.119-.559 4.106-.248 4.417 1.131 1.131 1.689-.657 1.379-4.419l-.317-3.85zM124 153.902c0 .539.457 1.263 1.016 1.608s.777 1.016.484 1.49-.106 1.125.415 1.447c2.024 1.251 2.183-1.707.191-3.563-1.158-1.079-2.106-1.521-2.106-.982m-27.297 6.556c.988 1.351 2.471 2.73 3.295 3.063s.178-.772-1.437-2.457c-3.541-3.697-4.297-3.944-1.858-.606m16.63 34.945c0 1.509 2.158 1.536 3.388.043.428-.52.37-.612-.129-.205s-1.437.303-2.083-.234c-.804-.666-1.176-.541-1.176.396"/></svg>