<!-- Generated by IcoMoon.io -->
<svg version="1.1" xmlns="http://www.w3.org/2000/svg" width="32" height="32" viewBox="0 0 32 32" fill="#000000">
<title>cns</title>
<path d="M15.278 0.217c-0.17 0.119-0.403 0.398-0.518 0.619s-0.208 0.536-0.208 0.7c0 0.164 0.095 0.499 0.211 0.743s0.398 0.554 0.626 0.689l0.415 0.245v1.73c0 1.164-0.050 1.73-0.153 1.73-0.084 0-0.374 0.105-0.644 0.233-0.286 0.136-0.658 0.496-0.89 0.862-0.315 0.497-0.398 0.79-0.399 1.4l-0.001 0.772-1.488 0.803-0.416-0.308c-0.229-0.169-0.672-0.342-0.985-0.384s-0.79-0.035-1.060 0.016c-0.27 0.051-0.678 0.249-0.906 0.441l-0.414 0.349-1.606-0.922c-1.455-0.835-1.606-0.959-1.606-1.317 0-0.22-0.156-0.58-0.352-0.813-0.194-0.23-0.562-0.488-0.818-0.572-0.371-0.122-0.577-0.109-1.011 0.064-0.302 0.121-0.65 0.396-0.781 0.618-0.13 0.22-0.236 0.596-0.236 0.837s0.098 0.627 0.218 0.858c0.121 0.234 0.428 0.509 0.691 0.619 0.26 0.109 0.58 0.198 0.712 0.198s0.498-0.126 0.816-0.279l0.577-0.279 2.897 1.674-0.048 0.693c-0.034 0.503 0.036 0.865 0.257 1.321 0.211 0.435 0.492 0.738 0.917 0.987l0.612 0.359v2.041l-0.524 0.294c-0.288 0.162-0.676 0.516-0.861 0.787-0.234 0.341-0.356 0.744-0.397 1.311l-0.059 0.819-1.593 0.914c-1.064 0.611-1.647 0.872-1.756 0.786-0.090-0.071-0.324-0.167-0.52-0.213s-0.584-0.022-0.863 0.055c-0.291 0.080-0.628 0.31-0.791 0.539-0.184 0.258-0.284 0.617-0.284 1.018 0 0.465 0.085 0.711 0.342 0.988 0.188 0.203 0.516 0.435 0.728 0.516s0.579 0.111 0.815 0.066c0.236-0.044 0.605-0.264 0.821-0.489 0.285-0.298 0.409-0.59 0.457-1.076l0.065-0.667 3.076-1.744 0.358 0.342c0.197 0.188 0.534 0.408 0.75 0.49s0.646 0.148 0.958 0.148c0.312 0 0.829-0.131 1.151-0.292l0.584-0.292 1.573 0.888v0.761c0 0.418 0.070 0.897 0.156 1.064s0.347 0.506 0.581 0.753c0.234 0.247 0.629 0.516 0.878 0.599l0.453 0.149-0.006 1.659-0.006 1.659-0.448 0.277c-0.246 0.152-0.521 0.437-0.61 0.634s-0.163 0.58-0.163 0.852c0 0.376 0.113 0.607 0.473 0.967 0.26 0.26 0.62 0.48 0.799 0.489s0.421 0.006 0.535-0.006c0.115-0.012 0.369-0.085 0.564-0.161s0.462-0.318 0.591-0.537c0.129-0.219 0.235-0.607 0.235-0.863s-0.121-0.663-0.268-0.905c-0.147-0.242-0.397-0.48-0.556-0.531-0.27-0.086-0.288-0.194-0.288-1.801v-1.71l0.66-0.339c0.465-0.239 0.759-0.518 0.995-0.943 0.202-0.365 0.34-0.85 0.348-1.223 0.013-0.615 0.020-0.623 0.968-1.177l0.956-0.558 0.621 0.31c0.486 0.243 0.786 0.297 1.378 0.248 0.481-0.040 0.906-0.173 1.166-0.366l0.41-0.303 1.428 0.823c1.311 0.756 1.434 0.863 1.508 1.311 0.044 0.268 0.19 0.655 0.324 0.859s0.464 0.463 0.733 0.576c0.285 0.119 0.656 0.168 0.886 0.118 0.218-0.048 0.553-0.211 0.746-0.362s0.411-0.496 0.485-0.768c0.095-0.346 0.086-0.641-0.030-0.988-0.091-0.273-0.341-0.626-0.555-0.784-0.252-0.187-0.582-0.284-0.936-0.275-0.301 0.008-0.7 0.115-0.887 0.238-0.329 0.215-0.388 0.196-1.723-0.567l-1.382-0.79 0.070-0.867c0.061-0.754 0.023-0.946-0.291-1.481-0.198-0.338-0.513-0.715-0.699-0.837s-0.502-0.263-0.701-0.313c-0.349-0.088-0.362-0.127-0.362-1.119 0-0.654 0.055-1.028 0.153-1.028 0.084 0 0.374-0.105 0.644-0.233 0.286-0.136 0.658-0.496 0.89-0.861 0.306-0.483 0.398-0.795 0.398-1.348v-0.72l2.805-1.661 0.587 0.211c0.545 0.196 0.626 0.192 1.135-0.056 0.356-0.174 0.636-0.447 0.799-0.781 0.209-0.427 0.226-0.607 0.101-1.070-0.082-0.306-0.308-0.681-0.501-0.833s-0.529-0.315-0.747-0.363c-0.23-0.050-0.601-0.001-0.886 0.118-0.27 0.113-0.605 0.379-0.744 0.593-0.143 0.219-0.254 0.64-0.254 0.966v0.578l-2.757 1.576-0.36-0.343c-0.198-0.189-0.536-0.409-0.751-0.491s-0.645-0.148-0.954-0.148c-0.343 0-0.822 0.141-1.228 0.362l-0.665 0.362-0.911-0.536c-0.755-0.444-0.898-0.586-0.838-0.83 0.040-0.162 0.003-0.554-0.083-0.871s-0.345-0.792-0.576-1.056c-0.231-0.264-0.635-0.557-0.898-0.652l-0.477-0.173v-1.77c0-1.64 0.020-1.776 0.274-1.857 0.151-0.048 0.401-0.248 0.556-0.445 0.175-0.223 0.282-0.566 0.282-0.909 0-0.303-0.104-0.727-0.232-0.943s-0.381-0.46-0.563-0.543c-0.182-0.083-0.565-0.151-0.85-0.151s-0.658 0.098-0.828 0.217zM9.617 3.022c-0.153 0.038-0.451 0.192-0.663 0.342s-0.484 0.466-0.606 0.702c-0.151 0.292-0.201 0.648-0.156 1.115 0.053 0.553 0.161 0.781 0.562 1.181 0.419 0.419 0.61 0.504 1.236 0.55 0.568 0.042 0.843-0.010 1.184-0.224 0.244-0.154 0.544-0.432 0.667-0.619s0.258-0.561 0.302-0.832c0.057-0.353-0.009-0.677-0.235-1.143-0.239-0.494-0.452-0.713-0.886-0.91-0.314-0.143-0.696-0.253-0.849-0.246s-0.403 0.044-0.556 0.083zM21.271 3.2c-0.32 0.162-0.681 0.447-0.802 0.632s-0.254 0.603-0.295 0.929c-0.053 0.417-0 0.735 0.176 1.076 0.138 0.266 0.463 0.626 0.723 0.799 0.321 0.215 0.677 0.315 1.112 0.315 0.392-0 0.794-0.102 1.037-0.263 0.219-0.144 0.515-0.441 0.659-0.659 0.159-0.241 0.262-0.644 0.263-1.023 0-0.376-0.108-0.803-0.271-1.070-0.149-0.244-0.428-0.547-0.62-0.673s-0.586-0.258-0.876-0.293c-0.363-0.045-0.707 0.027-1.108 0.231zM19.367 11.193c0.425 0.242 0.433 0.265 0.371 1.097-0.057 0.762-0.021 0.915 0.349 1.489 0.302 0.468 0.584 0.711 1.054 0.904l0.641 0.264 0 0.993c0.001 0.962-0.011 0.996-0.373 1.087-0.206 0.052-0.551 0.22-0.768 0.374s-0.526 0.538-0.686 0.854c-0.241 0.472-0.278 0.726-0.211 1.445l0.081 0.872-1.662 0.974-0.616-0.47c-0.339-0.259-0.868-0.513-1.176-0.565-0.333-0.056-0.772-0.025-1.084 0.077-0.288 0.095-0.722 0.322-0.963 0.505l-0.439 0.333-1.384-0.851 0.070-0.874c0.057-0.708 0.015-0.983-0.222-1.446-0.16-0.315-0.476-0.703-0.7-0.863s-0.604-0.33-0.842-0.378l-0.434-0.087 0.024-1.024c0.018-0.796 0.069-1.024 0.227-1.024 0.112 0 0.425-0.105 0.695-0.233 0.285-0.135 0.662-0.5 0.898-0.869 0.358-0.559 0.402-0.741 0.364-1.511l-0.042-0.875 0.724-0.396c0.627-0.343 0.747-0.369 0.894-0.192 0.093 0.112 0.406 0.325 0.694 0.472s0.78 0.268 1.091 0.268c0.312 0 0.768-0.086 1.014-0.191s0.598-0.354 0.782-0.554c0.335-0.363 0.335-0.363 0.765-0.107 0.236 0.141 0.625 0.368 0.864 0.504zM2.874 14.070c-0.268 0.074-0.652 0.291-0.855 0.484s-0.432 0.597-0.508 0.9c-0.093 0.367-0.093 0.721-0.001 1.065 0.076 0.283 0.295 0.68 0.486 0.883s0.595 0.432 0.898 0.508c0.367 0.093 0.717 0.093 1.054 0 0.277-0.076 0.675-0.31 0.884-0.519s0.444-0.611 0.522-0.893c0.088-0.317 0.094-0.678 0.018-0.945-0.068-0.237-0.22-0.579-0.338-0.759s-0.386-0.414-0.596-0.52c-0.21-0.106-0.538-0.225-0.729-0.265s-0.567-0.013-0.834 0.061zM27.831 14.111c-0.306 0.109-0.697 0.373-0.868 0.586s-0.351 0.591-0.398 0.84c-0.047 0.248-0.045 0.666 0.004 0.928s0.264 0.663 0.477 0.892c0.213 0.228 0.637 0.482 0.942 0.564 0.369 0.099 0.71 0.104 1.020 0.015 0.257-0.074 0.619-0.276 0.805-0.45s0.426-0.485 0.534-0.692c0.107-0.207 0.195-0.588 0.195-0.848 0-0.262-0.14-0.679-0.313-0.933-0.172-0.253-0.469-0.57-0.66-0.705s-0.535-0.28-0.765-0.321c-0.229-0.042-0.667 0.014-0.973 0.123zM9.272 25.27c-0.266 0.134-0.631 0.462-0.812 0.73-0.27 0.401-0.318 0.618-0.269 1.227 0.050 0.622 0.138 0.819 0.555 1.236 0.402 0.402 0.624 0.507 1.17 0.554 0.472 0.041 0.816-0.017 1.15-0.193 0.262-0.138 0.598-0.416 0.745-0.617s0.297-0.639 0.331-0.973c0.044-0.429-0.015-0.749-0.204-1.093-0.147-0.268-0.51-0.626-0.808-0.797s-0.729-0.311-0.959-0.313c-0.229-0.001-0.635 0.107-0.901 0.241zM21.212 25.303c-0.275 0.146-0.605 0.424-0.732 0.619s-0.265 0.62-0.306 0.946c-0.053 0.417-0 0.735 0.176 1.076 0.138 0.266 0.463 0.626 0.723 0.799 0.293 0.196 0.682 0.316 1.024 0.316 0.308 0 0.788-0.133 1.087-0.301 0.294-0.165 0.631-0.503 0.749-0.751s0.214-0.697 0.214-0.999c0-0.34-0.12-0.73-0.316-1.022-0.174-0.26-0.533-0.582-0.799-0.715s-0.671-0.241-0.901-0.237c-0.229 0.003-0.642 0.125-0.918 0.27z"/>
</svg>
