<svg xmlns="http://www.w3.org/2000/svg" width="200" height="200" fill="#000000"><path fill-opacity=".027" fill-rule="evenodd" d="M89.571 35.571C88.341 36.802 88 39.439 88 47.731V58.32l-5.84 5.84L76.32 70h-9.505c-10.561 0-12.359-.9-12.981-6.5-.326-2.929-.464-3-5.834-3h-5.5v10l4.498.32c7.411.526 8.002 1.657 8.002 15.3 0 14.106-.201 13.88 12.35 13.88h8.481l7.835 9.054 7.834 9.054.558 7.569c.716 9.728 1.47 10.323 13.074 10.323 4.813 0 8.979-.37 9.258-.822s.583-2.815.675-5.25c.249-6.632.654-7.476 4.945-10.316 3.703-2.45 4.687-2.612 15.912-2.612 15.158 0 15.078.079 15.078-15 0-15.136.14-15-15.485-15C120.018 87 120 87.013 120 98.453c0 8.29-.008 8.316-3.432 10.927-4.805 3.665-8.097 4.719-12.527 4.011-3.211-.514-4.763-1.745-9.682-7.68-9.375-11.309-9.345-11.245-9.352-20.311-.006-7.346.26-8.463 2.857-12 5.617-7.647 6.628-8.146 17.397-8.591 13.005-.536 12.91-.425 13.189-15.376.292-15.678.536-15.433-15.379-15.433-9.51 0-12.247.319-13.5 1.571m40.4 14.964c-.7.844-1.214 2.981-1.141 4.75.287 6.943-.585 8.314-8.021 12.62-6.373 3.69-7.741 4.095-13.819 4.095-4.573 0-7.121.452-7.911 1.405-.732.882-1.057 4.327-.873 9.25L98.5 90.5l8.721.289c9.579.316 9.167.595 9.999-6.767.212-1.873 1.865-3.399 6.776-6.25 6.16-3.577 6.945-3.772 15.212-3.772h8.717l5.288 4.307 5.287 4.306.265 9.444c.356 12.707.645 12.943 15.807 12.943 15.248 0 15.44-.193 15.396-15.439-.043-15.138.16-14.925-14.842-15.561l-11.792-.5-4.667-3.907L154 65.685v-7.142c0-4.222-.491-7.634-1.2-8.343-1.905-1.905-21.205-1.622-22.829.335m-102.4 39.036C26.396 90.746 26 93.227 26 99.404v8.261l-3.941 3.168C19.28 113.065 17.061 114 14.537 114c-4.455 0-6.151 2.851-4.8 8.065.862 3.327 1.045 3.435 5.81 3.435h4.919l.645-3.966c.699-4.302 6.193-10.015 8.704-9.052.742.285 4.18.518 7.64.518 5.881 0 6.562.246 10.419 3.772 4.101 3.749 4.126 3.816 4.126 10.943C52 137.063 53.159 138 64.723 138 76.111 138 77 137.069 77 125.155 77 113.847 76.244 113 66.149 113c-7.04 0-7.29-.088-11.671-4.127-4.45-4.102-4.478-4.17-4.478-10.845C50 88.846 48.965 88 37.743 88c-6.485 0-8.987.386-10.172 1.571m129.053 25.966c-.343.895-.624 3.383-.624 5.529 0 2.87-.728 4.69-2.75 6.876-2.635 2.85-3.148 2.985-12.25 3.24-10.171.285-12-.206-12-3.222 0-2.022-3.345-3.421-6.671-2.79-1.367.26-1.907 1.419-2.136 4.589-.299 4.117-.22 4.241 2.702 4.241 1.656 0 4.157.522 5.558 1.161 2.343 1.067 2.547 1.672 2.547 7.565 0 9.854.444 10.274 10.861 10.274 7.826 0 9.021.247 10.895 2.25 1.224 1.309 2.238 3.922 2.424 6.25l.32 4 5.75.3 5.75.3V154h-4.845c-6.939 0-8.155-1.7-8.155-11.395 0-6.778.32-8.158 2.581-11.122 2.265-2.969 3.215-3.421 7.75-3.684l5.169-.299v-13l-6.126-.294c-4.915-.237-6.249.026-6.75 1.331"/><path fill-opacity=".065" fill-rule="evenodd" d="M89.655 35.829C88.337 37.285 88 39.787 88 48.11v10.453l-5.779 5.718L76.442 70h-9.566c-7.997 0-9.837-.3-11.221-1.829-.91-1.006-1.655-2.544-1.655-3.418C54 60.916 52.843 60 48 60c-5.055 0-6 .866-6 5.5 0 4.433 1.004 5.5 5.173 5.5 7.52 0 7.827.544 7.827 13.88 0 14.922.159 15.12 12.138 15.12 5.318 0 9.038.466 9.977 1.25.824.688 4.735 5.13 8.692 9.873L93 119.745v6.473c0 8.798 1.17 9.782 11.629 9.782 4.866 0 8.438-.467 9.171-1.2.66-.66 1.2-3.582 1.2-6.494 0-5.058.185-5.427 4.15-8.3 4.054-2.936 4.423-3.006 15.929-3.006 15.348 0 14.921.429 14.921-15 0-15.44.44-15-15.015-15C120.402 87 120 87.327 120 99.177v7.731l-4.703 3.591c-4.157 3.174-5.28 3.557-9.672 3.296-4.93-.293-5.029-.367-12.797-9.553L85 94.985V75.852l5.652-5.926L96.304 64h9.277c12.48 0 12.419.074 12.419-14.916 0-15.35.268-15.084-15.174-15.084-9.887 0-11.75.259-13.171 1.829M130.75 50.08c-1.348.785-1.75 2.35-1.75 6.815 0 6.585-.342 7.027-9.235 11.938C115.298 71.3 112.826 72 108.58 72c-2.997 0-6.604.439-8.015.975-2.413.918-2.565 1.386-2.565 7.918C98 91.104 97.907 91 107.048 91c8.521 0 8.987-.28 9.909-5.95.485-2.984 1.48-4.08 6.557-7.223 5.792-3.584 6.298-3.706 15.628-3.766l9.642-.061 5.108 4.593L159 83.185l.015 8.658c.009 4.761.346 9.152.75 9.757 1.686 2.525 5.601 3.4 15.215 3.4 9.402 0 10.283-.172 12.565-2.455 2.289-2.289 2.455-3.15 2.455-12.777C190 75.114 189.892 75 175.981 75h-10.906l-5.288-4.305-5.287-4.305-.281-7.445c-.21-5.529-.709-7.767-1.942-8.695-2.026-1.526-18.969-1.66-21.527-.17M28.56 89.527c-1.811.902-2.098 2.111-2.374 10l-.314 8.973-4.394 3.25c-3.012 2.228-5.508 3.25-7.936 3.25H10v4.893c0 5.17.844 6.107 5.5 6.107 4.262 0 5.5-1.04 5.5-4.621 0-2.571.798-4.133 3.25-6.364 3.007-2.735 3.831-2.959 11.022-2.986 7.734-.029 7.795-.008 12.25 4.098 4.413 4.068 4.478 4.221 4.478 10.566 0 10.031.319 10.31 11.785 10.292 5.343-.009 10.39-.442 11.215-.964 2.307-1.458 2.753-17.223.58-20.539-1.5-2.29-2.227-2.482-9.395-2.482h-7.769l-4.208-4.288C50.123 104.55 50 104.231 50 97.835c0-4.491-.455-6.968-1.428-7.775-1.806-1.499-17.249-1.91-20.012-.533m129.15 25.096c-.39.391-.71 2.659-.71 5.041 0 3.578-.634 5.032-3.647 8.368l-3.648 4.037-9.591-.285c-9.409-.279-9.618-.338-10.934-3.09-1.162-2.428-1.836-2.764-5.011-2.5-3.468.289-3.669.498-3.669 3.806 0 3.25.243 3.523 3.399 3.824 1.869.179 4.457 1.018 5.75 1.865 2.112 1.384 2.351 2.282 2.351 8.819 0 8.574-.117 8.482 10.832 8.514 9.658.028 11.929 1.493 12.365 7.978l.303 4.5h11v-11l-4.5-.317c-7.146-.502-9-2.938-9-11.823 0-6.706.245-7.57 3.06-10.775 2.649-3.018 3.755-3.525 8.25-3.785l5.19-.3v-13l-5.54-.294c-3.047-.161-5.859.026-6.25.417"/><path fill-opacity=".112" fill-rule="evenodd" d="M92 34.741c-3.208 1.247-3.936 3.771-3.974 13.759l-.037 10-5.1 5.75-5.1 5.75h-10.74C54.968 70 53 69.043 53 63.171 53 60.032 52.949 60 48 60h-5v3.918c0 6.18.689 7.082 5.407 7.082 2.306 0 4.733.54 5.393 1.2.792.792 1.2 5.044 1.2 12.5 0 14.812.409 15.3 12.825 15.3 9.98 0 8.54-.872 18.677 11.305L93 119.111v6.888C93 134.763 94.397 136 104.288 136c9.482 0 10.708-.833 10.727-7.285.018-5.922.288-6.476 4.639-9.513 2.823-1.97 4.412-2.202 15.095-2.202 15.542 0 15.251.289 15.251-15.174C150 86.84 150.158 87 135.362 87c-14.565 0-14.759.15-15.208 11.818l-.345 8.98-4.318 3.101c-3.468 2.491-5.314 3.101-9.38 3.101-5.56 0-5.01.43-15.995-12.5l-5.098-6-.009-10.114L85 75.272l5.329-5.636L95.659 64h9.159C117.788 64 118 63.761 118 49.145c0-14.95-.217-15.177-14.403-15.066-5.553.043-10.772.341-11.597.662m38.571 15.83C129.534 51.609 129 53.963 129 57.5c0 5.066-1.616 8.5-4 8.5-.471 0-1.473.563-2.227 1.25-4.005 3.655-9.841 5.75-16.021 5.75-3.607 0-6.871.519-7.552 1.2-1.581 1.581-1.581 14.019 0 15.6 1.315 1.315 13.547 1.648 15.476.422.646-.412 1.321-2.533 1.5-4.715.304-3.722.727-4.201 6.82-7.737 6.293-3.653 6.796-3.77 16.173-3.77 10.432 0 9.1-.514 18.067 6.972C158.671 82.17 159 84.053 159 91.069c0 12.478.523 12.931 14.933 12.931 6.159 0 12.069-.466 13.133-1.035 1.753-.938 1.934-2.2 1.934-13.465s-.181-12.527-1.934-13.465c-1.064-.569-6.708-1.035-12.543-1.035h-10.609l-4.957-4.637L154 65.726v-6.708C154 49.769 153.021 49 141.243 49c-6.94 0-9.473.373-10.672 1.571M27.655 90.829C26.415 92.199 26 94.599 26 100.4c0 5.015-.451 8.158-1.281 8.921-4.49 4.131-6.242 5.114-10.005 5.617-4.208.561-4.214.569-4.514 5.186-.268 4.149-.063 4.666 2 5.037 1.265.226 3.65.164 5.3-.139 2.62-.481 3.007-.98 3.054-3.941.042-2.598.851-4.056 3.462-6.236 3.131-2.613 4.07-2.845 11.53-2.845 8.103 0 8.131.009 12.508 4.05 4.286 3.957 4.395 4.214 4.777 11.25.216 3.96.847 7.763 1.403 8.45 1.36 1.682 18.891 1.725 20.566.05.764-.764 1.2-4.631 1.2-10.64 0-11.534-.479-12.083-10.57-12.128-6.643-.03-7.322-.248-11.25-3.61-4.152-3.554-4.18-3.624-4.18-10.428C50 89.648 49.227 89 38.084 89c-7.23 0-9.065.322-10.429 1.829M158.75 115.08c-1.219.71-1.758 2.295-1.777 5.22-.02 3.138-.76 5.085-2.926 7.7-2.854 3.445-3.046 3.509-12.223 4.042-9.184.534-13.104-.358-13.449-3.061l-.25-1.981c-.069-.55-1.7-1-3.625-1-3.417 0-3.5.095-3.5 4 0 3.764.175 4 2.953 4 1.624 0 4.099.522 5.5 1.161 2.383 1.085 2.547 1.619 2.547 8.3 0 4.219.491 7.63 1.2 8.339.743.743 4.398 1.2 9.592 1.2 9.488 0 12.782 1.579 12.61 6.045-.054 1.399.278 3.561.738 4.805.733 1.981 1.425 2.223 5.598 1.955l4.762-.305.311-4.903c.354-5.584-.51-6.559-5.838-6.582-1.941-.008-4.528-.716-5.75-1.572-1.991-1.394-2.223-2.415-2.223-9.797 0-8.208.015-8.254 3.75-11.883 2.997-2.911 4.654-3.705 8.25-3.953l4.5-.31.308-4.828c.172-2.701-.212-5.454-.872-6.25-1.359-1.636-7.604-1.846-10.186-.342"/><path fill-opacity=".136" fill-rule="evenodd" d="M90.571 36.571c-1.216 1.217-1.58 3.869-1.61 11.75L88.922 58.5l-5.223 5.808-5.223 5.808-11.426.069c-10.667.065-11.546-.079-13.238-2.169C52.815 66.785 52 64.478 52 62.889 52 60.185 51.744 60 48 60h-4v10h4.071c6.579 0 7.32 1.462 7.033 13.881-.236 10.231-.14 10.788 2.315 13.437 2.451 2.645 2.913 2.751 10.821 2.473l8.26-.291 3.388 3.5c1.863 1.925 5.833 6.515 8.822 10.201 5.395 6.65 5.434 6.747 5.183 12.895-.338 8.27 1.488 9.904 11.063 9.904 8.504 0 10.28-1.535 9.762-8.432-.319-4.242-.056-4.934 2.714-7.142a448 448 0 0 0 3.964-3.186c.493-.407 5.997-.6 12.232-.43 15.933.436 15.935.434 15.669-14.578-.268-15.217-.291-15.242-13.702-15.2-13.471.042-13.841.344-14.549 11.895-.3 4.9-.771 9.063-1.046 9.251-.275.189-2.3 1.704-4.5 3.369-3.246 2.455-4.943 3.017-9 2.982-6.081-.053-7.313-.914-15.39-10.756l-6.341-7.727V85.663c0-11.38.086-11.584 8.151-19.495l3.421-3.355 8.724.344c12.321.485 12.64.121 12.505-14.258-.132-14.038.014-13.899-14.69-13.899-8.428 0-11.075.338-12.309 1.571m41.216 13.982c-2.505 1.359-2.693 1.893-2.444 6.968.227 4.646-.088 5.83-2.037 7.662-1.268 1.191-2.313 1.75-2.321 1.241s-.346-.451-.75.127-3.381 2.528-6.616 4.332c-5.094 2.843-6.648 3.237-11.625 2.949-3.604-.208-6.165.118-6.87.876-.618.664-1.124 3.857-1.124 7.095C98 89.55 99.532 91 107.722 91c6.443 0 7.278-.636 7.278-5.543 0-2.755 2.65-5.476 8.903-9.14 4.05-2.374 5.356-2.594 15.016-2.527l10.581.073 4.367 3.818c2.403 2.101 4.765 3.969 5.25 4.152s.883 4.1.883 8.703c0 4.604.47 9.404 1.044 10.667 1.019 2.24 1.348 2.289 13.223 1.985 6.698-.172 12.641-.695 13.206-1.162.652-.539.845-5.347.527-13.187l-.5-12.339-11.502-.5c-12.306-.535-14.161-1.229-19.997-7.482-2.199-2.355-2.458-3.398-2.153-8.68.296-5.143.02-6.35-1.926-8.421-2.022-2.152-3.1-2.413-9.846-2.377-4.706.025-8.604.598-10.289 1.513M27.901 91.184c-.496.927-.901 5.298-.901 9.715 0 6.977-.259 8.169-1.978 9.089-1.088.582-3.092 2.173-4.454 3.535-1.763 1.763-3.572 2.479-6.273 2.483-3.725.005-3.798.078-3.942 3.944-.16 4.301.878 4.91 7.186 4.215 2.792-.307 3.009-.601 2.658-3.605-.311-2.663.145-3.665 2.461-5.404 1.563-1.174 3.313-2.521 3.888-2.994.575-.472 4.438-.949 8.585-1.059 7.338-.194 7.645-.105 11.454 3.326 2.153 1.938 4.204 3.535 4.558 3.548 1.279.046 2.237 3.659 2.792 10.523l.565 7 8.5.295c13.191.458 12.557 1.004 12.176-10.486-.202-6.076-.77-10.066-1.5-10.531-.647-.411-4.326-.755-8.176-.765-6.651-.018-7.219-.207-11.396-3.81-4.318-3.723-4.408-3.927-5.022-11.435-.344-4.205-.915-7.934-1.269-8.288s-4.776-.719-9.827-.812c-7.698-.141-9.33.105-10.085 1.516m131.349 24.478c-.722.292-1.25 2.282-1.25 4.713 0 3.636-.583 4.781-4.288 8.417L149.424 133h-8.147c-9.366 0-12.779-.988-13.547-3.923-.373-1.429-1.352-2.077-3.136-2.077-2.308 0-2.594.394-2.594 3.575 0 3.33.195 3.555 2.836 3.278 1.561-.163 4.084.52 5.608 1.518 2.655 1.74 2.755 2.101 2.387 8.621-.481 8.5.168 9.008 11.5 9.008 10.489 0 12.127 1.464 12.587 11.25.063 1.344.952 1.746 3.832 1.735 5.461-.023 6.429-.993 6.065-6.084l-.315-4.401-4.439-.317c-2.442-.174-5.705-1.217-7.25-2.318-2.695-1.919-2.811-2.344-2.811-10.306v-8.304l4.478-4.128c3.87-3.568 5.09-4.127 9-4.127H170v-4.893c0-3.539-.438-5.061-1.582-5.5-1.845-.708-7.359-.675-9.168.055"/></svg>