<svg xmlns="http://www.w3.org/2000/svg" width="200" height="200" fill="#000000"><path fill-opacity=".157" fill-rule="evenodd" d="M82.763 3.511C49.43 9.83 21.762 32.256 9.333 63.028 4.055 76.094 2.689 83.527 2.629 99.5c-.06 16.082 1.455 24.335 6.965 37.944 10.553 26.067 34.883 47.75 62.968 56.119 10.996 3.277 31.043 4.418 43.223 2.46 19.952-3.208 37.469-12.359 52.682-27.523 15.142-15.092 24.335-32.679 27.556-52.715 1.958-12.18.817-32.227-2.46-43.223C183.799 39.795 157.879 14.429 125 5.464c-12.079-3.293-30.64-4.151-42.237-1.953m30.892 28.318c-.91 1.006-1.655 2.073-1.655 2.373 0 .299-4.102 9.039-9.116 19.421-30.207 62.554-29.162 59.838-24.269 63.044 5.176 3.392 6.063 2.033 26.491-40.577C115.498 54.414 124 36.176 124 35.562s-.701-2.117-1.557-3.339c-1.922-2.745-6.476-2.949-8.788-.394M65.379 43.765c-1.301.852-17.654 25.849-18.678 28.548-.385 1.018.013 3.167.908 4.898 2.78 5.375 15.969 25.232 17.702 26.651 3.651 2.989 9.529-1.398 8.314-6.205-.3-1.186-3.704-7.005-7.564-12.93l-7.018-10.774 7.478-11.519C70.635 56.099 74 49.835 74 48.515c0-3.781-5.487-6.803-8.621-4.75m62.413.485c-.874.688-1.862 2.173-2.195 3.302-.607 2.057.577 4.313 10.341 19.695l4.282 6.748-6.486 10.252c-9.278 14.666-9.178 14.426-7.247 17.374 2.058 3.14 4.049 3.912 6.827 2.645C135.811 103.127 153 76.594 153 73.878c0-2.062-16.236-27.753-18.724-29.628-.912-.687-2.386-1.25-3.276-1.25s-2.333.563-3.208 1.25m-84.493 89.374c-8.612 4.246-9.243 16.392-1.109 21.35 2.566 1.565 5.052 2.019 11.06 2.022 7.601.004 7.75-.044 7.75-2.496 0-2.456-.138-2.5-7.927-2.5-7.373 0-8.073-.184-10-2.635-2.75-3.495-2.618-6.911.382-9.91 2.172-2.173 3.322-2.455 10-2.455 7.381 0 7.545-.054 7.545-2.5 0-2.439-.177-2.499-7.25-2.477-4.544.014-8.445.612-10.451 1.601m28 0c-8.612 4.246-9.243 16.392-1.109 21.35 6.113 3.727 14.292 1.863 17.293-3.941 3.425-6.624 1.057-14.151-5.522-17.553-3.642-1.884-6.632-1.843-10.662.144M96 144.586v12.586l11.584-.336 11.585-.336 2.862-3.206c3.916-4.386 4.71-9.245 2.276-13.934-2.981-5.745-7.05-7.36-18.541-7.36H96zm37.93-.931c-2.986 6.411-5.58 12.036-5.763 12.5-.184.465.857.845 2.312.845 2.307 0 3.072-.921 5.976-7.189l3.329-7.189 3.621 7.189c3.066 6.089 4.01 7.189 6.167 7.189 1.4 0 2.381-.338 2.178-.75s-2.816-6.026-5.809-12.473c-2.992-6.448-5.697-11.736-6.011-11.75-.313-.015-3.013 5.218-6 11.628m23.07.845V157h5v-25h-5zm-84.886-5.75c-5.55 4.608-2.417 13.25 4.804 13.25 5.32 0 7.619-2.942 7.197-9.211-.174-2.589-4.151-5.789-7.193-5.789-1.485 0-3.649.787-4.808 1.75M101 144.5v7.5h7.927c7.373 0 8.073-.184 10-2.635 2.75-3.495 2.618-6.911-.382-9.91-2.172-2.173-3.322-2.455-10-2.455H101z"/><path fill-opacity=".646" fill-rule="evenodd" d="M86.585 3.037C52.734 8.371 24.556 29.442 10.849 59.672 5.072 72.413 2.729 83.794 2.65 99.5c-.085 16.772 2.067 26.738 8.928 41.352 5.67 12.073 11.287 19.854 21.046 29.15 12.766 12.159 23.433 18.33 40.876 23.648 8.311 2.534 10.302 2.744 26 2.735 19.527-.011 26.943-1.51 41.206-8.328 21.709-10.377 36.974-25.642 47.351-47.351 6.715-14.048 8.292-21.723 8.361-40.706.066-17.855-.631-21.803-6.563-37.209-5.752-14.938-19.578-32.436-33.526-42.431-8.269-5.926-22.926-12.636-33.302-15.246-9.759-2.454-27.596-3.471-36.442-2.077m27.187 28.713c-1.508 1.716-36.935 75.039-38.235 79.133-.728 2.293 3.208 7.117 5.807 7.117 3.325 0 6.31-4.992 19.734-33 26.168-54.602 24.465-50.294 21.093-53.345-2.385-2.158-6.459-2.112-8.399.095m-48.987 12.5C62.596 45.963 46 72.16 46 73.902c0 2.095 17.831 29.819 19.62 30.506 4.237 1.625 8.38-.985 8.38-5.279 0-1.218-3.15-7.157-7-13.198S60 74.52 60 74s3.15-5.889 7-11.931 7-12.059 7-13.372c0-4.567-5.605-7.272-9.215-4.447M127 45c-1.1 1.1-2 2.763-2 3.696s3.413 7.008 7.585 13.5L140.17 74l-7.754 12.067c-6.856 10.668-7.646 12.376-6.818 14.732 1.002 2.85 5.121 4.907 7.78 3.886.887-.34 5.048-5.921 9.247-12.402C153.191 75.976 153 76.312 153 73.999c0-2.048-8.916-17.077-15.576-26.254C133.56 42.42 130.409 41.591 127 45m-84.81 89.026c-6.981 4.256-7.792 13.572-1.711 19.653C43.725 156.925 43.993 157 52.4 157c8.507 0 8.6-.027 8.6-2.5 0-2.431-.196-2.5-7.066-2.5-3.886 0-7.957-.477-9.048-1.061-2.892-1.548-4.22-5.718-2.864-8.993C43.526 138.317 46.86 137 54.547 137c6.217 0 6.453-.092 6.453-2.5 0-2.452-.149-2.5-7.75-2.496-6.008.003-8.494.457-11.06 2.022m28.879-.274c-7.683 3.914-8.939 13.578-2.59 19.927 2.745 2.745 4.075 3.32 7.671 3.317 4.81-.004 10.066-2.663 11.85-5.995 1.636-3.058 1.472-9.187-.34-12.692-1.675-3.239-6.94-6.31-10.811-6.307-1.292 0-3.893.788-5.78 1.75M96 144.5V157h22.2l3.341-3.341c1.838-1.838 3.662-4.621 4.055-6.186 1.083-4.313-1.496-10.505-5.494-13.19-2.993-2.011-4.63-2.283-13.75-2.283H96zm37.65-.557c-3.108 6.568-5.65 12.193-5.65 12.5 0 .306 1.129.557 2.509.557 2.093 0 3.041-1.078 5.715-6.5 1.763-3.575 3.51-6.5 3.881-6.5.372 0 1.951 2.925 3.508 6.5 2.538 5.825 3.129 6.5 5.693 6.5 1.573 0 2.711-.38 2.527-.845-2.076-5.261-11.356-24.155-11.864-24.155-.368 0-3.212 5.374-6.319 11.943m23.35.557V157h5v-25h-5zm-83.679-6.311c-3.053 1.476-4.669 5.767-3.414 9.066 1.153 3.033 3.869 4.745 7.527 4.745 6.297 0 9.012-8.931 3.931-12.927-2.893-2.276-4.744-2.48-8.044-.884M101 144.394V152h7.927c7.446 0 8.058-.166 10.079-2.734 1.577-2.006 1.99-3.534 1.55-5.737-.995-4.973-2.826-5.981-11.586-6.379l-7.97-.362z"/><path fill-opacity=".671" fill-rule="evenodd" d="M92.843 3.391c-1.575.826-3.024 1.028-3.558.494-.495-.495-3.072-.602-5.726-.238-3.508.481-4.959 1.166-5.31 2.507-.612 2.343-2.244 2.412-2.264.096-.011-1.192-.259-1.366-.78-.547-.421.662-2.775 1.524-5.233 1.917s-3.906.902-3.22 1.131c1.262.42 1.791 3.249.608 3.249-.352 0-1.253-.788-2.002-1.75-1.298-1.667-1.334-1.667-.753 0 .709 2.038-2.127 2.521-2.943.5-.277-.688-.547-.35-.598.75-.062 1.303-.358 1.585-.851.811-1.282-2.017-7.111 1.362-6.484 3.76.277 1.061.002 1.929-.612 1.929-.615 0-1.117-.691-1.117-1.535 0-2.211-3.836-.021-4.993 2.85-.484 1.202-.909 1.637-.944.966-.034-.67-.688-.978-1.452-.685-.804.308-1.176 1.35-.884 2.469.55 2.102-1.282 2.731-1.998.685-.316-.905-1.01-.742-2.515.594-1.158 1.027-1.825 2.505-1.506 3.337.414 1.08-.002 1.399-1.507 1.156-2.886-.468-9.196 5.769-9.216 9.109-.01 1.686-.29 2.121-.824 1.28-1.107-1.745-3.921 1.436-5.712 6.458-.749 2.099-1.381 3.167-1.405 2.375-.032-1.063-.401-.953-1.406.421-.749 1.024-1.162 2.623-.919 3.553.277 1.061-.271 1.878-1.471 2.192-1.285.336-2.937 3.089-5.034 8.387C4.204 76.8 2.644 85.62 2.84 103.299c.411 37.098 25.244 72.627 60.647 86.767 22.688 9.063 49.1 9.128 72.207.18C171.828 176.253 197 139.397 197 100.485 197 90.699 195.262 77 194.02 77c-.378 0-.697-1.237-.709-2.75-.031-3.89-6.145-18.779-8.957-21.813-1.295-1.397-2.354-3.026-2.354-3.62 0-2.232-4.261-8.012-5.011-6.799-.53.857-.932.883-1.423.089-.376-.609-.439-1.504-.139-1.989.887-1.435-3.34-6.089-4.964-5.466-1.265.486-1.975-.742-1.213-2.096C170.238 30.798 149.765 15 146.5 15c-.734 0-1.56-.562-1.838-1.25-.301-.747-.536-.545-.583.5-.089 1.965-1.602 2.33-2.648.638-.378-.611-.067-1.504.691-1.984 1.143-.725 1.122-.896-.122-1.007-.825-.074-1.909-.057-2.408.037-.5.095-1.281-.415-1.735-1.131-.634-.999-.83-1.012-.842-.053-.023 1.93-1.722 1.477-2.267-.605-1.154-4.412-35.742-9.987-41.905-6.754m4.236 1.192c.048 1.165.285 1.402.604.605.289-.722.253-1.585-.079-1.917s-.568.258-.525 1.312M110 5.5c0 .825.45 1.5 1 1.5s1-.675 1-1.5-.45-1.5-1-1.5-1 .675-1 1.5m-24 1c0 .825.45 1.5 1 1.5s1-.675 1-1.5S87.55 5 87 5s-1 .675-1 1.5m20.192-.425c.197.591.785 1.075 1.308 1.075s1.111-.484 1.308-1.075S108.417 5 107.5 5s-1.505.484-1.308 1.075M113 6.5c0 .825.45 1.5 1 1.5s1-.675 1-1.5-.45-1.5-1-1.5-1 .675-1 1.5m3.192-.425c.197.591.785 1.075 1.308 1.075s1.111-.484 1.308-1.075S118.417 5 117.5 5s-1.505.484-1.308 1.075M97.079 8.583c.048 1.165.285 1.402.604.605.289-.722.253-1.585-.079-1.917s-.568.258-.525 1.312M72 9.5c0 .825.675 1.5 1.5 1.5s1.5-.675 1.5-1.5S74.325 8 73.5 8 72 8.675 72 9.5m38 0c0 .825.45 1.5 1 1.5s1-.675 1-1.5-.45-1.5-1-1.5-1 .675-1 1.5m-41 1c0 .825.45 1.5 1 1.5s1-.675 1-1.5S70.55 9 70 9s-1 .675-1 1.5m34 0c0 .825.45 1.5 1 1.5s1-.675 1-1.5-.45-1.5-1-1.5-1 .675-1 1.5m3 .083c0 .871.534 1.406 1.188 1.188 1.854-.618 2.161-2.771.395-2.771-.87 0-1.583.713-1.583 1.583m7-.083c0 .825.45 1.5 1 1.5s1-.675 1-1.5-.45-1.5-1-1.5-1 .675-1 1.5m-24 1c0 .825.675 1.5 1.5 1.5s1.5-.675 1.5-1.5-.675-1.5-1.5-1.5-1.5.675-1.5 1.5m31 0c0 .825.45 1.5 1 1.5s1-.675 1-1.5-.45-1.5-1-1.5-1 .675-1 1.5m-22.921 1.083c.048 1.165.285 1.402.604.605.289-.722.253-1.585-.079-1.917s-.568.258-.525 1.312M72 13.5c0 .825.675 1.5 1.5 1.5s1.5-.675 1.5-1.5-.675-1.5-1.5-1.5-1.5.675-1.5 1.5m38 0c0 .825.45 1.5 1 1.5s1-.675 1-1.5-.45-1.5-1-1.5-1 .675-1 1.5m-54 1c0 .825.45 1.5 1 1.5s1-.675 1-1.5-.45-1.5-1-1.5-1 .675-1 1.5m6 0c0 .825.675 1.5 1.5 1.5s1.5-.675 1.5-1.5-.675-1.5-1.5-1.5-1.5.675-1.5 1.5m7 0c0 .825.45 1.5 1 1.5s1-.675 1-1.5-.45-1.5-1-1.5-1 .675-1 1.5m7 0c0 .825.45 1.5 1 1.5s1-.675 1-1.5-.45-1.5-1-1.5-1 .675-1 1.5m23.694-.861c-.799.799.104 2.361 1.365 2.361.518 0 .941-.675.941-1.5 0-1.546-1.18-1.987-2.306-.861M103 14.5c0 .825.45 1.5 1 1.5s1-.675 1-1.5-.45-1.5-1-1.5-1 .675-1 1.5m3 0c0 .825.402 1.5.893 1.5s1.152-.675 1.469-1.5c.35-.914.001-1.5-.893-1.5-.808 0-1.469.675-1.469 1.5m7 0c0 .825.45 1.5 1 1.5s1-.675 1-1.5-.45-1.5-1-1.5-1 .675-1 1.5m15 0c0 .825.45 1.5 1 1.5s1-.675 1-1.5-.45-1.5-1-1.5-1 .675-1 1.5m7 0c0 .825.45 1.5 1 1.5s1-.675 1-1.5-.45-1.5-1-1.5-1 .675-1 1.5m4.079.083c.048 1.165.285 1.402.604.605.289-.722.253-1.585-.079-1.917s-.568.258-.525 1.312M86 15.5c0 .658 1.35 1.234 3 1.281 1.911.054 3-.411 3-1.281s-1.089-1.335-3-1.281c-1.65.047-3 .623-3 1.281m30 0c0 .825.675 1.5 1.5 1.5s1.5-.675 1.5-1.5-.675-1.5-1.5-1.5-1.5.675-1.5 1.5m4 0c0 .825.45 1.5 1 1.5s1-.675 1-1.5-.45-1.5-1-1.5-1 .675-1 1.5m-61 1c0 .825.45 1.5 1 1.5s1-.675 1-1.5-.45-1.5-1-1.5-1 .675-1 1.5m37 0c0 .825.45 1.5 1 1.5s1-.675 1-1.5-.45-1.5-1-1.5-1 .675-1 1.5m29 0c0 .825.45 1.5 1 1.5s1-.675 1-1.5-.45-1.5-1-1.5-1 .675-1 1.5m6.192-.425c.197.591.786 1.075 1.308 1.075s1.111-.484 1.308-1.075S133.417 15 132.5 15s-1.505.484-1.308 1.075m-58.113 1.508c.048 1.165.285 1.402.604.605.289-.722.253-1.585-.079-1.917s-.568.258-.525 1.312M49 18.5c0 .825.45 1.5 1 1.5s1-.675 1-1.5-.45-1.5-1-1.5-1 .675-1 1.5m13 0c0 .825.675 1.5 1.5 1.5s1.5-.675 1.5-1.5-.675-1.5-1.5-1.5-1.5.675-1.5 1.5m4 0c0 .825.45 1.5 1 1.5s1-.675 1-1.5-.45-1.5-1-1.5-1 .675-1 1.5m3 0c0 .825.45 1.5 1 1.5s1-.675 1-1.5-.45-1.5-1-1.5-1 .675-1 1.5m7 0c0 .825.45 1.5 1 1.5s1-.675 1-1.5-.45-1.5-1-1.5-1 .675-1 1.5m30 0c0 .825.45 1.5 1 1.5s1-.675 1-1.5-.45-1.5-1-1.5-1 .675-1 1.5m8.079.083c.048 1.165.285 1.402.604.605.289-.722.253-1.585-.079-1.917s-.568.258-.525 1.312m20.566-.1c-.324.844-1.232 1.229-2.107.893-1.01-.387-1.538-.01-1.538 1.1 0 .997.513 1.451 1.25 1.108.688-.321 2.037-.86 3-1.2s1.75-1.24 1.75-2.001c0-1.84-1.637-1.77-2.355.1M138 18.5c0 .825.45 1.5 1 1.5s1-.675 1-1.5-.45-1.5-1-1.5-1 .675-1 1.5m3.667-.833c-1.151 1.15-.729 2.333.833 2.333.825 0 1.5-.675 1.5-1.5 0-1.562-1.183-1.984-2.333-.833M148 18.5c0 .917.484 1.505 1.075 1.308s1.075-.785 1.075-1.308-.484-1.111-1.075-1.308S148 17.583 148 18.5m-60.921 1.083c.048 1.165.285 1.402.604.605.289-.722.253-1.585-.079-1.917s-.568.258-.525 1.312m2.56-.889C88.513 19.82 88.954 21 90.5 21c.825 0 1.5-.423 1.5-.941 0-1.261-1.562-2.164-2.361-1.365m27.44.889c.048 1.165.285 1.402.604.605.289-.722.253-1.585-.079-1.917s-.568.258-.525 1.312M120 19.5c0 .825.45 1.5 1 1.5s1-.675 1-1.5-.45-1.5-1-1.5-1 .675-1 1.5m-66.921 1.083c.048 1.165.285 1.402.604.605.289-.722.253-1.585-.079-1.917s-.568.258-.525 1.312M59 20.5c0 .825.45 1.5 1 1.5s1-.675 1-1.5-.45-1.5-1-1.5-1 .675-1 1.5m38.079.083c.048 1.165.285 1.402.604.605.289-.722.253-1.585-.079-1.917s-.568.258-.525 1.312M49 22.5c0 .825.45 1.5 1 1.5s1-.675 1-1.5-.45-1.5-1-1.5-1 .675-1 1.5m13 0c0 .825.661 1.5 1.469 1.5.894 0 1.243-.586.893-1.5-.317-.825-.978-1.5-1.469-1.5S62 21.675 62 22.5m8.079.083c.048 1.165.285 1.402.604.605.289-.722.253-1.585-.079-1.917s-.568.258-.525 1.312M103 22.5c0 .825.45 1.5 1 1.5s1-.675 1-1.5-.45-1.5-1-1.5-1 .675-1 1.5m4.079.083c.048 1.165.285 1.402.604.605.289-.722.253-1.585-.079-1.917s-.568.258-.525 1.312M113 22.5c0 .825.45 1.5 1 1.5s1-.675 1-1.5-.45-1.5-1-1.5-1 .675-1 1.5m22 0c0 .825.45 1.5 1 1.5s1-.675 1-1.5-.45-1.5-1-1.5-1 .675-1 1.5m7.079.083c.048 1.165.285 1.402.604.605.289-.722.253-1.585-.079-1.917s-.568.258-.525 1.312m7 0c.048 1.165.285 1.402.604.605.289-.722.253-1.585-.079-1.917s-.568.258-.525 1.312M59 24.5c0 .825.45 1.5 1 1.5s1-.675 1-1.5-.45-1.5-1-1.5-1 .675-1 1.5m66 .441c0 1.132.45 2.059 1 2.059s1-.648 1-1.441-.45-1.719-1-2.059-1 .309-1 1.441m6-.358c0 .871.534 1.406 1.188 1.188 1.854-.618 2.161-2.771.395-2.771-.87 0-1.583.712-1.583 1.583M39 25.5c0 .825.45 1.5 1 1.5s1-.675 1-1.5-.45-1.5-1-1.5-1 .675-1 1.5m13 0c0 .825.45 1.5 1 1.5s1-.675 1-1.5-.45-1.5-1-1.5-1 .675-1 1.5m20.527-.544c-.325.526-1.252.703-2.059.393-.939-.36-1.468.055-1.468 1.151 0 1.152.519 1.515 1.582 1.107.87-.334 2.22-.607 3-.607S75 26.325 75 25.5c0-1.675-1.561-2.019-2.473-.544M96 25.5c0 .825.45 1.5 1 1.5s1-.675 1-1.5-.45-1.5-1-1.5-1 .675-1 1.5m14 0c0 .825.45 1.5 1 1.5s1-.675 1-1.5-.45-1.5-1-1.5-1 .675-1 1.5m35 0c0 .825.45 1.5 1 1.5s1-.675 1-1.5-.45-1.5-1-1.5-1 .675-1 1.5m-103 1c0 .825.45 1.5 1 1.5s1-.675 1-1.5-.45-1.5-1-1.5-1 .675-1 1.5m3.192-.425c.197.591.785 1.075 1.308 1.075s1.111-.484 1.308-1.075S47.417 25 46.5 25s-1.505.484-1.308 1.075M86 26.5c0 .825.45 1.5 1 1.5s1-.675 1-1.5-.45-1.5-1-1.5-1 .675-1 1.5m20.469-.45c-.95 1.538.351 2.53 1.635 1.246.718-.718.735-1.277.052-1.699-.56-.346-1.319-.142-1.687.453m6.531.542c0 1.615 5.186 1.351 5.733-.292.245-.734-.75-1.137-2.671-1.083-1.786.051-3.062.624-3.062 1.375m28.639-.898c-1.126 1.126-.685 2.306.861 2.306.825 0 1.5-.423 1.5-.941 0-1.261-1.562-2.164-2.361-1.365m16.361.889c0 1.766 2.153 1.459 2.771-.395.218-.654-.317-1.188-1.188-1.188-.87 0-1.583.712-1.583 1.583M49 28.559c0 .857.45 1.281 1 .941s1-1.041 1-1.559S50.55 27 50 27s-1 .702-1 1.559m83.079.024c.048 1.165.285 1.402.604.605.289-.722.253-1.585-.079-1.917s-.568.258-.525 1.312m-79 1c.048 1.165.285 1.402.604.605.289-.722.253-1.585-.079-1.917s-.568.258-.525 1.312m44 0c.048 1.165.285 1.402.604.605.289-.722.253-1.585-.079-1.917s-.568.258-.525 1.312m52 0c.048 1.165.285 1.402.604.605.289-.722.253-1.585-.079-1.917s-.568.258-.525 1.312m-79.496.283c-.431.697-.513 1.537-.183 1.867.895.895 1.871-.421 1.387-1.871-.338-1.016-.574-1.016-1.204.004m17.496.717c.048 1.165.285 1.402.604.605.289-.722.253-1.585-.079-1.917s-.568.258-.525 1.312m19.39-.533c-.95 1.538.351 2.53 1.635 1.246.718-.718.735-1.277.052-1.699-.56-.346-1.319-.142-1.687.453m8.972-.08c-1.379.552-4.495 5.962-9.443 16.4-4.062 8.567-7.587 15.375-7.833 15.129s-1.499 2.578-2.784 6.277c-1.286 3.698-3.248 7.472-4.361 8.386-1.114.914-1.773 2.319-1.465 3.121.308.803-.141 2.16-.997 3.017-.857.856-1.55 1.927-1.539 2.379.01.451-2.768 6.797-6.173 14.101l-6.191 13.281 2.028 2.719c2.207 2.959 4.486 3.805 7.125 2.647.931-.408 2.255-.652 2.942-.541.7.113 1.241-.808 1.23-2.092C87.951 111.427 109.072 68 110.739 68c.763 0 1.267-.787 1.121-1.75-.415-2.73 1.09-7.399 2.169-6.732.534.33 1.007-.664 1.05-2.209s.306-2.246.583-1.559c.694 1.72 3.338 1.58 3.338-.177 0-.784-.787-1.632-1.75-1.884-1.65-.431-1.651-.464-.011-.573 1.151-.077 1.688-.876 1.589-2.366-.082-1.237.844-4.115 2.057-6.394 2.86-5.372 3.636-10.384 1.936-12.505-1.711-2.136-4.786-2.92-7.38-1.881m43.638.613c.048 1.165.285 1.402.604.605.289-.722.253-1.585-.079-1.917s-.568.258-.525 1.312M35 31c0 .55.675 1 1.5 1s1.5-.45 1.5-1-.675-1-1.5-1-1.5.45-1.5 1m106 0c0 .55.675 1 1.5 1s1.5-.45 1.5-1-.675-1-1.5-1-1.5.45-1.5 1m-89 2.5c0 .825.45 1.5 1 1.5s1-.675 1-1.5-.45-1.5-1-1.5-1 .675-1 1.5m44 0c0 .825.45 1.5 1 1.5s1-.675 1-1.5-.45-1.5-1-1.5-1 .675-1 1.5m29 0c0 .825.45 1.5 1 1.5s1-.675 1-1.5-.45-1.5-1-1.5-1 .675-1 1.5m-36 1c0 .825.675 1.5 1.5 1.5s1.5-.675 1.5-1.5-.675-1.5-1.5-1.5-1.5.675-1.5 1.5m73 0c0 .825.45 1.5 1 1.5s1-.675 1-1.5-.45-1.5-1-1.5-1 .675-1 1.5m-120 1c0 .658 1.35 1.234 3 1.281 1.911.054 3-.411 3-1.281s-1.089-1.335-3-1.281c-1.65.047-3 .623-3 1.281m44 0c0 .825.45 1.5 1 1.5s1-.675 1-1.5-.45-1.5-1-1.5-1 .675-1 1.5m72 0c0 .825.675 1.5 1.5 1.5s1.5-.675 1.5-1.5-.675-1.5-1.5-1.5-1.5.675-1.5 1.5m-126 1c0 .825.45 1.5 1 1.5s1-.675 1-1.5-.45-1.5-1-1.5-1 .675-1 1.5m17 0c0 .825.45 1.5 1 1.5s1-.675 1-1.5-.45-1.5-1-1.5-1 .675-1 1.5m54 0c0 .825.45 1.5 1 1.5s1-.675 1-1.5-.45-1.5-1-1.5-1 .675-1 1.5m-49.921 1.083c.048 1.165.285 1.402.604.605.289-.722.253-1.585-.079-1.917s-.568.258-.525 1.312m44 0c.048 1.165.285 1.402.604.605.289-.722.253-1.585-.079-1.917s-.568.258-.525 1.312m-7 1c.048 1.165.285 1.402.604.605.289-.722.253-1.585-.079-1.917s-.568.258-.525 1.312M42 39.5c0 .825.45 1.5 1 1.5s1-.675 1-1.5-.45-1.5-1-1.5-1 .675-1 1.5m4.079.083c.048 1.165.285 1.402.604.605.289-.722.253-1.585-.079-1.917s-.568.258-.525 1.312m113 0c.048 1.165.285 1.402.604.605.289-.722.253-1.585-.079-1.917s-.568.258-.525 1.312M32 40.441c0 .793.45 1.719 1 2.059s1-.309 1-1.441S33.55 39 33 39s-1 .648-1 1.441m17 .059c0 .825.45 1.5 1 1.5s1-.675 1-1.5-.45-1.5-1-1.5-1 .675-1 1.5m54 .5c0 1.1.45 2 1 2s1-.9 1-2-.45-2-1-2-1 .9-1 2m-78 .5c0 .825.45 1.5 1 1.5s1-.675 1-1.5-.45-1.5-1-1.5-1 .675-1 1.5m14 0c0 .825.45 1.5 1 1.5s1-.675 1-1.5-.45-1.5-1-1.5-1 .675-1 1.5m13 0c0 .825.661 1.5 1.469 1.5.894 0 1.243-.586.893-1.5-.317-.825-.978-1.5-1.469-1.5S52 40.675 52 41.5m20.694-.861c-.799.799.104 2.361 1.365 2.361.518 0 .941-.675.941-1.5 0-1.546-1.18-1.987-2.306-.861M96 41.5c0 .825.45 1.5 1 1.5s1-.675 1-1.5-.45-1.5-1-1.5-1 .675-1 1.5m29 0c0 .825.45 1.5 1 1.5s1-.675 1-1.5-.45-1.5-1-1.5-1 .675-1 1.5m20 0c0 .825.45 1.5 1 1.5s1-.675 1-1.5-.45-1.5-1-1.5-1 .675-1 1.5m23.638 0c-.35.914-.001 1.5.893 1.5.808 0 1.469-.675 1.469-1.5s-.402-1.5-.893-1.5-1.152.675-1.469 1.5M76 42.5c0 .825.45 1.5 1 1.5s1-.675 1-1.5-.45-1.5-1-1.5-1 .675-1 1.5m13.639-.806C88.513 42.82 88.954 44 90.5 44c.825 0 1.5-.423 1.5-.941 0-1.261-1.562-2.164-2.361-1.365M148 42.5c0 .825.45 1.5 1 1.5s1-.675 1-1.5-.45-1.5-1-1.5-1 .675-1 1.5m14 0c0 .825.45 1.5 1 1.5s1-.675 1-1.5-.45-1.5-1-1.5-1 .675-1 1.5M43.079 43.583c.048 1.165.285 1.402.604.605.289-.722.253-1.585-.079-1.917s-.568.258-.525 1.312M49 44.5c0 .825.45 1.5 1 1.5s1-.675 1-1.5-.45-1.5-1-1.5-1 .675-1 1.5m14.858.25c-.798.962-3.114 4.325-5.146 7.472-2.56 3.965-4.158 5.544-5.204 5.143-.959-.368-1.508.006-1.508 1.028 0 .884.453 1.607 1.007 1.607s-.458 2.189-2.25 4.865c-1.791 2.676-3.594 4.674-4.007 4.441s-.799.84-.86 2.385-.234 4.311-.387 6.146c-.231 2.775.022 3.259 1.501 2.872 1.364-.356 3.266 1.882 8.138 9.577C62.776 102.345 65.151 105 68.3 105c2.989 0 5.702-2.896 5.694-6.079-.003-1.331-3.153-7.285-7-13.23C63.147 79.747 60 74.485 60 73.998c0-1.66 12.092-19.499 13.047-19.248.524.138 1.014-.537 1.089-1.5.075-.962.279-3.386.452-5.385.292-3.353.078-3.682-2.761-4.25-4.839-.967-6.41-.744-7.969 1.135m63.632-.734c-.346.559-.957.813-1.359.565-.402-.249-.833 1.057-.957 2.902-.181 2.685 1.269 5.656 7.276 14.907l7.501 11.554-7.475 11.693C128.364 92.067 125 98.055 125 98.942c0 2.98 2.989 6.058 5.882 6.058 3.142 0 5.214-2.022 10.141-9.899 1.858-2.97 3.55-4.883 3.761-4.25.21.632.795 1.149 1.299 1.149 1.378 0 1.103-2.758-.333-3.338-1-.403-1-.52 0-.583a1.36 1.36 0 0 0 1.254-1.329c.003-.687 1.351-3.275 2.996-5.75 3.658-5.502 3.76-8.418.464-13.268-1.395-2.053-2.07-3.732-1.5-3.732S150 63.325 150 62.5s-.45-1.5-1-1.5-1.007.563-1.015 1.25c-.012.917-.245.888-.878-.111-.474-.748-.62-2.286-.324-3.418.415-1.587.17-1.917-1.068-1.442-1.171.449-2.467-.795-4.77-4.581-1.74-2.859-4.092-6.211-5.228-7.448-2.134-2.325-7.093-3.069-8.227-1.234M26.079 45.583c.048 1.165.285 1.402.604.605.289-.722.253-1.585-.079-1.917s-.568.258-.525 1.312M32 45.5c0 .825.45 1.5 1 1.5s1-.675 1-1.5-.45-1.5-1-1.5-1 .675-1 1.5m7 0c0 .825.45 1.5 1 1.5s1-.675 1-1.5-.45-1.5-1-1.5-1 .675-1 1.5m14.079.083c.048 1.165.285 1.402.604.605.289-.722.253-1.585-.079-1.917s-.568.258-.525 1.312m44 0c.048 1.165.285 1.402.604.605.289-.722.253-1.585-.079-1.917s-.568.258-.525 1.312M103 45.5c0 .825.45 1.5 1 1.5s1-.675 1-1.5-.45-1.5-1-1.5-1 .675-1 1.5m42 0c0 .825.45 1.5 1 1.5s1-.675 1-1.5-.45-1.5-1-1.5-1 .675-1 1.5m30 0c0 .825.45 1.5 1 1.5s1-.675 1-1.5-.45-1.5-1-1.5-1 .675-1 1.5m-84.921 1.083c.048 1.165.285 1.402.604.605.289-.722.253-1.585-.079-1.917s-.568.258-.525 1.312m-44 1c.048 1.165.285 1.402.604.605.289-.722.253-1.585-.079-1.917s-.568.258-.525 1.312M76 47.5c0 .825.45 1.5 1 1.5s1-.675 1-1.5-.45-1.5-1-1.5-1 .675-1 1.5m11.079.083c.048 1.165.285 1.402.604.605.289-.722.253-1.585-.079-1.917s-.568.258-.525 1.312M148 47.5c0 .917.484 1.505 1.075 1.308s1.075-.785 1.075-1.308-.484-1.111-1.075-1.308S148 46.583 148 47.5m11.079.083c.048 1.165.285 1.402.604.605.289-.722.253-1.585-.079-1.917s-.568.258-.525 1.312M25.583 48.866c-.431.697-.513 1.537-.183 1.867.895.895 1.871-.421 1.387-1.871-.338-1.016-.574-1.016-1.204.004M39 49.5c0 .825.45 1.5 1 1.5s1-.675 1-1.5-.45-1.5-1-1.5-1 .675-1 1.5m13.583-.634c-.431.697-.513 1.537-.183 1.867.895.895 1.871-.421 1.387-1.871-.338-1.016-.574-1.016-1.204.004M96 49.5c0 .825.45 1.5 1 1.5s1-.675 1-1.5-.45-1.5-1-1.5-1 .675-1 1.5m49 0c0 .825.45 1.5 1 1.5s1-.675 1-1.5-.45-1.5-1-1.5-1 .675-1 1.5m23.639-.806c-1.126 1.126-.685 2.306.861 2.306.825 0 1.5-.423 1.5-.941 0-1.261-1.562-2.164-2.361-1.365m7.44.889c.048 1.165.285 1.402.604.605.289-.722.253-1.585-.079-1.917s-.568.258-.525 1.312M45.694 50.639c-.799.799.104 2.361 1.365 2.361.518 0 .941-.675.941-1.5 0-1.546-1.18-1.987-2.306-.861M86 51.5c0 .825.45 1.5 1 1.5s1-.675 1-1.5-.45-1.5-1-1.5-1 .675-1 1.5m72 0c0 .825.675 1.5 1.5 1.5s1.5-.675 1.5-1.5-.675-1.5-1.5-1.5-1.5.675-1.5 1.5m-8.921 1.083c.048 1.165.285 1.402.604.605.289-.722.253-1.585-.079-1.917s-.568.258-.525 1.312m-96 2c.048 1.165.285 1.402.604.605.289-.722.253-1.585-.079-1.917s-.568.258-.525 1.312M15 55.5c0 .825.45 1.5 1 1.5s1-.675 1-1.5-.45-1.5-1-1.5-1 .675-1 1.5m3 .083c0 .871.534 1.406 1.188 1.188 1.854-.618 2.161-2.771.395-2.771-.871 0-1.583.712-1.583 1.583m27.667-.916C44.516 55.817 44.938 57 46.5 57c.825 0 1.5-.675 1.5-1.5 0-1.562-1.183-1.984-2.333-.833M86 55.592c0 1.615 5.186 1.351 5.733-.292.245-.734-.75-1.137-2.671-1.083-1.786.051-3.062.624-3.062 1.375m34-.092c0 .825.45 1.5 1 1.5s1-.675 1-1.5-.45-1.5-1-1.5-1 .675-1 1.5m38 .1c0 .759 1.201 1.232 3 1.181 1.65-.047 3-.617 3-1.267s-1.35-1.181-3-1.181c-1.754 0-3 .526-3 1.267m-82 .9c0 .825.45 1.5 1 1.5s1-.675 1-1.5-.45-1.5-1-1.5-1 .675-1 1.5m72 0c0 .825.45 1.5 1 1.5s1-.675 1-1.5-.45-1.5-1-1.5-1 .675-1 1.5m-123 2c0 .825.45 1.5 1 1.5s1-.675 1-1.5-.45-1.5-1-1.5-1 .675-1 1.5m14 0c0 .825.45 1.5 1 1.5s1-.675 1-1.5-.45-1.5-1-1.5-1 .675-1 1.5m4.079.083c.048 1.165.285 1.402.604.605.289-.722.253-1.585-.079-1.917s-.568.258-.525 1.312M73 58.559c0 .857.45 1.281 1 .941s1-1.041 1-1.559S74.55 57 74 57s-1 .702-1 1.559m23-.059c0 .825.45 1.5 1 1.5s1-.675 1-1.5-.45-1.5-1-1.5-1 .675-1 1.5m29 0c0 .825.45 1.5 1 1.5s1-.675 1-1.5-.45-1.5-1-1.5-1 .675-1 1.5m43.694-.861c-.799.799.104 2.361 1.365 2.361.518 0 .941-.675.941-1.5 0-1.546-1.18-1.987-2.306-.861M182 58.5c0 .825.45 1.5 1 1.5s1-.675 1-1.5-.45-1.5-1-1.5-1 .675-1 1.5m4.079.083c.048 1.165.285 1.402.604.605.289-.722.253-1.585-.079-1.917s-.568.258-.525 1.312M49 59.5c0 .825.45 1.5 1 1.5s1-.675 1-1.5-.45-1.5-1-1.5-1 .675-1 1.5m-30.333.167C17.516 60.817 17.938 62 19.5 62c.825 0 1.5-.675 1.5-1.5 0-1.562-1.183-1.984-2.333-.833M89 60.5c0 .825.675 1.5 1.5 1.5s1.5-.675 1.5-1.5-.675-1.5-1.5-1.5-1.5.675-1.5 1.5m31 0c0 .825.45 1.5 1 1.5s1-.675 1-1.5-.45-1.5-1-1.5-1 .675-1 1.5m42 0c0 .825.45 1.5 1 1.5s1-.675 1-1.5-.45-1.5-1-1.5-1 .675-1 1.5M26.079 62.583c.048 1.165.285 1.402.604.605.289-.722.253-1.585-.079-1.917s-.568.258-.525 1.312M39 62.5c0 .825.45 1.5 1 1.5s1-.675 1-1.5-.45-1.5-1-1.5-1 .675-1 1.5m3 0c0 .825.45 1.5 1 1.5s1-.675 1-1.5-.45-1.5-1-1.5-1 .675-1 1.5m30.694-.861c-.799.799.104 2.361 1.365 2.361.518 0 .941-.675.941-1.5 0-1.546-1.18-1.987-2.306-.861M76 62.5c0 .825.45 1.5 1 1.5s1-.675 1-1.5-.45-1.5-1-1.5-1 .675-1 1.5m37 0c0 .825.45 1.5 1 1.5s1-.675 1-1.5-.45-1.5-1-1.5-1 .675-1 1.5m46.079.083c.048 1.165.285 1.402.604.605.289-.722.253-1.585-.079-1.917s-.568.258-.525 1.312M182 62.5c0 .825.45 1.5 1 1.5s1-.675 1-1.5-.45-1.5-1-1.5-1 .675-1 1.5m3.639-.806c-1.126 1.126-.685 2.306.861 2.306.825 0 1.5-.423 1.5-.941 0-1.261-1.562-2.164-2.361-1.365M18 64.417c0 .87.712 1.583 1.583 1.583 1.766 0 1.459-2.153-.395-2.771-.654-.218-1.188.317-1.188 1.188m71 0c0 .87.713 1.583 1.583 1.583.871 0 1.406-.534 1.188-1.187-.618-1.855-2.771-2.162-2.771-.396m31 .083c0 .825.45 1.5 1 1.5s1-.675 1-1.5-.45-1.5-1-1.5-1 .675-1 1.5m42 0c0 .825.45 1.5 1 1.5s1-.675 1-1.5-.45-1.5-1-1.5-1 .675-1 1.5M16.079 66.583c.048 1.165.285 1.402.604.605.289-.722.253-1.585-.079-1.917s-.568.258-.525 1.312M25 66.5c0 .825.45 1.5 1 1.5s1-.675 1-1.5-.45-1.5-1-1.5-1 .675-1 1.5m14 0c0 .825.45 1.5 1 1.5s1-.675 1-1.5-.45-1.5-1-1.5-1 .675-1 1.5m33.694-.861c-.799.799.104 2.361 1.365 2.361.518 0 .941-.675.941-1.5 0-1.546-1.18-1.987-2.306-.861m14.385.944c.048 1.165.285 1.402.604.605.289-.722.253-1.585-.079-1.917s-.568.258-.525 1.312M125 66.5c0 .825.45 1.5 1 1.5s1-.675 1-1.5-.45-1.5-1-1.5-1 .675-1 1.5m34.079.083c.048 1.165.285 1.402.604.605.289-.722.253-1.585-.079-1.917s-.568.258-.525 1.312m9.615-.944c-.799.799.104 2.361 1.365 2.361.518 0 .941-.675.941-1.5 0-1.546-1.18-1.987-2.306-.861M182 66.5c0 .825.45 1.5 1 1.5s1-.675 1-1.5-.45-1.5-1-1.5-1 .675-1 1.5M19.079 68.583c.048 1.165.285 1.402.604.605.289-.722.253-1.585-.079-1.917s-.568.258-.525 1.312M42 68.5c0 .825.45 1.5 1 1.5s1-.675 1-1.5-.45-1.5-1-1.5-1 .675-1 1.5m48.079.083c.048 1.165.285 1.402.604.605.289-.722.253-1.585-.079-1.917s-.568.258-.525 1.312M113 68.5c0 .825.45 1.5 1 1.5s1-.675 1-1.5-.45-1.5-1-1.5-1 .675-1 1.5m72.15-.55c.43 1.289 1.801 1.521 1.925.325.041-.399-.465-.905-1.125-1.125s-1.02.14-.8.8M16.079 70.583c.048 1.165.285 1.402.604.605.289-.722.253-1.585-.079-1.917s-.568.258-.525 1.312m10 0c.048 1.165.285 1.402.604.605.289-.722.253-1.585-.079-1.917s-.568.258-.525 1.312m61 0c.048 1.165.285 1.402.604.605.289-.722.253-1.585-.079-1.917s-.568.258-.525 1.312m72 0c.048 1.165.285 1.402.604.605.289-.722.253-1.585-.079-1.917s-.568.258-.525 1.312m10 0c.048 1.165.285 1.402.604.605.289-.722.253-1.585-.079-1.917s-.568.258-.525 1.312m14 0c.048 1.165.285 1.402.604.605.289-.722.253-1.585-.079-1.917s-.568.258-.525 1.312m-140 3c.048 1.165.285 1.402.604.605.289-.722.253-1.585-.079-1.917s-.568.258-.525 1.312m71 0c.048 1.165.285 1.402.604.605.289-.722.253-1.585-.079-1.917s-.568.258-.525 1.312m72 0c.048 1.165.285 1.402.604.605.289-.722.253-1.585-.079-1.917s-.568.258-.525 1.312m-167.887.492c.197.591.785 1.075 1.308 1.075s1.111-.484 1.308-1.075S20.417 73 19.5 73s-1.505.484-1.308 1.075M25 74.5c0 .825.45 1.5 1 1.5s1-.675 1-1.5-.45-1.5-1-1.5-1 .675-1 1.5m64.192-.425c.197.591.785 1.075 1.308 1.075s1.111-.484 1.308-1.075S91.417 73 90.5 73s-1.505.484-1.308 1.075M120 74.5c0 .825.45 1.5 1 1.5s1-.675 1-1.5-.45-1.5-1-1.5-1 .675-1 1.5m5 0c0 .825.45 1.5 1 1.5s1-.675 1-1.5-.45-1.5-1-1.5-1 .675-1 1.5m37 0c0 .825.45 1.5 1 1.5s1-.675 1-1.5-.45-1.5-1-1.5-1 .675-1 1.5m6.667-.833c-1.151 1.15-.729 2.333.833 2.333.825 0 1.5-.675 1.5-1.5 0-1.562-1.183-1.984-2.333-.833M15 75.5c0 .825.45 1.5 1 1.5s1-.675 1-1.5-.45-1.5-1-1.5-1 .675-1 1.5m71 0c0 .825.45 1.5 1 1.5s1-.675 1-1.5-.45-1.5-1-1.5-1 .675-1 1.5m30.667-.833c-1.151 1.15-.729 2.333.833 2.333.825 0 1.5-.675 1.5-1.5 0-1.562-1.183-1.984-2.333-.833M158 75.5c0 .825.675 1.5 1.5 1.5s1.5-.675 1.5-1.5-.675-1.5-1.5-1.5-1.5.675-1.5 1.5m31 0c0 .825.45 1.5 1 1.5s1-.675 1-1.5-.45-1.5-1-1.5-1 .675-1 1.5m-150 1c0 .825.45 1.5 1 1.5s1-.675 1-1.5-.45-1.5-1-1.5-1 .675-1 1.5m33.639-.806C71.513 76.82 71.954 78 73.5 78c.825 0 1.5-.423 1.5-.941 0-1.261-1.562-2.164-2.361-1.365M110 76.5c0 .825.413 1.5.918 1.5s1.63.273 2.5.607c1.063.408 1.582.045 1.582-1.107 0-1.113-.526-1.512-1.5-1.138-.825.316-1.5.139-1.5-.393 0-.533-.45-.969-1-.969s-1 .675-1 1.5m72 0c0 .825.45 1.5 1 1.5s1-.675 1-1.5-.45-1.5-1-1.5-1 .675-1 1.5m-140 1c0 .825.45 1.5 1 1.5s1-.675 1-1.5-.45-1.5-1-1.5-1 .675-1 1.5m143 0c0 .825.675 1.5 1.5 1.5s1.5-.675 1.5-1.5-.675-1.5-1.5-1.5-1.5.675-1.5 1.5m-167 1c0 .825.675 1.5 1.5 1.5s1.5-.675 1.5-1.5-.675-1.5-1.5-1.5-1.5.675-1.5 1.5m102 0c0 .825.45 1.5 1 1.5s1-.675 1-1.5-.45-1.5-1-1.5-1 .675-1 1.5m42 0c0 .825.45 1.5 1 1.5s1-.675 1-1.5-.45-1.5-1-1.5-1 .675-1 1.5m-147 1c0 .825.45 1.5 1 1.5s1-.675 1-1.5-.45-1.5-1-1.5-1 .675-1 1.5m71-.059c0 .793.45 1.719 1 2.059s1-.309 1-1.441S87.55 78 87 78s-1 .648-1 1.441m30.639-.747c-1.126 1.126-.685 2.306.861 2.306.825 0 1.5-.423 1.5-.941 0-1.261-1.562-2.164-2.361-1.365m41.515.744c.191.917.796 1.644 1.346 1.615 1.484-.079 1.212-2.316-.346-2.835-.841-.28-1.215.177-1 1.22M189 79.5c0 .825.45 1.5 1 1.5s1-.675 1-1.5-.45-1.5-1-1.5-1 .675-1 1.5m3 1c0 .825.45 1.5 1 1.5s1-.675 1-1.5-.45-1.5-1-1.5-1 .675-1 1.5M19.079 82.583c.048 1.165.285 1.402.604.605.289-.722.253-1.585-.079-1.917s-.568.258-.525 1.312m23.504-.717c-.431.697-.513 1.537-.183 1.867.895.895 1.871-.421 1.387-1.871-.338-1.016-.574-1.016-1.204.004m71 0c-.431.697-.513 1.537-.183 1.867.895.895 1.871-.421 1.387-1.871-.338-1.016-.574-1.016-1.204.004m72.056-.172c-1.126 1.126-.685 2.306.861 2.306.825 0 1.5-.423 1.5-.941 0-1.261-1.562-2.164-2.361-1.365M25 82.941c0 .518.45 1.219 1 1.559s1-.084 1-.941S26.55 82 26 82s-1 .423-1 .941m143.192.134c.197.591.786 1.075 1.308 1.075s1.111-.484 1.308-1.075S170.417 82 169.5 82s-1.505.484-1.308 1.075M49 85.5c0 .825.45 1.5 1 1.5s1-.675 1-1.5-.45-1.5-1-1.5-1 .675-1 1.5m143 0c0 .825.45 1.5 1 1.5s1-.675 1-1.5-.45-1.5-1-1.5-1 .675-1 1.5m-153 1c0 .825.45 1.5 1 1.5s1-.675 1-1.5-.45-1.5-1-1.5-1 .675-1 1.5m33.694-.861c-.799.799.104 2.361 1.365 2.361.518 0 .941-.675.941-1.5 0-1.546-1.18-1.987-2.306-.861M110 86.5c0 .825.45 1.5 1 1.5s1-.675 1-1.5-.45-1.5-1-1.5-1 .675-1 1.5m72 0c0 .825.45 1.5 1 1.5s1-.675 1-1.5-.45-1.5-1-1.5-1 .675-1 1.5m-167 2c0 .825.45 1.5 1 1.5s1-.675 1-1.5-.45-1.5-1-1.5-1 .675-1 1.5m28.079.083c.048 1.165.285 1.402.604.605.289-.722.253-1.585-.079-1.917s-.568.258-.525 1.312m2.15-.395c.618 1.854 2.771 2.161 2.771.395 0-.87-.712-1.583-1.583-1.583s-1.406.534-1.188 1.188m70.963-.113c.197.591.785 1.075 1.308 1.075s1.111-.484 1.308-1.075S118.417 87 117.5 87s-1.505.484-1.308 1.075M158 88.5c0 .917.484 1.505 1.075 1.308s1.075-.785 1.075-1.308-.484-1.111-1.075-1.308S158 87.583 158 88.5m31 0c0 .825.45 1.5 1 1.5s1-.675 1-1.5-.45-1.5-1-1.5-1 .675-1 1.5m-140 1c0 .825.45 1.5 1 1.5s1-.675 1-1.5-.45-1.5-1-1.5-1 .675-1 1.5m143 0c0 .825.45 1.5 1 1.5s1-.675 1-1.5-.45-1.5-1-1.5-1 .675-1 1.5m-153 1c0 .825.45 1.5 1 1.5s1-.675 1-1.5-.45-1.5-1-1.5-1 .675-1 1.5m33.694-.861c-.799.799.104 2.361 1.365 2.361.518 0 .941-.675.941-1.5 0-1.546-1.18-1.987-2.306-.861M110 90.5c0 .825.45 1.5 1 1.5s1-.675 1-1.5-.45-1.5-1-1.5-1 .675-1 1.5m72 0c0 .825.45 1.5 1 1.5s1-.675 1-1.5-.45-1.5-1-1.5-1 .675-1 1.5M16.079 92.583c.048 1.165.285 1.402.604.605.289-.722.253-1.585-.079-1.917s-.568.258-.525 1.312m30 0c.048 1.165.285 1.402.604.605.289-.722.253-1.585-.079-1.917s-.568.258-.525 1.312m113 0c.048 1.165.285 1.402.604.605.289-.722.253-1.585-.079-1.917s-.568.258-.525 1.312m34 1c.048 1.165.285 1.402.604.605.289-.722.253-1.585-.079-1.917s-.568.258-.525 1.312M15 96.5c0 .825.45 1.5 1 1.5s1-.675 1-1.5-.45-1.5-1-1.5-1 .675-1 1.5m30.694-.861c-.799.799.104 2.361 1.365 2.361.518 0 .941-.675.941-1.5 0-1.546-1.18-1.987-2.306-.861M116 96.5c0 .825.675 1.5 1.5 1.5s1.5-.675 1.5-1.5-.675-1.5-1.5-1.5-1.5.675-1.5 1.5m42-.083c0 .87.713 1.583 1.583 1.583.871 0 1.406-.534 1.188-1.187-.618-1.855-2.771-2.162-2.771-.396m31 .083c0 .825.45 1.5 1 1.5s1-.675 1-1.5-.45-1.5-1-1.5-1 .675-1 1.5m-140 3c0 .825.45 1.5 1 1.5s1-.675 1-1.5-.45-1.5-1-1.5-1 .675-1 1.5m143 .059c0 .857.45 1.281 1 .941s1-1.041 1-1.559-.45-.941-1-.941-1 .702-1 1.559m-175.921 1.024c.048 1.165.285 1.402.604.605.289-.722.253-1.585-.079-1.917s-.568.258-.525 1.312m101 0c.048 1.165.285 1.402.604.605.289-.722.253-1.585-.079-1.917s-.568.258-.525 1.312m42 0c.048 1.165.285 1.402.604.605.289-.722.253-1.585-.079-1.917s-.568.258-.525 1.312M49 103.5c0 .825.45 1.5 1 1.5s1-.675 1-1.5-.45-1.5-1-1.5-1 .675-1 1.5m143 0c0 .825.45 1.5 1 1.5s1-.675 1-1.5-.45-1.5-1-1.5-1 .675-1 1.5m-176.469 1.793c-.428.986-.497 2.074-.155 2.417 1.016 1.015 1.835-.411 1.367-2.382-.414-1.747-.468-1.748-1.212-.035m30.108-.599c-1.126 1.126-.685 2.306.861 2.306.825 0 1.5-.423 1.5-.941 0-1.261-1.562-2.164-2.361-1.365m71 0c-1.126 1.126-.685 2.306.861 2.306.825 0 1.5-.423 1.5-.941 0-1.261-1.562-2.164-2.361-1.365m41.83.356c-.95 1.538.351 2.53 1.635 1.246.718-.718.735-1.277.052-1.699-.56-.346-1.319-.142-1.687.453m30.531.391c0 .857.45 1.559 1 1.559s1-.423 1-.941-.45-1.219-1-1.559-1 .084-1 .941m4.079 2.142c.048 1.165.285 1.402.604.605.289-.722.253-1.585-.079-1.917s-.568.258-.525 1.312M15 110.5c0 .825.45 1.5 1 1.5s1-.675 1-1.5-.45-1.5-1-1.5-1 .675-1 1.5m30.192-.425c.197.591.785 1.075 1.308 1.075s1.111-.484 1.308-1.075S47.417 109 46.5 109s-1.505.484-1.308 1.075m71 0c.197.591.785 1.075 1.308 1.075s1.111-.484 1.308-1.075S118.417 109 117.5 109s-1.505.484-1.308 1.075m42 0c.197.591.786 1.075 1.308 1.075s1.111-.484 1.308-1.075S160.417 109 159.5 109s-1.505.484-1.308 1.075M189 110.5c0 .825.45 1.5 1 1.5s1-.675 1-1.5-.45-1.5-1-1.5-1 .675-1 1.5m-174 5c0 .825.45 1.5 1 1.5s1-.675 1-1.5-.45-1.5-1-1.5-1 .675-1 1.5m30.229-.312c.618 1.854 2.771 2.161 2.771.395 0-.87-.712-1.583-1.583-1.583s-1.406.534-1.188 1.188M116 115.5c0 .825.675 1.5 1.5 1.5s1.5-.675 1.5-1.5-.675-1.5-1.5-1.5-1.5.675-1.5 1.5m42-.083c0 .87.713 1.583 1.583 1.583.871 0 1.406-.534 1.188-1.187-.618-1.855-2.771-2.162-2.771-.396m31 .083c0 .825.45 1.5 1 1.5s1-.675 1-1.5-.45-1.5-1-1.5-1 .675-1 1.5m-172.921 4.083c.048 1.165.285 1.402.604.605.289-.722.253-1.585-.079-1.917s-.568.258-.525 1.312m71 0c.048 1.165.285 1.402.604.605.289-.722.253-1.585-.079-1.917s-.568.258-.525 1.312m72 0c.048 1.165.285 1.402.604.605.289-.722.253-1.585-.079-1.917s-.568.258-.525 1.312m-25.348 23.698c-3.174 6.72-5.761 12.557-5.75 12.969.01.412 1.269.75 2.796.75 2.462 0 3.1-.74 5.61-6.5 1.557-3.575 3.132-6.5 3.5-6.5s1.942 2.925 3.5 6.5c2.547 5.848 3.121 6.5 5.722 6.5 1.59 0 2.891-.231 2.891-.513 0-.794-11.815-25.491-12.179-25.456-.176.017-2.917 5.529-6.09 12.25m-91.541-9.255c-7.1 4.328-7.952 13.988-1.739 19.724 3.429 3.166 3.753 3.25 12.534 3.25 8.949 0 9.015-.018 9.015-2.5 0-2.455-.141-2.5-7.889-2.5-6.177 0-8.384-.4-10.167-1.844-3.296-2.669-3.086-7.777.445-10.814C46.717 137.34 48.191 137 54.556 137c7.274 0 7.444-.057 7.444-2.5 0-2.465-.116-2.5-8.25-2.496-6.51.003-8.948.429-11.56 2.022m27.708.257c-3.998 2.685-6.577 8.877-5.494 13.19.393 1.565 2.217 4.348 4.055 6.186C71.36 156.56 72.461 157 76.823 157c3.917 0 5.687-.558 8.034-2.533 12.249-10.307-1.681-29.104-14.959-20.184M95 144.5V157h11.096c12.558 0 15.806-1.167 18.388-6.607 2.969-6.257 1.041-12.883-4.783-16.433-2.649-1.616-5.053-1.953-13.951-1.956L95 132zm62 0V157h5v-25h-5zm-84.365-5.427C67.439 143.159 70.296 152 76.811 152c6.735 0 9.827-8.779 4.554-12.927C79.916 137.933 77.952 137 77 137s-2.916.933-4.365 2.073M101 144.5v7.5h7.389c8.229 0 11.037-1.436 12.17-6.225.517-2.184.045-3.325-2.38-5.75-2.797-2.797-3.559-3.025-10.102-3.025H101z"/><path fill-opacity=".92" fill-rule="evenodd" d="M92.151 11.99c.237 6.109-.017 9.129-.793 9.427-2.454.94-4.79-.213-5.648-2.787-1.173-3.519-.207-6.035 1.992-5.191 1.575.604 1.574.524-.008-1.225-.932-1.029-1.723-2.511-1.757-3.293-.035-.781-.582-.296-1.215 1.079-1.101 2.393-1.165 2.318-1.494-1.75C82.96 4.922 82.488 4 81.054 4c-2.013 0-3.601 5.41-2.461 8.382.865 2.253-.563 13.06-1.582 11.982-.449-.475-.973-1.721-1.164-2.77-.396-2.176-3.468-3.024-4.185-1.155-.262.683-.075 1.877.415 2.652.491.775.899 1.016.908.537.008-.48.613-.376 1.345.231 2 1.66.868 6.697-1.831 8.141-3.496 1.871-4.396.591-3.872-5.511.43-5.019.295-5.489-1.578-5.489-1.34 0-2.049.652-2.049 1.883 0 1.043-.893 2.117-2 2.407-1.197.313-2 1.364-2 2.616 0 1.152-.422 2.094-.939 2.094-1.24 0-2.442-8.225-1.592-10.901.53-1.67.243-2.099-1.402-2.099-1.137 0-2.097.337-2.134.75-.47 5.295-.103 37.822.43 38.028.396.153 2.614-2.547 4.929-6 3.899-5.817 4.48-6.278 7.913-6.278 3.502 0 3.74-.205 4.338-3.75.706-4.183 2.089-4.938 2.751-1.5l.434 2.25.136-2.25c.075-1.237.535-2.25 1.023-2.25 1.195 0 2.111 6.273 1.077 7.378-.451.483-.29 1.741.358 2.795.992 1.612.805 2.199-1.177 3.705-1.517 1.153-2.182 2.472-1.866 3.706.421 1.648.505 1.602.605-.334.135-2.627 2.109-3.09 2.13-.5.007.962.285 2.763.616 4 .463 1.726.182 2.25-1.204 2.25-1.685 0-1.676.102.133 1.5 1.919 1.483 1.918 1.519-.059 3.115-1.388 1.121-1.618 1.758-.75 2.083.688.258 1.25 1.154 1.25 1.992 0 .944-.571 1.305-1.5.948-1.02-.391-1.5.054-1.5 1.393 0 1.083-.43 1.969-.955 1.969-1.424 0-2.346-6.358-1.827-12.611l.457-5.518-5.741 8.815c-3.158 4.848-5.557 9.113-5.332 9.479s-.136.846-.804 1.069c-.76.253 1.485 4.667 5.993 11.785C71.195 91.971 74 97.461 74 99.128c0 3.76-2.563 6.047-6.36 5.676-2.708-.265-3.917-1.531-9.366-9.804-3.442-5.225-6.309-9.05-6.372-8.5s-.215 1.675-.337 2.5-.3 2.513-.394 3.75c-.203 2.666-1.83 2.994-2.482.5-.33-1.265-.489-1.101-.573.594Q48.001 96.187 50 96.71c1.39.364 2 1.364 2 3.282 0 4.858-1.209 9.008-2.625 9.008-1.473 0-1.659 1.053-1.385 7.861.13 3.242-.167 4.246-1.158 3.915-.81-.271-1.387-2.177-1.472-4.861-.077-2.428-.243-4.865-.368-5.415-.676-2.957.146-6.5 1.508-6.5 1.909 0 1.954-1.612.065-2.337-1.049-.402-1.377-2.063-1.219-6.183.118-3.099-.11-5.834-.506-6.079s-1.613.512-2.704 1.683c-1.09 1.171-2.467 1.829-3.059 1.463-1.719-1.062-1.321-7.516.507-8.218.896-.343 1.153-.874.592-1.22-.546-.338-1.309-2.3-1.696-4.361-.664-3.544-.562-3.748 1.877-3.748 1.883 0 2.425-.406 2.005-1.5-.681-1.774.753-1.985 2.387-.351.866.866 1.109.619.987-1-.18-2.388-4.225-3.113-5.016-.899-1.403 3.929-2.22-2.421-2.22-17.253 0-15.761.135-16.984 2.123-19.166 1.167-1.282 1.933-2.846 1.702-3.475-.474-1.287-4.325-.61-4.325.761 0 .485-.788.883-1.75.882-1.533-.001-1.726.963-1.558 7.784.106 4.282-.206 8.43-.692 9.217-1.566 2.534-2.895-3.199-2.541-10.954.255-5.578.74-7.471 2.183-8.526 1.02-.746 1.473-1.731 1.007-2.188s-2.266.8-3.999 2.795l-3.15 3.627.09 25.123C27.658 79.168 27.393 85 26.447 85c-1.585 0-2.663-2.749-1.387-3.537.535-.331.67-1.091.3-1.69-.882-1.427-.812-39.232.075-40.668 1.442-2.333-1.291-.974-2.861 1.423-1.221 1.863-1.639 4.691-1.588 10.75.138 16.649.068 18.068-.949 19.085-.982.982-1.538-.341-1.131-2.687.079-.454-.33-.532-.908-.175s-.927 1.192-.775 1.854-.165 1.416-.705 1.675c-.574.274-1.025-1.741-1.083-4.835-.078-4.184.287-5.511 1.733-6.285 2.43-1.301 2.357-3.211-.094-2.434-1.224.389-2.255.023-2.83-1.005-.715-1.277-1.443-.393-3.463 4.206C6.291 70.9 4.603 77.319 4.514 84.5c-.048 3.85-.52 7.675-1.05 8.5-1.396 2.173-.768 17.595 1.086 26.687 4.472 21.929 18.292 43.772 36.389 57.515C49.43 183.65 65.24 191.297 76 194.16c11.959 3.182 35.803 3.223 47.175.081 18.175-5.022 32.971-13.42 45.211-25.66 20.599-20.598 30.918-49.503 28.164-78.889-.851-9.08-2.101-10.236-1.932-1.787.139 7.006-1.014 9.803-2.503 6.071-.544-1.362-1.017-1.95-1.052-1.308-.118 2.181 1.145 4.332 2.544 4.332.98 0 1.393 1.308 1.393 4.418 0 5.557-.77 7.608-2.594 6.908-.967-.372-1.242-.061-.849.962.319.83.077 1.82-.537 2.2-.708.437-.776 1.116-.186 1.851 1.106 1.378.329 7.661-.947 7.661-.972 0-1.057-.583-1.411-9.766-.19-4.913.11-6.474 1.391-7.231 1.408-.833 1.432-1.098.176-1.922-1.012-.663-1.418-2.626-1.329-6.422.106-4.525-.188-5.55-1.707-5.947-1.234-.323-2.005.172-2.355 1.51-.84 3.212-3.134 1.438-3.362-2.601-.142-2.511.271-3.899 1.275-4.284.988-.379 1.167-.955.536-1.716-.523-.629-1.097-2.489-1.276-4.133-.277-2.551.006-2.976 1.939-2.907 1.754.063 2.133-.331 1.682-1.75-.394-1.243-.077-1.831.987-1.831.862 0 1.567.498 1.567 1.107s.675.848 1.5.531 1.5-.113 1.5.452.444.754.986.419c1.051-.65.86-3.996-.294-5.15-.38-.381-.692.058-.692.974 0 .917-.45 1.667-1 1.667s-1-.45-1-1c0-1.385-3.343-1.257-4.783.183-.651.651-1.445.922-1.765.603-1.014-1.015-1.333-14.742-.356-15.345.515-.319.735-.905.49-1.303-.246-.398-.673-2.682-.948-5.076s-1.206-5.058-2.069-5.921c-1.425-1.426-1.58-1.344-1.684.895-.186 3.961-.33 4.451-1.385 4.695-1.383.319-2.246-3.459-1.868-8.181.214-2.684-.238-4.565-1.408-5.866-1.654-1.836-1.744-1.635-2.224 4.951-.275 3.776-.172 7.35.23 7.943.401.593.329 2.471-.159 4.175-.489 1.703-.634 3.351-.323 3.661.31.311.537 6.758.504 14.326-.048 10.974-.345 13.818-1.465 14.046-1.178.241-1.401-4.068-1.39-26.771l.014-27.058-2.588-2.588-2.588-2.588.499 2.609c.297 1.553.047 2.61-.617 2.61-.615 0-1.162-1.012-1.217-2.25-.097-2.191-.117-2.186-.777.176-.373 1.334-1.155 2.585-1.737 2.779-1.416.472-1.656-6.92-.254-7.787.635-.392-.76-1.942-3.356-3.728-2.518-1.733-4.489-2.544-4.551-1.873-.059.65-.325 2.083-.59 3.183s-.516 2.364-.558 2.809c-.153 1.617-2.077-.478-2.077-2.261 0-1.853-2.299-3.416-3.402-2.312-.863.862-.737 4.286.152 4.146 2.819-.445 3.38.252 2.698 3.354-.728 3.315-2.906 5.676-5.29 5.732-.969.023-1.28-1.289-1.121-4.718.316-6.781.186-7.25-2.006-7.25-1.292 0-1.78.489-1.422 1.423.313.815-.342 1.899-1.531 2.535-1.143.612-2.078 1.97-2.078 3.018 0 2.487-1.619 3.458-2.395 1.436-.333-.866-.605-4.014-.605-6.994 0-4.71-.255-5.418-1.955-5.418-1.847 0-1.951.74-1.873 13.284l.083 13.285 3.122-.316c3.959-.399 4.397-.053 9.485 7.497 2.317 3.437 4.412 6.25 4.655 6.25s.239-3.379-.011-7.509c-.481-7.982.18-13.491 1.619-13.491.481 0 .907 1.013.945 2.25.061 1.956.165 2.011.789.426 1.36-3.451 2.475-1.678 2.716 4.319.182 4.517-.134 6.219-1.276 6.857-1.34.75-1.329.923.092 1.468.981.376 1.609 1.781 1.609 3.599 0 1.701-.691 3.369-1.609 3.882-1.48.828-1.48.951 0 1.519 1.834.704 2.169 3.327.495 3.885-.713.237-.354 1.619.996 3.833 2.791 4.579 2.667 7.353-.579 12.874-1.713 2.914-2.6 5.737-2.432 7.737.283 3.37-1.37 5.252-3.098 3.524-.736-.736-2.249.806-5.04 5.138-4.538 7.043-5.239 7.653-8.828 7.674-3.079.018-5.905-2.772-5.905-5.829 0-1.202 3.15-7.061 7-13.018s7-11.438 7-12.177c0-1.111-8.644-15.383-11.09-18.311-.391-.468-.698.207-.683 1.5a64 64 0 0 1-.169 4.85c-.108 1.375-.039 5.139.154 8.365.259 4.32-.013 6.005-1.031 6.396-.761.292-1.73-.031-2.153-.716-.466-.754-1.043.572-1.461 3.354-.671 4.481-1.884 5.88-2.905 3.351-.277-.687-.54 3.336-.583 8.941s-.516 10.461-1.05 10.791c-1.406.869-2.358-3.916-1.591-8.002.519-2.768.301-3.643-1.035-4.156-1.047-.401-2.184.023-2.981 1.114-.709.969-1.769 1.466-2.355 1.103-1.351-.835-1.402-7.216-.064-8.043.67-.414.67-1.241 0-2.493C108.231 78.694 108.757 75 111 75c1.111 0 2-.667 2-1.5 0-1.766 1.159-1.941 2.693-.407.79.79 1.693.771 3.264-.07 1.658-.887 2.51-.88 3.607.03.79.656 1.472.799 1.517.319.505-5.456.334-13.372-.288-13.372-.436 0-.816.337-.843.75-.64 9.547-1.55 12.497-2.606 8.456-.318-1.213-.983-2.206-1.48-2.206-.496 0-.62 1.125-.275 2.5.475 1.891.236 2.5-.981 2.5-.884 0-1.608-.422-1.608-.938s-.9-.87-2-.787-2 .505-2 .938c0 1.955-2.008.537-2.07-1.463-.116-3.701-21.13 39.866-21.405 44.376-.364 5.97-.549 6.874-1.408 6.874-.486 0-1.106-.848-1.377-1.885-.365-1.399-1.141-1.761-3.004-1.405-1.382.264-3.457-.025-4.612-.644-3.928-2.102-3.599-5.153 1.784-16.565 2.785-5.905 4.838-11.103 4.562-11.55-.277-.447-.019-1.112.573-1.478.658-.406.897-2.902.616-6.421-.553-6.928.092-8.186 4.367-8.523 3.879-.305 6.249-3.898 6.041-9.159-.074-1.853-.112-4.158-.086-5.12s-.009-2.875-.078-4.25c-.117-2.294-.089-3.845.13-7.25.044-.687-.031-6.077-.166-11.977-.136-5.9.023-10.996.352-11.325s.204-1.972-.277-3.651c-.482-1.679-.535-3.782-.119-4.675.65-1.392.804-6.643.32-10.872C96.064 3.563 95.055 3 93.901 3c-2.003 0-2.084.414-1.75 8.99m6.316-3.905c0 2.153.359 3.915.798 3.915.878 0 .655-6.931-.241-7.485-.306-.19-.557 1.417-.557 3.57m3.302-2.129c-.691 2.461-.278 3.886.812 2.797.319-.32.423-1.632.229-2.917l-.351-2.336zm20.534 3.713c.294 4.929 1.934 7.093 2.522 3.327.224-1.43.851-1.917 2-1.552 1.232.39 1.712-.111 1.815-1.892.077-1.332-.434-2.643-1.137-2.912q-1.278-.491-.773 1.435c.277 1.059.032 1.925-.544 1.925s-1.191-.977-1.366-2.172c-.176-1.194-.879-2.355-1.562-2.58-.9-.297-1.163.923-.955 4.421M130 8.833c0 1.409 1.126 2.056 2.598 1.491C134.685 9.523 134.293 8 132 8c-1.1 0-2 .375-2 .833m-13.187 3.85c.721.289 1.584.253 1.916-.079s-.258-.568-1.312-.525c-1.165.048-1.402.285-.604.604m-16.063 4.006c-.963.252-1.782.987-1.821 1.634-.113 1.862-.036 37.956.085 40.177.068 1.259.953.146 2.386-3 1.677-3.681 2.069-5.746 1.487-7.827-1.245-4.447-.456-15.704 1.172-16.709 2.072-1.281 2.128-6.732.067-6.582-1.31.095-1.564-.708-1.309-4.132.175-2.337.175-4.198 0-4.134-.174.064-1.104.322-2.067.573m21.671 2.561c.062 1.755-.472 2.25-2.421 2.25-1.375 0-3.02-.666-3.655-1.481-.929-1.189-1.05-.924-.615 1.348.478 2.503.871 2.763 3.405 2.256 2.622-.524 2.876-.32 2.99 2.402.202 4.805.322 5.291 1.403 5.651.869.29 1.266-8.231.626-13.426-.273-2.217-1.816-1.327-1.733 1m-11.78.016c-1.022.751-1.697 2.147-1.5 3.1.312 1.507.602 1.555 2.218.368 1.022-.751 1.697-2.147 1.5-3.1-.312-1.507-.602-1.555-2.218-.368m-65.913.34c-.281.28-.282 1.384-.003 2.452.528 2.019 3.275 2.75 3.275.871 0-1.365-2.595-4-3.272-3.323M90 23.77c0 .489-1.013.853-2.25.809s-2.205.484-2.15 1.171.167 2.375.25 3.75c.175 2.918 2.15 3.432 2.15.559 0-1.068.399-2.188.887-2.489.488-.302.825.009.75.691s.305 1.357.845 1.501c1.229.328 1.605-5.59.402-6.334-.486-.3-.884-.146-.884.342m-14 5.171c0 .518.45 1.219 1 1.559s1-.084 1-.941S77.55 28 77 28s-1 .423-1 .941m72.192.134c.197.591.786 1.075 1.308 1.075s1.111-.484 1.308-1.075S150.417 28 149.5 28s-1.505.484-1.308 1.075m-37.617 2.075c-1.059 1.018-2.642 1.85-3.519 1.85-1.475 0-1.805 3.592-1.055 11.5.052.55 1.665-2.12 3.585-5.934 3.771-7.491 4.168-10.471.989-7.416M48 31.044c0 .574-.576.911-1.28.75-.703-.162-1.266.135-1.25.66.058 1.858 3.53 1.247 3.53-.621 0-1.008-.225-1.833-.5-1.833s-.5.47-.5 1.044m40 1.931c-2.066.546-2.473 1.224-2.345 3.908.085 1.787.872 4.042 1.75 5.012 1.969 2.176 2.126 5.246.231 4.519-2.065-.793-3.793 9.753-1.8 10.984 1.363.843 6.685-1.028 6.416-2.256-.137-.622-.286-5.855-.333-11.628-.046-5.774-.384-10.656-.751-10.848-.368-.193-1.793-.054-3.168.309m72.335-.273c-1.191.228-2.358.951-2.593 1.606-.701 1.959 1.243 7.819 2.364 7.126.567-.35.794-1.251.506-2.003s-.032-1.671.57-2.044c.758-.468.891.409.434 2.845-.363 1.937-.218 4.686.324 6.109.567 1.491.606 2.821.093 3.138-.489.303-1.035-.374-1.212-1.504-.71-4.543-2.338-2.12-2.622 3.905-.284 6.008-.181 6.349 1.75 5.844 2.554-.668 2.696.861.204 2.194-1.478.791-1.81 2.038-1.663 6.231.116 3.305.67 5.404 1.499 5.681.913.304 1.144-.213.757-1.695-.307-1.173-.15-2.385.348-2.693s.906.142.906.999c0 2.645 1.723 1.72 2.217-1.191.837-4.933.162-34.628-.791-34.798-.509-.091-1.9.022-3.091.25M123.548 38c-1.131 4.386-1.38 19.986-.329 20.635.862.533.904.272 1.222-7.635.122-3.025-.12-6.455-.537-7.623-.423-1.185-.311-2.57.254-3.135.556-.556.85-2.076.652-3.377-.31-2.039-.483-1.883-1.262 1.135m-35.469.583c.048 1.165.285 1.402.604.605.289-.722.253-1.585-.079-1.917s-.568.258-.525 1.312m-43.873 3.861c.162.795-.605 2.108-1.704 2.919-2.218 1.635-2.042 2.069 1.248 3.08 1.845.567 2.25.309 2.25-1.435 0-2.786 1.976-1.55 2.079 1.301.043 1.205.306 1.629.583.941.278-.687 1.142-1.25 1.921-1.25S52 47.6 52 47.111s-.77-.826-1.712-.75c-.978.079-1.885-.718-2.115-1.861-.396-1.957-1.885-3.454-3.467-3.485-.436-.008-.661.635-.5 1.429M17.6 47.6c-.356.927-.422 1.911-.147 2.186s.791-.259 1.147-1.186.422-1.911.147-2.186-.791.259-1.147 1.186m101.4.959c0 .857.457 1.276 1.016.931.559-.346.758-1.047.441-1.559-.857-1.387-1.457-1.129-1.457.628M88.5 49c.34.55.816 1 1.059 1s.441-.45.441-1-.477-1-1.059-1-.781.45-.441 1M41 54c0 2.333.444 3 2 3 2.476 0 2.822-4.47.418-5.393C41.057 50.701 41 50.757 41 54m7.459-1.933c-.363.586-.445 1.281-.183 1.543s.743-.218 1.069-1.067c.676-1.762.1-2.072-.886-.476M51 54.059c0 1.132-.45 1.781-1 1.441s-1-.13-1 .466-1.125 1.511-2.5 2.034c-2.958 1.124-3.331 2.938-.562 2.73 1.066-.081 2.148-.953 2.406-1.938.258-.986 1.186-1.792 2.062-1.792C51.44 57 52 56.121 52 54.5c0-1.375-.225-2.5-.5-2.5s-.5.927-.5 2.059m96.333-.603c0 .801.383 1.22.85.931s.591-.944.274-1.456c-.808-1.308-1.124-1.161-1.124.525m36.896 1.732c.218.653.931 1.365 1.584 1.583.731.244.954-.214.581-1.187-.698-1.818-2.765-2.196-2.165-.396m-68.953 2.721c.247 2.66 3.257 3.75 4.123 1.492.344-.896-.141-1.401-1.347-1.401-1.037 0-2.136-.562-2.442-1.25s-.457-.166-.334 1.159m-26.903 1.895c-1.679 1.338-2.132 2.804-2.147 6.946-.011 2.888.384 5.25.877 5.25s.913-1.237.932-2.75l.036-2.75 1.322 2.385c1.65 2.978 2.345 1.919 2.718-4.142.353-5.739-.809-7.274-3.738-4.939m-36.706.863c-.367.366-.667 1.131-.667 1.7 0 .626.466.567 1.183-.15.651-.651.951-1.416.667-1.7s-.817-.217-1.183.15m-4.221 2.42c-.369.598-.171 1.588.441 2.2.817.817 1.113.528 1.113-1.087q0-3.623-1.554-1.113m140.519 1.455c-1.041 1.255-1.037 1.768.025 2.75 1.039.963 1.189.877.735-.42-.313-.896-.064-2.133.553-2.75s.862-1.122.544-1.122-1.153.694-1.857 1.542M43.5 65c-.34.55.084 1 .941 1S46 65.55 46 65s-.423-1-.941-1-1.219.45-1.559 1m70.5 0c-1.293.835-1.266.971.191.985.93.008 1.969-.435 2.309-.985.782-1.266-.542-1.266-2.5 0m-98.218 8.75c-1.239 1.418-1.469 4.166-1.213 14.502.174 7.014.623 13.25.998 13.857 1.414 2.287 2.072-1.268 1.88-10.155-.176-8.21-.037-8.959 1.576-8.447 1.478.469 1.828-.16 2.124-3.807.194-2.403.208-5.118.03-6.034-.423-2.18-3.459-2.133-5.395.084m145.431-.562c-.667.666-1.213.842-1.213.39 0-.453-.608-.318-1.351.298-1.021.848-1.153 2.374-.538 6.26.455 2.879.42 5.872-.08 6.806-.49.916-.513 2.278-.05 3.027.766 1.239.738 2.801-.097 5.531-.169.55.008 2.492.393 4.316 1.287 6.102 2.723 2.23 2.723-7.344 0-7.536.272-9.305 1.364-8.886 1.476.567 2.443-2.876 2.247-8.003-.123-3.239-1.549-4.245-3.398-2.395m-88.908 5.286c.798 5.92 2.28 5.702 2.933-.433.183-1.714-.297-2.575-1.582-2.841-1.591-.33-1.776.119-1.351 3.274m40.428 1.65c.679.684 1.486.991 1.793.683.308-.308-.247-.867-1.233-1.243-1.425-.542-1.54-.428-.56.56M185 80c0 .55.477 1 1.059 1s.781-.45.441-1-.816-1-1.059-1-.441.45-.441 1M43.065 85.421c-.967 1.166-.811 1.325.867.887 1.125-.295 1.799-.934 1.498-1.422-.733-1.185-.984-1.129-2.365.535m29.602-.754c-.861.861-.868 6.799-.009 7.658 1.42 1.419 2.929-1.427 2.536-4.785-.399-3.424-1.137-4.263-2.527-2.873m113.906.292c-1.831.657-1.836.726-.107 1.39 1.987.762 2.943.301 2.388-1.152-.195-.511-1.221-.618-2.281-.238M113 85.912c0 1.016 2.557.864 3.638-.216.382-.383-.28-.696-1.471-.696s-2.167.41-2.167.912m-98.579 19.432c-1.009 2.631.011 6.123 1.894 6.482 1.536.292 1.767-.235 1.5-3.413-.325-3.881-2.372-5.731-3.394-3.069M116 108c0 3.341.325 4.084 1.676 3.823 2.426-.468 2.491-7.165.074-7.632-1.44-.278-1.75.398-1.75 3.809m41.747-2.75c-.23.688-.1 2.667.289 4.398.389 1.732.368 3.698-.046 4.368-.963 1.559.262 6.235 1.765 6.736.801.267 1.145-2.193 1.145-8.185 0-6.577-.317-8.567-1.367-8.567-.751 0-1.555.563-1.786 1.25m-143.082 9.18c-.7 1.824 1.215 7.762 2.289 7.098.418-.258.711-2.132.653-4.166-.11-3.811-1.914-5.61-2.942-2.932m101.335.988c0 3.275 1.014 5.691 2.105 5.017 1.587-.981 1.062-7.435-.605-7.435-.92 0-1.5.935-1.5 2.418m17.485 28.238c-3.292 6.961-6.135 13.036-6.318 13.5-.184.464 1.068.844 2.78.844 2.894 0 3.347-.511 6.423-7.25l3.309-7.25 3.673 7.25c3.077 6.073 4.077 7.25 6.161 7.25 1.555 0 2.487-.568 2.487-1.515 0-1.343-11.626-25.485-12.272-25.485-.142 0-2.951 5.695-6.243 12.656m-91.186-9.696c-5.824 3.55-7.752 10.176-4.783 16.433 2.44 5.141 6.711 7.031 15.984 7.072 7.994.035 8 .033 8.316-2.715l.317-2.75h-8.067C44.627 152 42 150.383 42 144.573c0-5.456 3.533-7.573 12.635-7.573 7.189 0 7.365-.06 7.365-2.5 0-2.465-.116-2.5-8.25-2.496-6.418.003-8.961.437-11.451 1.956m28.731-.681c-4.367 2.21-7.272 7.624-6.733 12.547 1.192 10.877 14.661 15.349 21.899 7.271 9.346-10.429-2.676-26.138-15.166-19.818M95 145.027v13.194l10.75-.436c6.062-.246 11.96-1.023 13.525-1.782 7.373-3.578 8.86-14.327 2.818-20.375-3.106-3.108-3.202-3.13-15.109-3.462L95 131.833zm62-.027v13h5v-26h-5zm-84.293-5.984c-2.002 1.575-2.707 3.022-2.707 5.557 0 6.739 7.323 9.905 11.826 5.113 6.015-6.404-2.249-16.074-9.119-10.67M101 144.5v7.5h6.918c8.474 0 9.749-.456 11.671-4.171 1.825-3.531 1.161-6.094-2.283-8.803-2.019-1.588-4.06-2.026-9.441-2.026H101z"/></svg>