<svg xmlns="http://www.w3.org/2000/svg" width="24" height="24" fill="#000000"><g clip-path="url(#a)"><path fill="#999999" d="M20.581 2.668h3.168V.608h-6.887v7.276h2.055V4.2c1.844 2.143 2.678 4.318 2.678 7.169 0 5.629-4.097 10.196-9.812 10.196-5.635 0-9.285-4.07-9.285-9.626 0-3.762 1.66-7.452 5.215-9.046v12.845H5.881v2.435h6.662c3.462 0 5.904-1.726 5.904-4.964 0-2.677-1.745-4.26-4.177-4.76.43-.501.716-.944.944-1.585.874-2.46-.262-5.468-2.74-6.453C11.596.063 10.588-.063 9.53.03 3.633.539 0 6.512 0 11.939 0 18.833 4.826 24 11.783 24 19.028 24 24 18.3 24 11.369c0-3.38-1.063-6.252-3.419-8.701M10.304 2.51c.772-.026 1.438.175 1.99.798.895 1.012.84 3.103-.005 4.116-.537.644-1.186.791-1.985.791zm1.294 8.14c2.066 0 4.252.312 4.252 2.587 0 2.183-2.197 2.5-4.252 2.5h-1.294v-5.087z"/></g><defs><clipPath id="a"><path fill="#ffffff" d="M0 0h24v24H0z"/></clipPath></defs></svg>