<svg xmlns="http://www.w3.org/2000/svg" width="160" height="160" fill="#000000"><path fill-opacity=".204" fill-rule="evenodd" d="M60.92 2.01C36.801 7.944 16.381 25.061 6.343 47.759c-8.426 19.053-8.426 45.429 0 64.482 7.873 17.803 23.529 33.506 41.196 41.318 19.377 8.57 45.545 8.57 64.922 0 22.572-9.982 40.673-31.845 45.586-55.059.698-3.3 1.648-6.428 2.111-6.95 1.133-1.279 1.088-24.82-.046-24.119-.488.302-1.179-1.359-1.534-3.691-3.466-22.758-23.06-47.103-46.117-57.299C97.829-.031 76.622-1.854 60.92 2.01M.385 80c0 6.875.16 9.688.355 6.25.196-3.437.196-9.062 0-12.5C.545 70.313.385 73.125.385 80"/><path fill-opacity=".103" fill-rule="evenodd" d="M65.075 1.026C34.891 7.369 12.237 28.122 2.844 58.035.836 64.429.5 67.58.5 80s.336 15.571 2.344 21.965c8.679 27.639 27.552 46.512 55.191 55.191C64.429 159.164 67.58 159.5 80 159.5s15.571-.336 21.965-2.344c28.425-8.926 49.211-30.464 55.643-57.656.91-3.85 2.046-7.781 2.524-8.736 1.245-2.491 1.124-23.04-.132-22.264-.563.348-1-.455-1-1.836 0-3.646-3.814-15.334-7.233-22.164-10.18-20.34-26.803-34.343-49.267-41.501C94.616.486 73.051-.651 65.075 1.026m52.086 37.6c-.109 5.425-.736 6.296-5.318 7.379-3.244.767-3.206.793 1.285.893 5.796.128 7.081-1.313 6.68-7.492-.413-6.363-2.523-6.985-2.647-.78M80 58.441C80 65.48 80.391 70 81 70c.606 0 1-4.314 1-10.941 0-6.215-.432-11.208-1-11.559-.645-.398-1 3.49-1 10.941m27.542-.675c.57 5.817-.31 6.906-6.055 7.491-3.718.379-3.646.418 1.063.575 2.818.094 5.58-.362 6.25-1.032 1.707-1.707 1.515-9.294-.273-10.777-1.272-1.056-1.406-.547-.985 3.743M55 63.878c0 2.733-.561 5.342-1.275 5.936-.702.582-3.514 1.199-6.25 1.372L42.5 71.5l-.275 16.963c-.151 9.33.074 17.655.5 18.5s1-6.563 1.275-16.463l.5-18 4.975-.314c2.736-.173 5.548-.79 6.25-1.372.709-.589 1.275-3.187 1.275-5.853 0-2.9.494-4.994 1.25-5.299.688-.277.237-.54-1-.583-2.037-.072-2.25.384-2.25 4.799m74.884-3.828c-.064.798-.083 3.099-.043 5.114.085 4.291-1.077 5.508-5.845 6.125-2.026.262-1.183.401 2.004.331l5.5-.12.307-5.393c.169-2.966-.168-5.868-.75-6.45-.743-.743-1.091-.626-1.173.393M.378 80c0 6.325.163 8.912.361 5.75s.198-8.338 0-11.5S.378 73.675.378 80m71.372-8.294c1.237.238 3.263.238 4.5 0 1.237-.239.225-.434-2.25-.434s-3.487.195-2.25.434M92 76.378c0 2.407.563 4.845 1.25 5.417.98.816 1.176-.129.907-4.377-.408-6.461-2.157-7.304-2.157-1.04m-6.238 8.329c1.244.239 3.044.23 4-.02s-.062-.446-2.262-.435-2.982.216-1.738.455m31.02 11.447L116.5 108.5l-5.75.3-5.75.3v4.878c0 3.215-.567 5.446-1.662 6.541-1.55 1.55-1.499 1.64.75 1.322 2.141-.303 2.468-.958 2.912-5.841l.5-5.5 5-.293c3.198-.188 5.45-.888 6.25-1.942 1.889-2.489 1.709-21.639-.218-23.239-1.276-1.058-1.506.404-1.75 11.128m-20.032.552c1.237.238 3.263.238 4.5 0 1.237-.239.225-.434-2.25-.434s-3.487.195-2.25.434m-62 13c1.237.238 3.263.238 4.5 0 1.237-.239.225-.434-2.25-.434s-3.487.195-2.25.434m20.265 4.985c-.008 2.855.435 5.469.985 5.809 1.303.805 1.303-7.484 0-9.5-.695-1.075-.974-.029-.985 3.691m37.486 8.559c-.24.688-.564 3.275-.719 5.75l-.282 4.5-17 .549-17 .549 18-.049 18-.049.314-4.975c.173-2.736.79-5.548 1.372-6.25.786-.946.632-1.275-.595-1.275-.91 0-1.85.563-2.09 1.25"/><path fill-opacity=".539" fill-rule="evenodd" d="M66.238 1.042C35.915 6.487 10.554 29.896 2.363 60c-2.461 9.045-2.461 30.955 0 40 6.134 22.543 22.241 41.991 43.059 51.989 12.571 6.037 19.002 7.417 34.578 7.417s22.007-1.38 34.578-7.417a80 80 0 0 0 37.411-37.411c3.927-8.177 7.011-18.256 7.011-22.913 0-1.401.45-2.825 1-3.165s1-4.668 1-9.618c0-5.745-.362-8.777-1-8.382-.571.353-1-.525-1-2.047 0-9.07-7.783-27.137-16.477-38.249C132.75 17.714 116 6.683 100.5 2.528 93.267.589 73.527-.267 66.238 1.042M106.03 32.96c-2.118 1.34-1.611 11.105.665 12.79 2.151 1.593 10.527 1.628 12.105.05.66-.66 1.2-3.334 1.2-5.943 0-3.768-.457-5.064-2.223-6.3-2.44-1.71-9.426-2.064-11.747-.597M55.2 46.2c-.66.66-1.2 3.312-1.2 5.893C54 57.417 53.262 58 46.525 58 41.607 58 41 58.833 41 65.582V70h-4.418C28.628 70 29 69.055 29 89.247c0 20.447.081 20.664 7.75 20.721L41 110l.015 4.25c.009 2.338.346 4.745.75 5.35 1.299 1.946 5.007 3.4 8.669 3.4H54v4.965c0 3.885.421 5.19 1.934 6 2.836 1.518 36.329 1.372 37.866-.165.66-.66 1.2-3.36 1.2-6V123h4.878c2.733 0 5.342-.561 5.936-1.275.582-.702 1.199-3.514 1.372-6.25l.314-4.975 4.975-.314c2.736-.173 5.548-.79 6.25-1.372.888-.738 1.275-4.31 1.275-11.781C120 82.996 120.004 83 105.671 83H95v-4.943C95 72.066 92.764 70 86.277 70H82V58.535c0-10.311-.195-11.569-1.934-12.5-2.768-1.481-23.356-1.345-24.866.165m39.682 10.05c-.242 8.67 1.004 9.974 9.117 9.542l5.501-.292.31-5.47c.386-6.823-.967-8.03-9.001-8.03H95zm22.785 2.417c-.367.366-.667 3.051-.667 5.964 0 6.424 1.544 7.617 9.28 7.17l5.22-.301.305-5.331c.176-3.071-.194-5.933-.872-6.75-1.213-1.461-11.949-2.069-13.266-.752m-60 2c-.367.366-.667 2.355-.667 4.418C57 71.218 56.332 72 51.093 72c-2.581 0-5.233.54-5.893 1.2-.838.838-1.2 6.267-1.2 18V108h4.277c6.492 0 8.723 2.064 8.723 8.071v4.958l16.433-.082c11.536-.057 16.732-.441 17.436-1.29.552-.664 1.144-3.446 1.317-6.182l.314-4.975 5.5-.5 5.5-.5.302-5.25.303-5.25h-4.853c-2.668 0-5.392-.54-6.052-1.2s-1.2-3.36-1.2-6V85h-4.277C81.236 85 79 82.934 79 76.943V72h-4.066C68.432 72 67 70.73 67 64.965V60h-4.333c-2.384 0-4.634.3-5 .667M.36 80c0 5.225.169 7.362.375 4.75s.206-6.888 0-9.5S.36 74.775.36 80"/><path fill-opacity=".976" fill-rule="evenodd" d="M68.539 1.047C59.052 2.533 52.152 4.85 42.5 9.792c-7.321 3.749-10.782 6.39-18.55 14.158-7.826 7.826-10.405 11.216-14.285 18.776C2.812 56.081.746 64.712.746 80s2.066 23.919 8.919 37.274c3.88 7.56 6.459 10.95 14.285 18.776s11.216 10.405 18.776 14.285c13.355 6.853 21.986 8.919 37.274 8.919s23.919-2.066 37.274-8.919c7.56-3.88 10.95-6.459 18.776-14.285s10.405-11.216 14.285-18.776C155.109 107.97 159 95.455 159 89.399c0-1.805.45-3.559 1-3.899s1-3.318 1-6.618c0-3.745-.376-5.768-1-5.382-.592.366-1-.77-1-2.781 0-6.166-3.855-18.62-8.665-27.993-3.88-7.56-6.459-10.95-14.285-18.776s-11.216-10.405-18.776-14.285c-5.075-2.604-12.663-5.613-16.862-6.688C91.269.639 76.757-.24 68.539 1.047M105.2 33.2c-.66.66-1.2 3.29-1.2 5.845 0 6.518 2.03 8.152 9.638 7.758l5.862-.303.303-5.851c.243-4.7-.052-6.12-1.5-7.218-2.236-1.696-11.476-1.858-13.103-.231M54.501 46.25c-.24.688-.564 3.275-.719 5.75l-.282 4.5-5.169.299c-2.842.165-5.626.852-6.186 1.526s-1.158 3.464-1.331 6.2L40.5 69.5l-5 .293c-3.198.188-5.45.888-6.25 1.942-.885 1.166-1.25 6.543-1.25 18.399 0 16.178.076 16.806 2.223 18.309 1.222.856 4.147 1.557 6.5 1.557H41v4.943c0 5.868 2.234 8.057 8.223 8.057 3.747 0 3.777.032 3.777 4.045 0 2.962.657 4.703 2.455 6.5 2.411 2.412 2.747 2.455 19.308 2.455 11.938 0 17.335-.365 18.502-1.25 1.054-.8 1.754-3.052 1.942-6.25l.293-5 5-.31c2.75-.17 5.439-.744 5.975-1.275s1.211-3.316 1.5-6.19l.525-5.225 5.5-.5 5.5-.5.28-12.209.281-12.208-2.981-1.542C115.005 82.469 111.196 82 104.55 82H95v-4.345C95 72.133 92.819 70 87.171 70H83V59.057C83 44.915 83.098 45 66.746 45c-8.547 0-11.929.345-12.245 1.25M95.2 52.2c-1.306 1.306-1.623 9.621-.435 11.4 2.147 3.216 11.945 4.723 13.978 2.15.543-.687 1.237-3.218 1.543-5.624.78-6.131-2.187-9.126-9.041-9.126-2.665 0-5.385.54-6.045 1.2m22.371 6.371c-.947.948-1.571 3.301-1.571 5.928 0 5.619 3.242 8.501 9.563 8.501 5.69 0 7.437-1.869 7.437-7.956 0-4.013-.41-5.083-2.465-6.429-3.193-2.092-10.889-2.118-12.964-.044m-59.904 2.096c-.367.366-.667 2.826-.667 5.464C57 71.715 55.515 73 49.066 73H45v34h3.05c1.677 0 4.377.687 6 1.526 2.667 1.379 2.95 2.003 2.95 6.5V120h34v-4.977c0-4.177.393-5.235 2.448-6.581 1.346-.882 3.709-1.471 5.25-1.31 4.085.429 5.302-.763 5.302-5.191 0-3.851-.081-3.941-3.566-3.941-3.662 0-7.37-1.454-8.669-3.4-.404-.605-.741-3.012-.75-5.35L91 85l-4.25-.032C80.746 84.923 79 83.272 79 77.64V73h-3.865C69.237 73 66 69.962 66 64.427V60h-3.833c-2.109 0-4.134.3-4.5.667M.32 80c0 3.575.182 5.037.403 3.25s.222-4.713 0-6.5C.502 74.963.32 76.425.32 80"/></svg>