<svg xmlns="http://www.w3.org/2000/svg" width="200" height="200" fill="#000000"><path fill-opacity=".216" fill-rule="evenodd" d="M82 1.523c-7.828 1.3-14.724 3.373-21.5 6.466-2.2 1.004-4.675 2.083-5.5 2.397-1.554.592-5.503 3.017-13.073 8.026-6.173 4.085-18.29 16.071-22.71 22.465-4.812 6.961-8.114 12.242-8.831 14.123-.314.825-1.363 3.3-2.33 5.5C3.11 71.751 0 87 0 100c0 13.086 3.139 28.379 8.108 39.5.983 2.2 2.026 4.675 2.318 5.5.541 1.528 2.775 5.187 7.986 13.086 3.755 5.691 17.811 19.747 23.502 23.502 7.715 5.09 11.543 7.438 13.086 8.026.825.314 3.3 1.393 5.5 2.397 15.775 7.199 37.223 9.678 56.5 6.53 8.975-1.466 19.105-4.456 24.353-7.188 1.731-.901 4.047-2.104 5.147-2.673 7.464-3.861 13.292-7.736 17.356-11.539 1.845-1.728 3.568-3.141 3.827-3.141 1.253 0 12.005-12.554 15.845-18.5 2.389-3.699 3.697-6.074 7.16-13 .55-1.1 1.462-2.9 2.027-4 4.344-8.456 8.585-30.565 7.965-41.523-.68-12.026-4.344-28.319-7.977-35.477-.558-1.1-1.465-2.9-2.015-4-5.238-10.476-7.308-13.784-13.136-21C169.988 27.134 160 18.622 150.5 13.445c-1.941-1.058-2.64-1.424-9-4.709C126.842 1.164 102.175-1.826 82 1.523M72.153 53c-.209 7.661 4.438 17.824 10.075 22.036C87.208 78.757 92.032 82 92.585 82 94.779 82 106 94.13 106 96.501c0 .272-2.138-.986-4.75-2.796-4.733-3.28-12.25-7.09-12.25-6.209 0 .255 1.822 1.393 4.049 2.529s4.3 2.72 4.607 3.52S98.841 95 99.607 95s1.393.45 1.393 1-1.237 1.02-2.75 1.045-4.1.705-5.75 1.511c-2.595 1.268-2.662 1.392-.5.916 6.618-1.456 8.796-1.611 9.379-.668.356.576-1.233 1.686-3.623 2.532-3.716 1.315-3.907 1.516-1.506 1.585 3.227.093 3.585 1.562.75 3.079-1.1.589-2 2.041-2 3.226 0 1.892.153 1.965 1.25.593.688-.86 2.227-1.795 3.42-2.077 1.69-.399 2.31.041 2.799 1.989.614 2.447.67 2.418 2.559-1.286 1.555-3.05 1.692-4.082.702-5.29-1.043-1.273-.887-1.413 1.021-.922 1.239.319 2.016.2 1.729-.266-1.213-1.962 4.257-.415 6.906 1.953l2.885 2.58-.701-3c-.662-2.83-.618-2.887.782-1.002 1.832 2.467 3.236 1.417 1.603-1.198-1.557-2.493-7.295-5.78-7.743-4.435-.34 1.02-6.212-3.956-6.212-5.265 0-.376-.891-1.64-1.979-2.808s-3.201-3.962-4.693-6.208c-1.493-2.246-5.274-6.59-8.402-9.654-5.819-5.697-8.062-9.137-9.409-14.43-.42-1.65-.975-2.425-1.233-1.721-.818 2.228 1.882 11.631 4.011 13.967 3.097 3.399 1.098 4.046-2.109.682-4.018-4.214-7.282-10.179-8.717-15.928-.746-2.991-1.275-3.996-1.316-2.5m46.19 1.663c-.999 1.56-2.385 3.432-3.08 4.158S114 60.651 114 61.271c0 1.292.417.857 4.406-4.587 1.538-2.098 2.561-4.05 2.275-4.336s-1.339.755-2.338 2.315m-2.079 15.587c-.539.688-2.053 4.287-3.363 8S110.176 85 109.759 85s-.759.675-.759 1.5c0 3.322-2.13 1.155-6.735-6.852-.918-1.596-1.239-1.734-1.25-.539-.008.885 1.448 3.442 3.235 5.682 3.606 4.517 9.044 9.138 8.216 6.981-.668-1.74 1.924-14.106 3.987-19.022 1.613-3.842 1.547-4.712-.189-2.5m-46.451 7.433c.721.289 1.584.253 1.916-.079s-.258-.568-1.312-.525c-1.165.048-1.402.285-.604.604M.37 100c0 5.775.165 8.138.367 5.25s.202-7.612 0-10.5S.37 94.225.37 100M82 107c-1.293.835-1.266.971.191.985.93.008 1.969-.435 2.309-.985.782-1.266-.542-1.266-2.5 0m37.5 2c.34.55 1.068 1 1.618 1s.722-.45.382-1-1.068-1-1.618-1-.722.45-.382 1m-21.227 6c0 3.959.932 4.791 3.524 3.146 1.037-.657.986-1.081-.25-2.107-.851-.706-1.547-2.129-1.547-3.161S99.611 111 99.136 111s-.863 1.8-.863 4M64 129.5c0 4.125.349 7.5.776 7.5s.632-1.912.455-4.25c-.291-3.831-.181-4.074 1.111-2.463.788.984 1.821 1.675 2.296 1.538s1.987.321 3.362 1.018c2.329 1.181 2.312 1.121-.25-.871-1.513-1.176-2.75-2.808-2.75-3.627 0-1.282.218-1.27 1.571.084.865.864 1.791 1.571 2.059 1.571.997 0-.78-1.971-3.567-3.955l-2.877-2.049.476 2.252c.43 2.035.364 2.077-.677.441-.634-.996-.904-2.458-.6-3.25s.116-1.439-.416-1.439c-.539 0-.969 3.329-.969 7.5m34.75-6.838c.688.278 1.813.278 2.5 0 .688-.277.125-.504-1.25-.504s-1.937.227-1.25.504m35.665.476c-.452.731-.291.903.43.457.677-.418 1.155-.092 1.155.787 0 1.815-1.69 3.049-2.176 1.59-.207-.622-1.149-.393-2.336.568-1.093.884-1.425 1.323-.738.975 2.309-1.169 1.278 1.728-1.5 4.214-2.661 2.383-2.669 2.42-.25 1.157 1.375-.718 3.063-1.191 3.75-1.052.688.14 1.25-.441 1.25-1.29s.497-1.544 1.105-1.544c.686 0 .96 1.516.724 4-.21 2.2-.032 4 .395 4s.776-3.123.776-6.941c0-6.642-1.039-9.423-2.585-6.921m-59.189 8.441c.95.991 1.942 1.587 2.205 1.324s-.514-1.074-1.726-1.803c-2.107-1.265-2.128-1.243-.479.479m49.646.171c-1.243 1.586-1.208 1.621.378.378 1.666-1.307 2.195-2.128 1.372-2.128-.207 0-.995.787-1.75 1.75m13.878-.088c.688.278 1.813.278 2.5 0 .688-.277.125-.504-1.25-.504s-1.937.227-1.25.504M92.158 134c0 1.375.227 1.938.504 1.25.278-.687.278-1.812 0-2.5-.277-.687-.504-.125-.504 1.25m15.466 1.539c-.965 2.514-.681 3.163.498 1.136.584-1.004.851-2.036.593-2.293-.257-.258-.749.263-1.091 1.157m-33.811 2.144c.721.289 1.584.253 1.916-.079s-.258-.568-1.312-.525c-1.165.048-1.402.285-.604.604m6 0c.721.289 1.584.253 1.916-.079s-.258-.568-1.312-.525c-1.165.048-1.402.285-.604.604m40.937.04c1.787.222 4.713.222 6.5 0 1.787-.221.325-.403-3.25-.403s-5.037.182-3.25.403m-35.481 1.97c.973.254 2.323.237 3-.037s-.119-.481-1.769-.461-2.204.244-1.231.498m17.603.971c-1.244 1.508-1.162 1.552.878.465 2.327-1.24 2.9-2.129 1.372-2.129-.482 0-1.495.749-2.25 1.664m-42.536 1.903c-.331.862-.026 2.1.678 2.75 1.017.94 1.14.788.599-.737-.406-1.145-.163-2.249.603-2.735 1.042-.661 1.042-.817.003-.83-.705-.008-1.552.69-1.883 1.552m5.822.933c0 1.65.233 2.419.518 1.708.398-.992.844-1.021 1.921-.127 1.143.948 1.403.678 1.403-1.459 0-1.442-.477-2.622-1.059-2.622s-.781.45-.441 1 .179 1-.358 1-1.202-.562-1.48-1.25c-.277-.687-.504.1-.504 1.75m6.134-.25c.173 3.309.787 3.454 2.566.605 1.162-1.859 1.136-2.067-.194-1.556-.844.324-1.755.051-2.025-.605-.27-.657-.426.044-.347 1.556m26.521-1.567c.721.289 1.584.253 1.916-.079s-.258-.568-1.312-.525c-1.165.048-1.402.285-.604.604m29.257.067c.143 1.518 1.794 4.717 1.936 3.75.081-.55.298-1.787.482-2.75.191-.998-.271-1.75-1.076-1.75-.777 0-1.38.338-1.342.75m6.244 1c-.342.963-.746 1.992-.896 2.288s.931.6 2.404.676c1.473.075 2.116-.092 1.428-.372-.687-.28-1.25-1.109-1.25-1.842s.563-1.56 1.25-1.838c.735-.296.516-.537-.531-.583-.98-.043-2.062.708-2.405 1.671m-57.037 2.202c.281 1.074-.004 2.163-.633 2.421s-.326.505.673.548c1.373.06 1.663-.409 1.185-1.915-.506-1.593-.285-1.86 1.097-1.33 1.176.451 1.498.289 1.006-.506-1.248-2.019-3.897-1.396-3.328.782m4.738 2.392c.009 1.253.323 1.695.75 1.056.404-.605 1.398-1.314 2.209-1.575 1.038-.334.816-.647-.75-1.056-1.793-.469-2.221-.164-2.209 1.575m35.321-.777c-.792 2.063.976 3.743 3.308 3.143 1.528-.393 1.458-.499-.394-.594-2.387-.123-3.106-2.604-1-3.454.979-.395.972-.521-.031-.583-.705-.043-1.552.626-1.883 1.488m4.664-.126c0 1.969 1.301 2.613 3.048 1.508 1.085-.686 1.121-.922.143-.934-.72-.008-1.031-.465-.691-1.015s-.084-1-.941-1-1.559.648-1.559 1.441m-9.421 1.431c-.272.44-.102 2.111.378 3.714.535 1.791.904 2.198.957 1.057.057-1.224.597-1.661 1.586-1.281 2.036.781 1.885.023-.464-2.326-1.079-1.079-2.185-1.603-2.457-1.164m-26.829 1.52c-1.844 1.4-2.469 3.171-.743 2.104.554-.343 1.276.078 1.605.935.845 2.203 2.388.918 2.388-1.99 0-2.747-.711-2.976-3.25-1.049m.75.608c-.34.55-.141 1 .441 1S88 150.55 88 150s-.198-1-.441-1-.719.45-1.059 1m-26.687.683c.721.289 1.584.253 1.916-.079s-.258-.568-1.312-.525c-1.165.048-1.402.285-.604.604m30.854-.016c-1.391 1.39-.641 4.332 1.083 4.254.963-.043 1.235-.29.606-.548s-.914-1.347-.633-2.421c.522-1.996.131-2.472-1.056-1.285M97.232 153c0 1.925.206 2.713.457 1.75.252-.963.252-2.537 0-3.5-.251-.963-.457-.175-.457 1.75m4.768-.5c0 1.833.533 2.5 2 2.5 2.285 0 2.404-.377.965-3.066-1.446-2.701-2.965-2.411-2.965.566m5.393-.918c.334.87.607 1.77.607 2s.408.418.906.418.671-.9.384-2-.969-2-1.514-2c-.544 0-.717.712-.383 1.582m28.69-1.223c1.178 1.016 6.024 1.622 5.442.681-.354-.572-1.816-1.04-3.251-1.04s-2.42.162-2.191.359M99 152.441c0 .857.45 1.559 1 1.559s1-.423 1-.941-.45-1.219-1-1.559-1 .084-1 .941m4 .559c0 .55.477 1 1.059 1s.781-.45.441-1-.816-1-1.059-1-.441.45-.441 1"/><path fill-opacity=".235" fill-rule="evenodd" d="M83.487 1.522c-4.407.689-9.749 1.979-11.872 2.865S67.106 6 66.312 6C64.82 6 46.888 14.701 46 15.855c-.275.358-2.514 1.999-4.976 3.648-5.76 3.856-17.665 15.761-21.521 21.521-1.649 2.462-3.29 4.701-3.648 4.976C14.861 46.764 6 64.716 6 65.966c0 .603-.846 3.67-1.88 6.816C3.085 75.927 1.664 83.497.961 89.604c-1.107 9.613-1.06 12.729.353 23.217.897 6.662 2.319 13.758 3.159 15.768S6 132.894 6 133.688c0 1.462 8.188 18.384 9.971 20.606.532.663 3.076 3.906 5.654 7.206 5.893 7.547 9.328 10.982 16.875 16.875 3.3 2.578 6.543 5.122 7.206 5.654C47.73 185.653 64.787 194 66.081 194c.668 0 3.735.853 6.816 1.896 6.141 2.078 19.836 4.104 27.742 4.104 7.109 0 22.71-2.567 30.211-4.971 8.364-2.681 20.919-9.066 27.978-14.23 10.136-7.413 23.831-22.529 27.903-30.799.677-1.375 1.619-3.175 2.093-4 6.633-11.544 11.676-32.157 11.499-47-.149-12.498-3.387-27.3-8.42-38.5-.989-2.2-2.068-4.675-2.398-5.5-.858-2.143-4.453-7.955-8.426-13.621-6.135-8.749-19.633-21.272-28.948-26.857-.897-.537-2.756-1.654-4.131-2.48s-4.075-2.117-6-2.868C119.767.503 103.562-1.615 83.487 1.522m.197 39.228c-.238.413-.072 1.65.371 2.75.702 1.746.813 1.651.875-.75.069-2.713-.399-3.464-1.246-2m39.869 5.972c-.49 1.277-.859 1.4-1.43.476-.567-.916-1.279-.649-2.697 1.011-1.588 1.861-1.615 2.015-.152.881 3.518-2.727 2.921-.031-1.202 5.43-2.314 3.066-4.016 6.115-3.783 6.777s1.426-.47 2.648-2.515 3.762-4.669 5.643-5.831c3.671-2.269 4.729-3.722 1.42-1.951-2.546 1.362-2.528.55.068-3.096 1.138-1.597 1.636-2.904 1.107-2.904s-1.258.775-1.622 1.722m-60.842-.1c-.391.391-.64 3.224-.554 6.295l.157 5.583.686-5c.377-2.75.756-4.362.843-3.583s.392 1.182.678.895.157-1.507-.288-2.712c-.446-1.204-1.13-1.869-1.522-1.478M83.286 50.5c.008 2.75.202 3.756.432 2.236s.223-3.77-.014-5-.425.014-.418 2.764m48.682-.766 2.468.462-2.468 1.367c-1.357.751-2.018 1.379-1.468 1.395s2.35-.865 4-1.958l3-1.987-4 .13c-2.721.088-3.211.277-1.532.591m-62.889 1.849c.048 1.165.285 1.402.604.605.289-.722.253-1.585-.079-1.917s-.568.258-.525 1.312m3.04 1.801c-.324 10.581 6.865 21.664 17.544 27.051C93.588 82.415 105 93.382 105 95.174c0 .547-1.752-.394-3.894-2.09S96.725 90 96.13 90s-2.555-.898-4.356-1.996c-4.231-2.58-5.779-2.582-2.501-.004 1.398 1.1 3.001 2 3.562 2s1.848 1.053 2.86 2.339 2.507 2.582 3.322 2.879c.843.307-.574 1.077-3.284 1.784-6.996 1.826-6.762 3.057.464 2.444l6.303-.535-3.824 1.452c-4.755 1.806-5.651 2.637-2.843 2.637 1.26 0 2.167.628 2.167 1.5 0 .825-.689 1.5-1.531 1.5-2.007 0-2.888 2.428-1.672 4.602.875 1.564 1.029 1.523 1.651-.439 1.024-3.226 5.146-2.915 5.991.452.642 2.554.707 2.514 2.859-1.75 1.727-3.423 1.932-4.581.95-5.365-.891-.712-.072-1.045 2.844-1.156 2.927-.111 4.674.422 6.12 1.868 1.113 1.113 2.308 1.618 2.656 1.123.76-1.084 2.186-1.088 3.882-.011.856.544 1.25.127 1.25-1.324 0-1.165-.401-1.87-.891-1.568-.489.303-1.625-.57-2.523-1.941S117.312 98 116.527 98s-1.892-.787-2.459-1.75c-.784-1.33-1.23-1.45-1.86-.498-.917 1.385-3.231-.798-9.274-8.752-1.88-2.475-3.76-4.65-4.177-4.833-.416-.184-.771-.859-.789-1.5C97.934 79.396 93.484 74 92.471 74 91.631 74 86 68.33 86 67.485c0-.368-.9-1.814-2-3.212-1.216-1.547-2-4.057-2-6.408C82 55.739 81.55 54 81 54s-1 1.569-1 3.486C80 61.674 82.11 70 83.172 70c.417 0 1.28 1.013 1.918 2.25.864 1.675.232 1.367-2.475-1.207C78.551 67.18 75.068 60.761 73.369 54l-1.131-4.5zm42.753-1.634c-1.243 1.586-1.208 1.621.378.378 1.666-1.307 2.195-2.128 1.372-2.128-.207 0-.995.788-1.75 1.75m-38.426 3.337c-.369.598-.171 1.588.441 2.2.817.817 1.113.528 1.113-1.087q0-3.623-1.554-1.113M111 56c-.589 1.1-.845 2-.57 2s.981-.9 1.57-2 .845-2 .57-2-.981.9-1.57 2m15.667-1.333c-1.201 1.201-.698 3.282.666 2.759.734-.282 1.334-1.168 1.334-1.969 0-1.544-.894-1.897-2-.79M68 56.559c0 .879-.48 1.263-1.1.879-.773-.477-.762-.049.035 1.441 1.5 2.802 1.745 2.685 1.846-.879.047-1.65-.11-3-.348-3S68 55.702 68 56.559m62.75-.897c.688.278 1.813.278 2.5 0 .688-.277.125-.504-1.25-.504s-1.937.227-1.25.504m7.583.743c0 .772.6 1.174 1.334.893.733-.282 1.333-.914 1.333-1.405s-.6-.893-1.333-.893c-.734 0-1.334.632-1.334 1.405m-33.828 2.587c-.337.546-.153 1.783.41 2.75.879 1.508 1.029 1.367 1.055-.992.031-2.876-.431-3.431-1.465-1.758m28.07 1.067c-1.059 1.068-1.466 1.941-.905 1.941s1.835-.9 2.83-2c2.32-2.564.626-2.512-1.925.059m-24.878 1.876c-.933 1.58-1.695 3.254-1.693 3.719s.926-.667 2.054-2.517 1.889-3.523 1.693-3.719-1.12.937-2.054 2.517m5.382 2.648c.048 1.165.285 1.402.604.605.289-.722.253-1.585-.079-1.917s-.568.258-.525 1.312m14.326.667L125.5 67.5l2.25-1.905c2.114-1.79 2.705-2.595 1.905-2.595-.19 0-1.202 1.013-2.25 2.25M87.5 66c.995 1.1 2.035 2 2.31 2s-.315-.9-1.31-2-2.035-2-2.31-2 .315.9 1.31 2m14.579-.417c.048 1.165.285 1.402.604.605.289-.722.253-1.585-.079-1.917s-.568.258-.525 1.312m14.66 3.667c-1.348 2.338-3.257 6.402-4.243 9.033s-2.176 5.019-2.644 5.309c-.469.289-.859 1.512-.867 2.717-.013 1.91-.457 1.678-3.462-1.809-3.159-3.665-4.887-8.461-2.523-7 1.227.758 1.277-.514.094-2.382-.679-1.072-1.04-.862-1.611.937-.708 2.229-.79 2.246-2.11.441-2.792-3.819-1.263-.196 1.825 4.324 5.437 7.958 12.287 14.078 16.557 14.794.69.116 1.001-.2.691-.702S117.234 94 116.441 94c-.807 0-1.472-.99-1.511-2.25-.067-2.147-.11-2.158-.93-.25-.698 1.623-.861 1.341-.87-1.5-.017-5.507 1.424-11.97 4.18-18.75 1.398-3.437 2.393-6.25 2.211-6.25s-1.434 1.912-2.782 4.25m-50.707-1.611c.045 1.221 2.861 4.802 3.372 4.288.233-.235-.437-1.489-1.49-2.788s-1.9-1.973-1.882-1.5M106.158 69c0 1.375.227 1.938.504 1.25.278-.687.278-1.812 0-2.5-.277-.687-.504-.125-.504 1.25m17.405 2.509c-.935 1.97-1.479 4.123-1.21 4.786.313.772.52.666.574-.295.047-.825.766-2.804 1.597-4.399.831-1.594 1.338-3.073 1.125-3.286-.213-.212-1.152 1.225-2.086 3.194M62 70.711c0 .574.788 1.662 1.75 2.417 1.619 1.269 1.64 1.222.283-.628-.807-1.1-1.594-2.187-1.75-2.417s-.283.054-.283.628m31.722 1.339c1.222 1.287 2.416 2.139 2.652 1.894s-.763-1.296-2.222-2.338L91.5 69.712zm-23.877 6.183c2.956 3.086 3.915 4.69 3 5.015-.74.263-1.072.775-.738 1.139.334.363 1.374.366 2.312.006 1.503-.577 1.39-.983-.956-3.431-2.421-2.527-2.494-2.82-.812-3.254 1.66-.427 1.642-.488-.178-.592-1.116-.064-3.141-.859-4.5-1.768-1.36-.908-.518.39 1.872 2.885m5.155.15c0 .211.901.619 2.001.907 1.101.288 1.75.115 1.441-.383-.538-.871-3.442-1.313-3.442-.524m44.1 1.912c-1.265 2.107-1.243 2.128.479.479.991-.95 1.587-1.942 1.324-2.205s-1.074.514-1.803 1.726m-2.888 5.737c-1.791 2.868-1.473 3.786.39 1.126.881-1.258 1.427-2.463 1.212-2.677-.214-.215-.935.483-1.602 1.551M76.5 88c.995 1.1 2.035 2 2.31 2s-.315-.9-1.31-2-2.035-2-2.31-2 .315.9 1.31 2m5 4c2.009 2.22 3.39 2.777 1.631.658-.612-.738-.818-1.638-.456-2S82.514 90 81.512 90c-1.759 0-1.759.07-.012 2M.336 100c0 4.125.177 5.813.392 3.75s.216-5.437 0-7.5C.513 94.188.336 95.875.336 100M68 95.5c1.375.786 3.175 1.427 4 1.425s-.014-.661-1.865-1.464c-4.258-1.849-5.401-1.828-2.135.039m8-1.107c0 .216.698.661 1.552.989.89.341 1.291.173.941-.393-.587-.951-2.493-1.406-2.493-.596m9.658 1.157c.279.728 1.145 1.079 1.925.78 1.878-.721 1.79-.999-.508-1.6-1.314-.344-1.764-.084-1.417.82m-11.325.95c0 .825.655 1.5 1.456 1.5 1.181 0 1.221-.283.211-1.5-.685-.825-1.34-1.5-1.456-1.5s-.211.675-.211 1.5M77 102.961c-2.641.526-3.091.88-1.833 1.443.966.432 2.86.1 4.5-.789 3.049-1.652 2.731-1.73-2.667-.654m3.5 3.984c-1.513.609-.614.983 3.694 1.538 5.194.669 5.749.982 6.315 3.556.341 1.553 1.378 3.416 2.305 4.142 1.514 1.184 1.546 1.14.314-.431-.755-.963-1.003-1.75-.55-1.75s.282-.54-.378-1.2-1.2-2.01-1.2-3c0-1.333-.778-1.8-3-1.8-1.65 0-3-.45-3-1 0-1.168-1.682-1.188-4.5-.055m28.753 1.305c-2.727 1.906-3.221 2.875-3.236 6.345-.013 3.029.569 4.591 2.233 6 2.248 1.903 2.248 1.903.5-.174-3.341-3.968-1.875-10.203 3.025-12.862 1.499-.813 2.269-1.497 1.711-1.519s-2.463.973-4.233 2.21m9.667.154c1.566 1.887 4.428 2.145 3.835.346-.226-.687-1.48-1.406-2.785-1.596-2.073-.302-2.206-.144-1.05 1.25m-21.102 6.709c-.428 4.483 1.08 6.046 3.72 3.855 1.341-1.113 1.312-1.477-.263-3.216-.976-1.079-1.663-2.14-1.525-2.357.58-.917.182-2.395-.645-2.395-.492 0-1.071 1.851-1.287 4.113m-39.127-1.082c-1.097 1.566-1.311 4.459-.934 12.615.383 8.27.19 10.791-.884 11.534-.943.653-.605.733 1.079.254 1.349-.383 5.853-.697 10.01-.697 5.948 0 8.3.453 11.047 2.128 1.92 1.17 4.166 2.139 4.991 2.153s2.625.906 4 1.982 3.4 1.959 4.5 1.963c1.754.007 1.698-.145-.454-1.234-1.858-.941-2.512-2.15-2.693-4.985-.286-4.471 1.014-4.77 4.328-.994 1.635 1.863 2.293 3.637 2.039 5.5-.372 2.741-.353 2.75 5.703 2.735 3.342-.009 5.588-.346 4.989-.75-2.383-1.61-2.08-4.745.748-7.735l2.838-3 .001 5.156c.001 4.585.213 5.101 1.913 4.657 1.051-.275 2.851-1.376 4-2.446 1.148-1.069 2.088-1.71 2.088-1.422s1.796-.413 3.992-1.558c3.402-1.773 5.385-2.029 13.408-1.734 5.178.191 8.948.059 8.376-.293-.671-.414-.849-4.571-.502-11.75l.538-11.11h-3.906c-3.277 0-3.906.332-3.906 2.059 0 1.132.338 1.851.75 1.596s.806.731.873 2.191c.068 1.46-.089 2.069-.35 1.354q-.473-1.303-3.878 2.205c-5.904 6.079-12.06 9.71-17.443 10.289-3.289.354-4.952.159-4.952-.581 0-.612 1.688-1.177 3.75-1.255l3.75-.142-4-.608c-3.001-.456-4.19-.233-4.761.892-.418.825-.522-.127-.23-2.116.569-3.871-.214-7.184-1.509-6.384-.435.269-1.012-.089-1.282-.794-1.378-3.589-14.241-.594-13.108 3.052.483 1.556.417 1.548-.618-.069-.638-.996-.902-2.482-.587-3.302.318-.829.14-1.224-.401-.889-.535.33-.919 1.591-.853 2.802.066 1.21-.227 3.1-.65 4.2l-.77 2 1.603-2c1.904-2.376 2.112-1.573.505 1.953-.987 2.168-1.769 2.526-5.25 2.405l-4.089-.142 4-.716 4-.716-4.25-.142c-2.338-.078-4.25.308-4.25.858 0 1.838-2.043 1.032-7.293-2.877-7.589-5.651-9.992-8.587-10.107-12.347-.091-2.992-.36-3.261-3.1-3.105-1.65.095-2.212-.051-1.25-.323s1.75-.912 1.75-1.421c0-1.615-1.833-1.003-3.309 1.104M138.5 113c-.34.55.335 1 1.5 1s1.84-.45 1.5-1-1.015-1-1.5-1-1.16.45-1.5 1m-41 10.921c-1.1.429-2.032 1.185-2.071 1.68s-.702 2.197-1.472 3.783c-1.344 2.768-1.261 3.003 2.072 5.881 1.909 1.649 2.796 2.646 1.971 2.215s-2.287-1.461-3.25-2.287c-1.97-1.692-2.247-.99-.727 1.85 1.548 2.892 5.021 4.495 6.089 2.81.633-.998.861-1.025.873-.103.026 2.132 2.001 1.376 3.183-1.219.618-1.357 1.495-2.239 1.949-1.959 1.037.641 2.291-4.103 1.445-5.471-.344-.558-1.174-.882-1.844-.721s-.88.103-.468-.127c2.145-1.2.246-3.15-4-4.109l-4.75-1.072 4.443.395c3.126.277 5.002 1.083 6.324 2.714 1.035 1.275 1.7 1.644 1.48.819-.449-1.679-6.437-6.039-8.145-5.93-.606.039-2.002.422-3.102.851m2.313 9.762c.721.289 1.584.253 1.916-.079s-.258-.568-1.312-.525c-1.165.048-1.402.285-.604.604m1.266 2.9c.048 1.165.285 1.402.604.605.289-.722.253-1.585-.079-1.917s-.568.258-.525 1.312m-18 1c.048 1.165.285 1.402.604.605.289-.722.253-1.585-.079-1.917s-.568.258-.525 1.312m28 0c.048 1.165.285 1.402.604.605.289-.722.253-1.585-.079-1.917s-.568.258-.525 1.312m5.936-.392c-.008.93.435 1.969.985 2.309 1.266.782 1.266-.542 0-2.5-.835-1.293-.971-1.266-.985.191m-63.872 2.699c-.834.529-.971 1.098-.355 1.479.552.341 1.26-.053 1.576-.875.662-1.727.6-1.757-1.221-.604m8.017 1.35c-.638.638-1.16 1.97-1.16 2.96 0 1.325.726 1.769 2.75 1.684 1.692-.071 2.077-.292 1-.573-1.988-.52-2.363-2.94-.549-3.545.79-.263.845-.62.16-1.043-.573-.354-1.563-.121-2.201.517m4.84 1.474c0 2.172.496 2.898 2.061 3.016 1.676.126 2.003-.347 1.75-2.529-.45-3.888-3.811-4.317-3.811-.487m45.158-.714c0 1.375.227 1.938.504 1.25.278-.687.278-1.812 0-2.5-.277-.687-.504-.125-.504 1.25m18.092-1.28c-1.476.528-1.674 3.9-.279 4.762.534.33 1.263-.565 1.62-1.988.728-2.899.475-3.422-1.341-2.774m5.95.48c-.66.66-1.2 1.748-1.2 2.417s-.562 1.443-1.25 1.721c-.687.277.325.504 2.25.504s2.938-.227 2.25-.504c-1.789-.722-1.547-3.338.309-3.338.857 0 1.281-.45.941-1-.818-1.324-1.838-1.262-3.3.2m11.133.256c0 .801.375 1.224.834.941s.833-.938.833-1.456-.375-.941-.833-.941c-.459 0-.834.655-.834 1.456m-74.553 2.501c.542 3.689 1.344 3.839 2.876.535.636-1.371.785-2.492.332-2.492-.454 0-1.461-.244-2.239-.543-1.082-.415-1.31.174-.969 2.5m49.905-1.309c-.357.357-.395 1.658-.086 2.891.652 2.596-1.234 4.226-2.928 2.532-.872-.872-.79-1.407.337-2.189 1.288-.892 1.29-.979.02-.634-.81.22-1.718 1.439-2.018 2.709-.494 2.091-.672 2.155-1.9.676-.745-.898-1.75-1.633-2.232-1.633-1.216 0-1.108 5.74.122 6.5.55.34 1 .141 1-.441s.9-1.059 2-1.059 2-.4 2-.889c0-.488 1.559-1.181 3.465-1.538 4.135-.776 5.449-2.431 3.223-4.06-1.232-.9-1.34-1.461-.453-2.348s.799-1.165-.368-1.165c-.844 0-1.825.292-2.182.648m-44.606 2.102c.043.963.297 1.213.565.556.267-.656 1.205-.917 2.085-.58q1.594.61.876-.556c-1.112-1.799-3.615-1.387-3.526.58m4.654 2.868c-.551 2.879-.288 2.937 2.175.474 1.822-1.822 1.826-1.928.094-2.381-1.305-.342-1.942.194-2.269 1.907m62.612-1.075c-.326.849-.369 1.767-.096 2.04.274.273.737-.422 1.03-1.543.624-2.383-.069-2.751-.934-.497M75 147.018c0 1.068 2.985 2.109 4.09 1.426 1.723-1.065.905-2.194-1.59-2.194-1.375 0-2.5.346-2.5.768m-18.921 1.565c.048 1.165.285 1.402.604.605.289-.722.253-1.585-.079-1.917s-.568.258-.525 1.312m30.394-.539c-.325.526-.27 1.476.122 2.111.443.715.275.883-.44.44-.635-.392-1.639-.414-2.229-.049-.631.39.051 1.248 1.648 2.077 3.124 1.621 2.947 1.704 3.778-1.769.441-1.842.19-2.816-.827-3.206-.804-.308-1.727-.13-2.052.396m45.86 2.498c0 .802.423 1.458.941 1.458.517 0 .681.675.364 1.5-.316.825-.332 1.5-.035 1.5s1.215-.675 2.04-1.5c1.333-1.333 1.325-1.5-.072-1.5-.864 0-1.571-.408-1.571-.906 0-.51 1.53-.437 3.499.167 1.925.591 3.8.774 4.167.407 1.012-1.013.247-1.332-4.749-1.985-3.623-.474-4.584-.293-4.584.859m-74.69.226c-.261.423 1.287.601 3.441.395s3.916-.551 3.916-.768c0-.745-6.882-.396-7.357.373m17.09.356c.679.684 1.486.991 1.793.683.308-.308-.247-.867-1.233-1.243-1.425-.542-1.54-.428-.56.56M90 152.393c0 1.316.608 2.626 1.352 2.912.957.367 1.322-.331 1.25-2.391-.122-3.476-2.602-3.972-2.602-.521m6.694.357c-.297 1.512-.125 3.178.383 3.7.57.587.929-.178.938-2 .012-2.21.249-2.581.946-1.479 1.152 1.822 2.504.682 1.694-1.428-.96-2.502-3.378-1.766-3.961 1.207m5.306.036c0 2.119.479 2.785 2 2.785 2.048 0 2.465-1.194 1.393-3.989-1.028-2.679-3.393-1.84-3.393 1.204m5.015-1.536c.026 2.096 1.696 4.046 2.853 3.332.776-.48.739-1.239-.129-2.628-1.383-2.215-2.747-2.567-2.724-.704m18.492-.261c-.35.566.051.734.941.393 1.732-.665 2.049-1.382.611-1.382-.518 0-1.216.445-1.552.989m17.224.931c-.435 1.663-.305 2.054.437 1.312.582-.582.86-1.647.62-2.369-.25-.749-.703-.295-1.057 1.057m-81.064.747c-.367.366-.66 1.154-.652 1.75.011.733.253.716.75-.051.404-.624 1.635-1.359 2.735-1.634 1.935-.484 1.932-.504-.083-.616-1.146-.064-2.384.184-2.75.551m59.84.322c-.35.566.051.734.941.393 1.732-.665 2.049-1.382.611-1.382-.518 0-1.216.445-1.552.989m16.636.901c-.746.473-.971 1.094-.5 1.38s1.437-.108 2.146-.875c1.429-1.546.464-1.842-1.646-.505M117 155c-.901.582-1.025.975-.309.985.655.008 1.469-.435 1.809-.985.767-1.242.421-1.242-1.5 0m-4 2c-.901.582-1.025.975-.309.985.655.008 1.469-.435 1.809-.985.767-1.242.421-1.242-1.5 0m-6.187 1.683c.721.289 1.584.253 1.916-.079s-.258-.568-1.312-.525c-1.165.048-1.402.285-.604.604m-10.045 1.042c1.797.222 4.497.218 6-.01 1.503-.229.032-.411-3.268-.405s-4.529.192-2.732.415"/><path fill-opacity=".497" fill-rule="evenodd" d="M85.321 1.565c-5.598.721-11.538 2.013-13.2 2.872-1.662.86-3.777 1.563-4.7 1.563-2.229 0-19.926 8.698-21.461 10.549-.663.798-1.632 1.451-2.154 1.451s-1.558.563-2.301 1.25-3.525 3.028-6.179 5.201C31.349 27.707 24.683 34.815 19.5 41.328 16.848 44.66 10.848 55.496 8.33 61.5 1.942 76.73 1.506 79.191 1.506 100c0 17.858.199 20.089 2.363 26.5 4.534 13.429 9.754 24.083 16.131 32.921 1.948 2.7 17.879 18.631 20.579 20.579 21.049 15.186 46.267 21.701 71.921 18.58 12.7-1.545 22.594-4.517 33-9.911 1.1-.57 3.19-1.638 4.645-2.374 1.454-.735 3.197-2.002 3.872-2.816.675-.813 1.673-1.479 2.217-1.479 1.131 0 9.787-6.924 14.314-11.452 5.417-5.416 12.727-15.029 16.007-21.048.6-1.1 1.592-2.9 2.205-4 4.974-8.926 8.751-21.778 10.341-35.194 1.388-11.713.022-27.59-3.229-37.524-1.03-3.146-1.872-6.213-1.872-6.816 0-1.211-8.429-18.338-9.971-20.26-.532-.663-3.076-3.906-5.654-7.206-8.021-10.271-18.617-19.465-28.875-25.055-1.1-.6-2.9-1.598-4-2.219-7.993-4.512-20.622-8.272-33-9.827-12.682-1.592-13.55-1.587-27.179.166M71.568 42.206c-.862 1.231-1.554 2.926-1.538 3.767.022 1.097.339.964 1.125-.473.601-1.1 1.74-2.519 2.529-3.154.869-.698 1.044-1.396.444-1.767-.545-.337-1.697.395-2.56 1.627m11.05-.654c-.327.854-.263 1.346.143 1.095s.739 3.529.739 8.398c0 6.145.415 9.253 1.355 10.155 1.136 1.089 1.218.732.508-2.2-1.044-4.306-1.106-11.412-.138-15.75.543-2.436.382-3.25-.643-3.25-.752 0-1.636.698-1.964 1.552m-3.016 4.606c-.881 1.258-1.6 2.974-1.598 3.815s.926.014 2.054-1.836c2.34-3.838 1.97-5.443-.456-1.979m41.148.414c-1.513.821-2.75 1.928-2.75 2.46s-.562.968-1.25.968c-1.461 0-5.636 5.013-8.335 10.007l-1.888 3.493-.33-2.75c-.724-6.032-4.267-.357-4.087 6.547l.109 4.203.862-4.388c1.181-6.013 1.653-6.099 2.468-.454.385 2.663 1.093 5.517 1.574 6.342.541.929.645-.053.274-2.583-1.002-6.824 4.042-14.954 13.876-22.364 1.559-1.175 1.689-1.118 1.08.47-.91 2.372 1.241 1.103 2.677-1.579 1.288-2.406-.279-2.543-4.28-.372M62 51.98c0 3.289.731 7.807 1.625 10.041 2.188 5.469 2.918 4.344.947-1.461-.865-2.546-1.552-6.077-1.527-7.845l.045-3.215 1.374 3c1.656 3.616 1.986 1.09.438-3.351C63.195 44.253 62 45.419 62 51.98m12.107-3.551C73.985 51.764 76.001 58 77.201 58c.439 0 .799-1.152.799-2.559s-.422-2.298-.937-1.98-1.367-1.342-1.893-3.691c-.804-3.592-.973-3.805-1.063-1.341m-2.395 1.321c-.364 1.788-.41 4.712-.101 6.5.795 4.612 4.454 13.75 5.505 13.75.486 0 .884.583.884 1.295 0 1.426 8.051 7.886 12.753 10.232C94.631 83.462 103 91.262 103 92.942c0 .923-.364 1.004-1.25.276-2.959-2.431-12.937-7.327-14.339-7.036-.945.196-.071 1.084 2.278 2.316 5.577 2.923 7.006 4.449 5.223 5.577-1.02.646-.58.918 1.588.98 2.564.073 2.14.419-2.92 2.375-5.84 2.258-5.904 4.06-.087 2.416 1.647-.465 4.122-.81 5.5-.767 1.934.061 1.478.443-1.993 1.671l-4.5 1.592 2.823 1.159 2.822 1.159-2.229 1.479c-1.806 1.2-2.092 2.025-1.507 4.356l.722 2.875 1.185-2.342c1.464-2.896 5.677-3.836 5.699-1.272.009.959.421 2.384.916 3.166.665 1.052 1.186.357 2.002-2.673.606-2.252 1.657-4.32 2.335-4.595.945-.385.918-.722-.117-1.448-.991-.695-.381-1.128 2.296-1.63 3.06-.574 3.955-.314 5.579 1.62 1.653 1.97 2.079 2.086 2.938.804.594-.885 1.012-1.018 1.021-.323.008.647.802 1.382 1.765 1.634 1.317.344 1.193.486-.5.573-2.538.131-2.829 1.048-1 3.158.688.793-.125.208-1.805-1.3-3.794-3.406-6.448-3.473-9.265-.234-2.319 2.667-3.118 10.794-1.18 11.992.55.34 1 1.215 1 1.944 0 .799-1.148.278-2.887-1.309q-2.884-2.634-1.75-3.37c.838-.541.829-.738-.035-.75-.645-.008-1.693-1.59-2.328-3.515-1.543-4.677-3-4.434-3 .5 0 2.2-.024 4.338-.053 4.75s.759.889 1.75 1.059c4.487.767 4.424 1.564-.181 2.298-2.74.437-5.14 1.266-5.333 1.844-.192.577-.81 1.049-1.373 1.049s-.765-.675-.448-1.5c.316-.825.139-1.5-.393-1.5-.533 0-.969 1.096-.969 2.435s-.439 3.589-.975 5c-.793 2.084-1.637 2.565-4.5 2.565-1.939 0-3.525.45-3.525 1 0 1.378-1.589 1.253-3.179-.25-.726-.687-3.268-2.572-5.647-4.188-5.702-3.874-8.425-7.425-7.752-10.107.368-1.468-.239-2.805-1.951-4.293-3.115-2.709-3.55-2.677-5.804.417-1.396 1.918-1.563 2.841-.701 3.88.78.94.805 1.565.08 2.013-.714.441-.73 1.25-.049 2.523 1.545 2.886 1.297 15.005-.306 15.005-2.126 0-5.325 2.861-4.171 3.731 1.396 1.052 3.48 5.959 3.48 8.194 0 2.114 1.51 3.526 4.875 4.56 1.63.5 2.161.382 1.691-.378-.418-.676.14-1.107 1.434-1.107 1.281 0 1.85.433 1.441 1.096-.421.681.03.96 1.191.736 1.076-.207 1.868-1.201 1.868-2.346 0-1.092.45-2.337 1-2.766s-1.792-.544-5.205-.255l-6.206.525-2.057-4.65c-1.131-2.557-1.938-4.744-1.794-4.859 2.114-1.694 6.001-2.481 12.251-2.481 7.596 0 11.087 1.009 20.511 5.931 6.804 3.553 13.258 4.561 19.691 3.075 3.195-.738 6.3-1.712 6.901-2.165s3.751-2.172 7-3.82c4.921-2.495 7.109-2.998 13.093-3.008 9.236-.017 12.732 1.222 12.01 4.255-1.451 6.088-3.598 10.237-5.346 10.33-1.606.086-1.619.044-.099-.319 2.003-.478 2.378-2.244.5-2.349-.687-.039-3.5-.232-6.25-.429s-4.189-.128-3.197.154c1.456.414 1.57.793.592 1.971-1.561 1.882-.241 3.141 3.605 3.436 5.565.427 7.911-1.351 9.835-7.455.972-3.084 2.307-5.621 2.966-5.639s-.072-1.149-1.626-2.516c-2.798-2.462-2.822-2.583-2.529-12.719.31-10.675-.843-14.77-4.137-14.702-2.328.049-5.406 4.785-4.118 6.338 1.268 1.528-5.492 9.288-10.641 12.215-1.787 1.016-3.25 2.2-3.25 2.632s-.9.784-2 .784-2-.45-2-1-1.554-1-3.453-1c-3.138 0-3.548-.342-4.494-3.75-1.268-4.565-1.303-7.658-.053-4.75.64 1.489.877 1.593.93.405.038-.877-.861-2.437-1.998-3.467-2.819-2.551-2.148-8.998 1.205-11.577 3.14-2.414 3.315-2.375 6.268 1.389 3.591 4.577 5.98 3.01 6.4-4.196.198-3.386-.056-5.017-.717-4.609-.562.348-1.596-.285-2.296-1.406-.7-1.122-1.77-2.039-2.378-2.039-.607 0-1.961-.965-3.009-2.146-1.895-2.134-1.893-2.139.345-.964 1.237.649 2.25.879 2.25.51 0-.368.951.54 2.114 2.018s2.364 2.437 2.671 2.131c.797-.798-3.877-5.549-5.459-5.549-.729 0-1.326-.618-1.326-1.373 0-2.033 3.647-9.908 5.936-12.819 1.098-1.395 2.739-4.735 3.647-7.422 1.827-5.403 7.78-11.724 13.236-14.053 5.204-2.223 3.448-3.828-4.235-3.871-5.664-.031-6.906.272-7.776 1.897-.924 1.727-.782 1.851 1.329 1.166 4.381-1.424 11.174-1.838 10.432-.636-.378.611-1.255 1.111-1.949 1.111C132.076 58 122 70.83 122 75.342c0 .847-.456 1.822-1.014 2.167-1.082.668-4.656 7.037-6.73 11.991-1.147 2.741-1.208 2.482-.708-3 .524-5.731 2.879-13.542 6.032-20 1.435-2.939 1.404-2.929-1.503.5-1.633 1.925-3.891 6.017-5.019 9.093-2.18 5.944-6.032 11.226-6.745 9.249-.23-.636-1.294-2.168-2.366-3.403-1.071-1.235-1.947-2.921-1.947-3.747 0-1.233.358-1.178 2 .308 2.416 2.186 2.581 1.316.385-2.035-1.934-2.951-3.385-3.184-3.385-.544 0 1.549-.746 1.161-3.844-2C95.042 71.765 92.864 70 92.316 70s-2.193-1.682-3.656-3.738S86 63.175 86 63.971C86 65.407 94.654 74 96.1 74c.414 0 2.164 2.466 3.889 5.481s5.125 7.402 7.557 9.75c4.358 4.208 6.091 7.784 2.909 6.004C108.708 94.257 98 80.322 98 79.027c0-.462-2.328-2.79-5.173-5.172-7.376-6.175-10.823-11.994-10.842-18.301-.011-3.632-.288-4.632-.985-3.554-2.274 3.518-.506 15.085 3.001 19.634.988 1.281.652 1.168-1.074-.363-3.798-3.371-8.154-12.05-9.422-18.771-1.06-5.624-1.172-5.796-1.793-2.75M131 49.069c-3.251.62-3.296.677-.639.799l2.861.132-2.361 1.967c-1.299 1.081-2.049 1.981-1.668 2 .762.036 7.807-3.987 7.807-4.459 0-.821-2.888-1.033-6-.439M68.764 51c-.405 1.375-.75 3.625-.766 5-.023 1.983-.229 2.19-.998 1-.862-1.333-.968-1.333-.953 0 .02 1.852 2.725 5.562 3.493 4.793.309-.309.426-3.426.261-6.927-.221-4.662-.498-5.697-1.037-3.866m48.629 4c-2.722 3.743-6.048 12-4.834 12 .191 0 1.128-1.645 2.082-3.655 1.799-3.792 7.383-9.975 10.859-12.024 1.789-1.054 1.639-1.16-1.417-1-2.805.147-4.003.985-6.69 4.679M66.321 68.25c.479 1.36.067 1.75-1.852 1.75-1.358 0-2.472.338-2.476.75-.011 1.026 11.314 11.276 11.858 10.733.238-.239-.159-1.149-.883-2.022-1.167-1.406-.985-1.507 1.607-.886 1.609.386 3.767 1.134 4.796 1.663 1.28.658 1.664.628 1.217-.096-.359-.581-3.308-1.802-6.552-2.712-3.259-.914-6.907-2.729-8.153-4.055l-2.254-2.399 3.185.637c3.741.748 3.97.109 1.039-2.905-1.676-1.722-2.013-1.823-1.532-.458M73 83.053c-1.25.851-.919 1.473 1.987 3.734 1.917 1.492 4.525 3.726 5.795 4.963S83.494 94 83.986 94c.493 0 1.209.506 1.591 1.125.752 1.216-4.38.838-8.077-.596-1.9-.736-1.896-.697.081.787 3.38 2.535 6.949 2.999 10.07 1.308 2.047-1.109 2.346-1.555 1.064-1.584-.982-.022-2.986-.827-4.454-1.788l-2.668-1.749 2.954-.633c2.814-.604 2.776-.639-.807-.752-2.413-.076-4.373-.835-5.472-2.118-.942-1.1-2.287-2-2.99-2S74 85.502 74 84.893s.713-.834 1.584-.499c.973.373 1.431.15 1.187-.581-.555-1.665-2.01-1.958-3.771-.76m.546 11.093c.601 1.893.402 2.061-1.682 1.42-5.643-1.736-7.31-1.563-3.364.348 2.2 1.066 4.978 1.971 6.173 2.012 2.084.071 2.112-.05.677-2.926-1.735-3.479-2.796-3.981-1.804-.854m-7.505 2.5c-.023.631 1.493 2.494 3.369 4.141 2.209 1.939 3.067 3.336 2.437 3.966C70.748 105.852 81.946 109 86.956 109c2.527 0 3.044.398 3.044 2.345 0 1.29.976 3.202 2.17 4.25 2.14 1.879 2.158 1.878 1.365-.095-.443-1.1-1.307-3.35-1.92-5-.948-2.551-1.561-2.949-4.101-2.661l-2.985.339 1.985-2.322c1.092-1.277 1.311-1.829.486-1.227-2.179 1.591-6.128 2.223-9 1.442-2.487-.677-2.483-.686.75-1.824 1.787-.629 3.25-1.347 3.25-1.596s-2.235-.385-4.967-.302c-4.523.138-5.234-.162-7.959-3.349-1.646-1.925-3.011-2.984-3.033-2.354M94.158 120c0 1.375.227 1.938.504 1.25.278-.687.278-1.812 0-2.5-.277-.687-.504-.125-.504 1.25m2.269 6.714c-.59.432-1.44 1.686-1.889 2.786-.955 2.342-1.43 5.725-.701 4.996.277-.277 1.579.202 2.894 1.063 4.006 2.625 4.798 1.037 1.176-2.357-1.874-1.756-2.812-3.195-2.086-3.197.727-.003 1.997-.68 2.822-1.505s1.968-1.5 2.539-1.5-.023.868-1.321 1.929c-1.87 1.528-2.106 2.188-1.135 3.176.979.995 1.601.909 3.079-.429 2.847-2.576 4.038-2.023 4.467 2.074l.392 3.75.168-3.559c.092-1.957-.396-4.33-1.085-5.273-1.381-1.887-7.624-3.197-9.32-1.954m6.116 6.536c-.217.688-.575 2.712-.795 4.498-.381 3.089-.312 3.167 1.425 1.595 1.936-1.751 2.541-7.343.796-7.343-.568 0-1.209.563-1.426 1.25M94 136.906c0 1.54 4.836 4.169 5.548 3.016.75-1.214.825-1.142-2.798-2.698-1.513-.65-2.75-.793-2.75-.318m-33.989 4.581c-1.874 2.257-.474 4.53 2.708 4.397 1.691-.071 2.095-.295 1.031-.573-1.836-.48-2.477-3.311-.75-3.311.55 0 1-.45 1-1 0-1.514-2.592-1.197-3.989.487M66 143c0 2.333.444 3 2 3s2-.667 2-3-.444-3-2-3-2 .667-2 3m62.306-2.352c-.656.265-.994 1.127-.75 1.917 1.556 5.033 1.401 4.876 2.854 2.889 2.276-3.113.989-6.053-2.104-4.806m5.986 1.102c-.356.963-1.116 2.063-1.69 2.446-1.521 1.013-.621 1.463 4.148 2.071 4.232.54 6.213-.839 2.078-1.447-2.529-.373-3.754-2.82-1.411-2.82.87 0 1.583-.45 1.583-1 0-1.728-4.031-1.086-4.708.75m-62.693 1.911c.937 3.898 1.07 3.945 3.432 1.231 2.045-2.35 2.062-2.352.979-.121-.606 1.249-.83 2.711-.497 3.25.921 1.491 3.477 1.168 4.125-.521 1-2.606 2.426-1.622 1.811 1.25l-.588 2.75 1.945-2.207c1.07-1.215 2.227-1.927 2.57-1.584s.624.108.624-.523-1.125-1.43-2.5-1.775-2.5-.999-2.5-1.452c0-.871-1.434-1.393-6.791-2.473-3.208-.646-3.274-.591-2.61 2.175m49.895-.652c-.342.555-.351 1.867-.018 2.916.729 2.296-1.188 3.763-2.805 2.146-.872-.872-.797-1.375.308-2.058.805-.497 1.16-1.207.79-1.578-1.214-1.213-3.797 2.325-3.097 4.241.637 1.742.578 1.746-1.331.074-2.833-2.481-3.341-2.214-3.341 1.75 0 1.925.45 3.5 1 3.5s1-.498 1-1.107.663-.853 1.474-.542c.817.314 1.899-.195 2.429-1.143.526-.939 1.211-1.606 1.522-1.482 1.407.562 6.574-1.092 6.561-2.101-.054-4.459-2.827-7.309-4.492-4.616M86.362 148.5c-.317.825-1.24 1.5-2.052 1.5s-1.27.563-1.018 1.25.964 1.137 1.583 1 1.125.2 1.125.75c0 1.782 2.997 1.057 3.1-.75.063-1.107.355-.833.794.745.681 2.449 4.106 4.183 4.106 2.078 0-.59-.459-1.073-1.019-1.073-.604 0-.747-1.084-.35-2.664.541-2.159.371-2.551-.899-2.064-.894.344-1.803-.015-2.118-.835-.719-1.875-2.522-1.84-3.252.063m20.415 1.088c-.896 1.507 1.046 5.412 2.691 5.412.842 0 1.532-.4 1.532-.889 0-1.556-3.659-5.474-4.223-4.523m-31.348 2.452c5.084 2.537 6.926 2.513 3.071-.04-1.65-1.093-3.9-1.972-5-1.954-1.376.023-.774.645 1.929 1.994M96 153.5c0 1.925.45 3.5 1 3.5s1-.342 1-.759c0-.418.939-1.347 2.087-2.064 1.9-1.186 2.029-1.118 1.433.76-.382 1.204-.211 2.063.413 2.063a1.07 1.07 0 0 0 1.067-1.067c0-.613.853-.797 2-.433 2.292.727 2.352.556 1.025-2.935-.98-2.576-4.025-3.609-4.025-1.365 0 .933-.267.933-1.2 0-.66-.66-2.01-1.2-3-1.2-1.39 0-1.8.796-1.8 3.5m22.5.5c-4.4 2.17-7.462 3.958-6.804 3.973s4.933-1.756 9.5-3.935 7.629-3.967 6.804-3.973-5.1 1.765-9.5 3.935m15.158-2.551q-.557 1.45.887.895c.794-.304 1.195-.956.89-1.449-.766-1.24-1.132-1.126-1.777.554m-70.161.25c1.648.265 3.37 1.003 3.826 1.641.56.783.698.673.426-.34-.248-.923-1.719-1.554-3.826-1.641-3.136-.129-3.172-.1-.426.34M84 156c1.375 1.076 3.175 1.963 4 1.971s.15-.878-1.5-1.971c-3.863-2.559-5.771-2.559-2.5 0m7.79 3.18c2.246.892 14.213.876 16.487-.023.978-.386-2.717-.692-8.21-.68-5.493.013-9.218.329-8.277.703"/><path fill-opacity=".181" fill-rule="evenodd" d="M84 1.983c-8.97 1.165-19.708 4.712-29 9.578-1.375.72-3.915 2.042-5.644 2.938-9.131 4.73-31.161 26.014-31.312 30.251-.024.688-.442 1.25-.929 1.25C15.617 46 7.1 64.448 4.316 73.723 1.904 81.757 1.681 83.982 1.681 100s.223 18.243 2.635 26.277C7.1 135.552 15.617 154 17.115 154c.487 0 .905.563.929 1.25s2.628 4.385 5.785 8.216c5.84 7.088 18.651 18.409 20.921 18.49.688.024 1.25.442 1.25.929 0 1.399 18.329 10.007 27.329 12.835 7.508 2.36 9.672 2.572 26.671 2.617 17.471.045 18.973-.104 27-2.68 11.951-3.835 23.133-8.915 27.079-12.302.868-.745 1.842-1.355 2.165-1.355 2.454 0 25.756-23.418 25.756-25.885 0-.479.564-1.338 1.253-1.91 1.189-.987 6.541-11.246 9.236-17.705 5.635-13.504 7.839-31.012 6.012-47.75-1.803-16.512-6.25-28.948-15.796-44.172C178.451 37.794 158.802 18 156.321 18c-.365 0-1.374-.61-2.242-1.355-3.914-3.359-15.203-8.5-26.579-12.104-6.584-2.085-10.566-2.611-22.5-2.968-7.975-.239-17.425-.054-21 .41m10.5 1.62c-12.488 1.627-18.809 2.838-24 4.596-7.737 2.62-23.764 10.653-24.8 12.429-.44.755-1.224 1.372-1.742 1.372C41.501 22 22 41.252 22 43.677c0 .382-.853 1.623-1.895 2.759-2.237 2.436-9.017 15.946-11.574 23.064-3.867 10.764-5.588 32.625-3.567 45.325 2.091 13.137 9.881 33.099 15.119 38.739C21.137 154.7 22 155.941 22 156.323 22 158.513 41.487 178 43.677 178c.382 0 1.623.853 2.759 1.895 2.455 2.254 16.014 9.048 23.064 11.556 20.661 7.351 51.723 5.704 70.404-3.732 1.872-.945 4.009-1.719 4.75-1.719s1.346-.367 1.346-.815 1.598-1.577 3.551-2.508c3.941-1.879 3.445-1.523 12.412-8.919 5.824-4.804 14.536-14.283 17.769-19.334a552 552 0 0 1 3.75-5.718c1.385-2.087 2.518-4.36 2.518-5.05 0-.691.468-1.724 1.041-2.297 1.488-1.488 5.992-14.043 6.945-19.359 3.504-19.551 3.504-24.449 0-44-.953-5.316-5.457-17.871-6.945-19.359-.573-.573-1.041-1.606-1.041-2.297 0-.69-1.133-2.963-2.518-5.05a552 552 0 0 1-3.75-5.718c-4.688-7.324-17.984-20.62-25.308-25.308a552 552 0 0 1-5.718-3.75C146.619 15.133 144.55 14 144.109 14s-2.333-.774-4.205-1.719C128.937 6.741 105.212 2.207 94.5 3.603M84.018 9.588c-4.665.724-10.065 1.967-12 2.76-12.015 4.926-16.701 7.07-18.097 8.282-.868.753-1.884 1.37-2.258 1.37-2.241 0-16.207 12.142-23.005 20-9.89 11.433-17.63 30.208-19.683 47.75-2.557 21.84 3.32 45.141 15.955 63.264 4.98 7.143 14.887 17.053 22.049 22.056 12.531 8.753 26.76 14.056 42.813 15.956 9.957 1.179 12.707 1.14 23.275-.332 6.59-.918 13.299-2.349 14.908-3.181s3.417-1.513 4.017-1.513c2.853 0 20.234-9.49 24.269-13.25 1.623-1.512 3.149-2.75 3.392-2.75.577 0 10.347-9.77 10.347-10.347 0-.243 1.292-1.824 2.87-3.514s3.637-4.55 4.574-6.356 3.209-5.983 5.048-9.283c1.84-3.3 3.382-6.666 3.427-7.481s.939-3.739 1.987-6.5c5.319-14.003 5.319-39.035 0-53.038-1.048-2.761-1.906-5.552-1.906-6.203 0-1.57-7.356-15.482-10.944-20.697C172.24 42.488 160.686 30 159.715 30c-.277 0-1.886-1.292-3.576-2.87s-4.55-3.637-6.356-4.574-5.983-3.209-9.283-5.048c-3.3-1.84-6.81-3.382-7.8-3.427-.989-.044-3.069-.738-4.621-1.54-3.648-1.887-21.684-4.58-29.505-4.406-3.341.074-9.891.728-14.556 1.453M71.784 41.259C70.2 43.732 68.19 50.84 67.756 55.5c-.229 2.466-.544 1.944-1.767-2.928-2.171-8.644-3.989-8.469-3.989.385 0 5.149.554 8.209 2 11.043 2.603 5.103 2.523 6-.535 6-2.225 0-2.405.244-1.465 2 .589 1.1 1.505 2 2.037 2 1.81 0 8.722 8.206 8.309 9.864-.252 1.01.846 2.489 2.873 3.866 5.258 3.574 10.389 8.265 9.042 8.268-.682.001-3.54-.872-6.352-1.941-5.109-1.941-5.112-1.941-4.584.079.418 1.599.178 1.871-1.148 1.302C68.974 94.062 65 93.755 65 94.884c0 .61 1.51 2.799 3.355 4.863s3.18 4.249 2.966 4.855c-.416 1.179 7.436 3.859 14.429 4.926 3.553.542 4.25 1.018 4.25 2.905 0 1.241.9 3.072 2 4.067 2.537 2.296 2.542 4.14.016 5.491-1.09.584-1.919 1.837-1.841 2.785.453 5.502-.031 6.224-4.175 6.224-2.889 0-4 .417-4 1.5 0 2.069-1.349 1.877-3.5-.5-.995-1.1-2.303-2.007-2.905-2.016s-3.209-2.188-5.792-4.845c-3.575-3.676-4.561-5.349-4.127-7.006.405-1.551-.213-2.901-2.15-4.697l-2.719-2.52-2.307 2.49c-2.191 2.364-2.281 3.033-1.791 13.292l.516 10.802-3.26 1.219c-2.898 1.083-3.106 1.403-1.863 2.875.769.911 2.103 3.737 2.965 6.281.946 2.79 2.434 5.017 3.75 5.612 1.201.543 2.183 1.23 2.183 1.527 0 .913 7.976-.166 8.592-1.163.319-.516-.021-1.669-.756-2.561-1.19-1.445-1.038-1.548 1.395-.942 1.502.374 7.007 2.719 12.233 5.211s11.686 4.79 14.353 5.106c5.183.614 13.614-1.249 20.683-4.569 8.626-4.052 13.243-6.096 13.766-6.096.301 0 .325.849.053 1.887-.271 1.038.056 2.227.727 2.642 1.744 1.077 7.954 1.325 7.954.317 0-.465.879-.846 1.953-.846 1.405 0 2.245-1.052 2.994-3.75.573-2.062 1.044-4.257 1.047-4.878.003-.62.681-1.687 1.506-2.372 2.152-1.786 1.863-2.877-1.123-4.238l-2.623-1.195.547-11.056c.532-10.751.479-11.12-1.893-13.403l-2.44-2.349-2.558 2.558c-1.406 1.406-2.438 3.373-2.292 4.37.637 4.354-1.669 7.078-11.909 14.063-3.855 2.63-5.209 2.825-5.209.75 0-1.039-1.044-1.5-3.393-1.5-3.772 0-4.976-1.683-3.996-5.587.362-1.441-.007-3.368-.908-4.743-2.981-4.55-2.285-9.404 1.725-12.031 2.227-1.459 2.467-1.385 4.61 1.411 3.937 5.136 6.841 3.561 7.47-4.05.327-3.96-3.687-12-5.991-12-.769 0-1.634-.38-1.921-.844-.786-1.272 2.555-9.231 5.53-13.175 1.445-1.914 3.204-5.281 3.909-7.481 1.453-4.533 5.838-10.5 7.715-10.5.688 0 1.25-.401 1.25-.891 0-.491 1.834-1.626 4.076-2.523 5.356-2.143 4.569-3.962-1.983-4.586l-5.252-.5 3.17-1.86c4.763-2.795 2.493-4.331-4.138-2.8-5.686 1.312-6.816 1.002-4.873-1.34 1.652-1.991.714-2.902-2.203-2.141-2.437.635-12.782 9.702-12.819 11.235-.012.498-.902 2.031-1.978 3.406l-1.956 2.5-.022-2.333c-.028-2.968-2.149-2.362-3.135.896-.405 1.34-1.022 5.388-1.371 8.994l-.634 6.558-3.608-3.058c-11.2-9.49-12.844-13.031-11.985-25.806.287-4.263.15-7.98-.305-8.261C83.865 38.799 78 47.618 78 49.991c0 1.04-.399 2.137-.886 2.439-1.157.715-2.083-2.865-2.1-8.121-.017-4.978-1.25-6.143-3.23-3.05m-.099 4.275C70.636 47.734 70 51.54 70 55.617c0 8.009-1.425 8.102-4.754.31-2.277-5.329-2.307-5.355-1.705-1.427.902 5.881 3.462 13.258 5.062 14.585 2.709 2.248 1.677 3.852-1.853 2.882l-3.25-.894 2.732 2.237c1.502 1.229 5.427 3.036 8.722 4.014s6.299 2.277 6.675 2.885c.465.752-.087.893-1.723.441-6.96-1.925-6.948-1.924-6.325-.299.332.865 1.462 1.845 2.511 2.178 2.378.755 2.506 2.471.185 2.471-2.942 0 2.658 3.361 7.717 4.631 3.72.934 4.005 1.152 1.634 1.25-2.435.101-2.683.347-1.628 1.619.685.825 2.315 1.5 3.622 1.5 2.872 0 3.102 1.542.444 2.965-2.709 1.45-6.074 1.279-9.445-.479-2.647-1.38-2.769-1.37-1.522.133 1.224 1.476.97 1.589-2.621 1.17-2.188-.256-4.878-.85-5.978-1.32-1.504-.643-1.257-.063.997 2.338 2.555 2.723 3.697 3.193 7.75 3.193 5.028 0 6.264 1.251 2.503 2.535-2.057.702-1.975.803.945 1.176 1.921.245 4.213-.26 5.75-1.267 1.427-.935 2.555-1.204 2.555-.609 0 .586-.787 1.524-1.75 2.085-1.421.828-1.063 1.025 1.906 1.05 3.161.026 3.586.302 3.132 2.035-.288 1.103.034 2.678.716 3.5.683.822.983 1.495.667 1.495s.043 1.463.798 3.25c1.178 2.791 1.166 3.479-.087 4.871-1.335 1.484-1.115 1.53 2.579.544 4.187-1.118 5.442-2.665 2.162-2.665-1.645 0-1.814-.589-1.367-4.75.281-2.612.683-4.945.894-5.183.613-.693 2.467 1.524 2.721 3.254.128.871 1.066 2.505 2.086 3.631S104.96 119 104.533 119c-.428 0-.218.675.467 1.5s1.73 1.5 2.322 1.5c.702 0 .66-.418-.122-1.2-.66-.66-1.2-3.282-1.2-5.826 0-5.132 2.877-8.974 6.721-8.974 1.516 0 1.963-.492 1.625-1.786-.606-2.315-4.179-2.315-4.914 0-.312.982-1.172 1.786-1.911 1.786-.793 0-1.626 1.664-2.03 4.051-.72 4.265-2.747 4.951-3.311 1.121-.41-2.788-3.731-2.88-5.195-.144-1.415 2.644-2.985 1.608-2.985-1.97 0-2.042.623-3.031 2.25-3.568 2.246-.743 2.246-.745-.25-1.202-4.179-.765-4.378-2.008-.525-3.28 5.14-1.696 3.751-2.328-1.835-.834-3.378.903-4.927.939-5.733.133s-.249-1.293 2.062-1.8c1.741-.383 4.373-1.325 5.848-2.095 2.419-1.262 2.472-1.4.544-1.406-1.356-.004-2.088-.596-2-1.618.077-.886-.75-2.123-1.836-2.75s-3.562-2.174-5.5-3.44L83.5 84.895l3 .658c3.607.79 12.299 5.052 14.793 7.253 1.655 1.46 1.738 1.439 1.081-.273-.977-2.547-8.221-9.33-11.874-11.118-5.43-2.658-7.148-3.9-10.974-7.93-6.284-6.622-9.552-16.504-7.998-24.187.722-3.57.813-3.648 1.52-1.298.625 2.075.77 1.778.852-1.75.055-2.337-.042-4.25-.215-4.25s-1.073 1.59-2 3.534m8.904 2.248c-1.05 2.341-2.197 5.935-2.548 7.987l-.637 3.731-1.662-3c-.925-1.67-1.68-2.311-1.702-1.446-.053 2.049 4.659 11.452 6.508 12.986 1.773 1.471 1.946-.146.202-1.89-2.038-2.038-1.62-13.531.58-15.963 1.007-1.112 1.682-3.066 1.5-4.342-.283-1.987-.604-1.709-2.241 1.937m34.89 5.61c-3.014 2.965-5.479 5.821-5.479 6.346s-.718 2.395-1.597 4.155c-1.496 2.999-1.433 5.2.28 9.764.596 1.587.47 1.663-.909.543-.88-.715-1.926-3.64-2.325-6.5-.557-3.996-.909-4.737-1.517-3.2-1.261 3.186-.984 8.784.568 11.5 1.88 3.289 1.87 4.552-.024 2.98-2.399-1.991-2.71-.547-.49 2.275 1.108 1.408 2.014 3.052 2.014 3.653 0 .6.45 1.092 1 1.092s1-.627 1-1.393.675-1.652 1.5-1.969c.825-.316 1.5-1.463 1.5-2.548s.4-2.219.889-2.522 1.19-1.747 1.558-3.212c.837-3.338 6.286-11.356 7.716-11.356.611 0 .385 1.04-.529 2.435-2.459 3.754-6.829 17.19-6.428 19.766.31 1.992.671 1.699 2.706-2.201 1.292-2.475 2.965-4.86 3.718-5.3s1.37-1.851 1.37-3.137c0-3.662 6.004-11.727 11.5-15.448l5-3.385-4 .615c-2.2.339-5.208.896-6.684 1.239-2.358.548-2.617.369-2.133-1.48.303-1.157.879-2.104 1.281-2.104s1.768-.9 3.036-2c3.06-2.654.807-2.543-4.753.233-4.431 2.213-9.18 7.83-11.271 13.33-1.641 4.316-2.444 1.895-.931-2.808 1.691-5.255 7.033-12.83 8.654-12.271.709.245.972-.178.643-1.035-.306-.797-.742-1.449-.97-1.449s-2.88 2.426-5.893 5.392M82.1 55.79c-.14 4.611 3.287 10.966 8.608 15.96 2.49 2.338 4.895 4.25 5.343 4.25s1.125 1.013 1.506 2.25c.38 1.237 1.423 2.992 2.317 3.899s3.201 3.906 5.126 6.664 4.287 5.236 5.25 5.507c2.614.736 2.177-.079-2.5-4.667-4.17-4.091-8.756-10.442-10.039-13.903-.356-.963-1.244-1.75-1.971-1.75-1.635 0-8.915-7.599-10.538-11-.656-1.375-1.6-4.3-2.097-6.5-.899-3.979-.905-3.983-1.005-.71m30.979 34.793c.048 1.165.285 1.402.604.605.289-.722.253-1.585-.079-1.917s-.568.258-.525 1.312m1.986 5.996c1.321 1.591 2.935 1.886 2.935.538 0-.486-.926-1.126-2.057-1.422-1.688-.441-1.846-.283-.878.884M60 138.723c-.825.31-2.543.95-3.817 1.421l-2.318.858 2.068 2.903c1.137 1.597 2.067 3.652 2.067 4.567 0 1.296.496 1.485 2.25.859 2.749-.982 7.909-.989 13.25-.018l4 .728-3.25-1.702c-1.964-1.028-3.296-2.521-3.366-3.77-.084-1.496-.236-1.619-.549-.444-.276 1.033-1.917 1.824-4.507 2.171-5.17.694-7.013-.021-6.631-2.571.353-2.353 3.342-4.544 4.505-3.303.439.469.236 1.053-.452 1.298-1.693.605-1.589 2.28.142 2.28.765 0 1.67-1.112 2.011-2.471.535-2.128.951-2.345 3.006-1.564 1.312.499 2.614.679 2.893.399.782-.781 9.662 2.474 12.753 4.675 1.515 1.079 3.472 1.961 4.349 1.961s1.596.45 1.596 1 .81 1 1.8 1c1.39 0 1.8.796 1.8 3.5 0 2.66-.418 3.5-1.741 3.5-.958 0-1.998-.415-2.311-.923-.314-.508-1.869-1.208-3.456-1.557-3.404-.747-6.761-3.989-5.157-4.98.586-.362 1.055-1.194 1.043-1.849s-.895-.066-1.962 1.309c-1.93 2.489-1.929 2.508.272 4.228 1.217.95 2.887 1.748 3.712 1.772s2.625.924 4 2c2.066 1.616 4.111 1.959 11.791 1.978 8.801.021 9.713-.185 17.278-3.893 10.827-5.306 16.975-6.832 21.271-5.279 4.329 1.565 4.66 1.522 4.66-.615 0-.995.661-2.682 1.468-3.75 2.205-2.915 1.862-3.92-1.789-5.24-6.171-2.232-14.154-1.515-21.25 1.907-6.68 3.222-7.936 4.263-6.989 5.794.306.497 1.956-.403 3.664-2 4.065-3.796 7.479-3.862 8.187-.158.676 3.532.418 3.87-4.055 5.328-2.055.67-3.961 1.49-4.236 1.823-.673.815-7.011 3.233-9.5 3.624-1.1.173-2 .383-2 .467 0 .083-1.211.312-2.691.508-1.867.248-2.786-.134-3-1.247-.28-1.452-.468-1.445-1.988.074-2.4 2.401-2.821 2.124-2.821-1.852 0-3.357.16-3.522 3.25-3.339 1.787.106 4.743-.147 6.569-.563 2.862-.652 3.394-.468 3.867 1.338.301 1.152.953 2.095 1.45 2.095.496 0 .608-1.173.248-2.607-.43-1.712-.179-2.944.731-3.587.98-.693.654-.781-1.115-.301-1.375.373-5 .91-8.054 1.193-6.227.576-10.316-.551-22.228-6.128-6.13-2.87-8.762-3.555-13.422-3.491-3.188.043-6.471.333-7.296.644m75.75 1.023c-.963.22-1.75 1.268-1.75 2.327 0 1.06-.45 1.927-1 1.927s-1-.931-1-2.07c0-1.574-.539-1.993-2.25-1.75-1.851.263-2.192.85-1.924 3.313.393 3.607.873 4.208 2.256 2.825.709-.709 2.503-.738 5.554-.087 2.478.529 4.811.631 5.185.228s.229-.904-.321-1.112-1.675-.822-2.5-1.363c-1.329-.872-1.33-1.094-.008-1.942 1.865-1.199.24-2.864-2.242-2.296M74.5 145c-.34.55-.141 1 .441 1S76 145.55 76 145s-.198-1-.441-1-.719.45-1.059 1m44.5 2c0 .55.675 1 1.5 1s1.5-.45 1.5-1-.675-1-1.5-1-1.5.45-1.5 1m-35 2.059c0 .582.45.781 1 .441s1-.816 1-1.059-.45-.441-1-.441-1 .477-1 1.059"/></svg>