<svg xmlns="http://www.w3.org/2000/svg" width="200" height="200" fill="#000000"><path fill-opacity=".212" fill-rule="evenodd" d="M103 .67C83.042 2.094 61.191 12.556 44.453 28.702 32.355 40.373 23.96 54.504 18.149 72.979c-3.51 11.159-3.625 12.009-3.637 27.021-.011 14.808.139 15.991 3.379 26.5 1.865 6.05 4.508 13.25 5.873 16C37.297 169.761 61.352 189.914 89 197.153c7.229 1.893 11.117 2.226 26 2.224 20.956-.003 30.154-1.881 44.756-9.138 11.41-5.672 25.244-16.304 25.244-19.402 0-2.39-22.995-26.383-26.288-27.428-1.287-.409-4.056.873-8.557 3.962-3.66 2.511-10.03 6.125-14.155 8.032-5.362 2.479-9.201 5.196-13.469 9.532-3.282 3.336-6.556 6.065-7.275 6.065-.718 0-3.96-2.713-7.204-6.028-4.102-4.192-7.968-6.966-12.694-9.109-13.872-6.29-22.942-13.744-29.946-24.608-4.779-7.414-6.268-11.422-8.024-21.594-3.108-18.011 1.648-34.552 14.045-48.852C81.537 49.154 99.465 41 114.984 41c11.571 0 26.027 4.956 36.375 12.471 2.673 1.941 5.558 3.529 6.411 3.529 2.211 0 26.188-23.983 26.929-26.936.508-2.024-.16-3.133-3.791-6.295C159.763 5.358 136.009-1.684 103 .67m2.455 77.122c-6.18 3.466-9.303 6.554-11.978 11.842-2.413 4.767-2.682 6.226-2.242 12.142.623 8.373 3.92 13.805 11.386 18.761 4.755 3.156 5.863 3.463 12.5 3.463 6.431 0 7.901-.375 12.58-3.211 2.914-1.766 5.554-4.016 5.866-5s.966-1.789 1.454-1.789c1.578 0 4.979-9.138 4.978-13.377-.001-4.69-2.691-12.475-5.16-14.933-.913-.91-1.813-2.064-2-2.565-.186-.501-2.721-2.309-5.633-4.018-4.534-2.661-6.257-3.101-12-3.065-4.402.027-7.752.629-9.751 1.75"/><path fill-opacity=".134" fill-rule="evenodd" d="M108 1.633c-1.375.199-6.55.861-11.5 1.471s-10.8 1.915-13 2.9-5.912 2.358-8.25 3.052c-2.338.693-4.25 1.609-4.25 2.035s-1.013 1.077-2.25 1.447c-4.265 1.276-14.138 8.313-22.043 15.712-2.791 2.613-5.442 4.75-5.891 4.75S40 33.584 40 34.298s-1.561 2.852-3.468 4.75-3.483 4.014-3.5 4.702c-.018.687-.819 2.051-1.782 3.031-1.403 1.428-5.035 7.855-5.774 10.219-.086.275-.904 2.173-1.816 4.218-.913 2.045-1.66 4.6-1.66 5.678s-.654 2.616-1.454 3.415c-2.045 2.045-4.782 19.47-4.743 30.189.035 9.282 2.695 27.562 4.145 28.481.451.285 1.607 3.332 2.568 6.769s2.138 6.25 2.616 6.25c.477 0 .787.337.688.75-.287 1.195 3.51 8.515 5.43 10.469.962.98 1.75 2.368 1.75 3.085s1.575 2.83 3.5 4.696 3.5 3.979 3.5 4.696.349 1.304.775 1.304 3.015 2.138 5.752 4.75c2.738 2.613 6.283 5.65 7.878 6.75s3.731 2.787 4.747 3.75c1.017.962 1.848 1.492 1.848 1.177s1.186.361 2.635 1.5S66.852 187 67.563 187c.712 0 1.889.58 2.616 1.288.726.708 3.571 2.093 6.321 3.078s5.9 2.196 7 2.694c13.132 5.938 53.389 5.573 65.208-.592 1.536-.8 3.242-1.458 3.792-1.461 1.182-.007 13.457-6.061 15.219-7.507.671-.55 3.533-2.575 6.36-4.5 9.341-6.359 10.446-7.517 9.379-9.828-1.34-2.903-23.482-25.285-25.767-26.046-.445-.149-2.695 1.251-5 3.11-5.735 4.626-11.25 7.872-12.038 7.084-.359-.359-.653-.128-.653.513 0 .642-.421 1.167-.935 1.167s-2.202.482-3.75 1.07-2.99 1.001-3.203.915c-.214-.086-.679.22-1.034.68-.355.459-3.84 3.92-7.743 7.69-8.136 7.858-9.792 8.05-13.861 1.604-2.657-4.21-10.725-9.897-16.957-11.953-2.147-.709-4.38-1.677-4.961-2.152s-3.868-2.698-7.306-4.941c-3.437-2.243-6.25-4.381-6.25-4.751s-1.687-2.528-3.75-4.796c-5.37-5.904-7.255-8.556-7.9-11.116-.312-1.237-.955-2.25-1.43-2.25-.727 0-3.739-8.66-4.304-12.372-.095-.62-.453-1.578-.796-2.128-1.591-2.551-1.163-20.742.587-24.934.703-1.686 1.598-4.767 1.987-6.847.39-2.079 1.818-5.454 3.175-7.5a430 430 0 0 0 3.699-5.661c.678-1.068 2.167-2.923 3.309-4.123 1.143-1.199 3.029-3.39 4.192-4.868 2.373-3.017 7.123-6.676 11.981-9.229 1.787-.94 3.25-2.039 3.25-2.444s1.463-1.053 3.25-1.442 4.375-1.181 5.75-1.761c5.899-2.488 15.516-3.481 26.454-2.731 1.075.073 2.445.541 3.046 1.04s1.971.875 3.046.836c5.138-.186 17.199 5.785 24.357 12.058 2.778 2.435 3.738 2.583 5.556.856 14.795-14.046 24.442-24.319 24.217-25.788-.347-2.276-2.58-4.962-4.124-4.962-.662 0-2.226-1.089-3.476-2.42s-3.579-2.96-5.175-3.621S168 16.419 168 16.006C168 15.177 153.74 8 152.092 8c-.567 0-2.732-.861-4.811-1.913C141.466 3.144 116.857.354 108 1.633m-1.861 76.4c-1.298 1.082-2.897 1.967-3.554 1.967-1.903 0-7.102 6.095-9.439 11.066-5.182 11.024-.362 23.414 11.972 30.775 5.663 3.379 14.629 3.023 21.399-.851 6.153-3.52 9.631-7.713 11.871-14.311 2.008-5.914 2.009-7.44.013-13.318-2.249-6.626-5.034-9.993-11.526-13.937-4.885-2.968-6.486-3.42-12.006-3.391-4.832.026-6.939.508-8.73 2"/><path fill-opacity=".086" fill-rule="evenodd" d="M104 2.976C82.379 5.173 65.055 13.185 47 29.341c-3.025 2.706-5.67 5.424-5.878 6.04s-1.558 2.285-3 3.71-3.972 4.95-5.622 7.834-3.495 5.78-4.099 6.436c-.605.657-1.65 2.863-2.323 4.903s-1.641 3.966-2.151 4.281S23 63.933 23 64.929s-.917 4.682-2.039 8.191c-2.846 8.906-3.477 14.429-3.356 29.38.101 12.648.518 15.184 4.848 29.5 2.244 7.421 4.533 13.123 5.827 14.518.671.723 2.57 3.652 4.22 6.508s4.2 6.471 5.666 8.032c1.467 1.562 2.96 3.763 3.318 4.891S42.776 168 43.56 168c.783 0 2.666 1.399 4.182 3.109 8.659 9.762 28.475 20.604 43.786 23.957 23.425 5.131 49.087 2.257 68.73-7.697 8.745-4.431 22.742-14.652 22.742-16.606 0-1.044-14.906-16.254-22.123-22.574l-3.622-3.173-3.878 2.98c-2.132 1.639-4.383 3.401-5.002 3.914-2.153 1.789-13.329 7.09-14.947 7.09-.897 0-5.044 3.403-9.216 7.561-8.417 8.391-10.788 8.978-14.669 3.634-3.304-4.55-8.156-8.786-12.193-10.644-10.924-5.028-13.29-6.338-18.423-10.201C70.701 143.159 58 126.814 58 122.418c0-.611-.627-2.417-1.393-4.014-.767-1.597-1.892-6.504-2.502-10.904-1.739-12.56 1.631-28.176 8.308-38.5 15.088-23.328 39.117-34.487 63.658-29.562 10.054 2.018 17.375 5.275 25.228 11.226 3.32 2.515 6.312 4.092 7 3.688 2.505-1.47 24.674-23.904 24.687-24.982.029-2.383-15.777-13.519-25.043-17.643-7.041-3.134-16.143-6.209-22.443-7.583-6.901-1.505-22.495-2.083-31.5-1.168m1.5 75.526c-7.426 4.528-8.817 5.981-11.786 12.31-3.442 7.338-3.378 12.353.247 19.384 2.513 4.875 6.832 9.804 8.591 9.804.648 0 2.322.9 3.721 2 1.938 1.524 4.057 2 8.908 2 5.618 0 7-.419 11.78-3.567 6.201-4.083 7.409-5.395 10.072-10.933 2.483-5.164 2.522-13.694.088-19-5.642-12.3-21.351-18.261-31.621-11.998"/><path fill-opacity=".604" fill-rule="evenodd" d="M107 79.151c-5.748 2.655-7.643 4.319-11.151 9.795C93.484 92.637 93 94.469 93 99.736c0 10.074 5.421 18.009 14.77 21.616 5.678 2.191 10.004 2.078 15.627-.409C131.853 117.202 138 108.387 138 100c0-8.762-6.881-18.128-15.618-21.26-6.282-2.252-9.821-2.157-15.382.411"/></svg>