<svg xmlns="http://www.w3.org/2000/svg" width="200" height="200" fill="#000000"><path fill-opacity=".486" fill-rule="evenodd" d="M0 100.005V200.01l100.25-.255 100.25-.255.255-99.75L201.01 0H0zm.481.495c0 55 .121 77.647.269 50.326.148-27.32.148-72.32 0-100C.602 23.147.481 45.5.481 100.5m86-24.09c-3.31.754-8.809 2.545-12.22 3.98-3.41 1.436-7.313 2.61-8.672 2.61-4 0-3.943 1.778.126 3.87 2.082 1.071 5.135 3.379 6.785 5.13 8.102 8.596 28.547 12.647 38.321 7.593 8.66-4.479 7.758-16.431-1.655-21.928-4.281-2.5-14.683-3.075-22.685-1.255m38.097 1.71c-5.858 1.374-6.607 2.354-5.907 7.726.857 6.58 1.881 8.068 7.152 10.4 4.912 2.173 20.597 3.618 25.611 2.36 4.591-1.152 6.566-4.055 6.566-9.651 0-5.995-2.522-9.173-8.622-10.867-4.617-1.282-19.276-1.263-24.8.032m-33.655 4.803C88.686 85.16 88 86.767 88 89.768c0 6.077 4.132 8.827 10.675 7.106 4.792-1.261 7.325-4.148 7.325-8.35 0-8.208-9.092-11.586-15.077-5.601m44.532-.468C130.167 87.742 133.84 96 141.48 96c3.884 0 6.404-2.513 7.154-7.132 1.189-7.329-7.86-11.733-13.179-6.413M96.38 88.452c-1.262 3.288 2.334 4.802 4.683 1.972 1.084-1.307 1.063-1.732-.127-2.485-2.114-1.338-3.924-1.134-4.556.513m44.287.215c-1.36 1.359-.595 2.333 1.833 2.333 1.556 0 2.5-.567 2.5-1.5 0-1.5-3.075-2.091-4.333-.833"/><path fill-opacity=".092" fill-rule="evenodd" d="M90.727 11c-2.016 1.586-4.062 2.001-9.885 2.006-13.295.01-19.728 3.218-24.051 11.994-3.383 6.869-6.702 19.396-7.485 28.25-.53 5.999-.83 6.752-2.701 6.767-1.158.01-5.181.669-8.94 1.466-18.967 4.019-27.282 12.631-33.321 34.51-4.204 15.231-2.674 27.272 4.389 34.544 3.674 3.783 10.29 7.401 13.606 7.441 1.011.012 4.071 1.975 6.8 4.362 7.608 6.655 24.683 16.492 34.519 19.885 8.149 2.812 10.291 3.105 27.342 3.741 10.175.379 19.847.317 21.493-.138 1.647-.455 4.782-.828 6.967-.828 6.735 0 21.428-5.071 25.353-8.75 2.41-2.259 4.437-3.25 6.649-3.25 7.437 0 16.538-5.283 16.538-9.6 0-1.907-3.308-3.412-8.973-4.083-6.246-.74-6.97-2.516-1.932-4.739 5.224-2.305 6.309-4.6 5.428-11.485-.394-3.076-1.021-14.143-1.393-24.593-.638-17.941-.82-19.258-3.267-23.632l-2.591-4.633 3.79-1.136c3.686-1.104 8.942-6.061 8.934-8.426-.017-5.369-9.56-11.78-18.443-12.389-10.077-.691-11.49-1.165-12.154-4.078-3.314-14.546-6.695-23.158-10.534-26.832-2.915-2.79-3.312-2.875-13.612-2.91-7.503-.026-10.731-.398-11.022-1.271C101.756 11.768 96.773 9 94.685 9c-.779 0-2.559.9-3.958 2M85.5 76.524c-3.3.751-8.7 2.505-12 3.897s-6.986 2.542-8.191 2.555c-3.448.038-3.657 1.793-.412 3.471 1.629.842 5.468 3.724 8.531 6.405 7.193 6.294 14.131 8.637 25.572 8.633 9.825-.003 14.019-1.687 16.593-6.665 2.115-4.091 1.321-10.201-1.761-13.55-5.533-6.011-15.461-7.674-28.332-4.746M124 78.18c-5.525 1.579-6.108 2.462-5.421 8.206C119.654 95.381 126.87 99 143.727 99c8.609 0 9.562-.198 11.818-2.455 1.997-1.996 2.455-3.456 2.455-7.825 0-6.295-2.055-8.862-8.5-10.619-4.899-1.335-20.721-1.286-25.5.079m-31.225 3.379c-1.499.813-3.186 2.341-3.75 3.394-1.646 3.076-1.222 8.558.804 10.392 3.511 3.178 13.967 1.235 15.55-2.89 3.241-8.447-4.61-15.234-12.604-10.896m44.454-.89c-1.784.718-4.229 5.754-4.229 8.709 0 3.297 4.343 6.622 8.65 6.622 2.74 0 3.755-.615 5.361-3.25 2.697-4.423 2.497-6.889-.816-10.063-2.618-2.509-5.906-3.249-8.966-2.018M96.38 88.452c-1.262 3.288 2.334 4.802 4.683 1.972 1.084-1.307 1.063-1.732-.127-2.485-2.114-1.338-3.924-1.134-4.556.513m44.287.215c-1.36 1.359-.595 2.333 1.833 2.333 1.556 0 2.5-.567 2.5-1.5 0-1.5-3.075-2.091-4.333-.833m-15.163 45.253c-2.017.787-1.774.841 11.996 2.663l4 .529-2.5-2.034c-2.606-2.12-9.514-2.713-13.496-1.158M81 138.764c0 1.902 16.147 7.294 21.432 7.156 2.685-.069 2.15-.526-4.289-3.657C90.875 138.729 81 136.714 81 138.764"/><path fill-opacity=".269" fill-rule="evenodd" d="M92.352 10.003c-1.181.471-2.445 1.338-2.809 1.927-.371.601-3.843 1.07-7.921 1.07-15.7 0-22.658 4.556-26.995 17.677C51.621 39.772 49 51.732 49 56.357v3.225l-9.022 1.706C18.946 65.264 9.542 75.028 3.861 98.791 1.389 109.13 1.77 118.668 4.9 124.804c2.76 5.41 9.2 10.695 14.892 12.223 2.589.695 6.058 2.493 7.708 3.997 8.316 7.577 27.84 18.523 39.5 22.146 6.937 2.155 9.226 2.33 30.5 2.33 22.462 0 23.234-.068 33-2.919 7.345-2.143 10.929-3.77 13.5-6.124 2.699-2.473 4.71-3.34 8.788-3.789 5.842-.644 12.13-3.706 14.106-6.87 1.84-2.947-.358-4.768-7.475-6.194-3.173-.636-5.924-1.619-6.113-2.186-.189-.566 1.218-1.774 3.126-2.684 4.952-2.362 6.995-5.873 6.112-10.503-.392-2.052-1.031-12.78-1.42-23.839-.662-18.824-.869-20.42-3.237-25l-2.529-4.892 5.071-2.5c7.902-3.896 9.037-8.38 3.517-13.901-3.391-3.39-12.381-6.099-20.243-6.099-5.364 0-5.697-.146-6.279-2.75-3.739-16.742-7.256-25.292-11.794-28.672-2.382-1.774-4.228-2.078-12.629-2.078-8.652 0-10.12-.258-12.17-2.135-2.931-2.685-5.722-3.462-8.479-2.362M36.265 64.502c-16.453 4.556-23.992 13.109-29.25 33.18-4.686 17.893-1.313 29.357 10.485 35.627 4.62 2.456 15.451 2.9 19.339.793 2.212-1.199 2.295-1.601 1.538-7.435-1.154-8.893-.641-14.924 2.175-25.579 2.994-11.33 6.424-17.59 14.423-26.32C58.289 71.152 61 67.776 61 67.265c0-1.215-8.17-3.383-14.5-3.847-2.75-.202-7.356.286-10.235 1.084M58.5 75.028c-8.833 9.895-12.801 17.048-15.487 27.92-2.437 9.863-2.851 15.985-1.67 24.721.804 5.944.741 6.23-1.743 7.858-1.418.929-4.946 1.99-7.839 2.359l-5.261.669 6.966 5.159c8.053 5.964 21.205 13.104 31.13 16.9 5.924 2.266 9.032 2.729 21.904 3.263 21.564.896 34.454-.497 48-5.184 4.352-1.507 7.122-3.041 7.323-4.058.539-2.724-13.973-2.212-25.816.912l-9.656 2.547-9.331-2.037c-14.995-3.272-31.351-12.369-43.711-24.309-5.755-5.559-6.931-8.644-4.84-12.689 2.745-5.308 5.251-5.759 15.277-2.748 31.259 9.387 52.844 11.811 72.299 8.121 8.865-1.682 16.472-4.73 17.32-6.94.653-1.701-3.409-7.877-5.438-8.267-.945-.182-1.986 1.05-2.809 3.324-.894 2.475-2.775 4.558-5.962 6.607-4.066 2.613-5.375 2.943-10.329 2.61-4.079-.275-7.028-1.218-10.5-3.36-6.553-4.042-6.894-6.909-1.382-11.627 3.883-3.324 3.977-3.54 2.226-5.124-2.466-2.232-2.73-2.162-6.643 1.75-5.423 5.424-13.328 8.044-24.028 7.965-9.42-.069-18.837-2.05-23.138-4.868-3.613-2.368-2.403-2.785 2.732-.942 7.755 2.784 18.883 4.513 24.314 3.777l5.092-.69-6.527-1.219c-3.589-.671-9.526-2.637-13.192-4.369-6.748-3.188-13.596-8.578-12.408-9.766.356-.356 1.881.498 3.387 1.897C75.673 101.611 87.57 106 98.061 106c5.165 0 11.41-1.372 13.14-2.886.385-.338-5.24-.614-12.5-.614-15.312 0-18.467-1.027-27.692-9.017-3.02-2.615-6.757-5.196-8.304-5.736-1.997-.696-2.725-1.552-2.509-2.948.244-1.583 2.847-2.76 13.304-6.017 16.883-5.258 16.57-5.121 12.704-5.55-1.84-.204-6.811.805-11.252 2.284-10.427 3.472-12.424 2.698-2.749-1.066l7.546-2.936-4.217-1.6c-9.314-3.536-9.309-3.537-17.032 5.114m56.63-5.119-4.37 1.749 3.37 1.409c1.853.775 3.82 1.259 4.37 1.076.55-.184 4.6-1.129 9-2.101l8-1.767-6-.69c-3.3-.38-6.9-.855-8-1.057s-3.967.42-6.37 1.381m33.87.976c0 .897 3.005 2.443 3.598 1.851.171-.172-.568-.861-1.643-1.532-1.075-.672-1.955-.815-1.955-.319M102 74c0 .55-2.588 1.026-5.75 1.058-5.787.058-13.24 1.832-25.25 6.01-3.575 1.244-7.175 2.457-8 2.696-1.232.357-1.168.639.36 1.585 2.252 1.393 7.649 5.464 13.373 10.088 7.709 6.226 25.815 8.433 34.088 4.156 9.542-4.935 6.937-19.648-4.148-23.431-3.089-1.054-3.05-1.077 1.492-.872 3.636.164 4.437-.065 3.628-1.04C110.564 72.77 102 72.551 102 74m23 .472c-8.249 2.452-9 2.756-9 3.645 0 1.151.013 1.149 5.124-.701 6.519-2.361 23.191-2.948 29.329-1.034 4.969 1.55 7.269 1.329 4.518-.433-4.865-3.115-21.671-3.943-29.971-1.477m-1 3.708c-1.925.55-4.07 1.471-4.766 2.046-1.829 1.51-.482 10.723 1.961 13.411C124.092 96.826 133.281 99 143.861 99c8.466 0 9.433-.203 11.684-2.455 1.997-1.996 2.455-3.456 2.455-7.825 0-6.059-1.868-8.561-7.899-10.581-4.109-1.377-21.234-1.349-26.101.041m-31.225 3.379c-4.822 2.617-6.324 8.785-3.218 13.218 2.733 3.903 14.072 2.239 15.822-2.322 3.241-8.447-4.61-15.234-12.604-10.896m44.138-.277c-3.978 3.054-5.117 9.345-2.163 11.954.963.851 3.647 1.857 5.965 2.237 4.003.656 4.317.524 6.246-2.641 2.663-4.367 2.568-6.05-.55-9.755-2.765-3.287-6.609-4.013-9.498-1.795m-40.55 7.215c-.923 2.405 1.253 4.235 3.415 2.872 2.428-1.533 2.139-3.81-.532-4.189-1.385-.197-2.497.312-2.883 1.317m44.304.17c-1.36 1.359-.595 2.333 1.833 2.333 1.556 0 2.5-.567 2.5-1.5 0-1.5-3.075-2.091-4.333-.833M119 96.826c0 1.342 4.507 5.175 6.064 5.159 1.205-.013 1.194-.172-.064-.985-1.989-1.285-1.5-1.253 7.662.5 8.144 1.558 16.215 1.908 20.088.87 4.745-1.272 1.817-1.873-9.503-1.951-9.407-.065-12.935-.514-17.712-2.25-6.849-2.49-6.535-2.426-6.535-1.343m37.953 2.169c-.268 1.48-1.952 3.464-4.133 4.873l-3.68 2.377 4.68 6.221c2.574 3.421 4.742 6.179 4.818 6.127.075-.051-.171-5.043-.547-11.093-.377-6.05-.889-9.877-1.138-8.505M44.548 115.126c-1.447 1.719-2.348 3.406-2.004 3.75.704.701 5.456-4.465 5.456-5.932 0-1.543-.68-1.113-3.452 2.182m111.952 9.026c-1.1 1.119-3.686 2.9-5.747 3.96-3.381 1.737-3.625 2.123-2.5 3.945 2.592 4.2 11.054-.491 11.557-6.406.35-4.11-.405-4.452-3.31-1.499m-30.981 9.762c-1.413.552.246 1.105 5.791 1.93 10.132 1.507 10.625 1.452 7.829-.877-2.463-2.052-9.641-2.607-13.62-1.053M81 138.891c0 1.751 16.205 7.117 21.432 7.097l3.068-.012-4.092-2.34C93.528 139.129 81 136.217 81 138.891"/><path fill-opacity=".793" fill-rule="evenodd" d="M90.064 11.668c-1.689 1.182-4.08 1.598-8.223 1.429-11.43-.467-20.839 4.058-24.87 11.961-2.434 4.77-6.856 21.604-7.642 29.087l-.592 5.645-8.592 1.578c-20.232 3.715-29.117 12.335-35.304 34.25-3.229 11.441-3.149 22.366.214 28.899 2.978 5.789 9.262 10.961 15.237 12.542 2.314.613 5.333 2.123 6.708 3.355 7.087 6.353 21.973 15.451 32.136 19.642 10.013 4.129 21.595 5.947 37.745 5.926 22.188-.029 41.545-4.102 47.667-10.031 1.676-1.623 3.791-2.951 4.7-2.951 4.412 0 12.122-2.44 14.781-4.678 3.023-2.544 3.864-5.652 1.864-6.888-.744-.46-.888.008-.438 1.424.55 1.734-.184 2.66-4.143 5.222l-4.812 3.114-12.874-.607c-22.255-1.05-32.93-3.549-44.15-10.338-7.423-4.491-11.694-5.566-19.014-4.782-6.174.661-6.564.561-13.411-3.437-3.878-2.265-7.051-4.548-7.051-5.074 0-1.321.337-1.272 10.5 1.504 13.132 3.587 25.584 5.539 35.381 5.546 4.74.003 11.319.477 14.619 1.054 14.914 2.606 31.505 5.049 37 5.448 5.698.413 5.781.388 1.643-.502-2.396-.516-5.07-1.516-5.942-2.222-1.313-1.064-1.442-1.046-.748.104 1.546 2.567-6.576.182-10.814-3.174-4.164-3.298-3.694-4.173 1.89-3.521 2.236.261 3.591-.065 3.929-.945.284-.738 1.895-1.824 3.58-2.411 5.723-1.995 2.19-1.988-4.275.009-22.987 7.1-52.832 6.431-78.763-1.766-6.956-2.198-11-2.634-11-1.184 0 1.556 6.637 6.803 14.204 11.231 12.96 7.582 29.401 12.812 40.611 12.917 2.577.024 6.935.647 9.685 1.385l5 1.34-4 .697c-2.2.384-6.319 1.336-9.154 2.116-6.55 1.802-8.263 1.78-16.282-.213-14.48-3.599-29.865-11.765-40.53-21.512-6.251-5.713-8.068-9.323-6.615-13.145 1.625-4.272 4.839-4.335 18.368-.357 20.013 5.885 33.195 8.027 49.213 7.997 14.771-.027 23.185-1.44 32.536-5.463 7.364-3.168 7.753-4.083 3.881-9.115a852 852 0 0 1-4.192-5.484c-.623-.834.113-1.829 2.364-3.198 1.797-1.093 3.826-3.248 4.508-4.79 1.225-2.766 1.242-2.744 1.329 1.698.048 2.475.382 7.608.74 11.407.484 5.12.353 6.722-.507 6.191-.776-.479-1.148.212-1.127 2.093.03 2.686.096 2.724 1.5.868 1.365-1.805 1.468-1.642 1.468 2.316 0 5.657-1.263 7.727-5.584 9.153-2.43.802-3.271 1.517-2.588 2.2 1.404 1.404 8.352-2.105 9.723-4.911.681-1.393.792-4.651.309-9-.416-3.749-.78-12.982-.809-20.518-.058-15.583-1.176-22.23-4.581-27.248l-2.375-3.5 4.068-1.095c4.947-1.332 8.837-5 8.837-8.334 0-3.544-4.347-8.207-9.478-10.167-2.431-.928-7.865-1.973-12.076-2.321l-7.656-.634-2.351-9.314c-3.011-11.928-6.512-19.534-10.059-21.851-2.289-1.495-4.634-1.81-12.662-1.698-9.146.127-10.025-.035-12.24-2.25-2.809-2.809-7.016-3.1-10.414-.719m1.474.681c-1.72 1.257-1.621 1.427 1.458 2.5 3.98 1.387 8.004 1.499 8.004.222 0-1.71-3.12-4.071-5.38-4.071-1.231 0-3.068.607-4.082 1.349m-17.194 3.692c-7.943 1.572-12.283 4.584-14.928 10.362-2.914 6.364-5.927 17.854-6.888 26.266-.661 5.781-.555 6.267 1.686 7.735 1.315.862 3.83 1.855 5.588 2.206l3.198.64.012-9.375c.017-13.229 3.361-24.458 9.419-31.625 4.517-5.344 4.807-3.686.516 2.953-5.637 8.721-7.397 15.246-7.411 27.475-.007 5.598.282 10.473.642 10.833s6.973-1.411 14.696-3.935c19.819-6.477 36.331-10.574 45.472-11.28l7.846-.607-.695-5.559c-1.15-9.202-4.338-17.986-7.964-21.943-3.282-3.58-3.445-3.634-10.683-3.511-4.042.069-11.112.845-15.71 1.725C89.247 20.293 90 20.244 90 19c0-.55.787-1.053 1.75-1.119 2.453-.166-7.695-2.692-10.75-2.675-1.375.007-4.37.383-6.656.835M40.326 63.482c-14.924 2.708-23.292 8.783-28.858 20.951-4.335 9.477-6.473 18.642-6.445 27.631.031 9.607 3.219 15.976 10.134 20.238 5.903 3.639 14.596 4.664 20.09 2.368l3.741-1.563-.622-10.303c-.551-9.134-.327-11.409 1.979-20.04 1.43-5.355 3.572-11.655 4.76-14 2.343-4.624 10.124-14.797 14.296-18.688C60.831 68.742 62 67.351 62 66.985s-2.467-1.219-5.483-1.894-5.742-1.646-6.059-2.159c-.693-1.121-1.022-1.103-10.132.55m18.293 10.849c-9.664 10.797-13.057 17.047-16.05 29.566-2.775 11.606-3.077 16.187-1.514 22.968.554 2.401.751 5.171.438 6.157-.684 2.155-7.312 4.978-11.688 4.978h-3.154l2.425 2.589c5.938 6.341 29.608 19.026 40.663 21.792 6.968 1.743 39.967 2.861 44.56 1.509 1.761-.518 5.676-1.348 8.701-1.845s8.2-1.877 11.5-3.066c11.381-4.102 10.97-5.98-1.309-5.976-6.046.001-11.456.743-17.777 2.436l-9.086 2.435-8.875-1.94c-15.415-3.368-31.763-12.593-44.703-25.223-5.562-5.429-6.394-9.882-2.5-13.388 3.81-3.43 4.228-3.427 16.477.098C88.932 123.813 101.61 126 116.451 126c14.771 0 25.329-1.712 32.549-5.278 5.424-2.678 5.934-4.459 2.459-8.589-3.224-3.83-6.459-4.2-6.459-.737 0 1.501-1.35 3.582-3.611 5.567-6.534 5.737-11.841 6.449-19.889 2.669-9.625-4.521-10.587-8.384-3.387-13.599l3.944-2.857-3.088-2.198c-2.991-2.13-3.131-2.14-4.496-.338-.775 1.023-1.424 2.162-1.441 2.532-.063 1.326-12.205 6.722-17.687 7.86-6.799 1.412-19.299-.112-26.595-3.241-5.59-2.398-6.483-4.455-1-2.303 9.371 3.677 22.945 5.477 27.566 3.655 1.276-.502-.064-1.103-4.5-2.018-8.513-1.754-19.647-7.101-23.316-11.197l-3-3.349 3.5 2.719c12.09 9.394 30.15 13.591 40.276 9.36 2.048-.856 3.724-1.691 3.724-1.857s-5.737-.301-12.75-.301c-11.672 0-13.215-.221-18.25-2.61-3.025-1.436-7.525-4.407-10-6.603-2.475-2.197-5.963-4.746-7.75-5.666-1.788-.92-3.25-2.26-3.25-2.977 0-1.473 23.986-9.692 28-9.594 1.375.033-.729.907-4.676 1.941s-8.512 2.572-10.145 3.416c-1.633.845-4.816 1.831-7.074 2.192-4.461.713-5.491 2.826-1.93 3.957 1.196.379 4.999 3.086 8.45 6.013 7.043 5.975 13.034 8.297 23.612 9.153 13.001 1.052 20.77-3.458 20.756-12.049-.01-6.297-4.14-11.558-10.812-13.773-2.12-.703-1.665-.809 2.172-.506 4.087.323 4.639.169 3.496-.973-1.462-1.463-3.466-1.828-8.658-1.579-2.246.107-3.077.534-2.586 1.328q.718 1.165-.872.558c-.878-.337-5.339-.897-9.914-1.244-7.334-.557-9.198-.327-15.744 1.942-10.381 3.599-11.228 3.095-1.35-.803l8.225-3.245-6.796-2.189C70.416 67.985 66.868 67 66.269 67s-4.042 3.299-7.65 7.331m55.881-4.406-4 1.758 3.253 1.686c2.945 1.526 3.749 1.547 8.5.226 2.886-.803 7.272-1.775 9.747-2.16 5.762-.897 3.317-1.914-6.5-2.705-5.426-.437-7.899-.168-11 1.195M149 72c4.548 2.49 5.753 2.49 3.5 0-.995-1.1-2.978-1.981-4.405-1.958-2.492.04-2.457.118.905 1.958m-16.863 1.119c-7.589.717-16.137 3.346-16.137 4.964 0 1.156-.268 1.181 5.568-.519 8.744-2.546 20.125-2.985 27.755-1.072 8.015 2.011 9.821 1.322 3.582-1.365-5.454-2.349-11.236-2.908-20.768-2.008M123 78.334l-4.5 1.173.172 4.869c.095 2.679.431 5.899.747 7.156.889 3.542 8.037 6.43 18.631 7.526 15.084 1.56 20.117-1.046 20.117-10.42 0-6.159-1.375-8.18-6.827-10.038-5.567-1.897-21.51-2.046-28.34-.266m-29.5 2.827C85.254 85.696 86.647 97 95.453 97c4.638 0 8.091-1.704 9.437-4.657 3.62-7.946-3.882-15.311-11.39-11.182m42.423 1.762c-5.048 5.048-2.954 11.385 4.077 12.336 4.607.623 5.752.12 7.521-3.3 2.046-3.955 1.873-5.338-1.11-8.882-3.311-3.935-6.658-3.984-10.488-.154m-39.591 5.655c-.333.867.049 2.231.848 3.031 1.272 1.271 1.677 1.207 3.235-.515.979-1.082 1.485-2.446 1.124-3.031-.999-1.617-4.523-1.269-5.207.515m44.335.089c-1.36 1.359-.595 2.333 1.833 2.333 1.556 0 2.5-.567 2.5-1.5 0-1.5-3.075-2.091-4.333-.833m-22.018 8.861c.894 2.329 4.414 3.958 8.851 4.097 2.2.068 8.106.469 13.125.89 8.803.738 14.377.24 14.374-1.284-.001-.402-5.064-.766-11.25-.808-8.827-.061-12.588-.545-17.467-2.25-7.382-2.58-8.408-2.666-7.633-.645m-72.783 16.216c-3.561 4.298-3.964 5.492-.855 2.538 1.863-1.77 3.144-3.46 2.848-3.756s-1.193.252-1.993 1.218m79.285 20.141c-1.478.937 1.21 1.593 10.849 2.647l5.5.601-2.361-2.066c-1.737-1.521-3.718-2.063-7.5-2.052-2.826.009-5.746.4-6.488.87m-44.367 5.349c1.255 1.518 14.512 6.043 20.966 7.156 5.323.917 3.767-1.253-3.252-4.538-7.564-3.54-19.996-5.377-17.714-2.618m33.791-.247c3.493 1.379 21.411 3.943 30.925 4.424 4.95.251 7.65.25 6-.001-1.65-.252-7.725-1.319-13.5-2.372-11.281-2.056-26.901-3.425-23.425-2.051"/></svg>