<svg xmlns="http://www.w3.org/2000/svg" width="20" height="20" fill="#000000"><path fill="#919191" d="M14.69 13.178a3.754 3.754 0 0 1-.974.148h-11c-.595 0-1.14.314-1.437.826L.023 16.316c-.066.116.017.264.149.264l10.918-.033c1.222 0 2.362-.66 2.973-1.718l.81-1.403c.082-.133-.034-.298-.182-.248ZM19.762 3.515c-1.123.463-3.22.545-4.278.562H8.662A3.526 3.526 0 0 0 5.59 5.86l-.793 1.32c-.066.133.033.282.182.249.33-.083.677-.116 1.024-.116h10.472a2.49 2.49 0 0 0 2.147-1.239l1.355-2.329c.082-.132-.066-.297-.215-.231ZM17.218 8.57h-.033c-.33.082-.678.115-1.024.115H5.208c-.594 0-1.14.314-1.437.826l-1.321 2.296c-.066.115.017.264.149.264h.033c.33-.082.677-.115 1.024-.115h10.472a2.49 2.49 0 0 0 2.147-1.24l1.09-1.882c.066-.116-.016-.265-.148-.265Z"/></svg>