<!-- Generated by IcoMoon.io -->
<svg version="1.1" xmlns="http://www.w3.org/2000/svg" width="32" height="32" viewBox="0 0 32 32" fill="#000000">
<title>cream</title>
<path d="M16 0c-8.835 0-16 7.165-16 16 0 8.838 7.165 16 16 16 8.838 0 16-7.165 16-16 0.003-8.835-7.162-16-16-16zM17.288 16.754l5.611 5.611c0.459 0.458 0.402 1.207-0.108 1.605-1.783 1.403-3.987 2.164-6.256 2.161-5.982 0-10.753-5.182-10.069-11.303 0.524-4.686 4.342-8.45 9.034-8.914 2.777-0.274 5.356 0.572 7.332 2.142 0.491 0.39 0.513 1.131 0.068 1.573l-5.614 5.614c-0.2 0.201-0.311 0.473-0.311 0.756s0.113 0.555 0.314 0.755v0z"/>
</svg>
