<svg xmlns="http://www.w3.org/2000/svg" width="64" height="64" fill="#000000"><g clip-path="url(#a)"><path fill="#ffffff" d="M32 65c18.225 0 33-14.775 33-33S50.225-1 32-1-1 13.775-1 32s14.775 33 33 33Z"/><path fill="#383838" d="m34.188 22.572-4.043-4.127a1.467 1.467 0 0 0-2.105 0l-7.133 7.279-5.096 5.201a1.541 1.541 0 0 0 0 2.149l5.096 5.2 7.133 7.281a1.467 1.467 0 0 0 2.105 0l4.044-4.128a1.541 1.541 0 0 0 0-2.148l-6.08-6.206a1.541 1.541 0 0 1 0-2.148l6.08-6.205a1.54 1.54 0 0 0-.001-2.148Z"/><path fill="#4a4a4a" d="m40.198 26.204-1.37-1.399a1.467 1.467 0 0 0-2.105 0l-5.996 6.12a1.541 1.541 0 0 0 0 2.148l2.423 2.474 3.574 3.647a1.467 1.467 0 0 0 2.105 0l1.37-1.398a1.541 1.541 0 0 0 0-2.149l-2.52-2.572a1.541 1.541 0 0 1 0-2.149l2.52-2.572c.58-.595.58-1.557-.001-2.15Z"/><path fill="#737373" d="m43.536 35.76-2.547-2.6a1.541 1.541 0 0 1 0-2.148l2.547-2.6a1.467 1.467 0 0 1 2.105 0l2.547 2.6a1.541 1.541 0 0 1 0 2.148l-2.547 2.6a1.467 1.467 0 0 1-2.105 0Z"/></g><defs><clipPath id="a"><path fill="#ffffff" d="M0 32C0 14.327 14.327 0 32 0c17.673 0 32 14.327 32 32 0 17.673-14.327 32-32 32C14.327 64 0 49.673 0 32Z"/></clipPath></defs></svg>