<svg xmlns="http://www.w3.org/2000/svg" width="64" height="64" version="1.1" fill="#000000"><path fill-opacity=".078" d="M 22.396 1.418 C 8.608 5.734, -0.932 19.892, 0.238 34.304 C 2.227 58.803, 29.167 71.981, 49.674 58.485 C 55.302 54.782, 59.947 48.788, 62.063 42.500 C 62.803 40.300, 63.766 38.072, 64.204 37.550 C 65.170 36.397, 65.283 24.383, 64.319 25.347 C 63.945 25.722, 62.991 24.112, 62.199 21.769 C 56.722 5.566, 38.656 -3.671, 22.396 1.418 M 35.578 17.236 C 34.524 23.829, 29.361 33.496, 23.899 39.103 C 21.136 41.941, 19.616 43.978, 20.522 43.630 C 26.022 41.519, 37.529 41.963, 44.258 44.545 C 48.362 46.120, 50.730 30.325, 47.383 23.700 C 45.288 19.554, 42.163 16.155, 38.872 14.442 C 36.268 13.087, 36.238 13.113, 35.578 17.236 M 0.320 32 C 0.320 35.575, 0.502 37.038, 0.723 35.250 C 0.945 33.462, 0.945 30.538, 0.723 28.750 C 0.502 26.962, 0.320 28.425, 0.320 32" stroke="none" fill="#000000" fill-rule="evenodd"/><path fill-opacity=".124" d="M 23.951 1.303 C 14.895 3.863, 6.679 11.040, 2.687 19.878 C -0.216 26.304, -0.205 37.720, 2.710 44.176 C 5.683 50.759, 12.247 57.484, 18.853 60.716 C 26.180 64.301, 36.966 64.546, 44.176 61.290 C 53.171 57.227, 63 45.257, 63 38.363 C 63 37.128, 63.450 35.840, 64 35.500 C 64.550 35.160, 65 33.082, 65 30.882 C 65 28.470, 64.603 27.127, 64 27.500 C 63.441 27.845, 63 27.076, 63 25.755 C 63 18.856, 53.208 6.749, 44.519 2.905 C 38.845 0.395, 29.684 -0.318, 23.951 1.303 M 35.405 16.750 C 34.127 23.741, 28.841 33.293, 23.027 39.120 C 17.801 44.358, 17.626 44.681, 20.453 43.870 C 24.679 42.658, 36.714 42.793, 41.441 44.105 C 44.868 45.057, 45.554 44.962, 46.711 43.381 C 50.777 37.820, 50.624 27.905, 46.372 21.347 C 44.117 17.869, 38.494 13, 36.733 13 C 36.380 13, 35.782 14.688, 35.405 16.750 M 0.272 32 C 0.272 34.475, 0.467 35.487, 0.706 34.250 C 0.944 33.013, 0.944 30.988, 0.706 29.750 C 0.467 28.512, 0.272 29.525, 0.272 32" stroke="none" fill="#000000" fill-rule="evenodd"/><path fill-opacity=".189" d="M 24.929 1.319 C 10.290 5.421, 0.614 17.665, 0.596 32.111 C 0.590 37.548, 1.161 39.884, 3.815 45.275 C 13.375 64.694, 36.972 69.378, 53.249 55.086 C 57.201 51.616, 63 41.098, 63 37.399 C 63 36.145, 63.450 34.840, 64 34.500 C 64.550 34.160, 65 32.532, 65 30.882 C 65 29.137, 64.582 28.140, 64 28.500 C 63.439 28.846, 63 28.064, 63 26.719 C 63 22.919, 57.257 12.433, 53.249 8.914 C 45.392 2.016, 33.666 -1.129, 24.929 1.319 M 35.640 12.693 C 35.288 13.045, 34.993 14.721, 34.985 16.417 C 34.959 21.621, 33.820 22.416, 29.796 20.042 L 26.281 17.968 25.748 23.847 C 25.114 30.838, 22.448 37.282, 18.177 42.146 L 15.065 45.690 20.250 44.345 C 26.973 42.601, 35.466 42.634, 41.423 44.427 L 46.163 45.853 48.060 41.677 C 51.399 34.322, 50.143 25.032, 44.969 18.806 C 41.940 15.162, 36.643 11.690, 35.640 12.693 M 0.232 32 C 0.232 33.925, 0.438 34.712, 0.689 33.750 C 0.941 32.788, 0.941 31.212, 0.689 30.250 C 0.438 29.288, 0.232 30.075, 0.232 32" stroke="none" fill="#000000" fill-rule="evenodd"/><path fill-opacity=".108" d="M 24.428 1.881 C 12.746 5.226, 4.581 13.738, 1.532 25.750 C 0.084 31.454, 0.084 32.546, 1.529 38.250 C 4.648 50.562, 13.415 59.337, 25.718 62.460 C 31.419 63.907, 32.480 63.902, 38.460 62.400 C 50.263 59.435, 59.680 50.260, 62.122 39.345 C 62.791 36.355, 63.712 33.678, 64.169 33.395 C 64.626 33.113, 65 31.982, 65 30.882 C 65 29.782, 64.618 29.118, 64.151 29.406 C 63.685 29.695, 62.763 27.521, 62.104 24.575 C 59.715 13.901, 50.799 5.062, 39.167 1.837 C 31.380 -0.323, 32.132 -0.325, 24.428 1.881 M 34.599 16.967 L 33.940 21.934 30.720 19.971 C 28.949 18.891, 27.190 18.006, 26.811 18.004 C 26.432 18.002, 25.834 20.137, 25.481 22.750 C 24.346 31.159, 21.984 36.801, 17.521 41.765 L 13.183 46.590 19.842 44.853 C 28.088 42.701, 33 42.594, 40.016 44.414 C 43.015 45.192, 45.859 45.587, 46.336 45.292 C 49.874 43.105, 51.189 29.258, 48.386 23.700 C 45.780 18.534, 38.684 12, 35.678 12 C 35.447 12, 34.961 14.235, 34.599 16.967 M 0.158 32 C 0.158 33.375, 0.385 33.938, 0.662 33.250 C 0.940 32.563, 0.940 31.438, 0.662 30.750 C 0.385 30.063, 0.158 30.625, 0.158 32" stroke="none" fill="#000000" fill-rule="evenodd"/></svg>