<svg xmlns="http://www.w3.org/2000/svg" width="307" height="306" fill="#000000"><path fill="#000000" fill-rule="evenodd" d="M64.679 5.612c.117-.074.245-.137.375-.185 25.572-9.391 50.062-2.42 63.725.073 13.697 2.5 111.56 42.608 148.39 73.054 36.794 30.416 37.027 75.937 13.767 118.585a1.93 1.93 0 0 1-.156.243c-4.109 5.423-9.407 9.19-15.894 11.299a1990.463 1990.463 0 0 0-126.975 36.247c-.552.178-1 .587-1.226 1.121-8.587 20.318-15.438 41.52-36.024 53.862a1.923 1.923 0 0 1-.306.149c-30.429 11.693-53.966 3.302-70.611-25.174-13.825-31.615-25.24-63.576-34.244-95.883-5.486-24.126-6.743-51.946 0-86.751C12.8 54.86 32.527 25.98 64.679 5.611Zm69.153 89.029c-.245-1.227.646-2.416 1.896-2.425 41.001-.313 110.557 14.129 107.197 34.28-3.398 20.383-64.145 21.531-99.601 20.569a1.961 1.961 0 0 1-1.428-.684c-10.14-11.749.019-11.183-8.064-51.74Zm-61.078 52.638c.16-.155.355-.289.56-.377 17.41-7.493 35.894 26.373 39.484 50.365 3.02 16.61 3.044 33.221.071 49.832a2.023 2.023 0 0 1-.291.732c-14.386 22.052-31.003 23.513-49.85 4.384a2.014 2.014 0 0 1-.271-.345c-24.303-39.011-21.521-73.874 10.297-104.591Z" clip-rule="evenodd" opacity=".935"/></svg>