<svg xmlns="http://www.w3.org/2000/svg" width="20" height="20" fill="#000000"><path fill="#000000" d="M0 0h20v20H0z"/><path fill="#000000" fill-rule="evenodd" d="M8.57 2.006c-.04.007-.196.028-.345.046-1.873.227-3.756 1.21-5.045 2.634-1.753 1.936-2.49 4.45-2.06 7.02.377 2.257 1.703 4.278 3.649 5.56.442.291 1.318.725 1.803.893.43.149 1.07.307 1.548.382.5.078 1.878.077 2.39-.003 2.393-.372 4.437-1.684 5.762-3.7.263-.4.7-1.244.663-1.279-.013-.012-.47-.136-1.015-.276l-.99-.253-.19.334c-.398.699-1.059 1.457-1.668 1.912-1.665 1.243-3.763 1.59-5.719.945a6.086 6.086 0 0 1-2.421-1.488 5.97 5.97 0 0 1-1.213-1.687 6.227 6.227 0 0 1 .037-5.572c1.397-2.746 4.595-4.066 7.505-3.098a6.285 6.285 0 0 1 3.476 2.854l.191.337.986-.292c.543-.16.994-.298 1.002-.307.028-.028-.416-.859-.65-1.217a8.083 8.083 0 0 0-1.112-1.358 8.194 8.194 0 0 0-3.788-2.153c-.714-.183-1.064-.226-1.939-.237-.43-.005-.815-.004-.856.003Zm.3 6.634a1.784 1.784 0 0 0-1.282 1.596c-.06.851.533 1.652 1.373 1.855.612.147 1.316-.083 1.745-.57l.162-.185H19V9.262h-8.22l-.166-.167c-.335-.34-.7-.496-1.202-.513-.264-.01-.352 0-.542.058Z" clip-rule="evenodd"/></svg>