<svg width="498" height="500" viewBox="0 0 498 500" fill="#000000" xmlns="http://www.w3.org/2000/svg">
<path fill-rule="evenodd" clip-rule="evenodd" d="M208.064 3.4074C197.499 5.18452 187.657 7.37964 186.193 8.28572C184.729 9.1893 177.232 11.5721 169.536 13.577C154.783 17.4191 148.626 21.5315 150.265 26.4474C150.836 28.1595 149.074 29.2458 146.085 29.0205C143.244 28.8052 140.919 27.6639 140.919 26.485C140.919 25.3035 133.034 28.5975 123.398 33.8012C113.761 39.0049 105.877 44.0034 105.877 44.907C105.877 49.6301 130.624 56.1504 146.498 55.6097C155.764 55.2944 163.996 56.0928 164.792 57.3844C166.927 60.8385 176.521 60.0976 181.838 56.0703C184.859 53.7801 188.328 53.2644 191.85 54.586C197.439 56.6835 216.707 50.5187 226.922 43.3626C229.793 41.3527 235.201 39.7082 238.943 39.7082C247.166 39.7082 247.939 38.5944 251.033 22.2749C255.448 -0.997865 249.569 -3.57844 208.064 3.4074ZM267.447 16.2427C265.157 24.3299 262.722 32.8701 262.039 35.2179C259.485 43.9809 246.658 52.0079 237.559 50.5312C228.706 49.0945 221.993 52.6737 205.06 67.8569C196.515 75.5185 184.408 78.7524 175.553 75.7363C172.336 74.64 169.14 73.5912 168.452 73.406C167.763 73.2183 165.511 72.4198 163.446 71.6289C148.178 65.7769 148.268 67.9294 163.979 84.3065C181.92 103.011 192.01 116.993 202.235 137.325C206.042 144.896 210.377 151.87 211.869 152.823C213.358 153.774 214.927 159.902 215.355 166.44C216.301 180.957 216.822 181.565 222.987 175.4C227.758 170.63 227.763 170.419 223.197 167.13C218.564 163.791 216.397 158.25 220.782 160.958C222.028 161.731 222.494 160.235 221.815 157.637C219.803 149.945 233.004 137.392 244.793 135.788C265.057 133.025 270.681 127.385 272.499 108.012C273.089 101.705 274.551 95.2996 275.747 93.7803C279.855 88.5641 288.27 61.7971 286.913 58.2629C285.972 55.8075 287.434 54.7262 291.691 54.7262C295.068 54.7262 301.1 51.9128 305.1 48.4712C309.102 45.0321 313.783 42.0761 315.502 41.9009C322.155 41.2301 323.279 40.9022 325.076 39.105C326.095 38.0838 328.343 38.4192 330.067 39.8509C332.24 41.6556 333.702 41.6456 334.83 39.8234C335.954 38.0012 338.092 38.0688 341.769 40.0336C346.189 42.4015 347.783 42.0085 351.28 37.6908C354.326 33.9288 356.234 33.258 358.226 35.2504C360.216 37.2403 362.075 37.0751 364.999 34.6497C369.895 30.5874 366.393 28.2471 341.158 18.7157C317.352 9.72244 312.636 8.55104 314.884 12.1879C315.93 13.8799 315.235 16.3328 313.32 17.697C310.649 19.6017 310.859 19.8395 314.251 18.7482C318.721 17.309 320.138 19.847 316.754 23.2311C315.723 24.2623 314.877 26.3273 314.877 27.819C314.877 29.3108 313.29 31.0604 311.35 31.7062C308.837 32.5447 308.314 31.6036 309.53 28.4323C310.932 24.7804 310.592 24.5176 307.635 26.9705C303.09 30.745 300.119 23.2486 302.464 13.9124C304.389 6.23577 302.745 5.19703 285.449 3.16461L271.612 1.53766L267.447 16.2427ZM369.069 44.922C364.759 50.376 363.898 53.2169 365.84 55.5597C367.299 57.3168 369.144 65.9521 369.942 74.7501C370.741 83.5481 372.465 92.0382 373.774 93.6151C375.084 95.1945 375.321 97.4071 374.3 98.5335C371.977 101.102 377.867 97.9002 386.637 91.833C390.314 89.2875 400.266 83.7634 408.754 79.5508L424.185 71.8967L414.583 63.3465C386.825 38.622 377.144 34.7048 369.069 44.922ZM88.2485 58.1127C72.347 70.5951 54.4581 90.2361 41.9632 108.928L33.3404 121.829L41.0096 130.041C69.5937 160.64 64.8681 215.19 32.0389 233.582L24.5299 237.79L31.0627 231.985C56.856 209.068 59.817 164.38 37.2701 138.298L29.4007 129.195L22.5851 143.114C14.6231 159.374 14.4654 161.123 19.7892 173.866C26.5824 190.123 20.0746 216.207 7.60969 222.692L2.003 225.608L7.69479 219.413C17.5315 208.703 21.2635 176.059 13.2189 171.085C-1.21334 162.167 -5.28571 286.288 8.37311 318.792C10.1077 322.921 11.9524 328.536 12.4705 331.266C23.1082 387.308 91.8052 457.002 164.309 485.31C181.227 491.913 191.194 485.048 180.341 474.265C171.821 465.8 106.1 410.937 97.2492 404.899C91.6701 401.095 82.4391 392.973 76.7347 386.853C71.0304 380.736 54.4181 365.312 39.8157 352.582C15.1612 331.086 8.66595 324.568 16.3952 329.084C20.3049 331.369 47.4147 354.136 55.8173 362.191C59.2589 365.492 78.9699 382.345 99.6196 399.643C120.269 416.941 138.984 432.93 141.207 435.173C143.429 437.416 155.474 447.996 167.976 458.689C189.212 476.85 190.546 478.547 188.268 484.534C185.167 492.692 183.745 491.898 209.558 496.401C358.198 522.32 496.809 404.877 497.46 252.462C497.69 198.801 493.059 187.102 479.536 207.171C472.633 217.413 471.807 236.721 477.834 246.918C481.661 253.396 481.543 253.361 475.341 246.205C460.408 228.979 468.035 198.906 489.117 191.88C491.242 191.172 491.412 188.861 489.713 183.765L487.34 176.642L477.926 184.904C452.183 207.509 450.008 248.978 473.489 269.473L480.074 275.22L472.56 271.605C435.393 253.736 440.729 183.27 479.994 173.415L486.081 171.886L480.935 158.13C470.708 130.8 441.072 84.9723 433.536 84.8346C429.208 84.757 397.6 106.193 390.765 113.842C386.715 118.375 386.953 118.552 397.022 118.552H407.487L408.238 134.822C408.921 149.655 409.782 151.907 417.995 160.337C434.179 176.95 432.782 197.582 413.324 229.372C401.733 248.31 381.599 272.486 377.419 272.486C373.104 272.486 328.788 294.51 324.523 298.775C319.274 304.024 313.397 303.438 311.848 297.516C311.127 294.763 309.675 292.51 308.619 292.51C307.563 292.51 306.111 290.257 305.39 287.504C303.155 278.949 293.406 280.896 295.138 289.552C296.202 294.88 294.895 298.57 289.784 304.642C277.92 318.741 285.804 367.753 307.485 414.679C312.261 425.013 315.675 433.964 315.072 434.57C308.534 441.105 280.451 353.903 277.174 316.894C275.567 298.743 271.815 294.029 258.817 293.847C254.117 293.779 252.079 291.642 249.423 283.977C245.161 271.688 235.084 258.299 228.526 256.217C225.225 255.171 223.46 252.337 223.35 247.914C223.227 243.119 222.186 244.778 219.705 253.714C214.747 271.568 215.125 274.016 223.365 277.43C232.113 281.051 232.866 278.283 210.387 325.169C201.509 343.689 188.829 370.396 182.208 384.523C170.064 410.441 164.662 417.539 172.472 397.323C179.462 379.221 203.293 325.199 214.059 303.045C219.605 291.629 223.723 281.928 223.205 281.482C222.689 281.036 219.73 279.354 216.634 277.743C213.538 276.131 211.003 272.797 211.003 270.331C211.003 267.866 208.062 263.12 204.47 259.781C198.393 254.137 198.027 252.577 199.231 237.444C200.65 219.606 195.947 183.843 191.612 179.508C188.951 176.847 183.585 190.243 183.442 199.9C183.41 201.965 180.974 199.887 178.026 195.284C173.44 188.12 172.334 187.512 170.349 191.057C168.68 194.043 166.086 194.771 161.058 193.667C145.632 190.278 149.532 201.459 168.639 215.401C187.67 229.285 188.801 231.257 180.038 235.249C175.095 237.502 171.851 236.716 160.64 230.561C153.236 226.494 133.377 215.994 116.515 207.228L85.8531 191.292V174.319C85.8531 155.549 86.1084 155.219 95.1392 162.32C98.6159 165.055 102.453 166.677 103.669 165.926C104.883 165.176 105.902 166.037 105.93 167.839C106.032 173.956 139.194 195.384 141.68 190.941C147.509 180.524 140.246 168.697 127.072 167.163C106.823 164.803 98.6759 160.548 105.877 156.097C107.254 155.246 108.38 155.809 108.38 157.349C108.38 158.888 109.652 159.361 111.203 158.402C113.136 157.209 112.74 155.935 109.952 154.375C104.588 151.374 104.355 131.693 109.632 127.313C111.762 125.546 113.386 120.087 113.386 114.695C113.386 102.543 115.451 97.277 120.217 97.277C123.255 97.277 123.408 96.5511 120.985 93.6301C117.581 89.5277 123.365 78.1592 127.08 81.6483C128.169 82.6721 127.505 80.7172 125.603 77.3031C123.703 73.8891 120.637 69.8893 118.795 68.4125C116.95 66.9383 115.676 64.0999 115.962 62.105C116.965 55.1066 115.834 53.0016 109.514 50.1232C106.007 48.5238 102.911 47.2172 102.631 47.2197C102.35 47.2197 95.8776 52.1231 88.2485 58.1127ZM148.428 89.9157C148.428 91.3724 147.379 91.9181 146.098 91.1271C140.451 87.6355 141.267 95.3472 147.166 101.249C152.56 106.643 153.754 110.285 154.09 122.367C154.312 130.397 155.381 136.416 156.467 135.745C157.551 135.075 158.44 136.569 158.44 139.067C158.44 142.055 161.398 144.536 167.088 146.316C180.263 150.44 182.376 147.489 176.219 133.57C173.323 127.025 170.955 120.477 170.955 119.02C170.955 117.564 168.487 113.744 165.471 110.533C162.455 107.324 159.624 102.183 159.183 99.1092C158.743 96.0355 157.867 92.1158 157.238 90.3938C155.849 86.5967 148.428 86.1938 148.428 89.9157ZM109.106 117.301C109.824 120.054 109.394 122.307 108.145 122.307C106.898 122.307 105.877 120.054 105.877 117.301C105.877 114.548 106.31 112.295 106.836 112.295C107.364 112.295 108.385 114.548 109.106 117.301ZM132.504 136.073C131.663 138.268 127.911 139.828 123.476 139.828C117.263 139.828 115.897 140.849 115.932 145.46C116.032 158.473 137.72 167.699 146.818 158.6C148.883 156.535 152.801 154.846 155.524 154.846C163.463 154.846 159.336 144.889 150.681 143.157C146.768 142.373 142.899 139.615 142.075 137.027C140.288 131.39 134.521 130.817 132.504 136.073ZM218.907 187.385C218.907 190.826 219.475 192.235 220.169 190.513C220.864 188.794 220.864 185.978 220.169 184.256C219.475 182.536 218.907 183.943 218.907 187.385ZM221.115 214.499C221.042 224.093 221.896 227.56 224.143 226.819C228.869 225.262 229.304 216.071 225.024 208.177L221.215 201.151L221.115 214.499ZM129.871 231.052C178.969 255.576 197.319 265.651 184.721 261.163C181.968 260.184 177.09 259.04 173.881 258.622C170.672 258.207 156.029 251.146 141.342 242.931C126.654 234.719 106.753 223.798 97.1166 218.664C80.702 209.922 73.0704 204.906 76.1816 204.906C76.92 204.906 101.079 216.672 129.871 231.052ZM97.3969 266.149C114.072 278.584 130.922 291.096 134.842 293.957L141.973 299.161L135.297 321.49C114.908 389.726 113.434 394.074 115.03 381.366C115.894 374.483 118.59 361.635 121.023 352.817C123.456 343.999 124.942 335.474 124.327 333.872C123.713 332.27 126.056 324.841 129.538 317.367C133.017 309.891 135.875 302.615 135.888 301.198C135.91 298.77 106.993 276.681 84.7143 262.109C79.1451 258.467 68.958 250.172 62.0747 243.677C46.5737 229.052 53.8875 233.705 97.3969 266.149ZM462.553 293.807C453.823 301.108 446.284 305.773 446.284 303.876C446.284 302.287 466.418 287.499 468.56 287.517C469.386 287.524 466.683 290.355 462.553 293.807ZM440.149 309.896C437.533 312.787 435.371 319.94 434.832 327.499C433.588 344.93 425.571 352.852 351.17 410.143C325.627 429.812 349.505 407.915 382.197 381.692L417.499 353.373L424.963 333.762C429.07 322.974 434.632 312.096 437.325 309.586C443.818 303.538 445.715 303.746 440.149 309.896Z" fill="#000000"/>
</svg>
