<svg xmlns="http://www.w3.org/2000/svg" width="64" height="65" fill="#000000"><path fill="#545454" d="M32 65c17.673 0 32-14.55 32-32.5S49.673 0 32 0C14.327 0 0 14.55 0 32.5S14.327 65 32 65Z"/><path fill="#000000" d="M19.039 30.78c0-.376.023-.752-.005-1.124-.077-1.035.008-1.86 1.155-2.44.996-.505 1.449-1.604 1.35-2.778-.056-.655.17-1.01.735-1.326 2.182-1.221 4.333-2.5 6.502-3.745 1.002-.574 2.327.174 2.342 1.322.018 1.423-.003 2.846.01 4.269.006.617.044 1.286.89 1.276.791-.009.804-.667.814-1.228.026-1.385.027-2.77.011-4.156-.007-.6.111-1 .727-1.333 1.617-.877 2.205-2.577 1.587-4.205-.546-1.444-2.19-2.402-3.68-2.145-1.727.298-2.867 1.653-2.853 3.483.005.574-.08.949-.641 1.262a261.358 261.358 0 0 0-6.687 3.869c-.495.294-.812.228-1.281-.073-1.668-1.069-3.83-.535-4.766 1.112-.998 1.756-.405 3.82 1.457 4.753.574.287.72.606.707 1.191-.035 1.46-.066 2.924.026 4.378.024.388.492.748.756 1.121.28-.375.733-.72.804-1.132.13-.765.037-1.567.037-2.353l.003.001Zm11.244-14.155c-.043-.932.679-1.751 1.603-1.82.924-.066 1.843.775 1.863 1.706.019.87-.806 1.726-1.697 1.763-.918.037-1.726-.716-1.77-1.649ZM18.13 22.85c.977-.018 1.714.666 1.748 1.62a1.704 1.704 0 0 1-1.615 1.769c-.96.046-1.84-.76-1.848-1.693-.007-.894.788-1.68 1.715-1.696Zm2.54 20.061c2.492 1.445 5.016 2.884 7.503 4.384.258.155.407.669.42 1.022.075 2.162 1.458 3.6 3.488 3.557 1.93-.04 3.306-1.584 3.336-3.628.006-.376.293-.887.607-1.092 1.187-.776 2.439-1.449 3.664-2.163.535-.312 1.168-.703.631-1.356-.211-.257-1.031-.268-1.419-.076-1.3.644-2.515 1.464-3.805 2.136-.309.16-.86.151-1.162-.022-1.286-.732-2.507-.776-3.812-.039-.332.188-.934.22-1.26.041-2.258-1.238-4.48-2.54-6.702-3.843-.916-.537-.924-2.114-.016-2.662 1.182-.713 2.385-1.393 3.58-2.085.554-.321 1.27-.633.843-1.425-.43-.8-1.07-.384-1.633-.056-1.226.714-2.438 1.453-3.691 2.115-.282.15-.782.16-1.054.006-1.707-.956-3.571-.73-4.65.63a3.423 3.423 0 0 0 .12 4.428c1.171 1.298 3.066 1.435 4.67.339.09-.06.186-.114.342-.21Zm11.347 3.853c.888.013 1.724.844 1.731 1.724.009.923-.866 1.739-1.83 1.708a1.681 1.681 0 0 1-1.636-1.747c.03-.938.812-1.698 1.735-1.685Zm-13.84-4.567c-.905.014-1.73-.767-1.756-1.66-.026-.898.751-1.695 1.684-1.729.958-.035 1.73.66 1.773 1.596.044.994-.697 1.776-1.7 1.793Zm28.46-14.257c2.408-1.28 3.185-3.182 2.135-5.06-1.074-1.918-3.08-2.222-5.49-.78-1.418-.821-2.87-1.656-4.317-2.502-.547-.32-1.142-.635-1.54.091-.39.711.178 1.068.728 1.381 1.232.703 2.48 1.384 3.663 2.16.315.208.59.727.597 1.106.022 1.496.638 2.555 1.932 3.297.3.173.602.644.608.983.05 2.582.036 5.165.024 7.748-.006 1.085-1.396 1.863-2.338 1.323a592.73 592.73 0 0 1-3.778-2.188c-.527-.308-1.092-.509-1.445.155-.342.645.111 1.021.646 1.324 1.266.718 2.543 1.42 3.76 2.214.314.205.586.725.595 1.106.041 1.81 1.074 3.215 2.69 3.5 1.762.31 3.286-.52 3.873-2.106.602-1.628-.051-3.28-1.604-4.235-.317-.195-.7-.612-.706-.933-.056-2.841-.033-5.685-.033-8.584Zm-2.505-3.242c-.077-1.015.542-1.771 1.509-1.844 1.003-.074 1.77.556 1.845 1.517.079 1.008-.537 1.755-1.518 1.845-.998.092-1.76-.54-1.836-1.518Zm1.706 14.108c.97.01 1.67.736 1.657 1.717-.014.987-.725 1.68-1.713 1.67-.99-.008-1.652-.705-1.64-1.723.01-.989.71-1.675 1.696-1.664Zm-11.124-8.841c-1.995-1.513-3.388-1.51-5.447-.013-1.191-.682-2.402-1.405-3.642-2.075-.633-.34-1.422-1.22-1.996-.175-.572 1.04.628 1.233 1.216 1.618.935.613 1.96 1.089 2.879 1.723.32.222.627.746.613 1.12-.066 1.732.663 2.918 2.15 3.75.3.168.585.645.604.995.07 1.343.023 2.693.034 4.04.006.629.072 1.268.917 1.248.816-.02.775-.692.786-1.238.03-1.31-.042-2.624.053-3.928.03-.41.372-.94.728-1.16 1.32-.817 2.13-1.914 2.017-3.484-.06-.826.265-1.212.922-1.561 1.119-.596 2.236-1.21 3.277-1.93.315-.219.371-.814.545-1.237-.457-.056-1.013-.307-1.355-.135-1.457.74-2.853 1.606-4.3 2.442Zm-4.689 2.512c.017-1.125.866-1.965 1.98-1.96 1.085.006 1.986.902 1.99 1.98.004 1.154-.896 2.027-2.065 2.001-1.129-.023-1.921-.864-1.905-2.021Z"/><path fill="#000000" fill-opacity=".08" d="M63 32v1h2v-1h-2ZM1 33v-1h-2v1h2Zm31 31C14.88 64 1 50.12 1 33h-2c0 18.225 14.775 33 33 33v-2Zm31-31c0 17.12-13.88 31-31 31v2c18.225 0 33-14.775 33-33h-2ZM32 1c17.12 0 31 13.88 31 31h2C65 13.775 50.225-1 32-1v2Zm0-2C13.775-1-1 13.775-1 32h2C1 14.88 14.88 1 32 1v-2Z"/></svg>