<svg xmlns="http://www.w3.org/2000/svg" width="24" height="24" fill="#000000"><rect width="24" height="24" fill="#000000" rx="12"/><path fill="#000000" fill-rule="evenodd" d="m14.425 12.438 3.546 3.52a.45.45 0 0 1 .005.64l-.26.257a.455.455 0 0 1-.655.012l-4.331-4.299a.803.803 0 0 1 0-1.137l4.33-4.299a.453.453 0 0 1 .495-.098.455.455 0 0 1 .148.098l.268.271a.45.45 0 0 1 0 .638l-3.546 3.522a.619.619 0 0 0 0 .875m-4.667-.872L6.213 8.045a.45.45 0 0 1-.004-.642l.26-.258a.459.459 0 0 1 .656-.012l4.328 4.299a.804.804 0 0 1 .176.876.805.805 0 0 1-.176.26l-4.328 4.3a.454.454 0 0 1-.644 0l-.268-.267a.452.452 0 0 1 0-.639l3.545-3.52a.619.619 0 0 0 0-.876" clip-rule="evenodd"/></svg>