<svg xmlns="http://www.w3.org/2000/svg" width="200" height="200" fill="#000000"><path fill-opacity=".2" fill-rule="evenodd" d="M78.486 1.923C52.338 8.025 30.611 23.065 16.077 45.127-3.21 74.404-5.463 112.993 10.276 144.5c24.399 48.841 84.047 69.045 133.153 45.102 28.894-14.089 49.931-41.953 54.738-72.501.821-5.216 1.539-7.521 1.988-6.383.388.98.677-4.518.643-12.218-.038-8.651-.343-12.663-.798-10.5-.675 3.206-.748 3.265-.868.708-.293-6.2-3.439-18.289-7.08-27.204-5.278-12.923-11.726-22.367-22.533-33.004C156.55 15.734 142.667 7.793 124.5 2.751 114.029-.155 89.298-.6 78.486 1.923M102 63l-3.5.737 3.327.131c7.45.295 12.266 9.919 8.315 16.616-1.927 3.266-1.948 3.516-.29 3.516 4.356 0 12.692-3.37 15.335-6.2 5.649-6.047 2.688-11.556-7.659-14.251-6.271-1.633-9.787-1.757-15.528-.549m-10.5 2.487c-3.874 1.82-5.755 3.406-7.84 6.61-1.61 2.475-1.591 2.721.398 5.25 2.846 3.618 4.713 3.456 4.153-.361-.618-4.212 1.574-8.884 5.209-11.101 3.596-2.192 2.42-2.436-1.92-.398m6.588 3.907c-.893 1.076-.791 1.76.449 3 2.062 2.062 5.841 2.061 7.553-.002 1.134-1.367 1.048-1.818-.569-3-2.44-1.785-5.951-1.783-7.433.002M94.25 78.25c.229.688 1.017 1.25 1.75 1.25s1.521-.562 1.75-1.25c.248-.744-.461-1.25-1.75-1.25s-1.998.506-1.75 1.25M.395 99.5c.001 7.7.158 10.718.348 6.706.191-4.011.189-10.311-.002-14C.549 88.518.393 91.8.395 99.5"/><path fill-opacity=".25" fill-rule="evenodd" d="M81.5 1.413Q49.911 7.519 27.33 31.29c-8.837 9.303-12.432 14.541-17.864 26.032C2.177 72.741.515 80.722.576 100c.058 18.112 1.274 24.572 7.387 39.257 3.051 7.327 10.318 19.081 15.844 25.624l2.855 3.38 3.047-5.38c3.431-6.06 6.77-9.533 7.707-8.016.339.547-1.417 3.901-3.9 7.454-2.484 3.553-4.516 6.905-4.516 7.449 0 1.191 8.638 8.603 15.327 13.151 6.813 4.633 19.859 10.525 28.673 12.949 28.885 7.943 59.185 2.841 83.877-14.123 6.167-4.237 13.123-10.709 13.123-12.21 0-.665-1.8-3.723-4-6.795-5.078-7.092-5.464-10.992-.536-5.413 1.86 2.105 4.158 5.463 5.106 7.463l1.725 3.635 3.943-4.443c12.066-13.596 22.366-38.218 22.88-54.69.117-3.754.126-3.762.882-.792.468 1.838.754-1.843.74-9.5-.016-8.156-.273-11.11-.74-8.5l-.716 4-.142-4.185c-.078-2.301-.795-7.251-1.592-11-7.968-37.448-35.771-66.43-73.375-76.488C114.304.187 91.718-.561 81.5 1.413m35.103 26.171c-6.807 2.172-9.923 4.325-8.587 5.935.836 1.008 1.899.857 5.2-.737 8.415-4.066 20.899-3.344 31.546 1.823 2.894 1.405 5.745 2.393 6.335 2.196 1.751-.584-4.24-5.934-9.097-8.124-5.973-2.694-18.663-3.24-25.397-1.093m-46.317 1.809c-4.883 1.593-11.49 5.444-15.786 9.202-1.65 1.444-2.368 2.281-1.595 1.86.772-.42-.403 1.043-2.613 3.253s-5.181 6.478-6.604 9.486c-3.191 6.746-6.448 24.446-4.801 26.093.817.817 1.113.248 1.113-2.14 0-6.191 3.133-16.985 6.619-22.804 5.207-8.692 11.843-14.943 20.329-19.15 7.024-3.483 7.994-3.693 17.037-3.693 8.756 0 10.15.276 16.052 3.183 5.672 2.793 6.096 2.885 3.463.751-5.967-4.835-11.5-6.75-20.5-7.092-5.353-.203-10.06.186-12.714 1.051M139.5 41.352c-5.295 1.377-13.442 5.34-17.343 8.437l-2.342 1.859 2.715 1.78c1.494.979 2.412 1.288 2.041.687-.906-1.466 7.648-6.804 13.861-8.65 6.091-1.81 19.787-1.835 24.8-.045 4.785 1.708 3.871.184-1.55-2.584-5.145-2.627-15.199-3.3-22.182-1.484m-60.529 3.032c-5.948 2.289-13.526 6.375-14.906 8.038-1.932 2.327-.037 1.953 7.03-1.39 11.996-5.672 25.515-6.51 35.291-2.186 5.975 2.644 4.543.2-1.819-3.104-5.122-2.66-20.141-3.457-25.596-1.358M108 54.383c0 .211.9.619 2 .907 1.1.287 2 .115 2-.384 0-.498-.9-.906-2-.906s-2 .173-2 .383m5 .495c0 .367 2.035 1.139 4.522 1.716s4.117.645 3.622.15c-1.149-1.149-8.144-2.752-8.144-1.866m-12 8.06c-3.256.743-3.305.808-.7.93 8.122.382 13.358 8.229 10.328 15.481-1.683 4.026-5.229 6.661-10.464 7.771-2.433.517-.304.691 6.336.52 15.432-.399 21.5-4.643 21.5-15.036 0-3.943-1.895-6.244-6.844-8.312-4.104-1.715-15.284-2.466-20.156-1.354m-11.551 3.007c-6.013 2.141-10.943 4.621-14.69 7.391-2.514 1.859-2.611 2.17-1.178 3.753C75.661 79.388 88.6 85.604 93 86.418l3.5.647-2.619-1.495c-1.44-.823-3.394-3.131-4.343-5.13-2.387-5.031-1.374-9.498 3.028-13.364 4.006-3.517 3.797-3.593-3.117-1.131M67 69.5c-2.788 1.493-3.784 2.427-2.618 2.455 1.736.042 8.618-3.581 8.618-4.537 0-.832-1.583-.283-6 2.082m31 0c-1.872 2.256.559 4.68 4.314 4.301 3.647-.368 5.948-3.372 3.686-4.814-2.275-1.45-6.601-1.173-8 .513m57.395-.132-2.106 1.172 2.106 1.585c3.406 2.565 6.624 3.203 9.201 1.824l2.358-1.262-2.529-2.344c-2.721-2.522-5.677-2.841-9.03-.975M31.141 75.25c-4.228 5.657-9.113 14.926-11.103 21.067-1.94 5.985-.646 5.27 1.953-1.079 2.665-6.512 8.522-15.564 12.398-19.162C36.946 73.701 37.948 70 36.032 70c-.532 0-2.733 2.362-4.891 5.25m63.109 3c.229.688 1.017 1.25 1.75 1.25s1.521-.562 1.75-1.25c.248-.744-.461-1.25-1.75-1.25s-1.998.506-1.75 1.25m41.782 9.378c-.018.62.629 1.675 1.436 2.345s1.398 1.513 1.313 1.873.451 3.242 1.191 6.404c.859 3.669 1.86 5.75 2.767 5.75 1.079 0 1.252-.78.718-3.25-1.103-5.113-7.34-16.135-7.425-13.122M.385 100c0 6.875.16 9.688.355 6.25.196-3.437.196-9.062 0-12.5-.195-3.437-.355-.625-.355 6.25m71.921-8.468C75.242 94.115 77 94.674 77 93.026c0-.97-5.175-4.055-6.7-3.994-.44.017.463 1.142 2.006 2.5m95.606 14.057c-2.524 1.264-8.149 3.255-12.5 4.423-10.288 2.762-39.009 3.786-58.281 2.078-7.353-.652-13.565-.989-13.804-.75-.854.853 13.217 2.79 27.011 3.717 23.348 1.57 47.159-1.202 60.316-7.022 2.497-1.105 4.344-2.541 4.122-3.206-.622-1.866-1.907-1.724-6.864.76m-122.463 7.879c-1.681 4.022-1.886 8.144-.449 9.032.55.34 1 .012 1-.73 0-.741.9-3.112 2-5.27 2.403-4.713 2.526-6.5.449-6.5-.853 0-2.203 1.561-3 3.468m-4.435 39.214c.033 4.399 1.167 6.311 3.411 5.748 1.41-.354 4.68.742 9.136 3.062l6.939 3.614-3.711-3.803c-2.041-2.092-6.428-5.296-9.75-7.121-5.281-2.901-6.037-3.089-6.025-1.5m114.486.969c-1.1.831-4.475 2.775-7.5 4.321s-6.357 3.759-7.405 4.919c-2.526 2.797-1.501 2.664 2.998-.389 4.006-2.719 10.887-4.941 12.401-4.006.985.609 2.462-3.68 1.854-5.383-.193-.54-1.238-.301-2.348.538m-92.894 7.501c1.042 1.459 2.094 2.459 2.338 2.222.245-.236-.607-1.43-1.894-2.652l-2.338-2.222zM68 163c0 1.592.453 1.991 1.781 1.569.98-.31 6.212.559 11.628 1.933 10.049 2.549 21.11 3.21 29.091 1.738 3.8-.7 3.65-.767-3-1.328-7.433-.628-34.805-4.629-37.75-5.518-1.285-.388-1.75.038-1.75 1.606m21.803 23.285c-.296 1.531-.317 2.563-.047 2.292.271-.271 1.224.298 2.118 1.263s1.257 1.199.807.521c-.451-.678-1.162-2.499-1.579-4.047l-.76-2.814zm18.197.143c0 1.534-1.195 3.391-3.25 5.047l-3.25 2.62 3.561-1.773c2.888-1.438 3.602-2.392 3.781-5.048.121-1.801-.018-3.274-.311-3.274-.292 0-.531 1.092-.531 2.428m-49.738.865c.797 1.214 3.877 3.206 6.844 4.426C73.689 195.251 80 194.487 80 189.917c0-2.106-2.824-2.886-10.507-2.903-3.303-.008-7.508-.445-9.343-.971-3.281-.941-3.313-.92-1.888 1.25M97 186.5c.685.825 1.81 1.5 2.5 1.5s1.815-.675 2.5-1.5c1.069-1.288.715-1.5-2.5-1.5s-3.569.212-2.5 1.5m42.5-.445c-1.1.443-5.15.842-9 .888-8.724.105-11.5.823-11.5 2.974 0 4.478 5.682 5.296 14.326 2.062 2.971-1.111 6.21-2.914 7.199-4.006 2.119-2.342 1.75-3.034-1.025-1.918"/><path fill-opacity=".229" fill-rule="evenodd" d="M85.5.641c-12.838 2.013-29.229 8.35-41 15.85C36.773 21.414 21.401 36.79 16.498 44.5.203 70.126-4.204 100.058 4.132 128.5c3.374 11.514 11.527 26.459 20.126 36.896l2.386 2.896 3.056-5.396c3.73-6.587 6.999-9.843 7.796-7.766.882 2.299 1.066 18.201.236 20.463-.648 1.768.127 2.711 5 6.085 8.428 5.834 8.186 5.769 6.838 1.847-.651-1.892-1.91-4.246-2.799-5.232-.888-.986-1.933-3.068-2.322-4.625l-.707-2.832 4.879 2.442c6.413 3.211 18.983 7.245 28.587 9.174 4.239.851 7.952 1.548 8.25 1.548s.542 1.497.542 3.326c0 2.274.808 4.085 2.557 5.728 1.415 1.329 2.363 3.143 2.123 4.061-.346 1.325.571 1.793 4.538 2.32 2.735.362 6.901.37 9.258.016 3.453-.518 4.197-.986 3.824-2.41-.286-1.096.54-2.557 2.171-3.84 1.602-1.259 2.858-3.451 3.205-5.591.546-3.368.814-3.567 6.197-4.628 11.622-2.29 23.561-6.122 31.173-10.006 3.827-1.952 3.954-1.956 3.954-.131 0 1.037-.85 2.966-1.889 4.287s-2.591 4.082-3.449 6.135l-1.56 3.734 3.988-2.25c2.194-1.238 5.344-3.376 7-4.751 2.793-2.32 2.928-2.731 1.878-5.704-.827-2.342-.845-5.542-.068-11.898.585-4.782 1.243-8.874 1.462-9.094.54-.539 7.164 8.561 8.723 11.984l1.251 2.745 2.421-2.267c3.629-3.397 11.757-15.93 15.609-24.07 4.429-9.358 7.65-21.031 8.434-30.567.522-6.344.738-7.039 1.282-4.129.369 1.973.65-1.517.644-8-.006-6.787-.269-9.861-.641-7.5-.573 3.627-.698 3.301-1.338-3.5-2.155-22.878-15.432-48.159-33.269-63.345-12.323-10.493-27.693-18.502-42.607-22.203C116.591.894 91.606-.317 85.5.641m2.968 12.609c-18.287 1.97-39.73 12.983-51.923 26.668-1.675 1.88-3.78 4.19-4.679 5.134C29.022 48.039 22.311 58.4 21.536 61c-.409 1.375-1.342 3.451-2.073 4.612C15.837 71.377 10.588 99 13.119 99c.519 0 1.139-.562 1.378-1.25 4.56-13.126 10.769-23.821 18.908-32.57 2.55-2.742 4.655-6.13 5.082-8.18 1.304-6.269 6.768-15.368 12.46-20.751C64.661 23.28 83.59 19.603 99.075 26.9l4.574 2.155 4.426-2.47c5.428-3.03 11.237-4.37 20.508-4.733 4.968-.194 7.084-.661 7.084-1.564 0-.709-.5-1.288-1.111-1.288-.612 0-4.699-1.182-9.084-2.626-9.081-2.992-25.422-4.371-37.004-3.124m27.255 14.704c-8.926 2.853-9.281 3.436-5.28 8.675 1.861 2.438 4.186 6.37 5.165 8.739l1.782 4.306 5.009-3.791c6.329-4.79 14.384-7.821 23.209-8.733l6.892-.712-3.298-3.165c-7.202-6.912-21.426-9.171-33.479-5.319m-48.058 2.493c-7.954 3.27-13.275 7.128-17.908 12.984-5.613 7.095-7.779 11.864-9.778 21.529-1.605 7.756-2.065 8.366-3.176 4.212-.523-1.955-9.326 10.232-13.24 18.328-4.938 10.215-6.147 17.224-4.058 23.516 3.432 10.333 12.846 20.142 25.381 26.447 6.402 3.22 11.541 2.889 13.245-.851.883-1.937.424-3.158-3.046-8.112-4.476-6.39-5.177-10.496-2.454-14.383 3.587-5.122 12.192-6.342 24.869-3.528 20.371 4.522 42.854 6.171 61 4.474 13.773-1.288 26.701-4.105 32.558-7.093 3.39-1.729 3.939-2.422 3.382-4.267-1.076-3.567-1.647-3.676-7.94-1.529-9.504 3.243-23.5 1.472-23.5-2.974 0-2.388-3.677-9.139-6.771-12.431l-2.567-2.731-1.725 3.855c-.95 2.12-2.947 4.699-4.438 5.731-1.492 1.032-5.027 4.175-7.856 6.984-6.715 6.669-12.87 8.81-23.551 8.191-9.998-.579-14.361-2.834-25.092-12.973-4.675-4.418-6.616-6.62-4.313-4.895 7.873 5.899 16.965 9.343 26.007 9.852 4.507.254 9.457.119 11-.299 2.423-.657 1.798-.954-4.577-2.17-4.061-.775-9.236-2.344-11.5-3.486-5.5-2.774-16.746-10.032-16.275-10.503.207-.207 2.577.735 5.267 2.092 15.817 7.982 36.339 9.667 43.546 3.575l2.345-1.981-3.825 1.539c-12.16 4.894-34.568.633-47.153-8.965-2.211-1.687-3.908-2.182-6.285-1.833-3.993.586-6.237-1.105-6.237-4.7 0-3.833 3.018-6.232 15.005-11.926C86.374 56.251 99.325 51.92 107 51.093l5.5-.593-3.184-2.271c-10.925-7.793-28.614-7.277-41.212 1.201C65.297 51.319 63 52.48 63 52.009c0-2.324 6.162-7.672 11.979-10.396 5.953-2.788 7.436-3.057 17.021-3.083 5.775-.017 11.85.337 13.5.785 2.937.797 2.908.729-1.332-3.209-8.858-8.227-24.399-10.636-36.503-5.659m88.77 3.659c-.451.728-.322.942.325.542.588-.363 1.271-.095 1.518.596.246.691.746.983 1.109.649.364-.335.016-1.144-.774-1.799-1.111-.922-1.603-.92-2.178.012m-15.394 6.627c-4.51.845-12.287 4.319-16.596 7.414l-4.261 3.06 4.658 4.646c4.561 4.55 4.71 4.613 7.158 3.025 9.336-6.056 17.78-8.851 29.482-9.759l7.982-.619-2.982-2.776c-4.978-4.634-15.905-6.778-25.441-4.991m12.709 12.493c-2.613.545-4.75 1.296-4.75 1.669 0 .932 3.853 1.152 4.408.253.82-1.326 18.063.659 23.426 2.697 5.538 2.104 6.425 1.184 2.026-2.101-4.8-3.583-15.061-4.612-25.11-2.518M100 55.876c-12.423 3.357-37.322 14.465-37.204 16.599.111 2.007 1.969 1.444 8.248-2.502 15.384-9.665 27.886-13.563 40.589-12.655 3.924.281 8.649 1.285 10.5 2.233l3.367 1.723-2-2.275c-4.541-5.165-12.182-6.18-23.5-3.123m35.719 4.701C132.573 62.544 130 64.791 130 65.57c0 .924 1.558.227 4.48-2.003 2.464-1.881 5.389-3.708 6.5-4.061 1.932-.613 2.868-2.506 1.239-2.506-.43 0-3.355 1.61-6.5 3.577M100 62.937l-3.5.8 3.3.131c7.081.283 11.686 4.973 11.495 11.709C111.121 81.723 107.3 85.61 100 87.07c-2.45.49-.8.728 5.5.793 9.214.095 15.385-1.639 19.688-5.533 1.949-1.764 3.344-9.075 2.427-12.726-1.306-5.207-17.204-9.045-27.615-6.667m-10.524 2.945c-7.241 2.608-11.559 4.786-14.976 7.553-2.955 2.392-2.97 2.452-1 3.999 3.316 2.603 15.767 8.52 19.406 9.222l3.405.656-3.822-3.503c-3.414-3.128-3.822-4.016-3.822-8.309 0-4.254.42-5.191 3.652-8.153 4.186-3.837 4.003-3.931-2.843-1.465m64.164 1.545c-.875 1.335-2.614 2.624-3.865 2.864l-2.275.437 2.227.136c1.225.075 2.934 1.215 3.798 2.534.978 1.492 2.969 2.651 5.273 3.068 2.036.369 4.714.914 5.952 1.211 1.801.432 2.25.112 2.25-1.601 0-1.285.899-2.502 2.25-3.045 1.238-.497 1.613-.933.833-.968-.779-.034-1.131-.349-.782-.698s-.987-1.924-2.97-3.5c-4.749-3.773-10.379-3.967-12.691-.438M98 69.5c-2.521 3.038 2.619 5.735 7.418 3.893 2.046-.785 2.046-4.001 0-4.786-2.766-1.062-6.132-.656-7.418.893m-3.75 8.75c.229.688 1.017 1.25 1.75 1.25s1.521-.562 1.75-1.25c.248-.744-.461-1.25-1.75-1.25s-1.998.506-1.75 1.25m92.083 6.206c0 .801.383 1.22.85.931s.591-.944.274-1.456c-.808-1.308-1.124-1.161-1.124.525m-43.587 4.848c4.159 7.121 15.775 9.782 26.602 6.093 3.992-1.36 11.391-6.992 10.438-7.945-.168-.167-3.001.61-6.295 1.728-7.411 2.513-18.159 2.118-26.801-.985l-5.81-2.086zm41.424-1.009c-.634.764-.857 1.685-.495 2.047s.021.69-.758.73c-.78.04-2.658 1.569-4.176 3.397l-2.758 3.325 1.903 4.353c2.096 4.796 5.816 8.485 8.06 7.993 1.262-.277 1.262-.083 0 1.521-1.324 1.684-1.299 1.724.293.476.956-.75 1.48-1.783 1.162-2.296-.317-.514-.569-5.326-.561-10.696.016-10.412-.681-13.246-2.67-10.85M.378 100c0 6.325.163 8.912.361 5.75s.198-8.338 0-11.5-.361-.575-.361 5.75m11.958 2.567c-.331.862-.148 2.021.406 2.575.677.677 1.008.163 1.008-1.567 0-2.925-.533-3.305-1.414-1.008m28.653 4.683c-2.6 4.265-2.6 11.235 0 15.5 2.656 4.356 3.26 4.094 2.485-1.074-.706-4.712 1.33-11.224 4.184-13.378 2.223-1.677.917-4.298-2.141-4.298-1.8 0-3.128.953-4.528 3.25m133.963 2.82c-.798.515-5.044 2.086-9.435 3.491-20.862 6.673-50.009 7.161-82.991 1.389-6.064-1.061-13.501-1.876-16.526-1.81-5.394.117-5.355.136 2 .981 4.125.474 14.925 2.328 24 4.119 15.435 3.046 17.823 3.254 37 3.219 16.573-.031 21.745-.383 27-1.837 9.027-2.498 22-7.59 22-8.636 0-1.453-1.512-1.908-3.048-.916M184.5 115c-.34.55-.141 1 .441 1s1.059-.45 1.059-1-.198-1-.441-1-.719.45-1.059 1m-1 3c.34.55.816 1 1.059 1s.441-.45.441-1-.477-1-1.059-1-.781.45-.441 1M16.543 129.931c-.683 1.105.894 2.299 1.818 1.375.95-.951.773-2.306-.302-2.306-.518 0-1.2.419-1.516.931M19 132.812c0 .47.337 1.192.75 1.605.413.412.759 1.05.769 1.416.043 1.46 3.894 7.03 4.571 6.611.398-.246.51.37.249 1.368-.293 1.118.805 3.253 2.861 5.563l3.335 3.748 2.476-2.635c2.426-2.582 2.436-2.657.483-3.688-1.097-.579-5.032-4.156-8.744-7.948s-6.75-6.511-6.75-6.04m160.364.682c-.316.822-.976 1.246-1.469.941-.492-.304-.895-.125-.895.398 0 .522-1.017 1.205-2.26 1.517s-3.092 1.977-4.11 3.699c-1.017 1.722-3.146 4.287-4.731 5.699-2.272 2.024-2.638 2.861-1.73 3.955.633.764 1.731 1.165 2.44.893.852-.326 1.079.053.67 1.119-.396 1.033-.22 1.367.49.928.609-.377 1.519.049 2.021.945.835 1.493.964 1.495 1.53.021.339-.885.176-1.609-.364-1.609s.15-1.791 1.531-3.98 2.513-4.439 2.513-5 .389-1.02.864-1.02 1.639-2.028 2.585-4.506c1.017-2.662 2.159-4.236 2.791-3.846.632.391.777.189.355-.493-.954-1.545-1.543-1.455-2.231.339m-137.937 22.67c.377 2.84 1.56 6.275 2.629 7.635S46 165.914 46 165.48s.857-.014 1.905.934c2.136 1.934 10.59 4.758 11.504 3.844 1.868-1.868.295-6.125-3.659-9.9C52.176 156.945 42.961 151 41.245 151c-.276 0-.194 2.324.182 5.164m108.768.418c-9.617 5.539-11.195 7.071-11.195 10.872 0 2.997.182 3.141 3.911 3.095 2.15-.027 3.722-.24 3.492-.473s1.273-1.387 3.34-2.565c2.56-1.458 4.026-1.801 4.601-1.076.513.647.635.407.31-.612-.294-.922.091-2.196.856-2.832 1.264-1.049 3.241-9.717 2.36-10.35-.203-.146-3.657 1.627-7.675 3.941M140 154.573c-3.575.733-12.267 1.355-19.316 1.38-7.7.028-13.678.509-14.977 1.204-2.113 1.131-2.118 1.175-.185 1.93 1.088.425 6.928.796 12.978.826 11.382.055 21.883-1.899 28-5.209 3.531-1.911 2.294-1.936-6.5-.131M60.638 160.5c.317.825.978 1.5 1.469 1.5s.909 1.463.928 3.25.721 4.375 1.559 5.75c1.459 2.394 1.501 2.271.996-2.887-.293-2.986-1.28-6.218-2.214-7.25-2.028-2.241-3.535-2.441-2.738-.363m7.821 5.108c.918 6.17 1.526 6.868 8.115 9.334 8.891 3.326 22.106 4.649 32.063 3.21C123.286 176.034 131 172.07 131 166.661c0-1.544-.509-1.784-2.75-1.3-8.212 1.773-21.59 1.863-31.947.214A3013 3013 0 0 0 79 162.869c-3.575-.542-7.573-1.249-8.885-1.57-2.336-.572-2.37-.484-1.656 4.309M134.694 164c-.296.825-.827 3.232-1.18 5.348-.81 4.86 1.128 4.075 2.048-.829.709-3.777.067-7.121-.868-4.519M89 186.83c0 2.223.998 3.548 4.646 6.167 2.555 1.835 5.177 3.336 5.827 3.336s3.285-1.446 5.855-3.214c3.782-2.602 4.672-3.778 4.672-6.167 0-1.624-.45-2.952-1-2.952s-1 .85-1 1.889c0 2.213-2.46 5.262-6.042 7.489-2.401 1.492-2.744 1.436-6.197-1.022-2.193-1.56-3.909-3.752-4.288-5.478-.812-3.7-2.473-3.731-2.473-.048m6.221-.666c.214.641 1.326 1.787 2.472 2.548 1.861 1.236 2.39 1.115 4.946-1.132l2.861-2.517-5.333-.031c-3.625-.022-5.209.341-4.946 1.132"/><path fill-opacity=".983" fill-rule="evenodd" d="M116.977 23.355c-2.488.672-6.547 2.351-9.019 3.733l-4.494 2.512-4.482-2.296C76.582 15.828 46.587 30.657 38.915 57c-.891 3.059-3.333 6.704-7.623 11.383-7.226 7.879-14.46 21.292-16.323 30.266-3.413 16.442 1.432 30.925 14.397 43.032l7.344 6.859-2.456 1.853c-1.351 1.02-4.199 4.55-6.329 7.845-3.201 4.951-3.686 6.339-2.799 7.997.994 1.859 1.262 1.685 3.649-2.365 3.764-6.386 7.34-10.917 8.197-10.387.413.255.982 3.353 1.265 6.886.284 3.532.878 7.008 1.32 7.724.443.715.689 3.487.547 6.159-.245 4.618 1.003 7.748 3.09 7.748.522 0 .867-1.013.767-2.25s-.133-3.663-.072-5.39l.111-3.14 8.049 3.48c6.645 2.873 20.942 6.894 31.701 8.915 1.822.343 2.25 1.086 2.25 3.906 0 3.107.66 3.969 6.11 7.981 3.361 2.474 6.631 4.498 7.268 4.498 1.334 0 8.066-4.331 11.372-7.317 1.47-1.327 2.25-3.178 2.25-5.338 0-2.637.456-3.392 2.25-3.73 10.721-2.014 25.041-6.035 31.617-8.879l7.965-3.443.618 3.294c.34 1.811.319 4.486-.047 5.943-.618 2.464-.522 2.562 1.366 1.382 1.624-1.014 2.141-2.682 2.585-8.34.652-8.316 2.256-19.515 2.884-20.143.693-.694 3.312 2.572 7.069 8.816 2.839 4.719 3.667 5.491 4.634 4.326 1.528-1.842-1.18-7.33-6.672-13.518l-3.945-4.445 4.776-5.928c2.627-3.26 6.061-6.708 7.631-7.663 1.57-.954 4.049-3.155 5.509-4.891 2.426-2.883 2.646-3.861 2.549-11.345-.093-7.142-.402-8.485-2.416-10.499-1.27-1.27-3.111-4.148-4.091-6.395l-1.782-4.086 4.201-4.575c2.311-2.517 4.716-5.96 5.345-7.651a241 241 0 0 1 2.689-6.8c1.796-4.326 1.12-15.221-1.225-19.756-1.462-2.827-7.939-9.019-9.435-9.019-.47 0-3.312-2.418-6.314-5.373-3.039-2.99-7.156-5.932-9.286-6.635-2.209-.729-6.003-3.492-8.971-6.532-4.209-4.311-6.377-5.649-11.929-7.364-7.582-2.342-16.612-2.625-23.598-.741m-.477 3.988c-2.2.726-5.491 2.098-7.313 3.047l-3.314 1.727 3.661 4.052c2.013 2.229 4.652 6.192 5.863 8.807l2.203 4.755 2.95-2.422C127.318 41.753 140.07 37 148.21 37c2.085 0 3.79-.372 3.79-.826 0-1.394-4.267-4.829-9-7.246-5.526-2.822-20.114-3.695-26.5-1.585m-43 .994c-17.778 4.509-30.605 18.827-33.969 37.917-1.162 6.596-1.61 7.059-2.753 2.844-.495-1.83-9.092 9.6-12.914 17.171-8.989 17.808-7.341 35.468 4.613 49.434 10.409 12.159 35.783 22.659 60.148 24.889l6.875.629 5.348-4.274 5.349-4.274 11.151.213c10.539.201 27.315-1.657 36.015-3.989 2.141-.574 5.705-2.815 8-5.032 2.995-2.893 3.558-3.835 2.039-3.412-15.121 4.216-38.193 5.455-58.208 3.126-25.054-2.916-43.346-8.684-49.645-15.656-6.449-7.139-5.956-12.956 1.414-16.673 5.164-2.604 9.92-2.793 19.037-.755 17.704 3.957 26.604 4.871 47.5 4.878 22.465.008 32.762-1.418 45.75-6.338 5.934-2.248 6.538-3.21 4.638-7.382l-1.113-2.441-4.637 2.055c-4.933 2.186-13.835 2.82-20.321 1.447-3.111-.659-3.867-1.357-4.865-4.497-1.66-5.225-6.664-12.876-9.954-15.218l-2.779-1.979-.702 3.74c-.543 2.898-2.447 5.455-8.454 11.358-9.552 9.387-14.347 11.36-25.936 10.672-7.814-.463-11.801-1.91-17.943-6.509-3.727-2.791-3.578-4.424.179-1.963C81.317 100.909 91.612 104 96.287 104c4.814 0 13.284-2.234 15.998-4.22 1.475-1.079.371-1.3-7.018-1.41-9.289-.137-17.928-2.597-22.476-6.398-2.148-1.795-1.916-1.782 3.709.216 7.135 2.533 22.057 3.55 28.119 1.916 4.397-1.186 8.811-4.17 10.311-6.973.711-1.329-.426-1.049-5.051 1.244-5.273 2.613-6.985 2.953-14.674 2.909-10.689-.061-21.723-3.364-31.005-9.281-4.73-3.014-6.922-3.86-8.791-3.391-1.672.42-3.133.043-4.449-1.148-4.745-4.295-1.021-8.691 12.813-15.126 12.179-5.665 25.508-10.181 32.985-11.175l5.742-.763-4.875-3.155c-10.976-7.103-26.119-6.391-39.095 1.838-5.864 3.719-6.968 3.217-1.826-.829 9.224-7.259 20.859-10.421 30.916-8.401 3.191.64 7.506 2.053 9.591 3.14 2.084 1.086 3.789 1.581 3.789 1.099s-2.002-3.103-4.45-5.825c-7.805-8.681-21.616-12.831-33.05-9.93m63.156 13.579c-3.214 1.059-8.263 3.531-11.218 5.494l-5.374 3.568 4.718 4.849 4.718 4.849 3-1.909c9.003-5.728 21.849-9.726 31.333-9.752 6.518-.018 6.465-1.302-.225-5.448-4.041-2.503-5.93-2.979-12.92-3.254-6.082-.24-9.691.173-14.032 1.603m15.117 11.639C141.724 55.991 130 62.729 130 66.068c0 2.553 1.277 2.437 5.771-.524 5.582-3.677 10.995-5.731 11.776-4.469.798 1.293 1.42.827-7.336 5.499-11.053 5.897-10.772 9.21 1.289 15.211 8.823 4.391 13.192 5.542 21.046 5.545 12.057.006 22.437-6.471 22.45-14.007.002-1.23.765-2.375 1.754-2.634 1.486-.388 1.504-.474.117-.573-.899-.064-1.857-.97-2.13-2.014s-1.583-2.61-2.911-3.48c-2.958-1.938-17.038-5.574-21.826-5.637-3.035-.04-3.249-.192-1.606-1.146 2.64-1.533 14.356-.303 20.615 2.165 4.658 1.836 4.985 1.854 4.118.234-3.947-7.375-17.012-10.16-31.354-6.683M103.5 54.679C92.246 57.197 63.417 69.75 62.319 72.611c-.707 1.841 1.525 3.61 3.593 2.848.776-.286 4.376-2.471 8-4.856 12.279-8.082 26.6-12.264 38.963-11.38 3.764.269 8.256 1.195 9.984 2.057 3.939 1.965 4.018.751.201-3.066-3.813-3.813-11.835-5.263-19.56-3.535m-3.5 8.258-3.5.8 3.85.131c5.682.195 10.65 5.385 10.65 11.128 0 5.279-2.865 9.474-7.52 11.011-6.376 2.104-11.918-.736-14.443-7.401-1.475-3.891.186-8.775 4.106-12.073 1.656-1.393 2.413-2.518 1.684-2.499-2.759.072-15.496 5.697-19.523 8.622l-4.196 3.048 2.745 2.029c12.405 9.171 31.517 13.072 43.753 8.93 7.697-2.605 9.879-5.464 9.887-12.954l.007-6.144-4.291-2.38c-4.697-2.605-16.599-3.758-23.209-2.248M98 69.5c-2.521 3.038 2.619 5.735 7.418 3.893 2.046-.785 2.046-4.001 0-4.786-2.766-1.062-6.132-.656-7.418.893m-4 9c0 .833.889 1.5 2 1.5s2-.667 2-1.5-.889-1.5-2-1.5-2 .667-2 1.5m86.079 1.083c.048 1.165.285 1.402.604.605.289-.722.253-1.585-.079-1.917s-.568.258-.525 1.312m-36.934 11.194c1.57 2.984 2.855 6.025 2.855 6.757 0 3.517 13.979 3.821 21.76.474 4.765-2.05 12.24-8.719 12.24-10.92 0-.499-1.912.054-4.25 1.229-6.415 3.223-20.971 2.998-29.355-.454l-6.104-2.513zm-99.046 16.824c-2.493 3.17-3.542 8.222-2.672 12.864.998 5.319 2.331 5.074 1.812-.333-.477-4.964 1.102-9.51 4.195-12.077 1.954-1.622 2.019-3.055.139-3.055-.786 0-2.349 1.171-3.474 2.601m126.401 3.923c-2.75 1.296-9.725 3.372-15.5 4.613-9.082 1.951-13.335 2.248-31.5 2.199-18.093-.049-23.066-.422-35.928-2.696-17.006-3.007-25.354-3.321-29.622-1.114-4.553 2.354-3.52 7.563 2.519 12.702 5.274 4.487 23.579 9.793 42.531 12.328 35.055 4.69 74.058-2.689 77.042-14.576 1.107-4.409.116-4.716-5.827-1.804-19.264 9.44-68.384 10.03-97.472 1.171-4.816-1.466-8.596-2.828-8.399-3.024s3.527.308 7.399 1.123c27.584 5.802 61.408 6.619 83.809 2.022 4.371-.896 10.733-2.954 14.138-4.571 7.208-3.426 8.852-6.23 5.326-9.085-2.691-2.179-2.318-2.21-8.516.712M41.364 155.64c.35 2.551.636 5.865.636 7.362 0 2.346.865 3.149 6.25 5.795 3.438 1.69 7.487 3.54 9 4.113l2.75 1.04v-4.762c0-4.369-.393-5.145-4.75-9.372C51.161 155.848 43.547 151 41.404 151c-.372 0-.39 2.088-.04 4.64m108.814.874C139.683 162.686 139 163.458 139 169.14v4.831l5.084-2.004c2.796-1.102 6.805-2.994 8.907-4.204 3.638-2.094 3.856-2.508 4.504-8.56.375-3.498.529-6.503.343-6.678s-3.633 1.621-7.66 3.989M139 154.563c-4.125.721-13.125 1.358-20 1.416l-12.5.104-3.823 3.378-3.823 3.377 5.636.704c6.507.813 17.273-.069 24.811-2.032 7.179-1.87 15.923-5.212 18.259-6.979 2.346-1.774 1.759-1.772-8.56.032m-78.566 6.368c2.129 2.222 2.566 3.63 2.566 8.267 0 4.045.414 5.747 1.5 6.164 1.21.464 1.5-.391 1.5-4.426 0-6.882-2.083-11.527-5.458-12.173l-2.675-.511zm8.09 7.686c.395 4.336.856 8.037 1.023 8.225.167.189 5.4 1.237 11.629 2.331 12.998 2.283 28.26 2.046 40.768-.633 4.094-.877 7.531-1.694 7.637-1.817.107-.123.512-3.016.9-6.43l.705-6.207-3.343.98c-5.803 1.702-20.969 2.287-26.808 1.035-2.997-.643-10.644-1.849-16.992-2.68s-12.6-1.776-13.891-2.099l-2.348-.588zm65.118-1.867c-1.083 6.553-.814 9.253.858 8.612 1.099-.422 1.5-2.153 1.5-6.469 0-6.603-1.409-7.884-2.358-2.143m-85.572 16.5c-.038 1.512.38 2.75.93 2.75 1.174 0 1.174-.769 0-3.5-.762-1.772-.867-1.687-.93.75m101.64.75c-.287 1.1-.115 2 .384 2 .498 0 .906-.9.906-2s-.173-2-.383-2-.619.9-.907 2M89 186.973c0 2.465.883 3.568 5.161 6.449 5.735 3.863 6.116 3.815 13.089-1.651 2.487-1.949 3.75-3.752 3.75-5.355 0-3.361-2.799-3.103-3.616.334-.747 3.143-5.021 7.161-7.674 7.214-3.239.065-7.71-4.083-7.71-7.152 0-1.833-.522-2.812-1.5-2.812-.997 0-1.5.997-1.5 2.973m5-1.147c0 .454 1.142 1.898 2.537 3.209 2.429 2.282 2.653 2.313 5.25.743 1.492-.903 2.858-2.347 3.036-3.21.263-1.275-.717-1.568-5.25-1.568-3.065 0-5.573.372-5.573.826"/></svg>