<svg xmlns="http://www.w3.org/2000/svg" width="24" height="24" fill="#000000"><circle cx="12" cy="12" r="12" fill="#525252"/><path fill="#ffffff" fill-rule="evenodd" d="M.972 7.262c.242-.564.527-1.105.85-1.62h4.02c1.194.024 1.794.154 2.656.342l.043.01.134.029c.274.06.577.126.934.197.15.031.195 0 .231-.15a1.99 1.99 0 0 1 .68-1.17 3.057 3.057 0 0 1 1.778-.594c.982-.033 1.965.003 2.942.117l.866.058a39.49 39.49 0 0 0 1.701.076A4.168 4.168 0 0 0 19.62 4.2c.105-.046.202-.101.307-.162L20 4v.074l-.04.1a3.117 3.117 0 0 1-1.664 1.477 8.438 8.438 0 0 1-2.208.484l-.759.095c-.331.046-.663.1-.99.171a.99.99 0 0 0-.467.202 1.058 1.058 0 0 0-.323.413 1.174 1.174 0 0 0 .023 1.042c.121.3.25.596.377.892.16.37.32.74.466 1.117.264.603.383 1.268.349 1.933a4.522 4.522 0 0 1-.103.747 1.177 1.177 0 0 0 0 .63l.136.588c.152.653.304 1.306.475 1.952.088.361.21.71.363 1.047.065.135.157.257.251.38.07.092.141.187.203.288a2.117 2.117 0 0 1 .204.855c.008.296-.043.593-.155.866a4.113 4.113 0 0 1-.776 1.436 3.82 3.82 0 0 1-1.25.98 1.459 1.459 0 0 1-1.117.193 1.524 1.524 0 0 1-.937-.677 1.56 1.56 0 0 0-.685-.652c-.376-.144-.762-.26-1.147-.37a14.3 14.3 0 0 0-.7-.178c-.297-.07-.592-.144-.879-.239a4.906 4.906 0 0 1-1.84-1.185.235.235 0 0 0-.294-.058c-.959.425-1.872.961-2.72 1.601l-.32.24a11.961 11.961 0 0 1-3.472-8.316c.017-1.73.362-3.373.97-4.866Z" clip-rule="evenodd"/></svg>