<svg xmlns="http://www.w3.org/2000/svg" width="32" height="32" version="1.1" fill="#000000"><path fill-opacity=".18" d="M 11.204 7.593 L 6.909 10.168 7.204 16.254 C 7.497 22.288, 7.537 22.360, 11.808 24.731 L 16.115 27.122 20.558 24.519 L 25 21.916 25 16.135 C 25 10.474, 24.916 10.300, 20.910 7.678 C 18.661 6.205, 16.523 5.004, 16.160 5.009 C 15.797 5.015, 13.567 6.177, 11.204 7.593 M 16.739 10.400 C 15.361 11.446, 15.252 11.949, 16.239 12.713 C 19.470 15.213, 20 15.121, 20 12.059 C 20 8.701, 19.388 8.390, 16.739 10.400 M 10.500 14.450 L 8.500 16 10.500 17.550 C 12.307 18.950, 12.531 18.950, 12.823 17.550 C 13.001 16.698, 13.001 15.302, 12.823 14.450 C 12.531 13.050, 12.307 13.050, 10.500 14.450 M 17.060 18.740 L 14.620 20.726 16.896 21.944 C 19.686 23.438, 20.244 22.966, 19.825 19.469 L 19.500 16.754 17.060 18.740" stroke="none" fill="#000000" fill-rule="evenodd"/><path fill-opacity=".187" d="M 11.250 7.641 C 7.033 10.183, 7 10.248, 7 16.007 C 7 21.808, 7.001 21.811, 11.402 24.390 L 15.803 26.969 20.402 24.399 L 25 21.829 25 16.155 C 25 11.564, 24.618 10.243, 23 9.232 C 21.099 8.045, 20.994 8.245, 20.882 13.242 C 20.817 16.134, 20.479 19.717, 20.132 21.204 L 19.500 23.908 17 21.961 C 14.364 19.909, 14.329 19.997, 19 16.972 C 20.333 16.108, 20.333 15.892, 19 15.028 C 14.381 12.037, 14.387 12.048, 16.392 10.517 C 17.432 9.722, 18.782 8.859, 19.392 8.599 C 20.070 8.309, 19.746 7.519, 18.559 6.563 C 16.127 4.605, 16.336 4.574, 11.250 7.641 M 9.559 14.532 C 7.637 15.985, 7.637 16.015, 9.559 17.468 C 12.600 19.768, 14 19.305, 14 16 C 14 12.695, 12.600 12.232, 9.559 14.532" stroke="none" fill="#000000" fill-rule="evenodd"/><path fill-opacity=".176" d="M 11.250 7.816 C 7.070 10.434, 7 10.569, 7 16.100 C 7 21.713, 7.007 21.726, 11.345 24.027 C 16.185 26.595, 20.262 26.226, 17.942 23.431 C 17.237 22.580, 14.711 20.743, 12.330 19.347 C 9.948 17.952, 8 16.467, 8 16.047 C 8 15.628, 10.726 13.602, 14.058 11.545 C 19.627 8.108, 19.970 7.695, 18.308 6.435 C 16.031 4.708, 16.298 4.655, 11.250 7.816 M 21 11.154 C 21 12.899, 21.248 13.039, 22.500 12 C 23.325 11.315, 24 10.633, 24 10.485 C 24 10.336, 23.325 9.955, 22.500 9.638 C 21.461 9.240, 21 9.706, 21 11.154 M 14 16.045 L 14 20.136 17.058 17.959 C 18.739 16.762, 19.977 15.695, 19.808 15.588 C 19.638 15.482, 18.262 14.621, 16.750 13.674 L 14 11.954 14 16.045 M 22.250 17.662 C 21.563 17.940, 21 19.483, 21 21.092 C 21 23.767, 21.171 23.910, 23 22.768 C 24.100 22.081, 25 20.502, 25 19.259 C 25 16.988, 24.557 16.731, 22.250 17.662" stroke="none" fill="#000000" fill-rule="evenodd"/><path fill-opacity=".507" d="M 10.750 8.553 C 8.507 10.034, 7 11.827, 7 13.015 C 7 14.107, 7.270 15, 7.600 15 C 9.157 15, 18.903 8.380, 18.641 7.500 C 18.077 5.604, 14.490 6.083, 10.750 8.553 M 14 16 C 14 19.369, 14.613 19.615, 17.500 17.406 C 19.476 15.894, 19.477 15.859, 17.559 14.438 C 14.718 12.333, 14 12.648, 14 16 M 7 19.339 C 7 21.923, 10.916 24.353, 13.488 23.366 C 15.803 22.478, 15.318 21.360, 11.632 19.082 C 7.382 16.455, 7 16.476, 7 19.339 M 21 21.500 C 21 22.417, 21.484 23.005, 22.075 22.808 C 22.666 22.611, 23.150 22.023, 23.150 21.500 C 23.150 20.977, 22.666 20.389, 22.075 20.192 C 21.484 19.995, 21 20.583, 21 21.500" stroke="none" fill="#000000" fill-rule="evenodd"/></svg>