<svg xmlns="http://www.w3.org/2000/svg" width="200" height="200" fill="#000000"><path fill-opacity=".337" fill-rule="evenodd" d="M0 100.005V200.01l100.25-.255 100.25-.255.255-99.75L201.01 0H0zm.481.495c0 55 .121 77.647.269 50.326.148-27.32.148-72.32 0-100C.602 23.147.481 45.5.481 100.5m68.782-61.048c-24.379 5.54-41.56 30.693-37.428 54.793 3.17 18.484 15.901 33.612 33.165 39.408 7.267 2.44 23.564 2.501 29.944.112 4.214-1.579 4.807-1.564 11.48.285 25.873 7.17 52.162-7.595 60.099-33.753 1.834-6.046 1.876-19.21.082-25.947-4.024-15.115-15.438-27.358-31.105-33.367-7.686-2.948-22.152-3.263-30.571-.664-5.049 1.558-5.969 1.578-9.828.217-6.336-2.236-18.52-2.747-25.838-1.084M51 57.5V65l14.75.022c12.155.018 15.454.345 18.75 1.857 18.035 8.273 17.9 34.18-.218 41.773-2.216.928-7.896 1.348-18.25 1.348H51v14h17.341c11.772 0 18.798-.438 21.878-1.365 6.138-1.848 14.858-7.787 18.08-12.315l2.642-3.713-3.414-3.414c-8.421-8.421-8.513-21.383-.219-30.805l3.956-4.494-2.976-3.697c-4.271-5.306-10.382-9.714-16.793-12.113C86.631 50.264 83.711 50 68.462 50H51zm60.25-6.794c-2.975.573-2.843 1.353.82 4.857 1.689 1.615 3.975 4.399 5.082 6.187l2.011 3.25H149V50l-17.75.136c-9.763.075-18.763.331-20 .57m6.75 60.187c0 .52-2.245 3.402-4.988 6.404l-4.988 5.458 3.113.622c1.712.343 10.952.623 20.534.623h17.42l-.295-6.75-.296-6.75-15.25-.276c-9.108-.165-15.25.105-15.25.669m43.844 39.357c-.085 1.787-.078 4.201.017 5.364.214 2.633-2.056 4.632-4.288 3.776-2.658-1.02-1.632-5.665 1.427-6.463 2.266-.591 2.324-.726.614-1.448-3.977-1.681-7.592 3.679-4.989 7.396 1.119 1.597 2.431 2.069 5.425 1.952l3.95-.155v-6.836c0-6.812-1.854-9.896-2.156-3.586M36 154.5v6.5h4c4.165 0 8-2.614 8-5.453 0-4.846-3.264-7.504-9.25-7.533-2.719-.014-2.75.058-2.75 6.486m61.769-4.726c-.255.976-.195 3.788.134 6.25.488 3.66 1.007 4.534 2.847 4.796 1.237.175 2.25-.162 2.25-.75 0-.589-.562-.957-1.25-.82-.748.15-1.376-1.054-1.563-3-.249-2.578.061-3.257 1.5-3.282 1.719-.03 1.722-.1.063-1.36-.963-.731-1.75-1.841-1.75-2.468 0-1.81-1.719-1.322-2.231.634M38 154.437c0 4.414.099 4.563 3.032 4.563 5.897 0 6-8.226.11-8.813-3.109-.31-3.142-.266-3.142 4.25m13.571-1.866c-1.865 1.865-2.054 5.546-.371 7.229 1.531 1.531 6.46 1.56 7.397.042.495-.8.02-.975-1.537-.568-2.529.661-5.06-.03-5.06-1.381 0-.491 1.8-.893 4-.893 4.44 0 5.229-1.578 2.171-4.345-2.296-2.078-4.576-2.107-6.6-.084m12 0c-1.865 1.865-2.054 5.546-.371 7.229 1.526 1.526 6.458 1.562 7.39.054.49-.793-.032-.96-1.699-.541-3.259.818-5.136-.542-4.728-3.426.245-1.737 1.018-2.428 2.837-2.538 4.326-.263 4.536-.357 3-1.349-2.207-1.426-4.648-1.209-6.429.571m11.179-.491c-2.01 1.171-2.349 5.921-.55 7.72 1.531 1.531 6.46 1.56 7.397.042.495-.8.02-.975-1.537-.568-2.529.661-5.06-.03-5.06-1.381 0-.491 1.8-.893 4-.893 4.414 0 4.738-.501 2.443-3.777-1.674-2.391-3.899-2.77-6.693-1.143M85 156c0 5.805 1.731 6.793 2.19 1.25.247-2.993.757-3.814 2.525-4.065 1.636-.233 2.344.29 2.711 2 .273 1.273.686 3.215.919 4.315s.475-.152.539-2.781c.128-5.279-1.629-6.984-5.016-4.868-1.152.719-1.868.779-1.868.157 0-.554-.45-1.008-1-1.008s-1 2.25-1 5m21 .125c0 2.681.45 4.875 1 4.875s1-1.589 1-3.531c0-2.217.559-3.746 1.5-4.107 2.339-.898 1.764-2.112-1-2.112-2.325 0-2.5.342-2.5 4.875m8-4.125c-1.138.736-.716.973 1.75.985 1.787.008 3.25.465 3.25 1.015s-1.07 1-2.378 1c-2.889 0-4.881 2.161-4.032 4.373.428 1.117 1.844 1.627 4.517 1.627 3.841 0 3.893-.051 3.893-3.8 0-5.487-3.05-7.753-7-5.2m11.571.571c-1.865 1.865-2.054 5.546-.371 7.229 1.526 1.526 6.458 1.562 7.39.054.49-.793-.032-.96-1.699-.541-3.259.818-5.136-.542-4.728-3.426.245-1.737 1.018-2.428 2.837-2.538 4.326-.263 4.536-.357 3-1.349-2.207-1.426-4.648-1.209-6.429.571m10.429-.595c-1.152.763-.745.997 1.75 1.009 4.115.019 4.232 1.569.179 2.379-2.482.497-3.009 1.048-2.75 2.875.266 1.872.974 2.279 4.12 2.364l3.799.103-.299-4.603c-.265-4.081-.583-4.632-2.799-4.862-1.375-.143-3.175.188-4 .735M147.181 156c.022 5.008.096 5.191.836 2.049.447-1.898 1.606-4.031 2.575-4.74.969-.708 1.468-1.582 1.109-1.941s-1.295-.12-2.08.531c-1.107.92-1.542.896-1.945-.107-.285-.711-.508 1.183-.495 4.208m-94.472-2.376c-1.486 1.486-.597 2.376 2.374 2.376 2.02 0 2.942-.431 2.672-1.25-.467-1.418-3.972-2.2-5.046-1.126m23 0c-.39.39-.709 1.114-.709 1.609 0 1.221 5.006.526 5.281-.733.258-1.179-3.542-1.906-4.572-.876m39.299 3.35c-1.142.722-1.216 1.218-.317 2.117 1.486 1.486 4.309.464 4.309-1.56 0-1.723-1.759-1.969-3.992-.557m22.002.514c-.998 1.203-.935 1.603.329 2.089 1.957.751 3.661-.244 3.661-2.136 0-1.88-2.415-1.851-3.99.047"/><path fill-opacity=".787" fill-rule="evenodd" d="M0 100.005V200.01l100.25-.255 100.25-.255.255-99.75L201.01 0H0zm.481.495c0 55 .121 77.647.269 50.326.148-27.32.148-72.32 0-100C.602 23.147.481 45.5.481 100.5m67.207-60.998c-25.239 6.938-40.88 32.3-35.583 57.699 2.722 13.05 13.008 26.936 24.47 33.034 10.947 5.823 25.955 7.412 37.137 3.932 5.276-1.642 6.3-1.685 9.839-.41 5.492 1.979 19.948 2.731 26.303 1.368 14.77-3.168 27.776-13.681 34.175-27.625 8.413-18.331 4.934-38.914-9.114-53.932-6.362-6.8-13.959-11.393-23.317-14.094-6.993-2.019-20.663-1.642-27.32.753-3.875 1.395-4.779 1.366-10.979-.354-7.791-2.16-18.537-2.316-25.611-.371M51 57.306v7.522l16.326.336c15.886.327 16.439.41 20.492 3.095 5.172 3.425 8.755 8.754 10.167 15.121 2.093 9.442-3.164 20.013-12.39 24.912-3.576 1.899-6.028 2.22-19.345 2.531l-15.25.356v12.977l18.776-.328 18.777-.328 6.658-3.281c4.262-2.099 8.302-5.107 11.223-8.357l4.564-5.076-2.411-1.897c-1.327-1.043-3.576-4.233-4.999-7.089-4.569-9.169-3.079-18.617 4.098-25.983l3.589-3.683-3.239-4.088c-3.562-4.498-9.428-8.871-15.559-11.599-3.197-1.423-7.653-1.857-22.727-2.216L51 49.784zm62.5-6.631c-4.693 1.038-4.677 1.305.42 7.024 2.794 3.135 5.08 6.06 5.08 6.501 0 .44 6.525.8 14.5.8H148V50l-16.25.116c-8.937.064-17.15.315-18.25.559m1.58 64.721c-2.329 3.019-4.762 5.678-5.407 5.909-3.832 1.375 2.781 2.235 19.408 2.523l18.919.328V111h-12.918c-7.105 0-13.559-.246-14.343-.547-.905-.347-2.966 1.453-5.659 4.943M162 149.327c0 2.001-.408 2.267-2.911 1.899-2.303-.338-3.273.125-4.642 2.215-2.809 4.286.213 8.793 5.053 7.536.55-.143 1.787-.224 2.75-.181 1.506.069 1.75-.887 1.75-6.858 0-3.959-.429-6.938-1-6.938-.55 0-1 1.047-1 2.327M36 154.5v6.5h4.443c3.458 0 4.789-.493 6-2.223C50.119 153.53 46.812 148 40 148h-4zm61.344-3.992c-.636 1.371-.775 2.492-.31 2.492s.985 1.688 1.156 3.75c.276 3.34.638 3.787 3.31 4.088 1.65.186 2.625-.039 2.167-.5s-1.359-.838-2-.838c-.642 0-1.308-1.463-1.48-3.25-.233-2.414.088-3.25 1.25-3.25.859 0 1.563-.45 1.563-1s-.675-1-1.5-1-1.5-.675-1.5-1.5c0-2.292-1.366-1.774-2.656 1.008M38 154.563c0 4.546.012 4.563 3.25 4.25 2.727-.263 3.302-.765 3.572-3.123.4-3.485-1.323-5.69-4.444-5.69-2.157 0-2.378.425-2.378 4.563m13.2-2.363c-.66.66-1.2 2.37-1.2 3.8s.54 3.14 1.2 3.8c1.509 1.509 7.8 1.583 7.8.092 0-.669-.946-.871-2.386-.51-1.509.379-2.839.051-3.622-.892-1.062-1.279-.654-1.49 2.886-1.49 2.906 0 4.122-.421 4.122-1.429 0-3.671-6.146-6.025-8.8-3.371m12.045-.045c-1.585 1.585-1.611 6.079-.045 7.645 1.42 1.42 6.433 1.603 7.26.265.318-.515-.893-1.077-2.691-1.25-2.736-.264-3.269-.722-3.269-2.815 0-2.103.476-2.506 3-2.536 1.65-.02 3-.47 3-1 0-1.472-5.843-1.721-7.255-.309m11.033.095c-2.262 2.923-2.229 4.89.122 7.241 2.389 2.389 5.87 2.5 7.272.231.405-.656-.188-.82-1.612-.448-2.529.661-5.06-.03-5.06-1.381 0-.491 1.8-.893 4-.893 3.309 0 4-.339 4-1.965 0-3.388-6.62-5.502-8.722-2.785M85 156.198c0 2.641.45 4.802 1 4.802s1-1.26 1-2.8c0-2.988 1.574-5.2 3.7-5.2.85 0 1.3 1.385 1.3 4 0 2.889.417 4 1.5 4 1.891 0 2.098-7.261.25-8.788-.687-.568-2.937-.984-5-.924l-3.75.108zm20-.131c0 3.718.369 4.933 1.5 4.933 1.05 0 1.5-1.059 1.5-3.531 0-2.217.559-3.746 1.5-4.107 2.472-.949 1.7-2.052-1.5-2.143-2.939-.084-3 .014-3 4.848m8.535-4.123c-.721 1.166-.133 1.366 3.215 1.095 1.237-.1 2.25.3 2.25.889 0 .59-1.07 1.072-2.378 1.072-2.828 0-5.079 2.368-4.265 4.487q.58 1.513 4.666 1.513h4.087l-.305-4.75c-.29-4.523-.456-4.765-3.461-5.056-1.736-.169-3.45.169-3.809.75m11.562.44c-.679.817-1.09 2.977-.915 4.801.269 2.805.754 3.365 3.152 3.64 1.559.178 3.584-.011 4.5-.422 1.24-.554.77-.893-1.834-1.324-2.912-.482-3.5-.999-3.5-3.079 0-2.103.476-2.506 3-2.536 3.947-.048 3.878-1.878-.085-2.265-1.83-.179-3.587.304-4.318 1.185m10.903-.408c-1.605 1.063-.851 1.355 2.75 1.063 1.238-.1 2.25.3 2.25.889 0 .59-1.07 1.072-2.378 1.072-2.889 0-4.881 2.161-4.032 4.373.43 1.122 1.848 1.627 4.572 1.627h3.948l-.305-4.75c-.272-4.236-.576-4.778-2.805-5.009-1.375-.143-3.175.188-4 .735m10.198 3.761c.369 5.629 2.802 7.205 2.802 1.815 0-2.291.549-3.826 1.5-4.19 2.487-.955 1.693-2.052-1.552-2.144-3.016-.086-3.049-.032-2.75 4.519M52.5 154c-.362.585.676 1 2.5 1s2.862-.415 2.5-1c-.34-.55-1.465-1-2.5-1s-2.16.45-2.5 1m23 0c-.351.567.49 1 1.941 1 1.407 0 2.559-.45 2.559-1s-.873-1-1.941-1-2.219.45-2.559 1m81.201-.368c-1.232 1.232-.751 5.135.702 5.692.771.296 2.234-.079 3.25-.834 1.469-1.092 1.621-1.743.74-3.181-1.198-1.957-3.565-2.803-4.692-1.677M115 157.833c0 1.409 1.126 2.056 2.598 1.491 2.087-.801 1.695-2.324-.598-2.324-1.1 0-2 .375-2 .833m22.25.417c.229.688 1.017 1.25 1.75 1.25s1.521-.562 1.75-1.25c.248-.744-.461-1.25-1.75-1.25s-1.998.506-1.75 1.25"/><path fill-opacity=".5" fill-rule="evenodd" d="M0 100.005V200.01l100.25-.255 100.25-.255.255-99.75L201.01 0h-24.644l-1.696 7.25c-.933 3.987-1.751 8.6-1.819 10.25-.096 2.343-.218 2.508-.557.75-.622-3.232-2.294-2.776-2.294.625 0 1.581-.31 4.394-.69 6.25-.67 3.28-.711 3.305-1.449.875-.459-1.509-.542-.652-.21 2.162.322 2.734-.122 7.614-1.075 11.805-.894 3.929-1.393 7.52-1.11 7.979.555.898-5.287 7.054-6.695 7.054-.467 0 .064.98 1.179 2.177 1.116 1.198 2.334 1.873 2.706 1.5.373-.372.152-.677-.489-.677-.642 0-1.167-.45-1.167-1 0-1.621 1.731-1.143 2.427.67.352.919.127 1.987-.5 2.375-.66.408-.855 1.607-.462 2.845.373 1.176 1.066 1.9 1.538 1.608s1.141-.073 1.487.486c.345.559.166 1.016-.4 1.016-.565 0-.764.686-.442 1.526.481 1.254.861 1.298 2.133.25 1.359-1.121 1.405-1.011.383.909-.84 1.575-.871 2.955-.114 4.947.578 1.519 1.295 5.717 1.595 9.328 1.874 22.608-12.458 43.968-34.345 51.189-7.061 2.329-22.152 2.52-28.281.358-2.327-.821-4.634-1.245-5.125-.941-.492.304-.894.145-.894-.353s-2.362-.09-5.25.908c-7.556 2.61-21.895 2.525-29.918-.178-11.867-3.997-23.947-14.273-28.723-24.434-5.824-12.391-6.617-28.074-2.022-40.009 1.27-3.3 2.413-6.61 2.538-7.355.126-.745 1.143-1.994 2.26-2.777 1.276-.893 1.798-2.032 1.403-3.059-.402-1.048-.232-1.392.473-.957 1.324.819 2.739-1.125 2.739-3.764 0-1.051.634-2.125 1.409-2.386.97-.327 1.214.035.782 1.162-.883 2.3.022 2.04 1.317-.378.809-1.512.776-1.949-.133-1.75-1.373.299-3.838-3.843-3.86-6.486-.008-.962-.408-1.75-.888-1.75s-1.155-2.25-1.5-5l-1.254-10c-.345-2.75-1.02-5-1.5-5s-.918-2.812-.973-6.25c-.074-4.645-.305-5.608-.9-3.75s-.826.895-.9-3.75L35 0H0zm.481.495c0 55 .121 77.647.269 50.326.148-27.32.148-72.32 0-100C.602 23.147.481 45.5.481 100.5M170.667 6.667c-.367.366-.667 1.131-.667 1.7 0 .626.466.567 1.183-.15.651-.651.951-1.416.667-1.7s-.817-.217-1.183.15M51 45.559c0 .857.45 1.281 1 .941s1-1.041 1-1.559S52.55 44 52 44s-1 .702-1 1.559m102.45 4.303c.124.841.759 1.633 1.412 1.759.712.137.76.02.121-.293-.732-.359-.745-.91-.041-1.759.73-.879.63-1.236-.345-1.236-.754 0-1.27.688-1.147 1.529m4.057 3.127c-.35.566.051.734.941.393 1.732-.665 2.049-1.382.611-1.382-.518 0-1.216.445-1.552.989M36 56.378c0 .207.788.995 1.75 1.75 1.586 1.243 1.621 1.208.378-.378C36.821 56.084 36 55.555 36 56.378m55.079 13.205c.048 1.165.285 1.402.604.605.289-.722.253-1.585-.079-1.917s-.568.258-.525 1.312M98 77.307c0 .446-.52.49-1.155.098-.738-.457-.882-.273-.398.509.415.672 1.497.923 2.404.558.907-.366 2.198-.759 2.87-.873 2.563-.436 2.066-1.18-.763-1.143-1.627.022-2.958.405-2.958.851m3 3.193c0 .825-.675 1.5-1.5 1.5s-1.5.466-1.5 1.035c0 .702.644.691 2-.035 1.738-.93 2.89-4 1.5-4-.275 0-.5.675-.5 1.5M99 86c0 .55.45 1 1 1s1-.45 1-1-.45-1-1-1-1 .45-1 1m-1 7.804c0 .523.67 1.507 1.489 2.187s1.226 1.662.904 2.182c-.322.521-1.16.161-1.862-.8-1.186-1.622-1.329-1.584-2.003.539-.399 1.257-1.581 3.141-2.627 4.187-1.045 1.045-1.933 2.914-1.971 4.151-.056 1.788-.21 1.907-.75.581-.629-1.545-.844-1.536-2.869.11-1.71 1.391-1.929 2.057-1 3.042.951 1.01.765 1.044-.93.175-1.165-.598-2.361-.845-2.658-.548-1.009 1.01-4.207 1.237-18.473 1.313L51 111v13l16.75-.014c16.676-.013 21.67-.497 20.737-2.006-.269-.437.399-.561 1.486-.277C94.104 122.784 109 111.43 109 107.201c0-2.267-2.302-4.53-3.502-3.442-.45.407-.561.286-.247-.27.905-1.601-1.921-4.808-3.434-3.897-1.064.64-1.078.497-.076-.742.683-.844.908-1.868.5-2.275-.407-.408-.741-1.261-.741-1.895s-.787-1.304-1.75-1.49-1.75.091-1.75.614M114.815 116c-2.373 3.025-4.44 5.763-4.593 6.083-.464.975 1.593 1.137 20.028 1.58l17.75.426v-12.986l-14.435-.302-14.435-.301zm3.749-2.293c-.542 1.425-.428 1.54.56.56.684-.679.991-1.486.683-1.793-.308-.308-.867.247-1.243 1.233M162 149.327c0 1.987-.414 2.266-2.839 1.91-1.736-.255-3.456.201-4.428 1.173-1.944 1.944-2.733 2.014-2.733.242 0-.812-1.193-1.382-3-1.433-2.931-.083-3 .026-3 4.741 0 3.282.462 5.003 1.443 5.38 1.068.41 1.522-.405 1.75-3.143.389-4.682 2.282-4.763 4.56-.197 1.57 3.146 2.177 3.509 5.997 3.592l4.25.093v-7.343c0-4.228-.424-7.342-1-7.342-.55 0-1 1.047-1 2.327m-126 5.805v7.131l4.078-.547c5.243-.703 7.922-3.143 7.922-7.216 0-4.291-2.661-6.5-7.829-6.5H36zm62-5.715c0 .779-.562 1.679-1.25 2-1 .466-1 .7 0 1.166.688.321 1.25 2.316 1.25 4.433 0 2.965.457 3.994 1.991 4.481 2.147.682 4.009-.041 4.009-1.556 0-.518-.9-.941-2-.941-1.556 0-2-.667-2-3q0-3 1.5-3c.825 0 1.5-.45 1.5-1s-.675-1-1.5-1-1.5-.675-1.5-1.5-.45-1.5-1-1.5-1 .637-1 1.417M38 154.5c0 4.029.241 4.5 2.3 4.5 2.92 0 4.7-1.767 4.7-4.665 0-2.29-2.563-4.335-5.434-4.335-1.189 0-1.566 1.083-1.566 4.5m87.562-2.568c-2.319 2.562-2.017 7.754.531 9.118 2.59 1.386 6.907.421 6.907-1.544 0-1.083-.765-1.303-2.985-.859-2.218.444-3.145.177-3.611-1.038-.97-2.525 1.409-4.694 4.341-3.958 1.844.463 2.397.274 2.07-.705-.768-2.305-5.488-2.965-7.253-1.014M51.2 152.2c-.66.66-1.2 2.669-1.2 4.465 0 3.789 2.782 5.858 6.593 4.901C59.986 160.715 59.589 159 56 159c-1.65 0-3-.368-3-.818s1.575-.694 3.5-.542c3.048.24 3.5-.016 3.5-1.982 0-2.98-1.802-4.658-5-4.658-1.43 0-3.14.54-3.8 1.2m12.06-.001c-3.779 4.595-.262 10.771 5.333 9.367 3.693-.927 3.151-3.665-.578-2.919-2.218.444-3.145.177-3.611-1.038-.97-2.525 1.409-4.694 4.341-3.958 1.882.472 2.401.281 2.058-.76-.604-1.838-6.181-2.349-7.543-.692m10.74.086c-4.539 3.698-.242 10.745 5.65 9.267 1.954-.491 2.326-1.052 1.8-2.711-.446-1.402-.3-1.866.443-1.407 1.526.943 1.444-3.697-.093-5.234-1.539-1.539-5.864-1.492-7.8.085m11 4.298c0 6.579 2.19 7.191 3 .839.672-5.269 3.31-5.361 4-.139.659 4.984 2.416 5.232 2.815.397.406-4.94-1.14-6.68-5.937-6.68H85zm20-.016c0 4.163.351 5.433 1.5 5.433 1.05 0 1.5-1.059 1.5-3.531 0-2.217.559-3.746 1.5-4.107 2.613-1.003 1.634-3.054-1.5-3.143-2.976-.085-3-.041-3 5.348m8.667-4.9c-1.435 1.434-.551 2.342 1.724 1.771 1.315-.33 2.691-.114 3.059.481.393.635-.147 1.081-1.309 1.081-3.242 0-5.141 1.103-5.141 2.985 0 2.642 2.29 4.048 6.102 3.745 3.019-.24 3.433-.625 3.708-3.454.443-4.547-1.312-7.276-4.679-7.276-1.538 0-3.098.3-3.464.667M135.5 152c-.686 1.111-.069 1.308 3.25 1.039 1.238-.1 2.25.3 2.25.889 0 .59-1.07 1.072-2.378 1.072-3.213 0-5.353 2.621-3.946 4.834.7 1.101 2.376 1.652 4.942 1.625 3.761-.039 3.892-.159 4.197-3.82.173-2.078-.22-4.422-.873-5.209-1.355-1.633-6.514-1.931-7.442-.43M53 154c-1.169.755-.893.973 1.25.985 1.513.008 2.75-.435 2.75-.985 0-1.264-2.043-1.264-4 0m22.5 0c-.352.569.509 1 2 1s2.352-.431 2-1c-.34-.55-1.24-1-2-1s-1.66.45-2 1m81.652-.115c-1.973 1.25-.975 4.566 1.481 4.918 2.507.359 3.928-2.422 2.262-4.43-1.318-1.588-1.89-1.663-3.743-.488M76 158.088c0 .502.975.912 2.167.912s1.853-.313 1.471-.696c-1.081-1.08-3.638-1.232-3.638-.216m39-.147c0 1.732 1.76 2.053 3.009.548 1.029-1.239.88-1.489-.887-1.489-1.167 0-2.122.423-2.122.941m22-.108c0 1.409 1.126 2.056 2.598 1.491 2.087-.801 1.695-2.324-.598-2.324-1.1 0-2 .375-2 .833"/><path fill-opacity=".445" fill-rule="evenodd" d="M0 100.005V200.01l100.25-.255 100.25-.255.255-99.922c.14-54.956-.004-99.662-.32-99.346s-.599 23.793-.628 52.171c-.045 43.114-.28 51.597-1.43 51.597-.85 0-1.377 1.101-1.377 2.875 0 4.966-1.196 9.125-2.625 9.125-1.014 0-1.375 1.576-1.375 6 0 4.462.357 6 1.393 6 2.073 0 2.865 2.811 2.648 9.394-.107 3.241.222 6.166.731 6.5s1.165 3.306 1.459 6.606c.293 3.3.33 4.988.082 3.752-.269-1.34-1.434-2.495-2.882-2.859-2.296-.576-2.431-1.014-2.431-7.879 0-5.241-.418-7.616-1.5-8.514-1.652-1.371-1.695-1.257-1.692 4.5l.002 4-.655-4c-.527-3.22-1.028-3.935-2.569-3.669-1.052.183-3.038-.267-4.413-1-1.976-1.052-2.588-1.069-2.92-.081-.231.688-1.057 1.25-1.836 1.25s-1.417.791-1.417 1.757c0 1.455-.817 1.726-4.75 1.576-2.613-.099-3.738.041-2.5.313 1.238.271 2.25.814 2.25 1.205 0 1.141-8.831 3.428-10.606 2.747-1.185-.455-1.453-.195-1.005.972.336.877.611 1.782.611 2.012s.927.418 2.059.418 1.784-.445 1.448-.989c-.35-.566.051-.734.941-.393.854.328 1.552.098 1.552-.511 0-.625 1.742-1.107 4-1.107 2.975 0 4 .404 4 1.576 0 1.218-.9 1.512-3.957 1.291-4.452-.321-5.258.162-5.64 3.381a596 596 0 0 1-.751 5.927c-.348 2.653-.071 3.834.996 4.243.813.313 1.169 1.069.79 1.682-.483.782-.944.709-1.548-.243-.708-1.118-.862-1.102-.875.093-.012 1.128-.282 1.183-1.215.25-1.732-1.732-3.119-1.475-2.384.441.527 1.373.38 1.435-.893.378-1.216-1.009-1.825-1.013-3.023-.019-1.178.978-1.5.981-1.5.015 0-.7-.668-.973-1.552-.633-.944.362-1.296.181-.899-.462.359-.581 1.382-.777 2.272-.435.89.341 1.263.266.83-.168-.434-.433-2.22-.847-3.97-.919-1.75-.071-2.618.072-1.931.319s1.243 1.2 1.235 2.116c-.011 1.171-.246 1.305-.789.449-.974-1.532-10.421-1.456-11.431.092q-.733 1.123-.765-.374c-.025-1.245-.18-1.265-.906-.118-.688 1.086-1.02.925-1.552-.75-.723-2.277-2.033-2.765-3.042-1.132-.972 1.572-5.656 1.169-7.677-.661-1.01-.913-2.121-1.374-2.471-1.025-.349.35.441 1.574 1.756 2.72l2.392 2.085-2.74-1.668c-2.5-1.522-2.793-1.527-3.355-.065-.338.881-1.025 1.349-1.526 1.039s-.593-1.095-.203-1.744c.462-.772.158-.736-.879.104-1.976 1.601-4.089 1.219-4.964-.897-1.002-2.424-4.833-3.151-4.833-.917 0 .981-.596 2.278-1.324 2.883-1.505 1.249-8.497 1.245-9.27-.006-.28-.454.262-.529 1.206-.167 1.167.448 1.484.283.991-.515-.834-1.349-5.694-.469-6.838 1.238-.418.623-.741.096-.75-1.224-.012-1.83-.49-2.252-2.265-1.999-1.425.203-2.199.962-2.111 2.069.19 2.394-1.357 2.213-2.139-.25-.349-1.1-1.081-2-1.626-2-.546 0-.76-.375-.477-.833.283-.459-.116-.834-.887-.834-1.043 0-1.154.464-.433 1.811.769 1.437.653 1.69-.565 1.222-1.145-.439-1.381-.116-.929 1.273.348 1.068.246 1.435-.239.861-1.177-1.395-6.63-3.238-8.114-2.743-.677.225-1.266 1.16-1.309 2.076-.049 1.04-.269 1.197-.583.417-.278-.687-1.169-1.25-1.98-1.25-.812 0-1.215.423-.895.939.319.517-.28.875-1.332.796-1.237-.093-1.714-.659-1.351-1.604.344-.896.136-1.197-.538-.781-1.211.749-2.349-2.013-2.655-6.443-.164-2.36.273-2.937 2.608-3.45 1.543-.339 2.805-1.285 2.805-2.104 0-1.068-.635-1.305-2.25-.841-6.046 1.738-5.766 1.817-5.113-1.449.533-2.665.331-3.063-1.557-3.063-1.194 0-3.299-1.128-4.678-2.507-2.147-2.147-2.823-2.339-4.705-1.336-1.967 1.048-2.057 1.001-.861-.449 1.476-1.79.798-3.708-1.31-3.708-.746 0-2.631-1.35-4.188-3s-3.298-3-3.869-3C37.03 130 34 124.64 34 122.096c0-1.153-.45-2.096-1-2.096s-1-.9-1-2-.635-2-1.412-2c-.868 0-1.673-1.541-2.088-4-.384-2.27-1.238-4-1.977-4-1.477 0-2.988-6.439-1.917-8.172.432-.698.258-.862-.451-.423-.73.451-1.155-.044-1.155-1.346C23 96.927 22.55 96 22 96c-.575 0-1.058-3.507-1.136-8.25-.075-4.537-.331-7.237-.57-6S19.506 84 19.073 84C18.24 84 17 74.343 17 67.853c0-2.119-.386-3.853-.857-3.853-.983 0-2.084-14.175-2.681-34.5-.226-7.7-.694-17.487-1.04-21.75L11.792 0H0zm.481.495c0 55 .121 77.647.269 50.326.148-27.32.148-72.32 0-100C.602 23.147.481 45.5.481 100.5M16.272 56c0 2.475.195 3.487.434 2.25.238-1.237.238-3.263 0-4.5-.239-1.237-.434-.225-.434 2.25m2.886 34c0 1.375.227 1.938.504 1.25.278-.687.278-1.812 0-2.5-.277-.687-.504-.125-.504 1.25m175.921 11.583c.048 1.165.285 1.402.604.605.289-.722.253-1.585-.079-1.917s-.568.258-.525 1.312M23.158 106c0 1.375.227 1.938.504 1.25.278-.687.278-1.812 0-2.5-.277-.687-.504-.125-.504 1.25m37.406 28.707c-.542 1.425-.428 1.54.56.56.684-.679.991-1.486.683-1.793-.308-.308-.867.247-1.243 1.233m119.116 6.409c-.315 1.206.043 2.224.898 2.552.843.324 1.422 1.928 1.422 3.939 0 1.866.45 3.393 1 3.393s1-2.142 1-4.759c0-3.591-.466-5.051-1.898-5.945-1.604-1.002-1.979-.875-2.422.82M52 144.969c0 .532.675.709 1.5.393.825-.317 1.5-.753 1.5-.969s-.675-.393-1.5-.393-1.5.436-1.5.969m102 .036c0 1.585-2.617 4.045-3.434 3.228-.369-.37-.375.102-.012 1.047.722 1.882 2.97 2.299 3.939.731.363-.587-.086-.721-1.105-.33-1.164.447-1.484.283-.993-.511 1.016-1.644 3.281-1.456 3.967.33 1.101 2.871 3.343 1.659 3.238-1.75-.085-2.772-.504-3.297-2.85-3.566-1.574-.182-2.75.17-2.75.821M188.272 148c0 2.475.195 3.488.434 2.25.238-1.238.238-3.262 0-4.5-.239-1.238-.434-.225-.434 2.25M36 154.895v6.895l3.916.373c2.154.206 3.731.075 3.506-.29s.312-.941 1.195-1.28c1.164-.446 1.441-.186 1.006.948-.33.859-.194 1.312.303 1.005s1.149.007 1.449.698.296.044-.009-1.437-.197-3.272.24-3.978c2.872-4.648-.955-9.829-7.261-9.829H36zm16.182-4.395c-.627 1.375-1.56 2.5-2.073 2.5-.856 0-.444 5.963.476 6.908.219.224-.161 1.124-.844 2-1.063 1.364-1.018 1.419.311.384 1.631-1.27 6.282-.641 5.432.734-.612.99 1.541.714 3.378-.432.858-.536 1.685-.34 2.234.528.574.906.879.97.889.187.024-1.887-1.936-2.594-3.529-1.273-.924.768-1.456.824-1.456.154 0-.58.788-1.305 1.75-1.611 1.204-.382 1.778-1.653 1.839-4.067.049-1.932-.315-3.512-.809-3.512s-.613-.461-.265-1.025c.349-.563.263-.96-.191-.881-.453.078-2.047.09-3.543.024-1.98-.086-2.562-.525-2.143-1.618.959-2.499-.236-1.678-1.456 1m18.866-1.551c-.799.506-1.924.637-2.5.293s-.407.164.377 1.129c1.281 1.579 1.514 1.596 2.311.171.488-.871 1.379-1.28 1.98-.909.655.405.807.214.379-.478-.846-1.37-.722-1.36-2.547-.206m2.702 1.218c-1.481 1.551-1.514 1.833-.219 1.833.843 0 1.798-.694 2.124-1.543.867-2.261.089-2.379-1.905-.29m3.329-.584c.048 1.165.285 1.402.604.605.289-.722.253-1.585-.079-1.917s-.568.258-.525 1.312m5.513-.218c.608 1.597.364 1.764-1.691 1.158l-2.401-.708 2.25 1.649c1.237.907 2.25 2.524 2.25 3.593s.431 1.943.958 1.943c1.348 0 .662-6.781-.837-8.269-.984-.977-1.093-.846-.529.634m7.487-.115c-.043.963.57 1.75 1.364 1.75s2.032.787 2.75 1.75c1.411 1.889 3.807 2.777 3.807 1.411 0-.462-1.125-1.353-2.5-1.979s-2.5-1.625-2.5-2.22c0-.614.539-.743 1.25-.299 1.848 1.155 3.846 1.301 3.186.233-.316-.511-.955-.693-1.42-.406s-1.035-.043-1.268-.734c-.337-1-.741-.993-1.988.036-1.279 1.055-1.66 1.055-2.084 0-.329-.822-.547-.655-.597.458m18.921.309c0 .857.457 1.276 1.016.931.559-.346.758-1.047.441-1.559-.857-1.387-1.457-1.129-1.457.628m8.872.191c-1.243 1.586-1.208 1.621.378.378.963-.755 1.75-1.543 1.75-1.75 0-.823-.821-.294-2.128 1.372m12.378-1.088c-1.43.577-1.699 2.338-.357 2.338.491 0 1.152-.675 1.469-1.5.316-.825.477-1.464.357-1.421-.121.043-.781.306-1.469.583m11.325 1.005c-.247.642.198 1.416.988 1.719.92.353 1.437 2 1.437 4.583 0 2.217.45 4.031 1 4.031s1-1.752 1-3.893c0-2.782-.499-4.087-1.75-4.572-1.537-.597-1.448-.842.731-2.016l2.48-1.336-2.719.158c-1.495.088-2.92.684-3.167 1.326m6.44-.476c-.008.93.435 1.969.985 2.309 1.266.782 1.266-.542 0-2.5-.835-1.293-.971-1.266-.985.191m8.985-.132c0 .582.45.781 1 .441s1-.816 1-1.059-.45-.441-1-.441-1 .477-1 1.059m-21.75.664c-3.934.489-4.023 1.191-.469 3.681 1.496 1.047 2.145 1.283 1.443.524-1.048-1.133-.869-1.694 1-3.132 1.252-.963 2.051-1.69 1.776-1.614s-1.963.32-3.75.541m-96 .939c-.713.288-1.25 2.255-1.25 4.576 0 3.869.09 3.99 1.814 2.431 1.399-1.266 2.085-1.37 3-.455s1.212.855 1.301-.264c.429-5.403-1.352-7.705-4.865-6.288M125 151c-.901.582-1.025.975-.309.985.655.008 1.469-.435 1.809-.985.767-1.242.421-1.242-1.5 0m41.5 0c-.34.55-.141 1 .441 1s1.059-.45 1.059-1-.198-1-.441-1-.719.45-1.059 1m-62.502.5c-.129.55-.199 1.285-.156 1.632.044.348-.643.573-1.526.5-1.017-.083-1.679.747-1.805 2.264-.174 2.099-.049 2.193 1.006.75 1.872-2.56 2.483-1.981 2.483 2.354 0 2.2.341 4 .757 4 .417 0 .62-2.137.451-4.75-.345-5.36-.861-8.239-1.21-6.75m79.815 1.183c.721.289 1.584.253 1.916-.079s-.258-.568-1.312-.525c-1.165.048-1.402.285-.604.604M53 154c-1.213.784-1.069.972.75.985 1.237.008 2.25-.435 2.25-.985 0-1.253-1.061-1.253-3 0m16.652.491c-1.752 1.752-3.082 2.014-2.093.413.421-.681-.03-.96-1.191-.736-2.5.481-2.437 4.058.078 4.427 2.189.321 7.184-4.088 5.682-5.016-.532-.328-1.646.082-2.476.912m18.986.009c-.316.825-.139 1.5.393 1.5.533 0 .969-.477.969-1.059s.52-.738 1.155-.346c.715.443.883.275.44-.44-.985-1.595-2.27-1.445-2.957.345M117 154c0 .55.477 1 1.059 1s.781-.45.441-1-.816-1-1.059-1-.441.45-.441 1m11.52.032c.287.465-.275 1.309-1.249 1.876-1.674.974-1.675 1.033-.021 1.062.963.016 1.75-.468 1.75-1.077s.675-.848 1.5-.531 1.5.192 1.5-.277c0-.468-.901-1.087-2.001-1.375-1.101-.288-1.767-.143-1.479.322m29.48-.115c0 .504.563 1.143 1.25 1.421.688.277.2.54-1.083.583-2.583.087-2.526 2.262.068 2.643 1.862.273 2.975-1.853 2.127-4.064-.628-1.634-2.362-2.063-2.362-.583M122.5 155c.34.55.816 1 1.059 1s.441-.45.441-1-.477-1-1.059-1-.781.45-.441 1m28.5-.141c0 1.873 1.221 4.141 2.229 4.141.639 0 .602-.498-.098-1.342-.612-.738-.863-1.593-.556-1.9s.078-.854-.508-1.217c-.587-.362-1.067-.219-1.067.318m-59.921 2.724c.048 1.165.285 1.402.604.605.289-.722.253-1.585-.079-1.917s-.568.258-.525 1.312m37.407.051c-1.752 1.281-1.6 1.376 1.799 1.132 2.041-.146 3.575-.677 3.409-1.179-.491-1.481-3.151-1.457-5.208.047M40.5 158c-.34.55-.141 1 .441 1S42 158.55 42 158s-.198-1-.441-1-.719.45-1.059 1m30.579.583c.048 1.165.285 1.402.604.605.289-.722.253-1.585-.079-1.917s-.568.258-.525 1.312M96 158.5c0 .825.177 1.5.393 1.5s.652-.675.969-1.5.139-1.5-.393-1.5c-.533 0-.969.675-.969 1.5m19-.559c0 .518.445 1.216.989 1.552.566.35.734-.051.393-.941-.665-1.732-1.382-2.049-1.382-.611m22 0c0 .518.445 1.216.989 1.552.566.35.734-.051.393-.941-.665-1.732-1.382-2.049-1.382-.611m2.5.059c.34.55.816 1 1.059 1s.441-.45.441-1-.477-1-1.059-1-.781.45-.441 1m58.5 4c0 1.1.45 2 1 2s1-.9 1-2-.45-2-1-2-1 .9-1 2m-65.362.5c-.316.825-.139 1.5.393 1.5.533 0 .969-.675.969-1.5s-.177-1.5-.393-1.5-.652.675-.969 1.5"/></svg>