<svg xmlns="http://www.w3.org/2000/svg" width="200" height="200" fill="#000000"><path fill-opacity=".275" fill-rule="evenodd" d="M37 100.025v63.025l16.25-.275 16.25-.275.26-46.25.26-46.25 16.74.002 16.74.002 13.25 15.722L130 101.448V130H89v33h74V90.002l-22.25-26.431L118.5 37.14l-40.75-.07L37 37z"/><path fill-opacity=".151" fill-rule="evenodd" d="M37 100v62h32V70h34.758l13.621 16.112L131 102.224V130H89v32h74V90.417l-22.166-26.209L118.668 38H37z"/><path fill-opacity=".204" fill-rule="evenodd" d="M38 100v62h31V70h34.878l13.561 15.928L131 101.857V130H89v32h73l-.007-36.25-.008-36.25-21.742-25.745L118.5 38.01l-40.25-.005L38 38z"/><path fill-opacity=".232" fill-rule="evenodd" d="M38 100v62h31V69l17.25.021 17.25.021 13.716 16.229 13.715 16.229.035 14.75L131 131H89v31h73l-.04-36.25-.039-36.25-21.711-25.694-21.71-25.695-40.25-.055L38 38z"/></svg>