<svg xmlns="http://www.w3.org/2000/svg" width="200" height="200" fill="#000000"><path fill-opacity=".118" fill-rule="evenodd" d="M128.778 28.207c-4.259 2.068-73.625 58.707-81.308 66.389-5.726 5.727-6.506 16.346-1.531 20.849 3.099 2.805 9.069 4.464 16.229 4.511 7.924.052 9.832.647 9.832 3.066 0 .994-3.837 8.312-8.526 16.264-9.859 16.718-11.777 22.782-9.159 28.97 2.504 5.922 11.01 7.684 18.475 3.827 3.747-1.936 32.238-25.732 63.97-53.427C154.688 103.008 158 98.876 158 92.152c0-9.164-6.164-14.089-17.685-14.13-6.661-.024-11.315-1.295-11.315-3.091 0-.615 3.793-7.263 8.429-14.774 9.304-15.073 11.449-20.966 9.634-26.465-1.567-4.748-4.222-6.853-9.272-7.353-3.092-.306-5.61.216-9.013 1.868"/><path fill-opacity=".106" fill-rule="evenodd" d="M129.67 31.992c-4.486 2.24-8.581 5.499-47.17 37.549-15.95 13.247-30.419 25.711-32.154 27.698-3.858 4.418-4.956 8.724-3.168 12.425 2.276 4.709 6.713 6.464 17.905 7.08 10.505.579 13.384 1.766 12.218 5.035-.337.947-4.397 8.161-9.023 16.031-11.717 19.94-13.15 24.54-9.205 29.555 2.453 3.119 7.248 3.526 12.45 1.057 4.024-1.91 52.854-42.98 75.045-63.119C150.991 101.289 154 95.9 154 91.995 154 84.402 147.965 81 134.491 81c-7.279 0-10.496-1.162-10.481-3.785.005-.943 4.05-8.399 8.989-16.569s9.448-16.591 10.019-18.713c2.63-9.766-3.923-14.647-13.348-9.941M89.854 75.075c-25.996 22.17-27.401 23.561-25.77 25.526.638.769 2.028 1.399 3.088 1.399 2.444 0 47.604-44.402 46.103-45.33-.587-.363-11.126 7.919-23.421 18.405m12.513 29.691c-1.089.705-22.841 33.417-25.218 37.923-1.6 3.035.128 3.723 2.588 1.03 1.115-1.22 7.501-9.609 14.192-18.642 7.804-10.536 12.058-17.14 11.868-18.422-.332-2.232-1.72-2.996-3.43-1.889"/><path fill-opacity=".07" fill-rule="evenodd" d="M132.734 33.004c-1.522.457-5.122 2.524-8 4.592-7.378 5.3-67.137 54.888-71.251 59.124-10.527 10.839-4.692 17.998 14.833 18.2 8.835.091 11.692 1.16 11.666 4.365-.019 2.301-.966 4.124-12.693 24.443-7.451 12.909-8.963 17.37-7.336 21.649 1.256 3.303 5.574 3.534 11.481.612 6.764-3.345 75.365-62.31 78.62-67.577 2.875-4.651 2.331-10.055-1.283-12.742-2.201-1.636-4.832-2.139-13.599-2.6C124.068 82.488 121 81.414 121 78.109c0-.906 3.205-6.813 7.122-13.128C138.163 48.793 141 42.922 141 38.326c0-5.94-1.977-7.213-8.266-5.322m1.276 3.757c-1.92 1.506-15.645 12.801-30.5 25.098a41520 41520 0 0 1-38.696 32c-6.428 5.303-11.715 9.888-11.75 10.19s1.398.429 3.186.282c1.788-.146 11.285-.437 21.106-.647l17.856-.38-.52 3.098c-.285 1.704-7.777 15.19-16.648 29.97s-15.998 27.202-15.837 27.604c.315.788 24.498-20.546 60.983-53.797L145.881 89.5l-22.191-.621c-12.204-.341-22.302-.679-22.44-.75-1.072-.553.594-3.715 5.337-10.129 3.051-4.125 11.236-15.375 18.189-25s13.11-17.831 13.683-18.235c.655-.462.671-.736.041-.739-.55-.002-2.571 1.229-4.49 2.735"/><path fill-opacity=".23" fill-rule="evenodd" d="M129.5 37.167c-4.861 2.526-5.337 2.904-44 34.923C58.757 94.237 51 101.508 51 104.428c0 .34 7.987-6.046 17.75-14.192a27300 27300 0 0 1 42.097-35.024c13.39-11.116 23.965-20.192 23.5-20.168-.466.025-2.647.98-4.847 2.123m-6.381 25.808C114.803 76.214 108 87.26 108 87.523s9.112.463 20.25.447c15.612-.024 19.801-.291 18.291-1.167-1.077-.625-7.335-1.446-13.907-1.824-9.938-.572-12.174-.997-13.291-2.525-.739-1.01-1.343-2.223-1.343-2.695 0-1.433 2.874-6.665 10.765-19.594 6.917-11.335 10.935-19.798 9.893-20.84-.231-.232-7.224 10.411-15.539 23.65M137 104.248c-6.875 6.06-25.662 22.237-41.75 35.947S66 165.311 66 165.54c0 .974 5.898-2.202 10.892-5.864 6.12-4.489 24.32-19.834 50.48-42.561 15.494-13.46 23.907-22.246 22.524-23.521-.218-.201-6.021 4.593-12.896 10.654m-83.43 5.638c-.854 1.382 3.074 2.152 13.93 2.734 12.492.669 15.5 1.694 15.5 5.282 0 1.508-3.27 8.229-7.559 15.533-8.861 15.094-11.125 19.415-13.08 24.968-1.207 3.426-1.215 3.851-.049 2.597 1.621-1.744 29.239-47.647 30.233-50.25.623-1.63-.674-1.75-18.879-1.75-10.751 0-19.794.399-20.096.886"/></svg>