<svg xmlns="http://www.w3.org/2000/svg" width="200" height="200" fill="#000000"><path fill-opacity=".482" fill-rule="evenodd" d="M0 100.005V200.01l100.25-.255 100.25-.255.255-99.75L201.01 0H0zm.481.495c0 55 .121 77.647.269 50.326.148-27.32.148-72.32 0-100C.602 23.147.481 45.5.481 100.5M68.07 60.917c-.038.779-.37 1.116-.738.749-.799-.8-11.271 4.958-13.155 7.233-.729.88-1.012.992-.628.247.554-1.075.209-1.054-1.676.102-1.305.801-6.085 3.59-10.623 6.199L33 80.19l.008 19.655.008 19.655 14.889 8.431c8.189 4.637 15.192 8.237 15.562 8 .371-.237 1.114.356 1.653 1.319s1.434 1.75 1.989 1.75.757-.408.449-.907c-.309-.498.227-.712 1.191-.475 1.982.489 9.376-3.71 7.607-4.319-.629-.217-1.031-1.161-.893-2.097s.049-1.098-.198-.359c-.254.762-1.272 1.127-2.355.844-2.217-.58-3.596 1.027-2.136 2.487q1 1 1.672-.087c.861-1.392 2.554-1.411 2.554-.028 0 .582-.45.781-1 .441s-1-.19-1 .334-.698 1.22-1.552 1.548c-.854.327-1.308.201-1.011-.28.748-1.21-2.109-3.423-3.393-2.629-.574.355-1.044.18-1.044-.388 0-1.737-5.546-4.139-6.758-2.927-.74.74-1.009.593-.899-.493.086-.851-.243-1.536-.731-1.521-.489.015-1.164-.394-1.5-.909-1.061-1.624-8.864-6.149-9.502-5.512-.336.336-.61.059-.61-.615s-.337-1.032-.75-.795-1.65-.447-2.75-1.52-1.55-1.813-1-1.646c1.335.408 11.5-5.219 11.5-6.365 0-.495.399-.653.887-.352.487.301 1.406-.078 2.041-.843s2.285-1.675 3.668-2.022c2.145-.538 2.444-1.075 2.037-3.655-.397-2.518-.24-2.829.934-1.854.776.644 1.117 1.646.758 2.227-.43.696 0 .784 1.261.258 1.053-.44 2.692-.882 3.644-.983.951-.101 2.076-.565 2.5-1.031s.283-.57-.313-.231-1.084-.032-1.084-.824c0-.99.368-1.135 1.176-.465.646.537 1.495.656 1.886.265s.385.137-.012 1.173c-.545 1.42-.393 1.68.617 1.055.965-.596 1.17-.386.733.753-.334.87-.073 1.785.58 2.035.737.281 1.229-.666 1.298-2.501.061-1.625-.214-2.429-.612-1.786-.467.756-.923.397-1.293-1.017-.317-1.212-1.047-1.891-1.639-1.526-1.252.774-1.203 1.426-1.069-14.294.069-8.117-.296-12.819-1.069-13.75-.909-1.094-.883-1.414.115-1.414.709 0 .996-.293.638-.651-1.211-1.211 2.702-3.275 4.065-2.144 1.627 1.35 1.629 3.126.003 2.207-.97-.547-.984-.418-.064.577 1.822 1.971 4.812-1.303 3.402-3.725-.808-1.388-1.041-1.444-1.091-.264-.045 1.067-.631.819-2.03-.861-1.196-1.436-1.981-1.827-2.002-1-.02.749-.679.236-1.465-1.139-.903-1.579-1.468-1.947-1.535-1-.072 1.024-.379.865-.965-.5-.508-1.181-.888-1.42-.93-.583m-6.057 8.531c-1.369.757-2.901 1.121-3.405.81-.504-.312-.625-.095-.268.483.779 1.26-2.076 2.54-3.585 1.608-.614-.38-.772-.186-.374.458.415.673-1.014 1.986-3.596 3.303-2.357 1.202-4.296 2.007-4.308 1.788-.013-.219-1.111.615-2.439 1.852S41.033 82 40.311 82C39.286 82 39 85.379 39 97.5c0 12.706.255 15.5 1.417 15.5.779 0 1.566-.361 1.75-.803.5-1.206 12.941-8.53 14.488-8.53.74 0 1.345-.278 1.345-.618 0-1.036 6.164-4.329 8.315-4.443 1.11-.058 2.135-.68 2.277-1.381s.038-.839-.232-.306c-.269.533-1.023.763-1.675.512-.845-.325-1.153-4.609-1.073-14.944.061-7.968-.164-14.471-.5-14.452-.337.02-1.731.655-3.099 1.413m20.718.632c.354 1.352.807 1.806 1.057 1.057.24-.722-.038-1.787-.62-2.369-.742-.742-.872-.351-.437 1.312M78 71.059c0 .582.45.781 1 .441s1-.816 1-1.059S79.55 70 79 70s-1 .477-1 1.059m2.564.648c-.542 1.425-.428 1.54.56.56.684-.679.991-1.486.683-1.793-.308-.308-.867.247-1.243 1.233m-17.481 28.576c.23.156 1.317.943 2.417 1.75 1.85 1.357 1.897 1.336.628-.283-.755-.963-1.843-1.75-2.417-1.75s-.857.127-.628.283m14.219 5.162c1.144 1.144 2.152 1.304 3.872.614 1.279-.513 1.876-.998 1.326-1.078s-2.292-.356-3.872-.614c-2.591-.422-2.721-.317-1.326 1.078m6.365 1.222c-.367.366-.653 1.379-.637 2.25.025 1.3.221 1.257 1.092-.242 1.077-1.852.765-3.228-.455-2.008M79 108c-1.297.838-1.275.971.167.985.916.008 1.883.578 2.148 1.265.265.688.431.237.37-1-.123-2.496-.492-2.667-2.685-1.25m8.603 3.833c-.283.459.14.834.941.834s1.456-.375 1.456-.834-.423-.833-.941-.833-1.173.375-1.456.833m-6.588 14.858c.009.445.452 1.484.985 2.309.835 1.293.971 1.266.985-.191.008-.93-.435-1.969-.985-2.309s-.993-.254-.985.191m-3.442 1.191c-.333.539-.141 1.267.427 1.618s.793 1.026.5 1.5-.126 1.113.37 1.42 1.132-.321 1.413-1.394c.563-2.152-1.701-4.777-2.71-3.144"/><path fill-opacity=".145" fill-rule="evenodd" d="M0 100.005V200.01l100.25-.255 100.25-.255.255-99.75L201.01 0H0zm.481.495c0 55 .121 77.647.269 50.326.148-27.32.148-72.32 0-100C.602 23.147.481 45.5.481 100.5M50.5 69.927l-17 9.863-.246 19.855-.245 19.855 16.967 9.75c9.333 5.363 17.543 9.73 18.246 9.705 1.783-.063 15.916-8.484 15.289-9.11-.281-.282.051-.513.739-.515s4.554-1.878 8.593-4.169l7.343-4.165 2.811 2.002c1.547 1.101 3.123 2.002 3.503 2.002s1.937.887 3.459 1.97c1.521 1.084 2.989 1.748 3.261 1.476s1.064.192 1.76 1.03 1.885 1.524 2.642 1.524c.758 0 1.378.525 1.378 1.167 0 1.885 1.05.287 1.522-2.317.301-1.658-.207-2.797-1.648-3.697-1.146-.715-1.785-.817-1.42-.227 1.182 1.911-.254 1.144-3.632-1.941-1.815-1.658-3.891-2.789-4.613-2.512s-1.052.082-.733-.434c.676-1.095-2.908-3.273-3.845-2.337-.347.347-.631.179-.631-.375 0-1.044-4.933-3.808-6.25-3.502-.412.096-.75-.227-.75-.718s-5.848-4.203-12.997-8.25L71.007 98.5l-.004-15.332L71 67.837l3.25 1.965c13.489 8.158 27.674 15.941 28.162 15.452.324-.323.588-.014.588.686 0 .717.651 1.024 1.488.703.86-.33 1.388-.059 1.25.643-.131.668.325 1.101 1.012.964.688-.138 1.257.312 1.265 1q.016 1.25.985-.25c.841-1.302.971-1.283.985.143.013 1.405 2.409 3.252 3.347 2.58.171-.123 1.098.564 2.061 1.527S118.037 95 119.13 95c1.094 0 1.713.445 1.377.989-.35.566.051.734.941.393.854-.328 1.552-.965 1.552-1.416s.787-1.025 1.75-1.277c1.346-.351 1.242-.484-.45-.573-1.21-.064-2.659-.903-3.22-1.866s-1.04-1.3-1.065-.75-.482.325-1.015-.5c-.838-1.297-.971-1.275-.985.167-.008.916.525 1.846 1.184 2.066.778.259.636.616-.401 1.014-1.218.468-1.756-.207-2.245-2.816-.578-3.08-1.475-3.917-3.803-3.549-.412.065-.75-.26-.75-.721 0-.922-5.048-3.615-6.25-3.336-1.77.412-.541-1.599 1.716-2.807 1.356-.726 2.182-1.778 1.836-2.339-.381-.616.028-.766 1.034-.38.915.351 1.664.176 1.664-.389 0-.566.382-.792.849-.504s1.918-.472 3.226-1.691c1.308-1.218 2.464-1.99 2.568-1.715s.565.125 1.024-.333c.458-.459.383-.701-.167-.538s-2.024-.272-3.276-.966c-1.927-1.068-2.695-.977-5 .59-1.498 1.019-4.749 2.893-7.224 4.165l-4.5 2.312-11.38-6.615C81.862 67.977 76.55 65 76.317 65s-2.079-1.125-4.102-2.5-3.912-2.486-4.197-2.468-8.168 4.47-17.518 9.895m78.763-6.767c-.09 1.188-.707 2.496-1.372 2.908-1.507.931-4.074.037-3.333-1.161.3-.486-.19-.602-1.09-.256-.974.373-1.219.885-.605 1.265.656.405.692 1.173.1 2.11-.63.997-.937 1.069-.948.224-.008-.687-.492-1.25-1.074-1.25s-.781.45-.441 1c.355.574-.556 1-2.141 1-2.126 0-2.487.272-1.575 1.184 1.885 1.885 5.229 1.66 6.345-.425.572-1.069 1.652-1.673 2.448-1.368.783.3 1.423.084 1.423-.481 0-.566.384-.791.854-.5.825.51 3.146-3.516 3.146-5.457 0-1.963-1.581-.865-1.737 1.207m5.28-.229c-.317.512-.193 1.167.274 1.456s.85-.13.85-.931c0-1.686-.316-1.833-1.124-.525M52 75.443l-12.5 7.362-.277 15.203-.276 15.204 6.276-3.605c3.453-1.983 9.311-5.293 13.02-7.356l6.744-3.751.006-15.25c.004-8.388-.105-15.231-.243-15.209S58.875 71.395 52 75.443M126.5 95c-.34.55.11 1 1 1s1.34-.45 1-1-.79-1-1-1-.66.45-1 1m-2.193 1.381c.106 1.034 1.149 2.513 2.316 3.287 1.906 1.264 2.176 1.208 2.634-.543.416-1.591.085-1.873-1.799-1.532-1.578.287-2.473-.137-2.826-1.337-.445-1.513-.49-1.495-.325.125m6.13 4.39c.342.341 1.324.723 2.184.85.859.126 1.283-.05.942-.392-.342-.341-1.324-.723-2.184-.85-.859-.126-1.283.05-.942.392m-74.442 9.036c-6.328 3.681-12.088 7.071-12.8 7.533-.886.574 2.831 3.204 11.79 8.339l13.084 7.499 10.508-6.13c5.78-3.372 11.642-6.561 13.026-7.087 1.385-.527 2.276-1.348 1.981-1.825-.481-.779-25.212-15.217-25.829-15.079-.14.031-5.432 3.069-11.76 6.75m65.923 18.474c-.678 1.802-.782 5.719-.152 5.719 1.234 0 3.234-2.222 3.234-3.593 0-.968-2.793-2.894-3.082-2.126m8.707.517c-.271.439-.091 1.447.399 2.241.737 1.192 1.119 1.215 2.184.131 1.058-1.075 1.02-1.255-.208-.991-.825.176-1.387-.241-1.25-.929.281-1.404-.374-1.667-1.125-.452m-8.292 1.658c0 .801.383 1.22.85.931s.591-.944.274-1.456c-.808-1.308-1.124-1.161-1.124.525m3.667 5.575c0 .533.675.969 1.5.969s1.5-.177 1.5-.393-.675-.652-1.5-.969-1.5-.139-1.5.393m4.5 1.969c-.34.55-.141 1 .441 1s1.059-.45 1.059-1-.198-1-.441-1-.719.45-1.059 1"/><path fill-opacity=".292" fill-rule="evenodd" d="M0 100.005V200.01l100.25-.255 100.25-.255.255-99.75L201.01 0H0zm.481.495c0 55 .121 77.647.269 50.326.148-27.32.148-72.32 0-100C.602 23.147.481 45.5.481 100.5M50.5 69.86l-17 9.828-.27 19.915-.27 19.915 16.875 9.741C59.117 134.616 67.299 139 68.017 139c.719 0 3.147-1.076 5.395-2.392l15.145-8.853 11.058-6.462 15.825 9.188 15.825 9.187 17.387-10.038 17.388-10.038-.27-20.017-.27-20.017-17.113-9.823-17.113-9.823-15.761 9.112-15.761 9.112-15.741-9.068c-8.658-4.987-15.914-9.061-16.126-9.052S59.85 64.455 50.5 69.86m67.819 4.019-13.041 7.57 12.611 7.267c6.936 3.997 13.021 7.271 13.523 7.275s4.327-1.976 8.5-4.402 9.491-5.464 11.817-6.75c2.326-1.287 4.289-2.765 4.363-3.286s-5.46-4.164-12.299-8.096L131.36 66.31zM51.75 75.797 39 83.2v29.99l4.25-2.463c2.337-1.355 8.011-4.637 12.607-7.293 4.596-2.655 8.547-5.323 8.779-5.927.232-.605.296-7.402.143-15.106L64.5 68.393zm19.474 7.478.276 15.19 28 16.256c15.4 8.941 28.338 16.261 28.75 16.267s.748-6.626.747-14.738l-.004-14.75-12.746-7.25a4405 4405 0 0 1-29.023-16.707l-16.276-9.458zm75.026 10.984L134 101.396v14.802c0 8.141.227 14.802.505 14.802s6.128-3.204 13-7.121l12.495-7.12v-14.88c0-8.183-.338-14.851-.75-14.818s-6.262 3.273-13 7.198m-91 16.044c-6.737 3.944-12.25 7.459-12.25 7.812 0 .352 5.616 3.877 12.479 7.834l12.479 7.193 12.521-7.209C87.366 121.969 93 118.422 93 118.051c0-.544-22.897-14.078-24.93-14.735-.314-.102-6.083 3.042-12.82 6.987"/><path fill-opacity=".787" fill-rule="evenodd" d="M0 100.005V200.01l100.25-.255 100.25-.255.255-99.75L201.01 0H0zm.481.495c0 55 .121 77.647.269 50.326.148-27.32.148-72.32 0-100C.602 23.147.481 45.5.481 100.5M54 67.54l-16.75 9.898L33 79.951v39.765l17.519 10.098 17.519 10.097 15.43-8.955c8.486-4.926 15.79-8.953 16.231-8.95.44.003 7.766 4.027 16.278 8.941l15.477 8.935 3.023-1.815c1.663-.998 9.435-5.518 17.273-10.043l14.25-8.228-.014-20.148-.015-20.148-16.584-9.5c-9.122-5.225-16.984-9.648-17.472-9.829-.488-.18-7.718 3.607-16.068 8.417s-15.668 8.739-16.264 8.73c-.596-.008-7.822-3.908-16.058-8.666s-15.437-8.617-16-8.574S60.875 63.479 54 67.54m64.827 6.24c-6.42 3.703-11.95 7.01-12.289 7.349C106.023 81.644 129.985 96 131.36 96c.431 0 24.831-13.871 25.419-14.45.374-.368-24.558-14.557-25.524-14.526-.415.013-6.008 3.054-12.428 6.756M51.25 76.175 39 83.281v29.882l3.25-1.941c1.788-1.068 7.638-4.495 13-7.615L65 97.935V83.467c0-7.957-.338-14.452-.75-14.433-.413.019-6.263 3.232-13 7.141m19.973 7.456.277 14.632 24 13.944c13.2 7.669 25.912 15.054 28.25 16.411l4.25 2.466v-29.892l-27.957-16.096C84.667 76.243 71.83 69 71.517 69c-.314 0-.446 6.584-.294 14.631m75.551 10.623-12.726 7.246-.024 14.833c-.013 8.159.324 14.684.749 14.5.426-.183 6.272-3.483 12.992-7.333l12.218-7 .008-14.75c.005-8.112-.104-14.748-.241-14.746s-5.977 3.265-12.976 7.25m-91.508 16.142c-6.729 3.907-12.241 7.347-12.25 7.643-.009.297 5.614 3.758 12.495 7.692l12.51 7.153 12.471-7.192c6.859-3.956 12.474-7.417 12.479-7.692.007-.483-8.583-5.523-19.971-11.717l-5.5-2.991zm105.606 22.296c-.932 1.15-.971 1.451-.122.941.794-.477 1.25-.161 1.25.867 0 .89.472 1.326 1.049.97.726-.449.713-1.052-.042-1.962-.801-.964-.747-1.451.201-1.832.767-.308.834-.55.164-.597-.62-.043-1.745.682-2.5 1.613M163.5 137c-1.63.701-1.688.872-.309.93.93.038 1.969-.38 2.309-.93.711-1.15.676-1.15-2 0"/></svg>