<svg xmlns="http://www.w3.org/2000/svg" width="200" height="200" fill="#000000"><path fill-opacity=".114" fill-rule="evenodd" d="M81 3.438C50.557 9.839 25.366 29.197 11.949 56.5 5.296 70.04 2.924 79.538 2.266 95.273c-1.087 26.036 5.696 47.007 21.659 66.958 11.989 14.985 31.874 27.901 50.575 32.851 10.253 2.714 30.528 3.672 41.22 1.947 31.213-5.035 58.381-25.141 72.331-53.529 6.653-13.54 9.025-23.038 9.683-38.773 1.087-26.036-5.696-47.007-21.659-66.958C164.099 22.801 144.272 9.914 125.5 4.897 115.264 2.161 90.874 1.362 81 3.438M66.493 66.007l-33.98 33.991 8.744 8.745 8.745 8.744 33.499-33.488C101.925 65.581 117 50.049 117 49.484c0-.566-3.718-4.727-8.263-9.248l-8.263-8.221zm43.814 10.243L94.137 92.5 95.64 107c.827 7.975 1.715 15.149 1.974 15.942.314.963 4.187-2.232 11.678-9.638 6.164-6.093 11.771-10.867 12.458-10.608.688.259 1.25 1.902 1.25 3.652 0 2.743-1.756 4.933-12.764 15.916C103.216 129.269 97.035 135 96.502 135c-.534 0-5.937-4.953-12.008-11.006l-11.037-11.005-6.96 7.014-6.961 7.015 20.451 20.469 20.451 20.47 22.912-23.159 22.911-23.159-.553-7.32c-.305-4.025-.213-7.319.203-7.319.415 0 2.494 1.502 4.618 3.339l3.862 3.338 6.942-6.941 6.942-6.942-19.878-19.897C137.464 68.954 128.059 60 127.498 60s-8.297 7.313-17.191 16.25"/><path fill-opacity=".482" fill-rule="evenodd" d="M81.633 3.487C71.804 5.534 65.673 7.696 56 12.526 30.286 25.367 11.47 49.064 4.302 77.637c-2.667 10.629-2.384 36.24.516 46.863 2.784 10.195 10.554 26.219 16.577 34.184 13.675 18.087 33.929 31.417 56.242 37.014 10.629 2.667 36.24 2.384 46.863-.516 10.195-2.784 26.219-10.554 34.184-16.577 13.754-10.399 26.117-26.405 32.242-41.742 5.426-13.585 6.496-19.771 6.467-37.363-.032-19.021-1.643-26.335-9.254-42-12.871-26.494-35.507-45.121-63.993-52.658-10.114-2.676-32.712-3.396-42.513-1.355M65.787 65.75 32.085 99.5l8.863 9.1 8.863 9.099 34.102-34.112 34.103-34.113-8.778-8.737C104.41 35.932 100.242 32 99.975 32S84.323 47.188 65.787 65.75m44.785 10.178L93.815 92.706l1.645 15.867c.905 8.726 1.757 15.977 1.893 16.113s5.167-4.687 11.18-10.719S119.985 103 120.619 103s1.364 1.431 1.621 3.179c.435 2.963-.381 4-12 15.25-6.856 6.639-13.15 12.228-13.987 12.42-.884.203-6.026-4.141-12.268-10.364l-10.747-10.714-7.136 7.265-7.136 7.264 16.687 17.1c9.178 9.405 18.412 18.895 20.521 21.089l3.833 3.988 23.872-23.856 23.872-23.856-.499-6.633-.499-6.632 3.638 3.46 3.638 3.461 7.486-7.436c4.117-4.089 7.485-7.703 7.485-8.031s-9.376-9.643-20.835-20.7l-20.836-20.105z"/><path fill-opacity=".684" fill-rule="evenodd" d="M86.585 3.107C49.733 8.481 19.369 33.679 7.374 68.842-9.931 119.57 17.68 175.173 68.842 192.626c58.001 19.785 120.832-19.719 128.233-80.626C204.781 48.578 149.354-6.048 86.585 3.107M65.501 65.999l-33.989 34 9.245 9.244 9.244 9.245 34-33.989C102.7 65.806 118 50.028 118 49.437 118 48.523 100.776 32 99.823 32c-.184 0-15.629 15.3-34.322 33.999m44.084 8.916L92.692 91.829l1.738 17.336c.955 9.534 1.94 17.538 2.187 17.786.248.247 5.836-4.921 12.417-11.485 11.31-11.28 11.966-11.77 11.966-8.935 0 2.499-1.967 4.962-11.765 14.735C102.764 127.72 97.019 133 96.467 133c-.551 0-5.712-4.725-11.467-10.5S74.066 112 73.493 112s-4.385 3.364-8.469 7.476l-7.426 7.476 20.403 20.774c11.221 11.426 20.771 21.211 21.222 21.745.484.574 10.656-8.831 24.875-23l24.057-23.971-.631-6.498-.63-6.498 3.576 3.467 3.577 3.467 8.226-8.233 8.227-8.232-21.048-20.986C137.876 67.444 127.971 58 127.441 58s-8.565 7.612-17.856 16.915"/><path fill-opacity=".811" fill-rule="evenodd" d="M92.5 2.639C67.952 4.834 47.184 14.787 29.891 32.643 12.075 51.04 2.923 73.428 2.766 99c-.174 28.469 9.415 51.293 29.877 71.109C51.04 187.925 73.428 197.077 99 197.234c28.469.174 51.293-9.415 71.109-29.877 17.816-18.397 26.968-40.785 27.125-66.357.174-28.469-9.415-51.293-29.877-71.109C154.69 17.623 140.643 9.8 123.619 5.532c-9.001-2.256-23.333-3.589-31.119-2.893M64.547 64.953 29.604 99.907l10.235 10.296L50.075 120.5l35.032-35.413 35.031-35.412-9.8-9.838c-5.39-5.41-10.036-9.837-10.325-9.837S83.765 45.729 64.547 64.953m44.744 9.941L92.082 92.526l1.439 13.487c.791 7.418 1.71 15.467 2.042 17.888l.605 4.4 11.681-11.65c6.425-6.408 12.012-11.651 12.416-11.651 2.868 0-1.003 5.264-11.767 16.002l-12.502 12.472-10.898-11.237C79.105 116.057 73.807 111 73.327 111s-4.457 3.605-8.837 8.01l-7.964 8.011 21.735 21.734 21.734 21.734 24.003-23.987L148 122.516v-11.89l3.028 2.901 3.029 2.901 8.213-8.213 8.214-8.214-21.483-21.5c-11.816-11.826-21.712-21.442-21.992-21.37s-8.253 8.066-17.718 17.763"/></svg>