<svg xmlns="http://www.w3.org/2000/svg" width="200" height="200" fill="#000000"><path fill-opacity=".141" fill-rule="evenodd" d="M85.173 40.151c-12.784 1.505-23.042 6.508-32.257 15.734C42.437 66.374 37 79.682 37 94.839c0 24.159 16.525 45.684 40.5 52.753 8.076 2.381 20.953 2.236 29.713-.333 19.372-5.684 34.294-22.269 38.472-42.759 1.357-6.655 1.446-9.429.533-16.5-1.147-8.882-3.894-17.318-5.347-16.42-.467.288-.583-.167-.259-1.011.352-.917-1.293-4.171-4.09-8.09-11.742-16.455-30.808-24.746-51.349-22.328m-6.539 3.435c-8.837 2.14-16.568 6.764-23.708 14.181L48.5 64.443l7.189-6.757C72.37 42.01 91.332 39.088 115.5 48.47c1.75.679 1.724.57-.214-.879-3.4-2.54-16.844-5.601-24.196-5.508-3.624.046-9.23.723-12.456 1.503M118 49.35c0 .231 1.18 1.193 2.623 2.139s2.318 1.224 1.944.62c-.713-1.154-4.567-3.483-4.567-2.759M81.405 66.146c-1.895 2.134-1.893 2.139.345.964 1.237-.649 2.25-1.615 2.25-2.145 0-1.421-.479-1.203-2.595 1.181m9.467.518c-1.244 1.508-1.162 1.552.878.465 2.327-1.24 2.9-2.129 1.372-2.129-.482 0-1.495.749-2.25 1.664M72.5 70.588l-3 2.577 3.25-2.15c1.787-1.183 3.25-2.346 3.25-2.583 0-.749-.423-.488-3.5 2.156m29-1.588c2.749 1.181 4.328 1.181 2.5 0-.825-.533-2.175-.945-3-.914-.989.036-.819.347.5.914m-25.75 7.662c.688.278 1.813.278 2.5 0 .688-.277.125-.504-1.25-.504s-1.937.227-1.25.504m9.519.031c.973.254 2.323.237 3-.037s-.119-.481-1.769-.461-2.204.244-1.231.498"/><path fill-opacity=".539" fill-rule="evenodd" d="M82.5 44.464c-13.688 2.586-24.343 9.254-32.053 20.058-11.729 16.437-13.12 36.095-3.863 54.588 2.8 5.593 11.181 14.945 16.954 18.916 9.524 6.553 24.83 10.057 34.687 7.942 2.901-.623 6.25-1.208 7.442-1.3 1.191-.093 1.988-.347 1.77-.565-.219-.218 1.884-1.453 4.672-2.745 2.788-1.291 6.336-3.25 7.884-4.353 3.158-2.249 4.479-2.578 3.412-.85-.456.737-.273.882.507.399.672-.415.978-.997.682-1.294-.297-.296 1.699-2.989 4.436-5.983 5.249-5.743 11.36-17.234 12.507-23.518.375-2.058 1.101-3.483 1.613-3.166.545.337.651-.539.255-2.117-.43-1.71-.227-2.968.557-3.452 2.055-1.27-.505-14.119-4.484-22.502-10.709-22.567-33.366-34.52-56.978-30.058m-3.687 4.219c.721.289 1.584.253 1.916-.079s-.258-.568-1.312-.525c-1.165.048-1.402.285-.604.604m-9.306 3.306c-.35.566.051.734.941.393 1.732-.665 2.049-1.382.611-1.382-.518 0-1.216.445-1.552.989m41.576-.667c1.65 1.275 9.917 5.662 9.917 5.262 0-.643-8.41-5.584-9.505-5.584-.455 0-.641.145-.412.322m-47.524 4.21c-1.068.807-1.46 1.468-.873 1.468.588 0 1.629-.675 2.314-1.5 1.557-1.876 1.067-1.866-1.441.032m16.941.87c-9.064 2.874-19.147 10.333-22.541 16.674-.699 1.306 1.353-.459 4.559-3.922 6.518-7.041 12.841-10.701 21.884-12.668 3.684-.802 4.91-1.332 3.098-1.34-1.65-.007-4.8.559-7 1.256m17.5-.448c.825.559 2.362 1.022 3.417 1.031 2.558.02 1.76-.552-1.917-1.375-2.191-.49-2.595-.397-1.5.344m13.554 5.15c2.72 1.707 6.068 4.07 7.439 5.25l2.493 2.146-1.917-2.271C117.401 63.66 109.191 58 107.633 58c-.564 0 1.201 1.397 3.921 3.104m-30.304 4.57c-1.752 1.222-2.25 2.54-2.25 5.948C79 75.625 78.786 76 76.5 76c-2.463 0-2.5.122-2.5 8.167 0 9.498.868 9.856 1.676.692.308-3.497 1.07-6.717 1.692-7.155 2.09-1.471 19.864-.225 23.632 1.655l3.5 1.747-2.806-2.553c-2.919-2.656-5.397-3.043-16.543-2.578-5.193.216-5.327.154-4.615-2.126.403-1.292 1.235-2.68 1.849-3.084s.726-.741.25-.75c-.476-.008-.138-1.124.75-2.48 2.599-3.966 1.836-4.631-2.135-1.861m10.5-.282c-1.151.874-1.74 2.659-1.72 5.218.025 3.139.228 3.551 1.055 2.132.563-.967.779-2.153.48-2.636-.298-.483.252-1.086 1.222-1.34s1.837-1.43 1.927-2.614c.185-2.466-.489-2.639-2.964-.76M98 68.7c0 3.532.285 4.415 1.146 3.554 1.627-1.627 7.874 1.733 11.578 6.227C113.805 82.219 117 90.83 117 95.397c0 1.497.418 2.463.929 2.147.51-.315 1.104.446 1.319 1.691s.455-.856.535-4.671c.106-5.021-.41-8.197-1.866-11.5-2.332-5.289-8.933-12.414-13.099-14.139-1.585-.657-2.685-1.392-2.443-1.633 1.067-1.067 7.532 3.271 11.953 8.021 4.076 4.38 4.584 4.694 3.265 2.017-1.955-3.969-8.757-9.496-14.363-11.672-2.349-.912-4.486-1.658-4.75-1.658S98 66.115 98 68.7m-27.466 3.05C66.75 75.486 61.955 84.147 62.091 87c.04.825.751-.075 1.581-2 2.17-5.036 5.465-10.196 6.103-9.559.3.301-.131 1.337-.959 2.303-5.212 6.08-6.368 19.691-2.428 28.599C69.499 113.378 71 114.3 71 109.176c0-3.225-.402-4.048-2.206-4.52-1.214-.317-1.893-.891-1.509-1.274.384-.384.139-1.371-.544-2.194-2.034-2.452-1.311-13.065 1.206-17.688 1.198-2.2 1.939-3.213 1.647-2.25s-.061 1.75.513 1.75c.616 0 .927-1.896.76-4.622-.244-3.971.097-4.95 2.424-6.952C74.781 70.144 76 68.849 76 68.548c0-1.397-1.985-.234-5.466 3.202M74.5 72c-.34.55-.141 1 .441 1S76 72.55 76 72s-.198-1-.441-1-.719.45-1.059 1m41.31 10.5c.506 1.1 1.17 2.675 1.476 3.5.48 1.296.567 1.288.635-.059.043-.857-.621-2.432-1.476-3.5-1.53-1.91-1.541-1.909-.635.059M60 94.5c0 2.475.45 4.5 1 4.5s1-2.025 1-4.5-.45-4.5-1-4.5-1 2.025-1 4.5m14.37 8.5c0 5.775.165 8.138.367 5.25s.202-7.612 0-10.5-.367-.525-.367 5.25M85 93.757c0 .417 2.138.62 4.75.451 7.599-.489 8.255-.967 1.5-1.092-3.437-.064-6.25.225-6.25.641m18.214 4.308c-1.751 6.952-4.948 9.319-13.541 10.023l-7.173.589 6.846.161c5.433.129 7.428-.253 9.672-1.851 2.877-2.049 6.55-9.782 5.765-12.138-.238-.714-.944.733-1.569 3.216M64 107.941c0 .518.445 1.216.989 1.552.566.35.734-.051.393-.941-.665-1.732-1.382-2.049-1.382-.611"/><path fill-opacity=".535" fill-rule="evenodd" d="M85 45.1c1.142.814.725.935-1.75.509-1.787-.307-3.25-.207-3.25.223s-1.013 1.23-2.25 1.777c-2.49 1.102-1.53 1.067 2.125-.079 1.543-.483 2.152-.383 1.738.286-.35.567-2.816 1.755-5.48 2.64s-6.992 2.971-9.618 4.637c-2.934 1.86-4.557 2.458-4.208 1.55 1.044-2.722-2.048-2.523-4.758.306l-2.68 2.797 3.793 3.127C61.043 64.835 61.858 66 60.85 66c-.883 0-2.165-.675-2.85-1.5S56.173 63 55.461 63s-1.461-.499-1.664-1.11c-.23-.69-.882-.493-1.725.523-1.181 1.424-1.124 1.544.451.94 1.177-.452 1.572-.315 1.135.392-.369.596-.183 1.247.412 1.445.596.199.036 1.238-1.243 2.309s-1.764 1.307-1.077.524c1.695-1.93 1.571-2.893-.336-2.613-.872.128-2.495 1.775-3.608 3.661L45.783 72.5l2.169-2.5 2.168-2.5-1.585 3.25c-.873 1.787-2.011 3.25-2.529 3.25-.519 0-.656.749-.305 1.664.407 1.059.244 1.42-.446.994-1.496-.925-2.087 1.193-1.465 5.247.324 2.114.147 3.174-.467 2.794-.544-.336-1.048-.068-1.12.595-.071.663-.422 3.28-.78 5.815-.813 5.756 1.361 19.782 2.754 17.769.687-.993.786-.778.355.767-.709 2.535 2.356 9.542 3.787 8.658.545-.337.68-.111.302.502-.908 1.469 1.411 5.12 2.891 4.552.68-.261 1.121.501 1.072 1.85-.06 1.632.44 2.25 1.735 2.143 1.107-.092 1.625.352 1.325 1.135-.624 1.627 3.384 5.408 9.985 9.42 5.386 3.274 14.13 6.362 15.542 5.489.456-.281.829-.035.829.547 0 .671 3.498 1.059 9.559 1.059 6.044 0 9.334-.363 8.948-.989-.342-.553.031-.742.848-.428 4.439 1.703 26.231-10.456 26.584-14.833.034-.412.239-.637.456-.5.625.396 4.605-3.462 4.605-4.464 0-.497-.52-.583-1.155-.191-.721.446-.882.274-.43-.457.398-.644 1.115-.929 1.593-.633 1.568.969 7.38-12.671 7.225-16.957-.079-2.173.384-4.586 1.028-5.363 1.532-1.846 1.379-12.171-.195-13.144-.664-.411-1.287-2.796-1.384-5.3s-.591-4.297-1.099-3.983-.636-.179-.284-1.094c.351-.916.155-1.664-.437-1.664s-.808-.698-.48-1.552c.327-.854.169-1.289-.351-.967-1.124.695-4.358-5.143-3.562-6.43.302-.49-1.738-3.289-4.535-6.221s-4.752-4.691-4.346-3.91c.542 1.039.294 1.249-.924.781-.915-.351-1.664-.218-1.664.297 0 .514-3.263-.844-7.25-3.018s-7.925-3.965-8.75-3.981-2.146-.438-2.936-.938c-1.221-.773-1.23-1.156-.06-2.566 1.251-1.507 1.02-1.603-2.564-1.065-2.87.431-3.397.336-1.94-.349 1.433-.674-.408-.956-6.5-.995-6.289-.041-8.11.223-7 1.014m4 .83c0 .512-1.013 1.126-2.25 1.364s-.187.495 2.333.57c3.468.103 4.584-.229 4.584-1.364 0-.905-.926-1.5-2.334-1.5-1.283 0-2.333.419-2.333.93m15.629.946c-1.491.586-.984.996 2.5 2.024 2.404.709 6.567 2.628 9.251 4.265 3.072 1.874 5.23 2.625 5.827 2.028 1.388-1.388-4.577-5.372-6.78-4.527-1.162.446-1.521.296-1.063-.446.731-1.183-3.116-3.801-4.116-2.801-.32.32.019.581.752.581s1.086.247.785.549c-.889.888-5.824-.677-5.219-1.656.628-1.015.604-1.016-1.937-.017m-33.9 1.216c-.974.567-1.463 1.53-1.086 2.139.454.735.076.875-1.12.416-2.205-.846-7.169 2.107-5.816 3.46.562.562 3.044-.248 6.357-2.075 2.99-1.648 4.761-3.011 3.936-3.029-1.333-.03-1.333-.141 0-1.003 2.01-1.299-.023-1.217-2.271.092m-6.288 4.463c-1.83 1.467-1.798 1.487.559.365 3.061-1.458 3.628-1.92 2.358-1.92-.537 0-1.849.7-2.917 1.555M117 52.049c3.469 2.354 5.444 3.039 3 1.04-1.375-1.124-2.95-2.048-3.5-2.051s-.325.451.5 1.011M84.176 55.07c-10.427 2.052-21.04 9.229-26.724 18.073-3.145 4.892-5.482 14.345-5.316 21.501l.136 5.856.767-7.318c.422-4.024 1.788-10.045 3.035-13.38 4.143-11.078 16.324-20.868 28.07-22.559 2.855-.411 5.378-1.308 5.607-1.995.46-1.38.525-1.378-5.575-.178m-26.252 2.68L55.5 60.5l2.75-2.424c1.513-1.334 2.75-2.571 2.75-2.75 0-.785-.81-.146-3.076 2.424M95 56.167c0 .641.253.913.562.604 1.029-1.029 11.171 1.883 15.599 4.478 6.782 3.974 14.196 12.453 16.857 19.276 1.776 4.556 2.335 7.994 2.355 14.475.019 6.617.205 7.725.84 5 1.731-7.431-1.456-21.902-6.166-27.998-1.916-2.48-1.914-2.516.262-4.993 2.123-2.418 2.125-2.439.058-.703-2.088 1.754-2.268 1.689-8.62-3.119C110.091 58.149 102.812 55 97.822 55 96.27 55 95 55.525 95 56.167m-25.417.699c-.431.697-.513 1.537-.183 1.867.895.895 1.871-.421 1.387-1.871-.338-1.016-.574-1.016-1.204.004m42.942.094c-.848 1.372-.097 2.402 1.38 1.894.606-.208.683-.914.188-1.711-.625-1.006-1.03-1.053-1.568-.183m13.77 1.628c1.632 1.98 1.626 2.173-.116 3.75-1.01.914-2.364 1.662-3.008 1.662S122 64.45 122 65c0 1.583 1.27 1.176 4.5-1.44l3-2.431-2.463-2.314c-1.91-1.796-2.077-1.847-.742-.227m-27.216 2.995c.048 1.165.285 1.402.604.605.289-.722.253-1.585-.079-1.917s-.568.258-.525 1.312M86.031 61.5c0 .55.436 1.675.969 2.5s.969 1.05.969.5-.436-1.675-.969-2.5-.969-1.05-.969-.5m2.969.441c0 .518.445 1.216.989 1.552.566.35.734-.051.393-.941C89.717 60.82 89 60.503 89 61.941m3.75 2.402C89.644 66.957 89 68.145 89 71.25V75l-4.25-.079c-2.338-.043-3.687-.306-3-.583.688-.278 1.25-1.341 1.25-2.362s.45-2.136 1-2.476 1-2.031 1-3.759c0-2.443-.267-2.874-1.2-1.941-1.539 1.539-2.543 1.522-3.083-.05-.237-.687-.316-.479-.177.463.14.943-.381 2.24-1.156 2.884-.776.643-1.351 1.672-1.279 2.286C78.553 73.179 77.87 75 76 75c-1.932 0-2 .667-2 19.559 0 12.785.346 19.345 1 18.941.55-.34 1-1.716 1-3.059s.563-2.448 1.25-2.456c.903-.011.933-.22.108-.75-1.67-1.074-1.353-9.447.332-8.8.721.276 1.31.103 1.31-.385 0-.487.273-1.598.607-2.468.432-1.125.016-1.582-1.441-1.582-1.126 0-2.326-.45-2.666-1-.348-.563.453-1 1.83-1 1.346 0 2.427-.562 2.401-1.25-.025-.687.025-3.388.111-6L80 80h7.099c9.277 0 13.543 1.981 15.979 7.423 1.154 2.577 1.475 4.424.873 5.026-.523.523-.951 2.233-.951 3.801 0 7.628-5.601 11.75-15.968 11.75-4.159 0-6.032.388-6.033 1.25 0 .938 2.015 1.125 8.078.75 7.807-.483 8.194-.626 11.529-4.266 1.898-2.071 3.715-5.091 4.039-6.711s1.099-2.85 1.722-2.734c1.964.366 1.503-10.974-.586-14.408-1.926-3.167-8.585-6.776-12.781-6.927l-2.5-.089 2.25-1.085c1.867-.901 2.25-1.897 2.25-5.849 0-2.907.487-4.938 1.25-5.211.688-.245 1.025-.691.75-.99s-2.188.877-4.25 2.613m37.25-.965c0 .207.787.995 1.75 1.75 1.586 1.243 1.621 1.208.378-.378-1.307-1.666-2.128-2.195-2.128-1.372M98 68.5c0 3.51.362 4.5 1.645 4.5.905 0 3.556 1.209 5.891 2.686C109.794 78.38 114 84.98 114 88.968c0 1.053.45 2.192 1 2.532 1.33.822 1.284 6.206-.06 7.037-.67.414-.394 1.164.75 2.04 1.577 1.207 1.617 1.514.31 2.389-.825.552-1.027 1.01-.45 1.019.578.008 1.583-.518 2.233-1.168.651-.651 1.501-.866 1.889-.478 1.101 1.101-3.211 9.144-7.391 13.785-2.515 2.793-3.064 3.817-1.639 3.06 1.178-.626 3.261-2.468 4.628-4.092 3.243-3.855 7.354-12.384 6.161-12.782-.512-.17-.889-4.609-.838-9.864s-.224-9.043-.611-8.417c-1.016 1.645-1.679-.714-1.483-5.279.093-2.173-.305-3.75-.947-3.75-1.863 0-4.544-3.866-4.688-6.761-.119-2.38-.193-2.442-.572-.474-.239 1.245-.833 2.019-1.32 1.718-.486-.301-.637-1.32-.334-2.265.396-1.235.292-1.358-.37-.439-.732 1.015-1.833.865-5.345-.728C98.524 63.147 98 63.333 98 68.5m-10.748 1c.011 2.2.216 2.982.455 1.738s.23-3.044-.02-4-.446.062-.435 2.262m-14.548-1.17c.561.907-3.741 4.304-4.954 3.912-.412-.133-.668.096-.567.508.288 1.181-4.463 10.195-5.149 9.771-.339-.209-.436 1.159-.217 3.041.22 1.882.801 3.174 1.291 2.871.491-.303.892-.074.892.508S63.1 90 62 90c-1.684 0-2.002.671-2.014 4.25-.007 2.338-.168 5.15-.356 6.25-.189 1.1-.15 1.438.087.75.236-.687.847-1.25 1.356-1.25s.983-2.138 1.052-4.75l.125-4.75.739 5.036c.407 2.77 1.073 6.145 1.479 7.5.718 2.396.695 2.409-.833.464-1.115-1.419-1.581-1.583-1.603-.566-.055 2.471 3.838 9.567 6.81 12.415l2.847 2.727.178-5.458c.129-3.953-.517-7.03-2.344-11.162C66.871 95.459 66.325 91.535 68 90.5c.55-.34 1-1.491 1-2.559S69.477 86 70.059 86s.8-.419.484-.931-.081-1.237.524-1.611c.646-.399.963-2.803.767-5.819-.33-5.085-.305-5.136 2.416-4.817 2.454.287 2.75.002 2.75-2.645 0-2.505-.373-2.943-2.404-2.821-1.322.079-2.173.517-1.892.974M135 69c.589 1.1 1.295 2 1.57 2s.019-.9-.57-2-1.295-2-1.57-2-.019.9.57 2m-79.267.124c.679.684 1.486.991 1.793.683.308-.308-.247-.867-1.233-1.243-1.425-.542-1.54-.428-.56.56m61.337.567c-.038 1.205.38 2.469.93 2.809 1.183.731 1.183-.248 0-3-.829-1.928-.862-1.921-.93.191M63.979 74.5c-.176 2.961-.189 2.968-.979.5-.66-2.06-.816-2.148-.885-.5-.046 1.1.328 2.652.832 3.448.719 1.138 1.058.879 1.582-1.207.366-1.46.433-3.237.148-3.948s-.599.057-.698 1.707m57.743 1.622c.617.617 1.006 1.629.864 2.25-.142.62-.069.788.163.372s.946-.451 1.586-.078.308-.3-.74-1.494c-1.048-1.195-2.15-2.172-2.45-2.172s-.04.505.577 1.122M52 77c0 .55.45 1 1 1s1-.45 1-1-.45-1-1-1-1 .45-1 1m77.638.5c.317.825.753 1.5.969 1.5s.393-.675.393-1.5-.436-1.5-.969-1.5-.709.675-.393 1.5M44 79.031c0 .533.675.969 1.5.969s1.5-.177 1.5-.393-.675-.652-1.5-.969-1.5-.139-1.5.393m13.295 5.478c-.953 1.036-.848 1.45.5 1.973 1.563.606 1.543.78-.236 2.089-1.068.786-1.54 1.429-1.05 1.429s.351.54-.309 1.2-1.2 1.592-1.2 2.071c0 .935 3.49-2.242 3.515-3.2.009-.314.373-1.133.809-1.821s.487-1.25.113-1.25c-.375 0-.064-.761.691-1.692s.848-1.378.207-.994c-.64.384-1.315.29-1.5-.209-.184-.499-.877-.318-1.54.404M49.5 85c-.34.55-.141 1 .441 1S51 85.55 51 85s-.198-1-.441-1-.719.45-1.059 1m54.579.583c.048 1.165.285 1.402.604.605.289-.722.253-1.585-.079-1.917s-.568.258-.525 1.312m18.236 1.508c-1.165.425-.471.671 1.935.686 2.063.013 3.75-.286 3.75-.663 0-.873-3.32-.887-5.685-.023M43.638 89.5c.317.825 1.258 1.5 2.091 1.5 1.234 0 1.284-.279.271-1.5-.685-.825-1.626-1.5-2.091-1.5s-.587.675-.271 1.5m82.064.131c-.82.82 1.076 4.369 2.333 4.369.531 0 .965-.477.965-1.059s-.45-.781-1-.441c-.899.556-1.433-.757-1.118-2.75.144-.916-.335-.964-1.18-.119M85.71 92.623c-1.819 1.819-.216 2.449 5.54 2.175 3.515-.168 6.146-.736 6.012-1.298-.277-1.159-10.494-1.935-11.552-.877m2.04 4.1c1.787.222 4.713.222 6.5 0 1.787-.221.325-.403-3.25-.403s-5.037.182-3.25.403m38.509.527c-1.407 1.784-1.164 4.417.408 4.417 1.595 0 1.755-1.288.273-2.204-.67-.414-.394-1.16.75-2.027.996-.755 1.303-1.387.682-1.404-.62-.018-1.571.531-2.113 1.218M56 100.059c0 .582.45.781 1 .441s1-.816 1-1.059S57.55 99 57 99s-1 .477-1 1.059m22.079 1.524c.048 1.165.285 1.402.604.605.289-.722.253-1.585-.079-1.917s-.568.258-.525 1.312M55.5 103c-.34.55.11 1 1 1s1.34-.45 1-1-.79-1-1-1-.66.45-1 1m55.062 3.881c-1.84 3.558-6.902 7.915-10.139 8.728-2.045.513-2.423 1.215-2.423 4.499 0 2.141.45 3.892 1 3.892s1-.62 1-1.379c0-.758 1.463-1.958 3.25-2.667 4.91-1.948 5.973-2.98 4.677-4.542-.829-.999-.414-2.25 1.697-5.117a610 610 0 0 0 3.086-4.212c.159-.229.521-.186.803.097.282.282-.855 2.234-2.528 4.339-1.997 2.512-2.702 4.164-2.055 4.811 1.266 1.266 3.358-.442 6.226-5.083 2.112-3.417 2.123-3.57.321-4.887-2.628-1.922-3.232-1.735-4.915 1.521m16.243 3.259c-1.481 3.223-2.502 5.86-2.266 5.86.725 0 5.594-10.11 5.268-10.939-.169-.43-1.52 1.856-3.002 5.079m-68.594-3.539c-.71.769-.849 1.399-.309 1.399 1.038 0 2.541-1.902 1.948-2.466-.192-.183-.93.297-1.639 1.067M123 108c0 1.253 1.061 1.253 3 0 1.213-.784 1.069-.972-.75-.985-1.237-.008-2.25.435-2.25.985m-57 .711c0 .574.787 1.662 1.75 2.417 1.619 1.269 1.64 1.222.283-.628-.807-1.1-1.594-2.187-1.75-2.417s-.283.054-.283.628m-4.731 3.982c.973.254 2.323.237 3-.037s-.119-.481-1.769-.461-2.204.244-1.231.498m2.81 3.89c.048 1.165.285 1.402.604.605.289-.722.253-1.585-.079-1.917s-.568.258-.525 1.312M89 119.441c0 3.303.397 4.559 1.441 4.559.793 0 1.719-.45 2.059-1s.141-1-.441-1S91 120.677 91 119.059s-.45-3.219-1-3.559c-.611-.378-1 1.156-1 3.941m46.459-3.374c-.363.586-.445 1.281-.183 1.543s.743-.218 1.069-1.067c.676-1.762.1-2.072-.886-.476m-56.444 3.076c-.01 2.467.515 3.847 1.628 4.274.904.346 1.879.394 2.167.107s-.002-.524-.643-.524c-.642 0-1.174-1.013-1.182-2.25s-.452-2.925-.985-3.75c-.724-1.12-.973-.577-.985 2.143m-22.38 1.44c-1.576 1.386-2.669 2.717-2.427 2.958.241.241 1.727-.907 3.302-2.551 3.481-3.633 3.031-3.842-.875-.407M75 119.5c0 .825.45 1.5 1 1.5s1-.675 1-1.5-.45-1.5-1-1.5-1 .675-1 1.5m12.232 1.5c0 1.925.206 2.713.457 1.75.252-.963.252-2.537 0-3.5-.251-.963-.457-.175-.457 1.75m30.892.928c-5.188 4.557-11.477 7.847-18.509 9.682-4.985 1.302-5.007 1.323-.868.851 6.043-.689 13.992-4.509 19.416-9.332l4.663-4.146 3.337 2.703 3.337 2.702-2.937-3.194c-1.615-1.757-3.19-3.175-3.5-3.151-.31.023-2.532 1.772-4.939 3.885M68 121c-1.282.828-1.246.972.25.985.963.008 1.75-.435 1.75-.985 0-1.22-.113-1.22-2 0m47.543 6.931c-.317.512-.118 1.213.441 1.559s1.016-.074 1.016-.931c0-1.757-.6-2.015-1.457-.628m-36.447 3.063c.878.513 3.578 1.174 6 1.468 4.165.507 4.106.457-1.096-.921-6.504-1.722-7.01-1.779-4.904-.547M92 136c-1.282.828-1.246.972.25.985.963.008 1.75-.435 1.75-.985 0-1.22-.113-1.22-2 0"/><path fill-opacity=".744" fill-rule="evenodd" d="M94 47.986c0 1.522 1.063 2.253 4.556 3.132 3.103.782 4.393 1.573 4.044 2.483-.282.734-.013 1.644.598 2.021.648.401.831.234.44-.398-.369-.597-.254-1.343.255-1.658 1.458-.901 4.274.557 3.744 1.939-.263.685.611 1.742 1.942 2.349 1.967.896 2.421.826 2.421-.375 0-1.877.495-1.856 3.553.147 1.771 1.161 2.194 1.974 1.477 2.838-.712.858-.256 1.914 1.565 3.623 1.609 1.511 2.446 1.861 2.237.937-.199-.887.538-1.61 1.845-1.81 2.753-.422 4.868-2.759 3.347-3.699-.591-.365-.95-.124-.799.536.151.659-.251 1.393-.893 1.63-.738.272-1.065-.507-.888-2.117.153-1.402-.344-3.066-1.105-3.698-1.099-.912-1.259-.82-.773.445.336.876.269 2.147-.15 2.825-.551.892-.935.734-1.394-.572-.726-2.07-11.364-8.037-11.831-6.636-.353 1.058-6.191-.695-6.191-1.859 0-.405-.675-.811-1.5-.902l-3-.334c-.825-.091-1.5-.766-1.5-1.5C96 46.6 95.55 46 95 46s-1 .894-1 1.986m-10.527 1.358c-3.163 2.154-8.309 3.649-8.684 2.522-.181-.543-2.028.164-4.104 1.573C68.609 54.847 66.256 56 65.456 56c-.801 0-1.456.51-1.456 1.133 0 1.964-4.238 5.029-5.378 3.889-1.916-1.916-2.939-1.03-1.125.974 1.316 1.455 2.15 1.712 3.074.945.913-.758 1.5-.642 2.098.415.691 1.221 1.335 1.044 3.831-1.054 1.65-1.387 2.469-2.24 1.819-1.895-2.122 1.125-2.267-1.007-.189-2.786 1.605-1.375 2.327-1.486 3.471-.537 1.159.962 1.334.91.884-.263-.391-1.018.513-1.792 2.976-2.548 3.269-1.003 6.131-.081 3.295 1.063-.733.295-.499.539.561.585 1.347.059 1.661-.416 1.211-1.833-.488-1.537.026-2.051 2.626-2.622 3.95-.867 7.054-3.466 4.14-3.466-1.017 0-2.737.605-3.821 1.344M91 50c0 .55.45 1 1 1s1-.45 1-1-.45-1-1-1-1 .45-1 1m-3 3c0 .55.702 1 1.559 1s1.281-.45.941-1-1.041-1-1.559-1-.941.45-.941 1m6 .337c0 1.565-1.126 1.994-12.5 4.761-9.549 2.324-19.432 9.961-23.744 18.351C54.27 83.23 51.696 98 54 98c.55 0 .947-.338.882-.75-.361-2.281.381-2.351 2.618-.25 1.375 1.292 2.5 1.82 2.5 1.174S59.572 97 59.048 97c-.543 0-.371-1.932.402-4.5 1.509-5.014 1.037-6.195-.6-1.5-.988 2.836-4.85 4.428-4.85 2 0-.55.337-1.004.75-1.008 1.339-.014 3.148-4.937 2.061-5.609-.551-.34.461-1.952 2.256-3.592 2.271-2.074 2.889-3.2 2.043-3.723-.945-.584-.928-1.392.077-3.659 1.437-3.242 3.355-5.537 4.488-5.371.411.061 1.07-.711 1.466-1.714s.75-1.431.789-.952c.038.48.756.304 1.594-.392s1.811-.979 2.161-.628c.35.35 1.138-.37 1.751-1.599C74.941 61.735 78 61.181 78 63.927c0 1.14-.349 2.073-.776 2.073s-.599 1.863-.382 4.139c.381 3.999.306 4.122-2.224 3.639-2.549-.488-2.621-.36-2.743 4.861-.156 6.679-.205 7.024-1.125 7.944-1.226 1.226-.856 2.417.75 2.417.825 0 1.531-.787 1.569-1.75s.15-4 .25-6.75c.158-4.358.47-5.041 2.431-5.32 1.891-.268 2.25-.937 2.25-4.191 0-2.129.457-4.154 1.016-4.499.559-.346.755-1.051.436-1.568-.976-1.578.504-4.677 2.48-5.194 1.437-.376 2.004.203 2.467 2.517 1.026 5.13.681 11.556-.649 12.093-.687.277.213.54 2 .583 3.15.077 3.25-.047 3.25-4.011 0-3.018.589-4.581 2.25-5.966 1.237-1.033 2.588-1.892 3-1.911.412-.018.75 2.442.75 5.467 0 4.546-.304 5.512-1.75 5.567-.963.038.4.646 3.029 1.353 5.471 1.472 9.089 4.469 11.818 9.79 2.026 3.951 2.58 12.254.887 13.3-.559.346-.753 1.055-.43 1.577.72 1.166-2.575 6.645-5.845 9.716-2.21 2.077-3.425 2.282-14.312 2.411-6.543.078-12.454.562-13.135 1.076-1.935 1.461-2.347-.922-2.014-11.648.222-7.169-.048-10.061-1.015-10.863-.954-.793-1.621-.791-2.419.007-1.004 1.004-.437 5.617 1.626 13.214.224.825.441 4.088.483 7.25.073 5.446.209 5.75 2.577 5.75 2 0 2.5.5 2.5 2.5 0 1.375-.436 2.5-.969 2.5-2.319 0 .329 2.623 3.721 3.685 2.844.89 3.899.888 4.47-.01.411-.646.788-.95.837-.675s.278 1.513.509 2.75-.028 2.25-.574 2.25c-.547 0-.994-.436-.994-.969s-.672-.71-1.494-.395c-2.239.859-.963 2.056 2.983 2.796 1.931.362 3.511 1.028 3.511 1.479s-1.687.478-3.75.06c-7.945-1.611-13.464-4.302-18.116-8.833-2.619-2.551-3.608-3.688-2.198-2.528 3.665 3.017 10.383 7.39 11.352 7.39.453 0-.439-1.126-1.982-2.503-2.564-2.287-2.655-2.593-1.056-3.55 2.395-1.432 2.197-2.422-.75-3.765-2.166-.987-2.5-.897-2.5.673 0 .996-.287 2.099-.638 2.45-1.14 1.14-5.325-3.733-5.415-6.305-.08-2.295-.158-2.336-.947-.5-.818 1.905-1.094 1.797-1.375-.536-.069-.571-.8-1.464-1.625-1.985-1.126-.712-.69-.952 1.75-.964 3.433-.016 3.846-.578 2.216-3.015-.872-1.303-1.192-1.254-2.434.372-1.292 1.69-1.582 1.721-2.979.324-1.811-1.811-.951-5.063 1.128-4.265.783.3 1.173.142.868-.352-.929-1.502.618-4.229 2.08-3.668.754.289 1.371.09 1.371-.442 0-.533-.9-.969-2-.969s-2 .585-2 1.3c0 1.921-2.043 3.621-3.622 3.015-1.956-.751-1.709-2.309.372-2.345 1.622-.029 1.616-.109-.075-1.092-1.004-.584-2.105-.781-2.448-.438-.604.604.661 6.075 2.305 9.974.572 1.355.466 1.703-.362 1.191-.698-.432-1.17-.107-1.17.805 0 .947-.57 1.308-1.5.952-1.941-.745-1.941-2.362 0-2.362 1.831 0 1.831.189.012-4.965-1.829-5.186-2.253-12.766-1.119-20.011.762-4.867.686-5.334-.679-4.202-1.187.985-1.705 1.002-2.279.072-.452-.73-.322-.942.329-.54 1.117.691 2.887-5.036 1.871-6.052-.446-.446 1.723-5.769 2.907-7.133.157-.182 1.225.171 2.372.785 2.874 1.538 2.617-.106-.47-3.006-1.493-1.404-2.31-1.761-1.964-.861.337.879-.282 2.329-1.445 3.381C51.916 69.481 51 70.935 51 71.699s-.746 1.256-1.658 1.095c-1.084-.192-1.919.657-2.413 2.456-.555 2.018-.396 2.75.598 2.75 1.12 0 1.106.477-.08 2.75-.789 1.513-1.393 3.875-1.341 5.25l.093 2.5.717-2.5c.504-1.757 1.291-2.397 2.65-2.155 2.722.486 2.909.878 1.327 2.785-.766.922-1.281 1.833-1.143 2.024.138.19.191.909.118 1.596-.072.688-.44-.325-.817-2.25l-.686-3.5-.796 4.75c-.438 2.612-1.195 4.75-1.683 4.75-.487 0-.886.675-.886 1.5s.45 1.5 1 1.5 1 1.162 1 2.583c0 3.196-2.134 2.758-3.207-.657-.489-1.557-.581-.889-.258 1.868.608 5.193 2.336 8.206 4.706 8.206.967 0 1.759.727 1.759 1.617 0 1.124-.609 1.457-2 1.093-1.1-.287-2-.093-2 .431 0 1.076 4.348 5.337 7.748 7.594 2.073 1.377 2.396 1.309 4.164-.871 1.054-1.3 2.217-2.064 2.585-1.698s-.582 2.069-2.111 3.785c-3.753 4.212-3.761 5.595-.052 9.076 2.386 2.239 3.246 2.601 3.489 1.472.178-.825 1.078-1.492 2-1.484 1.07.01 1.27.282.553.75-2.528 1.652.607 5.332 7.151 8.394 4.991 2.336 8.4 3.176 14.266 3.518 5.549.322 7.287.154 6.207-.599-.92-.643-1.04-1.053-.309-1.063.655-.008 1.492.471 1.859 1.066 1.21 1.957 12.017.121 19.164-3.256 7.521-3.553 15.198-10.656 20.863-19.303 1.793-2.736 1.801-2.881.118-2.235-1.085.416-1.556.298-1.188-.298.336-.544 1.187-.989 1.892-.989s1.807-1.157 2.451-2.571c1.099-2.412 1.032-2.527-1.089-1.865-1.244.388-2.592 1.207-2.996 1.821-.484.736-.75.605-.781-.385-.039-1.223-.291-1.18-1.365.234-1.691 2.227-2.874 1.11-1.514-1.43.825-1.541 1.324-1.692 2.465-.746 1.061.881 1.43.889 1.43.033 0-.635.787-1.452 1.75-1.816 3.008-1.139 3.996-2.736 5.622-9.083 1.063-4.146 1.28-6.895.666-8.424-.843-2.098-.916-2.034-.975.857-.109 5.37-1.257 9.375-2.688 9.375-.756 0-1.375-.675-1.375-1.5s.477-1.5 1.059-1.5.781-.45.441-1-.141-1 .441-1c1.351 0 1.393-2.722.049-3.17-1.024-.341-1.4-1.548-2.437-7.83l-.579-3.5 1.263 3.216c.891 2.269 1.653 2.975 2.586 2.396 1.642-1.018.555-8.112-1.243-8.112-.659 0-2.063-.632-3.12-1.405-1.799-1.316-1.748-1.373.797-.886 2.656.507 2.693.447 1.632-2.597-1.22-3.501-2.889-5.044-2.889-2.671 0 .857-.498 1.559-1.107 1.559s-.838-.701-.51-1.557c.366-.953-.449-2.527-2.104-4.06-2.216-2.054-2.441-2.665-1.253-3.399 1.109-.686.941-.857-.719-.732-1.193.09-1.931.548-1.64 1.019s-.291 1.839-1.293 3.042c-1.001 1.203-1.18 1.625-.397.937 2.113-1.855 3.81-1.524 5.123 1 .644 1.237.814 1.916.377 1.509s-1.397-.24-2.135.372c-1.005.834-1.342.79-1.342-.175 0-.709-.242-1.047-.537-.752-.296.296 0 1.717.657 3.159.884 1.941 1.519 2.351 2.448 1.581 1.675-1.39 2.993.675 1.545 2.42-.746.899-.745 3.179.003 7.706 1.498 9.063.445 17.156-3.241 24.897-1.711 3.593-3.31 6.001-3.554 5.351s.305-2.628 1.219-4.395l1.661-3.213-3.35.577c-1.843.318-2.814.354-2.157.081.656-.274.968-1.085.692-1.804-.532-1.387 2.08-4.564 3.753-4.564.548 0 .722.862.388 1.916-.335 1.054-.164 2.19.378 2.525 1.477.913 3.083-6.08 3.089-13.448l.006-6.507-4.419.351-4.419.351-.331 6.408c-.182 3.525.007 6.407.419 6.406 1.412-.004.75 3.064-1.705 7.909-3.432 6.772-10.545 13.634-10.545 10.172 0-1.142-8.046 2.908-9.574 4.818-1.646 2.059-2.766-.273-2.027-4.217.471-2.508 1.58-3.707 5.213-5.634 4.618-2.45 10.024-9.211 8.865-11.087-.333-.539.863-.994 2.714-1.033 2.61-.056 2.895-.232 1.348-.837-1.623-.635-1.912-1.571-1.675-5.43.159-2.579-.152-4.663-.695-4.663-.54 0-.758-.857-.484-1.905.626-2.392-2.057-8.156-5.147-11.059-1.291-1.214-4.079-2.799-6.193-3.524-3.569-1.223-3.884-1.648-4.391-5.915-.509-4.286-.391-4.597 1.75-4.597 1.775 0 2.296-.561 2.296-2.469 0-3.134 2.944-2.354 3.116.826.092 1.69.213 1.773.573.393.521-1.991 2.523-2.242 5.441-.68 1.578.844 1.879 1.738 1.429 4.25-.479 2.68-.416 2.826.404.93 1.401-3.241 2.076-2.768 1.428 1-.43 2.497-.308 2.903.525 1.75.918-1.27 1.222-1.286 1.983-.105.721 1.12.976 1.022 1.293-.5.369-1.769.475-1.75 1.6.286.973 1.761.923 2.461-.258 3.642-1.283 1.283-1.222 1.525.502 1.976 1.08.283 1.964.106 1.964-.393 0-.498.45-.906 1-.906s1 .638 1 1.417.563 1.645 1.25 1.924c.943.382.885.76-.235 1.537-1.095.76-2.012.534-3.5-.864-1.995-1.875-2.014-1.862-1.916 1.296.091 2.917.348 3.16 3 2.838 1.596-.194 3.176-.794 3.512-1.334s.906-.212 1.267.729.203 2.257-.352 2.926c-1.243 1.497-.323 2.582 1.572 1.855 1.92-.737 1.763-2.007-.976-7.889C121.165 66.716 107.572 57 96.634 57c-2.886 0-3.631-1.659-.978-2.177 1.541-.301 1.541-.418 0-1.695-1.422-1.179-1.656-1.149-1.656.209m-6.165 5.436c-3.642.746-3.188 6.192.496 5.945C90.945 64.542 93 62.717 93 60.571c0-1.849-1.967-2.155-2.07-.321-.043.767-.333.657-.75-.284-.374-.844-1.429-1.381-2.345-1.193m7.388 1.799c-.11 1.335.244 2.428.788 2.428 1.171 0 1.34-3.665.201-4.369-.433-.268-.878.606-.989 1.941m-31.67.343a1.116 1.116 0 0 0 .362 1.532c.521.322 1.21.159 1.532-.362a1.116 1.116 0 0 0-.362-1.532 1.116 1.116 0 0 0-1.532.362M98 60.941c0 .518.45 1.219 1 1.559s1-.084 1-.941S99.55 60 99 60s-1 .423-1 .941M118 62c0 .55.45 1 1 1s1-.45 1-1-.45-1-1-1-1 .45-1 1m-37 2.059c0 .582.45.781 1 .441s1-.816 1-1.059S82.55 63 82 63s-1 .477-1 1.059m25.51-.075c-.737 1.193.199 3.016 1.549 3.016 1.217 0 1.225-2.707.01-3.457-.512-.317-1.213-.118-1.559.441m-19.26 1.678c-1.427.576-1.713 6.934-.35 7.776.494.306 1.06-1.468 1.257-3.941l.35-4.418c-.004.043-.569.306-1.257.583M122 67.059c0 .582.45.781 1 .441s1-.816 1-1.059-.45-.441-1-.441-1 .477-1 1.059m-52 1.382c0 .857.45 1.559 1 1.559s1-.423 1-.941-.45-1.219-1-1.559-1 .084-1 .941m-16.855 4.884c-.904 1.089-.853 1.673.226 2.568 1.09.905 1.538.788 2.045-.535.882-2.297-.801-3.804-2.271-2.033m5.398 6.606c-.317.512-.118 1.213.441 1.559S60 81.416 60 80.559c0-1.757-.6-2.015-1.457-.628m-13.931 2.176C43.508 85.648 43.255 88 43.98 88c.436 0 1.016-1.463 1.288-3.25.515-3.384.099-5.062-.656-2.643m37.064-.357c-.243.412-.449 6.487-.458 13.5L81.2 108h5.866C98.116 108 103 103.27 103 92.57c0-4.887-.314-5.638-3.535-8.466C96.241 81.273 95.323 81 89.024 81c-3.798 0-7.105.338-7.348.75M121.5 86c.34.55 1.041 1 1.559 1s.941-.45.941-1-.702-1-1.559-1-1.281.45-.941 1m11.32 2.581c.23 1.97.78 3.207 1.222 2.75.909-.939.093-6.331-.958-6.331-.375 0-.494 1.612-.264 3.581M125.5 90c-.34.55-.34 1.45 0 2 .992 1.606-.67 1.15-1.89-.518-.869-1.189-1.11-.449-1.11 3.404 0 2.708.338 4.714.75 4.459.412-.254.75-1.61.75-3.011 0-1.719.436-2.381 1.341-2.034 2.153.827 3.631-.691 3.005-3.086-.615-2.35-1.825-2.866-2.846-1.214M85 95.048v3.047l6.17-.297c5.888-.284 6.186-.423 6.534-3.048l.364-2.75H85zm-42.921-.465c.048 1.165.285 1.402.604.605.289-.722.253-1.585-.079-1.917s-.568.258-.525 1.312m92.079.417c0 1.375.227 1.938.504 1.25.278-.687.278-1.812 0-2.5-.277-.687-.504-.125-.504 1.25m-7.958 2.2c-1.933 1.933-1.455 4.8.8 4.8 1.1 0 2-.45 2-1s-.54-1-1.2-1c-.933 0-.933-.267 0-1.2.66-.66 1.2-1.56 1.2-2 0-1.177-1.426-.974-2.8.4m-9.7 6.8c-1.1.473-1.699.891-1.332.93.368.038 1.322.321 2.121.627.799.307 1.722-.143 2.051-1 .662-1.725.123-1.83-2.84-.557M50 107c0 .55.45 1 1 1s1-.45 1-1-.45-1-1-1-1 .45-1 1m68.25 6.595c-2.389 2.478-2.899 4.886-1.25 5.905.55.34 1 .066 1-.608s.292-.934.648-.577c.661.661 4.352-3.025 4.352-4.346 0-.398-.562-1.17-1.25-1.716-.883-.701-1.911-.307-3.5 1.342M65 116c0 1.1.173 2 .383 2s.619-.9.907-2c.287-1.1.115-2-.384-2-.498 0-.906.9-.906 2m24 3.035c0 7.415 3.195 8.105 4.468.965.548-3.073.314-3.641-1.922-4.656-2.537-1.152-2.546-1.138-2.546 3.691m-9.75-3.317c-2.114.758-1.473 6.012.94 7.702 1.204.844 2.282 1.432 2.395 1.307s.43-1.924.704-3.999c.512-3.886-1.211-6.023-4.039-5.01m47.426.683c-.324.844-.189 1.782.299 2.083 1.307.808 2.416-1.493 1.271-2.638-.64-.64-1.185-.448-1.57.555m-77.643 1.238c-.018.627.852 2.202 1.934 3.5s1.981 1.848 2 1.222-.852-2.202-1.934-3.5-1.981-1.848-2-1.222M86.971 121c-.745 7.115-.134 10 2.114 10 1.623 0 1.842-.465 1.296-2.75-.361-1.513-1.008-3.202-1.437-3.754s-.943-2.577-1.141-4.5c-.347-3.353-.381-3.312-.832 1.004m31.94-.408c-3.003 3.098-10.795 8.408-12.339 8.408-.315 0-.601-1.237-.635-2.75-.063-2.72-.074-2.724-1.002-.408-.517 1.289-.707 2.718-.423 3.177.283.458-1.966 1.349-4.999 1.978-3.032.63-5.513 1.571-5.513 2.093 0 .521 1.013.7 2.25.396s3.669-.649 5.403-.769c1.733-.119 2.944-.555 2.691-.967s.299-.75 1.229-.75c2.065 0 7.472-3.209 13.214-7.843l4.288-3.459 2.754 2.638 2.754 2.639 1.713-2.9c1.693-2.865.901-3.579-1.977-1.781-.649.406-1.462.284-1.806-.272-.343-.556-1.431-1.443-2.417-1.971-1.421-.76-2.496-.234-5.185 2.541M114 120c0 .55.45 1 1 1s1-.45 1-1-.45-1-1-1-1 .45-1 1m-56.5 3c-.995 1.1-1.36 2-.81 2s1.815-.9 2.81-2 1.36-2 .81-2-1.815.9-2.81 2m63.713-.812c-1.83 1.829-1.455 3.258.441 1.684.909-.754 1.809-1.26 2-1.122.19.138.38-.076.421-.475.133-1.283-1.613-1.337-2.862-.087m-12.463.501c-2.132.558-2.35 4.311-.25 4.311.884 0 1.506-.923 1.515-2.25.011-1.546.271-1.848.83-.966.448.706 1.564.996 2.479.645.916-.351 1.386-1.089 1.045-1.641-.381-.616-.95-.479-1.479.355-.632.999-.863 1.027-.875.107-.015-1.289-.294-1.337-3.265-.561M63.5 126c-.34.55-.141 1 .441 1S65 126.55 65 126s-.198-1-.441-1-.719.45-1.059 1m31.616.2c-.064.935-.9 2.139-1.858 2.675s-1.397 1.319-.976 1.74c1.215 1.215 3.96-2.184 3.43-4.247-.403-1.57-.499-1.596-.596-.168m3.042 1.8c0 1.375.227 1.938.504 1.25.278-.687.278-1.812 0-2.5-.277-.687-.504-.125-.504 1.25m2.842.059c0 1.132.43 1.793.956 1.468s.703-1.252.393-2.059c-.793-2.067-1.349-1.824-1.349.591m20.885-.243c-4.511 3.434-10.244 6.566-16.308 8.911-4.498 1.739-5.168 2.208-2.577 1.807 1.925-.299 6.189-1.864 9.475-3.48 3.287-1.615 6.143-2.769 6.347-2.565.498.498-7.226 4.572-12.822 6.764-3.032 1.187-3.521 1.576-1.5 1.192 4.152-.79 12.494-4.719 15.5-7.301 2.115-1.817 2.192-2.056.5-1.553-1.681.5-1.606.274.472-1.42 1.36-1.108 2.822-1.798 3.25-1.534.428.265.778-.221.778-1.078 0-1.971-.212-1.954-3.115.257M65.5 128c-.34.55.051 1 .87 1 .818 0 2.194.707 3.059 1.571 1.032 1.032 1.571 1.156 1.571.361 0-1.193-2.842-3.838-4.191-3.9-.38-.018-.969.418-1.309.968m47.905 1.17c-1.8 2.049-1.804 2.132-.073 1.5 1.007-.369 2.47-.67 3.25-.67s1.418-.675 1.418-1.5c0-2.184-2.396-1.835-4.595.67m-46.388 3.58c.022.951 9.979 5.28 11.983 5.209.825-.029-.712-.916-3.417-1.972s-5.381-2.385-5.95-2.954c-1.206-1.206-2.64-1.362-2.616-.283m22.575 1.871c-.676 1.761.835 3.336 3.228 3.364 1.908.022 1.034-4.397-.944-4.774-.893-.17-1.921.464-2.284 1.41m-8.592.105c0 .518.563.98 1.25 1.027.688.048 2.263.322 3.5.609 1.237.288 2.25.099 2.25-.419 0-.519-.863-.943-1.918-.943s-2.63-.273-3.5-.607-1.582-.184-1.582.333M98 135c0 .55.648 1 1.441 1s1.719-.45 2.059-1-.309-1-1.441-1-2.059.45-2.059 1m-2.5 1c.34.55.816 1 1.059 1s.441-.45.441-1-.477-1-1.059-1-.781.45-.441 1"/></svg>