<svg xmlns="http://www.w3.org/2000/svg" width="200" height="200" fill="#000000"><path fill-opacity=".227" fill-rule="evenodd" d="M75.555 50.618C84.923 59.208 84.487 59 93.09 59h7.936l4.987 5.013L111 69.026v20.558l-4.288 4.208L102.424 98H85.446l-6.723 6.775c-3.698 3.726-6.723 7.101-6.723 7.5s7.581.725 16.847.725h16.848l9.152-9.118L124 94.764V64.458l-8.77-8.729L106.46 47H71.609zm107.485 68.834c-1.883 2.269-.856 5.048 1.865 5.048 3.154 0 4.941-2.776 3.165-4.916-1.638-1.974-3.462-2.022-5.03-.132m-163.611 8.873c-.28.729-.378 5.566-.219 10.75l.29 9.425 3.5.333c8.219.781 15-3.93 15-10.421 0-4.876-1.757-7.926-5.631-9.773-4.195-2.001-12.218-2.195-12.94-.314m21 0c-.28.729-.378 5.566-.219 10.75.274 8.911.413 9.442 2.54 9.745 2.217.314 2.25.157 2.25-10.75 0-10.46-.112-11.07-2.031-11.07-1.118 0-2.261.596-2.54 1.325m11.415.93c-4.947 4.182-6.011 8.588-3.327 13.778 1.609 3.112 6.084 5.967 9.352 5.967C62.754 149 68 143.797 68 138.953c0-1.701-.711-1.953-5.5-1.953-4.222 0-5.5.348-5.5 1.5q0 1.5 3 1.5c1.65 0 3 .395 3 .878 0 1.739-2.936 3.26-5.682 2.944-6.403-.736-6.35-10.916.061-11.65 1.576-.181 3.35.157 3.943.75 1.336 1.336 5.678 1.427 5.678.118 0-.527-1.233-2.102-2.74-3.5-3.532-3.274-8.738-3.394-12.416-.285M70 138c0 10.98.032 11.135 2.25 10.82 2.17-.309 2.25-.692 2.25-10.82s-.08-10.511-2.25-10.82c-2.218-.315-2.25-.16-2.25 10.82m8 0c0 10.333.121 11 2 11 1.704 0 2-.667 2-4.5V140h3.943c3.923 0 3.943.021 4.25 4.25.255 3.533.687 4.304 2.557 4.57 2.218.315 2.25.16 2.25-10.82s-.032-11.135-2.25-10.82c-1.807.257-2.311 1.058-2.56 4.07-.302 3.646-.42 3.75-4.25 3.75-3.93 0-3.94-.01-3.94-4 0-3.333-.333-4-2-4-1.879 0-2 .667-2 11m20.216-.25.284 10.75 6.25.298c5.729.273 6.25.127 6.25-1.75 0-1.723-.636-2.048-4-2.048-3.6 0-4-.25-4-2.5 0-2.19.433-2.5 3.5-2.5 2.833 0 3.5-.381 3.5-2s-.667-2-3.5-2c-3.067 0-3.5-.31-3.5-2.5 0-2.25.4-2.5 4-2.5 3.333 0 4-.333 4-2 0-1.796-.667-2-6.534-2h-6.534zm21.264-9.717c-.351.567-1.03 2.255-1.509 3.75-.479 1.494-1.967 5.731-3.306 9.415-1.34 3.684-2.187 6.947-1.884 7.25 1.317 1.316 4.447.397 4.929-1.448.403-1.538 1.364-2 4.166-2 2.56 0 4.014.595 4.892 2 1.218 1.951 5.232 2.837 5.232 1.155 0-1.598-5.939-17.755-7.317-19.905-.969-1.511-4.317-1.651-5.203-.217M134 138.05v11.05l5.74-.3c4.528-.237 5.811-.67 6.074-2.05.273-1.435-.401-1.75-3.741-1.75H138v-9c0-8.333-.148-9-2-9-1.879 0-2 .667-2 11.05m12-9.05c0 1.458.667 2 2.461 2 2.405 0 2.468.199 2.75 8.75.271 8.211.428 8.77 2.539 9.07 2.191.311 2.25.083 2.25-8.75V131h3c2.333 0 3-.444 3-2 0-1.833-.667-2-8-2s-8 .167-8 2m17.216 8.75c.264 9.989.426 10.75 2.284 10.75 1.638 0 2.056-.769 2.307-4.25.307-4.229.327-4.25 4.25-4.25H176v4.57c0 4.166.198 4.541 2.25 4.25 2.153-.306 2.262-.782 2.534-11.07l.284-10.75h-2.534c-2.29 0-2.534.386-2.534 4v4h-8v-4c0-3.614-.244-4-2.534-4h-2.534zM24 138c0 5.927.034 6 2.845 6 3.528 0 6.155-2.761 6.155-6.468 0-3.321-2.426-5.456-6.25-5.5-2.698-.031-2.75.082-2.75 5.968m97.204-.548c-1.572 3.451-1.55 3.548.796 3.548 2.072 0 2.379-1.179 1.133-4.345-.649-1.649-.853-1.565-1.929.797"/><path fill-opacity=".234" fill-rule="evenodd" d="M73.638 48.5c.317.825.887 1.5 1.268 1.5.38 0 2.569 1.804 4.863 4.009 4.078 3.918 4.374 4.023 13.154 4.646 8.951.636 8.997.653 13.529 5.058l4.548 4.42v21.442l-4.784 4.713L101.431 99H85.442L79 105.5l-6.442 6.5h34.185l8.628-8.629L124 94.743V64.458l-8.77-8.729L106.46 47H89.762c-14.433 0-16.621.204-16.124 1.5m108.944 72.148c-.708 1.843 1.025 4.352 3.005 4.352 2.018 0 3.73-3.684 2.166-4.66-2.313-1.444-4.55-1.31-5.171.308m.864.439c-.369.598-.168 1.591.448 2.207.827.827 1.536.704 2.709-.469 1.081-1.081 1.239-1.805.493-2.266-.603-.372-1.096-.2-1.096.382s-.477 1.059-1.059 1.059-.781-.45-.441-1 .393-1 .118-1-.802.489-1.172 1.087m-130.097 7.611c-4.955 2.47-6.832 8.954-4.239 14.645 1.976 4.335 8.726 5.962 14.139 3.407 2.678-1.263 3.712-3.354 3.737-7.555.013-2.127-.352-2.281-4.736-2-5.288.34-6.026 2.032-1.222 2.805l3.106.5-2.106 2.25c-2.659 2.841-5.38 2.862-7.989.061-2.605-2.796-2.605-6.826 0-9.622 2.391-2.567 3.863-2.73 6.52-.721 1.067.808 2.911 1.483 4.097 1.5 3.576.053 1.692-3.612-2.775-5.399-4.656-1.863-4.531-1.865-8.532.129M20 138v10h5.066c8.198 0 12.89-3.639 12.89-10s-4.692-10-12.89-10H20zm21 0c0 9.333.133 10 2 10s2-.667 2-10-.133-10-2-10-2 .667-2 10m29 0c0 9.333.133 10 2 10s2-.667 2-10-.133-10-2-10-2 .667-2 10m8 0c0 9.333.133 10 2 10 1.707 0 2-.667 2-4.557v-4.558l4.25.308c4.229.306 4.251.328 4.557 4.557.249 3.436.68 4.25 2.25 4.25 1.794 0 1.943-.765 1.943-10 0-9.23-.149-10-1.94-10-1.519 0-2.006.812-2.25 3.75-.301 3.64-.435 3.759-4.56 4.057l-4.25.308v-4.058c0-3.39-.329-4.057-2-4.057-1.867 0-2 .667-2 10m20 0v10h6.5c5.111 0 6.5-.321 6.5-1.5 0-1.083-1.111-1.5-4-1.5-3.778 0-4-.167-4-3 0-2.762.278-3 3.5-3 2.444 0 3.5-.452 3.5-1.5s-1.056-1.5-3.5-1.5c-3.044 0-3.5-.318-3.5-2.44 0-2.087.531-2.484 3.673-2.75 2.02-.17 3.857-.872 4.083-1.56.301-.915-1.354-1.25-6.173-1.25H98zm21.2-8.8c-.66.66-1.2 2.035-1.2 3.055s-.84 3.743-1.867 6.05-2.161 5.433-2.519 6.945c-.554 2.338-.335 2.75 1.461 2.75 1.271 0 2.32-.796 2.635-2 .408-1.559 1.364-2 4.339-2 2.938 0 3.962.46 4.451 2 .397 1.251 1.513 2 2.981 2 2.195 0 2.278-.209 1.296-3.25-.577-1.787-1.864-5.275-2.861-7.75s-2.091-5.512-2.432-6.75c-.685-2.49-4.248-3.086-6.284-1.05M134 138v10h5.5c4.222 0 5.5-.348 5.5-1.5 0-1.048-1.056-1.5-3.5-1.5H138v-8.5c0-7.833-.157-8.5-2-8.5-1.867 0-2 .667-2 10m12-8.5c0 .927.94 1.5 2.46 1.5 2.39 0 2.467.232 2.75 8.25.27 7.692.442 8.272 2.54 8.57 2.182.309 2.25.062 2.25-8.184 0-8.471.01-8.504 2.673-8.82 1.47-.174 2.857-.878 3.083-1.566.306-.931-1.654-1.25-7.673-1.25-6.518 0-8.083.29-8.083 1.5m17 8.5v10h2.5c2.296 0 2.5-.367 2.5-4.5V139h8v4.5c0 4.133.204 4.5 2.5 4.5h2.5v-20h-2.5c-2.25 0-2.5.4-2.5 4v4h-8v-4c0-3.6-.25-4-2.5-4H163zm-139-.559c0 3.543.412 6.696.916 7.007C27.4 145.983 34 141.212 34 137.881c0-2.643-4.71-6.881-7.646-6.881-2.228 0-2.354.344-2.354 6.441m96.762-.417c-1.391 3.385-1.365 3.485.996 3.801 3.294.442 3.498.013 1.853-3.9l-1.421-3.378z"/><path fill-opacity=".464" fill-rule="evenodd" d="M74 47.577c0 .9 5.746 6.423 6.683 6.423.46 0 1.398.9 2.085 2 1.089 1.744 2.332 2 9.698 2h8.449l5.543 5.677L112 69.353v19.914l-4.944 4.867L102.113 99H85.442L79 105.5l-6.442 6.5h33.336l8.553-8.476L123 95.048V64.18l-8.668-8.59-8.667-8.59H89.832C81.125 47 74 47.26 74 47.577M20 138v10l4.75-.004c5.877-.004 10.435-2.615 12.261-7.022 1.201-2.899 1.136-3.659-.58-6.844-2.395-4.444-5.552-6.096-11.681-6.115L20 128zm21 .073c0 9.055.177 10.04 1.75 9.739 1.5-.287 1.791-1.728 2.036-10.074.271-9.223.179-9.738-1.75-9.738-1.913 0-2.036.607-2.036 10.073m11.453-8.801c-2.286 1.147-4.453 5.092-4.453 8.106 0 8.44 7.461 13.021 14.923 9.162 2.691-1.392 4.034-3.965 4.063-7.79.011-1.409-.862-1.75-4.486-1.75-2.475 0-4.5.45-4.5 1s1.098 1 2.441 1c3.291 0 4.133 1.708 2.002 4.063-2.211 2.443-6.626 2.498-8.788.108-2.237-2.471-2.138-8.424.174-10.516 2.276-2.06 5.555-2.128 7.528-.155 1.883 1.883 4.643 1.951 4.643.115 0-3.641-8.681-5.784-13.547-3.343m17.761 8.466c.245 8.346.536 9.787 2.036 10.074 1.573.301 1.75-.684 1.75-9.739 0-9.466-.123-10.073-2.036-10.073-1.929 0-2.021.515-1.75 9.738M78 138c0 9.333.133 10 2 10 1.704 0 2-.667 2-4.5V139h9v4.573c0 3.817.29 4.518 1.75 4.239 1.5-.287 1.791-1.728 2.036-10.074.271-9.223.179-9.738-1.75-9.738-1.709 0-2.036.643-2.036 4v4h-9v-4c0-3.333-.333-4-2-4-1.867 0-2 .667-2 10m21 0v10h5.5c4.222 0 5.5-.348 5.5-1.5 0-1.083-1.111-1.5-4-1.5-3.778 0-4-.167-4-3s.222-3 4-3c5.061 0 5.264-1.775.25-2.19-3.431-.284-3.75-.565-3.75-3.31s.319-3.026 3.75-3.31c5.796-.48 4.429-2.19-1.75-2.19H99zm20.033-6.75c-.665 1.787-2.047 5.275-3.07 7.75-3.204 7.751-3.356 9-1.098 9 1.122 0 2.279-.878 2.635-2 .492-1.549 1.513-2 4.532-2 2.874 0 4.179.525 4.968 2 1.646 3.076 4.191 2.609 3.381-.62-.947-3.77-4.81-14.658-5.723-16.13-1.48-2.384-4.377-1.354-5.625 2M134 138v10h5.5c3.025 0 5.5-.45 5.5-1s-1.575-1-3.5-1H138v-9c0-8.333-.148-9-2-9-1.867 0-2 .667-2 10m12-9.066c0 .513 1.238 1.076 2.75 1.25 2.741.315 2.751.345 3.039 9.066.223 6.763.612 8.75 1.711 8.75s1.488-1.987 1.711-8.75c.288-8.721.298-8.751 3.039-9.066 5.742-.661 2.43-2.184-4.75-2.184-4.125 0-7.5.42-7.5.934M164 138c0 8.222.267 10 1.5 10 1.111 0 1.5-1.167 1.5-4.5V139h10v4.5c0 3.333.389 4.5 1.5 4.5 1.233 0 1.5-1.778 1.5-10s-.267-10-1.5-10c-1.083 0-1.5 1.111-1.5 4v4h-10v-4c0-2.889-.417-4-1.5-4-1.233 0-1.5 1.778-1.5 10m-140.588-5.631c-.289.753-.388 3.791-.219 6.75.281 4.931.521 5.406 2.862 5.679 1.469.171 3.7-.604 5.25-1.823 3.403-2.677 3.564-6.81.381-9.801-2.588-2.431-7.468-2.906-8.274-.805m97.318 3.381a41 41 0 0 1-1.224 3.5c-.595 1.446-.18 1.75 2.387 1.75 3.404 0 3.684-.64 1.946-4.453-1.356-2.978-2.405-3.246-3.109-.797"/><path fill-opacity=".172" fill-rule="evenodd" d="M76.5 50.4a116 116 0 0 1 5.802 4.989C84.851 57.765 85.843 58 93.336 58h8.232l5.216 5.281L112 68.563v21.342l-4.814 4.813-4.813 4.814-7.937-.343-7.936-.342-6.213 6.076L74.074 111H107l8-8 8-8V64.199l-8.143-8.1L106.714 48l-16.607.011-16.607.011zm-55.833 78.267c-.367.366-.667 4.694-.667 9.616v8.95l6.598-.42c5.546-.353 6.897-.81 8.477-2.867 3.867-5.031 1.623-12.81-4.29-14.871-3.446-1.201-9.097-1.429-10.118-.408M42 137.5c0 5.667.404 9.5 1 9.5s1-3.833 1-9.5-.404-9.5-1-9.5-1 3.833-1 9.5m11.052-8.073c-6.148 3.404-5.655 14.458.763 17.14 4.983 2.082 10.7.264 12.137-3.86 1.578-4.526 1.423-4.717-3.702-4.575-4.256.118-4.408.196-1.461.75 3.494.656 3.784 1.462 1.632 4.535-1.937 2.765-6.843 2.502-9.342-.5-5.286-6.349 1.855-15.903 8.172-10.935 3.011 2.369 4.749 2.585 4.749.591 0-1.678-5.391-4.588-8.404-4.538-1.153.02-3.198.646-4.544 1.392M71 137.5c0 7.778.272 9.5 1.5 9.5s1.5-1.722 1.5-9.5-.272-9.5-1.5-9.5-1.5 1.722-1.5 9.5m8 0c0 7.778.272 9.5 1.5 9.5 1.111 0 1.5-1.167 1.5-4.5V138h4.393c4.762 0 5.607.917 5.607 6.082 0 1.605.45 2.918 1 2.918.596 0 1-3.833 1-9.5s-.404-9.5-1-9.5c-.55 0-1 1.313-1 2.918 0 5.165-.845 6.082-5.607 6.082H82v-4.5c0-3.333-.389-4.5-1.5-4.5-1.228 0-1.5 1.722-1.5 9.5m20 0v9.5l5.75-.175c5.08-.154 5.248-.219 1.443-.56-4.294-.384-4.306-.396-4-4.075.288-3.467.548-3.727 4.307-4.298l4-.608-4.25-.142c-4.163-.139-4.25-.213-4.25-3.642 0-3.417.095-3.5 4-3.5 2.2 0 4-.45 4-1s-2.475-1-5.5-1H99zm35.667-8.833c-.367.366-.667 4.641-.667 9.5V147l5.75-.168c4.266-.125 4.782-.269 2-.56l-3.75-.393v-8.939c0-6.783-.322-8.94-1.333-8.94-.734 0-1.634.3-2 .667M146 129c0 .55 1.35 1 3 1h3v8.5c0 6.889.284 8.5 1.5 8.5s1.5-1.611 1.5-8.5V130h3c1.65 0 3-.45 3-1 0-.578-3.167-1-7.5-1s-7.5.422-7.5 1m18 8.5c0 7.609.287 9.5 1.443 9.5.982 0 1.54-1.356 1.75-4.25l.307-4.25h9l.307 4.25c.21 2.894.768 4.25 1.75 4.25 1.156 0 1.443-1.891 1.443-9.5 0-7.778-.272-9.5-1.5-9.5-1.111 0-1.5 1.167-1.5 4.5v4.5h-10v-4.5c0-3.333-.389-4.5-1.5-4.5-1.228 0-1.5 1.722-1.5 9.5m-44.998-6.004c-.551 1.449-1.002 3.073-1.002 3.609s-.9 2.739-2 4.895-2 4.613-2 5.46c0 2.247 2.756 1.885 3.5-.46.928-2.924 7.712-2.82 9.683.148 2.288 3.447 3.885 1.98 2.34-2.148a518 518 0 0 1-2.55-7c-2.022-5.707-2.572-6.484-4.824-6.819-1.553-.231-2.423.408-3.147 2.315m-95.335-.829c-.367.366-.667 3.741-.667 7.5V145h3.035c5.054 0 7.965-2.605 7.965-7.13 0-3.326-.478-4.191-3.25-5.881-3.325-2.027-5.898-2.508-7.083-1.322m96.859 5.283c-2.442 4.722-2.009 6.05 1.974 6.05 1.925 0 3.5-.395 3.5-.878 0-1.27-2.942-8.122-3.488-8.122-.253 0-1.147 1.328-1.986 2.95"/></svg>