<svg xmlns="http://www.w3.org/2000/svg" width="64" height="64" version="1.1" fill="#000000"><path fill-opacity=".392" d="M 21.882 1.321 C 13.461 4.468, 7.135 10.077, 2.759 18.278 C 0.876 21.805, 0.505 24.063, 0.503 32 C 0.500 40.644, 0.765 41.978, 3.438 46.804 C 6.776 52.829, 11.936 57.860, 18.205 61.204 C 21.815 63.129, 24.015 63.494, 32 63.494 C 39.985 63.494, 42.185 63.129, 45.795 61.204 C 52.440 57.660, 57.502 52.525, 60.545 46.239 C 62.073 43.083, 63.701 39.719, 64.162 38.764 C 65.376 36.249, 65.234 23.738, 64 24.500 C 63.450 24.840, 62.996 24.304, 62.991 23.309 C 62.976 20.431, 57.489 11.636, 53.550 8.178 C 47.219 2.619, 42.298 0.689, 33.500 0.312 C 28.420 0.095, 24.180 0.463, 21.882 1.321 M 33 27 L 30.959 31 34.605 31 C 38.154 31, 38.234 30.918, 37.625 27.875 C 37.281 26.156, 37 24.356, 37 23.875 C 37 21.688, 34.855 23.364, 33 27 M 0.336 32 C 0.336 36.125, 0.513 37.813, 0.728 35.750 C 0.944 33.688, 0.944 30.313, 0.728 28.250 C 0.513 26.188, 0.336 27.875, 0.336 32" stroke="none" fill="#000000" fill-rule="evenodd"/><path fill-opacity=".181" d="M 22.396 1.418 C 12.518 4.510, 3.417 14.211, 0.921 24.309 C -4.753 47.272, 16.728 68.753, 39.691 63.079 C 49.830 60.573, 60.835 50.079, 62.604 41.229 C 62.964 39.430, 63.650 37.716, 64.129 37.420 C 64.608 37.124, 65 34.182, 65 30.882 C 65 27.582, 64.605 25.126, 64.122 25.425 C 63.639 25.723, 62.953 24.512, 62.597 22.734 C 61.607 17.782, 55.608 9.515, 50.411 5.939 C 42.120 0.235, 31.601 -1.463, 22.396 1.418 M 24.208 20.553 C 21.343 26.312, 19 31.131, 19 31.262 C 19 31.393, 20.363 31.500, 22.029 31.500 C 24.645 31.500, 25.185 31.024, 25.993 28 C 27.985 20.540, 30.082 10.749, 29.757 10.423 C 29.569 10.236, 27.072 14.794, 24.208 20.553 M 35.439 22.792 C 34.301 23.564, 30 30.345, 30 31.368 C 30 31.716, 32.083 32, 34.628 32 L 39.256 32 38.577 27.750 C 37.823 23.033, 37 21.733, 35.439 22.792 M 0.320 32 C 0.320 35.575, 0.502 37.038, 0.723 35.250 C 0.945 33.462, 0.945 30.538, 0.723 28.750 C 0.502 26.962, 0.320 28.425, 0.320 32 M 27.399 47.402 C 27.104 48.172, 28.031 50.985, 29.460 53.652 C 32.053 58.490, 32.091 58.262, 30.021 50.250 C 28.860 45.755, 28.275 45.120, 27.399 47.402" stroke="none" fill="#000000" fill-rule="evenodd"/><path fill-opacity=".48" d="M 22.300 1.862 C 11.528 5.584, 4.524 12.949, 1.339 23.905 C -2.808 38.171, 4.814 54.363, 18.661 60.702 C 36.140 68.704, 57.103 59.480, 62.189 41.548 C 62.821 39.321, 63.711 37.072, 64.169 36.550 C 65.143 35.437, 65.315 25.352, 64.343 26.324 C 63.982 26.685, 62.933 24.757, 62.014 22.040 C 58.538 11.772, 51.049 4.577, 40.614 1.478 C 34.095 -0.458, 28.686 -0.344, 22.300 1.862 M 25.210 17.553 C 21.794 24.410, 19 30.466, 19 31.010 C 19 31.555, 20.495 32, 22.322 32 L 25.644 32 28.755 18.767 C 30.467 11.489, 31.766 5.433, 31.643 5.310 C 31.520 5.187, 28.625 10.697, 25.210 17.553 M 34.052 8.280 C 34.023 8.709, 35.125 11.733, 36.500 15 C 37.875 18.267, 39 21.147, 39 21.400 C 39 21.654, 38 22.005, 36.777 22.180 C 34.834 22.460, 30.069 28.852, 30.016 31.250 C 30.007 31.663, 33.009 32, 36.687 32 L 43.374 32 40.437 35.119 L 37.500 38.238 40 37.532 C 42.707 36.768, 46.032 33.475, 45.948 31.639 C 45.886 30.262, 34.125 7.170, 34.052 8.280 M 0.300 32 C 0.300 35.025, 0.487 36.263, 0.716 34.750 C 0.945 33.237, 0.945 30.762, 0.716 29.250 C 0.487 27.738, 0.300 28.975, 0.300 32 M 32.932 42.574 L 29.500 46.118 28.282 43.144 C 27.367 40.911, 26.576 40.298, 25.102 40.684 C 23.242 41.170, 23.324 41.596, 26.663 48.848 C 28.601 53.057, 30.417 57.063, 30.700 57.750 C 30.983 58.438, 31.527 59, 31.910 59 C 32.713 59, 37.432 40.098, 36.789 39.456 C 36.555 39.222, 34.819 40.625, 32.932 42.574" stroke="none" fill="#000000" fill-rule="evenodd"/><path fill-opacity=".621" d="M 24.081 1.537 C 17.074 3.488, 12.992 6.066, 8.083 11.643 C 0.873 19.834, -1.294 31.912, 2.460 42.990 C 5.028 50.569, 13.431 58.972, 21.010 61.540 C 33.323 65.712, 45.123 63.037, 54.129 54.031 C 58.666 49.494, 60.116 47.214, 61.497 42.441 C 62.443 39.174, 63.618 35.719, 64.109 34.764 C 65.327 32.390, 65.246 27.730, 64 28.500 C 63.450 28.840, 63 28.272, 63 27.237 C 63 18.644, 52.746 5.731, 43.490 2.669 C 36.004 0.193, 30.141 -0.149, 24.081 1.537 M 24.750 17.547 L 18.084 31.094 24.674 45.547 C 28.298 53.496, 31.542 59.982, 31.882 59.961 C 32.675 59.911, 46 32.720, 46 31.151 C 46 29.373, 33.105 4, 32.201 4 C 31.769 4, 28.416 10.096, 24.750 17.547 M 29.080 18.978 C 26.287 30.728, 26.042 32.881, 26.985 37.392 C 27.572 40.201, 28.383 43.026, 28.786 43.670 C 29.830 45.336, 37.602 37.861, 38.228 34.588 C 38.699 32.124, 38.514 32, 34.361 32 C 31.963 32, 30 31.762, 30 31.471 C 30 31.181, 31.330 28.308, 32.956 25.087 C 36.078 18.903, 36.192 15.140, 33.459 8.587 C 32.310 5.832, 32.071 6.399, 29.080 18.978 M 0.232 32 C 0.232 33.925, 0.438 34.712, 0.689 33.750 C 0.941 32.788, 0.941 31.212, 0.689 30.250 C 0.438 29.288, 0.232 30.075, 0.232 32" stroke="none" fill="#000000" fill-rule="evenodd"/></svg>