<svg xmlns="http://www.w3.org/2000/svg" width="25" height="24" fill="#000000"><g clip-path="url(#a)"><path fill="#292929" d="M12.993 24c6.628 0 12-5.373 12-12s-5.372-12-12-12c-6.627 0-12 5.373-12 12s5.373 12 12 12Z"/><path fill="#3d3d3d" d="M12.993 22.045c5.548 0 10.046-4.498 10.046-10.046 0-5.548-4.498-10.046-10.046-10.046C7.445 1.953 2.947 6.451 2.947 12c0 5.548 4.498 10.046 10.046 10.046Z"/><path fill="url(#b)" d="M12.993 19.534a7.535 7.535 0 1 0 0-15.07 7.535 7.535 0 0 0 0 15.07Z"/></g><defs><radialGradient id="b" cx="0" cy="0" r="1" gradientTransform="translate(12.993 12) scale(7.53456)" gradientUnits="userSpaceOnUse"><stop stop-color="#8c8c8c"/><stop offset="1" stop-color="#616161"/></radialGradient><clipPath id="a"><path fill="#ffffff" d="M.993 0h24v24h-24z"/></clipPath></defs></svg>