<svg xmlns="http://www.w3.org/2000/svg" width="200" height="200" fill="#000000"><path fill-opacity=".318" fill-rule="evenodd" d="M87 .731c-4.872.573-5.712 1.825-2.076 3.093 2.904 1.012 4.501 2.536 1.826 1.742-8.886-2.636-10.606-2.75-16.397-1.082C58.17 7.995 42.09 17.094 32.931 25.661 30.219 28.198 28 30.627 28 31.059s1.605 1.316 3.567 1.963c4.438 1.465 3.837 2.46-.724 1.2-2.005-.553-4.146-.561-5.344-.019C23.68 35.026 18 42 18 43.41c0 .324 1.238.591 2.75.591 1.512.001 7.475 1.149 13.25 2.551s14.946 3.413 20.379 4.469l9.88 1.92 2.12-2.716c5.645-7.23 16.774-20.047 19.732-22.725 1.822-1.65 2.819-2.325 2.215-1.5-19.674 26.879-21.381 29.625-24.872 40-1.018 3.025-3.04 6.85-4.492 8.5s-5.16 6.6-8.238 11c-8.971 12.821-10.788 14.653-17.599 17.742C21.268 108.62 13.445 111 7.629 111c-5.166 0-5.63-.185-5.644-2.25-.009-1.237-.474-2.925-1.034-3.75-1.542-2.271-.054 12.049 2.183 21 3.459 13.844 18.82 40.51 24.616 42.734 1.082.416 2.706-.653 4.969-3.272 3.308-3.827 3.327-3.901 1.176-4.697-1.202-.444-2.008-.938-1.79-1.097.602-.44 28.397 1.257 36.895 2.253l7.5.879-9.917-.148c-6.736-.101-10.041.223-10.303 1.008-.212.636.088 1.45.667 1.807.579.358 1.053 1.328 1.053 2.156s1.107 3.926 2.461 6.884l2.46 5.38 19.79-.371c14.673-.274 17.592-.156 11.289.458-4.675.455-13.562.872-19.75.927L63 181v4.566c0 2.511.441 5.389.979 6.395 1.419 2.651 6.265 4.016 14.92 4.202 7.439.16 7.484.176 2.101.75l-5.5.587 8.5 1.332c4.675.733 12.55 1.183 17.5 1 8.334-.307 8.979-.48 8.723-2.332-.263-1.895-.203-1.906 1.137-.213 1.272 1.606 2.102 1.678 8.196.704 17.28-2.76 34.565-11.689 49.283-25.457 6.085-5.692 6.293-6.036 4.038-6.668-2.233-.626-2.202-.673.513-.766 1.589-.055 3.522-.887 4.295-1.85 3.818-4.754 11.299-16.8 11-17.713-.186-.57-1.465-1.172-2.841-1.337-3.37-.404-11.344-7.2-11.344-9.669 0-1.442-1.337-2.477-5-3.87-9.38-3.568-21.985-6.754-36.41-9.202-7.926-1.346-14.639-2.674-14.917-2.953-.98-.98.773-1.746 5.116-2.235l4.388-.495 1.559-8.638c.858-4.751 2.066-9.93 2.683-11.509.993-2.537 1.484-2.798 4.227-2.25 1.707.342 4.735.635 6.729.653 3.16.028 3.409.196 1.94 1.313-1.4 1.064-1.485 1.678-.5 3.622 2.458 4.854 5.539 6.042 18.723 7.221 6.854.613 14.037 1.074 15.962 1.024 2.566-.067 2.987.113 1.576.673-1.539.61-.588 1.298 4.761 3.439 8.004 3.204 13.663 3.567 13.663.876 0-.99.446-2.246.992-2.792 1.716-1.716-.684-26.123-3.538-35.969C182.344 24.747 137.295-5.178 87 .731m12 7.675C99 9.432 108.563 15 110.326 15c1.953 0 1.954-.033.081-2.102C108.008 10.247 103.716 8 101.05 8c-1.128 0-2.05.183-2.05.406m37.431 6.168c1.433 1.432 1.304 1.845-1.428 4.577-3.393 3.393-3.591 4.116-1.584 5.782 1.12.93 1.663.797 2.576-.628.967-1.51 1.071-1.529.636-.118-.286.929-1.012 3.516-1.614 5.75S133.452 34 132.876 34c-.575 0 .713 1.998 2.863 4.441C139.697 42.938 142 48.47 142 53.483c0 2.258-.358 2.657-2 2.227-3.173-.829-2.394-.123 3.588 3.253 8.936 5.043 14.365 6.643 6.912 2.037-2.632-1.627-3.5-2.848-3.5-4.923 0-5.623-2.862-12.36-7.073-16.652l-4.172-4.25 1.781-9.454C139.393 15.858 139.152 13 136.46 13c-1.458 0-1.461.142-.029 1.574M94 18.081c-1.187.831-1.048.924.666.444 2.72-.762 3.673.723 3.992 6.217.137 2.348.69 5.054 1.23 6.013.913 1.622 1.04 1.604 1.797-.255.911-2.236.456-2.139 11.065-2.365 4.36-.093 7.195-.518 6.482-.97-.882-.56.26-1.795 3.75-4.057 6.517-4.222 6.458-4.971-.097-1.227-4.812 2.748-5.313 2.838-8.468 1.52-3.905-1.632-6.991-1.783-3.667-.181 3.608 1.74 2.62 2.78-2.641 2.78-4.746 0-4.938-.115-6.44-3.87-1.915-4.786-4.596-6.201-7.669-4.049m41.667 24.586c-1.137 1.137-.735 4.857.743 6.879 1.325 1.812 1.452 1.707 2.099-1.744.87-4.635-.631-7.346-2.842-5.135m-118.905 5.04c1.244.239 3.044.23 4-.02s-.062-.446-2.262-.435-2.982.216-1.738.455m7.051.976c.721.289 1.584.253 1.916-.079s-.258-.568-1.312-.525c-1.165.048-1.402.285-.604.604m100.341.869c.191.98.951 1.984 1.692 2.23.86.287 1.22-.194 1-1.334-.191-.98-.951-1.984-1.692-2.23-.86-.287-1.22.194-1 1.334m-112.527 3.62C7.121 60.065 1.025 79.051 1.007 86.25c-.006 2.183.457 2.753 2.243 2.765 1.67.012 1.895.241.872.889-.786.497-1.048 1.406-.611 2.114.422.682.735 4.344.696 8.137l-.071 6.896 5.182-.615c5.514-.655 18.957-5.201 19.515-6.6.184-.46.859-.847 1.5-.861 2.268-.048 10.37-6.807 12.512-10.436 1.926-3.265 1.972-3.621.412-3.166-.966.282-4.007.751-6.757 1.041-4.425.468-4.162.317 2.283-1.309 9.059-2.286 10.402-3.411 3.199-2.678l-5.482.558L41 81.66c7.734-2.279 7.734-2.676 0-2.215l-7.5.447 7.5-1.79c4.408-1.052 7.397-2.267 7.25-2.946C48.112 74.52 48.9 74 50 74c2.569 0 2.553-2.03-.039-4.811C48.84 67.985 48.393 67 48.97 67c.681 0 .632-.665-.14-1.9-.652-1.045-1.696-1.705-2.318-1.466s-2.905-.77-5.072-2.241c-5.488-3.727-11.899-6.419-18.94-7.953-3.3-.719-6.754-1.598-7.676-1.952q-1.675-.645-3.197 1.684M116.37 63.537c5.163 2.781 5.137 3.829-.12 4.937-2.757.581-3.25.4-3.25-1.195 0-1.033-.54-2.419-1.2-3.079-1.687-1.687-7.31-1.495-8.8.3-.852 1.027-.893 1.5-.129 1.5 1.973 0 .546 4.491-1.475 4.644-1.043.079-2.444.191-3.115.25-.67.058-.975.74-.677 1.516.918 2.393 4.941 2.677 9.537.674 2.398-1.044 7.007-2.124 10.242-2.398 3.346-.284 6.251-1.079 6.735-1.843 1.176-1.856 1.098-5.816-.118-5.968-.55-.069-2.237-.257-3.75-.417-1.513-.161-4.1-.574-5.75-.918-2.396-.499-2.02-.098 1.87 1.997m24.297 4.13c-.829.828-.878 4.789-.069 5.597 1.086 1.086 3.286-.402 2.732-1.847-.299-.779-.06-1.417.532-1.417.591 0 .816-.675.5-1.5-.598-1.556-2.535-1.993-3.695-.833M156.158 70c0 1.375.227 1.938.504 1.25.278-.687.278-1.812 0-2.5-.277-.687-.504-.125-.504 1.25M147 78.893c0 .491.652 1.143 1.449 1.449q1.452.56.893-.893c-.607-1.582-2.342-1.994-2.342-.556m-117.731 1.8c.973.254 2.323.237 3-.037s-.119-.481-1.769-.461-2.204.244-1.231.498m-5.456.99c.721.289 1.584.253 1.916-.079s-.258-.568-1.312-.525c-1.165.048-1.402.285-.604.604m-10 2c.721.289 1.584.253 1.916-.079s-.258-.568-1.312-.525c-1.165.048-1.402.285-.604.604m18.937-.021c.688.278 1.813.278 2.5 0 .688-.277.125-.504-1.25-.504s-1.937.227-1.25.504m-4.937 1.021c.721.289 1.584.253 1.916-.079s-.258-.568-1.312-.525c-1.165.048-1.402.285-.604.604m-25.063.979c.688.278 1.813.278 2.5 0 .688-.277.125-.504-1.25-.504s-1.937.227-1.25.504m20.063.021c.721.289 1.584.253 1.916-.079s-.258-.568-1.312-.525c-1.165.048-1.402.285-.604.604m-10 2c.721.289 1.584.253 1.916-.079s-.258-.568-1.312-.525c-1.165.048-1.402.285-.604.604m14.937-.021c.688.278 1.813.278 2.5 0 .688-.277.125-.504-1.25-.504s-1.937.227-1.25.504m-5.481 1.031c.973.254 2.323.237 3-.037s-.119-.481-1.769-.461-2.204.244-1.231.498m-5.519.969c.688.278 1.813.278 2.5 0 .688-.277.125-.504-1.25-.504s-1.937.227-1.25.504m-5.481 1.031c.973.254 2.323.237 3-.037s-.119-.481-1.769-.461-2.204.244-1.231.498m-5.456.99c.721.289 1.584.253 1.916-.079s-.258-.568-1.312-.525c-1.165.048-1.402.285-.604.604M.232 107c0 1.925.206 2.713.457 1.75.252-.963.252-2.537 0-3.5-.251-.963-.457-.175-.457 1.75m156.49 2.007c-1.528.459-4.391 2.252-6.363 3.983-3.211 2.819-4.017 3.075-7.722 2.456-2.275-.38-4.362-1.017-4.637-1.414-.275-.398-1.686-1.014-3.136-1.368-2.165-.53-2.743-.245-3.236 1.596-.935 3.489-.856 3.605 3.122 4.606 2.063.519 10.05 2.548 17.75 4.508 11.134 2.835 14.836 3.4 18.084 2.76 2.702-.532 5.579-.358 8.5.515 2.429.727 5.766 1.389 7.416 1.472 2.246.113 2.454.258.828.575-1.195.232-4.508-.002-7.362-.52-2.854-.519-6.37-.628-7.814-.241-2.467.659-2.277.861 3.141 3.342 8.493 3.888 16.583 6.26 17.597 5.16 1.248-1.354 5.11-13.075 5.11-15.508 0-1.548-.459-1.918-1.839-1.48-2.23.708-8.489-1.777-11.131-4.419-3.425-3.425-7.952-5.109-16.325-6.071-4.513-.519-8.43-.909-8.705-.865-.275.043-1.75.454-3.278.913m-45.207 37.969c-.532.86-6.034 4.224-17.087 10.447-3.018 1.699-3.629 2.91-1.595 3.159 2.124.259 6.913 1.672 8.403 2.478 2.388 1.292 2.795 1.185 2.126-.56-.445-1.159.3-1.536 3.281-1.66 3.693-.153 3.719-.177.607-.563-2.652-.329-3.25-.846-3.25-2.803 0-1.813 1.466-3.395 6-6.474 3.3-2.241 6-4.283 6-4.537 0-.896-3.889-.451-4.485.513m34.235-.27c1.238.238 3.262.238 4.5 0 1.238-.239.225-.434-2.25-.434s-3.488.195-2.25.434m14.063-.023c.721.289 1.584.253 1.916-.079s-.258-.568-1.312-.525c-1.165.048-1.402.285-.604.604M85.25 160.689c.963.252 2.537.252 3.5 0 .963-.251.175-.457-1.75-.457s-2.713.206-1.75.457m-46.958 3.032c-.986 1.529-3.142 4.031-4.792 5.561l-3 2.782 4.42 3.968c2.431 2.183 4.77 3.968 5.198 3.968s1.936 1.072 3.349 2.382c2.109 1.954 16.324 9.618 17.84 9.618.237 0-.295-2.455-1.182-5.455-1.438-4.862-1.94-5.497-4.619-5.84l-3.006-.385 3.317-.16c2.956-.143 3.241-.405 2.618-2.41-.385-1.238-1.09-2.4-1.567-2.583S56 174.032 56 173.052s-.833-2.855-1.851-4.167-1.678-2.88-1.466-3.485c.631-1.809-1.873-3.094-7.391-3.796-4.923-.625-5.306-.509-7 2.117m39.521-2.038c.721.289 1.584.253 1.916-.079s-.258-.568-1.312-.525c-1.165.048-1.402.285-.604.604m-2.708 7.245c1.19 1.61 1.906 3.602 1.589 4.427s.073 2.037.865 2.694c1.221 1.014 1.341.684.792-2.177-1.063-5.53-2.21-7.872-3.856-7.872-1.268 0-1.155.541.61 2.928m32.463.572c3.432 4.5 4.103 4.507 1.191.012-1.242-1.918-2.619-3.493-3.06-3.5-.44-.006.401 1.563 1.869 3.488m-14.818 7.245c5.087.182 13.412.182 18.5 0 5.087-.181.925-.33-9.25-.33s-14.338.149-9.25.33m10.25 2.648c0 .949 2.993 1.427 3.527.563.325-.526-.336-.956-1.468-.956s-2.059.177-2.059.393m10.813.29c.721.289 1.584.253 1.916-.079s-.258-.568-1.312-.525c-1.165.048-1.402.285-.604.604m-68.063.979c.688.278 1.813.278 2.5 0 .688-.277.125-.504-1.25-.504s-1.937.227-1.25.504"/><path fill-opacity=".045" fill-rule="evenodd" d="M125.189 5.743c.207 1.076 2.754 2.71 6.654 4.268 3.474 1.388 6.805 3.416 7.401 4.506s2.36 3.306 3.92 4.923S146 23.088 146 23.955c0 2.359 3.818 9.143 7.068 12.56 2.128 2.237 2.709 3.62 2.254 5.363-.536 2.049-.34 2.262 1.532 1.668 1.28-.406 2.146-.25 2.146.387 0 .587-.45 1.067-1 1.067s-1 .342-1 .76c0 .995 4.488 5.818 6.738 7.242 1.259.796 1.405 1.264.512 1.639-1.73.727-1.569 3.299.25 3.997.825.317 1.5 1.255 1.5 2.085 0 1.253 1.149 1.414 6.75.947 5.754-.479 6.147-.419 2.667.41-4.425 1.053-5.311 3.085-2.672 6.123.814.937 1.594 3.149 1.733 4.915.304 3.868 3.091 6.18 6.522 5.411 2.272-.509 2.341-.434.75.816-2.356 1.852-2.203 3.128.597 4.963 1.29.845 2.903 3.034 3.583 4.865.68 1.83 1.665 4.133 2.187 5.118.523.985.684 2.222.358 2.75-.328.53.887 1.02 2.716 1.095 2.348.097 2.655.262 1.059.57-1.238.238-2.25.755-2.25 1.148 0 1.18 5.654 4.146 7.904 4.146 2.516 0 2.678-2.687.992-16.5-4.465-36.585-29.914-68.578-64.218-80.729-9.186-3.254-9.933-3.335-9.489-1.028M60.5 8.395c-4.211 1.995-4.684 2.479-3 3.069 1.1.385 5.825 2.451 10.5 4.592C77.444 20.379 84.502 23 86.702 23c3.275 0-9.983-14.205-14.837-15.897-4.424-1.542-5.686-1.399-11.365 1.292M41.349 19.406c-3.217 2.424-6.94 5.574-8.273 7L30.651 29h5.675c5.582 0 8.289 1.925 2.924 2.079-2.095.06-1.365.561 3.065 2.105 4.314 1.503 6.063 2.68 6.778 4.56 1.283 3.375.843 3.598-3.718 1.882-4.945-1.86-11.305-2.575-13.875-1.558-1.646.651-1.696.804-.285.862.943.038 2.161.904 2.706 1.923.862 1.61.669 1.791-1.464 1.383-1.352-.258-2.457-.204-2.457.119 0 .891 9.898 3.543 15 4.019 2.475.231 5.85.745 7.5 1.142 2.9.697 2.933.666 1-.927-1.894-1.562-1.702-1.616 3.632-1.019 4.405.494 6.2.259 8.241-1.079 1.436-.94 2.362-2.111 2.059-2.6-.302-.49-.186-.893.259-.896.445-.002 2.247-1.352 4.005-3C73.453 36.348 75.173 35 75.517 35s1.24-.614 1.99-1.364c1.018-1.018 1.076-1.653.229-2.5-.848-.848-.424-1.136 1.671-1.136 2.084 0 2.659-.386 2.231-1.5-.402-1.049.092-1.514 1.643-1.548 5.482-.119-13.86-8.043-23.152-9.486-1.446-.224-4.429-.86-6.629-1.413-5.788-1.455-5.757-1.463-12.151 3.353m86.054.594c-3.143 2.75-6.094 5-6.559 5-2.167 0-.424 1.805 3.656 3.788 4.104 1.994 4.502 2.033 4.523.449.012-.955 1.538-4.549 3.391-7.987 4.173-7.744 2.8-8.086-5.011-1.25m-35.519 1.75c-1.369 1.512-3.815 4.775-5.435 7.25s-5.474 8.1-8.565 12.5c-6.808 9.692-13.406 22.407-14.762 28.449-.55 2.447-1.845 5.147-2.879 6C57.599 78.13 48.867 89.63 45.779 95c-3.751 6.52-6.301 8.506-15.896 12.374-11.958 4.82-17.557 6.294-23.58 6.204l-5.196-.078.559 4.5c.836 6.734 5.977 21.643 9.999 29 6.662 12.186 4.009 11.04 27.372 11.818 27.283.909 44.517.64 49.976-.781 6.108-1.59 20.053-10.017 19.735-11.926-.216-1.298 3.219-1.463 26.252-1.26 27.953.247 30.206.541 43.5 5.687 5.545 2.146 6.097 2.197 7.279.662 1.835-2.384 1.106-4.444-1.726-4.875-4.578-.697-13.104-5.678-13.685-7.996-.306-1.219-.294-2.64.027-3.159.845-1.367-1.188-2.751-7.407-5.041-8.713-3.207-20.771-5.973-31.019-7.115-13.019-1.449-15.724-2.014-16.998-3.549-1.39-1.675 1.075-3.129 6.875-4.056 4.431-.709 4.483-.79 6.03-9.409.543-3.025 1.591-7.3 2.329-9.5 1.469-4.38.6-4.172 12.024-2.876 4.781.542 5.833.378 6.36-.994.538-1.404 1.132-1.204 4.056 1.363 5.448 4.784 11.375 3.313 11.34-2.814-.023-3.948-1.069-5.013-6.542-6.66-2.719-.818-6.518-2.459-8.443-3.647l-3.5-2.159 2.5-.966c1.375-.531 3.481-1.343 4.681-1.803 1.633-.628 2.355-2.001 2.875-5.466.775-5.174.29-5.984-4.142-6.916-2.217-.466-3.697-.144-5.257 1.145-1.997 1.649-2.057 2.011-.742 4.507 1.29 2.451 1.239 2.957-.534 5.21-1.707 2.171-2.283 2.35-4.422 1.375-1.352-.616-2.493-1.385-2.536-1.71a78 78 0 0 0-.449-2.589c-.205-1.1.279-2.997 1.077-4.215 1.927-2.945 1.865-3.393-1.068-7.714-1.384-2.04-2.295-4.066-2.025-4.503.801-1.296-2.386-15.029-4.092-17.632-2.104-3.211-6.975-6.038-11.866-6.887-3.714-.644-3.857-.586-2 .809 1.865 1.402 1.713 1.475-2.25 1.073-13.07-1.325-11.995-1.46-13.294 1.675C100.275 38.163 99 37.707 99 33.047c0-2.174-.524-5.102-1.164-6.507-1.078-2.367-1.292-2.437-2.93-.955-1.64 1.484-1.728 1.451-1.228-.46.296-1.133 1.165-2.579 1.93-3.215.766-.635 1.392-1.55 1.392-2.032 0-1.784-2.7-.796-5.116 1.872m39.783 4.917c-1.025 1.025-.79 5.139.333 5.833.595.368 1-.823 1-2.941 0-3.655-.18-4.045-1.333-2.892M24.75 35.662c.688.278 1.813.278 2.5 0 .688-.277.125-.504-1.25-.504s-1.937.227-1.25.504M56 42.031c0 .533.675.969 1.5.969s1.5-.177 1.5-.393-.675-.652-1.5-.969-1.5-.139-1.5.393m35.084 7.863c-4.835 6.104-3.798 8.261 1.734 3.606 1.634-1.375 3.295-2.5 3.691-2.5.397 0-.016 1.125-.917 2.5S94.366 56 94.87 56c1.623 0 2.166 3.107.784 4.489-.832.832-1.268 3.288-1.151 6.481.236 6.409 2.836 10.18 7.834 11.362 3.162.748 4.052.519 6.73-1.735 2.368-1.993 4.291-2.632 8.26-2.749 5.451-.161 5.901-.225 9.321-1.333 2.096-.678 2.275-1.442 1.062-4.515-.326-.825-.736-2.4-.912-3.5-.254-1.596-1.427-2.162-5.808-2.801-3.02-.441-7.354-.778-9.632-.749-4.218.054-6.188-1.756-4.669-4.29.42-.701.062-.647-.907.138-1.353 1.096-1.839.959-3.128-.882-.88-1.256-2.148-1.94-2.996-1.615-1.279.491-1.288.216-.07-2.119 1.94-3.718 1.769-4.853-.838-5.552-3.832-1.027-4.489-.747-7.666 3.264m32.301-3.129c-.614.404-1.42 1.711-1.792 2.904-.56 1.795.051 2.602 3.555 4.691 2.327 1.388 4.592 2.301 5.032 2.029.896-.554-3.798-10.398-4.947-10.374-.403.009-1.235.346-1.848.75m15.282 2.902c-1.243 1.242-.676 5.116.833 5.695 1.156.443 1.5-.221 1.5-2.893 0-3.282-.842-4.293-2.333-2.802M9.038 59.082C5.647 66.084 2 78.177 2 82.422c0 2.38.334 2.72 2.25 2.294 1.238-.276 8.913-1.772 17.056-3.326 8.607-1.642 14.05-3.093 13-3.466-1.41-.5-1.094-.799 1.444-1.362 4.083-.906 4.137-2.607.158-4.957-2.582-1.525-4.518-1.739-11.75-1.294-6.53.401-7.429.327-3.658-.302 2.75-.459 7.899-.873 11.441-.921 5.885-.08 6.274-.215 4.5-1.555-1.067-.807-4.542-1.993-7.722-2.636-7.862-1.59-6.486-2.329 1.906-1.022 3.728.58 6.952.881 7.164.669.213-.213-2.24-1.177-5.451-2.144-3.211-.966-6.738-2.633-7.838-3.703-1.992-1.939-1.989-1.944 1-1.392 1.65.305 3.861.888 4.914 1.295 1.328.513 1.695.386 1.199-.417-.778-1.26-8.626-3.664-15.331-4.698l-4.218-.65zm6.462 2.454c1.65.756 3.843 1.394 4.872 1.419 1.553.037 1.66-.212.628-1.455-.718-.865-2.781-1.466-4.872-1.419l-3.628.081zm19 19.145c-8.09 1.028-31.115 5.671-31.95 6.442-1.723 1.591 4.656.912 19.724-2.099 16.62-3.321 23.551-5.783 12.226-4.343M21.622 86.54C11.026 88.666 6.479 90 9.827 90c1.85 0 27.629-5.125 28.09-5.584.915-.914-5.005-.142-16.295 2.124m128.482-1.209c1.433.643 3.458 1.83 4.5 2.639 1.116.865.899.351-.528-1.25-1.334-1.496-3.359-2.683-4.5-2.639-1.835.072-1.773.217.528 1.25M20.5 89.864l-15 2.667-.206 3.702c-.114 2.037.246 3.982.798 4.324.657.406.612 1.094-.13 1.988-3.245 3.911 4.094 4.154 14.038.466l5.5-2.04-9 .417c-9.695.45-6.483-.582 5.759-1.849 3.718-.385 7.398-1.339 8.179-2.12.78-.78 2.201-1.419 3.157-1.419s1.441-.297 1.078-.66.244-1.294 1.35-2.069 1.739-1.847 1.408-2.383c-.332-.537-.059-1.631.605-2.432 1.601-1.928.929-1.874-17.536 1.408m138.805 21.635c-2.726 1.909-6.628 8.169-5.864 9.406 1.357 2.195 10.809 4.341 16.286 3.697 4.507-.529 6.259-.25 9.935 1.586 3.411 1.704 4.644 1.935 5.233.982.853-1.38 5.374-.162 6.567 1.768.361.584 1.476 1.062 2.478 1.062 1.322 0 2.13-1.22 2.941-4.443 1.44-5.717 1.414-6.047-.36-4.575-2.536 2.106-10.908-.55-15.43-4.894-5.904-5.673-16.925-7.994-21.786-4.589m-37.951 36.422c-4.003.377-6.881 1.243-8.25 2.484-2.431 2.201-2.706 3.595-.711 3.595.766 0 1.673.729 2.015 1.621.473 1.232.157 1.498-1.318 1.113-3.372-.882-1.191 2.173 2.267 3.175 2.6.753 2.742.926.82 1.001-3.208.124-2.496 3.477.833 3.925 3.878.521 4.863 2.165 1.297 2.165-4.233 0-4.823 2.312-1.514 5.934 2.508 2.746 3.325 2.999 10.711 3.318 7.308.316 7.066.363-2.813.547-6.904.128-10.586.562-10.191 1.201.34.55 3.066 1 6.059 1s5.441.338 5.441.75c0 .756-1.74.927-12.257 1.203-5.614.147-5.727.206-4.549 2.349.664 1.209 1.349 3.048 1.522 4.088.173 1.039 1.182 3.852 2.243 6.25 2.305 5.21 3.642 5.411 14.977 2.252 9.622-2.682 18.243-6.861 18.837-9.131.52-1.989 2.227-2.408 2.227-.547 0 .793.555.659 1.598-.383 2.489-2.49.104-11.431-6.356-23.831-4.751-9.118-5.052-10.006-2.284-6.75 3.226 3.795 5.736 5.002 4.68 2.25-.831-2.168.666-1.844 2.101.454 1.562 2.502 5.261 4.597 5.261 2.981 0-1.628-6.783-8.187-7.81-7.552-.473.292-1.586-.991-2.473-2.851l-1.613-3.382-7.302.096c-4.016.053-10.068.357-13.448.675m48.651 5.07c-.793 1.481-.7 2.698.362 4.752 1.945 3.762 5.573 6.947 6.444 5.657.379-.561 1.996-2.701 3.593-4.756 3.236-4.164 2.949-4.781-3.02-6.475-5.515-1.566-6.138-1.497-7.379.822m-148.1 7.068c-.919.568-.477 1.701 1.673 4.284 1.607 1.932 3.454 3.545 4.104 3.585 1.262.077 5.836-5.743 5.095-6.484-.991-.991-9.713-2.102-10.872-1.385m124.095.507c0 1.852 2.363 4.434 4.058 4.434 1.891 0 1.908-.122.35-2.5-1.437-2.192-4.408-3.496-4.408-1.934m-65.195 2.144c-2.791.684-.867 3.277 2.552 3.44 3.023.144 3.038.166.393.566-3.174.481-3.329 1.012-1.193 4.061 1.268 1.811 2.612 2.254 7.25 2.391 4.272.126 4.757.266 1.943.56-7.006.733-3.788 2.272 4.75 2.272 5.238 0 8.5-.401 8.5-1.044 0-.574-.639-.911-1.421-.75-.781.162-2.484-1.281-3.783-3.206-2.091-3.1-2.986-3.567-7.829-4.087-5.39-.579-5.405-.589-1.062-.75 4.201-.155 4.328-.248 2.749-1.992-1.598-1.766-8.429-2.542-12.849-1.461M42 163.89c0 .556.788 1.509 1.75 2.118q1.749 1.108.573 1.609c-.861.366-.902 1.293-.153 3.442.866 2.482 1.56 2.941 4.447 2.941 3.231 0 3.383-.153 2.74-2.75-1.964-7.927-1.83-7.737-5.673-8.06-2.026-.171-3.684.144-3.684.7M60 165c0 .55 1.462.993 3.25.985 2.466-.012 2.888-.249 1.75-.985-1.965-1.27-5-1.27-5 0m8 0c-1.207.78-1.049.972.809.985 1.288.008 2.036-.427 1.691-.985-.743-1.202-.639-1.202-2.5 0m8.5 0c.34.55 1.068 1 1.618 1s.722-.45.382-1-1.068-1-1.618-1-.722.45-.382 1m73.5 1.85c0 .548 1.215 2.494 2.7 4.323s2.835 3.515 3 3.744.551.165.859-.142c1.018-1.018-3.03-8.242-4.811-8.585-.961-.185-1.748.112-1.748.66m-111.342 1.702c.341.888-.676 1.548-3.074 1.998-6.257 1.174-4.072 4.45 2.966 4.45 2.777 0 3.27.306 2.735 1.699-.408 1.063-.802 1.251-1.052.5-.22-.659-1.359-1.199-2.531-1.199-1.949 0-1.995.135-.537 1.594.877.876 3.223 1.813 5.214 2.081 2.866.386 3.621.152 3.621-1.125 0-.887-.647-1.861-1.437-2.164s-1.222-1.112-.959-1.796c.798-2.079-1.325-6.284-3.452-6.84-1.387-.363-1.846-.116-1.494.802m24.194-.745c-2.349.271-2.567.611-1.928 3 .688 2.567 1.038 2.7 7.482 2.841l6.76.148-.664-2.646c-.366-1.455-.823-2.804-1.016-2.998-.49-.49-7.437-.716-10.634-.345M35 169.059c0 .582.45.781 1 .441s1-.816 1-1.059-.45-.441-1-.441-1 .477-1 1.059m68-.348c0 .574.787 1.662 1.75 2.417 1.619 1.269 1.64 1.222.283-.628-.807-1.1-1.594-2.187-1.75-2.417s-.283.054-.283.628m60.064 1.98c-.035 1.755.416 3.488 1.003 3.85 1.982 1.225 2.295-.543.674-3.801l-1.613-3.24zm3.329-1.109c.334.87.607 2.065.607 2.655s.889.268 1.976-.716c2.28-2.063 1.807-3.521-1.142-3.521-1.457 0-1.873.457-1.441 1.582m-114.361.086c-.052 1.9 1.113 4.332 2.075 4.332 1.311 0 1.092-1.355-.575-3.559-.808-1.067-1.483-1.415-1.5-.773M37 173c0 .55.45 1 1 1s1-.45 1-1-.45-1-1-1-1 .45-1 1m59.5 1c.34.55.816 1 1.059 1s.441-.45.441-1-.477-1-1.059-1-.781.45-.441 1m11 1c.34.55 1.041 1 1.559 1s.941-.45.941-1-.702-1-1.559-1-1.281.45-.941 1m-57.147 1.477c.586 1.527.457 1.61-.83.542-1.245-1.033-1.523-.998-1.523.192 0 1.997.929 2.753 2.598 2.113 1.703-.654 1.838-2.936.232-3.929-.805-.498-.954-.16-.477 1.082m13.04.105c.334.87.607 1.77.607 2s1.827.418 4.059.418 3.807-.408 3.499-.907c-.309-.498.34-.671 1.441-.383s2.001.077 2.001-.468c0-1.107-4.675-2.242-9.232-2.242-2.308 0-2.845.357-2.375 1.582m27.127 1.385c-.414.671 1.663 1.033 5.921 1.033 3.607 0 6.556-.338 6.553-.75-.01-1.178-11.756-1.444-12.474-.283m66.174-.328c-.933.934.194 2.361 1.865 2.361.793 0 1.441-.675 1.441-1.5 0-1.506-2.111-2.056-3.306-.861m-27.944 2.023c.688.278 1.813.278 2.5 0 .688-.277.125-.504-1.25-.504s-1.937.227-1.25.504M42 181.393c0 .949 2.993 1.427 3.527.563.325-.526-.336-.956-1.468-.956s-2.059.177-2.059.393m23.512 1.357c.4.963.653 3.837.563 6.387-.154 4.371.019 4.7 3.03 5.75 4.171 1.454 10.895 1.441 10.895-.021 0-2.805-2.437-8.866-3.565-8.866-.788 0-1.039-.799-.681-2.169.45-1.72.224-2.037-1.093-1.531-.914.35-1.661.201-1.661-.331 0-.533-1.848-.969-4.107-.969-3.521 0-4.003.249-3.381 1.75m19.738-1.018c-4.616.416-5.955 2.801-2 3.562 2.106.406 2.116.442.155.57-1.996.13-2.039.362-.895 4.886 1.194 4.726 1.224 4.753 6.095 5.343l4.895.593-4.95.157c-3.815.121-4.678.429-3.765 1.342 1.623 1.623 24.215 2.5 24.215.941 0-.71-2.22-1.126-6-1.126-3.3 0-6.001-.338-6.002-.75s2.699-.598 6-.411c3.301.186 6.002.022 6.002-.365 0-1.229-5.289-10.474-5.992-10.474-.371 0-.675-.655-.675-1.456s.375-1.224.834-.941.833-.187.833-1.044c0-1.285-1.276-1.528-7.25-1.384-3.987.096-9.162.347-11.5.557m29.765 2.657c.036 2.597 1.498 3.306 3.278 1.59 1.719-1.657 1.688-1.75-.75-2.215-1.494-.286-2.537-.028-2.528.625M79.75 197.662c.688.278 1.813.278 2.5 0 .688-.277.125-.504-1.25-.504s-1.937.227-1.25.504"/><path fill-opacity=".296" fill-rule="evenodd" d="m126.261 21.236-6.238 5.11 3.738 1.683c3.641 1.638 3.763 1.627 4.638-.423.494-1.158 1.961-4.243 3.259-6.856 1.299-2.613 2.019-4.722 1.602-4.687-.418.034-3.567 2.362-6.999 5.173m-82.772-3.217c-.257.414 2.074 1.071 5.179 1.459s6.362.923 7.239 1.189c1.376.418 1.388.35.093-.501-2.092-1.373-11.945-3.065-12.511-2.147m48.193 3.947c-1.373 1.632-4.203 5.795-6.288 9.25s-5.727 8.962-8.093 12.234S73 49.74 73 50.156s-1.336 3.021-2.968 5.79c-1.633 2.769-3.961 8.301-5.173 12.294-1.385 4.559-3.257 8.312-5.032 10.087C58.272 79.882 57 81.546 57 82.026s-1.416 2.196-3.147 3.813c-1.73 1.618-4.543 5.416-6.25 8.442-4.849 8.594-8.791 12.406-15.298 14.789-10.744 3.936-16.903 5.754-21.366 6.307-6.912.856-8.939 1.692-8.939 3.688 0 3.74 5.348 18.705 9.625 26.935 6.548 12.599 5.991 12.133 12.963 10.855 4.162-.763 9.611-.782 18.412-.064 14.556 1.188 42.178.777 47.691-.709 4.674-1.26 14.715-7.211 14.48-8.582-.094-.55-1.999-1.609-4.234-2.354s-3.862-1.555-3.617-1.8 5.111-.387 10.813-.317 20.492.205 32.867.299c19.329.148 22.951.419 25.7 1.922 1.761.963 4.11 1.75 5.222 1.75 1.111 0 4.474 1.085 7.472 2.411s5.711 2.151 6.029 1.833c1.176-1.177.525-3.244-1.023-3.244-2.225 0-17.357-6.651-19.458-8.553-.949-.858-2.941-1.69-4.428-1.849-1.488-.158-3.057-.859-3.488-1.556-.622-1.007-.896-.987-1.326.095-.343.863-.577.63-.636-.637-.076-1.596-.278-1.71-1.003-.564-.79 1.247-1.135 1.247-2.638 0-1.98-1.643-2.375-1.618-3.546.229-.604.952-.851.985-.862.116-.008-.67-.634-.981-1.39-.69-1.681.644-7.442-4.103-6.331-5.217.437-.438 1.932.537 3.323 2.165 1.39 1.629 2.242 2.395 1.892 1.704s.065-1.526.922-1.855c2.166-.831.823-2.603-1.431-1.888-1.007.32-2.121.113-2.475-.459S139.768 128 138.406 128c-2.138 0-2.335.264-1.441 1.934.569 1.064 1.017 2.302.995 2.75-.022.449-.711-.422-1.532-1.934-1.622-2.989-3.273-3.45-5.375-1.5-1.078 1.001-1.205.999-.635-.008.777-1.377-3.08-3.298-5.087-2.535-.643.245-2.218-.228-3.5-1.05s-4.844-1.8-7.914-2.171c-3.714-.449-5.584-1.131-5.584-2.036 0-.749.375-1.13.834-.847s.833.032.833-.558c0-.589 2.463-2.199 5.474-3.576 5.967-2.73 6.813-3.839 10.17-13.348l2.253-6.379-4.449.61c-2.446.335-4.448.258-4.448-.171 0-1.312 2.309-3.18 3.95-3.196.853-.009 2.208-.432 3.011-.94 1.202-.76.937-1.41-1.497-3.666-2.897-2.685-2.906-2.726-.461-1.983 1.373.418 4.072 1.115 5.997 1.551s4.85 1.522 6.5 2.416c3.58 1.939 12.099 2.195 12.859.387.376-.895.839-.753 1.633.5 1.137 1.796 6.085 4.75 7.958 4.75 1.725 0 5.05-3.861 5.05-5.862 0-1.377-.631-1.794-2.417-1.598-1.547.17-3.256-.648-4.75-2.273-3.743-4.072-12.806-9.507-14.93-8.952-1.048.274-1.683.138-1.41-.303.272-.442-.289-1.135-1.249-1.542-2.024-.858-20.894-.804-22.298.063-1.687 1.043-1.004 3.924 1.594 6.727l2.541 2.74-2.291.062c-1.259.034-4.182.28-6.495.546-3.451.396-4.603.072-6.433-1.813-1.225-1.262-4.035-3.195-6.244-4.295-5.42-2.699-7.823-6.893-9.096-15.875-.225-1.581-1.334-3.86-2.465-5.064-2.645-2.816-2.628-6.185.037-7.611 1.3-.696 1.919-1.794 1.631-2.894-.892-3.411 1.147-5.303 4.947-4.59 1.909.358 4.032.867 4.719 1.131.73.28 2.39-1.616 3.992-4.559 1.508-2.771 2.897-5.038 3.086-5.038.565 0-.692 4.415-1.585 5.568-.469.606-.165 2.014.702 3.252.842 1.201 1.271 2.602.956 3.113-.316.511-.11 1.216.458 1.567s.782 1.044.475 1.54c-.306.496.619 1.196 2.055 1.557 3.282.824 10.442-2.422 10.459-4.74C120 46.163 121.95 45 124.777 45c.887 0 2.871 1.205 4.408 2.677 1.537 1.473 3.096 2.375 3.465 2.007 1.123-1.124-1.546-8.407-4.266-11.639-2.669-3.173-4.711-4.061-3.784-1.646.295.769.056 1.696-.532 2.059-.587.363-1.068.238-1.068-.278 0-1.431-4.84-3.012-11.5-3.756-3.3-.369-6.51-1.077-7.134-1.573-.785-.626-1.339.19-1.8 2.651-.367 1.954-1.052 3.315-1.523 3.024s-.646.275-.389 1.258c.337 1.289-.107 1.787-1.593 1.787-2.122 0-2.601-.698-1.342-1.957 1.344-1.344 1.068-8.104-.427-10.48-1.384-2.198-1.606-2.249-3.141-.715-1.166 1.165-1.651 3.403-1.651 7.613 0 5.153-.253 5.963-1.867 5.965-1.517.002-1.752-.512-1.258-2.747a730 730 0 0 0 1.633-7.726c.564-2.737 1.911-6.675 2.993-8.75 2.352-4.514 1.151-4.932-2.319-.808m-54.578.914c-2.702 1.777 4.386 4.073 15.569 5.044 5.939.516 10.956.78 11.149.587.194-.193-.7-1.021-1.985-1.84-4.034-2.569-22.327-5.373-24.733-3.791m101.403 28.099q-.712 2.244.89 3.847c1.471 1.47 1.602 1.399 1.588-.862-.009-1.355-.41-3.086-.891-3.846-.682-1.078-1.032-.888-1.587.861m45.947.657c.031 1.781.763 2.9 2.258 3.453 2.199.813 2.202.798.564-2.635-1.969-4.13-2.886-4.396-2.822-.818m-67.524 2.687c-1.259 1.198-3.414 2.937-4.79 3.865l-2.501 1.688 3.146-.089c1.73-.049 3.831.48 4.669 1.175.948.787 2.776 1.03 4.837.643 2.773-.52 3.802-.143 6.317 2.316 3.533 3.454 6.335 2.87 3.773-.788-.875-1.248-2.216-2.027-2.985-1.732-.873.335-1.396-.131-1.396-1.245 0-1.895-4.403-6.479-7.14-7.436-.948-.331-2.607.346-3.93 1.603M6.202 66.25c-1.048 3.979-.409 4.219 8.653 3.249 6.224-.667 6.438-.774 4.106-2.066-1.354-.749-2.011-1.412-1.461-1.474 1.646-.183-5.818-2.801-8.221-2.883-1.692-.058-2.426.7-3.077 3.174m140.048-1.621c-1.493.642-1.665 3.996-.25 4.871.55.34 1 2.175 1 4.078 0 3.264.156 3.424 2.75 2.817 3.866-.904 4.931-2.278 5.533-7.145.29-2.338.457-4.273.372-4.301-1.458-.478-8.481-.717-9.405-.32M12.691 72.642c-.245.245-1.738.678-3.318.961s-3.023.938-3.206 1.456c-.184.517-.971.941-1.75.941-1.957 0-1.816 4.633.165 5.393.87.334 3.007.575 4.75.537 2.722-.061 2.887-.198 1.168-.98-1.582-.719-1.165-.893 2-.833 2.2.042 5.099.033 6.441-.02 2.368-.094 2.383-.142.5-1.596-1.789-1.381-1.609-1.45 2.309-.872 4.667.688 6.126-1.12 1.783-2.21-1.356-.34-2.369-1.09-2.25-1.666.208-1.006-7.678-2.025-8.592-1.111M131 72.393c0 .949 2.993 1.427 3.527.563.325-.526-.336-.956-1.468-.956s-2.059.177-2.059.393M110.5 80c.34.55.816 1 1.059 1s.441-.45.441-1-.477-1-1.059-1-.781.45-.441 1m34 4.472-3 1.366 2.958.081c1.984.054 4.247 1.315 6.875 3.831 2.648 2.535 4.072 3.325 4.396 2.439.367-1.005.968-.888 2.573.5l2.094 1.811-2.136-3.5c-3.891-6.377-8.885-8.746-13.76-6.528m24.75 31.19c-2.285.922-1.292 3.417 1.892 4.756 5.764 2.423 9.348-.561 4.635-3.861-2.231-1.563-4.201-1.833-6.527-.895M193 122.78c-5.828.495-6.105.896-2.948 4.276 1.657 1.774 3.565 2.921 4.355 2.618 1.235-.474 3.339-6.516 2.438-7.004-.19-.103-1.92-.053-3.845.11m-12.534 1.276c-.466.753-.022 1.796 1.12 2.63 2.393 1.751 3.333-.196 1.148-2.38-1.165-1.165-1.669-1.221-2.268-.25M127.5 129c.34.55.816 1 1.059 1s.441-.45.441-1-.477-1-1.059-1-.781.45-.441 1m-.591 3.077c-1.025.65-.66.897 1.341.908 2.986.016 3.524-.474 1.409-1.285-.737-.283-1.975-.113-2.75.377m12.091.805c0 .55.45 1.278 1 1.618s1 .168 1-.382-.45-1.278-1-1.618-1-.168-1 .382m-9.75 14.78c-.687.278-1.25 1.555-1.25 2.838s.563 2.56 1.25 2.838c.963.388.95.522-.057.583-1.008.061-.951.587.25 2.302.856 1.222 1.505 3.359 1.441 4.75-.078 1.695-.267 1.951-.573.777-.785-3.004-8.311-1.766-8.311 1.367 0 1.66.86 1.898 7.25 2.006l7.25.124-6.463.923c-3.555.507-6.528 1.014-6.608 1.126s.059 1.836.308 3.831c.432 3.456.668 3.657 4.998 4.25 2.499.343 7.406.623 10.905.623 6.957 0 7.022-.076 5.307-6.25-.782-2.816-1.59-3.779-3.244-3.866-1.613-.085-1.748-.236-.503-.564 1.417-.373 1.515-.852.589-2.884-.622-1.365-2.028-2.487-3.2-2.552-1.688-.094-1.753-.204-.339-.573 2.381-.622 2.269-1.067-1.777-7.074-3.378-5.017-4.448-5.695-7.223-4.575m-8.612 3.838c-.35.914-.001 1.5.893 1.5 2.028 0 1.841.975-.705 3.686L118.651 159h4.675c2.571 0 4.674-.346 4.674-.768 0-1.277-5.009-8.232-5.929-8.232-.471 0-1.116.675-1.433 1.5M22 161.671c0 .369.725 1.472 1.61 2.451 1.48 1.635 1.805 1.652 4 .214C31.071 162.068 30.556 161 26 161c-2.2 0-4 .302-4 .671M125 178c0 .603 4.167 1 10.5 1s10.5-.397 10.5-1-4.167-1-10.5-1-10.5.397-10.5 1m8.25 2.662c-1.789.722-1.547 3.338.309 3.338.857 0 1.281.45.941 1s-1.5 1-2.578 1c-1.591 0-1.842-.47-1.333-2.5.548-2.182.3-2.5-1.949-2.5-1.88 0-2.422.406-2.002 1.5.317.825.915 1.5 1.33 1.5s.529 1.181.253 2.625c-.417 2.182-.655 2.35-1.411 1-1.496-2.674-3.296-1.84-3.515 1.627-.37 5.865.39 7.531 3.19 6.996 1.454-.278 2.521-1.17 2.53-2.115.012-1.211.224-1.305.821-.364.646 1.018 1.581.993 4.735-.132 10.81-3.853 14.33-7.065 8.679-7.921l-2.75-.416 2.75-.15c2.227-.121 2.75-.626 2.75-2.65 0-2.386-.262-2.496-5.75-2.421-3.162.043-6.312.306-7 .583M123 182.5c0 .825.45 1.5 1 1.5s1-.675 1-1.5-.45-1.5-1-1.5-1 .675-1 1.5M96.5 184c.34.55 1.266 1 2.059 1s1.441-.45 1.441-1-.927-1-2.059-1-1.781.45-1.441 1m-28.934 4.25c2.049 6.577 2.318 6.888 5.683 6.563 2.595-.25 3.195-.716 2.974-2.313-.152-1.1-.377-3.012-.5-4.249-.193-1.951-.796-2.25-4.54-2.25-4.019-.001-4.269.155-3.617 2.249m17.449-1.563c.009.447.433 1.473.943 2.279.587.928.54 1.934-.127 2.738-2.152 2.593-.115 4.296 5.138 4.296 2.767 0 5.024-.338 5.015-.75s-1.033-2.55-2.275-4.75c-1.802-3.191-2.911-4.063-5.484-4.313-1.774-.173-3.218.052-3.21.5m9.518 3.063c2.206 5.302 3.618 6.4 9.01 7.008l4.75.535-2.397-4.396c-2.991-5.489-4.304-6.897-6.432-6.897-1.095 0-1.467.521-1.071 1.5l1.214 3c.334.825.139 1.5-.433 1.5-.571 0-1.355-1.012-1.741-2.25-.688-2.202-2.174-3.704-3.696-3.735-.42-.008-.062 1.673.796 3.735M77 190.941c0 .518.445 1.216.989 1.552.566.35.734-.051.393-.941-.665-1.732-1.382-2.049-1.382-.611m10.113 6.989c-.765.473.591 1.032 3.454 1.424 6.567.9 9.021.823 7.883-.248-1.321-1.242-9.805-2.122-11.337-1.176M102 199c0 .55.873 1 1.941 1s2.219-.45 2.559-1c.351-.567-.49-1-1.941-1-1.407 0-2.559.45-2.559 1"/><path fill-opacity=".795" fill-rule="evenodd" d="M126.176 22.176c-2.371 2.212-4.168 4.142-3.994 4.288.175.146 1.26.754 2.412 1.352 1.899.986 2.304.621 4.358-3.923 1.245-2.756 2.1-5.174 1.9-5.374-.2-.201-2.304 1.445-4.676 3.657m-36.813 3.6c-1.726 2.598-3.706 5.849-4.4 7.224s-3.196 5.477-5.56 9.116-4.596 7.806-4.961 9.26-1.064 2.89-1.553 3.192S72 55.991 72 57.059 71.55 59 71 59s-.926.337-.836.75-.831 2.972-2.045 5.687c-1.215 2.716-2.475 6.879-2.8 9.25C64.965 77.27 64.204 79 63.421 79 61.531 79 59 83.02 59 86.023 59 89.207 57.314 91 54.32 91c-2.455 0-6.073 5.722-7.27 11.5-.471 2.276-1.243 3.073-3.199 3.303-1.583.186-3.009 1.248-3.693 2.75-.76 1.666-1.93 2.447-3.67 2.447-1.405 0-4.678 1.076-7.273 2.391-4.47 2.265-13.11 4.712-21.518 6.094-2.091.344-4.042 1.251-4.336 2.017-.86 2.242 2.425 12.3 7.184 21.998 6.172 12.576 6.574 13.011 10.651 11.546 1.848-.665 13.436-1.572 26.304-2.061 22.929-.87 32.042-2.131 40-5.535l4-1.711-7-3.254c-8.993-4.18-11.512-6.11-9.607-7.363.901-.593 3.237-.282 6.627.885 7.447 2.562 17.589 3.956 33.318 4.581 13.054.518 19.939-.226 19.423-2.099-.131-.477-2.549-1.004-5.373-1.173-4.641-.276-11.293-3.128-12.978-5.563-.324-.469-1.562-.926-2.75-1.016s-2.16-.569-2.16-1.066-.936-.66-2.079-.361c-1.613.422-1.94.181-1.457-1.077.494-1.288.173-1.222-1.566.323-2.188 1.944-2.189 1.943-1.016-.292 1.114-2.123 1.043-2.186-1.42-1.25-1.426.542-2.978.986-3.45.986-1.372 0 1.922-5.841 4.189-7.428 3.364-2.356 1.451-4.148-6.359-5.957-9.548-2.212-17.123-5.571-15.896-7.05.505-.608 2.411-.997 4.236-.865 18.215 1.326 25.818 1.49 25.818.557 0-1.119-2.292-2.257-4.544-2.257C104.899 105 95 100.866 95 99.799c0-.701 2.022-.829 6-.379 6.872.778 7.662-.23 2.621-3.345-4.177-2.582-10.9-9.779-13.09-14.014-.901-1.743-1.901-5.507-2.222-8.365C87.613 67.512 86.481 65 84.388 65c-2.105 0-1.662-6.422.742-10.752.993-1.789 1.574-3.855 1.292-4.59-.282-.736.204-1.932 1.08-2.66 1.267-1.051 1.328-1.49.295-2.144-1.168-.742 3.908-1.437 6.641-.91.515.1 2.168.427 3.673.728 2.41.482 2.984.061 4.813-3.522 2.335-4.578 2.463-5.15 1.154-5.15-.508 0-1.443 1.575-2.078 3.5-.817 2.476-1.751 3.5-3.191 3.5-1.846 0-1.973-.419-1.362-4.495.467-3.115.257-5.089-.684-6.434-2.092-2.986-3.611-1.083-3.953 4.951-.272 4.808-.585 5.517-2.56 5.798-1.63.231-2.246-.182-2.235-1.5.026-3.065 3.93-17.549 5.115-18.977.613-.738.722-1.331.242-1.317-.479.014-2.284 2.151-4.009 4.75m24.989 17.984c.363.588.095 1.297-.596 1.576-.899.362-.917.529-.065.585 1.721.114 2.548-1.656 1.171-2.506-.698-.432-.904-.292-.51.345m1.412 2.904c-1.386 1.387-1.926 1.446-3.238.358-.866-.719-1.853-1.028-2.193-.688s.092.892.961 1.225 1.335 1.244 1.036 2.024c-.744 1.938 3.048 1.871 4.67-.083.685-.825.91-1.5.5-1.5s-.185-.675.5-1.5c1.697-2.044-.164-1.908-2.236.164m.313 8.965-2.067 2.628 3.393 1.819c2.744 1.471 4.084 1.628 7 .823l3.605-.995-2.754-3.452c-3.321-4.162-6.338-4.433-9.177-.823m2.382.438c-1.026 1.66-.105 1.89 1.33.332.71-.769.849-1.399.309-1.399-.539 0-1.277.48-1.639 1.067m27.594 9.369c-1.398 1.685.372 6.037 2.037 5.008.601-.371.76.305.404 1.722-.519 2.068-.233 2.334 2.504 2.334 3.129 0 3.71-.853 4.086-6 .239-3.267.059-3.4-3.334-2.462-2.989.825-3.094.78-1.309-.57 1.869-1.413 1.846-1.468-.627-1.468-1.413 0-3.105.646-3.761 1.436m-28.386 12.231c-2.574 2.573 1.922 6.817 9.802 9.251 3.556 1.098 7.717 2.628 9.248 3.4 4.481 2.26 10.851 2.907 12.233 1.242.948-1.142.722-1.717-1.133-2.889-1.274-.805-3.412-1.791-4.751-2.193l-2.434-.729 2.813-1.474c1.638-.859 4.01-1.234 5.684-.899 3.795.759 3.622.264-.829-2.361-2.334-1.377-4.775-2.025-6.613-1.756-1.602.235-6.575-.168-11.05-.896-9.232-1.501-12.016-1.651-12.97-.696M128 83.393c0 .216.675.652 1.5.969s1.5.139 1.5-.393c0-.533-.675-.969-1.5-.969s-1.5.177-1.5.393m11.079 2.644c-.059 1.896.456 2.578 2.039 2.697 1.808.136 1.898-.016.615-1.037-.826-.658-1.744-1.872-2.039-2.697-.315-.883-.569-.456-.615 1.037m21.254 8.368c0 .772.6 1.174 1.334.893.733-.282 1.333-.914 1.333-1.405s-.6-.893-1.333-.893c-.734 0-1.334.632-1.334 1.405m33.417 29.894c-1.512.598-2.75 1.418-2.75 1.823 0 1.396 3.273 4.004 4.007 3.192.709-.785 2.31-6.424 1.762-6.208zM181 125.5c0 .825.73 1.5 1.622 1.5 1.329 0 1.398-.271.378-1.5-.685-.825-1.415-1.5-1.622-1.5s-.378.675-.378 1.5"/></svg>