<svg xmlns="http://www.w3.org/2000/svg" width="200" height="200" fill="#000000"><path fill-opacity=".169" fill-rule="evenodd" d="M69.7 1.341c-.283.737-.219 1.778.143 2.313 1.02 1.51 27.932 24.155 30.058 25.293 2.296 1.229 4.467-.825 3.509-3.32q-.626-1.629.983-1.627c.884 0 1.607-.393 1.607-.874C106 21.122 100.718 13 99.415 13c-1.914 0-1.782 1.361.585 6 1.1 2.156 2 4.167 2 4.468s-6.37-4.855-14.155-11.46C74.227.455 70.81-1.554 69.7 1.341m79.199 20.951c-18.094 12.934-17.29 12.485-14.797 8.26 2.026-3.435 1.973-7.334-.083-6.064-.547.339-2.204 2.678-3.682 5.199-2.468 4.212-2.55 4.684-1.012 5.809.921.673 1.675 1.689 1.675 2.257 0 3.236 4.206 1.22 18.298-8.768C166.859 16.538 167.798 15.667 166 13.5c-.685-.825-1.573-1.5-1.973-1.5s-7.208 4.632-15.128 10.292m-97.007-5.907C39.598 19.947 29.765 28.309 24.121 40c-3.432 7.109-3.619 8.021-3.586 17.5.029 8.018.489 11.14 2.323 15.752 2.74 6.89 8.829 14.862 14.174 18.558 2.141 1.479 3.909 3.021 3.93 3.425s-2.473 3.985-5.542 7.957-7.952 12.043-10.851 17.934c-3.755 7.634-6.695 12.101-10.232 15.546-10.872 10.59-13.333 19.715-8.074 29.939 4.917 9.558 13.389 10.65 33.406 4.308l10.169-3.222 20.331 7.115c31.375 10.981 33.716 11.569 42.979 10.796 4.35-.363 19.483-3.529 33.63-7.036 33.102-8.207 32.296-8.108 41.254-5.061 4.025 1.369 8.364 2.489 9.643 2.489H200l-.002-16.25-.002-16.25-4.248-2.681c-2.336-1.474-6.336-3.574-8.888-4.667s-4.906-2.417-5.231-2.943c-.635-1.028 10.027.949 14.701 2.726 1.54.586 2.996 1.065 3.235 1.065s.435-2.956.435-6.57c0-7.987-3.718-17.678-11.151-29.064l-4.931-7.553 4.131-4.482c9.783-10.614 12.161-24.904 6.239-37.499-3.498-7.441-9.532-13.805-16.093-16.976-2.582-1.247-5.431-3.174-6.33-4.28-1.376-1.691-1.886-1.804-3.209-.705-.984.816-2.682 1.063-4.531.656-1.626-.357-3.782-.206-4.791.336s-3.977 1.53-6.595 2.194c-5.71 1.45-12.429 6.037-16.797 11.468-3.742 4.652-5.568 8.631-6.979 15.211l-1.021 4.764h-22.724l-.399-9.102c-.342-7.802-.868-10.055-3.686-15.779-4.389-8.916-11.637-16.007-20.817-20.367-6.113-2.903-8.67-3.533-15.565-3.838-5.009-.221-10.062.161-12.859.971m6.652 4.543c-.658 1.066 1.085 1.651 7.524 2.522 15.056 2.037 29.567 15.963 32.923 31.595l.956 4.455-.396-5.703c-.801-11.518-9.385-24.128-20.124-29.563-6.703-3.393-19.57-5.429-20.883-3.306M151.5 38.913c-2.2 1.028-4.9 2.591-6 3.473-1.581 1.268-1.057 1.207 2.5-.291 2.475-1.043 6.412-2.205 8.75-2.583s4.25-1.098 4.25-1.6c0-1.531-5.269-.976-9.5 1.001m21.718.254c.242.733 1.348 1.79 2.457 2.349 1.11.558 3.181 2.358 4.602 4 1.903 2.197 2.882 2.691 3.714 1.874.836-.822.302-1.807-2.051-3.787-4.415-3.715-9.305-6.202-8.722-4.436M27.726 43.676c-1.815 3.934-2.221 6.577-2.2 14.324.023 8.624.321 10.109 3.232 16.107 3.803 7.834 10.068 13.983 18.067 17.733 5.02 2.353 6.886 2.659 16.175 2.653 9.538-.006 10.984-.262 15.786-2.785C84.179 88.874 92 82.472 92 80.892c0-.654-52.83-36.537-60.774-41.279-.878-.525-1.964.736-3.5 4.063m133.81 19.311c-14.281 6.49-26.107 12.226-26.281 12.748-.572 1.717 6.162 10.636 10.537 13.955 5.587 4.238 11.055 5.637 19.852 5.078 15.397-.978 26.532-12.99 26.532-28.621 0-6.171-2.442-15.285-4.035-15.054-.352.051-12.325 5.403-26.605 11.894M59.571 66.571C56.539 69.604 58.734 75 63 75s6.461-5.396 3.429-8.429C65.564 65.707 64.021 65 63 65s-2.564.707-3.429 1.571m100.996 1.355c-2.291 2.531-1.685 5.151 1.622 7.006 2.442 1.371 2.854 1.339 4.743-.37 2.554-2.312 2.639-4.736.239-6.907-2.404-2.176-4.466-2.091-6.604.271M108 71.5c0 1.169 1.38 1.51 6.25 1.544 3.438.024 8.162.413 10.5.865 3.701.716 4.25.595 4.25-.936 0-2.491-1.96-2.973-12.082-2.973-7.26 0-8.918.279-8.918 1.5m68.574 26.381c-.3.484.858 2.622 2.572 4.75 2.7 3.35 9.214 15.977 12.701 24.619.611 1.512 1.771 2.75 2.578 2.75 1.247 0 1.195-.79-.341-5.254-2.499-7.266-7.661-17.332-11.791-22.996-3.442-4.72-4.677-5.556-5.719-3.869m-53.096 18.668c2.066 1.403 3.979 2.327 4.252 2.054.549-.549-5.71-4.593-7.12-4.599-.489-.002.801 1.143 2.868 2.545"/><path fill-opacity=".259" fill-rule="evenodd" d="M70.701.632C70.316 1.018 70 1.881 70 2.55 70 4.201 99.478 29 101.44 29c.867 0 1.56-.846 1.56-1.905 0-1.222-5.229-6.332-14.58-14.25C73.946.59 72.05-.717 70.701.632m27.808 13.354C97.854 15.045 102.7 24 103.928 24c1.985 0 1.79-1.707-.701-6.143-2.771-4.932-3.628-5.636-4.718-3.871m49.296 9.514c-8.062 5.775-14.961 10.5-15.331 10.5s.273-1.601 1.427-3.557c2.446-4.145 2.622-5.443.738-5.443-1.889 0-6.467 8.837-5.066 9.779.59.396 1.383 1.56 1.762 2.584.448 1.211 1.348 1.692 2.571 1.372 1.035-.271 8.679-5.352 16.988-11.291 10-7.148 15.106-11.415 15.106-12.621 0-3.497-3.588-1.785-18.195 8.677M57 15.69C41.572 18.27 28.384 28.812 22.835 43c-1.635 4.18-2.151 7.66-2.151 14.5 0 10.315 2.081 17.005 7.79 25.035C31.649 87 38.58 93.36 41.236 94.245c.612.204-1.198 3.387-4.023 7.073-5.632 7.348-11.79 17.676-14.718 24.682-1.034 2.475-4.652 7.425-8.04 11-7.678 8.102-10.468 13.383-10.414 19.71.05 5.777 3.321 12.839 7.285 15.73 4.472 3.261 14.584 2.654 27.791-1.669l10.616-3.475 9.384 3.367c18.498 6.639 39.459 13.499 43.65 14.285 7.189 1.348 19.988-.632 44.384-6.868 30.646-7.833 31.454-7.923 41.71-4.684 4.533 1.432 8.894 2.604 9.691 2.604 1.203 0 1.448-2.688 1.448-15.918v-15.919l-3.679-2.331c-2.023-1.283-6.393-3.682-9.711-5.332-6.453-3.209-8.941-6.061-3.922-4.497 1.547.483 5.287 1.518 8.312 2.301s6.34 1.778 7.367 2.212c1.744.736 1.841.3 1.48-6.614-.317-6.052-1.109-8.934-4.345-15.802-2.177-4.62-5.861-11.134-8.186-14.475l-4.227-6.074 3.276-2.701c1.802-1.485 4.82-5.546 6.706-9.025 3.222-5.944 3.429-6.898 3.425-15.825-.004-8.348-.34-10.184-2.772-15.143-3.197-6.518-9.98-13.198-16.191-15.945-2.375-1.051-4.578-2.586-4.894-3.411-.696-1.812-3.773-1.967-5.464-.276-.967.967-1.666.949-3.318-.082-1.501-.938-2.399-1.001-3.175-.225-.595.595-1.875 1.082-2.844 1.082-.97 0-4.364.973-7.543 2.163C139.404 38.237 129 51.857 129 62.038V65h-24l-.012-6.25c-.039-20.643-13.917-38.086-33.624-42.261-6.822-1.445-9.579-1.599-14.364-.799m1.057 5.713c.856.901 4.208 2.07 7.449 2.598 17.517 2.851 31.249 17.279 33.321 35.011.699 5.979.814 6.213 1.459 2.988 1.815-9.066-3.251-23.06-11.237-31.047C82.275 24.18 74.821 20.938 64.5 20.276c-7.389-.474-7.881-.388-6.443 1.127M46.5 24c.34.55 1.293 1 2.118 1s1.222-.45.882-1-1.293-1-2.118-1-1.222.45-.882 1m-6.628 3.664c-1.244 1.508-1.162 1.552.878.465 2.327-1.24 2.9-2.129 1.372-2.129-.482 0-1.495.749-2.25 1.664m114.827 9.762c-4.962 1.334-12.778 6.311-13.551 8.629-.242.726.813.334 2.344-.87C146.637 42.711 154.896 40 159.288 40c2.257 0 2.787-.362 2.319-1.582-.334-.87-.607-1.77-.607-2 0-.592-.869-.453-6.301 1.008M173 39.552c0 .854 1.305 2.007 2.9 2.563s3.127 1.88 3.405 2.943c.59 2.258 3.015 3.417 5.308 2.537 2.122-.814.721-2.523-5.383-6.566-5.184-3.434-6.23-3.682-6.23-1.477M26.977 44.75c-3.095 8.213-2.492 21.36 1.346 29.362 3.001 6.257 11.112 14.539 17.362 17.727 13.721 7 31.899 4.135 43.445-6.848 2.518-2.395 3.856-4.376 3.302-4.887C90.277 78.118 30.943 39 30.084 39c-.517 0-1.915 2.587-3.107 5.75m133.798 18.092c-17.028 7.717-25.734 12.17-25.75 13.171-.048 2.958 6.885 11.721 11.738 14.835 23.639 15.169 53.478-7.889 44.443-34.344-.957-2.803-2.365-5.068-3.206-5.158-.825-.089-13.076 5.084-27.225 11.496M60 67c-1.1 1.1-2 2.45-2 3 0 1.297 3.703 5 5 5 .55 0 1.9-.9 3-2s2-2.45 2-3-.9-1.9-2-3-2.45-2-3-2-1.9.9-3 2m101.605.299c-1.182.865-1.664 2.287-1.441 4.25.298 2.621.715 2.951 3.721 2.951 4.448 0 6.109-3.506 3.091-6.524-2.326-2.326-2.999-2.411-5.371-.677m-59.022 4.344c-.346.904-.424 1.849-.173 2.1.795.795 2.59-.801 2.59-2.302 0-1.962-1.639-1.824-2.417.202m5.417-.188c0 1.619 2.43 2.134 14.377 3.049 7.025.537 7.81.425 7.25-1.033-.345-.899-.627-2.048-.627-2.553S124.275 70 118.5 70c-8.521 0-10.5.274-10.5 1.455m67.755 26.123c-.318.318 1.351 3.356 3.709 6.75 5.034 7.249 8.179 13.263 10.493 20.07 1.093 3.216 2.429 5.201 3.858 5.729 2.769 1.024 2.79-.033.141-7.002-6.094-16.035-15.089-28.659-18.201-25.547m-58.125 16.848c2.271.71 5.183 2.03 6.472 2.933 2.661 1.863 5.36 2.198 4.334.537-1.113-1.8-8.7-4.856-11.936-4.807-2.785.042-2.705.137 1.13 1.337"/><path fill-opacity=".465" fill-rule="evenodd" d="M70.336 1.567c-.718 1.87-2.131.48 15.609 15.356 7.945 6.662 14.92 11.955 15.5 11.762 2.912-.971-.219-4.625-13.804-16.116C79.468 5.656 72.366 0 71.859 0s-1.192.705-1.523 1.567m28.322 12.109c-.764.763 4.331 10.324 5.501 10.324 1.334 0 .993-1.782-1.145-5.972-2.106-4.129-3.343-5.365-4.356-4.352m48.409 10.616c-8.488 6.164-15.613 11.77-15.833 12.457s.285 1.513 1.122 1.834c2.1.806 33.534-21.493 33.597-23.833.092-3.425-3.604-1.557-18.886 9.542M49 17.977c-12.267 4.5-22.995 15.534-26.465 27.218-3.452 11.622-1.252 26.542 5.321 36.095 2.989 4.346 9.344 10.603 12.64 12.448 1.581.885 1.054 1.986-4.973 10.376-6.374 8.873-10.452 16.042-13.547 23.811-.75 1.885-4.101 6.163-7.446 9.508-6.79 6.79-10.535 13.662-10.52 19.306.014 5.64 4.188 13.795 8.093 15.814 4.766 2.465 15.992 1.492 28.018-2.428l9.621-3.136 19.467 6.908c10.708 3.799 23.028 7.909 27.379 9.133 12.009 3.377 20.31 2.499 51.756-5.476C162.558 173.949 176.1 171 178.438 171c2.337 0 6.682.829 9.655 1.842 2.974 1.013 6.87 2.127 8.657 2.475 2.926.57 3.25.398 3.25-1.723 0-1.981-.756-2.542-4.75-3.519-2.612-.639-7.9-2.685-11.75-4.547-6.809-3.292-8.66-3.892-11.25-3.646-1.849.175-1.516 2.863.5 4.038 1.585.923 1.549 1.022-.373 1.05-1.168.016-12.868 2.766-26 6.111-17.666 4.499-26.372 6.225-33.468 6.637l-9.59.555-22.999-7.751c-22.543-7.599-22.989-7.802-22.515-10.281.583-3.052.612-3.056-15.528 2.104-14.329 4.58-22.919 6.122-26.506 4.758C12.394 167.819 9 161.368 9 156.236c0-7.869 9.107-17.494 22.667-23.956 6.036-2.877 7.552-4.116 6.708-5.482-.791-1.28-4.23-.925-7.518.776-1.673.865-3.243 1.373-3.487 1.129-1.054-1.054 2.101-5.703 3.87-5.703 1.598 0 1.812-.486 1.281-2.905-.699-3.181.918-5.056 2.766-3.208.612.612 1.698 1.113 2.413 1.113 2.068 0 1.507-2.819-.807-4.057-3.15-1.686-.878-3.349 2.482-1.818 1.985.904 2.971.929 3.804.096.834-.834.438-1.439-1.527-2.334-2.905-1.323-3.383-3.036-1.324-4.744.991-.823 2.315-.599 5.212.877 4.323 2.204 8.848 2.643 8.233.799-.217-.65-1.717-1.662-3.333-2.25s-3.84-1.606-4.94-2.262c-1.89-1.128-1.906-1.289-.285-2.93 1.513-1.531 2.321-1.597 6.827-.557 21.804 5.033 44.21-7.011 50.359-27.07.295-.963 1-1.75 1.568-1.75 1.822 0 1.073 3.359-1.99 8.914-1.641 2.978-2.777 5.621-2.525 5.874 1.821 1.821 7.546-6.28 7.546-10.677 0-1.082.768-2.736 1.706-3.674 1.451-1.451 3.047-1.619 10.657-1.126 9.061.587 10.59 1.299 10.622 4.95.03 3.43 4.512 11.3 8.983 15.771 7.317 7.317 12.738 9.441 24.032 9.416 7.132-.016 10.248-.45 12.5-1.744 2.964-1.701 3.027-1.689 5.301 1.037 4.361 5.23 10.206 15.895 13.188 24.066 1.645 4.506 2.792 8.193 2.549 8.193s-3.032-.675-6.199-1.5c-7.577-1.974-9.339-1.911-9.339.33 0 1.472 1.611 2.198 8.25 3.718 4.537 1.038 8.813 2.048 9.5 2.243.891.254 1.25-1.218 1.25-5.129 0-6.802-4.885-18.767-12.061-29.543l-4.937-7.413 4.569-4.886c6.889-7.364 8.929-12.596 8.897-22.82-.021-7.03-.479-9.477-2.645-14.148-3.308-7.134-9.486-13.351-16.425-16.527-2.969-1.36-5.398-3.114-5.398-3.898 0-1.68-2.58-1.916-3.562-.326-.397.642-1.936.849-3.695.498-4.059-.812-15.183 2.595-20.953 6.417-7.463 4.943-12.898 13.556-14.373 22.776L128.744 65h-24.618l.554-3.416c.812-5.002-1.409-16.144-4.489-22.524-3.749-7.767-11.674-15.453-19.917-19.32-5.862-2.75-8.053-3.218-16.274-3.479-7.583-.24-10.61.106-15 1.716m8.25 3.334C59.359 23.01 59.539 25 57.583 25c-.779 0-1.596.538-1.815 1.196-.275.824-1.503.513-3.951-1C49.863 23.988 47.755 23 47.132 23c-1.964 0-1.23 1.61 1.368 3 2.604 1.394 3.421 4.004 1.25 3.995-.687-.003-2.595-1.081-4.24-2.397l-2.99-2.392-2.826 2.012-2.826 2.012 8.08 4.857C58.028 41.95 65 46.974 65 48.537c0 2.105-.339 1.967-8.295-3.37C48.777 39.848 35.719 32 34.799 32c-.322 0-.847.682-1.166 1.515-.43 1.12 7.486 6.893 30.312 22.109C80.937 66.95 95.326 75.917 95.92 75.55c2.209-1.366.931-3.366-4.42-6.919-3.025-2.008-5.5-4.07-5.5-4.582 0-2.181 1.977-1.746 6.791 1.496 2.822 1.9 5.314 3.455 5.54 3.455 1.318 0 2.86-9.721 2.298-14.499-1.562-13.295-9.019-24.226-20.826-30.532C74.245 21 72.437 20.561 64.5 20.252c-7.871-.307-8.78-.174-7.25 1.059m74.286 7.632c-1.395 2.21-2.536 4.514-2.536 5.12 0 2.106 2.069.397 4.544-3.754 3.243-5.439 1.368-6.715-2.008-1.366m22.346 8.419c-8.48 3.074-13.385 7.395-17.188 15.138-2.529 5.151-4.334 12.5-3.07 12.5.393 0 3.159-1.38 6.146-3.066s5.667-2.83 5.955-2.543c1.284 1.285-.981 3.467-6.839 6.589-10.659 5.681-4.964 4.44 9.33-2.033 13.163-5.961 13.485-6.181 12.399-8.482-.613-1.299-1.902-2.568-2.865-2.82-2.581-.675-2.127-3.516.774-4.838 2.751-1.253 3.815-3.969 3.304-8.436-.389-3.401-2.58-3.955-7.946-2.009M29.224 39.298C26.538 42.724 24.532 50.894 24.631 58c.471 33.892 39.14 50.14 64.619 27.151 2.063-1.861 3.75-3.778 3.75-4.26S78.862 70.584 61.583 59.055C38.667 43.767 29.911 38.42 29.224 39.298M172 39.034c0 .568 1.575 1.963 3.5 3.099 1.925 1.135 3.5 2.647 3.5 3.359 0 3.083-6.124 2.473-8.914-.888-1.809-2.18-3.086-2.017-3.086.396 0 1.436.667 2 2.365 2 1.301 0 3.493.887 4.87 1.971 2.401 1.888 2.689 1.901 6.885.311 2.409-.913 4.569-1.802 4.801-1.975.859-.643-4.546-5.566-8.131-7.404-4.176-2.142-5.79-2.384-5.79-.869m-6.5 21.571a22399 22399 0 0 0-26.324 11.928l-5.324 2.424 2.77 5.09c3.11 5.714 7.409 9.864 13.656 13.185 3.421 1.818 5.835 2.244 12.722 2.244s9.301-.426 12.722-2.244c6.28-3.338 10.537-7.466 13.832-13.413 2.616-4.724 2.945-6.27 2.937-13.819-.009-8.714-2.033-15.062-4.767-14.95-.673.028-10.674 4.327-22.224 9.555m1.354-6.633c-2.685 2.238-1.518 2.603 2.031.635 1.353-.75 1.939-1.598 1.354-1.959-.567-.351-2.09.245-3.385 1.324M77 59.393C77 60.703 79.03 62 81.082 62c1.553 0 1.015-2.749-.664-3.393-2.464-.946-3.418-.726-3.418.786m-17.586 7.97c-.315.821-.424 2.537-.243 3.814.273 1.925.928 2.323 3.829 2.323 3.333 0 3.5-.167 3.5-3.5 0-3.219-.261-3.525-3.257-3.814-2.184-.21-3.445.177-3.829 1.177M161.2 68.2c-2.479 2.479-.651 6.8 2.878 6.8 2.539 0 4.229-2.639 3.515-5.487-.691-2.751-4.228-3.478-6.393-1.313m-52.7 41.189c-4.42 1.931-9.5 6.526-9.5 8.593 0 2.696 2.562 3.16 4.656.844 1.014-1.121 3.611-2.941 5.77-4.043 4.993-2.548 12.389-2.036 16.707 1.157 1.652 1.222 3.682 1.961 4.51 1.644 5.203-1.997-6.426-9.615-14.572-9.545-2.514.022-5.921.629-7.571 1.35m-1.896 10.201c-.813 2.118.095 3.41 2.396 3.41 1.035 0 2.135-.409 2.444-.91.956-1.546-.564-4.09-2.444-4.09-.982 0-2.061.716-2.396 1.59m12.869-.546c-.784 1.268 1.283 3.956 3.042 3.956 1.466 0 2.76-2.745 1.929-4.09-.768-1.243-4.177-1.151-4.971.134m-33.079 15.443C61.976 138.204 23 151.01 23 155.315c0 3.733 2.539 3.658 11.841-.352 11.656-5.025 28.68-10.2 43.296-13.161 9.861-1.998 14.337-2.302 33.863-2.302 19.776 0 23.817.282 33.378 2.328 18.171 3.89 35.937 10.83 50.372 19.68l4.25 2.605v-3.378c0-3.163-.49-3.658-7.669-7.766-13.423-7.68-32.153-14.242-50.318-17.628-11.734-2.188-43.642-2.678-55.619-.854m.474 13.022c-10.225 2.037-18.723 4.612-19.9 6.029-1.938 2.336.474 2.323 8.649-.044 12.666-3.669 23.155-4.833 37.778-4.193 14.754.645 25.376 2.906 38.698 8.236 9.162 3.666 10.907 4.063 10.907 2.48 0-2.61-19.642-9.844-33.86-12.472-10.201-1.885-32.893-1.904-42.272-.036m23.558 5.611c-1.121 1.814.867 2.678 6.982 3.035 6.899.403 9.166-1.656 2.906-2.64l-6.525-1.024c-1.491-.234-3.005.049-3.363.629"/><path fill-opacity=".774" fill-rule="evenodd" d="M71 2.399c0 1.87 28.02 25.571 30.25 25.588.963.007 1.75-.414 1.75-.937 0-1.305-29.196-26.031-30.75-26.041-.687-.005-1.25.62-1.25 1.39m76.998 21.667c-9.478 6.768-15.498 11.721-15.498 12.75 0 .926.532 1.582 1.181 1.457 2.358-.453 32.39-22.561 32.047-23.59-.194-.582-.776-1.199-1.292-1.371-.517-.172-7.913 4.667-16.438 10.754M99 14.54c0 .297.909 2.322 2.02 4.5 2.808 5.503 4.459 4.998 1.768-.54C100.927 14.67 99 12.656 99 14.54m-48.202 3.325c-17.406 5.765-28.59 19.831-29.597 37.222-.962 16.614 5.988 29.306 21.676 39.586.207.136-1.403 2.402-3.579 5.037-6.344 7.684-10.224 13.851-14.543 23.117-2.979 6.391-5.827 10.561-10.824 15.847-10.612 11.227-12.231 19.649-5.653 29.41 1.255 1.863 3.394 3.981 4.752 4.706 3.804 2.032 15.037.824 26.647-2.865l10.178-3.233 17.322 6.126c32.377 11.45 36.199 12.434 45.658 11.755 5.144-.369 17.207-2.859 31.5-6.503 34.08-8.688 34.013-8.679 43.716-5.614 9.718 3.07 11.949 3.196 11.949.676 0-1.419-.947-1.996-3.932-2.396-2.162-.29-7.941-2.374-12.842-4.632-4.9-2.257-9.431-4.104-10.068-4.104-1.721 0-1.401 2.102.535 3.518 1.495 1.092 1.289 1.322-1.75 1.95-1.893.392-14.243 3.392-27.443 6.667s-27.406 6.22-31.568 6.544c-8.405.655-13.223-.574-42.537-10.851-12.1-4.242-14.252-5.295-13.262-6.488 2.073-2.498-.395-3.642-4.237-1.965-7.518 3.281-23.787 7.782-30.105 8.328-8.537.738-10.957-.677-13.319-7.789-2.047-6.161-1.206-10.162 3.474-16.526 3.277-4.457 14.162-12.247 20.85-14.923 2.312-.925 4.204-2.057 4.204-2.515 0-1.929-2.266-1.926-6.643.01-2.566 1.135-4.841 1.89-5.054 1.676s.389-2.019 1.339-4.012C28.75 123.3 30.066 122 31.308 122c1.57 0 1.711-.272.745-1.436-1.895-2.284.424-5.915 2.923-4.577 3.244 1.736 4.668 1.067 2.166-1.018-2.727-2.272-2.261-5.644.616-4.459 3.644 1.5 5.242 1.685 5.242.607 0-.615-.562-1.124-1.25-1.132-.687-.009-1.86-.402-2.605-.875-1.118-.708-1.057-1.314.346-3.455l1.701-2.598 3.654 1.843c5.011 2.528 8.154 3.415 8.154 2.303 0-.512-2.02-1.703-4.49-2.646-5.508-2.104-5.971-2.777-3.755-5.466 1.718-2.086 1.859-2.094 9.245-.519 12.88 2.746 26.289-.793 36.26-9.569 4.945-4.354 10.214-11.946 11.278-16.253.434-1.76 1.343-2.75 2.523-2.75 1.724 0 1.754.296.461 4.595-.761 2.527-2.089 5.375-2.953 6.328s-1.555 2.374-1.537 3.156c.058 2.637 4.866-3.996 6.046-8.343.633-2.33 1.31-4.798 1.505-5.486.249-.88 2.956-1.246 9.136-1.236 11.109.017 13.281.58 13.281 3.443 0 3.769 5.856 14.18 10.166 18.074 9.287 8.39 23.173 11.261 34.068 7.042l4.735-1.833 1.948 2.38c5.411 6.613 16.083 27.991 16.083 32.22 0 1.295-.653 1.305-5.25.081-6.229-1.658-10.75-1.822-10.75-.39 0 1.168.111 1.208 9 3.284 3.575.835 7.287 1.828 8.25 2.208 1.528.603 1.75.045 1.75-4.4 0-6.282-5.484-19.569-12.32-29.853-2.574-3.871-4.68-7.33-4.68-7.685s1.487-1.951 3.304-3.547c4.323-3.795 8.459-11.513 9.712-18.123 1.95-10.282-2.1-22.86-9.68-30.059C182.682 38.385 175.26 34 173.04 34c-2.404 0-.769 2.759 2.581 4.357C180.568 40.715 186 44.97 186 46.485c0 .687-2.25 2.183-5 3.326s-5 2.553-5 3.134c0 .58-.977 1.055-2.172 1.055s-10.645 3.825-21 8.5S133.775 71 133.5 71s-.499-.562-.499-1.25c.001-.687 2.925-2.825 6.499-4.75s6.498-3.837 6.499-4.25c.002-1.169-.642-.959-7.167 2.335l-6.111 3.085.506-4.495c.662-5.866 4.18-13.015 8.562-17.398 3.819-3.819 12.378-8.252 15.961-8.267 1.329-.006 2.25-.624 2.25-1.51 0-4.234-14.807 1.446-21.198 8.131-4.139 4.331-8.297 12.811-9.262 18.892l-.639 4.024-12.45-.024-12.449-.023-.001-7.593c-.002-16.87-8.999-30.799-24.612-38.106-8.525-3.989-20.037-4.768-28.591-1.936m6.952 1.824c-.962.252-1.75.713-1.75 1.024s.788 1.164 1.75 1.895c1.553 1.179 1.567 1.332.122 1.36-.895.018-2.187-.643-2.872-1.468s-1.977-1.498-2.872-1.495c-1.134.003-.718.751 1.372 2.464 3.592 2.945 1.507 3.384-2.505.528-1.547-1.102-3.529-1.729-4.404-1.393-2.303.883-1.978 1.736 1.427 3.747 1.659.981 2.744 2.225 2.41 2.766-.348.562-2.063-.126-4.006-1.609-3.561-2.716-5.524-2.5-8.363.921-1.083 1.305-.791 1.808 1.919 3.305 3.079 1.701 24.086 15.073 24.939 15.874.229.216.134.675-.212 1.02-.345.345-4.807-2.073-9.916-5.375s-11.63-7.296-14.491-8.877c-4.848-2.681-5.315-2.763-6.873-1.216-1.561 1.548.46 3.082 30.124 22.873 29.426 19.632 31.896 21.078 33.124 19.399.73-.998 1.327-2.115 1.327-2.482s-2.475-2.31-5.5-4.319S87 64.534 87 63.99c0-1.598.978-1.193 6.229 2.579 2.732 1.963 5.057 3.425 5.166 3.25 4.746-7.58 2.713-23.988-4.222-34.067-7.818-11.364-25.152-19.008-36.423-16.063m73.871 9.694c-2.792 4.765-3.073 5.617-1.85 5.617 1.088 0 5.768-8.794 5.058-9.505-.323-.322-1.766 1.428-3.208 3.888m33.394 3.367c.009.413.452 1.425.985 2.25.784 1.213.972 1.069.985-.75.008-1.237-.435-2.25-.985-2.25s-.993.337-.985.75M26.884 43.25C24.94 47.572 24.52 50.179 24.511 58c-.01 8.242.346 10.262 2.685 15.253 3.562 7.601 11.373 15.715 18.538 19.258 7.501 3.71 20.393 4.637 28.497 2.05 6.268-2.002 14.528-7.392 17.512-11.427l2.143-2.898-31.709-21.118C44.737 47.503 30.194 38 29.857 38s-1.674 2.362-2.973 5.25m134.157 18.867c-14.552 6.582-26.66 12.169-26.906 12.415-1.016 1.016 3.505 8.874 7.295 12.681 6.15 6.178 12.521 8.767 21.57 8.767 5.794 0 8.637-.535 12.5-2.354 14.814-6.976 21.976-24.719 15.702-38.901-1.149-2.599-2.452-4.691-2.896-4.65s-12.712 5.46-27.265 12.042m-83.416-3.409c-.314.314-.331.958-.039 1.431.702 1.136 3.414 1.111 3.414-.032 0-1.104-2.595-2.179-3.375-1.399M60.04 67.452c-2.657 3.201 1.245 8.118 4.71 5.936C68.212 71.207 66.979 66 63 66c-.965 0-2.297.653-2.96 1.452m100.999 1.476c-2 3.736 1.297 7.033 5.033 5.033 2.175-1.163 2.528-3.961.728-5.761s-4.598-1.447-5.761.728M112.5 109.025c-6.844 1.461-14.966 7.909-12.751 10.124.829.829 2.117.341 4.936-1.872 4.709-3.696 10.548-5.682 14.118-4.803 1.483.366 4.606 1.612 6.94 2.769 4.366 2.166 5.933 1.96 4.932-.648-1.307-3.406-12.394-6.804-18.175-5.57m8.188 9.621c-1.416 1.415-.615 3.354 1.385 3.354 1.398 0 1.968-.543 1.75-1.667-.357-1.841-2.064-2.759-3.135-1.687m-13.498 2.104c.186.963 1 1.75 1.81 1.75s1.624-.787 1.81-1.75c.236-1.228-.304-1.75-1.81-1.75s-2.046.522-1.81 1.75m-11.134 13.3c-20.022 1.912-39.78 6.805-60.056 14.874-9.762 3.884-11.551 4.936-11.837 6.959-.424 3.002.726 2.775 14.168-2.797 35.297-14.63 73.368-18.654 108.628-11.483 15.433 3.138 35.785 11.16 48.206 19.001 4.696 2.964 4.835 2.963 4.835-.06 0-1.976-1.318-3.225-6.75-6.393-26.35-15.371-64.372-23.235-97.194-20.101m.444 12.606c-11.866 1.409-29.5 5.956-29.5 7.606 0 .534.787.747 1.75.474 20.965-5.96 34.64-7.562 50.176-5.877 13.474 1.461 23.937 4.079 34.426 8.614 7.764 3.357 9.501 3.717 8.262 1.712-.853-1.38-14.902-6.806-23.614-9.121-12.716-3.378-29.882-4.788-41.5-3.408m14.5 7.091c0 1.107 10.793 2.793 11.751 1.835 1.039-1.039-.252-1.506-6.052-2.188-3.653-.429-5.699-.302-5.699.353"/></svg>