<svg xmlns="http://www.w3.org/2000/svg" width="200" height="200" fill="#000000"><path fill-opacity=".165" fill-rule="evenodd" d="M0 100.005V200.01l100.25-.255 100.25-.255.255-99.75L201.01 0H0zm.481.495c0 55 .121 77.647.269 50.326.148-27.32.148-72.32 0-100C.602 23.147.481 45.5.481 100.5M83 8.086c-6.886 1.783-14.534 4.036-16.5 4.861-5.667 2.378-14.041 6.644-14.333 7.303-.184.413-.873.75-1.533.75-1.907 0-6.464 3.807-16.146 13.488C24.807 44.17 21 48.727 21 50.634c0 .66-.337 1.349-.75 1.533-.668.296-5.106 9.029-7.286 14.333-1.137 2.768-3.559 11.07-4.87 16.693-1.401 6.008-1.419 27.818-.029 33.191 2.644 10.214 4.173 15.334 5.41 18.116 3.643 8.191 4.625 10.235 6.271 13.045 3.173 5.419 8.998 12.85 13.546 17.282l4.441 4.328 2.134-2.713c1.559-1.982 2.133-4.117 2.133-7.937 0-3.847.625-6.146 2.368-8.715l2.368-3.489-4.618-4.908c-6.023-6.399-8.412-9.881-11.15-16.245-1.864-4.334-2.989-5.563-6.593-7.205-4.849-2.209-4.818-2.133-6.34-15.443-1.411-12.34-1.321-22.36.215-23.878.687-.679 2.713-2.094 4.501-3.144s3.501-2.826 3.805-3.944c1.099-4.037 5.854-15.042 6.64-15.367.442-.184.804-.784.804-1.335 0-2.292 9.464-12.792 16.025-17.78C62.668 27.44 74.571 22.727 90.25 21.125c34.55-3.531 65.234 11.61 78.598 38.785 1.733 3.525 3.152 7.401 3.152 8.613 0 2.384 4.096 7.055 6.994 7.975 3.612 1.146 4.153 5.116 3.007 22.056-1.05 15.536-1.148 16.004-3.789 18.191-1.492 1.235-3.497 2.247-4.457 2.25-1.187.003-3.043 2.634-5.807 8.231-2.234 4.525-4.374 8.475-4.755 8.779s-2.863 2.838-5.515 5.631c-4.486 4.725-4.706 5.193-3.166 6.733.961.961 2.092 4.693 2.695 8.893.691 4.804 1.732 7.996 3.096 9.494l2.056 2.255 2.452-2.255c2.04-1.877 10.343-11.646 12.967-15.256 2.08-2.862 7.776-14.865 10.293-21.692 6.123-16.608 6.198-42.272.172-59.308-3.071-8.683-7.295-17.801-8.493-18.333-.412-.184-.75-.971-.75-1.75 0-.78-.378-1.417-.839-1.417-.462 0-1.342-1.102-1.956-2.45-1.604-3.52-13.753-16.095-20.22-20.928-5.984-4.472-8.605-6.099-13.985-8.68-9.369-4.494-11.388-5.194-25.616-8.877-4.925-1.274-28.436-1.259-33.384.021m4.5 15.463C61.551 28.355 45.349 38.953 34.829 58c-2.677 4.848-4.739 11.165-2.502 7.665 1.356-2.12 3.676-4.921 7.593-9.165 14.874-16.116 35.116-24.393 59.834-24.464 24.493-.072 45.571 8.477 60.326 24.464 3.856 4.178 6.217 7.019 7.616 9.165.658 1.009.456-.19-.448-2.665-2.15-5.885-8.076-14.692-13.453-19.991-7.046-6.945-20.762-14.754-29.91-17.028-16.391-4.075-24.566-4.622-36.385-2.432m-6 12.411c-16.087 3.533-30.725 11.459-39.688 21.49-3.81 4.265-2.821 4.238 1.723-.047 2.113-1.993 5.669-4.807 7.903-6.254s4.287-2.866 4.562-3.153c1.023-1.07 11.638-5.827 15.5-6.946 2.2-.637 6.475-1.861 9.5-2.72 7.616-2.163 30.5-2.174 38-.019 3.025.869 7.3 2.085 9.5 2.701 3.988 1.118 14.551 5.948 15.5 7.089.275.33 2.319 1.739 4.542 3.13 2.222 1.392 5.752 4.192 7.843 6.223s4.003 3.492 4.248 3.247c.529-.529-9.698-10.701-10.759-10.701-.402 0-1.335-.604-2.074-1.343-1.971-1.971-11.482-7.011-17.8-9.432-13.754-5.27-33.358-6.59-48.5-3.265m-7 9.767c-4.635.66-4.832 1.649-1.021 5.118C75.416 52.607 77 54.488 77 55.024c0 1.184 3.228 1.296 4.55.159 1.405-1.209 10.376-3.231 18.139-4.089 4.789-.529 6.217-.979 4.811-1.514-1.1-.419-2.9-1.17-4-1.669-4.552-2.065-18.566-3.243-26-2.184m-9.092 4.848c.11.752.586 1.718 1.057 2.146.47.428.551.248.179-.402-1.211-2.113 1.253-2.457 2.564-.358.7 1.122 1.938 2.039 2.75 2.039.922 0 .454-.823-1.249-2.192-3.225-2.595-5.581-3.143-5.301-1.233m-6.245 2.309C59.552 56.134 58.809 61 58 60.5c-.55-.34-1-.141-1 .441S57.45 62 58 62c1.509 0 1.2 2.709-.378 3.315-.758.291-1.802.105-2.321-.414-.589-.589-.964 1.031-1.002 4.329-.033 2.919.149 3.932.409 2.27.649-4.153 2.166-5.85 3.925-4.39 1.412 1.172 2.138.813 6.78-3.349 1.067-.956 2.76-1.999 3.763-2.317S71 60.235 71 59.464c0-.882.648-1.193 1.75-.838 1.067.343 1.321.233.65-.282-.605-.464-1.357-1.519-1.671-2.344-.44-1.156-.589-1.08-.65.333-.044 1.025-.63 1.632-1.329 1.375-.687-.252-1.143-.948-1.012-1.547s-.385-.85-1.146-.558c-.762.292-1.994-.286-2.738-1.286-1.249-1.677-5.859-2.838-5.691-1.433M54 58c0 1.1.408 2 .906 2s.671-.9.384-2-.696-2-.907-2c-.21 0-.383.9-.383 2m-5.833 8.153c-3.327 7.336-5.973 16.386-6.581 22.51-.319 3.21-.289 5.162.067 4.337s.941-1.725 1.3-2 1.621-2.095 2.805-4.045c1.183-1.949 3.028-4.555 4.099-5.791 1.702-1.961 1.88-3.285 1.411-10.455-.295-4.515-.67-8.365-.833-8.556s-1.184 1.609-2.268 4M24.035 76.734c-.806.317-2.293 1.519-3.304 2.671-1.641 1.869-1.779 3.388-1.28 14.094.508 10.908.763 12.157 2.804 13.728 1.235.951 2.47 1.738 2.745 1.75s.513-7.403.529-16.478c.017-9.074.017-16.463 0-16.42-.016.043-.688.338-1.494.655M174.54 88.158c.355 6.788.222 14.93-.296 18.092-1.011 6.175-.648 6.72 2.668 4 2.543-2.085 4.074-10.083 4.082-21.326.005-6.593-.286-7.838-2.244-9.601-4.9-4.411-4.904-4.402-4.21 8.835m-18.79-6.469c-2.34.612-2.269 1.041 1.543 9.295 3.248 7.033 3.318 7.103 5.118 5.114 1.004-1.109 2.05-4.008 2.324-6.441.405-3.589.099-4.823-1.618-6.54-2.054-2.054-3.729-2.378-7.367-1.428m-4.75 8.63c0 1.866 1.631 3.087 2.42 1.811.307-.497-.112-1.459-.931-2.139-1.211-1.005-1.489-.944-1.489.328m.72 4.967c-.503 1.312-.125 1.642 1.705 1.491 1.541-.128 2.17-.669 1.824-1.57-.395-1.029-.713-1.074-1.267-.178-.56.906-.846.878-1.177-.115-.316-.947-.618-.843-1.085.372m.455 3.223c.305.304 1.576.75 2.825.991s1.973.14 1.61-.224c-.364-.363-1.635-.809-2.825-.991s-1.914-.081-1.61.224m-72.729 6.578c-.945 1.529 1.106 3.299 2.987 2.577.862-.331 1.567-1.29 1.567-2.133 0-1.747-3.535-2.092-4.554-.444M154 138.063c-3.025 1.58-7.3 3.295-9.5 3.811-2.2.517-6.7 1.75-10 2.74-5.118 1.536-9.968 1.807-33 1.843-19.318.031-28.423-.333-32-1.279-16.152-4.271-18.168-4.939-23.819-7.897-3.192-1.671-4.485-1.205-2.362.85 3.325 3.217 6.761 5.869 7.605 5.869.5 0 1.059.357 1.243.794.183.436 2.778 1.834 5.766 3.106 5.347 2.277 6.006 2.313 41.5 2.283 19.837-.017 36.967-.33 38.067-.696 2.904-.964 12.775-5.762 14.323-6.962 2.391-1.853 8.604-7.527 8.135-7.43-.252.053-2.933 1.388-5.958 2.968m-105.751 11.81c-3.091 7.19-4.443 11.266-3.912 11.798.324.323 1.127-.596 1.786-2.042S47.667 157 48.089 157c.423 0 1.38-.562 2.128-1.25 2.56-2.353 5.864-3.818 7.074-3.137.821.462.888.343.209-.372-.55-.579-2.602-1.939-4.561-3.023l-3.56-1.971zM149 147.764c0 .42-1.8 1.544-4 2.497s-4 1.986-4 2.295.493.257 1.095-.115c1.621-1.001 5.906 1.47 10.155 5.856 2.063 2.129 3.75 3.507 3.75 3.062 0-1.818-5.378-14.359-6.158-14.359-.463 0-.842.344-.842.764m-80.319 5.889c-.375.374-.681 1.055-.681 1.514 0 .458 14.438.833 32.083.833 25.222 0 31.995-.267 31.667-1.25-.318-.956-7.693-1.312-31.402-1.514-17.043-.145-31.293.042-31.667.417m-7.374 3.52c3.939 5.187 9.289 16.059 11.638 23.65 1.176 3.8 2.682 7.636 3.347 8.524 2.47 3.302 24.815 4.382 41.981 2.029 5.263-.721 6.956-2.851 8.221-10.342.643-3.805.542-4.034-1.784-4.034-1.356 0-3.035-.686-3.731-1.525-1.132-1.364-1.456-1.354-3.057.096-1.526 1.38-2.728 1.47-8.107.605-4.438-.714-5.126-.985-2.315-.913 3.952.102 8.5-1.577 8.5-3.138 0-1.38-5.398-3.431-5.807-2.205-.453 1.36-6.193 1.434-6.193.08 0-.55 1.152-1 2.559-1 3.828 0 2.099-1.597-3.164-2.922-2.551-.642-4.371-1.435-4.045-1.761.766-.766 8.91 1.43 14.549 3.923 3.496 1.547 4.89 1.721 6.797.853 1.319-.601 3.389-1.077 4.601-1.057 2.147.035 2.136.092-.426 2.25l-2.629 2.214 2.876 2.323 2.876 2.324.895-2.355c1.35-3.551 5.436-12.157 6.31-13.292.424-.55 1.943-2.463 3.375-4.25l2.604-3.25-2.339.015c-2.762.018-3.946.776-5.448 3.485-1.065 1.923-2.295 2.011-32 2.28-16.99.154-31.791.06-32.891-.209-1.1-.268-2.45-1.519-3-2.779-.64-1.466-2.03-2.41-3.86-2.619l-2.859-.327zm-8.057-1.511c-1.691.683-1.573 1.603.5 3.899 4.506 4.992 11.397 17.75 12.826 23.746.614 2.574 4.891 6.559 5.928 5.522.482-.482-1.091-7.129-2.444-10.329-2.479-5.86-6.71-14.165-7.807-15.321-.689-.727-1.253-1.678-1.253-2.114 0-.974-5.036-6.095-5.886-5.986-.338.043-1.176.306-1.864.583m87.433 2.729c-6.271 6.68-16.41 30.665-12.933 30.594 1.58-.033 3.007-1.581 3.672-3.985 1.206-4.359 10.478-22.383 13.057-25.38 2.376-2.763 2.535-4.62.395-4.62-.555 0-2.441 1.526-4.191 3.391m-96.52 8.941c-3.779 3.899-3.485 5.641 1.396 8.27 1.892 1.019 3.441 2.2 3.441 2.625s.637.773 1.417.773c.779 0 1.566.338 1.75.75.53 1.192 6.833 4.248 6.833 3.313 0-2.711-9.479-19.056-11.054-19.061-.304-.001-2.007 1.497-3.783 3.33m106.133-1.886c-2.624 2.987-8.231 12.447-8.858 14.944s-.521 2.592 1.882 1.678c4.434-1.685 7.669-3.703 12.563-7.838l3.383-2.857-3.236-3.687c-3.573-4.068-3.986-4.23-5.734-2.24M74 170c0 .55 1.125 1 2.5 1 3.387 0 3.222 2.558-.25 3.881-2.723 1.037-2.716 1.045.75.833 2.853-.174 3.562-.655 3.837-2.601.186-1.313-.264-2.768-1-3.235C77.983 168.703 74 168.786 74 170m9.384.442c-1.243 3.239.065 5.052 3.874 5.368 3.68.306 3.742.252 3.742-3.25 0-3.408-.151-3.56-3.531-3.56-2.153 0-3.748.563-4.085 1.442M94 172.5c0 3.333.167 3.5 3.5 3.5s3.5-.167 3.5-3.5-.167-3.5-3.5-3.5-3.5.167-3.5 3.5m-9 .406c0 1.414.517 1.772 2 1.384 1.1-.288 2-1.146 2-1.907 0-.76-.9-1.383-2-1.383-1.301 0-2 .667-2 1.906M96 173c0 1.268.64 1.971 1.75 1.921 1.045-.047 1.247-.282.5-.583-1.8-.727-1.538-2.116.5-2.649 1.317-.344 1.193-.486-.5-.573-1.622-.084-2.25.442-2.25 1.884m9.269-.307c.973.254 2.323.237 3-.037s-.119-.481-1.769-.461-2.204.244-1.231.498"/><path fill-opacity=".131" fill-rule="evenodd" d="M0 100.005V200.01l100.25-.255 100.25-.255.255-99.75L201.01 0H0zm.481.495c0 55 .121 77.647.269 50.326.148-27.32.148-72.32 0-100C.602 23.147.481 45.5.481 100.5M82 8.182c-1.925.538-5.975 1.671-9 2.519-6.429 1.8-22.532 9.305-25.667 11.962-1.192 1.01-4.492 3.637-7.334 5.837-4.438 3.436-7.704 6.942-16.754 17.984-4.815 5.875-11.948 22.786-15.092 35.78-1.46 6.033-1.504 29.678-.065 35.12 3.156 11.939 4.495 15.816 8.031 23.255 3.86 8.12 12.376 20.238 18.129 25.795l3.038 2.935 2.357-2.74c1.791-2.082 2.357-3.932 2.357-7.698 0-4.716.936-7.459 3.763-11.025 1.075-1.355.541-2.327-3.566-6.5-5.352-5.436-8.916-10.795-11.225-16.88-1.163-3.065-2.545-4.532-5.788-6.147-2.343-1.167-4.544-2.406-4.892-2.754-.92-.92-3.169-21.028-3.201-28.625-.03-7.134.671-8.523 5.921-11.726 2.683-1.637 3.845-3.281 4.918-6.959C31.3 56.766 39.416 45.187 49.5 37.542c9.094-6.893 14.404-9.74 24.632-13.206C82.025 21.661 83.464 21.5 99.5 21.5c16.947 0 18.863.272 30.5 4.327 9.032 3.148 21.049 10.949 27.735 18.007 6.405 6.76 12.144 16.773 14.214 24.8 1.075 4.17 2.488 5.902 6.408 7.856 4.087 2.037 4.567 4.875 3.554 21.01-.518 8.25-1.205 15.833-1.526 16.85s-2.494 2.695-4.829 3.728c-3.7 1.637-4.745 2.876-8.133 9.641-2.218 4.429-6.149 10.116-9.155 13.244-2.897 3.016-5.268 5.575-5.268 5.688 0 .114.763.969 1.695 1.901 1.102 1.102 1.889 4.026 2.25 8.36.39 4.69 1.19 7.469 2.699 9.377 1.179 1.491 2.451 2.711 2.827 2.711 1.041 0 5.499-4.788 11.175-12 15.643-19.879 21.956-44.608 18.297-71.678-2.027-14.989-10.809-34.837-19.422-43.895-.562-.59-2.353-2.744-3.98-4.787-3.923-4.923-16.786-14.797-24.848-19.074-6.463-3.429-16.966-7.238-25.957-9.413-5.69-1.377-30.778-1.356-35.736.029m6 14.95c-9.28 1.893-16.662 4.074-21.777 6.433C63.32 30.904 60.508 32 59.973 32S59 32.45 59 33s-.675 1-1.5 1-1.5.42-1.5.933-.788 1.184-1.75 1.493c-2.263.724-12.31 10.192-14.935 14.074-3.476 5.14-6.951 11.873-7.72 14.956-.603 2.42.063 1.876 3.67-3C40.223 55.755 46.337 49.88 53 45.416 58.747 41.565 71.024 36 73.771 36c1.161 0 2.36-.402 2.664-.894 1.671-2.704 31.463-3.879 40.565-1.601l10.32 2.582c5.714 1.428 17.47 7.508 23.477 12.142 6.134 4.732 13.671 12.842 15.848 17.051 2.203 4.261 2.602 2.772.629-2.353-3.678-9.556-15.955-24.739-21.402-26.468-1.03-.326-1.872-1.013-1.872-1.526s-.637-.933-1.417-.933c-.779 0-1.566-.371-1.75-.823-.444-1.098-14.173-6.619-19.833-7.975-11.697-2.803-14.377-3.195-21.193-3.095-4.019.059-9.332.52-11.807 1.025m-1.16 11.361c-.271.271-2.933.953-5.916 1.516-7.91 1.492-18.455 5.809-26.239 10.742-6.699 4.246-15.792 12.712-17.916 16.681-.595 1.111 1.619-.706 4.919-4.037C47.356 53.674 61.587 44 64.335 44c.696 0 1.693-.358 2.215-.795.922-.771 7.657-2.919 16.066-5.125 5.912-1.551 29.744-1.298 36.384.386 9.172 2.327 12.355 3.403 17.726 5.995 7.525 3.63 15.171 8.721 20.148 13.414 7.663 7.227 6.174 4.265-1.874-3.727C151.809 50.98 138.793 42 137.391 42c-.324 0-2.007-.622-3.74-1.383-10.37-4.55-21.366-6.615-35.234-6.616-6.096-.001-11.305.221-11.577.492m-6.34 6.492c-3.85.977-8.48 2.331-10.289 3.007l-3.289 1.231 6.551 6.36 6.551 6.361 5.124-.972c6.844-1.298 25.52-1.237 31.772.104l5.018 1.076 5.843-6.008 5.842-6.008-2.561-1.202c-4.693-2.201-6.516-2.821-12.893-4.383-8.734-2.14-28.425-1.913-37.669.434m-19.015 9.136c-2.192 1.166-4.35 2.751-4.796 3.521s-1.181 1.172-1.631.894c-.451-.279-.881 4.324-.956 10.229L53.965 75.5l2.907-3.259C59.876 68.874 61 69.35 61 73.989c0 1.288 1.924-.098 6.525-4.699 5.379-5.379 6.312-6.781 5.314-7.984-1.194-1.438-.391-2.554 2.591-3.6 1.728-.606-.314-3.609-4.533-6.666-2.308-1.672-4.474-3.04-4.812-3.04s-2.408.954-4.6 2.121m77.536 3.606C137.246 54.438 129 62.05 129 62.979c0 .359 1.699 1.607 3.775 2.774s4.856 3.06 6.178 4.206c3.532 3.063 4.547 1.224 4.547-8.236 0-8.455-.611-9.545-4.479-7.996M43.702 61.75c-7.315 7.4-10.884 13.156-14.105 22.746-3.011 8.965-3.067 9.832-1.191 18.504 2.439 11.275 7.083 22.312 10.758 25.572 2.497 2.215 10.864 5.733 11.684 4.913.271-.271-.428-1.504-1.554-2.739s-3.334-4.271-4.906-6.746c-2.528-3.978-2.861-5.428-2.874-12.5-.013-7.522 1.782-14.5 3.73-14.5.416 0 .756-.513.756-1.139 0-.627 1.35-3.334 3-6.015 3.298-5.361 3.469-7.113 2.344-24.096-.355-5.362-.941-9.75-1.302-9.75s-3.214 2.587-6.34 5.75m54.048-4.088c.688.278 1.813.278 2.5 0 .688-.277.125-.504-1.25-.504s-1.937.227-1.25.504m5.063.021c.721.289 1.584.253 1.916-.079s-.258-.568-1.312-.525c-1.165.048-1.402.285-.604.604m49.943 11.161c-.281 6.367-.168 12.269.25 13.116s1.238 2.665 1.82 4.04 2.323 5.2 3.867 8.5c2.458 5.254 2.807 7.181 2.807 15.5 0 8.829-.208 9.818-2.943 14-1.619 2.475-4.094 5.807-5.5 7.404-2.219 2.521-2.293 2.805-.557 2.148 1.1-.416 3.35-1.239 5-1.83 4.137-1.48 5.636-3.665 10.441-15.222 3.82-9.19 4.848-25.994 2.111-34.5-1.864-5.791-8.522-16.47-13.162-21.11l-3.623-3.623zM21.54 78.74c-2.26 2.438-2.536 3.567-2.505 10.25.033 7.098 2.184 25.638 3.059 26.373.223.187 1.8.809 3.503 1.383l3.096 1.043-1.309-3.799c-1.779-5.165-2.705-22.976-1.624-31.24 1.008-7.712.054-8.619-4.22-4.01m152.723 5.01c1.044 9.168.254 22.905-1.688 29.343-1.382 4.584-1.38 4.592.96 4.145 1.29-.247 2.975-1.188 3.744-2.093 1.816-2.134 3.736-15.431 3.728-25.806-.007-7.882-.112-8.25-3.084-10.75-1.692-1.424-3.406-2.589-3.809-2.589s-.336 3.487.149 7.75m-23.656 4.832c-1.189 3.098-.576 7.188 1.466 9.783 2.33 2.963 4.927 3.482 4.927.985 0-1.489-4.846-12.35-5.51-12.35-.152 0-.549.712-.883 1.582M75.3 92.66c-.839 2.188 4.287 6.328 7.843 6.335C85.514 98.999 87 97.456 87 94.99c0-3.664-10.394-5.734-11.7-2.33m40.796.467c-1.94 2.083-1.969 2.356-.433 4.053 2.018 2.23 4.495 2.307 8.449.262 2.189-1.132 2.927-2.156 2.7-3.75-.469-3.298-7.809-3.685-10.716-.565m-36.623 11.917c-.918 1.485 1.398 3.943 3.1 3.29 2.192-.842 1.778-4.334-.514-4.334-1.068 0-2.231.47-2.586 1.044m-27.032 5.376c-1.436 1.05-1.917 2.546-1.849 5.75.124 5.79 2.582 10.223 9.343 16.842 5.355 5.243 6.019 5.583 13.598 6.948 10.803 1.946 44.217 1.963 54.967.027 7.764-1.398 8.178-1.618 14.032-7.464 8.905-8.892 11.572-16.074 7.911-21.3-2.285-3.264-6.014-2.784-13.82 1.777-3.765 2.2-7.251 4-7.747 4-.497 0-1.759.535-2.805 1.188-1.965 1.227-1.806 1.257-15.334-2.895-6.1-1.873-14.915-1.285-24.99 1.667l-7.754 2.271-5.746-2.786c-3.161-1.532-5.972-3.046-6.247-3.365-.973-1.129-8.093-4.08-9.843-4.08-.976 0-2.648.639-3.716 1.42m42.519 8.411c-2.973 2.408-2.083 6.849 1.555 7.762 1.367.343 2.485 1.241 2.485 1.996 0 1.94-4.825 2.916-8.172 1.652-1.914-.722-3.022-.735-3.452-.041-.8 1.295 1.231 2.598 5.254 3.374 1.978.381 3.534 1.491 4.228 3.015.895 1.963 1.842 2.411 5.102 2.411 3.346 0 4.097-.378 4.581-2.309.429-1.707 1.736-2.618 5.019-3.496 2.924-.782 4.44-1.737 4.44-2.798 0-1.157-.493-1.397-1.75-.852-3.714 1.612-7.855 1.636-9.168.054-1.102-1.328-1.015-1.679.555-2.239 5.59-1.992 7.186-7.208 2.816-9.199-3.919-1.786-10.887-1.44-13.493.67m58.54 18.251c-13.36 4.318-23.508 6.258-41.747 7.981-9.905.936-15.255.939-24 .011-15.691-1.665-28-3.924-36.524-6.704-9.782-3.188-11.616-3.09-7.632.409 5.253 4.616 8.433 6.604 15.14 9.465L65.198 151h69.845l8.229-3.857c4.525-2.121 10.253-5.721 12.728-8s4.274-4.111 4-4.072c-.275.04-3.2.944-6.5 2.011M47.405 148.155c-.44.711-.275.883.429.448.739-.457.933-.16.55.839-.327.851-.949 1.327-1.384 1.058-1.131-.699-2.167 2.291-2.599 7.5-.344 4.145-.259 4.342 1.078 2.5 3.761-5.179 9.401-8.811 12.231-7.877.985.324.317-.358-1.484-1.517S52.513 149 51.976 149a.99.99 0 0 1-.976-1c0-1.378-2.72-1.262-3.595.155M147 149c-1.375 1.076-3.036 1.966-3.691 1.978s-1.466.467-1.802 1.011c-.345.559.04.739.886.414 1.905-.732 10.707 5.265 11.353 7.734.86 3.288 2.254 1.99 2.254-2.098 0-2.793-.663-4.606-2.25-6.147-1.238-1.202-1.654-1.848-.926-1.434 1.096.622 1.098.39.009-1.353-1.617-2.59-2.633-2.608-5.833-.105m-78.319 4.653c-.375.374-.681 1.287-.681 2.028 0 1.107 5.662 1.3 31.75 1.083 27.438-.228 31.75-.468 31.75-1.764 0-1.295-4.236-1.536-31.069-1.764-17.088-.145-31.376.042-31.75.417M59 154.934c0 .586.406 1.066.901 1.066 1.715 0 10.325 15.938 11.689 21.636.377 1.575.995 3.314 1.373 3.864s1.216 2.854 1.863 5.119l1.176 4.12 8.817 1.13c11.118 1.426 19.214 1.43 30.249.015l8.703-1.116 1.615-4.999c.888-2.749 1.614-5.384 1.614-5.854 0-.471 1.125-3.315 2.5-6.321s2.5-5.729 2.5-6.051c0-.888 5.125-8.741 7.37-11.293l1.979-2.25-2.425.015c-2.846.018-4.021.758-5.533 3.485-1.065 1.923-2.295 2.011-32 2.28-16.99.154-31.791.06-32.891-.209-1.1-.268-2.45-1.519-3-2.779-1.028-2.355-6.5-3.92-6.5-1.858m-5.75.728c-1.752.707-1.556 2.323.514 4.221C57.792 163.576 67 181.355 67 185.439c0 1.54 4.521 4.373 5.467 3.427.7-.7-1.905-9.786-4.319-15.061-1.181-2.582-2.148-4.976-2.148-5.32 0-1.048-5.983-9.391-8.248-11.501-2.224-2.073-2.465-2.144-4.502-1.322m87.111 2.92C135.164 165.089 127 182.667 127 187.348c0 3.367 3.44 1.31 4.788-2.862 2.07-6.41 8.856-19.763 12.147-23.904 1.67-2.101 2.791-4.217 2.491-4.701-1.093-1.769-3.27-.799-6.065 2.701M44 167.146c-3.042 3.807-3.158 4.086-2.234 5.387C43.945 175.6 59 184.749 59 183.006c0-2.793-5.945-13.684-9.679-17.729-1.735-1.881-2.554-1.593-5.321 1.869m105.93-1.337c-3.548 3.82-10.985 18.191-9.413 18.191 2.332 0 18.384-10.925 18.444-12.554.038-1.027-6.108-7.505-7.009-7.387-.248.033-1.159.821-2.022 1.75m-39.18 2.832c2.888 1.539 5.25 3.302 5.25 3.918s-1.237 1.728-2.75 2.472c-2.622 1.289-2.648 1.369-.552 1.723 1.21.204 3.183-.155 4.386-.799 1.742-.932 1.905-1.348.801-2.047-.762-.483-.892-.884-.29-.893.602-.008 1.91.885 2.905 1.985s2.978 1.984 4.405 1.964l2.595-.036-2.883-2.358c-2.862-2.34-2.868-2.365-.75-3.499 1.173-.628 2.133-1.576 2.133-2.106 0-1.401-3.206-1.124-5.29.457-1.53 1.16-2.341 1.091-5.568-.467-2.077-1.004-5.096-2.115-6.709-2.469-2.099-.461-1.44.152 2.317 2.155M74 169.867c0 .55 1.237 1.143 2.75 1.317 3.736.429 3.565 3.122-.25 3.938l-3 .641 3.281.119c3.636.131 5.238-2.035 3.527-4.768-1.123-1.795-6.308-2.82-6.308-1.247m10 2.633c0 3.333.167 3.5 3.5 3.5s3.5-.167 3.5-3.5-.167-3.5-3.5-3.5-3.5.167-3.5 3.5m10 0c0 3.333.167 3.5 3.5 3.5 2.833 0 3.5-.381 3.5-2 0-1.391-.667-2-2.191-2-2.141 0-2.147.033-.25 1.468 1.859 1.406 1.825 1.47-.809 1.5-2.094.024-2.75-.445-2.75-1.968 0-1.556.667-2 3-2 1.65 0 3-.45 3-1s-1.575-1-3.5-1c-3.333 0-3.5.167-3.5 3.5m10-2.5c0 .55 1.35 1 3 1s3-.45 3-1-1.35-1-3-1-3 .45-3 1m-19 3q0 2 2 2t2-2-2-2-2 2m19.75-.338c.688.278 1.813.278 2.5 0 .688-.277.125-.504-1.25-.504s-1.937.227-1.25.504m.5 3.027c.963.252 2.537.252 3.5 0 .963-.251.175-.457-1.75-.457s-2.713.206-1.75.457"/><path fill-opacity=".632" fill-rule="evenodd" d="M0 100.005V200.01l100.25-.255 100.25-.255.255-99.75L201.01 0H0zm.481.495c0 55 .121 77.647.269 50.326.148-27.32.148-72.32 0-100C.602 23.147.481 45.5.481 100.5M89 6.987C75.28 8.679 61.342 13.608 50.302 20.67 43.326 25.133 40.812 27.188 34 34 20.932 47.068 14.376 58.453 9.42 76.682 7.145 85.052 6.751 88.491 6.751 100c0 11.567.389 14.932 2.717 23.5 4.614 16.984 10.915 28.206 23.111 41.166C34.822 167.05 37 169 37.418 169c2.068 0 4.518-4.809 4.549-8.929.034-4.527 1.882-11.071 3.127-11.071.381 0 .938-.642 1.24-1.427.326-.85-1.649-3.749-4.886-7.173-2.988-3.16-5.996-7.018-6.685-8.573S33.192 129 32.801 129s-.988-1.463-1.327-3.25c-.797-4.207-2.136-5.806-6.904-8.25-2.146-1.1-4.245-2.675-4.665-3.5-.932-1.834-3.32-29.727-2.779-32.467.214-1.081 2.332-3.272 4.708-4.867 2.375-1.596 4.552-3.636 4.837-4.533 4.307-13.562 8.631-20.674 18.324-30.148C53.545 33.63 61.593 28.906 75 24.374c8.002-2.706 9.467-2.874 25-2.874 15.521 0 17.005.17 25 2.867 8.252 2.784 19.036 7.935 22.503 10.75 11.672 9.474 19.942 20.207 23.025 29.883 2.509 7.875 2.722 8.204 7.315 11.316L182 79.132l-.199 11.684-.2 11.684-.55-11.164c-.523-10.59-.687-11.271-3.209-13.25-3.502-2.749-5.174-2.707-4.28.108 1.471 4.635.855 28.102-.885 33.738-2.188 7.085-2.171 7.161 1.218 5.471 4.055-2.023 4.762-3.154 5.882-9.403l.985-5.5.087 5.5c.099 6.242-.758 7.683-6.244 10.5-2.142 1.1-4.229 2.675-4.638 3.5s-2.01 4.161-3.557 7.413c-3.724 7.828-12.3 16.384-19.633 19.587-3.147 1.375-5.735 2.864-5.75 3.309s.41.539.944.209c2.001-1.237 12.029 5.721 12.029 8.347 0 .624.45 1.135 1 1.135s1-1.71 1-3.801c0-3.857-1.881-9.177-3.25-9.191-.412-.004-.75-.458-.75-1.008 0-1.902 1.576-.989 3.284 1.904 1.044 1.768 1.716 4.997 1.717 8.25.001 4.178.518 5.947 2.367 8.096 1.3 1.512 2.704 2.75 3.118 2.75.733 0 6.98-6.3 11.017-11.112 4.665-5.56 13.497-21.219 13.497-23.93 0-.857.399-1.985.887-2.508 1.286-1.376 3.79-12.549 5.145-22.95.988-7.583.91-10.776-.494-20.279-2.423-16.411-5.489-25.212-12.966-37.221-9.891-15.888-23.401-27.934-40.572-36.176-13.017-6.247-34.982-9.69-50-7.837M87 23.09c-20.087 4.283-31.142 9.805-42 20.98-6.5 6.689-7.491 8.059-10.916 15.078-3.965 8.128-3.949 10.371.036 4.752C37.42 59.245 49.689 47 51.052 47c.443 0 1.4-.582 2.127-1.294 2.799-2.741 15.717-8.468 24.321-10.783 12.626-3.397 32.136-3.459 44.5-.143 7.249 1.944 21.203 7.886 24.5 10.432 11.483 8.868 17.325 14.766 20.426 20.624 2.083 3.935 2.327 1.644.402-3.776-1.002-2.819-2.835-6.306-4.074-7.748-1.24-1.443-2.254-2.964-2.254-3.38 0-1.351-11.541-12.522-16.083-15.569C139.246 31.56 126.962 26 124.229 26c-1.161 0-2.36-.402-2.664-.894-1.318-2.133-26.994-3.63-34.565-2.016m-7.5 12.846c-9.969 2.46-23.123 8.362-28.724 12.888-5.254 4.245-11.691 11.061-14.183 15.018-2.362 3.751-1.67 3.264 5.087-3.577 12.258-12.412 20.42-16.75 41.82-22.23 5.261-1.347 27.643-1.326 32.884.03 24.273 6.284 34.802 12.476 47.497 27.935 1.129 1.375 2.067 1.938 2.086 1.25s-.387-1.25-.9-1.25-1.2-.842-1.526-1.872c-.715-2.252-8.481-10.412-14.097-14.811-7.511-5.884-18.632-10.794-31.275-13.808-8.72-2.079-29.445-1.85-38.669.427m13 2.686c-10.479.961-26.318 5.896-25.795 8.039.112.461-.743.687-1.901.501-3.907-.628-10.784 4.011-10.836 7.31-.017 1.116-.692 2.902-1.5 3.969-1.435 1.897-1.468 1.891-1.468-.25 0-1.205-.412-2.191-.915-2.191-1.555 0-13.075 12.259-15.757 16.767-5.808 9.764-8.613 22.778-6.432 29.834a954 954 0 0 1 2.607 8.692c2.507 8.492 7.1 17.417 9.714 18.874 2.993 1.67 8.926 3.799 10.637 3.818.801.009.09-1.424-1.744-3.513-5.591-6.367-7.528-11.242-7.571-19.056-.033-5.937.447-8.042 2.961-13 1.65-3.254 3.225-6.141 3.5-6.416 2.141-2.141 4.331-8.019 4.147-11.133-.294-4.993 1.5-5.806 2.758-1.25.93 3.369.641 4.372-3.533 12.276-5.144 9.741-7.343 15.463-7.343 19.107 0 8.178 9.796 23.462 16.727 26.097 1.336.508 5.875 1.68 10.086 2.603 9.97 2.187 48.327 2.488 58.158.457 10.382-2.145 16.424-4.885 19.621-8.898 1.583-1.987 3.46-4.195 4.171-4.906 4.628-4.634 7.818-19.477 5.226-24.319-.744-1.39-.588-1.985.643-2.458.894-.343 1.898-.35 2.232-.017 1.295 1.293.597 17.963-.887 21.191-.822 1.787-1.834 3.25-2.25 3.25s-.756.614-.756 1.364-1.322 2.879-2.938 4.73c-1.615 1.85-2.768 3.534-2.56 3.741s2.472-.424 5.034-1.402c4.888-1.867 8.715-6.468 10.062-12.1.373-1.558.985-3.283 1.36-3.833 2.282-3.347 3.54-11.032 3.518-21.5-.023-11.212-.116-11.688-3.713-19-2.029-4.125-6.112-10.177-9.073-13.449l-5.383-5.949-.718 12.269c-.44 7.521-.345 12.726.246 13.449.636.778.531 1.579-.309 2.351-.992.913-1.554.644-2.552-1.219-.937-1.751-1.107-5.272-.636-13.171.829-13.904.167-18.116-2.971-18.904-1.302-.327-2.367-.995-2.367-1.485s-.637-.892-1.417-.892c-.779 0-1.605-.562-1.836-1.25-.658-1.958-5.42.933-11.612 7.049l-5.364 5.3-7.493-1.55c-9.501-1.964-20.132-1.973-29.401-.023-6.503 1.368-7.412 1.368-8.78 0-.94-.94-1.082-1.526-.37-1.526.635 0 1.434.451 1.775 1.003.401.649 1.392.561 2.809-.249 2.975-1.701 34.323-1.748 37.273-.056 1.875 1.075 2.699.558 8.221-5.153 4.478-4.631 5.807-6.6 4.916-7.279-5.355-4.082-27.77-7.785-40.221-6.644M21.635 78.073c-2.523 1.984-2.635 2.482-2.627 11.75.006 8.64 1.177 19.726 2.571 24.343.435 1.444 6.225 4.363 7.039 3.549.161-.161-.414-2.301-1.279-4.754-1.634-4.638-2.28-30.42-.873-34.854.881-2.774-1.328-2.79-4.831-.034m53.746 26.468c-2.037 3.109-.724 6.89 2.981 8.578 5.299 2.414 10.382-5.518 6.209-9.69-2.381-2.382-7.29-1.787-9.19 1.112m3.619.837c0 1.845 2.651 3.956 3.956 3.149.574-.355 1.044-1.518 1.044-2.586 0-1.404-.692-1.941-2.5-1.941-1.457 0-2.5.575-2.5 1.378m41-.378c-.825.533-2.513.976-3.75.985-3.325.022-2.737 2.688.75 3.402l6 1.226c1.782.365 3 .198 3-.412 0-.564-1.912-1.368-4.25-1.787l-4.25-.762 4.25-.885c2.338-.487 4.25-1.308 4.25-1.826 0-1.226-4.073-1.186-6 .059m-24.811 14.039c-1.204 1.121-2.189 2.471-2.189 3 0 1.502 3.834 4.961 5.5 4.961 1.928 0 1.92 1.407-.018 3.015-1.014.842-3.18 1.062-6.532.665-5.817-.688-5.911.983-.107 1.911 2.723.435 4.177 1.379 5.396 3.502 1.283 2.236 2.392 2.907 4.801 2.907 2.538 0 3.341-.55 4.225-2.892.885-2.344 1.833-2.992 4.996-3.416 4.527-.607 5.529-1.302 4.035-2.796-.76-.76-1.265-.756-1.742.017-.963 1.559-6.826 1.341-9.113-.338-1.872-1.375-1.84-1.464.884-2.504 6.182-2.36 7.385-6.135 2.725-8.545-4.246-2.196-10.209-1.958-12.861.513m4.061 12.439c-2.642 1.17-2.861 2.768-.679 4.951 1.872 1.871 4.568 2.032 6.229.371 3.179-3.179-1.107-7.29-5.55-5.322m1.982 2.522c0 1.925.206 2.713.457 1.75.252-.963.252-2.537 0-3.5-.251-.963-.457-.175-.457 1.75M40 134.907c0 1.952 9.599 9.241 16.613 12.615l7.343 3.532 35.931-.002 35.931-.002 7.569-3.593c4.163-1.975 9.716-5.561 12.341-7.968l4.772-4.375-5.5 1.512c-3.025.832-7.075 1.97-9 2.529-5.822 1.69-17.949 3.839-28 4.963-10.849 1.212-37.819.543-46-1.141-18.996-3.912-25.772-5.721-30.25-8.074-1.067-.561-1.75-.56-1.75.004m5.683 15.843c-2.547 5.896-3.219 11.25-1.411 11.25.822 0 1.725-.88 2.006-1.955.631-2.412 9.381-8.113 11.313-7.372.775.298 1.409.306 1.409.019 0-.772-9.052-5.692-10.474-5.692-.672 0-1.951 1.688-2.843 3.75m22.871 2.777c-1.554 1.182-1.695 1.732-.7 2.727.941.941 8.802 1.246 32.113 1.246 16.976 0 31.225-.359 31.664-.798s.315-1.564-.275-2.5c-.966-1.532-4.055-1.725-30.965-1.929-25.102-.19-30.203.011-31.837 1.254m67.696.572c-1.238.46-2.25 1.51-2.25 2.334 0 .823-.87 1.962-1.934 2.532-2.114 1.131-60.695 1.498-63.561.399-.912-.35-2.063-1.7-2.557-3-.671-1.766-1.664-2.364-3.923-2.364-2.739 0-4.142 1.337-2.275 2.167 2.624 1.166 10.098 15.601 13.117 25.333 1.195 3.85 2.503 7.524 2.908 8.164.406.641 6.022 1.93 12.481 2.864 11.052 1.6 12.436 1.6 23.488 0 6.459-.934 12.088-2.223 12.509-2.864.42-.64 1.013-2.289 1.316-3.664.816-3.7 5.505-16.051 7.403-19.5 3.659-6.649 6.272-10.5 7.127-10.5 1.35 0 1.085-1.716-.349-2.262-.687-.261-2.262-.099-3.5.361m-83.001 1.384-2.252 1.203 2.508 2.907c1.379 1.599 2.76 3.694 3.068 4.657s.981 1.75 1.494 1.75.933.675.933 1.5.345 1.5.767 1.5 2.311 3.938 4.198 8.75c4.065 10.369 4.406 10.897 7.424 11.473l2.327.445-1.706-5.584c-3.575-11.703-8.707-21.664-14.008-27.193-2.179-2.273-2.792-2.455-4.753-1.408m87.954 1.938c-4.413 5.027-9.655 14.934-12.62 23.85-1.42 4.274-2.583 7.924-2.583 8.111s1.1.13 2.444-.127c1.699-.324 2.634-1.335 3.07-3.32.345-1.569 1.72-5.119 3.056-7.889s2.43-5.259 2.43-5.531 1.939-3.537 4.31-7.255 4.615-7.272 4.989-7.897.064-1.647-.688-2.271c-1.072-.89-2.022-.388-4.408 2.329m-97.557 9.813-3.706 4.155 2.28 2.082c3.524 3.218 15.798 10.69 16.937 10.31 1.297-.432-6.305-15.202-9.438-18.335l-2.367-2.366zm105.653-.984c-4.08 4.478-10.475 17.75-8.553 17.75 1.318 0 14.371-8.028 16.966-10.434l2.259-2.094-3.324-3.736c-3.877-4.358-4.599-4.504-7.348-1.486m-33.629 4.333c.299.779.899 1.417 1.332 1.417s1.848 1.117 3.143 2.483c1.295 1.365 3.468 2.49 4.828 2.5l2.472.017-2.472-1.692c-1.36-.931-2.698-1.943-2.974-2.25-.275-.307-1.934-1.308-3.687-2.225-2.545-1.332-3.076-1.383-2.642-.25m4.83-.583c-.34.55.282 1 1.382 1s2.278-.45 2.618-1-.282-1-1.382-1-2.278.45-2.618 1m-43.69.728c4.226.52 4.009 3.469-.322 4.396-2.889.618-2.901.643-.36.758 3.012.135 5.369-2.145 4.515-4.369-.375-.977-1.742-1.456-3.862-1.353l-3.281.16zm9.94-.005c2.367.294 3.25.913 3.25 2.277s-.883 1.983-3.25 2.277c-3.2.397-3.192.405.5.563 3.536.151 3.75-.012 3.75-2.84s-.214-2.991-3.75-2.84c-3.692.158-3.7.166-.5.563M94 173c0 2.762.278 3 3.5 3 2.833 0 3.5-.381 3.5-2 0-1.442-.628-1.968-2.25-1.884-1.693.087-1.817.229-.5.573 2.63.688 2.103 2.311-.75 2.311-1.806 0-2.5-.538-2.5-1.937 0-1.435.841-2.041 3.25-2.34 3.2-.397 3.192-.405-.5-.563-3.536-.151-3.75.012-3.75 2.84m11.25-2.311c.963.252 2.537.252 3.5 0 .963-.251.175-.457-1.75-.457s-2.713.206-1.75.457m-.5 1.973c.688.278 1.813.278 2.5 0 .688-.277.125-.504-1.25-.504s-1.937.227-1.25.504m8.688 2.388-2.938 1.937 2.628.006c1.445.004 3.154-.628 3.798-1.404 1.901-2.291-.312-2.633-3.488-.539m-8.188.639c.963.252 2.537.252 3.5 0 .963-.251.175-.457-1.75-.457s-2.713.206-1.75.457"/><path fill-opacity=".971" fill-rule="evenodd" d="M0 100.005V200.01l100.25-.255 100.25-.255.255-99.75L201.01 0H0zm.47.495c0 65.983.18 84.012.53 53 .291-25.85.636-45.027.765-42.616.428 7.989 4.539 21.845 9.379 31.616 6.502 13.125 9.333 17.077 19.351 27 9.017 8.933 9.926 9.691 17.005 14.173 10.618 6.724 23.531 11.413 37.815 13.733 12.299 1.997 17.072 1.997 29.37 0 22.255-3.615 39.169-12.216 54.837-27.884 15.842-15.841 24.464-32.936 27.899-55.312 1.975-12.87 1.973-16.653-.015-28.895-2.735-16.838-9.344-32.908-18.406-44.75-2.918-3.813-15.561-16.257-19.951-19.638-5.247-4.039-6.091-4.537-16.549-9.755-7.448-3.715-11.039-4.961-24-8.326-6.338-1.645-31.583-1.756-37-.162-2.2.647-6.7 1.927-10 2.845-9.182 2.552-25.084 10.439-30.145 14.95-.63.562-2.579 2.146-4.329 3.521-4.024 3.16-9.788 8.911-13.026 12.997a315 315 0 0 1-4.749 5.829C16.02 46.666 7.401 64.532 5.658 71 2.333 83.338 1.99 84.89 1.765 88.616 1.636 90.752 1.292 71.8 1 46.5c-.343-29.792-.53-10.766-.53 54m94.817-78.76c3.182.199 8.132.197 11-.004 2.867-.201.263-.364-5.787-.362s-8.396.167-5.213.366m-20.268 2.796c-12.194 3.868-22.837 10.179-31.056 18.416-5.348 5.359-11.956 14.043-11.969 15.728-.004.451-.599 1.955-1.322 3.342-.724 1.386-1.959 4.697-2.744 7.357-1.171 3.965-2.11 5.183-5.218 6.769-5.366 2.738-6.12 5.016-4.96 14.993l.971 8.359.14-9.595c.146-10.054.562-11.064 5.639-13.678 1.964-1.011 2-.706 2 17.122 0 17.584.092 18.401 2.93 26.151 3.495 9.545 8.431 17.641 13.839 22.7l3.956 3.7-2.21 3.575c-1.383 2.239-2.41 5.902-2.748 9.8-.366 4.238-1.133 6.796-2.402 8.014-1.026.984-1.865 2.221-1.865 2.75 0 1.997 2.131.822 5.728-3.16l3.724-4.121 3.169 3.666c1.743 2.016 4.863 7.133 6.934 11.371s3.942 7.181 4.16 6.54c.495-1.459-5.768-13.974-8.674-17.335-6.789-7.85-6.372-7.028-4.361-8.605 1.001-.786 2.646-1.908 3.656-2.493 1.009-.585 1.584-1.315 1.277-1.622-.848-.848-7.613 4.63-7.613 6.164 0 .738-.739 1.626-1.642 1.972-1.427.548-1.567-.001-1.071-4.187.588-4.968 3.472-11.212 5.183-11.223 2.05-.013 10.475 4.544 10.157 5.494-.184.55-1.145.852-2.136.671-1.277-.234-.629 1.002 2.229 4.248 3.329 3.782 10.41 16.487 12.586 22.581.433 1.21.551 1.226.615.08.126-2.259-5.967-15.118-9.688-20.447-1.869-2.677-3.024-5.23-2.566-5.673 1.586-1.534 6.145.157 6.733 2.496.486 1.938 1.434 2.346 6.73 2.9 7.728.808 52.325.628 56.37-.227 1.724-.364 3.41-1.567 3.964-2.827 1.11-2.526 5.308-3.93 6.922-2.316.796.796.793 1.292-.011 1.806-1.594 1.018-7.962 11.254-8.839 14.208-.721 2.427-.697 2.442.829.5.864-1.1 1.586-2.562 1.603-3.25.018-.687.482-1.25 1.032-1.25s1-.643 1-1.429c0-.785.562-2.05 1.25-2.809s2.825-3.104 4.75-5.21c3.089-3.381 3.236-3.766 1.25-3.284-4.156 1.007-2.328-1.714 2.864-4.264l5.082-2.495 2.45 2.995 2.449 2.996-1.208-2.75c-.664-1.512-1.655-2.75-2.201-2.75-.547 0 1.448-2.403 4.432-5.34 6.635-6.53 13.039-18.892 15.45-29.822 1.306-5.922 1.59-10.958 1.252-22.182-.433-14.4-.419-14.512 1.622-13.46 5.166 2.663 5.548 3.605 5.764 14.209l.205 10.095.339-9c.44-11.698.022-13.065-4.728-15.489-3.233-1.649-4.137-2.779-5.009-6.262-1.204-4.809-5.978-15.043-8.7-18.652-4.367-5.789-13.319-13.992-19.313-17.698C136.492 28.758 130.814 26 128.766 26c-.788 0-1.754-.322-2.148-.715-1.042-1.042-9.701-3.204-12.618-3.151-1.992.037-1.789.23 1 .952 19.803 5.127 29.038 9.882 39.56 20.372 6.873 6.852 11.516 13.837 13.846 20.827 2.362 7.09 1.918 7.824-1.361 2.252-5.592-9.499-18.368-20.698-29.545-25.898-2.2-1.023-4.69-2.204-5.533-2.623s-3.093-1.056-5-1.415c-1.934-.364.229.891 4.894 2.84 14.154 5.913 24.287 13.659 31.998 24.459 4.637 6.496 3.815 7.111-1.229.919-2.404-2.951-6.341-6.978-8.75-8.949l-4.38-3.584.006 15.107c.004 10.066.411 15.774 1.22 17.107 1.454 2.397 1.381 3.122 1.432-14.25.022-7.287.388-13.25.813-13.25.426 0 2.629 2.012 4.896 4.471 16.598 18.008 18.971 36.519 7.887 61.541-2.791 6.301-3.668 7.176-9.545 9.524-4.938 1.973-6.496 1.311-3.496-1.484 3.284-3.059 8.136-12.257 8.863-16.801.882-5.52-.373-15.485-1.887-14.981-.773.258-1.049 2.873-.838 7.943.273 6.541-.051 8.333-2.408 13.315-3.346 7.074-11.692 15.809-16.443 17.21-11.134 3.284-16.166 3.762-39.5 3.751-19.585-.009-25.362-.339-31.403-1.797-10.624-2.563-12.965-4.042-18.495-11.692-7.699-10.65-8.438-20.088-2.39-30.5 4.767-8.205 6.815-13.841 6.207-17.079-.353-1.882-1.077-3.421-1.61-3.421-.549 0-.691 1.262-.327 2.92.66 3.004-.273 5.447-5.949 15.58-1.54 2.75-3.285 5.61-3.877 6.356s-1.089 4.57-1.105 8.5c-.024 5.885.461 8.099 2.755 12.566 1.531 2.982 3.552 6.132 4.491 7s2.347 2.394 3.13 3.391c1.32 1.683 1.213 1.763-1.502 1.121-1.609-.381-3.352-1.084-3.875-1.563-.522-.479-1.735-.871-2.694-.871-.96 0-2.875-1.012-4.257-2.25-2.57-2.301-8.599-13.159-8.599-15.486 0-.71-.42-2.073-.934-3.028C28.542 108.401 27 100.451 27 95.423c0-4.805 1.683-12.176 3.169-13.873.457-.523.831-1.608.831-2.412 0-3.907 13.239-20.174 18.75-23.039 1.882-.978 2.25-.908 2.25.425 0 .877.45 1.316 1 .976s1-1.859 1-3.375c0-2.161.839-3.228 3.886-4.941C60.024 47.983 62.975 47 64.445 47s2.443-.373 2.161-.828c-.281-.456 1.154-1.547 3.191-2.425 16.807-7.243 43.524-7.111 60.816.302l4.488 1.923-3.8 3.264c-2.091 1.795-3.954 3.61-4.14 4.032-.187.422-.862 1.324-1.5 2.004-6.721 7.157-3.335 5.867 4.65-1.772 3.736-3.575 7.554-6.5 8.483-6.5 2.542 0-6.968-4.79-11.948-6.019C113.85 37.776 108.617 37 100 37c-12.338 0-25.368 2.754-35.777 7.562C61.32 45.903 58.592 47 58.161 47s-1.656.791-2.722 1.758-3.289 2.622-4.939 3.679c-4.387 2.809-11.972 10.194-15.087 14.688-1.491 2.151-2.912 3.71-3.158 3.463-.891-.891 6.25-10.233 12.68-16.588 5.964-5.894 16.03-11.986 26.565-16.077l3.5-1.36c.825-.32.028-.363-1.77-.094-4.158.622-13.119 4.89-20.347 9.693C47.219 49.925 35 61.436 35 63.009c0 .466-.571 1.443-1.268 2.17S31.909 67.625 31.23 69c-1.171 2.37-1.204 2.319-.645-1C33.379 51.399 55.088 30.93 75.5 25.651c3.3-.853 7.8-1.978 10-2.498l4-.946-3.5-.022c-1.925-.012-6.866 1.046-10.981 2.351M88.5 32.964c-1.684.408 3.36.73 11.5.734 8.207.004 13.198-.312 11.5-.727-3.866-.946-19.108-.951-23-.007M78 35c-1.236.799-1.148.955.5.885 1.1-.046 3.125-.445 4.5-.885 2.45-.785 2.44-.802-.5-.885-1.65-.046-3.675.352-4.5.885m39 0c1.375.44 3.4.839 4.5.885 1.648.07 1.736-.086.5-.885-.825-.533-2.85-.931-4.5-.885-2.94.083-2.95.1-.5.885m25.5 13.525c3.037 2.463 5.886 3.909 5.057 2.568-.376-.609-2.118-1.801-3.87-2.649-2.958-1.43-3.043-1.424-1.187.081m-46.22 8.211c2.629.207 6.679.204 9-.005 2.321-.21.17-.379-4.78-.376s-6.849.175-4.22.381M78 58.5c.685.825 1.672 1.5 2.194 1.5s.274-.675-.551-1.5-1.812-1.5-2.194-1.5-.134.675.551 1.5m5-.5c-1.238.8-1.151.96.5.914 1.1-.03 2.9-.441 4-.914 1.832-.787 1.79-.864-.5-.914-1.375-.031-3.175.381-4 .914m32.5 0c1.1.473 2.675.859 3.5.859.945 0 .761-.317-.5-.859-1.1-.473-2.675-.859-3.5-.859-.945 0-.761.317.5.859m-39.459 46.423c-1.666 3.114-.626 7.257 2.035 8.101 1.139.362 3.388.112 4.998-.555 2.222-.92 2.926-1.867 2.926-3.935 0-5.622-7.439-8.319-9.959-3.611m4.209-.761c-1.751.707-1.563 4.281.263 4.981 2.423.93 4.639-1.491 3.431-3.748-1.041-1.944-1.528-2.107-3.694-1.233m38.48 2.006c-5.092 1.558-5.48 3.332-.73 3.332 1.585 0 3.16.45 3.5 1s1.566 1 2.726 1c3.082 0 1.262-1.335-3.546-2.6l-4.18-1.101 4.75-.763c2.612-.42 4.75-1.162 4.75-1.65 0-1.153-1.461-.996-7.27.782M19.158 108.5c-.069 2.446.558 4.829 1.614 6.133 1.847 2.28 6.107 4.821 6.846 4.083.245-.246-.899-1.004-2.542-1.685-2.917-1.208-4.352-3.883-5.384-10.031-.27-1.607-.46-1.071-.534 1.5m160.493 1.758c-.674 4.135-1.259 5.014-4.463 6.706-2.029 1.071-3.238 1.966-2.688 1.988s2.45-.844 4.223-1.925c3.34-2.036 4.71-5.123 4.073-9.175-.249-1.582-.624-.794-1.145 2.406m-82.901 7.904c-2.167.792-2.75 1.642-2.75 4.008 0 2.419.584 3.224 3 4.136 3.245 1.225 3.409 1.5 2.111 3.549-.594.937-2.442 1.245-5.986 1-6.328-.438-6.635.463-.625 1.838 2.475.566 4.5.711 4.5.321s1.013-1.163 2.25-1.719c2.982-1.339 6.713.354 6.866 3.116.083 1.503.238 1.632.55.459.266-.997 1.947-1.872 4.327-2.253 5.756-.92 5.739-2.394-.022-1.84-6.806.654-11.278-2.849-5.221-4.091 2.968-.608 5.528-3.809 4.716-5.896-1.256-3.228-8.352-4.587-13.716-2.628m-56.047 18.274C42.797 139.276 57.1 149 59.183 149c.779 0 1.884.467 2.454 1.037.678.678 13.667 1.038 37.524 1.04 34.867.002 36.706-.091 41.413-2.102 6.329-2.704 13.774-7.477 17.547-11.25 3.163-3.162 3.27-4.518.226-2.853-1.016.556-4.547 1.758-7.847 2.672s-7.125 2.048-8.5 2.521c-8.037 2.762-35.822 5.188-50.5 4.408-13.737-.729-37.458-4.581-40-6.494-.55-.414-2.91-1.068-5.245-1.453s-4.498-1.111-4.809-1.613-1.008-.913-1.552-.913c-.543 0-.179 1.096.809 2.436m57.523 1.143c.95.991 1.942 1.587 2.205 1.324s-.514-1.074-1.726-1.803c-2.107-1.265-2.128-1.243-.479.479m5.281.41c-.35.566.051.734.941.393 1.732-.665 2.049-1.382.611-1.382-.518 0-1.216.445-1.552.989m-35.293 15.197c-1.881 1.881-1.44 3.721 1.036 4.325 1.237.302 15.75.423 32.25.269l30-.28v-5l-31.036-.264c-23.303-.198-31.339.039-32.25.95m87.981 2.314c.02 1.65.244 2.204.498 1.231s.237-2.323-.037-3-.481.119-.461 1.769m-7.319 1.21 3.375 2.943-4.741 6.424c-3.999 5.416-10.51 17.542-10.51 19.57 0 1.763 3.07-2.33 4.109-5.477 1.685-5.108 5.452-11.64 8.429-14.617l2.507-2.508 3.978 3.978C158.21 169.21 160.45 171 161 171c1.769 0 1.069-1.953-1.5-4.187-1.375-1.195-2.5-2.978-2.5-3.962 0-1.179-.511-1.592-1.5-1.213-.825.317-1.5.046-1.5-.602 0-1.498-1.702-3.19-5.5-5.47-2.897-1.738-2.884-1.699.376 1.144m-20.341 19.861c-.87 2.083-1.399 4.269-1.175 4.858s.725.171 1.114-.929 1.192-3.012 1.785-4.248c.592-1.237.803-2.523.468-2.859-.336-.335-1.322 1.095-2.192 3.178m-56.52 7.12c-.008 1.205.435 2.469.985 2.809 1.273.787 1.273-1.53 0-3.5-.788-1.219-.972-1.09-.985.691m53.61 2.434c-.834 4.168-.026 4.976.875.875.38-1.729.482-3.351.227-3.606s-.751.974-1.102 2.731"/></svg>