<svg width="374" height="500" viewBox="0 0 374 500" fill="#000000" xmlns="http://www.w3.org/2000/svg">
<path fill-rule="evenodd" clip-rule="evenodd" d="M123.82 8.88277L122.152 17.763H99.8942H77.6334V25.2759V32.7889H62.6076H47.5818V40.3018C47.5818 46.9933 46.7529 47.8147 40.0063 47.8147C33.6253 47.8147 32.1978 48.9767 30.9557 55.1899C29.8288 60.822 27.923 62.7428 22.8793 63.3288C16.7237 64.0401 16.2279 65.0418 15.5367 78.2019C14.8305 91.6024 14.4223 92.3863 7.39771 93.7912L0 95.2712V149.239V203.207L7.51291 204.709C14.838 206.174 15.0258 206.58 15.0258 220.925C15.0258 235.602 15.0434 235.637 22.5387 235.637H30.0517V250.663V265.689H38.8167C46.8856 265.689 47.5818 265.093 47.5818 258.176C47.5818 250.671 47.5943 250.663 62.4874 250.663H77.3955L78.1393 266.315C78.8555 281.316 79.1711 282 85.7724 282.758C96.3556 283.978 95.7871 295.741 85.1463 295.741C78.4674 295.741 77.6334 296.575 77.6334 303.254C77.6334 309.933 76.7995 310.767 70.1205 310.767C63.7771 310.767 62.6076 311.741 62.6076 317.027C62.6076 322.314 61.4381 323.288 55.0947 323.288H47.5818V349.583V375.879H55.0947H62.6076V390.904V405.93H70.2032H77.7987L77.09 434.104L76.3813 462.277L69.4944 463.068C62.8505 463.835 57.9997 490.994 64.4858 491.112C65.5176 491.129 68.9009 491.825 71.9987 492.654C77.2728 494.069 77.6359 493.388 77.671 481.978C77.7186 467.431 79.3689 464.318 87.6506 463.156C92.3462 462.497 94.1093 460.557 94.7028 455.39C95.9474 444.592 110.189 445.168 110.189 456.016V463.529H132.728H155.267V471.042C155.267 477.959 155.963 478.555 164.032 478.555C172.101 478.555 172.797 479.151 172.797 486.068C172.797 492.684 171.933 493.581 165.552 493.581C161.3 493.581 157.689 495.194 156.807 497.488C155.179 501.732 190.069 500.192 192.879 495.895C193.593 494.8 200.074 493.125 207.279 492.168C214.484 491.214 220.379 489.594 220.379 488.57C220.379 487.545 224.887 485.988 230.396 485.106C235.905 484.225 240.413 482.479 240.413 481.23C240.413 479.977 243.794 478.209 247.926 477.303C252.058 476.396 255.439 474.616 255.439 473.349C255.439 472.079 257.049 471.042 259.018 471.042C260.984 471.042 264.136 469.499 266.02 467.616C267.905 465.73 271.93 463.401 274.965 462.44C277.998 461.476 280.482 459.637 280.482 458.353C280.482 457.068 281.742 456.016 283.282 456.016C284.82 456.016 290.587 451.509 296.096 445.999C301.606 440.49 307.241 435.982 308.618 435.982C311.899 435.982 330.568 416.709 330.568 413.32C330.568 411.878 333.188 408.217 336.391 405.184C339.591 402.151 342.937 397.699 343.823 395.287C344.71 392.878 346.511 390.904 347.82 390.904C349.133 390.904 350.926 387.619 351.81 383.602C352.691 379.582 355.035 375.676 357.016 374.914C358.997 374.153 360.62 371.807 360.62 369.695C360.62 367.587 361.657 365.861 362.926 365.861C364.193 365.861 365.974 362.481 366.881 358.348C367.787 354.216 369.568 350.835 370.835 350.835C372.105 350.835 373.141 348.018 373.141 344.575C373.141 339.288 371.972 338.314 365.628 338.314C358.949 338.314 358.115 337.48 358.115 330.801C358.115 324.122 357.282 323.288 350.603 323.288C344.259 323.288 343.09 322.314 343.09 317.027C343.09 311.771 341.91 310.767 335.742 310.767C329.591 310.767 328.267 309.647 327.603 303.88C326.944 298.142 325.454 296.863 318.673 296.209C311.515 295.518 310.534 294.536 310.534 288.07C310.534 280.843 310.301 280.715 297.028 280.715C280.833 280.715 280.482 280.126 280.482 252.962V233.133H272.969H265.456V210.594V188.056H272.969H280.482V173.03V158.004H287.995H295.508V142.978V127.952H303.021C314.012 127.952 314.593 111.221 303.647 109.961C297.046 109.203 296.73 108.519 296.014 93.5182C295.277 78.0216 295.195 77.8663 287.875 77.8663C281.331 77.8663 280.482 77.0048 280.482 70.3534V62.8405H256.691H232.9V55.3276C232.9 48.6486 232.066 47.8147 225.387 47.8147C218.708 47.8147 217.874 46.9807 217.874 40.3018C217.874 33.6228 217.041 32.7889 210.362 32.7889C203.683 32.7889 202.849 31.9549 202.849 25.2759V17.763H180.468H158.089L157.303 9.62404C156.519 1.49507 156.501 1.48505 141.002 0.743778L125.486 0L123.82 8.88277ZM232.9 117.935C232.9 124.614 232.066 125.448 225.387 125.448C218.708 125.448 217.874 124.614 217.874 117.935C217.874 111.256 218.708 110.422 225.387 110.422C232.066 110.422 232.9 111.256 232.9 117.935ZM140.241 147.987V170.526H147.754C154.395 170.526 155.267 171.377 155.267 177.881C155.267 184.347 156.249 185.329 163.406 186.02C170.563 186.708 171.64 187.785 172.329 194.943C173.02 202.1 174.002 203.082 180.468 203.082C186.971 203.082 187.823 203.953 187.823 210.594C187.823 217.273 188.657 218.107 195.336 218.107C202.015 218.107 202.849 218.941 202.849 225.62C202.849 232.299 203.683 233.133 210.362 233.133C217.041 233.133 217.874 232.299 217.874 225.62C217.874 218.941 218.708 218.107 225.387 218.107H232.9V233.133V248.159H240.413C247.092 248.159 247.926 247.325 247.926 240.646C247.926 233.967 248.76 233.133 255.439 233.133H262.952V256.924C262.952 280.632 262.974 280.715 269.213 280.715C274.499 280.715 275.473 281.884 275.473 288.228C275.473 292.36 276.6 295.741 277.978 295.741C279.355 295.741 280.482 299.122 280.482 303.254C280.482 310.171 279.786 310.767 271.717 310.767C264.036 310.767 262.952 311.543 262.952 317.027C262.952 322.314 261.782 323.288 255.439 323.288H247.926V340.818V358.348H225.387H202.849V348.331C202.849 338.87 202.43 338.314 195.336 338.314C189.06 338.314 187.823 339.311 187.823 344.369C187.823 358.318 187.735 358.348 147.486 358.348H110.189V334.558V310.767H117.702C124.046 310.767 125.215 311.741 125.215 317.027C125.215 323.266 125.298 323.288 149.006 323.288C172.714 323.288 172.797 323.266 172.797 317.027C172.797 311.741 173.966 310.767 180.31 310.767C186.989 310.767 187.823 309.933 187.823 303.254C187.823 296.575 188.657 295.741 195.336 295.741C202.015 295.741 202.849 294.907 202.849 288.228C202.849 281.549 202.015 280.715 195.336 280.715C189.06 280.715 187.823 279.718 187.823 274.66C187.823 264.868 185.168 260.681 178.965 260.681C174.835 260.681 172.912 259.043 172.346 255.046C171.733 250.726 169.644 249.228 163.406 248.627C156.249 247.936 155.267 246.954 155.267 240.488C155.267 233.168 155.194 233.133 140.241 233.133H125.215V240.646C125.215 247.325 124.381 248.159 117.702 248.159C110.372 248.159 110.189 248.46 110.189 260.475C110.189 276.498 108.384 280.715 101.524 280.715C96.1603 280.715 95.8222 279.5 94.1994 254.382C91.8479 218 93.984 203.082 101.547 203.082C106.764 203.082 107.445 201.596 109.03 186.804C110.728 170.936 110.956 170.526 117.993 170.526C124.028 170.526 125.215 169.496 125.215 164.265C125.215 159.006 124.036 158.004 117.85 158.004C108.158 158.004 107.006 155.537 109.05 139.179L110.765 125.448H125.503H140.241V147.987ZM275.473 132.961C275.473 139.304 274.499 140.474 269.213 140.474C263.926 140.474 262.952 139.304 262.952 132.961C262.952 126.618 263.926 125.448 269.213 125.448C274.499 125.448 275.473 126.618 275.473 132.961ZM200.344 163.013C200.344 169.356 199.37 170.526 194.084 170.526C188.797 170.526 187.823 169.356 187.823 163.013C187.823 156.669 188.797 155.5 194.084 155.5C199.37 155.5 200.344 156.669 200.344 163.013ZM32.556 180.543C32.556 187.222 31.722 188.056 25.043 188.056C18.3641 188.056 17.5301 187.222 17.5301 180.543C17.5301 173.864 18.3641 173.03 25.043 173.03C31.722 173.03 32.556 173.864 32.556 180.543ZM92.6593 193.064C92.6593 196.738 90.9889 198.073 86.3985 198.073C81.8081 198.073 80.1377 196.738 80.1377 193.064C80.1377 189.391 81.8081 188.056 86.3985 188.056C90.9889 188.056 92.6593 189.391 92.6593 193.064ZM47.5818 218.107V233.133H40.0689H32.556V218.107V203.082H40.0689H47.5818V218.107ZM140.241 255.672C140.241 259.569 138.571 260.681 132.728 260.681C126.886 260.681 125.215 259.569 125.215 255.672C125.215 251.775 126.886 250.663 132.728 250.663C138.571 250.663 140.241 251.775 140.241 255.672ZM125.215 288.228C125.215 294.907 124.381 295.741 117.702 295.741C111.023 295.741 110.189 294.907 110.189 288.228C110.189 281.549 111.023 280.715 117.702 280.715C124.381 280.715 125.215 281.549 125.215 288.228ZM232.9 288.228C232.9 294.907 232.066 295.741 225.387 295.741C218.027 295.741 217.874 295.999 217.874 308.44C217.874 321.528 214.093 328.297 206.783 328.297C204.519 328.297 202.849 330.42 202.849 333.305C202.849 337.202 204.519 338.314 210.362 338.314C217.041 338.314 217.874 337.48 217.874 330.801C217.874 324.122 218.708 323.288 225.387 323.288C232.825 323.288 232.9 323.148 232.9 309.514C232.9 295.881 232.975 295.741 240.413 295.741C247.092 295.741 247.926 294.907 247.926 288.228C247.926 281.549 247.092 280.715 240.413 280.715C233.734 280.715 232.9 281.549 232.9 288.228Z" fill="#000000"/>
</svg>
