<svg xmlns="http://www.w3.org/2000/svg" width="250" height="250" version="1.1" fill="#000000"><path fill-opacity=".251" d="M 112.323 43.250 C 108.907 47.044, 108.619 48.103, 107.905 59.481 C 107.410 67.367, 106.507 72.431, 104.731 77.292 C 101.811 85.283, 101.006 86.384, 100.984 82.417 C 100.975 80.813, 99.962 77.700, 98.734 75.500 C 95.982 70.572, 87.704 65.995, 81.571 66.010 C 73.298 66.030, 63.068 72.925, 60.326 80.330 C 58.829 84.372, 58.687 93.046, 60.058 96.653 C 61.604 100.718, 67.690 107.788, 71.211 109.609 L 74.262 111.187 69.881 113.823 C 67.471 115.274, 65.129 116.345, 64.676 116.205 C 64.222 116.065, 64.120 116.385, 64.448 116.916 C 64.776 117.446, 64.186 118.695, 63.138 119.690 C 55.899 126.560, 54.044 134.597, 58.570 139.481 C 61.031 142.137, 61.453 142.234, 68.570 141.777 C 72.656 141.515, 76 141.640, 76 142.056 C 76 142.472, 78.102 144.204, 80.671 145.906 C 84.595 148.504, 86.316 149.003, 91.421 149.018 C 95.295 149.029, 100.804 150.078, 106.609 151.910 C 117.622 155.387, 131.889 157.469, 139.787 156.753 C 145.842 156.204, 158.365 150.745, 162.699 146.767 C 164.371 145.231, 166.582 144.669, 171.932 144.419 C 184.045 143.853, 191.103 140.423, 192.623 134.365 C 193.971 128.995, 187.619 122, 181.396 122 C 179.989 122, 180.396 121.177, 183.248 118.250 C 189.151 112.191, 191.433 105.966, 191.403 96 C 191.384 89.533, 190.769 85.743, 188.833 80.154 C 186.425 73.202, 186.359 72.477, 187.609 66.654 C 190.073 55.173, 188.775 47.374, 183.785 43.675 C 181.383 41.894, 180.618 41.798, 177.131 42.843 C 174.964 43.492, 170.959 46.029, 168.232 48.481 C 163.588 52.657, 163.060 52.878, 159.894 51.969 C 155.596 50.737, 141.493 50.711, 137.250 51.928 C 134.299 52.775, 133.682 52.531, 130.257 49.170 C 121.342 40.423, 116.351 38.775, 112.323 43.250 M 76 69.651 C 73.525 70.506, 70.649 71.947, 69.609 72.853 C 67.290 74.872, 64.023 81.780, 64.101 84.500 C 64.141 85.895, 64.316 86.046, 64.682 85 C 67.296 77.515, 69.140 75.221, 73.532 73.991 C 83.035 71.330, 89.357 74.821, 88.799 82.421 C 88.511 86.353, 88.386 86.489, 85.318 86.182 C 78.799 85.530, 75.694 92.785, 80.455 97.545 C 82.865 99.956, 88.703 100.964, 90.404 99.263 C 90.809 98.857, 91.897 98.520, 92.821 98.513 C 94.920 98.497, 98.902 90.638, 98.959 86.399 C 99.066 78.296, 94.296 71.759, 86.609 69.476 C 80.727 67.730, 81.599 67.716, 76 69.651 M 159.627 74.531 C 158.653 77.067, 160.788 79, 164.563 79 C 170.695 79, 169.784 74.707, 163.381 73.426 C 161.003 72.951, 160.135 73.206, 159.627 74.531 M 127.250 74.662 C 126.563 74.940, 126 76.313, 126 77.713 C 126 80.147, 126.203 80.237, 130.587 79.743 C 135.714 79.165, 137.559 77.898, 136.664 75.567 C 136.076 74.034, 130.205 73.470, 127.250 74.662 M 142 92.628 C 136.224 93.740, 130.016 96.255, 127.351 98.561 C 125.783 99.918, 123.037 101.562, 121.250 102.215 C 117.172 103.704, 117.159 105.387, 121.178 111.455 C 125.299 117.676, 136.858 125, 142.556 125 C 144.052 125, 143.350 121.240, 141.436 119 C 139.777 117.058, 137.033 109.146, 137.015 106.250 C 136.995 103.197, 138.632 103.397, 139.422 106.543 C 140.070 109.126, 143.475 111.127, 145.750 110.262 C 147.787 109.487, 147.210 108.123, 143.448 104.820 C 140.798 102.494, 139.973 101.041, 140.198 99.101 C 140.892 93.120, 155.994 92.907, 158.154 98.847 C 158.861 100.792, 158.400 101.800, 155.453 104.747 C 151.895 108.305, 151.875 109.543, 155.367 110.166 C 157.216 110.497, 158.289 109.295, 159.461 105.583 C 159.854 104.335, 160.407 104.007, 161.042 104.642 C 161.678 105.278, 161.479 107.344, 160.473 110.560 C 159.623 113.277, 158.703 117.702, 158.428 120.394 L 157.929 125.287 162.714 124.711 C 168.306 124.037, 177.779 120.048, 180.153 117.367 C 183.417 113.682, 186.200 106.923, 186.723 101.408 C 187.238 95.979, 187.187 95.829, 185.194 96.896 C 181.792 98.717, 174.798 98.155, 166.925 95.429 C 159.686 92.923, 147.551 91.559, 142 92.628 M 66.261 120.415 C 61.397 126.009, 60.628 130.926, 64.223 133.443 C 67.685 135.868, 69.133 135.479, 67.975 132.435 C 67.439 131.024, 67 128.353, 67 126.500 C 67 124.647, 67.439 121.976, 67.975 120.565 C 69.185 117.384, 68.917 117.361, 66.261 120.415 M 174.116 125.884 C 172.510 127.490, 172 129.239, 172 133.140 L 172 138.280 177.313 137.731 C 180.235 137.430, 184.316 136.477, 186.382 135.614 C 189.565 134.284, 190.089 133.637, 189.819 131.371 C 189.410 127.946, 185.433 125.002, 180.280 124.311 C 177.032 123.875, 175.814 124.186, 174.116 125.884 M 138.728 131.250 C 137.903 133.037, 137.364 135.625, 137.531 137 C 137.697 138.375, 137.871 139.886, 137.917 140.358 C 138.140 142.659, 149 137.033, 149 134.617 C 149 132.926, 143.735 128, 141.927 128 C 140.984 128, 139.560 129.447, 138.728 131.250 M 77.500 159.869 C 75.300 160.873, 71.640 163.617, 69.368 165.966 L 65.235 170.237 62.868 167.021 C 61.565 165.252, 59.285 163.174, 57.800 162.403 C 54.543 160.711, 44.072 160.680, 38.551 162.345 L 34.602 163.535 32.383 176.518 C 31.163 183.658, 29.244 194.829, 28.120 201.341 L 26.075 213.183 28.226 216.091 C 29.852 218.291, 31.188 219, 33.710 219 C 38.118 219, 48.586 214.180, 53.447 209.912 C 56.025 207.649, 57.477 206.930, 57.759 207.777 C 58.699 210.596, 66.279 219.156, 68.626 220.048 C 74.856 222.416, 83.478 219.636, 88.839 213.531 L 91.765 210.198 94.633 214.026 C 98.029 218.560, 102.660 221.008, 107.784 220.978 C 111.719 220.955, 119.255 218.014, 120.486 216.022 C 121.003 215.187, 122 215.572, 123.860 217.326 L 126.500 219.816 133.516 218.013 C 137.374 217.021, 143.300 215.790, 146.683 215.278 C 152.660 214.374, 152.909 214.426, 155.468 217.138 C 160.347 222.307, 168.415 222.171, 175.925 216.793 C 178.359 215.050, 180.028 214.146, 179.634 214.784 C 178.796 216.140, 181.529 220.678, 183.972 221.985 C 186.260 223.210, 196.568 219.969, 198.430 217.440 C 199.760 215.632, 199.903 215.619, 200.536 217.250 C 201.389 219.451, 205.145 219.511, 211.280 217.420 C 216.199 215.744, 216.466 215.317, 217.481 207.500 C 218.264 201.464, 223.584 174.818, 224.928 170.203 C 225.772 167.301, 225.559 166.538, 223.148 163.840 L 220.409 160.775 213 162.299 C 206.415 163.654, 205.469 163.657, 204.494 162.322 C 203.549 161.030, 202.498 160.993, 196.948 162.051 C 193.402 162.727, 189.796 163.887, 188.935 164.628 C 187.586 165.789, 186.910 165.502, 184.052 162.553 C 179.556 157.915, 174.822 157.160, 168.172 160.022 C 165.406 161.211, 162.387 163.020, 161.463 164.041 C 159.840 165.834, 159.697 165.793, 157.197 162.822 C 154.694 159.847, 154.408 159.766, 148.408 160.326 C 144.997 160.645, 139.235 161.423, 135.603 162.055 C 129.904 163.048, 129 163.495, 129 165.325 C 129 167.439, 128.995 167.438, 127.439 165.217 C 122.259 157.822, 110.381 158.681, 102.250 167.039 C 100.463 168.876, 99 169.921, 99 169.360 C 99 167.537, 91.577 160.111, 88.685 159.041 C 84.722 157.575, 82.102 157.769, 77.500 159.869 M 75.866 163.966 C 73.403 165.597, 69.922 169.084, 68.130 171.716 C 65.572 175.471, 65.476 175.752, 67.685 173.020 C 76.243 162.441, 84.268 159.277, 89.936 164.250 L 92.500 166.500 90.076 163.750 C 86.735 159.960, 81.800 160.035, 75.866 163.966 M 168 162.954 C 164.256 164.951, 160.340 168.795, 157.514 173.250 C 154.763 177.587, 156.672 176.453, 159.619 172 C 162.281 167.977, 164.955 166.347, 163.048 169.910 C 162.294 171.319, 162.350 171.770, 163.263 171.631 C 166.543 171.134, 168.473 168, 165.500 168 C 160.854 168, 167.695 163.350, 174.240 162.059 C 178.450 161.229, 178.459 161.218, 175 161.154 C 173.075 161.118, 169.925 161.928, 168 162.954 M 179 162.378 C 179 162.585, 179.787 163.373, 180.750 164.128 C 182.336 165.371, 182.371 165.336, 181.128 163.750 C 179.821 162.084, 179 161.555, 179 162.378 M 42.966 163.922 C 38.690 164.760, 36.995 165.725, 37.015 167.309 C 37.027 168.227, 37.205 168.226, 37.791 167.305 C 38.872 165.603, 47.855 163.776, 52 164.414 C 54.586 164.812, 54.978 164.716, 53.500 164.047 C 51.170 162.991, 47.915 162.953, 42.966 163.922 M 108.250 165.566 C 103.990 168.120, 102.691 169.439, 105.500 168.362 C 106.450 167.997, 107 168.375, 107 169.393 C 107 170.277, 107.502 171, 108.117 171 C 108.763 171, 109.036 169.966, 108.764 168.546 C 108.379 166.531, 108.831 165.906, 111.297 165.046 C 115.620 163.539, 120.555 163.759, 122.020 165.524 C 122.716 166.362, 123.526 166.808, 123.819 166.514 C 124.113 166.220, 123.487 165.323, 122.427 164.521 C 119.381 162.217, 113.061 162.683, 108.250 165.566 M 138.650 164.144 C 131.487 165.206, 130.981 165.549, 131.160 169.219 L 131.320 172.500 131.719 169.302 C 132.092 166.322, 132.438 166.064, 136.809 165.508 C 139.389 165.179, 143.525 164.523, 146 164.049 C 149.893 163.304, 150.028 163.204, 147 163.306 C 145.075 163.372, 141.317 163.748, 138.650 164.144 M 195 165.168 C 193.075 165.712, 191.097 166.547, 190.604 167.024 C 190.111 167.502, 191.693 167.295, 194.119 166.565 C 196.545 165.835, 199.423 165.011, 200.515 164.735 C 202.481 164.237, 202.481 164.232, 200.500 164.206 C 199.400 164.192, 196.925 164.625, 195 165.168 M 215 164.393 C 215 165.342, 217.993 165.820, 218.527 164.956 C 218.852 164.430, 218.191 164, 217.059 164 C 215.927 164, 215 164.177, 215 164.393 M 56.333 166.456 C 56.333 167.257, 56.716 167.676, 57.183 167.387 C 57.650 167.098, 57.774 166.443, 57.457 165.931 C 56.649 164.623, 56.333 164.770, 56.333 166.456 M 210.750 165.662 C 211.438 165.940, 212.563 165.940, 213.250 165.662 C 213.938 165.385, 213.375 165.158, 212 165.158 C 210.625 165.158, 210.063 165.385, 210.750 165.662 M 134 168.713 C 134 169.421, 134.900 170, 136 170 C 137.100 170, 138 169.353, 138 168.562 C 138 167.741, 137.143 167.189, 136 167.275 C 134.900 167.358, 134 168.005, 134 168.713 M 74.500 169 C 74.160 169.550, 74.584 170, 75.441 170 C 76.298 170, 77 169.550, 77 169 C 77 168.450, 76.577 168, 76.059 168 C 75.541 168, 74.840 168.450, 74.500 169 M 192.500 169 C 192.160 169.550, 192.584 170, 193.441 170 C 194.298 170, 195 169.550, 195 169 C 195 168.450, 194.577 168, 194.059 168 C 193.541 168, 192.840 168.450, 192.500 169 M 36.079 170.583 C 36.127 171.748, 36.364 171.985, 36.683 171.188 C 36.972 170.466, 36.936 169.603, 36.604 169.271 C 36.272 168.939, 36.036 169.529, 36.079 170.583 M 38.459 170.067 C 38.096 170.653, 38.040 171.373, 38.333 171.667 C 39.050 172.383, 41 171.121, 41 169.941 C 41 168.663, 39.274 168.748, 38.459 170.067 M 190.079 170.583 C 190.127 171.748, 190.364 171.985, 190.683 171.188 C 190.972 170.466, 190.936 169.603, 190.604 169.271 C 190.272 168.939, 190.036 169.529, 190.079 170.583 M 100.698 173.250 C 97.889 177.050, 96.726 179, 97.271 179 C 97.486 179, 99.115 176.975, 100.893 174.500 C 102.670 172.025, 103.894 170, 103.613 170 C 103.332 170, 102.020 171.463, 100.698 173.250 M 35.079 178.583 C 35.127 179.748, 35.364 179.985, 35.683 179.188 C 35.972 178.466, 35.936 177.603, 35.604 177.271 C 35.272 176.939, 35.036 177.529, 35.079 178.583 M 154.162 179.543 C 152.487 183.220, 152.807 184.005, 154.618 180.662 C 155.464 179.100, 155.969 177.636, 155.741 177.407 C 155.512 177.179, 154.802 178.140, 154.162 179.543 M 129.345 179.543 C 129.019 180.392, 128.976 181.310, 129.249 181.583 C 129.523 181.856, 129.986 181.161, 130.279 180.040 C 130.903 177.657, 130.210 177.289, 129.345 179.543 M 188.079 180.583 C 188.127 181.748, 188.364 181.985, 188.683 181.188 C 188.972 180.466, 188.936 179.603, 188.604 179.271 C 188.272 178.939, 188.036 179.529, 188.079 180.583 M 34.079 182.583 C 34.127 183.748, 34.364 183.985, 34.683 183.188 C 34.972 182.466, 34.936 181.603, 34.604 181.271 C 34.272 180.939, 34.036 181.529, 34.079 182.583 M 145.269 182.693 C 146.242 182.947, 147.592 182.930, 148.269 182.656 C 148.946 182.382, 148.150 182.175, 146.500 182.195 C 144.850 182.215, 144.296 182.439, 145.269 182.693 M 81.403 186.911 C 80.249 188.335, 78.835 190.400, 78.261 191.500 C 76.549 194.778, 75.094 201, 76.040 201 C 77.876 201, 81.868 195.544, 83.006 191.477 C 84.685 185.482, 84.042 183.653, 81.403 186.911 M 125.813 184.683 C 126.534 184.972, 127.397 184.936, 127.729 184.604 C 128.061 184.272, 127.471 184.036, 126.417 184.079 C 125.252 184.127, 125.015 184.364, 125.813 184.683 M 171.207 188.199 C 168.218 192.543, 165.565 199.898, 166.610 200.943 C 167.940 202.273, 172.862 194.872, 173.916 189.955 C 174.535 187.069, 174.851 184.517, 174.617 184.284 C 174.384 184.050, 172.849 185.812, 171.207 188.199 M 118 186 C 116.020 186.634, 115.916 186.801, 117.500 186.801 C 118.600 186.801, 120.625 186.440, 122 186 C 123.980 185.366, 124.084 185.199, 122.500 185.199 C 121.400 185.199, 119.375 185.560, 118 186 M 177.079 188.583 C 177.127 189.748, 177.364 189.985, 177.683 189.188 C 177.972 188.466, 177.936 187.603, 177.604 187.271 C 177.272 186.939, 177.036 187.529, 177.079 188.583 M 48.872 192.750 C 47.629 194.336, 47.664 194.371, 49.250 193.128 C 50.916 191.821, 51.445 191, 50.622 191 C 50.415 191, 49.627 191.787, 48.872 192.750 M 80.336 200.732 C 78.595 202.529, 77.499 204, 77.899 204 C 78.827 204, 84.497 198.114, 83.927 197.742 C 83.692 197.589, 82.076 198.934, 80.336 200.732 M 171.405 201.250 L 169.500 203.500 171.750 201.595 C 173.864 199.805, 174.455 199, 173.655 199 C 173.465 199, 172.453 200.012, 171.405 201.250" stroke="none" fill="#000000" fill-rule="evenodd"/><path fill-opacity=".288" d="M 113.750 42.080 C 110.282 44.100, 108.694 49.145, 108.268 59.500 C 107.986 66.360, 107.241 70.995, 105.896 74.260 C 104.818 76.878, 103.320 81.828, 102.568 85.260 L 101.201 91.500 101.100 86.993 C 100.874 76.813, 96.438 70.303, 87.766 67.422 C 76.813 63.784, 62.916 71.181, 59.934 82.237 C 57.368 91.750, 61.825 103.032, 70.181 108.180 C 73.908 110.477, 75.003 112, 72.926 112 C 71.071 112, 59.878 123.326, 57.895 127.210 C 55.216 132.456, 55.492 135.646, 58.923 139.077 C 62.046 142.200, 67.291 142.981, 72.315 141.070 C 74.374 140.287, 75.214 140.617, 77.630 143.156 C 81.856 147.597, 83.678 148.316, 92.500 149.023 C 96.900 149.375, 104.346 150.823, 109.046 152.240 C 119.201 155.302, 135.475 157.429, 141.322 156.458 C 146.839 155.542, 157.174 150.822, 161.957 147.034 C 165.311 144.377, 166.579 143.999, 172.144 143.994 C 180.371 143.987, 185.350 142.553, 189.253 139.065 C 195.247 133.710, 192.489 125.425, 183.853 122.838 L 180.086 121.709 183.968 117.299 C 189.046 111.530, 191 105.542, 191 95.748 C 191 89.930, 190.327 85.847, 188.441 80.229 C 186.828 75.425, 186.121 71.662, 186.529 70.053 C 189.455 58.496, 188.773 47.972, 184.889 44.750 C 182.471 42.745, 177.873 42.473, 174.684 44.146 C 173.483 44.777, 170.400 47.037, 167.833 49.170 C 163.332 52.909, 163.012 53.012, 158.833 52.048 C 153.097 50.725, 142.455 50.746, 137.616 52.089 C 133.783 53.154, 133.666 53.103, 128.616 48.198 C 121.303 41.095, 117.868 39.681, 113.750 42.080 M 120 44.893 C 120 45.384, 120.657 46.038, 121.460 46.346 C 122.263 46.654, 124.228 48.712, 125.827 50.920 C 127.426 53.127, 128.988 54.678, 129.299 54.367 C 129.610 54.057, 129.608 54.785, 129.293 55.986 C 128.979 57.187, 127.997 58.444, 127.111 58.779 C 125.124 59.531, 113.286 66.977, 114.057 66.990 C 114.364 66.996, 117.739 65.426, 121.557 63.503 C 131.232 58.630, 132.987 58.908, 127.592 64.458 C 118.167 74.157, 114.085 89.154, 116.905 103.725 C 118.218 110.511, 124.615 118.055, 132.137 121.687 C 135.636 123.377, 139.727 125.045, 141.228 125.393 C 143.851 126.003, 143.932 125.903, 143.340 122.763 C 143.002 120.969, 142.145 118.825, 141.435 118 C 139.398 115.632, 136.786 106.983, 137.556 105.157 C 138.094 103.884, 138.463 104.249, 139.153 106.737 C 140.268 110.759, 144.271 112.203, 146.835 109.510 C 148.275 107.997, 148.299 107.687, 147.010 107.217 C 144.667 106.362, 140 101.313, 140 99.634 C 140 97.196, 144.102 95, 148.657 95 C 158.510 95, 160.724 98.943, 154.414 105.252 C 150.898 108.768, 150.870 108.860, 152.952 109.974 C 156.018 111.615, 159 110.362, 159 107.433 C 159 106.095, 159.450 105, 160 105 C 161.379 105, 161.252 107.297, 159.570 112.812 C 158.784 115.390, 157.922 119.446, 157.655 121.823 L 157.171 126.147 161.335 125.490 C 177.510 122.937, 184.536 116.880, 186.941 103.416 C 188.308 95.765, 187.708 84.827, 185.610 79.124 C 184.725 76.718, 183.971 73.343, 183.937 71.624 C 183.875 68.595, 183.844 68.573, 182.905 70.922 L 181.937 73.344 178.219 69.838 C 176.173 67.909, 172.987 64.970, 171.138 63.307 C 167.115 59.690, 167.338 58.282, 173.088 51.008 C 175.986 47.342, 177.777 45.964, 179.773 45.864 C 182.028 45.751, 182.122 45.654, 180.318 45.303 C 177.517 44.758, 173.647 46.788, 168 51.764 C 164.164 55.144, 163.136 55.595, 161.033 54.817 C 156.514 53.145, 143.552 52.668, 138.109 53.974 L 132.912 55.221 127.030 49.610 C 121.139 43.991, 120 43.227, 120 44.893 M 182.863 46.663 C 182.663 47.123, 181.185 48.175, 179.578 49 C 176.543 50.558, 173.200 55.272, 173.073 58.172 C 172.992 60.033, 180.067 66.523, 183.018 67.294 C 184.600 67.708, 185.018 67.064, 185.575 63.350 C 186.413 57.761, 185.665 48.265, 184.277 46.877 C 183.699 46.299, 183.062 46.202, 182.863 46.663 M 112.945 49.645 C 111.705 52.906, 110.477 64, 111.355 64 C 113.158 64, 122 56.570, 122 55.055 C 122 53.152, 116.627 47, 114.967 47 C 114.408 47, 113.498 48.190, 112.945 49.645 M 73.216 70.538 C 69.366 72.487, 67.393 74.269, 65.947 77.103 C 63.313 82.268, 62.488 88.919, 63.938 93.313 C 65.072 96.748, 72.083 105, 73.867 105 C 74.346 105, 72.771 103.034, 70.368 100.632 C 66.708 96.972, 66.001 95.634, 66.004 92.382 C 66.011 84.664, 71.763 79.243, 78.760 80.358 C 84.070 81.204, 87.086 86, 82.308 86 C 80.060 86, 77 89.880, 77 92.730 C 77 94.079, 78.304 96.458, 79.941 98.095 C 82.558 100.711, 83.482 101.011, 88.325 100.808 C 93.590 100.588, 93.854 100.438, 96.384 96.249 C 101.619 87.582, 98.922 74.960, 90.957 70.848 C 84.663 67.599, 79.212 67.504, 73.216 70.538 M 164.772 84.745 C 161.839 86.563, 159.464 91.550, 161.060 92.537 C 161.577 92.857, 162.547 92.780, 163.216 92.366 C 163.885 91.953, 165.975 91.364, 167.862 91.057 C 172.063 90.375, 172.416 88.678, 168.498 88 L 165.609 87.499 168.304 86.271 C 169.787 85.596, 171 84.583, 171 84.021 C 171 82.477, 167.837 82.844, 164.772 84.745 M 127.532 84.949 C 127.207 85.475, 128.139 86.533, 129.604 87.301 L 132.268 88.696 128.947 89.361 C 126.982 89.754, 126.008 90.382, 126.563 90.899 C 127.857 92.105, 139 93.346, 139 92.284 C 139 91.811, 137.762 90.021, 136.250 88.306 C 133.430 85.109, 128.586 83.243, 127.532 84.949 M 141.762 91.707 C 143.006 91.946, 144.806 91.937, 145.762 91.687 C 146.718 91.437, 145.700 91.241, 143.500 91.252 C 141.300 91.263, 140.518 91.468, 141.762 91.707 M 153.762 91.707 C 155.006 91.946, 156.806 91.937, 157.762 91.687 C 158.718 91.437, 157.700 91.241, 155.500 91.252 C 153.300 91.263, 152.518 91.468, 153.762 91.707 M 101.081 95.679 C 100.878 101.137, 90.523 107.655, 84.096 106.369 C 81.943 105.939, 81.150 106.351, 80 108.500 C 79.215 109.966, 76.683 112.273, 74.373 113.627 C 69.226 116.644, 62.286 124.011, 61.449 127.348 C 60.146 132.538, 65.423 136.930, 70.597 134.963 C 72.025 134.420, 73.427 133.081, 73.713 131.988 C 74.531 128.861, 76.926 129.635, 81.098 134.374 C 86.158 140.123, 90.844 142.390, 94.664 140.938 C 98.807 139.362, 100.738 137.297, 105.180 129.692 C 107.456 125.795, 110.522 122.043, 112.332 120.939 C 115.180 119.203, 115.247 118.411, 112.500 118.965 C 111.950 119.076, 111.828 118.839, 112.229 118.438 C 112.629 118.037, 111.330 115.493, 109.341 112.783 C 107.352 110.073, 104.698 104.626, 103.443 100.678 C 102.189 96.730, 101.126 94.480, 101.081 95.679 M 174.474 125.120 C 173.196 125.742, 172.029 127.839, 171.311 130.803 C 170.686 133.386, 169.835 136.360, 169.419 137.410 C 168.711 139.200, 169.035 139.280, 174.582 138.676 C 181.717 137.899, 186.950 136.489, 189.434 134.672 C 190.936 133.574, 191.101 132.789, 190.328 130.413 C 188.690 125.377, 179.948 122.459, 174.474 125.120 M 128.947 128.851 C 127.131 129.456, 125.899 133.942, 126.988 135.978 C 128.400 138.616, 136.252 141.383, 140.410 140.708 C 148.276 139.432, 151.519 133.919, 146.808 129.833 C 145.006 128.270, 143.317 127.982, 137.319 128.212 C 133.306 128.366, 129.539 128.654, 128.947 128.851 M 76.500 160.653 C 74.850 161.519, 71.677 163.981, 69.449 166.126 L 65.398 170.025 62.449 166.890 C 57.106 161.208, 50.841 159.806, 41.193 162.131 C 38.612 162.753, 36.012 163.766, 35.417 164.381 C 34.821 164.996, 33.559 170.450, 32.612 176.500 C 31.666 182.550, 29.852 193.276, 28.582 200.335 L 26.273 213.171 28.810 216.186 C 31.042 218.839, 31.794 219.129, 35.085 218.602 C 40.532 217.731, 46.816 214.799, 52.422 210.513 C 57.094 206.942, 57.409 206.846, 58.622 208.625 C 64.211 216.823, 66.448 219.043, 70.110 220.030 C 75.872 221.581, 81.274 219.759, 87.117 214.294 L 91.998 209.728 94.247 212.614 C 98.111 217.574, 100.951 219.769, 104.283 220.370 C 108.481 221.127, 114.609 219.665, 118.121 217.069 C 121.649 214.460, 122.520 214.477, 124.419 217.188 C 125.948 219.370, 125.975 219.372, 133.226 217.707 C 137.227 216.788, 143.295 215.607, 146.711 215.080 C 152.735 214.153, 153.011 214.208, 155.925 216.930 C 161.480 222.119, 169.877 221.681, 176.513 215.854 L 180 212.793 180 215.222 C 180 217.794, 183.709 222, 185.977 222 C 186.718 222, 189.726 221.243, 192.662 220.317 C 196.537 219.096, 198 218.137, 198 216.817 C 198 214.425, 198.794 214.524, 200.950 217.186 L 202.720 219.373 209.360 217.575 C 213.012 216.587, 216 215.600, 216 215.382 C 216 212.535, 219.742 191.552, 222.033 181.553 C 223.665 174.432, 224.999 168.132, 224.999 167.553 C 224.998 166.974, 223.942 165.272, 222.651 163.772 L 220.305 161.044 213.025 162.562 C 206.628 163.896, 205.549 163.902, 204.123 162.614 C 202.697 161.327, 201.713 161.331, 196.013 162.649 C 192.445 163.474, 189.217 164.649, 188.839 165.260 C 188.400 165.971, 186.685 165.045, 184.074 162.685 C 180.637 159.581, 179.280 159, 175.465 159 C 169.960 159, 165.311 160.863, 162.084 164.362 L 159.668 166.983 157.828 163.958 C 156.816 162.294, 155.358 160.691, 154.587 160.395 C 153.085 159.819, 131.503 162.571, 129.938 163.539 C 129.422 163.857, 129 164.813, 129 165.663 C 129 166.771, 128.032 166.357, 125.574 164.199 C 123.690 162.545, 120.799 160.895, 119.150 160.533 C 114.798 159.577, 108.451 161.828, 103.761 165.990 L 99.672 169.619 94.529 164.309 C 89.663 159.285, 89.122 159.002, 84.443 159.040 C 81.725 159.062, 78.150 159.788, 76.500 160.653 M 75.336 163.872 C 71.544 166.618, 66.463 172.374, 64.292 176.382 C 63.407 178.015, 63.178 177.764, 62.563 174.486 C 60.688 164.489, 52.535 160.730, 40.561 164.342 L 36.622 165.530 32.813 187.515 C 30.718 199.607, 29.135 210.175, 29.295 211 C 29.455 211.825, 30.163 209.007, 30.868 204.737 C 31.629 200.125, 32.553 197.224, 33.143 197.588 C 33.689 197.926, 33.870 198.895, 33.545 199.743 C 33.055 201.020, 33.214 201.067, 34.477 200.019 C 35.706 198.999, 36.301 199.005, 37.556 200.047 C 38.843 201.115, 39.060 201.093, 38.806 199.919 C 38.638 199.139, 39.008 198.594, 39.628 198.709 C 40.272 198.829, 41.255 196.253, 41.918 192.709 C 45.243 174.950, 44.920 175.855, 47.826 176.192 C 49.593 176.397, 50.941 177.454, 51.842 179.344 C 53.015 181.801, 52.972 182.786, 51.527 186.567 C 50.608 188.975, 47.864 193.509, 45.431 196.643 C 40.665 202.781, 40.340 205.542, 44.997 200.330 C 48.049 196.913, 49.633 196.942, 47.801 200.381 C 46.784 202.290, 46.837 202.364, 48.336 201.128 C 49.251 200.373, 50 199.149, 50 198.409 C 50 197.669, 50.614 197.298, 51.365 197.586 C 52.118 197.875, 53.882 196.741, 55.300 195.055 C 58.664 191.057, 59.311 191.201, 58.538 195.777 C 58.187 197.854, 58.344 200.667, 58.886 202.027 C 59.768 204.235, 59.887 204.018, 60 200 C 60.105 196.259, 60.279 195.880, 61.032 197.751 C 61.529 198.989, 61.683 200.789, 61.374 201.751 C 60.900 203.225, 60.980 203.264, 61.883 202 C 62.472 201.175, 62.691 199.656, 62.370 198.625 C 62.014 197.483, 62.185 196.997, 62.807 197.381 C 63.369 197.728, 64.027 197.447, 64.270 196.756 C 64.563 195.919, 65.353 196.281, 66.639 197.842 L 68.568 200.184 68.730 196.108 C 69.067 187.655, 75.939 177, 81.054 177 C 84.574 177, 86 179.326, 86 185.068 C 86 191.086, 84.062 196.722, 80.789 200.226 C 78.182 203.017, 77.564 203.216, 73.225 202.664 L 68.500 202.063 71.823 203.514 C 76.398 205.511, 78.890 204.894, 82.184 200.948 C 85.219 197.313, 85.998 197.993, 83.420 202.027 C 81.850 204.485, 81.851 204.487, 83.670 202.360 C 84.676 201.182, 86.248 198.852, 87.163 197.180 C 88.452 194.824, 89.313 194.269, 90.993 194.709 C 92.507 195.104, 93.014 195.838, 92.674 197.139 C 92.406 198.164, 92.595 198.751, 93.093 198.442 C 93.592 198.134, 94 198.359, 94 198.941 C 94 199.523, 94.477 200, 95.059 200 C 95.641 200, 95.843 199.555, 95.507 199.011 C 95.157 198.445, 95.557 198.276, 96.442 198.616 C 97.293 198.943, 97.689 199.725, 97.322 200.355 C 96.956 200.985, 97.634 200.643, 98.828 199.595 C 100.023 198.547, 101 197.102, 101 196.383 C 101 192.777, 105.694 183.110, 109.116 179.670 C 112.304 176.464, 113.495 175.889, 116.426 176.142 C 119.172 176.378, 120.583 175.816, 122.964 173.535 C 126.584 170.066, 126.773 168.070, 123.750 165.248 C 120.343 162.068, 116.557 161.516, 111.475 163.456 C 106.917 165.197, 100.205 171.814, 97.229 177.500 L 95.659 180.500 94.385 173 C 93.379 167.079, 92.561 165.026, 90.500 163.250 C 86.646 159.929, 80.426 160.184, 75.336 163.872 M 167.500 162.866 C 162.616 165.891, 156.219 173.446, 153.699 179.164 C 150.438 186.565, 148.561 194.354, 149.929 194.810 C 150.518 195.006, 151 195.804, 151 196.583 C 151 197.363, 151.450 198, 152 198 C 152.550 198, 153.007 198.787, 153.015 199.750 C 153.024 200.738, 153.350 201.065, 153.765 200.500 C 154.169 199.950, 155.063 199.455, 155.750 199.400 C 156.438 199.345, 157.392 199.233, 157.872 199.150 C 158.352 199.067, 159.038 197.163, 159.397 194.917 C 160.616 187.298, 166.364 178.399, 171.153 176.718 C 172.062 176.399, 173.637 176.746, 174.653 177.490 C 176.145 178.583, 176.492 180.154, 176.457 185.671 C 176.391 196.251, 172.027 202.935, 165.097 203.070 C 162.176 203.127, 161.876 203.302, 163.500 204 C 167.221 205.599, 169.253 205.012, 172.721 201.335 C 174.905 199.018, 176.431 198.079, 176.865 198.782 C 177.956 200.547, 179.639 198.882, 182.480 193.227 C 187.365 183.501, 186.870 168.779, 181.476 163.385 C 178.485 160.394, 171.886 160.149, 167.500 162.866 M 143.500 163.088 C 140.200 163.552, 136.095 164.181, 134.379 164.487 C 131.024 165.084, 131.275 164.431, 129.106 178.236 C 128.697 180.840, 128.168 183.133, 127.931 183.330 C 127.694 183.528, 123.715 184.432, 119.089 185.339 C 114.463 186.247, 110.487 187.179, 110.255 187.412 C 110.022 187.645, 109.589 189.647, 109.292 191.862 L 108.752 195.889 112.400 194.769 C 118.267 192.969, 118.914 194.955, 114.107 200.008 C 110.574 203.722, 109.670 204.184, 106.980 203.646 C 105.287 203.307, 104.145 203.426, 104.444 203.909 C 105.047 204.884, 112.948 205.885, 112.673 204.951 C 112.578 204.629, 113.963 202.692, 115.750 200.648 C 117.537 198.603, 119 197.423, 119 198.024 C 119 198.626, 119.520 198.797, 120.155 198.405 C 120.876 197.959, 121.037 198.131, 120.585 198.862 C 120.187 199.506, 119.373 199.731, 118.776 199.362 C 118.083 198.933, 117.983 199.164, 118.500 200 C 118.975 200.768, 118.915 201.065, 118.355 200.719 C 117.830 200.395, 116.819 201.060, 116.108 202.198 C 114.869 204.183, 114.944 204.176, 117.963 202.026 C 119.694 200.793, 122.243 197.991, 123.627 195.798 C 125.012 193.605, 126.330 191.997, 126.558 192.224 C 126.785 192.452, 126.311 195.757, 125.503 199.569 C 124.695 203.381, 124.076 207.850, 124.127 209.500 C 124.220 212.515, 124.513 211.368, 126.542 200.069 C 126.972 197.676, 127.411 197.048, 127.994 197.991 C 128.568 198.919, 131.184 199.372, 136.326 199.432 C 140.449 199.481, 143.611 199.179, 143.352 198.761 C 143.094 198.342, 144.034 198, 145.441 198 C 146.848 198, 148 197.559, 148 197.019 C 148 195.878, 139.464 196.782, 136.664 198.220 C 134.423 199.370, 133.189 198.411, 134.817 196.783 C 135.468 196.132, 136 194.807, 136 193.839 C 136 192.601, 137.265 191.758, 140.250 191.004 C 148.154 189.009, 149 188.376, 149 184.454 C 149 181.520, 148.681 180.953, 147.250 181.345 C 146.287 181.609, 143.773 182.117, 141.663 182.474 C 138.012 183.092, 137.858 183.011, 138.492 180.812 C 138.859 179.540, 139.363 177.761, 139.612 176.858 C 140.138 174.957, 142.943 174.033, 148.250 174.014 C 151.901 174, 152.002 173.901, 152.074 170.250 C 152.115 168.188, 152.337 165.488, 152.568 164.250 C 153.037 161.736, 153.077 161.741, 143.500 163.088 M 194.199 164.986 C 192.384 165.416, 190.770 165.933, 190.612 166.134 C 190.455 166.335, 189.541 171, 188.581 176.500 C 187.621 182, 186.167 189.992, 185.350 194.261 C 184.533 198.530, 184.058 203.030, 184.296 204.261 C 184.642 206.058, 184.755 205.924, 184.864 203.583 C 184.939 201.979, 185.281 200.948, 185.624 201.291 C 185.967 201.634, 187.077 200.922, 188.091 199.707 C 189.104 198.493, 189.948 198.048, 189.967 198.719 C 189.986 199.441, 190.678 199.677, 191.664 199.299 C 192.872 198.835, 193.104 199.023, 192.510 199.985 C 191.965 200.866, 192.077 201.070, 192.845 200.595 C 193.480 200.203, 194 199.207, 194 198.382 C 194 197.557, 194.450 197.160, 195 197.500 C 195.550 197.840, 196.045 197.304, 196.100 196.309 C 196.170 195.028, 196.433 195.229, 197 197 C 197.440 198.375, 197.845 198.882, 197.900 198.128 C 197.971 197.157, 198.366 197.053, 199.250 197.771 C 199.938 198.330, 202.273 198.640, 204.439 198.461 C 207.228 198.231, 208.766 198.627, 209.704 199.818 C 210.433 200.743, 210.931 201.050, 210.811 200.500 C 210.442 198.807, 213.057 185.926, 215.482 177.500 C 216.747 173.100, 218.079 168.208, 218.441 166.629 L 219.099 163.758 214.299 164.461 C 211.660 164.848, 209.205 165.465, 208.845 165.832 C 207.996 166.698, 204 186.498, 204 189.839 C 204 191.633, 203.684 192.084, 202.947 191.347 C 202.338 190.738, 201.810 184.751, 201.697 177.156 C 201.478 162.536, 201.869 163.170, 194.199 164.986 M 81.847 185.633 C 79.689 188.069, 76.294 194.767, 75.450 198.250 C 74.942 200.346, 75.149 201, 76.319 201 C 79.707 201, 84.619 191.270, 83.847 186.089 C 83.511 183.839, 83.448 183.825, 81.847 185.633 M 171.781 187.054 C 167.008 193.292, 164.538 201, 167.312 201 C 170.316 201, 175.493 190.498, 174.822 185.767 C 174.520 183.639, 174.333 183.718, 171.781 187.054 M 111 189.059 C 111 189.641, 111.450 189.840, 112 189.500 C 112.550 189.160, 113 188.684, 113 188.441 C 113 188.198, 112.550 188, 112 188 C 111.450 188, 111 188.477, 111 189.059 M 178.459 196.067 C 178.096 196.653, 178.014 197.348, 178.276 197.610 C 178.538 197.872, 179.019 197.392, 179.345 196.543 C 180.021 194.781, 179.445 194.471, 178.459 196.067 M 149.158 198 C 149.158 199.375, 149.385 199.938, 149.662 199.250 C 149.940 198.563, 149.940 197.438, 149.662 196.750 C 149.385 196.063, 149.158 196.625, 149.158 198 M 186.667 196.667 C 186.300 197.033, 186.014 198.046, 186.030 198.917 C 186.055 200.217, 186.251 200.174, 187.122 198.675 C 188.199 196.823, 187.887 195.447, 186.667 196.667 M 137.250 201.689 C 138.213 201.941, 139.787 201.941, 140.750 201.689 C 141.713 201.438, 140.925 201.232, 139 201.232 C 137.075 201.232, 136.287 201.438, 137.250 201.689 M 182.634 210.886 C 182.249 213.295, 182.145 215.478, 182.402 215.736 C 183.074 216.407, 184.288 209.363, 183.769 207.806 C 183.530 207.090, 183.020 208.476, 182.634 210.886" stroke="none" fill="#000000" fill-rule="evenodd"/><path fill-opacity=".309" d="M 114.217 42.561 C 110.186 45.384, 108.774 49.715, 108.422 60.333 C 108.197 67.133, 107.545 71.428, 106.363 73.893 C 105.412 75.877, 103.863 80.650, 102.921 84.500 L 101.208 91.500 101.060 87 C 100.763 77.970, 97.509 72.323, 90.558 68.775 C 78.263 62.500, 61.666 71.406, 59.566 85.405 C 58.491 92.577, 60.567 98.372, 66.381 104.424 C 69.196 107.356, 72.175 109.988, 73 110.273 C 74.167 110.677, 73.946 111.183, 72 112.555 C 67.195 115.944, 58.839 125.140, 57.369 128.659 C 53.610 137.655, 60.916 144.063, 71.559 141.104 C 75.230 140.083, 75.627 140.181, 77.354 142.532 C 80.251 146.477, 84.827 148.314, 93.500 149.016 C 97.900 149.372, 105.550 150.938, 110.500 152.496 C 118.429 154.992, 121.106 155.339, 133 155.414 C 146.433 155.500, 146.532 155.483, 153 152.144 C 156.575 150.299, 160.625 147.765, 162 146.515 C 164.067 144.635, 165.980 144.155, 173.048 143.744 C 185.977 142.992, 192 139.323, 192 132.201 C 192 127.898, 188.762 124.429, 183.511 123.107 L 178.970 121.964 182.478 118.455 C 189.065 111.868, 190.504 107.824, 190.468 96 C 190.443 88.043, 189.980 84.410, 188.556 81 C 186.527 76.141, 186.406 73.557, 187.521 58.975 C 188.238 49.593, 188.208 49.401, 185.536 46.225 C 181.211 41.085, 174.933 42.388, 167.540 49.959 C 164.269 53.309, 163.401 53.723, 161.308 52.927 C 156.824 51.222, 145.646 50.724, 139.678 51.963 L 133.871 53.168 128.492 48.081 C 123.808 43.651, 119.564 41, 117.157 41 C 116.766 41, 115.442 41.702, 114.217 42.561 M 114.137 45.084 C 111.465 47.951, 110 54.468, 110 63.483 C 110 68.939, 109.470 72.125, 108.118 74.790 C 101.283 88.267, 103.721 103.373, 114.608 115.013 C 120.423 121.229, 129.236 125.268, 138.169 125.811 L 144.839 126.217 143.638 122.724 C 142.978 120.804, 141.953 118.618, 141.361 117.866 C 140.296 116.516, 137 107.412, 137 105.822 C 137 105.370, 137.450 105, 138 105 C 138.550 105, 139 105.810, 139 106.800 C 139 109.405, 140.987 111, 144.231 111 C 147.731 111, 149.213 108.123, 146.516 106.564 C 140.537 103.108, 139.030 97.700, 143.565 95.975 C 149.224 93.824, 157.122 95.681, 157.825 99.328 C 158.028 100.383, 156.668 102.520, 154.484 104.580 C 151.453 107.438, 151.017 108.315, 152.022 109.527 C 154.250 112.211, 157.952 111.332, 159.509 107.750 C 160.849 104.667, 160.924 104.631, 160.961 107.050 C 160.982 108.453, 160.538 110.062, 159.973 110.627 C 159.409 111.191, 158.672 114.094, 158.336 117.077 C 157.999 120.059, 157.283 123.357, 156.744 124.405 C 155.819 126.203, 156.092 126.275, 161.632 125.688 C 170.995 124.697, 176.401 122.374, 181.030 117.352 C 189.856 107.777, 191.593 96.568, 186.616 81.298 L 183.943 73.096 185.563 64.244 C 187.468 53.831, 186.519 48.041, 182.473 45.390 C 180.184 43.890, 179.746 43.929, 175.762 45.978 C 173.418 47.184, 169.858 49.754, 167.851 51.690 C 164.217 55.194, 164.180 55.204, 159.052 54.104 C 152.830 52.770, 141.970 52.707, 136.507 53.973 C 132.589 54.882, 132.422 54.804, 127.576 49.856 C 123.144 45.330, 119.541 43, 116.974 43 C 116.481 43, 115.204 43.938, 114.137 45.084 M 74.422 69.418 C 61.969 74.841, 57.167 90.643, 64.983 100.479 C 70.875 107.893, 76.143 110.469, 78.066 106.877 C 79.019 105.096, 78.972 104.445, 77.831 103.579 C 73.154 100.031, 71.444 91.667, 74.503 87.299 C 76.295 84.741, 82.745 82.345, 84.124 83.724 C 84.711 84.311, 83.594 85.105, 81.152 85.836 C 74.573 87.807, 73.215 94.683, 78.257 100.486 C 83.057 106.010, 94.228 104.255, 97.447 97.471 C 99.404 93.346, 99.480 82.393, 97.583 77.852 C 95.791 73.564, 93.156 71.175, 88.316 69.449 C 83.467 67.719, 78.350 67.708, 74.422 69.418 M 163.452 86.646 C 161.098 89.186, 160.181 92.048, 161.750 91.956 C 162.162 91.932, 164.750 91.287, 167.500 90.523 C 172.048 89.260, 171.580 88.465, 166.500 88.825 C 164.815 88.944, 164.973 88.576, 167.500 86.488 C 170.384 84.106, 170.411 84.010, 168.202 84.005 C 166.938 84.002, 164.801 85.191, 163.452 86.646 M 128 85.883 C 128 86.369, 129.012 87.059, 130.250 87.415 C 132.418 88.040, 132.391 88.111, 129.500 89.356 L 126.500 90.649 129.633 91.276 C 131.357 91.621, 133.944 92.199, 135.383 92.560 C 138.724 93.399, 138.733 92.024, 135.411 88.077 C 132.992 85.202, 128 83.724, 128 85.883 M 99.500 97.722 C 96.621 103.071, 91.785 106, 85.831 106 C 81.762 106, 80.779 106.372, 79.880 108.250 C 79.288 109.487, 76.126 112.236, 72.854 114.357 C 66.226 118.653, 59.358 126.962, 58.376 131.872 C 57.868 134.411, 58.218 135.603, 60.041 137.543 C 62.404 140.059, 65.142 140.522, 70.875 139.375 C 73.720 138.806, 74 138.408, 74 134.934 C 74 129.725, 75.617 129.105, 76.281 134.059 C 77.406 142.445, 83.787 147.146, 93.769 146.943 C 97.541 146.866, 101.917 147.669, 106.570 149.292 C 115.668 152.466, 126.495 154.311, 136.208 154.343 C 143.282 154.366, 144.618 154.021, 152.436 150.147 C 157.894 147.442, 161.888 144.702, 163.551 142.522 C 165.984 139.332, 170 130.251, 170 127.940 C 170 127.256, 167.863 127.144, 163.750 127.612 C 160.313 128.004, 156.938 128.326, 156.250 128.329 C 154.710 128.334, 154.681 128.053, 156.630 131.961 C 158.126 134.959, 158.129 135.506, 156.668 138.570 C 153.629 144.943, 144.334 147.183, 129.315 145.162 C 118.267 143.675, 112.840 141.060, 118.001 139.710 C 119.102 139.422, 119.780 139.547, 119.508 139.987 C 118.268 141.993, 139.912 144.257, 146.402 142.799 C 154.173 141.053, 157.546 134.615, 152.896 130.405 C 151.048 128.733, 149.027 128.483, 136.337 128.358 C 128.387 128.280, 121.609 127.942, 121.275 127.608 C 120.940 127.274, 121.192 127, 121.833 127 C 124.077 127, 122.976 124.039, 120.198 122.602 C 116.910 120.902, 110.353 113.980, 107.313 109 C 106.138 107.075, 104.430 102.912, 103.517 99.750 C 102.605 96.588, 101.778 94.001, 101.679 94.003 C 101.581 94.004, 100.600 95.678, 99.500 97.722 M 151.731 114.080 C 152.085 115.432, 152.538 115.886, 152.788 115.137 C 153.028 114.415, 152.750 113.350, 152.168 112.768 C 151.426 112.026, 151.296 112.417, 151.731 114.080 M 155.158 119 C 155.158 120.375, 155.385 120.938, 155.662 120.250 C 155.940 119.563, 155.940 118.438, 155.662 117.750 C 155.385 117.063, 155.158 117.625, 155.158 119 M 152.498 123.630 C 151.399 124.436, 149.712 124.891, 148.749 124.641 C 147.785 124.391, 147.249 124.595, 147.558 125.093 C 147.866 125.592, 148.879 125.986, 149.809 125.968 C 151.633 125.934, 155.630 123.297, 154.925 122.592 C 154.690 122.356, 153.598 122.823, 152.498 123.630 M 175.159 124.529 C 173.475 125.425, 172.042 128.087, 170.055 134.010 L 167.292 142.244 174.396 141.783 C 185.625 141.055, 192.479 136.108, 190.410 130.225 C 188.739 125.474, 179.714 122.103, 175.159 124.529 M 77.028 160.529 C 75.118 161.388, 71.669 164.116, 69.364 166.591 L 65.172 171.093 62.508 167.599 C 57.676 161.265, 48.360 159.538, 38.173 163.089 C 34.677 164.308, 35.251 162.261, 30.420 190.774 L 26.646 213.049 28.711 215.774 C 30.439 218.055, 31.407 218.448, 34.638 218.180 C 39.748 217.758, 46.243 214.812, 52.530 210.065 L 57.652 206.198 59.511 209.649 C 60.533 211.548, 63.087 214.653, 65.188 216.550 C 68.538 219.577, 69.661 220, 74.353 220 C 78.683 220, 80.472 219.441, 83.757 217.061 C 85.989 215.444, 88.613 213.063, 89.589 211.769 L 91.363 209.417 96.488 214.709 C 101.330 219.707, 101.889 220, 106.610 220 C 109.996 220, 113.301 219.156, 116.863 217.381 L 122.118 214.762 124.335 216.845 C 126.464 218.845, 126.799 218.870, 132.808 217.468 C 136.249 216.665, 142.212 215.520, 146.058 214.923 L 153.051 213.838 156.561 216.919 C 159.372 219.387, 160.968 220, 164.584 220 C 169.349 220, 174.014 218.125, 177.750 214.709 L 180 212.651 180 215.151 C 180 216.526, 181.119 218.703, 182.487 219.988 L 184.974 222.324 191.134 220.459 C 195.201 219.228, 197.453 217.984, 197.763 216.797 C 198.359 214.518, 198.883 214.542, 201.462 216.964 C 203.504 218.882, 203.690 218.887, 209.526 217.154 L 215.500 215.381 217.597 202.930 C 218.750 196.082, 220.930 185.158, 222.443 178.656 L 225.192 166.833 222.922 164.417 C 220.298 161.624, 218.479 161.470, 211.010 163.407 C 206.162 164.665, 205.461 164.645, 204.422 163.224 C 203.392 161.815, 202.444 161.779, 196.129 162.908 C 191.266 163.777, 189 164.629, 189 165.591 C 189 167.698, 187.963 167.314, 185.089 164.144 C 183.665 162.573, 181.517 160.773, 180.316 160.144 C 175.514 157.629, 168.287 159.347, 162.250 164.437 C 160.463 165.945, 158.984 166.800, 158.964 166.339 C 158.944 165.878, 157.893 164.235, 156.628 162.689 L 154.328 159.878 142.181 161.597 C 132.062 163.029, 129.935 163.629, 129.439 165.192 C 128.894 166.909, 128.548 166.810, 125.387 164.035 C 122.464 161.469, 121.125 161.005, 116.715 161.035 C 110.754 161.076, 108.616 162.057, 103.106 167.278 L 99.169 171.009 97.147 167.737 C 93.558 161.931, 90.468 159.744, 85.283 159.340 C 82.343 159.111, 79.162 159.569, 77.028 160.529 M 75.415 163.468 C 73.168 164.815, 70.069 167.735, 68.529 169.958 C 66.988 172.181, 65.372 174, 64.937 174 C 64.502 174, 63.954 174.563, 63.719 175.250 C 63.484 175.938, 63.445 175.544, 63.633 174.375 C 63.862 172.957, 62.544 170.714, 59.668 167.625 C 55.604 163.262, 55.064 163, 50.123 163 C 47.242 163, 42.977 163.481, 40.643 164.068 L 36.401 165.137 32.677 187.318 C 30.628 199.518, 28.963 210.251, 28.976 211.169 C 28.997 212.614, 29.505 212.700, 32.750 211.807 C 40.699 209.621, 49.334 203.706, 54.932 196.612 L 58 192.725 58 196.496 C 58 206.146, 63.106 214, 69.379 214 C 76.417 214, 85.117 207.336, 89.390 198.672 L 90.954 195.500 90.977 199.637 C 90.994 202.615, 91.911 205.137, 94.250 208.637 C 97.282 213.174, 97.815 213.520, 102.187 213.802 C 110.440 214.334, 116.788 209.874, 122.812 199.309 C 125.786 194.094, 126.053 193.858, 125.426 197 C 124.667 200.801, 123.173 212.383, 123.402 212.688 C 123.479 212.792, 125.558 212.278, 128.021 211.546 C 130.485 210.814, 135.875 209.595, 140 208.838 L 147.500 207.460 148.093 202.480 C 148.533 198.786, 148.726 198.352, 148.843 200.800 C 149.035 204.828, 150.970 208.715, 154.360 211.882 C 158.242 215.508, 165.405 214.548, 171.454 209.591 C 177.097 204.967, 183.475 194.393, 185.384 186.497 C 187.491 177.778, 187.312 182.242, 185.096 193.676 C 184.049 199.079, 182.883 206.284, 182.505 209.687 L 181.818 215.874 186.848 214.266 L 191.877 212.658 193.087 205.579 L 194.298 198.500 195.799 203 C 196.625 205.475, 197.683 207.650, 198.150 207.833 C 198.618 208.017, 199 208.954, 199 209.917 C 199 212.707, 199.810 212.877, 205.088 211.189 C 208.622 210.059, 210.169 209.005, 210.429 207.549 C 210.630 206.422, 211.794 199.678, 213.015 192.561 C 214.236 185.445, 215.826 178.020, 216.547 176.061 C 218.043 172.001, 218.229 173.385, 217.105 180.207 C 216.679 182.796, 216.706 184.682, 217.165 184.398 C 217.624 184.114, 218.033 184.471, 218.073 185.191 C 218.113 185.911, 219.266 182.510, 220.635 177.633 C 223.195 168.514, 223.143 165.347, 220.451 166.380 C 219.466 166.758, 219.023 166.462, 219.210 165.550 C 219.369 164.769, 219.050 164.075, 218.500 164.006 C 216.416 163.746, 207.999 165.216, 207.984 165.844 C 207.976 166.205, 207.076 170.731, 205.984 175.902 C 204.893 181.073, 203.948 186.473, 203.885 187.902 C 203.608 194.157, 202.111 181.861, 202.058 172.889 L 202 163.278 196.253 164.429 C 191.028 165.476, 190.455 165.850, 189.947 168.540 C 189.640 170.168, 188.851 171.388, 188.194 171.250 C 187.537 171.113, 186.980 171.563, 186.956 172.250 C 186.932 172.938, 186.295 171.770, 185.541 169.655 C 183.366 163.555, 180.370 161, 175.391 161 C 169.286 161, 166.090 162.516, 161.257 167.707 L 157 172.278 157 168.746 C 157 164.332, 154.332 162.766, 153.691 166.804 C 153.455 168.287, 153.386 167.813, 153.536 165.750 C 153.853 161.405, 153.912 161.419, 142.692 163.037 C 131.050 164.715, 131.153 164.669, 130.451 168.409 L 129.815 171.801 125.091 166.901 C 121.320 162.988, 119.706 162, 117.085 162 C 112.379 162, 107.683 164.536, 103.019 169.595 C 100.786 172.018, 98.798 174, 98.601 174 C 98.404 174, 97.686 172.656, 97.005 171.013 C 96.325 169.370, 95.370 168.271, 94.884 168.572 C 94.398 168.872, 94 168.501, 94 167.746 C 94 166.992, 92.738 165.165, 91.195 163.687 C 87.452 160.101, 81.177 160.014, 75.415 163.468 M 203 169.786 C 203 174.521, 204.478 175.457, 205.311 171.250 C 205.646 169.562, 205.305 167.935, 204.428 167.036 C 203.185 165.761, 203 166.117, 203 169.786 M 95.345 174.907 C 95.430 177.152, 95.597 178.991, 95.715 178.994 C 95.833 178.997, 96.415 178.092, 97.009 176.983 C 97.827 175.455, 97.737 174.463, 96.639 172.895 C 95.277 170.950, 95.199 171.072, 95.345 174.907 M 122.976 174.524 C 120.724 176.849, 119.271 177.671, 118.602 177.002 C 116.755 175.155, 114.035 175.973, 110.046 179.578 C 104.413 184.666, 100.145 196.933, 102.765 200.500 C 105.897 204.763, 111.351 204.061, 114.335 199.010 C 116.327 195.637, 116.409 194.937, 114.750 195.448 C 114.063 195.660, 112.273 196.102, 110.772 196.430 C 108.164 197.001, 108.068 196.884, 108.588 193.763 C 109.876 186.029, 109.291 186.552, 118.212 185.159 C 122.770 184.446, 126.888 183.484, 127.363 183.019 C 129.008 181.409, 129.314 173.505, 127.781 172.233 C 126.625 171.274, 125.699 171.716, 122.976 174.524 M 153.160 172.152 C 153.039 173.398, 151.527 173.975, 146.998 174.500 C 140.474 175.257, 140.593 175.179, 139.583 179.394 L 138.890 182.288 144.536 181.625 L 150.182 180.961 149.593 185.231 C 149.036 189.275, 149.139 189.161, 151.553 183.078 C 153.038 179.337, 153.938 175.372, 153.711 173.578 C 153.496 171.885, 153.248 171.243, 153.160 172.152 M 45.163 180.250 C 44.560 182.588, 43.583 187.200, 42.994 190.500 C 42.404 193.800, 41.688 197.625, 41.403 199 C 40.944 201.216, 41.261 201.058, 44.193 197.601 C 51.696 188.757, 53.767 181.767, 50 178 C 47.131 175.131, 46.396 175.473, 45.163 180.250 M 77.602 179.099 C 74.518 181.524, 70.457 189.046, 69.512 194.082 C 68.715 198.331, 71.834 203, 75.469 203 C 82.774 203, 89.243 184.859, 83.961 179.189 C 81.442 176.485, 80.933 176.478, 77.602 179.099 M 168.683 179.035 C 164.257 182.516, 160.787 189.432, 160.635 195.073 C 160.515 199.534, 160.801 200.263, 163.270 201.783 C 165.779 203.327, 166.296 203.344, 168.748 201.968 C 174.960 198.481, 178.852 186.635, 175.845 180.363 C 174.115 176.753, 172.066 176.373, 168.683 179.035 M 117.500 183 C 116.718 184.266, 118.042 184.266, 120 183 C 121.293 182.165, 121.266 182.029, 119.809 182.015 C 118.879 182.007, 117.840 182.450, 117.500 183 M 81.312 186.157 C 78.808 188.838, 75.055 196.652, 75.022 199.250 C 74.960 204.222, 82.438 197.513, 83.547 191.602 C 83.892 189.765, 84.022 187.261, 83.837 186.038 L 83.500 183.814 81.312 186.157 M 170.055 188.914 C 166.384 194.635, 164.888 201, 167.214 201 C 170.408 201, 175 192.761, 175 187.032 C 175 182.752, 173.689 183.251, 170.055 188.914 M 141.750 191.226 C 139.004 191.799, 137 192.769, 137 193.526 C 137 194.247, 136.724 195.557, 136.386 196.437 C 135.863 197.800, 136.170 197.886, 138.451 197.019 C 139.925 196.458, 142.850 196, 144.952 196 C 148.433 196, 148.812 195.733, 149.213 193 C 149.706 189.641, 149.543 189.602, 141.750 191.226" stroke="none" fill="#000000" fill-rule="evenodd"/><path fill-opacity=".947" d="M 112.625 43.862 C 110.071 46.684, 109 51.637, 109 60.623 C 109 67.210, 108.517 69.813, 106.462 74.302 C 105.066 77.351, 103.714 82.243, 103.457 85.173 L 102.989 90.500 104.387 84.467 C 105.157 81.149, 106.701 76.424, 107.820 73.967 C 109.320 70.673, 109.947 66.851, 110.206 59.412 C 110.829 41.546, 116.172 38.375, 127.539 49.125 C 131.541 52.910, 133.435 54.048, 135.180 53.715 L 137.500 53.272 135.090 53.136 C 133.657 53.055, 130.344 50.771, 126.915 47.500 C 122.228 43.030, 120.508 42, 117.729 42 C 115.664 42, 113.642 42.738, 112.625 43.862 M 175.305 44.468 C 173.548 45.232, 170.173 47.639, 167.805 49.816 L 163.500 53.775 157 52.408 C 153.425 51.657, 148.925 51.076, 147 51.118 C 145.075 51.160, 147.455 51.809, 152.288 52.561 C 157.121 53.313, 161.516 54.201, 162.055 54.534 C 162.594 54.867, 165.063 53.354, 167.542 51.172 C 176.639 43.164, 182.470 42.255, 185.381 48.390 C 187.335 52.509, 187.394 58.337, 185.565 66.863 C 184.255 72.972, 184.305 73.511, 186.808 80.363 C 188.836 85.914, 189.423 89.389, 189.448 96 C 189.487 106.181, 187.484 111.379, 180.869 118.264 C 176.226 123.097, 171.046 125.167, 160.170 126.538 L 154.840 127.210 156.420 124.154 C 157.289 122.474, 158 119.713, 158 118.018 C 158 116.323, 158.675 113.320, 159.500 111.346 C 160.325 109.371, 160.959 107.023, 160.910 106.128 C 160.860 105.233, 160.397 105.962, 159.881 107.750 C 159.063 110.583, 158.513 111, 155.594 111 C 151.362 111, 148.691 108.312, 151.410 106.790 C 156.417 103.989, 158.355 99.755, 155.800 97.200 C 154.419 95.819, 152.617 95.571, 153.421 96.872 C 153.949 97.726, 144.904 99.215, 144.083 98.409 C 143.346 97.685, 144.816 96.790, 148.199 95.901 C 151.472 95.042, 151.468 95.038, 147.661 95.469 C 140.095 96.325, 138.887 100.803, 145.132 104.837 C 149.060 107.373, 149.421 110.395, 145.908 111.314 C 142.497 112.206, 140.028 110.873, 139.088 107.633 C 138.502 105.610, 138.154 105.209, 138.105 106.500 C 138.018 108.829, 140.096 115.153, 141.599 117.134 C 142.170 117.885, 143.126 120.188, 143.725 122.250 L 144.813 126 138.430 126 C 122.065 126, 107.237 112.951, 104.139 95.824 C 103.708 93.446, 102.887 91.592, 102.313 91.705 C 101.731 91.819, 101.038 89.354, 100.746 86.133 C 100.458 82.955, 99.286 78.521, 98.142 76.278 C 96.130 72.334, 90.714 67.976, 87.882 68.023 C 87.122 68.035, 87.911 68.742, 89.637 69.593 C 94.666 72.073, 96.822 74.661, 98.462 80.185 C 100.300 86.373, 100.392 89.959, 98.847 95.118 C 97.480 99.678, 95.410 101.751, 90.555 103.420 C 85.573 105.133, 81.425 104.271, 77.957 100.803 C 75.605 98.451, 75 96.973, 75 93.578 C 75 88.896, 76.503 86.961, 81.500 85.209 L 84.500 84.158 81.673 84.079 C 77.989 83.976, 73 88.832, 73 92.522 C 73 96.072, 75.796 101.820, 78.130 103.070 C 80.476 104.325, 80.475 105.191, 78.129 108.089 C 76.282 110.370, 76.221 110.376, 73.379 108.570 C 68.671 105.579, 64.938 101.736, 62.908 97.790 C 59.522 91.207, 60.909 80.075, 65.788 74.680 C 68.550 71.626, 75.086 68.746, 81 67.977 L 86.500 67.262 82 67.153 C 77.061 67.033, 69.905 69.814, 66.153 73.312 C 62.097 77.093, 59.898 82.616, 59.867 89.099 C 59.843 94.116, 60.340 95.855, 62.974 99.959 C 66.031 104.723, 71.791 110, 73.933 110 C 75.722 110, 75.121 111.827, 73.124 112.461 C 70.931 113.157, 60.200 123.863, 58.344 127.207 C 56.695 130.177, 56.705 136.029, 58.363 138.211 C 60.637 141.204, 64.847 142.199, 70.295 141.030 C 75.133 139.993, 75.300 140.039, 79.057 143.432 C 83.329 147.292, 89.778 149.460, 94.641 148.671 C 96.636 148.347, 100.536 149.057, 104.928 150.543 C 115.741 154.201, 128.305 156.239, 137.434 155.817 C 144.021 155.512, 146.731 154.847, 152.213 152.188 C 155.905 150.398, 160.180 147.891, 161.713 146.617 C 163.923 144.780, 166.169 144.176, 172.565 143.696 C 181.983 142.990, 185.476 141.849, 189.250 138.249 C 192.807 134.856, 192.924 130.289, 189.548 126.646 C 188.199 125.191, 186.589 124, 185.971 124 C 185.353 124, 186.231 125.165, 187.923 126.589 C 193.155 130.991, 191.707 136.945, 184.664 139.987 C 179.677 142.142, 167 143.670, 167 142.117 C 167 141.543, 167.908 138.770, 169.018 135.954 C 170.128 133.138, 171.132 129.680, 171.248 128.270 C 171.401 126.423, 172.365 125.328, 174.692 124.355 C 178.835 122.624, 185.381 115.715, 188.104 110.199 C 189.566 107.239, 190.362 103.342, 190.658 97.699 C 191.034 90.552, 190.713 88.413, 188.157 81.028 C 185.343 72.898, 185.281 72.341, 186.613 67.229 C 189.381 56.599, 187.847 46.594, 183.055 44.030 C 180.566 42.697, 179.198 42.775, 175.305 44.468 M 139.269 52.693 C 140.242 52.947, 141.592 52.930, 142.269 52.656 C 142.946 52.382, 142.150 52.175, 140.500 52.195 C 138.850 52.215, 138.296 52.439, 139.269 52.693 M 163.857 86.989 C 160.651 90.195, 160.738 92.746, 163.995 91.003 C 165.025 90.451, 167.136 89.936, 168.684 89.858 C 170.876 89.748, 170.614 89.575, 167.500 89.081 L 163.500 88.445 167 86.226 C 169.431 84.685, 169.942 84.006, 168.673 84.004 C 167.668 84.002, 165.501 85.345, 163.857 86.989 M 131 87.267 L 134.500 89.500 130.500 90.108 C 127.669 90.538, 127.285 90.758, 129.185 90.858 C 130.662 90.936, 133.024 91.439, 134.435 91.975 C 138.701 93.597, 137.380 88.765, 132.928 86.463 C 128.520 84.184, 127.097 84.777, 131 87.267 M 100.751 93.663 C 100.490 94.123, 99.986 95.717, 99.630 97.205 C 99.275 98.693, 97.335 101.168, 95.320 102.705 C 92.358 104.964, 90.618 105.502, 86.241 105.511 C 81.650 105.520, 80.643 105.865, 79.618 107.779 C 78.954 109.021, 76.630 111.215, 74.455 112.656 C 65.447 118.621, 58 127.916, 58 133.196 C 58 137.383, 61.183 140.003, 66.250 139.986 C 73.412 139.963, 75.185 139.138, 74.553 136.120 C 74.251 134.679, 74.446 132.825, 74.986 132 C 75.721 130.879, 75.973 131.472, 75.985 134.346 C 76.015 141.959, 82.489 147, 92.236 147 C 95.225 147, 100.332 147.866, 103.585 148.925 C 116.820 153.231, 122.626 154.293, 133.500 154.396 C 143.975 154.495, 144.834 154.342, 151.500 151.194 C 160.334 147.023, 165.452 142.080, 168.006 135.253 C 170.550 128.454, 170.635 125.542, 168.262 126.453 C 167.307 126.820, 163.725 127.381, 160.304 127.701 C 154.242 128.267, 154.121 128.334, 155.542 130.363 C 159.525 136.051, 155.134 142.948, 146.326 144.837 C 140.381 146.112, 124.620 144.704, 119.122 142.406 C 114.298 140.391, 115.680 139.779, 120.954 141.596 C 127.311 143.786, 143.542 144.526, 148.404 142.848 C 153.359 141.138, 156.497 137.115, 155.616 133.605 C 154.544 129.334, 150 127.758, 139.079 127.869 C 133.810 127.922, 128.150 127.563, 126.500 127.069 C 124.299 126.411, 124.032 126.127, 125.500 126.005 C 126.964 125.883, 126.466 125.356, 123.639 124.038 C 114.476 119.766, 106.405 109.756, 103.852 99.500 C 102.530 94.187, 101.526 92.297, 100.751 93.663 M 146.192 112.860 C 145.310 113.419, 144.985 115.446, 145.192 119.086 C 145.465 123.875, 145.816 124.634, 148.303 125.822 C 150.714 126.973, 151.449 126.936, 153.553 125.557 C 155.603 124.214, 156 123.151, 156 119.012 C 156 115.150, 155.577 113.844, 154.066 113.035 C 150.996 111.392, 150.705 111.741, 151.386 116.250 C 151.837 119.235, 151.731 120.053, 151.030 119 C 150.480 118.175, 150.024 116.263, 150.015 114.750 C 150 111.983, 148.637 111.309, 146.192 112.860 M 180.750 123.662 C 181.438 123.940, 182.563 123.940, 183.250 123.662 C 183.938 123.385, 183.375 123.158, 182 123.158 C 180.625 123.158, 180.063 123.385, 180.750 123.662 M 77.500 160.850 C 75.300 161.901, 71.719 164.617, 69.543 166.885 L 65.585 171.009 61.427 166.929 C 56.140 161.740, 51.799 160.690, 42.738 162.409 C 39.019 163.114, 35.800 163.873, 35.586 164.096 C 35.372 164.318, 33.316 175.462, 31.016 188.859 L 26.835 213.219 29.498 215.998 C 32.079 218.692, 32.302 218.739, 36.830 217.541 C 43.007 215.906, 49.114 212.717, 53.586 208.790 C 57.117 205.690, 57.270 205.652, 58.572 207.546 C 63.432 214.613, 65.825 217.360, 68.200 218.595 C 74.190 221.711, 82.062 219.432, 88.174 212.812 C 90.278 210.532, 92.131 208.854, 92.291 209.083 C 98.698 218.276, 102.062 220.441, 108.916 219.782 C 111.531 219.531, 115.335 218.183, 117.773 216.644 L 122.046 213.946 124.472 216.564 C 125.806 218.003, 127.373 218.887, 127.955 218.528 C 128.537 218.168, 134.329 216.856, 140.827 215.613 L 152.641 213.351 156.487 216.675 C 159.413 219.205, 161.258 220, 164.199 220 C 169.084 220, 173.811 218.005, 176.924 214.629 C 179.901 211.401, 181.223 211.265, 180.470 214.265 C 180.056 215.915, 180.678 217.276, 182.759 219.269 L 185.618 222.008 191.059 220.165 C 194.394 219.035, 196.923 217.485, 197.593 216.159 C 198.685 213.999, 198.689 213.999, 200.498 215.998 C 202.609 218.330, 204.830 218.469, 210.919 216.648 L 215.337 215.327 217.658 201.509 C 218.934 193.908, 221.068 183.160, 222.400 177.624 L 224.821 167.557 222.842 164.779 C 220.582 161.604, 219.738 161.505, 211.500 163.443 C 206.236 164.682, 205.297 164.672, 203.845 163.359 C 201.480 161.220, 189.962 163.428, 189.249 166.157 C 188.984 167.170, 188.593 168, 188.381 168 C 188.168 168, 186.380 166.213, 184.407 164.028 C 178.689 157.699, 170.535 157.657, 163.026 163.918 L 159.552 166.814 156.526 163.460 L 153.500 160.105 142.113 161.802 C 131.770 163.344, 130.646 163.718, 129.846 165.883 C 128.980 168.229, 128.938 168.236, 127.233 166.327 C 124.061 162.778, 120.594 161, 116.843 161 C 111.578 161, 108.676 162.338, 103.352 167.222 C 99.876 170.412, 98.561 171.124, 98.186 170.024 C 97.909 169.212, 95.839 166.596, 93.586 164.211 C 88.559 158.891, 83.716 157.879, 77.500 160.850 M 77.186 162.083 C 74.813 163.287, 71.224 166.244, 69.210 168.653 L 65.548 173.035 60.737 168.017 C 55.971 163.047, 55.868 163, 49.713 163.006 C 46.296 163.009, 41.850 163.469, 39.834 164.029 C 36.526 164.948, 36.102 165.461, 35.500 169.274 C 35.132 171.598, 33.285 182.164, 31.395 192.754 C 28.111 211.158, 28.035 212.123, 29.660 214.603 C 31.159 216.892, 31.820 217.124, 35.263 216.574 C 40.687 215.707, 48.371 211.621, 53.542 206.854 L 57.904 202.834 59.359 206.167 C 61.397 210.836, 67.092 216.787, 70.737 218.058 C 75.931 219.869, 81.714 217.655, 87.342 211.700 C 91.709 207.080, 92.285 206.757, 93.211 208.412 C 94.738 211.142, 100.191 216.587, 102.684 217.873 C 107.253 220.230, 114.293 218.360, 119.353 213.445 C 121.359 211.497, 123.010 210.488, 123.022 211.202 C 123.034 211.916, 123.842 213.537, 124.818 214.804 L 126.591 217.109 138.045 214.927 C 144.345 213.728, 150.175 212.410, 151 212 C 151.996 211.505, 153.751 212.378, 156.225 214.602 C 158.273 216.443, 161.126 218.244, 162.564 218.605 C 167.907 219.946, 176.417 215.142, 181.302 208.027 C 183.186 205.285, 183.271 205.655, 182.120 211.592 C 181.483 214.877, 181.687 216.131, 183.156 217.944 C 184.884 220.078, 185.264 220.136, 190.013 218.997 C 195.503 217.680, 196.954 216, 197.082 210.816 L 197.163 207.500 198.486 210.508 C 199.213 212.163, 200.697 214.321, 201.783 215.303 C 203.512 216.868, 204.327 216.946, 208.348 215.934 C 210.873 215.298, 213.326 214.265, 213.799 213.639 C 214.271 213.013, 215.472 207.160, 216.467 200.634 C 217.462 194.107, 219.508 183.896, 221.015 177.942 L 223.754 167.117 221.525 165.023 C 219.421 163.047, 218.965 163.002, 213.398 164.235 C 207.788 165.477, 207.470 165.711, 206.882 169.020 C 206.390 171.789, 206.236 171.974, 206.132 169.924 C 206.059 168.508, 204.988 166.416, 203.750 165.276 C 201.698 163.386, 200.999 163.297, 195.795 164.261 C 190.672 165.210, 190.025 165.612, 189.459 168.189 L 188.828 171.059 185.844 167.303 C 178.306 157.819, 170.976 157.817, 161.140 167.297 C 157.867 170.452, 156.940 170.967, 157.421 169.364 C 157.864 167.890, 157.301 166.323, 155.607 164.309 L 153.151 161.391 142.077 162.927 L 131.004 164.464 130.371 167.838 L 129.738 171.212 126.119 167.011 C 123.060 163.460, 121.773 162.728, 117.800 162.281 C 113.953 161.847, 112.303 162.218, 108.707 164.326 C 106.290 165.742, 103.054 168.551, 101.516 170.568 L 98.718 174.236 97.434 171.368 C 96.727 169.791, 94.653 166.783, 92.824 164.685 C 88.505 159.728, 83.475 158.891, 77.186 162.083 M 126.033 179.465 C 124.254 181.359, 123.312 181.702, 121.927 180.961 C 119.685 179.761, 116.179 181.017, 113.514 183.975 L 111.528 186.179 115.514 185.457 C 120.170 184.613, 121.262 184, 118.108 184 C 116.879 184, 116.159 183.552, 116.500 183 C 116.840 182.450, 118.243 182, 119.618 182 C 121.030 182, 121.849 182.435, 121.500 183 C 120.811 184.115, 122.404 184.267, 125.651 183.396 C 126.959 183.045, 128.002 181.778, 128.312 180.159 C 128.989 176.638, 128.755 176.567, 126.033 179.465 M 145 180 C 143.857 180.738, 144.254 180.973, 146.667 180.985 C 148.408 180.993, 150.062 181.563, 150.341 182.250 C 150.722 183.191, 151.110 183.129, 151.909 182 C 152.492 181.175, 152.976 180.162, 152.985 179.750 C 153.007 178.663, 146.767 178.858, 145 180 M 49.534 182.250 C 48.662 184.949, 47.267 193, 47.670 193 C 48.415 193, 51.955 184.576, 51.978 182.750 C 52.003 180.749, 50.141 180.368, 49.534 182.250 M 80.204 184.769 C 74.333 191.753, 71.541 202.019, 75.303 202.795 C 78.442 203.443, 83.702 196.750, 85.012 190.444 C 86.795 181.854, 84.717 179.402, 80.204 184.769 M 172.119 183.629 C 169.499 185.464, 164.002 196.341, 164.001 199.691 C 163.999 204.559, 169.484 203.188, 173.042 197.432 C 176.184 192.349, 177.574 182, 175.116 182 C 174.747 182, 173.398 182.733, 172.119 183.629 M 80.041 186.942 C 77.208 190.921, 75 196.397, 75 199.446 C 75 201.782, 75.180 201.875, 77.580 200.782 C 80.621 199.396, 83.477 194.199, 84.468 188.250 C 85.042 184.804, 84.888 184, 83.656 184 C 82.820 184, 81.193 185.324, 80.041 186.942 M 171.776 185.750 C 168.514 189.470, 164.503 199.387, 165.565 201.105 C 166.633 202.834, 171.059 199.509, 172.985 195.530 C 175 191.368, 175.748 184, 174.155 184 C 173.690 184, 172.619 184.787, 171.776 185.750 M 106.706 196.875 C 105.600 202.161, 105.823 203, 108.333 203 C 111.723 203, 112.278 201.930, 110.109 199.574 C 109.059 198.433, 108.022 196.600, 107.806 195.500 C 107.517 194.037, 107.222 194.406, 106.706 196.875 M 144.813 195.683 C 145.534 195.972, 146.397 195.936, 146.729 195.604 C 147.061 195.272, 146.471 195.036, 145.417 195.079 C 144.252 195.127, 144.015 195.364, 144.813 195.683 M 107 201 C 107 201.550, 107.702 202, 108.559 202 C 109.416 202, 109.840 201.550, 109.500 201 C 109.160 200.450, 108.459 200, 107.941 200 C 107.423 200, 107 200.450, 107 201" stroke="none" fill="#000000" fill-rule="evenodd"/></svg>