<svg xmlns="http://www.w3.org/2000/svg" width="200" height="200" fill="#000000"><path fill-opacity=".388" fill-rule="evenodd" d="M80 28.917c-7.729 1.796-28.175 11.355-36.418 17.027-9.132 6.283-17.525 21.138-22.131 39.169-2.379 9.315-2.582 11.467-1.97 20.855.375 5.757 1.156 11.354 1.736 12.437s2.373 6.723 3.984 12.532c3.282 11.828 5.821 16.759 12.539 24.354 5.916 6.69 10.325 9.916 19.964 14.612 10.266 5.001 13.617 6.033 24.373 7.504 14.018 1.918 20.767 1.163 43.423-4.856 20.164-5.357 36.186-21.288 41.85-41.611 2.229-7.999 3.938-25.216 3.468-34.94-.327-6.779-1.182-10.525-4.219-18.5-2.094-5.5-4.273-10.9-4.841-12-1.681-3.254-11.806-16.5-12.612-16.5-.408 0-3.238-2.362-6.288-5.25-5.703-5.399-16.438-10.676-30.29-14.889-7.753-2.358-22.288-2.333-32.568.056m2.177 10.737c-.592.634-3.011 1.458-5.376 1.83S69.35 43.362 65.5 44.83c-5.776 2.203-8.317 3.981-14.529 10.17-7.6 7.571-11.202 12.931-15.468 23.019-2.09 4.942-2.343 7.138-2.42 21-.119 21.311-.162 20.671 1.475 22.03.806.668 2.374 3.27 3.485 5.782 4.612 10.424 16.978 22.122 28.876 27.315 5.111 2.23 30.677 6.781 36.581 6.512 4.534-.207 19.107-3.398 21.736-4.759.955-.494 2.423-.899 3.262-.899 1.853 0 11.459-6.155 11.484-7.359.01-.472 2.381-3.238 5.268-6.147 3.146-3.169 5.994-7.234 7.106-10.141 1.021-2.669 2.5-6.306 3.287-8.082 3.777-8.522 4.612-12.058 4.43-18.771-.466-17.284-9.3-39.117-19.828-49.007-10.71-10.061-27.986-16.297-46.369-16.738-7.044-.169-10.986.134-11.699.899M100 45.945c0 1.68-.45 3.055-1 3.055s-1-.62-1-1.378-.724-1.978-1.608-2.712c-1.366-1.133-1.816-1.051-2.984.547-1.318 1.802-1.459 1.807-3.329.114C87.149 42.92 86 44.467 86 51.059c0 4.58.339 5.941 1.481 5.941.814 0 1.752-1.08 2.083-2.399C90.238 51.915 95 50.223 95 52.67c0 .766.787 1.687 1.75 2.046s2.355 1.494 3.095 2.523c.981 1.364 2.334 1.788 5 1.566 4.441-.371 5.132-3.135.905-3.621-3.732-.43-3.66-3.184.083-3.184 3.328 0 4.23-.671 3.491-2.598-.301-.785-1.9-1.402-3.631-1.402-3.571 0-2.578-1.645 1.307-2.165 4.249-.569 2.757-2.318-2.25-2.64-4.697-.301-4.75-.27-4.75 2.75m-22.952-.996c-.799.506-1.761.729-2.137.496s-1.238.244-1.914 1.058c-1.692 2.04-.39 12.409 1.658 13.195C77.047 60.616 84 58.125 84 56.35c0-1.198-.81-1.474-3.43-1.168-1.886.22-3.21.044-2.941-.391S78.799 54 79.632 54c.915 0 1.37-.693 1.15-1.75-.234-1.128-1.15-1.665-2.573-1.512-3.186.344-2.716-1.286.791-2.738 1.65-.683 3-1.863 3-2.621 0-1.565-2.777-1.806-4.952-.43m-14.013 5.985C62.466 51.998 62 53.599 62 54.491c0 1.477-.199 1.483-2.223.066C56.156 52.02 55 52.6 55 56.953c0 4.564 1.85 9.275 3.422 8.714.593-.212 1-1.523.905-2.912-.137-2.006.21-2.427 1.68-2.043 1.157.303 2.334-.285 3.134-1.566 1.242-1.99 1.317-1.961 2.551.973 1.39 3.304 3.321 3.053 3.286-.428C69.949 56.803 66.377 49 65.084 49c-.557 0-1.479.87-2.049 1.934m18.616 16.534c-.31.807-.096 1.757.475 2.11C83.719 70.562 87 78.831 87 81.86c0 3.646-2.42 6.848-5.751 7.61C76.363 90.587 71 96.488 71 100.747c0 1.591-.849 2.625-2.748 3.347-3.751 1.427-6.116 3.723-8.358 8.116-2.761 5.41-2.419 8.465 1.373 12.257 2.309 2.309 4.875 3.615 8.75 4.451 9.592 2.071 19.159 3.019 30.786 3.051 21.944.06 30.931-4.14 31.969-14.943.472-4.919.35-5.22-3.684-9.057-2.295-2.183-4.828-3.969-5.63-3.969-1.078 0-1.458-1.27-1.458-4.865 0-5.599-2.23-9.159-6.966-11.121-2.429-1.006-3.034-1.857-3.034-4.267 0-5.924-7.477-13.726-15.899-16.591-4.988-1.696-13.752-1.507-14.45.312m-6.445 71.58c-3.051 1.224-5.493 7.067-4.284 10.248 1.033 2.716 5.743 5.03 9.233 4.536 3.537-.501 2.867-3.143-.998-3.934-1.838-.376-3.795-1.136-4.349-1.69-1.663-1.663.136-5.158 3.009-5.844 3.936-.94 4.408-1.388 3.109-2.953-1.33-1.603-2.454-1.674-5.72-.363m11.249 4.407c-2.838 2.837-3.092 5.19-.898 8.322C88.596 156.116 96 153.111 96 147.539c0-2.604-3.451-6.539-5.734-6.539-.746 0-2.461 1.105-3.811 2.455m18.212-1.788c-.367.366-.667 3.066-.667 6 0 4.666.25 5.333 2 5.333 1.387 0 2-.667 2-2.174v-2.175l2.449 2.301c3.801 3.571 5.551 2.154 5.551-4.494 0-4.798-.252-5.557-1.75-5.271-.963.183-1.896 1.359-2.075 2.613l-.325 2.28-1.997-2.54c-1.965-2.498-3.873-3.187-5.186-1.873m-6 1c-.367.366-.667 3.066-.667 6 0 3.916.374 5.333 1.406 5.333 1.525 0 3.283-9.075 2.122-10.954-.739-1.197-1.891-1.349-2.861-.379m-9.417 3.041c-1.788.656-1.549 4.292.281 4.292 1.811 0 3.118-2.783 1.852-3.942-.486-.444-1.445-.602-2.133-.35"/><path fill-opacity=".167" fill-rule="evenodd" d="M80.388 28.95c-4.964 1.154-11.883 3.858-17.828 6.968C57.217 38.713 52.375 41 51.8 41s-3.879 2.021-7.341 4.492C33.977 52.972 26.6 65.665 21.56 84.894c-2.421 9.233-2.651 11.467-2.063 20 .389 5.645 1.649 12.699 3.055 17.106a1041 1041 0 0 1 4.439 14.327c4.006 13.369 14.24 24.929 28.755 32.48 12.51 6.509 18.915 8.185 33.754 8.835 12.206.535 13.763.381 25.5-2.527 22.139-5.485 29.578-9.35 39.269-20.404 11.962-13.643 16.839-30.545 16.366-56.711-.172-9.518-.548-11.436-4.017-20.5-2.105-5.5-4.304-10.9-4.886-12-2.132-4.029-10.672-14.674-13.906-17.332-1.829-1.504-5.002-4.316-7.051-6.249-3.57-3.369-9.024-5.993-24.275-11.68-9.393-3.502-24.3-4.035-36.112-1.289M93 30.642c-12.697 1.549-20.017 3.859-33.094 10.44-18.689 9.406-25.35 16.5-31.622 33.676C25.861 81.395 24.507 93 26.156 93c.464 0 .844.675.844 1.5s-.45 1.5-1 1.5-1 2.25-1 5 .45 5 1 5c1.896 0 .996 3.188-1.051 3.724-1.719.449-1.94 1.04-1.366 3.652 1.308 5.956 7.018 18.289 10.706 23.124 4.163 5.457 14.787 15.91 17.898 17.61 1.399.764 4.967 2.705 7.929 4.311 6.466 3.508 19.097 6.422 31.396 7.243 7.459.498 11.422.128 23-2.144 15.155-2.974 19.035-4.536 27.58-11.098 9.277-7.126 15.14-14.304 17.571-21.51a439 439 0 0 1 4.75-13.207c2.196-5.768 2.587-8.407 2.587-17.45 0-9.398-.365-11.662-3.092-19.205-5.565-15.391-10.618-23.083-21.46-32.67-7.995-7.07-14.281-10.325-30.48-15.784-5.081-1.712-13.688-2.599-18.968-1.954m-8.581 5.49c-1.189 1.922.877 2.437 10.753 2.68 9.846.241 16.943 1.681 28.361 5.75 5.023 1.79 5.467 1.788 5.467-.027 0-2.54-4.297-4.159-21.5-8.1-6.532-1.496-22.217-1.702-23.081-.303M74 38.141c-7.701 2.114-11.854 4.317-12.274 6.511l-.418 2.186 5.325-2.354c2.928-1.295 7.284-2.649 9.68-3.008 5.196-.779 7.191-1.852 6.256-3.364-.81-1.311-3.723-1.301-8.569.029m25.773 8.609-.348 3.75-1.151-2.653c-1.555-3.585-2.803-4.175-4.737-2.241-1.5 1.499-1.777 1.487-3.604-.167q-4.288-3.88-3.74 5.59C86.518 56.652 89 59.574 89 54.333c0-2.549.325-2.823 3.25-2.738 2.176.064 3.357.642 3.573 1.75.178.91.857 1.655 1.51 1.655.652 0 1.764.926 2.471 2.058.993 1.59 2.126 1.988 4.991 1.75 4.501-.374 5.366-3.332.955-3.269-3.829.055-3.836-3.281-.009-3.723 1.654-.19 2.874-1.011 3.074-2.066.258-1.359-.355-1.75-2.742-1.75-1.69 0-3.073-.45-3.073-1s1.35-1 3-1q3 0 3-1.5c0-1.108-1.16-1.5-4.44-1.5-4.401 0-4.442.032-4.787 3.75M75.25 45.573c-3.646 1.607-4.095 3.874-2.092 10.561 1.257 4.196 2.415 4.608 7.738 2.752 3.962-1.381 3.484-3.437-.753-3.239-3.496.164-4.255-1.123-1.143-1.937 2.844-.743 2.481-2.71-.5-2.71-3.411 0-3.145-1.49.538-3.016 3.043-1.26 3.539-3.326.879-3.664-.779-.099-2.88.465-4.667 1.253m-23.562 3.618c-9.785 8.381-19.699 24.321-21.705 34.898C29.442 86.94 29 94.387 29 100.636c0 8.918.293 11.364 1.361 11.364 1.637 0 2.366-5.459 2.586-19.363.151-9.463.338-10.241 4.61-19.204 3.598-7.546 6.087-11.057 12.949-18.268C55.177 50.256 59 45.96 59 45.619c0-1.61-2.936-.176-7.312 3.572m82.898-1.33c-.709 1.147.306 4.139 1.403 4.139 1.255 0 8.973 8.084 12.211 12.791 1.644 2.389 4.328 8.026 5.964 12.527 3.314 9.113 4.448 10.857 5.418 8.328.357-.928-.771-5.623-2.505-10.431-4.121-11.43-9.826-19.052-20.238-27.038-1.002-.769-1.896-.894-2.253-.316m-71.551 3.073C62.466 51.998 62 53.599 62 54.491c0 1.477-.199 1.483-2.223.066-3.576-2.506-4.779-1.952-4.762 2.193.016 4.111 1.908 8.636 3.485 8.334.55-.105.877-1.581.727-3.279-.245-2.775-.105-2.948 1.387-1.71 1.446 1.199 1.858 1.08 3.187-.922l1.527-2.299 1.317 3.133c1.429 3.398 3.368 3.213 3.333-.316C69.949 56.803 66.377 49 65.084 49c-.557 0-1.479.87-2.049 1.934M82.009 67.25c.005.688 1.116 3.5 2.469 6.25 3.215 6.536 3.236 10.877.067 14.045C83.195 88.895 81.411 90 80.58 90c-2.771 0-8.485 5.976-9.162 9.583-.494 2.636-1.447 3.811-4.115 5.078-4.541 2.154-8.703 8.68-8.734 13.691-.058 9.503 12.195 13.199 43.431 13.103 8.611-.026 16.259-.558 18.83-1.31 13.296-3.886 16.29-18.019 5.163-24.374-3.675-2.098-3.978-2.601-3.985-6.617-.009-5.162-2.626-9.339-6.982-11.143-2.281-.945-3.027-1.901-3.03-3.882-.012-8.642-12.668-18.1-24.246-18.119-3.943-.007-5.747.383-5.741 1.24m77.658 25.5c-.248.412-.083 4.746.368 9.631.459 4.983.433 9.592-.059 10.5-.482.89-2.812 6.569-5.177 12.619-3.673 9.398-5.063 11.746-9.549 16.121-2.887 2.817-5.25 5.629-5.25 6.25 0 2.405 2.871.915 7.938-4.121 4.151-4.124 6.139-7.287 9.274-14.75 5.784-13.767 6.787-18.148 6.167-26.929-.293-4.164-.71-8.133-.925-8.821-.432-1.379-2.08-1.675-2.787-.5M30.345 116.543c-.326.849-.322 1.813.007 2.143.713.712 3.648-1.548 3.648-2.808 0-1.51-3.032-.957-3.655.665M32 122.105c0 1.856 4.905 10.998 8.607 16.04 3.745 5.103 12.982 12.819 20.518 17.14 5.598 3.211 16.899 6.318 26.326 7.238 3.823.374 7.909 1.044 9.081 1.489 4.691 1.784 31.689-3.775 38.181-7.86 4.29-2.7 5.572-5.152 2.695-5.152-.876 0-2.737.9-4.135 2-1.399 1.1-3.388 2-4.421 2s-2.661.401-3.616.891c-2.677 1.375-19.368 5.131-22.736 5.116-3.643-.015-24.656-3.449-30.666-5.011-5.105-1.326-14.388-6.731-21.144-12.311-5.088-4.202-11.472-12.833-14.045-18.991-1.415-3.388-4.645-5.188-4.645-2.589m43.206 16.943c-3.252 1.304-5.542 7.121-4.073 10.345 1.382 3.033 5.938 5.057 9.419 4.183 3.475-.872 2.585-2.956-1.528-3.576-6.043-.911-6.808-6.493-1.048-7.645 3.236-.647 4.044-2.749 1.442-3.748-.87-.334-1.657-.578-1.75-.544-.092.035-1.2.478-2.462.985m29.424 4.202c-1.23 4.59-.72 9.75.964 9.75.876 0 1.835-.923 2.13-2.052.535-2.048.541-2.047 2.855.127 3.703 3.478 5.585 1.953 5.224-4.235-.333-5.702-2.323-7.599-3.414-3.254l-.685 2.728-1.935-2.657c-2.367-3.249-4.335-3.405-5.139-.407m-18.461 1.262C81.551 150.384 88.741 157.259 94 152c2.496-2.496 2.571-6.173.171-8.345-2.623-2.374-5.721-2.042-8.002.857m12.498-1.845c-.367.366-.667 3.066-.667 6 0 6.874 2.432 7.497 3.342.857.808-5.899-.438-9.094-2.675-6.857m-9.979 2.979c-1.472 1.471-.698 4.503 1.062 4.164.963-.186 1.75-1.194 1.75-2.24 0-1.99-1.631-3.106-2.812-1.924"/><path fill-opacity=".277" fill-rule="evenodd" d="M81 28.83c-8.11 1.903-30.418 12.378-38.222 17.948C34.46 52.713 26.46 66.641 21.97 83c-3.35 12.207-3.132 28.675.508 38.345 1.404 3.731 2.798 8.443 3.096 10.47s2.096 7.002 3.993 11.056c4.515 9.648 14.876 20.123 25.21 25.489 12.709 6.598 20.24 8.642 34.223 9.291 11.619.539 13.416.362 25.5-2.517 22.134-5.274 27.843-8.114 38.294-19.048 5.717-5.982 12.438-17.323 14.614-24.66 1.562-5.268 3.335-23.936 3.174-33.426-.157-9.286-.548-11.405-3.38-18.326C165.441 75.37 164 71.25 164 70.518c0-2.045-9.798-16.081-13.874-19.874-13.748-12.795-15.003-13.556-33.626-20.383-9.273-3.399-24.497-4.013-35.5-1.431m9.5 1.844C77.691 32.27 51.956 43.066 43.302 50.473 38.234 54.811 29.685 68.8 27.395 76.5 25.549 82.709 24.806 93 26.204 93c.438 0 .796.675.796 1.5s-.515 1.5-1.145 1.5c-.806 0-.973 2.056-.563 6.945.506 6.034.377 6.865-.982 6.344-3.951-1.516 2.494 16.879 9.211 26.292 5.533 7.754 15.377 16.822 23.417 21.57 16.689 9.856 48.445 11.266 71.746 3.185 6.242-2.165 15.065-8.228 21.816-14.992 5.62-5.631 6.332-6.899 11.25-20.037 5.161-13.789 5.25-14.211 5.25-24.991 0-9.933-.323-11.881-3.431-20.691-1.887-5.349-4.343-11.271-5.457-13.16-2.967-5.028-10.06-14.461-10.894-14.488-.395-.012-3.302-2.408-6.46-5.324-4.46-4.118-8.032-6.23-16-9.461-16.221-6.578-23.171-7.9-34.258-6.518m-6.132 5.54c-1.103 1.785 1.269 2.309 11.81 2.608 9.893.281 14.494 1.259 27.633 5.875 4.487 1.577 5.795 1.323 4.92-.955-.481-1.255-3.908-2.556-16.231-6.164-6.109-1.788-27.237-2.813-28.132-1.364m-9.182 1.854c-2.373.467-5.705 1.543-7.404 2.391-1.699.847-3.695 1.541-4.436 1.541-1.446 0-1.865 2.561-.552 3.373.437.27 2.745-.383 5.129-1.45s6.015-2.209 8.068-2.538c4.626-.739 6.474-1.824 5.578-3.273-.378-.612-.998-1.063-1.378-1.002s-2.632.491-5.005.958m25.481 5.599c-.367.366-.704 2.279-.748 4.25-.08 3.511-.105 3.532-1.25 1.078-2.336-5.005-2.707-5.27-4.768-3.405-1.801 1.629-2.01 1.621-3.962-.145-1.766-1.599-2.197-1.657-3.01-.405-1.343 2.067-.702 11.213.821 11.715.812.267 1.25-.629 1.25-2.555 0-2.733.257-2.947 3.25-2.714 2.145.168 3.366.84 3.591 1.977.223 1.123.987 1.554 2.195 1.238 1.326-.347 1.94.125 2.159 1.657.254 1.781.978 2.142 4.305 2.142 2.889 0 4-.417 4-1.5 0-.979-.955-1.486-2.75-1.461-3.829.055-3.836-3.281-.009-3.723 1.654-.19 2.874-1.011 3.074-2.066.258-1.359-.355-1.75-2.742-1.75-1.69 0-3.073-.45-3.073-1s1.35-1 3-1q3 0 3-1.5c0-1.072-1.093-1.5-3.833-1.5-2.109 0-4.134.3-4.5.667M75.25 45.573c-3.624 1.598-3.905 2.942-2.104 10.091 1.125 4.471 1.205 4.541 4.589 3.992 3.935-.639 6.528-2.421 5.633-3.87-.336-.543-1.906-.728-3.489-.412-3.222.645-4.008-.845-.879-1.664 2.763-.722 2.519-2.71-.333-2.71-3.747 0-3.995-1.291-.568-2.956 5.722-2.78 3.069-5.081-2.849-2.471m-25.595 6.032c-8.143 8.023-11.712 13.088-16.336 23.183-3.408 7.438-3.552 8.235-4.071 22.462-.483 13.241-.37 14.75 1.107 14.75 1.181 0 1.656-.916 1.683-3.25.022-1.787.299-8.424.617-14.748.552-10.972.779-11.92 4.967-20.705 3.526-7.396 6.058-10.96 12.884-18.132C55.177 50.256 59 45.96 59 45.619c0-2.023-3.478.205-9.345 5.986M134 48.672c0 .37 2.498 3.112 5.551 6.092 7.168 6.999 11.566 13.849 15.077 23.486 1.554 4.263 3.398 7.75 4.098 7.75.701 0 1.274-.69 1.274-1.532 0-2.753-5.96-17.065-9.047-21.726C145.807 54.973 134 45.174 134 48.672m-71.64 4.276c-.574 2.872-.652 2.907-3.026 1.351-3.643-2.387-4.912-.557-3.757 5.416.659 3.407 1.452 4.87 2.773 5.12 1.609.305 1.755-.081 1.12-2.973-.68-3.095-.609-3.222 1.037-1.856 1.585 1.315 1.925 1.229 3.294-.833l1.527-2.299 1.317 3.133c1.328 3.159 3.355 3.29 3.355.217 0-.911-.736-3.585-1.636-5.941-2.001-5.239-5.086-5.925-6.004-1.335m20.159 14.167c-.287.762.604 3.599 1.98 6.304 4.217 8.295 2.928 14.537-3.393 16.431-4.841 1.45-9.357 6.214-9.497 10.017-.089 2.426-.798 3.268-3.905 4.641-6.489 2.867-11.118 12.387-8.478 17.437 2.992 5.725 12.98 8.495 34.866 9.672 14.291.768 26.872-.701 31.832-3.717 3.846-2.339 7.067-7.477 7.072-11.282.005-4.001-3.283-8.919-7.472-11.175-3.086-1.662-3.524-2.373-3.524-5.72 0-5.192-2.143-8.947-6.423-11.251-2.523-1.359-3.577-2.611-3.577-4.249 0-4.948-5.991-12.228-12.955-15.743-4.644-2.343-15.81-3.266-16.526-1.365m6.663 8.429c1.491 4.416 1.666 6.306.862 9.293C88.845 89.29 85.661 93 83.038 93 80.197 93 75 97.828 75 100.466c0 1.259.67 2.845 1.489 3.525 1.958 1.625.834 3.327-1.75 2.651C69.789 105.348 62 112.525 62 118.381c0 4.912 5.319 6.906 24.5 9.187 25.4 3.021 42.5-1.033 42.5-10.075 0-4.765-.763-6.184-4.606-8.559l-3.408-2.106-4.332 2.097c-4.719 2.285-11.383 3.171-11.843 1.575-.158-.55 2.328-1.928 5.525-3.061 6.626-2.35 7.627-3.478 7.649-8.617.012-2.966-.61-4.166-3.222-6.21l-3.236-2.533-2.514 2.397C104.784 96.509 98 98.372 98 95.5c0-.825.459-1.5 1.02-1.5s2.811-1.131 5-2.513c3.545-2.237 3.98-2.944 3.98-6.465 0-6.939-9.387-14.942-17.595-15L87.31 70zm70.542 17.206c-.216.412-.058 4.575.353 9.25l.747 8.5-5.162 13c-4.582 11.538-5.771 13.594-10.58 18.282-4.182 4.077-5.147 5.553-4.23 6.47s2.454-.08 6.742-4.368c5.625-5.624 9.77-13.653 14.412-27.911 1.703-5.231 1.882-14.564.417-21.723-.45-2.194-1.909-3.005-2.699-1.5M31 116.5c-1.02 1.229-.951 1.5.378 1.5.892 0 1.622-.675 1.622-1.5s-.17-1.5-.378-1.5c-.207 0-.937.675-1.622 1.5m1.584 5.364c-1.702 2.755 10.237 20.319 17.516 25.768 12.153 9.098 20.146 12.39 34.9 14.374 4.675.628 9.706 1.525 11.179 1.992 5.219 1.653 32.439-3.878 38.115-7.745 4.637-3.16 5.278-4.096 3.318-4.848-.839-.322-3.077.61-5.02 2.093-1.928 1.47-4.025 2.352-4.661 1.96-.635-.393-1.442-.309-1.793.187-.755 1.066-15.64 4.47-22.284 5.096-4.794.452-19.811-1.719-30.354-4.387-14.975-3.79-30.94-17.504-36.855-31.66-1.497-3.583-2.964-4.605-4.061-2.83m43.507 17.294c-3.321 1.234-5.022 3.762-5.059 7.519-.052 5.169 6.603 9.107 10.846 6.419 2.045-1.295.408-3.096-2.815-3.096-5.816 0-6.841-5.828-1.311-7.457 3.276-.965 4.306-2.926 1.998-3.805-.687-.261-2.334-.072-3.659.42m28.551 5.592c-1.02 6.172-.781 8.25.952 8.25.876 0 1.835-.923 2.13-2.052.535-2.048.541-2.047 2.855.127 3.537 3.322 5.421 1.938 5.421-3.985 0-4.997-1.515-7.493-3.046-5.016-.452.732-.619 1.658-.372 2.059.248.401.043.981-.456 1.289-.499.309-1.642-.56-2.54-1.931-2.35-3.586-4.222-3.11-4.944 1.259m-17.987-.921c-2.317 2.56-2.156 7.833.279 9.136 2.924 1.565 4.778 1.26 7.027-1.154 2.53-2.715 2.614-5.981.21-8.156-2.399-2.171-5.458-2.1-7.516.174m12.012-1.162c-.367.366-.667 3.066-.667 6 0 6.874 2.432 7.497 3.342.857.808-5.899-.438-9.094-2.675-6.857m57.678 1.876c-.326.849-.369 1.767-.096 2.04.274.273.737-.422 1.03-1.543.624-2.383-.069-2.751-.934-.497m-67.657 1.103c-1.472 1.471-.698 4.503 1.062 4.164.963-.186 1.75-1.194 1.75-2.24 0-1.99-1.631-3.106-2.812-1.924M146 155.559c0 .857.45 1.281 1 .941s1-1.041 1-1.559-.45-.941-1-.941-1 .702-1 1.559m-90.256 6.88c.272 1.425.939 2.865 1.483 3.201.614.38.716-.286.268-1.765-1.039-3.428-2.335-4.491-1.751-1.436m77.685 1.634c0 1.06.353 1.927.785 1.927s.786-.648.786-1.441-.354-1.659-.786-1.927c-.432-.267-.785.382-.785 1.441m-49.263 6.988c.184 1.255.861 2.456 1.505 2.668.747.245.975-.367.63-1.687-.767-2.933-2.54-3.748-2.135-.981"/><path fill-opacity=".979" fill-rule="evenodd" d="M88.5 27.699c-9.441 1.513-14.865 3.327-27 9.033-7.7 3.621-16.25 8.349-19 10.507-7.997 6.276-14.83 17.542-18.856 31.093-3.675 12.369-3.831 13.393-3.712 24.346.085 7.88.675 11.943 2.61 18 1.375 4.302 3.199 10.49 4.053 13.751 2.435 9.3 5.932 15.132 13.72 22.888 5.65 5.627 9.268 8.191 16.699 11.834 11.539 5.658 11.549 5.662 21.486 7.426 15.555 2.762 29.557 1.224 51.389-5.644 19.106-6.011 35.209-25.575 38.672-46.984 2.109-13.037 2.584-30.747.983-36.626-4.858-17.845-12.457-30.473-24.977-41.507-6.739-5.94-10.204-8.129-18.196-11.497-15.824-6.67-26.218-8.486-37.871-6.62M83 31.887c-6.35 1.28-12.225 3.554-23.227 8.991-16.366 8.088-20.74 11.874-27.329 23.656-3.816 6.823-8.722 21.766-7.321 22.299.48.183.599 1.426.264 2.763-.35 1.393-.057 3.097.687 3.993.868 1.046.953 1.786.256 2.237-1.338.866-2.369 10.032-1.209 10.749 1.411.872 1.013 2.425-.621 2.425-2.979 0-1.641 5.868 4.445 19.5 4.441 9.945 19.001 24.334 30.899 30.535 5.335 2.782 17.292 5.593 29.382 6.909 9.169.999 10.6.883 25-2.019 16.94-3.415 21.114-5.227 31.195-13.542 9.364-7.724 11.309-10.657 16.565-24.975 7.305-19.899 7.543-30.448 1.078-47.748-4.374-11.707-8.648-18.184-18.052-27.359-7.498-7.317-9.596-8.748-18-12.277-20.837-8.752-26.865-9.592-44.012-6.137M85 37c0 1.064.076 1.074 12.732 1.576 5.817.231 11.243 1.284 18.5 3.59 11.552 3.67 11.964 3.746 12.453 2.278.418-1.254-4.779-3.884-9.689-4.902-1.923-.398-5.424-1.358-7.781-2.133C106.194 35.758 85 35.427 85 37m-12.5 1.983c-4.851 1.259-10.5 3.965-10.5 5.03 0 1.382 1.09 1.256 8.229-.954 3.449-1.068 7.527-2.206 9.062-2.53s2.521-1.024 2.191-1.558c-.692-1.119-4.643-1.114-8.982.012m28.214 4.636c-.393.393-.748 2.777-.79 5.298l-.076 4.583-1.174-3.206c-1.792-4.894-3.336-6.06-5.352-4.044-1.531 1.531-1.759 1.534-2.849.044-.715-.978-1.856-1.361-2.881-.968-1.357.521-1.637 1.706-1.395 5.913.31 5.386 2.048 6.874 2.624 2.247.26-2.092.706-2.453 2.375-1.924 1.246.396 2.375.132 2.871-.671.598-.968 1.094-.598 1.844 1.374.693 1.824 1.521 2.506 2.557 2.109 1.067-.41 1.532.031 1.532 1.452 0 2.407 3.038 3.632 6.717 2.709 2.936-.737 1.928-2.535-1.568-2.799-3.278-.247-2.774-3.531.601-3.92 3.724-.428 3.724-3.33 0-3.277-1.599.023-2.75-.5-2.75-1.25 0-.773 1.233-1.289 3.083-1.289 4.286 0 3.254-2.415-1.196-2.798-1.902-.163-3.78.024-4.173.417m-25.571 2.009c-3.302 1.441-3.345 1.541-2.651 6.168 1.219 8.127 2.702 9.439 7.961 7.043 3.72-1.694 3.387-4.257-.453-3.489-3.368.674-4.17-.811-.899-1.666 2.417-.632 1.657-2.684-.993-2.684-3.138 0-3.18-1.278-.104-3.148 5.492-3.341 3.409-4.96-2.861-2.224m-28.064 8.97c-6.398 6.759-9.087 10.573-12.567 17.825l-4.429 9.226-.686 14.527c-.498 10.537-.37 14.723.465 15.239 1.697 1.048 1.973-.602 2.503-14.915.385-10.411.929-14.095 2.729-18.5 3.271-8.004 9.907-17.646 16.841-24.469 3.336-3.282 6.065-6.32 6.065-6.75 0-2.451-3.726.215-10.921 7.817M135 49.061c0 .583 2.945 4.035 6.544 7.67q9.794 9.89 14.473 25.046c1.378 4.462 3.683 5.261 3.211 1.113-.982-8.619-11.097-25.45-19.106-31.793-4.203-3.329-5.122-3.695-5.122-2.036m-72.64 3.887c-.574 2.872-.652 2.907-3.026 1.351-3.643-2.387-4.912-.557-3.757 5.416.659 3.407 1.452 4.87 2.773 5.12 1.609.305 1.755-.081 1.12-2.973-.638-2.905-.538-3.164.794-2.058 1.245 1.033 1.819.971 3.13-.341.883-.883 1.64-2.136 1.682-2.784.042-.649.604.277 1.25 2.056s1.624 3.218 2.174 3.196c1.4-.054.77-5.508-1.04-9.008-1.952-3.775-4.342-3.763-5.1.025m19.987 14.589c-.324.846.076 2.308.89 3.25 3.432 3.973 4.84 13.222 2.481 16.306-.67.875-2.831 2.123-4.803 2.773-4.809 1.583-9.074 6.196-9.385 10.151-.208 2.64-.922 3.479-4.217 4.954-6.708 3.003-10.4 11.76-7.357 17.447 1.668 3.117 7.856 6.154 14.384 7.06 2.663.369 5.813.87 7 1.111 6.728 1.37 24.441 1.589 32.707.404 10.322-1.479 14.482-3.653 17.251-9.013 3.223-6.24.126-13.585-7.384-17.51-2.073-1.084-2.501-1.922-2.162-4.233.673-4.584-2.003-9.654-6.129-11.612-2.741-1.3-3.623-2.328-3.623-4.222 0-5.745-5.38-11.828-14-15.83-6.42-2.98-14.696-3.528-15.653-1.036m5.39 4.631c.916 1.833 1.847 5.822 2.069 8.864.367 5.041.136 5.819-2.603 8.75C85.55 91.552 83.361 93 82.339 93c-4.435 0-9.569 8.504-6.339 10.5.55.34 1 1.315 1 2.167 0 1.165-.638 1.39-2.572.904-2.902-.728-8.436 2.175-10.929 5.734-2.369 3.383-1.907 8.229 1.005 10.519 3.222 2.535 16.656 4.989 31.496 5.754 19.581 1.01 32.352-2.886 33.039-10.078.483-5.056-.18-6.59-4.069-9.407l-4.03-2.919-4.259 2.381c-4.583 2.561-10.731 3.595-11.335 1.906-.204-.571 2.117-1.884 5.158-2.918 6.088-2.069 6.919-2.78 7.86-6.724.899-3.77-.777-7.464-4.187-9.228-2.755-1.424-3.034-1.372-5.234.969-2.473 2.633-9.459 5.257-10.698 4.018-.785-.785.657-1.998 5.689-4.787 5.88-3.257 6.021-9.129.363-15.124-3.73-3.954-8.106-6.185-14.011-7.145l-4.214-.686zm72.556 29.118c.479 8.856.29 10.378-1.995 16a4897 4897 0 0 0-5.327 13.188c-1.975 4.916-4.155 8.251-7.387 11.305-2.521 2.382-4.584 4.756-4.584 5.276 0 2.096 2.392.679 7.315-4.335 4.135-4.212 5.995-7.291 9.185-15.208 2.2-5.46 4.459-11.899 5.019-14.308 1.248-5.36.276-18.835-1.478-20.494-1.035-.98-1.178.652-.748 8.576M33 122.758c0 2.108 4.288 10.381 7.9 15.241 9.316 12.536 24.855 21.127 42.6 23.552 2.2.3 6.445.974 9.434 1.498 8.144 1.426 11.592 1.196 24.642-1.643 12.39-2.695 22.688-7.542 20.556-9.674-.647-.647-2.298-.169-4.809 1.391-2.103 1.307-4.273 2.42-4.823 2.474-.55.053-1.675.341-2.5.641-4.315 1.567-20.299 4.805-24.112 4.884-8.627.18-31.12-4.656-38.384-8.251-9.435-4.67-21.039-16.118-25.462-25.121-3.275-6.666-5.042-8.415-5.042-4.992m129.079 10.825c.048 1.165.285 1.402.604.605.289-.722.253-1.585-.079-1.917s-.568.258-.525 1.312m-88.986 7.548c-2.661 2.856-2.74 7.974-.159 10.309 2.499 2.262 8.566 2.658 8.566.56 0-.825-.547-1.393-1.215-1.262-.669.132-2.356-.195-3.75-.725-4.309-1.638-3.105-7.189 1.768-8.155 2.622-.521 2.167-2.307-.679-2.665-1.533-.194-3.216.526-4.531 1.938m32.521.684c-.247.4-.707 2.518-1.022 4.706-.617 4.282.487 7.166 2.313 6.038.62-.383.925-1.025.677-1.426-.247-.401-.099-1.296.33-1.99.565-.915 1.242-.558 2.457 1.297 1.897 2.896 4.122 3.329 5.024.978.995-2.594.688-9.25-.46-9.959-1.493-.923-1.959-.207-2.212 3.402-.122 1.724-.322 3.136-.445 3.137-.124.001-.895-1.293-1.713-2.877-1.502-2.903-4.117-4.651-4.949-3.306m-18.959 2.014c-1.724 1.904-2.163 5.824-.88 7.842.41.644 1.919 1.465 3.353 1.825 2.082.522 3.039.107 4.74-2.056 2.614-3.322 2.703-5.613.303-7.785s-5.458-2.1-7.516.174m11.815-.611c-.903 2.353-.109 10.282 1.03 10.282 1.358 0 1.881-9.519.593-10.807-.703-.703-1.215-.538-1.623.525m58.03.782c-.375 1.183-.458 2.376-.183 2.651s.808-.468 1.183-1.651.458-2.376.183-2.651-.808.468-1.183 1.651m-68.11 2.426c-.332.866-.338 2.268-.012 3.117.817 2.129 4.869-.024 4.421-2.349-.426-2.209-3.641-2.769-4.409-.768M153.158 149c0 1.375.227 1.938.504 1.25.278-.687.278-1.812 0-2.5-.277-.687-.504-.125-.504 1.25M40 149.87c0 1.273.935 3.503 2.078 4.956l2.077 2.641-.727-2.983c-.399-1.641-1.334-3.872-2.077-4.957-1.314-1.917-1.351-1.908-1.351.343m107.25 2.867c-.687.236-1.25 1.614-1.25 3.061 0 2.409.135 2.496 1.596 1.034 1.806-1.806 1.558-4.75-.346-4.095m-101.44 3.764c.225 1.924.818 3.499 1.318 3.499s.618-1.238.262-2.75c-.989-4.195-2.04-4.694-1.58-.749m2.936 2.048c-.333 1.741.193 2.836 1.897 3.953 1.764 1.155 2.354 1.224 2.343.271-.054-5.095-3.431-8.458-4.24-4.224m92.77-1.357c-1.021 2.52-.257 4.906 1.265 3.953.916-.573 1.016-1.493.35-3.223-.791-2.058-1.034-2.168-1.615-.73M55.412 162c.308 1.375.567 2.838.574 3.25s.464.75 1.014.75c1.502 0 1.204-2.366-.574-4.559-1.52-1.873-1.555-1.854-1.014.559m81.667-.417c.048 1.165.285 1.402.604.605.289-.722.253-1.585-.079-1.917s-.568.258-.525 1.312m-76.641 3.135c.611 2.533 2.995 5.282 4.58 5.282.35 0 .445-1.298.212-2.883-.274-1.868-1.311-3.288-2.943-4.032-2.422-1.104-2.494-1.04-1.849 1.633M132 164c0 1.111.667 2 1.5 2s1.5-.889 1.5-2-.667-2-1.5-2-1.5.889-1.5 2m-12.75 1.802c-6.089 1.329-7.261 1.912-7.32 3.64-.07 2.034-.08 2.035-.93.058-.752-1.749-.868-1.641-.93.857-.046 1.894.351 2.695 1.18 2.377.688-.263 3.869-1.065 7.071-1.781 4.838-1.083 5.74-1.611 5.343-3.128-.603-2.306.226-2.338 1.944-.075 1.208 1.591 1.331 1.5 1.36-1 .018-1.512-.08-2.7-.218-2.64s-3.513.822-7.5 1.692m-51.477 2.108c.599 4.078 3.889 4.847 4.448 1.04.321-2.192-.044-2.935-1.654-3.368-3.168-.85-3.25-.782-2.794 2.328m6.62.672c.334.87.607 2.22.607 3S75.675 173 76.5 173q1.5 0 1.5-3c0-2.384-.433-3-2.107-3-1.51 0-1.935.448-1.5 1.582m5.686 1.001c.048 1.165.285 1.402.604.605.289-.722.253-1.585-.079-1.917s-.568.258-.525 1.312m3.709 1.167c.28 1.512 1.005 3.081 1.611 3.485 1.841 1.228 15.406.889 16.206-.405.489-.792.173-.959-.979-.517-1.116.429-1.922.057-2.341-1.08-.933-2.529-2.321-3.201-6.652-3.218-3.377-.013-3.8.238-3.344 1.984.853 3.26-1.003 3.26-2.14 0-1.31-3.76-3.047-3.943-2.361-.249m21.462-2.013c-1.765.606-1.596 5.263.191 5.263 1.898 0 2.375-1.038 1.651-3.596-.325-1.153-1.154-1.903-1.842-1.667"/></svg>