<svg width="472" height="500" viewBox="0 0 472 500" fill="#000000" xmlns="http://www.w3.org/2000/svg">
<path fill-rule="evenodd" clip-rule="evenodd" d="M24.8522 7.87055C-1.51929 23.4981 -0.710327 15.1773 0.430424 259.052L1.44815 477.629L13.9703 488.812L26.4887 500L146.312 498.382C303.684 496.261 336.929 486.579 398.582 424.93C533.079 290.43 472.679 62.1792 288.5 8.9442C249.379 -2.36265 43.5366 -3.20144 24.8522 7.87055ZM253.834 104.681C368.509 129.014 410.702 271.291 327.822 354.17C242.046 439.943 97.8117 392.758 77.1328 272.163C59.8054 171.113 152.564 83.1974 253.834 104.681ZM190.746 187.166C149.131 229.236 143.889 263.421 174.104 295.735C224.096 349.205 312.18 293.498 286.438 224.688C281.562 211.655 231.142 160.138 223.261 160.138C220.081 160.138 205.452 172.303 190.746 187.166Z" fill="#000000"/>
</svg>
