<svg width="500" height="180" viewBox="0 0 500 180" fill="#000000" xmlns="http://www.w3.org/2000/svg">
<path fill-rule="evenodd" clip-rule="evenodd" d="M447.432 2.60654C446.217 4.56885 443.548 5.14175 441.5 3.87586C439.445 2.60311 438.752 3.14857 439.953 5.09372C448.835 19.4645 141.597 29.6774 107.75 16.1403C91.6986 9.71818 32.0953 9.88971 31.2857 16.3564C30.9323 19.1867 30.2462 24.5899 29.7625 28.3635C29.1724 32.9434 30.5893 34.8439 34.0267 34.0823C36.857 33.4511 38.0268 34.0823 36.6306 35.482C35.2309 36.8783 35.8072 40.0962 37.9067 42.628C42.4283 48.0758 42.84 47.8494 25.4502 49.4755C3.94374 51.4858 3.35025 51.6402 5.21993 54.666C6.19079 56.2372 5.24394 57.5237 3.11354 57.5237C-3.18505 57.5237 0.849339 71.9357 8.29718 76.0421C18.7022 81.7746 20.4587 85.9737 14.9834 92.0218C-7.72031 117.11 31.9478 155.032 70.9057 145.478C80.6178 143.097 82.0552 143.608 82.0552 149.457C82.0552 159.996 91.1326 165.625 101.977 161.811C115.126 157.186 121.041 143.217 116.625 127.22C112.289 111.515 113.157 110.578 125.919 117.178C136.756 122.784 140.375 128.812 140.375 141.254C140.375 164.682 196.366 190.604 211.615 174.236C217.458 167.965 223.276 167.379 288.077 166.517L358.219 165.588L358.078 147.677C357.999 137.824 358.771 130.897 359.794 132.283C360.812 133.669 365.066 131.309 369.245 127.038C377.708 118.389 376.827 117.415 365.711 123.124C359.667 126.232 359.018 126.129 362.346 122.599C365.358 119.408 378.556 118.42 411.067 118.959C454.66 119.676 469.714 116.949 469.714 108.331C469.714 106.218 466.242 107.429 461.995 111.024L454.276 117.559L460.688 109.978C464.214 105.806 468.846 102.718 470.98 103.116C473.113 103.511 476.314 97.2775 478.091 89.2568C479.868 81.236 482.661 74.6767 484.297 74.6767C485.934 74.6767 486.383 73.2393 485.299 71.4828C484.211 69.7263 485.131 67.174 487.34 65.8086C489.848 64.258 490.438 64.8103 488.908 67.2838C485.687 72.5017 491.217 72.3851 496.472 67.1294C508.332 55.2698 487.762 7.36821 472.136 10.4558C470.033 10.8709 468.238 9.0252 468.153 6.35276C467.971 0.592771 450.615 -2.54623 447.432 2.60654ZM483.957 39.9247C485.474 56.1651 484.675 59.2355 478.616 60.4019C473.484 61.3934 472.561 60.1309 474.101 54.2303C475.35 49.4583 474.232 46.1169 470.966 44.8647C468.173 43.791 466.643 40.9504 467.563 38.549C470.64 30.5351 440.132 26.7271 432.663 34.1956C425.558 41.3003 428.148 43.5817 439.013 39.7943C450.121 35.9246 454.767 37.4546 450.9 43.7121C449.61 45.8013 445.723 46.6143 442.269 45.5166C438.814 44.4188 434.845 45.3656 433.452 47.6229C431.847 50.2165 432.375 50.8203 434.886 49.2696C437.164 47.8631 444.334 52.0416 451.713 59.0743L464.568 71.3319L453.411 67.5205C447.277 65.4244 441.397 62.3162 440.344 60.6181C436.907 55.0571 432.138 57.3727 434.351 63.5272C435.984 68.0728 434.289 67.5102 427.38 61.215C410.563 45.887 421.318 19.787 444.447 19.787C449.525 19.787 452.561 17.7767 452.561 14.4112C452.561 7.23442 483.234 32.1612 483.957 39.9247ZM98.2957 23.7768C104.399 25.6293 112.505 31.1011 116.306 35.9349C125.37 47.4583 125.212 52.6522 116.077 43.5165C107.27 34.7101 102.666 37.784 110.948 46.9368C116.869 53.479 106.265 65.7228 100.059 59.5169C98.9612 58.4191 99.8669 57.5237 102.066 57.5237C108.43 57.5237 106.718 47.8802 98.9852 40.1477C85.5819 26.7443 65.3722 35.952 64.614 55.8084C64.2263 65.9184 64.1715 65.9492 61.4716 57.5237C58.7957 49.1701 58.7168 49.1496 58.384 56.7724C58.1953 61.0778 55.6704 65.5101 52.7716 66.6216C48.0339 68.4399 48.0339 69.4553 52.7716 76.687C60.3669 88.2756 59.3103 94.3032 48.6068 100.516C43.4197 103.525 41.8519 105.175 45.1247 104.183C50.2432 102.629 50.4971 103.309 46.9258 109.024C37.6323 123.909 55.7562 126.297 71.88 112.31C80.2507 105.051 87.3418 103.658 90.4327 108.664C91.4928 110.372 88.8821 111.062 84.6316 110.19C79.8974 109.219 81.2216 110.605 88.0588 113.775C101.925 120.201 102.172 121.95 88.9473 120.012C83.3039 119.182 72.8818 120.805 65.7907 123.618C56.9569 127.12 50.3152 127.762 44.7028 125.652C37.6049 122.986 37.0903 123.275 40.833 127.786C43.701 131.241 43.8863 132.997 41.3854 132.997C34.754 132.997 26.4245 116.719 28.9632 108.722C30.5652 103.676 30.1021 102.022 27.5326 103.61C21.3747 107.415 23.1792 100.324 30.8466 90.5776C38.8399 80.4127 48.8469 78.1142 45.3443 87.2464C43.8691 91.0853 44.4661 92.1419 47.1659 90.4747C58.8712 83.2395 42.6547 64.6593 23.9442 63.8703C12.6163 63.3934 12.4757 63.2631 22.0196 62.0726C49.7423 58.6112 53.938 53.0056 42.1984 35.0875C30.7231 17.5777 59.0564 11.8657 98.2957 23.7768ZM298.4 44.6589C300.55 52.6762 303.165 60.6352 304.207 62.3437C305.25 64.0487 304.321 64.3437 302.146 62.9955C299.93 61.6301 298.135 62.5289 298.074 65.0401C298.008 67.8086 296.036 66.9784 292.928 62.872C290.159 59.2081 287.892 57.1532 287.892 58.3024C287.892 59.4517 286.955 62.8343 285.809 65.8189C284.066 70.361 287 71.3113 303.82 71.644C314.87 71.8636 320.825 72.7247 317.052 73.5618C301.998 76.8929 301.528 77.4315 305.216 87.1332C307.861 94.0905 307.638 97.106 304.321 99.2124C297.586 103.483 293.47 102.657 297.46 97.8333C302.413 91.8435 298.646 73.452 293.367 77.8363C290.89 79.8878 287.466 79.9358 284.344 77.9632C275.936 72.6424 274.766 74.1209 276.138 88.3648L277.459 102.049L246.652 100.657C229.245 99.8676 215.849 100.629 215.849 102.406C215.849 114.564 184.448 101.535 172.623 84.4745C166.362 75.4383 160.887 71.2461 155.347 71.2461C150.06 71.2461 147.099 69.1534 146.839 65.2425C146.461 59.5237 146.365 59.5237 144.873 65.2425C143.71 69.6817 139.772 71.2461 129.747 71.2461C118.598 71.2461 115.637 72.7075 113.061 79.4761C107.442 94.2586 64.9022 108.725 64.9022 95.8538C64.9022 94.2929 69.5369 93.6994 75.2009 94.5296C86.7654 96.2278 100.289 88.9103 106.279 77.7162C109.984 70.7933 109.507 70.5257 95.8943 71.8224C83.6196 72.9923 82.4669 72.5703 87.6402 68.7829C91.0297 66.306 103.109 64.3849 115.301 64.3849C136.101 64.3849 136.945 64.0487 136.945 55.8084C136.945 51.0913 135.73 47.2319 134.245 47.2319C132.76 47.2319 131.312 44.1443 131.027 40.3706C130.574 34.3534 132.626 33.5094 147.676 33.5094C176.915 33.5094 183.481 40.3466 171.035 57.8256L163.957 67.764L175.323 81.4487C184.27 92.2242 189.059 95.1506 197.838 95.1986L208.988 95.2603V68.5016C208.988 51.6711 207.396 40.1511 204.699 37.4512C201.269 34.0172 205.207 33.3654 224.425 34.1921C247.119 35.1664 248.501 35.6982 249.589 43.8013C250.515 50.7345 249.891 51.5544 246.33 48.0895C237.095 39.1047 222.71 42.7583 222.71 54.0931C222.71 65.1533 231.136 68.3095 239.177 60.2682C242.378 57.0674 243.294 58.6352 243.294 67.3249C243.294 78.1828 243.081 78.3475 235.667 73.1569C219.279 61.6781 206.641 76.2514 220.751 90.358C226.545 96.1557 245.307 96.8967 248.666 91.4626C250.302 88.8142 251.939 89.0749 254.079 92.3203C256.546 96.0665 258.162 95.6411 262.344 90.1556C266.996 84.056 266.989 82.9273 262.279 79.4864C255.05 74.1998 255.685 71.2461 264.052 71.2461C268.985 71.2461 272.622 67.4004 276.214 58.3813C289.336 25.4372 292.688 23.3651 298.4 44.6589ZM356.651 54.0931C364.833 77.8809 364.761 79.6133 356.27 63.5272C352.534 56.4533 347.972 50.6625 346.13 50.6625C341.145 50.6625 342.081 56.5219 347.395 58.5597C349.931 59.534 354.02 67.5205 356.483 76.3131C359.372 86.6392 361.91 90.7525 363.65 87.9394C365.132 85.5414 365.427 81.9633 364.305 79.9873C363.183 78.0078 363.53 77.5378 365.077 78.9375C366.621 80.3372 371.845 72.735 376.682 62.0418C382.961 48.165 384.278 42.1957 381.283 41.1974C373.214 38.5078 377.176 33.5094 387.379 33.5094H397.671L396.076 64.5153C395.201 81.5688 393.568 97.0065 392.446 98.8213C387.616 106.636 385.702 100.66 386.23 79.4315C386.861 54.045 385.691 54.2886 370.998 82.598L360.658 102.53L354.583 86.0286C345.937 62.5495 342.781 60.6489 342.781 78.9341C342.781 87.6924 344.325 95.8092 346.212 96.9756C348.099 98.142 349.642 100.739 349.642 102.742C349.642 105.044 347.742 104.815 344.497 102.122C340.596 98.8831 338.201 98.8076 334.589 101.802C330.99 104.791 327.639 104.756 320.867 101.672C309 96.2655 309.473 92.6599 321.817 94.4713L331.728 95.9259L334.201 71.2736C335.872 54.6557 335.436 45.3759 332.867 42.8064C326.249 36.1887 328.705 33.0394 339.611 34.151C349.035 35.1081 350.857 37.2419 356.651 54.0931ZM462.19 49.0364C461.134 50.093 459.216 48.189 457.926 44.8064C456.067 39.9178 456.458 39.5233 459.847 42.8853C462.194 45.2147 463.247 47.9832 462.19 49.0364ZM157.529 46.9197C161.968 50.0587 161.851 50.563 156.671 50.611C152.901 50.6419 150.667 53.3075 150.667 57.7741C150.667 62.7039 152.513 64.5324 156.671 63.7331C164.139 62.2922 164.843 46.6795 157.529 44.6829C152.956 43.4342 152.956 43.6846 157.529 46.9197ZM425.116 64.3849C425.116 66.2717 422.416 67.9939 419.112 68.2134C413.441 68.5908 413.441 68.6972 419.153 70.1895C422.478 71.0574 424.275 73.2599 423.147 75.0884C419.421 81.116 431.679 95.2603 440.632 95.2603C448.396 95.2603 451.13 90.78 449.535 80.6803C449.312 79.2669 450.674 78.1073 452.561 78.1073C458.482 78.1073 456.29 94.859 449.926 98.2655C432.962 107.343 419.191 106.609 415.483 96.4267C413.314 90.4712 411.829 89.0166 411.664 92.6874C411.517 95.9911 409.904 98.6909 408.083 98.6909C404.12 98.6909 397.575 87.2465 397.911 80.9067C398.045 78.4229 399.331 79.4075 400.776 83.092C403.012 88.8108 403.719 88.1693 405.609 78.718C407.486 69.3455 413.188 63.9801 424.258 61.1704C424.732 61.0538 425.116 62.4981 425.116 64.3849ZM143.806 81.8467C143.806 85.7884 147.281 91.9121 151.525 95.4524C155.769 98.9963 157.405 101.943 155.158 102.008C152.911 102.07 149.974 100.344 148.63 98.1729C146.859 95.3015 145.154 95.5382 142.413 99.0306C140.334 101.672 136.712 104.221 134.358 104.695C129.26 105.717 128.633 99.9946 133.514 96.9756C135.401 95.8092 136.945 90.3168 136.945 84.7661C136.945 79.2154 138.489 74.6767 140.375 74.6767C142.262 74.6767 143.806 77.9015 143.806 81.8467ZM185.2 117.834C190.881 124.674 191.406 143.639 186.075 149.292C180.359 155.358 176.39 154.644 181.512 148.472C186.565 142.383 183.395 120.489 177.145 118.328C164.448 113.94 150.499 131.638 155.453 145.855C157.192 150.857 156.678 150.744 152.376 145.183C138.372 127.086 170.596 100.238 185.2 117.834ZM212.418 115.844C212.418 117.731 211.262 119.275 209.845 119.278C208.428 119.278 206.867 126.328 206.377 134.942C205.883 143.556 206.727 149.831 208.253 148.888C209.78 147.944 219.407 149.279 221.877 150.805C224.879 152.661 217.5 153.581 217.5 153.581C217.5 153.581 201.979 150.86 200.288 140.287C199.197 133.446 197.588 124.376 196.716 120.132C195.409 113.751 196.634 112.413 203.777 112.413C208.528 112.413 212.418 113.957 212.418 115.844ZM237.619 116.698C236.161 119.058 235.407 125.134 235.938 130.208C237.023 140.565 231.266 153.581 225.599 153.581C223.129 153.581 223.286 151.872 226.072 148.517C228.508 145.58 229.757 136.928 229.04 127.933C227.993 114.77 228.751 112.413 234.038 112.413C238.148 112.413 239.366 113.871 237.619 116.698ZM274.169 116.966C274.169 120.05 270.924 121.041 264.104 120.04C255.236 118.739 254.268 119.432 255.953 125.875C257.26 130.863 259.733 132.599 263.73 131.33C267.5 130.132 269.596 131.323 269.596 134.664C269.596 140.664 267.627 141.052 260.447 136.469C256.351 133.851 254.951 135.381 253.585 143.965C252.642 149.896 249.726 155.461 247.105 156.325C243.795 157.419 243.228 156.462 245.249 153.193C249.627 146.109 250.68 123.432 246.741 121C238.954 116.187 244.22 112.413 258.731 112.413C269.27 112.413 274.169 113.858 274.169 116.966ZM304.358 116.53C307.559 119.731 308.475 119.731 308.475 116.53C308.475 113.786 315.336 112.413 329.059 112.413C344.912 112.413 349.642 113.576 349.642 117.473C349.642 121.268 347.066 122.019 339.351 120.475C329.707 118.547 329.059 119.079 329.059 128.935C329.059 134.719 326.887 152.618 325 153.785C322.959 155.047 322.198 138.75 322.198 131.484C322.198 119.082 318.273 116.437 308.78 122.444C305.81 124.324 301.569 124.023 297.789 121.662C287.068 114.969 285.737 122.969 296.183 131.316C305.593 138.836 303.014 157.011 292.54 157.011C291.408 157.011 292.543 154.527 295.061 151.495C299 146.747 298.341 145.035 290.334 139.203C280.588 132.102 277.655 117.779 285.319 114.684C292.928 111.614 300.142 112.314 304.358 116.53ZM176.5 155.5C177.666 157.387 176.443 157.5 175.5 157.5C174.557 157.5 159.032 153.087 157.866 151.2C156.699 149.313 156.557 147.5 157.5 147.5C158.443 147.5 175.334 153.613 176.5 155.5ZM263.73 155.5C263.73 156.443 262.958 157.215 262.014 157.215C261.071 157.215 249.5 156.443 249.5 155.5C249.5 154.557 261.071 153.785 262.014 153.785C262.958 153.785 263.73 154.557 263.73 155.5ZM189.883 166.97C188.98 167.873 185.577 165.828 182.318 162.428C176.661 156.521 176.733 156.445 183.961 160.785C188.119 163.286 190.785 166.068 189.883 166.97Z" fill="#000000"/>
</svg>
