<svg xmlns="http://www.w3.org/2000/svg" width="200" height="200" fill="#000000"><path fill-opacity=".357" fill-rule="evenodd" d="M81.5 3.967c-20.739 4.333-37.577 13.82-52 29.299-9.226 9.902-10.838 12.148-15.804 22.032C4.29 74.019 3.507 77.555 3.568 101c.049 18.486.191 19.903 2.732 27.251 2.59 7.49 8.536 20.725 9.77 21.749.332.275 1.811 2.58 3.287 5.122 3.421 5.894 18.032 20.602 25.586 25.759 26.164 17.859 57.311 22.14 87.384 12.009 12.961-4.366 25.319-12.374 36.771-23.826 16.17-16.17 24.917-33.838 28.443-57.453 1.74-11.653 1.197-20.074-2.231-34.611-6.136-26.015-25.095-50.087-50.31-63.876-2.475-1.353-9-4.016-14.5-5.918-9.704-3.356-10.518-3.467-27.5-3.767-9.625-.169-19.3.068-21.5.528m16.268 11.758c1.797.222 4.497.218 6-.01 1.503-.229.032-.411-3.268-.405s-4.529.192-2.732.415m-.106 9.357c-.824.962-1.235 2.012-.913 2.333.321.322.033.585-.641.585s-.979.399-.678.887c.301.487-.122 1.442-.941 2.122-2.729 2.265-1.551 2.836 6.525 3.165 6.359.259 7.907.051 7.5-1.006-.283-.732-.514-1.771-.514-2.309 0-.537-.562-.639-1.25-.226-.798.48-.737.119.169-.997 1.226-1.51 1.226-1.707 0-1.442-.78.168-1.312-.24-1.181-.908.139-.71-.391-.973-1.276-.633-1.24.476-1.286.876-.255 2.214.914 1.186.667 1.13-.9-.205-1.187-1.01-2.007-2.623-1.822-3.583.434-2.253-1.893-2.251-3.823.003m26.866 17.279c9.172 4.422 18.465 11.537 24.096 18.451 4.819 5.915 11.366 17.934 11.391 20.913.013 1.501.161 1.544.959.283.593-.938.587-1.847-.016-2.45-.527-.527-.958-1.73-.958-2.675s-.562-1.917-1.25-2.163-.905-.815-.483-1.266c.421-.452 1.299-.288 1.95.363 1.899 1.899 2.857 1.374 2.372-1.301-.248-1.366-.106-2.697.316-2.957.988-.611.725-4.286-.378-5.289-.466-.423-.517-.095-.113.73s.056.667-.773-.35c-.879-1.078-2.017-1.535-2.729-1.096q-1.216.75-.456-.484c.544-.88.082-1.135-1.595-.88-1.299.196-2.254.893-2.123 1.548.136.68-.4.945-1.25.619-.818-.314-1.488-.959-1.488-1.433s-2.723-3.578-6.052-6.896c-6.416-6.396-14.578-12.083-21.758-15.161-7.311-3.134-7.072-2.079.338 1.494m12.611 38.553c1.299 1.053 2.585 1.691 2.859 1.418.587-.583-2.961-3.332-4.3-3.332-.506 0 .143.861 1.441 1.914M140 84.882c0 .55.45 1.278 1 1.618s1 .168 1-.382-.45-1.278-1-1.618-1-.168-1 .382m21.07-.132c.039.412.457 1.65.93 2.75.762 1.772.867 1.687.93-.75.038-1.513-.38-2.75-.93-2.75s-.968.338-.93.75m2.24 13.75c.005 3.3.192 4.529.415 2.732s.218-4.497-.01-6c-.229-1.503-.411-.032-.405 3.268"/><path fill-opacity=".061" fill-rule="evenodd" d="M80.5 4.973c-11.36 2.585-13.868 3.473-23.994 8.498C29.62 26.814 10.548 52.282 4.44 83c-2.885 14.507-.87 37.353 4.542 51.5.632 1.65 2.744 6.15 4.694 10 12.452 24.585 35.521 42.966 62.903 50.121 8.302 2.169 12.124 2.593 23.421 2.598 18.831.008 33.104-3.661 48.234-12.399 30.603-17.675 48.895-48.927 49.06-83.82.097-20.651-4.615-36.825-15.736-54.016-14.047-21.715-36.749-36.926-63.373-42.463-9.935-2.066-27.547-1.855-37.685.452M82 7.431c-17.149 3.622-33.111 12.545-45 25.154-4.238 4.494-4.092 4.422 2.5-1.238 9.003-7.729 11.267-9.25 21.292-14.304C86.401 4.135 118.727 4.969 144 19.19c5.667 3.189 14.377 9.594 19.302 14.193 3.638 3.398 4.749 3.382 1.622-.024-8.948-9.747-26.443-20.334-40.424-24.462-9.112-2.69-32.83-3.508-42.5-1.466m7.25 7.735c-2.338.523-4.25 1.375-4.25 1.893 0 .517.412.941.915.941 1.103 0-6.365 18.615-8.156 20.33-.692.663-3.284 2.09-5.759 3.172-7.171 3.134-17 10.249-17 12.306 0 .443 3.672-2.392 5-3.861.903-.998 8.037-5.145 12.819-7.453 7.209-3.477 20.422-5.844 28.681-5.138 17.059 1.46 30.163 7.334 41.579 18.639s16.744 22.054 19.001 38.335c2.181 15.725-3.133 34.311-13.415 46.92-5.048 6.192-5.026 7.82.034 2.5C158.791 133.14 166 114.056 166 97.951c0-3.291.315-4.044 1.5-3.589.825.316 1.509.252 1.52-.143.01-.396 2.16-2.982 4.777-5.747 5.225-5.522 9.143-6.655 10.418-3.014 1.243 3.552-.325-6.714-1.904-12.458-1.537-5.596-8.239-19.117-10.999-22.194-1.226-1.365-1.883-1.466-3.395-.522-1.493.933-2.459.827-4.735-.518-1.769-1.044-3.215-1.333-3.792-.756-.513.513-1.823 1.071-2.911 1.24s-2.541.659-3.229 1.088c-.687.429-1.666.523-2.175.208-.509-.314-2.082-.044-3.496.6-2.097.955-2.894.883-4.325-.392-2.12-1.889-13.8-9.591-18.134-11.957-2.317-1.265-3.131-2.424-3.164-4.5-.079-4.977-2.469-12.149-4.917-14.755-2.163-2.303-2.211-2.542-.513-2.542 3.377 0 .161-1.747-5.325-2.893-6.244-1.304-15.981-1.278-21.951.059M51.872 56.75c-1.243 1.586-1.208 1.621.378.378.962-.755 1.75-1.543 1.75-1.75 0-.823-.821-.294-2.128 1.372M30.5 58.278c-1.65.562-3.331 1.517-3.735 2.122-.453.678-.74.429-.75-.65-.032-3.698-1.952-1.453-4.981 5.823-1.734 4.164-2.936 8.102-2.672 8.75.331.811.505.766.559-.144.043-.727.754-1.997 1.579-2.822 1.333-1.333 1.5-1.323 1.5.091 0 1.509 2.158 5.084 7.381 12.23l2.323 3.179 7.117-14.126c3.914-7.77 6.953-14.29 6.753-14.49-.907-.908-12.383-.879-15.074.037m58.143 19.21c-.314.818-.25 1.44.143 1.382s1.614.006 2.714.143c1.208.151.645.495-1.421.869-1.881.34-3.535 1.192-3.675 1.893s-.025.814.254.25c.28-.564.937-1.025 1.46-1.025 1.044 0 .714 4.502-.414 5.629-1.143 1.144-.819 17.182.363 17.912.587.363.983.052.881-.691-.102-.742-.132-4.837-.066-9.1L89 87h16.944c16.47 0 17.023.068 19.75 2.413 2.714 2.335 2.806 2.731 2.806 12.058 0 12.816-.581 13.316-16 13.774l-11 .327 11.75.214c9.683.176 11.75.478 11.75 1.714 0 .825-.434 1.5-.965 1.5s-1.477.958-2.104 2.129c-1.065 1.99-.937 2.099 1.965 1.673 1.707-.251 3.104-.084 3.104.371s-1.773.827-3.941.827-4.257.512-4.644 1.137c-1.156 1.87 14.888.55 17.987-1.481 5.571-3.65 6.098-5.664 6.098-23.296V84.131l-2.943-3.072c-1.619-1.689-4.544-3.516-6.5-4.06s-12.621-.99-23.7-.993c-16.914-.005-20.235.233-20.714 1.482m1.17 7.195c.721.289 1.584.253 1.916-.079s-.258-.568-1.312-.525c-1.165.048-1.402.285-.604.604M54.109 93.75c1.365 1.513 5.097 6.237 8.293 10.5 5.832 7.78 7.028 9.033 5.96 6.25-.317-.825-.078-1.5.531-1.5 2.085 0 1.11-1.861-1.143-2.18-1.648-.235-2.25-.989-2.25-2.82 0-1.556-.567-2.5-1.5-2.5-1.743 0-5.231-3.195-6.907-6.327-1.036-1.935-.913-2.175 1.122-2.188 1.842-.013 1.994-.204.785-.985-.825-.533-2.822-.976-4.437-.985L51.626 91zM64 91.93c0 .589.735 1.07 1.633 1.07 1.669 0 2.687.986 8.526 8.256 1.838 2.288 5.141 6.393 7.341 9.122s4.615 5.165 5.367 5.414.216-.84-1.19-2.42-5.866-7.147-9.913-12.372c-4.694-6.062-8.154-9.616-9.56-9.82-1.212-.175-2.204.162-2.204.75m-.268 4.155c.398 1.519.761 1.736 1.341.797.86-1.392.324-2.882-1.038-2.882-.466 0-.602.938-.303 2.085m27.018 19.577c.688.278 1.813.278 2.5 0 .688-.277.125-.504-1.25-.504s-1.937.227-1.25.504m6 0c.688.278 1.813.278 2.5 0 .688-.277.125-.504-1.25-.504s-1.937.227-1.25.504m29.75.338c.34.55.816 1 1.059 1s.441-.45.441-1-.477-1-1.059-1-.781.45-.441 1M32 122.277c0 1.253-.772 3.38-1.715 4.726-2.681 3.829-2.201 11.994.886 15.061 3.318 3.295 6.473 4.757 11.829 5.477 2.475.334 4.927 1.023 5.45 1.533 2.021 1.97 2.79.805.874-1.324-3.537-3.932-8.192-11.35-12.347-19.676-2.216-4.441-4.242-8.074-4.503-8.074S32 121.025 32 122.277M140 150.5c-.718.865-.815 1.5-.229 1.5.558 0 1.274-.675 1.591-1.5s.419-1.5.229-1.5-.906.675-1.591 1.5m-60.573 17.556a129 129 0 0 1 5.433 4.69c6.992 6.48 18.198 7.785 25.726 2.996 4.371-2.781 9.891-8.598 9.002-9.487-.318-.318-3.714.014-7.547.737-7.071 1.334-29.325.95-33.541-.579-1.355-.492-1.056.038.927 1.643"/><path fill-opacity=".493" fill-rule="evenodd" d="M84 4.499C48.246 11.263 19.991 35.453 8.658 69c-9.995 29.587-5.903 59.701 11.72 86.251 4.392 6.616 19.371 21.247 26.622 26.003 26.288 17.243 58.341 20.667 88.127 9.414 47.597-17.982 73.092-71.417 57.335-120.168-8.391-25.961-30.584-49.969-55.577-60.125C121.042 3.937 99.576 1.552 84 4.499m4.5 1.12C66.062 9.014 44.385 21.317 30.849 38.34 28.732 41.002 27 43.512 27 43.919c0 .406 3.938-3.137 8.75-7.873C55.394 16.712 77.161 8.173 104 9.271c24.481 1.002 43.603 9.485 60.976 27.051 4.112 4.158 7.663 7.373 7.891 7.144.806-.806-8.097-11.419-13.199-15.733C142.221 12.98 124.846 6.104 103.5 5.503c-6.6-.186-13.35-.134-15 .116m-1 8.84c-.55.218-3.588 1.116-6.75 1.996-4.356 1.213-5.75 2.05-5.75 3.454 0 1.02-1.543 3.03-3.428 4.468-1.982 1.512-5.187 5.917-7.6 10.445-5.313 9.973-11.078 13.489-17.195 10.49-2.371-1.163-2.648-1.14-2.143.176.432 1.126-.13 1.512-2.198 1.512-1.528 0-3.489.588-4.357 1.307-.869.718-2.816 1.834-4.329 2.478-3.237 1.38-3.527.362-1.017-3.57 1.646-2.58 1.646-2.646-.011-1.334-2.772 2.196-10.128 14.026-13.126 21.109C16.518 74.261 15.025 83 16.861 83c.626 0 1.173-.787 1.215-1.75.046-1.056.542-.56 1.25 1.25.646 1.65 2.862 5.837 4.924 9.304 4.499 7.562 4.783 11.693 1.381 20.067-1.304 3.207-2.964 8.148-3.689 10.98-1.443 5.628-2.302 6.345-3.474 2.899a172 172 0 0 0-1.517-4.25c-.729-1.94-.755-1.936-.851.131-.134 2.865 4.353 14.637 8.049 21.114 3.52 6.171 11.826 16.614 12.599 15.841.295-.296.019-1.162-.615-1.925-.937-1.13-.676-1.336 1.406-1.107 1.406.154 3.098.726 3.759 1.27.661.545 2.777 1.145 4.702 1.333 1.925.189 3.725.568 4 .843s2.672 1.625 5.326 3 8.376 5.701 12.715 9.614 9.285 7.693 10.992 8.4c2.335.967 2.776 1.516 1.784 2.222-.927.66-.651.791.935.444 1.392-.305 2.579.088 3.106 1.03.628 1.123 3.227 1.66 9.868 2.039 11.835.674 20.008-.337 20.717-2.565.295-.926 2.579-2.766 5.074-4.088 5.023-2.66 9.622-8.344 14.441-17.846 1.744-3.437 3.49-6.25 3.88-6.25s3.035-2.363 5.879-5.25c7.073-7.184 7.479-7.647 11.099-12.65 1.751-2.42 3.184-4.038 3.184-3.596s2.925-2.209 6.5-5.891 6.5-7.358 6.5-8.168.42-2.254.934-3.209c1.166-2.169 3.055-10.352 3.099-13.429.036-2.504 3.119-6.807 4.877-6.807 1.103 0 1.279 1.475 1.253 10.5-.013 4.87.017 4.818 1.19-2 .67-3.897 1.488-6.335 1.846-5.5.714 1.666 1.087-2.919.812-10-.461-11.873-7.083-29.048-15.337-39.774-5.57-7.238-7.674-9.132-7.674-6.907 0 2.399-1.655 2.883-3.511 1.027-1.35-1.35-3.409-1.635-10.664-1.474l-8.991.198-3.417-3.73c-1.879-2.052-3.417-4.565-3.417-5.585 0-2.49-2.319-6.829-4.898-9.162-1.156-1.047-2.102-2.665-2.102-3.596 0-3.176-9.068-5.306-24-5.636-7.425-.164-13.95-.12-14.5.098m-1 24.497C56.529 45.464 36 70.868 36 101.45c0 17.664 5.655 31.166 18.491 44.153C67.227 158.489 80.727 164.037 99.5 164.1c20.746.069 38.78-9.312 50.909-26.482 8.344-11.813 12.213-25.67 11.243-40.274-1.783-26.848-19.097-48.595-45.324-56.926-5.679-1.804-24.094-2.706-29.828-1.462M108 56c0 .55.45 1 1 1s1-.45 1-1-.45-1-1-1-1 .45-1 1m6 3.441c0 1.343.457 2.724 1.016 3.069.559.346.758 1.047.441 1.559-.316.512-.147.931.376.931.522 0 1.233-1.125 1.578-2.5.588-2.346 2.589-3.577 2.589-1.594 0 .499.966.654 2.147.345 1.903-.497 2.072-.259 1.481 2.094-.693 2.763.191 3.436 2.059 1.568q1.088-1.087 1.715-.072c.883 1.429-2.895 2.429-6.329 1.675-1.646-.362-3.163-.179-3.537.425q-.656 1.06 6.323 1.059c3.838 0 7.802.26 8.809.577 3.45 1.087-6.162-6.824-11.168-9.192-6.312-2.986-7.5-2.977-7.5.056m1-.441c0 .55.45 1 1 1s1-.45 1-1-.45-1-1-1-1 .45-1 1m-3.541 4.067c-.363.586-.419 1.306-.126 1.6.717.716 2.667-.546 2.667-1.726 0-1.278-1.726-1.193-2.541.126M108 65.059c0 .582.45.781 1 .441s1-.816 1-1.059-.45-.441-1-.441-1 .477-1 1.059m3.559 1.473C109.72 67.923 109.784 68 112.777 68c2.398 0 3.021-.362 2.585-1.5-.709-1.847-1.326-1.842-3.803.032m-8.29 1.161c.973.254 2.323.237 3-.037s-.119-.481-1.769-.461-2.204.244-1.231.498M65 75.437c0 .295 3.91 5.605 8.69 11.8a7315 7315 0 0 1 12 15.59l3.31 4.326.009-4.326c.004-2.38.292-6.689.639-9.577l.631-5.25h16.406c16.085 0 16.454.048 18.86 2.455 2.193 2.192 2.455 3.299 2.455 10.365 0 6.488-.373 8.384-2.073 10.545L123.855 114H86.428l-8.985-11.75-8.986-11.75-8.728-.289c-4.801-.159-8.729-.031-8.729.283 0 .534 10.506 14.121 23.008 29.756l5.397 6.75 24.548-.006c14.545-.003 26.177-.448 28.547-1.093 9.295-2.527 11.967-9.101 11.36-27.951-.42-13.031-1.917-16.903-7.895-20.415-3.27-1.92-5.368-2.052-37.215-2.334-18.562-.165-33.75-.059-33.75.236m118.976 40.613c-.013 1.898-.433 5.025-.932 6.95-2.189 8.431-2.208 8.541-1.214 7 2.017-3.125 4.432-15.138 3.277-16.293-.809-.809-1.113-.179-1.131 2.343"/><path fill-opacity=".513" fill-rule="evenodd" d="M91.269 4.693c.973.254 2.323.237 3-.037s-.119-.481-1.769-.461-2.204.244-1.231.498m5.481-.031c.688.278 1.813.278 2.5 0 .688-.277.125-.504-1.25-.504s-1.937.227-1.25.504m5.063.021c.721.289 1.584.253 1.916-.079s-.258-.568-1.312-.525c-1.165.048-1.402.285-.604.604m4.437.006c.963.252 2.537.252 3.5 0 .963-.251.175-.457-1.75-.457s-2.713.206-1.75.457M75 6.919c-26.175 7.002-50.345 27.165-61.308 51.143C5.68 75.586 4.579 80.654 4.585 100c.006 19.659 1.999 28.908 9.38 43.518 18.94 37.492 61.292 59.19 101.535 52.02 20.86-3.717 36.223-11.474 51.233-25.868 12.257-11.755 19.612-23.133 24.692-38.201 5.148-15.265 6.908-32.775 4.489-44.643-3.147-15.44-4.515-19.544-10.464-31.393-8.458-16.843-22.199-30.712-40.344-40.721-5.799-3.198-21.191-8.756-23.934-8.643-.92.038 1.928 1.311 6.328 2.829 15.925 5.492 26.82 12.443 38.075 24.291 25.484 26.828 34.006 61.118 23.689 95.311-3.561 11.801-14.732 30.12-23.559 38.632-5.307 5.119-18.459 14.135-25.475 17.464-12.846 6.096-24.598 8.67-39.73 8.702-13.927.029-23.354-1.736-35.528-6.653-8.029-3.243-19.033-9.995-24.928-15.296-2.661-2.392-5.334-4.349-5.941-4.349A1.094 1.094 0 0 1 33 165.921c0-.593-2.163-3.631-4.806-6.75C6.366 133.412.771 96.389 13.935 64.824c11.16-26.759 33.251-47.646 58.923-55.712C78.161 7.446 83.625 5.9 85 5.677c2.141-.347 2.07-.411-.5-.451-1.65-.025-5.925.737-9.5 1.693m39.25-1.23c.963.252 2.537.252 3.5 0 .963-.251.175-.457-1.75-.457s-2.713.206-1.75.457M82 11.962c-11.283 2.417-18.851 5.326-28.396 10.915C27.616 38.094 10 69.39 10 100.338c.001 27.579 13.827 54.902 36.634 72.398 7.689 5.899 20.765 11.973 31.797 14.771 19.728 5.005 43.287 2.667 60.629-6.015 22.043-11.037 38.957-29.968 46.453-51.992 4.407-12.95 6.011-35.106 3.347-46.236-5.969-24.933-17.866-43.604-36.057-56.585C132.811 12.413 105.953 6.83 82 11.962m5.87 2.04c-6.048.963-14.354 3.559-22.336 6.983-3.813 1.635-4.626 2.345-3.5 3.057 1.085.686 1.126.931.157.943-.72.008-1.048.438-.728.955.319.517-2.467 3.364-6.191 6.327-9.053 7.202-11.982 9.031-13.228 8.26-1.811-1.119-1.148-2.874 2.206-5.841 1.788-1.581 2.349-2.426 1.248-1.878-3.117 1.552-14.12 13.157-18.156 19.15-4.719 7.008-9.7 17.858-11.955 26.042-2.591 9.4-2.572 35.867.031 45 2.99 10.49 10.043 23.988 16.609 31.789 8.435 10.021 16.681 16.383 29.473 22.74 14.662 7.287 26.43 9.865 42 9.201 11.573-.494 26.128-3.905 24.93-5.844-.591-.955 7.095-8.886 8.611-8.886.564 0 11.391-13.289 14.083-17.285.353-.522 1.768-.177 3.25.795 2.849 1.866 3.427.967 1.273-1.978-1.201-1.643-.989-2.171 1.893-4.701 2.012-1.767 3.861-2.614 4.864-2.229 1.15.441 1.454.192 1.05-.862-.52-1.355 1.365-2.846 4.046-3.199.55-.073.896-.649.768-1.281-.288-1.43 5.202-5.456 6.149-4.509.381.38 1.093.042 1.583-.751s1.17-1.163 1.511-.822c.832.832-5.015 12.33-8.809 17.322-1.671 2.2-5.326 6.437-8.121 9.415-3.16 3.368-3.947 4.574-2.081 3.19 8.014-5.943 18.871-21.257 23.404-33.013 4.353-11.286 5.41-19.115 4.854-35.946-.404-12.235-.915-15.963-3.102-22.646-4.269-13.048-10.93-23.791-20.978-33.836-4.861-4.86-9.104-8.571-9.429-8.246s.409 1.654 1.631 2.954l2.221 2.364-2.382-.261C148.749 35.819 136 27.128 136 23.713c0-2.502-1.337-3.209-13.886-7.342-8.375-2.759-24.704-3.889-34.244-2.369M81 41.341c-10.976 3.268-17.563 7.229-26.094 15.693-5.903 5.856-8.513 9.419-11.718 16C39.174 81.274 36 93.327 36 100.327c0 7.948 3.173 21.331 6.797 28.673 5.253 10.64 17.85 23.235 28.203 28.2 25.198 12.084 52.332 7.507 72.074-12.156 12.158-12.109 17.96-26.278 17.89-43.688-.099-24.754-12.722-45.438-34.208-56.057-13.631-6.737-31.294-8.265-45.756-3.958M38 42c0 .55.45 1 1 1s1-.45 1-1-.45-1-1-1-1 .45-1 1m71.343.772c-1.204.965-2.088 2.728-2 3.991.221 3.184 2.088 2.858 2.493-.435.185-1.503 1.085-3.303 2-3.999s1.214-1.27.664-1.275-1.971.768-3.157 1.718m-17.496 1.101c-.954 1.527-1.588 1.757-2.58.934-2.052-1.703-2.45-.388-.828 2.738 1.272 2.452 1.569 2.598 2.157 1.065.496-1.293.889-1.442 1.442-.548 1.083 1.751 3.962.365 3.962-1.908 0-1.05-.65-2.448-1.444-3.108-1.159-.961-1.694-.798-2.709.827m9.193-.421c-1.735 2.091-.87 4.998 1.593 5.351 2.38.341 3.742-2.046 2.822-4.944-.706-2.224-2.751-2.413-4.415-.407m11.429 2.048c-.258.825-.646 2.086-.862 2.803-.22.73.989 1.867 2.75 2.584 1.729.704 4.151 1.767 5.383 2.361 1.804.869 2.647.712 4.325-.807 2.068-1.871 2.08-1.866 1.431.718-.558 2.226-.207 2.801 2.425 3.966 1.694.75 3.079 1.88 3.079 2.512s.74 1.433 1.645 1.78c1.886.724 5.355-1.994 5.355-4.194 0-1.201.277-1.238 1.523-.204 1.266 1.05 1.421 1 .923-.3-.331-.861-1.264-1.819-2.075-2.13-.829-.318-1.207-.133-.864.422.336.544.134.989-.448.989S136 55.564 136 55.031s-.747-.681-1.661-.331c-1.317.506-1.543.189-1.093-1.531.428-1.64.122-2.169-1.256-2.169-1.003 0-2.05.563-2.328 1.25-.301.747-.536.545-.583-.5-.046-1.023-.866-1.75-1.972-1.75-1.041 0-2.166-.712-2.501-1.583s-1.169-1.38-1.857-1.131-2.028-.225-2.98-1.054c-1.406-1.225-2.017-1.271-3.25-.248-1.252 1.04-1.519.976-1.519-.362 0-2.04-1.903-2.132-2.531-.122m-30.447.25c.012.413.902 1.875 1.978 3.25 1.503 1.922 1.961 2.114 1.978.832.036-2.718-1.095-4.832-2.585-4.832-.766 0-1.383.337-1.371.75m-3.99 1.5c.042 1.639 2.513 4.872 3.2 4.185.681-.681-1.484-5.417-2.482-5.427-.412-.004-.736.555-.718 1.242m-4.785 1.903C71.823 50.577 73.398 54 75.476 54c2.161 0 2.727-1.702 1.317-3.959-1.469-2.353-1.959-2.475-3.546-.888m.964 2.246c.709.77 1.447 1.25 1.639 1.067.593-.564-.91-2.466-1.948-2.466-.54 0-.401.63.309 1.399M69 51.69c0 .55.9 1.815 2 2.81s2 1.36 2 .81-.9-1.815-2-2.81-2-1.36-2-.81m24.693 1.426c-9.129.935-19.874 5.663-26.023 11.452-2.106 1.983-3.681 3.741-3.5 3.907.942.86 70.83 1.367 70.83.514 0-2.024-7.793-8.169-14.5-11.435-6.186-3.012-8.904-3.804-17-4.953-1.1-.156-5.513.075-9.807.515M65 54.878c0 1.278 2.94 3.515 3.667 2.789.726-.727-1.511-3.667-2.789-3.667a.88.88 0 0 0-.878.878m-4.41 2.749c-1.152 3.001 3.3 5.979 4.949 3.31.651-1.054-2.17-4.937-3.587-4.937-.406 0-1.019.732-1.362 1.627m1.43 1.897c.696.838 1.471 1.318 1.723 1.067.693-.694-.716-2.591-1.924-2.591-.664 0-.588.574.201 1.524m78.98-.131c0 .216.698.661 1.552.989.89.341 1.291.173.941-.393-.587-.951-2.493-1.406-2.493-.596m-2.792 4.646c-1.062 1.701-1.009 2.303.324 3.635 1.191 1.192 1.885 1.309 2.732.462.625-.625 1.586-1.136 2.136-1.136.556 0 .467.533-.2 1.2-1.328 1.328-1.625 3.818-.45 3.768.412-.017 1.983-1.117 3.49-2.443 2.615-2.302 2.924-5.525.531-5.525-.611 0-.546.566.162 1.42.949 1.143.827 1.369-.627 1.159-.993-.143-1.95-1.232-2.126-2.42-.416-2.817-4.24-2.894-5.972-.12M54 64.759c0 .418.9 1.322 2 2.009 2.19 1.367 2.712.344.8-1.568-1.354-1.354-2.8-1.582-2.8-.441m-2.869 3.583c-.612.738-.813 1.643-.445 2.01.367.368-.155 1.271-1.162 2.007s-1.509 1.856-1.118 2.489c.84 1.359 4.594 1.56 4.594.246 0-.499-1.013-.686-2.25-.415l-2.25.491 2.394-1.948c1.329-1.081 2.081-2.454 1.691-3.085-.387-.625-.226-1.137.356-1.137S54 68.55 54 68c0-1.423-1.558-1.237-2.869.342M54 69.941c0 .518.45 1.219 1 1.559s1-.084 1-.941S55.55 69 55 69s-1 .423-1 .941m95-.234c-.825.302-2.688 1.815-4.141 3.363s-2.87 2.586-3.15 2.306-.791-.053-1.136.505c-.375.608.254.845 1.573.591 2.184-.421 5.681 2.972 5.055 4.903-.157.481.479 1.719 1.412 2.75 1.179 1.303 1.307 1.875.42 1.875-1.011 0-.998.337.062 1.615.737.888 1.355 2.553 1.373 3.7.021 1.357.906 2.331 2.532 2.786 2.478.693 2.479.701.167.799-1.396.06-2.165.602-1.913 1.35.247.735 1.622 1.107 3.333.903 3.664-.437 3.983-.761 2.507-2.54-.731-.88-.819-1.665-.228-2.03.53-.328 1.191-.03 1.47.661s.542-.18.585-1.935-.371-3.469-.921-3.809-1.007-1.829-1.015-3.309c-.012-2.05-.237-2.341-.946-1.22-.512.809-1.262 1.139-1.668.733-.406-.405-.205-1.27.446-1.921 1.955-1.955 1.446-4.001-.817-3.283-1.147.364-2 .18-2-.433 0-.587.45-1.067 1-1.067 1.834 0 1.029-1.856-1.098-2.531-1.565-.497-1.981-1.275-1.638-3.067.252-1.321.409-2.366.347-2.323-.061.043-.786.326-1.611.628M85.262 75l-21.238.5 12.738 16.414L89.5 108.328l.5-9.914.5-9.914 13-.304c17.648-.412 21.118.164 23.007 3.817 2.904 5.616 1.385 19.005-2.327 20.506-.924.374-9.595.913-19.268 1.198l-17.589.52-9.79-12.619L67.742 89h-8.871c-4.879 0-8.871.241-8.871.535 0 .631 9.26 12.888 20.5 27.135l8 10.141 7 .444c3.85.244 15.864.334 26.698.201 21.692-.266 25.039-1.042 29.237-6.775 1.81-2.472 2.106-4.561 2.394-16.924.18-7.758.046-15.609-.298-17.446-.873-4.652-6.435-9.95-11.31-10.774-5.503-.929-22.183-1.12-46.959-.537M46 77.883c0 1.015 4.153 2.298 4.927 1.523.647-.647-2.004-2.37-3.677-2.391-.687-.008-1.25.383-1.25.868m96.564 1.41c.376.986.935 1.541 1.243 1.233s.001-1.114-.683-1.793c-.988-.98-1.102-.865-.56.56m-97.535 2.668c-.809.512-1.122 1.279-.696 1.706.427.426 1.145.178 1.596-.553.634-1.025.992-1.05 1.574-.109.421.68.145 1.604-.625 2.091-.758.481-.928.873-.378.873s1.646-.408 2.436-.908c1.19-.753 1.211-1.178.127-2.485-1.507-1.816-2.013-1.893-4.034-.615M42 87c0 .55.675 1 1.5 1s1.5-.45 1.5-1-.675-1-1.5-1-1.5.45-1.5 1m113 .878c0 .482.675 1.437 1.5 2.122 1.628 1.351 1.832 1.028.893-1.418-.643-1.675-2.393-2.19-2.393-.704M42 91.875c0 .481 1.173.875 2.607.875 1.839 0 2.207-.253 1.25-.86C44.091 90.771 42 90.763 42 91.875m.25 3.787c-2.047.826-1.417 2.194.75 1.628 1.118-.293 2-.031 2 .593 0 .615-.525 1.117-1.167 1.117-.641 0-.931.236-.643.524.889.888 3.81-.663 3.81-2.024 0-1.005-2.491-2.815-3.332-2.421-.092.043-.73.306-1.418.583M15.169 100.5c.016 2.75.371 7.475.789 10.5.73 5.283.763 5.164.831-3 .039-4.675-.316-9.4-.789-10.5-.628-1.462-.852-.655-.831 3m136.193 4c-.91 2.369 1.079 3.857 4.131 3.091 1.778-.446 2.534-1.222 2.315-2.377-.443-2.338-5.604-2.909-6.446-.714M41 107c0 .55.423 1 .941 1s1.219-.45 1.559-1-.084-1-.941-1-1.559.45-1.559 1m109.456 3.072c-.696 1.126 4.31 3.191 5.681 2.344.533-.33.811-1.073.618-1.651-.452-1.356-5.544-1.916-6.299-.693m-106.706.617c-.962.252-1.75.875-1.75 1.384 0 1.413 1.606 1.106 3-.573.685-.825 1.077-1.448.872-1.384s-1.16.322-2.122.573M150 114.981c0 1.109 4.795 2.557 5.647 1.706.304-.305.257-1.034-.106-1.62-.827-1.34-5.541-1.412-5.541-.086m-105.857.909c-.746.473-.966 1.101-.489 1.396.478.295 1.737-.098 2.798-.875 2.159-1.578.095-2.044-2.309-.521m104.292 3.215c-.227.367.595 1.007 1.826 1.422 2.136.72 2.109.775-.57 1.186-1.545.237-3.087 1.186-3.427 2.109s-1.101 2.003-1.691 2.4c-1.628 1.094.681 4.212 3.419 4.616 1.838.271 2.188-.042 1.782-1.594-.318-1.215.201-2.372 1.399-3.12 1.048-.654 1.623-1.644 1.28-2.201-.344-.556-.098-1.646.547-2.423s.9-1.853.566-2.393c-.662-1.072-4.469-1.074-5.131-.002m-101.685.584c-.962.252-1.75.875-1.75 1.384 0 1.413 1.606 1.106 3-.573.685-.825 1.077-1.448.872-1.384s-1.16.322-2.122.573m.694 4.728C45.503 125.836 46.25 128 48.681 128c1.338 0 1.367-.238.199-1.644-1.213-1.462-1.115-1.565.878-.933 1.26.4 2.242.291 2.242-.249 0-1.645-2.722-2.098-4.556-.757m2.63 4.994c-.644.776-.789 1.647-.323 1.935.467.289 1.393-.346 2.057-1.411 1.389-2.224.02-2.638-1.734-.524m3.674 3.031c-.961.703-1.748 1.891-1.748 2.64 0 .897.75.612 2.194-.832 2.497-2.496 2.191-3.736-.446-1.808m88.252-.683c0 1.158 4.105 3.469 4.846 2.729.358-.359-.222-1.29-1.289-2.07-2.139-1.564-3.557-1.827-3.557-.659m-77.998 2.44c-.005 1.56 13.193 9.976 18.514 11.806 12.023 4.137 27.698 3.454 37.76-1.645 5.307-2.689 13.724-9.18 13.724-10.583 0-.439-15.749-.682-34.998-.538s-34.999.576-35 .96m75.33.379c-.333.867.096 2.279.954 3.136 1.573 1.573 4.714 1.166 4.714-.611 0-.528-.707-1.667-1.571-2.532-1.998-1.997-3.329-1.995-4.097.007m-83.082 1.084c-1.661.67-1.611 4.338.059 4.338.72 0 2.182-.666 3.25-1.481 1.68-1.282 1.739-1.616.441-2.485-1.636-1.094-1.895-1.12-3.75-.372M141 136c0 .55.477 1 1.059 1s.781-.45.441-1-.816-1-1.059-1-.441.45-.441 1m-84.333.667c-.956.955-.822 2.333.226 2.333.491 0 1.152-.675 1.469-1.5.585-1.524-.481-2.048-1.695-.833m76.964 4.035c-1 1-.734 4.117.413 4.825 1.108.685 3.956-1.197 3.956-2.614 0-1.167-3.594-2.986-4.369-2.211m-70.448 2.515c-1.4 1.4-1.545 2.783-.29 2.783.916 0 2.425-3.016 1.814-3.626-.187-.188-.873.192-1.524.843M134 143c0 .55.45 1 1 1s1-.45 1-1-.45-1-1-1-1 .45-1 1m-4.968 1.528c.054 1.649 2.906 4.867 3.652 4.121.388-.387-.283-1.692-1.49-2.899-1.206-1.207-2.18-1.757-2.162-1.222m-61.849 1.689c-1.4 1.4-1.545 2.783-.29 2.783.916 0 2.425-3.016 1.814-3.626-.187-.188-.873.192-1.524.843m3.817 1.95c0 .641.296.87.658.508s1.262-.156 2 .456c1.029.854 1.342.735 1.342-.509 0-.955-.822-1.622-2-1.622-1.1 0-2 .525-2 1.167m55.232.833c1.262 2.02 2.768 2.673 2.768 1.2 0-1.039-2.167-3.2-3.208-3.2-.445 0-.247.9.44 2m-4.999.22c-.771.928-.663 1.839.389 3.278 1.251 1.71 1.593 1.781 2.416.497 1.972-3.073-.56-6.48-2.805-3.775M69 149.981c0 .539 1.092 1.255 2.428 1.59s2.678 1.263 2.985 2.062c.462 1.204.946 1.238 2.822.2 1.246-.689 2.794-1.146 3.44-1.016s1.443-.199 1.771-.73c.764-1.236-3.535-1.045-5.22.232-.701.531-1.568.672-1.927.313s.214-1.309 1.274-2.111c1.06-.801 1.391-1.472.736-1.489s-1.458.401-1.785.93c-.381.616-1.505.616-3.125 0-3.147-1.197-3.399-1.195-3.399.019M122 151c0 .55.45 1 1 1s1-.45 1-1-.45-1-1-1-1 .45-1 1m-5 1.255c0 .825.675 2.06 1.5 2.745 1.22 1.012 1.5.965 1.5-.255 0-.825-.675-2.06-1.5-2.745-1.22-1.012-1.5-.965-1.5.255m-3.5.745c.34.55.816 1 1.059 1s.441-.45.441-1-.477-1-1.059-1-.781.45-.441 1M84 155.441c0 1.407.45 2.559 1 2.559s1-.873 1-1.941-.45-2.219-1-2.559c-.567-.351-1 .49-1 1.941m5 .726c0 1.741.338 2.829.75 2.417 1.01-1.01 1.048-5.584.046-5.584-.438 0-.796 1.425-.796 3.167m5.597-2.323A1.21 1.21 0 0 0 95 155.5a1.22 1.22 0 0 1 .391 1.676c-.415.671-.977.559-1.592-.319-.77-1.098-.873-1.071-.542.143.579 2.122 3.145 1.866 3.573-.356.424-2.2-1.282-4.339-2.233-2.8m13.482 1.406c-.055 1.902.421 2.75 1.543 2.75 1.159 0 1.34-.358.635-1.25-.544-.687-1.238-1.925-1.544-2.75-.316-.855-.589-.317-.634 1.25M80 155c-1.282.828-1.246.972.25.985.963.008 1.75-.435 1.75-.985 0-1.22-.113-1.22-2 0m23.032 1.25c-.021 1.792.491 2.75 1.468 2.75 1.893 0 1.903-1.085.032-3.559-1.406-1.859-1.47-1.825-1.5.809m9.968-.368c0 .55.45 1.278 1 1.618s1 .168 1-.382-.45-1.278-1-1.618-1-.168-1 .382m-65 11.594c0 1.005 11.486 8.516 12.913 8.445 1.355-.067 1.368-.162.087-.65-.825-.314-1.725-.865-2-1.224-1.75-2.285-11-7.81-11-6.571"/></svg>