<svg xmlns="http://www.w3.org/2000/svg" width="32" height="32" fill="#000000"><g clip-path="url(#a)"><path fill="#999999" d="M16 31.999c8.836 0 15.999-7.163 15.999-16S24.836 0 15.999 0 0 7.163 0 16s7.163 15.999 16 15.999"/><path fill="#FFFFFF" d="M7.89 26.284h-.653c.218-.072.435-.047.654 0m16.63-12.079c-.505-.328-1.011-.656-1.494-1.017a8.5 8.5 0 0 1-1.654-1.606c-.112-.146-.182-.326-.28-.505-.526.2-1.07.186-1.639-.053.058-.023.081-.037.105-.04a27 27 0 0 1 .474-.028c.588-.028 1.083-.237 1.433-.733.03-.043.054-.086.095-.15l-1.951-.089c.158-.123.348-.17.545-.203.48-.083.964-.094 1.45-.087.555.008.99-.216 1.296-.684.035-.053.057-.113.091-.183-.362-.035-.7.02-1.034-.065.11-.071.22-.143.338-.164.293-.053.59-.09.887-.122.485-.053.82-.316 1.074-.744l-.478-.061-.006-.037c.05-.026.094-.064.146-.08q.253-.077.51-.141c.476-.124.744-.477.976-.886a.36.36 0 0 0-.194.006c-.492.195-.983.39-1.471.598a1.2 1.2 0 0 0-.536.467.26.26 0 0 1-.173.102c-.362.04-.72.091-1.052.248-.313.148-.631.3-.79.632-.077.161-.193.193-.343.207-.167.016-.337.024-.498.062-.237.056-.469.135-.702.21-.1.031-.177.003-.242-.071-.043-.048-.08-.098-.121-.147-.205-.25-.405-.507-.783-.536.619-.417 1.028-.985 1.312-1.672-.055.002-.09.002-.125.007-.323.043-.647.082-.968.134-.529.086-1.048.204-1.53.453a.27.27 0 0 1-.18.019 4.2 4.2 0 0 0-1.152-.174c-.09 0-.11-.028-.095-.125q.075-.476.122-.955c.04-.433.067-.867.104-1.3.008-.1-.037-.115-.113-.08-.102.045-.21.088-.303.15-.338.228-.681.448-1.001.7-.734.574-1.312 1.288-1.768 2.097-.13.231-.26.426-.508.57a10.4 10.4 0 0 0-1.927 1.476c-.798.762-1.489 1.61-2.024 2.579a9.6 9.6 0 0 0-.735 1.734c-.247.767-.497 1.531-.647 2.324-.13.68-.247 1.362-.365 2.044-.013.07-.001.144-.001.206.172-.33.342-.662.587-.955a.3.3 0 0 1 .003.154c-.19.64-.248 1.3-.263 1.959-.01.437.037.876.072 1.314.06.722.326 1.37.754 1.95.074.1.165.19.266.306.013-.428-.023-.825.078-1.223.124.307.223.603.361.878.167.33.268.666.302 1.034.066.704-.125 1.311-.638 1.802-.177.169-.383.307-.566.452.353.069.714.014 1.06-.124.736-.293 1.36-.735 1.81-1.401.047-.07.107-.13.162-.195l.04.024-.034.592q.018.005.037.014c.186-.205.386-.397.55-.617.585-.782.602-1.668.424-2.573-.128-.645-.368-1.258-.636-1.86-.203-.455-.418-.905-.594-1.37-.2-.524-.386-1.061-.414-1.627-.028-.551-.011-1.105-.011-1.658 0-.042.012-.083.025-.16l.346.641c-.032-.422-.074-.8-.09-1.18-.049-1.223.074-2.424.485-3.585.082-.233.2-.427.397-.585a8 8 0 0 1 1.962-1.152c.187-.078.372-.163.557-.245-.12-.03-.234-.034-.346-.042-.034-.003-.065-.019-.097-.03.018-.032.03-.077.057-.094.128-.077.26-.147.39-.219.939-.503 1.946-.697 3.002-.656.028 0 .056.014.106.025l-.08.057c-.127.079-.258.15-.38.235-.099.067-.111.167-.04.26.073.097.15.194.241.274q.43.378.872.74c.178.143.266.32.245.542-.03.331.156.514.42.647.182.091.37.17.55.265.756.397 1.478.84 2.081 1.46.56.576 1.142 1.128 1.717 1.688.233.226.258.425.135.74l-.045.115c.058-.009.089-.036.124-.052.17-.083.335-.215.512-.235.325-.035.659-.025.984.009.247.026.39.242.396.496.008.424-.11.806-.389 1.13a.4.4 0 0 0-.112.28c0 .204-.115.35-.28.453-.08.05-.169.089-.256.125-.317.13-.613.29-.87.522-.185.167-.402.264-.659.223a1.6 1.6 0 0 1-.642-.243c-.242-.16-.477-.34-.74-.454a7.5 7.5 0 0 0-2.229-.612 14 14 0 0 0-.944-.07 3 3 0 0 0-.562.032c-.257.04-.503 0-.754-.039a2.3 2.3 0 0 1-.823-.296c-.385-.224-.702-.51-.906-.913-.079-.154-.166-.303-.257-.472.274 2.782 1.54 4.964 3.831 6.549-.043.008-.074.011-.102 0-.152-.058-.3-.123-.455-.178-.582-.206-1.098-.535-1.609-.871-.634-.418-1.213-.905-1.783-1.406-.046-.04-.1-.069-.151-.104q-.02.018-.038.04.079.144.162.287c.236.401.458.815.714 1.202.425.639.974 1.135 1.729 1.355.33.096.669.157 1.001.24.482.12.977.186 1.44.38.185.079.387.118.578.181.115.04.226.094.34.138a8.2 8.2 0 0 1 1.604.793 5.94 5.94 0 0 1 2.035 2.24c.02.04.058.069.087.102l.037-.02q-.052-.193-.101-.387c-.246-.965-.748-1.78-1.434-2.491-.596-.617-1.278-1.128-1.972-1.623-1.171-.835-1.796-2.01-2.118-3.374-.066-.278-.037-.303.238-.404.03-.011.06-.024.091-.027.288-.02.577-.057.863-.05.779.021 1.517.192 2.15.68q.134.103.271.204c.39.282.741.282 1.096-.047.41-.38.882-.642 1.4-.84.303-.116.522-.32.612-.645.036-.135.085-.267.131-.4.163-.462.308-.926.313-1.425.005-.402-.164-.676-.492-.89zm-7.06-2.446c-.087-.29-.198-.58-.536-.639-.226-.039-.465-.007-.688-.007.222.574.721.806 1.285.987-.02-.114-.03-.232-.063-.341z"/></g><defs><clipPath id="a"><path fill="#FFFFFF" d="M0 0h32v32H0z"/></clipPath></defs></svg>