<svg xmlns="http://www.w3.org/2000/svg" xmlns:xlink="http://www.w3.org/1999/xlink" xml:space="preserve" viewBox="0 0 24 24" fill="#000000"><defs><path id="a" d="M0 0h24v24H0z"/></defs><clipPath id="b"><use xlink:href="#a" style="overflow:visible"/></clipPath><g style="clip-path:url(#b)"><path d="M0 0h24v24H0z" style="fill:#FFFFFF"/><path d="M0 12v12h24V0H0zm10.2-6.3c.5.1 1 .4 1.4.6l.3.2-.1.2c-.2.2-.3.6-.3.9v.3h-.3c-1.8.4-3.9-.9-3.1-1.8.4-.5 1.2-.7 2.1-.4m.1.3c-.7.2-.9.9-.4 1.4.4.5 1.2.3 1.4-.3s-.4-1.2-1-1.1m3.5.5c.6.2 1.2.5 1.9 1 .3.2.7.5.8.5.3.1.3.2-.1.2-.3 0-.5.1-1 .3-1.2.6-1.8.6-2.8.3q-.9-.3-.9-1.2c0-1 .8-1.4 2.1-1.1m-3.5 0c0 .1-.1.2-.2.2s-.1-.1-.1-.2q.3-.15.3 0m.5.1c.1.1 0 .4-.1.3-.2-.1-.1-.3.1-.3-.1 0 0 0 0 0m3.5.3c-.2.1-.4.3-.5.5-.3.7.6 1.5 1.3 1s.1-1.7-.8-1.5m-3.9.2q-.15.15 0 0c-.1.1-.1 0-.1 0zc-.1 0 0 0 0 0m4 .4c0 .1 0 .1-.1.1-.2 0-.2-.1-.1-.2 0-.1.2-.1.2.1m.6.1c.1.2 0 .3-.2.2-.1 0-.1-.2-.1-.3.1-.1.2 0 .3.1m-.5.5c0 .1-.1.1-.1 0 0 0 0-.1.1 0 0-.1 0 0 0 0M6.7 9.6q-.15 0 0 0c-.1 0 0-.1 0 0 0-.1 0 0 0 0" style="fill-rule:evenodd;clip-rule:evenodd;fill:#919191"/><path d="M11.8 1.2c-.1.1-.2.5-.4 1.1s-.3 1.1-.4 1.2c0 .1-.1.1 0 .1s.1.2 0 .3c-.1.2-.1.3 0 .2.1 0 .1 0 .1.1s-.1.1-.5.1c-.9.1-1.9.7-2.2 1.3-.1.1-.1.1-.2.1 0 0-.3.3-.4.5 0 .1-.1.3 0 .8 0 .7 0 .7-.1.8s-.2.3-.3.5c-.1.3-.2.3-.3.3-.2 0-.4.4-.4.7v.1s-.1 0-.2.1l-.2.1.1.1.1.1-.1.1c-.2.2-.2.2 0 .3l.1.1-.1.3-.1.3-.3.1c-.6.1-.9.1-1-.2 0-.1-.1-.2-.2-.3s-.1-.2-.1-.6c0-.8-.6-1.1-1.2-.7-.7.4-.9.5-1.4.6-1.1.2-1.3.3-1.3.9 0 .4 0 .4.1.5s.1.1.1.2c-.3.3-.3 1.2 0 1.4.1 0 .1.1 0 .2-.2.2 0 1 .3 1.1.1 0 .2.1.2.2 0 .2.5.7.7.7q.3 0 1.2-.3c.3-.2.5-.2.8-.2s.3 0 .4-.2l.1-.1.7.1c.4 0 .7.1.8.1.2 0 .3.3.1.5-.1.1-.1.1-.1.2.1.2.1.3 0 .6s-.1.3.2.5c.2.1.2.1.1.2v.2c0 .3 0 .6-.1 1-.2.6-.1.7.3.9 0 0 .1.4.1.9s.1.9.1.9H7s0-.1.1-.1.1 0 0 .1c-.3.6-.3 3-.1 3.7 0 .1 10.9.1 10.9 0 .1.1.1 0 0-.1 0-.1-.1-.2-.1-.2s-.1-.3-.2-.5c-.2-.5-.2-.6-.3-.2 0 .1 0 .1-.3-.2-.5-.8-1.3-1.6-1.4-1.6s-.1-.9 0-1.2c.1-.6.2-.7.2-.8.1-.2.1-.3.2-.5 0-.1.1-.2.1-.3s.1-.2.1-.2c.1-.2.3-1 .4-1.3l.1-.3.9-.2c.5-.1 1-.2 1.1-.2.3-.1.3-.1.1.2-.1.2-.2.2-.3.2h-.2s0 .1.2.1c.3 0 .8.1 1.3.3.2.1.5.2.7.2.1 0 .3.1.3.1h.1l-.1.1-.1.1.4.4c.2.2.5.6.7.8.3.5.5.7.8.9l.2.1H22c-.2.1-.2.1.2.6.4.6.7 1 .9 1.5.2.4.2.4.1.3-.2-.1-.2 0-.1.4.2.6.4 1.4.5 1.5s.1 0-.1-.5c-.4-1.2-.4-1.3-.2-1.2s.2.1 0-.5c-.3-.6-.6-1.1-1-1.6-.3-.4-.3-.4-.1-.4.3 0 .3-.1.1-.3-.3-.3-.4-.4-.7-.9-.2-.2-.5-.6-.7-.8l-.4-.4.2-.1c.3-.2.2-.2-.2-.3-1.1-.3-1.2-.3-1.2-1.1 0-.5.3-1 .6-1q.45 0 .3-.3c0-.2 0-.2.4-.5.5-.4.4-.4.3-.7-.1-.2-.1-.3-.1-1.4 0-1.7-.1-2.7-.5-3.8-.2-.5-.2-.5-.1-.7 0-.1.1-.4 0-.5 0-.2.1-.6.2-1.1q.6-2.7 0-3.3c-.2-.3-.4-.2-1.3.3-.3.2-.6.4-.8.5-.3.1-.5.3-.8.6-.4.4-.4.4-.6.4h-.2c-.1 0-.2 0-.5-.1-.4-.1-1.1-.3-1.6-.3-.8 0-1-.2-1.5-1.2S11.9 1 11.8 1.2m.2.3c.1 0 .3.5.6 1 .2.5.5 1 .6 1.1.2.3.2.3-.1.3-.5 0-1.3.2-1.7.5-.2.1-.2.1-.2-.1v-.2c-.1 0-.1-.1 0-.1.1-.1.1-.1 0-.2s0-.2.1-.4.2-.6.3-.9c.2-1.1.2-1.2.4-1m8.2 1.1c.4.2.4 1.9 0 3.2-.2.5-.2.7-.2 1v.4c-.1.1-.1.2 0 .4 0 .2 0 .3-.1.5-.1.3-.1.4.1.2 0-.3 0-.4.2.3.4 1.2.5 2.6.4 4l-.1.7.2.2.2.2-.1.1c-.1.1-.2.2-.4.3-.3.2-.4.3-.4.4s0 .1-.1.1-.2 0-.4.2c-.4.4-.4.5-.3.9.1.6.1.8 0 .7 0 0-.2-.1-.3-.1l-.2-.1.1-.1c.2-.3.3-.5.1-.5h-.1l-.8.2c-1.4.3-1.3.3-1.3.3s0-.2-.1-.3c-.1-.3 0-.7.1-.8 0 0 .1-.1.1-.2s.1-.2.2-.2c1.1-.3 1.5-.6 1.5-1 0-.1 0-.2.1-.2s.3-.1.3-.2.1-.1.3-.2l.3-.1v-.2c0-.1 0-.3-.1-.3 0-.1 0-.1.4-.1.5.1.5 0 .1-.5-.4-.4-.5-.6-.5-.8s0-.3-.2-.8c-.4-1.3-1.6-1.7-2.5-.8-.7.7-1.3.8-2.1.5-.6 0-1.3.1-1.6.4-.3.2-.3.2-.5-.2s-.4-.6-.6-.8c-.6-.6-.8-.6-2-.7-1 0-1.1-.1-1.5-.4-.3-.2-.4-.6-.4-.8s0-.2.3.1c.8.7 2.2.9 3.2.7.1 0 .1.1.2.5.1.5.6 1 1.3 1 .3 0 .4-.1 0-.1-.4-.1-.8-.4-1-.7-.1-.1-.1-.1.3.1 1 .5 1.9.5 3.1-.1.5-.3.7-.3 1-.3.7 0 .7-.4.1-.6-.2-.1-.6-.3-.8-.5-1.2-.9-2.5-1.2-3.4-.9-.3.1-.3.1-.1-.1.7-.7 2.3-.5 3.8.5l.4.2v-.1s-.1-.1-.3-.2c-.7-.5-1.8-.9-2.4-1h-.4l.2-.1c.3-.2.8-.2 1.3-.1.4.1.5.1.4 0-.2-.6-1.7-.5-2.2-.1-.1.1-.2.1-.2.1-.1 0-.6.2-.7.4l-.2.2-.2-.1c-.8-.6-2.4-.9-3-.7-.1 0 .3-.4.5-.5.6-.3 1.7-.1 2.6.5.6.4.6.2 0-.2-.4-.3-1-.6-1.4-.6-.5-.1-.4-.1.2-.1s1.3.2 1.9.6c.1.1.2.1.2.1.1-.1-.4-.4-.8-.6l-.4-.2.1-.1c.4-.3 1.7-.5 2.3-.4h.1l-.1.1c-.3.2-.3.3 0 .1.4-.2 1.7-.1 2.3.2l.2.1-.1.1c-.2.2-.1.2.2 0 .2-.1.2-.1.4-.1h.2l.5-.5c.6-.6.9-.8 1.8-1.2.7-.3.7-.3.8-.2m-1 .8c-.4.2-2.3 1.9-2.2 2h.1c.1 0 .3.3.3.5 0 .1 0 .2.1.2s.1.1.1.2c0 .4.5.6.8.4.2-.1.4-.1.8 0 .5.1.6 0 .6-1V4c.1 0 .1-.3 0-.4s-.1-.1 0-.1c.3 0 0-.1-.4-.1 0-.1-.1-.1-.2 0m.5.1q0 .15 0 0-.15 0 0 0s.1 0 0 0m-.4.2c-.1.1-.1 0 0 0q-.15 0 0 0m-.6.4s0 .1-.1.1l-.1.1.1-.1c.1-.1.1-.2.1-.1m-.4.3q0 .15 0 0c-.2.1-.2.1-.1.1zm-.4.4s0 .1 0 0q-.15.15 0 0c-.1 0 0 0 0 0m-.3.3c-.1.1-.1 0 0 0-.1 0 0-.1 0 0m-7.7.5h1.2s.1.1.1 0h.1l.1.1.1.1c0 .1.1.1.1 0l.1.1c.1.1.1.2 0 .2 0 0-.1.1 0 .1v.1l-.1.1v.5c0 .2 0 .5-.1.4h-.1c-.3.7-1 .7-1.4.7H9s-.1 0-.1-.1-.1-.1 0 0l-.1-.1s-.1 0-.1-.1c-.3-.5-.4-.5-.4-.5s0-.1-.1-.2c-.1 0-.2-.1-.2-.1v-.2c-.1 0 0-.4 0-.5v-.1s0-.1.1-.2.2-.2.2-.1l.1-.1s.1-.1.1 0h.4c.1-.2 1-.2 1-.1m5.5 0s.1.1.2.1c.3.1.8.4 1.2.7s.5.3.3.1-.8-.6-1.2-.7c-.5-.3-.5-.3-.5-.2m2.3.4q0-.15 0 0 0-.15 0 0m-7.3 0c0 .1-.1.1 0 0H10s0 .1-.1.1c0 0-.1 0-.1.1-.1.1-.1.1 0 .1l-.1.1h-.1v.7l.3.3h.8s.1 0 .2-.1l.1-.1.1-.1c0-.1.1-.1 0-.1v-.1c.1-.1.1-.4 0-.4v-.2s0-.1-.1-.1l-.1-.1s-.1 0-.1-.1-.1-.1-.2-.1h-.2c.2.1 0 .1 0 .1m7.5.3q-.15 0 0 0 0-.15 0 0 0-.15 0 0m-4.4.1c.1 0 .1 0 .1.1s0 0 .1 0h.7l.1.1h.2s.1.1.1 0c0 0 .1 0 .1.1s.1.1.1.1.1 0 .1.1.1.1.1.1.1 0 .1.1.1.1.1.1.1 0 .1.1.5.4.5.4.1 0 .1.1c0 0 0 .1.1 0 0 0 .1 0 .1.1 0 0 .1.1.1 0h.1c.1 0 .2.1.2.2h-1c-.1 0-.3.1-.3.1-.1 0-.5.2-.5.2h-2.5s-.1 0-.1-.1c0 0 0-.1-.1-.1 0 0-.4-.3-.4-.4v-.3l-.1-.1c0-.1 0-.1.1-.1V7s0-.1.1-.1c.1-.1.1-.1.1-.2 0 0 .1 0 .1-.1l.1-.1h.7c.3-.1.5-.1.6-.1m-3.2 0c.1.1.1.1 0 .2-.2.1-.4-.1-.2-.2.1-.1.2-.1.2 0m7.6.1q.15.15 0 0 0-.15 0 0m-7.1.1c.1.2 0 .5-.1.3l-.1-.1v-.2c-.1-.1.1 0 .2 0m7.4 0q-.15 0 0 0-.15 0 0 0m-3.8.3q0 .15 0 0h-.2s-.1 0-.1.1c-.1.1-.1.2-.1.2s0 .1-.1.1c0 0-.1 0 0 .1v.8c0 .1.3.3.3.3s.1 0 .1.1 0 0 .1 0h.6l.1-.1s.1 0 .1-.1c.1-.1.1-.1 0-.1l.1-.1v-.4c0-.1 0-.2-.1-.2v-.2c.1 0-.2-.4-.2-.3h-.2l-.1-.1zm-4 .2c0 .1-.1.1-.2.1 0 0-.1 0-.1-.1zm4 .2q0 .15 0 0c.1 0 .1.3 0 .3 0 .1-.3.1-.3 0-.1-.1 0-.2 0-.3.1 0 .3-.1.3 0m.6.2s0 .1 0 0c0 .1 0 .1.1.1q.15 0 0 0s-.1.1 0 .1v.1s-.1 0-.1.1q0 .15 0 0s0-.1 0 0c-.1 0-.1-.1-.1-.2-.2-.2-.1-.3.1-.2m-.5.6s0 .1 0 0c0 .1 0 .1-.1.1s-.1-.1 0-.2c.1 0 .1 0 .1.1q.15 0 0 0m-6.3.1q.15.15 0 0c-.1 0-.1-.1 0 0-.1-.1 0 0 0 0m1 .5h-.1zs.1 0 0 0m-2 .1q0 .15 0 0-.15 0 0 0m.2.1q.15 0 0 0 0-.15 0 0 0-.15 0 0m8.3.3c-.4.2-1.2.3-2 .4h.1c.5.1 1.9-.2 2.1-.4.1-.1.1-.1-.2 0m-11.8 0q0 .15 0 0s.1 0 0 0m.4.1c.1 0 .1.1 0 0 .1.1 0 0 0 0l-.1-.1s.1 0 .1.1m3.5.1q.15.15 0 0c-.1-.1 0-.1 0 0m-4.6.1q-.15.15 0 0m3.5.1c0 .1-.1.1 0 0h-.1c-.1 0 0-.1.1 0-.1 0 0 0 0 0v-.1zm1.1 0q.15.15 0 0c-.1-.1 0-.1 0 0m-1 .1q-.15 0 0 0 0-.15 0 0m2.7.1s-.1 0 0 0c-.1-.1 0-.1 0 0q0-.15 0 0m-1.4.1q.15 0 0 0-.15-.15 0 0c-.1-.1 0-.1 0 0m.2-.1q0 .15 0 0c0 .1-.1.1 0 0q-.15 0 0 0-.15 0 0 0m-3.8.2c0 .1 0 0 0 0v-.1zm5-.2q0 .15 0 0-.15.15 0 0m-6.1.3c-.1.1-.1 0 0 0v-.2zm3.5-.2s0 .1 0 0c0 .1-.1 0 0 0q-.15 0 0 0c-.1 0 0 0 0 0m-4.7.1q-.15 0 0 0-.15 0 0 0m1 .1q0-.15 0 0 0-.15 0 0m3.4-.1q0 .15 0 0c-.1.1-.2 0-.2 0zc-.1.1 0 .1 0 0m.5 0s0 .1 0 0c0 .1 0 0 0 0q-.15 0 0 0m3.3.1c-.1 0-.1.1 0 0-.1 0 0-.1 0 0q0-.15 0 0m-8.5 0q-.15-.15 0 0 0-.15 0 0m1.2 0s-.1 0 0 0q-.15 0 0 0m-.3 0c0 .1-.1.1 0 0q-.15 0 0 0m4.2.1q-.15-.15 0 0 0-.15 0 0m-4.7 0s.1 0 0 0m-.3.1s0 .1 0 0q-.15 0 0 0 0-.15 0 0m1 0h-.1zm.2.2c0 .1 0 0 0 0v-.2zm3.9-.2s0 .1 0 0c0 .1 0 0 0 0q-.15 0 0 0m-4.9 0q0 .15 0 0 .15 0 0 0m-1.2.2q0 .15 0 0 0 .15 0 0m2.4.1q-.15 0 0 0v-.1zm3.9 0q.15 0 0 0s0-.1 0 0c0-.1 0 0 0 0m-2.9.6v-.4zm5.1-.6s-.1 0 0 0q-.15 0 0 0m-8.5.2v-.1zm3.8-.1q0 .15 0 0c-.1 0-.1-.1-.1-.1zm2.9 0q.15.15 0 0 0 .15 0 0m2.7.1s-.1 0 0 0c-.1 0-.1-.1 0 0 0-.1 0 0 0 0m7.3.1.1.1zc-.1-.1-.2-.1-.1-.1 0-.1.1 0 .1.1m-10.8 0q0-.15 0 0c0-.1 0 0 0 0m8.7-.1h-.1zs.1 0 0 0m.4 0h-.1zm-12.7.1q-.15.15 0 0c-.1 0-.1-.1 0 0m.1 0s0-.1 0 0m7.4 0c-.1 0 0-.1 0 0 0-.1 0 0 0 0m4.4 0s-.1 0 0 0c-.2 0-.2-.1 0 0 0-.1 0 0 0 0m2.3 0q.15.15 0 0c.1.1 0 .1 0 0l-.1-.1zM4.9 11q-.15 0 0 0-.15-.15 0 0 0-.15 0 0m6.8-.1h-.1zm3.1 0h-.1zM12 11h-.1s0-.1.1 0c0-.1 0 0 0 0m2.4 0h-.1s0-.1.1 0c0-.1.1 0 0 0m-2 0h-.1zm1.6 0q-.15 0 0 0-.15 0 0 0m1.1 0H15zm-3.7.1q-.15 0 0 0-.15-.15 0 0 0-.15 0 0m3.3 0s-.1 0 0 0q-.15-.15 0 0 0-.15 0 0m2 0q.15.15 0 0c-.1 0-.1-.1 0 0 0-.1 0 0 0 0m-15.5.1.1.1s-.1 0-.1-.1c-.1-.1-.2-.1-.1-.1zm2.1 0q0-.15 0 0 0-.15 0 0m1.6 0q0-.15 0 0 0-.15 0 0m6.9-.1s.1 0 0 0m2.4 0q.15 0 0 0m-10.7.1q-.15 0 0 0-.15-.15 0 0m3.6 0q-.15-.15 0 0 0-.15 0 0m-1.1.2c-.2.3-.2.3 0 .3s.2.1.1.3 0 .3.2.3c.1 0 .1 0-.1.4-.2.5-.1.5.4.3.1 0 .1 0 .2.3l.1.3-.1.2-.2.2H6c-.5 0-1.2 0-1.3-.1 0 0 0-.1.1-.2.2-.2.1-.2-.2 0q-.3.15 0 0c.1-.1.1-.2.1-.2v-.2c.3-.2.3-.5.3-1.2v-.6c.1.1.1 0 0-.1-.1-.2 0-.2.1-.1q.15.15.6 0c.4-.1.4-.1.3.1m10.9-.1q-.15-.15 0 0 0-.15 0 0M3 11.3h-.1zm4.2 0s0 .1 0 0c0 .1 0 0 0 0q-.15 0 0 0m10.6.1q-.15 0 0 0-.15-.15 0 0m-14.4 0s0 .1 0 0c0 .1 0 0 0 0q-.15 0 0 0m3.6 0s0 .1 0 0c0 .1-.1 0 0 0q-.15 0 0 0-.15 0 0 0m-4 0q0 .15 0 0c-.1 0 0 0 0 0m-1.5.1s-.1 0 0 0q-.15 0 0 0m2.2 0s0 .1 0 0c0 .1 0 0 0 0q-.15 0 0 0c-.1 0 0 0 0 0m.1.1s.1 0 0 0m14 0c0 .1 0 0 0 0m.3.3v-.2zm-13.6-.2c-.1.1-.1 0 0 0 0 0 0-.1 0 0m12.2 0c0 .1 0 0 0 0m-9 .1q-.15 0 0 0c-.1 0 0 0 0 0m9.3 0c0 .1 0 0 0 0q.15 0 0 0m-16 .3v-.2zm3-.3c0 .1-.1.1 0 0q-.15 0 0 0m.2 0q0 .15 0 0 0 .15 0 0m6.6.1s-.1 0 0 0q-.15 0 0 0m-4.4.2q.15 0 0 0s0-.1 0 0c0-.1 0 0 0 0m1.2 0q.15 0 0 0s0-.1 0 0c0-.1 0 0 0 0m11.4 0c-.1.1-.2 0-.2 0 .1-.1.2-.1.2 0m-8 0c-.1 0 0 0 0 0m6.8.1q0-.15 0 0c0-.1 0 0 0 0m-5.7 0s-.1 0 0 0c-.1 0-.1-.1 0 0 0-.1 0 0 0 0m-8.1 0s-.1 0 0 0q-.15.15 0 0c-.1 0 0 0 0 0m14.9.1s-.1 0 0 0c-.1-.1 0-.1 0 0q0-.15 0 0m-5.7 0h-.1c-.1 0-.1-.1.1 0 0-.1 0 0 0 0m.9 0q-.15-.15 0 0 0-.15 0 0m.8 0q0 .15 0 0s0-.1 0 0m-11.3 0h-.1zm2.9.1q0-.15 0 0 .15-.15 0 0m-3.4 0H3c-.1 0 0-.1.1 0 0-.1 0 0 0 0m-.4 0s-.1 0 0 0q-.15 0 0 0m10.6 0h-.2.2m.9 0h-.3.3m4.7.1q0-.15 0 0c0-.1 0 0 0 0m-16.7 0q0-.15 0 0 .15-.15 0 0m1.1 0h-.1zm-.5.1h-.1c-.1-.1-.1-.1.1 0q0-.15 0 0m3.7 0q0-.15 0 0m-4.1 0s-.1 0 0 0q-.15 0 0 0m-1.2.1q0-.15 0 0 0-.15 0 0m.7 0q-.15-.15 0 0 0-.15 0 0m17.1 0c0 .1-.1.1 0 0-.1-.1 0-.1 0 0 0-.1 0 0 0 0m-12.6.2q0-.15 0 0c.1-.1.1 0 0 0m.5 0c0 .1-.1 0 0 0-.1-.1 0-.1 0 0 0-.1 0 0 0 0m9.5-.1s0 .1 0 0q-.15.15 0 0m-15.1.1q-.15.15 0 0s0-.1 0 0m2.5.2v-.2zm15.2-.2s-.1 0 0 0q-.15 0 0 0m-15 .2q0 .15 0 0V13zm12.2-.1s0 .1 0 0q-.15.15 0 0m-9.3.2q0-.15 0 0c0-.1 0 0 0 0m.8.1q0-.15 0 0c.1-.1.1 0 0 0m3.3-.1s-.1 0 0 0q-.15 0 0 0m.2.1c-.1 0-.1-.1 0 0 0-.1 0 0 0 0m4.6 0s0-.1 0 0m-14.7.1q0-.15 0 0c0-.1 0 0 0 0m9.2-.1s.1 0 0 0m8.1 0s.1 0 0 0m-7.8.1s-.1 0 0 0c-.1 0-.1-.1 0 0 0-.1 0 0 0 0m1.1 0s0-.1 0 0c0-.1.1 0 0 0m3.9 0c-.1 0-.1-.1 0 0 0-.1 0 0 0 0m-11.7 0q0 .15 0 0c0 .1-.1.1 0 0q-.15 0 0 0c-.1 0 0 0 0 0m11.6 0q-.15 0 0 0-.15 0 0 0m2.7.1q-.15 0 0 0-.15-.15 0 0c0-.1 0 0 0 0m-7.2 0s-.1 0 0 0c-.1 0-.1-.1 0 0 0-.1 0 0 0 0m.2 0q-.15 0 0 0m1.8 0h-.1zm1 0q-.15 0 0 0m-12.9.1q0-.15 0 0 .15 0 0 0m10.5 0q-.15 0 0 0c-.2 0-.2-.1 0 0-.1-.1 0-.1 0 0m3.4 0s-.1 0 0 0c-.1 0-.1-.1 0 0 0-.1 0 0 0 0m-3.2 0s.1 0 0 0m-7.8.1q0-.15 0 0m8.2 0s-.1 0 0 0c-.2-.1-.1-.1 0 0q0-.15 0 0m2.3 0s-.1 0 0 0q-.15-.15 0 0 0-.15 0 0m-1.8 0h-.2.2m1.5 0H14zm-5.7.1c.1 0 .1.1 0 0 0 .1 0 0 0 0s0-.1 0 0c0-.1 0 0 0 0m.6 0s.1 0 0 0m-6.3.1s-.1 0 0 0q-.15-.15 0 0 0-.15 0 0m15.2 0q-.15.15 0 0m-10.9.3c.1.1.1.2.1.2-.1 0-.5.7-.6 1.1 0 .2-.1.3-.1.2 0 0-.1 0-.2-.1-.1 0-.1 0-.1-.1 0 0 0-.1.1-.3s.1-.3.1-.3v-.1c.2-.1.2-.2.2-.3-.1-.1.2-.4.4-.5 0 0 0 .1.1.2m2.2-.2s-.1 0 0 0q-.15 0 0 0m.5 0h-.4.4m-5.7.1c-.2.1-.2.1-.1.1.1-.1.1-.2.1-.1m-.3 0s-.1.1 0 0q-.15.15 0 0c-.1 0 0 0 0 0m3.7.2s0 .1 0 0c0 .1 0 0 0 0q-.15 0 0 0m-5.6.2q0 .15 0 0 0 .15 0 0l-.1-.1zm5.9.2.2.2zc-.2-.1-.2-.2-.2-.2zm-.4-.1q.15.15 0 0 0 .15 0 0m9.1.2q-.15 0 0 0-.3-.15 0 0c-.1-.1 0 0 0 0m-8.6.3q0 .15 0 0 0 .15 0 0m.5 0q0 .15 0 0c0 .1-.1.1 0 0q-.15 0 0 0-.15 0 0 0m-1.7.7q0 .15 0 0 0 .15 0 0m4 .3s-.1 0 0 0c-.1 0-.1-.1 0 0 0-.1 0 0 0 0m.3 0q-.15 0 0 0m-.6.1s-.1 0 0 0c-.1 0-.1-.1 0 0 0-.1 0 0 0 0m1.2 0h-.2.2m-.8 0h-.1zm.5.1h-.1c-.1 0 0-.1.1 0 0-.1 0 0 0 0m5 .1c-.1-.1 0-.1 0 0q0-.15 0 0m-.2 0s-.1 0 0 0q-.15 0 0 0m-.2.1s-.1 0 0 0q-.15-.15 0 0 0-.15 0 0m.4 0s-.1 0 0 0q-.15 0 0 0m-.3.1q0-.15 0 0c0-.1.1-.1 0 0m-.2 0s-.1 0 0 0q-.15 0 0 0m-9.1.4q0-.15 0 0c0-.1 0 0 0 0m-.2.4s0-.1 0 0q.15 0 0 0m.3.9s-.1 0 0 0c-.1-.2-.1-.2-.1-.1.1 0 .1.1.1.1m0 .7q0 .15 0 0v-.2zm.1.7q.15 0 0 0c-.1.1-.2.1-.2 0s0-.1.1 0c0 .1.1.1.1 0m.4.2q-.15 0 0 0c-.1-.1-.1-.2 0 0q0-.15 0 0m2.5.2q-.15 0 0 0c-.1 0-.1-.1 0 0 0-.1 0 0 0 0m-.2 0q-.15.15 0 0m-2.3.3.2.2zc-.1-.1-.3-.2-.3-.2q-.15 0 0 0c.1 0 .2.1.3.2m.5.2-.2-.2-.2-.2.2.2zm2.2-.4q0 .15 0 0-.15.15 0 0-.15 0 0 0-.15 0 0 0m-.3.1q-.15 0 0 0c-.1-.1 0-.1 0 0m.5.1c-.1.1-.1.1-.2.1l.2-.2c.1 0 0 0 0 .1m-.9.1q0 .15 0 0-.15.15 0 0m-.4.1s-.1.1 0 0q-.15.15 0 0c-.1 0 0 0 0 0m.2.1q-.15.15 0 0s0-.1 0 0m-1.4.1q.15 0 0 0 0-.15 0 0 0-.15 0 0m-.9.1c0 .1 0 0 0 0m1.6.1s-.1 0 0 0q-.15 0 0 0m-.3.1q0-.15 0 0 0-.15 0 0m.6-.1s0 .1 0 0q-.15.15 0 0c-.1 0 0 0 0 0m6.7.2c-.1 0-.1-.1 0 0 0-.1 0 0 0 0m-8.6.2q0 .15 0 0v-.2zm9 .2.1.1c-.2-.2-.4-.4-.3-.4-.1.1.1.2.2.3m-9 1v-.4zm9.6-.2q-.15 0 0 0m.2.2q-.15 0 0 0c-.1 0-.1-.1 0 0-.1-.1-.1 0 0 0m.6.5q-.15-.15 0 0c0-.1 0 0 0 0m-.3.1q.15 0 0 0 0-.15 0 0 0-.15 0 0m-10.1.1q0 .15 0 0v-.1zm10.5.3q0-.15 0 0c.1-.1.1 0 0 0m-10.4.2q0 .15 0 0v-.1zm10.6 0q-.15 0 0 0c0-.1 0 0 0 0" style="fill-rule:evenodd;clip-rule:evenodd;fill:#DEDEDE"/><path d="M11.8 1.2c-.1.1-.2.5-.4 1.1s-.3 1.1-.4 1.2c0 .1-.1.1 0 .1s.1.2 0 .3c-.1.2-.1.3 0 .2.1 0 .1 0 .1.1s-.1.1-.5.1c-.9.1-1.9.7-2.2 1.3-.1.1-.1.1-.2.1 0 0-.3.3-.4.5 0 .1-.1.3 0 .8 0 .7 0 .7-.1.8s-.2.3-.3.5c-.1.3-.2.3-.3.3-.2 0-.4.4-.4.7v.1s-.1 0-.2.1l-.2.1.1.1.1.1-.1.1c-.2.2-.2.2 0 .3l.1.1-.1.3-.1.3-.3.1c-.6.1-.9.1-1-.2 0-.1-.1-.2-.2-.3s-.1-.2-.1-.6c0-.8-.6-1.1-1.2-.7-.7.4-.9.5-1.4.6-1.1.2-1.3.3-1.3.9 0 .4 0 .4.1.5s.1.1.1.2c-.3.3-.3 1.2 0 1.4.1 0 .1.1 0 .2-.2.2 0 1 .3 1.1.1 0 .2.1.2.2 0 .2.5.7.7.7q.3 0 1.2-.3c.3-.2.5-.2.8-.2s.3 0 .4-.2l.1-.1.7.1c.4 0 .7.1.8.1.2 0 .3.3.1.5-.1.1-.1.1-.1.2.1.2.1.3 0 .6s-.1.3.2.5c.2.1.2.1.1.2v.2c0 .3 0 .6-.1 1-.2.6-.1.7.3.9 0 0 .1.4.1.9s.1.9.1.9H7s0-.1.1-.1.1 0 0 .1c-.2.5-.3 1.7-.2 2.8-.2.8-.2.9-.1.9s.1 0 .1-.1c-.2-.7-.1-3.3.1-3.7 0 0 .2.1.4.3.4.3.7.6.9.7.1 0 .2 0 .7-.4l.6-.5.1.1c.2.2.2.2.5-.1s.3-.4-.1-.1c-.3.2-.3.2-.4.1.1-.3 0-.2-.7.2l-.7.5-.2-.2c-.5-.3-.8-.7-.9-1 0-.3-.1-.3-.3-.2-.2.2-.3.2-.2-.7v-.8l-.1-.1c0 .1-.1 0-.2 0s-.1 0 .1-.7c.1-.4.1-.5.1-.7v-.4c.1-.3.1-.3-.3-.4l-.2-.1.1-.3c.1-.3.1-.3.1-.4v-.1c.2-.1.3-.2.2-.4s-.1-.2.2-.4L7 14l.1.2c.7 1.2 2.2 1.9 4.2 2.1h.5s0-.1-.2-.1c-2.2 0-4.3-1.4-4.7-3.1-.1-.4-.1-.4-.3-.3s-.2.1-.2-.1c.1-.4.1-.5 0-.6-.1 0-.1-.1 0-.1.1-.2.1-.2-.1-.3-.1 0-.2-.1-.2-.1s0-.1.1-.2.2-.3.2-.4c.1-.2.1-.2.3.1.3.7 1.9 1.8 3.1 2.1 3.5.9 6.3.6 7.1-.9.5-1-.4-1.6-2.1-1.4-.7.1-2.2.1-2.7.1-.2 0-.7-.1-1-.1-1.2-.1-2.5-.7-3.2-1.3-.6-.7-.6-.9-.4-1.3s.3-.5.4-.4c.2.4.8.8 1.2.8.2 0 .1 0-.1-.1-.5-.2-1-.8-1-1.2 0-.2 0-.2.3.1.8.7 2.2.9 3.2.7.1 0 .1.1.2.5.1.5.6 1 1.3 1 .3 0 .4-.1 0-.1-.4-.1-.8-.4-1-.7-.1-.1-.1-.1.3.1 1 .5 1.9.5 3.1-.1.5-.3.7-.3 1-.3.7 0 .7-.4.1-.6-.2-.1-.6-.3-.8-.5-1.2-.9-2.5-1.2-3.4-.9-.3.1-.3.1-.1-.1.7-.7 2.3-.5 3.8.5l.4.2v-.1s-.1-.1-.3-.2c-.7-.5-1.8-.9-2.4-1h-.4l.2-.1c.3-.2.8-.2 1.3-.1.4.1.5.1.4 0-.2-.6-1.7-.5-2.2-.1-.1.1-.2.1-.2.1-.1 0-.6.2-.7.4l-.2.2-.2-.1c-.8-.6-2.4-.9-3-.7-.1 0 .3-.4.5-.5.6-.3 1.7-.1 2.6.5.6.4.6.2 0-.2-.4-.3-1-.6-1.4-.6-.5-.1-.4-.1.2-.1s1.3.2 1.9.6c.1.1.2.1.2.1.1-.1-.4-.4-.8-.6l-.4-.2.1-.1c.4-.3 1.7-.5 2.3-.4h.1l-.1.1c-.3.2-.3.3 0 .1.4-.2 1.7-.1 2.3.2l.2.1-.1.1c-.2.2-.1.2.2 0 .2-.1.2-.1.4-.1h.2l.5-.5c.7-.7 2.3-1.7 2.5-1.5.4.2.4 1.9 0 3.2-.1.6-.1.8-.1 1.1v.4c-.1.1-.1.2 0 .4 0 .2 0 .3-.1.5-.1.3-.1.4.1.2 0-.3 0-.4.2.3.4 1.2.5 2.6.4 4l-.1.7.2.2.2.2-.1.1c-.1.1-.2.2-.4.3-.3.2-.4.3-.4.4s0 .1-.1.1-.2 0-.4.2c-.4.4-.4.5-.3.9.1.6.1.8 0 .7 0 0-.2-.1-.3-.1l-.2-.1.1-.1c.4-.6.4-.6-1.4-.2-.8.2-1.5.4-1.6.4s-.1 0-.1.1h.1c.1 0 .6-.1 1.2-.2 1.1-.2 1.4-.3 1.6-.3.2-.1.2 0 0 .2-.1.2-.2.2-.3.2h-.2s0 .1.2.1c.3 0 .8.1 1.3.3.2.1.6.2.7.3l.3.1-.1.1-.1.1.4.4c.2.2.5.6.7.8.3.5.5.7.8.9l.2.1-.5.2c-.2.1-.2.1.2.6.4.6.7 1 .9 1.5.2.4.2.4.1.3-.2-.1-.2 0-.1.4.2.6.4 1.4.5 1.5s.1 0-.1-.5c-.4-1.2-.4-1.3-.2-1.2s.2.1 0-.5c-.3-.6-.6-1.1-1-1.6-.3-.4-.3-.4-.1-.4.3 0 .3-.1.1-.3-.3-.3-.4-.4-.7-.9-.2-.2-.5-.6-.7-.8l-.4-.4.2-.1c.3-.2.2-.2-.2-.3-1.1-.3-1.2-.3-1.2-1.1 0-.5.3-1 .6-1q.45 0 .3-.3c0-.2 0-.2.4-.5.5-.4.4-.4.3-.7-.1-.2-.1-.3-.1-1.4 0-1.7-.1-2.7-.5-3.8-.2-.5-.2-.5-.1-.7 0-.1.1-.4 0-.5 0-.2.1-.6.2-1.1q.6-2.7 0-3.3c-.2-.3-.4-.2-1.3.3-.3.2-.6.4-.8.5-.3.1-.5.3-.8.6-.4.4-.4.4-.6.4h-.2c-.1 0-.2 0-.5-.1-.4-.1-1.1-.3-1.6-.3-.8 0-1-.2-1.5-1.2S11.9 1 11.8 1.2m.2.3c.1 0 .3.5.6 1 .2.5.5 1 .6 1.1.2.3.2.3-.1.3-.5 0-1.3.2-1.7.5-.2.1-.2.1-.2-.1v-.2c-.1 0-.1-.1 0-.1.1-.1.1-.1 0-.2s0-.2.1-.4.2-.6.3-.9c.2-1.1.2-1.2.4-1m7.2 1.9c-.4.2-2.3 1.9-2.2 2h.1c.1 0 .3.3.3.5 0 .1 0 .2.1.2s.1.1.1.2c0 .4.5.6.8.4.2-.1.4-.1.8 0 .5.1.6 0 .6-1V4c.1 0 .1-.3 0-.4s-.1-.1 0-.1c.3 0 0-.1-.4-.1 0-.1-.1-.1-.2 0m.5.1q0 .15 0 0-.15 0 0 0s.1 0 0 0m-.4.2c-.1.1-.1 0 0 0q-.15 0 0 0m-.6.4s0 .1-.1.1l-.1.1.1-.1c.1-.1.1-.2.1-.1m-.4.3q0 .15 0 0c-.2.1-.2.1-.1.1zm-.4.4s0 .1 0 0q-.15.15 0 0c-.1 0 0 0 0 0m-.3.3c-.1.1-.1 0 0 0-.1 0 0-.1 0 0m-7.2.6c.5.1 1.1.5 1.3.7l.2.2-.2.2c-.2.3-.3.5-.3.9V8h-.1c-1.3.3-3.4-.6-3.4-1.5 0-.8 1.3-1.2 2.5-.8m5-.1s.1.1.2.1c.3.1.8.4 1.2.7s.5.3.3.1-.8-.6-1.2-.7c-.5-.3-.5-.3-.5-.2m2.3.4q0-.15 0 0 0-.15 0 0m-7.4.1c-.4.1-.6.4-.6.8.1 1 1.6.9 1.6-.1 0-.5-.5-.9-1-.7m7.6.2q-.15 0 0 0 0-.15 0 0 0-.15 0 0m-4.4.1c.7.1 1.5.5 2.2 1 .3.2.7.5.8.5q.6.3 0 .3c-.3 0-.6.1-1.2.4-1.8.9-3.7.3-3.7-1 .1-.9.8-1.4 1.9-1.2m-3.1 0c.1.1.1.2-.1.3-.1.1-.3 0-.3-.1 0-.2.2-.3.4-.2m7.5.1q.15.15 0 0 0-.15 0 0m-7.1.1c.1.1.1.3 0 .3-.1.1-.3-.1-.3-.2s.2-.2.3-.1m7.4 0q-.15 0 0 0-.15 0 0 0m-3.9.4c-.3.1-.6.5-.5.9.1.8 1.3.9 1.6.1.1-.6-.5-1.2-1.1-1m-3.9.1c0 .1-.1.1-.2.1v-.1c0-.1.2-.1.2 0m4 .2c.1 0 .1.3 0 .3-.1.1-.4 0-.4-.1s.2-.3.4-.2m.6.2c.1.1.1.3-.1.3-.1.1-.3-.1-.3-.2.1-.2.3-.3.4-.1m-.5.5c0 .1 0 .2-.1.2s-.1-.1-.1-.2zm-7.3.8q0 .15 0 0-.15 0 0 0m8.5.4c-.4.2-1.2.3-2 .4h.1c.5.1 1.9-.2 2.1-.4.1-.1.1-.1-.2 0m-11.4.1c.1.2.2.6.2.8 0 .1 0 .4-.1.7 0 .6-.1.8-.4.8-.5 0-.7-.5-.7-1.5 0-.3-.1-.5-.1-.2 0 .2 0 .2-.8.3-.3 0-.5.1-.5.1 0 .1 0 .1.2 0 .1 0 .4 0 .6-.1h.4v.4c0 .2 0 .4.1.5 0 .1 0 .1-.3.2-.4 0-.5.1-.5.1h.8l.1.1c.1.1.3.3.5.3s.2 0 .2.2c0 .3 0 .3-1.1.4s-1.2.1-1.2.2.3 0 1.1-.1h1v.6l-.3.1c-.9.5-2 .7-2.2.6-.3-.2-.2-1 .1-1h.1-.1c-.3 0-.5-.7-.3-1.1.1-.2.1-.2.2-.2.2.1 1.1.1 1.1 0 0 0-.2-.1-.5-.1-.6 0-.7-.1-.8-.4-.1-.5.1-.7.9-.9.6-.1.9-.3 1.3-.5.3-.4.9-.5 1-.3m2.5.3c0 .1 0 .1-.2.1-.1-.1-.1-.1 0-.1.1-.1.1-.1.2 0m1 0q.15.15 0 0c-.1-.1 0-.1 0 0m1.5 0s0 .1.1.1c.1.2.2.1.1-.1-.1 0-.2-.1-.2 0m-1.2.3q.15 0 0 0-.15-.15 0 0c-.1-.1 0-.1 0 0m-1.2 0s0 .1 0 0c0 .1-.1 0 0 0q-.15 0 0 0c-.1 0 0 0 0 0m3.5.1-.1.1.4-.1c0-.1-.2-.1-.3 0m-3.8.1c0 .1-.1.1 0 0-.2.1-.2 0-.1-.1.1 0 .1 0 .1.1m.5-.1s0 .1 0 0c0 .1 0 0 0 0q-.15 0 0 0m-.1.2q-.15-.15 0 0 0-.15 0 0m.1.1s0 .1 0 0c0 .1 0 0 0 0q-.15 0 0 0m.2.3q.15 0 0 0s0-.1 0 0c0-.1 0 0 0 0m2.2 0s-.1 0 0 0q-.15 0 0 0m7.8.1s.1.1.1.2c.4.3.5.9.4 1.6-.1.3 0 .2.2-.1.2-.5.1-1.2-.3-1.5-.2-.2-.4-.3-.4-.2m-12.5 0s.1.2.1.4c.1.4.2.5.2.5v-.1c-.1-.2-.1-.3.1-.2.1.1.2 0 .8-.1h.1l-.1.2c-.2.3-.2.3 0 .4.2 0 .2.1.1.3s0 .3.2.3c.1 0 .1 0-.1.4-.2.5-.1.5.4.3.1 0 .1 0 .2.3l.1.3-.1.2-.2.1H6c-.5 0-1.2 0-1.3-.1 0 0 0-.1.1-.2l.2-.1s-.2.1-.4.3c-.3.3-.4.3-.5.3h-.2l.1-.1c.1-.2.1-.5 0-.7-.1-.1-.1-1 0-1.1 0 0 .1-.2.1-.3s0-.2.1-.2c.3 0 .3-.2.3-.7.1-.5.1-.6.3-.4m2.9 0q.15.15 0 0 0 .15 0 0m-.8.2q0-.15 0 0c0-.1 0 0 0 0m8.2.1H15zm-3.7.1q-.15 0 0 0-.15-.15 0 0 0-.15 0 0m3.3 0s-.1 0 0 0q-.15-.15 0 0 0-.15 0 0m-2.9 0s.1 0 0 0m2.4 0q.15 0 0 0m-7.1.1q-.15-.15 0 0 0-.15 0 0m.1.1s0 .1 0 0c0 .1 0 0 0 0q-.15 0 0 0m12 .1c0 .1.1.2.2.4s.1.3.1.3-.1 0-.3-.1c-.3-.1-.4-.1-.3.3.1.5.1.5-.2.5-.2.1-.3.1-.3.2s0 .1-.2.2c-.1 0-.2.1-.2.3-.1.3-.3.5-1.2.8-.5.2-.6.3-.3.2.3 0 1.5-.5 1.6-.7.1-.1.1-.2.1-.3 0-.2 0-.2.2-.2.1 0 .2-.1.2-.1 0-.1.1-.1.3-.2l.3-.1v-.2c0-.1 0-.3-.1-.3 0-.1 0-.1.4-.1.5.1.5 0 .1-.6-.1-.2-.3-.4-.4-.4zm-2.5.3c0 .1 0 0 0 0m-9 .1q-.15 0 0 0c-.1 0 0 0 0 0m3.1.1s-.1 0 0 0q-.15 0 0 0m.2.2c-.1 0 0 0 0 0m1.1.1s-.1 0 0 0c-.1 0-.1-.1 0 0 0-.1 0 0 0 0m1.1.1h-.1c-.1 0-.1-.1.1 0 0-.1 0 0 0 0m.9 0q-.15-.15 0 0 0-.15 0 0m.8 0q0 .15 0 0s0-.1 0 0m-1.6.1h-.2.2m.9 0h-.3.3m-6.4.9c0 .2 1.3.7 1.8.7.3 0 .2-.1-.1-.1-.3-.1-.9-.3-1.3-.5s-.5-.2-.4-.1m3.2-.1s-.1 0 0 0q-.15 0 0 0m.2.1c-.1 0-.1-.1 0 0 0-.1 0 0 0 0m.5.1s0-.1 0 0c0-.1.1 0 0 0m-7.8.1c.2.3-.1.6-.8 1-.8.4-1 .4-1.3 0-.3-.3-.3-.4 0-.4s1.5-.4 1.7-.6c.3-.1.3-.1.4 0m9.1 0h-.1zm1 0q-.15 0 0 0m-5.8.3s.3.2.4.2.1-.1-.1-.1c-.1 0-.2 0-.2-.1zm7.2 7.3s.1.2.3.4c.3.4.8 1 1.1 1.5.2.2.2.3.3.1 0-.1.1-.1.1 0 0 0 .1.2.1.3s.1.3.1.3c0 .1 0 .1.1.1s.1 0 .1.1.1.1.1.1v-.2s-.1-.1-.1-.2c-.1-.1-.2-.3-.2-.5-.2-.5-.2-.6-.3-.2v.1l-.1-.2c-.7-.9-1.6-1.8-1.6-1.7" style="fill-rule:evenodd;clip-rule:evenodd;fill:#262626"/><path d="M11.7 1.3c-.1.2-.3 1-.3 1.1s-.3 1.1-.4 1.2v.2c0 .1 0 .2-.1.3-.1.2-.1.2 0 .2h.1c0 .1-.1.2-.5.2s-.5 0-.8.2c-.2 0-.4.1-.6.2s-.5.3-.7.6c0 .1-.2.2-.3.3-.3.3-.3.5-.3 1.1v.7s0 .1-.1.2-.2.3-.3.5c-.2.3-.2.4-.3.3-.1 0-.3.2-.4.5 0 .3 0 .3-.2.4s-.2.1.1.3c.1 0 .1.1-.1.2-.2.2-.2.2-.1.3.2.1.2.2 0 .5l-.1.3-.4.1c-.2 0-.4.1-.5.1h-.2c-.1 0-.1-.1-.2-.1V11c0-.2-.1-.4-.2-.5-.1 0-.1-.1-.1-.5 0-.6-.2-.9-.7-.9-.3 0-.4 0-1 .4-.3.2-.7.3-1.3.4-.3.1-.8.3-.8.4-.1.3 0 .8.1.9l.1.1-.1.2c-.2.3-.2 1.2.1 1.2.1 0 .1 0 0 .2-.2.3 0 1.1.3 1.1.1 0 .2 0 .2.2.1.3.5.7.8.7s.8-.2 1.2-.4c.3-.1.4-.2.6-.2s.3 0 .4-.1l.1-.1h.6c1.1.1 1 .1 1 .3s0 .2-.1.3-.1.1-.1.3 0 .3-.1.5c-.1.3-.1.4.1.5s.2.1.2.2v.9c-.1.2-.1.4-.2.6-.1.4-.1.4.3.6l.1.1v.6c0 .7.1 1.2.1 1.2s.1 0 .1-.1c.1-.1.1 0 0 .2-.2.5-.3 1.7-.2 2.7.2.9.2 1 .3 1s.1-.1 0-.6c-.1-1.5 0-2.6.2-3.2v-.1l.2.2c.8.9 1 .9 1.8.4l.6-.5.1.1c.2.2.2.2.5-.1s.3-.4 0-.2-.4.3-.5.2-.1-.1-.5.1c-.2.1-.5.3-.7.5l-.2.2-.2-.1c-.5-.3-.9-.8-.9-1.1q0-.3-.3 0c-.1.1-.2.1-.2.1v-1.8l-.2-.1c-.2-.1-.2-.1 0-.8.2-.5.2-.6.1-.8s-.1-.2 0-.4c.1-.3.1-.3-.2-.4s-.3-.1-.1-.4c.1-.2.1-.3.1-.4s0-.1.1-.2c.1 0 .2-.2.1-.3 0-.1 0-.1.2-.3l.2-.1.1.3c.7 1.2 2.3 2 4.3 2.1.6 0 .5 0 0-.1-2.4-.2-4.2-1.4-4.6-3.4v-.1l-.2.1c-.3.2-.3.2-.2 0s.2-.5.1-.6-.1-.1 0-.2c.1-.2.1-.2-.1-.3l-.2-.1.3-.4.3-.4-.1.2c.9 1.9 5.8 3.3 8.6 2.4 1.3-.4 2.1-1.6 1.4-2.2-.3-.4-.9-.4-2.3-.2-.8.1-1.4.1-1.9.1-.3 0-.7-.1-1-.1-1.1-.1-1.7-.2-2.4-.6-.6-.2-1.3-.8-1.6-1.3 0-.1-.1-.2-.2-.2 0-.2.2-.7.4-1l.1-.2.2.3c.2.3.7.6 1.1.7h.2-.2C8.5 8.5 8 7.9 8 7.4c0-.3 0-.3.3 0 .6.6 2 1 3.1.8.2 0 .3.1.4.4 0 .6.7 1.1 1.3 1.1h.2-.2c-.5-.2-.9-.4-1.1-.7-.1-.2-.1-.2.2 0 .9.6 1.9.5 3.3-.1.5-.2.6-.3.9-.3.7-.1.7-.4.1-.6-.1 0-.4-.2-.7-.5-1.3-1-2.6-1.3-3.6-.9-.1.1-.1-.1.1-.2.8-.7 2.4-.4 4.1.7.1.1.1.1.1 0-.3-.4-2.1-1.2-2.9-1.2-.3 0-.3-.1 0-.2s1.2-.1 1.5 0c.1 0 .2.1.2 0 0 0-.3-.1-.7-.2-.5-.1-1.2 0-1.5.3-.1.1-.3.1-.4.2-.2.1-.3.2-.5.3l-.2.2-.3-.2c-.7-.5-2-.8-2.7-.6-.3.1-.3.1 0-.2.6-.6 1.8-.5 2.8.2.5.3.5.3.4.2-.2-.3-1.3-.9-1.8-.9-.6-.3-.4-.4.2-.4q.9 0 1.8.6c.3.2.4.2.3.1s-.7-.5-1-.6l-.3-.1.3-.1c.5-.5 1-.6 1.7-.5.5.1.7.1.4.2-.2.1-.3.2-.2.2 0 0 .1 0 .2-.1.4-.3 1.7-.2 2.4.1l.2.1-.1.1c-.2.2-.1.2.1 0 .2-.1.2-.1.4-.1h.2l.5-.5c.6-.6 2.1-1.6 2.4-1.6.5 0 .6 1.8.1 3.3.1.4 0 .6 0 1v.5s-.1.1 0 .3c0 .2 0 .3-.1.5-.1.4-.1.4.1.2 0-.2 0-.2.1.1.4 1.2.6 3.1.4 4.7 0 .2 0 .3.1.5.2.3.2.2-.3.6-.4.3-.4.3-.4.5 0 .1 0 .1-.2.1s-.4.2-.7.6c-.1.2-.1.2-.1.6.1.6.1.8 0 .8 0 0-.2 0-.5-.1 0 0 0-.1.1-.3.3-.5.4-.5-1.4 0-.8.2-1.5.4-1.6.4s-.2 0-.2.1h.3c.2 0 .7-.1 1.2-.2.9-.2 1.1-.2 1.4-.3q.3-.15 0 .3c-.1.1-.1.2-.3.2h-.2.2q.45 0 1.2.3c.3.1.6.2.7.3.3.1.4.1.2.2s-.1.2.2.5c.2.2.4.5.6.7.4.6.6.8.8 1 .2.1.3.2.2.2-.4-.1-.4 0 .1.6.5.7 1 1.4 1.1 1.8 0 .1 0 .1-.2 0-.1 0-.1.2 0 .5.2.7.4 1.4.5 1.4.1.1 0-.1-.2-.9-.3-.9-.3-.9-.1-.8s.2 0 0-.4c-.3-.8-.7-1.3-1.1-1.8-.3-.3-.3-.4-.1-.4.3.1.4-.1.1-.3-.2-.1-.5-.4-.8-.9-.1-.2-.4-.5-.6-.7l-.4-.4.2-.1c.2-.2.2-.2 0-.2-.3 0-1.1-.3-1.2-.4s-.2-1.1-.1-1.3c.2-.3.3-.5.6-.5h.2V15c0-.2 0-.2.4-.6l.4-.4-.1-.3c-.1-.3-.1-.3-.1-1.2 0-1.5-.1-2.9-.5-4-.1-.4-.2-.6-.1-.7v-.6c0-.4.1-.9.2-1.4.2-.9.3-2.4.1-2.8-.2-.5-.4-.5-1.2 0-.3.2-.8.5-1 .6-.4.2-.6.4-.8.7-.4.4-.4.4-.5.4h-.3c-.1.1-.1.1-.4-.1q-.75-.3-1.5-.3c-1 0-1.1-.1-1.6-1.1-.4-.7-.8-1.4-1.1-1.6.2-.5.1-.5 0-.3m.4.3c.1.1.2.4.3.6.2.6.5 1.1.7 1.4l.2.3h-.4c-.2 0-.5.1-.6.1-.4.1-1.2.5-1.2.6v-.2q.15-.15 0-.3v-.4c0-.1 0-.2.1-.5.1-.2.2-.6.3-.9.3-1 .4-1.1.6-.7m7 1.9c-.3.2-2.1 1.8-2.1 1.9l.1.1c.1 0 .1 0 .2.1 0 .1.1.1.1.2V6c0 .1 0 .2.1.3s.1.2.1.2c0 .3.5.5.8.3.2-.1.3-.1.8 0s.6 0 .6-1V4.1c.1 0 .1-.3-.1-.4-.1-.1-.1-.1 0-.1.3 0 0-.1-.3-.1 0-.2 0-.2-.3 0m.6 0h-.1zs.1 0 0 0m-.3.1c-.1 0-.1.1-.1.1-.1 0 .1-.1.1-.1q.15 0 0 0m-.2.2q-.15 0 0 0-.15-.15 0 0c0-.1 0 0 0 0m-.1 0s-.1 0 0 0c-.2.1-.2.1-.1.1 0-.1.1-.2.1-.1m-.4.3-.1.1.2-.2s0 .1-.1.1m-.2.2-.2.2-.2.1.1-.2c.2-.1.3-.1.3-.1m-.5.4-.1.1-.1.1.1-.1zm-.3.3-.1.1-.1.1.1-.1c0-.1.1-.1.1-.1m-7.8.6c.7.1 1.6.5 1.9.8.2.1.2.1 0 .3q-.3.3-.3.9c0 .5 0 .5-.9.5C8.4 8 7 6.4 8.6 5.7c.4-.2.7-.2 1.3-.1m7.7-.1q0 .15 0 0 0 .15 0 0s-.1 0 0 0m-2 .2c.4.1.8.4 1.2.7s.6.3.2.1c-.5-.5-1.1-.8-1.4-.8q-.3-.15 0 0m2 .1q0 .15 0 0s0-.1 0 0m.1.2q0-.15 0 0 0-.15 0 0m.2.2v.1zl-.1-.1q-.15-.15 0 0c.1 0 .1 0 .1.1m-7.6-.1c-1 .2-.7 1.6.2 1.5.3 0 .5-.1.6-.4.4-.6-.1-1.3-.8-1.1m3.3.3c.7.2 1.3.4 2 1 .3.2.6.4.8.5.4.2.4.3-.1.4-.3 0-.5.1-.9.3-1.9.9-3.8.4-3.8-1 0-1 .9-1.5 2-1.2m-3.3 0s.1.1.1.2 0 .1.1 0c.2-.2.4 0 .4.2-.1.3-.3.2-.4-.1-.1-.1-.1-.1-.2-.1q-.15.15-.3 0c-.1-.1.2-.3.3-.2m.2.1q0-.15 0 0c0-.1 0 0 0 0m7.4 0q.15.15 0 0 0-.15 0 0m.3.1q-.15 0 0 0-.3 0 0 0c-.1 0 0 0 0 0m.3 0h-.1zm-4.3.4c-.2.1-.4.3-.5.5-.3.7.5 1.4 1.2 1 .9-.5.2-1.9-.7-1.5m-3.8.1c0 .1-.1.2-.2.1-.1 0-.1-.2 0-.2s.2 0 .2.1m4.1.3c.1.1 0 .3-.1.3s-.3 0-.3-.2c-.1-.2.3-.3.4-.1m.6.2c0 .1.1.2 0 .2l-.1.1c-.1.2-.3.1-.3-.1 0-.4.2-.5.4-.2m-.6.5c0 .1 0 .1-.1.1s-.1 0-.1-.1 0-.1.1-.1.1.1.1.1m.3.2s-.1 0 0 0c-.1-.1 0-.1 0 0 0-.1 0 0 0 0m-.1.1q0-.15 0 0 0-.15 0 0m-7.4.5c-.2-.1-.3.1-.4.2q0 .15 0 0c-.1-.1.3-.4.4-.2m.2.2q0 .15 0 0C7.4 9 7.3 9 7.4 9c0 0 0 .1.1.1m8.4 0c-.1.1-1.2.4-1.9.5h-.4.4c.4 0 1.1-.1 1.5-.2.2-.1.6-.3.4-.3m-11.6.2c.2.2.2.5.2.9 0 .2-.1.6-.1.8 0 .5-.1.6-.4.6-.5 0-.7-.4-.7-1.4v-.4c0-.1-.1.1-.1.2s0 .1-.6.2c-.7.1-.7.1 0 .1h.6v.2c0 .1 0 .4.1.5l.1.3h-.3c-.5.1-.6.1-.1.1h.4l.1.2c.1.1.2.2.3.2.4.1.2.5-.2.6-.3 0-1.7.2-1.7.2-.1.1.1.1.7 0 .4 0 .8-.1 1-.1h.3v.3c0 .4 0 .4-.3.5-.8.4-1.8.7-2.2.6-.3-.1-.3-1 0-1h.1-.1C1 12.6.8 12 1 11.6l.1-.2h1.1-.5c-.6 0-.8-.1-.8-.7v-.3l.3-.2c.2-.1.5-.2.8-.2.6-.1.9-.2 1.2-.5.4-.3.9-.4 1.1-.2m3.4.1q-.15 0 0 0l-.1-.1c0 .1.1.1.1.1m-.9.2c0 .1 0 .2-.1.1s-.1-.1 0-.1c0-.1 0-.1.1 0m1.5.4q.15.15 0 0s-.2-.1-.3-.2c-.2-.2-.2-.2 0-.1.1.1.2.3.3.3m-1.2.1s-.2-.3-.2-.5c0-.1 0 0 .1.2s.1.3.1.3m2.2-.5.1.3s.1-.1 0-.2c0-.1-.1-.1-.1-.1m-2.4.4c-.1 0-.1-.1-.2-.1h.1s.1 0 .1.1m3.5 0-.1.1.4-.1c0-.1-.2-.1-.3 0m-3.8.1c0 .2-.1.2-.2.1 0-.1 0-.1.1-.1.1-.2.1-.2.1 0m.1 0c0 .1 0 0 0 0V10zm.4.2.1.2zl-.2-.2c.1 0 .1.1.2.2m1.5-.1q-.15 0 0 0-.15-.15 0 0-.15-.15 0 0m-1.3.1q0 .15 0 0c-.1 0-.1-.1 0 0-.1-.1-.1 0 0 0m1.4 0q-.15-.15 0 0 0-.15 0 0m-1.9.1c0 .1 0 0 0 0-.1-.1 0-.1 0 0 0-.1 0 0 0 0m2.3 0c.1.1.2.1.2.1-.1 0-.2 0-.2-.1-.2-.1-.3-.1-.3-.1s.1.1.3.1m-1.6.2.1.2zc-.2-.1-.2-.2-.2-.2zm-.7 0q0-.15 0 0c0-.1 0 0 0 0m.5 0q.15 0 0 0s0-.1 0 0c0-.1 0 0 0 0m2.2 0h-.1c-.1-.1-.1-.1.1 0m-4.7.2s.1.2.1.4c.1.2.1.3.2.4v-.1c-.1-.2 0-.2.1-.1h.5c.4-.1.4-.1.2.2q-.3.3 0 .3c.2 0 .3.1.2.3l-.1.2.1.1c.2.1.2.1 0 .6-.1.3-.1.3.2.2.2-.3.4-.3.4-.3.1 0 .2.6.2.8-.2.2-.2.2-1.2.2-1.1 0-1.1 0-.9-.3.1 0 .2-.1.2-.1-.1-.1-.2.1-.4.3-.3.3-.7.5-.5.2.1-.2.1-.5 0-.7-.1-.1-.1-.2-.1-.5v-.7s.1-.1.1-.2c0-.2.1-.3.2-.3.2-.1.3-.2.3-.7 0-.4.1-.5.2-.2m4.9-.1s-.1 0 0 0c-.1 0-.1-.1 0 0 0-.1 0 0 0 0m7.7.2c.4.4.5 1 .3 1.6-.1.2 0 .2.2-.1.3-.6.1-1.3-.4-1.7-.2-.1-.3-.1-.1.2m-9.8-.1.1.1zc-.1 0-.2-.1-.2-.1.1 0 .1 0 .2.1m.4.2-.3-.2.1.1c.1.1.2.1.2.1m1.8-.3q-.15 0 0 0M7 11c.1.1.2.4.4.5.1.2.2.2.1.1-.3-.1-.5-.5-.5-.6-.2-.3-.1-.3 0 0m3-.2q-.15 0 0 0c-.1 0-.1-.1 0 0 0-.1 0 0 0 0m.1 0q-.15 0 0 0m.2.1c-.1 0-.1-.1 0 0 0-.1.1 0 0 0m.2 0q-.15 0 0 0s.1 0 0 0m-2.7.1c-.1 0-.1-.1 0 0 0-.1 0 0 0 0m3 0h-.1c-.1 0-.1-.1.1 0 0-.1 0 0 0 0m4.9 0H15c.2-.1.7-.1.7 0m-7.3.2s-.1 0-.2-.1c-.1 0-.2-.1-.2-.1s.1 0 .2.1c.1 0 .2.1.2.1m2.7-.2H11zm4.8 0q-.15 0 0 0s.1 0 0 0m-7.7.3s-.3-.1-.3-.2l.1.1c.2 0 .2 0 .2.1m3.3-.2h-.2s0-.1.2 0c0-.1.1 0 0 0m3.1 0h-.2s.1-.1.2 0c0-.1.1 0 0 0m1.6 0c.1 0 .4.3.4.4s0 0-.1-.1zh-.1zm-4 0h-.3.3m2 0H14zs.1 0 0 0m-1.3.1h-.2.1c.1-.1.1 0 .1 0m.8 0h-.2.1c.1-.1.2-.1.1 0m-5 .1s0 .1 0 0q-.15 0 0 0c-.1 0 0 0 0 0m.2.1q-.15 0 0 0-.15 0 0 0m-.2 0q-.15.15 0 0-.15 0 0 0m.5.1c.1.1 0 .1 0 0-.1 0-.2 0-.2-.1-.1 0 0 0 0 0 .1.1.2.1.2.1m10 0c0 .1.1.2.2.4s.1.3.1.3-.1 0-.3-.1c-.4-.1-.4-.1-.3.4l.1.4-.3.1c-.3.1-.3.1-.3.2s0 .1-.1.2c-.1 0-.2.1-.2.3-.1.3-.2.4-1.1.7-.9.4-.8.4 0 .1.9-.3 1.1-.5 1.2-.8 0-.2.1-.2.2-.2s.1-.1.2-.1c0-.1.2-.1.3-.2l.2-.1v-.4c0-.3 0-.4.1-.3.1 0 .6.1.7.1q.15 0-.3-.6c-.1-.1-.3-.4-.4-.4q0-.15 0 0m-10.3 0q0 .15 0 0-.15 0 0 0m.8.2q.15 0 0 0c-.2 0-.3 0-.3-.1h.1s.2 0 .2.1m-.6-.1q0 .15 0 0s.1 0 0 0m7.7.2c0 .1-.1 0 0 0-.1-.1-.1-.1-.1-.2 0 0 .1.1.1.2m-7.5-.1s-.1 0 0 0q-.15 0 0 0m.2 0c0 .1-.1.1 0 0q-.15 0 0 0m.4 0q0 .15 0 0-.15 0 0 0m-1.7.5c.1.1-.3-.1-.4-.3-.1-.1-.1-.1.1 0zm1.4-.4c-.1 0 0 0 0 0m.5 0q-.15 0 0 0m-.3 0q0 .15 0 0-.15 0 0 0m.5 0q-.15 0 0 0s.1 0 0 0m-.3.1q-.15 0 0 0m.5 0q-.15 0 0 0s.1 0 0 0m-.3 0q-.15 0 0 0m.6 0s-.1 0 0 0q-.15 0 0 0m-.3.1q.15 0 0 0h-.1q-.15 0 0 0zm.5 0h-.1zm.2 0q-.15 0 0 0m-.3.1h-.1zm.6 0q-.15 0 0 0c-.2 0-.2-.1 0 0-.1-.1 0 0 0 0m5.2.1c0 .1 0 0 0 0v-.1c.1 0 .1 0 0 .1m-5.6-.1H11zm.6 0h-.1zs.1 0 0 0m-.3.1q-.15 0 0 0c-.2 0-.2-.1 0 0-.1-.1 0 0 0 0m.7 0H12c-.1 0-.1-.1.1 0 0-.1 0 0 0 0m-.5 0s-.1 0 0 0q-.15 0 0 0m.8 0h-.1zq.15 0 0 0m-3.3.5-.8-.4.4.2c.3 0 .4.1.4.2m2.8-.4s-.1 0 0 0c-.1 0-.1-.1 0 0q0-.15 0 0m1.2 0h-.3.3m1.5 0h-.4.4m.3 0s0 .1 0 0c0 .1 0 0 0 0s0-.1 0 0c0-.1 0 0 0 0m-2.7 0h-.1zm4.4.1c0 .1-.4.5-.4.4 0 0 .4-.5.4-.4q.15-.15 0 0m-4 0h-.1c-.1 0-.1-.1.1 0 0-.1 0 0 0 0m1.4 0h-.7.7m-4.5.4s-.1 0 0 0q-.15 0 0 0m.1 0q0 .15 0 0c-.1 0 0 0 0 0m6.5 0-.1.1-.1.1.1-.1zM10 13c.1.1 0 .1-.1 0q-.15 0 0 0c0-.1 0-.1.1 0m.2 0q0 .15 0 0-.15 0 0 0m.1.1s.1 0 0 0m.2 0c0 .1-.1.1 0 0q-.15 0 0 0m.2.1q-.15 0 0 0s.1 0 0 0m4.8 0h-.1c.1-.1.2-.1.1 0m-7.7 0c0 .1.3.3 1 .6.5.2 1 .3 1 .2 0 0-.1-.1-.2-.1-.3 0-1.1-.3-1.6-.6zm3.4.1c.1 0 .2.1.1.1s-.2 0-.3-.1c-.1 0-.2-.1-.1-.1 0 0 .2 0 .3.1m3.9 0q-.15 0 0 0m-3.4.1h-.1zs.1 0 0 0m3.2 0c-.1 0 0-.1 0 0 0-.1 0 0 0 0m-11 .1c.3.4-.1.8-1.1 1.2-.5.2-.9.1-1.2-.4-.1-.2-.1-.2.2-.2.4-.1 1.3-.4 1.6-.5.4-.2.4-.2.5-.1m8.1-.1h-.1zm2.8 0h-.1zm-2.4.1h-.1zc-.1-.1 0 0 0 0m2.1 0s-.1 0 0 0c-.1 0-.1-.1 0 0 0-.1 0 0 0 0m-1.6 0h-.2.2m1.3 0H14zm-.6.1h-.3.3m-5.3.2c0 .1.4.2.4.1 0 0-.1 0-.4-.1 0 0-.1 0 0 0m7.1 7.3s.1.2.3.4c.4.4.9 1.1 1.1 1.4.1.2.2.3.3.1 0-.1.1-.1.2.3.1.2.1.3.2.3 0 0 .1 0 .1.1s0 .1.1.1-.1-.4-.1-.4-.1-.2-.2-.5c-.2-.5-.2-.6-.3-.3 0 .2-.1.2-.2 0-.3-.3-1.5-1.7-1.5-1.5" style="fill-rule:evenodd;clip-rule:evenodd;fill:#5C5C5C"/><path d="M11.7 1.3c-.1.2-.3 1-.3 1.1s-.3 1.1-.4 1.2v.2c0 .1 0 .2-.1.3-.1.2-.1.2 0 .2h.1c0 .1-.1.2-.5.2s-.5 0-.8.2c-.2 0-.4.1-.6.2s-.5.3-.7.6c0 .1-.2.2-.3.3-.3.3-.3.5-.3 1.1v.7s0 .1-.1.2-.2.3-.3.5c-.2.3-.2.4-.3.3-.1 0-.3.2-.4.5 0 .3 0 .3-.2.4s-.2.1.1.3c.1 0 .1.1-.1.2-.2.2-.2.2-.1.3.2.1.2.2 0 .5l-.1.3-.4.1c-.2 0-.4.1-.5.1h-.2c-.1 0-.1-.1-.2-.1V11c0-.2-.1-.4-.2-.5-.1 0-.1-.1-.1-.5 0-.6-.2-.9-.7-.9-.3 0-.4 0-1 .4-.3.2-.7.3-1.3.4-.3.1-.8.3-.8.4-.1.3 0 .8.1.9l.1.1-.1.2c-.2.3-.2 1.2.1 1.2.1 0 .1 0 0 .2-.2.3 0 1.1.3 1.1.1 0 .2 0 .2.2.1.3.5.7.8.7s.8-.2 1.2-.4c.3-.1.4-.2.6-.2s.3 0 .4-.1l.1-.1h.6c1.1.1 1 .1 1 .3s0 .2-.1.3-.1.1-.1.3 0 .3-.1.5c-.1.3-.1.4.1.5s.2.1.2.2v.9c-.1.2-.1.4-.2.6-.1.4-.1.4.3.6l.1.1v.6c0 .7.1 1.2.1 1.2s.1 0 .1-.1c.1-.1.1 0 0 .2-.2.5-.3 1.7-.2 2.7.2.9.2 1 .3 1s.1-.1 0-.6c-.1-1.5 0-2.6.2-3.2v-.1l.2.2c.8.9 1 .9 1.8.4l.6-.5.1.1c.2.2.2.2.5-.1s.3-.4 0-.2-.4.3-.5.2-.1-.1-.5.1c-.2.1-.5.3-.7.5l-.2.2-.2-.1c-.5-.3-.9-.8-.9-1.1q0-.3-.3 0c-.1.1-.2.1-.2.1v-1.8l-.2-.1c-.2-.1-.2-.1 0-.8.2-.5.2-.6.1-.8s-.1-.2 0-.4c.1-.3.1-.3-.2-.4s-.3-.1-.1-.4c.1-.2.1-.3.1-.4s0-.1.1-.2c.1 0 .2-.2.1-.3 0-.1 0-.1.2-.3l.2-.1.1.3c.7 1.2 2.3 2 4.3 2.1.6 0 .5 0 0-.1-2.4-.2-4.2-1.4-4.6-3.4v-.1l-.2.1c-.3.2-.3.2-.2 0s.2-.5.1-.6-.1-.1 0-.2c.1-.2.1-.2-.1-.3l-.2-.1.3-.4.3-.4-.1.2c.9 1.9 5.8 3.3 8.6 2.4 1.3-.4 2.1-1.6 1.4-2.2-.3-.4-.9-.4-2.3-.2-.8.1-1.4.1-1.9.1-.3 0-.7-.1-1-.1-1.1-.1-1.7-.2-2.4-.6-.6-.2-1.3-.8-1.6-1.3 0-.1-.1-.2-.2-.2 0-.2.2-.7.4-1l.1-.2.2.3c.2.3.7.6 1.1.7h.2-.2C8.5 8.5 8 7.9 8 7.4c0-.3 0-.3.3 0 .6.6 2 1 3.1.8.2 0 .3.1.4.4 0 .6.7 1.1 1.3 1.1h.2-.2c-.5-.2-.9-.4-1.1-.7-.1-.2-.1-.2.2 0 .9.6 1.9.5 3.3-.1.5-.2.6-.3.9-.3.7-.1.7-.4.1-.6-.1 0-.4-.2-.7-.5-1.3-1-2.6-1.3-3.6-.9-.1.1-.1-.1.1-.2.8-.7 2.4-.4 4.1.7.1.1.1.1.1 0-.3-.4-2.1-1.2-2.9-1.2-.3 0-.3-.1 0-.2s1.2-.1 1.5 0c.1 0 .2.1.2 0 0 0-.3-.1-.7-.2-.5-.1-1.2 0-1.5.3-.1.1-.3.1-.4.2-.2.1-.3.2-.5.3l-.2.2-.3-.2c-.7-.5-2-.8-2.7-.6-.3.1-.3.1 0-.2.6-.6 1.8-.5 2.8.2.5.3.5.3.4.2-.2-.3-1.3-.9-1.8-.9-.6-.3-.4-.4.2-.4q.9 0 1.8.6c.3.2.4.2.3.1s-.7-.5-1-.6l-.3-.1.3-.1c.5-.5 1-.6 1.7-.5.5.1.7.1.4.2-.2.1-.3.2-.2.2 0 0 .1 0 .2-.1.4-.3 1.7-.2 2.4.1l.2.1-.1.1c-.2.2-.1.2.1 0 .2-.1.2-.1.4-.1h.2l.5-.5c.6-.6 2.1-1.6 2.4-1.6.5 0 .6 1.8.1 3.3.1.4 0 .6 0 1v.5s-.1.1 0 .3c0 .2 0 .3-.1.5-.1.4-.1.4.1.2 0-.2 0-.2.1.1.4 1.2.6 3.1.4 4.7 0 .2 0 .3.1.5.2.3.2.2-.3.6-.4.3-.4.3-.4.5 0 .1 0 .1-.2.1s-.4.2-.7.6c-.1.2-.1.2-.1.6.1.6.1.8 0 .8 0 0-.2 0-.5-.1 0 0 0-.1.1-.3.3-.5.4-.5-1.4 0-.8.2-1.5.4-1.6.4s-.2 0-.2.1h.3c.2 0 .7-.1 1.2-.2.9-.2 1.1-.2 1.4-.3q.3-.15 0 .3c-.1.1-.1.2-.3.2h-.2.2q.45 0 1.2.3c.3.1.6.2.7.3.3.1.4.1.2.2s-.1.2.2.5c.2.2.4.5.6.7.4.6.6.8.8 1 .2.1.3.2.2.2-.4-.1-.4 0 .1.6.5.7 1 1.4 1.1 1.8 0 .1 0 .1-.2 0-.1 0-.1.2 0 .5.2.7.4 1.4.5 1.4.1.1 0-.1-.2-.9-.3-.9-.3-.9-.1-.8s.2 0 0-.4c-.3-.8-.7-1.3-1.1-1.8-.3-.3-.3-.4-.1-.4.3.1.4-.1.1-.3-.2-.1-.5-.4-.8-.9-.1-.2-.4-.5-.6-.7l-.4-.4.2-.1c.2-.2.2-.2 0-.2-.3 0-1.1-.3-1.2-.4s-.2-1.1-.1-1.3c.2-.3.3-.5.6-.5h.2V15c0-.2 0-.2.4-.6l.4-.4-.1-.3c-.1-.3-.1-.3-.1-1.2 0-1.5-.1-2.9-.5-4-.1-.4-.2-.6-.1-.7v-.6c0-.4.1-.9.2-1.4.2-.9.3-2.4.1-2.8-.2-.5-.4-.5-1.2 0-.3.2-.8.5-1 .6-.4.2-.6.4-.8.7-.4.4-.4.4-.5.4h-.3c-.1.1-.1.1-.4-.1q-.75-.3-1.5-.3c-1 0-1.1-.1-1.6-1.1-.4-.7-.8-1.4-1.1-1.6.2-.5.1-.5 0-.3m.4.3c.1.1.2.4.3.6.2.6.5 1.1.7 1.4l.2.3h-.4c-.2 0-.5.1-.6.1-.4.1-1.2.5-1.2.6v-.2q.15-.15 0-.3v-.4c0-.1 0-.2.1-.5.1-.2.2-.6.3-.9.3-1 .4-1.1.6-.7m7 1.9c-.3.2-2.1 1.7-2.1 1.9l.1.1c.1 0 .1 0 .2.1 0 .1.1.1.1.2V6c0 .1 0 .2.1.3s.1.2.1.2c0 .4.5.5.9.3.2-.1.2-.2-.1-.1-.4 0-.5-.1-.5-.3s0-.2-.1-.3-.1-.1-.1-.2v-.2l-.1-.1c0-.1 0-.1-.1-.2-.1 0 0-.1.4-.5.3-.2.5-.5.6-.5.6-.5 1-.8 1.3-.8s.5-.1.4-.1c-.5-.2-.8-.2-1.1 0M9.9 5.6c.7.1 1.6.5 1.9.8.2.1.2.1 0 .3q-.3.3-.3.9c0 .5 0 .5-.9.5C8.4 8 7 6.4 8.6 5.7c.4-.2.7-.2 1.3-.1m5.7.1c.4.1.8.4 1.2.7s.6.3.2.1c-.5-.5-1.1-.8-1.4-.8q-.3-.15 0 0m-5.3.4c-1 .2-.7 1.6.2 1.5.3 0 .5-.1.6-.4.4-.6-.1-1.3-.8-1.1m3.3.3c.7.2 1.3.4 2 1 .3.2.6.4.8.5.4.2.4.3-.1.4-.3 0-.5.1-.9.3-1.9.9-3.8.4-3.8-1 0-1 .9-1.5 2-1.2m-3.3 0s.1.1.1.2 0 .1.1 0c.2-.2.4 0 .4.2-.1.3-.3.2-.4-.1-.1-.1-.1-.1-.2-.1q-.15.15-.3 0c-.1-.1.2-.3.3-.2m.2.1q0-.15 0 0c0-.1 0 0 0 0m3.7.5c-.2.1-.4.3-.5.5-.3.7.5 1.4 1.2 1 .9-.5.2-1.9-.7-1.5m-3.8.1c0 .1-.1.2-.2.1-.1 0-.1-.2 0-.2s.2 0 .2.1m4.1.3c.1.1 0 .3-.1.3s-.3 0-.3-.2c-.1-.2.3-.3.4-.1m.6.2c0 .1.1.2 0 .2l-.1.1c-.1.2-.3.1-.3-.1 0-.4.2-.5.4-.2m-.6.5c0 .1 0 .1-.1.1s-.1 0-.1-.1 0-.1.1-.1.1.1.1.1m.3.2s-.1 0 0 0c-.1-.1 0-.1 0 0 0-.1 0 0 0 0m-.1.1q0-.15 0 0 0-.15 0 0m-7.2.7c.7 1.1 2.1 1.7 4 1.9 1.6.2 2 .2 3.4 0 1.1-.1 1.6 0 1.9.6.5 1.1-1.6 2.2-3.8 2-3-.3-5.4-1.4-6-2.6-.3-.7-.3-1.6 0-.9.5 1 2.4 1.8 5.2 2.2.5.1 2.6.1 2.6 0 0 0-.5 0-1.2-.1h-1.4c-3.6-.5-5.4-1.6-5.3-3.1 0-.1.2-.3.3-.3zm8.4 0c-.1.1-1.2.4-1.9.5h-.4.4c.4 0 1.1-.1 1.5-.2.2-.1.6-.3.4-.3m-11.6.2c.2.2.2.5.2.9 0 .2-.1.6-.1.8 0 .5-.1.6-.4.6-.5 0-.7-.4-.7-1.4v-.4c0-.1-.1.1-.1.2s0 .1-.6.2c-.7.1-.7.1 0 .1h.6v.2c0 .1 0 .4.1.5l.1.3h-.3c-.5.1-.6.1-.1.1h.4l.1.2c.1.1.2.2.3.2.4.1.2.5-.2.6-.3 0-1.7.2-1.7.2-.1.1.1.1.7 0 .4 0 .8-.1 1-.1h.3v.3c0 .4 0 .4-.3.5-.8.4-1.8.7-2.2.6-.3-.1-.3-1 0-1h.1-.1C1 12.6.8 12 1 11.6l.1-.2h1.1-.5c-.6 0-.8-.1-.8-.7v-.3l.3-.2c.2-.1.5-.2.8-.2.6-.1.9-.2 1.2-.5.4-.3.9-.4 1.1-.2m2.5.3c0 .1 0 .2-.1.1s-.1-.1 0-.1c0-.1 0-.1.1 0m2.5 0 .1.3s.1-.1 0-.2c0-.1-.1-.1-.1-.1m1.1.4-.1.1.4-.1c0-.1-.2-.1-.3 0m-3.8.1c0 .2-.1.2-.2.1 0-.1 0-.1.1-.1.1-.2.1-.2.1 0m-1.8.7s.1.2.1.4c.1.2.1.3.2.4v-.1c-.1-.2 0-.2.1-.1h.5c.4-.1.4-.1.2.2q-.3.3 0 .3c.2 0 .3.1.2.3l-.1.2.1.1c.2.1.2.1 0 .6-.1.3-.1.3.2.2.2-.3.4-.3.4-.3.1 0 .2.6.2.8-.2.2-.2.2-1.2.2-1.1 0-1.1 0-.9-.3.1 0 .2-.1.2-.1-.1-.1-.2.1-.4.3-.3.3-.7.5-.5.2.1-.2.1-.5 0-.7-.1-.1-.1-.2-.1-.5v-.7s.1-.1.1-.2c0-.2.1-.3.2-.3.2-.1.3-.2.3-.7 0-.4.1-.5.2-.2m12.6.1c.4.4.5 1 .3 1.6-.1.2 0 .2.2-.1.3-.6.1-1.3-.4-1.7-.2-.1-.3-.1-.1.2m1.8.6c0 .1.1.2.2.4s.1.3.1.3-.1 0-.3-.1c-.4-.1-.4-.1-.3.4l.1.4-.3.1c-.3.1-.3.1-.3.2s0 .1-.1.2c-.1 0-.2.1-.2.3-.1.3-.2.4-1.1.7-.9.4-.8.4 0 .1.9-.3 1.1-.5 1.2-.8 0-.2.1-.2.2-.2s.1-.1.2-.1c0-.1.2-.1.3-.2l.2-.1v-.4c0-.3 0-.4.1-.3.1 0 .6.1.7.1q.15 0-.3-.6c-.1-.1-.3-.4-.4-.4q0-.15 0 0M7.8 13.2c0 .1.3.3 1 .6.5.2 1 .3 1 .2 0 0-.1-.1-.2-.1-.3 0-1.1-.3-1.6-.6zm-3.9.3c.3.4-.1.8-1.1 1.2-.5.2-.9.1-1.2-.4-.1-.2-.1-.2.2-.2.4-.1 1.3-.4 1.6-.5.4-.2.4-.2.5-.1m4.4.3c0 .1.4.2.4.1 0 0-.1 0-.4-.1 0 0-.1 0 0 0m7.1 7.3s.1.2.3.4c.4.4.9 1.1 1.1 1.4.1.2.2.3.3.1 0-.1.1-.1.2.3.1.2.1.3.2.3 0 0 .1 0 .1.1s0 .1.1.1-.1-.4-.1-.4-.1-.2-.2-.5c-.2-.5-.2-.6-.3-.3 0 .2-.1.2-.2 0-.3-.3-1.5-1.7-1.5-1.5" style="fill-rule:evenodd;clip-rule:evenodd"/></g></svg>