<svg xmlns="http://www.w3.org/2000/svg" width="200" height="200" fill="#000000"><path fill-opacity=".282" fill-rule="evenodd" d="M83.5 3.101C61.041 7.58 43.674 17.09 28.438 33.254 16.831 45.566 9.514 58.819 4.811 76.047 2.864 83.18 2.504 86.92 2.504 100c0 16.35 1.566 25.081 6.716 37.453 9.519 22.865 30.462 43.808 53.327 53.327 12.372 5.15 21.103 6.716 37.453 6.716s25.081-1.566 37.453-6.716c22.865-9.519 43.808-30.462 53.327-53.327 5.15-12.372 6.716-21.103 6.716-37.453 0-13.08-.36-16.82-2.307-23.953C189.964 56.909 183.097 45.097 169 31c-13.975-13.975-25.871-20.933-44.503-26.031-9.171-2.51-32.46-3.571-40.997-1.868"/><path fill-opacity=".203" fill-rule="evenodd" d="M66.359 44.649c.313 2.118 1.083 9.701 1.71 16.851s1.231 13.101 1.343 13.224 1.84-.89 3.842-2.25C75.256 71.113 77.269 70 77.727 70s14.521 19.35 31.25 43l30.416 43h8.363c6.433 0 8.185-.288 7.594-1.25-.423-.687-15.299-21.821-33.059-46.963S90 61.644 90 61.119c0-.526 1.599-1.944 3.553-3.152 1.954-1.207 3.396-2.351 3.205-2.542-.727-.727-26.39-13.173-28.623-13.882-2.239-.711-2.319-.571-1.776 3.106M127.5 64.253c-2.75 3.954-7.423 10.669-10.384 14.922l-5.384 7.733 3.189 4.969c1.754 2.733 3.727 5.415 4.384 5.961.872.723 5.161-4.658 15.877-19.923L149.865 57l-8.683.032-8.682.032zm4.812 24.934c-4.297 6.153-8.175 11.783-8.618 12.511-.521.856.674 3.435 3.377 7.288l4.183 5.963 7.494-10.725c4.122-5.898 9.946-14.211 12.942-18.474l5.448-7.75h-17.015zM71.689 84.25c-2.908 3.916-32.012 45.726-33.065 47.5-.587.989 5.385 1.245 28.567 1.225l29.309-.026 5.712-8.333 5.712-8.334-4.389-6.233-4.389-6.232-5.278 7.591L88.59 119H76.673c-9.382 0-11.713-.266-10.953-1.25.53-.687 4.206-5.862 8.167-11.5L81.09 96h5.955C90.32 96 93 95.739 93 95.419s-2.138-3.68-4.75-7.468c-4.724-6.85-4.775-6.888-9.449-6.919-4.157-.028-4.978.343-7.112 3.218m30.811 46.984a3293 3293 0 0 0-12.776 17.972L84.948 156l8.776-.017 8.776-.017 8.587-12.304 8.587-12.304-3.897-5.429c-2.143-2.986-4.207-5.529-4.587-5.651s-4.29 4.808-8.69 10.956"/><path fill-opacity=".328" fill-rule="evenodd" d="M66.359 44.649c.313 2.118 1.083 9.701 1.71 16.851s1.246 13.116 1.376 13.257 2.088-1.085 4.352-2.725l4.116-2.982 30.76 43.475L139.432 156h16.704l-1.911-2.75c-1.051-1.512-15.932-22.624-33.068-46.914S90 61.72 90 61.167s1.599-1.992 3.553-3.2c1.954-1.207 3.396-2.351 3.205-2.542-.727-.727-26.39-13.173-28.623-13.882-2.239-.711-2.319-.571-1.776 3.106M127.5 64.253c-2.75 3.954-7.423 10.669-10.384 14.922l-5.384 7.733 3.189 4.969c1.754 2.733 3.727 5.406 4.384 5.94.866.704 5.239-4.777 15.893-19.923L149.896 57l-8.698.032-8.698.032zm5.973 23.497c-3.761 5.362-7.66 10.949-8.664 12.415l-1.825 2.666 4.158 6.025 4.158 6.026 7.471-10.691c4.109-5.88 9.923-14.178 12.919-18.441l5.448-7.75h-16.826zm-77.14 18.5c-9.335 13.338-17.305 24.813-17.712 25.5-.584.989 5.39 1.245 28.57 1.225l29.309-.026 5.712-8.333 5.712-8.334-4.389-6.233-4.389-6.232-5.278 7.591L88.59 119H76.673c-9.382 0-11.713-.266-10.953-1.25.53-.687 4.206-5.862 8.167-11.5L81.09 96h5.955C90.32 96 93 95.743 93 95.429s-2.064-3.464-4.588-7L83.824 82H73.305zm46.167 25.015a6346 6346 0 0 0-12.776 17.976L84.948 156l8.776-.017 8.776-.017 8.601-12.324 8.601-12.323-4.101-5.627c-2.256-3.095-4.326-5.631-4.601-5.635s-4.1 5.039-8.5 11.208"/><path fill-opacity=".674" fill-rule="evenodd" d="M66.369 43.75c.29 1.513 1.062 9.151 1.715 16.975.824 9.877 1.528 14.035 2.302 13.603.613-.343 2.554-1.688 4.315-2.989l3.201-2.366 13.325 18.764a24470 24470 0 0 1 30.799 43.51l17.474 24.747 8.318.003 8.318.003-1.919-2.75a53673 53673 0 0 0-33.068-46.904C104.017 82.062 90 61.736 90 61.178s1.599-2.003 3.553-3.211 3.352-2.396 3.107-2.641c-.772-.772-29.119-14.303-29.989-14.315-.457-.006-.592 1.226-.302 2.739m56.18 27.627c-5.472 7.88-10.094 14.758-10.269 15.284s1.537 3.551 3.806 6.72l4.126 5.761 1.605-2.321c.883-1.276 7.568-10.758 14.855-21.071L149.92 57l-8.71.025-8.71.025zm9.095 19.057-8.634 12.434 4.136 5.994 4.136 5.994 9.496-13.678c5.222-7.523 11.047-15.816 12.944-18.428L157.17 78h-16.892zm-75.27 15.735c-9.281 13.293-17.234 24.768-17.674 25.5-.658 1.096 4.37 1.323 28.5 1.287l29.3-.044 5.647-8.315 5.648-8.315-4.331-6.223-4.331-6.224-5.271 7.583L88.59 119H64.851l6.729-9.75C81.17 95.356 80.413 96 87.155 96 90.37 96 93 95.743 93 95.429s-2.064-3.464-4.588-7L83.824 82H73.247zm45.454 26.1a4668 4668 0 0 1-12.805 17.981L84.89 156l8.805-.017 8.805-.017 8.601-12.324 8.601-12.323-4.101-5.627c-2.256-3.095-4.326-5.633-4.601-5.641-.275-.007-4.402 5.491-9.172 12.218"/></svg>