<svg xmlns="http://www.w3.org/2000/svg" width="64" height="64" fill="#000000"><path fill-opacity=".09" fill-rule="evenodd" d="M40.976 6.25c-.013 1.788-.416 4.938-.895 7-.947 4.082-.252 4.73 2.146 2 2.424-2.76 3.057-6.15 1.742-9.324-1.6-3.863-2.963-3.716-2.993.324m-19.67 2.832c-1.838.68-4.306 3.68-4.306 5.234 0 .247 1.688-.154 3.75-.89s4.988-1.358 6.5-1.382S30 11.55 30 11s-.115-1-.257-1c-.141 0-1.607-.388-3.259-.861-1.651-.474-3.981-.499-5.178-.057m21.549 9.062c-3.754 7.086-7.584 9.555-10.422 6.718-1.357-1.357-1.368-2.021-.101-5.699.789-2.29 1.21-4.163.937-4.163-.274 0-2.165 1.879-4.203 4.176-2.745 3.093-4.175 3.996-5.514 3.482-1.443-.553-1.692-1.411-1.231-4.247l.576-3.553-4.198 2.474C13.261 20.538 8.43 27.61 7.012 34.441c-2.915 14.04 6.465 24.652 23.168 26.211 9.049.845 13.265-.156 17.76-4.217 5.266-4.758 8.245-12.072 8.285-20.345.038-7.664-2.807-16.15-4.208-12.555-.436 1.119-1.431 2.564-2.211 3.211-1.201.997-1.409.12-1.362-5.734.08-9.931-1.435-10.709-5.589-2.868m-22.01 12.54-5.655 1.485 2.424 9.166c1.334 5.041 2.61 9.685 2.838 10.32.303.85 2.031.748 6.519-.383 7.129-1.795 7.615-3.918.798-3.485-4.148.263-4.562.077-5.008-2.257-.415-2.172-.032-2.662 2.625-3.35 1.711-.444 3.259-1.576 3.44-2.517.284-1.471-.243-1.62-3.748-1.059-2.587.413-4.078.269-4.078-.394 0-.576-.241-1.675-.536-2.443-.37-.964.634-1.687 3.239-2.332 2.317-.574 3.905-1.611 4.11-2.685.386-2.022.474-2.021-6.968-.066"/><path fill-opacity=".336" fill-rule="evenodd" d="M41 7.292c0 1.902-.258 4.977-.573 6.833l-.574 3.375 2.123-2.421c1.564-1.785 2.044-3.475 1.823-6.423C43.419 3.568 41 2.389 41 7.292m-21.95 3.885c-2.503 2.686-2.132 3.185 1.376 1.851C21.913 12.463 24.451 12 26.065 12c3.152 0 3.943-1.399 1.353-2.393-3.098-1.189-6.37-.575-8.368 1.57m25.378 4.985C41.468 22.728 38.293 26 34.88 26c-3.646 0-4.528-1.983-3.039-6.833l1.122-3.656-3.431 3.744c-3.596 3.926-6.901 4.832-7.921 2.173-.332-.865-.14-2.44.428-3.5 1.714-3.203-1.188-2.348-5.995 1.766-7.599 6.504-11.164 18.564-7.98 26.991 1.426 3.774 5.62 8.078 10.135 10.401 4.805 2.472 16.303 4.42 20.939 3.549 11.861-2.229 19.437-17.732 15.89-32.517-1.278-5.327-2.442-6.466-3.292-3.217-.273 1.045-1.351 2.358-2.394 2.916-1.793.959-1.877.638-1.513-5.798.212-3.748-.033-7.561-.544-8.474-.766-1.369-1.267-.911-2.857 2.617M20.32 30.348c-2.3.634-4.469 1.446-4.821 1.806-.982 1.003 4.634 20.849 5.893 20.827.61-.011 3.358-.601 6.108-1.311 3.882-1.003 5.071-1.781 5.32-3.481.364-2.5-.244-2.634-4.778-1.054-2.614.911-3.43.862-4.134-.25C22.75 45.057 22.764 43 23.935 43c.514 0 2.081-.436 3.481-.968 1.787-.679 2.359-1.456 1.918-2.604-.493-1.285-1.455-1.504-4.481-1.02-3.612.577-3.853.458-3.853-1.896 0-1.516.569-2.512 1.435-2.512 3.194 0 6.524-1.944 5.939-3.468-.675-1.76-2.207-1.795-8.054-.184"/><path fill-opacity=".215" fill-rule="evenodd" d="M41.365 10.143c-.999 6.036-.984 6.105.809 3.89 1.894-2.338 2.381-6.611 1.001-8.784-.482-.759-1.194 1.166-1.81 4.894m-21.504.824c-2.77 2.307-2.288 2.421 3.779.893 3.111-.783 4.109-1.403 3.193-1.984-2.157-1.368-4.452-1.009-6.972 1.091m23.711 7.653c-3.651 6.972-6.613 9.138-10.24 7.486-2.271-1.035-2.525-1.634-2.084-4.917l.501-3.738-3.332 3.332c-2.895 2.895-3.615 3.181-5.481 2.183-1.722-.922-2.03-1.747-1.549-4.153l.601-3.002-3.244 1.99C14.833 20.2 9.436 27.768 8.033 32.823 4.982 43.807 9.495 53.254 19.864 57.587c5.75 2.403 14.887 3.445 20.204 2.305 7.756-1.663 13.877-9.675 15.461-20.234C56.146 35.541 54.52 24 53.323 24c-.294 0-1.42 1.125-2.502 2.5-3.034 3.857-3.844 3.038-3.216-3.25.316-3.163.192-6.748-.275-7.967-.773-2.018-1.112-1.717-3.758 3.337M20.75 29.838c-3.842 1.051-5.749 2.085-5.747 3.117.002 1.441 4.797 20.179 5.29 20.671.556.556 13.13-3.401 13.387-4.213.158-.502-.11-1.542-.596-2.31-.705-1.115-1.713-1.187-4.984-.356-2.255.572-4.1.675-4.1.228 0-.446-.252-1.468-.56-2.271-.403-1.05.438-1.646 3-2.127 3.508-.658 4.287-1.884 2.744-4.314-.561-.883-1.683-.98-3.913-.341-2.44.7-3.252.569-3.699-.594-.847-2.207-.89-2.165 3.428-3.328 2.2-.592 4-1.473 4-1.957 0-1.541-1.19-4.048-1.857-3.91-.354.073-3.23.84-6.393 1.705"/><path fill-opacity=".983" fill-rule="evenodd" d="M37.669 31.894c-6.677 1.767-6.493.674-2.569 15.242 1.791 6.646 2.312 7.569 4.021 7.122s1.878-1.079 1.307-4.888c-.644-4.295-.598-4.386 2.506-5.007 2.203-.44 3.06-1.122 2.828-2.247-.248-1.206-1.275-1.542-4.047-1.323-2.043.162-3.715-.139-3.715-.668s-.263-1.646-.584-2.482c-.43-1.122.487-1.809 3.5-2.62 4.137-1.114 4.642-1.662 3.319-3.597-.514-.751-2.489-.61-6.566.468"/></svg>