<svg xmlns="http://www.w3.org/2000/svg" width="250" height="250" version="1.1" fill="#000000"><path fill-opacity=".325" d="M 0 125.004 L 0 250.008 125.250 249.754 L 250.500 249.500 250.754 124.750 L 251.008 0 125.504 0 L 0 0 0 125.004 M 0.485 125.500 C 0.485 194.250, 0.604 222.228, 0.750 187.672 C 0.896 153.117, 0.896 96.867, 0.750 62.672 C 0.604 28.478, 0.485 56.750, 0.485 125.500 M 116.500 24.724 C 112.650 28.914, 109.624 32.749, 109.775 33.246 C 109.926 33.742, 109.660 33.908, 109.183 33.613 C 107.991 32.876, 101.630 39.593, 102.377 40.801 C 102.708 41.336, 102.244 41.712, 101.347 41.637 C 100.449 41.562, 99.496 42.125, 99.228 42.889 C 98.902 43.819, 99.166 44.016, 100.025 43.485 C 100.849 42.975, 101.063 43.089, 100.622 43.802 C 100.245 44.413, 99.275 44.659, 98.468 44.349 C 97.661 44.040, 97 44.227, 97 44.765 C 97 45.303, 94.600 48.077, 91.667 50.928 C 88.733 53.779, 86.333 56.741, 86.333 57.512 C 86.333 58.282, 86.703 58.683, 87.155 58.404 C 87.607 58.125, 87.710 58.592, 87.384 59.442 C 87.057 60.293, 86.419 60.759, 85.964 60.478 C 85.510 60.197, 84.873 60.397, 84.549 60.921 C 84.206 61.476, 85.081 61.672, 86.643 61.388 C 88.975 60.965, 89.158 61.105, 88.041 62.451 C 86.970 63.741, 87.026 64, 88.378 64 C 89.270 64, 90 64.450, 90 65 C 90 65.550, 90.450 66, 91 66 C 91.550 66, 92.007 64.987, 92.015 63.750 C 92.025 62.292, 92.304 61.931, 92.809 62.725 C 93.237 63.398, 94.586 64.102, 95.807 64.288 C 97.028 64.475, 98.584 65.252, 99.264 66.015 C 100.291 67.168, 100.236 67.206, 98.941 66.238 C 97.695 65.306, 97.029 65.485, 95.620 67.131 C 94.650 68.264, 94.148 69.481, 94.503 69.837 C 94.859 70.192, 95.589 69.700, 96.125 68.742 C 96.661 67.784, 97.554 67, 98.109 67 C 98.664 67, 98.803 67.563, 98.419 68.250 C 98.034 68.938, 101.450 65.787, 106.009 61.250 C 110.568 56.712, 114.681 53, 115.149 53 C 115.617 53, 116.086 64.362, 116.191 78.250 C 116.325 95.899, 116.569 100.640, 117 94 C 117.339 88.775, 117.703 86.443, 117.809 88.817 C 117.969 92.427, 118.287 93.045, 119.750 92.590 C 121.055 92.183, 122.003 93.092, 123.480 96.165 C 125.340 100.035, 125.499 100.140, 126.093 97.893 C 126.725 95.500, 126.894 95.658, 128.342 100 C 128.731 101.166, 128.860 101.110, 128.921 99.750 C 128.964 98.787, 129.414 98, 129.920 98 C 130.788 98, 131.632 104.124, 132.332 115.500 C 132.501 118.250, 132.721 105.275, 132.820 86.667 C 132.926 66.754, 133.376 52.970, 133.913 53.167 C 134.764 53.477, 172.226 91.933, 176.376 96.756 C 178.241 98.923, 178.221 98.973, 173.151 104.826 C 170.345 108.065, 168.375 111.042, 168.774 111.441 C 169.173 111.840, 169.050 112.020, 168.500 111.841 C 167.024 111.360, 160.950 117.110, 161.682 118.295 C 162.027 118.853, 161.840 119.019, 161.268 118.666 C 160.695 118.312, 159.613 118.778, 158.863 119.703 C 157.705 121.131, 157.711 121.257, 158.905 120.537 C 159.858 119.963, 160.080 120.062, 159.595 120.845 C 159.203 121.480, 158.234 122, 157.441 122 C 156.139 122, 155.559 123.209, 155.882 125.250 C 155.947 125.662, 155.523 126, 154.941 126 C 154.359 126, 154.148 126.430, 154.473 126.956 C 154.798 127.482, 155.736 127.655, 156.558 127.340 C 157.655 126.918, 157.767 126.424, 156.977 125.472 C 156.212 124.551, 156.212 123.987, 156.976 123.515 C 157.567 123.150, 157.926 123.447, 157.775 124.176 C 157.623 124.905, 158.174 125.356, 159 125.179 C 160.203 124.921, 160.252 125.109, 159.250 126.129 C 158.563 126.828, 158 128.173, 158 129.117 C 158 130.061, 158.563 131.060, 159.250 131.338 C 160.250 131.741, 160.250 131.858, 159.250 131.921 C 157.552 132.028, 157.658 135.655, 159.378 136.315 C 160.136 136.606, 161.327 136.316, 162.025 135.672 C 163.002 134.769, 163.131 134.787, 162.588 135.750 C 162.200 136.438, 162.359 137, 162.941 137 C 163.523 137, 164.007 136.213, 164.015 135.250 C 164.028 133.786, 164.182 133.740, 164.958 134.966 C 166.245 137.001, 164.219 139.427, 162.456 137.964 C 161.545 137.207, 160.965 137.248, 160.435 138.106 C 159.963 138.869, 160.114 139.048, 160.845 138.595 C 161.549 138.161, 162 138.560, 162 139.615 C 162 141.109, 162.335 141.034, 164.428 139.068 C 165.878 137.705, 166.615 136.161, 166.259 135.233 C 165.799 134.035, 166.160 133.809, 167.831 134.246 C 169.024 134.558, 170 134.405, 170 133.906 C 170 133.408, 169.550 133, 169 133 C 168.450 133, 168 132.523, 168 131.941 C 168 131.359, 168.498 131.190, 169.107 131.566 C 169.867 132.036, 169.982 131.519, 169.475 129.922 C 168.780 127.733, 168.838 127.695, 170.432 129.289 C 171.364 130.222, 171.857 131.551, 171.526 132.242 C 171.196 132.934, 171.505 132.647, 172.213 131.605 C 172.921 130.563, 174.725 128.587, 176.222 127.214 C 177.719 125.842, 178.660 124.220, 178.312 123.609 C 177.964 122.999, 178.048 122.834, 178.498 123.241 C 178.948 123.649, 179.920 123.481, 180.658 122.869 C 181.772 121.944, 182.029 125.130, 182.173 141.628 C 182.287 154.815, 182.565 159.313, 183 155 C 183.360 151.425, 183.786 149.625, 183.946 151 C 184.106 152.375, 184.164 154.063, 184.075 154.750 C 183.985 155.438, 184.621 156, 185.488 156 C 186.354 156, 187.355 156.787, 187.712 157.750 C 188.338 159.437, 191.359 162.573, 192.960 163.197 C 193.387 163.364, 194.050 164.512, 194.435 165.750 C 194.923 167.319, 194.726 168, 193.782 168 C 193.037 168, 192.429 168.881, 192.429 169.959 C 192.429 171.903, 192.441 171.903, 194.253 169.959 C 196.712 167.320, 197.481 167.475, 195.557 170.223 C 193.284 173.467, 193.651 174.713, 196 171.727 C 197.171 170.239, 198 167.670, 198 165.533 C 198 163.354, 198.403 162.131, 199 162.500 C 199.659 162.908, 199.994 151.432, 199.981 128.809 L 199.963 94.500 187.231 81.479 C 180.229 74.318, 163.320 56.880, 149.657 42.729 C 135.993 28.578, 124.518 17.024, 124.157 17.053 C 123.795 17.082, 120.350 20.534, 116.500 24.724 M 91.872 51.250 C 91.420 52.136, 91.375 55.959, 91.822 55.511 C 92.427 54.906, 92.869 51, 92.333 51 C 92.150 51, 91.943 51.112, 91.872 51.250 M 87.981 55.523 C 86.924 56.796, 86.986 56.943, 88.359 56.416 C 89.261 56.069, 90 55.384, 90 54.893 C 90 53.607, 89.421 53.788, 87.981 55.523 M 81.924 60.750 L 79.500 63.500 82.250 61.076 C 84.820 58.810, 85.459 58, 84.674 58 C 84.495 58, 83.258 59.237, 81.924 60.750 M 105.872 59.750 C 104.629 61.336, 104.664 61.371, 106.250 60.128 C 107.916 58.821, 108.445 58, 107.622 58 C 107.415 58, 106.627 58.788, 105.872 59.750 M 163.446 116.087 C 163.077 116.685, 163.179 117.579, 163.673 118.073 C 164.204 118.604, 164.571 118.160, 164.571 116.986 C 164.571 114.713, 164.386 114.566, 163.446 116.087 M 150.333 129.456 C 150.333 130.257, 150.716 130.676, 151.183 130.387 C 151.650 130.098, 151.774 129.443, 151.457 128.931 C 150.649 127.623, 150.333 127.770, 150.333 129.456 M 149.333 133.651 C 149.333 134.635, 149.670 134.689, 150.667 133.862 C 151.400 133.253, 152 132.660, 152 132.544 C 152 132.428, 151.400 132.333, 150.667 132.333 C 149.933 132.333, 149.333 132.926, 149.333 133.651 M 152 144.378 C 152 144.585, 152.787 145.373, 153.750 146.128 C 155.336 147.371, 155.371 147.336, 154.128 145.750 C 152.821 144.084, 152 143.555, 152 144.378 M 154.872 148.750 C 153.629 150.336, 153.664 150.371, 155.250 149.128 C 156.916 147.821, 157.445 147, 156.622 147 C 156.415 147, 155.627 147.787, 154.872 148.750 M 182.459 163.067 C 182.096 163.653, 182.014 164.348, 182.276 164.610 C 182.538 164.872, 183.019 164.392, 183.345 163.543 C 184.021 161.781, 183.445 161.471, 182.459 163.067 M 199.079 170.250 C 199.036 171.213, 198.550 172, 198 172 C 197.450 172, 197 172.546, 197 173.214 C 197 174.001, 197.569 173.859, 198.616 172.813 C 199.505 171.924, 199.990 170.590, 199.695 169.848 C 199.327 168.925, 199.133 169.052, 199.079 170.250" stroke="none" fill="#000000" fill-rule="evenodd"/><path fill-opacity=".03" d="M 0 125.004 L 0 250.008 125.250 249.754 L 250.500 249.500 250.754 124.750 L 251.008 0 125.504 0 L 0 0 0 125.004 M 0.485 125.500 C 0.485 194.250, 0.604 222.228, 0.750 187.672 C 0.896 153.117, 0.896 96.867, 0.750 62.672 C 0.604 28.478, 0.485 56.750, 0.485 125.500 M 117.394 23.344 C 113.723 27.280, 102.301 39.275, 92.013 50 C 66.940 76.139, 61.454 82.149, 61.750 83.152 C 61.887 83.619, 61.437 83.887, 60.750 83.750 C 60.062 83.612, 59.624 84.096, 59.775 84.824 C 59.926 85.553, 59.626 85.887, 59.109 85.567 C 58.591 85.247, 56.142 87.301, 53.667 90.130 C 49.782 94.571, 49.167 95.882, 49.167 99.713 C 49.167 103.130, 49.492 104.025, 50.583 103.606 C 51.722 103.170, 52.034 104.580, 52.175 110.781 C 52.285 115.648, 52.492 116.899, 52.736 114.166 L 53.123 109.832 55.526 112.629 C 57.055 114.408, 57.540 115.666, 56.859 116.087 C 56.149 116.526, 56.413 117.706, 57.645 119.594 L 59.500 122.439 60.003 118.470 C 60.382 115.484, 60.692 114.954, 61.253 116.332 C 61.664 117.339, 62 119.509, 62 121.153 C 62 122.798, 62.662 124.805, 63.470 125.613 C 64.764 126.907, 65.017 126.779, 65.579 124.542 C 65.930 123.144, 66.645 122, 67.167 122 C 67.690 122, 67.840 121.550, 67.500 121 C 67.160 120.450, 67.145 120, 67.466 120 C 67.787 120, 68.494 121.169, 69.037 122.597 C 69.580 124.025, 70.919 125.427, 72.012 125.713 C 73.105 125.999, 74 126.777, 74 127.442 C 74 129.074, 78.475 133.192, 79.324 132.342 C 79.696 131.971, 80 132.192, 80 132.833 C 80 133.475, 80.900 134, 82 134 C 83.145 134, 84 134.667, 84 135.559 C 84 136.540, 84.463 136.840, 85.250 136.367 C 85.979 135.929, 85.874 136.402, 85 137.500 C 84.175 138.536, 83.950 139.120, 84.500 138.797 C 85.420 138.257, 88.070 140.277, 88.021 141.480 C 87.916 144.066, 88.113 144.372, 89 143 C 89.797 141.767, 89.972 141.869, 89.985 143.576 C 89.993 144.717, 91.125 146.708, 92.500 148 C 93.875 149.292, 95 149.928, 95 149.415 C 95 148.901, 94.100 147.919, 93 147.232 C 90.534 145.692, 90.384 144.059, 92.750 144.512 C 93.713 144.696, 94.886 144.881, 95.357 144.923 C 95.828 144.966, 95.960 145.662, 95.649 146.471 C 95.339 147.280, 95.654 148.518, 96.348 149.221 C 97.043 149.924, 97.918 151.309, 98.293 152.297 C 98.667 153.285, 99.625 153.960, 100.421 153.797 C 101.217 153.634, 101.860 153.900, 101.849 154.388 C 101.838 154.877, 102.430 155.657, 103.165 156.123 C 104.267 156.821, 104.259 156.972, 103.121 156.985 C 102.363 156.993, 104.090 159.274, 106.958 162.053 C 110.307 165.298, 111.966 167.646, 111.594 168.616 C 111.239 169.542, 112.258 171.262, 114.230 173.063 C 117.699 176.232, 119.501 176.724, 120.407 174.750 C 120.723 174.063, 120.754 174.437, 120.477 175.582 C 120.160 176.889, 120.722 178.343, 121.986 179.487 C 123.094 180.490, 124 181.915, 124 182.655 C 124 183.395, 124.900 184, 126 184 C 127.100 184, 128 183.546, 128 182.992 C 128 182.383, 128.767 182.462, 129.935 183.192 C 131 183.856, 131.618 184.808, 131.310 185.307 C 131.002 185.806, 130.363 185.603, 129.890 184.857 C 128.906 183.303, 128.876 183.365, 128.506 187.771 L 128.232 191.041 130.615 188.271 C 131.925 186.747, 132.998 185.162, 132.999 184.750 C 132.999 184.338, 133.476 184, 134.057 184 C 134.649 184, 134.429 184.977, 133.557 186.223 C 132.701 187.445, 132.007 189.132, 132.015 189.973 C 132.024 190.891, 132.522 190.548, 133.265 189.112 C 133.944 187.799, 134.900 186.825, 135.388 186.948 C 135.877 187.070, 136.644 186.576, 137.094 185.848 C 137.653 184.943, 137.858 185.231, 137.743 186.763 C 137.566 189.110, 136.522 189.717, 135.658 187.975 C 135.379 187.411, 135.277 187.524, 135.433 188.225 C 135.588 188.926, 136.543 189.423, 137.555 189.328 C 138.566 189.234, 139.966 189.909, 140.665 190.828 C 141.833 192.364, 141.939 192.344, 141.968 190.583 C 141.986 189.529, 142.281 188.947, 142.624 189.290 C 142.966 189.633, 142.973 190.628, 142.638 191.500 C 142.140 192.798, 141.618 192.878, 139.765 191.941 C 138.519 191.312, 139.873 193.081, 142.774 195.873 C 145.675 198.665, 148.002 201.298, 147.947 201.725 C 147.891 202.151, 148.649 202.950, 149.631 203.500 C 152.513 205.115, 154 206.755, 154 208.322 C 154 210.174, 156.708 211.281, 157.622 209.802 C 158.023 209.154, 157.856 208.971, 157.224 209.362 C 156.627 209.731, 155.880 209.615, 155.564 209.104 C 155.249 208.593, 155.780 208.301, 156.745 208.455 C 157.710 208.609, 158.438 209.469, 158.361 210.367 C 158.221 212.011, 159.546 212.653, 160.167 211.243 C 160.350 210.826, 162.403 208.996, 164.728 207.176 C 167.053 205.356, 168.853 203.559, 168.728 203.184 C 168.603 202.808, 168.816 202.500, 169.202 202.500 C 170.474 202.500, 177.902 194.717, 177.699 193.597 C 177.590 192.994, 178.026 192.600, 178.670 192.723 C 179.313 192.846, 184.376 188.196, 189.920 182.389 L 200 171.831 199.974 133.166 L 199.947 94.500 176.324 70 C 163.331 56.525, 146.258 38.905, 138.385 30.844 L 124.070 16.187 117.394 23.344 M 96.160 71.910 C 86.072 82.413, 77.399 90.746, 76.885 90.429 C 76.371 90.111, 76.074 90.447, 76.225 91.176 C 76.377 91.909, 75.830 92.351, 75 92.167 C 74.175 91.983, 73.844 92.177, 74.264 92.597 C 74.684 93.018, 73.879 94.560, 72.475 96.026 C 70.226 98.374, 70.104 98.841, 71.450 99.959 C 72.290 100.656, 72.688 101.695, 72.334 102.268 C 71.975 102.849, 72.171 103.012, 72.777 102.638 C 74.017 101.871, 77.193 105.878, 76.384 107.188 C 76.091 107.662, 76.447 107.926, 77.176 107.775 C 77.904 107.624, 78.387 108.063, 78.250 108.750 C 78.112 109.438, 78.562 109.888, 79.250 109.750 C 79.937 109.613, 80.376 110.096, 80.225 110.824 C 80.074 111.553, 80.351 111.901, 80.842 111.598 C 82.022 110.868, 85.220 114.447, 84.252 115.414 C 83.838 115.828, 83.950 116.076, 84.500 115.965 C 86.684 115.524, 87.421 116.087, 86 117.110 C 84.721 118.030, 84.749 118.109, 86.195 117.647 C 87.415 117.257, 91.620 121.016, 101.192 131.052 C 108.508 138.724, 114.833 145, 115.247 145 C 116.149 145, 116.039 59.740, 115.132 55.656 C 114.520 52.905, 113.906 53.431, 96.160 71.910 M 133.597 53.736 C 132.656 54.678, 132.901 145, 133.845 145 C 134.310 145, 135.495 144.111, 136.479 143.024 C 137.462 141.937, 138.727 141.331, 139.288 141.678 C 139.850 142.025, 140.013 141.830, 139.651 141.244 C 139.068 140.301, 149.210 129.125, 171.384 106.279 L 178.393 99.057 170.967 91.279 C 146.394 65.541, 134.122 53.212, 133.597 53.736 M 50.951 94.559 C 50.103 95.581, 50.081 96, 50.878 96 C 51.495 96, 52 95.564, 52 95.031 C 52 94.499, 52.675 94.322, 53.500 94.638 C 54.325 94.955, 55 94.989, 55 94.714 C 55 93.400, 52.008 93.285, 50.951 94.559 M 64 118 C 64 119.100, 64.450 120, 65 120 C 65.550 120, 66 119.100, 66 118 C 66 116.900, 65.550 116, 65 116 C 64.450 116, 64 116.900, 64 118 M 64 123 C 64 124.100, 64.173 125, 64.383 125 C 64.594 125, 65.002 124.100, 65.290 123 C 65.577 121.900, 65.405 121, 64.906 121 C 64.408 121, 64 121.900, 64 123 M 70 123.108 C 70 124.561, 71.789 124.992, 72.300 123.661 C 72.580 122.931, 72.177 122.333, 71.405 122.333 C 70.632 122.333, 70 122.682, 70 123.108 M 91 123.378 C 91 123.585, 91.787 124.373, 92.750 125.128 C 94.336 126.371, 94.371 126.336, 93.128 124.750 C 91.821 123.084, 91 122.555, 91 123.378 M 164.134 140.065 C 155.133 149.366, 147.301 156.686, 146.730 156.333 C 146.158 155.980, 145.969 156.142, 146.310 156.692 C 146.650 157.243, 145.701 159, 144.200 160.597 C 138.363 166.807, 138.395 166.469, 143.159 171.583 C 145.547 174.145, 147.387 176.637, 147.250 177.121 C 147.112 177.604, 147.467 177.888, 148.037 177.750 C 148.608 177.613, 151.306 179.975, 154.034 183 L 158.993 188.500 161.982 185.250 C 163.626 183.463, 165.380 182, 165.879 182 C 166.378 182, 167.056 181.296, 167.386 180.437 C 167.722 179.562, 168.497 179.189, 169.147 179.591 C 169.826 180.011, 170.041 179.875, 169.663 179.264 C 169.308 178.689, 171.930 175.132, 175.489 171.360 L 181.961 164.500 181.980 143.750 C 181.991 132.338, 181.662 123.035, 181.250 123.078 C 180.838 123.121, 173.135 130.765, 164.134 140.065 M 76.402 129.764 C 77.895 131.514, 78.603 131.744, 79.699 130.835 C 80.830 129.897, 80.848 129.523, 79.797 128.870 C 79.073 128.420, 78.347 128.510, 78.153 129.074 C 77.938 129.698, 77.174 129.597, 76.153 128.809 C 75.001 127.921, 75.077 128.211, 76.402 129.764 M 96.570 132.887 C 95.636 134.398, 98.394 136.002, 100.034 134.901 C 101.211 134.111, 101.106 133.974, 99.500 134.208 C 98.321 134.380, 97.603 133.987, 97.750 133.250 C 98.040 131.802, 97.368 131.595, 96.570 132.887 M 102 133.941 C 102 134.459, 102.445 135.157, 102.989 135.493 C 103.555 135.843, 103.723 135.442, 103.382 134.552 C 102.717 132.820, 102 132.503, 102 133.941 M 107.211 140.399 C 107.920 141.169, 108.658 141.649, 108.850 141.466 C 109.443 140.902, 107.940 139, 106.902 139 C 106.362 139, 106.501 139.630, 107.211 140.399 M 110.374 160.250 C 111.023 162.267, 108.465 162.739, 107.662 160.750 C 107.345 159.965, 107.129 159.919, 107.079 160.628 C 107.036 161.248, 107.615 162.266, 108.367 162.890 C 110.282 164.479, 112.331 162.063, 110.848 159.966 C 109.995 158.760, 109.911 158.810, 110.374 160.250 M 110.079 167.583 C 110.127 168.748, 110.364 168.985, 110.683 168.188 C 110.972 167.466, 110.936 166.603, 110.604 166.271 C 110.272 165.939, 110.036 166.529, 110.079 167.583 M 108.303 171.750 C 108.269 173.712, 109.787 176, 111.122 176 C 112.418 176, 112.189 172.589, 110.800 171.200 C 109.128 169.528, 108.339 169.702, 108.303 171.750 M 109.638 173.500 C 109.955 174.325, 110.391 175, 110.607 175 C 110.823 175, 111 174.325, 111 173.500 C 111 172.675, 110.564 172, 110.031 172 C 109.499 172, 109.322 172.675, 109.638 173.500 M 102.872 175.750 C 101.658 177.298, 101.683 177.357, 103.092 176.259 C 103.968 175.576, 105.052 175.351, 105.502 175.759 C 105.952 176.166, 105.997 175.938, 105.601 175.250 C 104.672 173.634, 104.508 173.664, 102.872 175.750 M 114.500 177 C 114.840 177.550, 115.316 178, 115.559 178 C 115.802 178, 116 177.550, 116 177 C 116 176.450, 115.523 176, 114.941 176 C 114.359 176, 114.160 176.450, 114.500 177 M 150.603 182.833 C 150.320 183.292, 150.723 183.667, 151.500 183.667 C 152.277 183.667, 152.680 183.292, 152.397 182.833 C 152.114 182.375, 151.710 182, 151.500 182 C 151.290 182, 150.886 182.375, 150.603 182.833 M 113 184.882 C 113 185.432, 113.450 186.160, 114 186.500 C 114.550 186.840, 115 186.668, 115 186.118 C 115 185.568, 114.550 184.840, 114 184.500 C 113.450 184.160, 113 184.332, 113 184.882 M 116.500 187 C 116.160 187.550, 116.359 188, 116.941 188 C 117.523 188, 118 187.550, 118 187 C 118 186.450, 117.802 186, 117.559 186 C 117.316 186, 116.840 186.450, 116.500 187 M 129.345 192.543 C 129.019 193.392, 128.976 194.310, 129.249 194.583 C 129.523 194.856, 129.986 194.161, 130.279 193.040 C 130.903 190.657, 130.210 190.289, 129.345 192.543 M 118.079 193.583 C 118.127 194.748, 118.364 194.985, 118.683 194.188 C 118.972 193.466, 118.936 192.603, 118.604 192.271 C 118.272 191.939, 118.036 192.529, 118.079 193.583 M 132.252 195.500 C 132.263 197.700, 132.468 198.482, 132.707 197.238 C 132.946 195.994, 132.937 194.194, 132.687 193.238 C 132.437 192.282, 132.241 193.300, 132.252 195.500" stroke="none" fill="#000000" fill-rule="evenodd"/><path fill-opacity=".413" d="M 0 125.004 L 0 250.008 125.250 249.754 L 250.500 249.500 250.754 124.750 L 251.008 0 125.504 0 L 0 0 0 125.004 M 0.485 125.500 C 0.485 194.250, 0.604 222.228, 0.750 187.672 C 0.896 153.117, 0.896 96.867, 0.750 62.672 C 0.604 28.478, 0.485 56.750, 0.485 125.500 M 102.462 38.686 C 90.421 51.234, 73.466 68.842, 64.785 77.816 L 49 94.132 49 133.305 L 49 172.477 53.418 176.488 C 55.848 178.695, 62.486 184.969, 68.168 190.432 C 90.685 212.078, 92.981 214.171, 93.841 213.842 C 94.331 213.654, 99.284 208.192, 104.847 201.705 L 114.961 189.911 115.230 211.705 L 115.500 233.500 124.250 233.789 C 132.769 234.070, 133.002 234.017, 133.067 231.789 C 133.192 227.563, 134.040 190.512, 134.036 189.500 C 134.034 188.950, 139.646 194.350, 146.508 201.500 L 158.984 214.500 179.476 193.500 L 199.969 172.500 199.985 133.427 L 200 94.354 168.913 61.927 C 151.815 44.092, 134.795 26.434, 131.090 22.686 L 124.355 15.872 102.462 38.686 M 92.507 76.077 C 80.960 88.113, 71.421 98.307, 71.308 98.730 C 71.195 99.154, 80.968 109.625, 93.026 122 L 114.949 144.500 114.974 99.250 C 114.988 74.362, 114.662 54.044, 114.250 54.097 C 113.838 54.150, 104.053 64.041, 92.507 76.077 M 134.083 99 L 134.075 144.500 155.934 122 C 172.574 104.872, 177.585 99.142, 176.921 98 C 176.441 97.175, 166.608 86.825, 155.070 75 L 134.092 53.500 134.083 99 M 67 143.156 L 67 163.767 79.049 175.383 C 85.676 181.773, 91.573 187, 92.155 187 C 92.736 187, 94.177 185.767, 95.356 184.259 C 96.535 182.751, 100.353 178.240, 103.841 174.234 L 110.182 166.950 97.164 153.225 C 90.005 145.676, 80.289 135.685, 75.573 131.022 L 67 122.544 67 143.156 M 160.848 144.089 C 149.657 155.688, 140.399 165.700, 140.275 166.339 C 140.151 166.977, 144.317 172, 149.533 177.500 L 159.015 187.500 170.508 175.712 L 182 163.924 182 143.462 C 182 132.208, 181.819 123, 181.598 123 C 181.377 123, 172.039 132.490, 160.848 144.089" stroke="none" fill="#000000" fill-rule="evenodd"/><path fill-opacity=".714" d="M 0 125.004 L 0 250.008 125.250 249.754 L 250.500 249.500 250.754 124.750 L 251.008 0 125.504 0 L 0 0 0 125.004 M 0.485 125.500 C 0.485 194.250, 0.604 222.228, 0.750 187.672 C 0.896 153.117, 0.896 96.867, 0.750 62.672 C 0.604 28.478, 0.485 56.750, 0.485 125.500 M 115.566 24.217 C 111.248 28.773, 97.494 43.075, 85.002 56 C 72.510 68.925, 59.089 82.875, 55.177 87 L 48.065 94.500 48.032 133.324 L 48 172.148 60.750 184.417 C 67.762 191.165, 77.775 200.795, 83 205.817 C 88.225 210.838, 92.950 214.949, 93.500 214.951 C 94.050 214.953, 98.775 209.821, 104 203.546 C 109.225 197.271, 113.838 192.106, 114.250 192.068 C 114.662 192.031, 115 201.450, 115 213 L 115 234 124.500 234 L 134 234 134.049 211.750 L 134.098 189.500 146.299 202.261 C 153.010 209.280, 158.771 215.017, 159.103 215.011 C 159.435 215.005, 168.997 205.345, 180.353 193.545 L 201 172.089 200.984 133.295 L 200.968 94.500 190.234 83.446 C 184.330 77.366, 167.373 59.816, 152.552 44.446 C 137.730 29.076, 125.112 16.373, 124.510 16.217 C 123.908 16.061, 119.883 19.661, 115.566 24.217 M 134.035 98.583 L 134 143.666 146.789 130.583 C 169.242 107.615, 176.500 99.895, 176.500 98.980 C 176.500 98.490, 170.425 91.752, 163 84.007 C 155.575 76.262, 146.028 66.230, 141.785 61.713 L 134.070 53.500 134.035 98.583 M 106.949 61.750 C 103.447 65.463, 94.151 75.128, 86.291 83.230 C 78.431 91.331, 72.001 98.306, 72.003 98.730 C 72.004 99.153, 81.656 109.400, 93.450 121.500 L 114.894 143.500 114.947 99.250 C 114.976 74.912, 114.621 55, 114.159 55 C 113.696 55, 110.452 58.038, 106.949 61.750 M 68 143.791 L 68 163.740 79.586 174.870 C 85.959 180.991, 91.532 186, 91.970 186 C 93.194 186, 108.500 168.274, 108.500 166.856 C 108.500 166.020, 104.077 161.262, 82.297 138.671 L 68 123.843 68 143.791 M 173.231 131.968 C 169.233 136.111, 160.173 145.577, 153.099 153.004 L 140.236 166.507 149.569 176.504 L 158.901 186.500 169.972 175.473 L 181.043 164.446 180.771 144.441 L 180.500 124.436 173.231 131.968" stroke="none" fill="#000000" fill-rule="evenodd"/></svg>