<svg xmlns="http://www.w3.org/2000/svg" width="200" height="200" fill="#000000"><path fill-opacity=".161" fill-rule="evenodd" d="M66.03 56.583c-1.909.828-4.319 2.273-5.357 3.211C58.224 62.009 55 68.355 55 70.96c0 2.018.418 2.04 38.162 2.04h38.162l4.428-2.595c3.311-1.94 5.033-3.895 6.828-7.75 1.32-2.835 2.405-5.717 2.41-6.405.016-2.021-74.256-1.707-78.96.333m-1.573 36.28c-4.369 2.664-8.279 7.67-9.002 11.524-.343 1.831-.474 8.94-.29 15.799.31 11.539.534 12.769 2.996 16.486 5.138 7.755 5.354 7.791 48.589 8.112 21.037.156 38.247-.069 38.244-.5-.019-2.758-2.463-8.688-4.652-11.289-5.284-6.28-6.254-6.468-34.842-6.763-14.3-.147-26.935-.473-28.079-.726-4.639-1.023-5.91-10.108-1.966-14.051L77.909 109h25.302c13.916 0 26.84-.441 28.72-.98 5.703-1.636 10.827-7.51 12.448-14.27l.659-2.75-38.769.004c-35.998.003-38.986.136-41.812 1.859"/><path fill-opacity=".327" fill-rule="evenodd" d="M67.914 55.956c-6.288 1.905-10.975 7.125-12.386 13.794L54.841 73h37.514c24.075 0 38.523-.381 40.33-1.064C138.387 69.782 144 62.645 144 57.55V55l-36.75.086c-20.213.047-37.914.439-39.336.87m-2.412 36.619c-8.377 4.368-10.451 9.203-10.48 24.432-.025 13.247.849 17.196 4.708 21.257 6.012 6.326 5.163 6.207 46.659 6.542l37.889.306-.549-4.094c-.673-5.021-4.462-10.189-9.074-12.377-2.918-1.385-7.35-1.641-28.407-1.641-25.739 0-30.421-.586-32.269-4.039-1.642-3.068-1.116-8.517 1.094-11.326L77.145 109l25.178-.006c14.232-.003 26.794-.454 28.896-1.038C138.031 106.064 144 99.094 144 93.032c0-2.007-.466-2.032-37.75-2.026-32.279.005-38.184.233-40.748 1.569"/><path fill-opacity=".118" fill-rule="evenodd" d="M93.976 58.25c-.013 1.788-1.088 5.838-2.388 9L89.223 73l20.139-.022c17.437-.019 20.674-.27 24.138-1.868 6.244-2.882 10.5-8.628 10.5-14.175 0-1.862-.947-1.935-25-1.935H94zM64.5 93.903c-7.566 4.365-8.901 7.386-9.334 21.123-.412 13.061.646 18.409 4.564 23.065 4.898 5.821 5.596 5.909 46.738 5.909 37.11 0 37.532-.023 37.532-2.04 0-3.659-3.855-9.707-7.719-12.109-3.674-2.285-4.568-2.365-31.621-2.851-27.775-.499-27.845-.505-29.75-2.861-1.231-1.522-1.91-3.92-1.91-6.75 0-5.839 2.501-8.385 8.25-8.399 31.415-.078 50.762-.945 53.577-2.401 4.107-2.123 8.136-7.583 8.852-11.996l.583-3.593-37.381.009-37.381.01z"/><path fill-opacity=".134" fill-rule="evenodd" d="M134.976 59.25c-.013 2.337-.416 5.938-.895 8-1.029 4.434-.597 4.551 3.537.959C141.121 65.166 144 60.131 144 57.05c0-1.763-.63-2.05-4.5-2.05H135zM122.67 93.982c-.854 1.444-4.014 5.19-7.025 8.322L110.173 108h10.512c7.769 0 11.436-.438 14.049-1.678 3.96-1.879 9.266-9.372 9.266-13.085 0-2.351-.082-2.369-9.889-2.126-9.5.234-9.951.347-11.441 2.871M70.5 126.003c-1.65.418-5.801.814-9.225.879-6.139.116-6.213.151-5.314 2.515.501 1.319.752 2.557.558 2.751-.195.195.858 2.153 2.34 4.353 5.074 7.533 4.841 7.496 47.391 7.497L144 144v-2.114c0-3.449-4.165-9.824-7.962-12.185-3.367-2.095-4.89-2.225-31.538-2.708-15.4-.279-28.675-.786-29.5-1.128-.825-.343-2.85-.28-4.5.138"/></svg>