<svg xmlns="http://www.w3.org/2000/svg" width="24" height="24" fill="#000000"><path fill="#828282" d="M2.018 10.947H1.98l-.004.038c-.032.333-.05.668-.05 1.005 0 .348.025.683.05 1.006l.003.04h2.105l-.006-.048a8.174 8.174 0 0 1 0-1.993l.006-.048H2.018Zm14.46-5.563a7.988 7.988 0 0 1 2.915 3.572h-2.142a6.06 6.06 0 0 0-10.492.021l-.036.063H12.102v1.922H6.031l-.005.035a6.102 6.102 0 0 0 0 2.018l.005.035h13.894A7.988 7.988 0 0 1 4.6 14.998l-.01-.026H2.372l.018.055a10.081 10.081 0 0 0 16.735 4.118h.005l.012-.012A10.076 10.076 0 0 0 17.23 3.396a10.079 10.079 0 0 0-14.834 5.59l-.018.054H4.595l.01-.026a7.988 7.988 0 0 1 11.872-3.63Zm.785 9.651.037-.063H6.796v.042l-.037.021a6.06 6.06 0 0 0 10.504 0ZM5.34 2.018a12 12 0 1 1 13.322 19.964A12 12 0 0 1 5.339 2.018Z"/></svg>