<svg xmlns="http://www.w3.org/2000/svg" width="200" height="200" fill="#000000"><path fill-opacity=".298" fill-rule="evenodd" d="M0 100.005V200.01l100.25-.255 100.25-.255.255-99.75L201.01 0H0zm.481.495c0 55 .121 77.647.269 50.326.148-27.32.148-72.32 0-100C.602 23.147.481 45.5.481 100.5m88.688-67.555c-1.354 3.884-4.857 6.813-11.92 9.969-3.185 1.422-7.169 3.576-8.855 4.787-2.859 2.053-3.176 2.089-4.729.535S62 46.712 62 48.663c0 3.32-2.541 4.867-5.659 3.447-3.149-1.435-3.99-.902-1.889 1.2 1.702 1.701 2.07 5.249.638 6.134-.501.31-2.546 3.539-4.545 7.176-6.101 11.098-8.615 19.326-8.747 28.625-.044 3.165-.231 5.755-.414 5.755s-1.059-1.405-1.947-3.121c-1.883-3.642-1.482-6.953 2.123-17.547 1.342-3.942 2.4-7.992 2.351-9-.05-1.008-.676.193-1.393 2.668a162 162 0 0 1-2.911 8.876C38.723 85.282 38 88.109 38 89.157s-.621 2.144-1.38 2.435c-1.124.432-1.018 1.278.57 4.565 1.073 2.22 1.743 4.574 1.491 5.231-.252.658.166 2.05.93 3.095S41 107.901 41 109.757s.496 4.302 1.103 5.436c.829 1.549.797 2.251-.132 2.825-.884.546-.692.936.677 1.37 2.872.912 4.883 6.267 5.956 15.862.571 5.099.441 5.75-1.147 5.75-3.494 0-.612 1.113 4.002 1.545 3.482.327 5.791 1.345 8.989 3.965 2.366 1.94 6.496 4.254 9.177 5.143s5.9 2.546 7.152 3.682l2.278 2.065-2.278 1.338c-2.196 1.29-2.168 1.317.768.765 1.759-.33 4.597.076 6.718.963 2.02.843 4.989 1.534 6.598 1.534 2.964 0 4.76 2.186 3.488 4.245-.388.627-.184.771.496.35.635-.392 1.155-1.537 1.155-2.545 0-1.307.93-1.96 3.25-2.281 1.787-.247 3.7-.574 4.25-.727s2.912-.226 5.25-.16c3.586.099 4.25.44 4.25 2.177 0 2.442 1.986 1.593 2.031-.868.076-4.089 7.663-6.752 13.489-4.736 4.082 1.413 5.613.615 3.562-1.856-1.549-1.867 1.441-4.476 3.16-2.757.637.637 1.837 1.158 2.666 1.158s3.291 1.688 5.471 3.75l3.964 3.75-3.922-5c-2.156-2.75-4.371-5.335-4.921-5.746-1.38-1.029 9.587-10.89 11.579-10.411 4.145.998 9.814-8.229 12.959-21.093.704-2.878 1.576-4.25 2.701-4.25 1.205 0 1.36-.301.564-1.097s-.516-2.691 1.019-6.905l2.115-5.808-2.305-6.528c-1.267-3.591-2.12-7.346-1.895-8.345s-.239-3.134-1.031-4.745c-1.305-2.651-1.271-3.052.368-4.25 1.383-1.011 1.469-1.35.367-1.44-.792-.066-1.797-.059-2.232.013-1.488.248-4.709-1.964-4.709-3.234 0-.698-1.278-3.284-2.839-5.746-3.101-4.89-4.712-12.507-2.809-13.287.631-.258.224-.506-.905-.549s-3.829-1.372-6-2.953-4.998-3.198-6.283-3.594l-2.335-.721 2.335-2.575 2.336-2.575-2.473 1.669c-3.865 2.611-6.815 2.027-11.764-2.33-2.5-2.2-5.531-4-6.737-4-2.96 0-3.764-1.004-2.267-2.833 1.036-1.266.829-1.252-1.259.087-3.067 1.968-14.624 3.534-21.854 2.962-5.305-.419-5.349-.45-4.775-3.32.748-3.742.111-3.716-1.202.049M113.5 38c.34.55 1.379 1.02 2.309 1.044s3.339.632 5.353 1.352c4.283 1.53 4.478-.328.236-2.261-3.101-1.412-8.747-1.509-7.898-.135m-23 3.673c-3.108.686-12.723 4.527-15.5 6.192-3.748 2.248-8 6.35-8 7.718C67 56.997 60.424 63 58.875 63c-2.099 0-9.175 10.762-10.44 15.879-.221.892-1.077 4.321-1.902 7.621-3.126 12.491-1.513 25.558 4.737 38.376 4.11 8.43 15.779 20.35 24.343 24.87 15.124 7.98 32.692 8.874 49.102 2.499 5.967-2.318 19.167-12.478 24.169-18.602 3.927-4.808 9.545-16.14 8.689-17.525-.322-.521-.152-1.098.377-1.283 1.538-.535 3.31-14.601 2.577-20.461-.417-3.343-1.299-5.761-2.348-6.439-1.544-.999-1.538-1.042.071-.542 1.737.54 2.36-.45 1.085-1.725-.366-.366-.786-1.797-.933-3.181-.796-7.466-10.978-22.628-19.636-29.241-11.444-8.741-22.307-12.311-36.91-12.13-5.146.064-10.256.315-11.356.557m-7 6.051C81.254 48.276 77.329 52 78.992 52c.589 0 1.33-.675 1.646-1.5.317-.825 1.315-1.507 2.219-1.515S85.175 48.533 86 48c1.574-1.017.841-1.098-2.5-.276m-8.845 4.733c-.326.849-1.226 1.543-2.001 1.543s-2.027.745-2.782 1.655c-1.276 1.538-1.149 1.539 1.815.007 3.251-1.681 4.891-3.417 4.037-4.272-.262-.262-.743.218-1.069 1.067m71.437 2.863c1.336 1.288 2.829 1.957 3.354 1.504 1.079-.931-2.15-3.742-4.354-3.792-.911-.021-.557.789 1 2.288M137 64.378c0 .207.787.995 1.75 1.75 1.586 1.243 1.621 1.208.378-.378-1.307-1.666-2.128-2.195-2.128-1.372m-83.415 7.534C51.891 73.68 51 75.52 51.292 76.651c.44 1.708.485 1.7.592-.113.064-1.08 1.353-2.952 2.866-4.161s2.492-2.458 2.177-2.777-1.819.722-3.342 2.312M106 74.313c0 .172 1.463 1.635 3.25 3.25l3.25 2.937-2.937-3.25c-2.738-3.029-3.563-3.71-3.563-2.937m61.543 2.618c-.317.512-.118 1.213.441 1.559s1.016-.074 1.016-.931c0-1.757-.6-2.015-1.457-.628M150 80.378c0 .207.787.995 1.75 1.75 1.586 1.243 1.621 1.208.378-.378-1.307-1.666-2.128-2.195-2.128-1.372m-74.443 1.398c-.306.307-.557 1.607-.557 2.891 0 1.628.576 2.333 1.906 2.333 1.428 0 1.773-.513 1.373-2.043-.347-1.324-.094-1.939.718-1.75.689.161 1.421-.157 1.627-.707.392-1.048-4.101-1.69-5.067-.724m8.12-.026c-.243.412-.74 2.141-1.104 3.841-.743 3.468.346 4.849 4.683 5.937 2.14.537 2.744.335 2.744-.92 0-.884.45-1.608 1-1.608s1 .675 1 1.5.498 1.5 1.107 1.5c.624 0 .827.73.465 1.672-.353.92.783 6.545 2.523 12.5L99.259 117h3.79c3.642 0 3.85-.186 5.31-4.75 3.592-11.224 5.743-19.482 5.212-20.012-.314-.314-.571-.045-.571.599 0 .7-1.265 1.069-3.144.917-3.041-.246-3.2-.058-4.817 5.696-1.735 6.169-2.321 6.303-3.501.8-.479-2.236-1.271-3.25-2.536-3.25C96.453 97 94 95.963 94 94.885c0-.496.889-.347 1.975.331 3.56 2.224 4.321-.125 2.453-7.565L96.757 81h-6.32c-3.475 0-6.518.338-6.76.75m24.881 3c-.366 2.063-.879 4.483-1.14 5.378-.328 1.125.291 1.774 2.002 2.101 2.791.534 4.58-.783 4.58-3.37 0-.958.482-2.039 1.072-2.403.75-.464.975 4.034.75 14.987l-.322 15.65 4-.296 4-.297 1-5.833c.551-3.208 1.28-5.553 1.622-5.212.341.341.142-1.17-.442-3.358-.613-2.3-1.509-3.725-2.121-3.378-.582.331-.737.245-.344-.19.393-.436.256-1.745-.305-2.91-.992-2.06-.977-2.065.535-.178 1.492 1.863 1.551 1.823 1.455-1-.055-1.617-.46-4.066-.9-5.441l-.801-2.5-.167 2.5-.167 2.5L121.7 89c-.64-1.375-1.735-3.095-2.432-3.821-1.751-1.826-1.626-1.97 1.232-1.424 1.833.351 2.5.047 2.5-1.138 0-1.274-1.062-1.617-5-1.617-2.75 0-5 .436-5 .969s.629.727 1.399.431c.769-.295 1.693-.061 2.052.52.411.665.016.813-1.063.399-1.29-.495-1.511-.306-.891.761.454.781-.289.407-1.65-.83-1.362-1.237-2.734-2.25-3.05-2.25s-.873 1.688-1.239 3.75M65.5 82.932c-1.1.435-2.523.595-3.163.356s-1.374.386-1.634 1.389c-.428 1.656-.482 1.663-.587.073-.064-.963-.532-1.75-1.04-1.75s-1.07 3.487-1.25 7.75c-.418 9.945.495 25.588 1.299 22.25.537-2.227.618-2.265.739-.348.118 1.866.941 2.245 6.197 2.855 3.334.387 6.302.463 6.596.17.293-.294.235-1.893-.13-3.553-.609-2.775-1.043-3.045-5.345-3.322-4.626-.298-4.686-.347-4.992-4.052-.306-3.689-.253-3.75 3.25-3.75 3.03 0 3.558-.335 3.545-2.25-.024-3.472-1.222-4.619-4.226-4.044-1.506.288-2.454.979-2.108 1.538.345.559.038.819-.683.579-.721-.241-1.382-1.403-1.469-2.584-.087-1.18.252-1.893.753-1.583.501.309.822-.274.714-1.297-.364-3.442.027-5.359 1.093-5.359.582 0 .781.45.441 1-.367.594.799 1 2.868 1 2.874 0 3.748-.527 4.982-3 1.478-2.962 1.463-2.999-1.177-2.93-1.47.039-3.573.427-4.673.862m69.131 1.28c.268.433-1.375.788-3.651.788-3.979 0-4.118.106-3.601 2.75.297 1.513.642 5.9.769 9.75.295 8.986 2.78 14.438 6.602 14.485 1.503.018 1.662-3.173.23-4.605-.694-.694-.134-1.465 1.75-2.409 4.96-2.486 5.261-2.897 4.053-5.547-.607-1.333-1.932-2.424-2.944-2.424-1.365 0-1.839-.752-1.839-2.918 0-1.605-.273-3.63-.607-4.5-.435-1.134-.01-1.582 1.5-1.582 1.578 0 2.107-.625 2.107-2.489 0-2.023-.454-2.451-2.428-2.288-1.335.111-2.209.556-1.941.989M161.5 84c.34.55.816 1 1.059 1s.441-.45.441-1-.477-1-1.059-1-.781.45-.441 1m-89 2c-.34.55-.141 1 .441 1S74 86.55 74 86s-.198-1-.441-1-.719.45-1.059 1m71.5 3.941c0 .518.445 1.216.989 1.552.566.35.734-.051.393-.941-.665-1.732-1.382-2.049-1.382-.611m4.195 3.559c.02 1.65.244 2.204.498 1.231s.237-2.323-.037-3-.481.119-.461 1.769m-66.612-.634c-.431.697-.513 1.537-.183 1.867.895.895 1.871-.421 1.387-1.871-.338-1.016-.574-1.016-1.204.004M85 95c0 1.1.525 2 1.167 2 .641 0 .877.289.524.643-.354.353-1.297.099-2.097-.565-1.179-.979-1.679-.787-2.643 1.014-1.027 1.919-.867 2.467 1.18 4.042 1.303 1.002 1.897 1.832 1.319 1.844s-1.641-.54-2.364-1.228c-1.272-1.21-1.203 1.523.3 11.75.233 1.584 1.189 2.065 4.595 2.314l4.302.315-.631-3.815c-.346-2.098-.635-7.527-.641-12.064C90 93.12 89.964 93 87.5 93c-1.833 0-2.5.533-2.5 2m78.815 5.5c-.204 4.4-.055 8.393.331 8.874.387.481 1.4-1.474 2.253-4.346 1.453-4.891 1.432-5.45-.331-8.874l-1.882-3.654zm-94.277-4.75c.413.963.782 2.537.821 3.5.113 2.835 2.01 1.965 3.87-1.775L75.958 94h-3.586c-3.035 0-3.47.269-2.834 1.75m74.212.333c-2.155 2.36-2.191 2.917-.191 2.917.857 0 1.312.399 1.011.887-.301.487.084 1.411.857 2.052 1.939 1.609 2.97-1.764 1.623-5.307-1.161-3.054-1.032-3.033-3.3-.549m-10.167-.217c-.431.697-.513 1.537-.183 1.867.895.895 1.871-.421 1.387-1.871-.338-1.016-.574-1.016-1.204.004m-57.961 1.959c-.443 1.279-.539 2.592-.213 2.917 1.036 1.037 1.765-.492 1.385-2.906l-.368-2.336zm57.529 2.893c-.556 1.039-.653 2.469-.215 3.178.543.879.969.385 1.342-1.554.669-3.487.218-4.138-1.127-1.624M141.5 103c-.34.55.335 1 1.5 1s1.84-.45 1.5-1-1.015-1-1.5-1-1.16.45-1.5 1m8.929 4.468c-.889 1.357-1.462 2.873-1.273 3.368s1.075-.616 1.968-2.468c1.91-3.963 1.587-4.382-.695-.9m-22.602 3.352c.226 2.024.814 4.185 1.309 4.803.494.618.632 1.968.306 3-.536 1.698-.488 1.714.508.17.804-1.246.791-2.936-.048-6.267-1.423-5.654-2.624-6.641-2.075-1.706m-53.813-.57c.036 3.352 1.367 5.59 3.577 6.012 2.057.393 2.409.072 2.409-2.201 0-1.463-.54-3.201-1.2-3.861-1.576-1.576-4.804-1.543-4.786.05m12.023.75c.029 1.635 2.711 5.619 3.316 4.927.206-.235-.462-1.777-1.484-3.427s-1.847-2.325-1.832-1.5m72.107 14.016c-.578 1.659-1.034 3.296-1.012 3.638.021.342-.359.898-.845 1.234-.486.337-1.905 2.075-3.153 3.862-1.749 2.503-1.932 3.25-.796 3.25 2.111 0 7.662-8.818 7.662-12.171 0-3.636-.542-3.581-1.856.187m-28.003 1.621c-1.201 2.68-1.175 2.757.404 1.211.928-.908 1.505-2.197 1.283-2.863-.222-.667-.981.077-1.687 1.652m13.271.128c-1.417.958-2.495 5.235-1.318 5.235.498 0 .906-.878.906-1.95s.787-2.409 1.75-2.97 1.3-1.026.75-1.034-1.489.315-2.088.719m-12.88 10.494c.24 4.942-.026 5.975-1.876 7.278-1.812 1.277-1.921 1.666-.682 2.439 1.875 1.169 3.656-.741 7.286-7.818 3.389-6.607 3.436-7.389.24-3.941-1.375 1.482-2.5 3.255-2.5 3.939 0 2.619-1.881-.769-2.307-4.156-.243-1.925-.315-.908-.161 2.259m-80.458-1.009c-.055 3.503.304 4.75 1.367 4.75 2.304 0 2.417-1.233.502-5.5l-1.795-4zM60 143.277c0 .191 1.462 1.418 3.25 2.726 2.011 1.472 2.71 1.714 1.832.634-1.331-1.64-5.082-4.12-5.082-3.36M122.5 147c.34.55 1.266 1 2.059 1s1.441-.45 1.441-1-.927-1-2.059-1-1.781.45-1.441 1m-35.687.683c.721.289 1.584.253 1.916-.079s-.258-.568-1.312-.525c-1.165.048-1.402.285-.604.604M83 157c0 .55.477 1 1.059 1s.781-.45.441-1-.816-1-1.059-1-.441.45-.441 1m5.783 3.235c1.687.813 2.586.796 3.45-.068.889-.889.347-1.151-2.283-1.099-3.24.063-3.311.134-1.167 1.167"/><path fill-opacity=".469" fill-rule="evenodd" d="M0 100.005V200.01l100.25-.255 100.25-.255.255-99.75L201.01 0H0zm.481.495c0 55 .121 77.647.269 50.326.148-27.32.148-72.32 0-100C.602 23.147.481 45.5.481 100.5m89.702-70.283c-.651.65-1.183 1.915-1.183 2.809 0 1.957-4.057 5.966-6.064 5.993-.79.01-5.387 1.98-10.216 4.376l-8.78 4.358-1.492-2.127c-1.438-2.048-1.471-2.014-.884.93.889 4.466-1.415 6.105-6.462 4.593-2.109-.632-4.682-1.108-5.718-1.059-1.053.051-.45.504 1.366 1.029 1.787.516 3.25 1.563 3.25 2.326s.486 1.55 1.079 1.748-.419 1.972-2.25 3.942-4.157 5.784-5.168 8.474c-2.14 5.69-3.899 9.493-4.228 9.139-.128-.136.364-3.395 1.092-7.241.727-3.846 1.165-7.151.972-7.344-.411-.411-2.483 6.747-2.491 8.606-.003.698-1.131 4.489-2.506 8.424-1.375 3.936-2.5 7.922-2.5 8.859s-.646 2.239-1.435 2.894c-1.238 1.027-1.169 1.813.5 5.705 2.349 5.481 2.344 5.333.185 5.417-1.447.056-1.381.246.382 1.1 1.587.768 2.26 2.223 2.629 5.682.273 2.558.802 5.378 1.174 6.269.48 1.145.004 1.825-1.628 2.324-2.251.689-2.236.728.608 1.589 3.343 1.013 4.548 2.521 4.57 5.718.008 1.237.412 2.25.896 2.25 1.023 0 3.119 7.692 3.119 11.443 0 2.285-.398 2.559-3.75 2.572-2.062.009-4.402.428-5.198.932-.944.597-.004.722 2.702.359 2.283-.306 4.96-.208 5.948.217.989.426 2.706.689 3.815.585 1.109-.105 4.19 1.291 6.846 3.101 2.657 1.81 7.374 4.641 10.484 6.291 3.109 1.65 5.653 3.675 5.653 4.5s-1.575 2.327-3.5 3.338c-3.724 1.956-2.894 1.923 5.466-.212 2.264-.578 4.415-.64 5.013-.143.576.478 3.292 1.425 6.034 2.105 4.921 1.22 6.825 2.556 5.862 4.114-.271.439-1.366.798-2.434.798-1.188 0-1.935.679-1.926 1.75.009 1.007.328 1.317.75.73.404-.562 1.964-1.56 3.465-2.22 1.732-.761 2.529-1.726 2.178-2.639-.763-1.99 2.689-2.915 6.074-1.628 2.133.811 2.639.761 2.265-.224-.331-.87.746-1.341 3.425-1.499 2.723-.16 4.046.218 4.367 1.25 1.471 4.723 1.81 4.938 2.382 1.515.523-3.13 1.099-3.648 5.955-5.355 4.196-1.475 5.546-1.616 6.149-.639.425.688 1.479.98 2.342.648s1.835-.171 2.16.355c1.05 1.699 2.134 1.016 2.052-1.294-.065-1.845.529-2.308 3.298-2.573 2.637-.252 4.062.328 6.5 2.647 3.633 3.454 8.16 4.683 11.949 3.242 1.47-.559 4.023-.746 5.674-.416 2.556.511 3.005 1.063 3.032 3.725.035 3.473 1.963 6.625 4.051 6.625.781 0 .414-.664-.86-1.557-1.658-1.161-2.223-2.558-2.223-5.5 0-4.448-.116-4.489-11.323-3.99-4.944.22-6.202-.096-8.341-2.097-5.04-4.713-4.938-5.24 2.393-12.322 3.719-3.594 7.607-6.534 8.639-6.534 1.437 0 1.621-.308.786-1.314-.816-.984-.47-2.229 1.376-4.946 1.357-1.996 2.972-6.018 3.588-8.935 1.727-8.174 2.159-8.669 6.822-7.816 2.203.403 3.802.403 3.554.001s-1.868-1.015-3.598-1.361c-2.916-.583-3.1-.86-2.514-3.79.348-1.739 1.262-4.423 2.031-5.964 1.253-2.512 1.144-3.601-1.047-10.5-1.542-4.857-2.094-8.047-1.495-8.646s1.521.106 2.499 1.911c.853 1.573 1.536 2.185 1.52 1.36-.049-2.438-1.394-5.165-2.429-4.926-.529.122-1.79-1.195-2.803-2.926L162.816 78h2.509c1.379 0 2.658.356 2.842.792.183.435 1.087.019 2.008-.926 1.574-1.612 1.513-1.711-1-1.622-4.057.145-8.175-1.292-8.175-2.852 0-.766-.45-1.392-1-1.392s-1-.862-1-1.917c0-1.054-.416-2.066-.925-2.25-.509-.183-1.071-1.008-1.25-1.833s-1.112-2.228-2.075-3.117c-.963-.89-1.75-2.382-1.75-3.316s-.466-2.569-1.035-3.633c-1.334-2.492.592-2.612 4.062-.253l2.473 1.681-1.905-2.181c-1.048-1.2-2.893-2.181-4.1-2.181s-4.095-1.377-6.418-3.059-5.165-3.408-6.317-3.834c-2.091-.774-2.091-.776.247-3.114 1.953-1.953 2.022-2.205.417-1.525-4.823 2.043-7.329 1.737-12.339-1.51-2.761-1.789-4.736-3.713-4.389-4.276.383-.619-.024-.77-1.032-.383-.915.351-2.394.358-3.286.016-1.386-.532-1.276-.898.75-2.512 2.352-1.873 2.338-1.875-1.628-.233-5.366 2.222-7.423 2.557-18.3 2.975-7.479.288-9.41.071-9.862-1.106-.309-.806.003-2.145.693-2.976 1.528-1.841.807-2.901-.848-1.246M92 42.012c-9.352 1.614-23 8.46-23 11.536 0 1.257.392 1.319 2.25.359 1.237-.64 3.04-1.853 4.006-2.696s2.054-1.234 2.419-.869c.364.364 1.374.08 2.244-.633 2.249-1.842 7.695-3.504 14.081-4.295 3.025-.375 6.175-1.022 7-1.438s4.65.068 8.5 1.076 5.819 1.859 4.376 1.89c-1.444.032-4.399-.568-6.568-1.333-2.17-.766-4.589-1.041-5.376-.612-.788.429-3.907 1.092-6.932 1.474-7.289.921-12.769 2.546-14.134 4.191-.611.736-1.956 1.338-2.988 1.338S76 52.441 76 52.98s-1.897 1.947-4.215 3.13c-2.319 1.183-6.173 3.779-8.566 5.77-3.574 2.973-4.261 4.082-3.844 6.203.324 1.646.065 2.584-.714 2.584-2.033 0-6.661 3.466-6.661 4.989 0 .784-.925 2.676-2.056 4.205-2.691 3.641-5.167 15.825-4.557 22.42.266 2.871.543 5.219.616 5.219s.328 1.51.568 3.356c1.11 8.553 9.175 22.972 16.602 29.681 3.68 3.325 4.455 3.618 8.045 3.044 2.804-.448 6.017.024 10.923 1.604 5.789 1.864 7.288 2.028 8.965.981 1.849-1.155 1.924-1.09.918.788-1.374 2.568-1.045 2.589-10.174-.642-6.035-2.135-8.142-2.487-9.98-1.667-2.286 1.02-2.251 1.089 1.892 3.705 14.78 9.33 38.311 10.221 54.417 2.059 2.651-1.343 4.821-2.605 4.821-2.803 0-.95-9.696.819-11.079 2.021-1.858 1.616-3.561 1.765-4.414.384-.336-.543.015-.748.781-.454.765.294 1.917-.099 2.56-.873.942-1.136.394-1.92-2.84-4.06-2.204-1.459-4.008-2.898-4.008-3.197 0-.617 1.315.081 5.154 2.737 3.311 2.29 5.236 2.309 8.994.09 2.268-1.34 2.799-2.214 2.282-3.75-.371-1.102-.785-5.379-.921-9.504-.135-4.125-.305-9.214-.377-11.309-.09-2.597-.499-3.582-1.284-3.097-.833.515-.976-.391-.516-3.271.443-2.765.193-4.57-.816-5.903-1.389-1.837-1.454-1.806-1.484.705-.018 1.444-.313 4.031-.657 5.75-.581 2.905-.921 3.125-4.827 3.125h-4.203l.458-13.5c.327-9.642.135-13.5-.673-13.5-.621 0-1.153 1.237-1.181 2.75s-1.49 7.475-3.25 13.25l-3.199 10.5-4.201.305-4.201.305-2.613-8.805c-1.437-4.843-3.04-10.125-3.561-11.739-.559-1.731-.578-3.165-.047-3.5.496-.311.317-1.108-.398-1.771-2.131-1.978-2.538.857-1.981 13.805l.511 11.9h-8.85l-.715-6.682c-.722-6.741-.051-22.975 1.116-26.987.55-1.889 1.469-2.211 7.136-2.5 7.658-.39 7.159-.981 10.26 12.169 1.232 5.225 2.554 9.835 2.937 10.245.384.41 1.953-4.403 3.488-10.695s3.314-11.631 3.954-11.864c1.311-.476-4.044-6.683-5.772-6.691-.585-.003-2.413-1.126-4.063-2.496l-3-2.492 4.503 2.444c2.476 1.344 6.052 4.042 7.946 5.996 3.004 3.1 4.056 3.553 8.247 3.553 4.65 0 4.804.094 4.804 2.941 0 1.618.392 3.183.87 3.479.479.296 1.08 4.164 1.337 8.596.268 4.621 1.008 8.575 1.735 9.271 1.023.978 1.2-.999.913-10.186-.336-10.776-.246-11.414 1.645-11.68 1.1-.155 3.688-.543 5.75-.863 2.656-.412 3.754-.213 3.765.68.011.873.301.81.943-.204.51-.807.568-1.932.129-2.5-1.655-2.144-1.871-5.403-.395-5.969 2.185-.839 3-.656 1.451.325-1.468.93-.866 4.193 1.173 6.354 2.475 2.625 6.684 9.424 6.692 10.81.004.795.89 4.35 1.97 7.9 1.704 5.605 1.775 6.662.538 8.029-.784.866-1.398 2.461-1.364 3.546.06 1.937-1.583 7.293-3.286 10.707-1.416 2.839-1.002 3.189 1.384 1.169l2.25-1.905-1.868 2.209c-1.027 1.215-2.219 3.69-2.648 5.5-.561 2.37-.808 2.662-.882 1.041-.14-3.091-2.102-2.858-2.102.25 0 1.526-.569 2.5-1.461 2.5-1.992 0-5.539 3.963-5.539 6.189 0 .996-.338 1.811-.75 1.812-.412 0-.816 1.138-.896 2.529-.145 2.509-.121 2.503 3.019-.827 1.742-1.846 3.649-3.196 4.24-2.999 2.556.852 14.385-15.28 12.931-17.634-.293-.473.195-1.14 1.084-1.481 1.171-.449 1.46-1.4 1.049-3.456-.716-3.578.262-7.849 1.383-6.037 1.566 2.535 3.092-13.106 1.829-18.748-.603-2.694-2.754-5.348-4.334-5.348-1.169 0-6.555-7.381-6.555-8.983 0-.442-.675-1.062-1.5-1.379s-1.5-1.293-1.5-2.171-2.588-4.12-5.75-7.205-4.625-4.758-3.25-3.718c4.913 3.716 10 8.884 10 10.159 0 .713.444 1.297.987 1.297s1.692 1.463 2.555 3.25c3.207 6.643 3.925 7.639 5.875 8.149 2.826.739 3.428-.308 1.14-1.981-1.142-.835-1.405-1.418-.64-1.418 4.141 0-6.055-18.006-14.922-26.352C128.652 44.09 110.592 38.803 92 42.012m36.733 12.112c.679.684 1.486.991 1.793.683.308-.308-.247-.867-1.233-1.243-1.425-.542-1.54-.428-.56.56M131 59.5c1.292 1.375 2.574 2.5 2.849 2.5s-.557-1.125-1.849-2.5-2.574-2.5-2.849-2.5.557 1.125 1.849 2.5m-63.11 1.25c1.16 2.212.428 2.975-1.44 1.5-.523-.413.713.825 2.745 2.75s3.893 4.4 4.134 5.5c.392 1.787.451 1.76.555-.25.064-1.237-.7-3.066-1.696-4.062-.997-.997-1.661-2.268-1.476-2.823s-.64-1.878-1.833-2.938c-2.165-1.923-2.167-1.922-.989.323m43.11.981c0 1.168 6.886 4.716 7.657 3.946.271-.272-.553-.814-1.832-1.204s-3.112-1.401-4.075-2.246-1.75-1.069-1.75-.496m48.433.16c.713 1.154 4.567 3.483 4.567 2.759 0-.231-1.18-1.193-2.623-2.139s-2.318-1.224-1.944-.62M79.585 63.93c.965.906 8.275 2.673 7.415 1.791-.275-.281-2.262-.993-4.415-1.581-2.153-.589-3.503-.683-3-.21M124.5 64c2.749 1.181 4.328 1.181 2.5 0-.825-.533-2.175-.945-3-.914-.989.036-.819.347.5.914m-70.345 4.224c-2.312 3.652-1.936 5.335.436 1.949.85-1.214 1.869-2.007 2.263-1.763.395.244.717-.424.717-1.483 0-2.79-1.091-2.375-3.416 1.297m35.011-2.348c-1.064.675-.997.975.332 1.485.916.351 2.416.632 3.334.624 1.442-.014 1.465-.147.168-.985-1.291-.834-1.263-.972.2-.985.935-.008 2.159.772 2.72 1.735.904 1.552 1.023 1.564 1.05.107.047-2.566-4.9-3.822-7.804-1.981M101 67l-3.5.737 3.191.131c1.755.073 3.469-.318 3.809-.868s.479-.941.309-.868-1.884.463-3.809.868m-51.436 9.707c-.542 1.425-.428 1.54.56.56.684-.679.991-1.486.683-1.793-.308-.308-.867.247-1.243 1.233M181.5 78c.34.55.816 1 1.059 1s.441-.45.441-1-.477-1-1.059-1-.781.45-.441 1M41.048 82.883c-1.878 4.534-2.958 10.187-2.283 11.946.345.9 1.349-1.861 2.316-6.371 1.861-8.67 1.852-10.125-.033-5.575m24.186-.897c-3.446.392-6.596 1.043-7 1.446-.881.88-.998 30.125-.124 31.006.585.59 22.02 2.765 22.502 2.283.129-.129-.084-1.807-.474-3.728-.631-3.112-1.087-3.52-4.173-3.742-1.906-.138-5.853-.511-8.772-.83-5.234-.571-5.304-.623-5-3.688l.307-3.109 7.25-.011 7.25-.011V94H61.962l.66-2.75c.362-1.513.709-2.806.769-2.874s3.692-.425 8.071-.795c4.379-.369 8.055-.765 8.169-.878.113-.114.517-1.444.896-2.955.685-2.727.653-2.747-4.169-2.611-2.672.075-7.678.457-11.124.849m60.276.03c.346.559 1.047.758 1.559.441 1.387-.857 1.129-1.457-.628-1.457-.857 0-1.276.457-.931 1.016m16.463 4.413c.887 2.333.787 2.406-2.525 1.869-3.299-.536-3.448-.428-3.448 2.489 0 3.928.897 6.213 2.438 6.213.673 0 1.826 1.125 2.562 2.5s1.782 2.5 2.324 2.5.241-.823-.669-1.829c-2.018-2.23-2.099-3.171-.272-3.171.761 0 1.62-.902 1.908-2.004q.523-2.005 2.116-1.393c.943.362 1.593.092 1.593-.663 0-.7-.296-.977-.658-.615-.757.757-3.342-1.136-3.342-2.447 0-.483.477-.878 1.059-.878s.781.45.441 1-.141 1 .441 1 1.059-.395 1.059-.878c0-1.4-2.607-3.178-3.466-2.363-.43.407-.471-.272-.091-1.509.51-1.66.287-2.25-.851-2.25-1.22 0-1.349.508-.619 2.429m-93.958 4.154c.009 1.055.472 2.592 1.031 3.417.741 1.095.834.691.344-1.5-.823-3.677-1.395-4.475-1.375-1.917m99.446 9.167c.024 1.682-.446 2.653-1.211 2.5-.687-.138-1.25.2-1.25.75s-1.155 1-2.566 1c-4.417 0-6.434 1.725-6.434 5.501 0 2.463-.846 4.296-3 6.499-3.436 3.514-3.647 4.627-1.362 7.153 1.209 1.335 1.353 2.153.552 3.118-.988 1.19-1.39 11.729-.448 11.729 1.156 0 3.296-3.129 2.747-4.017-.351-.568-.267-.949.187-.846 1.703.385 6.324-2.141 6.324-3.457 0-.754.859-2.147 1.909-3.097 2.017-1.826 3.085-4.257 5.091-11.583.678-2.475 1.663-5.686 2.19-7.136.654-1.799.567-3.944-.274-6.75-1.42-4.74-2.513-5.346-2.455-1.364M165.993 97c-.038.275-.303 2.3-.589 4.5l-.519 4 1.55-2.851c1.076-1.977 1.256-3.356.589-4.5-.53-.907-.994-1.424-1.031-1.149m-35.45 15.931a1.086 1.086 0 0 0 .336 1.494c.501.31 1.169-.109 1.485-.931.622-1.62-.881-2.085-1.821-.563m25.992 17.656c-.932 1.422-1.523 2.759-1.312 2.969s1.171-.954 2.136-2.587c2.155-3.648 1.512-3.947-.824-.382m-106.454 6.104c-.044 1.755.338 3.45.85 3.766 1.648 1.019 1.912-.874.554-3.957l-1.323-3zm93.419 9.578c-3.327 3.292-4.164 4.534-2.5 3.714 3.072-1.515 6.864-4.89 8.127-7.233 1.562-2.898-.347-1.704-5.627 3.519m-107.687-3.586c.721.289 1.584.253 1.916-.079s-.258-.568-1.312-.525c-1.165.048-1.402.285-.604.604m-9.408 7.567L24.5 152.5l2.25-1.905c2.114-1.79 2.705-2.595 1.905-2.595-.19 0-1.202 1.012-2.25 2.25M73.5 157c.34.55.816 1 1.059 1s.441-.45.441-1-.477-1-1.059-1-.781.45-.441 1"/><path fill-opacity=".611" fill-rule="evenodd" d="M0 100.005V200.01l100.25-.255 100.25-.255.255-99.75L201.01 0H0zm.481.495c0 55 .121 77.647.269 50.326.148-27.32.148-72.32 0-100C.602 23.147.481 45.5.481 100.5M88 22.701c0 .47.729 1.895 1.62 3.167 1.389 1.983 1.431 2.694.296 4.973C87.455 35.781 84.818 38 81.409 38c-1.783 0-3.392.359-3.576.797-.183.439-3.348 2.443-7.033 4.454l-6.701 3.657-2.004-2.704-2.004-2.704.584 3.742c.884 5.663-.61 6.858-6.6 5.278-2.666-.703-5.385-.947-6.042-.541-.731.452.097 1.024 2.136 1.473 1.832.404 2.769.955 2.081 1.225C50.287 53.446 50.789 55 53 55c2.133 0 2.86 1.974.75 2.038-1.602.049-6.745 7.442-6.765 9.725-.009.956-.452 2.412-.985 3.237-1.949 3.016-1.042-4.447 1.034-8.515l2.035-3.985-2.531 3c-1.391 1.65-2.803 4.575-3.136 6.5-.995 5.743-6.694 23.447-7.784 24.18-.556.374-1.792.262-2.748-.25-3.291-1.761-3.365-.92-.095 1.074 4.678 2.852 7.119 9.923 3.475 10.064-1.48.057-1.431.222.316 1.07 1.465.712 2.49 2.839 3.524 7.312l1.458 6.308-3.524.994-3.524.995 3 .142c3.589.169 5.989 1.51 5.146 2.875-.336.543.723 2.956 2.354 5.362 2.185 3.224 2.968 5.557 2.982 8.874.02 5.057 1.029 4.633-12.447 5.234-5.895.263-5.977.308-7 3.814-.569 1.952-2.249 5.088-3.732 6.97s-2.487 3.632-2.229 3.889c.953.953 6.285-6.519 6.89-9.657.345-1.787 1.169-3.275 1.831-3.305.663-.031 4.512-.213 8.553-.406 7.29-.348 7.378-.321 11.125 3.305 2.077 2.011 4.269 4.556 4.871 5.656.817 1.491 1.103 1.602 1.126.437.016-.86-1.32-2.856-2.97-4.437s-3-3.24-3-3.687c0-2.074 3.46-.421 7.196 3.437 2.263 2.338 3.54 3.463 2.837 2.5-1.52-2.081.191-2.39 1.891-.342.642.774 2.782 2.173 4.754 3.109 2.324 1.103 3.164 1.963 2.386 2.443-.782.484-.138 1.181 1.856 2.007 3.596 1.49 3.298 2.539-.965 3.392-1.698.34-2.817 1.056-2.486 1.591.385.623 1.58.582 3.316-.114 4.589-1.839 9.694-1.988 12.788-.374 1.61.839 3.827 1.535 4.927 1.547 1.658.018 1.744.187.5.991-1.155.747-.822.973 1.45.985 2.928.015 2.629 1.455-.45 2.168-1.157.268-1.361 1.263-.892 4.347.577 3.796.615 3.833.75.725.11-2.539.725-3.496 2.739-4.262 1.428-.543 2.841-1.923 3.141-3.068.56-2.143 3.17-2.253 9.027-.379 1.829.586 2.145.413 1.643-.895-.473-1.233-.012-1.621 1.926-1.621 2.516 0 4.487 1.514 2.817 2.165-.474.184-.026 1.201.994 2.26 1.822 1.89 1.855 1.869 1.855-1.191 0-3.544.751-4.225 5.278-4.786 2.245-.278 2.776-.12 1.751.522-3.29 2.06-.056 1.878 3.758-.211 4.082-2.236 4.132-2.238 7.326-.351l3.216 1.899-1.636-2.335c-1.21-1.728-1.351-2.679-.542-3.654 1.894-2.282 5.414-1.443 9.146 2.182 3.723 3.615 8.644 4.645 12.519 2.62.926-.484 3.147-.658 4.934-.387 2.886.439 3.25.852 3.25 3.689 0 1.758.639 4.069 1.419 5.137 1.297 1.773 1.707 1.821 4.75.556 1.832-.761 6.181-2.399 9.664-3.639 3.484-1.24 5.95-2.492 5.482-2.782-.469-.289-4.602 1.028-9.185 2.929-9.109 3.777-11.191 3.5-10.642-1.418.609-5.451-.632-6.155-9.878-5.599l-8.374.504-3.018-3.661-3.017-3.661 6.976-6.894c7.187-7.102 8.483-7.783 10.745-5.644 1.092 1.032 1.121.857.165-1-.636-1.238-1.661-2.25-2.277-2.25-.669 0-.502-.705.414-1.75 2.511-2.864 4.463-7.393 5.818-13.5l1.276-5.75h3.784c2.777 0 4.199.592 5.341 2.223.856 1.222 1.557 1.705 1.557 1.072 0-1.427-4.803-5.295-6.576-5.295-2.953 0-2.786-1.402 1.29-10.806 1.027-2.37 1.242-5.058.76-9.5-1.83-16.839-1.956-15.252 1.317-16.608 5.367-2.223 6.58-1.976 11.192 2.278 2.466 2.275 3.486 2.991 2.268 1.59l-2.215-2.545 2.232-2.417c1.913-2.073 1.935-2.173.153-.705-2.607 2.148-4.067 2.168-5.24.071-.688-1.228-1.644-1.461-3.8-.926-7.535 1.87-11.072 1.604-13.706-1.03-1.402-1.401-2.814-3.76-3.14-5.241-.325-1.481-1.853-4.043-3.396-5.694-2.777-2.971-4.949-8.467-3.347-8.467 1.393 0 5.208 3.99 5.208 5.446 0 .752 2.363 3.292 5.25 5.643l5.25 4.275-4.644-4.932c-2.554-2.713-4.933-5.901-5.286-7.086-.606-2.027-5.93-5.346-8.577-5.346-.663 0-2.91-1.35-4.993-3s-4.286-3-4.894-3c-1.557 0-1.376-1.044.549-3.171 1.493-1.65 1.499-1.829.059-1.829-.878 0-1.874.45-2.214 1-1.324 2.143-5.209 1.01-11.871-3.462-2.602-1.746-2.696-1.996-1-2.662 1.207-.475.098-.762-3.129-.811l-5-.075 3-2.459c3.713-3.044 3.13-3.137-2.526-.404-3.39 1.638-6.82 2.217-14.918 2.518-13.115.489-13.612.331-11.541-3.674 1.522-2.942 1.483-3.184-.965-6.094C89.147 23.21 88 22.231 88 22.701m3.081 19.84C83.755 44.216 75.66 47.728 72 50.821c-2.416 2.042-2.429 2.114-.372 2.146 1.17.018 2.687-.642 3.372-1.467s1.881-1.5 2.658-1.5 2.435-.67 3.686-1.49c2.467-1.616 11.642-3.808 15.642-3.737 1.367.025 3.24-.359 4.161-.852 2.145-1.148 16.483 2.338 21.295 5.177 1.921 1.134 3.957 1.773 4.525 1.422s1.033.033 1.033.854c0 .82.9 1.777 2 2.126s2 1.054 2 1.567c0 1.416-.895 1.145-4.341-1.317-4.896-3.498-11.895-6.684-14.76-6.719-1.43-.017-3.973-.509-5.651-1.094-2.175-.759-4.584-.744-8.399.049a610 610 0 0 1-10.245 2.026c-2.693.503-5.885 1.843-7.095 2.979-1.446 1.359-2.824 1.825-4.027 1.364-1.431-.549-1.689-.337-1.187.971.425 1.107.134 1.674-.858 1.674-.825 0-1.758.672-2.073 1.494-.316.822-.864 1.328-1.219 1.125s-1.5-.058-2.545.322c-1.761.64-1.677.941 1.134 4.088 2.807 3.141 3.239 3.304 5.731 2.169 2.18-.993 3.634-.949 7.615.233 2.706.804 4.92 1.246 4.92.983s-.641-2.011-1.424-3.885c-1.135-2.717-1.158-3.306-.112-2.904.721.276 1.582 1.857 1.913 3.512.476 2.379 1.075 2.962 2.863 2.785 1.243-.124 3.527.293 5.075.927 4.396 1.798 5.769 1.42 9.309-2.559l3.3-3.71 2.288 2.061c3.404 3.066 5.586 3.515 8.86 1.822 2.174-1.124 3.455-1.252 4.886-.486 2.677 1.433 5 4.969 4.36 6.638-.331.86.142 1.385 1.246 1.385.978 0 2.585.73 3.57 1.621 2.378 2.153 4.866 1.067 4.866-2.123 0-2.398-.756-3.311-8.47-10.231-1.083-.972-6.033-2.978-11-4.458-4.966-1.481-8.233-2.718-7.259-2.75 2.453-.082 17.153 4.263 17.563 5.19.184.416 2.793 2.388 5.797 4.382 3.005 1.994 6.617 5.139 8.027 6.988 1.463 1.917 3.054 3.068 3.703 2.679.627-.375.521.079-.233 1.01-1.178 1.452-1.153 1.692.182 1.692.855 0 1.864 1.013 2.241 2.25.793 2.602 3.346 5.75 4.663 5.75.497 0 .566-.562.153-1.25-.436-.725.02-.623 1.085.242 1.71 1.389 1.785 1.32 1.086-1-1.797-5.969-7.084-15.205-11.609-20.282-7.51-8.427-20.457-16.167-30.429-18.193-6.873-1.397-18.255-1.385-24.419.024M82 52.059c0 .582.45.781 1 .441s1-.816 1-1.059S83.55 51 83 51s-1 .477-1 1.059M67.5 62c.995 1.1 2.035 2 2.31 2s-.315-.9-1.31-2-2.035-2-2.31-2 .315.9 1.31 2m-3.178.713c.724 1.171-2.75 6.526-3.65 5.626-.372-.372-.393 2.037-.046 5.354.35 3.348.221 6.283-.289 6.599-.511.315-.758-.845-.557-2.612.199-1.749-.037-4.244-.524-5.544-.844-2.256-.965-2.284-2.643-.606-1.164 1.164-1.573 2.637-1.212 4.364.528 2.521.509 2.533-.58.356-.62-1.237-1.534-2.25-2.033-2.25s-.61.478-.249 1.063-.008 1.822-.82 2.75c-2.22 2.535-4.357 7.262-5.059 11.187-.548 3.07-.46 3.285.718 1.75 2.011-2.621 2.625-2.147 2.59 2-.028 3.332-.18 3.555-1.36 2-1.842-2.426-2.313-2.212-2.827 1.286-.802 5.466 1.942 19.917 4.908 25.845 2.249 4.496 3.411 5.745 5.811 6.251 2.311.486 2.483.659.75.75-3.573.188-2.692 2.068 4.078 8.706 6.148 6.028 6.454 6.192 10.75 5.74 2.939-.309 6.403.228 10.329 1.603 7.665 2.685 8.251 2.631 10.093-.931.967-1.87 2.332-3 3.625-3 2.966 0 8.969-3.04 8.262-4.184-.328-.53.322-.39 1.445.311 1.943 1.214 1.864 1.341-1.646 2.668-2.027.767-4.908 1.625-6.401 1.908-1.713.324-3.454 1.766-4.716 3.905-2.271 3.848-3.891 4.108-9.569 1.536-5.797-2.625-9.024-3.256-11.665-2.278-2.299.85-2.282.891 1.167 3.006 8.042 4.929 20.086 8.11 30.748 8.122 3.982.005 5.25-.353 5.25-1.481 0-.817 1.607-2.158 3.572-2.979 1.965-.82 3.289-1.95 2.943-2.51q-.633-1.02 1.85-.075c1.841.699 2.79.57 3.68-.503.66-.795.797-1.446.305-1.446-1.24 0-8.559-6.124-7.994-6.689.252-.252 2.359.919 4.682 2.602 4.503 3.262 7.954 3.363 10.962.322.825-.834.938-1.202.25-.817s-1.25.223-1.25-.359.422-1.059.937-1.059.727-1.463.471-3.25a558 558 0 0 1-.792-5.75c-.179-1.375.106-3.747.634-5.271.643-1.856.609-3.194-.103-4.052-.585-.705-.805-2.27-.489-3.479.407-1.553.129-2.198-.946-2.198-1.19 0-1.408-.845-1.001-3.882.286-2.135.032-4.722-.565-5.75-.932-1.605-1.091-1.375-1.129 1.632-.088 6.971-.808 8-5.601 8h-4.351l.63-13.159c.472-9.876.339-12.98-.533-12.441-.639.395-1.162 1.43-1.162 2.301 0 1.83-3.364 13.826-5.623 20.049-1.4 3.858-1.854 4.25-4.925 4.25-2.461 0-3.702-.599-4.559-2.201-1.773-3.311-6.955-21.89-6.37-22.836.28-.454.052-1.107-.507-1.453-.668-.413-1.016 3.84-1.016 12.431V117h-4.369c-4.272 0-4.383-.083-4.989-3.75-.978-5.918-.733-24.382.377-28.378C83.111 80.94 85.247 80 93.086 80c4.262 0 3.664-1.131 7.396 14 .882 3.575 1.863 7.175 2.182 8s2.009-3.9 3.757-10.5c2.9-10.948 3.043-12.164 1.629-13.87-2.208-2.663-11.509-8.466-14.783-9.222-1.522-.352-5.441-1.491-8.708-2.532-3.995-1.273-6.272-1.563-6.95-.885-.555.555-1.752 1.009-2.66 1.009-1.425 0-1.539.701-.84 5.127.446 2.82 1.391 5.879 2.101 6.799.709.92.277.612-.96-.683-1.276-1.335-2.25-3.611-2.25-5.258 0-1.87-.979-3.831-2.75-5.507-2.944-2.786-6.86-5.274-5.928-3.765m41.933 2.803c-2.659 3.003-3.575 3.447-5.949 2.878l-2.806-.672 2.5 1.933c1.375 1.063 3.85 2.784 5.5 3.824s3.778 2.881 4.73 4.089c1.236 1.569 3.301 2.393 7.23 2.884 5.314.664 5.532.812 6.431 4.367.511 2.025 1.204 6.775 1.54 10.557.971 10.926 2.813 11.913 2.098 1.124-.746-11.264-.942-12.74-1.885-14.268-.512-.828-.068-1.232 1.356-1.232 1.165 0 1.843.445 1.507.988-.803 1.3 8.765.052 9.622-1.255.361-.551.889-.379 1.241.404.336.75.337.238.002-1.137-.813-3.338-2.848-5.524-6.963-7.476-2.526-1.199-3.409-2.259-3.409-4.096 0-3.256-4.164-5.017-8.054-3.406-2.462 1.02-6.072.121-10.997-2.736-.303-.176-1.965 1.278-3.694 3.23m38.245-1.151c1.1.849 2.847 2.351 3.881 3.339 1.414 1.349 1.767 1.425 1.42.305-.254-.82-2-2.323-3.881-3.339-2.073-1.121-2.632-1.241-1.42-.305m-78.48 1.159c.696.838 1.471 1.318 1.723 1.067.693-.694-.716-2.591-1.924-2.591-.664 0-.588.574.201 1.524m-1.04 6c-.696.838-1.071 1.718-.835 1.955.237.236.98-.449 1.651-1.524 1.452-2.325.968-2.58-.816-.431m76.208.215c.184.956 1.155 1.896 2.156 2.089 1.56.3 1.661.051.704-1.739-1.354-2.529-3.326-2.771-2.86-.35M63.5 76c.34.55 1.041 1 1.559 1s.941-.45.941-1-.702-1-1.559-1-1.281.45-.941 1m77.845 1.802c.22 1.484.907 2.586 1.527 2.448.621-.138 1.128.2 1.128.75s.873 1 1.941 1 2.249.498 2.625 1.107c.461.745-.011.887-1.441.433-2.635-.837-2.654-.456-.125 2.46 1.1 1.268 2.056 3.137 2.125 4.153s.225 2.185.348 2.597.585 2.731 1.027 5.152 1.564 5.162 2.492 6.09c1.584 1.584 1.544 1.817-.655 3.775-1.979 1.763-2.187 2.497-1.34 4.725 1.216 3.198 1.278 4.49.13 2.678-.586-.924-1.147-.131-1.841 2.6l-.997 3.928 3.502-.277c4.363-.347 5.071-1.464 4.446-7.014-.395-3.498-.183-4.407 1.026-4.407.838 0 1.796-.712 2.13-1.582.977-2.545.698-10.244-.396-10.92-.657-.406-.608-1.357.144-2.761.814-1.522.831-2.246.059-2.504-.598-.199-.845-.995-.548-1.768.345-.9-.691-1.993-2.876-3.035-2.376-1.133-4.004-2.969-5.346-6.029-1.862-4.245-2.826-5.014-7.377-5.891-1.792-.345-2.048-.002-1.708 2.292m1.655-.043c0 .418.91 1.328 2.023 2.023 1.876 1.172 1.931 1.117.759-.759-1.258-2.016-2.782-2.707-2.782-1.264M165.15 81c.575 1.65 1.227 3 1.448 3s.402-1.35.402-3c0-1.952-.506-3-1.448-3-1.175 0-1.251.566-.402 3m-92.071-1.363c-.105 1.515-6.246 2.397-7.829 1.123-.855-.687-1.25-.65-1.25.118C64 81.495 62.65 82 61 82s-3.034.338-3.077.75c-.042.412-.258 1.65-.481 2.75-.931 4.588-.703 27.639.282 28.624 1.035 1.035 21.912 3.626 22.62 2.807.205-.237.169-2.057-.079-4.045l-.452-3.614-8.114-.677c-4.462-.372-8.209-.771-8.325-.888s-.522-1.448-.901-2.959l-.69-2.748H77v-3.5c0-1.925.112-3.801.25-4.168s-3.045-.561-7.073-.431l-7.323.238.323-2.82c.319-2.784.417-2.823 7.823-3.1 7.819-.294 10-1.474 10-5.41C81 81.417 80.213 81 77.583 81c-1.879 0-3.643-.562-3.921-1.25-.324-.802-.532-.843-.583-.113M156 84.893c0 .491.652 1.143 1.449 1.449q1.452.56.893-.893c-.607-1.582-2.342-1.994-2.342-.556m10.004 1.857c.002.412.897 3.675 1.989 7.25l1.985 6.5-.604-5.5c-.333-3.025-1.018-6.287-1.524-7.25-.955-1.816-1.853-2.302-1.846-1m-114.254.912c.688.278 1.813.278 2.5 0 .688-.277.125-.504-1.25-.504s-1.937.227-1.25.504M136 89.375c0 .756.286 2.805.636 4.553.569 2.847.96 3.147 3.75 2.875 2.707-.263 3.155-.728 3.427-3.554.263-2.728-.109-3.411-2.315-4.25-3.625-1.378-5.498-1.25-5.498.376M49 99.6c0 1.65-.532 3.532-1.183 4.183s-.882 1.485-.513 1.854c.368.368 1.381-1.033 2.251-3.115 1.122-2.685 1.271-4.096.513-4.854C49.311 96.911 49 97.472 49 99.6m98 2.541c-.854 1.094-3.202 2.132-5.453 2.41-4.533.56-5.51 1.655-5.532 6.191-.011 2.33-.859 3.995-3.015 5.916-3.001 2.673-4.522 6.85-1.617 4.439 1.069-.887 1.521-.79 1.989.429.349.91.187 1.319-.383.967-1.293-.799-1.261-.515.511 4.507 1.703 4.826 1.897 7 .625 7-.481 0-1.159-1.422-1.507-3.16s-.906-2.886-1.241-2.551c-.334.335-.139 1.955.435 3.601.736 2.112.726 3.097-.035 3.351-.592.197-.889.923-.659 1.613.437 1.311 1.359.572 6.336-5.076 1.612-1.829 2.59-2.321 2.982-1.5.321.672.354-.295.074-2.15-.433-2.871-.292-3.192.951-2.16 1.201.996 1.821.619 3.496-2.129 1.119-1.836 2.037-4.55 2.039-6.03s.493-2.993 1.091-3.363c.598-.369.873-1.492.611-2.494s.161-2.734.942-3.848c.86-1.228 1.166-3.027.778-4.574-.849-3.385-1.617-3.697-3.418-1.389M53.158 111c0 1.375.227 1.938.504 1.25.278-.687.278-1.812 0-2.5-.277-.687-.504-.125-.504 1.25m98.842-.5c0 .825.436 1.5.969 1.5s.709-.675.393-1.5c-.317-.825-.753-1.5-.969-1.5s-.393.675-.393 1.5m-18.267 7.624c.679.684 1.486.991 1.793.683.308-.308-.247-.867-1.233-1.243-1.425-.542-1.54-.428-.56.56m18.306 4.683c-2.979.469-5.18 3.057-4.629 5.444.222.964-.005 1.5-.503 1.191-.499-.308-.907.566-.907 1.942 0 1.412-.919 3.146-2.11 3.98-1.16.813-1.9 2.076-1.643 2.807.312.889 1.672.064 4.108-2.491 3.503-3.673 9.284-12.509 8.516-13.015-.204-.135-1.478-.07-2.832.142m-90.009 1.788c-.032 1.149 3.145 4.405 4.299 4.405.369 0 .671-.45.671-1s-.653-1-1.45-1c-.798 0-1.909-.787-2.47-1.75s-1.033-1.257-1.05-.655m-2.466 1.698c.376.986.935 1.541 1.243 1.233s.001-1.114-.683-1.793c-.988-.98-1.102-.865-.56.56m9.102 2.439c-.322.52 1.163 1.928 3.298 3.128 2.136 1.2 4.059 2.708 4.273 3.351s2.386 1.257 4.826 1.365c3.115.138 3.841-.047 2.437-.619-1.1-.449-2.768-.848-3.706-.887-1.816-.075-8.814-4.485-9.897-6.237-.393-.635-.877-.675-1.231-.101m75.084-.155c-.412.416-.736 1.919-.72 3.34.027 2.266.158 2.364 1.068.802 1.138-1.957.853-5.354-.348-4.142m-6.177 7.951c-.911 1.391-1.41 2.927-1.108 3.415.301.487-.018 1.088-.709 1.335s-.943.785-.561 1.196c.881.949 5.418-3.885 6.102-6.502.746-2.852-1.733-2.481-3.724.556m-40.572-.278c-.001.412 1.124.75 2.499.75s2.5-.402 2.5-.894-1.125-.83-2.499-.75-2.5.482-2.5.894M50 137.941c0 1.132.45 2.059 1 2.059s1-.648 1-1.441-.45-1.719-1-2.059-1 .309-1 1.441m43.014-.527c.648.648 1.324.648 1.972 0 .647-.647.309-.985-.986-.985s-1.633.338-.986.985m17.799 1.269c.721.289 1.584.253 1.916-.079s-.258-.568-1.312-.525c-1.165.048-1.402.285-.604.604m-38.092 1.959c-.291.472.89.868 2.624.881 1.735.013 4.28.401 5.655.862 1.751.588 2.2.522 1.5-.221-1.324-1.406-9.103-2.616-9.779-1.522M58.5 147c.34.55.816 1 1.059 1s.441-.45.441-1-.477-1-1.059-1-.781.45-.441 1m44.027 2.043c.325.527 1.989.957 3.699.957 3.842 0 3.1-.978-1.151-1.516-1.836-.232-2.894 0-2.548.559m19.633.557c-1.256.881-3.157 1.373-4.222 1.094s-1.938-.198-1.938.18-1.35 1.197-3 1.82c-5.413 2.043-3.352 3.211 3.036 1.72 4.92-1.147 11.964-4.74 11.964-6.102 0-.942-3.876-.087-5.84 1.288m-23.891 1.093c.973.254 2.323.237 3-.037s-.119-.481-1.769-.461-2.204.244-1.231.498m-75.009 9.206c.854 2.277 1.348 2.771 1.586 1.586.19-.947-.368-2.435-1.24-3.308-1.449-1.449-1.479-1.299-.346 1.722m162.819 7.684c.048 1.165.285 1.402.604.605.289-.722.253-1.585-.079-1.917s-.568.258-.525 1.312"/><path fill-opacity=".973" fill-rule="evenodd" d="M0 100.005V200.01l100.25-.255 100.25-.255.255-99.75L201.01 0H0zm.481.495c0 55 .121 77.647.269 50.326.148-27.32.148-72.32 0-100C.602 23.147.481 45.5.481 100.5M80 15.711c0 .574.787 1.662 1.75 2.417 1.619 1.269 1.64 1.222.283-.628-.807-1.1-1.594-2.187-1.75-2.417s-.283.054-.283.628m4.395 4.459c-.486.787-.178.961.941.531 1.039-.399 1.664-.138 1.664.696 0 .733.892 2.467 1.981 3.852 1.884 2.395 1.9 2.684.329 5.885-2.046 4.166-2.611 4.543-8.773 5.869-2.729.587-5.204 1.409-5.5 1.827-.943 1.333-8.269 5.272-8.806 4.734-.285-.284.222-.801 1.126-1.147.904-.347 1.614-1.595 1.58-2.774l-.064-2.143-.853 2.111c-.469 1.161-1.565 2.384-2.436 2.719s-1.604 1.409-1.628 2.389c-.027 1.077-.846.261-2.072-2.063-2.404-4.557-3.238-4.376-1.867.404 1.255 4.374 1.249 6.222-.017 5.44-.55-.34-1 .084-1 .941 0 1.873-.832 1.886-8.169.132-7.179-1.716-7.537-1.958-8.349-5.656-.37-1.683-.899-2.833-1.177-2.556-.277.278.004 2.044.624 3.925C43.002 48.535 46.262 51 49.488 51c2.782 0 2.511 1.997-.774 5.71-3.678 4.155-4.94 6.998-6.79 15.29-.675 3.025-2.059 7.45-3.076 9.833s-1.855 5.533-1.863 7c-.012 2.089-.226 2.342-.985 1.167q-.969-1.5-.985-.25c-.023 1.929-1.826 1.496-5.53-1.329-2.661-2.03-3.764-2.355-5.183-1.53-1.626.946-1.572 1.051.554 1.079 2.132.027 5.364 2.057 10.486 6.586 1.072.948 1.634 2.427 1.344 3.538-.304 1.16-.093 1.657.537 1.268.582-.36.836-.031.578.749-.252.764-1.442 1.534-2.644 1.71-2.504.369-1.924 2.179.698 2.179 1.244 0 1.804.922 1.974 3.25.355 4.862.705 6.618 1.475 7.388 1.454 1.453.591 2.362-2.245 2.362-1.618 0-3.219.45-3.559 1-.355.574.579 1.013 2.191 1.031 2.967.034 6.943 4.134 5.801 5.982-.708 1.146 3.437 8.987 4.751 8.987.481 0 .554-.52.162-1.155-.443-.715-.275-.883.44-.44.635.392 1.155 2.202 1.155 4.022 0 3.114-.251 3.352-4.25 4.027-2.337.394-6.553.656-9.369.581l-5.118-.135-1.092 4.3c-.6 2.365-2.479 5.812-4.175 7.659-2.935 3.198-3.007 3.475-1.507 5.765 1.391 2.122 1.411 2.903.167 6.641-1.074 3.227-2.272 4.653-5.033 5.993-2.668 1.295-3.587 2.349-3.487 4 .132 2.163.151 2.167.553.123.259-1.318 1.812-2.674 4.113-3.59 3.066-1.219 3.99-2.305 5.403-6.351 1.553-4.443 1.565-5.037.133-6.619-1.444-1.595-1.329-2.048 1.4-5.529 1.634-2.086 3.412-5.142 3.951-6.792 1.047-3.203.56-3.066 13.399-3.754 4.238-.227 4.905.084 8.75 4.086 2.289 2.382 4.162 4.92 4.162 5.639s.896 2.37 1.992 3.668c1.899 2.252 1.892 2.114-.17-2.977-1.189-2.936-3.211-6.026-4.492-6.865s-2.33-1.911-2.33-2.38c0-1.816 3.981.784 7.653 4.999 2.386 2.739 6.125 5.46 9.847 7.167 3.575 1.64 5.394 2.945 4.5 3.229-.825.262-3.075.928-5 1.48-2.511.72-2.873 1.033-1.281 1.106 1.283.059 2.056.629 1.833 1.352-1.246 4.044-1.475 6.75-.571 6.75.56 0 .933-.338.829-.75s.152-2.198.572-3.968c.624-2.633 1.372-3.333 4.112-3.847 1.842-.345 4.847-.274 6.678.159s3.713.685 4.183.561c1.615-.426 3.526 1.992 2.898 3.668-.526 1.407-.378 1.474.921.42 1.516-1.231 1.683.46.916 9.291-.05.569-1.44 1.832-3.09 2.807-2.854 1.686-4.13 4.659-2 4.659.55 0 1-.479 1-1.065 0-.585 1.35-2.2 3-3.588 2.088-1.757 3-3.424 3-5.482 0-2.239.728-3.372 2.994-4.662 1.646-.936 2.996-2.265 3-2.953.008-1.55 1.579-1.563 9.641-.077 5.661 1.043 6.365 1.43 6.365 3.5 0 1.28.45 2.327 1 2.327s1-1.35 1-3c0-1.718.534-3.012 1.25-3.028.688-.015 4.101-1.305 7.585-2.866 5.255-2.353 6.74-2.647 8.707-1.722 1.324.623 2.545 2.22 2.765 3.616.342 2.176.413 2.105.543-.55.083-1.677-.371-3.571-1.008-4.208-.876-.876-.847-1.531.123-2.7 2.014-2.427 4.365-1.832 8.089 2.05l3.446 3.592 8.75-.667 8.75-.667v3.92c0 4.483 3.027 8.246 5.231 6.503 2.293-1.813 14.801-6.371 15.796-5.756.545.337.863 4.544.723 9.572-.197 7.08.066 9.171 1.25 9.925 2.308 1.47 3.733 1.099 1.7-.442-1.502-1.14-1.762-2.662-1.576-9.218.24-8.412-.542-12.361-2.441-12.342-.651.007-4.74 1.565-9.088 3.463s-8.285 3.216-8.75 2.929-.845-2.24-.845-4.341c0-5.57-1.491-6.332-10.801-5.52l-7.919.691-2.64-3.461c-2.817-3.694-3.356-5.773-1.495-5.773.63 0 3.747-2.734 6.926-6.075 5.237-5.503 5.987-5.964 7.971-4.903 1.767.946 2.096.912 1.704-.175-.267-.741.232-2.247 1.108-3.347.983-1.234 1.048-1.521.169-.75-3.448 3.028-3.908 1.083-1.011-4.273 1.643-3.037 2.988-6.187 2.988-7s.408-1.477.906-1.477.653-.97.343-2.156c-.358-1.369-.179-1.919.489-1.506.579.358 1.299.007 1.601-.779s.011-1.648-.645-1.915c-.657-.268.249-.522 2.013-.565 2.517-.062 3.809.675 6 3.421 2.714 3.4 5.293 4.59 5.293 2.441 0-.582-.45-.781-.999-.441-.55.339-1.946-.987-3.103-2.948-1.257-2.131-3.168-3.819-4.751-4.197-1.456-.347-2.957-.804-3.337-1.015-.648-.36.976-5.218 3.323-9.939 1.001-2.014.726-10.376-.675-20.522-.625-4.521-.569-4.645 2.601-5.75 4.977-1.735 7.612-1.363 9.768 1.378 1.822 2.317 6.667 5.472 8.423 5.487.412.003.75-.444.75-.994s-1.07-1-2.378-1c-1.307 0-2.969-.713-3.692-1.584-1.9-2.29.022-4.798 4.174-5.447l3.396-.53-2.878-.771c-2.275-.609-3.291-.327-4.849 1.346-1.857 1.992-2.081 2.018-3.833.432-1.818-1.646-4.296-1.631-9.614.057-1.836.583-2.241.247-2.6-2.156L168.3 70.5l-.15 2.75c-.083 1.513-.488 2.736-.9 2.718-1.074-.045-4.801-2.965-4.489-3.516.754-1.33-4.291-10.042-7.511-12.97-2.181-1.983-3.026-4.498-1.5-4.467 1.444.03 2.766 1.515 4.657 5.235 1.05 2.063 2.239 3.75 2.645 3.75.405 0 2.196 1.363 3.979 3.029 5.432 5.074 4.627 2.359-.883-2.979-2.831-2.744-5.148-5.684-5.148-6.534 0-1.585-5.511-5.506-7.748-5.512C149.923 52 140 45.182 140 44.273c0-.297 1.108-1.493 2.463-2.657l2.463-2.116h-3.368c-1.852 0-3.156.341-2.899.757s-.281 1.045-1.197 1.396c-.915.351-1.964.152-2.332-.442s-1.784-1.244-3.149-1.444-3.831-1.153-5.481-2.117l-3-1.754 2.689.556c1.479.305 2.934.158 3.233-.327.719-1.161-4.016-2.045-8.422-1.571l-3.5.376 2.75-1.497c1.513-.823 2.75-1.86 2.75-2.304 0-.445 1.125-1.321 2.5-1.947 2.799-1.275 3.286-4.285 1-6.182-1.726-1.433-2.059.041-.387 1.713 1.646 1.646.655 2.598-6.455 6.207-5.065 2.571-6.849 3.048-8.364 2.237-2.468-1.32-18.535-.326-19.529 1.208-.465.719-.74.488-.75-.629-.008-.97.531-2.638 1.199-3.707 1.014-1.624.87-2.321-.875-4.237-1.149-1.26-2.611-3.304-3.249-4.542-1.281-2.485-2.59-2.867-3.695-1.08M91 43.5c-1.038 1.251-.902 1.5.819 1.5 1.134 0 2.322-.42 2.64-.933 1.108-1.793 22.46.274 23.776 2.301.516.796.739.805.75.031.029-2.139 7.271.951 8.932 3.811 1.236 2.129 2.274 2.684 4.833 2.588 1.792-.067 3.557.176 3.921.54s-.313.662-1.504.662-2.167.378-2.167.839c0 .984 4.779 3.478 7.114 3.713 2.284.229 3.886 1.366 3.886 2.757 0 .655 1.621 2.484 3.601 4.064 3.138 2.504 3.451 2.593 2.433.69-1.863-3.481-13.177-14.061-15.718-14.699-1.274-.319-2.316-.921-2.316-1.336 0-1.083-10.693-5.725-16-6.945-7.213-1.658-23.503-1.386-25 .417m11.5 2.5c.34.55-.084 1.056-.941 1.125-3.56.285-4.045.533-3.754 1.92.495 2.364 3.51 4.115 6.195 3.599 1.375-.264 5.875-.032 10 .517s8.513 1.01 9.75 1.024 2.25.429 2.25.921.961.894 2.135.894c2.021 0 1.995-.11-.49-2.065-1.471-1.157-3.18-1.746-3.885-1.34-.693.399-.94.371-.549-.062.984-1.09-5.518-4.258-10.037-4.89-2.048-.287-4.979-.999-6.514-1.582-3.499-1.33-4.958-1.352-4.16-.061M86 49c-.825.533-1.05.969-.5.969s1.675-.436 2.5-.969 1.05-.969.5-.969-1.675.436-2.5.969m38 0c0 .55.477 1 1.059 1s.781-.45.441-1-.816-1-1.059-1-.441.45-.441 1m-33.5.818c-1.1.233-2.755.95-3.678 1.596-1.557 1.089-1.561 1.415-.055 4.525 1.553 3.205 1.666 3.258 2.581 1.207 1.023-2.294 1.984-2.507 5.152-1.146 1.78.765 1.702.867-.715.93-4.635.12-6.273 6.457-1.757 6.797 1.685.127 1.816-.149.893-1.875-.596-1.113-.827-2.279-.515-2.591s1.255 1.076 2.094 3.085c1.417 3.391 1.832 3.654 5.763 3.651 3.592-.002 4.541-.458 6.237-2.997 2.076-3.108 3.893-3.791 5.061-1.901.374.604 2.085 1.69 3.803 2.412 2.659 1.118 3.512 1.084 5.73-.225 2.251-1.33 3-1.352 5.505-.163 1.751.831 3.257 2.567 3.798 4.377.582 1.945 2.088 3.576 4.283 4.639 3.293 1.595 3.367 1.585 2.745-.375q-.637-2.01.468-1.33c.629.388 1.107.01 1.107-.875 0-.857-.42-1.559-.933-1.559s-1.22-.908-1.572-2.017-2.451-2.94-4.665-4.07c-2.213-1.129-3.735-2.342-3.382-2.695 1.366-1.366-14.003-4.796-20.789-4.64-5.844.134-7.197-.172-9.279-2.101-2.736-2.536-4.938-3.279-7.88-2.659m-14.874 7.503C72.156 60.499 70.964 63 72.918 63c.505 0 1.743.267 2.75.594 1.399.454 1.505.362.45-.39-1.104-.787-.928-1.129.875-1.702 1.241-.394 2.538-.321 2.882.161.712 1 5.736 3.337 7.172 3.337.524 0 .953-.92.953-2.045 0-1.812-.417-1.967-3.645-1.362-2.61.49-3.444.361-2.941-.455.387-.626 1.577-1.138 2.645-1.138 2.358 0 2.393-.381.326-3.535-2.177-3.323-4.438-3.102-8.759.856m-26.662 1.843c-1.145 2.233-1.118 2.26.61.61.994-.95 1.533-2.001 1.197-2.336s-1.148.442-1.807 1.726m83.298-1.472c.969.253 1.535.828 1.256 1.279s.166 1.077.988 1.393c.875.336 1.494.009 1.494-.788 0-1.394-2.243-2.667-4.332-2.46-.642.064-.375.323.594.576M137 60.36c0 .272 1.379 1.182 3.065 2.022 2.826 1.411 3.039 1.397 2.741-.176-.282-1.488-5.806-3.244-5.806-1.846m-90.541 2.707c-.363.586-.445 1.281-.183 1.543s.743-.218 1.069-1.067c.676-1.762.1-2.072-.886-.476m63.928-.317c.481.822.065 1.25-1.213 1.25-1.069 0-2.681 1.125-3.582 2.5s-2.554 2.5-3.674 2.5c-1.125 0-1.755.455-1.408 1.016.346.559 1.047.758 1.559.441.512-.316.931-.171.931.323 0 .965 5.006 3.684 6.25 3.395.412-.096.75.43.75 1.17 0 2.645 3.567 4.655 8.261 4.655 3.726 0 4.725.382 5.239 2 .349 1.1 1.04 2 1.536 2s.629-.71.295-1.579c-.516-1.346.263-1.538 5.282-1.302 5.462.257 5.911.112 6.217-2.004.391-2.699-2.192-5.879-5.125-6.309-1.407-.206-2.363-1.378-2.935-3.596-1.06-4.114-4.893-5.938-7.962-3.788-2.211 1.549-5.409.73-9.23-2.365-1.057-.857-1.593-.994-1.191-.307m-34.637 2.9c-1.735.492-2.486 2.35-.951 2.35.44 0 .618 1.557.396 3.459-.418 3.575 2.692 9.039 5.146 9.043.7.001 1.07 1.385.935 3.5-.237 3.714.156 3.278 1.166-1.295.614-2.776.662-2.792 7.777-2.5l7.16.293 1.719 6.825c.946 3.755 1.895 7.001 2.109 7.215.776.777 5.794-4.665 5.837-6.33.024-.941.637-3.372 1.363-5.404 1.253-3.511 1.186-3.821-1.349-6.25C105.591 75.15 104.035 74 103.6 74s-2.158-.974-3.829-2.163c-4.96-3.532-19.859-7.37-24.021-6.187m33.793.281c-.317.512-.193 1.167.274 1.456s.85-.13.85-.931c0-1.686-.316-1.833-1.124-.525m-64.464 1.652c.048 1.165.285 1.402.604.605.289-.722.253-1.585-.079-1.917s-.568.258-.525 1.312m24.518-.851c.157.266-.814 1.667-2.156 3.115-3.01 3.246-3.062 4.398-.256 5.666 1.202.543 2.4 1.654 2.661 2.469.36 1.123.055 1.062-1.257-.25C66.303 75.446 66 75.536 66 78.5c0 2.176.44 2.5 3.4 2.5h3.4l-.189-6.003c-.125-3.983-.712-6.465-1.744-7.375-.855-.755-1.426-1.155-1.27-.89m-7.608 3.289C60.91 72.037 61.38 74 62.942 74c.454 0 1.103-.787 1.442-1.75.34-.963.879-2.312 1.2-3 .99-2.124-2.439-1.389-3.595.771M148 69.035c0 .466.481 1.144 1.068 1.507s.858 1.21.6 1.881.387 1.755 1.432 2.407 1.9 1.842 1.9 2.643.9 1.938 2 2.527c2.484 1.33 2.483.99-.022-4.815-1.193-2.764-3.038-5.159-4.5-5.841-1.363-.636-2.478-.775-2.478-.309m-91.595 5.352c-.341.887-.337 2.348.008 3.247.345.898-.3 3.205-1.434 5.126-2.975 5.042-1.662 5.165 1.947.183 3.401-4.695 3.824-7.076 1.586-8.933-1.205-1-1.606-.929-2.107.377m4.845 4.151c-.955 3.11-.869 3.462.844 3.462C63.537 82 64 81.285 64 79.059c0-4.257-1.515-4.545-2.75-.521m-7.863-1.288c.303.963.158 1.75-.321 1.75C52.374 79 50 84.148 50 85.649c0 1.321 1.845-.206 3.689-3.054 1.982-3.061 2.045-3.556.668-5.238-1.361-1.662-1.462-1.673-.97-.107m92.701 1.032c.873.67 1.85 1.893 2.171 2.718.507 1.303.593 1.297.662-.05.09-1.764-1.805-3.966-3.371-3.918-.578.017-.336.58.538 1.25M74 79.417c0 .87.713 1.583 1.583 1.583.871 0 1.406-.534 1.188-1.187-.618-1.855-2.771-2.162-2.771-.396m91.745-.167c-.257.688-.112 2.15.323 3.25.645 1.629.804 1.397.862-1.25.073-3.38-.38-4.145-1.185-2M25.446 81.087c-.369.598-.267 1.492.227 1.986.531.531.898.087.898-1.087 0-2.273-.185-2.42-1.125-.899M125.57 93c.358 4.675 1.07 9.175 1.581 10 .589.95.692-1.618.279-7-.358-4.675-1.07-9.175-1.581-10-.589-.95-.692 1.618-.279 7m23.823-6.418c.334.87.607 1.995.607 2.5s.702.918 1.559.918 1.297.424.977.942.631.849 2.113.735c4.026-.31 3.807-1.907-.605-4.427-4.67-2.667-5.462-2.781-4.651-.668M18.75 87.662c.688.278 1.813.278 2.5 0 .688-.277.125-.504-1.25-.504s-1.937.227-1.25.504m29.25.221c0 .486.9 1.119 2 1.407 1.906.498 2.979 4.71 1.201 4.71-.44 0-.624 1.501-.41 3.335.246 2.107-.381 4.772-1.701 7.236-1.149 2.144-2.09 4.678-2.09 5.629 0 2.835 3.021 11.065 5.339 14.543 2.542 3.815 6.661 4.555 6.661 1.198 0-1.357.426-1.818 1.25-1.353.688.388.237-.278-1-1.48-2.57-2.497-2.897-4.108-.833-4.108.779 0 1.566-.422 1.75-.939s1.908.427 3.833 2.096l3.5 3.033-3.327-2.218c-3.138-2.092-5.988-1.733-4.381.552 1.833 2.609 7.642 6.523 8.941 6.025.888-.341 1.646.185 1.952 1.353.32 1.226 1.738 2.142 3.96 2.559 1.903.357 3.709 1.297 4.012 2.088.304.792.975 1.178 1.492.859.516-.319 1.592-.038 2.39.624 1.146.952 1.962.87 3.881-.388 1.713-1.122 2.545-1.249 2.818-.429.444 1.33 7.239 1.505 16.468.423 5.19-.608 6.898-.393 10.438 1.317 2.327 1.125 5.696 2.045 7.485 2.045s3.462.338 3.717.75c.593.96-8.515.288-9.846-.727-1.983-1.511-8.23-3.064-9.842-2.445-2.513.964-.93 2.422 2.632 2.422 1.744 0 5.53.978 8.414 2.173 4.324 1.792 5.684 1.971 7.769 1.021 3.23-1.471 3.397-6.075.425-11.709-1.157-2.192-1.517-3.422-.8-2.735s1.61 1.25 1.985 1.25c1.103 0 1.815-3.945.823-4.558-.498-.308-.906-1.883-.906-3.501s-.455-2.941-1.012-2.941c-.62 0-.764-1.547-.372-4 .429-2.68.268-4-.488-4-.624 0-1.128 1.575-1.128 3.525 0 3.755-1.506 4.897-7.423 5.629l-2.8.346.079-13 .078-13-1.997 7.334c-1.099 4.034-2.799 9.659-3.778 12.5-1.72 4.991-1.918 5.176-5.87 5.469l-4.09.302-2.557-7.802c-1.407-4.292-3.229-10.278-4.048-13.303l-1.491-5.5.121 13c.119 12.799.085 13.005-2.153 13.333-3.528.516-6.878-.657-7.382-2.584-.404-1.546-.47-1.529-.573.148-.109 1.782-.758 1.856-10.617 1.219-5.775-.374-11.175-.938-12-1.255-.896-.344-1.499-1.851-1.499-3.75 0-1.746-.65-5.636-1.445-8.643-1.261-4.769-1.261-5.61 0-6.578.839-.645 1.445-2.807 1.445-5.157 0-3.553-.243-3.982-2-3.523-1.1.288-2 .991-2 1.562s-.823.293-1.829-.617C49.144 86.82 48 86.542 48 87.883m17.25.823c-3.047.587-3.238 5.294-.215 5.294C67.697 94 72 91.149 72 89.385c0-1.365-2.096-1.576-6.75-.679m9.66 1.126c.54 1.008 1.671 2.405 2.514 3.105 1.122.931 1.271 1.764.555 3.102-.538 1.006-.979 2.759-.979 3.895 0 1.891-.592 2.066-7 2.066h-7v3c0 2.933.111 3 5 3 4.667 0 5-.167 5-2.5 0-1.375.45-2.5 1-2.5s1 .498 1 1.106 1.095 1.967 2.433 3.02 2.661 2.917 2.94 4.144c.279 1.226.287-1.145.017-5.27s-.741-8.344-1.047-9.375c-.362-1.216-.168-1.635.55-1.191.74.457 1.107-.662 1.107-3.375 0-3.98-.069-4.059-3.535-4.059-3.118 0-3.419.217-2.555 1.832m61.477.486c.322 1.2.592 3.195.599 4.432.019 3.016 2.638 2.884 3.405-.171.807-3.214-.081-5.265-2.559-5.913-1.689-.441-1.932-.164-1.445 1.652m31.534 1.433c.478 3.451.547 3.521.877.877.197-1.579-.036-3.266-.519-3.749-.503-.503-.656.722-.358 2.872M141.5 90c.34.55.816 1 1.059 1s.441-.45.441-1-.477-1-1.059-1-.781.45-.441 1m-69.925 2.146c-1.967 1.894-1.413 2.244 1.638 1.033.947-.375 1.394-1.174 1-1.783-.483-.749-1.333-.507-2.638.75m70.173 2.394c-.307 1.602-.073 2.404.633 2.171 1.388-.456 2.115-4.711.805-4.711-.524 0-1.171 1.143-1.438 2.54m-38.875.114c-.755.909-1.222 2.597-1.036 3.75.64 3.991 1.819 3.628 2.85-.878 1.083-4.735.499-5.66-1.814-2.872m50.469-.103c-.343.894.379 2.588 1.706 4 2.308 2.457 1.47 3.544-.924 1.199-1.035-1.013-1.043-.73-.04 1.5 1.459 3.243 2.897 3.54 3.626.75.288-1.1.937-2 1.442-2 .519 0 .47-.839-.113-1.928-.568-1.06-.76-2.635-.428-3.5.454-1.185-.047-1.572-2.035-1.572-1.462 0-2.904.692-3.234 1.551M47.25 96.74c-.769.263-1.235 2.223-1.21 5.093l.04 4.667 1.521-2.806c1.744-3.217 1.523-7.593-.351-6.954m8.829 1.843c.048 1.165.285 1.402.604.605.289-.722.253-1.585-.079-1.917s-.568.258-.525 1.312m90.671 4.625c-1.087 1.113-3.218 1.792-5.622 1.792-3.783 0-3.888.098-4.548 4.25-.372 2.338-.955 5.371-1.296 6.74-.59 2.366-.535 2.404 1.119.75 2.106-2.106 3.323-2.319 1.636-.286-.958 1.153-.835 2.082.593 4.5.989 1.675 2.142 3.046 2.561 3.046 2.108 0 5.5-9.23 4.91-13.359-.15-1.049.176-1.587.747-1.234 1.493.923 2.496-1.286 1.26-2.775-.751-.905-.744-1.598.026-2.368.599-.599.926-1.485.727-1.968-.2-.484-1.15-.073-2.113.912m12-.876c-.412 1.007-.736 3.032-.72 4.5.027 2.32.166 2.436 1.064.892.569-.976.893-3.001.72-4.5-.262-2.275-.438-2.422-1.064-.892M53.34 108.25c-1.292 2.076-.35 6.14 1.862 8.025 1.145.976 2.328 1.528 2.629 1.227s-.486-1.273-1.751-2.158c-1.868-1.309-2.196-2.241-1.752-4.977.577-3.559.291-4.172-.988-2.117m21.473-.567c.721.289 1.584.253 1.916-.079s-.258-.568-1.312-.525c-1.165.048-1.402.285-.604.604M153 117c0 .55.477 1 1.059 1s.781-.45.441-1-.816-1-1.059-1-.441.45-.441 1m-22.128 2.75c-1.269 1.619-1.222 1.64.628.283 1.1-.807 2.188-1.594 2.417-1.75s-.054-.283-.628-.283-1.662.787-2.417 1.75m3.119.761c-.982 1.183-.98 1.489.009 1.489.933 0 .963.339.123 1.352-1.388 1.672.421 7.648 2.314 7.648 2.309 0 3.465-4.329 2.052-7.687-1.632-3.884-2.93-4.692-4.498-2.802m17.751 3.614c-1.843 1.031-2.413 3.875-.777 3.875.992 0 3.465-3.903 2.858-4.511-.187-.186-1.123.1-2.081.636m-33.889 1.128c.504.504 1.981.749 3.282.544 2.001-.315 1.861-.455-.916-.916-1.988-.329-2.921-.183-2.366.372m-59.123 3.571-3.77 1.676 4.495 5.133c5.03 5.743 9.329 7.254 13.366 4.697 2.022-1.28 2.86-1.286 6.5-.047 4.604 1.566 8.904.942 6.526-.947-.741-.589-2.428-1.633-3.749-2.32-2.142-1.114-2.329-1.059-1.727.509.567 1.476.432 1.557-.835.505-.831-.69-2.168-1.001-2.972-.693-.94.361-1.279.084-.95-.774.541-1.41-7.87-7.723-9.95-7.469-.64.079-1.839.083-2.664.009-1.333-.119-1.333-.241 0-1.103 2.322-1.501-.085-1.036-4.27.824m89.701 2.443c-3.119 3.366-4.136 5.55-1.51 3.244 1.981-1.74 4.655-5.542 3.864-5.494-.157.01-1.216 1.022-2.354 2.25m-10.811 5.189c-1.581 2.414-.981 4.05 1.001 2.728 1.488-.993 2.434-4.032 1.445-4.643-.466-.288-1.566.574-2.446 1.915m-51.176-.171c-.342.891-.251 2.203.202 2.917s.83 1.703.839 2.197c.033 1.982 3.968 2.257 5.945.415 1.1-1.025 2.504-1.67 3.119-1.433s2.882-.361 5.036-1.327c3.915-1.756 3.915-1.756.915-1.795-1.65-.021-3.649.474-4.442 1.101-1.109.877-1.268.851-.691-.11 1.269-2.112-1.307-1.398-4.934 1.369-3.782 2.885-4.773 2.32-1.183-.675 2.193-1.83 2.198-1.878.2-1.911-1.127-.018-2.575-.558-3.217-1.2-.89-.89-1.315-.782-1.789.452M107 140.061c-8.826 1.558-10.155 2.092-9.499 3.817.495 1.3.367 1.374-.642.372-1.481-1.47-2.859-1.63-2.859-.333 0 1.998 8.917 4.253 17.458 4.416 4.803.092 8.907-.115 9.12-.459s-1.405-1.868-3.596-3.386-3.982-3.374-3.982-4.124-.338-1.304-.75-1.23zm10 1.964c3.291 2.608 6.379 3.369 9.75 2.406 2.563-.733 2.443-.828-1.75-1.404-2.475-.341-5.483-1.161-6.684-1.823-3.359-1.852-4.104-1.387-1.316.821M74.5 142c.34.55 1.829.968 3.309.93 2.403-.063 2.477-.163.691-.93-2.778-1.194-4.738-1.194-4 0m32.705.116c.251.751 1.994 2.181 3.875 3.177 1.881.997 2.559 1.226 1.508.509-1.052-.716-2.796-2.146-3.875-3.177-1.173-1.12-1.78-1.325-1.508-.509m-25.492 1.997c.612.612 3.29 1.324 5.95 1.582l4.837.469-2.864-1.582c-3.369-1.86-9.688-2.234-7.923-.469m-10.298 1.749c1.266 2.049 10.509 6.2 18.166 8.159 9.752 2.494 17.191 2.207 20.177-.779 1.233-1.233 2.805-2.256 3.492-2.272.821-.02.735-.33-.25-.901-1.371-.795-12.046.678-17.637 2.434-1.176.369-2.413.224-2.751-.322-.358-.579 1.497-1.283 4.451-1.69 5.618-.772 5.643-1.256.168-3.159-3.181-1.105-3.895-1.078-4.841.186-1.431 1.91-5.693 1.894-9.422-.035-3.923-2.028-12.554-3.24-11.553-1.621M124 149c-2.06.66-2.148.816-.5.885 1.1.046 2.675-.352 3.5-.885 1.752-1.132.536-1.132-3 0m-60.494 3.006c.998 1.104 2.032 1.789 2.297 1.524.672-.672-1.822-3.53-3.08-3.53-.568 0-.216.903.783 2.006M112 153.572c-2.405 1.444-2.329 1.475 2 .837 6.936-1.023 9.376-2.276 4.5-2.31-2.2-.016-5.125.647-6.5 1.473M73.5 163c.34.55 1.068 1 1.618 1s.722-.45.382-1-1.068-1-1.618-1-.722.45-.382 1m4.268 2.168c.582.582 1.647.86 2.369.62.749-.25.295-.703-1.057-1.057-1.663-.435-2.054-.305-1.312.437"/></svg>