<svg xmlns="http://www.w3.org/2000/svg" width="24" height="24" fill="#000000"><g clip-path="url(#a)"><path fill="#121212" d="M12.006.217c6.478 0 11.729 5.264 11.729 11.758 0 6.495-5.251 11.76-11.729 11.76S.277 18.47.277 11.974C.277 5.481 5.528.217 12.006.217"/><path fill="url(#b)" fill-opacity=".7" d="M12.007 0C5.408 0 .061 5.361.061 11.975s5.347 11.976 11.944 11.976 11.945-5.362 11.945-11.975C23.951 5.36 18.603 0 12.007 0"/><path fill="url(#c)" fill-rule="evenodd" d="M12.006.439C5.651.439.5 5.604.5 11.975c0 6.372 5.152 11.537 11.507 11.537 6.356 0 11.508-5.165 11.508-11.536 0-6.372-5.152-11.537-11.507-11.537M.062 11.975C.062 5.361 5.409 0 12.006 0s11.945 5.361 11.945 11.975-5.348 11.976-11.944 11.976C5.408 23.95.061 18.589.061 11.976" clip-rule="evenodd"/><path fill="#FFFFFF" fill-rule="evenodd" d="M9.392 6.406h-.254l-.165.195-4.26 5.016-.305.358.304.359 4.26 5.016.166.195h8.475v-3.742h-1.102v2.637h-5.914l3.54-4.103.311-.361-.311-.362-3.54-4.103h5.914v2.637h1.102V6.406h-8.22m.003 1.401-3.54 4.169 3.54 4.168 3.596-4.168z" clip-rule="evenodd"/></g><defs><radialGradient id="b" cx="0" cy="0" r="1" gradientTransform="matrix(0 25.2492 -17.7276 0 12.032 3.497)" gradientUnits="userSpaceOnUse"><stop offset=".031" stop-color="#3B3B3B"/><stop offset="1" stop-color="#1C1C1C"/></radialGradient><linearGradient id="c" x1="12.006" x2="12.006" y1="-.226" y2="24.177" gradientUnits="userSpaceOnUse"><stop stop-color="#FFFFFF"/><stop offset="1" stop-color="#121212"/></linearGradient><clipPath id="a"><path fill="#FFFFFF" d="M0 0h24v24H0z"/></clipPath></defs></svg>