<svg width="270" height="301" viewBox="0 0 270 301" fill="#000000" xmlns="http://www.w3.org/2000/svg">
<path d="M34.5572 121.371C37.522 127.708 44.8598 140.235 44.8598 140.235L129.69 0L46.8981 57.8135C41.9649 61.1045 37.9175 65.5592 35.1131 70.7844C31.3423 78.6673 29.3389 87.2786 29.2429 96.0164C29.1469 104.754 30.9606 113.407 34.5572 121.371Z" fill="#000000"/>
<path d="M0.944805 167.55C1.87958 180.964 5.66957 194.024 12.061 205.854C18.4524 217.685 27.2978 228.013 38.0047 236.148L129.58 300.002C129.58 300.002 72.2851 217.433 23.959 135.271C19.0665 126.59 15.7774 117.1 14.2493 107.254C13.5729 102.795 13.5729 98.2595 14.2493 93.8008C12.9893 96.1356 10.5433 100.916 10.5433 100.916C5.64323 110.91 2.30604 121.596 0.648326 132.603C-0.305841 144.237 -0.206611 155.934 0.944805 167.55Z" fill="#000000"/>
<path d="M234.57 178.627C231.605 172.29 224.268 159.764 224.268 159.764L139.438 299.998L222.229 242.222C227.163 238.931 231.21 234.476 234.014 229.251C237.791 221.363 239.797 212.745 239.893 204.001C239.989 195.256 238.173 186.596 234.57 178.627Z" fill="#000000"/>
<path d="M268.185 132.452C267.25 119.038 263.46 105.978 257.069 94.1479C250.677 82.3174 241.832 71.9889 231.125 63.8542L139.55 0C139.55 0 196.807 82.5695 245.171 164.731C250.05 173.414 253.327 182.905 254.843 192.749C255.52 197.207 255.52 201.743 254.843 206.201C256.103 203.867 258.549 199.086 258.549 199.086C263.449 189.092 266.786 178.406 268.444 167.4C269.411 155.766 269.324 144.07 268.185 132.452Z" fill="#000000"/>
<path style="mix-blend-mode:color" d="M35.114 70.7844C37.9185 65.5592 41.9659 61.1045 46.8991 57.8135L129.691 0L44.8608 140.272C44.8608 140.272 37.4488 127.746 34.5581 121.408C30.9559 113.439 29.1392 104.78 29.2352 96.0349C29.3313 87.2902 31.3377 78.6722 35.114 70.7844ZM0.944805 167.548C1.87958 180.962 5.66957 194.022 12.061 205.852C18.4524 217.683 27.2978 228.011 38.0047 236.146L129.58 300C129.58 300 72.2851 217.431 23.959 135.269C19.0665 126.588 15.7774 117.098 14.2493 107.251C13.5728 102.793 13.5728 98.2574 14.2493 93.7987C12.9893 96.1334 10.5433 100.914 10.5433 100.914C5.64323 110.908 2.30604 121.594 0.648326 132.6C-0.305841 144.235 -0.206611 155.931 0.944805 167.548ZM234.422 178.666C231.457 172.329 224.12 159.802 224.12 159.802L139.438 300L222.23 242.224C227.163 238.933 231.21 234.478 234.015 229.253C237.791 221.365 239.797 212.747 239.893 204.002C239.989 195.258 238.173 186.598 234.57 178.629L234.422 178.666ZM268.036 132.489C267.101 119.075 263.311 106.016 256.919 94.185C250.528 82.3544 241.683 72.026 230.976 63.8913L139.549 0C139.549 0 196.806 82.5695 245.17 164.731C250.049 173.414 253.326 182.905 254.842 192.749C255.519 197.207 255.519 201.743 254.842 206.201C256.102 203.867 258.548 199.086 258.548 199.086C263.448 189.092 266.786 178.406 268.443 167.4C269.41 155.766 269.323 144.07 268.184 132.452L268.036 132.489Z" fill="#000000"/>
</svg>
