<svg xmlns="http://www.w3.org/2000/svg" width="64" height="64" fill="#000000"><g clip-path="url(#a)"><path fill="#ffffffFFF" d="M32 64c17.673 0 32-14.327 32-32C64 14.327 49.673 0 32 0 14.327 0 0 14.327 0 32c0 17.673 14.327 32 32 32Z"/><path fill="#2e2e2e" d="M32 68c19.882 0 36-16.118 36-36S51.882-4 32-4-4 12.118-4 32s16.118 36 36 36Z"/><path fill="#4c4c4c" d="M31.602 12.696c.261-.412.515-.433.799-.03 1.147 1.627 2.284 3.26 3.424 4.893 1.513 2.166 3.015 4.34 4.54 6.497.494.698.551 1.52.744 2.301.403 1.64.776 3.288 1.16 4.933.27 1.158.535 2.317.806 3.474.385 1.644.778 3.285 1.16 4.93.281 1.206.546 2.416.826 3.621.072.307-.035.493-.295.65-4.1 2.487-8.198 4.978-12.294 7.47-.282.172-.553.316-.842.023-.07-.315.13-.501.324-.692.78-.372 1.487-.867 2.225-1.311 2.21-1.332 4.409-2.682 6.612-4.024l3.177-1.934c.153-.093.281-.18.223-.413-.155-.607-.276-1.222-.419-1.832-.433-1.852-.87-3.703-1.304-5.555-.385-1.646-.768-3.292-1.151-4.938-.326-1.402-.635-2.81-.985-4.205-.154-.616-.182-1.274-.521-1.833-.227-.374-.486-.729-.736-1.089a6364.83 6364.83 0 0 0-5.181-7.425c-.63-.901-1.267-1.798-1.9-2.697-.08-.294-.379-.486-.392-.814Z"/><path fill="#949494" d="M31.602 12.695c.013.328.311.52.393.816-.048.058-.099.113-.141.174-2.44 3.508-4.878 7.018-7.32 10.523-.28.402-.52.802-.634 1.298a4319.74 4319.74 0 0 1-4.059 17.415c-.071.305-.014.47.263.635 1.348.798 2.683 1.618 4.02 2.433 2.61 1.591 5.22 3.185 7.83 4.777-.195.19-.395.377-.324.691-1.32-.795-2.643-1.587-3.96-2.387-2.764-1.678-5.526-3.36-8.288-5.042-.517-.314-.525-.328-.391-.903.935-4.013 1.874-8.026 2.811-12.04.487-2.085.976-4.17 1.459-6.258a1.35 1.35 0 0 1 .21-.476c2.657-3.816 5.312-7.634 7.968-11.451.05-.07.109-.136.163-.205Z"/><path fill="#949494" d="M32.248 39.066c-2.04.006-4.08.018-6.12.015-.479 0-.622-.265-.378-.694.71-1.252 1.432-2.496 2.152-3.742 1.207-2.091 2.415-4.182 3.625-6.272.08-.14.14-.3.298-.375.248-.117.45.008.573.347l-.388.8c-.031.04-.066.075-.091.117-1.678 2.904-3.354 5.81-5.037 8.712-.159.273-.099.349.194.322.1-.01.2-.003.3-.001 1.615.018 3.23-.038 4.843.03.221.239.182.488.029.74Z"/><path fill="#4c4c4c" d="M32.248 39.066c.154-.253.193-.502-.027-.741.175-.007.35-.019.524-.02 1.378-.002 2.754-.001 4.131-.004.358 0 .388-.054.216-.353l-5.08-8.802.388-.8c.193.115.258.326.361.502 1.818 3.14 3.63 6.283 5.441 9.426.326.565.187.811-.47.811-1.828 0-3.656-.012-5.484-.019Z"/></g><defs><clipPath id="a"><path fill="#ffffff" d="M0 32C0 14.327 14.327 0 32 0c17.673 0 32 14.327 32 32 0 17.673-14.327 32-32 32C14.327 64 0 49.673 0 32Z"/></clipPath></defs></svg>