<svg xmlns="http://www.w3.org/2000/svg" width="200" height="200" fill="#000000"><path fill-opacity=".125" fill-rule="evenodd" d="M88.583 11.041c-15.009 2.356-29.454 8.124-41.022 16.378-7.702 5.497-18.939 17.449-23.392 24.884C14.83 67.895 10.716 82.481 10.716 100c0 25.741 9.443 47.648 28.036 65.044 17.406 16.286 37.505 24.24 61.248 24.24 17.489 0 31.685-3.994 47.817-13.453 7.319-4.292 23.722-20.695 28.014-28.014 9.459-16.132 13.453-30.328 13.453-47.817s-3.994-31.685-13.453-47.817c-4.292-7.319-20.695-23.722-28.014-28.014-18.63-10.923-41.289-15.946-59.234-13.128M67.161 47.684c-2.539 4.978-9.303 10.969-13.399 11.868l-3.004.66 3.936 1.762c5.548 2.484 11.009 7.563 12.467 11.595 1.51 4.177 2.242 4.288 3.78.573 1.57-3.79 7.647-9.629 12.457-11.969l3.872-1.883-3.296-1.149c-5.205-1.815-9.796-5.867-12.358-10.908l-2.363-4.649zm52.898 19.566c-4.235 14.312-17.229 27.133-33.382 32.938l-6.822 2.452 4.322 1.256c17.1 4.969 31.378 18.435 35.895 33.854.684 2.338 1.565 4.25 1.956 4.25.392 0 1.278-2.02 1.969-4.49 1.904-6.798 10.136-18.604 16.208-23.242 6.061-4.63 13.333-8.456 19.676-10.353l4.381-1.31-6.515-2.198c-15.831-5.34-29.559-18.804-33.806-33.157-.692-2.338-1.565-4.25-1.941-4.25s-1.249 1.912-1.941 4.25m-36.417 58c-.979 3.836-6.407 9.454-11.666 12.075l-5.027 2.505 2.958.65c4.07.894 11.727 7.867 13.244 12.061.688 1.902 1.498 3.454 1.8 3.448s1.426-1.842 2.498-4.079c2.218-4.629 6.355-8.457 11.765-10.888l3.714-1.669-3.888-1.715c-4.531-1.999-10.429-7.749-12.109-11.805-1.415-3.416-2.516-3.611-3.289-.583"/><path fill-opacity=".368" fill-rule="evenodd" d="M82 12.598c-25.055 5.383-46.518 21.036-59.432 43.343C2.723 90.22 8.636 134.755 36.757 162.81c28.622 28.554 72.867 34.581 107.302 14.617 28.303-16.41 44.989-45.303 44.919-77.784C188.9 63.121 166.441 30.468 132 16.808c-14.188-5.627-35.18-7.395-50-4.21M66.611 47.509c-3.067 5.896-6.536 8.988-13.012 11.599l-3.989 1.608 3.826 1.263c5.15 1.7 11.461 7.566 13.795 12.825l1.911 4.305 2.434-4.885c2.953-5.928 5.815-8.73 11.914-11.67l4.636-2.234-4.545-1.736c-5.123-1.956-11.763-8.795-13.176-13.57l-.905-3.057zm54.013 16.62c-1.044 5.219-6.467 15.226-11.158 20.588-5.699 6.515-13.667 11.769-23.021 15.179l-7.439 2.712 6.866 2.212c8.729 2.811 17.319 8.363 23.379 15.109 4.837 5.385 10.262 15.385 11.38 20.977.793 3.965 1.948 3.951 2.745-.035 1.266-6.331 7.141-16.371 13.124-22.428 6.68-6.763 14.107-11.34 22.768-14.029l5.768-1.791-7.46-2.719c-9.374-3.418-17.339-8.668-23.042-15.187-4.691-5.362-10.114-15.369-11.158-20.588-.8-3.997-1.952-3.997-2.752 0m-37.18 60.719c-1.966 4.914-9.094 11.552-14.223 13.244l-3.611 1.192 3.989 1.608c6.448 2.6 9.852 5.631 13.079 11.645 2.953 5.502 3.049 5.577 3.609 2.808.861-4.263 7.465-11.322 12.983-13.879l4.881-2.261-3.352-1.106c-5.194-1.714-10.826-6.958-13.369-12.447l-2.311-4.989z"/><path fill-opacity=".184" fill-rule="evenodd" d="M82.642 12.942c-18.611 4.059-31.937 11.296-45.171 24.529-12.289 12.289-19.14 24.125-23.713 40.966-3.169 11.668-3.118 31.636.111 43.562 4.616 17.052 12.351 30.187 24.769 42.062 11.83 11.313 23.264 17.728 39.429 22.123 11.803 3.209 31.794 3.236 43.496.058 16.823-4.568 28.666-11.42 40.985-23.713 13.406-13.379 20.626-26.895 24.585-46.029 3.335-16.119 1.394-35.014-5.189-50.5-9.132-21.485-28.105-40.275-48.944-48.471-15.381-6.049-35.324-7.866-50.358-4.587M66.984 46.034c-2.819 6.02-8.264 11.078-13.939 12.951-4.406 1.454-4.503 2.473-.316 3.312 5.131 1.028 11.266 6.451 13.963 12.342l2.518 5.5 2.259-4.875C73.454 70.98 81.032 63 83.115 63c.415 0 2.015-.479 3.554-1.064l2.8-1.065-6.115-2.935c-6.507-3.123-10.613-7.494-12.699-13.519l-1.238-3.577zM120.7 62.463c-1.957 12.06-14.488 27.741-27.071 33.877-3.967 1.935-8.545 3.812-10.171 4.172-1.627.36-3.633.873-4.458 1.139-.825.267 2.325 1.937 7 3.713 10.552 4.007 16.153 7.531 22.22 13.979 5.099 5.42 11.528 17.329 12.462 23.085.741 4.568 1.895 4.568 2.636 0 1.077-6.634 7.535-17.98 13.647-23.976 6.95-6.818 13.184-10.606 22.25-13.521 7.213-2.319 7.824-3.338 2.516-4.2-6.521-1.058-16.842-6.871-23.721-13.361-7.076-6.674-13.068-16.828-14.529-24.62-.88-4.689-2.047-4.81-2.781-.287m-37.088 60.983c-2.785 6.566-6.332 10.306-12.648 13.338l-6.012 2.885 3.819 1.144c5.652 1.693 11.595 7.287 14.23 13.393l2.284 5.294 1.36-3.909c2.192-6.3 6.128-10.569 12.541-13.602 6.307-2.982 6.319-3.08.624-4.915-4.888-1.576-11.33-8.153-13.101-13.375l-1.423-4.199z"/><path fill-opacity=".157" fill-rule="evenodd" d="M26.738 50.737c-3.084 3.408-9.898 18.357-12.322 27.034-3.312 11.859-3.522 31.063-.471 43.015 4.397 17.219 11.377 29.612 23.517 41.752 11.633 11.633 25.144 19.276 41.421 23.432 12.297 3.14 31.33 2.97 43.346-.386 8.655-2.418 22.68-8.794 27.249-12.388l2.376-1.869-13.95-13.913c-12.453-12.42-14.014-13.672-14.544-11.664-.934 3.541-2.277 2.64-2.982-2-.584-3.841-2.197-5.821-16.762-20.579C87.157 106.495 84.025 104 79.55 104c-1.6 0-2.55-.559-2.55-1.5 0-.825.675-1.5 1.5-1.5 3.298 0 3.542.258-38.074-40.284-11.397-11.102-12.165-11.662-13.688-9.979M84 120.54c0 5.465-8.207 14.543-14.983 16.573-2.21.662-4.017 1.521-4.017 1.909s2.109 1.512 4.688 2.497c6.916 2.641 11.939 8.379 14.865 16.981.57 1.676.906 1.347 2.076-2.037 2.14-6.189 7.031-11.387 13.667-14.526l5.943-2.81-3.741-1.564c-2.058-.859-4.102-1.563-4.541-1.563-2.025 0-9.679-9.128-10.805-12.887-1.207-4.03-3.152-5.618-3.152-2.573"/></svg>