<!-- Generated by IcoMoon.io -->
<svg version="1.1" xmlns="http://www.w3.org/2000/svg" width="32" height="32" viewBox="0 0 32 32" fill="#000000">
<title>eps</title>
<path d="M18.783 2.262c-0.61 0.12-1.849 0.461-2.752 0.758s-2.319 0.878-3.145 1.29c-0.826 0.412-2.008 1.090-2.627 1.506s-1.889 1.374-2.822 2.128c-0.933 0.754-2.363 2.199-3.177 3.212s-1.871 2.545-2.347 3.406-1.102 2.337-1.389 3.28c-0.308 1.013-0.522 2.406-0.522 3.401 0 0.927 0.157 2.207 0.349 2.845s0.681 1.611 1.087 2.163c0.406 0.552 1.16 1.339 1.675 1.748s1.574 0.987 2.353 1.283c0.858 0.326 2.255 0.588 3.543 0.665 1.372 0.082 2.84-0.008 4.137-0.254 1.106-0.21 2.908-0.727 4.005-1.15s2.895-1.325 3.995-2.004c1.1-0.679 2.723-1.863 3.606-2.632s2.159-2.045 2.833-2.836c0.675-0.791 1.679-2.196 2.233-3.121s1.287-2.558 1.63-3.628c0.516-1.61 0.607-2.314 0.527-4.076-0.071-1.553-0.25-2.448-0.664-3.301-0.312-0.644-1.033-1.637-1.602-2.206s-1.459-1.252-1.978-1.516c-0.519-0.265-1.59-0.65-2.38-0.855s-2.341-0.362-3.448-0.347c-1.106 0.015-2.511 0.125-3.12 0.245zM21.489 10.264c0.686 0.147 1.366 0.41 1.511 0.585 0.186 0.225 0.155 0.733-0.107 1.738-0.204 0.782-0.668 2.010-1.033 2.731s-1.368 2.002-2.23 2.848c-1.033 1.014-2.232 1.867-3.517 2.502-1.838 0.908-2.083 0.964-4.268 0.964-1.729 0-2.414-0.096-2.695-0.376-0.324-0.325-0.332-0.564-0.051-1.751 0.179-0.756 0.641-1.995 1.028-2.752s1.408-2.068 2.27-2.914c1.004-0.985 2.233-1.867 3.419-2.453 1.018-0.503 2.408-1.008 3.089-1.122s1.26-0.22 1.288-0.236c0.028-0.016 0.611 0.091 1.297 0.238z"/>
</svg>
