<svg xmlns="http://www.w3.org/2000/svg" width="200" height="200" fill="#000000"><path fill-opacity=".251" fill-rule="evenodd" d="M0 100.005V200.01l100.25-.255 100.25-.255.255-99.75L201.01 0H0zm.481.495c0 55 .121 77.647.269 50.326.148-27.32.148-72.32 0-100C.602 23.147.481 45.5.481 100.5m89.187-58.835c-.366.366-1.678.806-2.916.978-5.689.791-8.94 2.244-8.092 3.616.357.578.204.775-.34.438-1.58-.976-8.454 1.511-7.933 2.869.298.776-.224 1.028-1.462.704-1.334-.349-1.925.011-1.925 1.172 0 .922-.45 1.398-1 1.058s-1-.141-1 .441-.338.988-.75.9c-2.01-.425-4.25 1.616-4.25 3.873 0 1.789-.418 2.34-1.471 1.935-1.973-.757-4.8 2.207-4.22 4.425.314 1.199.021 1.606-.899 1.253-.808-.31-1.845.534-2.547 2.075C50.212 68.831 49.392 70 49.04 70s-1.216 1.597-1.921 3.548c-1.045 2.889-1.045 3.865.001 5.25 1.087 1.441 1.069 1.511-.118.452-1.56-1.391-3.066-1.652-2.884-.5.066.412.028.975-.083 1.25-.439 1.088-1.136 5.622-1.19 7.743-.032 1.234-.46 1.995-.951 1.691-.492-.303-.894-.102-.894.448s.472 1.292 1.049 1.648c.69.427.713 1.052.068 1.829-.54.65-.792 4.098-.561 7.661.231 3.564.462 7.38.514 8.48.221 4.665 2.364 10.698 4.322 12.166 1.902 1.426 1.918 1.515.164.914-1.811-.621-1.833-.544-.321 1.127.892.986 1.649 2.133 1.682 2.548s.738 2.376 1.566 4.359c1.028 2.459 1.974 3.424 2.98 3.039.81-.311 1.782-.066 2.159.545.416.673.232.83-.467.397-2.573-1.589-.898 1.423 3.124 5.621 2.354 2.456 5.023 4.357 5.931 4.224 1.059-.156 1.458.262 1.112 1.164-.347.904.661 1.953 2.819 2.933 1.847.84 4.709 2.407 6.359 3.484s3.675 2.224 4.5 2.549c.825.326 2.546 1.012 3.825 1.524s2.761.662 3.294.333c.533-.33 1.624-.055 2.425.609 1.101.915 1.456.922 1.456.03 0-.826.607-.754 2.028.241 2.471 1.731 17.907 1.417 19.021-.386.509-.823.862-.762 1.251.216q.543 1.368.621.144c.043-.67.665-.993 1.382-.718 1.33.51 8.697-2.146 8.697-3.135 0-.301-.52-.225-1.155.167-.716.443-.883.275-.439-.443.447-.723 1.35-.841 2.405-.315 1.806.901 6.673-1.019 5.516-2.176-.363-.364-.135-.717.506-.786 2.103-.225 2.643-.413 4.667-1.621 1.1-.656 1.63-1.207 1.179-1.224-.452-.016-.118-.734.742-1.594s1.905-1.405 2.321-1.212c1.285.597 6.917-5.94 6.655-7.725-.136-.925-.018-1.454.261-1.174.94.94 4.503-3.464 3.955-4.89-.297-.776-.22-1.363.173-1.305 2.303.344 3.214-.418 3.214-2.689 0-1.407.387-2.32.859-2.028.473.292.733-.621.579-2.029s-.009-2.288.324-1.956c1.005 1.005 3.318-5.6 2.673-7.633-.33-1.04-.052-2.552.619-3.36 1.475-1.777 1.421-22.647-.063-24.185-.132-.138-.304-.588-.381-1s-.409-1.2-.737-1.75-.875-2.168-1.215-3.597c-.577-2.422-6.727-13.4-8.281-14.783-.384-.341-.331.012.117.785.553.952.438 1.171-.356.68-.644-.398-.94-1.097-.658-1.553.627-1.013-8.347-10.632-9.592-10.282-.488.138-.888-.17-.888-.683 0-.809-3.209-2.374-5.167-2.518-.366-.027-1.041-.459-1.5-.959-.493-.539-.26-.578.572-.096.944.548 1.17.437.69-.339-.392-.635-1.361-1.155-2.154-1.155S126 47.523 126 46.941s-.45-.781-1-.441-1 .216-1-.274c0-.491-.562-.935-1.25-.986s-3.191-.809-5.563-1.683c-2.372-.875-5.846-1.421-7.722-1.215-1.875.207-3.17-.01-2.878-.483.292-.472-2.646-.859-6.528-.859S93 41.402 93 41.893s-.652 1.143-1.449 1.449q-1.452.56-.893-.893c.587-1.53.124-1.897-.99-.784m1.077 11.731c.31.502-.62.601-2.118.225-1.922-.482-2.835-.243-3.256.854-.322.839-1.688 1.525-3.037 1.525s-2.223.371-1.943.824-.481.791-1.691.75c-1.255-.042-2.093.463-1.95 1.176.138.688-.425 1.25-1.25 1.25s-1.507.563-1.515 1.25Q73.969 62.5 73 61c-.848-1.312-.971-1.3-.985.095-.008.877-.915 2.41-2.015 3.405-1.345 1.217-2 1.392-2 .533 0-1.023-.3-1.029-1.5-.033-1.811 1.503-2.011 3.417-.25 2.387.688-.402.402.236-.634 1.418s-2.284 1.9-2.774 1.597-.768.045-.617.774c.151.728-.321 1.2-1.049 1.049-.729-.151-1.056.16-.728.691s-.326 1.824-1.452 2.873c-1.252 1.167-1.803 2.551-1.416 3.56.385 1.002.133 1.651-.64 1.651-.7 0-.977.296-.615.658s.099 1.331-.584 2.153-1.276 2.664-1.319 4.092c-.043 1.429-.53 2.509-1.083 2.403-.553-.107-1.006.455-1.006 1.25S52.682 93 53.109 93c.768 0 .52 2.442-.608 5.996-.32 1.01-.107 2.13.475 2.489.581.359.782 1.098.446 1.641-1.284 2.077-1.091 5.787.33 6.332 1.259.483 1.229.922-.215 3.125-1.639 2.502-1.63 2.537.392 1.455 2.24-1.199 2.429-.77 2.32 5.28-.028 1.549.183 2.583.469 2.297.625-.624 3.782 2.381 3.782 3.6 0 .472.675 1.285 1.5 1.806s1.05.959.5.972 1.475 2.367 4.5 5.232 5.794 5.125 6.154 5.024c.36-.102 1.202.476 1.873 1.283.67.807 2.175 1.475 3.345 1.483 1.781.013 1.883.19.628 1.087-1.223.874-1.111.987.608.616 2.288-.495 5.709.96 4.99 2.123-.244.395.759.665 2.229.6 3.675-.164 6.26.608 5.603 1.673-.302.487-.071.886.511.886s1.059-.405 1.059-.9 3.146-.769 6.991-.61 6.761-.083 6.479-.539c-.282-.457.284-.859 1.258-.894 4.65-.168 7.083-.648 8.369-1.652 1.319-1.029 4.797-2.526 5.903-2.541.275-.003 1.175-.581 2-1.283s2.287-1.556 3.25-1.898 1.75-1.336 1.75-2.211.45-1.312 1-.972 1-.084 1-.941.364-1.559.809-1.559 1.682-.708 2.75-1.574c1.067-.866 1.266-1.227.441-.802s-.204-.611 1.38-2.302c1.585-1.692 2.854-3.469 2.822-3.949s.653-1.66 1.524-2.623 1.234-1.75.807-1.75c-.428 0-.193-.704.521-1.565s1.436-2.773 1.603-4.25c.53-4.679.661-5.185 1.346-5.185.815 0 .438-16.892-.395-17.725-.325-.325-.032-1.281.651-2.125.682-.844.791-1.27.241-.948s-1.964-1.388-3.142-3.8-1.74-4.138-1.25-3.835c1.651 1.02.91-.445-1.589-3.141-1.365-1.473-2.238-3.071-1.941-3.552s-.147-.874-.988-.874c-1.027 0-1.322-.573-.899-1.75.345-.963.328-1.485-.038-1.161-.843.747-8.653-6.615-8.653-8.156 0-.631-.662-.893-1.471-.582-.809.31-2.165-.13-3.013-.978-1.521-1.521-8.24-3.932-9.84-3.53-.454.114-.513-.298-.132-.914.441-.713.012-.982-1.176-.739-1.027.211-2.464-.309-3.192-1.154s-1.039-.973-.691-.286c.368.727.003 1.25-.872 1.25-1.25 0-1.556 2.283-1.809 13.51-.268 11.909-.086 13.776 1.533 15.75 1.01 1.232 1.486 1.565 1.058.74-.692-1.333-.564-1.333 1.159 0 3.222 2.494 4.635 3.999 3.767 4.015-.451.009-.146.452.679.985 1.196.773 1.219.972.114.985-.873.009-.41.992 1.25 2.651 2.043 2.043 2.636 3.619 2.636 7 0 2.4-.436 4.364-.969 4.364s-.727.629-.431 1.399c.295.769.048 1.7-.548 2.069s-.78 1.202-.408 1.851c.372.65.306.845-.147.435-.453-.411-1.65.613-2.661 2.275-1.847 3.037-6.214 5.474-7.92 4.419-.504-.311-.916-.089-.916.493 0 1.355-7.675 1.394-8.51.043-.346-.559-1.044-.759-1.553-.445s-2.514-.64-4.455-2.121c-2.626-2.002-3.398-3.233-3.015-4.805.283-1.162.256-1.55-.06-.863-.315.688-1.061 1.25-1.657 1.25s-.782-.301-.414-.669c.367-.368-.071-1.485-.974-2.484-2.249-2.485-1.35-13.652 1.253-15.555 1.037-.758 1.251-1.292.517-1.292-.687 0-.967-.457-.622-1.016.346-.559.996-.789 1.445-.512.45.278 1.067-.449 1.372-1.615.417-1.594 1.092-1.981 2.713-1.557 1.187.311 1.887.294 1.557-.037s.1-1.376.957-2.323c1.237-1.367 1.598-4.68 1.752-16.081.19-14.096.154-14.359-1.961-14.359-1.184 0-1.905.403-1.6.896m54.714 58.671c-.363.586-.445 1.281-.183 1.543s.743-.218 1.069-1.067c.676-1.762.1-2.072-.886-.476M144 133c0 .55.477 1 1.059 1s.781-.45.441-1-.816-1-1.059-1-.441.45-.441 1"/><path fill-opacity=".403" fill-rule="evenodd" d="M0 100.005V200.01l100.25-.255 100.25-.255.255-99.75L201.01 0H0zm.481.495c0 55 .121 77.647.269 50.326.148-27.32.148-72.32 0-100C.602 23.147.481 45.5.481 100.5m83.643-57.922c-19.475 5.238-36.48 22.459-41.539 42.066-2.317 8.983-2.085 23.508.511 32.001 10.647 34.828 49.613 52.057 82.304 36.391 13.933-6.678 25.816-20.262 30.647-35.036 3.407-10.417 3.471-26.428.145-36.125-6.401-18.666-20.46-32.714-38.415-38.386-6.349-2.005-9.862-2.476-18.079-2.423-5.609.036-12.617.716-15.574 1.512m1.363 13.221C68.936 61.522 56.453 76.346 54.16 93c-3.735 27.131 15.496 50.798 42.84 52.72 13.449.946 24.622-3.258 34.806-13.095 24.866-24.02 15.544-65.323-17.293-76.621-3.204-1.102-6.431-2.004-7.17-2.004-1.06 0-1.343 2.926-1.343 13.867v13.867l3.98 2.634c5.118 3.387 8.02 9.047 8.02 15.642 0 10.596-7.647 17.99-18.605 17.99-12.629 0-21.448-12.717-16.963-24.462C84.014 89.398 89.843 83 92.035 83c.576 0 .965-5.848.965-14.5 0-10.951-.306-14.492-1.25-14.467-.687.018-3.506.812-6.263 1.766"/><path fill-opacity=".86" fill-rule="evenodd" d="M0 100.005V200.01l100.25-.255 100.25-.255.255-99.75L201.01 0H0zm.481.495c0 55 .121 77.647.269 50.326.148-27.32.148-72.32 0-100C.602 23.147.481 45.5.481 100.5m91.692-59.425C79.101 42.77 67.438 48.542 57.99 57.99 46.482 69.498 40.942 83.113 40.897 100c-.139 52.314 63.547 78.593 100.622 41.519 7.634-7.635 12.854-16.747 15.484-27.03 3.596-14.061 2.327-26.638-4.072-40.345C147.646 62.822 136.906 51.9 126 46.756c-11.313-5.336-22.282-7.178-33.827-5.681m-6.686 14.724C64.323 63.117 51.614 83.272 54.148 105.5c2.474 21.698 20.221 38.538 42.39 40.222 13.77 1.046 25.256-3.364 35.538-13.646 10.285-10.285 14.696-21.778 13.641-35.538-1.587-20.681-16.323-37.651-36.467-41.996l-3.25-.701v28.108l2.948 1.524c4.933 2.551 8.341 7.966 8.846 14.053.596 7.187-.191 9.801-4.33 14.382-4.58 5.07-8.118 6.43-15.364 5.906-7.187-.52-11.894-3.691-14.998-10.103-2.572-5.313-2.639-9.931-.222-15.252C84.622 88.623 90.09 83 92.077 83c.522 0 .923-6.303.923-14.5 0-10.951-.306-14.492-1.25-14.467-.687.018-3.506.812-6.263 1.766"/><path fill-opacity=".875" fill-rule="evenodd" d="M0 100.005V200.01l100.25-.255 100.25-.255.255-99.75L201.01 0H0zm.481.495c0 55 .121 77.647.269 50.326.148-27.32.148-72.32 0-100C.602 23.147.481 45.5.481 100.5m84.576-59.465c.594.367-1.069 1.268-3.695 2.004C67.403 46.947 51.113 61.253 45.537 74.5c-5.007 11.895-6.709 24.916-4.676 35.776 3.732 19.94 18.754 38.393 36.469 44.799 2.018.73 3.67 1.713 3.67 2.185s.345.645.766.384c.422-.26 3.009-.04 5.75.49 7.914 1.529 20.177 1.188 27.903-.776 3.895-.99 7.306-2.038 7.581-2.329s3.045-1.84 6.156-3.443c11.225-5.784 22.715-19.361 26.855-31.734 2.798-8.364 3.136-10.68 3.118-21.352-.011-6.284-.648-11.033-2.109-15.739-1.151-3.706-1.964-6.921-1.807-7.145s-.465-1.241-1.384-2.261-1.819-2.469-2-3.219C151.106 67.139 136.4 51 134.391 51c-.71 0-1.651-.615-2.091-1.367-.44-.751-5.075-3.11-10.3-5.242-9.45-3.854-9.575-3.875-23.761-3.949-7.843-.04-13.775.227-13.182.593M87 55.702c-6.315 2.29-14.014 6.467-13.487 7.319.35.566.265.922-.189.792C71.907 63.406 68 66.411 68 67.907c0 .785-.286 1.14-.636.791-1.211-1.211-7.364 7.832-10.002 14.7-1.475 3.839-2.861 9.837-3.124 13.523-.527 7.357 1.157 17.332 3.285 19.459.76.76 1.106 1.658.769 1.995s.041 1.403.841 2.369 2.101 3.047 2.892 4.624c.792 1.578 2.347 3.237 3.457 3.687s1.611.847 1.113.882c-.498.034-.1.952.884 2.039.983 1.087 2.178 1.736 2.655 1.441s.866.167.866 1.024.675 1.559 1.5 1.559 1.5.45 1.5 1 .493 1 1.096 1c.602 0 2.347.891 3.877 1.981 6.196 4.412 21.232 6.366 31.343 4.073 10.926-2.477 22.18-10.877 28.886-21.559 6.793-10.822 7.957-28.438 2.676-40.495-2.755-6.288-6.929-12.086-8.156-11.328-.567.35-.733.155-.369-.434.698-1.129-8.05-9.22-9.981-9.232-.62-.003-1.713-.712-2.43-1.576-.716-.863-2.122-1.355-3.124-1.093-1.001.262-1.584.093-1.294-.376.494-.798-5.511-2.943-8.274-2.955-.938-.005-1.25 3.341-1.25 13.412v13.419l3.617 2.236c6.23 3.85 9.874 14.782 7.533 22.598-.357 1.195-1.826 3.445-3.264 5-5.459 5.908-7.082 6.723-13.884 6.969-5.778.21-7.08-.119-11.692-2.952-2.94-1.806-5.334-4.055-5.523-5.188-.184-1.1-.789-1.92-1.345-1.822-1.681.296-1.752-13.001-.09-16.977 1.522-3.643 6.954-9.201 8.993-9.201.802 0 1.25-4.201 1.467-13.75L93.125 55l-2.313.079c-1.271.043-2.987.324-3.812.623"/></svg>