<svg xmlns="http://www.w3.org/2000/svg" width="64" height="64" version="1.1" fill="#000000"><path fill-opacity=".247" d="M 18.312 3.966 C 6.669 9.852, 1.525 18.433, 1.510 32 C 1.502 38.983, 1.932 41.377, 3.919 45.415 C 6.900 51.472, 12.607 57.134, 18.807 60.188 C 25.508 63.489, 39.569 63.514, 45.722 60.237 C 52.413 56.673, 56.671 52.347, 59.953 45.778 C 62.555 40.571, 63 38.559, 63 32 C 63 25.441, 62.555 23.429, 59.953 18.222 C 54.374 7.058, 46.125 1.861, 33 1.240 C 25.060 0.864, 24.092 1.044, 18.312 3.966 M 18.079 26.583 C 18.127 27.748, 18.364 27.985, 18.683 27.188 C 18.972 26.466, 18.936 25.603, 18.604 25.271 C 18.272 24.939, 18.036 25.529, 18.079 26.583 M 18.158 32 C 18.158 33.375, 18.385 33.938, 18.662 33.250 C 18.940 32.563, 18.940 31.438, 18.662 30.750 C 18.385 30.063, 18.158 30.625, 18.158 32 M 16.158 40 C 16.158 41.375, 16.385 41.938, 16.662 41.250 C 16.940 40.563, 16.940 39.438, 16.662 38.750 C 16.385 38.063, 16.158 38.625, 16.158 40 M 11.733 42.124 C 12.412 42.808, 13.219 43.115, 13.526 42.807 C 13.834 42.499, 13.279 41.940, 12.293 41.564 C 10.868 41.022, 10.753 41.136, 11.733 42.124" stroke="none" fill="#000000" fill-rule="evenodd"/><path fill-opacity=".349" d="M 21.820 2.520 C 15.418 4.572, 6.910 12.511, 3.913 19.230 C 0.664 26.514, 0.632 37.417, 3.839 44.599 C 6.675 50.948, 12.954 57.199, 19.500 60.187 C 26.619 63.438, 38.596 63.438, 45.195 60.187 C 64.278 50.788, 69.038 25.511, 54.502 10.767 C 52.046 8.276, 47.891 5.218, 45.268 3.972 C 39.187 1.083, 28.388 0.414, 21.820 2.520 M 43.395 16.170 C 42.897 16.975, 43.235 17.124, 44.477 16.647 C 46.834 15.743, 50.219 16.837, 49.360 18.227 C 48.934 18.916, 49.165 19.016, 49.997 18.502 C 51.017 17.872, 50.899 17.399, 49.460 16.347 C 47.193 14.689, 44.361 14.606, 43.395 16.170 M 14.554 20.999 C 14.647 23.267, 15.191 24.500, 16.099 24.500 C 16.916 24.500, 17.451 23.572, 17.382 22.273 C 17.317 21.048, 17.655 20.287, 18.132 20.582 C 18.609 20.877, 19 20.239, 19 19.165 C 19 17.753, 18.364 17.251, 16.706 17.354 C 14.747 17.476, 14.432 18.010, 14.554 20.999 M 22.114 26.750 C 22.251 31.013, 21.995 36.638, 21.545 39.250 L 20.728 44 24.327 44 L 27.925 44 28.212 34.750 L 28.500 25.500 31.844 25.180 C 38.716 24.521, 41.835 32.625, 36.365 36.927 C 34.916 38.067, 33.164 39, 32.472 39 C 31.275 39, 30 41.106, 30 43.082 C 30 43.587, 31.321 44, 32.935 44 C 40.705 44, 45.002 39.066, 44.561 30.651 C 44.335 26.343, 43.823 25.171, 41.272 23.117 C 38.640 20.998, 37.238 20.687, 30.376 20.702 L 22.500 20.719 29.500 20.036 L 36.500 19.353 29.182 19.177 L 21.865 19 22.114 26.750 M 17.871 25.750 C 17.800 26.163, 17.612 27.625, 17.453 29 C 17.293 30.375, 16.657 33.488, 16.039 35.918 C 14.855 40.570, 15.200 43, 17.045 43 C 17.757 43, 18.014 41.255, 17.763 38.109 C 17.395 33.494, 17.504 33.231, 19.686 33.471 C 21.523 33.673, 22 33.238, 22 31.362 C 22 29.705, 21.431 29, 20.094 29 C 18.680 29, 18.322 28.483, 18.710 27 C 18.998 25.900, 18.956 25, 18.617 25 C 18.277 25, 17.942 25.337, 17.871 25.750 M 9.250 38.621 C 9.250 41.372, 11.223 43.302, 13.554 42.833 C 14.898 42.562, 14.651 41.922, 12.227 39.390 C 9.324 36.357, 9.250 36.338, 9.250 38.621 M 10 39.378 C 10 39.585, 10.787 40.373, 11.750 41.128 C 13.336 42.371, 13.371 42.336, 12.128 40.750 C 10.821 39.084, 10 38.555, 10 39.378 M 15.603 44.833 C 15.320 45.292, 15.723 45.667, 16.500 45.667 C 17.277 45.667, 17.680 45.292, 17.397 44.833 C 17.114 44.375, 16.710 44, 16.500 44 C 16.290 44, 15.886 44.375, 15.603 44.833" stroke="none" fill="#000000" fill-rule="evenodd"/><path fill-opacity=".256" d="M 23.500 2.338 C 14.964 5.167, 8.318 10.586, 4.671 17.690 C 0.610 25.601, 0.524 38.311, 4.480 45.962 C 14.073 64.511, 39.741 68.318, 54.201 53.335 C 60.120 47.201, 62.491 40.914, 62.437 31.500 C 62.384 22.182, 59.810 16.044, 53.336 9.799 C 45.904 2.630, 32.635 -0.689, 23.500 2.338 M 21 14.500 C 21.685 15.325, 22.695 16, 23.245 16 C 23.803 16, 23.694 15.337, 23 14.500 C 22.315 13.675, 21.305 13, 20.755 13 C 20.197 13, 20.306 13.663, 21 14.500 M 43.750 15.080 C 42.788 15.641, 42 16.756, 42 17.558 C 42 18.760, 42.347 18.800, 43.975 17.784 C 45.451 16.862, 46.237 16.837, 47.088 17.688 C 48.362 18.962, 47.377 21.351, 45.942 20.464 C 45.437 20.152, 45.269 20.538, 45.570 21.323 C 45.872 22.108, 47.216 22.750, 48.559 22.750 C 51.366 22.750, 51.294 22.903, 50.043 19.613 C 49.268 17.573, 49.362 17.202, 50.543 17.655 C 52.441 18.383, 52.395 17.538, 50.429 15.571 C 48.634 13.776, 46.285 13.604, 43.750 15.080 M 12.250 16.689 C 14.139 17.183, 14.554 18.539, 13.094 19.442 C 11.559 20.390, 12.994 23.526, 15.817 25.390 C 17.292 26.365, 17.712 26.916, 16.750 26.613 C 15.628 26.260, 15 26.590, 15 27.531 C 15 28.339, 15.502 29, 16.117 29 C 16.829 29, 16.992 29.994, 16.567 31.750 C 15.886 34.562, 15.232 37.883, 15.083 39.285 C 14.928 40.746, 10.893 37.885, 10.007 35.685 C 9.266 33.845, 9.117 34.103, 9.063 37.321 C 8.984 42.089, 10.647 43.852, 14.668 43.262 C 17.417 42.859, 17.822 42.363, 18.297 38.821 C 18.916 34.210, 19.604 33.204, 21.109 34.709 C 21.862 35.462, 21.872 36.370, 21.144 37.731 C 20.571 38.801, 20.365 40.680, 20.686 41.906 C 21.241 44.030, 21.674 44.118, 29.884 43.782 C 34.623 43.588, 39.400 43.024, 40.500 42.528 C 42.346 41.695, 42.387 41.775, 41.038 43.563 C 40.234 44.628, 41.022 44.178, 42.788 42.563 C 44.555 40.948, 46 39.210, 46 38.702 C 46 38.194, 45.115 38.841, 44.033 40.139 C 41.723 42.912, 41.346 41.927, 43.474 38.680 C 44.976 36.388, 45.010 28.263, 43.533 24.770 C 41.997 21.138, 36.661 19, 29.132 19 L 22 19 22 24 C 22 27.778, 21.633 29, 20.500 29 C 18.946 29, 18.501 26.447, 18.949 20.109 C 19.161 17.111, 18.946 16.781, 17.095 17.265 C 15.944 17.566, 14.750 17.404, 14.442 16.906 C 14.134 16.408, 13.121 16.052, 12.191 16.116 C 10.666 16.221, 10.672 16.277, 12.250 16.689 M 29.030 34.250 C 29.053 41.049, 29.332 43.034, 30.085 41.742 C 30.648 40.775, 30.832 39.537, 30.494 38.990 C 30.156 38.444, 31.061 37.547, 32.505 36.998 C 35.902 35.707, 36.275 35.740, 35.367 37.250 C 34.857 38.099, 35.158 38.060, 36.308 37.128 C 38.291 35.519, 38.541 34.608, 36.750 35.515 C 36.063 35.863, 36.288 35.503, 37.250 34.714 C 41.169 31.501, 37.656 25, 32 25 L 29 25 29.030 34.250 M 11.216 32.975 C 11.935 34.126, 12.821 34.579, 13.338 34.062 C 14.488 32.912, 13.298 31, 11.433 31 C 10.239 31, 10.201 31.349, 11.216 32.975 M 46.079 35.583 C 46.127 36.748, 46.364 36.985, 46.683 36.188 C 46.972 35.466, 46.936 34.603, 46.604 34.271 C 46.272 33.939, 46.036 34.529, 46.079 35.583 M 60.079 36.583 C 60.127 37.748, 60.364 37.985, 60.683 37.188 C 60.972 36.466, 60.936 35.603, 60.604 35.271 C 60.272 34.939, 60.036 35.529, 60.079 36.583 M 15 45.500 C 15 46.325, 15.675 47, 16.500 47 C 17.325 47, 18 46.325, 18 45.500 C 18 44.675, 17.325 44, 16.500 44 C 15.675 44, 15 44.675, 15 45.500 M 7.980 47.962 C 10.555 52.775, 23.727 61.607, 25.573 59.760 C 25.815 59.518, 24.142 58.760, 21.856 58.075 C 19.178 57.273, 15.795 54.926, 12.349 51.479 C 9.406 48.537, 7.440 46.954, 7.980 47.962 M 33.813 46.683 C 34.534 46.972, 35.397 46.936, 35.729 46.604 C 36.061 46.272, 35.471 46.036, 34.417 46.079 C 33.252 46.127, 33.015 46.364, 33.813 46.683 M 51.967 52.282 C 50.574 53.502, 48.324 55.307, 46.967 56.294 C 44.595 58.018, 44.627 58.018, 47.810 56.294 C 49.630 55.307, 52.071 53.487, 53.234 52.250 C 55.926 49.386, 55.254 49.403, 51.967 52.282 M 30.264 60.718 C 31.784 60.947, 34.034 60.941, 35.264 60.704 C 36.494 60.467, 35.250 60.279, 32.500 60.286 C 29.750 60.294, 28.744 60.488, 30.264 60.718" stroke="none" fill="#000000" fill-rule="evenodd"/><path fill-opacity=".656" d="M 23.951 2.362 C 12.741 5.385, 3.655 15.233, 2.470 25.644 L 2.031 29.500 3.003 25.734 C 6.381 12.651, 16.160 4.158, 30.154 2.155 C 35.104 1.447, 35.620 1.235, 32.500 1.191 C 30.300 1.160, 26.453 1.687, 23.951 2.362 M 41.521 3.801 C 46.499 5.523, 53.511 9.822, 52.686 10.648 C 52.450 10.884, 49.962 9.650, 47.157 7.907 C 41.077 4.128, 31.010 2.897, 23.460 5.011 C 17.955 6.552, 9.759 13.593, 6.865 19.265 C -1.782 36.215, 10.114 57.359, 29.583 59.643 C 40.201 60.888, 52.226 54.357, 57.175 44.658 C 60.602 37.940, 60.917 23.944, 57.737 19.694 C 56.616 18.196, 56.182 18.320, 53.114 21.020 C 51.252 22.659, 49.354 24, 48.896 24 C 48.438 24, 48.322 24.675, 48.638 25.500 C 49.557 27.893, 48.056 27.233, 46.932 24.750 C 45.274 21.085, 43.031 17.433, 43.015 18.372 C 43.007 18.852, 42.325 18.685, 41.500 18 C 39.673 16.484, 39.575 15.384, 41.250 15.183 C 41.938 15.101, 43.918 14.756, 45.651 14.418 C 48.056 13.948, 49.294 14.294, 50.878 15.878 C 53.210 18.210, 56.161 17.740, 55.344 15.167 C 54.388 12.162, 58.919 18.383, 59.990 21.547 C 60.557 23.223, 61.449 27.273, 61.973 30.547 L 62.924 36.500 62.467 30.157 C 61.916 22.496, 59.468 16.631, 54.548 11.185 C 50.694 6.918, 42.058 1.977, 38.554 2.033 C 37.424 2.051, 38.759 2.847, 41.521 3.801 M 20 13.300 C 20 14.015, 20.540 15.140, 21.200 15.800 C 22.078 16.678, 22.091 17, 21.248 17 C 20.539 17, 19.959 19.405, 19.740 23.250 L 19.385 29.500 19.193 22.844 C 19.019 16.845, 18.812 16.236, 17.102 16.684 C 16.058 16.956, 14.286 16.688, 13.163 16.087 C 10.831 14.839, 9.690 15.898, 11.051 18.048 C 11.737 19.133, 11.973 19.169, 11.985 18.191 C 11.993 17.471, 12.472 17.174, 13.049 17.530 C 13.774 17.979, 13.761 18.583, 13.005 19.493 C 11.814 20.929, 12.715 26.294, 14.013 25.492 C 14.453 25.220, 14.571 25.923, 14.275 27.055 C 13.933 28.363, 13.198 28.906, 12.257 28.545 C 11.238 28.154, 10.958 28.447, 11.357 29.489 C 11.713 30.417, 11.367 31, 10.460 31 C 9.233 31, 9.194 31.339, 10.234 33.003 C 11.753 35.436, 13.068 35.126, 14.833 31.921 L 16.166 29.500 15.596 32 C 15.283 33.375, 15.021 35.545, 15.014 36.823 C 14.996 39.892, 11.999 39.383, 10.326 36.027 C 9.384 34.137, 8.969 33.917, 8.525 35.074 C 6.846 39.448, 10.054 44.449, 13.926 43.494 C 16 42.982, 16.257 43.105, 15.250 44.129 C 13.442 45.967, 13.712 47, 16 47 C 17.717 47, 18.002 46.328, 18.015 42.250 C 18.024 39.638, 18.371 36.964, 18.788 36.309 C 19.204 35.654, 19.535 37.679, 19.522 40.809 L 19.500 46.500 28 46.768 C 38.730 47.106, 42.516 45.451, 45.769 39 C 47.810 34.951, 47.879 34.384, 46.454 33.342 C 44.828 32.154, 44.797 29.009, 46.400 27.849 C 47.945 26.729, 43.599 20.584, 39.966 18.752 C 37.799 17.659, 34.217 17.003, 30.411 17.002 C 24.886 17, 24.215 16.768, 23.182 14.500 C 21.977 11.855, 20 11.110, 20 13.300 M 29.750 25.662 C 30.438 25.940, 31.563 25.940, 32.250 25.662 C 32.938 25.385, 32.375 25.158, 31 25.158 C 29.625 25.158, 29.063 25.385, 29.750 25.662 M 31 31.500 C 31 35.357, 31.290 36, 33.032 36 C 35.616 36, 37.087 32.285, 35.704 29.250 C 35.140 28.012, 33.851 27, 32.839 27 C 31.326 27, 31 27.798, 31 31.500 M 2.110 36.590 C 1.963 40.727, 7.341 51.265, 11.308 54.615 C 15.706 58.329, 23.890 62.001, 27.500 61.881 C 29.962 61.799, 29.719 61.627, 26.147 60.925 C 15.068 58.747, 5.259 48.874, 3.044 37.674 C 2.313 33.976, 2.207 33.852, 2.110 36.590 M 61.094 38.500 C 60.846 42.096, 57.305 48.629, 53.589 52.344 C 49.554 56.380, 43.992 59.519, 38.266 60.995 L 34.500 61.966 39 61.431 C 47.424 60.431, 56.199 53.326, 60.210 44.259 C 61.266 41.871, 61.928 39.148, 61.681 38.208 C 61.314 36.813, 61.207 36.867, 61.094 38.500" stroke="none" fill="#000000" fill-rule="evenodd"/></svg>