<svg xmlns="http://www.w3.org/2000/svg" width="200" height="200" fill="#000000"><path fill-opacity=".09" fill-rule="evenodd" d="M80.323 44.781c-2.847.956-5.509 2.072-5.916 2.479s-1.565.74-2.574.74S70 48.675 70 49.5c0 .889.917 1.5 2.25 1.5 4.091 0 15.318 2.715 20.324 4.916a6191 6191 0 0 0 7.676 3.369c1.513.662 2.75 1.543 2.75 1.959s.499.756 1.108.756c3.732 0 23.731 19.481 31.056 30.25 2.151 3.162 4.36 5.75 4.909 5.75s1.952-2.138 3.117-4.75c2.949-6.609 3.207-23.103.442-28.178-3.221-5.913-12.927-13.784-22.132-17.948-1.65-.747-3.9-1.863-5-2.482-1.162-.653-8.078-1.224-16.5-1.362-11.594-.191-15.537.11-19.677 1.501M64.5 54.225c-1.65.587-3.9 1.681-5 2.431-3.708 2.529-45.5 43.641-45.5 44.759 0 1.638 32.474 33.777 33.297 32.954.387-.386.703-4.16.703-8.386 0-11.381 2.591-18.642 11.593-32.483C66.9 82.263 88.393 62 93.003 62c1.597 0 .818-3.127-1.003-4.027-9.288-4.59-20.743-6.151-27.5-3.748m83.247 24.525c-.292 4.813-1.277 11-2.189 13.75-5.356 16.152-18.6 32.936-35.947 45.555-4.117 2.995-7.514 5.931-7.548 6.526-.109 1.87 5.366 4.049 14.937 5.946 7.675 1.521 14.776.406 19.5-3.062 5.438-3.992 44.5-43.111 44.5-44.565 0-1.333-30.821-32.9-32.123-32.9-.33 0-.838 3.938-1.13 8.75m-94.63 32.5c-.997 2.338-2.367 7.205-3.044 10.818-1.483 7.916.158 15.924 4.406 21.494 2.927 3.837 10.857 10.014 17.021 13.258 15.078 7.934 35.376 8.368 49.736 1.063.955-.486 2.418-.883 3.25-.883 1.821 0 2.033-1.926.264-2.392-.687-.181-5.238-1.088-10.111-2.016-15.698-2.988-26.732-9.596-41.901-25.092-5.137-5.247-12.747-14.78-14.675-18.382-1.681-3.141-2.927-2.604-4.946 2.132"/><path fill-opacity=".263" fill-rule="evenodd" d="M80.5 45.61c-9.58 3.25-9.855 3.368-9.276 3.948.281.281 3.383.965 6.894 1.521 7.635 1.209 11.265 2.403 19.921 6.554 12.402 5.947 28.715 20.944 38.013 34.945l3.877 5.838 1.979-4.475c3.304-7.47 4.323-16.634 2.589-23.291-1.984-7.619-3.56-9.787-11.37-15.649-6.094-4.573-13.081-7.995-22.198-10.874-6.319-1.994-22.504-1.206-30.429 1.483M62.057 56.06c-3.088 1.4-10.953 8.481-25.779 23.207-11.735 11.656-21.211 21.721-21.057 22.368C15.58 103.149 44.739 133 45.858 133c.465 0 1.121-3.713 1.458-8.25.562-7.571 3.36-17.484 6.745-23.895C59.849 89.891 72.272 75.958 84.426 66.8c4.441-3.346 8.074-6.583 8.074-7.192s-2.925-2.088-6.5-3.285c-8.543-2.861-17.988-2.965-23.943-.263m86.22 22.483c-.354 11.99-3.903 21.694-12.492 34.154-5.671 8.226-18.43 20.868-27.561 27.308-3.423 2.414-6.224 4.667-6.224 5.007 0 1.597 13.593 5.26 19.816 5.34 11.635.15 12.409-.367 36.934-24.689 12.238-12.136 22.249-22.312 22.249-22.614-.003-.804-31.038-32.05-31.829-32.045-.368.002-.77 3.395-.893 7.539m-93.891 31.211c-.603.965-1.885 4.901-2.849 8.747-3.136 12.504-.604 21.749 8.041 29.359 6.012 5.291 12.164 8.71 21.098 11.721 11.668 3.933 28.677 3.029 40.824-2.168l4-1.712-8.5-1.738c-10.468-2.141-13.174-3.003-19.509-6.217-12.01-6.093-26.685-19.373-35.991-32.569-2.75-3.9-5.229-7.11-5.509-7.134s-1.003.746-1.605 1.711"/><path fill-opacity=".328" fill-rule="evenodd" d="M89 44.17c-1.925.531-6.65 1.947-10.5 3.148l-7 2.182 5.5.642c8.301.969 12.625 2.342 21.643 6.872 12.557 6.308 28.234 20.561 37.105 33.736 1.944 2.888 3.913 5.25 4.375 5.25.461 0 1.1-1.237 1.418-2.75.319-1.513 1.003-3.531 1.519-4.486.517-.955.94-5.779.94-10.72 0-12.698-2.115-16.216-15.071-25.069-4.86-3.32-10.687-5.674-22.5-9.088-3.885-1.122-12.864-.977-17.429.283M64.109 55.927c-4.816 1.663-7.737 4.206-27.351 23.82L14.8 101.706l14.721 15.147c8.097 8.331 15.005 15.146 15.351 15.145.345-.001 1.394-4.708 2.33-10.461 2.088-12.832 6.079-21.875 14.67-33.235 6.689-8.846 15.236-17.099 24.378-23.541C89.412 62.533 92 60.314 92 59.83c0-1.176-4.201-2.791-11.5-4.421-7.9-1.763-9.976-1.697-16.391.518m84.601 24.386c-1.458 20.659-16.051 42.698-39.221 59.232-3.569 2.547-6.489 4.97-6.489 5.384s2.813 1.613 6.25 2.663c8.772 2.678 21.216 2.576 25.617-.211 1.785-1.13 12.905-11.676 24.711-23.435l21.464-21.38-15.259-15.283C157.391 78.877 150.248 72 149.911 72c-.338 0-.878 3.741-1.201 8.313M53.398 114.25c-2.579 7.678-2.389 20.019.391 25.393 2.705 5.23 9.93 11.445 17.696 15.221 8.312 4.042 10.9 4.865 19.515 6.206 7.536 1.172 12.262.647 26.372-2.932 5.857-1.486 6.887-3.138 1.956-3.138-6.874 0-19.518-4.657-29.142-10.734-10.417-6.577-29.066-25.519-32.462-32.972-1.554-3.41-2.377-2.848-4.326 2.956"/><path fill-opacity=".521" fill-rule="evenodd" d="M66.5 55.626c-5.445 1.388-9.607 4.889-29.391 24.726l-21.391 21.447 14.891 15.184L45.5 132.167l.642-7.741c.787-9.492 2.055-13.608 7.422-24.099C60.528 86.715 74.1 71.845 87.315 63.346c2.099-1.349 3.658-2.927 3.465-3.505-.868-2.605-18.552-5.675-24.28-4.215m83.217 24.205c-.322 3.851-1.163 8.952-1.868 11.335-2.361 7.984-8.609 19.264-15.14 27.334-6.408 7.918-19.635 20.032-26.327 24.112l-3.464 2.111 2.791.999c7.589 2.716 10.468 3.278 16.791 3.278 3.772 0 8.294-.519 10.049-1.154 1.956-.707 11.762-9.707 25.333-23.25l22.142-22.097-14.86-14.835-14.86-14.835z"/></svg>