<svg xmlns="http://www.w3.org/2000/svg" width="64" height="64" fill="#000000"><path fill-opacity=".314" fill-rule="evenodd" d="M20.752 4.889c-4.811 2.536-8.748 4.876-8.75 5.2-.001.325 1.236 1.146 2.748 1.826s8.283 4.163 15.046 7.741l12.296 6.504-4.916 2.533-4.915 2.533-13.478-7.113C11.371 20.201 4.859 17 4.313 17 2.206 17 1 22.493 1 32.087c0 14.889.602 15.731 17.451 24.413l13.584 7 13.558-7C62.399 47.822 63 46.979 63 32.087 63 22.805 61.797 17 59.873 17c-.443 0-2.283.702-4.089 1.561-3.247 1.543-3.396 1.502-13.132-3.629l-9.848-5.189 4.542-2.653 4.542-2.653-4.194-2.221C35.387.994 32.6.058 31.5.136s-5.936 2.217-10.748 4.753m11.089 37.414-9.659 5.245 4.932 2.629 4.932 2.63 10.135-5.306 10.135-5.307-5.125-2.597c-2.818-1.428-5.252-2.584-5.408-2.568s-4.63 2.39-9.942 5.274"/><path fill-opacity=".417" fill-rule="evenodd" d="M21.769 4.794C16.967 7.382 13.035 9.725 13.031 10s6.507 3.875 14.469 8l14.476 7.5.012 5.579.012 5.579L47 39c2.75 1.288 5 2.711 5 3.162s-4.522 3.089-10.048 5.862l-10.049 5.043-10.108-5.437-10.109-5.437 5.18-2.625 5.18-2.625 4.315 2.528C28.734 40.862 30.974 42 31.338 42S32 39.623 32 36.717v-5.283l-14.109-7.349C6.676 18.243 3.602 17.019 2.906 18.118c-.481.76-.882 7.094-.891 14.076-.019 15.648-.36 15.166 17.235 24.336L32 63.176l12.75-6.646c17.595-9.17 17.254-8.688 17.235-24.336-.009-6.982-.399-13.298-.867-14.037-.694-1.095-1.531-.993-4.551.556l-3.7 1.899-10.616-5.446-10.615-5.445 4.682-2.38C38.893 6.032 41 4.754 41 4.501c0-.736-7.79-4.505-9.21-4.457-.71.024-5.219 2.162-10.021 4.75"/><path fill-opacity=".569" fill-rule="evenodd" d="m22.146 4.928-9.355 4.851 10.855 5.744C44.505 26.561 43 25.328 43 31.383v5.299l5.129 2.792 5.129 2.791-9.879 5.349c-5.434 2.942-10.498 5.357-11.255 5.367C30.331 53.006 12 43.096 12 42.103c0-.419 2.286-1.832 5.08-3.14l5.079-2.379 4.976 2.797 4.976 2.797-.306-5.339L31.5 31.5 18 24.339C5.978 17.963 4.363 17.354 3.25 18.78c-1.838 2.356-1.695 23.459.184 27.092 1.042 2.015 5.141 4.723 15 9.911L32 62.922l13.566-7.139c9.859-5.188 13.958-7.896 15-9.911 1.73-3.344 2.009-23.929.367-26.997-1.062-1.985-1.082-1.985-4.609.096l-3.543 2.09-9.64-5.123c-5.303-2.818-10.043-5.506-10.534-5.974-.507-.482 1.13-1.834 3.78-3.121l4.674-2.271-4.28-2.241C34.426 1.099 32.275.087 32 .084c-.275-.004-4.709 2.176-9.854 4.844"/><path fill-opacity=".545" fill-rule="evenodd" d="M25.75 3.064C22.587 4.696 20 6.256 20 6.53c0 .275 2.7-.864 6-2.53s6-3.247 6-3.514c0-.667.185-.744-6.25 2.578m10.111-.189 3.36 1.791-3.15 1.305c-1.733.717-3.695 2.049-4.361 2.958s-2.584 2.615-4.264 3.791l-3.054 2.137-5.196-2.841C16.338 10.453 14 9.492 14 9.879c0 1.221 11.074 6.194 12.218 5.487.642-.398.806-.213.397.447-.857 1.388 12.969 8.562 14.581 7.566.675-.417.832-.233.399.466-.392.635-.236 1.155.346 1.155.624 0 1.059 2.396 1.059 5.839 0 5.304.236 5.948 2.575 7.013 1.416.645 3.002.909 3.525.586.522-.322.826-.047.675.613-.151.659.228 1.385.843 1.613.765.284 1.175-2.514 1.3-8.875.101-5.109.547-9.418.991-9.575s1.659-.97 2.699-1.805c1.794-1.441 1.777-1.464-.334-.442-1.866.904-3.689.343-11.293-3.477-4.988-2.505-9.568-4.245-10.179-3.867-.673.415-.83.231-.397-.468.392-.635.236-1.155-.346-1.155-2.512 0-.711-2.195 3.466-4.224l4.525-2.199-3.275-1.746C35.974 1.87 34.05 1.084 33.5 1.084s.512.806 2.361 1.791M17 8c-.901.582-1.025.975-.309.985.655.008 1.469-.435 1.809-.985.767-1.242.421-1.242-1.5 0m24 8.459c0 .275 1.8 1.419 4 2.541s4 1.816 4 1.541-1.8-1.419-4-2.541-4-1.816-4-1.541M2.991 19.525c-1.342 3.528-1.259 21.409.117 25.356 1.164 3.339 6.118 6.716 8.076 5.505.675-.417.848-.246.431.428-.859 1.389 14.967 9.562 16.582 8.564.725-.448.827-.226.293.637-.599.97-.358 1.149.898.666.949-.364 1.462-.247 1.148.261-.313.506-.111 1.202.448 1.548.635.392 1.016-1.192 1.016-4.223v-4.85l-5.563-2.729c-3.06-1.5-6.054-2.425-6.655-2.054-.605.374-.808.218-.457-.351.349-.565-1.381-2.096-3.845-3.403L11 42.503v-5.81c0-6.218-.105-6.169 5.262-2.453 1.519 1.052 2.508 2.323 2.198 2.825s.132.645.982.319c.851-.327 1.324-.953 1.053-1.392-.272-.44 1.935.516 4.903 2.124l5.397 2.923.367-4.61c.29-3.646-.007-4.811-1.418-5.566-.982-.526-2.296-.64-2.919-.255-.684.423-.859.255-.44-.422.859-1.389-14.967-9.562-16.582-8.564-.725.448-.827.226-.293-.637.599-.97.358-1.149-.898-.666-.969.372-1.464.25-1.136-.28.319-.516-.337-1.429-1.457-2.029-1.751-.937-2.177-.724-3.028 1.515M30 17.459c0 .275 1.8 1.419 4 2.541s4 1.816 4 1.541-1.8-1.419-4-2.541-4-1.816-4-1.541M3.36 32c0 5.225.169 7.362.375 4.75s.206-6.888 0-9.5-.375-.475-.375 4.75M13 23.459c0 .275 1.8 1.419 4 2.541s4 1.816 4 1.541-1.8-1.419-4-2.541-4-1.816-4-1.541M61.36 32c0 5.225.169 7.362.375 4.75s.206-6.888 0-9.5-.375-.475-.375 4.75m-9.919 11.555c-1.864 1.494-1.852 1.512.309.465 1.237-.6 2.25-1.3 2.25-1.555 0-.765-.519-.544-2.559 1.09M39.75 49.563C36.038 51.469 33 53.252 33 53.526c0 .275 3.15-1.087 7-3.026s7-3.744 7-4.013c0-.67.28-.789-7.25 3.076M5 47.393c0 .216.698.661 1.552.989.89.341 1.291.173.941-.393C6.906 47.038 5 46.583 5 47.393m51.507 1.596c-.35.566.051.734.941.393 1.732-.665 2.049-1.382.611-1.382-.518 0-1.216.445-1.552.989M25 51.449c0 .275 1.35 1.198 3 2.051s3 1.326 3 1.051-1.35-1.198-3-2.051-3-1.326-3-1.051m18.75 4.112c-4.812 2.453-8.75 4.685-8.75 4.96 0 .274 4.05-1.535 9-4.021s9-4.741 9-5.01c0-.676.468-.882-9.25 4.071M15 52.466c0 .275 2.25 1.64 5 3.034s5 2.309 5 2.034-2.25-1.64-5-3.034-5-2.309-5-2.034"/></svg>