<svg xmlns="http://www.w3.org/2000/svg" width="200" height="200" fill="#000000"><path fill-opacity=".275" fill-rule="evenodd" d="M0 100.005V200.01l100.25-.255 100.25-.255.255-99.75L201.01 0H0zm.481.495c0 55 .121 77.647.269 50.326.148-27.32.148-72.32 0-100C.602 23.147.481 45.5.481 100.5M101.5 27.764c2.012 1.991 6.253 4.069 12.874 6.308 11.861 4.012 18.79 8.622 23.854 15.871 4.297 6.149 4.934 5.283 1.336-1.816-4.39-8.664-11.767-13.761-25.487-17.611-5.183-1.454-10.808-3.336-12.5-4.182L98.5 24.795zm-17.767 1.36c.679.684 1.486.991 1.793.683.308-.308-.247-.867-1.233-1.243-1.425-.542-1.54-.428-.56.56m-29.446 5.005c1.749 2.861 6.34 5.442 13.203 7.423 5.083 1.468 7.808 1.599 18 .865 26.024-1.873 33.875-.39 43.433 8.204l5.02 4.513-1.099-3.153c-1.677-4.81-8.54-10.813-14.327-12.532-8.098-2.405-14.31-2.746-27.551-1.511-14.618 1.363-24.505.335-32.65-3.394-4.917-2.251-5.168-2.277-4.029-.415m63.384 18.621c.87 2.503 3.344 4.25 6.02 4.25 3.49 0 2.776-1.721-1.651-3.98-4.827-2.462-5.138-2.481-4.369-.27m-21.858 2.933c.721.289 1.584.253 1.916-.079s-.258-.568-1.312-.525c-1.165.048-1.402.285-.604.604m46.579 7.896c-1.71.844-4.635 3.116-6.5 5.05-3.75 3.888-4.144 3.721 4.459 1.889 7.844-1.67 14.205 4.975 12.69 13.259-.425 2.323-.601 4.223-.392 4.223s1.272-1.463 2.362-3.25c3.868-6.344 2.153-16.116-3.626-20.662-3.143-2.472-4.822-2.567-8.993-.509"/><path fill-opacity=".556" fill-rule="evenodd" d="M0 100.005V200.01l100.25-.255 100.25-.255.255-99.75L201.01 0l-48.255.131c-28.538.078-45.547.448-41.629.906 34.444 4.023 66.782 28.17 79.888 59.652 2.752 6.61 6.189 19.236 5.473 20.105-.399.485-5.858 1.472-7.737 1.398-.982-.038-1.774.673-1.805 1.62-.03.928-.923-1.687-1.984-5.812s-4.156-12-6.877-17.5c-8.827-17.84-21.749-30.762-39.584-39.581-22.85-11.3-46.04-12.726-70-4.304-5.5 1.933-10.562 3.561-11.25 3.617-.687.056-1.25.401-1.25.768s-.655.667-1.456.667-1.224-.375-.941-.834S53.376 20 52.469 20s-2.493-1.013-3.525-2.25c-2.202-2.639-2.564-4.509-.549-2.837 1.106.917 1.364.795 1.25-.589C49.359 10.871 71.39 2.977 86.867.987 89.965.588 71.688.203 46.25.131L0 0zm.481.495c0 55 .121 77.647.269 50.326.148-27.32.148-72.32 0-100C.602 23.147.481 45.5.481 100.5m98.906-74.358c1.851 2.643 6.147 5.813 13.006 9.599 3.359 1.853 4.982 3.007 3.607 2.564s-13.3-.805-26.5-.805c-23.644 0-24.092-.039-30.216-2.62-4.877-2.056-6.016-2.271-5.29-1 1.634 2.862 8.399 8.822 12.006 10.579l3.5 1.704-2.951-2.448-2.951-2.447 5.933 1.075c4.481.812 5.343 1.215 3.525 1.644-1.324.312-2.612 1.181-2.862 1.93-.258.776.003 1.08.607.706.584-.361 1.343-.198 1.689.361.959 1.551 13.353 1.211 22.15-.608 14.569-3.013 28.901.113 36.818 8.03 3.918 3.917 4.35 4.096 7.877 3.262 4.04-.955 4.067-1.151 1.142-8.308-1.759-4.305-7.971-10.98-12.893-13.856-2.246-1.312-7.684-3.36-12.084-4.551s-10.107-3.163-12.682-4.381c-4.084-1.932-4.522-1.987-3.431-.43m-22.46.26q3.196 3.874 11.566 4.972c4.605.604 4.828.539 2.878-.827-1.163-.815-4.255-1.961-6.87-2.547s-5.71-1.574-6.878-2.196c-1.94-1.034-2-.983-.696.598M117 51.777c0 2.59 3.367 5.223 6.679 5.223 3.204 0 3.427-.168 2.193-1.655-.754-.91-2.82-2.26-4.59-3-3.723-1.556-4.282-1.63-4.282-.568m-16 2.964c-6.096.421-14.323 2.432-19.743 4.826-7.045 3.113-16.393 9.404-15.682 10.555.316.51.203.804-.251.653-.864-.288-1.324.504-1.324 2.284 0 .582.487.758 1.083.39.595-.368.313.819-.628 2.638l-1.711 3.308 4.594-4.043c5.749-5.061 15.319-9.824 23.715-11.803 6.655-1.569 21.955-2.126 21.937-.799-.006.413-1.787 1.496-3.959 2.408-2.319.974-4.79 3.037-5.986 5-2.677 4.391-2.592 5.691.205 3.133 2.585-2.363 9.272-5.944 8.367-4.48-.795 1.285 3.984 2.451 6.619 1.614 1.51-.479 1.917-.288 1.511.71-2.195 5.397-2.185 5.414 1.336 2.365 1.905-1.65 5.816-4.089 8.691-5.421 2.874-1.331 5.226-2.718 5.226-3.081 0-1.257-5.271-3.475-7.548-3.176-3.541.464-10.066-1.627-13.157-4.216-2.853-2.39-7.054-3.295-13.295-2.865m40.5 9.136c-1.65 1.028-4.322 3.277-5.937 4.996L132.626 72h5.286c2.907 0 6.836.736 8.731 1.635 5.362 2.544 7.802 8.796 5.276 13.516-1.778 3.322-.306 3.202 2.096-.172 5.217-7.326 4.561-16.51-1.564-21.888-4.049-3.555-6.719-3.851-10.951-1.214M59.823 74.809c-1.172 1.498-1.134 1.543.33.399 1.303-1.018 1.74-1.028 2.067-.049.288.865.62.91 1.091.147 1.14-1.844-2.075-2.301-3.488-.497M45.872 78.75c-1.243 1.586-1.208 1.621.378.378C47.916 77.821 48.445 77 47.622 77c-.207 0-.995.787-1.75 1.75m-5.105 4.5c-3.093 4.068-6.07 9.78-5.432 10.418.265.266.775-.439 1.133-1.566.357-1.127 2.206-4.311 4.108-7.076 3.87-5.626 3.994-6.779.191-1.776m54.545 13.47c.497 11.551 4.818 20.21 14.881 29.815 4.013 3.831 7.201 7.259 7.084 7.619s.534 1.26 1.447 2 1.351.831.974.201c-.378-.63-.037-1.395.757-1.699 1.014-.389 1.258-.072.82 1.069-.44 1.148-.194 1.458.843 1.06.806-.309 2.32.062 3.365.826 2.262 1.654 4.919 1.848 3.955.289-.485-.784-.08-.779 1.412.02 1.731.926 7.851.712 8.874-.311.669-.669-2.265-7.438-4.911-11.331-3.181-4.679-8.105-8.343-17.703-13.174-11.055-5.564-16.159-10.697-20.38-20.494l-1.771-4.11zm38.188 9.098c6.898 4.083 13.733 10.309 17.409 15.858 3.969 5.992 4.008 3.455.053-3.44-3.937-6.866-11.139-12.142-20.049-14.687-1.327-.379-.163.642 2.587 2.269m-24.307 12.424c3.621 5.462 18.131 20.286 18.569 18.971.846-2.538-3.351-8.587-8.666-12.488-3.078-2.259-7.123-5.484-8.99-7.166l-3.393-3.059z"/><path fill-opacity=".598" fill-rule="evenodd" d="M0 100.005V200.01l100.25-.255 100.25-.255.255-99.75L201.01 0l-46.755.122c-29.338.076-44.637.433-41.069.956 15.421 2.262 34.407 10.246 46.855 19.703 24.536 18.641 38.992 47.384 38.942 77.427-.021 12.242-2.18 23.759-4.724 25.196-1.823 1.03-8.745 1.749-7.807.811.292-.292.044-1.118-.552-1.835-.776-.936-.774-2.741.009-6.391 1.38-6.436 1.397-23.512.03-31.932-1.314-8.103-6.557-22.171-11.022-29.576-17.843-29.591-51.76-46.35-85.964-42.476-16.356 1.853-33.041 8.548-45.777 18.369-5.38 4.148-18.007 17.048-18.021 18.411-.004.351-.828.96-1.831 1.356-1.003.395-1.235.75-.515.789.72.038 1.064.466.765.951-.784 1.268-5.522 2.012-6.167.969A1.03 1.03 0 0 0 16 52.5c-1.039.642-2.356-1.297-2.536-3.732-.073-.995.562-1.775 1.453-1.783 1.233-.012 1.292-.2.266-.851-.989-.627.148-2.677 4.568-8.234C36.792 16.474 57.355 5.25 88 .648 89.375.441 70.138.211 45.25.136L0 0zm.481.495c0 55 .121 77.647.269 50.326.148-27.32.148-72.32 0-100C.602 23.147.481 45.5.481 100.5m98.408-74.708c1.315 2.458 6.392 6.3 12.307 9.315l4.697 2.393-22.197.281c-22.801.289-27.914-.258-36.446-3.897-2.337-.997-4.25-1.585-4.25-1.306s2.137 2.805 4.75 5.612c9.092 9.77 18.652 11.788 38.572 8.143 7.618-1.393 10.227-1.474 15.935-.496 8.218 1.41 15.145 4.752 19.82 9.566 3.286 3.383 3.651 3.511 7.199 2.531 3.404-.94 3.68-1.273 3.089-3.733-1.854-7.719-8.402-15.585-16.365-19.659-2.475-1.266-8.02-3.263-12.323-4.439-4.303-1.175-9.619-3.053-11.814-4.173-3.815-1.946-3.945-1.952-2.974-.138m-20.948 1.59c2.596 2.821 10.404 5.638 15.491 5.588 2.591-.026 2.793-.191 1.297-1.062-.974-.567-1.533-1.417-1.241-1.888.535-.866-1.291-1.363-9.488-2.583-2.475-.368-5.4-1.128-6.5-1.689-1.685-.859-1.615-.601.441 1.634M117 51.889c0 1.473 3.395 4.985 5 5.173.825.096 2.343.122 3.372.056 1.584-.1 1.672-.36.573-1.684-2.489-2.999-8.945-5.558-8.945-3.545m-65 6.352c-7.832 2.761-13.308 4.086-17.17 4.156-5.068.092-5.869.885-1.8 1.78.809.178 1.801.773 2.205 1.323.458.624.74.542.75-.219.008-.67.663-.97 1.454-.666C41.205 66.06 57.1 60.57 63.5 55.613c2.905-2.251 1.307-1.885-11.5 2.628m43.129-3.173c-6.67 1.18-15.453 4.681-22.771 9.077-9.567 5.747-22.553 21.499-23.65 28.686-.178 1.165-.635 2.429-1.016 2.81-.38.381-.692 1.099-.692 1.597s.668.237 1.485-.58 2.617-1.361 4-1.209c1.685.185 2.515-.216 2.515-1.215 0-2.764 6.155-12.276 11.083-17.127C71.581 71.696 79.81 66.986 88 64.565c7.203-2.13 22.467-3.236 23.419-1.697.403.653.055 1.132-.825 1.132-2.66 0-8.501 6.004-9.564 9.832-1.24 4.465-1.24 6.505.001 3.418.898-2.233 2.969-3.132 2.969-1.289 0 1.136 4.018 5.039 5.189 5.039.446 0 .811-.493.811-1.096 0-1.988 4.107-6.908 7.027-8.418l2.87-1.484-1.448 3.467c-2.01 4.809-1.827 5.134 1 1.774 1.346-1.6 5.284-4.402 8.75-6.226 3.465-1.824 6.477-3.462 6.693-3.641 1.09-.907-4.676-4.346-6.72-4.008-3.914.646-10.527-1.346-13.316-4.011-3.093-2.957-10.859-3.858-19.727-2.289m47.297 7.898C139.94 63.972 131 72.736 131 74.167c0 .618 1.506.754 3.887.352 9.194-1.553 16.117 3.062 16.274 10.848.081 4.071.289 4.505 1.625 3.4 2.209-1.828 5.166-8.778 5.192-12.201.033-4.339-3.76-11.402-7.031-13.093-3.155-1.632-5.41-1.766-8.521-.507M45.993 78.358c-5.907 4.336-12.087 13.882-11.937 18.439.031.937.818-.115 1.75-2.336 2.755-6.569 6.04-11.173 11.015-15.437 5.669-4.86 5.295-5.161-.828-.666m27.429 7.632c-7.781 7.869-13.205 16.896-14.07 23.414l-.675 5.085-1.233-3.994-1.234-3.995-.028 7c-.016 3.85.5 8.689 1.145 10.754l1.173 3.755 3.159-1.934c3.032-1.857 3.161-2.207 3.23-8.755.127-11.995 4.698-24.972 11.661-33.107 5.11-5.97 3.79-5.22-3.128 1.777m21.197 4.392c-1.062 4.232 1.259 15.625 4.542 22.294 1.906 3.871 6.519 9.935 12.333 16.214 5.109 5.516 10.231 11.976 11.382 14.355 2.479 5.12 4.336 14.063 3.561 17.151-.364 1.45.14 2.816 1.49 4.038 1.99 1.801 2.125 1.788 5.538-.544 5.461-3.732 7.864-10.396 7.342-20.355-.737-14.038-6.126-21.174-22.601-29.928-12.222-6.495-18.479-12.898-21.669-22.178-1.245-3.619-1.269-3.633-1.918-1.047M33.232 102c0 1.925.206 2.713.457 1.75.252-.963.252-2.537 0-3.5-.251-.963-.457-.175-.457 1.75m101.626 4.986c7.979 5.158 14.371 11.601 17.529 17.672 2.894 5.561 3.319 4.772 1.038-1.924-2.281-6.694-8.418-13.151-15.887-16.716-8.801-4.2-10.005-3.766-2.68.968m-57.155 7.645c-.387.386-.703 3.535-.703 6.998C77 127.993 80.214 139 82.072 139c.51 0 .928.648.928 1.441s.52 1.762 1.155 2.154c.763.473.88.271.345-.595-.551-.892-.42-1.068.414-.553.672.415.993 1.352.714 2.081-.28.729.165 1.885.988 2.568 1.213 1.007 1.439.974 1.19-.177-.234-1.085.669-1.342 3.838-1.093 2.28.179 4.44-.154 4.802-.739.373-.603.094-.858-.644-.589-2.227.813-13.811-17.549-16.267-25.784-.621-2.082-1.446-3.47-1.832-3.083m34.797 7.426c1.65 1.894 5.816 6.109 9.259 9.367 5.881 5.566 6.191 5.731 5.148 2.738-1.146-3.287-8.332-10.218-14.115-13.614l-3.292-1.934zM95.516 139.75c2.995 5.612 4.055 6.459 4.055 3.238 0-1.106-1.543-3.468-3.429-5.25l-3.429-3.238zM101 145c0 .55.477 1 1.059 1s.781-.45.441-1-.816-1-1.059-1-.441.45-.441 1"/><path fill-opacity=".788" fill-rule="evenodd" d="M.054 38.75.107 77.5 2.369 70c7.48-24.81 26.329-47.158 49.838-59.089C59.93 6.992 71.176 3.31 80.655 1.597 87.989.272 85.615.174 44.25.09L0 0zM119 1.985c21.478 4.659 38.15 13.914 53.13 29.494 15.86 16.494 25.335 37.399 27.203 60.021.182 2.2.406-17.487.499-43.75L200 0l-44.75.07-44.75.071zM79.5 13.588C52.899 19.455 30.839 36.891 18.883 61.5c-5.974 12.298-7.94 20.228-8.549 34.5-.4 9.352-.132 14.389 1.065 20 .88 4.125 1.555 8.625 1.501 10l-.099 2.5-.707-2.5-.707-2.5-.693 2.5c-.572 2.059-.868 2.235-1.679 1-.831-1.267-.987-1.212-1 .357-.01 1.219-.519 1.663-1.483 1.294-.807-.31-1.746-.114-2.086.436-.858 1.388 1.526 4.036 2.917 3.242.625-.357.786-.264.358.206-2.136 2.348-3.701 1.037-5.229-4.38-.876-3.11-1.76-6.105-1.964-6.655s-.406 16.89-.449 38.755L0 200.01l100.25-.255 100.25-.255.312-31.5c.172-17.325-.025-38.925-.438-48-.694-15.224-.811-15.959-1.517-9.5-1.698 15.538-8.9 33.634-18.505 46.5l-4.852 6.5-5.25.126c-2.887.07-5.25-.268-5.25-.75s-.673-.876-1.496-.876c-.951 0 .325-2.259 3.506-6.207 15.921-19.758 22.952-46.778 18.551-71.293-3.289-18.322-10.354-32.112-23.5-45.865-10.427-10.909-24.539-19.439-39.24-23.721-9.857-2.87-33.094-3.582-43.321-1.326M98.92 25.85c1.296 2.421 7.362 7.254 12.256 9.765l3.676 1.885-21.547.277c-22.949.295-28.859-.468-37.408-4.83-4.417-2.253-4.384-1.791.302 4.237 3.843 4.943 11.79 9.68 18.5 11.028 4.469.897 7.376.773 15.597-.666 20.566-3.599 31.201-1.659 41.143 7.504 3.744 3.452 4.616 3.815 7.886 3.285 3.997-.649 4.26-1.321 2.516-6.436-3.531-10.361-12.34-17.418-26.841-21.501-5.225-1.472-11.216-3.537-13.313-4.59-3.776-1.894-3.803-1.894-2.767.042m-22.654.566c.711 2.391 11.028 6.584 16.163 6.569 3.158-.01 4.567-.335 3.736-.862-.735-.466-1.185-1.246-1-1.735.184-.488-1.465-1.262-3.665-1.718-2.2-.457-6.6-1.394-9.778-2.084-4.006-.87-5.679-.922-5.456-.17M56.453 52.082c-6.38 6.588-11.471 9.068-20.253 9.865l-7.7.699 4.542 2.132c2.499 1.173 6.367 2.424 8.596 2.78 4.442.71 13.481-.848 19.207-3.312 3.575-1.539 3.6-1.588 1.155-2.241-2.265-.605-2.014-.844 2.679-2.546 2.849-1.033 5.006-2.159 4.794-2.502s.902-.624 2.476-.624 3.583-.722 4.466-1.605c1.473-1.474 1.461-1.603-.155-1.573-2.795.052-5.718-.838-10.103-3.075-2.243-1.144-4.454-2.08-4.914-2.08-.461 0-2.616 1.837-4.79 4.082m60.724.562c.526 2.676 5.277 5.664 7.755 4.877 1.789-.567 1.956-.952.943-2.171-1.406-1.695-6.228-4.35-7.899-4.35-.617 0-.977.74-.799 1.644m-50.634.287c-.317.512-.193 1.167.274 1.456s.85-.13.85-.931c0-1.686-.316-1.833-1.124-.525m28.532 2.156C88.203 56.436 80.93 58.983 76 61.768 49.532 76.72 38.278 105.813 49.025 131.5l1.256 3 .654-2.5c.361-1.375 1.16-2.5 1.777-2.5 1.58 0 2.284-.884 2.788-3.5.573-2.977 1.5-3.852 1.501-1.417.001 3.495 5.627 13.843 10.284 18.917l4.589 5-3.089-9c-2.639-7.687-3.104-10.532-3.187-19.5-.102-10.975.901-18.428 2.359-17.526.471.291.621-.372.333-1.473-.293-1.119-.031-2.001.593-2.001.615 0 1.064-.338.999-.75-.378-2.394.378-4.425 2.368-6.358 1.237-1.202 1.575-1.856.75-1.452-.825.403-.375-.245 1-1.44s1.834-1.819 1.019-1.385.415-1.185 2.733-3.597c4.851-5.048 4.881-6.331.064-2.767-1.824 1.349-4.132 2.742-5.129 3.094-.998.353-1.548 1.071-1.222 1.598.325.526-.317 1.443-1.427 2.037s-1.91 1.457-1.778 1.918-.885 1.831-2.26 3.046-1.825 1.916-1 1.558.626.058-.441.924C63.491 96.292 62.922 97 63.293 97s-.231 1.737-1.337 3.861c-1.107 2.123-2.427 5.836-2.934 8.25-.811 3.864-.893 3.432-.682-3.611.17-5.659.873-9.396 2.403-12.771 1.19-2.624 2.072-4.938 1.96-5.143-.654-1.202 16.686-16.619 21.472-19.091 3.121-1.611 5.526-3.17 5.345-3.463-.395-.638 1.242-.843 12.98-1.623l9-.599-3.476 2.369C102.95 68.636 100 73.523 100 78.47c0 11.562 7.417 21.26 22.131 28.94 9.266 4.836 17.506 10.612 19.29 13.521 2.204 3.595 5.418 5.924 7.445 5.394 1.695-.444 1.897-.9 1.075-2.435-.556-1.04-.815-1.89-.575-1.89.77 0 4.551 6.924 5.605 10.266.934 2.959.98 2.828.54-1.546-1.347-13.384-12.921-25.671-26.511-28.144l-3.5-.637 3.5 2.084 3.5 2.084-3.5-.573c-4.701-.768-11.627-5.193-15.34-9.799-2.421-3.004-3.121-4.965-3.463-9.694-.5-6.905 1.59-11.32 6.813-14.394l3.148-1.853-1.579 3.053c-2.462 4.761-1.87 5.598 1.543 2.185 1.717-1.717 5.429-4.28 8.25-5.695 7.843-3.937 8.156-4.349 4.917-6.485-1.727-1.139-4.617-1.841-7.589-1.845-5.196-.008-9.111-1.593-12.107-4.905-1.564-1.728-2.989-2.082-7.998-1.992-3.352.06-8.086.5-10.52.977m-36.616 3.98c-.363.586-.445 1.281-.183 1.543s.743-.218 1.069-1.067c.676-1.762.1-2.072-.886-.476m83.628 4.12c-3.446 1.705-12.054 10.121-12.082 11.813-.005.275 2.724.346 6.063.158 6.724-.379 11.252 1.033 13.472 4.202 1.704 2.433 1.901 6.947.425 9.706-1.408 2.631.21 2.441 2.813-.33 8.446-8.99 5.87-23.124-4.921-27.001-.904-.324-3.5.329-5.77 1.452m-46.824 8.067c-5.489 5.933-8.986 18.137-7.807 27.242.851 6.575 2.635 12.504 3.761 12.504.496 0 .623.45.283 1s.061 1 .891 1 1.954.787 2.497 1.75c.791 1.402 1.239 1.501 2.25.5.947-.938.962-1.25.062-1.25-.66 0-1.2-.675-1.2-1.5s.477-1.5 1.059-1.5.779.453.437 1.007c-.343.554.046 1.264.863 1.577.818.314 1.756 1.274 2.087 2.135.471 1.228.307 1.321-.765.431-.751-.623-1.661-.837-2.023-.475-1.252 1.252-.65 2.325 1.303 2.325 1.078 0 2.54.7 3.25 1.555.709.855 2.733 2.935 4.498 4.623s3.115 3.555 3 4.15.466 1.122 1.291 1.172 1.387.633 1.25 1.295c-.138.663.312 1.093 1 .955.687-.137 1.126.346.975 1.074s.137 1.071.639.76c1.395-.862 6.025 5.798 8.841 12.72 3.32 8.162 2.94 18.06-.964 25.043l-2.576 4.609 3.668-1.895c10.305-5.324 17.532-16.859 17.581-28.061.062-14.312-6.347-23.664-21.625-31.555-5.063-2.615-11.282-6.697-13.821-9.072-8.772-8.205-12.939-21.791-9.612-31.334.856-2.453 1.427-4.589 1.27-4.746-.156-.157-1.22.726-2.363 1.961m-48.515 6.282C34.436 86.569 30.482 99.838 35.286 116l1.338 4.5-.046-8.5c-.029-5.312.592-10.563 1.657-14 1.917-6.188 7.918-16.837 11.916-21.144q5.284-5.692-3.403.68m30.915 35.901c-.365.949-.652 4.952-.639 8.895.044 13.392 5.488 22.283 21.554 35.205 5.099 4.101 10.665 9.146 12.369 11.21l3.098 3.753-.593-3.5c-.933-5.503-4.506-15.125-7.204-19.398-2.886-4.573-14.584-18.56-15.105-18.062-.197.188 1.027 2.955 2.72 6.151l3.077 5.809-5.293-5.718C85.43 131.068 81.559 124.346 79.679 117c-.943-3.687-1.554-4.767-2.016-3.563m-22.584 6.146c.048 1.165.285 1.402.604.605.289-.722.253-1.585-.079-1.917s-.568.258-.525 1.312M.456 160.5c0 22 .132 30.858.293 19.683.161-11.174.161-29.174 0-40C.587 129.358.455 138.5.456 160.5M14 129.941c0 .518.445 1.216.989 1.552.566.35.734-.051.393-.941-.665-1.732-1.382-2.049-1.382-.611m-9 6c0 .518.445 1.216.989 1.552.566.35.734-.051.393-.941C5.717 134.82 5 134.503 5 135.941"/></svg>