<svg xmlns="http://www.w3.org/2000/svg" width="200" height="200" fill="#000000"><path fill-opacity=".047" fill-rule="evenodd" d="M29.241 9.995c-1.793 1.093-4.153 3.453-5.246 5.246-1.934 3.172-1.988 5.177-1.991 74.971-.004 70.051.044 71.841 2.064 77.239 2.44 6.522 8.812 13.344 15.476 16.57 6.091 2.949 15.861 3.711 21.768 1.698 5.57-1.898 97.359-55.965 102.702-60.495 9.454-8.015 12.427-23.735 6.696-35.406-1.535-3.124-4.239-6.954-6.011-8.509C161.004 78.065 69.938 24 68.168 24 67.309 24 67 30.447 67 48.333c0 13.384.242 24.575.537 24.871s2.433-.125 4.75-.933c10.045-3.504 24.066.19 31.857 8.393 6.634 6.984 8.35 11.573 8.353 22.336.003 8.035-.371 10.259-2.42 14.423-5.26 10.687-16.103 17.756-27.421 17.875-11.256.119-19.313-3.893-26.352-13.121-6.161-8.078-6.303-9.477-6.312-62.109L49.985 12.5l-3.941-2.25c-5.068-2.894-12.296-3.004-16.803-.255"/><path fill-opacity=".148" fill-rule="evenodd" d="M29.859 10.158c-2.003 1.161-4.602 3.82-5.776 5.908-2.131 3.792-2.134 3.886-1.858 76.115L22.5 164.5l2.293 4.295c7.598 14.229 22.754 21.147 36.207 16.528 7.087-2.434 99.04-56.734 103.708-61.242 5.6-5.408 8.272-12.217 8.272-21.081 0-8.997-2.661-15.535-8.61-21.155C161.405 79.045 70.046 24 68.363 24c-.2 0-.363 11.074-.363 24.608v24.609l2.75-.74c10.73-2.888 18.191-2.267 26.39 2.196 10.125 5.51 16.196 16.12 16.216 28.335.021 12.897-6.87 24.151-18.195 29.712-7.695 3.779-19.111 3.881-26.661.24-6.34-3.058-12.413-9.105-15.552-15.486L50.5 112.5l-.5-50-.5-50-4.462-2.25c-5.552-2.8-10.459-2.83-15.179-.092"/><path fill-opacity=".102" fill-rule="evenodd" d="M31.5 9.412c-4.036 1.794-7.339 5.542-8.524 9.671C22.384 21.147 22 49.28 22 90.562c0 59.573.2 68.75 1.605 73.478 4.062 13.679 15.059 21.97 29.113 21.95 5.012-.007 8.087-.622 11.782-2.355 8.364-3.924 96.8-56.586 99.843-59.455 1.564-1.474 4.033-4.93 5.486-7.68 2.258-4.271 2.643-6.239 2.643-13.5 0-7.309-.381-9.225-2.716-13.676-1.493-2.847-4.412-6.571-6.486-8.274-2.073-1.704-24.245-15.182-49.27-29.951L68.5 24.246l-.268 24.025c-.148 13.215-.074 24.221.164 24.459s1.484-.148 2.768-.856c3.965-2.187 17.554-1.717 23.012.795 6.623 3.049 13.32 9.605 16.539 16.188 2.347 4.802 2.76 6.911 2.772 14.143.011 7.125-.416 9.415-2.638 14.155-3.13 6.675-9.128 12.818-15.656 16.033-3.864 1.904-6.283 2.309-13.693 2.293-7.778-.017-9.688-.38-14.063-2.673-6.309-3.305-11.871-9.371-15.302-16.688L49.5 110.5l-.302-49.149-.302-49.149-4.883-2.101c-5.612-2.414-8.299-2.562-12.513-.689"/><path fill-opacity=".107" fill-rule="evenodd" d="M35.458 9.068c-.363.588-1.29.827-2.059.532-.77-.296-1.399-.156-1.399.31s-1.244 1.363-2.764 1.992c-2.049.849-3.347 2.648-5.014 6.948l-2.25 5.802.403 66.924c.222 36.808.566 67.936.764 69.174s.747 2.25 1.218 2.25.569.752.216 1.67c-.352.919-.212 1.935.313 2.26.524.324 1.102 1.249 1.284 2.056s.78 1.966 1.33 2.576l4.661 5.178c2.014 2.238 4.601 4.367 5.75 4.732 1.149.364 2.089 1.068 2.089 1.564s.675.642 1.5.326c.825-.317 1.5-.092 1.5.5 0 .591.675.816 1.5.5.825-.317 1.5-.175 1.5.314 0 1.297 12.206.819 14.82-.58 1.222-.653 2.662-.916 3.201-.583.538.333.979.102.979-.513s.45-.84 1-.5 1 .115 1-.5.403-.869.895-.565c.493.305 1.164-.147 1.493-1.004s1.051-1.278 1.605-.935 1.007.242 1.007-.221c0-.464 1.35-1.641 3-2.616s3-1.526 3-1.225.788-.128 1.75-.952c.963-.824 1.975-1.403 2.25-1.286s1.527-.667 2.782-1.742 2.502-1.832 2.77-1.683 1.446-.623 2.619-1.716c1.172-1.092 2.514-1.75 2.98-1.461s.849-.028.849-.702.263-.962.585-.641c.321.322 1.461-.166 2.532-1.083s2.046-1.464 2.165-1.214 1.245-.425 2.5-1.5c1.256-1.075 2.502-1.832 2.77-1.683s1.446-.623 2.619-1.716c1.172-1.092 2.514-1.75 2.98-1.461s.849.021.849-.594.403-.869.895-.565c.493.305 1.164-.147 1.493-1.004s1.051-1.278 1.605-.935 1.007.242 1.007-.221c0-.464 1.35-1.641 3-2.616s3-1.526 3-1.225.915-.237 2.032-1.194c1.118-.957 2.131-1.536 2.25-1.286s1.245-.425 2.5-1.5c1.256-1.075 2.502-1.832 2.77-1.683s1.446-.623 2.619-1.716c1.172-1.092 2.514-1.75 2.98-1.461s.849-.028.849-.702.263-.962.585-.641c.321.322 1.461-.166 2.532-1.083s2.046-1.464 2.165-1.214 1.245-.425 2.5-1.5c1.256-1.075 2.502-1.832 2.77-1.683s1.446-.623 2.619-1.716c1.172-1.092 2.514-1.75 2.98-1.461s.849.021.849-.594.403-.869.895-.565c.493.305 1.164-.147 1.493-1.004s1.004-1.307 1.5-1 1.16-.115 1.476-.937c.315-.822 1.069-1.494 1.676-1.494 1.424 0 3.102-1.805 4.879-5.25.78-1.513 1.819-2.75 2.309-2.75s.612-.45.272-1-.115-1 .5-1 .859-.419.543-.931c-.317-.512-.138-1.201.397-1.532s.727-1.24.428-2.021c-.3-.781-.223-1.941.17-2.578 1.055-1.707 1.236-8.959.239-9.576-.472-.291-.597-1.355-.277-2.362s.106-2.126-.476-2.485c-.581-.359-.798-1.072-.481-1.584.316-.512.072-.931-.543-.931s-.84-.45-.5-1 .066-1-.608-1-.928-.297-.565-.66-.237-1.289-1.333-2.057S165 84.309 165 83.604c0-.706-1.125-1.796-2.5-2.422s-2.5-1.599-2.5-2.161c0-.561-.338-.918-.75-.792-1.125.344-9.25-4.463-9.25-5.472 0-.481-.45-.597-1-.257s-1 .19-1-.333c0-.522-1.125-1.233-2.5-1.578s-2.5-1.095-2.5-1.667-.382-.804-.849-.516-1.704-.272-2.75-1.247c-1.045-.974-2.351-1.855-2.901-1.957s-1.787-.86-2.75-1.684-1.75-1.252-1.75-.952-1.35-.25-3-1.225-3-2.152-3-2.616-.453-.563-1.007-.221c-.554.343-1.276-.078-1.605-.935s-1-1.309-1.493-1.004c-.492.304-.895.05-.895-.565s-.382-.882-.849-.594-1.704-.272-2.75-1.247c-1.045-.974-2.224-1.746-2.619-1.715-.394.031-1.744-.823-3-1.898-1.255-1.075-2.38-1.75-2.5-1.5-.119.25-1.094-.297-2.165-1.214s-2.211-1.405-2.532-1.083c-.322.321-.585.033-.585-.641s-.382-.99-.849-.702-1.808-.369-2.98-1.461c-1.173-1.093-2.351-1.865-2.619-1.716s-1.289-.416-2.27-1.255c-.98-.84-2.105-1.515-2.5-1.5-.394.014-1.632-.757-2.75-1.714C88.915 36.803 88 36.266 88 36.566s-1.35-.25-3-1.225-3-2.152-3-2.616-.453-.563-1.007-.221c-.554.343-1.276-.078-1.605-.935s-1-1.309-1.493-1.004c-.492.304-.895.05-.895-.565s-.382-.882-.849-.594-1.816-.377-3-1.48S71 26.22 71 26.583c0 .364-.675.102-1.5-.583-1.326-1.101-1.498 1.575-1.485 23.128.009 14.274.377 23.801.889 22.994.48-.758 1.373-1.069 1.984-.691.612.378 1.112.162 1.112-.479s.675-.907 1.5-.59c.825.316 1.5.196 1.5-.268s2.925-.816 6.5-.782 6.5.454 6.5.934c0 .479.45.594 1 .254s1.563-.267 2.25.163c.688.429 1.917.881 2.732 1.004s1.641.701 1.835 1.285c.195.583.765.806 1.268.495s.915-.088.915.494.338.951.75.819c1.076-.344 10.25 8.668 10.25 10.069 0 .644.525 1.171 1.167 1.171.641 0 .888.279.547.619-.34.341.016 1.254.791 2.029.776.775 1.156 2.072.846 2.881-.311.809-.019 1.471.649 1.471s.955.674.638 1.5c-.316.825-.227 1.5.2 1.5.426 0 .749 3.15.718 7s-.42 7-.865 7-.519.47-.164 1.044.101 1.699-.563 2.5c-.665.801-.92 1.456-.566 1.456 1.133 0-3.305 7.825-6.508 11.472-1.703 1.94-3.677 3.528-4.387 3.528s-1.559.704-1.889 1.563c-.33.86-1.053 1.284-1.607.941-.554-.342-1.007-.119-1.007.496s-.45.84-1 .5-1-.115-1 .5-.419.859-.931.543c-.512-.317-1.218-.111-1.569.457s-1.057.774-1.569.457c-.512-.316-.931-.211-.931.234s-3.599.809-7.998.809c-4.4 0-8-.323-8.001-.719s-.676-.459-1.501-.143-1.5.051-1.5-.59-.415-.909-.923-.595c-1.04.642-8.077-3.221-8.077-4.435 0-.432-.898-1.019-1.995-1.306s-2.3-1.318-2.674-2.291c-.373-.972-1.528-2.618-2.567-3.657-2.633-2.633-5.926-10.678-5.247-12.818.31-.978.096-2.067-.476-2.421C48.344 107.094 48 91.448 48 60.163c0-43.499-.122-46.82-1.772-48.191-.975-.809-2.663-1.622-3.75-1.806s-2.406-.746-2.928-1.25c-1.278-1.232-3.282-1.158-4.092.152"/></svg>