<svg xmlns="http://www.w3.org/2000/svg" width="32" height="32" version="1.1" fill="#000000"><path fill-opacity=".365" d="M 7.922 2.274 C -2.718 9.444, -2.718 22.556, 7.922 29.726 C 17.962 36.492, 32.880 27.473, 32.967 14.583 C 32.985 11.879, 32.718 9.949, 32.373 10.293 C 32.029 10.638, 30.781 9.486, 29.600 7.734 C 24.419 0.046, 14.816 -2.373, 7.922 2.274 M 0.300 16 C 0.300 19.025, 0.487 20.263, 0.716 18.750 C 0.945 17.238, 0.945 14.763, 0.716 13.250 C 0.487 11.738, 0.300 12.975, 0.300 16" stroke="none" fill="#000000" fill-rule="evenodd"/><path fill-opacity=".487" d="M 9.450 1.407 C -0.639 5.801, -3.022 19.213, 4.882 27.118 C 13.138 35.373, 25.681 32.772, 31.033 21.695 C 33.092 17.434, 33.758 10.414, 32 11.500 C 31.450 11.840, 31 11.451, 31 10.636 C 31 8.299, 25.916 2.863, 22.329 1.364 C 18.254 -0.338, 13.420 -0.322, 9.450 1.407 M 15.176 6.224 C 14.529 6.871, 14.007 7.873, 14.015 8.450 C 14.024 9.027, 14.423 8.880, 14.904 8.122 C 16.343 5.850, 18 7.864, 18 11.885 C 18 14.529, 17.310 16.299, 15.686 17.826 C 12.779 20.557, 12.244 20.547, 11.706 17.750 C 11.462 16.486, 11.213 17.290, 11.136 19.583 C 11.035 22.607, 11.389 23.667, 12.500 23.667 C 13.325 23.667, 13.774 23.441, 13.498 23.164 C 13.222 22.888, 13.748 21.831, 14.667 20.816 C 16.287 19.025, 16.409 19.036, 18.669 21.159 L 21 23.349 20.868 18.924 C 20.741 14.657, 20.715 14.621, 20.118 17.913 C 19.580 20.881, 19.331 21.120, 18.201 19.752 C 17.329 18.694, 17.247 17.965, 17.951 17.530 C 19.476 16.588, 19.255 7.457, 17.676 6.146 C 16.710 5.344, 16.035 5.365, 15.176 6.224 M 0.272 16 C 0.272 18.475, 0.467 19.488, 0.706 18.250 C 0.944 17.012, 0.944 14.988, 0.706 13.750 C 0.467 12.512, 0.272 13.525, 0.272 16 M 16.232 24 C 16.232 25.925, 16.438 26.712, 16.689 25.750 C 16.941 24.788, 16.941 23.212, 16.689 22.250 C 16.438 21.288, 16.232 22.075, 16.232 24" stroke="none" fill="#000000" fill-rule="evenodd"/><path fill-opacity=".603" d="M 8.962 2.250 C 4.159 4.672, 0 11.053, -0 16 C -0 20.947, 4.159 27.328, 8.962 29.750 C 14.573 32.580, 17.427 32.580, 23.038 29.750 C 26.364 28.073, 28.180 26.227, 30.169 22.500 C 32.485 18.161, 34.133 10.534, 32.375 12.292 C 32.031 12.635, 30.794 11.023, 29.625 8.708 C 27.330 4.163, 20.816 -0, 16 -0 C 14.583 -0, 11.416 1.012, 8.962 2.250 M 14.200 6.200 C 13.540 6.860, 13 9.110, 13 11.200 C 13 13.290, 12.550 15, 12 15 C 11.450 15, 11 17.116, 11 19.703 L 11 24.406 15 20.500 C 18.520 17.063, 19 16.043, 19 11.997 C 19 7.918, 17.749 5, 16 5 C 15.670 5, 14.860 5.540, 14.200 6.200 M 15.445 8.283 C 15.081 9.233, 14.968 11.597, 15.194 13.536 C 15.498 16.139, 15.265 16.932, 14.303 16.563 C 13.482 16.248, 13 16.856, 13 18.206 C 13 20.341, 13.008 20.341, 15.500 18 C 18.101 15.556, 18.827 10.856, 17.038 8.028 C 16.241 6.768, 16.012 6.804, 15.445 8.283 M 0.232 16 C 0.232 17.925, 0.438 18.712, 0.689 17.750 C 0.941 16.788, 0.941 15.213, 0.689 14.250 C 0.438 13.287, 0.232 14.075, 0.232 16 M 20 17.410 C 20 19.071, 19.555 19.766, 18.702 19.439 C 17.988 19.165, 16.357 20.055, 15.078 21.417 C 12.974 23.656, 12.900 24.043, 14.304 25.447 C 16.534 27.677, 16.985 27.405, 17.118 23.750 L 17.237 20.500 18 23.500 C 18.420 25.150, 18.817 25.686, 18.882 24.691 C 18.947 23.696, 19.403 23.131, 19.895 23.435 C 20.388 23.740, 20.966 22.158, 21.179 19.920 C 21.392 17.682, 21.215 15.633, 20.784 15.366 C 20.353 15.100, 20 16.019, 20 17.410" stroke="none" fill="#000000" fill-rule="evenodd"/><path fill-opacity=".97" d="M 11.315 1.071 C 6.912 2.388, 2.255 7.339, 0.986 12.053 C -1.929 22.878, 8.224 33.583, 19.059 31.110 C 24.205 29.934, 27.455 27.482, 29.500 23.232 C 30.487 21.179, 31.678 18.719, 32.147 17.764 C 33.314 15.388, 33.223 12.744, 32 13.500 C 31.450 13.840, 31 13.373, 31 12.463 C 31 9.823, 28.075 5.587, 24.655 3.276 C 20.794 0.666, 15.561 -0.199, 11.315 1.071 M 14.200 6.200 C 13.540 6.860, 13 8.858, 13 10.641 C 13 12.424, 12.550 14.160, 12 14.500 C 11.450 14.840, 11 17.191, 11 19.726 C 11 22.260, 11.271 24.062, 11.603 23.730 C 11.934 23.399, 13.270 24.336, 14.571 25.814 L 16.937 28.500 17.118 24.500 C 17.254 21.496, 17.403 21.177, 17.713 23.219 C 18.080 25.631, 18.346 25.801, 20.063 24.728 C 22.163 23.417, 22.850 16.643, 21 15.500 C 20.450 15.160, 20 13.403, 20 11.596 C 20 9.683, 19.236 7.619, 18.171 6.655 C 15.988 4.679, 15.748 4.652, 14.200 6.200 M 15.667 7.667 C 14.605 8.729, 14.896 16, 16 16 C 16.550 16, 17 13.975, 17 11.500 C 17 6.922, 16.848 6.485, 15.667 7.667 M 0.158 16 C 0.158 17.375, 0.385 17.938, 0.662 17.250 C 0.940 16.563, 0.940 15.438, 0.662 14.750 C 0.385 14.063, 0.158 14.625, 0.158 16 M 18.446 17.087 C 18.077 17.685, 18.275 18.675, 18.887 19.287 C 19.704 20.104, 20 19.815, 20 18.200 C 20 15.785, 19.481 15.413, 18.446 17.087" stroke="none" fill="#000000" fill-rule="evenodd"/></svg>