<svg xmlns="http://www.w3.org/2000/svg" width="24" height="24" fill="#000000"><path fill="#000000" fill-rule="evenodd" d="m12.077 0 4.485 2.446-.445 1.952-4.03-2.176-8.64 4.813v12.2L1.5 18.018V5.891L12.077 0Zm0 4.627 6.452 3.539-1.946 1.094-4.495-2.421-4.385 2.39v10.047l4.384 2.491 8.631-4.807V7.07l1.947-.972v12.005L12.078 24l-6.32-3.591V8.075l6.32-3.448Zm1.951 5.728L12.162 9.26 9.65 10.68v7.354l2.596 1.198 6.405-3.646-1.947-1.094-4.542 2.558-.566-.262v-5.052l2.432-1.38Z" clip-rule="evenodd"/></svg>