<svg xmlns="http://www.w3.org/2000/svg" width="24" height="24" fill="#000000"><g clip-path="url(#a)"><path fill="#c9c9c9" d="M4.115 6.013s-2.18-.097-2.083 2.47c.096 2.569.969 13.857 1.792 14.68.824.824 4.021.872 5.668.824 1.648-.048 3.925.049 4.167-1.26.242-1.308 0-3.246 0-3.246s5.523.34 6.395-.145c.872-.484 1.308-3.33 1.357-4.33.048-1 0-2.017 0-2.017l-1.696-1.598-2.326 2.083-2.373-1.203-2.23 1.784-.629-3.536 1.89.823 1.162-1.89 1.938.921L19.23 8.29l2.202 1.26s.657-5.28-1.33-6.104c-1.986-.824-10.077.969-10.077.969s.727-2.762.824-3.392l.097-.63S9.783.053 9.202.005C8.62-.043 8.087.248 8.087.248l.049 1.937S6.949.823 4.986.393C3.195 0 2.029.829 2.029.829s-.433 3.973 2.087 5.184Z"/><path fill="#dbdbdb" d="M4.066 6.473S16.24 4.693 17.73 4.802c1.49.109 1.744 2.652 1.744 2.652l1.635 1.563.324-2.907-1.16-2.144-1.52-.755-7.806 1.228-6.88 2.034Z"/><path fill="#9e9e9e" d="m3.412 6.618 6.868-1.817.666-4.408h-2.52l-.29 1.792L4.393.623 2.028.829l.748 3.947 1.339 1.237-.703.605Z"/><path fill="#525252" d="M2.65 1.059s.69 1.38 3.415 2.834c2.725 1.453 4.651.872 4.651.872l-6.65 1.708.51-.836-1.927-1.765V1.06Z"/><path fill="#b2b2b2" d="M10.46 18.537s7.413.218 8.83-.254c1.418-.473 1.678-.642 1.678-.642l-.914 1.696h-4.106l-2.29.145.108 1.89s-2.905-1.49-3.305-2.835ZM21.253 7.891 18.89 6.619l-2.217 2.144L14.458 8l-.945 1.49-1.745-.727.219 2.653.363-1.309 1.527.727 1.332-1.38 1.756.617 2.265-1.78 2.202 1.26-.18-1.66Z"/><path fill="#dbdbdb" d="M12.387 13.995v1.526l2.507-1.526 2.834 1.526 1.998-1.89 1.684 1.375.022-1.375L19.727 12l-2.653 1.76-1.89-.855-2.797 1.09Z"/><path fill="#3d3d3d" d="M9.069.794c.023 0 .045 0 .067.002.219.019.595.1.953.189L9.78 4.032l-.108 1.065 1.05-.207c.046-.009 4.592-.9 7.44-.9 1.029 0 1.466.118 1.635.188.488.202.832 1.195.92 2.655.03.497.029.984.014 1.402L19.624 7.6l-.526-.301-.429.429-1.687 1.687-1.432-.68-.643-.306-.374.607-.801 1.302-1.258-.548-1.358-.592.26 1.459.63 3.536.234 1.316 1.043-.836 1.83-1.464 1.918.971.484.246.404-.362 1.782-1.597.928.875c.01.367.02 1.002-.011 1.625a12.945 12.945 0 0 1-.33 2.133c-.289 1.194-.57 1.494-.62 1.54-.092.032-.575.162-2.39.162-1.694 0-3.552-.113-3.57-.114l-.955-.058.118.948c.063.506.188 2.03.008 3.003-.013.069-.04.125-.134.194-.087.064-.26.156-.59.233-.61.141-1.442.158-2.176.172-.177.004-.344.007-.51.012-.286.009-.58.013-.872.013-.711 0-1.751-.026-2.662-.152-1.042-.143-1.408-.346-1.515-.423-.056-.124-.231-.608-.477-2.188a84.755 84.755 0 0 1-.527-4.323c-.33-3.282-.548-6.515-.592-7.667-.015-.394.035-.722.147-.974.08-.178.188-.317.333-.425.287-.212.643-.243.745-.248a.812.812 0 0 0 .268-1.565c-.382-.155-.686-.436-.93-.86-.219-.381-.38-.868-.48-1.445a8.522 8.522 0 0 1-.11-1.613c.346-.129 1.046-.307 2.268-.307.118 0 .575.057 1.496.794.56.449.987.909.991.913l1.43 1.549-.053-2.107L8.895.808c.057-.01.115-.015.173-.015m0-.793c-.527 0-.98.248-.98.248l.048 1.938S6.325.223 5.066.223C2.732.223 2.028.83 2.028.83s-.422 4.175 1.993 5.148c.02.008.015.036-.006.037-.425.018-2.068.234-1.983 2.47.096 2.568.969 13.856 1.792 14.68.692.691 3.058.836 4.774.836.327 0 .63-.005.894-.013 1.648-.049 3.925.048 4.167-1.26s0-3.246 0-3.246 1.88.116 3.618.116c1.243 0 2.414-.06 2.777-.261.872-.485 1.308-3.33 1.357-4.33.048-1 0-2.017 0-2.017l-1.696-1.598-2.325 2.083-2.374-1.203-2.23 1.784-.629-3.536 1.89.823 1.162-1.89 1.938.921L19.23 8.29l2.202 1.26s.657-5.281-1.33-6.105c-.43-.178-1.12-.248-1.94-.248-2.96 0-7.591.915-7.591.915l.375-3.719S9.783.053 9.202.005A1.637 1.637 0 0 0 9.069 0Z"/><path fill="#3d3d3d" d="M7.103 12a1.183 1.183 0 1 0 0-2.365 1.183 1.183 0 0 0 0 2.366Z"/></g><defs><clipPath id="a"><path fill="#ffffff" d="M0 0h24v24H0z"/></clipPath></defs></svg>