<svg xmlns="http://www.w3.org/2000/svg" width="64" height="64" fill="#000000"><g clip-path="url(#a)"><path fill="#000000" d="M32 68c19.882 0 36-16.118 36-36S51.882-4 32-4-4 12.118-4 32s16.118 36 36 36Z"/><g clip-path="url(#b)"><path fill="#000000" d="M44.288 44.645c.442-.251.873-.514 1.29-.797-.306.383-.609.768-.916 1.151l-.374-.354Zm9.656-8.85c-.05.746-.16 1.49-.245 2.27-.135-2.055-.16-4.079-.428-6.07-.362-2.667-2.46-3.942-4.62-5.09-.116-.063-.313.02-.582.047.306 1.646.529 3.283.931 4.876.272 1.074.145 1.943-.625 2.73-.529.538-.548 1.043-.243 1.8.468 1.164.643 2.45.9 3.691.04.196-.08.467-.204.648-.873 1.292-1.992 2.302-3.248 3.151.744-.938 1.486-1.875 2.26-2.787.506-.596.736-1.105.428-1.924-.368-.978-.5-2.045-.773-3.265l-1.401 1.284c-.048-.093-.1-.177-.092-.181 1.168-.852 1.154-1.812.615-3.101-.69-1.656-1.769-2.914-3.16-3.96-1.381-1.036-4.18-.847-5.492.29-.616.53-.601.968.216 1.43-1.85-.33-3.573-.636-5.54-.988l1.643-6.649c.29.206.596.421.848.598 1.58-1.05 3.155-2.06 4.69-3.132.78-.543 1.476-.646 2.331-.143.793.464 1.65.85 2.523 1.136 1.26.414 2.18 1.096 2.722 2.338.157.361.737.553 1.14.794.29.175.663.247.9.47.553.514.968 1.198 1.574 1.626 2.906 2.048 3.14 4.996 2.932 8.111Zm-10.492-12.69c1.057 1.07 1.869 2.514 3.873 2.565-.926-1.711-2.416-2.116-3.873-2.565Zm-3.87 2.581c.029.194.06.386.09.58l4.723-.29.051-.357c-.4-.296-.797-.593-1.02-.758-1.404.301-2.625.562-3.844.825Zm-1.096-.966c1.62-.55 3.24-1.103 4.857-1.654-2.38-1.332-3.73-.961-4.857 1.654Zm-2.208.957c-1.883 1.447-1.733 3.213-1.653 4.957l.352.11 1.301-5.067Zm2.637.521a62.53 62.53 0 0 1-.509-.34l-1.733 2.714c.114.057.23.112.344.17.633-.847 1.266-1.694 1.898-2.544Zm8.563 1.876c-.288-1.007-1.229-1.27-2.172-.873-.606.253-1.32.249-1.95.462-1.244.42-2.882-.6-3.893 1.206 2.962-1.135 4.9.681 6.604 1.736.553 1.7.98 3.013 1.406 4.329l.32.019c.293-.67.902-1.38.82-2.005-.212-1.646-.672-3.268-1.135-4.874ZM24.99 30.187c-.981-.811-2.019-1.034-3.439-.761-3.587.691-4.73 3.256-5.596 6.201-.361 1.233-.722 2.47-1.19 3.664-.264.672-.092 1.122.34 1.603 1.09 1.213 2.166 2.44 2.944 3.318-1.224-.727-2.67-1.892-3.742-3.472-.143-.212-.274-.53-.22-.758.312-1.347.734-2.672.998-4.03.082-.418-.078-1.035-.369-1.341-.821-.869-.84-1.802-.606-2.867.342-1.55.616-3.115.948-4.82-1.755.05-2.603 1.346-3.718 2.21-1.275.988-1.531 2.393-1.677 3.826-.15 1.454-.191 2.921-.281 4.38L9 37.318c.16-2.072.196-4.163.538-6.207.143-.854.85-1.667 1.447-2.38.814-.977 1.76-1.845 2.666-2.742.158-.156.424-.35.606-.318 1.018.172 1.195-.64 1.662-1.204.56-.675 1.234-1.313 1.985-1.758.96-.567 2.082-.862 3.066-1.395.827-.445 1.486-.376 2.23.139 1.54 1.066 3.115 2.081 4.746 3.165.198-.153.472-.364.814-.63.124.166.342.333.315.443-.45 1.823 1.067 3.209 1.098 4.922.007.43.11.859.17 1.308-1.78.323-3.5.637-4.867.886-.165-.503-.177-1.106-.485-1.36Zm1.881-4.166c.431 1.608.85 3.178 1.272 4.747.107-.029.214-.055.318-.084.269-2.574-.286-4.273-1.59-4.663Zm-11.054-.734.23.359c.41-.096.894-.089 1.217-.309.586-.404 1.042-.993 1.621-1.41.42-.298 1.016-.703 1.425-.61 1.486.34 2.928.87 4.387 1.329.06-.118.124-.235.184-.352-.516-.47-1.064-.907-1.541-1.412-.698-.734-1.44-.887-2.378-.452-1.088.505-2.256.852-3.318 1.407-.676.354-1.221.957-1.827 1.45Zm3.827-.448c-.262.206-.626.496-.992.785.01.113.017.227.027.34 1.576.098 3.15.196 4.729.292.029-.192.055-.383.085-.575-1.254-.272-2.507-.547-3.85-.842Zm3.953 4.018c-.524-.895-1.07-1.156-2.031-1.091a9.227 9.227 0 0 1-3.537-.455c-1.405-.483-2.176-.259-2.54 1.191-.298 1.194-.501 2.42-.882 3.587-.395 1.213.105 2.022 1.011 2.912.46-1.44.877-2.74 1.406-4.386 1.708-1.06 3.616-2.85 6.573-1.758Zm.6-2.63c.682.921 1.365 1.842 2.046 2.764l.27-.16-1.799-2.958-.516.354Zm14.778 8.422c-.06-.548-.681-1.294-1.212-1.471-.688-.23-1.542.016-1.983.04.042 2.247.068 4.158-.608 6.092h1.704v-2.015c.114-.021.225-.04.34-.062.625 1.06.14 2.371.515 3.51.369-1.031.897-2.084.812-3.087-.094-1.105.543-2.026.432-3.007Zm-6.287-1.924c.082.261.257.505.201.682-.429 1.402-.911 2.79-1.36 4.187-.138.43-.223.878-.332 1.316l.257.103c.647-.54 1.294-1.084 2.05-1.718.114.62.2 1.089.32 1.754 1.561-2.008.497-4.362 1.457-6.326-.86.002-1.662.002-2.593.002Zm-2.135 1.596c.08-.698.143-1.258.218-1.93-1.178.186-2.162.342-2.848.452l.286 5.763 2.557.235-.1-2.01c-.082.01-.164.02-.247.026l-.57.907c-.358-.641-1.083-1.328.284-1.46l-.16-1.677c-.261.237-.417.378-.669.61v-1.71l1.249.794Zm-5.357 5.52c1.135-.85-.075-2.364 1.239-3.295a404.64 404.64 0 0 1-.1-1.364c-.276.209-.44.333-.608.457-.138-.516-.123-1.002.116-1.318.114-.153.66.012 1.081.036.049-.368.107-.82.185-1.419l-3.061.531c.397 2.197.765 4.238 1.148 6.372Z"/></g></g><defs><clipPath id="a"><path fill="#000000" d="M0 32C0 14.327 14.327 0 32 0c17.673 0 32 14.327 32 32 0 17.673-14.327 32-32 32C14.327 64 0 49.673 0 32Z"/></clipPath><clipPath id="b"><path fill="#000000" d="M9 21h45v24H9z"/></clipPath></defs></svg>