<svg xmlns="http://www.w3.org/2000/svg" width="200" height="200" fill="#000000"><path fill-opacity=".235" fill-rule="evenodd" d="M0 100.005V200.01l100.25-.255 100.25-.255.255-99.75L201.01 0H0zm.481.495c0 55 .121 77.647.269 50.326.148-27.32.148-72.32 0-100C.602 23.147.481 45.5.481 100.5M66.56 42.234c-.214.696-.619 2.919-.899 4.939l-.51 3.672 6.174.857c6.737.934 7.023.778 8.139-4.447.598-2.803.376-3.362-1.636-4.105-4.72-1.743-10.86-2.242-11.268-.916m.44.716c0 1.703 1.221 4.05 2.107 4.05 1.509 0 .987-3.75-.607-4.362-.825-.316-1.5-.176-1.5.312m58.453 30.842c-3.947 2.212-3.57 5.208.656 5.208 2.527 0 2.822-.261 2.011-1.776-.603-1.126-.598-2.406.014-3.5 1.164-2.078 1.147-2.078-2.681.068m5.047 1.536c0 3.184.146 3.335 2.296 2.355 2.834-1.291 2.631-5.05-.296-5.47-1.664-.238-2 .284-2 3.115m-20.34 2.292c-5.183 3.106-4.493 4.449 2.635 5.134 6.349.61 9.433-.951 9.015-4.563-.473-4.084-3.438-4.081-3.367.004.042 2.422-.427 3.362-1.814 3.633-1.606.313-1.811-.143-1.45-3.231.23-1.979.172-3.593-.13-3.588-.302.006-2.502 1.18-4.889 2.611m43.34 9.94c-1.65.809-2.213 1.252-1.25.986s1.75.008 1.75.608c0 .758.381.775 1.25.056.794-.658 2.891-.734 5.75-.21 5.529 1.015 6.112.627 2.143-1.426-3.716-1.921-5.744-1.924-9.643-.014m14.579 6.023c.048 1.165.285 1.402.604.605.289-.722.253-1.585-.079-1.917s-.568.258-.525 1.312M148.5 96c.34.55.816 1 1.059 1s.441-.45.441-1-.477-1-1.059-1-.781.45-.441 1m-42.219 7.866c.623 1.449 3.599 7.528 6.615 13.509l5.482 10.875 2.178-4.875c2.384-5.337 2.257-5.807-1.83-6.771l-2.774-.654 1.524 3.647c.838 2.006 1.488 4.38 1.445 5.275-.065 1.348-.165 1.37-.578.128-1.951-5.865-7.79-17.842-8.488-17.411-1.39.86-.976-.797.647-2.592 1.365-1.507 1.188-1.757-1.925-2.712l-3.428-1.052zm45.178-1.799c-1.076 1.741.149 2.11 1.521.457.789-.95.865-1.524.201-1.524-.584 0-1.36.48-1.722 1.067M22.638 106.5c-.316.825-.027 1.507.643 1.515.94.012.945.19.022.777-1.041.661-.291 3.654.809 3.229.213-.083 1.176.152 2.138.521.963.37 2.538.327 3.5-.094s2.034-.712 2.381-.646 1.388-.718 2.313-1.741c1.587-1.753 1.553-1.95-.603-3.46-2.966-2.077-10.418-2.145-11.203-.101m125.52.5c0 1.375.227 1.938.504 1.25.278-.687.278-1.812 0-2.5-.277-.687-.504-.125-.504 1.25m-117.541 2.189c.234.378-.372 1.152-1.346 1.719s-1.235 1.045-.58 1.062c.655.016 1.474-.427 1.819-.986.346-.559.996-.789 1.446-.511s1.28-.053 1.846-.734c.767-.925.44-1.239-1.292-1.239-1.275 0-2.128.31-1.893.689m4.824 4.385c-1.067.866-1.388 1.295-.713.954.753-.379 1.787.658 2.669 2.676l1.44 3.296.081-4.25c.089-4.619-.511-5.081-3.477-2.676m-4.838.259c-.283.459.12.834.897.834s1.18-.375.897-.834S31.71 113 31.5 113s-.614.375-.897.833m126.21.85c.721.289 1.584.253 1.916-.079s-.258-.568-1.312-.525c-1.165.048-1.402.285-.604.604m-9.258 4.145c-.376 1.185-.391 2.628-.033 3.207.357.579.091 1.726-.592 2.55C144.975 126.94 141 136 141 138.099c0 1.046-.414 1.901-.921 1.901-1.112 0-2.408 5.16-2.535 10.097-.073 2.826.249 3.508 1.501 3.181.877-.229 2.131.23 2.787 1.02.946 1.139.828 1.723-.57 2.819-1.63 1.28-1.654 1.233-.317-.617 1.384-1.915 1.366-1.928-.424-.29-1.086.993-2.037 3.502-2.268 5.985-.219 2.351-.871 4.844-1.448 5.54-.746.899-.653 1.754.323 2.957.932 1.15.971 1.451.122.941-.891-.536-1.25.127-1.25 2.308 0 2.392.436 3.059 2 3.059 1.614 0 2 .667 2 3.455 0 3.165.297 3.51 3.547 4.12 4.105.77 4.073.788 4.98-2.827.655-2.608.51-2.748-2.831-2.748-3.161 0-3.492-.255-3.245-2.5.15-1.375-.189-2.5-.755-2.5s-.745-.284-.398-.631.245-1.36-.228-2.25c-1.102-2.076 1.63-9.119 3.537-9.119.766 0 1.393-.719 1.393-1.599 0-1.031 1.687.067 4.75 3.093 2.613 2.58 5.603 5.151 6.646 5.712 1.672.9 1.819.741 1.242-1.343-.36-1.299-.946-6.552-1.301-11.671l-.646-9.308 4.367-8.692c2.401-4.781 4.627-8.917 4.946-9.192s1.2-2.426 1.958-4.78c1.023-3.176 1.087-4.571.25-5.408-1.265-1.265-4.224.54-4.197 2.56.01.68.351.598.861-.206.687-1.084.954-1.05 1.425.177.319.831-.089 2.066-.906 2.744s-1.246 1.86-.952 2.625c.294.766.109 1.129-.41.808-.52-.321-2.503.067-4.407.863-1.905.796-3.71 1.199-4.013.897s-.331.523-.062 1.835c.27 1.317-.492 4.51-1.701 7.132-2.281 4.946-3.638 5.957-1.916 1.427.631-1.66.641-2.818.028-3.198-.529-.327-.962.183-.962 1.132s-.301 1.425-.668 1.057c-.973-.972 1.793-5.706 2.925-5.006.548.339.377.958-.4 1.451-1.043.661-1.061.863-.076.875 2.251.027 2.473-2.833.483-6.21-1.063-1.801-1.742-4.094-1.511-5.096.284-1.229-.284-2.005-1.751-2.389-1.455-.38-1.775-.812-.97-1.31.843-.521.903-1.273.203-2.524-.924-1.651-1.047-1.624-1.68.372m-45.096.239c-.363.586-.445 1.281-.183 1.543s.743-.218 1.069-1.067c.676-1.762.1-2.072-.886-.476m20.644.81c-1.087 1.973-1.079 2.521.044 3.224 1.489.932 2.256-.877 1.633-3.851-.312-1.484-.567-1.389-1.677.627m-2.218 6.218c-.063.773-.043 2.305.045 3.405.135 1.699-.012 1.774-.98.5-.923-1.215-.98-1.121-.3.5 1.04 2.481 1.132 22.471.1 21.84-.412-.252-.756.356-.764 1.351-.007.995-.285 2.821-.616 4.059-.487 1.815-.194 2.25 1.513 2.25 2.011 0 2.557-.935 2.192-3.75-.09-.687.329-1.25.931-1.25.701 0 .777-.565.212-1.575-.534-.954-.352-4.375.462-8.678 1.598-8.45 2.523-10.045 1.838-3.168-.387 3.886-.285 4.395.482 2.421.873-2.243.923-2.155.49.855-.361 2.515-.149 3.228.847 2.846.731-.281 1.33.079 1.33.799s-.6 1.079-1.334.798c-1.538-.591-1.847 2.267-.344 3.195.572.354.731-.06.377-.982-.385-1.004-.134-1.485.681-1.302.817.184 1.335-.814 1.408-2.709.063-1.65.436-3.518.828-4.152.393-.633-.636-3.716-2.285-6.851s-2.998-6.26-2.998-6.944c0-.683-.9-2.058-2-3.053-1.553-1.406-2.026-1.496-2.115-.405M20.5 127c-.34.55-.141 1 .441 1S22 127.55 22 127s-.198-1-.441-1-.719.45-1.059 1m68.5 2.5c0 .825.177 1.5.393 1.5s.652-.675.969-1.5.139-1.5-.393-1.5c-.533 0-.969.675-.969 1.5m32.667 1.925c-.414 1.079-.253 1.437.452 1.002.739-.457.876.095.423 1.698-.519 1.831-.433 2.032.377.875.868-1.24 1.053-1.254 1.066-.083.008.779.275 1.156.593.838s-.062-1.8-.844-3.293c-1.186-2.263-1.53-2.436-2.067-1.037m-36.593.986c-.902 1.087-.873 1.583.127 2.16.715.412.965.381.558-.069-.408-.45-.24-1.422.372-2.16.613-.738.889-1.342.614-1.342s-1.027.635-1.671 1.411M150 146.5c0 .825-.623 1.5-1.383 1.5-.761 0-1.596 1.111-1.856 2.47-.274 1.435-.069 2.22.49 1.875.586-.362.73.727.368 2.78-.573 3.248-.555 3.272.476.625.589-1.512 1.372-2.752 1.738-2.755.367-.003.769-1.803.894-4s.012-3.995-.25-3.995-.477.675-.477 1.5m-25.921 1.083c.048 1.165.285 1.402.604.605.289-.722.253-1.585-.079-1.917s-.568.258-.525 1.312m0 4c.048 1.165.285 1.402.604.605.289-.722.253-1.585-.079-1.917s-.568.258-.525 1.312m22.36 10.516c-.29.469-.783 3.007-1.094 5.639-.564 4.758-.545 4.797 3.294 6.642 2.124 1.021 5.605 2.478 7.736 3.238l3.875 1.381-.627-3.249c-.431-2.234-2.507-5.009-6.642-8.877-3.308-3.096-6.252-5.244-6.542-4.774m-3.809 4.151c-.331 1.238-.609 3.005-.616 3.929-.016 1.9 2.559 4.821 4.249 4.821.615 0 .303-.596-.694-1.326-1.384-1.012-1.718-2.311-1.414-5.5.425-4.456-.525-5.655-1.525-1.924M127 171.531c0 .843-.675 1.791-1.5 2.107s-1.5 1.155-1.5 1.862.675 1.545 1.5 1.862c.825.316 1.5.113 1.5-.452s.408-.776.907-.468c.498.309.684-.452.413-1.691-.352-1.606-.222-1.869.454-.917.765 1.076 1.071 1.013 1.587-.332.98-2.553.741-4.207-.361-2.502q-.969 1.5-.985.25c-.008-.687-.465-1.25-1.015-1.25s-1 .689-1 1.531m16.404 4.682c.154.763 2.202 1.374 5.175 1.543 4.68.267 4.8.211 2.463-1.134-1.631-.939-3.206-1.13-4.683-.568-1.335.507-2.423.455-2.717-.129-.271-.536-.378-.407-.238.288m-25.404.821c-1.3.87-1.246 1.198.408 2.461 1.69 1.29 2.056 1.26 3.218-.269.721-.95 1.325-2.064 1.342-2.476.046-1.081-3.206-.895-4.968.284"/><path fill-opacity=".544" fill-rule="evenodd" d="m.012 82.089.023 82.089 2.018-2.339c2.006-2.325 2.005-2.319-.014 1.161-1.821 3.138-2.032 5.233-2.035 20.25L0 200h126.95l-.46-3.25-.46-3.25 1.15 3.321 1.15 3.321 8.085-.52c4.447-.286 8.76-.501 9.585-.478 36.07 1.006 35.819 1.012 36.302-.849.431-1.661.475-1.664.582-.045.1 1.512 1.211 1.75 8.183 1.75 9.363 0 9.134.822 3.316-11.891-1.861-4.065-3.383-7.552-3.383-7.75 0-.959 3.615 3.294 3.639 4.282.051 2.084 2.589 7.359 3.541 7.359.516 0 .667.439.335.976s.065 2.225.883 3.75c1.325 2.472 1.494-8.104 1.552-96.976L201.014 0H-.012zm.231-13.152L0 137.374l2.854-2.734c1.57-1.504 4.158-3.125 5.75-3.602 2.345-.701 2.482-.882.723-.952-1.196-.047-3.555 1.076-5.243 2.497l-3.07 2.583L.75 67.833.486.5zm79.888-50.595c-.612.738-.842 1.613-.511 1.945.522.522-1.298 2.445-6.412 6.776-.806.682-1.02 1.913-.568 3.266.914 2.739.926 4.481.053 7.848-.537 2.07-.298 2.785 1.056 3.156.963.264-.251.41-2.698.324l-4.449-.157-.773 4.391c-.425 2.415-.534 4.777-.242 5.25s2.867.904 5.722.959c4.1.078 4.666.268 2.691.9l-2.5.801 2.677.099c1.69.063 2.811.745 3.042 1.85.201.962.949-1.152 1.662-4.698 1.156-5.745 1.121-6.578-.324-7.634-1.202-.879-1.548-2.496-1.339-6.251.178-3.2.632-4.717 1.232-4.117 1.517 1.517 4.363 1.101 5.47-.8.684-1.175 1.029-1.301 1.05-.385.024 1.088.53 1.037 2.495-.25C88.82 30.727 90.819 30 91.906 30c2.833 0 3.607-1.896 1.444-3.535-1.142-.865-1.358-1.414-.565-1.433.981-.024 1.028-.513.2-2.06-.597-1.115-1.46-1.797-1.918-1.514s-2.01-.412-3.449-1.544S85 18.37 85 18.999c0 .677-.641.503-1.571-.428-1.904-1.903-1.908-1.904-3.298-.229m5.133 4.513c.083 1.104.508 1.786.944 1.517s.792.384.792 1.452c0 1.169-.896 2.183-2.25 2.546-3.309.886-3.75.784-3.75-.87 0-.825.338-1.387.75-1.25a.79.79 0 0 0 1-.5c.564-1.691.169-1.928-1.25-.75-.825.685-1.5 2.11-1.5 3.167 0 1.734.557 1.87 5.659 1.386C90.591 29.085 94.44 28 91.167 28c-.642 0-1.199-1.012-1.237-2.25-.067-2.147-.11-2.158-.93-.25-.838 1.951-.861 1.948-.93-.128-.038-1.17-.72-2.666-1.514-3.325-1.18-.98-1.416-.832-1.292.808M68.667 43.667c-.995.995-.805 3.333.271 3.333.516 0 .87-.9.787-2-.17-2.26-.153-2.239-1.058-1.333m6.476 19.976c-.629 3.13-1.097 7.753-1.04 10.274.073 3.226.504 1.634 1.458-5.375 1.518-11.151 1.315-13.528-.418-4.899m42.33 5.708c-1.085.743-3.202 1.649-4.705 2.014-1.502.365-4.427 2.1-6.5 3.854L102.5 78.41l2.926-3.193c1.609-1.757 3.792-3.469 4.851-3.805 3.351-1.063.236-2.731-3.717-1.989-3.406.639-10.56 6.447-10.56 8.573 0 .511-.934 3.426-2.076 6.479l-2.077 5.55-2.558-2.013C86.765 86.027 83 85.279 83 86.763c0 .419-.972 1.207-2.16 1.75-2.353 1.076-3.455 5.989-1.6 7.135.7.433.875.094.481-.933-.464-1.208-.193-1.453 1.08-.977 1.491.559 1.529.427.306-1.075-1.527-1.877-.999-2.904 1.704-3.316 1.161-.178 1.76.383 1.76 1.644 0 1.053-.178 1.735-.397 1.517-1.056-1.057-5.43 5.984-5.902 9.501-.294 2.195-.936 3.991-1.425 3.991s-1.386 1.089-1.993 2.421c-.723 1.587-1.636 2.216-2.652 1.826-1.159-.444-1.379-.152-.876 1.161.371.966.674 2.195.674 2.733 0 .537.45.699 1 .359s1-.093 1 .548.641.92 1.424.62c1.231-.473 1.231-.087 0 2.861-1.885 4.509-1.899 4.431 1.703 9.329l3.127 4.252 2.187-2.055c1.204-1.13 2.521-2.055 2.929-2.055s-.446 1.022-1.898 2.27c-2.396 2.062-2.524 2.521-1.395 5 1.373 3.013 2.692 3.495 3.537 1.293.323-.84 1.243-1.189 2.219-.84 1.181.423.938-.25-.833-2.306-1.762-2.046-1.886-2.388-.421-1.16 2.276 1.909 3.897 2.322 2.923.746-.404-.654.228-.676 1.838-.064 3.059 1.163 3.66.58 3.66-3.547 0-1.801.45-3.552 1-3.892s1-.141 1 .441.675 1.059 1.5 1.059 1.5-.493 1.5-1.096c0-.602.949-2.428 2.109-4.058s2.173-4.056 2.25-5.392c.078-1.337.739-2.66 1.471-2.941.908-.35 1.125-1.443.683-3.455-.547-2.487-.349-2.921 1.274-2.799 1.264.095 1.772.712 1.486 1.804-.238.912 1.668 5.547 4.237 10.298s4.432 8.639 4.14 8.639-2.576-3.713-5.073-8.25c-5.058-9.191-6.221-9.884-1.629-.971 4.093 7.944 6.557 11.37 7.537 10.479.458-.417.536.142.172 1.242-.652 1.969-.639 1.97.841.059 1.724-2.228 1.996-1.35.467 1.507-.714 1.333-.714 1.934 0 1.934.569 0 1.028 1.688 1.02 3.75-.009 2.184-.341 3.237-.796 2.522-.429-.676-.76 1.574-.735 5 .025 3.425-.286 8.703-.691 11.728-.406 3.025-.481 4.938-.167 4.25s1.223-1.25 2.02-1.25 1.894-1.012 2.439-2.25c.905-2.054.944-2.01.449.502-.34 1.724.218 4.244 1.497 6.75 1.705 3.342 2.539 3.998 5.085 3.998 1.675 0 3.852-.432 4.838-.959 1.64-.878 1.727-.601 1.024 3.241-.871 4.764-.554 5.718 1.898 5.718 1.228 0 1.799.929 1.973 3.211.135 1.766.793 3.559 1.463 3.984 2.129 1.353 6.476.878 7.111-.777 1.278-3.329.638-4.417-2.643-4.497-1.787-.043-2.713-.297-2.056-.565.656-.267.931-1.169.611-2.004-.477-1.243-.757-1.277-1.538-.186-.715.998-.814.893-.393-.416.31-.963.223-1.75-.193-1.75-.415 0-.81-1.012-.877-2.25l-.121-2.25 1.061 2.25c.584 1.238 1.443 2.25 1.909 2.25s.847.686.847 1.525 1.154 1.963 2.565 2.5c3.265 1.241 7.733 1.266 6.975.039-.357-.577.625-.59 2.566-.034 3.144.902 3.145.901 2.596-2.48-.326-2.006-1.922-4.74-3.922-6.717-1.855-1.833-2.119-2.241-.587-.906s3.054 2.159 3.382 1.831.048-3.996-.622-8.151c-.671-4.155-.986-9.622-.701-12.149.557-4.947 6.331-17.361 8.454-18.175.712-.273 1.294-1.6 1.294-2.949s.338-2.246.75-1.995.855-1.341.984-3.539c.193-3.289-.126-4.09-1.806-4.529-1.387-.363-1.84-1.052-1.415-2.152.345-.891.878-2.864 1.185-4.385.515-2.549.663-2.627 1.898-1 .737.971 1.374 1.316 1.416.766s.431-2.837.867-5.083c.657-3.392.523-4.085-.794-4.092-.872-.004-2.173.821-2.892 1.834-2.032 2.863-9.652 2.2-8.523-.742.842-2.193-1.378-1.672-3.051.717-1.288 1.839-1.299 2.329-.08 3.547 1.076 1.077 1.897 1.156 3.437.332 1.113-.596 2.024-.858 2.024-.583s-.937 1.001-2.083 1.615c-1.662.889-2.471.764-4-.62-1.381-1.25-1.917-1.365-1.917-.413 0 .727-.289 1.032-.643.679-.353-.354-.073-1.329.623-2.167 1.071-1.29.913-1.524-1.029-1.524-1.261 0-3.004-.643-3.872-1.428-1.398-1.264-1.597-1.132-1.733 1.153-.11 1.844.097 2.18.723 1.178.848-1.358.945-.623 1.062 8.097.019 1.375-.293 3.804-.693 5.399-.578 2.303-.441 2.75.667 2.175.767-.397.578-.055-.422.761-.999.815-1.807 1.74-1.796 2.054.012.313-1.134 3.167-2.546 6.341-1.411 3.173-2.671 6.22-2.8 6.77s-.749 2.257-1.379 3.794c-1.72 4.194-2.599 7.998-2.302 9.956.171 1.125-.382 1.745-1.547 1.735-1.536-.013-1.584-.164-.313-.985 1.18-.762.913-.999-1.25-1.11-1.512-.077-3.312-.201-4-.275-.687-.074-2.195.875-3.35 2.109-2.571 2.748-3.441 2.045-3.268-2.641l.131-3.583.619 3.481.618 3.481 2.877-2.981c1.582-1.639 2.522-2.306 2.089-1.481s-.437 1.185-.011.801c1.467-1.321 1.472-9.225.007-10.843-1.23-1.359-4.462-9.176-4.462-10.792 0-.32 2.138 1.424 4.75 3.876l4.75 4.458-4.416-4.707c-2.428-2.588-4.76-4.493-5.181-4.233s-1.429-.473-2.24-1.63l-1.473-2.104-.686 2.162c-.378 1.19-.897 1.952-1.154 1.695-.547-.547 2.302-7.683 3.068-7.683.285 0 .26.675-.056 1.5-.317.825-.051 1.5.59 1.5s.907.419.591.931-.049 1.256.595 1.654c.731.452.903.291.457-.43-.392-.635-.349-1.155.096-1.155s.809-1.355.809-3.011c0-1.998-.421-2.85-1.25-2.531-.687.263-1.25.142-1.25-.27 0-1.366-5.929-3.112-6.643-1.957-.372.602-1.265-.117-2.083-1.677-.787-1.502-1.211-2.95-.944-3.218s.784.447 1.146 1.589S115.529 115 116.01 115s3.008-2.471 5.615-5.491 5.67-5.78 6.808-6.134c2.006-.626 3.52-2.148 3.552-3.573.008-.384-1.344-.224-3.006.355-2.24.781-3.403.736-4.5-.174-1.351-1.122-1.905-.683-1.597 1.267.065.412-1.57.689-3.632.614-2.351-.086-2.905-.299-1.485-.572 1.245-.239 2.019-.833 1.718-1.32-.301-.486-1.18-.642-1.954-.345s-2.222.066-3.218-.513c-1.431-.832-.552-1.095 4.189-1.252 4.704-.155 5.146-.286 2.044-.603-2.176-.222-5.551-.087-7.5.3l-3.544.704 3 1.393 3 1.393-3.5-.645c-4.575-.843-8.609-2.944-9.347-4.867-.835-2.176.21-4.359 2.423-5.061 1.838-.583 14.055.147 18.758 1.121 1.283.266 2.078.07 1.766-.435s.663-1.181 2.166-1.501c3.952-.843 9.234-4.377 9.234-6.178 0-1.891-3.224-3.312-3.773-1.663-.217.649-1.144 1.173-2.06 1.165-1.452-.014-1.474-.153-.167-1.081 1.143-.812.786-.92-1.5-.455-2.211.451-2.605.345-1.5-.403 1.234-.835 1.112-1.018-.689-1.031-1.204-.008-4.317 1.826-6.917 4.077-3.937 3.408-5.222 3.992-7.686 3.5-1.627-.326-3.802-.592-4.833-.592-2.492 0-2.402-1.629.126-2.29 1.274-.333 1.76-.132 1.336.553-.427.691-.04.837 1.081.407.96-.369 3.171-.677 4.914-.685 2.501-.012 2.852-.237 1.668-1.066-1.145-.801-.908-.887 1-.36 1.375.379 2.2.371 1.833-.018-1.21-1.285 3.113-4.541 6.028-4.541 2.579 0 2.811-.272 2.351-2.75-.28-1.513-1.005-3.13-1.611-3.594-.661-.507-.369-.607.731-.25 1.007.327 2.242.594 2.744.594.501 0 .715 1.537.475 3.415-.315 2.456-.001 3.582 1.117 4.011 1.078.414 1.383.149.994-.864-.382-.995-.084-1.277.937-.886 1.204.462 1.448-.246 1.249-3.622-.317-5.38-2.297-6.578-7.758-4.697-2.201.758-3.968 1.101-3.928.761.404-3.353-2.195-4.16-5.689-1.767m-5.611 4.28c-2.551 1.42-5.138 3.68-5.75 5.023-1.391 3.053-1.386 3.346.055 3.346.641 0 .882-.284.535-.631-.956-.956 1.254-4.514 2.373-3.823.536.332.851.063.7-.597s.35-1.426 1.114-1.704c.932-.338 1.128-.082.596.78-.525.848-.397 1.038.377.56.644-.398.952-1.076.686-1.508-.267-.431.647-1.3 2.03-1.931 3.151-1.435 2.974-1.451 4.851.425.864.865 1.571 1.106 1.571.536 0-.864-3.123-3.164-4.184-3.083-.174.014-2.403 1.187-4.954 2.607m18.407-1.938c.973.254 2.323.237 3-.037s-.119-.481-1.769-.461-2.204.244-1.231.498m-14.872 6.057c.072 2.621.555 3.75 1.603 3.75 1.753 0 2.29-4.371.768-6.25-1.746-2.155-2.478-1.382-2.371 2.5m-39.318-.167c.048 1.165.285 1.402.604.605.289-.722.253-1.585-.079-1.917s-.568.258-.525 1.312M76.306 84c.623 1.65 1.46 3 1.861 3s.258-1.35-.317-3-1.413-3-1.861-3-.306 1.35.317 3M100 83.059c0 1.14.454 1.779 1.016 1.431.559-.346.779-1.013.488-1.483s.265-1.062 1.234-1.315c1.341-.35 1.224-.488-.488-.576-1.642-.085-2.25.44-2.25 1.943m11.75.603c.688.278 1.813.278 2.5 0 .688-.277.125-.504-1.25-.504s-1.937.227-1.25.504M95 84.723c0 .58.927 2.118 2.059 3.416l2.06 2.361-1.757-3C95.05 83.552 95 83.493 95 84.723m17.75 1.939c.688.278 1.813.278 2.5 0 .688-.277.125-.504-1.25-.504s-1.937.227-1.25.504m40.638.318c-3.069 1.24-6.39 5.881-6.373 8.905.012 2.056.223 2.294.985 1.115.828-1.282.972-1.246.985.25.012 1.409.905 1.75 4.574 1.75 2.785 0 4.319-.389 3.941-1-.34-.55-.141-1 .441-1s1.059.563 1.058 1.25c0 .88 1.482 1.147 5 .903 4.801-.332 5.001-.465 5.001-3.315 0-4.298-1.589-6.639-5.658-8.34-3.969-1.658-6.772-1.804-9.954-.518m-52.842 2.59c-.85 1.298-1.539 2.938-1.531 3.645s.574.179 1.258-1.172 2.364-2.726 3.735-3.056c2.443-.588 2.449-.611.288-1.188-1.611-.43-2.62.047-3.75 1.771M155.5 89c-.34.55-.141 1 .441 1S157 89.55 157 89s-.198-1-.441-1-.719.45-1.059 1m-26.468 2.215c.017.707.639 2.086 1.382 3.064 1.212 1.599 1.412 1.616 1.968.169.859-2.24.855-2.251-1.382-3.448-1.519-.813-1.992-.761-1.968.215m4.593-.417c-.879 1.422.855 3.141 2.28 2.261.743-.459 1.042-1.336.664-1.947-.803-1.3-2.24-1.453-2.944-.314m17.188-.115c.721.289 1.584.253 1.916-.079s-.258-.568-1.312-.525c-1.165.048-1.402.285-.604.604M105.022 91c-.137.275-.392 1.68-.566 3.121-.239 1.976.282 2.894 2.114 3.729 1.497.682 2.43.731 2.43.129 0-.539-.787-.986-1.75-.994-1.496-.013-1.532-.157-.25-.985.883-.57 1.014-.976.32-.985-.65-.008-1.376-1.028-1.614-2.265s-.546-2.025-.684-1.75m2.728.662c.688.278 1.813.278 2.5 0 .688-.277.125-.504-1.25-.504s-1.937.227-1.25.504M98 95.5c1.866 1.925 3.617 3.5 3.892 3.5s-1.026-1.575-2.892-3.5-3.617-3.5-3.892-3.5 1.026 1.575 2.892 3.5m69.158-1.5c0 1.375.227 1.938.504 1.25.278-.687.278-1.812 0-2.5-.277-.687-.504-.125-.504 1.25m-41.555 4.833c-.283.459.14.834.941.834s1.456-.375 1.456-.834-.423-.833-.941-.833-1.173.375-1.456.833m-22.573.393c-.016.399.918 2.199 2.076 4 1.159 1.801 1.819 2.41 1.467 1.354-.367-1.1-.092-2.315.643-2.844.926-.667.803-.771-.44-.372-1.024.329-2.127-.14-2.719-1.156-.548-.939-1.01-1.381-1.027-.982m48.429 2.841c-1.076 1.741.149 2.11 1.521.457.789-.95.865-1.524.201-1.524-.584 0-1.36.48-1.722 1.067m11.413.683c-1.269 1.619-1.222 1.64.628.283 1.1-.807 2.188-1.594 2.417-1.75s-.054-.283-.628-.283-1.662.787-2.417 1.75m-52.569-.05c1.222.316 1.501.843.865 1.634-.98 1.219.404 6.427 1.435 5.397.307-.308.057-1.498-.557-2.645-.742-1.386-.769-2.086-.081-2.086.569 0 1.035-.675 1.035-1.5 0-.923-.865-1.455-2.25-1.384-1.774.091-1.869.215-.447.584M25.5 104.811c-3.551.718-4.593 2.146-3.315 4.544 1.031 1.935.98 2.011-.521.773-.915-.755-1.702-1.205-1.747-1-.046.204-.199 1.272-.34 2.372s-.589 3.463-.996 5.25c-.709 3.113-.612 3.25 2.281 3.25 1.661 0 3.273.409 3.582.91 1.156 1.87-.709 4.09-3.434 4.09-1.936 0-2.935.606-3.3 2.001-.288 1.101-.115 1.75.383 1.441.499-.308.927.704.952 2.249s.587 4.051 1.25 5.569l1.205 2.76 5.967-5.352c5.899-5.291 5.936-5.358 3.25-5.871-1.626-.311-2.735-.073-2.762.592-.025.611-.632-.239-1.349-1.889-2.032-4.678-1.064-5.798 4.544-5.26 4.223.406 4.85.227 4.85-1.387 0-2.669 1.983-2.291 2.086.397.071 1.867.242 1.739 1.003-.75.856-2.802.36-8.5-.74-8.5-1.302 0-3.276 2.927-2.357 3.495 1.35.834 1.293 2.767-.067 2.313-.591-.197-.929-.615-.75-.929s-.311-1.338-1.089-2.275c-1.23-1.482-1.19-1.926.304-3.404 1.619-1.602 1.681-1.584 1.07.3-.491 1.513-.405 1.656.354.589 2.256-3.173-4.706-7.411-10.314-6.278m54.263 1.2c1.614 1.808 5.904 2.076 5.904.37 0-.711-.488-.982-1.084-.602-1.594 1.016-2.899.968-4.583-.169-1.242-.839-1.283-.77-.237.401m88.316.572c.048 1.165.285 1.402.604.605.289-.722.253-1.585-.079-1.917s-.568.258-.525 1.312m-106.266.1c.721.289 1.584.253 1.916-.079s-.258-.568-1.312-.525c-1.165.048-1.402.285-.604.604M103.5 108c-.34.55-.141 1 .441 1s1.059-.45 1.059-1-.198-1-.441-1-.719.45-1.059 1m-47.628 1.75c-1.243 1.586-1.208 1.621.378.378 1.666-1.307 2.195-2.128 1.372-2.128-.207 0-.995.787-1.75 1.75m24.794.678c-.838 2.183 1.877 3.181 5.231 1.924 1.432-.536 5.19-.947 8.352-.913 3.719.039 5.749-.347 5.75-1.095 0-.636-.786-1.002-1.749-.813-5.067.997-9.237 1.257-8.8.55.272-.44-.684-.671-2.124-.512-1.441.158-2.951.823-3.356 1.479-.528.855-1.01.704-1.704-.537-.887-1.585-1.021-1.592-1.6-.083m21.018.954c-.939 2.445-.984 2.398 1.804 1.865 1.369-.262 2.238-.882 1.931-1.378s-.938-.666-1.403-.379-1.026-.02-1.247-.683c-.247-.741-.666-.519-1.085.575M155.5 113c-.34.55.335 1 1.5 1s1.84-.45 1.5-1-1.015-1-1.5-1-1.16.45-1.5 1M73 117.559c0 .857.457 1.276 1.016.931.559-.346.758-1.047.441-1.559-.857-1.387-1.457-1.129-1.457.628m-28.563 2.691L41.5 123.5l3.25-2.937c1.788-1.615 3.25-3.078 3.25-3.25 0-.773-.825-.092-3.563 2.937m104.649-2.75c.104 1.894 1.77 5.084 1.828 3.5.031-.825-.381-2.175-.914-3s-.945-1.05-.914-.5m-33.055 1c0 .55.436 1.675.969 2.5s.969 1.05.969.5-.436-1.675-.969-2.5-.969-1.05-.969-.5m-25.842 2.183c-1.01.404-.895.999.5 2.59 1.759 2.007 1.754 2.045-.189 1.337-1.42-.517-1.692-.418-.937.344.757.763 2.031.735 4.417-.097l3.353-1.169-2.277-1.844c-2.385-1.931-2.735-2.015-4.867-1.161m45.624 0c.721.289 1.584.253 1.916-.079s-.258-.568-1.312-.525c-1.165.048-1.402.285-.604.604m29.687 1.766c-1.1 1.128-3.125 2.815-4.5 3.749-1.375.933-1.987 1.721-1.36 1.75 1.317.06 9.085-6.614 8.35-7.175-.269-.206-1.39.549-2.49 1.676m-146.5-.39c0 .582.45.781 1 .441s1-.816 1-1.059-.45-.441-1-.441-1 .477-1 1.059m72-.166c0 .491.712 1.166 1.582 1.5 2.446.939 2.769.735 1.418-.893-1.38-1.662-3-1.99-3-.607m61.872.357c1.395 1.778 7.563 2.474 8.499.959.269-.435-1.061-.61-2.955-.389-1.974.23-4.184-.179-5.18-.959-1.57-1.231-1.605-1.194-.364.389m3.878-.588c.688.278 1.813.278 2.5 0 .688-.277.125-.504-1.25-.504s-1.937.227-1.25.504m-18.578 3.173c-2.202 1.694-2.232 1.869-.558 3.228 1.264 1.026 1.544 1.062.98.124-.474-.788-.089-2.087.963-3.25 2.177-2.406 1.66-2.444-1.385-.102M35.405 128.25 33.5 130.5l2.25-1.905c1.237-1.048 2.25-2.06 2.25-2.25 0-.8-.805-.209-2.595 1.905m116.658-1.122c-.034.895.635 2.206 1.487 2.914 1.282 1.063 1.802.998 3.004-.374.799-.914.912-1.212.25-.664-1.84 1.522-2.783 1.209-3.773-1.254-.612-1.523-.925-1.724-.968-.622m-63.984 2.455c.048 1.165.285 1.402.604.605.289-.722.253-1.585-.079-1.917s-.568.258-.525 1.312m84.362-.138c1.068.855 2.38 1.555 2.917 1.555 1.27 0 .703-.462-2.358-1.92-2.357-1.122-2.389-1.102-.559.365m-159.628.238c.721.289 1.584.253 1.916-.079s-.258-.568-1.312-.525c-1.165.048-1.402.285-.604.604M22 132c.825.533 1.95.969 2.5.969s.325-.436-.5-.969-1.95-.969-2.5-.969-.325.436.5.969m147.564.707c-.542 1.425-.428 1.54.56.56.684-.679.991-1.486.683-1.793-.308-.308-.867.247-1.243 1.233m8.436-.812c.825.46 2.85 1.102 4.5 1.429l3 .594-3-1.414c-3.375-1.591-7.193-2.107-4.5-.609m-24.303 4.04c-2.437 4.127-2.065 5.193.445 1.273 1.159-1.81 1.915-3.484 1.68-3.719s-1.191.866-2.125 2.446m-2.717-.411c-.696.838-1.071 1.718-.835 1.955.237.236.98-.449 1.651-1.524 1.452-2.325.968-2.58-.816-.431m19.472 1.29c.45.793-.635 3.393-2.732 6.552-4.247 6.397-7.728 13.108-7.698 14.844.012.71.937-.735 2.055-3.21s3.876-7.335 6.128-10.8c3.311-5.094 3.847-6.53 2.798-7.5-1.018-.942-1.136-.918-.551.114M16 146.16c-5.225 4.99-7.7 7.706-5.5 6.034 3.86-2.933 16.424-15.239 15.469-15.151-.258.024-4.744 4.127-9.969 9.117m118.079-7.577c.048 1.165.285 1.402.604.605.289-.722.253-1.585-.079-1.917s-.568.258-.525 1.312M.392 151c0 7.425.157 10.463.35 6.75s.192-9.787 0-13.5c-.193-3.713-.35-.675-.35 6.75m81.768-7.899c-.088 1.43-.666 4.053-1.285 5.828l-1.125 3.227-2.432-4.078c-3.311-5.553-3.89-5.149-.964.672 1.313 2.613 2.722 5.875 3.131 7.25 1.733 5.822 4.855 12 6.065 12 .717 0 1.509.787 1.761 1.75.344 1.317.486 1.193.573-.5.073-1.407-.459-2.25-1.42-2.25-.856 0-2.334-1.88-3.342-4.25-2.935-6.904-3.221-9.243-1.544-12.605.853-1.711 1.369-4.581 1.147-6.378-.329-2.654-.435-2.779-.565-.666m41.998-.101c0 1.375.227 1.938.504 1.25.278-.687.278-1.812 0-2.5-.277-.687-.504-.125-.504 1.25m11.037.5c.02 1.65.244 2.204.498 1.231s.237-2.323-.037-3-.481.119-.461 1.769m-9.116.083c.048 1.165.285 1.402.604.605.289-.722.253-1.585-.079-1.917s-.568.258-.525 1.312m62.477 1.973c-.377 2.006-.485 3.848-.241 4.093.245.244.753-1.198 1.129-3.205.377-2.006.485-3.848.241-4.093-.245-.244-.753 1.198-1.129 3.205M125 148.559c0 .857.457 1.276 1.016.931.559-.346.758-1.047.441-1.559-.857-1.387-1.457-1.129-1.457.628m23.701 1.105c.401 1.044.242 1.419-.426 1.006-.586-.362-1.332.037-1.659.888-.371.967-.183 1.293.502.869.752-.465.909.382.501 2.698-.573 3.248-.555 3.272.476.625.589-1.512 1.422-2.75 1.85-2.75s.563-1.125.3-2.5-.862-2.5-1.33-2.5-.565.749-.214 1.664M189.5 152c.34.55.816 1 1.059 1s.441-.45.441-1-.477-1-1.059-1-.781.45-.441 1m-14.353 7.436c-.081 2.715.522 7.665 1.34 11s2.157 10.29 2.975 15.455c.817 5.165 1.709 9.613 1.981 9.885.868.868-.577-9.943-2.71-20.276-1.136-5.5-2.374-12.475-2.752-15.5l-.687-5.5zM4.872 157.75c-1.243 1.586-1.208 1.621.378.378C6.916 156.821 7.445 156 6.622 156c-.207 0-.995.787-1.75 1.75M137.5 157c.34.55.816 1 1.059 1s.441-.45.441-1-.477-1-1.059-1-.781.45-.441 1m-.041 3.067c-.363.586-.445 1.281-.183 1.543s.743-.218 1.069-1.067c.676-1.762.1-2.072-.886-.476m21.62 1.516c.048 1.165.285 1.402.604.605.289-.722.253-1.585-.079-1.917s-.568.258-.525 1.312m31.738 2.167c-.101 1.512-.12 3.827-.042 5.144s-.315 3.342-.872 4.5c-.931 1.935-.897 1.963.41.345.827-1.023 1.445-4.063 1.473-7.25.051-5.658-.644-7.622-.969-2.739m-80.317.728c-2.75 1.296-4.55 2.365-4 2.377s3.25-1.038 6-2.333 4.55-2.365 4-2.377-3.25 1.038-6 2.333m31.611.633c-.616 1.767-.945 3.388-.731 3.602s.893-1.057 1.509-2.824.945-3.388.731-3.602-.893 1.057-1.509 2.824m2.513-.572c-.343.893-.585 2.375-.538 3.293.047.917.482.341.967-1.282.943-3.156.609-4.718-.429-2.011M.411 183c0 9.625.15 13.563.334 8.75.183-4.813.183-12.688 0-17.5-.184-4.812-.334-.875-.334 8.75M102 168c-.825.533-1.05.969-.5.969s1.675-.436 2.5-.969 1.05-.969.5-.969-1.675.436-2.5.969m-82.73 3.772-2.231 1.728 4.343 7.312c2.388 4.022 4.908 7.847 5.601 8.5s.017-.814-1.5-3.26-3.571-6.264-4.565-8.483c-1.658-3.704-1.675-4.18-.207-5.802 2.017-2.228 1.439-2.226-1.441.005m107.73-.394c0 .758-.997 2.04-2.216 2.849l-2.216 1.472 2.216 1.185c1.549.829 2.216.857 2.216.092 0-.602.384-.857.854-.566.825.51 3.146-3.516 3.146-5.457 0-.524-.9-.953-2-.953s-2 .62-2 1.378M90 174c.589 1.1 1.295 2 1.57 2s.019-.9-.57-2-1.295-2-1.57-2-.019.9.57 2m57 1c-.901.582-1.025.975-.309.985.655.008 1.469-.435 1.809-.985.767-1.242.421-1.242-1.5 0m-28.25 1.356c-3.396 1.272-3.453 2.003-.269 3.453 2.137.974 2.635.842 3.593-.946 1.466-2.74.083-3.784-3.324-2.507m72.917-.689c-.367.366-.653 1.379-.637 2.25.025 1.3.221 1.257 1.092-.242 1.077-1.852.765-3.228-.455-2.008m-62.796 7.583c-.071.137-.216 1.375-.322 2.75s-.493 3.625-.861 5c-.537 2.01-.385 1.911.777-.5.795-1.65 1.465-2.466 1.49-1.813.062 1.647 12.44 7.594 14.702 7.064 1.332-.313.527-1.02-2.907-2.556-2.613-1.168-4.75-2.615-4.75-3.216 0-.651.899-.463 2.223.464 1.222.856 4.05 1.557 6.285 1.557 3.441 0 4.063.317 4.063 2.067 0 1.799-.148 1.864-1.146.5-1.929-2.639-3.675-1.878-1.901.829 1.776 2.71 4.597 3.775 6.615 2.497.835-.529.917-.868.214-.878-.648-.008-1.084-1.377-1-3.141.141-2.997-.099-3.195-5.853-4.818-3.3-.932-7.895-2.675-10.21-3.875-3.64-1.886-6.992-2.758-7.419-1.931"/><path fill-opacity=".269" fill-rule="evenodd" d="M174.442.906c.308.498 1.46.671 2.559.383 2.453-.641 2.694 1.362.249 2.073-1.011.294-.695.43.75.323 1.918-.142 2.427.24 2.188 1.643-.195 1.146.432 2.021 1.681 2.348 1.096.287 1.872 1.039 1.726 1.673-.147.633-.078.813.152.401.838-1.498 4.032-.703 4.51 1.123.376 1.441.057 1.76-1.384 1.384-1.03-.27-1.873.012-1.873.626 0 1.395 2.057 1.426 5.584.085 2.481-.943 2.594-.887 1.315.655-1.311 1.58-1.197 1.582 1.801.032 3.452-1.785 5.756-2.242 3.3-.655-1.282.828-1.246.972.25.985.963.008 1.75.303 1.75.655s-.787 1.229-1.75 1.95c-1.605 1.202-1.572 1.266.394.771 1.967-.494 2.154-1.234 2.263-8.95L200.025 0h-13.071c-7.557 0-12.836.382-12.512.906M155.5 3c-.34.55-.141 1 .441 1S157 3.55 157 3s-.198-1-.441-1-.719.45-1.059 1m15.313-.317c.721.289 1.584.253 1.916-.079s-.258-.568-1.312-.525c-1.165.048-1.402.285-.604.604M184 3.833c0 .642-.675 1.167-1.5 1.167s-1.5.45-1.5 1 .689 1 1.531 1c1.632 0 3.136-2.667 2.093-3.71-.343-.343-.624-.098-.624.543m3 1.667c.685.825 1.695 1.5 2.245 1.5.558 0 .449-.663-.245-1.5-.685-.825-1.695-1.5-2.245-1.5-.558 0-.449.663.245 1.5m7.5 3.5c1.181.508 1.42.888.583.93-.779.038-1.181.306-.893.594.288.287 1.301.225 2.251-.14 1.369-.525 1.45-.838.393-1.508-.734-.465-2.009-.821-2.834-.79-.989.036-.819.347.5.914M83.595 18.154c.333.539.856.728 1.163.421s1.274-.021 2.15.635c1.329.996 1.387.963.352-.198-1.422-1.596-4.577-2.335-3.665-.858m5.119.86c.666 2.549 1.934 3.364 2.871 1.848.452-.731.291-.903-.43-.457-.677.418-1.155.092-1.155-.787 0-.825-.408-1.752-.907-2.06-.498-.309-.669.347-.379 1.456M85 21.902c0 1.038 1.902 2.541 2.466 1.948.183-.192-.297-.93-1.067-1.639-.769-.71-1.399-.849-1.399-.309m-3.913 3.494c-.942 1.134-.919 1.402.107 1.252 1.382-.203 2.273-1.515 1.532-2.255-.243-.243-.98.208-1.639 1.003m-3.523 7.897c.376.986.935 1.541 1.243 1.233s.001-1.114-.683-1.793c-.988-.98-1.102-.865-.56.56m4.436.29c-1.681.933-1.967 1.392-.872 1.402.895.008 2.187-.66 2.872-1.485 1.46-1.76 1.31-1.753-2 .083M68 45.5c0 .825.436 1.5.969 1.5s.709-.675.393-1.5c-.317-.825-.753-1.5-.969-1.5S68 44.675 68 45.5m-8.5 19.863c-.993 7.918-1.453 15.238-1.021 16.267s.932 2.989 1.11 4.356.794 2.642 1.368 2.833S62 90.425 62 91.962c0 1.538 1.155 5.32 2.567 8.404 2.698 5.893 2.511 8.111-.601 7.123-1.026-.326-3.181.088-4.789.92-1.608.831-3.278 1.192-3.711.801s-.482-.179-.11.471.212 1.468-.356 1.819-.731 1.127-.362 1.724c.375.605.211.801-.37.442-.573-.354-1.614.047-2.315.891-.7.843-1.9 1.294-2.665 1s-1.148-.14-.851.341c.298.482-4.291 5.288-10.198 10.68-5.906 5.393-8.489 7.404-5.739 4.47 2.831-3.021 4.18-5.046 3.109-4.669-1.548.545-1.678.409-.716-.75 1.787-2.153-1.373-4.825-5.276-4.462-3.88.361-4.991 1.791-2.795 3.6 1.202.989 1.253 1.197.178.733-.825-.357-.626.06.441.926 1.068.866 2.868 1.594 4 1.619 1.628.036.817 1.191-3.873 5.518-3.501 3.23-6.299 5.106-6.829 4.576-.493-.493-1.15-2.784-1.459-5.091-.519-3.869-.754-4.146-3.038-3.573a132 132 0 0 1-5.609 1.234c-1.723.337-4.069 1.216-5.213 1.955s-2.419 1.004-2.833.59-.663-.304-.552.246c.404 2.003-.056 3.605-.887 3.092-.468-.29-.915 5.646-.992 13.191L.014 163.5l2.661-3.5c2.874-3.781 23.574-24.085 24.059-23.599.163.162-4.269 4.751-9.847 10.197-5.579 5.446-11.66 12.243-13.515 15.104L0 166.904V200h126.95l-.541-2.75c-.298-1.512.145-4.325.985-6.25s1.545-2.734 1.567-1.797c.021.937-.457 2.792-1.064 4.123-.81 1.778-.8 2.986.035 4.548.994 1.857 2.023 2.126 8.135 2.126 5.284 0 7.136-.366 7.569-1.494.316-.822 1.089-1.206 1.719-.854q1.152.648.145-.382c-.55-.563-3.325-1.778-6.166-2.699-2.841-.922-6.727-3.149-8.637-4.95-3.332-3.142-3.534-4.455-1.146-7.441.141-.176 2.16.6 4.488 1.725s4.691 1.762 5.252 1.415c.567-.35.715-.138.333.479-.732 1.185 5.757 3.374 10.624 3.583 1.511.065 2.781.343 2.821.618 1.239 8.419 1.283 8.329-4.069 8.127-2.284-.086-2.327-.016-.5.819 1.1.502 9.14.945 17.867.984l15.866.07-.63-2.25c-.346-1.238-1.513-7.2-2.592-13.25s-2.413-12.8-2.963-15c-1.188-4.751-1.372-15.182-.28-15.857.423-.261.604 1.258.402 3.375s.555 7.818 1.683 12.666c1.127 4.849 2.312 11.291 2.632 14.316s1.089 7.863 1.708 10.75l1.126 5.25h15.592l-1.341-3.803c-.738-2.091-2.784-6.66-4.547-10.152-2.685-5.319-3.028-6.738-2.114-8.744 1.597-3.506 1.273-5.11-.566-2.801-1.552 1.948-1.575 1.935-.907-.5 1.038-3.784 1.566-11.269.939-13.322-.332-1.089-1.143-1.597-2.014-1.263-1.176.451-1.127-.003.25-2.334 1.43-2.42 1.512-3.369.504-5.804-.892-2.153-.932-4.13-.155-7.599 1.333-5.949.011-8.332-5.443-9.805-6.952-1.877-11.53-4.042-10.856-5.133.382-.618.166-.751-.525-.324-.741.458-1.686-.494-2.565-2.584l-1.391-3.309-.701 3.989c-.386 2.193-1.307 4.473-2.047 5.067-.74.593-2.94 4.405-4.889 8.472-3.747 7.818-4.412 13.266-2.617 21.449.483 2.2 1.183 7.039 1.556 10.752.618 6.157.516 6.739-1.152 6.592-1.007-.089-3.517-.09-5.58-.002-3.465.146-3.75.386-3.75 3.158 0 2.84-.216 3-4.052 3-3.666 0-4.163-.31-5.218-3.25-.641-1.787-1.067-3.588-.948-4 .12-.412-.71-.75-1.843-.75-1.859 0-1.999-.418-1.424-4.25l.638-4.25-4.827.291c-4.748.287-4.855.227-6.617-3.663-1.078-2.381-1.566-5.083-1.227-6.791.491-2.47.439-2.554-.405-.645-.533 1.205-2.051 2.9-3.373 3.766-3.008 1.971-22.142 9.563-23.902 9.484-1.158-.052 2.797-1.778 18.198-7.941 2.475-.99 4.322-1.958 4.104-2.151s.12-3.318.752-6.944.861-8.69.51-11.25c-.436-3.183-.279-4.656.498-4.656 1.748 0 1.346-3.705-.477-4.405-1.012-.388-1.423-1.348-1.103-2.573.281-1.074.22-1.916-.137-1.869-1.687.219-3.124-.226-2.912-.903.129-.412-1.277-3.377-3.123-6.587-3.508-6.097-4.609-11.272-2.859-13.436.775-.958.624-1.117-.612-.643-.904.347-1.641 1.731-1.641 3.082 0 1.361-.44 2.18-.989 1.841-.587-.363-.721.086-.33 1.105.483 1.256.304 1.497-.666.898-.93-.576-1.087-.436-.527.47 1.176 1.904-4.541 12.012-6.797 12.017-1.113.002-1.535-.441-1.096-1.152.456-.737.273-.882-.507-.399-.708.437-1.088 2.289-.905 4.404.295 3.401.122 3.657-2.533 3.752-1.567.057-3.204.677-3.638 1.378-.434.702-1.3.96-1.925.574-.648-.401-1.019-.159-.862.562.151.696-.432 1.422-1.297 1.614-1.777.394-4.34-4.254-3.286-5.959.383-.621.202-.793-.426-.405-.617.382-2.628-1.335-4.622-3.947l-3.53-4.623 1.879-3.684c1.826-3.579 1.827-3.683.023-3.683-1.327 0-1.572.34-.862 1.196.574.692.613 1.432.093 1.753-.495.306-1.417-1.168-2.049-3.277-1.469-4.904-1.444-5.429.228-4.787.809.31 1.829-.469 2.478-1.893.607-1.332 1.563-2.421 2.125-2.421.561 0 1.021-1.54 1.021-3.423 0-2.158.89-4.482 2.409-6.286 2.125-2.526 2.197-2.862.613-2.862-1.157 0-1.597.515-1.238 1.449.354.923.136 1.191-.599.736-1.481-.915-1.125-5.419.538-6.799 1.909-1.584 1.54-3.033-.599-2.354-1.355.43-2.031.003-2.433-1.534-.306-1.17-.995-1.857-1.53-1.526-.563.348-.755-.238-.454-1.388.286-1.095.838-1.794 1.226-1.555s.475-1.002.193-2.761c-.304-1.902-.666-2.488-.892-1.447-.209.963-.798 1.75-1.307 1.75-.51 0-.911-.787-.892-1.75.041-2.052 2.436-15.518 3.469-19.5.674-2.602.529-2.75-2.696-2.75-1.874 0-3.835-.395-4.358-.879-.523-.483-2.569-1.165-4.547-1.516l-3.597-.638zm17.579-5.78c.048 1.165.285 1.402.604.605.289-.722.253-1.585-.079-1.917s-.568.258-.525 1.312m46.191 10.348c.08 1.062.482 1.722.894 1.468.412-.255.495-1.124.185-1.931-.781-2.036-1.252-1.834-1.079.463M75.158 72c0 1.375.227 1.938.504 1.25.278-.687.278-1.812 0-2.5-.277-.687-.504-.125-.504 1.25m57.638-1.18c-1.456.581-1.336.854.823 1.87 2.042.962 2.323.945 1.463-.092-.586-.705-.769-1.578-.407-1.94.782-.781.405-.749-1.879.162m-26.872 3.93L103.5 77.5l2.75-2.424c2.57-2.266 3.209-3.076 2.424-3.076-.179 0-1.416 1.237-2.75 2.75m21.884.394c.508 3.466 2.942 3.829 2.942.44 0-1.422-.691-2.597-1.681-2.856-1.348-.352-1.597.126-1.261 2.416m-12.412 2.649c.069 2.447.576 3.707 1.493 3.707 2.16 0 2.316-5.32.189-6.458-1.571-.841-1.773-.511-1.682 2.751m-7.793-.96c-.283.459.12.834.897.834s1.18-.375.897-.834S108.71 76 108.5 76s-.614.375-.897.833m12.981 5.808c-.527 1.373-.38 1.435.893.378 1.735-1.44 1.916-2.019.63-2.019-.491 0-1.176.739-1.523 1.641m15.671 2.322c-1.025 1.642-.983 1.87.26 1.393.817-.313 1.485-1.197 1.485-1.963 0-1.855-.289-1.76-1.745.57m-25.748 1.026c-.35.566.051.734.941.393 1.732-.665 2.049-1.382.611-1.382-.518 0-1.216.445-1.552.989M134 88.378c0 .207.787.995 1.75 1.75 1.586 1.243 1.621 1.208.378-.378-1.307-1.666-2.128-2.195-2.128-1.372m-51.43 1.509c-.301.487.087 1.413.862 2.057 1.153.956 1.312.794.873-.887-.594-2.271-.919-2.49-1.735-1.17M129.5 90c.34.55 1.068 1 1.618 1s.722-.45.382-1-1.068-1-1.618-1-.722.45-.382 1m-26.021 2.024c-1.366 1.509-1.535 2.273-.664 3.008.643.542.963.697.712.345-1.189-1.667 1.754-4.285 5.226-4.649l3.747-.392-3.595-.168c-2.492-.116-4.157.453-5.426 1.856m23.134-.589c.524 1.365.218 1.451-2.064.584-1.474-.561-3.887-.966-5.364-.901l-2.685.119 3 .839c1.91.534-.026.645-5.325.306-8.291-.53-8.321-.524-7.169 1.628.636 1.189 1.413 1.905 1.726 1.591.314-.313 1.169.211 1.9 1.165.83 1.082 1.619 1.358 2.099.734.832-1.082 3.629-1.121 12.423-.174 4.565.492 5.914.29 7-1.05.74-.913.831-1.351.201-.974-.63.378-1.414-.014-1.743-.871s-1.081-1.259-1.672-.894c-.641.396-.946-.041-.757-1.083.174-.961-.246-1.943-.934-2.184-.802-.28-1.03.137-.636 1.165m42.118 1.645c.354 1.352.807 1.806 1.057 1.057.24-.722-.038-1.787-.62-2.369-.742-.742-.872-.351-.437 1.312M96 93.313c0 .172 1.463 1.635 3.25 3.25l3.25 2.937-2.937-3.25C96.825 93.221 96 92.54 96 93.313m50.561 5.853c-1.551 2.625-1.604 3.065-.314 2.57 1.009-.388 1.733.08 2.061 1.333.709 2.712 6.23 2.663 7.692-.069 1.415-2.644 2.785-2.536 3.18.25.261 1.832.955 2.25 3.734 2.25 2.835 0 3.732-.569 5.288-3.355l1.875-3.355-6.289.282c-11.651.523-15.789.094-15.15-1.572.973-2.534-.108-1.668-2.077 1.666m-30.297-.448c1.52.229 3.77.223 5-.014s-.014-.425-2.764-.418-3.756.202-2.236.432m-11.651 3.465c.289.467.944.591 1.456.274 1.308-.808 1.161-1.124-.525-1.124-.801 0-1.22.383-.931.85m46.846-.116c-1.076 1.741.149 2.11 1.521.457.789-.95.865-1.524.201-1.524-.584 0-1.36.48-1.722 1.067m11.413.683c-1.269 1.619-1.222 1.64.628.283 1.1-.807 2.188-1.594 2.417-1.75s-.054-.283-.628-.283-1.662.787-2.417 1.75m-52.08-.074c.874.351.973.902.307 1.705-.649.781-.631 1.686.053 2.653.859 1.214.942 1.171.486-.252-.303-.945-.113-1.988.422-2.319 1.222-.755.226-2.49-1.369-2.384-.817.054-.786.241.101.597m42.941 4.448c.679.684 1.486.991 1.793.683.308-.308-.247-.867-1.233-1.243-1.425-.542-1.54-.428-.56.56M158 108.5c-1.375.786-2.024 1.445-1.441 1.465.582.019 1.932-.626 3-1.433 2.469-1.868 1.68-1.884-1.559-.032m-71.667 1.956c0 .801.383 1.22.85.931s.591-.944.274-1.456c-.808-1.308-1.124-1.161-1.124.525m4.31.312c-.261.423 1.287.601 3.441.395s3.916-.551 3.916-.768c0-.745-6.882-.396-7.357.373m10.921.939c-.542 1.425-.428 1.54.56.56.684-.679.991-1.486.683-1.793-.308-.308-.867.247-1.243 1.233M167 111c0 .55.477 1 1.059 1s.781-.45.441-1-.816-1-1.059-1-.441.45-.441 1m-58 1.642c0 .537.7 1.849 1.555 2.917 1.467 1.83 1.487 1.798.365-.559-1.458-3.061-1.92-3.628-1.92-2.358m47.5.358c-.34.55.11 1 1 1s1.34-.45 1-1-.79-1-1-1-.66.45-1 1m-41.844 2.545c.304.794.956 1.195 1.449.89 1.24-.766 1.126-1.132-.554-1.777q-1.45-.557-.895.887M165 117c0 .55.477 1 1.059 1s.781-.45.441-1-.816-1-1.059-1-.441.45-.441 1m-121.5 2.531c-3.311 2.714-5.121 3.107-5.741 1.245-.225-.674-.67-.224-.99 1s-.147 2.224.384 2.224.659.495.285 1.1c-1.316 2.13 2.986-.857 6.508-4.518 3.996-4.153 3.826-4.553-.446-1.051m70 1.469c.853 1.65 1.776 3 2.051 3s-.198-1.35-1.051-3-1.776-3-2.051-3 .198 1.35 1.051 3m13.157-1.75c.254.412-.068.75-.715.75-.67 0-.958.832-.669 1.935.634 2.425-1.866 3.556-2.767 1.252-.549-1.404-.912-1.21-2.161 1.151-.826 1.562-1.282 3.058-1.015 3.326s.789-.463 1.157-1.624c.663-2.087.691-2.083 2.613.36 1.069 1.358 2.62 4.389 3.448 6.735s2.127 4.963 2.887 5.815c1.289 1.446 1.843 10.143.62 9.735-.305-.102-.667.249-.804.78-.137.53 1.325.958 3.25.951 3.485-.014 4.627.962 2.249 1.922-.747.301-.545.536.5.583 1.871.084 2.414-2.393.75-3.421-.55-.34-1.003-2.054-1.006-3.809-.01-5.884-1.914-10.196-6.48-14.677-2.483-2.437-4.514-4.835-4.514-5.33s2.067 1.398 4.593 4.208c2.526 2.809 5.256 5.108 6.067 5.108.943 0 1.281.632.938 1.75-.296.963-.174 4 .271 6.75.778 4.811.839 4.886 1.626 2 .449-1.65 2.308-6.553 4.13-10.896s3.075-8.28 2.785-8.75.075-.854.813-.854c.737 0 1.43-1.08 1.539-2.399.194-2.342.038-2.392-6.532-2.088-4.686.217-6.122.031-4.73-.611 1.447-.668.894-.772-2-.376-2.522.346-3.507.216-2.666-.35.922-.62.412-.863-1.652-.787-1.642.061-2.778.449-2.525.861m-110.642 1.5c.026 2.933 1.346 4.052 4.382 3.715 3.24-.359 5.157-2.493 3.3-3.673-1.687-1.073-3.929-.977-3.24.139a1.104 1.104 0 0 1-.369 1.514c-.519.321-1.232-.322-1.583-1.43-.786-2.476-2.511-2.66-2.49-.265m75.068-.385c.23.2 1.542.9 2.917 1.555 2.357 1.122 2.389 1.102.559-.365-1.593-1.276-4.848-2.391-3.476-1.19m49.302 2.806c-1.587 1.194-3.242 2.473-3.677 2.843-.436.369.014 1.289 1 2.045.985.756 1.447.969 1.024.474-.422-.496.679-2.394 2.447-4.217 3.697-3.815 3.373-4.281-.794-1.145m16.365-1.509c.688.278 1.813.278 2.5 0 .688-.277.125-.504-1.25-.504s-1.937.227-1.25.504m-2.982 1.506c.582.582 1.647.86 2.369.62.749-.25.295-.703-1.057-1.057-1.663-.435-2.054-.305-1.312.437M159.5 123c-1.63.701-1.688.872-.309.93.93.038 1.969-.38 2.309-.93.711-1.15.676-1.15-2 0m1.5 2.982c-2.333 1.809-2.354 1.901-.319 1.38 1.199-.308 2.423-1.19 2.718-1.961.68-1.771.615-1.755-2.399.581m8.329 4.715c.104 1.936.533 2.836 1.088 2.282.557-.554.49-1.812-.17-3.196-1.021-2.142-1.078-2.085-.918.914M9.813 129.683c.721.289 1.584.253 1.916-.079s-.258-.568-1.312-.525c-1.165.048-1.402.285-.604.604M85 131.378c0 .207.787.995 1.75 1.75 1.586 1.243 1.621 1.208.378-.378-1.307-1.666-2.128-2.195-2.128-1.372M134.5 133c-.782 1.266.542 1.266 2.5 0 1.293-.835 1.266-.971-.191-.985-.93-.008-1.969.435-2.309.985m20.064 1.707c-.542 1.425-.428 1.54.56.56.684-.679.991-1.486.683-1.793-.308-.308-.867.247-1.243 1.233m-3.584.817c-.696.838-1.071 1.718-.835 1.955.237.236.98-.449 1.651-1.524 1.452-2.325.968-2.58-.816-.431m-70.386 2.907c1.476 3.663 1.444 5.592-.187 11.319-.379 1.332-.203 2.25.431 2.25 2.814 0 2.551-11.817-.346-15.576-1.227-1.593-1.21-1.247.102 2.007m89.808-1.698c.393.697-1.138 3.934-3.524 7.447-4.366 6.429-7.956 14.549-7.773 17.581.058.956.63.164 1.272-1.761 1.41-4.228 5.925-12.988 9.401-18.241 2.072-3.131 2.3-4.063 1.235-5.049-1.024-.949-1.156-.943-.611.023m-94.981 10.113c.872 1.687 2.987 6.941 4.7 11.676s3.962 9.138 4.997 9.784S87 169.982 87 170.595c0 .612 1.182 2.389 2.627 3.948 2.22 2.395 2.524 2.507 1.957.72-.469-1.476-.13-2.43 1.122-3.158 1.681-.979 1.684-1.046.044-1.075-.963-.016-1.75.447-1.75 1.029s-.457.776-1.016.431-.824-.94-.589-1.32c.599-.97-1.57-3.672-3.54-4.41-.93-.349-2.618-3.579-3.887-7.438-2.569-7.81-5.441-13.878-7.036-14.864-.604-.373-.384.702.489 2.388m42.774.654c.02 1.65.244 2.204.498 1.231s.237-2.323-.037-3-.481.119-.461 1.769m4.965 2.75c-.156 3.663 1.008 4.905 2.435 2.595.427-.69.276-.884-.376-.481-.678.42-1.242-.561-1.494-2.595-.402-3.242-.406-3.238-.565.481m1.84-1.191c0 .582.45.781 1 .441s1-.816 1-1.059-.45-.441-1-.441-1 .477-1 1.059m17.168 15.89c-.585 1.678-.851 3.051-.591 3.051.675 0 2.562-5.195 2.067-5.69-.227-.227-.891.961-1.476 2.639M155 168.5c1.292 1.375 2.574 2.5 2.849 2.5s-.557-1.125-1.849-2.5-2.574-2.5-2.849-2.5.557 1.125 1.849 2.5m-134.756 1c.409.451-.155 1.45-1.254 2.219-2.256 1.58-2.402 1.145 4.235 12.608 2.175 3.755 4.187 6.594 4.472 6.309s-1.052-3.133-2.972-6.327c-4.359-7.252-5.118-9.706-3.778-12.211.781-1.459.73-2.165-.194-2.698-.689-.396-.918-.351-.509.1m106.53 2.25c-.267 1.018-2.616 2.524-5.616 3.6-2.837 1.018-5.158 2.183-5.158 2.59 0 .406 1.137 1.257 2.526 1.89 2.254 1.027 2.646.887 3.642-1.299.906-1.988 1.466-2.262 2.974-1.455 1.362.729 1.862.651 1.873-.291.011-.937.216-.97.755-.123.46.723 1.372-.316 2.411-2.75 1.666-3.902 1.665-3.912-.639-3.912-1.357 0-2.498.721-2.768 1.75m14.731 1.242c-.343.555-.161 1.008.405 1.008.565 0 .774.787.464 1.75-.421 1.309-.322 1.414.393.416.781-1.091 1.061-1.057 1.538.186.32.835.147 1.739-.386 2.008-.533.27-.395.365.306.211 1.551-.339 1.123-3.366-.739-5.228-.858-.858-1.588-.987-1.981-.351M147 175c-.901.582-1.025.975-.309.985.655.008 1.469-.435 1.809-.985.767-1.242.421-1.242-1.5 0m-44.388 17.624c-.886 2.603-1.579 5.215-1.539 5.804s.939-1.367 1.997-4.348 1.751-5.593 1.539-5.804-1.11 1.745-1.997 4.348M138 190.905c0 .83 4.102 2.326 4.711 1.718.163-.164-.829-.812-2.207-1.439-1.377-.628-2.504-.753-2.504-.279m6 1.973c0 .482.787 1.495 1.75 2.25 1.564 1.226 1.612 1.196.458-.281-1.055-1.35-1.055-1.747 0-2.171.822-.329.655-.547-.458-.597-.963-.043-1.75.316-1.75.799"/><path fill-opacity=".877" fill-rule="evenodd" d="M60.158 62c0 1.375.227 1.938.504 1.25.278-.687.278-1.812 0-2.5-.277-.687-.504-.125-.504 1.25m-1 7c0 1.375.227 1.938.504 1.25.278-.687.278-1.812 0-2.5-.277-.687-.504-.125-.504 1.25M128 75.5c0 1.689.458 2.514 1.25 2.25.688-.229 1.25-1.242 1.25-2.25s-.562-2.021-1.25-2.25c-.792-.264-1.25.561-1.25 2.25M58.158 77c0 1.375.227 1.938.504 1.25.278-.687.278-1.812 0-2.5-.277-.687-.504-.125-.504 1.25m57.53-1.354c-1.071 1.071-.808 5.162.379 5.895 1.424.88 1.723.463 2.107-2.944.313-2.772-1.049-4.389-2.486-2.951M72.1 85.295c-1.265 2.107-1.243 2.128.479.479.991-.95 1.587-1.942 1.324-2.205s-1.074.514-1.803 1.726m-4.287 2.388c.721.289 1.584.253 1.916-.079s-.258-.568-1.312-.525c-1.165.048-1.402.285-.604.604m10.643 1.067c-1.229 2.837-1.35 4.302-.302 3.655.539-.333.723-.861.41-1.174-.312-.313.177-1.393 1.089-2.4S80.838 87 80.262 87s-1.389.787-1.806 1.75M62.158 92c0 1.375.227 1.938.504 1.25.278-.687.278-1.812 0-2.5-.277-.687-.504-.125-.504 1.25M107 93.441c0 .793.408 1.693.907 2.001.498.309.671-.34.383-1.441-.611-2.335-1.29-2.63-1.29-.56m-27.571 1.617c0 1.379.317 1.568 1.285.764.707-.587 1.286-1.189 1.286-1.337 0-.149-.579-.493-1.286-.764-.759-.292-1.285.256-1.285 1.337M98.5 96c.995 1.1 2.035 2 2.31 2s-.315-.9-1.31-2-2.035-2-2.31-2 .315.9 1.31 2m48.5 3.523c0 .191.439 1.501.975 2.912 1.21 3.181 5.264 3.477 7.757.565 2.184-2.55 3.268-2.54 3.268.031 0 4.345 6.543 3.727 9.122-.861l1.622-2.886-11.372-.054c-6.255-.03-11.372.102-11.372.293M77.195 102.5c.02 1.65.244 2.204.498 1.231s.237-2.323-.037-3-.481.119-.461 1.769m73.805 0c-.694.837-.803 1.5-.245 1.5.55 0 1.56-.675 2.245-1.5.694-.837.803-1.5.245-1.5-.55 0-1.56.675-2.245 1.5m11.441-.032c-1.631 1.234-1.681 1.473-.313 1.5.895.018 2.187-.643 2.872-1.468 1.596-1.923-.032-1.943-2.559-.032m-95.772 4.259c-.735 1.189 3.027 2.911 4.073 1.864.325-.325-.121-.591-.992-.591s-1.763-.54-1.984-1.201c-.291-.874-.589-.894-1.097-.072M157 109c-.901.582-1.025.975-.309.985.655.008 1.469-.435 1.809-.985.767-1.242.421-1.242-1.5 0m-84.541 7.067c-.363.586-.445 1.281-.183 1.543s.743-.218 1.069-1.067c.676-1.762.1-2.072-.886-.476m-29.32 3.966c-1.298 1.082-2.953 1.967-3.676 1.967s-1.462.605-1.64 1.345c-.504 2.099-15.77 15.806-16.855 15.135-.533-.329-.968.025-.968.787 0 .761-1.125 2.441-2.5 3.733l-2.5 2.349-.116-2.925c-.068-1.711-.307-2.193-.576-1.162-.253.969-.92 1.478-1.483 1.13s-.473.398.202 1.658c1.088 2.034.926 2.508-1.442 4.233-1.466 1.069-3.744 3.529-5.062 5.468l-2.395 3.524-1.052-3.387-1.053-3.388.529 3.724c.349 2.461-.024 4.664-1.101 6.5C.297 162.69.63 162.479 2.592 160c5.413-6.838 19.478-20.074 20.597-19.383.621.384.844.245.5-.311-.341-.552 2.815-4.109 7.014-7.905C45.219 119.28 46.498 118.082 46 118.074c-.275-.004-1.562.878-2.861 1.959m61.395-1.359c.569.454 2.732 2.928 4.807 5.498s4.984 5.45 6.466 6.4c1.481.95-.232-1.378-3.807-5.172-3.575-3.795-6.95-7.047-7.5-7.226-.605-.198-.592 0 .034.5m-88.154 1.778c-.676 1.761.303 3.554 1.929 3.533.772-.01.7-.327-.205-.899-.767-.486-1.119-1.605-.781-2.485.338-.881.389-1.601.114-1.601s-.751.653-1.057 1.452m54.699-.893c-.043.582.629 1.932 1.495 3 .866 1.067 1.277 1.359.914.647-.363-.711-.059-2.061.676-3 1.186-1.515 1.151-1.561-.317-.414-1.35 1.055-1.747 1.055-2.171 0-.285-.711-.554-.816-.597-.233M114 122c.589 1.1 1.295 2 1.57 2s.019-.9-.57-2-1.295-2-1.57-2-.019.9.57 2m11.079-.417c.048 1.165.285 1.402.604.605.289-.722.253-1.585-.079-1.917s-.568.258-.525 1.312m-103.829.079c-1.761.711-1.56 2.207.26 1.939 2.147-.315 4.385-2.628 2.44-2.522-.798.043-2.012.306-2.7.583m4.752 1.029c-.001.655.455 1.474 1.014 1.819.559.346.751 1.058.426 1.584-.325.525-.22.873.234.772.453-.101 1.646.174 2.652.612 1.209.526 2.37.252 3.433-.81 1.474-1.474 1.458-1.768-.189-3.588-1.951-2.156-7.567-2.445-7.57-.389M93 121.393c0 .216.698.661 1.552.989.89.341 1.291.173.941-.393-.587-.951-2.493-1.406-2.493-.596m44.644 2.902c-2.726 2.182-2.771 2.349-1 3.697 1.588 1.207 1.674 1.208.599.003-1.032-1.157-.763-1.813 1.5-3.666 1.516-1.241 2.532-2.271 2.257-2.288s-1.785.997-3.356 2.254M28 123.941c0 1.42 1.778 2.227 2.463 1.119.331-.535 1.374-.725 2.319-.422 1.459.468 1.492.388.218-.528-1.855-1.335-5-1.441-5-.169M161.5 126c-.34.55-.141 1 .441 1s1.059-.45 1.059-1-.198-1-.441-1-.719.45-1.059 1m-62 1c-.34.55-.141 1 .441 1s1.059-.45 1.059-1-.198-1-.441-1-.719.45-1.059 1m24.609.75c.755 1.238 1.7 2.25 2.1 2.25s.475.787.165 1.75c-.4 1.243-.297 1.381.355.476.977-1.354 2.663.037 5.179 4.274 1.108 1.866 1.143 1.84.533-.375-.504-1.826-.341-2.195.702-1.596.746.429.04-.635-1.57-2.364s-3.152-2.92-3.426-2.645-1.604-.518-2.954-1.761l-2.456-2.259zm43.049 1.25c0 1.375.227 1.938.504 1.25.278-.687.278-1.812 0-2.5-.277-.687-.504-.125-.504 1.25M77.5 130c.995 1.1 2.035 2 2.31 2s-.315-.9-1.31-2-2.035-2-2.31-2 .315.9 1.31 2m64.959.067c-.363.586-.445 1.281-.183 1.543s.743-.218 1.069-1.067c.676-1.762.1-2.072-.886-.476M129.5 132c.995 1.1 2.035 2 2.31 2s-.315-.9-1.31-2-2.035-2-2.31-2 .315.9 1.31 2M8 131.383c0 .211 1.111.596 2.47.856 1.358.26 2.232.087 1.941-.383-.512-.829-4.411-1.246-4.411-.473m163.079 1.2c.048 1.165.285 1.402.604.605.289-.722.253-1.585-.079-1.917s-.568.258-.525 1.312m-92.849 1.383c3.531 2.778 5.119 7.248 4.506 12.685-.32 2.839-.183 4.085.356 3.234 2.276-3.593-.455-18.015-3.101-16.379-.469.29-1.135.069-1.481-.49-.345-.559-1.112-1.016-1.704-1.016s.049.885 1.424 1.966m39.425-.137c-2.305 2.547-2.064 4.192.595 4.055 1.693-.087 1.817-.229.5-.573-1.883-.492-2.492-2.477-.633-2.061.615.137 1.25-.537 1.412-1.5.369-2.193.174-2.185-1.874.079m-99.555.876c.729 1.212 1.54 1.989 1.803 1.726s-.333-1.255-1.324-2.205c-1.722-1.649-1.744-1.628-.479.479m108.9.236c0 .518.445 1.216.989 1.552.566.35.734-.051.393-.941-.665-1.732-1.382-2.049-1.382-.611m43.606 1.211c1.042 1.459 2.094 2.459 2.338 2.222.245-.236-.607-1.43-1.894-2.652l-2.338-2.222zM165 137.441c0 2.049 1.963 2.997 3.337 1.613.887-.895.689-.996-.837-.426-1.777.663-1.847.558-.628-.941 1.183-1.453 1.148-1.687-.25-1.687-.892 0-1.622.648-1.622 1.441M55 142c-1.122 2.2-1.694 3.995-1.27 3.99.423-.006 1.524-1.806 2.446-4 2.163-5.15 1.454-5.144-1.176.01m78.31 2.5c.005 3.3.192 4.529.415 2.732s.218-4.497-.01-6c-.229-1.503-.411-.032-.405 3.268m52.562-3.75c-1.243 1.586-1.208 1.621.378.378 1.666-1.307 2.195-2.128 1.372-2.128-.207 0-.995.787-1.75 1.75M6.567 143.926c-.958 1.059-1.53 2.746-1.271 3.75.37 1.429.497 1.325.588-.485.064-1.27.475-2.087.914-1.816s1.451.08 2.25-.426c1.085-.686 1.121-.922.143-.934-.72-.008-1.031-.465-.691-1.015 1.022-1.654-.073-1.129-1.933.926m129.463.624c.027 2.586.163 2.722 1.104 1.104.769-1.324.761-2.159-.03-2.95-.805-.805-1.096-.305-1.074 1.846m22.068.599c-.604 1.732-1.034 5.445-.956 8.25l.142 5.101.727-6.5c.399-3.575 1.058-7.287 1.465-8.25.406-.963.509-1.75.229-1.75s-1.003 1.417-1.607 3.149m24.181.101c-3.862 4.2-6.273 9.207-6.139 12.75.1 2.637.234 2.883.545 1 .227-1.375.684-3.175 1.015-4s.727-2.117.88-2.87 1.681-3.116 3.396-5.25c3.411-4.244 3.589-5.203.303-1.63m-91.241.25c.003.55.927 2.125 2.051 3.5q2.04 2.492 1.012.5c-1.686-3.262-3.071-5.07-3.063-4m28.157 2c.02 1.65.244 2.204.498 1.231s.237-2.323-.037-3-.481.119-.461 1.769m-24.71-.747c2.913 5.729 3.503 6.589 3.509 5.108.003-.902-.928-2.702-2.07-4s-1.79-1.797-1.439-1.108M166 148c-.589 1.1-.845 2-.57 2s.981-.9 1.57-2 .845-2 .57-2-.981.9-1.57 2m-164.921.583c.048 1.165.285 1.402.604.605.289-.722.253-1.585-.079-1.917s-.568.258-.525 1.312m55.562 1.182c.995 1.796 2.841 4.496 4.103 6l2.295 2.735-2.02-3.5c-1.11-1.925-2.957-4.625-4.103-6l-2.083-2.5zm66.438-.182c.048 1.165.285 1.402.604.605.289-.722.253-1.585-.079-1.917s-.568.258-.525 1.312m60.004 3.78-4.417 5.137 4.869-4.715c2.678-2.593 4.665-4.905 4.417-5.137s-2.44 1.89-4.869 4.715M80.5 153c-.34.55-.141 1 .441 1S82 153.55 82 153s-.198-1-.441-1-.719.45-1.059 1m31.798.667c-.821 2.137.475 4.357 2.164 3.709 2.07-.794 2.022-5.043-.057-5.043-.878 0-1.826.6-2.107 1.334m5.86.333c0 1.375.227 1.938.504 1.25.278-.687.278-1.812 0-2.5-.277-.687-.504-.125-.504 1.25m-16.475 3c.328 2.475.758 4.688.956 4.917.752.868.181-5.507-.665-7.417-.591-1.335-.688-.505-.291 2.5m11.587-2.069c.08 1.062.482 1.722.894 1.468.412-.255.495-1.124.185-1.931-.781-2.036-1.252-1.834-1.079.463M98.195 156.5c.02 1.65.244 2.204.498 1.231s.237-2.323-.037-3-.481.119-.461 1.769m-45.786 2.254c1.815 2.144 9.232 4.938 10.293 3.877.275-.275-1.458-1.021-3.851-1.658-2.393-.638-5.251-1.905-6.351-2.816-1.985-1.644-1.985-1.64-.091.597m69.824.245c-.656 1.05-.802 2.149-.326 2.443s1.124-.452 1.44-1.66c.751-2.871.361-3.145-1.114-.783m65.008-.501c.408.45.231 1.433-.392 2.184-.624.752-.881 1.619-.573 1.928s1.05-.35 1.646-1.464c.81-1.514.767-2.207-.169-2.746-.689-.396-.919-.352-.512.098m-122.896 2.698 1.63 2.695-4.738.374-4.737.375 4.89.18c5.357.197 8.383 2.543 6.386 4.95-.783.944-.697 1.148.333.784.894-.316 2.819 1.827 5.391 6.005 4.596 7.464 8.053 11.475 9.79 11.362.943-.061.942-.188-.003-.571-1.534-.622-9.098-11.274-12.676-17.85-1.496-2.75-3.885-6.35-5.308-8-2.407-2.79-2.474-2.811-.958-.304m93.85.304c.02 1.65.244 2.204.498 1.231s.237-2.323-.037-3-.481.119-.461 1.769m1.963.5c0 1.375.227 1.938.504 1.25.278-.687.278-1.812 0-2.5-.277-.687-.504-.125-.504 1.25m-35.215 5.985c.856 2.676 1.706 4.453 1.887 3.949.416-1.152-1.723-7.75-2.71-8.36-.404-.249-.033 1.736.823 4.411M177.162 164c-.041.825.535 4.2 1.279 7.5.745 3.3 1.357 4.875 1.361 3.5.007-2.805-2.522-13.346-2.64-11m2.297.067c-.363.586-.445 1.281-.183 1.543s.743-.218 1.069-1.067c.676-1.762.1-2.072-.886-.476M84 164.941c0 .518.445 1.216.989 1.552.566.35.734-.051.393-.941-.665-1.732-1.382-2.049-1.382-.611m69 1.437c0 .207.787.995 1.75 1.75 1.586 1.243 1.621 1.208.378-.378-1.307-1.666-2.128-2.195-2.128-1.372m6.195 3.122c.02 1.65.244 2.204.498 1.231s.237-2.323-.037-3-.481.119-.461 1.769m-101.577-.465c-1.584.474-4.284.656-6 .404-3.118-.459-3.118-.459-.442.61 1.908.762 3.844.754 6.75-.029 2.241-.603 4.074-1.305 4.074-1.559 0-.595-.85-.484-4.382.574M93.5 170c-1.261.542-1.445.859-.5.859.825 0 2.4-.386 3.5-.859 1.261-.542 1.445-.859.5-.859-.825 0-2.4.386-3.5.859m35.313-.317c.721.289 1.584.253 1.916-.079s-.258-.568-1.312-.525c-1.165.048-1.402.285-.604.604m6.266.9c.048 1.165.285 1.402.604.605.289-.722.253-1.585-.079-1.917s-.568.258-.525 1.312m53.443.347c-.363 1.144-1.85 3.495-3.304 5.223-3.326 3.953-3.55 5.396-.867 5.599 2.709.204 6.658-3.482 6.619-6.176-.031-2.059-.04-2.06-1.224-.076-.657 1.1-1.212 2.225-1.235 2.5-.11 1.327-1.773 3-2.982 3-1.717 0-1.393-2.369.644-4.702 2.128-2.438 4.1-6.358 3.499-6.959-.269-.269-.787.447-1.15 1.591m-171.413 1.438c-.882 1.063-.131 3.156 3.36 9.364 6.059 10.773 6.683 11.214 10.794 7.631 1.806-1.575 4.399-3.685 5.761-4.689 2.453-1.809 2.448-1.81-.524-.118-1.65.94-4.417 2.762-6.149 4.05-3.678 2.735-3.34 3.018-9.171-7.682-3.16-5.799-3.853-7.851-2.954-8.75.646-.646.914-1.174.596-1.174-.317 0-1.088.616-1.713 1.368m44.391 1.7c-5.005 3.769-23.338 21.799-24.666 24.258-.542 1.004 3.536-2.696 9.062-8.222l10.047-10.047 4.381 4.636 4.381 4.637-1.352 4.494c-1.598 5.309-1.684 6.499-.411 5.712.518-.321 1.25-2.631 1.625-5.134l.683-4.552 3.125 2.916C71.926 196.08 77.442 200 78.554 200c.411 0-1.234-1.403-3.654-3.118-5.953-4.218-16.926-15.031-16.293-16.055.281-.455-.078-.847-.798-.872-.72-.024.929-2.049 3.664-4.5 5.748-5.15 5.759-5.704.027-1.387m27.5-2.69c0 .207.685.946 1.523 1.641 1.273 1.057 1.42.995.893-.378-.538-1.401-2.416-2.384-2.416-1.263m33 0c0 .207.685.946 1.523 1.641 1.273 1.057 1.42.995.893-.378-.538-1.401-2.416-2.384-2.416-1.263m-35.832 4.153c-1.359 2.983-1.141 3.086 1.07.504.926-1.081 1.317-2.192.869-2.469s-1.321.608-1.939 1.965m29.386-1.619c-.31.502.101.815.912.696 2.142-.314 3.155-1.608 1.26-1.608-.885 0-1.862.41-2.172.912m26.905 1.155c-.363.586-.389 1.336-.059 1.666s.6.049.6-.625.45-.948 1-.608 1 .141 1-.441c0-1.373-1.691-1.368-2.541.008m17.636 1.433c-.048 1.65.569 7.044 1.371 11.987.803 4.943 1.139 9.296.747 9.673s-2.063.878-3.713 1.113c-2.387.34-2.131.458 1.25.577 2.836.1 4.233-.266 4.2-1.1-.154-3.815-3.783-24.758-3.855-22.25m-68.016.083c.048 1.165.285 1.402.604.605.289-.722.253-1.585-.079-1.917s-.568.258-.525 1.312M134 179.898c0 2.598.595 3.992 2.105 4.935 1.157.723 1.806.831 1.441.241-.822-1.33.451-1.368 2.454-.074 1.333.862 1.333.973 0 1s-1.333.138 0 1c.825.533 2.175.945 3 .914 1.068-.039.975-.261-.324-.773-1.003-.396-1.809-1.031-1.791-1.413.018-.381-.583-2.159-1.337-3.951-.753-1.791-1.19-3.548-.97-3.903s-.721-.859-2.09-1.121c-2.28-.436-2.488-.173-2.488 3.145m-21.903-1.979c-1.012.641-.69.846 1.154.735 1.406-.085 2.349-.492 2.094-.904-.602-.975-1.517-.927-3.248.169m9.85 1.181c-.827 1.544-1.419 1.718-2.989.878-1.077-.577-1.958-.819-1.958-.539s1.356 1.211 3.013 2.067c2.954 1.528 3.033 1.505 4.119-1.224.608-1.53 1.307-2.244 1.552-1.587s-.002 2.031-.549 3.053c-.764 1.427-.576 2.12.807 2.984 1.502.938 1.985.723 2.903-1.292 1.203-2.64.603-5.396-1.202-5.517-.629-.042-1.936-.228-2.904-.413-.973-.186-2.223.526-2.792 1.59m30.803-.301c-3.41.293-3.75.588-3.75 3.261 0 2.348-.453 2.963-2.25 3.056-1.525.079-1.719.257-.603.554.906.24 1.877 1.313 2.157 2.384s1.113 1.91 1.852 1.867c1.011-.059 1.034-.204.094-.583-.687-.278-1.25-1.142-1.25-1.921 0-1.823 7.636-1.977 8.274-.167.243.688.62-.881.84-3.487.437-5.194.173-5.438-5.364-4.964m-44.75 1.26c0 .582.45.781 1 .441s1-.816 1-1.059-.45-.441-1-.441-1 .477-1 1.059m72 1.382c0 .793.408 1.693.907 2.001.498.309.671-.34.383-1.441-.611-2.335-1.29-2.63-1.29-.56m-83 .981c-6.629 1.832-8.038 2.596-3.5 1.896 4.357-.671 11.93-3.189 9.5-3.158-.825.01-3.525.578-6 1.262m22.16 4.673c-.158 3.561-2.258 6.44-5.16 7.076-3.45.756-3.946 3.885-.572 3.606 1.335-.111 2.209-.556 1.941-.989s.327-.824 1.322-.867c1.169-.051 1.341-.266.486-.608-.993-.396-.788-1.098.821-2.811 1.565-1.666 2.034-3.192 1.734-5.643l-.412-3.359zm61.991 1.405c.069 2.269.309 3.027.555 1.75.238-1.238 1.189-2.286 2.114-2.329 1.377-.065 1.41-.182.18-.65-.825-.314-1.831-1.066-2.235-1.671s-.68.7-.614 2.9m-66.993-.5c0 1.375.227 1.938.504 1.25.278-.687.278-1.812 0-2.5-.277-.687-.504-.125-.504 1.25m58.022 2.75c-.166 4.835-.002 5.249 2.07 5.235 1.238-.009 2.925-.458 3.75-.999 1.071-.702.587-.808-1.691-.371l-3.19.611-.379-4.863-.38-4.863zm-43.101-1.167c.048 1.165.285 1.402.604.605.289-.722.253-1.585-.079-1.917s-.568.258-.525 1.312M103.2 193.7c-1.48 4.822-.764 5.538.8.8.66-1.999 1.005-3.828.767-4.066s-.943 1.232-1.567 3.266M138 191c0 .55.477 1 1.059 1s.781-.45.441-1-.816-1-1.059-1-.441.45-.441 1m-6 3c0 1.65.372 3 .827 3s.628-1.35.386-3-.614-3-.826-3c-.213 0-.387 1.35-.387 3m-4.376-.461c-.965 2.514-.681 3.163.498 1.136.584-1.004.851-2.036.593-2.293-.257-.258-.749.263-1.091 1.157M142 198c0 1.1.173 2 .383 2s.619-.9.907-2c.287-1.1.115-2-.384-2-.498 0-.906.9-.906 2m-5.559.445c1.068.855 2.643 1.519 3.5 1.476 1.347-.068 1.355-.155.059-.635-.825-.306-2.4-.97-3.5-1.476-1.968-.906-1.969-.895-.059.635m46.638.138c.048 1.165.285 1.402.604.605.289-.722.253-1.585-.079-1.917s-.568.258-.525 1.312m-62.266 1.1c.721.289 1.584.253 1.916-.079s-.258-.568-1.312-.525c-1.165.048-1.402.285-.604.604"/></svg>