<!-- Generated by IcoMoon.io -->
<svg version="1.1" xmlns="http://www.w3.org/2000/svg" width="32" height="32" viewBox="0 0 32 32" fill="#000000">
<title>firo</title>
<path d="M9.412 22.998c0.369 0 0.717-0.205 0.881-0.533l2.345-4.455h-3.626c-0.553 0-0.993-0.451-0.993-0.994v-1.997c0-0.553 0.451-0.994 0.993-0.994h5.736l4.455-8.439c0.174-0.328 0.512-0.533 0.881-0.533h7.445c1.109 1.167 2.042 2.503 2.758 3.964h-7.705v0.010c-0.369 0-0.717 0.205-0.881 0.533l-2.345 4.455h3.626c0.553 0 0.994 0.451 0.994 0.993v1.997c0 0.553-0.451 0.993-0.994 0.993h-5.736l-4.455 8.439c-0.174 0.328-0.512 0.533-0.881 0.533h-7.466c-1.109-1.167-2.042-2.503-2.758-3.964h7.725v-0.010z"/>
</svg>
