<svg width="498" height="500" viewBox="0 0 498 500" fill="#000000" xmlns="http://www.w3.org/2000/svg">
<path fill-rule="evenodd" clip-rule="evenodd" d="M213.634 2.75773C-32.1062 41.5186 -80.1084 371.6 144.674 476.936C322.295 560.173 525.457 405.778 494.289 211.241C473.008 78.4123 343.574 -17.7377 213.634 2.75773ZM250.428 30.4309C251.221 31.7158 256.15 32.4945 261.382 32.1641C269.828 31.6279 271.053 32.208 272.338 37.3382C273.634 42.5262 274.947 43.1155 285.207 43.1155C291.488 43.1155 299.408 44.5459 302.805 46.293C307.69 48.8073 310.576 48.9136 316.615 46.8083C323.427 44.435 324.65 44.68 327.98 49.0961C330.926 53.0016 333.168 53.7249 338.619 52.5278C344.988 51.1274 345.855 51.7398 349.751 60.378C352.899 67.3616 355.794 70.2155 361.121 71.5882C366.371 72.9424 368.43 74.9275 368.876 79.0709C370.406 93.2854 374.406 102.296 380.16 104.484C385.67 106.578 385.933 107.4 384.475 118.005L382.922 129.294L391.193 132.025C401.146 135.309 401.303 137.311 393.051 155.823C386.86 169.712 386.742 170.701 389.654 184.081C395.902 212.776 390.495 289.228 382.217 289.228C377.313 289.228 376.634 294.233 380.336 303.093C389.422 324.834 397.044 348.78 398.444 359.983L399.997 372.411L393.131 371.038C388.087 370.029 385.889 370.643 384.849 373.354C384.07 375.383 381.383 377.042 378.875 377.042C376.37 377.042 373.676 378.082 372.89 379.353C372.105 380.624 369.036 381.664 366.068 381.664C363.101 381.664 360.076 383.224 359.344 385.13C357.807 389.137 345.931 389.791 339.283 386.233C336.133 384.546 333.508 384.712 330.125 386.81C321.886 391.922 298.701 377.497 274.496 352.2C249.857 326.445 252.291 326.616 225.72 348.782C168.139 396.819 163.237 399.518 153.388 388.634C150.618 385.574 147.512 384.483 144.045 385.352C140.373 386.274 137.831 385.197 135.361 381.671C132.722 377.902 129.979 376.869 124.125 377.44C117.333 378.105 115.982 377.294 113.151 370.867C111.376 366.837 107.868 363.001 105.354 362.342C99.7128 360.868 100.841 354.809 110.727 333.454C118.327 317.037 119.101 312.337 114.205 312.337C103.604 312.337 97.4527 217.194 105.955 184.737C110.003 169.275 110.174 166.271 107.39 159.458C101.213 144.357 100.297 124.998 105.693 123.586C108.455 122.865 111.475 119.107 112.994 114.511C115.628 106.527 118.429 105.108 124.257 108.799C129.057 111.835 132.923 109.526 136.174 101.676C137.762 97.8448 142.927 92.2686 147.655 89.2852C154.012 85.2711 156.644 81.7516 157.768 75.7594C159.089 68.7134 160.252 67.5672 166.72 66.9433C172.523 66.3817 174.323 65.0229 174.926 60.7477C175.638 55.7146 176.534 55.3633 185.947 56.424C193.799 57.3091 197.515 56.5373 201.862 53.1194C206.086 49.7963 209.523 49.0337 215.344 50.1245C222.505 51.4694 224.079 50.6144 234.277 39.8432C245.751 27.7248 247.96 26.4376 250.428 30.4309ZM414.956 195.157C447.565 230.537 482.206 307.715 465.472 307.715C463.797 307.715 461.132 306.155 459.549 304.248C455.866 299.809 450.562 299.835 445.612 304.313C442.731 306.922 440.232 307.285 436.064 305.7C432.57 304.371 428.939 304.382 426.529 305.732C424.172 307.052 421.029 307.084 418.561 305.813C416.319 304.66 413.426 304.103 412.132 304.577C406.329 306.689 401.051 289.84 403.184 276.009C405.566 260.554 405.714 212.274 403.429 196.213C401.502 182.69 403.309 182.524 414.956 195.157ZM90.4252 220.478C89.5679 240.738 90.349 256.343 93.1775 275.362L97.1269 301.938L83.645 314.13C68.3144 327.991 60.3395 331.281 56.9147 325.16C55.2 322.1 52.8799 321.49 47.0864 322.576C41.4755 323.63 39.1484 323.082 38.1478 320.48C37.406 318.544 34.6861 316.958 32.1025 316.958C15.2143 316.958 45.3555 242.249 77.5558 204.302C91.516 187.848 91.7956 188.197 90.4252 220.478ZM325.517 230.567C314.484 235.182 308.797 243.788 307.519 257.804C306.928 264.284 305.596 270.659 304.559 271.974C299.648 278.191 306.301 280.666 317.585 276.82C331.615 272.041 332.449 272.085 332.449 277.629C332.449 280.765 334.453 282.621 338.804 283.52C354.923 286.852 362.172 290.073 363.305 294.399C365.005 300.905 370.436 298.18 371.351 290.362C371.901 285.666 370.653 282.655 367.032 279.924C362.785 276.719 362.371 275.283 364.527 271.253C376.465 248.948 349.3 220.619 325.517 230.567ZM157.516 233.856C143.863 240.747 137.665 253.854 139.735 271.466C141.24 284.275 141.184 284.432 131.705 293.819C121.879 303.546 120.493 306.414 124.435 308.849C127.141 310.523 145.138 300.373 151.052 293.838C157.737 286.452 178.016 278.193 186.432 279.427C196.877 280.961 200.73 276.827 200.718 264.103C200.697 238.718 178.573 223.228 157.516 233.856ZM248.101 265.312C224.53 270.962 222.575 276.749 237.755 295.952C250.798 312.452 257.527 311.937 272.366 293.299C287.354 274.477 274.023 259.1 248.101 265.312ZM232.193 383.975C245.545 396.283 258.671 396.985 271.115 386.059L279.271 378.9L290.608 387.044C309.266 400.449 319.612 402.883 346.99 400.308C373.318 397.831 374.351 398.078 367.986 405.36C365.491 408.214 360.444 417.051 356.769 424.994C350.893 437.694 349.305 439.437 343.599 439.437C339.613 439.437 335.997 441.218 334.224 444.059C330.827 449.496 323.629 450.162 321.731 445.214C319.804 440.19 314.708 440.943 306.079 447.525C301.758 450.82 295.424 453.302 291.329 453.302C286.28 453.302 282.164 455.433 277.433 460.494C271.404 466.946 270.163 467.387 265.34 464.806C260.663 462.303 259.448 462.571 255.974 466.86C250.987 473.017 251.015 473.019 240.283 465.917C232.394 460.695 230.7 460.364 225.04 462.946C218.2 466.061 216.839 465.132 207.378 450.867C204.478 446.492 201.601 445.212 194.668 445.2C186.125 445.184 185.559 444.715 182.522 435.129C179.372 425.192 179.236 425.091 170.651 426.463C162.759 427.727 161.419 427.131 155.928 419.933C148.473 410.162 148.314 407.424 155.274 408.755C165.692 410.747 179.878 404.593 198.953 389.81C221.754 372.136 219.735 372.492 232.193 383.975Z" fill="#000000"/>
</svg>
