<svg xmlns="http://www.w3.org/2000/svg" width="250" height="250" version="1.1" fill="#000000"><path fill-opacity=".063" d="M 0 125.004 L 0 250.008 125.250 249.754 L 250.500 249.500 250.754 124.750 L 251.008 0 125.504 0 L 0 0 0 125.004 M 0.485 125.500 C 0.485 194.250, 0.604 222.228, 0.750 187.672 C 0.896 153.117, 0.896 96.867, 0.750 62.672 C 0.604 28.478, 0.485 56.750, 0.485 125.500 M 140.579 67.250 C 140.382 67.938, 139.240 73.225, 138.041 79 C 134.896 94.157, 135.290 93.308, 131.722 92.594 C 130.030 92.256, 128.497 91.830, 128.315 91.648 C 128.133 91.466, 128.593 88.096, 129.338 84.159 L 130.691 77 121.429 77 L 112.166 77 111.161 81.750 C 110.609 84.362, 109.837 88.300, 109.447 90.500 C 108.569 95.444, 107.301 98, 105.726 98 C 103.459 98, 95.981 107.436, 93.862 112.969 C 90.494 121.765, 90.413 126.399, 93.468 135.498 C 94.940 139.883, 96.630 143.771, 97.224 144.139 C 97.968 144.598, 97.318 149.595, 95.144 160.153 C 93.405 168.594, 91.987 176.668, 91.992 178.095 C 92.005 182.378, 94.810 184, 102.203 184 L 108.748 184 111.598 170.470 L 114.448 156.940 117.474 157.587 C 121.738 158.500, 122.026 158.795, 121.098 161.285 C 120.644 162.503, 119.959 165.637, 119.575 168.250 L 118.877 173 128.605 173 C 133.956 173, 138.097 172.764, 137.808 172.475 C 137.519 172.186, 138.119 168.933, 139.141 165.246 C 140.164 161.560, 141 157.722, 141 156.719 C 141 155.715, 143.643 152.448, 146.872 149.458 C 153.733 143.106, 157.035 136.440, 157.750 127.500 C 158.257 121.168, 156.359 112.722, 153.422 108.240 C 151.563 105.403, 151.940 101.326, 155.609 84.599 C 158.481 71.504, 158.538 69.797, 156.171 67.655 C 153.888 65.588, 141.150 65.257, 140.579 67.250 M 120.094 113.308 C 109.932 116.864, 109.507 131.825, 119.435 136.536 C 124.071 138.736, 128.992 137.824, 133.409 133.946 C 143.609 124.990, 133.130 108.748, 120.094 113.308" stroke="none" fill="#000000" fill-rule="evenodd"/><path fill-opacity=".184" d="M 0 125.004 L 0 250.008 125.250 249.754 L 250.500 249.500 250.754 124.750 L 251.008 0 125.504 0 L 0 0 0 125.004 M 0.485 125.500 C 0.485 194.250, 0.604 222.228, 0.750 187.672 C 0.896 153.117, 0.896 96.867, 0.750 62.672 C 0.604 28.478, 0.485 56.750, 0.485 125.500 M 138.127 75.250 C 136.954 80.888, 135.714 86.963, 135.372 88.750 C 134.876 91.344, 134.264 92, 132.344 92 C 129.041 92, 128.659 90.304, 130.331 83.065 C 131.441 78.263, 131.491 76.742, 130.555 76.383 C 129.887 76.127, 125.336 76.048, 120.439 76.209 L 111.537 76.500 109.645 86 C 108.605 91.225, 107.246 95.687, 106.627 95.916 C 104.143 96.834, 95.886 106.449, 93.817 110.834 C 92.048 114.581, 91.604 117.370, 91.557 125 C 91.506 133.560, 91.787 135.065, 94.397 140.218 L 97.294 145.935 94.038 161.965 C 92.247 170.781, 91.050 179.064, 91.378 180.371 C 92.190 183.605, 96.488 185.171, 103.550 184.805 L 109.421 184.500 111.527 174 C 114.917 157.099, 114.674 157.701, 117.791 158.484 C 119.279 158.857, 120.591 159.257, 120.706 159.373 C 120.822 159.489, 120.276 162.264, 119.494 165.542 C 117.342 174.554, 116.794 174, 127.863 174 L 137.727 174 138.974 167.750 C 141.271 156.234, 141.994 154.234, 144.434 152.635 C 148.433 150.015, 152.872 144.769, 155.118 140.007 C 159.444 130.841, 159.207 116.680, 154.595 108.687 L 152.178 104.500 155.092 90.500 C 160.047 66.691, 159.542 65, 147.475 65 L 140.261 65 138.127 75.250 M 118.893 114.497 C 113.253 117.563, 111.111 126.187, 114.648 131.586 C 120.371 140.320, 134.684 137.533, 136.601 127.312 C 138.385 117.803, 127.416 109.865, 118.893 114.497" stroke="none" fill="#000000" fill-rule="evenodd"/><path fill-opacity=".005" d="M 0 125 L 0 250 115.417 250 C 206.814 250, 230.938 249.740, 231.338 248.750 C 231.741 247.750, 231.858 247.750, 231.921 248.750 C 232.019 250.303, 248 250.551, 248 249 C 248 248.450, 247.585 248, 247.077 248 C 246.569 248, 244.769 246.615, 243.077 244.923 C 241.385 243.231, 240 241.431, 240 240.923 C 240 240.415, 239.585 240, 239.077 240 C 238.569 240, 236.769 238.615, 235.077 236.923 C 233.385 235.231, 232 233.431, 232 232.923 C 232 232.415, 231.585 232, 231.077 232 C 230.569 232, 228.769 230.615, 227.077 228.923 C 225.385 227.231, 224 225.431, 224 224.923 C 224 224.415, 223.585 224, 223.077 224 C 222.569 224, 220.769 222.615, 219.077 220.923 C 217.385 219.231, 216 217.431, 216 216.923 C 216 216.415, 214.226 216, 212.057 216 C 208.240 216, 208.102 216.119, 207.711 219.750 C 207.488 221.813, 207.508 219.878, 207.755 215.451 L 208.203 207.403 204.501 203.701 C 202.466 201.666, 199.945 200, 198.900 200 C 197.350 200, 197 199.263, 197 196 L 197 192 193 192 L 189 192 189 188 C 189 185.216, 189.431 184, 190.417 184 C 191.196 184, 192.096 183.438, 192.417 182.750 C 192.883 181.750, 193.117 181.750, 193.583 182.750 C 193.904 183.438, 194.836 184, 195.655 184 C 197.604 184, 200 186.442, 200 188.429 C 200 189.293, 200.450 190, 201 190 C 201.550 190, 202 190.450, 202 191 C 202 191.550, 201.100 192, 200 192 C 197.282 192, 197.449 192.516, 201.467 196.533 C 205.072 200.139, 207.419 200.887, 208.417 198.750 C 208.883 197.750, 209.117 197.750, 209.583 198.750 C 209.904 199.437, 211.029 200, 212.083 200 C 213.138 200, 214 200.450, 214 201 C 214 201.550, 214.450 202, 215 202 C 215.550 202, 216 200.650, 216 199 C 216 196.167, 216.222 196, 220 196 C 223.333 196, 224 195.667, 224 194 C 224 192.333, 224.667 192, 228 192 L 232 192 232 196 L 232 200 228 200 C 224.667 200, 224 200.333, 224 202 C 224 203.667, 223.333 204, 220 204 C 215.651 204, 215.254 204.397, 217.429 206.571 C 219.658 208.801, 224 208.423, 224 206 C 224 204.333, 224.667 204, 228 204 L 232 204 232 208 L 232 212 228 212 C 224.222 212, 224 212.167, 224 215 C 224 217.061, 224.492 218, 225.571 218 C 226.436 218, 227.786 218.643, 228.571 219.429 C 229.357 220.214, 230 221.564, 230 222.429 C 230 223.648, 231.121 224, 235 224 L 240 224 240 230 L 240 236 244.954 236 L 249.909 236 250.258 242.750 C 250.451 246.463, 250.586 193.250, 250.559 124.500 L 250.509 -0.500 250.250 107.750 C 250.080 178.753, 249.649 216, 248.996 216 C 248.448 216, 248 215.100, 248 214 C 248 212.333, 247.333 212, 244 212 C 240.667 212, 240 211.667, 240 210 C 240 208.667, 239.333 208, 238 208 C 236.167 208, 236 207.333, 236 200 C 236 192.667, 236.167 192, 238 192 C 240.772 192, 240.527 191.214, 236.550 187.351 C 232.536 183.453, 232 183.294, 232 186 C 232 187.667, 231.333 188, 228 188 C 224.667 188, 224 187.667, 224 186 C 224 184.493, 224.677 183.992, 226.750 183.968 L 229.500 183.937 226.750 181.516 C 225.149 180.107, 224 178.067, 224 176.631 C 224 175.100, 222.967 173.415, 221.274 172.181 C 219.356 170.784, 218.611 169.425, 218.763 167.598 C 218.906 165.868, 218.480 165, 217.489 165 C 216.351 165, 216 166.296, 216 170.500 L 216 176 212 176 L 208 176 208 172 C 208 168.311, 208.214 167.998, 210.750 167.968 L 213.500 167.937 210.750 165.516 C 209.237 164.185, 208 162.399, 208 161.548 C 208 160.697, 207.395 160, 206.655 160 C 205.915 160, 204.495 159.100, 203.500 158 C 202.505 156.900, 201.310 156, 200.845 156 C 200.380 156, 200 156.900, 200 158 C 200 159.667, 199.333 160, 196 160 L 192 160 192 156 L 192 152 188 152 L 184 152 184 148 C 184 144.667, 183.667 144, 182 144 C 180.333 144, 180 143.333, 180 140 L 180 136 176 136 C 172.222 136, 172 135.833, 172 133 C 172 131.350, 172.450 130, 173 130 C 173.550 130, 174 130.450, 174 131 C 174 131.550, 174.450 132, 175 132 C 175.556 132, 176 129.333, 176 126 L 176 120 173 120 C 170.167 120, 170 120.222, 170 124 L 170 128 165 128 L 160 128 160 121.700 C 160 118.133, 159.479 114.879, 158.800 114.200 C 157.867 113.267, 157.867 113, 158.800 113 C 159.460 113, 160 112.523, 160 111.941 C 160 111.359, 159.474 111.207, 158.830 111.605 C 158.006 112.114, 157.891 111.762, 158.441 110.414 C 159.894 106.848, 160.278 100.290, 159.075 99.547 C 158.270 99.049, 158.104 99.564, 158.526 101.250 C 158.975 103.035, 158.724 103.667, 157.567 103.667 C 156.705 103.667, 155.993 103.179, 155.985 102.583 C 155.976 101.987, 155.488 102.175, 154.900 103 C 154.091 104.136, 153.973 103.681, 154.416 101.125 C 154.737 99.269, 155 97.356, 155 96.875 C 155 96.394, 155.459 96, 156.019 96 C 156.591 96, 156.808 97.206, 156.513 98.750 C 156.224 100.263, 156.282 100.825, 156.641 100 C 157 99.175, 157.902 98.140, 158.647 97.700 C 159.391 97.260, 159.993 96.135, 159.985 95.200 C 159.972 93.840, 159.794 93.777, 159.093 94.883 C 158.451 95.898, 158.030 95.412, 157.514 93.062 C 157.126 91.299, 157.078 89.589, 157.405 89.262 C 157.732 88.934, 158 89.668, 158 90.892 C 158 92.116, 158.443 92.844, 158.985 92.509 C 159.526 92.175, 159.881 90.831, 159.773 89.523 C 159.664 88.214, 159.173 87.393, 158.681 87.697 C 158.188 88.002, 158.069 87.358, 158.416 86.266 C 158.762 85.175, 158.727 83.452, 158.337 82.437 C 157.313 79.766, 152.933 100.645, 153.655 104.761 C 154.303 108.455, 156 110.161, 156 107.118 C 156 104.788, 157.565 103.488, 158.517 105.028 C 158.878 105.611, 158.490 107.130, 157.656 108.403 C 156.336 110.416, 156.319 111.225, 157.525 114.609 C 159.327 119.665, 159.375 130.687, 157.616 135.672 C 156.437 139.014, 156.437 139.877, 157.616 141.489 C 158.377 142.530, 159 144.871, 159 146.691 C 159 148.966, 159.469 150, 160.500 150 C 161.325 150, 162 150.450, 162 151 C 162 151.550, 162.707 152, 163.571 152 C 165.558 152, 168 154.396, 168 156.345 C 168 157.164, 168.562 158.096, 169.250 158.417 C 170.250 158.883, 170.250 159.117, 169.250 159.583 C 167.295 160.496, 167.774 162.864, 170.455 165.545 C 173.136 168.226, 175.504 168.705, 176.417 166.750 C 176.883 165.750, 177.117 165.750, 177.583 166.750 C 177.904 167.438, 178.836 168, 179.655 168 C 180.473 168, 181.786 168.643, 182.571 169.429 C 183.357 170.214, 184 171.527, 184 172.345 C 184 173.164, 184.562 174.096, 185.250 174.417 C 186.250 174.883, 186.250 175.117, 185.250 175.583 C 183.352 176.469, 183.755 179.382, 186 181 C 188.421 182.745, 188.577 184, 186.373 184 C 184.249 184, 160 159.751, 160 157.627 C 160 155.876, 157.028 152.473, 154.841 151.720 C 154.103 151.466, 154.685 151.403, 156.134 151.581 C 158.628 151.886, 158.727 151.734, 157.997 148.702 C 157.573 146.941, 156.801 144.415, 156.282 143.090 C 155.495 141.083, 155.230 140.957, 154.700 142.340 C 154.350 143.253, 154.499 144, 155.031 144 C 155.564 144, 156 145.125, 156 146.500 C 156 147.875, 155.520 149, 154.933 149 C 154.320 149, 154.136 148.147, 154.500 147 C 155.368 144.266, 153.829 144.489, 150.993 147.507 C 148.681 149.968, 148.673 150.043, 150.569 151.562 C 152.414 153.041, 152.398 153.061, 150.224 152.006 C 148.361 151.102, 147.406 151.286, 144.974 153.019 C 143.338 154.183, 141.930 155.443, 141.843 155.818 C 141.757 156.193, 141.548 157.625, 141.377 159 C 141.207 160.375, 140.622 163.525, 140.078 166 C 138.843 171.608, 138.789 175.780, 140 172 C 140.686 169.857, 140.815 169.793, 140.900 171.550 C 140.955 172.678, 141.563 174.168, 142.250 174.863 C 143.256 175.879, 142.951 175.918, 140.685 175.063 C 137.073 173.699, 120.468 173.679, 117.934 175.035 C 116.601 175.749, 116 175.749, 116 175.035 C 116 174.466, 116.391 174, 116.869 174 C 117.347 174, 117.993 172.538, 118.305 170.750 C 118.616 168.963, 119.195 165.968, 119.592 164.095 C 120.114 161.628, 119.993 160.886, 119.156 161.404 C 118.520 161.797, 118 161.679, 118 161.142 C 118 160.606, 118.562 159.979, 119.250 159.749 C 119.938 159.519, 119.313 159.103, 117.862 158.825 C 115.318 158.338, 115.162 158.582, 113.499 165.644 C 112.550 169.672, 112.045 173.674, 112.375 174.536 C 112.706 175.398, 112.589 175.864, 112.115 175.571 C 111.641 175.278, 110.955 177.280, 110.592 180.019 L 109.931 185 102.216 184.968 C 90.796 184.921, 89.091 182.710, 91.573 171.162 C 97.326 144.387, 97.248 144.931, 95.616 143.128 C 92.180 139.331, 90.732 133.681, 90.883 124.656 C 90.964 119.791, 91.490 114.954, 92.051 113.906 C 92.740 112.617, 92.741 112, 92.054 112 C 91.495 112, 90.732 113.221, 90.357 114.714 C 89.741 117.169, 89.603 117.240, 88.908 115.464 C 87.617 112.161, 87.864 110.734, 89.611 111.404 C 90.791 111.857, 91.059 111.596, 90.611 110.430 C 90.275 109.553, 89.993 108.086, 89.985 107.168 C 89.971 105.726, 89.838 105.703, 89 107 C 88.467 107.825, 88.031 108.050, 88.031 107.500 C 88.031 106.950, 88.467 105.825, 89 105 C 89.862 103.667, 89.973 103.667, 90 105 C 90.027 106.333, 90.140 106.333, 91.014 105 C 91.719 103.924, 91.828 104.385, 91.398 106.629 C 90.489 111.373, 92.595 111.601, 95.457 107.068 C 97.629 103.628, 97.821 102.702, 96.820 100.504 C 96.078 98.877, 96.002 97.598, 96.610 96.990 C 97.219 96.381, 97.646 96.999, 97.786 98.686 C 98.091 102.374, 98.291 102.394, 101.753 99.086 C 103.440 97.473, 104.537 95.871, 104.191 95.524 C 103.844 95.178, 104.292 95.175, 105.186 95.518 C 106.832 96.150, 107.526 94.445, 108.522 87.321 C 108.739 85.770, 109.385 82.928, 109.958 81.007 C 111.229 76.746, 111.258 73.572, 110 76.500 C 109.149 78.480, 109.140 78.480, 109.070 76.450 C 109.032 75.322, 109.540 73.860, 110.200 73.200 C 110.860 72.540, 111.053 72, 110.629 72 C 109.099 72, 106.998 74.906, 106.884 77.179 C 106.799 78.873, 106.644 79.027, 106.311 77.750 C 106.059 76.787, 105.436 76, 104.927 76 C 103.456 76, 103.839 77.526, 106 80.273 C 108.102 82.945, 108.759 86.587, 106.936 85.461 C 106.216 85.015, 106.090 85.964, 106.548 88.402 C 107.027 90.959, 106.864 92, 105.984 92 C 105.102 92, 104.883 90.572, 105.223 87.034 C 105.485 84.302, 105.317 82.304, 104.850 82.593 C 104.382 82.882, 104 82.416, 104 81.559 C 104 80.667, 103.145 80, 102 80 C 99.371 80, 99.371 83.105, 102 85 C 104.582 86.861, 104.534 88.802, 101.847 91.133 C 99.244 93.390, 98 93.509, 98 91.500 C 98 90.675, 97.550 90, 97 90 C 96.450 90, 96 90.900, 96 92 C 96 94.543, 94.801 94.543, 92.500 92 C 91.474 90.866, 91.190 90, 91.845 90 C 92.480 90, 93 89.550, 93 89 C 93 88.450, 92.081 88, 90.958 88 C 89.835 88, 87.950 87.100, 86.770 86 L 84.623 84 90.311 84 C 95.333 84, 96 84.234, 96 86 C 96 87.100, 96.450 88, 97 88 C 97.550 88, 98 86.650, 98 85 C 98 83.350, 97.550 82, 97 82 C 96.450 82, 96 79.750, 96 77 L 96 72 100 72 C 103.333 72, 104 71.667, 104 70 C 104 68.667, 104.667 68, 106 68 C 107.100 68, 108 67.550, 108 67 C 108 66.450, 108.900 66, 110 66 C 111.100 66, 112 66.450, 112 67 C 112 67.550, 113.800 68, 116 68 C 118.200 68, 120 67.550, 120 67 C 120 66.450, 118.200 66, 116 66 C 113.800 66, 112 65.550, 112 65 C 112 64.417, 108.667 64, 104 64 L 96 64 96 60 L 96 56 92 56 L 88 56 88 52 L 88 48 92 48 L 96 48 96 44 L 96 40 92 40 L 88 40 88 44 L 88 48 84 48 L 80 48 80 44 C 80 40.311, 80.214 39.998, 82.750 39.968 L 85.500 39.937 82.750 37.516 C 80.602 35.625, 80 34.210, 80 31.048 L 80 27 76 27 C 72.400 27, 72 27.250, 72 29.500 C 72 31.088, 72.564 32, 73.545 32 C 75.546 32, 80 36.454, 80 38.455 C 80 39.591, 78.941 40, 76 40 C 72.470 40, 72 39.724, 72 37.655 C 72 34.798, 69.116 32, 66.171 32 C 64.560 32, 64 31.395, 64 29.655 C 64 26.798, 61.116 24, 58.171 24 C 56.560 24, 56 23.395, 56 21.655 C 56 18.798, 53.116 16, 50.171 16 C 48.560 16, 48 15.395, 48 13.655 C 48 10.798, 45.116 8, 42.171 8 C 40.305 8, 40 7.439, 40 4 L 40 0 34 0 L 28 0 28 4 C 28 7.778, 27.833 8, 25 8 C 23.350 8, 22 8.450, 22 9 C 22 9.550, 22.450 10, 23 10 C 23.550 10, 24 10.900, 24 12 C 24 13.100, 24.450 14, 25 14 C 25.550 14, 26 14.695, 26 15.545 C 26 17.546, 30.454 22, 32.455 22 C 33.305 22, 34 22.450, 34 23 C 34 23.550, 34.450 24, 35 24 C 35.550 24, 36 22.200, 36 20 C 36 16.667, 36.333 16, 38 16 C 39.194 16, 40 15.333, 40 14.345 C 40 12.857, 40.201 12.872, 42 14.500 C 44.629 16.880, 44.629 20, 42 20 C 40.696 20, 40 20.667, 40 21.917 C 40 22.971, 39.437 24.096, 38.750 24.417 C 37.750 24.883, 37.750 25.117, 38.750 25.583 C 39.437 25.904, 40 27.029, 40 28.083 C 40 29.137, 40.450 30, 41 30 C 41.550 30, 42 30.695, 42 31.545 C 42 32.395, 43.105 34.195, 44.455 35.545 C 45.805 36.895, 47.605 38, 48.455 38 C 49.305 38, 50 38.450, 50 39 C 50 39.550, 50.900 40, 52 40 C 53.100 40, 54 40.450, 54 41 C 54 41.550, 54.450 42, 55 42 C 55.550 42, 56 40.650, 56 39 C 56 36.167, 55.778 36, 52 36 C 48.667 36, 48 35.667, 48 34 C 48 32.667, 47.333 32, 46 32 C 44.222 32, 44 31.333, 44 26 C 44 20.835, 44.257 20, 45.845 20 C 46.860 20, 48.505 20.900, 49.500 22 C 50.495 23.100, 52.365 24, 53.655 24 C 55.448 24, 56 24.552, 56 26.345 C 56 29.202, 58.884 32, 61.829 32 C 63.440 32, 64 32.605, 64 34.345 C 64 37.202, 66.884 40, 69.829 40 C 71.695 40, 72 40.561, 72 44 L 72 48 68 48 C 64.667 48, 64 47.667, 64 46 C 64 44.333, 63.333 44, 60 44 C 57.800 44, 56 44.257, 56 44.571 C 56 46.035, 59.112 48, 61.429 48 C 63.524 48, 64 48.476, 64 50.571 C 64 53.248, 66.027 56, 68 56 C 69.476 56, 72 58.524, 72 60 C 72 61.973, 74.752 64, 77.429 64 C 79.946 64, 80 64.148, 80 71 C 80 74.850, 79.622 78, 79.161 78 C 78.699 78, 76.899 76.437, 75.161 74.527 C 72.867 72.006, 72 70.086, 72 67.527 C 72 64.079, 71.911 64, 68 64 C 64.667 64, 64 63.667, 64 62 C 64 60.333, 63.333 60, 60 60 L 56 60 56 56 C 56 52.667, 55.667 52, 54 52 C 52.667 52, 52 51.333, 52 50 C 52 48.667, 51.333 48, 50 48 C 48.667 48, 48 47.333, 48 46 C 48 44.333, 47.333 44, 44 44 L 40 44 40 40 L 40 36 36 36 C 32.444 36, 32 35.733, 32 33.600 C 32 30.712, 25.638 24, 22.900 24 C 21.350 24, 21 23.263, 21 20 C 21 16.400, 20.750 16, 18.500 16 C 16.667 16, 16 15.467, 16 14 C 16 12.889, 15.333 12, 14.500 12 C 13.667 12, 13 11.111, 13 10 C 13 8.533, 12.333 8, 10.500 8 C 8.250 8, 8 7.600, 8 4 L 8 0 4 0 L 0 0 0 125 M 16 2.571 C 16 4.888, 17.965 8, 19.429 8 C 19.743 8, 20 6.200, 20 4 C 20 0.667, 19.667 0, 18 0 C 16.519 0, 16 0.667, 16 2.571 M 44 0.571 C 44 1.314, 46.686 4, 47.429 4 C 47.743 4, 48 3.100, 48 2 C 48 0.667, 47.333 0, 46 0 C 44.900 0, 44 0.257, 44 0.571 M 56 8 C 56 15.002, 56.222 16, 57.779 16 C 58.758 16, 60.207 16.900, 61 18 C 63.014 20.795, 64 20.494, 64 17.083 C 64 15.071, 63.168 13.560, 61.315 12.211 C 58.936 10.478, 58.657 9.674, 58.865 5.128 C 59.050 1.063, 58.778 0, 57.549 0 C 56.279 0, 56 1.442, 56 8 M 0.485 125.500 C 0.485 194.250, 0.604 222.228, 0.750 187.672 C 0.896 153.117, 0.896 96.867, 0.750 62.672 C 0.604 28.478, 0.485 56.750, 0.485 125.500 M 28 12 L 28 16 32 16 L 36 16 36 12 L 36 8 32 8 L 28 8 28 12 M 7.272 20 C 7.272 22.475, 7.467 23.488, 7.706 22.250 C 7.944 21.012, 7.944 18.988, 7.706 17.750 C 7.467 16.512, 7.272 17.525, 7.272 20 M 64 23 C 64 23.550, 65.800 24, 68 24 C 70.200 24, 72 23.550, 72 23 C 72 22.450, 70.200 22, 68 22 C 65.800 22, 64 22.450, 64 23 M 12 24.800 C 12 25.835, 14.165 28, 15.200 28 C 15.640 28, 16 27.100, 16 26 C 16 24.667, 15.333 24, 14 24 C 12.900 24, 12 24.360, 12 24.800 M 110 31 C 110 31.550, 110.450 32, 111 32 C 111.550 32, 112 31.550, 112 31 C 112 30.450, 111.550 30, 111 30 C 110.450 30, 110 30.450, 110 31 M 17.750 32.706 C 18.988 32.944, 21.012 32.944, 22.250 32.706 C 23.488 32.467, 22.475 32.272, 20 32.272 C 17.525 32.272, 16.512 32.467, 17.750 32.706 M 25.750 40.706 C 26.988 40.944, 29.012 40.944, 30.250 40.706 C 31.488 40.467, 30.475 40.272, 28 40.272 C 25.525 40.272, 24.512 40.467, 25.750 40.706 M 5.229 49.188 C 5.847 51.042, 8 51.349, 8 49.583 C 8 48.712, 7.287 48, 6.417 48 C 5.546 48, 5.011 48.534, 5.229 49.188 M 39.272 52 C 39.272 54.475, 39.467 55.487, 39.706 54.250 C 39.944 53.013, 39.944 50.987, 39.706 49.750 C 39.467 48.513, 39.272 49.525, 39.272 52 M 72 52 L 72 56 76 56 L 80 56 80 60 L 80 64 84 64 C 87.333 64, 88 64.333, 88 66 C 88 67.333, 88.667 68, 90 68 C 91.333 68, 92 68.667, 92 70 C 92 71.333, 92.667 72, 94 72 C 95.333 72, 96 71.333, 96 70 C 96 68.667, 95.333 68, 94 68 C 92.667 68, 92 67.333, 92 66 C 92 64.667, 91.333 64, 90 64 C 88.333 64, 88 63.333, 88 60 L 88 56 84 56 L 80 56 80 52 L 80 48 76 48 L 72 48 72 52 M 47.272 60 C 47.272 62.475, 47.467 63.487, 47.706 62.250 C 47.944 61.013, 47.944 58.987, 47.706 57.750 C 47.467 56.513, 47.272 57.525, 47.272 60 M 145.349 63.710 C 144.716 64.145, 146.587 64.523, 149.507 64.551 C 155.034 64.604, 157.617 65.935, 159.048 69.465 C 159.761 71.223, 159.882 71.256, 159.937 69.708 C 160.047 66.579, 156.747 64.165, 151.487 63.526 C 148.744 63.193, 145.982 63.276, 145.349 63.710 M 55.158 66 C 55.158 67.375, 55.385 67.938, 55.662 67.250 C 55.940 66.563, 55.940 65.438, 55.662 64.750 C 55.385 64.063, 55.158 64.625, 55.158 66 M 137.031 65 C 137.031 65.825, 137.467 67.175, 138 68 C 138.862 69.333, 138.969 69.333, 138.969 68 C 138.969 67.175, 138.533 65.825, 138 65 C 137.138 63.667, 137.031 63.667, 137.031 65 M 133.156 67.596 C 131.681 69.265, 132.363 74, 134.078 74 C 134.650 74, 134.835 74.457, 134.490 75.016 C 134.144 75.575, 133.443 75.774, 132.931 75.457 C 132.419 75.141, 132 75.359, 132 75.941 C 132 76.523, 132.536 77, 133.191 77 C 133.846 77, 133.509 77.676, 132.441 78.502 C 130.955 79.652, 130.894 79.868, 132.177 79.423 C 133.494 78.967, 133.766 79.342, 133.444 81.171 C 133.219 82.452, 133.667 81.700, 134.440 79.500 C 135.472 76.564, 135.867 76.112, 135.923 77.800 C 135.965 79.064, 135.308 81.438, 134.462 83.074 C 133.616 84.710, 133.053 86.809, 133.212 87.738 C 133.394 88.804, 132.762 89.512, 131.500 89.656 C 129.689 89.864, 129.679 89.834, 131.395 89.341 C 132.764 88.948, 132.944 88.583, 132.042 88.026 C 131.134 87.465, 131.076 86.727, 131.827 85.323 C 132.395 84.261, 132.500 82.808, 132.059 82.095 C 131.508 81.204, 131.089 81.691, 130.722 83.649 C 130.428 85.217, 129.883 87.453, 129.511 88.618 C 128.958 90.352, 129.317 90.828, 131.497 91.244 C 133.026 91.537, 134.290 91.274, 134.470 90.626 C 136.614 82.888, 137.165 77.912, 136.187 75.105 C 135.537 73.243, 135.484 72, 136.052 72 C 136.573 72, 137.036 72.787, 137.079 73.750 C 137.125 74.781, 137.364 74.990, 137.659 74.259 C 138.241 72.820, 136.172 65.982, 135.172 66.038 C 134.803 66.059, 133.895 66.760, 133.156 67.596 M 105 73.059 C 105 73.641, 105.450 73.840, 106 73.500 C 106.550 73.160, 107 72.684, 107 72.441 C 107 72.198, 106.550 72, 106 72 C 105.450 72, 105 72.477, 105 73.059 M 114.728 72.722 C 116.503 72.943, 119.653 72.946, 121.728 72.730 C 123.802 72.513, 122.350 72.333, 118.500 72.328 C 114.650 72.324, 112.952 72.501, 114.728 72.722 M 128.015 72.750 C 128.004 73.645, 125.725 74, 120 74 C 115.076 74, 112 74.404, 112 75.051 C 112 75.721, 115.262 76.035, 121 75.919 C 125.950 75.819, 129.993 75.459, 129.985 75.119 C 129.952 73.806, 128.031 71.495, 128.015 72.750 M 159.158 75 C 159.158 76.375, 159.385 76.938, 159.662 76.250 C 159.940 75.563, 159.940 74.438, 159.662 73.750 C 159.385 73.063, 159.158 73.625, 159.158 75 M 158.031 78.500 C 158.031 79.050, 158.467 80.175, 159 81 C 159.533 81.825, 159.969 82.050, 159.969 81.500 C 159.969 80.950, 159.533 79.825, 159 79 C 158.467 78.175, 158.031 77.950, 158.031 78.500 M 85.229 81.188 C 85.847 83.042, 88 83.349, 88 81.583 C 88 80.713, 87.287 80, 86.417 80 C 85.546 80, 85.011 80.534, 85.229 81.188 M 80.083 96.367 C 81.050 97.218, 90 97.679, 90 96.877 C 90 96.395, 87.675 96, 84.833 96 C 81.992 96, 79.854 96.165, 80.083 96.367 M 125.250 114.215 C 126.763 114.859, 128 115.765, 128 116.228 C 128 116.691, 127.052 116.563, 125.893 115.943 C 124.554 115.226, 123.437 115.163, 122.830 115.770 C 122.223 116.377, 123.059 116.962, 125.121 117.374 C 127.183 117.787, 128.633 117.593, 129.096 116.844 C 129.573 116.073, 130.536 116.832, 131.876 119.036 C 133.003 120.890, 133.728 122.605, 133.487 122.846 C 132.801 123.532, 129.965 120.865, 130.485 120.023 C 130.740 119.611, 128.823 119.413, 126.224 119.582 C 123.218 119.779, 122.214 119.606, 123.464 119.107 C 125.245 118.397, 125.175 118.261, 122.714 117.643 C 121.221 117.268, 120 116.494, 120 115.922 C 120 115.350, 120.450 115.160, 121 115.500 C 121.550 115.840, 122 115.641, 122 115.059 C 122 113.056, 119.793 114.007, 116.273 117.527 C 113.031 120.769, 112.787 121.422, 113.259 125.603 C 114.690 138.302, 130.017 140.997, 135.126 129.448 C 137.076 125.041, 137.081 124.828, 135.314 121.276 C 133.202 117.031, 129.733 114.305, 125.500 113.567 L 122.500 113.044 125.250 114.215 M 88.252 122.500 C 88.263 124.700, 88.468 125.482, 88.707 124.238 C 88.946 122.994, 88.937 121.194, 88.687 120.238 C 88.437 119.282, 88.241 120.300, 88.252 122.500 M 116.417 124.571 C 116.543 129.048, 117.101 131.191, 118.544 132.735 C 120.464 134.790, 120.569 134.795, 124.196 133.027 C 126.229 132.037, 128.070 131.403, 128.286 131.619 C 128.502 131.835, 129.468 131.140, 130.433 130.074 C 131.398 129.007, 132.821 128.378, 133.594 128.674 C 134.443 129, 135 128.577, 135 127.607 C 135 125.821, 133.460 125.447, 132.500 127 C 131.355 128.852, 130.183 128.019, 130.741 125.750 C 131.046 124.513, 130.929 123.838, 130.480 124.250 C 130.032 124.663, 129.553 126.013, 129.416 127.250 C 129.279 128.488, 129.129 129.739, 129.083 130.032 C 129.037 130.324, 127.763 130.666, 126.250 130.791 C 124.737 130.915, 123.350 131.463, 123.167 132.009 C 122.731 133.305, 120 133.297, 120 132 C 120 131.450, 120.450 131, 121 131 C 122.792 131, 122.052 129.151, 120 128.500 C 118.900 128.151, 118 127.194, 118 126.374 C 118 125.547, 118.488 125.184, 119.096 125.559 C 119.760 125.970, 120.056 125.578, 119.846 124.566 C 119.656 123.646, 119.050 122.945, 118.500 123.006 C 117.950 123.068, 117.218 122.079, 116.873 120.809 C 116.528 119.539, 116.323 121.232, 116.417 124.571 M 125.136 124.667 C 125.061 126.408, 124.438 128.060, 123.750 128.338 C 122.771 128.733, 122.778 128.859, 123.781 128.921 C 125.428 129.023, 126.279 126.780, 125.715 123.823 C 125.369 122.008, 125.243 122.192, 125.136 124.667 M 114.195 125.500 C 114.215 127.150, 114.439 127.704, 114.693 126.731 C 114.947 125.758, 114.930 124.408, 114.656 123.731 C 114.382 123.054, 114.175 123.850, 114.195 125.500 M 80 130.500 C 80 131.875, 80.450 133, 81 133 C 81.550 133, 82 131.875, 82 130.500 C 82 129.125, 81.550 128, 81 128 C 80.450 128, 80 129.125, 80 130.500 M 117 130 C 117 130.550, 117.423 131, 117.941 131 C 118.459 131, 119.160 130.550, 119.500 130 C 119.840 129.450, 119.416 129, 118.559 129 C 117.702 129, 117 129.450, 117 130 M 131.020 131.476 C 130.231 132.426, 130.155 133, 130.819 133 C 132.027 133, 133.436 131.103, 132.743 130.409 C 132.491 130.158, 131.716 130.638, 131.020 131.476 M 88.884 134.250 C 88.797 135.943, 88.655 136.067, 88.311 134.750 C 87.752 132.612, 86 132.423, 86 134.500 C 86 135.325, 86.464 136, 87.031 136 C 87.599 136, 88.361 136.787, 88.725 137.750 C 89.435 139.624, 92 142.566, 92 141.506 C 92 141.155, 91.460 139.886, 90.801 138.684 C 90.141 137.483, 89.723 135.488, 89.872 134.250 C 90.021 133.012, 89.886 132, 89.572 132 C 89.257 132, 88.948 133.012, 88.884 134.250 M 128 133.833 C 128 134.475, 126.987 135.052, 125.750 135.116 C 123.898 135.211, 123.828 135.317, 125.356 135.710 C 127.351 136.223, 129.811 134.478, 128.683 133.350 C 128.308 132.974, 128 133.192, 128 133.833 M 160 137.059 C 160 137.641, 159.532 137.829, 158.960 137.475 C 158.278 137.054, 158.153 137.808, 158.598 139.666 C 159.602 143.861, 159.777 144, 164.059 144 C 167.990 144, 168 144.010, 168 148 L 168 152 172 152 L 176 152 176 156 L 176 160 180 160 L 184 160 184 164 L 184 168 188 168 L 192 168 192 172 L 192 176 196 176 L 200 176 200 180 L 200 184 204 184 L 208 184 208 188 L 208 192 212 192 L 216 192 216 188 L 216 184 220 184 C 224.770 184, 225.276 182.185, 221.545 178.455 C 217.815 174.724, 216 175.230, 216 180 L 216 184 212 184 L 208 184 208 180 L 208 176 204 176 L 200 176 200 172 L 200 168 204 168 C 208.770 168, 209.276 166.185, 205.545 162.455 C 201.815 158.724, 200 159.230, 200 164 L 200 168 196 168 L 192 168 192 164 L 192 160 188 160 L 184 160 184 156 L 184 152 180 152 L 176 152 176 148 L 176 144 172 144 L 168 144 168 140 L 168 136 164 136 C 161.800 136, 160 136.477, 160 137.059 M 188 144.571 C 188 144.886, 188.643 145.786, 189.429 146.571 C 191.366 148.509, 192 148.369, 192 146 C 192 144.667, 191.333 144, 190 144 C 188.900 144, 188 144.257, 188 144.571 M 88 153 C 88 153.550, 88.450 154, 89 154 C 89.550 154, 90 154.975, 90 156.167 C 90 157.358, 90.279 158.054, 90.620 157.713 C 91.520 156.813, 90.139 152, 88.981 152 C 88.441 152, 88 152.450, 88 153 M 146 154.583 C 144.319 155.516, 144.033 155.975, 145.128 155.985 C 146.023 155.993, 147.315 155.325, 148 154.500 C 149.460 152.740, 149.310 152.747, 146 154.583 M 93.079 155.583 C 93.127 156.748, 93.364 156.985, 93.683 156.188 C 93.972 155.466, 93.936 154.603, 93.604 154.271 C 93.272 153.939, 93.036 154.529, 93.079 155.583 M 148 157 C 148 157.550, 148.477 158, 149.059 158 C 149.641 158, 149.840 157.550, 149.500 157 C 149.160 156.450, 148.684 156, 148.441 156 C 148.198 156, 148 156.450, 148 157 M 142.094 158.500 C 141.950 160.765, 143.695 161.474, 148 160.900 C 150.647 160.547, 151.392 160.239, 149.809 160.150 C 148.329 160.068, 146.840 159.550, 146.500 159 C 146.160 158.450, 145.346 158.007, 144.691 158.015 C 143.975 158.025, 144.099 158.418, 145 159 C 146.297 159.838, 146.275 159.971, 144.833 159.985 C 143.917 159.993, 142.940 159.438, 142.662 158.750 C 142.385 158.063, 142.129 157.950, 142.094 158.500 M 89.079 160.583 C 89.127 161.748, 89.364 161.985, 89.683 161.188 C 89.972 160.466, 89.936 159.603, 89.604 159.271 C 89.272 158.939, 89.036 159.529, 89.079 160.583 M 91.195 161.500 C 91.215 163.150, 91.439 163.704, 91.693 162.731 C 91.947 161.758, 91.930 160.408, 91.656 159.731 C 91.382 159.054, 91.175 159.850, 91.195 161.500 M 221 161.500 C 221 162.325, 221.675 163, 222.500 163 C 223.325 163, 224 162.325, 224 161.500 C 224 160.675, 223.325 160, 222.500 160 C 221.675 160, 221 160.675, 221 161.500 M 88.564 167.707 C 88.022 169.132, 88.136 169.247, 89.124 168.267 C 89.808 167.588, 90.115 166.781, 89.807 166.474 C 89.499 166.166, 88.940 166.721, 88.564 167.707 M 141.664 167.832 C 141.849 168.564, 142 169.352, 142 169.582 C 142 169.812, 142.354 170, 142.787 170 C 143.220 170, 143.650 168.993, 143.743 167.763 C 143.861 166.192, 143.663 165.928, 143.077 166.876 C 142.618 167.619, 142.036 167.838, 141.785 167.363 C 141.534 166.888, 141.479 167.099, 141.664 167.832 M 89.079 171.583 C 89.127 172.748, 89.364 172.985, 89.683 172.188 C 89.972 171.466, 89.936 170.603, 89.604 170.271 C 89.272 169.939, 89.036 170.529, 89.079 171.583 M 161.750 176.706 C 162.988 176.944, 165.012 176.944, 166.250 176.706 C 167.488 176.467, 166.475 176.272, 164 176.272 C 161.525 176.272, 160.512 176.467, 161.750 176.706 M 169.750 184.706 C 170.988 184.944, 173.012 184.944, 174.250 184.706 C 175.488 184.467, 174.475 184.272, 172 184.272 C 169.525 184.272, 168.512 184.467, 169.750 184.706 M 89 185.393 C 89 185.609, 89.698 186.054, 90.552 186.382 C 91.442 186.723, 91.843 186.555, 91.493 185.989 C 90.906 185.038, 89 184.583, 89 185.393 M 180 192.800 C 180 193.240, 180.540 194.140, 181.200 194.800 C 182.963 196.563, 184 196.267, 184 194 C 184 192.667, 183.333 192, 182 192 C 180.900 192, 180 192.360, 180 192.800 M 240 199 C 240 199.550, 241.800 200, 244 200 C 246.200 200, 248 199.550, 248 199 C 248 198.450, 246.200 198, 244 198 C 241.800 198, 240 198.450, 240 199 M 191.272 204 C 191.272 206.475, 191.467 207.488, 191.706 206.250 C 191.944 205.012, 191.944 202.988, 191.706 201.750 C 191.467 200.512, 191.272 201.525, 191.272 204 M 199.272 212 C 199.272 214.475, 199.467 215.488, 199.706 214.250 C 199.944 213.012, 199.944 210.988, 199.706 209.750 C 199.467 208.512, 199.272 209.525, 199.272 212 M 232 216 L 232 220 236 220 C 239.333 220, 240 220.333, 240 222 C 240 223.667, 240.667 224, 244 224 C 247.333 224, 248 223.667, 248 222 C 248 220.333, 247.333 220, 244 220 L 240 220 240 216 L 240 212 236 212 L 232 212 232 216 M 171 216.845 C 171 217.813, 174.320 221, 175.329 221 C 175.698 221, 176 219.875, 176 218.500 C 176 216.500, 175.500 216, 173.500 216 C 172.125 216, 171 216.380, 171 216.845 M 179 224.845 C 179 225.813, 182.320 229, 183.329 229 C 183.698 229, 184 227.875, 184 226.500 C 184 224.500, 183.500 224, 181.500 224 C 180.125 224, 179 224.380, 179 224.845 M 248 228 C 248 229.100, 248.450 230, 249 230 C 249.550 230, 250 229.100, 250 228 C 250 226.900, 249.550 226, 249 226 C 248.450 226, 248 226.900, 248 228 M 187 232.845 C 187 233.813, 190.320 237, 191.329 237 C 191.698 237, 192 235.875, 192 234.500 C 192 232.500, 191.500 232, 189.500 232 C 188.125 232, 187 232.380, 187 232.845 M 198 242.500 C 198 243.875, 198.450 245, 199 245 C 199.550 245, 200 243.875, 200 242.500 C 200 241.125, 199.550 240, 199 240 C 198.450 240, 198 241.125, 198 242.500" stroke="none" fill="#000000" fill-rule="evenodd"/><path fill-opacity=".113" d="M 0 54.031 C 0 55.323, 0.677 56, 1.969 56 C 4.188 56, 3.788 53.516, 1.423 52.609 C 0.489 52.251, 0 52.740, 0 54.031 M 0 65 C 0 65.550, 0.702 66, 1.559 66 C 2.416 66, 2.840 65.550, 2.500 65 C 2.160 64.450, 1.459 64, 0.941 64 C 0.423 64, 0 64.450, 0 65 M 137.086 64.500 C 137.190 66.394, 138.856 69.584, 138.914 68 C 138.945 67.175, 138.533 65.825, 138 65 C 137.467 64.175, 137.055 63.950, 137.086 64.500 M 156.500 66 C 156.840 66.550, 157.316 67, 157.559 67 C 157.802 67, 158 66.550, 158 66 C 158 65.450, 157.523 65, 156.941 65 C 156.359 65, 156.160 65.450, 156.500 66 M 159.158 69 C 159.158 70.375, 159.385 70.938, 159.662 70.250 C 159.940 69.563, 159.940 68.438, 159.662 67.750 C 159.385 67.063, 159.158 67.625, 159.158 69 M 0 70 C 0 71.333, 0.667 72, 2 72 C 4.267 72, 4.563 70.963, 2.800 69.200 C 1.037 67.437, 0 67.733, 0 70 M 133.813 73.683 C 134.534 73.972, 135.397 73.936, 135.729 73.604 C 136.061 73.272, 135.471 73.036, 134.417 73.079 C 133.252 73.127, 133.015 73.364, 133.813 73.683 M 112 75.051 C 112 75.721, 115.262 76.035, 121 75.919 C 125.950 75.819, 130 75.346, 130 74.869 C 130 74.391, 125.950 74, 121 74 C 115.377 74, 112 74.394, 112 75.051 M 134.707 75.734 C 134.470 76.155, 133.976 77.850, 133.608 79.500 C 133.119 81.692, 133.213 82.096, 133.954 81 C 134.513 80.175, 135.030 78.600, 135.103 77.500 C 135.194 76.145, 135.483 76.468, 136 78.500 L 136.763 81.500 136.882 78.809 C 136.997 76.195, 135.577 74.187, 134.707 75.734 M 8 78 C 8 79.333, 8.667 80, 10 80 C 12.267 80, 12.563 78.963, 10.800 77.200 C 9.037 75.437, 8 75.733, 8 78 M 107 79 C 107 79.550, 107.439 80, 107.975 80 C 108.511 80, 108.724 81.463, 108.448 83.250 C 107.992 86.206, 108.041 86.283, 108.995 84.105 C 110.108 81.561, 109.489 78, 107.933 78 C 107.420 78, 107 78.450, 107 79 M 0 92 C 0 102.265, 0.228 104, 1.578 104 C 2.447 104, 4.886 105.800, 7 108 C 9.535 110.639, 11.721 112, 13.422 112 C 15.763 112, 16 112.368, 16 116 C 16 118.977, 16.404 120, 17.578 120 C 18.447 120, 20.886 121.800, 23 124 C 25.535 126.639, 27.721 128, 29.422 128 C 31.763 128, 32 128.368, 32 132 L 32 136 28 136 L 24 136 24 132 L 24 128 18.500 128 L 13 128 13 124 L 13 120 9 120 L 5 120 5 116 C 5 112.400, 4.750 112, 2.500 112 C 0.043 112, 0 112.137, 0 119.943 L 0 127.885 4.250 128.268 L 8.500 128.651 4.250 128.825 L 0 129 0 189.500 L 0 250 68 250 C 125.318 250, 136 249.782, 136 248.613 C 136 246.514, 121.049 232, 118.887 232 C 117.352 232, 117 231.254, 117 228 L 117 224 113 224 L 109 224 109 220 L 109 216 105 216 L 101 216 101 212 L 101 208 97 208 L 93 208 93 204 C 93 200.601, 92.684 200, 90.896 200 C 88.018 200, 74.500 186.534, 74.500 183.667 C 74.500 182.113, 73.889 181.500, 72.340 181.500 C 71.153 181.500, 69.840 181.162, 69.424 180.750 C 69.007 180.338, 71.012 180, 73.879 180 C 80.474 180, 84 182.968, 84 188.519 C 84 191.841, 84.218 192.111, 86.750 191.913 C 88.263 191.795, 90.963 191.766, 92.750 191.849 C 95.850 191.993, 96 192.185, 96 196 C 96 198.977, 96.404 200, 97.578 200 C 98.447 200, 100.886 201.800, 103 204 C 105.535 206.639, 107.721 208, 109.422 208 C 111.763 208, 112 208.368, 112 212 C 112 214.977, 112.404 216, 113.578 216 C 114.447 216, 116.886 217.800, 119 220 C 121.535 222.639, 123.721 224, 125.422 224 C 127.763 224, 128 224.368, 128 228 C 128 230.920, 128.412 232, 129.526 232 C 130.366 232, 133.066 234.013, 135.526 236.474 C 139.507 240.454, 140 241.446, 140 245.474 C 140 249.333, 140.295 250, 142 250 C 143.733 250, 144 249.333, 144 245 C 144 241.121, 144.352 240, 145.571 240 C 147.592 240, 150 242.408, 150 244.429 C 150 245.293, 150.450 246, 151 246 C 151.550 246, 152 246.450, 152 247 C 152 247.550, 151.100 248, 150 248 C 148.900 248, 148 248.450, 148 249 C 148 249.600, 152 250, 158 250 C 164 250, 168 249.600, 168 249 C 168 248.450, 166.200 248, 164 248 L 160 248 160 244 L 160 240 156 240 L 152 240 152 236 C 152 232.079, 151.930 232, 148.422 232 C 145.554 232, 144.080 231.205, 141 228 C 138.886 225.800, 136.447 224, 135.578 224 C 134.710 224, 134 223.293, 134 222.429 C 134 221.564, 133.357 220.214, 132.571 219.429 C 131.786 218.643, 130.436 218, 129.571 218 C 128.707 218, 128 217.550, 128 217 C 128 216.450, 128.900 216, 130 216 C 131.667 216, 132 215.333, 132 212 C 132 208.667, 131.667 208, 130 208 C 128.667 208, 128 207.333, 128 206 C 128 204.667, 127.333 204, 126 204 C 124.667 204, 124 204.667, 124 206 C 124 207.333, 124.667 208, 126 208 C 127.556 208, 128 208.667, 128 211 C 128 214.745, 127.498 214.745, 124 211 C 122.459 209.350, 120.478 208, 119.599 208 C 118.719 208, 118 207.293, 118 206.429 C 118 204.408, 115.592 202, 113.571 202 C 112.707 202, 112 201.281, 112 200.401 C 112 199.522, 110.616 197.509, 108.924 195.929 C 105.689 192.907, 105.764 191, 109.118 191 C 110.218 191, 110.840 190.550, 110.500 190 C 110.160 189.450, 110.471 188.993, 111.191 188.985 C 112.144 188.974, 112.092 188.702, 111 187.985 C 109.968 187.307, 109.843 186.766, 110.598 186.250 C 111.202 185.838, 111.714 183.025, 111.737 180 L 111.777 174.500 111.015 179 C 110.596 181.475, 110.448 183.838, 110.686 184.250 C 111.159 185.071, 110.192 185.196, 102 185.378 C 90.354 185.636, 88.900 183.254, 91.964 168.943 C 93.851 160.127, 93.898 159.036, 92.500 156.394 C 91.016 153.588, 90.990 153.679, 91.641 159.405 C 92.157 163.944, 92.028 165.135, 91.086 164.553 C 90.412 164.136, 89.470 162.829, 88.993 161.648 C 88.273 159.864, 88.116 160.145, 88.063 163.309 C 88.025 165.607, 88.397 166.873, 89 166.500 C 89.612 166.122, 89.965 167.553, 89.910 170.191 L 89.820 174.500 88.881 171.250 C 88.345 169.393, 87.281 168, 86.400 168 C 85.551 168, 84.141 167.284, 83.266 166.409 C 81.978 165.121, 81.927 164.663, 83 164 C 84.073 163.337, 84.022 162.879, 82.734 161.591 C 80.482 159.339, 80 159.588, 80 163 C 80 166.677, 79.619 166.710, 76.233 163.324 C 74.522 161.613, 73.997 160.501, 74.778 160.241 C 75.463 160.012, 76 158.113, 76 155.917 C 76 152.723, 75.646 152, 74.083 152 C 73.029 152, 71.904 152.563, 71.583 153.250 C 71.117 154.250, 70.883 154.250, 70.417 153.250 C 70.096 152.563, 68.971 152, 67.917 152 C 66.862 152, 66 151.550, 66 151 C 66 150.450, 65.305 150, 64.455 150 C 63.015 150, 58 145.762, 58 144.545 C 58 144.245, 59.350 144, 61 144 C 63.333 144, 64 143.556, 64 142 C 64 140.353, 63.333 140, 60.221 140 C 57.589 140, 56.004 139.393, 55 138 C 54.207 136.900, 52.758 136, 51.779 136 C 50.801 136, 50 135.550, 50 135 C 50 134.450, 49.305 134, 48.455 134 C 46.207 134, 42 129.438, 42 127 C 42 124.562, 37.793 120, 35.545 120 C 34.695 120, 34 119.550, 34 119 C 34 118.450, 33.305 118, 32.455 118 C 30.170 118, 26 113.421, 26 110.913 C 26 109.715, 24.987 107.834, 23.750 106.733 C 22.224 105.375, 21.902 104.586, 22.750 104.282 C 23.437 104.035, 24 102.971, 24 101.917 C 24 100.354, 23.277 100, 20.083 100 C 17.887 100, 15.988 100.537, 15.759 101.222 C 15.140 103.081, 10 97.481, 10 94.947 C 10 93.767, 8.650 91.541, 7 90 C 4.742 87.890, 4 86.308, 4 83.599 C 4 80.667, 3.630 80, 2 80 C 0.111 80, 0 80.667, 0 92 M 131.158 84 C 131.158 85.375, 131.385 85.938, 131.662 85.250 C 131.940 84.563, 131.940 83.438, 131.662 82.750 C 131.385 82.063, 131.158 82.625, 131.158 84 M 135.079 83.583 C 135.127 84.748, 135.364 84.985, 135.683 84.188 C 135.972 83.466, 135.936 82.603, 135.604 82.271 C 135.272 81.939, 135.036 82.529, 135.079 83.583 M 157.158 84 C 157.158 85.375, 157.385 85.938, 157.662 85.250 C 157.940 84.563, 157.940 83.438, 157.662 82.750 C 157.385 82.063, 157.158 82.625, 157.158 84 M 16 86.500 C 16 87.325, 16.730 88, 17.622 88 C 18.951 88, 19.020 87.729, 18 86.500 C 17.315 85.675, 16.585 85, 16.378 85 C 16.170 85, 16 85.675, 16 86.500 M 104.079 87.583 C 104.127 88.748, 104.364 88.985, 104.683 88.188 C 104.972 87.466, 104.936 86.603, 104.604 86.271 C 104.272 85.939, 104.036 86.529, 104.079 87.583 M 133 87 C 133 87.550, 133.450 88, 134 88 C 134.550 88, 135 87.550, 135 87 C 135 86.450, 134.550 86, 134 86 C 133.450 86, 133 86.450, 133 87 M 106.674 88.861 C 106.983 90.043, 106.803 91.571, 106.273 92.255 C 104.427 94.643, 104.007 96.934, 105.524 96.353 C 107.356 95.649, 108.603 89.203, 107.181 87.781 C 106.422 87.022, 106.275 87.335, 106.674 88.861 M 155.625 90.125 C 154.791 94.293, 155.599 95.101, 156.500 91 C 156.880 89.271, 156.982 87.649, 156.727 87.394 C 156.472 87.139, 155.976 88.368, 155.625 90.125 M 131 90 L 128.500 90.801 131.191 90.900 C 132.671 90.955, 134.160 90.550, 134.500 90 C 135.203 88.863, 134.549 88.863, 131 90 M 24 94.500 C 24 95.325, 24.730 96, 25.622 96 C 26.951 96, 27.020 95.729, 26 94.500 C 25.315 93.675, 24.585 93, 24.378 93 C 24.170 93, 24 93.675, 24 94.500 M 157.079 95.583 C 157.127 96.748, 157.364 96.985, 157.683 96.188 C 157.972 95.466, 157.936 94.603, 157.604 94.271 C 157.272 93.939, 157.036 94.529, 157.079 95.583 M 154.345 96.543 C 154.019 97.392, 153.976 98.310, 154.249 98.583 C 154.523 98.856, 154.986 98.161, 155.279 97.040 C 155.903 94.657, 155.210 94.289, 154.345 96.543 M 32 97 C 32 97.550, 32.675 98, 33.500 98 C 34.325 98, 35 97.550, 35 97 C 35 96.450, 34.325 96, 33.500 96 C 32.675 96, 32 96.450, 32 97 M 101 97.500 C 101 99.317, 99.382 99.487, 98.612 97.750 C 98.240 96.911, 98.088 96.993, 98.148 98 C 98.324 100.953, 97.986 102.109, 97.107 101.566 C 96.615 101.262, 95.885 102.248, 95.483 103.757 C 95.082 105.266, 94.546 105.938, 94.293 105.250 C 94.040 104.563, 93.417 104, 92.908 104 C 92.399 104, 92.518 104.856, 93.171 105.902 C 94.283 107.683, 94.528 107.571, 97.013 104.152 C 98.472 102.144, 100.417 99.882, 101.333 99.128 C 103.191 97.598, 103.531 96, 102 96 C 101.450 96, 101 96.675, 101 97.500 M 153.158 102 C 153.158 103.375, 153.385 103.938, 153.662 103.250 C 153.940 102.563, 153.940 101.438, 153.662 100.750 C 153.385 100.063, 153.158 100.625, 153.158 102 M 159.195 103.500 C 159.215 105.150, 159.439 105.704, 159.693 104.731 C 159.947 103.758, 159.930 102.408, 159.656 101.731 C 159.382 101.054, 159.175 101.850, 159.195 103.500 M 154.605 104.586 C 154.271 105.458, 154.373 106.843, 154.832 107.664 C 155.421 108.716, 155.667 108.249, 155.667 106.078 C 155.667 102.593, 155.474 102.322, 154.605 104.586 M 91 108.941 C 91 109.459, 91.450 110.160, 92 110.500 C 92.550 110.840, 93 110.416, 93 109.559 C 93 108.702, 92.550 108, 92 108 C 91.450 108, 91 108.423, 91 108.941 M 157.233 109.999 C 156.577 111.049, 156.431 112.148, 156.907 112.442 C 157.383 112.737, 158.031 111.990, 158.347 110.782 C 159.098 107.911, 158.708 107.637, 157.233 109.999 M 88 110.059 C 88 110.641, 88.450 110.840, 89 110.500 C 89.550 110.160, 90 109.684, 90 109.441 C 90 109.198, 89.550 109, 89 109 C 88.450 109, 88 109.477, 88 110.059 M 89.378 112.198 C 88.954 112.884, 89.148 113.027, 89.886 112.571 C 90.768 112.025, 90.874 112.573, 90.290 114.666 C 89.856 116.225, 89.514 121.559, 89.532 126.519 C 89.566 135.914, 91.802 142.883, 95.066 143.765 C 96.006 144.019, 96.120 143.868, 95.398 143.326 C 94.792 142.872, 93.456 140.714, 92.430 138.531 C 90.211 133.811, 89.763 117.869, 91.749 114.350 C 92.740 112.595, 92.697 112.098, 91.514 111.644 C 90.716 111.338, 89.755 111.587, 89.378 112.198 M 34 113 C 34 113.550, 34.450 114, 35 114 C 35.550 114, 36 113.550, 36 113 C 36 112.450, 35.550 112, 35 112 C 34.450 112, 34 112.450, 34 113 M 127.122 115.016 C 131.679 117.114, 134.619 120.905, 134.089 124 C 133.897 125.126, 134.124 125.217, 135.002 124.365 C 135.891 123.501, 135.787 122.489, 134.564 120.124 C 132.713 116.545, 129.774 114.401, 125.500 113.511 C 123.286 113.050, 123.712 113.445, 127.122 115.016 M 117.750 116.324 C 116.237 117.562, 115 119.121, 115 119.788 C 115 120.454, 114.491 121, 113.870 121 C 113.117 121, 112.915 122.550, 113.264 125.648 C 114.261 134.493, 123.259 139.475, 130.338 135.100 C 132.243 133.923, 134.091 132.206, 134.444 131.286 C 135.038 129.736, 134.947 129.738, 133.214 131.306 C 131.161 133.164, 129.522 133.583, 130.500 132 C 130.840 131.450, 130.673 131, 130.129 131 C 129.584 131, 128.995 132.012, 128.820 133.250 C 128.576 134.962, 127.782 135.543, 125.500 135.679 C 123.850 135.778, 123.287 135.632, 124.250 135.356 C 125.213 135.080, 126 134.436, 126 133.927 C 126 132.699, 125.360 132.758, 123.051 134.200 C 121.428 135.214, 120.743 135.016, 118.662 132.935 C 116.659 130.932, 116.188 129.445, 116.153 125.020 C 116.108 119.099, 117.250 116.775, 119.737 117.729 C 120.856 118.159, 121.093 117.960, 120.536 117.058 C 120.069 116.302, 120.309 115.418, 121.122 114.904 C 121.880 114.423, 122.050 114.040, 121.500 114.051 C 120.950 114.063, 119.263 115.085, 117.750 116.324 M 158.500 126.472 C 158.500 132.228, 158.806 136.164, 159.180 135.219 C 160.116 132.852, 160.177 115.999, 159.250 116.003 C 158.838 116.005, 158.500 120.716, 158.500 126.472 M 122.813 118.683 C 123.534 118.972, 124.397 118.936, 124.729 118.604 C 125.061 118.272, 124.471 118.036, 123.417 118.079 C 122.252 118.127, 122.015 118.364, 122.813 118.683 M 117.345 120.543 C 117.019 121.392, 116.976 122.310, 117.249 122.583 C 117.523 122.856, 117.986 122.161, 118.279 121.040 C 118.903 118.657, 118.210 118.289, 117.345 120.543 M 32 124 L 32 128 36 128 C 38.200 128, 40 127.550, 40 127 C 40 126.450, 39.550 126, 39 126 C 38.450 126, 38 125.100, 38 124 C 38 122.667, 37.333 122, 36 122 C 34.900 122, 34 121.550, 34 121 C 34 120.450, 33.550 120, 33 120 C 32.450 120, 32 121.800, 32 124 M 42 121 C 42 121.550, 42.450 122, 43 122 C 43.550 122, 44 121.550, 44 121 C 44 120.450, 43.550 120, 43 120 C 42.450 120, 42 120.450, 42 121 M 114.232 125 C 114.232 126.925, 114.438 127.713, 114.689 126.750 C 114.941 125.787, 114.941 124.213, 114.689 123.250 C 114.438 122.287, 114.232 123.075, 114.232 125 M 120.079 127.583 C 120.127 128.748, 120.364 128.985, 120.683 128.188 C 120.972 127.466, 120.936 126.603, 120.604 126.271 C 120.272 125.939, 120.036 126.529, 120.079 127.583 M 127.510 129.016 C 127.856 129.575, 128.557 129.774, 129.069 129.457 C 130.456 128.600, 130.198 128, 128.441 128 C 127.584 128, 127.165 128.457, 127.510 129.016 M 123 130 C 123 130.550, 123.450 131, 124 131 C 124.550 131, 125 130.550, 125 130 C 125 129.450, 124.550 129, 124 129 C 123.450 129, 123 129.450, 123 130 M 120 132.059 C 120 132.641, 120.450 132.840, 121 132.500 C 121.550 132.160, 122 131.684, 122 131.441 C 122 131.198, 121.550 131, 121 131 C 120.450 131, 120 131.477, 120 132.059 M 9.750 136.706 C 10.988 136.944, 13.012 136.944, 14.250 136.706 C 15.488 136.467, 14.475 136.272, 12 136.272 C 9.525 136.272, 8.512 136.467, 9.750 136.706 M 32 139.492 C 32 143.443, 35.310 148, 38.180 148 C 39.593 148, 40 148.782, 40 151.500 C 40 154.917, 40.095 155, 44 155 C 47.600 155, 48 155.250, 48 157.500 C 48 159.750, 48.400 160, 52 160 C 55.932 160, 56 160.061, 56 163.632 C 56 166.586, 56.814 168.078, 60.368 171.632 C 62.771 174.034, 65.648 176, 66.761 176 C 67.875 176, 69.057 176.707, 69.389 177.570 C 70.062 179.326, 74.121 179.177, 74.713 177.375 C 75.213 175.855, 67.560 168, 65.578 168 C 64.710 168, 64 167.550, 64 167 C 64 166.450, 63.293 166, 62.429 166 C 60.212 166, 58 163.522, 58 161.038 C 58 158.609, 51.809 152, 49.533 152 C 48.411 152, 48 150.928, 48 148 C 48 144.368, 47.763 144, 45.422 144 C 43.721 144, 41.535 142.639, 39 140 C 34.125 134.926, 32 134.772, 32 139.492 M 157.211 140.399 C 157.920 141.169, 158.658 141.649, 158.850 141.466 C 159.443 140.902, 157.940 139, 156.902 139 C 156.362 139, 156.501 139.630, 157.211 140.399 M 89 140.878 C 89 141.360, 89.749 142.373, 90.664 143.128 C 92.172 144.372, 92.216 144.290, 91.129 142.250 C 89.889 139.923, 89 139.350, 89 140.878 M 72 142.500 C 72 143.325, 72.730 144, 73.622 144 C 74.951 144, 75.020 143.729, 74 142.500 C 73.315 141.675, 72.585 141, 72.378 141 C 72.170 141, 72 141.675, 72 142.500 M 22 148 C 22 150.200, 22.450 152, 23 152 C 23.550 152, 24 150.200, 24 148 C 24 145.800, 23.550 144, 23 144 C 22.450 144, 22 145.800, 22 148 M 95.183 146.217 C 94.532 146.868, 94 148.120, 94 149 C 94 149.880, 93.620 151.028, 93.155 151.550 C 92.683 152.080, 92.937 153.605, 93.730 155 L 95.150 157.500 94.713 154.750 C 94.474 153.238, 94.609 152, 95.014 152 C 95.760 152, 97.286 145.953, 96.690 145.357 C 96.512 145.179, 95.834 145.566, 95.183 146.217 M 149.250 149.456 C 144.773 153.996, 143.269 156.975, 147.426 153.070 C 148.858 151.724, 150.355 151.102, 151.080 151.550 C 151.919 152.068, 152.053 151.894, 151.502 151.003 C 150.997 150.186, 151.353 149.215, 152.452 148.412 C 153.418 147.705, 154.049 146.681, 153.854 146.137 C 153.660 145.592, 151.588 147.086, 149.250 149.456 M 156 145.941 C 156 146.459, 156.445 147.157, 156.989 147.493 C 157.555 147.843, 157.723 147.442, 157.382 146.552 C 156.717 144.820, 156 144.503, 156 145.941 M 82 148.571 C 82 149.318, 84.688 152, 85.437 152 C 85.756 152, 85.455 151.100, 84.768 150 C 83.596 148.123, 82 147.299, 82 148.571 M 80 150.500 C 80 151.325, 80.730 152, 81.622 152 C 82.951 152, 83.020 151.729, 82 150.500 C 81.315 149.675, 80.585 149, 80.378 149 C 80.170 149, 80 149.675, 80 150.500 M 153.500 150 C 153.840 150.550, 154.541 151, 155.059 151 C 155.577 151, 156 150.550, 156 150 C 156 149.450, 155.298 149, 154.441 149 C 153.584 149, 153.160 149.450, 153.500 150 M 31.624 151.539 C 31.281 152.432, 31.060 154.814, 31.134 156.832 C 31.253 160.109, 31.344 159.967, 31.989 155.500 C 32.756 150.178, 32.638 148.895, 31.624 151.539 M 5.229 153.188 C 5.847 155.042, 8 155.349, 8 153.583 C 8 152.713, 7.287 152, 6.417 152 C 5.546 152, 5.011 152.534, 5.229 153.188 M 149 154.500 C 148.306 155.337, 148.197 156, 148.755 156 C 149.305 156, 150.315 155.325, 151 154.500 C 151.694 153.663, 151.803 153, 151.245 153 C 150.695 153, 149.685 153.675, 149 154.500 M 141.975 156.565 C 140.737 159.822, 140.748 160.937, 142 159 C 142.646 158, 142.974 157.917, 142.985 158.750 C 142.993 159.438, 143.466 160, 144.035 160 C 144.697 160, 144.746 159.369, 144.170 158.250 C 143.675 157.287, 143.472 155.938, 143.718 155.250 C 144.600 152.793, 142.931 154.051, 141.975 156.565 M 88 156.500 C 88 157.325, 88.450 158, 89 158 C 89.550 158, 90 157.325, 90 156.500 C 90 155.675, 89.550 155, 89 155 C 88.450 155, 88 155.675, 88 156.500 M 147.177 158.606 C 148.050 159.478, 149.538 160.036, 150.485 159.846 C 151.670 159.608, 151.176 159.114, 148.899 158.260 C 145.878 157.127, 145.728 157.157, 147.177 158.606 M 115 159.929 C 115 160.837, 114.322 164.184, 113.493 167.366 C 112.394 171.586, 112.276 173.605, 113.056 174.826 C 113.909 176.161, 114.004 175.925, 113.523 173.666 C 113.132 171.827, 113.285 171.058, 113.960 171.475 C 114.532 171.829, 115.032 173.104, 115.070 174.309 C 115.138 176.421, 115.171 176.428, 116 174.500 C 116.473 173.400, 116.943 172.950, 117.045 173.500 C 117.147 174.050, 117.565 172.925, 117.974 171 C 118.383 169.075, 119.043 166.150, 119.440 164.500 C 119.983 162.244, 119.897 161.872, 119.096 163 C 118.208 164.251, 118.028 164.140, 118.015 162.333 C 118.007 161.142, 118.563 159.979, 119.250 159.749 C 119.938 159.519, 119.263 159.094, 117.750 158.804 C 115.648 158.401, 115 158.666, 115 159.929 M 90.158 161 C 90.158 162.375, 90.385 162.938, 90.662 162.250 C 90.940 161.563, 90.940 160.438, 90.662 159.750 C 90.385 159.063, 90.158 159.625, 90.158 161 M 13.229 161.188 C 13.847 163.042, 16 163.349, 16 161.583 C 16 160.713, 15.287 160, 14.417 160 C 13.546 160, 13.011 160.534, 13.229 161.188 M 39.272 164 C 39.272 166.475, 39.467 167.488, 39.706 166.250 C 39.944 165.012, 39.944 162.988, 39.706 161.750 C 39.467 160.512, 39.272 161.525, 39.272 164 M 115.686 162.848 C 114.915 166.673, 116.382 170.753, 117.493 167.872 C 117.838 166.977, 117.725 164.727, 117.241 162.872 L 116.361 159.500 115.686 162.848 M 140.640 162.750 C 139.732 165.965, 138.996 173.524, 139.763 171.759 C 140.397 170.301, 140.750 170.539, 141.939 173.223 C 143.877 177.602, 144.484 175.095, 142.586 170.551 C 141.707 168.447, 141.316 165.669, 141.658 163.958 C 142.290 160.798, 141.467 159.822, 140.640 162.750 M 142.336 165.567 C 142.005 166.429, 142.132 167.532, 142.617 168.017 C 143.128 168.528, 143.500 167.866, 143.500 166.450 C 143.500 163.611, 143.180 163.368, 142.336 165.567 M 21.229 169.188 C 21.847 171.042, 24 171.349, 24 169.583 C 24 168.713, 23.288 168, 22.417 168 C 21.546 168, 21.011 168.534, 21.229 169.188 M 47.272 172 C 47.272 174.475, 47.467 175.488, 47.706 174.250 C 47.944 173.012, 47.944 170.988, 47.706 169.750 C 47.467 168.512, 47.272 169.525, 47.272 172 M 114 169.322 C 114 170.127, 114.675 171.045, 115.500 171.362 C 116.325 171.678, 117 171.694, 117 171.397 C 117 171.100, 116.325 170.182, 115.500 169.357 C 114.199 168.056, 114 168.051, 114 169.322 M 80 173 C 80 174.650, 80.450 176, 81 176 C 81.550 176, 82 174.650, 82 173 C 82 171.350, 81.550 170, 81 170 C 80.450 170, 80 171.350, 80 173 M 86 173 C 86 174.650, 85.550 176, 85 176 C 84.450 176, 84 176.863, 84 177.917 C 84 178.971, 83.438 180.035, 82.750 180.282 C 81.902 180.586, 82.224 181.375, 83.750 182.733 C 84.987 183.834, 86 185.862, 86 187.239 C 86 189.400, 86.565 189.835, 90.117 190.403 C 93.170 190.891, 94.528 190.679, 95.367 189.582 C 95.990 188.768, 98.300 187.930, 100.500 187.719 C 103.753 187.408, 103.441 187.305, 98.833 187.168 C 95.717 187.076, 92.978 187.338, 92.747 187.750 C 92.517 188.162, 92.471 187.920, 92.647 187.212 C 92.823 186.504, 92.299 185.668, 91.483 185.355 C 90.667 185.042, 89.964 184.047, 89.921 183.143 C 89.871 182.105, 89.656 181.961, 89.338 182.750 C 88.672 184.400, 87.189 184.332, 85.429 182.571 C 83.332 180.475, 83.678 179.705, 86.476 180.240 C 88.742 180.673, 88.917 180.451, 88.543 177.607 C 88.319 175.898, 88.105 173.488, 88.067 172.250 C 87.965 168.842, 86 169.555, 86 173 M 118.250 174.824 C 117.277 175.442, 117.349 176.048, 118.574 177.559 C 120.116 179.460, 120.139 179.455, 119.693 177.348 C 119.249 175.244, 119.462 175.202, 129.238 175.480 C 135.154 175.649, 138.679 175.411, 137.869 174.898 C 136.154 173.811, 119.941 173.751, 118.250 174.824 M 55.272 180 C 55.272 182.475, 55.467 183.488, 55.706 182.250 C 55.944 181.012, 55.944 178.988, 55.706 177.750 C 55.467 176.512, 55.272 177.525, 55.272 180 M 37.229 185.188 C 37.847 187.042, 40 187.349, 40 185.583 C 40 184.713, 39.288 184, 38.417 184 C 37.546 184, 37.011 184.534, 37.229 185.188 M 60 184.800 C 60 185.835, 62.165 188, 63.200 188 C 63.640 188, 64 187.100, 64 186 C 64 184.667, 63.333 184, 62 184 C 60.900 184, 60 184.360, 60 184.800 M 88 187.031 C 88 187.564, 88.675 188, 89.500 188 C 90.325 188, 91 187.823, 91 187.607 C 91 187.391, 90.325 186.955, 89.500 186.638 C 88.675 186.322, 88 186.499, 88 187.031 M 99.290 190.440 C 103.107 191.801, 107 191.520, 107 189.883 C 107 189.398, 104.412 189.020, 101.250 189.044 L 95.500 189.088 99.290 190.440 M 45.229 193.188 C 45.847 195.042, 48 195.349, 48 193.583 C 48 192.713, 47.288 192, 46.417 192 C 45.546 192, 45.011 192.534, 45.229 193.188 M 65.750 192.706 C 66.987 192.944, 69.013 192.944, 70.250 192.706 C 71.487 192.467, 70.475 192.272, 68 192.272 C 65.525 192.272, 64.513 192.467, 65.750 192.706 M 116 196.571 C 116 197.314, 118.686 200, 119.429 200 C 119.743 200, 120 199.100, 120 198 C 120 196.667, 119.333 196, 118 196 C 116.900 196, 116 196.257, 116 196.571 M 76 200.800 C 76 201.835, 78.165 204, 79.200 204 C 79.640 204, 80 203.100, 80 202 C 80 200.667, 79.333 200, 78 200 C 76.900 200, 76 200.360, 76 200.800 M 61.229 209.188 C 61.847 211.042, 64 211.349, 64 209.583 C 64 208.713, 63.288 208, 62.417 208 C 61.546 208, 61.011 208.534, 61.229 209.188 M 84 208.800 C 84 209.835, 86.165 212, 87.200 212 C 87.640 212, 88 211.100, 88 210 C 88 208.667, 87.333 208, 86 208 C 84.900 208, 84 208.360, 84 208.800 M 144 209 C 144 209.550, 144.675 210, 145.500 210 C 146.325 210, 147 209.550, 147 209 C 147 208.450, 146.325 208, 145.500 208 C 144.675 208, 144 208.450, 144 209 M 69.229 217.188 C 69.847 219.042, 72 219.349, 72 217.583 C 72 216.713, 71.287 216, 70.417 216 C 69.546 216, 69.011 216.534, 69.229 217.188 M 95.272 220 C 95.272 222.475, 95.467 223.488, 95.706 222.250 C 95.944 221.012, 95.944 218.988, 95.706 217.750 C 95.467 216.512, 95.272 217.525, 95.272 220 M 152 222.500 C 152 223.325, 152.730 224, 153.622 224 C 154.951 224, 155.020 223.729, 154 222.500 C 153.315 221.675, 152.585 221, 152.378 221 C 152.170 221, 152 221.675, 152 222.500 M 168 223 C 168 223.550, 168.477 224, 169.059 224 C 169.641 224, 169.840 223.550, 169.500 223 C 169.160 222.450, 168.684 222, 168.441 222 C 168.198 222, 168 222.450, 168 223 M 77.229 225.188 C 77.847 227.042, 80 227.349, 80 225.583 C 80 224.713, 79.287 224, 78.417 224 C 77.546 224, 77.011 224.534, 77.229 225.188 M 103.272 228 C 103.272 230.475, 103.467 231.488, 103.706 230.250 C 103.944 229.012, 103.944 226.988, 103.706 225.750 C 103.467 224.512, 103.272 225.525, 103.272 228 M 160 230.500 C 160 231.325, 160.730 232, 161.622 232 C 162.951 232, 163.020 231.729, 162 230.500 C 161.315 229.675, 160.585 229, 160.378 229 C 160.170 229, 160 229.675, 160 230.500 M 173 230.500 C 173 231.325, 173.482 232, 174.071 232 C 174.661 232, 175.878 232.735, 176.777 233.634 C 179.096 235.953, 179.719 233.452, 177.448 230.942 C 175.357 228.632, 173 228.398, 173 230.500 M 111.272 236 C 111.272 238.475, 111.467 239.488, 111.706 238.250 C 111.944 237.012, 111.944 234.988, 111.706 233.750 C 111.467 232.512, 111.272 233.525, 111.272 236 M 168 238.500 C 168 239.325, 168.730 240, 169.622 240 C 170.951 240, 171.020 239.729, 170 238.500 C 169.315 237.675, 168.585 237, 168.378 237 C 168.170 237, 168 237.675, 168 238.500 M 181.638 238.500 C 181.955 239.325, 183.121 240, 184.229 240 C 185.908 240, 186.037 239.749, 185 238.500 C 184.315 237.675, 183.149 237, 182.409 237 C 181.623 237, 181.302 237.624, 181.638 238.500 M 93.229 241.188 C 93.847 243.042, 96 243.349, 96 241.583 C 96 240.713, 95.287 240, 94.417 240 C 93.546 240, 93.011 240.534, 93.229 241.188 M 119.272 244 C 119.272 246.475, 119.467 247.488, 119.706 246.250 C 119.944 245.012, 119.944 242.988, 119.706 241.750 C 119.467 240.512, 119.272 241.525, 119.272 244 M 176 246.500 C 176 247.325, 176.730 248, 177.622 248 C 178.951 248, 179.020 247.729, 178 246.500 C 177.315 245.675, 176.585 245, 176.378 245 C 176.170 245, 176 245.675, 176 246.500 M 192 247 C 192 247.550, 192.477 248, 193.059 248 C 193.641 248, 193.840 247.550, 193.500 247 C 193.160 246.450, 192.684 246, 192.441 246 C 192.198 246, 192 246.450, 192 247" stroke="none" fill="#000000" fill-rule="evenodd"/></svg>