<!-- Generated by IcoMoon.io -->
<svg version="1.1" xmlns="http://www.w3.org/2000/svg" width="32" height="32" viewBox="0 0 32 32" fill="#000000">
<title>for</title>
<path d="M13.768 4.682c-4.056 0.855-7.273 3.755-8.569 7.725-0.707 2.164-0.707 4.943 0 7.107 1.152 3.528 3.935 6.326 7.371 7.412 1.16 0.367 2.006 0.486 3.431 0.486 2.397-0 4.187-0.532 6.17-1.834 2.499-1.64 4.184-4.106 4.924-7.204 0.052-0.219 0.037-0.229-0.557-0.363-0.697-0.157-0.677-0.17-0.832 0.525-0.059 0.262-0.25 0.834-0.426 1.269-1.201 2.985-3.729 5.199-6.896 6.040-1.003 0.266-2.693 0.359-3.746 0.205-4.997-0.731-8.68-5.012-8.68-10.090 0-4.942 3.546-9.211 8.334-10.033 2.121-0.364 4.473 0.003 6.32 0.988l0.654 0.349-0.049 0.689c-0.042 0.593-0.022 0.751 0.142 1.133 0.214 0.497 0.779 1.069 1.262 1.277 0.406 0.175 1.326 0.176 1.73 0.002 0.422-0.182 0.983-0.704 1.206-1.123 0.263-0.495 0.264-1.645 0.001-2.133-0.583-1.085-1.88-1.54-3.005-1.057-0.443 0.19-0.458 0.191-0.716 0.040-1.167-0.682-2.389-1.157-3.619-1.408-1.134-0.231-3.362-0.233-4.451-0.003zM24.092 7.474c0.204 0.182 0.275 0.329 0.31 0.636 0.042 0.37 0.023 0.421-0.255 0.699-0.248 0.248-0.362 0.3-0.658 0.3s-0.409-0.052-0.658-0.3c-0.278-0.278-0.297-0.329-0.255-0.699 0.060-0.529 0.419-0.873 0.913-0.873 0.249 0 0.407 0.062 0.603 0.237zM14.809 9.916c-2.421 0.545-4.234 2.337-4.744 4.688l-0.137 0.632h-3.119v1.447l6.766 0.001 0.153 0.372c0.23 0.558 0.683 1.032 1.266 1.324 1.328 0.664 2.969 0.049 3.534-1.324l0.153-0.372 1.681-0.001-0.058 0.362c-0.151 0.943-1.086 2.282-2.008 2.873-1.655 1.062-3.875 0.93-5.389-0.321-0.481-0.397-1.078-1.164-1.078-1.384 0-0.085 0.163-0.291 0.362-0.458l0.362-0.303-1.298-0.002c-0.789-0.001-1.298 0.031-1.298 0.081 0 0.155 0.426 1.217 0.612 1.526 0.839 1.392 2.053 2.334 3.646 2.827 0.753 0.233 2.211 0.275 2.976 0.085 0.587-0.146 1.568-0.59 2.079-0.942 1.235-0.85 2.199-2.328 2.513-3.855l0.101-0.489h10.116v-1.447h-13.342l-0.231-0.473c-0.584-1.194-2.118-1.722-3.381-1.164-0.494 0.218-1.057 0.778-1.271 1.262l-0.166 0.374h-2.187l0.079-0.362c0.235-1.075 1.066-2.235 2.067-2.887 1.437-0.935 3.426-0.936 4.863-0 0.711 0.463 1.568 1.429 1.568 1.768 0 0.033-0.16 0.207-0.355 0.387l-0.355 0.327h1.291c0.71 0 1.291-0.034 1.291-0.076 0-0.142-0.485-1.269-0.724-1.683-0.131-0.226-0.567-0.737-0.97-1.136-0.799-0.792-1.488-1.209-2.519-1.527-0.782-0.241-2.098-0.302-2.851-0.132zM0 15.96v0.723h3.915v-1.447h-3.915v0.723z"/>
</svg>
