<svg xmlns="http://www.w3.org/2000/svg" width="64" height="64" fill="#000000"><path fill="#262626" d="M32 64c17.673 0 32-14.327 32-32C64 14.327 49.673 0 32 0 14.327 0 0 14.327 0 32c0 17.673 14.327 32 32 32Z"/><path fill="#ffffff" d="M29.253 18.827c.606-2.622 1.183-5.175 1.8-7.718.096-.393.385-.74.586-1.109.207.347.482.673.61 1.047.478 1.388 1.02 2.77 1.33 4.198.63 2.922 2.392 5.213 4.03 7.578.143.207.539.362.8.345 2.176-.16 3.69 1.217 5.333 2.271.19.122.29.567.25.835-.708 4.65-1.439 9.294-2.181 13.939-.053.329-.191.667-.371.95a2629.407 2629.407 0 0 1-7.807 12.238c-.156.243-.442.401-.669.599-.173-.221-.4-.42-.514-.67-1.497-3.249-2.85-6.57-4.855-9.56a5.535 5.535 0 0 0-1.05-1.18c-1.177-.971-2.417-1.864-3.573-2.856-.367-.316-.694-.819-.793-1.287a455.733 455.733 0 0 1-2.163-10.77c-.078-.417.148-.907.285-1.348.556-1.805 1.785-2.749 3.679-2.794 1.266-.03 1.974-.653 2.264-1.888.15-.642.548-1.221.732-1.859.229-.783.685-1.085 1.474-.968.234.037.479.007.803.007Zm5.937 26.955c1.634-3.813 3.212-7.49 4.781-11.17a.928.928 0 0 0 .085-.465c-.255-1.822-.525-3.64-.8-5.532l-10.32.554c1 4.32 1.977 8.557 2.963 12.789.047.199.156.404.293.555.964 1.071 1.945 2.126 2.998 3.269Zm3.244-21.738c.098.164.163.276.231.386.562.892.519 1.006-.527 1.236-3.237.711-6.46 1.457-9.828 1.225-.916-.063-1.687-.212-2.433-.776-.686-.52-1.36-.936-.671-1.915-2.462-.079-3.541.615-4.232 2.716 1.574.314 3.14.635 4.71.933 1.074.204 2.158.552 3.23.532 2.86-.057 5.715-.268 8.572-.436.715-.041 1.5.02 2.125-.256 1.133-.5 2.17-1.216 3.325-1.887-1.456-.817-2.611-2.085-4.502-1.758Zm-17.01 3.747-.122.172 9.34 12.624c.044-.254.07-.31.059-.357-.821-3.564-1.64-7.128-2.484-10.687-.042-.177-.273-.401-.453-.44-2.108-.456-4.226-.88-6.34-1.312ZM31.75 11.984c-.106.153-.174.21-.19.28-.496 2.127-1.007 4.252-1.463 6.388-.07.322.069.719.197 1.048.358.913.802 1.795 1.134 2.718.375 1.037.664 2.106 1.029 3.288.801-.928 1.524-1.712 2.175-2.551.188-.242.296-.68.219-.97-.445-1.7-.937-3.389-1.451-5.07-.52-1.692-1.083-3.37-1.65-5.13Zm-5.493 24.022c-.973 1.063-1.896 2.075-2.843 3.108 1.247.988 2.602 2.065 3.967 3.13.134.104.343.18.508.166.95-.072 1.898-.173 2.993-.279l-4.625-6.125Zm6.593 16.37.192-.018c.573-1.82 1.152-3.637 1.71-5.46.046-.147.022-.387-.072-.493-.931-1.049-1.884-2.08-2.91-3.202-.45 1.274-.859 2.417-1.246 3.566a.787.787 0 0 0 .026.525c.756 1.699 1.53 3.39 2.3 5.081Zm8.5-14.862c.048.001.096.005.146.006l1.69-10.949c-1.062.613-1.915 1.063-2.714 1.593-.22.146-.428.549-.393.8.395 2.854.84 5.7 1.27 8.55Zm-15.627-2.229-4.53-6.21-.13.062L22.9 38.34l2.823-3.056Zm.143-10.122c.543.347.988.858 1.472.896 1.427.114 2.866.04 4.417.04-.449-1.464-.861-2.817-1.303-4.259-1.567 1.137-3.032 2.198-4.586 3.323ZM36.6 44.437l.15.091c1.353-1.318 2.71-2.633 4.055-3.959.1-.098.183-.287.164-.419-.193-1.374-.408-2.745-.617-4.116l-.153-.002c-1.198 2.8-2.398 5.603-3.599 8.405ZM29.98 21.21l-2.157-1.44-1.62 3.997.147.082c1.18-.857 2.36-1.715 3.63-2.64Zm4.609 29.273c1.433-2.25 2.873-4.511 4.381-6.882-2.424 1.791-4.16 3.866-4.381 6.882Zm-6.445-7.311c.608 1.016 1.14 1.906 1.766 2.956L31.06 42.9l-2.915.273Zm9.592-18.222-2.23-1.581-1.95 2.259c.045.058.091.115.136.175 1.289-.271 2.58-.543 4.044-.853Zm-2.352-3.994c.17 1.185.442 2.004 1.59 2.35l-1.59-2.35Z"/></svg>