<!-- Generated by IcoMoon.io -->
<svg version="1.1" xmlns="http://www.w3.org/2000/svg" width="32" height="32" viewBox="0 0 32 32" fill="#000000">
<title>forth</title>
<path d="M3.077 0.149c-0.354 0.225 0.057 0.451 1.41 0.776 2.958 0.71 2.804-0.063 2.869 14.467 0.067 15.303 0.174 14.74-2.979 15.705-2.494 0.763-2.125 0.817 5.564 0.817 7.639 0 8.282-0.085 5.681-0.75-3.454-0.883-3.275-0.064-3.275-15.076 0-15.741-0.569-14.23 5.397-14.319 7.087-0.105 8.208 0.376 9.882 4.244 1.259 2.907 1.538 2.291 1.069-2.36-0.245-2.428-0.346-2.93-0.654-3.261l-0.364-0.391-12.187 0.003c-6.703 0.002-12.289 0.067-12.413 0.146z"/>
</svg>
