<svg xmlns="http://www.w3.org/2000/svg" width="20" height="20" fill="#000000"><circle cx="10" cy="10" r="10" fill="#6e6e6e"/><path fill="#ffffff" fill-rule="evenodd" d="m14.28 5.609-.484 2.905-1.724-2.027 2.208-.878Zm-.484 4.142.43 1.596-3.303.914 2.873-2.51Zm-7.182-.79L8.392 6.65h3.07l1.957 2.313H6.614Zm6.59.557-3.197 2.797L6.74 9.518h6.463Zm-5.405-3.03L6.22 8.548l-.484-2.94 2.064.878Zm1.257 5.773-3.34-.914.45-1.56 2.89 2.474Zm.61.753-.628.681a11.55 11.55 0 0 0-1.741-1.344l2.37.663Zm3.053-.663a11.55 11.55 0 0 0-1.742 1.344l-.646-.699 2.388-.645Zm2.28-7.657-3.466 1.381H8.303l-3.303-1.38.754 4.536-.719 2.456 1.886 1.13a10.056 10.056 0 0 1 2.37 1.972l.736.843.771-.879a10.695 10.695 0 0 1 2.28-1.936l1.832-1.148-.665-2.438L15 4.694Z" clip-rule="evenodd"/></svg>