<svg xmlns="http://www.w3.org/2000/svg" width="64" height="64" version="1.1" fill="#000000"><path fill-opacity=".306" d="M 22.005 1.668 C 2.799 8.388, -5.460 29.518, 4.209 47.196 C 17.468 71.435, 53.307 68.526, 62.063 42.500 C 62.803 40.300, 63.766 38.072, 64.204 37.550 C 65.170 36.397, 65.283 24.383, 64.319 25.347 C 63.945 25.722, 62.991 24.112, 62.199 21.769 C 56.644 5.335, 38.071 -3.953, 22.005 1.668 M 30.264 6.718 C 31.784 6.947, 34.034 6.941, 35.264 6.704 C 36.494 6.467, 35.250 6.279, 32.500 6.286 C 29.750 6.294, 28.744 6.488, 30.264 6.718 M 24.813 7.683 C 25.534 7.972, 26.397 7.936, 26.729 7.604 C 27.061 7.272, 26.471 7.036, 25.417 7.079 C 24.252 7.127, 24.015 7.364, 24.813 7.683 M 42 9.077 C 44.475 10.195, 48.299 12.772, 50.499 14.805 L 54.497 18.500 50.999 14.662 C 47.554 10.884, 41.314 6.979, 38.790 7.022 C 38.080 7.034, 39.525 7.959, 42 9.077 M 16.849 11.285 C 14.481 13.091, 11.183 16.768, 9.521 19.456 C 6.848 23.781, 6.502 25.215, 6.520 31.922 C 6.548 42.659, 11.110 50.293, 20.500 55.314 C 26.154 58.338, 37.844 58.331, 43.568 55.299 C 48.170 52.862, 54.600 46.183, 56.073 42.309 C 57.685 38.069, 56.461 38.652, 54.466 43.075 C 50.536 51.791, 38.912 57.964, 29.177 56.504 C 6.064 53.038, -0.744 23.306, 18.745 10.947 C 21.301 9.326, 22.888 8, 22.274 8 C 21.659 8, 19.218 9.478, 16.849 11.285 M 29 27.933 C 29 39.968, 29.138 40.909, 30.991 41.497 C 32.086 41.845, 33.436 41.848, 33.991 41.506 C 34.586 41.138, 35 35.566, 35 27.941 L 35 15 32 15 L 29 15 29 27.933 M 54.564 20.293 C 54.940 21.279, 55.499 21.834, 55.807 21.526 C 56.115 21.219, 55.808 20.412, 55.124 19.733 C 54.136 18.753, 54.022 18.868, 54.564 20.293 M 30.667 24.667 C 29.755 25.578, 29.821 29.004, 30.750 28.985 C 32.603 28.947, 34.236 27.059, 33.677 25.601 C 33.033 23.923, 31.795 23.539, 30.667 24.667 M 0.320 32 C 0.320 35.575, 0.502 37.038, 0.723 35.250 C 0.945 33.462, 0.945 30.538, 0.723 28.750 C 0.502 26.962, 0.320 28.425, 0.320 32 M 57.320 32 C 57.320 35.575, 57.502 37.038, 57.723 35.250 C 57.945 33.462, 57.945 30.538, 57.723 28.750 C 57.502 26.962, 57.320 28.425, 57.320 32" stroke="none" fill="#000000" fill-rule="evenodd"/><path fill-opacity=".164" d="M 23.951 1.303 C 14.895 3.863, 6.679 11.040, 2.687 19.878 C -0.216 26.304, -0.205 37.720, 2.710 44.176 C 5.683 50.759, 12.247 57.484, 18.853 60.716 C 26.180 64.301, 36.966 64.546, 44.176 61.290 C 53.171 57.227, 63 45.257, 63 38.363 C 63 37.128, 63.450 35.840, 64 35.500 C 64.550 35.160, 65 33.082, 65 30.882 C 65 28.470, 64.603 27.127, 64 27.500 C 63.441 27.845, 63 27.076, 63 25.755 C 63 18.856, 53.208 6.749, 44.519 2.905 C 38.845 0.395, 29.684 -0.318, 23.951 1.303 M 31.500 3 C 31.840 3.550, 32.316 4, 32.559 4 C 32.802 4, 33 3.550, 33 3 C 33 2.450, 32.523 2, 31.941 2 C 31.359 2, 31.160 2.450, 31.500 3 M 45.079 6.583 C 45.127 7.748, 45.364 7.985, 45.683 7.188 C 45.972 6.466, 45.936 5.603, 45.604 5.271 C 45.272 4.939, 45.036 5.529, 45.079 6.583 M 21.500 8.358 C 5.133 16.014, 0.739 35.896, 12.369 49.672 C 19.339 57.929, 33.536 60.527, 43.780 55.422 C 57.233 48.718, 62.481 32.630, 55.354 19.944 C 48.315 7.414, 33.995 2.514, 21.500 8.358 M 25.994 7.934 C 21.565 9.281, 17.581 11.745, 14.301 15.165 C 4.911 24.954, 5.581 41.157, 15.745 50.081 C 20.797 54.517, 24.939 56, 32.272 56 C 50.755 56, 62.358 38.049, 54.619 21.429 C 49.748 10.969, 36.520 4.732, 25.994 7.934 M 9.904 11.615 C 8.744 13.013, 8.818 13.181, 10.449 12.865 C 11.486 12.664, 12.522 11.938, 12.750 11.250 C 13.344 9.466, 11.490 9.704, 9.904 11.615 M 51.600 10.838 C 51.282 11.353, 51.652 12.296, 52.422 12.935 C 53.250 13.622, 54.058 13.715, 54.400 13.162 C 54.718 12.647, 54.348 11.704, 53.578 11.065 C 52.750 10.378, 51.942 10.285, 51.600 10.838 M 7.543 14.931 C 7.226 15.443, 7.350 16.098, 7.817 16.387 C 8.284 16.676, 8.667 16.257, 8.667 15.456 C 8.667 13.770, 8.351 13.623, 7.543 14.931 M 21 25.345 C 21 36.051, 21.407 37.198, 26 39.422 C 26.825 39.822, 26.262 39.177, 24.750 37.991 C 22.080 35.896, 22 35.545, 22 25.917 L 22 16 25.582 16 L 29.163 16 28.832 28.418 C 28.538 39.408, 28.702 40.961, 30.260 41.933 C 32.388 43.259, 38.361 40.559, 41.493 36.856 L 43.486 34.500 40.993 36.601 C 35.931 40.868, 36 40.987, 36 27.950 L 36 15.781 39.500 16.190 C 41.425 16.415, 43 16.239, 43 15.799 C 43 15.360, 38.050 15, 32 15 L 21 15 21 25.345 M 43.195 24.500 C 43.215 26.150, 43.439 26.704, 43.693 25.731 C 43.947 24.758, 43.930 23.408, 43.656 22.731 C 43.382 22.054, 43.175 22.850, 43.195 24.500 M 24.158 27 C 24.158 28.375, 24.385 28.938, 24.662 28.250 C 24.940 27.563, 24.940 26.438, 24.662 25.750 C 24.385 25.063, 24.158 25.625, 24.158 27 M 30.429 27 C 30.429 29.291, 31.087 29.513, 32.800 27.800 C 34.512 26.088, 34.284 25, 32.214 25 C 31.095 25, 30.429 25.747, 30.429 27 M 38.079 26.583 C 38.127 27.748, 38.364 27.985, 38.683 27.188 C 38.972 26.466, 38.936 25.603, 38.604 25.271 C 38.272 24.939, 38.036 25.529, 38.079 26.583 M 0.272 32 C 0.272 34.475, 0.467 35.487, 0.706 34.250 C 0.944 33.013, 0.944 30.988, 0.706 29.750 C 0.467 28.512, 0.272 29.525, 0.272 32 M 60 31 C 60 32.100, 60.450 33, 61 33 C 61.550 33, 62 32.100, 62 31 C 62 29.900, 61.550 29, 61 29 C 60.450 29, 60 29.900, 60 31 M 2 33.559 C 2 35.010, 2.433 35.851, 3 35.500 C 4.301 34.696, 4.301 31, 3 31 C 2.450 31, 2 32.152, 2 33.559 M 60.500 36 C 60.840 36.550, 61.316 37, 61.559 37 C 61.802 37, 62 36.550, 62 36 C 62 35.450, 61.523 35, 60.941 35 C 60.359 35, 60.160 35.450, 60.500 36 M 7.543 47.931 C 6.878 49.007, 8.835 50.498, 9.733 49.600 C 10.063 49.270, 9.782 49, 9.108 49 C 8.434 49, 8.160 48.550, 8.500 48 C 8.840 47.450, 8.893 47, 8.618 47 C 8.343 47, 7.859 47.419, 7.543 47.931 M 51.971 51.535 C 50.234 53.628, 51.682 54.746, 53.620 52.809 C 54.555 51.874, 54.794 50.991, 54.209 50.629 C 53.669 50.295, 52.662 50.703, 51.971 51.535 M 10.262 52.690 C 11.192 53.620, 12.233 54.100, 12.576 53.757 C 13.561 52.773, 12.050 51, 10.227 51 C 8.700 51, 8.703 51.132, 10.262 52.690" stroke="none" fill="#000000" fill-rule="evenodd"/><path fill-opacity=".115" d="M 24.271 1.492 C 8.199 5.969, -2.302 22.039, 0.946 37.186 C 4.844 55.359, 22.095 66.909, 38.908 62.602 C 50.268 59.692, 58.752 52.018, 61.618 42.060 C 62.497 39.002, 63.618 35.719, 64.109 34.764 C 65.327 32.390, 65.246 27.730, 64 28.500 C 63.444 28.844, 63 28.094, 62.999 26.809 C 62.998 22.854, 57.495 12.642, 53.452 9.092 C 45.141 1.795, 33.792 -1.161, 24.271 1.492 M 23.214 3.128 C 21.195 3.711, 20.195 4.506, 20.619 5.192 C 21.017 5.837, 20.859 6.031, 20.245 5.651 C 18.916 4.830, 15.839 5.930, 16.495 6.992 C 16.761 7.422, 16.196 7.712, 15.239 7.637 C 14.277 7.561, 13.623 8.092, 13.775 8.824 C 13.926 9.553, 13.657 9.906, 13.178 9.610 C 11.915 8.829, 7.580 13.783, 4.960 19 C 1.898 25.098, 1.214 35.117, 3.409 41.726 C 5.180 47.058, 11.547 55.398, 13.109 54.433 C 13.626 54.113, 13.926 54.447, 13.775 55.176 C 13.623 55.908, 14.277 56.439, 15.239 56.363 C 16.196 56.288, 16.746 56.602, 16.461 57.063 C 15.728 58.249, 19.860 60.268, 21.630 59.588 C 22.441 59.277, 22.861 59.417, 22.563 59.898 C 22.266 60.379, 23.030 61.043, 24.261 61.373 C 27.806 62.323, 39.180 62.100, 38.558 61.093 C 38.249 60.595, 38.845 60.408, 39.882 60.679 C 40.918 60.950, 43.163 60.450, 44.870 59.567 C 49.247 57.304, 55.103 51.975, 54.422 50.874 C 54.108 50.366, 54.447 50.074, 55.176 50.225 C 55.916 50.379, 57.713 48.106, 59.250 45.071 C 61.503 40.622, 62 38.322, 62 32.341 C 62 24.673, 59.627 16.495, 57.740 17.661 C 57.130 18.038, 56.988 17.829, 57.401 17.160 C 58.356 15.615, 53.038 8.772, 51.377 9.409 C 50.655 9.686, 49.755 9.413, 49.378 8.802 C 48.933 8.082, 49.152 7.976, 50 8.500 C 50.869 9.037, 51.068 8.919, 50.591 8.147 C 49.443 6.290, 43.955 3.803, 42.358 4.416 C 41.554 4.725, 41.139 4.583, 41.437 4.102 C 42.725 2.018, 29.512 1.312, 23.214 3.128 M 20.390 7.493 C 17.639 8.864, 14.063 11.431, 12.444 13.198 L 9.500 16.410 13.263 13.224 C 18.106 9.124, 22.123 7.073, 27.326 6.044 C 30.971 5.324, 31.113 5.205, 28.446 5.110 C 26.767 5.049, 23.142 6.122, 20.390 7.493 M 34.750 5.662 C 35.438 5.940, 36.563 5.940, 37.250 5.662 C 37.938 5.385, 37.375 5.158, 36 5.158 C 34.625 5.158, 34.063 5.385, 34.750 5.662 M 26.718 8.054 C 20.911 9.479, 17.531 11.561, 13.630 16.119 C 9.010 21.517, 7.687 25.736, 8.180 33.493 C 8.981 46.069, 17.988 55.022, 30.649 55.829 C 39.315 56.380, 44.698 54.242, 50.283 48.030 C 58.635 38.740, 59.150 26.441, 51.601 16.543 C 46.623 10.017, 34.950 6.035, 26.718 8.054 M 50 12.500 C 51.292 13.875, 52.574 15, 52.849 15 C 53.124 15, 52.292 13.875, 51 12.500 C 49.708 11.125, 48.426 10, 48.151 10 C 47.876 10, 48.708 11.125, 50 12.500 M 20.602 22.434 C 19.551 34.030, 20.953 37.402, 28.403 41.205 L 32.306 43.197 36.403 40.981 C 43.464 37.163, 44 36.028, 44 24.889 L 44 15 32.638 15 L 21.276 15 20.602 22.434 M 22 25.461 C 22 33.906, 22.235 35.141, 24.189 36.961 C 25.392 38.082, 26.742 39, 27.189 39 C 27.635 39, 28 33.825, 28 27.500 L 28 16 25 16 L 22 16 22 25.461 M 36 27.500 C 36 33.825, 36.350 39, 36.777 39 C 37.205 39, 38.555 38.299, 39.777 37.443 C 41.821 36.012, 42 35.085, 42 25.943 L 42 16 39 16 L 36 16 36 27.500 M 8 19 C 7.411 20.100, 7.155 21, 7.430 21 C 7.705 21, 8.411 20.100, 9 19 C 9.589 17.900, 9.845 17, 9.570 17 C 9.295 17, 8.589 17.900, 8 19 M 24 27.059 C 24 28.191, 24.450 28.840, 25 28.500 C 25.550 28.160, 26 27.234, 26 26.441 C 26 25.648, 25.550 25, 25 25 C 24.450 25, 24 25.927, 24 27.059 M 37 27 C 37 29.384, 38.536 29.653, 39.393 27.418 C 40.251 25.183, 40.183 25, 38.500 25 C 37.667 25, 37 25.889, 37 27 M 0.232 32 C 0.232 33.925, 0.438 34.712, 0.689 33.750 C 0.941 32.788, 0.941 31.212, 0.689 30.250 C 0.438 29.288, 0.232 30.075, 0.232 32 M 55.564 44.707 C 55.022 46.132, 55.136 46.247, 56.124 45.267 C 56.808 44.588, 57.115 43.781, 56.807 43.474 C 56.499 43.166, 55.940 43.721, 55.564 44.707 M 50.989 50.511 C 44.493 57.214, 33.619 60.188, 24.675 57.708 C 22.336 57.059, 22.066 57.155, 23.105 58.268 C 24.860 60.146, 37.432 59.738, 42.372 57.643 C 46.975 55.690, 47.337 55.646, 46.405 57.155 C 45.959 57.876, 46.131 58.037, 46.862 57.585 C 47.506 57.187, 47.786 56.463, 47.484 55.975 C 47.183 55.487, 48.044 54.362, 49.399 53.474 C 51.500 52.098, 55.689 47, 54.719 47 C 54.539 47, 52.861 48.580, 50.989 50.511 M 12.502 50.836 C 14.151 52.671, 16.400 54.638, 17.500 55.208 C 18.600 55.778, 19.050 55.851, 18.500 55.370 C 17.950 54.888, 15.701 52.921, 13.502 50.997 L 9.504 47.500 12.502 50.836" stroke="none" fill="#000000" fill-rule="evenodd"/><path fill-opacity=".526" d="M 30.750 0.662 C 31.438 0.940, 32.563 0.940, 33.250 0.662 C 33.938 0.385, 33.375 0.158, 32 0.158 C 30.625 0.158, 30.063 0.385, 30.750 0.662 M 25.813 1.683 C 26.534 1.972, 27.397 1.936, 27.729 1.604 C 28.061 1.272, 27.471 1.036, 26.417 1.079 C 25.252 1.127, 25.015 1.364, 25.813 1.683 M 14.363 6.250 C 9.800 9.299, 2.951 17.836, 3.040 20.363 C 3.062 20.988, 3.806 20.150, 4.693 18.500 C 7.844 12.637, 11.433 8.793, 16.433 5.925 C 19.220 4.327, 20.988 3.015, 20.363 3.009 C 19.738 3.004, 17.038 4.462, 14.363 6.250 M 21.383 10.402 C 6.171 17.485, 3.362 37.947, 16.037 49.343 C 28.435 60.490, 46.878 56.975, 54.569 42 C 57.149 36.977, 56.998 26.719, 54.268 21.500 C 51.590 16.381, 46.516 11.525, 41.782 9.551 C 36.167 7.209, 27.461 7.572, 21.383 10.402 M 22.250 14.706 C 20.105 15.119, 20 15.582, 20 24.635 C 20 29.858, 20.443 34.959, 20.984 35.970 C 21.525 36.981, 24.216 39.192, 26.964 40.883 L 31.959 43.957 35.730 41.809 C 43.775 37.228, 44 36.783, 44 25.442 C 44 15.700, 43.897 15.206, 41.750 14.630 C 39.274 13.967, 25.816 14.019, 22.250 14.706 M 24.750 16.816 L 22 17.133 22 25.994 C 22 34.468, 22.120 34.950, 24.750 37.024 L 27.500 39.193 27.799 33.057 C 27.963 29.683, 27.963 24.577, 27.799 21.711 C 27.510 16.676, 27.407 16.511, 24.750 16.816 M 36 27.393 C 36 33.777, 36.372 39, 36.826 39 C 37.280 39, 38.630 37.958, 39.826 36.686 C 41.714 34.676, 42 33.227, 42 25.686 C 42 18.854, 41.697 17, 40.582 17 C 39.802 17, 38.452 16.727, 37.582 16.393 C 36.195 15.861, 36 17.220, 36 27.393 M 23.362 25.500 C 23.045 26.325, 23.058 27.708, 23.390 28.574 C 23.928 29.975, 24.160 29.983, 25.497 28.646 C 26.324 27.819, 27 26.436, 27 25.571 C 27 23.569, 24.124 23.512, 23.362 25.500 M 37 26.333 C 37 29.543, 38.048 30.304, 39.619 28.234 C 41.537 25.709, 41.287 24, 39 24 C 37.571 24, 37 24.667, 37 26.333 M 1.158 27 C 1.158 28.375, 1.385 28.938, 1.662 28.250 C 1.940 27.563, 1.940 26.438, 1.662 25.750 C 1.385 25.063, 1.158 25.625, 1.158 27 M 0.158 32 C 0.158 33.375, 0.385 33.938, 0.662 33.250 C 0.940 32.563, 0.940 31.438, 0.662 30.750 C 0.385 30.063, 0.158 30.625, 0.158 32 M 63.158 32 C 63.158 33.375, 63.385 33.938, 63.662 33.250 C 63.940 32.563, 63.940 31.438, 63.662 30.750 C 63.385 30.063, 63.158 30.625, 63.158 32 M 1.158 37 C 1.158 38.375, 1.385 38.938, 1.662 38.250 C 1.940 37.563, 1.940 36.438, 1.662 35.750 C 1.385 35.063, 1.158 35.625, 1.158 37 M 19 46.479 C 19 47.673, 20.303 48, 25.059 48 C 28.425 48, 30.869 48.403, 30.558 48.906 C 30.250 49.404, 29.098 49.577, 27.999 49.289 C 26.685 48.946, 26 49.259, 26 50.204 C 26 51.276, 27.526 51.684, 32 51.807 C 36.600 51.934, 38 51.641, 38 50.550 C 38 49.694, 36.705 48.966, 34.750 48.723 C 32.962 48.502, 34.538 48.248, 38.250 48.160 C 41.977 48.072, 45 47.552, 45 47 C 45 45.711, 46.330 45.873, 31.750 45.385 C 20.819 45.019, 19 45.175, 19 46.479 M 53.437 54.250 L 50.500 57.500 53.750 54.563 C 55.538 52.948, 57 51.485, 57 51.313 C 57 50.540, 56.175 51.221, 53.437 54.250 M 9.500 54 C 10.495 55.100, 11.535 56, 11.810 56 C 12.085 56, 11.495 55.100, 10.500 54 C 9.505 52.900, 8.465 52, 8.190 52 C 7.915 52, 8.505 52.900, 9.500 54 M 13 56.378 C 13 56.585, 13.787 57.373, 14.750 58.128 C 16.336 59.371, 16.371 59.336, 15.128 57.750 C 13.821 56.084, 13 55.555, 13 56.378 M 25.750 62.662 C 26.438 62.940, 27.563 62.940, 28.250 62.662 C 28.938 62.385, 28.375 62.158, 27 62.158 C 25.625 62.158, 25.063 62.385, 25.750 62.662 M 35.750 62.662 C 36.438 62.940, 37.563 62.940, 38.250 62.662 C 38.938 62.385, 38.375 62.158, 37 62.158 C 35.625 62.158, 35.063 62.385, 35.750 62.662 M 30.750 63.662 C 31.438 63.940, 32.563 63.940, 33.250 63.662 C 33.938 63.385, 33.375 63.158, 32 63.158 C 30.625 63.158, 30.063 63.385, 30.750 63.662" stroke="none" fill="#000000" fill-rule="evenodd"/></svg>