<svg xmlns="http://www.w3.org/2000/svg" width="24" height="24" fill="#000000"><circle cx="12" cy="12" r="12" fill="#0d0d0d"/><path fill="#ffffff" fill-rule="evenodd" d="M8.96 8.575c.02.078.096.124.173.098l6.358-1.747c.152-.04.133-.267-.026-.28L8.485 6a.141.141 0 0 0-.147.176l.623 2.4Zm.637 4.27-.929-3.553-.12-.463-.496-1.89a.137.137 0 0 0-.267 0l-1.78 6.812a.143.143 0 0 0 .171.176l3.325-.912c.07-.014.115-.092.096-.17Zm7.21-5.789a.461.461 0 0 1 .515.222l1.66 2.953a.144.144 0 0 1-.083.209l-8.68 2.373a.132.132 0 0 1-.17-.098l-.891-3.41a.136.136 0 0 1 .095-.176l7.554-2.073Zm-7.02 6.526a.132.132 0 0 0-.171-.098l-3.325.912c-.102.027-.14.163-.064.235l4.883 5.046c.102.104.267.006.235-.137l-1.558-5.958Zm.547-.3 8.279-2.275c.133-.033.229.117.146.228l-6.632 8.579c-.07.09-.21.058-.241-.052l-1.647-6.304a.136.136 0 0 1 .095-.176Z" clip-rule="evenodd"/></svg>