<svg xmlns="http://www.w3.org/2000/svg" width="200" height="200" fill="#000000"><path fill-opacity=".161" fill-rule="evenodd" d="M0 100.005V200.01l100.25-.255 100.25-.255.255-99.75L201.01 0H0zm.481.495c0 55 .121 77.647.269 50.326.148-27.32.148-72.32 0-100C.602 23.147.481 45.5.481 100.5m40.59-19.748c-5.329 2.717-7.571 6.499-7.571 12.773 0 4.899.346 5.733 3.884 9.356 2.522 2.583 3.67 4.537 3.273 5.571-1.015 2.645-3.633 2.942-6.599.749l-2.798-2.069-.659 5.607c-.772 6.565-.189 7.225 6.399 7.242 8.375.021 14.216-5.933 14.408-14.688.08-3.667-.458-4.768-4.194-8.574-2.944-3.001-4.085-4.893-3.643-6.043.816-2.127 4.236-2.16 6.553-.064 1.657 1.5 1.816 1.448 2.275-.75 1.575-7.549 1.364-8.749-1.727-9.826-4.084-1.424-5.631-1.309-9.601.716m14.877.998c-.028.963-1.069 9.963-2.312 20L51.376 120h4.695c5.574 0 5.565.02 6.601-14l.703-9.5 1.844 8c3.826 16.595 3.215 15.5 8.646 15.5h4.789l2.178-18.25c1.198-10.037 2.176-19.037 2.173-20-.004-1.4-.883-1.75-4.398-1.75-5.358 0-5.401.091-6.293 13.333l-.685 10.167-1.326-6.5c-.729-3.575-2.008-8.862-2.842-11.75L65.944 80h-4.972c-4.049 0-4.982.325-5.024 1.75m29.06 8.5c-.67 5.638-1.767 14.638-2.437 20l-1.22 9.75h10.441l.717-8.25c.395-4.537.966-8.666 1.271-9.174s1.5 3.092 2.657 8l2.105 8.924H120.5l1.02-8 1.021-8 2.029 8 2.029 8H163.5l.56-4.873.559-4.872-5.915.618c-4.513.472-5.795.323-5.408-.627.278-.685 4.101-7.546 8.495-15.246l7.989-14-12.526-.281c-6.889-.154-12.669-.137-12.844.038s-.618 2.19-.983 4.477l-.666 4.159 5.638.304 5.637.303-2.453 3.601c-1.349 1.981-5.123 8.413-8.387 14.292l-5.933 10.691-2.676-7.219-2.676-7.219 2.45-2.073C137.742 98.713 139 95.845 139 91c0-8.21-4.145-11-16.34-11h-7.404l-.563 3.75c-.309 2.063-1.296 10.05-2.194 17.75s-1.946 14.815-2.332 15.812c-.496 1.28-1.669-1.14-3.999-8.249l-3.297-10.06 5.064-8.984c2.786-4.941 5.065-9.217 5.065-9.502 0-.284-2.362-.495-5.25-.469l-5.25.049-4.275 8.701c-2.351 4.786-4.07 7.961-3.82 7.054.249-.906.769-4.843 1.154-8.75L96.258 80H86.225zm38.978.93c-.007 1.276-.285 3.333-.616 4.57-.484 1.806-.192 2.25 1.478 2.25 4.356 0 5.662-8.215 1.402-8.82-1.776-.252-2.253.17-2.264 2"/><path fill-opacity=".509" fill-rule="evenodd" d="M0 100.005V200.01l100.25-.255 100.25-.255.255-99.75L201.01 0H0zm.481.495c0 55 .121 77.647.269 50.326.148-27.32.148-72.32 0-100C.602 23.147.481 45.5.481 100.5m39.76-19.505c-4.471 2.726-7.233 7.601-7.237 12.777-.003 3.617.627 4.958 4.109 8.735 2.531 2.745 3.889 5.045 3.531 5.977-.879 2.292-6.249 1.919-7.981-.555-1.353-1.932-1.498-1.66-2.162 4.062-.391 3.372-.462 6.381-.157 6.686 1.222 1.222 7.359 1.908 10.656 1.19 4.951-1.077 9.678-6.539 10.52-12.155.79-5.265-.291-7.816-5.279-12.46-2.9-2.701-3.279-3.502-2.242-4.75 1.628-1.963 3.899-1.904 6.178.159 1.01.913 2 1.475 2.201 1.25s.585-2.808.854-5.739c.453-4.929.308-5.396-1.936-6.25-3.804-1.446-7.515-1.086-11.055 1.073m15.361 2.706c-.325 2.089-1.284 9.874-2.132 17.299-.847 7.425-1.786 14.737-2.085 16.25-.535 2.707-.466 2.75 4.477 2.75 2.761 0 5.266-.398 5.566-.884.301-.486.858-5.549 1.238-11.25l.692-10.366 2.581 11 2.58 11 5.241.302c3.791.219 5.241-.057 5.242-1 .002-1.601 3.798-32.248 4.466-36.052.476-2.716.417-2.75-4.851-2.75h-5.332l-.643 6.147c-.353 3.38-.68 8.443-.726 11.25l-.085 5.103-1.871-8c-3.48-14.876-2.925-13.961-8.681-14.299l-5.087-.299zm30.396-2.951c-.003 1.215-3.943 32.452-4.541 36l-.548 3.25h10.932l.638-6.75c1.058-11.187 1.924-11.605 3.959-1.909L98.255 120h22.586l.64-6.75c.351-3.713.734-7.425.851-8.25s1.062 2.213 2.103 6.75l1.892 8.25H164l.014-2.75c.007-1.513.285-3.763.616-5 .576-2.15.337-2.25-5.388-2.25h-5.992l8.377-14.75 8.377-14.75-12.674-.281c-13.885-.308-14.288-.153-14.315 5.531L143 89h11.096l-2.878 4.25c-1.583 2.338-5.283 8.635-8.221 13.994-2.938 5.36-5.602 9.491-5.919 9.18-.318-.31-1.506-3.315-2.64-6.676l-2.063-6.112 2.866-2.568c5.132-4.6 5.47-14.302.65-18.668-1.671-1.514-3.987-1.97-11.394-2.243l-9.297-.343-.56 2.843c-.308 1.564-1.279 9.143-2.158 16.843-2.374 20.801-2.201 20.537-6.04 9.224l-3.318-9.776 5.366-9.474L113.855 80H102.28l-3.647 7.75-3.648 7.75.567-6c.312-3.3.795-6.787 1.075-7.75.44-1.518-.23-1.75-5.06-1.75-3.062 0-5.568.338-5.569.75m37.85 12.697c-.419 5.264 1.122 6.054 3.81 1.952 1.853-2.828.99-5.63-1.91-6.202-1.164-.23-1.626.804-1.9 4.25"/><path fill-opacity=".077" fill-rule="evenodd" d="M0 100.027v100.026l26.478-.086c18.017-.058 26.694-.436 27.154-1.181.44-.711.185-.814-.727-.294-1.157.66-1.177.556-.113-.587 1.1-1.182 1.431-1.167 2.234.103.703 1.111.947.647.959-1.817.009-2.041.415-3.062 1.059-2.664 1.472.91 4.156-1.564 3.513-3.239-.294-.766-.089-1.117.454-.781.544.336.996-.203 1.004-1.198.009-1.013.339-1.369.75-.809.811 1.104 4.227 1.639 4.037.632-.332-1.757 1.523-3.945 2.897-3.417 1.263.485 1.343.231.45-1.438-.862-1.61-.716-2.359.712-3.651 2.119-1.918 4.533-2.169 3.622-.376-.35.688.299.188 1.441-1.111S78 174.998 78 174.044c0-2.26 2.773-4.707 6.345-5.598 1.77-.442 2.399-.986 1.666-1.439-.828-.512-.677-.921.509-1.376 1.078-.414 1.469-1.277 1.081-2.389-.489-1.406-.292-1.357 1.022.258 1.604 1.971 1.619 1.967 1.081-.307-.444-1.875-.288-2.093.831-1.164.758.629 1.93.802 2.605.385.878-.543.676-.975-.706-1.516-1.799-.704-1.781-.762.259-.828 1.675-.053 2.097-.566 1.787-2.173-.28-1.455.2-2.262 1.557-2.617 1.08-.282 1.963-1.103 1.963-1.824 0-1.384 4.622-5.456 6.194-5.456.508 0 .6.563.205 1.25-.418.726-.338.901.191.417.5-.459.93-1.359.955-2 .025-.642.621-1.043 1.325-.892.717.154.977-.214.591-.837-.494-.801-.991-.808-1.774-.025-.598.598-1.547 1.087-2.11 1.087s-.001-.715 1.247-1.589 2.946-1.329 3.774-1.012c.828.318 1.264.186.968-.293-.864-1.398 3.353-6.074 4.931-5.469 1.027.394 1.307-.061 1.004-1.634-.353-1.831-.183-1.984 1.063-.95 1.59 1.32 2.463.941 2.789-1.211.112-.738.584-1.953 1.05-2.699.713-1.142 1-1.142 1.816 0 .749 1.049.847.974.432-.328-.296-.927-.226-1.866.155-2.086.382-.221.132-.264-.556-.096-2.012.49-1.383-.991 1.228-2.889 2.304-1.676 2.465-1.676 3.494 0 .81 1.32 1.042 1.384.934.256-.334-3.497.222-4.811 2.344-5.535 2.065-.705 1.99-.802-.906-1.173-3.007-.386-3.241-.746-4.953-7.598-.988-3.957-1.903-6.519-2.032-5.694-.13.825-.521 4.087-.869 7.25l-.634 5.75H98.383l-2.04-8.25c-2.21-8.939-2.651-8.654-3.862 2.5l-.625 5.75H80.824l.581-3.75c.32-2.062 1.271-9.6 2.115-16.75C86.069 77.908 85.199 80 91.625 80c5.502 0 5.531.016 4.992 2.75-.298 1.513-.82 5-1.16 7.75l-.619 5 3.748-7.75 3.747-7.75h11.684l-3.227 5.75a9349 9349 0 0 1-5.401 9.61l-2.174 3.859 3.063 9.131c3.661 10.917 3.806 10.685 6.17-9.85 2.373-20.613 1.06-18.5 11.494-18.5 8.034 0 9.194.244 11.869 2.494 5.394 4.539 5.057 13.915-.672 18.736l-2.728 2.295 2.065 5.411c2.184 5.725 3.858 7.242 4.924 4.465.563-1.469.419-1.512-1.127-.336-.975.741-.361-.207 1.364-2.109s5.025-6.831 7.332-10.956c2.308-4.125 4.904-8.288 5.769-9.25 1.478-1.646 1.232-1.75-4.141-1.75h-5.712l.308-4.25.307-4.25 13.834-.5c11.776-.426 14.027-.766 15.139-2.289 1.2-1.646 1.435-1.66 2.916-.179.886.886 1.611 1.219 1.611.739 0-.479-.495-1.366-1.1-1.971-.8-.8-.527-1.673 1-3.2 1.155-1.155 2.1-1.623 2.1-1.041s.563.735 1.25.34c.726-.418.901-.338.417.191-.459.5-1.321.91-1.917.91s-1.271.563-1.5 1.251c-.281.842.181 1.029 1.416.573 2.516-.93 3.414-2.523 2.228-3.951-.666-.803-.61-1.43.169-1.912.638-.395 1.553-.097 2.033.661.603.952.878.382.889-1.841.011-2.275.408-3.068 1.355-2.704 1.726.662 4.06-2.121 3.092-3.688-.469-.758-.317-.936.413-.484.709.438 1.161.015 1.17-1.096.009-1.013.339-1.369.75-.809.811 1.104 4.227 1.639 4.037.632-.332-1.757 1.523-3.945 2.897-3.417 1.267.486 1.344.233.438-1.458-.846-1.582-.765-2.321.359-3.254 1.269-1.053 1.459 8.148 1.491 72.574.021 40.58.257 74 .525 74.269.269.268.488-44.363.488-99.179V0H0zm.481.473c0 55 .121 77.647.269 50.326.148-27.32.148-72.32 0-100C.602 23.147.481 45.5.481 100.5M40.5 80.533c-4.485 2.225-7.5 7.272-7.5 12.556 0 4.66 1.62 7.82 5.895 11.497 1.572 1.352 2.214 2.688 1.804 3.756-.868 2.262-5.255 2.102-7.635-.278-1.915-1.915-1.944-1.876-2.613 3.484-.862 6.893-.37 8.057 3.726 8.826 6.589 1.236 13.458-2.458 16.501-8.874 1.37-2.889 1.402-2.787.864 2.75l-.559 5.75h10.732l.643-6.147c.353-3.38.649-7.768.657-9.75.023-5.368 1.491-2.241 3.546 7.553L68.313 120h5.343c2.939 0 5.344-.138 5.344-.307 0-1.019 4.073-33.77 4.532-36.443l.559-3.25H73.279l-.631 5.25c-.347 2.888-.669 7.725-.715 10.75-.083 5.42-.122 5.343-2.683-5.25L66.651 80h-5.217c-6.154 0-5.706-.978-7.572 16.5-.705 6.6-1.429 11.1-1.611 10-.885-5.38-1.564-6.841-4.886-10.518-5.187-5.741-2.967-9.603 2.878-5.005l2.513 1.976.518-5.726c.405-4.481.173-5.999-1.069-6.977-2.138-1.684-8.026-1.541-11.705.283m132-.533c-.34.55-.141 1 .441 1S174 80.55 174 80s-.198-1-.441-1-.719.45-1.059 1m-47.812 9.646c-1.064 1.064-.812 8.354.289 8.354 1.914 0 4.452-5.096 3.383-6.791-1.182-1.875-2.711-2.525-3.672-1.563M117 134c0 .55.477 1 1.059 1s.781-.45.441-1-.816-1-1.059-1-.441.45-.441 1m-17.655 18.543c-.917 2.39.51 3.032 2.429 1.093 1.636-1.653 1.626-1.706-.188-1.02-1.335.505-1.695.37-1.191-.446.398-.644.457-1.17.133-1.17-.325 0-.857.694-1.183 1.543M79 175c-.589 1.1-.845 2-.57 2s.981-.9 1.57-2 .845-2 .57-2-.981.9-1.57 2"/><path fill-opacity=".185" fill-rule="evenodd" d="m.025 73.595.07 73.595 2.637-2.845c1.451-1.565 2.689-3.528 2.75-4.363.182-2.45 1.479-3.934 2.948-3.371.751.289 2.331-.512 3.512-1.779 1.18-1.266 1.673-2.46 1.095-2.653-.577-.192-.807-.742-.511-1.221s1.199-.617 2.006-.307c.817.313 1.468-.002 1.468-.711 0-.7.279-.994.62-.653s2.329-1.268 4.417-3.576c2.581-2.851 3.424-4.433 2.63-4.938-.642-.408-.752-.749-.246-.758.507-.008 1.71.699 2.674 1.571 1.612 1.459 1.729 1.439 1.454-.25-.165-1.01.338-2.567 1.117-3.461.78-.894 1.333-2.019 1.229-2.5s.171-2.856.61-5.277c.718-3.956.933-4.22 2.116-2.602 1.108 1.516 1.568 1.592 2.904.483.873-.725 1.509-.904 1.413-.398-.46 2.416.21 2.652 1.658.586 1.527-2.181 1.441-2.429-2-5.771-3.222-3.129-3.595-4.033-3.589-8.694.01-8.447 5.658-14.682 13.309-14.695 6.243-.011 7.954 1.437 7.171 6.068-.434 2.568-.287 3.925.425 3.925.598 0 1.094-1.013 1.102-2.25.032-5.306 1.053-6.75 4.774-6.75 1.955 0 4.482-.787 5.616-1.75 1.963-1.667 1.997-1.667.706 0-1.812 2.34.128 2.249 2.259-.105 1.026-1.134 1.423-2.593 1.021-3.75-.646-1.858-.63-1.858.815-.005 1.358 1.742 1.525 1.757 2.127.187.36-.937 1.107-1.424 1.661-1.081.56.346 1.007-.36 1.007-1.592 0-2.151-.057-2.162-2-.404-1.1.995-2 1.338-2 .762 0-1.009 2.138-2.28 4.75-2.825.688-.143 1.25.225 1.25.818s.289.789.643.436c.353-.354.18-1.216-.385-1.917-.96-1.19-.025-5.774 1.178-5.774.276 0 .264.617-.025 1.371s.175 1.64 1.032 1.969c.856.328 1.557.113 1.557-.478 0-.592.581-.853 1.291-.581.816.314 1.367-.422 1.498-1.999.165-1.998-.141-2.362-1.541-1.829-1.369.521-1.486.402-.54-.551.885-.892 1.561-.923 2.533-.117 1.468 1.219 3.102.455 3.55-1.658.189-.89-.269-1.158-1.302-.761-.998.383-1.343.207-.924-.472.368-.595 1.787-.869 3.153-.608 2.274.435 2.436.232 1.908-2.405-.338-1.689-.148-2.881.458-2.881.569 0 .773.423.453.939-.319.517.31.873 1.398.791 1.089-.082 1.777-.351 1.531-.598-.76-.759 1.705-3.145 2.647-2.562.488.301.887-.18.887-1.07 0-1.011.469-1.348 1.25-.899.688.396.94.375.561-.047-.38-.421.417-1.872 1.769-3.225s2.191-2.89 1.865-3.418c-.327-.528.002-.837.731-.686s1.209-.435 1.069-1.305c-.172-1.066.479-1.554 2-1.5 1.729.061 2.204-.421 2.035-2.069-.173-1.688.201-2.038 1.75-1.633 1.135.297 1.97.017 1.97-.66 0-.647.461-.891 1.025-.543.563.349.901.254.75-.21s.738-1.932 1.975-3.263c3.401-3.657 2.696-4.833-.888-1.479-3.124 2.924-3.13 2.926-1.44.271.934-1.466 2.375-2.926 3.201-3.243s1.27-.955.984-1.417c-.285-.462.129-.841.921-.841.99 0 1.135.368.465 1.176-.537.646-.682 1.468-.324 1.827.905.904 13.66-12.267 13.807-14.257.187-2.54 1.464-4.039 2.954-3.468.751.289 2.331-.512 3.512-1.779 1.18-1.266 1.673-2.46 1.095-2.653-.577-.192-.807-.742-.511-1.221s1.199-.617 2.006-.307c.807.309 1.468.038 1.468-.603s.45-.888 1-.548 1 .141 1-.441C146 .323 123.705 0 72.977 0H-.046zM148.459 1.067c-.363.586-.445 1.281-.183 1.543s.743-.218 1.069-1.067c.676-1.762.1-2.072-.886-.476m-10.792 3.6c-.367.366-.667 1.131-.667 1.7 0 .626.466.567 1.183-.15.651-.651.951-1.416.667-1.7s-.817-.217-1.183.15m-3.124 5.264c-.317.512-.118 1.213.441 1.559s1.016-.074 1.016-.931c0-1.757-.6-2.015-1.457-.628m-8.248 7.009c-1.145 1.067-2.321 1.7-2.614 1.408s-.428.172-.302 1.031c.127.86.615 1.914 1.086 2.342.47.428.569.277.219-.337-.658-1.154 2.588-4.779 3.48-3.886.277.276.503-.173.503-.998 0-1.861.123-1.884-2.372.44M97.507 45.989c-.35.566.051.734.941.393 1.732-.665 2.049-1.382.611-1.382-.518 0-1.216.445-1.552.989m-53.19 44.628q-.622 1.617 3.232 5.25c2.12 1.998 3.565 2.878 3.212 1.956-.563-1.47 1.232-4.214 2.331-3.564.224.132.311.069.193-.14s.283-1.335.89-2.5c.714-1.369-.01-.968-2.044 1.131-3.442 3.553-5.606 4.537-2.549 1.16 1.856-2.052 1.855-2.117-.036-3.5-2.544-1.86-4.465-1.784-5.229.207m-23.725 31.111c.154.263-.928 1.542-2.406 2.843-3.255 2.867-1.681 3.191 1.724.356 1.519-1.265 2.039-2.316 1.406-2.842-.552-.459-.878-.62-.724-.357m-.133 7.339c-.363.586-.445 1.281-.183 1.543s.743-.218 1.069-1.067c.676-1.762.1-2.072-.886-.476m-10.792 3.6c-.367.366-.667 1.131-.667 1.7 0 .626.466.567 1.183-.15.651-.651.951-1.416.667-1.7s-.817-.217-1.183.15m-3.124 5.264c-.317.512-.118 1.213.441 1.559S8 139.416 8 138.559c0-1.757-.6-2.015-1.457-.628"/></svg>