<svg xmlns="http://www.w3.org/2000/svg" width="32" height="32" version="1.1" fill="#000000"><path fill-opacity=".09" d="M 10.206 7.667 L 5.911 10.256 6.206 16.378 C 6.501 22.526, 8.232 24.821, 8.809 19.829 C 9.054 17.710, 10.581 16.288, 16.202 12.949 C 21.767 9.643, 22.948 8.551, 21.709 7.857 C 20.606 7.240, 18.574 7.893, 14.945 10.033 C 12.092 11.715, 9.567 12.900, 9.334 12.667 C 9.100 12.434, 10.955 11.044, 13.455 9.579 C 15.955 8.114, 18 6.485, 18 5.958 C 18 4.265, 14.618 5.007, 10.206 7.667 M 23.639 9.694 C 23.288 10.046, 23 12.499, 23 15.146 C 23 19.879, 22.915 20.008, 17.970 22.832 C 14.020 25.088, 13.224 25.941, 14.265 26.805 C 15.264 27.634, 16.872 27.173, 20.795 24.932 L 26 21.960 26 16.039 C 26 10.508, 25.139 8.194, 23.639 9.694 M 15.750 14.263 C 11.991 16.365, 10 18.117, 10 19.323 C 10 21.418, 9.754 21.481, 16.760 17.591 C 20.129 15.721, 22 14.025, 22 12.841 C 22 11.828, 21.887 11.011, 21.750 11.023 C 21.613 11.036, 18.913 12.494, 15.750 14.263 M 14.652 19.681 C 10.283 22.313, 9.091 23.491, 9.941 24.341 C 11.542 25.942, 22 20.257, 22 17.785 C 22 15.424, 21.506 15.552, 14.652 19.681" stroke="none" fill="#000000" fill-rule="evenodd"/><path fill-opacity=".082" d="M 10.696 7.978 C 6.028 10.938, 6 10.989, 6 16.478 C 6 20.720, 6.348 22, 7.500 22 C 8.472 22, 9 21.026, 9 19.231 C 9 16.881, 9.904 15.965, 14.974 13.177 C 18.260 11.371, 21.211 9.467, 21.533 8.947 C 22.643 7.151, 19.646 8.009, 14.331 11.009 C 10.902 12.944, 9 13.561, 9 12.738 C 9 12.034, 10.997 10.367, 13.438 9.034 C 15.879 7.700, 17.653 6.247, 17.379 5.805 C 16.587 4.522, 15.680 4.817, 10.696 7.978 M 23 15.252 C 23 20.456, 22.959 20.525, 18.500 22.891 C 14.046 25.254, 12.717 27, 15.374 27 C 16.130 27, 18.830 25.837, 21.374 24.415 L 26 21.829 26 15.915 C 26 11.324, 25.664 10, 24.500 10 C 23.357 10, 23 11.250, 23 15.252 M 15.076 14.850 C 10.591 17.580, 8.735 20.016, 11.167 19.981 C 13.065 19.954, 22 14.194, 22 12.998 C 22 11.386, 19.801 11.974, 15.076 14.850 M 14.708 20.047 C 8.261 24.095, 9.627 25.969, 16.284 22.208 C 21.337 19.353, 23.415 16.982, 20.833 17.019 C 20.100 17.029, 17.344 18.392, 14.708 20.047" stroke="none" fill="#000000" fill-rule="evenodd"/><path fill-opacity=".099" d="M 23.667 10.667 C 23.300 11.033, 23 13.446, 23 16.028 C 23 20.566, 22.852 20.801, 18.532 23.093 C 15.764 24.561, 14.418 25.818, 14.997 26.397 C 15.575 26.975, 17.752 26.207, 20.715 24.378 C 25.437 21.464, 25.504 21.349, 25.800 15.713 C 26.074 10.484, 25.413 8.920, 23.667 10.667 M 15.754 14.779 C 9.179 18.549, 9.408 20.991, 16 17.403 C 18.750 15.907, 21 14.079, 21 13.341 C 21 11.662, 21.363 11.562, 15.754 14.779 M 15 20.174 C 11.975 21.910, 10.091 23.528, 10.814 23.770 C 12.598 24.367, 21 19.815, 21 18.252 C 21 16.639, 21.368 16.521, 15 20.174" stroke="none" fill="#000000" fill-rule="evenodd"/><path fill-opacity=".13" d="M 24 15.047 C 24 19.645, 23.727 20.244, 20.925 21.797 C 16.004 24.523, 14.456 25.790, 15.173 26.506 C 15.542 26.875, 17.903 25.969, 20.421 24.493 L 25 21.810 25 15.905 C 25 12.657, 24.775 10, 24.500 10 C 24.225 10, 24 12.271, 24 15.047 M 15.750 15.021 C 9.449 18.978, 9.636 20.752, 15.986 17.250 C 18.728 15.737, 20.978 13.938, 20.986 13.250 C 21.004 11.643, 21.275 11.551, 15.750 15.021 M 15.046 20.252 C 8.974 23.758, 9.637 25.246, 15.857 22.073 C 19.662 20.132, 21.643 18.309, 20.830 17.497 C 20.626 17.293, 18.023 18.533, 15.046 20.252" stroke="none" fill="#000000" fill-rule="evenodd"/></svg>