<svg xmlns="http://www.w3.org/2000/svg" width="32" height="32" version="1.1" fill="#000000"><path fill-opacity=".192" d="M 7.859 2.158 C -6 10.194, -0.051 32, 16 32 C 24.913 32, 33 23.628, 33 14.400 C 33 11.915, 32.638 10.106, 32.194 10.380 C 31.751 10.654, 30.589 9.392, 29.611 7.576 C 25.819 0.535, 15.213 -2.107, 7.859 2.158 M 13 6.669 C 10.621 7.598, 7 11.222, 7 12.674 C 7 14.758, 9.056 14.231, 11.588 11.500 C 14.531 8.324, 17.469 8.324, 20.412 11.500 C 22.944 14.231, 25 14.758, 25 12.674 C 25 9.159, 16.946 5.129, 13 6.669 M 0.300 16 C 0.300 19.025, 0.487 20.263, 0.716 18.750 C 0.945 17.238, 0.945 14.763, 0.716 13.250 C 0.487 11.738, 0.300 12.975, 0.300 16 M 7 19.326 C 7 22.066, 11.976 25.455, 16 25.455 C 20.024 25.455, 25 22.066, 25 19.326 C 25 17.242, 22.944 17.769, 20.412 20.500 C 19.138 21.875, 17.153 23, 16 23 C 14.847 23, 12.862 21.875, 11.588 20.500 C 9.056 17.769, 7 17.242, 7 19.326" stroke="none" fill="#000000" fill-rule="evenodd"/><path fill-opacity=".107" d="M 9.450 1.407 C -0.639 5.801, -3.022 19.213, 4.882 27.118 C 13.138 35.373, 25.681 32.772, 31.033 21.695 C 33.092 17.434, 33.758 10.414, 32 11.500 C 31.450 11.840, 31 11.451, 31 10.636 C 31 8.299, 25.916 2.863, 22.329 1.364 C 18.254 -0.338, 13.420 -0.322, 9.450 1.407 M 11.500 7.155 C 8.995 8.525, 7 10.979, 7 12.691 C 7 14.753, 9.611 14.219, 11.195 11.833 C 12.196 10.325, 13.656 9.667, 16 9.667 C 18.344 9.667, 19.804 10.325, 20.805 11.833 C 22.242 13.997, 25 14.818, 25 13.082 C 25 7.863, 16.793 4.260, 11.500 7.155 M 0.272 16 C 0.272 18.475, 0.467 19.488, 0.706 18.250 C 0.944 17.012, 0.944 14.988, 0.706 13.750 C 0.467 12.512, 0.272 13.525, 0.272 16 M 7 19.500 C 7 23.286, 13.664 26.803, 18.525 25.583 C 21.552 24.823, 25 21.584, 25 19.500 C 25 17.278, 22.455 17.682, 20.805 20.167 C 19.804 21.675, 18.344 22.333, 16 22.333 C 13.656 22.333, 12.196 21.675, 11.195 20.167 C 9.545 17.682, 7 17.278, 7 19.500" stroke="none" fill="#000000" fill-rule="evenodd"/><path fill-opacity=".266" d="M 8.962 2.250 C 4.159 4.672, 0 11.053, -0 16 C -0 20.947, 4.159 27.328, 8.962 29.750 C 14.573 32.580, 17.427 32.580, 23.038 29.750 C 26.364 28.073, 28.180 26.227, 30.169 22.500 C 32.485 18.161, 34.133 10.534, 32.375 12.292 C 32.031 12.635, 30.794 11.023, 29.625 8.708 C 27.330 4.163, 20.816 -0, 16 -0 C 14.583 -0, 11.416 1.012, 8.962 2.250 M 8.923 8.923 C 7.315 10.531, 6 12.331, 6 12.923 C 6 14.800, 10.466 14.085, 11.768 12 C 12.563 10.726, 14.100 10, 16 10 C 17.900 10, 19.437 10.726, 20.232 12 C 21.955 14.759, 26.006 14.740, 25.283 11.976 C 24.425 8.694, 20.144 6, 15.788 6 C 12.765 6, 11.165 6.681, 8.923 8.923 M 0.232 16 C 0.232 17.925, 0.438 18.712, 0.689 17.750 C 0.941 16.788, 0.941 15.213, 0.689 14.250 C 0.438 13.287, 0.232 14.075, 0.232 16 M 6.717 20.024 C 8.732 27.730, 23.268 27.730, 25.283 20.024 C 26.006 17.260, 21.955 17.241, 20.232 20 C 19.437 21.274, 17.900 22, 16 22 C 14.100 22, 12.563 21.274, 11.768 20 C 10.045 17.241, 5.994 17.260, 6.717 20.024" stroke="none" fill="#000000" fill-rule="evenodd"/><path fill-opacity=".104" d="M 11.594 1.041 C 7.391 2.299, 2.123 7.830, 0.938 12.230 C -1.992 23.113, 8.958 33.973, 19.892 31.029 C 24.257 29.854, 31 23.192, 31 20.056 C 31 18.990, 31.450 17.840, 32 17.500 C 32.550 17.160, 33 15.982, 33 14.882 C 33 13.782, 32.550 13.160, 32 13.500 C 31.450 13.840, 31 13.193, 31 12.062 C 31 8.955, 24.353 2.192, 20.152 1.025 C 15.963 -0.138, 15.534 -0.137, 11.594 1.041 M 8.923 8.923 C 7.315 10.531, 6 12.556, 6 13.423 C 6 15.890, 9.588 15.277, 11.408 12.500 C 13.651 9.077, 18.349 9.077, 20.592 12.500 C 22.354 15.189, 26 15.915, 26 13.577 C 26 12.794, 24.835 10.769, 23.411 9.077 C 21.228 6.483, 20.118 6, 16.334 6 C 12.707 6, 11.285 6.561, 8.923 8.923 M 0.158 16 C 0.158 17.375, 0.385 17.938, 0.662 17.250 C 0.940 16.563, 0.940 15.438, 0.662 14.750 C 0.385 14.063, 0.158 14.625, 0.158 16 M 6 18.423 C 6 19.206, 7.165 21.231, 8.589 22.923 C 10.772 25.517, 11.882 26, 15.666 26 C 19.293 26, 20.715 25.439, 23.077 23.077 C 24.685 21.469, 26 19.444, 26 18.577 C 26 16.110, 22.412 16.723, 20.592 19.500 C 19.561 21.074, 18.019 22, 16.429 22 C 15.021 22, 12.880 20.895, 11.588 19.500 C 9.051 16.763, 6 16.175, 6 18.423" stroke="none" fill="#000000" fill-rule="evenodd"/></svg>