<svg xmlns="http://www.w3.org/2000/svg" width="40" height="40" fill="#000000"><g clip-path="url(#a)"><path fill="#050505" d="M20 40c11.046 0 20-8.954 20-20S31.046 0 20 0 0 8.954 0 20s8.954 20 20 20z"/><path fill="#ffffff" fill-rule="evenodd" d="M25.076 25.825c0-.22.066-.483.154-.571.33-.33.462.308.55 2.681.11 2.704-.044 3.143-.923 2.682-.857-.462-1.407-2.484-.88-3.297.176-.308-.066-.637-.483-.66-.242 0-.901 2.462-.88 3.231.023.396-.065.748-.175.748l-.23.033c-.083.01-.165.021-.232.032-.11.022-.505-.615-.857-1.406-.681-1.56-1.318-2-1.318-.945 0 .945-.791 2.088-1.385 2a.747.747 0 0 1-.571-.506c-.066-.351-.022-.373.263-.154.264.22.352.176.55-.33.461-1.208.527-1.626.264-1.933-.704-.835-2.418.198-2.418 1.45 0 .396-.154.88-.352 1.1-.373.417-.307.46 1.121.68a.667.667 0 0 1 .506.484c.088.374-.022.396-.923.286-.572-.088-1.32-.286-1.67-.484-.352-.176-.902-.33-1.21-.33-.307 0-.79-.22-1.076-.505-.283-.282-.407-.407-.497-.385-.07.017-.12.125-.207.32-.33.746-.703.637-.923-.243-.344-1.34-.468-1.895-.568-1.89-.08.002-.144.354-.289.945-.154.66-.242 1.473-.198 1.803.132.68-.395 1.274-.79.879-.243-.242 0-2.066.483-3.803.483-1.692 1.406-1.604 1.67.154.176 1.165.373 1.1.747-.241.286-1.011.506-1.21.813-.726.088.154.528.286.945.286h.77l-.022 1.582c0 1.143.066 1.605.263 1.605.154 0 .33-.176.396-.396.198-.66.242-3.23.066-3.516-.11-.176-.044-.264.176-.264.197 0 .483.308.637.66.264.659.286.659.66.241.22-.22.68-.55 1.032-.681.528-.22.726-.22 1.187.088.308.197.55.461.55.571 0 .132.131.22.307.22.198 0 .286-.242.264-.725-.022-.945.352-1.1.572-.22.131.505.307.725.615.725.286 0 .396-.11.308-.33-.088-.22 0-.33.351-.33.264 0 .396-.087.33-.241-.088-.132.022-.374.242-.527.351-.264.461-.264.637-.022.132.153.55.373.945.44.593.153.703.109.703-.265zm-.659 2.748c.286 1.164.44 1.142.44-.11 0-1.231-.022-1.253-.374-.901-.154.153-.176.505-.066 1.01zm-11.033 1.252c.374.22.703-.263.77-1.077.043-.923-.352-1.252-.704-.57-.286.505-.308 1.494-.066 1.647zm8.396-1.186c.131 0 .22-.198.22-.44s-.088-.44-.22-.44c-.11 0-.22.198-.22.44s.11.44.22.44zm6.967-3.583c-.088.066-.088.506-.022.967.154.945-.066 1.143-1.385 1.165-1.274.022-.681.572.616.572.615 0 .637.044.637 1.01v1.034l-.989-.11c-.55-.066-.989-.088-.989-.044 0 .022.154.22.352.395.373.396 2.175.484 2.725.132.264-.154.264-.264.022-.747-.22-.396-.264-.967-.154-1.956.176-1.802-.242-3.011-.813-2.418zM22.79 7.1c.593-.308 1.209-.681 1.362-.813.638-.594 1.56.505 1.253 1.472-.198.638-.725.572-.615-.088.154-.79-.286-.879-1.121-.22-.616.506-.704.66-.506.99.352.55.044.747-.527.351-.44-.307-.55-.307-1.165 0-.374.176-.725.374-.77.418-.065.066.242.461.682.923.418.44 1.978 2.527 3.45 4.637 1.451 2.088 2.66 3.649 2.66 3.473 0-.308 1.209-.923 2.923-1.473.44-.131.813-.285.813-.33 0-.043-.22-.285-.483-.549-.352-.33-.418-.505-.242-.681.418-.418.945-.044 1.407 1.033.505 1.12.395 2.066-.132 1.319-.286-.374-.352-.396-1.033-.066-.396.175-1.011.417-1.385.505a5.964 5.964 0 0 0-1.23.484l-.594.33 1.209 2a50.434 50.434 0 0 1 1.912 3.538c.395.857.9 1.714 1.12 1.934.198.22.308.461.243.527-.088.088-.77-.44-1.517-1.165l-1.363-1.318-3.912.088h-.04c-3.806.088-3.87.09-3.498.505.285.33.33.484.132.681-.176.176-.44.088-1.055-.373l-.791-.616-2.132.264c-1.165.132-3.143.44-4.418.66-1.275.241-2.352.395-2.396.351-.263-.286 4.945-11.604 6.835-14.813.792-1.363 1.341-2.55 1.32-2.88-.01-.24-.016-.376.028-.394.055-.023.19.145.499.527l.527.681.747-.681c.396-.374 1.21-.923 1.803-1.231zm-.756 6.113v-.001l-.695-1.233c-.901-1.582-1.714-2.901-1.78-2.901-.066 0-.308.571-.506 1.253-.22.703-.79 2.154-1.252 3.23a46.391 46.391 0 0 0-.857 2s.571-.043 1.274-.131c.681-.088 2.088-.176 3.077-.176 1.011-.022 1.802-.11 1.758-.198-.016-.064-.44-.817-1.019-1.843zm1.635 3.316c.176-.132.241-.33.176-.44-.066-.11-.176-.176-.264-.154-.088.022-.594.066-1.143.11-.55.044-1.209.132-1.494.176l-.506.132.791 1.406c.44.792.726 1.539.637 1.67-.11.198-.241.155-.461-.153-.264-.352-.33-.374-.637-.044-.308.308-.264.352.461.483.44.088.835.132.857.088.043-.042.306-.669.638-1.456l.044-.104c.33-.813.747-1.583.9-1.714zm-5.1 1.934c.287-.396.682-1.033.88-1.429l.374-.703h-1.627c-.9 0-1.692.066-1.758.154-.308.307-.132.813.747 2.131.77 1.143.967 1.32 1.473 1.275.813-.11 1.055-.395.703-.813-.242-.308-.308-.286-.593.11-.33.483-.726.593-.726.198 0-.132.242-.55.528-.923zm1.583-.594c.528 0 .55-.044.286-.395-.085-.11-.17-.225-.233-.31a2.04 2.04 0 0 0-.097-.13c-.022-.044-.154.132-.307.374-.22.417-.176.461.351.461zm7.627 4.484c-.506-.726-1.407-2.176-2.022-3.231-1.143-1.934-1.231-2.044-1.407-1.758-.088.176-.879 2.483-.923 2.703-.022.066-.33.725-.725 1.473-.396.747-.703 1.406-.703 1.45 0 .044 1.252.154 2.813.22 1.538.088 3.033.198 3.318.286.484.153.462.066-.351-1.143zm-9.693.417a49.948 49.948 0 0 1-1.384-2.417c-.528-1.011-1.011-1.824-1.077-1.824-.066.022-.506.879-.99 1.912-.483 1.055-1.296 2.55-1.823 3.318-.506.792-.88 1.473-.836 1.517.044.044.858-.198 1.803-.572.967-.373 2.285-.79 2.945-.923l.212-.043c1.012-.21 1.392-.288 1.434-.452.025-.099-.07-.228-.224-.435l-.06-.08zm2.044-3.802c.176-.154.33-.308.33-.352 0-.043-.154-.087-.33-.087-.175 0-.33.153-.33.351 0 .308.067.308.33.088zm.176 4.11c.286-.088 1.121-1.494 1.363-2.308.132-.461.088-.483-1.407-.483-.835 0-1.604.11-1.67.242-.198.307 1.384 2.659 1.714 2.55zM14.813 6.99c-.682-.33-.902-.747-.572-1.055.066-.088.198-.154.242-.154.33 0 3.56 2.308 3.56 2.528 0 .615-.615.813-1.692.593l-1.055-.22.66.528c.373.308.878.66 1.164.77.528.197.484.637-.088.637-.175 0-.307.175-.307.395 0 .484-.418.923-.88.923-.197 0-.835-.241-1.428-.55-.791-.395-1.143-.46-1.363-.285-.154.132-.285.308-.285.396 0 .176 2.593 1.758 2.879 1.758.11 0 .198.088.198.22 0 .66-2.858-.396-3.363-1.253-.242-.374-.616-.374-.462.022.132.352-.55.681-.857.374-.351-.352.066-1.121.945-1.693.462-.307.88-.747.945-.989.066-.263.374-.483.792-.55.747-.153.835-.329.351-.746-.395-.33-.44-1.1-.044-1.1.132 0 .77.155 1.363.33l1.099.33-.55-.44a7.961 7.961 0 0 0-1.252-.769zm1.208 4.176c.066-.044-.066-.351-.263-.66-.264-.395-.55-.549-1.1-.549-.724 0-1.01.132-1.01.484 0 .11.198.132.44.066.241-.066.439-.044.439.066 0 .242 1.319.769 1.494.593zm8.132-1.934c-.945.55-1.714 1.12-1.714 1.275 0 .175.154.241.396.175.307-.066.505.132.835.857.207.469.311.705.492.816.185.113.448.097.98.064.835-.066 1.011-.022.902.241-.067.176-.023.396.11.484.373.22.285.461-.308.725-.747.352-.747 1.011 0 .835.395-.11.505-.066.417.154-.11.33.99 1.802 1.187 1.583.066-.066-.022-.374-.198-.682-.264-.527-.264-.615.22-.989.637-.527 2.66-.615 2.242-.11-.374.462.088.66.505.22.198-.176.352-.417.352-.527 0-.33-1.23-.88-1.978-.88-.725 0-.791-.131-.33-.747.352-.461.44-1.582.154-1.736-.088-.066-1.033.132-2.11.418-1.099.285-2.022.483-2.066.417-.22-.198.198-.769.55-.769.593 0 1.802-.813 2.066-1.407.307-.637-.066-1.45-.638-1.428-.198.022-1.143.461-2.066 1.01zm2.044.264c-.33.571-1.494 1.186-1.934 1.01-.264-.087-.022-.33.835-.857.66-.395 1.21-.68 1.253-.659.044.022-.022.264-.154.506zm1.517 2.615c0 .088-.11.286-.264.44-.154.153-.351.263-.44.263-.285 0-.197-.615.11-.725.418-.176.594-.176.594.022zm-16.418 2.703c-.285-.373-.373-1.187-.132-1.406.352-.374.726-.132.594.373-.088.396.044.638.593 1.1.813.68 1.539.68 1.846-.045.308-.681.638-.615.44.11-.198.835-.506 1.165-1.077 1.165-.527 0-1.868-.77-2.264-1.297zM9.054 16.31c-.263.176-.263.264-.044.55.176.197.396.351.506.351.11 0 .791.462 1.516 1.033 1.231.945 1.275 1.033.88 1.319-.374.263-.506.22-1.078-.374-.373-.352-.835-.66-1.032-.66-.726 0-1.934.924-1.803 1.385.088.264 4.176 1.89 4.418 1.737.11-.066-.022-.286-.286-.506-.483-.395-.483-.417-.088-.945.22-.308.462-.571.572-.571.264 0 .176-.594-.22-1.297-.55-.945-.176-1.275.923-.813.462.198.88.307.945.264.22-.242-.198-.792-.879-1.143-.835-.44-3.846-.66-4.33-.33zm2.44.945c-.198.198-.33.198-.528 0-.197-.198-.153-.264.264-.264.418 0 .462.066.264.264zm-.835 2.352c.615.681.241.9-.813.505-1.165-.44-1.187-.461-.814-.703a1.266 1.266 0 0 1 1.627.198zm21.34-.99c-.175-.088-.33-.22-.33-.33 0-.307.594-.22.968.155.835.835-.088 2.505-1.363 2.505-1.56 0-2.55-.835-1.736-1.494.527-.44 1.978-.726 2.176-.418.242.396.088.681-.396.725-.967.044-1.187.11-1.187.308 0 .352 1.363.242 1.802-.154.484-.44.528-1.12.067-1.297zM7.055 21.65c-.55.88-.505 1.847.066 1.759.198-.044 1.077.197 1.934.505 1.56.55 2.396.681 2.396.374 0-.088-.418-.33-.923-.528-.99-.351-1.143-.725-.747-1.89.285-.835-.242-.55-.638.352-.373.835-.395.835-1.12.615-.88-.286-.924-.417-.22-1.12.285-.286.461-.572.395-.638-.285-.308-.747-.088-1.143.571zm22.968.176c0-.241.351-.351 1.428-.461l.485-.04a96.55 96.55 0 0 0 1.317-.114c.198-.022.44.066.528.22.154.242-.374.813-1.473 1.582-.285.176-.44.418-.352.484.176.197 2.55-.704 3.034-1.143.263-.242.417-.264.527-.088.242.374-.462 1.01-1.67 1.538-2.198.923-3.67.154-2.242-1.186l.615-.572-1.099.044c-.857.044-1.099 0-1.099-.264z" clip-rule="evenodd"/></g><defs><clipPath id="a"><path fill="#ffffff" d="M0 0h40v40H0z"/></clipPath></defs></svg>