<svg xmlns="http://www.w3.org/2000/svg" width="250" height="250" version="1.1" fill="#000000"><path fill-opacity=".231" d="M 15.460 1.064 C 11.039 2.350, 4.494 8.347, 2.088 13.318 C 0.011 17.610, 0 18.172, 0 124.751 C 0 195.822, 0.347 232.781, 1.030 234.579 C 2.852 239.370, 8.105 245.019, 13.085 247.543 L 17.934 250 124.717 249.990 L 231.500 249.980 236.541 247.633 C 242.166 245.014, 246.236 240.755, 248.136 235.500 C 248.832 233.575, 249.761 232, 250.201 232 C 250.640 232, 251 183.373, 251 123.941 C 251 63.843, 250.618 16.118, 250.140 16.414 C 249.666 16.706, 248.463 15.136, 247.465 12.923 C 245.407 8.358, 240.213 3.405, 235.355 1.375 C 232.628 0.236, 213.772 0.015, 125.282 0.090 C 66.552 0.140, 17.132 0.578, 15.460 1.064 M 0.482 125 C 0.482 184.675, 0.603 209.087, 0.750 179.250 C 0.897 149.412, 0.897 100.587, 0.750 70.750 C 0.603 40.912, 0.482 65.325, 0.482 125" stroke="none" fill="#000000" fill-rule="evenodd"/><path fill-opacity=".301" d="M 15.275 1.654 C 10.063 3.500, 2.842 11.245, 1.189 16.764 C -0.369 21.965, -0.520 227.588, 1.030 233.169 C 1.591 235.188, 4.069 239.085, 6.536 241.829 C 14.395 250.570, 6.125 250, 125 250 C 217.454 250, 230.180 249.817, 234.250 248.430 C 239.745 246.558, 247.741 238.545, 248.650 234 C 248.985 232.327, 249.650 230.716, 250.129 230.420 C 250.615 230.120, 251 182.989, 251 123.882 C 251 65.582, 250.617 18.119, 250.148 18.408 C 249.680 18.698, 248.773 17.184, 248.132 15.045 C 246.695 10.249, 238.405 2.485, 233.169 1.030 C 230.776 0.366, 192.977 0.037, 124.500 0.085 C 33.973 0.148, 18.918 0.364, 15.275 1.654 M 0.482 125 C 0.482 183.575, 0.603 207.538, 0.750 178.250 C 0.897 148.963, 0.897 101.038, 0.750 71.750 C 0.603 42.463, 0.482 66.425, 0.482 125 M 151.542 46.250 C 150.971 48.056, 147.996 65.269, 147.998 66.750 C 148 67.696, 151.768 68, 163.500 68 C 172.025 68, 179.001 67.662, 179.003 67.250 C 179.009 65.950, 182.067 48.582, 182.613 46.750 C 183.094 45.136, 181.924 45, 167.536 45 C 155.934 45, 151.836 45.320, 151.542 46.250 M 103.453 75.667 L 100.407 76.096 92.176 117.298 C 87.650 139.959, 83.958 159.512, 83.973 160.750 C 84 162.979, 84.138 163, 98.500 163 C 106.475 163, 113 162.887, 113 162.750 C 113.001 162.174, 116.356 145.426, 122.967 113.009 C 126.835 94.039, 130 77.839, 130 77.009 C 130 75.757, 128 75.478, 118.250 75.369 C 111.787 75.297, 105.129 75.431, 103.453 75.667 M 144 77.072 C 144 78.212, 142.677 85.300, 141.060 92.822 C 137.967 107.213, 127.737 155.616, 125.806 165 C 123.758 174.953, 128.499 174, 81.032 174 C 41.983 174, 39.101 174.119, 38.645 175.750 C 37.394 180.218, 34.689 203.022, 35.333 203.667 C 35.733 204.066, 61.100 204.417, 91.705 204.446 L 147.350 204.500 148.169 201.500 C 148.619 199.850, 150.585 191.075, 152.536 182 C 154.488 172.925, 156.530 163.824, 157.074 161.775 L 158.063 158.050 173.747 157.775 L 189.430 157.500 192.184 144.500 C 193.699 137.350, 194.953 130.825, 194.971 130 C 194.998 128.719, 192.814 128.544, 180.001 128.800 L 165 129.100 165.027 126.800 C 165.042 125.535, 166.065 120, 167.300 114.500 L 169.546 104.500 189.624 104.230 L 209.703 103.960 212.448 91.469 C 213.957 84.600, 215.427 78.084, 215.713 76.989 C 216.225 75.031, 215.677 75, 180.117 75 C 144.247 75, 144 75.014, 144 77.072 M 54.530 102.250 C 52.653 108.005, 41.918 160.344, 42.372 161.527 C 42.867 162.818, 45.226 163.011, 57.659 162.777 L 72.361 162.500 78.029 134.880 C 81.147 119.690, 83.980 105.852, 84.324 104.130 L 84.950 101 69.944 101 C 58.823 101, 54.832 101.324, 54.530 102.250" stroke="none" fill="#000000" fill-rule="evenodd"/><path fill-opacity=".577" d="M 17.764 0.987 C 11.442 2.911, 5.861 7.680, 2.304 14.196 C 0.597 17.322, 0.500 23.289, 0.500 125 L 0.500 232.500 3 236.953 C 5.963 242.231, 12.555 247.534, 17.965 248.991 C 20.580 249.695, 56.238 249.948, 127.173 249.768 L 232.500 249.500 236.595 247.309 C 241.534 244.666, 246.134 239.626, 247.881 234.946 C 248.588 233.051, 249.579 230.719, 250.083 229.764 C 251.276 227.504, 251.314 18.688, 250.122 19.425 C 249.639 19.723, 248.988 18.692, 248.677 17.134 C 247.825 12.873, 241.973 5.818, 236.953 3 L 232.500 0.500 126.500 0.327 C 68.200 0.232, 19.269 0.529, 17.764 0.987 M 0.482 125 C 0.482 183.025, 0.602 206.762, 0.750 177.750 C 0.897 148.737, 0.897 101.262, 0.750 72.250 C 0.602 43.237, 0.482 66.975, 0.482 125 M 150.612 47.750 C 150.312 49.263, 149.591 53.425, 149.010 57 C 148.429 60.575, 147.731 64.513, 147.458 65.750 L 146.962 68 162.962 68 C 178.751 68, 178.968 67.970, 179.424 65.750 C 181.284 56.683, 181.987 52.963, 182.542 49.250 L 183.176 45 167.167 45 L 151.159 45 150.612 47.750 M 100 75.449 C 100 75.999, 95.746 97.341, 89.126 130 C 86.395 143.475, 83.858 156.424, 83.488 158.777 L 82.815 163.053 98.113 162.777 L 113.410 162.500 115.158 154 C 119.328 133.714, 131 75.830, 131 75.434 C 131 75.195, 124.025 75, 115.500 75 C 106.975 75, 100 75.202, 100 75.449 M 144 75.606 C 144 76.326, 135.909 115.065, 128.880 148 C 126.121 160.925, 123.557 171.806, 123.182 172.180 C 122.807 172.554, 103.717 172.972, 80.761 173.108 C 43.809 173.327, 38.968 173.536, 38.555 174.928 C 38.043 176.654, 35.528 191.806, 34.541 199.117 C 33.925 203.675, 33.958 203.742, 37.084 204.367 C 38.825 204.715, 64.476 205, 94.086 205 L 147.923 205 148.865 201.250 C 149.383 199.188, 151.722 188.613, 154.062 177.750 L 158.317 158 174.158 158 C 182.871 158, 190 157.791, 190 157.535 C 190 157.279, 191.350 150.738, 193 143 C 194.650 135.262, 196 128.721, 196 128.465 C 196 128.209, 189.005 128, 180.455 128 L 164.909 128 165.519 124.750 C 165.855 122.963, 166.889 117.900, 167.817 113.500 L 169.504 105.500 189.926 105 L 210.348 104.500 213.127 91.500 C 214.655 84.350, 215.926 77.713, 215.952 76.750 C 215.997 75.115, 213.637 75, 180 75 C 160.200 75, 144 75.273, 144 75.606 M 54.661 100.750 C 53.999 101.834, 42.157 155.932, 41.800 159.500 L 41.500 162.500 57.250 162.775 C 65.912 162.927, 73 162.890, 73 162.694 C 73 162.498, 74.081 156.974, 75.403 150.419 C 76.724 143.863, 79.424 130.465, 81.403 120.645 C 83.381 110.825, 85 102.162, 85 101.395 C 85 100.264, 82.174 100, 70.059 100 C 61.841 100, 54.912 100.338, 54.661 100.750" stroke="none" fill="#000000" fill-rule="evenodd"/><path fill-opacity=".966" d="M 17.479 1.801 C 10.015 4.382, 6.440 7.404, 3.312 13.774 L 0.500 19.500 0.213 122.500 C 0.014 194.184, 0.258 226.868, 1.014 230 C 2.785 237.329, 7.687 243.664, 14 246.783 L 19.500 249.500 125.500 249.500 L 231.500 249.500 235.500 247.338 C 242.326 243.647, 249 235.130, 249 230.109 C 249 229.014, 249.450 227.840, 250 227.500 C 250.656 227.094, 251 191.470, 251 123.882 C 251 67.232, 250.636 21.107, 250.192 21.382 C 249.747 21.656, 248.819 19.774, 248.130 17.198 C 247.225 13.811, 245.528 11.214, 242.002 7.815 C 233.416 -0.461, 240.303 -0.004, 124.568 0.033 C 30.317 0.063, 22.115 0.198, 17.479 1.801 M 0.482 125 C 0.482 181.925, 0.602 205.213, 0.750 176.750 C 0.897 148.288, 0.897 101.713, 0.750 73.250 C 0.602 44.788, 0.482 68.075, 0.482 125 M 150.478 45.500 C 150.329 46.050, 149.659 49.875, 148.987 54 C 148.316 58.125, 147.399 62.988, 146.948 64.806 C 146.371 67.138, 146.492 68.252, 147.357 68.584 C 148.032 68.842, 155.533 68.930, 164.027 68.777 L 179.470 68.500 181.668 57.017 C 182.877 50.701, 183.684 45.350, 183.460 45.127 C 182.524 44.191, 150.735 44.551, 150.478 45.500 M 101.500 74.944 C 99.756 75.656, 98.430 81.059, 91.148 117.131 C 86.554 139.884, 82.954 159.625, 83.148 161 L 83.500 163.500 98.167 163.500 C 106.234 163.500, 113.103 163.232, 113.430 162.904 C 113.758 162.576, 117.991 142.704, 122.837 118.744 L 131.649 75.180 128.699 74.590 C 124.372 73.724, 103.831 73.992, 101.500 74.944 M 143.642 75.738 C 143.367 76.707, 141.506 85.375, 139.507 95 C 135.610 113.764, 126.681 156.169, 124.839 164.669 C 124.222 167.512, 123.379 170.387, 122.965 171.057 C 122.401 171.970, 111.703 172.401, 80.254 172.779 L 38.297 173.284 36.174 185.892 C 35.007 192.826, 33.927 199.850, 33.776 201.500 L 33.500 204.500 90.346 205 C 121.612 205.275, 147.554 205.275, 147.995 205 C 148.437 204.725, 150.006 198.650, 151.482 191.500 C 154.001 179.300, 157.502 163.794, 158.667 159.672 C 159.144 157.986, 160.399 157.864, 174.739 158.108 L 190.293 158.372 192.619 147.436 C 193.898 141.421, 195.243 134.588, 195.608 132.250 L 196.272 128 180.717 128 L 165.161 128 165.958 124.750 C 166.396 122.963, 167.559 117.787, 168.541 113.250 L 170.327 105 190.507 105 L 210.687 105 212.439 96.250 C 213.402 91.438, 214.573 86.150, 215.042 84.500 C 215.510 82.850, 216.030 79.925, 216.197 78 L 216.500 74.500 180.321 74.238 C 146.495 73.992, 144.110 74.090, 143.642 75.738 M 52.057 109.250 C 49.382 120.767, 44.467 142.999, 42.342 153.190 C 41.461 157.419, 41.009 161.581, 41.338 162.440 C 41.842 163.752, 44.045 163.984, 55.219 163.900 C 62.523 163.845, 69.616 163.490, 70.979 163.110 C 73.335 162.454, 73.695 161.274, 78.180 139.460 C 84.219 110.092, 85.825 101.159, 85.183 100.517 C 84.899 100.232, 77.813 100, 69.436 100 L 54.206 100 52.057 109.250" stroke="none" fill="#000000" fill-rule="evenodd"/></svg>