<!-- Generated by IcoMoon.io -->
<svg version="1.1" xmlns="http://www.w3.org/2000/svg" width="32" height="32" viewBox="0 0 32 32" fill="#000000">
<title>fun</title>
<path d="M1.809 16.045c0.001 0.877 0.081 1.751 0.241 2.613l-1.778 0.333c0.181 0.972 0.452 1.924 0.809 2.846l1.686-0.657c0.317 0.817 0.708 1.602 1.169 2.346l-1.537 0.957c0.521 0.839 1.117 1.628 1.781 2.358l1.335-1.223c0.59 0.647 1.238 1.239 1.935 1.768l-1.090 1.447c0.786 0.596 1.626 1.117 2.508 1.558l0.806-1.623c0.782 0.39 1.599 0.707 2.44 0.946l-0.492 1.747c0.948 0.269 1.92 0.449 2.901 0.538l0.164-1.806c0.43 0.039 0.868 0.059 1.303 0.059 0.439 0 0.882-0.021 1.316-0.060l0.166 1.806c0.981-0.090 1.953-0.271 2.901-0.541l-0.495-1.745c0.84-0.24 1.657-0.557 2.438-0.948l0.808 1.623c0.882-0.441 1.721-0.964 2.507-1.56l-1.091-1.446c0.697-0.529 1.344-1.121 1.934-1.769l1.337 1.222c0.664-0.73 1.26-1.52 1.779-2.36l-1.537-0.956c0.46-0.745 0.852-1.531 1.167-2.348l1.687 0.655c0.356-0.922 0.626-1.875 0.806-2.846l-1.775-0.331c0.16-0.862 0.241-1.737 0.242-2.613v-0.026l1.806-0.003c-0.002-0.988-0.094-1.973-0.276-2.944l-1.779 0.334c-0.162-0.861-0.402-1.705-0.72-2.521l1.685-0.659c-0.358-0.921-0.8-1.806-1.321-2.645l-1.535 0.959c-0.462-0.744-0.992-1.444-1.582-2.091l1.335-1.224c-0.665-0.729-1.396-1.395-2.183-1.99l-1.089 1.448c-0.698-0.527-1.444-0.99-2.227-1.38l0.805-1.624c-0.884-0.44-1.805-0.796-2.755-1.065l-0.491 1.745c-0.841-0.238-1.702-0.397-2.573-0.476l0.163-1.806c-0.478-0.043-0.962-0.064-1.452-0.065-0.505 0-1.003 0.023-1.496 0.070l0.167 1.806c-0.87 0.081-1.731 0.242-2.571 0.482l-0.496-1.744c-0.948 0.271-1.869 0.631-2.751 1.073l0.809 1.622c-0.782 0.393-1.525 0.856-2.222 1.386l-1.093-1.445c-0.785 0.597-1.514 1.265-2.178 1.995l1.338 1.221c-0.588 0.648-1.117 1.35-1.577 2.095l-1.538-0.954c-0.519 0.84-0.959 1.727-1.315 2.649l1.687 0.654c-0.315 0.817-0.553 1.662-0.712 2.523l-1.779-0.329c-0.178 0.966-0.267 1.947-0.267 2.929v0.014zM17.609 27.276l-0.096-0.675c1.005-0.144 1.984-0.432 2.907-0.856l0.283 0.62c-0.983 0.45-2.025 0.757-3.095 0.91zM27.322 16.031c0.001 1.083-0.152 2.161-0.456 3.2l-0.653-0.193c0.285-0.977 0.43-1.99 0.429-3.008v-0.018l0.68-0.002v0.019zM25.515 9.876c0.587 0.91 1.040 1.899 1.346 2.938l-0.652 0.192c-0.288-0.976-0.713-1.906-1.265-2.761zM24.954 21.803l0.572 0.369c-0.585 0.911-1.296 1.733-2.112 2.443l-0.445-0.515c0.767-0.667 1.435-1.441 1.985-2.297zM20.686 5.691c0.983 0.449 1.897 1.037 2.714 1.746l-0.445 0.516c-0.768-0.666-1.627-1.219-2.551-1.641zM18.971 13.231h1.585l2.061 3.048v-3.048h1.615v5.515h-1.607l-2.055-3.031v3.031h-1.599zM15.992 4.674c0.534 0 1.068 0.038 1.597 0.112l-0.095 0.675c-1.006-0.142-2.026-0.14-3.032 0.004l-0.097-0.675c0.538-0.077 1.082-0.116 1.626-0.116zM12.718 13.231h1.695v3.36c0 0.3 0.085 0.535 0.251 0.704s0.397 0.253 0.692 0.253c0.292 0 0.525-0.083 0.691-0.25s0.253-0.402 0.253-0.708v-3.36h1.695v3.282c0.001 0.314-0.052 0.626-0.155 0.922-0.1 0.286-0.263 0.545-0.478 0.759-0.216 0.217-0.443 0.369-0.681 0.456-0.33 0.123-0.726 0.184-1.188 0.184-0.293-0.001-0.585-0.020-0.875-0.056-0.316-0.038-0.581-0.112-0.793-0.224s-0.407-0.27-0.583-0.475c-0.176-0.205-0.299-0.417-0.364-0.635-0.105-0.35-0.16-0.661-0.16-0.931v-3.282zM14.481 26.602l-0.096 0.675c-1.070-0.152-2.113-0.458-3.096-0.908l0.283-0.62c0.924 0.423 1.903 0.71 2.909 0.853zM11.273 5.703l0.284 0.62c-0.923 0.425-1.781 0.979-2.547 1.648l-0.446-0.515c0.815-0.71 1.727-1.301 2.709-1.753zM7.76 13.231h4.19v1.186h-2.479v0.962h2.127v1.106h-2.127v2.26h-1.711zM9.024 24.105l-0.445 0.515c-0.817-0.709-1.528-1.531-2.114-2.441l0.572-0.369c0.551 0.856 1.22 1.628 1.987 2.295zM6.454 9.901l0.572 0.369c-0.549 0.856-0.973 1.787-1.258 2.764l-0.654-0.192c0.303-1.040 0.754-2.030 1.338-2.942zM5.343 16.041c0 1.018 0.145 2.031 0.431 3.008l-0.652 0.193c-0.304-1.039-0.459-2.116-0.459-3.199z"/>
</svg>
