<svg xmlns="http://www.w3.org/2000/svg" width="64" height="64" version="1.1" fill="#000000"><path fill-opacity=".157" d="M 22.396 1.418 C 8.608 5.734, -0.932 19.892, 0.238 34.304 C 2.227 58.803, 29.167 71.981, 49.674 58.485 C 55.302 54.782, 59.947 48.788, 62.063 42.500 C 62.803 40.300, 63.766 38.072, 64.204 37.550 C 65.170 36.397, 65.283 24.383, 64.319 25.347 C 63.945 25.722, 62.991 24.112, 62.199 21.769 C 56.700 5.503, 38.720 -3.691, 22.396 1.418 M 47 22 C 47 22.550, 47.477 23, 48.059 23 C 48.641 23, 48.840 22.550, 48.500 22 C 48.160 21.450, 47.684 21, 47.441 21 C 47.198 21, 47 21.450, 47 22 M 0.320 32 C 0.320 35.575, 0.502 37.038, 0.723 35.250 C 0.945 33.462, 0.945 30.538, 0.723 28.750 C 0.502 26.962, 0.320 28.425, 0.320 32 M 47 28 C 47 28.550, 47.477 29, 48.059 29 C 48.641 29, 48.840 28.550, 48.500 28 C 48.160 27.450, 47.684 27, 47.441 27 C 47.198 27, 47 27.450, 47 28 M 31.500 33 C 31.160 33.550, 31.359 34, 31.941 34 C 32.523 34, 33 33.550, 33 33 C 33 32.450, 32.802 32, 32.559 32 C 32.316 32, 31.840 32.450, 31.500 33 M 31 44 C 31 44.550, 31.450 45, 32 45 C 32.550 45, 33 44.550, 33 44 C 33 43.450, 32.550 43, 32 43 C 31.450 43, 31 43.450, 31 44" stroke="none" fill="#000000" fill-rule="evenodd"/><path fill-opacity=".256" d="M 23.951 1.303 C 14.895 3.863, 6.679 11.040, 2.687 19.878 C -0.216 26.304, -0.205 37.720, 2.710 44.176 C 5.683 50.759, 12.247 57.484, 18.853 60.716 C 26.180 64.301, 36.966 64.546, 44.176 61.290 C 53.171 57.227, 63 45.257, 63 38.363 C 63 37.128, 63.450 35.840, 64 35.500 C 64.550 35.160, 65 33.082, 65 30.882 C 65 28.470, 64.603 27.127, 64 27.500 C 63.441 27.845, 63 27.076, 63 25.755 C 63 18.856, 53.208 6.749, 44.519 2.905 C 38.845 0.395, 29.684 -0.318, 23.951 1.303 M 31 13 C 31 13.550, 31.450 14, 32 14 C 32.550 14, 33 13.550, 33 13 C 33 12.450, 32.550 12, 32 12 C 31.450 12, 31 12.450, 31 13 M 26 16 C 26 16.550, 26.450 17, 27 17 C 27.550 17, 28 16.550, 28 16 C 28 15.450, 27.550 15, 27 15 C 26.450 15, 26 15.450, 26 16 M 36 16 C 36 16.550, 36.450 17, 37 17 C 37.550 17, 38 16.550, 38 16 C 38 15.450, 37.550 15, 37 15 C 36.450 15, 36 15.450, 36 16 M 21 19 C 21 19.550, 21.450 20, 22 20 C 22.550 20, 23 19.550, 23 19 C 23 18.450, 22.550 18, 22 18 C 21.450 18, 21 18.450, 21 19 M 41 19 C 41 19.550, 41.702 20, 42.559 20 C 43.416 20, 43.840 19.550, 43.500 19 C 43.160 18.450, 42.459 18, 41.941 18 C 41.423 18, 41 18.450, 41 19 M 15.553 21.915 C 15.231 22.436, 15.394 23.125, 15.915 23.447 C 16.436 23.769, 17.125 23.606, 17.447 23.085 C 17.769 22.564, 17.606 21.875, 17.085 21.553 C 16.564 21.231, 15.875 21.394, 15.553 21.915 M 47 22.559 C 47 23.416, 47.457 23.835, 48.016 23.490 C 48.575 23.144, 48.774 22.443, 48.457 21.931 C 47.600 20.544, 47 20.802, 47 22.559 M 21 24.972 C 21 26.328, 22.777 27.170, 23.425 26.121 C 23.735 25.620, 23.316 24.952, 22.494 24.636 C 21.672 24.321, 21 24.472, 21 24.972 M 41.667 24.667 C 41.300 25.033, 41 25.798, 41 26.367 C 41 26.993, 41.466 26.934, 42.183 26.217 C 42.834 25.566, 43.134 24.801, 42.850 24.517 C 42.566 24.233, 42.033 24.300, 41.667 24.667 M 15 27.941 C 15 28.459, 15.450 29.160, 16 29.500 C 16.550 29.840, 17 29.416, 17 28.559 C 17 27.702, 16.550 27, 16 27 C 15.450 27, 15 27.423, 15 27.941 M 47 28.559 C 47 29.416, 47.450 29.840, 48 29.500 C 48.550 29.160, 49 28.459, 49 27.941 C 49 27.423, 48.550 27, 48 27 C 47.450 27, 47 27.702, 47 28.559 M 0.272 32 C 0.272 34.475, 0.467 35.487, 0.706 34.250 C 0.944 33.013, 0.944 30.988, 0.706 29.750 C 0.467 28.512, 0.272 29.525, 0.272 32 M 27 29 C 27 29.550, 27.702 30, 28.559 30 C 29.416 30, 29.840 29.550, 29.500 29 C 29.160 28.450, 28.459 28, 27.941 28 C 27.423 28, 27 28.450, 27 29 M 34.500 29 C 34.160 29.550, 34.584 30, 35.441 30 C 36.298 30, 37 29.550, 37 29 C 37 28.450, 36.577 28, 36.059 28 C 35.541 28, 34.840 28.450, 34.500 29 M 31 33 C 31 33.550, 31.450 34, 32 34 C 32.550 34, 33 33.550, 33 33 C 33 32.450, 32.550 32, 32 32 C 31.450 32, 31 32.450, 31 33 M 15.583 33.866 C 15.152 34.563, 15.070 35.403, 15.400 35.733 C 16.295 36.628, 17.271 35.312, 16.787 33.862 C 16.449 32.846, 16.213 32.846, 15.583 33.866 M 47 34.559 C 47 35.416, 47.450 35.840, 48 35.500 C 48.550 35.160, 49 34.459, 49 33.941 C 49 33.423, 48.550 33, 48 33 C 47.450 33, 47 33.702, 47 34.559 M 31.583 37.866 C 31.152 38.563, 31.070 39.403, 31.400 39.733 C 32.295 40.628, 33.271 39.312, 32.787 37.862 C 32.449 36.846, 32.213 36.846, 31.583 37.866 M 15.150 39.950 C 15.580 41.239, 16.951 41.471, 17.075 40.275 C 17.116 39.876, 16.610 39.370, 15.950 39.150 C 15.290 38.930, 14.930 39.290, 15.150 39.950 M 47 40.559 C 47 41.416, 47.450 41.840, 48 41.500 C 48.550 41.160, 49 40.459, 49 39.941 C 49 39.423, 48.550 39, 48 39 C 47.450 39, 47 39.702, 47 40.559 M 20 43 C 20 43.550, 20.702 44, 21.559 44 C 22.416 44, 22.840 43.550, 22.500 43 C 22.160 42.450, 21.459 42, 20.941 42 C 20.423 42, 20 42.450, 20 43 M 41.500 43 C 41.160 43.550, 41.584 44, 42.441 44 C 43.298 44, 44 43.550, 44 43 C 44 42.450, 43.577 42, 43.059 42 C 42.541 42, 41.840 42.450, 41.500 43 M 31 44 C 31 44.550, 31.450 45, 32 45 C 32.550 45, 33 44.550, 33 44 C 33 43.450, 32.550 43, 32 43 C 31.450 43, 31 43.450, 31 44 M 25.500 46 C 25.160 46.550, 25.610 47, 26.500 47 C 27.390 47, 27.840 46.550, 27.500 46 C 27.160 45.450, 26.710 45, 26.500 45 C 26.290 45, 25.840 45.450, 25.500 46 M 36.500 46 C 36.160 46.550, 36.610 47, 37.500 47 C 38.390 47, 38.840 46.550, 38.500 46 C 38.160 45.450, 37.710 45, 37.500 45 C 37.290 45, 36.840 45.450, 36.500 46 M 31 49 C 31 49.550, 31.450 50, 32 50 C 32.550 50, 33 49.550, 33 49 C 33 48.450, 32.550 48, 32 48 C 31.450 48, 31 48.450, 31 49" stroke="none" fill="#000000" fill-rule="evenodd"/><path fill-opacity=".694" d="M 25.384 1.412 C 8.753 5.448, -2.161 21.567, 1.119 37.250 C 3.981 50.936, 13.003 59.953, 26.750 62.866 C 42.466 66.197, 60.044 54.085, 62.589 38.171 C 62.959 35.853, 63.654 33.714, 64.131 33.419 C 64.609 33.124, 65 31.982, 65 30.882 C 65 29.782, 64.606 29.125, 64.125 29.423 C 63.644 29.720, 62.957 28.131, 62.598 25.890 C 60.693 13.976, 51.175 4.427, 38.147 1.360 C 31.563 -0.189, 31.988 -0.191, 25.384 1.412 M 30.543 12.931 C 29.803 14.128, 31.684 15.313, 33.016 14.490 C 34.135 13.799, 33.400 12, 32 12 C 31.515 12, 30.859 12.419, 30.543 12.931 M 26.094 15.387 C 25.276 16.372, 25.234 17.026, 25.959 17.474 C 26.539 17.833, 27.292 17.404, 27.631 16.520 C 28.475 14.320, 27.547 13.636, 26.094 15.387 M 36.192 16.075 C 36.389 16.666, 36.977 17.150, 37.500 17.150 C 38.023 17.150, 38.611 16.666, 38.808 16.075 C 39.005 15.484, 38.417 15, 37.500 15 C 36.583 15, 35.995 15.484, 36.192 16.075 M 20.192 19.075 C 20.389 19.666, 20.977 20.150, 21.500 20.150 C 22.023 20.150, 22.611 19.666, 22.808 19.075 C 23.005 18.484, 22.417 18, 21.500 18 C 20.583 18, 19.995 18.484, 20.192 19.075 M 41.192 19.075 C 41.389 19.666, 41.977 20.150, 42.500 20.150 C 43.023 20.150, 43.611 19.666, 43.808 19.075 C 44.005 18.484, 43.417 18, 42.500 18 C 41.583 18, 40.995 18.484, 41.192 19.075 M 15 22.583 C 15 23.454, 15.534 23.989, 16.188 23.771 C 18.042 23.153, 18.349 21, 16.583 21 C 15.713 21, 15 21.712, 15 22.583 M 46.229 22.188 C 46.847 24.042, 49 24.349, 49 22.583 C 49 21.712, 48.288 21, 47.417 21 C 46.546 21, 46.011 21.534, 46.229 22.188 M 20.496 25.007 C 20.153 25.561, 20.596 26.292, 21.480 26.631 C 23.394 27.365, 24.461 26.556, 23.541 25.067 C 22.711 23.723, 21.306 23.696, 20.496 25.007 M 40.459 25.067 C 39.539 26.556, 40.606 27.365, 42.520 26.631 C 43.404 26.292, 43.847 25.561, 43.504 25.007 C 42.694 23.696, 41.289 23.723, 40.459 25.067 M 15 28.500 C 15 29.325, 15.450 30, 16 30 C 16.550 30, 17 29.325, 17 28.500 C 17 27.675, 16.550 27, 16 27 C 15.450 27, 15 27.675, 15 28.500 M 27.177 28.556 C 27.534 30.267, 29.268 30.697, 29.767 29.198 C 29.942 28.675, 29.358 27.968, 28.470 27.627 C 27.356 27.199, 26.955 27.487, 27.177 28.556 M 34.961 28.024 C 33.923 28.665, 33.822 29.222, 34.601 30.001 C 35.379 30.779, 36.024 30.675, 36.891 29.631 C 38.338 27.888, 36.993 26.768, 34.961 28.024 M 47 28.500 C 47 29.325, 47.450 30, 48 30 C 48.550 30, 49 29.325, 49 28.500 C 49 27.675, 48.550 27, 48 27 C 47.450 27, 47 27.675, 47 28.500 M 0.158 32 C 0.158 33.375, 0.385 33.938, 0.662 33.250 C 0.940 32.563, 0.940 31.438, 0.662 30.750 C 0.385 30.063, 0.158 30.625, 0.158 32 M 31 33.500 C 31 34.325, 31.450 35, 32 35 C 32.550 35, 33 34.325, 33 33.500 C 33 32.675, 32.550 32, 32 32 C 31.450 32, 31 32.675, 31 33.500 M 15 34.500 C 15 35.325, 15.450 36, 16 36 C 16.550 36, 17 35.325, 17 34.500 C 17 33.675, 16.550 33, 16 33 C 15.450 33, 15 33.675, 15 34.500 M 47 34.500 C 47 35.325, 47.450 36, 48 36 C 48.550 36, 49 35.325, 49 34.500 C 49 33.675, 48.550 33, 48 33 C 47.450 33, 47 33.675, 47 34.500 M 31 38.500 C 31 39.325, 31.450 40, 32 40 C 32.550 40, 33 39.325, 33 38.500 C 33 37.675, 32.550 37, 32 37 C 31.450 37, 31 37.675, 31 38.500 M 15.229 40.188 C 15.847 42.042, 18 42.349, 18 40.583 C 18 39.712, 17.288 39, 16.417 39 C 15.546 39, 15.011 39.534, 15.229 40.188 M 46.543 39.931 C 45.860 41.036, 47.437 42.230, 48.361 41.306 C 49.311 40.355, 49.134 39, 48.059 39 C 47.541 39, 46.859 39.419, 46.543 39.931 M 20.229 43.188 C 20.847 45.042, 23 45.349, 23 43.583 C 23 42.712, 22.288 42, 21.417 42 C 20.546 42, 20.011 42.534, 20.229 43.188 M 31 44 C 31 45.100, 31.450 46, 32 46 C 32.550 46, 33 45.100, 33 44 C 33 42.900, 32.550 42, 32 42 C 31.450 42, 31 42.900, 31 44 M 41.543 42.931 C 40.860 44.036, 42.437 45.230, 43.361 44.306 C 44.311 43.355, 44.134 42, 43.059 42 C 42.541 42, 41.859 42.419, 41.543 42.931 M 25.229 46.188 C 25.847 48.042, 28 48.349, 28 46.583 C 28 45.712, 27.288 45, 26.417 45 C 25.546 45, 25.011 45.534, 25.229 46.188 M 36 46.583 C 36 48.349, 38.153 48.042, 38.771 46.188 C 38.989 45.534, 38.454 45, 37.583 45 C 36.712 45, 36 45.712, 36 46.583 M 30.543 48.931 C 29.803 50.128, 31.684 51.313, 33.016 50.490 C 34.135 49.799, 33.400 48, 32 48 C 31.515 48, 30.859 48.419, 30.543 48.931" stroke="none" fill="#000000" fill-rule="evenodd"/><path fill-opacity=".387" d="M 22.698 4.383 C 6.820 10.300, -0.803 26.761, 5.068 42.451 C 12.293 61.763, 37.784 67.150, 52.467 52.467 C 58.664 46.269, 60.476 41.639, 60.476 32 C 60.476 25.112, 60.050 22.699, 58.231 19.277 C 55.338 13.834, 50.055 8.582, 44.723 5.849 C 39.370 3.105, 28.134 2.357, 22.698 4.383 M 30 13.500 C 30 14.333, 30.889 15, 32 15 C 33.111 15, 34 14.333, 34 13.500 C 34 12.667, 33.111 12, 32 12 C 30.889 12, 30 12.667, 30 13.500 M 25.446 15.087 C 24.416 16.755, 26.733 18.667, 28.113 17.287 C 29.267 16.133, 28.545 14, 27 14 C 26.515 14, 25.816 14.489, 25.446 15.087 M 35.533 14.947 C 34.653 16.370, 35.775 18, 37.632 18 C 38.508 18, 39.010 17.297, 38.823 16.333 C 38.434 14.324, 36.437 13.484, 35.533 14.947 M 20.688 17.646 C 19.314 19.020, 20.026 21.142, 21.750 20.810 C 22.712 20.624, 23.500 19.841, 23.500 19.070 C 23.500 17.491, 21.736 16.598, 20.688 17.646 M 40.464 18.059 C 40.068 18.700, 40.364 19.616, 41.122 20.096 C 43.236 21.435, 44.179 21.169, 43.823 19.333 C 43.421 17.258, 41.426 16.501, 40.464 18.059 M 15.667 20.667 C 14.449 21.885, 14.978 24, 16.500 24 C 17.333 24, 18 23.111, 18 22 C 18 20.008, 16.934 19.399, 15.667 20.667 M 46.658 20.675 C 46.296 21.037, 46 21.933, 46 22.667 C 46 24.156, 48.578 24.492, 49.430 23.113 C 50.111 22.012, 47.562 19.771, 46.658 20.675 M 20.446 24.087 C 19.668 25.347, 21.919 28.168, 23.113 27.430 C 24.505 26.570, 24.151 24.272, 22.532 23.651 C 21.725 23.341, 20.786 23.537, 20.446 24.087 M 41.027 24.467 C 40.368 25.262, 40.106 26.362, 40.446 26.913 C 41.274 28.252, 44 27.132, 44 25.452 C 44 23.400, 42.363 22.858, 41.027 24.467 M 15 27.917 C 15 29.145, 15.646 30, 16.573 30 C 17.505 30, 18.015 29.320, 17.823 28.333 C 17.337 25.824, 15 25.480, 15 27.917 M 46.688 26.646 C 45.314 28.020, 46.026 30.142, 47.750 29.810 C 48.712 29.624, 49.500 28.841, 49.500 28.070 C 49.500 26.491, 47.736 25.598, 46.688 26.646 M 26.464 28.059 C 26.068 28.700, 26.364 29.616, 27.122 30.096 C 29.236 31.435, 30.179 31.169, 29.823 29.333 C 29.421 27.258, 27.426 26.501, 26.464 28.059 M 34.688 27.646 C 33.314 29.020, 34.026 31.142, 35.750 30.810 C 36.712 30.624, 37.500 29.841, 37.500 29.070 C 37.500 27.491, 35.736 26.598, 34.688 27.646 M 30.533 31.947 C 29.653 33.370, 30.775 35, 32.632 35 C 33.508 35, 34.010 34.297, 33.823 33.333 C 33.434 31.324, 31.437 30.484, 30.533 31.947 M 46.688 32.646 C 45.272 34.061, 46.073 36, 48.073 36 C 49.471 36, 50.041 35.457, 49.823 34.333 C 49.466 32.492, 47.759 31.574, 46.688 32.646 M 15.177 34.553 C 15.629 36.725, 17.404 36.858, 17.810 34.750 C 18.020 33.655, 17.530 33, 16.500 33 C 15.539 33, 14.988 33.647, 15.177 34.553 M 30.190 38.750 C 30.376 39.712, 31.190 40.500, 32 40.500 C 32.810 40.500, 33.624 39.712, 33.810 38.750 C 34.046 37.522, 33.506 37, 32 37 C 30.494 37, 29.954 37.522, 30.190 38.750 M 15 39.917 C 15 41.145, 15.646 42, 16.573 42 C 17.505 42, 18.015 41.320, 17.823 40.333 C 17.337 37.824, 15 37.480, 15 39.917 M 46.667 38.667 C 46.300 39.033, 46 39.933, 46 40.667 C 46 42.437, 48.639 42.382, 49.324 40.598 C 50.132 38.492, 48.226 37.107, 46.667 38.667 M 19.624 42.538 C 19.284 43.423, 19.681 44.324, 20.560 44.661 C 22.517 45.412, 23.409 44.509, 22.655 42.543 C 21.896 40.565, 20.382 40.562, 19.624 42.538 M 41.345 42.543 C 40.591 44.509, 41.483 45.412, 43.440 44.661 C 44.319 44.324, 44.716 43.423, 44.376 42.538 C 43.618 40.562, 42.104 40.565, 41.345 42.543 M 30.533 42.947 C 29.653 44.370, 30.775 46, 32.632 46 C 33.508 46, 34.010 45.297, 33.823 44.333 C 33.434 42.324, 31.437 41.484, 30.533 42.947 M 25 46.500 C 25 47.530, 25.655 48.020, 26.750 47.810 C 28.858 47.404, 28.725 45.629, 26.553 45.177 C 25.647 44.988, 25 45.539, 25 46.500 M 35.694 45.639 C 34.761 46.573, 35.888 48, 37.559 48 C 38.352 48, 39 47.325, 39 46.500 C 39 44.994, 36.889 44.444, 35.694 45.639 M 30 49.500 C 30 50.333, 30.889 51, 32 51 C 33.111 51, 34 50.333, 34 49.500 C 34 48.667, 33.111 48, 32 48 C 30.889 48, 30 48.667, 30 49.500" stroke="none" fill="#000000" fill-rule="evenodd"/></svg>