<svg width="500" height="500" viewBox="0 0 500 500" fill="#000000" xmlns="http://www.w3.org/2000/svg">
<path fill-rule="evenodd" clip-rule="evenodd" d="M230.917 1.40393C19.048 25.5634 -74.8627 269.628 69.1638 421.782C223.842 585.188 499.505 475.478 499.505 250.511C499.505 105.894 369.771 -14.4307 230.917 1.40393ZM226.518 106.666C237.712 110.185 238.23 111.304 234.468 123.858C232.296 131.105 231.78 131.514 226.159 130.421C170.332 119.576 150.757 130.982 150.757 174.357V184.036H185.949H221.142V196.745V209.453H185.949H150.757V282.856V356.26L136.583 355.685L122.408 355.11L121.896 282.282L121.383 209.453H101.856H82.3277V196.745V184.036H101.59H120.852L122.013 166.929C125.64 113.478 168.871 88.5479 226.518 106.666ZM270.509 214.31C277.076 220.089 277.08 220.179 270.89 227.534C247.526 255.299 246.75 304.267 269.209 333.688C277.231 344.197 277.166 343.418 270.509 349.276C263.365 355.566 261.72 355.353 254.567 347.205C223.965 312.351 223.656 252.556 253.892 217.231C261.619 208.204 263.247 207.916 270.509 214.31ZM413.605 221.233C434.566 249.707 439.164 285.433 426.297 319.826C422.068 331.127 406.375 354.133 402.894 354.133C400.331 354.133 389.283 346.058 389.283 344.185C389.283 343.42 392.294 338.319 395.975 332.851C416.655 302.12 417.147 260.787 397.172 232.271C387.797 218.888 387.887 219.541 394.659 213.997C402.458 207.609 404.013 208.204 413.605 221.233ZM323.825 246.679C334.181 267.297 333.611 267.327 343.234 245.727L350.687 229.004H364.118C371.507 229.004 377.552 229.337 377.552 229.741C377.552 230.148 371.393 241.509 363.866 254.99C356.339 268.471 350.18 280.42 350.18 281.546C350.18 282.671 356.339 294.722 363.866 308.324C371.393 321.928 377.552 333.4 377.552 333.819C377.552 334.239 371.507 334.581 364.118 334.581H350.687L343.234 317.859C333.618 296.28 334.168 296.315 323.968 316.623L315.232 334.016L306.039 335.277C283.489 338.366 283.579 338.892 301.331 307.503C317.78 278.422 317.784 284.372 301.302 255.264C293.775 241.969 287.616 230.621 287.616 230.048C287.616 229.474 293.765 229.004 301.283 229.004H314.949L323.825 246.679Z" fill="#000000"/>
</svg>
