<svg xmlns="http://www.w3.org/2000/svg" width="250" height="250" version="1.1" fill="#000000"><path fill-opacity=".086" d="M 105.074 38.239 C 98.983 44.420, 94 50.179, 94 51.037 C 94 51.895, 92.200 54.470, 90 56.760 C 87.800 59.049, 86 61.825, 86 62.928 C 86 64.031, 84.425 66.508, 82.500 68.433 C 80.575 70.358, 79 72.848, 79 73.967 C 79 75.085, 78.100 76.900, 77 78 C 75.900 79.100, 75 81.109, 75 82.465 C 75 83.906, 74.170 85.374, 73 86 C 71.699 86.696, 71 88.094, 71 90 C 71 91.906, 70.301 93.304, 69 94 C 67.894 94.592, 67 96.094, 67 97.361 C 67 98.621, 65.875 100.708, 64.500 102 C 63.125 103.292, 62 105.212, 62 106.267 C 62 108.526, 58.328 113.500, 56.659 113.500 C 56.022 113.500, 55.355 115.274, 55.178 117.442 C 55.001 119.611, 54.184 121.876, 53.362 122.477 C 52.540 123.078, 51.611 125.484, 51.297 127.823 C 50.934 130.532, 50.050 132.438, 48.863 133.073 C 47.432 133.839, 47 135.214, 47 139 C 47 142.906, 46.585 144.152, 45 145 C 43.702 145.695, 43 147.094, 43 148.985 C 43 150.706, 42.293 152.296, 41.275 152.866 C 40.326 153.397, 39.503 154.657, 39.446 155.666 C 39.389 156.675, 39.265 158.930, 39.171 160.677 C 39.057 162.793, 38.428 163.964, 37.286 164.183 C 36.252 164.383, 35.532 165.501, 35.471 167.007 C 35.149 174.904, 34.932 175.784, 33.205 176.236 C 31.717 176.625, 31.368 177.952, 31.159 184.026 C 30.988 189.024, 30.448 191.688, 29.457 192.423 C 28.617 193.047, 27.740 196.080, 27.374 199.627 C 26.752 205.644, 26.800 205.805, 30.067 208.627 C 31.896 210.207, 34.375 212.519, 35.575 213.765 C 37.841 216.117, 40.416 215.966, 41.391 213.423 C 41.738 212.519, 43.404 212, 45.960 212 C 48.900 212, 50.319 211.462, 51.232 210 C 52.415 208.106, 53.564 208, 72.834 208 C 92.346 208, 93.209 208.083, 93.710 210 C 94.148 211.674, 95.074 212, 99.394 212 C 103.318 212, 104.966 212.480, 106.268 214 C 107.210 215.100, 109.152 216, 110.584 216 C 112.263 216, 113.357 216.648, 113.664 217.825 C 114.037 219.249, 115.266 219.700, 119.268 219.883 C 123.030 220.055, 124.755 220.633, 125.753 222.058 C 126.772 223.513, 128.294 224, 131.816 224 C 135.488 224, 136.802 224.454, 137.810 226.068 C 139.043 228.042, 139.831 228.122, 155.134 227.818 C 168.373 227.555, 171.369 227.223, 172.333 225.911 C 172.975 225.038, 175.509 224.055, 177.965 223.728 C 180.421 223.400, 182.978 222.383, 183.648 221.466 C 184.391 220.450, 186.259 219.800, 188.433 219.800 C 190.641 219.800, 192 219.318, 192 218.536 C 192 217.120, 198.926 212, 200.842 212 C 202.826 212, 224.327 190.338, 223.565 189.105 C 222.572 187.498, 220.238 187.752, 219.215 189.580 C 218.613 190.656, 216.285 191.337, 211.916 191.715 C 207.505 192.097, 204.941 192.854, 203.711 194.135 C 202.068 195.848, 200.062 196, 179.043 196 C 166.459 196, 155.452 195.727, 154.582 195.393 C 153.712 195.059, 153 194.159, 153 193.393 C 153 192.390, 151.615 192, 148.057 192 C 144.186 192, 142.798 191.549, 141.659 189.923 C 140.859 188.781, 138.969 187.711, 137.460 187.545 C 135.951 187.379, 134.308 186.514, 133.808 185.622 C 133.295 184.705, 131.634 184, 129.985 184 C 128.094 184, 126.695 183.298, 126 182 C 125.085 180.290, 123.906 180, 117.871 180 C 111.654 180, 110.750 179.762, 110.290 178 C 109.797 176.117, 108.926 176, 95.392 176 C 82.100 176, 80.923 176.151, 79.768 178 C 78.784 179.576, 77.436 180, 73.414 180 C 69.580 180, 67.860 180.498, 66.500 182 C 64.159 184.587, 56 184.902, 56 182.406 C 56 181.530, 56.788 180.607, 57.751 180.355 C 59.061 180.012, 59.547 178.746, 59.679 175.340 C 59.797 172.287, 60.540 170.054, 61.928 168.577 C 63.068 167.364, 64 165.211, 64 163.793 C 64 162.374, 64.657 160.962, 65.459 160.654 C 66.333 160.319, 67.192 158.035, 67.599 154.962 C 67.980 152.094, 68.880 149.600, 69.640 149.308 C 70.388 149.021, 71 147.488, 71 145.901 C 71 144.100, 71.751 142.548, 73 141.768 C 74.213 141.011, 75 139.436, 75 137.768 C 75 136.100, 75.787 134.525, 77 133.768 C 78.542 132.805, 79 131.436, 79 127.795 C 79 124.094, 79.433 122.838, 81 122 C 82.132 121.394, 83 119.906, 83 118.571 C 83 116.455, 88.978 108.577, 89.015 110.644 C 89.053 112.757, 90.971 108.225, 90.985 105.991 C 90.993 104.577, 91.873 102.936, 93 102.232 C 94.213 101.475, 95 99.900, 95 98.232 C 95 96.564, 95.787 94.989, 97 94.232 C 98.100 93.545, 99 92.294, 99 91.451 C 99 89.742, 102.813 83.939, 104.750 82.700 C 105.438 82.260, 106 81.309, 106 80.585 C 106 79.862, 106.900 78.126, 108 76.727 C 109.100 75.329, 110.018 73.131, 110.041 71.842 C 110.063 70.554, 111.381 67.981, 112.969 66.124 C 115.324 63.370, 116.331 62.866, 118.428 63.393 C 120.462 63.903, 121 64.654, 121 66.984 C 121 68.906, 121.695 70.302, 123 71 C 124.173 71.628, 125 73.094, 125 74.545 C 125 75.906, 125.900 77.790, 127 78.732 C 128.100 79.674, 129 81.400, 129 82.567 C 129 83.735, 129.900 85.505, 131 86.500 C 132.100 87.495, 133 89.361, 133 90.647 C 133 91.932, 133.900 93.545, 135 94.232 C 136.311 95.051, 137 96.564, 137 98.624 C 137 100.926, 137.535 101.907, 139 102.290 C 140.371 102.648, 141 103.654, 141 105.488 C 141 107.008, 142.427 109.963, 144.305 112.332 C 146.123 114.624, 148.139 117.737, 148.784 119.250 C 149.429 120.763, 150.417 122, 150.979 122 C 151.540 122, 152 123.102, 152 124.448 C 152 125.795, 153.111 128.095, 154.468 129.560 C 155.825 131.025, 157.206 133.073, 157.535 134.111 C 157.865 135.150, 158.554 136, 159.067 136 C 159.580 136, 160 136.789, 160 137.753 C 160 138.718, 161.352 140.782, 163.004 142.342 C 164.656 143.901, 165.755 145.588, 165.445 146.089 C 165.135 146.590, 165.350 147, 165.922 147 C 166.494 147, 167.247 148.137, 167.596 149.526 C 167.945 150.916, 169.078 152.507, 170.115 153.062 C 171.303 153.697, 172 155.153, 172 157 C 172 158.906, 172.699 160.304, 174 161 C 175.310 161.701, 176 163.094, 176 165.035 C 176 167.762, 175.716 168, 172.469 168 C 170.252 168, 168.723 167.441, 168.362 166.500 C 168.045 165.675, 166.806 165, 165.609 165 C 162.815 165, 154.055 155.988, 151.050 150.022 C 149.810 147.559, 147.902 144.919, 146.811 144.155 C 145.570 143.286, 145.016 142.046, 145.332 140.840 C 145.649 139.628, 145.124 138.470, 143.918 137.716 C 142.863 137.058, 142 135.525, 142 134.311 C 142 133.097, 140.889 130.905, 139.532 129.440 C 138.175 127.975, 136.794 125.927, 136.465 124.889 C 136.135 123.850, 135.446 123, 134.933 123 C 134.420 123, 134 122.104, 134 121.008 C 134 119.913, 133.100 118.455, 132 117.768 C 130.900 117.081, 130 115.468, 130 114.183 C 130 112.898, 128.685 110.531, 127.077 108.923 C 121.137 102.983, 110 106.340, 110 114.070 C 110 116.286, 109.392 117.281, 107.625 117.953 C 105.765 118.660, 105.355 119.405, 105.734 121.390 C 106.030 122.937, 105.592 124.551, 104.610 125.533 C 103.725 126.418, 102.714 128.938, 102.363 131.133 C 101.927 133.858, 100.506 136.391, 97.883 139.122 C 95.769 141.322, 94.122 143.431, 94.223 143.811 C 94.731 145.733, 92.757 151.879, 91.473 152.372 C 90.568 152.719, 90 154.273, 90 156.401 C 90 158.987, 89.493 160.026, 88 160.500 C 85.664 161.242, 85.339 163.809, 87.478 164.630 C 89.424 165.377, 95 159.777, 95 157.076 C 95 155.875, 97.321 152.732, 100.500 149.629 C 103.525 146.676, 106 143.767, 106 143.165 C 106 142.563, 106.900 141.589, 108 141 C 109.158 140.381, 110 138.906, 110 137.500 C 110 136.094, 110.842 134.619, 112 134 C 113.100 133.411, 114 132.270, 114 131.465 C 114 130.659, 114.675 130, 115.500 130 C 117.964 130, 121 133.797, 121 136.878 C 121 138.695, 121.776 140.272, 123.106 141.154 C 124.493 142.076, 125.271 143.737, 125.386 146.026 C 125.488 148.055, 126.084 149.500, 126.817 149.500 C 128.695 149.500, 129.992 152.184, 129.350 154.742 C 128.934 156.399, 129.220 157, 130.424 157 C 132.063 157, 134.165 160.822, 133.317 162.261 C 133.070 162.680, 134.251 164.405, 135.941 166.095 C 137.631 167.785, 138.757 169.583, 138.444 170.091 C 138.130 170.599, 138.577 171.284, 139.437 171.614 C 140.296 171.944, 141 172.837, 141 173.598 C 141 175.785, 147.059 181, 149.599 181 C 150.865 181, 152.341 181.787, 152.878 182.750 C 153.749 184.308, 156.034 184.534, 173.721 184.806 L 193.585 185.113 196.793 182.048 C 199.783 179.190, 200 178.526, 200 172.232 C 200 166.564, 199.679 165.281, 198 164.232 C 196.751 163.452, 196 161.900, 196 160.099 C 196 158.457, 195.354 156.966, 194.500 156.638 C 193.675 156.322, 193 155.065, 193 153.846 C 193 152.627, 192.088 150.658, 190.973 149.471 C 189.858 148.284, 188.747 146.281, 188.504 145.020 C 188.088 142.859, 186.876 141.221, 182.750 137.243 C 181.787 136.315, 181 134.600, 181 133.433 C 181 132.265, 180.100 130.495, 179 129.500 C 177.900 128.505, 177 126.639, 177 125.353 C 177 124.068, 176.100 122.455, 175 121.768 C 173.504 120.834, 173 119.436, 173 116.221 C 173 112.567, 172.401 111.299, 169 107.760 C 166.738 105.405, 165 102.614, 165 101.334 C 165 100.089, 164.100 98.589, 163 98 C 161.699 97.304, 161 95.906, 161 94 C 161 92.050, 160.300 90.696, 158.906 89.950 C 157.475 89.184, 156.979 88.188, 157.340 86.806 C 157.689 85.472, 157.040 84.015, 155.435 82.527 C 154.096 81.286, 153 79.193, 153 77.876 C 153 76.559, 152.100 74.919, 151 74.232 C 149.787 73.475, 149 71.900, 149 70.232 C 149 68.564, 148.213 66.989, 147 66.232 C 145.887 65.537, 145 63.900, 145 62.541 C 145 61.198, 144.363 59.740, 143.583 59.300 C 142.770 58.840, 141.994 56.421, 141.760 53.616 C 141.515 50.664, 140.717 48.266, 139.743 47.554 C 138.857 46.906, 137.829 45.167, 137.458 43.688 C 137.087 42.210, 136.157 41, 135.392 41 C 134.626 41, 134 40.210, 134 39.245 C 134 38.280, 131.515 35.130, 128.478 32.245 C 119.896 24.093, 118.713 24.396, 105.074 38.239" stroke="none" fill="#000000" fill-rule="evenodd"/><path fill-opacity=".236" d="M 105.511 38.522 C 100.017 44.262, 95.227 50.060, 94.867 51.406 C 94.506 52.753, 92.589 55.478, 90.606 57.461 C 88.623 59.444, 87 61.870, 87 62.852 C 87 63.833, 85.404 66.406, 83.453 68.568 C 81.503 70.731, 79.651 73.714, 79.339 75.199 C 79.026 76.683, 77.922 78.666, 76.885 79.604 C 75.848 80.542, 75 82.349, 75 83.620 C 75 84.906, 74.114 86.404, 73 87 C 71.751 87.668, 71 89.094, 71 90.795 C 71 92.436, 70.205 94.015, 69 94.768 C 67.900 95.455, 67 97.068, 67 98.353 C 67 99.639, 66.100 101.505, 65 102.500 C 63.900 103.495, 63 105.343, 63 106.605 C 63 107.868, 62.369 109.260, 61.597 109.700 C 59.824 110.711, 55 119.725, 55 122.026 C 55 122.977, 54.325 124.315, 53.500 125 C 52.675 125.685, 52 127.536, 52 129.114 C 52 130.900, 51.245 132.455, 50 133.232 C 48.507 134.164, 48 135.564, 48 138.750 C 48 141.782, 47.420 143.516, 46 144.732 C 44.862 145.706, 44 147.682, 44 149.315 C 44 150.893, 43.100 153.329, 42 154.727 C 40.900 156.126, 40 158.601, 40 160.227 C 40 161.854, 39.100 164.329, 38 165.727 C 36.856 167.181, 36 169.784, 36 171.806 C 36 173.751, 35.232 176.191, 34.294 177.228 C 33.165 178.475, 32.444 181.380, 32.165 185.807 C 31.879 190.324, 31.133 193.275, 29.871 194.885 C 28.709 196.366, 28 198.884, 28 201.531 C 28 205.186, 28.522 206.251, 31.664 209.009 C 35.270 212.176, 35.438 212.215, 42.414 211.530 C 47.193 211.060, 50.034 210.261, 51.141 209.075 C 54.492 205.486, 91.782 205.633, 95.395 209.250 C 96.465 210.322, 98.662 211, 101.063 211 C 103.900 211, 105.328 211.553, 106.232 213 C 106.919 214.100, 108.539 215, 109.833 215 C 111.126 215, 113.329 215.900, 114.727 217 C 116.208 218.164, 118.784 219, 120.894 219 C 123.436 219, 124.892 219.598, 125.768 221 C 126.733 222.546, 128.100 223, 131.786 223 C 135.318 223, 137 223.519, 138.268 225 C 139.833 226.828, 141.218 227, 154.355 227 C 167.216 227, 168.998 226.789, 171.273 225 C 172.671 223.900, 175.152 223, 176.785 223 C 178.419 223, 180.313 222.328, 180.994 221.507 C 181.675 220.686, 184.033 219.530, 186.234 218.937 C 188.434 218.345, 190.744 217.448, 191.367 216.945 C 197.488 212.002, 198.987 211, 200.262 211 C 202.012 211, 219.013 195.006, 219.005 193.367 C 219.002 192.743, 219.900 191.998, 221 191.710 C 222.100 191.423, 223 190.695, 223 190.094 C 223 188.451, 220.299 188.778, 219.638 190.500 C 219.241 191.537, 217.622 192, 214.399 192 C 211.617 192, 208.479 192.756, 206.618 193.874 C 199.914 197.903, 155.475 198.253, 152.328 194.302 C 151.683 193.493, 149.208 192.582, 146.828 192.278 C 144.448 191.973, 141.695 190.886, 140.711 189.862 C 139.727 188.838, 137.830 188, 136.496 188 C 135.094 188, 133.619 187.156, 133 186 C 132.279 184.653, 130.906 184, 128.794 184 C 127.069 184, 124.841 183.261, 123.843 182.358 C 122.642 181.271, 120.016 180.664, 116.069 180.563 C 112.028 180.459, 109.503 179.860, 108.226 178.705 C 105.262 176.022, 86.483 176.259, 81.135 179.047 C 78.670 180.331, 75.696 181.004, 73.146 180.854 C 70.544 180.700, 68.440 181.191, 67.292 182.218 C 66.306 183.100, 63.368 184.138, 60.762 184.523 C 55.010 185.373, 53.637 183.548, 56.904 179.395 C 58.057 177.929, 59 175.286, 59 173.520 C 59 171.580, 59.791 169.594, 61 168.500 C 62.135 167.473, 63 165.420, 63 163.753 C 63 162.137, 63.900 159.671, 65 158.273 C 66.100 156.874, 67 154.511, 67 153.020 C 67 151.530, 67.900 149.495, 69 148.500 C 70.100 147.505, 71 145.735, 71 144.567 C 71 143.400, 71.900 141.674, 73 140.732 C 74.100 139.790, 75 138.038, 75 136.839 C 75 135.639, 75.682 133.904, 76.515 132.983 C 77.348 132.063, 78.194 129.375, 78.394 127.012 C 78.617 124.387, 79.389 122.362, 80.379 121.808 C 81.271 121.309, 82 119.874, 82 118.620 C 82 117.366, 83.794 114.351, 85.986 111.920 C 88.178 109.489, 89.978 106.503, 89.986 105.285 C 89.994 104.067, 90.900 102.589, 92 102 C 93.114 101.404, 94 99.906, 94 98.620 C 94 97.349, 94.900 95.495, 96 94.500 C 97.100 93.505, 98 91.951, 98 91.048 C 98 89.399, 99.578 86.987, 103.750 82.258 C 104.987 80.856, 106 78.889, 106 77.889 C 106 76.889, 106.900 75.589, 108 75 C 109.224 74.345, 110.016 72.877, 110.041 71.215 C 110.063 69.702, 111.386 66.974, 113.028 65.053 C 115.656 61.978, 116.274 61.710, 118.738 62.571 C 120.868 63.315, 121.572 64.276, 121.813 66.767 C 122.002 68.708, 122.899 70.411, 124.063 71.034 C 125.251 71.670, 126 73.123, 126 74.795 C 126 76.436, 126.795 78.015, 128 78.768 C 129.100 79.455, 130 81.068, 130 82.353 C 130 83.639, 130.900 85.505, 132 86.500 C 133.100 87.495, 134 89.265, 134 90.433 C 134 91.600, 134.900 93.326, 136 94.268 C 137.100 95.210, 138 96.628, 138 97.419 C 138 98.210, 138.731 99.588, 139.625 100.482 C 140.519 101.376, 141.237 103.321, 141.222 104.804 C 141.197 107.275, 142.421 109.094, 147.250 113.755 C 148.213 114.684, 149 116.466, 149 117.714 C 149 118.962, 149.900 120.545, 151 121.232 C 152.100 121.919, 153 123.559, 153 124.876 C 153 126.193, 154.012 128.271, 155.250 129.494 C 158.615 132.820, 161 136.241, 161 137.742 C 161 138.476, 162.800 140.951, 165 143.240 C 167.262 145.595, 169 148.386, 169 149.666 C 169 150.911, 169.900 152.411, 171 153 C 172.301 153.696, 173 155.094, 173 157 C 173 158.906, 173.699 160.304, 175 161 C 177.218 162.187, 177.659 165.941, 175.800 167.800 C 173.744 169.856, 169.286 169.125, 164.601 165.963 C 158.969 162.162, 149 151.252, 149 148.889 C 149 147.915, 148.574 146.855, 148.053 146.533 C 145.767 145.120, 141 136.639, 141 133.985 C 141 132.094, 140.298 130.695, 139 130 C 137.900 129.411, 137 128.256, 137 127.433 C 137 126.611, 136.366 125.694, 135.590 125.396 C 134.815 125.099, 133.878 123.650, 133.509 122.178 C 133.140 120.705, 131.974 118.695, 130.919 117.711 C 129.863 116.727, 129 115.124, 129 114.148 C 129 111.473, 123.757 106.996, 119.906 106.382 C 117.117 105.938, 115.912 106.368, 113.250 108.759 C 111.143 110.651, 110 112.606, 110 114.315 C 110 115.765, 109.102 118.425, 108.004 120.226 C 106.906 122.027, 106.006 124.443, 106.004 125.595 C 106.002 126.747, 105.100 128.505, 104 129.500 C 102.893 130.502, 102 132.580, 102 134.155 C 102 135.720, 101.588 137, 101.085 137 C 99.946 137, 95.170 145.432, 94.336 148.917 C 93.996 150.338, 92.862 152.323, 91.817 153.329 C 90.158 154.923, 90.031 158.122, 91.558 159.850 C 92.279 160.667, 93.826 158.830, 94.424 156.447 C 94.779 155.032, 96.629 152.443, 98.535 150.694 C 100.441 148.945, 102 147.107, 102 146.610 C 102 146.113, 103.474 143.860, 105.276 141.603 C 107.077 139.346, 109.665 135.812, 111.026 133.748 C 112.387 131.685, 114.326 129.730, 115.335 129.404 C 117.963 128.555, 122 132.662, 122 136.184 C 122 137.782, 122.873 139.767, 124 140.732 C 125.100 141.674, 126 143.176, 126 144.069 C 126 144.963, 126.900 146.732, 128 148 C 129.100 149.268, 130 151.068, 130 152 C 130 152.932, 130.900 154.732, 132 156 C 133.100 157.268, 134 158.917, 134 159.663 C 134 160.410, 135.575 163.261, 137.500 166 C 139.425 168.739, 141 171.578, 141 172.310 C 141 174.771, 146.565 180, 149.184 180 C 150.562 180, 152.505 180.900, 153.500 182 C 155.188 183.866, 156.580 184, 174.208 184 L 193.107 184 196.553 181.250 C 199.817 178.646, 200 178.171, 200 172.285 C 200 167.094, 199.671 165.894, 198 165 C 196.886 164.404, 196 162.906, 196 161.620 C 196 160.349, 195.100 158.495, 194 157.500 C 192.900 156.505, 192 154.705, 192 153.500 C 192 152.295, 191.100 150.495, 190 149.500 C 188.900 148.505, 187.985 146.747, 187.967 145.595 C 187.949 144.443, 186.149 141.712, 183.967 139.527 C 181.431 136.987, 180 134.639, 180 133.017 C 180 131.564, 179.146 129.948, 178 129.232 C 176.900 128.545, 176 126.932, 176 125.647 C 176 124.361, 175.100 122.495, 174 121.500 C 172.696 120.320, 172 118.420, 172 116.040 C 172 113.264, 171.163 111.477, 168.500 108.570 C 166.575 106.468, 165 103.905, 165 102.874 C 165 101.843, 164.100 100.100, 163 99 C 161.900 97.900, 161 95.891, 161 94.535 C 161 93.094, 160.170 91.626, 159 91 C 157.699 90.304, 157 88.906, 157 87 C 157 85.094, 156.301 83.696, 155 83 C 153.900 82.411, 153 81.106, 153 80.100 C 153 79.093, 152.128 77.161, 151.062 75.806 C 149.996 74.451, 148.830 72.173, 148.472 70.743 C 148.113 69.314, 147.185 67.901, 146.410 67.604 C 145.634 67.306, 145 65.919, 145 64.522 C 145 63.124, 144.100 61.210, 143 60.268 C 141.900 59.326, 141 57.347, 141 55.870 C 141 53.075, 136.277 43, 134.966 43 C 134.554 43, 133.910 41.763, 133.536 40.250 C 133.161 38.737, 130.586 35.362, 127.814 32.750 C 123.664 28.839, 122.130 28.008, 119.136 28.044 C 115.846 28.083, 114.550 29.080, 105.511 38.522 M 87.177 162.553 C 87.629 164.725, 89.404 164.858, 89.810 162.750 C 90.020 161.655, 89.530 161, 88.500 161 C 87.539 161, 86.988 161.647, 87.177 162.553" stroke="none" fill="#000000" fill-rule="evenodd"/><path fill-opacity=".219" d="M 105.500 39.492 C 100 45.198, 95.348 50.860, 95.162 52.074 C 94.976 53.287, 93.277 55.873, 91.386 57.820 C 89.495 59.768, 87.662 62.517, 87.312 63.930 C 86.963 65.344, 85.849 67.088, 84.838 67.807 C 83.827 68.525, 83 69.708, 83 70.434 C 83 71.161, 82.325 72.315, 81.500 73 C 80.675 73.685, 80 75.020, 80 75.967 C 80 76.915, 79.100 78.505, 78 79.500 C 76.900 80.495, 76 82.145, 76 83.165 C 76 84.185, 75.100 85.790, 74 86.732 C 72.900 87.674, 72 89.679, 72 91.187 C 72 92.906, 71.254 94.329, 70 95 C 68.886 95.596, 68 97.094, 68 98.380 C 68 99.651, 67.100 101.505, 66 102.500 C 64.900 103.495, 64 105.340, 64 106.598 C 64 107.857, 63.213 109.483, 62.250 110.212 C 60.001 111.916, 56 119.330, 56 121.793 C 56 122.836, 55.100 124.505, 54 125.500 C 52.900 126.495, 52 128.574, 52 130.120 C 52 131.906, 51.272 133.320, 50 134 C 48.415 134.848, 48 136.094, 48 140 C 48 143.906, 47.585 145.152, 46 146 C 44.533 146.785, 44 148.094, 44 150.913 C 44 153.026, 43.383 155.267, 42.630 155.892 C 41.876 156.518, 41.014 158.858, 40.714 161.092 C 40.415 163.327, 39.456 165.943, 38.585 166.906 C 37.713 167.869, 37 170.249, 37 172.194 C 37 174.139, 36.158 176.803, 35.129 178.115 C 33.867 179.725, 33.121 182.676, 32.835 187.193 C 32.556 191.620, 31.835 194.525, 30.706 195.772 C 29.665 196.922, 29 199.303, 29 201.877 C 29 205.226, 29.567 206.595, 31.750 208.516 C 34.069 210.558, 35.559 210.942, 41.260 210.968 C 46.806 210.994, 48.327 210.641, 49.732 209 C 51.080 207.426, 52.682 207, 57.254 207 C 60.450 207, 64.680 206.325, 66.654 205.500 C 71.221 203.592, 75.984 203.590, 79.636 205.494 C 81.230 206.325, 85.126 206.990, 88.421 206.994 C 92.347 206.998, 94.917 207.520, 96.047 208.543 C 96.985 209.391, 99.495 210.352, 101.626 210.678 C 103.757 211.004, 106.175 211.850, 107 212.557 C 107.825 213.265, 109.850 214.165, 111.500 214.556 C 113.150 214.948, 115.248 215.917, 116.163 216.710 C 117.077 217.503, 119.458 218.282, 121.453 218.440 C 123.557 218.607, 125.645 219.500, 126.425 220.566 C 127.400 221.900, 128.851 222.341, 131.711 222.172 C 134.426 222.012, 136.457 222.572, 138.234 223.970 C 140.550 225.791, 142.260 226, 154.836 226 C 166.364 226, 169.142 225.715, 170.460 224.398 C 171.341 223.516, 173.724 222.641, 175.755 222.452 C 177.786 222.263, 179.959 221.409, 180.584 220.554 C 181.209 219.699, 182.417 219, 183.268 219 C 185.521 219, 195.128 213.831, 195.714 212.302 C 195.989 211.586, 197.281 211, 198.586 211 C 200.197 211, 203.690 208.367, 209.479 202.789 C 214.165 198.274, 218 194.224, 218 193.789 C 218 192.233, 209.675 192.984, 207.766 194.712 C 206.373 195.973, 203.186 196.604, 195.687 197.104 C 190.084 197.478, 183.885 198.336, 181.912 199.010 C 178.936 200.027, 177.375 199.960, 172.758 198.618 C 169.697 197.728, 164.069 197, 160.251 197 C 154.580 197, 152.979 196.634, 151.500 195 C 150.293 193.667, 148.420 193, 145.880 193 C 143.094 193, 141.783 192.463, 141 191 C 140.304 189.699, 138.906 189, 137 189 C 135.094 189, 133.696 188.301, 133 187 C 132.217 185.537, 130.906 185, 128.120 185 C 125.580 185, 123.707 184.333, 122.500 183 C 121.099 181.452, 119.420 181, 115.068 181 C 111.321 181, 108.620 180.416, 106.973 179.250 C 103.428 176.741, 87.572 176.741, 84.027 179.250 C 82.340 180.445, 79.662 181, 75.592 181 C 71.172 181, 69.095 181.484, 67.564 182.868 C 66.429 183.896, 63.373 185.011, 60.773 185.346 C 56.652 185.877, 55.903 185.686, 54.924 183.858 C 54.010 182.150, 54.192 181.232, 55.901 178.921 C 57.055 177.359, 58 174.783, 58 173.195 C 58 171.608, 58.843 169.547, 59.874 168.614 C 60.904 167.682, 61.991 165.102, 62.289 162.882 C 62.587 160.661, 63.544 158.057, 64.415 157.094 C 65.287 156.131, 66 154.144, 66 152.680 C 66 151.100, 66.813 149.509, 68 148.768 C 69.213 148.011, 70 146.436, 70 144.768 C 70 143.100, 70.787 141.525, 72 140.768 C 73.168 140.038, 74 138.436, 74 136.914 C 74 135.482, 74.900 133.495, 76 132.500 C 77.411 131.223, 78 129.420, 78 126.380 C 78 123.094, 78.475 121.816, 80 121 C 81.249 120.332, 82 118.906, 82 117.205 C 82 115.684, 82.780 113.994, 83.767 113.377 C 84.739 112.770, 86.818 109.737, 88.386 106.637 C 89.955 103.537, 91.635 101, 92.119 101 C 92.604 101, 93 99.872, 93 98.493 C 93 97.066, 94.076 95.051, 95.500 93.813 C 96.875 92.618, 98 90.618, 98 89.369 C 98 88.121, 98.573 86.740, 99.274 86.300 C 100.809 85.336, 104.040 80.533, 105.698 76.750 C 106.361 75.237, 107.375 74, 107.952 74 C 108.528 74, 109 72.676, 109 71.057 C 109 69.283, 109.767 67.576, 110.929 66.762 C 111.991 66.019, 113.164 64.193, 113.538 62.705 C 113.911 61.217, 114.549 60, 114.955 60 C 116.180 60, 121.991 63.097, 122.128 63.823 C 122.198 64.195, 122.358 65.448, 122.484 66.607 C 122.610 67.765, 123.644 69.644, 124.782 70.782 C 126.051 72.051, 126.650 73.621, 126.332 74.840 C 125.985 76.167, 126.481 77.187, 127.824 77.906 C 128.932 78.499, 130.134 80.332, 130.496 81.980 C 130.858 83.628, 131.615 85.262, 132.179 85.611 C 132.743 85.959, 133.840 87.652, 134.617 89.372 C 136.187 92.849, 137.642 95.302, 140.250 98.873 C 141.213 100.191, 142 102.705, 142 104.459 C 142 106.854, 142.992 108.626, 145.983 111.574 C 148.690 114.242, 149.972 116.381, 149.983 118.250 C 149.993 119.926, 150.544 121, 151.393 121 C 152.880 121, 154 123.087, 154 125.860 C 154 126.792, 154.787 128.315, 155.750 129.243 C 159.897 133.242, 161.001 134.780, 161.017 136.584 C 161.026 137.638, 162.826 140.267, 165.017 142.426 C 167.358 144.733, 169 147.295, 169 148.641 C 169 149.906, 169.894 151.408, 171 152 C 172.301 152.696, 173 154.094, 173 156 C 173 157.906, 173.699 159.304, 175 160 C 176.468 160.786, 177 162.094, 177 164.919 C 177 169.295, 175.868 169.949, 169.584 169.206 C 166.238 168.810, 164.382 167.446, 156.834 159.832 C 150.528 153.472, 148 150.218, 148 148.461 C 148 147.108, 147.603 146, 147.119 146 C 145.371 146, 140.855 138.879, 140.290 135.230 C 139.741 131.689, 138.778 130.126, 134.750 126.243 C 133.787 125.315, 133 123.556, 133 122.334 C 133 121.113, 132.165 119.525, 131.143 118.807 C 130.122 118.088, 128.999 116.600, 128.646 115.500 C 127.433 111.713, 122.081 107, 118.995 107 C 115.201 107, 111 111.157, 111 114.911 C 111 116.461, 110.100 118.874, 109 120.273 C 107.900 121.671, 107 123.912, 107 125.253 C 107 126.593, 106.100 128.505, 105 129.500 C 103.900 130.495, 103 132.542, 103 134.048 C 103 135.554, 102.414 137.011, 101.698 137.286 C 100.981 137.561, 99.181 140.125, 97.698 142.985 C 94.978 148.227, 94.230 152, 95.911 152 C 97.159 152, 102 146.136, 102 144.625 C 102 143.953, 103.561 141.850, 105.468 139.952 C 107.376 138.053, 108.951 135.998, 108.968 135.385 C 108.986 134.772, 109.933 133.084, 111.073 131.635 C 112.565 129.738, 114.071 129, 116.450 129 C 120.299 129, 121.497 130.189, 122.496 135 C 122.896 136.925, 123.816 139.176, 124.542 140.002 C 125.267 140.828, 126.341 142.628, 126.928 144.002 C 127.515 145.376, 128.374 147.175, 128.836 148 C 130.192 150.419, 132.615 155.068, 135.957 161.660 C 137.674 165.049, 139.737 168.366, 140.540 169.033 C 141.343 169.700, 142 171.151, 142 172.258 C 142 174.815, 146.723 179.245, 149.811 179.584 C 151.108 179.726, 152.953 180.553, 153.913 181.421 C 155.374 182.744, 158.761 183, 174.777 183 C 193.494 183, 193.951 182.950, 196.448 180.635 C 198.647 178.598, 199 177.426, 199 172.171 C 199 167.094, 198.664 165.891, 197 165 C 195.751 164.332, 195 162.906, 195 161.205 C 195 159.564, 194.205 157.985, 193 157.232 C 191.787 156.475, 191 154.900, 191 153.232 C 191 151.564, 190.213 149.989, 189 149.232 C 187.900 148.545, 187 147.087, 187 145.992 C 187 144.896, 186.079 142.987, 184.954 141.750 C 183.828 140.512, 182.218 138.754, 181.376 137.842 C 180.533 136.930, 179.709 134.954, 179.544 133.450 C 179.379 131.946, 178.514 130.308, 177.622 129.808 C 176.730 129.309, 176 127.802, 176 126.459 C 176 125.100, 175.113 123.463, 174 122.768 C 172.804 122.021, 172 120.436, 172 118.825 C 172 114.895, 170.621 111.877, 167.110 108.117 C 165.399 106.286, 164 103.727, 164 102.429 C 164 101.094, 163.132 99.606, 162 99 C 160.699 98.304, 160 96.906, 160 95 C 160 93.094, 159.301 91.696, 158 91 C 156.699 90.304, 156 88.906, 156 87 C 156 85.094, 155.301 83.696, 154 83 C 152.886 82.404, 152 80.906, 152 79.620 C 152 78.349, 151.100 76.495, 150 75.500 C 148.900 74.505, 148 73.043, 148 72.253 C 148 71.462, 147.100 69.671, 146 68.273 C 144.900 66.874, 144 65.074, 144 64.273 C 144 63.471, 143.100 61.671, 142 60.273 C 140.900 58.874, 140 56.496, 140 54.988 C 140 53.479, 139.325 51.685, 138.500 51 C 137.675 50.315, 137 48.906, 137 47.868 C 137 46.830, 136.100 45.210, 135 44.268 C 133.900 43.326, 133 41.565, 133 40.355 C 133 38.952, 131.105 36.497, 127.767 33.578 C 123.612 29.943, 121.810 29.012, 119.017 29.058 C 115.891 29.110, 114.387 30.271, 105.500 39.492 M 91.180 156.250 C 91.356 157.488, 91.950 158.500, 92.500 158.500 C 93.050 158.500, 93.644 157.488, 93.820 156.250 C 94.039 154.702, 93.628 154, 92.500 154 C 91.372 154, 90.961 154.702, 91.180 156.250 M 87.553 161.915 C 87.231 162.436, 87.394 163.125, 87.915 163.447 C 88.436 163.769, 89.125 163.606, 89.447 163.085 C 89.769 162.564, 89.606 161.875, 89.085 161.553 C 88.564 161.231, 87.875 161.394, 87.553 161.915" stroke="none" fill="#000000" fill-rule="evenodd"/><path fill-opacity=".108" d="M 108.500 37.660 C 104.100 42.402, 99.487 47.282, 98.250 48.505 C 97.013 49.728, 96 51.483, 96 52.403 C 96 53.324, 94.200 55.951, 92 58.240 C 89.738 60.595, 88 63.386, 88 64.666 C 88 65.911, 87.100 67.411, 86 68 C 84.900 68.589, 84 69.885, 84 70.880 C 84 71.876, 83.100 73.505, 82 74.500 C 80.900 75.495, 80 76.957, 80 77.747 C 80 78.538, 79.100 80.329, 78 81.727 C 76.900 83.126, 76 84.868, 76 85.600 C 76 86.331, 75.141 87.390, 74.090 87.952 C 72.861 88.609, 72.361 89.664, 72.687 90.910 C 73.014 92.162, 72.317 93.607, 70.711 95.003 C 69.171 96.342, 68.412 97.860, 68.711 99.003 C 69.010 100.146, 68.251 101.664, 66.711 103.003 C 65.293 104.236, 64.419 105.886, 64.672 106.853 C 64.922 107.809, 64.002 109.589, 62.557 110.946 C 61.151 112.268, 60 114.115, 60 115.052 C 60 115.989, 59.325 117.315, 58.500 118 C 57.675 118.685, 57 120.524, 57 122.087 C 57 123.906, 56.280 125.315, 55 126 C 53.692 126.700, 53 128.094, 53 130.027 C 53 131.900, 52.267 133.441, 51 134.232 C 49.458 135.195, 49 136.564, 49 140.205 C 49 143.906, 48.567 145.162, 47 146 C 45.482 146.812, 45 148.094, 45 151.313 C 45 154.318, 44.417 156.055, 43 157.268 C 41.672 158.405, 41 160.218, 41 162.661 C 41 164.686, 40.258 167.163, 39.351 168.165 C 38.443 169.167, 37.510 171.903, 37.277 174.244 C 37.044 176.585, 36.168 179.258, 35.331 180.185 C 34.367 181.251, 33.698 184.346, 33.507 188.623 C 33.309 193.043, 32.709 195.743, 31.769 196.438 C 30.978 197.022, 30.069 199.138, 29.747 201.140 C 29.252 204.215, 29.585 205.186, 31.885 207.390 C 34.254 209.660, 35.463 210, 41.150 210 C 46.420 210, 48.041 209.612, 49.500 208 C 50.936 206.413, 52.580 206, 57.464 206 C 61.327 206, 64.340 205.453, 65.559 204.532 C 66.719 203.654, 69.712 203.064, 73 203.064 C 76.288 203.064, 79.281 203.654, 80.441 204.532 C 81.661 205.455, 84.676 206, 88.556 206 C 93.216 206, 95.354 206.491, 97.273 208 C 98.673 209.101, 101.330 210, 103.185 210 C 105.318 210, 107.184 210.734, 108.268 212 C 109.210 213.100, 111.049 214, 112.355 214 C 113.662 214, 115.874 214.900, 117.273 216 C 118.671 217.100, 121.191 218, 122.873 218 C 124.906 218, 126.288 218.670, 127 220 C 127.854 221.595, 129.094 222, 133.127 222 C 136.670 222, 138.946 222.599, 140.727 224 C 142.942 225.742, 144.784 226, 155 226 C 165.216 226, 167.058 225.742, 169.273 224 C 170.671 222.900, 173.137 222, 174.753 222 C 176.420 222, 178.473 221.135, 179.500 220 C 180.495 218.900, 182.490 218, 183.933 218 C 185.375 218, 187.326 217.100, 188.268 216 C 189.210 214.900, 190.869 214, 191.955 214 C 193.041 214, 194.411 213.100, 195 212 C 195.592 210.893, 197.094 210, 198.362 210 C 199.855 210, 203.506 207.286, 208.827 202.224 C 213.322 197.946, 217 194.150, 217 193.786 C 217 192.523, 209.492 194.253, 208.259 195.800 C 207.357 196.932, 204.626 197.467, 198.259 197.757 C 193.442 197.977, 188.082 198.796, 186.349 199.578 C 182.200 201.450, 172.941 201.423, 170.441 199.532 C 169.140 198.548, 165.990 198.053, 160.885 198.032 C 154.816 198.006, 152.753 197.594, 150.727 196 C 149.329 194.900, 146.797 194, 145.101 194 C 143.100 194, 141.578 193.298, 140.768 192 C 140.011 190.787, 138.436 190, 136.768 190 C 135.100 190, 133.525 189.213, 132.768 188 C 131.879 186.576, 130.436 186, 127.759 186 C 125.333 186, 123.291 185.291, 122 184 C 120.516 182.516, 118.646 181.994, 114.750 181.978 C 111.699 181.965, 107.674 181.128, 105.141 179.978 C 99.464 177.402, 90.858 177.412, 85.500 180 C 82.906 181.253, 79.321 181.944, 75.300 181.966 C 70.633 181.992, 68.874 182.403, 68.187 183.630 C 66.943 185.853, 56.012 187.623, 54.849 185.790 C 53.392 183.493, 53.950 178.879, 56 176.273 C 57.100 174.874, 58 172.603, 58 171.225 C 58 169.848, 58.762 168.163, 59.693 167.482 C 60.718 166.733, 61.468 164.656, 61.593 162.222 C 61.726 159.646, 62.574 157.426, 63.951 156.049 C 65.333 154.667, 65.886 153.215, 65.497 151.990 C 65.085 150.692, 65.698 149.380, 67.411 147.890 C 68.798 146.685, 69.693 145.312, 69.401 144.840 C 68.516 143.407, 70.040 140, 71.567 140 C 72.494 140, 73 138.936, 73 136.990 C 73 135.218, 73.822 133.276, 75 132.268 C 76.417 131.055, 77 129.318, 77 126.313 C 77 123.094, 77.482 121.812, 79 121 C 80.301 120.304, 81 118.906, 81 117 C 81 115.094, 81.699 113.696, 83 113 C 84.100 112.411, 85 111.339, 85 110.618 C 85 109.896, 85.900 108.268, 87 107 C 88.100 105.732, 89 104.104, 89 103.382 C 89 102.661, 89.900 101.589, 91 101 C 92.301 100.304, 93 98.906, 93 97 C 93 95.094, 93.699 93.696, 95 93 C 96.167 92.376, 97 90.906, 97 89.473 C 97 88.100, 97.882 86.466, 99 85.768 C 100.100 85.081, 101 83.713, 101 82.728 C 101 81.743, 101.675 80.678, 102.500 80.362 C 103.325 80.045, 104 79.159, 104 78.393 C 104 77.627, 104.838 76.162, 105.863 75.137 C 106.888 74.112, 108.033 71.637, 108.408 69.637 C 108.810 67.497, 109.671 66, 110.500 66 C 111.325 66, 112.188 64.516, 112.581 62.420 C 113.471 57.674, 115.157 57.242, 119.446 60.664 C 121.949 62.661, 123 64.303, 123 66.215 C 123 67.906, 123.754 69.333, 125 70 C 126.249 70.668, 127 72.094, 127 73.795 C 127 75.436, 127.795 77.015, 129 77.768 C 130.118 78.466, 131 80.100, 131 81.473 C 131 82.906, 131.833 84.376, 133 85 C 134.100 85.589, 135 86.894, 135 87.900 C 135 88.907, 135.900 90.874, 137 92.273 C 138.100 93.671, 139 95.285, 139 95.858 C 139 96.431, 139.708 97.297, 140.572 97.781 C 141.460 98.277, 142.392 100.586, 142.713 103.080 C 143.249 107.259, 144.113 108.768, 148.250 112.757 C 149.213 113.685, 150 115.694, 150 117.222 C 150 118.750, 150.418 120, 150.929 120 C 152.551 120, 155 123.070, 155 125.105 C 155 126.184, 156.575 128.642, 158.500 130.567 C 160.425 132.492, 162 135.004, 162 136.150 C 162 137.296, 163.800 139.981, 166 142.116 C 168.536 144.577, 170 146.900, 170 148.464 C 170 149.906, 170.830 151.374, 172 152 C 173.301 152.696, 174 154.094, 174 156 C 174 157.932, 174.700 159.304, 176.054 160.029 C 177.715 160.918, 178.050 161.931, 177.804 165.314 L 177.500 169.500 171.692 169.802 L 165.884 170.103 156.863 161.133 C 151.025 155.329, 147.745 151.277, 147.566 149.652 C 147.414 148.270, 145.650 145.592, 143.645 143.702 C 140.604 140.834, 140 139.585, 140 136.167 C 140 133.094, 139.500 131.803, 138 131 C 136.900 130.411, 136 129.379, 136 128.705 C 136 128.032, 135.100 126.919, 134 126.232 C 132.724 125.435, 132 123.900, 132 121.992 C 132 119.999, 131.499 119, 130.500 119 C 129.675 119, 129 118.624, 129 118.164 C 129 117.704, 127.365 115.229, 125.366 112.664 C 122.544 109.042, 121.092 108, 118.866 108 C 114.879 108, 111.806 111.403, 111.447 116.217 C 111.284 118.394, 110.492 120.923, 109.687 121.838 C 108.882 122.752, 107.920 124.925, 107.550 126.666 C 107.180 128.408, 106.230 130.081, 105.439 130.385 C 104.648 130.689, 104 132.137, 104 133.604 C 104 135.164, 102.962 137.232, 101.500 138.588 C 100.125 139.862, 99 141.826, 99 142.952 C 99 144.079, 98.622 145, 98.161 145 C 97.128 145, 94.730 150.063, 95.431 150.764 C 96.196 151.529, 100.963 146.698, 100.983 145.139 C 100.992 144.390, 102.800 141.628, 105 139 C 107.200 136.372, 109 133.523, 109 132.668 C 109 130.325, 112.997 128, 117.023 128 C 121.471 128, 123 129.460, 123 133.710 C 123 135.782, 123.748 137.660, 125 138.732 C 126.100 139.674, 127 141.175, 127 142.067 C 127 142.960, 127.900 144.505, 129 145.500 C 130.100 146.495, 131 148.182, 131 149.247 C 131 150.313, 131.900 152.329, 133 153.727 C 134.100 155.126, 135 157.009, 135 157.913 C 135 158.816, 135.900 160.326, 137 161.268 C 138.100 162.210, 139 163.785, 139 164.768 C 139 165.751, 139.900 167.326, 141 168.268 C 142.100 169.210, 143 170.862, 143 171.939 C 143 174.916, 147.313 179, 150.457 179 C 151.957 179, 154.329 179.900, 155.727 181 C 158.049 182.826, 159.756 182.997, 175.385 182.968 C 192.045 182.938, 192.573 182.872, 195.250 180.516 C 197.656 178.398, 198 177.370, 198 172.289 C 198 167.473, 197.641 166.257, 195.902 165.171 C 194.535 164.317, 193.980 163.184, 194.310 161.923 C 194.620 160.736, 194.104 159.486, 192.979 158.698 C 191.968 157.990, 190.821 156.081, 190.430 154.455 C 190.038 152.830, 188.882 150.695, 187.859 149.711 C 186.837 148.727, 186 147.095, 186 146.083 C 186 145.072, 185.325 143.685, 184.500 143 C 183.675 142.315, 183 141.166, 183 140.445 C 183 139.724, 182.100 138.849, 181 138.500 C 179.601 138.056, 179 136.987, 179 134.941 C 179 133.100, 178.259 131.554, 177 130.768 C 175.795 130.015, 175 128.436, 175 126.795 C 175 125.094, 174.249 123.668, 173 123 C 171.598 122.250, 171 120.906, 171 118.509 C 171 115.068, 167.211 108.262, 164.426 106.700 C 163.642 106.260, 163 104.589, 163 102.985 C 163 101.094, 162.298 99.695, 161 99 C 159.699 98.304, 159 96.906, 159 95 C 159 93.094, 158.301 91.696, 157 91 C 155.751 90.332, 155 88.906, 155 87.205 C 155 85.564, 154.205 83.985, 153 83.232 C 151.900 82.545, 151 81.270, 151 80.399 C 151 79.528, 150.100 77.671, 149 76.273 C 147.900 74.874, 147 72.939, 147 71.972 C 147 71.005, 146.382 69.977, 145.626 69.687 C 144.871 69.397, 143.946 67.525, 143.571 65.527 C 143.196 63.529, 142.239 61.645, 141.445 61.340 C 140.531 60.990, 140 59.369, 140 56.928 C 140 54.094, 139.469 52.786, 138 52 C 136.751 51.332, 136 49.906, 136 48.205 C 136 46.597, 135.209 44.987, 134.070 44.276 C 133.008 43.613, 131.996 41.863, 131.820 40.387 C 131.428 37.103, 123.827 30.461, 119.500 29.622 C 116.748 29.088, 115.839 29.753, 108.500 37.660" stroke="none" fill="#000000" fill-rule="evenodd"/></svg>