<svg width="495" height="500" viewBox="0 0 495 500" fill="#000000" xmlns="http://www.w3.org/2000/svg">
<path fill-rule="evenodd" clip-rule="evenodd" d="M204.128 3.51973C145.048 13.4335 72.3884 55.4444 60.7028 86.4415C51.1463 111.794 89.3385 133.873 107.607 113.555C135.128 82.9432 197.726 57.2474 244.781 57.2474C315.504 57.2474 397.453 105.977 391.23 144.328C386.139 175.694 354.501 181.76 324.281 157.165C219.734 72.0656 75.3481 187.753 136.211 307.855C178.761 391.826 307.798 393.008 352.134 309.831C366.779 282.352 370.484 284.042 295.526 284.042H230.039L220.4 274.403C204.156 258.159 208.063 230.448 228.052 220.111C241.861 212.97 410.667 214.201 421.774 221.52C438.412 232.492 441.797 254.284 432.932 293.406C401.153 433.684 229.483 489.96 119.071 396.294C91.4392 372.852 71.433 372.832 61.6554 396.234C53.848 414.922 66.5825 432.218 108.633 460.043C238.36 545.873 421.615 487.389 477.568 342.297C547.225 161.666 393.875 -28.3279 204.128 3.51973ZM32.7135 214.15C-11.6503 259.114 -11.5993 260.183 37.2012 307.96C71.8895 341.917 94.9318 344.69 97.6023 315.226C101.41 273.264 96.9786 195.516 90.4044 188.944C76.1589 174.696 68.2154 178.166 32.7135 214.15Z" fill="#000000"/>
</svg>
