<svg xmlns="http://www.w3.org/2000/svg" width="20" height="20" fill="#000000"><path fill="#bababa" d="M20 10c0 5.523-4.477 10-10 10S0 15.523 0 10 4.477 0 10 0s10 4.477 10 10Z"/><path fill="#000000" d="M8.867.038c-.046.028-.216.057-.37.057-.158 0-.373.028-.481.062-.108.034-.3.085-.426.108-.357.073-.584.141-1.134.34-.397.141-1.503.685-1.673.821-.08.063-.21.153-.295.193a1.328 1.328 0 0 0-.255.17 3.66 3.66 0 0 1-.358.255c-.34.22-1.565 1.445-1.871 1.875-.137.187-.261.352-.284.369a1.25 1.25 0 0 0-.13.232.9.9 0 0 1-.182.278c-.045.04-.085.096-.085.13 0 .028-.062.142-.142.244a.986.986 0 0 0-.142.22c0 .04-.062.193-.295.709a4.831 4.831 0 0 0-.3.793c-.057.17-.12.369-.148.442a.888.888 0 0 0-.05.272c0 .08-.029.199-.063.26-.244.454-.244 3.831 0 4.285a.83.83 0 0 1 .062.317c0 .113.029.204.057.204.034 0 .057.057.057.125.005.124.159.629.232.753a.853.853 0 0 1 .074.21.528.528 0 0 0 .108.226c.034.04.113.216.176.386.056.17.164.39.238.487.074.096.136.204.136.232 0 .034.04.091.085.13a.9.9 0 0 1 .182.278c.056.114.13.238.175.284.04.045.12.141.17.226.284.437 1.589 1.74 2.014 2.012.182.113.323.227.323.25 0 .022.085.079.188.124.096.04.21.102.238.125.09.079.658.442.692.442.034 0 .317.119.697.294.142.063.307.136.369.159.539.193.8.272 1.134.334.13.023.261.063.301.085.369.227 3.823.216 4.254-.017a.83.83 0 0 1 .318-.062c.113 0 .204-.028.204-.057 0-.034.056-.056.125-.056.113 0 .402-.091.754-.227l.3-.113c.097-.04.182-.091.182-.12 0-.028.045-.05.102-.05.102 0 .391-.114.579-.227.731-.442.975-.6 1.111-.714.085-.074.176-.136.204-.136.023 0 .142-.09.256-.198.113-.108.227-.199.244-.199.045 0 1.134-1.088 1.134-1.127 0-.017.09-.13.199-.255.107-.12.198-.238.198-.267 0-.022.057-.102.13-.175.069-.074.165-.21.21-.3.046-.097.12-.204.16-.25.039-.04.124-.164.18-.283.063-.114.137-.244.165-.29.114-.18.233-.475.233-.577 0-.057.017-.102.045-.102.046 0 .182-.278.182-.38 0-.04.017-.073.045-.073.023 0 .074-.12.113-.272.04-.148.097-.357.13-.465.035-.108.075-.29.092-.397a.75.75 0 0 1 .079-.26c.233-.284.244-3.916.017-4.284a1.261 1.261 0 0 1-.085-.3c-.062-.335-.13-.561-.335-1.134a8.036 8.036 0 0 0-.187-.425c-.08-.17-.198-.425-.26-.566-.126-.278-.392-.748-.454-.794a1.233 1.233 0 0 1-.12-.198 1.008 1.008 0 0 0-.119-.198 8.6 8.6 0 0 1-.278-.369c-.136-.187-.527-.623-.873-.963-.641-.634-.743-.725-1.14-1.014a2.307 2.307 0 0 1-.255-.204.561.561 0 0 0-.114-.074 9.94 9.94 0 0 1-.482-.294 4.996 4.996 0 0 0-.482-.29 2.644 2.644 0 0 1-.244-.113.886.886 0 0 0-.272-.08c-.057 0-.108-.016-.108-.044 0-.046-.113-.097-.709-.318-.221-.08-.454-.147-.527-.147-.069 0-.125-.028-.125-.057 0-.034-.091-.056-.204-.056a.83.83 0 0 1-.318-.063c-.068-.034-.323-.09-.579-.119-.658-.085-2.597-.113-2.7-.045Zm8.326 8-.017.924-2.257.017c-1.77.012-2.258.029-2.235.085.017.051.55.074 2.252.097l2.234.028.034.13c.017.068.017.454 0 .85l-.028.72-2.206.011c-1.214.006-2.218.029-2.235.046-.017.017-.028.442-.017.94.011.64-.006.93-.051.992-.057.062-.25.08-.908.08-.465 0-.879-.018-.93-.035-.08-.028-.09-.3-.09-2.442 0-2.25.005-2.42.107-2.64.108-.238.3-.442.573-.624.125-.08.454-.09 2.966-.09l2.82-.006-.012.918Zm-7.305.84-2.65.01-2.654.018v2.363l1.725-.012c.947 0 1.74-.017 1.764-.028.068-.04.045-.312-.023-.317-.034 0-.641 0-1.35.005l-1.293.006V9.331h1.877c2.138 0 2.042-.017 2.394.487l.21.312v1.014c0 1.003 0 1.014-.154 1.27-.09.14-.181.26-.21.26-.033 0-.113.057-.192.125l-.136.13H3.388l-.17-.142a1.62 1.62 0 0 1-.307-.362c-.125-.216-.125-.238-.119-2.335.006-2.011.011-2.13.12-2.346.061-.124.209-.289.322-.368l.216-.142h6.438v1.643Z"/><path fill="#000000" d="M11.533 7.376a1.9 1.9 0 0 0-.34.283l-.199.204-.034 4.873 1.565-.034.017-.974.012-.98 2.229-.012 2.223-.017.034-1.332h-4.475l-.023-.22a1.112 1.112 0 0 1 0-.284c.017-.045.732-.062 2.258-.062h2.235V7.29l-2.678.006c-2.115.005-2.71.022-2.824.079Z"/></svg>