<svg xmlns="http://www.w3.org/2000/svg" width="250" height="250" version="1.1" fill="#000000"><path fill-opacity=".09" d="M 106 6.456 C 95.066 8.257, 81.186 12.782, 71.083 17.838 C 49.573 28.605, 26.715 51.669, 15.537 73.888 C 6.812 91.230, 1.552 120.559, 3.855 139.018 C 6.472 159.981, 12.360 178.613, 19.958 189.969 C 20.889 191.361, 23.158 194.750, 25 197.500 C 29.698 204.512, 47.179 221.704, 55.337 227.335 C 84.497 247.463, 123.070 253.901, 158.191 244.502 C 175.841 239.778, 185.674 235.061, 199.698 224.589 C 218.633 210.450, 232.436 191.839, 240.185 170 C 242.154 164.449, 242.392 163.555, 245.500 150 C 247.397 141.729, 248.092 122.731, 246.869 112.575 C 243.649 85.831, 231.609 60.735, 213 41.980 C 195.256 24.097, 174.592 12.655, 150.500 7.372 C 140.636 5.209, 116.578 4.714, 106 6.456 M 111.015 13.126 C 93.463 15.158, 71.926 24.003, 56.878 35.360 C 37.464 50.012, 23.642 69.884, 15.742 94.500 L 12.533 104.500 12.517 127 C 12.503 145.706, 12.785 150.259, 14.189 154 C 15.118 156.475, 16.400 160.525, 17.037 163 C 18.550 168.876, 26.051 184.380, 30.659 191.156 C 53.986 225.453, 95.765 245.191, 136.382 241.104 C 176.394 237.077, 209.332 214.829, 228.252 179.050 C 242.292 152.501, 244.431 115.497, 233.586 86.765 C 227.383 70.331, 219.442 58.266, 205.980 44.823 C 181.646 20.523, 147.003 8.960, 111.015 13.126 M 85.500 85 C 85.160 85.550, 84.009 86, 82.941 86 C 80.797 86, 80.272 88.539, 82.250 89.338 C 83.151 89.701, 83.168 89.864, 82.309 89.921 C 81.654 89.964, 80.840 89.550, 80.500 89 C 79.698 87.702, 75.301 87.704, 74.498 89.004 C 74.157 89.556, 72.845 89.748, 71.583 89.432 C 70.166 89.076, 67.260 89.835, 63.982 91.416 C 59.980 93.347, 58.347 93.703, 57.338 92.865 C 56.474 92.148, 56 92.119, 56 92.784 C 56 93.350, 55.116 93.582, 54.036 93.299 C 52.951 93.015, 51.352 93.505, 50.464 94.393 C 49.580 95.277, 47.345 96, 45.496 96 C 43.013 96, 41.969 96.523, 41.500 98 C 40.783 100.259, 39.417 100.620, 38.662 98.750 C 38.273 97.785, 38.140 97.780, 38.079 98.729 C 38.019 99.665, 37.423 99.694, 35.574 98.852 C 31.559 97.022, 28.658 98.467, 26.204 103.516 C 24.979 106.039, 23.545 107.837, 23.017 107.511 C 21.344 106.476, 20.784 111.642, 21.957 117.293 C 24.705 130.528, 40.266 146.216, 57.655 153.282 C 64.750 156.165, 73.857 158.476, 74.721 157.613 C 75.058 157.276, 74.358 157, 73.167 157 C 71.975 157, 71 156.561, 71 156.025 C 71 155.391, 71.898 155.391, 73.562 156.024 C 74.971 156.559, 79.358 157.328, 83.312 157.733 C 89.983 158.416, 90.213 158.514, 86.500 159.102 C 81.086 159.960, 96.244 159.133, 107.800 157.940 C 112.915 157.412, 121.348 155.801, 126.541 154.361 C 134.179 152.242, 136.270 151.979, 137.481 152.984 C 138.304 153.667, 138.672 154.738, 138.297 155.363 C 137.923 155.988, 138.358 155.899, 139.264 155.164 C 140.171 154.429, 141.344 154.095, 141.872 154.421 C 142.822 155.008, 149 149.534, 149 148.105 C 149 147.351, 160.048 143.557, 165.500 142.438 C 167.150 142.099, 170.654 141.146, 173.286 140.319 C 176.410 139.337, 178.494 139.148, 179.286 139.773 C 180.765 140.941, 186 141.969, 186 141.093 C 186 140.747, 184.762 139.696, 183.250 138.758 C 181.314 137.558, 181 137.045, 182.191 137.027 C 183.121 137.012, 184.160 137.450, 184.500 138 C 184.840 138.550, 186.216 139, 187.559 139 C 188.902 139, 190 139.477, 190 140.059 C 190 140.641, 190.338 140.914, 190.750 140.664 C 191.162 140.414, 192.080 140.838, 192.789 141.605 C 193.499 142.372, 193.724 143.014, 193.289 143.030 C 192.855 143.047, 193.287 143.519, 194.250 144.080 C 195.213 144.641, 196 145.617, 196 146.250 C 196 147.089, 195.676 147.076, 194.800 146.200 C 194.140 145.540, 192.790 145, 191.800 145 C 189.155 145, 189.571 148.248, 192.576 151.072 L 195.152 153.492 192.826 154.035 C 191.017 154.458, 190.434 155.361, 190.201 158.101 C 189.954 161.005, 190.508 162.215, 193.355 164.999 C 196.222 167.803, 196.659 168.768, 195.929 170.688 C 195.053 172.991, 196.263 174.001, 197.500 172 C 197.840 171.450, 199.126 171, 200.359 171 C 201.592 171, 203.115 170.485, 203.744 169.856 C 204.603 168.997, 204.758 169.209, 204.366 170.707 C 204.079 171.804, 204.478 173.335, 205.253 174.110 C 206.027 174.884, 206.475 176.076, 206.247 176.759 C 206.008 177.475, 206.690 178, 207.858 178 C 210.031 178, 211.363 176.696, 210.287 175.621 C 208.936 174.269, 207.239 168, 208.225 168 C 208.769 168, 208.955 167.325, 208.638 166.500 C 208.322 165.675, 208.529 165, 209.099 165 C 209.669 165, 209.861 164.138, 209.527 163.084 C 209.192 162.030, 209.387 160.879, 209.959 160.525 C 210.532 160.171, 211 158.994, 211 157.910 C 211 156.825, 211.621 155.699, 212.381 155.407 C 213.406 155.014, 213.562 153.991, 212.986 151.439 C 212.270 148.262, 212.393 148, 214.605 148 C 215.922 148, 217 148.450, 217 149 C 217 150.864, 219.059 150.013, 220.023 147.750 C 220.972 145.523, 220.979 145.525, 220.741 147.975 C 220.564 149.797, 221.028 150.519, 222.500 150.708 C 223.600 150.849, 223.963 150.719, 223.306 150.418 C 222.650 150.117, 222.357 149.233, 222.656 148.454 C 223.056 147.413, 223.687 147.297, 225.034 148.018 C 227.785 149.491, 231 149.211, 231 147.500 C 231 146.667, 231.889 146, 233 146 C 234.333 146, 235 145.333, 235 144 C 235 142.544, 234.333 142, 232.547 142 C 229.312 142, 224.823 139.968, 223.193 137.765 C 222.475 136.794, 220.814 136, 219.502 136 C 218.191 136, 216.833 135.538, 216.484 134.973 C 216.135 134.409, 215.321 134.032, 214.675 134.136 C 214.029 134.241, 212.230 133.970, 210.677 133.536 C 209.004 133.068, 207.442 133.158, 206.845 133.755 C 205.748 134.852, 200 133.194, 200 131.781 C 200 131.351, 198.564 131, 196.809 131 C 193.887 131, 193.773 130.886, 195.462 129.652 C 197.123 128.437, 196.848 125.358, 195.170 126.395 C 194.195 126.998, 191.496 124.820, 190.749 122.828 C 190.329 121.707, 189.425 121.337, 188.009 121.708 C 186.160 122.191, 185.977 121.940, 186.541 119.693 C 187.127 117.359, 186.851 117.063, 183.514 116.437 C 180.871 115.941, 179.520 115.013, 178.691 113.124 C 177.206 109.737, 175.882 108.853, 174.284 110.180 C 173.333 110.969, 173 110.843, 173 109.695 C 173 107.731, 168.326 104, 165.865 104 C 164.839 104, 164 103.520, 164 102.933 C 164 102.320, 163.147 102.136, 161.999 102.500 C 159.604 103.261, 154 99.623, 154 97.307 C 154 96.127, 153.307 95.889, 151.137 96.323 C 149.288 96.692, 147 96.212, 144.674 94.965 C 140.403 92.676, 136.442 93.326, 139.610 95.795 C 141.443 97.225, 141.440 97.246, 139.500 96.506 C 138.400 96.086, 136.481 95.522, 135.235 95.252 C 133.990 94.982, 132.685 94.299, 132.336 93.735 C 131.928 93.074, 132.645 92.945, 134.351 93.373 C 136.279 93.857, 137 93.654, 137 92.627 C 137 90.915, 131.712 89.365, 131.192 90.925 C 130.462 93.115, 128.276 92.006, 128.722 89.671 C 129.195 87.198, 129.397 87.250, 118.571 87.012 C 116.960 86.977, 115.160 86.560, 114.571 86.087 C 113.982 85.613, 111.647 84.921, 109.382 84.547 C 106.137 84.013, 105.137 84.201, 104.664 85.434 C 104.329 86.306, 104.603 87.058, 105.281 87.132 C 105.952 87.204, 104.925 87.552, 103 87.905 C 100.124 88.433, 99.131 88.134, 97.430 86.230 C 95.722 84.317, 94.922 84.079, 92.847 84.868 C 91.348 85.438, 89.761 85.462, 88.917 84.927 C 87.071 83.759, 86.256 83.776, 85.500 85 M 99.500 86 C 99.840 86.550, 100.541 87, 101.059 87 C 101.577 87, 102 86.550, 102 86 C 102 85.450, 101.298 85, 100.441 85 C 99.584 85, 99.160 85.450, 99.500 86 M 108.015 88.095 C 108.043 90.614, 109.808 92.592, 110.982 91.418 C 111.736 90.664, 111.455 89.817, 110.024 88.521 C 108.492 87.135, 108.004 87.032, 108.015 88.095 M 93.143 88.890 C 92.319 89.413, 92.176 89.991, 92.780 90.364 C 93.326 90.702, 94.329 90.308, 95.009 89.489 C 96.359 87.863, 95.300 87.524, 93.143 88.890 M 118 90 C 118 91.253, 119.061 91.253, 121 90 C 122.213 89.216, 122.069 89.028, 120.250 89.015 C 119.013 89.007, 118 89.450, 118 90 M 72 95.969 C 72 96.501, 72.675 96.678, 73.500 96.362 C 74.325 96.045, 75 95.609, 75 95.393 C 75 95.177, 74.325 95, 73.500 95 C 72.675 95, 72 95.436, 72 95.969 M 61.030 96.628 C 60.968 98.943, 67.417 101.752, 68.558 99.906 C 68.866 99.408, 67.764 99, 66.109 99 C 64.298 99, 62.694 98.303, 62.080 97.250 C 61.519 96.287, 61.047 96.007, 61.030 96.628 M 88 98 L 85.500 98.801 88.250 98.900 C 89.763 98.955, 91 98.550, 91 98 C 91 97.450, 90.888 97.045, 90.750 97.100 C 90.612 97.155, 89.375 97.560, 88 98 M 143.250 97.662 C 140.930 98.598, 141.978 99.867, 145 99.781 C 148.243 99.689, 148.964 98.584, 146.418 97.607 C 145.548 97.273, 144.761 97.036, 144.668 97.079 C 144.576 97.122, 143.938 97.385, 143.250 97.662 M 97 103.031 C 97 103.564, 97.675 104, 98.500 104 C 99.325 104, 100 103.823, 100 103.607 C 100 103.391, 99.325 102.955, 98.500 102.638 C 97.675 102.322, 97 102.499, 97 103.031 M 105.229 103.206 C 105.463 103.918, 107.194 104.645, 109.077 104.821 C 113.065 105.196, 112.065 103.628, 107.652 102.585 C 105.556 102.090, 104.916 102.254, 105.229 103.206 M 64.079 104.250 C 64.036 105.213, 64.675 106, 65.500 106 C 66.325 106, 67 105.523, 67 104.941 C 67 104.359, 66.588 104.136, 66.085 104.447 C 65.582 104.758, 64.943 104.447, 64.664 103.756 C 64.359 102.998, 64.127 103.194, 64.079 104.250 M 75 104.094 C 75 104.592, 75.900 105, 77 105 C 78.100 105, 79 104.827, 79 104.617 C 79 104.406, 78.100 103.998, 77 103.710 C 75.900 103.423, 75 103.595, 75 104.094 M 125 103.387 C 125 103.770, 125.900 105.050, 127 106.230 C 128.100 107.411, 129 107.912, 129 107.344 C 129 106.775, 128.100 105.495, 127 104.500 C 125.900 103.505, 125 103.004, 125 103.387 M 140.500 105 C 140.840 105.550, 141.541 106, 142.059 106 C 142.577 106, 143 105.550, 143 105 C 143 104.450, 142.298 104, 141.441 104 C 140.584 104, 140.160 104.450, 140.500 105 M 118 106 C 119.957 107.264, 122 107.264, 122 106 C 122 105.450, 120.763 105.007, 119.250 105.015 C 117.107 105.027, 116.831 105.245, 118 106 M 132.861 108.033 C 134.159 109.115, 136.184 109.981, 137.361 109.958 C 139.098 109.924, 138.843 109.556, 136 108 C 131.462 105.515, 129.859 105.532, 132.861 108.033 M 163 107 C 163 107.550, 163.477 108, 164.059 108 C 164.641 108, 164.840 107.550, 164.500 107 C 164.160 106.450, 163.684 106, 163.441 106 C 163.198 106, 163 106.450, 163 107 M 152.667 108.667 C 151.501 109.833, 151.947 111, 153.559 111 C 154.416 111, 154.864 110.588, 154.553 110.085 C 154.242 109.582, 154.553 108.943, 155.244 108.664 C 156.071 108.331, 155.959 108.131, 154.917 108.079 C 154.046 108.036, 153.033 108.300, 152.667 108.667 M 168 108.378 C 168 108.585, 168.787 109.373, 169.750 110.128 C 171.336 111.371, 171.371 111.336, 170.128 109.750 C 168.821 108.084, 168 107.555, 168 108.378 M 129.500 110 C 129.160 110.550, 129.584 111, 130.441 111 C 131.298 111, 132 110.550, 132 110 C 132 109.450, 131.577 109, 131.059 109 C 130.541 109, 129.840 109.450, 129.500 110 M 145 110.496 C 145 111.285, 146.012 112.469, 147.250 113.129 C 149.211 114.174, 149.341 114.134, 148.259 112.822 C 147.576 111.994, 147.258 111.075, 147.552 110.782 C 147.846 110.488, 147.392 109.981, 146.543 109.655 C 145.595 109.291, 145 109.615, 145 110.496 M 125.031 110.500 C 125.031 111.050, 125.467 112.175, 126 113 C 126.533 113.825, 126.969 114.050, 126.969 113.500 C 126.969 112.950, 126.533 111.825, 126 111 C 125.467 110.175, 125.031 109.950, 125.031 110.500 M 173.564 117.293 C 173.940 118.279, 174.499 118.834, 174.807 118.526 C 175.115 118.219, 174.808 117.412, 174.124 116.733 C 173.136 115.753, 173.022 115.868, 173.564 117.293 M 26.079 118.500 C 26.075 119.600, 26.714 121.625, 27.500 123 C 29.326 126.194, 29.334 125.511, 27.529 120.500 C 26.736 118.300, 26.084 117.400, 26.079 118.500 M 127.031 119.500 C 127.031 120.050, 127.467 121.175, 128 122 C 128.533 122.825, 128.969 123.050, 128.969 122.500 C 128.969 121.950, 128.533 120.825, 128 120 C 127.467 119.175, 127.031 118.950, 127.031 119.500 M 181.980 121.524 C 181.284 122.362, 181.004 123.337, 181.357 123.691 C 181.711 124.044, 182 123.808, 182 123.167 C 182 122.525, 182.675 122, 183.500 122 C 184.325 122, 185 121.550, 185 121 C 185 119.515, 183.420 119.789, 181.980 121.524 M 31 128 C 31.589 129.100, 32.295 130, 32.570 130 C 32.845 130, 32.589 129.100, 32 128 C 31.411 126.900, 30.705 126, 30.430 126 C 30.155 126, 30.411 126.900, 31 128 M 129.063 133.950 C 129.020 136.318, 129.323 137.077, 130.030 136.370 C 130.713 135.687, 130.734 134.522, 130.094 132.920 C 129.185 130.646, 129.123 130.708, 129.063 133.950 M 36.076 134.750 C 37.866 137.615, 50.668 147.258, 57.315 150.747 C 60.717 152.532, 65.075 154.215, 67 154.485 L 70.500 154.977 66.481 153.619 C 59.303 151.193, 51.650 146.737, 44.250 140.672 C 40.263 137.404, 37 134.341, 37 133.865 C 37 133.389, 36.546 133, 35.992 133 C 35.346 133, 35.376 133.630, 36.076 134.750 M 198.079 135.583 C 198.127 136.748, 198.364 136.985, 198.683 136.188 C 198.972 135.466, 198.936 134.603, 198.604 134.271 C 198.272 133.939, 198.036 134.529, 198.079 135.583 M 215.143 137.907 C 214.137 138.532, 214.090 138.937, 214.960 139.475 C 216.332 140.323, 217.362 139.572, 216.854 138.095 C 216.646 137.489, 215.940 137.412, 215.143 137.907 M 207 141 C 207 141.550, 207.702 142, 208.559 142 C 209.416 142, 209.840 141.550, 209.500 141 C 209.160 140.450, 208.459 140, 207.941 140 C 207.423 140, 207 140.450, 207 141 M 208 146 C 208 146.550, 208.477 147, 209.059 147 C 209.641 147, 209.840 146.550, 209.500 146 C 209.160 145.450, 208.684 145, 208.441 145 C 208.198 145, 208 145.450, 208 146 M 136 149.409 C 136 149.599, 136.675 150.315, 137.500 151 C 138.365 151.718, 139 151.815, 139 151.229 C 139 150.671, 138.325 149.955, 137.500 149.638 C 136.675 149.322, 136 149.219, 136 149.409 M 76.750 158.662 C 77.438 158.940, 78.563 158.940, 79.250 158.662 C 79.938 158.385, 79.375 158.158, 78 158.158 C 76.625 158.158, 76.063 158.385, 76.750 158.662 M 198.583 165.643 C 198.237 166.547, 198.159 167.492, 198.410 167.743 C 199.205 168.538, 201 166.942, 201 165.441 C 201 163.479, 199.361 163.617, 198.583 165.643 M 199.698 173.635 C 199.132 174.201, 201.595 180, 202.401 180 C 202.593 180, 202.750 178.883, 202.750 177.519 C 202.750 174.985, 200.813 172.520, 199.698 173.635" stroke="none" fill="#000000" fill-rule="evenodd"/><path fill-opacity=".246" d="M 113 6.010 C 99.093 7.364, 80.289 13.117, 68.483 19.629 C 55.189 26.961, 37.007 42.912, 27.416 55.655 C 17.309 69.084, 10.127 85.722, 5.901 105.500 C 4.207 113.426, 4.175 143.613, 5.852 151.500 C 14.983 194.447, 44.573 227.866, 85.921 241.932 C 105.577 248.618, 131.386 250.049, 151.207 245.553 C 177.973 239.481, 194.343 230.687, 212.634 212.555 C 230.422 194.922, 241.721 172.071, 245.544 146 C 251.382 106.182, 239.277 68.978, 211.539 41.490 C 194.937 25.037, 178.572 15.488, 156.828 9.564 C 142.446 5.646, 128.420 4.508, 113 6.010 M 104.670 13.636 C 66.920 20.473, 34.778 46.633, 19.437 83.008 C 9.039 107.664, 8.171 140.790, 17.274 165.533 C 34.276 211.744, 77.297 242, 126 242 C 170.565 242, 210.138 217.235, 229.868 177 C 242.485 151.270, 244.601 118.444, 235.440 90.561 C 222.411 50.902, 187.481 20.674, 146.403 13.511 C 135.726 11.649, 115.303 11.710, 104.670 13.636 M 85.813 85.683 C 86.534 85.972, 87.397 85.936, 87.729 85.604 C 88.061 85.272, 87.471 85.036, 86.417 85.079 C 85.252 85.127, 85.015 85.364, 85.813 85.683 M 92.500 85.700 C 91.400 85.958, 89.925 86.908, 89.223 87.812 C 88.179 89.156, 87.632 89.231, 86.223 88.222 C 83.437 86.226, 81.960 85.706, 81.208 86.458 C 80.821 86.846, 81.376 87.802, 82.443 88.582 C 84.454 90.052, 83.914 90.339, 79.500 90.141 C 78.400 90.091, 78.063 90.302, 78.750 90.609 C 80.853 91.547, 80.143 92.572, 77.472 92.455 C 76.082 92.395, 74.417 91.817, 73.772 91.172 C 72.067 89.467, 67 89.675, 67 91.450 C 67 92.248, 67.784 93.339, 68.742 93.875 C 71.142 95.219, 70.079 95.935, 66.658 95.278 C 64.678 94.897, 64.214 94.486, 65.129 93.920 C 67.129 92.684, 65.420 91.678, 62.547 92.399 C 59.369 93.196, 59.340 94.975, 62.468 97.249 C 65.421 99.396, 71.642 99.035, 71.234 96.739 C 71.088 95.916, 71.849 95.011, 72.926 94.730 C 75.738 93.994, 76.324 95.085, 73.994 96.717 C 71.482 98.477, 71.430 100, 73.883 100 C 74.926 100, 76 100.893, 76.290 102 C 76.647 103.367, 77.713 104.037, 79.656 104.118 L 82.500 104.237 79.500 105 C 77.850 105.420, 75.150 105.803, 73.500 105.851 C 70.778 105.931, 70.685 105.836, 72.500 104.822 C 73.600 104.208, 74.692 103.542, 74.927 103.342 C 75.532 102.828, 71.732 100.070, 70.367 100.032 C 69.359 100.004, 67.665 103.454, 67.857 105.145 C 67.897 105.499, 66.371 105.971, 64.465 106.194 C 62.559 106.416, 61 106.239, 61 105.799 C 61 105.360, 61.702 105, 62.559 105 C 63.416 105, 63.840 104.550, 63.500 104 C 62.527 102.425, 57.009 102.812, 56.362 104.500 C 56.029 105.367, 54.670 105.942, 53.143 105.864 C 50.787 105.742, 50.745 105.681, 52.750 105.294 C 56.111 104.647, 55.472 103.325, 51.250 102.192 C 47.882 101.288, 47.729 101.113, 49.750 100.476 C 52.223 99.696, 52.413 99.201, 51.061 97.064 C 50.308 95.874, 49.883 95.853, 48.576 96.937 C 47.521 97.812, 47 97.874, 47 97.122 C 47 96.505, 45.985 96, 44.744 96 C 43.183 96, 42.065 96.955, 41.116 99.101 C 40.361 100.807, 39.463 101.794, 39.121 101.294 C 38.094 99.793, 32.202 97.757, 31.012 98.493 C 30.220 98.982, 30.274 99.635, 31.201 100.776 C 32.322 102.155, 32.242 102.278, 30.623 101.670 C 27.809 100.613, 26.068 103.688, 26.032 109.782 C 25.927 127.159, 48.053 148.090, 74.030 155.186 C 89.525 159.419, 116.819 157.962, 132.302 152.075 C 135.058 151.028, 135.060 151.017, 133.405 147.763 L 131.746 144.500 134.187 146.750 C 135.530 147.988, 137.725 149.007, 139.064 149.015 C 140.765 149.026, 141.101 149.284, 140.176 149.870 C 139.107 150.548, 139.169 151.026, 140.498 152.355 C 142.681 154.538, 143.430 154.433, 144.870 151.742 C 146.996 147.770, 152.192 145.232, 165 141.909 C 171.875 140.126, 178.210 138.066, 179.079 137.333 C 179.947 136.600, 181.215 136, 181.896 136 C 182.641 136, 182.903 135.271, 182.554 134.171 C 182.055 132.599, 182.428 132.409, 185.208 132.817 C 188.180 133.253, 188.262 133.359, 186.221 134.114 C 185 134.566, 184 135.310, 184 135.768 C 184 137.294, 186.375 139, 188.500 139 C 189.655 139, 191.151 139.551, 191.825 140.225 C 192.783 141.183, 193.470 141.187, 194.979 140.245 C 196.195 139.486, 197.131 139.403, 197.513 140.020 C 197.846 140.559, 197.368 141, 196.451 141 C 195.132 141, 194.927 141.575, 195.470 143.750 C 195.847 145.262, 196.866 147.287, 197.733 148.250 C 199.140 149.811, 199.144 150, 197.768 150 C 196.794 150, 196.052 151.194, 195.751 153.245 C 195.279 156.461, 196.594 161.971, 197.848 162.032 C 198.207 162.049, 199.297 162.669, 200.272 163.408 C 201.725 164.511, 201.857 165.246, 201.004 167.489 C 200.015 170.090, 200.089 170.194, 202.482 169.594 C 204.614 169.059, 205.005 169.310, 205.032 171.231 C 205.069 173.869, 207.183 177, 208.928 177 C 210.311 177, 209.577 173.747, 207.422 170.325 C 206.364 168.646, 206.331 168.033, 207.276 167.638 C 208.121 167.284, 207.888 166.634, 206.525 165.538 C 205.133 164.419, 204.543 162.709, 204.525 159.739 C 204.505 156.316, 205.062 155.015, 207.500 152.793 C 210.394 150.155, 210.419 150.058, 208.225 150.029 C 206.679 150.009, 205.616 149.120, 204.906 147.252 C 204.331 145.740, 203.130 143.696, 202.236 142.709 C 200.733 141.048, 200.739 140.962, 202.306 141.564 C 203.269 141.934, 204 141.736, 204 141.107 C 204 140.498, 203.438 139.986, 202.750 139.970 C 202.063 139.953, 202.341 139.451, 203.369 138.853 C 204.780 138.033, 205.441 138.095, 206.065 139.106 C 206.721 140.167, 207.029 140.087, 207.553 138.722 C 207.917 137.775, 208.563 137, 208.990 137 C 210.227 137, 210.926 142.428, 209.781 143.136 C 209.186 143.503, 209.097 144.348, 209.573 145.118 C 210.029 145.855, 210.424 148.230, 210.451 150.395 C 210.479 152.615, 211.045 154.513, 211.750 154.749 C 213.155 155.219, 213.476 153.412, 212.134 152.583 C 211.658 152.289, 211.470 150.990, 211.718 149.697 C 212.151 147.430, 214.971 146.638, 216.646 148.313 C 217.877 149.544, 218.755 149.042, 219.383 146.750 C 219.888 144.907, 220.171 144.766, 220.946 145.971 C 221.466 146.780, 222.253 147.081, 222.694 146.639 C 223.136 146.198, 222.624 145.198, 221.557 144.418 C 220.491 143.638, 220.122 143, 220.737 143 C 221.353 143, 222.536 143.678, 223.365 144.508 C 224.209 145.352, 225.128 145.602, 225.453 145.077 C 225.772 144.561, 225.575 143.856, 225.016 143.510 C 224.457 143.165, 224 142.034, 224 140.998 C 224 138.565, 219.972 135.628, 218.566 137.034 C 217.878 137.722, 217.939 138.673, 218.755 139.979 C 219.530 141.221, 219.604 142.126, 218.963 142.523 C 218.416 142.861, 218.226 143.557, 218.543 144.069 C 218.859 144.581, 218.408 145, 217.540 145 C 216.380 145, 216.119 144.373, 216.555 142.636 C 217.027 140.756, 216.673 140.138, 214.824 139.620 C 212.659 139.012, 212.620 138.875, 214.250 137.623 C 216.924 135.570, 216.353 134.740, 212.570 135.182 C 210.684 135.402, 209.360 135.226, 209.629 134.791 C 209.898 134.356, 209.454 134, 208.642 134 C 207.831 134, 206.960 134.563, 206.708 135.250 C 206.342 136.250, 205.985 136.250, 204.925 135.250 C 204.196 134.563, 202.790 134, 201.800 134 C 200.810 134, 200 133.502, 200 132.893 C 200 132.284, 199.380 132.024, 198.622 132.315 C 197.864 132.606, 196.683 132.316, 195.997 131.672 C 195.042 130.774, 194.643 130.792, 194.292 131.750 C 194.040 132.438, 193.435 133, 192.948 133 C 192.461 133, 192.322 132.325, 192.638 131.500 C 193.021 130.502, 192.593 129.993, 191.357 129.978 C 190.336 129.966, 188.414 129.121, 187.087 128.100 L 184.673 126.245 186.988 125.006 C 188.973 123.944, 189.219 123.988, 188.711 125.311 C 187.997 127.172, 189.645 128.681, 192.907 129.152 C 196.426 129.661, 196.488 127.704, 193.002 126.161 C 191.351 125.430, 190 124.195, 190 123.416 C 190 122.534, 188.963 122.006, 187.250 122.015 C 183.937 122.034, 181.512 123.402, 182.361 124.775 C 182.700 125.323, 182.057 126.013, 180.932 126.308 C 179.367 126.717, 179.132 126.546, 179.934 125.579 C 180.511 124.884, 180.697 124.031, 180.349 123.682 C 179.334 122.667, 182.067 120, 184.122 120 C 186.567 120, 186.529 118.354, 184.053 117.029 C 182.524 116.210, 181.888 116.363, 181.084 117.743 C 180.181 119.293, 180.057 119.307, 180.030 117.861 C 180.014 116.959, 179.109 115.159, 178.020 113.861 C 176.374 111.898, 175.880 111.744, 175.090 112.946 C 174.487 113.864, 174.496 115.058, 175.116 116.217 C 176.608 119.005, 175.047 120.512, 173.280 117.989 C 172.168 116.401, 172.063 115.537, 172.884 114.716 C 174.586 113.014, 174.265 110.684, 172.426 111.390 C 171.560 111.722, 170.178 111.321, 169.354 110.497 C 167.392 108.535, 162 108.500, 162 110.450 C 162 111.248, 162.787 112.365, 163.750 112.932 C 165.157 113.761, 165.237 114.137, 164.160 114.846 C 163.076 115.561, 163.246 116.562, 165.054 120.106 C 166.739 123.408, 166.883 124.148, 165.644 123.119 C 164.740 122.369, 164 121.173, 164 120.461 C 164 119.749, 163.575 119.017, 163.055 118.833 C 162.536 118.650, 161.711 116.700, 161.222 114.500 C 160.509 111.289, 160.695 109.908, 162.162 107.500 C 163.167 105.850, 163.992 105.054, 163.995 105.731 C 163.998 106.408, 165.238 107.258, 166.750 107.619 C 168.262 107.980, 170.136 108.776, 170.913 109.388 C 172.011 110.252, 172.222 110.166, 171.863 109 C 171.274 107.090, 162.956 102.803, 161.170 103.488 C 160.429 103.773, 158.677 103.104, 157.276 102.003 C 155.876 100.901, 154.164 100, 153.472 100 C 152.780 100, 151.955 99.325, 151.638 98.500 C 151.322 97.675, 150.599 97, 150.031 97 C 149.464 97, 149 97.675, 149 98.500 C 149 99.325, 148.662 100.037, 148.250 100.083 C 147.838 100.129, 146.423 100.284, 145.106 100.427 C 143.753 100.574, 142.027 99.886, 141.134 98.843 C 140.266 97.830, 138.756 97, 137.778 97 C 136.800 97, 136 96.523, 136 95.941 C 136 95.359, 135.546 95.163, 134.990 95.506 C 134.435 95.849, 132.799 95.201, 131.355 94.065 C 129.912 92.929, 128.116 92, 127.365 92 C 126.614 92, 126 91.550, 126 91 C 126 90.450, 126.675 90, 127.500 90 C 128.325 90, 129 89.550, 129 89 C 129 87.512, 127.394 87.771, 122.348 90.069 C 117.797 92.142, 115.597 92.003, 117.817 89.783 C 119.240 88.360, 119.398 86.636, 118.028 87.483 C 117.494 87.813, 116.031 87.441, 114.778 86.655 C 113.525 85.870, 110.925 85.226, 109 85.224 C 107.075 85.222, 106.119 85.452, 106.875 85.735 C 107.631 86.018, 109.094 87.094, 110.125 88.125 C 111.156 89.156, 112.927 90, 114.059 90 C 115.231 90, 115.841 90.448, 115.475 91.041 C 115.121 91.613, 113.970 91.808, 112.916 91.473 C 111.862 91.139, 111 91.303, 111 91.839 C 111 92.375, 110.152 92.591, 109.116 92.320 C 107.861 91.992, 107.395 91.206, 107.720 89.964 C 108.131 88.391, 107.684 88.135, 104.854 88.324 C 103.009 88.447, 100.938 88.901, 100.250 89.333 C 99.543 89.777, 99 89.658, 99 89.059 C 99 87.433, 96.865 87.802, 95.505 89.662 C 94.697 90.767, 93.654 91.081, 92.396 90.599 C 90.668 89.935, 90.742 89.727, 93.252 88.204 C 94.763 87.287, 96 86.191, 96 85.768 C 96 84.957, 95.698 84.951, 92.500 85.700 M 120 88 C 120 88.550, 120.450 89, 121 89 C 121.550 89, 122 88.550, 122 88 C 122 87.450, 121.550 87, 121 87 C 120.450 87, 120 87.450, 120 88 M 131.245 91.250 C 131.734 92.736, 136 93.567, 136 92.177 C 136 91.207, 133.691 90, 131.835 90 C 131.284 90, 131.019 90.563, 131.245 91.250 M 99 94 C 99 95.867, 99.267 96.133, 100.200 95.200 C 101.133 94.267, 101.133 93.733, 100.200 92.800 C 99.267 91.867, 99 92.133, 99 94 M 120.250 93.426 C 117.992 94.478, 117.211 97.394, 118.907 98.442 C 119.405 98.751, 119.561 98.036, 119.252 96.855 C 118.761 94.979, 119.025 94.772, 121.345 95.215 C 123.119 95.554, 124 95.291, 124 94.420 C 124 92.542, 122.819 92.229, 120.250 93.426 M 51.473 94.956 C 51.798 95.482, 52.725 95.659, 53.532 95.349 C 55.599 94.556, 55.356 94, 52.941 94 C 51.809 94, 51.148 94.430, 51.473 94.956 M 77.638 95.500 C 77.322 96.325, 77.499 97, 78.031 97 C 78.564 97, 79 96.325, 79 95.500 C 79 94.675, 78.823 94, 78.607 94 C 78.391 94, 77.955 94.675, 77.638 95.500 M 92.500 95 C 92.160 95.550, 92.332 96, 92.882 96 C 93.432 96, 94.160 95.550, 94.500 95 C 94.840 94.450, 94.668 94, 94.118 94 C 93.568 94, 92.840 94.450, 92.500 95 M 80 98.153 C 80 101.416, 84.812 105.838, 86.203 103.854 C 86.942 102.800, 87.265 102.777, 87.659 103.750 C 87.948 104.460, 89.751 104.956, 91.833 104.898 L 95.500 104.795 92.121 103.998 C 90.262 103.559, 88.461 102.745, 88.117 102.190 C 87.774 101.635, 86.145 101.027, 84.497 100.840 C 82.499 100.613, 81.496 99.940, 81.487 98.821 C 81.480 97.897, 81.143 96.809, 80.737 96.404 C 80.332 95.998, 80 96.786, 80 98.153 M 86.500 97.956 C 84.708 98.686, 84.812 98.841, 87.500 99.446 C 93.387 100.770, 93.878 100.761, 94.429 99.324 C 94.844 98.244, 94.474 98.032, 92.994 98.502 C 91.852 98.864, 91 98.679, 91 98.067 C 91 96.833, 89.354 96.793, 86.500 97.956 M 125.500 98 C 125.840 98.550, 126.879 98.993, 127.809 98.985 C 129.266 98.971, 129.293 98.835, 128 98 C 126.042 96.734, 124.718 96.734, 125.500 98 M 131 98 C 131 98.550, 131.477 99, 132.059 99 C 132.641 99, 132.840 98.550, 132.500 98 C 132.160 97.450, 131.684 97, 131.441 97 C 131.198 97, 131 97.450, 131 98 M 98.325 100.330 C 97.129 101.593, 96.454 103.092, 96.825 103.663 C 97.196 104.233, 101.784 104.994, 107.021 105.354 C 112.257 105.714, 118.035 106.437, 119.861 106.960 C 122.607 107.748, 123.084 107.661, 122.622 106.456 C 122.249 105.485, 122.719 105, 124.031 105 C 125.114 105, 126 105.342, 126 105.760 C 126 106.178, 127.184 107.797, 128.631 109.358 C 130.512 111.386, 131.478 111.844, 132.021 110.966 C 132.524 110.152, 133.962 109.958, 136.274 110.392 C 138.873 110.879, 139.913 110.670, 140.333 109.574 C 140.695 108.630, 140.425 108.284, 139.578 108.608 C 138.852 108.887, 137.590 108.447, 136.773 107.630 C 135.956 106.813, 133.641 105.836, 131.630 105.458 C 129.618 105.081, 127.536 104.036, 127.004 103.136 C 126.402 102.118, 125.747 101.877, 125.268 102.500 C 123.782 104.434, 113.483 105.591, 112.462 103.938 C 111.406 102.229, 112.804 101.592, 114.507 103.006 C 115.805 104.083, 116.292 103.983, 117.449 102.400 C 119.019 100.253, 118.751 99.418, 116.867 100.582 C 116.171 101.013, 114.678 101.471, 113.550 101.601 C 112.423 101.731, 110.600 101.987, 109.500 102.169 C 108.099 102.401, 107.542 101.975, 107.639 100.750 C 107.821 98.462, 106.297 98.489, 105.568 100.787 C 105.210 101.915, 103.859 102.662, 101.909 102.810 C 99.761 102.974, 98.960 102.657, 99.284 101.773 C 99.540 101.073, 100.256 100.612, 100.875 100.750 C 101.494 100.888, 102 100.325, 102 99.500 C 102 97.398, 100.858 97.656, 98.325 100.330 M 135 99.021 C 135 99.560, 134.352 100, 133.559 100 C 131.304 100, 130.854 101.637, 132.698 103.137 C 134.162 104.327, 134.291 104.278, 133.719 102.750 C 133.225 101.432, 133.579 101, 135.154 101 C 136.914 101, 137.045 101.241, 135.980 102.524 C 134.379 104.453, 134.594 104.622, 139.750 105.474 C 143.078 106.023, 144 105.869, 144 104.761 C 144 103.758, 143.127 103.475, 141 103.787 C 138.782 104.112, 138 103.828, 138 102.697 C 138 101.855, 138.501 101, 139.113 100.796 C 139.726 100.591, 139.051 99.889, 137.613 99.234 C 136.054 98.523, 135 98.437, 135 99.021 M 121.813 100.683 C 122.534 100.972, 123.397 100.936, 123.729 100.604 C 124.061 100.272, 123.471 100.036, 122.417 100.079 C 121.252 100.127, 121.015 100.364, 121.813 100.683 M 45 104 C 45 104.550, 45.702 105, 46.559 105 C 47.416 105, 47.840 104.550, 47.500 104 C 47.160 103.450, 46.459 103, 45.941 103 C 45.423 103, 45 103.450, 45 104 M 149 107.235 C 149 108.560, 152.409 112, 153.722 112 C 155.497 112, 155.317 113.023, 153.250 114.692 C 151.626 116.001, 151.654 116.062, 153.632 115.522 C 155.027 115.141, 155.966 115.469, 156.350 116.470 C 156.673 117.312, 157.401 118, 157.969 118 C 159.564 118, 159.186 115.285, 157.500 114.638 C 156.606 114.295, 156 112.790, 156 110.915 C 156 108.230, 156.303 107.846, 158.057 108.305 C 159.304 108.631, 159.970 108.410, 159.748 107.743 C 159.344 106.533, 149 106.044, 149 107.235 M 142.526 107.959 C 142.167 108.539, 142.614 109.299, 143.520 109.646 C 144.763 110.123, 144.859 110.469, 143.912 111.054 C 143.071 111.574, 143.917 112.356, 146.482 113.428 C 151.175 115.389, 151.675 115.046, 148.755 111.869 C 145.147 107.943, 143.265 106.762, 142.526 107.959 M 124.353 110.477 C 124.713 111.417, 125.280 113.269, 125.613 114.593 C 126.458 117.960, 128 117.599, 128 114.035 C 128 112.024, 127.308 110.700, 125.848 109.919 C 123.987 108.923, 123.785 108.998, 124.353 110.477 M 168.813 114.683 C 169.534 114.972, 170.397 114.936, 170.729 114.604 C 171.061 114.272, 170.471 114.036, 169.417 114.079 C 168.252 114.127, 168.015 114.364, 168.813 114.683 M 129.204 117.480 C 126.849 120.189, 127.124 122.338, 130.207 125.333 C 131.637 126.721, 132.421 126.895, 133.439 126.050 C 135.243 124.553, 135.952 121.533, 134.893 119.861 C 134.288 118.906, 134.026 119.321, 134.015 121.250 C 134.007 122.763, 133.570 124, 133.045 124 C 131.858 124, 130.563 117.517, 131.460 116.065 C 132.629 114.174, 131.420 114.932, 129.204 117.480 M 175 122 C 175 122.550, 175.927 123, 177.059 123 C 178.191 123, 178.840 122.550, 178.500 122 C 178.160 121.450, 177.234 121, 176.441 121 C 175.648 121, 175 121.450, 175 122 M 136 124.406 C 136 125.218, 136.450 126.160, 137 126.500 C 138.511 127.434, 138.198 129, 136.500 129 C 135.601 129, 135 129.922, 135 131.300 C 135 132.565, 134.652 134.028, 134.226 134.550 C 133.801 135.072, 133.730 137.750, 134.069 140.500 C 134.703 145.642, 135.474 143.210, 135.076 137.325 C 134.885 134.503, 135.118 134.199, 137.180 134.587 C 138.456 134.826, 138.938 134.755, 138.250 134.428 C 136.532 133.611, 136.671 131, 138.433 131 C 139.221 131, 140.135 131.851, 140.466 132.892 C 140.796 133.933, 141.940 135.012, 143.007 135.292 C 144.868 135.778, 144.882 135.671, 143.335 132.650 C 141.112 128.307, 136 122.562, 136 124.406 M 169.020 125.524 C 169.716 126.362, 170.491 126.842, 170.743 126.591 C 171.436 125.897, 170.027 124, 168.819 124 C 168.155 124, 168.231 124.574, 169.020 125.524 M 174 128.693 C 174 129.294, 174.563 129.993, 175.250 130.246 C 176.940 130.867, 179 130.070, 179 128.794 C 179 128.105, 178.554 128.125, 177.676 128.854 C 176.710 129.656, 176.035 129.635, 175.176 128.776 C 174.376 127.976, 174 127.949, 174 128.693 M 129.030 133.668 C 128.995 138.506, 129.828 141.224, 131.105 140.435 C 131.597 140.131, 132 139.432, 132 138.882 C 132 138.332, 131.557 138.156, 131.015 138.491 C 130.407 138.866, 130.256 137.969, 130.620 136.149 C 130.945 134.526, 130.727 132.366, 130.136 131.349 C 129.243 129.814, 129.056 130.208, 129.030 133.668 M 189.964 134.836 C 190.623 136.120, 191.436 136.897, 191.771 136.562 C 192.107 136.227, 191.568 135.176, 190.574 134.226 C 188.846 132.576, 188.819 132.603, 189.964 134.836 M 197.482 134.029 C 197.087 134.669, 197.506 135.934, 198.413 136.841 C 199.946 138.374, 200.038 138.334, 199.724 136.271 C 199.291 133.439, 198.399 132.546, 197.482 134.029 M 140.564 137.293 C 140.940 138.279, 141.499 138.834, 141.807 138.526 C 142.115 138.219, 141.808 137.412, 141.124 136.733 C 140.136 135.753, 140.022 135.868, 140.564 137.293 M 193.667 136.667 C 192.452 137.881, 192.976 138.947, 194.500 138.362 C 195.325 138.045, 196 137.384, 196 136.893 C 196 135.845, 194.622 135.711, 193.667 136.667 M 144.534 141.176 C 145.247 144.880, 141.613 147.786, 140.689 144.250 C 140.277 142.672, 140.221 142.666, 140.116 144.191 C 139.951 146.597, 141.582 147.278, 143.959 145.793 C 146.026 144.503, 146.915 139, 145.057 139 C 144.539 139, 144.303 139.979, 144.534 141.176 M 225 141.531 C 225 142.339, 225.675 143, 226.500 143 C 227.325 143, 228 142.598, 228 142.107 C 228 141.616, 227.325 140.955, 226.500 140.638 C 225.586 140.288, 225 140.637, 225 141.531 M 229 143.941 C 229 145.421, 230.462 145.953, 232.826 145.335 C 236.010 144.503, 235.478 143, 232 143 C 230.350 143, 229 143.423, 229 143.941 M 226 146.893 C 226 147.907, 229.046 149.288, 229.743 148.590 C 229.995 148.339, 229.904 147.653, 229.541 147.067 C 228.743 145.776, 226 145.641, 226 146.893 M 142.500 150 C 142.160 150.550, 142.610 151, 143.500 151 C 144.390 151, 144.840 150.550, 144.500 150 C 144.160 149.450, 143.710 149, 143.500 149 C 143.290 149, 142.840 149.450, 142.500 150 M 201.563 152.070 C 203.641 154.366, 204 154.447, 204 152.617 C 204 151.856, 203.059 150.987, 201.908 150.686 C 199.900 150.161, 199.887 150.217, 201.563 152.070 M 207.212 155.250 C 205.875 156.867, 206.072 164, 207.453 164 C 208.035 164, 209.027 162.349, 209.659 160.331 C 211.277 155.161, 209.807 152.109, 207.212 155.250" stroke="none" fill="#000000" fill-rule="evenodd"/><path fill-opacity=".383" d="M 101.500 8.407 C 76.181 13.910, 58.038 24.061, 38.478 43.665 C 23.454 58.723, 13.873 75.805, 8.448 97.206 C -4.442 148.056, 14.343 198.553, 56.809 227.208 C 92.657 251.398, 140.696 254.390, 181.500 234.973 C 207.597 222.555, 231.020 195.616, 239.731 168 C 244.081 154.210, 244.985 150.162, 245.986 139.989 C 246.963 130.051, 246.098 109.592, 244.387 102.195 C 243.126 96.741, 237.708 80.587, 235.308 75.125 C 225.773 53.430, 201.572 29.112, 178.529 18.071 C 161.239 9.788, 148.973 6.958, 128 6.416 C 114.432 6.065, 111.129 6.314, 101.500 8.407 M 107.500 12.596 C 58.144 21.339, 21.213 57.956, 11.785 107.500 C 10.455 114.492, 10.488 139.291, 11.838 146.500 C 16.532 171.575, 28.263 193.432, 46.248 210.615 C 59.121 222.914, 73.621 231.583, 90 236.772 C 103.362 241.005, 112.653 242.436, 126.500 242.390 C 184.167 242.200, 231.924 200.760, 240.426 143.532 C 242.392 130.304, 242.403 123.715, 240.485 110.743 C 233.966 66.654, 204.108 30.916, 162.211 17.054 C 144.620 11.233, 124.467 9.591, 107.500 12.596 M 82 87 C 82 87.550, 82.477 88, 83.059 88 C 83.641 88, 83.840 87.550, 83.500 87 C 83.160 86.450, 82.684 86, 82.441 86 C 82.198 86, 82 86.450, 82 87 M 90 87.500 C 89.246 88.408, 89.166 89, 89.796 89 C 91.633 89, 94 87.814, 94 86.893 C 94 85.462, 91.359 85.863, 90 87.500 M 110 86.941 C 110 88.229, 111.644 89.137, 114.557 89.457 C 117.447 89.774, 117.638 89.205, 115.250 87.392 C 113.216 85.848, 110 85.572, 110 86.941 M 95.535 89.962 C 94.187 91.451, 93.304 91.698, 91.940 90.968 C 88.906 89.344, 83.389 89.858, 80.861 91.999 C 78.544 93.961, 78.536 94.027, 80.441 95.499 C 83.167 97.607, 88.717 97.368, 91.710 95.014 C 94.078 93.151, 96.659 93.125, 95.515 94.976 C 95.230 95.437, 95.877 95.583, 96.953 95.302 C 98.547 94.885, 98.798 94.211, 98.310 91.645 C 97.542 87.601, 97.625 87.652, 95.535 89.962 M 103.500 88.727 C 99.718 89.265, 98.102 90.718, 100.333 91.574 C 101.250 91.926, 102 93.092, 102 94.166 C 102 95.240, 101.550 95.840, 101 95.500 C 100.450 95.160, 100 95.327, 100 95.871 C 100 96.416, 98.992 97.005, 97.760 97.180 C 96.528 97.356, 95.370 98.287, 95.187 99.250 C 94.719 101.706, 96.436 101.427, 99.549 98.543 C 102.049 96.225, 102.338 96.176, 104.619 97.670 C 106.202 98.707, 108.215 99.064, 110.441 98.703 C 113.023 98.284, 113.996 98.548, 114.476 99.798 C 115.021 101.218, 115.235 101.242, 116.038 99.972 C 117.376 97.857, 117.213 95.760, 115.750 96.264 C 115.063 96.501, 112.933 95.639, 111.018 94.348 C 109.103 93.056, 106.403 91.970, 105.018 91.932 L 102.500 91.865 104.750 90.780 C 105.987 90.183, 107 89.313, 107 88.847 C 107 88.381, 106.888 88.067, 106.750 88.150 C 106.612 88.232, 105.150 88.492, 103.500 88.727 M 123.143 89.890 C 120.789 91.382, 123.406 91.890, 126.013 90.448 C 128.215 89.229, 128.271 89.069, 126.500 89.051 C 125.400 89.040, 123.889 89.417, 123.143 89.890 M 68 91.465 C 68 93.454, 71.195 95.023, 73.838 94.332 C 75.272 93.957, 76.005 94.227, 76.015 95.133 C 76.028 96.249, 76.196 96.239, 76.930 95.078 C 77.598 94.024, 76.950 93.185, 74.419 91.828 C 70.300 89.621, 68 89.490, 68 91.465 M 117.079 91.991 C 115.198 92.271, 113.450 93.131, 113.195 93.903 C 112.830 95.007, 113.532 95.175, 116.490 94.695 C 120.558 94.035, 121.402 93.573, 120.854 92.304 C 120.659 91.852, 118.961 91.711, 117.079 91.991 M 60.500 94 C 60.160 94.550, 60.809 95, 61.941 95 C 63.073 95, 64 94.550, 64 94 C 64 93.450, 63.352 93, 62.559 93 C 61.766 93, 60.840 93.450, 60.500 94 M 124 93.965 C 124 95.267, 127.389 97, 129.934 97 C 132.536 97, 132.607 95.395, 130.066 94.035 C 127.630 92.732, 124 92.690, 124 93.965 M 51.813 94.683 C 52.534 94.972, 53.397 94.936, 53.729 94.604 C 54.061 94.272, 53.471 94.036, 52.417 94.079 C 51.252 94.127, 51.015 94.364, 51.813 94.683 M 63.667 95.667 C 62.233 97.100, 63.133 98, 66 98 C 69.206 98, 70.030 96.609, 67.418 95.607 C 65.385 94.827, 64.492 94.841, 63.667 95.667 M 119.625 95.798 C 118.816 97.107, 120.357 98.805, 123.409 99.965 C 127.359 101.467, 127.831 100.499, 124.605 97.510 C 121.788 94.899, 120.462 94.443, 119.625 95.798 M 43.225 96.903 C 43.433 97.675, 42.603 99.307, 41.381 100.528 C 39.626 102.283, 38.008 102.750, 33.686 102.750 C 30.676 102.750, 27.715 103.058, 27.107 103.434 C 26.498 103.810, 26 106.454, 26.001 109.309 C 26.003 124.179, 44.088 143.624, 65.500 151.779 C 78.671 156.796, 92.294 158.554, 106 157.006 C 116.639 155.804, 132.703 152.289, 133.508 150.986 C 133.798 150.518, 132.931 147.639, 131.582 144.589 C 128.648 137.956, 127.326 130.534, 128.904 129.559 C 130.455 128.601, 130.263 126.120, 128.502 124.359 C 127.677 123.534, 126.752 121.654, 126.445 120.180 C 123.790 107.427, 123.777 107.417, 107.588 105.761 C 101.490 105.138, 96.169 104.149, 95.765 103.564 C 95.250 102.817, 95.026 102.816, 95.015 103.560 C 94.999 104.715, 60.385 107.718, 59.324 106.657 C 58.986 106.319, 59.787 105.612, 61.105 105.085 C 63.469 104.139, 63.463 104.126, 60.610 104.063 C 59.021 104.029, 57.221 104.641, 56.610 105.424 C 55.731 106.552, 54.375 106.663, 50.084 105.958 C 44.916 105.109, 40.682 103, 44.145 103 C 44.995 103, 46.495 102.111, 47.479 101.024 C 48.462 99.937, 49.657 99.288, 50.134 99.583 C 50.610 99.877, 51 99.416, 51 98.559 C 51 96.836, 49.453 96.459, 48.527 97.956 C 47.860 99.036, 44.926 98.199, 43.674 96.573 C 43.141 95.881, 42.982 95.998, 43.225 96.903 M 92 97 C 92 97.550, 92.450 98, 93 98 C 93.550 98, 94 97.550, 94 97 C 94 96.450, 93.550 96, 93 96 C 92.450 96, 92 96.450, 92 97 M 73 98.500 C 73 100.113, 73.916 100.353, 76.412 99.395 C 78.448 98.614, 77.456 97, 74.941 97 C 73.873 97, 73 97.675, 73 98.500 M 137 97.883 C 137 98.369, 137.926 99.009, 139.057 99.305 C 140.745 99.746, 140.903 99.588, 139.935 98.421 C 138.614 96.830, 137 96.535, 137 97.883 M 81.555 98.911 C 81.245 99.413, 82.793 100.127, 84.996 100.499 C 87.198 100.871, 89 101.586, 89 102.088 C 89 102.590, 90.125 103, 91.500 103 C 92.875 103, 94 102.598, 94 102.107 C 94 100.896, 91.438 100, 87.977 100 C 86.405 100, 84.840 99.550, 84.500 99 C 83.729 97.752, 82.298 97.709, 81.555 98.911 M 31 99.883 C 31 100.911, 34.631 102.036, 35.415 101.252 C 35.707 100.960, 35.706 100.334, 35.414 99.861 C 34.714 98.728, 31 98.747, 31 99.883 M 102 99.383 C 102 99.594, 102.901 100.002, 104.001 100.290 C 105.102 100.578, 105.751 100.405, 105.442 99.907 C 104.904 99.036, 102 98.594, 102 99.383 M 129 100.417 C 129 101.196, 128.438 102.062, 127.750 102.341 C 125.707 103.170, 129.057 104.979, 132.500 104.906 C 134.150 104.871, 134.825 104.592, 134 104.287 C 130.886 103.134, 129.911 101.812, 131.110 100.367 C 131.991 99.306, 131.881 99, 130.622 99 C 129.730 99, 129 99.638, 129 100.417 M 108 101 C 108 101.550, 108.648 102, 109.441 102 C 110.234 102, 111.160 101.550, 111.500 101 C 111.840 100.450, 111.191 100, 110.059 100 C 108.927 100, 108 100.450, 108 101 M 147.564 100.896 C 147.260 101.389, 147.825 102.797, 148.820 104.026 C 150.254 105.797, 151.603 106.242, 155.315 106.167 C 158.864 106.096, 160 106.438, 160 107.580 C 160 108.451, 159.277 108.964, 158.286 108.794 C 156.178 108.432, 155.366 111.531, 157.040 113.548 C 158.920 115.813, 160 115.269, 160 112.059 C 160 110.441, 160.396 108.873, 160.879 108.575 C 161.363 108.276, 162.007 107.080, 162.312 105.917 C 162.754 104.226, 162.491 103.900, 161.002 104.289 C 159.864 104.587, 158.265 103.847, 156.895 102.388 C 154.626 99.973, 148.719 99.028, 147.564 100.896 M 77 102 C 77 102.550, 77.927 103, 79.059 103 C 80.191 103, 80.840 102.550, 80.500 102 C 80.160 101.450, 79.234 101, 78.441 101 C 77.648 101, 77 101.450, 77 102 M 118.688 101.646 C 117.383 102.950, 118.006 104, 120.083 104 C 121.247 104, 121.992 103.476, 121.771 102.813 C 121.284 101.351, 119.614 100.719, 118.688 101.646 M 134 102.059 C 134 102.641, 134.450 102.840, 135 102.500 C 135.550 102.160, 136 101.684, 136 101.441 C 136 101.198, 135.550 101, 135 101 C 134.450 101, 134 101.477, 134 102.059 M 138.565 101.895 C 137.545 103.544, 141.324 104.105, 142.892 102.537 C 144.274 101.154, 144.162 101, 141.773 101 C 140.313 101, 138.869 101.403, 138.565 101.895 M 68.920 103.596 C 67.764 104.990, 67.897 105.148, 69.970 104.846 C 71.275 104.656, 72.529 103.938, 72.755 103.250 C 73.348 101.451, 70.486 101.709, 68.920 103.596 M 48.750 103.662 C 49.438 103.940, 50.563 103.940, 51.250 103.662 C 51.938 103.385, 51.375 103.158, 50 103.158 C 48.625 103.158, 48.063 103.385, 48.750 103.662 M 112 103.383 C 112 103.594, 112.901 104.002, 114.001 104.290 C 115.102 104.578, 115.751 104.405, 115.442 103.907 C 114.904 103.036, 112 102.594, 112 103.383 M 144 105.277 C 144 107.016, 149.855 112.044, 150.557 110.908 C 150.866 110.409, 150.641 110, 150.059 110 C 149.477 110, 149 109.190, 149 108.200 C 149 106.094, 147.155 104, 145.300 104 C 144.585 104, 144 104.575, 144 105.277 M 123.393 106.582 C 123.727 107.452, 124 108.352, 124 108.582 C 124 108.812, 124.675 109, 125.500 109 C 126.325 109, 127 109.450, 127 110 C 127 110.550, 127.481 111, 128.068 111 C 128.656 111, 128.175 109.650, 127 108 C 124.746 104.835, 122.363 103.898, 123.393 106.582 M 136 106.031 C 136 107.422, 138.626 108.349, 140.059 107.464 C 140.901 106.943, 140.847 106.518, 139.857 105.890 C 137.996 104.711, 136 104.784, 136 106.031 M 164.500 106 C 164.840 106.550, 165.793 107, 166.618 107 C 167.443 107, 167.840 106.550, 167.500 106 C 167.160 105.450, 166.207 105, 165.382 105 C 164.557 105, 164.160 105.450, 164.500 106 M 140.469 110.050 C 140.101 110.646, 138.382 111.042, 136.650 110.930 C 132.562 110.667, 129.290 111.802, 128.546 113.742 C 127.733 115.858, 128.653 116.533, 130.387 115.094 C 131.501 114.170, 131.993 114.180, 132.588 115.142 C 133.017 115.836, 132.835 116.555, 132.177 116.774 C 130.583 117.306, 130.746 119.089, 132.609 121.500 C 133.859 123.117, 134.092 123.178, 133.828 121.816 C 133.111 118.130, 135.218 119.846, 139.914 126.774 C 145.750 135.383, 148.107 143.470, 145.364 145.476 C 144.446 146.147, 143.976 147.152, 144.320 147.709 C 144.708 148.337, 146.757 147.831, 149.723 146.373 C 152.350 145.082, 159.815 142.642, 166.312 140.951 C 178.603 137.752, 182.446 135.548, 180.816 132.635 C 179.347 130.011, 177.901 130.736, 178.593 133.750 C 179.192 136.362, 179.058 136.304, 175.922 132.608 C 174.107 130.468, 170.007 126.793, 166.813 124.441 C 163.434 121.954, 161.526 119.953, 162.252 119.657 C 162.938 119.377, 162.370 119.204, 160.990 119.273 C 159.609 119.341, 157.134 118.638, 155.490 117.710 C 153.845 116.783, 149.858 115.066, 146.630 113.895 C 142.976 112.570, 141.223 111.480, 141.987 111.008 C 142.797 110.508, 142.861 110.032, 142.176 109.609 C 141.605 109.256, 140.837 109.455, 140.469 110.050 M 163 110.521 C 163 112.763, 167.705 114.700, 169.277 113.106 C 170.243 112.126, 170.092 111.564, 168.559 110.433 C 166.013 108.554, 163 108.602, 163 110.521 M 150.500 113 C 150.160 113.550, 150.809 114, 151.941 114 C 153.073 114, 154 113.550, 154 113 C 154 112.450, 153.352 112, 152.559 112 C 151.766 112, 150.840 112.450, 150.500 113 M 171 113.622 C 171 114.951, 171.271 115.020, 172.500 114 C 173.325 113.315, 174 112.585, 174 112.378 C 174 112.170, 173.325 112, 172.500 112 C 171.675 112, 171 112.730, 171 113.622 M 175 114.860 C 175 115.975, 175.829 117.475, 176.842 118.193 C 177.855 118.912, 178.898 120.153, 179.159 120.951 C 179.450 121.841, 179.881 122.002, 180.273 121.368 C 181.069 120.080, 177.945 113.759, 176.250 113.226 C 175.532 113.001, 175 113.696, 175 114.860 M 164.472 117.744 C 165.443 121.611, 166.693 122.828, 171.037 124.129 C 173.477 124.860, 175.047 126.025, 175.425 127.384 C 176.004 129.469, 176.041 129.463, 177.961 127 L 179.910 124.500 177.455 124.184 C 176.105 124.010, 175 123.257, 175 122.510 C 175 121.764, 173.835 119.769, 172.411 118.077 C 170.573 115.892, 168.947 115, 166.803 115 C 164.010 115, 163.835 115.206, 164.472 117.744 M 159 117 C 159 117.550, 159.423 118, 159.941 118 C 160.459 118, 161.160 117.550, 161.500 117 C 161.840 116.450, 161.416 116, 160.559 116 C 159.702 116, 159 116.450, 159 117 M 181 117.883 C 181 118.369, 182.129 118.983, 183.509 119.246 C 185.539 119.635, 185.802 119.466, 184.886 118.363 C 183.623 116.840, 181 116.517, 181 117.883 M 183 124 C 183 125.274, 187.029 125.274, 189 124 C 190.116 123.279, 189.539 123.027, 186.750 123.015 C 184.688 123.007, 183 123.450, 183 124 M 132.736 126.906 C 131.492 128.167, 131.024 130.066, 131.148 133.347 C 131.314 137.739, 133 140.207, 133 136.059 C 133 134.991, 133.495 133.812, 134.101 133.438 C 134.721 133.054, 134.954 131.520, 134.635 129.923 C 134.159 127.547, 134.345 127.193, 135.784 127.732 C 137.283 128.293, 137.327 128.161, 136.128 126.687 C 135.373 125.759, 134.698 125.027, 134.628 125.059 C 134.557 125.092, 133.706 125.923, 132.736 126.906 M 172 127 C 172 127.550, 172.450 128, 173 128 C 173.550 128, 174 127.550, 174 127 C 174 126.450, 173.550 126, 173 126 C 172.450 126, 172 126.450, 172 127 M 189 126.893 C 189 127.913, 191.427 129, 193.704 129 C 194.960 129, 195.015 128.723, 194 127.500 C 192.654 125.878, 189 125.434, 189 126.893 M 180.189 127.662 C 178.010 128.568, 181.892 132, 185.096 132 C 188.308 132, 189.538 130.691, 187.733 129.194 C 186.099 127.837, 181.844 126.973, 180.189 127.662 M 137.188 132.063 C 137.428 132.784, 138.216 133.572, 138.938 133.813 C 139.688 134.063, 140.063 133.688, 139.813 132.938 C 139.572 132.216, 138.784 131.428, 138.063 131.188 C 137.313 130.938, 136.938 131.313, 137.188 132.063 M 190 132 C 190 132.550, 190.450 133, 191 133 C 191.550 133, 192 132.550, 192 132 C 192 131.450, 191.550 131, 191 131 C 190.450 131, 190 131.450, 190 132 M 193.211 133.541 C 191.923 134.998, 191.995 135.140, 194.141 135.375 C 194.769 135.444, 195.781 136.400, 196.391 137.500 C 197.001 138.600, 197.950 139.831, 198.500 140.235 C 199.065 140.650, 198.738 140.976, 197.750 140.985 C 196.554 140.995, 196 141.792, 196 143.500 C 196 146.434, 199.208 150, 201.847 150 C 202.863 150, 204.112 150.935, 204.622 152.078 L 205.549 154.156 207.429 152.078 C 209.278 150.035, 209.274 150, 207.155 150 C 205.958 150, 205 149.367, 205 148.577 C 205 147.794, 203.942 145.881, 202.649 144.327 C 201.356 142.772, 200.483 140.968, 200.710 140.318 C 200.936 139.667, 200.226 138.656, 199.131 138.070 C 198.036 137.484, 196.996 136.026, 196.820 134.831 C 196.425 132.147, 194.918 131.608, 193.211 133.541 M 200.442 135.094 C 199.570 136.504, 200.917 138, 203.059 138 C 204.127 138, 205 137.377, 205 136.617 C 205 135.005, 201.268 133.758, 200.442 135.094 M 135 136.427 C 135 137.828, 139.523 142, 141.041 142 C 142.502 142, 140.747 137.936, 138.653 136.469 C 136.014 134.621, 135 134.610, 135 136.427 M 142.015 136.750 C 142.024 137.713, 142.467 139.175, 143 140 C 143.736 141.138, 143.973 140.716, 143.985 138.250 C 143.993 136.463, 143.550 135, 143 135 C 142.450 135, 142.007 135.787, 142.015 136.750 M 184.929 136.415 C 186.492 138.298, 190.352 138.566, 189.756 136.750 C 189.530 136.063, 188.056 135.349, 186.480 135.165 C 183.963 134.871, 183.774 135.023, 184.929 136.415 M 210.694 135.639 C 210.342 135.991, 210.282 136.647, 210.559 137.096 C 211.183 138.105, 214 137.120, 214 135.893 C 214 134.867, 211.647 134.686, 210.694 135.639 M 206 138.059 C 206 138.641, 206.450 138.840, 207 138.500 C 207.550 138.160, 208 137.684, 208 137.441 C 208 137.198, 207.550 137, 207 137 C 206.450 137, 206 137.477, 206 138.059 M 219.170 139.162 C 219.352 140.437, 220.287 141.630, 221.250 141.813 C 223.726 142.285, 223.473 139.323, 220.920 137.957 C 219.067 136.966, 218.876 137.097, 219.170 139.162 M 210 139.917 C 210 140.421, 210.563 141.044, 211.250 141.302 C 212.122 141.629, 211.916 142.220, 210.570 143.254 C 208.663 144.719, 208.663 144.749, 210.570 145.728 C 211.631 146.272, 213.963 146.995, 215.750 147.334 C 218.272 147.812, 219 147.606, 219 146.416 C 219 145.572, 218.650 145.098, 218.222 145.363 C 217.794 145.627, 216.332 144.937, 214.972 143.829 C 213.353 142.509, 213.104 142.008, 214.250 142.376 C 216.270 143.024, 216.543 141.943, 214.800 140.200 C 213.390 138.790, 210 138.590, 210 139.917 M 132 141.500 C 132 142.325, 132.450 143, 133 143 C 133.550 143, 134 142.325, 134 141.500 C 134 140.675, 133.550 140, 133 140 C 132.450 140, 132 140.675, 132 141.500 M 136 143.417 C 136 144.196, 135.438 145.040, 134.750 145.292 C 132.512 146.112, 135.656 148.337, 139.481 148.638 C 141.416 148.791, 143 148.754, 143 148.556 C 143 148.358, 141.537 147.260, 139.750 146.115 C 137.963 144.970, 137.089 144.026, 137.809 144.017 C 138.529 144.008, 138.840 143.550, 138.500 143 C 137.587 141.522, 136 141.786, 136 143.417 M 229.500 144 C 229.143 144.577, 230.070 144.994, 231.691 144.985 C 233.872 144.973, 234.165 144.753, 233 144 C 231.079 142.758, 230.267 142.758, 229.500 144 M 226 147 C 226 147.550, 226.702 148, 227.559 148 C 228.416 148, 228.840 147.550, 228.500 147 C 228.160 146.450, 227.459 146, 226.941 146 C 226.423 146, 226 146.450, 226 147 M 196.667 150.667 C 196.300 151.033, 196 153.103, 196 155.265 C 196 158.355, 196.650 159.805, 199.036 162.033 C 201.458 164.296, 201.939 165.394, 201.419 167.466 C 200.785 169.994, 200.844 170.031, 203.634 168.842 C 207.873 167.035, 208.440 166.274, 206.101 165.532 C 204.355 164.978, 204 164.063, 204 160.120 C 204 156.226, 203.497 154.892, 201.195 152.687 C 198.215 149.832, 197.721 149.612, 196.667 150.667 M 207.667 155.667 C 206.409 156.925, 207 160, 208.500 160 C 209.433 160, 210 159.056, 210 157.500 C 210 155.072, 209.026 154.307, 207.667 155.667 M 205 171.778 C 205 172.756, 205.910 174.334, 207.021 175.286 C 208.990 176.972, 209.025 176.945, 208.383 174.258 C 208.020 172.741, 207.534 171.162, 207.303 170.750 C 206.506 169.330, 205 170.003, 205 171.778" stroke="none" fill="#000000" fill-rule="evenodd"/><path fill-opacity=".667" d="M 103.330 8.481 C 79.654 12.777, 59.036 24.077, 39.560 43.432 C 21.607 61.273, 12.081 79.691, 7.044 106.301 C 1.767 134.182, 7.055 165.692, 20.839 188.500 C 28.974 201.961, 43.545 217.542, 55.747 225.828 C 69.923 235.455, 90.745 243.683, 106.908 246.047 C 120.137 247.981, 143.227 246.809, 155.500 243.580 C 179.496 237.268, 196.512 227.772, 212.103 211.994 C 228.338 195.565, 237.861 177.550, 243.425 152.741 C 245.541 143.305, 246 138.692, 246 126.855 C 246 114.254, 245.629 110.950, 243.039 100.475 C 241.410 93.889, 239.133 86.025, 237.977 83 C 223.143 44.153, 186.450 14.570, 145 8.039 C 136.118 6.640, 112.074 6.895, 103.330 8.481 M 104 12.485 C 75.026 18.267, 45.962 37.316, 30.601 60.592 C 28.457 63.841, 25.961 67.625, 25.054 69 C 19.663 77.179, 12.613 97.849, 11.014 110.163 C 5.191 155.010, 23.584 197.034, 60.327 222.834 C 71.164 230.444, 84 236.201, 99 240.180 C 106.337 242.126, 110.032 242.438, 126 242.458 C 143.108 242.479, 145.274 242.273, 154.793 239.712 C 165.613 236.802, 179.012 231.082, 187.471 225.763 C 198.161 219.040, 210.812 207.565, 217.526 198.500 C 219.155 196.300, 220.720 194.275, 221.004 194 C 223.613 191.467, 231.847 176.162, 234.557 168.809 C 238.904 157.013, 239.267 155.393, 242.188 134.750 C 243.649 124.425, 240.960 103.610, 236.445 90.296 C 222.682 49.711, 187.658 19.559, 145.566 12.057 C 137.525 10.624, 112.009 10.887, 104 12.485 M 110 86.865 C 110 88.041, 113.880 89.453, 114.742 88.591 C 115.511 87.822, 114.994 87.400, 112.250 86.557 C 110.956 86.159, 110 86.290, 110 86.865 M 90.813 87.683 C 91.534 87.972, 92.397 87.936, 92.729 87.604 C 93.061 87.272, 92.471 87.036, 91.417 87.079 C 90.252 87.127, 90.015 87.364, 90.813 87.683 M 95.958 90.550 C 94.896 91.830, 94.958 92.386, 96.310 93.739 C 97.829 95.257, 97.933 95.143, 97.725 92.191 C 97.462 88.467, 97.589 88.585, 95.958 90.550 M 100.500 90 C 100.160 90.550, 100.809 91, 101.941 91 C 103.073 91, 104 90.550, 104 90 C 104 89.450, 103.352 89, 102.559 89 C 101.766 89, 100.840 89.450, 100.500 90 M 68.503 90.996 C 67.757 92.202, 72.699 94.635, 73.753 93.581 C 74.162 93.171, 73.624 92.198, 72.557 91.418 C 70.265 89.742, 69.337 89.646, 68.503 90.996 M 81.861 91.929 C 79.940 93.498, 79.738 94.100, 80.777 95.156 C 82.755 97.167, 89.497 96.765, 92.014 94.487 L 94.188 92.520 91.344 91.305 C 87.247 89.555, 84.549 89.732, 81.861 91.929 M 61.500 94 C 61.160 94.550, 61.359 95, 61.941 95 C 62.523 95, 63 94.550, 63 94 C 63 93.450, 62.802 93, 62.559 93 C 62.316 93, 61.840 93.450, 61.500 94 M 103 94.465 C 103 96.295, 106.074 98, 109.375 98 C 112.832 98, 113.474 96.446, 110.794 94.568 C 107.913 92.551, 103 92.485, 103 94.465 M 114 94 C 114 94.550, 114.648 95, 115.441 95 C 116.234 95, 117.160 94.550, 117.500 94 C 117.840 93.450, 117.191 93, 116.059 93 C 114.927 93, 114 93.450, 114 94 M 64 97 C 65.957 98.264, 68 98.264, 68 97 C 68 96.450, 66.763 96.007, 65.250 96.015 C 63.107 96.027, 62.831 96.245, 64 97 M 120 96.893 C 120 97.814, 122.367 99, 124.204 99 C 124.834 99, 124.754 98.408, 124 97.500 C 122.641 95.863, 120 95.462, 120 96.893 M 114.625 97.798 C 114.354 98.237, 114.545 99.249, 115.051 100.048 C 115.768 101.182, 115.973 101.007, 115.985 99.250 C 116 96.937, 115.492 96.394, 114.625 97.798 M 73.750 98.662 C 74.438 98.940, 75.563 98.940, 76.250 98.662 C 76.938 98.385, 76.375 98.158, 75 98.158 C 73.625 98.158, 73.063 98.385, 73.750 98.662 M 95.500 99 C 95.160 99.550, 95.557 100, 96.382 100 C 97.207 100, 98.160 99.550, 98.500 99 C 98.840 98.450, 98.443 98, 97.618 98 C 96.793 98, 95.840 98.450, 95.500 99 M 32 100 C 32 100.550, 33.013 100.993, 34.250 100.985 C 36.069 100.972, 36.213 100.784, 35 100 C 33.061 98.747, 32 98.747, 32 100 M 41.559 100.532 C 39.716 101.925, 39.774 102, 42.686 102 C 44.374 102, 46.315 101.325, 47 100.500 C 48.048 99.238, 47.869 99.005, 45.872 99.032 C 44.568 99.049, 42.626 99.724, 41.559 100.532 M 108.500 101 C 108.160 101.550, 108.332 102, 108.882 102 C 109.432 102, 110.160 101.550, 110.500 101 C 110.840 100.450, 110.668 100, 110.118 100 C 109.568 100, 108.840 100.450, 108.500 101 M 148.400 101.162 C 147.348 102.865, 151.915 106.151, 154.845 105.800 C 158.394 105.374, 158.499 103.726, 155.105 101.721 C 151.713 99.717, 149.411 99.525, 148.400 101.162 M 90 102 C 91.939 103.253, 93 103.253, 93 102 C 93 101.450, 91.987 101.007, 90.750 101.015 C 88.931 101.028, 88.787 101.216, 90 102 M 139.500 102 C 139.160 102.550, 139.557 103, 140.382 103 C 141.207 103, 142.160 102.550, 142.500 102 C 142.840 101.450, 142.443 101, 141.618 101 C 140.793 101, 139.840 101.450, 139.500 102 M 128 102.924 C 128 103.398, 128.675 104.045, 129.500 104.362 C 130.325 104.678, 131 104.549, 131 104.076 C 131 103.602, 130.325 102.955, 129.500 102.638 C 128.675 102.322, 128 102.451, 128 102.924 M 29.250 103.813 C 27.218 104.108, 27.001 104.688, 27.010 109.820 C 27.026 119.528, 33.201 129.477, 45.654 139.860 C 65.301 156.241, 97.134 161.342, 126.596 152.831 L 133.693 150.781 130.986 144.131 C 129.445 140.344, 127.961 134.256, 127.540 129.990 C 127.133 125.871, 126.057 119.575, 125.150 116 C 123.572 109.784, 123.325 109.442, 119.500 108.178 C 113.442 106.177, 96.975 105.390, 83 106.434 C 65.939 107.709, 52.388 107.557, 47 106.030 C 41.644 104.512, 32.398 103.358, 29.250 103.813 M 69 104 C 69 104.550, 69.423 105, 69.941 105 C 70.459 105, 71.160 104.550, 71.500 104 C 71.840 103.450, 71.416 103, 70.559 103 C 69.702 103, 69 103.450, 69 104 M 57.473 104.956 C 57.798 105.482, 58.725 105.659, 59.532 105.349 C 61.599 104.556, 61.356 104, 58.941 104 C 57.809 104, 57.148 104.430, 57.473 104.956 M 145 105.771 C 145 106.879, 145.675 108.045, 146.500 108.362 C 147.376 108.698, 148 108.377, 148 107.591 C 148 106.851, 147.325 105.685, 146.500 105 C 145.251 103.963, 145 104.092, 145 105.771 M 160.274 104.831 C 159.531 105.290, 159.431 106.079, 159.999 106.998 C 160.750 108.213, 161.001 108.162, 161.570 106.679 C 162.380 104.566, 161.873 103.843, 160.274 104.831 M 165.500 106 C 165.840 106.550, 166.316 107, 166.559 107 C 166.802 107, 167 106.550, 167 106 C 167 105.450, 166.523 105, 165.941 105 C 165.359 105, 165.160 105.450, 165.500 106 M 124 106.893 C 124 107.384, 124.652 108.036, 125.449 108.342 C 126.418 108.714, 126.714 108.418, 126.342 107.449 C 125.735 105.867, 124 105.455, 124 106.893 M 137.813 106.683 C 138.534 106.972, 139.397 106.936, 139.729 106.604 C 140.061 106.272, 139.471 106.036, 138.417 106.079 C 137.252 106.127, 137.015 106.364, 137.813 106.683 M 157 110.941 C 157 112.903, 158.691 114.643, 159.658 113.675 C 160.443 112.890, 159.008 109, 157.933 109 C 157.420 109, 157 109.873, 157 110.941 M 164 111.500 C 164.685 112.325, 166.370 113, 167.745 113 C 169.854 113, 170.050 112.765, 169 111.500 C 168.315 110.675, 166.630 110, 165.255 110 C 163.146 110, 162.950 110.235, 164 111.500 M 133.004 113.250 C 133.007 114.487, 135.024 118.425, 137.487 122 C 142.808 129.725, 146.994 138.193, 147.015 141.279 C 147.046 145.801, 148.123 146.096, 155.541 143.615 C 159.369 142.335, 165.875 140.485, 170 139.504 C 174.125 138.524, 177.629 137.617, 177.787 137.490 C 178.767 136.701, 174.994 131.820, 170.312 127.818 C 163.594 122.078, 151.880 115.902, 142.392 113.100 C 133.518 110.478, 132.999 110.487, 133.004 113.250 M 129.079 114.583 C 129.127 115.748, 129.364 115.985, 129.683 115.188 C 129.972 114.466, 129.936 113.603, 129.604 113.271 C 129.272 112.939, 129.036 113.529, 129.079 114.583 M 175 114.845 C 175 115.310, 175.900 116.505, 177 117.500 C 178.998 119.308, 179.538 118.565, 178.393 115.582 C 177.766 113.948, 175 113.347, 175 114.845 M 164.551 117.250 C 165.622 120.764, 167.986 122.907, 171.525 123.571 C 173.348 123.913, 175.154 125.027, 175.637 126.108 C 176.482 127.997, 176.526 127.995, 177.758 126.018 C 178.870 124.236, 178.772 124, 176.922 124 C 175.530 124, 174.460 123.030, 173.736 121.111 C 171.849 116.113, 163.081 112.428, 164.551 117.250 M 183.500 124 C 183.160 124.550, 183.809 125, 184.941 125 C 186.073 125, 187 124.550, 187 124 C 187 123.450, 186.352 123, 185.559 123 C 184.766 123, 183.840 123.450, 183.500 124 M 189.500 127 C 189.840 127.550, 190.793 128, 191.618 128 C 192.443 128, 192.840 127.550, 192.500 127 C 192.160 126.450, 191.207 126, 190.382 126 C 189.557 126, 189.160 126.450, 189.500 127 M 132 131.723 C 132 135.316, 132.052 135.371, 133.500 133.304 C 134.325 132.126, 134.727 130.451, 134.393 129.581 C 133.305 126.747, 132 127.915, 132 131.723 M 178.500 133 C 178.840 133.550, 179.316 134, 179.559 134 C 179.802 134, 180 133.550, 180 133 C 180 132.450, 179.523 132, 178.941 132 C 178.359 132, 178.160 132.450, 178.500 133 M 195.079 133.583 C 195.127 134.748, 195.364 134.985, 195.683 134.188 C 195.972 133.466, 195.936 132.603, 195.604 132.271 C 195.272 131.939, 195.036 132.529, 195.079 133.583 M 185 135.893 C 185 137.002, 188.076 138.257, 188.864 137.469 C 189.182 137.151, 188.780 136.473, 187.971 135.961 C 186.101 134.778, 185 134.753, 185 135.893 M 200.500 136 C 200.840 136.550, 202.018 137, 203.118 137 C 204.218 137, 204.840 136.550, 204.500 136 C 204.160 135.450, 202.982 135, 201.882 135 C 200.782 135, 200.160 135.450, 200.500 136 M 198.813 139.683 C 199.534 139.972, 200.397 139.936, 200.729 139.604 C 201.061 139.272, 200.471 139.036, 199.417 139.079 C 198.252 139.127, 198.015 139.364, 198.813 139.683 M 211.813 140.683 C 212.534 140.972, 213.397 140.936, 213.729 140.604 C 214.061 140.272, 213.471 140.036, 212.417 140.079 C 211.252 140.127, 211.015 140.364, 211.813 140.683 M 196.539 144.250 C 197.341 146.927, 200.833 149.947, 203.163 149.978 C 204.588 149.997, 204.668 149.580, 203.722 147.073 C 202.045 142.630, 195.255 139.961, 196.539 144.250 M 210.500 145 C 210.840 145.550, 212.243 146, 213.618 146 C 215.030 146, 215.849 145.565, 215.500 145 C 215.160 144.450, 213.757 144, 212.382 144 C 210.970 144, 210.151 144.435, 210.500 145 M 229.813 144.683 C 230.534 144.972, 231.397 144.936, 231.729 144.604 C 232.061 144.272, 231.471 144.036, 230.417 144.079 C 229.252 144.127, 229.015 144.364, 229.813 144.683 M 135.245 146.250 C 135.471 146.938, 136.725 147.656, 138.030 147.846 C 140.103 148.148, 140.236 147.990, 139.080 146.596 C 137.514 144.709, 134.652 144.451, 135.245 146.250 M 197 155.045 C 197 158.053, 197.657 159.748, 199.561 161.652 C 200.969 163.060, 202.372 163.961, 202.679 163.654 C 202.986 163.347, 203.210 161.165, 203.178 158.805 C 203.134 155.656, 202.541 154.047, 200.949 152.757 C 197.728 150.150, 197 150.572, 197 155.045 M 205 151.969 C 205 152.501, 205.675 152.678, 206.500 152.362 C 207.325 152.045, 208 151.609, 208 151.393 C 208 151.177, 207.325 151, 206.500 151 C 205.675 151, 205 151.436, 205 151.969 M 202.667 165.667 C 202.300 166.033, 202 166.924, 202 167.645 C 202 168.686, 202.523 168.719, 204.528 167.805 C 206.363 166.969, 206.706 166.430, 205.778 165.842 C 204.206 164.844, 203.527 164.806, 202.667 165.667 M 205 171.441 C 205 172.942, 206.795 174.538, 207.590 173.743 C 208.288 173.046, 206.907 170, 205.893 170 C 205.402 170, 205 170.648, 205 171.441" stroke="none" fill="#000000" fill-rule="evenodd"/></svg>