<svg xmlns="http://www.w3.org/2000/svg" width="24" height="24" fill="#000000"><g fill="#000000" fill-rule="evenodd" clip-rule="evenodd"><path d="M3 16.97c.246.13.568.33.799.484.084.057.18.107.272.165.05.03.08.046.127.077.023.015.042.03.065.042l.07.038 2.956 1.82c.042.023.08.05.127.077l2.683 1.655c.031.02.043.023.07.042l1.282.787c.058.031.08.07.146.073V12.21l-.407-.234c-.038-.02-.061-.035-.1-.058l-.319-.184c-.453-.238-.875-.53-1.332-.768-.046-.023-.061-.039-.111-.062l-.407-.234c-.1-.061-.553-.334-.634-.353v1.582l1.667.964c.046.026.076.046.119.069.046.023.069.05.126.061v6.785c-.291-.196-.602-.373-.902-.553l-.726-.45c-.295-.199-.614-.364-.91-.56-.034-.023-.053-.03-.088-.054l-.641-.395a1.84 1.84 0 0 1-.185-.115c-.234-.158-.487-.296-.725-.45-.065-.042-.12-.069-.185-.111-.353-.238-.733-.453-1.094-.672-.03-.02-.057-.038-.084-.058l-.28-.172V8.043a3.291 3.291 0 0 0-.17-.1 3.873 3.873 0 0 1-.168-.1l-.864-.491C3.11 7.317 3.06 7.279 3 7.248zM12.426 12.194v3.85l.51-.287c.234-.123.45-.273.684-.396.042-.023.057-.03.088-.053.03-.02.061-.031.092-.046v-2.27a.244.244 0 0 0 .096-.042c.035-.023.058-.03.092-.05.18-.103.358-.226.542-.318.25-.123.487-.277.726-.419l.176-.104.361-.203.088-.054c.158-.08.304-.188.465-.273l.177-.103c.03-.02.061-.03.092-.046l1.179-.684c.249-.13.48-.288.725-.418l.365-.215c.123-.073.242-.138.365-.215.065-.039.119-.066.176-.104l.192-.107v6.57c-.054.01-.069.03-.115.057l-.338.207-.104.07c-.046.026-.076.05-.115.072-.042.023-.065.042-.107.066l-.342.203c-.307.177-.595.376-.902.553l-.899.557c-.042.027-.065.038-.107.065-.403.273-.833.5-1.24.764-.073.05-.15.092-.223.138L14 19.65c-.035.02-.073.043-.108.066-.334.219-.683.407-1.017.626l-.457.28v1.613c.077-.02.2-.112.269-.154.092-.058.18-.104.272-.165.258-.173.538-.315.795-.488.05-.03.088-.057.134-.084l.68-.419c.046-.027.08-.05.127-.077l3.617-2.227c.05-.03.092-.057.134-.084l2.415-1.486c.046-.03.092-.058.139-.08V7.263c-.07.015-.081.038-.135.069-.05.027-.084.046-.13.073l-.803.464c-.273.146-.526.327-.802.465L16.983 9.57c-.096.054-.173.104-.265.158l-.395.23c-.28.142-.687.384-.945.545-.046.031-.084.043-.13.073l-.872.507c-.038.02-.03.02-.069.042l-.273.15c-.16.085-.303.188-.464.273-.039.019-.039.027-.07.042l-.272.15c-.18.088-.656.422-.802.453zM3.533 6.604c.054.011.085.042.135.069.18.096.341.211.526.303l1.459.845c.695.422 1.417.799 2.115 1.22l.13.074c.05.027.085.05.131.073l.795.46c.035.02.03.02.058.035.372.227.764.419 1.132.653l1.183.68c.046.026.08.05.127.076.138.085.633.384.683.384.073 0 .496-.268.603-.334l.208-.123c.069-.042.13-.069.2-.111l.199-.115.403-.238c.069-.042.13-.073.196-.115l.61-.346c.039-.02.066-.038.1-.058.035-.023.058-.034.1-.057l.407-.234c.065-.039.138-.096.215-.116-.012-.046-.02-.042-.058-.065l-1.301-.749c-.519.273-1.01.592-1.525.872a4.787 4.787 0 0 1-.353.211l-.783-.453c-.273-.138-.522-.319-.795-.46-.061-.035-.123-.074-.177-.104l-1.59-.914c-.03-.02-.057-.035-.088-.054-.034-.023-.057-.03-.092-.05L6.451 6.688c-.038-.023-.042-.034-.096-.046.043-.061.092-.065.162-.107.057-.039.11-.058.172-.093l1.77-.956c.039-.023.039-.026.077-.046.039-.019.058-.027.092-.05.062-.038.123-.065.185-.096l2.208-1.19c.038-.02.05-.03.088-.054l.898-.48c.05 0 .73.396.887.477.039.019.066.03.104.053.046.027.058.039.111.062l2.442 1.317c.215.134.868.476 1.098.591.262.13.511.288.772.419l1.452.787c.05.027.065.034.11.061.174.104.178.015.458-.138l.518-.296c.092-.05.442-.272.522-.292-.015-.05-.061-.069-.107-.096l-.526-.288c-.265-.134-.53-.299-.795-.426l-.526-.288c-.18-.092-.36-.176-.53-.284l-2.653-1.432c-.054-.027-.084-.042-.13-.073l-1.068-.576-.13-.073c-.027-.015-.039-.02-.062-.03l-1.401-.76c-.089-.055-.5-.285-.55-.285-.042 0-.337.177-.403.207L8.563 3.851c-.05.023-.088.042-.134.069L6.302 5.068c-.05.027-.073.046-.131.073l-.192.104c-.038.019-.038.026-.07.042-.041.027-.087.038-.133.069l-.407.219c-.054.027-.081.05-.131.073l-.618.338c-.023.011-.023.007-.042.019-.089.05-.18.084-.265.142-.05.03-.081.042-.135.069l-.595.33c-.046.027-.034.004-.05.058z"/></g></svg>