<svg xmlns="http://www.w3.org/2000/svg" width="64" height="64" fill="#000000"><path fill-opacity=".106" fill-rule="evenodd" d="M11.5 11.7C7.421 12.656 7 14.597 7 32.469 7 52.327 7.539 54 13.94 54c3.188 0 4.423-.66 7.398-3.952 1.963-2.174 4.776-5.774 6.249-8S30.786 38 31.421 38s2.848 2.025 4.917 4.5c2.823 3.377 4.464 4.5 6.577 4.5C46.962 47 51 43.5 51 39.991c0-3.748-6.009-19.057-7.742-19.722-2.259-.867-2.595.499-.973 3.945.851 1.807 2.507 6.151 3.681 9.652 2.015 6.012 2.039 6.471.429 8.25-2.618 2.893-4.996 2.268-8.08-2.126-2.976-4.238-6.571-5.922-9.22-4.318-.877.531-4.029 4.197-7.004 8.147C18.231 48.943 16.046 51 14.463 51c-4.13 0-4.53-1.806-4.238-19.133L10.5 15.5l12.96-.281c8.682-.189 13.204-.675 13.698-1.474a1.436 1.436 0 0 0-.461-1.953c-1.271-.809-21.818-.883-25.197-.092m26.396 5.55c-3.767 5.606-7.145 7.159-9.267 4.257-.857-1.171-2.362-1.559-5.169-1.33l-3.96.323-3.275 10c-3.465 10.583-3.491 13.752-.128 15.552 2.797 1.497 3.527.483 1.875-2.604-1.173-2.191-1.124-3.449.351-8.982C20.881 24.865 21.764 23 23.753 23c.991 0 2.596.927 3.567 2.06 1.246 1.456 2.703 1.969 4.963 1.75 2.629-.255 3.908-1.343 7.174-6.105l3.975-5.795 5.034.295 5.034.295.275 16.367c.189 11.221-.085 16.802-.872 17.75C52.027 50.673 48.471 51 37.878 51 26.209 51 24 51.239 24 52.5c0 1.264 2.278 1.5 14.5 1.5C58.03 54 57 55.138 57 33.565c0-9.039-.439-17.589-.975-19C55.11 12.158 54.63 12 48.236 12h-6.814z"/><path fill-opacity=".215" fill-rule="evenodd" d="M9 12.977c-1.222.771-1.558 4.272-1.812 18.922-.297 17.045-.206 18.083 1.75 20.039C10.191 53.191 12.3 54 14.313 54c3.612 0 5.406-1.58 12.205-10.75 2.141-2.888 4.38-5.25 4.976-5.25.595 0 2.775 2.025 4.844 4.5 2.921 3.495 4.431 4.5 6.757 4.5C46.686 47 51 43.096 51 39.846c0-3.385-6.14-18.963-7.712-19.566-2.163-.83-2.838.61-1.379 2.945C43.203 25.298 48 38.59 48 40.104 48 41.545 44.845 44 42.993 44c-1.035 0-3.114-1.771-4.678-3.986-5.188-7.346-8.201-6.673-15.896 3.551C17.72 49.808 16.359 51 13.93 51c-3.848 0-4.064-1.163-3.716-20l.286-15.5 12.919-.5c9.077-.351 13.043-.872 13.333-1.75.318-.959-2.692-1.246-12.919-1.235-7.333.009-14.008.442-14.833.962M37.911 17.5c-3.88 6.402-6.237 7.6-9.037 4.595-1.954-2.098-6.298-2.748-8.598-1.287-.673.428-2.572 5.156-4.219 10.507-2.435 7.911-2.788 10.181-1.89 12.151 1.212 2.662 3.447 3.967 4.335 2.531.311-.504.002-1.818-.687-2.921-1.024-1.64-.935-3.194.485-8.524C20.908 24.765 21.751 23 23.82 23c1.029 0 2.685.9 3.68 2 3.691 4.078 7.839 2.176 12.967-5.947q4.177-6.617 10.423-4.424l2.61.917.286 15.477c.158 8.512.037 16.49-.269 17.727-.544 2.204-.85 2.25-15.036 2.25C26.276 51 24 51.236 24 52.5S26.278 54 38.5 54C58.061 54 57 55.191 57 33.223 57 12.427 56.81 12 47.565 12h-6.321z"/><path fill-opacity=".48" fill-rule="evenodd" d="M8.557 14.223C7.298 16.02 7 19.656 7 33.223 7 48.667 7.159 50.159 9 52c1.218 1.218 3.333 2 5.411 2 3.598 0 3.693-.086 12.069-10.874C28.669 40.307 30.957 38 31.563 38s2.546 1.796 4.309 3.991c3.833 4.769 6.818 5.738 11.006 3.572 4.626-2.392 4.83-5.279 1.106-15.608-3.413-9.463-4.426-10.913-6.313-9.026-.838.838-.851 1.349-.047 1.863 1.735 1.11 6.544 16.104 5.858 18.265-.338 1.066-1.751 2.223-3.138 2.572-2.109.529-3.239-.147-6.888-4.122-3.005-3.273-4.873-4.561-5.993-4.131-.895.343-2.015.624-2.489.624s-3.42 3.399-6.547 7.554c-5.175 6.876-5.965 7.526-8.806 7.25L10.5 50.5l-.275-16.995c-.245-15.101-.084-17.135 1.441-18.25C12.813 14.416 17.297 14 25.191 14 32.397 14 37 13.61 37 13c0-.617-5.148-1-13.443-1-12.759 0-13.523.113-15 2.223m31.161.982c-1.349 1.812-3.24 4.533-4.201 6.045-2.066 3.251-4.516 3.513-7.017.75-1.803-1.992-6.006-2.633-8.101-1.235-1.774 1.184-6.562 16.849-6.216 20.338.174 1.757 1.083 3.675 2.019 4.261 2.29 1.433 3.418.113 1.522-1.782-1.351-1.352-1.312-2.294.369-8.798 3.295-12.753 4.329-13.75 9.952-9.593 4.068 3.008 6.919 1.744 11.713-5.191 3.434-4.968 4.194-5.529 7.858-5.8 6.251-.461 6.471.235 6.159 19.432L53.5 50.5l-14.75.277c-12.2.229-14.75.531-14.75 1.75 0 2.117 27.667 2.167 30.559.056 1.768-1.292 1.965-2.918 2.211-18.25.34-21.157.126-21.715-8.46-22.128-5.921-.286-6.226-.179-8.592 3"/><path fill-opacity=".248" fill-rule="evenodd" d="M8.872 13.65c-1.73 2.081-2.537 32.47-.972 36.588 1.131 2.974 4.625 4.349 8.549 3.364 1.488-.373 4.66-3.553 8.088-8.108 3.102-4.122 6.388-7.488 7.302-7.482s2.688 1.599 3.944 3.537c3.333 5.145 6.482 6.302 10.808 3.972 1.901-1.024 3.714-2.886 4.028-4.139.597-2.379-5.183-19.32-7.017-20.566-1.849-1.257-2.596.262-1.222 2.486.747 1.209 2.409 5.49 3.693 9.513 2.648 8.299 2.107 10.515-2.674 10.947-2.386.215-3.397-.448-5.714-3.75C35.359 36.696 34.292 36 31.541 36c-2.999 0-3.86.742-8.685 7.49-5.05 7.064-5.556 7.477-8.856 7.25l-3.5-.24-.275-16.868c-.188-11.591.084-17.3.873-18.25.863-1.04 4.211-1.382 13.524-1.382C32.207 14 37 13.613 37 13c0-.617-5.126-1-13.378-1-11.211 0-13.599.267-14.75 1.65M37.919 18c-4.521 6.445-7.414 7.64-9.687 4-1.432-2.293-6.384-2.727-8.061-.706-1.777 2.141-6.316 17.627-5.982 20.411.316 2.635 3.166 5.274 4.382 4.057.367-.367-.077-1.411-.986-2.32s-1.437-2.393-1.174-3.297 1.473-5.132 2.688-9.395c1.904-6.68 2.516-7.75 4.433-7.75 1.223 0 2.783.675 3.468 1.5s2.725 1.5 4.534 1.5c3.34 0 3.415-.065 10.292-8.984 1.85-2.398 3.089-3.016 6.05-3.016 2.048 0 4.264.54 4.924 1.2.838.838 1.2 6.259 1.2 17.965 0 15.551-.14 16.84-1.934 17.8-1.064.569-7.814 1.035-15 1.035C29.022 52 24 52.384 24 53c0 1.443 26.248 1.3 29.453-.161L56 51.679v-18.64c0-13.164-.353-18.992-1.2-19.839-.66-.66-3.781-1.2-6.936-1.2h-5.736z"/></svg>