<svg xmlns="http://www.w3.org/2000/svg" width="250" height="250" version="1.1" fill="#000000"><path fill-opacity=".137" d="M 101.330 1.481 C 69.307 7.292, 38.892 27.843, 19.735 56.616 C 16.031 62.180, 13 66.986, 13 67.297 C 13 67.607, 11.705 70.704, 10.122 74.180 C 2.708 90.458, -0.011 104.296, 0.036 125.500 C 0.073 142.073, 1.472 151.905, 5.523 164.069 C 14.443 190.854, 32.437 214.166, 56.616 230.265 C 62.180 233.969, 66.986 237, 67.297 237 C 67.607 237, 70.704 238.295, 74.180 239.878 C 90.458 247.292, 104.296 250.011, 125.500 249.964 C 142.073 249.927, 151.905 248.528, 164.069 244.477 C 190.854 235.557, 214.166 217.563, 230.265 193.384 C 233.969 187.820, 237 183.014, 237 182.703 C 237 182.393, 238.305 179.296, 239.900 175.820 C 243.789 167.345, 247.640 154.795, 248.517 147.737 C 248.911 144.567, 249.631 141.728, 250.117 141.428 C 250.603 141.128, 251 133.232, 251 123.882 C 251 114.532, 250.611 107.123, 250.135 107.417 C 249.659 107.711, 248.979 105.476, 248.623 102.452 C 247.712 94.695, 242.762 79.831, 237.612 69.386 C 228.061 50.012, 212.322 32.345, 193.384 19.735 C 187.820 16.031, 183.014 13, 182.703 13 C 182.393 13, 179.296 11.705, 175.820 10.122 C 166.832 6.028, 157.749 3.214, 147.972 1.494 C 137.541 -0.342, 111.417 -0.349, 101.330 1.481 M 121.571 64.571 C 120.230 65.912, 120 69.652, 120 90.071 C 120 103.232, 119.657 114, 119.238 114 C 118.819 114, 111.287 106.800, 102.500 98 C 92.188 87.673, 85.792 82, 84.462 82 C 82.013 82, 80 83.788, 80 85.961 C 80 86.820, 87.425 94.938, 96.500 104 C 105.575 113.062, 113 120.820, 113 121.239 C 113 121.657, 102.975 122, 90.723 122 C 72.178 122, 68.073 122.261, 66.223 123.557 C 63.521 125.449, 63.406 127.152, 65.829 129.345 C 67.415 130.780, 70.601 131, 89.829 131 C 102.023 131, 112 131.341, 112 131.758 C 112 132.175, 101.200 143.309, 88 156.500 C 71.059 173.430, 64 181.138, 64 182.707 C 64 185.497, 67.314 187.451, 69.750 186.098 C 70.713 185.564, 82.071 174.523, 94.992 161.563 C 107.913 148.603, 118.817 138, 119.224 138 C 119.631 138, 120.084 148.639, 120.232 161.642 C 120.473 182.895, 120.677 185.395, 122.250 186.387 C 123.526 187.191, 124.474 187.191, 125.750 186.387 C 127.320 185.397, 127.528 182.931, 127.769 162.422 C 127.929 148.889, 128.447 139.153, 129.039 138.561 C 129.706 137.894, 135.783 143.297, 147.280 154.780 C 156.762 164.251, 165.214 172, 166.060 172 C 168.214 172, 170 169.978, 170 167.539 C 170 166.206, 164.168 159.653, 153.500 149 C 144.425 139.938, 137 132.180, 137 131.761 C 137 131.343, 147.935 131, 161.300 131 C 178.867 131, 185.933 130.667, 186.800 129.800 C 188.637 127.963, 188.228 124.192, 186.066 123.035 C 184.886 122.404, 174.743 122, 160.066 122 C 146.830 122, 136 121.659, 136 121.242 C 136 120.826, 147.278 109.238, 161.063 95.492 C 174.848 81.747, 186.563 69.713, 187.098 68.750 C 188.451 66.314, 186.497 63, 183.707 63 C 182.136 63, 174.027 70.463, 156 88.500 C 141.983 102.525, 129.949 114, 129.257 114 C 128.282 114, 128 108.549, 128 89.700 C 128 65.266, 127.692 63, 124.371 63 C 123.696 63, 122.436 63.707, 121.571 64.571 M 0.411 125 C 0.411 134.625, 0.561 138.563, 0.745 133.750 C 0.928 128.938, 0.928 121.062, 0.745 116.250 C 0.561 111.438, 0.411 115.375, 0.411 125" stroke="none" fill="#000000" fill-rule="evenodd"/><path fill-opacity=".264" d="M 104 1.378 C 76.462 6.818, 53.107 19.178, 35.188 37.794 C 19.888 53.690, 9.320 72.607, 3.508 94.500 C 0.230 106.849, -1.017 130.289, 0.942 142.717 C 9.001 193.820, 44.528 233.227, 94.500 246.492 C 106.849 249.770, 130.289 251.017, 142.717 249.058 C 186.917 242.088, 222.902 214.326, 240.285 173.784 C 244.241 164.558, 249 147.363, 249 142.295 C 249 140.483, 249.450 139, 250 139 C 250.621 139, 251 133.500, 251 124.500 C 251 116.525, 250.608 110, 250.129 110 C 249.650 110, 248.947 107.637, 248.567 104.750 C 246.780 91.155, 238.992 70.739, 230.640 57.756 C 213.278 30.762, 187.282 11.987, 155.500 3.488 C 146.879 1.183, 143.087 0.765, 128 0.454 C 116.388 0.216, 108.313 0.527, 104 1.378 M 155.293 88.225 L 129 114.450 129 89.925 C 129 64.171, 128.804 63, 124.500 63 C 120.208 63, 120 64.210, 120 89.200 C 120 102.290, 119.691 113, 119.313 113 C 118.935 113, 111.341 105.800, 102.439 97 C 93.537 88.200, 85.591 81, 84.781 81 C 82.768 81, 80 84.236, 80 86.590 C 80 87.755, 86.362 94.876, 96 104.500 C 104.800 113.287, 112 120.819, 112 121.238 C 112 121.657, 101.740 122, 89.200 122 C 65.263 122, 64 122.226, 64 126.500 C 64 130.765, 65.290 131, 88.700 131 C 100.965 131, 111 131.326, 111 131.724 C 111 132.122, 100.155 143.325, 86.900 156.621 C 65.531 178.055, 62.883 181.061, 63.535 183.147 C 64.396 185.904, 65.754 186.964, 68.453 186.985 C 69.679 186.994, 79.371 178.063, 94.480 163 C 107.720 149.800, 118.878 139, 119.276 139 C 119.674 139, 120 149.566, 120 162.481 L 120 185.962 122.655 186.628 C 128.321 188.050, 128.475 187.433, 128.768 162.142 C 128.916 149.414, 129.349 139, 129.731 139 C 130.113 139, 137.897 146.425, 147.030 155.500 C 160.111 168.500, 164.195 172, 166.281 172 C 168.845 172, 171 169.662, 171 166.882 C 171 166.195, 163.575 158.162, 154.500 149.030 C 145.425 139.897, 138 132.105, 138 131.713 C 138 131.321, 148.730 131, 161.845 131 C 183.676 131, 185.830 130.846, 187.345 129.171 C 189.466 126.828, 189.430 125.700, 187.171 123.655 C 185.576 122.211, 182.260 122, 161.171 122 C 147.877 122, 137 121.674, 137 121.275 C 137 120.876, 148.475 109.044, 162.500 94.981 C 183.085 74.340, 188 68.897, 188 66.741 C 188 64.147, 185.672 62, 182.859 62 C 182.159 62, 169.755 73.801, 155.293 88.225 M 0.400 125.500 C 0.401 133.750, 0.556 136.992, 0.744 132.704 C 0.932 128.417, 0.931 121.667, 0.742 117.704 C 0.552 113.742, 0.399 117.250, 0.400 125.500" stroke="none" fill="#000000" fill-rule="evenodd"/><path fill-opacity=".284" d="M 111 0.607 C 82.985 5.803, 65.863 12.906, 48.500 26.535 C 24.669 45.242, 9.724 68.987, 2.891 99 C -0.518 113.972, -0.524 135.976, 2.877 151 C 11.189 187.724, 34.730 218.784, 66.798 235.340 C 86.880 245.707, 102.468 249.500, 125 249.500 C 137.707 249.500, 142.392 249.072, 151 247.123 C 200.984 235.809, 238.581 197.193, 247.507 148 C 248.455 142.775, 249.629 137.719, 250.115 136.764 C 251.374 134.294, 251.266 111.717, 250 112.500 C 249.431 112.852, 249 111.991, 249 110.499 C 249 109.059, 247.905 103.070, 246.568 97.190 C 237.392 56.863, 208.914 23.919, 169.803 8.390 C 157.517 3.512, 143.681 0.903, 128 0.509 C 120.025 0.308, 112.375 0.352, 111 0.607 M 121 64 C 119.116 65.884, 119 67.333, 119 89 C 119 101.650, 118.657 112, 118.238 112 C 117.819 112, 110.512 105.025, 102 96.500 C 86.707 81.183, 84.046 79.354, 81.200 82.200 C 77.911 85.489, 79.716 88.193, 96.239 104.739 L 112.477 121 89.894 121 C 69.285 121, 67.165 121.160, 65.655 122.829 C 63.661 125.032, 63.507 128.346, 65.329 129.858 C 66.187 130.570, 74.594 131.056, 89.079 131.230 L 111.500 131.500 87.250 156.026 C 70.361 173.108, 63 181.221, 63 182.753 C 63 185.721, 67.231 188.495, 69.683 187.134 C 70.682 186.580, 81.846 175.748, 94.492 163.063 C 107.137 150.378, 117.825 140, 118.242 140 C 118.659 140, 119 149.850, 119 161.889 C 119 181.886, 119.164 183.981, 120.895 186.119 C 122.526 188.133, 123.189 188.320, 125.645 187.456 L 128.500 186.453 128.768 162.726 C 128.916 149.677, 129.349 139, 129.732 139 C 130.115 139, 138.123 146.650, 147.529 156 C 156.934 165.350, 165.318 173, 166.160 173 C 168.223 173, 171 169.793, 171 167.410 C 171 166.244, 164.458 158.944, 154.500 149 C 145.425 139.938, 138 132.180, 138 131.761 C 138 131.343, 148.935 131, 162.300 131 C 179.867 131, 186.933 130.667, 187.800 129.800 C 189.567 128.033, 189.260 124.546, 187.171 122.655 C 185.575 121.210, 182.244 121, 160.946 121 L 136.550 121 162.775 94.707 C 177.199 80.245, 189 67.715, 189 66.862 C 189 64.793, 185.809 62, 183.446 62 C 182.307 62, 171.154 72.286, 155.525 87.750 L 129.500 113.500 129.251 89.500 C 129.012 66.452, 128.918 65.431, 126.890 63.750 C 124.199 61.520, 123.448 61.552, 121 64 M 0.385 125 C 0.385 131.875, 0.545 134.688, 0.740 131.250 C 0.936 127.813, 0.936 122.188, 0.740 118.750 C 0.545 115.313, 0.385 118.125, 0.385 125" stroke="none" fill="#000000" fill-rule="evenodd"/><path fill-opacity=".491" d="M 105.500 2.454 C 89.802 5.179, 79.606 8.557, 67.053 15.191 C 35.648 31.790, 11.530 62.756, 4.115 96 C 2.429 103.558, 0 121.096, 0 125.712 C -0 133.108, 4.825 158.053, 7.958 166.855 C 18.262 195.803, 39.891 220.641, 67.182 234.867 C 82.231 242.712, 91.362 245.528, 111.500 248.536 C 123.310 250.300, 128.666 250.140, 144.876 247.541 C 200.062 238.693, 242.279 194.167, 248.501 138.250 C 248.883 134.812, 249.602 132, 250.098 132 C 250.594 132, 251 128.598, 251 124.441 C 251 120.284, 250.629 117.111, 250.177 117.391 C 249.724 117.671, 248.577 112.709, 247.629 106.364 C 241.760 67.103, 217.803 33.379, 182.818 15.130 C 168.167 7.487, 158.291 4.422, 139.074 1.555 C 125.786 -0.427, 121.422 -0.310, 105.500 2.454 M 155.794 86.724 L 130 112.449 130 89.447 C 130 64.217, 129.540 62, 124.304 62 C 119.377 62, 119.066 63.591, 119.032 88.988 L 119 112.477 103.239 96.738 C 89.456 82.976, 87.075 81, 84.274 81 C 80.970 81, 79 83.098, 79 86.616 C 79 87.577, 86.295 95.706, 95.210 104.681 L 111.421 121 88.865 121 C 68.284 121, 66.165 121.160, 64.655 122.829 C 62.484 125.228, 62.555 128.287, 64.829 130.345 C 66.413 131.779, 69.582 132, 88.552 132 L 110.446 132 86.223 156.297 C 72.900 169.660, 62 181.260, 62 182.074 C 62 184.869, 65.043 188, 67.759 188 C 69.876 188, 75.116 183.304, 93.979 164.500 C 106.945 151.575, 117.879 141, 118.277 141 C 118.675 141, 119 150.705, 119 162.566 C 119 175.519, 119.413 184.904, 120.035 186.066 C 121.498 188.800, 126.445 188.630, 128.443 185.777 C 129.738 183.929, 130 179.847, 130 161.539 L 130 139.522 146.761 156.261 C 159.788 169.271, 164.097 173, 166.106 173 C 169.047 173, 172 170.238, 172 167.488 C 172 166.426, 164.852 158.440, 155.288 148.817 L 138.577 132 161.854 132 C 175.987 132, 185.891 131.593, 187.066 130.965 C 189.283 129.778, 189.754 124.154, 187.800 122.200 C 186.932 121.332, 179.813 121, 162.057 121 L 137.514 121 163.257 95.243 C 184.133 74.356, 189 68.978, 189 66.800 C 189 64.041, 185.891 61, 183.072 61 C 182.256 61, 169.981 72.576, 155.794 86.724 M 0.343 125.500 C 0.346 129.900, 0.522 131.576, 0.733 129.224 C 0.945 126.872, 0.942 123.272, 0.727 121.224 C 0.512 119.176, 0.339 121.100, 0.343 125.500" stroke="none" fill="#000000" fill-rule="evenodd"/></svg>