<svg width="344" height="500" viewBox="0 0 344 500" fill="#000000" xmlns="http://www.w3.org/2000/svg">
<path fill-rule="evenodd" clip-rule="evenodd" d="M187.76 2.39746C155.647 14.5216 134.236 46.9297 128.331 92.3323C125.864 111.302 124.275 114.47 119.297 110.34C102.729 96.5884 94.1822 122.865 105.066 154.089C109.418 166.574 109.018 168.933 101.85 172.941C73.2151 188.969 35.0931 240.151 24.2658 277.111C22.8993 281.772 17.7554 284.727 11.0145 284.727C1.06619 284.727 0 286.411 0 302.134C0 317.909 1.04443 319.541 11.1363 319.541C17.4508 319.541 21.1107 321.425 19.5832 323.893C18.1036 326.286 13.0947 328.245 8.4469 328.245C1.49268 328.245 0 331.322 0 345.652C0 361.171 1.14453 363.059 10.5401 363.059C18.8869 363.059 22.1856 366.463 26.359 379.379C62.5357 491.264 235.073 539.139 327.475 462.921L343.794 449.461V367.094V284.727H269.813H195.832V323.893V363.059H228.049H260.27L261.775 385.249C265.27 436.631 149.651 430.217 116.725 377.203L107.943 363.059H121.425C134.254 363.059 134.907 362.215 134.907 345.652V328.245H117.499C107.925 328.245 100.092 326.286 100.092 323.893C100.092 321.499 107.925 319.541 117.499 319.541C141.687 319.541 145.412 286.345 121.494 283.913L108.082 282.551L121.103 264.634C153.794 219.649 229.546 215.184 270.209 255.848L281.302 266.941L310.716 237.3L340.13 207.66L321.291 191.341C310.929 182.367 295.985 171.879 288.082 168.037C274.652 161.505 273.891 159.973 276.467 144.715C279.805 124.975 276.11 116.676 267.263 124.022C262.093 128.309 261.545 126.107 263.756 109.962C268.521 75.1948 252.802 49.8672 237.175 67.1352C217.469 88.9074 197.203 64.894 201.859 25.2881C204.836 -0.0482733 202.834 -3.29473 187.76 2.39746Z" fill="#000000"/>
</svg>
