<svg xmlns="http://www.w3.org/2000/svg" width="200" height="200" fill="#000000"><path fill-opacity=".416" fill-rule="evenodd" d="M0 100.005V200.01l100.25-.255 100.25-.255.255-99.75L201.01 0H0zm.481.495c0 55 .121 77.647.269 50.326.148-27.32.148-72.32 0-100C.602 23.147.481 45.5.481 100.5M41.772 9.525C44.509 14.517 57 25.606 57 23.043c0-.601-1.034-1.486-2.298-1.966-1.265-.481-4.935-3.721-8.156-7.201s-5.37-5.437-4.774-4.351m32.307 15.058c.048 1.165.285 1.402.604.605.289-.722.253-1.585-.079-1.917s-.568.258-.525 1.312m-19.806 1.44c-.08 1.066.277 2.199.794 2.518.516.32.799-.335.628-1.454-.427-2.801-1.245-3.412-1.422-1.064M44 28.882c3.441 3.013 6 3.968 6 2.24 0-1.076-2.782-3.462-4.351-3.732-.632-.108-2.049-.506-3.149-.884-1.278-.44-.736.418 1.5 2.376m6.047-2.382c-.024 1.486 1.761 4.026 2.388 3.398.3-.299-.112-1.411-.914-2.471-.801-1.06-1.465-1.477-1.474-.927m-10.558 3.451c2.815 3.163 5.232 4.31 6.105 2.897.429-.695.278-.887-.378-.481-.601.371-1.458.103-1.905-.596-.446-.699-1.936-1.897-3.311-2.663l-2.5-1.391zm35.627 3.217c-.064.918-.375 2.493-.692 3.5-.545 1.736-.515 1.739.568.051.628-.98.939-2.555.691-3.5-.406-1.549-.462-1.554-.567-.051M99 32.976c0 .628.418.884.929.568.51-.315 1.117.221 1.348 1.191.348 1.465.403 1.438.321-.157-.103-2.026-2.598-3.565-2.598-1.602m-30.356 2.651c.629.258.905 1.46.614 2.671-.42 1.745-.267 1.957.739 1.019 1.489-1.388.639-4.352-1.216-4.238q-1.291.077-.137.548m34.928.256c-1.065 1.724-.118 12.88 1.056 12.429.638-.244 1.325.912 1.582 2.663.33 2.248-.156 3.753-1.773 5.499-1.225 1.321-1.937 2.727-1.582 3.125.355.397.083.398-.605.002-.892-.513-1.254.228-1.265 2.59-.011 2.394-.269 2.909-.931 1.862-.59-.932-.406-2.668.515-4.872 1.824-4.365 1.81-6.621-.049-8.164-.813-.675-1.771-3.43-2.128-6.122S97.324 40 96.812 40c-.511 0-.652.45-.312 1s.133 1-.46 1c-.651 0-.829-.991-.451-2.5.521-2.075.269-2.5-1.481-2.5-1.685 0-2.108.614-2.108 3.059 0 1.785-.417 2.802-1 2.441-.55-.34-1-.141-1 .441S90.386 44 90.858 44s.756 1.81.631 4.022c-.124 2.212.164 4.264.642 4.559s.869 1.2.869 2.01c0 2.359-3.178 9.029-3.676 7.715-.249-.656-1.099-.946-1.889-.643-.88.338-1.435-.071-1.435-1.056 0-.884-.562-1.614-1.25-1.622-.943-.012-.925-.222.074-.855 1.091-.692 1.079-1.085-.069-2.235-.765-.767-1.349-3.054-1.296-5.083.081-3.121-.13-3.505-1.374-2.5-1.023.827-1.261.841-.784.044.641-1.069-1.786-8.356-2.783-8.356-.25 0-.194.681.125 1.513.32.832.084 2.111-.522 2.842-.607.731-.872 1.561-.588 1.845.283.283-.171 1.084-1.009 1.78-1.042.865-1.524.91-1.524.142 0-.617-.475-1.122-1.057-1.122-.587 0-.283 1.308.684 2.946.957 1.62 2.166 2.682 2.686 2.36.521-.321.722.041.447.805s.23 2.254 1.12 3.311 1.058 1.593.37 1.191c-.687-.402-1.25-.254-1.25.328 0 .99 1.422 1.483 3.324 1.153.454-.079.552.298.218.838-.538.871-2.505.596-4.841-.675-.439-.239-.222-1.182.483-2.096 1.105-1.433 1.001-1.423-.758.069-1.827 1.55-2.26 1.575-4.167.239-1.354-.948-2.356-1.122-2.754-.477-.422.682-1.26.674-2.566-.024C65.873 56.397 65 56.24 65 56.62c0 .379-.787-.002-1.75-.847-.962-.845-2.875-1.844-4.25-2.22-1.91-.523-2.146-.436-1 .366 1.247.873 1.135 1.053-.662 1.066-2.98.021-2.397 3.406.665 3.856 1.797.264 2.002.542.909 1.234-1.191.755-1.177.881.088.81 2.182-.123 6.725-1.668 5.25-1.785-1.783-.143-1.553-1.767.25-1.767.825 0 1.5.319 1.5.709 0 .728 5.828 2.358 7.355 2.057.471-.093 1.371.235 2 .728.63.493 2.382 1.193 3.895 1.554S82 63.437 82 63.925s.9.652 2 .365c1.391-.364 2-.031 2 1.093 0 .89.389 1.617.864 1.617 1.866 0 5.916 5.124 5.452 6.898-.321 1.228.619 2.694 2.853 4.455 1.832 1.444 2.798 2.63 2.147 2.636-1.343.012-.788 4.737.778 6.625 1.174 1.414.855 3.355-.853 5.193-.693.745-1.004 1.768-.691 2.274.312.505-.081.919-.874.919-.794 0-1.728 1.013-2.076 2.25-.585 2.08-.733 2.12-1.951.535-.877-1.141-1.653-1.381-2.317-.717-1.133 1.133-4.332.216-4.332-1.242 0-.529 1.013-.659 2.25-.29 2.213.66 2.217.645.25-.901-1.429-1.122-1.588-1.58-.559-1.603 1.037-.023.9-.427-.486-1.441-1.329-.972-2.474-1.116-3.691-.465-1.141.611-1.764.59-1.764-.059 0-.553-.672-.746-1.494-.431-.822.316-1.246.975-.943 1.466.309.499-.529.481-1.903-.041-1.35-.513-2.749-.638-3.11-.278-.361.361-.363-.106-.006-1.038.651-1.696-1.511-4.745-3.366-4.745-.53 0-1.234.704-1.565 1.565-.461 1.203-.137 1.419 1.398.932 1.662-.528 1.934-.245 1.619 1.684-.208 1.276.12 2.994.728 3.819.622.843.16.693-1.054-.34-1.427-1.215-2.949-1.626-4.482-1.208-2.266.616-2.261.592.178-.973 2.386-1.531 2.397-1.583.25-1.135-1.237.258-2.25.094-2.25-.364s-.562-1.026-1.25-1.261-.249-.262.973-.061c1.649.272 2.074-.023 1.646-1.14-.318-.829-.915-1.299-1.326-1.044s-1.602-.229-2.646-1.074c-1.786-1.447-1.722-1.501 1.103-.938 1.963.392 2.529.284 1.637-.311-1.151-.767-1.151-1.004 0-1.521.75-.336.238-.32-1.137.036-1.375.357-3.038.653-3.694.658s-1.167.272-1.132.593c.292 2.708-.412 3.034-5.371 2.482-4.671-.52-5.064-.418-3.878 1.011.726.874.927 1.593.447 1.596-.479.004.417.679 1.992 1.5 1.576.822 3.713 1.494 4.75 1.494s1.886.436 1.886.969.629.727 1.399.431c.769-.295 1.664-.107 1.989.418.324.525-.305 1.189-1.399 1.475S59 96.405 59 95.906c0-.498-.702-.906-1.559-.906s-1.299.42-.982.934c.622 1.005-5.306 1.186-6.959.212-1.955-1.152-3.354-.928-2.824.453.296.77.966 1.401 1.49 1.401s.693.419.377.931c-.317.512-.118 1.213.441 1.559s1.016.976 1.016 1.402c0 1.167-3.865.643-5.216-.708-1.276-1.276-5.035-1.6-6.109-.526-.362.362-.103 1.327.576 2.144 1.052 1.267.884 1.376-1.134.735-1.629-.517-2.154-.406-1.683.356.376.609 1.506 1.107 2.511 1.107 3.323 0 6.993 2.485 6.005 4.066-.673 1.079-.221 1.59 1.828 2.066 2.542.59 2.49.64-.778.765-6.427.245-6.785 1.861-.585 2.636 7.442.93 5.931 2.815-2.215 2.763-4.195-.027-5.867.336-5.867 1.275 0 .908.874 1.138 2.834.746 1.646-.33 2.833-.135 2.833.464 0 .575.996.775 2.25.452 2.082-.537 2.138-.441.75 1.286-.868 1.079-.973 1.548-.25 1.114.775-.465 1.25-.19 1.25.725 0 .811.563 1.702 1.25 1.98.688.277-.186.54-1.941.583s-3.516.605-3.914 1.249q-.726 1.172.909.544c.898-.345 1.855-.266 2.128.175.272.441 2.874.682 5.782.534 4.782-.242 5.101-.132 3.345 1.155-1.068.782-2.482 1.422-3.143 1.422s-1.485.739-1.832 1.641c-.468 1.221-.304 1.389.643.656 2.25-1.744 4.69-2.24 5.395-1.099.378.611.259.846-.265.522s-1.583-.199-2.353.277c-1.047.648-.657 1.056 1.548 1.622l2.948.757-2.5.712c-2.318.661-2.263.72.75.812 3.166.097 3.998 1.683 1.75 3.335q-1 .734 0 .765c2.589.079 3.711 1.738 2.591 3.831-.946 1.767-.772 2.252 1.146 3.182 2.083 1.01 2.119.981.453-.362-.995-.802-1.38-1.725-.855-2.049.526-.325 1.296.194 1.711 1.154 1.203 2.774 1.354 4.3.366 3.69-.502-.31-.912-.08-.912.511 0 .592 1.575 1.826 3.5 2.744s3.5 2.261 3.5 2.984.691 1.315 1.535 1.315c1.237 0 1.323.398.441 2.046-1.004 1.874-.928 1.941.9.8 1.097-.686 1.798-1.564 1.558-1.953-1.226-1.984 3.703.666 5.042 2.711 1.393 2.126 1.398 2.396.047 2.396-.838 0-1.523-.675-1.523-1.5 0-2.044-2.457-1.894-4.079.25-1.127 1.489-1.115 1.563.077.5 2.21-1.97 3.182-1.462 1.915 1-.886 1.721-.882 1.991.016 1.149 1.495-1.403 6.246-.565 5.479.965-.313.625.592-.127 2.011-1.67S85 162.39 85 163.003s.52.794 1.155.402c.721-.446.882-.274.43.457-.398.644-1.142.912-1.654.595-.512-.316-.931-.157-.931.353 0 .511 1.463.937 3.25.948s4.15.236 5.25.501 2.787.074 3.75-.424c1.152-.596 1.75-.531 1.75.189 0 .602.414.838.919.526.506-.313 1.631.143 2.5 1.012.87.87 1.581 1.129 1.581.576s1.161-.795 2.58-.538c1.62.294 2.342.083 1.941-.566-.351-.569-.177-1.034.389-1.034.565 0 .768-.675.452-1.5-.818-2.132 2.556-1.938 4.359.25 1.36 1.65 1.411 1.651.897.012-.57-1.815 1.318-2.046 2.563-.314.375.521.986-.263 1.357-1.743s1.026-2.474 1.455-2.209c1.307.808 1.973-3.69.856-5.778-.753-1.407-.738-1.768.051-1.28.605.374 1.1.203 1.1-.379s-1.013-1.095-2.25-1.138-1.767-.279-1.176-.525c.59-.245-.637-2.298-2.728-4.563s-4.067-4.954-4.391-5.975c-.377-1.186-1.56-1.872-3.272-1.898l-2.683-.04 2.785-1.51c1.74-.944 3.009-2.631 3.382-4.495.328-1.641.822-2.759 1.098-2.484.275.276 1.373-.609 2.44-1.965s2.357-2.466 2.868-2.466.027.9-1.073 2-2 2.527-2 3.171-.766 2.018-1.701 3.052c-1.542 1.703-1.565 2.273-.25 6.051 1.186 3.409 2.091 4.359 4.951 5.199 1.925.565 4.024 1.367 4.665 1.783.64.416 1.337.239 1.547-.393.287-.861.936-.854 2.586.029 2.131 1.141 2.704.645 2.355-2.039-.047-.357.763-.426 1.8-.155s2.708.028 3.715-.54c1.454-.819 2.451-.479 4.832 1.649 1.675 1.497 1.264.816-.931-1.541-3.239-3.478-3.557-4.149-1.808-3.812 1.526.294 1.969.006 1.574-1.023-.339-.883.079-1.431 1.093-1.431 1.383 0 1.456-.348.464-2.202-.883-1.65-.89-2.299-.029-2.586.632-.21.895-.794.584-1.297s.137-.915.994-.915c2.094 0 1.965-1.208-.339-3.18-1.382-1.184-2.196-1.326-3-.522-.791.791-1.102.794-1.102.009 0-.601.667-1.349 1.483-1.662.841-.323 1.229-1.233.895-2.101-.323-.843-.939-1.315-1.369-1.049s-1.367-.221-2.081-1.082c-1.073-1.292-1.049-1.72.134-2.451 1.219-.754 1.149-1.415-.472-4.424-2.33-4.328-3.389-4.531-2.803-.538.703 4.793-1.33 3.464-2.678-1.75-.675-2.612-1.23-5.518-1.234-6.456-.003-.938-.893-3.413-1.976-5.5-1.084-2.087-1.699-2.781-1.367-1.544.429 1.601.17 2.25-.897 2.25-2.07 0-3.218-3.994-1.492-5.19.967-.67.75-.772-.752-.353-3.135.874-5.252-.271-4.664-2.522.35-1.337-.004-1.935-1.146-1.935-1.349 0-1.453-.371-.566-2.028.597-1.115 1.471-1.79 1.942-1.499.471.292.619-.378.329-1.487C116.697 83.734 115 82.26 115 84c0 .615-.445.843-.989.507-.601-.371-.306-1.655.75-3.27.957-1.463 1.177-2.313.489-1.889-.698.43-1.25.302-1.25-.289 0-.582-.62-1.059-1.378-1.059s-1.937-.675-2.622-1.5c-1.016-1.225-.958-1.5.319-1.5.859 0 1.877.508 2.26 1.128.469.759 1.024.547 1.693-.649.922-1.648 1.137-1.603 2.954.622 1.311 1.604 1.776 1.823 1.403.661-.306-.956-.236-1.69.157-1.632 1.931.288 3.272-.228 2.757-1.061-.317-.512-.118-1.213.441-1.559s1.016-.061 1.016.631c0 2.326 1.719-.553 2.353-3.941q.618-3.302-.442-2.645c-.582.36-.478-.275.231-1.41.924-1.48 1.507-1.722 2.058-.855.557.877.783.797.82-.29.031-.898.603-.502 1.428.987.757 1.369 1.146 2.861.864 3.317s.32 1.507 1.338 2.337c1.017.829 1.257 1.204.533.833-.834-.428-1.518.091-1.864 1.414-.301 1.149-1.015 1.8-1.587 1.446-.619-.382-.74-.156-.297.56.541.876 1.1.907 2.057.113.964-.8 1.465-.747 1.882.201.399.909.529.847.437-.208-.073-.825.436-2.85 1.13-4.5s1.367-4.386 1.496-6.079c.128-1.693.559-3.606.957-4.25.435-.703.102-1.171-.835-1.171-1.846 0-1.858-.083-.527-3.584.948-2.494.893-2.601-.687-1.315-1.53 1.245-1.641 1.191-1.009-.492.601-1.601.477-1.699-.802-.637-.832.69-1.263 1.657-.96 2.148.304.492-.148 1.163-1.005 1.492s-1.309 1-1.004 1.493c1.006 1.627-1.151.929-3.292-1.066-2.104-1.96-2.105-1.96-3.188 1.148-.789 2.263-.779 3.477.038 4.461.86 1.036.763 1.352-.417 1.352-.847 0-1.991-1.237-2.544-2.75-.633-1.733-1.033-2.103-1.083-1-.087 1.92-.882 2.162-2.902.881-.94-.596-1.117-1.936-.611-4.63.517-2.755.395-3.595-.444-3.076-.635.392-.884 1.152-.552 1.688s.058 1.63-.606 2.431c-1.342 1.616-3.431 2.021-2.479.48.332-.537-.073-2.225-.901-3.75-.827-1.526-1.522-2.136-1.544-1.357s-.378 1.079-.79.667c-1.01-1.01-1.048-5.584-.046-5.584.438 0 .796-.9.796-2s-.477-2-1.059-2-.769-.47-.414-1.044-.168-2.262-1.163-3.75-1.709-3.043-1.586-3.456c.307-1.037-.541-.943-1.206.133m-20.493 2.7c.048 1.165.285 1.402.604.605.289-.722.253-1.585-.079-1.917s-.568.258-.525 1.312M67 39.941c0 .518.445 1.216.989 1.552.566.35.734-.051.393-.941C67.717 38.82 67 38.503 67 39.941M81 41.5c0 .825.436 1.5.969 1.5s.709-.675.393-1.5c-.317-.825-.753-1.5-.969-1.5S81 40.675 81 41.5m-25.429 1.176c-.372.97-.357 1.443.034 1.052s1.427-.152 2.303.531c1.435 1.118 1.447 1.043.125-.759-.807-1.1-1.539-2.132-1.626-2.293-.088-.161-.464.5-.836 1.469M61 42.378c0 .207.788.995 1.75 1.75 1.586 1.243 1.621 1.208.378-.378C61.821 42.084 61 41.555 61 42.378m61.828 1.291c.636 1.193.754 2.318.263 2.5-.492.182-.32.859.383 1.504 1.006.924 1.276.664 1.276-1.232 0-1.322-.692-2.975-1.539-3.672-1.348-1.112-1.395-1-.383.9M116 44c0 .55.477 1 1.059 1s.781-.45.441-1-.816-1-1.059-1-.441.45-.441 1m-38 1.393c0 .216.698.661 1.552.989.89.341 1.291.173.941-.393-.587-.951-2.493-1.406-2.493-.596m27.543.538c-.683 1.105.894 2.299 1.818 1.375.95-.951.773-2.306-.302-2.306-.518 0-1.2.419-1.516.931M52 46.378c0 .207.788.995 1.75 1.75 1.586 1.243 1.621 1.208.378-.378C52.821 46.084 52 45.555 52 46.378m5 .015c0 .216.698.661 1.552.989.89.341 1.291.173.941-.393-.587-.951-2.493-1.406-2.493-.596m4.564 2.9c.376.986.935 1.541 1.243 1.233s.001-1.114-.683-1.793c-.988-.98-1.102-.865-.56.56M77 49.031c0 .533.675.969 1.5.969s1.5-.177 1.5-.393-.675-.652-1.5-.969-1.5-.139-1.5.393m45.333 1.425c0 .801.383 1.22.85.931s.591-.944.274-1.456c-.808-1.308-1.124-1.161-1.124.525m9.231.251c-.542 1.425-.428 1.54.56.56.684-.679.991-1.486.683-1.793-.308-.308-.867.247-1.243 1.233m-72.123.738C60.509 52.3 61.821 53 62.358 53c1.27 0 .703-.462-2.358-1.92-2.357-1.122-2.389-1.102-.559.365m83.351 4.81c-1.49 1.235-3.002 3.488-3.362 5.006-.566 2.398-.407 2.669 1.209 2.056 1.801-.682 1.802-.646.037 1.134-1.457 1.47-1.558 2.008-.5 2.679 1.978 1.254 2.824 1.048 2.824-.689 0-.981.463-1.281 1.25-.808.966.58.961.393-.026-.824-1.049-1.297-1.005-1.679.25-2.161.84-.322 1.49-1.162 1.447-1.867-.057-.931-.212-.955-.565-.087-.267.656-1.103.957-1.857.667-1.536-.589-.989-2.937 1.308-5.611 2.056-2.394 1.233-2.188-2.015.505M59 55.927c0 .509-.788 1.127-1.75 1.373-.962.245-.345.391 1.371.323 2.052-.081 2.958-.551 2.643-1.373C60.71 54.801 59 54.557 59 55.927m57.751 1.597c-.61 3.187.867 4.255 1.804 1.304.685-2.16.727-2.165 2.206-.265 1.369 1.758 1.45 1.768.874.105-.349-1.007-.635-2.245-.635-2.75s-.848-.918-1.883-.918c-1.22 0-2.054.89-2.366 2.524m29.249.417c0 .518.445 1.216.989 1.552.566.35.734-.051.393-.941-.665-1.732-1.382-2.049-1.382-.611M198 58c0 .55.45 1 1 1s1-.45 1-1-.45-1-1-1-1 .45-1 1M54.655 63.542c.51 1.329 3.345 1.526 3.345.232 0-.49.52-.571 1.155-.179.709.439.883.275.45-.425-.905-1.465-5.522-1.118-4.95.372M49.5 65c-1.398.601-1.548.904-.5 1.006 3.298.323 5.329.901 5.9 1.679.33.45 1.846 1.461 3.369 2.246 1.798.927 2.361 1.68 1.604 2.147-.742.459.009 1.327 2.074 2.395 3.416 1.766 5.603 1.187 3.051-.808-.824-.645-1.647-1.844-1.83-2.665-.546-2.452-2.202-3.913-5.526-4.874-1.728-.5-3.817-1.151-4.642-1.448s-2.4-.151-3.5.322m70.5.941c0 .518.45 1.219 1 1.559s1-.084 1-.941S121.55 65 121 65s-1 .423-1 .941m60.5.022c-3.656 1.503.699 2.219 10.162 1.67C201.124 67.026 200 67.223 200 66c0-1.205-16.583-1.237-19.5-.037M105 67.5c0 .825.177 1.5.393 1.5s.652-.675.969-1.5.139-1.5-.393-1.5c-.533 0-.969.675-.969 1.5m11.981.023c-1.057 1.273-.995 1.42.378.893.902-.347 1.641-1.032 1.641-1.523 0-1.286-.579-1.105-2.019.63m-70.967.891c.648.648 1.324.648 1.972 0 .647-.647.309-.985-.986-.985s-1.633.338-.986.985m93.742 1.235c.691.287 1.002.933.691 1.436s-.201.908.244.9c.962-.019 4.032-1.914 3.309-2.044-3.157-.566-5.249-.71-4.244-.292m-61.159 3.195c-.346.56-.142 1.319.453 1.687 1.538.95 2.53-.351 1.246-1.635-.718-.718-1.277-.735-1.699-.052m59.061 1.605q-.56 1.452.893.893c1.582-.607 1.994-2.342.556-2.342-.491 0-1.143.652-1.449 1.449m21.543-.683c-.661.221-1.201.871-1.201 1.446 0 .703 4.181.859 12.75.476 14.915-.667 13.25-.459 13.25-1.655 0-.921-22.124-1.158-24.799-.267M51.564 76.293c.376.986.935 1.541 1.243 1.233s.001-1.114-.683-1.793c-.988-.98-1.102-.865-.56.56m-1.231 4.374c0 1.337.999 1.73 3.517 1.385.743-.102 1.054.294.691.881-.363.588.067 1.067.959 1.067.89 0 1.34-.45 1-1s-.029-1.007.691-1.015c1.006-.012.983-.222-.1-.908-.775-.49-2.013-.66-2.75-.377-.738.282-1.341.091-1.341-.426 0-.518-.6-.941-1.333-.941-.734 0-1.334.6-1.334 1.334m-9.104.155-2.272.323 2.272 1.894c1.934 1.614 2.012 1.899.521 1.928-.962.018-1.75-.321-1.75-.753s-.9-.785-2-.785-2 .578-2 1.285S36.513 86 37.14 86s1.69.753 2.363 1.673c1.11 1.518 1.383 1.431 2.937-.942 2.311-3.526 1.736-6.327-1.211-5.909m4.923.063c-.742.47-1.192 1.582-1 2.472.263 1.221.631 1.007 1.504-.87.636-1.368 1.086-2.48 1-2.472s-.763.4-1.504.87m31.181 3.53c0 .779 1.05 1.894 2.334 2.479 2.611 1.19 3.324-.503 1.133-2.694-1.628-1.628-3.467-1.514-3.467.215M111 86.675c0 .934.786 1.348 2.172 1.145 3.076-.453 3.32-2.291.327-2.464-1.593-.092-2.499.386-2.499 1.319m24.991-.186c.68.819 1.642 1.238 2.139.931 1.276-.789.055-2.42-1.811-2.42-1.272 0-1.333.278-.328 1.489m-37.845 9.648c-1.141 1.828-.611 6.883.704 6.711.358-.047.875.003 1.15.11 2.165.844 4.045.697 3.682-.288-.238-.644-.922-1.063-1.521-.932-1.324.289-.32-2.685 1.542-4.569.724-.731 1.094-1.688.824-2.125-.936-1.516-5.208-.784-6.381 1.093m33.309-.065c-.875 1.417.339 5.928 1.595 5.928.557 0 1.256-.787 1.554-1.75s.904-2.444 1.348-3.292c.607-1.162.231-1.589-1.524-1.735-1.281-.106-2.619.276-2.973.849m1.624 3.511c.048 1.165.285 1.402.604.605.289-.722.253-1.585-.079-1.917s-.568.258-.525 1.312M133 104c0 .55.477 1 1.059 1s.781-.45.441-1-.816-1-1.059-1-.441.45-.441 1m-31 2c0 .55.423 1 .941 1s1.219-.45 1.559-1-.084-1-.941-1-1.559.45-1.559 1m33.451 2.079c-.253.41.204.648 1.015.529 2.09-.307 2.841-1.275.99-1.275-.849 0-1.751.336-2.005.746m-95.182.614c.973.254 2.323.237 3-.037s-.119-.481-1.769-.461-2.204.244-1.231.498m61.731.7c0 1.857 2.335 2.668 4.091 1.42 1.084-.771.973-.859-.482-.384-1.602.522-1.698.383-.628-.906 1.064-1.283.929-1.523-.859-1.523-1.167 0-2.122.627-2.122 1.393m-30.493.596c-.363.587.086.721 1.105.33 1.087-.417 1.475-.268 1.058.406-.362.586.051 1.338.918 1.67 2.334.896 2.684.756 2.074-.832-.32-.835.159-1.625 1.143-1.884.932-.246.034-.499-1.996-.563s-3.966.329-4.302.873m-10.757 1.673c.688.278 1.813.278 2.5 0 .688-.277.125-.504-1.25-.504s-1.937.227-1.25.504m77.25-.269c0 .216.698.661 1.552.989.89.341 1.291.173.941-.393-.587-.951-2.493-1.406-2.493-.596m-102.187 1.29c.721.289 1.584.253 1.916-.079s-.258-.568-1.312-.525c-1.165.048-1.402.285-.604.604m64.987-.134c-1.49 2.505 3.9 8.666 8.402 9.604 2.945.613 2.18-1.602-1.103-3.197-1.748-.849-2.86-1.861-2.472-2.25.389-.388.181-.706-.46-.706-.642 0-1.167-.702-1.167-1.559s-.412-1.305-.915-.994-1.095.022-1.317-.642c-.228-.684-.647-.795-.968-.256m-39.987 3.134c.721.289 1.584.253 1.916-.079s-.258-.568-1.312-.525c-1.165.048-1.402.285-.604.604m66.937 3.063c-.963.22-1.75.985-1.75 1.698 0 .714-1.541 2.354-3.425 3.645s-3.224 2.671-2.978 3.067c.245.397-.352 1.185-1.326 1.752-1.639.954-1.621 1.033.242 1.062 1.147.017 2.437-.937 3-2.22.547-1.247 2.533-2.75 4.454-3.371 3.848-1.243 6.08-3.806 4.511-5.179-.538-.47-1.765-.674-2.728-.454m-64.937 4.937c.721.289 1.584.253 1.916-.079s-.258-.568-1.312-.525c-1.165.048-1.402.285-.604.604M62 127c-.825.533-1.05.969-.5.969s1.675-.436 2.5-.969 1.05-.969.5-.969-1.675.436-2.5.969m85.465 1.541c2.731.749 5.136 1.191 5.344.983.5-.5-6.886-2.537-8.809-2.429-.825.046.734.697 3.465 1.446M65 131c0 1.253 1.061 1.253 3 0 1.213-.784 1.069-.972-.75-.985-1.237-.008-2.25.435-2.25.985m90.5 0c1.1.473 2.675.859 3.5.859.945 0 .761-.317-.5-.859-1.1-.473-2.675-.859-3.5-.859-.945 0-.761.317.5.859M69 134c0 .55.477 1 1.059 1s.781-.45.441-1-.816-1-1.059-1-.441.45-.441 1m74.5 2.726c.55.525 2.8 1.965 5 3.2s3.1 1.498 2 .584c-2.234-1.857-8.569-5.282-7-3.784M52 138.969c0 .532.675.709 1.5.393.825-.317 1.5-.753 1.5-.969s-.675-.393-1.5-.393-1.5.436-1.5.969M47 140c-1.828 1.181-.249 1.181 2.5 0 1.319-.567 1.489-.878.5-.914-.825-.031-2.175.381-3 .914m55 0c0 .55.45 1 1 1s1-.45 1-1-.45-1-1-1-1 .45-1 1m-21.823.863c-.874.558.275 1.064 3.39 1.491 6.74.924 10.433.799 10.433-.354 0-.55-.338-1.037-.75-1.082-6.427-.706-12.019-.729-13.073-.055m-33.807 1.84c.787.787 5.596 1.051 5.12.281-.249-.404-1.605-.734-3.013-.734s-2.356.204-2.107.453M153 142.43c0 .275.9.981 2 1.57s2 .845 2 .57-.9-.981-2-1.57-2-.845-2-.57m-10 1.883c0 .172 1.463 1.635 3.25 3.25l3.25 2.937-2.937-3.25c-2.738-3.029-3.563-3.71-3.563-2.937m-94.217 1.903c1.451.711 2.63.771 3.238.163.607-.607-.224-1.015-2.283-1.118-3.048-.154-3.104-.098-.955.955M158 145.43c0 .275.9.981 2 1.57s2 .845 2 .57-.9-.981-2-1.57-2-.845-2-.57m-111.746 3.695c-.965.344-2.091.429-2.504.191-.413-.239-.75.091-.75.732 0 .649.697.899 1.572.563 2.697-1.035 5.349 1.095 4.842 3.889-.414 2.285-.146 2.5 3.125 2.5 1.969 0 3.32.419 3.004.931-1.077 1.741 1.642 2.313 3.267.687.89-.89 1.163-1.618.605-1.618-.564 0-.837-1.512-.615-3.412.304-2.602-.058-3.656-1.525-4.441-2.015-1.078-8.024-1.09-11.021-.022m88.746-.747c0 .207.787.995 1.75 1.75 1.586 1.243 1.621 1.208.378-.378-1.307-1.666-2.128-2.195-2.128-1.372m6.57.509c-.301.487.122 1.442.941 2.122s1.489.886 1.489.458c0-.427 1.012.073 2.25 1.112s.928.434-.687-1.345c-3.275-3.607-3.231-3.58-3.993-2.347m16.909 9.915c4.939 5.059 9.169 9.198 9.401 9.198.736 0-9.199-10.341-13.88-14.448-2.475-2.171-.459.191 4.479 5.25M144 153.378c0 .207.787.995 1.75 1.75 1.586 1.243 1.621 1.208.378-.378-1.307-1.666-2.128-2.195-2.128-1.372M48.5 159c-.34.55.11 1 1 1s1.34-.45 1-1-.79-1-1-1-.66.45-1 1m66.579 1.583c.048 1.165.285 1.402.604.605.289-.722.253-1.585-.079-1.917s-.568.258-.525 1.312M56 163c0 .55.45 1 1 1s1-.45 1-1-.45-1-1-1-1 .45-1 1m4.17 1.941c-.743 2.132-.708 3.046.128 3.325.675.225 1.082 2.217.982 4.809l-.17 4.425 1.067-3.843c.917-3.306 1.399-3.78 3.444-3.389 1.309.25 2.379.067 2.379-.407 0-.473-1.275-.861-2.833-.861-3.679 0-4.57-.972-2.401-2.619 1.013-.77 1.228-1.331.515-1.349-.67-.018-.959-.707-.643-1.532.317-.825.122-1.5-.433-1.5s-1.471 1.323-2.035 2.941m-7.175.035c1.283.811 1.212 1.159-.5 2.453-1.097.829-1.545 1.507-.995 1.507s1.898-.678 2.995-1.507c1.712-1.294 1.783-1.642.5-2.453-.822-.52-1.945-.945-2.495-.945s-.327.425.495.945m11.415 7.651c.344.894.054 2.331-.643 3.192-.99 1.223-.994 1.401-.017.814.888-.533 1.25.107 1.25 2.209v2.96L68 179c2.004-1.872 2.989-3.748 2.968-5.651-.029-2.613-.144-2.701-1.389-1.06-1.222 1.611-1.511 1.636-2.897.25-2.004-2.004-3.059-1.963-2.272.088"/><path fill-opacity=".275" fill-rule="evenodd" d="M0 84.563v84.563l3.75-3.555c3.607-3.419 10.565-6.167 16.15-6.378 3.831-.145 9.386 5.133 10.574 10.046.778 3.217 1.753 4.595 4.026 5.689l3 1.444-5 1.16-5 1.159 4.5.404c4.001.36 4.508.682 4.573 2.905.041 1.375-.352 3.063-.872 3.75-.62.819-.559 1.25.177 1.25.617 0 1.122.9 1.122 2s-.378 2-.839 2c-.678 0-.816 4.293-.265 8.25.057.412 5.369.75 11.804.75 9.1 0 11.433-.267 10.5-1.2-.66-.66-1.2-2.515-1.2-4.122 0-2.485-.225-2.736-1.5-1.678-1.232 1.023-1.5.945-1.5-.437 0-1.014-.457-1.399-1.152-.969-.833.515-.991-.489-.571-3.623.705-5.257-1.735-9.414-4.589-7.817-1.349.756-1.688.522-1.688-1.163 0-1.33-.423-1.848-1.146-1.401-.81.501-.945-.092-.46-2.025.449-1.789.327-2.511-.354-2.09-.572.354-1.04.166-1.04-.416S43.505 172 44.122 172c.759 0 .705-.503-.166-1.553-.708-.854-1.266-3.554-1.24-6S42.359 160 41.864 160c-.496 0-.603-1.192-.237-2.649.43-1.713.3-2.424-.367-2.012-.571.353-1.245-.482-1.512-1.875-.264-1.381-.09-2.753.386-3.047 1.4-.865.993-2.417-.634-2.417-1.941 0-1.941-1.617 0-2.362 2.131-.818 1.86-2.638-.393-2.638-1.742 0-3.642-2.473-3.266-4.25.088-.412-.714-.75-1.782-.75-2.758 0-3.439-1.667-.947-2.319 1.149-.301 1.792-1.027 1.43-1.614-.637-1.029 1.832-1.514 5.708-1.119 3.293.335 1.583-3.294-2.278-4.835l-2.472-.986 2.5-.079c1.375-.043 3.175-.515 4-1.048 1.162-.751.825-.999-1.5-1.1-1.65-.072-3.789-.05-4.753.048-1.241.127-1.663-.417-1.443-1.859.171-1.121.623-2.349 1.004-2.73 1.273-1.274.712-2.216-1.558-2.613-1.237-.217.563-.756 4-1.199 6.89-.888 8.386-2.481 2.5-2.662-4.365-.135-5.222-.27-7.25-1.149-.825-.358-2.85-.863-4.5-1.124s1.5-.347 7-.192 9.212.09 8.25-.143S42 110.42 42 109.89c0-.559-1.995-.737-4.75-.423-3.318.377-4.298.242-3.25-.448 1.182-.779.929-.992-1.191-1.004-1.48-.008-2.969.435-3.309.985s-1.142 1-1.782 1c-.639 0-.143-.714 1.104-1.588 1.577-1.105 3.698-1.451 6.972-1.14 2.588.246 3.882.249 2.876.007-1.007-.241-2.694-1.303-3.75-2.359-1.769-1.769-1.783-1.926-.17-1.999 1.055-.048 1.251-.28.494-.585-.864-.349-.553-1.092 1-2.388 1.445-1.205 1.758-1.893.871-1.915-.777-.018-.165-.992 1.395-2.219 2.567-2.02 2.634-2.243.884-2.93-1.532-.602-1.58-.757-.251-.814.904-.038 1.926-.809 2.273-1.711.519-1.354.37-1.426-.849-.414-.814.675-1.978.919-2.588.542-1.527-.943-8.167.4-7.479 1.513.637 1.031-3.37 3.463-4.252 2.581-.32-.32-.137-.581.406-.581s.961-1.575.928-3.5-.471-3.5-.974-3.5.108-.887 1.357-1.97c1.38-1.196 2.034-2.591 1.665-3.552-.351-.914-.189-1.324.381-.971.544.336.989-.3.989-1.413s.883-2.496 1.963-3.074c1.153-.618 1.728-1.663 1.393-2.535-.314-.817-.104-1.485.466-1.485.569 0 1.63-.592 2.357-1.315.726-.723 2.221-1.834 3.321-2.469 1.975-1.141 1.976-1.156.027-1.186-1.859-.028-1.845-.119.252-1.588 1.224-.857 2.743-1.237 3.377-.845.714.441.881.272.439-.442C44.203 63.52 44.385 63 45 63s.84-.45.5-1c-.627-1.015-.166-1.161 4.768-1.508 3.93-.276 4.464-1.279 1.1-2.063-1.577-.368-3.406-1.342-4.064-2.166-.954-1.194-1.81-1.282-4.235-.437-2.281.795-3.356.748-4.305-.189-.695-.687-2.052-1.547-3.014-1.912-.962-.364-1.75-1.074-1.75-1.577s-.941-1.161-2.092-1.462c-1.981-.518-2.003-.448-.408 1.314 1.6 1.768 1.571 1.831-.564 1.273-1.481-.387-2.019-.217-1.576.5.9 1.456-.772 2.39-2.85 1.592-1.029-.394-1.484-1.357-1.184-2.504.268-1.025.131-1.643-.306-1.374-.436.27-1.038-.45-1.339-1.599-.926-3.54-2.612-1.069-2.516 3.687.05 2.477-.181 4.775-.513 5.107C19.314 60.019 17 56.541 17 53.193c0-1.959-.853-5.391-1.896-7.627s-2.106-5.307-2.363-6.825c-.403-2.379-.257-2.585 1.06-1.5 1.331 1.098 1.38.985.385-.884-1.055-1.979-.871-2.175 2.399-2.557 4.046-.472 8.275 2.55 7.828 5.593-.145.985-.012 1.539.295 1.233.307-.307 1.43.552 2.497 1.908 2.502 3.181 4.334 3.218 2.256.046-.872-1.33-1.504-3.018-1.405-3.75.475-3.492-.332-4.723-4.076-6.221C21.769 31.724 18.994 31 17.813 31c-1.18 0-1.878-.268-1.55-.597.737-.737 10-.715 13.02.031 1.219.301 1.655.289.967-.027C28.126 29.432 28.869 28 31.5 28c1.375 0 2.5-.382 2.5-.849s-2.568-.445-5.707.047c-3.14.492-6.852.742-8.25.554-2.059-.275-1.687-.549 1.957-1.439 2.621-.64 3.537-1.144 2.193-1.206-1.269-.059-4.316-.613-6.77-1.231-3.618-.911-4.246-1.384-3.32-2.5C15.701 19.451 22 19.549 22 21.5c0 1.181 1.395 1.5 6.559 1.5 3.607 0 6.339.357 6.069.792-.269.436.389.859 1.463.94s1.691-.276 1.372-.793c-.862-1.394 1.936-1.138 3.396.311 1.01 1.002 1.133.918.623-.423-.35-.92-1.305-1.929-2.123-2.243-.821-.315-1.165-1.089-.768-1.731.469-.759.279-.891-.548-.379-.697.43-1.554.344-1.905-.192C35.205 17.858 30 16.755 30 17.981c0 .56 1.2 1.019 2.667 1.019s2.358.309 1.98.686c-1.063 1.064-9.314.368-11.969-1.009-2.582-1.34-1.77-3.014 1.92-3.958 1.136-.291.56-.534-1.431-.603-2.174-.076-3.19-.548-2.92-1.357C20.697 11.409 18.73 9 17.178 9 16 9 14.908 6.425 15.736 5.598c.328-.329 1.085-.591 1.681-.583.595.009.408.501-.417 1.095-1.263.908-1.223.985.25.484a74 74 0 0 0 3.25-1.201c.825-.334 1.5-.117 1.5.481 0 .717 1.62.88 4.75.477 3.257-.418 4.436-.286 3.75.422-.55.568-1.863 1.189-2.918 1.38-1.233.223-.428.744 2.25 1.458 4.502 1.2 5.555.882 1.918-.58-2.209-.888-2.211-.905-.122-.968 2.16-.064 4.816 2.159 3.797 3.179-.307.307.206.49 1.141.408 1.817-.16 2.876 2.959 1.329 3.915-1.172.724-.169 2.44 1.414 2.42.716-.01.592-.403-.309-.985-1.293-.835-1.266-.971.191-.985.93-.008 1.969.435 2.309.985s1.095 1 1.678 1c1.053 0-3.613-6.83-5.625-8.235-.579-.404-.693-.741-.252-.75.44-.008-.57-1.477-2.246-3.265-3.556-3.794-3.936-5.292-.934-3.685 1.709.914 1.985.873 1.426-.215-.383-.743.025-.461.904.626 4.786 5.911 16.275 16.753 18.955 17.886C60.863 22.67 65 23.847 65 23.092c0-.404 1.8-.637 4-.517s4-.072 4-.428c0-1.082 5.81-.55 7.275.667 1.029.853 1.667.844 2.549-.038C83.49 22.11 84 22.033 84 22.6c0 .55-.431 1.431-.958 1.958-.603.603-.609 1.512-.016 2.45.801 1.266.946 1.227.959-.258.008-.962.465-1.75 1.015-1.75s1.036.788 1.079 1.75c.052 1.157.258 1.302.607.43.736-1.842 2.841 1.321 3.795 5.703.54 2.483.974 3.015 1.628 2 .749-1.163 1.051-1.145 1.9.117 1.151 1.709.697-7.048-.462-8.923C93.181 25.485 93.385 25 94 25s.797-.52.405-1.155c-.416-.671-.277-.884.33-.509 1.255.776 2.19 7.592 1.131 8.247-.856.529.823 5.919 2.803 8.997.736 1.144 1.036 2.381.668 2.75-.369.368-.145.67.496.67.642 0 1.167-.9 1.167-2s-.436-2-.969-2-.681-.749-.33-1.664c.475-1.236.274-1.455-.781-.853-1.126.642-1.17.541-.217-.489.787-.851.888-1.889.292-3.003-.662-1.237-.325-2.333 1.23-4.002 2.042-2.192 2.173-2.21 2.833-.393.38 1.047.454 2.311.162 2.809-.291.497-.009.583.625.19.691-.427 1.155-.063 1.155.905 0 .981.461 1.333 1.17.895q1.172-.726.544.909c-.345.898-.196 1.898.33 2.223s.956-.422.956-1.659c0-2.193.037-2.201 1.468-.309.808 1.067 1.5 1.491 1.539.941s.705.458 1.479 2.239c.885 2.035 1.919 3.043 2.783 2.711.831-.319 1.892.575 2.684 2.261.854 1.82 1.48 2.315 1.8 1.423.27-.751.01-1.663-.578-2.026-.638-.394-.725-1.219-.215-2.044.47-.76.593-2.064.274-2.897-.416-1.084-.124-1.339 1.03-.896 1.028.395 1.772.005 2.057-1.076.36-1.365.473-1.306.578.305.102 1.542.332 1.684 1.005.621 1.323-2.088 2.352 7.729 1.213 11.574-.759 2.564-.594 3.603.836 5.25.98 1.13 2.011 2.055 2.291 2.055.794 0 .108-11.622-.77-13.042-.492-.796-.38-1.018.302-.596.597.369 1.368.213 1.714-.346S129.416 41 128.559 41s-1.565-.562-1.573-1.25c-.007-.687-.265-2.187-.573-3.333-.393-1.466-.092-2.084 1.014-2.084.992 0 1.573.883 1.573 2.393 0 1.442.424 2.13 1.068 1.732.588-.363.843-1.247.568-1.965-.398-1.038-.052-1.068 1.695-.149 2.689 1.416 7.09 5.749 7.248 7.138.288 2.519.512 2.687 1.968 1.479 1.236-1.026 1.287-1.45.25-2.107-.985-.625-.903-.827.338-.839 2.49-.023 5.002-4.471 4.021-7.122-.696-1.881-.915-1.964-1.456-.553-.411 1.071-1.779 1.66-3.86 1.66-3.131 0-3.056-.1 2.645-3.533 3.227-1.943 6.801-3.692 7.941-3.887 1.141-.194 2.014-.742 1.941-1.217s1.277-1.979 3-3.343c1.723-1.365 2.532-1.722 1.797-.794s-1.003 2.226-.596 2.885c.44.711.318.937-.3.555-1.482-.916-3.422 1.769-2.678 3.707.403 1.052.1 1.627-.861 1.627-.816 0-2.022.648-2.68 1.441-.657.792-1.837 1.194-2.622.893-.785-.302-1.427-.076-1.427.502 0 .577.9.876 2 .664s2 .039 2 .557c0 .519-.562.95-1.25.958-.85.011-.77.361.25 1.095 1.238.89 1.172.972-.377.467-2.076-.677-3.515.76-6.646 6.633-2.476 4.647-2.527 5.69-.131 2.732 1.757-2.17 5.794-3.786 4.59-1.838-.316.511-.974.682-1.463.38-.488-.302-1.619.865-2.513 2.593-.894 1.729-1.138 2.842-.543 2.474 2.054-1.269 3.279.579 1.393 2.1-1.666 1.343-1.63 1.372.452.363 1.703-.826 2.148-1.724 1.802-3.635-.385-2.12-.223-2.341.982-1.34.794.658 2.371.954 3.506.658 1.578-.413 1.816-.243 1.014.724-.577.695-.715 1.631-.307 2.081.407.45.174.492-.52.092-.765-.44-2.531.544-4.491 2.504-1.944 1.944-2.437 2.825-1.239 2.213 2.518-1.287 8.491.214 8.491 2.134 0 .764-1.238 1.84-2.75 2.393-2.495.911-2.541 1.011-.5 1.083 1.298.046 2.25.714 2.25 1.579 0 1.013 1.014 1.5 3.122 1.5 2.747 0 2.963.192 1.797 1.598-.729.878-1.456 2.453-1.616 3.5-.275 1.799.534 1.902 14.903 1.902 10.786 0 14.884.31 14.125 1.069-1.556 1.556-3.508 1.77-16.943 1.854L156.275 76l.274 2.5c.33 2.998-.77 3.123-7.665.867-6.029-1.972-17.053-1.429-19.705.971-1.176 1.064-2.195 1.263-3.202.627-.812-.514-2.095-.941-2.849-.95-1.107-.012-1.132.275-.128 1.485.685.825 1.865 1.5 2.622 1.5.803 0 1.378 1.043 1.378 2.5 0 1.462-.574 2.5-1.383 2.5-.761 0-1.709 1.013-2.106 2.25-.612 1.906-.795 1.982-1.19.5-.257-.962-1.188-1.75-2.069-1.75-1.268 0-1.113.519.748 2.5 2.409 2.564 3.599 3.278 2.5 1.5-.34-.55.068-1 .906-1s1.989.87 2.559 1.934c1.375 2.569 1.306 3.347-.215 2.433-.997-.599-.999-.441-.009.783.683.844.908 1.902.5 2.352-.407.45-.215.518.428.15 1.45-.831 2.543 3.748 1.813 7.598-.307 1.622-.079 2.75.557 2.75.594 0 .823-.414.511-.919-.313-.506.062-1.55.832-2.32.975-.975 1.111-1.916.447-3.101-.523-.936-1.107-2.48-1.297-3.431s-.66-2.966-1.047-4.479c-.672-2.635-.54-2.755 3.157-2.861 5.439-.156 8.633.183 10.268 1.088 1.126.624.993 1.004-.66 1.889-1.314.703-1.895 1.777-1.59 2.941.263 1.008-.215 2.408-1.063 3.112-1.353 1.124-1.363 1.458-.077 2.744.806.806 2.031 1.139 2.722.74.692-.398.927-.358.524.088-.404.446.046 1.452 1 2.234 1.61 1.321 1.582 1.391-.389.976-1.689-.356-2.022-.058-1.625 1.457.274 1.048 1.347 2.36 2.386 2.916 1.482.793 1.67 1.416.875 2.902-.557 1.041-1.013 2.822-1.013 3.958s-.525 2.066-1.167 2.066c-.641 0-.852.314-.468.698s-.329 1.262-1.584 1.952c-2.134 1.173-2.044 1.237 1.413.988 2.031-.145 3.529.001 3.328.326-.2.324 6.013 2.564 13.807 4.976s14.396 4.676 14.671 5.03 1.977 1.241 3.782 1.971c1.805.731 3.131 1.479 2.947 1.663s-3.879-1.041-8.21-2.723c-8.204-3.186-27.01-8.864-29.391-8.875-1.107-.005-1.132.285-.128 1.494.685.825 1.704 1.5 2.265 1.5 2.016 0 14.915 4.153 14.424 4.644-.276.276-4.223-.673-8.771-2.11-7.221-2.281-8.452-2.428-9.718-1.163-1.265 1.265-1.021 1.677 1.926 3.245 1.856.987 3.712 1.703 4.124 1.59s.75.244.75.794.914 1 2.031 1c1.118 0 2.29.672 2.605 1.494.316.822 1.046 1.203 1.623.846.578-.357.788-.225.468.293-.321.518 1.747 2.242 4.595 3.832 5.377 3 20.678 13.418 20.678 14.079 0 .207-2.813-1.416-6.25-3.608-3.437-2.191-6.604-3.957-7.036-3.925s-1.457-.612-2.279-1.433-2.124-1.251-2.895-.955c-.952.365.743 2.49 5.279 6.618 3.675 3.343 6.619 6.677 6.544 7.408s.231 1.102.681.824c1.486-.919 1.962 1.277.534 2.462-.958.796-1.604.831-2.048.114-.356-.577-1.141-1.049-1.744-1.049s-.26.924.763 2.054c1.066 1.178 2.944 1.986 4.405 1.894 4.494-.282 5.713.022 5.713 1.426 0 1.395-7.04 1.977-9.167.757-2.09-1.198-4.323-1.034-4.858.358-.305.796-.055 1.756.556 2.133.72.445.826.226.302-.622q-.809-1.31.362-.585c.644.398.9 1.162.568 1.698-.93 1.505 1.513 3.833 3.393 3.233 1.286-.41 1.363-.31.333.427-1.114.796-1.062 1.543.298 4.344.925 1.906 1.076 2.728.344 1.883-.714-.825-1.86-1.545-2.548-1.6s-2.488-.174-4-.265c-2.08-.125-2.398-.388-1.304-1.081.877-.555 2.13-.549 3.184.016 2.598 1.39 3.054 1.141 1.89-1.033-.677-1.265-1.636-1.738-2.699-1.33-1.19.457-1.423.267-.836-.683.624-1.01.212-1.165-1.775-.666-1.509.379-2.873.186-3.274-.461-.484-.783-.924-.726-1.492.194-.587.949-1.145.563-2.048-1.419-1.422-3.123-3.513-2.998-3.158.188.355 3.191-.521 2.595-2.242-1.524-2.267-5.425-11.723-19.119-17.516-25.367-2.789-3.008-4.625-4.531-4.08-3.386.758 1.592.661 2.084-.41 2.084-.771 0-1.143-.42-.825-.933.317-.514-.319-.454-1.413.131-1.094.586-2.273.78-2.621.433s-.631-.106-.631.535c0 .642-.986 1.167-2.191 1.167-2.094 0-2.109.06-.329 1.362 2.292 1.676 3.024 5.045.92 4.238-1.202-.461-1.245-.178-.259 1.673 1.055 1.98 1.011 2.082-.399.92-1.362-1.124-1.514-1.038-1.082.614.326 1.248-.343 2.585-1.909 3.817-1.326 1.043-2.204 2.517-1.951 3.275.278.835.014 1.104-.67.681-.622-.384-1.13-.195-1.13.42s-.45.84-1 .5-1-.141-1 .441-.338 1.006-.75.941c-1.915-.303-3.316.202-2.815 1.013.85 1.376-2.043 2.097-3.313.827-.829-.829-1.122-.691-1.122.531 0 1.186-.777 1.596-2.75 1.45-2.375-.175-2.718.138-2.513 2.297.223 2.347.168 2.378-.897.5-1.592-2.805-1.493-2.737-4.396-3.056-2.381-.261-2.56-.043-1.953 2.374.367 1.464.991 2.891 1.386 3.172.396.28.785 1.561.865 2.846.109 1.731-.256 2.181-1.409 1.738-1.262-.484-1.429-.075-.888 2.165.656 2.718.642 2.727-.882.603-1.019-1.421-2.23-1.98-3.544-1.637-1.098.287-1.75.921-1.449 1.409.302.487-.302.886-1.342.886s-2.484 1.11-3.21 2.466-1.729 2.213-2.229 1.904c-1.323-.818-6.99 1.729-9.115 4.096-1.005 1.119-1.541 1.472-1.191.784.791-1.556-1.107-1.668-2.062-.122-.477.771-.988.61-1.614-.508-.503-.899-.639-2.082-.302-2.628s.136-.992-.446-.992S66 192.575 66 194.5c0 2.125-.491 3.506-1.25 3.515q-1.25.016.25.985c.825.533 8.798.976 17.719.985 15.026.014 16.171-.114 15.58-1.735-.588-1.612-.486-1.625 1.281-.175 1.056.867 2.967 1.629 4.246 1.694 1.935.098 2.121-.128 1.107-1.35-1.679-2.023-.561-2.8 2.77-1.925 2.468.649 2.569.819.863 1.448-4.002 1.476.61 1.936 19.46 1.942 12.348.004 18.879-.332 17.944-.924-1.232-.779-1.187-.932.28-.945.963-.008 1.75.435 1.75.985 0 1.094 3.29 1.297 6.604.408 1.54-.414 2.03-1.237 1.828-3.075-.241-2.201.023-2.436 2.146-1.903 1.602.402 2.436.178 2.462-.661.022-.698.711-.032 1.532 1.481.821 1.512 2.179 2.75 3.019 2.75s1.287.389.993.865c-.294.475 2.822.942 6.924 1.037 6.745.156 7.405.002 6.899-1.615-.52-1.665-.482-1.67.553-.063.919 1.427 2.655 1.716 10.075 1.681l8.965-.042V187.76c0-10.074-.293-12.448-1.75-14.164-1.364-1.607-1.395-1.788-.137-.82 1.417 1.09 1.69.676 2.25-3.407.35-2.556.637-41.713.637-87.015V-.014L107.25.12C55.688.194 14.85.547 16.5.904c2.487.54 2.687.774 1.168 1.373-1.007.398-3.2.723-4.872.723C10.206 3 9.94 2.777 11 1.5 12.084.194 11.451 0 6.122 0H0zM.478 85c0 46.475.122 65.488.272 42.25.149-23.237.149-61.262 0-84.5C.6 19.513.478 38.525.478 85M5.564 2.293c.376.986.935 1.541 1.243 1.233s.001-1.114-.683-1.793c-.988-.98-1.102-.865-.56.56m22.074.207c.247.642 1.061 1.167 1.81 1.167s1.16-.525.914-1.167c-.247-.642-1.061-1.167-1.81-1.167s-1.16.525-.914 1.167M18.75 3.662c.688.278 1.813.278 2.5 0 .688-.277.125-.504-1.25-.504s-1.937.227-1.25.504M32 6c0 .55.477 1 1.059 1s.781-.45.441-1-.816-1-1.059-1S32 5.45 32 6m-4 5c.825.533 2.175.969 3 .969 1.333 0 1.333-.107 0-.969-.825-.533-2.175-.969-3-.969-1.333 0-1.333.107 0 .969m-14.5 2c-.731 1.183.248 1.183 3 0 1.928-.829 1.921-.862-.191-.93-1.205-.038-2.469.38-2.809.93m15.007.989c-.35.566.051.734.941.393 1.732-.665 2.049-1.382.611-1.382-.518 0-1.216.445-1.552.989M34 14c0 .55.927 1 2.059 1s1.781-.45 1.441-1-1.266-1-2.059-1S34 13.45 34 14m-20 3.5c1.342 1.616 5 2.068 5 .617 0-.486-1.012-1.155-2.25-1.487-3.503-.938-4.095-.751-2.75.87m26 2c0 .825.702 1.5 1.559 1.5s1.302.416.988.924c-.314.507.785 1.888 2.441 3.068 4.151 2.955 4.106.256-.065-3.915C41.542 17.696 40 17.202 40 19.5m-14.731 2.193c.973.254 2.323.237 3-.037s-.119-.481-1.769-.461-2.204.244-1.231.498M9 24.435c0 2.579 2.288 5.555 4.225 5.495 1.967-.061 2.028-.168.451-.789-1.003-.396-1.848-1.152-1.877-1.68-.1-1.806-1.012-3.461-1.906-3.461-.491 0-.893.196-.893.435m26 2.943c0 .207.788.995 1.75 1.75 1.586 1.243 1.621 1.208.378-.378C35.821 27.084 35 26.555 35 27.378m114.706 3.652c-.927 1.083-1.296 1.97-.819 1.97 1.1 0 3.548-2.898 2.952-3.494-.245-.245-1.205.44-2.133 1.524m-92.291.108c-.432.698-.292.904.345.51.588-.363 1.297-.095 1.576.596.362.899.529.917.585.065.114-1.721-1.656-2.548-2.506-1.171M51.5 34c-.34.55-.141 1 .441 1S53 34.55 53 34s-.198-1-.441-1-.719.45-1.059 1m60.515.75c.009.413.452 1.425.985 2.25.784 1.213.972 1.069.985-.75.008-1.237-.435-2.25-.985-2.25s-.993.337-.985.75M41 39.5c1.292 1.375 2.574 2.5 2.849 2.5s-.557-1.125-1.849-2.5-2.574-2.5-2.849-2.5.557 1.125 1.849 2.5m4.5.5c.34.55 1.068 1 1.618 1s.722-.45.382-1-1.068-1-1.618-1-.722.45-.382 1m-23.98 2.032c.287.465-.275 1.309-1.249 1.876s-1.208 1.045-.521 1.062c.688.016 1.25.78 1.25 1.697 0 .916.285 1.381.634 1.032.349-.348 1.759.252 3.135 1.334S27.759 51 28.357 51c.599 0 .088-.701-1.134-1.557C26 48.587 25 47.237 25 46.443S24.523 45 23.941 45s-.767-.472-.411-1.049c.436-.705 1.191-.623 2.309.25 1.462 1.143 1.507 1.102.378-.343-1.309-1.676-5.647-3.362-4.697-1.826m168.23-.37c.688.278 1.813.278 2.5 0 .688-.277.125-.504-1.25-.504s-1.937.227-1.25.504M197 42c0 .55.675 1 1.5 1s1.5-.45 1.5-1-.675-1-1.5-1-1.5.45-1.5 1M68.393 43.25c.299.962.059 1.75-.535 1.75s-.019.858 1.276 1.908c1.296 1.049 2.764 1.655 3.262 1.347s.244-1.054-.567-1.658-2.038-1.997-2.727-3.097c-.945-1.509-1.119-1.57-.709-.25M37 43.378c0 .207.788.995 1.75 1.75 1.586 1.243 1.621 1.208.378-.378C37.821 43.084 37 42.555 37 43.378m94.625.42c-.271.439-.093 1.445.397 2.237.671 1.086.848.889.721-.798-.183-2.427-.364-2.66-1.118-1.439m35.188-.115c.721.289 1.584.253 1.916-.079s-.258-.568-1.312-.525c-1.165.048-1.402.285-.604.604m-82.734 1.008c-.043.655.414 1.496 1.017 1.868s.889 2.087.636 3.809C85.219 53.862 87.692 60 89.614 60c1.636 0 1.339-8.022-.364-9.821-.687-.727-1.25-2.238-1.25-3.357q0-2.037-1.435-1.485c-.79.303-1.654.013-1.921-.643-.375-.921-.504-.921-.565-.003m25.583.749c-.658 1.713 1.698 6.867 2.686 5.878 1.051-1.051.693-3.68-.762-5.597-1.148-1.514-1.435-1.556-1.924-.281M41 45.553c0 .207.952.886 2.116 1.509 1.646.881 2.022.853 1.695-.128C44.442 45.826 41 44.579 41 45.553m60 1.888c0 1.343.369 2.669.819 2.947.451.279.624-.82.387-2.441-.525-3.574-1.206-3.86-1.206-.506m-62.595.326c1.452 1.702 1.571 2.25.5 2.303-.791.04-.531.423.595.877 1.1.443 2.483.422 3.074-.047.603-.479 1.589-.425 2.25.124.86.714.897.643.138-.262-.572-.682-1.809-1.244-2.75-1.25-1-.007-1.573-.636-1.379-1.512.184-.825 0-1.166-.408-.759-.407.408-1.457.191-2.333-.482-.975-.75-.854-.36.313 1.008m79.63 1.167c-1.274 2.381-1.361 5.385-.133 4.627 1.335-.826 3.155-6.561 2.081-6.561-.502 0-1.378.87-1.948 1.934m17.53-1.039c-.305.493.096 1.145.89 1.449q1.444.555.887-.895c-.645-1.68-1.011-1.794-1.777-.554M32.378 49.198c-.397.641-.235.832.382.45.588-.363 1.25-.117 1.472.547.282.848.603.881 1.079.111.373-.603.02-1.349-.785-1.658-.804-.308-1.771-.061-2.148.55m80.966 2.31c-.636 1.371-.941 2.492-.678 2.492.906 0 3.334-2.86 3.334-3.929 0-1.913-1.471-1.117-2.656 1.437m76.925-.815c.973.254 2.323.237 3-.037s-.119-.481-1.769-.461-2.204.244-1.231.498M39 53c0 .55.45 1 1 1s1-.45 1-1-.45-1-1-1-1 .45-1 1m82 .559c0 .857.45 1.281 1 .941s1-1.041 1-1.559-.45-.941-1-.941-1 .702-1 1.559m-97.571 4.749c.212 1.925-.115 2.325-1.581 1.942-1.633-.427-2.062.154-1.763 2.388.047.351-.314.914-.802 1.25-.882.608-4.283 7.368-4.283 8.513 0 .33.727.599 1.617.599 1.139 0 1.457-.607 1.078-2.057-.464-1.775-.322-1.878 1.033-.753 1.387 1.151 1.513.907 1.075-2.077-.395-2.695-.121-3.479 1.351-3.863 1.015-.266 1.846-.771 1.846-1.123 0-.351 1.395-1.256 3.101-2.011 2.005-.888 2.682-1.632 1.915-2.106-.653-.404-1.036-1.133-.851-1.622.184-.488-.641-1.027-1.833-1.197-1.769-.252-2.12.138-1.903 2.117m161.071-.391-5 .602 5.516.644c6.327.739 14.984-.008 14.984-1.293 0-.941-7.485-.919-15.5.047M34 59c0 .55.702 1 1.559 1s1.281-.45.941-1-1.041-1-1.559-1-.941.45-.941 1m-1 3c0 .55.477 1 1.059 1s.781-.45.441-1-.816-1-1.059-1-.441.45-.441 1m24.813-.317c.721.289 1.584.253 1.916-.079s-.258-.568-1.312-.525c-1.165.048-1.402.285-.604.604m5.694.328c.336.544-.106.989-.983.989-1.336 0-1.403.364-.414 2.25.648 1.237 2.464 3.89 4.035 5.894 1.57 2.004 2.855 4.367 2.855 5.25 0 .945.832 1.606 2.02 1.606 1.111 0 3.768 1.104 5.906 2.453 3.281 2.072 6.03 2.994 10.324 3.465.412.045.753.645.756 1.332s.64 2.464 1.414 3.949c1.218 2.335 1.212 2.862-.048 3.907-1.007.836-1.136 1.53-.418 2.248s1.525.438 2.616-.908c.868-1.07 1.293-1.383.945-.696-.798 1.576.495 1.56 2.584-.032 2.082-1.586 1.853-7.616-.421-11.087C93.73 81.184 93.268 80 93.651 80c.384 0-.313-1.076-1.549-2.392s-2.35-3.093-2.476-3.951C89.343 71.73 84.361 67 82.615 67c-.705 0-1.619-.338-2.032-.75-.412-.412-1.05-.785-1.416-.828-.603-.07-7.956-1.645-9.167-1.963-.275-.073-1.287-.43-2.25-.795-3.811-1.446-4.83-1.602-4.243-.653M174.5 65.918c-9.01.874-4.69 1.63 11.25 1.97 12.507.267 14.25.109 14.25-1.292 0-1.364-1.42-1.572-9.75-1.428-5.363.093-12.45.43-15.75.75m-39.019 3.143c-.887 2.795-.19 3.304 1.286.94.678-1.085.801-2.15.285-2.469-.5-.309-1.206.379-1.571 1.529m26.332-1.378c.721.289 1.584.253 1.916-.079s-.258-.568-1.312-.525c-1.165.048-1.402.285-.604.604m-111.21 2.15c-.283.459.14.834.941.834S53 70.292 53 69.833 52.577 69 52.059 69s-1.173.375-1.456.833m27.363 2.243c-1.249.819-1.178 1.182.475 2.443 2.424 1.849 3.559 1.882 3.559.103 0-2.175-2.344-3.654-4.034-2.546M15 75c-.825.533-1.05.969-.5.969s1.675-.436 2.5-.969 1.05-.969.5-.969-1.675.436-2.5.969m21 1.608c0 .177.853.778 1.895 1.336 1.351.723 2.187.661 2.911-.215.762-.921.287-1.256-1.895-1.335-1.601-.059-2.911.038-2.911.214m7.601 1.228c-.254.412.406.814 1.468.894 2.297.173 2.499-.298.463-1.079-.807-.31-1.676-.227-1.931.185m18.505 1.603c.956.957 5.894 1.371 5.894.495 0-.514-1.425-.934-3.167-.934s-2.969.198-2.727.439M160 81.393c0 .949 2.993 1.427 3.527.563.325-.526-.336-.956-1.468-.956s-2.059.177-2.059.393M90.5 84c-.34.55-.141 1 .441 1S92 84.55 92 84s-.198-1-.441-1-.719.45-1.059 1m59.089.371c.289.754-.175 1.64-1.032 1.969-3.715 1.425-.23 4.094 6.943 5.317 2.313.394 2.657.267 1.5-.557-1.227-.875-1.244-1.072-.095-1.085 1.074-.011.979-.486-.405-2.015-.995-1.1-1.403-2.016-.905-2.035 1.295-.051-3.849-2.887-5.314-2.93-.67-.019-.981.582-.692 1.336m-100.424.506c-1.014.643-.834.976.752 1.391 1.147.3 1.838.144 1.535-.346-.306-.495.919-.638 2.748-.323 2.508.433 2.94.313 1.8-.499-1.801-1.284-4.998-1.388-6.835-.223m85.51-.219c-.901.901 1.251 3.342 2.947 3.342 1.899 0 1.74-2.647-.204-3.393-1.956-.751-1.941-.751-2.743.051m-91.278 6.457c-1.583.621-1.456.756.77.815 1.466.038 2.816.51 3 1.047C47.63 94.334 54 95.515 54 94.244c0-1.506-8.413-3.988-10.603-3.129m100.618.848c.009.295.362 1.083.786 1.749.873 1.374 5.199.596 5.199-.936 0-.544-.698-.722-1.552-.394s-1.294.177-.978-.333c.315-.51-.336-.859-1.448-.776-1.112.084-2.015.394-2.007.69m.389 9.426c-.327.853-1.378 1.187-2.719.864-1.702-.409-1.93-.251-1.034.712.753.809 2.271.991 4.383.527 2.192-.481 2.815-.967 1.937-1.51-.914-.565-.585-.934 1.117-1.255 2.247-.424 2.222-.464-.369-.591-1.558-.076-3.016.476-3.315 1.253m2.844 3.317c-2.008.387-2.088.597-.741 1.944.831.831 2.069 1.285 2.752 1.009.868-.35.808-.525-.2-.58-1.055-.058-.921-.473.5-1.547 1.974-1.494 1.688-1.596-2.311-.826M23 106.383c0 .211 1.125.599 2.5.862s2.5.09 2.5-.384c0-.473-1.125-.861-2.5-.861s-2.5.173-2.5.383m109 2.058c0 .793.354 1.659.786 1.927.432.267.785-.382.785-1.441s-.353-1.927-.785-1.927-.786.648-.786 1.441m-110.187 2.242c.721.289 1.584.253 1.916-.079s-.258-.568-1.312-.525c-1.165.048-1.402.285-.604.604m79.202 3.49c.018 1.501 1.946 4.833 1.97 3.403.008-.509 1.028.002 2.265 1.135 1.237 1.132 3.371 2.401 4.742 2.818 2.231.68 2.349.587 1.128-.885-.751-.904-2.17-1.644-3.154-1.644-.983 0-2.953-1.385-4.377-3.077s-2.582-2.479-2.574-1.75m-78.952 7.403c1.063 1.281 1.068 1.725.024 2.37-.889.55-.065 1.374 2.675 2.674l3.961 1.88-3.611 1.216-3.612 1.216 3.5-.419c6.411-.766 10-1.73 10-2.686 0-.52-.479-.649-1.065-.287s-2.615.367-4.51.012c-3.089-.58-3.333-.856-2.36-2.673.909-1.699.749-2.115-.99-2.57-1.141-.298-2.075-.94-2.075-1.426 0-.485-.73-.883-1.622-.883-1.364 0-1.414.251-.315 1.576M128.5 122c-.34.55-1.465 1-2.5 1s-2.12.385-2.411.856c-.868 1.404 4.253.04 5.503-1.467.634-.764.899-1.389.589-1.389-.309 0-.841.45-1.181 1m16.5 1.393c0 .216.698.661 1.552.989.89.341 1.291.173.941-.393-.587-.951-2.493-1.406-2.493-.596M38 130c0 .55.477 1 1.059 1s.781-.45.441-1-.816-1-1.059-1-.441.45-.441 1m-8 1c-.901.582-1.025.975-.309.985.655.008 1.469-.435 1.809-.985.767-1.242.421-1.242-1.5 0m110.56 5.904c-.318.514 1.005 1.457 2.94 2.096s4.077 1.697 4.759 2.351c3.464 3.322 11.403 8.315 12.564 7.903 1.325-.47-4.236-4.879-6.898-5.469-.706-.157-2.015-.872-2.908-1.59-3.817-3.064-9.924-6.154-10.457-5.291M162 137c.825.533 1.95.969 2.5.969s.325-.436-.5-.969-1.95-.969-2.5-.969-.325.436.5.969m4 1.393c0 .216.698.661 1.552.989.89.341 1.291.173.941-.393-.587-.951-2.493-1.406-2.493-.596m-26.503 2.603c1.378 1.524 2.126 1.732 3.155.878 1.567-1.301 1.815-2.281.348-1.374-.55.34-1 .141-1-.441s-.97-1.059-2.155-1.059c-2.09 0-2.101.06-.348 1.996m30.586-.631c.23.2 1.542.9 2.917 1.555 2.357 1.122 2.389 1.102.559-.365-1.593-1.276-4.848-2.391-3.476-1.19m-33.448 3.143c-.336.877-1.218 1.205-2.213.824-1.369-.526-1.478-.305-.631 1.278.563 1.052 2.018 2.807 3.233 3.901s3.524 3.896 5.131 6.226 3.468 4.13 4.134 4 1.235.438 1.265 1.263c.057 1.573 6.298 13 7.1 13 .255 0 .205-.419-.111-.931-.317-.512-.104-1.223.473-1.579 1.186-.733-1.183-5.004-7.374-13.292-2.958-3.959-4.197-4.972-4.895-4-.663.923-.757.755-.324-.575.638-1.958-1.096-4.943-2.403-4.136-.414.256-1.6-.528-2.636-1.743-1.568-1.838-1.59-1.982-.134-.854 2.01 1.556 2.363.208.5-1.913-1.978-2.253 1.753.73 10.395 8.309 5.875 5.153 7.782 6.347 8.238 5.158.384-1.001.19-1.298-.549-.841-.66.407-.871.266-.5-.335.801-1.296-1.717-3.524-2.836-2.509-.45.407-.509.201-.13-.459.775-1.351-2.697-3.638-3.82-2.515-.393.393-.565.207-.381-.415.404-1.368-4.206-5.821-8.123-7.847-2.493-1.289-2.919-1.291-3.409-.015m6.365-.572c0 1.045 13.266 12.098 16.709 13.921 1.216.644 2.566 1.075 3 .958 1.844-.493 5.283 1.388 4.584 2.507-1.323 2.116-1.134 3.554.389 2.97 1.218-.468 1.246-.741.152-1.518-.931-.661-.579-.788 1.166-.418 2.079.44 1.619-.29-2.731-4.332C155.703 147.206 143 139.515 143 142.936m.837 8.795c1.249 1.777 3.035 3.675 3.967 4.219.933.544 1.402 1.003 1.043 1.02-.359.016 1.329 3.046 3.75 6.733S157 170.75 157 171.171s1.238 1.483 2.75 2.361c1.512.877 1.925 1.341.916 1.031-1.173-.361-1.687-.127-1.428.65.222.668 1.866 1.25 3.653 1.292 3.578.086 4.978-.957 2.54-1.893-.857-.329-1.325-.974-1.041-1.434s-.876-2.525-2.577-4.589c-2.076-2.518-3.335-3.362-3.828-2.564-.528.853-.928.877-1.419.082-.376-.609-.222-1.107.344-1.107.565 0 .78-.787.478-1.75s.95-.062 2.782 2c1.831 2.063 3.919 3.75 4.639 3.75s1.05.419.734.931-.049 1.256.595 1.654c.698.432.904.292.51-.345-.363-.588-.187-1.227.393-1.42 1.355-.452-5.762-8.414-7.182-8.035-.588.157-1.626-.177-2.306-.741s-1.463-.801-1.739-.525-3.595-2.315-7.375-5.758c-4.785-4.358-6.184-5.279-4.602-3.03m-12.273-.627c.316.511 1.051.634 1.635.273.614-.379.853-.071.568.734-.713 2.01 2.088 7.096 3.446 6.258.745-.461.904-.115.468 1.019-.362.944-.271 1.477.202 1.184.93-.575 4.117 6.919 4.117 9.68 0 1.191-.513 1.491-1.75 1.023-1.639-.621-1.643-.555-.071 1.031 1.833 1.85 3.308 2.291 2.321.694-.34-.55-.179-1 .358-1s1.466 1.238 2.065 2.75l1.089 2.75-.632-3c-.347-1.65-.643-3.675-.657-4.5s-.358-1.725-.765-2c-.406-.275-2.711-4.284-5.122-8.908-2.632-5.048-5.076-8.51-6.115-8.662-.952-.14-1.472.163-1.157.674m4 5.189c.376.986.935 1.541 1.243 1.233s.001-1.114-.683-1.793c-.988-.98-1.102-.865-.56.56M181 160.364c0 .275 1.35 1.461 3 2.636s3 1.911 3 1.636-1.35-1.461-3-2.636-3-1.911-3-1.636m7 5.014c0 .207.787.995 1.75 1.75 1.586 1.243 1.621 1.208.378-.378-1.307-1.666-2.128-2.195-2.128-1.372M72.872 168.75c-1.243 1.586-1.208 1.621.378.378.963-.755 1.75-1.543 1.75-1.75 0-.823-.821-.294-2.128 1.372m102.635-.761c-.35.566.051.734.941.393 1.732-.665 2.049-1.382.611-1.382-.518 0-1.216.445-1.552.989m16.493.389c0 .207.787.995 1.75 1.75 1.586 1.243 1.621 1.208.378-.378-1.307-1.666-2.128-2.195-2.128-1.372M74.627 174.25c.793 5.176 1.011 5.457 3.181 4.102 1.049-.655 2.606-.743 4.005-.225 1.458.539 2.067.488 1.679-.14-.59-.955 1.283-1.384 4.633-1.06 1.862.179 3.214-4.6 1.586-5.605-.561-.347-.731-.163-.377.41.354.572-.251 1.275-1.344 1.56-1.094.286-2.245.105-2.558-.402a1.09 1.09 0 0 0-1.501-.347c-.512.316-1.493.224-2.181-.206-1.836-1.147-3.847-1.304-3.196-.249.31.502.12.912-.422.912s-1.174.563-1.404 1.25-.227.012.006-1.5c.313-2.026.006-2.75-1.166-2.75-1.308 0-1.476.758-.941 4.25m17.084-1.628c-1.092 1.093-.843 3.578.289 2.878.55-.34 1-.066 1 .608s.235.991.521.704.157-1.507-.288-2.712c-.446-1.204-1.13-1.869-1.522-1.478m79.624 1.494c.201 1.311.868 2.384 1.483 2.384s2.82 1.822 4.9 4.05 3.279 3.352 2.665 2.5c-1.65-2.289-1.429-5.333.284-3.912 1.018.845 1.333.723 1.333-.516 0-1.927-2.085-2.128-3.871-.372-.7.688-1.144.8-.988.25.382-1.345-2.151-5.824-2.88-5.094-.317.317-1.187.07-1.933-.549-1.088-.903-1.284-.653-.993 1.259m-34.77 1.779c-.305.493.142 1.162.993 1.489.85.326 1.295.187.988-.31s.007-1.131.698-1.41c.781-.314.616-.536-.435-.585-.93-.043-1.94.324-2.244.816M97.5 178.5c0 1.27.338 2.1.75 1.845.412-.254.75-1.085.75-1.845s-.338-1.591-.75-1.845c-.412-.255-.75.575-.75 1.845m86-1.5c-.34.55.11 1 1 1s1.34-.45 1-1-.79-1-1-1-.66.45-1 1m-50.5 2c.825.533 2.175.945 3 .914.989-.036.819-.347-.5-.914-2.749-1.181-4.328-1.181-2.5 0m-3 2.224c0 .427.45.776 1 .776s1 .52 1 1.155c0 .712-.671.549-1.75-.424-1.586-1.43-1.938-1.432-3.75-.02-1.458 1.135-1.548 1.403-.333.987.917-.315 1.888.003 2.157.705s1.545 1.161 2.833 1.02a817 817 0 0 1 3.152-.34c.445-.046.531-.533.191-1.083s.309-1 1.441-1c3.735 0 2.142-1.782-1.941-2.171-2.2-.21-4-.032-4 .395m26.564.069c.376.986.935 1.541 1.243 1.233s.001-1.114-.683-1.793c-.988-.98-1.102-.865-.56.56m-37.09 6.572q.392 2.041-1.54 2.656c-1.837.583-2.425 2.207-1.964 5.425.179 1.248-.025 1.253-1.491.037-1.099-.913-1.292-1.545-.547-1.794.865-.288.862-.732-.013-1.786-1.512-1.823-3.29-1.813-2.589.014.299.78-.136 1.678-.967 1.997-1.308.502-1.275.817.241 2.333.964.964 2.747 1.773 3.964 1.798 1.722.035 2.155-.462 1.959-2.25-.139-1.262.136-2.295.611-2.295.474 0 .862.45.862 1s.498 1 1.107 1 .868-.624.575-1.387c-.382-.994.083-1.253 1.643-.913 1.761.383 1.889.269.675-.598-1.171-.836-.65-1.075 2.372-1.087 3.399-.013 3.714-.206 2.575-1.579-.844-1.017-2.142-1.353-3.707-.96-1.373.345-2.162.206-1.835-.323.315-.509-.079-1.467-.876-2.129-1.195-.992-1.38-.845-1.055.841m5.952 0c1.195 1.354 2.175 1.781 2.58 1.125.36-.582 1.479-.741 2.488-.354 1.326.509 1.619.356 1.057-.553-.427-.692-1.562-1.052-2.522-.801s-2.596-.006-3.637-.571c-1.825-.991-1.824-.95.034 1.154M183.5 188c.995 1.1 2.035 2 2.31 2s-.315-.9-1.31-2-2.035-2-2.31-2 .315.9 1.31 2m-23.822.869c.252.983-.38 1.23-2.239.875-3.335-.638-1.797.796 1.75 1.631 1.61.378 2.976.168 3.404-.526q.715-1.158-.608-.339c-.97.599-1.149.358-.666-.898.362-.944.252-1.465-.245-1.158s-1.093.218-1.325-.198-.263-.14-.071.613m-10.345 2.675c0 .801.375 1.456.834 1.456s.833-.423.833-.941-.375-1.173-.833-1.456c-.459-.283-.834.14-.834.941m-86.699.221c.624.404 1.359 1.635 1.634 2.735.383 1.533.527 1.358.616-.75.084-2.002-.36-2.746-1.634-2.735-1.111.01-1.336.284-.616.75m115.93 2.528c.376.986.935 1.541 1.243 1.233s.001-1.114-.683-1.793c-.988-.98-1.102-.865-.56.56m-9.751.39c.721.289 1.584.253 1.916-.079s-.258-.568-1.312-.525c-1.165.048-1.402.285-.604.604m-47.813.695c0 .207.787.995 1.75 1.75 1.586 1.243 1.621 1.208.378-.378-1.307-1.666-2.128-2.195-2.128-1.372m38.5.622c-1.908.82-1.897.863.25.93 1.238.038 2.25-.38 2.25-.93s-.113-.968-.25-.93c-.137.039-1.15.457-2.25.93m-101 1c.34.55.816 1 1.059 1s.441-.45.441-1-.477-1-1.059-1-.781.45-.441 1m59.5 1.031c0 .533.675.969 1.5.969s1.5-.177 1.5-.393-.675-.652-1.5-.969-1.5-.139-1.5.393"/><path fill-opacity=".241" fill-rule="evenodd" d="M0 61.006v61.144l5.678-3.075C8.8 117.384 12.31 116 13.478 116c1.167 0 2.662-.54 3.322-1.2.933-.933 1.467-.933 2.4 0 1.431 1.431 11.665 1.58 13.8.2 1.154-.745.807-.976-1.5-.998-4.215-.041-7.578-1.068-6.93-2.116.302-.487-.941-.939-2.761-1.004s-4.659-.474-6.309-.908c-1.871-.493-.523-.591 3.583-.261 5.622.452 6.584.292 6.584-1.092 0-1.05-.91-1.657-2.584-1.723-2.243-.089-2.122-.229.917-1.062 1.925-.528 4.826-.918 6.448-.867 1.621.051 2.663-.191 2.316-.538s-2.234-.631-4.195-.631c-1.96 0-3.337-.367-3.06-.815s-.737-1.277-2.253-1.843c-2.452-.915-2.281-.979 1.552-.587 2.891.296 4.091.09 3.649-.625-.363-.587-1.266-.834-2.007-.549-.868.333-1.15 0-.792-.932.306-.797.156-1.449-.333-1.449-1.404 0-1.472-5.285-.079-6.207 2.227-1.475-2.096-3.79-6.147-3.291-1.979.244-3.036.193-2.349-.113.687-.305 1.25-1.242 1.25-2.081 0-1.148-.679-1.371-2.75-.901-2.536.575-2.607.512-.919-.811 1.742-1.365 1.718-1.452-.5-1.766-2.214-.313-2.319-.681-2.101-7.33.126-3.85.895-8.8 1.708-11 2.618-7.086 2.742-12.337.366-15.551-1.599-2.164-2.167-4.564-2.351-9.938-.133-3.898-.757-8.33-1.387-9.851-.629-1.52-2.166-8.366-3.414-15.212C4.609 1.734 4.166.468 2.192.18L0-.139zM36.009.75c.014 1.166 15.186 16.844 17.999 18.598 1.379.86 3.404 1.524 4.5 1.475 1.095-.05 2.78.243 3.742.65 1.278.541 1.75.274 1.75-.988 0-1.492.226-1.542 1.644-.365 1.791 1.486 7.356 2.087 7.356.795 0-.44.9-.627 2-.415 1.357.261 2.01-.159 2.03-1.307.028-1.548.119-1.542 1.057.069.643 1.105 2.039 1.684 3.748 1.554 1.497-.114 3.272.132 3.944.547.721.446 1.234.219 1.253-.554.023-.94.375-.865 1.25.267 1.85 2.394 5.533 3.049 5.996 1.067.288-1.238.71-.967 1.709 1.099.82 1.696 1.744 2.436 2.42 1.939.601-.442 1.768-.761 2.593-.709s1.789-.318 2.143-.824c.353-.505 1.135.002 1.736 1.127.725 1.353 1.754 1.872 3.046 1.534 1.073-.28 2.93.177 4.128 1.015 1.197.839 2.8 1.286 3.562.994.789-.303 1.385.094 1.385.922 0 .8.9 2.492 2 3.76s2 1.735 2 1.036c0-.777.776-1.066 2-.746 1.1.287 2 .141 2-.326s.844-.687 1.876-.488c1.031.199 5.287-1.122 9.456-2.934 4.17-1.813 7.81-3.066 8.091-2.786.646.647-3.871 4.244-5.331 4.244-.6 0-1.092.465-1.092 1.032 0 .568-1.012 1.439-2.25 1.937-1.238.497-1.717.933-1.065.968 5.128.274 21.739-11.273 29.511-20.513C167.63 10.341 170.886 7 171.432 7s-1.041 2.137-3.526 4.75c-6.746 7.09-8.175 9.247-4.115 6.211a395 395 0 0 1 6.5-4.743c1.765-1.255 4.412-3.727 5.882-5.494s2.996-2.888 3.39-2.494-.921 2.53-2.923 4.746C172.996 14.01 172.124 16 174 16c.55 0 1 .502 1 1.117 0 .624-.882.886-2.001.593-1.101-.288-1.75-.115-1.441.383.308.499-.086.907-.877.907-.79 0-1.996.675-2.681 1.5s-.826 1.5-.314 1.5c.513 0 1.805.678 2.873 1.506 1.81 1.404 1.752 1.438-.874.5-4.009-1.432-4.024-1.399-1.221 2.726 1.395 2.053 2.529 4.415 2.521 5.25-.013 1.239-.175 1.267-.879.155-.729-1.151-.954-1.151-1.445 0-.32.75-.351.226-.069-1.165.437-2.153.127-2.559-2.094-2.743-1.764-.146-2.375.161-1.889.948.482.779.17.952-.945.524-2.206-.846-2.118-.459.906 3.997 1.625 2.395 2.402 4.668 2.113 6.182l-.458 2.394 7.538-.637c4.146-.35 11.746-.637 16.888-.637H200V0h-10.066c-5.536 0-10.99.495-12.12 1.1-1.422.761-1.851.769-1.392.027.469-.759-18.671-1.084-65.513-1.113C47.847-.024 44.798.057 46.1 1.737s1.27 1.682-.696.013c-2.015-1.711-9.413-2.498-9.395-1M58.5 13c2.709 2.75 5.15 5 5.425 5s-1.716-2.25-4.425-5-5.15-5-5.425-5 1.716 2.25 4.425 5m59.772 10c0 2.475.195 3.488.434 2.25.238-1.238.238-3.262 0-4.5-.239-1.238-.434-.225-.434 2.25M170 43.509c-3.575.727-7.738 1.078-9.25.781-1.764-.346-2.75-.113-2.75.652 0 .749.838.969 2.25.591 1.462-.391 1.125.025-.96 1.188-3.191 1.778-3.295 3.406-.29 4.55.894.34.425.603-1.162.65-1.953.058-2.586.545-2.378 1.829.156.962-.121 2.26-.614 2.883-1.438 1.816.701 1.989 15.654 1.263 7.7-.373 17.488-.728 21.75-.787L200 57v-6.531c0-4.35-.418-6.663-1.25-6.924-3.808-1.194-22.932-1.218-28.75-.036M13 44.878c0 .482.749 1.495 1.664 2.25 1.508 1.244 1.552 1.162.465-.878-1.24-2.327-2.129-2.9-2.129-1.372m140.603 4.955c-.283.459.12.834.897.834s1.18-.375.897-.834S154.71 49 154.5 49s-.614.375-.897.833m29.897.082-5 .601 6.353.737c6.76.785 14.147.064 14.147-1.381 0-.943-7.47-.922-15.5.043M39.152 59.849c.046.358-.003.876-.11 1.151s-.349 1.313-.538 2.306c-.272 1.432-.058 1.569 1.032.664.757-.628 1.916-.809 2.575-.402.728.45.936.318.531-.338-.366-.593.06-1.225.949-1.404 1.05-.212.54-.729-1.455-1.477-1.688-.632-3.031-.857-2.984-.5m115.204.778c-1.579.647-.524 4.093 1.493 4.874.908.351 11.214.319 22.901-.072l21.25-.71V60l-22.25.079c-12.238.043-22.765.29-23.394.548M34.571 64.571c-1.938 1.939-2.018 2.815-.193 2.114.758-.291 1.974-.001 2.702.643 1.093.968 1.099.875.036-.534-.709-.939-.998-2.176-.643-2.75.963-1.559-.114-1.26-1.902.527m28.105.297c.297 1.137 1.279 2.622 2.182 3.301 1.382 1.039 1.444 1.013.392-.167-2.063-2.313-1.545-4.282.592-2.252q1.843 1.75 1.032 3.374c-.829 1.663 1.072 4.044 4.126 5.167 1.333.49 1.333.561 0 .637-.95.054-.523.73 1.165 1.843 1.72 1.134 4.433 1.723 7.655 1.66 3.94-.077 4.874.203 4.441 1.332-.387 1.008-1.464 1.254-3.655.835-2.231-.428-2.683-.318-1.606.388 2.668 1.749 6.718 1.201 7.29-.986.287-1.1 1.24-2 2.116-2 1.962 0 1.92-.68-.278-4.5-2.097-3.646-6.518-5.951-15.128-7.889-3.575-.804-7.482-1.765-8.682-2.136-1.845-.569-2.099-.353-1.642 1.393M31 69.218c0 .43 1.125.782 2.5.782s2.5-.445 2.5-.989-1.125-.895-2.5-.782c-1.375.114-2.5.559-2.5.989m128-.205c0 .451.563 1.047 1.25 1.325.725.292.49.537-.559.583-.995.043-1.52.547-1.167 1.119.413.667 6.647.959 17.406.817 21.914-.291 24.07-.56 24.07-2.999 0-1.84-.894-1.918-20.5-1.794-11.275.071-20.5.499-20.5.949m-81.304 2.138c-2.489 1.392-2.067 3.757.869 4.874 3.535 1.344 4.132 1.241 4.666-.801.643-2.458-3.272-5.34-5.535-4.073M29 74c-1.333.862-1.333.969 0 .969.825 0 2.175-.436 3-.969 1.333-.862 1.333-.969 0-.969-.825 0-2.175.436-3 .969m154.671 1.826c-.932.179-1.438.741-1.124 1.25.314.508.121.924-.429.924s-1.278-.45-1.618-1c-.762-1.232-17.468-1.306-19.396-.086-1.922 1.218-.639 4.228 1.46 3.423 1.228-.471 1.536-.154 1.228 1.267-.226 1.043-.947 1.784-1.601 1.646-.655-.137-1.191.169-1.191.68 0 .567-1.269.58-3.25.032-2.989-.825-3.094-.78-1.309.57 1.068.808 2.418 1.5 3 1.538.583.039.159.457-.941.93-1.734.745-1.601.878 1 1s2.734.255 1 1c-1.347.579-1.51.887-.5.945 1.333.076 1.333.195 0 1.07-1.257.825-1.146 1.082.681 1.584 1.387.38 1.977 1.129 1.621 2.057-.308.802-1.227 1.203-2.042.89q-1.478-.564-.946.829c.295.769-.756 2.72-2.335 4.335l-2.872 2.937 1.932 3.177c1.062 1.747 2.415 3.176 3.005 3.176.591 0 .83.395.531.878s.83 1.153 2.508 1.489c1.693.338 2.771 1.059 2.424 1.621-.355.575.409 1.012 1.767 1.012 1.428 0 2.393.587 2.393 1.456 0 .801-.375 1.224-.834.941s-1.286-.235-1.841.108c-1.282.793 1.302 3.495 3.343 3.495q1.478 0 .955 2c-.288 1.1-.921 2-1.407 2-.485 0-.883.45-.883 1s.9 1 2 1 2 .45 2 1 1.012 1.016 2.25 1.035c2.222.035 2.218.054-.25 1.465l-2.5 1.429 3 .051c2.196.037 2.615.294 1.564.959-2.209 1.398.533 4.173 3.577 3.621 1.32-.239 2.159-.045 1.864.432s1.041 1.438 2.969 2.135 3.048 1.55 2.488 1.896c-.559.346 1.353 1.945 4.25 3.553 6.817 3.784 6.788 3.773 6.788 2.531 0-.582-1.687-1.996-3.75-3.142s-2.85-1.766-1.75-1.379 2.754.734 3.677.773c.922.038 1.456.426 1.186.862-.269.436.117 1.026.858 1.31.74.284 1.438 1.62 1.55 2.969l.203 2.451-3.391-1.905c-1.865-1.047-3.66-1.636-3.987-1.308-.328.327-.596.044-.596-.63s-.52-.905-1.155-.513c-.764.473-.88.271-.343-.598.604-.977.26-1.168-1.347-.748-1.187.311-1.92.179-1.628-.292.291-.471-.384-1.345-1.499-1.942s-2.028-.812-2.028-.479-.707-.1-1.571-.965c-.865-.864-2.231-1.571-3.036-1.571-1.217 0-1.256.378-.226 2.25 1.861 3.386 1.815 4.558-.16 4.041-.98-.256-2.084.024-2.453.622-.42.679.382 1.116 2.137 1.163l2.809.076-3.178 1.174c-1.748.646-3.535 1.535-3.97 1.977-.435.441-.063.523.827.182.89-.342 1.92-.133 2.289.463s1.038.857 1.488.579 1.373.165 2.053.984c1.019 1.227.907 1.501-.637 1.559-1.736.065-1.727.129.128.875 1.1.443 2.45.55 3 .238s.341.244-.463 1.235c-.876 1.078-1.612 1.356-1.834.692-.203-.611-1.093-1.11-1.977-1.11-3.321 0 2.201 2.934 5.774 3.068 2.996.112 3.155.228 1.105.802-2.38.666-2.373.688 1.126 3.357 1.937 1.478 3.803 2.406 4.146 2.063s.623-.174.623.376 1.716 2.378 3.812 4.063l3.813 3.064.34-11.147c.487-15.93.163-22.949-1.094-23.726-.749-.463-.665-.869.266-1.281.752-.333.467-.473-.637-.312-1.1.16-1.887.828-1.75 1.482.334 1.591-2.464 1.536-3.015-.059-.245-.706.915-1.723 2.666-2.338l3.099-1.088.275-16.211c.272-16.007.25-16.197-1.75-15.126-1.489.796-2.025.778-2.025-.068 0-.701-1.016-.958-2.593-.656-2.289.437-2.54.215-2.139-1.884.392-2.052.066-2.379-2.375-2.379-2.105 0-2.683-.384-2.255-1.5.37-.963-.02-1.5-1.09-1.5-.916 0-1.388-.45-1.048-1s-.364-1-1.563-1c-1.826 0-1.979-.245-.937-1.5 1.061-1.278.787-1.5-1.852-1.5-2.455 0-3.431.646-4.707 3.115-1.182 2.284-1.907 2.819-2.722 2.004s-.593-1.532.835-2.689c1.07-.868 1.384-1.293.696-.945s-1.25.142-1.25-.457c0-.6.644-1.338 1.432-1.64 1.844-.708 1.599-4.53-.393-6.106-1.128-.893-1.189-1.227-.23-1.25.761-.019 1.008-.555.59-1.282-.396-.687-.346-.911.111-.496.457.414 1.956.015 3.333-.887 1.712-1.121 5.161-1.72 10.922-1.895 4.63-.141 8.918-.755 9.527-1.364 1.226-1.226.671-1.332-7.858-1.505-2.787-.057-5.83.044-6.763.223M87 80.559c0 .857.457 1.276 1.016.931.559-.346.758-1.047.441-1.559C87.6 78.544 87 78.802 87 80.559m43.883.082c-.621.748-1.642 1.359-2.27 1.359-.708 0-1.236 2.376-1.389 6.25-.192 4.855-.005 5.85.839 4.456.733-1.211 1.74-1.586 3.102-1.154 2.489.79 15.005-1.468 14.316-2.583-.275-.444.208-1.516 1.074-2.381.865-.865 1.311-1.995.992-2.511s-.045-1.269.608-1.673c1.87-1.156-2.87-2.513-9.9-2.835-4.334-.199-6.59.13-7.372 1.072m-105.07 1.042c.721.289 1.584.253 1.916-.079s-.258-.568-1.312-.525c-1.165.048-1.402.285-.604.604m-5.647 1.193c-1.057.67-.976.983.393 1.508.95.365 1.963.427 2.251.14.288-.288-.028-.524-.702-.524s-.948-.45-.608-1c.748-1.21.427-1.24-1.334-.124M136 82.929c0 .589-.675 1.071-1.5 1.071-3.527 0-.232 4.818 3.794 5.548 1.901.345 2.306-.017 2.306-2.065 0-1.366-.328-2.483-.729-2.483s-1.435-.707-2.3-1.571c-.864-.865-1.571-1.09-1.571-.5M128.5 86c.34.55.816 1 1.059 1s.441-.45.441-1-.477-1-1.059-1-.781.45-.441 1m-34.167 2.456c0 .801.383 1.22.85.931s.591-.944.274-1.456c-.808-1.308-1.124-1.161-1.124.525m71.81 5.277c-1.024 1.914-.644 3.267.917 3.267 1.193 0 1.814-2.585.955-3.976-.606-.981-1.06-.809-1.872.709M170 94.5c0 .825.177 1.5.393 1.5s.652-.675.969-1.5.139-1.5-.393-1.5c-.533 0-.969.675-.969 1.5m7.667.167c-.367.366-.667 1.131-.667 1.7 0 .626.466.567 1.183-.15.651-.651.951-1.416.667-1.7s-.817-.217-1.183.15M17.813 99.683c.721.289 1.584.253 1.916-.079s-.258-.568-1.312-.525c-1.165.048-1.402.285-.604.604m12.937.979c.688.278 1.813.278 2.5 0 .688-.277.125-.504-1.25-.504s-1.937.227-1.25.504m-16.5 5.027c.963.252 2.538.252 3.5 0 .962-.251.175-.457-1.75-.457s-2.713.206-1.75.457m-7.437 2.994c.721.289 1.584.253 1.916-.079s-.258-.568-1.312-.525c-1.165.048-1.402.285-.604.604m148.073 2.095c.668 1.253 1.672 1.995 2.231 1.65s.874-.711.7-.811-1.178-.843-2.231-1.65c-1.804-1.383-1.844-1.337-.7.811m21.481 1.656c-1.96 2.13 1.585 3.476 5.133 1.948l3-1.292-2.75-.045c-1.512-.025-2.795.518-2.85 1.205s-.392.283-.75-.899c-.505-1.668-.903-1.873-1.783-.917M101 114.941c0 .518.445 1.216.989 1.552.566.35.734-.051.393-.941-.665-1.732-1.382-2.049-1.382-.611m52-.548c0 .216.675.652 1.5.969s1.5.139 1.5-.393c0-.533-.675-.969-1.5-.969s-1.5.177-1.5.393m-5.065 2.028c.968 1.167.808 1.325-.893.88-1.606-.42-1.932-.178-1.45 1.078.342.892 1.249 1.621 2.015 1.621s1.393.45 1.393 1 .506 1 1.125 1c.713 0 .908-1.083.534-2.956-.45-2.247-.264-2.829.776-2.43.753.288 1.637 1.506 1.966 2.705.376 1.368.878 1.771 1.349 1.081.412-.605 1.425-1.357 2.25-1.671 1.161-.442 1.089-.589-.321-.65-1.002-.043-2.497-.754-3.322-1.579s-2.648-1.5-4.051-1.5c-2.091 0-2.338.256-1.371 1.421m-133.852.941c.988.859 8.87 1.371 8.358.543-.307-.498-2.407-.905-4.667-.905s-3.92.163-3.691.362m12.389.593c.297.481-.025 1.08-.716 1.332s.432.426 2.494.387 3.75-.162 3.75-.274-1.365-.68-3.034-1.262-2.791-.664-2.494-.183M171 119c-1.512.484-1.841.84-.832.9.918.055 2.38.373 3.25.707 1.038.398 1.582.055 1.582-1 0-1.753-.287-1.796-4-.607m-64.542.932c.374.605 1.149.811 1.723.456.573-.354 1.477-.024 2.007.734.793 1.133.892 1.111.56-.122-.223-.825-1.432-1.65-2.687-1.834-1.466-.215-2.04.06-1.603.766M157.5 120c-1.63.701-1.688.872-.309.93.93.038 1.969-.38 2.309-.93.711-1.15.676-1.15-2 0m31.106.416c.335.871 1.047 1.584 1.584 1.584 1.315 0 .492-2.273-1.003-2.771-.731-.244-.954.214-.581 1.187M16.5 121c-.34.55-.141 1 .441 1S18 121.55 18 121s-.198-1-.441-1-.719.45-1.059 1m141 1c-1.786.767-1.712.867.691.93 1.48.038 2.969-.38 3.309-.93.738-1.194-1.222-1.194-4 0m-143 2c.34.55 1.465 1 2.5 1s2.16-.45 2.5-1c.362-.585-.676-1-2.5-1s-2.862.415-2.5 1m177.5 1c0 1.253 1.061 1.253 3 0 1.213-.784 1.069-.972-.75-.985-1.238-.008-2.25.435-2.25.985m-176.771 4.502c.118 1.423.999 2.753 2.042 3.084 1.455.462 1.592.875.659 1.998-1.506 1.815-.181 1.796 3.353-.048 1.531-.798 2.516-1.021 2.191-.494s.298.958 1.385.958c1.088 0 2.689.273 3.559.607s1.582.117 1.582-.481-1.125-1.37-2.5-1.715-2.5-1.069-2.5-1.607c0-.544-1.67-.784-3.75-.54-2.062.241-2.962.25-2 .018 2.181-.525 2.288-2.861.168-3.675-3.159-1.212-4.399-.651-4.189 1.895M194.5 132c2.731 1.174 3.5 1.174 3.5 0 0-.55-1.238-.968-2.75-.93-2.437.063-2.522.168-.75.93m-51.5 1.09c0 .566-.562.713-1.25.328s-.506.092.404 1.059c.91.968 2.147 1.455 2.75 1.082 1.541-.952 1.362-2.243-.404-2.921-.825-.316-1.5-.113-1.5.452m27.813.593c.721.289 1.584.253 1.916-.079s-.258-.568-1.312-.525c-1.165.048-1.402.285-.604.604m5.937.979c.688.278 1.813.278 2.5 0 .688-.277.125-.504-1.25-.504s-1.937.227-1.25.504m-158.3 2.233c-1.466 1.38-10.402 2.991-11.023 1.987-.3-.485-.941-.882-1.424-.882-1.187 0-.761 5.316.497 6.214.55.393-.462 1.225-2.25 1.848-2.48.865-3.25 1.717-3.25 3.597 0 2.322.244 2.43 4.25 1.885 2.338-.319 5.825-.763 7.75-.988 1.925-.226 6.792-1.118 10.815-1.983 4.024-.865 8.524-1.625 10-1.689 1.694-.073 2.039-.285.935-.573-2.712-.709-2.064-2.295 1-2.447 2.7-.134 2.705-.145.25-.596-1.375-.253-3.025-.891-3.667-1.417-1.115-.916-4.139-1.49-9.142-1.737-1.27-.063-2.042-.547-1.715-1.076.381-.616 1.505-.616 3.125 0 3.297 1.254 3.399 1.236 3.399-.597 0-.857-.45-1.281-1-.941s-1 .141-1-.441c0-1.284-6.217-1.42-7.55-.164m140.312 2.07c-1.831 2.139-.749 3.628 1.899 2.612 1.334-.512 1.364-.847.202-2.276-1.194-1.468-1.14-1.592.439-1 1.082.406 1.558.281 1.191-.312-.905-1.464-1.854-1.216-3.731.976m-20.762.413c0 .207.787.995 1.75 1.75 1.586 1.243 1.621 1.208.378-.378-1.307-1.666-2.128-2.195-2.128-1.372M23 142c-.901.582-1.025.975-.309.985.655.008 1.469-.435 1.809-.985.767-1.242.421-1.242-1.5 0m111.839 4.689c.882 1.657.885 2.364.009 2.905-.673.416-.888.279-.514-.326.354-.573-.026-1.597-.845-2.277-1.114-.925-1.489-.939-1.489-.054 0 .649-.52.86-1.155.468-.67-.415-.884-.277-.511.327.354.572-.344 1.299-1.552 1.615-1.207.315-1.844.924-1.416 1.352 1.332 1.333 6.568 1.085 7.774-.367.966-1.164 1.48-1.102 3.253.393 2.099 1.769 2.1 1.767.259-.412-1.08-1.278-1.533-2.733-1.09-3.5.417-.722.39-.979-.06-.572s-1.496.183-2.324-.5c-1.308-1.079-1.353-.954-.339.948m51.623 5.114c2.73 2.858 5.184 5.197 5.453 5.197s-1.185-1.716-3.232-3.813-3.377-4.235-2.953-4.75.361-.603-.138-.196c-.499.408-1.624.207-2.5-.447s.641 1.15 3.37 4.009m-54.795-3.136c-1.095 1.094-.76 2 .738 2 .772 0 1.174-.6.893-1.334-.586-1.526-.718-1.58-1.631-.666m14.333.726c0 .216.698.661 1.552.989.89.341 1.291.173.941-.393-.587-.951-2.493-1.406-2.493-.596m36 2.638c0 .533.675.969 1.5.969s1.5-.177 1.5-.393-.675-.652-1.5-.969-1.5-.139-1.5.393m-53.921 2.552c.048 1.165.285 1.402.604.605.289-.722.253-1.585-.079-1.917s-.568.258-.525 1.312m63.922 3.473c0 .305 1.124 2.08 2.499 3.944s2.5 2.921 2.5 2.35-1.124-2.346-2.499-3.944c-1.374-1.599-2.499-2.656-2.5-2.35m-11.093 3.194a26 26 0 0 0-.283 1.786c-.069.571-.8 1.464-1.625 1.985-1.205.762-1.058.951.75.964 2.31.015 3.248 1.964 1 2.078-.687.035-.136.508 1.225 1.052 1.362.543 3.95.789 5.75.546 1.801-.243 3.275-.014 3.275.508s.563.611 1.25.198c.997-.599.999-.441.009.783-.683.844-.946 1.83-.584 2.192.625.625-2.747 1.08-5.425.733-3.115-.405-.75.929 4.199 2.367 6.786 1.973 7.853 3.38 2.277 3.003l-4.226-.285 3.5 1.411 3.5 1.411-3.5-.596c-2.861-.488-3.272-.358-2.25.709 1.878 1.961 1.512 2.775-1 2.225-1.808-.397-1.955-.283-.75.578.825.589 2.261 1.078 3.191 1.087s1.984.488 2.341 1.067c.395.639-.269.971-1.691.845-1.287-.115-3.386-.138-4.662-.053-2.068.139-2.157.321-.816 1.662.828.828 1.791 2.403 2.139 3.5.375 1.182 1.522 2 2.815 2.009 1.332.01 1.729.305 1.018.757-.865.55-.8 1.239.25 2.675.778 1.065 1.415 1.383 1.415.709 0-.903.511-.953 1.934-.191 2.864 1.533 4.066 1.267 4.066-.899 0-1.341-.842-2.061-2.75-2.35l-2.75-.416 2.75-.15L200 195v-19.803l-6.75-5.147c-3.713-2.832-7.112-5.106-7.554-5.055s-1.665-.939-2.717-2.201-1.984-1.956-2.071-1.544m-141.27 8.25c.317.825.753 1.5.969 1.5s.393-.675.393-1.5-.436-1.5-.969-1.5-.709.675-.393 1.5m102.499 9.837c.2.126 1.15.832 2.113 1.568 1.473 1.127 1.75 1.116 1.75-.07 0-.775-.951-1.481-2.113-1.569s-1.95-.056-1.75.071M175 184.5c0 .825.477 1.5 1.059 1.5s.781.45.441 1-.141 1 .441 1 1.059.942 1.059 2.094c0 1.248.803 2.303 1.989 2.613 1.094.286 1.766.88 1.495 1.319-.272.44.725.665 2.214.502 2.315-.254 2.471-.125 1.074.897-1.409 1.03-1.023 1.421 2.803 2.839l4.438 1.645-2.757-3.455c-1.516-1.899-3.656-3.461-4.756-3.469-1.527-.012-1.674-.222-.622-.889 2.208-1.398.23-3.34-2.662-2.614-2.235.561-2.399.444-1.277-.908.708-.854 1.756-1.262 2.329-.908.617.381.74.156.302-.552-.406-.658-1.564-.933-2.574-.613-1.277.406-2.032-.038-2.483-1.459-.751-2.368-2.513-2.748-2.513-.542m-128.077 1.583c-.042.23-.232 1.238-.422 2.241s.125 3.174.701 4.825c.751 2.155.729 3.32-.078 4.127-1.555 1.555-1.405 2.724.35 2.724 1.182 0 1.409-1.293 1.144-6.522-.181-3.588-.619-6.813-.974-7.167-.354-.354-.678-.457-.721-.228m126.41 1.461c0 .801.375 1.456.834 1.456s.833-.423.833-.941-.375-1.173-.833-1.456c-.459-.283-.834.14-.834.941m16.146 3.432c.983 1.087 2.147 1.755 2.586 1.484.438-.271 1.079-.035 1.425.524.345.559 1.614 1.002 2.819.984 2.142-.031 2.147-.065.25-1.5-1.068-.807-2.98-1.468-4.25-1.468s-2.309-.45-2.309-1-.52-1-1.155-1c-.66 0-.388.848.634 1.976M128 193.35c0 .231 1.18 1.193 2.623 2.139s2.318 1.224 1.944.62c-.713-1.154-4.567-3.483-4.567-2.759m41 4.043c0 .216.675.652 1.5.969s1.5.139 1.5-.393c0-.533-.675-.969-1.5-.969s-1.5.177-1.5.393"/><path fill-opacity=".951" fill-rule="evenodd" d="M0 47.5c0 37.325.268 47.503 1.25 47.515.878.011.918.234.135.75-1.05.692-1.242 6.711-.246 7.707.252.253 4.937.703 10.41 1.001s9.389.276 8.701-.049-1.25-1.431-1.25-2.459c0-1.524-1.469-2.183-7.997-3.586-4.398-.945-7.809-1.906-7.579-2.136.229-.23 3.041.102 6.247.738s6.494 1.238 7.307 1.337c1.834.226 2.012-2.359.287-4.149-1.349-1.398-.747-3.585.735-2.669.474.293 1.187.006 1.585-.638.452-.731.291-.903-.43-.457-.635.392-1.155.236-1.155-.346S17.325 89 16.5 89s-1.5-.546-1.5-1.212c0-.667-1.121-2.13-2.49-3.25-1.596-1.306-2.518-3.116-2.566-5.038-.144-5.739 1.232-14.015 2.715-16.33 2.27-3.546 2.701-12.115.719-14.304-1.024-1.132-1.928-4.842-2.461-10.095-.463-4.568-1.524-10.239-2.358-12.603s-1.434-4.606-1.334-4.983-.417-3.758-1.15-7.515C5.054 8.434 4.269 6.665 2.711 6.089.94 5.434.892 5.255 2.34 4.7 4.764 3.77 4.491 0 2 0 .028 0 0 .667 0 47.5M36.817 1.25c4.391 5.166 16.1 16.696 17.912 17.639 2.373 1.234 6.863.58 7.935-1.154.38-.615.161-.745-.534-.315-.649.401-1.115.358-1.036-.096.357-2.059-.219-2.693-1.204-1.324-.918 1.276-.997 1.246-.532-.207.386-1.205-1.279-3.289-5.656-7.08C45.02 1.192 43.029 0 39.155 0c-2.62 0-3.156.287-2.338 1.25m10.683.967c1.65 1.205 6.651 5.719 11.114 10.031 6.748 6.521 8.547 7.762 10.692 7.373 1.447-.262 2.789.047 3.057.706.264.645.515.161.558-1.077.095-2.704.879-2.846 2.766-.5 1.258 1.564 1.338 1.392.755-1.617-.359-1.852-1.658-6.352-2.888-10L71.318.5 57.909.263 44.5.026zM73 1.104c0 2.096 5.249 17.932 6.123 18.472.482.298.877.08.877-.486 0-.565.675-.768 1.5-.452 1.136.436 1.533-.238 1.636-2.781.111-2.728.22-2.889.585-.857.247 1.375.926 2.95 1.51 3.5.738.694.806.541.224-.5-.707-1.263-.587-1.296.756-.208 1.303 1.055 1.689 1.055 2.113 0 .285-.711.554-.111.597 1.333.064 2.112.567 2.625 2.579 2.625 1.571 0 2.5-.565 2.5-1.521 0-1.048.778-.681 2.5 1.176 1.375 1.484 2.5 2.277 2.5 1.763 0-1.435 5.39-2.15 6.232-.827.505.795.747.687.768-.341.027-1.333.138-1.333 1 0s.979 1.333 1.055 0c.062-1.086.284-.997.804.323.535 1.357 1.184.27 2.538-4.25 2.571-8.583 4.741-7.96 3.982 1.144-.213 2.563.064 4.939.617 5.28.607.375 1.004-.925 1.004-3.287C117 13.657 118.303 2 119.147 2c.469 0 .853 6.559.853 14.575v14.576l3.25-.274c1.787-.15 3.813-.689 4.5-1.197.839-.621 1.277-.473 1.332.448.044.754.742-.143 1.55-1.994 1.503-3.446 1.004-5.754-.671-3.105-.655 1.036-.972 1.102-1.071.221-.077-.687-.253-1.7-.39-2.25s-.306-5.95-.375-12L128 0H84.121l-.393 3.75-.392 3.75-.168-3.75L83 0h-5c-2.98 0-5 .446-5 1.104m63.823 5.672c.185 3.861-.362 9.736-1.269 13.649-.877 3.778-1.298 7.14-.937 7.472s.849.066 1.085-.591c.235-.656 1.1-.935 1.922-.62.97.372 1.693-.182 2.058-1.577.413-1.581.892-1.877 1.807-1.118 2.478 2.056 3.432-1.215 2.781-9.53-.343-4.378-.623-9.423-.622-11.211.001-1.791-.516-3.25-1.152-3.25s-1.151.788-1.147 1.75-.111 4.675-.257 8.25c-.222 5.479-.401 6.043-1.134 3.591-.478-1.6-.752-5.312-.609-8.25.209-4.276-.049-5.341-1.294-5.343-1.286-.002-1.499 1.171-1.232 6.778m18.255-3.863c-2.988.323-5.607 1.148-5.834 1.837-.639 1.944 4.844 1.527 9.327-.71 2.161-1.078 3.479-1.905 2.929-1.837s-3.44.387-6.422.71m16.133.482c.709.767 1.634 1.186 2.055.931C174.41 3.633 173.1 2 171.402 2c-1.216 0-1.251.249-.191 1.395M163 3.969c0 .532.675.709 1.5.393.825-.317 1.5-.753 1.5-.969S165.325 3 164.5 3s-1.5.436-1.5.969m-9.187.714c.721.289 1.584.253 1.916-.079s-.258-.568-1.312-.525c-1.165.048-1.402.285-.604.604m-4.393 7.234c-.231.229-.413 1.354-.405 2.5.01 1.292.298 1.64.758.915.417-.654 3.888-1.313 7.898-1.5 5.457-.253 6.917-.619 6.153-1.542-.926-1.117-13.33-1.439-14.404-.373m18.824 25.333c.545 1.662 6.253 2.165 8.484.748 1.412-.896.908-1.008-2.478-.55-2.579.349-4.25.178-4.25-.436 0-.557-.488-1.012-1.083-1.012-.596 0-.899.563-.673 1.25m-3.994 7.845c-1.238.462-2.25 1.332-2.25 1.932s.45.813 1 .473 1-.174 1 .368c0 1.275 5.792.549 7.601-.952.764-.634 2.291-.916 3.394-.628s2.005.066 2.005-.495c0-.584-1.391-.812-3.25-.535-1.787.267-4.15.15-5.25-.259s-3.012-.366-4.25.096m14 7.611c-3.384.652-2.706 2.015.75 1.507 1.65-.242 3-.839 3-1.326s-.338-.826-.75-.751-1.762.331-3 .57m-16.804 1.381c-1.266 2.049 1.286 3.356 4.074 2.086 1.416-.645 3.453-1.173 4.527-1.173S172 54.55 172 54c0-1.358-9.71-1.278-10.554.087m11.675 6.661c-7.32.206-12.051.79-13.261 1.638-1.608 1.125-.533 1.288 7.379 1.117 5.094-.11 9.261-.315 9.261-.456 0-.449 7.829-1.102 13-1.083 3.604.013 4.581-.254 3.5-.958-.825-.536-3.075-.886-5-.777s-8.621.343-14.879.519M71 69c0 .55.477 1 1.059 1s.781-.45.441-1-.816-1-1.059-1-.441.45-.441 1m102.667-.333c-1.215 1.214-.692 2.333 1.083 2.318 1.37-.012 1.454-.203.387-.879-1.151-.729-1.151-.948 0-1.406.75-.298.875-.578.28-.621-.596-.043-1.384.221-1.75.588m-11.262 1.488c-.421.68-.277.884.35.496 1.509-.932 4.364.348 3.585 1.608-.388.628-.166.751.554.306.921-.569.929-1.074.032-2.154-1.418-1.709-3.549-1.83-4.521-.256m15.408-.472c.721.289 1.584.253 1.916-.079s-.258-.568-1.312-.525c-1.165.048-1.402.285-.604.604M138 80.455c0 .772 2.976 1.392 3.399.709.254-.412-.406-.814-1.468-.894s-1.931.003-1.931.185M2.777 105.544c-1.35 1.373.33 2.456 4.032 2.598l3.691.142-4 .608c-3.24.493-4.064 1.061-4.337 2.995-.186 1.313.264 2.768 1 3.235 2.173 1.377 7.512 1.001 11.281-.797 2.732-1.302 3.267-1.968 2.411-3-.605-.729-2.282-1.389-3.727-1.467-1.842-.099-1.454-.324 1.294-.75 5.075-.787 6.047-3.108 1.301-3.108-1.894 0-5.419-.268-7.833-.595-2.415-.328-4.715-.265-5.113.139m-1.203 12.43c.602.602 2.11.635 3.95.086 2.941-.878 2.93-.889-.974-.974-2.563-.056-3.608.256-2.976.888"/></svg>