<svg xmlns="http://www.w3.org/2000/svg" width="200" height="200" fill="#000000"><path fill-opacity=".239" fill-rule="evenodd" d="M90 .997c-1.025.664 1.827.98 9 .995 13.41.029 21.108 1.285 33.262 5.424C146.891 12.398 156.685 18.685 169 31c18.338 18.338 27.293 38.025 28.691 63.075 2.508 44.936-24.828 84.871-67.691 98.892-8.794 2.876-25.116 5.276-32.75 4.816-6.567-.397-8.556.584-3 1.479 4.951.797 21.379-.548 28.25-2.313 11.257-2.892 11.905-3.138 23.75-8.993 4.813-2.379 8.75-4.693 8.75-5.141s.563-.817 1.25-.82c.688-.002 2.963-1.577 5.056-3.5 2.093-1.922 4.065-3.495 4.382-3.495.665 0 5.257-4.896 10.312-10.994 1.925-2.323 4.063-4.817 4.75-5.543s1.25-1.802 1.25-2.392.418-1.071.93-1.071c.511 0 1.974-2.137 3.25-4.75s2.658-4.9 3.07-5.083c.412-.184.75-.977.75-1.764s.397-2.212.883-3.167 1.386-2.974 2-4.486a380 380 0 0 1 2.077-5c.528-1.238 1.685-6.3 2.571-11.25.885-4.95 2.07-9.848 2.632-10.884.749-1.381.665-2.104-.312-2.708-1.063-.657-1.081-1.078-.093-2.066 1.478-1.478 1.677-4.229.242-3.342-1.351.835-1.258-.11.25-2.544 1.024-1.652.99-2.179-.186-2.91-1.22-.759-1.229-1.142-.064-2.546.907-1.093 1.02-1.881.334-2.326-.571-.371-1.821-5.061-2.778-10.422s-2.149-10-2.648-10.309-.908-1.441-.908-2.516-.411-2.736-.913-3.691-2.103-4.211-3.557-7.236c-5.307-11.04-10.289-17.815-20.03-27.241-9.196-8.898-10.62-10.155-12.576-11.099-.783-.377-3.674-2.031-6.424-3.673-8.978-5.364-21.45-10.434-28.5-11.586-1.375-.225-3.85-.644-5.5-.931C110.285.388 91.457.052 90 .997m-4.387 1.186c.289.467.944.591 1.456.274 1.308-.808 1.161-1.124-.525-1.124-.801 0-1.22.383-.931.85m4.254 2.855C43.183 10.217 7.406 48.063 5.295 94.5c-.658 14.474.605 23.551 5.114 36.762 10.82 31.703 37.499 54.921 71.069 61.85 10 2.064 26.998 2.544 28.08.794.372-.602 1.749-.889 3.059-.639 1.311.251 2.383.147 2.383-.229 0-.377 2.643-1.176 5.873-1.777 20.637-3.838 44.073-19.851 56.593-38.667 21.965-33.011 21.656-73.97-.809-107.094-8.598-12.678-24.472-25.676-38.616-31.618-7.609-3.197-25.033-8.106-25.056-7.06-.009.373-.346.169-.75-.452-1.04-1.6-13.346-2.333-22.368-1.332m-18.689 5.433c-20.687 7.257-38.372 20.946-49.716 38.482-5.349 8.268-9.659 17.807-8.398 18.586.515.319.936.117.936-.449 0-.565.603-.796 1.34-.513s1.885-.143 2.552-.947c1.488-1.793 6.942-.54 8.838 2.03 1.006 1.364.854 2.277-.831 5.004C24.765 74.499 24.052 76 24.315 76s2.541-3.31 5.062-7.355c7.118-11.421 14.968-17.776 25.438-20.595 2.368-.638 9.34-1.172 15.495-1.188 7.703-.019 10.567-.319 9.19-.961-1.487-.693-.91-.825 2.25-.512 2.351.233 4.25-.01 4.25-.543 0-.53.47-.674 1.044-.319s2.154-.082 3.51-.971c1.891-1.238 2.935-1.364 4.477-.539 1.106.591 2.451.803 2.99.47.538-.333.979-.128.979.454s.338 1.006.75.941 1.088-.009 1.5.125a34 34 0 0 0 1.5.439c.412.108 1.875.686 3.25 1.284s3.963 1.633 5.75 2.3 3.253 1.496 3.256 1.841c.003.346 2.703.657 6 .692s5.994-.289 5.994-.719.675-.522 1.5-.206 1.5.092 1.5-.5.748-.788 1.664-.437c1.144.439 1.43.261.916-.571-.547-.886.012-1.044 2.086-.589 2.17.475 2.482.371 1.334-.445-1.295-.92-1.261-1.067.25-1.081 1.667-.014 1.667-.103 0-1.856-.963-1.013-2.06-1.679-2.439-1.479-.378.199-1.134-.435-1.679-1.409s-1.36-1.546-1.812-1.271-.962-.737-1.136-2.25c-.182-1.574-.93-2.75-1.75-2.75-.789 0-1.434-.752-1.434-1.671s-.686-2.43-1.525-3.357-1.587-3.324-1.662-5.328c-.081-2.144-.644-3.644-1.368-3.644-.677 0-1.501-.704-1.831-1.563-.33-.86-1.083-1.265-1.674-.9s-1.309-.23-1.595-1.324-2.617-3.028-5.182-4.298-5.38-2.902-6.256-3.626c-1.035-.854-5.937-1.502-14-1.851-11.514-.497-12.934-.351-19.729 2.033m-20.671 2.518c-.35.566.051.734.941.393 1.732-.665 2.049-1.382.611-1.382-.518 0-1.216.445-1.552.989M31.437 27.25 28.5 30.5l3.25-2.937C34.779 24.825 35.46 24 34.687 24c-.172 0-1.635 1.462-3.25 3.25m-9.565 10.5c-1.243 1.586-1.208 1.621.378.378.962-.755 1.75-1.543 1.75-1.75 0-.823-.821-.294-2.128 1.372m-6.413 8.317c-.363.586-.445 1.281-.183 1.543s.743-.218 1.069-1.067c.676-1.762.1-2.072-.886-.476m71.246 4.729c1.312.834 9.192.64 10.08-.248.302-.301-2.114-.541-5.368-.533s-5.375.36-4.712.781m-3.892.887c.721.289 1.584.253 1.916-.079s-.258-.568-1.312-.525c-1.165.048-1.402.285-.604.604M99.5 52c.34.55.816 1 1.059 1s.441-.45.441-1-.477-1-1.059-1-.781.45-.441 1m-23.141 1.923c-3.728 2.273-4.774 3.703-3.351 4.582.573.354.918.087.767-.594s1.525-2.282 3.725-3.558 3.55-2.326 3-2.333-2.413.849-4.141 1.903m41.391-1.261c.688.278 1.813.278 2.5 0 .688-.277.125-.504-1.25-.504s-1.937.227-1.25.504m-28.937 1.021c.721.289 1.584.253 1.916-.079s-.258-.568-1.312-.525c-1.165.048-1.402.285-.604.604m-78.354 1.384c-.363.586-.445 1.281-.183 1.543s.743-.218 1.069-1.067c.676-1.762.1-2.072-.886-.476m84.354-.384c.721.289 1.584.253 1.916-.079s-.258-.568-1.312-.525c-1.165.048-1.402.285-.604.604m9.141 2.403c-.614 1.147-.928 2.274-.697 2.504.23.23.932-.708 1.559-2.086 1.378-3.024.707-3.35-.862-.418m14.125 1.497c.048 1.165.285 1.402.604.605.289-.722.253-1.585-.079-1.917s-.568.258-.525 1.312m-47.455 1.956c-.965 2.514-.681 3.163.498 1.136.584-1.004.851-2.036.593-2.293-.257-.258-.749.263-1.091 1.157m51.534.461c0 1.375.227 1.938.504 1.25.278-.687.278-1.812 0-2.5-.277-.687-.504-.125-.504 1.25m-54.027 5.162c-1.645 2.634-1.097 2.993 1.083.708.942-.988 1.37-2.009.95-2.269-.42-.259-1.335.443-2.033 1.561M115.099 71c-.138 3.025-.79 6.988-1.449 8.807-1.729 4.772-7.124 9.846-12.495 11.752-5.702 2.024-9.258 3.672-8.835 4.094.174.174 3.395-.873 7.157-2.326 11.721-4.53 17.227-12.437 16.266-23.357-.391-4.442-.395-4.435-.644 1.03m8.096-2.5c.02 1.65.244 2.204.498 1.231s.237-2.323-.037-3-.481.119-.461 1.769M4.079 71.583c.048 1.165.285 1.402.604.605.289-.722.253-1.585-.079-1.917s-.568.258-.525 1.312m83.793 2.167c-1.243 1.586-1.208 1.621.378.378C89.916 72.821 90.445 72 89.622 72c-.207 0-.995.787-1.75 1.75m76.587-.683c-.363.586-.445 1.281-.183 1.543s.743-.218 1.069-1.067c.676-1.762.1-2.072-.886-.476m-85.376.216c.23.156 1.291.943 2.359 1.75s1.628.943 1.244.302c-.384-.64-.133-1.392.558-1.671.691-.278-.056-.542-1.661-.585s-2.729.048-2.5.204m13.159.897c-1.06.413-.055.707 2.567.75 2.612.042 4.065.465 3.689 1.073-.345.558.184.88 1.191.727 1.758-.269 2.311-.874 2.311-2.529 0-.962-7.307-.978-9.758-.021M3.079 75.583c.048 1.165.285 1.402.604.605.289-.722.253-1.585-.079-1.917s-.568.258-.525 1.312M106 75.059c0 .582.45.781 1 .441s1-.816 1-1.059-.45-.441-1-.441-1 .477-1 1.059M71.079 76.75c.048 1.056.28 1.252.585.494.279-.691.918-1.002 1.421-.691s.915.088.915-.494S73.325 75 72.5 75s-1.464.787-1.421 1.75m37.896-.395c-2.694.875-3.448 1.617-3.197 3.145.272 1.648.147 1.736-.709.5-.659-.951-1.044-1.057-1.054-.289-.026 2.107-4.286 5.289-7.081 5.289-1.479 0-3.249.675-3.934 1.5s-1.077 1.529-.872 1.564c4.302.737 6.872.505 6.872-.621 0-.729.5-1.634 1.112-2.012 1.3-.804 3.03 1.531 2.168 2.926-.324.524-.068.63.568.237.827-.511.861-1.27.12-2.655-.715-1.335-.716-1.939-.003-1.939.569 0 1.035-.636 1.035-1.413 0-.999.854-1.278 2.919-.953 2.543.401 2.85.197 2.383-1.587-.365-1.395-.055-2.047.974-2.047.831 0 1.769-.675 2.086-1.5s.477-1.453.357-1.395c-.121.058-1.805.62-3.744 1.25m-87.523 3.738c-.88 1.701-1.422 3.27-1.205 3.487s1.143-1.174 2.058-3.093c2.056-4.312 1.344-4.642-.853-.394m15.162.086c-.357 1.787-1.851 4.502-3.319 6.035C31.827 87.746 30.917 89 31.272 89c2.507 0 8.066-9.995 6.455-11.606-.255-.255-.755.998-1.113 2.785m36.415-1.218c-.809.512-1.211 1.191-.893 1.509s1.148-.108 1.844-.946c1.443-1.738 1.166-1.902-.951-.563m9.721-.299c.688.278 1.813.278 2.5 0 .688-.277.125-.504-1.25-.504s-1.937.227-1.25.504M8.302 81.335c-.109 1.191-.694 5.315-1.299 9.165-2.31 14.673 1.174 34.127 8.952 50 5.144 10.497 14.941 23.553 21.993 29.306 3.802 3.103 4.052 3.173 4.052 1.143 0-1.578-.436-1.996-1.611-1.545-1.205.463-1.449.195-.966-1.063.354-.924.292-1.943-.139-2.264-1.32-.981-5.284-8.877-5.284-10.525 0-.854.425-1.552.943-1.552.519 0 1.695-1.272 2.613-2.826 2.136-3.615 9.421-6.513 12.975-5.162 1.382.525 2.469.55 2.469.057 0-.485 1.013-.7 2.25-.478s-.225-.428-3.25-1.445c-9.947-3.344-12.934-4.98-21.443-11.745-7.133-5.672-8.833-7.619-11.173-12.795-3.594-7.952-4.115-15.333-1.785-25.289 2.375-10.152 2.448-9.706-1.594-9.766-2.03-.029-3.55-.575-3.625-1.301-.072-.687-.186-1.775-.255-2.417s-.421-.87-.783-.508-1.149.25-1.75-.249q-1.091-.903-1.29 1.259m25.157-.268c-.363.586-.445 1.281-.183 1.543s.743-.218 1.069-1.067c.676-1.762.1-2.072-.886-.476M66.195 82.5c.02 1.65.244 2.204.498 1.231s.237-2.323-.037-3-.481.119-.461 1.769m54.785.75c-1.009 2.082-.981 2.114.378.428 1.42-1.762 1.483-1.762 1.939 0 .377 1.459.494 1.374.587-.428.064-1.237-.318-2.25-.849-2.25s-1.455 1.013-2.055 2.25m-90.108 2.5c-1.243 1.586-1.208 1.621.378.378.962-.755 1.75-1.543 1.75-1.75 0-.823-.821-.294-2.128 1.372m36.776-.276c-.308.804-.061 1.771.55 2.148.641.397.832.235.45-.382-.363-.588-.117-1.25.547-1.472.848-.282.881-.603.111-1.079-.603-.373-1.349-.02-1.658.785m19.326.215c1.229 2.61-.315 4.103-2.429 2.349-1.031-.856-1.551-.816-2.116.163-.412.715-.393.977.042.584s1.733-.055 2.883.75c2.729 1.912 6.313 1.892 6.313-.035 0-.825-.545-1.5-1.212-1.5s-1.954-1.013-2.862-2.25c-1.622-2.211-1.633-2.212-.619-.061m3.359-.022c0 .733.327 1.333.727 1.333s.956-.6 1.238-1.333c.281-.734-.046-1.334-.727-1.334s-1.238.6-1.238 1.334m-89.254.916c.048 1.165.285 1.402.604.605.289-.722.253-1.585-.079-1.917s-.568.258-.525 1.312m62.734.1c.721.289 1.584.253 1.916-.079s-.258-.568-1.312-.525c-1.165.048-1.402.285-.604.604m6.687 1.506-2 2.07 2.194-1.135c2.31-1.195 3.992-3.166 2.615-3.065-.445.033-1.709.991-2.809 2.13M94 86.383c0 .211.9.619 2 .907 1.1.287 2 .115 2-.384 0-.498-.9-.906-2-.906s-2 .173-2 .383m27.211 1.155c-1.066 1.208-1.022 1.462.25 1.462.846 0 1.539-.675 1.539-1.5 0-1.824-.15-1.82-1.789.038m-48.544 2.129c-.932.932-.832 2.333.166 2.333.459 0 .834-.675.834-1.5 0-1.699-.073-1.76-1-.833m14.602 4.026c.973.254 2.323.237 3-.037s-.119-.481-1.769-.461-2.204.244-1.231.498m27.847.857c-.064 1.127-.564 2.592-1.112 3.254s-.28.58.596-.182 1.376-2.226 1.112-3.254c-.433-1.684-.491-1.666-.596.182m-12.448.872c-.3.783-1.586 1.621-2.857 1.864-2.095.4-2.115.454-.216.578 1.152.075 2.91-.764 3.905-1.864s1.338-2 .762-2-1.294.64-1.594 1.422m65.737.828L166.5 98.5l2.25-1.905c1.238-1.048 2.25-2.06 2.25-2.25 0-.8-.805-.209-2.595 1.905M111 96c-.901.582-1.025.975-.309.985.655.008 1.469-.435 1.809-.985.767-1.242.421-1.242-1.5 0m-21.75 2.716c1.513.229 3.987.229 5.5 0s.275-.416-2.75-.416-4.263.187-2.75.416m82.945 1.784c.02 1.65.244 2.204.498 1.231s.237-2.323-.037-3-.481.119-.461 1.769M95 100l-3.5.737 3.191.131c1.755.073 3.469-.318 3.809-.868s.479-.941.309-.868-1.884.463-3.809.868m-9.75.689c.963.252 2.537.252 3.5 0 .963-.251.175-.457-1.75-.457s-2.713.206-1.75.457m94.314.604c.376.986.935 1.541 1.243 1.233s.001-1.114-.683-1.793c-.988-.98-1.102-.865-.56.56M95.5 103c-1.319.567-1.489.878-.5.914.825.031 2.175-.381 3-.914 1.828-1.181.249-1.181-2.5 0m15.5 5c0 .55.45 1 1 1s1-.45 1-1-.45-1-1-1-1 .45-1 1m-20.187 1.683c.721.289 1.584.253 1.916-.079s-.258-.568-1.312-.525c-1.165.048-1.402.285-.604.604m-5.255 1.223c-.308.498-1.347.788-2.309.644s-1.233-.078-.602.147c1.395.499 2.321 3.686 2.339 8.053.016 3.621 1.08 4.129 3.142 1.5 1.243-1.586 1.208-1.621-.378-.378-2.17 1.702-2.27.316-.192-2.651.857-1.224 1.237-2.743.845-3.377-.391-.634-.283-.888.242-.563.525.324 1.47-.235 2.1-1.244.962-1.54.795-1.926-1.05-2.421-2.978-.799-3.486-.763-4.137.29m-13.745.777c.721.289 1.584.253 1.916-.079s-.258-.568-1.312-.525c-1.165.048-1.402.285-.604.604m-70.734 1.9c.048 1.165.285 1.402.604.605.289-.722.253-1.585-.079-1.917s-.568.258-.525 1.312m66.734-.9c.721.289 1.584.253 1.916-.079s-.258-.568-1.312-.525c-1.165.048-1.402.285-.604.604m32.937-.021c.688.278 1.813.278 2.5 0 .688-.277.125-.504-1.25-.504s-1.937.227-1.25.504m-10.118 3.588-1.799 3.25 2.061-2.5c1.828-2.217 2.64-4 1.822-4-.157 0-1.094 1.463-2.084 3.25m9.035-1.583c-.958.958-.823 5.119.187 5.743.825.51 3.146-3.516 3.146-5.457 0-1.088-2.332-1.288-3.333-.286m2.796 5.583c-1.542 2.338-2.164 3.722-1.383 3.077 1.502-1.241 5.331-7.327 4.609-7.327-.233 0-1.685 1.912-3.226 4.25m8.287-3.588c.688.278 1.813.278 2.5 0 .688-.277.125-.504-1.25-.504s-1.937.227-1.25.504m23.012.045c1.244.239 3.044.23 4-.02s-.062-.446-2.262-.435-2.982.216-1.738.455M55 118c-.825.533-1.05.969-.5.969s1.675-.436 2.5-.969 1.05-.969.5-.969-1.675.436-2.5.969m61.813-.317c.721.289 1.584.253 1.916-.079s-.258-.568-1.312-.525c-1.165.048-1.402.285-.604.604m57.73.248c-.317.512-.118 1.213.441 1.559s1.016-.074 1.016-.931c0-1.757-.6-2.015-1.457-.628m2.277 1.319c-.176 1.237-.77 2.176-1.32 2.085-1.698-.28-3.621 1.907-3.031 3.446.408 1.062.022 1.319-1.417.943-1.891-.495-3.88.842-3.884 2.609-.001.459-.336 1.134-.745 1.5s-.42.105-.024-.583.28-1.25-.257-1.25c-.536 0-1.142.501-1.347 1.114-.204.613-1.695 1.26-3.312 1.437-1.618.178-3.101.804-3.297 1.392s-.768.815-1.271.504-.915-.058-.915.561c0 .672-.808.87-2 .492-1.1-.349-2-.245-2 .232 0 .476-1.575 1.436-3.5 2.132-3.692 1.335-4.919 3.32-1.5 2.426 1.1-.288 2-.846 2-1.24s.666-.717 1.48-.717c3.394 0 9.521-2.726 9.535-4.243.012-1.193.217-1.272.824-.317.627.989 2.081.71 6.516-1.251 3.14-1.389 5.968-3.199 6.284-4.024.316-.824 1.111-1.498 1.767-1.498 1.017 0 3.594-5.25 3.594-7.321 0-1.775-1.9-.406-2.18 1.571m-52.058-.543c1.244.239 3.044.23 4-.02s-.062-.446-2.262-.435-2.982.216-1.738.455m7.338 1.543c.055 1.237.431 3.375.836 4.75.718 2.437.779 2.402 2.4-1.372 2.194-5.106 2.116-5.628-.836-5.628-1.955 0-2.478.49-2.4 2.25m18.687.75c.242 1.65.602 3 .801 3 .198 0 1.059-1.35 1.912-3 1.511-2.923 1.491-3-.801-3-2.045 0-2.295.392-1.912 3m19.945-.915c.415 1.584.748 1.764 1.391.75 1.232-1.944 1.066-2.835-.529-2.835-.933 0-1.223.702-.862 2.085m-27.982-.379c1.238.238 3.262.238 4.5 0 1.238-.239.225-.434-2.25-.434s-3.488.195-2.25.434m21.012.001c1.244.239 3.044.23 4-.02s-.062-.446-2.262-.435-2.982.216-1.738.455m-26.138 1.832c-.965 2.514-.681 3.163.498 1.136.584-1.004.851-2.036.593-2.293-.257-.258-.749.263-1.091 1.157m17 0c-.965 2.514-.681 3.163.498 1.136.584-1.004.851-2.036.593-2.293-.257-.258-.749.263-1.091 1.157M4.079 127.583c.048 1.165.285 1.402.604.605.289-.722.253-1.585-.079-1.917s-.568.258-.525 1.312M80 143.212c-3.025.537-5.95 1.449-6.5 2.028-.681.718-.601.828.25.348.798-.451 1.256-.052 1.265 1.103.013 1.537.164 1.583 1 .309.618-.941 1.264-1.127 1.735-.5.412.55 2.33 1.095 4.261 1.21 1.931.116 5.466.9 7.856 1.743s4.748 1.285 5.239.981c.492-.304.894-.027.894.614s.67.909 1.49.594c1.016-.39 1.717.291 2.206 2.143l.716 2.715.676-3 .675-3 .119 2.75c.12 2.804 2.118 3.982 2.118 1.25 0-2.435 1.994-1.711 2.063.75.062 2.196.09 2.19 1.174-.25 1.096-2.469 1.115-2.472 1.502-.283.487 2.757 6.924 4.424 8.355 2.165.685-1.082.879-1.098.891-.073.008.72.465 1.031 1.015.691s1-2.152 1-4.028c0-2.62.347-3.276 1.5-2.834.826.317 1.5.03 1.5-.638s.674-.955 1.5-.638c.825.316 1.5.113 1.5-.452s.451-.749 1.002-.409c.887.549 3.517-4.316 2.748-5.084-.168-.169-2.094.108-4.278.614-5.929 1.375-21.093 1.092-28.472-.531-7.373-1.622-9.29-1.654-17-.288m-55 22.166c0 .207.788.995 1.75 1.75 1.586 1.243 1.621 1.208.378-.378-1.307-1.666-2.128-2.195-2.128-1.372M45 173c0 .55.477 1 1.059 1s.781-.45.441-1-.816-1-1.059-1-.441.45-.441 1m10.733 16.124c.679.684 1.486.991 1.793.683.308-.308-.247-.867-1.233-1.243-1.425-.542-1.54-.428-.56.56m4 2c.679.684 1.486.991 1.793.683.308-.308-.247-.867-1.233-1.243-1.425-.542-1.54-.428-.56.56m16.08 5.559c.721.289 1.584.253 1.916-.079s-.258-.568-1.312-.525c-1.165.048-1.402.285-.604.604M81 197c-.901.582-1.025.975-.309.985.655.008 1.469-.435 1.809-.985.767-1.242.421-1.242-1.5 0m5.5 1.005c-1.746.754-1.66.845.678.717 1.473-.08 2.459-.501 2.191-.934s-.573-.756-.678-.718-1.091.459-2.191.935"/><path fill-opacity=".078" fill-rule="evenodd" d="M92 .984c.825.542 5.1.996 9.5 1.008 43.384.124 82.442 30.937 93.627 73.862 2.631 10.094 3.526 27.786 1.914 37.842-3.534 22.061-12.704 40.209-27.954 55.323-16.916 16.765-37.931 26.378-62.382 28.536-4.287.379-7.552.932-7.254 1.229 1.474 1.475 24.495-1.69 31.049-4.269 15.026-5.911 27.83-12.907 31.947-17.456 1.025-1.133 2.288-2.059 2.807-2.059 1.211 0 5.357-4.452 11.959-12.842 2.882-3.662 5.53-6.883 5.885-7.158 1.66-1.286 11.046-22.319 12.941-29 2.375-8.374 4.035-33.121 2.661-39.68-2.435-11.624-4.182-17.719-7.399-25.82-1.967-4.95-3.852-9.225-4.191-9.5-.637-.517-8.361-11.947-8.932-13.217-.277-.614-3.438-3.708-17.869-17.488-1.27-1.212-2.309-2.005-2.309-1.762s-2.501-1.158-5.558-3.113C142.624 9.139 126.266 2.789 116.5 1.468 108.704.412 90.585.055 92 .984M90.877 5.01c-17.742 1.699-30.986 6.734-46.695 17.755-3.475 2.438-6.073 4.677-5.774 4.976.298.299 3.816-1.713 7.817-4.47 9.075-6.252 15.558-9.541 25.167-12.767 12.454-4.18 32.482-4.002 41.674.371C118.672 13.542 126 20.021 126 22.31c0 .929.552 1.577 1.226 1.44.675-.138 1.385.79 1.578 2.061s.991 2.557 1.774 2.857c.782.3 1.422 1.6 1.422 2.889 0 4.579 9.436 15.862 15.623 18.681 2.81 1.281 3.061 2.473.627 2.979-1.436.299-1.353.473.466.971 1.219.334 2.178.316 2.131-.041-.236-1.814.446-1.923 3.653-.583 2.717 1.136 3.503 1.18 3.515.199.012-.96.198-.976.777-.066.502.79 1.263.88 2.234.266.811-.513 2.486-.939 3.724-.948 1.238-.008 2.25-.465 2.25-1.015s.477-1 1.059-1 .738.52.346 1.155c-.443.715-.275.883.44.44.635-.392 1.187-1.474 1.225-2.404.058-1.379.229-1.321.93.309.473 1.1.891 1.411.93.691.038-.72.483-1.054.989-.741.984.608 2.228-3.927 1.785-6.515-.838-4.907-17.141-19.731-28.949-26.324-9.799-5.47-31.063-11.887-38.985-11.765-.952.015-1.991-.395-2.309-.91-.633-1.024-2.21-1.015-13.584.074M29.805 35.584C14.875 51.481 6.344 72.158 5.288 95c-.644 13.946.663 23.202 5.121 36.262 10.052 29.452 34.697 52.354 64.743 60.163 16.446 4.275 23.504 4.263 44.598-.072 6.155-1.264 7.25-1.799 7.25-3.538 0-1.684-.478-1.957-2.691-1.534-1.498.287-3.658-.119-4.87-.913-1.199-.786-3.587-1.527-5.307-1.648s-3.129-.61-3.13-1.087c-.001-.476-.902-.631-2.002-.343-1.1.287-2 .213-2-.166 0-.378-1.237-.787-2.75-.908s-3.244-.888-3.849-1.703c-.604-.815-1.381-1.2-1.726-.855s-1.399 0-2.343-.765c-1.105-.898-1.451-.952-.972-.154.505.84.247 1.047-.802.645-.851-.327-1.238-1.109-.86-1.739.377-.63-.075-.527-1.006.227-.988.802-1.692.934-1.692.317 0-.59-1.14-.85-2.58-.589-1.819.33-2.363.118-1.846-.72.458-.741.308-.925-.399-.488-.623.385-1.974.251-3.001-.299-1.307-.699-2.258-.638-3.168.204-1.017.941-1.146.931-.594-.047.433-.767.104-1.25-.853-1.25-.857 0-2.538-.979-3.734-2.175-1.734-1.734-2.292-1.886-2.75-.75-.347.858-1.966 1.417-4.075 1.406-1.925-.011-3.735.299-4.021.689s-1.785.937-3.33 1.217c-2.365.429-2.618.281-1.606-.939.827-.996.858-1.448.098-1.448-.606 0-1.384 1.122-1.729 2.493-.347 1.386-1.091 2.206-1.673 1.846-.583-.361-.754-.172-.384.426.365.591-.052 1.789-.925 2.662-1.452 1.452-2.115 1.222-7.681-2.669-28.145-19.671-43.696-53.839-39.756-87.352 2.17-18.458 10.111-36.762 21.847-50.357 2.634-3.052 5.125-6.111 5.534-6.799 1.485-2.495-.356-1.152-4.569 3.334M88.25 44.96c-2.338 1.068-4.25 1.514-4.25.991S83.275 45 82.389 45c-1.227 0-1.048.469.75 1.967l2.361 1.966-2.25.184-3.5.283c-.687.055-1.563.537-1.946 1.071-.382.534-1.024.642-1.427.24-.402-.403.136-1.423 1.196-2.268 1.754-1.397.803-1.503-10.573-1.177-13.556.389-18.194 1.73-25.657 7.42-4.873 3.716-11.527 12.207-10.662 13.607.496.803.79.793 1.067-.036.21-.63 1.14-.861 2.067-.514 1.489.558 1.52.428.266-1.112-.781-.959-1.006-1.665-.5-1.569 2.241.426 3.313-.176 2.781-1.562-.37-.963.02-1.5 1.09-1.5 1.004 0 1.414.497 1.033 1.25-.348.688.012.462.801-.5C40.92 60.756 43 60.43 43 62.167c0 .641.261.905.581.585.32-.319.084-1.509-.523-2.644-.933-1.743-.85-1.965.534-1.434 1.29.495 1.501.195.994-1.404-.645-2.03 1.619-3.88 3.399-2.779.443.274 1.043-.123 1.334-.881.328-.855 1.721-1.277 3.667-1.111 2.505.213 3.016-.051 2.533-1.31-.479-1.248-.178-1.191 1.438.272 1.144 1.036 2.043 1.341 2.043.694 0-.635.498-1.155 1.107-1.155s.844.685.522 1.523c-.483 1.259-.226 1.332 1.479.419 1.135-.607 1.804-1.364 1.486-1.681-.872-.872 1.494-3.325 2.568-2.661.55.34.445 1.168-.255 2.012-.96 1.156-.887 1.318.374.834.861-.331 1.821-1.269 2.135-2.087.876-2.285 2.469-.653 1.845 1.892-.543 2.218-.521 2.215 1.65-.219 1.754-1.966 2.375-2.187 3.055-1.087.592.958-.265 2.476-2.807 4.968-2.012 1.973-3.816 4.483-4.008 5.579-.193 1.095-.986 3.223-1.764 4.727-1.269 2.453-1.207 3.125.599 6.494 1.108 2.066 2.016 4.439 2.019 5.272.008 2.231 4.119 8.574 6.995 10.79 4.121 3.177 6.814 4.3 12.543 5.232 7.27 1.183 13.787-.785 19.631-5.929 6.88-6.056 8.885-16.121 4.806-24.118-1.112-2.178-1.674-3.967-1.25-3.975s.31-.346-.253-.75c-1.549-1.112-4.956-6.622-4.675-7.559.136-.454-.166-.569-.671-.257s-2.823-.105-5.15-.926-6.763-1.5-9.857-1.508c-3.809-.011-5.155-.312-4.172-.934.799-.506 1.881-.654 2.405-.331.56.347.623.012.151-.815-.601-1.054-.502-1.13.397-.304 1.49 1.371 6.315.559 5.804-.976-.611-1.834-2.942-1.729-7.459.335m9.083.496c0 .801.375 1.224.834.941s.833-.11.833.385 2.451 1.448 5.446 2.118c4.025.901 5.302 1.593 4.896 2.651-.314.82.218 1.727 1.244 2.12 1.069.411 1.959.195 2.201-.533.29-.87.773-.918 1.678-.167.921.764 1.65.587 2.652-.646 1.215-1.493 1.17-1.62-.367-1.044-.963.361-1.75.295-1.75-.146s-.562-.838-1.25-.882-4.559-1.469-8.604-3.167c-8.612-3.614-7.813-3.447-7.813-1.63M80 48.059c0 .582.45.781 1 .441s1-.816 1-1.059S81.55 47 81 47s-1 .477-1 1.059M137 48c.825.533 1.95.969 2.5.969s.325-.436-.5-.969-1.95-.969-2.5-.969-.325.436.5.969m-6.436 2.104c.385.622-6.618 2.757-10.218 3.115-.634.063-1.008 1.052-.83 2.198C121.472 68.035 122.462 72 123.66 72c.737 0 1.34-.477 1.34-1.059s-.45-.781-1-.441c-.588.364-1.01-.745-1.024-2.691-.013-1.82-.416-4.996-.895-7.059-.538-2.321-.507-3.75.083-3.75.525 0 .671-.457.326-1.016s-1.117-.715-1.714-.346c-.663.41-.796.203-.341-.532.515-.834 1.122-.889 1.976-.18.679.563 2.664.843 4.411.622 1.748-.221 3.178.041 3.178.584s.563.648 1.25.235c.952-.572.943-.372-.037.838-1.114 1.375-.946 1.568 1.25 1.441C134.816 58.511 136.226 57 134 57c-.55 0-.993-.788-.985-1.75.013-1.496.157-1.532.985-.25.716 1.108.973 1.155.985.179.011-1.001.391-.946 1.561.225.904.903 2.764 1.404 4.476 1.205 2.166-.252 3.082.145 3.521 1.525.881 2.778 6.457 2.138 6.457-.741 0-1.882-.985-1.753-2.714.357-1.334 1.628-1.402 1.598-.973-.425.301-1.424.043-2.015-.748-1.712-.665.256-1.729-.678-2.365-2.074-.637-1.397-1.729-2.573-2.429-2.616-.699-.042-2.171-.269-3.271-.505-3.984-.854-8.377-1.028-7.936-.314m-49.006 1.322c-5.062 1.888-8.743 4.64-10.262 7.671q-6.076 12.121-3.401 10.468c.493-.305 1.148.105 1.457.909.635 1.655 6.645 4.423 11.148 5.134 12.728 2.011 19.85 1.922 26.65-.334 5.068-1.681 5.356-1.958 5.457-5.274.109-3.571-3.309-12-4.865-12-.473 0-.6-.421-.282-.935.317-.514-.99-2.13-2.907-3.592-2.907-2.218-4.771-2.729-11.268-3.087-5.338-.295-9.024.032-11.727 1.04m4.109 1.241c-1.335 1.334-.626 2.544.798 1.362 1.527-1.267 8.606-.62 11.535 1.053 1.147.656.912.882-1 .964-2 .086-1.7.361 1.5 1.372 4.164 1.316 6.14.692 5.24-1.654-.91-2.371-16.182-4.988-18.073-3.097m51.726.915c.334.87.607 1.77.607 2s.505.418 1.122.418c.776 0 .738-.464-.122-1.5-1.666-2.008-.562-1.919 1.476.119 1.977 1.977 3.31 1.032 1.544-1.095-1.736-2.092-5.434-2.046-4.627.058M80 54.441c0 .793.354 1.659.786 1.927.432.267.785-.382.785-1.441S81.218 53 80.786 53 80 53.648 80 54.441m7.446.646c-.369.598-1.513.867-2.542.598-1.532-.401-1.697-.167-.914 1.296.525.981 1.548 2.012 2.274 2.29 1.621.622 5.23-1.848 3.901-2.669-.526-.325-1.211.074-1.522.887-.335.873-1.225 1.225-2.175.86-1.309-.502-1.082-.964 1.212-2.476 1.551-1.023 2.284-1.863 1.629-1.866s-1.493.482-1.863 1.08M73.872 56.75c-1.243 1.586-1.208 1.621.378.378C75.916 55.821 76.445 55 75.622 55c-.207 0-.995.788-1.75 1.75m42.198-1.059c.039.445.457 1.709.93 2.809.829 1.928.862 1.921.93-.191.038-1.205-.38-2.469-.93-2.809s-.968-.254-.93.191m39.442.553c-.397.96-1.237 1.456-1.867 1.104-.692-.388-.65-.108.105.705 1.497 1.613 3.772-.078 2.979-2.216-.368-.991-.682-.886-1.217.407m-102.262.787c-3.463 1.392-2.665 2.005 1 .769 1.788-.604 3.438-1.255 3.667-1.448.813-.687-2.452-.211-4.667.679m104.782-.281c.054 1.269 2.968 4.706 2.968 3.5 0-.623-.457-1.415-1.016-1.76-.559-.346-.758-1.047-.441-1.559.316-.512.098-.931-.484-.931s-1.045.337-1.027.75M165 57.909c.825.583 1.107 1.067.628 1.076-.48.008-.255.776.5 1.707.901 1.111.948 1.437.137.95-.912-.548-1.083.02-.653 2.17.806 4.03-2.151 9.816-4.163 8.145-.785-.651-1.173-1.594-.864-2.095s-.032-.788-.761-.637c-.728.151-1.2-.321-1.049-1.049.151-.729-.139-1.069-.645-.756s-1.193-.141-1.525-1.008c-.86-2.24-.758-2.624.495-1.85.773.477.762.049-.035-1.441-1.33-2.484-2.278-2.84-1.389-.522.534 1.391.341 1.429-1.486.288-1.154-.721-2.453-.957-2.886-.524s-.004 1.226.954 1.762S154 65.579 154 66.165c0 .604-1.068.365-2.47-.553-2.103-1.379-2.384-1.396-1.893-.115.381.993-.053 1.53-1.28 1.582-1.418.06-1.503.214-.357.65.825.314 1.81 1.048 2.189 1.631.452.695 1.349.463 2.607-.675 1.531-1.386 2.131-1.478 2.976-.46.582.701 1.096 1.725 1.143 2.275s.493 1 .991 1c1.816 0 8.208 7.506 7.457 8.757-.58.965-.398.961.812-.019 1.262-1.022 1.774-1.004 2.684.092.618.745.838 1.639.49 1.988-.349.348-.108 1.267.534 2.041.908 1.094.843 1.532-.293 1.968-.803.308-1.679.023-1.946-.633-.268-.657-.522-.181-.565 1.056-.109 3.108-1.594 2.839-1.857-.337-.279-3.37-3.782-8.002-4.546-6.011-.311.811.216 1.598 1.252 1.869 2.019.528 3.186 4.774 1.929 7.021-.589 1.051-.252 1.633 1.158 2.002 1.093.286 1.75.134 1.458-.337-.291-.471.438-1.374 1.62-2.007 1.288-.689 1.893-.737 1.511-.119-.35.567-.108 1.357.537 1.756.81.501 1.002.068.62-1.394-.315-1.205.043-2.616.831-3.27.762-.632 1.096-1.618.742-2.191-.376-.61-.158-.741.528-.317.644.398.943 1.091.666 1.54-.278.45.384 1.05 1.471 1.335 2.223.581 4.362 5.223 3.654 7.93-.256.979-.133 1.78.274 1.78.845 0 .884.206 1.684 9.014.496 5.454.291 6.862-1.26 8.657-2.377 2.751-11.351 4.285-11.351 1.94 0-.831.787-2.018 1.75-2.637 1.667-1.071 1.667-1.099 0-.581-1.162.361-1.75.009-1.75-1.049 0-1.233.671-1.46 2.961-1.002 3.729.746 4.433-.359 2.54-3.988-.819-1.57-1.491-4.268-1.495-5.997-.01-5.311-2.745-5.04-4.354.432-1.19 4.046-1.186 4.758.029 5.044.778.182 2.068-.21 2.867-.873 1.171-.972 1.452-.88 1.452.477 0 .924-.461 1.396-1.025 1.048-.563-.349-.901-.094-.75.566s-.35 1.426-1.114 1.704c-.844.306-1.118.066-.698-.614.429-.695.142-.907-.76-.561-.798.306-1.736.095-2.084-.468-.658-1.064-3.148-.515-5.331 1.176-.95.735-.981 1.316-.128 2.345.847 1.021.845 1.367-.009 1.367-.629 0-2.822 1.101-4.872 2.447-2.051 1.346-6.076 2.752-8.946 3.124-5.029.654-5.2.597-4.781-1.582.239-1.243.112-1.936-.283-1.541-.396.395-.719 1.244-.719 1.885 0 .642-.562 1.122-1.25 1.067s-5.327-.167-10.309-.25-8.821-.535-8.53-1.006c.291-.47-.472-.664-1.694-.43-1.222.233-3.571-.094-5.22-.728-1.648-.633-5.88-1.342-9.404-1.574s-7.799-1.144-9.5-2.026c-6.892-3.574-26.169-2.194-35.442 2.537-2.239 1.142-4.941 2.077-6.004 2.077s-2.192.675-2.509 1.5c-.913 2.381 1.817 1.817 10.178-2.103 6.512-3.054 9.209-3.719 17.684-4.357 13.749-1.037 14.329-.739 10.465 5.354-1.687 2.66-2.859 5.045-2.604 5.3s1.67-1.597 3.146-4.115S92.785 113 93.513 113c3.474 0 4.487 1.266 4.487 5.607 0 5.409 1.941 5.853 4.753 1.088 1.746-2.96 2.463-3.328 6.848-3.519 3.099-.135 4.409.11 3.565.666-1.071.707-1.012 1.003.302 1.507 1.079.414 1.395.238.928-.518-.515-.833.602-.966 4.087-.488 2.638.361 6.475.657 8.527.657 3.983 0 3.906-.157 5.193 10.583.072.596.73 1.084 1.464 1.084.733 0 1.128-.205.878-.455-.25-.251.657-2.651 2.017-5.334 2.46-4.854 2.496-4.878 7.455-4.878 4.897 0 5.671.644 5.101 4.25-.065.412.318.75.851.75s.686.787.34 1.75c-.345.963-.26 1.416.19 1.009.449-.408 1.533-.183 2.409.5 1.409 1.098 1.434 1.039.22-.509-.755-.963-.966-1.75-.47-1.75.497 0 1.413-1.35 2.036-3 1.098-2.908 1.331-3 7.612-3 5.001 0 6.619.363 7.09 1.59.336.875.383 1.958.106 2.407-.278.449.368.588 1.434.31 1.066-.279 2.472-1.925 3.124-3.657l1.185-3.15.778 2.5c.722 2.321.785 2.343.877.309.126-2.773 2.1-4.12 2.1-1.433 0 6.518-5.156 10.589-20.738 16.375-11.203 4.16-32.53 9.115-33.077 7.684-.173-.452-1.073-.539-2-.192-1.362.511-1.462.356-.524-.806.639-.79.94-2.593.668-4.006-.436-2.27-.948-2.552-4.405-2.423-4.387.164-5.81.938-3.415 1.857.924.355 1.338.196.984-.376-.336-.544-.134-.989.448-.989s1.059.505 1.059 1.122c0 .8.411.782 1.43-.064 2.242-1.86 3.869 1.902 2.286 5.285-1.053 2.251-1.734 2.554-5.078 2.256-2.124-.189-4.199-.889-4.611-1.555-.569-.921-.874-.885-1.271.151-.626 1.63-6.356 2.261-7.259.8-.35-.565-1.065-.762-1.59-.437-1.233.762-7.06-.502-6.499-1.409.234-.379-3.474-.386-8.241-.015s-9.004.466-9.417.211c-.412-.255-.75.066-.75.713 0 .683-.837.956-1.999.653-1.099-.288-2.251-.115-2.559.383s-2.896.902-5.751.897c-7.48-.012-15.722-1.132-15.149-2.058.27-.437.033-1.077-.526-1.423-.559-.345-1.016-.151-1.016.431S49.523 142 48.941 142s-.837-.359-.566-.798.08-1.451-.426-2.25c-.63-.996-.923-1.06-.934-.202-.008.688-.492 1.25-1.074 1.25s-.773-.462-.424-1.028c.407-.658-.471-.832-2.446-.485-1.695.299-3.026.199-2.958-.222.303-1.873-.319-5.646-.754-4.578-.657 1.613-4.359-1.566-4.359-3.743 0-2.143-.89-2.923-2.592-2.27-.768.294-1.108 1.051-.755 1.681s-.424.045-1.726-1.299-2.459-3.07-2.571-3.834-1.025-2.013-2.03-2.774c-1.367-1.036-1.463-1.392-.385-1.416 1.036-.023.9-.428-.487-1.442-1.901-1.39-1.9-1.441.059-3.654l1.987-2.246-2.502 1.608c-2.491 1.6-2.502 1.592-2.588-1.804-.059-2.321.421-3.546 1.502-3.836 1.316-.353 1.288-.446-.162-.542-.962-.064-1.806-.791-1.875-1.616-.287-3.447-.523-3.988-1.634-3.762-.669.136-.92-.411-.587-1.279.501-1.305.764-1.269 1.876.251.711.972 1.035 2.223.721 2.779s-.176.65.308.208c1.256-1.146 1.324-7.697.08-7.697-.643 0-.592-.447.134-1.173.845-.845 1.812-.881 3.46-.131 1.72.784 2.605.703 3.567-.327.741-.793.842-1.369.239-1.369-.571 0-1.039-.649-1.039-1.443 0-.901-.746-1.299-1.988-1.059-1.531.295-2.406-.576-3.805-3.783l-1.817-4.167-1.896 6.476c-1.213 4.143-1.891 9.538-1.883 14.976.012 7.329.418 9.345 2.951 14.635 2.412 5.037 4.43 7.338 11.271 12.854 4.651 3.75 11.059 7.833 14.5 9.241 8.401 3.435 19.999 4.065 33.405 1.814 9.391-1.577 10.763-1.587 17.825-.126 9.42 1.948 22.795 1.983 31.437.082 3.575-.786 6.838-1.446 7.25-1.465s.75 1.963.75 4.406.45 4.719 1 5.059.968 1.379.93 2.309c-.058 1.379-.229 1.321-.93-.309-.702-1.634-.869-1.36-.914 1.5-.041 2.612.19 3.12.914 2 .774-1.198.996-.997 1.1 1 .072 1.375.235 2.95.363 3.5s.308 2.575.4 4.5c.127 2.658.401 3.139 1.137 2 .862-1.333.973-1.333 1 0s.138 1.333 1 0c.533-.825 1.015-1.05 1.071-.5l.434 4.196c.196 1.897-.245 3.673-1.087 4.372-.78.647-1.418 2.031-1.418 3.074 0 1.482.552 1.797 2.52 1.44 1.555-.282 2.279-.066 1.89.563-1.046 1.693 4.797-1.698 11.132-6.46 17.225-12.949 29.18-31.367 34.669-53.411 3.055-12.271 3.051-30.294-.011-42.593-1.977-7.94-3.812-11.681-5.731-11.681-.371 0-.481 2.22-.245 4.934.574 6.591-.495 8.364-4.558 7.566-2.081-.408-2.706-.304-1.824.305.999.69.617 1.065-1.498 1.469-1.561.299-3.127.077-3.48-.493-.352-.571-1.169-.71-1.815-.311-1.609.994-4.997-2.258-4.487-4.308.227-.914.92-3.696 1.541-6.182.968-3.877.863-5.077-.737-8.428-1.026-2.149-2.541-4.087-3.366-4.306-1.333-.354-1.333-.28 0 .663M37.473 59.044c-.325.526.336.956 1.468.956 2.415 0 2.658-.556.591-1.349-.807-.31-1.734-.133-2.059.393m55.735.434c.161 1.087-.158 2.026-.708 2.086-2.093.228-4.367 1.647-4.911 3.065-.318.829-.133 1.207.422.864 1.291-.797 1.252.121-.119 2.823-1.007 1.983-.881 1.954 1.371-.316 2.388-2.408 2.745-4.741.513-3.362-.669.414-.795.202-.329-.552.415-.672 1.385-.981 2.154-.686.77.296 1.413-.011 1.431-.681.017-.671.678-.365 1.468.678s1.218 2.25.952 2.681c-.267.431.044 1.11.689 1.509.813.502 1 .062.61-1.431C96.308 64.46 96.629 64 98.26 64c1.14 0 1.749-.324 1.353-.72s-1.59-.733-2.653-.75c-1.064-.016-1.911-.48-1.882-1.03s.665-.876 1.412-.723c.748.152 1.597-.109 1.888-.58s-.462-.776-1.674-.678-2.56-.316-2.996-.921c-.471-.653-.673-.297-.5.88M136 58.8c0 .66.45 1.2 1 1.2s1 .477 1 1.059-.45.781-1 .441-1-.141-1 .441c0 1.439.646 1.337 3.535-.556 1.514-.992 2.465-1.185 2.465-.5 0 .613.436 1.115.969 1.115 1.416 0 .129-2.748-1.598-3.411-.829-.318-1.207-.133-.864.422.868 1.405-1.866 1.23-3.307-.211-.933-.933-1.2-.933-1.2 0m-54.387 1.383c.289.467.944.591 1.456.274 1.308-.808 1.161-1.124-.525-1.124-.801 0-1.22.383-.931.85M103.5 60c-.34.55-.141 1 .441 1S105 60.55 105 60s-.198-1-.441-1-.719.45-1.059 1m-50.957.931c-.317.512-.193 1.167.274 1.456s.85-.13.85-.931c0-1.686-.316-1.833-1.124-.525m78.527.26c.116 2.159 1.777 5.533 1.875 3.809.072-1.257.229-1.274.969-.104.486.767 1.582 1.128 2.434.801 1.068-.41 1.378-.146.996.848-.304.794-.925 1.214-1.38.933s-1.151.016-1.549.66c-.436.705-.292.904.361.5.597-.369 1.368-.213 1.714.346S136.218 70 135.118 70s-2.292-.472-2.648-1.049c-.443-.716-1.094-.678-2.059.123-1.091.905-1.411.878-1.411-.118 0-.709-.289-1-.643-.647-1.237 1.237 1.708 3.487 3.836 2.93 1.212-.317 1.868-.147 1.533.396-.323.522.26 1.014 1.297 1.092 1.831.138 2.592-1.13 3.496-5.824.239-1.241.961-2.739 1.605-3.33.871-.799 1.002-.598.512.788-.474 1.339-.268 1.712.731 1.328.764-.293 1.985-.005 2.713.639.873.773.829.491-.128-.828-2.272-3.13-3.178-3.455-5.362-1.925-2.233 1.564-3.656 1.84-3.472.675.066-.413.066-1.624 0-2.691-.117-1.922-.134-1.922-1.692 0-.866 1.067-1.309 1.41-.984.76s.133-1.463-.426-1.809-.984-.039-.946.681m18.666.191c.338.546-.123.684-1.072.319-.989-.379-1.67-.144-1.679.58-.011.871-.257.838-.861-.115-.681-1.074-.964-1.025-1.453.25-.802 2.089.899 1.966 5.829-.421 3.492-1.691 3.66-1.914 1.322-1.754-1.473.101-2.411.614-2.086 1.141M45.5 62c.34.55.816 1 1.059 1s.441-.45.441-1-.477-1-1.059-1-.781.45-.441 1m41.007-.011c-.35.566.051.734.941.393 1.732-.665 2.049-1.382.611-1.382-.518 0-1.216.445-1.552.989M162 63c0 1.1.45 2 1 2s1-.9 1-2-.45-2-1-2-1 .9-1 2m-82.122-.096c.758.48 1.072 1.368.698 1.973-.427.692-.104.879.872.505.902-.347 1.552-.063 1.552.678 0 .7.256 1.017.569.704.938-.937-1.932-4.765-3.56-4.749-1.246.013-1.269.168-.131.889M106 63.06c0 .399.6.956 1.333 1.238.734.281 1.334-.046 1.334-.727s-.6-1.238-1.334-1.238c-.733 0-1.333.327-1.333.727m52.636.434c.316.822.984 1.241 1.485.931 1.049-.648.207-2.425-1.149-2.425-.5 0-.651.672-.336 1.494M50 63.409c0 .19.675.906 1.5 1.591.865.718 1.5.815 1.5.229 0-.558-.675-1.274-1.5-1.591s-1.5-.419-1.5-.229m27.166 1.467c-1.074.681-1.025.964.25 1.453 1.002.385 1.584.069 1.584-.86 0-1.7-.058-1.719-1.834-.593m89.913 2.707c.048 1.165.285 1.402.604.605.289-.722.253-1.585-.079-1.917s-.568.258-.525 1.312m-86 1c.048 1.165.285 1.402.604.605.289-.722.253-1.585-.079-1.917s-.568.258-.525 1.312m23.475-.67c-.37.598-2.333 1.116-4.363 1.15-3.218.056-3.403.18-1.441.968 2.534 1.019 2.837 1.562 1 1.792-5.884.734-7.75.738-7.75.016 0-.461-.477-.839-1.059-.839s-.805.412-.494.915 0 1.143-.691 1.422.769.494 3.244.478c8.502-.056 15.862-3.353 13.27-5.945-.726-.726-1.249-.713-1.716.043m45.956.103c.346.559 1.047.758 1.559.441 1.387-.857 1.129-1.457-.628-1.457-.857 0-1.276.457-.931 1.016m-98.26 2.465c0 1.471.572 2.519 1.375 2.519A1.38 1.38 0 0 0 55 71.622c0-.757-.619-1.891-1.375-2.518-1.105-.917-1.375-.646-1.375 1.377m91.293-1.55c-.317.512-.118 1.213.441 1.559S145 70.615 145 70s.52-.797 1.155-.405c.715.443.883.275.44-.44-.86-1.393-2.266-1.496-3.052-.224m-114.984.974c-.301.487.189 1.168 1.09 1.514 2.155.827 2.469.375.803-1.159-.74-.682-1.592-.842-1.893-.355m118.313 1.845c-1.243 1.586-1.208 1.621.378.378.963-.755 1.75-1.543 1.75-1.75 0-.823-.821-.294-2.128 1.372m5.635-.761c-.35.566.051.734.941.393 1.732-.665 2.049-1.382.611-1.382-.518 0-1.216.445-1.552.989m12.693 1.062c-1.452 2.326-1.502 2.949-.235 2.949 1.316 0 3.238-3.757 2.238-4.375-.442-.272-1.343.369-2.003 1.426m-89.564-.271c-.244.396 1.65.856 4.21 1.022s4.796.703 4.969 1.193.932.656 1.686.366c.755-.29 1.167-1.052.915-1.694-.498-1.271-11.052-2.065-11.78-.887m61.867 1.211c-.877 2.762.278 4.213 2.732 3.434 1.646-.522 1.937-.316 1.428 1.012-.377.98-.233 1.415.348 1.056.544-.336.989-1.308.989-2.16 0-1.124-.641-1.389-2.333-.964-1.656.415-2.334.156-2.334-.892 0-.825.92-1.484 2.084-1.492 1.711-.013 1.815-.189.583-.985-2.18-1.409-2.79-1.236-3.497.991m12.527-.182c-.016.72-.48 1.031-1.03.691s-1-.093-1 .548.638.921 1.417.622a1.534 1.534 0 0 1 1.969.893c.303.79 1.353 1.401 2.333 1.358.979-.043 1.244-.297.587-.565-.656-.267-.951-1.244-.655-2.171.42-1.315.323-1.384-.44-.315-.799 1.12-1.175 1.029-2.064-.5-.627-1.079-1.099-1.316-1.117-.561m-79.023 3.456c.014 4.859 7.098 11.836 13.952 13.74 7.641 2.123 16.569.538 21.362-3.793 1.043-.942 2.952-3.796 4.244-6.344l2.349-4.632-4.124 1.218c-2.379.702-4.427 2.028-4.839 3.132-1.15 3.079-4.178 5.155-8.162 5.594-2.042.225-3.571.269-3.399.097s-1.165-1.88-2.972-3.795C87.35 79.289 85.198 78 83.604 78c-1.391 0-4.797-.893-7.567-1.985L71 74.029zm59.27-1.142c-1.215 1.215.279 5.877 1.884 5.877 1.274 0 5.088-4.085 4.429-4.744-.318-.317-1.44.418-2.494 1.633s-2.177 1.789-2.495 1.274.086-1.488.899-2.163 1.231-1.626.93-2.113c-.739-1.196-1.801-1.116-3.153.236m-95.002 1.821c.725 2.774-.966 6.984-3.718 9.252-1.6 1.32-1.781 1.932-.815 2.758.683.585 1.033.771.778.416-.256-.356.648-1.97 2.008-3.586S36 82.405 36 81.864s.369-.754.819-.476c.451.279.624-.825.385-2.453s-.904-3.249-1.477-3.604c-.662-.409-.827.179-.452 1.613M130.5 76c-.34.55-.141 1 .441 1S132 76.55 132 76s-.198-1-.441-1-.719.45-1.059 1m-100.84.75c-1.106 1.813-2.694 9.386-2.152 10.263.703 1.137 3.698-1.509 5.392-4.763 1.675-3.221-1.422-8.479-3.24-5.5M64 78.316c0 .789-.281 2.84-.625 4.559-.451 2.254-.252 3.125.712 3.125.736 0 2.405 1.237 3.71 2.75l2.372 2.75-2.084-3.618C66.938 85.892 66 82.881 66 81.191s-.45-3.351-1-3.691-1 .027-1 .816m58.289-.505c-.666.418-1.917 2.543-2.779 4.724l-1.568 3.965 2.46-2.93c2.209-2.63 2.646-2.783 4.279-1.5 1.598 1.257 1.68 1.248.677-.07-.629-.825-1.304-2.276-1.5-3.224-.221-1.064-.822-1.433-1.569-.965M145 78c-1.265.818-1.274.972-.059.985 1.114.012 1.053.299-.271 1.267-.942.689-1.938 2.601-2.213 4.25-.372 2.23-.242 2.614.506 1.498.554-.825 1.013-2.362 1.022-3.417.008-1.054.308-1.623.666-1.265s1.244-.13 1.968-1.084c2.304-3.033 1.447-4.215-1.619-2.234m-6.417 2.643c-.346.904-.394 1.879-.107 2.167s.524-.05.524-.75c0-.77.649-1.025 1.641-.644 1.373.527 1.435.38.378-.893-1.574-1.897-1.663-1.893-2.436.12m-71.578.107c.003.412 1.136 2.1 2.518 3.75l2.513 3-1.703-3.75c-1.524-3.354-3.341-4.993-3.328-3M157 81c0 .55.477 1 1.059 1s.781-.45.441-1-.816-1-1.059-1-.441.45-.441 1m-22.51 1.016c-.346.559-1.117.715-1.714.346-.616-.381-.8-.21-.424.398 1.014 1.641-1.653 2.151-3.388.648-1.307-1.132-1.535-1.055-1.535.517 0 1.095.524 1.647 1.285 1.354.707-.271 1.286-.009 1.286.583 0 1.631 2.279.355 4.297-2.404.988-1.352 1.577-2.458 1.309-2.458-.269 0-.771.457-1.116 1.016m-112.677.667c.721.289 1.584.253 1.916-.079s-.258-.568-1.312-.525c-1.165.048-1.402.285-.604.604m99.875.687c-.378.986-.681 2.544-.673 3.462.014 1.442.147 1.465.985.168.798-1.235.972-1.25.985-.083.008.779.225 1.206.482.949.257-.256.116-1.777-.312-3.378-.643-2.407-.898-2.601-1.467-1.118m23.915.463c-.283.459.14.834.941.834s1.456-.375 1.456-.834-.423-.833-.941-.833-1.173.375-1.456.833m-94.996 1.749c-.939 2.447-.735 2.689.893 1.061 1.7-1.7 1.917-2.643.607-2.643-.491 0-1.166.712-1.5 1.582m74.472.001c.048 1.165.285 1.402.604.605.289-.722.253-1.585-.079-1.917s-.568.258-.525 1.312m8.994 1.052c-2.142 2.723-2.782 4.921-1.136 3.904.957-.592 4.194-6.539 3.559-6.539-.193 0-1.284 1.186-2.423 2.635m25.658-2.032c-.332.331-.206 1.647.279 2.922.928 2.443-.912 5.166-2.512 3.716-.45-.407-.494-.177-.098.512.525.911 1.246.971 2.65.22 1.878-1.005 2.143-3.271.659-5.647-.437-.7-.021-1.361 1.029-1.634 1.398-.365 1.435-.484.179-.576-.871-.064-1.855.155-2.186.487M145 86.964c0 1.061-6.913 6.036-8.387 6.036-.508 0-.108-.9.887-2 1.026-1.134 1.31-2 .655-2-.635 0-1.155.477-1.155 1.059s-.41.805-.912.495-.795.226-.652 1.191c.36 2.433 3.522 2.199 6.405-.474 1.326-1.228 2.711-2.048 3.077-1.822.367.227.732-.456.812-1.518S145.679 86 145.438 86s-.438.434-.438.964m-72 .867c0 .423.54 1.309 1.2 1.969 1.636 1.636 2.857 1.512 2.191-.223C75.796 88.026 73 86.586 73 87.831m55 .728c0 .857.457 1.276 1.016.931.559-.346.758-1.047.441-1.559-.857-1.387-1.457-1.129-1.457.628m44.158.441c0 1.375.227 1.938.504 1.25.278-.687.278-1.812 0-2.5-.277-.687-.504-.125-.504 1.25m-52.427 3.72c-1.101 2.427-1.347 4.064-.709 4.702.637.637.978.411.978-.651 0-.895.701-2.329 1.557-3.186 1.01-1.01 1.26-2.09.71-3.073-.662-1.183-1.22-.697-2.536 2.208M151 89.976c0 .628.412.888.915.577s1.144-.101 1.425.466c.28.567.403.485.273-.181-.311-1.586-2.613-2.346-2.613-.862m-33.436 1.317c.376.986.935 1.541 1.243 1.233s.001-1.114-.683-1.793c-.988-.98-1.102-.865-.56.56m12.343.207c-.296 1.231.372 2.824 1.736 4.143 2.01 1.944 2.204 1.973 2.079.319-.075-1.003-.566-1.742-1.091-1.643-.525.1-1.244-.944-1.599-2.319-.579-2.246-.694-2.297-1.125-.5M45 92c-.901.582-1.025.975-.309.985.655.008 1.469-.435 1.809-.985.767-1.242.421-1.242-1.5 0m130-.108c0 .674-.445.951-.989.615-.58-.359-.725.074-.351 1.051.592 1.542.705 1.54 1.581-.024.518-.926.676-1.95.351-2.276s-.592-.04-.592.634M22 93.059c0 .582.45.781 1 .441s1-.816 1-1.059S23.55 92 23 92s-1 .477-1 1.059m3-.166c0 .491.739 1.176 1.641 1.523 1.373.527 1.435.38.378-.893-1.44-1.735-2.019-1.916-2.019-.63m86.25 1.051c-2.779 2.318-2.934 3.492-.273 2.068 1.655-.886 1.874-.788 1.341.601-.44 1.147-.201 1.517.773 1.196 1.489-.489 2.623-5.833 1.225-5.776-.449.019-1.829.878-3.066 1.911m14.75-.551c0 1.77-2.741 2.885-3.26 1.327-.214-.643-.651-.167-.971 1.057-.321 1.224-.174 1.974.324 1.665.499-.308.907-.083.907.499S121.857 99 120.461 99c-2.12 0-2.327.23-1.25 1.389.811.875 1.524 1.016 1.922.38.367-.585 1.097-.223 1.737.861 1.059 1.792 1.098 1.787.959-.13-.26-3.572.15-5.5 1.171-5.5.55 0 1 .675 1 1.5 0 3.125 1.509 1.341 1.692-2 .105-1.925-.232-3.5-.75-3.5s-.942.627-.942 1.393m14.75.801c-2.32 2.394-2.254 3.572.081 1.459 1.007-.912 2.077-1.412 2.377-1.112s.783-.074 1.073-.831c.751-1.957-1.458-1.654-3.531.484M161 94c-.589 1.1-1.73 2-2.535 2s-1.352.563-1.215 1.25-.346 1.126-1.074.975-1.026.208-.662.798c.365.59 1.411.95 2.325.8.913-.15 2.176.051 2.806.446.631.396 1.403.048 1.719-.775.401-1.044-.095-1.504-1.645-1.527l-2.219-.034 2.361-1.966c1.298-1.082 1.973-1.999 1.5-2.037-.474-.039.039-.457 1.139-.93 1.663-.715 1.711-.871.285-.93-.943-.038-2.196.83-2.785 1.93m-60.982.679c-2.392 1.042-5.747 1.402-10.718 1.151-6.145-.311-6.901-.18-5.018.867 4.399 2.444 17.169 1.198 18.791-1.834.549-1.025.869-1.826.712-1.781-.157.044-1.852.763-3.767 1.597M146 93.449c0 .382.575 1.269 1.278 1.972 1.038 1.038 1.507 1.035 2.49-.018.766-.82.848-1.522.222-1.909-.544-.337-.99-.08-.99.569 0 .881-.382.865-1.5-.063-.825-.685-1.5-.933-1.5-.551m22.128.451c-.754.478-1.193 1.405-.974 2.061.256.77 1.062.457 2.277-.884 1.909-2.11 1.192-2.758-1.303-1.177M36 95c-1.828 1.181-.249 1.181 2.5 0 1.319-.567 1.489-.878.5-.914-.825-.031-2.175.381-3 .914m39.463-.059c1.253 2.026 8.439 5.06 11.747 4.959l3.29-.101-3.766-.887c-2.071-.488-5.605-1.826-7.854-2.973-2.249-1.148-3.787-1.597-3.417-.998M151 96c-.901.582-1.025.975-.309.985.655.008 1.469-.435 1.809-.985.767-1.242.421-1.242-1.5 0M23.919 97.403c.894 1.077.865 1.523-.127 1.921-.822.329-.655.547.458.597 1.941.088 2.016-.065 1.143-2.339-.334-.87-1.064-1.582-1.622-1.582-.617 0-.559.551.148 1.403m105.787.581c.314 1.2-.157 1.998-1.363 2.309-1.598.412-1.615.49-.128.591 2.262.153 4.31-3.469 2.38-4.209-.937-.36-1.217.053-.889 1.309m-102.465.514c.408.45.232 1.432-.391 2.183-.895 1.079-.789 1.233.509.735 1.954-.75 2.119-2.023.391-3.017-.687-.396-.916-.351-.509.099M152.232 101c0 1.925.206 2.713.457 1.75.252-.963.252-2.537 0-3.5-.251-.963-.457-.175-.457 1.75m-116.23-2c-.818 2.632-.734 4.132.18 3.218.574-.574.803-1.645.509-2.38-.293-.736-.603-1.113-.689-.838m55.627.791c-.269.435 1.055.611 2.941.391 1.887-.221 3.43-.577 3.43-.791 0-.753-5.887-.383-6.371.4m53.371.28c0 .59.762 1.827 1.694 2.75 1.587 1.573 1.65 1.563 1-.153-.382-1.007-.694-2.245-.694-2.75s-.45-.918-1-.918-1 .482-1 1.071m-106.118.679c-.066.412-.05 1.135.035 1.605.084.471-.425 1.596-1.132 2.5-1.135 1.453-1.089 1.492.398.328.925-.724 1.617-2.186 1.537-3.25-.146-1.933-.615-2.596-.838-1.183m67.608.266c-.346.559-1.117.715-1.714.346-.663-.41-.796-.203-.341.532.569.921 1.074.929 2.154.032 1.415-1.174 1.794-1.926.97-1.926-.243 0-.724.457-1.069 1.016m7.61.689c.729 1.212 1.54 1.989 1.803 1.726s-.333-1.255-1.324-2.205c-1.722-1.649-1.744-1.628-.479.479m44.443-.774c-.665 1.076 1.292 2.567 2.19 1.669.33-.33.049-.6-.625-.6s-.948-.45-.608-1 .393-1 .118-1-.759.419-1.075.931m-101.793.731c.688.278 1.813.278 2.5 0 .688-.277.125-.504-1.25-.504s-1.937.227-1.25.504m37.017.505c.864.864 1.763.881 3.45.068 2.144-1.033 2.073-1.104-1.167-1.167-2.63-.052-3.172.21-2.283 1.099m60.957.887c.248.946-.061 2.036-.685 2.422-.844.521-.835 1.065.035 2.113.905 1.091.878 1.411-.118 1.411-.709 0-.992.297-.629.661.363.363 1.611-.2 2.772-1.25s2.39-1.765 2.731-1.586.796-.202 1.011-.847c.292-.877-.179-.868-1.873.039-2.155 1.153-2.235 1.069-1.674-1.736.411-2.058.196-2.948-.715-2.948-.742 0-1.11.743-.855 1.721m-36.801-.304c-.042.412-.222 1.506-.401 2.431-.179.924.221 1.89.888 2.146.832.32 1.08-.444.788-2.431-.395-2.691-1.098-3.875-1.275-2.146m18.291.436c-.915.915-.839 1.571.334 2.867 1.387 1.533 1.304 1.656-.946 1.409-1.814-.199-2.318.116-1.905 1.191.309.804 1.178 1.225 1.932.936 1.64-.63 1.804.578.284 2.098-.783.783-.74 1.302.154 1.855.757.467.988.357.593-.283-.357-.577.088-1.332.989-1.678.9-.345 1.364-.902 1.029-1.236-.892-.892 1.188-4.348 2.607-4.33.763.01.657.376-.285.985-1.09.704-1.142.974-.191.985.733.008.995.523.596 1.17-.421.68-.277.884.351.496 2.075-1.283.648-4.148-2.118-4.252-2.907-.11-5.03-1.399-2.305-1.399.917 0 1.667-.45 1.667-1 0-1.351-1.338-1.262-2.786.186m-16.135 1.397c.048 1.165.285 1.402.604.605.289-.722.253-1.585-.079-1.917s-.568.258-.525 1.312m26.597 1.672c-2.481 2.65-2.573 2.951-.75 2.475 2.22-.581 2.911.766.824 1.608-.785.317-.831.533-.122.583.62.043 1.687-.596 2.372-1.421.86-1.036.898-1.5.122-1.5-.617 0-1.122-.477-1.122-1.059s.52-.738 1.155-.346q1.152.712.335-.61c-.589-.954-.366-1.151.795-.706 1.133.435 1.448.188 1.057-.83-.751-1.957-1.368-1.718-4.666 1.806M31.923 104.25c-.618 2.02-.57 3.75.103 3.75.467 0 .782-.9.699-2-.129-1.707-.54-2.605-.802-1.75m75.077.145c0 .743 4.01 1.398 4.427.723.236-.381-.664-.784-1.999-.895s-2.428-.033-2.428.172m15.314 1.355c-.342.963-.841 2.146-1.107 2.63-.267.484.104.683.825.443s1.383-1.424 1.472-2.63c.195-2.64-.337-2.838-1.19-.443m8.252 1.5c-1.113 1.492-1.508 1.677-1.173.551.351-1.182.064-1.53-.944-1.143-.797.306-1.449.984-1.449 1.508s-.445.677-.989.341c-.577-.357-.727.069-.36 1.025.426 1.11.853 1.27 1.33.499.386-.625 1.111-1.06 1.611-.965 2.142.404 3.208-.191 3.698-2.066.671-2.567.341-2.519-1.724.25m-44.991-.372c-.298.483.856 1.158 2.566 1.5 4.718.944 5.426.762 3.3-.846-2.187-1.654-5.05-1.973-5.866-.654m-43.842 1.246c.679.684 1.486.991 1.793.683.308-.308-.247-.867-1.233-1.243-1.425-.542-1.54-.428-.56.56m122.188.426c-.043 1.073-.297 1.413-.565.756-.267-.656-1.169-.931-2.004-.611-1.232.473-1.267.74-.186 1.411 1.041.646.81 1.329-1.054 3.111-1.313 1.256-2.031 1.608-1.596.783s-.111-.6-1.213.5c-1.77 1.766-1.817 2.08-.404 2.68 2.769 1.175 4.098.88 4.18-.93.048-1.055.28-1.251.585-.494.348.863 1.084.55 2.355-1 1.828-2.229 2.323-.694.644 1.994q-.779 1.249 1.077 1.25c1.535 0 1.787-.609 1.45-3.5-.47-4.022-.502-4.045-2.666-1.881-.891.891-1.887 1.352-2.213 1.025s.482-1.473 1.797-2.548c1.919-1.568 2.145-2.205 1.142-3.225-1.007-1.024-1.265-.892-1.329.679m7.676-.706c-.346.56-.142 1.319.453 1.687 1.538.95 2.53-.351 1.246-1.635-.718-.718-1.277-.735-1.699-.052m-123.6 4.406c-1.472 2.011-1.714 2.71-.634 1.832 1.64-1.331 4.12-5.082 3.36-5.082-.191 0-1.418 1.463-2.726 3.25M102 110.218l-2.5 1.091 3 .659c3.02.663 5.082.144 2.744-.69-.691-.247-1.002-.86-.691-1.363.675-1.092.632-1.087-2.553.303m15.5-.505c-3.015.725-4.26 2.287-1.822 2.287 1.142 0 2.637-.675 3.322-1.5s1.077-1.448.872-1.384-1.272.332-2.372.597m38.084 1.928c-.527 1.373-.38 1.435.893.378 1.735-1.44 1.916-2.019.63-2.019-.491 0-1.176.739-1.523 1.641m-25.077.348c-.35.566.051.734.941.393 1.732-.665 2.049-1.382.611-1.382-.518 0-1.216.445-1.552.989M151.5 112c-.34.55-.254 1.029.191 1.063s-.316.554-1.691 1.153c-2.25.98-2.306 1.134-.566 1.545 1.792.423 4.566-1.978 4.566-3.952 0-1.142-1.76-1.007-2.5.191m-119.941 1.532c-1.068.807-1.46 1.468-.873 1.468.588 0 1.629-.675 2.314-1.5 1.557-1.876 1.067-1.866-1.441.032m52.12 2.968c.317 2.75.745 5.188.949 5.417.703.787.172-5.419-.677-7.917-.573-1.686-.662-.872-.272 2.5m47.693-2.293c-.929 1.504.198 1.945 4.109 1.609l3.682-.316-3.609-1.109c-2.172-.668-3.838-.741-4.182-.184M99 116.941c0 3.883 1.423 4.621 2.854 1.481 1.611-3.536 1.439-4.422-.854-4.422-1.547 0-2 .667-2 2.941m-65.541-.874c-.363.586-.445 1.281-.183 1.543s.743-.218 1.069-1.067c.676-1.762.1-2.072-.886-.476m5.977 1.037c-.376.607-2.47 1.904-4.654 2.882-2.27 1.017-3.5 2.07-2.87 2.46.606.374 2.376-.227 3.934-1.336 2.964-2.111 5.802-5.11 4.835-5.11-.309 0-.87.497-1.245 1.104m3.071-.115c-.35.566.051.734.941.393 1.732-.665 2.049-1.382.611-1.382-.518 0-1.216.445-1.552.989m89.563 3.761c.039 1.513.443 3.65.898 4.75.739 1.786.999 1.602 2.43-1.718 2.154-4.999 2.033-5.782-.898-5.782-2.078 0-2.488.465-2.43 2.75m18.717.25c.242 1.65.795 3 1.229 3 .433 0 1.259-1.35 1.834-3 .963-2.761.864-3-1.229-3-1.959 0-2.213.417-1.834 3m19.945-.915c.415 1.584.748 1.764 1.391.75 1.232-1.944 1.066-2.835-.529-2.835-.933 0-1.223.702-.862 2.085m-53.168.208c.376.986.935 1.541 1.243 1.233s.001-1.114-.683-1.793c-.988-.98-1.102-.865-.56.56M160.5 121c-.34.55-.141 1 .441 1s1.059-.45 1.059-1-.198-1-.441-1-.719.45-1.059 1m5.833 1.5c0 .825.375 1.5.834 1.5s.833-.675.833-1.5-.375-1.5-.833-1.5c-.459 0-.834.675-.834 1.5m-118.129 2.545c-.672 1.075-.815 1.955-.319 1.955.897 0 2.443-3.005 1.851-3.598-.172-.171-.861.568-1.532 1.643m69.36-.941c.316.511.963.688 1.439.394.475-.294.826.822.779 2.48-.075 2.61-.3 2.847-1.684 1.768-1.38-1.076-1.429-1.029-.358.344 1.262 1.619 6.622 1.918 8.016.446.409-.431-.231-.485-1.422-.12-2.356.724-3.735-.663-3.797-3.815-.02-1.046-.827-2.02-1.792-2.164s-1.496.156-1.181.667m37.824 1.089c.156 2.976 1.861 3.247 3.511.56l1.384-2.253-2.311 2c-1.967 1.702-2.218 1.744-1.685.282.344-.945.257-1.946-.193-2.224s-.768.458-.706 1.635m6.691-.943c-.043.963.596 1.75 1.421 1.75s1.5-.477 1.5-1.059-.412-.805-.915-.494-1.142 0-1.421-.691c-.305-.758-.537-.562-.585.494m-111.515 1.457c-.542 1.425-.428 1.54.56.56.684-.679.991-1.486.683-1.793-.308-.308-.867.247-1.243 1.233m78.436-.766c0 .518.445 1.216.989 1.552.566.35.734-.051.393-.941-.665-1.732-1.382-2.049-1.382-.611m-100.187.742c.721.289 1.584.253 1.916-.079s-.258-.568-1.312-.525c-1.165.048-1.402.285-.604.604m109.79.484c.283.458.938.833 1.456.833s.941-.375.941-.833c0-.459-.655-.834-1.456-.834s-1.224.375-.941.834M111 128.102c-1.213.866-1.082.98.685.595 2.147-.467 4.132 1.882 2.702 3.196-.364.334-.862.045-1.107-.643-.246-.687-.914-1.25-1.486-1.25-.649 0-.592.538.15 1.433 1.383 1.665 5.056 1.672 5.056.009 0-1.054-3.139-4.461-4.079-4.427-.231.009-1.096.498-1.921 1.087M36.5 129c.34.55 1.293 1 2.118 1s1.222-.45.882-1-1.293-1-2.118-1-1.222.45-.882 1m4.5-.607c0 .216.698.661 1.552.989.89.341 1.291.173.941-.393-.587-.951-2.493-1.406-2.493-.596m4.613.79c.289.467.944.591 1.456.274 1.308-.808 1.161-1.124-.525-1.124-.801 0-1.22.383-.931.85m-3.39 5.389c-.11 1.335-.033 2.428.172 2.428.743 0 1.398-4.01.723-4.427-.381-.236-.784.664-.895 1.999m68.047-.503c-.173 2.297.298 2.499 1.079.463.31-.807.227-1.676-.185-1.931-.412-.254-.814.406-.894 1.468m2.359 5.074c.901.995 1.99 1.593 2.419 1.327.43-.265 1.011-.018 1.292.549.28.567.394.457.252-.244s-.896-1.295-1.675-1.32-1.329-.513-1.223-1.084c.107-.571-.457-1.038-1.254-1.038-1.195 0-1.162.317.189 1.81M137.158 146c0 1.375.227 1.938.504 1.25.278-.687.278-1.812 0-2.5-.277-.687-.504-.125-.504 1.25m-71.335 23.709c-1.472.225-3.215 1.058-3.872 1.85-1.212 1.46.085 2.071 1.466.691.412-.412 1.612-.806 2.666-.875 1.055-.069 2.619-.181 3.476-.25s1.281-.575.941-1.125-.929-.933-1.309-.85c-.38.082-1.896.334-3.368.559m75.256 1.874c.048 1.165.285 1.402.604.605.289-.722.253-1.585-.079-1.917s-.568.258-.525 1.312"/><path fill-opacity=".43" fill-rule="evenodd" d="M101.429 1.116c-.301.486 1.748.884 4.554.884 12.489 0 31.958 6.143 45.099 14.23 21.347 13.137 37.32 34.709 44.149 59.624 2.867 10.462 3.11 36.371.433 46.146-5.522 20.16-13.222 33.783-26.577 47.019-16.566 16.418-31.528 23.487-61.087 28.861l-5.5 1 7-.52c3.85-.285 9.025-.989 11.5-1.564 2.475-.574 5.175-1.151 6-1.281.825-.131 2.4-.592 3.5-1.025 11.547-4.547 14.886-6.086 20.72-9.551 15.751-9.358 29.25-24.165 37.78-41.439 8.074-16.354 9.5-22.881 9.5-43.5 0-15.256-.293-18.511-2.284-25.384-5.654-19.521-13.98-33.299-28.629-47.378C162.314 22.171 158 18.239 158 18.5s-2.53-1.144-5.623-3.122C139.636 7.228 122.206 1.549 106.867.55c-2.69-.175-5.138.079-5.438.566m-21.86 5.533c-3.812.817-10.698 3.004-15.303 4.861-8.549 3.447-26.508 14.576-24.566 15.223.591.197 3.937-1.632 7.437-4.065C62.243 12.168 78.432 6.696 93.75 6.915c2.888.042 5.25-.372 5.25-.92 0-1.456-11.375-1.073-19.431.654M103.5 7c2.779 1.194 5.5 1.194 5.5 0 0-.55-1.687-.968-3.75-.93-3.008.057-3.354.241-1.75.93m10 .723c1.1.263 2.225.773 2.5 1.134s2.075 1.843 4 3.297c6.291 4.749 11.401 10.385 12.47 13.75.371 1.169 1.044 1.897 1.495 1.617.452-.279 1.13.723 1.508 2.226.377 1.503.987 2.962 1.356 3.243s1.75 2.655 3.069 5.277C142.769 43.973 149 50.979 149 48.5c0-2.183 1.758-3.789 6-5.479 1.925-.767 4.605-2.098 5.956-2.958s3.787-1.563 5.412-1.563 3.129-.511 3.34-1.136c.556-1.651-13.993-13.842-22.489-18.845-8.288-4.88-23.317-10.18-30.719-10.833-2.75-.243-4.1-.226-3 .037M27.834 37.91C10.261 57.38 1.666 87.825 6.068 115c2.619 16.164 11.035 34.382 21.591 46.737 14.127 16.537 36.152 28.649 58.588 32.218 4.761.758 16.316.15 29.077-1.528 4.399-.579 4.654-.754 2.9-1.983-1.058-.741-4.129-1.621-6.824-1.955s-7.478-1.049-10.63-1.588c-3.151-.54-10.351-.943-16-.896-5.648.048-11.553-.176-13.122-.497-1.578-.323-3.476-.066-4.25.576-1.063.883-1.398.878-1.398-.021 0-.649-.454-.9-1.01-.557-1.818 1.124-15.319-6.248-23.528-12.846-24.797-19.933-38.128-52.131-34.469-83.254 2.131-18.127 9.908-36.299 21.292-49.757 7.98-9.432 7.647-10.712-.451-1.739M81 49.665c-7.116 2.481-9.978 5.1-13.046 11.937l-2.833 6.315 1.907 3.792c1.049 2.085 2.153 5.02 2.454 6.523.665 3.322 5.457 8.949 10.024 11.772 1.851 1.144 5.868 2.487 8.927 2.985C102.477 95.275 115 85.034 115 71.263c0-4.971-4.77-14.837-9.163-18.952-4.461-4.178-16.703-5.483-24.837-2.646m-2.042 2.082c-3.431 1.495-9.715 8.571-9.208 10.368.138.487-.152.885-.643.885s-1.161.698-1.489 1.552c-.399 1.04-.186 1.323.643.859.682-.381.452.142-.51 1.161-1.673 1.774-1.629 1.957 1 4.214 1.512 1.297 2.074 2.035 1.249 1.64-1.217-.584-1.264-.466-.25.627.688.741 1.25 2.278 1.25 3.415 0 3.693 4.691 9.199 10.159 11.924 11.081 5.522 24.983 1.921 28.877-7.478.658-1.589 1.589-2.646 2.069-2.349.479.296.604-.159.277-1.013-.328-.854-.098-1.552.511-1.552s1.107-.446 1.107-.992c0-.556-1.743-.294-3.966.595-2.181.873-4.543 1.354-5.25 1.071-.789-.317-.591-.547.516-.595.989-.043 3.127-.766 4.75-1.605 4.033-2.085 3.888-5.896-.544-14.331-2.555-4.862-4.37-7.048-6.75-8.131-4.595-2.09-19.238-2.253-23.798-.265m60.66.235c1.166.471 3.115 2.468 4.332 4.437S146.613 60 147.163 60c1.071 0-2.853-7.008-4.61-8.235-.579-.404-1.953-.713-3.053-.686-1.915.046-1.91.084.118.903m-46.873 1.445c6.724 1.325 9.07 2.526 5.172 2.649-2.061.065-1.901.268 1.083 1.379 3.757 1.398 5.417.796 4.488-1.626-.639-1.665-8.856-3.884-13.814-3.731-2.171.067-1.2.487 3.071 1.329m23.286 2.073c0 .55.436 1.675.969 2.5s.969 1.05.969.5-.436-1.675-.969-2.5-.969-1.05-.969-.5M149 57.441c0 .857.45 1.559 1 1.559s1-.423 1-.941-.45-1.219-1-1.559-1 .084-1 .941m-28.956 1.109c.024 1.073.69 4.65 1.48 7.95l1.436 6-.532-7c-.293-3.85-.959-7.428-1.48-7.95-.598-.599-.932-.23-.904 1m46.119 3.944c-.049 2.45-.933 6.101-1.966 8.113l-1.876 3.658-4.731-6.148c-2.795-3.632-5.189-5.865-5.85-5.457-.708.438-.315 1.051 1.071 1.669 1.204.537 2.189 1.514 2.189 2.172 0 .657 2.645 3.718 5.878 6.802s5.596 5.924 5.25 6.312c-.345.388-.058.377.638-.024s1.01-1.144.697-1.652c-.314-.507.22-3.429 1.185-6.492 1.406-4.46 1.517-5.954.554-7.495-.661-1.059-1.202-2.579-1.202-3.379s-.393-1.698-.874-1.995c-.48-.297-.913 1.465-.963 3.916M162 62.441c0 .793.45 1.719 1 2.059s1-.309 1-1.441S163.55 61 163 61s-1 .648-1 1.441m5 5.368c0 .995-.661 2.682-1.468 3.75-1.89 2.498-1.898 3.441-.032 3.441.825 0 1.511-.338 1.524-.75s.416-2.437.895-4.5c.508-2.188.498-3.75-.024-3.75-.492 0-.895.814-.895 1.809m-67.25 1.897c1.237.238 3.263.238 4.5 0 1.237-.239.225-.434-2.25-.434s-3.487.195-2.25.434M76 71.393c0 .949 2.993 1.427 3.527.563.325-.526-.336-.956-1.468-.956S76 71.177 76 71.393m23 .774c0 .458.675.833 1.5.833s1.5-.375 1.5-.833c0-.459-.675-.834-1.5-.834s-1.5.375-1.5.834m-15.731.526c.973.254 2.323.237 3-.037s-.119-.481-1.769-.461-2.204.244-1.231.498m7.481.969c.688.278 1.813.278 2.5 0 .688-.277.125-.504-1.25-.504s-1.937.227-1.25.504m5.063.021c.721.289 1.584.253 1.916-.079s-.258-.568-1.312-.525c-1.165.048-1.402.285-.604.604M76.76 75.492c1.794.837 4.944 1.788 7 2.114 4.464.706 5.462 1.226 4.707 2.448-.817 1.322 5.556 4.938 8.71 4.942 1.686.003 3.425-.946 4.695-2.56 3.296-4.19 1.993-5.131-7.171-5.18-7.199-.038-12.439-.782-19.281-2.737-1.056-.302-.453.136 1.34.973m-41.448 1.416c.703 2.902-1.618 8.889-3.767 9.713-.85.326-1.545 1.073-1.545 1.66 0 2.304 5.1-3.884 6.185-7.503.911-3.04.879-4.096-.153-5.06-1.055-.985-1.193-.758-.72 1.19m-6.377 1.763c-.559 1.469-.825 3.382-.591 4.25.341 1.27.447 1.229.54-.206.064-.982.843-2.895 1.731-4.25 1.027-1.567 1.2-2.465.475-2.465-.627 0-1.597 1.202-2.155 2.671M64 79.059c0 1.132.43 1.793.956 1.468s.703-1.252.393-2.059c-.793-2.067-1.349-1.824-1.349.591m57.073.576c-1.14 1.449-2.055 3.362-2.034 4.25s.688.121 1.482-1.706c.793-1.826 1.825-3.083 2.294-2.794.468.29.852-.128.852-.929 0-1.961-.194-1.873-2.594 1.179M63.158 84c0 1.375.227 1.938.504 1.25.278-.687.278-1.812 0-2.5-.277-.687-.504-.125-.504 1.25m58.413.571c-.367 1.466-.475 2.858-.24 3.094.236.235.73-.771 1.098-2.236.367-1.466.475-2.858.24-3.094-.236-.235-.73.771-1.098 2.236M67 88.378c0 .207.787.995 1.75 1.75 1.586 1.243 1.621 1.208.378-.378C67.821 88.084 67 87.555 67 88.378m111.395 2.209c.335.874.89 3.34 1.232 5.482.343 2.142.905 3.72 1.251 3.506 1.241-.767-.409 13.155-1.75 14.772-.755.909-2.555 1.685-4 1.723-1.446.039-3.528.457-4.628.93-1.902.817-1.889.863.269.93 1.93.059 2.188.481 1.727 2.82-.515 2.613-.491 2.633.483.408.564-1.289.804-2.701.533-3.138-.27-.438.901-1 2.603-1.25 3.052-.448 3.087-.404 2.522 3.138-.943 5.907-6.53 9.589-23.52 15.503-16.602 5.779-34.417 8.914-47.617 8.381-6.05-.245-9.65-.126-8 .263 5.306 1.253 21.166.987 28.185-.472 13.887-2.887 12.817-3.105 15.995 3.265 1.551 3.109 3.945 6.945 5.32 8.526s2.369 3.323 2.209 3.872c-.16.55.403.733 1.25.408.848-.325 1.552-.268 1.565.127.013.396.403 2.351.867 4.345.636 2.739.406 4.569-.94 7.481-3.563 7.703-.682 6.688 10.406-3.667 12.991-12.132 22.305-28.325 26.712-46.44 3.288-13.517 3.814-32.5.899-32.5-.518 0-1.599 1.575-2.404 3.5-1.09 2.609-2.048 3.482-3.763 3.43-4.365-.134-5.967-1.627-6.095-5.68-.022-.687-.462-1.25-.98-1.25-.517 0-.666.714-.331 1.587m-67.256 3.446c-1.798 1.498-1.977 1.967-.75 1.967.886 0 1.611-.45 1.611-1s.675-1 1.5-1 1.5-.45 1.5-1c0-1.491-1.223-1.164-3.861 1.033m-9.639.209c-1.1.649-5.6 1.466-10 1.814l-8 .634 7.3.155c4.855.103 8.287-.356 10.25-1.371 1.622-.839 2.95-1.739 2.95-2 0-.649-.208-.586-2.5.768m66.48.282c-1.932 2.329-.554 2.767 1.514.482.999-1.103 1.351-2.006.783-2.006-.567 0-1.601.686-2.297 1.524m-92.597.286c1.055 1.707 9.518 5.193 12.356 5.09 2.384-.087 2.247-.222-1.005-.988-2.071-.488-5.605-1.826-7.854-2.973-2.249-1.148-3.823-1.655-3.497-1.129m37.696 1.773c.048 1.165.285 1.402.604.605.289-.722.253-1.585-.079-1.917s-.568.258-.525 1.312m54.927 2.901c-.553 1.455-1.006 3.502-1.006 4.549 0 1.553.414 1.75 2.25 1.071 1.71-.633 2.25-1.623 2.25-4.129 0-4.112-2.149-5.029-3.494-1.491m-76.377.307c-.269.435 1.055.611 2.941.391 1.887-.221 3.43-.577 3.43-.791 0-.753-5.887-.383-6.371.4m3.64 1.902c.973.254 2.323.237 3-.037s-.119-.481-1.769-.461-2.204.244-1.231.498m-8.796 5.263c.325.526 1.252.703 2.059.393 2.067-.793 1.824-1.349-.591-1.349-1.132 0-1.793.43-1.468.956m-15.153 3.166c-2.849.463-7.743 1.975-10.875 3.36S53.907 116 52.876 116c-1.032 0-1.876.644-1.876 1.43 0 1.788 3.145.979 11.425-2.938 4.621-2.186 7.995-2.923 15.967-3.489 13.88-.985 14.437-.701 10.573 5.391-1.687 2.66-2.906 4.999-2.708 5.197.198.197 1.683-1.866 3.301-4.585 2.306-3.875 3.375-4.835 4.942-4.439 1.124.284.686-.244-1-1.206-3.433-1.96-14.078-2.554-22.18-1.239m29.283.711c-.283.459.833.834 2.48.834 1.937 0 2.54-.289 1.706-.818-1.672-1.061-3.536-1.068-4.186-.016m-2.662 6.802c.308 2.676 1.009 4.835 1.559 4.799.55-.037 2.11-1.758 3.466-3.826 1.949-2.97 2.962-3.664 4.826-3.307 1.298.248 1.982.073 1.52-.389-.461-.461-3.334-1.132-6.384-1.491l-5.546-.651zM99 117.5c0 4.261 1.011 4.444 3.284.596 2.24-3.791 2.181-4.096-.784-4.096-2.19 0-2.5.433-2.5 3.5m32.336-2.831c.368.368 2.355.786 4.417.927 3.148.217 3.347.126 1.247-.569-3.122-1.034-6.557-1.251-5.664-.358m17.664.3c0 .532.675.709 1.5.393.825-.317 1.5-.753 1.5-.969s-.675-.393-1.5-.393-1.5.436-1.5.969m-37.25.693c.688.278 1.813.278 2.5 0 .688-.277.125-.504-1.25-.504s-1.937.227-1.25.504M84.232 119c0 1.925.206 2.713.457 1.75.252-.963.252-2.537 0-3.5-.251-.963-.457-.175-.457 1.75m32.581-2.317c.721.289 1.584.253 1.916-.079s-.258-.568-1.312-.525c-1.165.048-1.402.285-.604.604m8.467 1.053c2.629.207 6.679.204 9-.005 2.321-.21.17-.379-4.78-.376s-6.849.175-4.22.381m18.22.264-5 .686 5 .039c2.75.021 6.35-.305 8-.725l3-.763-3 .038c-1.65.022-5.25.348-8 .725m10.636 2.5c-1.267 3.504-2.524 4.398-3.478 2.475-.279-.564-.401-.479-.271.187.529 2.698 2.623 1.739 4.58-2.097 1.14-2.236 1.705-4.065 1.254-4.065-.45 0-1.389 1.575-2.085 3.5m7.128-1.782c1.52.229 3.77.223 5-.014s-.014-.425-2.764-.418-3.756.202-2.236.432m14.815.865c.048 1.165.285 1.402.604.605.289-.722.253-1.585-.079-1.917s-.568.258-.525 1.312M20.953 122.5c1.085 2.2 3.228 4.877 4.76 5.949 2.538 1.775 2.474 1.589-.713-2.079-1.925-2.216-4.067-4.893-4.761-5.949-.693-1.057-.372-.121.714 2.079m114.582.739-1.777 4.261-1.39-4c-1.326-3.818-1.366-3.847-.879-.625.281 1.856.511 3.769.511 4.25s.626.875 1.391.875c1.291 0 5.168-7.774 4.307-8.636-.213-.212-1.186 1.532-2.163 3.875M149 120c0 .55.45 1 1 1s1-.45 1-1-.45-1-1-1-1 .45-1 1M31 132.5c1.292 1.375 2.574 2.5 2.849 2.5s-.557-1.125-1.849-2.5-2.574-2.5-2.849-2.5.557 1.125 1.849 2.5m4.954 3.945c1.746 2.103 7.034 4.9 7.806 4.129.315-.316.111-.574-.454-.574s-2.765-1.18-4.89-2.621-3.232-1.862-2.462-.934M80 142.149c-1.925.519-8.45 1.304-14.5 1.744l-11 .8 8.5.079c4.675.044 13.225-.743 19-1.749 7.3-1.271 9.129-1.827 6-1.823-2.475.002-6.075.43-8 .949m-31 .805c.825.559 2.363 1.022 3.417 1.031 2.558.02 1.76-.552-1.917-1.375-2.191-.49-2.595-.397-1.5.344m44.813-.271c.721.289 1.584.253 1.916-.079s-.258-.568-1.312-.525c-1.165.048-1.402.285-.604.604"/><path fill-opacity=".971" fill-rule="evenodd" d="M112.553 2.086c.311.503 1.569.914 2.796.914s4.799.669 7.939 1.487c36.133 9.411 63.313 36.906 72.437 73.276 2.688 10.715 2.374 35.219-.592 46.237-9.334 34.673-36.396 61.868-70.026 70.369-9.991 2.525-12.967 3.903-5.403 2.501 21.9-4.058 43.242-16.974 57.557-34.833 7.85-9.793 15.749-25.03 18.941-36.537 1.919-6.914 2.218-10.443 2.204-26-.015-16.787-.203-18.606-2.777-27-3.291-10.728-9.018-22.499-15.032-30.89-9.717-13.558-26.123-26.647-41.543-33.143-10.316-4.345-27.852-8.568-26.501-6.381M89.25 5.689c.963.252 2.537.252 3.5 0 .963-.251.175-.457-1.75-.457s-2.713.206-1.75.457M74.5 7.942c-3.3.984-8.925 3.019-12.5 4.522-7.577 3.185-23.925 13.728-22.186 14.307.653.218 2.945-.996 5.094-2.698C53.7 17.11 71.423 9.328 82.497 7.568c2.138-.34 4.1-.832 4.361-1.093 1.122-1.122-6.849-.176-12.358 1.467m46.271 1.097c1.248.501 5.523 4.278 9.5 8.393 10.613 10.984 13.954 13.33 20.035 14.071 14.406 1.757 15.415.68 6.266-6.691-6.8-5.479-18.968-11.668-28.927-14.715-6.894-2.109-11.104-2.757-6.874-1.058M27.516 38.193c-2.606 2.899-6.722 8.654-9.146 12.789-27.873 47.548-10.9 107.541 37.6 132.904 14.842 7.762 25.307 9.844 47.382 9.428 9.099-.171 11.69-.605 10.531-1.764-.247-.247-7.635-.737-16.416-1.088-24.959-.998-35.389-3.662-48.919-12.495-29.023-18.946-45.762-54.748-41.6-88.975 2.173-17.878 10.166-36.216 21.635-49.641 6.035-7.063 5.128-8.048-1.067-1.158m60.748 10.525c1.52.229 3.77.223 5-.014s-.014-.425-2.764-.418-3.756.202-2.236.432m10.549.965c.721.289 1.584.253 1.916-.079s-.258-.568-1.312-.525c-1.165.048-1.402.285-.604.604M78 50.722c-4.244 1.594-7.452 5.099-10.129 11.066-1.604 3.575-2.747 6.669-2.54 6.877.208.207 1.551-2.238 2.985-5.434 2.77-6.172 6.073-9.912 10.482-11.869 2.694-1.196 2.051-1.711-.798-.64m42 8.778c0 .825.436 1.5.969 1.5s.709-.675.393-1.5c-.317-.825-.753-1.5-.969-1.5s-.393.675-.393 1.5m1 5.441c0 2.415.556 2.658 1.349.591.31-.807.133-1.734-.393-2.059s-.956.336-.956 1.468m45.079-.358c.048 1.165.285 1.402.604.605.289-.722.253-1.585-.079-1.917s-.568.258-.525 1.312m3.037 1.085c-.064.643-.407 1.993-.763 3-.502 1.421-.369 1.576.594.688.682-.629 1.026-1.979.763-3s-.53-1.33-.594-.688M113.158 69c0 1.375.227 1.938.504 1.25.278-.687.278-1.812 0-2.5-.277-.687-.504-.125-.504 1.25m-12.396.707c1.244.239 3.044.23 4-.02s-.062-.446-2.262-.435-2.982.216-1.738.455m-33.198 2.586c.376.986.935 1.541 1.243 1.233s.001-1.114-.683-1.793c-.988-.98-1.102-.865-.56.56m9.186-.631c.688.278 1.813.278 2.5 0 .688-.277.125-.504-1.25-.504s-1.937.227-1.25.504m7.063 1.021c.721.289 1.584.253 1.916-.079s-.258-.568-1.312-.525c-1.165.048-1.402.285-.604.604m16 0c.721.289 1.584.253 1.916-.079s-.258-.568-1.312-.525c-1.165.048-1.402.285-.604.604m-9.063.979c.688.278 1.813.278 2.5 0 .688-.277.125-.504-1.25-.504s-1.937.227-1.25.504m5.063.021c.721.289 1.584.253 1.916-.079s-.258-.568-1.312-.525c-1.165.048-1.402.285-.604.604m15.694.306c-.35.566.051.734.941.393 1.732-.665 2.049-1.382.611-1.382-.518 0-1.216.445-1.552.989m-42.421 2.57c-.047 1.132.622 2.932 1.488 4 .866 1.067 1.268 1.343.893.613-.375-.731-1.045-2.531-1.488-4-.648-2.144-.824-2.265-.893-.613m-39.627.508c-1.026 1.66-.105 1.89 1.33.332.71-.769.849-1.399.309-1.399-.539 0-1.277.48-1.639 1.067m51.354-.384c.721.289 1.584.253 1.916-.079s-.258-.568-1.312-.525c-1.165.048-1.402.285-.604.604m24 0c.721.289 1.584.253 1.916-.079s-.258-.568-1.312-.525c-1.165.048-1.402.285-.604.604m6.183 2.326c-3.184 7.687-8.12 10.985-17.996 12.024l-6.5.683 5.282.142c5.811.156 11.415-1.763 15.052-5.156 2.483-2.316 6.614-9.587 5.87-10.331-.239-.239-1.008.948-1.708 2.638m-46.917-.426c.048 1.165.285 1.402.604.605.289-.722.253-1.585-.079-1.917s-.568.258-.525 1.312m21.683-.876c1.244.239 3.044.23 4-.02s-.062-.446-2.262-.435-2.982.216-1.738.455m13.507-.014c.973.254 2.323.237 3-.037s-.119-.481-1.769-.461-2.204.244-1.231.498m21.16 2.775c-.889 1.357-1.462 2.873-1.273 3.368s1.075-.616 1.968-2.468c1.91-3.963 1.587-4.382-.695-.9m-84.97-.401c-.363.586-.445 1.281-.183 1.543s.743-.218 1.069-1.067c.676-1.762.1-2.072-.886-.476m-7.38 2.516c.048 1.165.285 1.402.604.605.289-.722.253-1.585-.079-1.917s-.568.258-.525 1.312m4.105 3.217c-1.274 1.321-2.138 2.579-1.921 2.797.218.217 1.449-.726 2.737-2.097s2.152-2.629 1.921-2.797c-.232-.167-1.463.776-2.737 2.097m146.426 5.7c.823 3.677 1.395 4.475 1.375 1.917-.009-1.055-.472-2.592-1.031-3.417-.741-1.095-.834-.691-.344 1.5m-67.205 2.75L109.5 96.5l2.5-1.989c1.375-1.094 2.688-2.107 2.917-2.25.229-.144-.039-.261-.595-.261-.557 0-1.869 1.013-2.917 2.25M97 95.55c-3.051.874-3.695 1.3-2 1.324 1.375.02 3.85-.582 5.5-1.338 3.692-1.691 2.434-1.686-3.5.014m-10.731 1.143c.973.254 2.323.237 3-.037s-.119-.481-1.769-.461-2.204.244-1.231.498M180.68 103c.242 4.125.593 8.272.778 9.216s-.179 1.619-.811 1.5c-.631-.119-1.172.459-1.202 1.284-.381 10.406-4.596 13.728-27.445 21.629-5.225 1.807-8.713 3.305-7.75 3.328.963.024 1.75.493 1.75 1.043s.873 1 1.941 1 2.238.481 2.601 1.068 1.22.854 1.904.591c.684-.262 1.863.382 2.62 1.432.756 1.05 1.951 1.909 2.655 1.909s1.279.62 1.279 1.378.64 1.908 1.422 2.557c2.934 2.435 2.97 10.245.079 17.315-1.549 3.79 2.469 1.55 8.072-4.5 7.298-7.881 13.714-17.757 17.561-27.035 4.511-10.878 9.018-31.885 7.096-33.073-.476-.294-2.068 1.916-3.537 4.912-2.976 6.067-4.326 6.758-5.336 2.732-.616-2.455-.754-2.526-1.449-.75-.508 1.3-.825-.064-.937-4.036-.094-3.3-.522-7.125-.952-8.5-.456-1.462-.597.614-.339 5m-12.335-4.457c-.326.849-.369 1.767-.096 2.04.274.273.737-.422 1.03-1.543.624-2.383-.069-2.751-.934-.497M86.75 99.662c.688.278 1.813.278 2.5 0 .688-.277.125-.504-1.25-.504s-1.937.227-1.25.504m7.519.031c.973.254 2.323.237 3-.037s-.119-.481-1.769-.461-2.204.244-1.231.498m1.481 1.969c.688.278 1.813.278 2.5 0 .688-.277.125-.504-1.25-.504s-1.937.227-1.25.504M167.158 104c0 1.375.227 1.938.504 1.25.278-.687.278-1.812 0-2.5-.277-.687-.504-.125-.504 1.25M76 110c-1.135.734-.695.973 1.809.985 1.955.009 3.056-.394 2.691-.985-.776-1.256-2.556-1.256-4.5 0m8-.031c0 .532.675.709 1.5.393.825-.317 1.5-.753 1.5-.969s-.675-.393-1.5-.393-1.5.436-1.5.969m-14 1.09c0 .582.45.781 1 .441s1-.816 1-1.059-.45-.441-1-.441-1 .477-1 1.059m21.314-.36c.343.555-.713 3.115-2.345 5.689-3.338 5.264-4.068 7.748-.915 3.112 3.987-5.86 5.018-8.337 3.788-9.098-.652-.403-.881-.274-.528.297M65 112c0 .55.45 1 1 1s1-.45 1-1-.45-1-1-1-1 .45-1 1m34.269 1.693c.973.254 2.323.237 3-.037s-.119-.481-1.769-.461-2.204.244-1.231.498m32.544.99c.721.289 1.584.253 1.916-.079s-.258-.568-1.312-.525c-1.165.048-1.402.285-.604.604m-78.063 1.033c-1.755.266-2.744 1.026-2.735 2.1.013 1.346.191 1.408.889.306.48-.758 1.265-1.135 1.745-.839s1.742-.095 2.803-.872c1.062-.776 1.507-1.344.989-1.261-.517.082-2.178.337-3.691.566m44.502 2.784c.011 2.2.216 2.982.455 1.738s.23-3.044-.02-4-.446.062-.435 2.262m5.129-2.25c-.405.688-1.379 2.375-2.164 3.75-1.371 2.4-1.361 2.42.251.5 2.031-2.42 3.782-5.5 3.126-5.5-.262 0-.808.563-1.213 1.25m8.432-.567c.721.289 1.584.253 1.916-.079s-.258-.568-1.312-.525c-1.165.048-1.402.285-.604.604m25 0c.721.289 1.584.253 1.916-.079s-.258-.568-1.312-.525c-1.165.048-1.402.285-.604.604m36.937.979c.688.278 1.813.278 2.5 0 .688-.277.125-.504-1.25-.504s-1.937.227-1.25.504M84.158 119c0 1.375.227 1.938.504 1.25.278-.687.278-1.812 0-2.5-.277-.687-.504-.125-.504 1.25m39.57-1.278c1.775.221 4.925.224 7 .008 2.074-.217.622-.397-3.228-.402-3.85-.004-5.548.173-3.772.394m25.541-.029c.973.254 2.323.237 3-.037s-.119-.481-1.769-.461-2.204.244-1.231.498M154 121c-1.122 2.2-1.816 4-1.541 4s1.419-1.8 2.541-4 1.816-4 1.541-4-1.419 1.8-2.541 4m15.813-3.317c.721.289 1.584.253 1.916-.079s-.258-.568-1.312-.525c-1.165.048-1.402.285-.604.604m-29.063 1.023c1.238.238 3.262.238 4.5 0 1.238-.239.225-.434-2.25-.434s-3.488.195-2.25.434m21.012.001c1.244.239 3.044.23 4-.02s-.062-.446-2.262-.435-2.982.216-1.738.455m-26.095 4.46c-.905 2.303-1.482 4.352-1.281 4.552.2.2 1.114-1.511 2.031-3.802s1.493-4.34 1.281-4.553c-.213-.212-1.126 1.499-2.031 3.803m-4.588-1.584c.048 1.165.285 1.402.604.605.289-.722.253-1.585-.079-1.917s-.568.258-.525 1.312m41 0c.048 1.165.285 1.402.604.605.289-.722.253-1.585-.079-1.917s-.568.258-.525 1.312m-40 5c.048 1.165.285 1.402.604.605.289-.722.253-1.585-.079-1.917s-.568.258-.525 1.312M36.5 137c.995 1.1 2.035 2 2.31 2s-.315-.9-1.31-2-2.035-2-2.31-2 .315.9 1.31 2m4.5 3c.825.533 1.95.969 2.5.969s.325-.436-.5-.969-1.95-.969-2.5-.969-.325.436.5.969m88 2.167c-7.163 1.467-12.33 1.854-21 1.569-6.325-.207-10.15-.061-8.5.325 6.34 1.484 21.252.933 31.611-1.168 5.714-1.158 10.577-2.283 10.806-2.5.793-.748-3.459-.165-12.917 1.774m-50.5.356c-6.514 1.674-3.019 1.679 6.5.009 6.314-1.108 6.788-1.315 3-1.305-2.475.006-6.75.589-9.5 1.296m-29.5.431c.825.559 2.363 1.022 3.417 1.031 2.558.02 1.76-.552-1.917-1.375-2.191-.49-2.595-.397-1.5.344m44.813-.271c.721.289 1.584.253 1.916-.079s-.258-.568-1.312-.525c-1.165.048-1.402.285-.604.604m-36.549 2.035c1.52.229 3.77.223 5-.014s-.014-.425-2.764-.418-3.756.202-2.236.432m10.498-.011c1.244.239 3.044.23 4-.02s-.062-.446-2.262-.435-2.982.216-1.738.455"/></svg>