<svg xmlns="http://www.w3.org/2000/svg" width="32" height="32" version="1.1" fill="#000000"><path fill-opacity=".094" d="M 7.923 7.923 C 2.035 13.811, 5.335 25.034, 13.399 26.547 C 18.485 27.501, 23.755 24.830, 25.627 20.350 C 28.081 14.478, 25.025 7.023, 22.513 12.750 C 21.832 14.302, 20.669 15, 18.763 15 C 17.243 15, 16 15.450, 16 16 C 16 16.550, 16.712 17, 17.583 17 C 19.858 17, 18.737 19.442, 16.296 19.803 C 14.267 20.104, 11 17.714, 11 15.929 C 11 15.418, 11.893 14.107, 12.985 13.015 C 14.672 11.328, 15.355 11.205, 17.528 12.195 C 19.738 13.202, 20.384 13.056, 22.292 11.119 L 24.500 8.878 22.139 6.939 C 20.585 5.662, 18.253 5, 15.312 5 C 11.709 5, 10.281 5.565, 7.923 7.923" stroke="none" fill="#000000" fill-rule="evenodd"/><path fill-opacity=".316" d="M 8.400 8.400 C 4.404 12.396, 3.923 16.721, 6.926 21.647 C 12.327 30.503, 26.200 26.180, 26.200 15.640 C 26.200 5.953, 15.286 1.514, 8.400 8.400 M 18 7.393 C 18 7.609, 18.698 8.054, 19.552 8.382 C 20.442 8.723, 20.843 8.555, 20.493 7.989 C 19.906 7.038, 18 6.583, 18 7.393 M 8.872 9.750 C 7.629 11.336, 7.664 11.371, 9.250 10.128 C 10.916 8.821, 11.445 8, 10.622 8 C 10.415 8, 9.627 8.787, 8.872 9.750 M 18.250 10.080 C 20.950 11.653, 20.327 13.106, 17.504 11.820 C 15.442 10.880, 14.660 10.998, 13.004 12.496 C 10.740 14.546, 10.424 17.024, 12.200 18.800 C 13.863 20.463, 17.505 20.302, 19 18.500 C 20.042 17.245, 19.889 17, 18.063 17 C 16.731 17, 16.147 16.572, 16.562 15.899 C 16.940 15.287, 18.474 15.045, 20.016 15.353 C 22.395 15.829, 22.716 15.630, 22.278 13.954 C 21.996 12.877, 22.268 12, 22.883 12 C 23.498 12, 24 11.520, 24 10.933 C 24 10.336, 23.155 10.133, 22.084 10.473 C 21.030 10.808, 19.879 10.613, 19.525 10.041 C 19.171 9.468, 18.346 9.014, 17.691 9.030 C 17.036 9.047, 17.288 9.519, 18.250 10.080 M 24.158 16 C 24.158 17.375, 24.385 17.938, 24.662 17.250 C 24.940 16.563, 24.940 15.438, 24.662 14.750 C 24.385 14.063, 24.158 14.625, 24.158 16 M 9 17.678 C 9 18.235, 10.012 19.547, 11.250 20.595 L 13.500 22.500 11.511 20 C 10.417 18.625, 9.404 17.313, 9.261 17.083 C 9.117 16.854, 9 17.122, 9 17.678 M 7 18.941 C 7 19.459, 7.445 20.157, 7.989 20.493 C 8.555 20.843, 8.723 20.442, 8.382 19.552 C 7.717 17.820, 7 17.503, 7 18.941" stroke="none" fill="#000000" fill-rule="evenodd"/><path fill-opacity=".449" d="M 11.500 5.945 C 8.192 7.299, 5.861 10.616, 5.305 14.762 C 4.852 18.138, 5.224 19.185, 7.993 22.340 C 10.794 25.529, 11.783 26, 15.681 26 C 21.800 26, 26 21.985, 26 16.136 C 26 13.926, 25.593 11.866, 25.095 11.559 C 24.582 11.241, 24.420 12.709, 24.720 14.952 C 25.181 18.385, 24.851 19.303, 22.202 21.952 C 20.526 23.628, 18.332 24.971, 17.327 24.937 C 15.963 24.889, 16.134 24.624, 18 23.892 C 19.375 23.353, 21.277 21.919, 22.228 20.706 C 24.117 18.294, 24.580 13.476, 23.015 12.509 C 22.406 12.133, 22.258 13.040, 22.627 14.884 C 23.097 17.234, 22.679 18.412, 20.657 20.434 C 19.246 21.845, 17.573 23, 16.940 23 C 16.307 23, 17.186 21.694, 18.894 20.099 C 22.706 16.538, 22.757 15.968, 19.250 16.116 C 17.456 16.192, 17.128 16.395, 18.305 16.700 C 21.257 17.465, 19.600 19.500, 16.026 19.500 C 11.804 19.500, 10.142 17.180, 11.783 13.578 C 13.053 10.789, 16.677 10.077, 18.800 12.200 C 19.733 13.133, 20 13.126, 20 12.168 C 20 11.490, 18.988 10.529, 17.750 10.031 C 16.512 9.534, 16.092 9.098, 16.816 9.063 C 17.539 9.029, 19.114 9.524, 20.316 10.164 C 22.290 11.216, 22.368 11.168, 21.128 9.664 C 20.373 8.749, 19.023 7.964, 18.128 7.921 C 17.181 7.875, 17 7.639, 17.695 7.356 C 18.352 7.089, 19.927 7.375, 21.195 7.992 L 23.500 9.113 21.139 7.056 C 18.707 4.938, 15.004 4.511, 11.500 5.945 M 12.500 6.945 C 6.923 9.228, 4.793 15.686, 7.946 20.750 C 9.060 22.538, 10.506 24, 11.160 24 C 11.814 24, 11.280 22.863, 9.974 21.473 C 8.430 19.829, 7.600 17.749, 7.600 15.522 C 7.600 12.014, 10.266 8, 12.596 8 C 13.303 8, 14.160 7.550, 14.500 7 C 15.210 5.851, 15.177 5.850, 12.500 6.945 M 10.655 10.829 C 7.405 14.420, 9.009 20.921, 13.500 22.363 C 14.951 22.829, 14.745 22.432, 12.750 20.919 C 8.653 17.812, 9.008 12.742, 13.500 10.195 C 15.047 9.317, 15.139 9.054, 13.905 9.030 C 13.028 9.014, 11.565 9.823, 10.655 10.829" stroke="none" fill="#000000" fill-rule="evenodd"/><path fill-opacity=".288" d="M 14.713 7.012 C 15.075 8.393, 14.418 9.670, 12.620 11.084 C 11.179 12.218, 10 14.042, 10 15.138 C 10 17.680, 11.759 21, 13.107 21 C 13.677 21, 13.436 20.293, 12.571 19.429 C 10.581 17.438, 10.546 13.622, 12.502 11.998 C 13.415 11.241, 15.280 10.987, 17.252 11.353 L 20.500 11.955 18 10.513 C 15.030 8.800, 17.154 8.479, 20.316 10.164 C 22.290 11.216, 22.368 11.168, 21.128 9.664 C 20.373 8.749, 18.862 8, 17.771 8 C 16.417 8, 15.969 7.523, 16.362 6.500 C 16.701 5.615, 16.374 5, 15.562 5 C 14.677 5, 14.375 5.716, 14.713 7.012 M 8.455 8.455 C 7.105 9.805, 6.016 11.492, 6.035 12.205 C 6.055 12.917, 6.667 12.425, 7.396 11.110 C 8.124 9.796, 9.796 8.124, 11.110 7.396 C 12.425 6.667, 12.917 6.055, 12.205 6.035 C 11.492 6.016, 9.805 7.105, 8.455 8.455 M 18.083 6.365 C 18.313 6.565, 19.625 7.314, 21 8.028 C 23.287 9.217, 23.383 9.186, 22.128 7.664 C 21.373 6.749, 20.060 6, 19.211 6 C 18.362 6, 17.854 6.164, 18.083 6.365 M 10 10 C 8.900 11.100, 8.014 12.563, 8.030 13.250 C 8.048 13.960, 8.492 13.760, 9.060 12.786 C 9.609 11.843, 11.046 10.381, 12.252 9.536 C 13.458 8.691, 13.895 8, 13.223 8 C 12.550 8, 11.100 8.900, 10 10 M 24.819 14.903 C 25.097 17.818, 24.587 19.338, 22.495 21.823 C 20.758 23.888, 20.388 24.788, 21.445 24.383 C 24.704 23.132, 27.671 13.151, 25.232 11.643 C 24.809 11.382, 24.623 12.849, 24.819 14.903 M 5.501 17 C 6.199 21.943, 10.887 26.022, 15.766 25.930 C 18.765 25.873, 19.106 25.690, 17.500 25 C 16.153 24.421, 15.990 24.113, 17 24.055 C 18.185 23.987, 18.225 23.795, 17.190 23.139 C 16.203 22.513, 16.511 21.895, 18.440 20.631 C 21.643 18.533, 21.819 15.958, 18.750 16.116 C 17.057 16.203, 16.933 16.345, 18.250 16.689 C 20.646 17.316, 20.445 18.695, 17.750 20.115 C 16.512 20.766, 15.220 21.729, 14.877 22.253 C 13.970 23.641, 10.071 21.296, 8.945 18.685 C 8.129 16.793, 8.036 16.763, 8.258 18.465 C 8.399 19.545, 10.040 21.458, 11.905 22.715 C 13.888 24.052, 14.635 25, 13.704 25 C 11.184 25, 7.187 20.823, 6.049 17 L 5.007 13.500 5.501 17 M 23 15.865 C 23 16.891, 22.056 19.028, 20.902 20.615 L 18.805 23.500 21.402 20.694 C 23.648 18.268, 24.986 14, 23.500 14 C 23.225 14, 23 14.839, 23 15.865" stroke="none" fill="#000000" fill-rule="evenodd"/></svg>