<svg xmlns="http://www.w3.org/2000/svg" width="200" height="200" fill="#000000"><path fill-opacity=".11" fill-rule="evenodd" d="M130.691 3.75c-.932 2.063-4.353 6.108-7.602 8.989l-5.908 5.239-1.591-4.667c-.874-2.567-1.59-6.387-1.59-8.489C114 2.365 113.539 1 112.708 1c-2.552 0-9.834 8.778-13.582 16.371l-3.821 7.741-3.107-3.54c-1.709-1.946-3.655-5.365-4.323-7.596-1.512-5.046-3.656-4.947-6.214.287-2.571 5.263-4.973 20.122-4.362 26.987.281 3.162.192 5.75-.198 5.75S74.866 45.425 73 43.5c-4.134-4.265-6.404-4.692-4.975-.935 1.564 4.113 1.211 4.429-3.206 2.871-7.542-2.661-10.532-5.731-11.863-12.182C51.502 26.207 48.469 20 46.48 20c-.814 0-1.48.62-1.48 1.378s-.675 1.937-1.5 2.622-1.5 2.083-1.5 3.107-1.27 3.282-2.822 5.019l-2.821 3.158-3.599-7.578C29.109 20.023 21.88 11 19.373 11 18.479 11 18 12.182 18 14.385c0 1.862-.736 5.665-1.636 8.451l-1.636 5.065-5.95-5.175c-3.272-2.846-6.568-6.311-7.324-7.7C.28 12.868.074 26.154.04 106.25L0 200h98.918c54.405 0 99.63-.273 100.5-.607 1.427-.547 1.582-9.76 1.582-94 0-59.511-.351-93.393-.968-93.393-1.164 0-8.136 9.188-10.458 13.782-.912 1.805-2.179 6.853-2.815 11.217l-1.157 7.935-3.403-2.595c-4.438-3.386-11.853-5.705-12.893-4.034-.409.657-.758 7.12-.775 14.361s-.33 13.466-.695 13.831c-.366.366-1.641.142-2.835-.496-4.293-2.298-6.709-13.339-3.501-16.001 1.909-1.585 1.903-2.985-.019-4.39-1.349-.987-1.327-1.385.197-3.56 1.601-2.286 1.966-5.058 2.627-19.954.257-5.793-1.524-6.258-4.396-1.148-2.837 5.048-3.913 5.138-3.629.302.298-5.083-2.014-4.968-5.024.25a443 443 0 0 1-3.137 5.367c-.688 1.133-1.433 1.149-4.357.092l-3.528-1.276-.429-8.184c-.348-6.619-.952-9.074-3.16-12.841C135.144 2.096 133.571 0 133.15 0s-1.527 1.688-2.459 3.75M.48 106.5c0 51.7.121 72.703.27 46.674.148-26.029.148-68.329 0-94C.601 33.503.48 54.8.48 106.5m150.038-76.25c-2.242 3.808-10.716 15.668-15.018 21.018-3.262 4.058-7.107 5.162-6.225 1.788.788-3.014-2.61-3.3-34.638-2.91L65.5 50.5l-5.045-2.663c-2.775-1.465-7.387-4.769-10.25-7.343S45 36.328 45 36.955s1.125 2.183 2.5 3.457 2.5 3.071 2.5 3.993c0 2.763 3.979 9.852 7.721 13.755 3.368 3.512 3.685 5.84.797 5.84-.751 0-2.73 1.149-4.399 2.553-1.669 1.405-3.616 2.477-4.327 2.382-2.91-.387-3.84.237-5.686 3.815-3.12 6.048-10.001 12.128-18.295 16.163l-7.723 3.759 3.456 1.648c1.901.906 3.456 2.096 3.456 2.643 0 .548-1.906 1.969-4.236 3.157-3.854 1.966-4.043 2.232-2.102 2.951 3.48 1.287 3.577 2.693.349 5.079-2.494 1.844-2.771 2.405-1.528 3.1 2.118 1.186 1.89 3.036-.561 4.566-1.982 1.238-2.001 1.415-.403 3.854 1.591 2.427 1.598 4.925.028 9.83-.467 1.458.023 2.407 1.805 3.5 1.344.825 5.399 5.17 9.01 9.656 5.903 7.332 6.999 8.228 10.852 8.87 7.906 1.316 11.368 3.349 16.114 9.46 2.501 3.221 6.495 6.998 8.874 8.392 12.9 7.56 35.947 7.446 58.921-.293 18.496-6.23 25.755-10.669 35.383-21.634 6.21-7.074 9.924-9.521 15.769-10.39l3.775-.561-2.025-3.961c-2.411-4.717-2.557-6.539-.525-6.539 1.008 0 1.5-1.009 1.5-3.077 0-2.059.956-4.032 2.889-5.966l2.89-2.89-3.39-2c-1.864-1.1-3.389-2.607-3.389-3.349 0-.743 2.475-2.376 5.5-3.63 3.025-1.253 5.5-2.644 5.5-3.091 0-.446-2.475-1.589-5.5-2.541-6.213-1.954-7.11-4.022-2.5-5.762 3.578-1.351 3.8-2.263.75-3.081-3.056-.819-11.75-6.395-11.75-7.536 0-.505 2.515-2.703 5.589-4.884s5.212-4.177 4.75-4.437c-.461-.259-3.764-1.247-7.339-2.194-7.208-1.911-8.896-2.894-11.265-6.562-2.136-3.306-3.173-11.799-1.857-15.215.728-1.891.727-2.911-.003-3.362-.577-.357-.822-1.518-.544-2.58s-.131-3.149-.907-4.637-1.443-3.381-1.481-4.206-.54-.375-1.116 1c-.575 1.375-.973 7.504-.885 13.62l.161 11.12-9.173-.292c-5.046-.16-9.633-.751-10.194-1.312-.693-.693.922-3.139 5.044-7.637 3.334-3.639 7.561-9.514 9.391-13.054s3.892-6.439 4.579-6.441c.688-.002 1.25-1.129 1.25-2.504 0-3.211-.182-3.156-2.482.75M83.464 76.054c-8.394 1.082-16.643 4.173-22.385 8.388-6.728 4.939-6.914 6.02-1.839 10.693C63.78 99.314 74.108 105 77.16 105c1.012 0 1.84.45 1.84 1s-.45 1-1 1c-2.126 0-.856 4.764 2 7.5 3.538 3.39 3.752 5.635.916 9.618-3.693 5.187-9.256 7.335-19.058 7.36-9.514.024-12.858-1.56-12.858-6.089 0-2.163.435-2.319 7.25-2.595 5.647-.229 7.25-.626 7.25-1.794 0-1.142-1.493-1.571-6.25-1.798-3.438-.163-6.25-.76-6.25-1.325 0-.629 2.427-.901 6.25-.702 5.034.262 6.25.033 6.25-1.175 0-1.05-1.276-1.592-4.25-1.807-4.381-.317-4.832-.727-3.359-3.05.611-.965 2.559-1.254 6.734-1 4.686.285 5.875.057 5.875-1.126 0-4.051-32.187-3.931-39.81.149-1.377.737-1.551 1.296-.716 2.303.917 1.105 1.984 1.095 6.315-.058 2.866-.763 8.12-1.393 11.675-1.399 5.46-.01 6.237.196 5 1.325-.875.8-6.42 1.807-13.79 2.506C24.952 115.001 21 116.057 21 118.162c0 .73 1.742.886 5.25.471 13.128-1.556 21.04-1.911 20.426-.918-.347.562-3.896 1.344-7.885 1.737-8.262.814-14.183 2.909-13.521 4.784.496 1.407.95 1.399 8.616-.149 2.963-.598 6.676-1.087 8.25-1.087 2.408 0 2.864.409 2.864 2.566 0 6.029 4.452 9.177 14.278 10.097l6.222.583.23 6.019c.264 6.916 3.256 14.024 6.911 16.419 4.707 3.084 16.121-.381 23.197-7.042 3.703-3.486 6.562-8.494 7.602-13.315.604-2.799 1.178-3.248 4.872-3.818 10.481-1.618 16.622-5.207 20.372-11.91.758-1.353 1.622-1.359 7.833-.06 8.751 1.831 10.483 1.831 10.483 0 0-1.563-4.582-3.109-12.38-4.178-4.438-.608-6.502-1.812-5.251-3.064.314-.313 3.288-.034 6.611.619 6.357 1.251 8.273.906 7.412-1.336-.318-.829-3.697-1.839-8.706-2.601-4.502-.685-9.022-1.677-10.043-2.205-1.236-.638-2.223-.594-2.95.133-.601.601-4.186 1.093-7.966 1.093-6.008 0-6.831.22-6.536 1.75.289 1.5 1.29 1.702 7.009 1.412 3.669-.186 7.601-.043 8.736.318 3.995 1.268 1.993 2.432-4.686 2.724-5.202.228-6.75.64-6.75 1.796s1.46 1.545 6.361 1.694c3.498.107 6.605.438 6.903.737.299.299-1.091 2.084-3.089 3.969-4.384 4.134-10.212 5.6-22.27 5.6-7.687 0-8.73-.234-10.95-2.455-4.004-4.003-2.701-8.98 3.853-14.712 3.649-3.191 4.04-3.918 3.022-5.608-1.077-1.788-.681-2.077 5-3.654 7.082-1.965 27.297-12.155 28.06-14.145 1.187-3.094-12.514-11.011-22.89-13.227-7.528-1.607-15.312-2.012-22.036-1.145M80 80.406c-6.943 1.563-12.453 3.94-16.77 7.232l-3.377 2.576 2.303 2.452c1.267 1.348 5.664 4.113 9.772 6.143 6.937 3.428 8.079 3.684 16.021 3.591 9.537-.112 16.895-2.419 28.608-8.969 7.48-4.183 7.416-4.742-1.023-8.871-10.388-5.082-24.227-6.7-35.534-4.154m4.206.642c-2.976 1.194-5.364 6.911-4.562 10.92 1.327 6.639 11.603 9.703 16.033 4.782 3.882-4.313 3.669-5.607-.979-5.945-5.211-.379-5.522-2.195-.448-2.615 4.467-.37 4.872-2.159 1.295-5.735-2.596-2.597-7.011-3.144-11.339-1.407M108 106l-.002 1.645c-.001.355 7.649.743 17 .862 12.958.166 17.002-.077 17.002-1.02 0-.68-1.406-1.518-3.125-1.862-5.223-1.045-30.875-.733-30.875.375m-29.252 25.442c-2.079 1.521-2.327 6.122-.369 6.873.989.38 1.536-.643 1.936-3.624.306-2.284.472-4.237.369-4.34s-.974.388-1.936 1.091m5.942.201c-.379.38-.69 2.19-.69 4.024 0 4.083 2.473 4.568 3.45.677.672-2.68-1.345-6.116-2.76-4.701m-24.2 18.387c-1.942 6.121 2.996 13.22 10.126 14.558 10.528 1.975 31.033-5.848 29.028-11.074-.62-1.614-.833-1.623-2.906-.129-5.939 4.281-12.495 6.906-18.437 7.383-10.09.81-14.808-2.219-14.12-9.066.384-3.823-2.581-5.167-3.691-1.672"/><path fill-opacity=".194" fill-rule="evenodd" d="M131.537 2.833c-.367 1.669-3.44 5.589-7.487 9.547l-6.864 6.715-1.268-3.798c-.697-2.088-1.793-6.272-2.434-9.297L112.319.5l-4.615 4.721c-2.723 2.786-6.205 8.048-8.496 12.839l-3.881 8.117-2.815-3.338c-2.542-3.015-3.88-5.567-5.885-11.225-.636-1.795-.761-1.802-2.588-.149-3.468 3.138-5.215 10.333-5.774 23.785C77.973 42.262 77.36 48 76.902 48s-1.297-.869-1.865-1.93c-.568-1.062-2.414-2.914-4.102-4.116l-3.069-2.186.699 3.725c.671 3.576.603 3.697-1.683 3.003-4.102-1.244-11.986-5.82-12.825-7.443-.441-.854-1.097-3.578-1.459-6.053C51.508 25.545 45 16.079 45 21.948c0 1.163-.675 2.374-1.5 2.69-.825.317-1.5 1.481-1.5 2.587s-1.354 3.553-3.008 5.437l-3.008 3.426-1.032-2.794c-3.714-10.052-13.451-23.34-15.965-21.786-.543.335-1.012 2.496-1.043 4.801s-.839 6.12-1.796 8.477l-1.74 4.286-7.204-7.429L0 14.213v34.461l3.868 4.067c2.127 2.236 5.785 8.047 8.128 12.912l4.26 8.847 1.128-3c1.797-4.781 5.596-11.627 9.187-16.56C30.611 49.391 42 40.141 42 42.408c0 .847-1.35 2.239-3 3.092-3.656 1.89-3.806 3.243-.5 4.5 2.634 1.002 3.217 2.439 1.435 3.54-.695.429-.447 1.341.71 2.62 1.486 1.643 1.547 2.104.37 2.831-1.184.732-1.119 1.4.411 4.241 1.771 3.289 1.766 3.472-.221 7.365-4.154 8.143-18.107 17.755-27.216 18.748-4.94.539-4.954 2.916-.03 5.137 2.223 1.002 4.031 2.091 4.02 2.42s-1.836 1.882-4.054 3.451c-4.532 3.208-4.997 6.278-.9 5.947 1.962-.159 1.802.026-.775.894-3.936 1.327-4.166 3.262-.608 5.127l2.643 1.384-3.048 1.063c-2.732.952-3.108.837-3.629-1.103-.319-1.191-.612-3.74-.65-5.665-.075-3.782-2.434-10.228-5.156-14.091C.192 91.623.107 93.186.142 124.5c.034 30.066.162 32.555 1.44 28 2.305-8.216 5.417-24.457 5.433-28.358.024-5.567 1.121-6.61 4.312-4.099 3.512 2.762 3.408 6.05-.327 10.304-1.65 1.879-3 3.695-3 4.035s1.758.618 3.907.618c3.441 0 4.464.618 8.565 5.18 2.561 2.848 5.865 6.882 7.342 8.963 2.843 4.005 5.202 5.291 11.686 6.373 5.31.886 8.378 2.881 12.01 7.812 4.3 5.837 10.785 10.439 17.502 12.418l5.813 1.714 1.073 7.213c1.144 7.688 3.74 15.327 5.211 15.327 1.168 0 1.138-1.352-.057-2.55C79.725 196.121 77 185.252 77 181.29V178h5.481c5.173 0 5.513.155 6.058 2.75 2.469 11.774 4.518 17.25 6.453 17.25.517 0 .09-1.462-.95-3.25C92.501 192.099 90 182.243 90 178.816c0-.449.891-.816 1.981-.816 1.355 0 2.163.869 2.556 2.75 1.595 7.618 2.767 10.984 4.618 13.256 1.614 1.982 1.878 2.084 1.285.494-6.125-16.428-6.177-16.051 2.31-16.841 7.898-.736 30.314-8.002 39.443-12.786 4.212-2.207 9.296-6.335 15.307-12.427 4.95-5.017 9.983-9.644 11.184-10.284 1.202-.639 4.284-1.162 6.851-1.162h4.666l-.43-4.25c-.237-2.338-.78-5.037-1.208-6-.55-1.24-.334-1.75.742-1.75 1.168 0 1.481-1.097 1.357-4.75-.16-4.68-.095-4.784 4.338-7.017 5.502-2.771 6.01-3.915 2.331-5.243-7.308-2.637-7.306-2.491-.081-6.073 3.713-1.84 6.75-3.902 6.75-4.581 0-.678-2.475-2.014-5.5-2.968-5.414-1.706-7.235-3.368-3.691-3.368.995 0 2.675-.633 3.733-1.407 1.788-1.308 1.377-1.668-5.793-5.071-4.245-2.015-7.942-4.025-8.215-4.467-.592-.958 2.702-4.57 7.408-8.123 3.525-2.661 3.546-4.932.046-4.932-1.693 0-1.831-.556-1.301-5.25.326-2.887.723-5.405.881-5.594s1.145 1.327 2.194 3.371l1.906 3.715 3.886-4.871c2.137-2.679 5.587-6.773 7.666-9.099l3.78-4.227V31.081c0-9.879-.371-18.192-.824-18.472-1.125-.696-7.935 8.592-10.422 14.214-1.114 2.519-2.302 7.857-2.64 11.862l-.614 7.283-5.029-3.511c-2.766-1.931-6.704-3.783-8.75-4.115L169 37.738v14.631c0 15.604-.214 16.192-4.961 13.652-3.91-2.093-5.588-14.168-2.302-16.57 1.643-1.202 1.637-1.38-.107-3.307-1.793-1.982-1.787-2.114.22-4.934 1.235-1.734 1.699-3.261 1.156-3.804-.544-.544-.536-2.513.019-4.907.51-2.199.918-6.699.907-9.999-.021-5.893-.051-5.959-1.727-3.689a144 144 0 0 1-3.923 5l-2.219 2.689-.031-4.75c-.035-5.126-1.251-6.09-3.154-2.5-.656 1.238-2.248 3.93-3.537 5.983l-2.345 3.733-3.395-1.619c-3.329-1.588-3.403-1.761-3.757-8.733-.266-5.248-1.099-8.622-3.176-12.864C135.12 2.588 133.472 0 133.006 0s-1.127 1.275-1.469 2.833M.415 32c0 10.175.149 14.337.33 9.25.182-5.088.182-13.413 0-18.5-.181-5.088-.33-.925-.33 9.25m145.794 4c-8.068 12.185-14.466 19.577-16.081 18.579-.9-.556-.933-1.109-.124-2.084 1.984-2.39-2.746-2.858-25.504-2.52-40.384.599-37.381.763-43.417-2.368-2.98-1.546-7.817-5.08-10.75-7.854-3.352-3.17-5.333-4.462-5.333-3.48C45 38.879 46.138 41 47.536 41c.744 0 2.031 2.437 2.943 5.577 1.056 3.631 3 7.072 5.571 9.862C58.223 58.795 60 61.23 60 61.848c0 .619-1.463 1.736-3.25 2.484-1.788.747-3.815 2.04-4.506 2.873s-2.266 1.342-3.5 1.131c-1.824-.313-2.872.662-5.596 5.205-4.107 6.85-12.605 13.751-20.505 16.653l-5.858 2.152 3.608 1.851c1.984 1.018 3.595 2.403 3.581 3.077s-1.907 2.095-4.206 3.157l-4.181 1.931 2.706.902c3.293 1.098 3.497 3.255.457 4.836-3.236 1.684-3.242 1.699-1.326 3.816 1.672 1.848 1.638 1.997-.828 3.613l-2.572 1.686 1.988 2.527c2.378 3.024 2.474 4.803.464 8.657-.831 1.594-1.391 2.968-1.244 3.052 4.028 2.314 6.655 4.851 11.909 11.5 5.292 6.697 6.946 8.142 9.859 8.612 7.809 1.26 11.989 3.539 16.279 8.875 5.041 6.271 9.478 9.598 16.221 12.161 4.221 1.605 7.571 1.888 21.5 1.818l16.5-.083 14.11-4.719c17.771-5.943 24.499-9.923 34.497-20.408 7.765-8.143 13.878-12.139 18.643-12.185 2.774-.027 2.788-.548.147-5.475-1.907-3.559-1.954-4.032-.5-5.095.882-.645 1.603-1.889 1.603-2.765 0-2.816 2.081-6.273 4.75-7.892l2.598-1.577-4.174-2.129c-2.296-1.171-4.174-2.604-4.174-3.184s2.7-2.22 6-3.644 6-2.855 6-3.181-2.557-1.512-5.683-2.636-5.845-2.528-6.042-3.12 1.302-1.739 3.333-2.549l3.691-1.472-7.149-3.862c-3.933-2.124-7.15-4.417-7.15-5.096s2.494-3.021 5.543-5.204 5.182-4.193 4.741-4.466c-.441-.272-3.723-1.244-7.293-2.159-7.262-1.861-10.415-3.572-11.983-6.502-1.812-3.385-2.847-11.089-1.923-14.311.558-1.944.494-3.505-.175-4.311-.734-.885-.717-1.884.056-3.328.693-1.296.734-2.064.109-2.064-.978 0-2.413-4.102-3.847-11l-.728-3.5zM86.63 30.25c-.331 1.238-.609 5.571-.616 9.631L86 47.262l3.75-.62c2.063-.341 6.647-.625 10.187-.631l6.437-.011-2.937-3.094c-1.615-1.702-5.922-5.752-9.57-9-6.239-5.554-6.67-5.771-7.237-3.656m62.314 5.881c-3.039 5.986-7.613 12.541-12.322 17.657-2.775 3.015-3.632 4.602-2.888 5.346.581.581 4.817 1.094 9.412 1.139l8.354.081.029-10.927c.016-6.01.399-11.985.85-13.278.489-1.403.409-2.761-.199-3.369-.691-.691-1.731.386-3.236 3.351M127.51 42.99c-1.575 1.644-2.672 3.157-2.437 3.362s2.339.617 4.677.915c4.552.581 4.966.007 3.62-5.017-.814-3.036-2.439-2.831-5.86.74M77.5 77.346C67.354 79.973 56 86.933 56 90.526c0 3.306 17.163 14.471 22.25 14.473 2.142.001 2.308 1.573.25 2.363-2.412.925-1.751 3.354 2.059 7.571 3.414 3.78 3.499 4.053 2.095 6.753C79.028 128.656 72.326 132 61.982 132c-10.214 0-15.351-3.268-13.347-8.491.591-1.54 1.577-1.697 7.501-1.201 4.303.361 7.06.184 7.47-.48 1.091-1.765-1.813-2.797-7.915-2.813-4.05-.01-5.598-.356-5.113-1.141.452-.732 2.751-.941 6.559-.595 3.486.316 6.117.119 6.491-.486.947-1.532-1.669-2.761-5.913-2.778-3.527-.014-3.709-.158-2.668-2.102.981-1.835 1.864-2.047 7.285-1.75 4.966.271 6.168.045 6.168-1.163 0-1.116-1.793-1.701-7-2.285-12.798-1.436-33.5.955-33.5 3.868 0 1.673.422 1.704 6.701.486 2.639-.512 7.949-1.207 11.799-1.545 6.973-.611 6.992-.606 5 1.357-1.583 1.561-4.395 2.205-13.5 3.094-14.051 1.371-16 1.827-16 3.747 0 1.153.76 1.366 3.25.911 1.787-.326 7.413-.894 12.5-1.26 12.301-.887 12.301.976 0 2.545-5.205.664-9.88 1.804-10.69 2.607q-3.253 3.221 4.058 1.534c2.41-.555 6.52-1.021 9.132-1.035 4.399-.022 4.75.16 4.75 2.46 0 4.395 4.757 8.404 11.398 9.605 3.244.587 6.675.864 7.626.615 1.492-.39 1.793.542 2.195 6.81.51 7.946 2.506 12.454 6.994 15.799 2.473 1.844 3.184 1.916 8.055.826 10.63-2.379 21.695-13.264 21.723-21.37.01-2.913.358-3.079 8.851-4.233 7.68-1.042 16.158-6.904 16.158-11.171 0-1.741 1.389-1.715 10.647.197 4.159.859 7.852 1.272 8.206.918 1.344-1.344-3.391-3.44-10.451-4.626-4.585-.771-7.542-1.776-7.89-2.684-.462-1.203.342-1.337 4.716-.786 2.899.365 6.172.766 7.272.89 1.206.136 2-.365 2-1.264 0-1.018-1.586-1.738-5-2.272a542 542 0 0 1-9.5-1.582c-6.025-1.074-20.226-.01-20.741 1.554-.287.871 2.051 1.291 8.34 1.5 5.886.195 8.875.698 9.154 1.54.303.915-1.349 1.25-6.17 1.25-5.185 0-6.583.319-6.583 1.5 0 1.165 1.327 1.5 5.941 1.5 3.268 0 6.24.483 6.605 1.074.802 1.299-3.035 5.59-6.708 7.501-3.99 2.076-20.187 3.677-24.754 2.448-5.719-1.54-7.462-4.014-6.649-9.436.554-3.696 1.282-4.867 4.113-6.617 4.177-2.581 5.589-4.845 4.404-7.059-.74-1.384.427-2.066 7.436-4.346 9.356-3.043 24.956-11.519 25.41-13.805.414-2.081-8.967-8.11-16.852-10.831C103 76.187 85.225 75.346 77.5 77.346m.959 2.988c-6.042 1.541-12.894 4.782-16.845 7.968l-2.887 2.327 5.037 3.698c14.792 10.858 29.113 11.364 48.399 1.711 4.304-2.154 8.775-4.582 9.937-5.396 2.056-1.44 1.969-1.563-3.243-4.571-2.947-1.699-7.607-3.806-10.357-4.682-6.645-2.115-23.559-2.709-30.041-1.055M.195 82.5c.02 1.65.244 2.204.498 1.231s.237-2.323-.037-3-.481.119-.461 1.769M85 81.279c-3.7 1.848-6.037 7.105-4.908 11.04 1.913 6.673 10.625 9.055 15.453 4.226C99.299 92.792 98.773 91 93.917 91c-5.211 0-4.865-2.365.41-2.81 4.545-.384 4.73-2.123.596-5.601-3.385-2.848-6.122-3.21-9.923-1.31m23.459 24.788c-.363.586-.458 1.267-.213 1.513.993.992 33.775.982 33.444-.011-.601-1.803-4.921-2.368-18.881-2.469-8.723-.064-13.93.287-14.35.967M78.2 131.2c-1.487 1.487-1.577 6.449-.133 7.341 1.485.918 1.749.464 2.515-4.329.68-4.254-.123-5.271-2.382-3.012m5.786 1.042c-.007 1.242-.285 3.27-.616 4.508-.479 1.787-.19 2.25 1.406 2.25 3.556 0 4.461-5.746 1.224-7.768-1.778-1.11-2.002-.998-2.014 1.01m-23.017 17.817c-2.636 4.924 2.166 12.089 9.415 14.049 7.735 2.092 23.696-2.679 28.558-8.538 1.87-2.253.423-3.284-2.237-1.594-9.571 6.079-18.507 8.535-25.399 6.98-5.296-1.194-7.306-3.563-7.306-8.611 0-4.666-1.252-5.61-3.031-2.286M34 159.394C34 173.1 39.388 199 42.239 199c.549 0 .646-.766.222-1.75-3.34-7.764-5.663-18.849-6.182-29.5-.315-6.463-.957-11.75-1.426-11.75S34 157.527 34 159.394m161.738 3.598c-3.836 4.482-5.738 9.744-5.738 15.874 0 3.008.409 4.134 1.5 4.134.825 0 1.5-.379 1.5-.843s1.575-1.69 3.5-2.727l3.5-1.885v-9.272c0-5.1-.19-9.273-.422-9.273s-1.96 1.797-3.84 3.992m-36.946 23.787c-5.35 5.61-9.457 11.89-8.439 12.907.275.275 1.215-.883 2.088-2.573.874-1.69 4.334-6.006 7.689-9.593s5.666-6.52 5.137-6.52-3.443 2.601-6.475 5.779m-10.119-.839c-4.068 4.503-6.687 9.141-6.642 11.76.017.99 1.106-.394 2.42-3.075s4.091-6.619 6.172-8.75 3.294-3.875 2.696-3.875-2.688 1.773-4.646 3.94m-80.163 2.729c.606 5.824 2.292 11.331 3.47 11.331.431 0 .182-1.687-.554-3.75s-1.39-4.875-1.452-6.25-.539-3.4-1.058-4.5c-.667-1.413-.786-.484-.406 3.169M31.033 190.3c-.031 2.619 2.689 9.311 3.468 8.532.195-.194-.499-2.824-1.541-5.843-1.463-4.238-1.902-4.851-1.927-2.689m51.967.167c0 2.972 2.247 9.533 3.265 9.533.522 0 .624-.787.227-1.75s-1.081-3.248-1.52-5.079c-.927-3.87-1.972-5.303-1.972-2.704m111 1.606c-3.025 1.653-6.615 4.112-7.977 5.466L183.545 200h7.759c8.679 0 9.014-.27 8.509-6.851l-.313-4.08zm-25.806 3.945c-1.819 2.19-2.872 3.982-2.339 3.982 1.151 0 6.145-5.751 6.145-7.077 0-1.396-.237-1.203-3.806 3.095m6.322 1.598c-1.116 1.703-1.273 2.47-.451 2.196 1.665-.555 4.471-4.812 3.172-4.812-.554 0-1.778 1.177-2.721 2.616m-17.333-.399c-1.4 1.4-1.545 2.783-.29 2.783.916 0 2.425-3.016 1.814-3.626-.187-.188-.873.192-1.524.843"/><path fill-opacity=".344" fill-rule="evenodd" d="M131.295 3.827c-1.017 3.261-.985 3.455.28 1.732.784-1.068 1.445-2.418 1.47-3 .025-.583 1.13.966 2.455 3.441 2.895 5.407 3.34 4.566.514-.972-2.703-5.299-3.386-5.473-4.719-1.201M107.19 6.41c-2.236 2.425-5.218 6.685-6.627 9.467-3.802 7.501-3.062 7.634.958.172 1.912-3.548 4.939-7.964 6.728-9.813l3.251-3.363.632 2.814.631 2.813.119-3.25c.065-1.788-.275-3.25-.755-3.25s-2.701 1.984-4.937 4.41m20.215 3.84L125.5 12.5l2.25-1.905c1.238-1.048 2.25-2.06 2.25-2.25 0-.8-.805-.209-2.595 1.905m-14.326.333c.048 1.165.285 1.402.604.605.289-.722.253-1.585-.079-1.917s-.568.258-.525 1.312m-28.801.667c-1.653 2.138-2.552 4.404-.992 2.5 1.979-2.414 2.452-2.22 3.23 1.325.372 1.69 2.643 5.289 5.047 7.996 4.019 4.525 4.454 4.766 5.404 2.991 1.367-2.555 1.277-4.087-.101-1.716-.999 1.719-1.304 1.621-4.447-1.424-1.856-1.799-4.095-5.442-4.977-8.096-1.771-5.332-1.789-5.353-3.164-3.576m53.801 1.333c.048 1.165.285 1.402.604.605.289-.722.253-1.585-.079-1.917s-.568.258-.525 1.312M19.116 14.25c.095 1.851.201 1.921.594.395.423-1.643.896-1.472 4.134 1.5L27.5 19.5l-3.446-3.75c-3.967-4.317-5.101-4.661-4.938-1.5m101.922 1.211c-1.845 1.904-3.792 3.191-4.326 2.861s-.789-.054-.567.614c.676 2.028 1.259 1.73 5.248-2.686 4.612-5.105 4.363-5.657-.355-.789m-7.007-1.961c0 .55.436 1.675.969 2.5s.969 1.05.969.5-.436-1.675-.969-2.5-.969-1.05-.969-.5m82.167 3.25c-4.032 5.092-7.043 11.064-7.694 15.264-.412 2.657-.16 2.315 1.059-1.438 2.003-6.169 9.149-16.872 10.646-15.947.662.409.816.22.386-.474-1.006-1.629-1.092-1.578-4.397 2.595M1 16.646c0 .539 1.462 2.302 3.25 3.917L7.5 23.5l-3-3.495c-1.65-1.922-3.113-3.685-3.25-3.917s-.25.019-.25.558M139.252 19.5c.011 2.2.216 2.982.455 1.738s.23-3.044-.02-4-.446.062-.435 2.262M18.158 19c0 1.375.227 1.938.504 1.25.278-.687.278-1.812 0-2.5-.277-.687-.504-.125-.504 1.25m141.678 3.25L156.5 27.5l-.307-4.814c-.385-6.018-1.707-5.749-5.648 1.148-2.396 4.192-3.343 5.063-5 4.603-1.518-.422-1.685-.32-.649.397 1.8 1.244 1.323 2.331-4.439 10.136-4.209 5.701-4.878 6.236-5.631 4.5-.681-1.572-.775-1.399-.463.859.479 3.475-.846 4.089-6.436 2.983l-4.24-.838 3.647-3.867c3.047-3.231 3.896-3.661 5.157-2.615.866.719 1.509.82 1.509.237 0-.558-.741-1.299-1.647-1.647-1.132-.434-2.99.769-5.933 3.84l-4.286 4.473-6.904-.579-6.904-.579-10.413-9.868c-5.727-5.427-10.73-9.868-11.118-9.869-1.005 0-2.053 6.293-1.518 9.119.316 1.67.491 1.286.587-1.287.245-6.613.808-6.843 5.888-2.409 9.82 8.572 14.703 13.455 14.079 14.079-.356.356-4.93.903-10.165 1.215l-9.518.568-.414-3.392-.414-3.393-.16 3.137c-.136 2.665-.606 3.201-3.126 3.571l-2.966.436-.325-9.572-.324-9.572-.21 9.75c-.115 5.362-.529 9.75-.921 9.75s-2.707-1.913-5.145-4.25c-2.501-2.397-4.152-3.451-3.788-2.418.355 1.007.652 2.357.66 3 .011.816.257.788.816-.093.595-.937 1.405-.616 3.159 1.25L75.349 48h-2.175C71.978 48 71 47.564 71 47.031s-.656-.716-1.459-.408c-2.14.821-7.803-1.306-12.462-4.681-3.001-2.173-4.098-3.68-4.149-5.698-.059-2.286-.196-2.424-.822-.827-.673 1.717-1.052 1.523-3.63-1.857-3.022-3.962-3.995-10.554-1.672-11.329.664-.221.948-.821.631-1.333-.855-1.383-2.437-.05-2.437 2.054 0 1.009-.675 2.093-1.5 2.41-.825.316-1.5 1.668-1.5 3.003 0 1.536-1.324 3.59-3.605 5.593-1.983 1.741-3.365 3.406-3.071 3.699.293.294 1.902-.972 3.575-2.812l3.042-3.345.03 3.663c.026 3.289-.611 4.195-6.221 8.846-7.713 6.395-11.562 11.116-15.895 19.496-1.845 3.568-3.634 6.489-3.974 6.491s-1.754-2.584-3.142-5.746C9.748 57.43 4.89 50.547 1.963 48.98c-1.155-.618-.295.737 1.913 3.011 2.207 2.275 5.844 7.971 8.082 12.66l4.07 8.524 3.924-7.837c4.436-8.859 8.358-13.797 16.451-20.711C41.669 40.128 42 39.988 42 42.262c0 1.608-.837 2.798-2.5 3.556-3.216 1.465-3.177 2.974.109 4.223 2.104.8 2.381 1.266 1.433 2.409-.916 1.103-.804 1.983.506 3.983 1.53 2.335 1.536 2.567.067 2.567-2.021 0-2.018.509.025 3.968.996 1.685 1.398 3.743 1.024 5.234-.863 3.441-6.385 10.152-11.364 13.811C26.365 85.64 16.113 90 12.52 90c-3.679 0-3.083 1.672 1.412 3.965C17.906 95.993 19.977 98 18.094 98 16.763 98 10 103.936 10 105.104c0 .493 1.238.933 2.75.978l2.75.081-3.25 1.421C9.311 108.87 7.789 111 9.809 111c.445 0 1.655.619 2.69 1.376 1.778 1.299 1.692 1.474-1.546 3.149-3.163 1.635-3.281 1.858-1.529 2.874 3.109 1.802 5.576 4.5 5.576 6.098 0 .824-1.593 3.261-3.54 5.416-3.358 3.716-3.422 5.777-.14 4.518 2.84-1.09 7.485 2.532 14.082 10.98 6.281 8.043 6.851 8.503 11.355 9.152 7.585 1.093 10.893 2.945 14.685 8.224 4.43 6.165 9.88 9.985 18.414 12.906 6 2.054 8.146 2.244 22.144 1.958l15.5-.315 15.615-5.181c18.639-6.184 24.466-9.676 35.942-21.535 8.727-9.017 12.718-11.268 17.946-10.119 2.862.628 2.997.508 2.991-2.672-.004-1.831-.652-4.567-1.441-6.079-1.329-2.548-1.292-2.75.506-2.75 2.271 0 2.299-.12.799-3.412-1.497-3.285.931-7.184 5.72-9.185 4.457-1.862 4.319-3.06-.578-5.02-2.2-.88-4-1.921-4-2.313s2.774-2.031 6.165-3.642 6.139-3.378 6.108-3.928c-.03-.55-2.579-1.891-5.664-2.98S182 96.244 182 95.882s1.575-.955 3.5-1.316 3.485-1.199 3.466-1.861c-.019-.663-3.394-2.737-7.5-4.61s-7.466-4-7.466-4.727 2.363-3.181 5.25-5.454c6.302-4.96 6.655-5.649 3.321-6.486-2.432-.61-2.571-.997-2.571-7.159 0-5.453.227-6.326 1.392-5.358.766.635 1.946 2.49 2.622 4.122S185.562 66 185.952 66s2.241-2.138 4.114-4.75 4.974-6.55 6.892-8.75c2.778-3.188 2.909-3.493.641-1.5-1.564 1.375-4.603 4.863-6.753 7.75-2.15 2.888-4.232 5.233-4.628 5.211s-1.618-1.452-2.718-3.179c-3.412-5.358-4.5-4.721-4.5 2.635 0 3.62-.338 6.58-.75 6.577s-2.437-.474-4.5-1.047L170 67.906V53.453c0-10.907.307-14.448 1.25-14.431 2.201.039 9.149 3.583 12.394 6.323 1.73 1.46 3.417 2.655 3.75 2.655s.523-2.812.421-6.25l-.185-6.25-.367 5.25c-.202 2.888-.599 5.25-.882 5.25s-1.971-1.111-3.752-2.469c-4.148-3.164-10.465-5.808-12.246-5.125-1.085.417-1.383 3.514-1.383 14.396 0 7.626-.282 14.147-.627 14.491-1.146 1.146-6.444-2.35-7.41-4.89-.523-1.375-1.029-4.567-1.124-7.093-.133-3.499.282-4.93 1.744-6.013 1.889-1.4 1.889-1.441-.001-2.842-1.713-1.27-1.775-1.717-.576-4.188.739-1.522 1.433-5.242 1.543-8.267l.201-5.5-.934 4.25c-1.427 6.493-4.816 5.267-4.816-1.742 0-1.556 1.238-4.727 2.75-7.047l2.75-4.218.6 4.378c.593 4.331.601 4.315.75-1.371.082-3.163-.036-5.75-.264-5.75s-1.916 2.362-3.75 5.25m-79.757-1.667c.048 1.165.285 1.402.604.605.289-.722.253-1.585-.079-1.917s-.568.258-.525 1.312M11.11 26.791l3.291 4.291 1.378-2.629c.758-1.446 1.117-2.89.799-3.208s-.585-.166-.593.338-.411 1.541-.893 2.303c-.69 1.089-1.561.661-4.075-2L7.819 22.5zm19.585-.304c.915 1.919 1.841 3.31 2.058 3.093.457-.457-2.578-6.58-3.263-6.58-.251 0 .291 1.569 1.205 3.487m19.248 1.498c.856 2.676 1.706 4.453 1.887 3.949.416-1.152-1.723-7.75-2.71-8.36-.404-.249-.033 1.736.823 4.411M79.195 25.5c.02 1.65.244 2.204.498 1.231s.237-2.323-.037-3-.481.119-.461 1.769M138 24.893c0 1.266 3.944 3.497 4.752 2.688.32-.32.088-.581-.514-.581s-1.802-.707-2.667-1.571c-.864-.865-1.571-1.106-1.571-.536m9.616 8.647C141.525 42.893 132.001 55 130.735 55c-.524 0-.681-1.08-.35-2.4l.603-2.399-12.744-.76c-7.629-.454-19.367-.308-29.244.366-22.426 1.529-27.268.284-38.368-9.86L45 34.799V40.2c0 2.97-.521 5.921-1.158 6.558-.827.827-.852 1.526-.088 2.45.588.71 1.099 2.417 1.135 3.792s.27 5.391.52 8.924c.351 4.959.029 7.257-1.412 10.081-2.953 5.789-12.88 14.295-20.424 17.502l-6.666 2.833 3.547 2.026c1.95 1.115 3.546 2.38 3.546 2.81s-1.888 1.746-4.195 2.924l-4.195 2.14 2.695 1.412c3.472 1.819 3.401 2.868-.305 4.508-3.334 1.476-3.74 2.342-1.5 3.202 2.141.821 1.853 3.379-.523 4.65-1.86.996-1.901 1.259-.5 3.258 1.91 2.727 1.963 7.657.11 10.302-1.296 1.85-1.17 2.124 1.517 3.314 1.612.713 5.886 5.082 9.498 9.708 4.548 5.824 7.387 8.575 9.233 8.944 10.534 2.11 12.953 3.425 17.921 9.742 8.893 11.309 17.717 14.259 40.363 13.494 13.943-.47 14.808-.63 28.381-5.242 17.534-5.958 23.806-9.708 34.5-20.629 9.388-9.587 11.342-10.902 16.49-11.095 4.161-.157 4.489-1.69 1.433-6.703-1.657-2.718-1.806-3.563-.747-4.235.728-.462 1.586-.846 1.907-.855.321-.008.584-1.435.584-3.171 0-2.282.877-3.941 3.166-5.986 1.742-1.557 3.167-2.993 3.167-3.192s-1.8-1.174-4-2.166-4-2.089-4-2.437c0-.349 3.037-2.151 6.75-4.004l6.75-3.371-6.284-2.047c-7.122-2.321-7.827-4.254-2.237-6.135l3.479-1.17-7.424-3.918c-4.083-2.155-7.591-4.456-7.794-5.114-.204-.658 2.134-2.86 5.195-4.892S179 74.375 179 73.958s-2.363-1.314-5.25-1.993c-14.365-3.379-16.151-5.447-16.378-18.965-.088-5.225.258-10.288.769-11.25.691-1.301.545-1.75-.566-1.75-.888 0-1.89-1.523-2.468-3.75-.535-2.062-1.341-5.203-1.79-6.979l-.817-3.23zM33.031 31.5c0 .55.436 1.675.969 2.5s.969 1.05.969.5-.436-1.675-.969-2.5-.969-1.05-.969-.5m114.038 8.142c-1.887 3.649-5.824 9.22-8.75 12.38-2.925 3.16-5.319 5.969-5.319 6.243 0 .434 7.944 2.735 9.443 2.735.306 0 .557-.666.557-1.481 0-.814-1.132-1.765-2.515-2.112l-2.515-.631 3.266-3.638c1.797-2.001 4.264-4.988 5.484-6.638l2.217-3 .031 8.25c.026 6.653.322 8.25 1.532 8.25 1.216 0 1.5-1.611 1.5-8.5 0-6.797-.293-8.5-1.464-8.5-1.214 0-1.128-.786.5-4.583 2.319-5.412 2.32-5.418.714-5.413-.687.002-2.794 2.989-4.681 6.638M46.543 45.25c.915 4.242 4.132 10.649 6.814 13.574 1.956 2.134 1.992 2.401.436 3.272C50.056 64.187 47.578 68 49.956 68c.525 0 2.565-1.092 4.533-2.428 1.967-1.335 4.118-2.608 4.78-2.828.721-.241-.491-2.325-3.023-5.202-2.522-2.865-4.907-6.964-5.918-10.171-1.905-6.044-5.007-7.782-3.785-2.121m31.23 32.305C68.233 79.867 56 87.123 56 90.468c0 3.099 14.949 12.869 21.598 14.116 3.805.714 4.427 1.915 1.402 2.706-2.953.772-2.443 3.2 1.5 7.143 4.093 4.093 4.187 4.719 1.396 9.235-3.389 5.484-10.794 8.714-20.09 8.764-9.185.05-13.306-2.131-13.306-7.04V122.5l7.25-.294c3.987-.161 7.25-.668 7.25-1.125 0-1.008-4.992-2.081-9.684-2.081-2.035 0-3.182-.407-2.816-1 .34-.55 3.291-1 6.559-1s5.941-.398 5.941-.883c0-1.06-3.487-2.084-7.156-2.103-2.457-.013-2.57-.195-1.513-2.436 1.087-2.304 1.473-2.394 7.906-1.855 4.474.375 6.763.206 6.763-.499 0-3.807-38.197-2.951-40.583.91-1.085 1.756-.01 1.803 8.12.355 4.38-.781 9.886-1.435 12.236-1.454l4.273-.035-1.638 2.5c-1.487 2.269-2.279 2.5-8.58 2.5C32.764 114 22 115.941 22 117.755c0 1.047.687 1.289 2.421.854 5.652-1.418 21.988-2.6 22.93-1.658 1.229 1.229-3.241 3.032-7.666 3.093-4.78.065-11.701 1.572-12.949 2.82-1.785 1.785-.123 2.414 3.447 1.304 1.824-.566 6.039-1.32 9.367-1.674l6.05-.644v3.482c0 6.27 5.226 9.668 14.868 9.668H66v4.557c0 6.663 1.818 12.8 4.876 16.464 2.256 2.702 3.355 3.212 6.823 3.164 9.777-.135 21.972-9.334 24.285-18.317a569 569 0 0 1 1.385-5.312c.143-.519 3.528-1.494 7.522-2.167 8.422-1.42 14.19-4.756 16.071-9.298 1.492-3.601 3.268-3.833 12.538-1.641 3.549.84 6.373 1.053 6.913.522 1.23-1.209-2.963-2.714-11.484-4.121-5.77-.953-6.929-1.465-6.929-3.065 0-1.356.514-1.771 1.75-1.413 4.341 1.26 13.25 1.807 13.25.813 0-.938-2.916-1.704-14-3.676-3.951-.702-20.059-.592-21.253.147-2.259 1.396 1.304 2.343 8.812 2.343 4.961 0 8.441.412 8.441 1 0 .55.112 1.288.25 1.639.138.352-2.636.69-6.163.75-4.156.072-6.561.551-6.834 1.361-.307.916 1.34 1.25 6.164 1.25 7.646 0 8.513 1.394 3.677 5.912-3.628 3.389-8.343 4.822-18.684 5.679-13.907 1.152-19.493-2.492-17.169-11.2.823-3.084 1.976-4.547 4.917-6.24 2.765-1.591 3.842-2.88 3.842-4.598 0-1.312-.562-2.596-1.25-2.853-1.414-.528-1.378-.543 7.75-3.171 5.621-1.619 20.62-8.887 24.931-12.083 1.89-1.401 1.88-1.486-.465-3.982-8.358-8.897-32.171-13.793-48.193-9.909m-1.975 3.376c-6.093 1.948-13.685 6.023-15.665 8.408-.988 1.191-.521 2.023 2.58 4.592 10.45 8.657 24.928 11.364 38.109 7.126 7.48-2.405 22.113-9.967 22.363-11.557.292-1.854-10.363-7.38-17.248-8.946-9.241-2.102-22.922-1.931-30.139.377m9.531.527c-6.096 2.652-7.266 9.759-2.406 14.619 3.727 3.726 7.833 3.841 12 .334C99.245 92.775 98.942 91 94 91c-2.889 0-4-.417-4-1.5s1.111-1.5 4-1.5c2.2 0 4-.255 4-.566 0-1.716-2.427-4.603-4.98-5.924-3.495-1.807-3.655-1.808-7.691-.052M.079 83.583c.048 1.165.285 1.402.604.605.289-.722.253-1.585-.079-1.917s-.568.258-.525 1.312M2.728 98c2.661 5.279 2.772 6.099 2.767 20.429-.004 8.712.285 13.293.692 11 2.235-12.587.228-28.715-4.29-34.462-1.282-1.63-1-.601.831 3.033m107.022 7.624c-4.784 1.43-.249 2.235 14.5 2.574 15.517.356 19.417-.05 16.689-1.736-1.434-.886-28.587-1.616-31.189-.838M78.9 130.282c-2.166 1.651-3.03 7.731-1.197 8.434 1.973.757 2.522-.109 3.296-5.206.724-4.774.461-5.178-2.099-3.228m5.1.438c0 1.117-.289 3.476-.643 5.243-.591 2.958-.452 3.187 1.75 2.875 3.282-.464 3.869-5.644.942-8.294-2.001-1.811-2.049-1.807-2.049.176M2.65 142.15c-.993 4.416-1.619 8.215-1.391 8.442S2.494 147.403 3.5 143s1.632-8.202 1.391-8.442-1.248 3.176-2.241 7.592m71.092 5.626-3.759 1.724 1.994 3.25c2.098 3.42 4.023 4.267 4.023 1.769 0-.814 1.145-1.768 2.544-2.119 1.407-.354 2.301-1.144 2-1.769-.298-.622-.82-1.918-1.16-2.881-.752-2.132-.938-2.131-5.642.026m9.666-.627c-.319.516-.06 1.565.575 2.331 1.627 1.96-.418 5.487-3.268 5.636-1.563.082-1.724.246-.546.558 2.835.75 14.158-5.68 12.653-7.186-1.066-1.066-8.895-2.18-9.414-1.339m-21.769 1.545c-.351.352-.639 2.357-.639 4.457 0 2.794.773 4.682 2.883 7.044 2.643 2.958 3.475 3.26 10.006 3.629 4.937.279 8.713-.118 12.306-1.293 6.464-2.114 14.354-7.382 13.035-8.701-.601-.601-2.589.155-5.401 2.053-6.044 4.079-15.312 6.572-21.168 5.693-5.841-.875-10.091-5.342-9.152-9.617.583-2.655-.532-4.603-1.87-3.265M.158 154c0 1.375.227 1.938.504 1.25.278-.687.278-1.812 0-2.5-.277-.687-.504-.125-.504 1.25m196.46 8.257c-3.251 4.262-5.624 8.869-5.533 10.743.04.825.547.15 1.126-1.5.58-1.65 2.569-5.137 4.42-7.75 3.8-5.363 3.79-6.48-.013-1.493M35.286 170.5c.008 2.75.202 3.756.432 2.236s.223-3.77-.014-5-.425.014-.418 2.764m154.874 6.668c-.088 1.468.113 3.38.447 4.249.524 1.366.982 1.275 3.366-.668 1.517-1.237 3.607-2.818 4.643-3.513 1.036-.696.45-.586-1.303.243s-3.466 1.96-3.809 2.514c-1.196 1.936-2.381.981-2.781-2.243-.344-2.779-.426-2.863-.563-.582M36.158 179c0 1.375.227 1.938.504 1.25.278-.687.278-1.812 0-2.5-.277-.687-.504-.125-.504 1.25m40.094 3.5c.011 2.2.216 2.982.455 1.738s.23-3.044-.02-4-.446.062-.435 2.262m12.906-1.5c0 1.375.227 1.938.504 1.25.278-.687.278-1.812 0-2.5-.277-.687-.504-.125-.504 1.25m5.921.583c.048 1.165.285 1.402.604.605.289-.722.253-1.585-.079-1.917s-.568.258-.525 1.312m67.845 2.167-2.424 2.75 2.75-2.424c1.512-1.334 2.75-2.571 2.75-2.75 0-.785-.81-.146-3.076 2.424m-12.519.5-1.905 2.25 2.25-1.905c2.114-1.79 2.705-2.595 1.905-2.595-.19 0-1.202 1.012-2.25 2.25m-113.326.333c.048 1.165.285 1.402.604.605.289-.722.253-1.585-.079-1.917s-.568.258-.525 1.312m31 1c.048 1.165.285 1.402.604.605.289-.722.253-1.585-.079-1.917s-.568.258-.525 1.312M90.158 187c0 1.375.227 1.938.504 1.25.278-.687.278-1.812 0-2.5-.277-.687-.504-.125-.504 1.25m5.921-.417c.048 1.165.285 1.402.604.605.289-.722.253-1.585-.079-1.917s-.568.258-.525 1.312m-58 2c.048 1.165.285 1.402.604.605.289-.722.253-1.585-.079-1.917s-.568.258-.525 1.312m108.728.167c-1.762 2.052-3.083 4.25-2.554 4.25.204 0 1.369-1.35 2.589-3 2.41-3.26 2.388-4.071-.035-1.25m-69.728.833c.048 1.165.285 1.402.604.605.289-.722.253-1.585-.079-1.917s-.568.258-.525 1.312m-46 1c.048 1.165.285 1.402.604.605.289-.722.253-1.585-.079-1.917s-.568.258-.525 1.312m38.116.917c.02 1.65.244 2.204.498 1.231s.237-2.323-.037-3-.481.119-.461 1.769m86.128-.25c-1.114 1.238-2.383 2.925-2.821 3.75-.844 1.591-.614 1.374 3.437-3.25 1.325-1.512 2.185-2.75 1.91-2.75s-1.412 1.012-2.526 2.25m42.118-.695c-1.864 1.494-1.852 1.512.309.465 1.238-.6 2.25-1.3 2.25-1.555 0-.765-.519-.544-2.559 1.09m-158.41.945c0 .55.436 1.675.969 2.5s.969 1.05.969.5-.436-1.675-.969-2.5-.969-1.05-.969-.5m58.969.211c0 .574.787 1.662 1.75 2.417 1.619 1.269 1.64 1.222.283-.628-.807-1.1-1.594-2.187-1.75-2.417s-.283.054-.283.628M78.079 192.8c-.088 1.445 2.687 7.2 3.472 7.2.275 0-.124-1.238-.888-2.75s-1.64-3.425-1.947-4.25c-.375-1.008-.584-1.073-.637-.2m111.158 2.727c-2.881 1.939-5.237 3.762-5.237 4.049 0 .585.708.171 6.769-3.959 3.698-2.52 4.902-3.617 3.968-3.617-.145 0-2.62 1.587-5.5 3.527m-105.158-.944c.048 1.165.285 1.402.604.605.289-.722.253-1.585-.079-1.917s-.568.258-.525 1.312m84.845 1.167-2.424 2.75 2.75-2.424c1.512-1.334 2.75-2.571 2.75-2.75 0-.785-.81-.146-3.076 2.424m5.481 2.5-1.905 2.25 2.25-1.905c2.114-1.79 2.705-2.595 1.905-2.595-.19 0-1.202 1.012-2.25 2.25M85 197.941c0 .518.445 1.216.989 1.552.566.35.734-.051.393-.941-.665-1.732-1.382-2.049-1.382-.611m71.872.809c-1.243 1.586-1.208 1.621.378.378 1.666-1.307 2.195-2.128 1.372-2.128-.207 0-.995.787-1.75 1.75M197 199c-.825.533-1.05.969-.5.969s1.675-.436 2.5-.969 1.05-.969.5-.969-1.675.436-2.5.969"/><path fill-opacity=".867" fill-rule="evenodd" d="M152.373 21.25c-1.88 3.64-9.254 14.923-14.452 22.112l-3.421 4.731-8.287-.601c-4.557-.331-15.582-.48-24.5-.33-34.012.571-34.827.531-39.713-1.915-8.255-4.134-17-13.362-17-17.941 0-1.268-.394-2.306-.875-2.306C42.851 25 42 30.263 42 38.15c0 6.439-.167 6.963-2.5 7.85-2.669 1.015-3.412 3-1.122 3 .757 0 1.966.709 2.685 1.576 1.082 1.304 1.067 1.725-.088 2.439-1.153.713-1.058 1.236.544 3.006 1.825 2.017 1.837 2.2.194 3.119-1.58.885-1.602 1.181-.229 3.141.834 1.19 1.516 3.248 1.516 4.573 0 8.148-16.844 21.579-28.75 22.926-2.338.264-4.25.809-4.25 1.211s2.025 1.805 4.5 3.118 4.5 2.666 4.5 3.006c0 .341-1.8 1.81-4 3.266-4.707 3.115-5.249 5.585-1.25 5.693 2.568.069 2.485.192-1.25 1.842l-4 1.767 3.44 1.783c3.25 1.683 3.336 1.859 1.559 3.158-1.035.757-2.47 1.376-3.19 1.376-2.15 0-1.497 1.485 1.691 3.842 3.871 2.862 3.871 6.096 0 10.505-1.65 1.879-3 3.617-3 3.862 0 .244 1.287.256 2.859.025 3.582-.526 8.171 3.301 14.818 12.352 2.583 3.519 5.4 6.596 6.26 6.837.86.242 4.141.95 7.291 1.574 4.029.799 6.439 1.931 8.128 3.819 1.321 1.476 4.257 4.761 6.525 7.299 11.92 13.337 39.223 15.5 68.912 5.459 18.25-6.172 22.111-8.479 33.949-20.275 10.438-10.4 13.951-12.397 19.331-10.99 2.878.752 3.431-1.499 1.677-6.825-1.394-4.236-1.373-4.484.387-4.484 2.189 0 2.271-.373.653-2.965-1.987-3.181.083-7.134 4.968-9.488 2.333-1.125 4.242-2.322 4.242-2.66s-2.025-1.389-4.5-2.334-4.5-2.064-4.5-2.486 2.925-2.01 6.5-3.529 6.5-3.316 6.5-3.992-2.7-2.047-6-3.046-6-2.175-6-2.613 1.58-1.093 3.511-1.455 3.741-1.031 4.023-1.487c.281-.455-3.324-2.625-8.011-4.821-4.688-2.197-8.523-4.385-8.523-4.862s2.7-2.772 6-5.1 6-4.616 6-5.087-3.713-1.823-8.25-3.005-9.239-2.561-10.447-3.064c-3.204-1.334-5.287-5.076-5.952-10.691-.461-3.894-.219-5.304 1.147-6.67 1.581-1.581 1.594-1.886.157-3.474-1.44-1.591-1.408-1.998.378-4.706 2.582-3.918 2.473-4.795-.525-4.222-2.16.413-2.625-.004-3.494-3.133-.552-1.986-1.005-6.422-1.008-9.86-.007-6.954-1.117-7.871-3.633-3m-6.164 13.569c-7.136 10.982-14.66 20.034-15.756 18.955-.406-.399-.204-1.369.449-2.156 1.85-2.229-12.332-3.009-39.868-2.193l-23.534.697-6.278-3.153c-3.452-1.734-8.545-5.361-11.316-8.061C47.134 36.209 44.78 34 44.674 34c-.107 0-.231 2.742-.276 6.094-.051 3.752-.569 6.393-1.347 6.875-.895.553-.941.981-.158 1.465.609.376 1.139 2.12 1.177 3.875s.433 4.091.877 5.191c.443 1.1.398 2.512-.1 3.138-.551.692-.466 2.105.218 3.605.924 2.028.739 3.221-1.042 6.711-3.814 7.477-9.695 12.826-19.215 17.48l-8.827 4.315 2.976 1.233c5.239 2.17 5.341 3.363.505 5.929C15.054 102.249 14.428 104 18 104c3.106 0 3.245 1.799.282 3.653-1.53.958-2.967 1.875-3.193 2.038s.375 1.164 1.335 2.225c1.673 1.848 1.636 1.998-.881 3.648l-2.625 1.72 2.041 2.172c2.339 2.49 2.568 5.964.624 9.474-1.249 2.255-1.126 2.578 1.726 4.5 2.734 1.843 6.314 5.825 13.407 14.913 1.707 2.188 3.77 3.192 9 4.378 6.466 1.466 7.136 1.904 14.284 9.345 8.739 9.096 13.551 11.561 25.616 13.118 12.559 1.622 27.134-.158 42.347-5.172 17.782-5.86 23.091-8.924 33.112-19.111 10.061-10.228 14.036-12.892 19.242-12.897 3.491-.004 3.76-.197 3.146-2.254-.369-1.238-1.299-3.247-2.067-4.465-1.804-2.863-1.77-4.285.104-4.285 1.051 0 1.5-1.061 1.5-3.545 0-3.491 3.496-8.455 5.955-8.455 2.294 0 .808-1.591-2.965-3.176-2.195-.921-3.99-2.116-3.99-2.655s3.037-2.426 6.75-4.192l6.75-3.211-6.438-2.197c-3.541-1.209-6.602-2.689-6.802-3.289s1.235-1.618 3.188-2.263 3.519-1.475 3.478-1.845-3.273-2.27-7.183-4.224c-3.911-1.953-7.241-3.978-7.401-4.5-.159-.521 2.388-2.748 5.66-4.948s5.961-4.299 5.974-4.665-3.439-1.481-7.671-2.479c-8.891-2.096-12.802-4.883-14.27-10.17-1.257-4.524-1.309-10.205-.111-12.097.549-.868.457-2.108-.241-3.225-.856-1.37-.833-2.114.092-3.039 1.62-1.62 1.553-2.825-.156-2.825C156.11 40 154 33.038 154 28.057c0-1.681-.338-3.026-.75-2.988s-3.581 4.426-7.041 9.75m2.512 2.769c-3.009 5.91-8.638 13.657-12.956 17.832l-3.021 2.921 4.878 1.285c2.683.707 4.991 1.306 5.128 1.33s.25-.417.25-.981c0-.563-1.161-1.466-2.579-2.005l-2.58-.981 2.127-2.744c1.17-1.51 3.512-4.545 5.205-6.745 3.633-4.722 7.133-12.094 6.55-13.797-.226-.662-1.577 1.087-3.002 3.885M47.022 44.25c.032 3.264 3.668 10.802 6.787 14.069 2.334 2.444 2.48 2.936 1.101 3.71-3.372 1.89-6.377 4.832-5.666 5.545.409.411 1.534.054 2.5-.793s3.272-2.308 5.124-3.247l3.368-1.708-3.563-3.663c-3.623-3.724-7.611-11.237-7.651-14.413C49.01 42.788 48.55 42 48 42s-.99 1.013-.978 2.25m102.661-.6c-1.014 1.015-.828 15.142.208 15.783.49.303 1.092-2.933 1.338-7.191.427-7.392-.057-10.081-1.546-8.592M82.148 77.028c-2.944.428-7.444 1.564-10 2.524-5.603 2.105-14.75 7.968-15.507 9.94-.645 1.682 7.068 8.798 12.61 11.631 2.063 1.055 6.113 2.537 9 3.293 5.075 1.33 5.161 1.41 2.596 2.418-4.196 1.649-4.198 2.829-.014 7.391 3.38 3.685 3.792 4.62 2.984 6.774-1.319 3.519-4.65 6.844-9.317 9.302-3.129 1.648-5.852 2.117-12.5 2.153-10.487.057-14-1.717-14-7.069V122h7.5c4.333 0 7.5-.422 7.5-1 0-.565-2.858-1-6.573-1-5.729 0-6.528-.225-6.219-1.75.301-1.485 1.297-1.701 6.574-1.425 7.484.392 8.333-1.287 1.133-2.242-4.338-.575-4.904-.891-3.857-2.153 2.031-2.448.107-2.934-2.376-.601-1.761 1.654-3.604 2.186-7.746 2.236-7.926.095-21.067 2.273-20.728 3.435.161.55.517.926.792.836s4.02-.653 8.322-1.25c9.101-1.263 15.685-1.405 15.663-.336-.044 2.13-2.133 3.006-8.559 3.589C31.59 121.05 26 122.66 26 124.205c0 .555.788.705 1.75.333C30.606 123.435 39.02 122 42.636 122c3.087 0 3.364.252 3.364 3.066 0 1.686.437 3.882.971 4.879 1.407 2.631 8.262 5.055 14.299 5.057l5.23.002.104 5.791c.205 11.377 4.383 18.222 11.098 18.183 10.702-.062 22.856-10.399 24.812-21.104.623-3.414.929-3.663 5.221-4.251 11.065-1.517 18.294-5.619 19.688-11.174.703-2.798 1.909-2.792 13.384.068 3.925.978 5.207 1.018 4.924.153-.364-1.111-5.894-2.747-13.871-4.101-2.56-.435-3.803-1.242-4.19-2.721-.594-2.273-.777-2.269 11.83-.233 3.156.509 3.756.384 2.842-.593-.637-.681-4.764-1.754-9.17-2.383-4.406-.63-8.29-1.424-8.631-1.765-.607-.606-6.823-.27-13.291.719-5.666.867-3.575 2.407 2.5 1.841 6.758-.628 11.62.534 12.073 2.888.278 1.443-.667 1.678-6.75 1.678-4.049 0-7.073.428-7.073 1 0 .571 3 1 7 1 3.85 0 7 .415 7 .923 0 2.071-5.262 6.968-9.246 8.604-6.257 2.569-23.868 3.283-27.196 1.103-4.007-2.625-4.935-5.224-3.571-9.996.847-2.964 2.29-4.91 5.097-6.874 4.27-2.989 5.058-5.649 1.916-6.47-2.975-.778-2.418-2.29.843-2.29 5.369 0 20.089-6.144 30.567-12.759l3.984-2.515-2.947-2.455c-4.929-4.105-14.944-8.348-23.16-9.813-8.546-1.523-12.1-1.599-20.139-.43m.352 2.045c-2.75.461-7.006 1.547-9.457 2.412C68.126 83.22 59 88.754 59 90.001c0 1.409 6.944 6.937 11.787 9.384 7.491 3.785 15.19 4.999 23.037 3.632 7.669-1.335 18.319-5.585 26.008-10.379l5.333-3.324-4.833-3.063c-5.748-3.643-11.943-5.82-20.526-7.213-7.162-1.162-10.212-1.156-17.306.035m.089 5.004c-4.175 4.961-2.927 10.84 2.888 13.614 3.275 1.561 3.766 1.564 6.964.038 1.893-.902 3.934-2.56 4.535-3.685 1.001-1.869.809-2.044-2.241-2.044-4.038 0-6.202-1.733-4.589-3.676C90.75 87.596 92.54 87 94.122 87c3.483 0 3.623-.952.564-3.826-3.558-3.341-8.859-2.946-12.097.903m29.661 21.578c-7.025 1.02-2.619 1.846 10 1.875 7.287.016 14.488.362 16 .769 2.903.78 3.888-.648 1.167-1.692-2.118-.813-23.07-1.548-27.167-.952M38 107.703c-5.601.964-10.032 2.437-9.571 3.182.269.435 3.545.148 7.28-.639 4.655-.98 10.801-1.295 19.541-1.001 12.378.416 16.632-.342 9-1.603-4.082-.675-22.221-.633-26.25.061m40.748 22.462c-2.071 1.508-2.748 2.844-2.748 5.418 0 2.924.34 3.417 2.361 3.417 2.099 0 2.429-.576 2.975-5.191.338-2.855.513-5.294.388-5.419s-1.464.674-2.976 1.775m4.873 1.119c-1.084 4.045-.665 7.762.946 8.38 2.002.768 3.072-.4 3.813-4.164.473-2.404.118-3.341-1.787-4.716-2.295-1.655-2.398-1.638-2.972.5m-12.371 2.813c-1.968.733-2.25 1.545-2.25 6.478 0 4.985.203 5.553 1.75 4.9 5.671-2.395 11.389-2.712 18.364-1.016 4.465 1.085 7.453 1.374 8.048.779 1.315-1.315 3.819-9.924 3.096-10.647-.325-.325-2.497-.591-4.825-.591-4.07 0-4.269.146-5.115 3.75-.784 3.335-1.263 3.787-4.323 4.08-1.893.182-5.342.045-7.664-.303-4.042-.606-4.234-.795-4.526-4.451-.279-3.499-.493-3.748-2.555-2.979m2.102 12.896c-1.181.477-2.437 1.335-2.791 1.908-.864 1.399 1.96 6.701 3.984 7.478 2.297.881 2.462.803 1.82-.871-.536-1.397-.086-1.707 4.552-3.137 1.08-.333 1.14-.714.25-1.604-.642-.642-1.167-1.977-1.167-2.967 0-1.97-2.894-2.321-6.648-.807m9.374-.385c-.335.334-.076 1.461.576 2.503 1.496 2.397-.081 5.251-3.154 5.709-2.019.3-3.138 2.18-1.297 2.18C82.174 157 94 150.869 94 149.146c0-1.641-9.935-3.878-11.274-2.538m-21.059 3.059c-1.164 1.164-.722 5.327.899 8.461 2.749 5.316 12.239 7.387 21.934 4.789 5.099-1.368 14.5-6.947 14.5-8.606 0-.777-1.836-.103-4.75 1.746-14.898 9.45-33.108 6.985-30.876-4.179.543-2.713-.219-3.7-1.707-2.211"/></svg>