<svg xmlns="http://www.w3.org/2000/svg" width="250" height="250" version="1.1" fill="#000000"><path fill-opacity=".208" d="M 108 2.682 C 102.418 3.597, 84.493 8.173, 83.531 8.929 C 82.964 9.375, 80.700 10.318, 78.500 11.024 C 66.702 14.815, 50.056 25.963, 37.475 38.500 C 17.255 58.649, 5.502 82.721, 3.248 108.600 C 2.250 120.068, 3.415 142.597, 5.454 151.253 C 10.574 172.983, 21.712 193.455, 37.181 209.568 C 54.307 227.407, 70.863 236.970, 96.201 243.659 C 105.519 246.119, 108.215 246.383, 124.500 246.436 C 144.221 246.500, 150.892 245.454, 166.056 239.920 C 206.929 225.003, 238.232 187.779, 245.456 145.500 C 254.357 93.407, 226.831 38.231, 180.140 14.571 C 163.210 5.992, 145.190 1.942, 124.808 2.136 C 116.938 2.211, 109.375 2.457, 108 2.682 M 110 15.912 C 108.625 16.367, 104.575 17.289, 101 17.960 C 81.039 21.704, 63.399 31.397, 47.419 47.403 C 32.105 62.741, 24.111 76.313, 18.292 96.853 C 14.899 108.827, 14 131.934, 16.453 144.115 C 21.241 167.895, 30.617 185.746, 46.918 202.120 C 61.464 216.731, 78.291 226.336, 98.500 231.564 C 108.062 234.038, 111.330 234.408, 123.500 234.396 C 135.094 234.385, 139.439 233.929, 148.786 231.738 C 185.307 223.180, 214.985 196.973, 227.770 161.992 C 232.910 147.930, 234.421 139.142, 234.386 123.500 C 234.361 111.815, 233.921 107.743, 231.727 98.875 C 221.648 58.130, 189.784 26.997, 148.702 17.754 C 138.851 15.538, 114.609 14.384, 110 15.912 M 116.500 41.922 C 105.487 43.772, 93.596 53.015, 88.264 63.871 C 85.792 68.905, 85.463 70.796, 85.147 81.750 C 84.953 88.487, 85.099 94, 85.472 94 C 85.845 94, 89.267 92.149, 93.075 89.886 C 98.921 86.413, 100 85.350, 100 83.068 C 100 71.995, 108.340 61.109, 118.426 59.015 C 132.598 56.073, 145.820 65.361, 146.803 78.948 C 147.201 84.456, 147.395 84.818, 150.826 86.454 C 152.808 87.399, 156.086 89.484, 158.109 91.086 C 160.132 92.689, 162.286 94, 162.894 94 C 164.307 94, 164.340 83.687, 162.954 75.145 C 159.364 53.023, 138.643 38.204, 116.500 41.922 M 114.043 90.139 C 103.607 91.869, 88.596 100.736, 81.678 109.257 C 53.351 144.148, 76.194 196.882, 120.849 199.686 C 137.611 200.739, 150.639 196.022, 162.888 184.467 C 168.678 179.005, 170.944 175.923, 174.632 168.495 C 178.976 159.743, 179.227 158.771, 179.741 148.700 C 180.413 135.530, 178.984 127.720, 174.246 118.672 C 166.906 104.656, 152.300 94.002, 135.733 90.580 C 127.383 88.855, 122.396 88.754, 114.043 90.139 M 115.326 108.982 C 102.363 111.739, 91.764 122.531, 88.322 136.480 C 85.143 149.359, 89.379 162.576, 99.711 172.019 C 106.840 178.534, 114.122 181.271, 124.524 181.344 C 131.475 181.392, 133.434 180.985, 139.175 178.299 C 147.572 174.369, 153.342 168.607, 157.349 160.151 C 160.130 154.281, 160.496 152.502, 160.465 145 C 160.435 137.648, 160.018 135.622, 157.375 130 C 149.916 114.134, 132.361 105.359, 115.326 108.982 M 106.411 129.498 C 105.063 134.871, 105.484 135, 124.346 135 C 138.751 135, 141.974 134.736, 143.025 133.470 C 143.995 132.301, 144.029 131.359, 143.168 129.470 L 142.043 127 124.540 127 L 107.038 127 106.411 129.498 M 101.218 142.182 C 99.599 143.801, 99.673 146.484, 101.375 147.897 C 102.340 148.697, 109.593 148.958, 125.625 148.769 L 148.500 148.500 148.500 145 L 148.500 141.500 125.468 141.232 C 108.394 141.034, 102.121 141.279, 101.218 142.182 M 106.370 156.479 C 106.048 157.318, 106.069 159.139, 106.417 160.525 L 107.050 163.046 124.667 162.773 C 140.177 162.533, 142.416 162.291, 143.387 160.750 C 144.191 159.475, 144.191 158.525, 143.387 157.250 C 142.416 155.709, 140.174 155.467, 124.620 155.227 C 109.540 154.994, 106.869 155.177, 106.370 156.479" stroke="none" fill="#000000" fill-rule="evenodd"/><path fill-opacity=".109" d="M 117.500 2.749 C 94.913 4.155, 73.541 11.750, 54.265 25.220 C 46.579 30.591, 33.106 43.637, 27.661 50.979 C 20.265 60.953, 19.043 64.578, 18.462 78.264 L 17.942 90.500 22.945 80.163 C 38.170 48.708, 62.065 28.262, 94.816 18.667 C 105.247 15.611, 105.974 15.538, 125.500 15.579 C 145.186 15.621, 145.663 15.673, 155.879 18.859 C 172.626 24.081, 185.896 31.311, 200.060 42.929 L 204.241 46.359 198.710 35.929 C 195.668 30.193, 191.793 24.105, 190.098 22.400 C 186.187 18.466, 171.023 10.969, 160.042 7.542 C 148.689 3.997, 130.450 1.943, 117.500 2.749 M 113.033 43.536 C 102.027 46.624, 93.664 54.068, 88.277 65.570 C 85.857 70.738, 85.457 72.950, 85.163 82.793 L 84.826 94.085 91.431 90.043 C 95.063 87.819, 98.477 86, 99.018 86 C 99.558 86, 100.004 83.862, 100.010 81.250 C 100.021 75.842, 103.443 67.687, 107.118 64.312 C 117.015 55.222, 134.722 56.391, 142.547 66.651 C 145.491 70.511, 148 77.646, 148 82.159 C 148 83.722, 148.380 85, 148.845 85 C 149.310 85, 152.475 86.800, 155.879 89 C 159.283 91.200, 162.277 93, 162.534 93 C 162.790 93, 163 89.257, 163 84.682 C 163 66.384, 155.424 53.272, 140.648 45.998 C 132.690 42.081, 121.711 41.102, 113.033 43.536 M 111.618 91.053 C 100.367 93.866, 85.046 104.578, 79.164 113.744 C 77.394 116.503, 74.746 121.627, 73.280 125.130 C 70.854 130.929, 70.610 132.710, 70.558 145 L 70.500 158.500 74.798 167.291 C 89.210 196.764, 123.611 207.992, 151.711 192.393 C 167.899 183.407, 178.727 166.262, 179.747 148 C 180.350 137.203, 178.919 129.616, 174.585 120.629 C 170.104 111.338, 165.622 106.249, 156.805 100.441 C 144.927 92.616, 139.266 90.737, 126.500 90.386 C 120.450 90.219, 113.753 90.519, 111.618 91.053 M 17.079 92.583 C 17.127 93.748, 17.364 93.985, 17.683 93.188 C 17.972 92.466, 17.936 91.603, 17.604 91.271 C 17.272 90.939, 17.036 91.529, 17.079 92.583 M 110.908 109.834 C 98.610 114.797, 90.450 124.332, 87.536 137.142 C 81.486 163.742, 106.773 187.560, 133.728 180.649 C 137.154 179.771, 141.654 177.979, 143.728 176.667 C 149.004 173.330, 155.135 166.403, 158.040 160.500 C 160.180 156.151, 160.500 154.133, 160.500 145 C 160.500 134.941, 160.356 134.235, 157.077 128.187 C 153.202 121.040, 146.210 114.252, 139.231 110.862 C 132.668 107.674, 117.614 107.127, 110.908 109.834 M 235.194 129.548 C 233.446 152.114, 228.336 167.472, 216.575 185.517 C 210.157 195.363, 198.380 207.623, 189 214.224 C 174.684 224.299, 155.305 232.391, 142.272 233.736 C 136.740 234.307, 134.746 235.602, 137.122 237.082 C 139.876 238.798, 156.010 242.037, 158.728 241.420 C 162.993 240.453, 173.790 236.113, 181 232.469 C 201.452 222.130, 221.488 202.059, 232.472 180.904 C 241.647 163.233, 245.237 147.400, 242.314 137.500 C 241.665 135.300, 240.058 129.247, 238.743 124.048 L 236.353 114.596 235.194 129.548 M 107.750 128.067 C 106.787 128.635, 106 129.887, 106 130.850 C 106 134.576, 107.902 135, 124.629 135 C 138.239 135, 141.118 134.739, 142.473 133.384 C 143.886 131.971, 143.912 131.499, 142.674 129.634 C 141.340 127.622, 140.349 127.487, 125.379 127.267 C 115.816 127.127, 108.804 127.445, 107.750 128.067 M 101.010 142.981 C 100.236 144.427, 100.236 145.573, 101.010 147.019 C 102.052 148.965, 102.902 149.028, 124.687 148.769 C 144.944 148.528, 147.398 148.319, 148.387 146.750 C 149.191 145.474, 149.191 144.526, 148.387 143.250 C 147.398 141.681, 144.944 141.472, 124.687 141.231 C 102.902 140.972, 102.052 141.035, 101.010 142.981 M 107.200 156.200 C 106.540 156.860, 106 158.120, 106 159 C 106 162.558, 108.049 163, 124.545 163 C 138.916 163, 140.872 162.799, 142.345 161.171 C 144.387 158.915, 144.394 158.537, 142.429 156.571 C 141.129 155.272, 138.048 155, 124.629 155 C 113.340 155, 108.035 155.365, 107.200 156.200" stroke="none" fill="#000000" fill-rule="evenodd"/><path fill-opacity=".311" d="M 109 3.720 C 103.805 4.314, 87.018 8.904, 83 10.829 C 80.140 12.199, 79.436 13.145, 79.150 16.003 C 78.957 17.926, 78.395 20.258, 77.900 21.184 C 77.405 22.111, 77 23.110, 77 23.406 C 77 23.702, 80.938 22.549, 85.750 20.844 C 101.901 15.121, 129.179 12.284, 142.772 14.913 C 145.121 15.368, 147.267 15.377, 147.540 14.935 C 147.814 14.493, 146.004 12.431, 143.519 10.354 C 141.034 8.276, 138.745 5.772, 138.433 4.788 C 137.923 3.183, 136.569 3.016, 125.183 3.160 C 118.207 3.248, 110.925 3.500, 109 3.720 M 149.813 16.683 C 150.534 16.972, 151.397 16.936, 151.729 16.604 C 152.061 16.272, 151.471 16.036, 150.417 16.079 C 149.252 16.127, 149.015 16.364, 149.813 16.683 M 112 44.105 C 106.539 45.672, 97.929 52.006, 93.789 57.500 C 88.551 64.451, 86.876 69.861, 86.262 81.815 L 85.732 92.129 92.096 88.602 L 98.461 85.075 99.688 78.427 C 100.362 74.771, 101.554 70.816, 102.336 69.640 C 107.229 62.273, 116.272 57.011, 124 57.032 C 135.975 57.064, 148 68.259, 148 79.375 C 148 83.574, 148.243 83.966, 152.250 86.216 C 154.588 87.528, 157.790 89.453, 159.367 90.493 L 162.234 92.384 161.860 81.435 C 161.526 71.695, 161.155 69.826, 158.492 64.494 C 154.783 57.063, 147.947 50.036, 140.881 46.389 C 136.209 43.978, 134.182 43.578, 125.500 43.356 C 120 43.215, 113.925 43.552, 112 44.105 M 110.868 92.035 C 107.220 93.076, 102.495 94.928, 100.368 96.150 C 91.712 101.124, 82.355 109.755, 81.368 113.678 C 81.066 114.875, 80.261 116.070, 79.577 116.332 C 76.177 117.637, 70 135.815, 70 144.519 C 70 153.250, 76.442 173, 79.290 173 C 80.337 173, 98.657 185.116, 101.501 187.689 C 102.601 188.685, 105.197 190.767, 107.270 192.315 C 109.342 193.864, 110.795 195.522, 110.499 196.001 C 109.759 197.199, 118.059 198.447, 126.500 198.407 C 140.885 198.337, 153.006 193.158, 163.552 182.574 C 184.687 161.361, 185.138 127.977, 164.565 107.449 C 150.049 92.965, 128.889 86.891, 110.868 92.035 M 110.730 109.371 C 100.314 113.743, 94.511 119.157, 89.686 129 C 86.771 134.948, 86.503 136.307, 86.538 145 C 86.573 153.731, 86.841 155.012, 89.844 160.832 C 96.267 173.278, 108.086 181.430, 121.531 182.685 C 129.645 183.443, 139.516 180.471, 146.574 175.145 C 164.841 161.361, 166.541 134.653, 150.201 118.182 C 140.120 108.022, 123.031 104.206, 110.730 109.371 M 107.037 129.931 C 106.255 131.392, 106.392 132.249, 107.598 133.455 C 109.957 135.814, 140.775 135.309, 142.301 132.886 C 142.861 131.998, 143.036 130.536, 142.691 129.636 C 142.143 128.210, 139.879 128, 125.067 128 C 109.298 128, 107.996 128.139, 107.037 129.931 M 102.200 142.200 C 100.664 143.736, 100.664 146.264, 102.200 147.800 C 103.748 149.348, 144.203 149.497, 147.066 147.965 C 148.130 147.395, 149 146.061, 149 145 C 149 143.939, 148.130 142.605, 147.066 142.035 C 144.203 140.503, 103.748 140.652, 102.200 142.200 M 107.596 156.547 C 105.685 158.458, 105.615 159.215, 107.200 160.800 C 108.038 161.638, 113.474 162, 125.231 162 C 139.892 162, 142.144 161.789, 142.691 160.364 C 143.036 159.464, 142.861 158.002, 142.301 157.114 C 140.774 154.689, 109.957 154.186, 107.596 156.547 M 229.373 162.750 C 227.923 167.250, 222.064 178.295, 217.041 185.995 C 207.063 201.294, 191.901 214.682, 173.500 224.444 L 166.500 228.157 172 227.552 C 186.134 225.995, 191.550 224.635, 196.500 221.397 C 206.403 214.921, 223.162 196.640, 228.015 187.020 C 229.802 183.478, 230.380 180.282, 230.773 171.770 C 231.235 161.773, 230.732 158.532, 229.373 162.750" stroke="none" fill="#000000" fill-rule="evenodd"/><path fill-opacity=".25" d="M 152 112 C 149.418 114.239, 148.405 114.464, 147.500 113 C 147.160 112.450, 146.424 112, 145.864 112 C 145.305 112, 146.208 113.145, 147.871 114.545 C 152.631 118.550, 157.867 126.312, 160.099 132.670 C 163.071 141.138, 162.360 154.306, 158.516 162 C 157.005 165.025, 155.258 167.880, 154.634 168.344 C 153.925 168.872, 154.142 168.983, 155.215 168.639 C 156.158 168.337, 160.320 167.783, 164.465 167.407 C 170.553 166.855, 172.001 166.991, 172.004 168.112 C 172.012 171.360, 176.292 162.110, 177.570 156.082 C 180.798 140.855, 177.772 125.461, 169.385 114.444 C 167.299 111.704, 166.534 111.400, 161.971 111.504 C 159.172 111.567, 156.658 111.255, 156.382 110.810 C 155.598 109.540, 154.490 109.841, 152 112 M 108.031 129.463 C 107.341 130.294, 107.037 131.655, 107.357 132.487 C 107.844 133.756, 110.696 134, 125.035 134 L 142.133 134 141.816 131.250 L 141.500 128.500 125.392 128.226 C 112.006 127.998, 109.073 128.207, 108.031 129.463 M 102.582 142.316 C 101.592 143.040, 100.950 144.502, 101.154 145.566 C 101.507 147.400, 102.691 147.514, 124.125 147.768 C 144.022 148.005, 146.887 147.842, 148.080 146.404 C 149.249 144.996, 149.115 144.511, 147.107 142.885 C 144.997 141.177, 142.879 141, 124.580 141 C 109.459 141, 103.930 141.331, 102.582 142.316 M 108.040 156.452 C 107.377 157.251, 106.990 158.713, 107.180 159.702 C 107.493 161.332, 109.057 161.526, 123.880 161.775 C 135.091 161.964, 140.669 161.690, 141.617 160.903 C 143.401 159.422, 143.361 158.504, 141.429 156.571 C 139.200 154.342, 109.878 154.237, 108.040 156.452" stroke="none" fill="#000000" fill-rule="evenodd"/></svg>