<svg xmlns="http://www.w3.org/2000/svg" width="200" height="200" fill="#000000"><path fill-opacity=".243" fill-rule="evenodd" d="M49.2 20.2c-.904.904-1.2 14.6-1.2 55.5 0 52.967.049 54.349 2 56.3 1.1 1.1 2.496 2 3.103 2 1.137 0 17.563-9.144 35.728-19.889C94.514 110.75 99.268 108 99.397 108s8.755-4.885 19.169-10.855L137.5 86.289l.5 38.606c.275 21.233.401 38.779.28 38.991-.196.346-5.208-1.626-13.78-5.423-1.65-.731-7.05-2.958-12-4.949s-10.35-4.221-12-4.955c-1.65-.735-4.013-1.642-5.25-2.015S93 145.49 93 145.031s6.187-4.306 13.75-8.549 14.537-8.406 15.5-9.253c3.96-3.483.647-11.229-4.803-11.229-1.404 0-7.141 2.647-12.75 5.883-5.608 3.236-12.447 7.125-15.197 8.643s-6.125 3.502-7.5 4.409-4.208 2.53-6.295 3.607c-6.529 3.368-9.039 5.83-8.304 8.145.694 2.188 1.366 2.515 25.599 12.492 7.975 3.283 15.85 6.587 17.5 7.343 1.65.755 7.05 3.002 12 4.992s10.35 4.222 12 4.958c11.477 5.117 14.002 5.552 16.108 2.778 1.956-2.577 2.017-108.013.064-110.684-1.831-2.504-5.583-2.272-10.244.632-2.16 1.346-4.603 2.759-5.428 3.138-.825.38-3.549 1.922-6.054 3.427s-10.83 6.27-18.5 10.589-15.165 8.706-16.656 9.75S90.816 98 90.492 98s-3.05 1.575-6.059 3.5-5.651 3.5-5.87 3.5-3.862 2.048-8.096 4.551-7.838 4.411-8.01 4.239-.639-17.819-1.039-39.217c-.711-37.995-.683-38.89 1.177-38.209 12.517 4.581 45.093 18.309 44.757 18.862-.242.399-3.233 2.34-6.646 4.312-18.462 10.672-22.27 13.194-23.653 15.666-1.395 2.495-1.351 2.921.566 5.5 3.312 4.455 6.049 4.064 17.536-2.506 26.394-15.095 37.071-21.624 37.595-22.989.945-2.463-1.157-4.551-6.844-6.796C113.483 43.507 67.344 24.898 65.5 24.05c-11.261-5.183-14.259-5.891-16.3-3.85"/><path fill-opacity=".068" fill-rule="evenodd" d="M57.293 23.918c-1.215 1.009-1.983 2.059-1.707 2.334.275.276-.218.776-1.095 1.113-1.09.418-1.363.22-.863-.626.403-.682-.711.284-2.475 2.146l-3.207 3.384.277 49.447c.267 47.679.347 49.497 2.225 50.87 1.098.803 2.842 1.148 4 .792 1.128-.348 9.252-4.818 18.052-9.934s27.025-15.594 40.5-23.285l24.5-13.982.623 21.661c1.049 36.457.987 56.162-.178 56.162-.58 0-2.943-.837-5.25-1.859s-12.182-5.163-21.945-9.201c-9.763-4.037-17.75-7.653-17.75-8.035s4.612-3.291 10.25-6.464c18.687-10.52 20.75-12.05 20.75-15.39 0-4.138-3.585-7.354-7.5-6.729-1.65.264-7.5 3.151-13 6.415s-12.25 7.188-15 8.718c-20.88 11.618-22.855 13.207-20.281 16.308 1.318 1.59 3.774 2.739 20.781 9.729 32.737 13.456 40.395 16.637 44.245 18.377 12.832 5.802 14.54 6.131 17.1 3.302 1.495-1.652 1.642-6.412 1.524-49.25-.072-26.081-.409-50.796-.75-54.921-.596-7.223-.718-7.511-3.317-7.811-1.528-.177-4.563.749-7 2.136-29.683 16.884-39.391 22.427-41.636 23.772C88.005 99.783 62.677 114 61.927 114 61.372 114 61 96.592 61 70.571c0-38.689.177-43.605 1.619-45.047 1.81-1.81 1.724-2.03-1.119-2.857-1.197-.348-2.887.154-4.207 1.251m.579.832c-1.269 1.619-1.222 1.64.628.283 1.1-.807 2.188-1.594 2.417-1.75S60.863 23 60.289 23s-1.662.788-2.417 1.75M49 29c-.901.582-1.025.975-.309.985.655.008 1.469-.435 1.809-.985.767-1.242.421-1.242-1.5 0"/><path fill-opacity=".244" fill-rule="evenodd" d="M131.5 74.652c-7.15 4.151-14.575 8.432-16.5 9.513a299 299 0 0 0-6.5 3.775c-1.65.994-11.55 6.644-22 12.556S66.825 111.795 66 112.47c-.825.674-2.288 1.505-3.25 1.847-1.595.565-1.75-.314-1.75-9.955 0-9.638-.155-10.522-1.75-9.967-1.423.496-1.376.307.25-1.007 1.231-.995 1.423-1.452.5-1.188-.825.236-1.944 1.413-2.487 2.615S56.156 97 55.704 97s-.544-.45-.204-1c1.044-1.689-1.169-1.106-2.628.692-1.168 1.441-1.164 1.566.033.845.964-.581 1.176-.476.674.335-.401.65-1.483 1.057-2.404.905-1.512-.25-1.675 1.381-1.675 16.723v17l3.142.305c2.25.219 4.948-.795 9.5-3.568 3.497-2.131 14.233-8.306 23.858-13.722s25.089-14.296 34.365-19.733c9.275-5.437 17.098-9.652 17.385-9.366.286.287.75 18.118 1.03 39.626l.509 39.106-3.895-1.695c-2.142-.932-8.169-3.456-13.394-5.61s-10.85-4.542-12.5-5.307-6.276-2.707-10.281-4.315c-5.338-2.145-6.939-3.191-6-3.924.705-.55 5.908-3.654 11.564-6.899 19.439-11.151 19.173-10.942 19.202-15.075.015-2.232-4.226-6.323-6.555-6.323-1.691 0-5.177 1.545-8.93 3.959-1.65 1.061-4.125 2.541-5.5 3.289-16.392 8.922-34.931 20.13-35.425 21.418-.994 2.59 1.921 4.853 10.717 8.319 11.563 4.557 41.678 17.054 53.208 22.08 15.943 6.95 16.22 7.007 19.007 3.927 1.725-1.906 1.785-4.738 1.193-56.167-.658-57.191-.532-55.844-5.2-55.757-1.1.02-7.85 3.433-15 7.584"/><path fill-opacity=".346" fill-rule="evenodd" d="M148.75 111.802c-.963.19-1.75.693-1.75 1.119s-1.8 1.587-4 2.579l-4 1.804v27.348c0 26.523-.064 27.412-2.118 29.466-2.445 2.445-2.2 2.68 5.554 5.316 5.366 1.823 5.619 1.826 7.558.071 1.922-1.739 2.002-2.991 1.907-29.91-.115-32.659-.585-38.298-3.151-37.793M92 129.469c-19.664 11.162-23.549 13.736-23.801 15.771-.388 3.14.371 3.665 12.301 8.505 5.5 2.232 11.629 4.758 13.619 5.615 3.535 1.521 3.732 1.486 8.456-1.509 2.659-1.687 5.694-3.385 6.743-3.773 1.481-.548.261-1.391-5.455-3.77-4.05-1.685-8.382-3.376-9.628-3.758-1.245-.382-2.043-1.052-1.773-1.489s6.915-4.523 14.765-9.079C122.434 127.155 124 125.886 124 122.381c0-2.452-4.324-6.419-6.885-6.316-.888.036-12.19 6.068-25.115 13.404"/></svg>