<svg xmlns="http://www.w3.org/2000/svg" width="200" height="200" fill="#000000"><path fill-opacity=".631" fill-rule="evenodd" d="M0 100v100h87c52.872 0 87-.364 87-.929 0-.51-.707-1.635-1.571-2.5-.872-.871-1.095-1.627-.5-1.696 3.441-.401 4.541-.144 4.292 1.007-.153.709.629 1.528 1.739 1.818s1.817.851 1.573 1.247c-.245.396.21.72 1.011.72s1.456-.375 1.456-.834-.45-.833-1-.833-1-.627-1-1.393-.675-1.652-1.5-1.969c-.825-.316-1.5-1.264-1.5-2.107 0-.842-.45-1.531-1-1.531s-1-.45-1-1c0-2.742 8.652.932 15.749 6.687 3.015 2.445 5.049 3.354 7 3.129l2.751-.316.255-99.75L201.01 0H0zm.481.5c0 55 .121 77.647.269 50.326.148-27.32.148-72.32 0-100C.602 23.147.481 45.5.481 100.5M129 39.985c1.303.828 1.314 1.254.089 3.234-1.246 2.015-1.235 2.136.093 1.039 1.249-1.032 1.696-.82 2.64 1.25q1.133 2.49.098 2.492c-.571 0-.784.412-.473.915s0 1.121-.691 1.375c-.977.358-.945.766.141 1.835 1.186 1.168 1.288 1.15.674-.125-.398-.825.211-.438 1.353.861L135 55.222l-.006-2.361c-.014-6.04-3.64-13.884-6.399-13.846-.602.009-.42.445.405.97m-5.436 19.722c-.542 1.425-.428 1.54.56.56.684-.679.991-1.486.683-1.793-.308-.308-.867.247-1.243 1.233m-65.958.877c-.373.973-.15 1.431.581 1.187C59.682 61.273 60.505 59 59.19 59c-.537 0-1.249.713-1.584 1.584m3.407 4.387c-1.179.745-1.037.907.68.777 1.193-.09 1.948-.52 1.679-.956-.599-.969-.537-.973-2.359.179m-.313 7.368c-.28.73.123 1.328.895 1.328 1.575 0 1.879-1.256.51-2.102-.493-.305-1.125.044-1.405.774m74.637 4.096c.303.79.116 1.581-.415 1.758s-1.115 3.468-1.298 7.314-.13 5.886.118 4.532c.249-1.353 1.085-2.928 1.859-3.5 3.192-2.359 3.45-11.539.324-11.539-.626 0-.891.646-.588 1.435m-6.794 2.496c-.317.512-.118 1.213.441 1.559s1.016-.074 1.016-.931c0-1.757-.6-2.015-1.457-.628m-20.464 12.652c.048 1.165.285 1.402.604.605.289-.722.253-1.585-.079-1.917s-.568.258-.525 1.312m2.921.476c0 .582.45.781 1 .441s1-.816 1-1.059-.45-.441-1-.441-1 .477-1 1.059m9.473 1.985c-.573.927.161 1.343 1.852 1.049.453-.078.692.881.531 2.132-.162 1.251.044 2.818.457 3.481.825 1.326 3.687.649 3.687-.872 0-.524-.413-.697-.919-.384-.505.312-1.207-.749-1.561-2.358-.658-2.999-2.991-4.756-4.047-3.048m-13.723 39.645c-.963.252-1.75 1.325-1.75 2.384 0 1.06-.477 1.927-1.059 1.927s-.845.346-.583.769c.261.424-.415 3.236-1.503 6.25-1.088 3.015-2.149 6.268-2.359 7.231-.409 1.878.984 2.4 2.004.75.34-.55 1.099-1 1.688-1 .706 0 .843 1.705.405 5.012-.81 6.103-1.534 8.142-2.648 7.454-1.704-1.053-7.28 13.373-5.981 15.475.557.902.927.785 1.397-.44.352-.917 1.202-1.466 1.89-1.219 1.747.626 4.934-1.173 4.195-2.369-.364-.589.749-.895 2.76-.76 5.448.367 5.983-.466 5.226-8.146-.74-7.507-.016-10.188 2.003-7.427 1.168 1.598 1.283 1.598 1.894.005.417-1.087-.256-2.661-1.877-4.39-2.326-2.48-2.481-3.213-1.949-9.195.318-3.575.805-7.963 1.083-9.75.525-3.381-.209-3.77-4.836-2.561m9.757 25.322c.336.544.108.989-.507.989s-.84.45-.5 1c.883 1.428 2.196 1.235 2.83-.417.299-.78-.126-1.675-.945-1.989-.84-.322-1.223-.14-.878.417m4.493 2.43c0 .857.45 1.559 1 1.559s1-.423 1-.941-.45-1.219-1-1.559-1 .084-1 .941m3 1.618c0 1.132.43 1.793.956 1.468s.703-1.252.393-2.059c-.793-2.067-1.349-1.824-1.349.591m5.099 2.601c.971.26 1.631 1.566 1.681 3.322.146 5.13 1.926 7.221 5.714 6.71 1.841-.248 3.833.035 4.427.629s1.088.653 1.1.129c.034-1.518-11.367-11.427-13.021-11.317-1.218.08-1.199.18.099.527M82 172.953c0 2.471 2.052 7.047 3.161 7.047 1.213 0 1.037-1.589-.61-5.532-1.623-3.884-2.551-4.435-2.551-1.515m-3.812 6.786c.184.956 1.155 1.896 2.156 2.089 1.56.3 1.661.051.704-1.739-1.354-2.529-3.326-2.771-2.86-.35M127 180.943c0 2.071 4.271 5.743 4.808 4.134.402-1.208-2.741-6.077-3.923-6.077-.487 0-.885.874-.885 1.943m-39.968 12.641c.54 1.421.688 3.109.328 3.75-.444.792-.311.846.416.166 1.195-1.116.475-6.5-.868-6.5-.472 0-.416 1.163.124 2.584"/><path fill-opacity=".224" fill-rule="evenodd" d="M0 6.383c0 5.994.151 6.413 2.47 6.856 1.358.26 2.248.113 1.977-.325-1.124-1.818 5.049-.236 7.165 1.836 1.263 1.237 3.222 2.25 4.352 2.25s2.826.9 3.768 2c2.106 2.459 2.985 2.521 3.579.25.435-1.667.463-1.667.573 0C23.953 20.295 24.806 21 26 21c2.188 0 2.757 2.528.75 3.338-.721.291-.479.538.571.583 2.533.11 5.091 2.72 3.42 3.489-.683.315-.284.338.885.053 1.548-.378 2.27.033 2.656 1.509.315 1.204 1.362 2.028 2.577 2.028C39.894 32 44 34.124 44 35.694c0 1.502 7.029 8.939 8.12 8.59.371-.119.425.739.12 1.907-.379 1.449-.188 1.895.602 1.406 1.415-.874 1.438-.463.161 2.895-.548 1.442-.621 2.39-.162 2.106.459-.283.905 1.291.992 3.499s-.224 3.779-.689 3.492c-.997-.616-.752 15.162.273 17.536.385.894 1.764 1.625 3.063 1.625 1.746 0 2.213-.423 1.793-1.625-.461-1.321-.316-1.391.78-.375 1.58 1.466 3.947 1.657 3.947.317 0-.513-.919-1.224-2.042-1.58-2.235-.71-1.946-3.588.66-6.566.76-.868 1.382-1.881 1.382-2.25 0-1.199-7.561-.708-8.918.579-1.073 1.019-1.071.842.012-.954.731-1.212 2.437-2.337 3.791-2.5 1.353-.163 2.66-.902 2.904-1.643.349-1.063.01-1.116-1.608-.25-3.483 1.864-4.668 1.245-2.346-1.227 1.201-1.278 1.879-2.628 1.507-3-.371-.372-.22-.676.336-.676.557 0 1.827.9 2.822 2 1.989 2.197 4.063 2.74 2.867.75-.532-.886-.27-.86.902.09 1.752 1.42 2.203 8.523 1.075 16.91-.507 3.77-.869 4.253-3.208 4.28-2.293.027-2.406.165-.865 1.062.974.567 1.51 1.453 1.191 1.969-.319.517-.115.939.454.939.704 0 .715.841.034 2.631-1.649 4.338-1.334 13.499.605 17.563.969 2.032 2.928 4.191 4.354 4.797 4.147 1.765 7.326 4.809 6.507 6.231-.405.703-.402.978.007.611.409-.366 1.622.212 2.696 1.286 1.761 1.761 1.801 2.104.408 3.497-.85.85-2.103 1.319-2.786 1.043-.982-.396-.98-.518.009-.58 1.844-.117 1.519-1.865-.554-2.974-2.645-1.416-4.987.237-3.269 2.307 1.081 1.302 1.029 1.668-.309 2.181-.883.339-1.328 1.067-.987 1.619.411.665.831.658 1.25-.02.408-.66 1.317-.52 2.566.393 1.167.853 1.414 1.415.622 1.415-1.071 0-1.077.286-.034 1.542.97 1.169.999 1.824.123 2.7-.798.798-1.158.818-1.158.065 0-.601-.669-1.35-1.486-1.663-1.086-.417-1.432.073-1.287 1.822.108 1.316.439 2.371.735 2.345 2.411-.214 3.025.433 2.557 2.689-.285 1.375-.762 3.663-1.059 5.084s-.185 2.366.25 2.1c.434-.267.812 1.271.839 3.416s-.359 3.9-.857 3.9-.647.675-.33 1.5c.316.825.169 1.5-.327 1.5s-.728 1.237-.515 2.75.144 2.185-.152 1.494-.95-1.002-1.453-.691-.915-.137-.915-.994S69.325 155 68.5 155s-1.387-.338-1.25-.75c.138-.412-.2-.975-.75-1.25s-1.144.513-1.32 1.75c-.175 1.238-.764 2.25-1.309 2.25s-.711.45-.371 1c.608.984-.031 1.25-3 1.25-3.064 0-3.6-.28-2.867-1.5.558-.928.336-.914-.86.055-1.355 1.098-1.773 1.019-2.63-.5-.78-1.383-1.296-1.531-2.203-.632-1.583 1.566-5.996-.364-5.254-2.297.29-.757-.083-1.39-.829-1.406-.834-.019-.625-.456.542-1.134 1.848-1.073 1.843-1.146-.177-2.719-1.226-.955-2.209-3.05-2.399-5.117-.284-3.077-.051-3.49 1.927-3.421 1.245.044 2.25-.514 2.25-1.25 0-.731.477-1.329 1.059-1.329s.827.375.544.833c-.283.459.155.834.974.834 1.025 0 1.167-.323.456-1.034-1.465-1.465-1.28-7.244.333-10.433.752-1.485 1.668-4.5 2.035-6.7l.669-4-2.3 3.97c-3.284 5.668-7.218 7.894-19.302 10.922-10.668 2.673-25.701 8.22-30.113 11.111L0 145.046v54.976l42.25-.261 42.25-.261.043-5.011c.024-2.755.361-5.524.749-6.152.436-.705-.47-1.552-2.368-2.214-1.691-.589-2.789-1.533-2.44-2.097.358-.579-.295-1.026-1.496-1.026-2.842 0-4.479-1.899-4.527-5.25-.048-3.32.79-3.42 4.791-.57l3.061 2.179-.672-4.205c-.442-2.761-.258-4.648.534-5.496.958-1.026 1.788.364 4.042 6.775 1.561 4.437 3.019 9.99 3.24 12.341s.92 5.838 1.551 7.75L92.155 200h44.499l-.401-3.25c-.613-4.963-1.102-5.962-2.496-5.092-2.266 1.416-3.757 1.196-3.757-.555 0-.947-.593-2.532-1.318-3.523-1.268-1.734-1.386-1.733-3.15.031-2.422 2.422-6.532 4.517-6.532 3.33 0-.518-.436-.941-.969-.941s-.673.787-.312 1.75c.574 1.532.446 1.579-1.032.378-2.09-1.7-2.175-3.128-.187-3.128.825 0 1.5-.477 1.5-1.059s-.415-.803-.922-.49c-.859.532-4.486-5.376-3.752-6.111.184-.184 1.565-.436 3.067-.56s3.187-.774 3.743-1.444 1.652-.971 2.437-.67c1.26.484 1.63-.151 1.342-2.304-.047-.351.342-.914.865-1.25.523-.337 1.254-1.586 1.626-2.777.588-1.888.039-2.402-4.289-4.017-2.731-1.018-6.349-3.085-8.041-4.593l-3.076-2.74.022 3.757c.013 2.182.843 4.807 1.978 6.258 1.076 1.375 1.966 3.063 1.978 3.75.021 1.171-3.837 1.81-8.395 1.391-1.054-.097-2.943.788-4.199 1.968s-2.868 1.94-3.583 1.69c-1.287-.45-4.871 2.527-4.726 3.926.041.399-.42.815-1.025.925s-.687-.013-.181-.273c.505-.26.707-1.283.448-2.273s.239-3.498 1.106-5.574 1.587-4.732 1.599-5.902.892-4.046 1.956-6.39c1.918-4.225 1.918-4.253-.022-3.215-1.684.902-1.956.72-1.956-1.31 0-3.119 2.921-11.801 4.64-13.794.751-.87 1.066-1.88.7-2.245-.365-.365-.095-2.387.6-4.492 1.323-4.01 4.019-6.342 7.813-6.759 2.198-.242 2.241-.062 1.788 7.486-.515 8.592.332 13.262 2.514 13.852 1.198.324 1.189.195-.055-.761-1.333-1.024-1.333-1.102 0-.701.825.248 1.389.952 1.254 1.564s1.322 1.769 3.239 2.57c5.516 2.304 11.773 6.991 18.033 13.509 4.331 4.509 6.693 6.175 9.381 6.618 5.058.832 8.934 2.44 11.976 4.966 1.439 1.195 4.578 2.479 6.975 2.853 9.517 1.484 19.877 6.415 27.601 13.138 1.878 1.634 3.888 2.467 5.5 2.279l2.541-.296V.002L100.25.001 0 0zM.32 7c0 3.575.182 5.037.403 3.25.222-1.788.222-4.713 0-6.5C.502 1.962.32 3.425.32 7m24.43 8.662c.688.278 1.813.278 2.5 0 .688-.277.125-.504-1.25-.504s-1.937.227-1.25.504M36.158 22c0 1.375.227 1.938.504 1.25.278-.687.278-1.812 0-2.5-.277-.687-.504-.125-.504 1.25m4.592 5.662c.688.278 1.813.278 2.5 0 .688-.277.125-.504-1.25-.504s-1.937.227-1.25.504m47.5 3.369c-2.687 1.08-2.926 2.646-.5 3.28 1.317.344 1.193.486-.5.573-2.425.125-3.038 1.63-1 2.457.941.381.879.769-.25 1.568-1.017.719-1.097 1.065-.25 1.076 2.429.029 1.202 1.914-2.661 4.085-6.853 3.852-9.267 8.91-9.511 19.93-.054 2.405.336 3.414 1.246 3.225.729-.151 1.071.136.761.637s.128 1.485.973 2.186c1.195.992 1.257 1.448.279 2.053-.96.593-.807 1.274.645 2.879l1.903 2.103 2.38-3.042C83.074 72.369 84.912 71 85.85 71s2.818-.756 4.177-1.681l2.473-1.681-1.905 2.181c-2.088 2.391-1.102 2.882 1.627.809 1.592-1.209 1.504-1.516-1.157-4.065-1.583-1.517-3.145-2.714-3.472-2.661C85.275 64.284 84 63.786 84 62.5c0-.825-.466-1.5-1.035-1.5-.702 0-.691-.644.035-2 .589-1.1 1.748-2 2.577-2s2.473-.9 3.653-2c2.48-2.31 1.705-2.627-1.515-.619-2.977 1.856-8.085 3.027-7.24 1.659.354-.572 1.665-1.04 2.915-1.04 1.4 0 2.786-.959 3.61-2.5.736-1.375 2.049-2.532 2.919-2.57 1.366-.061 1.377-.163.081-.75-2.58-1.169-2.033-2.836.811-2.469 3.138.404 5.612-.942 5.016-2.729-.304-.913-.873-.793-2.108.442-1.24 1.24-2.157 1.43-3.441.712-1.536-.86-1.415-1.063.986-1.666C92.769 43.092 94 42.382 94 41.892c0-.491.787-.921 1.75-.955 1.341-.049 1.224-.275-.5-.968-3.219-1.294-2.778-2.768.706-2.362 1.626.189 3.228-.095 3.559-.632.332-.536-.125-.975-1.015-.975s-1.362-.414-1.049-.92c.638-1.033-4.109-5.115-5.836-5.017-.613.035-2.128.471-3.365.968m36.084.396c.354.923.289 1.458-.143 1.191-.433-.267-1.44-.078-2.239.42-1.202.75-1.065 1.178.798 2.491 1.237.871 2.25 2.186 2.25 2.921s.711 1.609 1.58 1.942c1.117.429 1.42 1.412 1.034 3.357-.3 1.513-.807 4.551-1.126 6.751l-.581 4 1.578-2.75c.869-1.513 1.816-2.75 2.106-2.75s.25.448-.088.996c-.783 1.267 4.585 6.321 5.608 5.28 1.16-1.18-1.851-14.042-4.314-18.423-2.343-4.17-7.71-8.675-6.463-5.426M52 35.941c0 2.415.556 2.658 1.349.591.31-.807.133-1.734-.393-2.059S52 34.809 52 35.941M52.5 41c-.34.55-.141 1 .441 1S54 41.55 54 41s-.198-1-.441-1-.719.45-1.059 1m67.532 3.559c.017.517.692 1.815 1.5 2.882.807 1.068 1.454 1.518 1.436 1-.017-.517-.692-1.815-1.5-2.882-.807-1.068-1.454-1.518-1.436-1M85 51c0 .55.45 1 1 1s1-.45 1-1-.45-1-1-1-1 .45-1 1m38.015 8.25c.027 3.974 1.646 5.144 1.791 1.294.073-1.949-.303-3.544-.836-3.544-.534 0-.963 1.013-.955 2.25M84 59.469c0 .894.586 1.243 1.5.893.825-.317 1.5-.978 1.5-1.469S86.325 58 85.5 58s-1.5.661-1.5 1.469m33.403-.312c-.393.637-.66 2.619-.593 4.406s-.538 3.796-1.344 4.465c-1.21 1.004-2.103 3.934-1.216 3.987.138.008 2.05.664 4.25 1.456l4 1.441-5.25.044c-4.099.034-5.25.39-5.25 1.623s.655 1.436 2.991.923c1.863-.409 4.103-.102 5.938.813l2.946 1.47-.312-3.228c-.172-1.776-1.066-4.814-1.985-6.752-.92-1.937-1.598-3.924-1.507-4.414s.113-2.353.047-4.141c-.119-3.268-1.386-4.244-2.715-2.093m18.831 4.846c.688 1.101 1.625 1.877 2.083 1.725 1.126-.376.721-2.294-.417-1.978-.495.138-.9-.2-.9-.75s-.454-1-1.008-1c-.598 0-.499.816.242 2.003m-72.155 4.58c.048 1.165.285 1.402.604.605.289-.722.253-1.585-.079-1.917s-.568.258-.525 1.312m14.37.752c.092 1.191-.208 2.675-.667 3.298-.507.69-.236 1.363.692 1.719.851.326 1.532.046 1.54-.633.007-.671.268-2.169.58-3.331.358-1.331.035-2.316-.873-2.665-1.004-.385-1.389.103-1.272 1.612m47.598-1.035c-.026.439.665 2.175 1.534 3.857.879 1.7 1.322 4.094.997 5.389-.322 1.282-.185 2.579.305 2.881 2.105 1.302 1.856-4.01-.392-8.324-1.319-2.531-2.419-4.243-2.444-3.803m6.457 1.707c.733 1.185 3.179 1.315 3.865.205.268-.433-.63-.88-1.996-.993-1.431-.119-2.223.215-1.869.788M136 73.559c0 .857-.403 1.31-.895 1.006-.493-.305-1.162.142-1.489.993-.386 1.006-.161 1.34.645.957.682-.324.498-.042-.408.627-1.327.982-1.435 1.681-.555 3.612.725 1.592.763 2.956.112 4.07-.538.922-.733 3.251-.432 5.176l.546 3.5 2.759-6.814c2.413-5.958 2.627-7.308 1.7-10.75-1.092-4.053-1.983-5.121-1.983-2.377m-83-.181c0 .207.788.995 1.75 1.75 1.586 1.243 1.621 1.208.378-.378C53.821 73.084 53 72.555 53 73.378m32.658 1.071q-.557 1.45.887.895c.794-.304 1.195-.956.89-1.449-.766-1.24-1.132-1.126-1.777.554M82.5 75c.34.55.816 1 1.059 1s.441-.45.441-1-.477-1-1.059-1-.781.45-.441 1m10.99 6.016c-.346.559-1.005.784-1.466.499s-.597.401-.304 1.523c.6 2.292.572 2.302 2.18-.788 1.151-2.213.817-3.219-.41-1.234m-36.465 2.549c.536 1.411 1.02 3.998 1.075 5.75.094 3.002.142 3.041.836.685.405-1.375.379-3.491-.057-4.702-.648-1.8-.481-2.105.914-1.668 1.399.437 1.357.248-.234-1.048-2.8-2.281-3.65-1.951-2.534.983m67.17-.065c.02 1.65.244 2.204.498 1.231s.237-2.323-.037-3-.481.119-.461 1.769m2.305-.5c.34.55.816 1 1.059 1s.441-.45.441-1-.477-1-1.059-1-.781.45-.441 1m-18.903 7.844c-.346.56-.142 1.319.453 1.687 1.538.95 2.53-.351 1.246-1.635-.718-.718-1.277-.735-1.699-.052M124 90.686c0 .458.938 1.419 2.085 2.135 1.839 1.148 2.044 1.09 1.739-.498-.341-1.771-3.824-3.262-3.824-1.637m-13 1.163c0 .392 1.377 1.232 3.061 1.868 2.632.994 3.018.935 2.75-.421-.301-1.526-5.811-2.898-5.811-1.447m7.015 2.401c-.008.963.605 1.75 1.363 1.75 2 0 4.077 2.682 2.487 3.212-1.996.665.056 2.788 2.694 2.788 1.787 0 2.441-.544 2.441-2.031 0-1.118-.631-2.274-1.401-2.57-.771-.295-1.629-1.406-1.907-2.468-.553-2.117-3.683-2.692-3.707-.681q-.016 1.25-.985-.25c-.828-1.282-.972-1.246-.985.25m3.623 14.25c-.316.825-.187 1.5.286 1.5.474 0 1.121-.675 1.438-1.5s.187-1.5-.286-1.5c-.474 0-1.121.675-1.438 1.5m8.047 1.148c-.357.357-.383 1.706-.059 2.998s.248 3.138-.169 4.102c-1.334 3.079-1.294 4.1.18 4.666 1.578.606 3.545-3.222 2.525-4.914-.332-.55-.629-2.213-.661-3.695-.063-2.922-.789-4.184-1.816-3.157m-1.456 16.54c.218.653.931 1.365 1.584 1.583.731.244.954-.214.581-1.187-.698-1.818-2.765-2.196-2.165-.396M67 126.833c0 .459.655.834 1.456.834s1.224-.375.941-.834-.938-.833-1.456-.833-.941.375-.941.833m16.51 1.183c.346.559 1.047.758 1.559.441 1.387-.857 1.129-1.457-.628-1.457-.857 0-1.276.457-.931 1.016m.503 2.432c-1.369.757-2.944 1.158-3.5.89-.557-.267-.124.234.963 1.114 1.831 1.482 2.089 1.452 3.5-.4 1.106-1.451 1.935-1.737 3.024-1.041 1.106.707 1.153.962.179.974-.727.008-1.997.69-2.822 1.515s-1.188 1.5-.806 1.5.15.655-.515 1.456c-.664.801-.873 1.999-.463 2.663.411.663 1.052 2.596 1.427 4.294l.68 3.087 1.502-3.5c.964-2.249 1.231-4.465.744-6.198-.525-1.872-.32-3.06.671-3.883 1.082-.898 1.153-1.515.293-2.552-1.383-1.666-1.733-1.66-4.877.081M.44 172.5c0 15.4.139 21.56.308 13.689s.169-20.47-.001-28C.578 150.66.439 157.1.44 172.5M74 162.441c0 .793.45 1.719 1 2.059s1-.309 1-1.441S75.55 161 75 161s-1 .648-1 1.441m46 11.059c0 .825.177 1.5.393 1.5s.652-.675.969-1.5.139-1.5-.393-1.5c-.533 0-.969.675-.969 1.5m8.65 1.971c-.369.961-.02 1.529.94 1.529.841 0 1.306.359 1.035.798s-.08 1.451.426 2.25c.735 1.162.915 1.053.902-.548-.009-1.1-.624-2.801-1.367-3.779-1.166-1.538-1.429-1.572-1.936-.25m6.974 2.329c-.347.561-.356 1.735-.02 2.61.411 1.073.052 1.59-1.105 1.59-3.761 0 1.14 9.116 5.674 10.555 1.021.324 1.645.931 1.387 1.348s1.085 1.369 2.985 2.115c1.9.745 3.455 1.946 3.455 2.669 0 .96 1.897 1.313 7.059 1.313 4.012 0 6.815-.395 6.494-.915-.311-.503-.028-1.093.628-1.312.755-.252.298-1.294-1.243-2.835-1.341-1.341-2.775-2.325-3.188-2.188-.412.137-.75-.221-.75-.798 0-.576-1.191-2.151-2.646-3.5-2.019-1.871-2.256-2.452-1-2.452 3.652 0 1.286-2.823-4.547-5.425-7.094-3.165-12.269-4.255-13.183-2.775M133.5 196c-.34.55-.141 1 .441 1s1.059-.45 1.059-1-.198-1-.441-1-.719.45-1.059 1m6.103 1.167c.283.458.038.833-.544.833s-1.059.45-1.059 1c0 1.77 2.75 1.064 3.246-.833.286-1.094-.053-1.834-.839-1.834-.726 0-1.087.375-.804.834"/><path fill-opacity=".124" fill-rule="evenodd" d="M90 3.93c0 3.281-.372 4.003-2.25 4.364-1.569.303-1.191.496 1.25.64 1.925.114 4.4.593 5.5 1.066l2 .859-2 .181c-1.1.1-2.997.101-4.215.004-4.048-.325-14.723 3.002-17.272 5.384-1.382 1.291-3.54 2.658-4.794 3.037-7.524 2.275-14.715 18.77-14.022 32.165.283 5.491.452 5.849 2.616 5.546 1.273-.178 3.465.432 4.873 1.354 1.742 1.141 2.306 1.245 1.765.324-.437-.745.121-.552 1.24.427 1.406 1.23 2.214 3.514 2.613 7.378.593 5.744-.993 16.651-2.304 15.841-.403-.249-.631 1.349-.507 3.551.125 2.203-.16 4.243-.633 4.536s-.86 3.064-.86 6.16c0 6.49 2.513 11.091 7.462 13.663 6.372 3.312 10.074 5.638 11.038 6.936.55.741 2.434 2.088 4.187 2.993 1.752.906 3.509 2.17 3.904 2.808q.715 1.159-.686.406c-.773-.416.058.447 1.845 1.918 3.645 2.999 4.085 5.124 1.5 7.243-.963.789-1.204 1.16-.537.824.836-.421 1.146.33 1 2.424-.117 1.669-.626 3.035-1.13 3.036s-.655.264-.335.584-.037 2.062-.793 3.873c-.757 1.81-1.104 3.563-.772 3.894.332.332-.134.887-1.034 1.232-.901.346-1.418.984-1.149 1.419s-.198 1.054-1.038 1.376c-1.815.697-3.168-2.307-3.724-8.273-.209-2.243-.757-4.421-1.219-4.841s-.526-.216-.143.452c.383.667-.107 2.054-1.09 3.083-2.606 2.728-2.691 3.316-1.915 13.203.401 5.121-.929 15-2.02 15-1.535 0-4.351-2.288-4.351-3.535 0-1.415-1.7-3.447-5.316-6.356-1.502-1.208-1.651-1.187-1.135.159.398 1.036-.161 1.791-1.682 2.274-1.288.409-2.422.293-2.609-.268-.191-.574-3.08-.828-6.871-.603-4.275.254-6.324.035-5.912-.63.37-.6-.009-.773-.923-.423-.854.328-1.552.098-1.552-.511S45.377 159 44.617 159c-1.6 0-2.939-5.324-1.474-5.854.539-.194.226-1.186-.696-2.204-1.297-1.434-1.463-2.48-.734-4.646 1.085-3.224.234-7.796-1.451-7.796-.631 0-2.038-.956-3.127-2.125l-1.98-2.125 2.552-1.162c1.403-.64 2.307-1.407 2.008-1.706s-1.453-.058-2.564.537S34.055 133 32.739 133c-3.349 0-20.092 5.668-26.989 9.137L0 145.029v13.904C0 173.441.373 176 2.485 176c2.179 0 4.01 2.905 2.673 4.242-.637.637-1.158 1.86-1.158 2.717 0 .858-.9 2.122-2 2.809-1.668 1.042-2 2.332-2 7.77v6.522l24.5-.095c14.465-.056 24.5-.478 24.5-1.03 0-.514.675-.935 1.5-.935s1.5.436 1.5.969.722.691 1.604.353c1.207-.463.782-.961-1.718-2.012-1.827-.768-3.651-1.929-4.053-2.58-1.035-1.675 2.232-4.946 4.379-4.385.985.258 1.539.06 1.23-.438-1.023-1.656 3.288-.937 4.686.78 1.208 1.486 1.153 1.605-.462 1-1.202-.451-1.697-.279-1.437.5.707 2.121 2.414 1.924 3.538-.409 1.095-2.272 1.098-2.27 1.165.389.038 1.466-.494 2.932-1.182 3.256s.1.354 1.75.068c2.838-.494 2.895-.44 1.059.994-1.697 1.324-1.728 1.515-.25 1.515.93 0 1.691.468 1.691 1.039 0 .661 3.172.934 8.727.75l8.726-.289.253-3.145c.147-1.827-.367-3.659-1.227-4.372-1.647-1.367-2.05-3.454-.479-2.483.55.34 1-.057 1-.882s-.457-1.783-1.016-2.128-.79-.996-.512-1.445-.615-1.03-1.984-1.292-2.488-.099-2.488.361-1.079.426-2.397-.075c-1.319-.501-2.741-.603-3.161-.225-.419.377-.439.124-.043-.564.395-.688 1.344-1.25 2.108-1.25 1.126 0 1.181-.616.29-3.25-.605-1.787-1.819-3.971-2.698-4.853-1.403-1.406-2.073-1.437-5.475-.25-4.95 1.728-4.955 1.727-4.334-.649.324-1.238-.109-2.372-1.133-2.97-1.526-.891-1.521-.97.062-.998 2.006-.035 16.242 4.443 19.529 6.143 2.856 1.477 3 1.295 3.477-4.399.217-2.6.659-4.991.982-5.314s1.778 2.99 3.233 7.361 3.43 8.656 4.387 9.522c1.625 1.471 1.887 1.1 3.988-5.669 1.732-5.578 2.098-8.48 1.595-12.615-.764-6.27 1.128-15.932 3.496-17.852.877-.711 1.462-1.502 1.3-1.758-.65-1.029 1.084-7.449 2.012-7.449.548 0 .739-.67.425-1.488s-.25-1.398.143-1.288c.393.111 1.699-.346 2.904-1.014 2.176-1.209 4.341-1.152 7.419.193.886.387 2.911.491 4.5.232 1.59-.259 3.372-.508 3.961-.553 1.423-.109 8.079-6.082 6.777-6.082-1.09 0-1.144-3.537-.069-4.611.358-.359.202-1.493-.348-2.52-.629-1.175-.642-1.869-.036-1.869.53 0 .974-1.463.987-3.25.049-6.939.458-8.713 1.761-7.633.936.778 1.542-.032 2.466-3.293.673-2.378 1.111-5.387.972-6.686-.171-1.604.127-2.128.93-1.632.782.484 1.061.099.822-1.138-.197-1.027-.916-1.924-1.596-1.993a167 167 0 0 1-2.295-.25c-.582-.069-.721-.671-.309-1.339 1.514-2.449 1.422-10.496-.135-11.788-1.209-1.004-1.497-.972-1.497.165 0 .775-.875 1.408-1.945 1.408-1.569 0-1.716-.274-.762-1.424 1.362-1.641 1.032-6.015-.604-8.008-.615-.748-1.274-2.548-1.465-4s-.77-3.066-1.286-3.589c-1.23-1.245-1.175-5.649.094-7.55.743-1.113.963-.469.851 2.5-.199 5.303 3.534 14.885 6.385 16.386 1.29.68 1.471.957.43.656-1.04-.3-1.544-.101-1.191.469 1.001 1.62 2.162 1.143 3.982-1.634.945-1.443 1.244-2.33.665-1.972-.58.358-1.563-.3-2.185-1.463-1.3-2.428-.493-3.866 1.213-2.16.865.865 1.474.725 2.464-.567 1.153-1.502 1.44-1.529 2.32-.215.552.825 1.01 1.001 1.019.39s-1.11-1.955-2.485-2.987C135.033 63.55 134.123 61 135.929 61c.51 0 1.574.646 2.364 1.436 1.009 1.009 1.75 1.121 2.493.378 1.009-1.009.57-3.751-.771-4.814-.347-.275-1.336-1.533-2.199-2.795-1.286-1.883-1.674-2.018-2.16-.75-.326.85-.082 1.545.542 1.545s.859.276.521.614c-.776.777-7.423-3.278-8.034-4.902-.261-.692-.944-.139-1.592 1.288-.963 2.12-1.051 1.701-.58-2.75.368-3.471.185-5.25-.538-5.25-.601 0-.772-.52-.38-1.155.417-.674.277-.884-.336-.505-.933.577-2.3-1.327-2.146-2.989.032-.345-.543-.998-1.278-1.452-.734-.453-1.392-2.606-1.461-4.785-.109-3.426.207-4.043 2.346-4.58 1.359-.341 3.089-.108 3.844.519 2.665 2.212 6.372 10.133 7.606 16.252 1.11 5.501 1.319 5.859 1.868 3.195.34-1.65.429-4.355.198-6.012-.481-3.449 1.715-5.951 5.877-6.693 2.15-.383 2.528-.14 2.134 1.37-.37 1.411.066 1.817 1.886 1.756 1.302-.043 1.805-.306 1.117-.583-2.902-1.171-.89-2.01 3.75-1.564l5 .48v-4.592c0-3.36.472-4.844 1.761-5.534 2.639-1.412 6.521-.301 10.333 2.956 1.873 1.601 4.418 2.912 5.656 2.914C175.583 34 176 34.556 176 37c0 1.65.45 3 1 3s1 .9 1 2 .45 2 1 2 1 .9 1 2 .45 2 1 2 1 .9 1 2c0 1.111.667 2 1.5 2 .98 0 1.5.981 1.5 2.833 0 1.559.3 3.134.667 3.5.366.367.56 3.592.431 7.167-.134 3.687.183 6.5.732 6.5.98 0 1.578 3.608 2.773 16.75.363 3.987 1.051 7.25 1.529 7.25.477 0 .868 1.8.868 4s.338 4.002.75 4.004c.412.003.863 3.689 1.002 8.193s.598 8.439 1.021 8.745c1.321.96 3.227 6.041 3.227 8.605 0 1.349.45 2.453 1 2.453.657 0 1-22.667 1-66V0H90zm-4 15.948c0 .482.749 1.495 1.664 2.25 1.508 1.244 1.552 1.162.465-.878-1.24-2.327-2.129-2.9-2.129-1.372m1.623 9.311c-4.38 2.247-5.056 3.541-3.707 7.091.825 2.168.739 2.525-.496 2.051-1.701-.653-5.657 2.477-4.827 3.819.3.485.964.624 1.476.307 1.55-.958 1.042 2.206-.569 3.543-.825.685-1.502.852-1.504.372-.009-2.148-3.95 5.88-4.567 9.305-.38 2.103-1.112 4.357-1.629 5.009-.59.746-.555 1.903.095 3.119.569 1.062.761 2.205.427 2.539s-.054 1.274.622 2.088c.675.814.938 1.95.583 2.524S73.407 72 74.048 72s.927.623.634 1.385c-.292.762.742 2.605 2.298 4.096 2.244 2.149 2.798 2.351 2.675.973-.085-.956.408-1.937 1.096-2.18.798-.282 1.031.132.643 1.142q-.607 1.583 1.058 1.584c.997 0 1.382-.46.958-1.146-.499-.806.076-.949 1.941-.481 1.457.366 2.649.266 2.649-.221s1.8-2.077 4-3.533c4.916-3.254 5.092-5.587.75-9.955-3.39-3.41-5.105-8.398-2.551-7.418.755.29 2.904-.265 4.775-1.232 3.216-1.664 3.281-1.798 1.192-2.461-1.216-.386-3.632-.39-5.368-.009l-3.158.694 2.826-2.619C92.02 49.179 93.751 48 94.313 48s.722-.298.357-.663c-.816-.816 4.797-4.337 6.913-4.337.844 0 1.259-.447.921-.993-.977-1.581-1.252-10.007-.326-10.007.461 0 .277-.9-.41-2-1.344-2.152-3.768-2.716-3.768-.878 0 .753-.412.801-1.25.145-2.468-1.931-5.465-1.957-9.127-.078M158 31c0 .55.45 1 1 1s1-.45 1-1-.45-1-1-1-1 .45-1 1m-77.286 8.654c-.771 1.247 1.719 4.333 2.844 3.524 1.38-.993 1.715-3.465.355-2.624-.625.386-1.48.147-1.9-.533-.42-.679-1.004-.844-1.299-.367m38.269 3.532c-1.491 3.215-.691 6.023 1.479 5.19.846-.324 1.538-.092 1.538.517s.445 1.107.989 1.107.895-1.125.782-2.5c-.114-1.375-.574-2.5-1.021-2.5-.448 0-1.198-1.013-1.668-2.25l-.853-2.25zM152 42c0 .55.9 1 2 1s2-.45 2-1-.9-1-2-1-2 .45-2 1M92 54c-1.828 1.181-.249 1.181 2.5 0 1.319-.567 1.489-.878.5-.914-.825-.031-2.175.381-3 .914m90.602-.164c-.285.459-.125 2.147.355 3.75.866 2.895.872 2.89.957-.836.085-3.697-.3-4.552-1.312-2.914m-65.248 4.628c-1.487 1.042-1.95 2.196-1.606 4 .275 1.438.021 2.536-.586 2.536-.589 0-1.375 1.688-1.747 3.75s-1.12 4.31-1.664 4.995c-1.315 1.658 1.69 6.28 4.022 6.185 1.443-.059 1.398-.206-.273-.893-1.898-.78-1.906-.861-.163-1.57 1.113-.453 3.084-.092 5 .916 3.122 1.643 3.127 1.66.443 1.285-1.496-.208-2.482.006-2.191.476.841 1.361 4.052.993 5.389-.617 1.829-2.205 1.492-8.35-.585-10.645-1.055-1.166-1.873-3.74-1.966-6.189-.252-6.615-.418-6.788-4.073-4.229m-62.88 1.935c-1.532 2.338-1.981 7.554-1.085 12.601.245 1.375.482 2.838.528 3.25.045.412.588.75 1.205.75.804 0 .787-.404-.057-1.421-.976-1.177-.781-1.321 1.128-.841 1.269.32 2.667 1.184 3.107 1.921s1.565 1.339 2.5 1.336c1.247-.004.911-.636-1.263-2.376l-2.964-2.371 2.765-3.624L63.102 66h-2.829c-1.555 0-3.907.756-5.227 1.68-2.298 1.61-2.365 1.599-1.609-.25a38 38 0 0 0 1.317-3.93c.291-1.1 1.209-2.788 2.042-3.75.932-1.078 1.079-1.75.382-1.75-.623 0-1.839 1.08-2.704 2.399M115 74c.825.533 2.4.945 3.5.914l2-.055-2-.859c-1.1-.473-2.675-.884-3.5-.914-1.333-.049-1.333.052 0 .914m-40 .378c0 .207.685.946 1.523 1.641 1.273 1.057 1.42.995.893-.378C76.878 74.24 75 73.257 75 74.378m19.5 1.931c-1.1.655-2.331 1.641-2.735 2.191-1.029 1.401-.915 5.714.197 7.472.778 1.231 1.036 1.149 1.575-.5.354-1.085 1.129-2.984 1.722-4.22.592-1.237.781-2.546.418-2.908s-.158-1.264.454-2.002c1.333-1.606 1.02-1.612-1.631-.033m43.5-.368c0 .518.445 1.216.989 1.552.566.35.734-.051.393-.941-.665-1.732-1.382-2.049-1.382-.611M73.988 81c-.134.275-.358 1.4-.498 2.5s-.42 2.517-.622 3.15c-.203.632.079 1.083.625 1s.866-.705.71-1.384c-.178-.776.382-1.019 1.507-.656 1.101.356 1.353.254.656-.266-.624-.464-1.359-1.744-1.634-2.844s-.61-1.775-.744-1.5m49.239 1.576c-.661 1.234-.739 2.596-.199 3.47.489.79.655 2.369.369 3.507-.379 1.513.144 2.372 1.942 3.192 1.354.617 2.7.882 2.992.59.889-.888-.46-3.335-1.838-3.335-.807 0-1.218-1.091-1.093-2.895.11-1.592-.089-3.719-.443-4.727-.607-1.73-.704-1.719-1.73.198m3.703 1.293c.55 1.027.79 2.077.535 2.333-.256.255.132.465.862.465 1.032 0 1.087-.519.25-2.326-.592-1.279-1.43-2.329-1.862-2.333s-.335.833.215 1.861m-21.68 3.82c.963.252 2.537.252 3.5 0 .963-.251.175-.457-1.75-.457s-2.713.206-1.75.457m-38.037 2.978c-1.614 1.257-1.611 1.396.058 2.395.974.584 1.566 1.393 1.315 1.799s.424 1.289 1.501 1.961c1.606 1.003 2.063.95 2.54-.294.321-.834 1.074-1.213 1.674-.842.601.371.117-.694-1.075-2.368s-1.955-3.255-1.696-3.514c1.121-1.121-2.767-.344-4.317.863m1.454 0c-1.194 1.193-.708 1.904 1.409 2.064 1.701.128 1.859-.104.877-1.287-1.377-1.66-1.397-1.667-2.286-.777M105 91c0 .55.413 1 .918 1s1.63.273 2.5.607c1.038.398 1.582.055 1.582-1 0-1.047-.87-1.607-2.5-1.607-1.375 0-2.5.45-2.5 1m6 .399c0 1.456 7.409 5.858 8.323 4.945.286-.286.389.677.228 2.142-.313 2.853 2.377 4.659 6.078 4.08 2.079-.326 2.073-3.39-.01-5.066-.684-.55-1.538-1.787-1.9-2.75-.381-1.018-1.691-1.75-3.129-1.75-1.359 0-2.769-.481-3.132-1.068s-1.275-.832-2.027-.544c-.752.289-1.633.094-1.958-.432-.887-1.434-2.473-1.15-2.473.443m20.564 2.894c.376.986.935 1.541 1.243 1.233s.001-1.114-.683-1.793c-.988-.98-1.102-.865-.56.56M70 94.941c0 .518.445 1.216.989 1.552.566.35.734-.051.393-.941C70.717 93.82 70 93.503 70 94.941M112 99c.825.533 1.95.969 2.5.969s.325-.436-.5-.969-1.95-.969-2.5-.969-.325.436.5.969m9.913 4.75c-.803 6.946-.769 7.177.918 6.123.918-.574 1.725-2.242 1.792-3.708.068-1.466-.082-2.102-.333-1.415-.251.688-.855 1.25-1.342 1.25s-.626-.675-.31-1.5c.317-.825.303-1.5-.031-1.5s-.646.338-.694.75m-78.355 28.5c-1.251 4.116-1.271 5.75-.071 5.75.714 0 1.558-.675 1.875-1.5s.087-1.5-.51-1.5-.85-.9-.562-2c.562-2.15-.101-2.829-.732-.75M16.16 164.78c-1.644.548-1.442 4.174.268 4.831.785.301 3.374.641 5.752.756s4.843.529 5.479.922c2.176 1.345.209-3.146-2.013-4.596-2.284-1.491-7.561-2.555-9.486-1.913m94.84 1.085c0 1.531 4.101 6.135 5.466 6.135.726 0 1.579-.675 1.896-1.5.356-.93-.005-1.5-.952-1.5-.841 0-1.253-.445-.917-.989.338-.547-.024-.745-.812-.442-.783.3-1.692-.155-2.021-1.012-.629-1.641-2.66-2.169-2.66-.692m7.75 10.797c.688.278 1.813.278 2.5 0 .688-.277.125-.504-1.25-.504s-1.937.227-1.25.504m-15.443 1.65c-.704 1.14 2.129 2.947 5.993 3.822 2.689.609 2.733.56 1.095-1.25-1.624-1.795-1.591-1.891.7-2.036 4.306-.273 4.754-.364 5.506-1.116.408-.408-2.284-.658-5.982-.556s-6.989.613-7.312 1.136m34.11 1.333c.35.913-.086 2.437-.981 3.425-.886.98-1.459 2.556-1.274 3.502.329 1.675 9.553 8.181 15.088 10.643 1.512.673 2.75 1.575 2.75 2.004s1.533.781 3.406.781c2.946 0 3.334-.278 2.869-2.057-.297-1.135-1.109-1.837-1.812-1.567-1.386.532-4.833-2.673-3.89-3.616.318-.317-.368-.878-1.524-1.245-2.729-.865-6.02-5.691-4.278-6.272 2.335-.778 1.21-2.147-3.853-4.69-5.923-2.975-7.372-3.177-6.501-.908M96.75 182.08c-.963.561-1.75 1.897-1.75 2.97 0 1.072-.338 1.964-.75 1.982-.412.017-1.54.632-2.507 1.365-1.657 1.258-1.662 1.623-.098 6.468L93.304 200h9.848c6.265 0 9.848-.385 9.848-1.059 0-.582-.52-.738-1.155-.346-.74.458-.881.273-.395-.514.901-1.457 1.407-7.111.592-6.607-.31.192-1.433-.286-2.494-1.063-1.166-.852-1.41-1.411-.617-1.411 1.055 0 1.068-.296.069-1.5-.685-.825-1.67-1.5-2.189-1.5s-2.419-1.125-4.222-2.5c-3.721-2.838-3.498-2.784-5.839-1.42M43 189c-.901.582-1.025.975-.309.985.655.008 1.469-.435 1.809-.985.767-1.242.421-1.242-1.5 0m39.352-.24c.363.588.095 1.271-.596 1.518-.691.246-.983.746-.649 1.109.335.364 1.144.016 1.799-.774.922-1.111.92-1.603-.012-2.178-.728-.451-.942-.322-.542.325M123 192.103c0 1.575-2.654 3.899-3.541 3.099-.429-.386-.48-.178-.113.463.367.64.101 1.371-.59 1.625-.977.358-.945.766.141 1.835.768.756 1.098.844.733.194-1.048-1.866.885-2.399 2.973-.819 2.478 1.876 3.755 1.876 3.035 0-.347-.905-.005-1.5.862-1.5s1.209.595.862 1.5c-.317.825-.078 1.5.531 1.5s1.107-.45 1.107-1 .787-1.014 1.75-1.032c1.572-.028 1.549-.183-.221-1.522-1.085-.82-2.542-1.271-3.238-1.004s-1.219.165-1.161-.228c.279-1.869-.259-3.05-1.63-3.576-.825-.316-1.5-.107-1.5.465M53.5 194c.34.55.816 1 1.059 1s.441-.45.441-1-.477-1-1.059-1-.781.45-.441 1"/><path fill-opacity=".39" fill-rule="evenodd" d="M82 12.963c-.825.553-2.431 1.013-3.57 1.022-1.138.008-3.471 1.253-5.183 2.765s-5.184 3.986-7.714 5.496c-5.154 3.076-7.456 7.296-10.027 18.386-1.762 7.597-1.902 12.196-.485 15.925.731 1.92.69 3.086-.142 4.089-.64.771-.987 1.572-.772 1.78.216.208 1.202-.703 2.19-2.024S57.636 58 57.078 58s-.75-.691-.426-1.536c.529-1.378.834-1.376 2.969.023 1.308.858 2.379 1.138 2.379.623 0-.538 1.276-.455 3 .196 1.65.623 3 1.484 3 1.913 0 1.624 3.007.701 3.158-.969.29-3.203-.196-5.655-1.25-6.307-.574-.354.345-1.219 2.041-1.922 2.34-.969 2.827-1.586 2.019-2.56-1.297-1.563.386-2.944 2.282-1.873.98.553.989.424.042-.599-.992-1.072-1.489-1.07-2.792.011-1.2.996-1.866 1.034-2.742.158-.877-.877-.76-1.158.483-1.158.903 0 1.949-.498 2.325-1.107.461-.745-.011-.887-1.441-.433-1.169.371-2.125.437-2.125.146s1.754-1.001 3.897-1.578C77.316 40.107 80.492 37 78.014 37c-.508 0 .181-1.105 1.531-2.455 3.541-3.54 3.064-4.523-2.295-4.72l-4.75-.174 4.5-.358c6.895-.547 7.599-.973 5.481-3.314C81.459 24.85 81.186 24 81.845 24c2.091 0 1.204-2.636-1.345-4-1.375-.736-2.5-1.735-2.5-2.22s1.582.325 3.515 1.799c2.642 2.016 3.25 2.999 2.451 3.962-1.696 2.044.943 2.982 2.88 1.023 1.54-1.557 1.522-1.622-.26-.948-1.367.517-1.7.377-1.164-.49.413-.668-.005-2.367-.929-3.777-1.329-2.028-1.42-2.801-.439-3.706.961-.886 1.097-.737.605.659-.446 1.263-.271 1.576.585 1.047 1.997-1.234 4.423-1.083 4.423.276 0 .963-.487 1.006-2.028.182-1.524-.816-1.236-.086 1.162 2.942 3.076 3.884 4.576 4.57 12.699 5.816 1.1.168 4.7.833 8 1.477s8.588.941 11.75.66c3.231-.288 5.75-.106 5.75.414 0 .51 1.201 2.741 2.668 4.959s3.275 6.145 4.016 8.728l1.349 4.697-.425-4.276c-.41-4.128-1.115-5.822-6.989-16.791-4.981-9.302-14.853-13.212-35.619-14.11-4.715-.204-9.168.081-10 .64m9.909 4.114c-1.083.686-1.106.896-.1.908.72.008 1.031.465.691 1.015s-.115 1 .5 1c.628 0 .789.548.367 1.25-.51.849-.209.81.941-.122 3.121-2.532.962-6.178-2.399-4.051m1.655 1.216c.376.986.935 1.541 1.243 1.233s.001-1.114-.683-1.793c-.988-.98-1.102-.865-.56.56m-16.231 3.04a1.33 1.33 0 0 0 1.318 1.334c.984 0 1.038-.337.211-1.334C78.253 20.6 77.66 20 77.544 20s-.211.6-.211 1.333M68.5 22c-.34.55-.141 1 .441 1S70 22.55 70 22s-.198-1-.441-1-.719.45-1.059 1m6.5 3.819c.825.498 3.075 1.185 5 1.526 2.178.386 2.934.293 2-.247-2.077-1.202-8.953-2.458-7-1.279m-11.756 1.845c-2.566 1.035.024 2.335 4.565 2.292l4.691-.044-4-1.441c-2.2-.792-4-1.412-4-1.377s-.565.292-1.256.57m.835 8.086c.043.962.295 1.22.559.572.296-.726 1.895-1.006 4.171-.731 2.852.344 3.236.23 1.691-.502-3.394-1.609-6.509-1.288-6.421.661m4.19 2.943c.973.254 2.323.237 3-.037s-.119-.481-1.769-.461-2.204.244-1.231.498M102 46c0 .55-.702 1-1.559 1s-1.351.337-1.096.75-.664.818-2.041.9c-4.661.28-4.595 2.029.079 2.099 2.456.038 5.507.399 6.78.803 1.907.605 1.184 1.017-4.104 2.341-3.531.884-6.582 2.112-6.78 2.73-.491 1.526 3.289 2.409 4.62 1.078 1.416-1.416 2.513-.217 1.712 1.87-.427 1.113-1.423 1.507-3.032 1.199-1.689-.323-2.248-.07-1.893.855.277.721.799 1.273 1.159 1.225 2.012-.267 3.191.283 2.613 1.217-.363.588.281 1.314 1.432 1.614 1.687.442 1.966 1.056 1.446 3.183-.354 1.45-1.062 2.911-1.574 3.247-.511.336-.217.884.654 1.218 2.43.933 1.939 2.243-2.485 6.622-3.8 3.762-4.038 4.328-3.599 8.541.538 5.167-.341 6.448-2.005 2.921-.86-1.822-.856-2.274.017-1.84.636.316.381-.061-.566-.839-1.837-1.508-2.665-6.49-1.415-8.513 1.429-2.312-.481-3.391-2.296-1.298-1.071 1.235-2.594 1.861-3.911 1.607-2.813-.542-2.761.278.094 1.486 1.768.748 1.461.827-1.432.369-3.363-.532-3.635-.401-3.136 1.505.318 1.217 1.02 1.803 1.682 1.407.625-.375.514.085-.246 1.022-1.301 1.604-1.455 1.603-2.634-.011-1.102-1.506-1.216-1.377-.947 1.078.298 2.713 1.463 5.013 1.463 2.888 0-.583.652-1.31 1.449-1.616 1-.384 1.265-.076.854.994-.327.852.034 1.948.801 2.434 2.293 1.451-.382 1.017-3.387-.55-1.531-.798-2.546-1.068-2.256-.599s-.257 1.158-1.217 1.53c-1.622.629-1.608.776.197 2.104C77.065 95.766 77.115 96 75.75 96c-.898 0-1.907.445-2.243.989-.341.552.03.742.84.431 1.975-.757 3.099 1.338 1.653 3.08-.645.777-.842 1.995-.439 2.706.576 1.018.455 1.037-.572.086-1.061-.982-1.065-1.495-.024-2.75.704-.848.883-1.542.398-1.542s-1.47.941-2.188 2.092c-1.116 1.786-1.057 2.274.406 3.343 1.559 1.141 1.519 1.238-.45 1.093-1.189-.088-2.718-.758-3.397-1.49-.98-1.058-.977-1.186.016-.626.688.388 1.25.229 1.25-.353S70.293 102 69.429 102c-1.863 0-4.602-2.493-3.715-3.381.341-.34.094-.619-.547-.619-.642 0-1.167.922-1.167 2.05 0 2.468 2.91 8.373 3.725 7.558.317-.317 1.072.055 1.676.828.605.772 3.962 2.934 7.461 4.803 7.779 4.154 21.312 15.814 20.088 17.307-.94 1.148-.674 6.063.385 7.122.634.635 1.08-1.191.743-3.041-.088-.48.505-.617 1.316-.306.812.312 1.656.029 1.875-.627.279-.836 3.337-1.132 10.208-.988 11.892.251 14.245-.761 11.97-5.146-1.299-2.504-1.294-2.678.046-1.566 1.218 1.011 1.522.988 1.584-.122.042-.754.222-2.128.401-3.053.227-1.177-.147-1.5-1.25-1.076-1.179.452-1.409.17-.913-1.121.367-.956.252-1.473-.257-1.158-.506.313-1.202.111-1.548-.448-.35-.566.31-1.016 1.49-1.016 1.428 0 1.873-.407 1.367-1.25-.588-.979-.412-.975.813.016 1.342 1.087 1.653.819 2.195-1.893.348-1.738.169-3.717-.397-4.399-.728-.878-.62-1.398.371-1.778.771-.295 1.401-1.694 1.401-3.108s.564-3.932 1.253-5.596.999-4.593.688-6.509c-.345-2.126-.156-3.483.485-3.483.602 0 .86-1.3.604-3.044-.245-1.674-.07-3.277.389-3.561.46-.284.331-1.461-.287-2.616-.993-1.854-1.229-1.91-2.029-.48-.544.972-1.594 1.381-2.629 1.025-1.549-.533-1.565-.452-.162.791 2.238 1.983 4.077 6.681 2.9 7.408-.529.327-.962 1.431-.962 2.453 0 2.219-1.869 3.077-4.152 1.906-1.32-.677-1.548-.451-1.136 1.124.283 1.084.892 1.739 1.352 1.455 2.496-1.543 3.366 6.922 1.15 11.197-.525 1.013-.822 2.664-.661 3.669.204 1.275-.163 1.653-1.212 1.25-.827-.317-2.171-.577-2.986-.577-1.652 0-1.542-3.995.145-5.235.635-.466.578-.74-.156-.75-.636-.008-.939-.846-.674-1.862.584-2.232-3.726-4.241-7.92-3.69-1.513.198-2.75-.076-2.75-.61s-.462-.685-1.028-.336c-.565.349-2.411-.846-4.102-2.657-3.49-3.735-2.529-4.769 2.172-2.338 2.051 1.061 2.904 1.199 2.404.391-.549-.888-.274-1.061.942-.594 1.044.4 1.47.26 1.089-.357-.346-.558-1.156-.909-1.802-.779-1.804.363-5.807-2.161-5.14-3.24.326-.527-.112-1.227-.972-1.557-.859-.33-1.563-1.06-1.563-1.622 0-1.415 14.265.057 15.228 1.571.408.641.741 1.615.741 2.165s-.418.338-.93-.471-1.279-1.122-1.706-.696c-1.033 1.033 1.612 2.633 4.386 2.652 1.558.01 2.048-.429 1.646-1.477-.329-.856.121-1.757 1.057-2.116 1.276-.49 1.376-.93.461-2.033-.642-.774-.883-1.693-.534-2.041 1.185-1.185-1.583-3.318-4.305-3.318-1.491 0-3.022-.312-3.403-.692-.381-.381-1.666-.841-2.856-1.023-2.875-.439-3.525-1.21-1.878-2.228.742-.458 1.059-1.303.705-1.876-.355-.574-.186-1.326.375-1.673s.744-1.731.406-3.077c-.383-1.529.03-3.428 1.103-5.065 2.577-3.934 3.498-7.956 2.155-9.412-.901-.978-.718-1.088.849-.509 2.524.934 7.4 1.341 7.273.608-.089-.514 1.581-4.906 2.831-7.447.299-.608-.427.131-1.613 1.644-2.546 3.244-4.447 3.602-3.686.693.387-1.48.209-1.795-.634-1.124-.645.515-2.069.572-3.171.128-1.1-.444-1.437-.838-.75-.877.688-.038 1.25-.569 1.25-1.178 0-.67-.947-.871-2.395-.508-1.318.331-4.003-.07-5.968-.891C104.495 44.762 102 44.577 102 46m-32.362 1.5c.644 1.678 1.958 1.962 2.797.605.305-.493-.156-1.168-1.023-1.5-2.252-.864-2.417-.781-1.774.895m56.731 9.281c-2.498 4 .017 13.129 4.41 16.008 2.232 1.463 2.257 1.437 1.245-1.227-.599-1.574-.674-3.365-.178-4.251.76-1.358.925-1.349 1.474.08.339.885 1.081 1.609 1.649 1.609 1.623 0 1.204-4.152-.624-6.171-1.563-1.727-1.511-1.829.941-1.829 1.428 0 2.871-.445 3.207-.989.363-.587-.086-.721-1.105-.33-1.115.428-1.478.273-1.036-.442.79-1.278-.766-2.44-3.756-2.802-1.153-.14-2.772-.525-3.598-.857-.872-.35-1.975.154-2.629 1.201M53 65.059c0 .582.45.781 1 .441s1-.816 1-1.059S54.55 64 54 64s-1 .477-1 1.059m4.289 3.046c-3.228 1.485-4.062 2.34-3.573 3.666.649 1.759 2.204 3.186 3.503 3.214.395.008.449-.687.12-1.545-.363-.944.513-2.719 2.218-4.5 1.55-1.617 2.62-2.902 2.38-2.856s-2.332.956-4.648 2.021M68 67.265c0 .734.563 1.941 1.25 2.682.752.81.794 1.091.106.706-.709-.397-1.141.213-1.138 1.604.003 1.233-.19 3.953-.428 6.044-.239 2.091-.064 4.03.388 4.309s.822-.038.822-.706c0-.753.759-.527 2 .596 1.1.995 2 1.338 2 .762s-.619-1.285-1.375-1.576c-.756-.29-1.571-1.866-1.811-3.503-.318-2.165-.08-2.838.874-2.472.722.276 1.312.98 1.312 1.563 0 .582.263.797.583.476 1.161-1.16 4.121 2.711 3.313 4.333-.51 1.026-.342 1.584.479 1.584 1.048 0 1.388-2.689.59-4.667-.111-.275-.149-.838-.083-1.25s-.444-.638-1.132-.5c-.687.137-1.143-.296-1.012-.964.143-.729-.393-.972-1.34-.608-1.193.457-1.529.022-1.377-1.786.375-4.476-.019-5.821-2.021-6.892-1.536-.822-2-.76-2 .265m47.525 10.694c-.379.614.373 1.041 1.834 1.041 1.363 0 3.302.259 4.309.576 1.462.459 1.529.382.332-.38-2.676-1.702-5.816-2.302-6.475-1.237M68 84.845c0 .465.919 1.677 2.043 2.694 1.791 1.62 1.963 1.64 1.393.155-.357-.932-1.078-1.694-1.602-1.694s-.674-.45-.334-1 .141-1-.441-1-1.059.38-1.059.845m-3.239 3.625c-.26 1.358-.141 2.265.263 2.015 1.075-.664 1.926-4.485.999-4.485-.434 0-1.002 1.111-1.262 2.47M73 91c0 .55.45 1 1 1s1-.45 1-1-.45-1-1-1-1 .45-1 1m19.756 4.664c.691.279.959.988.596 1.576-.394.637-.188.777.51.345 1.377-.85.55-2.62-1.171-2.506-.852.056-.834.223.065.585m39.406 1.879c-.639 1.403-1.124 3.992-1.077 5.754.069 2.594.338 2.156 1.414-2.297 1.49-6.165 1.386-7.238-.337-3.457m-54.29 5.207c-1.243 1.586-1.208 1.621.378.378 1.666-1.307 2.195-2.128 1.372-2.128-.207 0-.995.787-1.75 1.75M93.5 112.872c1.1 1.286 1.928 2.628 1.84 2.983s.284 1.32.826 2.145c.842 1.282.913 1.263.488-.128-.274-.896.03-2.165.674-2.822.899-.915.823-1.118-.328-.871-.906.194-1.368-.273-1.167-1.179.184-.825 0-1.166-.408-.759-.407.408-1.457.191-2.333-.482-.876-.674-.692-.173.408 1.113m5.167 4.795c-1.623 1.622-.471 3.091 2.333 2.977 1.65-.068 3-.492 3-.942 0-.451.52-.499 1.155-.107.715.443.883.275.44-.44-.946-1.531-3.3-1.474-3.933.095-.301.747-.536.545-.583-.5-.08-1.781-1.208-2.288-2.412-1.083M97 141.941c0 1.994-.501 3.059-1.438 3.059-.821 0-1.373.857-1.287 2 .083 1.1.553 2 1.045 2s.649-.638.35-1.417c-.299-.78.043-1.643.761-1.918 1.552-.596 2.674-5.482 1.435-6.248-.476-.294-.866.842-.866 2.524M31.5 146c.346.559-.426 1-1.75 1-1.302 0-3.241.661-4.309 1.468-1.067.808-2.729 1.483-3.691 1.5-.962.018-1.75.482-1.75 1.032s-.874 1-1.943 1-2.609.949-3.421 2.11c-.813 1.16-2.072 1.911-2.798 1.669-1.457-.485-3.838 1.468-3.838 3.15 0 1.516-1.087 1.328-2.39-.413-.696-.932-1.949-1.261-3.36-.884-1.966.525-2.248 1.25-2.237 5.735.014 5.093.064 5.174 6.427 10.383 11.835 9.688 13.818 5.2 3.535-8-1.502-1.929-1.744-2.774-.808-2.831.733-.045 2.683-.192 4.333-.328 1.65-.135 6.375.13 10.5.589 4.125.46 11.787 1.289 17.027 1.842 5.239.554 13.564 2.148 18.5 3.543 15.164 4.286 14.199 4.233 10.972.61-2.146-2.408-3.586-3.104-6.385-3.087-4.007.025-17.536-1.477-23.373-2.594-2.791-.535-3.91-1.321-4.344-3.05-.322-1.282-.26-2.857.138-3.5.397-.644.84-3.34.983-5.993.187-3.458-.147-4.979-1.181-5.375-.874-.336-1.176-.125-.768.535.479.776.082.772-1.383-.011-2.554-1.368-3.491-1.402-2.686-.1m61.167 5.667c-.367.366-.667 1.131-.667 1.7 0 .626.466.567 1.183-.15.651-.651.951-1.416.667-1.7s-.817-.217-1.183.15m-82.854 7.016c.721.289 1.584.253 1.916-.079s-.258-.568-1.312-.525c-1.165.048-1.402.285-.604.604M83 159c.825.533 1.95.969 2.5.969s.325-.436-.5-.969-1.95-.969-2.5-.969-.325.436.5.969m6 .5c-.685.825-1.865 1.5-2.622 1.5-.758 0-1.378.706-1.378 1.568 0 1.298.517 1.2 3-.568 1.65-1.175 3-2.556 3-3.068 0-1.32-.566-1.16-2 .568m-3 8.5c0 .55.45 1 1 1s1.032 1.912 1.07 4.25c.085 5.115 1.069 7.935 2.43 6.963.55-.392 1.11-1.838 1.245-3.213s.451-3.986.703-5.803c.398-2.866.211-3.224-1.411-2.709-1.028.326-2.158.125-2.512-.447-.82-1.327-2.525-1.354-2.525-.041m-24 11.167c0 1.191.313 1.853.696 1.471 1.08-1.081 1.232-3.638.216-3.638-.502 0-.912.975-.912 2.167m31.234 13.208c.954.728 1.495 1.563 1.202 1.856-1.01 1.009.783 5.769 2.172 5.769.766 0 1.392-.499 1.392-1.108 0-.679.955-.869 2.46-.491 1.809.454 2.73.113 3.479-1.287 1.249-2.334-.411-4.01-4.29-4.331C98.192 192.662 97 192.31 97 192s-1.237-.65-2.75-.756c-2.476-.172-2.577-.06-1.016 1.131"/></svg>