<svg xmlns="http://www.w3.org/2000/svg" width="200" height="200" fill="#000000"><path fill-opacity=".102" fill-rule="evenodd" d="M81.358 1.54c-4.478.699-10.273 2.213-12.877 3.365S63.27 7 62.688 7c-1.495 0-14.815 6.984-16.463 8.632-.752.752-1.782 1.368-2.289 1.368-1.387 0-5.572 3.62-14.444 12.492S17 42.549 17 43.936c0 .507-.616 1.537-1.368 2.289C13.4 48.457 7.422 60.942 4.726 69 .1 82.829-1.268 100.8 1.129 116.231c1.371 8.827 5.809 22.438 9.587 29.402 4.206 7.754 12.287 19.352 14.406 20.675 1.033.645 1.878 1.686 1.878 2.314 0 .627 1.462 2.273 3.25 3.657 1.788 1.385 4.172 3.396 5.298 4.47 2.974 2.836 11.299 8.51 16.129 10.994a821 821 0 0 1 6 3.113c9.738 5.15 28.161 9.145 42.147 9.141 11.031-.003 28.204-2.997 34.421-6.001 2.272-1.098 4.73-1.996 5.463-1.996s3.114-1.125 5.292-2.5 4.644-2.5 5.48-2.5 1.52-.353 1.52-.784 1.463-1.638 3.25-2.681c8.474-4.942 23.343-19.811 28.285-28.285 1.043-1.787 2.249-3.25 2.681-3.25s.784-.684.784-1.52 1.125-3.302 2.5-5.48 2.5-4.56 2.5-5.292.917-3.23 2.038-5.55 2.749-8.142 3.619-12.938 1.978-9.147 2.462-9.67c1.107-1.193 1.175-24.849.07-24.167-.446.276-1.411-2.96-2.144-7.191-1.209-6.986-4.679-17.875-7.173-22.515a462 462 0 0 1-3.117-6C184.136 44.6 170.432 27 168.541 27c-.583 0-1.58-.832-2.215-1.85-1.119-1.792-13.764-10.553-21.742-15.064-14.875-8.412-41.245-11.975-63.226-8.546M60.564 16.707c-.542 1.425-.428 1.54.56.56.684-.679.991-1.486.683-1.793-.308-.308-.867.247-1.243 1.233m-2.485 15.876c.048 1.165.285 1.402.604.605.289-.722.253-1.585-.079-1.917s-.568.258-.525 1.312M.385 100c0 6.875.16 9.688.355 6.25.196-3.437.196-9.062 0-12.5-.195-3.437-.355-.625-.355 6.25"/><path fill-opacity=".327" fill-rule="evenodd" d="M63.828 13.25c-2.642 2.125-4.688 10.711-4.588 19.25.094 7.921-2.373 19.5-4.154 19.5-.473 0-1.09 1.238-1.371 2.75-.282 1.513-.776 3.65-1.098 4.75-1.864 6.362-2.073 9.657-1.077 16.947.605 4.429 1.815 9.414 2.689 11.078q1.589 3.024 1.099 7.5c-1.122 10.238-1.06 14.71.255 18.486.765 2.194 1.492 5.226 1.616 6.739s.806 2.75 1.514 2.75c.769 0 1.287 1.231 1.287 3.059 0 1.785.417 2.802 1 2.441.55-.34 1-.168 1 .382s-.498 1.308-1.107 1.684c-.608.376-.712.965-.229 1.309.482.344 1.424 1.75 2.092 3.125s2.084 3.625 3.144 5c1.884 2.441 2.971 11.733 3.068 26.23.03 4.425.273 4.86 3.782 6.76a317 317 0 0 1 5.25 2.896c.825.475 3.525 1.887 6 3.138 6.774 3.422 8 4.811 8 9.064 0 3.04.439 3.916 2.25 4.488 1.237.391 2.859 1.577 3.604 2.635.995 1.413 2.301 1.843 4.92 1.617 2.187-.188 3.726.172 3.979.932 1.235 3.703 22.948-1.171 38.247-8.584 3.025-1.466 8.121-4.414 11.324-6.553 6.515-4.349 20.676-17.682 20.676-19.467 0-.636.413-1.156.917-1.156 1.167 0 9.083-11.792 9.083-13.531 0-.716.337-1.452.75-1.636 2.21-.982 8.483-19.222 10.26-29.833 1.566-9.347 2.168-22 1.047-22-.519 0-1.634.985-2.477 2.19-.844 1.204-1.862 1.861-2.264 1.459s.488-1.776 1.977-3.056c3.02-2.594 3.643-7.02 1.125-7.986-2.149-.825-2.418-.775-2.418.452 0 .582.526.734 1.17.336.798-.493.957-.168.5 1.023-.369.96-.67 1.934-.67 2.164s-.787.411-1.75.403c-1.468-.013-1.513-.166-.279-.946.809-.512 1.157-1.244.774-1.627s-1.289-.206-2.012.395c-1.016.843-1.339.592-1.422-1.108-.059-1.209.105-1.649.365-.977.311.806 1.247.386 2.748-1.234 1.251-1.35 2.473-2.35 2.715-2.222s-.365-.513-1.349-1.426c-.985-.913-1.804-2.263-1.822-3q-.033-1.336-1.43.506c-1.232 1.626-1.394.821-1.357-6.756.03-6.331-.391-9.261-1.593-11.096-.899-1.372-1.344-2.494-.989-2.494s.086-.675-.599-1.5-2.434-1.5-3.887-1.5-4.994-.86-7.869-1.911-7.143-2.206-9.485-2.566c-2.343-.361-8.084-1.707-12.759-2.991-4.675-1.283-10.525-2.719-13-3.189l-4.5-.855.352-8.763c.387-9.614-1.083-13.725-4.908-13.725-3.288 0-11.168 4.542-15.308 8.822-3.618 3.741-4.062 3.927-7 2.923-1.725-.59-3.361-1.336-3.636-1.659-.633-.741-3.747-1.018-12.207-1.085-3.689-.029-6.965-.471-7.282-.983-.316-.512-1.145-.712-1.841-.445-.724.278-3.492-2.5-6.474-6.498C73.771 18.143 67.488 12 65.847 12c-.256 0-1.164.563-2.019 1.25M192.25 71.396c0 1.612.853 2.786 2.606 3.584 2.525 1.151 2.552 1.128.875-.725-.952-1.052-1.731-2.665-1.731-3.584S193.606 69 193.125 69s-.875 1.078-.875 2.396M79.07 73.281c.08 2.502 1.69 6.76 1.974 5.219.827-4.489.658-6.4-.61-6.887-.99-.38-1.412.137-1.364 1.668M193 77c.825.533 2.175.945 3 .914.989-.036.819-.347-.5-.914-2.749-1.181-4.328-1.181-2.5 0M65.5 94c-.34.55-.141 1 .441 1S67 94.55 67 94s-.198-1-.441-1-.719.45-1.059 1m9.622.918c-.758.472-1.069 1.359-.691 1.97.4.648-.015 1.112-.994 1.112-1.294 0-1.425.31-.568 1.342.612.738.848 1.608.523 1.932-.324.325.324.352 1.44.06 2.413-.631 3.041-2.041 2.25-5.054-.414-1.579-.98-1.972-1.96-1.362M192 96c0 .55.45 1 1 1s1-.45 1-1-.45-1-1-1-1 .45-1 1m4.603 3.833c-.283.459.14.834.941.834s1.456-.375 1.456-.834-.423-.833-.941-.833-1.173.375-1.456.833M193.5 102c.34.55.816 1 1.059 1s.441-.45.441-1-.477-1-1.059-1-.781.45-.441 1m-133.927 2.521c-1.06.802-1.695 1.691-1.411 1.975s1.334-.386 2.332-1.49c2.127-2.349 1.783-2.53-.921-.485m5.885 1.547c-.363.588-1.193.864-1.845.614s-1.184.342-1.184 1.317c0 1.655.148 1.664 2.254.136 1.24-.899 2.268-1.973 2.286-2.385.045-1.086-.746-.92-1.511.318m-.958 5.436-3 1.414 3-.594c1.65-.327 3.675-.969 4.5-1.429 2.693-1.498-1.125-.982-4.5.609m-.5 21.465c0 .532.675.709 1.5.393.825-.317 1.5-.753 1.5-.969s-.675-.393-1.5-.393-1.5.436-1.5.969m-32.5 39.887c3.788 4.107 22.396 16.965 24.75 17.101.413.023.75-1.546.75-3.488 0-2.489-.517-3.693-1.75-4.078-1.371-.427-20.907-9.733-25.75-12.265-.55-.287.35.941 2 2.73"/><path fill-opacity=".169" fill-rule="evenodd" d="M61.701 18.782c-.333 1.744.057 3.068 1.147 3.898 1.056.803 1.201 1.268.402 1.288-1.777.045-1.55 4.589.321 6.461 1.769 1.768 3.429 2.06 3.429.602 0-.532.787-.681 1.75-.33 1.608.586 1.623.482.188-1.281-2.31-2.838-5.255-10.097-4.556-11.228.333-.54-.02-1.223-.785-1.516-.913-.351-1.564.373-1.896 2.106m64.984 7.09-3.185 1.437 3 .727 3 .727-2.75.119c-1.513.065-2.75.596-2.75 1.181 0 .584.787.983 1.75.885 3.04-.31 3.799.05 2.25 1.067-1.258.826-1.278 1.128-.122 1.873 2.05 1.321.514 2.948-3.495 3.7l-3.546.665 2.832 1.95c2.385 1.642 2.477 1.848.581 1.306-1.64-.469-2.25-.225-2.25.902 0 1.286-.42 1.355-2.5.407-2.122-.967-2.909-2.375-2.693-4.818.025-.275.381-1.366.793-2.424.737-1.898.721-1.898-1.249 0-8.501 8.195-11.896 10.118-6.953 3.939l2.389-2.985-3.008-1.265c-1.655-.696-3.857-1.265-4.894-1.265S102 33.657 102 33.238c0-.42-2.812-.824-6.25-.898-3.437-.074-7.988-.412-10.112-.75-3.404-.542-3.781-.406-3.18 1.148 1.417 3.663 1.705 7.043.654 7.693-.679.42-.865.089-.494-.879.328-.854.14-1.552-.417-1.552-.558 0-.764-1.013-.46-2.25.322-1.305.177-1.9-.343-1.417-.494.459-.937 1.134-.984 1.5-.138 1.063-1.478 4.513-2.487 6.403-1.298 2.432-1.169 2.794.737 2.063 1.136-.436 1.429-.259.925.558-.407.658-1.268 1.113-1.914 1.012-1.71-.268-4.675 1.189-4.675 2.297 0 .524.563.614 1.25.201.718-.431.612.035-.25 1.097-1.354 1.668-1.532 1.685-1.826.179-.292-1.496-.591-1.46-2.885.344C67.882 51.094 66.403 52 66.004 52c-1.588 0 .426-5.348 3.129-8.306 2.957-3.239 3.962-5.848 1.448-3.761-1.112.923-1.609.84-2.292-.382-.739-1.319-1.289-1.366-3.573-.305C61.989 40.513 60.984 43 63.2 43c.933 0 .933.267 0 1.2-.66.66-1.2 2.235-1.2 3.5 0 2.751-.786 2.912-2.692.55-1.287-1.596-1.354-1.53-.759.75.359 1.375 1.283 3 2.052 3.61 1.716 1.362 1.819 4.57.199 6.19-.933.933-.933 1.2 0 1.2.66 0 1.2 1.252 1.2 2.782 0 2.245-.482 2.822-2.5 2.989-1.898.157-2.5-.272-2.5-1.782 0-2.574-.744-2.511-3.056.261-2.52 3.02-2.409 4.163.556 5.75 1.375.736 2.5 2.107 2.5 3.047 0 .939.662 2.258 1.472 2.93 1.262 1.047 1.272 1.421.072 2.622-.771.771-1.883 1.401-2.473 1.401-1.865 0-1.156 1.744.93 2.29 1.101.288 1.799.196 1.552-.205-.248-.4.496-1.538 1.652-2.528 2.031-1.74 2.077-1.737 1.353.071-.413 1.03-.919 2.322-1.126 2.872-.581 1.547 2.313 4.812 3.77 4.253 2.065-.793 3.32-.631 3.034.39-.151.537.578.492 1.693-.105 2.894-1.549 6.828.577 7.604 4.11.346 1.58 1.333 4.281 2.192 6.002s1.61 4.043 1.668 5.158c.059 1.114.741 2.238 1.516 2.496 1.021.339 1.213-.043.699-1.383-.538-1.403.333-2.761 3.587-5.59 4.512-3.925 6.055-3.779 6.055.575 0 1.406.619 3.07 1.375 3.698 1.006.834 1.375.839 1.375.018 0-.617.787-1.115 1.75-1.107 1.363.012 1.45.206.393.875-.883.56-.992 1.086-.311 1.506.575.355 1.451-.079 1.946-.965.496-.885 1.3-1.536 1.787-1.446s1.046-.319 1.243-.91c.218-.654-1.305-1.075-3.891-1.075-4.934 0-4.747-1.082.21-1.223 1.834-.052 3.937-.698 4.675-1.436 1.57-1.57 4.198-1.784 4.198-.341 0 .55 2.011 1 4.469 1 4.837 0 5.427 1.662 1.262 3.558-1.227.558-2.146 1.479-2.042 2.046.111.605-1.093.844-2.909.577-2.556-.375-2.989-.168-2.471 1.182.399 1.039.113 1.637-.781 1.637-.776 0-1.731.52-2.123 1.155-.452.73-.274.882.484.413.659-.407 1.854-.196 2.655.468 1.025.851 1.456.877 1.456.086 0-.617 1.125-1.122 2.5-1.122 1.549 0 2.5-.567 2.5-1.492 0-1.084.874-1.395 3.203-1.141 1.762.193 3.361.824 3.553 1.401.369 1.107-5.238 2.805-7.702 2.332-1.233-.237-1.244-.034-.076 1.374 1.231 1.483 1.098 1.583-1.303.98-1.715-.43-2.675-.266-2.675.456 0 1.084-11.277.655-13.146-.5-1.423-.879-4.618 2.776-4.113 4.706.332 1.272-.033 1.884-1.124 1.884-.89 0-1.617.675-1.617 1.5s.675 1.5 1.5 1.5 1.5-.45 1.5-1 .408-1 .906-1 .671.9.384 2-.921 2-1.407 2c-.485 0-.883.702-.883 1.559 0 .904-.475 1.266-1.13.861-.68-.421-.949-.157-.676.663.25.749 1.546 1.626 2.88 1.95 2.254.546 2.188.636-.932 1.274-2.287.467-3.189 1.127-2.828 2.068.291.76.115 1.886-.392 2.503-.65.791-.568.827.278.122 1.552-1.294 4.8-1.294 4.8 0 0 1.948.182 2.514 1.202 3.743 1.276 1.537 8.277.606 11.59-1.542 1.26-.817 3.955-1.669 5.989-1.893s4.608-1.265 5.723-2.312c2.454-2.305 4.075-1.433 4.029 2.169-.025 2.003-.34 2.41-1.271 1.637-.883-.732-1.409-.582-1.833.522-.327.852-1.198 1.318-1.935 1.035-1.404-.538-3.663 2.735-4.224 6.12-.583 3.524-2.191 4.147-11.52 4.462-.963.032-1.75.713-1.75 1.513 0 1.093.932 1.344 3.75 1.01 10.397-1.233 11.099-1.498 11.744-4.438.341-1.55 1.494-3.61 2.563-4.577 1.869-1.692 1.943-1.674 1.943.467 0 2.499-2.355 5.365-3.522 4.286-.417-.386-.453.573-.079 2.132.447 1.858.323 2.612-.359 2.191-.572-.354-1.04-.238-1.04.258 0 .495-1.781 1.434-3.958 2.086-2.82.845-3.796 1.609-3.393 2.659.765 1.992 2.13 1.86 2.535-.246.274-1.424.809-1.21 3.129 1.25l2.798 2.968-.631-2.619c-.538-2.231-.257-2.69 1.892-3.101 2.074-.397 2.578-.058 2.826 1.9.438 3.451 2.35 2.767 2.048-.734-.17-1.973.207-2.946 1.139-2.946.766 0 1.372-.562 1.346-1.25-.025-.687.025-2.318.111-3.622.133-1.991.4-2.172 1.658-1.128.825.685 1.5 1.64 1.5 2.122 0 .483-.675.878-1.5.878s-1.5.45-1.5 1 .42 1 .933 1 1.218.9 1.567 2c.89 2.803 1.791 2.498 3.407-1.153 1.309-2.956 1.48-3.038 2.745-1.309 1.563 2.139 1.824 8.462.348 8.462-.55 0-1 .927-1 2.059s-.45 1.781-1 1.441-1.007-1.604-1.015-2.809c-.009-1.207-.345-1.727-.75-1.158-1.626 2.287-3.735.981-3.687-2.283.026-1.788-.344-3.25-.822-3.25s-.729 1.238-.559 2.75c.201 1.779-.126 2.662-.928 2.5-1.51-.305-1.553.295-.204 2.816.57 1.064 1.695 1.934 2.5 1.934.827 0 1.465.925 1.465 2.122 0 1.651-.295 1.878-1.328 1.021-.876-.727-2.381-.8-4.425-.214-1.703.489-3.355.629-3.672.313-.316-.316-.575-.1-.575.48s-1.575 1.351-3.5 1.712-3.528.749-3.562.861c-.796 2.619-.787 8.705.012 8.705 1.689 0 1.208 2.771-.729 4.193-1.859 1.366-2.246 3.116-.971 4.39 1.243 1.244.844 3.417-.628 3.417-.757 0-1.933.67-2.612 1.488-1 1.205-.929 1.606.372 2.105.883.339 1.358 1.019 1.053 1.512-1.352 2.188 2.635.621 4.521-1.776 1.606-2.042 2.378-2.395 3.273-1.5.644.644 1.811 1.171 2.593 1.171 1.146 0 1.183-.289.189-1.487-.679-.818-.977-2.16-.661-2.983.316-.822-.084-3.359-.888-5.638S112 177.58 112 177.374c0-1.422 5.213.299 12.709 4.196 4.835 2.514 10.961 5.445 13.613 6.514 4.548 1.833 5.003 1.85 8 .288 7.637-3.979 15.678-9.343 15.678-10.458 0-.503.529-.914 1.176-.914 1.963 0 13.788-12.904 18.535-20.227 1.524-2.35 3.045-4.498 3.382-4.773.336-.275 1.41-2.199 2.385-4.276 1.537-3.271 1.693-5.609 1.165-17.5-.335-7.548-.686-24.299-.78-37.224s-.37-25.852-.612-28.727l-.441-5.226-2.861 1.479c-3.73 1.929-10.021 1.487-11.96-.84-1.123-1.348-3.689-2.012-10.014-2.588-4.677-.426-9.519-1.319-10.76-1.983s-2.659-.959-3.15-.655-1.072.02-1.288-.63c-.53-1.588-11.424-2.754-12.922-1.382-.848.776-.961.527-.431-.948 3.101-8.634 4.104-19.301 2.236-23.772-1.673-4.003-3.416-4.364-8.975-1.856m-7.185 4.659c-1.821 1.492-2.41 2.449-1.5 2.433.825-.015 2.309-1.138 3.297-2.495 2.219-3.05 1.99-3.042-1.797.062m-57.8 3.196c1.303 3.531 3.825 4.197 4.605 1.216.344-1.317.116-1.905-.634-1.635-.644.232-1.948.022-2.898-.466-1.395-.717-1.602-.547-1.073.885m-2.062 5.336c-.842 4.205-.806 4.937.237 4.937 1.24 0 2.329-6.196 1.275-7.25-.5-.5-1.148.491-1.512 2.313m30.057.994c-.441 1.688-.283 1.846.884.878C92.17 39.614 92.465 38 91.117 38c-.486 0-1.126.926-1.422 2.057m10.876 2.514c-.367 1.466-.443 2.89-.168 3.165s.801-.699 1.168-2.165c.368-1.465.444-2.889.169-3.164s-.801.699-1.169 2.164m32.41-1.048c-1.057 1.273-.995 1.42.378.893.902-.347 1.641-1.032 1.641-1.523 0-1.286-.579-1.105-2.019.63m-48.314 1.144c-.367.366-.667 1.131-.667 1.7 0 .626.466.567 1.183-.15.651-.651.951-1.416.667-1.7s-.817-.217-1.183.15m18.333.392c0 .582.45.781 1 .441s1-.816 1-1.059-.45-.441-1-.441-1 .477-1 1.059m13.098.726c.688 1.102 2.86 2.53 4.826 3.174 1.967.644 4.139 1.404 4.826 1.689.688.285 1.242.144 1.232-.315-.009-.458-2.347-1.958-5.195-3.333-7.185-3.469-7.084-3.448-5.689-1.215M103.5 46c-.34.55-.141 1 .441 1S105 46.55 105 46s-.198-1-.441-1-.719.45-1.059 1m-14.515 2.046c-1.852 1.423-2.071 1.915-.857 1.932 1.613.022 4.532-2.651 3.75-3.434-.225-.224-1.526.452-2.893 1.502m15.599 1.595c-.527 1.373-.38 1.435.893.378 1.735-1.44 1.916-2.019.63-2.019-.491 0-1.176.739-1.523 1.641m24.751 1.109c-.091 1.513-.391 4.013-.668 5.556-.298 1.663-.089 2.668.513 2.467 1.176-.392 2.212-10.773 1.076-10.773-.416 0-.83 1.237-.921 2.75m-33.697.75c-.316.825-.139 1.5.393 1.5.533 0 .969-.675.969-1.5s-.177-1.5-.393-1.5-.652.675-.969 1.5m-7.713.142c.625.315.634 1.389.025 2.99-1.245 3.275-1.258 9.082-.018 7.818 1.528-1.556 1.771-10.695.293-11.02-.701-.154-.836-.059-.3.212m30.154 2.608c-.043.962.109 1.75.339 1.75s1.13.273 2 .607 1.582.109 1.582-.5S121.362 55 120.583 55s-1.643-.562-1.921-1.25c-.301-.747-.536-.545-.583.5m-51.304 1.308c-1.152 1.152.496 4.552 1.938 3.999.798-.307 1.864-.557 2.369-.557s.918-.45.918-1-1.152-1-2.559-1c-1.451 0-2.292-.433-1.941-1 .663-1.073.193-1.36-.725-.442M82 57.306c0 3.406-2.854 9.903-4.03 9.175-1.246-.77-1.243-4.632.005-7.916.537-1.411.623-2.565.191-2.565-1.684 0-4.145 2.609-4.455 4.724-.443 3.018-1.632 4.022-2.706 2.283-.684-1.105-1.532-1.208-3.696-.447-4.269 1.502-3.019 2.852 3.475 3.754 5.388.748 5.953 1.07 7.012 4 .634 1.752 1.261 5.774 1.393 8.936.25 5.989 1.38 7.146 3.906 4 3.054-3.804 4.1-6.455 2.987-7.568-.595-.595-1.082-2.165-1.082-3.489 0-1.729-.423-2.245-1.5-1.831-1.006.386-1.5-.045-1.5-1.31 0-1.037.476-2.044 1.058-2.238 1.659-.553 1.91-8.989.316-10.583C82.209 55.066 82 55.229 82 57.306m-24.541-.239c-1.026 1.66-.105 1.89 1.33.332.71-.769.849-1.399.309-1.399-.539 0-1.277.48-1.639 1.067m37.069 5.465c-1.539 3.042-2.578 5.751-2.308 6.021.737.737 4.262-.907 4.403-2.053.067-.55.41-2.913.762-5.25.351-2.337.482-4.25.29-4.25-.191 0-1.607 2.489-3.147 5.532m8.722-.792c-.687.235-1.25 1.488-1.25 2.784 0 1.297-.45 2.636-1 2.976-2.097 1.296-.99 3.5 1.75 3.485 2.039-.012 2.379-.251 1.314-.924-1.164-.737-1.197-1.196-.177-2.424 1.573-1.896 1.078-6.481-.637-5.897m-12.626 3.799c-.965 2.514-.681 3.163.498 1.136.584-1.004.851-2.036.593-2.293-.257-.258-.749.263-1.091 1.157M62 68.98c-3.156 2.444-2.21 4.264 4.02 7.732 6.588 3.667 8.209 5.308 6.854 6.94-.828.997-.821 1.348.028 1.348.631 0 1.586-1.154 2.123-2.565 1.334-3.509 1.225-4.468-.435-3.831-2.785 1.069-7.461-2.4-8.144-6.042-.354-1.888-.348-3.911.014-4.497 1.081-1.75-1.775-1.164-4.46.915m5.461.144c-1.006 3.169 4.185 8.021 7.289 6.815 1.237-.481 2.25-1.634 2.25-2.562 0-1.542-.172-1.531-2 .123-1.93 1.747-2.07 1.747-4 0-2.385-2.159-2.752-5.726-.5-4.862.825.317 1.5.078 1.5-.531 0-2.023-3.848-1.16-4.539 1.017M88 71.059c0 .582-.426.795-.948.473-.526-.325-.762.377-.531 1.577.587 3.049 1.316 3.486 2.143 1.284.392-1.041 1.415-2.441 2.274-3.111 1.359-1.06 1.27-1.223-.688-1.25-1.237-.018-2.25.445-2.25 1.027m8.315.001C93.657 72.067 92 74.95 92 78.569v2.701l2-2.543c1.1-1.398 2-3.002 2-3.563s.729-1.75 1.619-2.64c2.014-2.014 1.544-2.542-1.304-1.464M107.5 71c-.34.55.335 1 1.5 1s1.84-.45 1.5-1-1.015-1-1.5-1-1.16.45-1.5 1m-.5 6.866c0 .659-1.013 1.605-2.25 2.103-1.523.612-1.724.925-.622.968 1.849.072 4.489-2.653 3.515-3.628-.354-.353-.643-.103-.643.557m2.431 1.758c-1.555 2.083-3.039 2.728-7.195 3.127-3.476.334-5.236.956-5.236 1.851 0 1.058.593 1.123 2.75.303 1.513-.575 2.975-.987 3.25-.915s2.404-.403 4.731-1.055c4.542-1.271 6.837-3.208 5.796-4.891-1.007-1.63-1.978-1.256-4.096 1.58M70 91.5c-.685.825-1.077 1.534-.872 1.577 3.363.69 3.601.601 3.134-1.183-.597-2.282-.683-2.297-2.262-.394m50 11c-.718.865-.815 1.5-.229 1.5.558 0 1.274-.675 1.591-1.5s.419-1.5.229-1.5-.906.675-1.591 1.5m-33 10.441c0 1.068.402 2.19.894 2.493.491.304.829-.569.75-1.94-.168-2.916-1.644-3.413-1.644-.553m22.405 3.917c2.038 2.292 2.595 2.588 2.595 1.383 0-.418-1.013-1.382-2.25-2.142-2.242-1.377-2.243-1.375-.345.759m-11.326 1.725c.048 1.165.285 1.402.604.605.289-.722.253-1.585-.079-1.917s-.568.258-.525 1.312m-36.403 1.819c-.296.771-.273 1.668.051 1.992.857.856 3.352-1.458 2.703-2.507-.817-1.322-2.145-1.073-2.754.515m43.394 1.289c.039.445.457 1.709.93 2.809.829 1.928.862 1.921.93-.191.038-1.205-.38-2.469-.93-2.809s-.968-.254-.93.191m-11.991 1.892c.048 1.165.285 1.402.604.605.289-.722.253-1.585-.079-1.917s-.568.258-.525 1.312m6.356.892c-2.668 2.667-2.831 5.011-.352 5.044 1.529.02 4.917-3.679 4.917-5.368 0-2.271-2.121-2.121-4.565.324m-24.511 1.117c-.499.601-.675 1.324-.391 1.608.283.283-.181 1.093-1.032 1.799-1.279 1.062-1.452 1.037-.999-.143.39-1.017-.321-1.493-2.477-1.657-1.664-.127-3.025.157-3.025.63 0 1.594 3.736 4.259 7.382 5.266 1.99.549 3.618 1.498 3.618 2.107s.9.293 2-.702c1.241-1.123 2-1.349 2-.596 0 .668.508.9 1.128.517.772-.477.614-.986-.5-1.609-.895-.501-1.628-1.366-1.628-1.921s.52-.688 1.155-.296c.737.456.882.273.4-.506-.565-.914-1.24-.779-2.697.54-1.861 1.684-1.914 1.679-1.232-.096.575-1.5.331-1.755-1.28-1.334-1.567.41-1.94.071-1.752-1.589.364-3.208.394-3.235 1.49-1.353.804 1.38 1.44 1.533 2.969.714 1.158-.619 1.947-.658 1.947-.095 0 .521.787.831 1.75.69s1.538-.664 1.28-1.161c-.259-.498-1.047-.773-1.75-.611-.704.161-1.28-.064-1.28-.5 0-1.204-6.041-.95-7.076.298M120 126.924c0 .474.675 1.121 1.5 1.438s1.5.187 1.5-.286c0-.474-.675-1.121-1.5-1.438s-1.5-.187-1.5.286m7 16.017c0 .518.45 1.219 1 1.559s1-.084 1-.941-.45-1.559-1-1.559-1 .423-1 .941M116.5 147c-.729 1.18.217 3 1.559 3 .518 0 .941-.9.941-2 0-2.109-1.455-2.691-2.5-1m16.814 10.797c.035 6.329 1.319 7.848 1.858 2.197.209-2.197.064-3.994-.322-3.994-.387 0-.897-.787-1.135-1.75-.237-.963-.418.634-.401 3.547M78 158c0 3.176.369 4 1.789 4 .983 0 3.54.893 5.681 1.985s4.112 1.767 4.378 1.5c.267-.267-.04-.485-.681-.485-.642 0-1.167-.436-1.167-.969s.787-.715 1.75-.405c1.065.342 1.321.232.654-.282-.603-.464-1.399-2.082-1.769-3.594-.618-2.527-1.738-3.154-5.385-3.019-.687.026-1.25-.578-1.25-1.342S81.1 154 80 154c-1.667 0-2 .667-2 4m6 3c-.825.533-1.05.969-.5.969s1.675-.436 2.5-.969 1.05-.969.5-.969-1.675.436-2.5.969m43.079 2.583c.048 1.165.285 1.402.604.605.289-.722.253-1.585-.079-1.917s-.568.258-.525 1.312M101 169.882c0 .55.45 1.278 1 1.618s1 .168 1-.382-.45-1.278-1-1.618-1-.168-1 .382M102.5 183c.34.55.816 1 1.059 1s.441-.45.441-1-.477-1-1.059-1-.781.45-.441 1m-48.75 2.08c-2.397 1.396-2.197 2.396.75 3.738 2.362 1.076 2.5.975 2.5-1.839 0-3.195-.512-3.494-3.25-1.899M95 189.559c0 1.451.433 2.292 1 1.941.55-.34 1-1.491 1-2.559S96.55 187 96 187s-1 1.152-1 2.559m36.395-1.729c.693 1.122 6.364 4.17 7.759 4.17 1.66 0 .808-1.681-1.404-2.768-3.716-1.827-7.076-2.568-6.355-1.402"/><path fill-opacity=".446" fill-rule="evenodd" d="M83.448 34.218c.854 2.045 1.566 4.745 1.584 6 .03 2.143.115 2.173 1.399.479 1.015-1.339 1.492-1.468 1.852-.5q.484 1.3 1.174-.697c.379-1.1 1.08-2.739 1.557-3.642 1.147-2.17.309-2.858-3.481-2.858-1.723 0-3.696-.562-4.385-1.25-.819-.817-.715.037.3 2.468m10.076.401c-.891.891-1.36 1.878-1.044 2.194s1.563-.412 2.77-1.619S96.927 33 96.294 33s-1.88.729-2.77 1.619m4.098.184c-.346.559-.354 1.732-.018 2.607.335.874.112 1.59-.497 1.59S96 38.564 96 38.031s-.675-.709-1.5-.393c-.825.317-1.5 1.189-1.5 1.938 0 .755.622 1.122 1.399.824 2.63-1.009 2.624 1.437-.009 3.508-2.491 1.959-2.526 2.108-.672 2.83 1.913.745 1.916.85.145 4.762-.996 2.2-1.829 3.325-1.852 2.5-.037-1.333-.149-1.333-1.011 0-1.415 2.19-1.221 2.855.75 2.567.963-.141 1.911-1.082 2.108-2.091.393-2.016 2.968-4.983 3.694-4.257.675.674-1.614 6.781-2.541 6.781-.437 0-1.12 1.237-1.517 2.75-.578 2.196-.851 2.405-1.359 1.037-.915-2.467-2.982-.804-3.745 3.013-.735 3.673.976 4.447 2.099.95.628-1.953.786-2.013 1.199-.455.36 1.357 1.006.746 2.644-2.5 1.456-2.883 2.922-4.402 4.462-4.62 1.714-.243 2.146-.79 1.709-2.166-.321-1.012-.047-2.173.611-2.579.664-.411.934-.316.606.213-.323.524-.273 1.462.111 2.084.871 1.408 10.169-.351 10.169-1.925 0-.569-.901-.8-2.002-.512-1.222.32-2.421-.122-3.076-1.133-.996-1.538-1.036-1.538-.561.01.581 1.89-1.998 3.369-2.661 1.527-.236-.657.004-2.036.535-3.065.678-1.314.637-1.668-.135-1.191-.715.442-1.099-.477-1.097-2.629.002-2.562.679-3.761 2.997-5.309 3.009-2.01 3.86-3.5 2-3.5-.55 0-1 .461-1 1.025s-1.125 1.452-2.5 1.975c-1.508.573-2.5 1.738-2.5 2.936 0 1.092-.98 2.899-2.177 4.014-2.534 2.361-3.846 1.93-1.442-.474C100.206 44.651 100.5 43 99 43c-.55 0-1-.477-1-1.059s.515-.741 1.145-.351c.788.487.99-.103.648-1.891-.313-1.64.002-2.79.855-3.118.758-.29 1.352.127 1.352.95 0 .808.672 1.469 1.494 1.469 1.295 0 1.464-1.392.58-4.785-.041-.157-1.031.227-2.201.853-1.616.865-2.307.848-2.875-.072-.483-.78-.971-.849-1.376-.193m-7.024 6.933c-1.088 1.088-.621 2.09.873 1.871 2.211-.324 2.8-1.289 1.17-1.915-.795-.305-1.714-.285-2.043.044m15.459.208c-1.186.75-1.226 1.389-.227 3.582.721 1.583 1.768 2.458 2.571 2.15.746-.286 1.916.008 2.602.652.967.908 1.14.835.771-.328-.262-.825-1.484-1.46-2.715-1.411-1.905.076-2.177-.334-1.822-2.75.229-1.561.382-2.832.34-2.824s-.726.427-1.52.929M86.528 43.5c-.503 1.1-.96 2.675-1.018 3.5-.057.825-.645 1.388-1.307 1.25-1.829-.38-1.437 1.723.457 2.45 1.379.529 1.252.79-.75 1.54-2.406.902-2.406.907-.376 2.582 1.663 1.371 1.962 2.57 1.639 6.556-.266 3.29-.047 4.662.674 4.217.615-.38 1.024-3.723.963-7.878-.057-3.969.227-8.419.631-9.888.405-1.469.57-3.494.368-4.5-.343-1.703-.431-1.691-1.281.171m25.11 0c.317.825 1.033 1.5 1.591 1.5.586 0 .489-.635-.229-1.5-.685-.825-1.401-1.5-1.591-1.5s-.087.675.229 1.5M89 46.059c0 .582.45.781 1 .441s1-.816 1-1.059S90.55 45 90 45s-1 .477-1 1.059m-25.974 2.892c-1.448 2.705-.519 3.971 1.462 1.989.906-.906 1.122-1.954.583-2.825-.678-1.097-1.103-.923-2.045.836m28.224-.289c-1.43.577-1.699 2.338-.357 2.338.491 0 1.152-.675 1.469-1.5.316-.825.477-1.464.357-1.421-.121.043-.781.306-1.469.583m29.95.538c-1.841 1.841-1.434 2.664 1.05 2.12 1.669-.366 1.892-.24.863.487-.845.598-1.191 2.007-.884 3.61.277 1.447.133 2.859-.319 3.139-.453.279-.567 1.174-.255 1.987.402 1.049.098 1.3-1.044.861-.886-.34-1.611-1.231-1.611-1.98 0-.799-.619-1.124-1.5-.786-.825.317-1.5.078-1.5-.531S115.1 57 114 57s-2-.466-2-1.035c0-.699-.658-.683-2.021.046-1.111.595-2.574.764-3.25.375s-.895-.338-.488.112.284 1.369-.275 2.043c-.722.87-.542 1.408.62 1.854 1.179.452 1.474.205 1.057-.884-.319-.831-.144-1.511.388-1.511.533 0 .969.459.969 1.019 0 .575 1.041.758 2.391.419 1.315-.33 2.677-.137 3.027.429.383.62-.206.866-1.483.62-1.461-.281-1.959.008-1.605.931.283.736-.014 1.909-.658 2.607-.879.952-.881 1.105-.007.615.64-.359 1.354-.312 1.586.104s.298.231.148-.411c-.344-1.473 2.333-2.576 3.128-1.289.325.526.283 1.454-.093 2.063-.461.745.011.887 1.441.433 1.261-.4 2.125-.241 2.125.393 0 .587.787 1.074 1.75 1.082 1.51.014 1.544.161.25 1.076-1.333.943-1.333 1.015 0 .648.969-.267 1.386-1.356 1.178-3.076-.176-1.465.161-2.719.75-2.788l4.072-.482c1.65-.197 3.9-.462 5-.589 1.1-.128 2-.6 2-1.05 0-1.424-3.088-2.066-4.267-.887-1.809 1.809-2.733 1.327-2.733-1.426 0-1.407-.403-2.31-.895-2.006-.493.305-1.191-.218-1.553-1.16-.362-.943-.35-1.406.027-1.03.376.377 1.563.214 2.637-.361 1.84-.984 1.763-1.186-1.325-3.465-3.863-2.849-3.226-2.684-4.691-1.219m10.73 1.484c-.561 1.477-.888 3.584-.725 4.683.167 1.13.758-.036 1.362-2.685 1.188-5.216.914-6.077-.637-1.998m-52.27 6.712c-2.107 3.215-3.045 7.248-1.857 7.982.984.609 2.557-2.692 3.635-7.628.738-3.38.266-3.474-1.778-.354m20.724 2.101c-2.309 1.807-3.088 3.26-3.189 5.947-.074 1.956.277 3.556.779 3.556 1.582 0 4.026-4.333 4.026-7.139 0-1.482.563-2.895 1.25-3.141.688-.245 1.011-.709.72-1.03-.292-.321-1.906.492-3.586 1.807m35.658 1.753a552 552 0 0 0-1.638 5.524c-.198.701-1.382 1.685-2.632 2.187-1.726.693-1.851.927-.522.976.963.034 1.791.401 1.841.813.156 1.293-.004 9.669-.219 11.456-.236 1.962-1.872 1.363-1.872-.686 0-.748-1.35-1.658-3-2.02s-3-1.073-3-1.579c0-1.187.682-1.162 3.066.114 2.408 1.289 2.752-1.111.434-3.035-.825-.685-1.5-1.769-1.5-2.41 0-.64-.956-1.236-2.125-1.324-2.09-.158-2.086-.119.25 2.376l2.375 2.536-4.908-.535c-2.699-.295-5.174-.907-5.5-1.361s-1.717-.879-3.092-.944c-1.375-.066-3.286-.441-4.246-.834-1.484-.608-1.662-.287-1.181 2.141.416 2.105-.023 3.483-1.673 5.245-1.241 1.325-1.606 2.181-.819 1.923.78-.257 2.348-1.838 3.483-3.512 1.827-2.695 2.275-2.892 3.892-1.709 1.005.735 2.326 1.549 2.936 1.809.69.295.423 1.028-.709 1.945-.999.81-1.899 1.85-2 2.313s-1.315.714-2.698.559c-1.382-.156-3.407.392-4.5 1.218-1.538 1.162-1.647 1.534-.485 1.651.825.082.247.434-1.284.781l-2.784.632 2.177 2.696c1.701 2.107 2.771 2.578 4.896 2.153 1.576-.315 4.049.145 5.886 1.095 4.093 2.116 6.24.952 2.995-1.625-1.312-1.042-4.071-2.6-6.13-3.463-2.058-.862-3.492-1.974-3.186-2.47s1.296-.163 2.199.74c1.075 1.075 1.772 1.25 2.02.508.208-.624 1.015-1.134 1.794-1.134S116 85.341 116 84.535c0-2.989 3.584-3.656 7.734-1.441 3.398 1.813 3.84 2.45 3.467 4.992-.236 1.603-.12 2.914.257 2.914 1.061 0 3.508-2.701 2.951-3.257-.272-.273.144-.741.925-1.041 1.151-.442 1.266.139.604 3.071-.448 1.989-.591 3.979-.318 4.422.274.443-.011.805-.632.805-1.602 0-3.531 2.133-4.18 4.623-.458 1.755-.186 2.044 1.569 1.663 1.276-.276 1.681-.126 1.015.377-.61.46-.992 1.593-.849 2.518s-.371 1.923-1.142 2.218c-.77.296-1.401 1.121-1.401 1.832s-1.013 1.739-2.25 2.282c-1.742.764-2.25 1.811-2.25 4.64 0 3.258-.202 3.544-1.871 2.65-1.299-.697-1.67-.678-1.213.061.361.585-.223 1.943-1.299 3.019-1.759 1.759-1.805 2.14-.455 3.786 1.449 1.767 1.48 1.765.897-.06-.517-1.617-.379-1.704.949-.602 1.296 1.075 1.793.974 2.991-.609.791-1.044 1.452-2.183 1.469-2.531s.935-.87 2.039-1.158c1.271-.333 2.239-1.69 2.642-3.703.349-1.748 1.244-3.411 1.987-3.697.744-.285 1.091-.941.772-1.458-.319-.516-.049-1.579.6-2.361.65-.783.984-2 .743-2.706s.729-2.316 2.156-3.578l2.593-2.293-2.5-2.09c-2.264-1.892-2.298-2.027-.368-1.426 2.4.746 3.72-1.209 2.333-3.454-.493-.797-.418-1.898.178-2.616.566-.682.797-1.616.512-2.076-.284-.46.327-.899 1.357-.977 1.183-.089 1.686.35 1.363 1.191-.281.733-.023 1.634.573 2.003.597.369.81 1.114.475 1.657s-.835 3.324-1.11 6.181-1.372 6.621-2.439 8.365c-1.234 2.018-1.564 3.403-.907 3.809.568.351 1.033 2.186 1.033 4.079s.398 3.441.883 3.441c1.33 0 2.083 3.903.895 4.637-.632.391-.393.999.615 1.563.907.508 1.388 1.345 1.069 1.861-.319.517-.103.939.479.939s1.073-.787 1.091-1.75c.017-.963.692-2.624 1.5-3.691.807-1.068 1.468-3.241 1.468-4.83 0-2.734.173-2.851 3.25-2.192 4.268.915 4.389 1.1 2.256 3.457-1.028 1.135-1.315 2.006-.661 2.006.635 0 1.155.45 1.155 1s-.655 1-1.455 1c-.87 0-1.718 1.405-2.111 3.5-.361 1.925-1.057 3.5-1.545 3.5-.489 0-.889.675-.889 1.5s-.477 1.5-1.059 1.5-.779.453-.436 1.008c.342.554-.049 1.679-.87 2.5-1.891 1.891-2.635 1.889-2.635-.008 0-.825.45-1.5 1-1.5s1-1.077 1-2.394c0-1.928-.489-2.366-2.51-2.25-1.635.094-2.334.605-2.004 1.466.279.728.014 2.245-.589 3.371-.837 1.563-.811 1.872.107 1.305 1.239-.766-1.287 3.696-3.784 6.682-1.261 1.51-1.166 1.621.938 1.088 1.288-.326 2.567-.857 2.842-1.18.275-.324 1.224-1.038 2.11-1.588s2.812-1.848 4.281-2.885c2.993-2.113 4.517-1.666 2.204.647-.825.825-1.197 1.803-.826 2.173.37.371.011 1.086-.798 1.591-1.113.694-1.211 1.335-.4 2.636 1.458 2.339 3.429 2.862 3.429.91 0-2.032 6.227-11.618 7.325-11.278.454.141.774.695.711 1.231s1.366 1.2 3.175 1.475c2.489.378 3.369 1.061 3.616 2.808.327 2.303-2.516 7.837-3.513 6.839-.29-.29-1.41.296-2.49 1.302-1.079 1.006-3.263 2.089-4.853 2.407-2.718.543-2.829.754-1.857 3.54 1.305 3.745.794 8.686-.864 8.354-.687-.137-1.264.538-1.282 1.5-.025 1.384-.558 1.151-2.546-1.11l-2.515-2.86.692 2.759c.491 1.954.358 2.553-.453 2.051-.675-.417-1.146-.064-1.146.859 0 1.322-.318 1.371-2.031.309-1.652-1.023-2.187-1.006-2.871.094-.664 1.065-1.161.897-2.346-.795-1.339-1.912-1.574-1.962-2.151-.459-.357.929-.934 1.403-1.283 1.054s-1.238-.133-1.976.479c-1 .83-1.342.797-1.342-.131 0-.974-.315-.983-1.45-.042-.797.662-2.935 1.103-4.75.979-8.176-.558-10.289 1.899-9.935 11.547.227 6.178-1.13 9.607-4.647 11.741-2.484 1.507-2.554 1.709-.822 2.374 1.304.5 2.332.131 3.304-1.187.776-1.051 2.13-1.764 3.008-1.583 1.379.284 1.513-.555.988-6.181l-.608-6.51 4.412-2.585c2.426-1.422 5.781-2.859 7.456-3.194 2.651-.53 3.044-.326 3.044 1.582 0 1.205.501 3.173 1.113 4.375 1.722 3.377 8.682 9.684 10.689 9.684.989 0 2.3.502 2.913 1.115.82.82 2.316.657 5.657-.619 3.858-1.474 4.745-2.346 5.897-5.803 1.609-4.828 3.731-6.064 3.731-2.173v2.687l3.33-2.853a476 476 0 0 1 7.63-6.354l4.299-3.5-.629-36c-.346-19.8-.922-41.492-1.279-48.203l-.651-12.204-3.1-.658c-1.705-.362-3.775-1.236-4.6-1.943s-2.4-1.451-3.5-1.652c-1.1-.202-2-.883-2-1.513 0-1.718-5.019-5.327-7.408-5.327-1.15 0-2.092-.337-2.093-.75s-1.213-.82-2.695-.906-3.218-.874-3.859-1.75c-1.88-2.571-3.042-1.871-4.403 2.656m-30.253 4.071c-.375 1.964-.114 2.315 1.424 1.913 1.036-.271 1.75-1.185 1.585-2.03-.492-2.54-2.516-2.461-3.009.117M123 65.059c0 .582.45.781 1 .441s1-.816 1-1.059-.45-.441-1-.441-1 .477-1 1.059m-68.517 1.947c-1.373.482-1.208.798.918 1.767 2.313 1.054 7.599.262 7.599-1.139 0-.734-6.788-1.235-8.517-.628M72 67.93c0 .589-.675 1.07-1.5 1.07-2.043 0-1.884 1.342.404 3.413 1.627 1.473 2.214 1.532 4.032.405 2.76-1.709 2.334-5.209-.686-5.638-1.237-.175-2.25.162-2.25.75m41 1.011c0 2.553 1.721 3.535 3.544 2.023 1.025-.851 1.456-.877 1.456-.086 0 .617.761 1.122 1.691 1.122 1.513 0 1.497-.142-.153-1.348-1.014-.742-1.523-1.867-1.132-2.5.392-.634.235-1.152-.347-1.152s-1.066.563-1.074 1.25c-.01.774-.295.869-.75.25-1.324-1.802-3.235-1.541-3.235.441m-46.921 1.642c.048 1.165.285 1.402.604.605.289-.722.253-1.585-.079-1.917s-.568.258-.525 1.312M92 71.059c0 .582.45.781 1 .441s1-.816 1-1.059S93.55 70 93 70s-1 .477-1 1.059m7.25.971c-2.823 1.136-2.808 1.761.133 5.436 2.155 2.694 2.614 2.856 4.995 1.771 1.987-.905 2.622-1.926 2.622-4.216 0-1.941-.507-3.021-1.418-3.021-.78 0-2.018-.197-2.75-.437-.733-.241-2.345-.031-3.582.467m-32.235 1.647c.044 2.344 2.231 3.683 6.398 3.918 4.36.246 4.587.128 4.587-2.39v-2.65l-1.557 2.222c-1.935 2.764-3.444 2.797-6.808.15-1.449-1.139-2.628-1.702-2.62-1.25M61 76.924c.825.575 2.328 1.052 3.34 1.061s2.62.979 3.574 2.157 2.289 1.957 2.968 1.731c1.878-.626-3.927-4.516-7.922-5.308-2.546-.505-3.064-.41-1.96.359m33.526 2.026c-.868 1.677-1.985 3.05-2.484 3.05s-1.227 1.013-1.618 2.25c-.39 1.237-1.658 3.086-2.817 4.109-1.159 1.022-2.004 2.232-1.877 2.689.339 1.227-3.151 2.096-6.199 1.543-1.795-.325-2.518-.093-2.221.713.242.658 1.03 1.056 1.751.884 2.629-.626 6.135.858 5.561 2.354-.307.802-.236 1.443.159 1.425C86.05 97.908 90 94.217 90 93.09c0-.6.852-1.09 1.893-1.09 1.894 0 3.09-1.746 3.769-5.5.729-4.037 1.242-4.562 3.816-3.916 3.231.811 3.173.324-.426-3.529l-2.949-3.156zm-17.654 2.3c-.07.688-.234 2.274-.364 3.525-.131 1.251.077 2.468.461 2.706.384.237.716-.112.739-.775.022-.663.371-2.443.775-3.956.477-1.787.346-2.75-.375-2.75-.609 0-1.165.563-1.236 1.25m-14.059 1.433c.721.289 1.584.253 1.916-.079s-.258-.568-1.312-.525c-1.165.048-1.402.285-.604.604M135.5 84c.34.55.816 1 1.059 1s.441-.45.441-1-.477-1-1.059-1-.781.45-.441 1m-11.628 9.662c-.754.914-2.722 2.488-4.372 3.496-2.454 1.501-2.636 1.834-1 1.834 1.71-.001 8.5-5.227 8.5-6.543 0-1.045-1.858-.324-3.128 1.213M95 96c-1.125.727-.625.969 2 .969s3.125-.242 2-.969c-.825-.533-1.725-.969-2-.969s-1.175.436-2 .969m-14.24 4.525c.445 2.329.583 2.388 1.773.761C83.96 99.334 83.574 98 81.58 98c-.854 0-1.136.87-.82 2.525m32.053 2.158c.721.289 1.584.253 1.916-.079s-.258-.568-1.312-.525c-1.165.048-1.402.285-.604.604m9.854.984c-1.319 1.318-.625 2.333 1.583 2.318 1.651-.012 1.887-.245.887-.879-1.151-.729-1.151-.948 0-1.406 1.026-.408.972-.562-.22-.621-.871-.043-1.884.221-2.25.588m25.013 6.042c-1.139 1.843.394 4.292 2.677 4.276 1.75-.013 1.868-.193.643-.985q-1.5-.969-.25-.985c.688-.008 1.25-.513 1.25-1.122s-.646-.859-1.435-.556c-.79.303-1.607.036-1.817-.594-.277-.831-.57-.84-1.068-.034m-15.251 12.346c0 1.07.578 1.945 1.285 1.945s1.286-.395 1.286-.878c0-.482-.579-1.357-1.286-1.944-.972-.807-1.285-.594-1.285.877m-20.898 2.643c.519 2.441.444 2.562-.583.935-1.093-1.732-1.289-1.639-2.712 1.3-.883 1.821-2.08 2.957-2.82 2.673-.708-.272-1.432-.059-1.609.472s-1.668 1.068-3.314 1.193c-1.646.126-3.23.543-3.519.926-.777 1.028-2.372-.356-3.684-3.197-1.131-2.45-1.155-2.429-1.191 1-.019 1.925.627 4.376 1.437 5.447 1.453 1.921 1.542 1.916 6.718-.352 2.885-1.264 6.596-2.815 8.246-3.447 3.986-1.525 7.919-5.162 7.069-6.536-.374-.606-1.57-1.577-2.657-2.159-1.796-.961-1.922-.802-1.381 1.745M89.5 125c-.34.55-.141 1 .441 1S91 125.55 91 125s-.198-1-.441-1-.719.45-1.059 1m62.234 2.25c-.264.688-.498 1.65-.521 2.138-.023.489-.643 1.269-1.378 1.735-1.023.649-.927.85.415.862.963.008 1.75-.66 1.75-1.485s.536-1.387 1.191-1.25c.654.137 1.362-.537 1.573-1.5.439-2.008-2.279-2.456-3.03-.5M88.5 130c-.34.55-.168 1 .382 1s1.278-.45 1.618-1 .168-1-.382-1-1.278.45-1.618 1m58.5 4.059c0 .582.45.781 1 .441s1-.816 1-1.059-.45-.441-1-.441-1 .477-1 1.059m-36.541 11.008c-.363.586-.445 1.281-.183 1.543s.743-.218 1.069-1.067c.676-1.762.1-2.072-.886-.476m45.291 6.668c-5.226.412-5.652 1.165-2.895 5.111 1.02 1.46 2.133 5.095 2.473 8.077s1.107 5.908 1.705 6.5c.779.773.897.582.419-.673-.528-1.388-.13-1.75 1.929-1.75 2.095 0 2.55-.433 2.357-2.25-.131-1.238-1.138-2.668-2.238-3.179-1.714-.797-1.428-1.021 2-1.568 3.238-.518 3.619-.784 2-1.402-1.1-.42-3.125-1.27-4.5-1.889-2.381-1.071-2.286-1.151 2-1.668 2.515-.304 4.279-.985 4-1.544-.275-.55-1.062-.937-1.75-.861s-1.25-.711-1.25-1.75-.338-1.808-.75-1.709-2.887.349-5.5.555M79 159c0 3.529.055 3.545 3.976 1.161l3.025-1.84-2.548-1.16C79.658 155.431 79 155.703 79 159m71.667 18.667c-1.054 1.053-.776 6.333.333 6.333.55 0 1-1.575 1-3.5 0-3.597-.182-3.984-1.333-2.833M95.158 190c0 1.375.227 1.938.504 1.25.278-.687.278-1.812 0-2.5-.277-.687-.504-.125-.504 1.25"/></svg>