<svg xmlns="http://www.w3.org/2000/svg" width="200" height="200" fill="#000000"><path fill-opacity=".447" fill-rule="evenodd" d="M89 1.041C74.245 2.71 57.834 8.795 44.254 17.632c-8.393 5.461-23.07 20.638-28.657 29.633C5.431 63.632.701 80.779.772 101c.06 16.893 2.829 28.733 10.224 43.708C23.664 170.36 46 188.91 74 197.034c9.595 2.784 32.864 3.841 43.414 1.973 21.147-3.745 43.003-15.65 56.725-30.898 36.219-40.248 34.89-100.232-3.063-138.185-8.789-8.789-16.857-14.474-28.37-19.99C127.268 2.537 106.366-.924 89 1.041m10 45.826c0 .89 7.891.575 8.818-.352.283-.283-1.585-.515-4.151-.515-2.567 0-4.667.39-4.667.867m-3 1.192c0 .582.45.781 1 .441s1-.816 1-1.059S97.55 47 97 47s-1 .477-1 1.059m-11.187.624c.721.289 1.584.253 1.916-.079s-.258-.568-1.312-.525c-1.165.048-1.402.285-.604.604m4.456.01c.973.254 2.323.237 3-.037s-.119-.481-1.769-.461-2.204.244-1.231.498m24.981-.004c.963.252 2.537.252 3.5 0 .963-.251.175-.457-1.75-.457s-2.713.206-1.75.457m4.75 46.37c0 .582.45.781 1 .441s1-.816 1-1.059-.45-.441-1-.441-1 .477-1 1.059m9.396 1.382c.414 1.649.215 3.322-.495 4.179-1.912 2.303-.559 2.458 2.929.337 3.052-1.856 4.963-4.498 3.971-5.49-.246-.245-1.943-.745-3.771-1.111-3.228-.646-3.304-.585-2.634 2.085M.286 100.5c.008 2.75.202 3.756.432 2.236s.223-3.77-.014-5-.425.014-.418 2.764m99.411 6.25c-.873 1.556-1.827 6.714-1.109 5.996.412-.413 1.461-.138 2.331.611 2.998 2.58 5.782 2.594 6.949.034 1.349-2.962.486-5.391-1.916-5.391-1.009 0-2.112-.45-2.452-1-.724-1.171-3.195-1.334-3.803-.25m11.218 14.049c-1.421 1.486-3.446 3.256-4.5 3.935s-1.465 1.169-.915 1.088 2.267.378 3.815 1.017c3.704 1.528 4.739 1.465 4.081-.249-.328-.856.302-1.677 1.605-2.09 1.902-.604 1.982-.869.703-2.341-.794-.912-1.614-2.199-1.824-2.86-.233-.736-1.381-.155-2.965 1.5"/><path fill-opacity=".099" fill-rule="evenodd" d="M89.512 1.107C67.305 3.444 46.195 13.653 29.924 29.924 4.427 55.421-5.364 92.161 4.053 127c9.898 36.613 42.574 65.955 80.215 72.027 12.073 1.948 32.167.808 43.232-2.452 40.351-11.888 68.127-45.428 72.442-87.475 3.314-32.298-11.12-65.899-37.249-86.711C153.298 14.906 137.915 7.004 127 4.053 120.345 2.254 103.024-.16 99 .15c-.825.064-5.094.494-9.488.957m70.567 29.476c.048 1.165.285 1.402.604.605.289-.722.253-1.585-.079-1.917s-.568.258-.525 1.312M41.32 36c0 3.575.182 5.038.403 3.25s.222-4.712 0-6.5c-.221-1.788-.403-.325-.403 3.25m109.911-.572c-1.617 1.706-1.904 2.539-1 2.903.729.294.418.587-.731.69-1.704.152-1.629.297.5.979 5.231 1.675 6 1.291 6-3 0-4.648-1.412-5.113-4.769-1.572m-86.447 5.973c3.425 3.795 7.575 8.935 9.222 11.421C75.653 55.309 77 56.85 77 56.248s-1.575-3.158-3.5-5.68S70 45.78 70 45.533c0-.248 2.203.656 4.895 2.008C77.588 48.894 80.753 50 81.93 50c1.806 0 1.979.302 1.105 1.934-1.64 3.066-1.208 3.496.932.927 2.162-2.596 2.656-1.894.933 1.325-.799 1.495-.799 1.87 0 1.376.633-.392 1.1.033 1.1 1.001 0 1.307.304 1.429 1.363.551 1.104-.916 1.271-.651.881 1.392-.39 2.037-.163 2.4 1.179 1.885 1.363-.523 1.571-.141 1.158 2.136l-.503 2.772 2.961-2.836C94.668 60.902 96 59.035 96 58.313S96.45 57 97 57c1.552 0 1.213 1.084-1.614 5.165-1.438 2.075-3.487 4.05-4.553 4.388-1.573.499-1.71.891-.725 2.077.667.803 1.857 1.214 2.645.911.889-.341 1.639.242 1.978 1.539.415 1.588.749 1.769 1.392.755.55-.868.887.066.961 2.665.064 2.2.436 5.125.828 6.5l.712 2.5.644-2.5c.354-1.375.954-6.325 1.334-11 .94-11.587 2.254-14.49 2.335-5.16.054 6.345.368 7.594 2.313 9.216 3.064 2.556 4.196 2.419 2.307-.279-2.27-3.24-1.903-4.178.69-1.762l2.247 2.094 1.753-2.165c2.225-2.748 2.226-4.618.003-5.82-.963-.521-2.607-2.449-3.655-4.285-1.768-3.097-1.568-3.002 2.755 1.316 3.305 3.301 4.468 5.155 4.001 6.374-.41 1.068-.062 2.053.92 2.603.868.486 2.109 2.49 2.757 4.453l1.178 3.57 2.599-2.328 2.599-2.327-2.702 3.327c-1.486 1.829-2.771 4.079-2.854 5-.084.92-.203 2.175-.265 2.787s-.781 1.92-1.598 2.905c-1.367 1.647-1.206 1.638 2.015-.114 2.882-1.569 5.348-1.875 13.973-1.735 6.464.105 10.612.584 10.834 1.25.198.594 1.024 1.08 1.835 1.08.812 0 1.198.45.858 1-.363.587.697 1 2.563 1 2.588 0 2.969.257 2.039 1.377-.912 1.099-.41 1.724 2.494 3.101 1.999.949 5.046 3.088 6.77 4.752 2.874 2.776 2.937 2.966.759 2.292-1.484-.46-2.146-.365-1.765.251.767 1.241 5.64 2.232 5.64 1.147 0-.441-.45-1.08-1-1.42-1.595-.986-1.156-2.774.523-2.129 1.28.491 1.337.235.357-1.596-.9-1.68-.888-2.272.05-2.585.809-.27.464-1.206-1.031-2.798-1.888-2.009-1.979-2.392-.573-2.392 1.457 0 1.415-.259-.326-2-2.217-2.217-2.702-4.473-.75-3.487.688.348-.039-.471-1.614-1.819-2.067-1.769-2.485-2.602-1.5-2.994.952-.378.836-.566-.386-.621-.962-.043-1.637-.417-1.5-.829.138-.412-.2-.763-.75-.78-.55-.016-.885.473-.744 1.087s-.947 1.665-2.418 2.335c-2.38 1.084-2.532 1.047-1.384-.337 1.093-1.317.991-1.555-.665-1.555-2.969 0-3.48-1.12-1.541-3.38 1.742-2.03 1.737-2.032-.963-.331-3.582 2.257-5.481 2.267-3.657.019 1.02-1.257 1.04-1.492.078-.914-.711.428-1.929.251-2.706-.394s-1.882-.882-2.456-.527c-.596.368-1.044-.238-1.044-1.414 0-1.132-.338-1.978-.75-1.879s-2.44-.66-4.505-1.688c-2.585-1.285-3.364-2.116-2.5-2.664.868-.551.638-.807-.745-.83-3.813-.061-12.541-11.044-12.474-15.698.016-1.135 1.586-2.506 4.25-3.711 5.157-2.332 17.227-9.976 18.174-11.509.379-.613-1.03.064-3.13 1.504-4.785 3.281-14.274 7.562-15.323 6.914-.433-.267-1.045.186-1.361 1.008-.586 1.526-7.637 2.214-7.635.744.001-.928-17.534-.446-24.987.687-4.663.709-5.667.576-6.693-.888-.663-.948-2.245-1.629-3.514-1.513-2.286.207-14.482-5.441-18.278-8.465-1.085-.864.83 1.534 4.255 5.33M146 42c0 .55-.027 1.337-.059 1.75s.98 1.043 2.25 1.4c1.804.508 1.434.695-1.691.855l-4 .205 4 1.318c2.2.725 4.9 1.339 6 1.363 1.973.045 1.974.026.059-1.423-1.918-1.45-1.917-1.468.037-1.468 2.813 0 2.882-3.637.084-4.388-3.383-.907-6.68-.716-6.68.388m14.232 2c0 1.925.206 2.712.457 1.75.252-.962.252-2.538 0-3.5-.251-.962-.457-.175-.457 1.75m-105.643-.144c-.291.47.583.643 1.941.383s2.47-.645 2.47-.856c0-.773-3.899-.356-4.411.473M42.232 48c0 1.925.206 2.712.457 1.75.252-.962.252-2.538 0-3.5-.251-.962-.457-.175-.457 1.75m14.018-.969c-3.244 1.304-2.796 1.574 1.87 1.129 2.817-.269 3.687-.668 2.75-1.261-1.628-1.032-1.732-1.029-4.62.132M141 48.872c0 .62.787 1.162 1.75 1.204s.175.645-1.75 1.34l-3.5 1.264 5.5 1.292c3.025.711 6.34 1.727 7.366 2.257 1.383.716 1.755.634 1.439-.313-.234-.703-1.974-1.877-3.865-2.61-3.384-1.31-3.392-1.325-.44-.93 1.65.222 3.83.094 4.845-.283 1.642-.61 1.556-.817-.783-1.883C147.513 48.365 141 47.54 141 48.872m-80 .849c-4.169.748-4.752 2.279-.867 2.279 2.474 0 3.534-.45 3.534-1.5 0-.825-.038-1.439-.084-1.364-.045.075-1.208.338-2.583.585m98.195 1.779c.02 1.65.244 2.204.498 1.231s.237-2.323-.037-3-.481.119-.461 1.769M43.558 56.218c.51 4.333.234 5.15-3.378 10-4.656 6.254-6.56 9.735-5.761 10.534.32.32.581.108.581-.471 0-2.096 8.272-13.391 9.47-12.931.938.36 1.015-.738.33-4.69-1.191-6.874-1.936-8.339-1.242-2.442m58.473-3.468c.018.413 1.255 1.614 2.75 2.67l2.719 1.919-2.424-2.669c-2.548-2.806-3.096-3.151-3.045-1.92M60 54.567l-3.5 1.415 3.5-.596c1.925-.328 3.928-.999 4.45-1.491 1.34-1.262-.266-1.019-4.45.672m61.5.433c.34.55 1.068 1 1.618 1s.722-.45.382-1-1.068-1-1.618-1-.722.45-.382 1m18 1.515c1.65.687 4.55 1.582 6.443 1.989 3.026.65 3.266.562 1.977-.726-.806-.807-3.706-1.702-6.443-1.99-4.707-.494-4.814-.455-1.977.727m18.579 1.068c.048 1.165.285 1.402.604.605.289-.722.253-1.585-.079-1.917s-.568.258-.525 1.312M62 58c-1.333.862-1.333.963 0 .914.825-.03 2.4-.441 3.5-.914l2-.859-2-.055c-1.1-.031-2.675.381-3.5.914m82 3c.825.533 1.95.969 2.5.969s.325-.436-.5-.969-1.95-.969-2.5-.969-.325.436.5.969m16.466 6.143c1.455 1.728 3.752 5.328 5.106 8S168.26 80 168.537 80c.681 0-3.222-7.567-6.306-12.228-1.373-2.074-2.927-3.772-3.453-3.772s.234 1.414 1.688 3.143M44.605 72.586c-.334.872-.171 2.335.363 3.25.773 1.324.977.999 1.002-1.586q.048-5.34-1.365-1.664m39.173 1.479C82.471 76.341 82.393 77 83.43 77c.735 0 1.575-1.237 1.865-2.75.7-3.644.483-3.671-1.517-.185M157 72.5c0 .825.436 1.5.969 1.5s.709-.675.393-1.5c-.317-.825-.753-1.5-.969-1.5s-.393.675-.393 1.5m-78 .388c0 .392.54 1.252 1.2 1.912.864.864.881 1.2.059 1.2-.628 0-1.419-.45-1.759-1s-1.067-1-1.615-1 .266 1.176 1.809 2.614l2.806 2.614-2.715-1.614c-1.493-.888-3.743-1.562-5-1.498-1.507.077-1.727.264-.647.552.901.24 3.065 3.112 4.809 6.384 4.06 7.618 5.425 7.676 4.615.198-.343-3.162-.667-6.2-.72-6.75s.073-1.615.281-2.367c.207-.752-.41-1.5-1.373-1.662s-1.75.026-1.75.417m33.016 1.898c-2.667 2.159-4.276 9.55-2.79 12.812 1.433 3.144 3.516 2.002 2.982-1.636-.546-3.718.472-3.824 2.02-.212l1.179 2.75.378-3.496c.208-1.923.725-3.948 1.15-4.5.925-1.206-.629-7.504-1.853-7.504-.473 0-1.853.804-3.066 1.786m-24.343-.126c-1.078 1.078-.775 3.521.351 2.825.674-.417.793.808.347 3.595-.503 3.15-.372 4.039.517 3.489.862-.533 1.024.047.584 2.097-.546 2.546-.466 2.66.795 1.119 1.041-1.273 1.693-1.425 2.531-.587.837.837 1.4.41 2.186-1.656.846-2.224.702-3.39-.713-5.798-1.971-3.355-5.561-6.121-6.598-5.084M104.509 76c.874 3.052 2.504 5.008 2.459 2.95-.017-.797-.739-2.35-1.603-3.45-1.527-1.943-1.551-1.929-.856.5m37.72 1.837c-1.552.985-1.028 5.397.71 5.976.985.328 1.004-.051.089-1.761-.893-1.668-.887-2.517.025-3.616 1.334-1.607 1.068-1.8-.824-.599M42 80.5c-1.534.877-1.92 1.455-1 1.496 1.333.06 1.333.203 0 1.286-.825.67-1.655 2.118-1.845 3.218s-.865 2.636-1.5 3.413c-.881 1.077-.857 1.513.102 1.835.909.306.683 1.23-.818 3.338C35.798 96.689 35.135 98 35.467 98s.064 1.013-.596 2.25c-1.121 2.104-1.081 2.153.62.75 1-.825 2.423-2.945 3.161-4.71s2.696-5.346 4.352-7.957c2.615-4.124 2.803-4.862 1.433-5.628-1.406-.787-1.379-1.032.243-2.262 2.388-1.81.516-1.77-2.68.057m27-.583c0 .504 1.237 1.89 2.75 3.081 1.951 1.536 2.169 1.955.75 1.442-1.1-.397-3.35-.916-5-1.152-2.199-.315-2.617-.164-1.566.564 1.1.762.632 1.091-2 1.411-2.144.26-1.111.477 2.751.577 3.402.088 7.402.623 8.889 1.188s2.863.868 3.058.673C79.481 86.853 72.4 79 70.786 79c-.982 0-1.786.412-1.786.917M91.158 81c0 1.375.227 1.938.504 1.25.278-.687.278-1.812 0-2.5-.277-.687-.504-.125-.504 1.25M103 80.618c0 .55.661 1.873 1.468 2.941.808 1.067 1.468 1.491 1.468.941s-.66-1.874-1.468-2.941c-.807-1.068-1.468-1.491-1.468-.941m-3.325 5.314c-1.827 5.923-2.132 8.337-.785 6.211.699-1.103 1.01-1.114 1.662-.059.47.761.315 1.46-.375 1.69-1.955.652-1.328 2.897 1.288 4.611 3.111 2.039 3.531 2.023 3.55-.135.013-1.468.166-1.513.946-.279.512.809 1.161 1.24 1.443.958s-.656-2.969-2.084-5.971c-1.429-3.002-2.907-7.033-3.285-8.958l-.685-3.5zm25.762-1.794c-2.924 3.124-2.926 3.13-.271 1.44 1.466-.934 2.915-2.346 3.219-3.138.797-2.079.342-1.817-2.948 1.698M143.5 86c.34.55.816 1 1.059 1s.441-.45.441-1-.477-1-1.059-1-.781.45-.441 1m-41.421 4.583c.048 1.165.285 1.402.604.605.289-.722.253-1.585-.079-1.917s-.568.258-.525 1.312m36.171 2.079c-.687.278-1.25 1.341-1.25 2.362s-.445 2.133-.989 2.469c-.552.341-.742-.03-.431-.84.683-1.782-.069-2.279-4.791-3.165l-3.697-.693.463 3.852c.255 2.119.197 3.291-.129 2.603-1.034-2.181-4.418-1.402-5.426 1.25-1.105 2.907-1.727 3.057-4.028.975-1.472-1.332-1.838-1.341-2.893-.07-.978 1.178-.803 1.673.921 2.595 1.571.841 1.853 1.472 1.076 2.408-1.083 1.305-.987 7.309.146 9.143.408.66-.628.883-2.875.621-3.045-.356-3.469-.149-3.18 1.555.386 2.277-1.776 5.273-3.806 5.273-.766 0-2.14 1.565-3.052 3.478-1.57 3.292-1.559 3.588.203 5.535 1.024 1.132 2.387 1.856 3.028 1.61s1.903.413 2.803 1.465c1.028 1.2 2.852 1.883 4.897 1.835l3.26-.077-4-1.318-4-1.318 7.75-.105c4.43-.06 7.75-.533 7.75-1.105 0-.953-2.558-1.266-9.741-1.194-1.782.018-3.496-.381-3.809-.887-.327-.53 2.821-.919 7.432-.919 4.4 0 8.259-.419 8.575-.931.893-1.444-.742-2.007-6.411-2.208-5.921-.209-4.674-1.637 1.454-1.665 5.794-.026 6.16-.123 4.5-1.196-.825-.533-2.873-.976-4.55-.985-2.996-.015-5.45-1.518-5.45-3.337 0-.508.66-.375 1.466.294.807.669 2.044.985 2.75.701.851-.341.73-.542-.359-.594-.904-.043-1.902-.754-2.219-1.579-.77-2.007.026-1.891 2.437.355 1.37 1.276 2.839 1.676 4.708 1.28 2.433-.515 2.488-.611.522-.917-1.207-.189-1.988-.881-1.735-1.54.253-.658-.785-1.968-2.305-2.911-1.901-1.178-2.244-1.722-1.098-1.74.916-.015 1.838-.543 2.048-1.173.236-.708 3.227-1.194 7.834-1.273 9.968-.169 13.174-1.811 14.341-7.344.492-2.33 1.269-4.237 1.727-4.237 1.242 0-.101 6.049-2.141 9.644l-1.784 3.144 3.029.606c4.485.897 6.79.685 4.279-.394-1.843-.792-1.803-.87.5-.993l2.5-.134-2.5-1.124-2.5-1.125 2.75-.378c1.512-.208 2.784-.911 2.827-1.562.042-.651.235-2.027.429-3.058.231-1.223-1.411-3.566-4.732-6.75-4.981-4.775-8.336-5.904-12.524-4.214M68 93.919c-1.46.42-2.445 1.404-2.367 2.365.121 1.494-.134 1.508-2.75.156-5.039-2.606-3.488.817 2.666 5.884 4.016 3.306 6.783 4.753 10.013 5.238 2.454.368 4.747 1.129 5.095 1.692 1.258 2.036-7.17-.444-13.459-3.961-6.203-3.468-10.066-4.09-4.535-.73 1.56.948 4.05 2.554 5.532 3.569s4.718 2.387 7.19 3.049 4.271 1.566 3.997 2.011c-.275.444.678.808 2.118.808 1.491 0 2.352.431 2 1-.34.55-.194 1 .324 1 1.093 0 2.485-3.806 2.194-6-.109-.825-.87-2.252-1.691-3.17-1.34-1.499-1.265-1.793.725-2.858 1.659-.888 1.892-1.389.923-1.988-.713-.44-2.151-.279-3.196.358-1.523.928-2.139.838-3.099-.453-.863-1.161-1.822-1.381-3.429-.786-1.866.69-2.333.419-2.853-1.655-.343-1.364-.389-3.373-.104-4.464.559-2.138-.691-2.39-5.294-1.065M79.5 94c.34.55 1.041 1 1.559 1s.941-.45.941-1-.702-1-1.559-1-1.281.45-.941 1m39.959.067c-1.166 1.886.343 2.185 2.699.535L124.445 93h-2.163c-1.19 0-2.461.48-2.823 1.067m-7.38 3.6c-.043 1.191-.61 2.343-1.259 2.56-.757.252-.89 1.089-.372 2.333.701 1.684.929 1.5 1.732-1.402.509-1.839.712-3.864.451-4.5s-.509-.183-.552 1.009M144 96.65c0 1.531-12.51 9.13-17.249 10.478-4.859 1.382-7.123 2.9-4.201 2.816 5.819-.167 24.299-11.428 22.199-13.528-.412-.412-.749-.307-.749.234M.252 100.5c.011 2.2.216 2.982.455 1.738s.23-3.044-.02-4-.446.062-.435 2.262m129.248 1.662c-2.75 1.621-3.875 2.639-2.5 2.261 2.446-.671 8-4.136 8-4.991 0-.546.367-.728-5.5 2.73m-93.994 1.832c-.999 1.103-1.351 2.006-.783 2.006 1.258 0 3.752-2.858 3.08-3.53-.265-.265-1.299.42-2.297 1.524m68.935-.09c.425.688-.299 1.096-1.948 1.096-3.253 0-6.066 1.444-6.864 3.524-.358.935-.191 1.324.409.952.642-.396.913.965.739 3.699L96.5 117.5l6 .582 6 .582-5.789.168c-4.889.142-5.589.384-4.5 1.557.935 1.008 1.495 1.077 2.039.25.534-.811 1.038-.707 1.75.361.709 1.064 1.218 1.17 1.75.366.412-.624 1.65-1.303 2.75-1.509 1.345-.252 2.45-1.794 3.375-4.712 1.248-3.936 1.197-4.676-.546-7.987-1.057-2.007-2.741-3.806-3.744-3.999-1.124-.217-1.563.068-1.144.745m-67.926 4.815-1.756 2.781 2.315-2.222c1.273-1.222 2.063-2.474 1.756-2.781-.308-.308-1.349.692-2.315 2.222M163.71 109c.288 1.1.937 2 1.442 2 .507 0 .439-.895-.152-2-.589-1.1-1.237-2-1.442-2s-.135.9.152 2m-125.362 1.261c-.484.681-.812 1.914-.729 2.739s.202 2.287.266 3.25c.162 2.463 1.607 2.174 3.489-.698 1.155-1.763 1.284-2.645.46-3.154-.752-.465-.867-.26-.334.602.551.892.42 1.068-.414.553-.672-.415-.986-1.37-.698-2.122.697-1.816-.923-2.745-2.04-1.17m123.881 2.927c.218.653.931 1.365 1.584 1.583.731.244.954-.214.581-1.187-.698-1.818-2.765-2.196-2.165-.396M144 114c0 .55 1.012.993 2.25.985 1.819-.013 1.963-.201.75-.985-1.939-1.253-3-1.253-3 0m-56.312 2.646c-.379.378-.688 1.936-.688 3.463 0 2.466-.418 2.823-3.75 3.197-2.6.292-2.317.357.924.212 3.972-.178 4.754.099 5.212 1.85.296 1.133-.007 2.415-.674 2.849-.789.514-.513.733.788.628 7.225-.584 8.714 1.336 2.25 2.898l-4.25 1.028 6.272-.017c3.45-.009 6.531-.436 6.848-.948.746-1.208-2.363-4.622-5.853-6.427-2.344-1.212-4.088-4.428-4.229-7.796-.049-1.192-1.966-1.822-2.85-.937m-46.438 2.385c-2.54 1.021-3.032 2.969-.75 2.969.825 0 1.447.338 1.382.75-.435 2.753.265 4.407 1.641 3.879 1.243-.476 1.328-.22.465 1.394-.593 1.107-.653 1.977-.137 1.977 1.194 0 2.076 5.927.982 6.603-.458.283-.833 1.939-.833 3.679v3.164l3-3.285c3.507-3.84 3.763-5.161 1-5.161-1.965 0-2.572-2.148-2.051-7.257.098-.966-.46-2.002-1.242-2.302-.929-.357-1.326-1.737-1.147-3.993.151-1.896.199-3.419.107-3.385s-1.18.471-2.417.968m88.512 3.676c1.244.239 3.044.23 4-.02s-.062-.446-2.262-.435-2.982.216-1.738.455M130.5 125c.34.55 1.041 1 1.559 1s.941-.45.941-1-.702-1-1.559-1-1.281.45-.941 1m21.313-.317c.721.289 1.584.253 1.916-.079s-.258-.568-1.312-.525c-1.165.048-1.402.285-.604.604m-17.254 1.849c-1.602 1.212-1.66 1.468-.332 1.468.885 0 2.247.245 3.026.544.78.299 2.504-.361 3.832-1.467l2.415-2.01-3.5-.002c-1.925-.001-4.374.659-5.441 1.467M157 129.878c0 .482.675 1.437 1.5 2.122 1.628 1.351 1.832 1.028.893-1.418-.643-1.675-2.393-2.19-2.393-.704m-26 3.555c4.184 1.691 5.79 1.934 4.45.672-.522-.492-2.525-1.163-4.45-1.491l-3.5-.596zM128 135c.825.533 1.95.969 2.5.969s.325-.436-.5-.969-1.95-.969-2.5-.969-.325.436.5.969m23.053.387c.303.302 2.327 1.278 4.498 2.169 3.218 1.319 3.671 1.348 2.449.156-.825-.805-2.849-1.781-4.498-2.169s-2.751-.458-2.449-.156M126 136.43c0 .275.9.981 2 1.57s2 .845 2 .57-.9-.981-2-1.57-2-.845-2-.57m28.722 3.644c1.222 1.273 2.474 2.063 2.781 1.756.308-.308-.692-1.349-2.222-2.315l-2.781-1.756zM149 142c2.727 2.133 1.636 2.572-2.492 1.003-3.52-1.338-2.362.296 2.059 2.904 3.523 2.078 3.564 2.08 2.935.1-.416-1.312-.181-2.015.681-2.029.724-.012.192-.902-1.183-1.978s-2.95-1.956-3.5-1.956.125.88 1.5 1.956m-50 .439c0 1.905 7.489 3.021 12.042 1.795l3.458-.931-4-1.146c-5.207-1.492-8.211-1.46-8.838.093-.403 1-.52 1-.583 0-.111-1.75-2.079-1.571-2.079.189M46 144.5c-.735 1.373-1.048 2.785-.696 3.137s1.115-.609 1.696-2.137c1.364-3.587.726-4.225-1-1m5.158.5c0 1.375.227 1.938.504 1.25.278-.687.278-1.812 0-2.5-.277-.687-.504-.125-.504 1.25m87.175 1.51c0 .771.375 1.17.834.887s.85-.151.871.294c.02.445 1.642 2.609 3.604 4.809s2.88 2.936 2.038 1.635c-.841-1.3-1.29-2.988-.998-3.75.327-.851-.135-1.385-1.197-1.385-1.499 0-1.547-.226-.357-1.692.889-1.096.939-1.432.143-.954-.676.406-2.064.292-3.084-.254-1.395-.747-1.854-.645-1.854.41m-3.333.937c0 .938 5.963 9.553 6.612 9.553.77 0-3.843-7.947-5.328-9.179-.706-.586-1.284-.754-1.284-.374M50.158 152c0 1.375.227 1.938.504 1.25.278-.687.278-1.812 0-2.5-.277-.687-.504-.125-.504 1.25M123 156.5c-.694.837-.803 1.5-.245 1.5.55 0 1.56-.675 2.245-1.5.694-.837.803-1.5.245-1.5-.55 0-1.56.675-2.245 1.5m-8.641 2.423c-1.727 1.053-3.481 2.466-3.898 3.14-.902 1.459 5.231-2.011 6.738-3.813 1.431-1.71.837-1.569-2.84.673"/><path fill-opacity=".638" fill-rule="evenodd" d="M90.278 1.077C67.833 3.224 46.36 13.488 29.924 29.924c-30.44 30.44-37.943 75.939-18.902 114.62 12.438 25.267 34.738 43.841 62.478 52.04 12.156 3.592 33.078 4.492 45.598 1.96 19.419-3.928 37.187-13.271 51.047-26.845 8.326-8.153 17.178-20.658 21.43-30.272 6.821-15.425 10.007-35.011 8.269-50.834-6.079-55.322-54.395-94.796-109.566-89.516m61.164 27.252c-2.781 1.744-7.281 4.8-10 6.792-2.718 1.991-6.352 4.338-8.076 5.215-2.986 1.52-3.383 1.475-8.433-.961-14.29-6.894-33.407-6.883-48.503.028l-5.4 2.473-4.765-2.596c-2.621-1.427-5.665-3.365-6.765-4.305C56.079 32.05 46.826 26 45.774 26c-.551 0 1.712 1.812 5.029 4.027 6.326 4.225 21.641 19.659 23.454 23.637.91 1.998.621 2.736-2.091 5.328-1.731 1.654-3.8 3.008-4.598 3.008-.797 0-1.696.399-1.997.886-.303.489 1.856.714 4.824.502 4.857-.347 5.428-.173 5.949 1.82.317 1.213.461 2.32.32 2.462-.142.141-2.445-.402-5.12-1.207C65.708 64.707 62.666 64.491 65 66c.825.533 2.637.976 4.027.985 3.287.02 7.041 2.673 6.346 4.485-.41 1.068-1.153 1.184-3.023.473-4.495-1.709-5.933-.93-1.85 1.002 2.653 1.256 3.345 1.92 2.054 1.974-1.696.071-1.535.506 1.25 3.379 3.854 3.977 4.269 5.601.55 2.154C71.727 78.017 67 77.084 67 79c0 .55-.702 1-1.559 1s-1.281.45-.941 1-.159 1-1.108 1-1.429.296-1.067.658c.794.794-1.165 3.342-2.57 3.342-.558 0-.449-.663.245-1.5 1.02-1.229.951-1.5-.378-1.5-.892 0-1.622.45-1.622 1s-.788 1.007-1.75 1.015c-1.37.012-1.454.203-.387.879 1.151.729 1.151.939 0 1.348-.75.266-1.018.853-.596 1.304.421.452 1.299.288 1.95-.363.727-.727 4.492-1.183 9.772-1.183 6.614 0 9.49.46 12.511 2 2.158 1.1 4.114 2 4.347 2s.151-1.996-.183-4.436c-.461-3.361-.085-5.603 1.551-9.25 1.188-2.648 2.045-6.024 1.904-7.503-.207-2.17.383-3.001 3.062-4.31L93.5 63.88l-2.453 1.967c-2.181 1.75-2.32 2.258-1.258 4.588.656 1.442 1.873 2.882 2.702 3.2.83.318 1.516 1.318 1.524 2.222.012 1.299.195 1.36.872.291.564-.89 1.103.619 1.577 4.41.495 3.963.999 5.322 1.613 4.352.491-.775.899-1.031.908-.568.008.464-.885 1.987-1.985 3.385-2.116 2.691-2.678 4.81-1 3.773.611-.378 1 1.156 1 3.941 0 2.507.375 4.559.833 4.559 1.758 0 .799 3.621-1.658 6.26-2.346 2.521-2.465 3.048-1.372 6.071.658 1.821 1.197 4.243 1.197 5.383s.675 2.331 1.5 2.648c.825.316 1.5 1.152 1.501 1.857 0 .704 1.125 1.346 2.5 1.425 1.539.089 2.499-.391 2.499-1.25 0-.788 1-1.394 2.3-1.394 1.265 0 2.893-.562 3.618-1.25 1.035-.982 1.026-.768-.041 1-.747 1.238-2.141 2.25-3.098 2.25-1.023 0-2 1.031-2.368 2.5-.345 1.375-1.029 2.5-1.519 2.5-.491 0-.892.614-.892 1.365 0 1.601 4.01 6.958 4.696 6.273.257-.257 2.062.199 4.011 1.013s5.046 1.351 6.882 1.193c2.573-.222 4.049.394 6.439 2.683 1.932 1.85 2.847 2.311 2.429 1.221-1.061-2.765.861-2.047 4.459 1.666 3.978 4.104 3.326 7.017-.764 3.411l-2.638-2.325 1.953 2.311c2.357 2.789 1.892 3.199-7.034 6.194-5.896 1.979-11.54 6.524-14.273 11.495-.604 1.1-1.113 1.472-1.13.827-.016-.646 1.135-2.558 2.559-4.25s2.301-3.077 1.95-3.077c-1.701 0-6.589 3.248-8.451 5.615-1.148 1.46-2.088 2.292-2.088 1.849 0-.444.745-1.629 1.655-2.635s1.19-1.829.622-1.829c-2.236 0-3.329 2.822-2.675 6.91.729 4.56 2.385 6.543 2.42 2.899l.022-2.309 2.065 2.5c1.136 1.375 1.83 2.029 1.544 1.453s1.964-3.726 5.001-7c3.036-3.274 6.208-6.965 7.048-8.203.841-1.238 2.018-2.25 2.616-2.25s-.508 1.688-2.458 3.75c-3.708 3.921-7.86 9.585-7.86 10.722 0 .366 1.237-.203 2.75-1.262 1.513-1.06 3.752-2.451 4.977-3.091 1.946-1.018 2.157-.94 1.669.608-.495 1.57-.407 1.597.772.236 1.428-1.649 10.177-6.963 11.463-6.963.426 0-1.004 1.863-3.178 4.14l-3.953 4.14 5.25-2.799c2.887-1.539 5.25-3.105 5.25-3.479 0-.723 5.067-3.277 5.532-2.789.151.158.936 1.862 1.744 3.787l1.471 3.5-.365-5.874-.365-5.874 2.163 2.874c3.479 4.623 4.054 5.055 2.685 2.012-1.22-2.711-1.093-3.041 2.423-6.264 2.042-1.87 3.712-3.984 3.712-4.696 0-.713.626-2.152 1.392-3.199 1.235-1.69 1.6-1.741 3.25-.458 1.728 1.344 1.725 1.288-.053-.794-2.371-2.78-1.43-3.931 1.954-2.389 3.867 1.762 4.322 1.362.927-.814-2.698-1.729-2.988-2.385-2.646-5.978.212-2.219.788-3.786 1.281-3.481.492.304.895-.599.895-2.006s-.45-2.559-1-2.559c-1.444 0-1.232-2.755.25-3.254.953-.321.894-.86-.25-2.271-1.351-1.666-1.335-1.788.167-1.225 1.732.648 3.316-1.66 2.284-3.329-.305-.494.255-.587 1.244-.208 1.703.654 1.7.538-.068-2.159-1.856-2.833-1.854-2.847.253-2.296 2.709.709 2.686-.273-.075-3.237l-2.195-2.356 2.195.574c2.221.581 3.034-.602 1.195-1.739-1.589-.982-1.159-2.775.512-2.134 1.312.504 1.298.168-.101-2.539-1.531-2.96-1.52-3.083.214-2.417 1.426.547 1.289.127-.622-1.907-1.783-1.897-2.117-2.815-1.225-3.366.909-.562.716-1.303-.752-2.878-1.81-1.944-1.831-2.151-.251-2.468 1.322-.265.97-.796-1.505-2.272-2.234-1.332-2.85-2.167-2-2.707.95-.604.932-.785-.079-.797-.72-.008-1.061-.416-.759-.906.96-1.552-3.931-3.927-7.719-3.749-2.343.11-3.3-.173-2.679-.794 1.665-1.665 1.056-2.823-1.178-2.239-1.609.421-1.859.276-1-.583 2.202-2.202 1.109-3-3.412-2.491-4.285.483-4.428.424-2.403-.994 1.228-.861 4.153-1.474 6.806-1.427l4.653.081-3.994-1.776c-3.758-1.671-3.852-1.813-1.588-2.405 1.323-.346 3.287-.158 4.364.419 1.469.786 1.775.751 1.224-.141-.404-.654-2.596-2.058-4.87-3.12l-4.136-1.932 3.5.544c1.925.299 3.65.983 3.833 1.521.446 1.307 4.167 1.258 4.167-.055 0-.568-1.012-1.478-2.25-2.023-2.015-.888-1.954-.932.584-.428 1.829.363 2.606.194 2.191-.477-.354-.572-.054-1.056.666-1.075.72-.02.184-.663-1.191-1.43l-2.5-1.395 2.5-.972 2.5-.972-2.5-1.121c-2.451-1.099-2.443-1.11.425-.535 2.385.478 2.717.336 1.798-.772-.725-.873-.946-4.073-.62-8.97.288-4.332.097-7.866-.445-8.2-1.21-.748-7.313 1.775-7.236 2.99.086 1.353-5.895 9.412-6.984 9.412-.516 0-.938.675-.938 1.5s-.675 1.5-1.5 1.5c-2.12 0-1.877 1.99.25 2.045 1.07.028.585.544-1.25 1.329l-3 1.284 3 1.092 3 1.092-4 .155-4 .155L137 56.5c3.257 1.254 3.318 1.353.875 1.424-1.444.042-4.064-.212-5.823-.564-2.854-.57-3.129-.921-2.549-3.25.358-1.435 2.523-5.085 4.812-8.11s4.168-5.836 4.174-6.246c.019-1.277 14.493-11.711 17.179-12.386 3.516-.882 4.298.794 4.317 9.251.017 7.902-2.551 24.347-4.033 25.829-.524.524-.952 1.373-.952 1.887s.838-.138 1.862-1.45 2.375-5.347 3-8.967c1.207-6.981 1.551-24.679.531-27.336-.881-2.296-3.233-1.837-8.951 1.747M41.63 28.25c-.908 3.389-.736 13.496.346 20.25 1.465 9.158 2.239 16.438 2.39 22.5.075 3.025.5 6.063.944 6.75.53.819.246 1.25-.822 1.25-2.053 0-5.309 2.984-3.309 3.032.897.021.765.454-.413 1.349-.954.724-1.442 1.61-1.084 1.968s.089.651-.599.651-1.064.558-.836 1.241-.265 1.92-1.095 2.75c-1.346 1.345-1.316 1.546.268 1.851 1.545.298 1.414.722-1.008 3.25C34.879 96.692 34.17 98 34.836 98c.831 0 .693.79-.439 2.517-1.431 2.184-1.445 2.439-.106 1.925 1.537-.59 7.262-8.442 6.155-8.442-.32 0 .461-1.456 1.736-3.236 4.242-5.921 4.943-7.779 3.193-8.45-1.271-.488-1.079-1.005 1.057-2.84 2.1-1.805 2.313-2.358 1.089-2.827-.939-.361-1.515-1.84-1.506-3.866.012-2.486.25-2.918.985-1.781 1.222 1.891 1.302.558.105-1.764-2.545-4.937-5.835-35.704-4.291-40.132.595-1.707.708-3.104.251-3.104-.458 0-1.103 1.012-1.435 2.25M82.5 39.571c-3.85 1.386-7.543 2.574-8.206 2.641-2.64.266.036 1.788 3.143 1.788 1.825 0 3.899.699 4.608 1.554 1.044 1.258 2.736 1.444 8.872.977 15.956-1.216 24.104-1.375 23.539-.46-.316.511.979.929 2.878.929 2.208 0 3.668-.563 4.052-1.563.33-.86 1.049-1.286 1.599-.946.55.339 1.755.194 2.678-.323 1.447-.809 1.247-1.163-1.441-2.553-5.809-3.004-14.475-4.615-24.682-4.589-8.167.021-11.346.496-17.04 2.545m-30.524-.607c1.205.762 1.022 1.114-1 1.921-2.929 1.169-.755 1.421 4.021.466l3.247-.65-2.372-1.315c-2.854-1.582-6.325-1.958-3.896-.422m79.774 4.571c-2.613 1.916-4.757 4.043-4.765 4.725-.012.96-.198.953-.824-.034-.62-.976-1.222-.817-2.579.683-.977 1.08-2.445 1.697-3.277 1.378-1.059-.406-1.403-.042-1.156 1.223.193.99 1.026 1.933 1.851 2.095s2.4.559 3.5.881c1.58.463 2.725-.485 5.45-4.513 1.897-2.805 4.546-6.196 5.886-7.536 3.511-3.511 1.435-2.953-4.086 1.098m-78.394.561c-2.373 1.14-3.087 1.818-1.856 1.763 4.515-.202 4.791.386 1 2.131l-4 1.842 5.5-.439c5.657-.452 5.67-.479-1.25 2.612-2.23.997-2.229 1 .125.393 1.483-.382 2.14-.232 1.75.4-.398.644.92.864 3.625.605 3.547-.34 2.951.017-3.605 2.157-8.44 2.755-10.252 4.33-2.189 1.903C55.13 56.658 58.56 56 60.077 56c3.37 0 5.923-.908 5.923-2.107 0-.491-.787-.925-1.75-.963-1.496-.06-1.46-.195.25-.93 1.1-.473 1.411-.891.691-.93-.72-.038-1.031-.52-.691-1.07s.141-1-.441-1-1.006-.337-.941-.75c.329-2.083-.273-3.25-1.677-3.25-.857 0-1.313-.399-1.011-.886 1.113-1.802-3.339-1.813-7.074-.018m27.624 8.428c-.696.838-1.012 1.777-.704 2.086s1.064-.377 1.678-1.524c1.31-2.448.824-2.728-.974-.562m-4.83.426c.22.66.726 1.166 1.125 1.125 1.196-.124.964-1.495-.325-1.925-.66-.22-1.02.14-.8.8m-13.851 4.156C57.495 58.495 57.272 60 61.87 60c3.368 0 7.13-1.884 7.13-3.571 0-.665-3.169-.344-6.701.677m61.927 3.473c.95.991 1.942 1.587 2.205 1.324s-.514-1.074-1.726-1.803c-2.107-1.265-2.128-1.243-.479.479m13.274.947c4.233 2.607 5.332 2.86 7.997 1.837 1.163-.447.078-1.194-3.63-2.5-7.284-2.565-9.148-2.282-4.367.663m-60.897.641c.283.458.938.833 1.456.833s.941-.375.941-.833c0-.459-.655-.834-1.456-.834s-1.224.375-.941.834M111 64.5c1.292 1.375 2.574 2.5 2.849 2.5s-.557-1.125-1.849-2.5-2.574-2.5-2.849-2.5.557 1.125 1.849 2.5m17-1.653c0 1.168 4.581 3.459 5.981 2.993.649-.217-.432-1.162-2.401-2.1s-3.58-1.341-3.58-.893m-89.027 4.31C33.403 74.777 28 89.321 28 96.694c0 1.598-.54 3.446-1.2 4.106-.803.803-.838 1.2-.107 1.2C28.074 102 29 99.629 29 96.093c0-5.745 6.65-22.156 11.715-28.909 1.368-1.823 2.25-3.553 1.96-3.843s-1.956 1.427-3.702 3.816m118.001-1.59c-.536 1.412-1.48 3.55-2.097 4.75-.715 1.391-.737 1.82-.062 1.183.583-.55 1.708-2.255 2.499-3.789l1.439-2.79 3.48 5.29c7.362 11.19 11.502 27.34 10.439 40.725l-.521 6.564 1.174-5.611c.646-3.087 1.759-6.309 2.474-7.161.783-.935.916-1.786.335-2.145-.53-.328-1.153-.255-1.385.161s-.308.255-.169-.358c.471-2.079-4.527-21.36-6.645-25.634-2.776-5.603-8.232-13.748-9.21-13.75-.426-.001-1.214 1.153-1.751 2.565m-77.895.016c.048 1.165.285 1.402.604.605.289-.722.253-1.585-.079-1.917s-.568.258-.525 1.312m-19.996-.3c.23.156 1.215.894 2.19 1.641 1.543 1.183 1.691 1.146 1.143-.283-.347-.902-1.332-1.641-2.19-1.641s-1.372.127-1.143.283M141 66c0 .55.423 1 .941 1s1.219-.45 1.559-1-.084-1-.941-1-1.559.45-1.559 1m-40 5.774c0 2.81.375 5.34.833 5.623.459.283.641 1.83.405 3.437-.241 1.642.295 4.182 1.224 5.794 1.535 2.667 1.607 2.694 1.002.372-.358-1.375-.87-3.85-1.138-5.5l-.488-3 1.995 2.893c1.097 1.591 1.79 3.426 1.54 4.077-.25.652.1 2.5.777 4.108 1.173 2.783 1.359 3.622 1.702 7.672.201 2.379 1.793 2.215 2.438-.25.287-1.1 1.187-2 1.999-2 1.295 0 1.301.511.046 4.152-2.966 8.61-1.404 15.702 1.969 8.94 1.285-2.576 1.299-3.176.099-4.173-1.71-1.419-1.794-3.128-.231-4.691.896-.896 1.426-.667 2.25.971 1.709 3.397 3.295 3.187 4.545-.599.636-1.928 2.029-3.781 3.095-4.12 2.118-.672 2.588-2.96.831-4.046-1.692-1.046 1.046-2.401 4.888-2.419 2.052-.009 3.457.547 3.75 1.485 1.674 5.357 1.515 5.157 2.586 3.25.691-1.23 2.222-1.75 5.155-1.75 3.951 0 4.062-.078 2.08-1.466-2.796-1.958-12.553-3.414-17.152-2.559-2.035.378-5.204 1.472-7.043 2.43-3.889 2.027-4.781 1.629-3.156-1.407 1.616-3.019 2.231-6.998 1.082-6.998-.526 0-1.097 1.459-1.27 3.243-.233 2.412-1.037 3.588-3.137 4.59-4.193 2-5.906-.563-5.234-7.833.48-5.201.437-5.337-.801-2.5l-1.309 3-1.769-3.398c-.972-1.87-1.856-5.117-1.964-7.216-.299-5.821-1.599-5.912-1.599-.112m35-3.715c0 .582.45.781 1 .441s1-.816 1-1.059-.45-.441-1-.441-1 .477-1 1.059M61 70c.825.533 2.175.969 3 .969 1.333 0 1.333-.107 0-.969-.825-.533-2.175-.969-3-.969-1.333 0-1.333.107 0 .969m96 2.956c0 2.822.215 3.111 1.512 2.034 1.219-1.012 1.274-1.569.283-2.873a83 83 0 0 1-1.512-2.034c-.156-.229-.283 1.064-.283 2.873m-45.595 1.294L109.5 76.5l2.25-1.905c1.237-1.048 2.25-2.06 2.25-2.25 0-.8-.805-.209-2.595 1.905m-23.935-.202c-1.007 1.63-.72 10.166.445 13.229.76 2 1.607 2.631 3.201 2.388 2.595-.397 4.887-3.264 4.877-6.106-.013-4.113-7.024-11.936-8.523-9.511M153 79l-2.5 1.956 3-.057c1.65-.031 2.419-.29 1.708-.575-.992-.398-1.021-.844-.127-1.921 1.6-1.928.885-1.723-2.081.597M71.5 92.491c-.55.184-2.237.607-3.75.941S65 94.678 65 95.46c0 1.225-.379 1.224-2.75-.013-1.513-.789-3.736-1.437-4.941-1.441-2.633-.007-4.209 1.976-1.618 2.036.995.023 3.609 1.655 5.809 3.628 2.2 1.972 3.063 3.103 1.918 2.512-1.145-.59-2.663-1.772-3.373-2.627-1.858-2.24-2.945-1.913-2.307.695 1.076 4.4 6.863 10.306 11.424 11.658 5.424 1.607 7.328 2.563 7.373 3.701.106 2.667 2.753 5.392 5.25 5.406 2.12.012 2.386.228 1.215.985-.825.533-2.711.976-4.191.985-4.638.026-4.281 2.007.382 2.115 5.009.116 10.674 1.576 7.309 1.884-5.189.474-6.548.73-7.166 1.349-.367.367 1.32.72 3.749.785s5.767.433 7.417.816c2.733.636 2.518.769-2.417 1.499-5.532.818-5.341 2.749.211 2.139 1.488-.163 2.706-.007 2.706.347 0 1.064 4.762 1.122 7.471.092 3.315-1.26 3.272-4.409-.093-6.714-5.518-3.782-7.096-5.93-7.799-10.616-.466-3.11-1.687-5.77-3.618-7.885-2.696-2.951-2.794-3.323-1.316-4.956.908-1.004 1.318-2.493.95-3.453-.582-1.518-.88-1.468-2.971.497-2.442 2.293-3.526 1.825-4.937-2.134-.547-1.533-2.491-2.263-4.958-1.861-.424.068-.487-1.003-.141-2.382.597-2.382.19-2.775-2.088-2.016m5.5.534c0 1.227 5.017 3.291 5.887 2.421.761-.761-2.806-3.446-4.578-3.446-.72 0-1.309.461-1.309 1.025m42.25.637c-.687.278-1.25.917-1.25 1.421 0 1.42 3.399 1.083 5.559-.551 1.872-1.416 1.852-1.467-.559-1.421-1.375.026-3.062.274-3.75.551m34.167 4.825c2.154 1.932 4.516 3.513 5.25 3.513 3.184 0 .447-2.788-5.167-5.263l-4-1.764zM.195 100.5c.02 1.65.244 2.204.498 1.231s.237-2.323-.037-3-.481.119-.461 1.769m35.295 3.51c-1.575 1.645-2.408 2.99-1.851 2.99 1.286 0 5.869-4.826 5.209-5.486-.272-.271-1.783.852-3.358 2.496m123.01.99c.34.55.167 1-.384 1-.55 0-.828.9-.616 2 .247 1.283-.153 2-1.116 2-.826 0-1.224.45-.884 1s.066 1-.608 1-.941.284-.594.631c1.008 1.008-1.217 4.369-2.892 4.369-.838 0-1.276.401-.973.892.675 1.092-6.017 1.983-7.592 1.01-.724-.448-.449-.871.764-1.175 1.042-.262-.407-.252-3.22.022-3.217.313-5.372.081-5.809-.626-.429-.694.106-1.123 1.404-1.123 1.153 0 3.791-1.687 5.861-3.75 2.071-2.062 2.841-3.019 1.712-2.125-4.472 3.54-6.675 4.095-13.43 3.38l-6.623-.701 2.408 2.581c1.325 1.419 3.297 2.863 4.382 3.207 1.57.498 1.691.806.592 1.502-1.035.656-.832.879.809.891 2.513.017 3.939 1.614 2.065 2.312-.691.258 1.557.234 4.994-.053 6.922-.578 7.86.345 3.686 3.628l-2.564 2.016 3.814 1.056c2.098.58 4.489 1.548 5.314 2.15 1.211.884 1.115.955-.5.372-1.1-.398-3.125-.926-4.5-1.173-1.966-.353-2.179-.225-1 .6 1.109.777.51.891-2.296.44-2.088-.335-3.722-.21-3.632.279.509 2.748-.155 3.225-3.256 2.335-1.751-.502-3.401-.695-3.666-.43-.266.266-.044.483.492.483.537 0 1.849.678 2.917 1.506 1.81 1.404 1.752 1.438-.874.5-4.496-1.607-4.421-1.263.76 3.494 4.522 4.151 8.177 5.545 9.933 3.788.392-.391-.321-1.544-1.583-2.562l-2.295-1.851 2.25.63c3.345.937 2.723-1.066-.782-2.518-1.668-.691-2.835-1.454-2.593-1.695s1.883.307 3.647 1.219c2.306 1.193 3.513 1.354 4.293.574.597-.597 2.007-1.099 3.135-1.117 1.935-.03 1.95-.107.268-1.383-1.673-1.269-1.64-1.388.528-1.932 2.569-.645 8.445-6.295 7.514-7.226-.326-.326-1.521.334-2.654 1.467-1.273 1.273-2.705 1.813-3.747 1.413-1.19-.456-1.459-.278-.913.606.487.788-.441.624-2.507-.445-2.921-1.51-3.086-1.807-1.498-2.695.982-.549 2.566-1.735 3.522-2.636.955-.9 2.592-2.379 3.637-3.286 3.831-3.324 6.4-7.079 6.4-9.353 0-1.282.395-2.481.878-2.665 1.196-.453-.531-4.833-1.905-4.833-.6 0-.813.45-.473 1m-121.222 2.25c-2.359 3.051-2.633 4.1-.895 3.433 1.552-.595 1.574-.46.24 1.445-1.5 2.141-1.145 5.313.482 4.307.884-.547 1.05-.105 1.244 3.315.055.963.699 2.212 1.431 2.777s1.479 1.915 1.659 3 .779 1.877 1.331 1.761c.609-.129.997 3.017.985 8-.01 4.516.138 9.438.329 10.936.329 2.579.467 2.645 2.597 1.25 1.237-.811 2.489-1.474 2.784-1.474.993 0 .544 7.113-.587 9.316-1.256 2.444-1.305 2.49 6.178-5.816 3.413-3.788 4.123-4.894 1.925-3.002-1.914 1.649-4.104 3.674-4.866 4.5-1.209 1.312-1.289 1.249-.632-.498.849-2.256 1.473-5.507 1.955-10.181.314-3.045.218-3.139-2.257-2.198-2.557.972-2.565.961-.728-1.069 1.556-1.719 1.606-2.052.309-2.052-.851 0-1.821-.712-2.155-1.582-.957-2.495-.709-5.418.46-5.418.642 0 .797.897.388 2.25-.536 1.774-.416 2 .565 1.067 1.752-1.664.459-4.317-2.105-4.317-1.628 0-2.026-.466-1.645-1.925.319-1.22.07-1.759-.68-1.471-1.396.536-1.517-3.415-.169-5.524.69-1.08.509-1.26-.757-.75l-3.373 1.357c-1.471.592-1.413.184.417-2.916 2.191-3.713 2.001-5.604-.366-3.64-1.645 1.366-1.797-.276-.175-1.898.89-.89.772-1.319-.494-1.805-.914-.351-1.413-1.04-1.108-1.533.851-1.377-1.192-1.06-2.287.355m91.478 20.414c1.856.749.463 2.334-2.065 2.351-1.762.013-1.899.2-.699.959 2.282 1.443.127 2.883-4.742 3.168-4.301.252-5.467 1.177-2.782 2.207.807.31 1.734.133 2.059-.393s1.041-.956 1.591-.956.759.39.465.866c-.295.477.466 1.702 1.691 2.724 1.224 1.021 1.699 1.252 1.054.512-1.561-1.793-.575-4.134 1.419-3.369 1.046.402 1.337.211.858-.563-.398-.644-.22-1.17.395-1.17s.871-.399.57-.887c-.301-.487.122-1.442.941-2.122 2.033-1.687 1.878-4.009-.261-3.912-1.056.048-1.252.28-.494.585M168 129c0 .55.477 1 1.059 1s.781-.45.441-1-.816-1-1.059-1-.441.45-.441 1m-30.5 1c1.1.473 2.675.859 3.5.859.945 0 .761-.317-.5-.859-1.1-.473-2.675-.859-3.5-.859-.945 0-.761.317.5.859m-60.059 3.555c-1.91 1.53-1.909 1.541.059.635 1.1-.506 2.675-1.17 3.5-1.476 1.296-.48 1.288-.567-.059-.635-.857-.043-2.432.621-3.5 1.476m-.882 2.977c-1.068.807-1.518 1.454-1 1.436.517-.017 1.815-.692 2.882-1.5 1.068-.807 1.518-1.454 1-1.436-.517.017-1.815.692-2.882 1.5m54.399 5.848c4.14 4.29 7.042 5.831 7.042 3.739 0-1.016-5.327-5.209-9-7.083-1.826-.932-1.298-.03 1.958 3.344m-80.208-2.691c-.962.252-1.75.89-1.75 1.42 0 .579.795.536 2-.109 1.1-.589 2-1.28 2-1.535 0-.256-.112-.413-.25-.349s-1.038.322-2 .573m27.122 1.061c-1.243 1.586-1.208 1.621.378.378.963-.755 1.75-1.543 1.75-1.75 0-.823-.821-.294-2.128 1.372m19.23.627c-2.948 3.552 8.128 5.472 16.898 2.93l3.5-1.015-3-.729c-1.65-.402-3.675-.96-4.5-1.242-3.772-1.287-11.812-1.252-12.898.056m-30.23 2.373c-1.243 1.586-1.208 1.621.378.378.963-.755 1.75-1.543 1.75-1.75 0-.823-.821-.294-2.128 1.372m-7.499 6.5c-5.654 5.942-8.38 9.747-8.334 11.635.022.888.628.264 1.348-1.388s3.672-5.589 6.561-8.75c6.084-6.657 6.403-7.78.425-1.497M157 147c0 .55.477 1 1.059 1s.781-.45.441-1-.816-1-1.059-1-.441.45-.441 1m-28.894 6.901c-1.708 1.596-3.106 3.259-3.106 3.696s1.575-.731 3.5-2.597 3.5-3.529 3.5-3.696c0-.768-1.02-.088-3.894 2.597m-68.904 5.817c-1.524 3.97-2.545 7.869-1.906 7.279.762-.705 3.686-9.349 3.294-9.74-.176-.177-.801.931-1.388 2.461M98.158 164c0 1.375.227 1.938.504 1.25.278-.687.278-1.812 0-2.5-.277-.687-.504-.125-.504 1.25m-4.699 1.067c-.363.586-.445 1.281-.183 1.543s.743-.218 1.069-1.067c.676-1.762.1-2.072-.886-.476M132 168c-.901.582-1.025.975-.309.985.655.008 1.469-.435 1.809-.985.767-1.242.421-1.242-1.5 0"/><path fill-opacity=".478" fill-rule="evenodd" d="M91.246 1.086C46.984 5.281 10.881 38.143 2.35 82c-1.874 9.636-1.869 27.407.011 37 6.959 35.502 32.422 64.725 66.139 75.904 11.601 3.846 19.515 5.082 32.5 5.075 33.244-.017 63.934-16.533 82.459-44.375 28.579-42.951 19.551-100.834-20.761-133.11-9.638-7.717-25.049-15.608-35.946-18.405C119.855 2.318 116.393 1.812 103 .616c-1.925-.172-7.215.04-11.754.47M41.607 26.582c-.994 2.589-.693 17.321.533 26.092l1.142 8.174-3.606 4.913c-5.166 7.037-9.324 16.365-11.205 25.135-.896 4.182-2.234 8.816-2.971 10.297-1.135 2.279-1.123 2.875.079 3.873.782.648 1.421 2.852 1.421 4.896s.903 7.249 2.007 11.565c1.579 6.175 1.739 8.016.75 8.644-.908.577-.781.803.458.814 2.123.019 4.135 3.568 3.469 6.117-.599 2.29.009 2.342 4.662.398 4.974-2.078 6.635-1.838 3.654.53-1.375 1.091-3.288 1.799-4.25 1.571s-1.75.074-1.75.67-1.463 2.365-3.25 3.93l-3.25 2.848 3.89-2.525c2.139-1.388 4.236-2.524 4.661-2.524.914 0 .711 1.991-.381 3.739-.865 1.384 1.871.694 4.104-1.037 1.85-1.433 2.423-.35 1.332 2.52-.56 1.472-3.21 3.774-6.446 5.601-3.022 1.705-5.782 3.565-6.132 4.131s1.638-.316 4.418-1.961 7.238-4.283 9.908-5.861l4.853-2.867-.434 4.117c-.239 2.265-1.322 5.918-2.405 8.118l-1.97 4 2.631-3.26c1.447-1.792 3.04-3.006 3.54-2.698.499.309.688-.024.418-.74s.524-2.436 1.762-3.823 1.914-2.084 1.501-1.55c-1.148 1.487-.891 3.776.339 3.016.599-.37-.275 1.21-1.942 3.511-1.796 2.479-2.782 4.832-2.42 5.774.495 1.292.768 1.165 1.448-.674 1.416-3.829 4.919-8.116 6.056-7.413.601.371.792.203.431-.381-.356-.575 1.241-2.879 3.548-5.118 4.741-4.601 6.328-4.761 2.537-.255C59.574 155.037 54.798 169 57.868 169c.623 0 1.139-1.238 1.147-2.75.019-3.415 1.399-5.73 2.873-4.819 1.164.719 1.401-.129 1.308-4.673-.078-3.816 5.269-11.345 11.804-16.621 3.025-2.443 5.725-4.939 6-5.547.309-.683 1.834-.866 4-.479 3.229.577 3.278.636.632.757-2.652.122-10.494 5.742-9.867 7.071.145.309-1.319 2.638-3.255 5.177-3.526 4.623-6.201 10.526-5.217 11.51.288.289.829-.522 1.201-1.801.881-3.028 8.731-14.825 9.865-14.825.481 0 .619 1.012.307 2.25-.518 2.059-.454 2.1.757.483.85-1.136 1.957-1.524 3.098-1.087 1.488.572 1.693.253 1.267-1.976-.325-1.699.052-3.11 1.044-3.914 1.278-1.034 1.403-1.008.707.146-.695 1.153-.091 1.282 3.4.724 4.957-.793 12.061-4.184 12.061-5.757 0-.6.797-.106 1.771 1.096 2.552 3.152 11.528 5.983 15.866 5.004 3.307-.746 3.647-.55 7.463 4.276 2.198 2.782 3.638 5.407 3.199 5.835s-3.261 1.742-6.269 2.921l-5.471 2.144 1.971-2.24 1.97-2.24-4.25 2.352c-2.338 1.293-4.25 2.734-4.25 3.202s.954.341 2.121-.284c1.27-.679 1.867-.724 1.488-.111-.348.563-2.99 1.798-5.871 2.745s-5.874 1.958-6.652 2.247c-.963.357-1.158.109-.611-.776.543-.878.353-1.136-.586-.795-.764.278-1.282.995-1.151 1.594s-.397.845-1.173.547c-1.753-.672-3.565 2.53-3.565 6.298 0 2.02.99 3.606 3.5 5.609 2.734 2.181 3.5 2.439 3.5 1.178 0-1.467.143-1.471 1.571-.042 1.845 1.844 2.526 1.994 2.179.478-.138-.601.648-1.614 1.746-2.25s3.203-1.953 4.68-2.925c2.623-1.728 4.689-.94 3.324 1.268-1.003 1.623.809 1.105 3.5-1 3.067-2.399 4.735-2.595 2.872-.336-1.244 1.508-1.162 1.552.878.465 1.237-.66 2.25-.947 2.25-.639 0 1.07 6.506-2.797 7.807-4.639 1.817-2.575 2.579-2.338 4.504 1.399 1.088 2.113 1.597 2.55 1.456 1.25-.119-1.1.133-2.557.56-3.239.554-.883.26-1.044-1.025-.562-1.579.592-1.633.468-.439-1.001 2.17-2.668 3.414-.852 2.85 4.16-.474 4.205-.395 4.428.937 2.619.8-1.087 1.388-3.552 1.305-5.477-.313-7.35-.05-7.756 2.419-3.741 3.124 5.082 4.036 5.776 3.242 2.47-.373-1.557-.144-3.747.524-5 1.081-2.03 1.037-2.105-.5-.836-.929.765-1.959 1.121-2.29.79s1.029-1.564 3.022-2.74c2.2-1.298 3.346-2.592 2.915-3.291-.849-1.379 4.195 1.732 7.713 4.756 5.398 4.642 7.298 5.708 3.5 1.966-2.2-2.168-5.107-4.709-6.459-5.648-1.776-1.233-2.156-2.011-1.369-2.798s2.265-.491 5.314 1.065c2.322 1.185 3.924 1.671 3.56 1.081-1.066-1.725.484-1.236 2.294.723 1.015 1.099 1.302 1.196.739.25-.507-.851-2.756-3.197-4.999-5.215l-4.078-3.667 3.416.236c2.484.172 4.219 1.173 6.359 3.668 1.701 1.984 2.465 2.493 1.811 1.206-.622-1.223-2.668-3.45-4.546-4.949-3.652-2.914-3.754-4.782-.208-3.819 1.781.484 1.876.405.534-.443-1.495-.945-1.468-1.366.324-4.988 1.401-2.832 2.434-3.809 3.633-3.44 1.536.472 1.539.427.037-.547-1.474-.957-1.494-1.479-.196-5.245.792-2.301 1.695-7.144 2.006-10.763.311-3.62 1.222-7.632 2.025-8.916 1.291-2.064 1.277-2.536-.119-4.078-.868-.96-1.578-2.843-1.578-4.186 0-3.567-3.732-16.448-6.157-21.253-1.152-2.282-3.672-6.313-5.599-8.96l-3.506-4.812 1.381-7.688c1.718-9.562 1.841-26.629.204-28.265-1.719-1.719-5.105-.533-12.257 4.295a2329 2329 0 0 1-11.881 7.96l-5.537 3.677-4.645-2.354c-14.392-7.293-35.451-7.358-50.197-.155l-4.695 2.293-5.373-3.069c-2.955-1.689-7.142-4.473-9.305-6.187C52.441 29.219 44.848 25 43.147 25c-.513 0-1.206.712-1.54 1.582M46 29c1.958 1.266 3.282 1.266 2.5 0-.34-.55-1.379-.993-2.309-.985-1.457.014-1.484.15-.191.985m45 8.629c-4.09.784-14.944 4.471-15.417 5.237-.241.39.732.807 2.164.925 1.431.119 3.312.846 4.178 1.616 1.197 1.065 2.799 1.204 6.679.58 7.473-1.201 24.457-1.087 27.685.187 2.352.929 3.136.786 5-.909 1.216-1.106 2.774-1.805 3.461-1.554.688.25 1.25.031 1.25-.487s-3.037-1.961-6.75-3.205c-6.622-2.22-22.242-3.541-28.25-2.39m-47.921 8.954c.048 1.165.285 1.402.604.605.289-.722.253-1.585-.079-1.917s-.568.258-.525 1.312M44.158 52c0 1.375.227 1.938.504 1.25.278-.687.278-1.812 0-2.5-.277-.687-.504-.125-.504 1.25m27.785 1.681c.814 1.685.697 2.536-.516 3.75-.864.863-1.988 1.569-2.498 1.569S68 59.475 68 60.057c0 .583 1.345.262 3-.716 3.395-2.006 3.669-3.124 1.445-5.9-1.503-1.876-1.52-1.868-.502.24M45.158 57c0 1.375.227 1.938.504 1.25.278-.687.278-1.812 0-2.5-.277-.687-.504-.125-.504 1.25M130 56c0 .55.477 1 1.059 1s.781-.45.441-1-.816-1-1.059-1-.441.45-.441 1m-77.306 1.639c-.947.948.205 2.361 1.924 2.361.825 0 1.242-.418.926-.929-.315-.51.446-1.124 1.691-1.363 1.748-.336 1.562-.467-.818-.572-1.696-.075-3.371.152-3.723.503m-6.249 6.723c.247 2.675 1.148 5.635 2.002 6.579 2.325 2.57 1.871 3.648-.617 1.464-2.049-1.8-2.132-1.804-1.5-.073.369 1.007.67 2.173.67 2.589C47 75.606 51.36 78 52.606 78c.282 0 .187-.526-.211-1.17-.455-.736-.199-.991.691-.687.778.265 2.764-.875 4.413-2.533 1.727-1.736 2.271-2.736 1.282-2.356-.944.362-1.983.228-2.308-.298S54.953 70 53.819 70c-1.774 0-1.889.246-.817 1.75.686.963.06.48-1.392-1.072s-2.397-3.213-2.102-3.69-.375-2.357-1.488-4.178l-2.023-3.31zm17.121-3.464c-1.063.416-1.508 1.02-.989 1.341.52.321 1.814-.051 2.875-.828 2.072-1.515 1.246-1.74-1.886-.513M56 64c-1.078.697-.093.969 3.5.969s4.578-.272 3.5-.969c-.825-.533-2.4-.969-3.5-.969s-2.675.436-3.5.969m-16.207 5.25c-6.942 10.713-9.764 21.191-9.763 36.25.001 8.984 1.746 20.61 3.332 22.196 1.145 1.144 6.95-1.214 7.201-2.926.138-.939-.045-1.669-.406-1.621-2.232.297-2.826-.521-2.619-3.611.128-1.904-.053-3.425-.403-3.381-2.912.367-3.313-.236-1.747-2.627 1.379-2.103 1.396-2.384.115-1.893-2.754 1.057-1.55-1.362 2.5-5.021 2.201-1.989 4.98-3.616 6.174-3.616 2.169 0 2.169.003-.229 2.556-2.136 2.273-2.183 2.485-.424 1.918 1.954-.63 1.954-.62.03.948-1.431 1.165-1.651 1.881-.832 2.7s1.464.552 2.436-1.004c.728-1.165 1.945-2.118 2.705-2.118 1.124 0 1.146.284.118 1.523-1.07 1.289-.973 1.431.628.924 1.724-.545 1.738-.5.162.515-.951.613-1.927.984-2.169.826-.66-.431-5.602 4.416-5.602 5.493 0 .513.675.66 1.5.326l3.164-1.277c1.266-.51 1.447-.33.757.75-.499.781-.931 2.366-.959 3.523-.039 1.602.413 1.981 1.9 1.592 1.434-.375 1.734-.159 1.13.817-.589.954-.371 1.155.774.716.877-.336 6.576-.927 12.664-1.312 8.042-.509 11.07-.388 11.07.442 0 .765-3.051 1.181-9.25 1.26-8.476.109-17.318 1.319-13.75 1.882.825.13 1.835.185 2.243.121.929-.146.499 2.875-.694 4.879-.627 1.054-.297.979 1.11-.252 1.102-.964 2.24-1.515 2.53-1.225 1.017 1.017 16.332-2.95 18.25-4.727 1.066-.988 2.528-1.796 3.25-1.796 1.714 0 1.657-.796-.189-2.643-.825-.825-1.5-2.316-1.5-3.313 0-1.453-1.118-1.953-5.629-2.517-6.158-.769-9.922-3.661-10.999-8.449a168 168 0 0 0-1.386-5.578l-.806-3-.09 2.75c-.049 1.513-.652 2.757-1.34 2.765-.905.011-.87.256.128.889 1.938 1.227.53 3.015-1.879 2.385-1.162-.303-1.999-.03-1.999.653 0 .647-.481.879-1.068.516s-.827-1.29-.532-2.059c.317-.825-.094-1.399-.999-1.399-1.266 0-1.178-.505.501-2.862C53.689 94.415 56.706 92 60.318 92c1.933 0 3.742.563 4.02 1.25s.54.328.583-.8c.043-1.127.524-2.495 1.069-3.04.653-.653-.623-.915-3.75-.769-2.607.121-4.643.657-4.523 1.19.119.533-.912 1.252-2.291 1.598s-2.275 1.006-1.99 1.467c.645 1.044-1.947 3.362-6.132 5.481-1.758.89-4.458 2.79-6 4.221-3.119 2.896-8.304 5.85-8.304 4.732 0-.396 1.237-2.041 2.75-3.655 2.554-2.726 2.584-2.848.414-1.724-2.805 1.455-3.942.692-2.164-1.451.707-.852 1.009-1.824.672-2.161s.304-1.902 1.426-3.476S37.656 92 37.068 92c-1.831 0-1.167-2.996.682-3.079 1.113-.05 1.28-.268.458-.597-.992-.398-1.021-.844-.127-1.921.64-.772.798-1.403.35-1.403-.447 0 .06-.661 1.128-1.468 1.218-.921 1.449-1.48.62-1.5-1.963-.047 1.236-3.032 3.25-3.032 1.82 0 2.078-2.093.458-3.713-.631-.631-.76-1.684-.297-2.432 1.102-1.783 1.264-4.827.29-5.429-.436-.27-.539-1.151-.229-1.958 1.145-2.984-.552-1.32-3.858 3.782M55.5 66.896c-2.241.492-2.585.823-1.358 1.309.904.357 2.479.492 3.5.299 1.022-.193 2.222-.385 2.667-.427.445-.043.531-.527.191-1.077s-.929-.947-1.309-.882-2.041.415-3.691.778m102.834-.231c.373.64.231 1.315-.315 1.5-.589.198-.363 1.55.553 3.315 1 1.925 1.173 3.105.488 3.333-1.58.527-1.28 3.165.434 3.823.822.316 1.246.976.941 1.469-.304.492.036.902.756.91 1.078.013 1.078.162-.001.846-.982.623-.637 1.271 1.382 2.594 2.111 1.383 2.393 1.953 1.31 2.639-.998.632-1.035.88-.132.891.688.008 1.25.653 1.25 1.432s.563 1.645 1.25 1.924c.993.403.989.691-.024 1.406-.986.697-.817 1.313.75 2.732 2.431 2.199 2.646 3.697.408 2.838-1.365-.524-1.443-.295-.5 1.466 1.504 2.81 1.405 3.542-.387 2.854-1.281-.491-1.264-.21.115 1.893 1.495 2.283 1.493 2.47-.032 2.47-1.322 0-1.444.385-.615 1.934 1.398 2.613 1.312 3.066-.587 3.066-1.305 0-1.387.284-.418 1.452 1.326 1.598.446 5.917-1.021 5.011-.506-.313-.62.206-.254 1.159.522 1.361.279 1.578-1.153 1.029-1.47-.564-1.595-.431-.656.699.637.768.891 2.094.564 2.947-.572 1.49 2.096 3.703 4.466 3.703.571 0 1.811-2.588 2.755-5.75 2.329-7.798 2.29-25.422-.075-34.25-2.106-7.864-7.046-18.224-9.868-20.695-1.134-.993-1.757-1.281-1.384-.64m-12.584 1.997c.688.278 1.813.278 2.5 0 .688-.277.125-.504-1.25-.504s-1.937.227-1.25.504m5.938 3.288c-1.676 2.838-1.669 2.99.18 3.979 1.472.788 2.239.638 3.277-.642.942-1.162.974-1.442.105-.92-2.351 1.413-3.45-.413-1.781-2.96.867-1.324 1.214-2.407.77-2.407s-1.592 1.328-2.551 2.95M47 78.996c0 1.213 2.805 2.533 3.629 1.709.298-.299-.396-1.045-1.543-1.659-1.447-.774-2.086-.789-2.086-.05m37.677 2.609c-.828 5.097.212 9.162 2.878 11.26 2.971 2.336 6.708 9.007 6.033 10.766-.906 2.361-2.389 1.501-3.567-2.069-.624-1.89-2.065-4.62-3.202-6.066-2.597-3.301-9.579-7.771-11.142-7.134-.764.312-.684.508.228.559 1.133.064 1.091.426-.22 1.875-1.536 1.697-1.446 1.774 1.63 1.415 2.284-.266 3.99.258 5.72 1.757l2.465 2.137-3.618-.336c-3.519-.327-3.597-.261-2.829 2.415 1.248 4.353 1.93 5.075 3.536 3.742.776-.644 1.411-2.016 1.411-3.048 0-2.878 2.695-2.23 3.464.833.491 1.959.214 3.052-1.002 3.941-1.557 1.138-1.521 1.457.496 4.289 1.198 1.682 2.566 3.059 3.041 3.059.474 0 1.018 1.013 1.209 2.25.211 1.375 1.06-.576 2.182-5.021 1.52-6.02 1.625-7.777.614-10.219-.919-2.219-.946-3.737-.11-6.137 1.065-3.054 1.035-3.119-.72-1.531-4.336 3.925-7.49.968-7.31-6.853.146-6.317-.342-7.091-1.187-1.884M107 88.555c0 1.688 3.037 5.445 4.402 5.445.708 0 2.133-1.013 3.166-2.25 1.034-1.237 1.238-1.687.455-1-2.154 1.892-4.732 1.504-6.466-.973-.856-1.222-1.557-1.772-1.557-1.222m27.582 1.706c1.185 1.595 2.281 2.23 2.868 1.66.522-.506 1.76-.921 2.75-.921s1.8-.45 1.8-1-1.012-1.006-2.25-1.014c-1.238-.007-3.338-.304-4.668-.66l-2.417-.647zm-14.082.581c-3.599 2.2-6.028 4.963-5.143 5.849.354.353.643.129.643-.499 0-1.722 5.938-4.438 8.367-3.828 1.947.49 1.982.423.399-.763-.954-.714-1.442-1.592-1.084-1.95 1.163-1.162-.116-.684-3.182 1.191m-3.006 6.167c-.342.555-.331 1.93.027 3.057.932 2.935 3.91 2.017 4.295-1.325.252-2.183-.092-2.741-1.691-2.741-1.104 0-2.288.454-2.631 1.009M.079 100.583c.048 1.165.285 1.402.604.605.289-.722.253-1.585-.079-1.917s-.568.258-.525 1.312m112.59 1.812c-.911 3.381.266 5.058 2.12 3.021.71-.779.853-1.416.32-1.416s-1.125-1.013-1.315-2.25c-.313-2.036-.42-1.975-1.125.645m-61.383 8.855c-.026.688-.375 2.037-.774 3-.436 1.05-.283 1.75.381 1.75.609 0 1.107.708 1.107 1.573 0 2.03 3.49 1.446 3.526-.589.015-.816.35-1.999.745-2.629.398-.636.025-1.411-.84-1.743-.857-.329-1.278-1.051-.935-1.605s-.23-1.007-1.27-1.007-1.914.563-1.94 1.25m104.746 2.689c-.757 1.416-.699 2.134.215 2.661.689.396.915.348.501-.109s-.007-1.653.905-2.66c.933-1.031 1.168-1.831.537-1.831-.616 0-1.587.873-2.158 1.939m-20.26.622c-.309.309-2.424.587-4.7.619l-4.14.057 3.228 2.381c1.776 1.31 4.068 2.382 5.093 2.382s1.621.395 1.323.878c-.299.482 1.812 1.098 4.691 1.369s6.094.852 7.147 1.292c1.353.566 1.702.458 1.191-.369-.421-.681-.136-1.17.681-1.17 1.396 0 4.714-3.047 4.714-4.329 0-.369-.886-.671-1.969-.671-1.422 0-1.792.46-1.332 1.657.568 1.481-.153 1.596-6.782 1.084-4.079-.315-8.767-1.113-10.417-1.773l-3-1.201 4-1.278c2.2-.704 3.287-1.326 2.417-1.384s-1.836.148-2.145.456m-76.569 1.636c-.662.662-1.203 1.563-1.203 2.003 0 1.001 6.825.923 9.464-.108 1.734-.678 1.617-.851-1-1.477-1.63-.391-3.66-.915-4.511-1.165-.851-.251-2.088.085-2.75.747m32.527 1.728c-.649 2.479.257 3.739 3.601 5.011 1.534.583 2.551 1.446 2.26 1.917s.483 1.807 1.72 2.969l2.249 2.113 1.294-2.072c.711-1.14.81-1.774.22-1.409s-1.074.139-1.074-.502-.675-.907-1.5-.59c-1.035.397-1.5-.065-1.5-1.487a2.66 2.66 0 0 0-2-2.585c-1.1-.288-2-.953-2-1.478s-.627-1.582-1.393-2.348c-1.19-1.19-1.463-1.123-1.877.461m12.937 3.742c-1.309 1.308-.634 2.137 1.322 1.626 1.094-.286 1.742-.919 1.441-1.407-.65-1.051-1.837-1.146-2.763-.219m-41.158 4.318c-.38.615.63.749 2.691.356 4.422-.842 4.803-1.341 1.026-1.341-1.71 0-3.382.443-3.717.985m11.48-.096c-.022 1.123-7.434 3.997-11.989 4.648-7.112 1.016-13 2.625-13 3.55 0 .468.753.561 1.674.208 1.298-.498 1.519-.242.988 1.143-.544 1.418-.322 1.637 1.077 1.069 10.776-4.38 19.727-7.071 18.862-5.67-.312.504-2.546 1.415-4.964 2.024-7.748 1.951-13.663 4.907-13.045 6.519.448 1.166 2.689.43 10.999-3.61 5.741-2.791 10.712-4.8 11.047-4.465s-1.134 1.35-3.264 2.256c-9.634 4.094-16.895 8.346-17.224 10.087-.192 1.019-1.313 2.977-2.49 4.352-1.434 1.675-.989 1.463 1.349-.642 6.653-5.987 25.227-16.948 26.933-15.894.48.297 1.927.118 3.216-.399 2.081-.834 1.896-.956-1.658-1.101-2.2-.09-5.125-.507-6.5-.926-2.486-.759-2.145-1.15 2-2.293.864-.239.334-.637-1.25-.941-1.513-.29-2.755-.252-2.761.085m68.15 1.144c-3.1 2.583-1.7 2.554 1.588-.033 1.399-1.1 2.145-1.985 1.658-1.967s-1.947.919-3.246 2m-105.889 1.31c-3.668 1.068-3.843 1.61-1.794 5.571 1.379 2.668 1.641 2.757 5 1.706 1.949-.61 3.544-1.701 3.544-2.424 0-.741-.505-1.002-1.158-.599-.793.491-.979.037-.593-1.442.311-1.187.191-1.927-.267-1.644-.457.282-.977-.078-1.156-.801-.248-.998-1.108-1.086-3.576-.367m115.912 1.211c-1.287.67-1.915 1.48-1.398 1.8.997.616 5.085-1.898 4.234-2.604-.274-.228-1.55.134-2.836.804m9.119.411c.393 1.504.182 2.043-.673 1.715-1.497-.575-1.593 3.463-.108 4.555 1.774 1.303 2.501.831 4.195-2.722 1.842-3.863 1.814-3.954-1.591-5.003-2.112-.65-2.329-.477-1.823 1.455m-114.202.618c.048 1.165.285 1.402.604.605.289-.722.253-1.585-.079-1.917s-.568.258-.525 1.312m91.408 2.396c.289.468-.04 1.041-.731 1.274-.697.236.153 1.156 1.912 2.069 2.734 1.419 3.527 1.458 5.785.287 2.249-1.167 2.366-1.434.832-1.902-.982-.3-3.256-1.003-5.054-1.562s-3.033-.634-2.744-.166m-68.382 5.031c-7.642 4.212-12.103 7.816-12.12 9.791-.013 1.449-.154 1.48-.956.212-.743-1.176-.906-1.03-.776.699.157 2.074.38 2.01 4.374-1.263 2.315-1.897 4.837-3.208 5.604-2.914s2.267-.45 3.332-1.655l1.937-2.19-3 1.769-3 1.769 2.518-2.364c1.385-1.3 3.86-3.362 5.5-4.582 4.079-3.035 2.993-2.803-3.413.728m10.3.24L79.5 140.5l2.25-1.905c2.114-1.79 2.705-2.595 1.905-2.595-.19 0-1.202 1.012-2.25 2.25m52.73-1.782c.828.828 7.865 3.576 7.865 3.071 0-.71-5.688-3.539-7.117-3.539-.669 0-1.006.211-.748.468m-2.543 1.383c-.282.457.706 1.719 2.197 2.804 4.117 2.997 4.556 3.151 6.711 2.366 1.701-.619 1.222-1.122-3.197-3.365-2.859-1.45-5.428-2.262-5.711-1.805m29.428.673c.696.838 1.471 1.318 1.723 1.067.693-.694-.716-2.591-1.924-2.591-.664 0-.588.574.201 1.524m-68.52.7c-9.244 2.244-9.754 4.581-1.804 8.282 8.569 3.99 13.906 3.771 23.804-.977 4.4-2.111 8.338-3.769 8.75-3.684 1.136.234.898-1.297-.403-2.598-.823-.823-1.713-.854-3.107-.108-2.211 1.183-11.815.543-16.059-1.07-3.243-1.233-5.598-1.201-11.181.155m-51.43.711c-.786.498-1.533 1.61-1.659 2.472-.183 1.246.161 1.358 1.679.545 1.051-.562 1.91-1.682 1.91-2.487 0-1.707-.048-1.721-1.93-.53m90.165 2.592c2.055 1.91 4.305 3.456 5 3.435 1.469-.043-6.238-6.938-7.735-6.92-.55.007.681 1.575 2.735 3.485M159 141.438c0 .809.853 1.373 1.949 1.291 1.473-.111 1.688-.462.878-1.438-1.422-1.713-2.827-1.64-2.827.147m-32 .489c0 .511 1.11 1.801 2.466 2.868s2.144 2.296 1.75 2.733c-.394.436-.117.446.616.023 1.019-.59.682-1.449-1.437-3.661-3.009-3.14-3.395-3.364-3.395-1.963m30.691 3c.256.977 2.02 2.519 3.921 3.425 4.507 2.149 5.088 2.079 2.888-.352-.995-1.1-2.415-2-3.155-2s-1.345-.402-1.345-.893-.624-1.132-1.387-1.425c-.945-.363-1.239.033-.922 1.245m-81.232 3.14c-.363.586-.445 1.281-.183 1.543s.743-.218 1.069-1.067c.676-1.762.1-2.072-.886-.476m48.982.488c-1.864 1.494-1.852 1.512.309.465 1.237-.6 2.25-1.3 2.25-1.555 0-.765-.519-.544-2.559 1.09M90.478 163.5c-.458 1.1-1.297 2.31-1.865 2.689-1.245.83 2.059 4.811 3.992 4.811.713 0 1.799.787 2.414 1.75.955 1.494 1.037 1.384.563-.75-.305-1.375-.561-4.018-.568-5.872-.012-2.796-.256-3.172-1.43-2.197-1.125.933-1.505.804-1.846-.628-.395-1.661-.494-1.645-1.26.197m40.022 4.715c-2.2 1.169-6.925 3.148-10.5 4.397-8.049 2.812-6.467 3.105 2.161.401 7.485-2.347 8.174-2.42 4.839-.513-3.55 2.029-1.937 1.831 3.275-.404 2.702-1.158 4.656-2.724 4.99-4 .672-2.57.274-2.56-4.765.119m-17 2.316c-1.65 1.352-2.516 2.461-1.924 2.464.591.003 2.132-1.12 3.424-2.495 2.963-3.154 2.371-3.142-1.5.031"/></svg>