<svg xmlns="http://www.w3.org/2000/svg" width="32" height="32" version="1.1" fill="#000000"><path fill-opacity=".078" d="M 8.513 9.980 C 5.437 14.852, 5.408 16.394, 8.294 21.500 C 10.496 25.397, 10.708 25.508, 16.537 25.791 C 22.231 26.069, 22.604 25.941, 24.260 23.137 C 26.908 18.654, 26.471 16.595, 22.466 14.685 C 18.052 12.580, 18 12.583, 18 14.950 C 18 16.023, 18.745 17.317, 19.654 17.827 C 21.621 18.927, 20.794 22, 18.531 22 C 17.326 22, 17 20.721, 17 16 C 17 11.397, 17.341 10, 18.465 10 C 19.270 10, 20.411 10.900, 21 12 C 22.064 13.987, 26 14.838, 26 13.081 C 26 12.576, 25.212 10.778, 24.250 9.087 C 22.616 6.217, 22.120 6.012, 16.763 6.006 C 11.159 6, 10.967 6.093, 8.513 9.980 M 10.605 14.586 C 10.271 15.458, 10.434 16.921, 10.968 17.836 C 11.741 19.160, 11.945 18.835, 11.970 16.250 C 12.003 12.691, 11.546 12.134, 10.605 14.586" stroke="none" fill="#000000" fill-rule="evenodd"/><path fill-opacity=".298" d="M 8.542 10.338 C 5.395 15.708, 5.397 16.115, 8.595 21.572 C 11.158 25.945, 11.257 26, 16.610 26 C 21.651 26, 22.168 25.773, 24.011 22.750 C 25.101 20.962, 25.994 18.974, 25.996 18.332 C 26 17.263, 20.111 13, 18.632 13 C 17.063 13, 18.214 17.044, 20.065 18.035 C 21.716 18.918, 21.892 19.426, 20.942 20.570 C 20.289 21.356, 18.910 22, 17.878 22 C 16.249 22, 16 21.203, 16 16 C 16 10.311, 16.126 10, 18.433 10 C 19.987 10, 21.094 10.722, 21.500 12 C 22.138 14.010, 24.444 14.709, 25.389 13.179 C 25.668 12.728, 25.026 10.928, 23.963 9.179 C 22.169 6.230, 21.634 6, 16.557 6 C 11.159 6, 11.050 6.059, 8.542 10.338 M 11.086 13.315 C 9.882 15.585, 9.876 16.394, 11.042 18.741 L 12.412 21.500 12.773 18.750 C 12.971 17.238, 12.990 14.796, 12.816 13.324 L 12.500 10.647 11.086 13.315" stroke="none" fill="#000000" fill-rule="evenodd"/><path fill-opacity=".067" d="M 11.425 6.765 C 10.834 7.169, 9.289 9.412, 7.991 11.750 L 5.632 16 7.991 20.250 C 10.981 25.635, 11.510 25.966, 17.168 25.985 C 21.397 25.999, 22.033 25.683, 23.918 22.632 C 26.766 18.025, 26.594 17.344, 22 15 C 18.751 13.343, 18 13.234, 18 14.423 C 18 15.228, 18.910 16.524, 20.022 17.303 C 22.619 19.122, 21.621 22, 18.393 22 C 16.135 22, 16 21.662, 16 16 C 16 10.581, 16.202 10, 18.090 10 C 19.239 10, 20.966 10.972, 21.928 12.159 C 24.743 15.635, 26.247 13.533, 23.851 9.472 C 21.977 6.296, 21.406 6.001, 17.151 6.015 C 14.593 6.024, 12.016 6.361, 11.425 6.765 M 10.790 13.314 C 9.316 16.404, 9.336 16.791, 11.083 19.064 L 12.956 21.500 12.978 15.750 C 12.990 12.588, 12.858 10, 12.685 10 C 12.512 10, 11.659 11.491, 10.790 13.314" stroke="none" fill="#000000" fill-rule="evenodd"/><path fill-opacity=".39" d="M 8.447 11.500 L 5.810 16 8.447 20.500 L 11.084 25 16.857 25 C 22.507 25, 22.666 24.923, 24.358 21.376 C 25.308 19.383, 25.954 17.661, 25.793 17.550 C 19.048 12.886, 15.644 12.644, 20.150 17.150 C 22.642 19.642, 21.706 22.290, 18.148 22.820 C 16.123 23.121, 16 22.734, 16 16.070 C 16 9.677, 16.191 9, 17.992 9 C 19.087 9, 20.545 9.900, 21.232 11 C 22.449 12.949, 25 13.777, 25 12.223 C 25 11.795, 24.299 10.445, 23.443 9.223 C 22.161 7.392, 20.933 7, 16.485 7 C 11.141 7, 11.056 7.048, 8.447 11.500 M 10.710 12.890 C 8.991 15.824, 8.990 16.074, 10.707 19.222 L 12.495 22.500 12.811 19.250 C 12.985 17.462, 12.986 14.613, 12.813 12.918 L 12.500 9.836 10.710 12.890" stroke="none" fill="#000000" fill-rule="evenodd"/></svg>