<svg xmlns="http://www.w3.org/2000/svg" width="24" height="24" fill="#000000"><path fill="url(#a)" fill-rule="evenodd" d="M11.423.033C3.143.519-2.467 9.928 1.087 17.367c4.67 9.776 18.973 8.458 22.34-2.058 1.195-3.73.869-3.995-4.383-3.562-.79.066-1.481.119-1.536.12-.078 0-.1-.541-.1-2.44 0-2.228-.012-2.454-.141-2.583-.194-.194-1.5-.77-1.632-.718-.098.037-1.905 5.946-1.9 6.21.007.342 1.226 5.284 1.345 5.452.371.526 1.752.835 2.13.479.198-.186.198-.186.198-2.184 0-1.997 0-1.997.38-1.946 2.787.374 3.043.451 2.917.88-2.57 8.78-15.479 7.703-17.62-1.47C1.224 5.565 10.87-.35 17.13 4.937c1.691 1.428 3.735 1.596 4.743.388.137-.165.356-.408.487-.54.366-.372.32-.52-.162-.52-.742 0-1.453-.38-2.364-1.263C17.4.64 15.071-.181 11.423.032ZM12.619 6.1c-2.326.71-3.481 6.247-2.5 11.986.08.468 1.369.88 1.45.463.016-.088.582-2.026 1.258-4.307 1.227-4.147 1.227-4.147.63-5.065-.836-1.286-.823-1.327.557-1.685.876-.226 1.345-.787 1.13-1.35-.05-.129-2.125-.164-2.525-.042ZM9.906 7.28c-.153.018-.876.1-1.607.181-3.366.375-4.03 2.501-2.635 8.434.44 1.866.43 1.848 1.186 2.097.693.229.436.83 2.223-5.195 1.798-6.06 1.732-5.624.833-5.517Zm6.495 2.124c.067.106.056.169-.046.27-.239.24-.595-.073-.38-.333.124-.15.31-.123.426.063Zm.927 3.79c0 .766 0 .766-.339.711-1.658-.268-2-1.479-.417-1.479.756 0 .756 0 .756.767Z" clip-rule="evenodd"/><path fill="#000000" fill-rule="evenodd" d="M10.468.6C8.705.798 6.186 1.76 5.151 2.636c-.155.13-.086.105.207-.077C9.935-.28 15.454.148 19.008 3.618c1.073 1.047 2.06 1.568 2.678 1.413.139-.035.191-.015.191.073 0 .16.13.156.191-.005.088-.23.054-.25-.49-.3-.825-.078-1.356-.384-2.436-1.404C16.668 1.058 14.02.205 10.468.6Zm-7.977 9.6C.649 19.127 11.196 25.615 17.767 19.6c.198-.181.091-.122-.279.154-6.784 5.062-16.57-1.005-14.968-9.28.067-.35.108-.65.09-.667-.017-.017-.07.16-.12.395Zm17.012 1.967c-1.357.015-2.174.053-2.174.102 0 .05.985.079 2.708.079 2.852 0 3.059.023 3.212.36.177.389-.194 2.586-.618 3.67-.067.171-.107.326-.088.345.13.13.721-2.04.86-3.15.159-1.28-.002-1.484-1.144-1.447-.32.01-1.56.029-2.756.041Z" clip-rule="evenodd"/><defs><linearGradient id="a" x1="1.476" x2="19.845" y1="1.881" y2="21.516" gradientUnits="userSpaceOnUse"><stop offset=".08" stop-color="#787878"/><stop offset=".298" stop-color="#858585"/><stop offset=".495" stop-color="#787878"/><stop offset=".694" stop-color="#4f4f4f"/><stop offset=".821" stop-color="#545454"/><stop offset="1" stop-color="#858585"/></linearGradient></defs></svg>