<!-- Generated by IcoMoon.io -->
<svg version="1.1" xmlns="http://www.w3.org/2000/svg" width="32" height="32" viewBox="0 0 32 32" fill="#000000">
<title>gno</title>
<path d="M21.221 12.855l-0.462 0.462c0.368 0.578 0.483 1.302 0.231 1.995-0.42 1.176-1.723 1.796-2.91 1.376-0.168-0.063-0.326-0.137-0.462-0.231l-1.481 1.481-1.292-1.302c-0.617 0.411-1.391 0.508-2.090 0.263-1.218-0.441-1.848-1.775-1.407-2.983 0.063-0.189 0.158-0.357 0.262-0.515l-0.557-0.557-0.105 0.179c-0.583 0.951-0.892 2.046-0.893 3.161-0.010 3.351 2.72 6.092 6.071 6.092h0.010c3.351 0 6.071-2.72 6.081-6.071 0-1.115-0.305-2.208-0.882-3.161z"/>
<path d="M12.293 14.084c-0.164 0.218-0.252 0.484-0.252 0.756 0 0.683 0.557 1.239 1.24 1.239 0.275 0.001 0.542-0.091 0.756-0.263zM18.375 15.712c0.2 0.136 0.431 0.21 0.693 0.21 0.683 0 1.24-0.557 1.24-1.239 0-0.252-0.074-0.494-0.21-0.693zM16.159 17.015l-5.021-5.042 0.2-0.21c1.239-1.313 2.93-2.048 4.747-2.048h0.010c1.838 0 3.603 0.788 4.831 2.153l0.189 0.21zM11.957 11.973l4.201 4.212 4.149-4.128c-1.114-1.113-2.626-1.754-4.201-1.754h-0.010c-1.565 0-3.025 0.589-4.138 1.67zM10.623 20.26l-0.588-0.042c-2.5-0.158-5.945-0.777-8.172-2.784-1.376-1.229-1.639-2.395-1.649-2.447l-0.074-0.357h9.096l-0.052 0.336c-0.042 0.306-0.063 0.615-0.063 0.924 0 1.386 0.399 2.731 1.166 3.876zM21.631 20.26l0.326-0.494c0.767-1.145 1.166-2.479 1.166-3.855 0-0.315-0.021-0.641-0.063-0.945l-0.042-0.336h9.096l-0.074 0.357c-0.010 0.052-0.273 1.218-1.638 2.447-2.227 2.006-5.682 2.626-8.182 2.783z"/>
</svg>
