<svg xmlns="http://www.w3.org/2000/svg" width="250" height="250" version="1.1" fill="#000000"><path fill-opacity=".063" d="M 104.826 0.507 C 104.506 0.828, 100.476 1.982, 95.872 3.073 C 69.301 9.366, 45.183 24.636, 27.772 46.187 C 15.883 60.904, 7.918 76.821, 2.832 96.031 C 0.977 103.037, 0.528 107.783, 0.235 123.500 C 0.034 134.291, 0.311 144.012, 0.876 146 C 1.424 147.925, 2.614 152.425, 3.520 156 C 9.065 177.867, 18.773 195.303, 34.753 212.095 C 51.719 229.924, 72.869 242.020, 98 248.267 C 104.052 249.772, 146.028 249.748, 152.182 248.236 C 199.244 236.675, 235.254 201.626, 246.946 156 C 247.581 153.525, 248.752 149.415, 249.550 146.866 C 251.670 140.090, 251.630 105.488, 249.500 103.357 C 248.675 102.532, 248 100.796, 248 99.499 C 248 96.095, 241.478 76.900, 237.864 69.670 C 232.113 58.162, 223.607 46.584, 213.515 36.525 C 196.376 19.443, 178.310 9.211, 154 2.819 C 146.865 0.943, 142.282 0.531, 125.455 0.254 C 114.430 0.072, 105.147 0.186, 104.826 0.507 M 113.500 14.621 C 85.419 18.896, 66.737 27.702, 48.191 45.407 C 32.290 60.587, 22.132 78.691, 16.816 101.327 C 15.097 108.648, 14.671 113.529, 14.707 125.500 C 14.748 138.966, 15.065 141.676, 17.808 152 C 27.557 188.695, 55.452 218.739, 89.598 229.321 C 103.973 233.776, 108.925 234.500, 125 234.500 C 142.136 234.500, 154.488 232.365, 165.500 227.498 C 184.282 219.199, 192.638 213.505, 204.886 200.662 C 236.935 167.055, 244.402 116.571, 223.478 74.964 C 217.959 63.991, 212.048 55.902, 202.940 46.861 C 181.903 25.976, 157.306 15.355, 128 14.499 C 121.675 14.315, 115.150 14.369, 113.500 14.621 M 142 64.840 C 140.075 65.808, 135.350 68.443, 131.500 70.694 C 117.040 79.150, 113.317 81.206, 106.500 84.503 C 102.650 86.365, 94.550 91.063, 88.500 94.943 C 82.450 98.823, 73.325 104.079, 68.223 106.622 C 54.149 113.636, 49.426 120.440, 51.998 129.992 C 54.068 137.678, 63.184 143.949, 70.315 142.592 C 73.234 142.037, 86.630 134.891, 117 117.691 C 129.803 110.440, 131.378 110.150, 136.418 114.114 L 139 116.145 139.004 148.823 C 139.008 185.348, 138.907 184.776, 146.353 190.456 C 152.248 194.952, 163.223 193.893, 168.153 188.352 C 172.889 183.029, 173 181.706, 173 130.556 C 173 89.042, 172.779 81.706, 171.404 77.671 C 169.604 72.389, 163.655 66.135, 158.709 64.326 C 153.938 62.581, 146.006 62.825, 142 64.840 M 0.422 125 C 0.422 136.275, 0.568 140.887, 0.746 135.250 C 0.924 129.613, 0.924 120.388, 0.746 114.750 C 0.568 109.112, 0.422 113.725, 0.422 125 M 96.611 158.049 C 78.544 168.408, 77.598 169.389, 80.419 174.843 C 82.370 178.617, 90.571 184.635, 97.831 187.621 C 104.008 190.161, 108.061 190.573, 111.066 188.965 C 112.858 188.006, 113 186.720, 113 171.500 C 113 156.280, 112.858 154.994, 111.066 154.035 C 107.760 152.266, 105.696 152.839, 96.611 158.049" stroke="none" fill="#000000" fill-rule="evenodd"/><path fill-opacity=".15" d="M 116 1.500 C 114.075 2.241, 110.840 2.882, 108.812 2.924 C 106.784 2.966, 102.059 3.699, 98.312 4.553 C 47.316 16.179, 8.845 58.595, 2.468 110.227 C 2.147 112.826, 1.460 115.215, 0.942 115.536 C -0.287 116.296, -0.287 134.704, 0.942 135.464 C 1.460 135.785, 2.147 138.174, 2.468 140.773 C 5.776 167.576, 16.819 191.112, 35.197 210.526 C 52.342 228.639, 74.334 241.305, 97.500 246.408 C 101.900 247.378, 106.805 248.582, 108.399 249.085 C 113.254 250.617, 136.727 250.181, 144.500 248.415 C 167.926 243.092, 178.630 238.782, 194.268 228.371 C 221.571 210.194, 241.286 180.296, 247.500 147.643 C 248.247 143.714, 249.330 138.700, 249.906 136.500 C 251.291 131.207, 251.286 116.861, 249.898 113.315 C 249.292 111.767, 247.933 106.340, 246.879 101.256 C 241.046 73.137, 226.911 49.508, 204.636 30.642 C 186.212 15.039, 164.334 5.685, 138.750 2.474 C 136.137 2.146, 134 1.455, 134 0.939 C 134 -0.477, 120 -0.041, 116 1.500 M 105 14.007 C 83.198 18.181, 66.257 26.468, 50.062 40.881 C 26.643 61.721, 11.990 93.870, 12.003 124.381 C 12.007 133.097, 14.285 146.812, 17.505 157.500 C 28.296 193.327, 58.977 222.948, 95.130 232.445 C 128.113 241.109, 160.267 235.725, 188.268 216.849 C 196.539 211.274, 212.355 195.201, 218.150 186.483 C 240.150 153.384, 242.750 110.605, 224.956 74.500 C 202.985 29.921, 153.148 4.789, 105 14.007 M 145 65.653 C 142.869 66.509, 120.998 78.956, 118 81.020 C 116.625 81.966, 112.575 83.776, 109 85.042 C 102.883 87.207, 85.423 97.720, 81.610 101.533 C 80.654 102.488, 76.639 104.584, 72.686 106.191 C 57.281 112.452, 53.011 116.590, 53.004 125.264 C 52.997 133.507, 58.511 139.681, 66.751 140.657 C 71.100 141.172, 72.429 140.736, 82.500 135.497 C 88.550 132.350, 93.950 129.444, 94.500 129.039 C 95.050 128.634, 98.875 126.492, 103 124.280 C 107.125 122.067, 112.075 119.373, 114 118.293 C 115.925 117.213, 119.653 115.130, 122.285 113.665 C 128.467 110.222, 133.884 110.135, 137.694 113.415 L 140.500 115.831 140.137 147.733 C 139.783 178.790, 139.830 179.747, 141.927 183.857 C 144.745 189.381, 149.102 191.993, 155.500 191.993 C 161.435 191.993, 166.107 189.495, 169.030 184.759 C 170.986 181.590, 171.034 180.097, 170.771 130.500 C 170.464 72.623, 170.806 75.072, 162.149 68.855 C 158.548 66.269, 156.473 65.543, 152.058 65.325 C 149.001 65.175, 145.825 65.322, 145 65.653 M 0.365 125.500 C 0.368 131, 0.536 133.122, 0.738 130.216 C 0.941 127.311, 0.939 122.811, 0.734 120.216 C 0.528 117.622, 0.363 120, 0.365 125.500 M 102.985 155.873 C 101.068 156.904, 95.450 160.169, 90.500 163.129 C 82.938 167.652, 81.448 168.964, 81.175 171.340 C 80.747 175.071, 87.036 181.156, 95.423 185.124 C 102.910 188.667, 107.148 189.526, 109.895 188.056 C 111.895 186.986, 112 186.163, 112 171.500 C 112 157.269, 111.850 155.990, 110.066 155.035 C 107.474 153.648, 107.027 153.701, 102.985 155.873" stroke="none" fill="#000000" fill-rule="evenodd"/><path fill-opacity=".148" d="M 102.500 88.496 C 97.547 91.155, 91.841 95.119, 89.057 97.836 C 87.800 99.062, 87.830 99.403, 89.289 100.469 C 90.806 101.579, 90.725 101.804, 88.435 102.847 C 87.044 103.481, 85.259 104, 84.468 104 C 81.651 104, 64.884 110.048, 61.129 112.419 C 56.974 115.041, 53.998 120.151, 54.004 124.651 C 54.012 130.917, 60.443 137.223, 68.152 138.526 C 72.858 139.321, 78.337 136.758, 119.135 114.674 C 128.300 109.714, 132.553 108.958, 137 111.500 C 140.443 113.468, 141 113.354, 141 110.678 C 141 106.694, 138.078 99.550, 134.842 95.624 C 129.471 89.108, 124.754 86.821, 115.578 86.285 C 108.232 85.855, 107.047 86.055, 102.500 88.496 M 236.907 91.612 C 235.458 93.358, 235.544 98.249, 237.130 104.351 C 238.565 109.870, 238.471 136.784, 236.994 143.158 C 235.156 151.095, 232.952 159.053, 231.498 163 C 220.126 193.879, 193.468 220.403, 163 231.153 C 150.894 235.424, 136.438 238.002, 124.619 237.996 C 116.269 237.992, 100.199 235.793, 94 233.807 C 70.918 226.412, 57.219 218.106, 40.300 201.250 C 33.396 194.372, 30.437 193.411, 29.361 197.697 C 28.934 199.400, 29.111 200.537, 29.842 200.781 C 30.479 200.993, 31 201.599, 31 202.127 C 31 204.564, 48.362 221.531, 56.826 227.365 C 70.256 236.622, 97.680 246.988, 108.790 247.006 C 110.831 247.010, 113.789 247.685, 115.364 248.506 C 117.139 249.432, 120.995 250, 125.500 250 C 130.005 250, 133.861 249.432, 135.636 248.506 C 137.211 247.685, 140.126 247.010, 142.113 247.006 C 149.938 246.993, 169.716 240.860, 181.500 234.794 C 204.257 223.078, 224.070 202.928, 234.889 180.500 C 239.562 170.811, 240.531 168.419, 242.784 161 C 244.555 155.168, 246.861 142.900, 247.527 135.761 C 247.874 132.054, 248.572 128.765, 249.078 128.452 C 250.526 127.557, 250.156 123.013, 248.500 121.357 C 247.672 120.529, 246.973 117.986, 246.940 115.679 C 246.843 108.873, 243.990 95.524, 241.933 92.250 C 240.262 89.591, 238.744 89.399, 236.907 91.612 M 164 114 C 163.175 114.533, 161.363 114.976, 159.973 114.985 C 158.582 114.993, 156.546 115.630, 155.446 116.400 C 154.347 117.170, 151.727 117.800, 149.624 117.800 C 147.521 117.800, 145.367 118.233, 144.838 118.762 C 142.515 121.085, 139.959 175.316, 141.896 181.185 C 145.627 192.491, 161.168 194.747, 167.668 184.926 L 170.321 180.916 169.574 148.208 C 169.163 130.219, 168.791 114.938, 168.747 114.250 C 168.652 112.768, 166.113 112.635, 164 114 M 103.485 157.124 C 101.293 158.292, 98.375 159.998, 97 160.916 C 95.625 161.833, 92.769 163.465, 90.653 164.542 C 86.057 166.881, 82 170.436, 82 172.124 C 82 174.280, 90.419 181.491, 96.043 184.152 C 103.284 187.578, 107.695 188.498, 109.541 186.966 C 111.752 185.131, 111.655 158.797, 109.429 156.571 C 107.518 154.661, 108.230 154.595, 103.485 157.124" stroke="none" fill="#000000" fill-rule="evenodd"/><path fill-opacity=".226" d="M 106.500 87.655 C 104.091 88.316, 98 92.784, 98 93.890 C 98 94.323, 102.270 95.988, 107.489 97.589 C 112.708 99.190, 116.983 100.770, 116.989 101.099 C 116.995 101.429, 112.838 101.990, 107.750 102.346 C 94.200 103.294, 82.011 105.716, 68.768 110.092 C 64.751 111.419, 58.125 116.421, 59.084 117.403 C 59.405 117.732, 67.505 119.589, 77.084 121.528 C 97.404 125.644, 95.138 126.003, 115.574 115.425 C 122.482 111.849, 129.649 108.875, 132.324 108.474 C 136.420 107.860, 137 107.471, 137 105.337 C 137 100.011, 131.895 93.034, 125.661 89.837 C 121.809 87.862, 110.459 86.570, 106.500 87.655" stroke="none" fill="#000000" fill-rule="evenodd"/></svg>