<svg xmlns="http://www.w3.org/2000/svg" width="24" height="24" fill="#000000"><g clip-path="url(#a)"><circle cx="12" cy="12" r="12" fill="#f5f5f5"/><path fill="url(#b)" fill-rule="evenodd" d="M23.812 14.126c.124-.69.188-1.4.188-2.126 0-3.47-1.472-6.594-3.826-8.785a.494.494 0 0 1-.03.202c-.135.486-.41 2.9-.41 3.561 0 .88.267 2.095.61 2.815.402.83 1.114 1.743 2.394 3.084.63.652.984 1.065 1.074 1.25Zm-1.092 3.272-1.195.28c-2.177.52-3.098.888-4.144 1.684-1.005.771-1.884 1.886-3.223 4.115l-.22.367a12.014 12.014 0 0 0 8.782-6.446Zm-12.613 6.454-.475-.754-.363-.577c-.737-1.173-1.03-1.55-1.8-2.337-.845-.864-.988-.964-1.8-1.366-.887-.428-2.444-.88-3.825-1.098l-.435-.072a12.012 12.012 0 0 0 8.698 6.204ZM.19 14.138A12.072 12.072 0 0 1 0 12c0-3.28 1.316-6.253 3.45-8.42l.06.457c.041.31.117.855.167 1.198.042.344.1 1.249.126 2.011.033 1.215.016 1.458-.143 2.036-.092.369-.26.838-.368 1.048-.21.402-.912 1.433-1.189 1.734a29.52 29.52 0 0 0-.476.519l-.52.57a27.462 27.462 0 0 1-.917.985ZM6.395 1.387c.214.05.597.213 1.384.572 3.792 1.726 4.99 1.676 8.731-.352l.74-.4A11.952 11.952 0 0 0 12 0C9.975 0 8.068.501 6.395 1.387Z" clip-rule="evenodd"/><path fill="url(#c)" d="M17.32 11.05h-6.68c.396 2.08 2.089 2.489 2.886 2.434h2.64l1.154-2.433Z"/><path fill="url(#d)" d="m15.918 12.04-1.608 5.155 3.463-1.608c.33-1.017 1.031-3.192 1.196-3.753.165-.56-.33-.783-.783-.783h-2.64c.529 0 .468.66.372.99Z"/><path fill="url(#e)" fill-rule="evenodd" d="m6.456 15.85 9.493-.01c.486.015 1.414-.158 2.033-.86l-.658 1.977a2.624 2.624 0 0 1-2.487 1.798l-5.579-.005a2.575 2.575 0 0 1-2.456-1.802l-.346-1.099Z" clip-rule="evenodd"/><path fill="url(#f)" fill-rule="evenodd" d="m6.842 8.113 3.02 9c.139.466.598 1.29 1.459 1.656l-2.083.003a2.624 2.624 0 0 1-2.494-1.788L4.98 11.69a2.574 2.574 0 0 1 .93-2.901l.932-.677Z" clip-rule="evenodd"/><path fill="url(#g)" fill-rule="evenodd" d="m14.411 6.129-7.648 5.624c-.4.275-1.046.963-1.13 1.895l-.64-1.982a2.624 2.624 0 0 1 .942-2.921l4.5-3.297a2.575 2.575 0 0 1 3.047 0l.93.68Z" clip-rule="evenodd"/><path fill="url(#h)" fill-rule="evenodd" d="M18.556 9.32h-3.05c-.7.055-2.4-.132-3.587-1.32A5.051 5.051 0 0 0 8.907 6.57l1.53-1.12a2.575 2.575 0 0 1 3.046 0l4.502 3.296c.223.164.415.359.571.575Z" clip-rule="evenodd"/></g><defs><linearGradient id="c" x1="17.32" x2="10.64" y1="11.834" y2="12.288" gradientUnits="userSpaceOnUse"><stop stop-color="#262626"/><stop offset=".542" stop-color="#474747"/><stop offset="1" stop-color="#363636"/></linearGradient><linearGradient id="d" x1="17.567" x2="15.918" y1="10.597" y2="17.236" gradientUnits="userSpaceOnUse"><stop stop-color="#7f7f7f"/><stop offset=".338" stop-color="#9e9e9e"/><stop offset=".736" stop-color="#878787"/></linearGradient><linearGradient id="e" x1="8.866" x2="17.567" y1="17.277" y2="17.154" gradientUnits="userSpaceOnUse"><stop stop-color="#1c1c1c"/><stop offset=".537" stop-color="#474747"/><stop offset="1" stop-color="#212121"/></linearGradient><linearGradient id="f" x1="6.845" x2="9.525" y1="10.887" y2="18.928" gradientUnits="userSpaceOnUse"><stop offset=".112" stop-color="#7a7a7a"/><stop offset=".494" stop-color="#9e9e9e"/><stop offset="1" stop-color="#7a7a7a"/></linearGradient><linearGradient id="g" x1="13.402" x2="4.866" y1="4.949" y2="11.423" gradientUnits="userSpaceOnUse"><stop offset=".316" stop-color="#1f1f1f"/><stop offset=".669" stop-color="#474747"/><stop offset="1" stop-color="#212121"/></linearGradient><linearGradient id="h" x1="9.61" x2="17.527" y1="4.949" y2="10.063" gradientUnits="userSpaceOnUse"><stop stop-color="#7f7f7f"/><stop offset=".234" stop-color="#9e9e9e"/><stop offset=".514" stop-color="#7f7f7f"/><stop offset="1" stop-color="#9e9e9e"/></linearGradient><radialGradient id="b" cx="0" cy="0" r="1" gradientTransform="matrix(0 12 -12 0 12 12)" gradientUnits="userSpaceOnUse"><stop offset=".629" stop-color="#d4d4d4"/><stop offset="1" stop-color="#7f7f7f"/></radialGradient><clipPath id="a"><path fill="#ffffff" d="M0 0h24v24H0z"/></clipPath></defs></svg>