<svg xmlns="http://www.w3.org/2000/svg" width="200" height="200" fill="#000000"><path fill-opacity=".482" fill-rule="evenodd" d="M83.5 1.037c-2.2.525-5.069 1.204-6.375 1.509-2.329.544-2.361.707-1.681 8.504.381 4.373.372 7.95-.022 7.95-.894 0-10.337-10.228-10.386-11.25-.069-1.426-3.122-.74-8.319 1.868C29.928 23.064 10.462 46.886 2.884 75.5.857 83.153.502 86.819.516 100c.013 12.985.395 16.961 2.355 24.5 5.889 22.655 21.279 44.848 40.024 57.716l5.395 3.704 7.218-6.46c3.97-3.553 7.549-6.46 7.953-6.46.679 0 .185 7.466-1.065 16.103-.609 4.202-.288 4.393 13.604 8.118 7.136 1.913 10.987 2.277 24 2.263 18.576-.018 28.17-2.085 42.873-9.237 21.008-10.217 36.348-25.345 46.949-46.301 4.011-7.93 9.178-24.584 9.178-29.584 0-1.234.45-2.522 1-2.862.58-.359 1-5.863 1-13.118 0-7.028-.389-12.26-.888-11.951-.488.302-1.202-1.543-1.585-4.1-1.385-9.233-1.365-9.216-11.106-9.541l-8.659-.29 4.869-3.411c2.678-1.876 5.88-4.315 7.116-5.421l2.246-2.01-4.138-7.579C183.34 43.981 179.599 38.677 173 31.607 160.879 18.62 143.252 8.021 126 3.349c-7.655-2.074-12.316-2.641-24-2.92-7.975-.191-16.3.083-18.5.608m-1.684 36.888c-11.386 3.641-18.932 8.224-27.3 16.579-8.439 8.427-13.603 17.1-16.924 28.428-2.108 7.19-2.132 25.576-.043 33.593 1.635 6.278 6.798 17.365 10.015 21.509 5.17 6.656 15.721 15.768 21.792 18.819 10.947 5.5 17.797 7.131 30 7.139 12.5.009 20.095-1.627 29.678-6.392 7.549-3.754 9.587-5.255 16.449-12.117s8.363-8.9 12.117-16.449c4.765-9.583 6.401-17.178 6.392-29.678-.008-12.203-1.639-19.053-7.139-30-3.051-6.071-12.163-16.622-18.819-21.792-4.144-3.217-15.231-8.38-21.509-10.015-8.473-2.207-27.268-2.003-34.709.376m12.177 41.399c-9.878 7.755-16.53 19.91-17.689 32.322L75.711 118h8.644c8.048 0 8.645-.142 8.645-2.05 0-2.666 2.247-6.958 4.898-9.357 2.066-1.871 2.138-1.871 4.204 0 2.651 2.399 4.898 6.691 4.898 9.357 0 1.908.597 2.05 8.645 2.05h8.644l-.59-6.316c-1.176-12.598-8.57-25.749-18.629-33.133-2.661-1.953-5.003-3.551-5.204-3.55-.201 0-2.844 1.946-5.873 4.323M.389 99.5c.001 7.15.161 9.944.353 6.208.193-3.735.192-9.585-.003-13-.194-3.414-.352-.358-.35 6.792"/><path fill-opacity=".107" fill-rule="evenodd" d="M86 1.073a959 959 0 0 1-7.699 1.426l-3.199.572.548 8.715.547 8.714-6.371-6.892-6.37-6.893-5.978 2.86C31.123 22.183 10.054 47.45 3.601 74.187c-4.846 20.082-4.846 31.544 0 51.626 5.005 20.736 21.213 44.076 38.65 55.653 6.364 4.225 5.964 4.315 14.291-3.216 3.193-2.888 6.235-5.25 6.761-5.25.898 0 .213 14.361-.86 18.051-.325 1.116.883 2 4.303 3.153 20.985 7.071 40.34 7.524 61.754 1.445 36.282-10.299 65.167-43.502 70.083-80.56.374-2.824 1.071-5.375 1.549-5.67.477-.296.868-5.037.868-10.537s-.393-9.757-.874-9.46c-.48.297-1.172-1.814-1.537-4.691s-1.127-6.676-1.692-8.443l-1.027-3.212-8.623-.288-8.622-.288 6.687-4.905c3.679-2.698 6.687-5.398 6.686-6s-1.419-3.795-3.15-7.095c-11.442-21.811-28.899-37.717-52.035-47.411C122.796 1.216 99.677-1.522 86 1.073m3.5 34.987c-22.659 3.044-44.261 21.945-51.736 45.266-2.651 8.271-2.869 26.425-.426 35.599 5.412 20.328 23.192 38.644 43.934 45.258 8.722 2.781 27.535 2.839 36.807.114 20.362-5.984 38.234-23.856 44.218-44.218 2.725-9.272 2.667-28.085-.114-36.807-4.502-14.117-14.602-27.425-26.995-35.567-8.373-5.501-15.68-8.25-25.594-9.629-8.581-1.193-11.318-1.195-20.094-.016m1.514 46.69c-9.414 9.53-13.055 16.759-14.606 29l-.666 5.25h8.629c7.841 0 8.629-.175 8.629-1.919 0-2.508 2.924-7.552 5.203-8.976 1.329-.829 2.265-.829 3.594 0 2.279 1.424 5.203 6.468 5.203 8.976 0 1.744.788 1.919 8.629 1.919h8.629l-.666-5.25c-.811-6.4-3.181-13.897-5.906-18.681C114.427 87.346 102.67 76 100 76c-1.536 0-4.566 2.276-8.986 6.75M.37 100c0 5.775.165 8.138.367 5.25s.202-7.612 0-10.5S.37 94.225.37 100"/></svg>