<svg xmlns="http://www.w3.org/2000/svg" width="200" height="200" fill="#000000"><path fill-opacity=".349" fill-rule="evenodd" d="M0 100.005V200.01l100.25-.255 100.25-.255.255-99.75L201.01 0H0zm.481.495c0 55 .121 77.647.269 50.326.148-27.32.148-72.32 0-100C.602 23.147.481 45.5.481 100.5M48 70.75c0 1.521 1.048 1.75 8 1.75s8-.229 8-1.75S62.952 69 56 69s-8 .229-8 1.75m29.177-.09c.266 1.366 1.694 1.675 8.072 1.75 6.748.078 7.75-.136 7.75-1.66C93 69.228 91.949 69 84.927 69c-6.985 0-8.03.224-7.75 1.66m-12 4.007c.486 2.509 2.823 2.853 2.823.416C68 73.855 67.354 73 66.427 73c-.932 0-1.442.68-1.25 1.667M94 74.5c0 .825.675 1.5 1.5 1.5s1.5-.675 1.5-1.5-.675-1.5-1.5-1.5-1.5.675-1.5 1.5m4 5.073c0 .932.68 1.442 1.667 1.25 2.509-.486 2.853-2.823.416-2.823-1.228 0-2.083.646-2.083 1.573M56 87.5c0 1.208 1.556 1.5 8 1.5s8-.292 8-1.5-1.556-1.5-8-1.5-8 .292-8 1.5m38 0c0 1.208 1.556 1.5 8 1.5s8-.292 8-1.5-1.556-1.5-8-1.5-8 .292-8 1.5m-21 4c0 .825.675 1.5 1.5 1.5s1.5-.675 1.5-1.5-.675-1.5-1.5-1.5-1.5.675-1.5 1.5m37.638 0c-.391 1.02.054 1.5 1.393 1.5 1.084 0 1.969-.675 1.969-1.5s-.627-1.5-1.393-1.5-1.652.675-1.969 1.5M52 100q0 2 2 2t2 2 2 2 2 2c0 1.778.667 2 6 2 4.442 0 6-.359 6-1.383 0-.761-.9-1.619-2-1.907-1.589-.415-2-1.364-2-4.616V98h-8c-7.333 0-8 .167-8 2m21-.073c0 1.431.642 2.073 2.073 2.073 2.563 0 2.272-3.31-.334-3.812-1.2-.231-1.739.308-1.739 1.739M90 100q0 2 2 2t2 2 2 2 2 2c0 1.778.667 2 6 2 4.667 0 6-.333 6-1.5 0-.833-.889-1.5-2-1.5-1.704 0-2-.667-2-4.5V98h-8c-7.333 0-8 .167-8 2m21 0c0 1.111.667 2 1.5 2s1.5-.889 1.5-2-.667-2-1.5-2-1.5.889-1.5 2m-76 12.5c0 .825.788 1.557 1.75 1.628s2.763.233 4 .363c1.613.169 2.25-.292 2.25-1.628 0-1.507-.764-1.863-4-1.863-2.889 0-4 .417-4 1.5m-4 8.5c0 5.047.278 6 1.75 6 1.467.001 1.721-.849 1.574-5.25-.097-2.887-.21-5.588-.25-6s-.749-.75-1.574-.75c-1.167 0-1.5 1.333-1.5 6m110-4.5c0 .825.675 1.5 1.5 1.5s1.5-.675 1.5-1.5-.675-1.5-1.5-1.5-1.5.675-1.5 1.5m-.5 11c0 2.667.417 3.5 1.75 3.5s1.75-.833 1.75-3.5-.417-3.5-1.75-3.5-1.75.833-1.75 3.5m-12.5 6c0 .825.675 1.5 1.5 1.5s1.5-.675 1.5-1.5-.675-1.5-1.5-1.5-1.5.675-1.5 1.5m4 4.469c0 1.339.48 1.784 1.5 1.393.825-.317 1.5-1.203 1.5-1.969s-.675-1.393-1.5-1.393-1.5.885-1.5 1.969m4 4.198c0 1.008.675 1.833 1.5 1.833s1.5-.825 1.5-1.833-.675-1.834-1.5-1.834-1.5.825-1.5 1.834M140.5 161c0 10.762.181 12 1.75 12s1.75-1.238 1.75-12-.181-12-1.75-12-1.75 1.238-1.75 12m24.677-6.384c.248 1.243 1.649 1.647 6.074 1.75 4.861.113 5.75-.137 5.75-1.616-.001-1.474-.957-1.75-6.074-1.75-5.059 0-6.02.27-5.75 1.616M94 159c0 1.833.667 2 8 2s8-.167 8-2-.667-2-8-2-8 .167-8 2m17 4.5c0 .825.675 1.5 1.5 1.5s1.5-.675 1.5-1.5-.675-1.5-1.5-1.5-1.5.675-1.5 1.5m4 4c0 .825.675 1.5 1.5 1.5s1.5-.675 1.5-1.5-.675-1.5-1.5-1.5-1.5.675-1.5 1.5m42 0c0 .833.889 1.5 2 1.5s2-.667 2-1.5-.889-1.5-2-1.5-2 .667-2 1.5m-4 4c0 .825.627 1.5 1.393 1.5s1.652-.675 1.969-1.5c.391-1.02-.054-1.5-1.393-1.5-1.084 0-1.969.675-1.969 1.5m-34 3.833c0 2.076 1.184 2.76 2.658 1.536 1.938-1.609 1.649-2.869-.658-2.869-1.1 0-2 .6-2 1.333m13 .167c0 1.048 1.056 1.5 3.5 1.5s3.5-.452 3.5-1.5-1.056-1.5-3.5-1.5-3.5.452-3.5 1.5m17 .5c0 1.111.667 2 1.5 2s1.5-.889 1.5-2-.667-2-1.5-2-1.5.889-1.5 2m-25.541 3.067c-1.006 1.627.361 2.433 4.126 2.433 2.585 0 3.414-.425 3.415-1.75 0-1.328-.83-1.75-3.441-1.75-1.893 0-3.738.48-4.1 1.067M141 180c0 1.111.667 2 1.5 2s1.5-.889 1.5-2-.667-2-1.5-2-1.5.889-1.5 2m-9 4.5c0 .825.675 1.5 1.5 1.5s1.5-.675 1.5-1.5-.675-1.5-1.5-1.5-1.5.675-1.5 1.5"/><path fill-opacity=".295" fill-rule="evenodd" d="M0 100v100l11.25-.07c6.188-.039 10.385-.41 9.327-.824-2.335-.915-2.68-3.291-1.939-13.356.406-5.522.955-7.75 1.909-7.75.859 0 1.448-1.52 1.646-4.25.251-3.481.669-4.25 2.307-4.25q2 0 2-2c0-1.638.769-2.056 4.25-2.307 3.436-.249 4.25-.68 4.25-2.25 0-1.276.686-1.943 2-1.943q2 0 2-2c0-2.901 3.765-2.676 4.18.25.271 1.905.933 2.25 4.32 2.25 3.62 0 4.03-.261 4.316-2.75.298-2.589.086-2.75-3.633-2.75-3.109 0-4.061-.426-4.473-2-.313-1.197-1.364-2-2.616-2-1.427 0-2.094-.637-2.094-2q0-2-2-2t-2-2-2-2-2-2-2-2c-1.309 0-2-.667-2-1.93 0-1.241-.804-2.045-2.25-2.25-1.807-.257-2.311-1.058-2.56-4.07-.261-3.154-.002-3.75 1.633-3.75 1.103 0 2.17.865 2.467 2 .415 1.589 1.364 2 4.616 2 3.7 0 4.094-.24 4.094-2.5 0-1.833-.533-2.5-2-2.5-1.778 0-2-.667-2-6s.222-6 2-6q2 0 2-2c0-1.704.667-2 4.5-2 4.133 0 4.5-.204 4.5-2.5 0-2.407-.238-2.5-6.43-2.5-5.908 0-6.457.183-6.75 2.25-.21 1.477-1.007 2.25-2.32 2.25s-2.11.773-2.32 2.25c-.205 1.446-1.009 2.25-2.25 2.25-1.692 0-1.93.739-1.93 6 0 5.423-.201 6-2.094 6-2.021 0-2.076-.353-1.589-10.25.417-8.463.77-10.201 2.028-9.971 1.107.202 1.71-.96 2.203-4.25.529-3.531 1.095-4.529 2.566-4.529C26.333 98 27 97.293 27 96q0-2 2-2t2-2 2-2c1.467 0 2-.667 2-2.5s.533-2.5 2-2.5q2 0 2-2t2-2 2-2 2-2c1.795 0 2 .667 2 6.5V90h4.5c3.833 0 4.5-.296 4.5-2 0-1.831.667-2 7.883-2 7.043 0 7.94.213 8.407 2 .32 1.224 1.364 2 2.69 2 1.45 0 2.06.526 1.843 1.592-.272 1.343-2.276 1.616-12.823 1.75-12.191.154-12.508.214-12.823 2.435-.21 1.482-.909 2.18-2 2-1.362-.225-1.677.569-1.677 4.223 0 3.833.296 4.5 2 4.5 1.313 0 2.11.773 2.32 2.25.205 1.446 1.009 2.25 2.25 2.25 1.061 0 1.93.675 1.93 1.5 0 1.179-1.389 1.5-6.5 1.5-6.267 0-6.5.09-6.5 2.5 0 1.833-.533 2.5-2 2.5-1.843 0-2 .667-2 8.5s.157 8.5 2 8.5c1.314 0 2 .667 2 1.943 0 1.57.814 2.001 4.25 2.25 3.849.278 4.231.543 4.05 2.807-.11 1.375.042 4.188.338 6.25.407 2.838 1.003 3.75 2.45 3.75 1.245 0 1.912.697 1.912 2 0 1.892.667 2 12.369 2h12.369l.594-3.656c.326-2.011.358-4.036.071-4.5-.286-.464-5.252-.844-11.035-.844-9.475 0-10.481-.173-10.178-1.75.303-1.578 2.125-1.777 18.573-2.023L97 143.955v4.022c0 3.356-.331 4.023-2 4.023q-2 0-2 2c0 1.355-.667 2-2.066 2-1.665 0-2.005.535-1.75 2.75.405 3.527 4.148 3.931 4.636.5.3-2.117.787-2.25 8.25-2.25 7.263 0 7.93.168 7.93 2 0 1.309.667 2 1.93 2 1.241 0 2.045.804 2.25 2.25.209 1.472 1.012 2.254 2.32 2.262 1.664.009 2 .682 2 4 0 3.374.346 4.037 2.25 4.308 1.446.205 2.25 1.009 2.25 2.25 0 1.585.715 1.93 4 1.93 3.333 0 4 .333 4 2q0 2-2 2c-1.481 0-2 .667-2 2.57 0 2.092.418 2.51 2.25 2.25 1.446-.206 2.364-1.124 2.57-2.57.175-1.238.932-2.25 1.68-2.25s1.505 1.012 1.68 2.25c.206 1.446 1.124 2.364 2.57 2.57 2.052.291 2.25-.084 2.25-4.25V178h4.5c3.833 0 4.5-.296 4.5-2q0-2 2-2t2-2 2-2 2-2 2-2c1.893 0 2-.667 2-12.5s.107-12.5 2-12.5c1.778 0 2 .667 2 6v6h13v7.93c0 7.463-.133 7.95-2.25 8.25-1.477.21-2.25 1.007-2.25 2.32s-.773 2.11-2.25 2.32c-1.446.205-2.25 1.009-2.25 2.25 0 1.263-.691 1.93-2 1.93q-2 0-2 2t-2 2-2 2-2 2c-1.309 0-2 .667-2 1.93 0 1.241-.804 2.045-2.25 2.25-1.475.21-2.251 1.009-2.254 2.32-.002 1.326-.672 2.001-1.987 2.002-1.09.001-2.125.742-2.299 1.647-.443 2.301-3.191 2.822-14.96 2.837-9.588.013-10.25-.115-10.25-1.986 0-1.661-.667-2-3.93-2-3.292 0-3.983-.359-4.25-2.209-.176-1.215-1.22-2.452-2.32-2.75s-2-1.216-2-2.041c0-1.05-1.276-1.592-4.25-1.807-4.229-.307-4.25-.327-4.25-4.25 0-3.276-.338-3.943-2-3.943q-2 0-2-2c0-2.67-3.592-2.67-4.29 0-.313 1.197-1.364 2-2.616 2-1.77 0-2.094.608-2.094 3.93 0 3.315.353 3.981 2.25 4.25 1.455.207 2.364 1.124 2.573 2.597.21 1.482.909 2.18 2 2 1.34-.221 1.738.68 1.982 4.482l.305 4.759 51.195-.259 51.195-.259.255-99.75L201.01 0H0zm.481.5c0 55 .121 77.647.269 50.326.148-27.32.148-72.32 0-100C.602 23.147.481 45.5.481 100.5m150.598-67.917c.048 1.165.285 1.402.604.605.289-.722.253-1.585-.079-1.917s-.568.258-.525 1.312m-2 30c.048 1.165.285 1.402.604.605.289-.722.253-1.585-.079-1.917s-.568.258-.525 1.312M48 72.5c0 3.433.081 3.502 4.25 3.615 6.946.189 7.236.29 7.57 2.635.269 1.897.935 2.25 4.25 2.25 3.918 0 3.93-.012 3.93-4 0-3.333-.333-4-2-4q-2 0-2-2c0-1.833-.667-2-8-2h-8zM77 75c0 5.333-.222 6-2 6q-2 0-2 2t2 2c1.309 0 2 .667 2 1.93 0 1.241.804 2.045 2.25 2.25 2.132.303 2.25.767 2.25 8.82s-.118 8.517-2.25 8.82c-1.446.205-2.25 1.009-2.25 2.25 0 1.263-.691 1.93-2 1.93q-2 0-2 2c0 1.843-.667 2-8.5 2s-8.5.157-8.5 2c0 1.947.667 2 25 2s25-.053 25-2c0-1.843-.667-2-8.5-2s-8.5-.157-8.5-2c0-1.348-.667-2-2.046-2-1.888 0-2.023-.52-1.75-6.75.254-5.785.546-6.708 2.046-6.456 1.293.217 1.75-.385 1.75-2.307v-2.601l12.502.307c11.357.279 12.501.147 12.5-1.443-.001-1.083-.765-1.75-2.002-1.75q-2 0-2-2c0-1.833-.667-2-8-2s-8 .167-8 2c0 1.704-.667 2-4.5 2H85v-4c0-3.333-.333-4-2-4-1.467 0-2-.667-2-2.5 0-2.788-.197-2.728 9.486-2.886 5.804-.095 7.043-.41 7.323-1.864.251-1.301-.323-1.75-2.236-1.75C93.667 73 93 72.482 93 71c0-1.833-.667-2-8-2h-8zm64.813-5.317c.721.289 1.584.253 1.916-.079s-.258-.568-1.312-.525c-1.165.048-1.402.285-.604.604M98 79q0 2 2 2t2-2-2-2-2 2m51.079 4.583c.048 1.165.285 1.402.604.605.289-.722.253-1.585-.079-1.917s-.568.258-.525 1.312m2 0c.048 1.165.285 1.402.604.605.289-.722.253-1.585-.079-1.917s-.568.258-.525 1.312m-4 4c.048 1.165.285 1.402.604.605.289-.722.253-1.585-.079-1.917s-.568.258-.525 1.312M52 100q0 2 2 2t2 2c0 1.309.667 2 1.93 2 1.241 0 2.045.804 2.25 2.25.294 2.064.815 2.24 6.32 2.126 5.155-.107 6-.389 6-1.999 0-1.207-.712-1.875-2-1.876-1.638-.001-2.056-.771-2.307-4.251L67.885 98h-7.942c-7.276 0-7.943.168-7.943 2m21 0q0 2 2 2t2-2-2-2-2 2m17 0q0 2 2 2t2 2 2 2 2 2c0 1.1.338 2.026.75 2.059 9.831.771 11.25.565 11.25-1.635 0-1.483-.571-2.156-1.75-2.063-1.371.109-1.817-.781-2.057-4.111l-.308-4.25h-7.942c-7.276 0-7.943.168-7.943 2m21 0q0 2 2 2t2-2-2-2-2 2m29 17q0 2 2 2t2-2-2-2-2 2m.598 6.736c-.329.328-.598 2.097-.598 3.931 0 2.666.4 3.333 2 3.333 1.607 0 2-.667 2-3.393 0-3.148-1.93-5.344-3.402-3.871M128 134.073c0 1.431.539 1.97 1.739 1.739 2.606-.502 2.897-3.812.334-3.812-1.431 0-2.073.642-2.073 2.073m4 3.927q0 2 2 2t2 2 2 2 2-2-2-2-2-2-2-2-2 2m8 23c0 11.777.042 12 2.25 12.002 2.226.002 2.247-.128 1.941-12-.286-11.108-.453-12.002-2.25-12.002-1.814 0-1.941.788-1.941 12m-8 15.06c0 1.769.53 2.017 3.742 1.75 2.615-.217 3.841-.837 4.073-2.06.272-1.435-.403-1.75-3.742-1.75-3.446 0-4.073.317-4.073 2.06m-101.333 1.607c-.367.366-.667 1.491-.667 2.5 0 1.181-.729 1.833-2.048 1.833-1.877 0-2.023.521-1.75 6.25.268 5.614.527 6.283 2.548 6.57 1.629.231 2.25.99 2.25 2.75 0 2.168.431 2.43 4 2.43 3.778 0 4-.167 4-3 0-2.333-.444-3-2-3-1.843 0-2-.667-2-8.5 0-7.576-.199-8.5-1.833-8.5-1.009 0-2.134.3-2.5.667"/><path fill-opacity=".265" fill-rule="evenodd" d="M0 100v100h18v-3c0-2.333-.444-3-2-3-1.619 0-2-.667-2-3.5 0-2.741.402-3.5 1.853-3.5 1.586 0 1.946-1.098 2.496-7.602.354-4.181.393-8.006.088-8.5s.414-.898 1.598-.898c1.276 0 2.355-.776 2.651-1.908.274-1.049 1.357-2.132 2.406-2.406s1.908-1.328 1.907-2.342c0-1.464.772-1.844 3.75-1.844 3.129 0 3.804-.373 4.071-2.25.269-1.897.935-2.25 4.25-2.25 3.263 0 3.93.339 3.93 2 0 1.704.667 2 4.5 2s4.5-.296 4.5-2-.667-2-4.5-2c-4.154 0-4.5-.196-4.5-2.544 0-1.455-.535-2.474-1.25-2.381-4.351.565-6.75-.172-6.75-2.075q0-2-2-2t-2-2-2-2-2-2c0-1.309-.667-2-1.93-2-1.229 0-2.047-.804-2.25-2.209-.176-1.215-1.22-2.452-2.32-2.75-1.516-.41-2-1.388-2-4.041 0-2.868-.406-3.558-2.25-3.82-2.044-.29-2.25-.861-2.25-6.25 0-5.263.225-5.93 2-5.93 1.697 0 2.024-.719 2.158-4.75.086-2.612.136-5.312.111-6s.752-1.25 1.729-1.25c1.337 0 1.941-1.11 2.45-4.5.533-3.554 1.082-4.5 2.613-4.5C26.333 94 27 93.312 27 92q0-2 2-2t2-2 2-2c1.309 0 2-.667 2-1.93 0-1.241.804-2.045 2.25-2.25 1.477-.21 2.25-1.007 2.25-2.32s.773-2.11 2.25-2.32c1.446-.205 2.25-1.009 2.25-2.25 0-1.061.675-1.93 1.5-1.93.833 0 1.5-.889 1.5-2 0-1.843.667-2 8.5-2s8.5.157 8.5 2q0 2 2 2c1.667 0 2 .667 2 4v4h-4c-3.333 0-4-.333-4-2 0-1.797-.667-2-6.57-2-6.24 0-6.553.113-6.25 2.25.257 1.807 1.058 2.311 4.07 2.56 5.069.42 5.069 2.96 0 3.38-2.98.246-3.75.721-3.75 2.31 0 1.638.769 2.056 4.25 2.307 3.988.289 4.25.148 4.25-2.29v-2.598l8.25.291c7.692.27 8.272.442 8.57 2.54.205 1.446 1.009 2.25 2.25 2.25 1.263 0 1.93.691 1.93 2 0 1.897-.667 2-13 2s-13 .103-13 2q0 2-2 2c-1.363 0-2 .667-2 2.094 0 1.252.803 2.303 2 2.616 1.1.288 2 1.188 2 2s.858 1.702 1.908 1.976 2.132 1.357 2.406 2.406c.29 1.111 1.374 1.908 2.592 1.908 2.807 0 2.886-3.98.094-4.71-1.1-.288-2-1.188-2-2s-.9-1.713-2-2c-1.107-.29-2-1.364-2-2.407 0-1.696.842-1.883 8.5-1.883H69v3.883c0 3.043.433 3.997 2 4.407 1.179.308 2 1.364 2 2.571 0 1.832-.71 2.079-6.75 2.343-5.202.228-6.75.64-6.75 1.796s1.548 1.568 6.75 1.796c6.23.273 6.75.138 6.75-1.75 0-1.355.652-2.046 1.93-2.046 1.241 0 2.045-.804 2.25-2.25q.32-2.251 2.07-1.956c1.559.262 1.75-.692 1.75-8.75C81 89.667 80.853 89 79 89q-2 0-2-2t-2-2c-1.778 0-2-.667-2-6s.222-6 2-6q2 0 2-2c0-1.843.667-2 8.5-2s8.5.157 8.5 2q0 2 2 2t2 2c0 1.843-.667 2-8.5 2-7.761 0-8.5.17-8.5 1.95 0 1.642.95 2.058 6 2.63 4.085.462 6 1.116 6 2.049C93 84.566 91.711 85 88.93 85c-3.648 0-4.036.233-3.75 2.25.271 1.905.933 2.25 4.32 2.25s4.049-.345 4.32-2.25c.3-2.115.789-2.25 8.18-2.25s7.88.135 8.18 2.25c.209 1.466 1.124 2.364 2.628 2.577 1.531.217 2.201.891 1.988 2-.276 1.442-2.082 1.712-13.058 1.953C89.826 94.042 89 94.187 89 96.03c0 1.303-.677 1.97-2 1.97-1.363 0-2 .667-2 2.094 0 1.252.803 2.303 2 2.616 1.1.288 2 1.146 2 1.907 0 .76-.9 1.383-2 1.383-1.467 0-2 .667-2 2.5s.533 2.5 2 2.5q2 0 2 2c0 1.843.667 2 8.5 2s8.5.157 8.5 2c0 1.947-.667 2-25 2s-25-.053-25-2c0-1.795-.667-2-6.5-2s-6.5.205-6.5 2q0 2-2 2c-1.795 0-2 .667-2 6.5s.205 6.5 2 6.5q2 0 2 2t2 2c1.293 0 2 .667 2 1.887 0 2.503 1.164 2.613 27.721 2.613h22.221l.625 4.133c.826 5.462.247 7.932-1.78 7.59-1.054-.178-1.756.537-1.964 2-.209 1.473-1.118 2.39-2.573 2.597-3.295.468-3.073 4.18.25 4.18 1.833 0 2.5-.533 2.5-2 0-1.833.667-2 8-2s8 .167 8 2c0 1.467.667 2 2.5 2s2.5.533 2.5 2q0 2 2 2c1.704 0 2 .667 2 4.5s.296 4.5 2 4.5q2 0 2 2c0 1.667.667 2 4 2s4 .333 4 2q0 2-2 2c-1.356 0-2 .667-2 2.07 0 1.574.539 1.993 2.25 1.75 1.238-.176 2.25-.995 2.25-1.82s1.013-1.644 2.25-1.82c1.711-.243 2.25.176 2.25 1.75 0 1.403.644 2.07 2 2.07 1.667 0 2-.667 2-4v-4h4c3.285 0 4-.345 4-1.93 0-1.241.804-2.045 2.25-2.25 1.477-.21 2.25-1.007 2.25-2.32s.773-2.11 2.25-2.32c1.446-.205 2.25-1.009 2.25-2.25 0-1.263.691-1.93 2-1.93 1.893 0 2-.667 2-12.5 0-11.731.12-12.5 1.952-12.5 1.697 0 1.992.819 2.25 6.25l.298 6.25 8.25.29 8.25.291V173h-4.094c-3.186 0-4.204.423-4.592 1.908-.274 1.049-1.357 2.132-2.406 2.406-1.111.29-1.908 1.374-1.908 2.592 0 1.427-.637 2.094-2 2.094q-2 0-2 2t-2 2-2 2c0 1.363-.667 2-2.094 2-1.218 0-2.302.797-2.592 1.908-.274 1.049-1.357 2.132-2.406 2.406S152 195.503 152 196.348c0 .988-1.513 1.876-4.25 2.494-3.009.68 4.072.916 24.25.809l28.5-.151.255-99.75L201.01 0H0zm.481.5c0 55 .121 77.647.269 50.326.148-27.32.148-72.32 0-100C.602 23.147.481 45.5.481 100.5M148 33c0 1.667-.667 2-4 2s-4 .333-4 2 .667 2 4 2 4 .333 4 2c0 1.778-.667 2-6 2-5.401 0-6-.207-6-2.07 0-1.574-.539-1.993-2.25-1.75-1.458.208-2.152.91-1.973 1.997.18 1.091-.518 1.79-2 2-1.935.274-2.277.923-2.277 4.309 0 2.932.443 4.072 1.673 4.309 1.11.213 1.783-.455 2-1.987.444-3.136 4.203-3.183 4.647-.058.238 1.678-.18 2.25-1.643 2.25-1.955 0-3.579 2.264-2.441 3.402.328.329 3.222.598 6.431.598 5.166 0 5.833-.229 5.833-2q0-2-2-2t-2-2c0-1.667.667-2 4-2 3.6 0 4-.25 4-2.5 0-2.296.367-2.5 4.5-2.5h4.5v-4c0-3.333-.333-4-2-4q-2 0-2 2c0 1.467-.667 2-2.5 2s-2.5-.533-2.5-2q0-2 2-2t2-2-2-2-2 2m5 25q0 2 2 2t2 2 2 2c1.667 0 2-.667 2-4v-4h-4c-3.333 0-4 .333-4 2m-4.552 6.5c-.667 4.446-.722 4.5-4.562 4.5-3.219 0-3.886.343-3.886 2 0 1.667.667 2 4 2 3.285 0 4-.345 4-1.93 0-1.241.804-2.045 2.25-2.25 1.238-.176 2.137-.658 2-1.07s-.25-2.325-.25-4.25c0-5.366-2.712-4.603-3.552 1M98 79q0 2 2 2t2-2-2-2-2 2m51 4c0 1.111.667 2 1.5 2s1.5-.889 1.5-2-.667-2-1.5-2-1.5.889-1.5 2m-4.812 4.739c.502 2.606 3.812 2.897 3.812.334 0-1.431-.642-2.073-2.073-2.073s-1.97.539-1.739 1.739M73 100q0 2 2 2t2-2-2-2-2 2m16 0c0 1.363.667 2 2.094 2 1.218 0 2.302.797 2.592 1.908.274 1.049 1.357 2.132 2.406 2.406 1.128.295 1.908 1.374 1.908 2.64 0 1.992.436 2.121 6.25 1.844 5.484-.262 6.25-.543 6.25-2.298 0-1.313-.773-2.11-2.25-2.32-1.897-.269-2.25-.935-2.25-4.25V98h-8.5c-7.833 0-8.5.157-8.5 2m21 0c0 1.467.667 2 2.5 2s2.5-.533 2.5-2-.667-2-2.5-2-2.5.533-2.5 2m-75.71 8c-.288 1.1-1.188 2-2 2s-1.702.858-1.976 1.908-1.357 2.132-2.406 2.406C26.29 114.737 26 115.754 26 121s.29 6.263 1.908 6.686c1.049.274 2.132 1.357 2.406 2.406.29 1.111 1.374 1.908 2.592 1.908 2.807 0 2.886-3.98.094-4.71-1.714-.449-2-1.364-2-6.407 0-5.216.227-5.883 2-5.883q2 0 2-2c0-1.667.667-2 4-2 3.6 0 4-.25 4-2.5 0-2.26-.394-2.5-4.094-2.5-3.252 0-4.201.411-4.616 2m55.71.5c0 .825.675 1.5 1.5 1.5s1.5-.675 1.5-1.5-.675-1.5-1.5-1.5-1.5.675-1.5 1.5m54 0c0 .833.889 1.5 2 1.5s2-.667 2-1.5-.889-1.5-2-1.5-2 .667-2 1.5m-4 8.5c0 1.778.667 2 6 2s6-.222 6-2-.667-2-6-2-6 .222-6 2m0 10.369V132h-6.5c-5.833 0-6.5.205-6.5 2 0 1.467.667 2 2.5 2s2.5.533 2.5 2q0 2 2 2t2 2 2 2c1.778 0 2-.667 2-6s.222-6 2-6c1.833 0 2 .667 2 8s-.167 8-2 8c-1.897 0-2 .667-2 13v13h-4.607c-3.79 0-4.499.28-4 1.582.334.87.607 1.77.607 2s1.8.418 4 .418c3.272 0 4-.348 4-1.912 0-1.452.964-2.075 4-2.588s4-1.136 4-2.588c0-1.203.695-1.912 1.875-1.912 2.296 0 3.125-3.48 3.125-13.125 0-6.667-.076-6.875-2.5-6.875-2.481 0-2.5-.067-2.5-9s.019-9 2.5-9c2.19 0 2.5-.433 2.5-3.5 0-3.149-.276-3.501-2.75-3.511-1.512-.006-4.437-.29-6.5-.631l-3.75-.62zm-88.62 18.083c-.695 1.812.314 3.548 2.062 3.548.729 0 1.56.9 1.848 2 .488 1.866 1.364 2 13.116 2H81v-5H70.5c-9.833 0-10.5-.127-10.5-2 0-1.669-.667-2-4.031-2-2.602 0-4.229.515-4.589 1.452m93.047 11.879c-.313.813-.424 2.984-.247 4.824.246 2.572.782 3.345 2.32 3.345 1.703 0 2-.667 2-4.486 0-3.481-.393-4.562-1.753-4.824-.964-.186-2.008.328-2.32 1.141M190 161c0 3.333.333 4 2 4s2-.667 2-4-.333-4-2-4-2 .667-2 4m-96.299 16.632c-.385.386-.701 2.468-.701 4.628 0 3.023.439 4.042 1.908 4.426 1.049.274 2.132 1.357 2.406 2.406.29 1.111 1.374 1.908 2.592 1.908 1.815 0 2.094.6 2.094 4.5v4.5h10.5c6.333 0 10.5-.397 10.5-1 0-.55-1.8-1-4-1-3.333 0-4-.333-4-2q0-2-2-2t-2-2c0-1.657-.667-2-3.883-2-3.043 0-3.997-.433-4.407-2-.307-1.174-1.364-2-2.559-2-1.68 0-2.09-.742-2.344-4.241-.293-4.05-2.233-6-4.106-4.127M30 186.5c0 7.833.157 8.5 2 8.5 1.467 0 2 .667 2 2.5 0 2 .5 2.5 2.5 2.5 2.024 0 2.5-.494 2.5-2.594 0-1.752-.649-2.763-2-3.116-1.787-.467-2-1.364-2-8.407 0-7.742-.045-7.883-2.5-7.883-2.471 0-2.5.1-2.5 8.5"/><path fill-opacity=".977" fill-rule="evenodd" d="M140 29c0 1.667-.667 2-4 2s-4 .333-4 2c0 1.704-.667 2-4.5 2s-4.5.296-4.5 2q0 2-2 2c-1.795 0-2 .667-2 6.5s.205 6.5 2 6.5q2 0 2 2t2 2 2 2c0 1.843.667 2 8.5 2 8.4 0 8.5.029 8.5 2.5 0 2.25-.4 2.5-4 2.5-3.412 0-4 .313-4 2.125 0 1.847.409 2.043 3.125 1.5 1.719-.344 3.519-.625 4-.625s.875-.675.875-1.5c0-.833.889-1.5 2-1.5 1.467 0 2-.667 2-2.5s-.533-2.5-2-2.5q-2 0-2-2c0-1.832-.667-2-7.93-2-7.463 0-7.95-.133-8.25-2.25-.206-1.446-1.124-2.364-2.57-2.57-2.044-.29-2.25-.861-2.25-6.25V39h4.5c3.833 0 4.5-.296 4.5-2 0-1.667.667-2 4-2s4-.333 4-2c0-1.778.667-2 6-2s6-.222 6-2-.667-2-6-2-6 .222-6 2m13 4c0 1.667.667 2 4 2s4 .333 4 2 .667 2 4 2c3.992 0 4 .008 4 3.952v3.953l-6.209.297c-5.222.251-6.294.616-6.75 2.298-.297 1.1-1.216 2-2.041 2s-1.644 1.013-1.82 2.25c-.291 2.052.084 2.25 4.25 2.25 3.903 0 4.57.292 4.57 2 0 1.667.667 2 4 2s4 .333 4 2-.667 2-4 2c-3.294 0-4 .343-4 1.943 0 1.57-.814 2.001-4.25 2.25-3.533.255-4.304.687-4.57 2.557-.291 2.052.084 2.25 4.25 2.25 3.903 0 4.57-.292 4.57-2 0-1.667.667-2 4-2 3.6 0 4-.25 4-2.5 0-2.019.495-2.5 2.573-2.5 3.283 0 2.991-3.345-.333-3.82-1.436-.204-2.24-1.012-2.24-2.25 0-1.585-.715-1.93-4-1.93-3.333 0-4-.333-4-2s.667-2 4-2c3.285 0 4-.345 4-1.93 0-1.241.804-2.045 2.25-2.25 1.905-.271 2.25-.933 2.25-4.32s-.345-4.049-2.25-4.32c-1.446-.205-2.25-1.009-2.25-2.25 0-1.263-.691-1.93-2-1.93q-2 0-2-2c0-1.778-.667-2-6-2s-6 .222-6 2M47 66.5c0 1.216 1.611 1.5 8.5 1.5s8.5-.284 8.5-1.5-1.611-1.5-8.5-1.5-8.5.284-8.5 1.5m30 0c0 1.216 1.611 1.5 8.5 1.5s8.5-.284 8.5-1.5-1.611-1.5-8.5-1.5-8.5.284-8.5 1.5m-33.812 4.239c.502 2.606 3.812 2.897 3.812.334C47 69.642 46.358 69 44.927 69s-1.97.539-1.739 1.739M65 70.5c0 .825.675 1.5 1.5 1.5s1.5-.675 1.5-1.5-.675-1.5-1.5-1.5-1.5.675-1.5 1.5m8 .573c0 2.563 3.31 2.272 3.812-.334.231-1.2-.308-1.739-1.739-1.739S73 69.642 73 71.073m21-.573c0 .833.889 1.5 2 1.5s2-.667 2-1.5-.889-1.5-2-1.5-2 .667-2 1.5m37.676-.098c-.674 1.757.131 2.598 2.491 2.598 1.166 0 1.833-.727 1.833-2 0-2.329-3.475-2.81-4.324-.598m5.012 2.244C135.178 74.155 136.036 77 138 77q2 0 2 2t2 2 2 2 2 2c1.309 0 2-.667 2-1.93 0-1.213.803-2.05 2.159-2.25 1.693-.251 2.178-1.039 2.25-3.655.095-3.478-1.571-5.801-3.365-4.692-.574.355-1.044 2.418-1.044 4.586 0 3.274-.338 3.941-2 3.941q-2 0-2-2c0-1.309-.667-2-1.93-2-1.217 0-2.049-.803-2.25-2.172-.332-2.255-1.94-3.375-3.132-2.182M39 75q0 2-2 2t-2 2 2 2 2-2 2-2 2-2-2-2-2 2m30 2v4h-4.5c-3.833 0-4.5-.296-4.5-2 0-1.778-.667-2-6-2s-6 .222-6 2c0 1.667.667 2 4 2s4 .333 4 2c0 1.832.667 2 7.939 2h7.938l.673-4.488c.778-5.183.152-7.512-2.019-7.512C69.411 73 69 74.075 69 77m29-2q0 2 2 2t2-2-2-2-2 2m-17 4c0 1.795.667 2 6.5 2s6.5.205 6.5 2c0 1.833.667 2 8 2s8-.167 8-2q0-2-2-2c-1.357 0-2-.667-2-2.073 0-2.865-3.398-2.123-3.82.833-.451 3.168-3.957 2.976-4.769-.26-.603-2.402-.936-2.5-8.519-2.5-7.225 0-7.892.169-7.892 2m-50 3.927c0 1.431.642 2.073 2.073 2.073s1.97-.539 1.739-1.739C34.31 80.655 31 80.364 31 82.927m122 0c0 1.431.642 2.073 2.073 2.073s1.97-.539 1.739-1.739c-.502-2.606-3.812-2.897-3.812-.334M48 87.224c0 1.352.809 1.776 3.393 1.776 5.09 0 5.547-2.7.538-3.178-3.24-.309-3.931-.063-3.931 1.402m-21.667.276c0 .899.923 1.5 2.302 1.5 1.636 0 2.136-.434 1.727-1.5-.317-.825-1.353-1.5-2.302-1.5s-1.727.675-1.727 1.5M73 87.5c0 .833.889 1.5 2 1.5s2-.667 2-1.5-.889-1.5-2-1.5-2 .667-2 1.5m13 0c0 1.048 1.056 1.5 3.5 1.5s3.5-.452 3.5-1.5-1.056-1.5-3.5-1.5-3.5.452-3.5 1.5m25 0c0 .833.889 1.5 2 1.5s2-.667 2-1.5-.889-1.5-2-1.5-2 .667-2 1.5m29 2.5c0 3.333.333 4 2 4q2 0 2 2t2 2c1.292 0 2-.667 2-1.883 0-1.043-.893-2.117-2-2.407-1.532-.4-2-1.364-2-4.116 0-2.927-.371-3.594-2-3.594-1.667 0-2 .667-2 4m8.22.075c-.256 3.731-.089 4.045 2 3.748 1.254-.177 2.167-.661 2.03-1.073S152 90.65 152 89c0-2.191-.472-3-1.75-2.999-1.334.002-1.816.97-2.03 4.074M22.188 91.739c.502 2.606 3.812 2.897 3.812.334C26 90.642 25.358 90 23.927 90s-1.97.539-1.739 1.739M77 92c0 1.893-.667 2-12.5 2S52 94.107 52 96c0 1.843.667 2 8.5 2H69v4c0 3.333.333 4 2 4q2 0 2 2t2 2 2-2 2-2c1.833 0 2-.667 2-8s-.167-8-2-8q-2 0-2 2m38 0c0 1.893-.667 2-12.5 2S90 94.107 90 96c0 1.843.667 2 8.5 2h8.5v4c0 3.333.333 4 2 4 1.467 0 2 .667 2 2.5 0 2.414-.227 2.5-6.594 2.5-5.752 0-6.66-.255-7.116-2-.288-1.1-1.093-2-1.79-2s-1.502.9-1.79 2c-.287 1.1-1.24 2-2.116 2s-1.594.787-1.595 1.75c-.001 1.525 1.058 1.75 8.25 1.75 7.795 0 8.269.124 8.571 2.25l.319 2.25H81.57c-24.903 0-25.57-.052-25.57-2 0-1.773-.667-2-5.883-2-5.043 0-5.958.286-6.407 2-.313 1.197-1.364 2-2.616 2-1.893 0-2.094.577-2.094 6 0 5.261.238 6 1.93 6 1.241 0 2.045.804 2.25 2.25s1.124 2.364 2.57 2.57 2.25 1.009 2.25 2.25c0 1.855.967 1.93 25 1.93h25v6.5c0 5.833-.205 6.5-2 6.5-1.111 0-2 .667-2 1.5 0 1.208 1.556 1.5 8 1.5s8-.292 8-1.5c0-1.083-1.111-1.5-4-1.5h-4v-6.5c0-5.833.205-6.5 2-6.5q2 0 2-2t2-2c1.309 0 2-.667 2-1.93 0-1.241.804-2.045 2.25-2.25 2.048-.291 2.25-.859 2.25-6.32s-.202-6.029-2.25-6.32c-1.413-.2-2.25-1.012-2.25-2.18s.837-1.98 2.25-2.18c1.87-.266 2.302-1.037 2.557-4.57.249-3.436.68-4.25 2.25-4.25 1.762 0 1.943-.746 1.943-8 0-7.333-.167-8-2-8q-2 0-2 2m-97 6c0 3.333.333 4 2 4s2-.667 2-4-.333-4-2-4-2 .667-2 4m30 2c0 1.111.667 2 1.5 2s1.5-.889 1.5-2-.667-2-1.5-2-1.5.889-1.5 2m24.18.25c.206 1.446 1.124 2.364 2.57 2.57 1.832.26 2.25-.158 2.25-2.25S76.523 98 74.43 98s-2.51.418-2.25 2.25M86 100c0 1.111.667 2 1.5 2s1.5-.889 1.5-2-.667-2-1.5-2-1.5.889-1.5 2m24.18.25c.21 1.477 1.007 2.25 2.32 2.25s2.11-.773 2.32-2.25c.262-1.846-.155-2.25-2.32-2.25s-2.582.404-2.32 2.25M14 108.427c0 5.906-.203 6.573-2 6.573-1.778 0-2 .667-2 6s.222 6 2 6c1.773 0 2-.667 2-5.883 0-5.093.276-5.956 2.052-6.42 1.821-.476 2.018-1.195 1.75-6.357-.239-4.604-.668-5.89-2.052-6.154-1.523-.289-1.75.52-1.75 6.241m126-1.927c0 3.802-.304 4.5-1.96 4.5-1.764 0-1.988.822-2.25 8.25l-.29 8.25-6.25.298-6.25.297v3.953c0 3.285.337 3.952 2 3.952q2 0 2 2t2 2 2-2-2-2c-1.467 0-2-.667-2-2.5 0-2.41.233-2.5 6.5-2.5h6.5v-8.081l8.25.291 8.25.29.27 20.75c.26 19.921.35 20.75 2.25 20.75 1.868 0 1.98-.709 1.98-12.5 0-11.833.107-12.5 2-12.5 1.778 0 2 .667 2 6v6h8.5c6.889 0 8.5-.284 8.5-1.5 0-.825-.874-1.5-1.943-1.5-1.57 0-2.001-.814-2.25-4.25-.251-3.481-.669-4.25-2.307-4.25-1.589 0-2.064.77-2.31 3.75-.244 2.938-.731 3.75-2.25 3.75-1.591 0-1.94-.707-1.94-3.93 0-3.315.353-3.981 2.25-4.25 1.238-.176 2.25-.995 2.25-1.82s-1.012-1.644-2.25-1.82c-1.446-.205-2.25-1.009-2.25-2.25 0-1.585-.715-1.93-4-1.93h-4v-6.5c0-5.833-.205-6.5-2-6.5-1.667 0-2-.667-2-4 0-3.393-.318-4-2.094-4-1.252 0-2.303-.803-2.616-2-.663-2.533-4.507-2.769-4.084-.25q.296 1.75-1.956 2.07c-1.832.26-2.25-.158-2.25-2.25 0-1.903.519-2.57 2-2.57q2 0 2-2c0-1.667-.667-2-4-2h-4zm-88-2c0 .825.675 1.5 1.5 1.5s1.5-.675 1.5-1.5-.675-1.5-1.5-1.5-1.5.675-1.5 1.5m38 0c0 .825.675 1.5 1.5 1.5s1.5-.675 1.5-1.5-.675-1.5-1.5-1.5-1.5.675-1.5 1.5m-55 4c0 1.083 1.111 1.5 4 1.5s4-.417 4-1.5-1.111-1.5-4-1.5-4 .417-4 1.5m21 0c0 .833.889 1.5 2 1.5s2-.667 2-1.5-.889-1.5-2-1.5-2 .667-2 1.5m30 0c0 .825.675 1.5 1.5 1.5s1.5-.675 1.5-1.5-.675-1.5-1.5-1.5-1.5.675-1.5 1.5m-55 4c0 .825.675 1.5 1.5 1.5s1.5-.675 1.5-1.5-.675-1.5-1.5-1.5-1.5.675-1.5 1.5m29.177.116c.248 1.243 1.649 1.647 6.074 1.75 4.861.113 5.75-.137 5.75-1.616-.001-1.474-.957-1.75-6.074-1.75-5.059 0-6.02.27-5.75 1.616M140 116.375c0 2.564.151 2.625 6.5 2.625 5.833 0 6.5-.205 6.5-2 0-1.605-.667-2-3.375-2-1.856 0-4.781-.281-6.5-.625-2.865-.573-3.125-.407-3.125 2M27 121c0 4.667.333 6 1.5 6s1.5-1.333 1.5-6-.333-6-1.5-6-1.5 1.333-1.5 6m21 0q0 2 2 2t2 2c0 1.951.667 2 27.094 2 26.252 0 27.109.062 27.616 2 .902 3.447 3.29 2.37 3.29-1.484v-3.484l-27.25-.266-27.25-.266-.32-2.25c-.26-1.834-.953-2.25-3.75-2.25-2.763 0-3.43.389-3.43 2m-4 6.5c0 2.536.439 3.5 1.594 3.5.876 0 1.822.875 2.102 1.944.665 2.545 1.63 2.613 32.554 2.274 21.841-.24 25.75-.506 25.75-1.75 0-1.254-3.943-1.468-27.094-1.468-26.252 0-27.109-.062-27.616-2-.29-1.107-1.364-2-2.407-2-1.216 0-1.883-.708-1.883-2 0-1.111-.667-2-1.5-2-1.048 0-1.5 1.056-1.5 3.5M14 132c0 3.333.333 4 2 4q2 0 2 2t2 2 2 2 2 2 2-2-2-2-2-2-2-2c-1.667 0-2-.667-2-4s-.333-4-2-4-2 .667-2 4m17-2.5c0 .833.889 1.5 2 1.5s2-.667 2-1.5-.889-1.5-2-1.5-2 .667-2 1.5m109 9c0 5.799-.212 6.5-1.969 6.5-1.836 0-1.988.825-2.25 12.206-.259 11.234-.44 12.25-2.281 12.75-3.976 1.081-2.687 3.044 2 3.044h4.5v-12.5c0-11.833.107-12.5 2-12.5 1.833 0 2-.667 2-8s-.167-8-2-8c-1.795 0-2 .667-2 6.5m8 1.5c0 7.867.042 8 2.5 8s2.5-.133 2.5-8-.042-8-2.5-8-2.5.133-2.5 8m17-2q0 2 2 2t2-2-2-2-2 2m-33.5 3c-.837 1.354.292 3 2.059 3 .793 0 1.441-.9 1.441-2 0-2.07-2.413-2.76-3.5-1m-104.79 5c-.38 1.453-.03 2 1.277 2 1.825 0 3.371-2.309 2.277-3.402-1.239-1.24-3.05-.525-3.554 1.402m25.29-.06c0 1.393.647 2.06 2 2.06q2 0 2 2c0 1.893.667 2 12.5 2 10.444 0 12.5-.247 12.5-1.5 0-1.237-1.826-1.5-10.43-1.5-10.056 0-10.442-.081-10.75-2.25-.257-1.807-1.058-2.311-4.07-2.56-3.22-.267-3.75-.02-3.75 1.75m-21 5.133c0 2.563 3.31 2.272 3.812-.334.231-1.2-.308-1.739-1.739-1.739S31 149.642 31 151.073M35 155c0 1.667-.667 2-4 2s-4 .333-4 2 .667 2 4 2c3.292 0 4-.343 4-1.94 0-1.518.812-2.007 3.742-2.25 2.615-.217 3.841-.837 4.073-2.06.272-1.435-.403-1.75-3.742-1.75-3.406 0-4.073.327-4.073 2m147 8.5V174h-4c-3.333 0-4 .333-4 2 0 1.467-.667 2-2.5 2-1.782 0-2.5.541-2.5 1.883 0 1.043-.893 2.117-2 2.407-1.1.287-2 1.24-2 2.116 0 .927-.837 1.594-2 1.594q-2 0-2 2t2 2 2-2 2-2 2-2c0-1.363.667-2 2.094-2 1.252 0 2.303-.803 2.616-2 .41-1.567 1.364-2 4.407-2 3.216 0 3.883-.343 3.883-2 0-1.309.667-2 1.93-2 1.241 0 2.045-.804 2.25-2.25.267-1.877 1.036-2.302 4.632-2.561 3.416-.246 4.245-.661 3.991-2-.229-1.207-1.531-1.777-4.562-1.996-4.208-.306-4.241-.339-4.241-4.193s.033-3.887 4.241-4.193c3.094-.224 4.332-.78 4.574-2.057.289-1.523-.522-1.75-6.242-1.75H182zM44 159c0 1.619.667 2 3.5 2s3.5-.381 3.5-2-.667-2-3.5-2-3.5.381-3.5 2m46 0c0 1.111.667 2 1.5 2s1.5-.889 1.5-2-.667-2-1.5-2-1.5.889-1.5 2m21 0q0 2 2 2t2 2 2 2 2-2-2-2-2-2-2-2-2 2m33 2c0 3.333.333 4 2 4s2-.667 2-4-.333-4-2-4-2 .667-2 4m51 0c0 3.333.333 4 2 4s2-.667 2-4-.333-4-2-4-2 .667-2 4m-172.686 1.908c-.274 1.049-1.357 2.132-2.406 2.406-2.555.668-2.479 3.686.092 3.686q2 0 2-2t2-2 2-2c0-2.571-3.018-2.647-3.686-.092m97.353 2.759c-.367.366-.667 2.166-.667 4 0 2.666.4 3.333 2 3.333 1.667 0 2-.667 2-4 0-3.771-1.448-5.219-3.333-3.333M153 167c0 1.111.667 2 1.5 2s1.5-.889 1.5-2-.667-2-1.5-2-1.5.889-1.5 2m-139 9c0 5.333-.222 6-2 6-1.795 0-2 .667-2 6.5s.205 6.5 2 6.5c1.467 0 2 .667 2 2.5s.533 2.5 2 2.5 2-.667 2-2.5-.533-2.5-2-2.5c-1.704 0-2-.667-2-4.5s.296-4.5 2-4.5c1.833 0 2-.667 2-8s-.167-8-2-8c-1.778 0-2 .667-2 6m134-4.5c0 .833.889 1.5 2 1.5s2-.667 2-1.5-.889-1.5-2-1.5-2 .667-2 1.5m-25 4c0 .92.935 1.5 2.418 1.5 1.33 0 3.13.273 4 .607 1.134.435 1.582.01 1.582-1.5 0-1.791-.599-2.107-4-2.107-2.889 0-4 .417-4 1.5m17-.125c0 .756 1.406 1.656 3.125 2 4.561.912 4.875.824 4.875-1.375 0-1.667-.667-2-4-2-2.727 0-4 .438-4 1.375M31 185.927c0 6.463.295 8.073 1.481 8.073 1.938 0 2.71-3.33 2.328-10.044-.241-4.235-.696-5.511-2.059-5.77-1.55-.295-1.75.592-1.75 7.741M94 182c0 3.333.333 4 2 4q2 0 2 2t2 2 2-2-2-2c-1.667 0-2-.667-2-4s-.333-4-2-4-2 .667-2 4m38-2q0 2 2 2t2 2 2 2c1.667 0 2-.667 2-4v-4h-4c-3.333 0-4 .333-4 2m-4 4c0 1.111.667 2 1.5 2s1.5-.889 1.5-2-.667-2-1.5-2-1.5.889-1.5 2m-26 11.5c0 3.833.296 4.5 2 4.5 1.467 0 2-.667 2-2.5 0-3.164 3.505-3.5 4.312-.413.657 2.511 3.999 2.252 4.5-.348.248-1.288-.333-1.739-2.239-1.739s-2.573-.518-2.573-2c0-1.667-.667-2-4-2h-4zm55-2.5q0 2-2 2t-2 2 2 2 2-2 2-2 2-2-2-2-2 2m-122 4.5c0 1.833.533 2.5 2 2.5s2-.667 2-2.5-.533-2.5-2-2.5-2 .667-2 2.5m81.75 2.206c1.237.238 3.263.238 4.5 0 1.237-.239.225-.434-2.25-.434s-3.487.195-2.25.434m29 0c1.238.238 3.262.238 4.5 0 1.238-.239.225-.434-2.25-.434s-3.488.195-2.25.434"/></svg>