<svg xmlns="http://www.w3.org/2000/svg" width="200" height="200" fill="#000000"><path fill-opacity=".031" fill-rule="evenodd" d="M69 13.991c-3.025.408-7.3 1.546-9.5 2.528-9.068 4.048-13.02 6.048-14.296 7.231C44.463 24.438 43.471 25 43 25s-2.971 2.025-5.554 4.5-4.983 4.5-5.334 4.5c-1.2 0-11.188 13.302-14.643 19.5-2.615 4.693-3.337 6.286-5.208 11.5C5.708 83.253 4.147 101.853 8 115.757c1.1 3.97 2.015 8.011 2.034 8.98S10.937 128.3 12 130.5s1.957 4.675 1.988 5.5.936 2.625 2.012 4 1.966 2.815 1.978 3.2 1.485 2.787 3.272 5.338c1.788 2.551 3.7 5.386 4.25 6.3C27.166 157.607 35.746 166 36.911 166c.599 0 1.089.363 1.089.807 0 1.103 7.509 6.24 13 8.894 9.631 4.654 12.629 5.575 22.394 6.883 11.392 1.525 59.158 1.949 60.033.534.3-.486-.348-2.019-1.441-3.408S130 176.65 130 175.997c0-.654-.787-2.385-1.75-3.847-3.796-5.767-4.374-6.78-5.936-10.4-.889-2.062-1.963-3.75-2.386-3.75s-1.064-1.345-1.425-2.989-1.076-3.247-1.587-3.563c-.512-.316-1.742-2.234-2.734-4.262-2.679-5.477-4.561-8.597-5.682-9.421-.55-.404-7.337-.741-15.082-.75-18.798-.02-24.928-1.83-33.431-9.871-3.293-3.115-5.987-6.253-5.987-6.975s-.674-1.986-1.498-2.81c-.825-.825-1.74-2.705-2.035-4.179s-.971-4.062-1.502-5.751c-1.243-3.957-1.243-14.901 0-18.858.531-1.689 1.207-4.277 1.502-5.751s1.21-3.354 2.035-4.179c.824-.824 1.498-1.966 1.498-2.538 0-1.134 8.182-9.546 12.016-12.353 1.315-.963 3.334-1.75 4.487-1.75s2.659-.562 3.345-1.25c.923-.924 9.385-1.38 32.45-1.75l31.202-.5v-45l-31.5-.126c-17.325-.069-33.975.209-37 .617m33.667 73.676c-1.316 1.315-.586 5.88 1.333 8.333 1.076 1.375 1.966 3.25 1.978 4.167s.422 1.816.91 2c.896.336 1.545 1.507 8.38 15.116 2.073 4.126 4.435 8.056 5.25 8.732s1.482 1.893 1.482 2.703.821 2.668 1.825 4.128 2.409 4.117 3.122 5.904c.712 1.787 1.691 3.25 2.174 3.25.484 0 .879.873.879 1.941s.464 2.228 1.032 2.579 2.628 3.865 4.579 7.809 4.854 9.196 6.452 11.671c2.633 4.08 3.301 5.337 4.512 8.5 1.742 4.55 5.356 8.992 7.265 8.929 1.188-.04 10.019-.152 19.625-.25 15.843-.162 17.556-.35 18.452-2.023.729-1.363.424-2.994-1.168-6.25-1.185-2.423-2.514-4.556-2.952-4.739-.438-.184-.797-.823-.797-1.421 0-1.565-6.147-14-7.695-15.567-.718-.727-1.305-2.163-1.305-3.191s-.45-2.148-1-2.488c-.549-.34-2.819-4.304-5.043-8.809-4.966-10.058-9.757-19.524-11.231-22.191-.608-1.1-1.916-3.659-2.908-5.686s-2.257-3.967-2.811-4.309-1.017-1.384-1.029-2.314-.902-2.816-1.978-4.191-1.966-3.072-1.978-3.771c-.012-.7-1.207-3.062-2.655-5.25L144.734 87h-20.7c-11.385 0-21.001.3-21.367.667"/><path fill-opacity=".093" fill-rule="evenodd" d="M71.928 13.98C54.51 16.225 34.193 29.266 23.5 45.067c-1.65 2.438-3.45 4.916-4 5.507-.994 1.067-4.089 7.814-7.535 16.426-5.27 13.17-6.762 33.84-3.535 49 2.269 10.661 8.864 27.92 11.464 30 .343.275 1.909 2.525 3.48 5s5.78 7.34 9.356 10.81c9.155 8.887 15.161 12.572 29.27 17.96 6.316 2.412 7.413 2.496 38.75 2.967 17.738.266 32.25.278 32.25.025 0-.64-6.51-12.942-10.986-20.762-4.224-7.378-9.637-17.175-11.741-21.25l-1.419-2.75-12.177-.006c-14.546-.007-21.685-1.051-28.273-4.135C63.695 131.655 54 122.779 54 120.673c0-.559-.623-1.726-1.383-2.594-2.335-2.665-4.928-13.23-4.928-20.079s2.593-17.414 4.928-20.079c.76-.868 1.383-1.934 1.383-2.368 0-1.319 6.119-7.89 9.921-10.655 7.023-5.106 8.559-5.323 41.579-5.878l31-.52.269-22.75.269-22.75-29.769.131c-16.373.072-32.276.454-35.341.849m31.822 74.1c-.963.561-1.75 1.632-1.75 2.38 0 1.168 6.106 13 9.052 17.54.535.825 1.847 3.3 2.915 5.5 1.067 2.2 3.681 7.15 5.808 11 3.672 6.648 4.675 8.514 7.393 13.75 2.288 4.408 7.246 13.402 12.996 23.575 3.21 5.679 5.846 10.629 5.858 11s.902 1.8 1.978 3.175 1.966 3.239 1.978 4.143.734 1.916 1.604 2.25c2.062.791 36.774.791 38.836 0 2.578-.989 1.892-3.479-4.265-15.488-3.216-6.273-9.436-18.38-13.824-26.905-8.617-16.743-9.5-18.466-11.017-21.5-.55-1.1-1.59-3.125-2.312-4.5s-1.778-3.4-2.348-4.5c-8.76-16.909-11.088-21.115-12.033-21.735-1.736-1.139-38.863-.853-40.869.315"/><path fill-opacity=".166" fill-rule="evenodd" d="M64 16.12c-13.032 4.078-23.704 10.698-32.677 20.269-9.276 9.896-11.742 13.815-18.729 29.771C9.88 72.359 7 88.75 7 98c0 15.378 5.672 36.344 12.591 46.539 1.325 1.952 2.409 3.785 2.409 4.073 0 1.086 9.393 12.015 12.872 14.977 9.216 7.846 18.44 12.971 29.399 16.333 6.225 1.91 9.231 2.078 37.25 2.078 16.763 0 30.479-.298 30.479-.663 0-.582-6.752-12.939-14.391-26.337-1.411-2.475-4.013-7.284-5.782-10.687l-3.215-6.186-16.556-.314c-13.364-.253-17.212-.65-19.96-2.063-1.872-.963-3.897-1.753-4.5-1.756-2.058-.013-10.581-8.132-13.979-13.318C49.946 115.072 47 104.977 47 98c0-6.966 2.944-17.069 6.601-22.651 2.957-4.514 5.113-6.721 11.399-11.668.825-.65 4.425-2.198 8-3.441 6.168-2.145 7.967-2.26 35.25-2.25L137 58V14l-33.25.043c-30.568.04-33.774.207-39.75 2.077m39.04 73.332c-1.002 1.208-.857 2.116.762 4.77 2.592 4.249 9.169 16.426 20.673 38.278 4.449 8.452 12.084 22.281 17.943 32.5 1.42 2.475 3.978 7.313 5.686 10.75l3.105 6.25h19.927c16.112 0 20.029-.267 20.461-1.393.426-1.11-8.683-20.16-16.548-34.607-1.376-2.528-2.664-5.055-4.205-8.25a130 130 0 0 0-2.049-4c-.662-1.238-4.445-8.55-8.407-16.25s-8.982-17.375-11.158-21.5l-3.956-7.5-20.498-.27c-17.181-.226-20.698-.028-21.736 1.222"/><path fill-opacity=".112" fill-rule="evenodd" d="M65 16.469c-8.255 2.495-20.816 8.26-23 10.557-.275.289-2.479 2.067-4.898 3.951-6.227 4.85-15.56 16.967-19.54 25.37-7.16 15.114-7.439 16.083-9.77 33.908-.862 6.594-.86 10.668.009 16.5 2.594 17.411 2.511 17.12 9.033 31.707 4.545 10.164 14.469 22.461 23.838 29.538 5.448 4.115 13.364 8.06 22.328 11.129 6.056 2.073 8.633 2.252 37.69 2.612l31.19.387-1.97-3.814c-2.087-4.038-7.084-13.251-13.461-24.814-2.123-3.85-4.815-8.8-5.983-11l-2.122-4-16.922-.5c-15.588-.461-17.355-.705-22.422-3.102-9.855-4.663-17.035-13.371-20.529-24.898-2.501-8.247-2.501-15.753 0-24C51.996 74.372 58.837 66.217 69.3 61.171L75.874 58H136V14l-31.75.101c-29.961.096-32.173.23-39.25 2.368m38 73.915c0 .783 1.48 4.055 3.289 7.27s3.888 7.309 4.621 9.096 1.728 3.25 2.211 3.25c.484 0 .879.81.879 1.8s.438 2.238.974 2.774 2.723 4.339 4.86 8.45c4.944 9.513 9.868 18.634 12.132 22.476.972 1.65 3.102 5.475 4.733 8.5s3.458 6.4 4.06 7.5 1.343 2.675 1.647 3.5c.303.825 1.695 3.3 3.093 5.5s3.275 5.688 4.173 7.75l1.631 3.75h19.29c11.477 0 19.533-.396 19.893-.977.853-1.38-1.249-8.644-3.012-10.407-.811-.81-1.474-2.09-1.474-2.845 0-.754-.422-1.799-.938-2.321s-4.566-8.038-9-16.7c-16.278-31.802-23.833-46.4-27.299-52.75l-3.547-6.5-21.108-.27c-17.72-.226-21.108-.041-21.108 1.154m30 29.557c0 .518.45 1.219 1 1.559s1-.084 1-.941-.45-1.559-1-1.559-1 .423-1 .941"/></svg>