<svg xmlns="http://www.w3.org/2000/svg" width="64" height="64" fill="#000000"><path fill="#1f1f1f" d="M32 64c17.673 0 32-14.327 32-32C64 14.327 49.673 0 32 0 14.327 0 0 14.327 0 32c0 17.673 14.327 32 32 32Z"/><path fill="#969696" d="M41.928 23.795v-5.458c0-.879-.974-1.405-1.709-.926a821.38 821.38 0 0 0-5.192 3.437l6.3 4.062a1.33 1.33 0 0 0 .601-1.115Z"/><path fill="#545454" d="m29.883 43.202 10.34 6.67a1.106 1.106 0 0 0 1.705-.93v-5.417c0-.368-.184-.713-.49-.919l-5.33-3.566a2733.95 2733.95 0 0 1-6.225 4.162Z"/><path fill="#8f8f8f" d="m28.055 33.651 6.887-4.534-6.139-4.107c-4.47 2.996-8.952 6.012-11.397 7.657a1.5 1.5 0 0 0 .025 2.505l6.153 3.968 6.386-4.206-1.915-1.283Z"/><path fill="#545454" d="M22.984 15.107v5.42c0 .368.184.713.491.919l5.33 3.564c2.154-1.443 4.304-2.883 6.225-4.162l-10.343-6.67a1.104 1.104 0 0 0-1.703.93Z"/><path fill="#969696" d="M22.984 39.537v6.178c0 .88.975 1.406 1.71.927 1.245-.814 3.076-2.03 5.191-3.438l-5.695-3.673a1.101 1.101 0 0 0-1.206.006Z"/><path fill="#7a7a7a" d="m36.858 30.398-6.887 4.535 6.136 4.105c4.47-2.996 8.953-6.012 11.398-7.658a1.5 1.5 0 0 0-.026-2.505l-6.152-3.968-6.386 4.21 1.917 1.281Z"/><path fill="#4c4c4c" d="m29.972 34.935-6.386 4.206 6.299 4.06c1.919-1.278 4.071-2.718 6.226-4.162l-6.139-4.104ZM41.327 24.909l-6.299-4.061c-1.92 1.279-4.07 2.718-6.225 4.162l6.136 4.105 6.388-4.206Z"/></svg>