<svg xmlns="http://www.w3.org/2000/svg" width="24" height="24" fill="#000000"><g clip-path="url(#a)"><circle cx="12" cy="12" r="12" fill="url(#b)"/><path fill="url(#c)" fill-rule="evenodd" d="M12 20.717a8.718 8.718 0 1 0 0-17.436 8.718 8.718 0 0 0 0 17.436m0 1.026c5.382 0 9.744-4.362 9.744-9.744 0-5.38-4.362-9.743-9.744-9.743-5.38 0-9.743 4.362-9.743 9.743 0 5.382 4.362 9.744 9.743 9.744" clip-rule="evenodd"/><path fill="url(#d)" fill-rule="evenodd" d="M11.37 7.37c2.334-.149 3.9 1.082 4.38 1.652l.005.006.006.006c.128.128.259.294.354.474.095.18.148.363.138.53a.645.645 0 0 1-.014.103 4.096 4.096 0 0 0-.038.115.732.732 0 0 1-.198.254c-.158.135-.409.264-.793.362a4.342 4.342 0 0 0-.31-.42.634.634 0 0 0 .178-.1.45.45 0 0 0 .16-.417.962.962 0 0 0-.172-.405 2.682 2.682 0 0 0-.325-.383l-.002-.002-.003-.003-.13.14.13-.14-.001-.001-.003-.003-.01-.008a2.945 2.945 0 0 0-.165-.133c-.112-.085-.28-.2-.498-.322a5.533 5.533 0 0 0-1.91-.634c-.41-.059-.718-.056-.939.002-.229.06-.39.189-.442.386-.048.178.006.362.075.509.039.084.088.166.14.243-.27.077-.53.184-.774.318a2.628 2.628 0 0 1-.275-.514c-.098-.248-.145-.498-.114-.72a.802.802 0 0 1 .359-.57c.233-.161.608-.289 1.19-.326M9.882 9.7a3 3 0 0 1-.305-.575c-.112-.284-.18-.603-.137-.912.044-.316.202-.61.52-.831.31-.217.763-.355 1.384-.394 2.473-.157 4.147 1.138 4.692 1.781.148.15.301.344.416.56.028.054.054.11.078.167.033-.06.07-.118.107-.175.228-.35.533-.67.927-.873.392-.201.862-.28 1.409-.17l.019.004-.001.003c.175.07.311.156.397.268a.453.453 0 0 1 .083.396.747.747 0 0 1-.178.31c-.07.077-.15.146-.228.204a.247.247 0 0 0-.002.107c.14.108.241.216.298.33.064.128.067.263.005.382a.566.566 0 0 1-.238.224 1.226 1.226 0 0 1-.257.1.275.275 0 0 0-.06.114v.001c.05.16.055.313-.008.446a.52.52 0 0 1-.31.263c-.205.072-.466.064-.686.031a.558.558 0 0 1-.08.227.463.463 0 0 1-.224.182.72.72 0 0 1-.4.021c-.05.109-.1.2-.152.272a.632.632 0 0 1-.21.203.33.33 0 0 1-.288.018.437.437 0 0 1-.19-.166 1.354 1.354 0 0 1-.171-.465 2.718 2.718 0 0 1-.052-.448 1.92 1.92 0 0 1 .01-.359 2.576 2.576 0 0 1-.64.268c.339.64.533 1.385.533 2.18 0 2.402-1.776 4.35-3.966 4.35-2.19 0-3.965-1.948-3.965-4.35 0-1.56.747-2.926 1.87-3.694m1.508-.61c.192-.03.388-.047.587-.047 1.008 0 1.928.413 2.628 1.092a.475.475 0 0 0 .227-.078c.021-.017.03-.034.025-.075a.598.598 0 0 0-.109-.238 2.301 2.301 0 0 0-.307-.352 4.039 4.039 0 0 0-.57-.383 5.152 5.152 0 0 0-1.777-.59c-.392-.055-.64-.045-.788-.006-.14.036-.163.09-.17.115-.013.047-.004.129.052.248.05.105.123.216.202.314m5.134 1.42c.01-.04.022-.08.035-.12a.978.978 0 0 0 .047-.141 3.41 3.41 0 0 1 .35-.72c.204-.31.463-.576.783-.74.305-.157.676-.227 1.127-.142a.524.524 0 0 1 .219.139c.02.026.022.045.016.07a.38.38 0 0 1-.092.147 1.269 1.269 0 0 1-.192.168c-.07.051-.1.126-.115.174a.612.612 0 0 0-.005.335.327.327 0 0 0 .113.178c.131.098.188.17.209.212.01.02.01.028.01.03v.001l-.001.002v.001c-.006.01-.026.035-.082.066a.887.887 0 0 1-.192.071.349.349 0 0 0-.164.106.643.643 0 0 0-.151.284.353.353 0 0 0 .003.193c.037.111.024.162.015.18-.008.018-.03.044-.092.066-.135.047-.358.04-.58 0-.196-.036-.348.126-.353.294a.228.228 0 0 1-.027.117.081.081 0 0 1-.042.033.396.396 0 0 1-.228-.008.299.299 0 0 0-.354.167 1.582 1.582 0 0 1-.143.272.442.442 0 0 1-.054.065 2.32 2.32 0 0 1-.164-.78h-.002a2.586 2.586 0 0 1 .106-.72M5.109 8.369c.16-.017.335-.01.488.006l.01.001.01.002c2.393.519 2.972 2.488 2.372 3.578-.125.227-.236.39-.341.488a.463.463 0 0 1-.191.114.303.303 0 0 1-.234-.03.408.408 0 0 1-.14-.139.898.898 0 0 1-.076-.16 2.886 2.886 0 0 1-.081-.262c-.134.041-.247.066-.343.073a.465.465 0 0 1-.328-.074.32.32 0 0 1-.116-.298.55.55 0 0 1 .028-.12c-.283.059-.504.07-.674.034-.21-.043-.351-.16-.408-.332a.733.733 0 0 1 .015-.43c.015-.051.034-.101.053-.147a.726.726 0 0 1-.307-.15.44.44 0 0 1-.148-.39.807.807 0 0 1 .14-.346c.049-.075.107-.145.166-.209-.226-.2-.373-.376-.443-.535a.487.487 0 0 1-.042-.283.393.393 0 0 1 .138-.232c.122-.104.3-.143.452-.159m-.198.52c.04.093.156.243.413.46a.294.294 0 0 1 .014.435 1.353 1.353 0 0 0-.182.214.438.438 0 0 0-.078.178c-.004.03.002.044.021.061.03.027.105.067.272.09a.258.258 0 0 1 .191.122.25.25 0 0 1 .004.241c-.032.064-.073.15-.1.24-.028.094-.03.162-.017.201.006.019.02.056.121.076.115.024.315.019.647-.062a.302.302 0 0 1 .318.125c.057.082.09.21.026.331a.57.57 0 0 0-.028.06l.02-.002c.072-.006.183-.03.344-.085a.288.288 0 0 1 .372.198c.034.126.063.236.095.321a.69.69 0 0 0 .029.066c.058-.057.144-.174.261-.388.452-.82.077-2.538-2.108-3.017a2.006 2.006 0 0 0-.398-.005c-.136.015-.214.045-.245.071a.038.038 0 0 0-.008.008s-.003.018.016.061m10.65 4.504c0 2.226-1.636 3.968-3.583 3.968-1.946 0-3.583-1.742-3.583-3.968 0-2.225 1.637-3.968 3.583-3.968 1.947 0 3.584 1.743 3.584 3.968" clip-rule="evenodd"/></g><defs><linearGradient id="b" x1="12" x2="12" y1="0" y2="24" gradientUnits="userSpaceOnUse"><stop stop-color="#cfcfcf"/><stop offset="1" stop-color="#a8a8a8"/></linearGradient><linearGradient id="c" x1="12" x2="12" y1="2.256" y2="21.743" gradientUnits="userSpaceOnUse"><stop stop-color="#a8a8a8"/><stop offset="1" stop-color="#cfcfcf"/></linearGradient><linearGradient id="d" x1="12" x2="12" y1="6.975" y2="17.744" gradientUnits="userSpaceOnUse"><stop stop-color="#ededed"/><stop offset="1" stop-color="#e0e0e0"/></linearGradient><clipPath id="a"><path fill="#ffffff" d="M0 0h24v24H0z"/></clipPath></defs></svg>