<svg xmlns="http://www.w3.org/2000/svg" width="200" height="200" fill="#000000"><path fill-opacity=".086" fill-rule="evenodd" d="M0 100.005V200.01l100.25-.255 100.25-.255.255-99.75L201.01 0H0zm.481.495c0 55 .121 77.647.269 50.326.148-27.32.148-72.32 0-100C.602 23.147.481 45.5.481 100.5M55.5 65.149c-7.7 9.925-17.274 22.276-21.276 27.448L26.947 102h38.634c33.122 0 38.555.204 38.083 1.433-.524 1.366-25.606 33.823-33.86 43.817L65.881 152h24.881l26.97-34.25 26.97-34.25-38.93-.262c-21.412-.144-38.783-.615-38.601-1.047.181-.433 2.804-4.003 5.829-7.934l5.5-7.147 39.641-.055L157.783 67l6.902-8.75c3.797-4.812 7.247-9.312 7.668-10 .608-.994-9.845-1.239-51.044-1.198l-51.809.053z"/><path fill-opacity=".279" fill-rule="evenodd" d="M0 100.005V200.01l100.25-.255 100.25-.255.255-99.75L201.01 0H0zm.481.495c0 55 .121 77.647.269 50.326.148-27.32.148-72.32 0-100C.602 23.147.481 45.5.481 100.5m47.746-26.25L26.983 101.5l38.509.262c21.179.144 38.493.594 38.474 1-.018.406-8.502 11.538-18.852 24.738l-18.818 24 12.486.281c11.032.248 12.633.073 13.741-1.5.69-.98 12.785-16.406 26.877-34.281l25.622-32.5-38.511-.262C85.33 83.094 68 82.609 68 82.159s2.507-4.044 5.572-7.988L79.144 67h78.792l7.532-9.364c4.143-5.151 7.532-9.651 7.532-10S149.706 47 121.235 47H69.47z"/><path fill-opacity=".5" fill-rule="evenodd" d="M0 100.005V200.01l100.25-.255 100.25-.255.255-99.75L201.01 0H0zm.481.495c0 55 .121 77.647.269 50.326.148-27.32.148-72.32 0-100C.602 23.147.481 45.5.481 100.5m47.03-25.75L25.85 102.5l39.032.262 39.032.261-18.956 24.239c-10.426 13.331-18.957 24.576-18.957 24.988-.001.412 5.542.75 12.316.75h12.317l27.737-35.25 27.737-35.25-38.986-.5-38.986-.5 5.579-7.25L79.294 67h79.33l2.052-2.75c1.129-1.513 4.614-6.012 7.745-10l5.693-7.25H69.172z"/><path fill-opacity=".369" fill-rule="evenodd" d="M0 100.005V200.01l100.25-.255 100.25-.255.255-99.75L201.01 0H0zm.481.495c0 55 .121 77.647.269 50.326.148-27.32.148-72.32 0-100C.602 23.147.481 45.5.481 100.5m68.97-53.735c-.577.404-8.421 10.185-17.431 21.735a19625 19625 0 0 1-21.201 27.142C28.169 99.02 26 102.052 26 102.38s17.352.714 38.561.858l38.561.262-17.159 22c-9.437 12.1-18.014 22.929-19.06 24.064-1.047 1.136-1.903 2.373-1.903 2.75 0 .378 5.963.672 13.25.655l13.25-.032 1.935-2.718c1.064-1.496 13.327-17.199 27.25-34.897S146 82.886 146 82.572 128.421 82 106.936 82H67.872L74 74.5l6.128-7.5h78.655l7.169-9.077c3.943-4.992 7.415-9.717 7.716-10.5.468-1.22-6.863-1.421-51.311-1.408-28.521.009-52.329.346-52.906.75"/></svg>