<!-- Generated by IcoMoon.io -->
<svg version="1.1" xmlns="http://www.w3.org/2000/svg" width="32" height="32" viewBox="0 0 32 32" fill="#000000">
<title>grt</title>
<path d="M14.080 17.778c3.928 0 7.111-3.184 7.111-7.111s-3.184-7.111-7.111-7.111c-3.927 0-7.111 3.184-7.111 7.111s3.184 7.111 7.111 7.111zM14.080 0c5.891 0 10.667 4.776 10.667 10.667s-4.776 10.667-10.667 10.667c-5.891 0-10.667-4.776-10.667-10.667s4.776-10.667 10.667-10.667zM24.226 21.854c-0.694-0.694-1.82-0.694-2.514 0l-7.111 7.111c-0.694 0.694-0.694 1.82 0 2.514s1.82 0.694 2.514 0l7.111-7.111c0.694-0.694 0.694-1.82 0-2.514zM28.302 1.778c0-0.982-0.796-1.778-1.778-1.778s-1.778 0.796-1.778 1.778 0.796 1.778 1.778 1.778c0.982 0 1.778-0.796 1.778-1.778z"/>
</svg>
