<svg xmlns="http://www.w3.org/2000/svg" width="200" height="200" fill="#000000"><path fill-opacity=".078" fill-rule="evenodd" d="M0 100.005V200.01l100.25-.255 100.25-.255.255-99.75L201.01 0H0zm.481.495c0 55 .121 77.647.269 50.326.148-27.32.148-72.32 0-100C.602 23.147.481 45.5.481 100.5m96.738-89.163c-1.255.697-2.023 1.525-1.707 1.841s-.144.85-1.021 1.187c-.984.378-1.343.205-.938-.45.361-.585-.262-.489-1.384.211-1.122.701-1.891 1.522-1.709 1.824s-.383 1.21-1.255 2.017c-1.41 1.305-1.508 1.266-.887-.353.636-1.657.405-1.632-2.56.278-1.792 1.154-3.151 2.534-3.02 3.067s-.432.712-1.25.398C80.28 20.893 80 21.84 80 26.393c0 3.084.338 5.593.75 5.575 1.551-.066 4.189-2.698 3.484-3.477-.403-.446-.172-.488.514-.093 1.509.868 5.549-1.736 4.496-2.898-.409-.451-.191-.503.485-.114 1.653.95 5.505-1.199 4.644-2.591-.413-.668-.224-.821.48-.386.65.402 1.425.029 1.761-.846.33-.859 1.028-1.563 1.552-1.563s.631.52.239 1.155c-.428.691-.276.883.378.479.6-.371 3.032.47 5.404 1.869 2.372 1.398 5.888 3.32 7.813 4.27s4.095 2.29 4.821 2.977c.727.688 1.927 1.25 2.667 1.25s1.495.352 1.679.783 1.993 1.749 4.023 2.931c2.575 1.499 3.835 1.791 4.171.967.291-.715.512-.58.56.342.043.837 1.767 2.403 3.829 3.479s4.945 2.807 6.405 3.845 3.125 1.598 3.7 1.243c.574-.355 1.552.301 2.172 1.46.647 1.21 1.731 1.873 2.55 1.559.783-.3 1.423-.155 1.423.324 0 .478 1.602 1.815 3.56 2.97s3.23 1.537 2.827.849c-.403-.689.532-.015 2.077 1.498 2.783 2.725 3.775 3.16 6.386 2.802.743-.102 1.052.298.687.888s.052 1.349.928 1.685c1.421.545 1.582 5.022 1.502 41.993-.049 22.76-.422 41.382-.828 41.382-.407 0-1.279-.54-1.939-1.2-.933-.933-1.2-.896-1.2.167 0 .751-.284 1.082-.632.735-.765-.765-9.544 4.171-10.668 5.998-.44.715-1.691 1.3-2.781 1.3s-2.24.672-2.555 1.494c-.316.822-.896 1.295-1.289 1.052-1.167-.721-7.228 3.397-6.57 4.463.337.544-.417.898-1.7.798-1.268-.098-4.247 1.054-6.62 2.561s-5.749 3.537-7.5 4.513a1126 1126 0 0 0-10.008 5.696 2303 2303 0 0 1-9 5.155c-1.197.677-2.078 2.027-1.956 3s-.029 1.206-.333.518c-.305-.687-.994-1.25-1.53-1.25-.537 0-.647.562-.245 1.25s-.169.463-1.27-.5c-1.1-.962-2.335-1.75-2.743-1.75-.409 0-1.444-.701-2.3-1.558-.857-.856-2.198-1.311-2.981-1.011-.902.346-1.161.122-.707-.612q.716-1.158-.936-.525c-.909.349-1.545.245-1.414-.23s-.162-.871-.65-.879c-.489-.008-1.168-.467-1.51-1.019-.341-.553-1.254-1.154-2.028-1.336-.774-.181-2.232-1.117-3.241-2.08s-2.621-1.743-3.583-1.735c-1.496.013-1.532.157-.25.985.901.582 1.025.975.309.985-.655.008-1.457-.415-1.782-.941s-1.364-.691-2.309-.366c-1.397.481-1.358.311.212-.912 1.891-1.472 1.884-1.528-.328-2.711-1.242-.665-2.948-.944-3.791-.621-1.074.412-1.36.136-.954-.923.519-1.352-.466-1.967-2.607-1.629-.412.065-.75-.407-.75-1.049s-.262-.904-.583-.583-1.481-.314-2.578-1.411-2.657-1.739-3.468-1.428c-.829.318-1.207.133-.864-.422.336-.544.172-.989-.365-.989s-1.164.337-1.395.75c-.23.412-.299.231-.152-.402.42-1.811-.778-2.441-2.276-1.198-1.053.874-1.245.815-.842-.259.33-.877-.999-2.259-3.597-3.74-2.29-1.305-3.772-1.75-3.337-1 .431.742-.393.111-1.832-1.401-2.377-2.499-3.84-3.203-5.961-2.868-.413.065-.75-.332-.75-.882s-.9-1-2-1-2 .525-2 1.167c0 .641-.289.877-.643.524-.353-.354-.073-1.329.623-2.167.865-1.042.91-1.524.142-1.524C32.309 140 32 127.469 32 94.474V48.949L29 50.5c-3.284 1.698-3.614 2.486-1.8 4.3.803.803.838 1.2.107 1.2-.601 0-1.349-.667-1.662-1.483-.324-.844-1.232-1.229-2.107-.893C22.185 54.143 22 59.68 22 99.572c0 44.489.039 45.378 2.021 46.439 1.111.595 2.531.766 3.154.381.68-.42.859-.256.447.411-.401.648.624 1.79 2.455 2.737 1.729.894 2.871 1.185 2.539.647-.333-.537.031-1.221.807-1.519s1.674.142 1.994.977c.85 2.214.729 2.547-.667 1.84-.687-.348-.396.061.647.909s2.281 1.305 2.75 1.015.853-.02.853.599c0 .689.874.881 2.25.494 1.604-.451 1.852-.358.865.325-1.116.772-.946 1.193.871 2.165 1.24.664 2.009.809 1.708.322s.295-.885 1.324-.885c1.356 0 1.593.335.862 1.216-.718.865-.426 1.528 1.015 2.299 1.113.596 2.38.964 2.814.82s1.838.783 3.118 2.063c1.286 1.286 2.988 2.074 3.802 1.762.811-.311 1.239-.185.952.28-.288.466 1.144 1.698 3.182 2.739s4.324 2.47 5.078 3.177c1.116 1.046 1.665 1.046 2.957 0 .872-.707 1.285-.783.918-.169-1.28 2.137 11.089 9.896 15.284 9.588 1.799-.133 2.109.065 1.104.705-1.077.687-.681 1.258 1.74 2.51 1.724.892 3.427 1.574 3.784 1.516s.924.281 1.26.753c.337.472 1.784 1.603 3.216 2.513 2.449 1.555 2.793 1.54 5.75-.259 1.73-1.052 3.146-2.396 3.146-2.986s.414-.818.92-.505 1.79-.538 2.852-1.889c1.257-1.598 2.274-2.116 2.909-1.481s1.878.267 3.555-1.052c1.419-1.116 3.071-2.029 3.672-2.029.6 0 1.092-.477 1.092-1.059s.393-.816.874-.519 1.958-.464 3.282-1.691 3.068-2.231 3.876-2.231 1.361-.546 1.23-1.214c-.147-.749.395-.971 1.414-.58q1.651.633.936-.525c-.468-.756-.178-.952.836-.563.854.328 1.552.098 1.552-.511s.627-1.107 1.393-1.107 1.649-.667 1.962-1.483 1.215-1.236 2.003-.933c.799.306 2.089-.384 2.912-1.559.812-1.16 1.872-2.037 2.354-1.949 1.869.343 3.079-.151 5.187-2.115 1.204-1.121 2.189-1.771 2.189-1.443s1.326-.188 2.946-1.145 2.721-2.102 2.448-2.545.279-.507 1.228-.143c1.291.496 1.573.266 1.121-.913-.42-1.093-.09-1.492 1.076-1.305 2.461.394 7.372-2.349 6.559-3.664-.41-.663-.233-.831.438-.417 1.342.83 7.184-1.993 7.184-3.471 0-.568.45-.755 1-.415 1.123.694 1.464-88.703.342-89.825-.362-.362-1.348-.099-2.192.584-1.224.99-1.382.988-.783-.009 1.079-1.796-.367-3.859-1.477-2.107-.663 1.047-.863.944-.875-.452-.008-.995-.456-1.537-.994-1.204-1.455.899-5.189-1.406-4.385-2.707.434-.703.139-.908-.794-.55-.853.328-2.001-.255-2.696-1.369-.666-1.066-1.65-1.667-2.186-1.336-.537.331-1.683-.105-2.548-.97-.865-.866-1.956-1.337-2.424-1.048s-1.175-.001-1.573-.645c-.452-.731-.291-.903.43-.457.635.392 1.155.473 1.155.18 0-.943-5.724-3.528-6.373-2.878-.345.344-.627.138-.627-.458s-2.36-2.446-5.244-4.112l-5.244-3.027-1.205 2.195c-1.149 2.093-1.195 2.055-1.006-.805.153-2.303-.205-2.968-1.54-2.863-.957.075-1.493-.262-1.191-.75.89-1.44-.772-1.014-2.642.678-1.177 1.065-1.945 1.217-2.403.475-.375-.606-.087-.968.651-.815 3.14.652.93-2.816-3.426-5.376-2.612-1.535-4.75-2.338-4.75-1.785 0 .654-.701.631-2-.064-1.484-.794-2-.76-2 .131 0 .662-.289.913-.643.56-.353-.354-.099-1.297.565-2.097.975-1.175.811-1.667-.857-2.559-1.136-.608-2.072-.752-2.08-.32s-.346.274-.75-.351c-1.294-1.999-11.336-7.42-12.46-6.725-.646.4-.796.204-.37-.484.918-1.487-.306-1.417-3.186.182M104.5 15c.34.55.816 1 1.059 1s.441-.45.441-1-.477-1-1.059-1-.781.45-.441 1m4.711 3.399c.709.77 1.447 1.25 1.639 1.067.593-.564-.91-2.466-1.948-2.466-.54 0-.401.63.309 1.399M103 21.059c0 .582.45.781 1 .441s1-.816 1-1.059-.45-.441-1-.441-1 .477-1 1.059m-36.28 7.529c-1.528.829-2.508 1.947-2.175 2.484.332.538.233.913-.221.834C61.147 31.354 61 32.086 61 48.5c0 9.075.337 16.493.75 16.485 1.617-.033 3.473-1.815 2.884-2.768-.342-.554.027-1.257.821-1.561 1.019-.391 1.258-.072.813 1.089-.627 1.633 1.445.631 9.732-4.707 1.375-.885 3.737-2.232 5.25-2.993S84 52.063 84 51.331 84.477 50 85.059 50s.767.472.41 1.05c-.357.577 1.601-.206 4.351-1.742 2.75-1.535 4.819-3.083 4.599-3.44-.221-.357 1.158-.941 3.063-1.299 2.414-.453 4.218-.156 5.948.977 1.365.894 3.021 1.293 3.681.886.765-.474.936-.317.472.434-.463.749.547 1.708 2.777 2.64 1.927.805 3.79 1.928 4.141 2.495.35.567 1.056.773 1.568.456.512-.316.931-.153.931.363 0 .977 5.592 3.652 6.344 3.034.237-.195 1.307.728 2.378 2.051s2.832 2.47 3.912 2.55 2.945 1.124 4.143 2.322c1.363 1.363 2.809 1.935 3.864 1.53 1.083-.415 1.446-.256 1.013.444-.857 1.387 9.747 6.684 11.543 5.766.717-.366.516-.02-.447.769-1.59 1.303-1.75 3.958-1.75 28.963 0 26.441-.082 27.623-2.076 29.89-1.142 1.299-1.794 1.804-1.448 1.122 1.034-2.04-2.405-.262-3.519 1.819-.555 1.037-1.622 1.602-2.434 1.29-.823-.316-2.612.671-4.149 2.288-1.485 1.563-2.348 2.235-1.917 1.493.434-.748-1.022-.31-3.269.983-2.78 1.6-3.681 2.602-2.87 3.193.752.548.517.646-.644.27-1.804-.586-10.674 3.845-10.674 5.331 0 .406-.592.739-1.315.739s-2.739 1.052-4.479 2.339c-2.465 1.822-2.917 2.638-2.044 3.69.881 1.06.769 1.215-.521.72-.902-.347-1.641-1.048-1.641-1.558 0-.511-1.013-.362-2.25.33-2.516 1.406-6.885 1.84-6.124.608.773-1.25-1.075-.93-2.628.454-1.185 1.057-1.205.99-.129-.438 1.1-1.459.847-1.907-1.87-3.313-2.621-1.355-3.421-1.407-4.821-.312-1.5 1.174-1.534 1.13-.326-.412 1.192-1.521 1.015-1.873-1.5-2.98-1.569-.69-3.077-1.538-3.352-1.885-1.466-1.85-6.776-3.734-7.758-2.752-.74.74-1.009.557-.899-.616.103-1.091-1.905-2.776-5.788-4.856-3.27-1.752-6.607-3.791-7.415-4.529-1.248-1.141-1.682-.989-2.874 1-.772 1.288-1.162 1.556-.866.593.673-2.192-.309-4.924-1.505-4.185-.492.304-.895.025-.895-.621q-.002-1.173-2.448.43c-1.548 1.014-2.678 1.231-3.074.59-.345-.557-.031-.89.698-.739 1.081.225 1.365-8.208 1.545-45.986l.222-46.261-3.004 1.554c-1.653.854-2.757 1.953-2.455 2.441.302.489.091 1.171-.468 1.517S44 43.656 44 43.09c0-.565-.675-.768-1.5-.452-1.303.5-1.498 6.504-1.483 45.719l.017 45.143 6.733 3.719c3.703 2.045 8.9 4.95 11.548 6.454 4.073 2.313 4.966 2.511 5.792 1.281.786-1.17.919-1.08.685.464-.195 1.282.802 2.565 3.009 3.872 3.147 1.863 3.361 1.871 4.597.18 1.018-1.391 1.47-1.492 2.104-.467.505.817.414 1.063-.243.657-.577-.357-1.302.009-1.611.814-.669 1.743.88 2.936 2.507 1.931.648-.401.885-.279.54.279-.337.546 1.236 2.033 3.497 3.304 2.469 1.387 3.773 1.751 3.267.911-.701-1.164-.575-1.182.752-.107 1.303 1.055 1.702 1.055 2.183 0 .323-.711.336-.28.029.958-.515 2.078.307 2.766 2.827 2.368.412-.065.75.26.75.723 0 1.457 9.722 6.203 11.393 5.562.878-.337 1.347-1.015 1.042-1.508-.304-.492.374-.895 1.506-.895 1.792 0 2.465-.93 2.233-3.083-.035-.321.58-.584 1.366-.584 1.152 0 1.19.294.194 1.52-.899 1.107-.367 1.012 1.962-.35 1.757-1.029 2.997-2.19 2.755-2.582s.256-.978 1.107-1.305c.875-.336 1.284-.169.942.384-.342.554.068.719.948.382.854-.328 1.552-.945 1.552-1.372s.902-1.013 2.004-1.301c1.46-.382 1.816-1.024 1.313-2.366-.603-1.606-.48-1.671.953-.506 1.377 1.119 1.975 1.105 3.681-.09 1.12-.784 1.715-1.747 1.323-2.14-.392-.392-.036-.453.792-.135 1.665.639 6.281-3.102 5.462-4.427-.284-.459.166-1.097 1.001-1.418 1.232-.472 1.32-.214.471 1.373-.85 1.589-.761 1.846.477 1.371.838-.322 1.523-1.238 1.523-2.037s.409-1.199.91-.89c1.494.924 4.245-.597 3.691-2.041-.282-.736-.083-1.605.443-1.93s.956.09.956.921c0 1.308.406 1.282 2.994-.191 1.646-.936 2.996-2.041 3-2.453.003-.412.708-.75 1.565-.75.904 0 1.266-.475.861-1.13-.427-.69-.159-.936.691-.632.764.273 2.632-.219 4.152-1.094l2.763-1.591-.263-33.526L157.5 66.5l-2.687.053c-1.478.029-2.464-.308-2.191-.75s1.257-.814 2.187-.827-1.684-1.918-5.809-4.234-7.838-4.105-8.25-3.976-.75-.168-.75-.659c0-1.545-3.297-2.234-4.264-.891-.658.914-.759.77-.349-.498.692-2.146-2.513-3.649-6.783-3.18-2.116.232-2.564.022-1.73-.812 1.635-1.635 1.38-3.037-.426-2.344-.854.327-1.331.238-1.062-.198.27-.436-1.611-1.894-4.18-3.239s-5.244-2.978-5.944-3.629c-.701-.652-2.263-1.499-3.471-1.882-1.209-.384-2.835-1.335-3.613-2.114-1.933-1.932-2.799-.796-1.071 1.406 1.249 1.59 1.222 1.64-.26.482-1.35-1.055-1.754-1.055-2.21 0-.307.711-.303.059.009-1.449.648-3.139-1.72-4.772-4.08-2.814-1.158.962-1.304.771-.822-1.074l.586-2.242-3.415 2.387c-1.878 1.313-3.734 2.855-4.123 3.427s-1.29 1.087-2 1.146c-3.396.28-3.867.481-3.292 1.411.34.55-.276 1-1.37 1-1.093 0-2.582.57-3.309 1.268-.726.697-3.236 2.116-5.577 3.154C72.832 47.378 69.759 50 71.878 50c.617 0 1.122.354 1.122.786 0 1.613-3.897.715-4.346-1.002-.257-.983-.038-1.521.488-1.196.589.364.892-3.664.791-10.499-.091-6.099-.225-11.071-.299-11.049s-1.385.718-2.914 1.548m74.013 6.536c.679.684 1.486.991 1.793.683.308-.308-.247-.867-1.233-1.243-1.425-.542-1.54-.428-.56.56M78.5 46c-.34.55-.141 1 .441 1S80 46.55 80 46s-.198-1-.441-1-.719.45-1.059 1m50 4c-.34.55-.141 1 .441 1S130 50.55 130 50s-.198-1-.441-1-.719.45-1.059 1M99 56.059c0 .582-.45.781-1 .441s-1-.141-1 .441S97.525 58 98.167 58c.641 0 .877.289.524.643-.354.353-1.329.073-2.167-.623-1.125-.934-1.524-.956-1.524-.083 0 .649-.412.927-.915.616s-1.065-.225-1.25.191c-.184.416-2.932 2.095-6.105 3.732-3.531 1.821-5.581 3.47-5.282 4.25.269.701.053 1.274-.479 1.274-.533 0-.969-.52-.969-1.155 0-.762-.596-.662-1.75.293-.963.797-3.003 2.076-4.535 2.843-1.868.935-2.589 1.909-2.191 2.957.47 1.234.336 1.305-.639.338-.973-.966-1.986-.767-4.809.947-1.967 1.194-3.914 2.645-4.327 3.224s-.72 11.155-.682 23.501c.039 12.347.433 21.861.876 21.143.567-.917 1.01-.975 1.491-.198.376.609.32 1.11-.125 1.114-.445.003.513.878 2.129 1.943 1.615 1.065 3.264 1.734 3.664 1.487s.878-.045 1.063.45c.6 1.61 10.945 7.163 12.06 6.474.596-.368.807-.222.468.327-.339.548 1.407 2.08 3.88 3.404 8.733 4.678 10.419 5.657 11.978 6.95 1.387 1.151 1.505.959.989-1.617-.54-2.694-.505-2.739.445-.565.985 2.252 1.143 2.286 3.49.748 1.352-.885 4.611-2.801 7.242-4.256 6.916-3.825 8.363-4.937 7.527-5.787-.409-.415-.036-.6.829-.41 1.448.317 4.717-1.292 15.427-7.594l4-2.354.29-8.103q.29-8.103-.809-8.104c-.604 0-.778.52-.386 1.155.438.707.275.883-.42.453-1.447-.894-5.422 1.183-4.651 2.431.319.516-.073.688-.871.381-1.861-.714-2.511.399-2.808 4.809-.179 2.66-.609 3.415-1.706 2.994-.94-.361-1.21-.147-.751.596.46.743.188.956-.759.592-.811-.311-2.409.369-3.552 1.512-1.142 1.142-2.752 2.077-3.577 2.077s-2.4.9-3.5 2-2.21 1.888-2.468 1.75c-.257-.138-1.494.637-2.75 1.721-1.255 1.084-2.732 2.028-3.282 2.098s-1.5.195-2.111.279c-.612.083-.965 1.39-.786 2.902s.075 1.918-.231.9c-.419-1.392-1.275-1.744-3.457-1.424-1.595.234-2.662.188-2.371-.103s-1.166-1.551-3.236-2.801l-3.765-2.272-1.22 2.225c-1.173 2.139-1.213 2.109-1.022-.775.17-2.57-.16-3.011-2.301-3.073-1.375-.041-3.175.409-4 1-1.305.934-1.32.844-.115-.692 1.214-1.548 1.103-2.011-.903-3.75-1.258-1.092-2.782-1.971-3.385-1.953-.603.017-.223.692.844 1.5 1.068.807 1.436 1.468.818 1.468-.617 0-2.097-1.369-3.289-3.041-1.747-2.455-2.441-2.813-3.592-1.858-.784.651-1.715.895-2.069.542-.353-.354-.117-.643.524-.643.642 0 1.167-.477 1.167-1.059s-.45-.781-1-.441c-.653.403-.976-5.222-.93-16.191.068-16.096.586-20.69 2.286-20.26 1.649.416 10.651-5.229 10.005-6.274-.379-.614-.208-.799.394-.426 1.407.869 4.388-.308 3.68-1.454-.304-.492.325-.895 1.399-.895s2.229-.722 2.567-1.604c.346-.899 1.259-1.357 2.08-1.042 1.567.601 4.793-3.102 3.925-4.506-.28-.454.186-.558 1.036-.232s1.258 1.109.906 1.739c-.477.852-.322.851.605-.005.952-.878 1.706-.691 3.183.786 1.066 1.066 2.371 1.669 2.9 1.341.53-.327.964-.172.964.345 0 1.509 10.672 6.499 12.062 5.64.747-.462.994-.362.616.25-.347.561.363 1.868 1.578 2.904 1.216 1.037 1.68 1.194 1.032.348-.967-1.262-.82-1.535.828-1.535 1.345 0 1.868.526 1.587 1.599-.52 1.988 4.904 5.463 5.687 3.643.277-.644.234.81-.095 3.232-.434 3.19-.282 4.207.553 3.691.633-.392 1.152-.246 1.152.324 0 .569 1.8 1.905 4 2.968l4 1.933v-8.41c0-5.252-.398-8.409-1.059-8.409-.582 0-.738.52-.346 1.155.446.721.274.882-.457.43-.644-.398-.931-1.111-.638-1.585.732-1.185-1.278-2.283-4.399-2.401-1.431-.055-2.601-.678-2.601-1.385 0-1.751-2.641-3.28-4.609-2.669-.885.275-2.235-.259-3-1.186-1.268-1.537-1.191-1.58.859-.488 1.237.66 2.25.968 2.25.685 0-1.026-7.773-4.452-8.537-3.763-.431.389-.489.192-.129-.438.765-1.339-2.022-2.666-3.579-1.704-.585.362-.788.211-.45-.335.337-.546-1.117-1.966-3.232-3.155-4.208-2.365-5.523-2.699-4.573-1.161.34.55.141 1-.441 1S103 59.045 103 57.878c0-1.788-.24-1.923-1.523-.859-1.273 1.057-1.42.995-.893-.378.35-.912.139-1.641-.477-1.641-.609 0-1.107.477-1.107 1.059m42.473 2.985c-.325.526.336.956 1.468.956 2.415 0 2.658-.556.591-1.349-.807-.31-1.734-.133-2.059.393M109.5 63c-.34.55-.141 1 .441 1S111 63.55 111 63s-.198-1-.441-1-.719.45-1.059 1m38.5 0c0 .55.477 1 1.059 1s.781-.45.441-1-.816-1-1.059-1-.441.45-.441 1M98.399 77.959c-1.337 1.275-7.642 4.98-9.649 5.672-.963.331-1.757 1.562-1.765 2.736-.013 1.726-.196 1.848-.959.641-.803-1.27-1.134-1.285-2.234-.103-1.069 1.148-1.033 1.249.208.581.875-.47 1.158-.432.679.091-.451.494-1.572.903-2.492.91-1.302.01-1.745 1.157-2.004 5.188-.283 4.406-.024 5.34 1.742 6.285 1.141.611 2.075.814 2.075.453 0-.362.563-.218 1.25.32 2.486 1.945 5.746 2.182 5.813.423.045-1.157.336-.978.968.594.857 2.132 2.856 2.794 7.277 2.41.995-.086 1.53.292 1.191.841-.586.949 1.992 1.48 5.712 1.176 1.148-.094 1.519.362 1.127 1.384-.321.838-1.091 1.336-1.711 1.106s-2.558.444-4.306 1.496c-2.627 1.58-3.322 1.673-4 .532-1.222-2.054-6.321-5.128-6.321-3.81 0 .613-.916.199-2.036-.921-2.022-2.022-4.611-1.82-3.326.26.404.653.205.797-.5.361-.644-.398-.941-1.095-.66-1.549.633-1.024-2.323-2.25-3.568-1.48-1.598.987-1.086 7.444.59 7.444.825 0 1.5.379 1.5.843 0 1.317 8.698 5.461 9.902 4.718.63-.389.86-.105.556.687-.322.839.834 1.998 3.046 3.052 4.203 2.005 4.859 2.097 3.901.545-.442-.714-.275-.883.439-.442 1.36.841 5.472-1.754 4.43-2.796-.392-.392.135-.387 1.171.01 1.411.542 1.678.391 1.065-.602-.564-.912-.434-1.086.417-.56.75.464 2.443-.359 4.309-2.096 1.69-1.572 2.685-2.184 2.211-1.359-.718 1.249-.451 1.229 1.596-.122 2.147-1.417 2.457-2.364 2.457-7.5 0-4.984-.266-5.857-1.75-5.739-.963.076-1.75-.309-1.75-.857s-.661-.742-1.468-.433c-.807.31-1.708.176-2.001-.299-.293-.474-1.503-.609-2.688-.299-1.293.338-1.911.167-1.543-.427.589-.954.058-1.147-4.3-1.562-1.1-.105-2-.492-2-.86 0-1.177-4.998-1.687-5.03-.513-.017.611-.495.314-1.062-.66s-1.566-1.473-2.219-1.109c-.654.364-.426-.148.506-1.139.932-.99 2.843-1.922 4.246-2.072 1.403-.149 3.565-.557 4.805-.906 1.631-.459 1.866-.366.849.336-1.081.747-.217 1.572 3.75 3.583 2.835 1.436 5.155 2.324 5.155 1.972s.563-.199 1.25.339 2.278 1.23 3.534 1.538c2.143.525 2.267.292 2-3.771-.156-2.383-.444-4.172-.64-3.976s-1.294-.517-2.439-1.584c-2.341-2.181-4.199-2.594-3.104-.69.396.688.351.916-.099.509s-1.494-.183-2.321.5c-1.327 1.096-1.338.975-.092-1.04 1.225-1.98 1.214-2.406-.089-3.239-.825-.527-2.086-.744-2.802-.481-.793.291-1.022.025-.586-.68.483-.781.157-.944-1-.5-.977.375-1.464.251-1.131-.288.787-1.273-4.937-4.164-6.082-3.072M68 83.059c0 .582.45.781 1 .441s1-.816 1-1.059S69.55 82 69 82s-1 .477-1 1.059m20.872 3.691c-1.269 1.619-1.222 1.64.628.283 1.1-.807 2.188-1.594 2.417-1.75S91.863 85 91.289 85s-1.662.787-2.417 1.75m43.741 2.433c.289.467.944.591 1.456.274 1.308-.808 1.161-1.124-.525-1.124-.801 0-1.22.383-.931.85M106.5 91c.34.55.816 1 1.059 1s.441-.45.441-1-.477-1-1.059-1-.781.45-.441 1m7.579 2.583c.048 1.165.285 1.402.604.605.289-.722.253-1.585-.079-1.917s-.568.258-.525 1.312M127 97c-1.282.828-1.246.972.25.985.963.008 1.75-.435 1.75-.985 0-1.22-.113-1.22-2 0m-.943 3.569c.509.613.685 1.356.391 1.649-.294.294.177.808 1.047 1.142.922.353 1.818-.012 2.15-.877.313-.816.997-1.483 1.521-1.483s.631.52.239 1.155c-.443.715-.275.883.44.44 2.495-1.541 1.08-3.14-2.779-3.14-2.779 0-3.662.327-3.009 1.114M93.5 102c-.34.55.11 1 1 1s1.34-.45 1-1-.79-1-1-1-.66.45-1 1m23.064 7.707c-.542 1.425-.428 1.54.56.56.684-.679.991-1.486.683-1.793-.308-.308-.867.247-1.243 1.233M94 111c0 .55.477 1 1.059 1s.781-.45.441-1-.816-1-1.059-1-.441.45-.441 1m40.5 0c.34.55.816 1 1.059 1s.441-.45.441-1-.477-1-1.059-1-.781.45-.441 1m-26.5 1.378c0 .207.787.995 1.75 1.75 1.586 1.243 1.621 1.208.378-.378-1.307-1.666-2.128-2.195-2.128-1.372m9 14.122c-.685.825-.933 1.5-.551 1.5s1.369-.675 2.194-1.5 1.073-1.5.551-1.5-1.509.675-2.194 1.5m3.5 2.5c-.34.55-.141 1 .441 1s1.059-.45 1.059-1-.198-1-.441-1-.719.45-1.059 1m28.372 1.75c-1.269 1.619-1.222 1.64.628.283 1.1-.807 2.188-1.594 2.417-1.75s-.054-.283-.628-.283-1.662.787-2.417 1.75M50.5 137c-.34.55-.141 1 .441 1S52 137.55 52 137s-.198-1-.441-1-.719.45-1.059 1m37.313-.317c.721.289 1.584.253 1.916-.079s-.258-.568-1.312-.525c-1.165.048-1.402.285-.604.604M55 140.393c0 .216.675.652 1.5.969s1.5.139 1.5-.393c0-.533-.675-.969-1.5-.969s-1.5.177-1.5.393M158 146c-1.282.828-1.246.972.25.985.963.008 1.75-.435 1.75-.985 0-1.22-.113-1.22-2 0m-79 1.059c0 .582.45.781 1 .441s1-.816 1-1.059-.45-.441-1-.441-1 .477-1 1.059m85 2.73c0 1.181.283 1.221 1.5.211.825-.685 1.5-1.34 1.5-1.456s-.675-.211-1.5-.211-1.5.655-1.5 1.456M46.5 150c-.351.568-1.057.774-1.569.457-.512-.316-.931-.098-.931.484 0 1.205.686 1.237 3.434.161 1.236-.484 1.531-1.005.819-1.446-.613-.379-1.402-.224-1.753.344m77.5 16.393c0 .216.698.661 1.552.989.89.341 1.291.173.941-.393-.587-.951-2.493-1.406-2.493-.596M118.5 169c-.34.55-.141 1 .441 1s1.059-.45 1.059-1-.198-1-.441-1-.719.45-1.059 1m-12.576 8.631c-2.312 2.51-2.321 2.569-.193 1.272 1.227-.748 2.45-1.932 2.718-2.631.716-1.866.182-1.579-2.525 1.359m10.583-.642c-.35.566.051.734.941.393 1.732-.665 2.049-1.382.611-1.382-.518 0-1.216.445-1.552.989M108.5 181c.34.55.816 1 1.059 1s.441-.45.441-1-.477-1-1.059-1-.781.45-.441 1"/><path fill-opacity=".4" fill-rule="evenodd" d="M0 100.005V200.01l100.25-.255 100.25-.255.255-99.75L201.01 0H0zm.481.495c0 55 .121 77.647.269 50.326.148-27.32.148-72.32 0-100C.602 23.147.481 45.5.481 100.5M89.25 15.698 80 21.202v5.399c0 2.969.2 5.399.444 5.399s4.681-2.481 9.86-5.513l9.416-5.513 34.151 19.744 34.152 19.744-.262 39.459-.261 39.458-33.493 19.311C115.586 169.31 100.155 178 99.716 178c-.438 0-15.845-8.662-34.237-19.25l-33.44-19.25-.02-45.308L32 48.885l-4.999 2.807-4.999 2.808-.001 45.172L22 144.844l38.688 22.328c21.279 12.28 39.074 22.209 39.544 22.063.471-.145 18.166-10.258 39.322-22.473l38.466-22.209-.26-44.965-.26-44.965L139 32.359c-21.175-12.245-38.95-22.241-39.5-22.214s-5.162 2.527-10.25 5.553m-24 13.868L61 32.113v33.801l19.075-11.035c12.473-7.216 19.655-10.816 20.75-10.402.921.348 11.919 6.546 24.44 13.773l22.765 13.141-.265 28.51-.265 28.511-23.882 13.811-23.882 13.811-24.368-14.11L51 127.813V37.885l-4.999 2.807-4.999 2.808.014 45 .014 45 26.128 15c14.37 8.25 27.574 15.839 29.341 16.864l3.214 1.865 29.156-16.808 29.157-16.808-.263-33.999-.263-33.999-28.893-16.691-28.894-16.691-14.356 8.333L71 48.899V37.95c0-6.023-.338-10.946-.75-10.941-.412.006-2.662 1.156-5 2.557M80 66.027 61.5 76.856l-.246 22.822-.246 22.822 19.381 11.131 19.38 11.13 19.366-11.183 19.365-11.183.289-8.712.289-8.713-5.039 3.101c-4.078 2.509-5.039 3.625-5.039 5.85 0 2.488-1.351 3.521-14.271 10.914-7.849 4.491-14.63 8.165-15.069 8.165s-7.067-3.634-14.729-8.075L71 116.849l.018-17.174.018-17.175 14.384-8.255 14.384-8.255 14.348 8.316c13.113 7.6 14.374 8.579 14.652 11.375.249 2.512 1.189 3.542 5.25 5.752L139 94.125V77.452l-19.373-11.226c-10.656-6.174-19.768-11.181-20.25-11.127-.483.055-9.202 4.973-19.377 10.928m9.759 16.857L80.018 88.5l-.009 5.596L80 99.692l7.75 2.225c4.263 1.224 10.158 2.913 13.1 3.754l5.35 1.529-3.09 1.88-3.091 1.879-6.759-3.489c-3.718-1.919-8.223-3.766-10.01-4.104-3.23-.612-3.25-.591-3.25 3.403v4.019l9.625 5.606c5.294 3.083 9.907 5.598 10.25 5.589.344-.01 4.675-2.405 9.625-5.323l9-5.306V99.613l-12.465-3.642-12.466-3.643 2.811-1.841c2.793-1.83 2.853-1.822 8.966 1.249 3.385 1.7 7.842 3.544 9.904 4.097l3.75 1.006v-4.186c0-4.533.045-4.495-15-12.878l-4.5-2.507zM126.75 97.08c-4.181 2.435-.033 8.212 4.25 5.92 2.545-1.362 2.581-4.619.066-5.965-2.302-1.232-2.12-1.234-4.316.045m-.147 2.087c.283.458 1.362.833 2.397.833s2.114-.375 2.397-.833c.283-.459-.795-.834-2.397-.834s-2.68.375-2.397.834"/><path fill-opacity=".043" fill-rule="evenodd" d="M0 100.005V200.01l100.25-.255 100.25-.255.255-99.75L201.01 0H0zm.481.495c0 55 .121 77.647.269 50.326.148-27.32.148-72.32 0-100C.602 23.147.481 45.5.481 100.5m96.083-89.397c.613.992-2.547 2.026-3.809 1.246-.585-.362-.799-.229-.474.296.324.525-.232 1.468-1.236 2.095-1.591.993-1.763.858-1.337-1.05.365-1.638-.029-1.383-1.565 1.011-1.13 1.761-3.447 3.922-5.15 4.803-3.073 1.589-3.094 1.653-2.898 9.068.109 4.108.464 7.202.789 6.878.325-.325.596-1.305.603-2.178.015-1.801 7.486-6.372 9.013-5.514.55.31.665.193.256-.258-.733-.809-.286-1.155 6.291-4.867 2.762-1.56 3.486-1.642 4.384-.5.592.752 1.707 1.503 2.477 1.668.771.166 2.332.954 3.469 1.75 1.511 1.059 1.658 1.449.546 1.449-.838 0-2.154-.562-2.925-1.25-1.2-1.07-1.203-.988-.02.57.842 1.108 2.15 1.618 3.346 1.306 2.777-.727 18.346 8.304 16.513 9.577-.931.646-.685.746.808.329a3.85 3.85 0 0 1 3.714.97c.863.863 1.698 1.512 1.855 1.441.908-.407 5.635 2.493 5.203 3.192-.287.463.174.576 1.023.25.908-.349 1.796.065 2.156 1.006.338.878.936 1.398 1.329 1.155 1.517-.937 7.077 3.462 7.191 5.689.087 1.694.231 1.824.573.515.597-2.284 1.998-2.223 3.481.15.652 1.045 1.781 1.672 2.508 1.393s1.322.018 1.322.659.443.892.985.558c.541-.335 1.781.651 2.754 2.191 1.848 2.92 4.261 4.135 4.261 2.144 0-.653.875-.363 2.011.665 1.959 1.773 2.005 2.845 1.75 40.86l-.261 39.04-2.5.695c-1.375.383-2.05.743-1.5.8s-.8 1.199-3 2.536c-2.237 1.359-4.384 2.053-4.872 1.573-1.064-1.046-3.628-.187-3.628 1.215 0 .586.635.489 1.5-.229.825-.685 1.5-.836 1.5-.335 0 .811-4.073 3.365-16.314 10.233-2.097 1.177-4.833 2.808-6.08 3.624s-2.567 1.183-2.936.815-.67-.097-.67.603c0 .741-.65 1.025-1.552.678-.854-.327-1.301-.19-.995.305.731 1.184-8.363 6.25-9.717 5.414-.653-.404-.741-.154-.234.666.6.971.269 1.17-1.271.768-1.312-.343-1.926-.125-1.661.592.542 1.463-11.236 7.962-12.741 7.031-.699-.432-.863-.258-.424.451 1.118 1.81-.829 1.366-5.399-1.23-2.73-1.55-3.727-2.591-2.852-2.974.801-.351.536-.538-.654-.462-2.686.172-5.62-1.177-4.942-2.272.3-.486-.152-.616-1.006-.289-.854.328-1.552.147-1.552-.403 0-.549-1.166-1.291-2.591-1.648q-2.592-.65-2.031-2.109c.307-.802.123-1.458-.409-1.458-.533 0-.984.563-1.002 1.25s-.863.257-1.876-.957c-1.014-1.215-2.1-1.951-2.414-1.636-.315.314-2.283-.492-4.374-1.791a201 201 0 0 0-7.803-4.553c-2.2-1.205-3.876-2.701-3.725-3.326s-.173-.859-.721-.52c-.547.338-2.424-.124-4.17-1.027-2.518-1.302-2.886-1.848-1.78-2.635 1.08-.769.986-.861-.417-.406-2.113.684-7.687-1.92-7.687-3.591 0-.628-.291-.85-.648-.494-1.173 1.173-8.455-3.604-7.859-5.156.454-1.184.282-1.216-.97-.177C32.163 140.11 32 135.315 32 94.122 32 62.327 31.671 48 30.941 48c-.582 0-.81.403-.506.895.708 1.146-2.273 2.323-3.68 1.454-.626-.387-.771-.184-.353.492.425.688-.328 1.624-1.874 2.328l-2.585 1.178.279 46.231c.165 27.391-.091 46.004-.627 45.673-.497-.308-.559-.001-.137.682.517.835 1.098.911 1.777.232 1.283-1.283 3.765-.371 3.765 1.383 0 .734.52 1.655 1.155 2.047.715.443.883.275.44-.44-1.092-1.768-.039-1.423 5.92 1.94 3.161 1.785 5.491 3.797 5.5 4.75.011 1.134.254 1.28.773.464 1.015-1.597 13.756 5.764 13.601 7.858-.061.825.481 1.5 1.206 1.5.724 0 1.085-.375.802-.834s-.094-.833.422-.833c1.293 0 3.297 2.55 2.573 3.274-.324.325.425.325 1.665.001 1.548-.405 2.034-.23 1.547.556-.426.69-.19.963.594.686 1.858-.657 4.884 1.92 5.064 4.314.084 1.117.49 1.822.902 1.568.412-.255.462-1.211.111-2.125-.511-1.331.143-1.19 3.294.712 6.665 4.023 7.443 4.666 6.675 5.513-.409.451 0 .554.909.229 1.884-.673 5.733 1.72 4.595 2.857-.411.412-.748.223-.748-.418 0-1.507-2.666-1.516-3.595-.012-.452.73-.274.882.484.413.659-.407 1.927-.139 2.817.596 1.257 1.037 1.712 1.059 2.035.101.517-1.537 6.259 1.148 6.259 2.927 0 .628.282.859.627.515.669-.67 6.373 1.949 6.373 2.926 0 .319-.6.351-1.333.069-.734-.281-1.334.111-1.334.872 0 1.042.822.875 3.334-.677 1.833-1.133 3.333-1.798 3.333-1.479 0 .32.935-.353 2.077-1.495 1.143-1.143 2.741-1.823 3.552-1.512.947.364 1.219.151.759-.592-.483-.781-.157-.944 1-.5 1.015.389 1.467.256 1.108-.326-.335-.542.654-1.531 2.198-2.199 1.543-.668 3.879-2.02 5.191-3.004 3.017-2.265 4.228-2.279 3.424-.04-.345.963-.297 1.454.107 1.092s.842-1.397.975-2.3c.33-2.248 16.867-11.675 17.844-10.173.486.748.74.611.75-.403.008-.844 1.432-2.372 3.163-3.394s2.876-1.42 2.544-.883c-.332.538.071.978.895.978.834 0 1.273-.588.99-1.326-.297-.775.768-1.985 2.567-2.916 1.82-.941 2.778-1.107 2.345-.408-.548.887-.234.917 1.259.118 1.094-.586 2.297-.757 2.673-.38.377.376.399-.059.051-.968-.451-1.175.256-2.112 2.447-3.245 1.695-.876 3.095-1.244 3.111-.818s.479.007 1.027-.932c.608-1.043 1.634-1.464 2.633-1.081.959.368 1.384.219 1.026-.361-.337-.545 1.615-2.291 4.336-3.88l4.948-2.89V99.849c0-28.742-.357-44.952-1-45.349-.55-.34-1-1.068-1-1.618s.52-.679 1.155-.287c.744.46.881.273.387-.528-.509-.823-1.103-.906-1.762-.247-1.031 1.031-11.284-3.845-13.305-6.328-.564-.692-1.825-1.424-2.803-1.625-2.169-.448-2.175-2.43-.007-2.21 1.043.105 1.218-.174.538-.854-.663-.663-1.609-.675-2.753-.035-1.265.708-2.786.418-5.554-1.06-2.097-1.119-3.583-2.406-3.302-2.86.28-.454-.267-.527-1.216-.163-1.385.532-1.581.283-.992-1.261.558-1.465.453-1.647-.436-.765-.888.881-2.406.432-6.309-1.864-2.828-1.663-5.472-3.535-5.876-4.159-.404-.625-.744-.686-.755-.136s-1.03-.146-2.265-1.547-1.795-1.894-1.245-1.096c1.487 2.159-4.845-1.264-7.618-4.118-1.197-1.231-1.885-1.72-1.53-1.086.356.635-1.887-.219-4.985-1.896-3.097-1.678-5.859-3.922-6.138-4.988-.327-1.251-.757-1.533-1.213-.796-.499.809-1.702.555-4.119-.871-3.163-1.867-8.302-2.567-7.333-.999M80.5 17c-.34.55-.141 1 .441 1S82 17.55 82 17s-.198-1-.441-1-.719.45-1.059 1m-11.829 8.856c.472 1.815-5.862 5.809-8.602 5.423-.942-.133-1.069.001-.319.333.929.412 1.25 4.89 1.25 17.421v16.866l6.977-4.023c3.876-2.235 7.5-3.699 8.155-3.295.718.444.911.298.495-.376-.747-1.208 2.718-3.526 3.742-2.503.347.347.631.148.631-.442s.9-.837 2-.55c1.162.304 2 .031 2-.652 0-.647-.45-.898-1-.558s-1 .411-1 .158 1.575-1.39 3.5-2.525c3.174-1.873 3.501-1.905 3.515-.349.013 1.431.168 1.475.934.264.506-.799.697-1.811.426-2.25-.493-.798 1.006-1.182 3.391-.869.696.091 1.146-.418 1-1.132-.146-.713.517-1.235 1.473-1.16s1.493-.262 1.191-.75c-.301-.488-.282-.887.043-.887 1.078 0 7.947 3.065 8.492 3.789.294.391 2.73 1.817 5.413 3.168s6.03 3.362 7.436 4.469c1.407 1.106 3.188 2.104 3.959 2.217 1.995.293 5.227 3.414 5.227 5.047 0 1.045.46 1.134 1.895.366 1.407-.753 2.211-.633 3.122.465.676.813 1.816 1.479 2.534 1.479 1.939 0 4.44 2.859 3.849 4.4-.283.738.186 1.611 1.043 1.94.856.328 1.557.161 1.557-.371 0-.533-.477-.969-1.059-.969s-.777-.457-.431-1.016c.397-.642 1.712-.375 3.574.725l2.946 1.74-.265 28.404c-.265 28.402-.265 28.404-2.567 29.932-1.266.841-2.166 1.12-2 .622s-.148-.99-.698-1.091c-.55-.102-.89.365-.755 1.037.321 1.603-5.415 4.969-6.902 4.05-.713-.441-.88-.272-.438.442.416.674.098 1.155-.763 1.155-.811 0-1.625.382-1.809.848-.605 1.541-9.945 6.201-11.055 5.515-.635-.392-.801-.209-.4.44.399.645-.576 1.765-2.318 2.666-2.806 1.451-2.971 1.437-2.469-.207.295-.969-.182-.525-1.059.988-1.569 2.704-2.553 3.197-5.532 2.773-.825-.117-1.174.118-.776.523.398.404-1.305 2.022-3.785 3.595-4.909 3.113-5.938 3.475-4.844 1.704.439-.71.275-.883-.426-.449-1.409.87-10.382-4.243-9.617-5.48.303-.491-.034-.681-.75-.422-1.692.612-18.078-8.885-17.07-9.893.423-.422.318-.641-.232-.486-2.216.623-5.64-1.307-5.049-2.847.494-1.288.336-1.336-.928-.287-1.381 1.146-1.942.74-1.653-1.195.058-.393-.564-.457-1.382-.143s-1.488.046-1.488-.595-.366-.94-.812-.664c-1.02.63-6.412-2.827-5.629-3.609.316-.316-.243-.508-1.242-.425-1.728.143-1.83-2.074-2.077-45.189l-.261-45.339-4.239 2.451c-2.332 1.347-4.874 2.226-5.649 1.952-.995-.351-1.216.008-.75 1.22.362.945.659 21.9.659 46.567v44.849l2.25.319c1.238.176 2.25.995 2.25 1.82 0 .958 1.029 1.537 2.85 1.602 1.567.057 3.142.532 3.5 1.057.357.525 2.112 1.546 3.9 2.269s3.25 1.973 3.25 2.777.563 1.256 1.25 1.004c1.748-.641 8.804 3.395 8.055 4.607-.339.549-.11.682.512.297 1.106-.683 5.973 1.852 7.418 3.864.404.563.741.699.75.302.032-1.501 9.516 4.943 9.528 6.474.007.883.416 1.975.91 2.426.508.465.604.308.221-.36-1.059-1.848 1.293-2.672 3.169-1.11.928.772 3.014 1.972 4.635 2.666 2.38 1.019 2.669 1.454 1.5 2.259-1.056.727-.771.815 1.052.326 1.375-.368 7.118-3.346 12.761-6.617 5.644-3.271 10.776-5.629 11.405-5.24.663.41.871.266.494-.344-.357-.577.047-1.316.898-1.643 1.04-.399 1.313-.188.834.645-.392.682-.344.905.106.498s1.422-.24 2.16.372c.88.731 1.342.757 1.342.075 0-.572-.562-1.274-1.25-1.56-.887-.369-.686-.975.691-2.083 1.38-1.111 2.143-1.236 2.641-.431.449.727 1.328.172 2.456-1.55.967-1.476 2.295-2.476 2.951-2.225.656.252 1.827.007 2.602-.544 1.116-.793 1.045-.884-.341-.439-2.761.888-2.043-.171 1.279-1.889 1.667-.862 3.478-1.29 4.025-.952s.872.137.721-.449c-.419-1.622 9.957-7.326 10.57-5.811.28.69.532.442.576-.567.043-.986.642-1.721 1.329-1.631 2.771.36 4.285-.083 3.024-.885-.928-.589-1.245-9.238-1.299-35.513-.046-21.688-.43-34.514-1.024-34.147-.523.324-.951.085-.951-.53s-.45-.84-1-.5-1 .115-1-.5-.366-.892-.812-.616c-1.145.708-6.362-2.877-5.477-3.762.401-.4-.046-.431-.991-.068-1.199.46-1.72.159-1.72-.991 0-.908-.562-1.56-1.25-1.449-1.806.291-5.118-1.244-6.061-2.81-.447-.74-1.14-1.143-1.542-.895s-3.637-1.287-7.189-3.412-8.385-4.881-10.741-6.124c-2.863-1.511-4.098-2.74-3.727-3.708.43-1.119.249-1.193-.798-.324-1.028.853-1.815.693-3.273-.665-1.055-.983-2.369-1.988-2.919-2.232s-.893-.765-.762-1.158-.432-.457-1.25-.143-1.488.046-1.488-.595-.359-.944-.798-.673-1.436.098-2.216-.384a2.305 2.305 0 0 0-2.702.189c-.916.759-1.284.743-1.284-.058 0-.617-.498-1.122-1.107-1.122s-.848.675-.531 1.5.139 1.5-.393 1.5H93.5c-.275 0-1.435.935-2.577 2.077-1.143 1.143-2.741 1.823-3.552 1.512s-1.255-.211-.987.223c.268.435-3.057 2.858-7.389 5.387l-7.877 4.596-.309-11.305c-.173-6.339.077-11.065.571-10.758.484.3.684-.039.446-.755-.661-1.983-3.67-2.098-3.155-.121m-7.557 3.073c-.859.532-.962 1.047-.29 1.462.571.353 1.339.154 1.707-.441.918-1.486.188-2.012-1.417-1.021m75.515.548c.322.838 1.212 1.523 1.978 1.523 1.953 0 1.734-.747-.584-1.988-1.614-.863-1.87-.778-1.394.465m-17.908 4.809c-.292.759.256 1.285 1.337 1.285 1.379 0 1.568-.317.764-1.285-.587-.707-1.189-1.286-1.337-1.286-.149 0-.493.579-.764 1.286M150 37.059c0 .582.45.781 1 .441s1-.816 1-1.059-.45-.441-1-.441-1 .477-1 1.059m13.564 6.648c-.542 1.425-.428 1.54.56.56.684-.679.991-1.486.683-1.793-.308-.308-.867.247-1.243 1.233M73 45c-.901.582-1.025.975-.309.985.655.008 1.469-.435 1.809-.985.767-1.242.421-1.242-1.5 0m52.507-.011c-.35.566.051.734.941.393 1.732-.665 2.049-1.382.611-1.382-.518 0-1.216.445-1.552.989m41.572.594c.048 1.165.285 1.402.604.605.289-.722.253-1.585-.079-1.917s-.568.258-.525 1.312m-22.94 3.331c1.299 1.053 2.553 1.723 2.788 1.49.514-.511-3.067-3.327-4.288-3.372-.473-.018.202.829 1.5 1.882m-49.596 1.017c-.317.512-.193 1.167.274 1.456s.85-.13.85-.931c0-1.686-.316-1.833-1.124-.525M99 52c0 2.817-3.539 6.104-5.727 5.318-.975-.35-1.437-.267-1.027.186.411.452-.697 1.7-2.462 2.773-2.08 1.266-3.338 1.56-3.579.837C86 60.501 85.366 60 84.794 60c-.65 0-.594.536.148 1.43.95 1.145.77 1.654-.898 2.547-1.147.613-2.596.8-3.219.415-.624-.386-.863-.263-.532.273.771 1.247-10.126 7.556-11.54 6.682-.587-.363-.772-.187-.413.394.616.997-1.995 2.755-3.59 2.418-.412-.088-.75.291-.75.841s-.788 1-1.75 1.001c-1.618 0-1.75 1.806-1.75 23.905 0 13.147.331 23.699.737 23.449.405-.251 4.777 1.901 9.716 4.782 7.702 4.492 8.808 5.46 7.764 6.8-1.064 1.366-1.003 1.395.487.229 1.439-1.127 2.167-1.06 4.695.434 1.646.972 2.768 2.129 2.495 2.572-.274.443.274.509 1.218.147 1.157-.444 1.483-.281 1 .5-.468.756-.178.952.836.563.854-.328 1.552-.188 1.552.31s1.511 1.452 3.357 2.12 4.166 2.108 5.155 3.201c1.971 2.178 3.488 2.581 3.488.928 0-.582-.419-.8-.931-.484s-1.151.219-1.421-.218c-.27-.436.824-1.547 2.431-2.469 2.741-1.574 2.922-1.572 2.936.027.013 1.423.167 1.464.934.251.506-.799.697-1.811.426-2.25-.451-.73 1.041-1.206 2.875-.916.412.065.75-.294.75-.797 0-.502 2.036-2.052 4.524-3.442s4.28-2.136 3.983-1.655-.071 1.163.501 1.517c.573.354.977.273.898-.181-.351-2.024.178-3.39 1.094-2.824.55.34 1 .119 1-.492s1.463-1.787 3.25-2.614c3.707-1.715 9.793-5.337 11.856-7.055 1.037-.864 1.31-3.246 1.066-9.308-.273-6.786-.558-7.955-1.706-7.003-.758.629-1.918.811-2.577.404-.813-.503-.935-.315-.379.583.599.97.358 1.149-.898.666-.969-.372-1.464-.25-1.136.28.583.944-2.843 3.338-3.639 2.542-.235-.234-.257 1.028-.049 2.805.338 2.894-.049 3.471-3.709 5.528-2.634 1.48-4.885 2.072-6.333 1.665-1.773-.499-1.93-.407-.746.433 1.333.948 1.333 1.175 0 2.051-.825.541-2.062.991-2.75 1-.687.008-1.25.435-1.25.948 0 .852-2.427 2.026-4.25 2.055-.412.007-1.685.947-2.827 2.089-1.143 1.143-2.741 1.823-3.552 1.512s-1.229-.168-.929.318-.163 1.156-1.03 1.488c-2.663 1.022-3.655.679-2.996-1.036.527-1.373.38-1.435-.893-.378-.838.695-1.523.849-1.523.342s-1.575-1.491-3.5-2.187-3.5-1.596-3.5-2-1.487-1.272-3.305-1.929c-1.818-.658-4.181-2.011-5.25-3.007-1.07-.997-2.287-1.89-2.705-1.986-.419-.095-2.106-.869-3.75-1.719L71 116.949l.012-17.225.011-17.224 10.739-6.141c8.49-4.855 11.04-5.902 12.18-5 1.088.861 1.27.854.741-.028-.931-1.552 2.188-4.594 3.998-3.9.788.303 1.15.105.812-.442-.834-1.35.842-1.254 2.223.127 1.261 1.261 3.867 2.804 10.034 5.942 2.371 1.206 4.257 2.887 4.265 3.802.01 1.085.265 1.249.752.483.522-.821 1.973-.427 4.985 1.351 2.336 1.38 4.248 2.913 4.248 3.408 0 .494.734.898 1.632.898 1.339 0 1.53.752 1.068 4.198q-.563 4.198.376 2.75c.776-1.197 1.299-1.015 3.018 1.052 1.144 1.375 1.766 1.9 1.383 1.167-.516-.986.11-.915 2.413.276 1.71.885 3.143 1.259 3.183.833.04-.427.009-4.125-.071-8.218-.163-8.412.229-7.892-10.344-13.723-3.764-2.075-6.351-3.937-5.75-4.138.6-.2 1.092-.792 1.092-1.316 0-.582-.678-.602-1.75-.051-1.991 1.025-7.764-1.93-6.498-3.326.411-.453.191-.504-.49-.113-.7.403-4.325-1.121-8.335-3.504-6.079-3.611-7.033-4.551-6.651-6.552.246-1.284.059-2.335-.415-2.335-.473 0-.861.9-.861 2m-76.5 0c-.34.55-.141 1 .441 1S24 52.55 24 52s-.198-1-.441-1-.719.45-1.059 1m89.259.092c.673.876.89 1.96.482 2.41-.407.45-.217.519.424.152.64-.367 1.392-.101 1.671.59.289.718.54.787.585.161.043-.602-.926-1.952-2.154-3-1.368-1.167-1.758-1.288-1.008-.313m-25.68 2.491c.048 1.165.285 1.402.604.605.289-.722.253-1.585-.079-1.917s-.568.258-.525 1.312M154 57.393c0 .216.698.661 1.552.989.89.341 1.291.173.941-.393-.587-.951-2.493-1.406-2.493-.596M78 59c0 .55.45 1 1 1s1-.45 1-1-.45-1-1-1-1 .45-1 1m-12.51 7.016c-.346.559-1.117.715-1.714.346-.663-.41-.796-.203-.341.532.575.931 1.119.917 2.404-.062a86 86 0 0 1 2.078-1.549c.229-.156-.082-.283-.691-.283-.61 0-1.391.457-1.736 1.016m67.123 1.167c.289.467.944.591 1.456.274 1.308-.808 1.161-1.124-.525-1.124-.801 0-1.22.383-.931.85M68.5 69c-.34.55-.141 1 .441 1S70 69.55 70 69s-.198-1-.441-1-.719.45-1.059 1m28.372 1.75c-1.269 1.619-1.222 1.64.628.283 1.1-.807 2.188-1.594 2.417-1.75S99.863 69 99.289 69s-1.662.787-2.417 1.75m-6.892 2.774c-.696.838-1.071 1.718-.835 1.955.237.236.98-.449 1.651-1.524 1.452-2.325.968-2.58-.816-.431M134.5 73c-.34.55-.141 1 .441 1S136 73.55 136 73s-.198-1-.441-1-.719.45-1.059 1m-78.5.941c0 .518.445 1.216.989 1.552.566.35.734-.051.393-.941C56.717 72.82 56 72.503 56 73.941m86.667-.274c-.367.366-.667 1.131-.667 1.7 0 .626.466.567 1.183-.15.651-.651.951-1.416.667-1.7s-.817-.217-1.183.15m-44.975 3.974c.438 1.139.268 1.452-.522.964-.644-.398-1.17-.328-1.17.156 0 .483-2.138 2.01-4.75 3.392-11.624 6.152-11.237 5.734-11.244 12.122-.006 5.612.078 5.792 2.978 6.372 1.641.328 2.779.927 2.53 1.33-.249.404.658.522 2.016.262s2.47-.02 2.47.533.563.955 1.25.892c2.694-.244 12.75 2.717 12.75 3.755 0 .605-.921 1.675-2.047 2.378-1.741 1.087-2.631.95-5.959-.921-2.152-1.209-3.636-2.646-3.299-3.192s.142-.702-.434-.345c-.576.356-2.953-.025-5.28-.846S82.13 103 81.374 103c-2.204 0-1.684 7.071.735 10 1.136 1.375 1.774 1.938 1.419 1.25s-.282-1.236.163-1.218c1.523.06 4.309 2.687 4.324 4.078.013 1.161.157 1.167.875.033.6-.946 1.067-1.021 1.544-.25.376.609.406 1.557.066 2.107s.11 1 1 1c.964 0 1.331-.465.908-1.149-.391-.632 1.17-.092 3.468 1.2 4.002 2.249 4.298 2.277 7.011.675 1.558-.92 3.193-1.348 3.633-.95s.477.162.081-.526c-.395-.687-.219-1.25.393-1.25s2.768-1.125 4.791-2.5c4.346-2.953 5.376-3.124 4.524-.75-.345.963-.297 1.454.107 1.092s.857-1.262 1.008-2 .594-2.074.985-2.969.571-3.815.401-6.489l-.31-4.862-9.5-2.768c-5.225-1.523-10.175-3.061-11-3.419s-2.151-.539-2.946-.404c-1.248.213-1.253.014-.037-1.452.794-.956 1.563-1.238 1.761-.645.193.58 1.035.791 1.87.471 1.233-.473 1.268-.743.186-1.429-1.022-.647-.924-.849.416-.861 2.016-.017 2.257 1.078.601 2.734-.866.866-.646 1.111.89.996 1.303-.099 1.846-.659 1.503-1.552-.35-.911 1.165-.492 4.352 1.205 2.688 1.431 5.432 2.602 6.096 2.602.665 0 1.667.787 2.228 1.75.676 1.162 1.029 1.294 1.05.393.017-.791.656-1.117 1.53-.781 1.189.456 1.5-.31 1.5-3.693 0-2.348.529-4.798 1.177-5.446.902-.902.641-1.073-1.117-.734-2.122.408-8.06-1.856-8.06-3.074 0-.293.52-.212 1.155.18.721.446.882.274.43-.457-.398-.644-1.144-.911-1.658-.593-1.343.83-8.966-3.672-8.232-4.861.341-.551.11-.681-.52-.292-.623.385-2.033.219-3.132-.369-1.685-.902-1.897-.805-1.351.618M81 79c0 .55.675 1 1.5 1s1.5-.45 1.5-1-.675-1-1.5-1-1.5.45-1.5 1m7.813 2.683c.721.289 1.584.253 1.916-.079s-.258-.568-1.312-.525c-1.165.048-1.402.285-.604.604m-8.941 3.981c-1.226 1.487-1.16 1.554.628.635 1.1-.566 2.675-1.279 3.5-1.585 1.03-.382.833-.581-.628-.635-1.17-.043-2.745.67-3.5 1.585m44.603 12.086c.511 1.744.251 2.258-1.158 2.285-1.479.029-1.37.283.584 1.367 1.703.943 1.994 1.467 1 1.798-.77.258.527.447 2.884.42 3.69-.042 4.37-.388 4.897-2.49.674-2.685-1.932-5.421-4.663-4.895-2.48.477-1.124 2.282 1.558 2.074 1.358-.106 2.207.232 1.887.75-1.05 1.698-4.318.985-6-1.309l-1.649-2.25zM133 96.393c0 .216.698.661 1.552.989.89.341 1.291.173.941-.393-.587-.951-2.493-1.406-2.493-.596M97 107c0 .55.702 1 1.559 1s1.281-.45.941-1-1.041-1-1.559-1-.941.45-.941 1m-1.436 16.707c-.542 1.425-.428 1.54.56.56.684-.679.991-1.486.683-1.793-.308-.308-.867.247-1.243 1.233M111 125.059c0 .582.45.781 1 .441s1-.816 1-1.059-.45-.441-1-.441-1 .477-1 1.059M64 127c0 .55.477 1 1.059 1s.781-.45.441-1-.816-1-1.059-1-.441.45-.441 1m67.405 1.142c-1.898 2.134-1.897 2.136.345.759 1.238-.76 2.25-1.724 2.25-2.142 0-1.205-.557-.909-2.595 1.383M59.158 129c0 1.375.227 1.938.504 1.25.278-.687.278-1.812 0-2.5-.277-.687-.504-.125-.504 1.25m11.406 1.707c-.542 1.425-.428 1.54.56.56.684-.679.991-1.486.683-1.793-.308-.308-.867.247-1.243 1.233m66.249 1.976c.721.289 1.584.253 1.916-.079s-.258-.568-1.312-.525c-1.165.048-1.402.285-.604.604M122.5 135c.34.55.816 1 1.059 1s.441-.45.441-1-.477-1-1.059-1-.781.45-.441 1m-83.277 5.572c-.11 1.335-.033 2.428.172 2.428.743 0 1.398-4.01.723-4.427-.381-.236-.784.664-.895 1.999m38.284.417c-.35.566.051.734.941.393 1.732-.665 2.049-1.382.611-1.382-.518 0-1.216.445-1.552.989M155 141c-1.282.828-1.246.972.25.985.963.008 1.75-.435 1.75-.985 0-1.22-.113-1.22-2 0m-59.131 3.342c.612.738.78 1.71.372 2.16-.407.45-.157.481.558.069 1-.577 1.029-1.073.127-2.16-.644-.776-1.396-1.411-1.671-1.411s.001.604.614 1.342M103 149c0 .55.45 1 1 1s1-.45 1-1-.45-1-1-1-1 .45-1 1m41-.059c0 .518.445 1.216.989 1.552.566.35.734-.051.393-.941-.665-1.732-1.382-2.049-1.382-.611m29-.548c0 .216.698.661 1.552.989.89.341 1.291.173.941-.393-.587-.951-2.493-1.406-2.493-.596m-108.541 1.674c-.363.586-.389 1.336-.059 1.666s.6.049.6-.625.52-.905 1.155-.513c.715.443.883.275.44-.44-.884-1.431-1.296-1.448-2.136-.088m105.541.719c0 .432.867.785 1.927.785 1.059 0 1.708-.353 1.441-.785-.268-.432-1.134-.786-1.927-.786s-1.441.354-1.441.786M100.5 153c.34.55.816 1 1.059 1s.441-.45.441-1-.477-1-1.059-1-.781.45-.441 1m-66 3c-.34.55-.141 1 .441 1S36 156.55 36 156s-.198-1-.441-1-.719.45-1.059 1m32.064 1.293c.376.986.935 1.541 1.243 1.233s.001-1.114-.683-1.793c-.988-.98-1.102-.865-.56.56m46.926 4.723c-.346.559-1.016.777-1.49.484s-1.125-.106-1.447.415c-1.194 1.931 1.266 1.977 3.471.064 1.255-1.088 1.79-1.979 1.188-1.979s-1.377.457-1.722 1.016M106.5 165c-.995 1.1-1.398 2-.896 2 .503 0 1.477-.9 2.164-2s1.09-2 .895-2c-.194 0-1.168.9-2.163 2m10 0c-.34.55-.141 1 .441 1s1.059-.45 1.059-1-.198-1-.441-1-.719.45-1.059 1m28.372 1.75c-1.269 1.619-1.222 1.64.628.283 1.1-.807 2.188-1.594 2.417-1.75s-.054-.283-.628-.283-1.662.787-2.417 1.75M137 170c-.901.582-1.025.975-.309.985.655.008 1.469-.435 1.809-.985.767-1.242.421-1.242-1.5 0m-8.5 5c-1.319.567-1.489.878-.5.914.825.031 2.175-.381 3-.914 1.828-1.181.249-1.181-2.5 0m-2 3c-.34.55-.141 1 .441 1s1.059-.45 1.059-1-.198-1-.441-1-.719.45-1.059 1"/><path fill-opacity=".111" fill-rule="evenodd" d="M98.835 8.758c-.916.196-1.914 1.007-2.22 1.802-.472 1.23-.21 1.221 1.745-.06 1.265-.829 2.556-1.25 2.87-.937.313.314.82.165 1.126-.33.575-.93-.633-1.093-3.521-.475M105.5 13c.34.55.816 1 1.059 1s.441-.45.441-1-.477-1-1.059-1-.781.45-.441 1m-15.628 1.75c-1.269 1.619-1.222 1.64.628.283 1.1-.807 2.188-1.594 2.417-1.75S92.863 13 92.289 13s-1.662.787-2.417 1.75M109 14.409c0 .19.675.906 1.5 1.591.865.718 1.5.815 1.5.229 0-.558-.675-1.274-1.5-1.591s-1.5-.419-1.5-.229m-26.041 3.667c-1.016 1.899-.934 1.981.965.965C85.066 18.43 86 17.495 86 16.965c0-1.717-1.898-1.023-3.041 1.111M113 16.987c0 1.175 2.848 2.067 3.457 1.083.286-.463-.374-1.077-1.468-1.363s-1.989-.16-1.989.28m-14.368 4.799c-.267.432.349.785 1.368.785s1.635-.353 1.368-.785C101.1 21.354 100.485 21 100 21s-1.1.354-1.368.786m-4.191 2.682c-1.067.808-1.434 1.483-.813 1.5.62.018 1.687-.643 2.372-1.468 1.581-1.905.935-1.918-1.559-.032m34.892 1.183c0 .984.337 1.038 1.334.211.733-.609 1.333-1.202 1.333-1.318s-.6-.211-1.333-.211a1.33 1.33 0 0 0-1.334 1.318m-61.254.932c.048 1.165.285 1.402.604.605.289-.722.253-1.585-.079-1.917s-.568.258-.525 1.312m-6.329 3.948c-2.374 3.182-2.208 3.927.313 1.407 1.134-1.135 1.921-2.443 1.75-2.908s-1.101.211-2.063 1.501M112 29c0 .55.477 1 1.059 1s.781-.45.441-1-.816-1-1.059-1-.441.45-.441 1m6.5 3.485c1.1.911 1.925 1.962 1.834 2.336-.092.373.95.746 2.315.827 1.364.082 2.339.047 2.166-.076-2.227-1.588-7.787-4.306-6.315-3.087M138 32c.825.533 2.4.945 3.5.914l2-.055-2-.859c-1.1-.473-2.675-.884-3.5-.914-1.333-.049-1.333.052 0 .914m-57.436 1.707c-.542 1.425-.428 1.54.56.56.684-.679.991-1.486.683-1.793-.308-.308-.867.247-1.243 1.233m13.074-.207c-.347.905-.005 1.5.862 1.5s1.209-.595.862-1.5c-.317-.825-.705-1.5-.862-1.5s-.545.675-.862 1.5m49.946.141c-.527 1.373-.38 1.435.893.378 1.735-1.44 1.916-2.019.63-2.019-.491 0-1.176.739-1.523 1.641M60.397 50c0 7.975.156 11.237.346 7.25s.189-10.513 0-14.5c-.19-3.987-.346-.725-.346 7.25m26.322-12.25c.582 1.553.459 1.59-1.088.331-1.475-1.201-1.697-1.205-1.437-.024.176.805-.646 1.541-1.944 1.739-2.356.359-2.953 1.651-1.25 2.704.55.34 1 .115 1-.5s.403-.869.895-.565c.493.305 1.178-.183 1.524-1.084.345-.9.9-1.366 1.231-1.034.623.623 6.35-1.972 6.35-2.878 0-.28-.9-.028-2 .561-1.356.726-2 .737-2 .035 0-.569-.436-1.035-.969-1.035s-.673.788-.312 1.75M109 37.107c0 .609.62.869 1.378.578s1.974-.001 2.702.643c1.097.971 1.097.872-.001-.578-1.474-1.949-4.079-2.359-4.079-.643M51.224 82.191c-.123 25.13.114 45.9.526 46.155.682.423.669-33.061-.029-75.346-.15-9.075-.374 4.061-.497 29.191m76.252-43.572c.891.891 1.922 1.316 2.293.946.37-.371.011-1.092-.798-1.604-2.362-1.494-3.254-1.101-1.495.658m22.081-.201c1.067.78 2.153 1.206 2.412.946.551-.55-2.028-2.326-3.41-2.349-.518-.008-.068.623.998 1.403m7.986 3.513c-.665 1.076 1.292 2.567 2.19 1.669.33-.33.049-.6-.625-.6s-.948-.45-.608-1 .393-1 .118-1-.759.419-1.075.931m-38.81 1.193c.679.684 1.486.991 1.793.683.308-.308-.247-.867-1.233-1.243-1.425-.542-1.54-.428-.56.56m15.899-.338c-.267.432.349.785 1.368.785s1.635-.353 1.368-.785C137.1 42.354 136.485 42 136 42s-1.1.354-1.368.786m-61.299 2.67c0 .801.383 1.22.85.931s.591-.944.274-1.456c-.808-1.308-1.124-1.161-1.124.525M97.2 45.2c-.66.66-1.186 1.673-1.17 2.25s.489.262 1.05-.7S98.554 45 99.109 45s.755.41.445.912c-.699 1.132 2.097.799 3.167-.377.428-.47.248-.551-.402-.179-.649.372-1.463.219-1.809-.34-.828-1.34-1.843-1.283-3.31.184m26.502.467c.282.733.839 1.333 1.238 1.333.4 0 .727-.6.727-1.333 0-.734-.557-1.334-1.238-1.334s-1.008.6-.727 1.334m40.327-.706c-.809.512-1.085 1.292-.613 1.735.472.442 1.06.239 1.306-.452.247-.691.86-1.002 1.363-.691s.915.088.915-.494c0-1.296-1.023-1.33-2.971-.098m-22.633.871c.339.548.051 1.232-.64 1.519s-.131.438 1.244.336c1.429-.107 2.407.307 2.282.967-.262 1.384 2.513 3.884 3.366 3.032 1.157-1.158-.576-3.598-3.707-5.216-1.738-.899-2.884-1.186-2.545-.638M40.459 90c0 23.925.13 33.713.29 21.75.159-11.962.159-31.537 0-43.5-.16-11.962-.29-2.175-.29 21.75m52.144-42.167c-.283.459.12.834.897.834s1.18-.375.897-.834S93.71 47 93.5 47s-.614.375-.897.833m12 0c-.283.459.12.834.897.834s1.18-.375.897-.834S105.71 47 105.5 47s-.614.375-.897.833m25.055-.126c-1.715.442-1.693.58.314 1.986 1.187.831 2.453 1.216 2.814.855s.056-1.028-.678-1.481c-1.107-.684-1.102-.917.029-1.367 1.65-.656.075-.652-2.479.007m37.739.793c1.044.79 2.364 1.148 2.934.795.598-.369.218-.96-.897-1.397-3.127-1.225-4.078-.943-2.037.602m-139.563.376c1.063.674.994.976-.34 1.488-.921.353-2.009.436-2.418.183-.408-.252-.743.196-.743.997 0 1.826.187 1.817 3.194-.153 2.414-1.583 2.503-3.406.164-3.376-.812.011-.767.284.143.861m106.236.815c-.038 1.205.38 2.469.93 2.809 1.183.731 1.183-.248 0-3-.829-1.928-.862-1.921-.93.191M145.5 50c.34.55.816 1 1.059 1s.441-.45.441-1-.477-1-1.059-1-.781.45-.441 1m-35.845.75c-.255.413.688.819 2.094.904 1.844.111 2.166-.094 1.154-.735-1.731-1.096-2.646-1.144-3.248-.169m39.428-.467c.23.156 1.317.943 2.417 1.75 1.85 1.357 1.897 1.336.628-.283-.755-.962-1.843-1.75-2.417-1.75s-.857.127-.628.283M86.638 53.5c.317.825.753 1.5.969 1.5s.393-.675.393-1.5-.436-1.5-.969-1.5-.709.675-.393 1.5m51 0c.317.825 1.235 1.5 2.04 1.5 1.271 0 1.266-.199-.035-1.5-.825-.825-1.743-1.5-2.04-1.5s-.281.675.035 1.5M115 54c0 .55.477 1 1.059 1s.781-.45.441-1-.816-1-1.059-1-.441.45-.441 1m61-.622c0 .207.685.946 1.523 1.641 1.273 1.057 1.42.995.893-.378-.538-1.401-2.416-2.384-2.416-1.263M21.224 99.191c-.123 25.13.114 45.9.526 46.155.682.423.669-33.061-.029-75.346-.15-9.075-.374 4.061-.497 29.191M118 54.449c0 .382.675 1.369 1.5 2.194s1.5 1.073 1.5.551-.675-1.509-1.5-2.194-1.5-.933-1.5-.551M153 55c0 .55.477 1 1.059 1s.781-.45.441-1-.816-1-1.059-1-.441.45-.441 1m-57.473.956c-.325.526-1.364.709-2.309.406-1.37-.439-1.432-.348-.309.451 1.533 1.09 4.091.515 4.091-.92 0-1.17-.73-1.139-1.473.063M106 57.5c0 .825.436 1.5.969 1.5s.709-.675.393-1.5c-.317-.825-.753-1.5-.969-1.5s-.393.675-.393 1.5m40.333-.044c0 .801.383 1.22.85.931s.591-.944.274-1.456c-.808-1.308-1.124-1.161-1.124.525m-24.122 1.145c-.71.769-.849 1.399-.309 1.399 1.038 0 2.541-1.902 1.948-2.466-.192-.183-.93.297-1.639 1.067M74 58.393c0 .216.698.661 1.552.989.89.341 1.291.173.941-.393-.587-.951-2.493-1.406-2.493-.596m-4.319 2.479c-2.658 1.752-2.701 1.89-.749 2.4 1.208.316 1.82.136 1.469-.432-.331-.535.231-1.604 1.249-2.375 2.701-2.046 1.318-1.761-1.969.407m16.569.348c-1.237.597-2.25 1.477-2.25 1.956s1.125.133 2.5-.768c3.668-2.403 3.539-3.015-.25-1.188M110.5 61c.34.55.816 1 1.059 1s.441-.45.441-1-.477-1-1.059-1-.781.45-.441 1m54.03-.049c-.615.996.045 1.436 1.74 1.161.424-.069.742 17.202.707 38.381-.058 34.249-.486 41.177-2.319 37.482-.279-.564-.392-.451-.25.25s.896 1.275 1.675 1.275c2.13 0 2.635-76.659.518-78.416-.971-.806-1.629-.848-2.071-.133m-31.966 2.342c.376.986.935 1.541 1.243 1.233s.001-1.114-.683-1.793c-.988-.98-1.102-.865-.56.56m-68.94.993c-1.659 1.213-1.651 1.285.142 1.285 1.045 0 1.901-.578 1.901-1.285S65.603 63 65.524 63s-.933.579-1.9 1.286m14.981.884c.491.794.171.958-.993.511-1.043-.4-1.47-.26-1.089.356.345.558-.757 1.497-2.448 2.087-1.691.589-3.075 1.464-3.075 1.942 0 .479-.787.618-1.75.308-1.44-.463-1.49-.379-.284.474 1.018.72 1.863.709 2.762-.038.713-.591 2.726-1.803 4.474-2.692C79.421 66.48 81.12 64 79.024 64c-.628 0-.817.526-.419 1.17M119 64.882c0 .55.45 1.278 1 1.618s1 .168 1-.382-.45-1.278-1-1.618-1-.168-1 .382M158.45 98c0 18.975.134 26.737.298 17.25.165-9.488.165-25.013 0-34.5-.164-9.488-.298-1.725-.298 17.25m-22.371-31.25c.048 1.056.28 1.252.585.494.279-.691.988-.959 1.576-.596.632.391.777.189.355-.493-1.078-1.745-2.605-1.384-2.516.595m-38.829.541c-2.554 1.152-2.963 2.376-.794 2.376.801 0 1.253-.328 1.006-.729-.566-.915 2.128-2.014 2.942-1.2.33.33-.114 1.39-.988 2.355-1.458 1.611-1.445 1.734.161 1.499 2.039-.3 2.959-4.177 1.152-4.855-.676-.254-2.242-.005-3.479.554m7.149 2.959c-.396.688-.351.916.099.509s1.534-.183 2.41.5c1.409 1.098 1.434 1.039.22-.509-1.636-2.086-1.8-2.116-2.729-.5m20.662-.908c.241.213 1.504.942 2.805 1.62 1.888.983 2.281.979 1.947-.023-.23-.691-1.493-1.42-2.805-1.62s-2.189-.19-1.947.023m17.489.546c.522.488 2.075 1.209 3.45 1.603 2.429.695 2.443.671.5-.856-2.107-1.655-5.637-2.324-3.95-.747m-52.107 1.53c-1.067.78-1.716 1.622-1.441 1.871s1.364-.389 2.423-1.418c2.277-2.214 1.755-2.454-.982-.453M132 73.049c.825.56 2.4 1.508 3.5 2.108 1.767.963 1.743.842-.208-1.034-1.215-1.167-2.79-2.116-3.5-2.108-.924.011-.864.306.208 1.034m-21 .982c0 .533.675.969 1.5.969s1.5-.177 1.5-.393-.675-.652-1.5-.969-1.5-.139-1.5.393M84.5 75c-.34.55-.141 1 .441 1S86 75.55 86 75s-.198-1-.441-1-.719.45-1.059 1m11 2c-.34.55-.141 1 .441 1S97 77.55 97 77s-.198-1-.441-1-.719.45-1.059 1m6.113 1.183c.289.467.944.591 1.456.274 1.308-.808 1.161-1.124-.525-1.124-.801 0-1.22.383-.931.85m16.2.551c-1.105 1.339-1.075 1.507.187 1.059.825-.293 2.963.06 4.75.786 4.211 1.709 4.136 1.141-.187-1.409-3.121-1.842-3.557-1.882-4.75-.436m-41.372.716c-1.875 1.401-1.864 1.431.309.884 1.237-.312 2.25-.965 2.25-1.451 0-1.19-.295-1.124-2.559.567M60.423 100.5c.001 11.55.147 16.138.324 10.196s.176-15.393-.002-21c-.178-5.608-.323-.746-.322 10.804m47.743-19.624c-1.085.688-1.054.953.167 1.422.826.317 1.75-.071 2.053-.861.618-1.612-.226-1.825-2.22-.561M73 81.902c0 1.038 1.902 2.541 2.466 1.948.183-.192-.297-.93-1.067-1.639-.769-.71-1.399-.849-1.399-.309M128.232 86c0 1.925.206 2.713.457 1.75.252-.963.252-2.537 0-3.5-.251-.963-.457-.175-.457 1.75m-46.673.532c-1.068.807-1.518 1.454-1 1.436.517-.017 1.815-.692 2.882-1.5 1.068-.807 1.518-1.454 1-1.436-.517.017-1.815.692-2.882 1.5M119.272 93c0 2.475.195 3.487.434 2.25.238-1.237.238-3.263 0-4.5-.239-1.237-.434-.225-.434 2.25m-24.255-1.521c-1.216 1.466-1.211 1.665.037 1.45.795-.138 2.746.285 4.335.939s3.104.972 3.368.709c.263-.264-.696-.775-2.132-1.135-1.462-.367-2.326-1.117-1.964-1.703.36-.581.172-.754-.421-.387-.588.363-1.237.158-1.441-.455-.23-.691-.91-.468-1.782.582m6.983-.416c0 .55.675 1.259 1.5 1.575s1.536 1.315 1.579 2.219c.05 1.038.265 1.182.583.393.278-.687.944-1.25 1.48-1.25.537 0 .717.419.401.931-.706 1.141.084 1.618 3.957 2.391 1.65.329 2.435.353 1.744.053s-1.016-.935-.721-1.412c.294-.476-1.278-1.409-3.494-2.072-2.216-.664-4.029-1.538-4.029-1.942s-.675-.994-1.5-1.311-1.5-.125-1.5.425m35.564 3.23c.376.986.935 1.541 1.243 1.233s.001-1.114-.683-1.793c-.988-.98-1.102-.865-.56.56m-21.946 3.259c-.327.854-.201 1.308.28 1.011 1.58-.976 2.967 1.901 3.358 6.962l.384 4.975.148-5.5c.179-6.637-2.586-11.575-4.17-7.448M131.5 97c.34.55.816 1 1.059 1s.441-.45.441-1-.477-1-1.059-1-.781.45-.441 1m-3 2c-1.908.82-1.897.863.25.93 1.238.038 2.25-.38 2.25-.93s-.113-.968-.25-.93c-.137.039-1.15.457-2.25.93m-46.936 2.293c.376.986.935 1.541 1.243 1.233s.001-1.114-.683-1.793c-.988-.98-1.102-.865-.56.56M125 103c.825.533 1.95.969 2.5.969s.325-.436-.5-.969-1.95-.969-2.5-.969-.325.436.5.969m-36 1c-1.375.44-1.974.845-1.332.9.643.055 1.805.344 2.584.643.843.324 1.415-.08 1.415-1 0-.849-.038-1.498-.084-1.443s-1.208.46-2.583.9m43.427 1.119c-.317.512.02.807.749.656.728-.151 1.217.271 1.086.939-.138.702.39.973 1.25.643.818-.314 1.488-.92 1.488-1.347 0-1.186-3.919-1.95-4.573-.891M99 106c0 .55.477 1 1.059 1s.781-.45.441-1-.816-1-1.059-1-.441.45-.441 1m-2 3.06c0 1.378 3.337 2.002 4.417.826.792-.863.748-.99-.167-.474-.687.388-1.25.304-1.25-.186 0-.491-.675-.893-1.5-.893s-1.5.327-1.5.727m31.953-.089c.893.552.938.979.154 1.463-.609.376-1.107 1.618-1.107 2.759s-1.237 3.19-2.75 4.554l-2.75 2.48 3.25-1.829c2.395-1.348 3.25-2.53 3.25-4.492 0-1.579.839-3.22 2.063-4.034 2.01-1.337 1.993-1.376-.653-1.526-1.661-.094-2.227.149-1.457.625m-48.254 3.664c-.332.332.071 1.278.896 2.103 1.942 1.942 2.615 1.269.974-.974-.697-.953-1.538-1.461-1.87-1.129m34.742.92c-1.864 1.494-1.852 1.512.309.465 1.237-.6 2.25-1.3 2.25-1.555 0-.765-.519-.544-2.559 1.09M89 116.941c0 .518.445 1.216.989 1.552.566.35.734-.051.393-.941-.665-1.732-1.382-2.049-1.382-.611m-14 1.437c0 .207.787.995 1.75 1.75 1.586 1.243 1.621 1.208.378-.378-1.307-1.666-2.128-2.195-2.128-1.372M120 120c0 .55.477 1 1.059 1s.781-.45.441-1-.816-1-1.059-1-.441.45-.441 1m-40.362.777c-.264.427.947 1.559 2.691 2.514 3.135 1.718 3.146 1.716.964-.152-1.215-1.04-1.927-2.172-1.584-2.515s.126-.624-.483-.624c-.61 0-1.324.35-1.588.777M96 121c0 .55.477 1 1.059 1s.781-.45.441-1-.816-1-1.059-1-.441.45-.441 1m20 .531c0 1.618 1.563 1.986 2.435.574.305-.493-.119-1.153-.941-1.469-.907-.348-1.494.003-1.494.895m-17.451 1.39c-.522.844 4.063.801 4.91-.046.343-.344-.528-.625-1.936-.625s-2.746.302-2.974.671m-34.47 1.77c-.094 1.411 1.34 2.431 5.421 3.858 1.65.577 2.893 1.573 2.762 2.214-.141.69.417.914 1.369.548 1.234-.473.708-1.161-2.262-2.959-2.128-1.288-4.394-2.344-5.036-2.347s-1.393-.567-1.671-1.255c-.363-.901-.526-.918-.583-.059M109 126.969c0 .532.675.709 1.5.393.825-.317 1.5-.753 1.5-.969s-.675-.393-1.5-.393-1.5.436-1.5.969m-20 .424c0 .216.675.652 1.5.969s1.5.139 1.5-.393c0-.533-.675-.969-1.5-.969s-1.5.177-1.5.393m57 .607c-.901.582-1.025.975-.309.985.655.008 1.469-.435 1.809-.985.767-1.242.421-1.242-1.5 0m-91.5 1c-.34.55-.141 1 .441 1S56 129.55 56 129s-.198-1-.441-1-.719.45-1.059 1m48.114.424c.559 1.466.375 1.786-.774 1.345-.88-.338-1.507-.021-1.507.762 0 1.013.936.862 3.834-.616 2.108-1.076 3.833-2.187 3.833-2.471 0-.283-.831-.07-1.847.474-1.284.687-2.216.622-3.059-.215-.948-.94-1.053-.783-.48.721m23.386-.041c0 .211 1.111.596 2.47.856 1.358.26 2.232.087 1.941-.383-.512-.829-4.411-1.246-4.411-.473m15.459.684c-.363.586-.389 1.336-.059 1.666s.6.049.6-.625.52-.905 1.155-.513c.715.443.883.275.44-.44-.884-1.431-1.296-1.448-2.136-.088M76 132c0 .55.477 1 1.059 1s.781-.45.441-1-.816-1-1.059-1-.441.45-.441 1m-13.779 1.163c.213.639 1.176 1.278 2.139 1.419 1.407.207 1.52-.022.573-1.162-1.419-1.71-3.254-1.884-2.712-.257m74.505.421c-1.525.828-3.325 1.194-4 .814-.923-.521-.946-.387-.091.54.895.972 1.794.892 4.25-.379 1.713-.886 3.115-1.824 3.115-2.085 0-.644-.106-.608-3.274 1.11m-18.854 1.166c-1.243 1.586-1.208 1.621.378.378.963-.755 1.75-1.543 1.75-1.75 0-.823-.821-.294-2.128 1.372M76 135.059c0 .582.45.781 1 .441s1-.816 1-1.059-.45-.441-1-.441-1 .477-1 1.059m-44 2c0 .582.45.781 1 .441s1-.816 1-1.059-.45-.441-1-.441-1 .477-1 1.059m80.69.377c-.995.755-1.445 1.569-1 1.809.446.241 1.597-.391 2.56-1.404 2.039-2.145 1.068-2.398-1.56-.405m15.565.527c-1.025 1.642-.983 1.87.26 1.393.817-.313 1.485-1.197 1.485-1.963 0-1.855-.289-1.76-1.745.57m23.174-.534c-1.059.774-1.701 1.632-1.426 1.907s1.367-.133 2.426-.907c1.059-.775 1.7-1.633 1.425-1.908s-1.366.133-2.425.908m-63.003 2.265c.145.993.597 1.731 1.003 1.639 1.518-.343 1.576-1.084.175-2.246-1.174-.975-1.394-.861-1.178.607m57.316 1.138c-1.517 1-2.417 2.194-2 2.653.417.458-.015.557-.96.218-1.854-.664-3.421.784-1.879 1.737.514.318 2.61-1.001 4.656-2.931 4.175-3.937 4.218-4.338.183-1.677m-70.457.522c.531 1.594 2.382 1.859 2.382.34 0-.748-.613-1.361-1.361-1.361-.749 0-1.208.46-1.021 1.021M52.333 142.5c0 .825.655 1.5 1.456 1.5 1.181 0 1.221-.283.211-1.5-.685-.825-1.34-1.5-1.456-1.5s-.211.675-.211 1.5m52.231.207c-.542 1.425-.428 1.54.56.56.684-.679.991-1.486.683-1.793-.308-.308-.867.247-1.243 1.233m55.169-.583c.679.684 1.486.991 1.793.683.308-.308-.247-.867-1.233-1.243-1.425-.542-1.54-.428-.56.56m-66.078.626c-.255.412.688.819 2.094.904 1.844.111 2.166-.094 1.154-.735-1.731-1.096-2.646-1.144-3.248-.169m-36.091 1.957c-.542 1.425-.428 1.54.56.56.684-.679.991-1.486.683-1.793-.308-.308-.867.247-1.243 1.233m2.706 1.834c-.994 1.076-.85 1.303.75 1.183 1.99-.15 2.626-1.215 1.23-2.06-.413-.25-1.303.145-1.98.877m23.157-.02c2.055 1.555 3.203 1.308 2.114-.454-.362-.587-1.42-1.053-2.35-1.035-1.485.028-1.456.209.236 1.489m19.652.062c.048 1.165.285 1.402.604.605.289-.722.253-1.585-.079-1.917s-.568.258-.525 1.312m72.326-.428c-.443.715-.275.883.44.44.635-.392 1.155-.251 1.155.315 0 .565.713.754 1.584.419 1.275-.489 1.324-.772.25-1.453-1.81-1.147-2.587-1.084-3.429.279m-150.841 1.138c.376.986.935 1.541 1.243 1.233s.001-1.114-.683-1.793c-.988-.98-1.102-.865-.56.56m62.515.29c.048 1.165.285 1.402.604.605.289-.722.253-1.585-.079-1.917s-.568.258-.525 1.312M107.5 148c-.34.55-.141 1 .441 1s1.059-.45 1.059-1-.198-1-.441-1-.719.45-1.059 1m3.529-.039c-.809.512-1.211 1.191-.893 1.509s1.148-.108 1.844-.946c1.443-1.738 1.166-1.902-.951-.563m-59.369 1.481c-.374.977-.229 1.41.351 1.051.544-.336.989-.059.989.615s.266.959.592.634c.325-.326.167-1.35-.351-2.276-.876-1.564-.989-1.566-1.581-.024m15.352.581c1.153 2.153 2.521 2.542 3.481.988.363-.587-.086-.721-1.105-.33-1.087.417-1.475.268-1.058-.406.362-.586-.024-1.327-.859-1.648-1.236-.474-1.321-.216-.459 1.396m22.988-.69c0 .927.777 1.66 1.75 1.652.999-.009 1.321-.336.75-.762-.55-.41-1.338-1.154-1.75-1.651s-.75-.155-.75.761m56.079 0c-.09 2.098 2.098 1.775 2.685-.395.321-1.189.223-1.202-.567-.075-.806 1.151-1.039 1.151-1.497 0-.365-.917-.568-.763-.621.47m27.153.667c.687 1.1 1.661 2 2.164 2 .502 0 .099-.9-.896-2s-1.969-2-2.163-2c-.195 0 .208.9.895 2m-145.699-.053c-.358.579-.512 1.087-.342 1.13 2.709.67 3.854.559 3.553-.345-.522-1.566-2.439-2.034-3.211-.785m107.546.636c.048 1.165.285 1.402.604.605.289-.722.253-1.585-.079-1.917s-.568.258-.525 1.312m-100.915 2.409c.212.637.6 1.048.861.914s1.488.298 2.725.96 2.25.975 2.25.695-1.4-1.234-3.111-2.118c-1.939-1.003-2.966-1.173-2.725-.451M94.5 153c.34.55.816 1 1.059 1s.441-.45.441-1-.477-1-1.059-1-.781.45-.441 1m7.75.22c-1.237.597-2.25 1.477-2.25 1.956s1.125.133 2.5-.768c3.668-2.403 3.539-3.015-.25-1.188M126 153c0 .55.477 1 1.059 1s.781-.45.441-1-.816-1-1.059-1-.441.45-.441 1m14.099 1.25c-1.377 2.242-1.375 2.243.759.345 2.292-2.038 2.588-2.595 1.383-2.595-.418 0-1.382 1.012-2.142 2.25m20.901.809c0 .582.45.781 1 .441s1-.816 1-1.059-.45-.441-1-.441-1 .477-1 1.059M65.5 158c.995 1.1 1.981 2 2.19 2s-.101-.9-.69-2-1.574-2-2.19-2-.305.9.69 2m51.23-.593c-1.636 1.241-1.584 1.343.67 1.343 1.661 0 2.273-.44 1.914-1.375-.625-1.629-.392-1.631-2.584.032m-34.651 1.176c.048 1.165.285 1.402.604.605.289-.722.253-1.585-.079-1.917s-.568.258-.525 1.312M40.5 159c.34.55.816 1 1.059 1s.441-.45.441-1-.477-1-1.059-1-.781.45-.441 1m43.5-.118c0 .55.45 1.278 1 1.618s1 .168 1-.382-.45-1.278-1-1.618-1-.168-1 .382m48 .177c0 .582.45.781 1 .441s1-.816 1-1.059-.45-.441-1-.441-1 .477-1 1.059m21-.059c-.901.582-1.025.975-.309.985.655.008 1.469-.435 1.809-.985.767-1.242.421-1.242-1.5 0m-40.834.876c-1.098.696-1.083.942.083 1.389.809.311 1.418-.059 1.418-.86 0-.773-.038-1.398-.084-1.39s-.683.396-1.417.861M70.397 161.5c1.044.79 2.364 1.148 2.934.795.598-.369.218-.96-.897-1.397-3.127-1.225-4.078-.943-2.037.602m54.603-.097c0 .864-1.575 2.228-3.5 3.033s-3.5 1.99-3.5 2.635c0 .863.401.841 1.512-.081.831-.69 2.969-1.983 4.75-2.872 3.181-1.59 3.934-3.219 1.813-3.926-.591-.197-1.075.348-1.075 1.211m25.257.36c.093 1.23.523 2.237.956 2.237 1.043 0 .972-1.159-.184-2.987-.739-1.169-.904-1.009-.772.75m-100.693.944c-.542 1.425-.428 1.54.56.56.684-.679.991-1.486.683-1.793-.308-.308-.867.247-1.243 1.233m39.039-.874c-.283.459.12.834.897.834s1.18-.375.897-.834S89.71 161 89.5 161s-.614.375-.897.833m17.838 1.635c-1.067.808-1.434 1.483-.813 1.5.62.018 1.687-.643 2.372-1.468 1.581-1.905.935-1.918-1.559-.032M52.5 164c.34.55.816 1 1.059 1s.441-.45.441-1-.477-1-1.059-1-.781.45-.441 1m92.043-.069c-.317.512-.193 1.167.274 1.456s.85-.13.85-.931c0-1.686-.316-1.833-1.124-.525m-87.21 2.613c0 .801.375 1.456.834 1.456s.833-.423.833-.941-.375-1.173-.833-1.456c-.459-.283-.834.14-.834.941m22.242-.665c-.31.501.109 1.169.931 1.485.822.315 1.494.164 1.494-.336 0-1.356-1.777-2.198-2.425-1.149m15.425.152c0 .533.675.969 1.5.969s1.5-.177 1.5-.393-.675-.652-1.5-.969-1.5-.139-1.5.393m5 .969c-1.282.828-1.246.972.25.985.963.008 1.75-.435 1.75-.985 0-1.22-.113-1.22-2 0m38.851.292c-.763.762-2.042 1.605-2.843 1.872-1.017.339-.785.661.769 1.067 1.224.321 1.991.202 1.703-.263-.287-.465.271-1.289 1.241-1.832.969-.542 1.482-1.266 1.14-1.609s-1.247.002-2.01.765M60.5 169c-.34.55-.168 1 .382 1s1.278-.45 1.618-1 .168-1-.382-1-1.278.45-1.618 1m23.5.393c0 .216.698.661 1.552.989.89.341 1.291.173.941-.393-.587-.951-2.493-1.406-2.493-.596M132.5 171c-.34.55-.141 1 .441 1s1.059-.45 1.059-1-.198-1-.441-1-.719.45-1.059 1m-61.715 2.929c1.257 1.218 2.736 2.064 3.287 1.88.551-.183-.477-1.18-2.285-2.214l-3.287-1.88zm21.788-1.034c-1.653.648-1.7.842-.333 1.367.924.355 1.826.008 2.146-.825.303-.79.453-1.405.333-1.367-.121.039-1.086.41-2.146.825M104 174.969c0 .532.675.709 1.5.393.825-.317 1.5-.753 1.5-.969s-.675-.393-1.5-.393-1.5.436-1.5.969m-6.397 2.198c.283.458.938.833 1.456.833s.941-.375.941-.833c0-.459-.655-.834-1.456-.834s-1.224.375-.941.834m21.838 1.301c-1.907 1.443-1.905 1.469.142 1.5 1.2.019 2.084-.604 2.084-1.468 0-1.822.139-1.82-2.226-.032M82 180.393c0 .216.698.661 1.552.989.89.341 1.291.173.941-.393-.587-.951-2.493-1.406-2.493-.596M118 182c-.901.582-1.025.975-.309.985.655.008 1.469-.435 1.809-.985.767-1.242.421-1.242-1.5 0m-9.987 2.971c-1.179.745-1.037.907.68.777 1.193-.09 1.948-.52 1.679-.956-.599-.969-.537-.973-2.359.179M93 186.905c0 .83 4.102 2.326 4.711 1.718.163-.164-.829-.812-2.207-1.439-1.377-.628-2.504-.753-2.504-.279m6.399 3.345c-.396.688-.351.916.099.509s1.534-.183 2.41.5c1.409 1.098 1.434 1.039.22-.509-1.636-2.086-1.8-2.116-2.729-.5"/></svg>