<svg xmlns="http://www.w3.org/2000/svg" width="200" height="200" fill="#000000"><path fill-opacity=".306" fill-rule="evenodd" d="M69.763 25.565C66.361 27.411 64 31.824 64 36.336c0 3.787.96 5.942 5.665 12.718 2.954 4.255 3.09 4.823 2.071 8.642-1.328 4.973 1.233 19.857 4.321 25.111 3.141 5.346 2.585 9.424-1.807 13.268-6.055 5.301-6.59 7.377-6.813 26.442-.109 9.359-.581 22.184-1.048 28.5-1.359 18.366-1.134 21.55 1.69 23.901 3.552 2.957 8.203 3.516 17.384 2.088 7.714-1.2 20.385-.989 36.69.613 6.453.633 9.947-.978 12.398-5.718 1.678-3.245 1.91-11.559.43-15.452-.58-1.524-1.06-13.076-1.112-26.778-.104-26.843-.213-27.357-7.187-33.934-4.036-3.807-4.567-6.517-2.176-11.101.822-1.576 1.494-3.419 1.494-4.097 0-.677.675-2.585 1.5-4.239 3.19-6.393 2.786-24.831-.498-22.801-.551.34-1.002-.308-1.002-1.44 0-2.251 1.57-2.81 2.272-.809.597 1.703 3.919-2.396 7.281-8.986 2.933-5.75 2.79-8.741-.627-13.085-6.071-7.718-16.886-6.694-22.467 2.128-2.84 4.489-4.693 5.453-11.895 6.188C97.981 37.759 91 35.95 91 35.016c0-1.514-6.107-8.359-8.623-9.664-3.388-1.758-9.162-1.66-12.614.213M130 36.059c0 .582.45.781 1 .441s1-.816 1-1.059-.45-.441-1-.441-1 .477-1 1.059M73 51.882c0 .55.45 1.278 1 1.618s1 .168 1-.382-.45-1.278-1-1.618-1-.168-1 .382M76.289 64c.242.825.041 2.277-.447 3.227-.686 1.334-.541 1.595.635 1.144 1.774-.681 1.929-2.254.432-4.371-.943-1.333-1.012-1.333-.62 0m47.346 1.51c-.416 1.084-.191 2.146.552 2.606 1.745 1.078 1.995.549 1.003-2.131-.774-2.093-.918-2.137-1.555-.475m-52.981 87.474c-2.342 2.368-1.407 8.006 1.452 8.754 1.042.272 1.894 1.316 1.894 2.32 0 2.61-1.676 3.291-2.293.931-.589-2.253-2.707-2.722-2.707-.6 0 .764.9 2.452 2 3.75l2 2.361 2-2.361c2.661-3.141 2.521-5.527-.5-8.548C71.977 157.068 71.154 154 73 154c.55 0 1 .675 1 1.5s.675 1.5 1.5 1.5c1.968 0 1.849-1.002-.444-3.75-2.21-2.65-2.052-2.64-4.402-.266m8.903 1.239c-1.715 2.448-2.075 10.41-.577 12.777.522.825 2.315 1.515 3.984 1.534 2.852.032 3.036-.195 3.036-3.75 0-2.718-.428-3.784-1.519-3.784-1.103 0-1.355.656-.919 2.391.33 1.315.114 2.691-.481 3.059-.739.457-1.038-1.487-.945-6.141.075-3.745.331-5.797.57-4.559.585 3.038 3.294 2.921 3.294-.143 0-2.146-1.631-3.607-4.025-3.607-.474 0-1.562 1-2.418 2.223m9.458 5.527c.018 7.821.799 9.554 4.098 9.087 2.252-.318 2.404-.777 2.679-8.087.176-4.677-.103-7.75-.704-7.75-.548 0-1.13 3.037-1.292 6.75-.377 8.597-2.198 8.428-2.592-.241-.391-8.605-2.208-8.404-2.189.241M98 161c0 6.444.292 8 1.5 8 1.124 0 1.538-1.317 1.65-5.25.085-2.979.312-3.952.524-2.25 1.034 8.282 2.918 10.246 3.598 3.75l.392-3.75.168 3.75c.116 2.592.631 3.75 1.668 3.75 1.208 0 1.5-1.556 1.5-8 0-7.333-.167-8-2-8-1.454 0-2 .667-2 2.441 0 3.608-1.664 3.991-2.353.543-.427-2.133-1.174-2.984-2.622-2.984-1.865 0-2.025.634-2.025 8m13 0c0 6.444.292 8 1.5 8 1.08 0 1.532-1.19 1.616-4.25.064-2.338.306-3.35.539-2.25l.903 4.25c.857 4.014 2.328 2.382 2.705-3l.367-5.25.185 5.25c.138 3.918.566 5.25 1.685 5.25 1.208 0 1.5-1.556 1.5-8 0-7.333-.167-8-2-8-1.454 0-2 .667-2 2.441 0 3.608-1.664 3.991-2.353.543-.427-2.133-1.174-2.984-2.622-2.984-1.865 0-2.025.634-2.025 8m13.544-3.874c.801 2.269 1.456 5.869 1.456 8 0 2.777.425 3.874 1.5 3.874 1.059 0 1.513-1.103 1.544-3.75.024-2.062.413-5.662.865-8 .644-3.327.526-4.25-.543-4.25-.79 0-1.366 1.054-1.366 2.5 0 1.375-.45 2.5-1 2.5s-1-1.125-1-2.5c0-1.522-.57-2.5-1.456-2.5-1.274 0-1.274.514 0 4.126"/><path fill-opacity=".282" fill-rule="evenodd" d="M71.014 25.752c-1.917.961-4.077 2.873-4.798 4.248-1.895 3.611-.884 12.66 1.724 15.436 1.133 1.206 2.06 2.726 2.06 3.378 0 1.891 3.139 1.371 3.656-.606.258-.985 1.285-1.853 2.284-1.929 1.624-.122 1.715.305.866 4.042-.913 4.023-.696 8.533.743 15.429.373 1.787.289 3.251-.186 3.252-.474.001-.825 1.913-.78 4.25.123 6.215.276 6.739 1.806 6.152.991-.38 1.531.558 1.886 3.282.274 2.098.816 4.785 1.204 5.972.488 1.492.114 2.749-1.213 4.076-1.055 1.055-2.208 2.672-2.561 3.592-.353.921-1.219 1.677-1.924 1.681s-2.284 1.481-3.511 3.282c-2.016 2.961-2.267 4.757-2.623 18.743-.217 8.507-.677 16.143-1.023 16.968s-.276 4.2.155 7.5c.652 4.981.471 6.542-1.062 9.193-1.496 2.586-1.627 3.606-.69 5.358.838 1.565.856 2.466.066 3.256-1.226 1.226-1.462 8.618-.328 10.251 1.917 2.76 5.979 4.441 10.708 4.431 6.118-.013 12.628-1.017 12.101-1.867-.212-.342 4.388-.466 10.223-.275 9.625.315 10.486.199 9.283-1.25-.729-.878-1.004-1.597-.613-1.597.392 0 1.532 1.012 2.534 2.25 1.586 1.958 2.904 2.285 10.161 2.524 9.537.314 11.695-.78 13.737-6.968 1.037-3.142.935-4.031-.788-6.864-1.545-2.54-1.854-4.32-1.406-8.099.404-3.415.22-4.843-.625-4.843-.683 0-.876-.52-.45-1.211.412-.666.776-7.598.809-15.405s-.214-13.748-.55-13.204-.402-1.197-.145-3.87c.724-7.528-1.749-14.262-7.258-19.772-4.619-4.618-4.679-4.761-3.94-9.364.413-2.571.734-5.799.714-7.174-.023-1.537.141-1.826.425-.75.69 2.615 1.918 2.123 3.353-1.342 1.033-2.494 1.036-3.244.015-3.876-.771-.476-1.003-1.614-.593-2.907.492-1.55.25-2.125-.893-2.125-1.923 0-1.923.097.032-4.583 1.12-2.68 1.49-5.988 1.234-11.044-.372-7.376.37-8.615 3.025-5.05 1.301 1.746 1.458 1.728 3.75-.424 1.316-1.236 2.392-2.793 2.392-3.459s.672-2.5 1.494-4.076c2.202-4.223 1.842-7.14-1.244-10.075-1.512-1.439-2.075-2.283-1.25-1.876.825.406.455-.181-.821-1.305-5.461-4.809-14.538-3.004-18.478 3.675-1.204 2.04-2.06 4.274-1.901 4.963.182.793-.923 1.297-3.006 1.372l-3.294.119 3 .763c2.479.631 2.603.784.715.882-1.257.065-3.395.845-4.75 1.733-2.791 1.829-3.241 1.304-.894-1.044C105 38.143 104.762 38 100.956 38H96.77l1.638 2.5c1.973 3.01 1.33 3.238-1.408.5-1.1-1.1-3.237-2.045-4.75-2.1l-2.75-.099L92 38c2.398-.768 2.409-.805.25-.9-1.237-.055-2.25-.581-2.25-1.17 0-.588-1.315-2.982-2.923-5.319-2.096-3.046-4.04-4.583-6.866-5.43-5.033-1.508-5.056-1.506-9.197.571M72.5 26c-2.548 1.095.081 1.095 3.5 0 2.01-.644 2.108-.806.5-.83-1.1-.016-2.9.357-4 .83m51.313-.317c.721.289 1.584.253 1.916-.079s-.258-.568-1.312-.525c-1.165.048-1.402.285-.604.604m4 1c.721.289 1.584.253 1.916-.079s-.258-.568-1.312-.525c-1.165.048-1.402.285-.604.604m-59.832 1.84c-1.057 1.273-.995 1.42.378.893.902-.347 1.641-1.032 1.641-1.523 0-1.286-.579-1.105-2.019.63m3.269 4.592c-3.692 2.364-3.757 2.476-1.878 3.197.775.298 2.31-.743 3.53-2.393 2.56-3.463 2.526-3.48-1.652-.804m56.5-.522c1.238.908 2.25 2.496 2.25 3.529 0 2.209.657 2.364 2.444.577 1.068-1.068.563-1.7-2.821-3.529-2.268-1.225-3.11-1.485-1.873-.577m-43.632 9.283c-1.31 1.008-2.201 2.374-1.981 3.036.229.687 1.372-.109 2.662-1.854 2.619-3.543 2.549-3.665-.681-1.182M115 41.293a48 48 0 0 1 2.872 2.753c1.175 1.244 1.215 1.147.278-.678-.602-1.173-1.894-2.412-2.872-2.753-1.548-.54-1.584-.452-.278.678m-25 3.148c0 .857.45 1.559 1 1.559s1-.423 1-.941-.45-1.219-1-1.559-1 .084-1 .941M110 45c0 .55.45 1 1 1s1-.45 1-1-.45-1-1-1-1 .45-1 1m-18.782 7.023c-1.043 1.669-1.625 1.83-3.326.919-2.59-1.386-2.844-1.111-2.177 2.361l.538 2.802 1.913-2.052C89.217 54.924 90.552 54 91.131 54c.58 0 2.198-.9 3.596-2l2.543-2h-2.395c-1.32 0-2.961.907-3.657 2.023m15.643.01c3.045 2.537 4.502 2.521 2.907-.033-.687-1.1-2.153-1.985-3.259-1.967-1.897.032-1.878.143.352 2m6.332 1.235c-.762.918-.509 1.952.918 3.75l1.971 2.482-.26-2.5c-.143-1.375.09-3.062.518-3.75 1.041-1.672-1.758-1.656-3.147.018M97.638 56.5c.317.825.978 1.5 1.469 1.5s.893-.675.893-1.5-.661-1.5-1.469-1.5c-.894 0-1.243.586-.893 1.5M102 56c0 .55.45 1 1 1s1-.45 1-1-.45-1-1-1-1 .45-1 1m-2.753 4.242c.167.499.73.908 1.253.908s1.086-.409 1.253-.908-.397-.909-1.253-.909-1.419.409-1.253.909m-.594 73.22c-.238.621.417 1.193 1.457 1.271 1.039.079 1.89-.429 1.89-1.128 0-1.574-2.753-1.691-3.347-.143m-27.998 19.367c-2.368 2.616-2.044 5.906.845 8.583C74.06 163.785 74.784 166 73 166c-.55 0-1-.675-1-1.5s-.675-1.5-1.5-1.5c-1.97 0-1.925 3.432.071 5.429 2.018 2.017 2.751 1.977 4.774-.258 2.447-2.703 2.071-6.699-.845-8.992-1.375-1.082-2.486-2.802-2.468-3.823.03-1.755.104-1.761 1.36-.106 1.552 2.044 3.608 2.313 3.608.472 0-1.088-3.353-4.722-4.356-4.722-.184 0-1.079.823-1.989 1.829m9.095.231c-1.371.814-1.75 2.402-1.75 7.335 0 7.098 1.861 9.977 5.787 8.95 1.859-.486 2.213-1.279 2.213-4.962 0-3.716-.304-4.383-2-4.383-1.618 0-1.974-.621-1.864-3.25.099-2.35.256-2.627.57-1 .65 3.376 3.504 2.917 3.11-.5-.348-3.026-3.03-3.994-6.066-2.19m8.917-.393c-1.02 1.02-.793 10.872.318 13.794 1.416 3.723 3.94 4.35 6.213 1.543C97.639 164.989 97.48 152.5 95 152.5c-1.136 0-1.639 1.699-2.073 7l-.574 7-.176-7.25c-.129-5.287-.538-7.25-1.51-7.25-.734 0-1.634.3-2 .667M98 160.43c0 6.791.299 8.57 1.44 8.57.927 0 1.579-1.335 1.832-3.75l.392-3.75.168 3.75c.189 4.208 2.729 5.309 3.462 1.5l.434-2.25.136 2.25c.094 1.554.767 2.25 2.176 2.25 1.913 0 2.023-.517 1.75-8.25-.267-7.583-.465-8.275-2.448-8.557-1.719-.245-2.316.364-2.938 3l-.779 3.307-.569-3c-.403-2.127-1.221-3.093-2.812-3.32-2.176-.309-2.244-.058-2.244 8.25m13 0c0 6.783.3 8.57 1.437 8.57.871 0 1.595-1.279 1.84-3.25l.403-3.25.16 3.25c.248 5.033 2.956 4.243 3.428-1l.383-4.25.174 4.25c.125 3.033.604 4.25 1.675 4.25 1.216 0 1.5-1.611 1.5-8.5 0-7.716-.177-8.5-1.921-8.5-1.342 0-2.151.978-2.687 3.25l-.767 3.25-.569-3c-.403-2.127-1.221-3.093-2.812-3.32-2.176-.309-2.244-.058-2.244 8.25m12.012-8.18c.006.137.676 2.725 1.488 5.75s1.482 6.738 1.488 8.25c.007 1.669.556 2.75 1.396 2.75.974 0 1.583-1.996 2.061-6.75.372-3.713.922-7.591 1.221-8.618.371-1.276.114-1.727-.811-1.422-.745.246-1.499 1.424-1.675 2.618-.441 3.001-2.18 2.74-2.18-.328 0-1.556-.567-2.5-1.5-2.5-.825 0-1.495.113-1.488.25M82.158 164c0 1.375.227 1.938.504 1.25.278-.687.278-1.812 0-2.5-.277-.687-.504-.125-.504 1.25m51 5c0 1.375.227 1.938.504 1.25.278-.687.278-1.812 0-2.5-.277-.687-.504-.125-.504 1.25M67 170c0 .55.477 1 1.059 1s.781-.45.441-1-.816-1-1.059-1-.441.45-.441 1"/><path fill-opacity=".441" fill-rule="evenodd" d="M81 35.118c0 .541-1.559 1.635-3.464 2.431C73.963 39.042 72 41.555 72 44.634c0 1.374.267 1.499 1.2.566 1.508-1.508 3.15-1.576 2.234-.093q-.683 1.106 1.343.464c1.917-.609 1.973-.412 1.033 3.643-1.223 5.274-.31 16.839 1.419 17.983.997.659.928 1.107-.317 2.072-1.771 1.373-1.462 3.137 1.137 6.488 1.057 1.364 2.031 5.062 2.462 9.351.709 7.063.698 7.108-2.461 9.994C78.305 96.696 76.491 98 76.02 98s-1.858 1.62-3.082 3.6c-2.097 3.393-2.248 4.934-2.619 26.713-.315 18.464-.689 23.438-1.857 24.729-1.719 1.899-1.867 4.333-.427 7.024.714 1.333.714 1.934 0 1.934-.569 0-1.019 1.238-.999 2.75.04 3.027 3.207 7.343 6.724 9.162 3.041 1.573 17.205.342 17.934-1.558.286-.745.97-1.354 1.52-1.354s.741.675.424 1.5c-.48 1.251.665 1.5 6.893 1.5 6.435 0 7.473-.242 7.501-1.75.03-1.667.095-1.667 1.36 0 .731.963 2.258 1.75 3.395 1.75 1.136 0 2.272-.787 2.524-1.75.404-1.546.471-1.555.573-.079.142 2.039 4.919 3.251 9.15 2.322 3.117-.685 5.557-3.465 6.137-6.993.181-1.1.998-2.522 1.816-3.16 1.305-1.018 1.278-1.39-.225-3.05-1.423-1.573-1.536-2.525-.671-5.659.797-2.883.732-4.139-.275-5.353-.999-1.204-1.321-6.913-1.336-23.704-.023-25.028-.165-25.549-8.353-30.574-3.528-2.165-4.077-2.98-4.1-6.085-.025-3.336 3.042-14.284 5.068-18.084q.892-1.671-.353-2.094c-.973-.333-.942-1.162.143-3.831 2.049-5.041 2.477-10.452 1.118-14.14-.662-1.796-1.571-4.772-2.02-6.612l-.816-3.345 2.417 2.27c1.479 1.389 2.416 1.767 2.416.973 0-.991.327-1.026 1.383-.149 1.067.885 1.517.799 1.969-.377.798-2.079-.261-4.526-1.959-4.526-.766 0-1.393-.45-1.393-1s-.605-1-1.345-1-2.16-.9-3.155-2c-1.002-1.107-3.08-2-4.655-2-2.178 0-2.845.469-2.845 2 0 1.1.648 2 1.441 2s1.766.526 2.164 1.17c.498.805.16.954-1.082.477-1.521-.584-1.608-.455-.551.819.69.832 1.558 1.324 1.929 1.095s.763.653.872 1.962-.316 2.695-.943 3.082c-.674.417-.865.261-.468-.381 1.023-1.657-3.886-6.348-7.001-6.69-3.101-.34-6.361 1.303-6.361 3.207 0 .732-1.255 1.259-3 1.259-1.65 0-3-.44-3-.977s-1.163-1.739-2.585-2.671c-2.202-1.443-2.721-1.483-3.5-.273-.732 1.137-1.081 1.165-1.745.137-.627-.97-1.481-.632-3.5 1.387-1.468 1.468-2.67 3.31-2.67 4.092 0 .783-.45 1.145-1 .805-1.681-1.039-1.119-3.575 1.25-5.646l2.25-1.967-2.5 1.112c-2.374 1.055-2.399 1.034-.5-.41 3.8-2.89 4.542-3.712 4.058-4.496-.713-1.153-6.558-1.131-6.558.025m28 8.7c0 1.408.84 2.078 3 2.395 1.65.242 3 .324 3 .182s-1.35-1.22-3-2.395c-2.915-2.076-3-2.081-3-.182m-19.972.649C87.938 45.78 88.143 46 90.461 46c1.644 0 2.55-.466 2.31-1.187-.621-1.864-2.351-2.024-3.743-.346m10.785 3.216c.721.289 1.584.253 1.916-.079s-.258-.568-1.312-.525c-1.165.048-1.402.285-.604.604m-10.714 2.844c-1.617.881-3.169 1.017-4.75.415C82.39 50.198 82 50.368 82 51.966c0 1.054.493 2.221 1.096 2.593.603.373.895 2.05.649 3.726C83.117 62.561 84.911 69 86.73 69c1.112 0 1.318-.673.816-2.675-.621-2.47-.533-2.566 1.141-1.25 1.602 1.259 1.674 1.247.62-.109-.826-1.062-.925-2.724-.323-5.397 1.254-5.558 2.955-6.123 5.807-1.925 1.313 1.931 2.643 3.255 2.956 2.942s1.116-.115 1.784.44c1.801 1.494 4.272.158 6.925-3.746l2.356-3.468 2.171 2.171c1.285 1.285 1.922 2.822 1.56 3.764-.336.876-.033 1.975.673 2.442.99.655.826 1.219-.716 2.465-1.628 1.315-1.675 1.503-.25 1.012 1.357-.468 1.75-.049 1.75 1.865 0 1.358.433 2.469.961 2.469 1.294 0 2.992-6.662 2.805-11-.083-1.925.211-4.746.654-6.268.765-2.629.682-2.721-1.656-1.833-1.674.637-3.229.546-4.863-.285-1.639-.834-3.829-.96-6.901-.397-3.977.728-5.789.625-12-.682-.825-.174-2.581.273-3.901.992m10.714-.844c.721.289 1.584.253 1.916-.079s-.258-.568-1.312-.525c-1.165.048-1.402.285-.604.604m-2.063 3.985c-1.896.519-2.358 2.838-.761 3.825.566.35.734-.051.393-.941q-.594-1.55 1.128-1.552c1.231 0 1.574.571 1.2 2-.324 1.24-.03 2 .773 2 .712 0 1.232-.756 1.156-1.681-.083-1.001.872-1.972 2.361-2.4 1.375-.396 1.825-.771 1-.833s-2.4-.29-3.5-.505-2.787-.176-3.75.087M93 93.403C93 95.006 95.629 98 97.036 98c.492 0 1.42-1.013 2.064-2.25s.828-1.93.409-1.54c-.42.391-2.056.042-3.636-.776C93.374 92.142 93 92.138 93 93.403m11 .252c-2.576 1.318-3.316 3.406-1.43 4.035 1.539.513 5.417-3.111 4.609-4.307-.443-.657-1.546-.563-3.179.272M98 131.5c0 .825-.45 1.5-1 1.5s-1 .45-1 1c0 1.4 8.724 1.256 9.597-.158.484-.782.059-.985-1.312-.627-1.289.337-2.518-.151-3.377-1.342-1.626-2.257-2.908-2.421-2.908-.373m-26.567 19.8c-2.639 3.027-3.156 4.975-2.077 7.832.595 1.577 1.611 2.868 2.256 2.868.646 0 1.447.712 1.781 1.582.819 2.134.773 2.418-.393 2.418-.55 0-1-.675-1-1.5s-.675-1.5-1.5-1.5c-2.093 0-1.872 3.319.408 6.135l1.908 2.356 2.453-2.648c2.361-2.547 2.514-2.578 4.03-.807.996 1.164 2.611 1.732 4.389 1.546 2.585-.272 2.837-.67 3.117-4.939.288-4.392.166-4.643-2.25-4.643-2.149 0-2.537-.437-2.439-2.75.071-1.692.292-2.077.573-1 .489 1.868 4.311 2.475 4.311.684 0-2.413-2.215-4.934-4.335-4.934-3.305 0-4.665 1.875-4.665 6.431v4.031l-3.199-3.199c-1.759-1.759-2.822-3.551-2.363-3.981s1.037-.219 1.282.468 1.084 1.25 1.863 1.25c1.949 0 1.72-2.056-.527-4.75-2.152-2.58-2.193-2.591-3.623-.95M88 158.453c0 10.191 3.148 14.356 7.345 9.718 1.216-1.344 1.655-3.73 1.655-9 0-6.451-.196-7.171-1.956-7.171-1.73 0-1.996.838-2.301 7.25l-.346 7.25-.198-7.25C92.02 152.733 91.798 152 90 152c-1.793 0-2 .667-2 6.453m10 2.378v8.971l3.465-.098c2.225-.063 3.614-.654 3.884-1.651.364-1.35.434-1.342.535.061.086 1.196 1.15 1.613 4.116 1.613 3.621 0 4.009-.247 4.1-2.613l.099-2.614.678 2.426c1.102 3.941 2.953 3.606 3.391-.614l.396-3.812.168 3.75c.116 2.592.631 3.75 1.668 3.75 1.222 0 1.5-1.667 1.5-9 0-8.29-.156-9-1.971-9-1.365 0-2.26 1-2.91 3.25l-.939 3.25-.09-3.179c-.09-3.178-.091-3.178-5.629-3.178-5.417 0-5.554.07-6.208 3.178l-.668 3.179-.549-3c-.391-2.135-1.196-3.092-2.792-3.32-2.182-.31-2.244-.072-2.244 8.651m25.011-8.081c.006.412.681 2.959 1.5 5.659s1.489 6.412 1.489 8.25c0 2.153.484 3.341 1.362 3.341.947 0 1.571-2.057 2.049-6.75.377-3.713.938-7.762 1.246-9 .406-1.633.119-2.25-1.049-2.25-.884 0-1.608.675-1.608 1.5s-.45 1.5-1 1.5-1-.675-1-1.5-.675-1.5-1.5-1.5-1.495.338-1.489.75M82.158 164c0 1.375.227 1.938.504 1.25.278-.687.278-1.812 0-2.5-.277-.687-.504-.125-.504 1.25"/><path fill-opacity=".296" fill-rule="evenodd" d="M93.25 63.43C89.979 64.948 90.491 66 94.5 66c3.59 0 4.462-1.04 2.25-2.685-.78-.58-2.096-.537-3.5.115m10.882.323C102.991 65.885 103.11 66 106.465 66c1.944 0 3.535-.45 3.535-1s-.862-1-1.917-1c-1.054 0-2.103-.561-2.332-1.247-.256-.769-.877-.385-1.619 1M97.5 67c-.34.55-2.197 1-4.126 1-3.057 0-3.427.258-2.872 2.005.422 1.332.11 2.207-.933 2.607-.863.331-1.569 1.454-1.569 2.495S87.55 77 87 77s-1-.487-1-1.083-.54-.904-1.199-.684c-.66.22-1.248 2.321-1.307 4.67-.105 4.199-.059 4.26 2.805 3.687 2.41-.482 2.804-.3 2.284 1.055-.513 1.335-.361 1.416.818.437 1.147-.952 2.282-.774 5.483.859 4.962 2.531 5.817 2.543 11.153.154l4.255-1.905 2.536 2.351c2.424 2.248 4.172 2.415 4.172.4 0-.518-.852-.941-1.893-.941s-2.146-.66-2.456-1.466c-.443-1.157.062-1.341 2.393-.875 2.936.587 2.956.56 2.956-4.069 0-4.35-.133-4.589-2-3.59-1.587.849-2 .76-2-.43 0-.825-.922-1.993-2.048-2.596-1.418-.758-1.859-1.693-1.433-3.035.53-1.667.124-1.939-2.893-1.939-1.929 0-3.786-.45-4.126-1s-1.69-1-3-1-2.66.45-3 1m2.5 4.5c0 1.375.45 2.5 1 2.5s1-1.125 1-2.5-.45-2.5-1-2.5-1 1.125-1 2.5M84 86.941c0 .518.45 1.219 1 1.559s1-.084 1-.941S85.55 86 85 86s-1 .423-1 .941m1.226 5.618c.366.366-1.188 1.645-3.452 2.842s-4.981 3.335-6.038 4.751c-2.239 2.999-3.967 14.51-2.3 15.327q1.062.521-.149 1.092c-.938.442-.901 1.407.163 4.25 1.793 4.793 2.719 11.401 1.491 10.642-.518-.319-.955-1.567-.971-2.772-.029-2.052-.099-2.073-1.111-.332-.777 1.338-.769 2.543.03 4.297 1.6 3.51 1.309 5.184-.493 2.844-1.444-1.875-1.501-1.749-.901 2 .352 2.2.87 5.238 1.152 6.75.301 1.618.068 2.75-.568 2.75-.593 0-1.079.614-1.079 1.365s-.977 2.608-2.172 4.126c-1.903 2.42-2.026 3.147-.993 5.883.765 2.027.826 3.239.172 3.457C64.97 162.843 69.485 172 73.021 172c1.037 0 3.074.542 4.528 1.204 2.247 1.024 2.786.949 3.597-.5.524-.937 1.606-1.704 2.404-1.704s1.45-.459 1.45-1.019c0-.58-1.048-.756-2.434-.408-1.775.445-2.767.078-3.663-1.357-1.197-1.916-1.292-1.9-3.657.653l-2.429 2.62-2.408-2.8c-1.325-1.54-2.409-3.45-2.409-4.245 0-2.06 3.762-1.793 4.311.306.344 1.317.486 1.193.573-.5.066-1.271-.467-2.25-1.223-2.25-1.275 0-3.661-3.971-3.661-6.093 0-.549 1.125-2.123 2.5-3.498s2.5-3.004 2.5-3.621.296-.825.658-.463 1.176.228 1.809-.297c.771-.64 1.688-.328 2.779.946 1.884 2.2.367 3.328-2.496 1.856-2.167-1.115-2.345.431-.25 2.17 1.917 1.591 1.951 5 .05 5-.798 0-1.909-.787-2.47-1.75s-1.033-1.288-1.05-.723c-.016.565 1.32 2.212 2.97 3.66l3 2.633v-3.854c0-4.236 2.897-7.305 5.865-6.214 3.489 1.284 4.449 6.248 1.208 6.248-1.059 0-2.132-.787-2.384-1.75-.281-1.077-.502-.692-.573 1-.098 2.323.287 2.75 2.476 2.75 2.549 0 2.586.103 2.25 6.248-.311 5.69-.164 6.249 1.658 6.265 1.1.01 2.597-.41 3.326-.933.822-.589 1.583-.595 2-.016.817 1.135 14.25 1.368 13.55.235-.665-1.075.947-1.007 4.047.172 2.247.854 2.627.679 3.163-1.457.335-1.336.376-3.01.091-3.721s-.555-.325-.598.857c-.066 1.804-.683 2.15-3.829 2.151-2.062.001-4.081-.517-4.485-1.15-.535-.839-.739-.812-.75.099-.009.759-1.39 1.25-3.515 1.25H98v-9c0-8.933.019-9 2.5-9 2.036 0 2.518.51 2.6 2.75l.099 2.75.692-2.5c.62-2.243 1.278-2.531 6.4-2.8 5.637-.296 5.71-.265 5.809 2.5l.099 2.8.692-2.5c.424-1.535 1.544-2.623 2.9-2.82 2.141-.309 2.209-.037 2.209 8.813 0 8.099-.198 9.113-1.75 8.955-3.725-.379-4.425-.051-3.045 1.427.707.756 1.923 1.129 2.704.83.905-.348 1.157-.121.696.625-1.084 1.754.859 1.417 5.364-.931 3.426-1.786 4.031-2.58 4.031-5.29 0-1.754.684-5.815 1.52-9.024 1.418-5.446 1.402-5.922-.25-7.13-1.461-1.068-1.72-2.545-1.484-8.456.313-7.824-.975-8.725-2.797-1.957-.842 3.126-1.531 3.947-3.278 3.906l-2.211-.053 2.25-1.569c1.237-.864 2.25-2.176 2.25-2.917s.961-3.191 2.135-5.443c1.637-3.141 1.86-4.371.958-5.273s-1.396-.828-2.119.315c-.696 1.101-.946.575-.955-2.008-.006-1.925.854-4.919 1.911-6.653 1.922-3.151 1.922-3.153-.254-3.877-2.145-.714-2.147-.73-.111-1.142 1.848-.375 1.999-.912 1.436-5.123-1.034-7.74-5.398-13.927-11.098-15.736-1.063-.337-1.674-1.031-1.359-1.541 1.304-2.109-2.623-.677-8.423 3.072-3.404 2.2-7.234 4-8.511 4s-4.3-1.495-6.716-3.321c-3.846-2.907-9.485-5.937-7.668-4.12M114.5 101c.34.55.816 1 1.059 1s.441-.45.441-1-.477-1-1.059-1-.781.45-.441 1m-16.17 10.858c-3.036 1.573-3.098 1.726-1.486 3.642 3.577 4.249 4.947 4.851 6.809 2.99 1.597-1.597 1.599-1.77.028-2.649-2.445-1.368-2.088-3.105.47-2.293 1.744.553 2.028.361 1.5-1.014-.358-.934-.651-1.886-.651-2.116 0-.907-3.666-.116-6.67 1.44m-20.58 1.804c.688.278 1.813.278 2.5 0 .688-.277.125-.504-1.25-.504s-1.937.227-1.25.504m44.063.021c.721.289 1.584.253 1.916-.079s-.258-.568-1.312-.525c-1.165.048-1.402.285-.604.604m-43.146 1.984c-1.629 1.628-.504 2.963 2.166 2.571 3.31-.486 3.876-3.238.667-3.238-1.192 0-2.467.3-2.833.667m38.932.729c.294.768 1.569 1.594 2.831 1.835 1.834.351 2.2.069 1.817-1.396-.294-1.124-1.392-1.835-2.832-1.835-1.602 0-2.181.445-1.816 1.396M98 119.893c0 .491.652 1.143 1.449 1.449q1.452.56.893-.893c-.607-1.582-2.342-1.994-2.342-.556m20.813-.21c.721.289 1.584.253 1.916-.079s-.258-.568-1.312-.525c-1.165.048-1.402.285-.604.604m-41.306 1.306c-.35.566.051.734.941.393 1.732-.665 2.049-1.382.611-1.382-.518 0-1.216.445-1.552.989m3.076 2.877c-.431.697-.513 1.537-.183 1.867.895.895 1.871-.421 1.387-1.871-.338-1.016-.574-1.016-1.204.004m18.754.569c.303.79.066 1.597-.527 1.795-.648.216-.397 1.04.628 2.065 2.143 2.143.16 2.262-3.438.205-3.324-1.9-3.741-1.853-5.037.569-.929 1.736-.685 2.459 1.517 4.5 1.442 1.337 3.41 2.431 4.372 2.431s2.344.563 3.073 1.25c1.06 1 1.417 1 1.783 0 .252-.687 1.343-1.25 2.423-1.25s3.056-1.177 4.39-2.617c1.981-2.138 2.227-2.986 1.344-4.635-.799-1.494-1.283-1.69-1.861-.755-.429.695-1.25.973-1.823.619-.574-.355-1.325-.187-1.671.372-1.019 1.648-2.651 1.161-2.458-.734.377-3.705-.111-5.25-1.659-5.25-.985 0-1.394.555-1.056 1.435m18.874.103c-1.082 1.226-.961 1.462.75 1.462 1.146 0 2.039-.657 2.039-1.5 0-1.879-1.112-1.863-2.789.038m-30.754 2.393c.317.512.118 1.213-.441 1.559-1.313.812-1.327 5.51-.016 5.51.55 0 1-.9 1-2s.422-2 .938-2 .87-.9.787-2-.756-2-1.497-2c-.74 0-1.087.419-.771.931m24.183.565c-.356.928.017 1.819.907 2.16.991.381 1.293 1.272.876 2.588-.419 1.319-.263 1.775.456 1.331 1.323-.818.817-6.843-.615-7.32-.56-.187-1.29.372-1.624 1.241M74.068 139.55c-.087 2.619 1.763 4.469 4.382 4.382 2.012-.066 2.01-.087-.094-1.105-1.18-.571-2.612-2.003-3.183-3.183-1.018-2.104-1.039-2.106-1.105-.094M99 143c0 .55.675 1 1.5 1s1.5-.45 1.5-1-.675-1-1.5-1-1.5.45-1.5 1m-2.333.667c-.367.366-.667 1.131-.667 1.7 0 .626.466.567 1.183-.15.651-.651.951-1.416.667-1.7s-.817-.217-1.183.15m7.729 2.841c.604 1.93 1.256 3.035 1.449 2.457.517-1.552-.751-5.965-1.715-5.965-.457 0-.337 1.579.266 3.508M99.5 146c-.34.55.084 1 .941 1s1.559-.45 1.559-1-.423-1-.941-1-1.219.45-1.559 1m-4.5 2.5c0 .825.436 1.5.969 1.5s.709-.675.393-1.5c-.317-.825-.753-1.5-.969-1.5s-.393.675-.393 1.5m28.667-.833c-1.263 1.263-.66 2.101 1.857 2.582 1.388.266 2.765.093 3.059-.383s-.167-.866-1.024-.866-1.559-.45-1.559-1c0-1.138-1.338-1.329-2.333-.333m-24.917 1.995c.688.278 1.813.278 2.5 0 .688-.277.125-.504-1.25-.504s-1.937.227-1.25.504m-10.718 9.588c.033 7.479 1.328 10.75 4.257 10.75 3.424 0 4.711-2.887 4.711-10.571 0-6.707-.19-7.429-1.956-7.429-1.73 0-1.996.838-2.301 7.25l-.346 7.25-.198-7.25C92.02 152.733 91.798 152 90 152c-1.819 0-1.997.656-1.968 7.25M123 153.374c0 .756.675 3.288 1.5 5.626s1.5 5.77 1.5 7.626c0 2.18.482 3.374 1.362 3.374.941 0 1.568-2.01 2.029-6.511.367-3.581 1.093-7.631 1.613-9 .802-2.108.657-2.489-.945-2.489-1.041 0-2.155.563-2.476 1.25-.466 1-.7 1-1.166 0-.788-1.689-3.417-1.593-3.417.124m-40.921 11.209c.048 1.165.285 1.402.604.605.289-.722.253-1.585-.079-1.917s-.568.258-.525 1.312"/></svg>