<svg xmlns="http://www.w3.org/2000/svg" width="200" height="200" fill="#000000"><path fill-opacity=".18" fill-rule="evenodd" d="M0 100.005V200.01l100.25-.255 100.25-.255.255-99.75L201.01 0H0zm.481.495c0 55 .121 77.647.269 50.326.148-27.32.148-72.32 0-100C.602 23.147.481 45.5.481 100.5m39.813-29.39C33.807 77.221 28.5 82.542 28.5 82.936S40.875 97.656 56 114.77l27.5 31.118 8.255-8.694 8.255-8.694 7.745 8.265c4.26 4.547 8.063 8.259 8.451 8.25.388-.008 13.193-14.031 28.456-31.161l27.751-31.146-3.078-2.604c-1.692-1.432-7.35-6.541-12.572-11.354L147.268 60H52.087zm6.248 3.64c-4.567 4.263-8.245 8.084-8.173 8.493S48.625 95.445 61 109.45l22.5 25.464 5.937-5.904 5.937-5.904-8.526-8.803c-4.69-4.842-13.284-13.874-19.099-20.073L57.176 82.96l7.804-7.23c4.293-3.976 7.853-7.568 7.912-7.98s-3.977-.75-8.97-.75h-9.077zm29.77 0-8.715 7.75 10.833.285c5.958.157 11.019.099 11.246-.128s-.787-3.412-2.255-7.078-2.437-6.896-2.155-7.178 1.571 2.437 2.865 6.043C89.424 78.05 90.817 81 91.227 81c.578 0 5.403-8.412 7.599-13.25.187-.412-2.841-.75-6.73-.75h-7.07zM101 67.481c0 1.13 6.489 13.519 7.081 13.519.358 0 1.719-2.812 3.025-6.25 1.306-3.437 2.529-6.588 2.717-7s-2.619-.75-6.24-.75-6.583.216-6.583.481m25-.144c0 .186 3.757 3.708 8.35 7.827l8.349 7.489-3.011 3.423c-1.657 1.883-10.027 10.802-18.6 19.819s-15.588 16.73-15.588 17.139 2.404 3.286 5.341 6.392l5.342 5.648 3.79-4.287c2.084-2.358 12.393-13.962 22.908-25.787L162 83.5l-8.75-8.22-8.75-8.219-9.25-.031c-5.088-.016-9.25.122-9.25.307m-11.966 2.913c-.507 1.237-1.847 4.445-2.978 7.127-1.131 2.683-2.056 5.045-2.056 5.25s4.987.373 11.083.373 10.934-.367 10.75-.817C130.356 81.013 116.385 68 115.607 68c-.357 0-1.065 1.013-1.573 2.25m-18.145 4.997c-1.864 3.436-3.539 6.586-3.722 7-.184.414 3.079.753 7.25.753s7.583-.216 7.583-.481C107 81.395 100.513 69 99.925 69c-.356 0-2.172 2.811-4.036 6.247M69 84.685c0 .377 3.713 4.543 8.25 9.259a2197 2197 0 0 1 14.624 15.357c3.506 3.732 6.49 6.653 6.632 6.492.143-.161-1.554-7.381-3.769-16.043L90.709 84H79.854c-5.97 0-10.854.308-10.854.685m23.209 1.065C97.607 107.097 99.5 114 99.955 114c.444 0 4.59-16.878 6.817-27.75.447-2.179.217-2.25-7.272-2.25-6.867 0-7.684.196-7.291 1.75m16.272-.5c-.97 2.658-7.376 30.188-7.091 30.473.388.388 29.61-30.327 29.61-31.123 0-.33-4.964-.6-11.031-.6-7.916 0-11.161.353-11.488 1.25"/><path fill-opacity=".273" fill-rule="evenodd" d="M0 99.992V200l35.25-.014c19.388-.007 36.247-.281 37.465-.607l2.216-.594-1.866-3.643c-1.026-2.003-4.61-7.004-7.965-11.114-5.666-6.94-7.504-10.014-5.1-8.528 3.316 2.049-.437-1.502-10.5-9.936-6.325-5.301-11.5-9.873-11.5-10.16s.439-.251.976.081 2.674-.276 4.75-1.35c9.826-5.085 18.758-7.476 28.749-7.697 4.964-.11 9.413.029 9.887.309s3.315.694 6.312.919c10.367.778 23.419 6.985 31.622 15.039 5.174 5.08 13.072 18.315 16.087 26.958l1.338 3.837.71-4.145c.658-3.843 1.122-4.338 6.389-6.801 3.124-1.462 7.03-3.509 8.68-4.549 9.132-5.761 19.452-8.564 35.025-9.513 5.412-.33 10.22-.834 10.684-1.121.463-.286.718 6.581.567 15.26l-.276 15.781-2.5.74c-2.328.689-2.293.727.5.544l3-.196.024-100c.014-55-.211-86.275-.5-69.5l-.524 30.5-3 .166c-17.477.965-24.8.779-33.436-.852-17.275-3.263-30.633-10.123-39.335-20.203-8.742-10.126-9.119-11.203-8.369-23.945.362-6.141.766-12.066.899-13.166.238-1.977-.421-2.003-58.009-2.258L0-.016zm.481.508c0 55 .121 77.647.269 50.326.148-27.32.148-72.32 0-100C.602 23.147.481 45.5.481 100.5m85.134-40.75-33.885.277-11.9 11.132c-6.545 6.122-11.772 11.51-11.615 11.972.299.882 54.89 62.869 55.368 62.869.366 0 10.495-10.715 13.65-14.44l2.49-2.939 8.389 8.739 8.388 8.739 12.639-14.3c6.952-7.864 19.44-21.93 27.75-31.257C165.2 91.215 172 83.278 172 82.903c0-.374-5.657-5.905-12.571-12.291L146.859 59l-13.68.236c-7.523.13-28.927.361-47.564.514M46.781 75.267 38.063 83.5l21.01 23.5c11.556 12.925 21.928 24.4 23.049 25.5l2.038 2 4.935-5.457c2.713-3.001 4.815-5.806 4.669-6.234-.145-.428-8.519-9.58-18.609-20.337L56.811 82.913l8.344-7.91 8.345-7.911-9-.029-9-.028zM86 67.867c0 1.065 4.113 11.37 4.918 12.32.32.378 2.278-2.434 4.351-6.25L99.037 67h-6.518c-3.586 0-6.519.39-6.519.867m15.213-.117c.209.412 1.709 3.548 3.334 6.967s3.182 6.232 3.462 6.25c.513.033 4.992-11.825 4.991-13.217 0-.412-2.737-.75-6.083-.75s-5.913.338-5.704.75m25.859 0c.039.412 3.636 3.9 7.993 7.75s7.812 7.28 7.678 7.623-8.656 9.518-18.939 20.39l-18.697 19.767 5.116 5.36c2.813 2.948 5.445 5.36 5.849 5.36 1.143 0 45.087-50.039 44.738-50.942-.171-.441-4.061-4.234-8.644-8.43L143.831 67h-8.415c-4.629 0-8.384.338-8.344.75M76.248 75.1C72.261 78.917 69 82.255 69 82.52s4.725.48 10.5.48 10.5-.125 10.5-.279c0-.541-5.68-13.735-6.09-14.144-.228-.228-3.676 2.707-7.662 6.523m36.361-.597c-1.435 3.585-2.609 6.963-2.609 7.508 0 .589 4.241.989 10.5.989 5.775 0 10.5-.216 10.5-.479 0-.482-5.357-5.504-12.141-11.382l-3.64-3.154zm-16.359.79C94.463 78.75 93 81.899 93 82.29c0 .39 3.188.71 7.083.71s6.93-.338 6.743-.75c-1.106-2.435-6.894-13.249-7.09-13.246-.13.002-1.699 2.832-3.486 6.289M72.541 88.215c2.111 2.357 8.745 9.46 14.743 15.785 12.292 12.962 11.736 13.566 6.437-7L90.5 84.5l-10.898-.285-10.899-.286zm19.483-3.965c.341 3.488 7.951 29.798 8.316 28.75.287-.825 1.7-6.675 3.14-13s2.87-12.513 3.177-13.75c.544-2.185.341-2.25-7.049-2.25-4.184 0-7.597.112-7.584.25m16.052 3.5c-.551 2.063-2.121 8.388-3.489 14.056s-2.755 11.293-3.083 12.5c-.594 2.191 3.34-1.722 21.354-21.247L131.216 84h-22.139zm90.757 7.154c-.183.498-4.099 1.212-8.701 1.586-8.34.68-12.043 1.653-19.632 5.161-3.801 1.757-3.996 2.068-3.929 6.238.05 3.02.751 5.152 2.25 6.835 1.199 1.345 2.179 2.616 2.179 2.825 0 .208 1.912 2.202 4.25 4.429l4.25 4.051 10.25-.205 10.25-.205v-15.81c0-14.464-.233-17.438-1.167-14.905"/><path fill-opacity=".066" fill-rule="evenodd" d="M0 99.991V200l25.75-.004c25.48-.003 25.718-.023 22.717-1.853-3.235-1.973-8.637-11.488-8.926-15.721-.041-.593-1.314-2.552-2.83-4.353-4.695-5.581-16.191-26.102-13.791-24.618 1.802 1.114 2.094-3.158.515-7.534-2.321-6.433-2.495-8.209-1.003-10.2 1.147-1.529 3.445-1.848 16.202-2.245 8.176-.254 16.301-.875 18.056-1.38 6.142-1.767 11.355-.279 16.734 4.778l4.923 4.63-3.101-4c-1.705-2.2-13.033-15.195-25.173-28.878S28 83.393 28 82.963s5.513-5.991 12.25-12.359L52.5 59.026 95 58.82c23.375-.113 39.726-.364 36.335-.558-3.803-.218-6.628-.91-7.373-1.808-.664-.799-1.789-1.454-2.501-1.454s-1.444-.4-1.628-.889-2.345-2.562-4.805-4.606-6.548-6.4-9.086-9.679c-4.516-5.836-4.608-6.099-4.353-12.494.385-9.664 1.384-18.57 2.218-19.773.404-.582.725-2.409.714-4.059l-.021-3L52.25.241 0-.018zM153.5 65c.995 1.1 2.035 2 2.31 2s-.315-.9-1.31-2-2.035-2-2.31-2 .315.9 1.31 2M47.25 74.914C42.712 79.216 39 83.015 39 83.357c0 .901 44.016 50.143 44.822 50.143.373 0 2.874-2.359 5.558-5.243l4.881-5.243-13.488-14.257c-7.418-7.841-15.893-16.894-18.832-20.117l-5.343-5.861 8.451-7.846 8.451-7.846-9 .003-9 .002zM86 67.437c0 .298 1.199 3.536 2.664 7.195l2.663 6.654 3.288-6.393c1.808-3.516 3.31-6.657 3.336-6.979.027-.322-2.651-.683-5.951-.802s-6 .027-6 .325m16 .791C102 69.407 107.366 80 107.963 80c.486 0 5.037-10.88 5.037-12.039 0-.254-2.475-.461-5.5-.461s-5.5.328-5.5.728m33.133 6.967 8.367 7.696-4.203 4.304c-3.849 3.942-4.803 6.633-2.993 8.443.383.382.696-.005.696-.86 0-.986 1.282-1.796 3.5-2.212 1.925-.361 3.5-.99 3.5-1.399 0-.408.792-.801 1.759-.874 4.457-.336 7.889-2.436 6.816-4.171-.303-.491.456-1.112 1.687-1.379s3.138-.854 4.238-1.305c1.156-.473-.679 2.321-4.348 6.622l-6.348 7.44 6.679-7 6.68-7-8.283-7.684-8.282-7.684-8.916-.316-8.917-.316zm29.793-.266 8.426 8.137-4.411 4.717-4.412 4.717 4.863-4.64c2.674-2.552 4.586-5.086 4.25-5.631s-4.332-4.241-8.877-8.213l-8.265-7.223zm-88.676.236c-3.988 3.886-7.25 7.126-7.25 7.2s4.5.135 10 .135c6.696 0 10-.369 10-1.117 0-1.241-4.003-11.482-4.918-12.583-.32-.385-3.845 2.479-7.832 6.365m36.277-.056c-1.511 3.852-2.586 7.091-2.387 7.197.198.107 4.791-.031 10.208-.306l9.847-.5-7.46-6.697-7.461-6.697zm-16.312.41C94.447 79.104 93 82.142 93 82.269s2.925.231 6.5.231 6.5-.35 6.5-.779C106 80.856 100.129 69 99.7 69c-.149 0-1.717 2.934-3.485 6.519M75.018 90.714c12.531 13.278 22.981 24.213 22.937 24.001A6912 6912 0 0 0 94.148 99.5l-3.763-15-10.885-.286-10.886-.286zm18.001-4.964c.011.963 1.532 7.6 3.38 14.75l3.36 13 1.086-4c.597-2.2 2.026-8.05 3.176-13 1.149-4.95 2.32-9.787 2.602-10.75.453-1.55-.296-1.75-6.556-1.75-6.071 0-7.064.247-7.048 1.75m12.431 13.585c-1.987 8.159-3.464 14.956-3.282 15.105.351.286 27.156-28.18 27.58-29.29.137-.358-4.461-.65-10.218-.65h-10.466zm14.633 8.396c-7.746 8.102-14.078 14.965-14.072 15.25s2.255 2.994 4.998 6.019l4.987 5.5 3.252-3.584c11.67-12.862 28.061-32.477 23.328-27.916-3.14 3.025-5.606 5.05-5.481 4.5.126-.55-.321-2.337-.993-3.97s-1.011-3.771-.755-4.749c.256-.979.027-2.05-.509-2.381s-.733-1.232-.438-2.001c.296-.77.363-1.399.151-1.399s-6.723 6.629-14.468 14.731m40.789-10.981c-1.243 1.586-1.208 1.621.378.378.963-.755 1.75-1.543 1.75-1.75 0-.823-.821-.294-2.128 1.372M137.5 122.701c-8.25 9.183-16.467 18.295-18.26 20.248l-3.26 3.551-2.088-2.5c-1.149-1.375-4.754-5.283-8.011-8.685l-5.922-6.185-4.73 5.035c-5.05 5.376-7.08 8.754-3.116 5.186l2.387-2.149 7.484 2.899c4.116 1.594 7.975 2.899 8.575 2.899.601 0 2.136 1.111 3.412 2.469s2.724 2.22 3.218 1.914c.905-.559 5.94 2.896 10.101 6.933 2.722 2.639 6.598 11.506 9.891 22.627 1.002 3.382 1.048 3.407 2.669 1.41 1.983-2.442 20.476-16.35 21.752-16.359.494-.004 2.248-.72 3.898-1.593s4.125-1.795 5.5-2.05 4.525-1.173 7-2.043 5.287-1.548 6.25-1.507 1.75-.297 1.75-.752.563-.806 1.25-.78c.688.025 3.613-.025 6.5-.111L199 153v-10.658l-13.75-1.789c-7.562-.983-15.317-1.936-17.232-2.117s-3.643-.811-3.839-1.4c-.197-.59-1.025-1.739-1.84-2.554S161.07 133 161.33 133c.259 0-3.245-3.845-7.789-8.545l-8.261-8.545 3.945-4.955c2.17-2.725 3.794-4.954 3.61-4.952s-7.085 7.515-15.335 16.698"/><path fill-opacity=".359" fill-rule="evenodd" d="M22.5.89c-9.988.554-11.46.894-16 3.693-3.598 2.219-5.177 3.902-5.632 6C.015 14.525-.167 86.726.653 96.419c.634 7.499.721 7.704 3.022 7.127q2.369-.595 2.93.866c.308.804 1.203 1.215 1.989.914.999-.384 1.241-.061.806 1.074-.475 1.237-.205 1.462 1.133.949 1.136-.436 2.235-.02 3.112 1.18.745 1.019 1.355 1.317 1.355.662 0-1.964 1.619-1.347 2.78 1.059.596 1.237 1.115 1.672 1.152.965.052-.974.553-1.026 2.068-.215 1.1.589 2 .774 2 .413s.761-.04 1.692.715c1.45 1.176 1.567 1.165.818-.078-1.049-1.738-1.299-3.795-1.889-15.55-.248-4.949-.102-9.449.326-10 .427-.55 1.045-2.125 1.372-3.5.695-2.921 6.67-9.535 11.681-12.931 2.294-1.555.947.242-3.911 5.215l-7.41 7.586 6.139 6.925c3.377 3.809 6.937 7.531 7.911 8.272 1.816 1.38-2.135-3.277-9.172-10.812l-3.964-4.246 8.953-8.317c4.925-4.575 10.809-9.977 13.075-12.005L52.742 59l32.379-.175c17.809-.097 28.299-.434 23.313-.75l-9.067-.575-4.551-4.5c-8.047-7.957-10.684-12.428-10.184-17.266.838-8.11 2.503-19.283 3.966-26.615.811-4.059 1.195-7.659.855-8C88.63.295 36.448.116 22.5.89m40.441 66.896-8.56.286-7.729 7.775-7.728 7.774 2.288 1.939L43.5 87.5l-1.785-2.118c-1.754-2.08-1.687-2.207 3.759-7.185l5.545-5.067 3.974 2.602c3.133 2.051 3.736 2.89 2.848 3.959-.619.747-.949 1.522-.734 1.723.216.201 3.734-2.732 7.816-6.517 4.083-3.786 7.233-6.999 7-7.14s-4.275-.128-8.982.029m25.282 5.464c1.162 2.888 2.388 5.579 2.725 5.98s2.092-1.961 3.9-5.25L98.135 68H86.111zm16.582.717c1.482 3.282 2.92 5.981 3.195 5.999s1.482-2.667 2.682-5.967L112.864 68h-10.753zM128 68.378c0 .207.685.946 1.523 1.641 1.273 1.057 1.42.995.893-.378-.538-1.401-2.416-2.384-2.416-1.263m-51.591 7.037L69.5 81.914l9.857.043c7.497.033 9.738-.256 9.36-1.207-.274-.687-1.29-3.275-2.258-5.75s-2.071-4.856-2.451-5.291-3.8 2.132-7.599 5.706m38.32-5.207c-.285.71-1.459 3.654-2.609 6.542L110.029 82h20.044l-6.656-6.25c-7.504-7.047-7.967-7.343-8.688-5.542m-18.452 5.809L93.053 82h12.976L103 76c-1.666-3.3-3.135-5.993-3.264-5.983-.13.009-1.687 2.709-3.459 6m17.783-1.267a659 659 0 0 1-1.808 5c-.349.936 1.509 1.239 7.391 1.205l7.857-.046-5.44-4.954C119.067 73.23 116.345 71 116.01 71s-1.212 1.688-1.95 3.75M137.5 77c2.148 2.2 4.131 4 4.406 4s-1.258-1.8-3.406-4-4.131-4-4.406-4 1.258 1.8 3.406 4m-36.75 3.662c.688.278 1.813.278 2.5 0 .688-.277.125-.504-1.25-.504s-1.937.227-1.25.504M70 85.24c0 .171 3.485 3.674 7.744 7.785 4.283 4.134 5.72 5.24 3.215 2.475-2.492-2.75-5.414-6.069-6.495-7.376L72.5 85.748l3.555 2.376c1.955 1.307 6.294 3.673 9.643 5.259 4.814 2.279 6.299 3.536 7.093 6 1.699 5.271 1.267.523-.626-6.883l-1.788-7-10.189-.285C74.585 85.058 70 85.07 70 85.24m23.518 2.842c1.415 6.444 5.441 19.248 4.931 15.683-.432-3.024-.251-3.626.95-3.165.816.313 1.632 1.544 1.814 2.735.266 1.748 4.818-14.949 4.794-17.585-.004-.412-2.968-.75-6.586-.75h-6.58zm15.48-2.332c-.001.412 2.812.625 6.25.472 11.286-.503 12.407-.899 3.002-1.062-5.088-.088-9.251.178-9.252.59m19.002.309c0 .582.45.781 1 .441s1-.816 1-1.059-.45-.441-1-.441-1 .477-1 1.059m-30.349 1.409c-.31.807-.11 1.749.445 2.092s.843 1.123.639 1.734.553 2.172 1.681 3.469l2.05 2.358 1.248-4.81c.686-2.646 1.256-5.149 1.267-5.561.037-1.445-6.756-.78-7.33.718M43 88.313c0 .172 1.462 1.635 3.25 3.25L49.5 94.5l-2.937-3.25C43.825 88.221 43 87.54 43 88.313m62.274 12.794c-1.727 7.348-3.058 13.394-2.957 13.437s5.304-5.575 11.563-12.483L125.261 89.5l-10.758 10.802c-5.916 5.941-10.475 10.067-10.13 9.168.345-.898.627-2.298.627-3.111 0-.812.45-1.199 1-.859 1.788 1.105 3.481-.675 1.811-1.903-1.299-.955-1.319-1.94-.158-7.597 2.458-11.97.799-8.409-2.379 5.107M66 94.5c1.292 1.375 2.574 2.5 2.849 2.5s-.557-1.125-1.849-2.5-2.574-2.5-2.849-2.5.557 1.125 1.849 2.5m28.079 10.083c.048 1.165.285 1.402.604.605.289-.722.253-1.585-.079-1.917s-.568.258-.525 1.312M45 104.378c0 .207.788.995 1.75 1.75 1.586 1.243 1.621 1.208.378-.378-1.307-1.666-2.128-2.195-2.128-1.372m46.938 3.852c2.44 2.6 4.653 4.513 4.916 4.249.264-.263.285-.591.047-.729-.237-.138-2.45-2.05-4.916-4.249l-4.485-3.999zm7.746-.848c-.376.98-.655 2.532-.621 3.45.042 1.105.39.853 1.029-.746.531-1.328.81-2.88.62-3.45-.19-.569-.653-.233-1.028.746m14.324 7.11-8.448 8.492 4.97 5.237c2.733 2.88 5.123 5.471 5.31 5.758s1.311-.667 2.5-2.119c1.188-1.452 5.058-5.952 8.601-10 6.204-7.09 6.248-7.177 1.195-2.36-2.886 2.75-4.948 4.213-4.584 3.25.383-1.011.195-1.75-.445-1.75-.609 0-1.107-.814-1.107-1.809s-.708-2.682-1.574-3.75c-.866-1.067-1.253-1.266-.859-.441.524 1.1.223 1.036-1.131-.241-1.786-1.684-1.735-1.855 1.555-5.25 1.871-1.93 3.191-3.509 2.933-3.509-.257 0-4.27 3.821-8.916 8.492m-3.285 5.28c-3.474 3.557-3.575 3.839-1.786 4.957 1.666 1.04 2.048.794 3.129-2.022.677-1.764 1.284-3.432 1.348-3.707s.474-1.062.91-1.75c1.4-2.204.178-1.348-3.601 2.522m21.187 9.478c-10.257 11.589-12.419 14.443-5.549 7.323 6.585-6.824 14.078-15.573 13.338-15.573-.268 0-3.773 3.713-7.789 8.25M89 127.5c-2.429 2.475-4.191 4.5-3.916 4.5s2.487-2.025 4.916-4.5 4.191-4.5 3.916-4.5-2.487 2.025-4.916 4.5m29 1.45c0 .842-.892 1.113-2.593.787-2.373-.453-2.458-.36-1 1.098 1.457 1.458 1.737 1.45 3.283-.097.93-.93 1.38-2.001 1-2.381s-.69-.113-.69.593m-21.076 3.8L94.5 135.5l2.761-2.435 2.762-2.435 3.738 3.435 3.739 3.435-3.446-3.75c-1.896-2.062-3.73-3.75-4.076-3.75s-1.72 1.238-3.054 2.75M.666 172.102c-.357 2.969-.653 10.461-.657 16.648L0 200h19.667c10.816 0 19.368-.298 19.004-.663-.365-.364-3.513-1.865-6.997-3.335-7.392-3.118-14.274-7.657-18.312-12.076-1.574-1.723-3.828-4.099-5.009-5.28-1.18-1.18-3.247-4.35-4.593-7.044l-2.446-4.899z"/></svg>