<svg xmlns="http://www.w3.org/2000/svg" width="200" height="200" fill="#000000"><path fill-opacity=".196" fill-rule="evenodd" d="M151.036 14.5c-.014.55 1.083 2.8 2.438 5s2.475 3.55 2.49 3c.014-.55-1.083-2.8-2.438-5s-2.475-3.55-2.49-3M42.532 25.576c-3.143 5.266-5.536 9.753-5.319 9.97s2.006-2.404 3.975-5.825 4.577-7.908 5.795-9.971S48.984 16 48.722 16s-3.047 4.309-6.19 9.576m13.762-6.826c.227.413 4.363 7.387 9.192 15.5L74.265 49h55.557l13.839 23.976L157.5 96.953l17.833.023c9.809.013 17.684-.343 17.5-.792-.183-.449-10.414-18.224-22.736-39.5L147.694 18h-45.906c-25.248 0-45.72.337-45.494.75M28.849 59.717C16.557 81.012 6.5 98.941 6.5 99.56c0 1.283 44.733 79.34 45.503 79.4.276.022 4.604-6.792 9.616-15.142l9.113-15.181-6.721-11.569c-3.697-6.362-9.994-17.193-13.994-24.068s-7.266-12.95-7.26-13.5 5.521-10.45 12.255-22 12.899-22.368 13.7-24.039c1.437-2.997 1.336-3.24-7.375-17.75C56.48 27.62 52.211 21 51.851 21c-.359 0-10.711 17.423-23.002 38.717M157.811 27.25c4.635 7.63 15.314 25.941 20.121 34.5 2.858 5.088 5.378 9.25 5.6 9.25.702 0-.784-3.394-2.695-6.154-1.01-1.46-1.837-2.874-1.837-3.141 0-.475-17.037-29.731-19.045-32.705-.557-.825-1.277-2.288-1.601-3.25-.323-.962-1.021-1.75-1.552-1.75s-.077 1.462 1.009 3.25M34.432 39.258c-.587 1.233-2.528 4.942-4.312 8.242-3.947 7.299-.935 3.489 3.688-4.665 1.819-3.209 2.944-5.831 2.5-5.827s-1.289 1.017-1.876 2.25m27.392 34.93c-6.778 11.654-12.474 21.554-12.657 22-.184.447 10.616.8 24 .785l24.333-.028L111 75.87c7.425-11.592 13.65-21.48 13.833-21.973.192-.515-10.543-.897-25.176-.897H74.148zM25 56c-.589 1.1-.845 2-.57 2s.981-.9 1.57-2 .845-2 .57-2-.981.9-1.57 2m89.582 22.018C107.112 89.578 101 99.235 101 99.478c0 1.47 27.32 43.442 28.003 43.02.46-.284 1.912-2.425 3.227-4.757 1.315-2.333 6.805-11.865 12.201-21.183 7.276-12.566 9.573-17.344 8.891-18.5-.506-.857-6.043-10.446-12.305-21.308S129.302 57 128.899 57s-6.846 9.458-14.317 21.018M21.964 61.164c-1.145 2.233-1.118 2.26.61.61.994-.95 1.533-2.001 1.197-2.336s-1.148.442-1.807 1.726m-4.934 8.437c-1.739 3.081-2.974 5.789-2.744 6.018s1.86-2.291 3.624-5.601c4.046-7.591 3.354-7.919-.88-.417M185 74c.589 1.1 1.295 2 1.57 2s.019-.9-.57-2-1.295-2-1.57-2-.019.9.57 2M11.71 79c-.287 1.1-.356 2-.152 2 .205 0 .853-.9 1.442-2 .591-1.105.659-2 .152-2-.505 0-1.154.9-1.442 2m177.819 2.75c1.485 2.612 3.839 6.775 5.232 9.25s3.12 5.357 3.838 6.404c1.12 1.635.945 2.518-1.242 6.25-1.401 2.39-2.054 4.346-1.452 4.346s1.095-.643 1.095-1.429c0-.785.616-2.044 1.368-2.796 1.938-1.938 3.04-5.903 1.848-6.65-.55-.344-3.565-5.013-6.702-10.375S187.589 77 187.32 77s.724 2.138 2.209 4.75M8.432 84.258c-.587 1.233-2.543 4.83-4.345 7.992C2.284 95.412 1.026 98 1.291 98c.37 0 6.272-9.562 9.413-15.25.228-.412.05-.746-.395-.742s-1.29 1.017-1.877 2.25M1 101.288c0 .378 2.925 5.615 6.5 11.637s6.5 11.429 6.5 12.013.45 1.062 1 1.062 1 .62 1 1.378.749 1.995 1.664 2.75c1.49 1.229 1.552 1.162.595-.634-.588-1.103-3.202-5.603-5.809-10S6.594 109.475 5.231 107C2.667 102.344 1 100.093 1 101.288m48 .625c0 .503 5.584 10.515 12.408 22.25L73.817 145.5l25.205.267c23.163.246 25.154.133 24.567-1.396-.351-.916-6.54-11.048-13.752-22.518L96.724 101H72.862c-13.733 0-23.862.388-23.862.913m95.225 23.337-13.976 24.25-27.809.5-27.809.5-8.796 14.5c-4.837 7.975-8.804 14.838-8.815 15.25s20.409.75 45.378.75h45.398l22.352-38.702c12.294-21.286 22.497-39.286 22.675-40 .256-1.027-3.326-1.298-17.149-1.298h-17.473zm47.824-12.347c-1.149 2.253-1.9 4.097-1.668 4.097.752 0 4.715-7.237 4.229-7.723-.259-.259-1.411 1.373-2.561 3.626M187.5 121c-.853 1.65-1.326 3-1.051 3s1.198-1.35 2.051-3 1.326-3 1.051-3-1.198 1.35-2.051 3m-3.5 6c-.589 1.1-.845 2-.57 2s.981-.9 1.57-2 .845-2 .57-2-.981.9-1.57 2m-3 5c-.589 1.1-.845 2-.57 2s.981-.9 1.57-2 .845-2 .57-2-.981.9-1.57 2m-162 .444C19 133.285 30.191 152 30.694 152c.277 0-.502-1.687-1.731-3.75-1.228-2.062-3.789-6.562-5.69-10-3.083-5.574-4.273-7.192-4.273-5.806m154.057 13.198c-3.358 5.853-5.911 10.837-5.673 11.076.239.238 2.127-2.638 4.197-6.392 2.069-3.755 4.512-7.951 5.428-9.326 1.769-2.656 3.186-6 2.541-6-.212 0-3.134 4.789-6.493 10.642M34.059 158.75c1.788 3.162 4.087 7.1 5.11 8.75 1.022 1.65 2.13 3.787 2.462 4.75.331.963 1.052 1.75 1.601 1.75s.342-1.012-.461-2.25c-.802-1.238-3.593-5.963-6.202-10.5S31.596 153 31.317 153s.955 2.588 2.742 5.75m130.921.774c-.696.838-1.012 1.777-.704 2.086s1.064-.377 1.678-1.524c1.31-2.448.824-2.728-.974-.562m-6.079 10.726a1709 1709 0 0 0-4.604 8c-.228.412-.215.75.03.75s2.362-3.262 4.704-7.25c5.44-9.26 5.173-8.75 4.572-8.75-.283 0-2.399 3.262-4.702 7.25m-114.886 4.999c-.008.413 1.222 2.994 2.735 5.736l2.75 4.986 50.727.015 50.727.014 1.658-2.531c.913-1.392 1.39-2.801 1.061-3.129-.329-.329-1.137.585-1.796 2.031L150.679 185H50.041l-1.982-3.75c-2.469-4.672-4.024-6.979-4.044-6.001"/><path fill-opacity=".434" fill-rule="evenodd" d="M57 18.664c0 .365 3.938 7.338 8.75 15.496l8.75 14.831 28 .043 28 .042 13.591 23.712L157.682 96.5l17.159.274c10.063.16 17.159-.11 17.159-.653 0-.94-42.368-74.571-44.232-76.871-.783-.966-11.195-1.25-45.89-1.25C77.195 18 57 18.299 57 18.664M29 60.102C16.625 81.594 6.625 99.625 6.778 100.172c.55 1.97 44.737 77.808 45.34 77.818C52.728 178 70 149.647 70 148.635c0-.287-6.288-11.4-13.973-24.695-12.245-21.183-13.834-24.436-12.844-26.306.621-1.174 6.921-12.149 14-24.389L70.054 50.99l-8.777-14.944C56.45 27.826 52.275 21.084 52 21.064c-.275-.021-10.625 17.546-23 39.038m44.276-4.852c-.533.688-5.61 9.35-11.283 19.25S51.019 93.521 50.212 94.768l-1.466 2.268 24.237-.268L97.22 96.5l13.39-20.745C117.975 64.346 124 54.783 124 54.505S112.805 54 99.122 54c-18.718 0-25.117.309-25.846 1.25m41.816 22.5c-7.374 11.413-13.402 21.2-13.395 21.75.01.83 21.55 35.731 25.768 41.753 1.149 1.641 2.582-.405 13.374-19.096 6.647-11.513 12.216-21.408 12.374-21.987.291-1.069-23.292-43.089-24.213-43.141-.275-.016-6.534 9.309-13.908 20.721m-64.91 26.482c.79 1.247 6.56 11.156 12.822 22.018L74.389 146h24.806c13.643 0 24.778-.338 24.744-.75s-6.048-10.2-13.366-21.75l-13.305-21-24.261-.268-24.261-.268zm103.392 5.518a7242 7242 0 0 0-13.784 23.961l-9.29 16.21-27.7.04-27.701.039-9.049 15.135c-4.978 8.324-9.05 15.299-9.05 15.5s20.362.359 45.25.352l45.25-.012 20-34.662c11-19.065 21.247-36.834 22.77-39.488l2.77-4.825h-34.972z"/><path fill-opacity=".302" fill-rule="evenodd" d="M57 18.569c0 .324 3.88 7.071 8.623 14.995l8.623 14.405 27.99.266 27.989.265 13.638 23.684L157.5 95.867l17.251.317c9.488.174 17.234.091 17.213-.184s-10.067-17.825-22.323-39l-22.285-38.5-45.178-.26C77.33 18.097 57 18.245 57 18.569M29.032 60.512C14.427 85.807 7.012 99.589 7.426 100.669c.96 2.5 42.67 74.653 43.969 76.06.87.942 3.186-2.186 9.902-13.372l8.766-14.603-12.218-21.127c-6.72-11.62-13.101-22.711-14.18-24.647l-1.961-3.519L55.755 75.14l14.052-24.322-8.651-14.409C56.398 28.484 52.227 22 51.887 22c-.341 0-10.625 17.331-22.855 38.512m33.065 14.361C55.444 86.353 50 96.028 50 96.373S60.499 97 73.331 97h23.331l12.366-19.25a9258 9258 0 0 0 13.784-21.5L124.23 54H74.195zm53.403 2.661c-7.15 11.211-12.968 21.19-12.928 22.175.106 2.629 25.552 42.568 26.509 41.607C130.434 139.959 153 100.629 153 99.629c0-.984-21.144-38.143-23.26-40.875-1.061-1.372-3.112 1.332-14.24 18.78m-65.139 25.965c.317.825 5.801 10.5 12.188 21.5L74.161 145h24.42c13.43 0 24.419-.252 24.419-.561s-5.91-9.984-13.133-21.5L96.735 102H73.26c-20.451 0-23.4.193-22.899 1.499m93.967 22.751-14.094 24.25-27.803.5-27.804.5-8.73 14.5-8.73 14.5 44.606.26c24.533.144 44.979-.112 45.434-.567.456-.456 10.904-18.235 23.22-39.511L192.818 102h-34.397z"/><path fill-opacity=".975" fill-rule="evenodd" d="M58 19.577c0 .318 3.712 6.83 8.25 14.472l8.25 13.895 27.727.028c27.638.028 27.732.035 29.193 2.278.807 1.237 7.062 11.925 13.901 23.75l12.433 21.5 17.101.274 17.1.273-6.867-11.773c-10.48-17.97-22.286-38.404-30.328-52.495l-7.26-12.72-44.75-.03c-24.612-.016-44.75.231-44.75.548M29.5 60.163C17.4 81.139 7.364 98.64 7.199 99.054c-.166.415 9.89 18.346 22.346 39.848l22.647 39.094 8.754-14.684 8.753-14.684-11.026-19.064c-6.064-10.485-12.46-21.502-14.213-24.482l-3.187-5.418 12.456-21.582c6.85-11.87 13.182-22.812 14.069-24.316 1.509-2.556 1.487-2.949-.342-6.06-1.076-1.83-4.881-8.346-8.456-14.479-3.575-6.134-6.725-11.164-7-11.177-.275-.014-10.4 17.137-22.5 38.113m33 14.517c-6.6 11.368-12.15 21.041-12.333 21.495-.184.454 9.984.825 22.595.825 20.593 0 23.082-.178 24.441-1.75.832-.963 5.25-7.6 9.817-14.75s10.254-16.037 12.636-19.75l4.331-6.75-24.744.006-24.743.005zm52.989 3.448c-7.144 11.07-13.126 20.481-13.293 20.911-.241.623 20.104 33.797 25.282 41.225 1.074 1.54 2.778-.911 13.436-19.319 6.714-11.596 12.067-21.464 11.896-21.931-.748-2.043-23.362-40.943-23.821-40.977-.281-.02-6.356 9.021-13.5 20.091m-65.322 24.724c.183.469 5.717 10.144 12.299 21.5L74.431 145h48.639l-1.125-2.104c-2.16-4.034-23.264-37.41-24.753-39.146-1.349-1.572-3.832-1.75-24.43-1.75-12.611 0-22.779.384-22.595.852m94.333 23.652-14 24.469-27.687.013-27.687.014-7.24 12.25c-3.982 6.738-7.887 13.262-8.678 14.5L57.77 180l44.865-.021 44.865-.02 22-38.101c12.1-20.956 22.15-38.497 22.333-38.98.184-.483-7.238-.87-16.5-.861l-16.833.017z"/></svg>