<svg xmlns="http://www.w3.org/2000/svg" width="24" height="24" fill="#000000"><rect width="24" height="24" fill="#696969" rx="4"/><path fill="#ffffff" fill-rule="evenodd" d="M2.888 10.084c.127-.255.297-.401.59-.508.24-.091.656-.103.656-.021 0 .052-.265 1.8-.289 1.915l-.015.07h.82c.581 0 .821-.01.821-.034 0-.018.043-.304.094-.632.107-.693.183-.894.41-1.094.21-.183.423-.255.8-.27.304-.013.316-.01.301.048-.009.033-.097.544-.194 1.137l-.177 1.079-.687.413-.69.417H3.681l-.018.097c-.01.055-.064.395-.119.76-.115.742-.158.87-.389 1.094-.213.207-.398.268-.82.268H2l.018-.082c.01-.05.155-.864.322-1.818.444-2.517.48-2.714.548-2.84Zm10.93.062c.113-.274.31-.46.611-.578.177-.07.77-.09.77-.027 0 .082-.341 1.833-.36 1.851-.103.088-1.41 1.003-1.422.991-.024-.024.353-2.116.401-2.237Zm4.283-.54a1.03 1.03 0 0 0-.501.474c-.061.121-.13.486-.663 3.55l-.207 1.194 1.9-.009h.013c1.863-.009 1.893-.009 2.033-.076.188-.085.407-.291.495-.465.085-.17.104-.252.441-2.203.149-.87.301-1.73.338-1.91.036-.182.057-.334.048-.343-.006-.009-.334.213-.723.49l-.712.501-.261 1.338c-.161.823-.283 1.364-.313 1.413a.386.386 0 0 1-.149.122c-.122.048-1.66.106-1.644.06.006-.018.133-.671.285-1.459.152-.787.298-1.459.322-1.495.089-.14.186-.161.891-.188.368-.016.684-.04.708-.052.158-.098 1.41-.997 1.417-1.018.006-.016-.7-.028-1.748-.028l-1.522.003c-.155 0-.308.034-.448.1Zm-8.37.277c.112-.124.306-.249.492-.304.136-.045.413-.051.872-.018l.286.018.143.772.142.772-.127.155-.065.082c-.099.126-.268.34-.422.539a6.86 6.86 0 0 1-.38.462c-.009 0-.067-.305-.124-.675l-.11-.672-.285.635-.195.438-.158.356-.073.16h.994l.483-.607c.268-.335.49-.608.499-.608.009 0 .152.75.316 1.665l.105.578c.117.642.204 1.116.211 1.14.012.045-.018.052-.316.052-.286 0-.353-.013-.49-.073-.313-.146-.525-.447-.592-.84l-.037-.212H9.238l-.076.173c-.183.41-.243.517-.374.648a1.253 1.253 0 0 1-.292.212c-.137.07-.194.076-.614.085-.255.007-.465.003-.465-.006 0-.006.274-.614.611-1.346l1.021-2.228c.51-1.113.563-1.216.681-1.353Zm4.328 2.39c-.396.285-.724.534-.73.556-.03.085-.35 1.975-.334 1.987.006.01.577.003 1.267-.015 1.204-.027 1.265-.033 1.438-.1.359-.14.587-.462.638-.903l.021-.185-.24.015c-.13.01-.568.03-.972.049-.654.033-.736.03-.724-.01.006-.024.088-.443.183-.927.09-.486.176-.905.185-.936.01-.027.01-.052.003-.052-.009 0-.337.235-.736.52Zm-8.815.66.696-.407c.383-.225.702-.407.705-.401.021.024-.31 1.951-.362 2.088a1.005 1.005 0 0 1-.547.541c-.237.091-.75.097-.75.012.002-.027.06-.453.13-.942l.128-.89Z" clip-rule="evenodd"/></svg>