<svg width="465" height="500" viewBox="0 0 465 500" fill="#000000" xmlns="http://www.w3.org/2000/svg">
<path fill-rule="evenodd" clip-rule="evenodd" d="M119.274 59.2774C61.6546 91.8253 11.6706 121.295 8.19877 124.764C-0.00657654 132.966 -3.43568 385.842 4.45638 400.752C8.69718 408.764 146.904 489.538 150.395 486.047C151.267 485.175 154.576 449.198 157.749 406.098L163.517 327.735L138.55 294.119C107.816 252.731 107.19 251.25 102.923 209.77C96.4098 146.446 104.985 124.217 138.345 117.959C145.608 116.595 148.567 114.547 148.567 110.879C148.567 94.9412 172.027 81.0795 194.7 83.62C203.005 84.5513 216.289 85.2605 224.215 85.195C240.281 85.064 252.522 88.8434 261.066 96.576C264.199 99.4098 272.661 102.349 279.87 103.107C287.078 103.867 296.69 107.111 301.23 110.315C305.77 113.519 314.317 116.965 320.224 117.974C333.234 120.189 348.893 133.342 357.358 149.157C366.782 166.77 366.454 240.926 356.842 266.2C353.265 275.598 346.475 294.182 341.753 307.497L333.163 331.706L334.912 384.395C337.016 447.683 339.061 472.686 342.134 472.686C346.065 472.686 451.538 412.395 458.297 406.286L464.705 400.49V266.017C464.705 142.12 464.312 131.078 459.721 125.584C450.812 114.923 243.183 -0.108151 233.053 7.63204e-05C226.699 0.0712786 193.142 17.5529 119.274 59.2774ZM180.671 96.3111C170.323 99.3301 163.249 107.151 161.258 117.771C159.734 125.891 157.855 128.036 151.127 129.329C146.587 130.201 138.983 131.667 134.23 132.587C119.252 135.484 115.814 144.72 115.814 182.056C115.814 240.083 116.492 242.236 148.433 285.814L176.37 323.928L169.888 408.989C165.317 468.984 164.288 495.132 166.404 497.727C171.839 504.403 173.755 497.288 175.453 464.142C178.272 408.977 184.766 328.225 186.623 325.223C187.589 323.66 186.512 320.835 184.236 318.946C176.156 312.242 134.842 254.639 130.385 243.868C124.595 229.881 121.04 164.266 125.455 152.937C128.935 144.008 135.685 140.753 155.878 138.269C175.746 135.825 198.485 129.329 194.908 127.122C193.251 126.096 186.432 127.184 179.753 129.54C165.579 134.544 165.724 134.601 167.621 124.735C172.166 101.067 205.859 97.9231 208.197 120.947C210.117 139.841 207.93 197.8 205.173 201.121C201.499 205.55 182.744 206.384 182.744 202.118C182.744 200.551 180.847 199.27 178.526 199.27C171.548 199.27 169.543 184.807 175.917 180.447C200.883 163.367 202.817 160.684 202.384 143.732L202.168 135.188L199.337 145.05C193.41 165.708 177.817 179.333 160.102 179.333C155.323 179.333 151.415 180.615 151.415 182.181C151.415 183.747 154.3 185.063 157.823 185.106C162.092 185.157 166.436 188.72 170.839 195.786C176.299 204.55 180.728 207.483 196.349 212.684C215.563 219.084 223.791 219.366 210.168 213.16C206.05 211.283 202.681 208.671 202.681 207.355C202.681 203.724 206.409 204.476 213.683 209.571C218.177 212.718 223.466 213.655 230.39 212.533C237.929 211.308 242.335 212.317 247.618 216.472C255.678 222.812 267.287 223.641 278.232 218.654C284.019 216.016 286.921 216.016 291.145 218.654C297.738 222.772 309.917 223.114 312.306 219.249C313.363 217.537 310.934 217.05 306.066 218.001C287.263 221.675 284.273 188.977 299.735 148.796C305.927 132.704 326.78 139.42 336.797 160.726C345.236 178.684 343.971 245.836 335.071 252.344C331.391 255.035 330.523 257.154 332.562 258.478C334.67 259.848 332.166 269.703 324.81 288.984C318.834 304.649 313.904 319.601 313.85 322.213C313.799 324.822 312.714 327.385 311.438 327.909C310.162 328.43 310.059 341.674 311.213 357.339C312.363 373.003 313.844 407.938 314.502 434.969C315.718 485.07 316.559 490.02 322.944 484.736C325.835 482.344 326.051 466.782 324.009 408.2C321.147 326.084 321.133 326.203 339.46 274.744C365.309 202.172 352.556 130.915 313.722 130.915C307.277 130.915 301.515 129.053 299.151 126.202C293.256 119.09 277.614 113.496 269.394 115.561C263.977 116.92 261.084 115.934 258.139 111.728C252.163 103.198 238.47 98.6636 223.708 100.327C215.449 101.258 207.878 100.353 203.105 97.8633C195.053 93.6624 190.761 93.3633 180.671 96.3111ZM247.134 115.299C252.032 120.198 253.735 124.245 252.516 128.09C249.742 136.828 254.069 141.018 257.902 133.302C263.507 122.015 284.557 122.761 292.17 134.521C300.185 146.902 284.398 212.807 272.308 217.446C264.416 220.474 257.657 219.394 251.053 214.045L244.681 208.888L249.572 181.737C252.26 166.807 254.023 151.504 253.488 147.736C252.955 143.968 250.349 154.039 247.697 170.116C245.037 186.254 240.985 201.246 238.649 203.582C233.599 208.631 218.117 209.204 215.178 204.45C211.963 199.247 214.016 115.903 217.462 111.751C222.708 105.431 239.239 107.404 247.134 115.299ZM327.997 188.045C327.997 191.269 329.278 193.118 330.845 192.149C332.411 191.181 333.693 188.544 333.693 186.285C333.693 184.027 332.411 182.181 330.845 182.181C329.278 182.181 327.997 184.821 327.997 188.045ZM321.036 203.701C318.347 207.8 316.789 211.798 317.573 212.582C318.356 213.365 321.195 210.648 323.884 206.549C326.57 202.448 328.128 198.452 327.344 197.669C326.561 196.886 323.722 199.6 321.036 203.701ZM219.769 220.354C219.769 220.983 226.736 226.124 235.254 231.778C251.198 242.361 268.187 260.452 268.187 266.849C268.187 268.843 269.468 270.472 271.035 270.472C275.481 270.472 274.484 267.373 266.179 255.391C255.387 239.815 219.769 212.926 219.769 220.354Z" fill="#000000"/>
</svg>
