<svg width="500" height="500" viewBox="0 0 500 500" fill="#000000" xmlns="http://www.w3.org/2000/svg">
<path fill-rule="evenodd" clip-rule="evenodd" d="M229.444 1.01907C93.745 16.7004 0.0480181 118.43 1.80943e-05 250.133C-0.0769819 460.945 245.617 576.646 408.722 442.606C539.517 335.119 526.225 129.322 382.634 38.6812C339.606 11.5206 275.327 -4.28262 229.444 1.01907ZM414.524 109.007C417.467 110.743 420.444 115.688 420.444 118.84C420.444 121.811 403.421 163.607 401.277 165.898C398.654 168.702 398.261 168.787 371.693 172.258C345.994 175.615 348.068 175.815 349.385 170.11C349.94 167.703 350.406 163.148 350.42 159.99C350.433 156.832 350.633 154.247 350.864 154.247C353.418 154.247 380.464 149.975 382.014 149.327C383.29 148.792 385.365 145.525 387.425 140.806C392.732 128.649 393.598 128.922 358.944 131.846C327.062 134.537 307.435 134.985 307.46 133.022C307.549 125.857 311.531 117.385 315.908 115.045C321.538 112.036 410.432 106.592 414.524 109.007ZM209.975 150.27C217.132 154.689 217.208 157.737 210.972 190.623C205.168 221.235 203.856 219.169 229.104 219.169H248.364L250.397 212.593C251.516 208.977 254.254 194.976 256.483 181.48C260.815 155.242 260.87 155.047 264.931 151.25L267.602 148.753L297.773 148.496C320.653 148.301 328.541 148.545 330.414 149.509C333.757 151.229 337.444 156.91 337.444 160.342C337.444 164.545 303.6 354.958 302.137 358.987C299.334 366.705 297.967 366.993 264.178 366.993H234.209L230.185 362.974L226.161 358.956L226.727 351.238C227.038 346.994 228.86 335.431 230.775 325.543C236.146 297.811 236.161 297.592 232.821 295.407C229.314 293.111 196.025 293.071 193.734 295.36C191.889 297.203 188.809 312.233 185.465 335.718C180.85 368.125 178.683 369.42 132.18 367.536C98.916 366.188 100.025 378.151 121.786 255.409C139.917 153.139 140.03 152.63 145.337 149.749C150.038 147.197 205.724 147.647 209.975 150.27ZM388.502 183.765C392.323 187.217 391.896 190.783 385.881 205.685C378.212 224.685 378.078 224.909 373.688 226.114C370.472 226.998 342.991 231.155 340.364 231.155C339.17 231.155 339.204 229.2 340.529 221.601L341.614 215.379L349.779 214.21C362.533 212.383 362.016 212.671 364.497 206.042C367.549 197.892 367.045 197.525 354.747 198.962C343.136 200.32 343.978 200.912 345.612 192.536L346.944 185.709L362.944 183.531C380.547 181.135 385.645 181.182 388.502 183.765ZM365.361 241.644C368.977 245.197 368.445 248.381 361.439 265.126C354.026 282.847 354.355 282.541 339.859 285.152C327.154 287.44 328.365 288.067 329.896 279.993C331.399 272.059 331.918 271.11 334.753 271.102C338.877 271.092 344.219 269.079 344.723 267.346C345 266.393 345.945 263.955 346.824 261.928C349.134 256.598 347.434 255.111 340.315 256.234C333.716 257.277 333.913 257.58 335.561 248.929L336.944 241.667L347.444 240.026C359.523 238.137 362.023 238.363 365.361 241.644Z" fill="#000000"/>
</svg>
