<svg xmlns="http://www.w3.org/2000/svg" width="160" height="160" fill="#000000"><path fill-opacity=".161" fill-rule="evenodd" d="M61.5 1.927C40.696 7.217 24.332 18.74 12.666 36.316-2.439 59.072-4.275 90.384 8.029 115.381c19.48 39.576 67.698 55.993 107.436 36.579 20.363-9.948 37.099-30.441 42.029-51.462.903-3.849 2.061-7.779 2.574-8.734 1.07-1.994 1.293-25.459.232-24.397-.385.385-1.51-2.735-2.501-6.934-6.585-27.908-30.475-51.591-58.918-58.41C88.084-.565 71.469-.608 61.5 1.927m8 29.643c-2.75.765-6.462 1.4-8.25 1.411-3.044.018-3.25.241-3.25 3.519V40l10.25-.116c5.638-.064 9.421-.33 8.407-.591-1.237-.319-1.679-1.102-1.343-2.384.421-1.613-.067-1.92-3.158-1.979-2.955-.057-3.272-.235-1.656-.93 2.389-1.027 16.882-1.237 24.25-.352 4.625.555 5.25.904 5.25 2.925 0 1.735-.67 2.396-2.75 2.711-2.56.387-2.525.427.5.566 3.076.142 3.25-.037 3.25-3.35 0-3.28-.205-3.501-3.25-3.512-1.787-.006-5.725-.676-8.75-1.488-6.697-1.798-12.867-1.775-19.5.07m-6.016 13.814c-2.118 3.233-2.862 8.558-1.623 11.616.921 2.275 1.018 2.31 1.076.385.034-1.163.996-3.301 2.136-4.75C66.212 51.186 66.818 50 66.418 50s.077-.889 1.061-1.976c.983-1.087 2.178-1.736 2.655-1.441s.866.295.866.002c0-.294-1.337-1.225-2.97-2.07-2.839-1.468-3.04-1.429-4.546.869M83 55.732c-.825.316-4.95 2.253-9.166 4.305-5.846 2.845-7.971 3.462-8.952 2.597-.984-.868-.977-.726.03.605.723.956 1.735 1.479 2.248 1.162.813-.502 4.779 3.46 10.928 10.916 1.477 1.791 1.356.946-.676-4.701-1.362-3.787-2.35-6.994-2.194-7.128C76.762 62.158 90.437 57 92.418 57c3.332 0 3.254.707-.61 5.522-2.433 3.034-2.594 3.442-.675 1.719 1.383-1.243 2.843-1.931 3.244-1.531s.403-.119.006-1.155c-.542-1.411-.391-1.678.602-1.065.843.522 1.084.431.663-.25-.363-.588-.095-1.304.596-1.592.896-.372.699-.971-.685-2.085-1.909-1.537-9.416-2.034-12.559-.831M.385 80c0 6.875.16 9.688.355 6.25.196-3.437.196-9.062 0-12.5C.545 70.313.385 73.125.385 80m84.052-8.75L81.5 74.5l3.25-2.937c1.787-1.615 3.25-3.078 3.25-3.25 0-.773-.825-.092-3.563 2.937M69.5 92.5c-5.708 7.011-8.319 11.882-8.444 15.75-.076 2.367 1.658 2.225 2.428-.199.34-1.072 1.901-3.323 3.47-5.001 1.568-1.679 2.411-3.324 1.873-3.657-.556-.344-.079-1.56 1.107-2.823 1.146-1.22 1.873-2.429 1.615-2.687-.257-.258.638-1.757 1.991-3.332 1.972-2.295 3.381-5.791 2.21-5.486-.138.036-2.95 3.382-6.25 7.435m26.195 8.987c.915 1.919 1.841 3.31 2.058 3.093.457-.457-2.578-6.58-3.263-6.58-.251 0 .291 1.569 1.205 3.487m-20.757 5.079c-1.326 1.412-4.555 3.733-7.175 5.159-5.172 2.816-5.53 3.394-3.263 5.275 2.493 2.069 1.712 3-2.516 3-3.821 0-4.005.142-3.793 2.917.199 2.622.658 2.983 4.515 3.562 4.254.637 14.95-.403 12.544-1.221-.687-.234-1.25-1.035-1.25-1.781 0-.831-1.453-1.508-3.75-1.749-3.105-.324-2.804-.439 1.75-.667l5.5-.275-4.25-.952c-3.088-.692-4.25-1.448-4.25-2.766 0-2.238 5.816-2.979 17.894-2.28 7.321.424 8.009.633 6.871 2.091-1.125 1.441-1.071 1.469.485.249.963-.755 1.75-1.663 1.75-2.017s-2.373-2.063-5.273-3.797c-2.9-1.735-6.119-4.09-7.155-5.234-2.533-2.799-5.716-2.62-8.634.486m4.162 2.184c.089 3.347.185 3.481.9 1.25 1.145-3.575 1.145-5 0-5-.55 0-.955 1.688-.9 3.75M93 119.89c.825.594 2.737 1.086 4.25 1.095 2.038.011 2.75.511 2.75 1.932 0 1.054-.562 2.143-1.25 2.421-.747.301-.545.536.5.583 1.295.058 1.75-.7 1.75-2.921 0-2.648-.342-3-2.918-3-1.605 0-3.743-.267-4.75-.594-1.524-.495-1.58-.413-.332.484m-.187 6.793c.721.289 1.584.253 1.916-.079s-.258-.568-1.312-.525c-1.165.048-1.402.285-.604.604"/><path fill-opacity=".369" fill-rule="evenodd" d="M66.5 1.078c-2.75.545-7.925 1.938-11.5 3.094C29.258 12.502 9.524 33.632 2.395 60.5-.119 69.974-.13 90.749 2.373 100c6.088 22.499 22.226 41.989 43.049 51.989 12.571 6.037 19.002 7.417 34.578 7.417s22.007-1.38 34.578-7.417a80 80 0 0 0 37.411-37.411c3.927-8.177 7.011-18.256 7.011-22.913 0-1.401.45-2.825 1-3.165s1-4.668 1-9.618c0-5.745-.362-8.777-1-8.382-.571.353-1-.525-1-2.047 0-9.07-7.783-27.137-16.477-38.249C132.75 17.714 116 6.683 100.5 2.528c-7.312-1.96-27.158-2.807-34-1.45m1 30.492c-2.75.765-6.013 1.4-7.25 1.411-1.885.016-2.25.566-2.25 3.394 0 2.98.366 3.448 3.125 4 3.97.794 34.547.598 37.875-.243 2.021-.511 2.502-1.254 2.51-3.882.008-2.803-.336-3.252-2.5-3.262-1.381-.006-4.985-.676-8.01-1.488-6.759-1.814-16.836-1.784-23.5.07m-4.886 14.831c-2.318 4.884-2.053 10.652.676 14.701 1.259 1.869 2.584 3.173 2.944 2.898.831-.634 7.771 6.033 7.751 7.446-.008.58-1.566-.746-3.462-2.946s-3.465-3.531-3.485-2.958c-.053 1.448 8.441 9.646 9.204 8.883.34-.341 1.181.28 1.868 1.38 1.189 1.904 1.571 1.712 7.959-4.007 7.2-6.447 10.249-10.073 11.329-13.476.605-1.907.151-2.253-4.185-3.183-5.811-1.246-7.585-.889-16.713 3.365-10.672 4.975-11.039 5.022-12.452 1.612-.837-2.021-.905-3.507-.218-4.775 1.55-2.859 6.454-7.107 8.67-7.51 1.587-.288 1.116-.824-2.281-2.597C67.865 44.005 65.554 43 65.083 43c-.47 0-1.581 1.531-2.469 3.401M95.067 44.5c.007 1.766 2.859 6.138 2.898 4.441.019-.857-.626-2.432-1.433-3.5-.808-1.067-1.467-1.491-1.465-.941M.36 80c0 5.225.169 7.362.375 4.75s.206-6.888 0-9.5S.36 74.775.36 80m69.822 11.439c-3.414 4.06-6.874 8.66-7.689 10.222-2.058 3.946-1.852 9.238.511 13.113 1.098 1.801 1.996 3.438 1.996 3.639s-1.575.66-3.5 1.021c-3.198.6-3.5.955-3.5 4.111 0 3.324.142 3.455 3.75 3.466 2.063.006 5.959.681 8.659 1.5S77.425 130 80 130s6.891-.67 9.591-1.489 6.322-1.494 8.05-1.5c2.833-.01 3.18-.349 3.543-3.458.386-3.307.248-3.473-3.387-4.087-3.615-.611-3.721-.736-2.318-2.74 1.386-1.979 1.228-2.241-2.754-4.577-2.324-1.363-5.914-3.979-7.978-5.814S80.561 103 80.032 103s-2.441 1.279-4.247 2.843c-1.807 1.563-5.423 4.081-8.035 5.595L63 114.19v-2.695c0-3.126 5.757-9.472 8.65-9.535 1.454-.032 1.285-.347-.792-1.475l-2.641-1.435 3.175-3.367c2.662-2.823 6.194-10.43 5.271-11.353-.15-.15-3.066 3.049-6.481 7.109m21.74 4.373c2.219 2.922 4.524 7.13 5.122 9.351s1.312 3.814 1.587 3.539c1.368-1.367-2.075-8.745-6.16-13.202l-4.583-5z"/><path fill-opacity=".556" fill-rule="evenodd" d="M70.061 1.034C29.86 6.569 1.036 39.172.689 79.5c-.276 32.039 17.301 59.461 46.87 73.123 11.028 5.095 19.084 6.725 32.941 6.666 14.766-.064 23.678-2.233 36.774-8.954 7.533-3.866 10.986-6.488 18.817-14.285 8.426-8.391 10.221-10.825 14.787-20.05 3.725-7.526 5.637-12.908 6.752-19 .855-4.675 1.963-9.882 2.462-11.571C161.308 81.317 161.248 74 160 74c-.55 0-1-1.434-1-3.186 0-8.319-6.285-25.425-13.039-35.489-7.475-11.139-19.674-21.488-32.283-27.389C101.015 2.011 83.31-.791 70.061 1.034M72.5 30.122c-1.65.522-5.663 1.271-8.918 1.664l-5.918.714-.004 4c-.004 3.989.009 4.001 4.418 4.5 3.033.343 3.994.776 3.059 1.379-.75.484-2.211 2.796-3.248 5.138-2.873 6.495-.831 13.502 5.682 19.5 1.483 1.366 4.436 4.661 6.563 7.323 3.759 4.705 5.436 5.346 2.309.883C75.587 74 75.127 73 75.42 73s1.266 1.118 2.161 2.484c1.542 2.352 1.495 2.71-.876 6.75-1.377 2.346-4.287 6.291-6.467 8.766-7.228 8.208-9.238 11.884-9.234 16.89.002 2.802.767 5.862 1.95 7.803l1.947 3.192-3.601.308c-3.418.291-3.605.497-3.7 4.058-.083 3.122.235 3.747 1.9 3.733 1.1-.009 6.191.987 11.314 2.212l9.314 2.228 8.686-2.238c4.777-1.231 9.726-2.226 10.996-2.212 2.062.023 2.277-.377 2-3.724-.292-3.533-.524-3.768-3.992-4.056l-3.681-.307 2.431-3.583c2.845-4.191 3.128-9.045.793-13.604-1.466-2.861-9.307-12.765-13.223-16.7-2.459-2.471 1.8 4.049 5.878 9C95.254 100.359 97 104.221 97 109.45c0 2.503-.247 4.55-.548 4.55-.927 0-10.804-6.75-13.452-9.194-2.418-2.231-2.499-2.718-2.457-14.957l.043-12.651 7.586-7.085C96.196 62.619 99 58.2 99 53.049c0-3.505-2.457-8.9-4.904-10.767-1.36-1.038-1.128-1.223 1.572-1.25 5.131-.052 6.332-.923 6.332-4.594 0-3.092-.286-3.394-3.75-3.963-2.062-.338-6.479-1.258-9.814-2.045-6.831-1.611-11.534-1.702-15.936-.308m-3.059 14.41c1.068.807 2.755 1.468 3.75 1.468S75 46.45 75 47s-.8 1-1.777 1c-2.516 0-6.078 2.713-8.249 6.283-1.663 2.735-1.706 3.335-.415 5.832 1.435 2.773 1.454 2.778 5.19 1.223C79.221 57.398 79 57.669 79 49.974V43l-5.75.032c-5.274.029-5.589.153-3.809 1.5m11.179-.726c-.361.584-.551 3.577-.422 6.652.191 4.569.514 5.479 1.768 4.981 3.381-1.343 7.841-1.586 11.343-.619L97 55.839V52.03c0-5.793-2.368-7.928-9.612-8.665-3.891-.395-6.35-.235-6.768.441M52.359 55.047c.336 1.676 1.906 4.939 3.491 7.25C60.99 69.795 65 78.207 65 81.492c0 3.495-2.859 9.444-8.433 17.546C52.876 104.405 52.287 106 54 106c.55 0 1-.787 1.001-1.75s2.137-4.398 4.75-7.635C67.498 87.016 69 84.679 69 82.229c0-2.953-2.393-7.615-6.534-12.729-5.165-6.378-7.458-10.758-7.462-14.25-.003-2.332-.463-3.25-1.629-3.25-1.278 0-1.495.651-1.016 3.047M105 54.55c0 3.379-2.263 7.72-7.642 14.658-2.434 3.14-5.053 7.212-5.821 9.05-1.242 2.971-1.195 3.778.418 7.291.997 2.173 3.958 6.426 6.579 9.451s5.355 6.85 6.076 8.5c.722 1.65 1.32 2.325 1.329 1.5.01-.825-1.975-4.576-4.411-8.336s-5.179-8.801-6.095-11.202c-1.659-4.343-1.653-4.395 1.388-10.893 1.68-3.59 4.463-8.575 6.184-11.077C106.306 58.694 108.127 52 106.131 52c-.622 0-1.131 1.147-1.131 2.55M.3 80c0 3.025.187 4.263.416 2.75s.229-3.987 0-5.5S.3 76.975.3 80m76.35 6.517c-1.057 3.42-3.156 7.355-4.9 9.186l-3.051 3.203 2.65 1.207 2.65 1.208-3.791 1.697c-2.086.934-4.56 2.871-5.5 4.305-1.763 2.691-2.276 5.709-.958 5.635 1.588-.089 7.128-3.614 11.134-7.084l4.186-3.626-.285-10.857-.285-10.858z"/><path fill-opacity=".199" fill-rule="evenodd" d="M127.596 22.368c-1.703 1.777-2.426 3.189-1.75 3.414 1.951.65 1.276 3.218-.846 3.218-1.1 0-2 .378-2 .839 0 .462-1.125 1.353-2.5 1.979s-2.5 1.856-2.5 2.732c0 2.04-2.399 4.45-4.429 4.45-.864 0-1.571.675-1.571 1.5s-.675 1.5-1.5 1.5-1.5.792-1.5 1.759c0 1.617-3.097 4.382-4.656 4.157-.365-.052-1.065.62-1.554 1.494-1.129 2.018-2.92 2.092-2.152.09.317-.825.15-1.5-.37-1.5-.521 0-1.466-1.14-2.101-2.534-.896-1.965-.876-2.62.089-2.92 3.854-1.2 3.873-1.383.132-1.31l-4.113.081 2.363 3.481C98.241 47.16 99 49.702 99 52.705c0 4.967-.998 7.304-5.169 12.105-1.581 1.82-2.607 3.744-2.279 4.275.328.53.001.841-.728.69-.728-.151-1.2.321-1.049 1.049.151.729-.146 1.065-.659.748-.514-.318-2.172.886-3.686 2.675s-3.13 3.14-3.591 3.003c-.461-.138-.839 5.512-.839 12.554v12.804l3.25 3.039C87.879 109.04 94.135 113 95.868 113c1.762 0 1.342-7.166-.65-11.072-.979-1.921-4.396-6.73-7.591-10.685s-5.657-7.648-5.469-8.206c.314-.931 3.777 3.064 12.746 14.703 4.467 5.797 5.359 12.677 2.216 17.091C94.322 118.762 94.4 119 98.5 119c3.417 0 3.5.095 3.5 4 0 3.2-.364 4-1.818 4-.999 0-5.162.889-9.25 1.976-9.413 2.504-13.212 2.508-22.175.024-3.969-1.1-8.136-2-9.26-2-1.716 0-2.042-.639-2.042-4 0-3.972.026-4 3.84-4h3.841l-1.982-2.784c-2.856-4.01-3.594-9.228-1.884-13.32.787-1.884 4.002-6.345 7.144-9.911 6.815-7.737 8.941-11.457 8.196-14.343-.304-1.178-3.669-5.594-7.478-9.812-3.808-4.219-7.466-9.311-8.127-11.316-1.551-4.699-.584-9.673 2.624-13.485L66.178 41l-4.839.16c-3.622.12-4.025.261-1.601.563l3.239.402-2.099 4.114c-2.57 5.038-2.136 11.569 1.057 15.887 2.943 3.981 1.527 5.929-1.624 2.232-3.411-4-1.659-.926 3.816 6.699 2.545 3.544 4.919 7.396 5.275 8.561.972 3.172-.904 7.05-7.031 14.539-4.368 5.34-5.667 7.753-6.208 11.536-.463 3.237-1.206 4.884-2.298 5.094-4.036.778-2.454-6.922 2.677-13.019C60.512 93.05 64 85.441 64 81.5c0-3.867-3.461-11.527-7.008-15.51l-2.218-2.49 1.612 2.5c4.32 6.7 6.825 12.43 5.612 12.834-.686.229-2.092 1.26-3.123 2.291S56.55 83 56 83s-1 .9-1 2q0 2-2 2c-1.1 0-2 .45-2 1s-1.125 1-2.5 1-2.5.45-2.5 1 .45 1 1 1 1 .727 1 1.617c0 1.215-.667 1.489-2.687 1.103-3.353-.641-5.313.066-5.313 1.918 0 .784-.675 1.684-1.5 2-.926.356-1.5 1.875-1.5 3.969 0 3.211-.188 3.393-3.5 3.393-1.925 0-3.5.45-3.5 1s-.562 1.003-1.25 1.006c-3.242.014-8.926 2.293-9.493 3.806-.82 2.187-3.322 4.116-5.39 4.156-2.799.055-2.83 4.616-.06 8.76 16.723 25.014 44.748 38.197 74.738 35.157 18.161-1.84 34.027-9.503 47.432-22.908 9.55-9.551 15.385-18.892 19.477-31.182 6.839-20.543 4.179-46.544-6.589-64.397-4.224-7.003-12.782-17.467-15.956-19.51-2.288-1.472-2.555-1.398-5.313 1.48M81 29.033c4.125.414 8.767 1.251 10.315 1.86s4.698 1.051 7 .982l4.185-.125-5-.747c-2.75-.41-6.8-1.252-9-1.869-2.2-.618-6.475-1.062-9.5-.989-5.277.129-5.196.165 2 .888m-10.187.65c.721.289 1.584.253 1.916-.079s-.258-.568-1.312-.525c-1.165.048-1.402.285-.604.604M62 31l-4.5.7 4 .08c2.2.043 4.9-.307 6-.78 2.317-.996.904-.996-5.5 0m-5.748 5.5c.011 2.2.216 2.982.455 1.738s.23-3.044-.02-4-.446.062-.435 2.262M102 36.441c0 1.893.358 3.662.796 3.933s.776-1.276.75-3.438c-.025-2.161-.384-3.931-.796-3.933s-.75 1.545-.75 3.438m-30.5 8.543c1.1.467 2.9 1.175 4 1.573 1.76.637 1.64.806-1 1.41-7.493 1.713-10.038 4.847-7.957 9.797.942 2.241 1.017 3.236.242 3.236-.615 0-.853.266-.528.59.325.325 3.325-.636 6.667-2.136L79 56.727V44l-4.75.068c-3.547.05-4.244.282-2.75.916M81 49.37v5.536l4.911-.582c2.701-.32 6.301-.097 8 .495 3.036 1.058 3.088 1.022 3.054-2.121-.02-1.759-.639-4.286-1.376-5.617-1.163-2.099-2.215-2.473-7.964-2.832L81 43.834zm23.547 2.88c-.215.688-.671 2.937-1.014 4.998-.396 2.38-2.799 6.636-6.585 11.661-8.662 11.495-8.786 14.534-.964 23.572 6.01 6.945 7.35 9.282 7.966 13.899.633 4.739 3.354 5.806 3.853 1.51.207-1.784-1.118-4.685-4.19-9.171Q94.992 86.126 95.01 81.79c.012-2.787 4.278-12.164 7.408-16.283 5.279-6.945 7.39-14.507 4.051-14.507-.843 0-1.708.563-1.922 1.25m-3.088 2.817c-.363.586-.445 1.281-.183 1.543s.743-.218 1.069-1.067c.676-1.762.1-2.072-.886-.476M93.872 66.75c-1.269 1.619-1.222 1.64.628.283 1.1-.807 2.188-1.594 2.417-1.75S96.863 65 96.289 65s-1.662.787-2.417 1.75m-29.793.833c.048 1.165.285 1.402.604.605.289-.722.253-1.585-.079-1.917s-.568.258-.525 1.312m1.572 1.885c-.31.807-.133 1.734.393 2.059s.956.045.956-.623c0-.749.861-.488 2.25.684 2.026 1.709 2.009 1.625-.174-.845-2.836-3.208-2.703-3.158-3.425-1.275M68 73.941c0 .518.445 1.216.989 1.552.566.35.734-.051.393-.941C68.717 72.82 68 72.503 68 73.941m8.681 13.074c-1 3.017-2.071 6.11-2.38 6.874-.33.819-.125 1.12.5.734.584-.361 1.366-.162 1.739.442.419.677-.034.977-1.181.783-1.022-.172-2.962.459-4.31 1.404l-2.451 1.718 3.222.644c4.446.889 4.798 2.048.846 2.789-3.254.61-10.284 6.597-7.746 6.597.741 0 1.047.643.716 1.505-.812 2.117 5.805-1.465 10.149-5.493l3.285-3.046-.285-10.218L78.5 81.53z"/></svg>