<svg xmlns="http://www.w3.org/2000/svg" width="32" height="32" version="1.1" fill="#000000"><path fill-opacity=".129" d="M 7.454 7.260 C 7.157 8.034, 7.046 12.455, 7.207 17.084 C 7.473 24.736, 7.682 25.500, 9.500 25.500 C 11.359 25.500, 11.500 24.833, 11.500 16.014 C 11.500 7.768, 11.271 6.483, 9.747 6.190 C 8.783 6.004, 7.751 6.486, 7.454 7.260 M 20.364 7.493 C 20.018 8.396, 20.214 9.614, 20.800 10.200 C 22.324 11.724, 25.210 10.331, 24.812 8.265 C 24.369 5.963, 21.165 5.407, 20.364 7.493 M 14.200 10.200 C 12.456 11.944, 12.673 20.484, 14.500 22 C 15.697 22.993, 16.303 22.993, 17.500 22 C 20.291 19.684, 19.058 9, 16 9 C 15.670 9, 14.860 9.540, 14.200 10.200 M 20.437 14.303 C 20.131 15.101, 20.020 17.947, 20.190 20.627 C 20.451 24.730, 20.816 25.500, 22.500 25.500 C 24.277 25.500, 24.500 24.833, 24.500 19.514 C 24.500 14.604, 24.185 13.467, 22.747 13.190 C 21.783 13.004, 20.743 13.505, 20.437 14.303" stroke="none" fill="#000000" fill-rule="evenodd"/><path fill-opacity=".23" d="M 7.667 6.667 C 6.564 7.770, 6.905 24.823, 8.044 25.527 C 10.595 27.104, 12 23.746, 12 16.078 C 12 7.872, 10.254 4.079, 7.667 6.667 M 21.207 7.250 C 19.725 9.036, 21.344 11.466, 23.473 10.649 C 25.269 9.959, 25.218 6.905, 23.400 6.300 C 22.795 6.098, 21.808 6.526, 21.207 7.250 M 14 16 C 14 21.333, 14.222 22, 16 22 C 17.778 22, 18 21.333, 18 16 C 18 10.667, 17.778 10, 16 10 C 14.222 10, 14 10.667, 14 16 M 20.626 14.533 C 19.444 17.613, 19.978 23.737, 21.542 25.035 C 23.988 27.065, 25.149 24.884, 24.807 18.902 C 24.578 14.888, 24.087 13.440, 22.876 13.210 C 21.983 13.041, 20.970 13.636, 20.626 14.533" stroke="none" fill="#000000" fill-rule="evenodd"/><path fill-opacity=".181" d="M 7.667 7.667 C 7.300 8.033, 7 12.083, 7 16.667 C 7 24.333, 7.160 25, 9 25 C 10.852 25, 11 24.333, 11 16 C 11 9.167, 10.679 7, 9.667 7 C 8.933 7, 8.033 7.300, 7.667 7.667 M 21 8.441 C 21 9.234, 21.399 10.129, 21.887 10.430 C 22.988 11.111, 25.229 8.562, 24.325 7.658 C 23.135 6.468, 21 6.971, 21 8.441 M 14.688 10.646 C 14.309 11.024, 14 13.733, 14 16.667 C 14 21.377, 14.240 22, 16.050 22 C 17.911 22, 18.072 21.477, 17.800 16.329 C 17.523 11.084, 16.364 8.969, 14.688 10.646 M 21.658 13.675 C 21.296 14.037, 21 16.766, 21 19.740 C 21 24.349, 21.258 25.098, 22.750 24.814 C 25.040 24.379, 25.801 15.910, 23.706 14.171 C 22.942 13.537, 22.020 13.313, 21.658 13.675" stroke="none" fill="#000000" fill-rule="evenodd"/><path fill-opacity=".193" d="M 7.187 21.242 C 7.393 23.377, 8.097 24.597, 9.250 24.815 C 10.652 25.081, 11 24.436, 11 21.573 C 11 18.630, 10.636 18, 8.937 18 C 7.212 18, 6.925 18.532, 7.187 21.242 M 14.190 19.750 C 14.628 22.021, 17.372 22.021, 17.810 19.750 C 18.046 18.522, 17.506 18, 16 18 C 14.494 18, 13.954 18.522, 14.190 19.750 M 21 21.573 C 21 24.436, 21.348 25.081, 22.750 24.815 C 23.903 24.597, 24.607 23.377, 24.813 21.242 C 25.075 18.532, 24.788 18, 23.063 18 C 21.364 18, 21 18.630, 21 21.573" stroke="none" fill="#000000" fill-rule="evenodd"/></svg>