<svg xmlns="http://www.w3.org/2000/svg" width="24" height="24" fill="#000000"><g clip-path="url(#a)"><circle cx="12" cy="12" r="12" fill="#000000"/><path fill="#000000" fill-rule="evenodd" d="M15.034 16.378c0-.132.04-.29.092-.343.198-.198.277.185.33 1.609.066 1.622-.027 1.886-.554 1.609-.515-.277-.844-1.49-.528-1.978.106-.185-.04-.383-.29-.396-.145 0-.54 1.477-.527 1.938.013.238-.04.449-.106.449-.04.007-.089.013-.138.02-.05.006-.1.013-.139.02-.066.013-.303-.37-.514-.845-.409-.936-.791-1.2-.791-.566 0 .567-.475 1.252-.831 1.2a.448.448 0 0 1-.343-.304c-.04-.21-.013-.224.158-.092.159.132.211.105.33-.198.277-.725.316-.976.158-1.16-.422-.502-1.45.118-1.45.87 0 .237-.093.527-.211.66-.224.25-.185.276.672.408a.4.4 0 0 1 .303.29c.053.224-.013.238-.553.172-.343-.053-.792-.172-1.003-.29-.21-.106-.54-.198-.725-.198-.184 0-.475-.132-.646-.304-.17-.169-.244-.244-.298-.23-.042.01-.072.074-.124.19-.198.45-.422.383-.554-.144-.206-.804-.28-1.138-.34-1.135-.048.002-.087.213-.174.568-.092.395-.145.883-.119 1.081.08.409-.237.765-.474.527-.146-.145 0-1.239.29-2.28.29-1.016.844-.963 1.002.091.105.7.224.66.448-.145.172-.606.303-.725.488-.435.053.093.317.172.567.172h.462l-.014.95c0 .685.04.962.159.962.092 0 .198-.106.237-.237.119-.396.145-1.939.04-2.11-.066-.106-.027-.159.105-.159.119 0 .29.185.383.396.158.396.171.396.395.145a2.11 2.11 0 0 1 .62-.409c.316-.132.435-.132.712.053.185.119.33.277.33.343 0 .079.079.132.184.132.119 0 .172-.145.159-.435-.014-.567.21-.66.342-.132.08.303.185.435.37.435.171 0 .237-.066.184-.198-.053-.132 0-.198.211-.198.158 0 .238-.052.198-.145-.053-.079.013-.224.145-.316.211-.159.277-.159.382-.014.08.093.33.225.568.264.356.092.421.066.421-.158Zm-.396 1.648c.171.7.264.686.264-.066 0-.738-.013-.751-.224-.54-.093.092-.106.303-.04.606Zm-6.62.752c.224.132.422-.158.462-.646.026-.554-.211-.752-.422-.343-.172.303-.185.897-.04.989Zm5.037-.712c.08 0 .132-.119.132-.264 0-.145-.052-.264-.131-.264-.066 0-.132.12-.132.264 0 .145.066.264.132.264Zm4.18-2.15c-.052.04-.052.304-.012.58.092.568-.04.687-.831.7-.765.013-.409.342.37.342.368 0 .381.027.381.607v.62l-.593-.066c-.33-.04-.593-.053-.593-.026 0 .013.092.131.21.237.225.237 1.306.29 1.636.079.158-.092.158-.158.013-.448-.132-.238-.158-.58-.092-1.174.105-1.081-.145-1.807-.488-1.45ZM13.663 5.143c.356-.185.725-.409.818-.488.382-.356.936.303.751.883-.118.383-.435.343-.369-.052.092-.475-.171-.528-.672-.132-.37.303-.422.395-.304.593.211.33.027.449-.316.211-.264-.184-.33-.184-.7 0a3.362 3.362 0 0 0-.46.25c-.04.04.144.278.408.555.25.263 1.187 1.516 2.07 2.782.87 1.253 1.596 2.189 1.596 2.084 0-.185.725-.554 1.754-.884.264-.08.488-.171.488-.198 0-.026-.132-.171-.29-.33-.211-.197-.25-.303-.145-.408.25-.25.567-.027.844.62.303.672.237 1.239-.08.79-.17-.224-.21-.237-.62-.039-.237.106-.606.25-.83.303a3.586 3.586 0 0 0-.739.29l-.355.198.725 1.2c.395.66.91 1.622 1.147 2.123.237.515.54 1.029.672 1.16.12.133.185.278.146.317-.053.053-.462-.263-.91-.699l-.818-.79-2.347.052h-.024c-2.284.053-2.323.054-2.1.303.172.198.199.29.08.41-.106.105-.264.052-.633-.225l-.475-.37-1.279.159c-.699.079-1.886.264-2.65.395-.765.146-1.411.238-1.438.212-.158-.172 2.967-6.963 4.101-8.888.475-.818.805-1.53.791-1.728-.005-.145-.009-.226.018-.237.033-.014.114.087.299.316l.316.409.449-.409c.237-.224.725-.554 1.081-.738ZM13.21 8.81V8.81c-.13-.228-.27-.48-.417-.74-.54-.95-1.029-1.74-1.068-1.74-.04 0-.185.342-.304.751-.131.422-.474 1.293-.751 1.939-.29.646-.515 1.187-.515 1.2 0 0 .343-.027.765-.08a17.937 17.937 0 0 1 1.846-.105c.607-.013 1.082-.066 1.055-.119-.01-.038-.264-.49-.611-1.105Zm.98 1.989c.106-.08.146-.198.106-.264-.04-.066-.105-.105-.158-.092-.053.013-.356.04-.686.066-.33.026-.725.079-.897.105l-.303.08.475.843c.264.475.435.923.382 1.003-.066.118-.145.092-.277-.093-.158-.21-.197-.224-.382-.026-.185.184-.158.21.277.29.264.053.5.08.514.053.025-.026.184-.402.383-.874l.026-.063c.198-.487.448-.949.54-1.028Zm-3.059 1.16c.172-.237.409-.62.528-.857l.224-.422h-.976c-.54 0-1.015.04-1.055.093-.185.184-.079.487.448 1.279.462.685.58.79.884.764.488-.065.633-.237.422-.487-.145-.185-.185-.172-.356.066-.198.29-.435.356-.435.118 0-.079.145-.33.316-.554Zm.95-.356c.316 0 .33-.026.171-.237a8.003 8.003 0 0 1-.14-.186 1.509 1.509 0 0 0-.058-.078c-.013-.026-.092.08-.184.224-.132.25-.106.277.21.277Zm4.575 2.69a35.436 35.436 0 0 1-1.213-1.938c-.685-1.16-.738-1.226-.844-1.055-.052.105-.527 1.49-.554 1.622-.013.04-.197.435-.435.883-.237.449-.422.845-.422.87 0 .027.752.093 1.688.133.923.052 1.82.118 1.991.171.29.092.277.04-.21-.686Zm-5.815.251a30.094 30.094 0 0 1-.83-1.45C9.692 12.487 9.402 12 9.362 12c-.04.013-.303.527-.593 1.147-.29.633-.778 1.53-1.095 1.991-.303.475-.527.884-.5.91.026.027.513-.118 1.08-.343.58-.224 1.372-.474 1.768-.553l.127-.027c.607-.125.835-.172.86-.27.015-.06-.042-.137-.134-.262l-.036-.048Zm1.226-2.281c.106-.093.198-.185.198-.211 0-.027-.092-.053-.197-.053-.106 0-.198.092-.198.21 0 .185.04.185.197.054Zm.106 2.466c.171-.053.672-.897.818-1.385.079-.277.052-.29-.844-.29-.502 0-.963.066-1.003.145-.118.184.831 1.596 1.029 1.53ZM8.875 5.077c-.409-.198-.54-.448-.343-.633.04-.053.12-.092.145-.092.198 0 2.137 1.384 2.137 1.516 0 .37-.37.488-1.016.356l-.633-.132.396.317c.224.184.527.395.699.461.316.119.29.383-.053.383-.105 0-.184.105-.184.237 0 .29-.251.554-.528.554-.119 0-.501-.145-.857-.33-.475-.237-.686-.277-.818-.171-.092.079-.171.184-.171.237 0 .106 1.556 1.055 1.727 1.055.066 0 .119.053.119.132 0 .396-1.714-.237-2.018-.752-.145-.224-.369-.224-.276.014.079.21-.33.408-.515.224-.21-.211.04-.673.567-1.016.277-.184.528-.448.567-.593.04-.158.224-.29.475-.33.448-.092.501-.198.211-.448-.237-.198-.264-.66-.026-.66.079 0 .461.093.817.198l.66.198-.33-.264a4.776 4.776 0 0 0-.752-.461Zm.726 2.505c.04-.026-.04-.21-.159-.395-.158-.238-.33-.33-.66-.33-.434 0-.606.08-.606.29 0 .066.119.08.264.04.145-.04.264-.027.264.04 0 .144.791.46.897.355Zm4.879-1.16c-.567.33-1.029.672-1.029.765 0 .105.092.145.237.105.185-.04.304.08.502.514.124.282.187.423.295.49.11.068.269.058.588.038.501-.04.607-.013.54.145-.039.105-.012.237.067.29.224.132.171.277-.185.435-.448.211-.448.607 0 .501.238-.066.303-.04.25.093-.065.197.594 1.081.713.95.04-.04-.013-.225-.119-.41-.158-.316-.158-.369.132-.593.382-.317 1.596-.37 1.345-.066-.224.277.053.396.303.132.119-.106.211-.25.211-.317 0-.197-.738-.527-1.186-.527-.436 0-.475-.08-.198-.448.21-.277.263-.95.092-1.042-.053-.04-.62.079-1.266.25-.66.172-1.213.29-1.24.25-.131-.118.12-.46.33-.46.356 0 1.082-.489 1.24-.845.184-.382-.04-.87-.383-.857-.118.013-.685.277-1.24.607Zm1.226.158c-.198.343-.897.712-1.16.607-.159-.053-.013-.198.5-.515.396-.237.726-.408.752-.395.027.013-.013.158-.092.303Zm.91 1.57c0 .052-.066.17-.158.263-.093.092-.211.158-.264.158-.171 0-.119-.369.066-.435.25-.105.356-.105.356.013ZM6.766 9.77c-.172-.224-.225-.712-.08-.844.211-.224.435-.079.356.224-.052.238.027.383.356.66.488.409.923.409 1.108-.027.185-.408.383-.369.264.066-.119.502-.303.7-.646.7-.317 0-1.121-.462-1.359-.779Zm-1.346.897c-.158.106-.158.158-.026.33.105.119.237.21.303.21s.475.278.91.62c.739.568.765.62.528.792-.225.158-.304.132-.647-.224-.224-.211-.5-.396-.62-.396-.435 0-1.16.554-1.08.83.052.159 2.505 1.135 2.65 1.043.066-.04-.013-.172-.172-.304-.29-.237-.29-.25-.052-.567.132-.184.277-.343.343-.343.158 0 .105-.356-.132-.778-.33-.567-.106-.764.554-.488.276.12.527.185.567.159.131-.145-.12-.475-.528-.686-.501-.264-2.308-.396-2.598-.198Zm1.464.567c-.119.119-.198.119-.316 0-.12-.118-.093-.158.158-.158.25 0 .277.04.158.158Zm-.501 1.411c.37.409.145.54-.488.303-.699-.263-.712-.277-.488-.421a.76.76 0 0 1 .976.118Zm12.804-.593c-.105-.053-.197-.132-.197-.198 0-.185.356-.132.58.092.5.501-.053 1.503-.818 1.503-.936 0-1.53-.5-1.041-.896.316-.264 1.186-.436 1.305-.25.145.236.053.408-.237.434-.58.027-.712.066-.712.185 0 .21.817.145 1.08-.092.291-.264.317-.673.04-.778ZM4.22 13.873c-.33.527-.303 1.107.04 1.054.119-.026.646.119 1.16.304.937.33 1.438.408 1.438.224 0-.053-.25-.198-.554-.317-.594-.21-.686-.435-.449-1.134.172-.5-.145-.33-.382.211-.224.501-.237.501-.672.37-.528-.172-.554-.251-.132-.673.171-.171.277-.343.237-.383-.171-.184-.448-.052-.686.343Zm13.78.105c0-.145.212-.211.858-.277l.291-.024c.368-.03.696-.058.79-.068.119-.013.264.04.317.132.092.145-.225.488-.884.95-.171.105-.264.25-.21.29.105.118 1.529-.423 1.819-.687.158-.145.25-.158.316-.052.145.224-.277.606-1.002.923-1.319.554-2.202.092-1.345-.712l.37-.343-.66.026c-.514.027-.66 0-.66-.158Z" clip-rule="evenodd"/></g><defs><clipPath id="a"><path fill="#000000" d="M0 0h24v24H0z"/></clipPath></defs></svg>