<svg xmlns="http://www.w3.org/2000/svg" width="200" height="200" fill="#000000"><path fill-opacity=".494" fill-rule="evenodd" d="M0 100.005V200.01l100.25-.255 100.25-.255.255-99.75L201.01 0H0zm.481.495c0 55 .121 77.647.269 50.326.148-27.32.148-72.32 0-100C.602 23.147.481 45.5.481 100.5M86.2 82.2c-1.847 1.847-1.425 6.182.839 8.611 2.553 2.741 3.196 2.734 5.529-.061 1.034-1.237 1.29-1.74.571-1.116-1.747 1.516-4.956.577-6.242-1.826-.778-1.455-.639-2.553.555-4.375 1.656-2.527.843-3.328-1.252-1.233m29.364 1.507c-.542 1.425-.428 1.54.56.56.684-.679.991-1.486.683-1.793-.308-.308-.867.247-1.243 1.233M117 88.378c0 .207.787.995 1.75 1.75 1.586 1.243 1.621 1.208.378-.378-1.307-1.666-2.128-2.195-2.128-1.372m-9.206 47.97c-.751.752-2.58 1.238-4.064 1.079-1.484-.158-2.945.112-3.246.599-.302.488-1.096.686-1.766.441s-1.887-.021-2.705.499c-1.257.799-1.121 1.285.885 3.154 2.191 2.041 2.242 2.304.67 3.454-.935.684-1.559 1.495-1.385 1.803.175.307-.358 1.36-1.183 2.341-1.873 2.226-2.367 6.115-1.183 9.316.684 1.85.512 2.748-.706 3.675-1.423 1.084-1.349 1.231.639 1.259 1.752.025 2.25.611 2.25 2.649 0 2.251.349 2.55 2.5 2.138 2.241-.428 2.948.219 2.643 2.421-.051.372 1.358 1.019 3.132 1.438l3.225.761-3 .694c-2.772.642-2.682.703 1.191.813 2.305.065 4.469-.332 4.809-.882s.168-1-.382-1c-1.88 0 1.835-5.497 4.115-6.089 1.247-.323 2.136-1.166 1.976-1.872-.177-.782.3-1.058 1.218-.705 2.053.787 3.029-1.08 1.517-2.902-1.656-1.995-.585-2.846 1.905-1.513 2.737 1.465 4.151 1.359 4.151-.312 0-1.728-2.735-2.903-3.239-1.391-.251.754-.925.792-2.125.12-1.484-.83-1.132-1.17 2.262-2.187 5.304-1.589 5.884-2.776 1.135-2.324-2.089.2-4.103-.129-4.475-.731-.427-.691.34-1.094 2.083-1.094 3.02 0 2.214-1.546-1.141-2.189-1.135-.218-1.889-1.055-1.743-1.936.141-.854-.724-2.413-1.922-3.464s-1.85-1.348-1.448-.661.254 1.25-.328 1.25c-1.597 0-1.27-1.982.435-2.636.822-.316 1.198-1.053.836-1.639-.423-.684-.014-.818 1.142-.374 1.663.638 1.685.518.285-1.58-.832-1.249-2.356-2.271-3.385-2.271-1.03 0-2.398-.342-3.041-.759-.644-.418-1.785-.144-2.537.607m5.939 1.776c.679.684 1.486.991 1.793.683.308-.308-.247-.867-1.233-1.243-1.425-.542-1.54-.428-.56.56M121.5 165c.34.55.816 1 1.059 1s.441-.45.441-1-.477-1-1.059-1-.781.45-.441 1m-17.225 13c.121 1.611.838 1.985 3.688 1.921 1.945-.043 2.975-.306 2.287-.583-.687-.278-1.25-1.142-1.25-1.921 0-.835-1.001-1.417-2.438-1.417-1.821 0-2.4.506-2.287 2"/><path fill-opacity=".209" fill-rule="evenodd" d="M0 100.005V200.01l100.25-.255 100.25-.255.255-99.75L201.01 0H0zm.481.495c0 55 .121 77.647.269 50.326.148-27.32.148-72.32 0-100C.602 23.147.481 45.5.481 100.5M97.58 12.538c-.35 1.396-.146 3.308.455 4.25.896 1.406.988 1.225.516-1.011-.44-2.082-.243-2.596.838-2.181.778.298 1.645 1.424 1.926 2.502.282 1.078.889 1.893 1.349 1.812 2.025-.356 2.491.198 1.336 1.59-1.038 1.251-.901 1.5.828 1.5 1.14 0 2.531.788 3.092 1.75s1.033 1.214 1.05.559c.016-.655-.468-1.499-1.077-1.875-.779-.482-.724-.92.186-1.483 1.055-.652 1.052-1.088-.016-2.375-.719-.867-1.873-1.576-2.563-1.576s-1.815-.675-2.5-1.5c-1.498-1.806-.671-1.936 1.939-.306 1.489.93 2.515.92 4.627-.042 2.368-1.079 2.992-.976 4.889.806 1.196 1.123 2.707 2.042 3.359 2.042s1.222.788 1.265 1.75c.05 1.1.27 1.273.594.466.284-.706.002-1.903-.627-2.661-.861-1.037-.846-1.56.06-2.12.763-.472.942-.321.489.41-.392.635-.274 1.155.263 1.155.536 0 1.164-.338 1.395-.75.23-.413.268-.151.083.581-.184.732.395 2.307 1.287 3.5 1.156 1.545 1.453 1.666 1.031.419-.325-.962-.155-1.75.377-1.75 2.406 0 .032-3.565-3.842-5.773-1.875-1.068-2.328-1.028-2.816.244-.492 1.281-1.071 1.169-3.728-.723-1.73-1.232-3.177-2.242-3.216-2.244s-.859.784-1.822 1.746c-2.145 2.145-3.488 2.225-4.245.25-.699-1.82-3.003-1.976-3.7-.25-.403 1-.52 1-.583 0-.14-2.21-1.841-1.333-2.499 1.288m-7.042 1.88c.925 1.411 2.089 2.313 2.588 2.004 1.18-.729.271-2.139-2.253-3.49-1.958-1.048-1.967-1.006-.335 1.486m-8.288 1.138c-1.932 2.101-1.59 4.212.366 2.257.889-.889 1.451-2.066 1.25-2.616-.212-.58-.892-.428-1.616.359m44.994 1.125c-.691.27-.989.923-.661 1.453.365.591 1.15.503 2.03-.228 2.024-1.679 2.81-.472.922 1.416-1.413 1.413-1.322 1.542.971 1.366 1.393-.107 2.523-.531 2.513-.942S133 18.423 133 17.718c0-1.303-3.469-1.928-5.756-1.037m-50.318.569c-.73 2.454-.691 4.777.088 5.259.542.335.986-.055.986-.867s.53-1.652 1.177-1.868c1.301-.433.258-2.774-1.236-2.774-.518 0-.974.113-1.015.25M90 19c.825.533 1.95.969 2.5.969s.325-.436-.5-.969-1.95-.969-2.5-.969-.325.436.5.969m45.241.575c.408.407.24 1.345-.372 2.083-.819.987-.817 1.342.009 1.342.617 0 1.122-.45 1.122-1s.436-1 .969-1 .709.675.393 1.5c-.359.935.007 1.5.972 1.5 2.285 0 2.576-1.296.674-3-1.677-1.502-5.162-2.821-3.767-1.425M71 22.941c0 .518.498 1.249 1.107 1.625.773.478.697.961-.25 1.601-1.011.683-.847.842.643.625 3.627-.529 4.415-2.123 1.736-3.514C71.29 21.75 71 21.72 71 22.941m7.525.019c-.848 1.372-.097 2.402 1.38 1.894.606-.208.683-.914.188-1.711-.625-1.006-1.03-1.053-1.568-.183m63.019 3.614c-.937 1.43-1.443 2.86-1.124 3.179s.58.095.58-.498c0-1.181 1.79-1.142 3.75.082.688.43 1.257.417 1.265-.028s.452-.134.985.691c.591.914.975 1.032.985.302.008-.66-1.054-2.353-2.362-3.763l-2.376-2.565zm-74.156-.143c-.329.857-1 1.309-1.493 1.004-1.421-.878-1.038.201.535 1.507 1.143.948 1.646.784 2.503-.817q1.073-2.004.063-2.628c-.556-.343-1.279.077-1.608.934m-5.005 5.995c-.951 2.052-.84 2.483.75 2.898 2.084.546 2.567-.825.617-1.752-.687-.327-.337-.432.78-.234s2.553-.202 3.194-.887c.902-.966.671-1.379-1.03-1.835-3.113-.835-3.079-.85-4.311 1.81M68.5 34c.34.55.816 1 1.059 1s.441-.45.441-1-.477-1-1.059-1-.781.45-.441 1m-8 3c.34.55.066 1-.608 1s-.99.236-.702.524c.747.747 3.81-.564 3.81-1.631 0-.491-.702-.893-1.559-.893s-1.281.45-.941 1m-3.417 5.283c.23.156 1.317.943 2.417 1.75 1.85 1.357 1.897 1.336.628-.283-.755-.962-1.843-1.75-2.417-1.75s-.857.127-.628.283M129 43.941c0 .518.445 1.216.989 1.552.566.35.734-.051.393-.941-.665-1.732-1.382-2.049-1.382-.611m-39.728 9.016c.161 2.147.993 1.845 1.335-.486.119-.809-.166-1.471-.633-1.471s-.783.881-.702 1.957m-1.938 4.47c.63 1.335 1.303 2.269 1.497 2.076.62-.621-.935-4.503-1.804-4.503-.461 0-.323 1.092.307 2.427m63.209-.496c-.317.512-.193 1.167.274 1.456s.85-.13.85-.931c0-1.686-.316-1.833-1.124-.525M68 59.441c0 .793.408 1.693.907 2.001.498.309.671-.34.383-1.441-.611-2.335-1.29-2.63-1.29-.56m27.623 7.019c.572 1.49-1.078 1.482-5.828-.025-1.551-.492-1.848-.321-1.228.708.676 1.124.541 1.134-.786.058-.969-.784-1.838-.917-2.198-.335-.328.53-.03 1.222.661 1.539s.253.329-.972.025C82.865 67.835 76 72.485 76 74.711c0 .666-.863 2.016-1.917 3-2.521 2.352-3.049 7.49-1.476 14.337.702 3.051 1.372 8.867 1.491 12.923.229 7.832 1.676 14.203 3.683 16.21.938.938 1.219.942 1.219.019 0-.66.675-1.2 1.5-1.2s1.5-.45 1.5-1 .477-1 1.059-1 .734.526.336 1.17c-.493.798-.168.957 1.023.5.96-.369 1.934-.67 2.164-.67s.418-.62.418-1.378.761-1.995 1.692-2.75c1.12-.908 1.441-.954.948-.133-.508.845-.244 1.046.834.633 1.244-.478 1.327-.907.391-2.034-.652-.786-1.901-1.157-2.775-.824-1.245.473-1.328.34-.382-.612.948-.956 1.573-.915 2.912.19 1.321 1.09 1.8 1.126 2.126.158.231-.687 1.058-1.25 1.837-1.25s1.431.563 1.449 1.25c.019.763.549.569 1.36-.5.731-.963 1.868-1.75 2.527-1.75.66 0 .916-.457.571-1.016s-1.047-.758-1.559-.441c-.512.316-.931-.1-.931-.925 0-1.973 1.695-2.98 2.313-1.374.266.691.432.232.37-1.019s-.616-2.081-1.231-1.845-1.119-.183-1.119-.931c0-.749.313-1.168.695-.931.383.236.645-1.246.584-3.294-.109-3.617-.002-3.733 3.708-4.039 2.101-.173 4.417.182 5.147.787 2.456 2.039-.034 6.098-3.953 6.442-.543.047-1.15.933-1.349 1.969-.299 1.55.069 1.775 2.074 1.272 1.412-.355 3.224-.037 4.307.755 1.029.752 2.452 1.144 3.162.872 1.864-.715 1.588.754-.458 2.439-1.595 1.315-1.6 1.395-.051.912 1.274-.398 1.54-.106 1.063 1.168-.522 1.393-.371 1.484.834.506.903-.732 2.016-.856 2.884-.32.777.481 2.111.518 2.966.084 2.511-1.275 8.826-2.247 7.054-1.085-1.252.821-1.169.999.5 1.078 1.1.051 1.438.321.75.598-.687.278-1.25.931-1.25 1.451 0 .521 1.45-.079 3.223-1.333 4.518-3.196 5.265-4.037 5.36-6.03.274-5.745.515-6.808 1.417-6.25.55.34 1-.11 1-1s-.369-1.39-.819-1.112c-.852.527-.462-4.769.544-7.388.978-2.546 1.013-6 .062-6-.498 0-.567-.562-.154-1.25.597-.995.439-.998-.774-.016-1.237 1-1.526.953-1.526-.25 0-.816.375-1.484.834-1.484s.833-.45.833-1-.702-1-1.559-1-1.3-.419-.984-.931.118-1.213-.441-1.559-1.016-.137-1.016.462c0 .625-1.496.99-3.5.855-2.024-.136-3.5-.767-3.5-1.496 0-3.021-9.377-4.379-10.48-1.518-.278.723-.928 1.053-1.445.733-.555-.342-.385-1.648.415-3.189 1.037-2 1.08-2.906.182-3.88-.943-1.022-1.314-1.024-1.897-.008-.406.708-1.945 1.096-3.5.883-2.4-.328-2.505-.248-.775.599 1.686.825 1.529.918-1 .596-1.65-.21-3.589-.42-4.309-.465s-1.02-.55-.666-1.123c.354-.572 1.468-.779 2.475-.459s2.121.113 2.475-.459.279-1.075-.166-1.118c-.445-.042-1.68-.239-2.744-.438-2.621-.491-4.788 2.484-3.287 4.512.612.827.237.699-.833-.283-1.692-1.554-1.75-1.923-.445-2.837 1.185-.83 1.011-.943-.829-.537-1.73.382-2.188.147-1.781-.913.317-.828-.056-1.427-.89-1.427-.849 0-1.208.597-.877 1.46m-17.544 3.123c.048 1.165.285 1.402.604.605.289-.722.253-1.585-.079-1.917s-.568.258-.525 1.312M89 68.987c-2.377 1.377-5.412 2.352-6.5 2.088-.55-.133-.662.097-.248.511.414.413.022 1.559-.871 2.546-2.285 2.525-1.107 5.327 1.625 3.865 1.119-.599 2.425-.849 2.902-.554.476.295.804-.247.729-1.204-.11-1.397.686-1.739 4.044-1.739 3.543 0 4.247-.344 4.612-2.25.366-1.918-.001-2.25-2.491-2.25-1.692 0-2.66-.421-2.302-1 .727-1.177.511-1.178-1.5-.013M110.5 75c-.34.55-.141 1 .441 1S112 75.55 112 75s-.198-1-.441-1-.719.45-1.059 1m-5.421 1.583c.048 1.165.285 1.402.604.605.289-.722.253-1.585-.079-1.917s-.568.258-.525 1.312m18.295-.333c.633 1.967-.594 2.238-3.381.746-1.464-.783-2.181-.565-3.274.994-.769 1.099-1.621 1.775-1.892 1.504-.272-.272-.494.188-.494 1.02 0 .973.611 1.321 1.706.974 1.391-.442 1.641.007 1.358 2.439-.362 3.104 1.652 6.073 4.118 6.073.754 0 2.114-1.013 3.021-2.25l1.649-2.25-.668 2.5c-.614 2.297-.51 2.256 1.276-.5 1.807-2.79 1.832-3.193.36-5.75-.871-1.513-1.964-2.75-2.428-2.75s-.621-.359-.35-.798.03-1.451-.535-2.25c-.839-1.184-.925-1.129-.466.298M88 77.334c0 .718-1.125 2.284-2.5 3.479s-2.476 2.739-2.448 3.43.759.244 1.622-.993 2.528-2.236 3.698-2.22c1.926.028 1.962.128.378 1.05-2.158 1.257-2.284 5.232-.22 6.945 1.194.991 2.094 1.012 4.111.093 2.095-.955 2.484-1.686 2.063-3.886-.285-1.491-.065-3.557.489-4.592.553-1.035.592-1.625.086-1.313s-2.351-.301-4.1-1.364C88.886 76.568 88 76.393 88 77.334M50.002 81.25c-.001.412 1.348.75 2.998.75s3-.385 3-.856c0-.472-1.349-.809-2.998-.75-1.648.058-2.998.444-3 .856M49 84c-1.282.828-1.246.972.25.985.962.008 1.75-.435 1.75-.985 0-1.22-.113-1.22-2 0m81 2c-.901.582-1.025.975-.309.985.655.008 1.469-.435 1.809-.985.767-1.242.421-1.242-1.5 0m22.161.573c.186.956 1.126 1.853 2.089 1.994 2.409.352 2.2-1.256-.339-2.615-1.771-.947-2.038-.853-1.75.621m-102.542.235c-.347.562-.066 1.228.625 1.482 1.005.368 1.006.725.006 1.785C48.34 92.1 48.744 93 51.563 93c1.982 0 2.492-.442 2.25-1.952-.173-1.077.584-2.619 1.687-3.437 2.156-1.6.152-1.774-2.362-.205-.838.523-1.655.375-2.125-.385-.493-.797-.987-.873-1.394-.213m86.083 1.524c-1.074 1.639-1.228 2.753-.521 3.75.814 1.146.904 1.094.47-.267-.296-.927-.041-1.852.568-2.055.608-.202 1.218-1.132 1.355-2.064.333-2.27-.054-2.139-1.872.636M158 91.882c0 .55.45 1.278 1 1.618s1 .168 1-.382-.45-1.278-1-1.618-1-.168-1 .382M161.5 93c.34.55 1.293 1 2.118 1s1.222-.45.882-1-1.293-1-2.118-1-1.222.45-.882 1m-7 1c.34.55 1.068 1 1.618 1s.722-.45.382-1-1.068-1-1.618-1-.722.45-.382 1m-10.069 1.103c-1.366.535-.688.777 2.319.827 2.338.038 4.25-.103 4.25-.313 0-.849-4.762-1.222-6.569-.514M59 96c0 .55.648 1 1.441 1s1.719-.45 2.059-1-.309-1-1.441-1S59 95.45 59 96m-9.857.89q-1.353.86-.293 1.517c.584.361.809 1.318.499 2.125-.369.962.077 1.476 1.294 1.49 1.617.02 1.546.262-.549 1.872-1.632 1.255-2.191 2.41-1.738 3.591.543 1.416.945 1.51 2.156.505.818-.679 1.488-1.825 1.488-2.546s1.237-1.503 2.75-1.736c2.573-.398 2.611-.473.592-1.159-1.915-.652-3.748-3.732-3.45-5.799.142-.989-1.064-.927-2.749.14m7.607 1.799c-.962.252-1.75.835-1.75 1.296s.788.687 1.75.503 2.087-.369 2.5-.411c.413-.043.75-.527.75-1.077 0-1.04-.337-1.072-3.25-.311m108-.027c.688.278 1.813.278 2.5 0 .688-.277.125-.504-1.25-.504s-1.937.227-1.25.504m-6.75 1.391c0 1.216 2.486 2.285 4.08 1.754.631-.211-.029-.918-1.467-1.573-1.64-.748-2.613-.815-2.613-.181m-6.559 1.479c1.068.807 2.391 1.468 2.941 1.468s.127-.661-.941-1.468c-1.067-.808-2.391-1.468-2.941-1.468s-.126.66.941 1.468M66.158 103c0 1.375.227 1.938.504 1.25.278-.687.278-1.812 0-2.5-.277-.687-.504-.125-.504 1.25m100.655-.317c.721.289 1.584.253 1.916-.079s-.258-.568-1.312-.525c-1.165.048-1.402.285-.604.604m-11.058 1.755c-.948.693-1.48 1.504-1.182 1.802.768.768 4.427-.305 4.427-1.298 0-1.535-1.514-1.771-3.245-.504m-25.422 2.062c0 .696.792 1.018 1.834.746 1.008-.264 1.833-.599 1.833-.746s-.825-.482-1.833-.746c-1.042-.272-1.834.05-1.834.746m-23.83 1.491c-.348 1.095-.309 2.515.087 3.155q.716 1.16-.59.354c-.866-.535-1.068-.418-.595.345.392.635 1.388 1.155 2.213 1.155s1.222-.45.882-1-.141-1 .441-1 1.059-.477 1.059-1.059-.45-.781-1-.441c-1.4.865-1.251-.849.2-2.3.933-.933.837-1.2-.433-1.2-.898 0-1.917.896-2.264 1.991M119 106.982c1.699 1.118 4.702 1.387 3.641.326-.381-.381-1.693-.833-2.917-1.003-1.765-.247-1.914-.107-.724.677m43.5.018c.34.55 1.068 1 1.618 1s.722-.45.382-1-1.068-1-1.618-1-.722.45-.382 1m4.233.124c.679.684 1.486.991 1.793.683.308-.308-.247-.867-1.233-1.243-1.425-.542-1.54-.428-.56.56M92.5 108c-.34.55-.141 1 .441 1S94 108.55 94 108s-.198-1-.441-1-.719.45-1.059 1m65.007-.011c-.35.566.051.734.941.393 1.732-.665 2.049-1.382.611-1.382-.518 0-1.216.445-1.552.989M49.5 110c-.998 1.616.429 3 3.094 3 2.166 0 2.342-.25 1.406-2-1.141-2.132-3.479-2.651-4.5-1m53 0c-.34.55-.168 1 .382 1s1.278-.45 1.618-1 .168-1-.382-1-1.278.45-1.618 1m12.852 1.76c.363.588.095 1.297-.596 1.576-.899.362-.917.529-.065.585 1.721.114 2.548-1.656 1.171-2.506-.698-.432-.904-.292-.51.345m45.648.133c0 .491.712 1.166 1.582 1.5 2.446.939 2.769.735 1.418-.893-1.38-1.662-3-1.99-3-.607m-59.036 2.271c-1.145 2.233-1.118 2.26.61.61.994-.95 1.533-2.001 1.197-2.336s-1.148.442-1.807 1.726m17.674-.664c-.347.905-.005 1.5.862 1.5s1.209-.595.862-1.5c-.317-.825-.705-1.5-.862-1.5s-.545.675-.862 1.5m3.362-.44c0 .399.675.985 1.5 1.302.86.33 1.5.02 1.5-.727 0-.716-.675-1.302-1.5-1.302s-1.5.327-1.5.727m-10.921 1.523c.048 1.165.285 1.402.604.605.289-.722.253-1.585-.079-1.917s-.568.258-.525 1.312m-8.262 1.148c-1.171 1.42-1.077 1.468.852.441 1.656-.883 2.264-.874 2.567.035q.396 1.195.971-.303c.796-2.075-2.708-2.213-4.39-.173M153.5 115c-.34.55.335 1 1.5 1s1.84-.45 1.5-1-1.015-1-1.5-1-1.16.45-1.5 1m13.233 5.124c.679.684 1.486.991 1.793.683.308-.308-.247-.867-1.233-1.243-1.425-.542-1.54-.428-.56.56m-59.455 2.126c-1.954 2.527-2.621 4.08-1.438 3.349 1.184-.732 3.553-4.599 2.818-4.599-.227 0-.848.563-1.38 1.25M85.5 123c-1.63.701-1.688.872-.309.93.93.038 1.969-.38 2.309-.93.711-1.15.676-1.15-2 0m15.005 1.976c-.359 1.636-.324 3.507.077 4.157.526.85.056.977-1.676.452-1.323-.401-3.081-.68-3.906-.618-.825.061-2.541.14-3.813.174-2.26.061-2.271.111-.5 2.194 1.776 2.087 1.772 2.1-.187.648-1.1-.816-2.275-1.858-2.611-2.317-.336-.458-.884-.121-1.218.75-.335.871-.186 1.584.329 1.584s.684.659.375 1.465c-.309.805.381 2.788 1.533 4.406 2.062 2.895 2.063 2.934.094 2.419-2.31-.604-2.749 1.209-.502 2.072 3.465 1.329.062 5.467-5.5 6.686l-2.5.548 3.151 1.676c2.913 1.55 3.091 1.938 2.366 5.152-.431 1.912-.536 3.723-.234 4.026s-.186.55-1.085.55c-1.128 0-1.433.527-.983 1.699.408 1.063.802 1.251 1.052.5.22-.659.962-1.199 1.65-1.199 1.231 0 1.398.545 1.687 5.5.099 1.7.73 2.5 1.971 2.5 1.004 0 2.185.609 2.625 1.354.869 1.471 5.148 4.025 6.867 4.1 1.332.057 4.88 3.507 3.754 3.65-7.794.99-9.868.07-7.071-3.137.688-.789.896-1.162.464-.831-.433.332-2.423.041-4.423-.647-3.006-1.033-4.387-.994-7.964.225-2.381.811-4.072 1.889-3.759 2.397s.989.663 1.501.346c.512-.316.938.014.946.734.01.799.302.92.75.309.816-1.11 4.761-1.307 5.779-.289.359.358 1.361.379 2.227.046 1.204-.461 1.411-.173.875 1.223-.664 1.731-.049 1.792 11.576 1.159 13.606-.741 16.778-1.315 16.778-3.033 0-1.989 3.618-4.462 5.127-3.506 1.082.685 1.002.873-.377.885-.963.008-1.75.45-1.75.983 0 .595.866.632 2.25.096 1.237-.48 2.125-1.404 1.971-2.054s.629-1.42 1.739-1.71 1.727-.997 1.372-1.571c-.42-.681.192-.8 1.762-.344 4.129 1.202 6.906 1.674 6.906 1.173 0-.478-6.723-2.569-10.457-3.251-2.137-.391-3.695-2.253-2.925-3.498.267-.432-.154-.54-.937-.24s-1.701-.178-2.041-1.063c-.339-.886-.219-1.364.267-1.064 1.322.818 2.18-2.247 1.446-5.171-.456-1.818-.305-2.359.517-1.851.64.395.861 1.207.492 1.804-.401.647-.206.797.483.371 1.772-1.094 1.392-3.259-1.327-7.567-1.481-2.345-2.08-4.181-1.484-4.549 1.439-.89.166-2.479-1.986-2.479-3.382 0-3.054-2.682.566-4.631 3.03-1.632 3.58-1.678 4.409-.367.552.874.953 1.007.962.319.008-.648-.725-1.919-1.63-2.823-1.339-1.339-1.823-1.399-2.595-.322-.691.965-.788.828-.354-.508.327-1.007.594-2.271.594-2.809 0-.537.563-.653 1.25-.258.688.396.899.334.471-.136-1.169-1.284-3.839-1.465-3.062-.207.414.67.082.857-.873.49-.848-.325-1.996-.138-2.551.417-.679.679-1.26.603-1.777-.232-.494-.801-.357-.988.387-.528.635.392 1.155.236 1.155-.346s-.45-1.059-1-1.059-1-.675-1-1.5-.525-1.5-1.167-1.5c-.641 0-.882.284-.535.631 1.506 1.506-1.353 3.964-4.885 4.202-2.058.138-4.194.531-4.747.873-.617.382-.738-.077-.313-1.183.613-1.597.494-1.645-1.022-.414-.943.765-1.406.876-1.029.246.378-.63-.035-1.422-.917-1.761-1.237-.475-1.454-1.412-.949-4.105.796-4.242-.013-4.689-.931-.513M157 122.393c0 .971 2.817 1.336 4.091.53 1.025-.65.66-.897-1.341-.908-1.512-.008-2.75.162-2.75.378m-44 2.638c0 .533.675.969 1.5.969s1.5-.177 1.5-.393-.675-.652-1.5-.969-1.5-.139-1.5.393m7 1.881c0 1.016 2.557.864 3.638-.216.382-.383-.28-.696-1.471-.696s-2.167.41-2.167.912m-25.882 3.015c-.939.58-.722.943.797 1.341 1.147.299 2.085.163 2.085-.303 0-1.362-1.49-1.898-2.882-1.038m15.389.062c-.35.566.051.734.941.393 1.732-.665 2.049-1.382.611-1.382-.518 0-1.216.445-1.552.989m-37.933 12.344c.282.734 1.125 1.334 1.874 1.334s1.131-.6.85-1.334c-.282-.733-1.125-1.333-1.874-1.333-.748 0-1.131.6-.85 1.333M130 147c-1.173.758-.914.973 1.191.985 1.48.008 2.969-.435 3.309-.985.789-1.277-2.524-1.277-4.5 0m26.5 6c.34.55.816 1 1.059 1s.441-.45.441-1-.477-1-1.059-1-.781.45-.441 1m-20.471 1.961c-2.181 1.379-.528 2.381 2.622 1.59 2.148-.539 2.43-.888 1.297-1.604-1.801-1.14-2.097-1.139-3.919.014m-56.464 1.934c-.305.493.156 1.168 1.023 1.5 2.42.929 3.079.737 3.079-.895 0-1.613-3.188-2.083-4.102-.605M147 157.969c0 .532.675.709 1.5.393.825-.317 1.5-.753 1.5-.969s-.675-.393-1.5-.393-1.5.436-1.5.969M128.5 164c-.34.55.335 1 1.5 1s1.84-.45 1.5-1-1.015-1-1.5-1-1.16.45-1.5 1m-51.96 5.347c-1.161.849-1.45 1.591-.782 2.004 1.521.939 4.242-.316 4.242-1.958 0-1.755-1.103-1.769-3.46-.046m42.64 1.578c-.985 2.248-2.201 3.176-4.8 3.663-2.282.429-3.377 1.146-3.18 2.086.165.787.638 1.408 1.05 1.379s2.1-.053 3.75-.053c2.648 0 3-.343 3-2.917 0-1.604.501-3.083 1.114-3.288s.95-1.161.75-2.126c-.276-1.332-.682-1.029-1.684 1.256"/><path fill-opacity=".206" fill-rule="evenodd" d="M0 85.511C0 141.837.341 171 1 171c.55 0 1 2.25 1 5s-.45 5-1 5c-.596 0-1 3.833-1 9.5v9.5h25.5c14.025 0 25.447-.337 25.382-.75-.41-2.593.182-3.032 2.572-1.906 2.109.993 2.214 1.251.75 1.832-.937.371 22.727.696 52.588.721 42.506.036 54.132-.219 53.558-1.175-.538-.895-.314-.882.838.051 1.176.952 6.318 1.203 20.442 1l18.87-.273.287-99.751.288-99.752L100.537.01 0 .022zM.478 86c0 47.025.122 66.263.272 42.75.149-23.512.149-61.987 0-85.5C.6 19.738.478 38.975.478 86M54.447 9.915c.311.503.045 1.088-.591 1.3-.852.284-.874 1.161-.085 3.335.589 1.622 1.107 2.402 1.15 1.731.043-.67.754-.959 1.579-.643.965.371 1.5-.021 1.5-1.097C58 12.281 56.168 9 54.906 9c-.563 0-.77.412-.459.915m47.043.101a1.19 1.19 0 0 1-1.626.4c-1.762-1.089-3.745 2.768-2.758 5.364.492 1.293.894 3.472.894 4.844s.379 2.26.842 1.974.759-1.892.66-3.569c-.166-2.789-.039-2.92 1.489-1.537.919.832 1.972 1.211 2.34.844s.669-.144.669.497c0 .642-.454 1.167-1.008 1.167-.598 0-.5.814.24 2 .687 1.1 1.842 2 2.568 2 .725 0 1.04-.45.7-1s-.111-1 .508-1c.666 0 .871.806.502 1.968-.579 1.826-.39 1.886 2.632.833 2.261-.788 2.794-1.313 1.744-1.718-1.082-.418-1.309-1.292-.798-3.083.454-1.593.749-1.865.812-.75.123 2.157 1.01 2.202 3.877.193 2.806-1.965 2.871-1.091.123 1.657-1.471 1.471-1.784 2.416-1.047 3.153.688.688.723 1.67.102 2.831-.681 1.272-.505 2.223.618 3.347 2.142 2.142 2.712 1.97 1.427-.431-.726-1.356-.737-2-.035-2 .569 0 1.035-.675 1.035-1.5s-.45-1.5-1-1.5-1-.675-1-1.5.45-1.5 1-1.5 1 .478 1 1.063c0 1.817 4.406.553 6.323-1.813 1.002-1.238 2.324-2.25 2.938-2.25s.108.939-1.123 2.086c-1.525 1.42-1.931 2.458-1.274 3.25.531.64.967 1.539.968 1.997.004 2.026.985 1.534 1.567-.786.625-2.493 2.844-3.738 2.351-1.321-.138.675.724 1.376 1.915 1.559 2.528.387 4.062 3.215 1.745 3.215-.9 0-1.235-.474-.815-1.155.446-.721.274-.882-.457-.43-.644.398-.871 1.208-.505 1.8.439.71-.155.871-1.742.472-2.577-.646-5.782.644-4.133 1.664 1.855 1.146 9.542-1.785 9.83-3.749.15-1.025.813-2.367 1.472-2.983.92-.859 1.048-.48.55 1.631-.383 1.625-.231 2.75.371 2.75.56 0 1.019-.675 1.019-1.5s.439-1.5.975-1.5c.633 0 .634.898.002 2.56-.927 2.44-.833 2.537 2.025 2.087 1.649-.26 2.998-.324 2.998-.142s.256.997.568 1.811c.313.815-.395 2.376-1.575 3.476-1.377 1.283-1.756 2.236-1.061 2.666.595.368 1.342-.008 1.659-.835.317-.826 1.651-2.207 2.963-3.067 2.32-1.519 2.412-1.472 3.272 1.69.487 1.79 1.384 3.147 1.994 3.016.636-.137.846.446.492 1.366-.527 1.375-.298 1.435 1.601.419 1.778-.952 1.982-1.469 1.029-2.617-.653-.786-1.827-1.43-2.608-1.43s-1.349-.562-1.259-1.25c.374-2.882-.152-4.734-1.278-4.5-.662.137-1.225-.65-1.25-1.75-.026-1.1-.618-1.885-1.316-1.744-.697.141-1.785-.878-2.417-2.264-.859-1.886-1.648-2.362-3.132-1.891-1.542.489-1.846.269-1.365-.986.401-1.044.09-1.615-.88-1.615-.825 0-1.769-.701-2.097-1.557-.342-.89-1.246-1.309-2.109-.978-.884.339-2.111-.276-2.956-1.483-1.4-1.998-2.265-2.027-7.036-.233-.754.283-1.05-.077-.736-.896.633-1.651-6.495-5.065-8.006-3.835-.551.449-1.875.179-2.941-.601-2.507-1.833-4.992-1.801-6.556.083-1.689 2.035-2.743 1.885-3.5-.5-.688-2.168-2.011-2.601-3.01-.984m-12.74 1.722c-.963.225-1.75 1.276-1.75 2.335 0 2.127-2.577 2.66-3.271.677-.318-.911-.984-.765-2.458.542-1.111.985-2.633 1.66-3.382 1.5-.91-.195-1.532 1.036-1.875 3.708-.326 2.533-.811 3.542-1.323 2.75-1.096-1.693-4.691-1.591-4.691.133 0 .761-.898 1.618-1.995 1.905s-2.312 1.352-2.698 2.367-1.754 2.97-3.037 4.345c-2.629 2.817-3.779 6.232-2.884 8.563.462 1.204.139 1.421-1.392.935-2.632-.835-2.577 1.119.071 2.537 3.295 1.763 5.602 1.918 5.602.375 0-.775-.525-1.41-1.167-1.41s-1.167-.697-1.167-1.55c0-.955.8-1.488 2.084-1.389 3.648.281 4.583-.025 4.583-1.502 0-.793-.52-1.762-1.155-2.154-.763-.473-.88-.271-.345.595.524.848.418 1.067-.302.622-.611-.377-.857-1.347-.547-2.154.668-1.74.909-1.774 3.354-.465 3.782 2.024 3.295-1.653-.505-3.808-1.864-1.057-1.813-1.136.75-1.165 1.513-.016 3.634.854 4.714 1.934 2.231 2.231 2.831 1.724 2.619-2.214-.082-1.512.167-2.75.552-2.75.386 0 1.486-.301 2.444-.669 1.379-.529 1.633-.25 1.219 1.334-.335 1.282-.032 2.002.845 2.002.752 0 1.253-.713 1.113-1.584-.154-.954.34-1.459 1.244-1.27.825.172-.075-1.047-2-2.71-3.273-2.825-3.35-3.024-1.191-3.062 1.27-.023 2.063-.44 1.761-.927-.301-.488.347-1.121 1.441-1.407 2.235-.584 2.579.303.806 2.076-.651.651-.871 1.496-.49 1.878.382.382 1.433-1.186 2.335-3.484C88.169 15.341 90 13.598 90 16c0 .55-.45 1-1 1-1.884 0-1.001 2.042 1.344 3.111 1.772.807 2.259 1.717 1.996 3.729-.192 1.463-.085 2.098.239 1.41.789-1.678 2.421-1.592 2.421.128 0 .757.713 1.968 1.583 2.691 1.81 1.502 5.417 2.01 5.417.764 0-.458-.723-.833-1.607-.833-1.036 0-1.397-.547-1.016-1.54.402-1.047.072-1.447-1.029-1.25-.892.159-1.767-.385-1.945-1.21-2.07-9.577-4.242-13.057-7.653-12.262M109.158 18c0 1.375.227 1.938.504 1.25.278-.687.278-1.812 0-2.5-.277-.687-.504-.125-.504 1.25M120 20.5c0 1.491.431 2.352 1 2 .55-.34 1-1.24 1-2s-.45-1.66-1-2c-.569-.352-1 .509-1 2m-33.407 5.119c-.326.85-.593 2.199-.593 2.998 0 1.21.376 1.245 2.25.206 1.237-.686 2.588-1.152 3-1.035 1.486.421.703-.589-1.657-2.135-2.164-1.418-2.468-1.421-3-.034m-14.178 1.519q-.729 1.177.6.352c.948-.585 1.152-.368.718.763-.336.877-.017 1.808.717 2.089.906.348 1.164-.104.816-1.432-.648-2.48-1.924-3.272-2.851-1.772M109 31.5c-1.292 1.375-2.063 2.5-1.713 2.5.349 0 1.619-1.013 2.822-2.25 1.875-1.93 2.091-1.981 1.516-.359-.569 1.604-.439 1.7.852.628.838-.695 1.523-1.659 1.523-2.141 0-1.713-2.685-.842-5 1.622m-21.252.085c-.603.603.032 5.528.813 6.309.241.242.439-.509.439-1.668 0-1.16.457-2.391 1.016-2.736s.758-1.047.441-1.559c-.653-1.058-1.845-1.21-2.709-.346m12.605 2.966c-.135 2.338-.038 2.401 1.161.761.72-.985 1.097-2.132.838-2.551-.94-1.521-1.855-.702-1.999 1.79m21.397 1.138c-.963.252-1.75 1.1-1.75 1.884 0 1.559.94 1.808 2.5.662.847-.623 1.984-3.46 1.25-3.119-.138.064-1.037.322-2 .573m-10.291 3.378c-.363.586-.389 1.336-.059 1.666s.6.049.6-.625.45-.948 1-.608 1 .141 1-.441c0-1.373-1.691-1.368-2.541.008M145.5 40c-.34.55.084 1 .941 1S148 40.55 148 40s-.423-1-.941-1-1.219.45-1.559 1M71 41.057c0 .519 1.2.943 2.667.943 3.007 0 2.7-.852-.532-1.474-1.174-.226-2.135.013-2.135.531M93.5 41c-.34.55-.168 1 .382 1s1.278-.45 1.618-1 .168-1-.382-1-1.278.45-1.618 1M81 42.893c0 .491.675 1.152 1.5 1.469.914.35 1.5.001 1.5-.893 0-.808-.675-1.469-1.5-1.469s-1.5.402-1.5.893m48 .989c0 1.1.45 2.278 1 2.618s1-.282 1-1.382-.45-2.278-1-2.618-1 .282-1 1.382m26.36-1.109c.351.568-.824 1.589-2.611 2.269-2.593.987-2.869 1.33-1.369 1.696 1.034.252 2.209-.073 2.611-.723.518-.838.915-.703 1.363.465.347.906 1.024 1.404 1.504 1.108 1.36-.841.801-4.869-.747-5.385-.778-.259-1.109-.008-.751.57M54.734 44.6c-.465.465.56 3.931 1.825 6.174.085.15.894-.011 1.798-.357 2.157-.828 2.084-2.708-.186-4.762-1.99-1.802-2.527-1.966-3.437-1.055m13.698 3.51c-.893 1.444-.241 1.751 1.995.939 1.694-.615 1.728-.776.282-1.33-.905-.348-1.929-.171-2.277.391m86.81 3.587c1.484 1.483 3 2.395 3.369 2.025.733-.732-3.503-4.635-5.088-4.689-.538-.018.236 1.181 1.719 2.664m-68.415.792c-.353 1.645-.233 3.752.266 4.685 1.54 2.877.929 4.477-.698 1.826-.982-1.602-1.274-1.782-.811-.5 1.13 3.133 1.026 6.767-.207 7.193-.617.214-1.363-.53-1.656-1.652C83.427 62.918 82.669 62 82.035 62s-.859.476-.5 1.057.365 2.207.012 3.612c-.604 2.408-.747 2.46-2.474.897-1.741-1.576-1.868-1.468-2.527 2.138-.942 5.153-3.14 8.293-5.819 8.311-1.772.012-1.925.207-.748.951.993.628 1.372 2.185 1.153 4.735-.36 4.177-1.397 5.304-4.208 4.569-1.231-.322-3 .728-5.258 3.122C58.807 94.424 57.593 95 54.06 95c-4.154 0-8.345 2.487-6.472 3.841 1.097.793 1.091 3.993-.012 6.422-.473 1.042-.326 2.334.361 3.161.854 1.029.864 1.581.036 2.093-.758.468-.464 1.309.906 2.585 2.819 2.627 8.496 2.019 8.94-.956.238-1.593-.08-1.983-1.25-1.534-.882.338-1.569.082-1.569-.584 0-.804 1.05-.98 3.25-.547 1.788.352 2.8.276 2.25-.17-1.467-1.189-1.22-7.239.335-8.205 1.848-1.148 1.651-2.395-.511-3.247-1.339-.527-.96-.737 1.426-.789 3.471-.075 4.642-2.07 1.215-2.07-1.753 0-1.881-.289-.919-2.086.614-1.147 1.362-1.84 1.662-1.54s1.816-.111 3.369-.914S70.345 89 70.889 89c1.775 0 3.405 16.118 1.937 19.16-.483 1.003-.213 2.786.681 4.5.814 1.562 1.483 3.572 1.487 4.466.01 2.582 4.867 12.874 6.077 12.874.602 0 .908.563.679 1.25s-1.017 1.25-1.75 1.25-1.512.537-1.731 1.193c-.228.685.451 1.128 1.598 1.042 1.097-.083 1.913-.563 1.814-1.068-.1-.504.382-1.123 1.069-1.375.688-.252 1.25.254 1.25 1.125 0 .87.45 1.583 1 1.583 1.621 0 1.15 1.85-1.023 4.023-1.627 1.627-2.419 1.811-4.046.94-1.849-.989-1.916-.911-.777.913.686 1.097 1.51 1.832 1.832 1.633s.585.505.585 1.564S80.993 146 80.286 146 79 146.477 79 147.059s.382.823.849.534.888.857.936 2.545c.081 2.843-.016 2.933-1.317 1.216-.772-1.02-1.419-2.402-1.436-3.073-.044-1.676-3.032-.401-3.032 1.295 0 .76.622 1.123 1.41.82 1.631-.626 2.948 2.523 3.033 7.25.054 3-.095 3.122-3.193 2.62-2.536-.412-3.25-.175-3.25 1.078 0 1.251.663 1.473 3 1.006 2.099-.42 3-.211 3 .696 0 .713.787 2.224 1.75 3.358 1.085 1.278 1.18 1.627.25.919-1.179-.898-2.118-.65-4.383 1.161l-2.883 2.303 2.383 1.31c1.311.721 3.019 1.331 3.797 1.357.778.025 1.594.583 1.814 1.239.551 1.64-5.149 2.573-12.849 2.103-4.701-.287-6.8.012-8.139 1.159-.993.85-2.315 1.545-2.939 1.545s-1.319.675-1.544 1.5c-.364 1.333-.291 1.333.652 0s1.064-1.333 1.091 0c.019.949.3 1.106.765.427.404-.59 1.635-1.379 2.735-1.752 1.723-.586 1.786-.506.459.573-1.381 1.122-1.363 1.425.167 2.919 1.952 1.906 3.429 1.207 1.743-.825-1.524-1.837-.086-1.702 1.783.167.83.83 1.923 1.254 2.429.941 1.645-1.017.967 1.794-.732 3.037-1.31.957-1.381 1.375-.346 2.015.894.552 1.065.417.542-.429-.514-.832-.157-1.159 1.096-1.001 1.022.13 2.534-.037 3.359-.371.825-.333 2.4-.74 3.5-.903s2.306-.973 2.68-1.798c.521-1.15.699-1.033.765.5.071 1.664.249 1.748 1.055.5.772-1.195.987-.991 1.055 1 .079 2.295.156 2.336.945.5.473-1.1.891-1.382.93-.628.057 1.116.355 1.136 1.594.108.838-.696 1.813-.976 2.167-.623.353.354.117.643-.524.643-.642 0-1.167.45-1.167 1 0 2.066 5.646.993 7.798-1.482 1.851-2.13 2.766-2.407 6.43-1.952 2.35.292 4.947.489 5.772.438s2.833-.083 4.462-.072 3.939-.62 5.133-1.402c2.407-1.577 6.232-1.685 8.155-.231.852.644 1.255.508 1.265-.427.012-1.086.185-1.106.827-.094.584.921 1.153.529 2.032-1.402.841-1.845 1.544-2.358 2.255-1.647 1.192 1.192 8.114-.526 7.317-1.816-.263-.426-.052-1.038.469-1.36s1.272-.059 1.67.585q.725 1.171-.585.362c-.885-.547-1.068-.419-.565.394.466.755 1.175.864 1.904.291.639-.502 2.153-.825 3.365-.719 1.233.108 1.935-.242 1.593-.794-.364-.59.258-.76 1.547-.423 1.186.31 2.156.156 2.156-.343 0-.498-.525-.906-1.167-.906-.641 0-.959-.207-.706-.46.792-.792 4.878.643 4.335 1.521-.283.459.457.647 1.647.418 2.788-.537 3.735-1.479 1.486-1.479-2.191 0-5.412-2.94-3.416-3.118 2.001-.18 2.161-.161 4.447.531 1.586.48 2.256.147 2.637-1.31.359-1.374.101-1.796-.87-1.423-.76.291-1.09 1.002-.733 1.579.38.614.168.753-.509.334-.669-.413-.9-1.747-.546-3.154.387-1.542.182-2.439-.556-2.439-.642 0-.889.45-.549 1 .873 1.413-1.853 1.247-3.3-.2-.933-.933-1.2-.822-1.2.5 0 .935-.787 1.737-1.75 1.781-2.835.132-6.579.655-9.127 1.275-1.308.318-3.333.049-4.5-.599-1.168-.647-2.798-1.07-3.623-.939-1.006.159-.795-.372.64-1.612 1.667-1.44 1.915-2.249 1.125-3.662-.923-1.649-.686-1.752 2.61-1.133 2.288.429 3.625.294 3.625-.366 0-.575-.562-1.059-1.25-1.077-.687-.017-2.129-.696-3.204-1.509-2.434-1.841-2.28-8.163.247-10.13 1.6-1.246 1.588-1.421-.19-2.797-1.044-.807-2.169-1.316-2.5-1.13-.332.186-1.649-.952-2.926-2.529-1.597-1.969-1.831-2.678-.75-2.263 1.189.457 1.573-.049 1.573-2.074 0-1.474.693-3.372 1.539-4.218 1.386-1.386 1.361-1.679-.25-2.931-1.504-1.17-1.525-1.3-.129-.817q1.658.572 2.311-1.477c.358-1.129 1.186-1.949 1.84-1.823s1.077-.332.939-1.02c-.137-.688.275-1.25.917-1.25.641 0 .87-.296.508-.658s-.148-1.272.475-2.023c.906-1.091.754-1.244-.759-.76-1.692.541-1.723.464-.295-.727.878-.733 1.481-2.12 1.339-3.082-.142-.963.068-1.75.467-1.75.398 0 .665-2.724.592-6.053s.178-6.244.556-6.478.338-2.346-.091-4.694c-.481-2.627-.397-4.504.217-4.884 1.243-.768.376-11.992-1.146-14.835-.605-1.131-1.535-2.056-2.065-2.056-.531 0-.965-.45-.965-1 0-1.295-3.186-4.474-5.294-5.283-2.378-.912-3.114.994-.852 2.205 1.051.562 2.181 1.727 2.511 2.588.968 2.52-2.058 2.877-4.97.586-1.788-1.407-4.112-2.096-7.065-2.096-4.09 0-4.325-.141-3.33-2 .589-1.1 1.928-2 2.976-2 2.492 0 3.147-1.193 1.493-2.721-1.041-.961-1.427-.961-1.816 0-.382.941-.513.935-.574-.029-.043-.687-1.204-1.25-2.579-1.25-1.598 0-2.5-.563-2.5-1.559 0-.857-.47-1.269-1.044-.914s-1.783.044-2.687-.691c-1.442-1.172-1.559-1.091-.954.664.653 1.894.615 1.904-.717.19-.89-1.145-1.646-1.421-2.061-.75-.36.583-1.292 1.06-2.071 1.06-1.042 0-1.257-.797-.812-3.018.493-2.467.317-2.908-.964-2.416-.862.33-1.856 1.913-2.208 3.518-.831 3.781-2.369 3.729-3.136-.105C95.467 56.587 94 56.288 94 60.5c0 1.99-.412 3.364-.915 3.053s-1.143 0-1.423.691c-.873 2.153-2.75-1.453-2.129-4.09.304-1.29.124-2.865-.401-3.5s-1.115-2.504-1.31-4.154l-.355-3zm2.84-1.822C88.62 51.714 88.888 56 90 56c.55 0 1-1.35 1-3 0-3.107-.204-3.463-1.333-2.333m48.918 1.985c1.043 4.413 2.611 5.413 2.236 1.425-.176-1.883-.903-3.614-1.615-3.848-.952-.313-1.116.327-.621 2.423m-86.168-.518c-.294.476.054.873.774.881.955.011.904.287-.191 1.019-1.306.873-1.271 1.137.271 2.046 1.604.945 1.517 3.439-.09 2.595-.375-.197-1.438.441-2.364 1.417-1.403 1.479-1.457 1.962-.326 2.901 2.271 1.884 6.331-2.41 6.139-6.493-.086-1.829.187-3.113.607-2.854.42.26.763.048.763-.47 0-1.244-4.894-2.157-5.583-1.042M113 53.819c0 1.208 1.897 2.617 2.591 1.924.251-.252-.229-1.027-1.067-1.723-.95-.789-1.524-.865-1.524-.201m47.208.857c-.992.398-1.021.844-.127 1.921.917 1.106.82 1.403-.459 1.403-.892 0-1.622.706-1.622 1.57 0 2.166 3.981 1.467 5.398-.949.831-1.415.793-1.991-.154-2.335-.691-.251-1.002-.868-.691-1.371.607-.983-.269-1.072-2.345-.239M67.422 57.5c.875 3.65 2.131 5.108 2.83 3.285.285-.743-.397-2.461-1.515-3.818L66.703 54.5zm59.216-1c.317.825.753 1.5.969 1.5s.393-.675.393-1.5-.436-1.5-.969-1.5-.709.675-.393 1.5m23.362.378c0 1.032.759 2.495 1.687 3.25 1.485 1.208 1.605 1.153 1-.46-.378-1.007-.687-2.47-.687-3.25S151.55 55 151 55s-1 .845-1 1.878m-70.985.289c.02 1.74 1.178 3.273 2.698 3.571.844.165.967-.428.405-1.949-.92-2.485-3.126-3.639-3.103-1.622m38.064 2.416c.048 1.165.285 1.402.604.605.289-.722.253-1.585-.079-1.917s-.568.258-.525 1.312m21 1c.048 1.165.285 1.402.604.605.289-.722.253-1.585-.079-1.917s-.568.258-.525 1.312M76 62.441c0 1.614 1.416 2.809 2.292 1.934.78-.78-.295-3.375-1.399-3.375-.491 0-.893.648-.893 1.441m-21.306.198c-.799.799.104 2.361 1.365 2.361.518 0 .941-.675.941-1.5 0-1.546-1.18-1.987-2.306-.861M145 64c0 .615-.45.84-1 .5s-1-.194-1 .324c0 .519.9 1.178 2 1.466 2.094.547 2.875-1.631 1-2.79-.55-.34-1-.115-1 .5m17.232 1c-.692 1.108-.815 2-.276 2 .536 0 1.455-.9 2.044-2s.713-2 .276-2-1.357.9-2.044 2M67 66.5c.685.825 1.64 1.5 2.122 1.5.483 0 .878-.675.878-1.5 0-.862-.902-1.5-2.122-1.5-1.774 0-1.918.247-.878 1.5m-14-.26c0 .249 1.575 2.075 3.5 4.057s3.5 3.231 3.5 2.776-.695-1.405-1.546-2.111c-.85-.705-1.314-1.885-1.031-2.622S57.538 67 57.05 67c-.487 0-1.598-.273-2.468-.607S53 65.99 53 66.24m70 1.791c0 .533.675.969 1.5.969s1.5-.177 1.5-.393-.675-.652-1.5-.969-1.5-.139-1.5.393M50 69c0 .55.625 1 1.389 1 2.039 0 1.426 3.372-.777 4.269-1.767.719-1.781.887-.225 2.606 1.48 1.635 1.496 1.977.149 3.095-.833.691-1.284 1.628-1.004 2.082.281.454-.287 1.289-1.261 1.856-1.162.677-1.305 1.042-.414 1.062.777.017 1.116.657.794 1.498-.31.807-.111 1.747.441 2.089.647.4.566 1.15-.229 2.108-2.29 2.759.825 3.591 8.887 2.373 1.187-.18-.218-2.29-2-3.007-2.101-.844-2.051-.909.75-.983 2.316-.061 2.658-.3 1.5-1.048-1.2-.776-1.001-1.001 1-1.127 1.627-.102 1.131-.369-1.422-.765-4.788-.742-5.509-2.229-1.83-3.774C60.656 80.273 63 79.82 63 80.933c0 1.299 3.659 1.429 4.444.157.309-.5.28-1.645-.064-2.543-.54-1.406-.853-1.44-2.254-.246-1.063.907-2.491 1.13-4.126.643-1.375-.41-1.872-.789-1.104-.844.902-.065.459-.968-1.25-2.552C57.191 74.199 56 72.576 56 71.941c0-.681-.705-.884-1.72-.495-.945.363-1.399.34-1.008-.051.797-.797-1.035-3.395-2.394-3.395-.483 0-.878.45-.878 1m113.45-.081c.313.506-.219 1.707-1.181 2.669-1.666 1.666-1.619 1.717.976 1.065 2.657-.666 2.696-.614 1.538 2.082-1.626 3.784-1.52 3.719-3.509 2.158-1.613-1.267-1.65-1.234-.402.357.755.963 2.459 1.75 3.786 1.75 2.036 0 2.258-.288 1.424-1.847-.673-1.258-.634-2.201.122-2.957.815-.815.77-1.523-.169-2.654-.938-1.13-.964-1.542-.098-1.542.649 0 .903-.45.563-1s-1.293-1-2.118-1-1.244.414-.932.919m-79.967 4.23c-2.478 2.176-3.265 3.469-2.548 4.186s1.823.301 3.579-1.348c1.671-1.57 3.729-2.387 6.013-2.387 3.586 0 4.777-1.886 1.891-2.993-3.132-1.202-5.409-.554-8.935 2.542M141 71c0 .55.423 1 .941 1s1.219-.45 1.559-1-.084-1-.941-1-1.559.45-1.559 1m-71 1.359c0 .967.453 1.479 1.007 1.137s1.292.118 1.639 1.024c.505 1.317.802 1.38 1.478.314 1.269-2.002 1.047-3.114-.502-2.519-.758.291-1.883.024-2.5-.593-.829-.829-1.122-.663-1.122.637M155 72c1.958 1.266 3.282 1.266 2.5 0-.34-.55-1.379-.993-2.309-.985-1.457.014-1.484.15-.191.985M53 77.535c0 2.33.182 2.435 2.25 1.294 1.957-1.08 2.021-1.29.488-1.611-.969-.203-1.505-.785-1.191-1.294.314-.508.094-.924-.488-.924S53 76.141 53 77.535m97.619 1.273c-.275.444 1.386.876 3.691.959 3.196.115 3.716-.06 2.19-.738-2.581-1.147-5.247-1.247-5.881-.221M88.5 80.062c-1.843.735-1.811.803.403.868l2.403.07-2.153 1.867c-2.502 2.17-2.757 4.387-.701 6.093 1.92 1.593 5.201.474 5.846-1.993.649-2.479-.254-6.112-1.35-5.435-.454.281-1.19-.115-1.637-.878-.544-.931-1.47-1.126-2.811-.592m30.5.067c0 .544-.375.757-.834.474-1.267-.783-.83 6.135.469 7.433.624.623 2.199.983 3.5.799 1.935-.274 2.363-.925 2.355-3.585-.011-3.725.275-3.928 2.118-1.5.731.963 1.343 1.243 1.36.622.045-1.6-2.267-3.31-5.871-4.344-1.974-.566-3.097-.53-3.097.101M83.872 82.75c-1.243 1.586-1.208 1.621.378.378C85.916 81.821 86.445 81 85.622 81c-.207 0-.995.787-1.75 1.75M165 81.393c0 .216.698.661 1.552.989.89.341 1.291.173.941-.393-.587-.951-2.493-1.406-2.493-.596m-8 1.513c0 .499.9.671 2 .384s2-.696 2-.907c0-.21-.9-.383-2-.383s-2 .408-2 .906m-7.792 2.151c1.043.608 1.464 1.634 1.081 2.633-.405 1.054-.234 1.394.479.954q1.107-.685.641 1.886c-.429 2.367-.294 2.479 1.697 1.413 1.64-.877 1.847-1.354.855-1.967-.887-.549-.367-.917 1.615-1.143l2.924-.333-3.618-2.25c-1.99-1.237-4.465-2.236-5.5-2.22-1.728.028-1.742.112-.174 1.027m15.53-.365c-.969.253-1.505.875-1.191 1.384.887 1.435 3.176 1.089 3.815-.576.59-1.54.402-1.598-2.624-.808m-19.703 2.711c-3.093 1.118-3.231 1.313-1.284 1.822 1.369.358 2.993-.136 4.367-1.328 2.496-2.164 1.836-2.27-3.083-.494m11.537 3.481c-.777 1.257 1.492 2.907 4.832 3.513 3.598.652 4.267 1.332 2.779 2.82-1.774 1.774-1.433 2.783.939 2.783 1.69 0 1.89.281.979 1.378-.903 1.088-.675 1.5 1.084 1.96 2.276.595 4.211-.289 2.21-1.01-.607-.219-.893-1.501-.635-2.85.309-1.617-.06-2.656-1.083-3.048-.853-.328-1.318-1.203-1.033-1.945.309-.806-.724-1.992-2.563-2.943-1.837-.95-3.081-1.165-3.081-.532 0 .739-.587.746-1.939.022-1.1-.588-2.177-.653-2.489-.148m-3.515 2.548c-.895 1.078-2.488 1.304-6.133.873-3.359-.398-4.924-.221-4.924.556 0 1.281-.075 1.26 5.75 1.542 2.338.113 4.25-.126 4.25-.532s1.2-.881 2.668-1.055c2.305-.273 2.459-.487 1.132-1.578-1.247-1.026-1.761-.99-2.743.194m-50.009 1.517c-.799.506-1.811.697-2.25.426S100 96.413 100 98.284c0 3.354.05 3.393 3.641 2.809 4.38-.713 6.362-3.179 4.429-5.509-1.487-1.792-2.909-1.971-5.022-.635m-34.424.851c-.272.44.489 1.412 1.691 2.161 1.921 1.196 2.035 1.179.944-.142-.683-.827-.946-1.799-.584-2.161s.16-.658-.449-.658c-.61 0-1.33.36-1.602.8M56.02 97.476c-.789.95-.865 1.524-.201 1.524 1.208 0 2.617-1.897 1.924-2.591-.252-.251-1.027.229-1.723 1.067M157 99.525c0 1.579 4.821 3.988 5.874 2.935.609-.61-3.765-4.397-5.124-4.438-.412-.012-.75.664-.75 1.503m-7.971.436c-1.911 1.209-1.164 1.867 3.044 2.681l3.427.663-1.905-2.152c-2.137-2.416-2.487-2.507-4.566-1.192m-85.964 1.206c-2.614.75-3.092 1.203-2 1.894 2.048 1.296 4.188 1.158 3.34-.216-.443-.715-.275-.883.44-.44.635.392 1.155 1.547 1.155 2.566 0 1.389.634 1.783 2.533 1.575 1.393-.153 2.855-.606 3.25-1.007.394-.401.042-.633-.783-.516-3.451.492-4.231-.033-3.755-2.523.263-1.375.203-2.459-.134-2.41-.336.05-2.157.534-4.046 1.077m92.661 2.105c-.269.7-1.743 1.376-3.277 1.503-3.545.293-4.566 1.22-1.366 1.24 1.978.013 2.145.207.917 1.071-1.152.811-.751.964 1.726.662 2.587-.316 3.008-.133 2.127.929-1.354 1.631-.704 1.668 2.628.15 1.864-.85 2.223-1.398 1.297-1.985-.914-.58-.939-.816-.087-.827.655-.008 1.469.435 1.809.985.717 1.16 7.5 1.374 7.5.237 0-.42-2.363-1.324-5.25-2.01s-5.4-1.692-5.583-2.236c-.469-1.393-1.86-1.233-2.441.281m-101.497 1.916c.618 1.854 2.771 2.161 2.771.395 0-.87-.712-1.583-1.583-1.583s-1.406.534-1.188 1.188m86.314 1.743c-.317.512-.118 1.213.441 1.559s1.016-.074 1.016-.931c0-1.757-.6-2.015-1.457-.628m3.946 1.087c-.915 1.48-.047 2.237 2.088 1.82 1.563-.304 1.579-.467.168-1.637-1.125-.932-1.761-.983-2.256-.183m15.727 2.848c-.771.477-.127 1.346 1.874 2.528 3.061 1.808 4.678 1.657 3.454-.322-1.078-1.745-4.069-2.983-5.328-2.206m6.784.036c0 1.038 1.902 2.541 2.466 1.948.183-.192-.297-.93-1.067-1.639-.769-.71-1.399-.849-1.399-.309m-14.25 2.67c-1.512.821-2.75 1.928-2.75 2.46 0 1.188 4.999 1.255 6.834.092 1.048-.664.941-1.006-.5-1.592-1.738-.708-1.73-.79.166-1.569 1.273-.523 1.455-.833.5-.853-.825-.016-2.738.641-4.25 1.462m15 2.09c.688.278 1.813.278 2.5 0 .688-.277.125-.504-1.25-.504s-1.937.227-1.25.504m-75.579 2.435c-1.896 3.037-.755 3.444 1.217.434.912-1.392 1.306-2.531.876-2.531s-1.372.944-2.093 2.097M162 117c0 .55.627 1 1.393 1s1.652.675 1.969 1.5c.316.825 1.602 1.498 2.857 1.495 2.181-.005 2.149-.113-.719-2.464-3.139-2.573-5.5-3.23-5.5-1.531m-31.468 1.052c.322.522 1.534.948 2.694.948 2.553 0 1.87-.904-1.117-1.479-1.2-.231-1.902.005-1.577.531m-3.838.587c-.352.352-.321 1.14.068 1.75s.714 1.561.723 2.111c.008.55 1.14 1.156 2.515 1.346s3.001.757 3.614 1.259c.768.63 1.04.212.878-1.345-.395-3.772-.456-3.9-1.536-3.233-.574.355-1.785.044-2.692-.691-1.385-1.123-1.515-1.116-.817.044.578.959.408 1.226-.558.875-.764-.278-1.277-1.011-1.139-1.63.281-1.262-.103-1.439-1.056-.486m-78.665 1.322c-.809.512-1.239 1.162-.956 1.445.774.775 4.927-.508 4.927-1.523 0-1.147-2.1-1.106-3.971.078m6.561 1.184c.65 1.052 5.411 1.144 5.408.105-.002-.412-1.338-.797-2.97-.855s-2.729.28-2.438.75m99.146-.547c-.329.329-.386 1.151-.126 1.829s-.559 1.727-1.819 2.334c-1.504.725-1.756 1.127-.732 1.171.857.038 2.408-.553 3.446-1.312 1.9-1.389 6.63-.588 8.945 1.516.522.475 2.505.864 4.405.864 3.434 0 3.444-.012 1.576-2.077-1.041-1.15-2.04-1.596-2.239-1-.534 1.602-2.822 1.304-4.744-.618-.978-.978-3.121-1.654-5.069-1.599-1.856.053-3.124-.31-2.818-.805.628-1.016.086-1.215-.825-.303m-32.123 1.585c.289.467.944.591 1.456.274 1.308-.808 1.161-1.124-.525-1.124-.801 0-1.22.383-.931.85m7.482-.242c-.87.538-.275.952 1.804 1.257 3.553.522 3.849.272 1.297-1.093-.992-.531-2.388-.605-3.101-.164m-81.435 3.616c.329.857 1.252 1.307 2.051 1s1.978-.589 2.621-.627c1.376-.083-2.27-1.757-4.051-1.86-.702-.04-.965.59-.621 1.487M66.5 125c-.34.55.057 1 .882 1s1.778-.45 2.118-1-.057-1-.882-1-1.778.45-2.118 1m38.5 2c0 .55.45 1 1 1s1-.45 1-1-.45-1-1-1-1 .45-1 1m21.013-.029c-1.179.745-1.037.907.68.777 1.193-.09 1.948-.52 1.679-.956-.599-.969-.537-.973-2.359.179m-68.2.712c.721.289 1.584.253 1.916-.079s-.258-.568-1.312-.525c-1.165.048-1.402.285-.604.604m99.734.222c-1.65.645-1.431.868 1.41 1.436 3.741.749 5.272.048 3.014-1.38-1.698-1.074-1.818-1.076-4.424-.056M69 129c.825.533 1.95.969 2.5.969s.325-.436-.5-.969-1.95-.969-2.5-.969-.325.436.5.969m67 .941c0 .518.445 1.216.989 1.552.566.35.734-.051.393-.941-.665-1.732-1.382-2.049-1.382-.611m12.644 1.544c-.341.89-.207 1.363.298 1.051.506-.313 1.202-.111 1.548.448.345.559.151 1.016-.431 1.016s-1.059.47-1.059 1.044.563.93 1.25.79c.688-.139 2.375.349 3.75 1.086 2.383 1.277 2.36 1.181-.492-2.04-1.646-1.859-3.274-3.748-3.617-4.197-.344-.45-.905-.089-1.247.802m15.473-.55c-2.156.543-2.227.729-.75 1.955.952.79 1.633.916 1.633.302 0-.579 1.012-1.201 2.25-1.381 1.61-.236 1.823-.492.75-.902-.825-.316-2.572-.304-3.883.026m-115.372.653c-.881.882 1.76 3.412 3.561 3.412.797 0 2.009-.675 2.694-1.5 1.037-1.25.905-1.5-.796-1.5-1.122 0-2.663-.239-3.424-.531s-1.677-.239-2.035.119M141.5 132c-.34.55-.141 1 .441 1s1.059-.45 1.059-1-.198-1-.441-1-.719.45-1.059 1m24.5 2.531c0 1.612 2.662 3.141 3.686 2.117.712-.713-1.548-3.648-2.808-3.648-.483 0-.878.689-.878 1.531m-112 1.362c0 .491.6 1.123 1.333 1.405.734.281 1.334-.121 1.334-.893 0-.773-.6-1.405-1.334-1.405-.733 0-1.333.402-1.333.893m81.571.678c-1.708 1.709-2.072 3.429-.726 3.429.968 0 4.155-3.32 4.155-4.329 0-1.191-1.814-.714-3.429.9m22.524-.63c-.87.538-.275.952 1.804 1.257 3.553.522 3.849.272 1.297-1.093-.992-.531-2.388-.605-3.101-.164M48 138c-1.282.828-1.246.972.25.985.962.008 1.75-.435 1.75-.985 0-1.22-.113-1.22-2 0m10.813-.317c.721.289 1.584.253 1.916-.079s-.258-.568-1.312-.525c-1.165.048-1.402.285-.604.604m65.646.384c-.363.586-.445 1.281-.183 1.543s.743-.218 1.069-1.067c.676-1.762.1-2.072-.886-.476m39.541.657c0 .437.9 1.357 2 2.044 1.108.692 2 .815 2 .276 0-.536-.9-1.455-2-2.044s-2-.713-2-.276m-113.618 1.312c-2.853 1.08-3.743 5.636-1.229 6.294 1.319.345 1.847-.062 1.847-1.424 0-1.048-.54-1.906-1.2-1.906-1.812 0 .348-1.741 2.7-2.176 1.1-.204 1.55-.645 1-.98s-1.953-.248-3.118.192m21.368-.347c-.963.252-1.75.82-1.75 1.262 0 1.235 2.558 3.079 4.898 3.529 2.757.531 2.864-2.468.113-3.187-1.094-.286-1.742-.919-1.441-1.407.302-.487.409-.834.239-.77s-1.096.322-2.059.573m76.25.204c0 .491.739 1.176 1.641 1.523 1.373.527 1.435.38.378-.893-1.44-1.735-2.019-1.916-2.019-.63M65 142c0 .55.675 1 1.5 1s1.5-.45 1.5-1-.675-1-1.5-1-1.5.45-1.5 1m72.5 1c.34.55 1.068 1 1.618 1s.722-.45.382-1-1.068-1-1.618-1-.722.45-.382 1m29.75 1.25c.228.688 1.264 1.414 2.301 1.615 1.631.316 1.705.148.545-1.25-1.586-1.911-3.44-2.149-2.846-.365m-6.855 2.921c-.417.674-.261.864.384.466.599-.37 2.918-.042 5.155.728 3.453 1.19 4.066 1.192 4.066.018 0-.761-.562-1.433-1.25-1.495-.687-.061-2.69-.279-4.451-.484s-3.517.141-3.904.767M146.5 148c.34.55 1.041 1 1.559 1s.941-.45.941-1-.702-1-1.559-1-1.281.45-.941 1m9.21 1c.288 1.1.063 2-.5 2s-.802.844-.532 1.875c.31 1.186 1.385 1.875 2.925 1.875 1.952 0 2.208-.272 1.293-1.375-.627-.756-.973-1.408-.768-1.447 2.556-.497 7.873-.239 7.873.381-.001.445.411.555.914.244s1.092-.033 1.309.618c.225.677.935.849 1.659.401 1.696-1.048-3.354-3.712-5.486-2.894-.848.325-2.841-.369-4.429-1.543-3.609-2.669-4.931-2.711-4.258-.135m-102.897.683c.721.289 1.584.253 1.916-.079s-.258-.568-1.312-.525c-1.165.048-1.402.285-.604.604M49.5 152c-.34.55-.141 1 .441 1S51 152.55 51 152s-.198-1-.441-1-.719.45-1.059 1m17.776.329c.479 1.438 3.724 2.189 3.724.861 0-.526-.926-1.199-2.057-1.495-1.309-.342-1.915-.111-1.667.634M142 152c0 .55.45 1 1 1s1-.45 1-1-.45-1-1-1-1 .45-1 1m-87.5 1c.34.55 1.068 1 1.618 1s.722-.45.382-1-1.068-1-1.618-1-.722.45-.382 1m22.025.96c-.372.601-1.287.969-2.035.817-1.479-.301-2.187 1.491-.775 1.961 1.24.414 4.909-2.447 4.134-3.223-.357-.356-.953-.156-1.324.445m58.261 1.087c-1.831 2.009-.989 3.283 1.624 2.456l3.203-1.015c1.307-.415 1.378-.794.377-2-1.6-1.928-3.082-1.769-5.204.559M49 155.213c0 .433 1.152.787 2.559.787s2.299-.421 1.98-.936c-.687-1.113-4.539-.986-4.539.149m96.75 1.483c-2.033.524-2.311 1.948-.5 2.558 1.928.649 4.874-.383 4.478-1.569-.428-1.286-1.65-1.59-3.978-.989m19.917-.029c-1.215 1.214-.691 2.28.833 1.695.825-.317 1.5-.978 1.5-1.469 0-1.048-1.378-1.182-2.333-.226M46.118 157.75c.408 2.583-.199 3.277-2.015 2.305-1.574-.842-1.997-.613-2.489 1.346-.722 2.877-3.616 3.802-6.134 1.961-2.728-1.995-4.411-1.673-5.443 1.041C28.982 167.178 27 168.742 27 166.8c0-.726-.943-1.908-2.096-2.628-1.784-1.114-2.379-1.052-4 .415-1.047.947-1.904 2.58-1.904 3.627s-.45 1.626-1 1.286-1.057-.029-1.128.691c-.44 4.521-.66 5.656-1.288 6.673-.738 1.195.353 1.488 4.302 1.157 1.312-.11 2.783.403 3.269 1.14.713 1.081 1.141 1.002 2.224-.411.738-.963 1.967-1.757 2.731-1.765 1.007-.011 1.063-.223.205-.769-.799-.508-.283-1.272 1.584-2.343 2.356-1.352 3.046-1.387 4.626-.231 1.043.763 1.309 1.358.607 1.358-.687 0-.984.43-.659.956 1.071 1.733 3.527-.121 3.527-2.662 0-1.499 1.24-3.65 3.114-5.401 2.027-1.893 2.945-3.561 2.627-4.774-.365-1.399-.047-1.75 1.273-1.405.968.253 2.046-.002 2.395-.567.434-.702 1.589-.695 3.644.021 1.655.577 3.895.817 4.978.534 2.124-.555 2.569.298.981 1.886-1.403 1.403 3.039 1.614 4.714.225 1.064-.884.925-1.369-.721-2.522-1.121-.785-1.779-1.847-1.463-2.359.317-.513.126-.932-.424-.932s-1.278.45-1.618 1c-1.014 1.64-6.5 1.218-6.5-.5 0-.933-.944-1.5-2.5-1.5-1.375 0-2.447.338-2.382.75M167 160c0 .55.45 1 1 1s1-.45 1-1-.45-1-1-1-1 .45-1 1m-7.333.667c-1.13 1.129-.737 2.524.583 2.07.688-.236 2.6-.064 4.25.383l3 .812-2.361-1.966c-2.429-2.023-4.304-2.468-5.472-1.299M148 162c0 .55.477 1 1.059 1s.781-.45.441-1-.816-1-1.059-1-.441.45-.441 1m-100.541 1.067c-1.139 1.842.371 2.246 2.065.552 1.398-1.398 1.412-1.619.106-1.619-.831 0-1.809.48-2.171 1.067m93.354 1.616c.721.289 1.584.253 1.916-.079s-.258-.568-1.312-.525c-1.165.048-1.402.285-.604.604m-92.49 2.918c-.293.763-.839 1.198-1.213.967-.375-.232-.681.446-.681 1.505 0 2.559 1.551 2.43 5.85-.488 1.957-1.328 3.82-2.153 4.14-1.833s.581.145.581-.389c0-1.575-8.066-1.354-8.677.238m-37.941.59c-.405.655-.206 1.368.441 1.583.647.216 1.177.835 1.177 1.377 0 .541-.902.697-2.005.347-2.934-.931-3.671 2.091-1.495 6.133.998 1.853 2.082 3.362 2.407 3.354 2.541-.066 4.255-4.35 2.72-6.798-.494-.788-.237-1.987.645-3 .807-.928 1.263-2.249 1.014-2.937-.575-1.589-3.934-1.629-4.904-.059m48.422.226c.424.595.903 2.433 1.064 4.083.279 2.864.224 2.91-1.199 1.011-.821-1.094-1.309-2.284-1.086-2.645s-.252-.909-1.057-1.218c-1.909-.732-2.473.361-1.471 2.852.442 1.1.836 1.411.875.691.038-.72.527-1.026 1.086-.681.559.346.758 1.047.441 1.559-.316.512-.072.931.543.931s.879.387.587.859c-.607.982-7.587-.954-7.587-2.104 0-.415-.675-.755-1.5-.755-2.29 0-1.786 1.675.75 2.492 1.237.398 2.635.66 3.105.581s1.426.33 2.124.909c1.536 1.275 4.155.414 4.937-1.623.313-.817 1.023-1.206 1.577-.863 1.553.96 1.191-1.169-.484-2.844-1.13-1.13-1.191-1.613-.25-1.993.944-.381.927-.52-.068-.58-.72-.043-1.077-.454-.794-.912.283-.459-.133-.834-.925-.834-.842 0-1.12.45-.668 1.084m4.792.194c-.34.887.157 1.389 1.376 1.389 2.641 0 3.43-1.661 1.081-2.276-1.107-.289-2.15.087-2.457.887M166.71 170c-.327 1.25-.03 2 .79 2s1.117-.75.79-2c-.288-1.1-.643-2-.79-2s-.502.9-.79 2m-7.71 1.5c0 .825.177 1.5.393 1.5s.652-.675.969-1.5.139-1.5-.393-1.5c-.533 0-.969.675-.969 1.5m-94.294.825c-.378.985.37 1.387 2.633 1.415 1.738.021 2.486-.197 1.661-.485s-2.01-.925-2.633-1.415c-.712-.56-1.33-.38-1.661.485M140 173.393c0 .216.698.661 1.552.989.89.341 1.291.173.941-.393-.587-.951-2.493-1.406-2.493-.596m22.872 3.357c-1.269 1.619-1.222 1.64.628.283 1.1-.807 2.188-1.594 2.417-1.75s-.054-.283-.628-.283-1.662.787-2.417 1.75m-115.205.917c-.749.748.499 4.333 1.509 4.333.518 0 .664.45.324 1-.915 1.481.837 1.213 3.059-.468 1.883-1.425 1.87-1.469-.431-1.5-1.901-.026-2.145-.306-1.229-1.41.897-1.081.72-1.488-.82-1.891-1.08-.282-2.165-.311-2.412-.064m84.146.016c.721.289 1.584.253 1.916-.079s-.258-.568-1.312-.525c-1.165.048-1.402.285-.604.604M.365 190.5c.003 5.5.171 7.622.373 4.716.203-2.905.201-7.405-.004-10S.363 185 .365 190.5m41.448-8.817c.721.289 1.584.253 1.916-.079s-.258-.568-1.312-.525c-1.165.048-1.402.285-.604.604m122.187.71c0 .216.675.652 1.5.969s1.5.139 1.5-.393c0-.533-.675-.969-1.5-.969s-1.5.177-1.5.393m-107.397 1.774c.283.458.938.833 1.456.833s.941-.375.941-.833c0-.459-.655-.834-1.456-.834s-1.224.375-.941.834m106.13-.043c.679.684 1.486.991 1.793.683.308-.308-.247-.867-1.233-1.243-1.425-.542-1.54-.428-.56.56M65 185.059c0 .582.45.781 1 .441s1-.816 1-1.059-.45-.441-1-.441-1 .477-1 1.059m-15.457.872c-.683 1.105.894 2.299 1.818 1.375.95-.951.773-2.306-.302-2.306-.518 0-1.2.419-1.516.931M90 186c-.901.582-1.025.975-.309.985.655.008 1.469-.435 1.809-.985.767-1.242.421-1.242-1.5 0m74.688 1.646c-1.213 1.212-.742 1.924 1.376 2.084 1.142.086 1.896-.35 1.688-.975-.471-1.412-2.153-2.021-3.064-1.109m-115.021 2.021c-1.17 1.169-.728 1.984 1.666 3.075 1.931.88 2.336.778 2.349-.589.022-2.365-2.546-3.955-4.015-2.486M162 195c0 1.111.667 2 1.5 2 .825 0 1.5.45 1.5 1s.525 1 1.167 1c.641 0 .87-.296.508-.658s-.099-1.337.584-2.166c1.072-1.302.831-1.422-1.759-.882-1.65.345-2.435.381-1.744.081s1.002-.957.691-1.46c-1-1.618-2.447-.976-2.447 1.085"/><path fill-opacity=".112" fill-rule="evenodd" d="M41 1.125c0 .481-.562.889-1.25.906-1.682.043-5.013 4.734-4.244 5.978.376.61-1.549.991-5.006.991-4.165 0-5.454-.323-4.985-1.25.348-.687.031-.522-.705.369-1.869 2.26-7.827 3.472-8.859 1.802-.58-.938-1.162-.998-2.125-.218-1.487 1.204-9.389 1.134-12.076-.108C.17 8.864 0 9.491 0 16.06c0 4 .293 6.98.651 6.622s1.226.13 1.929 1.084c1.211 1.644 1.312 1.643 1.956-.016.373-.962 1.128-1.75 1.678-1.75s.777.581.504 1.292c-.272.71.129 2.146.893 3.191 2.671 3.653 1.634 6.11-2.361 5.592-.687-.09-1.25.532-1.25 1.381S3.523 35 2.941 35s-.781-.45-.441-1-.084-1-.941-1C-.303 33-.45 34.15 1.2 35.8c.921.921.923 1.2.011 1.2-1.441 0-1.236 5.19.247 6.235.677.477.605.74-.208.75C.264 43.997 0 56.775 0 104.5c0 36.306.369 60.5.923 60.5.508 0 2.273-1.35 3.923-3 3.499-3.499 4.811-3.702 7.074-1.093 2.662 3.07 4.767 2.856 7.834-.799 2.581-3.076 3.064-3.276 5.173-2.147 1.823.976 2.49.982 3.079.029.585-.947.845-.938 1.171.04.331.994.931.974 2.871-.096 1.349-.745 3.015-1.239 3.702-1.1.688.14 1.25-.425 1.25-1.255s.87-1.974 1.932-2.543c1.063-.569 2.211-1.911 2.551-2.984s1.496-2.228 2.568-2.568S46 145.996 46 144.933s.354-1.933.787-1.933.855-.9.938-2-.298-2-.846-2-.719-.45-.379-1c.857-1.386 4.248-1.257 4.727.18.245.735 1.124.894 2.333.423 1.767-.69 1.675-.897-1.027-2.326-3.416-1.806-4.911-3.259-5.326-5.179-.207-.959.376-1.175 2-.739 1.261.337 3.703.62 5.426.627 2.388.011 3.272.541 3.713 2.228.324 1.24.045 2.572-.634 3.027-1.259.843 8.278.125 11.788-.888 1.523-.44 1.731-.293.871.614-.621.655-2.974 1.438-5.229 1.741-2.256.302-3.863.935-3.572 1.406s-.903.569-2.654.219c-2.47-.494-3.08-.322-2.722.765.255.771 1.44 1.546 2.634 1.722 1.195.175 2.172.949 2.172 1.718 0 1.626-2.905.909-4.575-1.13-.592-.722-1.972-1.078-3.067-.791-1.584.414-1.899 1.151-1.539 3.604.403 2.745.218 3.022-1.683 2.525-1.175-.307-2.136-.123-2.136.409 0 .575 1.76.704 4.333.318 3.566-.535 4.334-.369 4.334.938 0 .896-.831 1.589-1.905 1.589-1.048 0-2.58.675-3.405 1.5-1.705 1.705-1.143 1.934 1.407.573 4.498-2.402 8.051-3.181 8.821-1.935.363.587 1.14.505 2.004-.212.776-.644 1.411-.744 1.411-.222s1.358.75 3.017.507c1.66-.244 2.939-.953 2.842-1.577s.172-1.927.595-2.897c.461-1.055.245-2.395-.54-3.34-1.191-1.436-1.414-1.434-2.48.024-1.024 1.401-1.323 1.418-2.388.134-1.764-2.125-.48-3.462 4.011-4.18 2.169-.347 3.943-1.023 3.943-1.503 0-1.517.327-2.338 1.429-3.587 3.829-4.344 3.905-4.521 2.731-6.4-.638-1.022-1.175-2.426-1.193-3.121-.052-1.957-3.604-5.764-5.377-5.764-.875 0-1.59-.81-1.59-1.8s-.54-2.34-1.2-3c-.933-.933-.933-1.2 0-1.2.66 0 1.229.563 1.263 1.25.035.688.471.237.969-1.001.497-1.238.646-2.926.329-3.75-.316-.825-.077-1.499.532-1.499s1.107-.36 1.107-.799-1.575-.616-3.5-.391c-2.306.269-3.5-.006-3.5-.808 0-.669-.62-.978-1.378-.687s-1.823.084-2.367-.46c-.652-.652-1.191-.465-1.58.549-.913 2.379 2.047 4.815 4.352 3.581 1.492-.798 2.11-.597 2.941.956.943 1.762.765 1.929-1.708 1.607-1.518-.198-3.21-.455-3.76-.572-2.241-.477-3.5.112-3.5 1.637 0 1.228.725 1.508 3.027 1.17 3.841-.564 3.412 1.344-.609 2.704-3.246 1.098-4.571 2.457-3.727 3.822.307.497.895.361 1.306-.304.46-.745.915-.059 1.186 1.79.321 2.184.084 2.861-.871 2.494-.722-.276-1.312-.808-1.312-1.182 0-.779-2.864-1.162-8.25-1.101-2.062.023-3.75-.419-3.75-.982s.364-1.024.809-1.024 1.646-.612 2.669-1.36c1.799-1.316 1.789-1.437-.314-3.695-1.258-1.35-1.945-3.06-1.629-4.055.301-.947.095-2-.456-2.341-.646-.399-.67-1.494-.069-3.076.514-1.35.673-3.135.355-3.964-.34-.886-.018-1.515.778-1.524 1.05-.012 1.018-.243-.143-1.021-1.28-.857-1.154-1.295.861-2.984 1.8-1.51 1.978-1.98.75-1.98-1.827 0-2.184-2.528-.504-3.566.78-.482.727-.919-.18-1.479-1.832-1.132-1.98-3.625-.396-6.677 1.292-2.49.949-5.531-.406-3.601-1.025 1.459-2.48.944-5.125-1.813-2.766-2.884-3.142-3.797-3.617-8.787-.179-1.883-.901-3.789-1.604-4.235-1.037-.658-1.035-.814.006-.827 1.005-.012 1.034-.484.136-2.162-.904-1.69-.773-3.387.615-7.972 1.521-5.023 2.203-5.97 4.961-6.88 3.859-1.274 5.866-.623 7.966 2.583 2.243 3.424 3.923 3.095 3.179-.622-.426-2.134-.185-3.2.812-3.583a1.523 1.523 0 0 0 .876-1.962c-.305-.793.053-1.418.813-1.42.859-.002 1.382-1.235 1.426-3.357.049-2.367.972-4.236 3.138-6.354 1.689-1.65 3.586-3.965 4.217-5.143.63-1.179 1.806-2.143 2.611-2.143S70 23.494 70 22.875c0-.712 1.08-.909 2.939-.537 2.724.545 2.963.352 3.25-2.625.199-2.051.853-3.213 1.811-3.213.825 0 2.297-.868 3.272-1.928 1.36-1.48 2.046-1.654 2.95-.75 1.58 1.58 2.778 1.488 2.778-.215 0-2.926 5.271-2.95 6.391-.03.859 2.239 2.262 1.675 3.547-1.426.902-2.178 1.871-2.87 4.109-2.933 1.747-.05 3.337.595 3.94 1.599.941 1.566 1.108 1.559 2.398-.102 1.266-1.63 1.742-1.661 5.511-.363 2.269.782 4.362 1.039 4.651.572.567-.917 7.516 2.613 8.631 4.385.481.764 1.418.74 3.219-.08 2.179-.993 2.74-.872 3.945.849.773 1.103 1.8 1.934 2.282 1.846 2.165-.397 3.376.198 3.376 1.659 0 2.425 2.304 1.114 3.069-1.747.394-1.473.052-4.166-.818-6.435-.822-2.145-1.552-5.476-1.623-7.401L139.5.5 103.25.238C68.82-.012 67 .066 67 1.788c0 .996-.495 2.307-1.101 2.913-.801.801-.752 2.065.18 4.641 1.049 2.901 1.038 4.272-.06 7.599-.736 2.232-1.641 4.059-2.01 4.059s-1.269 1.117-1.999 2.482C60.704 25.921 54.205 30 51.623 30c-2.754 0-7.441-3.139-7.998-5.357-.319-1.272-.193-3.662.28-5.312.535-1.866.466-3.703-.182-4.862-.67-1.198-.692-1.979-.06-2.19.541-.18.795-1.614.564-3.185s.074-3.162.677-3.535C45.507 5.187 46 3.84 46 2.566 46 .762 45.447.25 43.5.25c-1.375 0-2.5.394-2.5.875M149.038 2.25c.02 1.238.598 6.801 1.284 12.363s1.224 11.412 1.196 13 .522 3.486 1.224 4.218.998 1.78.659 2.33c-.34.549.331 1.663 1.491 2.476 1.159.812 2.108 2.351 2.108 3.42s.338 1.945.75 1.947.827 1.534.922 3.404c.154 3.045-.081 3.371-2.259 3.132-1.992-.219-2.22-.012-1.26 1.144.644.776 1.435 1.02 1.759.544.323-.477 1.66-.603 2.971-.28 2.155.531 2.227.716.75 1.942-2.193 1.82-2.066 3.036.254 2.429 1.841-.481 3.365.914 3.746 3.431.105.688-.22 1.25-.721 1.25-.502 0-.912.727-.912 1.617 0 1.188-.596 1.457-2.25 1.013-1.238-.331-3.038-.609-4-.616s-1.638-.55-1.5-1.205c.137-.654-.536-1.362-1.496-1.572-1.249-.273-1.575.066-1.144 1.19.395 1.028.048 1.573-1.003 1.573-.884 0-1.607-.477-1.607-1.059s-.562-.735-1.25-.34c-.687.396-.928.363-.535-.072.393-.436.265-1.633-.285-2.66-.694-1.296-.665-1.869.094-1.869.602 0 .842-.408.534-.906s.527-.394 1.855.233c1.329.627 2.203 1.485 1.943 1.907-.261.421-.034.766.503.766.538 0 1.802.267 2.809.594 1.487.483 1.555.399.361-.445-.809-.572-1.165-1.347-.79-1.721.887-.888-1.978-6.428-3.324-6.428-.568 0-.755-.45-.415-1s-.196-1.036-1.191-1.079c-1.06-.046-1.289-.289-.553-.585.691-.279 1.002-.918.691-1.421s.249-.951 1.244-.994c1.06-.046 1.289-.289.553-.585-.691-.279-1.002-.918-.691-1.421 1.041-1.685-1.815-.938-3.195.835-1.298 1.667-1.334 1.667-.753 0 .769-2.209-2.398-2.453-3.243-.25-.967 2.519-2.117 1.669-1.575-1.164.414-2.167.202-2.546-1.139-2.031-.906.348-1.648.228-1.648-.265s-.72-1.617-1.599-2.496c-1.279-1.279-1.355-1.895-.378-3.072.996-1.2.902-1.472-.508-1.472-1.212 0-1.547-.523-1.12-1.75.571-1.638.525-1.641-.718-.048-.908 1.164-2.094 1.504-3.752 1.077-2.121-.547-2.262-.427-1.126.959 1 1.221 1.022 1.754.095 2.327-.786.486-.941.321-.448-.477.986-1.595-2.444-1.063-4.267.662-1.716 1.623-2.394 1.577-4.738-.324-1.067-.866-1.378-1.289-.691-.941.688.348 1.25.156 1.25-.426s-.562-1.073-1.25-1.089c-1.165-.029 1.841-2.235 3.5-2.569.412-.083 1.044-.207 1.403-.276s-.308-.958-1.482-1.977c-1.174-1.018-1.805-2.241-1.403-2.717.403-.476.004-.312-.885.364-1.304.991-1.861.936-2.873-.283-.69-.831-1.667-1.512-2.171-1.512s.007.991 1.135 2.203c1.736 1.863 1.826 2.33.581 3.026-.81.453-1.216 1.492-.902 2.309.41 1.067.103 1.305-1.093.847-.987-.379-2.555.165-3.861 1.34-1.209 1.087-2.874 2.356-3.699 2.818-1.333.748-1.333.635 0-1.015 1.409-1.743 1.363-1.782-.764-.649-1.246.664-2.205.85-2.132.414.347-2.071-.313-2.004-2.779.281-1.763 1.635-2.908 2.1-3.361 1.367-.378-.611-.975-1.073-1.326-1.026-1.871.25-1.896-.043-.111-1.268 1.857-1.273 3.422-1.616 7.824-1.715 1.826-.041 2.9-.711 6.757-4.218 2.672-2.43 1.331-4.403-1.379-2.029-1.14.998-1.723 1.219-1.296.491.638-1.088.413-1.097-1.264-.05-1.122.701-1.817 1.634-1.545 2.074s-.035.8-.682.8c-.683 0-.956-.838-.652-2 .287-1.1.115-2-.384-2-.498 0-.906.9-.906 2 0 1.232-.672 2.006-1.75 2.015-1.496.013-1.532.157-.25.985.901.582 1.025.975.309.985-.655.008-1.469-.435-1.809-.985s-1.068-1-1.618-1-.722.45-.382 1-.093 1-.962 1c-.87 0-2.093-1.125-2.72-2.5-1.288-2.826-2.089-3.083-3.672-1.176-.801.965-.785 1.637.06 2.482.879.879.416.946-1.911.279-2.233-.641-3.509-.499-4.679.521-.885.77-1.16.86-.612.198C86.315 29.22 86.278 27 84.941 27c-.582 0-.781.45-.441 1s.19 1-.334 1c-1.91 0-2.185 3.323-.44 5.314 1.673 1.91 1.675 1.989.024 1.387-1.162-.424-1.75-.145-1.75.83 0 .808-.338 1.469-.75 1.469s-.746-2.487-.74-5.527c.007-4.393-.301-5.468-1.5-5.239-.876.168-1.72 1.753-2.01 3.777-.307 2.14-1.08 3.53-2 3.595-3.232.229-5.551 1.603-6.655 3.943-1.109 2.351-1.037 2.425 1.858 1.915 4.102-.722 7.228.312 5.873 1.944-.714.861-.654 1.667.198 2.639.674.77.291.624-.853-.324C74.278 43.776 72.59 43 71.671 43S70 42.564 70 42.031s-.64-.723-1.422-.423-2.357.046-3.5-.566c-1.664-.891-2.078-.821-2.078.351 0 .805.675 2.139 1.5 2.964 2.129 2.129 1.9 2.427-1.551 2.025-1.957-.227-2.817.023-2.398.7.358.58 1.244.827 1.967.549s1.579.179 1.899 1.014c.974 2.538.664 3.457-1.063 3.149-.906-.162-1.843.269-2.084.956-.263.753.491 1.29 1.897 1.35 2.313.099 2.312.105-.167.804-2.492.703-2.49.709.75 1.849 3.093 1.088 3.25 1.025 3.25-1.305 0-1.346.45-2.448 1-2.448s1 .62 1 1.378.666 1.929 1.479 2.605c1.09.904 1.215 1.719.477 3.099-.949 1.773-1.263 1.71-5.979-1.191C62.24 57.207 60 55.417 60 54.914S59.523 54 58.941 54s-.769.47-.414 1.044.182 1.602-.384 2.284c-1.279 1.541-.97 3.971.773 6.071 1.138 1.371 1.06 1.603-.544 1.616-1.128.01-1.436.308-.776.75.603.404 1.399 1.972 1.769 3.485.452 1.848 1.323 2.75 2.654 2.75 1.09 0 1.981.498 1.981 1.107s-.675.848-1.5.531c-1.126-.432-1.5.165-1.5 2.393C61 78.29 61.458 79 62.917 79c1.054 0 2.094-.534 2.312-1.187.257-.77 1.144-.44 2.521.937 1.169 1.169 1.763 2.266 1.322 2.438-.442.171-.462 1.212-.045 2.312.731 1.927.786 1.931 1.523.118.435-1.07.266-2.683-.392-3.737-1.549-2.479-1.459-3.21.31-2.532 2.453.942 2.88-1.376.638-3.465C68.974 71.898 68.336 70 69.8 70c.44 0 1.289.489 1.887 1.087.783.783 1.679.58 3.2-.722 2.518-2.156 2.764-5.901.473-7.184C73.551 62.169 74.323 60 76.492 60c1.501 0 2.971 3.442 2.084 4.878-.305.492.078 1.42.851 2.061 2.173 1.804 2.932-2.022 1.098-5.537-.832-1.596-1.515-3.745-1.519-4.774-.005-1.552.251-1.659 1.494-.628.825.685 1.5 1.865 1.5 2.622 0 1.889 1.924 1.741 2.671-.206.489-1.275.772-1.324 1.453-.25.674 1.064.848 1.025.861-.193.008-.841-.686-2.528-1.542-3.75-1.45-2.071-1.2-2.689.93-2.301.48.088.582-.597.227-1.523-.534-1.391-.39-1.469.833-.454 1.592 1.321 3.974.522 3.024-1.014-.316-.512.141-.931 1.015-.931 1.848 0 3.263 2.895 1.882 3.851-1.51 1.045-3.684 8.847-2.978 10.687.999 2.602 3.624-.11 3.624-3.744 0-1.927.437-2.813 1.25-2.539.688.232 1.25 1.467 1.25 2.745 0 3.097 2.144 3.696 3.047.852.867-2.73 2.977-4.995 3.846-4.126.347.347.334 2.21-.028 4.14l-.658 3.51 2.784-2.191c2.636-2.072 2.862-2.096 4.221-.437.79.963 1.151 1.19.803.502s-.269-1.236.176-1.218c1.505.059 4.309 2.68 4.309 4.028 0 1.03.273 1.067 1.18.16s.859-1.779-.204-3.765c-1.189-2.222-1.179-2.714.07-3.505 2.302-1.456 2.636-1.146 2.173 2.013-.475 3.235 1.522 6.037 4.302 6.037.915 0 2.808.9 4.206 2s3.176 2 3.95 2c3.476 0 8.829 8.059 9.931 14.951.597 3.735.832 3.979 3.268 3.396 1.443-.346 3.415-1.45 4.381-2.454s2.429-1.567 3.25-1.252c.927.356 1.493-.013 1.493-.971 0-1.221.786-1.423 3.75-.966 2.063.319 3.937.74 4.167.938.828.712-.842 1.565-3.351 1.71-3.02.174-3.095.406-.911 2.819 1.548 1.711 1.532 1.835-.25 1.929-1.446.075-1.303.28.595.848 1.375.412 2.906.388 3.403-.053s1.789-.328 2.871.252c1.211.648 1.731.67 1.352.058-.752-1.218 2.145-2.465 3.616-1.556.671.415.399 1.14-.739 1.972-1.485 1.086-1.577 1.584-.529 2.848.699.842.936 1.531.526 1.531s-.263.581.326 1.291c.59.71 1.326 2.735 1.637 4.5.498 2.828.297 3.213-1.699 3.239-2.196.03-2.204.064-.264 1.148 2.886 1.612 2.899 1.637 1.608 3.192-.908 1.094-.883 1.728.107 2.774 1.987 2.097 2.063 5.856.118 5.856-1.452 0-1.426.239.222 2.061 1.547 1.709 1.627 2.209.47 2.924-1.153.712-1.169 1.136-.093 2.433.717.864 1.068 2.473.78 3.576-.288 1.102-.068 2.286.489 2.63.632.391.503.949-.344 1.486-.952.602-.993.864-.138.875.67.008.959.69.643 1.515-.317.825-.174 1.5.318 1.5s.994 1.462 1.116 3.25c.121 1.787.644 5.5 1.162 8.25s1.076 7.7 1.242 11c.294 5.887.248 6.006-2.45 6.316-2.53.292-2.75.665-2.75 4.669 0 2.393-.136 4.951-.303 5.683s.146.32.694-.918c1.632-3.689 6.609-2.584 6.609 1.468v2.504l2-2.361 2-2.361 1.948 2.5c3.507 4.499 5.036 6 6.111 6 .582 0 .806-.409.497-.91-.77-1.245.456-4.201 1.48-3.568.454.281 1.111.05 1.459-.513.404-.654 1.152-.505 2.069.412 1.547 1.547 1.961 3.021.614 2.189-1.223-.756-4.178 3.106-4.178 5.46 0 1.127-.403 1.799-.895 1.495-.493-.305-1.142.09-1.444.876-.989 2.579 1.791 2.356 4.014-.322 1.747-2.103 2.427-2.373 3.45-1.369.992.972 1.008 1.517.075 2.45-1.382 1.382-1.63 5.8-.325 5.8.481 0 1.153 1.389 1.492 3.086.373 1.864 1.115 2.917 1.875 2.659 1.495-.507 1.133-15.511-.421-17.431-.617-.763-.587-1.882.083-3.135.887-1.657 1.352-70.949 1.124-167.429L200 0h-51zM95 17.878c0 1.032.787 2.495 1.75 3.25 1.566 1.227 1.613 1.197.451-.289-.889-1.137-.962-1.869-.233-2.319 1.18-.729.45-2.52-1.027-2.52-.518 0-.941.845-.941 1.878m25 2.681c0 .857.45 1.281 1 .941s1-1.041 1-1.559-.45-.941-1-.941-1 .702-1 1.559m-32.025.971c-1.054 1.271-1.052 1.776.014 2.762 1.038.961 1.157.901.584-.292-.441-.917-.164-.82.713.25C91.137 26.508 92 26.467 92 24.122c0-2.914-2.449-4.491-4.025-2.592m-5.885.861c-.926 1.116-.567 1.596 1.819 2.427 2.397.836 2.871.772 2.449-.328-.296-.771-1.215-1.098-2.114-.753-1.182.453-1.426.179-.949-1.063.782-2.038.338-2.142-1.205-.283m17.01.904c-1.265 2.107-1.243 2.128.479.479.991-.95 1.587-1.942 1.324-2.205s-1.074.514-1.803 1.726m-90.466.379c.624.454 1.382 1.726 1.685 2.826.434 1.577.511 1.488.366-.422-.102-1.332-.86-2.603-1.685-2.826q-1.488-.399-.366.422m118.623 3.563c-.132 1.759.033 1.919.772.75 1.156-1.828 1.227-2.987.184-2.987-.433 0-.863 1.007-.956 2.237m2.743-.178c0 .582.45.781 1 .441s1-.816 1-1.059-.45-.441-1-.441-1 .477-1 1.059m-58.267 5.065c.679.684 1.486.991 1.793.683.308-.308-.247-.867-1.233-1.243-1.425-.542-1.54-.428-.56.56m14.966-.374c-.719 1.284 2.289 7.375 3.325 6.735.639-.395.631-1.261-.024-2.485-.704-1.316-.659-2.093.152-2.594.658-.407.888-.28.534.293-.659 1.066 4.19 3.759 5.11 2.838.295-.295-.014-.537-.688-.537s-.96-.431-.634-.957c.325-.527-.751-1.652-2.392-2.5-3.301-1.707-4.752-1.921-5.383-.793m36.914 1.433c.289.467.944.591 1.456.274 1.308-.808 1.161-1.124-.525-1.124-.801 0-1.22.383-.931.85m17.071.199c-.376.98-.684 2.195-.684 2.7 0 1.451 2.63 1.069 4-.582 1.015-1.223.96-1.5-.294-1.5-.847 0-1.719-.54-1.939-1.199-.244-.731-.667-.503-1.083.581M134 36c.589 1.1 1.237 2 1.442 2s.135-.9-.152-2-.937-2-1.442-2c-.507 0-.439.895.152 2m-15.425.121c.328.532.089 1.579-.532 2.327-.932 1.123-.535 1.227 2.28.592 1.972-.445 4.166-.346 5.204.235 1.46.817 1.677.699 1.165-.635-.407-1.061-.111-1.64.839-1.64.808 0 1.469-.45 1.469-1 0-1.314-1.326-1.274-2.68.08-.751.751-2.186.775-4.711.078-2.287-.632-3.41-.645-3.034-.037m28.631.629c.522 3.11 3.817 3.93 3.779.941-.01-.716-.403-.592-.985.309-.784 1.213-.972 1.069-.985-.75-.008-1.237-.485-2.25-1.059-2.25s-.911.788-.75 1.75m-73.642.957c-.542 1.425-.428 1.54.56.56.684-.679.991-1.486.683-1.793-.308-.308-.867.247-1.243 1.233m38.778.742q.56 1.452-.893.893c-.797-.306-1.449-.058-1.449.551 0 1.96 3.748 1.18 4.29-.893.353-1.349.03-2-.991-2-.91 0-1.292.577-.957 1.449m32.222.258c-.542 1.425-.428 1.54.56.56.684-.679.991-1.486.683-1.793-.308-.308-.867.247-1.243 1.233M104.5 40c-1.026 1.134-1.31 2-.655 2 .635 0 1.155.75 1.155 1.667 0 2.779 1.374.488 1.617-2.696.269-3.523.215-3.548-2.117-.971m-98.095-.209c-1.319.866-2.473 5.049-1.55 5.619.367.227 1.456-.165 2.421-.87 1.245-.911 1.53-1.889.982-3.371-.436-1.179-1.242-1.779-1.853-1.378m3.102.198c-.35.566.051.734.941.393 1.732-.665 2.049-1.382.611-1.382-.518 0-1.216.445-1.552.989M94.5 40c-.351.568-1.057.774-1.569.457-.512-.316-.931-.098-.931.484 0 1.305 3.665 1.41 4.457.128a1.106 1.106 0 0 0-.372-1.516c-.521-.322-1.234-.121-1.585.447m3.711 1.538c-.71.804-.877 1.462-.373 1.462s1.477-.675 2.162-1.5c1.604-1.932-.083-1.897-1.789.038m-16.794.596c-.359.582.042 1.754.893 2.605 1.38 1.379 1.71 1.383 3.057.036s1.251-1.628-.892-2.605c-1.684-.767-2.599-.778-3.058-.036m47.722 1.628c.172 1.643-.303 3.73-1.055 4.637-.753.907-1.018 1.976-.59 2.375s.982.161 1.228-.53c.247-.691.86-1.002 1.363-.691s.915-1.235.915-3.435-.489-4.302-1.087-4.672c-.713-.44-.979.358-.774 2.316m7.891-.298c-1.014 1.221-.993 1.613.107 2.035 1.481.568 1.728 10.462.346 13.818-.426 1.033-.26 2.306.384 2.95.844.844 1.133.587 1.133-1.008 0-1.178.507-2.454 1.126-2.837 1.678-1.037.359-11.594-1.63-13.049-1.226-.896-1.296-1.28-.299-1.635.717-.255 1.03-.762.696-1.125-.335-.364-1.173.019-1.863.851m-21.662.75c-.268.432-.046.786.491.786.538 0 1.689.273 2.559.607.976.374 1.582.073 1.582-.786 0-1.462-3.796-1.96-4.632-.607M69.25 46.738c-2.69 1.801-2.916 3.268-.5 3.247 2.665-.024 4.045-1.304 3.364-3.119-.553-1.471-.839-1.484-2.864-.128m-16.707 1.193c-.317.512-.193 1.167.274 1.456s.85-.13.85-.931c0-1.686-.316-1.833-1.124-.525m29.714 2.306c-.132 1.759.033 1.919.772.75 1.156-1.828 1.227-2.987.184-2.987-.433 0-.863 1.007-.956 2.237m-23.693 1.056c.376.986.935 1.541 1.243 1.233s.001-1.114-.683-1.793c-.988-.98-1.102-.865-.56.56M96 51.559c0 .857.457 1.276 1.016.931.559-.346.758-1.047.441-1.559C96.6 49.544 96 49.802 96 51.559m9.316.11c.999 1.174 2.574 2.004 3.5 1.843.926-.16 2.736.37 4.021 1.178 2.853 1.795 4.005 1.01 1.782-1.214-.89-.89-1.619-2.037-1.619-2.547s-.477-.929-1.059-.929-.816.394-.518.875c.793 1.283-4.665 1.098-6.423-.218-.858-.642-.723-.209.316 1.012m9.684.3c0 .532.675.709 1.5.393.825-.317 1.5-.753 1.5-.969s-.675-.393-1.5-.393-1.5.436-1.5.969m-43.455 1.958c-.251.407.086.761.749.787s2.067.403 3.12.837c1.251.516 1.69.426 1.266-.26-.833-1.348-4.537-2.331-5.135-1.364m54.181 1.777c.827 1.263 1.85 2.296 2.272 2.296.423 0 1.094 1.013 1.491 2.25.67 2.086.76 2.109 1.226.316.288-1.11-.183-2.435-1.106-3.11-.885-.647-1.609-1.886-1.609-2.754 0-.93-.775-1.519-1.889-1.435-1.738.13-1.769.326-.385 2.437M99 55c0 .55.477 1 1.059 1s.781-.45.441-1-.816-1-1.059-1-.441.45-.441 1m58 .409c0 .19.675.906 1.5 1.591.865.718 1.5.815 1.5.229 0-.558-.675-1.274-1.5-1.591s-1.5-.419-1.5-.229M83.5 61c-.34.55-.141 1 .441 1S85 62.765 85 63.7c0 1.266.289 1.411 1.133.567C87.377 63.023 86.638 60 85.09 60c-.534 0-1.25.45-1.59 1m38.5 1.059c0 1.132.45 1.781 1 1.441s1-1.266 1-2.059S123.55 60 123 60s-1 .927-1 2.059m22.281-.309c.359 1.519.075 2.25-.875 2.25-1.687 0-1.818 1.188-.299 2.707.81.81.541 1.411-1 2.236-2.342 1.253-2.513 1.866-1.131 4.052.811 1.283 1.159 1.212 2.453-.5.829-1.097 1.522-2.782 1.539-3.745.018-.963.482-1.75 1.032-1.75 1.522 0 1.134-3.252-.657-5.5-1.572-1.973-1.586-1.97-1.062.25m16.298 3.946c-1.056 1.448-1.445 2.339-.864 1.98s1.284.212 1.561 1.271c.607 2.322-1.928 3.587-3.903 1.948-.755-.627-1.409-2.322-1.452-3.767-.043-1.446-.307-2.063-.585-1.372-.279.691-.918 1.002-1.421.691-1.497-.925-1.04.757.74 2.724.99 1.094 1.191 1.829.5 1.829-.635 0-1.155.707-1.155 1.572 0 1.017.794 1.507 2.25 1.389 5.653-.458 6.871-.055 5.813 1.921-1.219 2.279-3.505 3.269-5.647 2.447-1.15-.441-1.255-.81-.384-1.349.659-.407-.804-.682-3.252-.61-3.733.109-4.376.416-3.992 1.903.406 1.575 1.472 1.724 9.585 1.337 5.02-.24 9.255-.475 9.412-.523s-.182-.96-.753-2.026c-.607-1.136-.661-2.172-.129-2.501 1.274-.787.16-4.806-1.756-6.335-1.316-1.05-1.38-1.623-.364-3.25 1.975-3.161-1.85-2.505-4.204.721M66 64.868c0 .558.481 1.311 1.068 1.674s.836 1.267.551 2.008c-.339.883.001 1.149.985.772 2.013-.773 1.358-4.713-.854-5.135-.963-.184-1.75.123-1.75.681M129.5 67c-.34.55-.141 1 .441 1S131 67.55 131 67s-.198-1-.441-1-.719.45-1.059 1m-10.167 3.424c0 .766 1.221 1.637 2.713 1.935s3.439 1.269 4.326 2.156c1.61 1.61 3.628 1.258 3.628-.633 0-.55-.399-.753-.887-.452-.487.301-1.442-.122-2.122-.941s-.843-1.521-.363-1.559c1.193-.096-2.806-1.772-4.437-1.86-.788-.042-1.01.428-.558 1.18.597.995.439.998-.774.016-1.228-.993-1.526-.963-1.526.158M66.58 72.87c-.307.497.112 1.459.931 2.139 1.211 1.005 1.489.944 1.489-.328 0-1.866-1.631-3.087-2.42-1.811M159.5 76c.34.55.816 1 1.059 1s.441-.45.441-1-.477-1-1.059-1-.781.45-.441 1M146 80.559c0 .857.45 1.281 1 .941s1-1.041 1-1.559-.45-.941-1-.941-1 .702-1 1.559m-26.187.124c.721.289 1.584.253 1.916-.079s-.258-.568-1.312-.525c-1.165.048-1.402.285-.604.604m43.407 2.13c-.671 1.422-1.22 2.946-1.22 3.386 0 1.013 4.107 1.02 5.695.011 1.76-1.119.937-4.432-1.308-5.262-1.491-.552-2.232-.115-3.167 1.865m-104.97-.782c-2.645 1.063-3.049 2.973-.5 2.362.962-.23 2.425.037 3.25.594 1.333.9 1.333 1.122 0 1.998-.825.541-1.107.991-.628 1 .48.008.313.69-.372 1.515s-.91 1.5-.5 1.5.176.685-.519 1.523c-1.057 1.273-.995 1.42.378.893.902-.347 1.641-1.289 1.641-2.094 0-1.941 2.729-4.607 3.946-3.855.529.327 2.135.3 3.569-.06l2.607-.654-3.085-1.877c-3.822-2.324-4.414-2.344-3.642-.126.508 1.459.36 1.427-.893-.191-.826-1.068-1.502-2.305-1.502-2.75 0-.996-.844-.946-3.75.222m64.78-.281c-.017.699-1.28 1.25-2.863 1.25-2.021 0-2.842.502-2.864 1.75-.045 2.589 1.635 4.25 4.3 4.25 2.77 0 4.198-3.788 2.518-6.678-.583-1.002-1.074-1.259-1.091-.572m-34.78 1.813c-1.829 1.979-1.528 4.218.727 5.425 1.57.84 2.393.642 4-.965C95.042 85.958 95.637 84 94.2 84c-.44 0-1.34.54-2 1.2-.933.933-1.2.835-1.2-.441 0-2.267-1.256-2.813-2.75-1.196m-20.476 7.206c-3.567 2.179-4.171 3.97-1.611 4.783 2.59.822 5.13-1.555 4.673-4.372-.323-1.996-.442-2.012-3.062-.411m73.454.468c-.254.97-.746 1.763-1.095 1.763-.348 0-.633 2.213-.633 4.917s.185 4.732.41 4.506c.226-.226.99.417 1.698 1.427 1.609 2.298.717 6.665-1.06 5.19-.913-.758-1.188.03-1.128 3.229.047 2.489.697 4.715 1.58 5.407 1.292 1.013 1.242 1.152-.367 1-1.375-.13-2.175.877-3.041 3.824-.646 2.2-1.02 4.74-.831 5.644.343 1.636 5.239 3.3 5.239 1.78 0-1.876 7.606.415 9.737 2.933 1.654 1.953 3.22 2.662 6 2.718 2.07.041 4.55.426 5.513.857 2.634 1.177 2.175-1.496-.73-4.251-1.345-1.276-3.25-2.236-4.233-2.135-4.735.488-5.836-1.019-2.037-2.787 1.93-.898 2.015-1.144.597-1.723-.934-.382-3.419.225-5.71 1.394-4.276 2.182-7.137 2.66-7.137 1.192 0-1.398 2.289-2.901 4.99-3.276 1.536-.214 2.634-1.112 2.865-2.346.478-2.543 2.102-3.574 4.091-2.598 2.281 1.12 9.054 1.31 9.054.254 0-.498-1.35-1.176-3-1.506-3.104-.621-4.3-3.65-1.441-3.65.857 0 1.281-.45.941-1s-1.522-1-2.626-1c-1.554 0-1.865.453-1.374 2 .519 1.634.18 2-1.851 2-1.367 0-3.158.258-3.98.573-.923.355-1.674-.124-1.966-1.25-.378-1.462-.494-1.377-.587.427-.07 1.363-.757 2.25-1.741 2.25-1.272 0-1.495-.651-1.025-3 .33-1.65.175-3-.344-3s-.684-.675-.368-1.5c.365-.95-.013-1.5-1.031-1.5-1.762 0-2.167-1.536-.651-2.473.526-.325.701-1.257.389-2.07-.392-1.022-.098-1.299.953-.896 1.665.639 3.114 4.963 2.174 6.485-.325.525.074.954.886.954.811 0 1.702.563 1.98 1.25.403 1 .52 1 .583 0 .043-.687.82-1.25 1.725-1.25 1.256 0 1.019-.581-1-2.452-3.031-2.81-3.46-5.506-.896-5.638.963-.05.262-.519-1.557-1.044l-3.307-.953 2.307-1.989 2.307-1.989-3.872 1.533c-2.13.842-4.305 1.532-4.833 1.532-1.861 0-.118-2.454 2.279-3.209 1.929-.607 1.769-.671-.779-.311-2.96.417-3.142.282-2.374-1.764.608-1.619 1.648-2.215 3.863-2.212 1.666.002 2.85-.288 2.629-.645s.271-.907 1.093-1.223c2.913-1.118 1.436-2.378-2.662-2.271-3.07.081-4.276.57-4.616 1.872m16.169 3.93c-.283.458-1.587.833-2.897.833-2.947 0-4.067 1.612-2.464 3.544 1.575 1.897 3.964 1.871 3.964-.044 0-1.755 1.363-1.911 4.066-.465 1.522.815 1.934.708 1.934-.5 0-.844.45-1.535 1-1.535s1-.399 1-.887c0-1.169-5.939-2.02-6.603-.946M70 96.393c0 .216.675.652 1.5.969s1.5.139 1.5-.393c0-.533-.675-.969-1.5-.969s-1.5.177-1.5.393m-8 1.21c0 .929 3.954 2.281 4.428 1.514.302-.489-.571-1.102-1.94-1.364S62 97.424 62 97.603M69.5 99c.34.55.141 1-.441 1S68 101.029 68 102.287c0 1.602.625 2.334 2.086 2.444 1.441.109 1.914-.289 1.531-1.287-.305-.794-.103-1.444.45-1.444.649 0 .626-.706-.067-2-.589-1.1-1.531-2-2.094-2s-.746.45-.406 1m94.01 2.016c.346.559 1.047.758 1.559.441 1.387-.857 1.129-1.457-.628-1.457-.857 0-1.276.457-.931 1.016M161.5 104c.34.55 1.041 1 1.559 1s.941-.45.941-1-.702-1-1.559-1-1.281.45-.941 1m-3.036 5.266-2.964 1.875 3.191-.637c1.756-.35 4.118-.141 5.25.465 1.582.846 2.057.804 2.051-.184-.004-.707-1.033-1.76-2.286-2.34-1.794-.831-2.909-.656-5.242.821M72 116c-.793.49-1.217 1.116-.942 1.391s1.149.099 1.942-.391 1.217-1.116.942-1.391-1.149-.099-1.942.391m-7 .893c0 1.25 2.823 2.203 3.462 1.168.29-.468-.183-1.124-1.05-1.456-2.096-.805-2.412-.767-2.412.288m-4 4.472c0 .716.675 1.302 1.5 1.302s1.5-.327 1.5-.727-.675-.985-1.5-1.302c-.86-.33-1.5-.02-1.5.727m5-.424c0 1.664 1.933 2.2 3.742 1.038 1.662-1.069 1.663-1.1.008-.586-.963.299-1.75.108-1.75-.424 0-.533-.45-.969-1-.969s-1 .423-1 .941m74.425 1.502c-.337 1.344-.319 2.919.04 3.5s.176 1.057-.406 1.057-1.059.52-1.059 1.155c0 .669.813.42 1.93-.592 1.121-1.014 1.896-2.967 1.848-4.655-.1-3.539-1.511-3.818-2.353-.465m22.575.588c0 .533.675.969 1.5.969s1.5-.177 1.5-.393-.675-.652-1.5-.969-1.5-.139-1.5.393M46.567 125.25c.776 2.486 2.588 4.043 3.407 2.927.289-.395 1.876-1.349 3.526-2.12l3-1.401-3-.71c-1.65-.39-4.043-.763-5.317-.828-1.962-.1-2.21.227-1.616 2.132m20.342-.967c-2.697 1.058-2.102 1.404 3.341 1.944 2.429.24 3.75-.045 3.75-.811 0-1.62-4.157-2.284-7.091-1.133m-10.339 2.604c-.909 1.47 2.337 3.606 3.585 2.358.589-.589.768-1.56.399-2.158-.81-1.31-3.223-1.432-3.984-.2M62.5 128c.34.55.816 1 1.059 1s.441-.45.441-1-.477-1-1.059-1-.781.45-.441 1m4.78.93c-.105 1.398.384 1.827 1.776 1.559 1.056-.203 2.582.292 3.39 1.1 1.293 1.293 1.671 1.161 3.147-1.091 1.897-2.895 1.358-4.123-1.3-2.963-2.063.9-2.112.901-4.83.08-1.535-.463-2.073-.139-2.183 1.315M151 129c0 .55.45 1 1 1s1-.45 1-1-.45-1-1-1-1 .45-1 1m-17.987 1.971c-1.179.745-1.037.907.68.777 1.193-.09 1.948-.52 1.679-.956-.599-.969-.537-.973-2.359.179m.987 2.862c0 .459.655.834 1.456.834s1.224-.375.941-.834-.938-.833-1.456-.833-.941.375-.941.833m12.026.699c1.117 1.345.942 1.406-1.434.503-1.489-.566-2.491-.68-2.227-.254.263.426-.425 1.887-1.53 3.247s-1.718 1.91-1.363 1.222.218-1.25-.306-1.25-1.211.675-1.528 1.5c-.35.914-.001 1.5.893 1.5.808 0 1.469.477 1.469 1.059s.45.781 1 .441 1-1.641 1-2.892c0-2.766 2.038-2.779 7-.043l3.5 1.93-3.395.327c-1.867.179-3.707-.178-4.088-.795-.486-.786-1.06-.68-1.92.356-1.003 1.208-.828 1.691.959 2.647 1.781.953 2.039.92 1.393-.18-.436-.743.107-.563 1.208.4s2.473 1.75 3.05 1.75 1.73 1.012 2.562 2.25 1.895 1.879 2.363 1.425.068-1.264-.89-1.8c-2.219-1.242-2.267-3.875-.071-3.875.919 0 2.494.745 3.5 1.655 1.262 1.142 1.829 1.264 1.829.395 0-.86 1.23-1.143 3.878-.89 2.826.269 3.747.026 3.393-.895-.267-.696-.999-1.272-1.628-1.28-.643-.009-.51-.416.305-.932 1.136-.718.868-1.061-1.243-1.591-1.516-.38-2.408-1.134-2.043-1.725.428-.692-.52-.859-2.782-.492-2.164.351-4.139.039-5.347-.844-1.053-.771-2.681-1.401-3.617-1.401s-1.961-.675-2.278-1.5-1.094-1.5-1.729-1.5c-.821 0-.787.442.117 1.532m-5.329 11.948c-1.844 1.348-1.043 2.552 2.553 3.833 2.345.836 2.215 2.405-.265 3.192-1.108.351-1.754 1.06-1.436 1.574s-.152 1.215-1.043 1.557c-.892.342-1.39 1.225-1.107 1.961s.061 1.618-.491 1.96c-.655.404-.6 1.109.157 2.021.639.77 1.609 1.124 2.155.786.61-.377.495-.922-.299-1.413-.953-.589-1.004-1.146-.192-2.125.606-.729 1.208-1.776 1.339-2.326s1.182-.867 2.335-.705c1.672.235 1.799.094.626-.696-2.226-1.498-.517-2.431 1.993-1.087 1.699.909 2.45.894 3.335-.066.878-.952.817-1.053-.262-.438q-1.41.806-.69-.353c.392-.635 1.361-1.155 2.154-1.155s1.441-.703 1.441-1.563c0-.919-.721-1.458-1.75-1.308-2.662.387-6.25-1.1-6.25-2.589 0-1.938-2.321-2.51-4.303-1.06M65 146.383c0 .211.901.619 2.001.907 1.101.288 1.75.115 1.441-.383-.538-.871-3.442-1.313-3.442-.524m96.565 2.512c-.305.493.096 1.145.89 1.449q1.444.555.887-.895c-.645-1.68-1.011-1.794-1.777-.554m-1.102 4.165c-.361.584-.149 2.284.47 3.778 1.298 3.133 4.659 5.632 5.577 4.146.332-.537-.452-1.456-1.741-2.043a4.38 4.38 0 0 1-2.554-3.618c-.206-2.484-.147-2.509 2.235-.948 1.345.882 2.694 1.202 2.997.711.303-.49-.866-1.385-2.597-1.989-3.827-1.333-3.587-1.331-4.387-.037m-106.525 2.903c-1.824 1.94-1.433 4.037.752 4.037.913 0 1.303-.575.973-1.435-.303-.79-.013-1.634.643-1.875q1.191-.441.194-1.415c-.653-.637-1.542-.399-2.562.688M67.5 157c.34.55.816 1 1.059 1s.441-.45.441-1-.477-1-1.059-1-.781.45-.441 1m-3.314 2.057c.229.689 1.429 1.626 2.666 2.084 2.735 1.012 1.986-.622-1.023-2.233-1.585-.848-1.964-.814-1.643.149m78.953 2.61c.842 1.015.869 1.725.097 2.497-1.175 1.175-.57 3.836.871 3.836.491 0 .893-.675.893-1.5s.45-1.5 1-1.5 1-1.069 1-2.375c0-1.871-.534-2.375-2.519-2.375-2.06 0-2.304.258-1.342 1.417M66 163.393c0 .216.675.652 1.5.969s1.5.139 1.5-.393c0-.533-.675-.969-1.5-.969s-1.5.177-1.5.393m97.217 3.254c-.107 1.294.25 2.353.794 2.353s.989-.637.989-1.417c0-.779.551-1.6 1.224-1.824.674-.225.316-.646-.794-.936-1.571-.411-2.061-.007-2.213 1.824m-112.404-.964c.721.289 1.584.253 1.916-.079s-.258-.568-1.312-.525c-1.165.048-1.402.285-.604.604m112.694 5.306c-.35.566.051.734.941.393 1.732-.665 2.049-1.382.611-1.382-.518 0-1.216.445-1.552.989M51.5 172c.34.55.816 1 1.059 1s.441-.45.441-1-.477-1-1.059-1-.781.45-.441 1m110.585 7.25c-.468 1.238-.596 2.678-.285 3.201.322.54.739.432.966-.25.221-.661.845-1.201 1.389-1.201.543 0 1.619-.631 2.391-1.403 1.204-1.204 1.182-1.487-.153-2-2.611-1.002-3.422-.691-4.308 1.653m-11.085.18c0 .275.9.981 2 1.57s2 .845 2 .57-.9-.981-2-1.57-2-.845-2-.57m5.834.446c1.076.682 1.031.962-.233 1.447-.969.372-1.347 1.284-.99 2.389.447 1.382.353 1.473-.41.401-.599-.84-2.016-1.19-3.595-.889-2.647.506-3.641-.64-1.356-1.562.979-.395.972-.521-.032-.583-.705-.043-1.673.933-2.15 2.171-.778 2.016-.942 2.066-1.583.479-.66-1.636-.858-1.605-2.6.403-1.318 1.52-1.885 1.737-1.885.721 0-.799.489-1.942 1.087-2.54.783-.783.74-1.302-.154-1.855-.799-.493-.988-.357-.531.383.43.697-.396 1.641-2.096 2.393-1.543.684-3.438 1.848-4.211 2.588-1.84 1.762-5.645 3.178-8.538 3.178-1.272 0-2.93.787-3.685 1.75-1.235 1.575-1.202 1.617.33.417.99-.775 2.59-1.05 3.825-.658 2.205.699 2.129 1.47-.185 1.877-2.778.489-6.362 1.915-6.898 2.744-.306.473-1.793.963-3.306 1.088-2.454.203-2.567.361-1.046 1.473.936.685 2.086 1.008 2.555.718s.853-.043.853.548c0 .735 6.324 1.036 19.993.953 10.997-.068 19.754-.51 19.461-.984-.292-.473-1.872-.592-3.511-.265-2.489.498-2.874.324-2.343-1.062.432-1.124 1.282-1.454 2.637-1.024 1.423.452 1.863.244 1.528-.72-.26-.745-1.213-1.223-2.119-1.061-.905.161-1.646-.131-1.646-.651 0-.519 1.396-.847 3.103-.729 2.081.144 3.257-.3 3.573-1.35.258-.86.932-2.417 1.496-3.459.826-1.526.731-1.782-.49-1.313-1.941.745-2.794-1.482-2.03-5.303.53-2.65.329-2.987-1.777-2.974-1.682.011-1.986.262-1.041.861m-102.38 2.657c.417 3.797 1.546 4.26 1.546.634 0-1.742-.41-3.167-.912-3.167s-.787 1.14-.634 2.533m121.49 2.008c-1.894 1.397-3.704 3.278-4.021 4.181-.956 2.72.24 6.508 2.219 7.025 1.032.27 1.858 1.378 1.858 2.492 0 1.67.251 1.797 1.5.761 1.036-.86 1.5-.898 1.5-.122 0 1.916 4.859 1.255 5.965-.812 1.079-2.016 1.443-8.066.485-8.066-.302 0-1.918.708-3.59 1.572-5.782 2.99-7.523-.904-2.745-6.136 3.742-4.098 1.883-4.623-3.171-.895M151.5 185c.34.55.816 1 1.059 1s.441-.45.441-1-.477-1-1.059-1-.781.45-.441 1m-98.485 2.191c-.008.93.435 1.969.985 2.309 1.266.782 1.266-.542 0-2.5-.835-1.293-.971-1.266-.985.191m-14.016 3.048c-1.924 1.243-4.174 2.398-4.999 2.566s-1.95.846-2.5 1.508c-1.549 1.863-5.074.851-6.534-1.876-1.168-2.182-1.836-2.413-5.892-2.033-2.515.235-5.452.466-6.524.512-2.98.128-.434 2.136 3.048 2.404 1.596.122 2.789.55 2.652.951s-.282 1.516-.32 2.479c-.06 1.496-.195 1.46-.93-.25-.607-1.412-.88-1.545-.93-.454-.042.934-.962 1.526-2.32 1.494-3.175-.075-4.999-1.479-4.483-3.451.329-1.259-.282-1.741-2.413-1.903-1.57-.12-2.854.239-2.854.798S3.325 194 2.5 194Q1 194 1 197v3h20c16.747 0 20-.234 20-1.441 0-2.054 2.07-3.063 3.046-1.485.452.732.6 1.689.329 2.128s.633.798 2.009.798c1.954 0 2.418-.433 2.12-1.979-.21-1.088.042-2.241.56-2.561.578-.357.536-1.338-.108-2.541-.576-1.078-.776-2.401-.443-2.94.333-.538-.285-.979-1.372-.979s-2.577-.23-3.31-.511-2.908.506-4.832 1.75m27.001.866c0 .685-1.512.961-3.98.726-4.394-.42-5.907 1.139-3.47 3.576 1.462 1.462.332 3.256-1.383 2.196-.459-.283-.834.14-.834.941 0 1.877 10.71 2.037 13.811.206 1.694-1 2.208-1 2.57 0 .558 1.541 7.474 1.662 8.979.157.79-.79 1.657-.79 3.134 0 1.123.601 4.034 1.093 6.469 1.093 4.134 0 4.396-.159 3.967-2.402-.297-1.555-1.306-2.564-2.861-2.861-1.321-.253-2.402-.083-2.402.377 0 .963-5.983.006-7.546-1.207-.575-.447-3.05-.626-5.5-.398-3.862.36-4.221.24-2.704-.907.963-.727 1.75-1.689 1.75-2.137s-1.077.198-2.392 1.434c-1.781 1.673-2.528 1.909-2.921.924-.35-.874-.556-.727-.608.435-.066 1.475-.386 1.567-1.979.572-1.045-.652-1.672-1.781-1.393-2.508s.234-1.322-.1-1.322-.607.497-.607 1.105m-11.378 1.72c-.443 1.279-.539 2.592-.213 2.917 1.036 1.037 1.765-.492 1.385-2.906l-.368-2.336zm103.191-1.142c.721.289 1.584.253 1.916-.079s-.258-.568-1.312-.525c-1.165.048-1.402.285-.604.604m31.672 3.365c-.794 2.501 1.06 4.952 3.744 4.952 1.334 0 1.8-.481 1.422-1.468-.31-.807-.13-1.736.4-2.064 1.246-.77-1.409-3.468-3.412-3.468-.827 0-1.797.922-2.154 2.048M160.5 196c-.34.55-.141 1 .441 1s1.059-.45 1.059-1-.198-1-.441-1-.719.45-1.059 1m-49.238 2.167c-.076 1.008.311 1.833.859 1.833s.719-.45.379-1-.141-1 .441-1 1.059-.375 1.059-.833c0-1.712-2.605-.76-2.738 1m16.278-.232c-.335.543 1.152.776 3.551.557 5.524-.506 6.274-1.492 1.135-1.492-2.26 0-4.368.421-4.686.935M99 199c-.901.582-1.025.975-.309.985.655.008 1.469-.435 1.809-.985.767-1.242.421-1.242-1.5 0m63.507-.011c-.35.566.051.734.941.393 1.732-.665 2.049-1.382.611-1.382-.518 0-1.216.445-1.552.989"/></svg>