<svg xmlns="http://www.w3.org/2000/svg" width="20" height="20" fill="#000000"><path fill="#575757" d="M0 0h20v20H0z"/><path fill="#ffffff" d="m9.822 13.246 3.424-3.424a1.212 1.212 0 0 1 1.712 1.712l-3.424 3.424a1.212 1.212 0 0 1-1.712-1.712Zm-4.78-3.068a1.212 1.212 0 0 0 1.712 0l3.424-3.425a1.212 1.212 0 0 0-.856-2.066c-.321 0-.629.128-.856.355L5.042 8.466a1.212 1.212 0 0 0 0 1.712Zm3.673 1.106a1.212 1.212 0 0 0 1.712 0l.857-.857a1.212 1.212 0 0 0-.857-2.066c-.32 0-.629.127-.856.354l-.856.856a1.212 1.212 0 0 0 0 1.713Z"/></svg>