<svg xmlns="http://www.w3.org/2000/svg" width="225" height="225" fill="#000000"><path fill-opacity=".408" fill-rule="evenodd" d="M0 112.504v112.505l112.75-.255 112.75-.254.254-112.25L226.009 0H0v112.504m.483.496c0 61.875.12 87.188.267 56.25.147-30.937.147-81.562 0-112.5C.603 25.813.483 51.125.483 113m79.773-21.355C76.025 93.731 70 100.442 70 103.069c0 3.362 1.479 5.207 7.906 9.863 4.57 3.311 6.094 5.021 6.094 6.84 0 3.044-5.381 8.228-8.541 8.228-1.281 0-3.564.469-5.073 1.043l-2.744 1.044 2.032 2.032c1.118 1.117 3.901 2.283 6.184 2.589 3.44.461 4.832.086 8.112-2.187 3.854-2.671 8.03-9.373 8.03-12.886 0-3.459-3.132-7.661-7.271-9.756-2.326-1.177-5.472-3.016-6.992-4.087l-2.763-1.947 1.942-2.726c2.078-2.919 8.603-6.934 9.618-5.918.824.824-2.164 6.486-3.763 7.13-.752.302-.815.543-.156.59 2.381.169 6.331-4.118 6.98-7.574 1.014-5.408-2.806-6.923-9.339-3.702m-48.999 9.344c-.134 4.389-.92 12.15-1.746 17.246-2.003 12.346-1.981 16.006.092 15.588.882-.178 2.375-2.348 3.318-4.823 2.109-5.535 6.756-13 8.092-13 .545 0 .987 2.812.987 6.277C42 129.042 43.799 133 46.873 133c2.393 0 6.363-7.262 5.877-10.754-.348-2.503-.594-2.264-2.782 2.704-2.188 4.967-2.462 5.233-3.085 3-.376-1.347-.728-4.617-.783-7.266-.055-2.648-.566-5.686-1.135-6.75-1.09-2.036-5.399-2.659-6.465-.934-1.492 2.414-2 .421-2-7.849 0-6.028-.437-9.372-1.372-10.498-2.73-3.287-3.622-1.826-3.871 6.336m68.493-7.208c-1.513.193-2.75.758-2.75 1.254s.592.675 1.315.398c.723-.278 2.578.665 4.121 2.095 3.597 3.334 3.256 5.699-2.85 19.722-6.489 14.901-6.096 17.75 2.445 17.75 2.922 0 6.404-.898 9.437-2.434 4.106-2.078 5.01-2.23 6.199-1.042 2.195 2.195 3.696.898 7.213-6.235 2.351-4.768 3.52-6.26 4.13-5.273.468.757 3.02 1.626 5.67 1.93l4.82.554.5 4.922c.627 6.174 2.524 6.958 4.636 1.916 1.859-4.436 1.408-13.938-1.129-23.838-1.853-7.233-6.688-12.5-11.473-12.5-2.426 0-3.126.517-3.679 2.72-.375 1.496-1.49 4.09-2.478 5.764-1.945 3.296-7.668 16.587-8.748 20.317-.504 1.741-2.307 2.875-7.398 4.654-3.702 1.293-6.731 1.957-6.731 1.475s.994-2.923 2.21-5.425c1.909-3.93 2.722-4.63 5.979-5.151 4.659-.745 7.392-2.605 6.337-4.313-.5-.808-1.993-1.065-4.155-.714l-3.374.548.636-5.407c.767-6.53-.703-10.672-4.449-12.537-3.257-1.622-3.045-1.584-6.434-1.15m52.611 11.969c-5.684 17.811-4.803 25.326 3.144 26.817 5.125.961 14.995-2.374 14.995-5.067 0-2.129-2.04-2.398-11-1.452l-4 .423.321-3.986c.176-2.192 1.189-6.959 2.25-10.593C160.96 101.995 160.417 94 156.856 94c-.41 0-2.432 5.287-4.495 11.75m27.139-8.583c-6.583 3.641-9.422 8.777-6.943 12.56 1.586 2.421 10.988 7.273 14.094 7.273 2.618 0-.314 2.796-5.901 5.627-3.893 1.972-4.813 2.915-4.563 4.672.406 2.856 4.549 3.406 8.861 1.176 4.574-2.365 11.952-9.432 11.952-11.447 0-2.562-3-4.775-7.5-5.533-5.903-.994-12.5-3.599-12.5-4.935 0-1.516 6.233-7.56 7.798-7.56 1.742 0 1.476-1.681-.38-2.393-2.086-.8-2.555-.747-4.918.56M49 100.875c0 .481 1.298 1.135 2.883 1.452a141 141 0 0 1 5.5 1.233c4.16 1.044 3.035-1.118-1.249-2.402-4.608-1.38-7.134-1.481-7.134-.283m82.302 9.314l-3.197 8.022 4.697-.699c2.584-.384 4.898-.894 5.142-1.133.582-.568-1.896-12.68-2.771-13.545-.37-.367-2.112 2.943-3.871 7.355m-76.37-2.439c-.404 4.439.424 18.046 1.185 19.468 1.78 3.326 2.883.78 2.883-6.652 0-9.157-.853-13.566-2.625-13.566-.756 0-1.406.338-1.443.75"/><path fill-opacity=".596" fill-rule="evenodd" d="M0 112.504v112.505l112.75-.255 112.75-.254.254-112.25L226.009 0H0v112.504m.483.496c0 61.875.12 87.188.267 56.25.147-30.937.147-81.562 0-112.5C.603 25.813.483 51.125.483 113m76.703-20.02c-10.494 7.602-9.79 13.598 2.607 22.197 3.485 2.418 4.171 3.387 3.647 5.15-1.209 4.07-4.936 6.862-9.907 7.422-5.602.632-6.918 2.682-3.439 5.357 3.447 2.65 10.416 2.48 14.609-.356 3.681-2.49 7.297-8.941 7.297-13.019 0-4.859-2.194-7.8-8.01-10.736-8.438-4.259-8.931-5.254-4.702-9.483 4.285-4.285 7.27-4.831 5.53-1.012-.626 1.375-1.517 2.5-1.979 2.5-.461 0-.839.716-.839 1.592 0 1.395.403 1.358 3.25-.299 3.691-2.148 6.113-7.693 4.605-10.543-1.528-2.889-7.827-2.277-12.669 1.23m-46.279-.303c-.051.453-.017 2.726.075 5.052.091 2.326-.57 9.322-1.471 15.547-2.874 19.87-.666 27.893 4.191 15.224 1.264-3.3 3.408-7.35 4.763-9l2.463-3 .036 4.782c.037 4.932 1.989 10.953 3.943 12.16 3.125 1.932 7.318-2.786 8.613-9.692 1.031-5.499-1.739-4.965-4.243.818l-1.977 4.569-.679-7.319c-.825-8.879-2.957-11.897-7.079-10.019L37 112.957l-.015-7.728c-.015-8.186-1.424-12.497-4.26-13.043-.949-.183-1.767.038-1.818.491m98.343-.015c-.687.278-1.25 1.275-1.25 2.217 0 2.489-8.813 19.232-9.521 18.087-.328-.531-2.334-.966-4.457-.966h-3.861l.985-3.565c1.264-4.58.328-8.719-2.82-12.459-2.081-2.473-3.249-2.976-6.915-2.976-5.311 0-5.83 1.821-1.139 4 4.511 2.096 4.669 5.857.656 15.687-6.823 16.713-6.948 17.13-5.938 19.786.876 2.304 1.47 2.525 6.735 2.505 3.551-.013 7.432-.774 10.079-1.975 3.373-1.531 4.695-1.708 6.117-.82 2.902 1.812 4.534.432 7.086-5.995 2.266-5.703 2.499-5.947 4.415-4.605 1.113.779 3.707 1.417 5.766 1.417 3.737 0 3.744.009 4.406 5 .514 3.871 1.064 5 2.437 5 5.676 0 4.865-26.72-1.064-35.047-3.188-4.477-8.165-6.724-11.717-5.291m27.196 1.124c-1.95 1.321-8.446 23.728-8.446 29.135 0 4.217.473 5.643 2.567 7.737 2.32 2.32 3.16 2.527 8.75 2.153 7.46-.499 12.183-2.563 12.183-5.324 0-1.832-.605-1.968-7.75-1.75-7.564.232-7.75.181-7.75-2.144 0-1.31.96-5.467 2.133-9.238 2.601-8.358 3.007-17.633.867-19.779-.825-.827-1.974-1.182-2.554-.79m20.521 4.59c-9.539 6.482-6.994 14.345 5.783 17.867 2.338.645 4.25 1.46 4.25 1.813 0 .352-2.588 1.995-5.75 3.65-5.883 3.079-7.341 5.274-5.21 7.842 1.811 2.182 4.911 1.751 10.46-1.457 7.137-4.126 10.732-8.196 10.327-11.695-.385-3.333-2.854-4.77-10.943-6.369-3.089-.611-6.457-1.726-7.486-2.478-1.773-1.296-1.671-1.555 1.937-4.958 2.094-1.975 4.505-3.591 5.359-3.591 1.265 0 1.322-.276.306-1.5-1.794-2.162-5.022-1.849-9.033.876M49 100.461c0 1.544 9.539 4.942 11.123 3.963 1.958-1.21.611-2.426-4.305-3.885-6.382-1.896-6.818-1.901-6.818-.078m85.082 3.76c-.045.947-1.213 4.279-2.595 7.404-1.382 3.125-2.395 5.791-2.25 5.923.145.133 2.061-.056 4.258-.42 3.957-.654 3.992-.698 3.652-4.641-.371-4.306-2.927-11.197-3.065-8.266M54.438 107.1c-.692 1.121.251 17.96 1.185 21.15.89 3.04 3.25 1.944 3.96-1.839 1.919-10.23-1.9-24.562-5.145-19.311M115 116.563c-1.925.728-4.276 1.35-5.224 1.381-1.675.054-3.809 3.243-5.209 7.783-.682 2.21-.655 2.215 3.499.75 2.302-.812 4.943-1.477 5.869-1.477 1.14 0 2.199-1.613 3.282-5 .88-2.75 1.528-4.946 1.441-4.881-.087.066-1.733.716-3.658 1.444"/><path fill-opacity=".131" fill-rule="evenodd" d="M0 112.504v112.505l112.75-.255 112.75-.254.254-112.25L226.009 0H0v112.504m.483.496c0 61.875.12 87.188.267 56.25.147-30.937.147-81.562 0-112.5C.603 25.813.483 51.125.483 113M102 17.514c0 .832.563 2.421 1.25 3.53.813 1.312.901 2.268.25 2.737-1.078.775-7.501 13.202-7.5 14.511 0 .435-.813 1.664-1.806 2.73-.994 1.067-3.326 4.873-5.184 8.459C87.152 53.066 85.337 56 84.976 56c-.361 0-1.25 1.8-1.976 4s-1.698 4-2.16 4c-.462 0-.84.603-.84 1.34 0 1.733-6.106 14.056-7.18 14.493-.451.184-.82.977-.82 1.764s-.443 2.212-.984 3.167c-1.484 2.618-7.046 15.255-7.297 16.578-.12.637-.613 1.445-1.095 1.795-1.35.981-1.328 8.401.023 8.147.71-.133.932.609.582 1.947-.542 2.073-.596 2.082-1.327.215-.457-1.167-.858 1.654-1.002 7.054l-.241 9-.581-10.5c-.628-11.336-1.158-13-4.137-13-1.736 0-1.941.737-1.941 6.969 0 5.441-.296 6.855-1.351 6.45-.881-.338-2.088 1.152-3.467 4.281l-2.117 4.8-.032-5.282C46.988 116.03 44.814 111 41.751 111c-1.293 0-2.937.563-3.654 1.25-1.066 1.022-1.18.492-.626-2.917 1.316-8.104-1.308-16.688-5.362-17.541-1.071-.225-1.461 1.436-1.692 7.208-.165 4.125-.761 11.1-1.325 15.5-2.388 18.646-2.307 20.5.894 20.5 1.052 0 2.226-1.217 2.893-3l2.214-5.932c.601-1.613 2.176-4.4 3.5-6.194L41 116.611v6.06C41 129.303 43.488 134 47 134c2.007 0 6-4.416 6-6.635 0-.751.45-1.365 1-1.365 1.59 0 1.183 1.363-1.488 4.984-1.369 1.855-2.207 3.63-1.863 3.944.343.315.815.042 1.047-.605.307-.855 1.212-.903 3.302-.174 1.874.653 2.689 1.502 2.334 2.428-.3.782-.16 1.411.311 1.397 1.311-.039 4.347-7.261 4.436-10.552.043-1.607.329-2.289.635-1.516.33.832 1.953-1.57 3.976-5.885 1.881-4.01 3.193-7.883 2.916-8.605-.341-.89.044-1.114 1.195-.696 1.565.57 1.561.461-.051-1.379-.963-1.099-1.75-2.361-1.75-2.805 0-.443 1.012.484 2.25 2.06 1.237 1.576 2.131 3.23 1.986 3.675-.144.446.29 1.804.965 3.02.675 1.215 1.3 2.547 1.389 2.959.088.412.27 1.088.403 1.5.134.412.208 1.034.165 1.381-.043.347.863 1.472 2.015 2.5 2.068 1.847 2.084 1.841 1.345-.532-.603-1.935-.445-2.285.816-1.801 1.084.416 1.393.155 1.008-.849-.306-.797-.058-1.449.551-1.449 1.839 0 1.248 2.555-1.202 5.2-1.63 1.758-3.838 2.694-7.5 3.18-4.237.562-5.191 1.046-5.191 2.631 0 2.59 4.434 5.373 8.348 5.24 6.873-.234 9.544-.616 9.119-1.304-.245-.396.258-1.304 1.117-2.017 2.553-2.119 5.616-8.996 5.616-12.609 0-4.845-2.334-7.742-9.176-11.389-3.313-1.766-6.01-3.71-5.992-4.321.047-1.644 2.106-4.026 5.249-6.072 3.771-2.454 4.346-1.437 1.26 2.23-2.814 3.344-3.104 4.231-1.385 4.231 2.574 0 7.593-4.994 8.238-8.198.522-2.588.872-2.978 1.621-1.802.601.945.96 1.049.97.281.009-.726.69-.959 1.689-.576 1.252.481 1.517.234 1.051-.98-.442-1.152-.195-1.459.851-1.057 1.11.426 1.2.897.363 1.905-1.332 1.606-.391 3.538 1.391 2.854.696-.267 2.317.633 3.602 2 3.177 3.383 2.303 7.175-3.434 14.895-4.056 5.458-6.073 10.769-3.482 9.168.559-.346.758-1.047.441-1.559-.316-.512-.133-.931.406-.931.54 0 1.5-1.569 2.132-3.486.633-1.917 1.532-3.722 1.999-4.01.466-.288-.683 3.193-2.555 7.736-4.084 9.915-4.237 12.191-.966 14.334 2.981 1.953 10.52 1.234 15.919-1.519 3.092-1.577 3.63-1.604 4.977-.257 1.348 1.347 1.788 1.329 4.071-.167 1.408-.922 2.56-2.117 2.56-2.654 0-.537.73-.977 1.622-.977 1.169 0 1.341-.35.616-1.25-.628-.779-.671-2.14-.113-3.614.692-1.828 1.402-2.228 3.135-1.764 1.232.331 2.578.607 2.99.614.412.008.75.491.75 1.073s-.45.781-1 .441-1-.194-1 .324c0 .519-.871 1.17-1.935 1.449-1.42.371-1.784 1.086-1.366 2.682.313 1.197.12 3.159-.429 4.361-1.535 3.362-4.28 12.028-4.275 13.493.003.72.455 1.031 1.005.691.55-.34 1-1.626 1-2.859s.406-2.668.903-3.191c.497-.522 1.059-1.682 1.25-2.577.27-1.267.869-1.431 2.707-.741 2.091.784 2.281 1.303 1.669 4.566-.616 3.28-.519 3.538.89 2.369.87-.721 1.595-2.044 1.613-2.939.017-.896.694-2.504 1.504-3.576.811-1.071 1.198-2.815.862-3.875-.403-1.268-.233-1.693.495-1.243.609.376 1.107.245 1.107-.292 0-.536-.562-1.202-1.25-1.48-.913-.368-.875-.525.14-.583.764-.043 1.975.708 2.691 1.671 1.86 2.501 4.672.53 5.845-4.098.934-3.679 2.574-5.002 2.574-2.075 0 .867 1.374 2.951 3.054 4.631 2.875 2.875 3.375 3.017 8.48 2.417 7.716-.907 12.466-3.366 12.466-6.453 0-2.454-.013-2.457-8.108-1.902l-8.107.556.622-3.109c.341-1.709 1.085-4.832 1.653-6.938 1.198-4.45 2.313-3.889 5.782 2.91 2.103 4.124 4.61 6.006 5.685 4.267.325-.526.285-1.451-.089-2.056-.481-.779-.134-.808 1.191-.1 1.029.549 3.437.816 5.352.592l3.481-.407-3.231 2.951c-1.777 1.623-3.231 3.562-3.231 4.308s-.54 1.896-1.2 2.556c-.933.933-.913 1.2.094 1.2.711 0 1.539-.938 1.838-2.085.385-1.47.773-1.717 1.316-.837.432.699.151 1.865-.639 2.656-1.824 1.824-1.798 3.266.06 3.266.836 0 1.241-.593.94-1.377-.366-.954.597-1.589 3.133-2.065 2.014-.378 3.916-.433 4.227-.122.31.31-.186.564-1.102.564-1.7 0-2.194 1.139-1.009 2.325.362.362 1.335.099 2.163-.584 1.224-1.01 1.416-.973 1.029.197-.713 2.157-2.418 2.351-4.282.488-.915-.915-1.979-1.349-2.364-.963-.385.385.166 1.334 1.225 2.108 1.059.775 1.587 1.747 1.173 2.16-.414.414-1.196-.041-1.738-1.01-2.027-3.621-2.71-.488-.725 3.321 2.766 5.306 4.097 5.972 3.689 1.845-.249-2.531.091-3.412 1.422-3.681 2.054-.414 2.429 2.715.55 4.594-.933.933-.489 1.2 2 1.2 3.059 0 3.2-.174 3.2-3.941 0-2.168.484-4.24 1.075-4.606.688-.424.322-1.366-1.013-2.61-1.148-1.07-2.532-1.671-3.075-1.335-.543.336-.975.246-.959-.199.015-.445 1.621-1.934 3.568-3.309 8.647-6.104 9.404-6.994 9.404-11.054 0-4.257-1.102-5.259-7-6.366-7.438-1.396-12-2.884-12-3.912 0-1.971 6.186-7.534 7.722-6.944 1.046.401 1.375.011 1.121-1.328-.822-4.333-10.101-2.059-14.561 3.567-2.103 2.653-1.523 7.887 1.173 10.582 1.35 1.35 2.103 2.455 1.674 2.455-1.32 0-5.129-4.541-5.129-6.114 0-.818-.562-2.092-1.25-2.833-1-1.077-1-1.205 0-.641.776.438 1.25.092 1.25-.912 0-.89-.445-1.343-.989-1.007-.577.357-.727-.069-.36-1.025.502-1.309.796-1.369 1.473-.302.465.734.852.949.861.478.026-1.479-4.729-6.567-5.457-5.839-.382.382-.604.245-.493-.305.473-2.343.121-2.939-6.015-10.208-.561-.664-1.02-1.677-1.02-2.25S157.55 83 157 83s-1-.638-1-1.417-.383-1.566-.852-1.75c-.468-.183-4.598-5.958-9.177-12.833-4.58-6.875-8.618-12.725-8.974-13-.356-.275-2.489-3.233-4.739-6.573-2.251-3.341-7.631-9.641-11.955-14-4.325-4.36-9.334-10.064-11.131-12.677-3.221-4.681-7.172-6.464-7.172-3.236m3.215 12.736c-.618 1.238-2.802 7.425-4.853 13.75-2.052 6.325-4.083 11.645-4.514 11.823-.432.177-1.089 1.977-1.461 4-.371 2.022-.948 3.902-1.281 4.177-.333.275-1.668 2.75-2.966 5.5-1.298 2.75-3.21 6.73-4.25 8.845-1.039 2.114-1.89 4.314-1.89 4.889 0 .575-.787 1.689-1.75 2.475-1.532 1.252-.348 1.361 9.525.882 6.201-.301 12.216-1.051 13.368-1.668 1.389-.743 7.779-1.003 18.976-.772 9.285.192 16.882.033 16.881-.353 0-.386-1.975-3.536-4.39-7-5.056-7.253-12.859-20.196-16.457-27.298-.836-1.65-3.355-5.925-5.598-9.5-2.244-3.575-4.712-7.737-5.486-9.25-1.707-3.337-2.394-3.426-3.854-.5M81.5 89.535c-2.501 1.205-2.584 1.343-.5.834 2.834-.692 6.018-2.316 4.5-2.293-.55.008-2.35.664-4 1.459M87 88.43c0 .275.9.981 2 1.57 1.1.589 2 .845 2 .57s-.9-.981-2-1.57c-1.1-.589-2-.845-2-.57m21.733.694c.679.684 1.486.991 1.793.683.308-.308-.247-.867-1.233-1.243-1.425-.542-1.54-.428-.56.56m-35.719 2.29c.648.648 1.324.648 1.972 0 .647-.647.309-.985-.986-.985s-1.633.338-.986.985M136 90.983c-3.575.37-5.458.749-4.184.844 3.395.253 6.329 1.97 9.443 5.524 1.517 1.732 2.495 2.396 2.172 1.476-.38-1.084.167-2.077 1.552-2.818 2.737-1.465 2.392-5.468-.483-5.603-1.1-.052-4.925.208-8.5.577m-32.094 1.323c4.466 1.565 7.194 5.398 7.824 10.995.378 3.347 1.006 4.658 2.408 5.025 2.221.581 5.194-1.98 4.188-3.607-.5-.809-.803-.787-1.092.08-.718 2.152-2.06 1.268-2.734-1.799-.362-1.65-.971-3-1.352-3-.381 0-1.513-1.522-2.515-3.382-1.831-3.4-5.266-5.666-8.43-5.562-.937.031-.17.594 1.703 1.25m17.662-.094c-3.813.451-7.139 1.026-7.393 1.279-.253.254.167 1.207.932 2.119.766.912 2.577 4.159 4.025 7.215l2.632 5.558 2.216-4.344c2.27-4.45 5.248-12.234 4.781-12.498-.144-.081-3.38.221-7.193.671M158 91.941c0 .518.445 1.216.989 1.552.566.35.734-.051.393-.941-.665-1.732-1.382-2.049-1.382-.611m-87.696 5.728c-1.54 2.018-2.648 4.556-2.465 5.64.244 1.438-.086 1.81-1.22 1.375-1.775-.681-3.061.792-2.079 2.381.868 1.405 4.46-1.807 4.46-3.988 0-.887 1.141-3.292 2.536-5.345 3.261-4.799 2.413-4.843-1.232-.063m83.32-2.13c-.343.893-.595 2.15-.561 2.793.035.642.495.09 1.022-1.227.527-1.318.779-2.574.56-2.793-.219-.219-.679.333-1.021 1.227m-4.015 4.882c-.334 1.331-.306 3.205.062 4.164.49 1.277.317 1.526-.647.93-1.009-.624-1.165-.213-.669 1.764.423 1.684.127 3.096-.854 4.077-1.515 1.515-2.043 5.769-.862 6.95 1.053 1.052 6.472-15.609 5.874-18.056-.723-2.951-2.141-2.867-2.904.171M161 102.059c0 2.232.363 3.835.806 3.561.775-.479.385-7.62-.415-7.62-.215 0-.391 1.827-.391 4.059m-112.541-1.992c-.948 1.533-.052 2.13 6.03 4.012 5.738 1.775 6.511 1.637 6.511-1.163 0-1.293-1.319-2.033-5.049-2.833-6.243-1.339-6.674-1.34-7.492-.016m95.906 5.907c.561 2.736 1.192 4.803 1.402 4.592.646-.645-.947-9.566-1.707-9.566-.393 0-.255 2.238.305 4.974m-10.335-.674c-.016.989-.648 3.014-1.403 4.5-.756 1.485-1.686 3.713-2.068 4.95-.595 1.929-.328 2.25 1.874 2.25 1.412 0 2.59-.338 2.618-.75.028-.412.291-2.633.586-4.936.294-2.302.06-5.002-.521-6-1.011-1.738-1.056-1.738-1.086-.014m-67.83 3.9c-1.556 1.556-1.524 2.467.086 2.467.707 0 1.285-.825 1.285-1.834 0-2.174.116-2.12-1.371-.633m44.8 1.359c0 .857.45 1.281 1 .941.55-.34 1-1.041 1-1.559s-.45-.941-1-.941-1 .702-1 1.559m6-.181c0 .207.685.946 1.523 1.641 1.273 1.057 1.42.995.893-.378-.538-1.401-2.416-2.384-2.416-1.263m45.015.813c-.008.93.435 1.969.985 2.309 1.266.782 1.266-.542 0-2.5-.835-1.293-.971-1.266-.985.191m4.985-.313c0 .617.477 1.122 1.059 1.122s.781.45.441 1-.141 1 .441 1c1.529 0 1.301-1.554-.441-3-1.036-.86-1.5-.898-1.5-.122m-90.848 3.667c.908.928 2.197 1.505 2.863 1.283.667-.222-.077-.981-1.652-1.687-2.68-1.201-2.757-1.175-1.211.404m99.406 2.362c-.309.498.287.685 1.324.414 1.191-.312 2.44.301 3.397 1.667 1.328 1.896 1.769 1.999 3.617.845 2.867-1.791 2.65-2.474-1.021-3.208-4.348-.87-6.661-.781-7.317.282m-64.681.797c-1.909.294-3.107 1.481-4.406 4.36-.981 2.176-1.577 4.164-1.323 4.417.253.253 2.769-.278 5.59-1.18 3.868-1.237 5.277-2.225 5.727-4.017.328-1.307.331-2.805.007-3.33-.596-.964-.879-.977-5.595-.25m3.123 1.355c0 .582-.526.734-1.17.336-.774-.479-.965-.188-.563.858.357.932-.017 1.821-.912 2.164-2.202.845-2.279.785-1.85-1.444.215-1.114-.029-1.767-.542-1.45-.513.317-.845 1.632-.738 2.922.171 2.073.486 2.235 2.702 1.393 1.379-.525 3.085-1.433 3.79-2.018 1.52-1.262 1.71-3.82.283-3.82-.55 0-1 .477-1 1.059m55.813-.376c.721.289 1.584.253 1.916-.079.332-.332-.258-.568-1.312-.525-1.165.048-1.402.285-.604.604m1.202 4.098c-.022 1.873 3.044 2.742 4.032 1.144 1.153-1.867.083-2.738-1.101-.896-.83 1.291-1.066 1.288-1.931-.029-.69-1.051-.989-1.117-1-.219M135.5 124c-.34.55-.141 1 .441 1s1.059-.45 1.059-1-.198-1-.441-1-.719.45-1.059 1m1.711 1.538c-.71.804-.855 1.462-.324 1.462.532 0 1.172.787 1.424 1.75.251.963.509.287.573-1.5.131-3.679.095-3.717-1.673-1.712m-45.602 1.206c.163.272-.384 1.174-1.214 2.004-.831.83-1.259 2.127-.953 2.881.307.754.817 2.158 1.134 3.121.548 1.667.521 1.667-.55 0-.619-.963-1.608-1.75-2.198-1.75-.76 0-.762.374-.008 1.284.739.889.747 1.733.028 2.75-.853 1.206-.937 1.156-.474-.284.31-.963.154-1.75-.346-1.75-1.876 0-1.981 1.928-.282 5.161.965 1.837 1.834 3.494 1.932 3.684.39.754 6.47.725 6.939-.034.275-.446 1.712-.818 3.192-.826 1.857-.011 2.277-.278 1.356-.862-.735-.466-1.327-1.246-1.316-1.735.011-.488-.626-.756-1.415-.594-.789.161-1.434-.176-1.434-.75 0-.574.563-1.058 1.25-1.076.732-.018.484-.612-.597-1.431-1.016-.77-2.479-1.157-3.25-.861-.772.296-1.403.013-1.403-.628s.526-.841 1.17-.443c.798.493.957.168.5-1.023-.369-.96-.702-2.271-.74-2.914-.039-.642-.457-.268-.93.832-.609 1.418-.88 1.549-.93.45-.038-.853.47-2.09 1.13-2.75.825-.825.874-1.474.156-2.075-.574-.481-.91-.653-.747-.381M130 127c-1.828 1.181-.249 1.181 2.5 0 1.319-.567 1.489-.878.5-.914-.825-.031-2.175.381-3 .914m-74.686 2.665c.384.64.133 1.393-.558 1.673-.95.386-.891.768.244 1.571.825.583 1.95 1.032 2.5.997.55-.035.438-.291-.25-.568-.687-.278-1.25-.903-1.25-1.39 0-.487.629-.644 1.399-.348.769.295 1.739-.014 2.154-.686.493-.798.34-.966-.442-.482-.659.407-1.94.139-2.847-.596-.948-.769-1.352-.842-.95-.171m130.499 5.018c.721.289 1.584.253 1.916-.079.332-.332-.258-.568-1.312-.525-1.165.048-1.402.285-.604.604M47 136.149c0 2.697 1.53 3.851 5.107 3.851 3.371 0 3.893-.302 3.893-2.25 0-1.997-.506-2.252-4.5-2.269-2.475-.011-4.5.29-4.5.668m82-.412c1.375.256 2.821.982 3.214 1.614.504.812 1.227.636 2.464-.601 1.667-1.667 1.514-1.744-3.214-1.614-2.787.077-3.867.34-2.464.601m-82.932 4.701c-.085 1.18 4.203 7.546 5.088 7.555.361.004.421-.893.134-1.993-.288-1.1-1.077-2-1.754-2s-1.719-1.012-2.316-2.25c-.596-1.238-1.115-1.828-1.152-1.312m80.602 2.979c-.299.78.066 1.651.81 1.937 1.399.537 2.844-1.696 1.784-2.756-.997-.998-2.02-.675-2.594.819m-82.67.961c0 .208-.681 2.008-1.513 4-.833 1.992-1.17 3.617-.75 3.612.419-.006 1.517-1.806 2.439-4 .921-2.195 1.259-3.99.75-3.99-.509 0-.926.17-.926.378M192 145c0 .55.675 1 1.5 1s1.5-.45 1.5-1-.675-1-1.5-1-1.5.45-1.5 1m-144.921 2.583c.048 1.165.285 1.402.604.605.289-.722.253-1.585-.079-1.917-.332-.332-.568.258-.525 1.312M91 146.941c0 .518.45 1.219 1 1.559.55.34 1-.084 1-.941S92.55 146 92 146s-1 .423-1 .941m4.079.642c.048 1.165.285 1.402.604.605.289-.722.253-1.585-.079-1.917-.332-.332-.568.258-.525 1.312M181 146.378c0 .207.685.946 1.523 1.641 1.273 1.057 1.42.995.893-.378-.538-1.401-2.416-2.384-2.416-1.263m15.047 2.122c-.024 1.486 1.761 4.026 2.388 3.398.3-.299-.112-1.411-.914-2.471-.801-1.06-1.465-1.477-1.474-.927m-76.316 2.42c-.435 1.663-.305 2.054.437 1.312.582-.582.86-1.647.62-2.369-.25-.749-.703-.295-1.057 1.057M45 151c0 .55.477 1 1.059 1s.781-.45.441-1-.816-1-1.059-1-.441.45-.441 1m80 0c0 .55.477 1 1.059 1s.781-.45.441-1-.816-1-1.059-1-.441.45-.441 1m68 0c0 .55.477 1 1.059 1s.781-.45.441-1-.816-1-1.059-1-.441.45-.441 1m-87.447.915a1.116 1.116 0 0 0 .362 1.532c.521.322 1.21.159 1.532-.362a1.116 1.116 0 0 0-.362-1.532 1.116 1.116 0 0 0-1.532.362m-6.947 1.669c-.373.973-.15 1.431.581 1.187 1.495-.498 2.318-2.771 1.003-2.771-.537 0-1.249.713-1.584 1.584m89.477-1.301c.23.156 1.204.886 2.167 1.622 1.498 1.147 1.75 1.106 1.75-.283 0-.997-.835-1.622-2.167-1.622-1.191 0-1.979.127-1.75.283m-71.354 3.321c-.401.401-.729 1.419-.729 2.263 0 1.125.296 1.237 1.112.421.612-.612.94-1.631.73-2.263-.211-.632-.712-.822-1.113-.421M100 156.833c0 1.434 1.136 2.052 2.682 1.459 1.211-.465 1.239-.727.152-1.416-1.71-1.084-2.834-1.101-2.834-.043m32.5.167c-.34.55.309 1 1.441 1 1.132 0 2.059-.45 2.059-1s-.648-1-1.441-1-1.719.45-2.059 1m28.313 1.683c.721.289 1.584.253 1.916-.079.332-.332-.258-.568-1.312-.525-1.165.048-1.402.285-.604.604m-8.063.979c.688.278 1.813.278 2.5 0 .688-.277.125-.504-1.25-.504s-1.937.227-1.25.504m50.262 1.361c1.241 2.318 1.988 2.537 1.988.584 0-.766-.685-1.656-1.523-1.978-1.243-.476-1.328-.22-.465 1.394M80.75 162.662c.688.278 1.813.278 2.5 0 .688-.277.125-.504-1.25-.504s-1.937.227-1.25.504m13.063 6.021c.721.289 1.584.253 1.916-.079.332-.332-.258-.568-1.312-.525-1.165.048-1.402.285-.604.604M124 173c0 .55.477 1 1.059 1s.781-.45.441-1-.816-1-1.059-1-.441.45-.441 1"/><path fill-opacity=".453" fill-rule="evenodd" d="M136 82c0 .55.477 1 1.059 1s.781-.45.441-1-.816-1-1.059-1-.441.45-.441 1M29.813 88.683c.721.289 1.584.253 1.916-.079.332-.332-.258-.568-1.312-.525-1.165.048-1.402.285-.604.604m8.646.384c-.363.586-.445 1.281-.183 1.543s.743-.218 1.069-1.067c.676-1.762.1-2.072-.886-.476m-5.018 2.378c2.31 1.851 3.559 1.987 3.559.388 0-.641-.284-.882-.631-.535-.348.347-1.585.173-2.75-.388-2.06-.992-2.065-.977-.178.535m133.123.262c-.542 1.425-.428 1.54.56.56.684-.679.991-1.486.683-1.793-.308-.308-.867.247-1.243 1.233m-28.715.113c-1.428.589-1.327.922.75 2.477 1.321.988 2.401 1.363 2.401.833s-.562-1.164-1.25-1.41c-.687-.245-.923-.797-.524-1.226.399-.428 1.412-.21 2.25.486.868.72 1.524.828 1.524.249 0-.802-2.579-2.473-3.332-2.159l-1.819.75M176 93c0 .55.477 1 1.059 1s.781-.45.441-1-.816-1-1.059-1-.441.45-.441 1m6.5 0c-.34.55-.141 1 .441 1S184 93.55 184 93s-.198-1-.441-1-.719.45-1.059 1m-157.437.668c-.034.643-.33 1.993-.657 3-.495 1.524-.413 1.58.484.332.893-1.241 1.082-1.255 1.095-.083.008.779.25 1.182.536.895.287-.287.091-1.599-.436-2.917-.527-1.317-.987-1.869-1.022-1.227m3.64 1.734c.988 1.321 1.946 2.26 2.128 2.086.624-.597-1.901-4.488-2.913-4.488-.556 0-.203 1.081.785 2.402m61.367 1.337c-1.329 4.938-6.776 8.532-9.349 6.17-1.377-1.265-1.369-1.613.083-3.409.889-1.1.321-.788-1.264.693-2.487 2.325-2.696 2.914-1.533 4.316 1.703 2.052 6.992 4.825 7.753 4.065.315-.316.022-.574-.652-.574s-.905-.52-.513-1.155c.426-.689.276-.884-.371-.483-.597.369-1.339.26-1.649-.241-.31-.502 1.234-1.083 3.431-1.293 3.256-.31 3.994-.064 3.994 1.337 0 .944.45 1.995 1 2.335.55.34 1 1.131 1 1.759 0 .822-.336.805-1.2-.059-.66-.66-1.871-1.2-2.691-1.2-1.237 0-1.21.213.159 1.25.908.688 2.488 3.248 3.511 5.69 1.347 3.213 2.034 3.99 2.485 2.813.356-.926-.241-2.725-1.388-4.184-1.421-1.806-1.574-2.39-.522-1.987.82.315 1.783 1.325 2.14 2.245.587 1.514.785 1.488 2.077-.268.786-1.068 1.429-3.035 1.429-4.373 0-1.988-.259-2.216-1.422-1.251-1.097.911-1.895.884-3.5-.118-2.226-1.39-2.705-3.311-1.078-4.317.55-.34 1 .035 1 .834 0 .799.739 1.735 1.641 2.082 1.411.541 1.453.403.298-.989-1.181-1.424-1.053-1.577 1.068-1.273 1.593.229 2.618 1.194 3.021 2.846.556 2.283.673 2.174 1.336-1.25.4-2.062 1.142-3.75 1.65-3.75s.698.787.424 1.75c-.275.963.05.699.722-.585.872-1.666.921-2.813.172-4-1.238-1.962-3.49-2.191-4.082-.415-.229.688.097 1.25.726 1.25.628 0 .864-.45.524-1-.34-.55-.168-1 .382-1 1.207 0 2.524 1.928 1.806 2.645-1.315 1.315-5.814.959-6.683-.53-.519-.888-.958-1.143-.975-.565-.016.577.453 1.533 1.044 2.124.766.766-.55 1.057-4.581 1.015-5.344-.055-5.542-.144-3.6-1.624 2.109-1.607 4.772-7.734 3.788-8.717-.302-.302-1.027 1.224-1.611 3.391m29.042-2.83c-1.127.714-.963 1.321.874 3.235 2.153 2.244 2.207 2.252 1.137.172-1.603-3.117-1.564-3.161 3.127-3.584l4.25-.383-4-.159c-2.2-.088-4.624.236-5.388.719M36.82 97c.374 1.925.658 6.351.631 9.836-.036 4.656.229 5.956 1 4.903 2.047-2.794 7.549.129 7.549 4.011 0 .752.337 1.158.75.902.413-.257.649 2.304.526 5.691-.124 3.386.054 5.482.393 4.657 2.263-5.494 2.637-6.58 2.492-7.25-.088-.412.289-.75.839-.75s1-.498 1-1.107c0-.62-.77-.839-1.75-.498-1.566.546-1.583.478-.162-.643.873-.688 1.398-1.814 1.166-2.502-.231-.687.038-1.25.599-1.25.561 0 1.202 1.463 1.424 3.25.221 1.787.475.213.563-3.5.142-5.971.385-6.75 2.11-6.75 1.073 0 2.44.787 3.037 1.75 1 1.61 1.063 1.593.794-.208-.202-1.353-1.642-2.348-4.663-3.223-3.954-1.145-4.61-1.077-6.879.708-1.38 1.085-1.949 1.973-1.265 1.973.839 0 1.031.844.591 2.598-.473 1.885-.297 2.479.641 2.164.712-.239 1.294-1.929 1.294-3.755 0-2.061.569-3.513 1.5-3.827 1.268-.427 1.295-.257.171 1.105-.98 1.188-1.049 2.083-.263 3.413.947 1.6 1.04 1.534.829-.588-.13-1.314.267-2.569.882-2.789 1.605-.574.43 4.978-1.265 5.979-.745.44-1.354 1.452-1.354 2.25 0 .797-.477 1.45-1.059 1.45s-.781-.45-.441-1 .254-1.016-.191-1.036c-.445-.02-2.159-1.165-3.809-2.544-2.972-2.485-2.976-2.505-.5-2.11 1.375.219 1.986.215 1.357-.008-1.619-.577-.479-4.108 1.496-4.632.906-.241-.378-.474-2.853-.519-4.126-.073-4.312.024-2.24 1.175 1.767.981 1.996 1.518 1.05 2.464-.666.666-1.857 1.21-2.649 1.21-1.15 0-1.341-1.254-.953-6.25.267-3.437.278-5.368.025-4.289-.398 1.693-.64 1.558-1.777-1L36.139 93.5l.681 3.5M64 94.941c0 .518.445 1.216.989 1.552.566.35.734-.051.393-.941C64.717 93.82 64 93.503 64 94.941m29.405.214c-.443.715-.275.883.44.44 1.646-1.017 1.429.274-.345 2.048-.825.825-1.49 2.03-1.478 2.678.012.649.853.099 1.867-1.22 1.37-1.783 1.972-2.04 2.341-1 .289.814.867 1.028 1.383.512s.364-1.074-.363-1.333c-.687-.246-1.25-1.084-1.25-1.863 0-1.707-1.603-1.869-2.595-.262m84.621.314c-.713.859-2.426 1.329-4.123 1.131-3.349-.39-3.934.897-.783 1.721 2.235.585 9.284-2.584 8.187-3.681-1.004-1.004-1.961-.762-3.281.829M52 97c0 .55-.648 1-1.441 1s-1.693.408-2.001.907c-.821 1.328 3.712-.039 5.263-1.588 1.095-1.093 1.053-1.319-.25-1.319-.864 0-1.571.45-1.571 1m5.595-.153c-.321.519.153 1.226 1.054 1.572 2.21.848 2.727.138.964-1.325-.855-.71-1.67-.81-2.018-.247m65.888 1.768c.925 1.411 1.118 2.514.506 2.892-.544.336-.989.059-.989-.615 0-.674-.236-.99-.524-.702-.287.288-.224 1.304.142 2.257.562 1.464.973 1.247 2.648-1.399 1.091-1.722 1.702-3.413 1.359-3.757-.344-.343-.625-.099-.625.542 0 .642-.498 1.167-1.107 1.167s-.877-.6-.595-1.333c.281-.734-.123-1.334-.899-1.334-1.189 0-1.176.358.084 2.282m63.685-.913c.782.943.572 1.426-.805 1.858-3.293 1.033-4.72 2.038-6.746 4.751-2.214 2.965-2.15 3.155 1.383 4.13 1.908.527 2.145.441 1-.36-.825-.578-1.05-1.064-.5-1.081.55-.017.338-.449-.471-.961-.809-.512-1.116-1.285-.682-1.72.435-.434 1.547.209 2.471 1.428 1.405 1.852 2.34 2.124 5.682 1.652 2.994-.423 3.623-.296 2.5.503-1.773 1.261-.338 1.318 2.5.098 1.785-.767 1.806-.867.191-.93-.995-.038-1.52-.538-1.166-1.111.354-.572 1.618-.776 2.809-.452 1.993.542 2.018.496.307-.57-1.418-.883-2.398-.87-4.131.058-2.713 1.452-8.103.509-8.895-1.556-.7-1.825-.225-1.806 3.55.146 2.299 1.189 3.348 1.299 4.2.441.85-.857.655-.962-.779-.415-1.439.548-1.711.4-1.096-.596.545-.881.433-1.085-.335-.61-.635.392-1.155.263-1.155-.287s.396-1.245.879-1.543c.484-.299 1.092-1.354 1.351-2.345.324-1.241-.088-1.801-1.324-1.801-1.341 0-1.528.322-.738 1.273m-124.501-.035c-.932.932-.832 2.333.166 2.333.459 0 .834-.675.834-1.5 0-1.699-.073-1.76-1-.833m20.658-.009c.362.362.099 1.374-.584 2.25-1.098 1.409-1.039 1.434.509.22 2.005-1.573 2.295-3.128.583-3.128-.641 0-.87.296-.508.658m-28.852 1.386c-.325.526.336.956 1.468.956 2.415 0 2.658-.556.591-1.349-.807-.31-1.734-.133-2.059.393M29.064 103.5c-.052 2.75-.575 5.675-1.162 6.5-.802 1.127-.933.534-.526-2.385.503-3.606.432-3.75-.985-2-1.434 1.77-1.492 1.703-.945-1.115.502-2.589.423-2.738-.574-1.086-.861 1.426-.87 2.703-.036 5.01.762 2.106.808 4.051.146 6.086-.953 2.925-.966 2.931-.617.24l.358-2.75H0v113.009l112.75-.255 112.75-.254.258-56.508.258-56.508-11.659.687c-6.412.379-12.669.942-13.904 1.251-1.502.377-2.444.043-2.849-1.011-.854-2.227-.786-2.411.896-2.411.825 0 1.5-.675 1.5-1.5s-.477-1.5-1.059-1.5-.801.418-.485.928c.735 1.19-2.696 2.301-4.714 1.527-.847-.325-1.837-.111-2.2.477-.375.607.122 1.068 1.152 1.068.997 0 3.141 1.463 4.765 3.25 1.623 1.787 2.552 2.905 2.063 2.483-.489-.421-1.456.583-2.149 2.231-.693 1.649-3.311 4.443-5.817 6.209-2.506 1.767-4.556 3.575-4.556 4.02 0 1.48 1.503.832 2.768-1.193 1.315-2.105 3.232-2.698 3.232-1 0 .55-.645 1-1.433 1-3.431 0-2.548 3.915 2.901 12.859 3.043 4.995 5.532 9.507 5.532 10.028 0 .52.337 1.096.75 1.28.768.341 2.084 2.99 8.86 17.833 2.134 4.675 4.22 8.65 4.635 8.833.415.184.755.91.755 1.615 0 .704 1.329 2.803 2.953 4.663 1.875 2.148 2.605 3.731 1.999 4.337-.606.606-4.88-2.937-11.703-9.702-14.36-14.235-15.293-14.986-17.72-14.241-4.934 1.514-19.773 2.42-41.779 2.55-24.345.144-26.392.507-22.25 3.945.825.685 1.5 2.509 1.5 4.055 0 3.607-3.089 4.792-5.854 2.246-1.076-.99-4.017-3.311-6.535-5.156l-4.579-3.354-10.266 1.068c-16.447 1.71-45.705 5.845-52.766 7.457-3.575.816-9.312 1.711-12.75 1.989-5.787.468-6.25.354-6.25-1.532 0-1.12.865-3.44 1.921-5.155 1.057-1.715 3.118-6.718 4.58-11.118 1.462-4.4 3.051-8.9 3.532-10 .481-1.1 2.24-5.089 3.909-8.864 1.67-3.775 2.746-7.332 2.392-7.904-.359-.581-.163-.744.442-.37.597.369 1.409.148 1.804-.491.501-.812-.09-1.007-1.966-.648-1.476.282-2.461.29-2.188.018.272-.272-.163-1.765-.966-3.318-.803-1.553-1.462-5.434-1.464-8.623l-.005-5.8-2.912 4.39c-1.601 2.414-3.411 6.37-4.02 8.79-1.17 4.646-1.715 5.111-6.642 5.67-1.991.225-3.084-.095-3.084-.905 0-.69.506-1.06 1.124-.823 1.246.478 5.253-31.19 4.264-33.696-.31-.784-.606.824-.657 3.574m141.539-3.667c-.283.459.14.834.941.834.801 0 1.456-.375 1.456-.834 0-.458-.423-.833-.941-.833s-1.173.375-1.456.833m-111.003.841c.605.454 1.385 1.501 1.732 2.326.445 1.054.564.93.4-.417-.127-1.055-.907-2.101-1.732-2.326-.965-.263-1.107-.114-.4.417m60.702.826c.153 1.1.843 2.9 1.535 4 1.172 1.863 1.213 1.829.59-.5-.368-1.375-1.059-3.175-1.535-4-.677-1.173-.806-1.064-.59.5m-8.287 2.537c-.012 2.826.387 3.568 1.985 3.688 2.371.179 2.667-1.255.437-2.111-.86-.33-1.34-.962-1.066-1.405.273-.442.084-1.458-.422-2.257-.659-1.043-.923-.455-.934 2.085m39.199-.785c-.617 1.236-1.664 4.16-2.326 6.498-.663 2.338-1.583 4.25-2.046 4.25-.995 0-1.135 3.373-.18 4.329.364.364 1.922-3.254 3.461-8.04 2.801-8.712 3.196-11.255 1.091-7.037M78.5 104c.34.55.816 1 1.059 1s.441-.45.441-1-.477-1-1.059-1-.781.45-.441 1m20.138.5c.317.825.753 1.5.969 1.5.216 0 .393-.675.393-1.5s-.436-1.5-.969-1.5c-.532 0-.709.675-.393 1.5m34.397 4.202c-.774 2.639-1.435 5.248-1.471 5.798-.035.55-.514 1.331-1.064 1.735-.55.404.27.741 1.821.75 2.688.014 2.739-.068 1.072-1.735-1.62-1.62-1.625-1.774-.071-2.073 1.259-.243 1.534-.993 1.098-3-.45-2.072-.341-2.338.484-1.177.947 1.333 1.059 1.333 1.01 0-.03-.825-.374-2.309-.764-3.298-.538-1.363-1.049-.638-2.115 3m52.715.96c.688.278 1.813.278 2.5 0 .688-.277.125-.504-1.25-.504s-1.937.227-1.25.504M96.002 110c-.818 2.632-.734 4.132.18 3.218.574-.574.803-1.645.509-2.38-.293-.736-.603-1.113-.689-.838M.468 168.5c0 31.35.127 44.03.282 28.179.154-15.852.154-41.502-.001-57C.594 124.18.468 137.15.468 168.5M71 113.674c0 1.103-1.342 4.441-2.982 7.416-3.176 5.762-3.838 8.5-1.768 7.309.726-.418.901-.338.417.191-.459.5-1.359.91-2 .91-.642 0-1.311 1.012-1.487 2.25-.175 1.238-.694 2.25-1.152 2.25-.458 0-1.335 1.238-1.949 2.75-1.145 2.82-5.103 10.035-8.915 16.25-1.181 1.925-2.45 4.175-2.822 5-.657 1.462-6.214 9.002-7.369 10-.318.275-1.649 2.26-2.957 4.411l-2.378 3.911 3.431-.685c1.887-.377 6.356-2.068 9.931-3.759 13.045-6.17 36.081-12.873 44.25-12.877 3.048-.001 3.67-1.992 1.25-4.001-.825-.685-1.5-1.635-1.5-2.112 0-.477-1.941-3.91-4.313-7.628-2.373-3.718-4.585-7.487-4.918-8.376-.491-1.316-1.967-1.576-7.936-1.398-6.241.186-7.534-.067-8.685-1.698-.744-1.055-1.081-2.188-.75-2.519.331-.331.602-.093.602.529s1.013 1.653 2.25 2.29l2.25 1.159-2.216-2.131C67.031 130.95 67.15 128 69.49 128c.702 0 1.512-.9 1.8-2 .287-1.1 1.07-2 1.739-2 .927 0 .913.365-.063 1.541-1.12 1.35-.817 1.49 2.448 1.13 2.049-.226 4.257-.974 4.906-1.663.941-.999.738-1.026-1.004-.13-2.961 1.521-3.261 1.433-2.825-.832.241-1.25-.301-2.168-1.506-2.551-1.23-.39-1.668-1.156-1.264-2.21.37-.964.209-1.36-.4-.983-.601.371-1.054-.628-1.106-2.439-.096-3.384-1.215-5.4-1.215-2.189m86.489 4.73c-.987 3.644-1.586 6.832-1.332 7.086.253.254 2.852.178 5.774-.168l5.313-.629-2.372-1.824c-1.305-1.004-1.922-1.841-1.372-1.862.55-.021.408-.413-.316-.872s-1.898-2.527-2.609-4.595l-1.293-3.761-1.793 6.625m-131.41-.821c.048 1.165.285 1.402.604.605.289-.722.253-1.585-.079-1.917-.332-.332-.568.258-.525 1.312m132.652.337c-.435 1.663-.305 2.054.437 1.312.582-.582.86-1.647.62-2.369-.25-.749-.703-.295-1.057 1.057m22.104-1.153c.735.526 1.264 1.345 1.175 1.82-.288 1.551 1.66 1.516 2.962-.054 1.05-1.265 1.003-1.533-.268-1.533-.847 0-2.365-.267-3.372-.594-1.348-.438-1.479-.342-.497.361m-71.022 1.916c.721.289 1.584.253 1.916-.079.332-.332-.258-.568-1.312-.525-1.165.048-1.402.285-.604.604M24.158 122c0 1.375.227 1.938.504 1.25.278-.687.278-1.812 0-2.5-.277-.687-.504-.125-.504 1.25m134.592.083c-1.688 1.849-1.653 1.914 1 1.838 1.512-.043 2.213-.297 1.556-.565-.656-.267-.946-1.131-.643-1.921.717-1.867.235-1.704-1.913.648m38.036-.309c-2.644 3.08-3.023 4.808-.44 2.006 1.635-1.774 2.679-2.296 3.002-1.5.369.911.514.919.573.029.136-2.045-1.587-2.339-3.135-.535m-104.943.726c-.339 1.1-.926 2.9-1.305 4-.653 1.896-.627 1.903.503.13.893-1.401 1.387-1.555 1.968-.615.558.902 1.134.584 2.047-1.13 1.139-2.136 1.106-2.249-.315-1.077-1.362 1.123-1.636.981-1.934-1-.325-2.153-.389-2.174-.964-.308m-54.281 1.641c-1.546 1.503-1.686 2.133-.691 3.121.994.987 1.099.849.518-.676-.511-1.341-.377-1.696.448-1.187.673.416 1.441.04 1.794-.879.908-2.367.125-2.51-2.069-.379M106 123c0 .55.477 1 1.059 1s.781-.45.441-1-.816-1-1.059-1-.441.45-.441 1m8.5 0c-.34.55-.141 1 .441 1s1.059-.45 1.059-1-.198-1-.441-1-.719.45-1.059 1m12.167-.333c-.367.366-.653 1.379-.635 2.25.025 1.278.34 1.198 1.634-.417 1.302-1.624 1.49-1.671 1-.25-.715 2.075.873 2.393 1.664.333.299-.78-.14-1.68-.975-2-1.889-.725-1.879-.725-2.688.084m70.407 2.744c-.691.833-.788 1.648-.236 1.989.514.318 1.169-.317 1.455-1.411.616-2.357.358-2.479-1.219-.578m-51.559 3.52c-.774 3.524-2.916 5.513-5.054 4.692-.9-.345-1.305-.18-.954.388.336.544.134.989-.448.989-.582 0-1.059.632-1.059 1.404 0 .772-1.594 4.224-3.542 7.67-1.948 3.446-3.321 6.841-3.051 7.545.27.703-.386 1.557-1.458 1.897-4.618 1.466-.941 1.987 14.304 2.027 15.714.042 36.879 1.865 41.497 3.575 3.079 1.139 2.906-.581-.5-4.985-2.884-3.729-3.33-4.361-9.715-13.782-2.181-3.218-4.377-6.138-4.879-6.489-.502-.351-.603-1.139-.225-1.75.865-1.399-.956-1.437-3.505-.072-1.069.572-4.977 1.422-8.685 1.889-6.879.867-9.543-.002-9.828-3.204l-.261-2.975c-.242-2.785-1.932-2.028-2.637 1.181m-110.5.26c-.008.93.435 1.969.985 2.309 1.266.782 1.266-.542 0-2.5-.835-1.293-.971-1.266-.985.191M126 131.5c0 .825.177 1.5.393 1.5.216 0 .652-.675.969-1.5.316-.825.139-1.5-.393-1.5-.533 0-.969.675-.969 1.5m-11.771 1.074c-.699.763-1.149 1.583-1 1.823.149.24-.139.811-.639 1.27-.539.493-.578.259-.094-.575.642-1.106.301-1.267-1.59-.753-1.323.36-4.757.942-7.631 1.293l-5.226.638 2.451 2.913c1.349 1.602 3.189 4.467 4.09 6.365.901 1.899 2.037 3.452 2.524 3.452.487 0 .886.675.886 1.5s.346 1.5.768 1.5c.423 0 1.482 1.176 2.355 2.614l1.585 2.613 2.646-2.853c1.455-1.57 2.646-3.498 2.646-4.285 0-.787.657-2.157 1.459-3.044.803-.887 2.521-4.073 3.817-7.079 2.314-5.367 2.548-8.966.583-8.966-.546 0-.708.9-.359 2 .378 1.192.18 2-.492 2-.619 0-.818-.498-.442-1.107.464-.751-.023-.883-1.512-.41-1.394.442-2.811.15-3.876-.799-1.428-1.274-1.867-1.291-2.949-.11M150 132.5c.685.825 1.695 1.5 2.245 1.5.558 0 .449-.663-.245-1.5-.685-.825-1.695-1.5-2.245-1.5-.558 0-.449.663.245 1.5m-112.921 2.083c.048 1.165.285 1.402.604.605.289-.722.253-1.585-.079-1.917-.332-.332-.568.258-.525 1.312m78.254-.25a1.33 1.33 0 0 0 1.318 1.334c.984 0 1.038-.337.211-1.334-.609-.733-1.202-1.333-1.318-1.333-.116 0-.211.6-.211 1.333m32.114-.418c.311.503 0 1.132-.691 1.398s-.266.435.943.376c1.678-.082 1.945-.413 1.128-1.398-1.226-1.476-2.229-1.75-1.38-.376m19.366-.232c.721.289 1.584.253 1.916-.079.332-.332-.258-.568-1.312-.525-1.165.048-1.402.285-.604.604m-103.181 1.103c-.267.432.349.785 1.368.785 1.019 0 1.635-.353 1.368-.785-.268-.432-.883-.786-1.368-.786-.485 0-1.1.354-1.368.786m91.181.897c.721.289 1.584.253 1.916-.079.332-.332-.258-.568-1.312-.525-1.165.048-1.402.285-.604.604"/></svg>