<svg width="391" height="500" viewBox="0 0 391 500" fill="#000000" xmlns="http://www.w3.org/2000/svg">
<path fill-rule="evenodd" clip-rule="evenodd" d="M192.815 0.592815C189.729 1.4906 162.458 12.0127 132.214 23.9734C101.97 35.9342 61.5693 51.8565 42.4352 59.353C23.3011 66.8495 5.83917 74.5391 3.63061 76.4424C-0.15132 79.6991 -0.346589 87.1755 0.263907 205.724L0.912557 331.549L7.07811 346.948C7.07811 346.948 85.7894 450.939 168.487 490.605C195.849 503.729 195.075 503.783 229.426 486.444C302.408 449.608 351.4 408.013 375.135 362.74C390.041 334.309 390.258 331.955 390.294 198.912C390.332 62.906 367.883 67.2019 367.883 67.2019C359.859 64.0125 324.509 49.6569 289.327 35.299C201.162 -0.677552 199.38 -1.31723 192.815 0.592815ZM147.925 173.359V216.051L194.498 215.442L241.071 214.836L241.398 173.736C241.578 151.129 242.263 132.096 242.92 131.439C243.576 130.781 262.315 139.683 284.562 151.217C329.669 174.609 330.008 175.103 301.653 176.025L281.471 176.68L281.922 239.526L282.373 302.371L303.806 303.013C315.594 303.367 325.238 304.624 325.238 305.807C325.238 307.591 246.819 348.382 243.385 348.382C242.781 348.382 242.013 327.928 241.679 302.932L241.071 257.481L194.498 256.875L147.925 256.267V302.512C147.925 333.477 147.155 348.499 145.596 347.981C138.312 345.552 67.3803 308.824 67.2636 307.421C67.1872 306.496 76.2459 305.737 87.3942 305.737C112.665 305.737 110.674 312.157 108.665 237.196L107.013 175.558H85.9465C74.3606 175.558 64.8799 174.793 64.8799 173.855C64.8799 172.191 142.916 130.819 146.242 130.718C147.167 130.691 147.925 149.879 147.925 173.359Z" fill="#000000"/>
</svg>
