<svg xmlns="http://www.w3.org/2000/svg" width="200" height="200" fill="#000000"><path fill-opacity=".388" fill-rule="evenodd" d="M0 7.907v7.934l3 .659c1.65.362 3 1.089 3 1.615 0 .58-.76.549-1.934-.08-4.101-2.195-5.518-.297-2.372 3.179 1.592 1.759 1.592 1.833 0 1.222C.115 21.83 0 25.399 0 74.952c0 35.189.338 52.957 1 52.548.55-.34 1-.141 1 .441S1.618 129 1.152 129c-1.318 0-1.178 6.363.158 7.213.902.573.887.76-.06.772-.888.011-1.25 2.19-1.25 7.515 0 7.145.106 7.495 2.25 7.384 1.693-.087 1.817-.229.5-.573-2.501-.654-2.164-2.29.5-2.427 1.693-.087 1.817-.229.5-.573-2.269-.593-2.269-2.306 0-2.326 1.376-.012 1.457-.201.38-.883-1.106-.701-1.01-1.078.5-1.955 1.409-.818 1.5-1.102.37-1.148-1.199-.05-1.138-.337.303-1.43 1.349-1.023 1.475-1.498.5-1.889-.842-.337-.683-.55.447-.601 2.018-.091 2.345-1.672.5-2.417-.75-.302-.553-.536.492-.583 1.395-.063 1.657.566 1.317 3.171-.233 1.787-.511 3.363-.617 3.5s-.304.7-.442 1.25-.34 1.113-.449 1.25c-.11.137-.397 1.316-.637 2.619-.241 1.303-1.782 5.57-3.426 9.481C.039 163.369 0 163.701 0 181.736v18.274l100.25-.255 100.25-.255.229-99.75.228-99.75H151l-.116 2.25c-.091 1.774-.215 1.869-.584.447-.374-1.445-.753-1.566-1.906-.609-1.167.968-1.324.892-.827-.401C148.124.234 141.509.085 74.09.032L0-.027zm.343.593c.003 4.4.179 6.076.39 3.724s.209-5.952-.006-8S.339 4.1.343 8.5m183.281-5.961c-.343.893-.585 2.375-.538 3.293.047.917.482.341.967-1.282.943-3.156.609-4.718-.429-2.011M112 5.677c0 1.906-.647 4.113-1.438 4.904-1.638 1.638-12.767 2.39-16.312 1.102-1.697-.617-2.25-.449-2.25.682 0 .825.877 1.779 1.949 2.119 1.082.343 1.723 1.208 1.44 1.944-.571 1.489 1.809 1.86 23.611 3.68 7.425.619 13.688 1.299 13.917 1.509.782.719-9.398.397-24.859-.784-11.815-.903-15.534-.905-15.833-.007-.216.646-1.844 1.174-3.619 1.174-3.036 0-3.304.297-4.51 5.002-.839 3.276-1.681 4.769-2.439 4.328-.636-.371-.344.255.649 1.389 1.206 1.377 1.82 3.711 1.845 7.016.041 5.305 1.716 9.849 1.941 5.265.084-1.71.423-1.157 1.074 1.75.581 2.594 1.513 4.25 2.393 4.25.792 0 1.441.435 1.441.968 0 .595-.866.632-2.25.096-1.237-.48-2.123-1.407-1.969-2.062s-.295-.998-1-.763C83.786 49.903 83.588 53 85.54 53c1.303 0 1.587.678 1.25 2.976-.355 2.418-.182 2.765.921 1.849 1.016-.844 2.007-.779 3.943.258 2.488 1.331 2.753 1.193 6.951-3.6 2.4-2.741 4.16-5.545 3.911-6.233-.533-1.47 4.051-1.759 4.946-.312.487.789 2.427.839 6.788.176.412-.063.75-1.014.75-2.114s.45-2 1-2 1 .477 1 1.059.47.769 1.044.414 1.646-.145 2.383.466c1.008.837 1.479.747 1.905-.363.364-.948.093-1.293-.76-.965-.833.319-1.574-.535-1.996-2.301-.369-1.546-.904-3.71-1.189-4.81-.421-1.627-.322-1.72.532-.5.711 1.015 1.055 1.096 1.066.25.008-.687.492-1.25 1.074-1.25s.762.48.4 1.067c-.363.586.173 1.679 1.191 2.428 1.759 1.295 1.763 1.396.071 2.052-1.701.659-1.702.747-.011 1.983.972.711 2.105 1.084 2.518.829.412-.254.497.193.19.995-.723 1.883 2.467 5.627 4.221 4.954.739-.283 1.636.244 1.992 1.172.515 1.343.82 1.415 1.493.354.656-1.036.849-.961.861.334.008.918.301 2.493.65 3.5.588 1.699.526 1.693-.849-.071-.934-1.199-1.966-1.604-2.789-1.095-.863.533-1.064.416-.592-.347.399-.647.137-1.162-.596-1.17-.962-.012-.911-.297.191-1.076 1.26-.891 1.266-.998.041-.666-.862.234-1.611 1.964-1.832 4.23-.352 3.61-.274 3.735 1.328 2.133 1.578-1.578 1.832-1.582 3.514-.059.998.902 1.6 2.199 1.339 2.88-.262.682.106 1.24.817 1.241.927.001 1.195-1.367.946-4.833-.238-3.325.035-4.835.873-4.835.947 0 .941-.335-.026-1.5-.685-.825-1.817-1.5-2.515-1.5s-1.521-.652-1.827-1.449q-.56-1.452.893-.893c.797.306 1.449.044 1.449-.582 0-.627-.675-1.398-1.5-1.714s-1.5-1.203-1.5-1.969S131.1 41 130 41s-2-.352-2-.783 1.238-.692 2.75-.581 3.339.238 4.059.283 1.034.526.698 1.07c-.351.568.054.733.954.388.86-.331 2.239-.041 3.063.643 1.267 1.052 1.459.876 1.238-1.138-.175-1.594-1.089-2.589-2.762-3.007-1.532-.384-.371-.605 3-.572 4.91.048 5.203.163 2.733 1.075-1.522.561-2.612 1.493-2.423 2.071.524 1.601 5.854 1.899 6.816.381.645-1.017.847-.921.859.409.01 1.128.805 1.743 2.265 1.752 5.04.029 7.75.452 7.75 1.209 0 .687-.914 1.006-3 1.047-.275.005-1.85-.287-3.5-.649-1.887-.415-2.505-.328-1.665.233.735.491 1.317 1.292 1.295 1.781s1.289.747 2.914.574 2.956.091 2.956.586c0 .496 3.368.914 7.485.929s8.054.463 8.75.993c1.525 1.161 10.765.479 10.765-.795 0-.494 1.2-.899 2.667-.899s2.373-.294 2.014-.653c-.359-.358-1.973-.615-3.586-.569-1.614.046-3.154-.489-3.422-1.188-.741-1.931.925-3.958 2.694-3.279.863.331 1.839.164 2.17-.371s1.02-.714 1.532-.397.931.098.931-.484S189.325 40 188.5 40s-1.5-.436-1.5-.969.727-.689 1.616-.348c1.377.528 1.446.301.465-1.531-.633-1.184-1.387-2.152-1.675-2.152s-.246.45.094 1-.11 1-1 1-1.364-.412-1.053-.915 0-1.143-.691-1.423c-1.002-.407-.997-.692.022-1.412.953-.673.62-1.203-1.306-2.081C180.27 29.71 181.126 28 185.059 28c1.618 0 2.941-.226 2.941-.503 0-.276-1.8-2.128-4-4.116s-4-4.185-4-4.884c0-.698-1.35-1.468-3-1.71s-3-.013-3 .509-.655.405-1.456-.26c-.801-.664-1.953-.901-2.561-.526-.607.376-2.314.193-3.793-.406-1.48-.598-4.848-1.258-7.486-1.465-5.051-.397-9.69-3.53-9.719-6.563-.014-1.384-.136-1.393-1-.076-.663 1.009-1.23 1.149-1.735.427-1.221-1.746-3.923-2.354-5.124-1.153-1.133 1.133-7.247 1.182-12.509.101-2.107-.433-2.513-.821-1.508-1.442 1.094-.677 1.121-1.103.133-2.091-.989-.989-1.242-.975-1.242.067 0 1.391-3.083 1.177-10.25-.711L112 2.211zm21.813-1.994c.721.289 1.584.253 1.916-.079s-.258-.568-1.312-.525c-1.165.048-1.402.285-.604.604M.079 18.583c.048 1.165.285 1.402.604.605.289-.722.253-1.585-.079-1.917s-.568.258-.525 1.312m35.485.124c-.542 1.425-.428 1.54.56.56.684-.679.991-1.486.683-1.793-.308-.308-.867.247-1.243 1.233M8 18.819c0 1.208 1.897 2.617 2.591 1.924.251-.252-.229-1.027-1.067-1.723-.95-.789-1.524-.865-1.524-.201M33 23c-.589 1.1-.845 2-.57 2s.981-.9 1.57-2 .845-2 .57-2-.981.9-1.57 2M.241 74.789c-.206 45.442-.036 53.1 1.148 52 .764-.709.994-1.538.51-1.842-.485-.305-1.001-23.705-1.149-52L.481 21.5zm69.791-46.32C66.35 36.396 56.41 59.905 55.574 62.666c-.387 1.278-.159 2.472.555 2.914.818.505 1.016.24.61-.818-1.051-2.739.545-2.878 2.302-.2 1.512 2.306 1.764 2.389 2.379.786.59-1.539.835-1.584 1.728-.32.859 1.215.943 1.167.478-.278-.31-.962-.127-1.75.405-1.75.533 0 .969-.845.969-1.878 0-2.928 2.889-9.12 4.263-9.137.915-.012.893-.234-.087-.855-1.07-.678-1.01-1.154.314-2.477.901-.901 1.376-2.06 1.057-2.577s.075-2.432.875-4.257c.801-1.826 1.721-4.573 2.045-6.106.392-1.853 1.135-2.691 2.216-2.5 1.04.183 2.125-.914 3.008-3.044.76-1.832.951-3.066.426-2.742-.525.325-1.245-.733-1.6-2.351-1.106-5.034-4.227-3.619-7.485 3.393m21.719-2.676c.406 1.057.703 1.091 1.287.145.418-.676 1.504-.944 2.413-.595.955.366 1.399.223 1.051-.339-.957-1.549-5.368-.817-4.751.789m7.814.102c-.305.493.096 1.145.89 1.449q1.444.555.887-.895c-.645-1.68-1.011-1.794-1.777-.554m-9.627.355c-.103.413-.244 1.612-.313 2.667s-.463 2.254-.875 2.666c-1.232 1.232-.849 4.417.531 4.417 1.59 0 3.904 5.767 2.631 6.555-2.01 1.242-.71 2.125 2.815 1.911 2.453-.149 4.182.331 5.055 1.404 1.141 1.4 1.172 1.309.223-.648-.608-1.253-1.472-2.051-1.921-1.774s-.66-.835-.47-2.472S97.52 38 96.98 38c-.539 0-.98.873-.98 1.941s-.468 2.23-1.04 2.584c-1.563.966.09-4.816 1.722-6.025 1.041-.771.811-1.031-1.005-1.134-1.836-.105-2.311.336-2.154 2 .149 1.58.086 1.65-.245.268-.246-1.026-1.278-2.083-2.294-2.348-1.823-.477-1.691-3.068.224-4.364.47-.318.419-1.668-.113-3-.533-1.332-1.053-2.085-1.157-1.672M107.5 33c.34.55.816 1 1.059 1s.441-.45.441-1-.477-1-1.059-1-.781.45-.441 1m15.5.214c0 .432.648.786 1.441.786s1.659-.354 1.927-.786c.267-.432-.382-.785-1.441-.785s-1.927.353-1.927.785m-11.595.941c-.42.679-.277.884.347.498.679-.42.857.125.494 1.514-.45 1.722-.224 2.039 1.093 1.533 1.281-.492 1.692-.016 1.797 2.081.129 2.568.161 2.586.589.32.458-2.424-1.41-7.101-2.835-7.101-.425 0-1.093.52-1.485 1.155M39.66 38.379c-1.902 2.493-2.495 4.093-1.907 5.143.673 1.203 1.332.671 3.126-2.52 3.042-5.413 2.234-7.15-1.219-2.623m45.84-.006c0 2.344.394 3.221 1.291 2.877.71-.272 1.187-.103 1.059.377-.127.48.129 2.395.568 4.256.556 2.354 1.049 2.979 1.621 2.054.456-.739.344-2.221-.252-3.335-.699-1.307-.726-2.122-.076-2.339 1.484-.495.281-5.263-1.328-5.263-.76 0-1.383-.45-1.383-1s-.338-1-.75-1-.75 1.518-.75 3.373m16-2.324c-2.799.667-2.833.726-.5.892 1.375.097 4.188.306 6.25.464s3.75-.094 3.75-.559-.338-.877-.75-.915-1.875-.188-3.25-.333-3.85.057-5.5.451m22.103-.216c-.283.459.12.834.897.834s1.18-.375.897-.834S124.71 35 124.5 35s-.614.375-.897.833m3.397.56c0 .216.675.652 1.5.969s1.5.139 1.5-.393c0-.533-.675-.969-1.5-.969s-1.5.177-1.5.393m4 .607c0 .55.648 1 1.441 1s1.719-.45 2.059-1-.309-1-1.441-1-2.059.45-2.059 1m18 .977c0 .434.9 1.025 2 1.313 1.1.287 2 .167 2-.267s-.9-1.025-2-1.313c-1.1-.287-2-.167-2 .267M99.158 40c0 1.375.227 1.938.504 1.25.278-.687.278-1.812 0-2.5-.277-.687-.504-.125-.504 1.25m74.342-1c.363.588-.712 1-2.608 1-4.946 0-2.502 1.329 2.612 1.42 3.08.055 4.497-.332 4.496-1.229 0-.72-.419-1.05-.931-.734s-1.213.118-1.559-.441S174.432 38 173.882 38s-.722.45-.382 1m-69.5.845c0 .465.919 1.677 2.043 2.694 1.791 1.62 1.963 1.64 1.393.155-.357-.932-1.078-1.694-1.602-1.694s-.674-.45-.334-1 .141-1-.441-1-1.059.38-1.059.845m59.459.222c-.363.586-.389 1.336-.059 1.666s.6.049.6-.625.52-.905 1.155-.513c.715.443.883.275.44-.44-.884-1.431-1.296-1.448-2.136-.088M110.158 42c0 1.375.227 1.938.504 1.25.278-.687.278-1.812 0-2.5-.277-.687-.504-.125-.504 1.25m48.575-.876c.679.684 1.486.991 1.793.683.308-.308-.247-.867-1.233-1.243-1.425-.542-1.54-.428-.56.56M101 42.441c0 .857.45 1.559 1 1.559s1-.423 1-.941-.45-1.219-1-1.559-1 .084-1 .941m11 .059c0 .825.436 1.5.969 1.5s.709-.675.393-1.5c-.317-.825-.753-1.5-.969-1.5s-.393.675-.393 1.5m68-.059c0 .857.45 1.559 1 1.559s1-.423 1-.941-.45-1.219-1-1.559-1 .084-1 .941M42.268 44.758C40.74 48.208 39.546 54 40.362 54c.719 0 3.019-5.327 3.993-9.25.884-3.56-.51-3.555-2.087.008m118.465-.634c.679.684 1.486.991 1.793.683.308-.308-.247-.867-1.233-1.243-1.425-.542-1.54-.428-.56.56m-14.028 1.55c.492 1.282.239 1.518-1.083 1.011-.949-.364-1.485-.272-1.19.206.295.477 1.444 1.105 2.554 1.395s1.765.119 1.456-.379c-.308-.499-.051-.907.57-.907.677 0 .528-.603-.369-1.5-1.971-1.97-2.735-1.902-1.938.174m-65.619 2.905c-1.576 2.67-1.762 3.511-.689 3.099.811-.311 1.67-.028 1.91.628.24.657.773-.514 1.185-2.603 1.013-5.139.19-5.524-2.406-1.124m28.125-1.978c-.71.769-.849 1.399-.309 1.399 1.038 0 2.541-1.902 1.948-2.466-.192-.183-.93.297-1.639 1.067m62.289.384c3.3.381 6.428.315 6.95-.147s-2.178-.772-6-.691l-6.95.147zm-74.421 1.598c.048 1.165.285 1.402.604.605.289-.722.253-1.585-.079-1.917s-.568.258-.525 1.312m21.067.995c-1.483 3.255-1.45 3.476.405 2.764 1.32-.506 1.474.208 1.036 4.781-.284 2.958-.262 4.524.05 3.482.37-1.242.81-1.5 1.273-.75.517.835 1.232.761 2.647-.273 1.067-.78 1.579-1.78 1.137-2.221s-1.258-.141-1.814.668c-.755 1.098-.841.869-.338-.904.457-1.616.318-2.157-.435-1.691-.609.376-1.107.207-1.107-.375s.563-1.073 1.25-1.089c.737-.018.57-.428-.407-.998-.979-.571-1.455-1.741-1.163-2.857.767-2.931-1.248-3.357-2.534-.537m-26.333.105c.721.289 1.584.253 1.916-.079s-.258-.568-1.312-.525c-1.165.048-1.402.285-.604.604m31.5.748c-.959 1.091-.72 1.323 1.249 1.209 1.34-.077 2.296-.562 2.125-1.077-.506-1.52-2.098-1.582-3.374-.132m19.997 0c-1.191 1.358-.76 2.569.916 2.569.49 0 .614-.45.274-1s-.21-1 .289-1c1.161 0 4.333 7.994 3.626 9.138-.293.474.581.862 1.943.862 1.361 0 2.642.501 2.847 1.114.204.613 1.222.95 2.262.75 1.77-.341 1.784-.471.21-2.044-1.574-1.574-1.537-1.701.571-2 2.015-.286 1.883-.502-1.248-2.047-1.925-.95-2.952-1.738-2.281-1.75s.984-.634.698-1.38c-.291-.757-1.622-1.236-3.013-1.083-1.586.174-2.926-.423-3.688-1.643-1.402-2.245-1.81-2.303-3.406-.486m-112.026 3.59c-.429 1.641-.802 1.794-1.982.814-1.15-.954-1.64-.906-2.342.229-.604.979-.397 1.607.651 1.975.845.296 1.504.859 1.463 1.25-.229 2.196.042 2.757 1.033 2.145.753-.466.892.075.435 1.691-.51 1.798-.424 2.013.351.883.563-.82.793-2.413.51-3.539s-.05-3.267.517-4.758.775-2.711.462-2.711-.807.909-1.098 2.021m60.939-.771c-.711.869-.629 1.612.268 2.437 1.026.945 1.261.69 1.149-1.249-.163-2.844-.104-2.794-1.417-1.188M140 53.072c0 .632-.709.87-1.586.533-.873-.335-.312.742 1.246 2.393 2.65 2.807 5.168 4.15 3.883 2.071-.317-.512-.111-1.218.457-1.569 1.286-.795.485-2.17-2.056-3.53-1.398-.748-1.944-.72-1.944.102m22.165.689c-1.03 2.001-.48 4.239 1.041 4.239.656 0 .608-.52-.132-1.411-.811-.977-.845-1.613-.111-2.066.623-.385 1.312.603 1.67 2.394.349 1.744 1.054 2.776 1.646 2.41.648-.4.825.168.472 1.517-.714 2.729 1.326 2.864 2.991.197.825-1.32.924-2.706.304-4.25-.505-1.26-.948-1.728-.983-1.041-.034.688-.499 1.25-1.032 1.25-.532 0-.698-.705-.367-1.567.43-1.119 1.693-1.488 4.426-1.291 2.104.152 4.144-.043 4.534-.433s-1.503-.742-4.207-.783c-2.705-.041-5.916-.261-7.138-.49-1.408-.263-2.547.222-3.114 1.325m26.893-.331c-.948 1.142-.784 1.646.812 2.5 2.428 1.3 4.13 1.377 4.13.187 0-.486-1.012-1.21-2.25-1.609-2.139-.689-2.101-.763.75-1.498 2.941-.758 2.948-.776.372-.892-1.445-.065-3.161.526-3.814 1.312m-10.585.614c-.325.526.336.956 1.468.956 2.415 0 2.658-.556.591-1.349-.807-.31-1.734-.133-2.059.393m-97.574.039c-.056.23-.22 2.217-.363 4.417-.144 2.2-.065 3.207.177 2.238.241-.969.872-1.494 1.403-1.166.589.364.699-.507.283-2.238-.658-2.74-1.291-4.111-1.5-3.251m90.705 1.749c-.32.518.088 1.497.907 2.177 1.654 1.373 2.065 3.465.489 2.491-1.544-.954-1.182 1.175.482 2.84 1.307 1.306 5.518 1.25 5.518-.073 0-.275-.9-.265-1.999.022s-2.232.146-2.517-.315.727-1.009 2.249-1.218l2.767-.38-2.426-1.025c-2.409-1.018-2.411-1.03-.25-1.595 1.197-.313 2.176-1.151 2.176-1.862 0-.965-.288-1.006-1.135-.159-.846.846-1.712.756-3.407-.355-1.315-.861-2.518-1.092-2.854-.548m-33.525 1.751c.048 1.165.285 1.402.604.605.289-.722.253-1.585-.079-1.917s-.568.258-.525 1.312m45.48.991c1.067.866 1.445 1.33.838 1.032-.606-.298-1.956.104-3 .894-1.087.824-1.364 1.45-.647 1.468.688.018 1.25.707 1.25 1.532s.563 1.388 1.25 1.25 1.137.313 1 1 .2 1.25.75 1.25c.951 0 1.423-1.478 1.078-3.373-.088-.48.534-.606 1.381-.281.848.325 1.541.155 1.541-.377 0-.533 1.012-1.001 2.25-1.039s3.15-.475 4.25-.969c1.675-.753 1.512-.864-1-.68-2.212.161-2.916-.175-2.679-1.281.258-1.203.07-1.252-.95-.25-1.736 1.707-4.533 1.573-5.233-.25-.316-.825-1.35-1.5-2.298-1.5-1.537 0-1.514.169.219 1.574m4.254-.891c.721.289 1.584.253 1.916-.079s-.258-.568-1.312-.525c-1.165.048-1.402.285-.604.604M130 59.424c0 .749.675 1.621 1.5 1.938.881.338 1.5.013 1.5-.786 0-.749-.675-1.621-1.5-1.938-.881-.338-1.5-.013-1.5.786M168.5 59c.34.55.816 1 1.059 1s.441-.45.441-1-.477-1-1.059-1-.781.45-.441 1m-29.44.963c-1.631 1.008-.083 2.05 4.001 2.694 2.296.362 2.939.085 2.939-1.264 0-.949-.271-1.455-.603-1.124-.331.332-1.606.222-2.833-.245s-2.804-.494-3.504-.061M37.63 62.25c-.993 3.707-.647 4.404.87 1.75 1.673-2.926 1.838-4 .617-4-.486 0-1.155 1.013-1.487 2.25m23.582-.218c-1.791 2.868-1.473 3.786.39 1.126.881-1.258 1.427-2.463 1.212-2.677-.214-.215-.935.483-1.602 1.551m61.274.945c.289.469-.039 1.08-.73 1.359-.973.392-.962.524.053.585.72.043 1.043.509.718 1.035s-1.364.697-2.309.38c-1.01-.34-.447.665 1.365 2.438 1.695 1.658 3.945 3.219 5 3.468 1.705.403 1.64.566-.583 1.471l-2.5 1.017 3.322.73c1.826.402 3.589.462 3.916.135.328-.327.07-.595-.571-.595-.642 0-1.167-1.125-1.167-2.5s-.388-2.5-.861-2.5c-1.3 0-.08-4.995 1.228-5.03 1.801-.049-1.728-1.815-4.704-2.355-1.487-.269-2.467-.107-2.177.362m46.508 1.034c-1.119 2.091-1.04 2.234.95 1.714 1.669-.436 1.928-.276 1.122.696-.577.695-.753 1.559-.391 1.921.894.894 2.353.833 2.207-.092-.302-1.911.232-2.4 1.485-1.36 1.047.869 1.691.736 2.75-.57.884-1.088.939-1.437.154-.966-1.265.76-5.273-.889-6.414-2.639-.353-.542-1.191.041-1.863 1.296M145 64.378c0 .207.787.995 1.75 1.75 1.586 1.243 1.621 1.208.378-.378-1.307-1.666-2.128-2.195-2.128-1.372m16 .312c0 .55.9 1.815 2 2.81s2 1.36 2 .81-.9-1.815-2-2.81-2-1.36-2-.81M58.079 67.583c.048 1.165.285 1.402.604.605.289-.722.253-1.585-.079-1.917s-.568.258-.525 1.312m66.734-.9c.721.289 1.584.253 1.916-.079s-.258-.568-1.312-.525c-1.165.048-1.402.285-.604.604m4.266.9c.048 1.165.285 1.402.604.605.289-.722.253-1.585-.079-1.917s-.568.258-.525 1.312m-99.62 1.484c-.363.586-.445 1.281-.183 1.543s.743-.218 1.069-1.067c.676-1.762.1-2.072-.886-.476m95.62.516c.048 1.165.285 1.402.604.605.289-.722.253-1.585-.079-1.917s-.568.258-.525 1.312m49.551.564c-1.399.813-1.553 1.282-.612 1.864.692.428 1.309 2.181 1.37 3.895.091 2.538.318 2.836 1.222 1.606.611-.832 1.678-1.512 2.373-1.512 1.008 0 1.012.301.017 1.5-.837 1.008-.883 1.5-.141 1.5.606 0 1.384-1.122 1.729-2.493.344-1.371 1.072-2.217 1.618-1.879.6.37.572-.175-.071-1.376-.586-1.094-.78-2.273-.433-2.621s-.174-.631-1.158-.631c-1.4 0-1.542.298-.654 1.367.863 1.04.775 1.666-.368 2.614-1.249 1.037-1.651.849-2.386-1.117-.584-1.561-.502-2.614.24-3.099 1.781-1.164-.672-.823-2.746.382m-54.63.884c0 .533.675.969 1.5.969s1.5-.177 1.5-.393-.675-.652-1.5-.969-1.5-.139-1.5.393m45.368.407c-.852.922-.65 1.822.817 3.643 1.733 2.151 1.831 2.177.882.235-1.526-3.125-1.366-3.429 1.433-2.727 1.688.424 2.5.213 2.5-.647 0-.702-.284-.991-.631-.644s-1.36.245-2.25-.227c-1.02-.54-2.038-.405-2.751.367m30.28 2.088c.413 1.076.946 1.226 1.811.508.674-.559 1.593-.683 2.043-.275.45.407.495.179.099-.509-1.073-1.865-4.678-1.614-3.953.276m-87.034 1.612c-1.16 1.355-1.251 2.435-.43 5.111l1.042 3.394 2.682-2.571c2.014-1.932 2.499-3.106 1.951-4.719-.402-1.181-.484-2.394-.182-2.697s-.383-.479-1.521-.393c-1.139.086-2.733.929-3.542 1.875m61.494-.226c-1.144.725-.999 1.432.818 3.985 2.034 2.855 6.074 4.317 6.074 2.197 0-.499-.814-.694-1.809-.434-1.25.327-2.189-.36-3.036-2.219-1.133-2.487-1.071-2.652.809-2.161 2.388.625 2.77-.784.454-1.673-1.915-.735-1.625-.762-3.31.305m19.451.62c-1.152.871-2.183 1.077-2.536.506-.809-1.31-4.757-.174-5.422 1.561-.371.965.22 1.401 1.899 1.401 1.864 0 2.308-.412 1.887-1.75-.47-1.494-.319-1.466 1.031.191 2.158 2.649.293 3.769-4.918 2.956l-4-.625 2.25 2.428c1.238 1.336 2.25 2.907 2.25 3.492s.67 1.619 1.489 2.299 1.272 1.587 1.006 2.018.24 1.059 1.123 1.398c1.313.504 1.377.894.353 2.128-1.049 1.264-.976 1.404.445.859 1.094-.42 1.46-1.23 1.028-2.273a39 39 0 0 1-1.174-3.371c-.277-.963-1.126-1.75-1.887-1.75-.76 0-1.383-.413-1.383-.918s-.275-1.636-.612-2.513c-.517-1.347-.014-1.499 3.25-.982 2.124.336 4.2.818 4.612 1.071s.75-.017.75-.599S190.475 82 189.833 82c-.641 0-.882-.284-.535-.631s.145-1.541-.45-2.652c-.935-1.748-.833-1.925.755-1.316 1.01.388 1.516.385 1.125-.006s-.209-1.315.403-2.053c1.433-1.726.872-1.659-1.572.19m2.065 3.268c-.272.44.376 1.344 1.441 2.008 1.168.73 1.935.809 1.935.2 0-.554-.562-1.015-1.25-1.023q-1.25-.016.25-.985c1.293-.835 1.266-.971-.191-.985-.93-.008-1.913.345-2.185.785m.391 5.891c-.008.655.466 1.488 1.053 1.851.588.363.856 1.215.596 1.892-.615 1.603 1.586 1.595 3.085-.011.889-.951.818-1.375-.304-1.806-.806-.309-1.748-.536-2.094-.504s-1.008-.543-1.474-1.278c-.576-.909-.851-.955-.862-.144M171 86.441c0 .857.45 1.559 1 1.559s1-.423 1-.941-.45-1.219-1-1.559-1 .084-1 .941m7 .5c0 .518.445 1.216.989 1.552.566.35.734-.051.393-.941-.665-1.732-1.382-2.049-1.382-.611m-74.345 2.888c-1.823 2.014-2.225 3.641-.66 2.674 1.043-.644 3.352-4.503 2.695-4.503-.209 0-1.125.823-2.035 1.829M131 94.941c0 .518.445 1.216.989 1.552.566.35.734-.051.393-.941-.665-1.732-1.382-2.049-1.382-.611m47.079.642c.048 1.165.285 1.402.604.605.289-.722.253-1.585-.079-1.917s-.568.258-.525 1.312m11.951 1.476c-.016.857.617 2.432 1.407 3.5 1.75 2.365 1.598-.021-.195-3.059-.891-1.508-1.189-1.617-1.212-.441m3.738 1.109c.582.582 1.647.86 2.369.62.749-.25.295-.703-1.057-1.057-1.663-.435-2.054-.305-1.312.437M101 105.441c0 1.501 1.795 3.097 2.59 2.302.698-.697-.683-3.743-1.697-3.743-.491 0-.893.648-.893 1.441m90.542-.373c.363.588 1.29.827 2.059.532.807-.31 1.399.084 1.399.931 0 .808.466 1.469 1.035 1.469.702 0 .691-.644-.035-2-.589-1.1-1.981-2-3.094-2-1.181 0-1.749.445-1.364 1.068m-52.978 3.225c.376.986.935 1.541 1.243 1.233s.001-1.114-.683-1.793c-.988-.98-1.102-.865-.56.56m43.436-.026c0 1.512 4.077 5.733 5.537 5.733.499 0-.092-.701-1.314-1.557-1.223-.856-2.223-2.179-2.223-2.941 0-.761-.45-1.662-1-2.002s-1 .005-1 .767m5.5 1.733c-.34.55-.141 1 .441 1s1.059-.45 1.059-1-.198-1-.441-1-.719.45-1.059 1m.946 8.087c-.369.598-.171 1.588.441 2.2.817.817 1.113.528 1.113-1.087q0-3.623-1.554-1.113M6 121.847c0 .531-.97.712-2.156.402-1.493-.39-1.933-.203-1.431.61.399.645 1.21.874 1.802.508.723-.446.873.288.457 2.234-.615 2.882-.612 2.885.577.399.658-1.375 1.594-2.781 2.08-3.125.487-.344.386-.933-.222-1.309-.609-.376-1.107-.25-1.107.281m95.632-.061c-.775 1.255 1.094 14.34 2.208 15.454.552.552.78 1.736.506 2.632-.401 1.313-.279 1.288.633-.13.621-.967.873-2.173.559-2.681-.314-.507-.044-1.248.6-1.646.731-.452.903-.291.457.43-.392.635-.236 1.155.346 1.155s1.059 1.283 1.059 2.851c0 4.35 1.997 9.14 3.848 9.228 1.038.05 1.188.266.402.583-.687.278-1.214 1.255-1.171 2.171.049 1.04.269 1.197.583.417.803-1.988 2.338-1.449 2.338.821 0 1.14.675 2.747 1.5 3.572s1.5 1.108 1.5.628c0-.479-.501-1.372-1.112-1.983-.612-.612-.925-1.678-.694-2.369.23-.691 1.193.376 2.139 2.37 2.157 4.545 4.226 6.076 3.317 2.453-.353-1.406-.956-3.386-1.34-4.399-.665-1.755-.614-1.759 1.065-.095 1.325 1.313 2.227 1.5 3.625.752 1.455-.779 1.96-.615 2.311.752.501 1.947.092-3.838-.761-10.752-.405-3.283-.074-2.607 1.222 2.5.996 3.929 2.098 6.488 2.509 5.834.403-.641.291-2.329-.249-3.75-1.115-2.932-.353-3.405 1.47-.913.708.969 2.857 1.771 5.11 1.909 2.138.131 3.326.016 2.638-.254-.687-.271-1.25-.98-1.25-1.576s.296-.787.658-.425 1.262.156 2-.456c1.041-.864 1.349-.693 1.374.759.039 2.289 2.96 6.512 2.983 4.313.013-1.218.178-1.209 1.066.059.822 1.174.913 1.011.417-.75-.728-2.587.948-3.062 2.297-.651.688 1.228.915.894.981-1.443.06-2.087-.315-2.886-1.197-2.548-.706.271-2.094-.768-3.086-2.308-1.787-2.776-1.785-2.785.181-1.05 3.435 3.031 4.253 2.158 2.728-2.909-2.471-8.21-1.391-7.127 1.653 1.659 1.62 4.674 2.945 8.629 2.945 8.788s1.006-.648 2.237-1.794c1.794-1.672 1.964-2.251.861-2.933-1.166-.721-1.166-1.073.001-2.322 1.209-1.294 1.529-1.277 2.641.144 1.123 1.435 1.205 1.392.732-.383l-.534-2 1.015 2c.559 1.1 1.485 3.3 2.059 4.889.574 1.588 1.298 2.635 1.608 2.325.544-.544-.414-4.064-3.255-11.964-.806-2.24-.949-3.75-.357-3.75.546 0 .992.342.992.76 0 1.1 5.118 6.456 5.655 5.918.249-.249-.47-1.966-1.597-3.815-2.366-3.88-2.6-5.285-.763-4.58 1.214.466 1.36-.609.834-6.14-.071-.746-.749-1.119-1.507-.828s-1.879.028-2.491-.584-4.604-1.231-8.872-1.376-10.009-.503-12.759-.796-11.075-.788-18.5-1.099c-7.425-.312-14.485-.769-15.689-1.017s-2.409-.093-2.679.343M99.158 124c0 1.375.227 1.938.504 1.25.278-.687.278-1.812 0-2.5-.277-.687-.504-.125-.504 1.25m80.592-1.268c2.338.211 6.162.211 8.5 0 2.338-.21.425-.383-4.25-.383s-6.588.173-4.25.383M165 126.06c0 .556.771 2.187 1.713 3.625s1.797 3.18 1.898 3.871c.102.691.702 2.086 1.334 3.1 1.056 1.692 1.103 1.667.569-.301-.556-2.049-.132-2.706 4.005-6.194 2.112-1.782 1.441-3.404-1.572-3.798a134 134 0 0 1-5.197-.817c-1.513-.273-2.75-.041-2.75.514m-154.427.835c-1.653.648-1.7.842-.333 1.367.924.355 1.826.008 2.146-.825.303-.79.453-1.405.333-1.367-.121.039-1.086.41-2.146.825M99.5 128c.34.55.816 1 1.059 1s.441-.45.441-1-.477-1-1.059-1-.781.45-.441 1m62.5.882c0 .55.45 1.278 1 1.618s1 .168 1-.382-.45-1.278-1-1.618-1-.168-1 .382M8.5 130c-.34.55.11 1 1 1s1.34-.45 1-1-.79-1-1-1-.66.45-1 1m134.5 0c-1.282.828-1.246.972.25.985.963.008 1.75-.435 1.75-.985 0-1.22-.113-1.22-2 0m17-.059c0 .518.445 1.216.989 1.552.566.35.734-.051.393-.941-.665-1.732-1.382-2.049-1.382-.611M.158 134c0 1.375.227 1.938.504 1.25.278-.687.278-1.812 0-2.5-.277-.687-.504-.125-.504 1.25m7.342-1c.34.55 1.041 1 1.559 1s.941-.45.941-1-.702-1-1.559-1-1.281.45-.941 1m92.579 1.583c.048 1.165.285 1.402.604.605.289-.722.253-1.585-.079-1.917s-.568.258-.525 1.312m73 2c.048 1.165.285 1.402.604.605.289-.722.253-1.585-.079-1.917s-.568.258-.525 1.312M.343 144.5c.003 4.4.179 6.076.39 3.724s.209-5.952-.006-8-.388-.124-.384 4.276m99.815-2.5c0 1.375.227 1.938.504 1.25.278-.687.278-1.812 0-2.5-.277-.687-.504-.125-.504 1.25m64.921 6.583c.048 1.165.285 1.402.604.605.289-.722.253-1.585-.079-1.917s-.568.258-.525 1.312M8.408 152.641c-.376 2.002-1.483 5.827-2.46 8.5s-1.477 4.856-1.112 4.852c1.799-.018 5.509-7.527 5.941-12.023.564-5.872-1.319-6.928-2.369-1.329M144 155.006c0 .547.445.994.988.994.544 0 .881.959.75 2.13-.15 1.346.384 2.231 1.45 2.403 1.403.226 1.53-.145.75-2.196-1.23-3.236-1.167-4.204.153-2.337.824 1.164.976 1.185.682.092-.433-1.61-4.773-2.597-4.773-1.086m5.667 1.661c-.956.955-.822 2.333.226 2.333.491 0 1.152-.675 1.469-1.5.585-1.524-.481-2.048-1.695-.833M.419 181c0 10.725.147 15.113.327 9.75.179-5.363.179-14.137 0-19.5-.18-5.363-.327-.975-.327 9.75"/><path fill-opacity=".18" fill-rule="evenodd" d="M.208 7.75.5 15.5l2.764-.19c2.992-.206 8.249 4.051 7.166 5.803-.394.638-1.049.618-1.861-.056-.689-.572-1.549-.744-1.911-.382S6 20.856 6 20.274c0-1.292-2.838-2.492-4.079-1.725-.494.305-.177 1.657.705 3.003C4.154 23.883 4.129 24 2.115 24H0v50.559c0 33.992.333 50.353 1.016 49.931.559-.346.758-1.047.441-1.559-.316-.512.112-.931.953-.931.922 0 1.307-.574.972-1.447-.466-1.214-.14-1.254 2.024-.25C8.053 121.532 8.863 123 6.893 123c-.609 0-.848.675-.531 1.5s.113 1.5-.452 1.5-.769.419-.453.931c.317.512.111 1.218-.457 1.569s-.793 1.026-.5 1.5.068 1.149-.5 1.5-.774 1.057-.457 1.569c.316.512.05.931-.591.931s-.921.638-.622 1.417c.299.78-.027 1.637-.726 1.905-.796.305-1.351 2.751-1.488 6.571-.191 5.272-.002 6 1.416 5.456 1.184-.454 1.303-.833.432-1.371-.863-.534-.674-1.052.666-1.831 1.409-.818 1.5-1.102.37-1.148-1.151-.048-1.049-.404.441-1.531 1.4-1.058 1.539-1.477.5-1.5s-.899-.441.5-1.5 1.539-1.476.5-1.498c-1.053-.023-.964-.308.33-1.062.974-.567 1.51-1.453 1.191-1.969-.319-.517.234-.946 1.229-.954 1.552-.013 1.596-.166.309-1.076-1.072-.758-1.159-1.201-.306-1.55.656-.268.946-1.134.643-1.924-.303-.789-.026-1.435.615-1.435s.888-.45.548-1-.156-1 .41-1c.565 0 .74-.788.389-1.75-.643-1.764-.366-1.608 4.701 2.649.275.231-.338.118-1.361-.251-1.369-.493-1.715-.287-1.307.776.306.796.018 1.667-.638 1.935-.853.349-.766.792.306 1.55 1.279.904 1.224 1.063-.372 1.076-1.551.012-1.659.273-.628 1.515 1.023 1.232.945 1.5-.437 1.5-.924 0-1.422.419-1.106.931a1.095 1.095 0 0 1-.352 1.504c-.51.316-.805 1.697-.654 3.069.151 1.373-.162 2.496-.696 2.496s-.71.675-.393 1.5.091 1.5-.5 1.5c-.592 0-.828.646-.525 1.435.303.79.217 1.577-.191 1.75s-1.96 3.69-3.449 7.815c-2.549 7.063-2.706 8.505-2.702 24.755L0 200.01l100.25-.255 100.25-.255.089-18.5c.049-10.175-.176-15.575-.5-12-.35 3.861-.917 5.993-1.398 5.25-1.129-1.745-2.691-1.561-2.691.317 0 1.093-.584 1.382-1.926.957-1.265-.402-2.284.004-2.969 1.182-.654 1.123-1.056 1.295-1.075.461-.016-.734-.593-1.136-1.28-.893-.695.244-2.23-1.385-3.455-3.667-1.265-2.357-2.224-3.361-2.25-2.357-.025.963-.383 1.638-.795 1.5-.647-.216-1.403.752-1.173 1.5.498 1.616.239 6.445-.327 6.096-.412-.255-.75-.94-.75-1.521s-1.664-3.324-3.699-6.095c-4.126-5.622-5.871-4.725-2.081 1.07 1.331 2.035 2.727 4.6 3.102 5.7.634 1.857.585 1.875-.68.25-1.854-2.382-2.561-2.198-1.923.5.524 2.22.51 2.223-1.062.25-1.426-1.79-1.597-1.816-1.625-.25-.019 1.019-.763 1.717-1.782 1.671-1.045-.047-1.247-.282-.5-.583.687-.278 1.25-.877 1.25-1.333 0-.964-1.951-.792-3.75.332-.687.43-1.25.363-1.25-.148s-1.012-.875-2.25-.809c-1.706.091-2.818-.968-4.598-4.38-2.346-4.495-2.465-3.052-.312 3.769.597 1.892.637 3.026.096 2.691-.515-.318-.972.911-1.017 2.731l-.081 3.309-1.75-3.748c-2.335-4.999-3.4-5.925-2.588-2.25.501 2.271.403 2.634-.404 1.498-.586-.825-1.072-1.057-1.081-.516-.008.542-.864-.583-1.901-2.5-1.037-1.916-1.686-3.822-1.441-4.234.245-.413.011-.75-.519-.75-.543 0-.752 1.854-.479 4.25.266 2.338.111 3.8-.345 3.25-.457-.55-1.831-1.559-3.053-2.242-2.081-1.162-2.202-1.066-1.879 1.5.189 1.508.144 2.18-.1 1.492-.245-.687-.899-1.25-1.455-1.25-.555 0-.824-.558-.596-1.241.402-1.207-1.46-3.759-2.743-3.759-.351 0-.365.862-.031 1.916.335 1.054.16 2.193-.389 2.532-.548.339-.807 1.164-.574 1.834.232.67.081 2.793-.335 4.718-.706 3.263-.882 2.906-2.598-5.273-1.013-4.825-2.308-9.061-2.879-9.414-.668-.413-.767.041-.278 1.273 1.818 4.58 2.828 14.149 1.692 16.029-1.01 1.671-1.075 1.599-.574-.639.311-1.387.12-3.637-.423-5-.849-2.128-.999-2.195-1.067-.476-.066 1.679-.242 1.76-1.1.5-.744-1.091-.878-.41-.492 2.5.486 3.669.449 3.752-.447 1-.538-1.65-.729-3.787-.426-4.75.311-.986.039-1.75-.623-1.75-.646 0-.909-.689-.586-1.532.459-1.195-.011-1.443-2.143-1.127-1.714.254-2.593.917-2.359 1.781 1.228 4.551 1.005 4.927-.836 1.408-3.066-5.862-3.572-5.95-3.195-.556.188 2.682-.175 5.698-.808 6.701-.68 1.08-.992 1.221-.765.346.212-.813-.872-3.868-2.409-6.788s-2.358-5.041-1.826-4.713.967-.104.967-.961-.388-1.559-.861-1.559c-.474 0-.659-1.061-.411-2.359.296-1.545-.101-2.57-1.151-2.973-1.28-.491-1.481-.132-.999 1.786.331 1.321.126 3.221-.457 4.224-1.021 1.754-1.061 1.753-1.091-.035-.019-1.196-.541-1.661-1.465-1.306-1.427.547-1.665-.546-2.906-13.337-.186-1.925-.463 1.9-.615 8.5s-.483 11.207-.736 10.238-.843-1.525-1.312-1.236c-.468.29-1.169-.472-1.557-1.693-.437-1.379-.259-2.369.47-2.612.778-.259.847-.786.203-1.562-.792-.954-1.663-7.076-2.046-14.385-.036-.688-.628-1.138-1.316-1-2.01.402-2.056-24.853-.052-27.913.837-1.277 1.289-2.928 1.004-3.67s-.146-1.949.308-2.684c.687-1.11 5.6-1.041 29.158.408 15.583.959 32.607 1.97 37.832 2.247s12.753.916 16.728 1.42c7.794.988 19.924.194 18.518-1.212-.472-.472-10.282-1.296-21.802-1.833s-23.194-1.194-25.944-1.463c-2.75-.268-11.439-.773-19.308-1.121-7.87-.348-15.52-.977-17-1.398-1.515-.431 1.679-.606 7.308-.402 5.5.2 10 .411 10 .47s3.15.252 7 .43c3.85.177 8.912.608 11.25.958 3.524.527 4.25.357 4.25-.997 0-1.484.143-1.49 1.571-.061 1.891 1.89 3.423 2.033 3.444.321.012-.942.222-.924.856.075.533.842 2.443 1.235 5.234 1.079 2.417-.135 5.228.122 6.246.571 1.231.543 2.147.349 2.735-.579.486-.768.89-.895.899-.282.017 1.236 7.785 1.567 8.529.363.255-.413-.212-1.311-1.037-1.996-1.155-.959-1.235-1.568-.348-2.637.916-1.103.831-1.266-.411-.789-.998.383-1.997-.207-2.758-1.629-1.061-1.984-.987-2.157.674-1.573 1.294.455 1.028-.093-.868-1.786l-2.733-2.443 2.233-.753c1.229-.415 3.134-.68 4.234-.588 1.1.091 1.438-.085.75-.392s-1.264-1.308-1.282-2.224c-.029-1.516-.152-1.508-1.36.083-1.603 2.111-2.755 2.298-1.998.323.4-1.042-.013-1.28-1.531-.883-1.465.383-2.079.071-2.079-1.054 0-.879-1.08-1.869-2.399-2.2-1.364-.342-2.603-1.538-2.872-2.769-.259-1.192-.84-3.052-1.291-4.134-.731-1.757-.649-1.81.767-.5.872.807 1.33 1.917 1.018 2.467s.411.143 1.605-.905c2.7-2.368 2.702-2.546.016-1.844-1.489.389-1.933.202-1.434-.605.47-.761-.349-1.384-2.344-1.783-2.113-.422-3.066-1.196-3.066-2.488 0-1.031-.436-1.875-.969-1.875s-.709.675-.393 1.5c.317.825.078 1.5-.531 1.5S164 88.1 164 87c0-1.145-.667-2-1.559-2-.857 0-1.281.45-.941 1s.141 1-.441 1-1.066-1.237-1.074-2.75c-.02-3.52-1.107-5.196-3.694-5.694-1.623-.312-1.955.012-1.56 1.523.276 1.057.048 1.921-.507 1.921-.986 0-2.456-2.5-2.647-4.5-.052-.55-1.514-1-3.249-1-3.44 0-5.858-1.426-2.745-1.618 1.055-.066 2.288-.054 2.741.024.454.079.586-.243.294-.714-.913-1.479-6.805-.121-6.209 1.43.29.758.205 1.382-.19 1.386-.396.004-1.26 1.172-1.92 2.596-1.158 2.494-1.103 2.565 1.5 1.962 1.872-.434 2.264-.336 1.278.319-1.146.763-.705 1.643 2.269 4.531 2.03 1.971 3.203 3.584 2.608 3.584-.596 0-2.246-1.381-3.666-3.07-1.955-2.323-2.787-2.749-3.42-1.75-.613.966-.846.783-.868-.68-.024-1.535-.234-1.678-.907-.616-.482.761-.679 2.634-.438 4.162.24 1.528.014 3.04-.503 3.36s-.946-.429-.953-1.663c-.047-7.815-1.147-10.927-2.561-7.243-.781 2.035-2.403 1.895-2.883-.25-.215-.963-.592.108-.838 2.378-.355 3.284-.154 4.017.982 3.58.786-.301 1.178-.134.87.372s.023 1.457.734 2.114c1.019.942 1.401.782 1.802-.752.309-1.181-.139-2.309-1.14-2.869-.906-.508-1.31-1.261-.896-1.675.723-.723 3.634 2.308 3.699 3.852.018.412-.83 1.612-1.885 2.667-1.054 1.054-1.692 2.14-1.419 2.414.274.274.001 1.426-.606 2.561-.913 1.705-.84 1.962.419 1.479 1.191-.457 1.523.202 1.523 3.022 0 2.54.444 3.607 1.5 3.607 1.817 0 1.99 1.63.25 2.353-.687.286-.143.436 1.209.334 1.688-.128 2.58.399 2.846 1.681.243 1.175-.023 1.615-.718 1.186-1.573-.972-5.087.334-5.087 1.891 0 .721.761 1.928 1.692 2.683s1.383.857 1.006.227c-.378-.63-.07-1.382.683-1.671.916-.352 1.369.242 1.369 1.795 0 1.97-.511 2.321-3.378 2.321-3.297 0-5.843-1.81-3.599-2.558.77-.256.834-1.145.202-2.809-.802-2.108-.639-2.433 1.216-2.433 1.178 0 1.805-.337 1.392-.75-.412-.412-1.275-.758-1.916-.767-.642-.009-1.138-.956-1.103-2.103.057-1.877-.29-2.006-3.472-1.288-3.429.773-5.956.119-3.253-.842.911-.324.591-.869-1-1.703-1.467-.769-2.991-.9-4.089-.351-.963.481-1.77.746-1.795.589s-.294-2.76-.598-5.785c-.305-3.025-1.023-6.073-1.597-6.773-.798-.974-.619-1.11.763-.58 1.339.514 1.594.351.987-.632q-.817-1.322.335-.61c.635.392 1.216 1.924 1.291 3.404.119 2.357.19 2.412.57.441.238-1.237 1.107-2.25 1.931-2.25 1.043 0 1.305-.608.863-2-.378-1.192-.18-2 .492-2 .619 0 .848.45.508 1s-.141 1 .441 1 1.059.713 1.059 1.583c0 .871.534 1.406 1.188 1.188 1.561-.521 2.288-2.771.895-2.771-1.272 0-5.083-3.623-5.083-4.833 0-.459-.668-.834-1.484-.834-.921 0-1.162.412-.636 1.084 1.081 1.382 1.049 4.583-.047 4.583-.458 0-.833-.623-.833-1.383 0-.761-.787-1.645-1.75-1.964-.962-.318-2.755-1.321-3.983-2.227-2.138-1.577-2.273-1.54-3.194.883-.529 1.391-1.572 2.903-2.318 3.36-2.017 1.236-5.792 6.961-5.067 7.685.345.346 1.318.07 2.162-.613 1.224-.99 1.382-.988.783.009-.485.807-.14 1.25.975 1.25.949 0 1.409.317 1.021.704-.387.387-1.924.725-3.416.75-2.308.039-2.759.523-3.022 3.241-.17 1.757.408 4.29 1.286 5.629 1.406 2.147 1.417 2.503.091 3.012-2.245.861-3.026-1.193-2.886-7.586.079-3.621-.246-5.52-.878-5.129-1.846 1.141 1.449-4.089 4.172-6.621 3.681-3.424 4.249-5.526 2.574-9.534-1.089-2.608-1.147-3.605-.24-4.189 3.099-1.996 6.07-3.277 7.604-3.277.927 0 2.226-.54 2.886-1.2 1.371-1.371 1.456-.223.2 2.7-.473 1.1-.891 1.438-.93.75-.038-.687-.517-1.25-1.064-1.25-.813 0-.793 2.814.035 5 .104.275.121 1.219.037 2.097s.613 2.228 1.549 3c1.549 1.278 1.597 1.209.537-.781-1.431-2.685-1.483-3.631-.156-2.811.554.342 1.679-.049 2.5-.87 1.908-1.908 1.905-2.731-.008-1.997-.825.317-1.5.078-1.5-.531 0-1.998 3.046-1.157 3.869 1.069l.806 2.177.554-2.121c.449-1.717.004-2.241-2.337-2.756-3.358-.737-3.493-1.154-1.198-3.69 1.582-1.749 1.583-1.829.008-1.225-2.118.813-3.068-1.397-1.927-4.482.476-1.288.434-4.86-.097-8.157-.782-4.857-.664-6.295.689-8.359 2.359-3.6 2.072-3.828-2.123-1.688-5.09 2.597-7.607 2.899-9.699 1.163-1.567-1.301-1.914-1.246-3.15.5l-3.142 4.438c-3.677 5.194-6.338 7.049-8.473 5.906-1.562-.836-3.265-.489-7.982 1.628-4.363 1.958-6.296 2.392-7.097 1.591S76.191 61 77.769 61c1.63 0 2.006-.422 1.516-1.699-.408-1.063-.802-1.251-1.052-.5-.22.659-1.037 1.199-1.816 1.199S75 60.45 75 61s-.723 1-1.607 1c-1.096 0-1.413-.556-.998-1.75.536-1.537.458-1.563-.643-.214-.688.845-2.039 1.375-3.002 1.177-2.034-.418-2.309-1.821-.5-2.551.747-.301.545-.536-.5-.583-.963-.043-1.807.484-1.878 1.171s-.304 2.375-.521 3.75a128 128 0 0 0-.539 3.75c-.08.688-.483 1.25-.896 1.25s-1.524 2.025-2.469 4.5c-1.792 4.692-2.517 5.036-8.222 3.895-2.724-.545-2.948-.868-2.249-3.25 1.08-3.681 17.647-43.485 20.103-48.3 2.261-4.431 4.667-5.862 6.319-3.757C78.629 22.655 81 23.42 81 22.25c0-1.167 4.172-1.446 22.5-1.503 14.927-.047 16.024-.155 9-.88-16.335-1.686-18.515-2.034-17.997-2.872.292-.472-.471-1.56-1.696-2.417-3.512-2.461-1.094-4.002 4.089-2.606 3.961 1.067 6.63.688 5.704-.81-.237-.384 1.243-.539 3.29-.344 4.741.452 7.177-1.88 5.226-5.004-.857-1.372-.891-1.793-.106-1.308.78.482 1.049-.055.824-1.645-.318-2.25-.746-2.375-9.084-2.65C97.938.052 94 .206 94 .553s.9 1.776 2 3.174c1.1 1.399 1.997 3.27 1.994 4.158s-.692.265-1.53-1.385C93.189.053 93.089.03 68.195.042c-21.948.01-22.697.077-25.151 2.234L40.514 4.5l1.898-2.25L44.31 0H-.084zm113.024-6.555c.412 1.237 2.518 1.979 9.116 3.213 2.627.491 3.64.382 3.191-.344-.364-.59.089-1.064 1.019-1.064 1.153 0 1.521.592 1.179 1.899-.386 1.476.172 2.033 2.508 2.5 4.71.942 8.607.711 10.769-.64 1.569-.98 2.397-.983 3.946-.016 1.079.674 2.659.957 3.512.629q1.55-.596 1.039.767c-.313.834 1.009 2.227 3.415 3.598 3.529 2.011 11.626 3.447 25.324 4.49 1.894.144 2.75.764 2.75 1.994 0 .981 1.796 3.407 3.992 5.39 4.086 3.692 4.385 5.389.949 5.389-2.546 0-2.497 1.689.074 2.505 1.108.351 1.754 1.06 1.436 1.574s.126 1.205.986 1.535c.859.33 1.563 1.189 1.563 1.91s.563 1.536 1.25 1.814c.697.281.366.583-.75.683-1.711.153-1.649.276.426.856 1.334.373 2.63 1.291 2.88 2.04.273.82.004 1.084-.676.663-1.544-.954-1.431.967.153 2.599.706.726 2.393 2.896 3.75 4.821l2.467 3.5.5-15.5c.275-8.525.359-20.562.188-26.75L199.875 0h-14.619l-.64 4c-.352 2.2-1.115 4-1.695 4s-.8-.9-.488-2c1.884-6.641 3.431-6-14.482-6-15.512 0-16.163.08-15.678 1.935.292 1.119-.08 2.161-.884 2.469-.797.306-1.389-.093-1.389-.935 0-1.792-1.641-1.945-2.338-.219-.277.688-.54.238-.583-1C147.002.058 146.717 0 136 0c-6.05 0-11.002.337-11.004.75-.003.413-1.578.831-3.5.929-1.923.098-3.496-.239-3.496-.75S116.838 0 115.417 0c-1.56 0-2.426.474-2.185 1.195M101 3.059c0 .582.45.781 1 .441s1-.816 1-1.059S102.55 2 102 2s-1 .477-1 1.059m30.78.745c-.958 1.183-.969 1.393-.043.837.68-.408 2.904-.282 4.943.281 3.538.977 5.328.753 4.066-.509-.323-.324-2.185-.948-4.137-1.388-2.732-.617-3.845-.437-4.829.779m55.725 4.167c-.91 5.387.04 6.337 1.402 1.403.603-2.183.679-4.188.177-4.69-.501-.501-1.177.905-1.579 3.287M38.348 7.25c-2.183 2.456-2.078 5.256.232 6.142 1.194.459 1.263.184.372-1.482-.846-1.58-.732-2.597.5-4.477 1.995-3.045 1.512-3.125-1.104-.183m39.921 4.443c.973.254 2.323.237 3-.037s-.119-.481-1.769-.461-2.204.244-1.231.498M36 16.104c0 .828-1.371 3.667-3.047 6.309s-2.896 5.257-2.712 5.809 2.057-1.785 4.161-5.194c2.812-4.557 3.531-6.495 2.712-7.314S36 14.999 36 16.104m7.647 4.146c-.77 1.238-3.039 5.175-5.044 8.75-2.714 4.841-3.01 5.742-1.162 3.532C39.975 29.501 46.366 18 45.515 18c-.258 0-1.099 1.012-1.868 2.25m21.74 8.5c-1.388 4.417-2.467 6.319-3.294 5.808-.494-.306-1.369.794-1.944 2.443S58.703 40 58.213 40c-1.037 0-3.589 4.805-3.718 7-.049.825-.536 1.419-1.083 1.32-.562-.102-.82 1.309-.594 3.25.255 2.178-.026 3.43-.768 3.43-.642 0-.876.473-.519 1.05s-.061 2.546-.928 4.374-1.721 4.269-1.898 5.424-.632 2.412-1.013 2.793S47 70.185 47 71.226c0 1.175-.437 1.622-1.155 1.179-.709-.439-.883-.275-.451.423.387.626.401 2.748.032 4.715-.497 2.647-1.066 3.425-2.19 2.994-1.203-.462-1.278-.292-.36.813.637.768.854 2.241.482 3.273s-.422 1.652-.11 1.377c.311-.275 2.237-4.55 4.28-9.5s5.707-13.441 8.143-18.868C60.993 45.774 68 28.792 68 27.75c0-1.499-2.077-.704-2.613 1m-13.292 5.047c-1.245 2.658-2.113 6.011-1.929 7.452.279 2.189.762 1.576 2.942-3.737 3.106-7.57 2.255-10.693-1.013-3.715m-13.013 4.571C36.96 41.8 36.348 45 37.812 45 39.208 45 43 39.182 43 37.04c0-3.014-1.562-2.484-3.918 1.328M41 45.159a398 398 0 0 0-4.5 7.671c-1.1 1.941-2.574 3.639-3.275 3.774s-.814.017-.25-.262c.564-.28 1.025-.948 1.025-1.484 0-.537-.495-.67-1.1-.296-.773.477-.762.049.035-1.441 1.511-2.823-.263-2.723-2.292.129-1.045 1.468-1.398 1.642-1.015.5.809-2.416-.865-2.202-2.435.313-1.334 2.136-.769 5.937.883 5.937.517 0 .392.88-.28 1.955-.671 1.075-.875 2.299-.454 2.721.422.421 1.147.151 1.611-.6.661-1.069.932-.955 1.247.529.31 1.459 1.219.628 3.948-3.605 1.95-3.025 3.921-6.85 4.379-8.5.715-2.573.887-2.696 1.208-.864.206 1.175-.549 3.65-1.677 5.5-2.257 3.703-2.633 5.337-.994 4.324.586-.361-.34 2.124-2.056 5.524-4.544 9.001-3.076 9.821 1.81 1.01C40.87 60.687 42.022 57.251 40 58.5c-.55.34-1 .168-1-.382s.496-1.306 1.102-1.681c2.365-1.462 6.205-15.447 4.236-15.429-.461.004-1.963 1.872-3.338 4.151M31.158 47c0 1.375.227 1.938.504 1.25.278-.687.278-1.812 0-2.5-.277-.687-.504-.125-.504 1.25M46.6 48.6c-.356.927-.422 1.911-.147 2.186s.791-.259 1.147-1.186.422-1.911.147-2.186-.791.259-1.147 1.186m24.9-.6c-.34.55.11 1 1 1s1.34-.45 1-1-.79-1-1-1-.66.45-1 1m1.798 2.631c.347.348.229 1.385-.263 2.304-.541 1.01-.51 2.246.076 3.119.839 1.247.95 1.24.812-.054-.304-2.85.081-4.116 1.066-3.507.566.35.734-.051.393-.941-.328-.854-1.073-1.552-1.656-1.552-.582 0-.775.284-.428.631M77 51c0 .55.477 1 1.059 1s.781-.45.441-1-.816-1-1.059-1-.441.45-.441 1m-8.596 3.25c-1.636 3.229-1.634 3.237.306 1.25 1.074-1.1 1.954-2.562 1.955-3.25.003-1.942-.479-1.515-2.261 2M174.5 52c.34.55.816 1 1.059 1s.441-.45.441-1-.477-1-1.059-1-.781.45-.441 1m23.233 2.124c.679.684 1.486.991 1.793.683.308-.308-.247-.867-1.233-1.243-1.425-.542-1.54-.428-.56.56M74.638 57.5c-.316.825-.139 1.5.393 1.5.533 0 .969-.675.969-1.5s-.177-1.5-.393-1.5-.652.675-.969 1.5M32 66.057c-1.925 2.055-3.455 4.233-3.4 4.84s.174 1.89.265 2.853c.096 1.007 1.687-.935 3.748-4.57 1.969-3.475 3.425-6.441 3.234-6.59S33.925 64.001 32 66.057m36.869-1.715c.612.738.78 1.71.372 2.16-.407.45-.198.507.465.126 1.361-.78.626-3.628-.935-3.628-.639 0-.602.498.098 1.342m4.893 1.731c-.955.557-2.266 2.001-2.913 3.208-.933 1.745-.525 1.582 1.988-.789 3.975-3.752 4.193-4.323.925-2.419m67.268 1.177c-.016 1.513-.535 2.75-1.152 2.75-.732 0-.648.572.242 1.644 1.218 1.468 1.096 1.576-1.128 1.009-1.371-.349-1.927-.375-1.236-.058s1.013.969.716 1.45.894.375 2.647-.236c2.776-.968 2.979-1.264 1.569-2.295-1.148-.84-1.308-1.494-.55-2.252.759-.759.758-1.605-.004-2.916-.953-1.64-1.077-1.539-1.104.904m56.783-1.567c.721.289 1.584.253 1.916-.079s-.258-.568-1.312-.525c-1.165.048-1.402.285-.604.604M66.638 69.5c.317.825.753 1.5.969 1.5s.393-.675.393-1.5-.436-1.5-.969-1.5-.709.675-.393 1.5m116.441.25c.047 1.045.282 1.247.583.5.641-1.588 3.571-1.617 5.138-.05.803.803 1.2.838 1.2.107 0-1.261-2.305-2.307-5.082-2.307-1.19 0-1.888.664-1.839 1.75M131.5 70c-.34.55-.168 1 .382 1s1.278-.45 1.618-1 .168-1-.382-1-1.278.45-1.618 1m61.403.06c-.629.389.71.884 2.977 1.1s4.12.095 4.12-.27c0-.978-5.766-1.653-7.097-.83M148 70.882c0 .55.45 1.278 1 1.618s1 .168 1-.382-.45-1.278-1-1.618-1-.168-1 .382m3.735 1.618c.547 1.1 1.198 2.652 1.446 3.449.395 1.266.52 1.266.991 0 .297-.797-.354-2.349-1.446-3.449l-1.985-2zM193 73c0 .55.477 1 1.059 1s.781-.45.441-1-.816-1-1.059-1-.441.45-.441 1M42.651 76.468c-.31.807-.227 1.676.185 1.931.412.254.814-.406.894-1.468.173-2.297-.298-2.499-1.079-.463m24.962-.285c.289.467.944.591 1.456.274 1.308-.808 1.161-1.124-.525-1.124-.801 0-1.22.383-.931.85m61.894.806c-.35.566.051.734.941.393 1.732-.665 2.049-1.382.611-1.382-.518 0-1.216.445-1.552.989m31.308.226c.592.592.818 2.369.502 3.949-.473 2.366-.287 2.762 1.054 2.247.901-.346 1.629-.13 1.629.482 0 .609.389 1.107.863 1.107 1.177 0 .881-3.901-.363-4.788-.55-.391-1-1.344-1-2.117s-.846-1.529-1.881-1.68c-1.343-.197-1.573.031-.804.8M134 77.393c0 .216.675.652 1.5.969s1.5.139 1.5-.393c0-.533-.675-.969-1.5-.969s-1.5.177-1.5.393m10 .811c0 .438.963.796 2.14.796s2.737.787 3.468 1.75c1.512 1.992 1.857.533.413-1.75-.977-1.547-6.021-2.214-6.021-.796M127 79c0 .55-.6 1-1.333 1-.734 0-1.334.632-1.334 1.404 0 1.112.383 1.166 1.834.26 1.64-1.025 2.601-3.664 1.333-3.664-.275 0-.5.45-.5 1m40.36 3.407c.077 1.243.606 2.26 1.176 2.26 1.43 0 1.309-3.512-.14-4.068-.707-.272-1.12.448-1.036 1.808m-21.36.65c-1.375.409-2.05.814-1.5.901 3.156.496 8.705.921 8.381.641-1.697-1.464-4.802-2.16-6.881-1.542m11.079.526c.048 1.165.285 1.402.604.605.289-.722.253-1.585-.079-1.917s-.568.258-.525 1.312M176 83c0 .55.477 1 1.059 1s.781-.45.441-1-.816-1-1.059-1-.441.45-.441 1m21 0c0 .55.45 1 1 1s1-.45 1-1-.45-1-1-1-1 .45-1 1m-69.667 1.333c0 .734.6 1.334 1.334 1.334.733 0 1.333-.6 1.333-1.334 0-.733-.6-1.333-1.333-1.333-.734 0-1.334.6-1.334 1.333m27.305.167c.326.849.024 1.5-.698 1.5-.7 0-.936.338-.523.75.412.412 1.237.75 1.833.75s1.271.563 1.5 1.25-.079 1.25-.686 1.25c-.681 0-.873 1.051-.504 2.75l.598 2.75-2.001-2.472c-1.1-1.36-1.784-2.822-1.52-3.25.265-.428.004-.778-.578-.778-1.374 0-1.368 1.691.009 2.542.588.363.789 1.389.447 2.279-.341.89-.301 1.298.09.907s1.275-.243 1.964.329c1.525 1.266 2.885-.431 2.063-2.573-.299-.781-.121-1.682.398-2.002.983-.608.801-2.755-.487-5.732-.921-2.128-2.716-2.364-1.905-.25m32.862.5c-.34.55-.168 1 .382 1s1.278-.45 1.618-1 .168-1-.382-1-1.278.45-1.618 1m-11.93 1.887c-.662 1.071 2.219 3.657 3.097 2.779.341-.34-.118-.902-1.018-1.247-.901-.346-1.389-1.031-1.084-1.524.304-.492.328-.895.053-.895s-.747.399-1.048.887m11.43 2.21c0 1.663.314 1.805 2 .903 1.1-.589 2-1.409 2-1.822s-.9-.82-2-.903c-1.375-.104-2 .466-2 1.822m-45-.156c0 .518.375 1.173.833 1.456.459.283.834-.14.834-.941S143.292 88 142.833 88s-.833.423-.833.941m19.5.059c.34.55.816 1 1.059 1s.441-.45.441-1-.477-1-1.059-1-.781.45-.441 1m-1.577 1.25c-.609 1.99-.577 3.75.068 3.75.447 0 1.284 1.35 1.859 3s1.3 3 1.611 3-.167-1.687-1.062-3.75c-.896-2.062-1.652-4.312-1.68-5-.045-1.08-.569-1.739-.796-1M115 92c0 .55.45 1 1 1s1-.45 1-1-.45-1-1-1-1 .45-1 1m7.7.661c.28.73.912 1.079 1.405.774 1.369-.846 1.065-2.102-.51-2.102-.772 0-1.175.598-.895 1.328m17.3-.22c0 .857.45 1.559 1 1.559s1-.423 1-.941-.45-1.219-1-1.559-1 .084-1 .941m4.459-.374c-.363.586-.389 1.336-.059 1.666s.607-.037.615-.816c.013-1.167.187-1.152.985.083.828 1.282.972 1.246.985-.25.017-1.937-1.498-2.347-2.526-.683M178 91.54c0 .298.961 1.84 2.135 3.428s1.879 3.553 1.567 4.367c-.375.976.517 2.015 2.615 3.05 1.751.863 2.822 1.58 2.381 1.592-.44.013.388 1.125 1.841 2.472s2.348 2.925 1.988 3.507.135 1.361 1.1 1.731c1.008.387 1.92.172 2.146-.507.217-.649 1.631-1.18 3.144-1.18 1.777 0 2.75-.53 2.75-1.5 0-1.721-.576-1.843-2.612-.555-1.673 1.058-7.443-2.507-6.508-4.021.314-.508.207-.924-.238-.925-.445 0-.873-1.109-.951-2.463-.175-3.04-2.543-5.536-5.251-5.536-1.12 0-2.518-.9-3.107-2-.967-1.808-3-2.796-3-1.46m3.636.954c.316.822.984 1.241 1.485.931 1.049-.648.207-2.425-1.149-2.425-.5 0-.651.672-.336 1.494m-56.354 1.426c-.791 1.266-2.01 1.707-3.962 1.433-2.608-.366-2.651-.321-.57.593 2.301 1.012 3.098 3.054 1.191 3.054-.582 0-.781-.45-.441-1s.141-1-.441-1-1.059.889-1.059 1.975c0 1.661.477 1.88 3 1.375 2.035-.407 3-.204 3 .632 0 .68.667.976 1.488.661.818-.314 1.381-.081 1.25.518s.387 1.316 1.151 1.594c.851.309 1.119.067.691-.625-.44-.712.134-1.13 1.552-1.13 2.182 0 2.192-.043.32-1.411-1.061-.777-2.317-1.172-2.791-.88-.473.293-.321-.476.339-1.709.958-1.791.944-2.084-.07-1.457-.892.551-1.086.305-.651-.828.438-1.142.188-1.448-.855-1.047-1.135.435-1.21.885-.327 1.949.928 1.118.645 1.383-1.475 1.383-1.442 0-2.622-.477-2.622-1.059s.399-.813.886-.511c.488.301 1.145-.44 1.461-1.648.743-2.843.364-3.15-1.065-.862m73.218 2.086c.263 4.408 1.5 4.952 1.5.661 0-2.017-.378-3.667-.839-3.667-.462 0-.759 1.353-.661 3.006m-50.461-.078c-1.087 2.03-.446 5.072 1.068 5.072 1.276 0 1.102-1.389-.357-2.859-1.003-1.011-.855-1.112.75-.513 1.733.647 1.827.534.708-.844-1.055-1.299-1.055-1.684 0-2.108.929-.372.951-.54.077-.597-.668-.043-1.679.788-2.246 1.849m16.619-.479q-.56 1.452.893.893c1.582-.607 1.994-2.342.556-2.342-.491 0-1.143.652-1.449 1.449M190 95c0 .55.477 1 1.059 1s.781-.45.441-1-.816-1-1.059-1-.441.45-.441 1m-55 .378c0 .207.787.995 1.75 1.75 1.586 1.243 1.621 1.208.378-.378-1.307-1.666-2.128-2.195-2.128-1.372m41.636 3.128c-.315.822-.164 1.494.336 1.494 1.356 0 2.198-1.777 1.149-2.425-.501-.31-1.169.109-1.485.931m-9.786 2.894c1.727 3.672 4.473 5.857 3.517 2.799-.431-1.382-.235-1.336 1.051.242 1.566 1.922 1.582 1.922 1.567 0-.023-2.906-1.581-4.81-3.372-4.123-.93.357-1.49.131-1.351-.545.131-.635-.505-1.318-1.412-1.518-1.534-.337-1.534-.115 0 3.145m-70.78 1.35c.054 2.856.255 3.277.845 1.766.715-1.829.359-5.516-.532-5.516-.21 0-.351 1.688-.313 3.75M105 100c0 .55.675 1 1.5 1s1.5-.45 1.5-1-.675-1-1.5-1-1.5.45-1.5 1m41 .941c0 .518.445 1.216.989 1.552.566.35.734-.051.393-.941-.665-1.732-1.382-2.049-1.382-.611M103 102c0 .55.477 1 1.059 1s.781-.45.441-1-.816-1-1.059-1-.441.45-.441 1m10.165-.123c-.735.466-1.297 1.134-1.25 1.485.275 2.058-.048 2.674-1.07 2.043-.699-.433-.883-.276-.467.397 1.068 1.729 3.364.326 3.88-2.369.255-1.338.415-2.426.353-2.418-.061.009-.712.397-1.446.862M139 102.5c0 .825.436 1.5.969 1.5s.709-.675.393-1.5c-.317-.825-.753-1.5-.969-1.5s-.393.675-.393 1.5m16.638 0c.317.825 1.033 1.5 1.591 1.5.586 0 .489-.635-.229-1.5-.685-.825-1.401-1.5-1.591-1.5s-.087.675.229 1.5m-10.695 1.851c.819 2.152.72 2.649-.527 2.649-.844 0-1.275-.419-.959-.931.317-.512.202-1.162-.254-1.444-1.129-.697-.935 4.998.206 6.042.533.488.649.107.282-.917-1.043-2.906 1.274-1.962 2.453 1 .642 1.613 1.291 2.22 1.57 1.467.261-.706.138-2.056-.273-3s-.663-2.436-.558-3.314-.515-2.183-1.378-2.899c-1.39-1.153-1.454-1-.562 1.347m19.449.115c.314 2.142 1.608 3.155 1.608 1.26 0-.885-.41-1.862-.912-2.172s-.815.101-.696.912m-57.882.55c.346.559 1.047.758 1.559.441 1.387-.857 1.129-1.457-.628-1.457-.857 0-1.276.457-.931 1.016M121.306 107c-.623 1.65-.914 3-.648 3 1.035 0 2.849-2.586 2.981-4.25.218-2.749-1.088-2.049-2.333 1.25M151 104.882c0 .55.45 1.278 1 1.618s1 .168 1-.382-.45-1.278-1-1.618-1-.168-1 .382m4.419 2.354c.873 1.333 1.382 2.63 1.13 2.882s.534 1.075 1.746 1.831c1.89 1.176 2.049 1.171 1.11-.038-.602-.776-1.39-2.311-1.752-3.411-.648-1.97-.635-1.97.845-.059.826 1.068 1.495 1.518 1.487 1-.028-1.708-1.451-3.161-3.82-3.901-2.269-.708-2.29-.66-.746 1.696m19.206-.77c.221.576-.616 1.5-1.861 2.052s-2.201 1.786-2.125 2.743-.261 1.739-.75 1.739a.89.89 0 0 1-.889-.883c0-.907-4.114-2.336-4.787-1.663-.579.579 1.712 4.471 3.946 6.705 1.104 1.104 2.307 1.708 2.673 1.343.366-.366-.202-1.299-1.261-2.073-1.059-.775-1.616-1.718-1.237-2.096.941-.941 4.718 3.248 3.856 4.278-.38.452.026.279.902-.385.876-.665 1.888-.913 2.25-.551s.658.16.658-.449c0-1.675-1.758-2.414-2.336-.982-.322.8-.535.66-.585-.387-.043-.904.596-1.902 1.421-2.219s1.5-.139 1.5.393c0 .533.505.969 1.122.969.762 0 .803-.402.129-1.25-.547-.687-.801-2.15-.564-3.25s.479-2.52.538-3.155.782-.896 1.606-.58c.964.37 1.243.164.783-.58-.883-1.429-5.544-1.167-4.989.281m-77.989 2.04c-.348.907.003 1.494.895 1.494 1.618 0 1.986-1.563.574-2.435-.493-.305-1.153.119-1.469.941M126 109c-1.292.835-1.265.971.193.985.932.008 2.347.948 3.146 2.088.908 1.297 1.701 1.672 2.116 1 .364-.59.156-1.073-.463-1.073-.672 0-.87-.808-.492-2 .477-1.502.182-1.996-1.183-1.985-.999.009-2.492.452-3.317.985m26.303-.208c-.79.502-.88 1.263-.266 2.234.793 1.254.935 1.226.948-.193.008-.916.578-1.893 1.265-2.171.688-.277.8-.533.25-.568s-1.539.279-2.197.698M185 109.941c0 .518.445 1.216.989 1.552.566.35.734-.051.393-.941-.665-1.732-1.382-2.049-1.382-.611m-36 1c0 .518.445 1.216.989 1.552.566.35.734-.051.393-.941-.665-1.732-1.382-2.049-1.382-.611m23.421.623c.86.86 2.065 1.254 2.678.875 1.265-.782-.681-2.398-2.92-2.424-.99-.011-.929.378.242 1.549m5.658.019c.048 1.165.285 1.402.604.605.289-.722.253-1.585-.079-1.917s-.568.258-.525 1.312M122 112.643c0 1.397.744 1.857 3 1.857 2.806 0 4.474-2.111 1.75-2.214-.687-.026-2.037-.375-3-.774-1.299-.539-1.75-.247-1.75 1.131m69.25 1.094c-1.748.601-1.564 2.263.25 2.263 1.816 0 1.86.451.288 2.968-1.514 2.425-1.265 2.632 3.962 3.299 4.546.581 5.694-.824 2.703-3.306-1.236-1.026-1.287-1.45-.25-2.107.999-.634 1.01-.827.047-.839-.687-.008-1.25-.513-1.25-1.122s.675-.848 1.5-.531 1.5.139 1.5-.393c0-.533-1.366-.969-3.035-.969-2.725 0-2.926.204-1.965 2 .758 1.416.759 2 .003 2-.587 0-1.39-.831-1.785-1.846s-1.28-1.653-1.968-1.417m-139.981.956c.973.254 2.323.237 3-.037s-.119-.481-1.769-.461-2.204.244-1.231.498M103 117.5c0 .825.6 1.5 1.333 1.5.734 0 1.334-.675 1.334-1.5s-.6-1.5-1.334-1.5c-.733 0-1.333.675-1.333 1.5m5.25 1.189c.963.252 2.537.252 3.5 0 .963-.251.175-.457-1.75-.457s-2.713.206-1.75.457m70.175.19c.299.484 1.563 1.137 2.809 1.451 2.186.55 2.198.519.325-.88-2.15-1.606-3.979-1.939-3.134-.571M192.5 120c.34.55.816 1 1.059 1s.441-.45.441-1-.477-1-1.059-1-.781.45-.441 1m-147.902 2.736c-.329.328-.591 1.31-.583 2.181.01 1.008.283 1.183.75.483.404-.605 1.387-1.31 2.184-1.567 1.205-.387 1.18-.57-.152-1.081-.881-.338-1.87-.345-2.199-.016m-3.974 1.803c-.965 2.514-.681 3.163.498 1.136.584-1.004.851-2.036.593-2.293-.257-.258-.749.263-1.091 1.157m-38.891 2.585c.679.684 1.486.991 1.793.683.308-.308-.247-.867-1.233-1.243-1.425-.542-1.54-.428-.56.56m-1.408 5.179c-.165 3.001-.117 3.049.78.777.526-1.33.605-2.769.175-3.196-.429-.428-.859.661-.955 2.419m8.999 16.947c-.436.688-.857 1.588-.934 2s-.253.975-.39 1.25c-.138.275-.362.95-.5 1.5s-.34 1.113-.449 1.25c-.11.137-.401 1.375-.648 2.75s-1.178 4.423-2.07 6.772c-2.274 5.991-1.112 6.221 2.789.551 2.683-3.899 3.391-6.01 3.713-11.071.394-6.193.024-7.419-1.511-5.002m-8.512 2.433c.722.289 1.585.253 1.917-.079s-.258-.568-1.312-.525c-1.165.048-1.402.285-.605.604m95.011 9.565c.398 2.713.594 2.919 1.189 1.25.754-2.119.254-4.498-.946-4.498-.396 0-.505 1.462-.243 3.248m83.866 3.119c-.447 1.166-.289 1.504.48 1.029.79-.488.959.007.544 1.592-.441 1.687-.305 2.004.51 1.189.765-.765.803-1.804.122-3.329-.878-1.969-1.064-2.023-1.656-.481M.415 182c0 10.175.149 14.338.33 9.25s.182-13.413 0-18.5c-.181-5.088-.33-.925-.33 9.25M189 166c0 .55.477 1 1.059 1s.781-.45.441-1-.816-1-1.059-1-.441.45-.441 1m-92.805 2.5c.02 1.65.244 2.204.498 1.231s.237-2.323-.037-3-.481.119-.461 1.769m80.836 0c0 .55.436 1.675.969 2.5s.969 1.05.969.5-.436-1.675-.969-2.5-.969-1.05-.969-.5M187 172c0 .55.45 1 1 1s1-.45 1-1-.45-1-1-1-1 .45-1 1m-91 2c0 .55.477 1 1.059 1s.781-.45.441-1-.816-1-1.059-1-.441.45-.441 1m39.079 1.583c.048 1.165.285 1.402.604.605.289-.722.253-1.585-.079-1.917s-.568.258-.525 1.312M124 176c0 .55.477 1 1.059 1s.781-.45.441-1-.816-1-1.059-1-.441.45-.441 1m20 1.059c0 1.132.43 1.793.956 1.468s.703-1.252.393-2.059c-.793-2.067-1.349-1.824-1.349.591M129.158 179c0 1.375.227 1.938.504 1.25.278-.687.278-1.812 0-2.5-.277-.687-.504-.125-.504 1.25m64.406.293c.376.986.935 1.541 1.243 1.233s.001-1.114-.683-1.793c-.988-.98-1.102-.865-.56.56M119.158 185c0 1.375.227 1.938.504 1.25.278-.687.278-1.812 0-2.5-.277-.687-.504-.125-.504 1.25m2 4c0 1.375.227 1.938.504 1.25.278-.687.278-1.812 0-2.5-.277-.687-.504-.125-.504 1.25"/><path fill-opacity=".258" fill-rule="evenodd" d="M0 7.545v7.546l3.333-.626c2.837-.532 3.583-.242 5.023 1.955.929 1.419 2.58 2.58 3.667 2.58S14 19.45 14 20s-.338.941-.75.87C12.103 20.67 6 23.355 6 24.058c0 .341-1.36.54-3.022.441l-3.022-.18.072 50.457c.039 27.752.387 50.143.772 49.758.701-.701.841-1.229 1.075-4.034.151-1.815 2.727-1.997 3.542-.25.466 1 .7 1 1.166 0 .887-1.9 2.417-1.493 2.417.643 0 1.041-.704 2.163-1.563 2.493-.86.33-1.284 1.053-.941 1.607.342.554.033 1.014-.687 1.022-1.033.012-1.02.198.061.883 1.106.701 1.01 1.078-.5 1.955-1.408.818-1.5 1.101-.37 1.147s1.038.329-.37 1.147c-1.51.877-1.606 1.254-.5 1.955.998.632 1.031.872.12.883-.687.008-1.25.69-1.25 1.515s-.354 1.5-.786 1.5-.847.787-.922 1.75S.91 142.525.611 145s-.301 3.713-.004 2.75c.297-.962.957-1.75 1.466-1.75.51 0 .874-.338.809-.75-.066-.412-.009-1.088.125-1.5.133-.412.355-1.2.493-1.75s.34-1.113.449-1.25c.11-.137.394-1.297.631-2.576s.975-3.304 1.64-4.5 1.227-2.399 1.248-2.674c.177-2.271 3.062-9 3.859-9 .553 0 .702.304.331.676-.372.372.306 1.722 1.507 3 2.077 2.211 2.09 2.328.259 2.403-1.058.043-1.361.306-.674.583.688.278 1.25.944 1.25 1.48 0 .537-.526.651-1.17.253-.787-.486-.961-.178-.531.941.43 1.122.12 1.664-.953 1.664-1.301 0-1.364.274-.346 1.5.978 1.178.981 1.5.015 1.5-.682 0-.973.668-.653 1.5.316.825.153 1.5-.362 1.5s-.678.675-.362 1.5.051 1.5-.59 1.5-.907.419-.591.931.111 1.218-.457 1.569-.793 1.026-.5 1.5.068 1.149-.5 1.5-.793 1.026-.5 1.5.068 1.149-.5 1.5-.774 1.057-.457 1.569c.316.512.098.931-.484.931S4 153.831 4 154.846s-.672 3.193-1.493 4.839S.73 164.1.382 165.839C-.133 168.414.071 169 1.482 169c1.112 0 1.53-.526 1.169-1.468-.31-.807-.153-1.722.349-2.032s.659-1.225.349-2.032c-.309-.807-.079-1.468.513-1.468.591 0 .816-.675.5-1.5-.317-.825-.078-1.5.531-1.5S6 158.1 6 157s.477-2 1.059-2 .81-.404.505-.897c-.783-1.266 1.905-7.301 2.836-6.37.422.422.655.317.519-.233s.125-2.334.579-3.964c.727-2.61.911-2.729 1.542-1 .659 1.806.819 1.743 1.999-.786.705-1.512 1.66-2.75 2.122-2.75s.839-.707.839-1.571c0-.865.675-2.247 1.5-3.072s1.5-1.188 1.5-.806.604.193 1.342-.42c.738-.612 1.694-.78 2.124-.372.43.407.453-.328.051-1.634-.502-1.63-.384-2.161.376-1.691.989.611 1.551-.619 1.225-2.684-.065-.413.283-.75.774-.75.49 0 1.16-1.071 1.489-2.381.612-2.441 4.582-4.378 4.664-2.275.025.636.587.011 1.25-1.389 1.108-2.34 1.768-2.559 8.205-2.722 9.068-.228 15.085.927 14.736 2.829-.19 1.032.118.951 1.092-.288 1.165-1.482 1.618-1.534 3.208-.372 1.739 1.272 1.749 1.456.157 3.047-1.22 1.221-1.697 1.325-1.708.372-.012-.976-.269-.929-.985.179-.862 1.333-.974 1.333-1.015 0-.084-2.748-1.692 1.089-2.494 5.951-.404 2.447-1.323 6.047-2.042 8-1.25 3.392-1.311 3.428-1.379.799-.107-4.183-1.659-3.288-3.077 1.774-1.062 3.795-1.58 4.424-3.216 3.905-1.698-.539-1.809-.358-.863 1.411 1.419 2.651 1.37 3.16-.303 3.16-.795 0-1.669 1.495-2.045 3.5-.361 1.925-1.117 3.5-1.679 3.5-.587 0-.735.905-.347 2.125.386 1.218.279 1.881-.252 1.553-.517-.32-.782.839-.599 2.625.267 2.618.157 2.835-.611 1.197-.871-1.859-.943-1.824-1.023.5-.047 1.375-.505 3.163-1.018 3.974-.614.971-.524 1.738.266 2.25.893.579.817 1.03-.303 1.776-1.252.834-1.273 1.146-.132 1.882 1.103.711.939 1.311-.842 3.092-1.376 1.376-2.016 2.958-1.694 4.189.285 1.088-.337 3.426-1.381 5.196s-2.054 4.235-2.244 5.477c-.189 1.243-1.019 3.047-1.843 4.01s-1.33 2.404-1.123 3.202c.245.95.003.866-.702-.243-.824-1.298-.605-2.469.938-5 1.109-1.818 1.984-4.205 1.945-5.305-.048-1.354-.668-.709-1.922 2-1.3 2.808-1.874 3.389-1.926 1.95-.041-1.128.378-2.502.931-3.055.552-.552 1.215-3.68 1.472-6.95.385-4.887.275-5.5-.62-3.445-.599 1.375-1.28 4.075-1.513 6-.73 6.023-2.372 10.999-3.633 11.015-.947.012-.947.183-.001.785.88.559.705 1.084-.641 1.925-1.6.999-1.78.887-1.332-.827.285-1.091.124-1.904-.359-1.807s-2.348-.166-4.144-.585c-2.532-.591-3.023-1.055-2.185-2.065.594-.716 1.12-2.684 1.168-4.372s.356-3.069.685-3.069.66-1.012.736-2.25c.234-3.805 1.174-9.092 2.222-12.5 1.293-4.201.382-4.244-1.079-.051-.998 2.863-1.204 2.994-1.964 1.25-.687-1.579-.757-1.469-.368.583.338 1.784-.1 2.894-1.485 3.758-1.08.675-1.964 2.072-1.964 3.106s-1.346 2.942-2.991 4.241c-1.645 1.3-2.995 2.817-3 3.372-.005.556-.909 1.572-2.009 2.259-2.23 1.393-2.471.98-1.014-1.741.542-1.013 1.244-3.996 1.56-6.627.316-2.632.796-5.144 1.066-5.581.271-.438-.206-.528-1.06-.201-.854.328-1.559 1.335-1.567 2.239s-.472 2.318-1.031 3.143c-.744 1.099-.841.698-.365-1.5.778-3.597 3.22-7.736 4.205-7.128.388.24.777-.737.863-2.17l.157-2.606-1.698 2.251c-1.072 1.42-2.295 2.022-3.316 1.63-1.443-.554-1.631 1.008-1.745 14.451L-.073 200H7.88c5.427 0 8.114-.397 8.458-1.25.403-1 .52-1 .583 0 .061.969 6.588 1.25 29.079 1.25h29l.005-4.25c.003-2.338.896-14.6 1.984-27.25s2.014-23.45 2.058-24 .497.041 1.007 1.313c.565 1.407.571 3.902.015 6.374-.502 2.234-.567 4.995-.146 6.135.59 1.594.926.873 1.456-3.125.38-2.858 1.174-5.197 1.767-5.197.693 0 .845 1.337.428 3.75-.476 2.754-.371 3.352.397 2.25.615-.882.789-3.657.423-6.738-.507-4.271-.325-5.351.987-5.855.884-.339 1.384-.979 1.11-1.422-.751-1.215.589-4.054 1.614-3.42.492.304.947-.711 1.01-2.256s.2-3.259.302-3.809c.411-2.198 4.775-11.001 5.755-11.606.575-.356 3.134-.489 5.687-.296 2.552.192 17.016 1.051 32.141 1.908 15.125.856 34.432 1.993 42.905 2.526s17.494.968 20.046.968h4.64l.079-3.75c.059-2.829-.033-3.05-.372-.9l-.45 2.85-14.674-.638c-27.769-1.207-75.371-4.155-82.943-5.137-4.381-.568-4.683-1.577-1.055-3.519 1.494-.8 1.877-.801 1.386-.006-.374.605-.293 1.1.179 1.1s.859-1.575.859-3.5-.477-3.5-1.059-3.5c-2.161 0-3.292-3.551-2.595-8.144.628-4.141.518-4.528-1.168-4.088-2.989.782-1.731-1.653 3.593-6.955 5.075-5.055 5.124-5.254 3.067-12.447-.485-1.696.054-2.465 2.629-3.75 1.782-.889 4.016-1.616 4.964-1.616s2.229-.608 2.845-1.351c1.749-2.107 2.447-9.819 1.274-14.068-.835-3.026-.751-4.452.394-6.665.801-1.549 1.456-3.043 1.456-3.32s-2.362.593-5.25 1.933l-5.25 2.437-1.824-2.233c-1.353-1.657-1.964-1.886-2.366-.886-.297.741-1.839 2.825-3.426 4.632C99.298 54.286 98 56.267 98 56.882S97.467 58 96.814 58s-2.299 1.012-3.66 2.25c-2.06 1.874-2.365 1.947-1.822.44.571-1.586.216-1.742-2.855-1.253-6.969 1.107-15.559 8.693-18.192 16.063-2.09 5.853-3.545 14.328-2.901 16.895.402 1.6.238 2.605-.424 2.605-.593 0-.829.402-.526.894.304.492-1.253 1.617-3.461 2.5-4.832 1.933-5.275 1.969-4.458.356.348-.687.037-.575-.691.25-.886 1.004-2.736 1.398-5.597 1.191-4.42-.319-4.991-2.191-.668-2.191C53.062 98 54 97.424 54 96.5c0-1.717 2.033-1.98 3.792-.492.655.555.992.726.747.381C58.051 95.7 60.446 93 61.545 93c.379 0 .453.9.165 2-.507 1.939.308 2.648 1.58 1.376.649-.648-2.921-8.376-3.869-8.376-.297 0-.29.403.014.895.719 1.163-1.925 2.183-3.063 1.182-.48-.422-1.997-.168-3.372.563-1.375.732-2.275 1.372-2 1.422 3.369.615 4.272.876 4.781 1.386.329.328-.451.437-1.733.242-2.767-.423-5.073-3.259-4.985-6.131.061-1.962.106-1.954.962.174.58 1.442 1.441 2.025 2.431 1.646.843-.324 1.268-1.017.944-1.541-1.152-1.864-1.18-6.362-.049-7.838.999-1.305.921-1.321-.601-.128-.963.755-1.75 2.27-1.75 3.367 0 1.476-.5 1.863-1.925 1.491-1.371-.359-1.768-.093-1.379.92.301.784-.227 2.279-1.173 3.324-.985 1.089-1.401 2.46-.974 3.213.57 1.005.452 1.043-.503.163-.99-.914-.788-2.459.982-7.5 1.225-3.493 2.657-7.176 3.181-8.186s.749-2.04.499-2.29c-.25-.249-2.363 4.069-4.696 9.598s-4.528 10.226-4.877 10.439-.671-3.592-.716-8.455c-.053-5.831.287-8.777 1-8.65 1.002.18 1.156-3.954.476-12.765-.26-3.372.1-3.812-6.51 7.959-3.642 6.485-4.422 7.394-4.12 4.803.205-1.759.018-2.978-.417-2.709-.434.268-1.002-.543-1.261-1.803-.694-3.372-1.788-9.885-2.203-13.12-.596-4.643-1.473-5.078-4.095-2.029L19.831 60.5l1.94-3.5c1.067-1.925 4.931-8.515 8.585-14.644 6.453-10.824 7.193-13.174 5.761-18.306-.667-2.392-.74-2.356-3.043 1.5-1.298 2.173-2.543 3.431-2.768 2.798-.224-.634.903-3.334 2.506-6C35.605 17.7 35.692 17.19 34.924 10c-.44-4.125-.828-8.062-.862-8.75C34.015.301 29.9 0 17 0H0zM35.478 3.75c.692 3.704 1.246 4.979 1.812 4.167.16-.23 1.533-2.104 3.051-4.167L43.102 0h-8.325zm7.08-.063c-2.119 2.656-2.879 4.614-2.718 7 .145 2.164-.228 3.313-1.076 3.313-.896 0-1.19 1.162-.949 3.75.192 2.063.331 4.988.307 6.5-.023 1.512.278 2.745.668 2.739.391-.006 2.285-2.751 4.21-6.1 5.523-9.61 4.641-4.308-.978 5.876-2.777 5.035-4.99 9.509-4.917 9.944.326 1.951-.184 3.36-1.027 2.84C34.806 38.762 32 44.683 32 48.154c0 2.144.476 2.846 1.929 2.846 1.06 0 2.523-.659 3.25-1.465 3.333-3.697 3.937-4.685 3.558-5.82-.224-.668-1.138.135-2.032 1.785l-1.625 3-.04-3.906c-.047-4.616 4.576-11.816 6.065-9.445.467.743.604 2.138.305 3.101-.312 1.002-.028 1.75.665 1.75 1.661 0 .441 11.426-1.519 14.224-1.061 1.514-1.185 2.601-.453 3.968.554 1.036.73 2.757.391 3.826s-.152 2.738.415 3.712c.931 1.6 1.033 1.557 1.061-.443.016-1.217.93-4.496 2.03-7.287 2.619-6.644 2.557-8.519-.115-3.485-1.164 2.192-2.325 4.209-2.582 4.483-1.067 1.141 1.137-5.872 3.33-10.594C47.935 45.6 49 42.38 49 41.247s1.35-5.069 3-8.747c3.349-7.463 3.693-8.798 1.532-5.941-1.449 1.915-1.468 1.914-1.428-.059.022-1.1 1.658-3.347 3.635-4.994l3.595-2.994-.679 4.244c-.423 2.643-.297 4.244.333 4.244.557 0 1.012-.407 1.012-.905 0-1.486 8.726-6.137 10.346-5.516.824.316 2.462.059 3.64-.571 1.422-.761 2.541-.815 3.331-.16.77.639 2.948.653 6.186.04 2.748-.521 9.272-.735 14.497-.476 9.811.487 9.731.159-.227-.926-3.15-.343-5.666-.931-5.591-1.305.074-.375-.217-1.488-.647-2.474-1.159-2.656-.236-3.04 7.722-3.208 3.984-.084 8.214-.473 9.401-.864 2.499-.824 3.914-3.663 2.318-4.65-.642-.396-.816-1.776-.422-3.344l.67-2.67-6.52.141c-6.035.131-6.553.32-6.978 2.539-.252 1.318-.067 2.638.411 2.934.485.299.46 1.299-.056 2.264-.757 1.415-.455 1.767 1.667 1.942 1.425.118 2.848.472 3.163.787.314.314-1.224.425-3.42.247-3.806-.31-4.005-.495-4.297-3.999-.168-2.021-.99-4.242-1.827-4.936-2.27-1.885-41.342-2.536-42.5-.708-.634.999-.84 1.015-.852.068-.032-2.673-4.56-1.193-7.457 2.437M94 .378c0 .207.675.937 1.5 1.622 1.229 1.02 1.5.951 1.5-.378C97 .73 96.325 0 95.5 0S94 .17 94 .378M113 1c0 .55.9 1 2 1s2-.45 2-1-.9-1-2-1-2 .45-2 1m12-.079C125 1.514 123.65 2 122 2s-3 .445-3 .988c0 .558 2.352.884 5.404.75 2.972-.131 5.229-.523 5.014-.87-.215-.348 1.066-.51 2.846-.36s4.474.322 5.986.382c1.729.069 2.75.667 2.75 1.61 0 .924.938 1.5 2.441 1.5 1.343 0 2.733.472 3.089 1.049.929 1.502 3.47-.82 3.47-3.171 0-2.116-1.567-2.537-2.338-.628-.277.688-.54.337-.583-.779-.074-1.892-.822-2.05-11.079-2.33-7.391-.201-11 .055-11 .78M154 2.5c0 1.503-.571 2.5-1.433 2.5-2.365 0-3.009 3.946-.908 5.566 3.239 2.498 11.579 4.337 21.04 4.64 8.743.279 9.174.397 8.686 2.369-.379 1.529.597 3.08 3.705 5.888 3.516 3.175 4.037 4.104 3.124 5.566-.603.966-.785 2.066-.405 2.447.38.38.714.991.742 1.357.076 1.013 7.198 8.167 8.132 8.169.449.002.866 1.378.926 3.06.061 1.681.623 3.57 1.25 4.197.855.855 1.141-5.079 1.141-23.619V-.121l-3.592.311c-2.988.258-3.823.863-4.968 3.599-.902 2.155-.984 3.047-.238 2.586.791-.489.892-.119.333 1.211-.443 1.053-1.329 3.347-1.968 5.098-.762 2.085-1.581 2.925-2.375 2.435-1.624-1.004.193-10.782 2.471-13.299C191.216.104 191.16 0 188.702 0c-2.162 0-2.786.641-3.649 3.75-.573 2.063-1.044 4.564-1.047 5.559-.004 1.07-.459 1.529-1.116 1.123-1.09-.674-.765-5.151.632-8.682.641-1.62-.43-1.75-14.415-1.75H154zm-85.541-.433c-.363.586-.389 1.336-.059 1.666s.6.049.6-.625.52-.905 1.155-.513c.715.443.883.275.44-.44-.884-1.431-1.296-1.448-2.136-.088m32.166.731c-.271.439-.135 1.377.302 2.084.58.939.943.722 1.341-.797.526-2.012-.634-2.92-1.643-1.287M51.3 8c0 3.025.187 4.263.416 2.75s.229-3.987 0-5.5S51.3 4.975 51.3 8m15.664-2.164c.659 1.284 1.472 2.061 1.807 1.726.336-.335-.203-1.386-1.197-2.336-1.728-1.65-1.755-1.623-.61.61m65.465-.722c-.328.532-1.422.706-2.429.386s-2.094-.157-2.414.361c-.639 1.035 11.157 2.729 12.142 1.744.881-.881-.056-1.552-3.579-2.562-1.942-.557-3.348-.53-3.72.071m-60.841 6.743c-.291.472 1.946.857 4.971.857s5.738-.385 6.029-.857c.292-.471-1.945-.857-4.97-.857s-5.738.386-6.03.857M18 16c-1.083.7-.165.974 3.309.985 2.955.009 4.571-.371 4.191-.985-.786-1.272-5.532-1.272-7.5 0m10.813-.317c.721.289 1.584.253 1.916-.079s-.258-.568-1.312-.525c-1.165.048-1.402.285-.604.604m-25.734 4.9c.048 1.165.285 1.402.604.605.289-.722.253-1.585-.079-1.917s-.568.258-.525 1.312m18.734-.9c.721.289 1.584.253 1.916-.079s-.258-.568-1.312-.525c-1.165.048-1.402.285-.604.604m92 1c.721.289 1.584.253 1.916-.079s-.258-.568-1.312-.525c-1.165.048-1.402.285-.604.604m-99.587 4.891c.95.994 2.001 1.533 2.336 1.197s-.442-1.148-1.726-1.807c-2.233-1.145-2.26-1.118-.61.61M56.26 31.71c-.681 1.454-1.055 2.828-.831 3.053.602.601 2.755-3.718 2.386-4.786-.173-.501-.873.278-1.555 1.733M41.5 42c.34.55.816 1 1.059 1s.441-.45.441-1-.477-1-1.059-1-.781.45-.441 1M25.697 52.393c-.409 1.041-.508 2.129-.221 2.417.913.912 1.715-.583 1.333-2.482-.35-1.74-.404-1.737-1.112.065M38 53c0 .55.45 1 1 1s1-.45 1-1-.45-1-1-1-1 .45-1 1m77.5 8c-.34.55-.141 1 .441 1S117 61.55 117 61s-.198-1-.441-1-.719.45-1.059 1m-97.4 2.295c-1.265 2.107-1.243 2.128.479.479.991-.95 1.587-1.942 1.324-2.205s-1.074.514-1.803 1.726M38.6 67.6c-.356.927-.422 1.911-.147 2.186s.791-.259 1.147-1.186.422-1.911.147-2.186-.791.259-1.147 1.186m13.024-.061c-.965 2.514-.681 3.163.498 1.136.584-1.004.851-2.036.593-2.293-.257-.258-.749.263-1.091 1.157M59.5 79c.34.55.816 1 1.059 1s.441-.45.441-1-.477-1-1.059-1-.781.45-.441 1m-1.411 3.833c-.704 1.317-.634 1.834.251 1.834.677 0 1.231-.825 1.231-1.834 0-1.008-.112-1.833-.25-1.833s-.692.825-1.232 1.833M64 85c0 .55.477 1 1.059 1s.781-.45.441-1-.816-1-1.059-1-.441.45-.441 1m-16 9.5c-.718.865-.815 1.5-.229 1.5.558 0 1.274-.675 1.591-1.5s.419-1.5.229-1.5-.906.675-1.591 1.5m68-.5c0 .55.477 1 1.059 1s.781-.45.441-1-.816-1-1.059-1-.441.45-.441 1m-65.5 2c-.34.55.11 1 1 1s1.34-.45 1-1-.79-1-1-1-.66.45-1 1M43 99.653c-1.378.726-1.827 1.317-1 1.317 1.724-.001 4.674-1.671 3.971-2.248-.259-.213-1.596.206-2.971.931m52.688-1.008c-.325.325-.362 1.775-.082 3.223s.597 3.878.705 5.401.644 2.648 1.193 2.5c.548-.148.873-1.169.724-2.269s-.251-3.429-.224-5.175c.047-3.07-1.101-4.894-2.316-3.68m-34.129 1.887c-1.068.807-1.405 1.468-.75 1.468s1.191.9 1.191 2 .41 2 .912 2c1.009 0 .868-2.554-.201-3.622-.374-.374.101-1.273 1.055-1.997.953-.725 1.284-1.317.734-1.317s-1.874.66-2.941 1.468M66.5 103c-.34.55-.141 1 .441 1S68 103.55 68 103s-.198-1-.441-1-.719.45-1.059 1m-29 5c-.34.55.11 1 1 1s1.34-.45 1-1-.79-1-1-1-.66.45-1 1m92.5-.622c0 .207.787.995 1.75 1.75 1.586 1.243 1.621 1.208.378-.378-1.307-1.666-2.128-2.195-2.128-1.372m-84.968 3.353c-.018.677-1.269 1.56-2.782 1.963-2.552.679-2.426.783 1.75 1.445 2.475.392 6.75.694 9.5.67l5-.043-5.399-.896c-3.092-.513-5.964-1.639-6.719-2.633-.786-1.035-1.331-1.24-1.35-.506m9.237 1.962c.973.254 2.323.237 3-.037s-.119-.481-1.769-.461-2.204.244-1.231.498m100.054.908c-.338.88.014 1.999.781 2.485 2.103 1.331 2.898 1.1 2.881-.836-.012-1.363-.206-1.45-.875-.393-.6.946-1.067 1.021-1.544.25-.376-.609-.406-1.557-.066-2.107s.352-1 .028-1c-.325 0-.867.72-1.205 1.601m-49.323.34c0 .518.45 1.219 1 1.559s1-.084 1-.941-.45-1.559-1-1.559-1 .423-1 .941m12.746 1.534c-1.698 2.335-1.69 2.399.25 2.026 1.102-.212 2.011.15 2.019.806.01.787.313.724.889-.185.483-.764 1.48-1.065 2.234-.676.749.386.575.057-.388-.732s-1.75-1.947-1.75-2.574c0-1.826-1.362-1.267-3.254 1.335M141 114c0 .55.477 1 1.059 1s.781-.45.441-1-.816-1-1.059-1-.441.45-.441 1m3.437.102q-.746 1.207.52.424c.734-.453 1.672-.203 2.231.596.806 1.151.9 1.142.576-.059-.519-1.92-2.399-2.463-3.327-.961m-31.337 1.603c.729 1.212 1.54 1.989 1.803 1.726s-.333-1.255-1.324-2.205c-1.722-1.649-1.744-1.628-.479.479m50.9.236c0 2.86 1.475 3.276 1.644.463.08-1.322-.258-2.404-.75-2.404s-.894.873-.894 1.941M110.5 117c-.34.55.11 1 1 1s1.34-.45 1-1-.79-1-1-1-.66.45-1 1m33 0c-.798 1.29.275 3.023 1.809 2.921.859-.057.842-.22-.059-.583-.687-.278-1.25-.944-1.25-1.48 0-.537.52-.655 1.155-.263.715.443.883.275.44-.44-.874-1.416-1.297-1.447-2.095-.155m4.513 1.029c1.828 1.156 2.987 1.227 2.987.184 0-.433-1.007-.863-2.237-.956-1.759-.132-1.919.033-.75.772m14.625 1.471c.317.825 1.033 1.5 1.591 1.5.586 0 .489-.635-.229-1.5-.685-.825-1.401-1.5-1.591-1.5s-.087.675.229 1.5m-162.443 3c.02 1.65.244 2.204.498 1.231s.237-2.323-.037-3-.481.119-.461 1.769m14.538-.376c.679.684 1.486.991 1.793.683.308-.308-.247-.867-1.233-1.243-1.425-.542-1.54-.428-.56.56M14.5 125c.34.55.816 1 1.059 1s.441-.45.441-1-.477-1-1.059-1-.781.45-.441 1m42.5 1.441c0 .857.45 1.559 1 1.559s1-.423 1-.941-.45-1.219-1-1.559-1 .084-1 .941M21.5 131c-.34.55-.141 1 .441 1S23 131.55 23 131s-.198-1-.441-1-.719.45-1.059 1m24.072 6.75c.497.412 1.241 1.2 1.651 1.75.426.571.753.249.762-.75.008-.973-.725-1.75-1.652-1.75-.916 0-1.259.338-.761.75m35.577 25.914c-1.601 1.739-1.152 2.574.752 1.397.738-.456 1.175-1.287.971-1.847-.215-.588-.941-.399-1.723.45M28 171.059c0 .582.45.781 1 .441s1-.816 1-1.059-.45-.441-1-.441-1 .477-1 1.059m-6.882 2.75c-.065 1.27-.537 2.05-1.049 1.734-.512-.317-1.256-.049-1.654.595-.452.731-.291.903.43.457 1.406-.868 1.558 1.602.184 2.976-.535.535-1.176 2.087-1.426 3.45-.25 1.364-.544 2.592-.654 2.729-1.036 1.3.042 2.946 2.529 3.859 2.117.777 2.935 1.676 2.73 3-.237 1.539-.108 1.618.693.425.542-.807.61-1.932.152-2.5-1.325-1.645-.936-6.365.572-6.944.756-.29 1.368-1.104 1.36-1.809-.012-.97-.228-.946-.889.097-.48.758-1.334 1.093-1.899.744-.564-.349-1.272-.069-1.572.622s-.275-.094.055-1.744c.708-3.532 1.419-4.488 2.042-2.744.247.691.86 1.002 1.363.691 1.333-.823 1.12-2.49-.279-2.197-.657.137-1.504-1.1-1.882-2.75-.563-2.459-.709-2.583-.806-.691M37 178.059c0 .582-.346.845-.768.584s-.598 1.313-.39 3.497.58 3.772.825 3.526c.626-.626 1.367-8.666.799-8.666-.257 0-.466.477-.466 1.059m-5.921 1.524c.048 1.165.285 1.402.604.605.289-.722.253-1.585-.079-1.917s-.568.258-.525 1.312M31 183.559c0 .857.457 1.276 1.016.931.559-.346.758-1.047.441-1.559-.857-1.387-1.457-1.129-1.457.628m-11.299 3.105c.464 1.208.276 1.44-.686.846q-1.322-.817-.61.335C19.532 189.67 21 189.192 21 187c0-1.1-.436-2-.969-2s-.681.749-.33 1.664M81.158 188c0 1.375.227 1.938.504 1.25.278-.687.278-1.812 0-2.5-.277-.687-.504-.125-.504 1.25m1.573 2.92c-.435 1.663-.305 2.054.437 1.312.582-.582.86-1.647.62-2.369-.25-.749-.703-.295-1.057 1.057m-3.652.663c.048 1.165.285 1.402.604.605.289-.722.253-1.585-.079-1.917s-.568.258-.525 1.312M19 193.167c0 1.191.313 1.853.696 1.471 1.08-1.081 1.232-3.638.216-3.638-.502 0-.912.975-.912 2.167m145.141.833c0 .825.386 2.4.859 3.5.542 1.261.859 1.445.859.5 0-.825-.386-2.4-.859-3.5-.542-1.261-.859-1.445-.859-.5M81 195.559c0 .857.45 1.281 1 .941s1-1.041 1-1.559-.45-.941-1-.941-1 .702-1 1.559m111.032-.5c-.018.857.629 2.432 1.436 3.5 1.174 1.552 1.475 1.628 1.5.382.018-.857-.629-2.432-1.436-3.5-1.174-1.552-1.475-1.628-1.5-.382M85.638 196.5c.317.825.753 1.5.969 1.5s.393-.675.393-1.5-.436-1.5-.969-1.5-.709.675-.393 1.5"/><path fill-opacity=".968" fill-rule="evenodd" d="M0 6.5c0 6.81.337 7.398 2.921 5.09 2.733-2.44 5.54-2.364 5.899.16.285 2.009.885 2.25 5.599 2.25 2.903 0 8.709.29 12.9.644l7.621.644-.534-5.394C33.322-1.057 35.236 0 16.481 0H0zM36 3c0 3.643 1.222 3.836 3.385.535C41.515.284 41.444 0 38.5 0 36.389 0 36 .467 36 3m7.084.894c-3.423 4.322-3.875 7.172-1.513 9.535C43 14.857 42.909 15 40.571 15c-2.872 0-3.55 2.41-.957 3.405 1.092.42 1.461 1.424 1.139 3.107-.262 1.369-.356 2.488-.209 2.488.146 0 1.485-2.081 2.976-4.624 3.088-5.269 4.519-4.57 4.346 2.124-.096 3.739-.146 3.804-.762 1-.647-2.942-.733-2.864-4.431 4-2.074 3.85-3.914 8.125-4.087 9.5-.174 1.375-.121 1.712.118.75.24-.962.817-1.75 1.284-1.75s1.56-.273 2.43-.607c1.188-.456 1.582.028 1.582 1.941 0 1.401.434 2.816.964 3.144.531.328.772 2.717.536 5.309l-.43 4.713 1.923-3.5c1.058-1.925 1.942-4.528 1.965-5.785s.761-3.383 1.64-4.724c1.414-2.158 1.471-4.175.5-17.485C50.494 9.73 50 2.293 50 1.48c0-2.809-3.841-1.468-6.916 2.414M52 1.417c0 .779.436 1.566.968 1.75 1.123.386 1.276 3.657.614 13.083-.261 3.712-.335 6.75-.164 6.75.17 0 1.57-1.819 3.111-4.042 1.924-2.777 3.041-3.654 3.567-2.802q.766 1.244 1.444-1.458C61.912 13.214 62.587 12 63.039 12s.403 1.46-.109 3.243c-1.388 4.839-1.248 5.046 2.82 4.193 2.063-.433 4.987-.726 6.5-.652 1.513.075 2.75-.323 2.75-.883 0-.561.399-.773.886-.472s5.099.721 10.25.934c5.384.221 8.089.064 6.364-.371-1.65-.415-2.325-.816-1.5-.889 1.169-.104 1.215-.314.211-.951-1.884-1.196.266-6.567 2.315-5.781 1.276.49 1.253.098-.154-2.648-1.957-3.82-3.093-4.687-6.169-4.708-1.513-.01-2.877 1.005-4 2.979-.936 1.646-2.041 2.996-2.453 3-1.299.011-.815-3.457.807-5.771 1.98-2.828.523-2.878-2.474-.085-1.842 1.716-2.461 1.869-3.135.778-.675-1.093-.97-1.022-1.501.362C74.083 5.225 73.229 6 72.548 6 71.082 6 68 9.2 68 10.722c0 .73 1.29.776 4.098.145C76.313 9.92 83 10.617 83 12.003c0 1.306-4.184 1.868-10.436 1.402-3.264-.244-6.081-.589-6.259-.767C65.54 11.873 65.514 3 66.277 3c.463 0 .558-.457.213-1.016s-1.047-.758-1.559-.441c-.512.316-.931.098-.931-.484C64 .431 61.556 0 58 0c-4.51 0-6 .352-6 1.417m46 1.5C98 4.612 98.477 6 99.059 6s.738.52.346 1.155q-.712 1.152.61.335c.954-.589 1.151-.366.706.795-.435 1.133-.188 1.448.83 1.057.797-.306 1.449-.069 1.449.526 0 1.268 5.806.397 7.797-1.17 1.063-.837 1.063-1.166 0-1.823-1.305-.807-1.443-1.209-1.672-4.875-.096-1.538-.833-2-3.192-2-3.174 0-3.237.296-1.214 5.686.32.85-.355.959-2.387.386-1.557-.439-2.72-1.31-2.582-1.935.138-.626.362-1.643.5-2.262s-.312-1.331-1-1.583C98.421-.012 98 .872 98 2.917M114 1c-1.293.835-1.266.971.191.985.93.008 1.969-.435 2.309-.985.782-1.266-.542-1.266-2.5 0m11.5 0c-.34.55.11 1 1 1s1.34-.45 1-1-.79-1-1-1-.66.45-1 1m7.5-.061c0 .516 2.025 1.242 4.5 1.613s4.5 1.074 4.5 1.562c0 .487.873.886 1.941.886s2.224.457 2.569 1.016c.814 1.317 2.49.277 2.49-1.544 0-.858-.602-1.178-1.541-.818-.981.376-1.435.092-1.25-.781.184-.868-.537-1.329-1.959-1.253-1.238.066-2.25-.272-2.25-.75 0-.479-2.025-.87-4.5-.87s-4.5.422-4.5.939M168.306 3c-1.096 2.905-1.336 3-7.564 3-4.949 0-6.812.42-8.078 1.819-1.553 1.716-1.435 1.92 2.095 3.604 3.783 1.805 23.203 4.189 25.851 3.173.9-.345 1.39-2.109 1.39-5 0-2.456.439-5.62.975-7.031L183.95 0h-7.256c-7.143 0-7.273.046-8.388 3m17.802 1c-2.911 10.596-3.003 11.132-1.86 10.751 1.255-.419 4.008-11.366 3.453-13.731-.196-.836-.913.505-1.593 2.98M60 7.5c0 1.833.533 2.5 2 2.5 2.285 0 2.404-.377.965-3.066C61.519 4.233 60 4.523 60 7.5m71.5-1.418-4 .634 4.168.142c2.293.078 4.88.415 5.75.749S139 7.768 139 7.224c0-1.429-2.902-1.871-7.5-1.142M86 7.309c0 .72.606 2.138 1.347 3.151 1.764 2.412 3.162.36 1.664-2.439C87.793 5.745 86 5.321 86 7.309m-56.811 9.405c-1.271.243-2.557 1.081-2.857 1.864-.594 1.548-7.332 2.037-7.332.531 0-.489-1.562-1.072-3.47-1.295-3.057-.357-3.311-.221-2.131 1.14.737.85 1.128 2.135.868 2.854s.352 2.219 1.36 3.332c1.736 1.919 1.74 2.075.081 3.003-.962.539-1.489 1.402-1.17 1.918.319.517.438.939.264.939-.173 0-1.813.43-3.643.954-2.82.809-3.149.739-2.155-.459.951-1.146.809-1.344-.75-1.044-1.059.204-2.561-.032-3.339-.525-.778-.492-1.19-.936-.915-.985l3-.527c3.99-.698 5.171-1.329 4.504-2.407-.342-.554-.145-1.007.437-1.007S13 24.642 13 24.204c0-1.002-4.574-.964-5.584.046-.412.413-2.249.75-4.083.75C0 25 0 25 0 30c0 5.259.345 5.58 4.368 4.05 1.63-.62 2.615-.601 2.834.055.184.552 1.226 1.136 2.316 1.298 1.505.224 1.905.933 1.66 2.946-.176 1.458.119 2.651.657 2.651s.742.9.455 2c-.83 3.175-2.058 2.335-2.773-1.897-.517-3.065-1.169-3.995-3.053-4.355-1.317-.251-2.599.04-2.85.647-.293.711-.484.659-.535-.145C3.036 36.563 2.325 36 1.5 36 .241 36 0 38.168 0 49.508v13.509l2.166-1.259c2.254-1.31 2.965-1.847 8.966-6.775C14.92 51.872 17 51.212 17 53.122c0 .776.464.738 1.5-.122 1.778-1.476 2.035.065.3 1.8-.857.857-.892 1.508-.123 2.277 1.296 1.296 2.631-.475 11.2-14.851C33.627 35.933 36 30.822 36 29.035c0-3.84-1.424-4.596-2.832-1.504-1.273 2.793-3.168 3.297-3.168.844 0-1.297-.65-1.495-3.219-.981-2.004.401-2.853.291-2.25-.291.533-.513 2.076-1.084 3.428-1.268 1.62-.221 2.695-1.188 3.15-2.835.381-1.375.751-2.05.823-1.5.181 1.377 3.068-2.567 3.068-4.191 0-1.3-1.38-1.442-5.811-.595m159.459 3.018c.377 1.503.685 3.303.685 4S189.66 25 190.06 25s.983.67 1.297 1.488c.326.85.061 1.386-.619 1.25-.655-.131-1.339.726-1.52 1.905-.23 1.499 1.063 3.452 4.303 6.5 2.548 2.396 5.048 4.507 5.556 4.69.529.191.923-4.469.923-10.924V18.651l-2.45 2.302-2.45 2.301-3.127-3.127c-3.824-3.824-4.197-3.869-3.325-.395M48.286 31.5c.008 2.75.202 3.756.432 2.236s.223-3.77-.014-5-.425.014-.418 2.764m-15.476 15c-.324 2.775-.06 3.5 1.274 3.5 1.633 0 3.294-4.579 2.265-6.244-1.216-1.968-3.165-.456-3.539 2.744m82.413 1.632c-2.55 1.633-3.03 2.396-2.164 3.439 1.324 1.595.427 3.429-1.677 3.429-.825 0-1.225-.445-.889-.989.35-.566-.051-.734-.941-.393-.856.329-1.552.073-1.552-.57 0-.641-.403-.917-.895-.613-.493.305-1.153-.119-1.469-.941-.664-1.731-2.636-2.022-2.636-.388 0 .608-1.125 1.991-2.5 3.073S98 56.787 98 57.573c0 .785-.538 1.427-1.195 1.427-.658 0-2.527 1.237-4.155 2.75-2.046 1.902-2.766 2.21-2.336 1 .512-1.439.037-1.75-2.674-1.75-5.324 0-11.845 5.03-15.563 12.007-2.771 5.199-3.209 7.036-3.277 13.747-.043 4.26.114 9.471.35 11.579.432 3.869-2.029 9.667-4.104 9.667-.541 0-.746.617-.457 1.371s-.153 2.051-.984 2.881c-1.756 1.756-1.11 2.879 1.157 2.009 1.033-.396 1.32-.203.843.569-1.092 1.766-16.026 1.116-29.855-1.3-1.807-.315-2.75-.045-2.75.789 0 .957 8.782 1.852 35.75 3.643 19.662 1.305 40.025 2.481 45.25 2.612 8.145.204 7.646.103-3.5-.708-7.15-.521-13.613-1.159-14.361-1.418-.923-.319-.033-1.723 2.757-4.35 3.132-2.95 3.757-4.017 2.611-4.457-.892-.342-1.507-.017-1.507.797 0 .928-.732 1.19-2.25.806-2.802-.708-3.867-2.223-3.16-4.494.329-1.057.023-1.75-.773-1.751-.724 0-1.382-1.122-1.461-2.493s.211-2.273.645-2.005c.862.532 2.203-1.978 2.538-4.751.116-.963.267-2.2.336-2.75s.8-1 1.625-1 1.5-.427 1.5-.948c0-1.647 4.659-6.053 5.589-5.286.489.404-.006-.355-1.1-1.686-1.895-2.305-1.9-2.387-.098-1.727 1.56.571 1.683.441.7-.744-1.43-1.722-.108-8.041 1.723-8.234a259 259 0 0 1 2.936-.285c1.496-.138 1.438-.337-.398-1.375-1.856-1.05-1.951-1.396-.703-2.548.937-.865 1.868-1.004 2.648-.395.662.517 2.216 1.187 3.453 1.49 1.944.476 2.25.155 2.25-2.356 0-1.598-.48-2.906-1.067-2.906-.589 0-.801-.841-.472-1.876.424-1.336.011-2.029-1.433-2.406-1.115-.292-2.021-1.135-2.013-1.874.01-.815.305-.95.75-.344.929 1.264 3.235 1.763 3.235.7 0-.44-.525-1.325-1.167-1.967-.89-.89-.771-1.32.5-1.807.917-.352 1.667-1.289 1.667-2.083 0-.793.687-2.77 1.526-4.393 1.809-3.498 1.857-3.481-2.303-.818m-8.41 8.551c.721.289 1.584.253 1.916-.079s-.258-.568-1.312-.525c-1.165.048-1.402.285-.604.604m-86.6 9.158A1301 1301 0 0 1 12.479 79.5c-2.753 4.769-3.372 6.783-3.019 9.818.405 3.477.176 3.932-2.568 5.085C2.118 96.411 0 100.903 0 109.024 0 115.875.047 116 2.607 116c1.881 0 2.45.409 2.044 1.468-.31.807-.064 1.777.547 2.154.724.448.826.225.292-.637-.62-1.005-.355-1.133 1.096-.532 2.311.958 7.439 2.73 9.164 3.167.688.175 1.25.797 1.25 1.384 0 .739-.639.724-2.086-.05-1.147-.614-2.306-.896-2.575-.626-.269.269.477.796 1.658 1.171 1.37.435 1.94 1.222 1.575 2.173-.314.82-.572 1.931-.572 2.469s-.562.659-1.25.271c-.992-.56-.996-.431-.017.625 1.498 1.615 1.786 1.36 3.748-3.338.898-2.149 1.121-3.699.532-3.699-.557 0-1.013-.477-1.013-1.059s.52-.738 1.155-.346c.718.445.882.275.435-.449-.396-.64-.416-2.119-.045-3.287.495-1.562.885-1.781 1.473-.83.537.869 1.145.042 1.853-2.524.58-2.1.818-4.199.53-4.665s.351-2.534 1.42-4.594 2.453-4.871 3.075-6.246c.969-2.145 1.048-1.825.556 2.25-.316 2.612-.195 4.75.269 4.75.892 0 9.128-9.117 10.708-11.853 1.104-1.912.786-11.272-.426-12.519C36.826 79.416 37.915 77 39.638 77c1.95 0 2.506-1.938 1.556-5.424-.748-2.743-.995-2.4-3.996 5.55C35.439 81.787 34 86.985 34 88.678c0 3.384-2.473 6.249-4.04 4.682-1.014-1.014 1.118-11.017 3.221-15.108.635-1.237.915-2.489.622-2.783-.294-.293-1.099.831-1.79 2.499-.69 1.668-1.59 3.032-1.999 3.032s-1.543-4.962-2.518-11.027c-.976-6.065-2.053-11.199-2.393-11.409-.341-.211-2.541 3.064-4.89 7.277M110 64.5c.685.825 1.695 1.5 2.245 1.5.558 0 .449-.663-.245-1.5-.685-.825-1.695-1.5-2.245-1.5-.558 0-.449.663.245 1.5M.179 74.147c.281 2.934.696 3.377 3.321 3.549 2.804.183 2.836.147.5-.555-1.797-.54-2.416-1.344-2.202-2.858.164-1.158-.206-2.417-.821-2.797-.761-.471-1.016.381-.798 2.661M4 79.906c0 .499-.9.671-2 .384-1.624-.425-2-.031-2 2.093C0 83.823.48 85 1.067 85c.639 0 .799-.903.397-2.25-.66-2.215-.646-2.219.914-.25 1.368 1.727 1.721 1.796 2.588.5 1.295-1.935 1.312-4 .034-4-.55 0-1 .408-1 .906M0 87c0 .55.477 1 1.059 1s.781-.45.441-1-.816-1-1.059-1S0 86.45 0 87m40.624 8.539c-.965 2.514-.681 3.163.498 1.136.584-1.004.851-2.036.593-2.293-.257-.258-.749.263-1.091 1.157m46.563 6.392c-.222 5.612-.078 6.069 1.903 6.069 1.735 0 2.028-.429 1.54-2.25-.331-1.237-.609-3.176-.616-4.309-.008-1.132-.593-2.851-1.301-3.818-1.107-1.515-1.32-.915-1.526 4.308M98.158 100c0 1.375.227 1.938.504 1.25.278-.687.278-1.812 0-2.5-.277-.687-.504-.125-.504 1.25m-61.444 5.056c-1.49 3.455-2.546 6.446-2.345 6.646.589.59 5.75-10.844 5.387-11.934-.182-.547-1.551 1.833-3.042 5.288m61.365-.473c.048 1.165.285 1.402.604.605.289-.722.253-1.585-.079-1.917s-.568.258-.525 1.312m-90.963.085c-.064.643.162 1.892.501 2.776.477 1.244.929 1.348 2 .459.761-.631 1.369-1.88 1.351-2.775-.027-1.414-.213-1.389-1.413.194-1.336 1.762-1.396 1.762-1.852 0-.259-1.002-.523-1.296-.587-.654m85.217 6.876c0 .801.375 1.456.834 1.456s.833-.423.833-.941-.375-1.173-.833-1.456c-.459-.283-.834.14-.834.941m-84.906 5.977c2.055 1.555 3.203 1.308 2.114-.454-.362-.587-1.42-1.053-2.35-1.035-1.485.028-1.456.209.236 1.489m125.073 4.435c4.95.437 16.2 1.037 25 1.333 12.215.41 13.683.347 6.205-.265-5.388-.441-16.638-1.041-25-1.333-11.314-.395-12.902-.327-6.205.265m50.75 2.783c3.162.198 8.338.198 11.5 0s.575-.361-5.75-.361-8.912.163-5.75.361M13 132c1.426.921.659 1.457-1.5 1.047-.55-.104-.419.401.292 1.123 1.065 1.083 1.456 1.052 2.234-.178 1.391-2.2 1.184-2.994-.776-2.977-1.496.013-1.532.157-.25.985m-2 5.5c1.031 1.242.923 1.503-.628 1.515-1.545.013-1.615.178-.398.948.971.614 1.732.524 2.234-.266 1.269-1.995.886-3.697-.83-3.697-1.329 0-1.398.271-.378 1.5m-2.187 5.183c.721.289 1.584.253 1.916-.079s-.258-.568-1.312-.525c-1.165.048-1.402.285-.604.604M8 145c-1.282.828-1.246.972.25.985.963.008 1.75-.435 1.75-.985 0-1.22-.113-1.22-2 0m-1 3c0 .55.477 1 1.059 1s.781-.45.441-1-.816-1-1.059-1-.441.45-.441 1m-1 3c0 .55.477 1 1.059 1s.781-.45.441-1-.816-1-1.059-1-.441.45-.441 1"/></svg>