<svg xmlns="http://www.w3.org/2000/svg" width="200" height="200" fill="#000000"><path fill-opacity=".239" fill-rule="evenodd" d="M81.358 1.54c-4.478.699-10.273 2.213-12.877 3.365S63.27 7 62.688 7c-1.495 0-14.815 6.984-16.463 8.632-.752.752-1.782 1.368-2.289 1.368-1.387 0-5.572 3.62-14.444 12.492S17 42.549 17 43.936c0 .507-.616 1.537-1.368 2.289C13.984 47.873 7 61.193 7 62.688c0 .582-.923 3.144-2.051 5.694-2.568 5.805-4.96 21.4-4.914 32.031.043 9.724 2.077 23.41 4.397 29.587.93 2.475 2.139 5.982 2.688 7.792 3.714 12.258 22.781 36.107 34.976 43.747 2.422 1.518 4.629 3.055 4.904 3.415s2.379 1.618 4.677 2.796 4.997 2.57 6 3.093c9.597 5.007 28.933 9.174 42.522 9.164 10.13-.008 28.484-3.295 33.939-6.077 2.08-1.062 4.484-1.93 5.342-1.93s3.342-1.125 5.52-2.5 4.143-2.5 4.366-2.5c1.105 0 12.634-8.289 12.634-9.083 0-.504.52-.917 1.156-.917 2.683 0 23.844-24.523 23.844-27.634 0-.223 1.125-2.188 2.5-4.366s2.5-4.662 2.5-5.52.846-3.229 1.881-5.27 2.634-7.76 3.554-12.71 2.098-9.781 2.619-10.736c1.161-2.132 1.272-23.084.118-22.371-.455.282-1.416-3.179-2.136-7.691-1.153-7.219-4.393-17.577-7.204-23.025-.517-1.003-1.904-3.703-3.082-6s-2.436-4.402-2.796-4.677-1.897-2.482-3.415-4.904c-7.64-12.195-31.489-31.262-43.747-34.976-1.81-.549-5.317-1.758-7.792-2.688C118.983.294 97.523-.982 81.358 1.54M.378 100c0 6.325.163 8.912.361 5.75s.198-8.338 0-11.5-.361-.575-.361 5.75"/><path fill-opacity=".201" fill-rule="evenodd" d="M84.795 1.504c-5.337.683-11.637 2.017-14 2.964A205 205 0 0 1 62.5 7.552c-3.423 1.166-7.171 3.094-17.536 9.017C37.362 20.913 17 41.337 17 44.618c0 .398-.654 1.447-1.454 2.331C13.669 49.023 7 62.032 7 63.619c0 .669-.931 3.387-2.069 6.042-1.217 2.839-2.704 10.082-3.61 17.583-1.389 11.503-1.388 14.009.009 25.506 1.614 13.276 3.171 18.351 9.741 31.75 4.687 9.559 5.292 10.549 10.374 16.996 15.52 19.686 38.106 33.023 62.055 36.643 29.252 4.423 57.803-3.067 79.614-20.884 2.431-1.986 12.81-12.348 14.487-14.463 3.035-3.828 8.232-11.754 10.142-15.469 1.182-2.297 2.577-4.997 3.101-6 2.737-5.238 6.071-16.856 7.125-24.823.654-4.95 1.604-9.781 2.11-10.736 1.27-2.396 1.201-13.055-.079-12.264-.566.35-1-.483-1-1.922 0-9.08-4.936-27.079-10.169-37.078-4.07-7.777-11.08-17.482-17.168-23.765C165.055 23.914 156.77 17 155.204 17c-.527 0-1.461-.605-2.075-1.345C151.908 14.184 137.851 7 136.193 7c-.565 0-3.181-.923-5.813-2.051C125.55 2.878 105.893-.088 98.5.138c-2.2.068-8.367.682-13.705 1.366M.32 100c0 3.575.182 5.037.403 3.25s.222-4.713 0-6.5C.502 94.963.32 96.425.32 100"/><path fill-opacity=".51" fill-rule="evenodd" d="M75.659 44.75c-2.429 4.8-2.798 10.012-1.557 22.047 1.06 10.284.999 12.693-.492 19.71-2.539 11.938-9.052 27.305-17.163 40.493-1.861 3.025-3.694 6.124-4.074 6.886s-2.194 3.619-4.031 6.348-3.058 5.416-2.715 5.971c.347.562.9.618 1.248.126.344-.486 2.65-2.434 5.125-4.331s4.725-3.685 5-3.974c.52-.547 1.59-1.246 8.871-5.795 2.403-1.502 4.959-3.293 5.678-3.981S73.416 127 74.1 127c.683 0 1.953-.627 2.821-1.392 2.42-2.134 16.749-8.227 24.579-10.452 9.181-2.608 14.382-3.282 17.955-2.327l2.914.78-4.706 3.176c-6.31 4.259-6.909 4.764-14.08 11.874-6.456 6.402-8.612 11.132-10.037 22.019-.984 7.523-1.624 7.387 33.29 7.086l30.664-.264-.217-10.401c-.181-8.667-.737-11.916-3.335-19.5-3.087-9.01-7.738-19.634-9.017-20.599-.364-.275-1.59-2.33-2.724-4.567-1.133-2.237-2.769-4.654-3.634-5.372S137 95.321 137 94.79c0-1.291-13.987-18.003-20.392-24.364C110.631 64.49 102.8 57.536 98.109 54c-1.824-1.375-4.461-3.513-5.859-4.75S89.099 47 88.354 47 87 46.647 87 46.216C87 44.987 81.418 42 79.121 42c-1.254 0-2.618 1.084-3.462 2.75"/><path fill-rule="evenodd" d="M75.328 45.75c-1.312 3.135-1.457 6.372-.887 19.75.924 21.675-.646 28.428-11.625 50-2.24 4.4-4.888 9.61-5.884 11.578s-2.514 4.16-3.372 4.872-1.56 2.14-1.56 3.172-.367 1.878-.816 1.878c-.795 0-5.184 7.129-5.184 8.42 0 .639 11.247-7.398 15.908-11.368 1.325-1.129 2.865-2.052 3.422-2.052s1.723-.638 2.591-1.417c1.868-1.676 9.145-5.868 14.079-8.11 1.925-.874 5.3-2.434 7.5-3.466 11.268-5.284 32.5-9.114 32.5-5.863 0 .787-2.826 3.29-6.279 5.56-7.158 4.706-16.077 13.134-18.105 17.107-3.434 6.728-4.736 20.545-2.034 21.582 2.476.95 59.754.68 61.284-.289 2.212-1.401.512-17.83-2.94-28.404-3.889-11.916-13.356-30.539-16.03-31.533-.493-.184-.896-.905-.896-1.604s-1.012-2.415-2.25-3.813-3.363-4.052-4.723-5.896C125.139 79.226 96.981 52 95.014 52c-.366 0-1.722-1.125-3.014-2.5S89.25 47 88.759 47s-2.367-1.125-4.17-2.5c-4.776-3.643-7.359-3.294-9.261 1.25"/></svg>