<svg xmlns="http://www.w3.org/2000/svg" width="200" height="200" fill="#000000"><path fill-opacity=".271" fill-rule="evenodd" d="M85.5 4.039c-38.416 5.99-70.488 35.477-79.464 73.056-9.384 39.291 6.497 80.285 39.842 102.839 25.76 17.425 59.9 21.254 89.131 9.998 22.292-8.584 42.473-27.542 52.561-49.377a96.98 96.98 0 0 0-1.305-84.055c-12.405-24.82-35.719-43.516-63.119-50.616-8.883-2.302-28.538-3.266-37.646-1.845m22 24.018c-2.2.455-6.322.854-9.161.885-4.472.05-5.499.459-7.686 3.058-1.388 1.65-3.143 3-3.901 3C84.665 35 77 38.916 77 39.983c0 .515-1.233 2.079-2.74 3.477-2.49 2.308-2.556 2.54-.722 2.54 1.109 0 2.924-.635 4.033-1.412s4.696-2.164 7.972-3.084C92.259 39.62 114 29.202 114 27.868c0-.992-.919-.965-6.5.189m-.664 26.808c-3.115 1.026-7.246 2.843-9.18 4.038C94.039 61.139 88 67.406 88 68.924c0 .469 1.513 1.137 3.363 1.484 1.849.347 4.024 1.41 4.834 2.362 2.464 2.898 7.059 17.03 6.586 20.254-.24 1.637-.368 2.976-.284 2.976s3.372-1.125 7.308-2.5 7.853-2.5 8.706-2.5c2.836 0 2.707 2.872-.372 8.253-1.686 2.947-4.39 10.571-6.055 17.075-3.97 15.504-7.006 21.983-16.452 35.117-8.925 12.408-11.181 17.033-12.613 25.856-1.4 8.627-1.286 13.383.336 14.006.746.286 5.359.827 10.25 1.202 13.473 1.034 29.561-1.553 41.544-6.68l4.65-1.99.35-8.337c.512-12.231 2.239-13.108 4.126-2.095.697 4.068 1.615 6.593 2.399 6.593 4.312 0 30.348-24.533 28.761-27.102-.287-.464-3.49-1.761-7.118-2.881-5.51-1.702-8.112-1.931-15.79-1.392-9.138.643-9.213.629-12.46-2.272-4.933-4.408-5.031-8.84-.568-25.853 3.347-12.76 3.632-14.885 3.222-24-.729-16.215-7.419-32.897-15.963-39.809-4.793-3.876-11.758-4.514-19.924-1.826m.387 11.692C104.448 68.5 104.346 72.346 107 75c2.5 2.5 3.103 2.493 6.365-.073 3.073-2.417 3.414-5.912.806-8.272-2.282-2.066-4.103-2.091-6.948-.098M22 70.54c0 7.715 10.534 18.145 25.241 24.992C52.674 98.062 58.419 98.749 59.5 97c.35-.566-.483-1-1.921-1-2.776 0-9.762-2.515-13.349-4.807l-2.271-1.45 2.937-2.121c1.615-1.167 3.734-2.604 4.709-3.192 1.529-.924 1.562-1.152.238-1.66-.847-.325-3.555.726-6.044 2.345-2.698 1.755-5.17 2.68-6.154 2.302-2.565-.984-1.981-2.103 2.486-4.767l4.131-2.463-3.18-1.645c-3.018-1.561-3.349-1.54-6.499.407-4.293 2.653-5 2.59-7.108-.627-1.699-2.593-1.687-2.732.379-4.405l2.133-1.727-3.551-2.095C21.994 67.474 22 67.473 22 70.54m88.51-1.524c.346.559 1.047.758 1.559.441 1.387-.857 1.129-1.457-.628-1.457-.857 0-1.276.457-.931 1.016m63.419 17.734c-4.376 2.216-6.087 3.866-8.819 8.5l-3.391 5.75h-5.248c-7.302 0-8.8 1.628-10.897 11.847-.942 4.591-1.569 8.479-1.394 8.641.896.825 28.246-8.098 37.585-12.262l10.735-4.787-.143-9.344c-.102-6.652-.535-9.593-1.5-10.205-2.953-1.871-11.393-.943-16.928 1.86M73.746 126.587c-.569.57-2.383.865-22.922 3.734-9.428 1.317-14.359 3.303-15.485 6.237-.304.793-1.569 1.442-2.811 1.442-2.722 0-7.528 3.574-7.528 5.597 0 .799-1.166 1.896-2.592 2.438l-2.592.985 2.043 3.24c2.449 3.885 4.652 4.369 10.914 2.396 2.6-.819 6.395-1.769 8.434-2.11 2.221-.372 4.482-1.607 5.644-3.083 1.261-1.604 2.947-2.463 4.831-2.463 3.722 0 8.772-2.599 14.923-7.68 2.692-2.224 6.358-4.878 8.145-5.897 3.536-2.018 4.426-5.423 1.417-5.423-1.009 0-2.098.264-2.421.587"/><path fill-opacity=".193" fill-rule="evenodd" d="M89.472 3.98C50.653 8.27 17.986 36.016 6.953 74.067c-2.774 9.571-3.806 31.95-1.951 42.329 5.597 31.323 25.101 56.707 54.292 70.661 14.16 6.769 21.725 8.314 40.706 8.314 19.599 0 26.693-1.555 42.5-9.316 24.091-11.828 42.026-33.152 50.14-59.617 2.515-8.2 2.746-10.342 2.801-25.938.064-18.418-.573-22.128-6.39-37.211-8.483-21.997-29.053-42.858-51.454-52.184-14.566-6.064-33.012-8.795-48.125-7.125m-6.839 4.511c-20.023 4.159-36.47 13.172-49.778 27.28C24.5 44.627 20.79 50.038 15.867 60.543 9.415 74.31 7.706 82.256 7.596 99c-.074 11.211.336 16.201 1.809 22 2.147 8.456 7.101 20.775 11.093 27.588 6.358 10.848 20.028 24.064 32.502 31.421 5.511 3.25 17.219 8.276 22.105 9.488l2.604.647.541-8.322c.696-10.702 3.302-17.471 10.76-27.952 9.289-13.054 14.86-22.793 17.087-29.87 2.247-7.138 3.551-19.283 2.514-23.412-.557-2.223-.957-2.473-2.57-1.61-1.05.562-3.177 1.036-4.725 1.052-2.595.028-2.659.117-.816 1.125 5.134 2.808 5.918 7.626 1.854 11.393-1.455 1.348-3.62 2.452-4.81 2.452-2.277 0-13.952-4.291-15.904-5.845-.627-.499-2.04-.545-3.14-.102-3.427 1.382-10.927 1.037-13.277-.61-1.565-1.096-2.223-2.575-2.223-5 0-3.394-1.226-4.505-2.571-2.328-1.348 2.181-10.297.277-19.019-4.045-9.506-4.71-19.452-13.533-21.923-19.446-1.791-4.288-1.941-10.77-.287-12.424 2.205-2.205 4.993-1.247 18.188 6.251C51.485 79.462 66.914 87 69.212 87c.78 0 2.187-1.614 3.128-3.586.94-1.973 3.949-5.954 6.685-8.847S84 68.924 84 68.457s1.191-2.568 2.646-4.667C91.617 56.617 107.398 49 117.29 49c5.357 0 11.967 3.287 15.767 7.84 7.475 8.958 13.922 28.193 13.936 41.574.004 4.284-1.335 12.923-3.521 22.713-2.131 9.542-3.271 16.826-2.878 18.393 1.137 4.527 4.365 5.772 13.141 5.068 6.78-.543 8.653-.298 14.765 1.932 3.85 1.405 7.699 2.792 8.554 3.083 1.149.39 2.622-1.638 5.652-7.788 11.737-23.814 13.339-46.32 5.113-71.815-9.302-28.832-34.269-52.075-64.621-60.159-10.076-2.683-30.823-3.374-40.565-1.35M107.5 54.399c-8.206 2.595-14.263 6.535-18.155 11.811-3.09 4.189-2.97 4.79.964 4.79 1.82 0 4.05.563 4.957 1.25 2.46 1.865 7.986 17.698 7.33 21-.651 3.279-.161 3.337 6.584.774 5.249-1.995 7.581-1.846 4.818.308-1.156.902-1.507 3.562-1.539 11.668-.035 9.193-.446 11.679-3.304 19.971-3.76 10.907-4.848 12.863-14.91 26.809-9.107 12.621-11.476 18.768-11.63 30.179l-.115 8.459 4.5.855c6.238 1.184 27.186.139 34.845-1.739 3.489-.855 9.719-2.96 13.843-4.677l7.499-3.122-.657-4.617c-.361-2.54-.911-6.305-1.221-8.368-.328-2.18-.152-3.75.422-3.75.542 0 1.563 3.375 2.269 7.5s1.466 7.5 1.689 7.5c3.656 0 30.311-24.03 30.311-27.326 0-.717-2.96-2.349-6.579-3.627-5.727-2.021-7.701-2.239-15.25-1.677-11.243.837-15.003-.758-17.051-7.232-1.303-4.12-1.167-5.198 2.473-19.5 3.007-11.813 3.83-16.895 3.748-23.138-.235-17.89-9.519-38.835-19.541-44.085-3.286-1.722-10.884-1.729-16.3-.016m.838 11.6c-2.812 1.133-3.701 4.109-2.208 7.386 1.544 3.389 6.065 3.602 8.313.392 2.058-2.937 1.964-4.37-.443-6.777-2.206-2.206-2.531-2.264-5.662-1.001m2.301 1.695c-1.126 1.126-.685 2.306.861 2.306.825 0 1.5-.423 1.5-.941 0-1.261-1.562-2.164-2.361-1.365M22 71.35c0 6.944 10.08 17.028 23.5 23.507 10.968 5.296 13.067 4.97 16.915-2.627l1.657-3.27-4.786-2.007c-6.622-2.776-22.582-11.018-29.727-15.351C26.291 69.621 23.254 68 22.809 68S22 69.507 22 71.35m58.232 7.038c-1.636 1.864-5.314 7.715-8.173 13.002-4.966 9.186-5.982 13.485-3.388 14.339.725.238.98-.348.669-1.538-.936-3.578 10.82-23.975 15.827-27.461 2.308-1.607 2.31-1.626.187-1.678-1.233-.03-3.413 1.39-5.122 3.336"/><path fill-opacity=".673" fill-rule="evenodd" d="M81.113 5.486c-30.858 6.978-53.534 24.53-67.471 52.226-11.4 22.655-12.799 52.416-3.586 76.263 11.369 29.427 37.247 52.034 68.189 59.569 3.44.838 11.205 1.786 17.255 2.106 33.611 1.781 65.889-14.643 84.603-43.05 11.365-17.251 16.457-35.758 15.573-56.6-.619-14.598-2.977-24.551-8.729-36.844-11.794-25.202-33.323-43.579-60.659-51.779-7.416-2.224-11.13-2.69-23.788-2.985-10.592-.247-16.877.074-21.387 1.094M89.5 7.083c-36.856 3.926-68.292 30.399-79.109 66.62-3.561 11.926-4.438 32.024-1.936 44.371 3.606 17.799 10.608 31.416 22.924 44.585 8.641 9.239 16.648 15.364 26.617 20.361 6.507 3.263 16.33 6.98 18.443 6.98.675 0 1.57-3.729 2.233-9.307 1.406-11.83 3.75-17.185 13.578-31.018 4.366-6.146 8.958-13.2 10.206-15.675 4.878-9.679 7.944-23.805 6.869-31.645-.543-3.959-.816-4.324-2.714-3.634-1.161.422-3.798.748-5.861.724-2.062-.023-3.75.08-3.75.231 0 .15 1.37.981 3.043 1.846 4.351 2.25 5.707 5.684 3.547 8.982-3.08 4.7-6.061 4.992-14.542 1.426-4.151-1.746-8.673-3.057-10.048-2.914-11.856 1.23-16-.498-16-6.671 0-3.654-1.021-4.23-3.086-1.741-2.005 2.415-7.931 1.21-17.593-3.578-17.751-8.795-29.342-25.172-22.317-31.53 2.405-2.176 2.568-2.115 17.82 6.697 13.32 7.696 30.207 15.732 31.786 15.127.655-.252 2.825-3.105 4.822-6.341 1.998-3.236 4.796-6.8 6.219-7.92 1.424-1.119 3.477-3.831 4.563-6.026 3.579-7.234 12.836-13.49 24.519-16.57 9.548-2.516 16.178-.625 22.557 6.436 8.867 9.815 15.786 32.291 14.327 46.538-.349 3.4-2.013 11.779-3.698 18.622-3.288 13.347-3.37 19.407-.294 21.656 1.15.841 5.235 1.293 11.816 1.309 8.453.02 11.017.425 16.059 2.537 3.3 1.383 6.436 2.61 6.97 2.727 1.425.312 8.083-12.637 10.946-21.288 3.514-10.616 4.586-17.752 4.572-30.434C192.93 44.083 144.454 1.231 89.5 7.083m20.26 46.444c-9.929 2.46-18.327 7.8-21.296 13.542-1.978 3.827-1.932 3.929 1.786 3.946 4.652.022 5.306.697 8.735 9.015 2.96 7.18 3.996 13.574 2.573 15.877-.885 1.432-.833 1.424 5.942-.907 6.755-2.324 7.647-2.428 5.255-.611-1.553 1.178-1.619 1.953-.603 7.014.943 4.695.846 7.199-.557 14.337-2.468 12.563-6.801 21.982-15.919 34.603-10.417 14.421-12.906 20.39-13.472 32.321l-.435 9.163 5.737.717c9.511 1.188 29.131-.121 37.362-2.493 8.561-2.467 18.726-7.319 18.422-8.792-.115-.56-.437-4.11-.715-7.888l-.506-6.871 1.454 6.905c.8 3.798 1.664 7.116 1.921 7.372.819.819 8.868-4.422 14.853-9.672 7.013-6.152 16.775-17.179 16.131-18.222-.256-.414-2.976-1.693-6.044-2.84-4.492-1.681-7.672-2.064-16.341-1.969-11.531.127-14.068-.639-15.972-4.817-1.834-4.025-1.193-10.914 2.144-23.057 4.323-15.731 4.419-27.639.325-40.2-7.512-23.046-15.809-30.182-30.78-26.473m-2.515 13.628c-1.709 1.709-1.566 6.333.242 7.834 3.604 2.991 8.356-1.319 7.343-6.66-.419-2.21-5.728-3.031-7.585-1.174M110 68.5c0 .825.675 1.5 1.5 1.5s1.5-.675 1.5-1.5-.675-1.5-1.5-1.5-1.5.675-1.5 1.5m-88.487.479c-1.029 1.665 1.622 8.729 4.658 12.412 6.198 7.519 26.191 18.488 31.341 17.195 1.167-.293 2.747-1.782 3.511-3.309s2.028-3.549 2.807-4.492c1.266-1.533 1.111-1.844-1.457-2.922-9.67-4.063-20.127-9.23-28.702-14.184-10.3-5.951-11.176-6.289-12.158-4.7m61.363 6.527c-4.281 2.326-17.784 25.686-16.612 28.74 1.079 2.812 6.965 3.215 11.884.813 12.717-6.211 20.209-10.75 20.912-12.67.805-2.2-2.799-14.165-5.105-16.943-1.522-1.834-7.654-1.801-11.079.06m3.197 10.222c-4.371 5.302-3.803 5.981 1.38 1.65 2.449-2.047 4.222-4.095 3.941-4.55-.953-1.541-2.239-.84-5.321 2.9m-20.699 6.739c-1.053 2.744.196 3.772 1.392 1.146.748-1.64.815-2.613.181-2.613-.555 0-1.263.66-1.573 1.467M87 104.162l-3.5 2.154 3 1.297c4.275 1.848 5.059 1.709 6.99-1.239 1.418-2.163 1.482-2.777.365-3.484-2.018-1.279-3.009-1.095-6.855 1.272m10.2 3.038c-1.226 1.226-1.655 3.8-.634 3.8 1.605 0 4.434-2.255 4.434-3.535 0-1.771-2.145-1.92-3.8-.265"/><path fill-opacity=".959" fill-rule="evenodd" d="M83.342 5.479C62.468 9.267 44.984 18.815 30.223 34.487 2.837 63.564-3.564 105.626 13.937 141.5c7.79 15.967 18.07 28.004 31.968 37.431 38.162 25.886 89.396 21.118 121.667-11.322 29.018-29.168 36.313-72.114 18.536-109.109-5.677-11.813-11.518-19.814-20.984-28.744C143.749 9.592 112.234.237 83.342 5.479M86.5 7.008c-35.568 5.397-65.307 30.78-75.91 64.789-13.542 43.435 5.805 90.075 46.01 110.92C63.333 186.208 75.731 191 78.029 191c.384 0 .922-4.162 1.196-9.25.62-11.554 3.664-18.742 13.699-32.355 8.567-11.621 12.426-19.322 15.184-30.296 1.888-7.514 2.355-19.045.83-20.464-.241-.224-3.363-.107-6.938.26l-6.5.668 4.25 2.239c3.548 1.869 4.25 2.731 4.25 5.218 0 5.493-6.422 8.819-11.764 6.094-8.355-4.264-11.999-5.273-15.52-4.301-3.745 1.034-10.152.151-11.951-1.648-.545-.545-1.115-2.492-1.268-4.328-.153-1.835-.327-3.688-.387-4.117-.061-.429-1.393.169-2.962 1.329-2.568 1.898-3.285 1.991-7.218.932C41.524 97.91 27.545 88.557 22.121 80.37c-2.718-4.105-3.164-5.612-2.915-9.858.265-4.51.544-5.041 2.794-5.299 1.632-.187 6.493 2.028 14 6.38C47.98 78.539 67.188 88 69.308 88c.673 0 2.674-2.423 4.446-5.385 1.772-2.963 4.783-6.757 6.692-8.434s4.101-4.553 4.87-6.394c2.138-5.118 7.419-9.76 15.435-13.566 13.695-6.504 25.148-5.217 32.097 3.608 9.184 11.663 15.283 34.411 13.019 48.554-.539 3.364-2.104 10.617-3.479 16.117-3.151 12.613-3.274 18.058-.471 20.861 1.843 1.844 3.321 2.091 12.833 2.145 9.491.055 11.499.389 17.145 2.852 7.429 3.24 6.414 3.955 12.658-8.918 11.19-23.072 11.927-51.071 1.988-75.531-7.837-19.288-25.469-38.264-44.522-47.915-15.792-8-38.158-11.62-55.519-8.986m23.198 46.088c-6.796 1.599-14.395 5.852-18.591 10.404-4.924 5.341-5.274 7.5-1.218 7.5 4.179 0 6.43 2.548 9.572 10.832 2.009 5.3 2.635 8.419 2.255 11.25-.289 2.155-.123 3.918.368 3.918.492 0 3.262-.9 6.155-1.999 5.697-2.166 7.195-2.486 4.635-.991-1.367.799-1.549 2.344-1.144 9.72.889 16.21-4.276 30.241-18.056 49.049-8.504 11.608-11.227 18.361-12.275 30.444l-.67 7.723 2.885 1.148c5.12 2.037 27.7 1.496 37.528-.899 11.013-2.684 22.853-7.901 22.873-10.079.011-1.163.235-1.271.798-.384 1.701 2.677 20.232-11.921 28.132-22.161 5.065-6.565 5.116-6.462-4.71-9.548-5.155-1.618-7.909-1.859-15.536-1.358-8.803.578-9.411.487-12.083-1.811-4.452-3.83-4.466-8.774-.073-25.791 3.42-13.246 3.682-15.225 3.178-24-.795-13.827-6.561-29.652-13.63-37.405-5.403-5.926-11.63-7.624-20.393-5.562M107.2 67.2c-1.683 1.683-1.494 5.364.371 7.229 2.061 2.06 3.745 1.985 5.774-.258 3.13-3.458 1.489-8.171-2.845-8.171-1.155 0-2.64.54-3.3 1.2m-85.867 1.375c-1.114 2.902 1.782 9.634 6.152 14.301 7.688 8.211 26.02 17.679 30.73 15.872C59.376 98.302 65 89.817 65 88.51c0-.131-2.138-1.041-4.75-2.022-6.479-2.434-20.125-9.311-29.529-14.88C26.443 69.073 22.716 67 22.44 67c-.277 0-.775.709-1.107 1.575M110 68.441c0 .793.399 1.688.887 1.989 1.101.681 3.342-1.868 2.438-2.772-1.19-1.19-3.325-.687-3.325.783m-28.852 8.088C77.816 79.332 66 99.765 66 102.723c0 5.148 7.087 5.746 15.112 1.275 2.963-1.651 8.2-4.384 11.637-6.072 7.478-3.674 8.393-5.794 5.747-13.322C94.933 74.472 94.513 74 89.051 74c-3.78 0-5.583.577-7.903 2.529m-15.493 15.3C63.931 93.733 63.401 97 64.815 97c.448 0 1.566-1.575 2.484-3.5 1.806-3.789 1.008-4.601-1.644-1.671m22.123 11.28c-5.208 2.672-5.276 3.429-.474 5.263 5.186 1.98 5.696 2.003 5.696.25 0-.757.675-1.937 1.5-2.622 2.056-1.706 1.888-2.502-.786-3.721-1.773-.807-3.107-.621-5.936.83m8.779 4.114c-2.137 3.051-1.963 3.777.908 3.777 1.45 0 2.91-.832 3.546-2.021 2.157-4.03-1.776-5.581-4.454-1.756m45.638 63.277c.02 1.65.244 2.204.498 1.231s.237-2.323-.037-3-.481.119-.461 1.769m1 6c.02 1.65.244 2.204.498 1.231s.237-2.323-.037-3-.481.119-.461 1.769"/></svg>