<svg xmlns="http://www.w3.org/2000/svg" width="200" height="200" fill="#000000"><path fill-opacity=".086" fill-rule="evenodd" d="M82.522 1.552C31.986 11.1-2.598 55.055.34 106c1.435 24.891 11.277 46.71 29.114 64.546C47.29 188.383 69.109 198.225 94 199.66c49.855 2.876 94.513-31.27 103.549-79.171.932-4.944 2.09-9.77 2.573-10.725 1.251-2.474 1.139-21.043-.122-20.264-.58.358-1-.614-1-2.313 0-1.612-1.084-7.205-2.409-12.428-8.83-34.809-36.388-62.35-71.471-71.43C112.744.126 94.168-.649 82.522 1.552m61.126 38.213c.631.404 1.581 4.785 2.111 9.735l.964 9 .139-6.625c.183-8.781-.689-12.879-2.737-12.86-1.069.01-1.232.267-.477.75M91 40.596c0 .327.848 1.79 1.884 3.25 1.568 2.21 1.746 3.49 1.059 7.654-1.421 8.623-1.473 8.5 3.591 8.5h4.535l-.615-5.25c-.339-2.888-.809-5.863-1.047-6.613-.237-.749.511-2.887 1.663-4.75L104.163 40h-6.581c-3.62 0-6.582.268-6.582.596M147.252 62.5c.011 2.2.216 2.982.455 1.738s.23-3.044-.02-4-.446.062-.435 2.262M.37 100c0 5.775.165 8.138.367 5.25s.202-7.612 0-10.5S.37 94.225.37 100M89 90.282c0 .155-1.35 10.603-3 23.218s-3 23.738-3 24.718c0 4.045 10.391 1.034 17.03-4.935 7.991-7.185 10.558-18.217 6.632-28.499-1.869-4.894-8.798-12.125-13.235-13.812C90.924 90.02 89 89.72 89 90.282m-41.393 10.3c-.334.87-.607 2.947-.607 4.615 0 2.904.095 2.972 2.25 1.596 3.737-2.386 10.876-4.92 17.75-6.3l6.5-1.305-12.643-.094c-10.664-.079-12.738.154-13.25 1.488m-3.425 28.127c.276 1.428 26.75 17.692 27.53 16.912.134-.133.855-4.378 1.603-9.432L74.676 127H59.265c-13.998 0-15.381.157-15.083 1.709m82.503 7.48c.748 5.054 1.469 9.299 1.603 9.432.78.78 27.254-15.484 27.53-16.912.298-1.552-1.085-1.709-15.083-1.709h-15.411zm-15.453.811c0 1.925.206 2.713.457 1.75.252-.963.252-2.537 0-3.5-.251-.963-.457-.175-.457 1.75m1.294 9.23c.462 5.442.263 6.079-3.984 12.705-5.494 8.571-3.668 8.379 2.208-.232 4.58-6.712 4.84-8.083 2.693-14.203l-1.404-4z"/><path fill-opacity=".283" fill-rule="evenodd" d="M83.45 1.394c-34.417 6.582-61.763 27.9-75.015 58.479C2.441 73.706.56 83.429.577 100.5c.013 13.23.339 16.18 2.758 25 9.686 35.307 35.824 61.448 71.165 71.173 8.968 2.468 11.599 2.748 25.5 2.709 13.479-.037 16.774-.384 25.274-2.661 36.846-9.87 65.472-40.058 72.276-76.221.932-4.95 2.089-9.781 2.572-10.736 1.251-2.474 1.139-21.043-.122-20.264-.58.358-1-.614-1-2.313 0-5.638-4.9-22.178-9.145-30.866-12.867-26.337-36.473-45.68-64.647-52.969C113.186.241 94.145-.652 83.45 1.394M37.202 32.893c-8.12 8.121-11.989 13.385-16.691 22.714-7.486 14.854-5.624 15.079 4.344.525 3.286-4.797 8.937-12.696 12.559-17.555C41.036 33.719 44 29.351 44 28.872c0-1.907-2.131-.646-6.798 4.021m87.902 7.022c-.891.564-2.161 5.904-3.505 14.734L119.492 68.5H80.508l-2.193-14c-1.206-7.7-2.22-14.112-2.254-14.25S71.115 40 65.144 40H54.288l-.65 7.789c-.357 4.285-2.656 24.416-5.107 44.737-2.485 20.595-4.078 37.327-3.599 37.806 2.343 2.343 26.618 15.403 26.939 14.493.204-.578 2.242-14.163 4.53-30.188L80.559 85.5h38.87l4.186 29.817c2.302 16.399 4.347 29.978 4.544 30.175.392.392 25.512-13.763 26.917-15.168.489-.489-.662-13.267-2.645-29.346C150.5 85.315 148.483 66.425 147.95 59c-.534-7.425-1.241-14.962-1.571-16.75l-.602-3.25-9.638.015c-5.302.009-10.267.413-11.035.9M91 40.596c0 .327.837 1.79 1.86 3.25 1.711 2.44 1.764 3.358.667 11.404L92.333 64h15.28l-1.183-8.75c-1.089-8.058-1.034-8.96.694-11.404 1.032-1.46 1.876-2.923 1.876-3.25 0-.328-4.05-.596-9-.596s-9 .268-9 .596M.37 100c0 5.775.165 8.138.367 5.25s.202-7.612 0-10.5S.37 94.225.37 100m88.625-9.75c-.002.138-1.8 13.975-3.995 30.75s-3.993 31.672-3.995 33.104c-.004 2.049 2.016 4.345 9.495 10.793l9.5 8.189 9.5-8.189c7.074-6.099 9.5-8.801 9.5-10.584 0-2.164-6.185-51.493-7.593-60.563l-.583-3.75H99.912c-6.002 0-10.914.112-10.917.25"/><path fill-opacity=".282" fill-rule="evenodd" d="M83.45 1.394c-11.053 2.113-18.275 4.454-27.297 8.847-26.07 12.693-45.302 36.168-52.882 64.551-3.606 13.501-3.821 35.281-.479 48.583 9.118 36.292 36.07 63.729 72.088 73.385 8.383 2.248 11.613 2.579 25.12 2.579 13.573 0 16.718-.326 25.297-2.624 36.779-9.85 65.458-40.102 72.253-76.215.932-4.95 2.089-9.781 2.572-10.736 1.251-2.474 1.139-21.043-.122-20.264-.58.358-1-.614-1-2.313 0-5.187-4.678-21.568-8.35-29.237-5.455-11.394-11.294-19.664-20.115-28.485C157.49 16.42 142.585 7.85 125.05 3.312 113.19.242 94.079-.639 83.45 1.394M82 9.522c-9.46 1.941-16.289 4.544-28.896 11.014-10.036 5.15-12.071 6.679-19.537 14.68C17.071 52.894 8 75.627 8 99.289c0 20.338 8.741 37.156 25.389 48.849l7.111 4.994 1.153-2.816c.635-1.549.899-3.229.588-3.733-1.816-2.945-.661-17.164 4.067-50.068 2.843-19.792 5.304-35.293 5.467-34.447.163.847-1.516 16.347-3.731 34.444-2.344 19.149-3.656 33.276-3.14 33.792 2.363 2.363 26.644 15.438 26.967 14.521.204-.578 2.242-14.163 4.529-30.188L80.558 85.5l19.196-.272 19.197-.271.505 2.271c.277 1.25 2.091 13.747 4.031 27.772s3.862 26.714 4.27 28.197l.743 2.698 12.854-7.352c7.07-4.043 13.25-7.747 13.733-8.23.505-.505-.406-11.29-2.14-25.346-1.66-13.457-3.445-30.317-3.967-37.467s-1.203-14.473-1.514-16.273c-.559-3.235-.527-3.266 2.734-2.683 7.827 1.401 9.729 1.251 12.104-.95l2.356-2.183 7.286 8.294c4.007 4.562 7.908 8.295 8.67 8.295 2.298 0 1.578-4.156-1.998-11.528-4.545-9.367-9-14.235-20.468-22.362-15.01-10.637-28.092-16.492-42.584-19.059C107.575 7.636 89.99 7.882 82 9.522m10.268 35.02c1.021 1.949 1.108 4.037.373 8.955-.857 5.736-1.232 6.477-3.55 7.015-3.732.867-9.767 6.212-8.474 7.505.652.652 7.946.929 19.924.756l18.896-.273 1.206-7.5c1.746-10.869 1.688-11.68-.893-12.358-1.237-.325-2.4-.152-2.583.384-.184.535-1.421.974-2.75.974s-2.417.337-2.418.75c0 .413-1.154.817-2.565.898-1.41.082-2.734.319-2.943.528-.208.208-.029 2.954.398 6.101l.776 5.723H92.333l1.182-8.75c1-7.41.957-9.095-.282-11-1.98-3.045-2.613-2.854-.965.292m-39.189 4.041c.048 1.165.285 1.402.604.605.289-.722.253-1.585-.079-1.917s-.568.258-.525 1.312m-.884 7.917c.02 1.65.244 2.204.498 1.231s.237-2.323-.037-3-.481.119-.461 1.769M.37 100c0 5.775.165 8.138.367 5.25s.202-7.612 0-10.5S.37 94.225.37 100m88.625-9.75c-.002.138-1.8 13.975-3.995 30.75s-3.993 31.673-3.995 33.106c-.004 2.049 2.023 4.364 9.495 10.842l9.5 8.236 9.5-8.236c7.066-6.126 9.5-8.85 9.5-10.633 0-2.165-6.184-51.49-7.593-60.565l-.583-3.75H99.912c-6.002 0-10.914.112-10.917.25m90.142 49.639c-3.409 6.81-5.994 12.587-5.744 12.838.952.952 7.676-9.51 10.203-15.874 4.607-11.604 1.971-9.809-4.459 3.036"/><path fill-opacity=".192" fill-rule="evenodd" d="M141.083 9.373c1.029.921 6.917 3.626 6.917 3.178 0-.576-5.544-3.551-6.617-3.551-.394 0-.529.168-.3.373M149 13.43c0 .275.9.981 2 1.57s2 .845 2 .57-.9-.981-2-1.57-2-.845-2-.57m8.5 5.66c15.327 12.407 27.628 29.295 32.983 45.281 4.864 14.519 5.797 20.93 5.244 36.057-.541 14.838-1.617 20.165-6.77 33.528-7.535 19.538-26.425 40.118-45.93 50.037-18.245 9.279-40.837 12.887-59.644 9.524-35.828-6.406-62.03-27.618-75.712-61.29C3.421 121.769 1.603 110.94 1.591 96c-.01-11.245-.157-12.581-.884-8-.48 3.025-.639 10.45-.353 16.5 2.114 44.813 32.462 81.701 76.271 92.708 13.342 3.352 35.077 3.128 48.672-.501 36.71-9.8 65.465-40.129 72.253-76.207.932-4.95 2.089-9.781 2.572-10.736 1.251-2.474 1.139-21.043-.122-20.264-.576.356-1.003-.574-1.007-2.191-.011-4.526-3.626-18.219-6.886-26.085-6.422-15.496-21.219-34.039-33.607-42.113l-5-3.259zM92.182 44.5c.626 1.375 1.527 2.5 2.002 2.5s.125-1.125-.776-2.5-1.802-2.5-2.002-2.5.149 1.125.776 2.5m-.331 13.293L90.341 67h9.329c7.627 0 9.33-.274 9.33-1.5 0-1.213-1.592-1.5-8.329-1.5h-8.329l.883-6.589c1.369-10.221.318-9.928-1.374.382M107.158 61c0 1.375.227 1.938.504 1.25.278-.687.278-1.812 0-2.5-.277-.687-.504-.125-.504 1.25m42 9c0 1.375.227 1.938.504 1.25.278-.687.278-1.812 0-2.5-.277-.687-.504-.125-.504 1.25M4.079 71.583c.048 1.165.285 1.402.604.605.289-.722.253-1.585-.079-1.917s-.568.258-.525 1.312m45.549 2.095c-2.41 12.103-8.722 59.625-8.011 60.32 1.53 1.496 29.652 17.066 30.07 16.648.219-.219.613-2.141.874-4.272.272-2.218.147-3.154-.293-2.19-.662 1.452-2.537.674-13.622-5.654-7.07-4.036-13.268-7.752-13.772-8.256-.557-.557.489-12.235 2.661-29.706 1.968-15.833 3.371-28.995 3.117-29.249s-.715.808-1.024 2.359M150.117 77.5c-.046 2.2 1.251 14.785 2.883 27.967 1.703 13.767 2.592 24.341 2.087 24.846-1.388 1.388-26.531 15.576-26.918 15.19-.191-.191-1.156-5.67-2.145-12.175s-1.849-10.524-1.911-8.931c-.067 1.716-1.562 4.666-3.668 7.236l-3.555 4.338 1.055 7.587c1.817 13.063 2.16 12.196-8.475 21.416l-9.531 8.263-7.219-6.298c-3.971-3.464-8.458-7.426-9.97-8.805L80 155.626v3.044c0 2.623 1.341 4.171 9.695 11.187 5.332 4.479 9.974 8.143 10.315 8.143 1.432 0 19.436-15.974 20.136-17.864.437-1.184 3.693-3.54 7.626-5.521 3.775-1.901 9.546-5.698 12.825-8.438 3.278-2.739 8.76-6.621 12.182-8.627 3.825-2.241 6.209-4.301 6.189-5.348-.083-4.455-8.777-58.192-8.851-54.702M2.079 79.583c.048 1.165.285 1.402.604.605.289-.722.253-1.585-.079-1.917s-.568.258-.525 1.312m78.528 6.999c-.334.87-.571 2.557-.528 3.75.043 1.192.306 1.606.583.918C81.041 90.312 85.869 90 100 90s18.959.312 19.338 1.25c.277.688.54.274.583-.918.195-5.358.292-5.332-19.921-5.332-16.208 0-18.869.217-19.393 1.582M.37 100c0 5.775.165 8.138.367 5.25s.202-7.612 0-10.5S.37 94.225.37 100m78.825-3.5c.02 1.65.244 2.204.498 1.231s.237-2.323-.037-3-.481.119-.461 1.769m41 0c.02 1.65.244 2.204.498 1.231s.237-2.323-.037-3-.481.119-.461 1.769m-42 7c.02 1.65.244 2.204.498 1.231s.237-2.323-.037-3-.481.119-.461 1.769m43 0c.02 1.65.244 2.204.498 1.231s.237-2.323-.037-3-.481.119-.461 1.769M77.232 110c0 1.925.206 2.713.457 1.75.252-.963.252-2.537 0-3.5-.251-.963-.457-.175-.457 1.75m44.963.5c.02 1.65.244 2.204.498 1.231s.237-2.323-.037-3-.481.119-.461 1.769m-46 7c.02 1.65.244 2.204.498 1.231s.237-2.323-.037-3-.481.119-.461 1.769m47 0c.02 1.65.244 2.204.498 1.231s.237-2.323-.037-3-.481.119-.461 1.769m-48 7c.02 1.65.244 2.204.498 1.231s.237-2.323-.037-3-.481.119-.461 1.769m-1 7c.02 1.65.244 2.204.498 1.231s.237-2.323-.037-3-.481.119-.461 1.769m-1 7c.02 1.65.244 2.204.498 1.231s.237-2.323-.037-3-.481.119-.461 1.769"/></svg>