<svg xmlns="http://www.w3.org/2000/svg" width="250" height="250" version="1.1" fill="#000000"><path fill-opacity=".388" d="M 0 125.004 L 0 250.008 125.250 249.754 L 250.500 249.500 250.754 124.750 L 251.008 0 125.504 0 L 0 0 0 125.004 M 0.485 125.500 C 0.485 194.250, 0.604 222.228, 0.750 187.672 C 0.896 153.117, 0.896 96.867, 0.750 62.672 C 0.604 28.478, 0.485 56.750, 0.485 125.500 M 153.455 51.455 C 148.753 56.156, 150.502 67.380, 157.799 79.344 C 159.089 81.459, 159.974 83.360, 159.765 83.568 C 159.557 83.776, 157.818 82.882, 155.902 81.579 C 141.373 71.707, 117.990 63.989, 98 62.470 C 83.285 61.351, 61.652 65.621, 56.639 70.634 C 52.704 74.569, 52.947 80.213, 57.223 84.208 L 60.446 87.219 68.473 86.360 C 72.888 85.887, 83.025 85.534, 91 85.576 C 113.498 85.695, 127.879 90.314, 144.560 102.780 C 157.938 112.778, 165.139 120.710, 175.867 137.262 C 179.787 143.308, 180.570 144, 183.495 144 C 190.381 144, 190.571 138.833, 184.163 125.846 C 181.325 120.093, 180.685 118.055, 181.865 118.522 C 184.871 119.714, 189.867 120.250, 192.289 119.642 C 199.266 117.891, 202.911 108.273, 199.253 101.269 C 195.940 94.927, 168.016 54.678, 164.898 51.750 C 161.147 48.228, 156.793 48.116, 153.455 51.455 M 62.655 105.829 C 60.129 108.619, 60.632 111.845, 65 120.877 C 69.576 130.340, 69.829 131.514, 66.964 129.981 C 63.681 128.224, 57.539 128.417, 54.557 130.371 C 51.002 132.700, 48.642 138.404, 49.372 142.903 C 49.896 146.132, 53.647 152.018, 78.025 187.859 C 85.776 199.255, 89.002 201.351, 94.157 198.340 C 95.989 197.270, 97.918 195.175, 98.442 193.685 C 99.828 189.744, 97.517 179.778, 93.420 172.033 C 91.539 168.476, 90 165.227, 90 164.813 C 90 164.399, 91.688 165.215, 93.750 166.626 C 104.388 173.906, 124.101 181.776, 138.684 184.567 C 157.581 188.182, 186.443 184.629, 193.722 177.792 C 196.674 175.018, 196.784 169.267, 193.955 165.669 C 190.838 161.707, 186.909 161.095, 174.984 162.712 C 148.199 166.344, 121.675 159.500, 102.642 144.045 C 90.216 133.956, 85.329 128.562, 76.780 115.500 C 68.933 103.511, 66.352 101.744, 62.655 105.829" stroke="none" fill="#000000" fill-rule="evenodd"/><path fill-opacity=".122" d="M 0 125.004 L 0 250.008 125.250 249.754 L 250.500 249.500 250.508 124.500 C 250.512 55.616, 250.397 38.757, 250.252 86.944 C 249.975 178.956, 250.132 175.948, 245.623 175.985 C 243.970 175.998, 243.803 175.399, 244.229 170.966 C 244.673 166.350, 244.483 165.768, 241.952 163.966 C 240.434 162.885, 237.573 162, 235.596 162 C 233.618 162, 232 161.550, 232 161 C 232 160.450, 233.125 160, 234.500 160 C 237.694 160, 237.694 158.501, 234.500 156.408 C 231.741 154.600, 231.151 152, 233.500 152 C 235.255 152, 235.493 150.423, 233.888 149.431 C 233.277 149.053, 232.464 149.250, 232.081 149.869 C 231.634 150.593, 230.179 149.748, 227.997 147.497 C 226.133 145.574, 224.021 144, 223.304 144 C 222.587 144, 222 143.550, 222 143 C 222 142.450, 222.450 142, 223 142 C 223.550 142, 224 140.650, 224 139 C 224 137.350, 223.570 136, 223.045 136 C 222.520 136, 220.833 134.762, 219.295 133.250 L 216.500 130.500 216.163 132.887 C 215.977 134.200, 216.414 135.638, 217.134 136.083 C 217.853 136.527, 218.139 137.194, 217.769 137.565 C 216.424 138.910, 214 135.055, 214 131.571 C 214 129.607, 213.550 128, 213 128 C 212.450 128, 212 126.200, 212 124 C 212 120.222, 211.833 120, 209 120 C 207.350 120, 206 119.550, 206 119 C 206 118.450, 206.450 118, 207 118 C 207.550 118, 208 117.255, 208 116.345 C 208 114.857, 207.799 114.872, 206 116.500 C 204.059 118.257, 204 118.247, 204 116.155 C 204 113.196, 200.975 113.411, 198.703 116.531 C 197.715 117.889, 197.378 119, 197.953 119 C 198.529 119, 199 118.550, 199 118 C 199 117.450, 199.775 117, 200.723 117 C 202.209 117, 202.167 117.195, 200.416 118.421 C 199.300 119.203, 197.737 119.785, 196.944 119.715 C 196.150 119.645, 193.801 119.958, 191.724 120.410 C 188.661 121.077, 188.165 121.494, 189.096 122.616 C 189.728 123.377, 189.848 124, 189.363 124 C 188.878 124, 187.957 123.162, 187.317 122.137 C 186.677 121.112, 185.213 120.028, 184.064 119.727 L 181.973 119.180 183.886 122.840 C 187.183 129.148, 190 136.770, 190 139.379 C 190 142.371, 186.664 145, 182.867 145 C 180.592 145, 179.222 143.579, 173.954 135.750 C 166.167 124.178, 158.135 114.798, 156.748 115.656 C 156.138 116.033, 155.985 115.833, 156.387 115.184 C 156.772 114.560, 155.870 113.043, 154.362 111.779 C 152.866 110.526, 150.035 108.087, 148.071 106.360 C 141.581 100.655, 128.336 93.365, 118.344 89.999 C 109.441 87.001, 107.105 86.639, 93.908 86.222 C 85.882 85.969, 75.616 86.259, 71.095 86.868 C 61.334 88.181, 57.063 86.957, 54.566 82.128 C 48.431 70.264, 60.696 63.326, 89.670 62.270 C 107.959 61.603, 122.253 64.214, 137.262 70.963 C 139.880 72.140, 142.537 72.786, 143.166 72.397 C 143.803 72.004, 144.038 72.130, 143.697 72.682 C 143.360 73.227, 145.765 74.954, 149.042 76.520 C 152.319 78.086, 155 79.687, 155 80.077 C 155 80.467, 155.680 81.047, 156.512 81.366 C 157.824 81.870, 157.810 81.534, 156.411 78.828 C 155.140 76.369, 154.594 76.004, 153.834 77.104 C 153.140 78.108, 153.047 77.868, 153.502 76.250 C 153.988 74.523, 153.712 73.982, 152.317 73.921 C 151.267 73.875, 151.028 73.629, 151.750 73.338 C 152.438 73.060, 153 72.394, 153 71.858 C 153 71.321, 152.480 71.203, 151.845 71.595 C 151.104 72.054, 150.964 71.868, 151.453 71.076 C 152.414 69.522, 150.059 60.846, 148.875 61.577 C 148.394 61.875, 148 61.668, 148 61.118 C 148 60.568, 148.450 59.840, 149 59.500 C 149.550 59.160, 150 57.928, 150 56.762 C 150 52.394, 152.341 48.261, 156.149 45.908 C 159.979 43.541, 161.257 41, 158.617 41 C 157.856 41, 157.010 40.145, 156.736 39.099 C 156.463 38.054, 155.285 36.688, 154.120 36.064 C 152.219 35.047, 152 35.192, 152 37.465 C 152 38.859, 151.550 40, 151 40 C 150.450 40, 150 38.200, 150 36 C 150 33.550, 150.466 32, 151.203 32 C 151.865 32, 150.698 30.251, 148.611 28.114 C 145.995 25.435, 145.233 24.076, 146.158 23.739 C 147.256 23.339, 147.265 23.001, 146.208 21.883 C 145.193 20.810, 144.752 20.783, 144.148 21.761 C 143.593 22.658, 142.570 22.160, 140.479 19.978 C 138.140 17.537, 137.633 16.205, 137.857 13.095 C 138.107 9.635, 137.640 8.766, 133.318 4.642 L 128.500 0.046 64.250 0.023 L 0 0 0 125.004 M 0.485 125.500 C 0.485 194.250, 0.604 222.228, 0.750 187.672 C 0.896 153.117, 0.896 96.867, 0.750 62.672 C 0.604 28.478, 0.485 56.750, 0.485 125.500 M 134 12 C 134 14.200, 134.450 16, 135 16 C 135.550 16, 136 14.200, 136 12 C 136 9.800, 135.550 8, 135 8 C 134.450 8, 134 9.800, 134 12 M 141 24.378 C 141 24.585, 141.675 25.315, 142.500 26 C 143.729 27.020, 144 26.951, 144 25.622 C 144 24.730, 143.325 24, 142.500 24 C 141.675 24, 141 24.170, 141 24.378 M 152 42.441 C 152 43.298, 152.450 44, 153 44 C 153.550 44, 154 43.577, 154 43.059 C 154 42.541, 153.550 41.840, 153 41.500 C 152.450 41.160, 152 41.584, 152 42.441 M 157.569 46.888 C 157.267 47.376, 158.319 47.967, 159.907 48.200 C 161.993 48.506, 162.653 48.260, 162.289 47.312 C 161.721 45.830, 158.407 45.533, 157.569 46.888 M 166.658 49.551 C 166.964 50.348, 167.616 51, 168.107 51 C 169.545 51, 169.133 49.265, 167.551 48.658 C 166.582 48.286, 166.286 48.582, 166.658 49.551 M 171.020 51.524 C 171.716 52.362, 172.491 52.842, 172.743 52.591 C 173.436 51.897, 172.027 50, 170.819 50 C 170.155 50, 170.231 50.574, 171.020 51.524 M 146.079 54.583 C 146.127 55.748, 146.364 55.985, 146.683 55.188 C 146.972 54.466, 146.936 53.603, 146.604 53.271 C 146.272 52.939, 146.036 53.529, 146.079 54.583 M 168.750 53.662 C 169.438 53.940, 170 54.804, 170 55.583 C 170 56.362, 170.466 57, 171.035 57 C 171.737 57, 171.726 56.356, 171 55 C 170.411 53.900, 169.383 53.036, 168.715 53.079 C 167.799 53.138, 167.808 53.282, 168.750 53.662 M 172 58.845 C 172 59.310, 172.970 60.547, 174.155 61.595 L 176.310 63.500 174.540 60.750 C 172.715 57.914, 172 57.378, 172 58.845 M 176.022 64.559 C 176.034 65.076, 176.974 66.625, 178.109 68 C 179.245 69.375, 179.852 69.887, 179.459 69.138 C 179.065 68.389, 179.273 67.449, 179.919 67.050 C 180.776 66.521, 180.668 65.970, 179.524 65.020 C 178.176 63.901, 178.040 63.985, 178.559 65.609 C 179.137 67.418, 179.095 67.416, 177.582 65.559 C 176.712 64.491, 176.010 64.041, 176.022 64.559 M 182.028 66.426 C 180.687 69.953, 180.700 70.014, 182.750 69.921 C 183.782 69.874, 183.990 69.636, 183.258 69.340 C 182.334 68.967, 182.290 68.326, 183.089 66.834 C 183.679 65.731, 183.913 64.580, 183.609 64.276 C 183.305 63.971, 182.593 64.939, 182.028 66.426 M 182.386 73.270 C 181.997 73.947, 182.048 74.166, 182.498 73.759 C 182.948 73.351, 183.931 73.528, 184.682 74.151 C 185.434 74.775, 186.242 75.091, 186.479 74.855 C 186.715 74.618, 186.050 73.888, 185.001 73.233 C 183.515 72.305, 182.936 72.313, 182.386 73.270 M 190.710 76 C 190.998 77.100, 191.406 78, 191.617 78 C 191.827 78, 192 77.100, 192 76 C 192 74.900, 191.592 74, 191.094 74 C 190.595 74, 190.423 74.900, 190.710 76 M 188 76.310 C 188 77.387, 190.822 84, 191.282 84 C 191.493 84, 191.606 83.192, 191.534 82.206 C 191.406 80.469, 188 74.787, 188 76.310 M 185.564 78.293 C 185.940 79.279, 186.499 79.834, 186.807 79.526 C 187.115 79.219, 186.808 78.412, 186.124 77.733 C 185.136 76.753, 185.022 76.868, 185.564 78.293 M 198.211 89.399 C 198.920 90.169, 199.658 90.649, 199.850 90.466 C 200.443 89.902, 198.940 88, 197.902 88 C 197.362 88, 197.501 88.630, 198.211 89.399 M 196.667 91.667 C 196.300 92.033, 196 92.798, 196 93.367 C 196 93.993, 196.466 93.934, 197.183 93.217 C 197.834 92.566, 198.134 91.801, 197.850 91.517 C 197.566 91.233, 197.033 91.300, 196.667 91.667 M 197.564 96.293 C 197.940 97.279, 198.499 97.834, 198.807 97.526 C 199.115 97.219, 198.808 96.412, 198.124 95.733 C 197.136 94.753, 197.022 94.868, 197.564 96.293 M 202 98.328 C 202.825 99.023, 204.063 100.223, 204.750 100.996 C 205.515 101.856, 206 101.963, 206 101.271 C 206 99.774, 203.164 96.992, 201.679 97.032 C 200.934 97.052, 201.052 97.529, 202 98.328 M 207.079 99.583 C 207.127 100.748, 207.364 100.985, 207.683 100.188 C 207.972 99.466, 207.936 98.603, 207.604 98.271 C 207.272 97.939, 207.036 98.529, 207.079 99.583 M 201.564 102.293 C 201.940 103.279, 202.499 103.834, 202.807 103.526 C 203.115 103.219, 202.808 102.412, 202.124 101.733 C 201.136 100.753, 201.022 100.868, 201.564 102.293 M 61.413 106.493 C 59.447 109.494, 59.903 111.756, 64.464 121.629 L 67.773 128.790 62.105 128.276 C 57.055 127.818, 56.099 128.046, 53.340 130.367 C 49.675 133.451, 47.605 140.137, 48.909 144.682 C 49.381 146.329, 52.809 152.137, 56.527 157.588 C 75.699 185.702, 85.143 198.841, 86.575 199.391 C 91.412 201.247, 96.209 199.431, 98.579 194.846 C 99.954 192.189, 100.011 190.860, 98.988 185.438 C 98.333 181.965, 96.297 176.143, 94.464 172.499 L 91.130 165.874 95.315 168.488 C 106.473 175.459, 122.113 181.676, 136.047 184.679 C 154.549 188.665, 185.351 185.783, 192.997 179.349 C 198.312 174.877, 197.925 166.147, 192.248 162.427 C 190.172 161.067, 188.287 160.877, 182.099 161.404 C 153.723 163.823, 142.435 162.890, 126.692 156.824 C 106.483 149.037, 91.858 136.563, 76.484 114 C 73.299 109.325, 70.199 105.169, 69.596 104.765 C 67.168 103.138, 63.040 104.009, 61.413 106.493 M 204.900 107.550 C 204.802 110.466, 204.791 110.471, 204 108 L 203.199 105.500 203.100 108.168 C 202.954 112.056, 203.957 114, 206.107 114 C 207.427 114, 207.976 113.319, 207.921 111.750 C 207.878 110.513, 207.615 110.063, 207.338 110.750 C 206.317 113.280, 205.083 111.913, 206.062 109.337 C 206.752 107.521, 206.744 106.344, 206.037 105.637 C 205.321 104.921, 204.969 105.513, 204.900 107.550 M 188.505 127.992 C 188.168 128.538, 188.324 129.757, 188.853 130.702 C 189.642 132.112, 189.786 131.934, 189.657 129.711 C 189.483 126.703, 189.388 126.562, 188.505 127.992" stroke="none" fill="#000000" fill-rule="evenodd"/><path fill-opacity=".08" d="M 0 125 L 0 250 108 250 L 216 250 216 247 C 216 243.515, 212.937 240, 209.899 240 C 208.034 240, 207.838 239.514, 208.149 235.659 C 208.444 232.016, 208.234 231.387, 206.846 231.750 C 205.812 232.021, 204.944 231.400, 204.529 230.091 C 204.164 228.941, 203.446 228, 202.933 228 C 202.420 228, 202 227.100, 202 226 C 202 224.900, 201.550 224, 201 224 C 200.450 224, 200 223.100, 200 222 C 200 220.900, 199.212 219.115, 198.250 218.034 C 197.287 216.952, 195.488 214.944, 194.250 213.570 C 191.145 210.122, 191.334 208, 194.745 208 L 197.490 208 193.495 204.167 C 189.845 200.665, 189.362 200.471, 187.896 201.917 C 186.787 203.012, 186.633 203.727, 187.396 204.235 C 188.120 204.716, 187.994 204.975, 187.032 204.985 C 184.163 205.015, 180.991 199.962, 181.136 195.594 C 181.212 193.302, 181.463 192.490, 181.706 193.750 C 182.383 197.268, 184 196.387, 184 192.500 C 184 190.056, 183.548 189, 182.500 189 C 180.384 189, 180.622 187.017, 182.750 186.921 C 183.713 186.878, 184.006 186.638, 183.401 186.388 C 182.797 186.139, 180.997 186.451, 179.401 187.083 L 176.500 188.232 180 189.626 L 183.500 191.020 179.038 190.464 C 173.656 189.794, 173.108 189.372, 175.421 187.681 C 176.898 186.602, 174.758 186.450, 162.689 186.777 C 140.005 187.392, 124.143 183.743, 103.344 173.125 L 92.188 167.430 95.018 173.035 C 98.341 179.619, 100.598 189.483, 99.647 193.272 C 98.581 197.517, 95.200 200, 90.486 200 C 85.412 200, 85.118 199.698, 72.957 182 C 46.911 144.096, 46.654 143.609, 48.968 136.598 C 49.609 134.655, 51.552 131.872, 53.285 130.414 C 56.114 128.033, 57.024 127.815, 62.180 128.283 L 67.923 128.803 63.925 120.851 C 60.802 114.640, 59.989 111.971, 60.211 108.664 C 60.507 104.256, 60.856 103.994, 66.500 103.940 C 70.494 103.902, 71.667 104.255, 71.667 105.494 C 71.667 106.133, 73.164 108.870, 74.995 111.578 C 86.745 128.956, 98.344 141.482, 101.684 140.400 C 103.109 139.938, 103.195 140.028, 102.084 140.817 C 100.978 141.603, 102.404 142.962, 108.584 147.015 C 115 151.223, 125.999 157, 127.593 157 C 127.782 157, 127.712 156.213, 127.438 155.250 C 127.157 154.266, 127.441 154.450, 128.087 155.671 C 129.307 157.979, 133.354 159.517, 135.200 158.376 C 135.838 157.982, 136.029 158.144, 135.650 158.757 C 134.918 159.942, 142.287 161.559, 143.894 160.565 C 144.426 160.236, 145.144 160.425, 145.490 160.984 C 146.219 162.164, 158.548 162.233, 161.500 161.074 C 162.660 160.619, 160.560 160.431, 156.500 160.627 L 149.500 160.966 149.294 153.455 C 149.113 146.879, 149.269 146.126, 150.544 147.401 C 151.345 148.202, 152 149.564, 152 150.429 C 152 151.293, 152.801 152, 153.779 152 C 154.758 152, 156.207 152.900, 157 154 C 158.955 156.713, 160 156.514, 160 153.429 C 160 150.148, 157.852 148, 154.571 148 C 152.667 148, 152 147.481, 152 146 C 152 144.667, 151.333 144, 150 144 C 148.435 144, 148 143.333, 148 140.936 C 148 138.096, 147.769 137.895, 144.829 138.186 C 141.994 138.467, 141.568 138.156, 140.801 135.250 C 140.329 133.462, 139.506 132, 138.971 132 C 138.437 132, 138 129.702, 138 126.893 C 138 122.647, 137.733 121.888, 136.418 122.393 C 135.548 122.727, 134.536 123.007, 134.168 123.015 C 133.801 123.024, 134.162 123.449, 134.971 123.961 C 135.780 124.473, 136.094 125.240, 135.668 125.666 C 134.558 126.776, 128 119.513, 128 117.174 C 128 116.096, 127.325 114.955, 126.500 114.638 C 124.798 113.985, 124.456 112, 126.045 112 C 127.651 112, 132 116.715, 132 118.455 C 132 119.333, 132.863 120, 134 120 C 135.100 120, 136 119.550, 136 119 C 136 118.450, 135.550 118, 135 118 C 134.450 118, 134 116.680, 134 115.066 C 134 112.610, 133.553 112.081, 131.250 111.816 C 129.210 111.582, 128.411 110.871, 128.156 109.063 C 127.967 107.723, 126.504 105.405, 124.906 103.912 C 123.308 102.419, 122 100.505, 122 99.658 C 122 98.811, 121.550 97.840, 121 97.500 C 120.450 97.160, 120 97.584, 120 98.441 C 120 99.298, 119.550 100, 119 100 C 118.450 100, 118 99.100, 118 98 C 118 96.444, 117.333 96, 115 96 C 113.350 96, 112 95.550, 112 95 C 112 94.450, 111.325 94, 110.500 94 C 109.675 94, 109 93.273, 109 92.383 C 109 91.167, 109.557 90.939, 111.250 91.464 C 112.487 91.848, 114.400 92.288, 115.500 92.443 C 116.728 92.616, 116.824 92.558, 115.750 92.293 C 113.710 91.789, 113.456 90.417, 115.250 89.593 C 115.938 89.277, 115.431 89.288, 114.125 89.616 C 112.527 90.019, 111.973 89.852, 112.434 89.107 C 112.846 88.440, 112.332 88, 111.141 88 C 110.053 88, 108.378 87.699, 107.418 87.330 C 106.138 86.839, 105.889 87.012, 106.485 87.976 C 107.119 89.002, 106.662 89.132, 104.409 88.567 C 102.820 88.168, 101.220 87.356, 100.853 86.763 C 100.387 86.009, 95.269 85.927, 83.843 86.492 C 59.014 87.720, 59.415 87.738, 56.730 85.216 C 55.422 83.987, 54.144 83.189, 53.890 83.443 C 53.636 83.697, 53.348 82.914, 53.249 81.702 C 52.523 72.797, 53.923 69.832, 60.176 67.032 C 62.388 66.042, 63.626 65.042, 62.929 64.810 C 62.232 64.577, 63.991 64.352, 66.839 64.309 C 69.687 64.266, 72.668 63.690, 73.465 63.029 C 74.261 62.369, 75.382 62.118, 75.956 62.473 C 76.530 62.828, 77.533 62.789, 78.184 62.387 C 78.997 61.884, 78.763 61.418, 77.434 60.898 C 76.162 60.400, 77.328 60.117, 80.844 60.070 C 85.303 60.012, 86.273 59.671, 86.707 58.011 C 86.993 56.917, 87.619 56.264, 88.097 56.560 C 89.360 57.341, 96 55.937, 96 54.889 C 96 53.526, 92.244 53.833, 91.583 55.250 C 91.117 56.250, 90.883 56.250, 90.417 55.250 C 90.096 54.562, 88.740 54, 87.403 54 C 83.483 54, 76.147 49.118, 78.759 48.247 C 80.508 47.664, 80.308 43.332, 78.500 42.638 C 77.675 42.322, 77 41.181, 77 40.103 C 77 39.025, 76.325 37.468, 75.500 36.643 C 73.476 34.619, 73.601 32, 75.722 32 C 77.169 32, 77.070 31.640, 75.105 29.750 C 73.480 28.187, 72.624 27.882, 72.300 28.750 C 71.636 30.528, 70 30.300, 70 28.429 C 70 26.610, 67.658 24, 66.026 24 C 64.365 24, 60 19.325, 60 17.545 C 60 16.667, 60.863 16, 62 16 C 63.481 16, 64 15.333, 64 13.429 C 64 10.535, 61.932 8, 59.571 8 C 58.405 8, 58 6.970, 58 4 C 58 1.800, 57.550 0, 57 0 C 56.450 0, 56 1.800, 56 4 C 56 6.200, 56.450 8, 57 8 C 57.550 8, 58 8.900, 58 10 C 58 11.100, 58.450 12, 59 12 C 59.550 12, 60 12.900, 60 14 C 60 15.333, 59.333 16, 58 16 C 56.758 16, 56 15.333, 56 14.241 C 56 13.273, 55.076 11.904, 53.946 11.198 C 52.587 10.349, 52.091 9.287, 52.481 8.058 C 52.880 6.802, 52.251 5.556, 50.535 4.207 C 49.141 3.110, 48 1.714, 48 1.106 C 48 0.329, 40.868 0, 24 0 L 0 0 0 125 M 80 40.779 C 80 41.208, 80.900 42.207, 82 43 C 83.100 43.793, 84 45.242, 84 46.221 C 84 47.333, 84.749 48, 86 48 C 87.100 48, 88 47.550, 88 47 C 88 46.450, 87.550 46, 87 46 C 86.450 46, 86 45.293, 86 44.429 C 86 43.564, 85.357 42.214, 84.571 41.429 C 83.052 39.909, 80 39.476, 80 40.779 M 81 58 C 81 58.550, 81.675 59, 82.500 59 C 83.325 59, 84 58.550, 84 58 C 84 57.450, 83.325 57, 82.500 57 C 81.675 57, 81 57.450, 81 58 M 92 58 L 87.500 58.700 91.500 58.780 C 93.700 58.823, 96.400 58.473, 97.500 58 C 99.817 57.004, 98.404 57.004, 92 58 M 76.750 58.662 C 77.438 58.940, 78.563 58.940, 79.250 58.662 C 79.938 58.385, 79.375 58.158, 78 58.158 C 76.625 58.158, 76.063 58.385, 76.750 58.662 M 100.750 59.662 C 101.438 59.940, 102.563 59.940, 103.250 59.662 C 103.938 59.385, 103.375 59.158, 102 59.158 C 100.625 59.158, 100.063 59.385, 100.750 59.662 M 106.762 59.707 C 108.006 59.946, 109.806 59.937, 110.762 59.687 C 111.718 59.437, 110.700 59.241, 108.500 59.252 C 106.300 59.263, 105.518 59.468, 106.762 59.707 M 84 61 C 79.936 61.632, 79.839 61.706, 83 61.762 C 84.925 61.797, 88.750 61.474, 91.500 61.046 C 96.229 60.309, 96.284 60.268, 92.500 60.284 C 90.300 60.293, 86.475 60.615, 84 61 M 101.813 61.683 C 102.534 61.972, 103.397 61.936, 103.729 61.604 C 104.061 61.272, 103.471 61.036, 102.417 61.079 C 101.252 61.127, 101.015 61.364, 101.813 61.683 M 92.750 87.706 C 93.987 87.944, 96.013 87.944, 97.250 87.706 C 98.487 87.467, 97.475 87.272, 95 87.272 C 92.525 87.272, 91.513 87.467, 92.750 87.706 M 114.750 94.662 C 115.438 94.940, 116.563 94.940, 117.250 94.662 C 117.938 94.385, 117.375 94.158, 116 94.158 C 114.625 94.158, 114.063 94.385, 114.750 94.662 M 121 95 C 121.825 95.533, 122.950 95.969, 123.500 95.969 C 124.050 95.969, 123.825 95.533, 123 95 C 122.175 94.467, 121.050 94.031, 120.500 94.031 C 119.950 94.031, 120.175 94.467, 121 95 M 131 98.759 C 131 99.177, 132.012 100.141, 133.250 100.901 C 135.492 102.278, 135.493 102.276, 133.595 100.142 C 131.557 97.850, 131 97.554, 131 98.759 M 128 100.409 C 128 100.599, 128.675 101.315, 129.500 102 C 130.365 102.718, 131 102.815, 131 102.229 C 131 101.671, 130.325 100.955, 129.500 100.638 C 128.675 100.322, 128 100.219, 128 100.409 M 132.813 103.683 C 133.534 103.972, 134.397 103.936, 134.729 103.604 C 135.061 103.272, 134.471 103.036, 133.417 103.079 C 132.252 103.127, 132.015 103.364, 132.813 103.683 M 120 108 C 120 111.333, 120.333 112, 122 112 C 123.333 112, 124 111.333, 124 110 C 124 108.900, 123.550 108, 123 108 C 122.450 108, 122 107.100, 122 106 C 122 104.900, 121.550 104, 121 104 C 120.450 104, 120 105.800, 120 108 M 144.272 132 C 144.272 134.475, 144.467 135.488, 144.706 134.250 C 144.944 133.012, 144.944 130.988, 144.706 129.750 C 144.467 128.512, 144.272 129.525, 144.272 132 M 134 137 C 134 137.550, 134.450 138, 135 138 C 135.550 138, 136 137.550, 136 137 C 136 136.450, 135.550 136, 135 136 C 134.450 136, 134 136.450, 134 137 M 117.813 150.683 C 118.534 150.972, 119.397 150.936, 119.729 150.604 C 120.061 150.272, 119.471 150.036, 118.417 150.079 C 117.252 150.127, 117.015 150.364, 117.813 150.683 M 169.250 161.689 C 170.213 161.941, 171.787 161.941, 172.750 161.689 C 173.713 161.438, 172.925 161.232, 171 161.232 C 169.075 161.232, 168.287 161.438, 169.250 161.689 M 188 182.393 C 188 182.609, 188.698 183.054, 189.552 183.382 C 190.442 183.723, 190.843 183.555, 190.493 182.989 C 189.906 182.038, 188 181.583, 188 182.393 M 170.813 187.683 C 171.534 187.972, 172.397 187.936, 172.729 187.604 C 173.061 187.272, 172.471 187.036, 171.417 187.079 C 170.252 187.127, 170.015 187.364, 170.813 187.683 M 144.813 188.683 C 145.534 188.972, 146.397 188.936, 146.729 188.604 C 147.061 188.272, 146.471 188.036, 145.417 188.079 C 144.252 188.127, 144.015 188.364, 144.813 188.683 M 164.269 188.693 C 165.242 188.947, 166.592 188.930, 167.269 188.656 C 167.946 188.382, 167.150 188.175, 165.500 188.195 C 163.850 188.215, 163.296 188.439, 164.269 188.693 M 174.813 191.683 C 175.534 191.972, 176.397 191.936, 176.729 191.604 C 177.061 191.272, 176.471 191.036, 175.417 191.079 C 174.252 191.127, 174.015 191.364, 174.813 191.683 M 200 215 C 200 215.550, 200.450 216, 201 216 C 201.550 216, 202 215.550, 202 215 C 202 214.450, 201.550 214, 201 214 C 200.450 214, 200 214.450, 200 215 M 202 220.571 C 202 220.886, 202.643 221.786, 203.429 222.571 C 205.510 224.653, 208 224.341, 208 222 C 208 220.444, 207.333 220, 205 220 C 203.350 220, 202 220.257, 202 220.571 M 208 228.779 C 208 229.208, 208.900 230.207, 210 231 C 211.100 231.793, 212 233.242, 212 234.221 C 212 235.199, 212.450 236, 213 236 C 213.550 236, 214 236.900, 214 238 C 214 239.100, 214.450 240, 215 240 C 217.176 240, 215.855 234.787, 212.839 231.473 C 209.802 228.135, 208 227.132, 208 228.779" stroke="none" fill="#000000" fill-rule="evenodd"/><path fill-opacity=".127" d="M 0 150 L 0 250 68 250 L 136 250 136 245 L 136 240 132 240 L 128 240 128 235 C 128 231.121, 127.648 230, 126.429 230 C 123.990 230, 121.723 227.167, 122.324 224.871 C 123.051 222.090, 119.931 216.055, 117.750 216.025 C 115.375 215.991, 112 212.455, 112 210 C 112 208.667, 111.333 208, 110 208 C 107.450 208, 107.450 206.838, 110 205 C 112.629 203.105, 112.629 200, 110 200 C 108.667 200, 108 200.667, 108 202 C 108 204.566, 107.191 204.527, 104.867 201.847 C 102.610 199.244, 102.491 198, 104.500 198 C 106.367 198, 106.401 197.259, 104.616 195.473 C 103.437 194.295, 103.144 194.528, 102.641 197.045 C 102.274 198.878, 101.427 200, 100.408 200 C 99.160 200, 98.892 199.347, 99.289 197.269 C 99.777 194.715, 99.720 194.662, 98.405 196.460 C 97.632 197.517, 97 198.773, 97 199.250 C 97 199.727, 96.592 199.866, 96.093 199.558 C 95.595 199.249, 95.399 199.811, 95.659 200.806 C 96.067 202.366, 95.615 202.553, 92.361 202.174 C 90.287 201.931, 87.987 201.130, 87.249 200.392 C 86.511 199.654, 84.690 199.191, 83.204 199.365 C 80.968 199.625, 80.475 199.269, 80.354 197.306 L 80.207 194.933 82.104 197.120 C 83.147 198.322, 84 198.935, 84 198.482 C 84 198.028, 83.252 196.831, 82.339 195.822 C 81.425 194.812, 80.188 193.172, 79.589 192.177 C 74.730 184.102, 70.322 178.143, 69.428 178.442 C 68.839 178.639, 67.754 177.833, 67.018 176.650 C 65.755 174.623, 65.786 174.586, 67.558 176 C 69.330 177.414, 69.325 177.319, 67.469 174.359 C 65.026 170.463, 61.212 165.422, 58.250 162.175 C 57.012 160.818, 55.986 159.211, 55.968 158.604 C 55.951 157.997, 55.215 156.600, 54.334 155.500 C 52.853 153.652, 52.781 153.644, 53.388 155.391 C 53.946 156.995, 53.814 157.090, 52.523 156.019 C 51.293 154.998, 51 155.003, 51 156.044 C 51 156.753, 50.711 157.044, 50.357 156.691 C 50.004 156.337, 50.297 155.347, 51.008 154.490 C 52.067 153.214, 52.060 152.481, 50.972 150.447 C 50.240 149.080, 49.360 148.417, 49.017 148.973 C 48.673 149.529, 48.364 145.825, 48.330 140.742 C 48.297 135.659, 48.466 132.049, 48.708 132.720 C 48.985 133.491, 49.995 132.955, 51.446 131.268 C 53.319 129.090, 53.587 128.045, 52.890 125.618 C 52.421 123.981, 51.658 122.384, 51.196 122.070 C 50.733 121.757, 50.397 120.150, 50.448 118.500 C 50.526 115.991, 49.025 113.996, 41.271 106.306 C 36.172 101.250, 32 96.862, 32 96.556 C 32 96.250, 32.675 96, 33.500 96 C 34.325 96, 35 95.536, 35 94.969 C 35 94.401, 34.325 93.678, 33.500 93.362 C 32.675 93.045, 32 92.365, 32 91.851 C 32 90.726, 30.470 88.734, 26.643 84.877 C 24.887 83.107, 24.019 81.394, 24.389 80.428 C 24.767 79.444, 23.780 77.630, 21.746 75.568 C 16.941 70.699, 16 69.300, 16 67.026 C 16 65.263, 2.119 50, 0.516 50 C 0.232 50, 0 95, 0 150 M 48.603 79.833 C 48.320 80.292, 48.723 80.667, 49.500 80.667 C 50.277 80.667, 50.680 80.292, 50.397 79.833 C 50.114 79.375, 49.710 79, 49.500 79 C 49.290 79, 48.886 79.375, 48.603 79.833 M 51.079 83.583 C 51.127 84.748, 51.364 84.985, 51.683 84.188 C 51.972 83.466, 51.936 82.603, 51.604 82.271 C 51.272 81.939, 51.036 82.529, 51.079 83.583 M 56.387 110.191 C 56.318 113.809, 56.609 115.646, 57.121 114.838 C 58.163 113.194, 58.238 106.919, 57.235 105.353 C 56.831 104.723, 56.449 106.899, 56.387 110.191 M 58.986 109.232 C 59.313 112.129, 60.159 115.400, 60.866 116.500 L 62.151 118.500 61.366 116.500 C 60.934 115.400, 60.505 112.268, 60.411 109.540 C 60.318 106.812, 59.825 104.442, 59.316 104.272 C 58.778 104.093, 58.640 106.168, 58.986 109.232 M 57.616 117.559 C 57.251 118.509, 57.189 119.522, 57.476 119.810 C 57.764 120.098, 58.007 119.696, 58.015 118.917 C 58.028 117.750, 58.202 117.765, 59 119 C 59.533 119.825, 59.969 120.050, 59.969 119.500 C 59.969 118.950, 59.589 117.900, 59.124 117.166 C 58.454 116.109, 58.141 116.190, 57.616 117.559 M 62.352 119.760 C 62.715 120.348, 62.447 121.057, 61.756 121.336 C 60.998 121.641, 61.194 121.873, 62.250 121.921 C 64.229 122.010, 64.590 120.483, 62.845 119.405 C 62.163 118.983, 61.961 119.128, 62.352 119.760 M 65 125.927 C 65 126.436, 64.213 127.061, 63.250 127.315 C 62.288 127.569, 62.687 127.733, 64.138 127.680 C 65.858 127.616, 66.604 127.133, 66.281 126.291 C 65.705 124.789, 65 124.588, 65 125.927 M 55.589 127.856 C 55.298 128.326, 56.172 128.499, 57.530 128.239 C 58.889 127.979, 60 127.594, 60 127.383 C 60 126.610, 56.101 127.027, 55.589 127.856 M 48.638 129.500 C 48.955 130.325, 49.671 131, 50.229 131 C 50.815 131, 50.718 130.365, 50 129.500 C 49.315 128.675, 48.599 128, 48.409 128 C 48.219 128, 48.322 128.675, 48.638 129.500 M 48.500 159 C 48.840 159.550, 49.316 160, 49.559 160 C 49.802 160, 50 159.550, 50 159 C 50 158.450, 49.523 158, 48.941 158 C 48.359 158, 48.160 158.450, 48.500 159 M 64 171.941 C 64 172.459, 64.445 173.157, 64.989 173.493 C 65.555 173.843, 65.723 173.442, 65.382 172.552 C 64.717 170.820, 64 170.503, 64 171.941 M 100.662 173.561 C 101.060 174.598, 106.035 176.278, 106.721 175.607 C 106.843 175.488, 105.423 174.702, 103.566 173.860 C 101.163 172.771, 100.326 172.685, 100.662 173.561 M 100.622 179.877 C 100.961 182.367, 100.832 184.014, 100.321 183.699 C 99.813 183.384, 99.657 185.138, 99.962 187.742 C 100.538 192.664, 102.609 194.620, 103.209 190.808 C 103.409 189.538, 103.189 187.008, 102.721 185.185 C 102.253 183.361, 102.151 180.436, 102.496 178.685 C 102.914 176.558, 102.809 175.953, 102.182 176.863 C 101.388 178.014, 101.147 178.014, 100.634 176.863 C 100.299 176.113, 100.294 177.469, 100.622 179.877 M 105.226 178.579 C 106.176 179.570, 107.168 180.166, 107.431 179.903 C 107.694 179.640, 106.917 178.829, 105.705 178.100 C 103.598 176.835, 103.577 176.857, 105.226 178.579 M 70 180.714 C 70 181.356, 70.450 182.160, 71 182.500 C 71.550 182.840, 72 184.243, 72 185.618 C 72 187.191, 72.410 187.864, 73.107 187.434 C 73.860 186.968, 73.999 187.509, 73.542 189.125 C 73.013 190.990, 73.102 191.178, 73.953 190 C 74.902 188.687, 75.165 188.718, 76.068 190.250 C 76.635 191.213, 77.640 191.993, 78.300 191.985 C 79.185 191.973, 79.199 191.776, 78.354 191.235 C 77.723 190.831, 75.586 188.035, 73.604 185.023 C 71.622 182.010, 70 180.071, 70 180.714 M 103.500 181 C 103.840 181.550, 104.316 182, 104.559 182 C 104.802 182, 105 181.550, 105 181 C 105 180.450, 104.523 180, 103.941 180 C 103.359 180, 103.160 180.450, 103.500 181 M 117.768 181.168 C 118.350 181.750, 119.415 182.028, 120.137 181.788 C 120.886 181.538, 120.432 181.085, 119.080 180.731 C 117.417 180.296, 117.026 180.426, 117.768 181.168 M 67 181.893 C 67 182.384, 67.739 183.069, 68.641 183.416 C 70.014 183.943, 70.076 183.796, 69.019 182.523 C 67.579 180.788, 67 180.607, 67 181.893 M 107.667 181.667 C 106.711 182.622, 106.845 184, 107.893 184 C 108.384 184, 109.045 183.325, 109.362 182.500 C 109.947 180.976, 108.881 180.452, 107.667 181.667 M 101.272 188 C 101.272 190.475, 101.467 191.488, 101.706 190.250 C 101.944 189.012, 101.944 186.988, 101.706 185.750 C 101.467 184.512, 101.272 185.525, 101.272 188 M 100.624 196.539 C 99.659 199.053, 99.943 199.702, 101.122 197.675 C 101.706 196.671, 101.973 195.639, 101.715 195.382 C 101.458 195.124, 100.966 195.645, 100.624 196.539" stroke="none" fill="#000000" fill-rule="evenodd"/></svg>