<!-- Generated by IcoMoon.io -->
<svg version="1.1" xmlns="http://www.w3.org/2000/svg" width="32" height="32" viewBox="0 0 32 32" fill="#000000">
<title>hot</title>
<path d="M29.833 27.495c-0.99-0.18-2.070-0.36-2.97-0.81-2.88-1.35-4.41-3.87-5.31-6.75-0.18-0.45-0.36-1.17-0.36-1.62h2.43c0.18 0 0.36-0.090 0.36-0.27l0.99-3.78c0.090-0.27-0.090-0.45-0.36-0.45h-3.51v-0.18c0.18-0.54 0.45-1.8 0.72-2.34 1.53-3.78 3.96-6.48 8.37-6.93 0.27 0 0.54-0.36 0.63-0.54 0.36-0.9 0.63-1.89 0.99-2.79 0.27-0.63 0-0.72-0.54-0.81-2.43-0.27-4.5 0.18-6.3 1.35-3.78 2.25-5.94 5.58-6.93 9.72-0.18 0.9-0.45 1.89-0.63 2.25 0 0.090-0.090 0.090-0.090 0.18h-3.15c-0.18-0.9-0.45-2.52-0.72-3.33-1.53-4.95-4.32-8.64-9.54-10.080-0.99-0.27-2.16-0.18-3.24-0.27-0.36 0-0.72 0.090-0.54 0.63 0.27 0.99 0.63 1.89 0.9 2.88 0.18 0.45 0.45 0.63 0.9 0.72 0.9 0.18 1.89 0.36 2.79 0.81 2.79 1.35 4.32 3.78 5.13 6.75 0.090 0.18 0.36 1.35 0.54 1.98h-2.7c-0.18 0-0.36 0.090-0.36 0.27l-0.99 3.78v0.18c0.090 0.090 0.18 0.27 0.36 0.27h3.6c-0.18 0.72-0.54 2.16-0.72 2.61-1.44 3.51-3.6 6.030-7.56 6.48-0.18 0-0.54 0.18-0.63 0.45-0.45 1.17-0.81 2.43-1.17 3.69 2.61 0.36 4.86-0.18 7.020-1.53 3.6-2.25 5.58-5.58 6.57-9.63 0.36-1.35 0.27-1.89 0.63-2.070h3.24c0 0.27 0.090 0.72 0.090 0.81 0.18 0.99 0.36 1.89 0.63 2.79 1.080 3.33 2.97 6.12 5.94 8.1 1.35 0.9 2.79 1.44 4.41 1.71 0.99 0.18 1.89 0.54 2.88-0.18-0.36-1.080-0.72-2.16-0.99-3.15-0.090-0.63-0.36-0.81-0.81-0.9z"/>
</svg>
