<svg xmlns="http://www.w3.org/2000/svg" width="20" height="20" fill="#000000"><path fill="#000000" d="M20 10c0 5.523-4.477 10-10 10S0 15.523 0 10 4.477 0 10 0s10 4.477 10 10Z"/><path fill="#000000" d="m9.602 3.63-.927.63v4.673h2.1V5.958c0-1.645-.053-2.975-.123-2.958-.087 0-.56.28-1.05.63ZM5.928 7.305 5 7.935v2.415c0 1.348.053 2.433.122 2.433.053 0 .49-.245.963-.543l.84-.542v-2.52c0-1.383-.018-2.52-.035-2.503-.035 0-.472.28-.962.63ZM13.453 7.305l-.928.63v5.023l.963-.63.962-.648V9.178c0-1.383-.018-2.52-.035-2.503-.035 0-.472.28-.962.63ZM8.675 13.658c0 1.627.035 2.975.087 2.975.053 0 .525-.28 1.05-.63l.963-.648v-4.672h-2.1v2.975Z"/></svg>