<svg xmlns="http://www.w3.org/2000/svg" width="200" height="200" fill="#000000"><path fill-opacity=".322" fill-rule="evenodd" d="M81.5 1.475c-7.312 1.279-17.872 4.612-23 7.261-6.36 3.285-7.059 3.651-9 4.709C35.714 20.957 20.957 35.714 13.445 49.5c-1.058 1.941-1.424 2.64-4.709 9-11.411 22.091-11.411 60.909 0 83l2.584 5c3.861 7.464 7.736 13.292 11.539 17.356 1.728 1.845 3.141 3.568 3.141 3.827 0 .614 5.703 6.317 6.317 6.317.259 0 1.982 1.413 3.827 3.141 4.064 3.803 9.892 7.678 17.356 11.539l5 2.584c14.622 7.553 39.399 10.641 59 7.354 8.16-1.368 18.612-4.571 24-7.354l5-2.584c7.464-3.861 13.292-7.736 17.356-11.539 1.845-1.728 3.568-3.141 3.827-3.141.614 0 6.317-5.703 6.317-6.317 0-.259 1.413-1.982 3.141-3.827 1.727-1.846 4.303-5.156 5.724-7.356 3.123-4.836 3.74-5.939 8.388-15 2.765-5.391 6.599-17.876 7.297-23.763.376-3.17 1.081-6.009 1.567-6.309s.883-5.946.883-12.546c0-6.718-.39-11.759-.886-11.452-.488.301-1.192-2.035-1.567-5.191-.695-5.866-4.533-18.356-7.294-23.739-4.648-9.061-5.265-10.164-8.388-15-1.421-2.2-3.997-5.51-5.724-7.356-1.728-1.845-3.141-3.568-3.141-3.827 0-.614-5.703-6.317-6.317-6.317-.259 0-1.982-1.413-3.827-3.141-4.064-3.803-9.892-7.678-17.356-11.539l-5-2.584c-14.598-7.541-40.481-10.673-60-7.261m7 1.115c-1.1.261-5.375 1.174-9.5 2.029s-9.75 2.473-12.5 3.596c-6.491 2.65-15.726 7.015-17 8.036-.55.441-3.182 2.212-5.85 3.936-6.242 4.034-19.429 17.221-23.463 23.463-1.724 2.668-3.495 5.3-3.936 5.85-1.028 1.283-5.406 10.553-8.03 17C4.603 75.393 2.5 87.707 2.5 100s2.103 24.607 5.721 33.5c2.623 6.446 7.037 15.857 7.739 16.5.3.275 2.215 3.055 4.255 6.178 4.758 7.282 16.325 18.849 23.607 23.607 3.123 2.04 5.903 3.955 6.178 4.255.643.702 10.054 5.116 16.5 7.739 8.893 3.618 21.207 5.721 33.5 5.721s24.607-2.103 33.5-5.721c6.446-2.623 15.857-7.037 16.5-7.739.275-.3 3.055-2.215 6.178-4.255 7.282-4.758 18.849-16.325 23.607-23.607 2.04-3.123 3.955-5.903 4.255-6.178.702-.643 5.116-10.054 7.739-16.5 3.618-8.893 5.721-21.207 5.721-33.5s-2.103-24.607-5.721-33.5c-2.623-6.446-7.037-15.857-7.739-16.5-.3-.275-2.215-3.055-4.255-6.178-4.758-7.282-16.325-18.849-23.607-23.607-3.123-2.04-5.903-3.955-6.178-4.255-.655-.715-10.166-5.166-16.5-7.721-8.569-3.458-19.548-5.482-31.5-5.809-6.325-.173-12.4-.101-13.5.16M38 100.5V174h20v-21h83v21.07l10.25-.285 10.25-.285v-146l-10.216-.285-10.216-.284-.284 10.784L140.5 48.5h-82l-.284-10.75L57.932 27H38zM.385 100c0 6.875.16 9.688.355 6.25.196-3.437.196-9.062 0-12.5-.195-3.437-.355-.625-.355 6.25"/><path fill-opacity=".352" fill-rule="evenodd" d="M83.5 1.557C47.284 7.385 16.27 34.084 4.904 69.221 2.456 76.79 0 92.201 0 100s2.456 23.21 4.904 30.779c2.688 8.31 9.157 21.017 14.28 28.049 5.234 7.186 16.195 18.088 21.916 21.799 2.42 1.57 4.625 3.147 4.9 3.505 1.068 1.39 17.262 9.036 23.221 10.964C76.79 197.544 92.201 200 100 200c7.674 0 23.09-2.484 30.85-4.971 5.995-1.922 22.067-9.487 23.15-10.897.275-.358 2.525-1.963 5-3.567 5.791-3.752 17.813-15.774 21.565-21.565 1.604-2.475 3.209-4.725 3.567-5s2.484-4.139 4.724-8.587c4.915-9.757 8.735-21.688 9.659-30.165.375-3.438 1.088-6.502 1.583-6.809.496-.306.902-4.607.902-9.557 0-5.22-.386-8.761-.919-8.432-.506.313-1.243-2.448-1.638-6.136-.933-8.716-4.341-19.313-9.512-29.58-2.281-4.528-4.441-8.459-4.799-8.734s-1.935-2.48-3.505-4.9c-3.711-5.721-14.613-16.682-21.799-21.916C137.625 3.739 110.046-2.714 83.5 1.557m-5.287 2.874C69.074 6.693 64.908 8.198 56 12.454c-5.633 2.692-13.392 7.569-13.833 8.695-.184.468-.955.851-1.715.851s-1.863.9-2.452 2-1.469 2-1.956 2C34.889 26 26 34.889 26 36.044c0 .487-.9 1.367-2 1.956s-2 1.692-2 2.452-.383 1.531-.851 1.715c-1.817.712-7.361 10.546-12.526 22.218-3.83 8.656-6.62 23.665-6.62 35.615s2.79 26.959 6.62 35.615c5.165 11.672 10.709 21.506 12.526 22.218.468.184.851.955.851 1.715s.9 1.863 2 2.452 2 1.469 2 1.956C26 165.111 34.889 174 36.044 174c.487 0 1.367.9 1.956 2s1.692 2 2.452 2 1.531.383 1.715.851c.441 1.126 8.2 6.003 13.833 8.695 8.707 4.16 12.593 5.54 22.498 7.985 24.311 6.003 52.168 1.149 74.502-12.983 2.475-1.566 4.65-3.23 4.833-3.697.184-.468.955-.851 1.715-.851s1.863-.9 2.452-2 1.469-2 1.956-2c1.155 0 10.044-8.889 10.044-10.044 0-.487.9-1.367 2-1.956s2-1.692 2-2.452.383-1.531.851-1.715c1.126-.441 6.003-8.2 8.695-13.833 4.16-8.707 5.54-12.593 7.985-22.498 6.003-24.311 1.149-52.168-12.983-74.502-1.566-2.475-3.23-4.65-3.697-4.833-.468-.184-.851-.955-.851-1.715s-.9-1.863-2-2.452-2-1.469-2-1.956C174 34.889 165.111 26 163.956 26c-.487 0-1.367-.9-1.956-2s-1.692-2-2.452-2-1.531-.383-1.715-.851c-.712-1.817-10.546-7.361-22.218-12.526C120.467 1.92 95.673.109 78.213 4.431M38 100.5V173h20v-21h10c5.871 0 10-.405 10-.981 0-1.245-3.036-1.932-10-2.26l-5.5-.259-.3-6.926c-.22-5.092-.75-7.268-2-8.218-1.425-1.084-.043-1.298 8.55-1.324L79 132v20h9.5c8.976 0 11.69-.879 7.75-2.511-.963-.398-4.338-.639-7.5-.536l-5.75.188v-6.742c0-4.87-.459-7.249-1.655-8.57-1.596-1.764-1.124-1.829 13.341-1.829 8.248 0 21.806-.295 30.129-.655 14.841-.642 15.092-.691 13.006-2.5-1.545-1.34-3.726-1.845-7.974-1.845H124v-6.071c0-4.064-.496-6.568-1.5-7.572-.825-.825-1.5-1.901-1.5-2.391s4.132-1.02 9.183-1.178c8.748-.274 9.1-.371 7.429-2.038-1.276-1.273-3.372-1.75-7.683-1.75H124v-5.535c0-3.411-.62-6.481-1.615-8L120.77 90H141v83h20V28h-20v20.655c0 19.694-.082 20.581-1.769 19.054-1.142-1.034-4.068-1.709-8.25-1.905L124.5 65.5l-.293-6.634c-.224-5.064-.756-7.053-2.25-8.405-1.931-1.747-1.957-1.63-1.989 8.634-.026 8.72-.241 10.13-1.324 8.705-.95-1.25-3.126-1.78-8.218-2l-6.926-.3-.259-5.5c-.328-6.964-1.015-10-2.26-10-.572 0-.981 3.956-.981 9.5 0 8.708-.909 11.786-2.362 8-.436-1.137-2.279-1.5-7.607-1.5H83v-6.929c0-5.264-.42-7.349-1.75-8.679-1.667-1.668-1.774-.284-2.25 29.083-.427 26.319-.701 30.593-1.872 29.18-1.034-1.247-3.07-1.655-8.25-1.655H62v-6.671c0-4.805-.463-7.183-1.655-8.5-1.592-1.76-1.29-1.829 8-1.829 5.31 0 9.655-.36 9.655-.8 0-2.181-2.93-3.2-9.2-3.2H62v-6.671c0-4.805-.463-7.183-1.655-8.5C58.752 69.069 59.057 69 68.428 69c7.345 0 9.637-.307 9.325-1.25-.271-.819-3.056-1.351-8.083-1.542L62 65.916v-7.423c0-6.399-.276-7.57-2-8.493-1.804-.966-2-2.094-2-11.535V28H38zm43.443-8.277c1.008 1.438 1.557 4.436 1.557 8.5V107h6.378c4.449 0 6.754.454 7.622 1.5 2.433 2.931 3 1.381 3-8.2 0-7.759.25-9.45 1.25-8.452.688.686 1.475 4.264 1.75 7.95l.5 6.702 6.799.297c4.817.21 6.962.72 7.357 1.75 1.456 3.794 2.344.556 2.344-8.547V90H79.887zM.36 100c0 5.225.169 7.362.375 4.75s.206-6.888 0-9.5S.36 94.775.36 100M120 141.845V152h10.122c8.75 0 9.959-.198 8.914-1.456-.782-.943-3.559-1.56-7.872-1.75l-6.664-.294-.293-6.634c-.224-5.064-.756-7.053-2.25-8.405-1.93-1.747-1.957-1.633-1.957 8.384m-20 .533V152h9.622c8.312 0 9.458-.198 8.414-1.456-.782-.943-3.559-1.56-7.872-1.75l-6.664-.294-.294-6.664c-.19-4.313-.807-7.09-1.75-7.872-1.258-1.044-1.456.102-1.456 8.414"/><path fill-opacity=".206" fill-rule="evenodd" d="M85.331 1.49C74.268 2.999 62.754 6.64 54.5 11.24c-1.1.613-2.9 1.605-4 2.205-14.105 7.687-29.368 22.95-37.055 37.055-.6 1.1-1.598 2.9-2.219 4C6.395 63.059 2.409 76.921 1.019 90c-1.036 9.748-.984 13.252.342 23 1.705 12.532 5.323 24.454 9.865 32.5.621 1.1 1.619 2.9 2.219 4 7.687 14.105 22.95 29.368 37.055 37.055 1.1.6 2.9 1.598 4 2.219 8.046 4.542 19.968 8.16 32.5 9.865 9.748 1.326 13.252 1.378 23 .342 13.091-1.392 27.021-5.399 35.5-10.213 1.1-.625 3.19-1.737 4.645-2.473s3.197-2.002 3.872-2.816c.675-.813 1.673-1.479 2.217-1.479 1.131 0 9.787-6.924 14.314-11.452 4.528-4.527 11.452-13.183 11.452-14.314 0-.544.666-1.542 1.479-2.217s2.081-2.418 2.816-3.872a134 134 0 0 1 2.473-4.645c4.385-7.724 8.879-22.365 9.75-31.764.396-4.271 1.116-8.01 1.601-8.309.484-.3.881-3.245.881-6.545s-.398-5.754-.884-5.454c-.486.301-1.206-2.935-1.6-7.191-.868-9.362-5.344-23.946-9.742-31.737-.621-1.1-1.619-2.9-2.219-4-7.687-14.105-22.95-29.368-37.055-37.055-1.1-.6-2.9-1.598-4-2.219-7.956-4.491-19.952-8.158-31.936-9.762C100.961-.223 97.876-.22 85.331 1.49M77 4.531C65.45 7.45 61.106 9.129 52.613 13.958 44.623 18.501 42 20.266 42 21.099c0 .495-.604.901-1.343.901-.738 0-5.238 3.896-10 8.657S22 39.919 22 40.657c0 .739-.406 1.343-.901 1.343-.938 0-5.375 6.995-9.902 15.613-8.935 17.006-11.779 44.435-6.728 64.889 2.963 12.001 4.592 16.272 9.489 24.885 4.543 7.99 6.308 10.613 7.141 10.613.495 0 .901.525.901 1.166 0 1.27.299 1.615 8.759 10.075S39.564 178 40.834 178c.641 0 1.166.406 1.166.901 0 .938 6.995 5.375 15.613 9.902 17.006 8.935 44.435 11.779 64.889 6.728 12.001-2.963 16.272-4.592 24.885-9.489 7.99-4.543 10.613-6.308 10.613-7.141 0-.495.525-.901 1.166-.901 1.27 0 1.615-.299 10.075-8.759S178 160.436 178 159.166c0-.641.406-1.166.901-1.166.833 0 2.598-2.623 7.141-10.613 4.897-8.613 6.526-12.884 9.489-24.885 5.051-20.454 2.207-47.883-6.728-64.889C184.276 48.995 179.839 42 178.901 42c-.495 0-.901-.525-.901-1.166 0-1.27-.299-1.615-8.759-10.075S160.436 22 159.166 22c-.641 0-1.166-.406-1.166-.901 0-.833-2.623-2.598-10.613-7.141-8.613-4.897-12.884-6.526-24.885-9.489C108.627 1.043 90.705 1.067 77 4.531m-39 95.847V173h10c9.918 0 12.068-.823 7.932-3.036-1.797-.962-2.034-1.917-1.812-7.285l.256-6.179-5.847-.305c-3.216-.167-6.776-.955-7.91-1.75-1.861-1.303-1.105-1.445 7.658-1.445 9.828 0 11.725-.816 8.085-3.477-1.199-.877-1.668-2.919-1.75-7.611L54.5 135.5l-6.702-.5c-3.686-.275-7.193-.992-7.793-1.593-1.457-1.46 19.396-2.394 53.995-2.419 17.064-.012 25.966-.356 25-.965-1.021-.645-1.66-3.272-2-8.235l-.5-7.288-6.989-.301c-4.816-.208-7.241-.752-7.8-1.75-1.893-3.383-2.711-.916-2.711 8.173 0 8.44-.184 9.47-1.5 8.378-1.067-.886-1.5-3.229-1.5-8.122V114h-6.893c-5.205 0-7.034-.367-7.469-1.5-.316-.825-1.264-1.5-2.107-1.5-1.263 0-1.531 1.597-1.531 9.122 0 7.996-.185 8.969-1.5 7.878-1.046-.868-1.5-3.173-1.5-7.622V114h-6.333c-5.96 0-6.55-.216-10-3.667s-3.667-4.04-3.667-10V94h-6.345c-5.075 0-6.707-.4-8.155-2-1.798-1.987-1.747-2 7.845-2 9.608 0 11.278-.675 7.905-3.193-1.327-.991-1.75-2.757-1.75-7.307v-6l-6.165-.296c-3.866-.185-6.616-.838-7.373-1.75C39.921 70.2 41.009 70 48.878 70 56.181 70 58 69.711 58 68.55c0-.798-.768-1.88-1.707-2.406-1.296-.725-1.639-2.056-1.426-5.528.479-7.778-.165-8.611-6.684-8.648-3.403-.019-6.462-.621-7.624-1.5-1.75-1.323-.986-1.468 7.75-1.468 9.796 0 11.69-.818 8.053-3.477-1.199-.877-1.668-2.919-1.75-7.611L54.5 31.5l-6.6-.5c-3.63-.275-7.342-1.118-8.25-1.872-1.531-1.274-1.65 3.873-1.65 71.25M141 44.27c0 9.028-.295 22.557-.655 30.066-.54 11.275-.889 13.458-2 12.536-.869-.722-1.345-3.372-1.345-7.494V73h-6.378c-4.449 0-6.754-.454-7.622-1.5-2.433-2.931-3-1.381-3 8.2 0 7.759-.25 9.45-1.25 8.452-.687-.686-1.475-4.264-1.75-7.95l-.5-6.702-6.799-.297c-4.817-.21-6.962-.72-7.357-1.75-.307-.799-1.185-1.453-1.951-1.453C99.298 70 99 72.074 99 79.691c0 8.736-.145 9.5-1.468 7.75-.917-1.212-1.48-4.288-1.5-8.191L96 73h-6.893c-5.205 0-7.034-.367-7.469-1.5-.316-.825-1.039-1.5-1.607-1.5C79.392 70 79 73.797 79 80v10h62v83h10.155c9.775 0 10.093-.068 8.5-1.829-1.192-1.317-1.655-3.695-1.655-8.5V156l-6.25-.032c-3.903-.02-6.979-.583-8.191-1.5-1.75-1.323-.986-1.468 7.75-1.468 5.991 0 9.691-.394 9.691-1.031 0-.568-.675-1.291-1.5-1.607-1.146-.44-1.5-2.32-1.5-7.969V135h-6.309c-3.999 0-7.019-.538-8.25-1.468-1.75-1.324-.982-1.472 7.809-1.5 8.933-.029 12.053-.934 8.25-2.394-1.15-.441-1.5-2.335-1.5-8.107V114h-6.878c-4.893 0-7.236-.433-8.122-1.5-1.092-1.316-.045-1.5 8.533-1.5 9.408 0 9.715-.069 8.122-1.829-1.192-1.317-1.655-3.695-1.655-8.5V94h-6.759c-5.677 0-6.96-.32-8.009-2-1.217-1.948-.999-2 8.415-2 9.298 0 9.6-.069 8.008-1.829-1.192-1.317-1.655-3.695-1.655-8.5V73h-6.893c-5.205 0-7.034-.367-7.469-1.5-.485-1.265.832-1.5 8.393-1.5 8.888 0 10.368-.594 7.469-3-1.067-.886-1.5-3.229-1.5-8.122V52h-6.878c-4.893 0-7.236-.433-8.122-1.5-1.092-1.316-.062-1.5 8.378-1.5 5.943 0 9.622-.394 9.622-1.031 0-.568-.675-1.291-1.5-1.607-1.146-.44-1.5-2.32-1.5-7.969V31h-6.929c-4.965 0-7.373-.445-8.5-1.571C141.143 28 141 29.349 141 44.27M.32 100c0 3.575.182 5.037.403 3.25s.222-4.713 0-6.5C.502 94.963.32 96.425.32 100M40 112.5c.866 1.043 3.166 1.5 7.555 1.5 7.21 0 7.8.688 7.317 8.534-.195 3.176.222 4.989 1.426 6.193 1.603 1.602 1.702 1.135 1.702-8.013V111h-9.622c-8.44 0-9.47.184-8.378 1.5"/><path fill-opacity=".292" fill-rule="evenodd" d="M91.5 1c-2.604.466.364.722 8.5.733 9.298.012 11.347-.188 8-.784-5.341-.95-11.005-.933-16.5.051M74.188 3.683c-2.372.839-4.07 1.768-3.773 2.065.432.433 6.798-1.151 13.085-3.255.55-.184-.35-.335-2-.335s-4.941.686-7.312 1.525m46.312-.102c7.634 2.395 10.771 2.784 6.5.805-1.925-.892-5.3-1.791-7.5-1.998l-4-.376zM62 8c-1.925 1.054-2.825 1.916-2 1.916S63.075 9.054 65 8s2.825-1.916 2-1.916-3.075.862-5 1.916m73 0c1.925 1.054 4.175 1.916 5 1.916s-.075-.862-2-1.916-4.175-1.916-5-1.916.075.862 2 1.916m-81.5 4c-1.65 1.093-2.325 1.98-1.5 1.971 1.658-.017 7.099-3.917 5.5-3.942-.55-.009-2.35.878-4 1.971m90.5 0c1.375 1.076 3.175 1.963 4 1.971s.15-.878-1.5-1.971c-3.863-2.559-5.771-2.559-2.5 0m-97.139 4.016L44.5 18.032l2.75-1.176c1.513-.648 2.75-1.555 2.75-2.017 0-1.247-.535-1.047-3.139 1.177M150 14.804c0 .481 1.154 1.401 2.564 2.043 1.464.667 2.298.738 1.944.166-.907-1.468-4.508-3.232-4.508-2.209M41.5 18.948c-.55.466-5.277 5.056-10.504 10.2C21.042 38.942 17.567 42.9 18.287 43.62c.237.237 2.151-1.718 4.253-4.345 4.359-5.446 11.001-12.08 17.501-17.48 2.452-2.038 4.009-3.703 3.459-3.7s-1.45.387-2 .853m118.42 2.847c6.394 5.36 13.042 12.006 17.486 17.48 3.822 4.708 6.454 6.126 2.916 1.57-2.342-3.014-18.122-18.803-21.083-21.095-4.285-3.315-3.731-1.653.681 2.045M38 38.465V48l10.25-.032c9.231-.028 10.057-.178 8.309-1.5-1.231-.93-4.251-1.468-8.25-1.468H42v-6.965c0-5.941-.294-7.122-2-8.035-1.935-1.036-2-.76-2 8.465m103-.12V48h9.622c8.44 0 9.47-.184 8.378-1.5-.868-1.046-3.173-1.5-7.622-1.5H145v-6.345c0-5.075-.4-6.707-2-8.155-1.987-1.798-2-1.747-2 7.845M16.278 46.25C14.431 48.639 13.887 50 14.78 50c.495 0 1.412-1.125 2.038-2.5 1.233-2.706 1.001-3.243-.54-1.25m166.875 1.186c.642 1.41 1.562 2.564 2.043 2.564 1.023 0-.741-3.601-2.209-4.508-.572-.354-.501.48.166 1.944M38 59.5V69h10.122c8.885 0 9.971-.183 8.878-1.5-.886-1.067-3.229-1.5-8.122-1.5H42v-6.8c0-6.27-1.019-9.2-3.2-9.2-.44 0-.8 4.275-.8 9.5m103 0V69h9.622c8.44 0 9.47-.184 8.378-1.5-.868-1.046-3.173-1.5-7.622-1.5H145v-6.429c0-4.51-.469-6.897-1.571-8-.865-.864-1.765-1.571-2-1.571S141 54.275 141 59.5M11.64 54.032c-1.009 1.709-1.627 3.314-1.373 3.568.676.677 3.917-4.549 3.534-5.698-.179-.537-1.152.421-2.161 2.13M186.029 52c.017 1.658 3.917 7.099 3.942 5.5.009-.55-.878-2.35-1.971-4s-1.98-2.325-1.971-1.5M7.5 63c-.997 2.211-1.588 4.245-1.313 4.52S7.503 66.211 8.5 64s1.588-4.245 1.313-4.52S8.497 60.789 7.5 63m182.584-3c0 .825.862 3.075 1.916 5s1.916 2.825 1.916 2-.862-3.075-1.916-5-1.916-2.825-1.916-2M3.612 74.624c-.886 2.603-1.58 5.89-1.541 7.304.04 1.464.916-.394 2.033-4.312 2.256-7.916 1.908-10.035-.492-2.992M38 79.845V90h10.155c10.092 0 10.144-.012 8.345-2-1.448-1.6-3.08-2-8.155-2H42v-6.345c0-5.075-.4-6.707-2-8.155-1.988-1.799-2-1.747-2 8.345M79 80v10h9.5c5.225 0 9.5-.36 9.5-.8 0-2.127-2.917-3.2-8.7-3.2H83v-5.435C83 74.709 81.674 70 80.025 70 79.393 70 79 73.839 79 80m21.032-.25L100 90h9.535c9.225 0 9.501-.065 8.465-2-.913-1.706-2.094-2-8.035-2H103v-6.309c0-3.999-.538-7.019-1.468-8.25-1.322-1.748-1.472-.922-1.5 8.309M120 80v10h10.008c9.759 0 9.978-.05 8.76-2-1.049-1.68-2.332-2-8.009-2H124l-.032-6.25c-.028-5.606-1.443-9.75-3.328-9.75-.352 0-.64 4.5-.64 10m21.033-.25L141 90h9.508c9.259 0 9.476-.053 8.26-2-1.033-1.654-2.332-2-7.509-2H145v-5.889c0-4.389-.501-6.491-1.967-8.25l-1.966-2.361zM194.421 72c.236 1.375 1.135 4.75 1.998 7.5l1.569 5-.376-4c-.207-2.2-1.106-5.575-1.998-7.5-1.234-2.662-1.519-2.902-1.193-1M.603 94.75C.272 98.463.395 103.975.876 107c.77 4.84.889 4.03.999-6.75C1.944 93.513 1.821 88 1.601 88c-.219 0-.668 3.037-.998 6.75M198.247 100c0 11.353.082 11.926.896 6.25.529-3.686.529-8.814 0-12.5-.814-5.676-.896-5.103-.896 6.25M38 100.345V110h9.622c8.44 0 9.47-.184 8.378-1.5-.868-1.046-3.173-1.5-7.622-1.5H42v-6.345c0-5.075-.4-6.707-2-8.155-1.987-1.798-2-1.747-2 7.845m103 0V110h8.969c7.561 0 8.878-.235 8.393-1.5-.429-1.117-2.209-1.5-6.969-1.5H145v-6.345c0-5.075-.4-6.707-2-8.155-1.987-1.798-2-1.747-2 7.845m-83 20c0 9.538-.569 11.084-3 8.155-.848-1.022-3.118-1.5-7.122-1.5H42v-6.259c0-5.177-.346-6.476-2-7.509-1.947-1.216-2-.999-2 8.26V131l20.25-.033 20.25-.034-2.361-1.966c-1.759-1.466-3.861-1.967-8.25-1.967H62v-6.345c0-5.075-.4-6.707-2-8.155-1.987-1.798-2-1.747-2 7.845m21.033.405L79 131h9.655c9.592 0 9.643-.013 7.845-2-1.417-1.565-3.08-2-7.655-2H83v-5.889c0-4.389-.501-6.491-1.967-8.25l-1.966-2.361zm20.967.628V131h9.655c9.592 0 9.643-.013 7.845-2-1.448-1.6-3.08-2-8.155-2H103v-6.378c0-4.449-.454-6.754-1.5-7.622-1.316-1.092-1.5-.062-1.5 8.378m41-.033V131h9.49c9.395 0 9.473-.02 7.778-2-1.346-1.572-2.95-2-7.49-2H145v-5.845c0-4.575-.435-6.238-2-7.655-1.987-1.798-2-1.747-2 7.845M2.388 119.5c.207 2.2 1.106 5.575 1.998 7.5 1.979 4.271 1.59 1.134-.805-6.5l-1.569-5zm194.748-2.285c-.075.943-.839 3.785-1.698 6.315s-1.383 5.133-1.165 5.785c.644 1.924 3.913-9.057 3.436-11.542-.271-1.411-.488-1.623-.573-.558M6.084 133c0 .825.862 3.075 1.916 5s1.916 2.825 1.916 2-.862-3.075-1.916-5-1.916-2.825-1.916-2m185.416 3c-.997 2.211-1.588 4.245-1.313 4.52s1.316-1.309 2.313-3.52 1.588-4.245 1.313-4.52-1.316 1.309-2.313 3.52M38 142.465V152l10.25-.022 10.25-.022L56 150c-1.81-1.416-4.087-1.962-8.25-1.978L42 148v-6.465c0-5.441-.317-6.634-2-7.535-1.935-1.036-2-.76-2 8.465m103 .035v9.5h9.655c9.592 0 9.643-.013 7.845-2-1.417-1.565-3.08-2-7.655-2H145v-5.929c0-4.056-.496-6.424-1.571-7.5-.865-.864-1.765-1.571-2-1.571s-.429 4.275-.429 9.5m-130.971 0c-.009.55.878 2.35 1.971 4s1.98 2.325 1.971 1.5c-.017-1.658-3.917-7.099-3.942-5.5m177.606 1.934c-.899 1.372-1.627 3.074-1.618 3.781s.965-.196 2.125-2.007c1.159-1.81 1.887-3.512 1.618-3.781s-1.225.634-2.125 2.007m-172.665 7.51c1.611 3.011 3.206 3.537 1.877.62-.642-1.41-1.562-2.564-2.043-2.564s-.406.875.166 1.944m168.183.62c-.667 1.464-.738 2.298-.166 1.944 1.468-.907 3.232-4.508 2.209-4.508-.481 0-1.401 1.154-2.043 2.564M38 163.5v9.5l10.25-.033 10.25-.034-2.361-1.966c-1.759-1.466-3.861-1.967-8.25-1.967H42v-6.3c0-5.783-1.073-8.7-3.2-8.7-.44 0-.8 4.275-.8 9.5m103 0v9.5h9.655c9.592 0 9.643-.013 7.845-2-1.417-1.565-3.08-2-7.655-2H145v-6.3c0-5.783-1.073-8.7-3.2-8.7-.44 0-.8 4.275-.8 9.5m-122.955-7.261c-.076 1.25 3.101 4.907 11.955 13.761 9.115 9.115 12.934 12.399 13.62 11.713.237-.237-1.718-2.175-4.345-4.307-5.474-4.444-12.12-11.092-17.48-17.486-2.038-2.431-3.725-4.088-3.75-3.681m159.346 4.486a117 117 0 0 1-16.666 16.666c-2.627 2.141-4.582 4.085-4.345 4.322.686.686 4.505-2.598 13.62-11.713s12.399-12.934 11.713-13.62c-.237-.237-2.181 1.718-4.322 4.345M45.492 182.987c.907 1.468 4.508 3.232 4.508 2.209 0-.481-1.154-1.401-2.564-2.043-1.464-.667-2.298-.738-1.944-.166m106.758.233c-1.238.597-2.25 1.483-2.25 1.968 0 1.026 3.596-.725 4.503-2.193.731-1.182.648-1.174-2.253.225M53.5 188c1.65 1.093 3.45 1.98 4 1.971 1.599-.025-3.842-3.925-5.5-3.942-.825-.009-.15.878 1.5 1.971m90.5 0c-3.271 2.559-1.363 2.559 2.5 0 1.65-1.093 2.325-1.98 1.5-1.971s-2.625.895-4 1.971m-82 4c1.925 1.054 4.175 1.916 5 1.916s-.075-.862-2-1.916-4.175-1.916-5-1.916.075.862 2 1.916m73 0c-1.925 1.054-2.825 1.916-2 1.916s3.075-.862 5-1.916 2.825-1.916 2-1.916-3.075.862-5 1.916m-62 3.614c1.925.892 5.3 1.791 7.5 1.998l4 .376-5-1.569c-7.634-2.395-10.771-2.784-6.5-.805m52.751-1.032c-.32.32-2.757 1.218-5.416 1.994l-4.835 1.412 4-.376c4.755-.448 12.215-3.401 8.917-3.53-1.146-.045-2.346.18-2.666.5m-32.001 4.561c3.686.529 8.814.529 12.5 0 5.676-.814 5.103-.896-6.25-.896s-11.926.082-6.25.896"/></svg>