<svg xmlns="http://www.w3.org/2000/svg" width="32" height="32" fill="#000000"><path fill-opacity=".29" fill-rule="evenodd" d="M7.859 2.158C.375 6.497-2.355 17.21 2.274 24.078c7.361 10.924 20.13 10.653 27.904-.591 2.073-3 2.764-5.204 2.789-8.904.018-2.704-.249-4.634-.594-4.29-.344.345-1.592-.807-2.773-2.559C24.483.142 15.367-2.196 7.859 2.158M.3 16c0 3.025.187 4.263.416 2.75s.229-3.987 0-5.5S.3 12.975.3 16m17.433-3.876c.679.684 1.486.991 1.793.683.308-.308-.247-.867-1.233-1.243-1.425-.542-1.54-.428-.56.56m-4.646 6.628c-1.013 1.085-.745 1.2 1.487.64 2.164-.543 2.558-.397 1.915.712-.445.768-.424 1.045.046.617.471-.428.939-1.344 1.041-2.036.243-1.661-2.919-1.614-4.489.067m6.372-.685c-.363.586-.445 1.281-.183 1.543s.743-.218 1.069-1.067c.676-1.762.1-2.072-.886-.476"/><path fill-opacity=".271" fill-rule="evenodd" d="M9.45 1.407C-.639 5.801-3.022 19.213 4.882 27.118c8.256 8.255 20.799 5.654 26.151-5.423 2.059-4.261 2.725-11.281.967-10.195-.55.34-1-.049-1-.864 0-2.337-5.084-7.773-8.671-9.272C18.254-.338 13.42-.322 9.45 1.407m5.334 8.961c-1.486 1.846-1.863 1.931-2.815.632-.876-1.194-.966-1.026-.445.82.517 1.832.201 2.439-1.503 2.885-2.108.551-2.096.606.517 2.32 2.521 1.654 2.569 1.823.819 2.913-1.682 1.049-1.645 1.099.4.54 1.748-.478 2.448-.098 3.108 1.686l.852 2.303.709-2.233c.77-2.426 3.06-2.991 3.981-.984.316.688.322.235.014-1.007-.427-1.722-.015-2.458 1.743-3.108l2.303-.852-2.233-.709c-2.426-.77-2.991-3.06-.984-3.981.688-.316.235-.322-1.007-.014-1.638.406-2.46.025-3-1.391-.726-1.906-.783-1.902-2.459.18M.272 16c0 2.475.195 3.488.434 2.25.238-1.238.238-3.262 0-4.5C.467 12.512.272 13.525.272 16m13.209-1.97c-.388.629-.254 1.597.3 2.151 1.421 1.421 4.719.586 4.719-1.195 0-1.798-4.024-2.564-5.019-.956"/><path fill-opacity=".341" fill-rule="evenodd" d="M8.962 2.25C4.159 4.672 0 11.053 0 16s4.159 11.328 8.962 13.75c5.611 2.83 8.465 2.83 14.076 0 3.326-1.677 5.142-3.523 7.131-7.25 2.316-4.339 3.964-11.966 2.206-10.208-.344.343-1.581-1.269-2.75-3.584C27.33 4.163 20.816 0 16 0c-1.417 0-4.584 1.012-7.038 2.25m.792 4.529L5.008 9.5V16l-.001 6.5 5.496 2.965L16 28.43l5.497-2.965 5.496-2.965-.011-6.5-.011-6.5-4.986-2.75c-2.742-1.513-5.548-2.737-6.236-2.721-.687.015-3.385 1.253-5.995 2.75m1.833.781c-1.029.752-2.369 1.575-2.979 1.828-.72.299-.583.831.392 1.521 1.242.878 1.113 1.063-.75 1.076-1.946.013-2.25.542-2.25 3.909 0 3.472.257 3.879 2.372 3.75 2.414-.146 2.524-2.288.201-3.879-.641-.438-.344-.741.736-.75.995-.008 1.531-.465 1.191-1.015s-.156-1 .41-1c.565 0 .775-.657.467-1.46-.404-1.054.017-1.349 1.515-1.061 1.225.236 2.481-.293 3.062-1.289.824-1.413.99-1.438 1.016-.153.016.846.822 1.597 1.789 1.67.968.073 2.374.281 3.125.463 2.616.632 2.148-1.835-.608-3.206-3.795-1.888-7.451-2.04-9.689-.404m9.852 6.228c.111.755.845 1.779 1.631 2.277 1.15.727 1.063.907-.442.92-1.551.012-1.659.273-.628 1.515 2.326 2.803 4 1.761 4-2.489 0-3.59-.238-3.969-2.381-3.792-1.375.114-2.296.777-2.18 1.569M.232 16c0 1.925.206 2.712.457 1.75.252-.962.252-2.537 0-3.5-.251-.963-.457-.175-.457 1.75m13.214-1.913c-1.025 1.658 1.097 3.193 3.402 2.461 1.259-.399 1.835-1.209 1.494-2.099-.651-1.696-3.922-1.937-4.896-.362m7.177 6.373c.404 1.054-.017 1.349-1.515 1.061-1.225-.236-2.481.293-3.062 1.289-.907 1.556-.988 1.546-1.016-.119-.016-.995-.48-1.531-1.03-1.191s-1 .217-1-.274c0-1.179-4.296-.839-4.699.372-.398 1.193 5.701 4.449 7.699 4.11 2.532-.43 8-2.911 8-3.629C24 21.156 21.782 19 20.831 19c-.422 0-.516.657-.208 1.46"/><path fill-opacity=".264" fill-rule="evenodd" d="M11.594 1.041C7.391 2.299 2.123 7.83.938 12.23c-2.93 10.883 8.02 21.743 18.954 18.799C24.257 29.854 31 23.192 31 20.056c0-1.066.45-2.216 1-2.556s1-1.518 1-2.618-.45-1.722-1-1.382-1-.307-1-1.438c0-3.107-6.647-9.87-10.848-11.037-4.189-1.163-4.618-1.162-8.558.016M10.25 6.153 5 9.193v13.616l5.5 3.104 5.5 3.104 5.5-3.104 5.5-3.104V9.147l-5.372-3.074c-2.954-1.69-5.542-3.048-5.75-3.017s-2.74 1.425-5.628 3.097m1.5 1.458c-2.856 1.509-3.457 2.834-1.761 3.882.593.367.718-.109.312-1.191-.558-1.488-.419-1.594.795-.609 1.798 1.458 4.236.169 3.752-1.984-.309-1.375-.66-1.386-3.098-.098m5.25.744c0 2.048.431 2.422 2.533 2.191 3.68-.404 3.761-.941.436-2.905C17.005 5.89 17 5.891 17 8.355m-10 5.11C7 14.333 7.869 15 9 15c1.1 0 2-.209 2-.465 0-.255-.9-.946-2-1.535-1.596-.854-2-.76-2 .465m16.008-.48c-1.177.735-1.233 1.19-.266 2.157 1.456 1.456 2.571.639 2.096-1.537-.241-1.106-.767-1.284-1.83-.62m-9.314.654c-1.18 1.18.4 2.361 3.115 2.329 2.582-.03 2.612-.091.75-1.5-2.142-1.619-2.91-1.784-3.865-.829M.158 16c0 1.375.227 1.938.504 1.25.278-.687.278-1.812 0-2.5-.277-.687-.504-.125-.504 1.25M7 17.885c0 1.438.461 1.875 1.542 1.46 1.707-.655 1.497-2.499-.354-3.116-.66-.22-1.188.517-1.188 1.656m14-.42c0 .255.9.946 2 1.535 1.596.854 2 .76 2-.465 0-.868-.869-1.535-2-1.535-1.1 0-2 .209-2 .465m.564 3.828c.376.986.935 1.541 1.243 1.233s.001-1.114-.683-1.793c-.988-.98-1.102-.865-.56.56m-11.847 1.52c4.298 3.216 5.283 3.384 5.283.902 0-2.042-.472-2.348-3.533-2.296-3.174.054-3.352.195-1.75 1.394m8.426-.902c-.737.456-1.183 1.585-.991 2.509.312 1.505.557 1.525 2.348.197 2.235-1.657.984-4.152-1.357-2.706"/></svg>