<svg xmlns="http://www.w3.org/2000/svg" width="24" height="24" fill="#000000"><path fill="#BDBDBD" d="M12 0c6.628 0 12 5.372 12 12s-5.372 12-12 12S0 18.628 0 12 5.372 0 12 0"/><path fill="#FFFFFF" d="M10.693 11.368h.07l1.676-.02c.81.001 2.07-.027 3.331-.04q1.503-.016 3.005-.028.055.001.078-.019.029-.024.025-.096l-.006-.174-.005-.371-.03-3.372-.014-1.825c0-.074-.016-.122-.082-.158l-.788-.441-3.173-1.787-.004-.002c-.058-.033-.081-.046-.09-.024a.1.1 0 0 0-.006.044v.051l.015 1.62.048 4.936c.002.14-.002.145-.13.145h-.837c-.455 0-.91.009-1.365.018h-.019c-.543.01-1.087.02-1.63.015-.637-.006-1.274.024-1.91.027q-.97.006-1.94.02-.86.01-1.719.017c-.047.001-.078.007-.096.028a.1.1 0 0 0-.019.042.3.3 0 0 0-.003.061q.016.637.017 1.273-.002.067.019.096.023.034.095.03c.609-.016 1.219-.02 1.829-.025 1.166-.01 2.333-.025 3.658-.04M12.006 12.646a491 491 0 0 0-4.213.052 258 258 0 0 1-1.706.016l-.606.004-.273.002c-.08 0-.107.023-.103.113q.01.241.01.482l.001.133.046 5.169q.003.03.015.054a.14.14 0 0 0 .064.063q.676.377 1.35.759l2.612 1.469.05.028q.028.015.038.008c.012-.008.012-.037.012-.096v-.003l-.024-2.38-.04-4.178c-.002-.148 0-.15.135-.15h.89c.674 0 1.348-.02 2.022-.03q.471-.007.942-.003c.37.004.739-.005 1.109-.013a86 86 0 0 1 .833-.014q1.014-.006 2.03-.02l1.588-.017c.078-.001.125-.004.121-.117a41 41 0 0 1-.016-1.296q0-.08-.033-.1a.1.1 0 0 0-.022-.01.2.2 0 0 0-.058-.006q-.486.009-.972.014z"/><path fill="#FFFFFF" d="m14.777 18.205.002-.587q0-1.008-.003-2.015c0-.055.012-.08.033-.092.02-.011.047-.01.079-.01l2.609-.028q.668-.007 1.335-.016c.09-.002.115.026.115.124q0 .812.005 1.624v.036l.001.272c.002.308.053.613.047.923a.3.3 0 0 1-.009.07.1.1 0 0 1-.023.042.2.2 0 0 1-.044.033L16.66 19.88l-.759.436-.993.572-.002.001c-.051.03-.088.053-.086-.048.01-.77-.012-1.539-.033-2.308zM9.204 6.31v-.523h-.028v-.626l-.008-.656c-.007-.447-.014-.894-.006-1.342.002-.113-.039-.087-.081-.06l-.02.012L7.212 4.18q-1.065.613-2.13 1.221c-.063.036-.085.078-.082.156q.022.452.028.903.008.987.008 1.976 0 .062.021.084.023.024.079.022 1.993-.026 3.985-.045c.066-.001.085-.021.085-.096q-.003-1.046-.002-2.09"/></svg>