<svg width="494" height="500" viewBox="0 0 494 500" fill="#000000" xmlns="http://www.w3.org/2000/svg">
<path fill-rule="evenodd" clip-rule="evenodd" d="M197.202 5.34526C193.029 7.86021 182.905 10.6702 174.702 11.5876C159.08 13.3326 151.038 17.94 151.038 25.1424C151.038 28.0498 145.23 31.9872 132.913 37.4321C112.204 46.5844 108.539 50.2519 108.539 61.8166C108.539 68.4215 109.546 70.089 113.539 70.089C116.289 70.089 118.258 68.7765 117.913 67.174C117.571 65.5716 121.226 63.4091 126.038 62.3666L134.788 60.4742L127.558 65.7491C120.973 70.5515 120.751 71.1789 125.058 72.7589C127.858 73.7839 131.446 73.0414 133.853 70.9339C140.236 65.3466 154.97 64.0866 173.34 67.5515L190.222 70.7365L211.012 61.3491C253.596 42.122 281.035 53.1243 281.035 89.4236C281.035 107.446 280.585 107.766 257.646 106.088C236.319 104.531 210.849 108.421 192.682 116.013L183.362 119.905L189.395 131.873C192.712 138.453 198.939 152.275 203.229 162.587C209.872 178.552 225.991 206.739 226.026 202.446C226.031 201.684 222.236 191.559 217.591 179.947C206.002 150.985 204.427 143.552 213.509 160.712C222.746 178.167 220.784 178.284 234.404 159.462C240.624 150.87 248.878 140.455 252.748 136.32C267.95 120.083 268.295 119.09 257.171 123.605C247.296 127.615 247.291 127.613 253.391 122.855C256.748 120.235 263.518 116.886 268.433 115.413C281.068 111.628 287.125 100.498 287.215 80.9062C287.388 42.857 249.648 28.9423 206.644 51.1968C196.194 56.6042 186.355 60.0492 183.012 59.4667C176.56 58.3417 178.24 57.4417 195.649 52.7043C207.172 49.5669 228.536 30.8898 228.536 23.9524C228.536 18.74 238.876 16.6475 255.168 18.5625C304.955 24.4149 327.444 62.7741 307.575 107.951L303.885 116.338L305.202 108.568C306.902 98.5334 297.755 94.6485 293.125 103.438C291.56 106.408 280.94 118.685 269.523 130.723C227.231 175.307 222.054 192.159 242.441 218.871C251.126 230.246 251.128 230.263 244.213 226.643C226.764 217.509 213.394 199.514 190.117 153.837C181.01 135.963 171.705 118.773 169.445 115.641C165.36 109.981 165.38 109.961 172.56 112.508C184.632 116.793 162.9 98.8334 146.79 91.211C110.966 74.2639 75.4269 78.6588 46.8349 103.576C36.1451 112.893 21.0404 139.248 21.0404 148.587C21.0404 153.387 20.543 153.25 14.5381 146.772C6.69073 138.31 4.49328 139.555 8.2507 150.332C12.8231 163.447 11.5306 178.414 4.49828 193.774C-2.11909 208.229 -1.3441 220.086 6.22074 220.086C8.1957 220.086 8.4982 226.888 7.25572 243.443L5.50576 266.8L12.4456 272.26C20.8804 278.895 25.0154 277.927 24.1229 269.53C23.7554 266.078 24.5279 260.57 25.8403 257.293C28.0978 251.653 28.2328 251.768 28.3828 259.46C28.5428 267.755 31.6977 270.07 35.1902 264.46C36.2601 262.743 36.8251 258.923 36.4426 255.975C35.3952 247.86 41.64 235.083 53.1573 221.778C64.3271 208.871 64.9996 207.001 67.1345 182.802C71.1169 137.658 98.5164 120.013 130.083 142.263C144.198 152.212 144.16 148.602 130.013 135.563C98.0489 106.098 56.0397 133.123 56.0397 183.149C56.0397 191.742 54.3173 201.709 51.9848 206.624C45.46 220.376 44 218.519 49.2149 203.094C54.8398 186.459 53.8098 172.429 45.7824 156.357C39.4976 143.775 41.8 137.288 59.2647 118.34C88.6641 86.4461 125.861 89.2661 155.38 125.625C162.02 133.805 162.023 133.815 155.715 128.173C147.198 120.558 138.301 127.568 144.768 136.8C146.763 139.648 151.813 154.55 155.99 169.914C171.045 225.283 183.767 239.278 217.161 237.201C234.354 236.131 234.339 236.351 216.682 244.433C200.919 251.65 186.667 252.478 120.593 250.015C90.8465 248.908 89.1391 248.573 92.779 244.545C105.584 230.388 60.4997 254.045 44.8475 269.697C13.4981 301.047 10.7732 347.888 38.1951 384.043L47.8349 396.752L40.0626 399.915L32.2902 403.077L43.555 406.165C59.9747 410.665 64.6396 413.737 75.1169 426.954C88.3241 443.614 90.874 445.339 99.7989 443.664C106.291 442.447 110.019 444.066 122.761 453.646C138.831 465.724 146.463 467.506 155.378 461.264C161.06 457.281 160.525 448.784 154.73 451.006C152.993 451.674 148.935 449.416 145.715 445.989L139.863 439.759L146.863 442.419C155.833 445.831 156.038 445.804 156.038 441.269C156.038 439.174 153.335 436.432 150.033 435.174C142.6 432.349 131.961 418.712 128.333 407.36C122.333 388.583 120.091 384.908 111.369 379.56C64.8096 351.013 58.4747 316.764 96.0564 296.772L109.789 289.467L99.2339 290.78C48.9174 297.029 48.1249 354.388 97.9564 382.95C105.201 387.103 112.794 393.725 114.831 397.667C120.476 408.577 119.383 408.53 109.351 397.427C97.1814 383.958 87.8341 379.26 69.9995 377.66L55.2098 376.333L46.6349 360.681C22.0529 315.809 43.335 273.152 93.539 266.665C103.311 265.403 103.766 265.53 97.0064 267.63C87.1066 270.71 87.2666 282.612 97.1839 280.717C100.324 280.117 113.446 282.48 126.341 285.967C189.09 302.939 208.367 299.547 222.576 269.032L228.486 256.335L228.511 268.26C228.546 284.997 220.096 303.919 196.999 338.834C186.085 355.333 175.64 372.49 173.792 376.958C169.895 386.378 166.138 387.555 165.813 379.458C165.648 375.36 164.9 376.208 163.058 382.583C144.48 446.831 206.399 512.9 268.99 495.618C276.558 493.53 277.948 493.7 276.843 496.58C274.71 502.14 282.643 500.743 293.317 493.678C299.77 489.408 307.87 486.813 317.637 485.886C334.562 484.278 343.534 479.608 343.534 472.408C343.534 467.614 364.521 455.174 372.726 455.106C377.701 455.064 386.033 442.312 386.033 434.744C386.033 429.179 384.886 427.582 380.886 427.582C378.056 427.582 376.361 428.589 377.121 429.819C378.661 432.312 372.866 435.127 366.454 434.999C363.046 434.932 363.304 434.064 367.873 430.252C375.541 423.854 368.388 420.922 359.431 426.792C352.481 431.347 335.039 432.227 314.785 429.044C303.572 427.284 300.182 428.009 281.88 436.082C239.814 454.636 216.554 445.679 213.674 409.82L212.189 391.333L208.822 401.005C193.599 444.716 237.856 471.231 285.348 446.854C296.14 441.314 306.705 437.672 311.597 437.804C319.399 438.019 319.254 438.177 308.535 441.152C287.473 446.996 274.475 456.176 267.12 470.401L263.151 478.078L242.718 477.178C192.207 474.956 161.715 427.757 186.452 390.083C188.465 387.018 188.66 387.15 187.517 390.803C184.445 400.632 196.697 400.295 203.269 390.368C206.559 385.4 218.141 372.283 229.006 361.223C266.583 322.971 271.68 304.414 251.781 278.342L243.166 267.058L253.746 272.945C268.63 281.23 280.545 297.414 299.935 335.681C309.172 353.916 318.824 371.818 321.382 375.468C327.329 383.953 327.249 385.983 321.032 384.358C305.645 380.333 342.669 405.232 361.251 411.405C408.07 426.954 460.634 398.627 472.471 351.463L474.146 344.791L480.079 350.363C487.976 357.781 488.746 356.238 484.784 340.956C481.186 327.094 482.459 316.699 489.384 303.334C494.628 293.217 494.703 281.67 489.554 277.397C486.219 274.627 485.854 270.61 487.294 252.413C489.059 230.113 485.126 220.086 474.616 220.086C470.199 220.086 465.087 226.853 468.616 228.031C470.429 228.636 470.739 231.568 469.499 236.398L467.591 243.835L466.074 237.586C463.957 228.863 457.072 229.306 457.984 238.103C458.979 247.678 453.252 259.93 440.415 275.692C430.122 288.327 429.22 290.622 427.76 307.909C423.485 358.461 401.358 375.935 366.789 356.058C352.529 347.861 352.079 346.396 360.531 335.664C374.221 318.281 385.341 292.157 389.556 267.463L391.071 258.593L364.061 255.588C349.206 253.938 327.544 252.728 315.92 252.9L294.785 253.218L311.035 255.335C319.972 256.5 334.597 259.13 343.534 261.178L359.784 264.903L341.659 263.49C320.514 261.843 320.849 261.07 332.114 285.452C336.834 295.664 342.049 309.397 343.701 315.964C346.884 328.599 349.821 328.731 351.916 316.334C352.614 312.209 352.644 317.647 351.986 328.414L350.789 347.996L361.579 358.786C395.245 392.453 434.672 369.073 438.312 313.282C439.41 296.439 440.957 289.087 444.054 285.992C448.039 282.005 448.077 282.475 444.662 293.814C439.432 311.194 440.157 322.349 447.474 337.029L453.914 349.953L446.927 362.791C423.687 405.492 378.761 412.527 345.984 378.6C339.824 372.223 337.224 368.475 340.207 370.27C349.934 376.123 354.576 369.438 348.751 357.963C346.204 352.941 341.082 337.659 337.372 323.999C322.594 269.592 306.017 252.973 273.033 259.493C258.576 262.353 258.138 261.665 270.425 255.398C289.775 245.525 299.652 244.46 354.221 246.36C400.388 247.97 405.805 248.595 402.99 251.99C394.358 262.39 430.64 244.26 446.564 230.216C480.044 200.689 484.111 148.407 455.722 112.493C447.977 102.696 446.677 99.7409 449.689 98.7959C462.112 94.8935 461.927 94.321 446.744 89.6961C434.342 85.9161 429.55 82.8887 422.995 74.6914C406.268 53.7718 403.9 51.9668 395.27 53.5568C388.518 54.8043 384.971 53.2968 372.333 43.8095C356.471 31.9072 346.316 29.6923 337.659 36.2521C333.372 39.5021 333.987 46.6494 338.324 43.9695C339.394 43.307 343.534 46.2394 347.526 50.4819L354.784 58.1942L346.659 54.0793C338.924 50.1594 338.534 50.1844 338.534 54.6243C338.534 57.1892 341.269 60.5317 344.611 62.0566C352.974 65.8666 361.286 77.7863 367.259 94.531C371.703 106.996 374.543 110.373 391.853 123.748C431.505 154.39 433.817 182.084 398.245 200.234C385.233 206.871 385.183 206.851 378.806 191.462C371.893 174.782 352.744 149.152 339.019 138.213C326.722 128.41 325.169 128.26 321.402 136.53C319.787 140.073 311.975 151.605 304.04 162.155C286.743 185.152 281.738 192.899 278.31 201.976C275.333 209.866 275.788 209.414 292.812 187.587C310.047 165.49 319.619 157.217 307.672 174.742C295.737 192.252 295.337 191.602 319.159 193.409C330.502 194.271 345.691 196.586 352.909 198.554C367.756 202.604 369.991 199.926 357.909 192.559C353.441 189.834 350.909 187.604 352.284 187.604C354.581 187.604 361.269 191.629 378.301 203.264C395.953 215.319 430.18 195.596 432.86 171.824C435.36 149.642 423.092 130.275 396.19 113.936C384.823 107.028 376.033 97.3259 376.033 91.681C376.033 91.311 381.386 96.1659 387.926 102.471C400.35 114.446 413.638 120.088 429.415 120.088C447.897 120.088 464.417 164.265 455.687 190.339C449.059 210.131 428.46 226.213 406.865 228.456C401.595 229.003 399.085 228.973 401.288 228.393C410.295 226.013 403.825 215.086 393.41 215.086C388.163 215.086 370.781 211.711 354.784 207.586C305.337 194.836 285.233 199.116 273.103 224.976C265.746 240.661 262.773 240.926 264.848 225.711C267.113 209.076 280.705 181.112 299.92 153.552C308.917 140.648 318.412 125.323 321.019 119.5C325.672 109.106 325.804 109.026 328.107 115.126C331.642 124.483 334.612 101.806 332.757 79.6513C330.089 47.8369 315.19 24.6049 287.998 9.86017C268.34 -0.797112 212.034 -3.59706 197.202 5.34526ZM176.037 23.5474C176.037 24.0749 173.787 25.0949 171.037 25.8149C168.287 26.5323 166.038 26.1024 166.038 24.8549C166.038 23.6099 168.287 22.5899 171.037 22.5899C173.787 22.5899 176.037 23.0224 176.037 23.5474ZM235.429 27.1398C234.399 31.0847 235.411 31.4972 243.058 30.2548C255.033 28.3073 256.696 22.5899 245.286 22.5899C239.009 22.5899 236.291 23.8449 235.429 27.1398ZM257.533 26.5948C256.853 28.3673 259.421 30.7798 263.496 32.2022C270.03 34.4797 273.535 32.4622 273.535 26.4198C273.535 23.8224 258.536 23.9874 257.533 26.5948ZM275.365 33.2272C273.175 38.9371 284.905 45.7145 288.818 40.9995C291.577 37.6746 291.343 36.4971 287.338 33.5697C281.43 29.2498 276.943 29.1198 275.365 33.2272ZM292.712 43.7145C284.778 49.7269 292.352 59.8042 302.017 56.0967C305.505 54.7568 305.52 53.8443 302.16 47.3469C297.827 38.9721 298.585 39.2621 292.712 43.7145ZM299.522 61.6241C294.08 63.8691 298.707 75.0889 305.077 75.0889C311.457 75.0889 311.785 74.3914 309.46 65.7141C308.007 60.2917 305.375 59.2092 299.522 61.6241ZM405.02 70.444C409.765 75.7789 409.763 75.7839 404.158 72.3414C401.063 70.4415 398.533 68.0315 398.533 66.9865C398.533 63.9741 399.925 64.7141 405.02 70.444ZM226.036 79.2413C195.879 83.9312 169.19 94.3135 174.26 99.3809C177.352 102.476 179.015 102.456 186.712 99.2384C204.254 91.911 233.146 87.0411 253.588 87.9686C270.713 88.7486 273.535 88.3011 273.535 84.8087C273.535 78.7463 248.266 75.7839 226.036 79.2413ZM298.535 87.5886C298.535 101.118 310.752 95.606 311 81.9637C311.02 80.9312 308.222 80.0888 304.785 80.0888C299.507 80.0888 298.535 81.2562 298.535 87.5886ZM92.0215 104.043C92.8565 106.218 93.539 109.031 93.539 110.293C93.539 111.556 96.3514 112.588 99.7889 112.588C104.789 112.588 106.039 111.338 106.039 106.338C106.039 101.013 104.889 100.088 98.2714 100.088C92.2165 100.088 90.839 100.961 92.0215 104.043ZM78.3243 107.303C71.2944 113.046 74.0944 118.283 82.9567 115.966C88.7766 114.443 89.8941 111.096 86.4116 105.606C84.8067 103.073 83.0492 103.443 78.3243 107.303ZM111.879 106.506C110.104 111.133 112.899 114.348 119.698 115.503C122.906 116.048 124.941 114.711 125.568 111.638C127.203 103.643 114.766 98.9809 111.879 106.506ZM340.064 111.511C339.087 114.058 341.404 117.748 346.671 122.038C366.844 138.468 389.296 167.797 394.675 184.752C396.525 190.579 398.025 191.124 403.2 187.844C409.645 183.762 389.926 151.372 366.898 128.213C345.626 106.818 342.589 104.928 340.064 111.511ZM129.486 114.501C125.906 120.233 135.966 129.16 140.686 124.44C144.673 120.453 144.248 117.428 139.163 113.568C133.433 109.218 132.743 109.286 129.486 114.501ZM62.2271 120.155C55.3923 127.71 61.4921 133.248 68.7045 126.035C73.0169 121.723 73.2669 120.473 70.3045 118.016C67.5545 115.733 65.812 116.196 62.2271 120.155ZM432.952 127.155C429.002 128.72 429.13 129.505 434.415 136.133C441.984 145.625 447.639 142.95 442.209 132.445C440.117 128.398 438.152 125.168 437.842 125.263C437.535 125.36 435.335 126.21 432.952 127.155ZM49.9149 136.498C46.0974 142.323 46.0049 143.622 49.1724 146.79C52.3398 149.957 53.2048 149.43 56.0297 142.613C60.4622 131.91 55.9047 127.355 49.9149 136.498ZM164.788 137.588C165.638 138.963 165.77 140.088 165.083 140.088C164.395 140.088 163.138 138.963 162.288 137.588C161.438 136.213 161.305 135.088 161.993 135.088C162.68 135.088 163.938 136.213 164.788 137.588ZM103.089 156.985C91.329 175.327 84.0017 194.076 79.5643 217.181C75.4369 238.656 75.5243 237.596 77.9143 237.548C83.2067 237.438 86.0666 232.136 89.3816 216.284C93.6265 195.969 102.476 174.917 113.504 158.887C121.003 147.987 121.591 142.563 115.266 142.61C113.629 142.623 108.149 149.09 103.089 156.985ZM442.549 147.152C440.002 151.277 444.187 160.087 448.694 160.087C452.694 160.087 452.942 159.142 450.657 152.587C448.074 145.177 445.032 143.138 442.549 147.152ZM131.798 163.212C118.051 182.457 108.331 206.184 104.799 229.121L103.214 239.408L122.751 240.993C164.578 244.39 198.342 245.1 184.787 242.298C177.912 240.878 164.975 238.178 156.038 236.303L139.788 232.893L154.125 233.193C172.685 233.583 172.52 233.998 162.478 212.264C157.748 202.026 152.543 188.347 150.91 181.869C147.335 167.672 144.21 166.752 142.743 179.462C142.148 184.619 141.998 180.679 142.408 170.712C143.273 149.665 142.076 148.82 131.798 163.212ZM321.034 156.19C321.034 156.797 319.734 158.095 318.147 159.075C316.359 160.182 315.939 159.762 317.047 157.975C318.827 155.092 321.034 154.105 321.034 156.19ZM443.532 172.294C443.532 177.402 444.989 179.884 448.532 180.812C452.809 181.929 453.532 180.887 453.532 173.602C453.532 166.755 452.554 165.087 448.532 165.087C444.687 165.087 443.532 166.755 443.532 172.294ZM439.08 188.632C437.167 192.834 437.207 195.261 439.225 197.279C443.207 201.261 447.739 200.756 449.514 196.131C453.394 186.022 443.507 178.917 439.08 188.632ZM15.0106 206.949C12.3231 209.636 10.8956 205.871 12.7831 201.069C14.5531 196.564 14.6881 196.556 15.5631 200.906C16.068 203.421 15.8205 206.139 15.0106 206.949ZM427.23 202.644C419.93 210.711 428.437 218.793 436.13 211.099C441.087 206.144 441.097 205.919 436.527 201.784C432.107 197.786 431.582 197.834 427.23 202.644ZM411.548 212.704C406.713 214.644 406.24 215.801 408.528 220.078C410.828 224.376 412.085 224.711 416.763 222.278C424.125 218.451 423.862 218.851 422.075 214.194C420.3 209.574 419.597 209.474 411.548 212.704ZM391.658 231.741C389.941 232.436 387.128 232.436 385.408 231.741C383.691 231.048 385.096 230.481 388.533 230.481C391.97 230.481 393.378 231.048 391.658 231.741ZM407.428 265.71C406.77 268.802 405.038 277.522 403.58 285.085C400.6 300.554 391.98 320.454 380.468 338.436C374.121 348.351 373.358 350.946 376.253 352.798C386.503 359.368 416.033 296.649 416.033 268.31C416.033 258.705 409.353 256.685 407.428 265.71ZM74.9169 275.932C71.7219 278.27 71.0119 280.44 72.5644 283.127C75.7068 288.565 86.0391 284.377 86.0391 277.665C86.0391 271.812 81.5167 271.107 74.9169 275.932ZM57.1422 286.182C52.5523 289.585 52.5223 290.015 56.5872 294.139C60.6746 298.287 61.1321 298.274 65.952 293.912C74.3844 286.285 66.4245 279.3 57.1422 286.182ZM207.879 301.022C202.707 308.069 193.352 319.459 187.095 326.334L175.712 338.834L185.875 323.346C198.224 304.524 198.199 305.104 186.662 304.997C177.472 304.912 147.118 299.989 132.288 296.182C122.461 293.657 127.303 300.432 138.701 305.152C142.825 306.859 145.705 308.752 145.1 309.354C143.48 310.974 128.396 302.804 119.883 295.697C109.766 287.25 109.249 291.882 118.218 310.609C131.446 338.229 164.653 372.473 169.745 363.746C171.145 361.351 179.845 349.141 189.085 336.611C205.264 314.669 219.971 290.575 218.159 288.98C217.679 288.557 213.054 293.977 207.879 301.022ZM480.186 295.709C479.494 297.429 478.926 296.022 478.926 292.585C478.926 289.147 479.494 287.742 480.186 289.46C480.881 291.18 480.881 293.992 480.186 295.709ZM277.385 318.834C290.173 350.556 291.527 357.596 280.875 336.959C271.883 319.536 271.935 319.541 261.036 335.619C256.223 342.719 246.828 354.501 240.161 361.806C228.389 374.693 228.111 378.148 239.326 372.173C244.256 369.545 244.453 369.665 241.363 373.413C239.484 375.693 233.564 378.873 228.209 380.475C212.327 385.235 211.647 389.103 226.571 389.785C233.674 390.108 240.264 390.855 241.216 391.445C247.748 395.48 313.04 380.42 310.43 375.478C309.952 374.573 305.85 365.958 301.317 356.333C272.073 294.259 259.608 274.727 277.385 318.834ZM44.9225 302.327C40.3751 311.122 49.1049 316.042 55.1473 308.089C59.4522 302.422 59.3547 301.797 53.5973 298.199C49.2424 295.479 48.2099 295.972 44.9225 302.327ZM91.2065 308.632C84.7292 316.437 114.264 360.658 139.026 380.233C161.935 398.342 159.03 386.223 134.596 361.758C119.998 347.141 111.606 336.179 105.086 323.209C95.0615 303.262 95.3815 303.602 91.2065 308.632ZM41.04 322.584C41.04 328.731 41.9975 330.266 45.415 329.609C48.1749 329.076 49.7899 326.484 49.7899 322.584C49.7899 318.684 48.1749 316.092 45.415 315.559C41.9975 314.902 41.04 316.437 41.04 322.584ZM41.04 336.171C41.04 341.256 46.7224 350.083 49.9949 350.083C52.6873 350.083 53.5598 348.738 52.5573 346.128C51.7223 343.953 51.0398 340.579 51.0398 338.629C51.0398 336.679 48.7899 335.084 46.0399 335.084C43.29 335.084 41.04 335.574 41.04 336.171ZM437.815 353.771C432.005 365.956 437.68 370.023 444.969 358.898C448.507 353.498 448.562 352.256 445.397 349.091C442.234 345.928 441.272 346.521 437.815 353.771ZM48.5399 357.026C48.5399 361.013 56.4522 370.083 59.9322 370.083C64.9621 370.083 64.4371 364.171 58.9672 359.221C54.1823 354.888 48.5399 353.703 48.5399 357.026ZM334.784 362.583C335.634 363.958 335.767 365.083 335.079 365.083C334.392 365.083 333.134 363.958 332.284 362.583C331.434 361.208 331.302 360.083 331.989 360.083C332.677 360.083 333.934 361.208 334.784 362.583ZM251.036 366.186C251.036 366.793 249.736 368.091 248.148 369.07C246.361 370.178 245.941 369.758 247.048 367.97C248.828 365.088 251.036 364.101 251.036 366.186ZM426.312 371.035C422.327 375.278 421.525 377.593 423.597 378.873C427.725 381.423 437.88 370.93 434.527 367.578C432.78 365.831 430.17 366.928 426.312 371.035ZM351.859 374.04C350.979 376.333 352.484 380.145 355.436 383.095L360.531 388.193L363.481 382.683C365.941 378.085 365.671 376.6 361.856 373.708C355.864 369.165 353.701 369.238 351.859 374.04ZM411.658 380.793C405.65 383.52 403.84 392.583 409.305 392.583C415.608 392.583 421.87 386.128 419.507 382.065C417.785 379.103 416.013 378.818 411.658 380.793ZM190.205 384.25C189.287 385.165 188.537 384.415 188.537 382.583C188.537 380.75 189.287 380 190.205 380.915C191.12 381.833 191.12 383.333 190.205 384.25ZM368.343 385.435C366.256 389.338 366.976 390.565 372.601 392.703C379.461 395.312 383.401 392.888 383.496 386C383.566 380.773 371.088 380.308 368.343 385.435ZM387.468 389.25C385.226 395.097 389.541 398.5 396.868 396.66C401.56 395.482 402.75 393.885 401.76 390.093C400.14 383.903 389.756 383.29 387.468 389.25ZM299.26 400.08C280.613 406.71 250.716 410.715 234.754 408.72C221.914 407.115 221.036 407.345 221.036 412.295C221.036 423.274 277.223 419.367 312.927 405.902C333.907 397.992 320.817 392.415 299.26 400.08ZM185.055 406.537C182.08 414.29 183.49 417.582 189.787 417.582C195.064 417.582 196.037 416.415 196.037 410.082C196.037 401.772 187.892 399.142 185.055 406.537ZM187.697 421.997C184.095 422.809 183.467 424.459 184.775 429.677C186.85 437.942 186.49 437.649 192.637 436.042C201.794 433.647 196.959 419.907 187.697 421.997ZM94.944 429.509C94.1065 430.349 91.479 429.002 89.1041 426.517C84.9792 422.197 85.0467 422.129 90.629 424.992C93.839 426.639 95.7814 428.672 94.944 429.509ZM189.947 442.322C189.187 443.554 190.68 447.171 193.264 450.364C199.242 457.749 207.807 453.061 203.397 444.819C200.779 439.929 192.389 438.369 189.947 442.322ZM206.662 454.436C201.864 456.066 202.952 462.091 208.589 465.109C214.074 468.044 218.536 466.554 218.536 461.786C218.536 457.909 210.704 453.061 206.662 454.436ZM222.391 464.911C221.484 466.379 221.436 468.706 222.286 470.081C224.674 473.943 235.326 473.033 236.941 468.831C237.794 466.609 236.966 465.081 234.911 465.081C233.006 465.081 229.779 464.441 227.744 463.661C225.709 462.879 223.299 463.441 222.391 464.911ZM246.661 466.846C237.514 468.606 239.741 475.081 249.493 475.081C255.851 475.081 258.278 473.838 259.261 470.081C260.611 464.914 258.931 464.481 246.661 466.846ZM327.284 472.581C326.434 473.956 323.837 475.063 321.512 475.043C317.869 475.008 317.802 474.668 321.034 472.581C325.929 469.416 329.239 469.416 327.284 472.581Z" fill="#000000"/>
</svg>
