<svg xmlns="http://www.w3.org/2000/svg" width="200" height="200" fill="#000000"><path fill-opacity=".082" fill-rule="evenodd" d="M96.885 5c-3.359 3.531-4.342 4-8.387 4-10.514 0-28.455 5.429-40.344 12.208C16.357 39.339-3.059 77.16 1.005 113.049c1.464 12.929 3.382 19.834 8.554 30.803 5.644 11.967 11.337 19.898 20.568 28.652 12.55 11.902 25.187 18.941 42.465 23.654 6.393 1.744 10.781 2.167 22.908 2.213 18.064.068 26.573-1.827 42-9.349 28.748-14.019 48.397-41.511 52.562-73.54 1.095-8.424 1.362-9.107 4.303-11.002 6.151-3.962 6.786-13.171 1.266-18.357-7.842-7.367-20.645-1.722-20.627 9.095.005 3.211 3.524 8.61 6.494 9.963 2.964 1.35 3.041 2.468.982 14.271-4.745 27.21-22.685 51.007-48.173 63.897-2.855 1.445-9.155 3.84-14 5.322-7.885 2.414-10.43 2.703-24.307 2.762-13.299.058-16.636-.259-23.5-2.227-30.687-8.798-54.44-32.964-62.617-63.706-3.067-11.528-3.121-30.732-.121-42.709 3.931-15.697 11.068-28.49 22.673-40.641 7.165-7.502 21.008-17.043 29.22-20.139C74.896 17.02 94 13.798 94 16.556c0 .777 1.252 2.814 2.782 4.527 2.129 2.382 3.832 3.218 7.25 3.557 5.406.536 8.611-.987 11.688-5.552C121.232 10.908 115.328 1 104.941 1c-3.658 0-4.781.558-8.056 4m6.358 3.106c-1.201.444-2.475 1.97-2.832 3.391-1.426 5.684 7.364 9.286 9.771 4.003 2.223-4.879-1.891-9.262-6.939-7.394m-17.05 20.966c-19.387 2.517-38.535 13.35-49.707 28.119C30.72 64.815 24.654 77.166 22.338 86c-2.323 8.86-2.287 27.244.07 35.942 9.223 34.03 39.041 57.08 73.8 57.051 8.811-.007 21.148-2.497 28.943-5.842 24.624-10.564 43.022-35.913 45.441-62.609l.684-7.542H144v3.79c0 5.496-2.701 15.02-5.732 20.21-3.524 6.035-12.771 15.623-18.054 18.72-7.036 4.124-15.519 6.28-24.714 6.28-14.436 0-24.817-4.406-34.634-14.7-14.893-15.617-18.084-37.959-8.101-56.725 5.928-11.143 20.807-22.364 32.037-24.159L89 55.744v6.628c0 4.635-.376 6.628-1.25 6.629-3.033.002-13.617 6.148-17.449 10.133-2.31 2.401-5.46 7.066-7 10.366-2.379 5.097-2.801 7.283-2.801 14.521 0 7.612.351 9.233 3.287 15.197 3.662 7.439 9.562 13.29 16.997 16.855 7.074 3.392 19.818 3.834 27.463.952 7.573-2.855 15.513-10.163 19.216-17.688 3.546-7.205 4.496-18.215 2.207-25.588-.811-2.613-1.081-4.995-.6-5.292.481-.298 1.397-2.282 2.034-4.411C133.369 76.487 126.727 68 118.546 68c-2.005 0-4.86.619-6.346 1.376-2.318 1.182-3.655 1.154-9.45-.2L96 67.599V47.812l-5.25.639C62.851 51.846 42.396 72.963 40.333 100.5c-1.921 25.626 16.052 50.196 41.712 57.025 7.068 1.88 20.003 1.874 27.252-.014 20.846-5.43 36.118-22.048 41.134-44.761.587-2.657.828-2.75 7.133-2.75h6.527l-.627 3.75c-2.738 16.371-11.535 32.305-23.177 41.98-12.698 10.552-24.718 15.261-40.89 16.017-13.728.642-23.145-1.226-34.184-6.781-22.263-11.202-36.293-32.293-37.919-57.001-2.395-36.387 25.131-68.562 61.956-72.417l6.75-.707V31.42c0-3.806.502-3.686-9.807-2.348m.51 47.37c-8.903 3.176-15.807 10.283-18.8 19.353-1.621 4.912-.636 15.866 1.862 20.705 9.065 17.558 32.725 21.301 46.289 7.325 5.188-5.346 7.282-10.22 7.76-18.061.629-10.332.011-11.763-5.083-11.768-2.374-.002-5.583-.828-7.311-1.882-3.745-2.283-6.674-8.089-6.24-12.367.268-2.642-.086-3.268-2.18-3.851-4.166-1.161-12.273-.889-16.297.546m26.996.338c-3.997 4.417-.64 10.627 5.426 10.04 4.698-.454 7.048-4.612 4.844-8.57-1.962-3.523-7.672-4.34-10.27-1.47m70.524 13.777c-2.696 1.888-2.881 5.538-.394 7.788 2.399 2.171 5.458 2.1 7.516-.174 2.199-2.43 2.088-4.738-.345-7.171-2.407-2.407-3.84-2.501-6.777-.443"/><path fill-opacity=".124" fill-rule="evenodd" d="M99.314 2.892c-1.753 1.1-3.681 2.925-4.285 4.054-.84 1.569-2.094 2.057-5.314 2.067-7.075.022-22.185 3.62-30.743 7.32-12.129 5.244-18.38 9.329-27.705 18.105C17.759 47.151 9.585 60.311 4.389 77.712.83 89.629-.046 109.731 2.455 122.074c5.967 29.447 24.211 53.197 51.045 66.448 15.106 7.46 25.284 9.846 42 9.846 9.981 0 15.038-.504 21.774-2.171 28.353-7.015 50.961-25.101 63.374-50.697 5.295-10.916 8.179-20.589 9.015-30.233.594-6.851.857-7.465 4.982-11.649C198.541 99.666 199 98.705 199 94.5c0-4.012-.498-5.198-3.4-8.1-2.864-2.864-4.112-3.4-7.923-3.4-5.592 0-10.123 3.419-11.757 8.872-1.452 4.846.736 10.456 5.032 12.901 3.64 2.071 3.904 5.104 1.481 17.019-3.128 15.383-10.936 30.215-22.301 42.363-17.161 18.343-38.929 27.822-63.924 27.838-24.019.015-43.578-7.487-60.764-23.307-41.046-37.784-36.761-104.529 8.799-137.04 12.303-8.779 27.478-14.496 42.845-16.139l6.587-.705 1.333 3.217c.733 1.77 2.718 4.063 4.412 5.096 12.002 7.318 24.415-9.406 14.144-19.055-3.44-3.232-10.096-3.778-14.25-1.168m2.909 5.665c-3.188 2.232-2.987 6.897.392 9.11 2.342 1.535 2.891 1.56 5.25.242 3.624-2.024 4.151-7.084.969-9.313-2.84-1.989-3.82-1.995-6.611-.039M77.5 30.951c-25.188 6.626-44.346 24.352-53.151 49.178-3.755 10.588-4.471 29.998-1.535 41.609 13.982 55.29 80.971 75.611 123.303 37.404 14.173-12.792 23.131-31.263 24.075-49.642l.308-6h-26l-.684 6.925c-2.537 25.674-29.732 45.975-55.717 41.592-8.242-1.391-18.606-6.192-24.789-11.483-5.903-5.053-11.975-14.621-14.449-22.767-1.743-5.737-2.035-8.711-1.647-16.774.418-8.663.894-10.687 4.101-17.442 6.372-13.417 18.138-23.378 31.797-26.918 2.964-.768 5.726-1.198 6.138-.956.412.243.75 3.268.75 6.724v6.282l-4.25 1.245c-18.128 5.31-28.916 23.968-24.347 42.108 6.583 26.138 38.354 35.633 58.457 17.471 8.918-8.057 13.271-23.618 9.765-34.911-1.332-4.292-1.341-5.163-.074-6.973 2.206-3.149 1.855-10.837-.639-14.008-4.202-5.341-10.441-6.944-15.947-4.097-2.28 1.179-3.887 1.304-7.2.558a613 613 0 0 0-7.015-1.537L96 67.962V49h-4.818C70.133 49 47.49 68.308 41.929 91c-4.408 17.985 1.243 37.96 14.547 51.419 22.259 22.519 58.973 21.715 80.156-1.758 5.581-6.184 12.099-19.151 12.985-25.834l.641-4.827h13.969l-.69 4.75c-.989 6.808-4.862 17.509-8.716 24.085-4.683 7.988-17.005 20.104-24.921 24.502-22.175 12.321-48.305 12.127-69.684-.516-7.743-4.579-19.148-16.038-23.613-23.725-8.699-14.974-11.706-33.312-8.153-49.731 6.2-28.658 31.567-51.308 60.472-53.994 6.965-.648 7.078-.704 7.078-3.515 0-2.817-.079-2.855-5.75-2.801-3.162.03-8.9.884-12.75 1.896m37.728 44.279c-4.662 2.247-4.14 9.735.823 11.791 2.711 1.123 3.395 1.038 5.763-.722 3.844-2.858 4.116-7.422.606-10.183-2.998-2.358-3.905-2.47-7.192-.886m-29.904 1.408c-5.805 2.056-12.672 8.414-15.74 14.569-2.883 5.786-3.498 15.012-1.454 21.831 2.935 9.797 13.577 18.329 24.453 19.605 18.625 2.184 35.249-15.722 31.466-33.893l-1.093-5.25-4.919-.006c-4.074-.005-5.444-.51-7.984-2.943-3.354-3.214-5.089-7.913-4.349-11.784.409-2.137.028-2.571-2.74-3.124-5.21-1.042-13.157-.594-17.64.995m98.331 14.191c-1.936 2.139-2.171 6.255-.455 7.971 1.699 1.699 6.369 1.488 8.229-.371 2.107-2.108 1.987-5.743-.258-7.774-2.399-2.171-5.458-2.1-7.516.174"/><path fill-opacity=".108" fill-rule="evenodd" d="M100.251 2.491c-1.787.776-3.736 2.48-4.331 3.786-.975 2.139-2.088 2.492-11.211 3.563C50.27 13.88 19.357 37.545 7.591 68.876 2.401 82.696 1.57 87.573 1.605 104c.041 18.631 1.74 26.167 9.408 41.723 6.127 12.43 14.585 23.183 24.527 31.18 18.371 14.779 37.034 21.274 60.96 21.215 44.414-.111 82.667-31.261 91.612-74.6 1.024-4.96 1.868-10.9 1.875-13.201.01-3.177.456-4.323 1.855-4.767 5.684-1.804 8.758-10.555 5.751-16.37C192.102 78.561 176 82.655 176 94.671c0 4.137.448 5.064 4.139 8.576l4.139 3.937-.62 7.338c-1.784 21.102-14.197 43.536-32.158 58.121-16.264 13.207-34.85 19.739-56 19.681-26.346-.072-46.971-9.131-65.026-28.561C14.931 147.036 7 126.844 7 104c0-38.04 23.949-71.914 59.509-84.171 10.573-3.645 26.611-5.97 27.282-3.956.242.726 1.741 2.803 3.332 4.614 9.313 10.607 24.859-.953 18.311-13.615-1.543-2.983-6.637-5.91-10.152-5.833-.98.022-3.244.675-5.031 1.452m1.404 6.338C98.204 12.642 100.962 19 106.068 19c2.338 0 4.932-3.246 4.932-6.174 0-5.023-6.068-7.619-9.345-3.997m-19.58 21.258C52.879 35.815 29.771 57.9 22.893 86.648c-2.736 11.436-2.261 28.145 1.104 38.852 10.952 34.845 44.815 56.935 80.485 52.502 19.771-2.457 37.352-12.187 49.355-27.315C163.212 138.87 170 121.506 170 109.34V104h-24.812l-.715 5.194c-2.182 15.866-10.806 28.789-24.816 37.186-6.275 3.761-16.709 6.62-24.157 6.62-26.635 0-48.726-22.22-48.716-49 .009-22.349 13.983-41.197 35.148-47.407C90.155 54.181 90 54.077 90 61.981c0 6.792-.074 6.998-2.75 7.627-4.867 1.145-14.234 6.61-17.287 10.087-4.352 4.957-8.085 12.932-8.915 19.047-2.138 15.757 5.812 30.124 20.452 36.957 5.135 2.397 7.226 2.794 14.5 2.754 7.181-.039 9.39-.476 14.238-2.817 15.18-7.328 23.085-23.217 19.501-39.195-1.341-5.977-1.36-7.273-.144-9.624 3.401-6.578.081-15.025-6.96-17.705-3.434-1.307-4.369-1.281-8.984.254-4.045 1.345-5.901 1.489-8.644.673-1.922-.571-4.734-1.039-6.25-1.039H96V49h-3.79c-11.303 0-25.897 6.604-35.151 15.907C45.978 76.045 41 88.31 41 104.468c0 15.555 5.977 28.771 18.065 39.942 7.303 6.749 15.546 10.977 25.523 13.091 8.698 1.843 13.115 1.842 21.912-.005 20.978-4.405 37.149-19.921 42.416-40.698l1.85-7.298 6.617-.296 6.617-.295v2.835c0 4.372-2.769 14.093-5.976 20.986-14.279 30.679-47.377 46.15-80.524 37.638-10.96-2.814-21.145-8.936-30.5-18.331-14.098-14.159-20-28.467-20-48.487 0-15.94 4.517-29.184 14.415-42.266C52.565 46.547 74.42 35 91.16 35c4.711 0 4.84-.08 4.84-3 0-2.928-.115-2.997-4.75-2.89-2.612.06-6.741.5-9.175.977m8.845 44.935c-19.074 3.181-30.004 24.023-21.602 41.195 6.456 13.196 21.871 19.87 35.465 15.355 13.708-4.553 22.908-20.93 19.286-34.331-1.029-3.807-1.406-4.195-3.557-3.655-3.273.822-8.726-1.12-11.532-4.107-1.657-1.764-2.443-4.022-2.769-7.949-.449-5.417-.5-5.493-4.083-6.095A360 360 0 0 1 97 74.542c-.825-.156-3.561.06-6.08.48M114 76c-4.053 4.053-1.198 12 4.311 12 3.315 0 6.689-3.531 6.689-7 0-5.889-6.951-9.049-11-5m70.185 13.684c-2.421.968-3.389 5.355-1.738 7.875 3.311 5.054 10.553 3.331 10.553-2.511 0-4.775-4.081-7.258-8.815-5.364"/><path fill-opacity=".164" fill-rule="evenodd" d="M101.415 2.409c-1.696.746-3.998 2.517-5.115 3.936-1.772 2.253-3.222 2.726-11.415 3.718C38.962 15.626 4.903 51.497 1.393 97.996c-1.614 21.379 5.722 45.654 18.988 62.828 12.689 16.427 29.322 27.817 49.331 33.783 11.851 3.533 31.142 4.414 43.192 1.973 41.916-8.494 72.554-41.867 76.657-83.498.649-6.588.941-7.29 3.61-8.671 6.302-3.258 7.445-12.523 2.193-17.775C187.934 79.206 176 84.7 176 95.55c0 2.787.769 4.416 3.25 6.889 1.787 1.782 3.848 3.436 4.578 3.676 1.085.357 1.12 1.96.191 8.749-5.116 37.36-31.111 66.299-68.019 75.721-10.703 2.733-31.405 2.521-42.5-.434-29.978-7.985-53.575-30.419-62.807-59.71-13.162-41.763 6.47-87.4 45.807-106.481 11.297-5.48 19.701-7.898 30.221-8.696 7.011-.532 7.248-.475 8.175 1.963C96.464 21.35 100.704 24 105.735 24c8.79 0 14.122-9.355 9.649-16.928-2.931-4.961-8.817-6.926-13.969-4.663m.377 5.841c-4.153 3.264-1.52 10.75 3.781 10.75 2.94 0 6.427-3.255 6.427-6 0-4.579-6.549-7.626-10.208-4.75M81.634 30.6c-29.621 5.351-53.482 29.195-59.218 59.175-7.031 36.747 14.524 73.28 50.084 84.887 10.78 3.519 27.818 4.337 39.161 1.881 30.976-6.708 55.385-34.13 58.009-65.169l.623-7.374h-24.85l-1.09 6.92c-1.556 9.879-6.162 19.013-13.38 26.53-20.04 20.869-50.906 20.869-70.946 0-18.628-19.4-18.237-49.4.893-68.53 6.468-6.468 17.257-12.341 24.83-13.516l4.25-.66v7.16c0 4.869-.4 7.273-1.25 7.517C77.593 72.62 68.835 79.564 64.294 88.81 61.83 93.827 61.5 95.623 61.501 104c.001 8.521.303 10.097 2.932 15.29 8.95 17.681 30.434 24.438 47.745 15.017 6.624-3.606 13.225-11.096 15.768-17.893 2.287-6.112 2.73-16.439.977-22.753-.853-3.07-.751-4.503.505-7.151 1.97-4.151 1.984-6.84.056-10.903-2.798-5.896-11.454-8.492-17.374-5.212-1.988 1.103-3.149 1.097-6.909-.035-2.485-.748-5.572-1.36-6.86-1.36-2.209 0-2.349-.38-2.486-6.75-.08-3.712-.045-8.212.078-10 .203-2.957-.032-3.248-2.605-3.233-11.544.071-27.189 7.004-36.248 16.063-21.339 21.339-21.412 55.765-.164 77.035 21.245 21.268 54.316 21.781 76.153 1.181 7.925-7.476 14.043-18.295 16.016-28.321L150.26 109h14.55l-.537 4.25c-2.195 17.394-13.357 36-27.764 46.281-18.423 13.147-40.937 16.81-62.009 10.091-31.673-10.1-51.972-41.958-47.508-74.56 2.228-16.275 8.193-28.196 20.034-40.036 12.139-12.14 25.858-18.727 41.189-19.778C95.987 34.715 96 34.71 96 31.857c0-2.575-.321-2.848-3.25-2.767-1.787.049-6.79.729-11.116 1.51m6.158 44.802c-9.558 2.573-17.444 10.32-20.302 19.943-3.078 10.364-1.01 19.636 6.157 27.608 6.275 6.979 11.051 9.271 20.496 9.835 6.612.395 8.377.121 13.086-2.036 6.367-2.914 11.89-8.105 14.897-13.999 2.443-4.789 3.52-14.59 2.17-19.753-.861-3.292-1.208-3.532-5.856-4.038-2.717-.296-5.948-1.097-7.18-1.78-3.248-1.8-5.506-6.8-5.082-11.251.356-3.731.277-3.831-3.85-4.87-5.303-1.335-8.595-1.258-14.536.341m25.663 1.053c-2.999 2.998-3.104 5.45-.382 8.91 4.034 5.129 12.26 2.2 12.26-4.365 0-6.415-7.238-9.185-11.878-4.545m69.102 14.768c-2.15 3.068-1.952 5.058.757 7.603 2.82 2.648 4.765 2.74 7.7.364 2.479-2.007 2.967-6.303.989-8.687-1.944-2.342-7.604-1.911-9.446.72"/></svg>