<svg xmlns="http://www.w3.org/2000/svg" width="200" height="200" fill="#000000"><path fill-opacity=".322" fill-rule="evenodd" d="M79 1.901C60.642 5.955 45.092 14.252 31.253 27.376c-9.564 9.07-16.267 18.275-21.775 29.903C1.968 73.133.621 79.63.621 100s1.347 26.867 8.857 42.721c5.508 11.628 12.211 20.833 21.775 29.903 8.723 8.272 16.044 13.239 27.272 18.501 14.773 6.923 21.464 8.254 41.475 8.254s26.702-1.331 41.475-8.254c11.228-5.262 18.549-10.229 27.272-18.501 9.564-9.07 16.267-18.275 21.775-29.903 4.322-9.122 8.478-22.518 8.478-27.322 0-1.255.45-2.559 1-2.899.584-.361 1-6.03 1-13.618 0-8.412-.353-12.782-1-12.382-.561.346-1-.436-1-1.781 0-5.192-4.276-18.712-8.926-28.219-10.551-21.576-26.624-37.327-48.599-47.625C128.147 2.629 119.816.816 102.5.391 90.495.097 85.803.398 79 1.901M.392 100c0 7.425.157 10.463.35 6.75s.192-9.787 0-13.5c-.193-3.713-.35-.675-.35 6.75"/><path fill-opacity=".341" fill-rule="evenodd" d="M82.334 1.414C43.882 8.747 13.454 36.976 3.242 74.792.935 83.335.623 86.36.646 100c.023 13.508.362 16.759 2.644 25.297 9.569 35.803 36.902 62.431 74.21 72.297 9.917 2.622 35.083 2.622 45 0 39.398-10.418 68.041-39.841 75.05-77.094.932-4.95 2.089-9.781 2.572-10.736 1.249-2.471 1.13-22.702-.122-20.764-.74 1.145-.973.762-.985-1.622-.03-6.122-4.999-22.624-9.612-31.917-12.824-25.838-36.696-45.072-65.324-52.632-9.884-2.61-31.614-3.346-41.745-1.415M52.999 52.501 6.509 98.999l13.737 13.738 13.738 13.738 9.001-8.96 9.002-8.96-4.721-4.793-4.721-4.793 27.971-27.985C85.9 55.593 98.949 43 99.514 43 100.849 43 118 60.221 118 61.562c0 .562-2.017 3.001-4.482 5.421l-4.483 4.399-2.267-2.131-2.268-2.13V94h13.405c12.923 0 13.345-.066 11.75-1.829-.91-1.006-1.655-2.237-1.655-2.737 0-.499 6.074-6.993 13.497-14.431l13.497-13.523-27.752-27.739L99.489 6.003zM.374 99.5c.002 6.05.167 8.396.366 5.213.199-3.182.197-8.132-.004-11C.535 90.846.372 93.45.374 99.5"/><path fill-opacity=".456" fill-rule="evenodd" d="M87 .92C43.983 7.166 11.012 38.369 1.854 81.5c-1.641 7.731-1.641 29.269 0 37 8.718 41.058 39.358 71.682 79.646 79.602 8.99 1.767 28.01 1.767 37 0 40.655-7.992 73.575-41.379 79.497-80.625.662-4.387 1.609-8.758 2.103-9.713 1.262-2.436 1.172-17.05-.1-16.264-.582.359-1-.634-1-2.376 0-8.378-4.775-24.041-10.943-35.898-12.846-24.691-36.593-43.102-64.823-50.258C114.534.763 95.494-.313 87 .92M52 52.5 5.508 99l14.222 14.221 14.221 14.221 9.005-8.971c4.953-4.934 9.014-9.404 9.025-9.933.01-.529-1.883-2.9-4.207-5.268l-4.225-4.305 27.963-27.977 27.963-27.976 9.255 9.217 9.255 9.217-4.662 4.734c-4.562 4.631-4.7 4.692-6.36 2.777-.934-1.076-1.982-1.957-2.33-1.957S104 73.075 104 80.5V94h28.222l-2.361-1.946-2.361-1.945 13.75-13.817c7.563-7.6 13.75-14.265 13.75-14.812C155 60.179 100.791 6 99.489 6 98.941 6 77.571 26.925 52 52.5m103.732 28.266-8.725 8.767 4.698 4.698c2.584 2.585 4.478 4.827 4.208 4.984s-13.182 12.879-28.694 28.271l-28.205 27.986-9.007-8.965C85.053 141.576 81 137.064 81 136.479c0-.584 2.012-3.038 4.472-5.451 4.385-4.304 4.511-4.353 6.5-2.554C94 130.31 94 130.308 94 117.155V104H67.69l1.849 2.043c1.827 2.019 1.686 2.206-12.087 16.005l-13.936 13.963 27.995 27.996 27.995 27.995 46.488-46.496 46.488-46.496-13.477-13.505C171.592 78.077 165.287 72 164.993 72s-4.461 3.945-9.261 8.766M.349 100c0 4.675.173 6.587.383 4.25.211-2.338.211-6.163 0-8.5-.21-2.338-.383-.425-.383 4.25"/><path fill-opacity=".871" fill-rule="evenodd" d="M88.906.979C65.581 3.898 44.511 14.417 28.433 31.167 9.999 50.372.768 73.34.768 100c0 27.674 9.445 50.385 29.146 70.086S72.326 199.232 100 199.232c19.267 0 36.101-4.665 52.118-14.442 11.154-6.81 25.862-21.518 32.672-32.672 7.696-12.608 14.21-32.376 14.21-43.124 0-2.132.45-4.154 1-4.494s1-2.868 1-5.618c0-3.079-.384-4.763-1-4.382-.603.373-1-.968-1-3.376 0-10.865-6.476-30.572-14.21-43.242-6.81-11.154-21.518-25.862-32.672-32.672C133.777 4.014 109.081-1.546 88.906.979M52.499 52.001 5.508 99l14.238 14.238 14.239 14.238 9.5-9.461 9.5-9.461-4.72-4.793-4.72-4.792L71.51 70.99l27.965-27.978 9.266 9.228 9.266 9.227-4.471 4.471-4.472 4.471-2.532-2.379L104 65.651V95h14c7.7 0 14-.38 14-.845s-.919-1.677-2.043-2.694c-2.03-1.837-1.948-1.945 11.997-15.915l14.04-14.065-28.252-28.239L99.49 5.002zm102.734 28.265-9.227 9.266 4.737 4.737 4.737 4.737-27.977 27.991-27.978 27.991-9.266-9.228-9.266-9.227 4.461-4.46c4.246-4.246 4.55-4.379 6.332-2.767 1.029.932 2.174 1.694 2.543 1.694s.671-6.3.671-14v-14H81c-7.7 0-14 .38-14 .845s.919 1.677 2.043 2.694c2.03 1.837 1.948 1.945-11.997 15.915l-14.04 14.065 28.252 28.239 28.252 28.24 46.987-46.995 46.986-46.994-13.978-14.004C171.817 77.302 165.287 71 164.994 71c-.294 0-4.686 4.17-9.761 9.266M.3 100c0 3.025.187 4.263.416 2.75s.229-3.987 0-5.5S.3 96.975.3 100"/></svg>