<!-- Generated by IcoMoon.io -->
<svg version="1.1" xmlns="http://www.w3.org/2000/svg" width="32" height="32" viewBox="0 0 32 32" fill="#000000">
<title>icp</title>
<path d="M24.227 8.107c-1.788 0-3.738 0.953-5.796 2.831-0.975 0.885-1.828 1.838-2.451 2.6 0 0 1.002 1.13 2.099 2.341 0.596-0.735 1.449-1.729 2.438-2.627 1.828-1.674 3.020-2.014 3.711-2.014 2.573 0 4.658 2.11 4.658 4.723 0 2.586-2.085 4.696-4.658 4.723-0.122 0-0.271-0.014-0.447-0.055 0.745 0.34 1.557 0.585 2.316 0.585 4.713 0 5.633-3.185 5.687-3.416 0.135-0.585 0.217-1.198 0.217-1.824-0.014-4.342-3.494-7.867-7.773-7.867z"/>
<path d="M7.773 23.801c1.788 0 3.738-0.953 5.796-2.831 0.975-0.885 1.828-1.838 2.451-2.6 0 0-1.002-1.13-2.099-2.341-0.596 0.735-1.449 1.729-2.438 2.627-1.828 1.661-3.033 2.014-3.711 2.014-2.573 0-4.658-2.11-4.658-4.723 0-2.586 2.085-4.696 4.658-4.723 0.122 0 0.271 0.014 0.447 0.054-0.745-0.34-1.557-0.585-2.316-0.585-4.713 0-5.633 3.185-5.688 3.417-0.135 0.585-0.217 1.198-0.217 1.824 0 4.342 3.48 7.867 7.773 7.867z"/>
<path d="M11.356 13.32c-0.515-0.49-3.033-2.491-5.444-2.559-4.296-0.106-5.558 2.952-5.667 3.347 0.823-3.429 3.89-5.988 7.536-6.001 2.972 0 5.976 2.854 8.196 5.43 0.004-0.004 0.007-0.009 0.011-0.013 0 0 1.002 1.13 2.099 2.341 0 0 1.246 1.443 2.573 2.709 0.515 0.49 3.020 2.464 5.43 2.532 4.415 0.122 5.634-3.103 5.701-3.348-0.812 3.444-3.886 6.016-7.543 6.030-2.973 0-5.978-2.856-8.207-5.433-0.004 0.005-0.009 0.010-0.013 0.015 0 0-1.002-1.13-2.099-2.341 0 0-1.246-1.443-2.573-2.709zM0.238 14.137c0.001-0.007 0.003-0.017 0.007-0.029-0.002 0.010-0.005 0.019-0.007 0.029z"/>
</svg>
