<!-- Generated by IcoMoon.io -->
<svg version="1.1" xmlns="http://www.w3.org/2000/svg" width="32" height="32" viewBox="0 0 32 32" fill="#000000">
<title>icx</title>
<path d="M26.267 8.373l-3.467 3.467c0.747 1.227 1.173 2.64 1.173 4.187 0 4.427-3.573 8-8 8-0.001 0-0.002 0-0.003 0-1.547 0-2.992-0.437-4.218-1.193l0.035 0.020-3.467 3.467c2.133 1.573 4.773 2.533 7.627 2.533 7.067 0 12.8-5.733 12.8-12.8 0.053-2.907-0.88-5.547-2.48-7.68zM8 16c0-4.427 3.573-8 8-8 0.001 0 0.002 0 0.003 0 1.547 0 2.992 0.437 4.218 1.193l-0.035-0.020 3.467-3.467c-2.133-1.573-4.773-2.533-7.627-2.533-7.067 0-12.8 5.733-12.8 12.8 0 2.853 0.933 5.493 2.533 7.627l3.467-3.467c-0.8-1.173-1.227-2.613-1.227-4.133z"/>
<path d="M32 3.2c0 1.767-1.433 3.2-3.2 3.2s-3.2-1.433-3.2-3.2c0-1.767 1.433-3.2 3.2-3.2s3.2 1.433 3.2 3.2z"/>
<path d="M6.4 28.8c0 1.767-1.433 3.2-3.2 3.2s-3.2-1.433-3.2-3.2c0-1.767 1.433-3.2 3.2-3.2s3.2 1.433 3.2 3.2z"/>
</svg>
