<svg xmlns="http://www.w3.org/2000/svg" width="250" height="250" version="1.1" fill="#000000"><path fill-opacity=".09" d="M 111.500 5.156 C 96.985 6.780, 79.858 12.469, 66.719 20.031 C 27.666 42.509, 4.609 82.567, 5.058 127.153 C 5.176 138.824, 5.656 142.824, 8.120 152.647 C 19.551 198.211, 51.633 230.539, 97.907 243.119 C 107.578 245.748, 130.763 246.753, 143.290 245.085 C 175.537 240.792, 208.508 219.702, 226.578 191.808 C 235.619 177.850, 242.481 160.841, 245.058 146 C 246.756 136.221, 246.765 114.504, 245.075 105 C 242.440 90.183, 234.737 70.858, 226.694 58.886 C 215.124 41.664, 198.164 26.625, 180.039 17.513 C 166.967 10.942, 155.825 7.506, 141 5.477 C 129.394 3.888, 123.423 3.823, 111.500 5.156 M 105.500 12.523 C 98.900 13.810, 90.800 15.834, 87.500 17.022 C 51.613 29.941, 23.869 60.118, 14.890 96 C 3.987 139.571, 17.873 183.989, 51.393 212.768 C 71.834 230.318, 98.335 240.026, 125.758 240.008 C 145.248 239.996, 162.896 235.551, 179.937 226.362 C 209.332 210.511, 230.794 182.382, 237.438 151 C 242.820 125.577, 240.151 99.352, 229.929 77.223 C 215.177 45.287, 185.496 21.174, 151.500 13.506 C 133.790 9.511, 122.221 9.264, 105.500 12.523 M 116.500 30.183 C 95.257 32.559, 76.416 41.260, 60.720 55.943 C 51.754 64.330, 44.953 73.748, 39.518 85.300 C 34.676 95.592, 34.084 98.435, 36.582 99.393 C 39.387 100.470, 39.660 100.134, 43.498 90.874 C 53.568 66.578, 72.541 48.861, 97.500 40.446 C 105.057 37.898, 115.778 36.002, 122.643 36.001 C 127.335 36, 128.930 35.624, 129.396 34.410 C 130.814 30.716, 125.958 29.125, 116.500 30.183 M 148.503 34.991 C 147.577 37.908, 148.522 38.805, 154.301 40.491 C 174.296 46.327, 195.697 64.943, 205.648 85.158 C 211.797 97.650, 214.128 107.891, 214.482 123.979 C 214.720 134.747, 215.087 137.652, 216.306 138.421 C 217.356 139.083, 218.367 138.940, 219.546 137.962 C 221.066 136.700, 221.199 134.951, 220.718 122.520 C 219.928 102.067, 215.901 89.089, 205.494 73.448 C 194.038 56.231, 176.771 42.418, 158.547 35.892 C 148.960 32.458, 149.297 32.489, 148.503 34.991 M 148 78.638 C 143.210 80.280, 134.850 87.586, 132.371 92.297 C 130.772 95.338, 121 133.664, 121 136.898 C 121 139.213, 121.423 139.534, 125.684 140.447 C 128.381 141.025, 129.121 140.745, 130.515 138.617 C 131.421 137.235, 132.667 133.156, 133.284 129.552 C 133.901 125.949, 134.877 123.008, 135.453 123.017 C 136.029 123.027, 137.564 124.156, 138.865 125.527 L 141.229 128.020 139.365 133.736 C 137.887 138.266, 136.670 140.027, 133.500 142.224 C 127.932 146.084, 120.212 146.765, 114.325 143.915 C 109.639 141.647, 108.960 140.505, 111.847 139.750 C 116.668 138.490, 120.597 129.365, 125.517 108 C 126.974 101.675, 128.578 95.195, 129.083 93.601 C 129.587 92.006, 130 89.427, 130 87.870 C 130 85.593, 129.461 84.920, 127.250 84.436 C 125.737 84.104, 123.970 83.672, 123.323 83.476 C 121.449 82.907, 120.320 85.011, 118.479 92.500 C 116.178 101.856, 115.777 102.520, 113.775 100.288 C 112.420 98.777, 112.337 97.672, 113.238 93.153 C 114.473 86.955, 113.780 86.040, 107.829 86.015 C 104.577 86.002, 104.085 86.335, 103.514 88.935 L 102.870 91.869 94.462 91.901 C 85.063 91.935, 80.119 93.752, 74.161 99.358 C 68.525 104.661, 66 110.822, 66 119.270 C 66 125.188, 66.509 127.628, 68.628 131.882 C 73.990 142.642, 89.628 150.590, 98.500 147.065 C 100.024 146.459, 101.662 147.190, 105.379 150.133 C 108.062 152.258, 111.898 154.488, 113.904 155.089 C 117.766 156.247, 130.340 155.936, 133.196 154.613 C 134.670 153.930, 134.776 154.198, 134.007 156.664 C 133.521 158.224, 132.581 161.390, 131.918 163.701 C 129.570 171.882, 121.630 176.637, 113.038 175.007 C 110.237 174.476, 107.107 173.592, 106.081 173.043 C 102.900 171.341, 99.110 166.104, 98.428 162.471 C 97.983 160.093, 97.231 159, 96.042 159 C 93.389 159, 88 161.983, 88 163.451 C 88 166.483, 91.463 172.800, 95.338 176.834 C 104.786 186.672, 116.820 188.878, 128.138 182.846 C 137.125 178.056, 140.691 172.518, 144.747 157.057 C 146.559 150.151, 148.569 141.708, 149.216 138.296 L 150.391 132.092 154.507 132.656 C 165.638 134.182, 177.137 127.995, 182.440 117.626 C 184.917 112.782, 185.404 110.662, 185.352 104.960 C 185.173 85.431, 166.523 72.289, 148 78.638 M 151.030 88.529 C 143.765 91.794, 140.993 96.252, 140.871 104.863 C 140.787 110.847, 142.336 115.528, 144.050 114.469 C 144.573 114.146, 145 112.874, 145 111.641 C 145 110.408, 145.540 108.860, 146.200 108.200 C 147.812 106.588, 152.181 106.680, 154.499 108.375 C 156.247 109.654, 156.284 110.146, 155.029 115.381 C 154.286 118.478, 153.990 121.324, 154.372 121.706 C 155.572 122.906, 161.348 122.390, 165.188 120.739 C 167.228 119.862, 170.244 117.265, 171.938 114.927 C 175.905 109.450, 176.151 102.620, 172.617 96.013 C 168.674 88.641, 158.573 85.139, 151.030 88.529 M 84.556 104.267 C 78.965 107.434, 76.511 112.099, 76.505 119.573 C 76.497 129.405, 81.953 135.379, 92.196 136.753 C 96.100 137.277, 96.106 137.272, 95.304 134.389 C 94.090 130.026, 94.555 125.527, 97.396 114.139 C 98.818 108.441, 99.734 103.378, 99.432 102.889 C 98.309 101.073, 88.608 101.972, 84.556 104.267 M 108.665 112 C 107.271 115.807, 105 126.465, 105 129.203 C 105 131.920, 105.177 132.098, 106.655 130.872 C 109.159 128.796, 111.008 123.566, 110.930 118.782 C 110.846 113.652, 109.517 109.674, 108.665 112 M 31.462 119.062 C 30.512 120.598, 30.882 140.581, 31.909 143.251 C 32.385 144.488, 33.336 147.975, 34.022 151 C 36.847 163.463, 48.529 183.421, 58.672 193.114 C 73.176 206.974, 91.260 216.206, 110.786 219.717 C 116.701 220.781, 119.813 219.562, 118.685 216.622 C 117.957 214.725, 117.826 214.677, 109 213.068 C 87.894 209.220, 67.463 196.692, 54.781 179.822 C 43.364 164.635, 38.216 150.238, 36.512 128.737 C 35.954 121.683, 35.458 119.780, 33.970 118.984 C 32.719 118.315, 31.908 118.340, 31.462 119.062 M 208.424 158.750 C 207.200 162.929, 201.373 173.865, 198.167 178 C 193.001 184.664, 184.111 193.688, 179 197.457 C 169.577 204.404, 156.284 210.237, 143.525 213.023 C 140.789 213.620, 138.243 214.606, 137.868 215.214 C 134.965 219.911, 144.898 220.362, 155.500 216.015 C 156.600 215.564, 160.004 214.233, 163.064 213.057 C 176.138 208.033, 192.015 195.683, 201.369 183.261 C 208.538 173.740, 215.287 160.910, 214.375 158.534 C 213.557 156.403, 209.064 156.566, 208.424 158.750" stroke="none" fill="#000000" fill-rule="evenodd"/><path fill-opacity=".229" d="M 109 5.934 C 82.196 9.900, 57.304 23.111, 38.236 43.491 C 22.024 60.819, 13.666 76.876, 7.426 102.684 C 5.389 111.111, 5.048 136.901, 6.867 145 C 9.411 156.331, 10.218 159.579, 11.213 162.500 C 12.169 165.306, 12.850 166.983, 16.393 175.250 C 17.159 177.037, 18.056 179.175, 18.385 180 C 19.875 183.727, 28.072 195.639, 33.926 202.585 C 50.461 222.203, 71.046 235.202, 96.500 242.099 C 107.789 245.158, 136.117 245.956, 148.156 243.555 C 157.618 241.668, 161.674 240.485, 167.739 237.845 C 170.071 236.830, 172.427 236, 172.975 236 C 174.739 236, 187.289 228.969, 193.736 224.369 C 220.186 205.495, 235.658 182.434, 243.633 150 C 246.231 139.437, 246.248 111.866, 243.664 100.500 C 241.298 90.091, 234.692 73.295, 229.564 64.647 C 220.128 48.735, 203.770 32.295, 187.477 22.352 C 168.797 10.952, 151.973 6.061, 129.500 5.497 C 121.250 5.290, 112.025 5.486, 109 5.934 M 103.675 12.029 C 80.430 16.867, 61.288 27.002, 45.184 42.998 C 24.363 63.680, 13.829 85.945, 10.881 115.500 C 9.851 125.832, 9.919 129.208, 11.374 139.787 C 15.081 166.758, 24.721 186.504, 43.450 205.491 C 60.123 222.395, 75.274 231.242, 97.703 237.171 C 108.697 240.077, 110.623 240.285, 126 240.235 C 140.173 240.189, 143.856 239.833, 152.112 237.711 C 161.614 235.269, 177.157 229.208, 182 226.055 C 183.375 225.160, 185.785 223.780, 187.356 222.988 C 191.138 221.082, 208.255 206.758, 210.268 203.815 C 211.139 202.542, 213.266 199.925, 214.995 198 C 225.657 186.127, 234.756 167.083, 239.123 147.500 C 240.880 139.619, 240.898 111.500, 239.150 103.500 C 232.864 74.721, 219.325 52.660, 196.766 34.435 C 188.128 27.457, 171.010 18.283, 160.759 15.139 C 143.322 9.790, 120.426 8.542, 103.675 12.029 M 118.500 30.650 C 90.082 33.118, 62.693 49.165, 47.234 72.405 C 41.435 81.122, 34.507 96.907, 35.877 98.277 C 37.822 100.222, 39.809 98.042, 42.493 91.019 C 54.166 60.469, 88.209 36, 119.038 36 C 124.772 36, 127.084 35.604, 128.035 34.458 C 130.373 31.641, 126.214 29.980, 118.500 30.650 M 149.180 36.125 C 149.429 37.780, 151.183 38.842, 157.119 40.933 C 171.931 46.150, 187.306 57.616, 197.830 71.293 C 209.255 86.144, 216.801 111.155, 215.824 130.941 C 215.528 136.941, 215.670 137.500, 217.500 137.500 C 219.414 137.500, 219.497 136.854, 219.438 122.500 C 219.382 109.001, 219.096 106.602, 216.587 98.525 C 211.421 81.898, 201.394 65.887, 189.437 55.174 C 181.508 48.070, 168.073 39.841, 159.147 36.621 C 150.225 33.403, 148.760 33.330, 149.180 36.125 M 149.751 78.664 C 145.224 79.885, 142.875 81.323, 138.705 85.427 C 132.462 91.572, 131.668 93.542, 126.073 116.781 C 123.785 126.286, 121.682 134.666, 121.399 135.403 C 120.638 137.386, 123.749 140, 126.871 140 C 129.968 140, 130.989 137.924, 133.140 127.254 L 134.399 121.008 137.004 123.504 C 138.437 124.877, 140.119 126, 140.742 126 C 142.411 126, 141.164 132.734, 138.614 137.487 C 133.588 146.857, 118.923 149.346, 110.750 142.217 C 108.849 140.558, 108.323 138.464, 110.081 139.550 C 111.754 140.584, 116.627 135.294, 118.926 129.950 C 120.065 127.302, 121.695 122.067, 122.548 118.318 C 123.400 114.568, 125.474 105.946, 127.156 99.157 C 128.838 92.369, 129.829 86.454, 129.357 86.013 C 128.886 85.572, 127.109 84.918, 125.409 84.561 C 121.855 83.814, 120.511 84.984, 119.737 89.500 C 118.687 95.633, 116.501 103, 115.732 103 C 115.295 103, 114.678 102.325, 114.362 101.500 C 114.045 100.675, 113.159 100, 112.393 100 C 110.659 100, 110.661 99.446, 112.405 93.649 C 113.743 89.205, 113.708 88.909, 111.683 87.490 C 107.740 84.729, 104 86.263, 104 90.641 C 104 93.138, 102.481 94.587, 101.510 93.016 C 101.165 92.457, 97.996 92, 94.469 92 C 83.209 92, 72.473 98.799, 68.436 108.487 C 66.273 113.679, 66.147 125.327, 68.202 130.073 C 70.325 134.972, 75.443 140.589, 80.472 143.536 C 85.484 146.474, 96.135 147.963, 98.441 146.049 C 99.663 145.034, 100.768 145.521, 104.712 148.812 C 112.688 155.466, 122.967 157.712, 130.686 154.487 C 132.677 153.655, 134.511 153.178, 134.761 153.428 C 135.387 154.053, 132.924 163.897, 131.316 167.198 C 126.619 176.843, 111.292 179.007, 103.077 171.185 C 100.647 168.871, 98.783 165.919, 98.065 163.250 C 97.437 160.912, 96.516 159, 96.019 159 C 94.863 159, 88 163.030, 88 163.709 C 88 163.990, 89.424 166.891, 91.164 170.156 C 96.504 180.175, 104.573 185.015, 115.872 184.978 C 126.498 184.943, 134.957 179.965, 139.447 171.104 C 140.739 168.555, 143.726 158.591, 146.085 148.962 L 150.374 131.456 157.195 131.841 C 163.016 132.170, 164.809 131.839, 169.419 129.584 C 176.418 126.159, 181.480 120.491, 183.444 113.878 C 186.782 102.637, 184.548 93.399, 176.574 85.475 C 169.282 78.228, 160.051 75.884, 149.751 78.664 M 149.309 88.466 C 147.554 89.229, 144.703 91.799, 142.972 94.177 C 140.015 98.240, 139.847 98.935, 140.182 105.741 C 140.462 111.445, 140.982 113.426, 142.628 115.073 L 144.718 117.163 145.350 113.211 C 146.116 108.425, 147.624 107.009, 151.219 107.699 C 155.715 108.563, 156.129 109.970, 153.973 117.061 C 152.896 120.602, 152.012 123.536, 152.008 123.579 C 152.003 123.623, 155.037 123.252, 158.750 122.755 C 168.731 121.420, 173.800 116.915, 175.496 107.875 C 176.834 100.741, 172.444 91.832, 165.931 88.464 C 162.386 86.631, 153.525 86.632, 149.309 88.466 M 86.606 102.385 C 75.338 107.574, 71.885 121.767, 79.645 130.990 C 82.961 134.931, 86.909 136.953, 92.365 137.505 L 96.701 137.944 95.767 133.221 C 94.991 129.296, 95.338 126.299, 97.817 115.499 C 99.458 108.349, 100.620 102.312, 100.399 102.082 C 99.340 100.979, 89.174 101.203, 86.606 102.385 M 106.758 117.250 C 104.366 128.038, 104.054 130.469, 104.889 131.821 C 106.553 134.512, 112 124.829, 112 119.181 C 112 115.850, 110.143 110, 109.085 110 C 108.689 110, 107.642 113.263, 106.758 117.250 M 31.667 119.667 C 30.334 121, 31.073 134.727, 32.974 143.940 C 39.709 176.581, 62.861 203.515, 93.500 214.352 C 103.357 217.839, 116.092 220.308, 117.412 218.988 C 119.628 216.772, 116.508 214.525, 110.236 213.821 C 102.064 212.903, 88.144 207.921, 79.991 202.995 C 52.875 186.611, 36.738 158.985, 35.894 127.500 C 35.707 120.554, 33.980 117.353, 31.667 119.667 M 207.964 161.583 C 206.884 164.104, 206 166.375, 206 166.631 C 206 167.689, 198.441 178.850, 194.627 183.425 C 183.494 196.778, 163.900 209.009, 148 212.532 C 143.875 213.446, 139.938 214.361, 139.250 214.565 C 137.481 215.092, 137.697 217.670, 139.571 218.389 C 141.458 219.113, 154.739 216.232, 155.548 214.922 C 155.862 214.415, 156.949 214, 157.965 214 C 163.551 214, 185.984 199.545, 195.025 190.121 C 202.471 182.359, 214.771 161.451, 213.634 158.488 C 212.519 155.583, 209.930 156.996, 207.964 161.583" stroke="none" fill="#000000" fill-rule="evenodd"/><path fill-opacity=".514" d="M 112.630 6.060 C 85.872 9.167, 60.688 21.371, 41.376 40.591 C 18.332 63.524, 6 93.136, 6 125.534 C 6 139.099, 6.649 143.449, 11.141 160 C 13.174 167.491, 21.813 185.978, 26.186 192.200 C 44.139 217.736, 67.174 233.719, 98.275 242.218 C 105.511 244.195, 108.844 244.463, 126 244.442 C 143.111 244.422, 146.533 244.140, 153.933 242.141 C 178.543 235.495, 201.774 221.340, 215.707 204.500 C 218.437 201.200, 221.420 197.882, 222.336 197.128 C 223.251 196.373, 224 195.329, 224 194.808 C 224 194.287, 225.291 191.979, 226.868 189.680 C 234.689 178.282, 241.947 159.053, 244.488 143 C 248.414 118.200, 243.997 93.106, 231.536 69.413 C 224.842 56.684, 219.528 49.707, 208.366 38.985 C 188.615 20.015, 164.960 8.975, 137.789 6.046 C 127.012 4.885, 122.734 4.887, 112.630 6.060 M 119.500 10.081 C 104.462 10.912, 98.954 11.872, 88.250 15.523 C 72.478 20.904, 58.418 29.698, 45.140 42.486 C 29.650 57.404, 19.124 75.248, 13.279 96.500 C 9.902 108.775, 8.995 132.400, 11.409 145.210 C 15.964 169.390, 26.221 189.022, 43.391 206.426 C 60.142 223.405, 79.134 233.750, 103.500 239.166 C 111.486 240.941, 141.571 240.899, 149 239.101 C 163.646 235.558, 182.287 227.584, 190.980 221.143 C 210.114 206.965, 225.397 188.351, 232.026 171.150 C 233.224 168.042, 235.003 163.475, 235.980 161 C 236.957 158.525, 238.289 153.350, 238.939 149.500 C 239.589 145.650, 240.544 140.328, 241.061 137.674 C 244.312 120.969, 239.364 93.819, 229.423 73.816 C 215.520 45.841, 192.648 25.845, 162.500 15.310 C 156.385 13.172, 134.861 8.682, 133.129 9.181 C 132.783 9.281, 126.650 9.686, 119.500 10.081 M 109.342 32.479 C 77.799 38.203, 51.259 59.501, 38.842 89.054 C 36.038 95.727, 35.714 99, 37.856 99 C 38.362 99, 40.235 95.377, 42.020 90.950 C 55.037 58.657, 88.075 35.193, 120.750 35.035 C 126.263 35.008, 128 34.666, 128 33.607 C 128 30.683, 121.430 30.286, 109.342 32.479 M 149 35.878 C 149 37.291, 151.189 38.561, 156 39.938 C 169.862 43.904, 186.637 56.070, 197.450 70 C 209.966 86.123, 218.273 113.114, 216.387 131.526 C 215.819 137.074, 215.945 138.186, 217.098 137.806 C 220.580 136.658, 220.396 112.348, 216.819 101 C 208.867 75.771, 195.192 57.651, 174.424 44.825 C 162.901 37.709, 149 32.817, 149 35.878 M 148.615 79.577 C 145.251 80.653, 142.138 82.752, 138.615 86.320 C 133.328 91.674, 131.466 95.851, 128.949 108 C 128.323 111.025, 127.414 114.850, 126.930 116.500 C 124.707 124.083, 122.730 132.759, 122.620 135.417 C 122.523 137.766, 123.011 138.472, 125.132 139.049 C 126.580 139.442, 128.157 139.480, 128.637 139.132 C 130.053 138.108, 131.886 131.927, 132.605 125.750 C 132.974 122.588, 133.585 120, 133.963 120 C 134.342 120, 135.708 121.125, 137 122.500 C 139.986 125.679, 141 125.658, 141 122.417 C 141 120.787, 141.461 119.992, 142.250 120.264 C 143.842 120.813, 143.666 123.954, 141.620 131.500 C 137.800 145.584, 121.690 151.765, 111.114 143.204 C 103.760 137.252, 102.407 130.453, 106 117.500 C 107.068 113.650, 107.955 109.263, 107.971 107.750 C 107.987 106.237, 108.401 105, 108.891 105 C 109.931 105, 110.931 109.970, 111.655 118.744 C 112.087 123.975, 111.818 125.558, 110.004 128.494 C 108.812 130.422, 107.424 132, 106.918 132 C 106.413 132, 106.015 132.563, 106.033 133.250 C 106.085 135.207, 109.647 139, 111.432 139 C 113.604 139, 118.625 130.877, 120.335 124.595 C 124.390 109.705, 129.200 87.962, 128.717 86.705 C 127.942 84.684, 123.270 83.970, 121.869 85.658 C 120.764 86.989, 119.630 91.372, 118.344 99.274 C 117.608 103.802, 116.698 104.555, 114.553 102.410 C 113.193 101.050, 112.694 101.009, 111.322 102.147 C 109.874 103.349, 109.761 103.173, 110.269 100.497 C 110.581 98.849, 111.342 95.513, 111.960 93.085 C 113.223 88.124, 112.492 87.042, 107.857 87.015 C 105.078 86.999, 104 88.538, 104 92.523 C 104 93.820, 103.550 95.160, 103 95.500 C 102.450 95.840, 102 97.243, 102 98.618 C 102 99.992, 100.650 106.464, 99 113 C 97.350 119.536, 96 126.478, 96 128.427 C 96 143.230, 107.842 154.967, 122.800 154.990 C 126.455 154.996, 130.314 154.372, 131.993 153.504 C 135.542 151.668, 136.512 152.821, 135.161 157.270 C 134.621 159.046, 133.903 161.749, 133.564 163.275 C 132.738 167.002, 126.479 173.773, 122.210 175.557 C 118.003 177.314, 114.771 177.379, 110.071 175.800 C 102.819 173.363, 99.414 169.545, 96.593 160.689 C 96.036 158.941, 95.907 158.941, 92.896 160.689 C 91.181 161.685, 89.572 163.017, 89.320 163.649 C 88.604 165.450, 93.473 174.167, 97.161 177.688 C 104.969 185.142, 116.779 187.055, 126.526 182.444 C 134.472 178.685, 139.095 172.895, 141.765 163.356 C 146.194 147.538, 149 135.512, 149 132.354 C 149 130.574, 149.450 128.840, 150 128.500 C 150.550 128.160, 151 128.531, 151 129.324 C 151 132.303, 159.177 132.841, 166.504 130.344 C 173.199 128.063, 181.397 119.990, 183.101 114 C 184.703 108.369, 184.736 101.726, 183.189 96.390 C 181.713 91.295, 175.053 83.578, 169.837 80.917 C 164.523 78.206, 154.817 77.593, 148.615 79.577 M 151.914 86.956 C 143.827 89.406, 139.783 95.309, 139.617 104.905 C 139.519 110.552, 139.901 112.229, 141.978 115.262 C 144.567 119.041, 145.955 118.668, 145.985 114.184 C 146.019 109.010, 149.919 106.395, 153.869 108.898 C 155.017 109.625, 154.962 110.795, 153.527 116.133 C 150.802 126.266, 150.691 127, 151.883 127 C 152.498 127, 153 126.325, 153 125.500 C 153 124.477, 154.034 123.995, 156.250 123.985 C 163.606 123.951, 171.138 119.611, 174.176 113.655 C 177.901 106.354, 176.168 96.076, 170.320 90.788 C 165.805 86.706, 158.060 85.093, 151.914 86.956 M 82.419 94.897 C 73.337 99.022, 67 108.811, 67 118.717 C 67 126.508, 68.726 131.407, 73.303 136.607 C 78.938 143.009, 85.632 146.175, 92.733 145.798 C 98.647 145.484, 100.100 144.243, 97.545 141.688 C 96.695 140.838, 96 139.661, 96 139.071 C 96 138.482, 94.407 138, 92.460 138 C 80.112 138, 71.398 123.809, 76.418 111.872 C 79.443 104.679, 88.700 99.217, 95.911 100.370 C 99.590 100.958, 99.780 100.852, 100.377 97.867 C 100.719 96.153, 101 94.356, 101 93.875 C 101 92.169, 86.693 92.956, 82.419 94.897 M 31.586 120.862 C 30.775 122.174, 32.778 141.715, 34.419 148.500 C 40.175 172.299, 58.336 195.868, 80 207.653 C 87.759 211.874, 98.207 215.635, 107.208 217.448 C 116.931 219.406, 117 219.403, 117 217 C 117 215.454, 116.333 215, 114.062 215 C 105.645 215, 87.213 208.371, 76.500 201.490 C 63.524 193.156, 47.192 173.717, 42.481 161 C 41.564 158.525, 40.444 155.600, 39.992 154.500 C 38.015 149.688, 35.787 137.779, 35.268 129.250 C 34.866 122.638, 34.337 120, 33.412 120 C 32.700 120, 31.878 120.388, 31.586 120.862 M 209.401 159.750 C 208.715 161.988, 205.386 168.906, 203.755 171.484 C 198.915 179.132, 196.350 182.351, 189.968 188.791 C 182.033 196.797, 176.663 200.808, 167.377 205.663 C 160.856 209.073, 148.935 213.360, 142.750 214.520 C 138.206 215.371, 137.584 218, 141.926 218 C 146.688 218, 164.345 211.600, 172.604 206.881 C 183.190 200.831, 194.438 190.787, 201.137 181.399 C 207.037 173.130, 213 162.137, 213 159.529 C 213 157.418, 210.060 157.599, 209.401 159.750" stroke="none" fill="#000000" fill-rule="evenodd"/><path fill-opacity=".252" d="M 103.500 7.953 C 102.400 8.403, 99.025 9.314, 96 9.978 C 87.955 11.745, 84.488 13.010, 74.717 17.744 C 61.976 23.916, 52.610 30.672, 41.784 41.498 C 27.217 56.065, 18.144 70.775, 12.176 89.500 C 10.424 95, 8.992 100.873, 8.995 102.550 C 8.998 104.228, 8.530 106.070, 7.955 106.645 C 6.819 107.781, 7.190 140.794, 8.409 147 C 9.600 153.065, 11.157 159.426, 11.959 161.500 C 26.349 198.711, 48.376 222.307, 81.500 235.994 C 83.150 236.676, 85.281 237.631, 86.236 238.117 C 87.191 238.603, 89.077 239, 90.427 239 C 91.777 239, 93.131 239.402, 93.435 239.894 C 93.739 240.386, 95.678 241.044, 97.744 241.357 C 99.810 241.669, 104.650 242.463, 108.500 243.120 C 116.977 244.568, 132.963 244.579, 142.500 243.143 C 146.350 242.563, 151.300 241.816, 153.500 241.482 C 157.274 240.910, 160.242 239.915, 164.236 237.883 C 165.191 237.397, 166.541 236.999, 167.236 236.998 C 169.068 236.995, 189.243 226.738, 192.991 223.905 C 194.740 222.582, 198.495 219.452, 201.336 216.948 C 204.176 214.445, 207.738 211.622, 209.250 210.675 C 210.763 209.728, 212 208.386, 212 207.693 C 212 206.999, 214.475 203.987, 217.500 201 C 220.525 198.013, 223 195.138, 223 194.613 C 223 194.087, 223.617 192.947, 224.370 192.079 C 226.619 189.488, 234.019 175.746, 236.259 170 C 236.795 168.625, 237.631 166.719, 238.117 165.764 C 238.603 164.809, 239 163.148, 239 162.073 C 239 160.998, 239.450 159.840, 240 159.500 C 240.550 159.160, 241 157.360, 241 155.500 C 241 153.640, 241.450 151.840, 242 151.500 C 242.550 151.160, 243 148.460, 243 145.500 C 243 142.540, 243.450 139.840, 244 139.500 C 244.589 139.136, 245 133.176, 245 125 C 245 116.824, 244.589 110.864, 244 110.500 C 243.450 110.160, 243 107.685, 243 105 C 243 102.315, 242.550 99.840, 242 99.500 C 241.450 99.160, 241 97.135, 241 95 C 241 92.865, 240.550 90.840, 240 90.500 C 239.450 90.160, 239 89.051, 239 88.035 C 239 87.020, 238.143 84.459, 237.096 82.345 C 236.049 80.230, 234.016 75.963, 232.578 72.862 C 231.139 69.761, 228.846 65.578, 227.481 63.567 C 226.116 61.556, 225 59.680, 225 59.397 C 225 58.226, 218.064 49.968, 210.539 42.179 C 195.571 26.686, 176.225 15.231, 156.500 10.182 C 154.300 9.619, 150.648 8.673, 148.384 8.079 C 143.620 6.830, 106.502 6.726, 103.500 7.953 M 106 10.028 C 104.625 10.476, 101.025 11.359, 98 11.991 C 92.717 13.094, 91.558 13.459, 86 15.773 C 84.625 16.346, 81.475 17.563, 79 18.478 C 74.920 19.987, 68.284 23.838, 57.629 30.881 C 52.201 34.469, 36.145 50.419, 31.336 57 C 23.448 67.795, 15.652 84.668, 12.161 98.500 C 8.951 111.220, 7.987 130.727, 10.053 141.174 C 13.156 156.866, 14.680 162.630, 16.204 164.450 C 16.642 164.973, 17 165.990, 17 166.711 C 17 168.676, 20.820 176.572, 25.849 185 C 41.865 211.842, 68.543 231.283, 100.057 239.079 C 108.114 241.072, 111.922 241.405, 126 241.348 C 138.082 241.298, 144.374 240.818, 149.500 239.552 C 153.350 238.601, 157.743 237.586, 159.262 237.296 C 160.781 237.006, 162.271 236.371, 162.571 235.885 C 162.872 235.398, 163.879 234.989, 164.809 234.975 C 166.284 234.953, 171.531 232.482, 185 225.467 C 195.729 219.879, 215.084 201.515, 222.335 190.044 C 224.626 186.420, 227.074 182.565, 227.775 181.477 C 228.476 180.390, 229.959 177.475, 231.070 175 C 232.182 172.525, 233.521 169.719, 234.046 168.764 C 234.571 167.809, 235 166.211, 235 165.214 C 235 164.216, 235.427 162.972, 235.948 162.450 C 237.688 160.707, 240.189 149.627, 241.467 138 C 244.423 111.108, 237.946 83.863, 223.427 62.116 C 221.817 59.704, 219.726 56.567, 218.780 55.144 C 216.059 51.052, 202.039 37.147, 196 32.551 C 182.564 22.325, 167.496 15.132, 153 12.025 C 149.975 11.377, 146.118 10.431, 144.429 9.923 C 140.700 8.802, 109.500 8.887, 106 10.028 M 106 33.527 C 75.582 40.740, 51.195 61.130, 39.325 89.275 C 35.489 98.371, 35.570 98, 37.413 98 C 38.237 98, 39.913 95.153, 41.437 91.164 C 50.724 66.862, 73.742 45.596, 99 37.983 C 103.457 36.640, 110.664 35.475, 116.763 35.111 C 122.407 34.775, 127.132 34.050, 127.263 33.500 C 127.620 31.995, 112.380 32.015, 106 33.527 M 150 36.002 C 150 36.575, 151.012 37.435, 152.250 37.915 C 168.572 44.241, 177.360 49.283, 187.279 58.015 C 196.483 66.116, 208.600 84.807, 211.904 96 C 212.634 98.475, 213.585 101.625, 214.018 103 C 215.752 108.521, 217.256 123.175, 216.776 129.882 C 216.352 135.812, 216.521 137, 217.790 137 C 219.115 137, 219.227 135.034, 218.655 121.818 C 218.294 113.468, 217.488 105.031, 216.865 103.068 C 213.850 93.574, 209.287 82.836, 205.588 76.531 C 200.764 68.307, 186.588 53.114, 179.500 48.572 C 167.820 41.086, 165.996 40, 165.104 40 C 164.588 40, 162.216 39.171, 159.833 38.158 C 153.756 35.574, 150 34.751, 150 36.002 M 147.775 80.368 C 142.540 81.996, 134.464 90.222, 133.042 95.373 C 130.184 105.726, 126.152 122.149, 125.491 126.124 C 125.091 128.531, 124.113 131.770, 123.319 133.322 C 121.582 136.715, 122.911 139, 126.622 139 C 128.309 139, 129 138.436, 129 137.059 C 129 135.991, 129.400 134.871, 129.890 134.568 C 130.773 134.022, 131.584 130.399, 132.647 122.250 C 132.952 119.912, 133.446 118, 133.745 118 C 134.044 118, 135.827 119.688, 137.707 121.750 C 141.011 125.373, 141.107 125.409, 140.557 122.803 C 140.156 120.901, 140.478 119.832, 141.650 119.176 C 143.154 118.334, 143.088 117.932, 140.949 114.929 C 137.686 110.346, 137.702 100.236, 140.980 94.726 C 147.941 83.027, 166.936 83.027, 174.078 94.726 C 177.524 100.371, 177.433 110.067, 173.882 115.522 C 172.413 117.777, 169.559 120.367, 167.382 121.419 C 165.247 122.450, 162.731 123.670, 161.791 124.130 C 160.850 124.590, 158.713 124.693, 157.041 124.358 C 154.416 123.833, 154 124.041, 154 125.875 C 154 127.044, 153.550 128, 153 128 C 152.450 128, 152 128.675, 152 129.500 C 152 132.038, 162.496 131.460, 168.500 128.592 C 178.899 123.624, 183.359 116.574, 183.424 105 C 183.457 99.179, 182.985 96.605, 181.318 93.500 C 178.288 87.859, 172.256 82.352, 167.124 80.543 C 162.087 78.767, 153.184 78.686, 147.775 80.368 M 121.487 88.657 C 121.136 90.771, 120.365 93.769, 119.774 95.319 C 119.183 96.870, 118.655 99.532, 118.600 101.236 C 118.476 105.080, 116.788 105.762, 114.219 103.004 L 112.259 100.901 111.643 103.201 C 110.694 106.746, 110.888 111.813, 112 112.500 C 112.550 112.840, 113 115.835, 113 119.155 C 113 123.769, 112.478 125.934, 110.786 128.346 C 109.568 130.081, 108.218 131.650, 107.786 131.833 C 106.487 132.384, 106.932 134.353, 108.946 136.974 C 110.826 139.422, 110.870 139.428, 112.960 137.536 C 116.375 134.445, 119.504 126.762, 122.135 115 C 122.689 112.525, 123.300 109.825, 123.493 109 C 123.686 108.175, 124.164 105.352, 124.554 102.728 C 124.944 100.103, 125.654 97.714, 126.132 97.419 C 126.609 97.123, 127 95.754, 127 94.375 C 127 92.997, 127.492 90.950, 128.093 89.827 C 129.359 87.461, 128.562 86.404, 124.813 85.478 C 122.314 84.861, 122.081 85.084, 121.487 88.657 M 105.667 87.667 C 105.300 88.033, 105 90.058, 105 92.167 C 105 94.275, 104.597 96, 104.105 96 C 103.613 96, 102.984 97.688, 102.707 99.750 C 102.431 101.813, 101.679 105.300, 101.036 107.500 C 98.299 116.868, 97.725 119.914, 97.295 127.370 C 97.011 132.275, 97.247 135.647, 97.920 136.320 C 98.514 136.914, 99 137.965, 99 138.656 C 99 139.346, 100.103 141.537, 101.451 143.523 C 108.152 153.398, 121.575 157.668, 131.239 152.999 C 136.746 150.338, 137.957 152.435, 134.994 159.500 C 134.533 160.600, 133.889 162.729, 133.563 164.232 C 131.742 172.632, 117.986 180.567, 111.236 177.111 C 110.281 176.622, 107.756 175.384, 105.625 174.361 C 101.550 172.403, 97.578 167.377, 96.452 162.750 C 96.084 161.238, 95.591 160, 95.356 160 C 95.018 160, 92.442 161.502, 89.180 163.600 C 88.326 164.150, 93.637 172.945, 96.856 176.308 C 108.781 188.770, 131.237 185.763, 138.333 170.754 C 139.699 167.864, 141.083 164.262, 141.408 162.750 C 141.734 161.238, 142.259 158.762, 142.575 157.250 C 142.892 155.738, 143.520 153.600, 143.971 152.500 C 144.422 151.400, 145.331 147.800, 145.991 144.500 C 146.651 141.200, 147.600 137.462, 148.100 136.193 C 148.600 134.924, 148.729 132.768, 148.386 131.402 C 147.997 129.851, 148.321 128.278, 149.251 127.210 C 150.667 125.583, 151.415 123.251, 152.686 116.500 C 152.997 114.850, 153.683 112.957, 154.212 112.294 C 155.521 110.650, 154.524 109.333, 151.536 108.762 C 148.350 108.153, 145.619 111.949, 146.233 116.132 C 146.479 117.811, 146.098 119.504, 145.330 120.141 C 144.598 120.748, 144 122.513, 144 124.063 C 144 125.614, 143.550 127.160, 143 127.500 C 142.450 127.840, 142 129.464, 142 131.109 C 142 139.530, 131.745 148, 121.549 148 C 116.304 148, 108.887 143.365, 105.470 137.952 C 102.948 133.958, 102.954 135.003, 105.344 117 C 105.527 115.625, 106.058 113.375, 106.525 112 C 106.991 110.625, 107.263 108.530, 107.127 107.346 C 106.992 106.161, 107.358 104.896, 107.941 104.536 C 108.523 104.177, 109.014 102.671, 109.032 101.191 C 109.049 99.711, 109.724 97.626, 110.532 96.559 C 112.642 93.769, 112.396 89.283, 110.066 88.035 C 107.822 86.834, 106.601 86.732, 105.667 87.667 M 82 96.032 C 73.329 100.756, 68.862 107.390, 67.547 117.500 C 66.340 126.773, 71.678 137.054, 80.251 141.971 C 84.542 144.432, 86.641 144.983, 91.750 144.991 C 95.188 144.996, 98 144.826, 98 144.614 C 98 142.489, 94.613 138.486, 92.760 138.421 C 87.152 138.225, 86.009 137.760, 81.606 133.884 C 79.034 131.621, 76.271 128.191, 75.465 126.262 C 70.299 113.898, 79.966 100, 93.731 100 C 98.159 100, 98.654 99.755, 99.672 97.058 C 100.283 95.440, 100.531 93.865, 100.225 93.558 C 99.918 93.251, 96.929 93.008, 93.583 93.018 C 88.738 93.033, 86.381 93.646, 82 96.032 M 32 126.867 C 32 139.583, 36.415 157.234, 42.288 168 C 54.551 190.479, 69.564 203.797, 93 212.988 C 99.268 215.447, 110.137 218, 114.333 218 C 119.332 218, 116.680 215.541, 110.921 214.837 C 103.567 213.938, 98.184 212.651, 94 210.791 C 92.075 209.935, 88.967 208.648, 87.093 207.931 C 76.746 203.972, 58.212 188.114, 50.302 176.451 C 45.934 170.012, 41 160.434, 41 158.394 C 41 157.716, 40.344 155.888, 39.543 154.331 C 37.346 150.064, 34.997 137.486, 34.734 128.583 C 34.578 123.314, 34.082 120.526, 33.250 120.249 C 32.329 119.943, 32 121.685, 32 126.867 M 210.251 159.261 C 209.715 159.942, 209 161.658, 208.663 163.073 C 208.326 164.488, 207.027 167.188, 205.775 169.073 C 204.524 170.958, 202.825 173.850, 202 175.499 C 199.789 179.919, 184.346 195.673, 178 199.982 C 167.830 206.887, 155.113 212.373, 144 214.650 C 138.923 215.690, 138.330 216.039, 140.022 216.989 C 144.250 219.364, 166.760 210.738, 180 201.668 C 192.479 193.120, 205.576 176.833, 211.639 162.321 C 212.997 159.071, 212.048 156.978, 210.251 159.261" stroke="none" fill="#000000" fill-rule="evenodd"/></svg>