<svg xmlns="http://www.w3.org/2000/svg" width="200" height="200" fill="#000000"><path fill-opacity=".016" fill-rule="evenodd" d="M96.5 25.893c-1.1.456-4.216.638-6.924.406-4.25-.365-4.756-.221-3.701 1.05 1.051 1.267.675 1.4-2.688.949-2.746-.368-4.707-.003-6.581 1.224-3.166 2.075-2.776 3.126.558 1.504 2.129-1.036 2.176-1.008.537.315-1.015.819-3.274 1.314-5.187 1.136-2.595-.241-3.261.017-2.845 1.104.364.949-.153 1.419-1.562 1.419-1.159 0-2.114.563-2.122 1.25Q65.969 37.5 65 36c-.854-1.322-.971-1.316-.985.05-.008.853.547 2.156 1.235 2.897 1 1.077 1 1.205 0 .641-.689-.389-1.25-.183-1.25.46 0 .641-.661.912-1.468.603s-1.734-.133-2.059.393-.036.956.643.956c.733 0 .452.761-.691 1.874-1.389 1.352-2.286 1.585-3.222.838-1.063-.848-1.063-1.184 0-1.858.975-.619.878-.827-.391-.839-.956-.008-1.677.744-1.664 1.735.014.962-.317 2.875-.735 4.25-.684 2.25-.593 2.363.914 1.128 1.057-.868 1.673-.967 1.673-.269 0 .606-1.086 1.375-2.413 1.709-2.34.587-4.268 4.521-3.123 6.373.288.467-.147 1.107-.968 1.422-1.067.41-1.362 1.587-1.035 4.138.315 2.461.11 3.352-.66 2.876q-1.116-.69-.552 1.467c.31 1.186.265 2.156-.1 2.156s-.498 2.082-.295 4.628c.293 3.683.09 4.469-.993 3.853-1.098-.625-1.119-.514-.111.572 1.481 1.596 1.694 5.339.253 4.449-.649-.401-.682.211-.095 1.757.991 2.606 1.451 7.127 1.041 10.241-.145 1.1-.572-.25-.949-3l-.686-5-.157 4.691c-.171 5.11 1.064 6.873 2.857 4.08.905-1.409 1.035-1.438.64-.143-.274.896.007 2.133.624 2.75.829.829.817 1.122-.047 1.122-1.801 0-.29 2.846 1.876 3.534 1.057.335 1.689.987 1.404 1.448-.727 1.176.528 4.112 1.501 3.511.441-.273.592.305.336 1.285-.546 2.085 2.711 6.222 4.898 6.222.831 0 2.074 1.357 2.761 3.016 1.002 2.42 1.525 2.788 2.644 1.859 1.117-.927 1.268-.828.761.495-.462 1.203-.217 1.492.9 1.064 1.449-.556 3.459 1.755 3.514 4.041.013.536.62 1.133 1.349 1.326.898.238.842-.012-.175-.779-1.261-.95-1.182-1.072.5-.766 1.1.199 1.888.899 1.75 1.553-.322 1.534 1.012 1.529 2.55-.009.787-.787 1.2-.828 1.2-.119 0 1.577 8.395 3.563 16.798 3.974 4.013.196 9.188.776 11.5 1.288 3.497.776 3.913.718 2.481-.345-1.462-1.084-.792-1.285 4.466-1.334 3.57-.034 6.342-.525 6.554-1.161.202-.607 1.032-1.103 1.843-1.103.812 0 1.201-.445.865-.989-.343-.555.035-.74.864-.422.887.34 1.94-.301 2.638-1.607.971-1.812 1.729-2.066 4.577-1.532 2.2.413 3.414.251 3.414-.457 0-.603 1.365-1.573 3.033-2.154 2.335-.814 2.894-1.492 2.432-2.948-.332-1.048-.124-1.891.468-1.891.587 0 1.067-.477 1.067-1.059s-.52-.738-1.155-.346c-.731.453-.882.274-.41-.489.575-.931 1.067-.934 2.177-.013 1.165.966 1.315.88.8-.463-.472-1.228-.22-1.494.977-1.034 1.123.431 1.616.055 1.626-1.239.013-1.565.168-1.621.985-.357.582.901.975 1.025.985.309.008-.655-.36-1.423-.818-1.706-1.409-.871-.037-6.602 1.819-7.596.963-.515 2.059-.629 2.435-.252.377.376.389-.087.027-1.03-.362-.942-1.055-1.468-1.541-1.167s-.617-.15-.291-1c.327-.851.973-1.312 1.436-1.026.464.287 1.173-2.303 1.576-5.756.542-4.639.897-5.624 1.359-3.776.345 1.375.601-.94.57-5.145s-.338-7.194-.682-6.643-.483-2.325-.309-6.391-.106-8.051-.623-8.857c-.639-.994-.74-.421-.317 1.786.405 2.11.229 3.25-.501 3.25-.619 0-1.125-1.52-1.125-3.378 0-1.857-.685-3.946-1.523-4.641-.928-.771-1.277-2.037-.892-3.247.45-1.421.278-1.767-.608-1.22-.808.5-1.064.283-.739-.625.806-2.254-2.4-6.75-5.614-7.87-2.869-1-2.908-1.094-1.052-2.531 1.622-1.256 1.65-1.396.178-.883-2.174.757-2.287-.492-.183-2.03 1.371-1.003 1.317-1.146-.426-1.146-1.097 0-1.728.43-1.404.955.342.553-.145.674-1.155.286-.96-.369-1.934-.67-2.164-.67s-.418-.626-.418-1.392-1.214-1.696-2.698-2.068c-1.948-.489-2.327-.906-1.365-1.501 1.815-1.122-2.328-3.367-4.777-2.59-.971.308-2.641-.108-3.712-.925-1.691-1.29-1.75-1.625-.448-2.535 1.471-1.03-1.054-.748-6.375.711-1.207.331-1.632.12-1.191-.593.376-.609 1.67-1.139 2.875-1.177 2.1-.068 2.108-.103.191-.855-1.268-.497-2.824-.246-4.25.686-1.237.808-2.25 1.049-2.25.536s-1.237-.968-2.75-1.01-4.1-.335-5.75-.649c-1.65-.315-3.9-.2-5 .255m-32.5 6.5c0 .216.698.661 1.552.989.89.341 1.291.173.941-.393-.587-.951-2.493-1.406-2.493-.596m-7 6.774c0 .458.423.833.941.833s1.173-.375 1.456-.833c.283-.459-.14-.834-.941-.834S57 38.708 57 39.167m85.985 5.787c1.367 1.05 2.658 1.736 2.869 1.525.656-.656-2.638-3.48-4.033-3.457-.726.012-.203.882 1.164 1.932M95.499 56.002c-.34.549-.311 1.493.063 2.098.494.799.119.799-1.376 0-2.554-1.368-3.491-1.402-2.686-.1.34.55-.196 1.007-1.191 1.015-1.336.012-1.469.231-.509.84.715.454 1.373 1.797 1.463 2.985.12 1.589.635 2.01 1.95 1.592.983-.312 1.787-.086 1.787.501s-1.013 1.099-2.25 1.137c-2.132.067-2.146.112-.25.864 1.165.462 2.274.368 2.655-.226.829-1.289 5.642-1.846 6.33-.732.284.46 1.355.617 2.378.35 1.302-.341 2.033.169 2.432 1.694.314 1.2 1.031 1.897 1.594 1.549s.752-1.406.42-2.351c-.498-1.417-.363-1.494.769-.443 1.005.934 1.093 1.736.33 3-.61 1.009-.735 3.174-.302 5.215.407 1.92.328 3.987-.174 4.592-.503.606-.581 1.47-.173 1.92.407.45.148.476-.577.057s-1.068-1.414-.762-2.212c.311-.81.121-1.181-.431-.84-.544.336-.989 1.067-.989 1.623 0 .557-.675 1.688-1.5 2.513-1.157 1.157-1.507 1.198-1.53.178-.02-.831-.409-.673-1.05.429-1.162 1.995-5.911 2.395-5.937.5-.01-.687-1.22-2.375-2.689-3.75s-2.408-2.05-2.087-1.5-.096 1.628-.926 2.396c-1.322 1.223-1.413 1.1-.737-1 .424-1.318.737-3.071.697-3.896s.182-2.175.493-3c1.128-2.988 1.233-5 .26-5-.547 0-.994-.81-.994-1.8s-.562-2.406-1.25-3.147c-1.011-1.089-.982-1.193.155-.545.942.537 1.169.42.689-.356-.514-.832-1.267-.862-2.675-.108-1.078.576-2.471.733-3.094.348-.718-.444-.857-.252-.378.522.415.672 1.333 1.001 2.039.73 1.01-.388 1.053.116.203 2.37-.594 1.574-1.395 2.667-1.78 2.43-.385-.238-.968.268-1.297 1.125s-1.051 1.278-1.605.935C80.452 70.161 80 70.833 80 72c0 1.165.45 1.84 1 1.5s1 .132 1 1.048c0 .923-.557 1.451-1.25 1.184-.971-.374-1.182 2.506-.946 12.893.167 7.356.617 13.433 1 13.504 2.765.512 6.196.328 6.196-.333 0-.438.726-.796 1.613-.796 1.237 0 1.507-.726 1.157-3.111-.343-2.34.136-3.704 1.932-5.5C94.1 89.991 98 89.131 98 91c0 .55.9 1 2 1s2 .477 2 1.059.546.722 1.213.309c.808-.499.222-1.173-1.75-2.014-1.629-.695-2.422-1.284-1.76-1.309s2.349.477 3.75 1.116c3 1.366 7.547-.188 7.547-2.581 0-.804.445-1.737.989-2.073.566-.35.734.051.393.941-.328.854-.098 1.552.511 1.552 1.041 0 1.512-1.702 1.353-4.887-.038-.762.791-2.31 1.842-3.438 1.266-1.359 1.912-1.594 1.912-.697 0 .745.27 1.085.6.755s.232-1.192-.219-1.916c-.451-.725-.687-2.339-.526-3.589s-.466-4.262-1.396-6.695c-1.821-4.77-4.339-6.02-7.959-3.953-1.258.719-2.928.83-4.5.3-2.437-.822-2.429-.834.308-.489 1.947.245 2.66-.032 2.325-.905-.328-.856.184-1.085 1.598-.715 1.54.402 1.871.203 1.271-.768q-.804-1.306.343-.598c2.121 1.31 1.187-1.471-1.252-3.731-2.586-2.397-11.911-3.587-13.094-1.672M149 57c0 .55.45 1 1 1s1-.45 1-1-.45-1-1-1-1 .45-1 1m-42.187 1.683c.721.289 1.584.253 1.916-.079s-.258-.568-1.312-.525c-1.165.048-1.402.285-.604.604M113 62c-.901.582-1.025.975-.309.985.655.008 1.469-.435 1.809-.985.767-1.242.421-1.242-1.5 0m3.086 1.559c-.047 1.132.622 2.932 1.488 4 .866 1.067 1.268 1.343.893.613-.375-.731-1.045-2.531-1.488-4-.648-2.144-.824-2.265-.893-.613M118.71 72c.288 1.1.696 2 .907 2 .21 0 .383-.9.383-2s-.408-2-.906-2-.671.9-.384 2M89.459 91.067c-.363.586-.445 1.281-.183 1.543s.743-.218 1.069-1.067c.676-1.762.1-2.072-.886-.476m4.541.326c0 .216.675.652 1.5.969s1.5.139 1.5-.393c0-.533-.675-.969-1.5-.969s-1.5.177-1.5.393m58.195 5.107c.02 1.65.244 2.204.498 1.231s.237-2.323-.037-3-.481.119-.461 1.769M51 104.642c0 .537.7 1.849 1.555 2.917 1.467 1.83 1.487 1.798.365-.559-1.458-3.061-1.92-3.628-1.92-2.358m85.625 12.156c-.271.439-.129 1.387.316 2.107.568.919 1.013.979 1.493.202.376-.609.181-1.107-.434-1.107s-.84-.45-.5-1 .393-1 .118-1-.722.359-.993.798M71 123c0 .55.477 1 1.059 1s.781-.45.441-1-.816-1-1.059-1-.441.45-.441 1m56 2.559c0 .857.457 1.276 1.016.931.559-.346.758-1.047.441-1.559-.857-1.387-1.457-1.129-1.457.628m8 1.441c0 .55.423 1 .941 1s1.219-.45 1.559-1-.084-1-.941-1-1.559.45-1.559 1m-67.187.683c.721.289 1.584.253 1.916-.079s-.258-.568-1.312-.525c-1.165.048-1.402.285-.604.604m21.745 4.224c-.309.498.34.671 1.441.383 2.335-.611 2.63-1.29.56-1.29-.793 0-1.693.408-2.001.907m-8.116.999c.308.498 1.46.671 2.559.383 2.752-.719 2.504-1.289-.56-1.289-1.407 0-2.307.408-1.999.906m16.827-.213c.973.254 2.323.237 3-.037s-.119-.481-1.769-.461-2.204.244-1.231.498m-66.726 9.238c-.683 1.105.894 2.299 1.818 1.375.95-.951.773-2.306-.302-2.306-.518 0-1.2.419-1.516.931m4.316-.311c.501.258-.051 1.553-1.225 2.877l-2.134 2.407-2.371-2.702c-2.004-2.283-2.273-2.38-1.737-.621.507 1.661.212 2.064-1.461 2-1.622-.063-2.53 1.051-4.013 4.919-2.058 5.37-2.693 11.246-.918 8.5.854-1.322.971-1.316.985.05.008.852-.547 2.156-1.235 2.897-1 1.077-1 1.205 0 .641 1.517-.857 1.588-.089.227 2.455-.826 1.543-.729 1.799.5 1.328.947-.364 1.523-.018 1.523.915 0 .825.712 1.773 1.582 2.107 2.194.842 3.164.733 1.708-.193-.865-.549-.61-1.144.895-2.083 1.833-1.145 2.026-1.108 1.491.284-.337.879-.163 1.599.387 1.599s1.263-.686 1.585-1.526c.372-.968 1-1.201 1.719-.637 2.328 1.823 6.403 2.205 6.997.656.348-.906-.004-1.493-.895-1.493-1.187 0-1.133-.344.281-1.792.995-1.018 1.917-1.342 2.137-.75 1.304 3.509 7.675 5.839 9.235 3.378.466-.735.899-3.811.962-6.836.064-3.025.433-6.625.822-8 .705-2.494.708-2.494 1.307-.25.33 1.238.221 2.25-.242 2.25s-.773 2.363-.687 5.25-.214 5.842-.665 6.567c-.451.724-.525 1.611-.165 1.971s1.024.057 1.475-.674c.575-.929 1.026-.995 1.505-.221.999 1.616 4.534 1.353 5.202-.387.316-.822.998-1.232 1.517-.911.563.348.464 1.162-.246 2.017-.97 1.169-.876 1.313.509.782.934-.359 1.473-1.241 1.197-1.96-.276-.72.26-1.51 1.192-1.755 1.209-.319 1.049-.48-.555-.563-4.767-.246-.775-4.116 4.246-4.116 3.254 0 3.568-.224 2.965-2.124-.371-1.168-.779-2.838-.907-3.712-.129-.874-1.543-2.148-3.144-2.832-3.651-1.558-1.807-1.715 2.502-.213 2.075.723 3.023 1.608 2.681 2.5-.909 2.369.275 1.511 1.719-1.246 1.126-2.147 1.491-2.33 2.001-1 .343.895.188 1.627-.344 1.627-.533 0-.969.948-.969 2.107 0 1.462.459 1.931 1.5 1.531.825-.316 1.5-.139 1.5.393 0 .533-.477.969-1.059.969-.612 0-.718.528-.25 1.25.445.688.809 3.275.809 5.75 0 3.971.278 4.539 2.365 4.835 1.301.184 2.778-.078 3.282-.582.555-.555-.28-.74-2.116-.471-1.684.247-3.031-.008-3.031-.575 0-.561.819-.806 1.82-.544 3.036.794 4.644-2.378 4.663-9.199.009-3.448.355-6.062.767-5.808s.75-.015.75-.597c0-2.441 1.826-.804 2.443 2.191 1.589 7.705 1.756 10.75.591 10.75-.768 0-.665.511.296 1.473 1.004 1.004 3.075 1.376 6.513 1.171 5.615-.336 8.157-1.873 8.157-4.933 0-2.906.722-1.79 1.319 2.039.278 1.787.096 3.25-.406 3.25s-.881 1.238-.843 2.75c.063 2.437.168 2.522.93.75.724-1.686.87-1.499.93 1.191.092 4.208 1.039 4.614 5.058 2.17 2.594-1.578 3.03-2.232 1.938-2.907-1.202-.743-1.205-1.061-.021-2.162 1.144-1.065 1.246-1.042.578.128-.611 1.069-.38 1.254.935.75.96-.369 2.496-.715 3.414-.77 1.009-.06.68-.416-.832-.9q-2.5-.801-.75-.9c.963-.055 2.009-.07 2.326-.034.316.036 1.355-.834 2.308-1.932 1.721-1.985 1.753-1.979 4.699.774 1.632 1.525 4.193 3.007 5.692 3.294 3.271.625 3.568.045.549-1.071l-2.177-.806 2.177-.569c1.305-.341 2.182-.106 2.191.588q.016 1.155.833-.133c.621-.978 1.487-1.034 3.599-.231 2.238.851 2.679.792 2.26-.302-.287-.748-.12-1.994.37-2.769.686-1.083.896-1.106.908-.1.008.72.414 1.062.902.761.487-.301 1.438.117 2.113.93s1.513 1.314 1.863 1.114 1.537.039 2.637.532c1.841.824 1.822.861-.25.468-1.238-.235-2.25-.019-2.25.48 0 .498 1.575.906 3.5.906s3.5-.414 3.5-.921c0-.506 1.354-1.217 3.009-1.581s2.748-1.081 2.431-1.596c-.318-.514-.955-.702-1.416-.417s-.581-.462-.268-1.66l.569-2.178.773 2.089c.425 1.148 2.353 2.659 4.284 3.357s3.284 1.639 3.006 2.089c-.85 1.375 1.539.912 4.164-.808 2.352-1.541 2.449-1.528 1.86.25-.343 1.032.322.526 1.476-1.124s2.102-3.562 2.105-4.25c.004-.687.443-1.25.976-1.25s.691.788.352 1.75c-.516 1.466-.389 1.537.782.433 1.192-1.124 1.147-1.502-.305-2.576-1.098-.811-1.5-2.031-1.132-3.438.313-1.199-.046-2.939-.798-3.866-.935-1.153-.972-1.449-.118-.936.787.473 1.25.173 1.25-.808 0-.857.477-1.559 1.059-1.559s.781-.45.441-1-1.54-1-2.666-1c-1.48 0-1.875.451-1.424 1.626.563 1.466.369 1.459-1.972-.074-1.901-1.246-3.643-1.524-6.511-1.04-2.154.364-4.158 1.053-4.454 1.531s-1.198.616-2.005.306c-.807-.309-1.468-.01-1.468.666 0 .97-.315.969-1.489-.006-.819-.68-1.246-1.629-.948-2.111.297-.481-.231-.579-1.175-.217-1.016.39-1.468.257-1.107-.327.397-.643-1.089-.637-4.28.017-2.689.55-4.68 1.34-4.424 1.754s-.169 1.117-.944 1.564c-.776.446-1.627 1.486-1.892 2.311-.266.825-.347.375-.182-1 .166-1.375.594-3.4.953-4.5.591-1.815.524-1.847-.722-.344-1.068 1.288-1.809 1.42-3.332.592-1.883-1.023-1.891-.988-.208.923 2.59 2.94 2.127 3.852-.5.986-2.048-2.234-10.529-4.726-9.296-2.731.274.444-.495 1.654-1.71 2.69-2.169 1.85-2.183 1.849-.727-.03 1.399-1.805 1.354-1.845-.78-.708-1.857.99-2.075 1.557-1.215 3.164 1.53 2.858-.201 2.335-2.443-.738-1.056-1.448-1.506-2.392-1-2.096.507.295 1.686-.21 2.62-1.122 1.598-1.558 1.587-1.657-.176-1.657-1.032 0-1.658.353-1.391.785.268.432-.441.786-1.573.786-2.251 0-2.81-1.57-.809-2.272.688-.241-.036-.447-1.607-.458-1.974-.014-2.437.246-1.5.84.871.551.938.865.189.875-.643.008-1.885.29-2.762.626-1.204.463-1.45.158-1.006-1.25.559-1.771.531-1.774-.569-.056-.894 1.396-1.468 1.547-2.532.664-1.459-1.21-3.852-.407-2.982 1.001.283.458-1.031.788-2.921.735s-3.243-.409-3.008-.789-.918-.889-2.562-1.131c-1.645-.241-2.99-.097-2.99.321 0 .417-.929 1.054-2.065 1.415-1.135.36-2.459 1.628-2.941 2.817-.806 1.988-.864 1.945-.721-.54.085-1.487.343-2.515.573-2.286.661.662 4.154-1.48 4.154-2.547 0-.531-.873-.965-1.941-.965s-2.216-.445-2.552-.989c-.366-.593.097-.716 1.158-.309 1.571.602 1.604.501.302-.901-.807-.869-1.692-1.23-1.967-.803-.564.876-17.006 1.821-16.465.946.53-.858-18.499-.319-19.319.547-.394.417.409.474 1.784.128l2.5-.63-2.423 1.236c-1.916.977-2.509.978-2.834.005-.225-.676-1.974-1.23-3.885-1.23-2.063 0-3.225.407-2.858 1 .824 1.333-.818 1.282-2.167-.067-.757-.757-1.248-.596-1.689.552-.362.943-.208 1.364.367 1.008.544-.336.989-.134.989.448 0 2.236-1.885.903-3.718-2.63-1.053-2.029-2.458-3.795-3.123-3.925s-.8-.025-.3.234m11.779.88c-.316.825-.139 1.5.393 1.5.533 0 .969-.675.969-1.5s-.177-1.5-.393-1.5-.652.675-.969 1.5m13.862.5c-.34.55-.141 1 .441 1S63 143.55 63 143s-.198-1-.441-1-.719.45-1.059 1m41.3 1.2c.933.933 1.467.933 2.4 0s.667-1.2-1.2-1.2-2.133.267-1.2 1.2m71.2-.2c0 .55.45 1 1 1s1-.45 1-1-.45-1-1-1-1 .45-1 1m-80.5 1c-.34.55.084 1 .941 1S96 145.55 96 145s-.423-1-.941-1-1.219.45-1.559 1m51 0c.34.55 1.604.993 2.809.985 1.781-.013 1.91-.197.691-.985-1.97-1.273-4.287-1.273-3.5 0m13.5.393c0 .766.698 1.661 1.552 1.989.89.341 1.291.173.941-.393-.336-.544-.108-.989.507-.989s.84-.45.5-1c-.924-1.495-3.5-1.206-3.5.393m-136.376 3.146c-.343.893-.595 2.15-.561 2.793.035.642.495.09 1.022-1.227s.779-2.574.56-2.793-.679.333-1.021 1.227m8.085-.855c-.41.651-.088 3.091.716 5.423.981 2.847 1.151 4.817.518 6-.519.969-.943 2.766-.943 3.994 0 2.574.781 2.185 1.327-.662.205-1.066.684-2.649 1.064-3.517s.267-2.691-.25-4.052c-.609-1.601-.579-3.123.085-4.31.713-1.273.705-1.636-.024-1.185-.578.357-1.208-.144-1.4-1.113-.24-1.211-.582-1.392-1.093-.578m102.104-.001c.721.289 1.584.253 1.916-.079s-.258-.568-1.312-.525c-1.165.048-1.402.285-.604.604m34.456.01c.973.254 2.323.237 3-.037s-.119-.481-1.769-.461-2.204.244-1.231.498m-94.536 2.431c.679.684 1.486.991 1.793.683.308-.308-.247-.867-1.233-1.243-1.425-.542-1.54-.428-.56.56m105.81 3.807c-.317.512-.118 1.213.441 1.559s1.016-.074 1.016-.931c0-1.757-.6-2.015-1.457-.628M149 156.976c0 1.242 4.641 2.864 5.926 2.07.912-.564.754-.985-.592-1.586-2.451-1.094-5.334-1.355-5.334-.484m-36 1.524c0 .825.177 1.5.393 1.5s.652-.675.969-1.5.139-1.5-.393-1.5c-.533 0-.969.675-.969 1.5m-50.187.183c.721.289 1.584.253 1.916-.079s-.258-.568-1.312-.525c-1.165.048-1.402.285-.604.604m95.266.9c.048 1.165.285 1.402.604.605.289-.722.253-1.585-.079-1.917s-.568.258-.525 1.312m-84.536 2.348c-.905 1.463 1.499 2.428 2.794 1.123.887-.895.709-1-.751-.443-1.336.509-1.696.375-1.191-.441.398-.644.498-1.17.223-1.17s-.759.419-1.075.931M101.5 168c-.34.55-.168 1 .382 1s1.278-.45 1.618-1 .168-1-.382-1-1.278.45-1.618 1m-9.231 1.693c.973.254 2.323.237 3-.037s-.119-.481-1.769-.461-2.204.244-1.231.498m46.274 1.238c-.317.512-.193 1.167.274 1.456s.85-.13.85-.931c0-1.686-.316-1.833-1.124-.525"/><path fill-opacity=".063" fill-rule="evenodd" d="M95.5 27.635c-1.1.222-4.7.916-8 1.541-3.3.626-7.125 1.908-8.5 2.85-1.375.941-3.459 2.009-4.631 2.372-1.172.364-3.051 1.436-4.174 2.382s-3.427 2.84-5.119 4.209S62 44.045 62 44.739 61.582 46 61.071 46C60.107 46 54 54.518 54 55.862c0 .419-1.008 2.759-2.239 5.2-1.989 3.941-2.241 5.956-2.25 17.99L49.5 92.604l3.923 7.937c4.103 8.302 13.805 19.19 20.272 22.749C82.484 128.127 89.827 130 100 130c10.189 0 17.626-1.902 26.299-6.726 6.542-3.638 19.701-17.861 19.701-21.293 0-.506 1.012-2.846 2.25-5.2 2.012-3.829 2.248-5.705 2.239-17.781-.009-11.981-.262-13.999-2.25-17.938-1.231-2.441-2.239-4.835-2.239-5.32 0-2.372-9.15-13.386-15.206-18.304-3.408-2.768-14.045-7.335-20.51-8.805-6.967-1.585-10.643-1.833-14.784-.998m-4.918 28.638C86.191 58.769 82 62.582 82 64.081c0 .544-.686 2.037-1.525 3.317-1.245 1.899-1.474 5.428-1.25 19.214L79.5 103.5l4.903.311c5.631.357 6.559-.498 6.582-6.061L91 94h8.422c7.984 0 8.648-.172 12.75-3.295 2.381-1.812 5.336-5.3 6.568-7.75 2.594-5.16 2.975-12.627.792-15.514-.808-1.067-1.483-2.483-1.5-3.146-.046-1.753-4.073-5.459-8.742-8.045-5.473-3.031-13.352-3.022-18.708.023m5.673 11.945c-2.36 1.138-4.541 6.872-3.574 9.394.867 2.259 6.005 4.505 8.737 3.819 6.579-1.651 7.935-10.582 2.016-13.279-3.02-1.376-4.212-1.365-7.179.066m-72.24 78.532c.038 1.853 1.926 3.486 3.384 2.927 2.59-.994 1.934-3.677-.899-3.677-1.375 0-2.493.338-2.485.75M34 156.573c0 9.53.173 10.541 1.75 10.241 1.384-.264 1.813-1.55 2.052-6.143l.302-5.809 1.948 2.477c1.071 1.362 1.948 2.968 1.948 3.569 0 .6.374 1.092.831 1.092s1.433 1.125 2.169 2.5c1.676 3.131 4.769 3.269 5.527.247.312-1.24.433-5.852.27-10.25-.276-7.427-.457-8.02-2.547-8.317-2.11-.299-2.25.04-2.25 5.439v5.758l-2-2.147c-1.1-1.18-2-2.612-2-3.181 0-1.835-4.305-6.049-6.18-6.049-1.645 0-1.82 1.016-1.82 10.573m22.215-.323c.264 9.488.434 10.25 2.285 10.25 1.638 0 2.056-.769 2.307-4.25.307-4.229.327-4.25 4.25-4.25 3.276 0 3.943-.338 3.943-2 0-1.667-.667-2-4-2s-4-.333-4-2c0-1.704.667-2 4.5-2s4.5-.296 4.5-2c0-1.81-.667-2-7.035-2H55.93zm15.97-8.5c.199 1.048 1.417 1.875 3.034 2.063 2.663.308 2.706.43 2.992 8.5.262 7.424.475 8.187 2.289 8.187s2.027-.763 2.29-8.25l.291-8.25h3.459c2.793 0 3.46-.385 3.46-2 0-1.853-.667-2-9.073-2-8.101 0-9.038.188-8.742 1.75m-47.542 5.452c-1.19 4.443-.695 11.51.899 12.833 2.57 2.133 3.578-.227 3.257-7.624-.235-5.405-.648-6.957-1.92-7.199-.994-.19-1.858.579-2.236 1.99m67.107-1.122c-3.842 2.238-.964 7.909 4.595 9.057 2.213.456 2.301 2.251.132 2.701-.895.186-2.239-.489-2.985-1.5-1.047-1.418-1.632-1.568-2.557-.655-1.948 1.92-.306 4.157 3.589 4.887 4.72.886 8.481-.803 8.461-3.799-.022-3.2-.991-4.256-4.907-5.347-1.882-.525-3.607-1.51-3.833-2.189-.597-1.792 3.427-1.533 4.117.265.94 2.45 3.638 1.788 3.638-.893 0-3.476-6.057-4.969-10.25-2.527m15.25 9.993c0 10.006.169 11.042 1.75 10.742 1.114-.211 1.857-1.418 2.045-3.323.279-2.835.53-2.992 4.786-2.992 5.362 0 6.382-1.217 6.404-7.635.012-3.832-.412-4.915-2.45-6.25-2.857-1.872-5.672-2.078-7.222-.528-.783.783-1.275.783-1.759 0-.37-.598-1.32-1.087-2.113-1.087-1.168 0-1.441 2.099-1.441 11.073m20.782-10.011c-1.111.648-1.677 2.14-1.601 4.22.065 1.77-.189 4.183-.565 5.363-1.162 3.643 1.607 5.326 8.167 4.962l5.717-.316-.359-5.895c-.487-7.995-1.378-9.403-5.926-9.366-2.043.017-4.488.482-5.433 1.032m17.392 1.252c-2.841 3.025-2.929 8.931-.174 11.686 3.489 3.489 13 1.661 13-2.498 0-2.454-1.952-2.685-4.664-.552-2.48 1.951-2.76 1.977-4.49.41-2.423-2.192-2.336-4.606.249-6.946 2.065-1.869 2.123-1.863 3.998.453 2.005 2.475 4.907 2.31 4.907-.279 0-2.165-3.986-4.588-7.548-4.588-1.951 0-3.911.86-5.278 2.314m18.659-.983c-2.189 1.665-3.231 7.492-1.945 10.876.758 1.993 1.955 2.86 4.643 3.365 4.145.777 8.469-.78 8.469-3.051 0-1.777-3.09-2.031-4.733-.388-1.267 1.267-4.267.493-4.267-1.102 0-.567 1.096-1.031 2.435-1.031s3.564-.429 4.943-.954c2.271-.863 2.421-1.259 1.584-4.179-.509-1.775-1.496-3.589-2.194-4.031-1.92-1.219-7.056-.934-8.935.495m-51.276 3.892c-.856 1.222-1.557 2.742-1.557 3.377 0 1.955 2.794 3.6 4.952 2.915 2.482-.787 2.748-4.672.477-6.944-2-1.999-2.018-1.996-3.872.652m17.175-.223c-1.639 1.915-1.617 1.999.528 1.985 2.966-.021 5.166-1.487 4.309-2.873-1.041-1.685-2.931-1.338-4.837.888m36.935-1.333c-1.551 1.55-.513 3.333 1.94 3.333 1.966 0 2.458-.389 2-1.582-.334-.87-.607-1.77-.607-2 0-.674-2.605-.48-3.333.249m-35.417 5.995c-1.652.667-1.612 3.338.05 3.338 1.441 0 3.7-1.954 3.7-3.2 0-.871-1.771-.936-3.75-.138"/><path fill-opacity=".141" fill-rule="evenodd" d="M87.377 29.475C71.619 33.331 59.179 44.432 52.048 61c-2.053 4.771-2.375 7.157-2.431 18l-.064 12.5 4.362 8.939c3.353 6.871 5.874 10.4 10.894 15.25C68.402 119.16 71.73 122 72.206 122c.475 0 2.05.777 3.499 1.726 12.604 8.259 35.986 8.259 48.59 0 1.449-.949 3.011-1.726 3.47-1.726 2.401 0 18.235-17.9 18.235-20.614 0-.415.999-2.809 2.22-5.32 1.943-3.998 2.212-6.121 2.163-17.066-.05-10.861-.368-13.221-2.428-18-7.282-16.896-19.868-27.968-36.219-31.865-6.058-1.443-17.738-1.281-24.359.34m1.112 27.788c-3.33 2.177-5.896 4.921-7.716 8.25-2.635 4.82-2.727 5.509-2.75 20.582C77.997 103.904 78.44 105 85.66 105c3.21 0 4.258-.479 5.296-2.419.712-1.33 1.104-3.718.871-5.307l-.424-2.888 8.048.032c7.124.028 8.509-.279 12.049-2.672 5.05-3.414 9.628-10.619 10.201-16.056.664-6.289-3.722-14.226-10.19-18.44C107.176 54.425 105.669 54 100 54c-5.678 0-7.169.422-11.511 3.263m6.7 12.776c-2.493 2.323-2.913 7.115-.778 8.887.776.644 2.913 1.409 4.75 1.701C105.549 81.641 109.483 74.483 105 70c-2.574-2.574-7.025-2.557-9.811.039M25 147.441c0 2.054 2.07 3.063 3.046 1.485.452-.732.6-1.689.329-2.128-.84-1.36-3.375-.877-3.375.643M34 156c0 9.333.133 10 2 10 1.779 0 2.007-.689 2.068-6.25.056-5.237.243-5.885 1.152-4 .597 1.238 1.467 2.25 1.933 2.25s.849.563.852 1.25c.006 1.813 5.96 7.89 7.062 7.209.513-.318.933-5.05.933-10.518 0-8.17-.267-9.941-1.5-9.941-1.167 0-1.5 1.333-1.5 6 0 3.3-.396 6-.88 6s-2.6-2.7-4.702-6c-2.351-3.691-4.514-6-5.62-6-1.611 0-1.798 1.041-1.798 10m22.667-9.333c-.367.366-.667 4.866-.667 10 0 8.666.143 9.333 2 9.333 1.662 0 2-.667 2-3.943 0-3.923.021-3.943 4.25-4.25 2.974-.215 4.25-.757 4.25-1.807s-1.276-1.592-4.25-1.807c-3.436-.249-4.25-.68-4.25-2.25 0-1.069.675-1.999 1.5-2.068s2.4-.238 3.5-.375 2.675-.306 3.5-.375 1.5-.8 1.5-1.625c0-1.175-1.37-1.5-6.333-1.5-3.484 0-6.634.3-7 .667M73 147.96c0 1.6.647 2.04 3 2.04h3v7.893c0 5.849.363 8.032 1.402 8.431 2.261.868 2.598-.226 2.598-8.427v-7.77l3.25-.314c2.083-.2 3.25-.852 3.25-1.813 0-1.189-1.712-1.56-8.25-1.79-7.733-.273-8.25-.163-8.25 1.75m-47.277 3.651c-.398.397-.723 3.797-.723 7.556 0 5.407.313 6.833 1.5 6.833.825 0 1.529-.338 1.565-.75.035-.412.274-3.007.531-5.766.456-4.896-1.23-9.517-2.873-7.873m66.5.946c-3.506 2.455-2.751 4.788 2.352 7.267 2.572 1.25 4.388 2.76 4.147 3.45-.475 1.356-4.028 1.071-4.555-.366-.632-1.721-4.333-1.007-3.99.77.765 3.97 11.237 3.792 12.241-.207.919-3.662-.247-5.188-4.48-5.865C95.4 157.2 94 156.447 94 155.488c0-1.663 3.537-2.046 4.5-.488.962 1.556 3.5 1.176 3.5-.525 0-1.443-3.709-3.475-6.343-3.475-.666 0-2.212.701-3.434 1.557m15.444-.89c-1.128 1.128-.764 20.155.4 20.874 1.521.941 2.202-.06 2.325-3.42.103-2.788.319-2.926 4.504-2.864 5.229.076 7.104-1.844 7.104-7.274 0-2.506-.719-4.309-2.314-5.809-2.662-2.5-3.881-2.665-6.83-.924-1.694 1-2.208 1-2.57 0-.498-1.374-1.586-1.617-2.619-.583m20.583.828c-1.237.89-2.25 2.268-2.25 3.062 0 1.942 2.632 1.843 3.389-.127.759-1.978 5.111-1.504 5.111.556 0 .818-.9 1.623-2 1.789-6.166.933-6.5 1.174-6.5 4.675 0 3.842 1.161 4.325 8.86 3.691l4.359-.36-.404-6.352c-.223-3.494-.666-6.614-.986-6.933-1.523-1.523-7.461-1.524-9.579-.001m18.502.262c-5.427 3.365-4.305 12.331 1.687 13.476 3.872.74 7.503-.257 8.634-2.37 1.366-2.551-1.409-3.67-3.619-1.46-3.009 3.009-6.454 1.193-6.454-3.403 0-5.018 4.571-6.743 7.285-2.75 1.459 2.146 1.565 2.162 2.289.344.548-1.375.125-2.419-1.518-3.75-2.804-2.27-4.75-2.291-8.304-.087m17.631-.029c-4.204 3.518-3.97 11.718.381 13.372 3.219 1.224 8.931.138 9.69-1.841.941-2.452-.282-2.792-3.404-.947-2.633 1.555-3.029 1.566-4.47.126-2.544-2.545-1.877-3.309 3.17-3.633 3.87-.249 4.803-.677 5.038-2.312.698-4.873-6.396-8.122-10.405-4.765m-51.633 2.352c-2.499 1.456-2.297 6.557.314 7.954 1.532.82 2.434.798 3.5-.087 1.745-1.448 1.886-6.097.236-7.747-1.433-1.433-1.778-1.443-4.05-.12m52.974.868c-.453 1.73-.07 2.052 2.443 2.052 2.298 0 2.903-.4 2.646-1.75-.495-2.598-4.428-2.832-5.089-.302M132.5 159.8c-3.779.815-4.189 4.2-.508 4.2 1.03 0 2.17-.934 2.532-2.075.786-2.476.584-2.688-2.024-2.125"/><path fill-opacity=".104" fill-rule="evenodd" d="M89.5 29.394C76.345 31.82 61.232 42.987 55.738 54.343c-5.766 11.917-5.854 12.274-5.891 24.073-.03 9.418.322 12.179 2.058 16.102C53.057 97.123 54 99.657 54 100.149c0 1.294 5.255 9.208 6.74 10.151.693.44 1.26 1.207 1.26 1.704 0 1.176 4.82 5.996 5.996 5.996.497 0 1.264.583 1.704 1.296 1.222 1.981 7.796 5.509 14.641 7.856 9.413 3.229 18.96 3.547 27.816.927 8.018-2.371 16.88-6.644 18.143-8.747.44-.733 1.238-1.332 1.774-1.332 1.251 0 8.714-8.044 10.334-11.138.681-1.299 1.715-3.262 2.298-4.362 4.526-8.534 5.371-12.3 5.368-23.916-.003-9.616-.347-11.927-2.593-17.448-7.063-17.356-20.028-28.194-37.981-31.748-7.933-1.57-11.459-1.569-20 .006m-1.554 27.428c-3.14 1.993-5.254 4.42-7.196 8.264C78.091 70.349 78 71.057 78 86.564c0 11.139.366 16.402 1.2 17.236.66.66 3.27 1.2 5.8 1.2 5.652 0 6.999-1.241 7.003-6.45l.002-4.05 8.369-.033c7.596-.03 8.707-.291 12.035-2.83 8.514-6.494 11.662-16.727 7.678-24.958C115.529 57.264 110.313 54 99.828 54c-6.441 0-8.032.378-11.882 2.822M96.25 69.22c-1.237.597-2.307 1.804-2.378 2.683-.07.878-.234 2.629-.365 3.891-.357 3.436 4.628 5.807 8.68 4.129 5.225-2.165 5.933-8.636 1.181-10.801-2.954-1.346-4.158-1.329-7.118.098m-70.556 77.419c-.799.799.104 2.361 1.365 2.361.518 0 .941-.675.941-1.5 0-1.546-1.18-1.987-2.306-.861M34 156.073c0 9.054.177 10.04 1.75 9.742 1.364-.259 1.86-1.654 2.25-6.324l.5-5.991 3 4.389c1.65 2.414 3.444 5.227 3.987 6.25.543 1.024 1.781 1.861 2.75 1.861 1.567 0 1.763-1.119 1.763-10.083 0-7.62-.305-9.983-1.25-9.672-.763.251-1.445 3.026-1.75 7.123l-.5 6.712-3.5-5.151c-1.925-2.833-3.944-6.001-4.487-7.04S36.732 146 35.763 146C34.196 146 34 147.118 34 156.073m23-.121c0 8.265.266 10.048 1.5 10.048 1.11 0 1.5-1.164 1.5-4.475 0-4.337.085-4.46 2.75-3.973 1.513.276 3.425.04 4.25-.525 1.333-.913 1.333-1.139 0-2.034-.825-.554-2.625-.891-4-.75-2.061.212-2.556-.226-2.816-2.493-.309-2.685-.195-2.75 4.833-2.75 7.665 0 6.071-2.416-1.846-2.798L57 145.905zm16-8.452q0 1.5 3 1.5h3v8.5c0 6.784.295 8.5 1.46 8.5 1.138 0 1.523-1.818 1.75-8.25.28-7.963.377-8.26 2.79-8.549 8.463-1.012 5.254-3.165-4.75-3.186-5.785-.012-7.25.288-7.25 1.485m-47.333 5.167c-.367.366-.667 3.516-.667 7 0 4.963.325 6.333 1.5 6.333 1.19 0 1.5-1.444 1.5-7 0-6.446-.598-8.069-2.333-6.333m66.299 1.159-2.255 1.827 2.333 2.173c1.283 1.196 3.058 2.174 3.945 2.174 2.538 0 4.174 2.099 2.865 3.676-1.469 1.77-3.781 1.679-4.492-.176-.609-1.585-4.362-2.121-4.362-.622 0 1.96 3.098 3.227 7.176 2.933 4.061-.292 4.343-.506 4.635-3.527.272-2.816-.038-3.292-2.5-3.833-4.786-1.052-5.311-1.341-5.311-2.92 0-1.835 4.052-2.079 5.783-.348.651.651 1.528.839 1.949.419 1.071-1.072-2.661-3.602-5.312-3.602-1.209 0-3.213.822-4.454 1.826m15.483.521c-.433 1.727-.057 14.995.494 17.403.031.137.507.25 1.057.25s1-1.52 1-3.377v-3.377l4.399.496c3.911.44 4.589.205 6.112-2.119 3.885-5.929-1.194-13.455-7.226-10.707-1.898.865-2.841.915-3.092.164-.623-1.871-2.131-1.175-2.744 1.267m19.992-.914c-1.528 1.128-1.682 1.695-.724 2.667.964.978 1.351.887 1.857-.433.787-2.051 5.986-2.255 6.75-.265.715 1.862-.151 2.598-3.056 2.598-4.036 0-6.268 1.793-6.268 5.035V166l6.389-.176 6.389-.176-.536-6.074c-.295-3.341-1.033-6.405-1.639-6.809-1.85-1.232-7.107-.849-9.162.668m18.366.317c-2.551 2.97-2.824 5.147-1.097 8.768 1.412 2.962 2.165 3.482 5.041 3.482 4.085 0 7.249-1.543 7.249-3.535 0-1.916-1.899-1.891-2.638.035-.698 1.819-5.042 1.981-6.708.25-1.372-1.425-1.462-3.266-.316-6.5.926-2.615 5.381-3.145 6.3-.75.671 1.749 3.362 2.037 3.362.36 0-3.57-8.554-5.183-11.193-2.11m18.443-.53c-1.855.895-2.25 1.902-2.25 5.733 0 5.858 1.215 7.047 7.2 7.047 4.095 0 4.8-.287 4.8-1.953 0-1.884-.11-1.893-3.05-.25-2.918 1.63-3.112 1.619-4.5-.238-2.254-3.017-1.79-3.559 3.05-3.559 2.87 0 4.543-.453 4.618-1.25.546-5.757-4.053-8.334-9.868-5.53m-53.3 3.412c-1.338 3.519-.34 6.232 2.56 6.96 3.525.885 4.49-.222 4.49-5.151 0-4.276-.112-4.441-3.025-4.441-2.346 0-3.249.59-4.025 2.632m54.678-1.104c-.939 2.445-.907 2.472 2.945 2.472 2.863 0 3.508-.348 3.242-1.75-.447-2.353-5.342-2.925-6.187-.722m-34.378 4.503c-2.563 1.03-2.997 3.745-.737 4.612 1.962.753 4.487-1.366 4.487-3.765 0-2.074-.447-2.174-3.75-.847"/></svg>