<svg xmlns="http://www.w3.org/2000/svg" width="64" height="64" fill="#000000"><path fill="#000000" d="M32 64c17.673 0 32-14.327 32-32C64 14.327 49.673 0 32 0 14.327 0 0 14.327 0 32c0 17.673 14.327 32 32 32Z"/><path fill="#000000" d="m13 20.107 4.354.04c.239.002.477 0 .75 0 .021.187.049.329.049.47.002 7.664.002 15.327.001 22.99 0 .132-.008.262-.012.393H13V20.107ZM51 44V20.194h-5.155v.713c0 4.391-.002 8.782 0 13.173.002 3.306.009 6.614.013 9.92H51ZM20.082 33.54c.91 6.383 6.518 10.828 12.957 10.334 6.198-.475 11.05-5.798 11.001-12.13-.046-6.144-4.605-10.408-8.478-11.303 0 1.67.015 3.33-.01 4.991-.007.42.127.659.47.908a6.827 6.827 0 0 1 1.612 9.41c-2.13 3.083-6.346 3.883-9.45 1.794-3.957-2.66-4.04-8.444-.17-11.26.175-.128.399-.345.402-.525.03-1.773.018-3.546.018-5.366-5.14 1.475-9.246 6.868-8.352 13.147Zm13.941-11.404C34.018 20.902 33.157 20 32 20c-1.154 0-2.021.906-2.022 2.136-.005 3.21-.005 6.422 0 9.633.002 1.238.86 2.13 2.024 2.13 1.164 0 2.018-.895 2.022-2.13.006-1.605.001-3.21.001-4.817 0-1.605.006-3.21 0-4.816Z"/></svg>