<svg width="500" height="500" viewBox="0 0 500 500" fill="#000000" xmlns="http://www.w3.org/2000/svg">
<path d="M302.703 299.375C302.703 306.703 296.766 312.672 289.406 312.672C282.047 312.672 276.109 306.734 276.109 299.375C276.109 292.047 282.047 286.078 289.406 286.078C296.766 286.078 302.703 292.016 302.703 299.375Z" fill="#000000"/>
<path d="M333.391 271.766C333.391 279.687 326.969 286.078 319.078 286.078C311.188 286.078 304.766 279.656 304.766 271.766C304.766 263.844 311.188 257.453 319.078 257.453C326.969 257.453 333.391 263.875 333.391 271.766Z" fill="#000000"/>
<path d="M360.75 232.687C360.75 241.75 353.422 249.078 344.359 249.078C335.297 249.078 327.969 241.75 327.969 232.687C327.969 223.625 335.297 216.297 344.359 216.297C353.422 216.297 360.75 223.625 360.75 232.687Z" fill="#000000"/>
<path d="M384.266 179.688C384.266 192.672 373.75 203.203 360.75 203.203C347.75 203.203 337.234 192.687 337.234 179.688C337.234 166.703 347.75 156.172 360.75 156.172C373.75 156.172 384.266 166.688 384.266 179.688Z" fill="#000000"/>
<path d="M395.266 115.297C395.266 129.359 383.875 140.75 369.812 140.75C355.75 140.75 344.359 129.359 344.359 115.297C344.359 101.234 355.75 89.8438 369.812 89.8438C383.875 89.8438 395.266 101.234 395.266 115.297Z" fill="#000000"/>
<path d="M394.187 40.5C394.187 57.8906 380.078 71.9844 362.703 71.9844C345.328 71.9844 331.219 57.875 331.219 40.5C331.219 23.1094 345.328 9.01562 362.703 9.01562C380.078 9.01562 394.187 23.125 394.187 40.5Z" fill="#000000"/>
<path d="M324.016 315.813C330.141 317.266 333.906 323.422 332.453 329.516C331 335.61 324.844 339.407 318.75 337.954C312.625 336.5 308.86 330.344 310.313 324.25C311.766 318.157 317.922 314.36 324.016 315.813Z" fill="#000000"/>
<path d="M354.421 297.812C361 299.375 365.093 306 363.5 312.578C361.906 319.156 355.312 323.25 348.734 321.656C342.156 320.093 338.062 313.468 339.656 306.89C341.25 300.312 347.843 296.218 354.421 297.812Z" fill="#000000"/>
<path d="M383.672 268.547C391.218 270.343 395.875 277.922 394.093 285.468C392.312 293.015 384.718 297.672 377.172 295.89C369.625 294.093 364.968 286.515 366.75 278.968C368.531 271.422 376.125 266.765 383.672 268.547Z" fill="#000000"/>
<path d="M409.266 221.672C420.094 224.25 426.781 235.109 424.203 245.937C421.625 256.766 410.766 263.453 399.937 260.875C389.109 258.297 382.422 247.437 385 236.609C387.578 225.781 398.437 219.094 409.266 221.672V221.672Z" fill="#000000"/>
<path d="M430.016 168.172C441.75 170.969 448.969 182.734 446.188 194.469C443.406 206.203 431.625 213.422 419.891 210.641C408.156 207.844 400.938 196.078 403.719 184.344C406.5 172.609 418.281 165.391 430.016 168.172Z" fill="#000000"/>
<path d="M440.125 99.3752C454.625 102.828 463.563 117.375 460.125 131.875C456.688 146.375 442.125 155.313 427.625 151.875C413.125 148.422 404.188 133.875 407.625 119.375C411.063 104.875 425.625 95.9377 440.125 99.3752Z" fill="#000000"/>
<path d="M352.735 346.578C357.532 348.875 359.547 354.594 357.282 359.406C355.016 364.219 349.266 366.234 344.469 363.953C339.672 361.656 337.657 355.938 339.922 351.125C342.188 346.313 347.938 344.297 352.735 346.578Z" fill="#000000"/>
<path d="M381.047 337.125C386.218 339.578 388.406 345.765 385.937 350.937C383.468 356.109 377.297 358.297 372.125 355.828C366.953 353.375 364.765 347.187 367.234 342.015C369.703 336.843 375.875 334.656 381.047 337.125Z" fill="#000000"/>
<path d="M410.391 318.125C416.313 320.953 418.813 328.047 416 333.937C413.188 339.828 406.078 342.359 400.188 339.547C394.266 336.719 391.766 329.625 394.578 323.734C397.391 317.844 404.5 315.312 410.391 318.125Z" fill="#000000"/>
<path d="M439.859 283.953C448.343 288 451.937 298.156 447.875 306.64C443.812 315.125 433.671 318.718 425.187 314.656C416.703 310.609 413.109 300.453 417.171 291.968C421.234 283.484 431.375 279.89 439.859 283.953V283.953Z" fill="#000000"/>
<path d="M466.485 243.438C475.672 247.828 479.563 258.828 475.172 268.016C470.781 277.203 459.781 281.094 450.594 276.703C441.406 272.313 437.516 261.313 441.906 252.125C446.297 242.938 457.297 239.047 466.485 243.438V243.438Z" fill="#000000"/>
<path d="M487.015 188.422C498.375 193.844 503.187 207.438 497.765 218.813C492.343 230.188 478.75 234.985 467.375 229.563C456.015 224.141 451.203 210.547 456.625 199.172C462.047 187.797 475.64 183 487.015 188.422Z" fill="#000000"/>
<path d="M303.813 196.922C307.485 203.282 305.313 211.407 298.953 215.063C292.594 218.719 284.469 216.563 280.813 210.203C277.141 203.844 279.313 195.719 285.672 192.063C292.032 188.407 300.157 190.563 303.813 196.922Z" fill="#000000"/>
<path d="M265.984 184.515C269.937 191.375 267.593 200.125 260.734 204.078C253.875 208.031 245.125 205.687 241.171 198.828C237.218 191.968 239.562 183.218 246.421 179.265C253.281 175.312 262.031 177.656 265.984 184.515Z" fill="#000000"/>
<path d="M221.297 181.125C225.812 188.953 223.125 199 215.297 203.516C207.469 208.031 197.422 205.344 192.906 197.516C188.391 189.687 191.078 179.641 198.906 175.125C206.734 170.609 216.781 173.297 221.297 181.125Z" fill="#000000"/>
<path d="M173.375 189.875C179.875 201.125 176.016 215.5 164.766 222C153.516 228.5 139.141 224.641 132.641 213.391C126.141 202.141 130 187.766 141.25 181.266C152.5 174.766 166.875 178.625 173.375 189.875Z" fill="#000000"/>
<path d="M114.75 213.25C121.766 225.437 117.609 241 105.437 248.016C93.2655 255.031 77.6874 250.875 70.6718 238.703C63.6561 226.516 67.8124 210.953 79.9843 203.937C92.1561 196.922 107.734 201.078 114.75 213.25V213.25Z" fill="#000000"/>
<path d="M58.7497 253.812C67.4372 268.875 62.2966 288.125 47.2341 296.812C32.1716 305.5 12.9216 300.359 4.23411 285.297C-4.45339 270.234 0.687234 250.984 15.7497 242.297C30.8122 233.609 50.0622 238.75 58.7497 253.812Z" fill="#000000"/>
<path d="M311.078 158.89C312.875 164.906 309.453 171.265 303.406 173.062C297.359 174.859 291.031 171.437 289.234 165.39C287.437 159.375 290.859 153.015 296.906 151.218C302.953 149.422 309.281 152.843 311.078 158.89Z" fill="#000000"/>
<path d="M282 141.047C283.938 147.547 280.25 154.375 273.75 156.313C267.25 158.25 260.422 154.563 258.485 148.063C256.547 141.563 260.235 134.735 266.735 132.797C273.235 130.86 280.063 134.547 282 141.047Z" fill="#000000"/>
<path d="M245.438 129.328C247.641 136.765 243.422 144.578 235.985 146.812C228.547 149.047 220.735 144.797 218.5 137.359C216.297 129.922 220.516 122.109 227.953 119.875C235.391 117.64 243.203 121.89 245.438 129.328Z" fill="#000000"/>
<path d="M203.735 127.11C206.922 137.782 200.844 149 190.172 152.172C179.5 155.344 168.281 149.282 165.11 138.61C161.922 127.938 168 116.719 178.672 113.547C189.344 110.375 200.563 116.438 203.735 127.11V127.11Z" fill="#000000"/>
<path d="M150.235 134.938C153.672 146.485 147.11 158.641 135.547 162.078C123.985 165.516 111.844 158.953 108.407 147.391C104.969 135.844 111.532 123.688 123.094 120.25C134.657 116.813 146.797 123.375 150.235 134.938Z" fill="#000000"/>
<path d="M95.4996 157.625C99.7496 171.89 91.6246 186.937 77.359 191.187C63.0934 195.437 48.0465 187.312 43.7965 173.046C39.5465 158.781 47.6715 143.734 61.9371 139.484C76.2027 135.234 91.2496 143.359 95.4996 157.625Z" fill="#000000"/>
<path d="M320.734 123.672C321.156 128.969 317.187 133.594 311.906 134C306.624 134.407 301.984 130.454 301.578 125.172C301.156 119.875 305.124 115.25 310.406 114.844C315.687 114.438 320.328 118.391 320.734 123.672V123.672Z" fill="#000000"/>
<path d="M299.875 103.765C300.312 109.468 296.046 114.453 290.328 114.906C284.609 115.359 279.64 111.078 279.187 105.359C278.75 99.6559 283.015 94.6716 288.734 94.2184C294.453 93.7653 299.421 98.0466 299.875 103.765Z" fill="#000000"/>
<path d="M271.735 87.6095C272.25 94.1564 267.36 99.8595 260.844 100.359C254.328 100.859 248.594 95.9845 248.094 89.4689C247.578 82.922 252.469 77.2189 258.985 76.7189C265.5 76.2189 271.235 81.0939 271.735 87.6095Z" fill="#000000"/>
<path d="M237.688 78.3751C238.422 87.7501 231.422 95.9376 222.047 96.672C212.672 97.4064 204.485 90.4064 203.75 81.0314C203.016 71.6564 210.016 63.4689 219.391 62.7345C228.766 62.0002 236.953 69.0001 237.688 78.3751Z" fill="#000000"/>
<path d="M192.078 75.3592C192.875 85.4998 185.281 94.3748 175.14 95.1717C165 95.9685 156.125 88.3748 155.328 78.2342C154.531 68.0935 162.125 59.2185 172.265 58.4217C182.406 57.6248 191.281 65.2185 192.078 75.3592Z" fill="#000000"/>
<path d="M142.859 84.3747C143.843 96.9215 134.468 107.89 121.922 108.875C109.375 109.859 98.4059 100.484 97.4215 87.9372C96.4372 75.3903 105.812 64.4215 118.359 63.4372C130.906 62.4528 141.875 71.8278 142.859 84.3747Z" fill="#000000"/>
<path d="M215 240.547C221.36 244.219 223.516 252.344 219.86 258.687C216.203 265.031 208.063 267.234 201.719 263.547C195.36 259.875 193.203 251.75 196.86 245.406C200.516 239.062 208.657 236.89 215 240.547V240.547Z" fill="#000000"/>
<path d="M224.61 279.125C231.469 283.079 233.797 291.829 229.86 298.688C225.922 305.547 217.157 307.875 210.297 303.938C203.438 299.985 201.11 291.235 205.047 284.375C208.985 277.516 217.75 275.188 224.61 279.125Z" fill="#000000"/>
<path d="M246.828 318.75C254.656 323.266 257.344 333.312 252.828 341.141C248.312 348.969 238.266 351.656 230.437 347.141C222.609 342.625 219.922 332.578 224.437 324.75C228.953 316.922 239 314.234 246.828 318.75Z" fill="#000000"/>
<path d="M288.109 353.297C299.359 359.797 303.219 374.172 296.719 385.422C290.219 396.672 275.844 400.531 264.594 394.031C253.344 387.531 249.484 373.156 255.984 361.906C262.484 350.656 276.859 346.797 288.109 353.297Z" fill="#000000"/>
<path d="M340.312 391.671C352.5 398.687 356.671 414.281 349.625 426.437C342.578 438.593 327.015 442.797 314.859 435.75C302.671 428.734 298.5 413.14 305.546 400.984C312.593 388.828 328.156 384.625 340.312 391.671Z" fill="#000000"/>
<path d="M411.672 417.672C426.734 426.36 431.875 445.625 423.187 460.672C414.5 475.719 395.234 480.875 380.187 472.188C365.125 463.5 359.984 444.235 368.672 429.188C377.359 414.141 396.625 408.985 411.672 417.672Z" fill="#000000"/>
<path d="M176.375 257.688C180.937 262 181.14 269.203 176.828 273.797C172.515 278.391 165.312 278.563 160.75 274.25C156.187 269.938 155.984 262.735 160.297 258.141C164.609 253.547 171.812 253.375 176.375 257.688Z" fill="#000000"/>
<path d="M176.703 291.75C181.625 296.391 181.844 304.172 177.187 309.078C172.531 313.985 164.766 314.219 159.859 309.563C154.937 304.922 154.719 297.141 159.375 292.235C164.031 287.328 171.797 287.094 176.703 291.75V291.75Z" fill="#000000"/>
<path d="M187.375 329.203C193.015 334.531 193.25 343.437 187.937 349.062C182.625 354.687 173.703 354.937 168.078 349.625C162.437 344.297 162.203 335.39 167.515 329.765C172.828 324.14 181.75 323.89 187.375 329.203Z" fill="#000000"/>
<path d="M214.922 366.187C223 373.828 223.36 386.578 215.719 394.672C208.078 402.766 195.328 403.109 187.235 395.469C179.156 387.828 178.797 375.078 186.438 366.984C194.078 358.891 206.828 358.547 214.922 366.187Z" fill="#000000"/>
<path d="M250.812 408.563C259.562 416.828 259.953 430.641 251.672 439.422C243.39 448.203 229.594 448.563 220.812 440.282C212.062 432.016 211.672 418.203 219.953 409.422C228.234 400.641 242.031 400.282 250.812 408.563Z" fill="#000000"/>
<path d="M305.125 444.422C315.953 454.656 316.437 471.734 306.187 482.562C295.937 493.391 278.875 493.875 268.047 483.625C257.219 473.391 256.734 456.312 266.984 445.484C277.234 434.656 294.297 434.172 305.125 444.422Z" fill="#000000"/>
<path d="M138.328 269.89C141.328 274.265 140.218 280.265 135.843 283.265C131.468 286.265 125.468 285.156 122.468 280.781C119.468 276.406 120.578 270.406 124.953 267.406C129.328 264.406 135.328 265.515 138.328 269.89Z" fill="#000000"/>
<path d="M132.578 298.078C135.828 302.781 134.625 309.25 129.906 312.5C125.188 315.75 118.735 314.547 115.485 309.828C112.235 305.125 113.438 298.656 118.156 295.406C122.875 292.156 129.328 293.36 132.578 298.078V298.078Z" fill="#000000"/>
<path d="M134.75 330.922C138.453 336.312 137.078 343.719 131.687 347.422C126.297 351.125 118.891 349.75 115.187 344.359C111.484 338.969 112.859 331.562 118.25 327.859C123.641 324.156 131.047 325.531 134.75 330.922Z" fill="#000000"/>
<path d="M150.938 366.359C156.25 374.11 154.297 384.719 146.547 390.031C138.797 395.344 128.188 393.391 122.875 385.641C117.563 377.891 119.516 367.281 127.266 361.969C135.016 356.656 145.625 358.609 150.938 366.359Z" fill="#000000"/>
<path d="M173.079 407.704C178.844 416.094 176.704 427.579 168.313 433.329C159.922 439.079 148.438 436.953 142.688 428.563C136.922 420.172 139.063 408.688 147.454 402.938C155.844 397.188 167.329 399.313 173.079 407.704Z" fill="#000000"/>
<path d="M211.578 446.937C218.703 457.312 216.078 471.5 205.687 478.625C195.297 485.75 181.125 483.125 174 472.734C166.875 462.359 169.5 448.172 179.891 441.047C190.281 433.922 204.453 436.547 211.578 446.937Z" fill="#000000"/>
</svg>
