<!-- Generated by IcoMoon.io -->
<svg version="1.1" xmlns="http://www.w3.org/2000/svg" width="32" height="32" viewBox="0 0 32 32" fill="#000000">
<title>iotx</title>
<path d="M25.676 4.518l6.316 3.633v7.276l-6.316-3.633v-7.276zM19.359 8.151l-0.989-0.569v7.264l-3.634-2.096-0.017 0.009 2.588 1.495-6.307 3.633v-7.25l-0.029-0.017v7.267l-6.317-3.633 6.31-3.638-5.23-3.015 6.319-3.632v3.049l3.629 2.097 2.676-1.539-5.316-3.058 6.317-3.643 6.317 3.643zM25.676 11.794l-6.317 3.633v-7.276zM15.435 23.558l2.525-1.456v7.276l-4.961-2.854-2.519 1.455v-7.276l4.955 2.855zM25.676 19.070l-6.317 3.633-6.307-3.633 6.307-3.643 6.317-3.632 6.316 3.632v7.276l-6.316 3.643-6.317-3.643 6.317-3.633zM6.317 22.488v1.909l-6.317-3.644 6.317-3.632v-1.909l6.316 3.633-6.316 3.643zM3.031 7.906l6.317 3.633-6.317 3.643v-7.276zM19.307 23.835l6.307 3.633-6.307 3.644v-7.277z"/>
</svg>
