<svg width="497" height="500" viewBox="0 0 497 500" fill="#000000" xmlns="http://www.w3.org/2000/svg">
<path fill-rule="evenodd" clip-rule="evenodd" d="M218.19 2.49466C12.4422 32.5007 -72.6534 279.699 72.5699 425.518C230.16 583.757 496.929 473.282 496.725 249.867C496.587 98.8635 364.115 -18.7874 218.19 2.49466ZM294.663 72.7518C369.04 84.611 415.67 162.473 389.722 231.473L383.401 248.275L395.6 260.29C409.935 274.41 410.154 275.581 400.223 285.095L392.648 292.353L380.666 280.552L368.686 268.753L361.858 275.579L355.032 282.407L366.83 294.387L378.632 306.369L371.373 313.944C361.852 323.883 360.693 323.661 346.461 309.213L334.338 296.904L323.929 301.499C262.409 328.657 186.331 294.965 164.3 230.807C138.025 154.297 191.521 76.4727 274.55 70.4187C276.624 70.2679 285.675 71.3188 294.663 72.7518ZM141.301 190.785V293.864H123.702H106.103V190.785V87.7058H123.702H141.301V190.785ZM253.491 109.259C158.141 139.791 178.741 275.008 278.743 275.008C309.478 275.008 310.934 273.982 298.409 261.155L288.654 251.164L295.899 243.602C305.285 233.807 306.197 233.95 319.841 247.388L331.364 258.739L338.139 251.667L344.912 244.597L333.616 233.51C320.241 220.384 320.035 219.054 329.88 209.621L337.443 202.375L347.384 212.082L357.325 221.787L360.165 214.458C382.405 157.121 314.17 89.8278 253.491 109.259ZM344.945 348.126C344.945 358.376 345.792 361.813 348.088 360.86C381.908 346.836 395.129 358.248 395.19 401.519C395.227 426.994 395.124 427.447 389.571 426.66C384.193 425.896 383.879 424.613 383.187 400.805C382.317 370.746 379.663 366.125 363.932 367.281C349.707 368.327 344.955 378.115 344.95 406.371C344.945 425.436 344.538 427.112 339.917 427.112C335.07 427.112 334.888 425.436 334.888 380.601C334.888 335.767 335.07 334.09 339.917 334.09C344.344 334.09 344.945 335.767 344.945 348.126ZM151.332 355.832C159.174 357.401 176.499 371.912 176.499 376.913C176.499 381.773 163.999 379.186 157.872 373.059C145.306 360.493 123.091 367.905 119.737 385.78C115.152 410.215 141.296 427.346 157.872 410.771C164.901 403.739 173.985 402.391 173.985 408.377C173.985 414.404 161.753 424.314 150.611 427.314C110 438.248 88.703 377.826 126.395 358.608C135.86 353.781 139.209 353.408 151.332 355.832ZM241.999 360.609C247.153 365.273 249.408 365.235 249.408 360.488C249.408 358.143 251.782 356.717 255.694 356.717H261.979V391.915V427.112H255.694C251.782 427.112 249.408 425.687 249.408 423.341C249.408 418.552 248.186 418.607 240.322 423.761C219.646 437.307 186.555 418.574 186.555 393.323C186.555 364.423 222.668 343.113 241.999 360.609ZM314.147 363.236C317.257 366.718 319.804 370.635 319.804 371.943C319.804 375.935 307.63 374.577 305.244 370.318C301.901 364.34 291.077 366.716 290.094 373.645C289.433 378.298 291.628 380.289 302.944 385.295C318.863 392.335 323.99 401.456 319.409 414.595C312.621 434.067 274.55 429.853 274.55 409.627C274.55 402.291 285.137 402.685 288.41 410.142C291.387 416.925 302.527 418.954 307.027 413.534C312.09 407.432 307.819 400.236 296.453 395.711C282.235 390.047 277.064 384.963 277.064 376.646C277.064 355.85 300.103 347.518 314.147 363.236ZM207.913 372.843C186.425 394.333 209.635 427.351 236.473 413.473C248.599 407.203 252.498 392.614 245.612 379.294C238.369 365.288 218.814 361.941 207.913 372.843Z" fill="#000000"/>
</svg>
