<svg xmlns="http://www.w3.org/2000/svg" width="64" height="64" version="1.1" fill="#000000"><path fill-opacity=".102" d="M 18.500 2.882 C 6.619 8.586, 0.026 18.969, 0.011 32 C 0.003 38.245, 0.496 40.546, 2.958 45.750 C 4.585 49.188, 6.497 51.975, 7.208 51.945 C 9.247 51.857, 12.933 46.539, 14.451 41.495 C 15.808 36.987, 15.785 36.859, 13.439 35.790 C 9.950 34.200, 9.254 31.023, 11.922 28.862 C 13.119 27.893, 14.796 27.368, 15.650 27.696 C 17.645 28.461, 18.561 26.963, 20.970 19 C 22.051 15.424, 23.738 11.824, 24.718 11 C 26.848 9.207, 32.479 9.079, 34.184 10.784 C 35.618 12.218, 38 12.398, 38 11.073 C 38 10.564, 37.212 9.941, 36.250 9.689 C 35.020 9.368, 35.243 9.175, 37 9.039 C 38.375 8.934, 40.288 8.696, 41.250 8.512 C 42.212 8.328, 43 8.587, 43 9.088 C 43 9.590, 43.541 9.888, 44.201 9.750 C 45.650 9.448, 47.865 15.293, 47.944 19.625 C 47.975 21.344, 48.288 24.189, 48.640 25.948 C 49.187 28.687, 49.613 29.063, 51.600 28.564 C 53.264 28.147, 54.213 28.530, 54.956 29.919 C 56.005 31.877, 55.429 35, 54.020 35 C 53.599 35, 50.205 37.500, 46.477 40.555 C 42.750 43.610, 38.418 46.366, 36.850 46.680 C 35.283 46.993, 34 47.393, 34 47.568 C 34 49.151, 38.551 55, 39.783 55 C 40.655 55, 43.346 55.957, 45.762 57.127 L 50.156 59.254 54.180 55.377 C 56.393 53.245, 59.733 48.388, 61.602 44.585 C 64.549 38.586, 65 36.675, 65 30.168 C 65 26.042, 64.714 22.952, 64.365 23.302 C 64.016 23.651, 62.494 21.363, 60.984 18.218 C 55.415 6.624, 44.912 0.026, 32 0.011 C 25.780 0.003, 23.476 0.493, 18.500 2.882 M 28 16.891 C 26.317 17.388, 28.899 17.858, 35.902 18.330 C 45.214 18.957, 48.193 18.767, 46.917 17.628 C 46 16.811, 30.337 16.200, 28 16.891 M 29.250 20.252 C 26.913 20.819, 25 21.670, 25 22.142 C 25 23.206, 24.595 23.253, 30.284 21.527 C 33.656 20.504, 35.815 20.359, 37.599 21.038 C 38.991 21.567, 41.788 21.961, 43.815 21.914 C 47.098 21.837, 47.225 21.744, 44.980 21.062 C 40.083 19.573, 33.448 19.231, 29.250 20.252 M 0.349 32 C 0.349 36.675, 0.522 38.587, 0.732 36.250 C 0.943 33.912, 0.943 30.087, 0.732 27.750 C 0.522 25.412, 0.349 27.325, 0.349 32 M 40 26.532 C 40 27.528, 40.716 29.133, 41.590 30.100 C 43.244 31.928, 42.675 36.535, 40.928 35.456 C 40.418 35.140, 40 35.310, 40 35.834 C 40 36.358, 40.788 37.122, 41.750 37.533 C 43.125 38.121, 42.751 38.452, 40 39.081 C 38.075 39.521, 35.487 39.634, 34.250 39.332 C 32.940 39.012, 32 39.246, 32 39.892 C 32 41.083, 38.952 41.388, 42.771 40.364 C 44.466 39.910, 44.776 39.434, 43.992 38.490 C 43.255 37.602, 43.274 36.493, 44.054 34.780 C 44.996 32.714, 44.769 31.748, 42.584 28.529 C 40.825 25.937, 40 25.299, 40 26.532 M 12.519 29.969 C 12.169 30.536, 12.160 31.450, 12.500 32 C 13.287 33.274, 17.693 33.306, 18.473 32.044 C 18.798 31.518, 19.837 31.359, 20.782 31.691 C 21.946 32.100, 22.177 31.963, 21.500 31.268 C 20.006 29.736, 13.266 28.761, 12.519 29.969 M 48.190 31.750 C 48.552 33.629, 54.034 34.341, 53.959 32.500 C 53.937 31.950, 53.037 31.536, 51.959 31.579 C 50.882 31.623, 50 31.286, 50 30.829 C 50 30.373, 49.517 30, 48.927 30 C 48.336 30, 48.005 30.788, 48.190 31.750 M 31 33.941 C 31 36.023, 32.711 37.622, 33.788 36.546 C 34.148 36.186, 33.780 35.473, 32.971 34.961 C 31.975 34.331, 31.903 34.026, 32.750 34.015 C 33.438 34.007, 34 33.550, 34 33 C 34 32.450, 33.325 32, 32.500 32 C 31.675 32, 31 32.873, 31 33.941 M 36 36.059 C 36 36.641, 36.450 36.840, 37 36.500 C 37.550 36.160, 38 35.684, 38 35.441 C 38 35.198, 37.550 35, 37 35 C 36.450 35, 36 35.477, 36 36.059 M 29.638 52.500 C 29.322 53.325, 29.499 54, 30.031 54 C 30.564 54, 31 53.325, 31 52.500 C 31 51.675, 30.823 51, 30.607 51 C 30.391 51, 29.955 51.675, 29.638 52.500" stroke="none" fill="#000000" fill-rule="evenodd"/><path fill-opacity=".196" d="M 22.173 1.484 C 3.809 7.215, -5.182 28.844, 3.459 46.505 C 4.937 49.527, 6.524 52, 6.985 52 C 8.684 52, 12.981 45.784, 14.065 41.759 C 15.120 37.841, 15.038 37.503, 12.591 35.721 C 9.419 33.410, 9.162 29.519, 12.078 27.958 C 13.221 27.346, 14.763 27.079, 15.505 27.364 C 17.441 28.106, 18.458 26.417, 20.906 18.399 C 23.070 11.311, 26.221 7.782, 28.905 9.441 C 29.507 9.813, 30 9.590, 30 8.944 C 30 8.165, 30.828 8.313, 32.465 9.385 C 35.224 11.193, 36.402 11.459, 35.550 10.081 C 34.763 8.808, 40.177 7.755, 43.380 8.559 C 45.156 9.005, 46.205 10.083, 46.592 11.861 C 46.908 13.312, 47.430 15.175, 47.751 16 C 48.073 16.825, 48.598 19.975, 48.918 23 C 49.476 28.276, 49.611 28.487, 52.214 28.183 C 54.459 27.921, 55.048 28.342, 55.620 30.622 C 56.164 32.791, 55.848 33.709, 54.130 34.939 C 52.930 35.797, 48.997 38.862, 45.391 41.750 C 41.785 44.637, 37.941 47, 36.850 47 C 35.255 47, 35 47.442, 35.551 49.250 C 36.490 52.333, 38.981 55, 40.920 55 C 41.805 55, 44.229 55.911, 46.306 57.024 L 50.083 59.048 54.947 54.054 C 57.868 51.055, 60.484 47.150, 61.494 44.280 C 62.420 41.651, 63.587 38.719, 64.089 37.764 C 65.264 35.525, 65.282 24.708, 64.110 25.432 C 63.620 25.735, 62.937 24.476, 62.591 22.635 C 61.698 17.873, 56.503 10.476, 51.218 6.441 C 43.332 0.419, 31.860 -1.539, 22.173 1.484 M 0.320 32 C 0.320 35.575, 0.502 37.038, 0.723 35.250 C 0.945 33.462, 0.945 30.538, 0.723 28.750 C 0.502 26.962, 0.320 28.425, 0.320 32 M 40 26.717 C 40 27.274, 40.918 28.898, 42.041 30.325 L 44.081 32.919 42.041 34.959 C 40.684 36.316, 40.449 37, 41.339 37 C 42.076 37, 43.125 35.987, 43.670 34.750 C 44.456 32.967, 44.178 31.795, 42.331 29.102 C 41.049 27.233, 40 26.160, 40 26.717 M 14.333 31.500 C 14.333 32.545, 15.052 32.993, 16.417 32.798 C 17.563 32.634, 18.500 32.050, 18.500 31.500 C 18.500 30.950, 17.563 30.366, 16.417 30.202 C 15.052 30.007, 14.333 30.455, 14.333 31.500 M 31.380 33.452 C 30.727 35.154, 31.664 37, 33.181 37 C 33.829 37, 33.734 36.384, 32.937 35.424 C 31.853 34.117, 31.874 33.692, 33.064 32.939 C 34.109 32.278, 34.151 32.026, 33.219 32.015 C 32.514 32.007, 31.686 32.653, 31.380 33.452 M 49.500 33 C 49.840 33.550, 50.991 34, 52.059 34 C 53.127 34, 54 33.550, 54 33 C 54 32.450, 52.848 32, 51.441 32 C 49.990 32, 49.149 32.433, 49.500 33 M 32.656 40.250 C 33.231 41.183, 39.865 41.110, 42.316 40.144 C 43.347 39.737, 41.551 39.443, 38.163 39.464 C 34.880 39.484, 32.402 39.837, 32.656 40.250" stroke="none" fill="#000000" fill-rule="evenodd"/><path fill-opacity=".403" d="M 24.734 1.030 C 15.471 3.356, 6.826 10.651, 2.847 19.500 C -0.300 26.499, -0.269 37.485, 2.919 44.719 C 6.244 52.263, 7.286 52.802, 10.471 48.627 C 11.927 46.718, 13.586 43.461, 14.158 41.388 C 15.120 37.906, 15.002 37.477, 12.599 35.727 C 8.113 32.458, 9.922 26.436, 15.169 27.177 C 17.208 27.465, 17.756 26.631, 20.216 19.500 C 21.733 15.100, 23.931 10.713, 25.098 9.750 C 27.425 7.833, 31.523 7.419, 32.502 9.003 C 32.916 9.673, 33.743 9.673, 34.995 9.003 C 37.217 7.814, 42.985 7.704, 44.738 8.817 C 46.308 9.814, 48.975 18.503, 48.989 22.668 C 49.006 27.453, 49.933 29.301, 51.617 27.903 C 52.663 27.035, 53.365 27.058, 54.500 28 C 56.933 30.019, 56.323 33.754, 53.250 35.659 C 50.644 37.275, 48.390 39.162, 44.086 43.335 C 43.046 44.343, 40.590 45.720, 38.630 46.394 L 35.066 47.620 36.783 51.034 C 38.032 53.519, 39.379 54.624, 41.725 55.093 C 43.499 55.447, 46.022 56.440, 47.332 57.298 C 49.633 58.806, 49.871 58.700, 54.305 54.179 C 59.015 49.379, 62.939 42.198, 62.978 38.309 C 62.990 37.104, 63.450 35.840, 64 35.500 C 64.550 35.160, 65 33.082, 65 30.882 C 65 28.470, 64.603 27.127, 64 27.500 C 63.444 27.843, 62.996 27.092, 62.990 25.809 C 62.960 18.721, 53.509 6.864, 44.843 3.042 C 39.366 0.627, 30.050 -0.305, 24.734 1.030 M 0.272 32 C 0.272 34.475, 0.467 35.487, 0.706 34.250 C 0.944 33.013, 0.944 30.988, 0.706 29.750 C 0.467 28.512, 0.272 29.525, 0.272 32 M 42.500 31 C 43.495 32.100, 44.535 33, 44.810 33 C 45.085 33, 44.495 32.100, 43.500 31 C 42.505 29.900, 41.465 29, 41.190 29 C 40.915 29, 41.505 29.900, 42.500 31 M 15 31.469 C 15 32.361, 15.587 32.712, 16.494 32.364 C 17.316 32.048, 17.740 31.388, 17.435 30.895 C 16.563 29.483, 15 29.851, 15 31.469 M 52 33 C 52 33.550, 52.450 34, 53 34 C 53.550 34, 54 33.550, 54 33 C 54 32.450, 53.550 32, 53 32 C 52.450 32, 52 32.450, 52 33 M 35.250 40.689 C 36.212 40.941, 37.788 40.941, 38.750 40.689 C 39.712 40.438, 38.925 40.232, 37 40.232 C 35.075 40.232, 34.288 40.438, 35.250 40.689" stroke="none" fill="#000000" fill-rule="evenodd"/><path fill-opacity=".491" d="M 30.083 7.283 C 30.313 7.439, 31.400 8.226, 32.500 9.033 C 34.350 10.390, 34.397 10.369, 33.128 8.750 C 32.373 7.787, 31.285 7, 30.711 7 C 30.137 7, 29.854 7.127, 30.083 7.283 M 36.813 7.683 C 37.534 7.972, 38.397 7.936, 38.729 7.604 C 39.061 7.272, 38.471 7.036, 37.417 7.079 C 36.252 7.127, 36.015 7.364, 36.813 7.683 M 45 9.170 C 47.504 11.613, 48.775 12.063, 47.544 10.072 C 47.184 9.488, 45.901 8.498, 44.694 7.872 C 42.707 6.840, 42.736 6.962, 45 9.170 M 23.405 10.250 L 21.500 12.500 23.750 10.595 C 25.864 8.805, 26.455 8, 25.655 8 C 25.465 8, 24.453 9.012, 23.405 10.250 M 48.741 19.615 C 49.030 22.302, 49.431 24.688, 49.633 24.917 C 50.430 25.822, 49.914 17.412, 49.092 16.115 C 48.556 15.268, 48.419 16.629, 48.741 19.615 M 19.624 17.539 C 19.281 18.432, 19.029 19.689, 19.063 20.332 C 19.098 20.974, 19.558 20.422, 20.085 19.105 C 20.612 17.787, 20.864 16.531, 20.645 16.312 C 20.426 16.093, 19.966 16.645, 19.624 17.539 M 18.079 23.200 C 18.036 24.135, 17.212 25.359, 16.250 25.920 C 15.287 26.481, 15.007 26.953, 15.628 26.970 C 17.278 27.014, 19.272 24.274, 18.673 22.784 C 18.341 21.957, 18.130 22.105, 18.079 23.200 M 10.575 27.918 C 9.569 29.028, 9.026 30.816, 9.283 32.168 C 9.692 34.311, 9.739 34.282, 9.864 31.807 C 9.941 30.271, 10.955 28.444, 12.223 27.557 C 13.445 26.701, 13.965 26, 13.377 26 C 12.790 26, 11.529 26.863, 10.575 27.918 M 54.606 28.152 C 55.648 29.611, 56.700 30.611, 56.944 30.374 C 57.189 30.138, 56.337 28.944, 55.050 27.722 L 52.712 25.500 54.606 28.152 M 15 31 C 15 31.550, 15.477 32, 16.059 32 C 16.641 32, 16.840 31.550, 16.500 31 C 16.160 30.450, 15.684 30, 15.441 30 C 15.198 30, 15 30.450, 15 31 M 52 33 C 52 33.550, 52.450 34, 53 34 C 53.550 34, 54 33.550, 54 33 C 54 32.450, 53.550 32, 53 32 C 52.450 32, 52 32.450, 52 33 M 12.748 36.662 C 13.510 36.969, 13.793 38.206, 13.475 39.833 C 12.971 42.415, 12.987 42.425, 13.979 40.158 C 15.093 37.611, 14.570 35.954, 12.691 36.079 C 11.830 36.136, 11.846 36.298, 12.748 36.662 M 48.924 39.750 L 46.500 42.500 49.250 40.076 C 51.820 37.810, 52.459 37, 51.674 37 C 51.495 37, 50.258 38.237, 48.924 39.750 M 43.405 44.250 L 41.500 46.500 43.750 44.595 C 44.987 43.547, 46 42.535, 46 42.345 C 46 41.545, 45.195 42.136, 43.405 44.250 M 10.954 46.086 C 10.340 47.233, 10.026 48.360, 10.257 48.590 C 10.487 48.820, 11.189 47.882, 11.816 46.504 C 13.194 43.480, 12.523 43.154, 10.954 46.086 M 39 47 C 38.099 47.582, 37.975 47.975, 38.691 47.985 C 39.346 47.993, 40.160 47.550, 40.500 47 C 41.267 45.758, 40.921 45.758, 39 47 M 36.079 48.583 C 36.127 49.748, 36.364 49.985, 36.683 49.188 C 36.972 48.466, 36.936 47.603, 36.604 47.271 C 36.272 46.939, 36.036 47.529, 36.079 48.583 M 38 53 C 38.589 54.100, 39.295 55, 39.570 55 C 39.845 55, 39.589 54.100, 39 53 C 38.411 51.900, 37.705 51, 37.430 51 C 37.155 51, 37.411 51.900, 38 53 M 41.813 54.683 C 42.534 54.972, 43.397 54.936, 43.729 54.604 C 44.061 54.272, 43.471 54.036, 42.417 54.079 C 41.252 54.127, 41.015 54.364, 41.813 54.683" stroke="none" fill="#000000" fill-rule="evenodd"/></svg>