<svg xmlns="http://www.w3.org/2000/svg" width="24" height="24" fill="#000000"><path fill="#6e6e6e" d="M1.081 10.84 8.307 0l3.637 5.492-3.688 5.494H1.155a.087.087 0 0 1-.046-.014.093.093 0 0 1-.032-.036.097.097 0 0 1 .004-.095ZM22.805 10.84 15.58 0l-3.635 5.492 3.687 5.494h7.1a.087.087 0 0 0 .046-.014.096.096 0 0 0 .028-.131Z"/><path fill="#595959" d="M22.93 12.406a11.867 11.867 0 0 1-.795 4.425 11.499 11.499 0 0 1-2.372 3.764 10.976 10.976 0 0 1-3.582 2.52 10.608 10.608 0 0 1-4.237.885c-1.455 0-2.896-.301-4.238-.886a10.976 10.976 0 0 1-3.582-2.52 11.5 11.5 0 0 1-2.372-3.763 11.867 11.867 0 0 1-.795-4.425H7.94a4.322 4.322 0 0 0 .28 1.622c.196.516.488.986.86 1.383.373.396.818.711 1.31.926a3.862 3.862 0 0 0 3.1 0c.492-.215.937-.53 1.309-.926a4.19 4.19 0 0 0 .861-1.383c.196-.516.291-1.067.28-1.622h6.99Z"/></svg>