<svg xmlns="http://www.w3.org/2000/svg" width="200" height="200" fill="#000000"><path fill-opacity=".102" fill-rule="evenodd" d="M98 1.965 60.5 2.5l.314 4.75.314 4.75H41v8.928l-9.75.286-9.75.286-.286 9.75-.286 9.75H12v19.765l-4.75-.053-4.75-.052L2 99.08c-.275 21.131-.177 38.833.217 39.337s2.757.895 5.25.868l4.533-.05V159h9v8.8c0 5.511.448 9.248 1.2 10s4.489 1.2 10 1.2H41v9h20.272l-.611 4.456c-.336 2.452-.198 4.712.306 5.024 1.228.758 76.873.737 78.102-.023.53-.327.709-1.006.399-1.509-.311-.503-.268-2.497.095-4.431l.66-3.517H159v-9h8.8c5.511 0 9.248-.448 10-1.2s1.2-4.489 1.2-10V159h9v-20.151l4.467.275c2.458.151 4.71.032 5.006-.264.745-.745.807-76.914.063-77.658-.331-.33-2.611-.477-5.069-.326l-4.467.275V41h-9v-9.393c0-7.643-.295-9.506-1.582-10-.87-.334-5.37-.607-10-.607H159v-9h-18.895l-.303-5.25c-.257-4.469-.6-5.255-2.302-5.285-1.1-.019-18.875.206-39.5.5M42.731 96.08c.354 1.352.807 1.806 1.057 1.057.24-.722-.038-1.787-.62-2.369-.742-.742-.872-.351-.437 1.312"/><path fill-opacity=".135" fill-rule="evenodd" d="M137 32v30h18V12h-16V7c0-2.75-.45-5-1-5-.644 0-1 10.667-1 30M44.889 80c-.061.275-.027 3.425.075 7s-.3 7.771-.893 9.323l-1.077 2.824-8.499-.324-8.5-.323.003 8.75c.001 4.813-.111 9.052-.248 9.422s4.025.707 9.25.75l9.5.078.289 8.75.289 8.75h109.844l.289-8.75.289-8.75 9.5-.142c5.225-.078 9.387-.415 9.25-.75-.137-.334-.249-4.545-.248-9.358l.003-8.75-7.094.336c-11.955.565-11.808.689-11.694-9.866l.098-9.021-55.157-.225c-30.337-.123-55.208.001-55.269.276"/><path fill-opacity=".49" fill-rule="evenodd" d="M44.788 89.25 44.5 98.5l-9.25.288-9.25.287v17.85l9.25.287 9.25.288.289 8.75.289 8.75H155v-18h19V99h-19V80H45.075zM45 108v9h86V99H45z"/><path fill-opacity=".98" fill-rule="evenodd" d="M45 89.5V99H26v18h19V99h110v18h19V99h-19V80H45zm.675 28.158c-.371.371-.675 4.425-.675 9.009V135h110.078l-.289-8.75-.289-8.75-54.075-.259c-29.741-.142-54.378.046-54.75.417"/></svg>