<svg xmlns="http://www.w3.org/2000/svg" width="200" height="200" fill="#000000"><path fill-opacity=".369" fill-rule="evenodd" d="M0 100.005V200.01l100.25-.255 100.25-.255.255-99.75L201.01 0H0zm.481.495c0 55 .121 77.647.269 50.326.148-27.32.148-72.32 0-100C.602 23.147.481 45.5.481 100.5m134.897-23.063c-10.83 4.713-7.171 19.599 4.806 19.549 6.071-.025 7.586-.889 8.016-4.577.351-3.006.126-3.409-1.901-3.409-1.961 0-2.299.515-2.299 3.5 0 3.322-.175 3.5-3.443 3.5-4.458 0-6.557-2.909-6.557-9.088 0-5.239 2.619-9.504 6.27-10.209 1.928-.372 1.959-.444.23-.528-1.1-.053-3.405.515-5.122 1.262m-96.726 2.27c-1.861 3.599-2.07 4.669-.749 3.853.699-.432 3.097 4.281 3.097 6.089 0 .193-1.336.351-2.969.351-2.363 0-2.86-.357-2.436-1.75.293-.963-.207-.473-1.11 1.088-.903 1.562-1.381 3.099-1.063 3.417s.578.053.578-.588C34 91.471 35.627 91 38.032 91c3.263 0 4.195.429 4.883 2.25.468 1.237.651 2.588.409 3s1.077.75 2.934.75h3.377l-3.622-7.75c-1.993-4.263-4.092-8.872-4.666-10.244l-1.044-2.493zM54.2 78.2c-2.81 2.81-1.089 7.306 3.74 9.77 2.032 1.036 4.234 2.535 4.894 3.33 1.488 1.793.493 4.7-1.608 4.7-.857 0-1.293.266-.968.591 1.188 1.189 4.47-.698 5.625-3.233q2.347-5.157-6-9.418c-3.415-1.742-4.012-2.485-3.624-4.513.508-2.659-.203-3.083-2.059-1.227m8.357.218c1.067.78 2.153 1.206 2.412.946.551-.55-2.028-2.326-3.41-2.349-.518-.008-.068.623.998 1.403M71.2 78.2c-2.81 2.81-1.089 7.306 3.74 9.77 2.032 1.036 4.234 2.535 4.894 3.33 1.488 1.793.493 4.7-1.608 4.7-.857 0-1.293.266-.968.591 1.188 1.189 4.47-.698 5.625-3.233q2.347-5.157-6-9.418c-3.415-1.742-4.012-2.485-3.624-4.513.508-2.659-.203-3.083-2.059-1.227m7.681-.274c.745.461 1.745 1.454 2.222 2.206.654 1.032.87.868.882-.669.01-1.398-.687-2.09-2.222-2.206-1.578-.119-1.838.079-.882.669m14.16 2.994c-1.199 2.351-1.924 4.53-1.611 4.844.314.313.57.044.57-.597 0-2.05 1.64-1.253 2.839 1.38 1.636 3.59 1.552 3.717-2.185 3.281-3.001-.35-3.559-.001-5.417 3.391L85.166 97l2.667-.015c1.877-.011 2.265-.27 1.31-.875-.851-.54-1.106-1.652-.683-2.985C88.998 91.43 89.936 91 93.092 91c3.598 0 4.013.273 4.558 3 .529 2.647 1.011 3 4.097 3 3.14 0 3.357-.169 2.125-1.653-.754-.908-3.01-5.488-5.011-10.177l-3.64-8.524zm22.655 5.677c7.753 9.535 7.806 9.576 8.128 6.355.178-1.783-.077-3.514-.567-3.847s-2.827-3.193-5.194-6.355c-3.529-4.715-4.831-5.75-7.237-5.75-2.906 0-2.861.089 4.87 9.597M123 78.059c0 .582.45.781 1 .441s1-.816 1-1.059-.45-.441-1-.441-1 .477-1 1.059m21.258.066c.923.516 2.129 1.712 2.68 2.657.861 1.478 1.005 1.369 1.031-.782.024-2.021-.489-2.53-2.68-2.657-2.176-.127-2.379.027-1.031.782M154.5 87v10h7.133c6.553 0 7.183-.183 7.737-2.25 1.027-3.832.707-4.118-1.486-1.33-1.634 2.077-2.828 2.62-5.25 2.385-2.916-.284-3.155-.601-3.441-4.555-.236-3.257.044-4.25 1.2-4.25.829 0 1.966.787 2.527 1.75.836 1.435 1.025 1.128 1.05-1.7.023-2.683-.237-3.183-1.17-2.25-2.373 2.373-3.8 1.322-3.8-2.8 0-3.859.117-4 3.3-4 1.815 0 3.84.54 4.5 1.2.933.933 1.2.822 1.2-.5 0-1.432-1.064-1.7-6.75-1.7h-6.75zm-45.214.5c.008 2.75.202 3.756.432 2.236s.223-3.77-.014-5-.425.014-.418 2.764m-56.218 5.75c-.043 1.739.453 2.75 1.35 2.75.78 0 2.243.239 3.25.531 1.254.363 1.156.172-.312-.606-1.18-.625-2.612-2.101-3.183-3.281-.989-2.043-1.041-2.015-1.105.606m16.964.5c-.018 1.291.573 2.25 1.386 2.25.78 0 2.243.259 3.25.576 1.54.483 1.513.375-.168-.678-1.1-.689-2.548-1.96-3.218-2.825-1.064-1.373-1.222-1.287-1.25.677m38.689 1.21c-.408 1.558-.055 2.04 1.495 2.04 1.776 0 1.862-.218.689-1.75-.736-.963-1.409-1.88-1.495-2.04-.086-.159-.396.629-.689 1.75m-77.701.516c-1.084 1.306-.853 1.522 1.608 1.509 1.579-.009 2.422-.351 1.872-.762-.55-.41-1.273-1.089-1.607-1.509s-1.177-.076-1.873.762m89.368 5.203c-1.162.233-3.374 1.741-4.917 3.351-2.212 2.309-2.804 3.865-2.804 7.37 0 5.623 2.258 9.09 6.926 10.631 4.339 1.432 10.055.12 12.829-2.945 3.893-4.302 2.587-14.44-2.182-16.938-2.384-1.249-7.3-1.982-9.852-1.469M67 111.5V122l6.25-.015c7.743-.018 10.732-1.443 13.08-6.237 1.553-3.173 1.651-4.276.646-7.319-1.687-5.114-5.951-7.421-13.726-7.425L67 101zm27.681-9.75c-.494.85-5.681 18.823-5.681 19.688 0 .309 1.617.562 3.594.562 2.631 0 3.72-.486 4.068-1.817.359-1.372 1.192-1.711 3.407-1.386 1.625.238 2.931 1.048 2.931 1.816 0 .958 1.274 1.387 4.117 1.387 3.731 0 4.063-.203 3.549-2.169a1361 1361 0 0 0-2.867-10.495l-2.299-8.326-5.191-.005c-2.855-.003-5.387.333-5.628.745m27.519 4.45c-1.391 1.391-1.584 8.645-.286 10.696 2.603 4.109 6.212-3.803 4.177-9.156-1.141-3.002-2.064-3.367-3.891-1.54M75 111.5c0 4.839.25 5.598 1.75 5.31 1.387-.267 1.75-1.369 1.75-5.31s-.363-5.043-1.75-5.31c-1.5-.288-1.75.471-1.75 5.31m23.641-2.456c-.904 4.522-.829 4.956.859 4.956 1.653 0 2.07-4.552.626-6.831-.594-.936-1.034-.38-1.485 1.875"/><path fill-opacity=".285" fill-rule="evenodd" d="M0 100.005V200.01l100.25-.255 100.25-.255.255-99.75L201.01 0H0zm.481.495c0 55 .121 77.647.269 50.326.148-27.32.148-72.32 0-100C.602 23.147.481 45.5.481 100.5m54.742-22.943c-2.71 1.898-2.96 6.486-.473 8.667.962.844 3.24 2.29 5.062 3.213 2.467 1.25 3.232 2.238 3 3.871-.486 3.415-5.046 3.481-7.696.112L53 90.73v2.885c0 2.752.23 2.899 4.953 3.183 3.915.235 5.38-.131 6.999-1.75 3.768-3.768 1.837-7.646-5.702-11.457-3.476-1.756-4.366-4.949-1.668-5.984C60.063 76.655 60.86 76.86 63 79c1.911 1.911 2 1.917 2 .125 0-1.3-.958-2.067-3.125-2.5-4.183-.837-4.114-.846-6.652.932m17.027-.049c-2.735 1.951-2.997 6.527-.5 8.716.963.844 3.24 2.29 5.062 3.213 2.467 1.25 3.232 2.238 3 3.871-.486 3.415-5.046 3.481-7.696.112L70 90.73l.001 2.885c.001 2.709.275 2.903 4.492 3.175 10.997.708 12.621-7.63 2.492-12.797-4.162-2.124-5.342-5.258-2.403-6.386C77.063 76.655 77.86 76.86 80 79c1.879 1.879 2 1.889 2 .167 0-1.009-.562-1.891-1.25-1.96-.687-.07-2.375-.391-3.75-.715-1.533-.361-3.371.032-4.75 1.016m63.138-.579c-6.652 2.849-8.52 12.093-3.465 17.148 2.451 2.45 3.731 2.923 7.918 2.923 6.784 0 8.159-.684 8.159-4.057 0-1.653.733-3.27 1.75-3.863 1.341-.781.464-1.019-3.75-1.019s-5.091.238-3.75 1.019c1.041.606 1.75 2.215 1.75 3.97 0 2.684-.304 2.95-3.378 2.95-4.686 0-6.122-2.167-6.122-9.242 0-5.083.35-6.218 2.437-7.908 2.889-2.34 6.679-1.809 9.313 1.303l1.75 2.069v-2.445c0-1.344-.562-2.495-1.25-2.557s-3.05-.357-5.25-.654-4.95-.135-6.112.363m-99.41 8.675c-2.235 4.893-4.806 9.459-5.712 10.146-1.406 1.066-1.069 1.246 2.293 1.22 3.022-.024 3.555-.256 2.284-.998-1.024-.598-1.457-1.732-1.133-2.97.779-2.98 7.876-2.881 8.83.123.423 1.333.168 2.445-.683 2.985-.855.541.657.865 4.084.875 4.534.012 5.176-.194 3.85-1.235-.876-.687-3.251-5.075-5.278-9.75s-3.863-8.678-4.079-8.896-2.221 3.608-4.456 8.5m54.558.441c-2.131 4.975-4.586 9.461-5.455 9.97-1.144.669-.476.901 2.419.839 2.2-.047 3.213-.292 2.25-.543-1.875-.49-2.102-1.231-1.143-3.729C89.014 91.521 90.474 91 93.04 91c3.022 0 3.967.446 4.5 2.125.423 1.333.168 2.445-.683 2.985-.87.551.321.865 3.323.875l4.679.015-2.299-4.25c-1.264-2.338-3.34-6.838-4.613-10S95.357 77 95.021 77s-2.355 4.07-4.485 9.045m18.289.098c.241 6.788-.017 9.363-1 9.987-.87.551-.185.845 1.996.855 3.02.014 3.179-.128 1.75-1.556-1.11-1.111-1.571-3.504-1.571-8.155 0-6.216.098-6.494 1.75-4.978.963.884 4 4.537 6.75 8.119s5.308 6.528 5.684 6.548.826-4.464 1-9.965c.267-8.44.078-10.002-1.21-10-1.171.001-1.44.91-1.156 3.892.722 7.568-.017 7.854-4.6 1.783-3.361-4.453-4.867-5.673-7-5.675l-2.718-.003zm46.004-.44c.281 7.417.067 8.9-1.441 10.002-1.499 1.097-.458 1.295 6.804 1.295 8.047 0 8.612-.138 9.178-2.25.979-3.655.759-3.788-1.889-1.14-1.727 1.727-3.378 2.42-5.25 2.205-2.439-.281-2.764-.77-3.038-4.565-.236-3.257.044-4.25 1.2-4.25.829 0 1.966.787 2.527 1.75.814 1.398 1.019.945 1.019-2.25s-.205-3.648-1.019-2.25C161.03 87.495 159 86.33 159 82c0-3.892.093-4 3.443-4 2.425 0 3.904.658 5 2.223L169 82.445v-2.722c0-2.713-.026-2.723-7.25-2.725l-7.25-.003zm-118.125.791L35.032 90h2.984c3.45 0 3.378.167 1.672-3.891l-1.312-3.12zM91.15 87c-1.005 2.883-.933 3 1.85 3s2.855-.117 1.85-3c-.575-1.65-1.408-3-1.85-3s-1.275 1.35-1.85 3m26.875 14.702c-7.274 3.763-7.692 15.022-.721 19.401 2.378 1.493 4.339 1.89 7.664 1.55 7.93-.81 12.079-8.139 9.077-16.036-2.069-5.44-10.189-7.932-16.02-4.915M67 111.391V122h6.984c6.304 0 7.303-.284 10.25-2.918 2.784-2.487 3.266-3.591 3.266-7.477 0-3.642-.554-5.114-2.753-7.313-2.418-2.418-3.667-2.8-10.25-3.132L67 100.781zm24.664-.457c-1.465 5.464-2.664 10.189-2.664 10.5s1.8.566 4 .566c2.889 0 4-.417 4-1.5 0-.938.948-1.5 2.531-1.5 1.393 0 2.791.675 3.107 1.5.655 1.705 8.362 2.16 8.362.493 0-.554-1.207-5.279-2.682-10.5L105.637 101H94.328zm30.458-4.656c-1.635 1.635-1.397 9.249.334 10.686 2.395 1.987 3.544.231 3.544-5.416 0-5.47-1.559-7.589-3.878-5.27M75 111.5c0 4.839.25 5.598 1.75 5.31 1.387-.267 1.75-1.369 1.75-5.31s-.363-5.043-1.75-5.31c-1.5-.288-1.75.471-1.75 5.31m24.002-3.5c-.016.825-.301 2.513-.632 3.75-.444 1.654-.175 2.25 1.013 2.25 1.817 0 2.184-3.575.617-6-.862-1.333-.973-1.333-.998 0"/><path fill-opacity=".305" fill-rule="evenodd" d="M0 100.005V200.01l100.25-.255 100.25-.255.255-99.75L201.01 0H0zm.481.495c0 55 .121 77.647.269 50.326.148-27.32.148-72.32 0-100C.602 23.147.481 45.5.481 100.5m38.663-22.458c-3.04 7.741-8.178 17.815-9.319 18.271-.729.291.475.551 2.675.578 3.192.038 3.645-.159 2.243-.975-1.38-.804-1.533-1.44-.714-2.969 1.519-2.84 7.593-2.713 8.511.178.423 1.333.168 2.445-.683 2.985s.689.859 4.143.859c3.031 0 4.947-.351 4.268-.782-.678-.431-3.241-5.242-5.696-10.693-4.085-9.069-4.545-9.702-5.428-7.452m16.106-.531c-2.735 1.948-2.997 6.524-.5 8.713.962.844 3.24 2.29 5.062 3.213 2.467 1.25 3.232 2.238 3 3.871-.486 3.415-5.046 3.481-7.696.112L53 90.73v2.891c0 2.797.177 2.9 5.441 3.189 4.891.268 5.611.04 7.111-2.249 2.423-3.698 1.194-7.14-3.385-9.476-5.231-2.668-6.78-4.642-5.167-6.585 1.864-2.247 3.541-1.834 6.411 1.577L66 83.153v-2.517c0-2.945-.368-3.245-5.008-4.091-2.434-.444-4.173-.151-5.742.966m16.892.102c-2.631 1.843-2.842 6.463-.392 8.611.963.844 3.24 2.29 5.062 3.213 2.467 1.25 3.232 2.238 3 3.871-.486 3.415-5.046 3.481-7.696.112L70 90.73v2.891c0 2.797.177 2.9 5.441 3.189 4.891.268 5.611.04 7.111-2.249 2.301-3.512 1.187-7.136-2.816-9.163-6.727-3.407-8.592-6.674-4.545-7.959 1.694-.537 2.836.027 5.035 2.488l2.844 3.183-.229-3.305c-.217-3.139-.437-3.315-4.392-3.499-2.381-.111-5.082.449-6.307 1.307m63.246-.633c-6.623 2.676-8.521 12.041-3.465 17.097 2.429 2.429 3.738 2.921 7.75 2.909 7.867-.022 9.327-.729 9.327-4.519 0-1.815.563-3.527 1.25-3.805.688-.277-1.225-.526-4.25-.553-4.198-.037-5.086.193-3.75.971 1.041.606 1.75 2.215 1.75 3.97 0 2.5-.391 2.95-2.566 2.95-4.058 0-6.149-1.668-6.863-5.473-.976-5.204.306-10.4 3.002-12.167 2.858-1.872 5.655-1.105 8.958 2.457L149 83.48v-3.863c0-2.956-.293-3.627-1.25-2.863-.712.569-2.111.652-3.25.193-2.606-1.051-6.464-1.037-9.112.033M161 76.79l-6.5.29.36 8.643c.31 7.429.107 8.828-1.441 9.96-1.541 1.127-.563 1.317 6.783 1.317 8.866 0 9.798-.446 9.798-4.693 0-1.151-.432-1.008-1.75.579-.963 1.159-3.213 2.391-5 2.736l-3.25.628v-4.625c0-4.92 1.472-6.098 2.969-2.375.718 1.788.904 1.223.904-2.75s-.186-4.538-.904-2.75C161.545 87.293 160 86.383 160 82c0-3.768.172-4 2.968-4 2.21 0 3.349.703 4.46 2.75l1.492 2.75.04-3.191c.022-1.755-.298-3.33-.71-3.5s-3.675-.179-7.25-.019m-70.097 8.254c-1.872 4.424-4.208 8.924-5.192 10-1.749 1.912-1.704 1.955 2 1.926 2.924-.024 3.411-.252 2.132-.998-1.024-.598-1.457-1.732-1.133-2.97.779-2.98 7.876-2.881 8.83.123.423 1.333.168 2.445-.683 2.985-.815.516 2.236.859 7.643.859 4.95 0 8.479-.331 7.842-.737-.642-.408-1.311-3.927-1.5-7.892-.188-3.936-.117-7.013.158-6.838s3.2 3.717 6.5 7.872 6.308 7.57 6.684 7.59.826-4.465 1-9.966c.264-8.365.07-10.002-1.184-10.002-1.199.001-1.432 1.157-1.162 5.753.207 3.528-.016 5.365-.579 4.751-.505-.55-2.623-3.138-4.709-5.75-2.792-3.499-4.484-4.751-6.42-4.752l-2.63-.002.32 9.575.321 9.575-2.785-.323c-2.475-.287-3.221-1.347-6.731-9.573-2.171-5.088-4.256-9.25-4.633-9.25-.378 0-2.218 3.62-4.089 8.044m-54.31 1.776L34.949 90h3.025c3.373 0 3.548-.429 1.609-3.93l-1.346-2.429zM91.5 87l-1.551 3h2.973c2.87 0 2.937-.105 1.928-3-.575-1.65-1.215-3-1.422-3s-1.075 1.35-1.928 3m25.92 14.827c-5.968 3.753-7.052 12.996-2.104 17.944 2.846 2.846 9.453 3.981 13.475 2.316 6.473-2.682 8.354-12.654 3.427-18.17-3.632-4.064-10.186-4.99-14.798-2.09M66 111.5V122h7.05c8.443 0 12.303-1.707 13.842-6.119 1.462-4.194 1.402-5.459-.44-9.341-2.036-4.291-5.079-5.54-13.499-5.54H66zm25.682-1.007c-1.475 5.221-2.682 9.946-2.682 10.5S90.8 122 93 122c2.889 0 4-.417 4-1.5 0-.938.948-1.5 2.531-1.5 1.393 0 2.791.675 3.107 1.5.388 1.009 1.973 1.5 4.848 1.5h4.272l-3.081-10.5-3.082-10.5H94.363zm30.388-3.623c-2.249 4.202-.519 11.623 2.445 10.486 1.997-.767 2.04-9.65.055-11.298-1.142-.948-1.646-.784-2.5.812M75 111.5c0 3.025.36 5.5.8 5.5 2.928 0 4.432-7.368 2-9.8-2.19-2.19-2.8-1.254-2.8 4.3m23.823-1.748c-.333 2.272-.078 3.248.85 3.248 1.464 0 1.595-1.453.407-4.498-.666-1.706-.85-1.524-1.257 1.25"/><path fill-opacity=".975" fill-rule="evenodd" d="M0 100.005V200.01l100.25-.255 100.25-.255.255-99.75L201.01 0H0zm.481.495c0 55 .121 77.647.269 50.326.148-27.32.148-72.32 0-100C.602 23.147.481 45.5.481 100.5m36.07-17.042C34.598 87.686 33 91.478 33 91.884s-.918 1.724-2.039 2.927L28.922 97l3.789-.015c2.486-.01 3.325-.31 2.441-.87-2.657-1.684-.869-4.596 3.021-4.92 3.022-.253 3.777.073 4.349 1.875.442 1.391.201 2.491-.665 3.04-.852.54.689.859 4.143.859 3.025 0 4.955-.346 4.29-.769-.666-.423-3.088-5.029-5.383-10.235s-4.314-9.629-4.488-9.83-1.914 3.094-3.868 7.323M55.4 76.757c-.605.409-1.634 1.756-2.285 2.993-1.586 3.011-.241 5.361 5.135 8.972 4.813 3.233 5.714 6.571 1.918 7.108-2.517.357-6.168-2.299-6.168-4.485 0-.74-.45-1.345-1-1.345s-1 1.547-1 3.438c0 2.601.426 3.441 1.75 3.453.962.009 3.465.082 5.561.162 4.674.18 7.689-2.259 7.689-6.22 0-2.371-.937-3.457-5.5-6.376-5.753-3.68-6.219-4.338-4.378-6.179 1.514-1.514 3.914-.574 6.623 2.595L65.99 83.5l.001-3.5c0-3.474-.034-3.502-4.745-3.743-2.61-.134-5.241.091-5.846.5m16.538.516c-4.357 3.422-2.764 8.473 3.724 11.81 3.361 1.729 4.358 2.778 4.134 4.348-.588 4.11-8.796 2.164-8.796-2.086 0-.74-.45-1.345-1-1.345s-1 1.506-1 3.346v3.345l5.638.185c6.252.204 9.362-1.57 9.362-5.34 0-2.862-1.635-4.785-6.75-7.94-4.536-2.798-4.938-3.508-3.05-5.396 1.797-1.797 2.717-1.5 5.899 1.906L83 83.212l-.004-3.356c-.004-3.304-.078-3.36-4.75-3.583-2.61-.124-5.449.326-6.308 1m18.633 7.85c-2.162 5.001-4.556 9.719-5.322 10.485-1.189 1.189-.835 1.388 2.43 1.362 3.09-.025 3.485-.226 2.064-1.054C87.049 94.347 89.266 91 93 91c3.459 0 6.194 3.629 3.853 5.112-.801.508 2.52.816 8.147.757 5.225-.056 8.713-.307 7.75-.558-1.466-.383-1.745-1.624-1.718-7.634.026-5.83.26-6.885 1.25-5.621C120.542 93.606 123.43 97 124.148 97c.468 0 .852-4.185.852-9.3 0-5.9.439-9.739 1.2-10.5.933-.933.444-1.2-2.2-1.2s-3.133.267-2.2 1.2c.66.66 1.2 3.423 1.2 6.14v4.939l-4.75-6.094c-4.398-5.644-5.046-6.096-8.75-6.108-3.583-.012-3.813.128-2.208 1.346 1.518 1.151 1.748 2.638 1.5 9.718-.265 7.589-.483 8.386-2.369 8.656-1.745.249-2.817-1.31-6.707-9.75-2.546-5.526-4.761-10.04-4.923-10.032-.161.009-2.061 4.107-4.222 9.108m43.929-7.929c-5.263 3.095-7.196 8.205-5.048 13.346 1.849 4.425 5.487 6.627 10.949 6.627 7.125 0 8.599-.797 8.599-4.651 0-1.842.563-3.576 1.25-3.854.688-.277-1.225-.504-4.25-.504s-4.937.227-4.25.504c.688.278 1.25 2.042 1.25 3.921 0 2.918-.343 3.417-2.345 3.417-7.459 0-8.598-16.192-1.276-18.133 2.406-.638 3.363-.279 5.827 2.185 1.621 1.621 3.138 2.948 3.371 2.948s.421-1.463.418-3.25l-.006-3.25-6.244-.241c-3.443-.132-7.142.287-8.245.935m18.3.006c1.683 1.683 1.639 18.448-.05 19.16-.687.29 2.8.44 7.75.333l9-.193.256-3.5.255-3.5-1.477 2.634c-1.459 2.602-5.728 4.482-7.58 3.338-.525-.325-.938-2.476-.918-4.781l.036-4.191 2.459 3 2.459 3 .005-5.75c.005-6.258-.524-7.12-1.995-3.25-1.437 3.78-3 2.998-3-1.5 0-3.486.289-3.998 2.25-3.985 2.731.019 4.064.855 5.555 3.485 1.001 1.766 1.138 1.561 1.165-1.75L169 76h-8.7c-6.767 0-8.433.267-7.5 1.2M37.095 86.389c-1.326 3.328-1.038 3.9 1.732 3.442 1.826-.303 1.887-.589.708-3.331l-1.29-3zm54.838-.135c-1.427 3.125-.955 4.054 1.817 3.577 1.73-.298 1.798-.63.681-3.331l-1.241-3zm26.567 14.691c-3.652 1.495-5.778 4.892-6.271 10.02-.447 4.653-.244 5.22 3.046 8.51 2.905 2.905 4.258 3.525 7.691 3.525 7.609 0 11.976-3.891 12.012-10.703.028-5.4-1.443-8.55-4.968-10.632-2.98-1.76-8.174-2.085-11.51-.72M66 111.5V122h7.566c8.595 0 10.785-.844 12.924-4.98 2.869-5.549 1.245-12.072-3.635-14.595-1.621-.838-5.66-1.425-9.805-1.425H66zm25.276 0L88.247 122h4.376c3.224 0 4.377-.395 4.377-1.5 0-.915.933-1.5 2.393-1.5 1.316 0 2.652.675 2.969 1.5.392 1.023 1.993 1.5 5.036 1.5h4.461l-1.944-6.75c-1.07-3.713-2.405-8.437-2.968-10.5l-1.024-3.75H94.306zM75 111.5c0 3.025.36 5.5.8 5.5 2.928 0 4.432-7.368 2-9.8-2.19-2.19-2.8-1.254-2.8 4.3m46.462-2.149c-.845 4.506.223 7.856 2.373 7.442 2.438-.469 2.413-10.122-.028-10.592-1.24-.238-1.867.604-2.345 3.15m-22.392.899c-.038 1.513.38 2.75.93 2.75 1.174 0 1.174-.769 0-3.5-.762-1.772-.867-1.687-.93.75"/></svg>