<svg xmlns="http://www.w3.org/2000/svg" width="32" height="32" version="1.1" fill="#000000"><path fill-opacity=".298" d="M 7.922 2.274 C -2.718 9.444, -2.718 22.556, 7.922 29.726 C 17.962 36.492, 32.880 27.473, 32.967 14.583 C 32.985 11.879, 32.718 9.949, 32.373 10.293 C 32.029 10.638, 30.781 9.486, 29.600 7.734 C 24.419 0.046, 14.816 -2.373, 7.922 2.274 M 0.300 16 C 0.300 19.025, 0.487 20.263, 0.716 18.750 C 0.945 17.238, 0.945 14.763, 0.716 13.250 C 0.487 11.738, 0.300 12.975, 0.300 16 M 6.200 13.200 C 4.476 14.924, 4.722 17.544, 6.750 19.079 C 8.239 20.206, 8.313 20.194, 7.250 19.002 C 6.563 18.231, 6.032 16.677, 6.070 15.550 C 6.140 13.520, 6.149 13.520, 7.005 15.500 C 7.750 17.226, 7.848 17.123, 7.716 14.750 C 7.632 13.238, 7.527 12, 7.482 12 C 7.437 12, 6.860 12.540, 6.200 13.200 M 12.080 13.750 C 13.281 15.679, 13.281 16.321, 12.080 18.250 C 10.797 20.309, 10.819 20.384, 12.339 19.128 C 14.463 17.372, 14.463 14.628, 12.339 12.872 C 10.819 11.616, 10.797 11.691, 12.080 13.750 M 23.813 15.683 C 24.534 15.972, 25.397 15.936, 25.729 15.604 C 26.061 15.272, 25.471 15.036, 24.417 15.079 C 23.252 15.127, 23.015 15.364, 23.813 15.683" stroke="none" fill="#000000" fill-rule="evenodd"/><path fill-opacity=".168" d="M 9.450 1.407 C -0.639 5.801, -3.022 19.213, 4.882 27.118 C 13.138 35.373, 25.681 32.772, 31.033 21.695 C 33.092 17.434, 33.758 10.414, 32 11.500 C 31.450 11.840, 31 11.451, 31 10.636 C 31 8.299, 25.916 2.863, 22.329 1.364 C 18.254 -0.338, 13.420 -0.322, 9.450 1.407 M 6.571 12.571 C 4.564 14.578, 4.564 17.422, 6.571 19.429 C 8.793 21.650, 10.678 21.385, 13.187 18.500 C 15.043 16.365, 16.216 16, 21.220 16 C 26.214 16, 26.889 15.791, 25.789 14.584 C 25.002 13.719, 24.130 13.524, 23.550 14.084 C 21.724 15.845, 14.553 15.127, 12.732 13 C 10.672 10.594, 8.687 10.456, 6.571 12.571 M 0.272 16 C 0.272 18.475, 0.467 19.488, 0.706 18.250 C 0.944 17.012, 0.944 14.988, 0.706 13.750 C 0.467 12.512, 0.272 13.525, 0.272 16 M 7.724 13.134 C 3.838 15.309, 7.294 20.983, 11.224 18.880 C 12.201 18.357, 13 17.061, 13 16 C 13 13.485, 10.005 11.858, 7.724 13.134 M 7.158 16 C 7.158 17.375, 7.385 17.938, 7.662 17.250 C 7.940 16.563, 7.940 15.438, 7.662 14.750 C 7.385 14.063, 7.158 14.625, 7.158 16" stroke="none" fill="#000000" fill-rule="evenodd"/><path fill-opacity=".47" d="M 8.962 2.250 C 4.159 4.672, 0 11.053, -0 16 C -0 20.947, 4.159 27.328, 8.962 29.750 C 14.573 32.580, 17.427 32.580, 23.038 29.750 C 26.364 28.073, 28.180 26.227, 30.169 22.500 C 32.485 18.161, 34.133 10.534, 32.375 12.292 C 32.031 12.635, 30.794 11.023, 29.625 8.708 C 27.330 4.163, 20.816 -0, 16 -0 C 14.583 -0, 11.416 1.012, 8.962 2.250 M 6.750 12.080 C 4.216 13.556, 4.456 18.638, 7.126 20.068 C 9.438 21.305, 14 19.946, 14 18.021 C 14 17.431, 16.742 17, 20.500 17 C 27.104 17, 27.713 16.669, 26.015 14 C 25.229 12.764, 24.707 12.720, 23.044 13.750 C 19.872 15.716, 14.680 15.319, 13.232 13 C 11.872 10.822, 9.491 10.484, 6.750 12.080 M 0.232 16 C 0.232 17.925, 0.438 18.712, 0.689 17.750 C 0.941 16.788, 0.941 15.213, 0.689 14.250 C 0.438 13.287, 0.232 14.075, 0.232 16 M 6.362 14.500 C 5.587 16.519, 6.637 19.019, 8.219 18.921 C 9.222 18.859, 9.229 18.733, 8.250 18.338 C 6.630 17.684, 6.630 14.316, 8.250 13.662 C 9.229 13.267, 9.222 13.141, 8.219 13.079 C 7.514 13.036, 6.678 13.675, 6.362 14.500 M 9.991 14.511 C 9.010 15.693, 9.010 16.307, 9.991 17.489 C 11.495 19.301, 13 18.557, 13 16 C 13 13.443, 11.495 12.699, 9.991 14.511" stroke="none" fill="#000000" fill-rule="evenodd"/><path fill-opacity=".329" d="M 11.594 1.041 C 7.391 2.299, 2.123 7.830, 0.938 12.230 C -1.992 23.113, 8.958 33.973, 19.892 31.029 C 24.257 29.854, 31 23.192, 31 20.056 C 31 18.990, 31.450 17.840, 32 17.500 C 32.550 17.160, 33 15.982, 33 14.882 C 33 13.782, 32.550 13.160, 32 13.500 C 31.450 13.840, 31 13.193, 31 12.062 C 31 8.955, 24.353 2.192, 20.152 1.025 C 15.963 -0.138, 15.534 -0.137, 11.594 1.041 M 5.408 13.500 C 3.891 15.816, 3.891 16.184, 5.408 18.500 C 7.416 21.564, 11.469 21.823, 13.232 19 C 14.281 17.320, 15.564 17, 21.241 17 C 25.080 17, 28 16.568, 28 16 C 28 15.450, 27.550 15, 27 15 C 26.450 15, 26 14.325, 26 13.500 C 26 12.675, 25.582 12, 25.071 12 C 24.561 12, 23.468 12.675, 22.643 13.500 C 20.415 15.728, 14.748 15.427, 13.232 13 C 11.469 10.177, 7.416 10.436, 5.408 13.500 M 0.158 16 C 0.158 17.375, 0.385 17.938, 0.662 17.250 C 0.940 16.563, 0.940 15.438, 0.662 14.750 C 0.385 14.063, 0.158 14.625, 0.158 16" stroke="none" fill="#000000" fill-rule="evenodd"/></svg>