<svg xmlns="http://www.w3.org/2000/svg" width="200" height="200" fill="#000000"><path fill-opacity=".471" fill-rule="evenodd" d="M81.211 30.085c-1.808.546-5.023 2.727-7.144 4.848-6.267 6.267-7.274 15.523-2.484 22.834 1.556 2.375 1.543 2.582-.215 3.551-6.181 3.406-11.186 12.841-9.989 18.827.734 3.669-.38 4.171-4.987 2.245-2.629-1.098-5.822-1.468-10.238-1.187-5.715.364-6.732.76-9.286 3.619-3.29 3.682-3.784 8.506-1.352 13.209l1.516 2.932-2.69-1.023c-3.548-1.349-7.701-.35-11.366 2.734-4.038 3.397-3.939 6.768.274 9.337 4.604 2.807 5.75 2.537 5.75-1.356 0-3.484 3.035-7.369 4.871-6.235.549.339.769 2.071.49 3.848-.399 2.537-.059 3.505 1.579 4.499 1.857 1.127 2.217.982 3.266-1.32.875-1.92.895-3.342.077-5.509l-1.103-2.921 4.235 3.684c3.222 2.803 4.129 4.235 3.793 5.991-.386 2.02-1.027 2.308-5.133 2.308-4.987 0-8.849 1.938-7.669 3.848.392.634 2.035 1.152 3.653 1.152 1.667 0 2.957.542 2.977 1.25.02.688 1.114 2.568 2.431 4.18 1.82 2.227 2.711 2.669 3.714 1.844.725-.597 2.964-1.083 4.975-1.08 4.518.007 9.954-1.111 11.52-2.371 1.802-1.448 9.882-.601 9.549 1.001-.151.729.167 1.052.707.718.539-.333.697-1.345.351-2.248-.501-1.304-.235-1.481 1.293-.862 1.058.429 3.836 1.449 6.174 2.268 3.684 1.29 4.25 1.875 4.25 4.394 0 3.431 1.717 3.844 2.883.693l.819-2.213 1.14 2.131c1.305 2.439.466 8.236-1.217 8.413-.619.066-1.752.031-2.519-.076-.766-.108-1.701.303-2.077.911-.483.782-1.543.66-3.607-.417-5.837-3.044-10.693-.98-12.355 5.251-1.44 5.403-2.33 24.21-1.31 27.713 1.114 3.828 5.292 5.369 14.743 5.438 12.474.091 18.854-3.186 16.919-8.687-1.193-3.394-6.825-7.251-10.586-7.251-2.566 0-2.821-.284-2.388-2.669.594-3.276 2.276-4.422 5.555-3.784 7.141 1.389 10.888 1.583 12.622.655 1.615-.864 2.275-.489 4.135 2.348 1.874 2.859 1.948 3.274.481 2.711-1.643-.63-1.643-.528-.003 1.975 1.683 2.568 1.669 2.66-.502 3.363-2.158.699-2.132.766.767 2.017 1.65.712 3.997 1.314 5.215 1.339 1.256.025 2.716 1.019 3.372 2.295 3.868 7.52 11.396 11.038 17.459 8.161 7.358-3.491 12.064-12.256 13.136-24.464.565-6.436.518-6.601-2.63-9.25-6.814-5.734-17.225-1.137-20.193 8.916-1.184 4.011-2.859 5.94-2.859 3.295 0-2.021-3.524-5.595-5.265-5.34-.949.14-2.601-.976-3.671-2.479-1.756-2.465-1.844-3.408-.9-9.66.576-3.811 1.402-7.635 1.837-8.499.435-.863.575-2.699.311-4.08-.787-4.115 3.468-6.174 12.28-5.941 5.045.133 8.393-.331 11.07-1.535 2.111-.949 5.434-1.617 7.385-1.484 4.159.284 8.438-3.269 9.441-7.837.698-3.179 3.513-6.062 8.262-8.462 1.958-.989 3.25-2.401 3.25-3.552 0-3.325-1.89-7.039-3.582-7.039-1.168 0-1.423-.498-.896-1.75.404-.963.963-2.807 1.242-4.099.881-4.08-3.019-2.17-5.264 2.579-1.109 2.346-2.668 4.188-3.5 4.135-3.969-.252-4.093-.009-3.852 7.551.159 4.967-.197 7.939-1.078 9-2.15 2.591-2.568 1.888-2.604-4.38-.027-4.55-.56-6.671-2.25-8.958C142.997 94.43 142 92.163 142 91.04c0-1.122-.498-2.04-1.107-2.04s-.862.638-.563 1.417c.438 1.141-.005 1.103-2.267-.196-2.394-1.374-2.697-2.01-2.043-4.292 1.107-3.858-.634-11.747-3.57-16.184-2.986-4.513-7.858-7.736-11.7-7.741-2.41-.004-2.75-.388-2.75-3.118 0-4.715-3.901-10.744-8.817-13.625-3.481-2.04-5.557-2.517-10.511-2.417C90.213 43.016 87 42.245 87 40.043c0-3.215 2.557-4.329 8.295-3.612 4.627.578 5.556.391 7.23-1.459 1.915-2.115 1.913-2.12-.633-1.481-1.701.427-3.696-.032-5.973-1.375-4.231-2.494-10.365-3.341-14.708-2.031m3.847 37.73c-.52.173-1.452 1.847-2.07 3.721-1.411 4.274.431 8.807 3.771 9.284 1.766.251 2.244-.173 2.256-2 .009-1.276.477-2.995 1.042-3.82.771-1.128.96-.576.761 2.227-.355 5.013 1.326 6.629 4.057 3.898 2.758-2.758 3.644-6.69 2.214-9.828-1.32-2.897-2.055-2.51-3.84 2.025L91.997 76.5l.352-3c.194-1.65.532-3.65.752-4.444.295-1.067-.581-1.459-3.349-1.5-2.061-.031-4.173.086-4.694.259m30.731.435c-.877.688-1.784 3.041-2.018 5.231-.333 3.134.063 4.505 1.86 6.444 2.172 2.342 2.314 2.367 2.91.519 1.765-5.477 2.323-6.002 2.391-2.253.071 3.863.943 5.145 2.716 3.993 2.229-1.448 3.525-5.45 2.879-8.891-.731-3.899-1.468-3.662-3.201 1.029-1.007 2.725-1.185 2.848-1.25.862-.042-1.273.392-3.19.964-4.259.875-1.635.627-2.101-1.565-2.934-3.335-1.268-3.764-1.249-5.686.259M42.667 86.667c-2.077 2.076.868 11.897 5.183 17.285l1.964 2.453 1.1-4.086c.605-2.247 1.674-4.562 2.376-5.145s1.378-2.4 1.503-4.041c.211-2.763-.179-3.134-5.32-5.057-6.334-2.37-5.929-2.286-6.806-1.409m58.928 41.946c-.501 1.306-.902 1.377-2.107.377-1.227-1.019-1.488-.907-1.485.638.001 1.029 1.782 3.897 3.957 6.372l3.955 4.5.042-3.625c.024-1.994.324-5.031.668-6.75.568-2.838.394-3.125-1.893-3.125-1.394 0-2.794.72-3.137 1.613m-8.186 9.764c-.367.956-1.284 1.501-2.038 1.212-1.991-.764-1.683 1.13.379 2.331.963.561 1.357 1.033.878 1.05-.48.016-.313.705.372 1.53 1.004 1.209.979 1.503-.128 1.515-1.078.012-1.05.224.128.985 1.576 1.019 8 1.388 8 .461 0-.297-1.558-2.853-3.462-5.681-2.776-4.121-3.595-4.796-4.129-3.403"/><path fill-opacity=".303" fill-rule="evenodd" d="M81.685 29.973c-7.69 2.428-12.772 9.529-12.838 17.937-.038 4.923.936 7.73 3.608 10.402 1.292 1.292.992 1.799-2.483 4.207-5.414 3.752-9.464 12.005-8.585 17.497.725 4.534.66 4.56-5.779 2.366-3.099-1.056-6.694-1.457-10.346-1.154-4.723.392-6.04.96-8.43 3.634-3.257 3.645-3.737 8.487-1.306 13.188 1.708 3.304 1.591 3.416-1.915 1.819-1.366-.623-3.075-.905-3.797-.628-.723.277-1.764.63-2.314.782s-1.596.998-2.324 1.878c-1.021 1.233-1.159 1.256-.603.099.397-.825-.326-.419-1.606.902-3.395 3.503-3.209 6.979.494 9.237 4.411 2.69 5.539 2.371 5.539-1.568 0-3.544 2.378-6.957 4.366-6.267.624.217 1.004 1.727.845 3.355-.191 1.964.387 3.572 1.716 4.775 1.951 1.765 2.036 1.742 3.231-.881.931-2.043.955-3.416.1-5.681l-1.128-2.987 4.185 3.781c2.302 2.079 4.14 4.13 4.085 4.557s-.168 1.452-.25 2.277c-.109 1.089-1.383 1.5-4.65 1.5-2.623 0-4.5.462-4.5 1.107 0 .609-.638.862-1.417.563-1.445-.554-2.933 1.646-1.847 2.732.328.329 1.872.598 3.431.598 1.821 0 2.833.523 2.833 1.465 0 1.569 3.364 3.838 4.301 2.901.31-.31.316.381.015 1.535-.557 2.127 1.049 2.935 2.184 1.099.34-.55 2.354-1 4.476-1 2.15 0 4.081-.553 4.362-1.25.403-1 .52-1 .583 0 .14 2.211 2.075 1.33 2.195-1 .087-1.693.229-1.817.573-.5.514 1.967 2.373 2.288 3.975.686 1.554-1.554 9.907-.778 9.561.888-.151.729.167 1.052.707.718.539-.333.697-1.345.351-2.248-.501-1.304-.235-1.481 1.293-.862 1.058.429 3.836 1.449 6.174 2.268 3.684 1.29 4.25 1.875 4.25 4.394 0 3.431 1.717 3.844 2.883.693l.819-2.213 1.14 2.131c2.216 4.141-.825 10.66-4.044 8.67-.562-.347-1.351-.098-1.755.555-.547.886-1.629.758-4.282-.507-4.338-2.068-8.13-1.316-10.335 2.05-2.115 3.227-3.975 22.708-2.788 29.204.815 4.463 1.177 4.92 4.871 6.164 5.908 1.988 20.853 1.023 24.342-1.572 1.457-1.083 2.793-2.94 2.969-4.126.482-3.238-4.753-7.949-9.714-8.742-3.045-.487-4.106-1.122-4.106-2.457 0-2.337 2.882-5.203 4.578-4.552.843.323 1.118-.022.76-.954-.395-1.029-.084-1.278 1.051-.842.886.34 1.611 1.006 1.611 1.48 0 .473.675.602 1.5.286.825-.317 1.5-.078 1.5.531 0 1.333 3.968 1.45 7.22.214 2.018-.768 2.66-.42 4.55 2.462 1.868 2.851 1.938 3.256.468 2.692-1.643-.63-1.643-.528-.003 1.975 1.67 2.549 1.659 2.663-.328 3.293-2.688.854-2.032 1.388 3.445 2.803 3.321.858 5.135 2.073 6.834 4.576 5.411 7.969 12.667 9.73 19.288 4.68 5.01-3.821 9.378-13.201 10.188-21.875.6-6.423.535-6.669-2.571-9.776-2.83-2.83-3.649-3.126-7.303-2.635-2.263.303-5.279 1.404-6.701 2.446-2.397 1.755-6.154 8.047-7.615 12.752-.55 1.769-.777 1.633-1.965-1.171-1.577-3.72-4.66-5.776-6.261-4.175-.748.748-1.433.365-2.322-1.297-.694-1.296-1.223-2.582-1.176-2.857s-.174-.725-.492-1c-.317-.275-.253.063.143.75 1.407 2.445-.06 1.199-2.354-2-1.282-1.787-1.762-2.723-1.066-2.078 2.303 2.133 3.917.462 3.289-3.405-.385-2.376-.227-3.36.471-2.928 1.045.645 2.26-5.008 2.252-10.47-.007-4.284 4.017-6.187 12.601-5.96 5.045.133 8.393-.331 11.07-1.535 2.111-.949 5.434-1.617 7.385-1.484 2.719.186 4.18-.389 6.25-2.46 1.487-1.487 2.703-3.481 2.703-4.432 0-2.64 3.748-6.829 8.095-9.046 2.934-1.497 3.905-2.601 3.905-4.441 0-1.454-.507-2.325-1.25-2.144-.687.168-.912.116-.5-.114 1.502-.84.698-3.135-1.322-3.776-1.457-.462-1.864-1.151-1.372-2.317 1.532-3.627 1.654-6.014.297-5.808-2.479.375-3.996 1.834-3.433 3.301.307.798.156 1.203-.334.9s-1.366.812-1.947 2.478c-.904 2.593-1.42 2.936-3.597 2.39-2.499-.627-2.542-.541-2.542 5.03 0 3.552.376 5.435 1.008 5.044 1.055-.652-.695 4.056-2.326 6.255-1.712 2.309-2.215 1.283-2.215-4.518 0-4.522-.531-6.513-2.457-9.218-1.351-1.898-2.547-4.068-2.658-4.824-.111-.755-.532-1.67-.936-2.032s-.466.092-.138 1.009c.547 1.531.376 1.541-2.091.128-2.5-1.432-2.664-1.938-2.355-7.288.583-10.083-5.806-19.317-14.322-20.699-3.102-.503-3.51-.917-3.51-3.553 0-4.366-3.599-10.048-8.292-13.091-3.547-2.3-5.162-2.664-11.826-2.664C88.956 43 87 42.464 87 40.015c0-3.188 2.572-4.299 8.295-3.584 4.627.578 5.556.391 7.23-1.459 1.918-2.119 1.917-2.121-.771-1.446-1.883.472-3.692.057-6.019-1.381-3.96-2.447-10.148-3.404-14.05-2.172M90.5 66.56c-.55.146-2.203.529-3.672.852-5.698 1.252-5.756 12.596-.069 13.408 1.766.251 2.244-.173 2.256-2 .009-1.276.495-2.995 1.08-3.82.797-1.123.943-.432.58 2.75-.535 4.689.32 5.858 3.167 4.334 2.778-1.486 4.672-6.72 3.568-9.859-1.258-3.576-2.496-3.341-4.072.775-1.309 3.416-1.332 3.428-.981.5.198-1.65.675-3.729 1.059-4.621.694-1.609-.879-2.859-2.916-2.319m24.792.933c-1.215.859-1.984 2.147-1.709 2.862s.044 2.495-.511 3.955c-.845 2.224-.63 3.064 1.324 5.172 2.89 3.119 4.599 3.218 4.619.268.009-1.237.488-2.925 1.065-3.75.794-1.135.961-.594.689 2.221-.211 2.172.113 3.903.776 4.158 2.954 1.134 5.894-4.227 4.982-9.086-.731-3.899-1.468-3.662-3.201 1.029-1.007 2.725-1.185 2.848-1.25.862-.042-1.273.416-3.234 1.017-4.357 1.251-2.337.463-3.43-3.093-4.291-1.532-.371-3.355-.001-4.708.957M42.148 89.126c-.235 3.967 3.604 13.593 6.318 15.846 1.165.966 1.607.471 2.483-2.782.586-2.176 1.737-4.515 2.558-5.196C54.734 95.976 55.744 90 54.69 90c-.171 0-3.012-1.059-6.314-2.352l-6.002-2.353zm118.416-2.833c.376.986.935 1.541 1.243 1.233s.001-1.114-.683-1.793c-.988-.98-1.102-.865-.56.56M40.195 91.5c.02 1.65.244 2.204.498 1.231s.237-2.323-.037-3-.481.119-.461 1.769m66.677-.75c-1.243 1.586-1.208 1.621.378.378 1.666-1.307 2.195-2.128 1.372-2.128-.207 0-.995.787-1.75 1.75m49.699 4.413c.379 1.095-.046 1.791-1.248 2.04-1.556.323-1.494.468.426.994 2.877.787 3.592-.379 1.717-2.8-1.142-1.473-1.342-1.525-.895-.234m-17.104 12.774c.835 1.615 1.973 3.217 2.528 3.56s.063-.979-1.092-2.937c-2.533-4.293-3.565-4.741-1.436-.623M150.232 110c-.713 1.141-2.426 2.05-3.99 2.116-1.8.076-2.12.277-.934.585.995.257 2.57.134 3.5-.275s1.936-.703 2.234-.654.608-.779.688-1.841c.182-2.412.048-2.406-1.498.069M58 113.378c0 .207.788.995 1.75 1.75 1.586 1.243 1.621 1.208.378-.378-1.307-1.666-2.128-2.195-2.128-1.372M61.232 120c0 1.925.206 2.713.457 1.75.252-.963.252-2.537 0-3.5-.251-.963-.457-.175-.457 1.75M41 118.383c0 .211.901.619 2.001.907 1.101.288 1.75.115 1.441-.383-.538-.871-3.442-1.313-3.442-.524m11.195 4.117c.02 1.65.244 2.204.498 1.231s.237-2.323-.037-3-.481.119-.461 1.769m49.4 6.113c-.506 1.319-.894 1.384-2.134.355-1.307-1.085-1.48-.807-1.265 2.022.17 2.234 1.123 3.926 2.988 5.304 1.505 1.113 2.541 2.342 2.3 2.731-.24.389.557 1.555 1.772 2.591 1.394 1.188 1.757 1.296.985.292-.673-.876-1.066-1.776-.872-2 .193-.224.632-3.22.976-6.658.608-6.089.563-6.25-1.753-6.25-1.308 0-2.656.726-2.997 1.613m9.6 4.887c.02 1.65.244 2.204.498 1.231s.237-2.323-.037-3-.481.119-.461 1.769m-17.786 4.877c-.367.956-1.284 1.501-2.038 1.212s-1.371-.076-1.371.474.672 1.258 1.494 1.573c.822.316 1.265.945.984 1.4s-.005 1.138.612 1.52c.808.499.767.914-.144 1.478-.832.514.066 1.151 2.613 1.855 5.638 1.556 6.15.084 2.075-5.966-2.845-4.225-3.692-4.936-4.225-3.546M86 149.378c0 .207.787.995 1.75 1.75 1.586 1.243 1.621 1.208.378-.378-1.307-1.666-2.128-2.195-2.128-1.372"/><path fill-opacity=".266" fill-rule="evenodd" d="M85.269 29.693c.973.254 2.323.237 3-.037s-.119-.481-1.769-.461-2.204.244-1.231.498m-9.265 3.419c-2.016 1.461-4.417 4.238-5.335 6.173-3.087 6.506-1.75 16.83 2.565 19.8.467.322-.964 1.842-3.181 3.379-5.497 3.808-9.551 12.02-8.666 17.552.725 4.534.66 4.56-5.779 2.366-3.099-1.056-6.694-1.457-10.346-1.154-4.723.392-6.04.96-8.43 3.634-3.206 3.588-3.614 7.329-1.383 12.67 1.626 3.892 1.613 3.909-1.872 2.321-1.951-.889-2.868-.857-4.072.142-.854.71-1.835 1.008-2.18.663s-1.268.154-2.05 1.108c-.88 1.072-1.143 1.162-.689.234.404-.825.4-1.2-.009-.833-.409.366-.594.86-.41 1.096.529.682-2.321 3.76-3.06 3.303-.366-.226-.614.789-.55 2.256.082 1.866 1.06 3.218 3.253 4.499 3.695 2.158 5.164 1.563 5.26-2.13.065-2.478 1.7-7.68 1.86-5.918.038.425 1.163.057 2.498-.818 2.304-1.51 2.487-1.472 3.556.727 1.075 2.213 1.056 2.23-.429.377-.855-1.068-1.587-1.743-1.626-1.5-.98 6.061-.795 7.752 1.025 9.399 1.915 1.734 2.014 1.705 3.204-.905.931-2.043.955-3.416.1-5.681l-1.128-2.987 4.185 3.781c2.302 2.079 4.14 4.13 4.085 4.557a81 81 0 0 0-.25 2.534c-.124 1.455-.966 1.706-4.9 1.459-4.43-.278-4.619-.194-2.809 1.243 1.068.848 2.729 1.541 3.691 1.541.963 0 2.01.421 2.328.936.595.963-2.547.227-7.71-1.804-1.714-.675-2.75-.715-2.75-.107v1.725c0 .759.485.899 3.883 1.125 1.036.069 2.119 1.025 2.407 2.125.303 1.159 1.364 2 2.523 2 1.507 0 1.871.492 1.477 2-.63 2.408-.457 2.429 3.544.433 1.727-.862 3.678-1.235 4.335-.829.656.406-.016-.848-1.494-2.786-2.198-2.882-2.648-4.436-2.47-8.53.209-4.815.022-5.197-4.905-9.996-15.408-15.008-2.416-27.567 17.297-16.72 8.316 4.576 10.705 7.619 2.884 3.673-3.289-1.66-8.006-3.598-10.481-4.307-2.475-.708-5.034-1.691-5.686-2.182-.715-.539-2.007-.456-3.25.21-2.631 1.408-2.6 1.503.555 1.686 1.44.083 4.365.939 6.5 1.901C54.25 89.965 55 90.831 55 93.029c0 1.5-.672 3.284-1.493 3.965s-1.972 3.02-2.558 5.196c-.867 3.217-1.326 3.742-2.457 2.803-1.872-1.553-5.694-9.581-6.645-13.955-.646-2.973-.718-2.7-.455 1.706.452 7.558 4.536 13.664 11.608 17.353 6.753 3.522 9 6.129 9 10.44 0 2.318-.527 3.454-1.75 3.774-1.578.412-1.584.468-.059.573.93.064 1.969-.334 2.309-.884s1.661-1 2.937-1 2.878-.675 3.563-1.5 1.695-1.5 2.245-1.5c.595 0 .535.56-.148 1.383-.888 1.07-.788 1.522.441 1.993.893.343 1.274 1.119.871 1.771-.436.706-.282.893.393.475.611-.377.827-1.425.481-2.328-.501-1.304-.235-1.481 1.293-.862 1.058.429 3.836 1.449 6.174 2.268 3.684 1.29 4.25 1.875 4.25 4.394 0 3.431 1.717 3.844 2.883.693l.819-2.213 1.109 2.072c.61 1.14.852 3.654.539 5.586-.647 3.988 1.271 6.197 2.881 3.319.829-1.48 1.471-.981 4.465 3.464 4.033 5.989 3.48 7.436-2.226 5.824-2.184-.616-3.389-1.326-2.678-1.577.992-.351 1.022-.782.127-1.859-.64-.772-.884-1.403-.541-1.403s-.368-.99-1.578-2.2c-2.344-2.344-5.897-3.15-6.917-1.569-.37.573-1.855.318-3.701-.637-1.695-.877-4.005-1.594-5.132-1.594-2.297 0-2.781 1.782-.701 2.581 1.094.419.905 2.355-.998 10.218-1.291 5.336-2.348 12.54-2.349 16.01-.001 4.465-.335 6.103-1.141 5.605-1.415-.875-.524-23.028 1.157-28.758 1.381-4.706.711-5.698-1.533-2.273-2.144 3.272-4.042 23.392-2.8 29.684.789 4 1.263 4.564 4.845 5.775 5.881 1.988 20.834 1.021 24.321-1.573 2.721-2.024 4.29-6.545 2.097-6.043-.659.151-1.425-.351-1.703-1.115-.348-.96-.078-1.138.875-.578.759.446.523-.167-.525-1.361-2.128-2.426-3.547-3.024-1.595-.672.694.837.803 1.5.245 1.5-1.453 0-3.351-2.56-2.517-3.395.391-.391-.063-.414-1.008-.051-1.013.389-1.72.187-1.72-.491 0-.633-.562-1.078-1.25-.988-2.768.359-3.75-.166-3.75-2.004 0-2.506 2.858-5.339 4.681-4.64 1.847.709.595-1.459-1.87-3.238-.996-.718-1.811-2.19-1.811-3.27 0-1.942.044-1.941 3.96.057 2.197 1.12 5.919 2.02 8.359 2.02 4.218 0 4.546.224 8.025 5.463 2.543 3.83 3.109 5.264 1.894 4.798-1.643-.63-1.643-.528-.003 1.975 1.67 2.549 1.659 2.663-.328 3.293-2.729.867-2.085 1.341 3.99 2.944 4.71 1.242 5.103 1.211 5.103-.409 0-.964.965-2.611 2.146-3.659 2.117-1.88 2.131-1.879 1.098.096-2.145 4.097-1.839 9.237.711 11.951 7.16 7.622 17.573 4.055 23.187-7.942 3.96-8.462 4.89-18.03 2.088-21.48-1.673-2.061-2.726-2.419-6.347-2.157-2.388.172-5.701 1.016-7.363 1.875-2.924 1.511-2.973 1.5-1.55-.343.997-1.292.635-1.163-1.123.4-2.33 2.072-4.459 6-6.337 11.695-.589 1.786-.801 1.665-1.986-1.13-1.432-3.378-2.442-4.276-5.463-4.858-1.473-.284-1.793.033-1.316 1.307.549 1.465.413 1.505-1.058.309-1.482-1.206-1.687-1.119-1.687.718 0 4.001-2.996 1.034-10.539-10.437-4.44-6.753-7.461-12.396-7.461-13.937 0-1.582.416-2.333 1.068-1.93.588.363.835 1.268.55 2.011-.312.812.72 1.968 2.588 2.9 2.992 1.493 3.045 1.482 1.45-.281-2.187-2.417-2.33-5.977-.168-4.182 1.205 1 1.606.929 2.107-.377.343-.893 1.743-1.613 3.137-1.613 2.287 0 2.461.287 1.893 3.125-.344 1.719-.625 4.713-.625 6.655v3.53l-2.25-1.898c-1.907-1.609-1.869-1.467.25.932l2.5 2.83.632-2.837c.347-1.56.685-2.05.75-1.087.129 1.919 1.636 2.339 2.628.734.346-.559 1-.787 1.455-.506.834.516 2.033-5.76 2.026-10.609-.007-4.284 4.017-6.187 12.601-5.96 5.045.133 8.393-.331 11.07-1.535 2.111-.949 5.434-1.617 7.385-1.484 2.719.186 4.18-.389 6.25-2.46 1.487-1.487 2.703-3.481 2.703-4.432 0-2.64 3.748-6.829 8.095-9.046 2.284-1.166 3.899-2.711 3.891-3.722-.028-3.541-1.26-6.182-3.166-6.787-1.363-.433-1.75-1.132-1.264-2.283 1.532-3.627 1.654-6.014.297-5.808-2.602.393-3.807 1.762-4.97 5.645-.645 2.151-1.797 4.045-2.561 4.208-.957.203-.711.715.789 1.644 1.97 1.22 2.117 1.172 1.532-.5-.611-1.745-.565-1.742.823.048 1.692 2.184 1.153 3.778-.998 2.952-.807-.309-1.468-.038-1.468.603s.419.907.931.591 1.213-.118 1.559.441c.811 1.312 4.51 1.326 4.51.016 0-.55-.6-1-1.333-1-.734 0-1.355-.562-1.381-1.25s-.375-2.037-.774-3c-.585-1.411-.209-1.75 1.94-1.75 1.466 0 2.412.412 2.101.915s-.041 1.089.599 1.302c.641.214 1.312 1.35 1.491 2.525.244 1.599-.833 2.919-4.278 5.245-2.533 1.709-4.832 2.88-5.11 2.602s-1.461 1.36-2.63 3.639c-2.569 5.011-4.455 6.282-8.001 5.392-2.915-.731-6.639-5.892-6.58-9.12.029-1.596.352-1.395 1.603 1 1.991 3.812 4.136 5.5 6.987 5.5 2.558 0 5.39-3.447 5.318-6.473-.036-1.525-.469-1.179-1.75 1.4-2.504 5.042-4.411 5.232-3.632.363.64-4.005-1.233-10.155-4.037-13.253-.765-.846-1.423-1.987-1.462-2.537s-.409-1.022-.821-1.049c-4.063-.266-4.75-1.418-4.413-7.393.566-10.053-5.872-19.378-14.327-20.75-3.137-.509-3.512-.901-3.525-3.689-.009-1.715-.492-3.794-1.075-4.619-.79-1.119-.921-.483-.515 2.5l.546 4-1.395-3.5c-1.791-4.497-1.89-6.312-.296-5.412.921.52.908.338-.05-.691-.715-.768-1.84-1.417-2.5-1.442s-1.086-.593-.946-1.263c.573-2.742-5.98-5.184-13.922-5.188C88.954 42.999 87 42.46 87 40.015c0-3.188 2.572-4.299 8.295-3.584 4.579.572 5.564.382 7.162-1.384 1.037-1.145 1.344-2.047.698-2.047-.635 0-1.155.337-1.156.75s-1.122.815-2.493.894-2.237-.27-1.925-.775.197-.854-.257-.775c-1.954.339-3.4-.163-2.882-1.001.309-.498-.452-.684-1.691-.413-1.354.297-1.793.16-1.101-.343.662-.482-1.637-.846-5.415-.859-5.539-.018-7.138.394-10.231 2.634m4.363 1.66c-1.173.951-2.625 2.69-3.225 3.866-2.523 4.939 7.967 13.481 16.265 13.246 4.185-.119 3.828-.307-2.545-1.342-2.001-.325-5.713-2.175-8.25-4.112-5.593-4.271-5.992-7.091-1.535-10.841 3.379-2.844 2.724-3.598-.71-.817m25.529 11.32c2.417 1.072 4.624 1.721 4.903 1.442.615-.615-6.21-3.563-8.017-3.463-.705.038.696.948 3.114 2.021m-4.037 7.93c2.398 1.088 4.873 1.968 5.5 1.956.628-.012-.821-.912-3.218-2s-4.873-1.968-5.5-1.956c-.628.012.821.912 3.218 2m3.224 8.336c1.043.897 7.91 1.439 7.38.583-.319-.518-2.204-.941-4.189-.941s-3.42.161-3.191.358m-20.265 2.86c.533.533 1.805.793 2.826.576 1.375-.291 1.123-.543-.97-.969-1.825-.373-2.482-.233-1.856.393m3.303 1.842c-1.859.407-3.775 1.348-4.259 2.09-2.966 4.552-1.206 11.091 3.147 11.696 1.37.19 2.996.76 3.614 1.267 1.687 1.384 4.271-.007 5.914-3.185 1.873-3.621 1.849-5.931-.088-8.698-2.215-3.162-4.462-4.017-8.328-3.17m27.143.467c-1.199.84-1.956 2.113-1.681 2.828s.044 2.495-.511 3.955c-1.743 4.585 3.501 8.458 10.557 7.796 1.844-.173 3.616-5.713 2.888-9.028-.716-3.261-4.722-7.078-7.429-7.078-.904 0-2.624.687-3.824 1.527M68 71.5c0 .825.45 1.5 1 1.5s1-.675 1-1.5-.45-1.5-1-1.5-1 .675-1 1.5m32.158 4.5c0 1.375.227 1.938.504 1.25.278-.687.278-1.812 0-2.5-.277-.687-.504-.125-.504 1.25M98.1 81.295c-1.265 2.107-1.243 2.128.479.479.991-.95 1.587-1.942 1.324-2.205s-1.074.514-1.803 1.726m33.979 2.288c.048 1.165.285 1.402.604.605.289-.722.253-1.585-.079-1.917s-.568.258-.525 1.312m28.269 2.062c.352.63-.024 1.401-.837 1.712-.839.322-1.222 1.232-.887 2.105.324.846.092 1.538-.517 1.538s-1.107.436-1.107.969c0 1.8 2.721-.061 3.912-2.676.914-2.005.911-2.848-.011-3.695-.872-.802-1.022-.789-.553.047M128 89.901l-3.5 3.401 3.129-1.614c1.721-.888 3.419-2.37 3.773-3.294.947-2.468.472-2.257-3.402 1.507M82 89c-.901.582-1.025.975-.309.985.655.008 1.469-.435 1.809-.985.767-1.242.421-1.242-1.5 0m24.333 1.651c0 .984.337 1.038 1.334.211.733-.609 1.333-1.202 1.333-1.318s-.6-.211-1.333-.211a1.33 1.33 0 0 0-1.334 1.318m6.078 2.205c.291.47-.583.643-1.941.383-1.772-.339-2.47-.032-2.47 1.085 0 .857.45 1.836 1 2.176s1.007 1.379 1.015 2.309c.03 3.285 1.562 4.443 4.908 3.708 2.577-.566 2.954-.96 2.01-2.098-.64-.77-.966-2.738-.727-4.371.286-1.948-.047-3.157-.967-3.51-2.089-.801-3.427-.651-2.828.318m26.674 3.415c1.175 2.074 1.904 4.662 1.62 5.75-.285 1.088-.11 1.979.389 1.979 1.941 0 .827-5.976-1.62-8.694l-2.527-2.806zm10.93-.688c.009 1.605.446 3.592.972 4.417.651 1.021.761.224.343-2.5-.758-4.943-1.335-5.785-1.315-1.917m10.718.541c.679.684 1.486.991 1.793.683.308-.308-.247-.867-1.233-1.243-1.425-.542-1.54-.428-.56.56M120 96.393c0 .216.698.661 1.552.989.89.341 1.291.173.941-.393-.587-.951-2.493-1.406-2.493-.596m-61 2.548c0 .518.445 1.216.989 1.552.566.35.734-.051.393-.941C59.717 97.82 59 97.503 59 98.941m39.75 4.721c.688.278 1.813.278 2.5 0 .688-.277.125-.504-1.25-.504s-1.937.227-1.25.504m31.25.838c0 .825.45 1.5 1 1.5s1-.675 1-1.5-.45-1.5-1-1.5-1 .675-1 1.5m-48.988 2.523c1.261 2.355 1.655 2.479 1.655.52 0-.801-.611-1.691-1.357-1.977-1.064-.409-1.128-.095-.298 1.457M64 112c-1.282.828-1.246.972.25.985.963.008 1.75-.435 1.75-.985 0-1.22-.113-1.22-2 0m58.624.539c-.343.893-.595 2.15-.561 2.793.035.642.495.09 1.022-1.227s.779-2.574.56-2.793-.679.333-1.021 1.227M53 114.049c.825.56 2.4 1.478 3.5 2.041 1.572.804 1.495.583-.361-1.034-1.298-1.131-2.873-2.049-3.5-2.041s-.464.474.361 1.034m10.813 1.634c.721.289 1.584.253 1.916-.079s-.258-.568-1.312-.525c-1.165.048-1.402.285-.604.604m-5.008 1.846c-.291.29-2.503.916-4.917 1.39l-4.388.862 3.75.109c2.063.061 3.75.587 3.75 1.169s.498.751 1.107.375c.794-.491.771-.892-.084-1.42-.866-.535-.776-.895.329-1.319.835-.32 1.737-.045 2.004.611.268.657.522.407.565-.556.076-1.686-1.02-2.318-2.116-1.221M115 120l-2.5.801 2.75.099c1.513.055 2.75-.35 2.75-.9s-.112-.955-.25-.9-1.375.46-2.75.9m-22.75 2.689c.963.252 2.537.252 3.5 0 .963-.251.175-.457-1.75-.457s-2.713.206-1.75.457M111.232 134c0 1.925.206 2.713.457 1.75.252-.963.252-2.537 0-3.5-.251-.963-.457-.175-.457 1.75M107 143.378c0 .207.787.995 1.75 1.75 1.586 1.243 1.621 1.208.378-.378-1.307-1.666-2.128-2.195-2.128-1.372m29.872 8.372c-1.243 1.586-1.208 1.621.378.378 1.666-1.307 2.195-2.128 1.372-2.128-.207 0-.995.787-1.75 1.75m-39.622 3.939c.963.252 2.537.252 3.5 0 .963-.251.175-.457-1.75-.457s-2.713.206-1.75.457"/><path fill-opacity=".406" fill-rule="evenodd" d="M85.269 29.693c.973.254 2.323.237 3-.037s-.119-.481-1.769-.461-2.204.244-1.231.498m-8.95 3.191C71.295 36.523 69 41.32 69 48.179c0 5.058 1.516 8.862 4.442 11.147.738.577.723.965-.05 1.286-.61.253-1.96 1.144-3 1.979-1.801 1.446-1.787 1.469.292.464 1.202-.58 4.577-1.087 7.5-1.125 8.472-.112 10.435-1.494 3.378-2.378C73.596 58.555 70 54.991 70 48.09c0-6.03 4.321-13.158 9.695-15.994 2.093-1.104 3.085-2.027 2.205-2.052s-3.391 1.254-5.581 2.84m26.208 1.072c-.325.526-1.364.709-2.309.406-1.482-.475-1.512-.389-.218.625 1.193.934.886 1.009-1.5.367-11.584-3.121-20.719 2.334-14.186 8.472 2.635 2.475 6.479 2.751 14.863 1.067 4.643-.932 6.007-.849 8.666.526 1.737.898 3.157 1.407 3.157 1.132 0-1.76-6.742-3.551-13.369-3.551C88.957 43 87 42.451 87 40.015c0-3.188 2.572-4.299 8.295-3.584 4.579.572 5.564.382 7.162-1.384 1.019-1.126 1.585-2.047 1.257-2.047s-.862.43-1.187.956m13.488 20.235c-.008.93.435 1.969.985 2.309 1.266.782 1.266-.542 0-2.5-.835-1.293-.971-1.266-.985.191m-5.574 6.323c1.068.817 3.318 1.434 5 1.37 1.997-.076 2.365-.269 1.059-.558-1.1-.243-3.35-.86-5-1.37-2.783-.861-2.86-.821-1.059.558m12.47 3.194c5.078 2.668 8.813 8.003 10.654 15.216 1.501 5.881 1.506 6.705.054 9.75C132.746 90.503 131.5 92 130.85 92c-.651 0-.894.289-.541.643.354.353 1.315.084 2.136-.597.886-.736 3.121-1.052 5.5-.777 2.204.255 3.762.066 3.462-.419-.3-.486-.852-.707-1.226-.491-.375.215-1.55.075-2.612-.311-1.664-.604-1.897-1.553-1.68-6.86.209-5.13-.212-7.01-2.518-11.247-3.033-5.573-6.407-8.48-10.932-9.416-2.902-.601-2.897-.587.472 1.183m-37.404 3.281c-.35.566.051.734.941.393 1.732-.665 2.049-1.382.611-1.382-.518 0-1.216.445-1.552.989m8.493.389c0 .207.787.995 1.75 1.75 1.586 1.243 1.621 1.208.378-.378C94.821 67.084 94 66.555 94 67.378m29 0c0 .207.787.995 1.75 1.75 1.586 1.243 1.621 1.208.378-.378-1.307-1.666-2.128-2.195-2.128-1.372m-61.022 6.187c-.647 1.961-.886 5.111-.532 7 .754 4.016-.153 4.291-6.042 1.831-2.609-1.091-5.74-1.467-9.77-1.176-5.138.372-6.313.856-8.783 3.62-3.212 3.595-3.638 7.34-1.436 12.611.778 1.862 1.164 3.637.857 3.944s.179.841 1.079 1.186c.901.346 1.346 1.101.989 1.678-.357.578-.19.766.372.419.561-.347 1.863.3 2.893 1.438s2.778 2.523 3.884 3.078-.193-1.175-2.887-3.843c-7.238-7.168-9.079-12.594-6.177-18.206 4.208-8.137 15.674-6.682 29.559 3.75 4.472 3.361 6.192 4.076 9.489 3.945 3.72-.148 3.778-.191.758-.565-2.034-.252-3.015-.816-2.595-1.494.37-.6.266-.842-.231-.539-.498.303-3.295-1.172-6.215-3.278-5.233-3.773-5.277-3.847-3-5.079 3.493-1.889 10.743-1.491 16.06.882 5.9 2.634 6.217 2.038.5-.942-2.883-1.504-6.07-2.228-9.912-2.254-5.601-.037-5.672-.075-6.718-3.566-.582-1.941-.794-4.536-.472-5.767.947-3.62-.386-2.561-1.67 1.327m51.101-1.982c.048 1.165.285 1.402.604.605.289-.722.253-1.585-.079-1.917s-.568.258-.525 1.312m-31.575 8.38c-1.507.556-.772.918 3 1.48 2.748.409 5.671 1.265 6.496 1.901 1.305 1.006 1.322.929.128-.594-.755-.963-2.353-1.75-3.55-1.75-1.198 0-2.605-.399-3.128-.886-.523-.488-1.848-.556-2.946-.151m34.337 3.825c-1.19 1.519-1.156 1.567.302.428.97-.757 3.506-1.143 6.191-.941 2.501.188 4.358.035 4.126-.339-.231-.375-2.414-.722-4.85-.77-3.07-.062-4.84.436-5.769 1.622m42.547 2.743c-.913 1.392-1.462 2.729-1.221 2.969.241.241 1.227-.898 2.192-2.531 2.136-3.615 1.344-3.972-.971-.438M93 87c.589 1.1 1.295 2 1.57 2s.019-.9-.57-2-1.295-2-1.57-2-.019.9.57 2m29.75.662c.688.278 1.813.278 2.5 0 .688-.277.125-.504-1.25-.504s-1.937.227-1.25.504m-16.293 2.083c-2.537 2.179-5.382 5.894-3.776 4.931.649-.39 1.463-.251 1.809.308S105.822 96 106.681 96c1.083 0 1.276-.385.63-1.25-1.575-2.108-.346-5.75 1.939-5.75.623 0 .259.661-.809 1.468-1.91 1.445-1.908 1.469.109 1.5 1.128.018 2.617.595 3.309 1.282 1.01 1.002 1.125.897.581-.533-.607-1.594-.405-1.658 1.909-.604 1.424.649 2.308 1.633 1.965 2.188-.389.63-.107.689.753.158.757-.468 2.739-.807 4.404-.753 1.865.059 2.26-.097 1.029-.408-1.1-.277-2.675-1.077-3.5-1.777-.825-.699-2.274-1.145-3.219-.989-.945.155-1.62-.239-1.5-.875.36-1.901-5.587-1.834-7.824.088M55 92.505c0 1.417-.853 3.795-1.897 5.285-2.82 4.03-3.506 9.123-1.336 9.931 2.392.889 7.462 4.466 8.901 6.279.654.825 1.476 3.009 1.826 4.853.529 2.792.833 3.105 1.821 1.87.652-.816 2.452-1.778 4-2.138 2.188-.51 2.745-1.149 2.5-2.87-.403-2.832-2.22-2.881-2.621-.071-.193 1.356-1.204 2.316-2.75 2.611-1.989.381-2.444.061-2.444-1.719 0-2.268-3.203-5.78-6.251-6.856-.964-.34-2.514-2.216-3.445-4.169-1.543-3.235-1.553-3.691-.114-5.13 1.44-1.439 1.742-1.304 3.41 1.52 1.007 1.704 2.195 3.099 2.64 3.099s1.219 1.077 1.72 2.394 2.402 3.113 4.225 3.99l3.315 1.595-2.5-2.122c-1.375-1.167-2.35-2.624-2.167-3.239s.021-.805-.361-.423c-1.036 1.036-5.455-4.649-6.532-8.404-1.401-4.886-1.208-7.108.56-6.429 2.185.838 1.836-.112-.5-1.362-1.759-.942-2-.76-2 1.505M156.111 92c-.026.825.599 2.354 1.389 3.397 1.659 2.192 1.106 3.773-1.032 2.952-.807-.309-1.468-.038-1.468.603s.419.907.931.591 1.213-.118 1.559.441 1.614.971 2.819.916c2.019-.092 1.995-.154-.299-.792-1.699-.473-2.095-.937-1.247-1.461.886-.548.955-1.306.24-2.642-1.349-2.52-1.269-3.005.497-3.005.825 0 1.5-.466 1.5-1.035 0-.711-.601-.713-1.919-.008-1.396.747-2.057.688-2.421-.215q-.504-1.249-.549.258M60 95.786c0 2.842 2.578 6.214 4.752 6.214.602 0 2.577 1.237 4.389 2.75l3.295 2.75-1.968-2.7c-1.082-1.485-3.174-2.976-4.649-3.314-3.426-.785-5.198-2.929-4.531-5.48.288-1.102.116-2.256-.382-2.564S60 94.189 60 95.786m68.032-2.158c-.018.62.531 1.567 1.218 2.105 1.724 1.349 5.881 2.289 5.192 1.174-.308-.499-1.271-.907-2.141-.907-.869 0-2.178-.787-2.909-1.75s-1.343-1.243-1.36-.622m21.983 1.955c.009 1.605.446 3.592.972 4.417.651 1.021.761.224.343-2.5-.758-4.943-1.335-5.785-1.315-1.917M163 94c-.901.582-1.025.975-.309.985.655.008 1.469-.435 1.809-.985.767-1.242.421-1.242-1.5 0m-64.187 1.683c.721.289 1.584.253 1.916-.079s-.258-.568-1.312-.525c-1.165.048-1.402.285-.604.604m10.305 3.367c-.143 3.081 1.558 4.985 4.332 4.85 1.719-.083 1.646-.212-.448-.794-1.704-.474-2.699-1.635-3.132-3.651-.596-2.78-.64-2.804-.752-.405m35.366.081c.61 3.246-1.375 9.378-2.63 8.123-.494-.494-1.288-2.89-1.766-5.326l-.869-4.428-.109 4.027c-.103 3.755 1.755 7.918 4.332 9.708 3.426 2.378 8.619-1.105 8.51-5.708-.036-1.525-.469-1.179-1.75 1.4-2.498 5.031-4.411 5.233-3.636.385.414-2.586.089-5.024-.979-7.342-1.299-2.822-1.505-2.978-1.103-.839M116 99.603c0 .929 3.954 2.281 4.428 1.514.302-.489-.571-1.102-1.94-1.364s-2.488-.329-2.488-.15M33.5 101c.34.55.816 1 1.059 1s.441-.45.441-1-.477-1-1.059-1-.781.45-.441 1m38 1c.995 1.1 2.035 2 2.31 2s-.315-.9-1.31-2-2.035-2-2.31-2 .315.9 1.31 2m-47.628 2.75c-1.243 1.586-1.208 1.621.378.378.962-.755 1.75-1.543 1.75-1.75 0-.823-.821-.294-2.128 1.372m10.628 2.594c0 1.839.651 4.129 1.447 5.09 1.377 1.661 1.512 1.659 2.75-.035.717-.98 1.25-2.933 1.185-4.34-.113-2.434-.156-2.413-.882.441-.723 2.843-.77 2.866-.882.45-.108-2.336-1.729-4.95-3.068-4.95-.302 0-.55 1.505-.55 3.344m59.109 1.079c.3.782 1.273 1.702 2.162 2.043 1.328.509 1.287.255-.232-1.423-2.178-2.407-2.677-2.567-1.93-.62m9.837-.336c-.369.598-.222 1.537.328 2.087q1 1 1.672-.087c.37-.598.083-1.094-.637-1.102-.951-.011-.899-.281.191-.985.901-.582 1.025-.975.309-.985-.655-.008-1.493.474-1.863 1.072m-75.31 2.163c-.164 3.317-.433 3.348-4.945.559-1.95-1.205-3.212-1.652-2.805-.993s2.114 1.908 3.792 2.776c3.55 1.836 5.218.834 4.543-2.727-.412-2.171-.46-2.139-.585.385M66.5 109c1.1.473 2.9.846 4 .83 1.608-.024 1.51-.186-.5-.83-3.419-1.095-6.048-1.095-3.5 0m7.313 1.683c.721.289 1.584.253 1.916-.079s-.258-.568-1.312-.525c-1.165.048-1.402.285-.604.604m38.751 1.024c-.542 1.425-.428 1.54.56.56.684-.679.991-1.486.683-1.793-.308-.308-.867.247-1.243 1.233m-66.43 3.852c-.074 2.232.497 4.922 1.268 5.976 1.248 1.707 1.133 2.166-1.052 4.191-2.742 2.542-2.43 2.893.914 1.024 3.334-1.864 3.889-3.108 2.012-4.51-.938-.701-1.98-3.364-2.348-6l-.661-4.74zm62.679-1.876c.721.289 1.584.253 1.916-.079s-.258-.568-1.312-.525c-1.165.048-1.402.285-.604.604m28.841 1.102c.87 3.329-3.981 6.215-10.444 6.215-4.421 0-6.237-.532-9.116-2.673l-3.594-2.673 2.424 2.673c1.334 1.47 2.234 2.71 2 2.754s-1.549.213-2.924.374-4.924.799-7.886 1.419c-2.963.619-8.502 1.126-12.31 1.126-5.271 0-6.743.298-6.171 1.25.541.9.292.878-.889-.079-1.025-.831-2.211-1.009-3.165-.475-1.325.741-1.343 1.204-.14 3.525 1.021 1.967 1.08 2.796.224 3.146-.806.329-.769.499.119.554.705.043 1.651-.917 2.101-2.134.798-2.157.845-2.163 1.871-.247.579 1.082.926 3.54.772 5.463-.259 3.226-.523 3.486-3.403 3.351-1.718-.08-3.123.266-3.123.769s-1.105.638-2.456.299c-2.025-.509-2.566-.182-3.079 1.86-.341 1.362-.474 3.768-.293 5.347.247 2.159.788 2.792 2.184 2.553 1.187-.204 1.689.157 1.392 1-.255.725-1.218 1.253-2.141 1.173-1.319-.114-1.432.151-.529 1.239.632.761 1.617 1.094 2.19.74.607-.375.742-.158.322.52-1.146 1.855 3.555 3.144 5.257 1.441.776-.775 2.051-1.164 2.834-.864 1.847.709.595-1.459-1.87-3.238C86.815 150.475 86 149.037 86 148c0-1.828.146-1.823 4.612.153 2.817 1.246 5.967 1.882 8.092 1.633 3.283-.383 3.708-.07 7.521 5.545 2.223 3.274 3.532 5.637 2.908 5.251-.652-.403-1.133-.063-1.133.8 0 .825.511 1.816 1.135 2.201.733.453.3 1.149-1.219 1.962-2.287 1.224-2.227 1.293 2.115 2.407 2.458.631 5.032 1.335 5.719 1.566.689.231 1.25-.38 1.25-1.362 0-2.341 5.617-7.805 6.206-6.038.296.888.627.76 1.079-.419.431-1.123.155-1.699-.816-1.699-.808 0-1.469-.625-1.469-1.389 0-2.143-3.252-5.607-5.692-6.064-1.715-.321-2.056-.044-1.563 1.272.568 1.517.448 1.534-1.231.181-1.722-1.388-1.817-1.332-1.281.75.65 2.524.41 2.664-2.183 1.277-2.793-1.495-16.05-22.615-16.05-25.571 0-1.571.416-2.317 1.068-1.914.588.363.835 1.268.55 2.011-.31.809.704 1.96 2.532 2.872 2.619 1.307 2.878 1.313 1.828.048-.673-.81-1.78-1.473-2.462-1.473-.788 0-1.062-.926-.753-2.542.461-2.408.584-2.453 2.341-.864 1.709 1.547 1.904 1.55 2.482.042.905-2.358 5.061-2.092 5.704.364.287 1.1.115 2-.384 2-.498 0-.853.338-.788.75.066.412.066 2.507 0 4.655L106 140.31l-2.25-1.898c-1.916-1.616-1.88-1.48.242.917l2.492 2.815.782-3.762c.43-2.07 1.061-4.015 1.402-4.323.34-.307.341.904.001 2.691-.589 3.091.497 4.408 1.841 2.234.346-.559 1.002-.786 1.458-.504s1.144-2.612 1.527-6.432c.904-9.001 2.708-10.414 12.952-10.143 6.624.175 13.764-1.581 14.802-3.64.212-.421-.625-1.813-1.859-3.093-1.992-2.067-2.187-2.111-1.736-.387m-98.904.921c1.237.238 3.263.238 4.5 0 1.237-.239.225-.434-2.25-.434s-3.487.195-2.25.434M58 118c-.825.533-1.05.969-.5.969s1.675-.436 2.5-.969 1.05-.969.5-.969-1.675.436-2.5.969m-20.25 1.656c1.237.266 2.25 1.1 2.25 1.855s.444 1.645.987 1.981c.628.388.679-.226.141-1.691-.528-1.437-1.743-2.362-3.237-2.465-2.255-.154-2.263-.136-.141.32m13.5.033c.962.252 2.538.252 3.5 0 .962-.251.175-.457-1.75-.457s-2.712.206-1.75.457m20.445 1.095c-1.493 1.65-1.47 1.876.308 2.986 1.642 1.025 1.83.958 1.286-.458-.507-1.322-.246-1.502 1.287-.883 5.888 2.374 7.413 2.677 9.007 1.784 1.322-.74.678-1.097-2.966-1.643-2.561-.384-4.421-1.078-4.135-1.541s-.45-.589-1.637-.278c-1.479.386-1.933.2-1.442-.593 1.077-1.743.118-1.391-1.708.626M60.5 124c-1.63.701-1.688.872-.309.93.93.038 1.969-.38 2.309-.93.711-1.15.676-1.15-2 0m34.007 1.989c-.35.566.051.734.941.393 1.732-.665 2.049-1.382.611-1.382-.518 0-1.216.445-1.552.989m16.56 2.011c-.167 1.375-.239 2.872-.16 3.327.08.455-.304 2.451-.852 4.435-.893 3.236-.838 3.45.532 2.079 1.105-1.104 1.425-3.028 1.156-6.934-.205-2.974-.51-4.282-.676-2.907m-18.949 7.05c-.065 1.402-.68 3.12-1.368 3.817-1.002 1.016-.865 1.552.691 2.7 1.068.788 1.575 1.433 1.128 1.433s-.29.631.35 1.403c.895 1.077.865 1.508-.127 1.859-.711.251.494.961 2.678 1.577 2.273.642 4.344.747 4.846.245s-.66-3.159-2.72-6.217c-1.978-2.937-3.649-4.896-3.714-4.354-.065.543-.462-.363-.882-2.013-.723-2.843-.77-2.866-.882-.45m-17.849 2.643c.973.254 2.323.237 3-.037s-.119-.481-1.769-.461-2.204.244-1.231.498m-4.784 2.69c-2.144 3.272-4.042 23.392-2.8 29.684.789 4 1.263 4.564 4.845 5.775 5.881 1.988 20.834 1.021 24.321-1.573 1.457-1.083 2.693-2.825 2.747-3.869.072-1.388-.011-1.453-.307-.243-.824 3.366-19.485 5.042-25.968 2.333l-3.613-1.509.59-12.241c.325-6.732 1.098-13.97 1.718-16.084 1.381-4.706.711-5.698-1.533-2.273M91.5 139c-.34.55-.141 1 .441 1S93 139.55 93 139s-.198-1-.441-1-.719.45-1.059 1m15.5 4.378c0 .207.787.995 1.75 1.75 1.586 1.243 1.621 1.208.378-.378-1.307-1.666-2.128-2.195-2.128-1.372m22.323 3.872c-2.922 3.246-3.419 4.417-1.874 4.417.797 0 1.123-.62.786-1.498-.316-.823-.154-1.237.361-.918.515.318 1.45-.508 2.076-1.836 1.41-2.988 1.214-3.011-1.349-.165m9.51-.467c-4.636 1.994-11.078 15.176-11.647 23.831-.511 7.782.842 10.653 4.604 9.764 4.218-.997 9.02-5.087 11.372-9.686 3.991-7.807 6.043-19.246 4.023-22.427-.974-1.534-6.113-2.446-8.352-1.482m-1.961 4.967c-1.243 1.586-1.208 1.621.378.378 1.666-1.307 2.195-2.128 1.372-2.128-.207 0-.995.787-1.75 1.75M77 154.941c0 .518.445 1.216.989 1.552.566.35.734-.051.393-.941-.665-1.732-1.382-2.049-1.382-.611m20.25.748c.963.252 2.537.252 3.5 0 .963-.251.175-.457-1.75-.457s-2.713.206-1.75.457m26.75.144c0 .459.655.834 1.456.834s1.224-.375.941-.834-.938-.833-1.456-.833-.941.375-.941.833M76 159c0 .55.477 1 1.059 1s.781-.45.441-1-.816-1-1.059-1-.441.45-.441 1m3.083 1.367c.23.202 2.217.669 4.417 1.037 2.866.48 3.575.381 2.5-.352-1.349-.919-7.92-1.569-6.917-.685M130 165.094c0 .498.9.906 2 .906s2-.173 2-.383-.9-.619-2-.907c-1.1-.287-2-.115-2 .384M129 172c0 1.65.372 3 .827 3s.628-1.35.386-3-.614-3-.826-3c-.213 0-.387 1.35-.387 3m-11 1.313c0 .172 1.463 1.635 3.25 3.25l3.25 2.937-2.937-3.25c-2.738-3.029-3.563-3.71-3.563-2.937"/></svg>