<svg xmlns="http://www.w3.org/2000/svg" width="32" height="32" version="1.1" fill="#000000"><path fill-opacity=".082" d="M 12.490 6.016 C 12.144 6.575, 11.443 6.774, 10.931 6.457 C 10.419 6.141, 10 6.326, 10 6.870 C 10 8.119, 12.840 11, 14.071 11 C 14.582 11, 15 12.125, 15 13.500 C 15 16.491, 13.393 16.813, 12.500 14 C 12.151 12.900, 11.446 12, 10.933 12 C 10.420 12, 10 11.100, 10 10 C 10 7.584, 9.367 7.490, 7.266 9.591 C 5.915 10.942, 5.888 11.316, 7.088 12.075 C 7.865 12.567, 8.864 12.976, 9.309 12.985 C 9.754 12.993, 9.816 13.489, 9.446 14.087 C 8.962 14.870, 8.470 14.870, 7.687 14.087 C 6.099 12.499, 5.445 12.746, 5.275 15 C 5.115 17.125, 8.334 17.887, 9.500 16 C 10.408 14.532, 12 14.782, 12 16.393 C 12 18.213, 9.783 19.015, 6.846 18.258 C 4.842 17.741, 4.681 17.874, 5.741 19.169 C 6.424 20.002, 6.687 20.980, 6.325 21.342 C 5.323 22.344, 6.893 22.127, 9.066 20.965 C 10.399 20.251, 11 20.251, 11 20.965 C 11 21.534, 10.325 22, 9.500 22 C 7.614 22, 7.600 22.743, 9.452 24.595 C 10.722 25.865, 11.036 25.802, 11.949 24.096 C 12.523 23.023, 12.735 21.472, 12.419 20.649 C 11.939 19.400, 14.503 17, 16.316 17 C 17.233 17, 14.167 24.444, 13.105 24.798 C 11.066 25.478, 11.975 26.750, 14.500 26.750 C 16.351 26.750, 17.026 26.198, 17.100 24.625 C 17.189 22.718, 17.281 22.756, 18 25 C 18.440 26.375, 18.845 26.952, 18.900 26.281 C 18.955 25.611, 19.675 25.322, 20.500 25.638 C 22.895 26.557, 22.235 24.330, 19.466 22.152 C 18.073 21.056, 17.357 19.897, 17.876 19.576 C 19.489 18.580, 22 20.121, 22 22.107 C 22 24.373, 22.654 24.489, 24.580 22.563 C 25.830 21.313, 25.746 20.935, 23.935 19.667 C 22.623 18.748, 22.253 17.962, 22.934 17.541 C 23.528 17.174, 24.284 17.577, 24.614 18.437 C 25.533 20.830, 26.750 20.296, 26.750 17.500 C 26.750 14.669, 24.579 14.169, 22.079 16.424 C 20.718 17.651, 20.234 17.652, 18.573 16.434 C 15.975 14.528, 16.968 13.835, 22.414 13.753 C 25.814 13.701, 26.731 13.381, 26 12.500 C 25.459 11.849, 25.313 11.020, 25.675 10.658 C 26.677 9.656, 25.107 9.873, 22.934 11.035 C 21.601 11.749, 21 11.749, 21 11.035 C 21 10.466, 21.675 10, 22.500 10 C 24.362 10, 24.402 9.259, 22.636 7.493 C 21.005 5.862, 19 7.355, 19 10.200 C 19 11.190, 18.550 12, 18 12 C 17.450 12, 17 11.127, 17 10.059 C 17 8.991, 17.450 7.840, 18 7.500 C 19.624 6.496, 19.148 5.437, 17 5.275 C 15.636 5.172, 15 5.741, 15 7.062 C 15 8.128, 14.592 9, 14.094 9 C 13.595 9, 13.423 8.100, 13.710 7 C 14.263 4.885, 13.547 4.307, 12.490 6.016" stroke="none" fill="#000000" fill-rule="evenodd"/><path fill-opacity=".022" d="M 12.490 6.016 C 12.144 6.575, 11.443 6.774, 10.931 6.457 C 8.729 5.097, 10.237 8.109, 12.500 9.592 C 14.726 11.051, 16.163 16, 14.360 16 C 13.446 16, 11.097 12.896, 9.973 10.204 C 9.173 8.287, 8.777 8.122, 7.577 9.204 C 6.339 10.320, 6.426 10.723, 8.206 12.107 C 9.499 13.112, 9.873 13.961, 9.205 14.373 C 8.618 14.736, 7.856 14.575, 7.510 14.016 C 6.497 12.378, 5.437 12.844, 5.275 15 C 5.105 17.253, 7.850 17.750, 9.783 15.817 C 11.297 14.303, 12.441 15.408, 11.608 17.579 C 11.123 18.844, 10.224 19.095, 7.863 18.623 C 5.338 18.118, 4.964 18.252, 5.869 19.343 C 6.482 20.080, 6.687 20.980, 6.325 21.342 C 5.963 21.704, 6.102 22, 6.633 22 C 7.165 22, 8.132 21.468, 8.783 20.817 C 9.434 20.166, 10.279 19.945, 10.660 20.327 C 11.042 20.709, 10.627 21.579, 9.738 22.260 C 8.330 23.340, 8.308 23.668, 9.573 24.801 C 11.186 26.246, 11.639 25.608, 12.201 21.102 C 12.519 18.555, 15.410 16.077, 16.635 17.302 C 17.038 17.704, 16.834 18.566, 16.183 19.217 C 15.532 19.867, 15 21.062, 15 21.871 C 15 22.680, 14.343 24.069, 13.539 24.957 C 12.241 26.391, 12.297 26.571, 14.039 26.571 C 15.435 26.571, 16 25.889, 16 24.202 C 16 22.746, 16.482 21.998, 17.250 22.260 C 17.938 22.494, 18.347 23.729, 18.160 25.005 C 17.833 27.233, 17.889 27.253, 19.610 25.533 C 21.330 23.812, 21.321 23.679, 19.373 22.101 C 18.259 21.199, 17.523 19.932, 17.738 19.286 C 18.358 17.427, 21.057 19.019, 22.147 21.886 C 23.076 24.329, 23.210 24.376, 24.198 22.611 C 25.021 21.140, 24.890 20.518, 23.606 19.800 C 22.700 19.292, 22.232 18.433, 22.568 17.890 C 22.962 17.252, 23.636 17.283, 24.472 17.977 C 25.425 18.768, 25.921 18.649, 26.352 17.526 C 27.032 15.753, 23.064 15.336, 21.396 17.004 C 20.725 17.675, 19.749 17.537, 18.448 16.586 C 15.806 14.653, 16.968 13.835, 22.474 13.752 C 25.020 13.713, 26.572 13.354, 25.923 12.953 C 25.275 12.552, 25.081 11.678, 25.493 11.012 C 26.076 10.069, 25.753 10.062, 24.035 10.981 C 21.141 12.530, 20.108 11.418, 22.573 9.408 C 24.153 8.120, 24.194 7.932, 22.801 8.367 C 21.551 8.758, 21.242 8.449, 21.633 7.199 C 22.063 5.823, 21.862 5.870, 20.577 7.448 C 19.704 8.519, 19.248 10.206, 19.563 11.198 C 19.948 12.411, 19.622 13, 18.567 13 C 16.807 13, 16.345 8.523, 18 7.500 C 19.624 6.496, 19.148 5.437, 17 5.275 C 15.636 5.172, 15 5.741, 15 7.062 C 15 8.128, 14.520 9, 13.933 9 C 13.320 9, 13.136 8.147, 13.500 7 C 14.169 4.892, 13.555 4.294, 12.490 6.016" stroke="none" fill="#000000" fill-rule="evenodd"/><path fill-opacity=".065" d="M 17.531 5.950 C 17.163 6.545, 16.443 6.774, 15.931 6.457 C 15.419 6.141, 15 6.835, 15 8 C 15 9.247, 14.561 9.847, 13.932 9.458 C 13.344 9.095, 13.096 8.191, 13.381 7.450 C 13.714 6.582, 13.381 6.300, 12.449 6.658 C 10.428 7.434, 10.643 8.738, 13 10 C 14.109 10.594, 15 12.094, 15 13.369 C 15 17.007, 13.825 17.242, 11.852 13.996 C 10.849 12.348, 9.235 11.014, 8.265 11.030 C 6.582 11.059, 6.583 11.109, 8.271 12.092 C 9.245 12.659, 9.768 13.567, 9.432 14.110 C 9.051 14.726, 8.230 14.609, 7.248 13.799 C 5.931 12.712, 5.760 12.745, 6.197 14 C 6.514 14.911, 7.780 15.423, 9.422 15.303 C 11.487 15.153, 12.046 15.507, 11.786 16.803 C 11.568 17.888, 10.506 18.489, 8.838 18.470 C 7.092 18.449, 6.397 18.872, 6.734 19.749 C 7.033 20.528, 8.014 20.813, 9.152 20.452 C 10.789 19.932, 10.995 20.242, 10.570 22.585 C 10.282 24.175, 10.442 24.943, 10.952 24.413 C 11.435 23.911, 11.981 22.421, 12.165 21.102 C 12.506 18.662, 15.398 16.065, 16.522 17.189 C 16.862 17.529, 16.248 19.652, 15.159 21.908 C 14.069 24.163, 13.549 25.779, 14.003 25.498 C 14.458 25.217, 15.057 25.553, 15.336 26.244 C 15.614 26.935, 15.878 26.225, 15.921 24.667 C 15.971 22.856, 16.451 21.991, 17.250 22.270 C 17.938 22.511, 18.401 23.561, 18.279 24.604 C 18.158 25.647, 18.309 25.935, 18.615 25.244 C 18.920 24.553, 19.582 24.242, 20.085 24.553 C 22.063 25.775, 20.866 23.155, 18.829 21.803 C 17.542 20.948, 16.960 19.874, 17.398 19.165 C 18.502 17.379, 23.964 20.827, 23.331 22.911 C 23.016 23.950, 23.266 23.846, 24.052 22.611 C 25.037 21.064, 24.957 20.555, 23.606 19.800 C 22.700 19.292, 22.232 18.433, 22.568 17.890 C 22.949 17.273, 23.780 17.390, 24.781 18.201 C 25.762 18.996, 26.113 19.048, 25.686 18.335 C 25.302 17.695, 25.553 16.905, 26.244 16.581 C 27.832 15.835, 23.021 16.534, 21 17.343 C 19.447 17.965, 15.224 15.442, 16.194 14.473 C 16.496 14.171, 18.765 13.829, 21.236 13.712 C 24.297 13.568, 25.584 13.110, 25.269 12.279 C 24.755 10.917, 20.861 11.001, 19.851 12.396 C 18.778 13.877, 16 12.207, 16 10.081 C 16 8.991, 16.784 7.661, 17.742 7.125 C 18.700 6.589, 19.195 5.861, 18.842 5.508 C 18.489 5.156, 17.899 5.354, 17.531 5.950 M 20 8.500 C 18.990 9.717, 19.030 10, 20.211 10 C 21.012 10, 21.667 9.325, 21.667 8.500 C 21.667 7.675, 21.572 7, 21.456 7 C 21.340 7, 20.685 7.675, 20 8.500" stroke="none" fill="#000000" fill-rule="evenodd"/><path fill-opacity=".136" d="M 11.500 9 C 11.840 9.550, 12.316 10, 12.559 10 C 12.802 10, 13 9.550, 13 9 C 13 8.450, 12.523 8, 11.941 8 C 11.359 8, 11.160 8.450, 11.500 9 M 22.500 12 C 22.160 12.550, 22.359 13, 22.941 13 C 23.523 13, 24 12.550, 24 12 C 24 11.450, 23.802 11, 23.559 11 C 23.316 11, 22.840 11.450, 22.500 12 M 23 16.378 C 23 16.585, 23.685 17.324, 24.523 18.019 C 25.796 19.076, 25.943 19.014, 25.416 17.641 C 24.878 16.240, 23 15.257, 23 16.378 M 10.543 18.931 C 10.226 19.443, 10.425 20.144, 10.984 20.490 C 11.543 20.835, 12 20.416, 12 19.559 C 12 17.802, 11.400 17.544, 10.543 18.931 M 19 22.941 C 19 23.459, 19.445 24.157, 19.989 24.493 C 20.555 24.843, 20.723 24.442, 20.382 23.552 C 19.717 21.820, 19 21.503, 19 22.941" stroke="none" fill="#000000" fill-rule="evenodd"/></svg>