<svg xmlns="http://www.w3.org/2000/svg" width="64" height="64" version="1.1" fill="#000000"><path fill-opacity=".325" d="M 22.332 2.790 C -3.720 12.102, -6.100 46.932, 18.437 59.814 C 22.764 62.086, 24.735 62.472, 32 62.472 C 39.265 62.472, 41.236 62.086, 45.563 59.814 C 51.622 56.633, 57.444 50.452, 60.342 44.122 C 63.281 37.705, 63.281 26.295, 60.342 19.878 C 53.663 5.292, 36.685 -2.340, 22.332 2.790 M 12.898 23.284 C 4.144 29.167, 8.004 43.006, 18.396 42.996 C 23.326 42.992, 26.905 40.945, 33.408 34.410 C 42.052 25.723, 45.362 24.362, 49 28 C 51.621 30.621, 51.541 34.418, 48.811 36.961 C 45.966 39.612, 44.247 39.532, 39.848 36.543 C 36.329 34.151, 36.187 34.136, 34.540 35.955 C 32.929 37.736, 33.031 37.949, 36.656 40.412 C 43.679 45.184, 51.691 43.378, 54.623 36.361 C 56.359 32.205, 55.570 28.390, 52.231 24.799 C 46.637 18.783, 39.492 20.755, 28.917 31.235 C 21.352 38.732, 18.957 39.857, 15.451 37.560 C 11.915 35.243, 11.782 30.634, 15.167 27.750 C 17.900 25.422, 19.032 25.533, 23.506 28.569 C 26.912 30.880, 27.445 30.983, 28.829 29.600 C 30.212 28.216, 30.173 27.848, 28.436 25.929 C 23.710 20.707, 18.142 19.759, 12.898 23.284" stroke="none" fill="#000000" fill-rule="evenodd"/><path fill-opacity=".163" d="M 22.730 4.366 C 8.193 10.480, 2.044 18.694, 2.044 32 C 2.044 44.636, 7.606 53.712, 18.696 59.171 C 24.162 61.862, 26.432 62.412, 32.077 62.412 C 45.100 62.412, 57.712 53.159, 61.127 41.099 C 67.955 16.986, 44.982 -4.992, 22.730 4.366 M 12.367 22.772 C 8.006 26.304, 6.450 33.236, 8.964 37.932 C 10.506 40.814, 15.844 43.992, 19.150 43.996 C 20.607 43.998, 24.129 42.432, 26.977 40.515 L 32.155 37.031 35.842 39.993 C 40.732 43.923, 44.799 44.664, 49.428 42.467 C 60.408 37.257, 56.440 21, 44.189 21 C 41.474 21, 34.323 24.961, 32.843 27.285 C 32.454 27.896, 30.449 26.828, 27.913 24.658 C 24.330 21.591, 22.902 21.004, 19.070 21.022 C 16.258 21.036, 13.679 21.709, 12.367 22.772 M 14.655 28.829 C 11.250 32.591, 13.651 38, 18.727 38 C 20.148 38, 22.838 36.835, 24.705 35.412 C 28.480 32.532, 28.116 31.146, 22.872 28.434 C 19.148 26.508, 16.646 26.628, 14.655 28.829 M 39.077 29.589 C 37.385 31.013, 36.003 32.475, 36.007 32.839 C 36.011 33.203, 37.550 34.546, 39.427 35.824 C 43.806 38.806, 47.917 38.430, 49.909 34.865 C 51.227 32.505, 51.202 31.958, 49.667 29.615 C 47.405 26.163, 43.161 26.152, 39.077 29.589" stroke="none" fill="#000000" fill-rule="evenodd"/><path fill-opacity=".438" d="M 36.174 8.314 C 34.887 9.684, 34 11.921, 34 13.794 C 34 17.703, 31.112 25.187, 29.894 24.434 C 28.621 23.647, 28.785 25.385, 30.110 26.710 C 30.923 27.523, 32.414 26.907, 35.686 24.410 C 39.248 21.691, 41.070 21, 44.677 21 C 48.488 21, 49.736 21.536, 52.600 24.400 C 55.225 27.025, 56 28.632, 56 31.450 C 56 36.271, 53.652 40.611, 50.033 42.483 C 44.744 45.218, 40.190 44.262, 34.863 39.299 L 32.225 36.841 27.536 40.421 C 21.329 45.158, 16.560 45.308, 11.566 40.924 C 5.889 35.939, 5.629 30.038, 10.809 23.745 C 12.277 21.960, 12.651 21.155, 11.640 21.955 C 10.628 22.755, 8.572 23.317, 7.071 23.202 C 3.062 22.897, 1.590 26.303, 2.239 34.384 C 3.488 49.953, 14.660 60.932, 30.166 61.830 C 39.967 62.398, 46.107 60.054, 53.064 53.090 C 62.770 43.374, 64.849 30.889, 58.750 18.947 C 53.085 7.854, 41.661 2.474, 36.174 8.314 M 15 29 C 13.900 30.100, 13 31.575, 13 32.277 C 13 34.734, 16.128 38, 18.480 38 C 20.723 38, 27 33.649, 27 32.095 C 27 31.207, 19.663 27, 18.114 27 C 17.501 27, 16.100 27.900, 15 29 M 38.940 29.704 L 35.726 32.408 39.075 35.204 C 44.568 39.789, 50.250 38.414, 50.250 32.500 C 50.250 26.619, 44.342 25.158, 38.940 29.704" stroke="none" fill="#000000" fill-rule="evenodd"/><path fill-opacity=".111" d="M 42.663 17.112 L 39.971 21.224 42.477 20.595 C 48.843 18.997, 56 25.422, 56 32.735 C 56 36.480, 55.451 37.749, 52.600 40.600 C 49.736 43.464, 48.488 44, 44.677 44 C 41.066 44, 39.248 43.309, 35.665 40.574 C 31.181 37.151, 31.174 37.150, 29.340 39.176 C 23.371 45.773, 12.501 45.473, 8.774 38.608 C 8.145 37.449, 7.315 34.925, 6.930 33 C 6.296 29.830, 6.219 29.764, 6.115 32.300 C 5.968 35.882, 8.232 40.251, 11.615 42.912 C 13.075 44.060, 13.903 45, 13.454 45 C 12.242 45, 23.014 52.870, 25.157 53.550 C 26.171 53.872, 27 54.510, 27 54.970 C 27 56.289, 32.901 58, 37.453 58 C 42.147 58, 49.980 54.467, 54.376 50.368 C 60.659 44.508, 63.263 31.295, 59.769 23 C 57.539 17.703, 52.233 13, 48.488 13 C 45.922 13, 44.868 13.744, 42.663 17.112 M 39.732 29.536 C 37.679 30.931, 36 32.265, 36 32.500 C 36 33.449, 43.580 38, 45.161 38 C 49.614 38, 51.918 30.097, 48.066 28.035 C 45.193 26.498, 43.847 26.740, 39.732 29.536 M 25.395 31.830 C 25.812 32.506, 24.756 33.788, 22.799 34.981 C 18.820 37.407, 17.624 37.481, 15.571 35.429 C 14.707 34.564, 14 34.323, 14 34.893 C 14 37.028, 18.026 38.232, 21.018 36.992 C 24.929 35.372, 27.517 32.438, 25.911 31.445 C 25.138 30.967, 24.949 31.108, 25.395 31.830 M 30.507 39.989 C 30.157 40.555, 30.558 40.723, 31.448 40.382 C 33.180 39.717, 33.497 39, 32.059 39 C 31.541 39, 30.843 39.445, 30.507 39.989" stroke="none" fill="#000000" fill-rule="evenodd"/></svg>