<svg xmlns="http://www.w3.org/2000/svg" width="24" height="24" fill="#000000"><path fill="#696969" fill-rule="evenodd" d="m1.839 13.857.92 3.625c3.212-2.436 7.5-2.755 9.193-2.755 1.707 0 6.029.319 9.268 2.755l.926-3.625c-.276-.387.147-2.852 1.854-7.734-.176.174-.401.562-.664 1.012-.54.926-1.235 2.12-1.97 2.275 0 .039.032 1.24.098 1.885-1.09.065-3.171-.947-3.171-5.897-.65 2.981-2.83 6.274-6.341-4.398-3.484 10.672-5.645 7.379-6.29 4.398 0 4.95-2.065 5.962-3.146 5.897.065-.644.097-1.846.097-1.885-.73-.156-1.419-1.349-1.954-2.275-.26-.45-.485-.838-.659-1.012 1.694 4.882 2.113 7.347 1.839 7.734Zm11.751-5.05a1.639 1.639 0 1 1-3.277 0 1.639 1.639 0 0 1 3.277 0Zm-1.684 3.181c1.534 0 2.778-1.295 2.778-2.892 0-.556-.15-1.076-.413-1.517a3.766 3.766 0 0 1 1.247 2.819c0 2.05-1.597 3.71-3.566 3.71-1.97 0-3.566-1.66-3.566-3.71 0-1.029.402-1.96 1.052-2.632-.2.398-.311.85-.311 1.33 0 1.597 1.244 2.892 2.778 2.892Zm.142 7.373c-2.552 0-4.415-.409-5.433-.75-.428-.142-.91-.165-1.312.038-4.482 2.258 2.45 3.7 6.745 3.7s11.273-1.442 6.795-3.7c-.403-.203-.885-.18-1.313-.039-1.03.34-2.925.751-5.482.751Zm.007-2.072c-6.557 0-8.572 1.726-8.798 2.698-.01.045-.077.056-.1.016-1.655-2.886 4.815-4.449 8.898-4.449m0 1.735c6.558 0 8.573 1.726 8.799 2.698.01.045.077.056.1.016 1.655-2.886-4.814-4.449-8.898-4.449" clip-rule="evenodd"/></svg>