<svg xmlns="http://www.w3.org/2000/svg" width="246" height="250" version="1.1" fill="#000000"><path fill-opacity=".271" d="M 45.276 5.511 C 30.701 8.678, 15.145 21.056, 8.860 34.485 C 3.123 46.746, 3.035 48.091, 3.035 123.500 C 3.035 199.996, 3.079 200.615, 9.439 213.542 C 16.099 227.078, 30.717 238.349, 45.743 241.533 C 55.689 243.641, 189.311 243.641, 199.257 241.533 C 218.289 237.500, 234.730 221.790, 240.106 202.500 C 242.162 195.126, 242.162 51.874, 240.106 44.500 C 234.750 25.282, 218.218 9.485, 199.257 5.467 C 189.644 3.430, 54.676 3.469, 45.276 5.511" stroke="none" fill="#000000" fill-rule="evenodd"/><path fill-opacity=".285" d="M 41 7.276 C 23.167 13.378, 10.062 27.147, 5.531 44.542 C 3.240 53.339, 3.240 193.661, 5.531 202.458 C 10.176 220.290, 24.733 235.059, 42.932 240.405 C 47.689 241.802, 57.573 242, 122.576 242 C 193.508 242, 197.070 241.913, 203.145 240.036 C 220.325 234.728, 232.770 222.489, 238.713 205.058 C 240.947 198.503, 240.948 198.467, 240.974 123.855 C 240.999 52.455, 240.915 48.934, 239.036 42.855 C 233.728 25.675, 221.489 13.230, 204.058 7.287 L 197.500 5.052 122.500 5.052 C 47.595 5.052, 47.492 5.054, 41 7.276" stroke="none" fill="#000000" fill-rule="evenodd"/><path fill-opacity=".692" d="M 44.124 6.578 C 25.261 11.651, 9.954 27.371, 5.506 46.240 C 3.316 55.528, 3.316 191.472, 5.506 200.760 C 10.006 219.847, 25.373 235.476, 44.552 240.472 C 53.338 242.760, 191.634 242.757, 200.540 240.468 C 209.289 238.220, 216.631 234.209, 223.365 228 C 230.425 221.490, 234.842 214.901, 238.112 206 L 240.500 199.500 240.500 123.500 L 240.500 47.500 238.112 41 C 231.759 23.706, 217.950 11.087, 200.369 6.508 C 191.945 4.314, 52.309 4.376, 44.124 6.578 M 62 56.672 C 62 57.041, 70.213 71.525, 80.250 88.858 C 90.287 106.191, 98.650 120.739, 98.833 121.186 C 99.017 121.634, 91.254 122, 81.583 122 C 66.620 122, 64 122.224, 64 123.500 C 64 124.775, 66.556 125, 81 125 C 93.279 125, 98 125.324, 98 126.166 C 98 126.807, 90.146 140.889, 80.548 157.460 C 70.949 174.031, 62.795 188.371, 62.428 189.327 C 61.814 190.927, 62.699 191.043, 73.549 190.783 C 81.882 190.583, 85.458 190.134, 85.752 189.250 C 86.063 188.311, 83.905 188, 77.083 188 C 71.313 188, 68 187.611, 68 186.933 C 68 184.988, 101.357 127.952, 102.309 128.270 C 102.822 128.441, 107.412 135.763, 112.508 144.540 C 117.604 153.318, 122.108 160.500, 122.517 160.500 C 122.925 160.500, 127.447 153.310, 132.565 144.522 C 137.683 135.733, 142.266 128.411, 142.749 128.250 C 143.232 128.089, 151.371 141.355, 160.835 157.729 L 178.042 187.500 168.771 188 C 155.484 188.717, 157.478 190.441, 171.986 190.781 L 183.980 191.061 177.136 179.281 C 155.571 142.156, 147 127.022, 147 126.070 C 147 125.352, 152.595 125, 164 125 C 178.326 125, 181 124.768, 181 123.523 C 181 122.287, 178.143 122.002, 163.491 121.773 L 145.981 121.500 155.800 104.500 C 161.200 95.150, 169.730 80.412, 174.757 71.750 L 183.896 56 122.948 56 C 89.427 56, 62 56.302, 62 56.672 M 68 60.054 C 68 61.511, 101.311 119, 102.156 119 C 102.531 119, 106.762 112.137, 111.559 103.750 C 116.355 95.362, 120.827 87.704, 121.497 86.732 C 122.559 85.188, 123.953 87.128, 132.460 101.982 C 137.821 111.342, 142.506 119, 142.871 119 C 143.746 119, 177 61.672, 177 60.164 C 177 59.293, 163.273 59, 122.500 59 C 84.978 59, 68 59.328, 68 60.054 M 121.689 92.750 C 121.452 93.162, 117.826 99.478, 113.630 106.784 C 109.433 114.090, 106 120.502, 106 121.034 C 106 121.616, 112.549 122, 122.500 122 C 133.546 122, 139 121.647, 139 120.931 C 139 119.813, 123.122 92, 122.484 92 C 122.283 92, 121.925 92.338, 121.689 92.750 M 106.177 126.301 C 106.862 129.059, 121.553 153.942, 122.500 153.949 C 123.455 153.956, 138.150 129.088, 138.823 126.326 C 139.082 125.265, 135.822 125, 122.500 125 C 109.335 125, 105.921 125.272, 106.177 126.301" stroke="none" fill="#000000" fill-rule="evenodd"/><path fill-opacity=".951" d="M 48.938 6.041 C 37.516 7.766, 25.265 14.414, 17.951 22.855 C 15.738 25.410, 12.031 31.291, 9.714 35.924 L 5.500 44.349 5.500 122.924 C 5.500 211.292, 4.948 204.537, 13.243 217.736 C 19.578 227.817, 28.370 234.596, 41.038 239.168 L 47.500 241.500 122.500 241.500 L 197.500 241.500 204.602 238.902 C 221.968 232.548, 235.142 218.380, 238.915 202 C 240.333 195.843, 240.333 51.157, 238.915 45 C 235.142 28.620, 221.968 14.452, 204.602 8.098 L 197.500 5.500 126 5.350 C 86.675 5.268, 51.997 5.579, 48.938 6.041 M 61.264 56.750 C 61.538 57.712, 69.889 72.450, 79.822 89.500 L 97.883 120.500 80.942 120.774 L 64 121.047 64 123.500 L 64 125.953 80.887 126.226 L 97.774 126.500 79.387 158.306 C 69.274 175.799, 61 190.537, 61 191.056 C 61 191.598, 66.352 192, 73.570 192 C 86.033 192, 86.136 191.981, 85.820 189.750 C 85.523 187.662, 84.880 187.464, 76.903 187 L 68.307 186.500 84.879 157.750 C 93.994 141.938, 101.765 129, 102.148 129 C 102.531 129, 107.003 136.219, 112.086 145.042 C 117.169 153.866, 121.688 161.307, 122.128 161.579 C 123.064 162.157, 125.074 159.040, 134.920 141.750 C 138.913 134.738, 142.503 129, 142.897 129 C 143.291 129, 148.052 136.723, 153.476 146.162 C 158.901 155.601, 166.372 168.539, 170.078 174.912 L 176.817 186.500 168.158 187 C 160.118 187.464, 159.477 187.660, 159.180 189.750 C 158.864 191.981, 158.967 192, 171.430 192 C 180.848 192, 183.987 191.687, 183.946 190.750 C 183.917 190.063, 175.654 175.325, 165.586 158 L 147.279 126.500 164.389 126 C 180.667 125.524, 181.500 125.403, 181.500 123.500 C 181.500 121.597, 180.667 121.476, 164.361 121 L 147.221 120.500 165.235 89.500 C 175.142 72.450, 183.470 57.712, 183.741 56.750 C 184.206 55.097, 180.814 55, 122.500 55 C 64.184 55, 60.794 55.097, 61.264 56.750 M 70.431 64.250 C 71.830 66.588, 79.393 79.629, 87.237 93.230 C 95.082 106.832, 101.779 117.969, 102.120 117.980 C 102.461 117.991, 106.961 110.585, 112.120 101.521 C 117.279 92.458, 121.950 85.040, 122.500 85.038 C 123.050 85.035, 127.756 92.451, 132.957 101.517 C 138.159 110.583, 142.659 117.997, 142.957 117.993 C 143.256 117.989, 149.800 107.090, 157.500 93.774 C 165.200 80.457, 172.747 67.410, 174.270 64.781 L 177.040 60 122.464 60 L 67.887 60 70.431 64.250 M 114.175 107 L 106.101 121 122.666 121 L 139.230 121 137.767 118.750 C 136.963 117.513, 133.274 111.213, 129.569 104.750 C 125.864 98.287, 122.702 93, 122.541 93 C 122.380 93, 118.616 99.300, 114.175 107 M 107.374 127.533 C 108.953 131.648, 122.210 152.988, 122.916 152.552 C 123.827 151.989, 138 127.645, 138 126.644 C 138 126.290, 130.977 126, 122.393 126 C 108.782 126, 106.861 126.196, 107.374 127.533" stroke="none" fill="#000000" fill-rule="evenodd"/></svg>