<svg xmlns="http://www.w3.org/2000/svg" width="200" height="200" fill="#000000"><path fill-opacity=".4" fill-rule="evenodd" d="M85.66 3.988C62.722 8.121 41.007 20.954 26.888 38.722c-31.268 39.347-28.466 94.644 6.58 129.847 12.803 12.86 27.357 21.273 45.032 26.029 10.894 2.932 37.174 2.721 47.895-.385 16.607-4.81 29.297-12.128 41.97-24.204 38.768-36.941 39.734-99.175 2.135-137.594-13.202-13.49-27.81-22.116-45.5-26.869-7.445-2-31.582-2.956-39.34-1.558M83 8.522C49.193 15.459 21.507 41.499 11.787 75.5 9.819 82.385 9.501 85.799 9.505 100c.004 14.322.316 17.59 2.362 24.76 1.297 4.544 2.757 8.508 3.245 8.809 1.351.835 1.055-1.455-1.062-8.207-6.905-22.023-3.634-50.288 8.249-71.285 4.925-8.701 17.467-22.382 26.296-28.682 30.335-21.647 71.829-22.36 103.001-1.771 2.803 1.851 8.161 6.072 11.908 9.38 8.458 7.466 10.227 6.829 1.996-.72-14.05-12.886-30.327-21.114-47.934-24.233-8.014-1.42-26.587-1.167-34.566.471M98.2 28.2c-1.719 1.719-1.48 5.324.461 6.928 1.52 1.256 1.542 1.182.257-.881-1.749-2.808-.192-5.786 2.963-5.668 1.165.044 2.119-.293 2.119-.75 0-1.269-4.444-.985-5.8.371M79.141 52.535c-4.218 3.549-5.905 11.253-4.326 19.747 1.23 6.611 3.244 10.103 7.218 12.515 2.364 1.435 2.357 1.397-.189-.9-4.209-3.799-4.684-5.654-3.977-15.554.793-11.098 2.438-13.715 8.274-13.158 3.258.311 3.572.148 2.735-1.417-.521-.972-1.493-1.8-2.161-1.838s-.315-.457.785-.93c1.614-.694 1.291-.873-1.673-.93-2.545-.048-4.599.709-6.686 2.465m33.955-1.27c-3.669 1.885-5.97 5.674-7.127 11.735-1.73 9.062.695 19.89 4.81 21.469.933.358.711-.557-.68-2.808-1.874-3.032-1.987-4.16-1.239-12.271.453-4.912 1.358-9.929 2.011-11.149 1.295-2.419 5.016-3.765 8.145-2.947 2.222.581 2.674-1.204.784-3.094-1.482-1.482-.383-1.545 2.516-.145 2.11 1.019 2.118 1.002.243-.5-2.326-1.863-6.172-1.981-9.463-.29m64.588 7.384c-.327.327.459 2.677 1.747 5.223 5.024 9.931 6.792 17.848 7.286 32.628.533 15.937-.657 23.521-5.64 35.968-13.099 32.712-44.276 53.784-79.577 53.784-36.154 0-66.593-20.959-80.682-55.554-1.978-4.856-2.745-6.059-2.358-3.698.812 4.953 6.822 17.24 11.943 24.416 6.173 8.651 18.197 19.716 27.069 24.909 4.174 2.444 11.963 5.915 17.309 7.713 8.661 2.915 11.243 3.32 23.719 3.724 17.111.555 27.227-1.481 41-8.25 16.33-8.025 28.427-19.106 37.421-34.276 13.735-23.166 15.946-52.445 5.925-78.467-2.936-7.624-3.993-9.288-5.162-8.12M55.75 77.08c-7.575 4.412-5.752 27.726 2.503 32.022l2.247 1.169-2.125-2.385C54.772 103.841 54 101.393 54 94.016c0-10.113 2.19-13.813 7.75-13.091.688.09 1.25-.217 1.25-.681s-.562-1.44-1.25-2.169c-1.025-1.087-.76-1.239 1.47-.845 1.496.265 2.482.096 2.191-.374-.729-1.18-7.522-1.022-9.661.224m80.329 1.507c-2.206 1.856-3.674 4.56-5.197 9.574-2.813 9.262-2.265 15.954 1.611 19.678l2.769 2.661-2.257-3.166c-1.942-2.724-2.163-3.917-1.583-8.556 1.289-10.315 7.56-19.873 11.937-18.194 1.874.719 2.25-1.089.457-2.197-.813-.503-.579-.969.75-1.489 1.444-.566 1.004-.775-1.739-.828-2.564-.049-4.603.712-6.748 2.517M91.492 98.75c-12.184 13.256-27.528 32.953-28.12 36.096-.798 4.232.973 10.257 3.744 12.741l2.134 1.913-2.121-3.5c-2.543-4.196-2.828-11.557-.572-14.777 2.385-3.406 3.34-2.653 2.222 1.751-1.134 4.466-.621 7.581 1.733 10.526 1.57 1.964 1.58 1.961.543-.184-1.401-2.9-1.343-9.904.104-12.632 2.998-5.651 23.996-30.506 26.729-31.638 3.247-1.344 6.568-.708 9.508 1.822 1.803 1.553 1.839 1.525.742-.567-.635-1.209-2.162-2.945-3.396-3.858-2.24-1.657-2.239-1.658.758-1.021 2.202.469 2.601.369 1.5-.376-.825-.559-3.67-1.022-6.321-1.031-4.481-.014-5.13.321-9.187 4.735M29.75 96.08c-1.862 1.085-2.441 6.375-.809 7.384.518.32.856-.603.75-2.05-.254-3.498 2.518-5.389 5.328-3.634 1.88 1.174 1.935 1.119.763-.757-1.382-2.214-3.328-2.518-6.032-.943m136.905.749c-2.251 2.487-2.079 4.499.578 6.766 1.669 1.424 1.902 1.477.923.21-.72-.932-1.162-2.732-.983-4 .253-1.781 1.123-2.422 3.827-2.819 2.731-.401 3.098-.675 1.668-1.25-2.839-1.141-4.218-.89-6.013 1.093M96.992 124.25c-2.934 3.731-3.004 3.944-.575 1.75 2.521-2.279 5.18-6 4.286-6-.203 0-1.872 1.912-3.711 4.25m12.566-.343c-.309.498.34.671 1.441.383 2.335-.611 2.63-1.29.56-1.29-.793 0-1.693.408-2.001.907m-3.825 8.217c.679.684 1.486.991 1.793.683.308-.308-.247-.867-1.233-1.243-1.425-.542-1.54-.428-.56.56m8.826 5.408c-1.068.807-1.46 1.468-.873 1.468.588 0 1.629-.675 2.314-1.5 1.557-1.876 1.067-1.866-1.441.032M98.5 139l-3 .763 2.691.119c1.48.065 2.969-.332 3.309-.882s.479-.947.309-.882-1.659.462-3.309.882m-13.231.693c.973.254 2.323.237 3-.037s-.119-.481-1.769-.461-2.204.244-1.231.498m24.544-.01c.721.289 1.584.253 1.916-.079s-.258-.568-1.312-.525c-1.165.048-1.402.285-.604.604M98.75 165.08c-1.991 1.16-2.395 6.403-.58 7.525.805.498.954.16.477-1.082-1.69-4.404 2.862-7.507 6.271-4.273 1.035.982 1.026.768-.041-1-1.464-2.425-3.353-2.786-6.127-1.17"/><path fill-opacity=".17" fill-rule="evenodd" d="M83.633 4.553C46.819 11.868 18.044 39.027 8.326 75.628 6.072 84.116 5.704 87.532 5.704 100c0 12.509.365 15.873 2.653 24.5 9.675 36.473 38.975 64.068 75.481 71.089 10.299 1.981 26.785 1.772 37.68-.477 37.26-7.69 66.749-37.729 74.714-76.107 2.525-12.162 2.014-31.351-1.156-43.505-8.053-30.874-32.092-56.962-61.814-67.084-5.369-1.829-12.687-3.792-16.262-4.363-8.804-1.406-24.998-1.164-33.367.5M83 8.426c-34.914 7.75-61.176 32.5-71.189 67.092-2.028 7.004-2.303 10.065-2.244 24.982.06 15.08.342 17.885 2.5 24.835 1.338 4.309 2.883 7.81 3.433 7.78s1.979 2.164 3.176 4.875c8.884 20.13 28.818 39.042 49.599 47.056 12.256 4.726 20.633 6.244 34.225 6.202 23.381-.072 44.055-8.29 60.87-24.195 19.323-18.277 28.741-40.43 28.719-67.553-.017-20.632-6.143-38.811-18.69-55.466-3.094-4.107-4.899-6.864-4.012-6.128.93.772 1.613.897 1.613.296 0-1.404-10.196-10.495-17-15.157-10.558-7.233-21.409-11.849-34.315-14.595-8.21-1.747-28.863-1.76-36.685-.024m-1.708 7.514C48.296 24.859 25.217 48.537 17.391 81.5c-2.03 8.549-2.264 26.623-.455 35 4.975 23.026 18.59 43.363 37.378 55.833 36.104 23.963 85.436 16.478 113.325-17.196 6.136-7.409 14.503-23.488 16.981-32.637.923-3.404 1.84-11.744 2.12-19.279.631-16.986-1.632-27.841-8.773-42.07C167.415 40.126 150.553 25.525 128 17.884c-8.725-2.956-10.723-3.246-24.5-3.556-12.474-.28-16.214-.008-22.208 1.612m6.829 5.123c-12.651 2.253-27.885 9.343-36.172 16.834L47.5 41.918l3.185.041L53.87 42l-5.115 5.25c-5.239 5.376-12.934 16.46-14.757 21.256-.648 1.704 5.826-3.963 17.741-15.529 13.5-13.105 20.198-18.884 23.887-20.611 5.68-2.658 21.203-6.633 25.874-6.624 3.463.006 21.44 4.459 26.265 6.505 1.796.762 12.071 9.623 22.833 19.692 17.059 15.959 19.285 17.746 17.363 13.934-3.051-6.053-10.045-15.684-14.43-19.873l-3.664-3.5 3.293-.5 3.293-.5-6.476-4.893c-7.572-5.72-19.969-11.885-28.477-14.16-7.231-1.934-25.938-2.71-33.379-1.384m10.122 7.094c-1.791 1.791-1.528 5.382.507 6.922 1.489 1.127 1.563 1.115.5-.077-3.075-3.448.974-8.712 4.477-5.821 1.347 1.111 1.521 1.083 1.109-.181-.626-1.915-4.966-2.47-6.593-.843M78.497 53.303c-2.643 2.643-3.443 4.417-3.999 8.867-1.27 10.166 2.115 20.078 7.83 22.925 1.754.874 1.661.633-.484-1.256-4.201-3.7-4.684-5.584-3.977-15.496.805-11.274 2.461-13.831 8.435-13.029 3.8.509 3.808.503 2.282-1.827-1.157-1.765-1.232-2.459-.308-2.833.673-.273-.509-.532-2.626-.575-3.081-.063-4.51.581-7.153 3.224m32.019-.019c-2.408 2.408-3.605 4.829-4.485 9.067-1.91 9.201.394 20.447 4.514 22.028 1.33.51 1.25.026-.446-2.718-1.874-3.032-1.987-4.16-1.239-12.271.453-4.912 1.358-9.929 2.011-11.149 1.295-2.419 5.016-3.765 8.145-2.947 2.222.581 2.674-1.204.784-3.094-1.482-1.482-.383-1.545 2.516-.145 2.11 1.019 2.118 1.002.243-.5-3.355-2.687-8.343-1.971-12.043 1.729M54.714 78.011c-6.62 5.207-4.127 27.102 3.539 31.091l2.247 1.169-2.125-2.385c-1.169-1.312-2.603-3.316-3.188-4.453-1.519-2.958-1.312-15.199.324-19.115C56.652 81.589 57.439 81 59.949 81c3.28 0 3.785-.821 1.801-2.925-1.025-1.087-.76-1.239 1.47-.845 1.496.265 2.482.096 2.191-.374-1.022-1.654-8.099-.889-10.697 1.155m81.365.576c-4.036 3.396-7.529 14.381-6.843 21.52.443 4.606 3.592 9.893 5.893 9.893.429 0-.382-1.162-1.802-2.583-2.366-2.365-2.528-3.052-1.926-8.17.693-5.902 3.587-13.471 6.292-16.46.889-.983 2.897-1.787 4.462-1.787 2.923 0 3.76-1.316 1.661-2.613-.813-.503-.579-.969.75-1.489 1.444-.566 1.004-.775-1.739-.828-2.564-.049-4.603.712-6.748 2.517M92.762 97.25c-1.859 1.787-5.87 6.4-8.915 10.25s-8.751 10.801-12.683 15.448c-4.582 5.416-7.376 9.667-7.785 11.846-.812 4.328.969 10.327 3.798 12.793l2.195 1.913-2.186-3.618c-2.886-4.777-2.951-11.777-.14-15.021l2.045-2.361-.625 5.146c-.63 5.19.934 10.247 3.7 11.956.649.402.427-.345-.493-1.659-1.913-2.731-2.223-10.046-.558-13.158 3.075-5.745 24.031-30.603 26.749-31.728 3.271-1.355 6.585-.725 9.532 1.811 1.803 1.553 1.839 1.525.742-.567-.635-1.209-2.162-2.945-3.396-3.858-2.24-1.657-2.239-1.658.758-1.021 2.202.469 2.601.369 1.5-.376-.825-.559-3.605-1.022-6.179-1.031-3.929-.013-5.22.505-8.059 3.235M29.75 96.08c-1.862 1.085-2.441 6.375-.809 7.384.518.32.856-.603.75-2.05-.256-3.52 2.52-5.388 5.365-3.611 1.906 1.19 1.98 1.133.968-.757-1.187-2.218-3.51-2.576-6.274-.966m136.905.749c-2.251 2.487-2.079 4.499.578 6.766 1.669 1.424 1.902 1.477.923.21-.72-.932-1.162-2.732-.983-4 .27-1.905.892-2.279 3.577-2.158 3.413.155 4.362-1.006 1.668-2.04-2.611-1.002-4.021-.703-5.763 1.222m-69.697 27.375-3.284 4.296 3.863-3.717c2.125-2.044 3.602-3.977 3.284-4.296-.319-.318-2.057 1.354-3.863 3.717m12.697-.454c-.255.412.575.75 1.845.75s2.1-.338 1.845-.75c-.254-.412-1.085-.75-1.845-.75s-1.591.338-1.845.75m9.424 4.833c.048 1.165.285 1.402.604.605.289-.722.253-1.585-.079-1.917s-.568.258-.525 1.312m-13.346 3.541c.679.684 1.486.991 1.793.683.308-.308-.247-.867-1.233-1.243-1.425-.542-1.54-.428-.56.56M112 132c-.901.582-1.025.975-.309.985.655.008 1.469-.435 1.809-.985.767-1.242.421-1.242-1.5 0m5.492 2.027c-.902 2.84-5.031 5.294-7.964 4.734-1.357-.26-2.23-.087-1.939.383 1.143 1.849 5.676.745 8.488-2.067 1.608-1.608 2.923-3.408 2.923-4 0-1.747-.815-1.234-1.508.95M98 139l-3.5.737 3.191.131c1.755.073 3.469-.318 3.809-.868s.479-.941.309-.868-1.884.463-3.809.868m-12.731.693c.973.254 2.323.237 3-.037s-.119-.481-1.769-.461-2.204.244-1.231.498M98.2 165.2c-2.05 2.05-1.446 6.6 1.05 7.91 2.227 1.169 2.231 1.159.379-.927-3.181-3.584.458-7.859 4.526-5.318 1.726 1.078 1.781 1.005.627-.842-1.405-2.25-4.739-2.666-6.582-.823"/><path fill-opacity=".575" fill-rule="evenodd" d="M83.633 4.553c-36.712 7.295-65.618 34.599-75.327 71.15C6.074 84.109 5.704 87.559 5.704 100c0 12.509.365 15.873 2.653 24.5 8.862 33.409 33.571 58.836 67.179 69.131 8.177 2.505 10.413 2.751 25.464 2.807 14.244.054 17.653-.253 24.933-2.242 17.273-4.72 32.834-13.955 44.876-26.631 8.642-9.098 12.121-14.163 17.717-25.791 7.148-14.853 8.787-22.47 8.878-41.274.094-19.119-1.66-27.178-9.356-43-8.489-17.452-20.909-31.182-37.014-40.918C142.189 11.235 127.032 5.656 117 4.053c-8.804-1.406-24.998-1.164-33.367.5m.436 3.478C48.987 15.366 21.9 40.689 11.787 75.605c-2 6.905-2.279 10.027-2.22 24.895.06 15.169.335 17.862 2.548 25 1.365 4.4 2.968 7.906 3.563 7.79.594-.115 1.871 1.858 2.836 4.386 2.818 7.379 12.837 21.47 20.2 28.409 18.227 17.179 38.617 25.313 63.286 25.249 19.169-.05 34.015-4.502 49.602-14.873 28.089-18.69 43.993-52.508 40.37-85.839-1.774-16.314-8.372-33.408-17.522-45.392-1.898-2.484-3.45-5.308-3.45-6.273 0-.966-2.545-4.082-5.655-6.925-10.931-9.99-22.764-16.821-37.345-21.559-7.521-2.444-10.285-2.797-24-3.065-8.525-.167-17.494.113-19.931.623m-.569 7.395c-16.582 3.796-30.893 11.811-43 24.084C2.417 78.113 8.895 141.722 53.982 171.88c9.075 6.07 21.14 11.06 31.829 13.163 3.896.766 11.105 1.04 19.44.739 11.502-.416 14.502-.902 22.749-3.682 28.436-9.585 49.258-31.954 56.568-60.768 3.199-12.613 3.354-28.928.391-41.288-4.204-17.536-15.269-35.458-28.822-46.683-7.399-6.129-23.47-14.494-32.637-16.989-8.182-2.227-31.951-2.789-40-.946m2 6.152C59.344 27.35 36.807 46.679 27.547 71.279 24.679 78.9 22 92.832 22 100.131c0 4.527.176 4.869 2.5 4.869 1.375 0 2.5.142 2.5.316 0 2.176 2.559 13.59 4.133 18.434l2.03 6.25 11.669-.008 11.668-.008 1.288-2.742c1.128-2.403 1.066-2.866-.5-3.742-4.434-2.48-10.2-9.527-10.813-13.213-.346-2.083-1.045-5.092-1.552-6.686S44 96.251 44 90.811c0-11.177 1.713-16.06 7.008-19.975 1.646-1.217 2.999-3.14 3.007-4.274.022-2.862 1.095-4.273 4.128-5.426C61.369 59.909 63 61.274 63 65.2c0 2.133.476 2.8 2 2.8 1.685 0 2.001-.669 2.006-4.25.012-9.113 4.414-17.025 10.989-19.748C80.277 43.057 81 42.113 81 40.079 81 36.861 82.649 35 85.5 35c2.865 0 4.5 1.864 4.5 5.133 0 1.902.641 2.936 2.111 3.402 1.16.369 3.852 2.243 5.981 4.167l3.87 3.496 2.499-2.969c1.374-1.633 3.858-3.533 5.519-4.221 2.297-.951 3.02-1.892 3.02-3.929 0-3.218 1.649-5.079 4.5-5.079s4.5 1.861 4.5 5.079c0 2.034.723 2.978 3.005 3.923 6.575 2.723 10.977 10.635 10.989 19.748.005 3.535.332 4.25 1.943 4.25 1.454 0 2.014-.81 2.25-3.25.257-2.665.785-3.305 2.937-3.554 3.065-.356 5.876 2.051 5.876 5.03 0 1.189 1.701 3.538 3.967 5.477 2.431 2.082 4.364 4.828 4.994 7.096 1.316 4.738 1.34 20.306.039 25.335l-2.007 7.756c-.945 3.651-5.645 8.884-10.462 11.65-1.597.917-1.648 1.3-.43 3.25 1.3 2.083 2.079 2.21 13.494 2.21h12.114l2.082-7.25c1.145-3.987 2.382-9.203 2.749-11.591l.666-4.34-2.497 1.636c-3.646 2.389-7.58 1.097-9.317-3.058-1.936-4.634-1.759-6.121 1.063-8.942 3.142-3.143 5.979-3.111 9.191.1 2.119 2.119 2.445 3.145 1.91 6-.607 3.233-.481 3.445 2.044 3.445h2.691l-.587-9.75c-2.094-34.806-25.645-63.765-59.204-72.803-8.666-2.333-27.322-2.783-36-.869M97 27c-4.461 4.461-1.278 13 4.845 13 3.928 0 6.155-2.813 6.155-7.772 0-3.118-.538-4.492-2.223-5.671-3.031-2.124-6.379-1.955-8.777.443m.604 2.155c-1.576 2.251-.867 5.015 1.651 6.436.984.555.983.421-.005-.644-1.877-2.022-1.507-4.739.814-5.981 1.51-.809 2.425-.805 3.411.013.769.639 1.588.728 1.909.209 1.825-2.954-5.712-2.986-7.78-.033M78.497 53.303c-2.643 2.643-3.443 4.417-3.999 8.867-1.269 10.156 2.092 20.011 7.83 22.959 1.79.92 1.952.883.922-.207-2.586-2.735-1.478-4.467 2.857-4.467 6.285 0 8.189-2.939 7.732-11.936-.292-5.773-.922-7.939-3.547-12.202-2.159-3.506-2.803-5.342-1.992-5.671.66-.269-.533-.524-2.65-.567-3.081-.063-4.51.581-7.153 3.224m32.019-.019c-7.252 7.252-6.967 27.363.442 31.194 2.627 1.359 2.668 1.332 2.254-1.485-.401-2.736-.226-2.882 3.834-3.18 5.991-.441 8.296-3.713 8.221-11.671-.044-4.69-.705-7.131-3.128-11.545-3.259-5.939-3.249-6.197.177-4.542 2.11 1.019 2.118 1.002.243-.5-3.355-2.687-8.343-1.971-12.043 1.729M54.714 78.011c-6.419 5.049-4.447 25.77 2.917 30.66 1.89 1.255 1.998 1.158 1.615-1.448-.397-2.706-.288-2.78 3.576-2.411 8.158.778 10.377-6.177 5.37-16.831-1.158-2.465-3.363-6.017-4.899-7.894L60.5 76.675l2.72.518c1.496.285 2.482.133 2.191-.337-1.022-1.654-8.099-.889-10.697 1.155m80.994.772C132.229 82.415 129 91.943 129 98.58c0 4.207.521 5.886 2.589 8.343 1.424 1.692 3.111 3.063 3.75 3.047s.415-.466-.496-.998a2.56 2.56 0 0 1-1.168-2.838c.408-1.558 1.195-1.79 4.726-1.392 3.793.427 4.511.151 6.857-2.637 4.048-4.81 4.981-17.561 1.452-19.828-.666-.427-1.758-1.759-2.427-2.96-1.03-1.849-.954-2.252.5-2.634.944-.248-.111-.503-2.346-.567-3.226-.092-4.612.457-6.729 2.667M28.635 95.073C23.447 99.153 26.461 108 33.039 108c6.476 0 9.271-7.781 4.506-12.545-2.998-2.999-5.45-3.104-8.91-.382m66.589-.402c-.701.282-6.287 6.659-12.413 14.171s-12.836 15.53-14.912 17.818c-2.226 2.453-4.059 5.673-4.466 7.847-.861 4.589.846 10.554 3.744 13.08l2.195 1.913-2.186-3.618c-2.544-4.211-2.815-8.115-.686-9.882 1.262-1.047 1.501-.868 1.504 1.128.002 1.304.895 3.835 1.985 5.622 2.412 3.956 3.445 4.31 1.458.5-1.637-3.137-1.888-10.02-.447-12.25.734-1.136.973-.699.985 1.8.03 6.576 4.418 11.2 10.629 11.2 2.066 0 2.406.361 1.886 2-.773 2.436-.425 2.436 6.5 0 7.075-2.489 13.25-2.493 21.161-.013 7.587 2.378 7.928 2.407 7.239.613-.359-.935.637-1.787 2.999-2.567 1.944-.641 4.675-2.521 6.068-4.176 3.513-4.175 3.315-8.474-.643-13.957-4.518-6.259-19.205-24.863-22.322-28.274l-2.626-2.874 2.646.664c1.723.433 2.421.301 2.003-.376-.647-1.046-9.924-1.325-12.301-.369M29.75 96.08c-2.604 1.517-2.289 6.567.5 8.03 2.227 1.169 2.231 1.159.379-.927-3.199-3.604.464-7.855 4.563-5.295 1.75 1.093 1.827 1.015.832-.842-1.187-2.218-3.51-2.576-6.274-.966m136.905.749c-2.251 2.487-2.079 4.499.578 6.766 1.669 1.424 1.902 1.477.923.21-.72-.932-1.162-2.732-.983-4 .27-1.905.892-2.279 3.577-2.158 3.413.155 4.362-1.006 1.668-2.04-2.611-1.002-4.021-.703-5.763 1.222m-81.954 21.803c-.385.386-.701 5.126-.701 10.535 0 9.822.003 9.833 2.5 9.833 2.1 0 2.5-.471 2.5-2.941 0-4.241 1.232-4.393 3.911-.484 1.754 2.56 3.072 3.425 5.218 3.425 3.188 0 3.83-1.959 1.324-4.039-.85-.706-2.467-2.576-3.592-4.156l-2.046-2.873 3.554-4.338c1.955-2.385 3.272-4.62 2.926-4.966-1.668-1.668-5.045-.315-7.795 3.122l-3 3.75-.5-3.489c-.474-3.305-2.657-5.021-4.299-3.379m22.541.364c-7.591 3.178-3.404 15.917 4.272 12.999 2.449-.931 2.631-.874 1.512.473-.699.843-2.293 1.532-3.541 1.532-1.249 0-2.559.752-2.912 1.67-1.129 2.942 3.579 4.389 7.482 2.3 4.646-2.486 6.594-12.762 3.195-16.856-2.044-2.462-6.788-3.466-10.008-2.118m2.122 5.497c-.346.903-.15 2.121.436 2.707 1.524 1.524 4.41.131 4.012-1.935-.443-2.302-3.647-2.858-4.448-.772M98.2 165.2c-2.05 2.05-1.446 6.6 1.05 7.91 2.227 1.169 2.231 1.159.379-.927-3.181-3.584.458-7.859 4.526-5.318 1.726 1.078 1.781 1.005.627-.842-1.405-2.25-4.739-2.666-6.582-.823"/><path fill-opacity=".944" fill-rule="evenodd" d="M83.834 4.567C47.013 11.229 17.218 39.99 7.759 78c-3.164 12.713-2.933 32.993.525 46.12 8.939 33.93 33.399 59.193 67.295 69.503 8.085 2.46 10.467 2.722 25.421 2.795 13.244.066 17.881-.291 23.5-1.811 35.087-9.487 61.203-35.58 70.669-70.607 3.31-12.245 3.292-35.638-.036-48C181.695 26.083 134.021-4.515 83.834 4.567M93 7.153c-11.824.909-19.848 3.157-31.638 8.865-22.618 10.95-39.477 29.73-47.544 52.96-6.568 18.913-6.568 43.131 0 62.044 10.249 29.516 35.956 52.668 66.689 60.064 13.006 3.13 30.526 2.969 43.552-.401 32.071-8.296 57.003-32.419 66.55-64.388 3.561-11.926 4.438-32.024 1.936-44.371-5.974-29.482-24.075-52.917-50.907-65.908-15.91-7.703-30.1-10.289-48.638-8.865m-9.759 8.359C67.817 19.04 53.291 26.961 42 38c-8.506 8.316-12.276 13.445-17.377 23.64-12.913 25.81-11.692 57.72 3.169 82.808 6.287 10.614 19.265 23.614 29.708 29.76 4.4 2.59 12.275 6.183 17.5 7.986 9.286 3.204 9.883 3.278 26.5 3.273 16.679-.006 17.184-.069 26.744-3.361 27.439-9.447 47.936-30.976 55.995-58.815 3.001-10.365 3.236-35.097.43-45.291-7.987-29.022-31.258-52.771-59.854-61.083-9.542-2.774-32.236-3.541-41.574-1.405M86 21.452C56.02 27.872 33.416 49.327 24.844 79.5c-3.226 11.359-3.226 29.641 0 41 6.389 22.49 20.542 40.235 40.282 50.505L72.805 175h12.298c9.564 0 12.03-.267 11.097-1.2-1.901-1.901-1.439-7.561.8-9.8 4.294-4.294 11-1.334 11 4.857 0 2.059-.54 4.283-1.2 4.943-.933.933 1.567 1.199 11.25 1.195 12.271-.005 12.549-.055 19.306-3.523 19.88-10.202 33.738-27.018 40.8-49.507 1.992-6.343 2.344-9.57 2.344-21.465 0-15.796-1.318-22.265-6.975-34.244-9.992-21.158-25.418-34.87-47.683-42.386-8.011-2.704-11.052-3.2-21.342-3.481-7.689-.211-14.335.172-18.5 1.063M97 27c-4.123 4.123-1.273 11.25 4.5 11.25 3.7 0 6.5-2.95 6.5-6.848 0-5.747-6.896-8.506-11-4.402m.086 2.25c-1.586 4.2 1.699 7.523 6.297 6.369 2.716-.682 3.692-3.183 2.5-6.406-1.186-3.207-7.583-3.179-8.797.037m-15.051 7.684c-.569 1.064-1.036 2.752-1.038 3.75-.001 1.067-1.532 2.64-3.713 3.816-5.912 3.187-9.398 9.056-10.026 16.881-.443 5.51-.833 6.619-2.332 6.619-1.299 0-1.886-.903-2.113-3.25-.243-2.529-.83-3.323-2.645-3.58C57.282 60.761 54 63.58 54 66.467c0 1.236-1.278 3.102-2.992 4.369-5.359 3.962-7.009 8.766-6.998 20.374.008 8.695.375 11.074 2.364 15.346 2.685 5.766 9.284 11.926 13.728 12.814l3.014.603-2.981 3.764c-5.469 6.905-6.27 16.102-2.112 24.263 5.412 10.626 17.372 13.845 31.573 8.5 8.354-3.144 13.302-3.147 23.116-.013 8.286 2.646 17.241 3.237 21.973 1.449 10.278-3.883 16.16-20.022 10.894-29.892-1.842-3.453-1.841-3.458.515-5 3.798-2.486 8.906-7.174 8.906-8.173 0-.507-1.463-.184-3.25.717l-3.25 1.64 3.707-3.864C157.2 108.16 159 102.583 159 92.317c0-11.9-1.407-16.654-6.126-20.693-2.197-1.881-3.874-4.217-3.874-5.398 0-2.979-2.811-5.386-5.876-5.03-2.152.249-2.68.889-2.937 3.554-.227 2.347-.814 3.25-2.113 3.25-1.494 0-1.888-1.098-2.318-6.454-.645-8.031-2.962-12.168-8.986-16.046-3.494-2.249-4.675-3.639-4.716-5.55-.066-3.114-1.755-4.95-4.554-4.95-2.879 0-4.5 1.868-4.5 5.187 0 2.212-.686 3.073-3.332 4.178-1.833.766-4.32 2.649-5.527 4.183l-2.196 2.791-3.222-3.108c-1.773-1.71-4.46-3.575-5.973-4.145-2.106-.794-2.75-1.698-2.75-3.861 0-1.554-.54-3.365-1.2-4.025-1.837-1.837-5.608-1.428-6.765.734m-2.929 15.63C69.237 60.869 74.662 86 86.323 86c7.75 0 12.348-7.862 11.421-19.529-1.105-13.927-10.385-20.851-18.638-13.907m31.41.72c-5.367 5.367-7.019 19.128-3.282 27.331 2.104 4.618 8.854 6.669 14.093 4.282 5.719-2.606 9.309-16.175 6.766-25.574-2.466-9.111-11.426-12.19-17.577-6.039m-55.8 24.725c-3.768 2.964-4.988 9.851-3.232 18.243 1.599 7.644 3.669 11.259 7.615 13.299 5.75 2.974 11.769.738 14.167-5.263 2.576-6.448-.81-20.832-6.165-26.187-2.771-2.771-8.922-2.816-12.385-.092m80.96.807C132.1 82.548 129 91.643 129 98.398c0 4.387.499 6.041 2.56 8.491 4.679 5.561 12.964 4.82 17.125-1.531 2.285-3.488 4.296-13.656 3.597-18.193C151.076 79.333 147.933 76 141.753 76c-2.4 0-4.161.816-6.077 2.816M28.635 95.073c-1.775 1.395-2.635 3.028-2.635 5 0 6.479 7.955 9.342 11.927 4.292 2.722-3.46 2.617-5.912-.382-8.91s-5.45-3.104-8.91-.382m136.82.382C164.105 96.805 163 98.85 163 100c0 2.698 4.302 7 7 7 1.15 0 3.195-1.105 4.545-2.455S177 101.15 177 100s-1.105-3.195-2.455-4.545S171.15 93 170 93s-3.195 1.105-4.545 2.455M92.13 97.75c-2.984 3.079-11.185 12.903-26.49 31.733-4.59 5.648-2.465 15.756 4.258 20.247 4.47 2.986 7.871 2.849 18.102-.73 9.982-3.491 15.137-3.706 24-1 7.607 2.323 7.287 2.273 6.509 1.015-.377-.61.539-.755 2.404-.382 3.5.7 8.413-.297 7.639-1.549-.292-.472.253-1.471 1.209-2.221 1.574-1.233 1.609-1.197.367.387-.865 1.102-.967 1.75-.276 1.75 3.24 0 5.529-12.551 3.113-17.066-.811-1.515-.708-1.934.474-1.934 2.229 0 4.561 5.274 4.561 10.315 0 6.749-4.179 11.191-12 12.755l-3.5.7 3.602.115c10.393.332 17.765-14.351 11.258-22.42-15.017-18.622-26.958-32.77-28.669-33.969-1.255-.879-4.361-1.496-7.531-1.496-4.922 0-5.714.329-9.03 3.75m-62.525-1.451c-2.761 2.019-1.784 6.927 1.615 8.115 5.097 1.782 8.904-4.182 4.951-7.759-2.201-1.992-4.181-2.099-6.566-.356m137.05.53c-2.201 2.432-2.087 4.47.375 6.698 2.969 2.687 7.347 1.006 7.806-2.996.564-4.924-4.856-7.376-8.181-3.702m-81.954 21.803c-.385.386-.701 5.126-.701 10.535 0 9.822.003 9.833 2.5 9.833 2.1 0 2.5-.471 2.5-2.941 0-4.241 1.232-4.393 3.911-.484 1.754 2.56 3.072 3.425 5.218 3.425 3.188 0 3.83-1.959 1.324-4.039-.85-.706-2.467-2.576-3.592-4.156l-2.046-2.873 3.554-4.338c1.955-2.385 3.272-4.62 2.926-4.966-1.668-1.668-5.045-.315-7.795 3.122l-3 3.75-.5-3.489c-.474-3.305-2.657-5.021-4.299-3.379m22.316.613c-7.428 3.88-2.911 15.533 4.882 12.595 2.087-.786 2.233-.704 1.127.628-.699.843-2.293 1.532-3.541 1.532-2.596 0-4.196 2.932-2.269 4.155 2.981 1.891 8.299-.316 10.359-4.3 1.968-3.805 1.805-10.175-.325-12.741-2.218-2.672-7.017-3.548-10.233-1.869m2.347 5.248c-.346.903-.15 2.121.436 2.707 1.524 1.524 4.41.131 4.012-1.935-.443-2.302-3.647-2.858-4.448-.772M98.2 165.2c-1.992 1.992-1.45 6.596.926 7.868 2.714 1.452 6.432-.099 7.377-3.079 1.335-4.203-5.149-7.943-8.303-4.789"/></svg>