<svg xmlns="http://www.w3.org/2000/svg" width="200" height="200" fill="#000000"><path fill-opacity=".4" fill-rule="evenodd" d="M104.163 7.563c-2.435 1.032-3.866 1.131-5.291.369-1.517-.813-2.729-.566-5.438 1.109C89.809 11.281 87 11.1 87 8.625c0-2.009-3.789-.887-5.067 1.5-1.201 2.244-4.762 2.484-5.571.375-.999-2.603-3.185-1.632-4.498 2-1.071 2.961-1.737 3.5-4.324 3.5-1.976 0-3.501.708-4.308 2-.687 1.1-2.166 2-3.287 2-1.202 0-2.724 1.196-3.71 2.914-.92 1.602-2.874 3.623-4.343 4.491s-2.954 2.706-3.3 4.086c-.347 1.38-1.2 2.509-1.895 2.509C45.221 34 42 39.078 42 41.404c0 .878-.432 1.596-.96 1.596s-1.523 1.913-2.21 4.25-1.895 4.74-2.682 5.34c-1.013.771-1.239 2.11-.775 4.582.52 2.774.237 3.871-1.373 5.328-1.299 1.176-1.811 2.52-1.424 3.738.44 1.387.023 2.054-1.538 2.462l-2.142.56 2.233 2.378c2.102 2.237 2.13 2.452.478 3.66-1.514 1.107-1.583 1.66-.505 4.026 1.116 2.45 1.017 2.904-.926 4.266-1.197.838-2.176 2.187-2.176 2.998s-.675 1.734-1.5 2.05c-2.168.832-1.843 2.115.75 2.962 2.087.681 2.008.798-1.081 1.617-2.553.676-3.083 1.182-2.267 2.165.765.922.669 1.821-.343 3.2-1.214 1.656-1.203 2.144.082 3.569 1.329 1.473 1.258 1.865-.663 3.655-2.049 1.909-2.062 2.032-.278 2.599 1.031.327 1.946 1.541 2.033 2.697.122 1.622-.287 1.986-1.787 1.594-3.013-.788-2.397 2.08 1.16 5.403 1.708 1.595 2.608 2.901 2 2.901-1.952 0-1.18 1.747 1.026 2.324 1.569.41 1.99 1.103 1.593 2.621-.414 1.582.036 2.208 1.927 2.683 1.519.381 2.269 1.136 1.951 1.963-.283.74-.054 1.631.511 1.98.621.383.756 2.241.341 4.695l-.686 4.061 2.75-2.164c3.102-2.439 4.641-2.758 4.416-.913-.083.688.18 2.285.586 3.551.617 1.922 1.211 2.197 3.609 1.67 2.253-.494 2.87-.276 2.87 1.017 0 1.155.56 1.469 1.876 1.051 1.336-.424 2.029-.011 2.406 1.433.327 1.248 1.362 2.028 2.692 2.028 1.706 0 2.027.421 1.526 2-.45 1.419-.18 2 .933 2 1.982 0 2.003.96.052 2.39-2.123 1.555-3.024 13.295-1.273 16.58 1.792 3.361 4.535 4.508 16.788 7.018 9.572 1.961 16.46 3.721 33.446 8.548 3.27.929 8.22 2.05 11 2.491 2.78.44 9.968 1.74 15.973 2.887 16.012 3.059 20.36 2.855 24.843-1.164 5.935-5.321 7.204-10.882 3.629-15.903-2.331-3.274-2.17-3.875 1.105-4.122 1.295-.097 2.583-1.117 3.088-2.446.477-1.253 1.553-2.279 2.391-2.279 1.493 0 2.252-2.969.775-3.032-.412-.017-1.611-.683-2.662-1.479-1.841-1.392-1.783-1.57 1.546-4.718 4.85-4.587 7.216-10.849 5.896-15.602-1.345-4.844-1.343-4.854.97-5.459 1.1-.287 2.003-1.352 2.006-2.366.004-1.014 1.354-2.611 3.001-3.548s3.501-2.816 4.12-4.176c1.384-3.038.431-7.36-1.719-7.797-.875-.178-2.656-2.798-3.959-5.823-3.015-7.001-3.199-15.807-.449-21.5 2.347-4.859 2.555-11.425.445-14.059-1.502-1.875-1.519-1.867-.5.243 1.526 3.159 1.296 8.95-.493 12.409-1.807 3.494-5.796 5.393-8.281 3.943-1.447-.845-1.374-.979.544-1.006 3.809-.052 5.605-5.843 2.941-9.486-1.748-2.39-5.912-1.447-7.438 1.684-.971 1.993-1.032 1.852-.503-1.148.332-1.881 1.544-4.9 2.694-6.708 1.744-2.741 2.714-3.294 5.841-3.33 3.744-.042 3.75-.049 3.718-4.292-.034-4.518-1.216-6.757-4.489-8.499-1.112-.592-2.88-3.465-3.93-6.384-1.049-2.919-2.952-6.846-4.229-8.727-1.276-1.88-2.259-4.369-2.184-5.53.129-1.996.16-1.989.57.14.537 2.789 2.302 2.936 3.004.25.288-1.1 1.323-2 2.301-2 1.621 0 1.668-.375.529-4.25-.905-3.078-1.841-4.338-3.395-4.57-2.273-.338-2.821-1.644-1.129-2.69 1.731-1.07.011-2.49-3.016-2.49-3.507 0-4.682-1.504-2.271-2.908 1.433-.835 1.008-1.04-2.229-1.077-5.276-.06-6.907-1.158-5.993-4.036.691-2.177.548-2.243-3.454-1.603-4.909.785-6.674.077-4.959-1.989 1.71-2.061 1.022-2.268-4.594-1.382-3.927.62-5.375.456-6.75-.763-1.094-.97-1.75-1.119-1.75-.397 0 .635-1.35 1.155-3 1.155-2.027 0-3-.497-3-1.531 0-2.143-2.462-2.852-5.827-1.679-3.449 1.202-7.954.491-8.37-1.322-.248-1.079-.911-1.061-3.64.095M137 77.13c-1.925 1.167-3.831 2.628-4.235 3.246-1.324 2.026-.801 2.714 1.235 1.624 4.402-2.356 8.485 3.446 6.103 8.674-.633 1.389-2.04 2.758-3.127 3.043-3.137.82-2.325 2.241 2.5 4.375 4.466 1.976 4.485 1.976 8.882-.027 5.113-2.33 5.642-3.329 5.642-10.664 0-4.924-.338-5.765-3.586-8.919-4.261-4.138-8.17-4.532-13.414-1.352"/><path fill-opacity=".222" fill-rule="evenodd" d="M94.107 9.115C91.287 11.398 87 11.631 87 9.5c0-2.123-2.364-1.86-4.5.5-2.192 2.422-4.246 2.54-6.631.382-1.675-1.516-1.898-1.389-3.514 2-1.431 3-2.251 3.618-4.803 3.618-2.233 0-3.349.618-4.065 2.25-.565 1.289-2.055 2.387-3.487 2.57-1.566.2-3.524 1.788-5.24 4.25-1.508 2.161-3.42 3.93-4.25 3.93-.834 0-1.51.879-1.51 1.965 0 1.08-.897 2.444-1.992 3.031-1.096.586-3.627 4.54-5.624 8.785s-4.025 8.5-4.507 9.455S36 55.499 36 57.364s-.675 3.951-1.5 4.636-1.5 2.502-1.5 4.039-.562 2.998-1.25 3.247c-.991.359-.979.911.057 2.662 1 1.688 1.034 2.539.145 3.609-.864 1.042-.879 2.214-.057 4.571 1.39 3.988 1.398 3.922-.395 3.234-.95-.365-1.5.013-1.5 1.031 0 .884-.498 1.607-1.107 1.607s-.848.675-.531 1.5c.35.914.001 1.5-.893 1.5-1.917 0-1.895 1.623.031 2.362 2.467.946 1.698 2.638-1.2 2.638-2.083 0-2.429.271-1.514 1.186s.831 1.579-.368 2.905c-1.292 1.427-1.339 2.062-.281 3.757 1.074 1.72.995 2.349-.504 4.005-1.71 1.89-1.703 1.99.191 2.591 2.68.851 1.75 4.939-.962 4.23-1.024-.268-1.862-.063-1.862.455 0 1.807 3.241 5.871 4.682 5.871q1.451.001.856 1.882c-.377 1.187-.033 2.098.932 2.468.842.323 1.53 1.471 1.53 2.551s.788 2.219 1.75 2.53c2.537.82 4.326 5.239 3.258 8.048-1.155 3.037-.249 3.803 2.346 1.986 2.71-1.899 4.743-1.881 4.008.035-.317.825-.048 1.5.598 1.5.717 0 .929.774.544 1.988-.556 1.75-.282 1.918 2.289 1.403 2.189-.437 3.083-.156 3.575 1.125.505 1.318.969 1.449 2.022.576 1.069-.888 1.485-.679 1.914.961.301 1.153 1.481 2.34 2.622 2.638S56 150.043 56 151.033s.563 1.997 1.25 2.238c.931.325.831.92-.392 2.333-.903 1.043-1.958 4.259-2.344 7.146-.694 5.193-.673 5.25 1.958 5.25 1.463 0 3.552-.478 4.644-1.062 1.091-.584 5.139-1.304 8.995-1.6 5.665-.435 7.363-.219 8.85 1.127 1.077.974 2.09 1.261 2.442.692.616-.996 11.609 1.852 13.905 3.604 2.257 1.721 14.28 4.347 18.732 4.091 4.416-.254 13.846 1.531 17.196 3.255.955.491 2.418.893 3.25.893.833 0 1.514.675 1.514 1.5 0 .858.963 1.545 2.25 1.604 1.238.058 4.05.315 6.25.572s6.25.367 9 .246c2.75-.122 6.012-.266 7.25-.322 2.82-.125 2.921-2.478.25-5.873-2.665-3.388-2.537-4.086 1-5.421 1.65-.623 3-1.816 3-2.652 0-.835.992-1.834 2.203-2.219 2.181-.692 2.175-.722-.627-2.956-3.097-2.469-2.896-3.498 1.388-7.102 3.307-2.782 5.636-8.949 4.085-10.817-1.723-2.077-4.506-2.431-7.147-.908l-2.402 1.385 3-.169c4.764-.269 6.5.053 6.5 1.205 0 .591-.787.896-1.75.678-2.404-.543-10.758 2.757-13.226 5.225-1.789 1.789-3.313 2.024-13.127 2.024-10.213 0-11.509-.22-16.184-2.75-6.722-3.638-9.642-6.956-9.681-11-.018-1.787-.498-3.25-1.067-3.25-.681 0-.646-.727.103-2.127.866-1.619.848-2.307-.078-2.879-.895-.553-.911-.854-.061-1.137.635-.212 1.255-1.954 1.379-3.871.123-1.917 1.004-4.599 1.958-5.959s1.734-2.95 1.734-3.534 1.323-1.843 2.939-2.798c3.014-1.781 4.675-4.893 3.567-6.686-.343-.555.078-1.009.935-1.009s1.557-.338 1.555-.75c-.009-1.938-4.347-7.543-7.011-9.058-1.635-.931-2.975-2.457-2.979-3.392-.003-.935-.604-2.06-1.334-2.5-1.613-.972-4.152-5.593-5.602-10.199-.588-1.87-1.07-8.219-1.07-14.111 0-9.776.218-11.032 2.5-14.395 1.375-2.026 2.503-4.001 2.507-4.389.01-1.076 6.131-5.009 9.765-6.276 1.775-.619 3.228-1.558 3.228-2.087 0-.528.489-.659 1.087-.289s4.101.77 7.784.89c5.189.169 7.722.819 11.251 2.887 2.504 1.468 5.077 2.669 5.716 2.669 1.441 0 1.514-3.474.127-6.066-.714-1.333-.714-1.934 0-1.934.569 0 1.035.418 1.035.929 0 1.679 3.029 3.997 4.491 3.436.788-.302 1.705-1.408 2.038-2.457.333-1.05 1.286-1.908 2.118-1.908 1.182 0 1.36-.71.817-3.25-.834-3.901-2.186-5.75-4.203-5.75-.988 0-1.322-.659-.986-1.944.402-1.538-.149-2.086-2.633-2.618-4.506-.966-4.99-1.457-2.952-3.002 1.628-1.235 1.396-1.376-2.318-1.404-4.585-.036-7.091-1.913-5.148-3.856.901-.901-.038-1.176-4.024-1.176-5.525 0-5.731-.14-4.254-2.899.856-1.6.546-1.707-3.287-1.125-2.328.353-4.74.956-5.36 1.339-.621.384-1.313.143-1.539-.534-.262-.786-1.946-1.12-4.657-.924-3.599.26-4.331-.011-4.792-1.775-.626-2.393-1.796-2.575-5.311-.826-3.169 1.577-8 1.08-8-.822 0-1.898-2.009-1.816-4.886.199-1.377.964-2.594 1.241-2.973.677-1.306-1.947-3.772-2.027-6.034-.195M161.158 41c0 1.375.227 1.938.504 1.25.278-.687.278-1.812 0-2.5-.277-.687-.504-.125-.504 1.25M135 59.768c-1.925.867-4.598 2.91-5.939 4.54-2.337 2.841-2.348 2.916-.25 1.793C130.015 65.457 131 64.511 131 64c0-3.088 11.665-5.31 17.917-3.413 5.978 1.815 6.303 1.723 2.083-.587-4.233-2.317-11.146-2.418-16-.232M160.5 63c-.995 1.1-1.313 2-.705 2s1.465-.609 1.905-1.353c.44-.745 1.475-1.609 2.3-1.921 1.276-.483 1.261-.58-.095-.647-.877-.043-2.41.821-3.405 1.921m12 0c.995 1.1 2.035 2 2.31 2s-.315-.9-1.31-2-2.035-2-2.31-2 .315.9 1.31 2M154 64.441c0 .857.45 1.559 1 1.559s1-.423 1-.941-.45-1.219-1-1.559-1 .084-1 .941m-15 6.379c-4.239 1.921-7.21 4.866-9.006 8.926-2.069 4.678-2.577 8.775-1.194 9.63.44.272.8-1.029.8-2.891 0-2.461.805-4.134 2.95-6.131 1.665-1.55 2.188-2.456 1.2-2.081-2.264.86-2.245-.515.037-2.58 5.444-4.927 13.07-5.409 17.699-1.119 1.383 1.282 2.508 1.789 2.502 1.128-.036-3.502-10.507-6.912-14.988-4.882m24.535 1.767c-2.326 3.55-1.597 3.651 1.862.256 1.996-1.959 2.42-2.843 1.365-2.843-.843 0-2.295 1.164-3.227 2.587m10.485-1.063c.696.838 1.471 1.318 1.723 1.067.693-.694-.716-2.591-1.924-2.591-.664 0-.588.574.201 1.524m-3.27 2.138c.688.278 1.813.278 2.5 0 .688-.277.125-.504-1.25-.504s-1.937.227-1.25.504M146 74.702c.825.299 3.075 1.951 5 3.671l3.5 3.127-3.446-3.75c-1.896-2.062-4.146-3.714-5-3.671-1.344.068-1.352.152-.054.623m18.471 3.351c-1.945 2.904-1.98 2.914-2.655.695-.376-1.236-.434.227-.129 3.252.586 5.811 2.9 12 4.486 12 .52 0 .693-.408.385-.907-.309-.498.287-.685 1.324-.414 1.214.318 2.459-.327 3.501-1.815 2.068-2.953 2.035-4.127-.195-6.88-2.285-2.822-5.349-2.044-6.977 1.773-1.097 2.573-1.145 2.475-.775-1.585.217-2.38 1.18-5.195 2.14-6.256s1.547-2.126 1.306-2.367c-.242-.242-1.326.885-2.411 2.504m-32.719 5.668c-1.289 1.424-1.462 2.633-.798 5.577.467 2.067 1.381 4.401 2.033 5.187.652.785.932 1.837.623 2.338-.31.5.346 1.732 1.457 2.737 1.914 1.733 1.983 1.735 1.331.035-.614-1.601-.463-1.652 1.417-.478 1.427.891 1.732 1.545.947 2.03-.693.428.026.977 1.79 1.368 1.621.359 3.441.799 4.043.978s2.965-.512 5.25-1.535c3.341-1.496 4.155-2.373 4.155-4.477v-2.617l-2.916 2.076c-5.524 3.934-10.288 3.684-15.429-.81-1.778-1.554-1.76-1.633.5-2.164 3.167-.744 5.259-5.22 4.09-8.751-1.132-3.419-5.979-4.271-8.493-1.494m22.677 4.779c0 2.984.346 4.879.77 4.212s.77-2.562.77-4.212-.346-3.546-.77-4.212c-.424-.667-.77 1.228-.77 4.212m23.729-3.5c0 1.375.227 1.938.504 1.25.278-.687.278-1.812 0-2.5-.277-.687-.504-.125-.504 1.25m-5.49 9.126c-1.007.585-2.694.839-3.75.563-1.055-.276-1.918-.067-1.918.464s-.45.687-1 .347-1-.254-.999.191 2.21.876 4.91.957c4.052.122 4.996-.184 5.405-1.75.561-2.143-.006-2.308-2.648-.772M50.533 98.105c.364 1.146.124 1.895-.605 1.895-2.137 0-3.748 3.332-3.212 6.64.447 2.752.193 3.253-1.849 3.648l-2.367.458 2.278.751c1.651.544 2.114 1.267 1.683 2.627-.41 1.29-.106 1.876.972 1.876 2.051 0 1.985.951-.183 2.655-1.574 1.237-1.473 1.313 1 .752 2.549-.578 2.75-.394 2.75 2.52 0 2.833.197 3.038 2 2.073 1.761-.943 2-.76 2 1.524 0 3.162 1.343 2.498 3.437-1.698 2.186-4.383 1.89-5.797-.593-2.826l-2.09 2.5.392-4.166c.215-2.291.045-3.952-.378-3.691-.422.261-.782-.564-.8-1.834-.029-2.133-.133-2.175-1.36-.559-1.807 2.381-2.608 2.198-2.608-.595 0-1.29.911-3.169 2.024-4.176 1.463-1.324 1.69-2.038.82-2.575-.863-.534-.417-1.776 1.577-4.39 1.53-2.005 2.623-3.794 2.43-3.975s-2.054-.555-4.135-.829c-3.364-.444-3.717-.289-3.183 1.395m99.321.795c-1.348 1.061-3.554 2.135-4.903 2.388-1.348.252-.702.325 1.437.162 2.138-.163 4.586-.995 5.44-1.849 2.353-2.353.819-2.897-1.974-.701M167 97.992c0 .545.9 1.553 2 2.24s2 1.571 2 1.964 1.191 2.423 2.647 4.51c3.659 5.246 2.136 1.37-1.861-4.735-3.102-4.739-4.786-6.139-4.786-3.979m-7.333 7.675c-1.151 1.15-.729 2.333.833 2.333.825 0 1.5-.675 1.5-1.5 0-1.562-1.183-1.984-2.333-.833m4.483 4.283c.43 1.289 1.801 1.521 1.925.325.041-.399-.465-.905-1.125-1.125s-1.02.14-.8.8m-9.337.733c.721.289 1.584.253 1.916-.079s-.258-.568-1.312-.525c-1.165.048-1.402.285-.604.604m4.187.376c0 .582.45.781 1 .441s1-.816 1-1.059-.45-.441-1-.441-1 .477-1 1.059m7.656 7.223c-1.461 1.255-2.656 3.258-2.656 4.452 0 2.618 6.567 9.266 9.153 9.266 1.068 0 1.874.738 1.91 1.75.054 1.492.189 1.455.911-.25.467-1.1 2.252-2.9 3.967-4 5.616-3.601 5.037-8.859-1.308-11.87-4.763-2.26-8.848-2.038-11.977.652m-39.554 4.768.102 4.45 1.055-3.293c.77-2.404.743-3.605-.102-4.45-.876-.876-1.132-.076-1.055 3.293m6.928 1.662c-2.626 2.581-3.657 4.106-2.5 3.697 1.657-.587 8.47-7.095 8.47-8.091 0-.979-2.004.495-5.97 4.394M60 125c0 1.1.209 2 .465 2 .255 0 .946-.9 1.535-2 .854-1.596.76-2-.465-2-.868 0-1.535.869-1.535 2m60.698 6.701c-1.189 1.891-1.12 7.729.117 9.861.625 1.078 1.138 1.357 1.155.629.017-.734.539-.995 1.188-.594.8.495.975.018.565-1.548-.326-1.245-.163-3.392.361-4.77.771-2.029.675-2.401-.503-1.949-.871.335-1.591-.122-1.792-1.135-.237-1.196-.558-1.341-1.091-.494m14.802 4.274-5 .711 6.592.157c3.625.086 12.85.355 20.5.598 12.738.404 13.109.369 4.408-.414-18.033-1.623-21.518-1.761-26.5-1.052M121.158 138c0 1.375.227 1.938.504 1.25.278-.687.278-1.812 0-2.5-.277-.687-.504-.125-.504 1.25m4.431-.144c-.291.47.583.643 1.941.383s2.47-.645 2.47-.856c0-.773-3.899-.356-4.411.473M56 172.759c0 .418 1.013 1.382 2.25 2.142 2.242 1.377 2.243 1.375.345-.759-2.038-2.292-2.595-2.588-2.595-1.383m16 5.793c2.475.78 4.95 1.39 5.5 1.357 1.75-.107-5.914-2.756-8-2.766-1.1-.005.025.629 2.5 1.409m15 2.759c0 .741 13.028 4.994 13.587 4.436.252-.253-2.139-1.266-5.314-2.253s-6.335-2-7.023-2.251-1.25-.221-1.25.068m22.5 6.767c3.3 1.042 6.675 1.877 7.5 1.855s-1.2-.91-4.5-1.972-6.675-1.897-7.5-1.855 1.2.929 4.5 1.972m50.372-.328c-1.243 1.586-1.208 1.621.378.378 1.666-1.307 2.195-2.128 1.372-2.128-.207 0-.995.787-1.75 1.75M127 191.49c6.452 1.689 18.995 3.557 22.822 3.4 2.298-.095-11.552-2.538-24.322-4.29-3.006-.413-2.633-.191 1.5.89m28 .599c-2.154 1.762-2.196 1.897-.306.973 1.207-.59 2.471-1.52 2.809-2.067.903-1.461.297-1.196-2.503 1.094"/><path fill-opacity=".462" fill-rule="evenodd" d="M94.462 9.062c-1.379 2.23-5.654 3.074-7.431 1.466-2.142-1.939-3.932-1.949-4.669-.028-.656 1.709-5.902 2.053-6.892.451-.929-1.502-3.47.82-3.47 3.171C72 15.589 71.26 16 68.615 16c-2.507 0-3.81.648-5.023 2.5-.901 1.375-2.521 2.5-3.601 2.5-1.182 0-3.016 1.591-4.61 4-1.456 2.2-3.276 4-4.046 4-1.488 0-3.429 3.944-2.617 5.317.265.449-.332.674-1.328.5-1.372-.24-2.726 1.502-5.582 7.183-2.074 4.125-3.779 8.288-3.789 9.25S37.516 53 36.924 53c-.635 0-.96 1.618-.792 3.941.196 2.724-.282 4.567-1.549 5.967-1.049 1.159-1.613 2.869-1.319 3.995.319 1.22-.077 2.195-1.042 2.565-1.186.455-1.279.875-.389 1.765 1.482 1.482 1.522 4.767.059 4.767-1.055 0-.991.594.721 6.765.501 1.806.3 2.139-.992 1.643-1.551-.595-2.032.511-1.89 4.342.026.688-.648 1.25-1.497 1.25-1.303 0-1.262.312.266 2 1.767 1.952 1.747 2-.845 2-3.037 0-3.477 1.422-.905 2.92 1.563.91 1.509 1.022-.5 1.05-2.48.033-3.095 2.785-1.074 4.806.902.902.753 1.645-.638 3.182-1.763 1.948-1.747 2.031.574 2.96 1.313.525 1.806.984 1.094 1.019-.711.034-1.161.851-1 1.813.222 1.319-.279 1.67-2.032 1.424-2.038-.285-2.194-.081-1.265 1.656.583 1.089 2.304 2.909 3.826 4.044 1.521 1.134 2.203 2.077 1.515 2.094-1.794.046-1.55 2.032.25 2.032.825 0 1.5.884 1.5 1.965s.9 2.446 2 3.035 2 1.73 2 2.535.5 1.465 1.111 1.465c.733 0 .883 1.216.443 3.566-.626 3.333-.539 3.496 1.323 2.5 2.919-1.562 5.167-1.345 4.485.434-.317.825-.078 1.5.531 1.5s1.107.675 1.107 1.5c0 .933.944 1.5 2.5 1.5 1.375 0 2.5.502 2.5 1.117 0 .614.861.891 1.914.616 1.314-.344 2.074.113 2.426 1.457.281 1.077 1.445 2.203 2.586 2.501S56 149.808 56 150.51s.709 1.548 1.575 1.88c1.373.527 1.309.942-.5 3.242-1.141 1.451-2.075 3.78-2.075 5.177v2.54l2.553-2.398c2.152-2.023 2.698-2.168 3.484-.925.513.811.939 1.812.948 2.224.03 1.464 2.015.725 2.015-.75 0-.825.45-1.5 1-1.5s1 .675 1 1.5.436 1.5.969 1.5.709.675.393 1.5c-.785 2.044.636 1.849 3.638-.5 3.385-2.647 5.449-2.49 7.452.567 1.251 1.91 2.008 2.296 2.957 1.509.701-.582 1.56-.773 1.909-.425.348.349 1.281.097 2.073-.56 1.131-.94 2.774-.756 7.689.857 3.438 1.129 6.928 2.052 7.756 2.052s2.317.733 3.307 1.629 3.5 1.981 5.578 2.41 7.379 1.509 11.779 2.399c10.81 2.187 14.264 3.55 14.87 5.867.358 1.369 1.029 1.756 2.24 1.291.952-.365 2.043-.157 2.426.462.506.818 1.273.766 2.805-.191 1.664-1.039 2.367-1.059 3.334-.092 1.575 1.575 4.54 1.58 5.064.009.49-1.471 7.575-1.183 9.463.383 2.379 1.975 1.471-2.545-1.251-6.223l-2.55-3.444 3.05-.895c1.677-.492 3.049-1.479 3.049-2.193s.949-1.963 2.108-2.775c2.235-1.566 1.805-3.637-.755-3.637-1.23 0-1.397-.783-.853-4 .727-4.302.132-4.882-2.534-2.469-.931.842-2.721 1.729-3.978 1.971s-3.162 1.381-4.232 2.53c-1.864 2-2.004 2.012-3.28.279-1.282-1.741-1.361-1.738-2.065.079-.708 1.827-.777 1.829-2.072.059-.736-1.007-1.339-1.348-1.339-.757 0 2.046-3.892 2.223-4.532.206-.477-1.501-.991-1.688-2.469-.897-2.739 1.465-3.428 1.222-1.871-.661 1.258-1.522.938-1.602-3.878-.965l-5.25.694v-3.235c0-2.515-.267-2.967-1.2-2.034-1.264 1.264-5.8 1.677-5.8.529 0-.369.719-1.466 1.597-2.437 1.496-1.652 1.351-1.809-2.25-2.457-5.936-1.067-7.101-1.961-4.424-3.394 2.143-1.146 2.165-1.286.505-3.121-.956-1.056-2.369-1.92-3.14-1.92-1.155 0-1.128-.39.155-2.223 1.953-2.787 1.968-3.777.057-3.777-.825 0-1.5-.45-1.5-1s.643-1 1.429-1c1.538 0 4.571-2.624 4.571-3.955 0-.446-.987-1.07-2.194-1.385-2.095-.548-2.116-.66-.46-2.49s1.633-1.948-.556-2.649c-2.511-.804-2.852-.625 3.969-2.081 2.168-.463 2.193-.583.624-2.978-1.54-2.351-1.531-2.456.155-1.809 1.076.413 1.547.293 1.18-.3-.335-.542.745-1.786 2.399-2.763 2.819-1.665 2.894-1.862 1.196-3.116-2.29-1.692-.635-3.724 3.034-3.724 2.249 0 2.392-.23 1.437-2.324-.816-1.792-2.001-2.393-5.171-2.625-4.078-.298-4.111-.332-3.828-3.985.275-3.553.171-3.681-2.914-3.593-2.227.063-3.779-.626-5.108-2.267-1.886-2.33-1.884-2.367.164-3.125 1.355-.501 2.073-1.65 2.073-3.318 0-2.235-.316-2.472-2.551-1.911-3.737.938-5.887-2.164-3.297-4.754 2.642-2.642 2.422-5.844-.402-5.863-2.243-.014-2.242-.018.171-1.25 3.235-1.65 3.67-3.413 1.047-4.245l-2.142-.68 2.087-1.462c2.752-1.927 2.634-2.994-.413-3.759-2.607-.654-3.525-3.589-1.122-3.589.757 0 1.898-.627 2.534-1.394.893-1.076.792-1.759-.441-2.992C106.57 50.713 107.34 49 110.094 49c1.644 0 1.802-.325.941-1.934-1.787-3.339-1.276-4.278 1.943-3.571 3.286.722 7.022-.109 7.022-1.562 0-.513-.338-.88-.75-.815-1.833.29-3.25-.198-3.25-1.118 0-1.309 4.597-1.286 7.066.035 1.655.886 1.934.699 1.934-1.3 0-1.284-.54-2.875-1.2-3.535-.933-.933-.848-1.2.385-1.2.872 0 2.322 1.125 3.223 2.5 1.726 2.634 3.792 3.368 3.517 1.25-.443-3.415.123-4.669 1.825-4.042.963.356 2.058 1.107 2.434 1.671s2.598 1.074 4.936 1.132c2.339.059 4.431.643 4.65 1.298.653 1.96 2.23 1.346 2.23-.868 0-1.132.45-1.781 1-1.441s1 1.459 1 2.486c0 2.237 4.503 6.014 7.17 6.014 1.617 0 1.734-.312.784-2.086-1.633-3.052-.325-3.582 1.988-.806l1.991 2.392.097-2.5.097-2.5 1.015 2.5 1.016 2.5 1.245-3c.685-1.65 1.549-2.888 1.921-2.75.941.348 1.005-.355.337-3.694-.352-1.763-1.413-3.16-2.711-3.572-1.481-.47-1.981-1.259-1.635-2.582.293-1.12.085-1.65-.504-1.285-.798.493-4.265-.701-6.704-2.31-.215-.142.177-.945.873-1.783 1.097-1.322.739-1.524-2.697-1.524-3.256 0-4.165-.446-5.101-2.5-.911-2-1.867-2.5-4.777-2.5-3.007 0-3.557-.311-3.169-1.794.564-2.157-3.233-2.813-6.418-1.108-1.335.714-2.371.749-3.018.102-.542-.542-2.769-.746-4.95-.453-3.483.467-4.035.261-4.548-1.7-.499-1.909-1.034-2.136-3.693-1.565-5.112 1.098-8.768.879-9.67-.58-.696-1.127-1.436-1.153-4.102-.146-2.151.811-3.59.891-4.245.236-1.308-1.308-4.304-1.268-5.13.07M53 42.393c0 .216.698.661 1.552.989.89.341 1.291.173.941-.393-.587-.951-2.493-1.406-2.493-.596m33.733 16.731c.679.684 1.486.991 1.793.683.308-.308-.247-.867-1.233-1.243-1.425-.542-1.54-.428-.56.56m51.767-.411c-1.1.265-2.412.872-2.915 1.349s.805.393 2.907-.187c3.632-1.003 5.805-.893 11.508.586 1.602.416 1.292.09-.865-.906-3.305-1.528-6.675-1.794-10.635-.842m-8.401 4.537c-1.377 2.242-1.375 2.243.759.345 2.292-2.038 2.588-2.595 1.383-2.595-.418 0-1.382 1.013-2.142 2.25m23.901.691c0 .518.445 1.216.989 1.552.566.35.734-.051.393-.941-.665-1.732-1.382-2.049-1.382-.611m-16 7.636-2.5 1.506 2.5-.785c4.47-1.405 9.498-.791 12.803 1.562 1.758 1.252 3.194 1.908 3.189 1.458-.013-1.464-7.814-5.319-10.69-5.283-1.541.02-3.927.714-5.302 1.542m25.924 1.173L161.5 75.5l2.75-2.424c2.57-2.266 3.209-3.076 2.424-3.076-.179 0-1.416 1.237-2.75 2.75m-118.052 3c-1.243 1.586-1.208 1.621.378.378C47.916 74.821 48.445 74 47.622 74c-.207 0-.995.787-1.75 1.75M87 74.393c0 .216.698.661 1.552.989.89.341 1.291.173.941-.393-.587-.951-2.493-1.406-2.493-.596m44.964 1.771c-1.145 2.233-1.118 2.26.61.61.994-.95 1.533-2.001 1.197-2.336s-1.148.442-1.807 1.726m31.115 4.419c.048 1.165.285 1.402.604.605.289-.722.253-1.585-.079-1.917s-.568.258-.525 1.312M132.75 83.08c-1.202.7-1.75 2.264-1.75 4.994 0 3.347.405 4.13 2.565 4.951 4.208 1.599 6.435-.288 6.435-5.453 0-5.336-2.811-7.077-7.25-4.492m32.75 1.279c-.85 1.298-1.268 3.21-.928 4.25.508 1.557.426 1.626-.462.391-.594-.825-1.148-2.625-1.231-4-.137-2.263-.192-2.293-.576-.318-1.272 6.54 9.858 15.623 12.68 10.35.868-1.622.784-1.88-.454-1.405-.835.321-1.257 1.003-.939 1.518 1.058 1.712-5.035-.333-7.09-2.38-1.999-1.992-1.999-1.992.271-.832 2.717 1.388 4.026.732 5.317-2.665.719-1.89.569-3.142-.584-4.903-1.97-3.005-4.037-3.007-6.004-.006M132.5 87c-.34.55-.141 1 .441 1S134 87.55 134 87s-.198-1-.441-1-.719.45-1.059 1m1.996 8.843c1.09 1.288 2.887 2.806 3.993 3.372 2.124 1.088 1.814.752-2.982-3.23-2.887-2.397-2.923-2.402-1.011-.142m-84.219 1.824c.342 1.789-.002 2.333-1.475 2.333-1.056 0-1.661.419-1.345.931s.092 1.23-.499 1.595c-.624.386-.807 1.884-.437 3.572.532 2.42.248 3.066-1.691 3.854l-2.33.946 2.25.668c2.471.733 2.892 1.919 1.079 3.04-.762.47-.325 1.038 1.25 1.624 2.186.813 2.251.995.671 1.885-2.747 1.545-2.108 2.971.831 1.854 2.503-.951 2.56-.886 1.89 2.161-.658 2.998-.57 3.112 1.92 2.487 2.213-.556 2.609-.325 2.609 1.519 0 2.043.11 2.074 1.829.519 2.6-2.353 3.299-2.059 2.599 1.095l-.611 2.75 2.085-3c2.59-3.727 2.645-4.876.202-4.238-1.662.435-1.794.143-1.07-2.38.743-2.593.643-2.779-1.017-1.891-1.014.542-2.111 1.554-2.439 2.248-.328.693-.395-.426-.15-2.489.267-2.243.023-3.75-.608-3.75-.593 0-.807-.983-.488-2.25l.564-2.25-1.858 2.25c-1.022 1.237-2.124 2.25-2.448 2.25-1.289 0-.477-3.35 1.478-6.096 1.138-1.597 1.572-2.904.965-2.904-1.387 0 .606-3.993 2.801-5.612 2.759-2.034 2.224-4.05-.95-3.584-1.586.233-2.884-.003-2.884-.524s-.713-.947-1.585-.947c-1.121 0-1.454.683-1.138 2.334M167.5 98c.995 1.1 2.035 2 2.31 2s-.315-.9-1.31-2-2.035-2-2.31-2 .315.9 1.31 2m-18.941.532c-1.068.807-1.46 1.468-.873 1.468.588 0 1.629-.675 2.314-1.5 1.557-1.876 1.067-1.866-1.441.032m4.108.135c-.367.366-.667 1.131-.667 1.7 0 .626.466.567 1.183-.15.651-.651.951-1.416.667-1.7s-.817-.217-1.183.15m-117.103 2.626c.376.986.935 1.541 1.243 1.233s.001-1.114-.683-1.793c-.988-.98-1.102-.865-.56.56m106.705-.6c.973.254 2.323.237 3-.037s-.119-.481-1.769-.461-2.204.244-1.231.498M145 102l-4.5.7 4.191.15c2.305.082 4.469-.3 4.809-.85s.479-.932.309-.85-2.334.465-4.809.85m26 .711c0 .574.787 1.662 1.75 2.417 1.619 1.269 1.64 1.222.283-.628-.807-1.1-1.594-2.187-1.75-2.417s-.283.054-.283.628m-134.541 4.356c-.363.586-.445 1.281-.183 1.543s.743-.218 1.069-1.067c.676-1.762.1-2.072-.886-.476m131.864 10.511c-3.762 1.896-4.592 3.585-3.357 6.832 1.163 3.059 7.069 7.59 9.893 7.59 1.194 0 3.807-1.499 5.806-3.332 3.049-2.794 3.526-3.77 2.956-6.043-.374-1.491-1.455-2.996-2.401-3.345s-1.946-.963-2.222-1.365c-1.164-1.695-7.581-1.897-10.675-.337m-41.26 5.472c.06 3.242.122 3.304 1.031 1.03.64-1.602.619-2.767-.064-3.45-.707-.707-1.01.052-.967 2.42m7.922 1.465c-1.857 1.917-3.08 3.485-2.716 3.485.978 0 7.004-6.06 6.514-6.55-.231-.231-1.94 1.148-3.798 3.065m-14.318 8.152c-.914.914-.845 8.106.083 8.674.412.253.753-1.746.757-4.441s-.033-4.9-.083-4.9-.391.3-.757.667m2 2c-.908.907-.846 5.105.083 5.675.412.252.784-1.071.825-2.941.081-3.692.073-3.716-.908-2.734m15.109 2.066c2.352.212 5.952.209 8-.006s.124-.388-4.276-.384c-4.4.003-6.076.179-3.724.39m19.474.983c1.512.229 3.988.229 5.5 0s.275-.416-2.75-.416-4.262.187-2.75.416m10.019 6.977c.973.254 2.323.237 3-.037s-.119-.481-1.769-.461-2.204.244-1.231.498m-39.456 46.99c.721.289 1.584.253 1.916-.079s-.258-.568-1.312-.525c-1.165.048-1.402.285-.604.604m5 1c.721.289 1.584.253 1.916-.079s-.258-.568-1.312-.525c-1.165.048-1.402.285-.604.604m4.937.979c.688.278 1.813.278 2.5 0 .688-.277.125-.504-1.25-.504s-1.937.227-1.25.504"/><path fill-opacity=".219" fill-rule="evenodd" d="M107 11.059c0 .582.45.781 1 .441s1-.816 1-1.059-.45-.441-1-.441-1 .477-1 1.059m-34.057 1.509c-.613.739-.85 1.774-.525 2.3s-1.217 1.26-3.427 1.633c-2.429.411-4.421 1.434-5.039 2.589-.562 1.051-2.055 1.91-3.318 1.91-1.494 0-2.792.961-3.715 2.75-1.784 3.458-2.87 4.618-5.777 6.174-1.813.97-2.181 1.785-1.691 3.738.541 2.152.353 2.411-1.356 1.868-2.198-.698-5.086 2.704-5.358 6.31-.084 1.112-.451 1.837-.816 1.611-.366-.226-1.457 1.718-2.424 4.319-.968 2.602-2.151 5.157-2.628 5.68-1.257 1.374-1.068 5.55.25 5.55.615 0-.06 1.545-1.5 3.433-2.912 3.817-3.222 5.156-1.369 5.908.95.385.901.749-.202 1.517-.799.555-1.845.768-2.324.471-.479-.296-.28.409.443 1.566 1.041 1.668 1.062 2.509.099 4.051-.969 1.552-.925 2.614.22 5.25.79 1.817 1.453 2.733 1.475 2.035.026-.85.864-1.062 2.539-.642 2.783.699 3.013.237 1.391-2.792-1.008-1.884-.875-2.027 1.465-1.58 1.416.271 2.779-.005 3.03-.612.251-.608.498-.43.55.395.056.892.604.487 1.354-1 .693-1.375 2.203-2.636 3.356-2.803 1.762-.254 2.018.108 1.606 2.265-.393 2.057-.169 2.443 1.129 1.945 1.176-.451 1.619-.045 1.619 1.486 0 1.44.633 2.107 2 2.107 1.1 0 2 .115 2 .257 0 .141-.398 1.643-.884 3.339-.837 2.917-.751 3.057 1.609 2.606 2.253-.431 2.386-.278 1.387 1.588-.894 1.671-.798 2.126.502 2.387 1.357.273 1.276.621-.522 2.245-2.117 1.911-2.128 1.908-1.861-.5.199-1.789-.169-2.35-1.406-2.145-.921.152-2.271-.523-3-1.5-.729-.978-1.996-1.926-2.816-2.107-1.907-.423-3.057-2.273-2.251-3.622.344-.577-.156-.413-1.112.362-.955.776-1.506 2.013-1.223 2.75S44.329 89 43.585 89c-.743 0-1.587.899-1.874 1.997s-1.577 2.42-2.867 2.937c-1.289.517-1.781.968-1.094 1.003C40.153 95.058 38.977 97 36.5 97Q34 97 34 98.667c0 .916.297 1.369.66 1.006 1.109-1.108 3.085 2.669 2.787 5.327a102 102 0 0 0-.364 3.857c-.048.783-.718 1.113-1.583.781-.825-.316-1.5-.17-1.5.326s.925 1.195 2.055 1.553c2.468.784 2.05 2.89-.638 3.215-1.054.128-1.354-.022-.667-.333s1.25-1.048 1.25-1.637c0-.59-.87-.285-1.933.677-1.85 1.674-1.817 5.143.038 3.996.492-.304.895-.103.895.447s-.45 1.278-1 1.618c-1.654 1.022-1.216 6.5.519 6.5 1.123 0 1.355.655.889 2.511-.51 2.033-.323 2.394.981 1.893C37.571 129.95 38 130.375 38 132c0 1.51.455 2.039 1.431 1.665 1.062-.408 1.409.249 1.344 2.542-.051 1.795.6 3.594 1.553 4.291.903.66 1.31 1.549.906 1.975-.403.427.225.481 1.398.121 1.434-.44 2.321-.159 2.712.859.344.898 1.23 1.264 2.178.9 1.085-.416 1.776.07 2.154 1.517.5 1.912.974 2.253 2.89 2.078.816-.074 4.434 4.689 4.434 5.837 0 .534-.625 1.489-1.389 2.123s-1.605 2.28-1.868 3.658c-.44 2.301-.341 2.38 1.218.97 2.177-1.971 2.995-1.934 4.742.214 1.035 1.273 1.564 1.41 1.943.5.812-1.949 3.404-1.545 2.653.414-.454 1.183-.27 1.436.638.875.949-.586 1.102-.236.595 1.361l-.683 2.151 3.606-2.026c4.862-2.731 6.984-2.552 8.472.715 1.205 2.644 1.298 2.672 2.661.809.777-1.062 1.412-1.379 1.412-.705 0 .942.495.962 2.133.085 1.699-.909 3.663-.687 9.66 1.093 4.141 1.229 8.919 3.032 10.618 4.006s7.364 2.525 12.589 3.447 10.993 2.324 12.819 3.117c1.825.793 3.737 1.182 4.25.866.512-.317.931.299.931 1.369 0 1.425.87 2.082 3.25 2.452 1.787.279 3.654.128 4.149-.335.494-.463 2.267-.134 3.94.731 2.897 1.499 3.128 1.467 4.857-.669 1.274-1.572 2.187-1.95 3.06-1.264.684.537 2.754 1.263 4.599 1.613 2.792.53 3.254.372 2.75-.941-.333-.868-.605-1.754-.605-1.97 0-1.039-6.251-3.444-8.95-3.444-1.678 0-3.05-.5-3.05-1.111s-.885-.048-1.967 1.25c-1.198 1.439-1.979 1.828-2 .998-.023-.942-.961-1.228-3.033-.924-2.486.365-3.02.085-3.118-1.636-.083-1.451-.336-1.172-.838.923l-.72 3-.785-2.81c-.464-1.659-1.302-2.611-2.048-2.325-.694.266-2.326-.269-3.626-1.19-1.772-1.255-4.201-1.625-9.689-1.474-7.149.197-7.365.131-9-2.743-1.202-2.112-2.438-2.947-4.367-2.952-1.48-.003-2.994-.496-3.365-1.096-.411-.665-2.03-.835-4.159-.436-3.849.722-6.807-1.123-8.375-5.224-.619-1.619-1.675-2.25-3.763-2.25-3.273 0-4.68-1.292-5.661-5.198-.43-1.715-1.454-2.799-2.83-2.995-2.283-.325-2.604-2.044-1.322-7.057.426-1.661.301-2.75-.315-2.75-.56 0-1.019.713-1.019 1.583 0 2.724-2.483.911-2.832-2.068-.517-4.412.662-8.985 3.328-12.914 1.85-2.727 2.087-3.601.974-3.601-1.607 0-1.752-.621-1.484-6.344.167-3.551.011-3.79-2.048-3.136-1.818.577-2.014.456-1.064-.656 4.468-5.23 5.984-7.34 5.569-7.754-.262-.262-.974.021-1.582.629-1.838 1.838-5.718-.493-5.153-3.094.323-1.489.185-1.752-.451-.861-1.47 2.058-4.421.352-3.721-2.152.46-1.647.365-1.797-.416-.661-1.624 2.362-2.632.225-1.416-2.999 1.136-3.009.758-6.51-.938-8.682-.663-.85.013-1.793 2.268-3.165 3.332-2.026 6.948-6.662 6.959-8.923.004-.714-1.111-2.333-2.477-3.599s-2.191-2.595-1.833-2.953-.212-.665-1.266-.683c-1.744-.031-1.704-.211.444-2C72.159 61.885 73.751 61 74.398 61c1.896 0 1.649-3.953-.372-5.974-1.023-1.023-2.146-1.572-2.497-1.222s-1.056-.024-1.568-.833c-1.175-1.857-1.243-5.971-.1-5.971.474 0 .647 1.125.384 2.5-.554 2.897 1.672 3.534 2.415.691.26-.995 1.681-2.558 3.157-3.473l2.683-1.665-2.95-.026c-2.294-.021-2.683-.294-1.75-1.227 1.451-1.451 1.601-5.8.2-5.8-1.841 0-1.025-2.857 1-3.5 1.1-.349 2-1.081 2-1.626 0-.546-.359-.77-.798-.499s-1.305.18-1.925-.204c-.834-.515-.823-1.669.043-4.434 1.148-3.668 2.583-4.952 2.78-2.487.055.688.401.174.769-1.141s1.764-3.115 3.101-4c2.27-1.503 2.387-1.494 1.762.141-.368.963-.233 1.75.299 1.75.533 0 .969-1.377.969-3.059 0-2.081-.374-2.828-1.17-2.336q-1.172.726-.544-.909c.732-1.908-.281-2.68-4.874-3.716-2.358-.532-3.684-.357-4.469.588M98 18c0 .55.45 1 1 1s1-.45 1-1-.45-1-1-1-1 .45-1 1m19.711 1.997c-.287 1.099-1.577 2.42-2.867 2.937-1.614.647-1.821.959-.665 1.003 2.028.076 4.821-2.535 4.821-4.508 0-2.058-.681-1.757-1.289.568m9.371-.15c-1.176 2.197-1.109 2.299 1.082 1.635 1.285-.389 2.786-1.172 3.336-1.742.68-.704.461-.846-.685-.443-.927.325-1.864.055-2.083-.601-.223-.67-.945-.166-1.65 1.151M144 19.583c-1.558.865-1.912 1.393-.941 1.402.857.008 2.432-.646 3.5-1.453 2.427-1.836.783-1.803-2.559.051M112 20c-1.828 1.181-.249 1.181 2.5 0 1.319-.567 1.489-.878.5-.914-.825-.031-2.175.381-3 .914m21.487 1.217c-.543 1.22-2.112 2.525-3.487 2.901-1.994.544-2.095.7-.5.767 1.1.046 2.495-.246 3.1-.65 1.503-1.004 3.663-5.235 2.672-5.235-.439 0-1.242.998-1.785 2.217M116.48 27.33c.84 1.281 1.202 2.655.804 3.053-.398.397.088.411 1.08.031.992-.381 1.396-.967.897-1.303s-1.197-1.399-1.553-2.361-1.12-1.75-1.7-1.75c-.604 0-.402.995.472 2.33m33.27-1.668c.688.278 1.813.278 2.5 0 .688-.277.125-.504-1.25-.504s-1.937.227-1.25.504M141 26.868c-1.375.348-2.624 1.228-2.775 1.957-.338 1.629 3.538.661 5.739-1.432 1.544-1.469 1.091-1.549-2.964-.525M104 29c1.333.862 1.333.973 0 1-1.299.027-1.305.154-.048.949.799.506 1.924.69 2.5.411.577-.28.174.2-.893 1.066-1.568 1.271-1.64 1.574-.373 1.574 2.185 0 3.972-2.424 3.224-4.373-.361-.941-1.738-1.621-3.267-1.612-2.074.012-2.32.224-1.143.985m9 .5c0 .825.73 1.5 1.622 1.5 1.329 0 1.398-.271.378-1.5-.685-.825-1.415-1.5-1.622-1.5s-.378.675-.378 1.5m34.087-.575c-.95.601-.08.843 2.647.735 2.233-.088 3.855-.497 3.604-.91-.625-1.027-4.525-.918-6.251.175m-54.068 1.519-2.48 1.373 2.73-.158c1.501-.088 2.73-.721 2.73-1.409.001-1.505.102-1.512-2.98.194m36.452.165c.745 2.737-.358 5.573-1.826 4.693-.63-.377-.47.146.355 1.162 1.456 1.793 1.51 1.791 1.847-.058.551-3.027 1.762-3.685 4.296-2.335 2.147 1.145 2.235 1.108.985-.407-.755-.915-1.831-1.664-2.39-1.664s-1.653-.788-2.43-1.75c-1.311-1.626-1.371-1.6-.837.359m25.195-.181c-.301.785-1.812 1.618-3.357 1.85l-2.809.422 3.05.15c2.887.142 5.45-1.292 5.45-3.05 0-1.355-1.754-.884-2.334.628m-14.614 1.936c-.494 1.3-1.673 2.66-2.619 3.023-.945.363-1.441.939-1.1 1.279s1.254.092 2.031-.553c1.08-.897 2.026-.893 4.024.018 1.437.654 2.612 1.594 2.612 2.089s.396.653.881.354c1.258-.778 2.016-5.519.985-6.157-.476-.294-.866.574-.866 1.93 0 2.275-.195 2.376-2.53 1.309-1.937-.885-2.401-1.683-1.981-3.406.725-2.972-.295-2.891-1.437.114m19.698-1.607c-.963.214-1.75.807-1.75 1.316 0 1.172 1.084 1.159 2.971-.034 1.796-1.136 1.154-1.81-1.221-1.282m-95.341 3.749c-.863 3.439-.171 3.947 1.257.922.63-1.335.751-2.67.269-2.968s-1.169.623-1.526 2.046m27.679-1.581c-1.085.686-.854.972 1 1.234l2.412.341-2.25 2.25C92.013 37.987 91.38 39 91.845 39c1.64 0 4.39-3.945 3.808-5.463-.671-1.747-1.538-1.896-3.565-.612m7.645.199c.679.684 1.486.991 1.793.683.308-.308-.247-.867-1.233-1.243-1.425-.542-1.54-.428-.56.56m22.309.876c.035 1.794 2.872 7 2.923 5.364.019-.624-.637-2.424-1.459-4-.821-1.575-1.481-2.189-1.464-1.364m-8.464 2.172c-.844 1.928.915 5.781 2.707 5.928.668.055.09.46-1.285.9l-2.5.801 2.583.099c3.571.138 4.299-.944 1.809-2.688-1.66-1.163-1.815-1.646-.744-2.325.885-.561.946-.862.175-.872-.647-.008-1.365-.803-1.595-1.765-.385-1.61-.477-1.616-1.15-.078m42.005 2.078c-.588 2.905-.415 5.75.351 5.75.33 0 .647-1.8.705-4 .116-4.428-.356-5.21-1.056-1.75M158 36.893c0 .491.712 1.166 1.582 1.5 2.446.939 2.769.735 1.418-.893-1.38-1.662-3-1.99-3-.607M163 38c0 .55.423 1 .941 1s1.219-.45 1.559-1-.084-1-.941-1-1.559.45-1.559 1m-14 .671c0 1.277 3.838 4.824 4.502 4.16.27-.269-.633-1.545-2.006-2.835-1.373-1.289-2.496-1.886-2.496-1.325M159 41c.589 1.1 1.295 2 1.57 2s.019-.9-.57-2-1.295-2-1.57-2-.019.9.57 2m-55 .12c0 1.057 4.263 2.169 6.589 1.719.985-.191-.071-.824-2.421-1.45-2.292-.611-4.168-.732-4.168-.269m58-.12c0 .55.477 1 1.059 1s.781-.45.441-1-.816-1-1.059-1-.441.45-.441 1M53.441 42.532c1.068.807 2.391 1.468 2.941 1.468s.127-.661-.941-1.468c-1.067-.808-2.391-1.468-2.941-1.468s-.126.66.941 1.468M94 42.1c0 .414.787.943 1.75 1.174 1.442.347 1.31.613-.75 1.51l-2.5 1.089 3 .18c1.65.098 2.312.366 1.471.594s-2.112 1.35-2.826 2.492c-.714 1.143-.926 1.903-.471 1.688 5.328-2.521 6.032-3.191 6.107-5.816.067-2.361-.384-2.873-2.851-3.235-1.611-.236-2.93-.091-2.93.324M79.5 44c-.385.623-.429 1.404-.098 1.735.856.856-2.434 4.265-4.116 4.265-.772 0-1.112.472-.756 1.049.445.72 1.075.693 2.015-.087.752-.624 1.848-.837 2.436-.474s.984.29.88-.164.164-2.082.595-3.621c.826-2.946.232-4.626-.956-2.703m29.824 1.75c.357 1.645.03 2.25-1.218 2.25-3.258 0-4.176 2.115-1.795 4.138 2.155 1.832 2.159 1.884.248 3.361-2.36 1.825-.66 2.027 1.816.216 1.66-1.214 1.643-1.389-.309-3.155-2.77-2.507-2.603-3.373.723-3.747 2.657-.298 2.724-.432 1.417-2.813-1.273-2.32-1.336-2.338-.882-.25m-48.666 1.699q-.56 1.452.893.893c.797-.306 1.449-.958 1.449-1.449 0-1.438-1.735-1.026-2.342.556M87 55.059c0 .582.419.8.931.484a1.103 1.103 0 0 1 1.512.365c.32.517-.212 1.147-1.181 1.4-1.556.406-1.537.474.159.576 1.057.064 2.772.886 3.811 1.826 1.631 1.476 2.017 1.51 2.814.25.508-.803.93-2.112.939-2.91.012-1.128-.252-1.183-1.185-.25-.66.66-1.635 1.2-2.167 1.2s-.673-.293-.315-.651c.776-.776-2.285-3.272-4.068-3.317-.687-.018-1.25.445-1.25 1.027m15.638.441c.317.825.753 1.5.969 1.5s.393-.675.393-1.5-.436-1.5-.969-1.5-.709.675-.393 1.5m-33.631 4.494C67.324 61.454 67.111 62 68.225 62c1.629 0 4.387-2.721 3.578-3.531-.265-.265-1.523.421-2.796 1.525m9.072.224c-.055 1.89-.916 3.172-2.829 4.21-1.513.821-2.139 1.51-1.393 1.532.81.024 1.117.666.761 1.592-.362.944-.181 1.296.462.899.581-.359.815-1.283.52-2.052-.308-.802.081-1.399.912-1.399 1.571 0 3.005-4.112 2.165-6.207-.286-.711-.555-.07-.598 1.425m-30.312-.051c.864.864 1.763.881 3.45.068 2.144-1.033 2.073-1.104-1.167-1.167-2.63-.052-3.172.21-2.283 1.099M104 60c0 .55.477 1 1.059 1s.781-.45.441-1-.816-1-1.059-1-.441.45-.441 1m-46.759 2.986C55.345 66.022 55.763 66.58 58 64c2.187-2.522 2.385-3 1.241-3-.418 0-1.318.894-2 1.986m35.61.04c1.683 1.401 1.967 2.081 1 2.387-4.042 1.281-4.26 1.432-2.172 1.508 2.571.093 5.327-2.37 5.306-4.742-.011-1.152-.254-1.303-.777-.482-.502.79-1.263.88-2.234.266-2.693-1.703-3.511-.928-1.123 1.063m14.927-1.184c.926.587.567 1.135-1.297 1.985-1.416.645-3.202 1.173-3.969 1.173-2.637 0-2.319 1.5.333 1.572 1.46.039 3.555.407 4.655.819 1.465.547 1.384.377-.305-.636l-2.305-1.384 2.612-1.19c2.516-1.147 2.639-3.197.189-3.166-.852.011-.827.247.087.827M60 64.559c0 .857.45 1.281 1 .941s1-1.041 1-1.559S61.55 63 61 63s-1 .702-1 1.559M45.5 65c.34.55 1.068 1 1.618 1s.722-.45.382-1-1.068-1-1.618-1-.722.45-.382 1m41.25 5.706c1.237.238 2.306.852 2.375 1.364l.295 2.18c.185 1.356 2.503 1.171 4.03-.321.594-.581.359-.929-.628-.929-.867 0-2.137-.675-2.822-1.5s-2.202-1.439-3.372-1.364c-2.038.131-2.033.155.122.57m14.9-.023c-.376.376.892 1.412 2.817 2.302 3.343 1.546 3.43 1.716 1.959 3.816-.846 1.21-2.526 2.235-3.733 2.278q-2.193.08-.693.627c.825.302 2.48 1.44 3.679 2.528s2.773 1.743 3.5 1.452c.889-.355.76-.554-.394-.607-2.948-.136-3.844-3.288-1.69-5.947 2.564-3.167 2.514-5.46-.1-4.63-1.332.422-2.207.11-2.607-.933-.643-1.675-1.629-1.995-2.738-.886m62.274 2.067L161.5 75.5l2.75-2.424c2.57-2.266 3.209-3.076 2.424-3.076-.179 0-1.416 1.237-2.75 2.75m-99.347 1.17c-1.538 1.605-2.558 3.518-2.266 4.25.401 1.005.548.964.601-.17.039-.825 1.537-2.725 3.329-4.223s2.781-2.735 2.196-2.75-2.322 1.287-3.86 2.893M69 74.969c0 .532.675.709 1.5.393.825-.317 1.5-.753 1.5-.969S71.325 74 70.5 74s-1.5.436-1.5.969m24.5 2.1c-1.65.382-2.411.748-1.691.813s1.005.61.633 1.212-1.775.884-3.117.628c-1.728-.331-2.294-.084-1.938.844.32.834-.478 1.462-2.192 1.723q-2.697.411 1.614.561c2.651.092 4.071-.235 3.691-.85-.34-.55.239-1 1.286-1 1.758 0 6.056-3.623 5.125-4.319-.226-.169-1.761.005-3.411.388m17.307 7.794c-.482 3.282.54 4.281 1.588 1.551.334-.872.218-2.284-.26-3.137-.666-1.191-.975-.823-1.328 1.586m21.764-1.292c-.864.865-1.571 3.042-1.571 4.84 0 3.927 3.733 6.338 7.057 4.558 2.532-1.355 2.813-9.421.361-10.362-2.55-.979-4.171-.711-5.847.964m32.981.344c-.934 1.512-.312 9.115.802 9.804.525.324.653.101.284-.496-.409-.662.411-1.211 2.095-1.405 2.508-.288 2.767-.692 2.767-4.318 0-3.585-.275-4.032-2.656-4.307-1.46-.169-2.942.156-3.292.722m-75.947.915c-.492.797-1.929 1.012-4.068.611-1.82-.341-3.551-.228-3.848.253-.297.48.62.858 2.038.84 3.413-.045 4.096 2.221.911 3.021-1.497.375-2.304 1.151-2.007 1.926.274.714 1.257 1.081 2.184.815 2.219-.637 6.457-5.98 5.949-7.503-.304-.912-.578-.903-1.159.037M73 85.857c0 .548.787 1.202 1.75 1.454 1.667.435 1.667.463 0 .573-.963.064-1.75.556-1.75 1.095 0 .592.996.524 2.526-.173 1.389-.633 2.366-1.636 2.172-2.228C77.242 85.191 73 84.54 73 85.857m21.398.748c-1.044.849-1.331 1.256-.639.905 1.52-.772 5.241.282 5.241 1.484 0 .473-.787 1.065-1.75 1.317-1.39.363-1.312.481.378.573 1.17.064 2.615-.472 3.212-1.191.826-.995.414-1.703-1.729-2.969-2.543-1.502-2.997-1.513-4.713-.119m38.071-.555c-.95 1.538.351 2.53 1.635 1.246.718-.718.735-1.277.052-1.699-.56-.346-1.319-.142-1.687.453M104 87.383c0 .211 1.111.596 2.47.856 1.358.26 2.232.087 1.941-.383-.512-.829-4.411-1.246-4.411-.473m-39.541 1.684c-.363.586-.445 1.281-.183 1.543s.743-.218 1.069-1.067c.676-1.762.1-2.072-.886-.476M109 90.855c0 1.939 3.875 4.137 7.079 4.013l3.421-.131-3.234-.619c-1.778-.34-4.14-1.401-5.25-2.358-1.109-.957-2.016-1.365-2.016-.905m-56.884 3.864c-.064.675-.808.953-1.667.623-1.247-.478-1.421-.08-.891 2.032.507 2.019.287 2.626-.95 2.626-.884 0-1.537.338-1.449.75s-.106 1.425-.429 2.25-.507 2.597-.409 3.937c.134 1.819-.456 2.622-2.321 3.161l-2.5.724 2.25.706c2.473.775 2.888 1.959 1.079 3.078-.762.471-.325 1.039 1.25 1.628 2.35.877 2.364.945.494 2.325-2.532 1.866-1.529 2.755 1.717 1.521 2.5-.951 2.553-.886 2.008 2.472-.537 3.307.772 4.762 2.202 2.448 1.045-1.691 2.5-1.109 2.5 1 0 2.343 1.53 2.667 2.362.5 1.072-2.795 2.239-1.519 1.828 2-.25 2.142.022 3.5.701 3.5.61 0 1.109-1.025 1.109-2.277s.747-3.344 1.66-4.648c1.626-2.322 1.608-2.359-.884-1.883-2.377.454-2.491.3-1.731-2.35.743-2.591.646-2.747-1.116-1.804-1.061.568-1.929 1.542-1.929 2.164s-.277.854-.616.516c-.338-.339-.137-1.989.448-3.667.889-2.55.808-3.051-.492-3.051-1.18 0-1.398-.634-.899-2.621.594-2.367.508-2.47-.892-1.071-.852.852-1.556 2.144-1.564 2.871-.012.979-.259.936-.958-.169-.649-1.027-.345-2.501.982-4.75 1.291-2.188 1.524-3.27.707-3.292-.708-.018-.491-.582.518-1.349.954-.724 1.432-1.62 1.061-1.991s.311-1.364 1.515-2.208c3.189-2.233 2.809-4.164-.717-3.647-2.208.324-3.023-.019-3.384-1.423-.263-1.018-.529-1.302-.593-.631m41.749.82c1.85.804 4.1 1.468 5 1.476 1.413.014 1.432.144.143.959-.82.518-2.62.711-4 .428-1.706-.35-1.27.1 1.364 1.407 3.865 1.919 3.593 3.95-.361 2.695-1.084-.344-2.767-.162-3.741.405-1.533.892-1.409 1.034.921 1.061 3.349.037 4.432 1.569 2.08 2.938-.974.567-1.321 1.035-.771 1.039s1.965-.769 3.144-1.719c2.563-2.067 4.079-6.228 2.268-6.228-.805 0-.658-.624.433-1.829 2.237-2.471 2.086-2.976-.728-2.438-1.31.25-2.687-.037-3.059-.639s-1.887-1.076-3.367-1.055c-2.628.038-2.612.073.674 1.5M114 97.527c0 .221.9.884 2 1.473 1.531.82 2 .76 2-.252 0-.727-.9-1.39-2-1.473s-2 .03-2 .252M82 99.17c0 .491.625 1.133 1.389 1.426.853.327 1.187 1.378.864 2.719-.675 2.809 1.254 1.077 2.163-1.943.517-1.716.151-2.222-1.887-2.611-1.391-.266-2.529-.082-2.529.409m27.217 4.186c.499 2.611-.518 3.585-1.717 1.644-.34-.55-1.154-.985-1.809-.967-2.005.056 3.397 3.967 5.479 3.967 1.071 0 1.67.45 1.33 1s.069 1 .91 1c.947 0 1.308-.57.952-1.5-.317-.825-1.315-1.507-2.219-1.515-1.314-.013-1.369-.189-.275-.882 1.098-.696.922-1.313-.894-3.129l-2.262-2.262zM122 101.685c5.197.859 5.5 1.333 2.15 3.37-2.44 1.484-3.703 1.719-5.128.957-3.602-1.928-3.481-1 .212 1.628 2.041 1.452 3.472 3.027 3.179 3.5-.74 1.198-4.413 1.081-4.413-.14 0-.55-.54-1-1.2-1-.933 0-.933.267 0 1.2 1.677 1.677 1.498 3.128-.3 2.438-1.681-.645-2.119 1.862-.5 2.862.55.34 1 1.323 1 2.184 0 1.207-.688 1.428-3 .966-2.299-.46-3-.238-3 .946 0 1.963 2.688 4.718 3.43 3.516.307-.496-.114-1.16-.936-1.476-2.582-.991-1.629-2.156 1.756-2.146 3.244.01 3.505-.431 2.213-3.751-.541-1.391-.312-1.618 1.09-1.08 1.131.434 1.537.296 1.12-.38-.361-.583.495-1.815 1.903-2.737 2.151-1.409 2.354-1.921 1.279-3.217-1.062-1.28-.956-1.778.624-2.933 1.047-.766 2.54-1.392 3.319-1.392.88 0 1.186-.598.809-1.582-.334-.87-.607-1.77-.607-2s-1.687-.357-3.75-.282c-2.619.095-2.996.261-1.25.549m-16.343 9.565c.63 1.026 4.102.949 4.753-.105.291-.47-.763-.808-2.342-.75s-2.664.443-2.411.855m-23.15.739c-.365.591.114.723 1.191.33 1.72-.628 1.722-.567.052 1.34-.963 1.099-1.75 2.234-1.75 2.523 0 .288 2.258.307 5.018.042 4.337-.416 4.933-.261 4.393 1.147-.375.978-1.88 1.683-3.768 1.765-2.73.118-2.815.196-.643.591 3.723.678 6.266 3.247 4.874 4.925-1.486 1.791-3.797 1.713-4.512-.152-.333-.867-1.692-1.442-3.219-1.364-2.517.13-2.53.158-.277.585 1.301.247 2.598 1.336 2.881 2.42.318 1.217 1.071 1.759 1.966 1.416.798-.307 1.846-.557 2.33-.557 1.075 0 4.957-4.064 4.957-5.189 0-.446-1.125-.811-2.5-.811-2.529 0-3.341-1.362-1.493-2.504 1.54-.952 4.174-6.496 3.086-6.496-.527 0-1.212.8-1.522 1.777-.451 1.421-1.4 1.697-4.742 1.378-3.867-.369-4.014-.486-1.972-1.579 1.213-.649 1.892-1.494 1.508-1.878-1.045-1.045-5.159-.841-5.858.291M100 115.872c0 .452 1.013 1.311 2.25 1.908l2.25 1.085-2.417.067c-1.329.038-2.137.347-1.796.688 1.179 1.179 5.713-.651 5.713-2.306 0-.906-.271-1.376-.603-1.045-.331.332-1.681.193-3-.308s-2.397-.541-2.397-.089m67.223 2.685c-3.956 2.77-2.558 7.837 3.132 11.354 3.876 2.395 5.292 2.617 5.359.839.026-.687.341-1.951.7-2.808.614-1.466-2.648-6.467-3.755-5.758-.271.174-.808 0-1.194-.385-.72-.72 1.746-1.465 7.035-2.125 2.254-.281 1.881-.436-1.5-.624-3.835-.212-4.131-.368-2-1.05 2.169-.694 1.966-.814-1.527-.9-2.216-.055-5.028.601-6.25 1.457m-139.89 1.848c0 .772.598 1.175 1.328.895s1.079-.912.774-1.405c-.846-1.369-2.102-1.065-2.102.51m7.396 1.199c-.401.401-.729 1.419-.729 2.263 0 1.125.296 1.237 1.112.42.612-.611.941-1.63.73-2.262s-.712-.822-1.113-.421m147.683.146c.668 1.183-.42 1.666-3.046 1.351-.624-.074-1.331 1.207-1.572 2.848-.376 2.561-.144 2.94 1.634 2.674 1.14-.17 2.74-1.489 3.557-2.931 1.263-2.228 1.279-2.814.104-3.907-1.044-.97-1.21-.979-.677-.035m-73.63 1.832c1.289 2.421 4.225 5.069 4.203 3.79-.021-1.179-1.105-2.574-3.399-4.372-1.789-1.403-1.841-1.365-.804.582M30 125c0 .55.477 1 1.059 1s.781-.45.441-1-.816-1-1.059-1-.441.45-.441 1m58.438 4.101c-.405.654-1.949.848-3.809.477-3.039-.605-3.067-.58-.954.903 1.632 1.146 2.816 1.283 4.75.548 1.416-.539 2.575-1.441 2.575-2.004 0-1.362-1.705-1.311-2.562.076m26.526 1.063c-1.145 2.233-1.118 2.26.61.61.994-.95 1.533-2.001 1.197-2.336s-1.148.442-1.807 1.726m-7.934-.06c-.016.882 1.095 2.818 2.47 4.301s2.5 2.885 2.5 3.115c0 .229-1.237 1.087-2.75 1.908-1.622.88-2.11 1.508-1.189 1.532.859.022 2.579-.908 3.822-2.066l2.26-2.105-2.243-1.571c-2.15-1.507-2.163-1.603-.321-2.324 1.774-.696 1.752-.759-.279-.824-1.21-.038-2.659-.857-3.22-1.82-.878-1.507-1.023-1.527-1.05-.146m-19.523 5.885c-.353.571.059.731.978.378.874-.335 2.36.062 3.302.883 3.489 3.041 6.393 4.073 7.325 2.603 1.449-2.286.996-2.918-1.619-2.262-1.563.393-3.433.023-4.965-.981-2.83-1.854-4.158-2.018-5.021-.621m51.306.694c.721.289 1.584.253 1.916-.079s-.258-.568-1.312-.525c-1.165.048-1.402.285-.604.604m-37.655 5.053c-1.875 1.305-2.72 1.394-4.236.447-1.042-.651-2.463-1.175-3.158-1.166s.206.958 2.003 2.109c2.64 1.69 3.55 1.855 4.75.86.815-.677 1.483-.796 1.483-.263 0 1.352-3.07 3.984-6.021 5.161-2.332.93-2.35.993-.306 1.053 2.662.077 8.327-5.375 8.327-8.014 0-2.265.129-2.256-2.842-.187m11.636.832c1.232.863 1.98 1.988 1.664 2.5-.317.513-.099.932.483.932 1.801 0 1.167-2.872-.875-3.965-2.956-1.582-3.792-1.232-1.272.533m53.956 2.094c.688.278 1.813.278 2.5 0 .688-.277.125-.504-1.25-.504s-1.937.227-1.25.504m-55.102 3.812c-.464 1.21.184 1.502 3.133 1.41 2.159-.067 2.88-.322 1.719-.608-1.1-.27-2.51-.904-3.133-1.409-.736-.596-1.339-.383-1.719.607m6.574 5.095c-1.803 1.887-2.877 3.431-2.387 3.431 1.144 0 6.165-4.998 6.165-6.136 0-1.212-.113-1.131-3.778 2.705m-19.953 1.124c.973.254 2.323.237 3-.037s-.119-.481-1.769-.461-2.204.244-1.231.498m7.231.307c-2.584.658-2.674.78-.643.882 1.789.089 2.21.54 1.748 1.868-.508 1.459-.36 1.427.893-.191 1.274-1.647 2.068-3.827 1.252-3.441-.138.065-1.6.462-3.25.882m16.313.683c.721.289 1.584.253 1.916-.079s-.258-.568-1.312-.525c-1.165.048-1.402.285-.604.604m40.73.248c-.317.512-.118 1.213.441 1.559s1.016-.074 1.016-.931c0-1.757-.6-2.015-1.457-.628m-36.885 3.519c-.347.904.103 1.164 1.417.82 2.298-.601 2.386-.879.508-1.6-.78-.299-1.646.052-1.925.78m8.726-.008c-.304.792-.377 2.255-.161 3.25.244 1.129.586.587.911-1.442.544-3.406.191-4.259-.75-1.808m3.175 1.09c-1.068.807-1.46 1.468-.873 1.468.588 0 1.629-.675 2.314-1.5 1.557-1.876 1.067-1.866-1.441.032m16.557.574c-1.08 1.159-2.372 1.854-2.873 1.544-.5-.309-.91.093-.91.894 0 2.154.967 1.796 4.167-1.544 1.581-1.65 2.583-3 2.226-3-.356 0-1.531.948-2.61 2.106m-9.604.874c-.406.657-1.587.972-2.625.701-2.006-.525-2.594.764-.843 1.846.574.355 1.733.073 2.576-.627 1.209-1.003 1.693-1.011 2.294-.038.572.925 1.115.799 2.174-.507 1.129-1.391 1.139-1.575.05-.919-.816.492-1.667.326-2.125-.415-.587-.95-.933-.959-1.501-.041M162 167c0 .55.477 1 1.059 1s.781-.45.441-1-.816-1-1.059-1-.441.45-.441 1"/></svg>