<svg xmlns="http://www.w3.org/2000/svg" width="221" height="250" version="1.1" fill="#000000"><path fill-opacity=".133" d="M 182.500 7.941 C 176.081 11.791, 161.551 20.269, 139.500 33.029 C 96.872 57.698, 92.508 60.252, 89.790 62.129 C 88.300 63.158, 86.803 64, 86.464 64 C 86.124 64, 81.699 66.475, 76.629 69.500 C 71.560 72.525, 66.899 75, 66.270 75 C 65.446 75, 65.102 67.989, 65.034 49.856 C 64.982 36.027, 64.717 24.352, 64.445 23.911 C 64.173 23.471, 57.790 19.633, 50.260 15.383 L 36.571 7.656 31.535 10.421 C 28.766 11.941, 22.121 15.731, 16.768 18.843 L 7.036 24.500 7.018 126.762 L 7 229.025 12.250 232.363 C 18.609 236.406, 24.789 239.988, 31.602 243.579 L 36.703 246.267 42.102 243.290 C 54.179 236.630, 65.003 229.721, 65.046 228.644 C 65.072 228.015, 65.052 215.912, 65.002 201.750 C 64.952 187.588, 65.178 176, 65.504 176 C 66.611 176, 73.470 179.683, 86 187.007 C 99.887 195.124, 129.299 212.026, 135.500 215.452 C 137.700 216.667, 145.705 221.338, 153.290 225.831 C 160.874 230.324, 167.271 234, 167.505 234 C 167.738 234, 172.036 236.490, 177.054 239.533 L 186.179 245.066 192.340 241.178 C 195.728 239.040, 200.300 236.308, 202.500 235.108 C 204.700 233.907, 208.300 231.926, 210.500 230.704 L 214.500 228.483 214.760 184.896 L 215.021 141.310 201.024 133.155 C 193.326 128.670, 186.630 125, 186.145 125 C 185.248 125, 168.917 133.962, 168 134.957 C 167.725 135.256, 165.250 136.711, 162.500 138.191 L 157.500 140.883 157.215 150.941 C 156.932 160.932, 156.389 162.378, 154 159.500 C 153.315 158.675, 152.351 158, 151.858 158 C 151.364 158, 149.282 156.947, 147.230 155.659 C 145.179 154.371, 141.475 152.192, 139 150.817 C 135.322 148.773, 95.970 126.043, 95.304 125.579 C 95.197 125.504, 98.347 123.620, 102.304 121.394 C 106.262 119.167, 115.754 113.668, 123.397 109.173 C 131.040 104.678, 137.402 101, 137.534 101 C 137.667 101, 141.988 98.535, 147.137 95.522 L 156.500 90.044 156.789 97.950 L 157.079 105.856 168.289 112.302 C 174.455 115.847, 180.875 119.550, 182.556 120.531 L 185.613 122.314 192.426 118.407 C 196.174 116.258, 201.773 113.030, 204.870 111.232 C 207.966 109.435, 211.512 107.450, 212.750 106.822 L 215 105.679 215 64.352 L 215 23.025 210.922 20.451 C 205.891 17.275, 185.833 5.887, 185.593 6.071 C 185.542 6.110, 184.150 6.952, 182.500 7.941" stroke="none" fill="#000000" fill-rule="evenodd"/><path fill-opacity=".281" d="M 168 17.341 C 158.375 23.016, 145.775 30.385, 140 33.717 C 134.225 37.048, 122.525 43.828, 114 48.782 C 73.045 72.581, 66.958 76, 65.532 76 C 64.195 76, 64 72.693, 64 50.073 L 64 24.146 61.250 22.706 C 56.892 20.423, 44.834 13.560, 41 11.180 C 39.075 9.985, 37.002 9.006, 36.393 9.004 C 35.785 9.002, 31.285 11.312, 26.393 14.138 C 21.502 16.963, 15.925 20.161, 14 21.244 C 12.075 22.327, 9.938 23.670, 9.250 24.229 C 7.418 25.717, 7.418 228.283, 9.250 229.771 C 9.937 230.330, 12.075 231.670, 14 232.750 C 15.925 233.829, 21.408 237.027, 26.184 239.856 C 30.961 242.685, 35.425 245, 36.105 245 C 36.784 245, 43.339 241.590, 50.670 237.422 L 64 229.843 64 202.422 C 64 181.149, 64.280 175.001, 65.250 175.004 C 65.938 175.006, 68.075 175.973, 70 177.154 C 71.925 178.334, 78.450 182.094, 84.500 185.509 C 98.699 193.524, 119.982 205.782, 127 209.988 C 130.025 211.800, 134.300 214.263, 136.500 215.460 C 138.700 216.657, 148.150 222.068, 157.500 227.484 C 166.850 232.900, 177.145 238.840, 180.378 240.683 L 186.255 244.036 200.128 235.925 L 214 227.815 214 184.995 L 214 142.176 205.750 137.076 C 201.213 134.271, 194.735 130.539, 191.355 128.781 L 185.209 125.587 179.355 129.160 C 176.135 131.125, 171.475 133.860, 169 135.238 C 166.525 136.616, 163.040 138.589, 161.256 139.622 L 158.013 141.500 158.006 151.750 C 158.003 157.387, 157.584 162, 157.076 162 C 156.183 162, 141.092 153.438, 136 150.043 C 134.625 149.126, 130.800 146.872, 127.500 145.034 C 124.200 143.196, 117.122 139.061, 111.772 135.846 C 106.421 132.631, 101.829 130, 101.566 130 C 101.304 130, 99.544 128.952, 97.656 127.671 C 94.689 125.657, 94.446 125.203, 95.862 124.322 C 96.763 123.761, 109.200 116.558, 123.500 108.315 C 137.800 100.073, 151.043 92.378, 152.929 91.216 C 154.815 90.054, 156.728 89.332, 157.179 89.611 C 157.631 89.890, 158 93.579, 158.001 97.809 L 158.002 105.500 163.192 108.500 C 166.047 110.150, 169.984 112.400, 171.941 113.500 C 173.899 114.600, 177.650 116.764, 180.278 118.309 C 183.226 120.041, 185.789 120.884, 186.969 120.510 C 188.964 119.877, 202.417 112.287, 209.754 107.656 L 214 104.975 214 64.156 L 214 23.338 211.250 21.921 C 209.738 21.141, 208.275 20.225, 208 19.886 C 207.725 19.546, 205.545 18.278, 203.156 17.066 C 200.767 15.855, 195.922 13.094, 192.389 10.932 C 188.856 8.769, 185.860 7.005, 185.732 7.011 C 185.605 7.017, 177.625 11.666, 168 17.341" stroke="none" fill="#000000" fill-rule="evenodd"/><path fill-opacity=".201" d="M 179.236 11.554 C 176.341 13.449, 173.821 15, 173.636 15 C 173.026 15, 116.526 47.877, 115.292 48.950 C 114.628 49.527, 113.720 50, 113.274 50 C 112.829 50, 110.897 51.052, 108.982 52.337 C 107.067 53.622, 103.025 56.031, 100 57.689 C 96.975 59.348, 89.100 63.838, 82.500 67.667 C 69.244 75.357, 68.264 75.891, 62.500 78.553 C 60.300 79.570, 57.825 80.920, 57 81.555 C 56.175 82.190, 53.025 84.008, 50 85.597 C 46.975 87.185, 44.275 88.758, 44 89.093 C 43.135 90.145, 39.188 92, 37.816 92 C 36.746 92, 36.543 84.344, 36.732 51 C 36.900 21.389, 36.655 10, 35.850 10 C 35.238 10, 33.261 10.911, 31.459 12.025 C 27.324 14.581, 18.781 19.359, 13.250 22.209 L 9 24.399 9 126.968 L 9 229.538 14.750 232.789 C 17.912 234.577, 23.200 237.623, 26.500 239.557 C 29.800 241.492, 33.441 243.547, 34.591 244.125 C 36.358 245.013, 38.793 243.961, 50.291 237.338 C 57.776 233.027, 63.781 229.074, 63.634 228.553 C 63.368 227.604, 61.127 226.192, 49 219.333 C 45.425 217.311, 41.263 214.803, 39.750 213.760 L 37 211.864 37 169.932 C 37 146.045, 37.384 128, 37.892 128 C 38.382 128, 44.457 131.193, 51.392 135.095 L 64 142.190 64 157.549 L 64 172.908 73.250 178.313 C 78.338 181.286, 87.225 186.422, 93 189.725 C 98.775 193.029, 109.248 199.055, 116.272 203.116 C 123.297 207.177, 133.647 213.148, 139.272 216.385 C 155.948 225.981, 161.894 229.422, 173.833 236.388 C 180.067 240.025, 185.600 243, 186.128 243 C 187.543 243, 213 227.920, 213 227.082 C 213 226.690, 211.088 225.275, 208.750 223.940 C 206.412 222.604, 203.775 221.059, 202.889 220.506 C 202.003 219.952, 198.853 218.205, 195.889 216.622 C 192.925 215.040, 190.350 213.352, 190.167 212.872 C 189.983 212.393, 189.427 212, 188.931 212 C 188.434 212, 184.309 209.819, 179.764 207.154 C 167.736 200.100, 156.912 193.841, 154.555 192.578 C 153.425 191.972, 149.182 189.292, 145.127 186.623 C 139.845 183.147, 138.136 181.534, 139.099 180.939 C 140.159 180.284, 140.058 179.959, 138.621 179.408 C 137.508 178.981, 136.411 179.252, 135.805 180.104 C 135.039 181.180, 134.947 181.081, 135.406 179.668 C 135.733 178.661, 136 177.486, 136 177.057 C 136 176.628, 137.238 176.475, 138.750 176.717 C 140.582 177.010, 141.071 176.853, 140.216 176.248 C 138.474 175.016, 138.283 162.569, 139.975 160.530 C 141.026 159.264, 140.965 159, 139.622 159 C 138.730 159, 138 158.564, 138 158.031 C 138 157.499, 138.787 157.358, 139.750 157.719 C 141.282 158.293, 141.329 158.165, 140.128 156.687 C 138.931 155.217, 138.995 154.998, 140.628 154.985 C 142.302 154.972, 142.271 154.840, 140.333 153.735 C 139.141 153.056, 130.141 147.680, 120.333 141.788 C 110.525 135.896, 100.563 129.930, 98.196 128.530 C 95.829 127.130, 94.150 125.567, 94.465 125.057 C 94.780 124.547, 97.392 122.823, 100.269 121.225 C 103.146 119.628, 113.600 113.615, 123.500 107.863 C 133.400 102.111, 142.175 97.077, 143 96.677 C 143.825 96.277, 147.425 94.215, 151 92.096 L 157.500 88.242 158 96.592 L 158.500 104.942 163 107.778 C 165.475 109.338, 171.652 112.949, 176.726 115.803 L 185.952 120.992 194.726 115.926 C 211.496 106.243, 213.378 104.965, 212.327 103.976 C 211.872 103.548, 206.100 100.138, 199.500 96.399 C 192.900 92.660, 187.160 89.128, 186.744 88.551 C 186.328 87.973, 186.027 69.737, 186.074 48.027 C 186.122 26.317, 185.787 8.453, 185.331 8.331 C 184.874 8.208, 182.131 9.658, 179.236 11.554 M 170.718 134.747 L 157.936 142.389 158.218 152.844 L 158.500 163.299 166.500 167.770 C 170.900 170.229, 176.820 173.537, 179.655 175.121 C 182.490 176.704, 185.063 178, 185.372 178 C 185.681 178, 186.061 166.525, 186.217 152.499 C 186.463 130.354, 186.303 127.006, 185 127.052 C 184.175 127.081, 177.748 130.544, 170.718 134.747" stroke="none" fill="#000000" fill-rule="evenodd"/><path fill-opacity=".197" d="M 153.962 58.400 C 152.608 59.133, 149.025 61.068, 146 62.701 C 142.975 64.333, 138.200 67.093, 135.389 68.834 C 132.579 70.576, 129.766 72, 129.139 72 C 128.513 72, 128 72.450, 128 73 C 128 73.550, 127.541 74, 126.980 74 C 126.419 74, 124.057 75.226, 121.730 76.724 C 119.404 78.223, 116.600 79.949, 115.500 80.561 C 107.241 85.155, 94.501 92.557, 89.500 95.670 C 86.200 97.723, 80.575 100.942, 77 102.822 C 73.425 104.702, 69.306 107.087, 67.846 108.120 C 66.386 109.154, 64.698 110, 64.096 110 C 63.493 110, 63 110.340, 63 110.756 C 63 111.172, 61.538 112.149, 59.750 112.928 C 57.962 113.706, 54.700 115.489, 52.500 116.889 C 50.300 118.289, 46.925 120.294, 45 121.345 C 43.075 122.396, 40.703 123.810, 39.728 124.487 C 37.317 126.164, 36.245 125.412, 57.750 137.134 C 60.912 138.858, 63.859 140.589, 64.297 140.981 C 64.735 141.373, 65.114 148.741, 65.139 157.356 L 65.184 173.018 74.342 178.400 C 79.379 181.360, 86.200 185.393, 89.500 187.361 C 92.800 189.329, 98.425 192.531, 102 194.476 C 105.575 196.422, 109.175 198.443, 110 198.968 C 113.737 201.345, 125.246 208, 125.619 208 C 125.847 208, 129.289 209.952, 133.267 212.338 C 147.181 220.682, 165.036 230.911, 176.500 237.107 C 178.700 238.296, 180.725 239.546, 181 239.884 C 181.275 240.223, 182.532 241.078, 183.792 241.785 C 185.882 242.956, 187.229 242.396, 199.041 235.438 C 206.167 231.240, 211.719 227.355, 211.379 226.804 C 211.038 226.253, 209.576 225.282, 208.130 224.647 C 205.217 223.367, 195.786 217.909, 194.999 217.048 C 194.724 216.747, 192.924 215.643, 190.999 214.596 C 189.075 213.549, 185.192 211.436, 182.371 209.901 C 179.549 208.365, 173.699 205.003, 169.371 202.431 C 165.042 199.858, 159.025 196.413, 156 194.775 C 152.975 193.137, 149.790 191.168, 148.921 190.398 C 148.053 189.629, 147.071 189, 146.738 189 C 146.086 189, 130.150 179.584, 128.500 178.224 C 127.950 177.771, 125.925 176.522, 124 175.450 C 122.075 174.377, 120.275 173.271, 120 172.991 C 119.725 172.711, 117.837 171.369, 115.805 170.009 C 111.850 167.363, 109.016 162.828, 110.920 162.193 C 111.583 161.972, 112 158.471, 112 153.117 C 112 147.739, 112.453 143.947, 113.183 143.217 C 113.834 142.566, 114.035 141.701, 113.629 141.296 C 113.223 140.890, 112.423 141.220, 111.851 142.029 C 111.007 143.223, 110.923 143.155, 111.406 141.668 C 111.733 140.661, 112 139.662, 112 139.450 C 112 139.237, 112.787 139.345, 113.750 139.691 C 115.809 140.430, 114.848 139.176, 112.148 137.601 C 101.212 131.220, 93.923 126.684, 93.496 125.993 C 93.010 125.207, 98.034 121, 99.458 121 C 99.816 121, 106.046 117.488, 113.304 113.196 C 120.562 108.904, 127.175 105.061, 128 104.657 C 128.825 104.253, 130.400 103.377, 131.500 102.711 C 137.731 98.939, 152.728 90.349, 155.776 88.807 C 157.990 87.687, 158.048 87.275, 157.942 73.502 C 157.882 65.717, 157.516 58.835, 157.128 58.208 C 156.610 57.369, 155.773 57.420, 153.962 58.400 M 180.500 92.182 C 178.300 93.333, 176.275 94.554, 176 94.895 C 175.725 95.236, 173.025 96.832, 170 98.441 C 166.975 100.050, 163.217 102.139, 161.648 103.084 L 158.796 104.802 167.429 109.901 C 172.177 112.705, 176.296 115, 176.584 115 C 176.871 115, 178.762 116.125, 180.785 117.500 C 182.809 118.875, 185.042 120, 185.749 120 C 186.456 120, 190.289 118.038, 194.267 115.641 C 198.245 113.243, 201.950 111.106, 202.500 110.891 C 204.957 109.930, 211.985 105.433, 211.992 104.817 C 211.997 104.442, 211.175 103.873, 210.168 103.553 C 209.160 103.233, 205.672 101.353, 202.418 99.375 C 196.453 95.749, 185.574 89.962, 184.876 90.044 C 184.669 90.069, 182.700 91.030, 180.500 92.182 M 117.813 142.683 C 118.534 142.972, 119.397 142.936, 119.729 142.604 C 120.061 142.272, 119.471 142.036, 118.417 142.079 C 117.252 142.127, 117.015 142.364, 117.813 142.683 M 28.886 216.870 C 25.248 218.867, 21.648 221.009, 20.886 221.631 C 20.124 222.254, 17.083 223.977, 14.128 225.460 C 11.174 226.943, 9.149 228.532, 9.628 228.990 C 10.108 229.448, 15.675 232.785, 22 236.405 C 28.325 240.025, 34.161 243.367, 34.968 243.832 C 35.982 244.416, 39.787 242.718, 47.276 238.339 C 53.237 234.852, 58.539 232, 59.058 232 C 59.576 232, 60 231.550, 60 231 C 60 230.450, 60.675 230, 61.500 230 C 64.338 230, 62.991 228.310, 58.250 225.921 C 55.638 224.604, 53.275 223.296, 53 223.013 C 52.113 222.103, 48.649 220.092, 42 216.627 L 35.500 213.240 28.886 216.870" stroke="none" fill="#000000" fill-rule="evenodd"/></svg>