<svg xmlns="http://www.w3.org/2000/svg" width="200" height="200" fill="#000000"><path fill-opacity=".404" fill-rule="evenodd" d="M0 100.005V200.01l100.25-.255 100.25-.255.255-99.75L201.01 0H0zm.481.495c0 55 .121 77.647.269 50.326.148-27.32.148-72.32 0-100C.602 23.147.481 45.5.481 100.5m57.191-53.913c.439 1.146.81 1.251 1.346.384.544-.881.841-.894 1.122-.05.279.836.859.799 2.134-.136 1.558-1.144 1.368-1.312-1.729-1.532-2.816-.2-3.364.055-2.873 1.334m22.828-.03c-4.359 2.244-20.473 18.391-22.099 22.145-1.97 4.545-.565 7.511 7.348 15.52l6.643 6.723-7.196 7.421c-6.385 6.584-7.198 7.856-7.212 11.277-.016 3.684.798 4.659 18.118 21.724 12.665 12.478 18.373 17.482 18.925 16.59.434-.703.493-2.062.131-3.019S87.525 135.927 79 127.04c-8.525-8.886-15.635-16.75-15.799-17.474-.165-.724 2.645-4.378 6.243-8.121l6.542-6.805 7.974 7.759c4.992 4.859 8.424 7.482 9.177 7.016.819-.506 1.003-.223.577.889-.64 1.666.518 3.13 1.611 2.037.836-.835-1.24-4.512-2.209-3.913-.43.266-.783-.128-.783-.877 0-.81.619-1.123 1.531-.773.842.323-1.821-2.916-5.917-7.197S80.5 91.426 80.5 90.973s3.456-4.4 7.68-8.769c6.043-6.251 7.428-8.216 6.5-9.221-.931-1.008-.811-1.147.57-.662 2.426.854 2.194-.013-.371-1.386-1.49-.797-1.918-.808-1.441-.035.374.605.203 1.1-.379 1.1S92 72.477 92 73.059s.445.784.989.448c.58-.359.725.074.351 1.051-.588 1.53-.71 1.532-1.55.03-.502-.896-1.343-1.365-1.868-1.04s-.653 1.079-.284 1.676c.375.605.211.801-.37.442-1.145-.708-3.547 1.621-2.759 2.676.27.362.18.422-.2.134-.38-.289-2.835 1.588-5.456 4.169l-4.766 4.694-6.612-6.678c-4.423-4.467-6.507-7.32-6.293-8.619.175-1.068 4.593-6.323 9.818-11.678l9.5-9.736 6.25-.431c3.438-.236 6.25-.758 6.25-1.159 0-.4-.823-1.473-1.829-2.383-2.309-2.09-8.706-2.139-12.671-.098m-6.952 62.693c.366.963 1.26 1.75 1.986 1.75.725 0 1.465.657 1.643 1.459.178.803 8.361 9.578 18.184 19.5C110.313 147.062 113.693 150 116.111 150c1.589 0 2.889-.342 2.889-.76s-8.267-9.019-18.372-19.112c-12.7-12.686-18.613-17.961-19.154-17.085-.543.878-.381 1.018.526.457q1.31-.809.585.362c-1.065 1.724-2.605.36-1.854-1.644.565-1.509.436-1.549-1.067-.327-1.474 1.2-1.631 1.188-1.141-.089.312-.815-.214-2.116-1.169-2.892-1.123-.911-1.472-.968-.987-.16.413.688.364 1.25-.108 1.25s-1.426-.562-2.118-1.25c-1.01-1.002-1.127-.903-.593.5"/><path fill-opacity=".632" fill-rule="evenodd" d="M0 100.005V200.01l100.25-.255 100.25-.255.255-99.75L201.01 0H0zm.481.495c0 55 .121 77.647.269 50.326.148-27.32.148-72.32 0-100C.602 23.147.481 45.5.481 100.5m57.191-53.913c.488 1.273.771 1.321 1.452.247.573-.905.85-.952.861-.146.008.653.915 1.12 2.015 1.037 3.374-.254 2.212-2.21-1.469-2.472-2.803-.199-3.35.056-2.859 1.334m22.828-.435c-3.198 1.745-20.496 19.072-22.135 22.171-1.877 3.552-1.043 7.691 2.155 10.695l2.415 2.27-2.467 2.933c-3.397 4.036-3.329 9.271.167 12.92l2.635 2.75-2.635 3.131C58.85 105.144 58 107.321 58 109.776c0 3.384 1.463 5.093 22.25 25.998 12.238 12.307 23.465 23.017 24.95 23.801 1.896 1.001 5.917 1.395 13.5 1.325 12.012-.111 14.677-.644 15.063-3.017.34-2.087-4.159-2.857-16.771-2.872l-9.509-.011-22.241-22.258C73.009 120.5 63 109.995 63 109.397c0-1.04 3.15-4.397 4.126-4.397.258 0 10.561 10.125 22.896 22.5 20.123 20.188 22.765 22.5 25.703 22.5 1.801 0 3.275-.334 3.275-.742 0-.409-10.865-11.615-24.144-24.902l-24.144-24.159 2.735-2.735 2.734-2.734 28.2 28.136c24.804 24.747 31.493 30.977 29.092 27.092-.355-.574-.205-1.586.332-2.25.704-.868-6.691-9.061-26.359-29.206l-27.337-28 18.696-18.764c19.61-19.682 21.287-22.157 17.03-25.139-1.856-1.3-5.171-1.591-17.808-1.567-9.269.019-16.333.471-17.527 1.122m-7.769 14.616C67.379 66.14 63 71.245 63 72.113c0 2.005 2.98 4.632 5.206 4.588.938-.019 1.485-.392 1.214-.83-.27-.437 1.291-1.975 3.469-3.416 2.179-1.442 4.192-3.223 4.474-3.959.282-.735 1.329-1.203 2.325-1.038.997.164 2.825-.625 4.062-1.754 3.473-3.168 2.66-.854-1 2.846a581 581 0 0 0-7.65 7.949l-4.4 4.663 2.915 2.914 2.915 2.915 17.974-17.995L112.479 51H82.462zm-8.076 27.061c-2.203 2.434-2.087 4.47.383 6.705 1.992 1.803 2.098 1.784 4.7-.817l2.662-2.662-2.374-2.528c-2.834-3.016-3.227-3.067-5.371-.698m67.374 59.132c-.809.512-1.211 1.191-.893 1.509s1.148-.108 1.844-.946c1.443-1.738 1.166-1.902-.951-.563"/><path fill-opacity=".41" fill-rule="evenodd" d="M0 100.093v100.092l5.25-.409c2.888-.224 6.15-.758 7.25-1.186 1.589-.619 1.692-.557.5.3-1.203.866-.907 1.079 1.5 1.079 2.095 0 2.584-.263 1.622-.873-.758-.48-1.064-1.38-.681-2.001.383-.62 1.085-.888 1.56-.594.475.293 1.006-.672 1.181-2.145.194-1.636 1-2.775 2.073-2.929.965-.138 1.541.094 1.28.516s.749.518 2.245.212c1.894-.387 2.189-.669.97-.929-2.536-.54-2.146-1.91.75-2.637 3.109-.78 3.238-2.291.25-2.934-1.536-.331-1.298-.436.75-.331 1.866.096 2.91-.3 2.762-1.049-.146-.738.401-.958 1.414-.569 1.197.459 1.427.269.834-.691-.53-.856-.431-1.084.277-.646.603.372 2.536-.73 4.296-2.45 2.571-2.514 2.926-3.315 1.808-4.088-1.018-.704-.825-.804.718-.374 2.654.74 5.59-.325 4.731-1.716-.409-.661-.159-.747.675-.231.962.594 1.15.362.686-.846-.421-1.097-.126-1.664.866-1.664 1.158 0 1.274.429.503 1.869-.978 1.828-.535 3.131 1.065 3.131.441 0 .543-.675.227-1.5-.421-1.097.125-1.5 2.031-1.5 1.434 0 2.607-.45 2.607-1s.702-1 1.559-1 1.281-.45.941-1 .098-1 .973-1 1.953-.977 2.395-2.171c.501-1.356 1.062-1.752 1.493-1.053.503.812 1.706.761 4.415-.188 2.048-.717 4.703-1.151 5.899-.964 2.005.314 2.103.089 1.25-2.885-.509-1.774-.925-3.229-.925-3.232s1.082-.007 2.405-.007 2.195.338 1.94.75.239.75 1.096.75 1.577.563 1.599 1.25.734-.03 1.582-1.595c1.098-2.026 2.094-2.701 3.459-2.344 1.054.276 2.212.024 2.573-.559.417-.675.144-.77-.749-.26-1.157.66-1.177.556-.113-.587 1.1-1.182 1.431-1.167 2.234.103.687 1.087.948 1.136.959.183.008-.733.523-.995 1.17-.596.715.443.883.275.44-.44-.865-1.401.356-1.479 2.405-.155 1.235.798 1.25.972.083.985-.779.008-1.115.317-.746.686.718.717 5.663-3.486 5.663-4.814 0-.437-.753-.505-1.674-.152-1.305.501-1.52.243-.977-1.173.593-1.546.468-1.625-.849-.532-1.301 1.08-1.446 1.024-.918-.354.714-1.86-5.79-9.054-7.109-7.863-.437.395-.532.255-.212-.311.32-.565-5.455-7.09-12.835-14.5-12.817-12.87-13.417-13.654-13.421-17.548-.004-3.06.619-4.662 2.501-6.429 2.486-2.336 2.49-2.37.566-4.425-4.456-4.758-4.643-10.745-.46-14.675l2.409-2.263-2.738-2.858c-2.045-2.135-2.738-3.863-2.738-6.833 0-3.731.691-4.666 11.231-15.208L80.006 45.5l17.094-.317c15.053-.279 17.322-.111 18.997 1.405 4.079 3.692 2.788 5.672-16.347 25.065a82874 82874 0 0 0-18.705 18.96c-.804.819 53.292 54.297 54.296 53.676.533-.329.678-.129.325.443-.785 1.27 1.72 3.548 2.759 2.509.408-.407.592-.282.408.278-.536 1.64 3.547 6.177 5.177 5.753.82-.214.634.149-.415.806-1.791 1.124-1.731 1.267 1 2.391 2.872 1.183 6.774.938 5.963-.375-.231-.373.556-.752 1.749-.842 1.717-.13 1.859.032.68.777-1.171.741-.956.969 1.013 1.074 1.375.074 3.175.094 4 .045q1.51-.092.25.464c-2.344 1.04-1.257 2.043 1.737 1.603 4.242-.622 8.013.535 8.013 2.459 0 1.508-.143 1.506-1.829-.019-1.006-.91-2.199-1.655-2.653-1.655-.453 0 .181.872 1.41 1.938 1.246 1.08 2.934 1.668 3.817 1.33 1.048-.403 1.339-.213.86.562-.67 1.085.61 1.649 2.803 1.236.5-.095 1.229.347 1.621.981s2.346 1.153 4.342 1.153 3.629.432 3.629.959.408.707.907.399c.498-.309.684.289.413 1.328-.272 1.038.064 2.234.747 2.656.801.494.988.357.528-.387-.427-.691-.063-1.155.905-1.155.89 0 1.34.45 1 1s-.029 1.007.691 1.015c.951.011.899.281-.191.985-.825.533-1.275 1.01-1 1.059 4.124.739 5.451 1.112 7.104 1.996 1.073.575 1.683 1.48 1.355 2.011s-1.129.662-1.778.29c-.668-.383-.825-.287-.36.221.817.894 1.188.981 5.391 1.271 2.087.143 2.232.677 2.543 9.402.181 5.088.423-35.637.537-90.5L201 0H0zm.481.407c0 55 .121 77.647.269 50.326.148-27.32.148-72.32 0-100C.602 23.147.481 45.5.481 100.5m57.202-53.884c.481 1.254.757 1.296 1.441.218.633-.999.849-1.02.861-.084.008.688.915 1.25 2.015 1.25 3.61 0 2.225-2.667-1.456-2.806-2.742-.103-3.333.191-2.861 1.422m15.048 14.152C67.379 66.14 63 71.245 63 72.113c0 .867.918 2.408 2.041 3.424 2.015 1.824 2.177 1.711 12.766-8.845C87.01 57.518 88.992 56 91.766 56c1.779 0 3.234.345 3.234.766s-5.389 6.141-11.976 12.71L71.047 81.422l2.151 2.289C74.381 84.97 75.838 86 76.435 86c.598 0 8.952-7.875 18.565-17.5L112.479 51H82.462zm-8.166 27.16c-1.908 2.108-1.481 5.067 1.031 7.152 1.261 1.046 1.968.811 4.161-1.383l2.643-2.642-2.374-2.528c-2.851-3.034-3.22-3.075-5.461-.599m9.164 9.817-2.772 2.909 17.848 17.423c9.817 9.583 18.714 18.002 19.772 18.71s1.291.976.518.596c-.947-.467-1.158-.295-.648.531.415.672 1.484.943 2.374.601s1.341-.344 1.003-.006c-.679.679 3.836 5.917 5.272 6.116.497.069 1.467.188 2.154.265.781.088.875.416.25.875-1.351.993-1.407 5.046-.067 4.842.587-.09 1.63-.515 2.317-.944.812-.508 1.25-.197 1.25.886 0 1.275.583 1.522 2.473 1.047 2.04-.512 2.377-.312 1.925 1.142-.52 1.67-.49 1.669.588-.009.625-.974 1.559-1.51 2.075-1.191 3.967 2.451-2.731-4.916-26.311-28.94L76.5 94.835zm-9.154 9.172c-1.3 1.436-1.482 2.376-.727 3.75 1.335 2.427 42.014 42.833 43.124 42.833.474 0 1.199.338 1.611.75 1.089 1.089 2.417.919 2.417-.309 0-.582-.419-.8-.932-.483-1.047.647-4.334-3.525-3.463-4.396.307-.307 1.243.34 2.08 1.44 1.471 1.931 1.498 1.914.814-.502-1.208-4.271-3.525-7.204-5.185-6.567-1.037.398-1.362.136-1.001-.807.536-1.397-3.623-5.835-4.727-5.045-.322.23-.345.103-.05-.284C99.06 136.61 68.114 105 66.917 105c-.334 0-1.388.863-2.342 1.917m45.44 41.633c.032 1.961 1.57 3.095 4.17 3.073 1.477-.013 2.463-.383 2.191-.823s-1.277-.8-2.235-.8-2.281-.54-2.941-1.2-1.193-.772-1.185-.25m15.798 1.133c.721.289 1.584.253 1.916-.079s-.258-.568-1.312-.525c-1.165.048-1.402.285-.604.604M95.5 155c-.34.55-.141 1 .441 1S97 155.55 97 155s-.198-1-.441-1-.719.45-1.059 1m51.01 1.016c.346.559 1.047.758 1.559.441 1.387-.857 1.129-1.457-.628-1.457-.857 0-1.276.457-.931 1.016m-46.051 2.051c-.363.586-.445 1.281-.183 1.543s.743-.218 1.069-1.067c.676-1.762.1-2.072-.886-.476M152 159c0 .55.9 1 2 1s2-.45 2-1-.9-1-2-1-2 .45-2 1m-84.554 2.087c-.369.598-.171 1.588.441 2.2.817.817 1.113.528 1.113-1.087q0-3.623-1.554-1.113m4.633.496c.048 1.165.285 1.402.604.605.289-.722.253-1.585-.079-1.917s-.568.258-.525 1.312m-11.495 1.058c-.527 1.373-.38 1.435.893.378 1.735-1.44 1.916-2.019.63-2.019-.491 0-1.176.739-1.523 1.641m96.166-.979c.688.278 1.813.278 2.5 0 .688-.277.125-.504-1.25-.504s-1.937.227-1.25.504m13.75.338c.34.55.816 1 1.059 1s.441-.45.441-1-.477-1-1.059-1-.781.45-.441 1m-9.5.969c0 .532.675.709 1.5.393.825-.317 1.5-.753 1.5-.969s-.675-.393-1.5-.393-1.5.436-1.5.969m-105.187.714c.721.289 1.584.253 1.916-.079s-.258-.568-1.312-.525c-1.165.048-1.402.285-.604.604"/><path fill-opacity=".333" fill-rule="evenodd" d="M0 71.333c0 64.213.157 71.334 1.573 71.334 1.033 0 1.409-.63 1.094-1.834-.304-1.161.057-1.833.986-1.833.853 0 1.167.482.752 1.155-.422.682-.277.884.355.493.588-.363 1.244-.136 1.458.506.292.875.874.857 2.335-.07 1.393-.883 1.469-1.088.27-.719-.922.284-2.215-.132-2.872-.924-.658-.793-1.928-1.477-2.823-1.52-.947-.046-1.128-.282-.433-.565.657-.267 2.119.009 3.25.614 1.709.915 2.075.8 2.173-.685.066-.982.066-2.123 0-2.535-.184-1.169.598-.891 2.311.821.864.865 1.571 1.09 1.571.5 0-.589.675-1.071 1.5-1.071 1.619 0 1.853-.916.883-3.444-.434-1.132-.976-1.309-1.833-.597-.86.713-1.217.587-1.217-.431 0-.792.375-1.208.834-.925s.862-.299.896-1.294c.051-1.457.24-1.371.968.441.498 1.238 1.68 2.25 2.628 2.25 1.532 0 1.508-.163-.218-1.468-1.916-1.449-1.915-1.471.059-1.658 1.1-.104 2.563-.168 3.25-.143.688.026 1.25-.353 1.25-.842s-.525-.889-1.167-.889c-.641 0-.897-.269-.569-.597.329-.329 1.938.194 3.576 1.162 2.685 1.585 3.131 1.607 4.522.216.848-.849 1.271-1.814.939-2.146s-1.247.177-2.034 1.131c-1.338 1.623-1.396 1.624-.892.016.296-.945.107-1.984-.419-2.309S24 122.369 24 121.741c0-.822.336-.805 1.2.059 2.17 2.17 3.795 1.324 3.936-2.05.092-2.198.273-2.549.559-1.085.232 1.191 1.064 2.412 1.849 2.713 1.181.454 1.215.209.199-1.418-1.393-2.231-.049-5.389 2.364-5.556q1.388-.095.143.323c-.687.231-1.25.837-1.25 1.346 0 1.567 2.899 1.028 4.825-.898 1.15-1.15 2.516-1.582 3.696-1.168 1.697.596 1.657.713-.43 1.259-3.72.973-1.858 3.034 2.962 3.28 2.446.125 3.21.023 1.697-.226s-2.75-.859-2.75-1.355.788-.607 1.75-.246c1.532.574 1.579.446.378-1.032-1.022-1.256-1.088-2.03-.259-3.029.612-.738.818-1.638.456-2s-.171-.658.425-.658 1.26.531 1.477 1.18c.249.748 1.103.892 2.333.393 1.905-.774 1.904-.802-.06-1.573-1.524-.598-.928-.871 2.5-1.143 2.816-.223 4.5-.838 4.5-1.643 0-.708.675-1.714 1.5-2.235.825-.522 1.152-.955.727-.964-.425-.008-.035-1.142.868-2.52 1.347-2.055 1.412-2.781.363-4.046-.703-.847-1.994-1.268-2.868-.935-1.165.443-1.295.307-.484-.51.693-.699.84-2.567.393-5.008-.536-2.932-.361-4.027.708-4.437.781-.3 1.133-1.009.782-1.577-.351-.567-.111-.908.533-.757s1.562-.738 2.042-1.975c.621-1.604.51-2.25-.388-2.25-.693 0-1.928-1.476-2.746-3.281-2.446-5.395-.782-8.467 11.137-20.564l10.817-10.977 16.922-.129c10.827-.083 17.826.282 19.429 1.012 2.312 1.054 2.438 1.447 1.623 5.075-.63 2.806-2.385 5.365-6.121 8.929-2.88 2.747-5.237 5.431-5.237 5.965s-.3.858-.666.72c-.739-.278-7.955 7.076-11.823 12.05-1.369 1.76-3.056 3.2-3.75 3.2-1.165 0-1.703 1.32-1.355 3.324.079.454-.291.556-.823.227-.532-.328-2.397.801-4.146 2.51l-3.178 3.108 3.661 3.749C87.724 98.302 91 99.811 91 97.95c0-.394 1.125-.932 2.5-1.195 1.676-.32 2.5-.029 2.5.884 0 .748.562 1.248 1.25 1.111.688-.138 1.171.213 1.073.78-.191 1.119 4.341 1.245 5.17.144.279-.371.223-.465-.124-.209-1.01.743-4.377-1.416-4.29-2.75.055-.855.234-.826.604.096.404 1.012 1.011.897 2.653-.5 1.194-1.015 1.625-1.152.982-.311-.987 1.29-.424 1.489 4.017 1.423 3.802-.057 5.344.338 5.845 1.5.406.941.708.042.75-2.232.038-2.095.449-3.575.912-3.289.462.286.759 1.905.658 3.598s.265 3.355.813 3.693.694.128.325-.469-.206-1.373.362-1.724.793-1.026.5-1.5-.075-1.144.484-1.49c.559-.345 1.016-1.078 1.016-1.628s-.52-.679-1.155-.287c-.737.456-.882.273-.4-.506.573-.926 1.169-.843 2.485.348.953.862 2.105 1.229 2.561.815.457-.414.512-.2.125.475-1.089 1.895-1.57 7.273-.65 7.273.451 0 1.088-.698 1.416-1.552.341-.89.173-1.291-.393-.941-.544.336-.989.165-.989-.381 0-1.426 3.617-2.368 6.25-1.628 1.775.499 1.933.408.75-.432-1.333-.948-1.333-1.188 0-2.16 1.267-.925 1.228-1.002-.25-.5-4.676 1.588-5.043 1.601-2.43.089 2.585-1.496 3.024-1.499 5.25-.041 1.337.876 2.43 1.862 2.43 2.191 0 .33-.6.102-1.333-.507-1.006-.834-1.334-.755-1.334.322 0 .786.263 1.401.584 1.366 2.251-.243 5.3.29 4.758.832-1.296 1.296 1.387 3.053 3.923 2.568 1.889-.361 2.224-.724 1.244-1.345-.969-.614-.716-.855.908-.866 1.238-.008 2.25-.451 2.25-.984s-.562-.831-1.25-.664c-.687.168-.91.116-.494-.116s.519-.806.229-1.276.35-.788 1.424-.707 1.695.564 1.38 1.074c-.326.527.78.728 2.569.466 1.728-.254 3.142-.2 3.142.121 0 .32 1.575 1.075 3.5 1.677 2.544.796 3.504.795 3.515-.005.009-.606.404-.488.879.262.729 1.151.959 1.151 1.476 0 .336-.75.34-.238.008 1.137-.331 1.375-1.053 2.95-1.603 3.5q-1 1-.34-1.5c.572-2.163.507-2.254-.479-.675-1.369 2.193-.795 2.916 2.605 3.279 1.592.169 2.418-.166 2.178-.886-.39-1.17 6.075-5.237 6.944-4.369.257.258-.425.752-1.515 1.098-2.607.827-3.411 3.107-1.62 4.593.787.653 1.156 1.631.82 2.173-.335.543.345.476 1.511-.148 1.167-.625 2.153-.782 2.191-.35.039.432.457-.115.93-1.215.735-1.71.87-1.746.93-.25.049 1.233.897 1.75 2.87 1.75 1.54 0 3.34.54 4 1.2.933.933 1.2.896 1.2-.167 0-.751.238-1.129.528-.838.29.29.077 1.715-.475 3.166-.645 1.696-.655 2.639-.028 2.639.536 0 .975-.627.975-1.393s.698-1.661 1.552-1.989c.854-.327 1.328-.233 1.054.21-.273.443.836 1.593 2.466 2.555s2.699 2.178 2.377 2.7-.975.71-1.449.417-1.12-.115-1.436.396c-.476.771 1.524.808 3.436.062.275-.107.838-.142 1.25-.076 1.191.188.869-1.676-.36-2.085-.735-.245-.638-.761.285-1.527 1.14-.946 1.388-.614 1.359 1.822-.018 1.638-.696 3.389-1.505 3.889-.809.501-1.145 1.236-.746 1.635 1.058 1.058 5.866-3.786 5.278-5.318-.274-.714.1-1.298.832-1.298.899 0 1.166.858.823 2.649-.292 1.529-.106 2.401.439 2.064.522-.322.945.925.945 2.787 0 2.086-.4 3.132-1.05 2.743-.578-.345-.507.044.156.865.664.82 1.36 5.294 1.547 9.942.187 4.647.432-23.612.543-62.8L201 0H0zM.474 72c0 39.325.124 55.412.276 35.75.151-19.662.151-51.837 0-71.5C.598 16.587.474 32.675.474 72m57.288-24.804c.548 2.097.609 2.108 1.336.25.419-1.07.793-1.383.832-.696.101 1.797 4.07 1.553 4.07-.25 0-1.04-1.045-1.5-3.406-1.5-3.016 0-3.341.252-2.832 2.196m20.211 8.426c-2.717 2.542-4.653 5.086-4.302 5.654s.184.752-.371.409c-1.452-.897-5.675 3.9-4.75 5.395.447.724.345.973-.248.607-1.455-.899-4.256 1.451-4.739 3.975-.248 1.296.374 2.876 1.552 3.942 1.916 1.734 2.242 1.506 12.692-8.912C86.858 57.669 89.021 56 91.659 56c2.035 0 3.358.601 3.787 1.72.363.945.335 1.394-.062.997-1.012-1.012-4.476 2.325-3.706 3.571.347.562.177.74-.378.397-1.298-.802-5.565 3.691-4.559 4.8.417.459.265.555-.338.211-1.039-.592-6.426 4.164-6.751 5.961-.083.463-.426.752-.76.64-.335-.111-1.902 1.148-3.483 2.798-2.426 2.532-2.643 3.158-1.391 4.018 1.108.761.852.851-1.018.357l-2.5-.661 2.695 2.585c1.596 1.53 3.327 2.343 4.244 1.991.852-.327 1.33-.95 1.061-1.385s.212-1.059 1.069-1.388c.871-.334 1.241-1.11.84-1.759-.413-.668-.284-.894.303-.531 1.142.706 4.577-2.605 3.79-3.653-.276-.368-.194-.436.182-.151.953.72 7.316-5.605 7.316-7.273 0-.75.387-1.124.859-.832.473.292 3.484-2.269 6.693-5.691s6.984-7.007 8.391-7.965c1.406-.959 2.107-1.754 1.557-1.766s-.325-.458.5-.991c1.007-.651-3.195-.974-12.793-.985L82.914 51zm-13.566 32.88c-1.558 2.378-1.525 2.582.729 4.409 1.69 1.369 2.721 1.62 3.614.88 1.896-1.571 1.496-5.156-.73-6.546-1.715-1.072-2.197-.904-3.613 1.257m64.198 1.668c.47.76.199.969-.774.595-.905-.347-1.498-.001-1.498.873 0 .838.597 1.219 1.415.905.779-.299 1.604-.543 1.834-.543s.418-.675.418-1.5-.477-1.5-1.059-1.5-.734.526-.336 1.17M141 89.378c0 .207.787.995 1.75 1.75 1.586 1.243 1.621 1.208.378-.378-1.307-1.666-2.128-2.195-2.128-1.372m-58.493 1.611c-.35.566.051.734.941.393 1.732-.665 2.049-1.382.611-1.382-.518 0-1.216.445-1.552.989m23.059-.036c-1.063.386-1.492.975-.952 1.309 1.032.637 4.17-.842 3.357-1.582-.259-.236-1.341-.113-2.405.273m-20.864 2.714c.282.733.641 1.333.798 1.333s.516-.6.798-1.333c.281-.734-.078-1.334-.798-1.334s-1.079.6-.798 1.334M101 93.059c0 .582.45.781 1 .441s1-.816 1-1.059-.45-.441-1-.441-1 .477-1 1.059m38 .441c0 .82.75 1.117 2 .79 1.1-.288 2-.643 2-.79s-.9-.502-2-.79c-1.25-.327-2-.03-2 .79m-51.333 1.167c-2.185 2.185 1.513 3.24 4.333 1.237 1.148-.816.836-.92-1.334-.445-1.843.404-2.609.258-2.191-.419.72-1.164.216-1.397-.808-.373M96.5 95c.34.55.816 1 1.059 1s.441-.45.441-1-.477-1-1.059-1-.781.45-.441 1m14.5 1.059c0 .582.45.781 1 .441s1-.816 1-1.059-.45-.441-1-.441-1 .477-1 1.059m8.5-.059c.34.55.816 1 1.059 1s.441-.45.441-1-.477-1-1.059-1-.781.45-.441 1m-43.316 1.648c-.717.768-1.703 1.149-2.192.847-.883-.546-.493 3.338.429 4.259.266.266 1.159-.191 1.984-1.016s1.221-1.778.881-2.119c-.341-.34-.094-.619.547-.619A1.17 1.17 0 0 1 79 100.167c0 .641.271.895.602.564s-.009-1.474-.756-2.54c-1.155-1.649-1.553-1.73-2.662-.543m61.182.665c.396 2.598 1.759 2.581 2.727-.034.513-1.388.208-1.906-1.185-2.011-1.395-.105-1.791.42-1.542 2.045m-80.292.098c-.821.99-.851 1.609-.098 2.074.591.365.95.068.799-.661-.151-.728.321-1.2 1.049-1.049.729.151 1.04-.187.691-.75-.823-1.333-1.043-1.298-2.441.386m90.808.552c-.066.295-.066.875 0 1.287.065.412-.359.75-.941.75s-.779.453-.436 1.008c.386.624 1.196.434 2.13-.5 2.225-2.225 3.609-1.858 2.799.742-.675 2.168-.624 2.159 1.4-.25 1.763-2.099 2.105-2.213 2.133-.711.027 1.48.274 1.567 1.426.5 1.179-1.091 1.088-1.404-.593-2.041-1.091-.414-2.393-.499-2.892-.191-.5.309-.908.112-.908-.436 0-1.006-3.899-1.156-4.118-.158m-19.01 1.787c-1.243 1.586-1.208 1.621.378.378.963-.755 1.75-1.543 1.75-1.75 0-.823-.821-.294-2.128 1.372m-36.685 1.75c1.195 1.375 2.655 2.486 3.243 2.47s.283-.489-.68-1.05-1.75-1.672-1.75-2.47c0-.797-.672-1.45-1.493-1.45-1.143 0-.984.586.68 2.5m51.313-.5c-.34.55-.141 1 .441 1s1.059-.45 1.059-1-.198-1-.441-1-.719.45-1.059 1m-64 1c-.34.55-.168 1 .382 1s1.278-.45 1.618-1 .168-1-.382-1-1.278.45-1.618 1m89.138 1.5c.317.825 1.033 1.5 1.591 1.5.586 0 .489-.635-.229-1.5-.685-.825-1.401-1.5-1.591-1.5s-.087.675.229 1.5m7.362.122c0 1.397.232 1.432 1.663.25 1.296-1.07 1.755-1.097 2.083-.122.231.688.888 1.25 1.46 1.25.627 0 .546-.594-.206-1.5-1.666-2.007-5-1.926-5 .122m-98.436.671c.376.986.935 1.541 1.243 1.233s.001-1.114-.683-1.793c-.988-.98-1.102-.865-.56.56m19 .414c-.542 1.425-.428 1.54.56.56.684-.679.991-1.486.683-1.793-.308-.308-.867.247-1.243 1.233m-47.485.876c.048 1.165.285 1.402.604.605.289-.722.253-1.585-.079-1.917s-.568.258-.525 1.312M156 105.465c0 .255 1.012 1.004 2.25 1.664 2.04 1.087 2.122 1.043.878-.465-1.278-1.549-3.128-2.258-3.128-1.199m-110.267 1.659c.679.684 1.486.991 1.793.683.308-.308-.247-.867-1.233-1.243-1.425-.542-1.54-.428-.56.56m18.934-.457c-.367.366-.667 1.131-.667 1.7 0 .626.466.567 1.183-.15.651-.651.951-1.416.667-1.7s-.817-.217-1.183.15m2.333.274c0 .518.45 1.219 1 1.559s1-.084 1-.941S68.55 106 68 106s-1 .423-1 .941m16.294.356c-1.464.814-1.932 1.671-1.389 2.549.646 1.046.949.978 1.449-.326.347-.906 1.01-1.413 1.472-1.127.462.285.841-.136.841-.937s-.038-1.44-.084-1.421c-.046.02-1.076.588-2.289 1.262m15.344.203c-.347.905-.005 1.5.862 1.5s1.209-.595.862-1.5c-.317-.825-.705-1.5-.862-1.5s-.545.675-.862 1.5m-45.825.183c.721.289 1.584.253 1.916-.079s-.258-.568-1.312-.525c-1.165.048-1.402.285-.604.604m17.52 1.761c0 .795.488 1.357 1.084 1.25s.959.402.808 1.13c-.153.738.209 1.026.815.651.733-.453.526-1.297-.63-2.574-2.062-2.279-2.077-2.283-2.077-.457M170 109c-.901.582-1.025.975-.309.985.655.008 1.469-.435 1.809-.985.767-1.242.421-1.242-1.5 0m8.089.833c-.73 1.364-.63 1.834.39 1.834.755 0 1.309-.825 1.233-1.834-.075-1.008-.251-1.833-.39-1.833-.138 0-.693.825-1.233 1.833M53.5 111.055c-1.876.755-1.883.809-.11.875 1.039.038 2.526.857 3.305 1.82 1.255 1.552 1.28 1.467.225-.75-.655-1.375-1.242-2.556-1.305-2.624s-1.015.237-2.115.679m11.905.712c2.26 2.649 2.262 2.65 2.262.733 0-.825-.221-1.279-.492-1.009-.27.271-1.207-.059-2.083-.732-.975-.75-.854-.36.313 1.008M185.158 114c0 1.375.227 1.938.504 1.25.278-.687.278-1.812 0-2.5-.277-.687-.504-.125-.504 1.25m-138.716-.094c.308.498 1.46.671 2.559.383 2.752-.719 2.504-1.289-.56-1.289-1.407 0-2.307.408-1.999.906m45.43 1.844c-1.243 1.586-1.208 1.621.378.378 1.666-1.307 2.195-2.128 1.372-2.128-.207 0-.995.787-1.75 1.75m88.878-1.088c.688.278 1.813.278 2.5 0 .688-.277.125-.504-1.25-.504s-1.937.227-1.25.504M37 118.108c0 .683-.96.868-2.5.481-1.442-.361-2.5-.196-2.5.392 0 .56 1.35 1.019 3 1.019q3 0 3-1.5c0-.825-.225-1.5-.5-1.5s-.5.499-.5 1.108m59.733.016c.679.684 1.486.991 1.793.683.308-.308-.247-.867-1.233-1.243-1.425-.542-1.54-.428-.56.56M21.5 119c-1.63.701-1.688.872-.309.93.93.038 1.969-.38 2.309-.93.711-1.15.676-1.15-2 0m173.5.393c0 .216.675.652 1.5.969s1.5.139 1.5-.393c0-.533-.675-.969-1.5-.969s-1.5.177-1.5.393M15.5 123c1.1.473 3.125.846 4.5.83l2.5-.029L20 123c-1.375-.44-3.4-.814-4.5-.83l-2-.029zm6.829 6.637c.357.625-.021 1.692-.84 2.372S20 133.695 20 134.245c0 .61.523.566 1.342-.114.738-.612 1.563-.893 1.833-.623s.425-.4.345-1.488-.527-2.326-.993-2.75-.555-.258-.198.367M11 133.969c0 .532.675.709 1.5.393.825-.317 1.5-.753 1.5-.969s-.675-.393-1.5-.393-1.5.436-1.5.969"/></svg>