<svg xmlns="http://www.w3.org/2000/svg" width="32" height="32" version="1.1" fill="#000000"><path fill-opacity=".251" d="M 7.859 2.158 C -6 10.194, -0.051 32, 16 32 C 24.913 32, 33 23.628, 33 14.400 C 33 11.915, 32.638 10.106, 32.194 10.380 C 31.751 10.654, 30.589 9.392, 29.611 7.576 C 25.819 0.535, 15.213 -2.107, 7.859 2.158 M 0.300 16 C 0.300 19.025, 0.487 20.263, 0.716 18.750 C 0.945 17.238, 0.945 14.763, 0.716 13.250 C 0.487 11.738, 0.300 12.975, 0.300 16" stroke="none" fill="#000000" fill-rule="evenodd"/><path fill-opacity=".262" d="M 9.450 1.407 C -0.639 5.801, -3.022 19.213, 4.882 27.118 C 13.138 35.373, 25.681 32.772, 31.033 21.695 C 33.092 17.434, 33.758 10.414, 32 11.500 C 31.450 11.840, 31 11.451, 31 10.636 C 31 8.299, 25.916 2.863, 22.329 1.364 C 18.254 -0.338, 13.420 -0.322, 9.450 1.407 M 12.200 7.200 C 10.149 9.251, 10.863 10.409, 15.886 13.178 C 19.492 15.166, 21.034 15.566, 21.872 14.728 C 23.948 12.652, 23.017 10.519, 19.044 8.250 C 14.511 5.662, 13.841 5.559, 12.200 7.200 M 0.272 16 C 0.272 18.475, 0.467 19.488, 0.706 18.250 C 0.944 17.012, 0.944 14.988, 0.706 13.750 C 0.467 12.512, 0.272 13.525, 0.272 16 M 13.750 16.569 C 12.238 17.391, 11 18.739, 11 19.563 C 11 22.141, 14.038 22.380, 18.606 20.161 C 23.103 17.976, 24.375 16.068, 21.250 16.196 C 20.288 16.235, 18.825 15.999, 18 15.671 C 17.175 15.343, 15.262 15.747, 13.750 16.569 M 11 23.999 C 11 25.163, 14.726 26.287, 15.991 25.506 C 17.893 24.330, 16.999 23.304, 14 23.219 C 12.350 23.172, 11 23.523, 11 23.999" stroke="none" fill="#000000" fill-rule="evenodd"/><path fill-opacity=".532" d="M 8.962 2.250 C 4.159 4.672, 0 11.053, -0 16 C -0 20.947, 4.159 27.328, 8.962 29.750 C 14.573 32.580, 17.427 32.580, 23.038 29.750 C 26.364 28.073, 28.180 26.227, 30.169 22.500 C 32.485 18.161, 34.133 10.534, 32.375 12.292 C 32.031 12.635, 30.794 11.023, 29.625 8.708 C 27.330 4.163, 20.816 -0, 16 -0 C 14.583 -0, 11.416 1.012, 8.962 2.250 M 12.250 6.662 C 9.896 7.612, 10.944 10.920, 14.120 12.562 L 17.240 14.176 14.120 16.073 C 11.588 17.613, 11 18.626, 11 21.450 C 11 25.671, 13.528 27.550, 16.390 25.457 C 17.413 24.709, 18.014 23.478, 17.724 22.722 C 17.401 21.883, 18.480 20.658, 20.498 19.571 C 23.242 18.093, 23.800 17.216, 23.800 14.380 C 23.800 11.424, 23.233 10.635, 19.562 8.484 C 15.256 5.960, 14.473 5.765, 12.250 6.662 M 0.232 16 C 0.232 17.925, 0.438 18.712, 0.689 17.750 C 0.941 16.788, 0.941 15.213, 0.689 14.250 C 0.438 13.287, 0.232 14.075, 0.232 16" stroke="none" fill="#000000" fill-rule="evenodd"/><path fill-opacity=".212" d="M 11.594 1.041 C 7.391 2.299, 2.123 7.830, 0.938 12.230 C -1.992 23.113, 8.958 33.973, 19.892 31.029 C 24.257 29.854, 31 23.192, 31 20.056 C 31 18.990, 31.450 17.840, 32 17.500 C 32.550 17.160, 33 15.982, 33 14.882 C 33 13.782, 32.550 13.160, 32 13.500 C 31.450 13.840, 31 13.193, 31 12.062 C 31 8.955, 24.353 2.192, 20.152 1.025 C 15.963 -0.138, 15.534 -0.137, 11.594 1.041 M 12.750 6.080 C 10.226 7.550, 10.598 10.540, 13.574 12.708 L 16.148 14.583 13.574 15.960 C 11.519 17.060, 11 18.086, 11 21.047 C 11 25.611, 12.983 27.615, 15.936 26.034 C 17.071 25.427, 18 24.057, 18 22.990 C 18 21.847, 19.231 20.415, 21 19.500 C 23.520 18.197, 24 17.352, 24 14.217 C 24 10.859, 23.546 10.211, 19.459 7.743 C 16.962 6.234, 14.824 5.014, 14.709 5.030 C 14.594 5.047, 13.713 5.519, 12.750 6.080 M 0.158 16 C 0.158 17.375, 0.385 17.938, 0.662 17.250 C 0.940 16.563, 0.940 15.438, 0.662 14.750 C 0.385 14.063, 0.158 14.625, 0.158 16" stroke="none" fill="#000000" fill-rule="evenodd"/></svg>