<!-- Generated by IcoMoon.io -->
<svg version="1.1" xmlns="http://www.w3.org/2000/svg" width="32" height="32" viewBox="0 0 32 32" fill="#000000">
<title>krl</title>
<path d="M7.504 5.105v3.857h-2.726l-1.035 3.232c-0.569 1.778-1.035 3.319-1.035 3.426 0 0.136 0.725 0.194 2.398 0.194h2.398v2.398h-5.411l-1.009 3.212c-0.555 1.767-1.042 3.308-1.081 3.426-0.056 0.167 0.761 0.214 3.715 0.214h3.787v5.653h8.736v-4.776l0.868-0.995c0.478-0.547 0.921-1.012 0.985-1.034s1.119 1.501 2.343 3.382l2.227 3.421 9.336 0.001-0.001-0.471c-0.001-0.318-0.629-1.389-1.932-3.297-1.062-1.555-2.951-4.32-4.197-6.146l-2.266-3.32 0.919-1.048c5.015-5.721 7.135-8.253 7.135-8.522 0-0.305-0.224-0.32-4.681-0.32h-4.68l-1.615 1.84c-0.888 1.012-2.231 2.531-2.985 3.376l-1.37 1.537-0.171-13.005-8.651-0.091v3.857z"/>
</svg>
