<svg xmlns="http://www.w3.org/2000/svg" width="200" height="200" fill="#000000"><path fill-opacity=".129" fill-rule="evenodd" d="M75.435.895C76.093 1.959 73.715 3 70.63 3c-1.214 0-3.921.874-6.016 1.942s-5.11 2.228-6.7 2.577-3.152 1.057-3.471 1.573-2.124 1.584-4.011 2.372C48.544 12.253 47 13.371 47 13.949S46.365 15 45.59 15C41.477 15 15 40.844 15 44.858c0 .574-.562 1.402-1.25 1.842-1.927 1.233-9.27 16.695-10.255 21.593-1.118 5.564-1.613 6.752-2.567 6.163C.366 74.108 0 84.193 0 100s.366 25.892.928 25.544c.969-.598 1.462.619 2.613 6.456.379 1.925 1.013 3.95 1.407 4.5s1.34 2.575 2.102 4.5c1.902 4.805 5.924 11.677 11.401 19.482C23.879 168.218 42.456 185 45.59 185c.775 0 1.41.473 1.41 1.051s1.544 1.696 3.432 2.485 3.692 1.856 4.011 2.372 1.881 1.224 3.471 1.573 4.605 1.509 6.7 2.577S69.416 197 70.63 197c3.085 0 5.463 1.041 4.805 2.105-.32.517 9.76.895 23.899.895 19.693 0 24.554-.265 24.974-1.36.288-.752 2.747-1.655 5.501-2.02 2.739-.364 5.533-1.327 6.208-2.14s2.237-1.48 3.471-1.48 3.315-.805 4.627-1.79c1.312-.984 3.51-2.331 4.885-2.993 14.353-6.906 32.974-25.712 39.505-39.899.806-1.75 1.887-3.442 2.403-3.761s1.248-2.037 1.626-3.818c.379-1.782 1.327-3.965 2.108-4.852s1.695-3.938 2.032-6.779c.641-5.412 1.947-7.315 3.422-4.986.509.802.823-9.693.753-25.122-.067-14.575-.32-25.462-.562-24.192-.753 3.937-2.746 1.788-3.555-3.834-.424-2.948-1.387-6.06-2.14-6.917-.753-.856-1.673-2.988-2.045-4.738-.372-1.749-1.322-3.717-2.111-4.372-.79-.656-1.436-1.65-1.436-2.209 0-2.255-11.129-17.637-17.091-23.623-7.228-7.257-16.416-14.208-22.909-17.332-1.375-.662-3.573-2.009-4.885-2.993-1.312-.985-3.394-1.79-4.627-1.79-1.234 0-2.796-.666-3.471-1.48-.675-.813-3.469-1.776-6.208-2.14-2.754-.365-5.213-1.268-5.501-2.02C123.888.265 119.027 0 99.334 0 85.195 0 75.115.378 75.435.895M92.695 60c-.373 3.025-.682 7.376-.686 9.669-.013 6.32-2.477 9.617-9.953 13.319-12.677 6.278-18.295 9.816-17.536 11.044.277.448 1.817 1.103 3.422 1.455s3.456 1.288 4.111 2.077c.656.79 2.318 1.436 3.694 1.436 2.23 0 2.44-.317 1.922-2.907-.514-2.568-.179-3.098 2.875-4.547C82.445 90.644 84 89.447 84 88.887c0-.561 1.237-.877 2.75-.703 2.507.288 2.777.726 3.05 4.945.356 5.501-1.613 8.207-5.3 7.282-1.295-.325-3.165-.138-4.155.416-1.561.873-1.25 1.227 2.336 2.662 6.091 2.437 6.718 4.743 5.853 21.526-.796 15.456-.249 16.785 4.477 10.869 1.369-1.714 3.342-3.946 4.386-4.961 1.602-1.559 1.801-2.758 1.28-7.735-.836-8.004.513-9.941 5.726-8.22 2.056.678 3.979 1.863 4.274 2.633.295.769 1.328 1.399 2.295 1.399s2.867.872 4.222 1.938 3.672 2.241 5.148 2.612c1.476.37 3.015 1.262 3.421 1.982.963 1.71 5.843 2.915 6.632 1.638.338-.546-.04-2.27-.84-3.831-.799-1.562-1.661-3.561-1.916-4.442-.553-1.914-6.847-5.354-11.679-6.383-1.903-.405-4.135-1.305-4.96-1.999s-3.155-1.558-5.178-1.92-5.03-1.921-6.682-3.465c-2.901-2.709-3.015-3.152-3.322-12.886-.369-11.699-.009-12.354 10.349-18.849 3.759-2.357 5.57-4.058 4.963-4.665-1.374-1.374-6.689.634-6.385 2.411.313 1.834-7.816 2.346-8.948.565-.422-.663-.818-3.681-.881-6.706s-.437-6.625-.829-8c-.58-2.031-.841-1.468-1.392 3M120 62c0 .55.675 1 1.5 1s1.5-.45 1.5-1-.675-1-1.5-1-1.5.45-1.5 1m-8 3.941c0 1.743 1.692 2.005 3.603.559 1.797-1.361 1.753-1.438-.853-1.468-1.513-.018-2.75.391-2.75.909M.437 100c0 14.575.14 20.537.31 13.25.171-7.288.171-19.213 0-26.5-.17-7.288-.31-1.325-.31 13.25M45 159c0 1.1.45 2 1 2s1-.9 1-2-.45-2-1-2-1 .9-1 2"/><path fill-opacity=".28" fill-rule="evenodd" d="M80.482.971c.33.534-.656 1.23-2.191 1.548-10.76 2.227-29.461 10.196-34.126 14.542C43.02 18.127 41.64 19 41.097 19c-1.322 0-19.12 17.584-22.268 22C11.327 51.523 3 69.91 3 75.949c0 1.163-.675 2.373-1.5 2.689-2.245.862-2.245 41.862 0 42.724.825.316 1.5 1.526 1.5 2.689 0 2.995 4.794 16.607 7.731 21.949 7.591 13.81 21.054 28.882 32.845 36.772 9.749 6.524 23.452 12.326 34.715 14.699 1.535.323 2.521 1.024 2.191 1.558-.38.615 6.53.971 18.852.971 15.727 0 19.555-.267 19.988-1.396.301-.786 2.695-1.694 5.476-2.076 2.717-.374 6.176-1.321 7.686-2.104s3.2-1.424 3.757-1.424 3.716-1.374 7.02-3.053c24.7-12.552 42.483-32.503 50.727-56.912 1.657-4.904 3.012-10.042 3.012-11.417 0-2.958 1.856-4.454 3.096-2.496.511.806.823-7.541.753-20.122-.067-11.825-.32-20.462-.562-19.192-.691 3.616-2.682 1.984-3.512-2.879-3.598-21.077-21.019-46.532-40.586-59.306C148.8 12.8 137.909 7 136.241 7c-.557 0-2.248-.641-3.757-1.424-1.51-.783-4.969-1.73-7.686-2.104-2.781-.382-5.175-1.29-5.476-2.076C118.889.267 115.061 0 99.334 0 87.012 0 80.102.356 80.482.971m11.704 45.321c-.662 3.593-1.664 11.409-2.228 17.37-.563 5.961-1.412 11.738-1.886 12.838s-3.947 3.575-7.717 5.5-7.096 3.82-7.39 4.211-2.191 1.403-4.214 2.249c-3.155 1.318-6.612 5.049-5.582 6.025.37.35 11.02 6.016 16.666 8.865 2.016 1.017 4.681 2.787 5.922 3.931 2.403 2.215 2.444 3.824.716 27.939-.436 6.086-.316 6.662 1.273 6.1.965-.341 4.116-2.978 7.004-5.861l5.25-5.241v-7.109c0-6.87.082-7.109 2.441-7.109 1.343 0 2.742.487 3.11 1.083.368.595 2.532 1.933 4.809 2.972 5.194 2.371 16.515 8.597 18.249 10.035 1.62 1.345 3.393.351 3.385-1.899-.023-7.144-5.266-14.458-11.271-15.723-1.773-.373-4.573-1.287-6.223-2.03s-5.589-2.304-8.754-3.468-6.241-3.026-6.836-4.138-1.333-6.228-1.639-11.37l-.558-9.35 3.281-2.761c1.805-1.518 5.357-4.122 7.894-5.787 2.536-1.664 5.484-3.822 6.551-4.795 1.066-.973 2.48-1.769 3.143-1.769s1.463-.675 1.78-1.5 1.239-1.5 2.05-1.5 2.09-.879 2.843-1.953c.752-1.074 2.69-2.511 4.306-3.193l2.939-1.24-2.951-.393c-1.814-.241-3.36.168-4.014 1.062-.585.8-2.52 1.774-4.299 2.165S117 61.531 117 61.985c0 .455-3.025 2.242-6.723 3.973s-6.998 3.59-7.333 4.133c-.336.543-1.923 1.082-3.527 1.198-2.887.209-2.923.145-3.55-6.289-.348-3.575-.717-9.875-.82-14-.272-10.876-1.386-12.71-2.861-4.708M133 54c0 .55.45 1 1 1s1-.45 1-1-.45-1-1-1-1 .45-1 1M.425 100c0 11.825.144 16.663.321 10.75.177-5.912.177-15.587 0-21.5C.569 83.338.425 88.175.425 100M85 89.879c0 .483-1.35 1.438-3 2.121-3.45 1.429-3.337 1.167-1.882 4.359 1.09 2.392 4.848 3.94 6.655 2.74 1.508-1.001 2.15-5.171 1.186-7.706C87.09 89.106 85 88.037 85 89.879M61.015 158.75c-.008 2.887.435 5.25.985 5.25 1.279 0 1.279-7.021 0-9-.694-1.074-.974-.008-.985 3.75m-16.586-1.322c-.768 3.058.367 6.806 1.906 6.294 1.484-.494 2.014-3.196 1.235-6.301-.781-3.11-2.36-3.106-3.141.007M73 159c0 1.1.45 2 1 2s1-.9 1-2-.45-2-1-2-1 .9-1 2m12 1.441c0 3.902 1.395 5.413 2.588 2.803 1.154-2.523 1.133-4.636-.053-5.479-1.948-1.383-2.535-.763-2.535 2.676m64.736-2.843c-.329.329-.364 1.207-.078 1.953.409 1.066.919 1.106 2.391.186 1.359-.848 1.54-1.379.661-1.937-1.474-.937-2.191-.986-2.974-.202m-23.736.785c0 .211.9.619 2 .907 1.1.287 2 .115 2-.384 0-.498-.9-.906-2-.906s-2 .173-2 .383"/><path fill-opacity=".268" fill-rule="evenodd" d="M84.698 1.344c-.283.739-3.819 2.05-7.857 2.913C63.981 7.007 57.911 9.612 45 17.924c-7.746 4.987-24 19.913-24 22.039 0 .486-1.07 2.156-2.379 3.71C13.134 50.195 6.929 63.732 4.491 74.5c-1.76 7.772-2.5 9.612-3.596 8.935C.382 83.118 0 90.178 0 100s.382 16.882.895 16.565c1.096-.677 1.836 1.163 3.596 8.935 2.438 10.768 8.643 24.305 14.13 30.827 1.309 1.554 2.379 3.224 2.379 3.71 0 1.498 15.244 16.467 19.91 19.55l7 4.627c7.495 4.961 20.267 10.027 29.928 11.871 3.486.665 6.571 1.818 6.857 2.562.404 1.054 3.827 1.353 15.471 1.353 9.144 0 14.725-.367 14.367-.946-.525-.849 5.274-3.034 8.089-3.048 2.922-.015 17.292-5.453 24.184-9.152 25.49-13.679 42.954-36.924 49.046-65.28 1.656-7.705 3.496-10.551 4.448-6.879.257.993.453-6.07.434-15.695-.018-9.625-.224-16.236-.456-14.691-.734 4.885-2.663 2.322-4.427-5.883-2.202-10.239-4.344-16.185-9.159-25.426-12.827-24.616-38.076-43.541-65.838-49.347-3.753-.785-6.252-1.805-6.104-2.491.389-1.807-29.358-1.627-30.052.182m6.974 31.809c-1.316 3.039-2.036 8.806-2.776 22.225-.549 9.967-1.411 19.124-1.916 20.349-.878 2.134-4.11 4.201-12.23 7.819C72.688 84.465 71 85.57 71 86s-1.237 1.09-2.75 1.466c-3.215.798-7.25 4.281-7.25 6.259 0 .758 1.544 2.022 3.432 2.811 1.887.788 3.692 1.856 4.011 2.372s1.925 1.234 3.568 1.595S75 101.524 75 101.971c0 .446 1.688 1.523 3.75 2.393s4.784 2.471 6.048 3.558c2.252 1.937 2.278 2.18 1.302 12.277-1.565 16.189-1.873 21.206-1.386 22.551.926 2.557 3.684 1.073 9.899-5.329l6.387-6.578v-6.922c0-3.806.41-6.921.912-6.921.762 0 11.786 5.846 17.088 9.061.825.5 2.908 1.545 4.628 2.322s3.434 1.909 3.809 2.515c.793 1.284 5.207 1.488 5.956.276.995-1.61-2.509-13.668-4.626-15.922-1.182-1.259-4.201-2.936-6.708-3.727-7.037-2.221-17.326-6.045-19.684-7.316-1.786-.963-2.275-2.544-3.065-9.918-1.188-11.078-.932-12.239 3.369-15.291 1.938-1.375 4.305-3.175 5.26-4s2.425-1.95 3.268-2.5c.842-.55 4.794-3.25 8.783-6s7.994-5.45 8.9-6 2.651-2.013 3.879-3.25C133.996 56.013 135.45 55 136 55c1.585 0 1.161-2.001-.564-2.663-1.442-.553-6.106 1.521-15.738 7-8.585 4.884-21.91 11.783-22.179 11.483-.159-.176-.815-9.32-1.457-20.32s-1.494-20.326-1.89-20.725c-.397-.399-1.522 1.122-2.5 3.378M.411 100c0 9.625.15 13.563.334 8.75.183-4.813.183-12.688 0-17.5-.184-4.812-.334-.875-.334 8.75m82.839-7.78c-1.237.597-2.25 1.676-2.25 2.398C81 95.913 83.973 98 85.818 98c1.206 0 2.216-3.749 1.507-5.596-.626-1.63-1.036-1.649-4.075-.184m-24.274 61.804c-1.655 1.655-1.976 2.762-1.394 4.813.415 1.464.792 3.681.836 4.925.12 3.329 3.521 4.032 5.814 1.2 1.084-1.339 1.573-2.951 1.177-3.877-.374-.872-.957-3.123-1.298-5.003-.765-4.226-2.337-4.856-5.135-2.058m52.247-.467c-1.721 1.205-2.223 2.544-2.223 5.928 0 4.737 1.875 7.515 5.071 7.515 2.366 0 2.407-.93.242-5.469-1.605-3.366-1.597-3.603.163-4.89 1.131-.827 1.604-1.99 1.218-2.996-.785-2.047-1.651-2.064-4.471-.088m-66.985.605c-1.51 1.51-1.649 9.466-.181 10.373.582.36 2.159.775 3.505.922 2.397.264 2.438.146 2.027-5.844-.342-4.988-.759-6.166-2.266-6.401-1.015-.159-2.404.269-3.085.95m28.171 2.345c-.76 3.029.323 9.493 1.591 9.493s2.351-6.464 1.591-9.493C75.245 155.128 74.529 154 74 154s-1.245 1.128-1.591 2.507m11.419.972c-1.455 3.193.069 8.877 2.505 9.347 2.854.549 4.667-1.771 4.667-5.973 0-3.269-.416-4.061-2.565-4.878-3.415-1.298-3.316-1.331-4.607 1.504m65.1-.892c-.704.847-.897 2.763-.496 4.902.538 2.866 1.103 3.511 3.078 3.511 2.734 0 4.782-2.967 4.303-6.234-.397-2.702-5.192-4.219-6.885-2.179m-52.131.522c-.553 1.659.319 7.891 1.104 7.891.375 0 1.439-1.669 2.363-3.708 1.292-2.851 1.398-3.888.458-4.485-1.757-1.116-3.497-.982-3.925.302m27.522.501c-.34.886-.213 3.249.282 5.25.735 2.976 1.355 3.64 3.399 3.64s2.664-.664 3.399-3.64c1.234-4.994.31-6.86-3.399-6.86-1.893 0-3.299.615-3.681 1.61m13.036.907c-.817 2.13.339 4.538 1.893 3.941.728-.279 1.323-1.385 1.323-2.458 0-2.399-2.434-3.521-3.216-1.483"/><path fill-opacity=".163" fill-rule="evenodd" d="M91.678 1.396c-.327.854-3.382 1.845-7.857 2.549-4.026.633-8.671 1.628-10.321 2.211-1.65.582-5.025 1.573-7.5 2.202-2.475.628-5.613 1.929-6.973 2.892S55.939 13 55.185 13c-.753 0-2.514.9-3.912 2s-3.141 2-3.873 2c-.731 0-1.811.9-2.4 2s-1.579 2-2.201 2-1.844.656-2.715 1.458-3.569 3.164-5.995 5.25-6.597 6.492-9.267 9.792-5.466 6.675-6.212 7.5-1.656 2.472-2.022 3.66-1.323 2.705-2.127 3.372S13 54.029 13 54.988s-.9 2.886-2 4.285c-1.1 1.398-2.015 3.371-2.034 4.385S8.063 67.3 7 69.5s-1.947 5.263-1.966 6.807C4.979 80.873 2.826 88.13 1.36 88.692c-2.094.804-1.932 21.169.18 22.714.901.659 2.12 4.444 2.936 9.123.768 4.398 2.097 9.341 2.954 10.984s1.56 3.816 1.564 4.829c.003 1.014.906 2.987 2.006 4.385 1.1 1.399 2 3.327 2 4.285s.658 2.289 1.461 2.956c.804.667 1.761 2.184 2.127 3.372s1.276 2.835 2.022 3.66 3.542 4.2 6.212 7.5a85.5 85.5 0 0 0 15.617 15c1.478 1.1 3.433 2.787 4.346 3.75s2.174 1.75 2.802 1.75 2.287.9 3.686 2c1.398 1.1 3.198 2 4 2 .801 0 2.601.9 4 2 1.398 1.1 3.371 2.02 4.385 2.044s3.642.734 5.842 1.578c2.2.843 7.825 2.185 12.5 2.98 4.84.824 8.978 2.082 9.61 2.922.81 1.077 3.191 1.476 8.809 1.476 4.277 0 7.453-.398 7.146-.895-.787-1.273 1.794-2.132 10.935-3.638 7.584-1.249 16.21-3.733 19.5-5.614.825-.472 2.625-1.306 4-1.855s3.175-1.456 4-2.018 2.886-1.66 4.58-2.442 3.661-2.123 4.372-2.98 1.688-1.558 2.17-1.558c.483 0 1.71-.787 2.727-1.75s4.055-3.813 6.75-6.335c5.1-4.771 12.401-12.741 12.401-13.537 0-.252.9-1.791 2-3.418l3.956-5.86c1.075-1.595 2.245-4.051 2.598-5.459s1.273-3.083 2.044-3.722c.771-.64 1.402-2.263 1.402-3.606s.864-4.551 1.92-7.128 2.211-7.16 2.566-10.185c1.58-13.456 3.703-18.113 4.787-10.5.235 1.65.419-2.175.409-8.5s-.198-9.7-.417-7.5c-.893 8.955-3.135 4.497-4.779-9.5-.355-3.025-1.51-7.608-2.566-10.185S191 66.03 191 64.687s-.631-2.966-1.402-3.606-1.691-2.315-2.044-3.722-1.523-3.864-2.598-5.459L181 46.04c-1.1-1.627-2-3.166-2-3.418 0-.796-7.301-8.766-12.401-13.537a2389 2389 0 0 1-6.75-6.335c-1.017-.962-2.229-1.75-2.694-1.75s-1.66-.9-2.655-2-2.355-2-3.02-2c-.666 0-2.283-.838-3.595-1.862s-3.51-2.203-4.885-2.619c-1.375-.415-3.175-1.32-4-2.011-.825-.69-3.3-1.577-5.5-1.971s-4.513-1.14-5.139-1.657-5.352-1.615-10.5-2.439c-5.559-.889-9.812-2.095-10.471-2.969-1.534-2.033-14.936-2.098-15.712-.076m-2.647 25.022c-.506 1.33-1.238 12.693-1.627 25.25-.659 21.286-.849 22.983-2.806 25.065-1.154 1.228-2.825 2.24-3.713 2.25S78.126 79.9 76.727 81c-1.398 1.1-3.189 2-3.98 2s-2.252.9-3.247 2-2.58 2-3.52 2c-.941 0-2.92.952-4.4 2.115-3.091 2.432-3.127 5.625-.08 7.243 1.1.584 3.219 1.867 4.71 2.852 1.49.984 3.407 1.79 4.259 1.79s2.321.9 3.263 2 2.505 2 3.474 2 3.041 1.237 4.604 2.75l2.841 2.75-.987 16.303c-.841 13.903-.771 16.518.477 17.767 1.177 1.177 2.09 1.245 4.662.349 1.758-.613 3.197-1.538 3.197-2.056s2.25-3.156 5-5.863c5.186-5.105 5.38-5.682 5.008-14.907-.166-4.102-.064-4.292 1.478-2.75.911.912 2.529 1.657 3.595 1.657s2.709.9 3.651 2 2.444 2 3.337 2 2.663.9 3.931 2 2.996 2 3.839 2c.842 0 2.461.859 3.597 1.909 1.135 1.051 3.864 2.063 6.064 2.25 3.762.321 4.02.169 4.33-2.55.182-1.591-.151-3.189-.738-3.552-.588-.363-1.515-3.013-2.06-5.888-1.156-6.096-4.803-10.169-9.107-10.169-1.53 0-3.466-.684-4.303-1.521s-3.668-1.922-6.292-2.412-4.93-1.367-5.123-1.947-1.831-1.334-3.639-1.673l-3.287-.617-.595-10.165c-.508-8.679-.36-10.311 1.012-11.165.884-.55 2.314-1.787 3.177-2.75.863-.962 2.159-1.75 2.879-1.75s1.552-.634 1.849-1.408c.297-.775 1.858-1.955 3.469-2.622S116 71.351 116 70.854s1.125-1.331 2.5-1.854 2.5-1.377 2.5-1.898 1.575-1.467 3.5-2.102 3.5-1.581 3.5-2.102 1.125-1.375 2.5-1.898 2.5-1.391 2.5-1.928c0-.538 1.575-1.726 3.5-2.639 2.821-1.339 3.5-2.227 3.5-4.578 0-3.529-2.37-4.735-4.866-2.476-.985.891-2.548 1.621-3.473 1.621s-2.451.9-3.393 2-2.444 2-3.337 2-2.663.9-3.931 2-2.843 2-3.5 2-2.232.9-3.5 2-3.115 2-4.103 2c-.989 0-2.192.705-2.674 1.566-.848 1.516-8.184 3.806-9.138 2.853-.259-.259-.766-9.618-1.128-20.798s-.977-20.844-1.366-21.474c-1.325-2.143-5.575-1.319-6.56 1.271M.378 100c0 6.325.163 8.912.361 5.75s.198-8.338 0-11.5-.361-.575-.361 5.75M82 94c0 .55.675 1 1.5 1s1.826.034 2.225.075.886-.409 1.083-1S86.004 93 84.583 93 82 93.45 82 94m-38.777 58.557c-1.828 1.28-2.223 2.511-2.223 6.928 0 6.652 1.732 8.748 6.874 8.318l3.626-.303.134-7c.073-3.85-.319-7.562-.873-8.25-1.377-1.711-4.86-1.569-7.538.307m13.769-.047c-1.928 2.323-1.405 13.68.702 15.24 2.417 1.79 4.655 1.55 7.671-.823 2.703-2.126 3.808-7.927 1.51-7.927-.715 0-.908-1.086-.529-2.98.459-2.296.158-3.215-1.309-4-2.77-1.483-6.602-1.249-8.045.49m51.565.713c-2.336 3.334-2.046 11.288.504 13.838 2.894 2.894 6.85 2.209 9.011-1.561 2.059-3.59 1.543-11.318-.884-13.25-2.522-2.007-6.889-1.515-8.631.973M72.2 153.2c-1.369 1.369-1.605 11.613-.315 13.648.47.742 1.701 1.188 2.735.991 1.517-.289 1.94-1.407 2.189-5.795.505-8.88-1.235-12.218-4.609-8.844m64.87.215c-3.921 4.725-1.454 15.424 3.236 14.034 2.987-.886 4.694-3.284 4.694-6.593 0-3.042-1.887-7.856-3.079-7.856-.416 0-1.397-.245-2.179-.546-.782-.3-1.984.133-2.672.961m-52.99.988c-2.12 2.555-3.012 7.494-1.918 10.631 2.027 5.815 9.225 4.749 10.405-1.54.998-5.322-.115-8.141-3.71-9.394-3.855-1.344-3.385-1.374-4.777.303m15.42-.617c-3.279.703-4.5 2.269-4.5 5.771 0 4.525 1.628 8.443 3.507 8.443 1.499 0 3.65-3.828 2.887-5.137-.205-.35.298-1.192 1.117-1.872 1.812-1.504 1.952-5.397.239-6.69-.687-.519-2.15-.751-3.25-.515m48.747.367c-1.593 1.593-1.628 11.066-.047 12.647.66.66 2.37 1.2 3.8 1.2s3.14-.54 3.8-1.2c1.586-1.586 1.544-10.269-.056-11.597-2.178-1.808-6.179-2.368-7.497-1.05M124.2 155.2c-1.774 1.774-1.514 10.343.371 12.229 3.978 3.978 8.429.651 8.429-6.3 0-5.355-1.244-7.129-5-7.129-1.43 0-3.14.54-3.8 1.2"/></svg>