<svg xmlns="http://www.w3.org/2000/svg" width="200" height="200" fill="#000000"><path fill-opacity=".192" fill-rule="evenodd" d="M81 1.941c-11.036 2.282-16.735 4.262-26.416 9.177C4.462 36.566-14.766 98.825 12.31 148c6.913 12.556 19.343 26.646 29.69 33.656 36.109 24.461 79.692 24.468 116 .018 6.989-4.707 20.193-18.436 25.172-26.174 7.811-12.14 12.488-23.479 14.849-36 .726-3.85 1.693-7.427 2.15-7.95 1.094-1.254 1.078-24.822-.017-24.145-.466.288-1.414-2.65-2.107-6.529-3.147-17.608-12.579-35.857-25.936-50.175-8.969-9.615-26.039-20.599-39.111-25.165C117.579.148 96.663-1.298 81 1.941M134.315 72.8c-3.688 1.181-7.172 4.922-7.825 8.403-.342 1.822-.48 11.559-.306 21.639l.316 18.327 3.266 2.915 3.266 2.916H147c13.946 0 13.974-.005 17.16-2.851 2.79-2.493 3.247-3.624 3.636-9l.444-6.149H160v4.393c0 3.083-.472 4.574-1.582 5-2.057.789-20.779.789-22.836 0-1.361-.522-1.582-3.103-1.582-18.465C134 78.824 133.233 80 147 80c11.586 0 13 .711 13 6.535V91h8v-4.351c0-5.856-1.533-9.742-4.792-12.149-2.309-1.706-4.474-2.029-14.708-2.2-6.6-.109-12.983.116-14.185.5M32 85.5V98h9.935c5.464 0 11.202-.477 12.75-1.06 2.608-.983 23.219-21.509 23.285-23.19.017-.412-2.241-.75-5.018-.75-4.227 0-5.458.447-7.573 2.75C52.431 89.849 52.225 90 45.889 90H40V73h-8zM83 77v4h14v47h8V73H83zm26 0v4h12v-8h-12zM.385 100c0 6.875.16 9.688.355 6.25.196-3.437.196-9.062 0-12.5-.195-3.437-.355-.625-.355 6.25M32 114.5V127h8v-17h5.066c5.874 0 8.107.999 11.956 5.347C68.28 128.067 68.191 128 73.884 128h5.302l-3.987-4.75c-2.194-2.612-7.346-8.168-11.45-12.346-8.414-8.565-9.284-8.904-22.874-8.904H32z"/><path fill-opacity=".015" fill-rule="evenodd" d="M15.014 47.859C2.396 69.1-2.543 94.168 1.562 116.14c6.172 33.031 24.649 58.349 53.12 72.788 10.084 5.113 14.647 6.67 26.642 9.09 12.48 2.518 24.872 2.518 37.352 0 11.995-2.42 16.558-3.977 26.642-9.09 27.933-14.166 47.424-40.539 52.789-71.428.669-3.85 1.593-7.428 2.054-7.95 1.014-1.148 1.141-21.185.128-20.172-.391.391-1.483-3.337-2.426-8.283-1.977-10.364-7.017-23.371-12.877-33.236L180.911 41H19.089zM32 85.5V99h7.841c13.678 0 16.058-1.214 28.831-14.702L79.845 72.5l-5.532-.303-5.533-.303-8.64 9.058-8.64 9.059-5.75-.006L40 90V72h-8zm101.238-12.464c-1.244.499-3.269 1.846-4.5 2.991-2.152 2.003-2.25 2.857-2.548 22.177-.333 21.643.052 23.924 4.608 27.296 2.388 1.768 4.269 2 16.202 2 11.939 0 13.81-.231 16.182-2 3.593-2.68 4.818-5.616 4.818-11.547V109h-4c-3.965 0-4 .033-4 3.8 0 2.09-.54 4.34-1.2 5-1.646 1.646-21.954 1.646-23.6 0-.84-.84-1.2-6.354-1.2-18.393 0-14.755.224-17.279 1.582-17.8 2.057-.789 20.779-.789 22.836 0 1.11.426 1.582 1.917 1.582 5V91h8.233l-.413-6.486c-.443-6.953-2.083-9.523-7.359-11.529-3.22-1.224-24.148-1.185-27.223.051M83 77v4h14v47h8V73H83zm26 0v4h12v-8h-12zM.37 100c0 5.775.165 8.138.367 5.25s.202-7.612 0-10.5S.37 94.225.37 100M32 115v13h8v-18h11.283l8.664 9 8.664 9h5.278c2.903 0 5.128-.387 4.944-.86-1.052-2.714-21.557-23.197-24.115-24.089-1.659-.578-7.449-1.051-12.867-1.051H32z"/><path fill-opacity=".054" fill-rule="evenodd" d="M.63 90.25c-1.095 4.088-.654 16.349.913 25.369 5.718 32.91 24.624 58.884 53.386 73.345 24.851 12.495 49.166 14.096 78.716 5.184 5.348-1.613 19.226-8.99 25.183-13.387 20.794-15.346 35.167-38.537 39.207-63.261.629-3.85 1.554-7.781 2.055-8.736 1.271-2.426 1.19-19.055-.09-18.264-.55.34-1-.084-1-.941 0-1.345-2.128-1.559-15.5-1.559-13.111 0-15.5.231-15.5 1.5 0 1.083-1.111 1.5-4 1.5s-4-.417-4-1.5c0-1.256-2.111-1.5-13-1.5h-13v14.3c0 9.789.379 14.679 1.2 15.5.782.782 4.889 1.2 11.8 1.2s11.018-.418 11.8-1.2c.66-.66 1.2-2.91 1.2-5 0-3.767.035-3.8 4-3.8h4v4.953c0 5.931-1.225 8.867-4.818 11.547-2.372 1.769-4.243 2-16.182 2s-13.81-.231-16.182-2c-4.301-3.208-4.818-5.573-4.818-22.047V88h-21v40h-8V88H65.47l-4.249 4.385C56.164 97.603 51.694 99 40.057 99H32V88H16.617C1.509 88 1.222 88.04.63 90.25M40 89c0 .55 2.448 1 5.441 1s5.719-.45 6.059-1c.386-.625-1.656-1-5.441-1-3.373 0-6.059.443-6.059 1M.36 100c0 5.225.169 7.362.375 4.75s.206-6.888 0-9.5S.36 94.775.36 100M32 114.5V128h8v-18h4.55c6.247 0 8.867 1.624 16.797 10.412L68.194 128h5.403c2.972 0 5.4-.338 5.395-.75-.004-.412-5.066-6.001-11.25-12.42-10.572-10.974-11.558-11.734-16.541-12.75-2.915-.594-8.427-1.08-12.25-1.08H32z"/><path fill-opacity=".115" fill-rule="evenodd" d="M7 135.522c0 1.708 6.614 14.631 10.388 20.295 15.005 22.522 38.076 37.315 66.472 42.621 36.815 6.879 77.462-10.664 98.752-42.621C186.386 150.153 193 137.23 193 135.522c0-.287-41.85-.522-93-.522s-93 .235-93 .522"/></svg>