<svg xmlns="http://www.w3.org/2000/svg" width="64" height="64" version="1.1" fill="#000000"><path fill-opacity=".392" d="M 41.591 11.852 C 41.258 12.392, 38.384 12.573, 35.006 12.267 C 27.323 11.570, 21.362 13.750, 16.630 18.988 C 9.092 27.332, 9.319 38.051, 17.215 46.617 C 22.330 52.166, 29.396 54.587, 36.120 53.094 C 38.529 52.559, 41.400 52.207, 42.500 52.311 C 43.879 52.441, 44.413 51.973, 44.218 50.802 C 44.063 49.868, 44.807 48.639, 45.870 48.070 C 48.661 46.576, 53 37.266, 53 32.772 C 53 27.946, 50.688 22.332, 47.197 18.677 C 45.714 17.124, 44.500 14.914, 44.500 13.765 C 44.500 11.532, 42.573 10.264, 41.591 11.852" stroke="none" fill="#000000" fill-rule="evenodd"/><path fill-opacity=".271" d="M 41.276 12.471 C 40.596 13.686, 39.750 13.789, 36.971 12.992 C 31.540 11.434, 28.968 11.969, 33.750 13.662 C 38.561 15.365, 39.282 17.718, 36 21 C 33.626 23.374, 32 23.578, 32 21.500 C 32 19.692, 30.637 19.585, 28.068 21.190 C 24.526 23.402, 21.180 18.220, 24.200 15.200 C 26.157 13.243, 23.869 13.832, 20.472 16.160 C 15.176 19.788, 12.625 24.487, 12.212 31.369 C 11.755 38.994, 14.642 45.083, 20.756 49.390 C 25.374 52.643, 32.980 53.900, 37.824 52.211 C 39.839 51.509, 41.106 51.506, 41.803 52.203 C 43.042 53.442, 45.288 52.275, 44.407 50.850 C 44.063 50.293, 44.904 48.637, 46.277 47.169 C 50.226 42.944, 52 38.511, 52 32.865 C 52 27.094, 48.991 19.636, 45.878 17.692 C 44.845 17.047, 44 15.529, 44 14.318 C 44 11.555, 42.397 10.468, 41.276 12.471 M 42.250 20.651 C 41.563 20.935, 41 22.500, 41 24.129 C 41 27.873, 45.150 32.260, 48.271 31.817 C 51.367 31.377, 51.567 28.137, 48.757 23.967 C 46.456 20.553, 44.680 19.648, 42.250 20.651" stroke="none" fill="#000000" fill-rule="evenodd"/><path fill-opacity=".248" d="M 40.901 13.329 C 40.021 14.523, 38.359 17.637, 37.207 20.250 C 34.915 25.447, 32 26.707, 32 22.500 C 32 19.347, 29.262 19.131, 28.820 22.250 C 28.543 24.201, 27.998 24.456, 24.729 24.169 C 21.093 23.851, 20.884 24.008, 18.861 28.582 C 16.522 33.870, 16.788 41.755, 19.480 46.962 C 21.958 51.753, 31.318 54.350, 37.557 51.979 C 39.459 51.255, 40.642 51.288, 41.610 52.091 C 43.151 53.370, 43.156 53.360, 44.960 45.612 C 46.384 39.496, 45.662 36.107, 41.932 31.414 C 40.319 29.385, 39 27.301, 39 26.783 C 39 26.265, 40.173 22.910, 41.606 19.327 C 44.242 12.739, 43.841 9.336, 40.901 13.329" stroke="none" fill="#000000" fill-rule="evenodd"/><path fill-opacity=".976" d="M 40.493 14.371 C 37.006 19.692, 34.771 28.319, 35.262 34.561 C 35.745 40.695, 38.680 48.823, 41.392 51.535 C 44.021 54.164, 43.971 51.500, 41.267 44.921 C 37.642 36.100, 37.677 26.856, 41.366 18.626 C 44.356 11.958, 44.345 12, 43.023 12 C 42.486 12, 41.347 13.067, 40.493 14.371 M 29 32.500 C 29 42.944, 29.247 45, 30.500 45 C 31.742 45, 32 43.120, 32 34.082 C 32 28.077, 31.727 22.452, 31.393 21.582 C 29.801 17.433, 29 21.088, 29 32.500" stroke="none" fill="#000000" fill-rule="evenodd"/></svg>