<svg xmlns="http://www.w3.org/2000/svg" width="24" height="24" fill="#000000"><rect width="24" height="24" fill="#000000" rx="4"/><path fill="#000000" fill-rule="evenodd" d="M16.796 20c-.695 0-1.477-.144-2.324-.436a13.015 13.015 0 0 1-2.47-1.173c-.831.5-1.664.898-2.474 1.176-.85.29-1.631.435-2.325.433-.979 0-1.781-.286-2.349-.853-.97-.971-1.119-2.631-.42-4.674a12.98 12.98 0 0 1 1.177-2.474c-.5-.83-.897-1.662-1.174-2.47-.702-2.045-.552-3.705.417-4.676.971-.969 2.631-1.119 4.676-.418.809.277 1.64.675 2.47 1.174.83-.5 1.662-.897 2.472-1.173 2.043-.7 3.705-.552 4.674.42.97.97 1.119 2.63.42 4.673-.278.809-.675 1.641-1.175 2.47.501.83.899 1.664 1.176 2.474.7 2.045.552 3.705-.42 4.673-.567.568-1.37.854-2.35.854Zm-1.49-4.694a18.714 18.714 0 0 1-3.305 2.653 18.718 18.718 0 0 1-3.306-2.653A18.734 18.734 0 0 1 6.042 12a18.77 18.77 0 0 1 2.653-3.308A18.728 18.728 0 0 1 12 6.04a18.728 18.728 0 0 1 3.308 2.654A18.722 18.722 0 0 1 17.959 12a18.718 18.718 0 0 1-2.652 3.306Zm.26.261a19.226 19.226 0 0 1-3.212 2.605c.753.44 1.505.793 2.237 1.043 1.903.653 3.43.536 4.295-.33.866-.865.983-2.39.33-4.295a12.425 12.425 0 0 0-1.044-2.238 19.228 19.228 0 0 1-2.606 3.215Zm-7.132-.002a19.215 19.215 0 0 1-2.604-3.213 12.456 12.456 0 0 0-1.045 2.238c-.652 1.904-.535 3.43.33 4.295.866.866 2.392.983 4.296.33.732-.25 1.484-.603 2.237-1.044a19.154 19.154 0 0 1-3.214-2.606Zm0-7.13a19.236 19.236 0 0 0-2.605 3.212A12.448 12.448 0 0 1 4.785 9.41c-.652-1.906-.535-3.43.33-4.295.497-.497 1.21-.748 2.088-.748.653.002 1.397.14 2.208.417.731.25 1.484.603 2.236 1.044a19.189 19.189 0 0 0-3.213 2.607Zm7.134 0a19.236 19.236 0 0 0-3.216-2.608 12.457 12.457 0 0 1 2.24-1.045c.81-.277 1.552-.415 2.204-.415.88 0 1.594.251 2.09.748.866.865.983 2.392.33 4.295-.25.732-.603 1.484-1.043 2.237a19.23 19.23 0 0 0-2.605-3.212ZM8.144 12c3.79-.55 3.816-3.898 3.816-3.898v.04c.55 3.79 3.898 3.817 3.898 3.817v.04c-3.79.55-3.816 3.899-3.816 3.899v-.041c-.55-3.79-3.898-3.817-3.898-3.817V12Z" clip-rule="evenodd"/></svg>