<svg xmlns="http://www.w3.org/2000/svg" width="200" height="200" fill="#000000"><path fill-opacity=".365" fill-rule="evenodd" d="M87.531 16.049c-7.666 1.199-16.668 4.236-23.149 7.81l-5.119 2.822-3.881-2.939c-8.686-6.578-6.889-6.746-19.799 1.852-6.37 4.243-11.575 7.983-11.566 8.31.01.328 2.71 3.659 6 7.404S36 48.552 36 49.086s-1.381 3.706-3.068 7.049c-4.08 8.083-6.819 19.185-7.337 29.74-.233 4.744-.462 8.963-.509 9.375S22.975 96 20.5 96s-4.494.338-4.488.75c.007.412 1.563 1.754 3.457 2.981l3.445 2.231-1.509 3.612c-2.122 5.079-1.451 5.821 2.708 2.995l3.606-2.45 1.239 4.19c2.874 9.718 9.32 20.021 18.015 28.792 9.545 9.628 17.793 14.767 29.839 18.592 4.204 1.335 7.879 2.803 8.166 3.261s3.445 2.02 7.018 3.47l6.496 2.636 6.004-2.19c3.302-1.204 6.759-2.833 7.682-3.62s5.238-2.663 9.587-4.169c11.153-3.862 19.553-9.231 28.235-18.049 8.351-8.481 13.054-15.742 16.696-25.776 1.343-3.7 2.601-6.886 2.795-7.081.195-.194 2.074.817 4.178 2.246 4.372 2.971 5.072 2.289 2.926-2.847l-1.509-3.612 3.445-2.231c1.894-1.227 3.45-2.569 3.457-2.981s-1.958-.75-4.367-.75c-3.858 0-4.502-.327-5.418-2.75-.572-1.513-1.282-6.575-1.578-11.25-.61-9.656-2.505-16.742-6.878-25.711-3.51-7.202-3.604-6.908 5.324-16.676 3.096-3.388 4.85-6.054 4.24-6.445-.572-.368-6.027-3.976-12.121-8.018l-11.081-7.351-5.847 4.5-5.848 4.499-7.784-3.797c-4.282-2.088-10.631-4.512-14.11-5.386-8.127-2.041-21.374-2.757-28.989-1.566M84.5 21.631c-3.85.807-10.15 3.029-14 4.937s-6.213 3.251-5.25 2.982c1.034-.288 1.75.057 1.75.843 0 .874.844 1.168 2.462.859 1.471-.281 3.11.177 4.072 1.139.885.885 2.429 1.609 3.43 1.609 2.229 0 3.46 2.784 2.006 4.537-.792.953-.484 1.69 1.196 2.867 2.082 1.458 2.339 1.445 3.235-.16.536-.959 2.014-2.564 3.286-3.567 2.545-2.005 3.028-4.465 1.029-5.232-.706-.271-1.377-1.72-1.49-3.219-.132-1.739.091-2.261.614-1.442.466.729 1.649 1.018 2.74.668 1.826-.585 1.822-.536-.075 1.006-1.714 1.392-1.784 1.754-.5 2.566 2.002 1.266 3.728 1.216 4.561-.131.427-.69.919-.741 1.309-.135.344.535 1.599 1.276 2.79 1.648 1.596.497 2.582.08 3.75-1.588 1.291-1.843 1.585-1.943 1.585-.541 0 1.8 4.388 2.523 5.397.89.903-1.462 6.784-.08 6.194 1.455-.29.758.08 1.378.824 1.378 1.76 0 2.668 3.517 1.269 4.916-2.16 2.16-3.94 1.252-3.262-1.666.501-2.156.4-2.426-.468-1.25-.834 1.131-1.231 1.192-1.613.25-.746-1.837-3.302-1.522-4.06.5-.772 2.056-2.811 3.85-6.281 5.526-2.257 1.09-1.848 1.237 4.214 1.511l6.714.303 10.536-7.253C128.259 33.848 133 30.288 133 29.926c0-1.359-13.982-6.841-21.306-8.354-9.251-1.911-17.889-1.892-27.194.059M106 43c0 .55.45 1 1 1s1-.45 1-1-.45-1-1-1-1 .45-1 1m-19 6c0 .611 4.686 1 12.059 1 7.785 0 11.84-.354 11.441-1-.354-.572-5.51-1-12.059-1C91.48 48 87 48.392 87 49m11.667 4.667C98.3 54.033 98 66.652 98 81.709c0 28.5-.293 30.55-4.22 29.523-.979-.256-1.78.023-1.78.62s-.629.844-1.399.548c-1.604-.615-3.304 1.499-1.979 2.462.483.351.952 1.763 1.043 3.138.195 2.96.305 3.564 3.824 21 2.911 14.421 4.179 17.189 6.711 14.657 1.28-1.28 5.522-19.229 6.3-26.657.144-1.375.499-3.175.79-4s.978-3.439 1.528-5.809c.953-4.109.88-4.355-1.561-5.283-1.408-.536-3.05-.81-3.65-.61-3.149 1.049-3.527-2.069-3.653-30.186C99.884 65.65 99.716 53 99.58 53s-.547.3-.913.667M36.061 62.08c-2.936 6.826-5.022 16.995-5.044 24.588-.024 8.714.357 9.326 5.84 9.366l4.643.033-3.681 3.009c-3.649 2.981-3.669 3.038-2.25 6.434 1.714 4.104 1.83 5.854.324 4.924-3.368-2.082 4.721 13.562 10.534 20.372 5.29 6.197 11.447 11.653 12.248 10.852.335-.334-.468-1.546-1.783-2.694l-2.392-2.085 5.28.417c2.904.229 5.51.044 5.791-.411.808-1.307-2.379-6.713-4.951-8.398-1.286-.843-3.077-1.249-3.979-.903-1.201.461-1.641.065-1.641-1.477 0-1.159-.45-2.107-1-2.107s-1-1.251-1-2.779c0-1.632-.826-3.374-2-4.221-2.375-1.712-2.585-4.557-.491-6.652 1.554-1.553 1.084-3.832-.578-2.805-.512.316-.931-.1-.931-.925s.507-1.813 1.126-2.196C52.822 102.756 48.465 77 45.488 77c-1.75 0-4.165 3.498-5.251 7.605l-1.03 3.895-.254-5.25c-.139-2.888-.298-5.812-.353-6.5s1.025-1.299 2.4-1.358 3.013-.173 3.64-.25c1.024-.128-4.209-16.044-5.796-17.631-.314-.315-1.567 1.742-2.783 4.569m120.624-.091c-1.351 3.829-1.532 5.49-.707 6.484 1.173 1.413.379 6.527-1.013 6.527-.45 0-.981-.787-1.181-1.75-.199-.963-1.807 2.001-3.573 6.585C147.432 87.05 147 89.41 147 97.385c0 5.492.454 9.669 1.125 10.34 1.22 1.22.377 9.847-1.049 10.728-.445.275-.416-1.602.064-4.17 1.038-5.562-.173-7.408-2.514-3.834-.92 1.403-1.233 2.551-.696 2.551s.21 1.347-.727 2.994c-.936 1.646-2.25 2.996-2.918 3-.668.003-1.696.906-2.285 2.006-.883 1.651-.759 2.006.715 2.032 1.654.029 1.663.125.113 1.303-.92.699-1.82 2.822-2 4.718-.288 3.023-.725 3.509-3.554 3.947-2.791.432-3.978 1.699-8.79 9.377-3.06 4.882-5.338 9.102-5.062 9.379.977.976 16.017-6.89 21.013-10.99 10.46-8.585 19.981-22.148 20.98-29.886.24-1.859.91-4.62 1.488-6.136.966-2.53.769-2.939-2.413-5-1.906-1.234-3.471-2.582-3.478-2.994-.006-.412 1.763-.75 3.932-.75h3.945l-.504-4.176c-.276-2.297-.928-4.97-1.447-5.941-.714-1.334-.446-2.114 1.098-3.196 1.983-1.389 1.999-1.645.547-8.609-.823-3.948-2.528-9.442-3.79-12.208l-2.293-5.03zm-118.06 2.809c-.271.439-.08 1.451.426 2.25.717 1.134.922.959.934-.798.015-2.313-.493-2.856-1.36-1.452M46 107.5c0 .825.177 1.5.393 1.5s.652-.675.969-1.5.139-1.5-.393-1.5c-.533 0-.969.675-.969 1.5m.172 15.812c.369.513.464 1.473.21 2.134-.253.661.605 2.294 1.908 3.628s2.657 3.213 3.008 4.176c.832 2.279 2.702 2.26 2.702-.027 0-.978-1.913-3.817-4.25-6.31s-3.948-4.113-3.578-3.601m98.745.771c-2.057 2.057-2.049 3.735.011 2.461 1.231-.76 3.402-4.544 2.607-4.544-.294 0-1.472.938-2.618 2.083M48 176.393c0 9.716-.109 9.607 9.582 9.607H64v-3.443c0-3.335-.133-3.452-4.25-3.75l-4.25-.307-.302-5.25-.303-5.25H48zm17.607-6.811c-.334.87-.607 4.947-.607 9.06v7.479l3.75-.311c2.077-.172 3.806-.868 3.875-1.56.069-.687.181-1.7.25-2.25s1.925-1 4.125-1c3.6 0 4 .25 4 2.5s.4 2.5 4 2.5h4v-7.066C89 168.129 88.853 168 76.572 168c-8.523 0-10.466.28-10.965 1.582M90 177v9h9l.083-6.75c.046-3.713.196-7.762.333-9 .228-2.057-.164-2.25-4.583-2.25H90zm11 0v9h3.5c3.242 0 3.5-.227 3.5-3.077v-3.076l2.589 3.076c2.303 2.738 3.185 3.077 8 3.077 2.976 0 5.411-.359 5.411-.797s-1.802-2.557-4.005-4.708l-4.004-3.91 4.213-4.292 4.212-4.293h-6.124c-5.518 0-6.329.273-8.177 2.75l-2.052 2.75-.031-2.75c-.029-2.47-.388-2.75-3.532-2.75H101zm25.698-8.365c-.384.384-.698 4.448-.698 9.032V186h3.5c3.067 0 3.5-.31 3.5-2.5 0-2.296.367-2.5 4.5-2.5s4.5.204 4.5 2.5c0 2.196.431 2.5 3.539 2.5h3.539l-.289-8.75-.289-8.75-10.552-.282c-5.803-.155-10.865.033-11.25.417m-54.031 4.032C70.689 174.644 72.249 176 76.5 176c3.833 0 4.5-.296 4.5-2 0-1.652-.667-2-3.833-2-2.109 0-4.134.3-4.5.667M133 174c0 1.704.667 2 4.5 2s4.5-.296 4.5-2-.667-2-4.5-2-4.5.296-4.5 2"/><path fill-opacity=".179" fill-rule="evenodd" d="M89.732 16.082c-8.345.932-18.567 4.131-25.376 7.939l-5.144 2.877-5.836-4.366c-3.21-2.401-6.295-4.097-6.856-3.769-1.194.699-21.845 14.382-22.388 14.834-.203.169 2.384 3.405 5.75 7.191S36 48.244 36 48.943s-1.363 4.127-3.029 7.618c-4.354 9.124-6.99 20.383-6.869 29.349.092 6.86.205 7.27 1.168 4.261l1.065-3.33 1.251 2.83c1.156 2.613 1.258 2.288 1.333-4.261.089-7.762 2.888-20.178 5.852-25.955l1.886-3.677 6.172 16.425C50.666 87.739 51 89.101 51 97.364c0 5.624.51 9.722 1.432 11.504.787 1.523 7.302 12.076 14.477 23.451S79.731 153 79.458 153c-.274 0-3.201-1.098-6.504-2.441-8.357-3.395-18.977-10.679-24.453-16.769-5.135-5.712-11.702-16.405-13.405-21.829-.688-2.188-2.295-4.238-4.21-5.369l-3.097-1.83.725 3.369c2.221 10.309 11.612 25.196 21.596 34.23 6.644 6.013 20.324 13.552 28.39 15.645 2.75.714 5.711 1.905 6.58 2.647s4.313 2.459 7.654 3.817l6.074 2.468 6.346-2.542c3.49-1.398 6.796-3.08 7.346-3.738s3.7-2.023 7-3.033c13.25-4.054 26.949-13.195 35.047-23.383 4.353-5.476 12.646-21.167 13.764-26.039.525-2.291.52-2.292-2.321-.493-1.845 1.168-4.491 5.084-7.515 11.127-7.292 14.566-20.046 26.178-35.26 32.103l-5.284 2.058 1.197-2.249c.658-1.237 3.515-5.849 6.347-10.249 4.239-6.584 11.303-17.874 20.158-32.215.897-1.453 1.367-5.38 1.367-11.417 0-8.591.335-10.106 5.042-22.786 7.295-19.651 6.413-18.326 8.703-13.082 3.324 7.608 5.251 17.213 5.333 26.564l.077 8.936 1.781-5c1.406-3.95 1.909-4.58 2.391-3 .336 1.1.421-1.6.189-6-.451-8.588-3.254-19.055-7.178-26.811-1.543-3.051-2.192-5.575-1.771-6.899.364-1.147 3.321-4.945 6.571-8.439l5.91-6.352-9.274-6.254c-16.259-10.964-13.644-10.305-20.547-5.176l-6.005 4.463-6.861-3.467c-12.564-6.348-27.603-9.051-41.629-7.483m-5.32 5.402c-7.383 1.606-19.78 6.634-19.764 8.016.007.55 3.351 3.403 7.432 6.339 13.495 9.71 11.855 9.153 26.975 9.157L112.61 45l9.945-6.988c5.47-3.844 9.945-7.544 9.945-8.222 0-1.642-12.073-6.591-20.365-8.349-8.174-1.732-19.646-1.715-27.723.043M86.5 49c-.399.646 3.823 1 11.941 1 7.706 0 12.559-.386 12.559-1 0-.611-4.647-1-11.941-1-6.882 0-12.203.424-12.559 1m-3.492 4.75c.004.413 2.68 7.5 5.946 15.75l5.938 15 .054-15.75L95 53h-6c-3.3 0-5.996.337-5.992.75m14.129 27.5.363 28.25-4.5 1.391c-2.475.766-4.681 1.546-4.901 1.735-.221.189 1.548 9.822 3.932 21.408 4.297 20.89 4.353 21.061 6.828 20.765 2.407-.288 2.645-1.02 6.77-20.799 2.351-11.275 4.296-20.752 4.323-21.061.026-.308-2.202-1.138-4.952-1.842l-5-1.282V81.408C100 55.939 99.833 53 98.387 53c-1.455 0-1.577 2.776-1.25 28.25M102 69.167c0 8.891.205 15.961.456 15.71s3.001-6.963 6.111-14.917 5.878-15.022 6.151-15.71c.367-.924-1.227-1.25-6.111-1.25H102zm-23.741-9.99c-.683.829-.946 1.803-.584 2.165s.17.658-.427.658-6.072 5.807-12.167 12.905C54.878 86.788 54 88.135 54 91.905V96l13.25.001 13.25.002-.267-14.752c-.409-22.664-.515-23.846-1.974-22.074M117 77.5V96h26v-4.911c0-4.143-.435-5.277-2.78-7.25-1.528-1.286-2.923-2.789-3.099-3.339-.546-1.71-18.214-21.5-19.194-21.5-.536 0-.927 7.803-.927 18.5m-5 58.167c0 11.366.175 20.479.388 20.25.963-1.033 14.612-23.065 14.612-23.586 0-.687-14.03-17.331-14.608-17.331-.216 0-.392 9.3-.392 20.667m-34.654-11.794-7.155 8.232 7.007 11.198c3.854 6.158 7.298 11.514 7.654 11.901.583.632.532-14.016-.112-32.634l-.24-6.929zM48 175.965c0 9.437.592 10.035 9.934 10.035H64v-3.5c0-3.481-.024-3.5-4.5-3.5H55v-11h-7zm18.232-6.797c-.765.765-1.232 4.185-1.232 9.032v7.8h3.5c3.067 0 3.5-.31 3.5-2.5 0-2.29.371-2.5 4.43-2.5 3.834 0 4.474.303 4.75 2.25.246 1.731 1.079 2.323 3.61 2.566l3.29.317-.29-8.817-.29-8.816-10.018-.282c-6.938-.196-10.396.096-11.25.95M90 177v9h9v-18h-9zm11.211-.25.289 8.75 3.25.313c3.074.297 3.251.134 3.261-3l.011-3.313 2.562 3.25c2.335 2.964 3.046 3.25 8.073 3.25h5.513l-4.118-4.678-4.118-4.679 4.241-4.321 4.241-4.322h-5.756c-5.026 0-6.063.349-8.176 2.75l-2.421 2.75-.031-2.75c-.029-2.476-.385-2.75-3.571-2.75h-3.539zm26.021-7.582c-.765.765-1.232 4.185-1.232 9.032v7.8h3.5c3.067 0 3.5-.31 3.5-2.5 0-2.296.367-2.5 4.5-2.5s4.5.204 4.5 2.5c0 2.196.431 2.5 3.539 2.5h3.539l-.289-8.75-.289-8.75-10.018-.282c-6.938-.196-10.396.096-11.25.95M72 174.5c0 2.282.378 2.5 4.333 2.5 5.001 0 5.638-.394 4.942-3.058-.406-1.55-1.393-1.942-4.892-1.942-4.009 0-4.383.214-4.383 2.5m61 0c0 2.296.367 2.5 4.5 2.5s4.5-.204 4.5-2.5-.367-2.5-4.5-2.5-4.5.204-4.5 2.5"/><path fill-opacity=".624" fill-rule="evenodd" d="M80.268 18.005c-3.977 1.043-10.42 3.496-14.318 5.452l-7.085 3.556-5.738-4.415-5.737-4.415-11.81 7.847-11.81 7.847 4.945 5.311c8.809 9.462 8.643 8.76 4.289 18.14-4.517 9.731-7.033 20.223-6.925 28.869.07 5.583.198 5.976 1.121 3.44.731-2.009 1.279-2.481 1.834-1.581.489.79 1.032-.607 1.415-3.637 1.349-10.659 2.797-16.854 5.271-22.559 1.421-3.276 2.895-5.597 3.277-5.158.381.439 3.238 7.672 6.348 16.074C50.711 87.27 51 88.525 51 97.306v9.255l14.469 22.97c7.958 12.633 14.025 23.122 13.481 23.309s-5.337-1.776-10.652-4.361c-8.014-3.899-11.047-6.09-17.777-12.84-6.644-6.664-8.992-9.913-12.958-17.929-4.24-8.57-7.716-12.89-9.188-11.418-.777.776 4.508 13.795 7.766 19.129 9.424 15.431 24.807 27.359 41.411 32.11 3.272.936 6.665 2.33 7.541 3.098s4.29 2.454 7.588 3.746l5.995 2.349 6.412-2.391c3.527-1.315 6.88-3.011 7.453-3.767.572-.757 3.047-1.916 5.5-2.576 12.806-3.445 27.324-12.895 36.086-23.49 4.979-6.02 12.218-19.403 13.514-24.983.688-2.961.675-2.971-1.724-1.399-1.329.871-3.992 4.708-5.917 8.528-7.65 15.179-17.153 24.759-31.742 32-5.126 2.544-9.567 4.379-9.868 4.078-.301-.302 2.279-4.975 5.733-10.386s10.015-15.889 14.579-23.285L147 105.607v-9.278c0-8.831.273-10.008 5.669-24.432 5.1-13.631 5.807-14.967 7.033-13.29 2.957 4.044 5.578 15.017 6.185 25.893l.613 11 1.339-4.414c1.027-3.382 1.571-4.084 2.33-3 1.398 1.998.141-11.018-1.796-18.586-.844-3.3-2.849-8.764-4.454-12.143S161 50.5 161 49.627s2.7-4.566 6-8.208c3.3-3.641 6-6.956 6-7.366s-5.105-4.145-11.345-8.3l-11.346-7.557-5.885 4.402c-3.236 2.421-6.017 4.402-6.179 4.402s-3.485-1.607-7.384-3.57c-14.828-7.467-34.678-9.595-50.593-5.425m3.133 3.416c-3.355.766-9.379 2.899-13.388 4.741l-7.288 3.35 11.054 7.744L84.833 45h28.035l10.521-7.25c5.786-3.987 10.541-7.526 10.566-7.863.058-.786-10.391-5.484-16.649-7.487-6.771-2.167-26.235-2.729-33.905-.979m-45.222 6.782c-10.457 6.925-10.452 5.348-.055 16.705 6.13 6.697 6.669 7.063 7.244 4.914.342-1.277 2.144-7.115 4.005-12.974l3.384-10.651-2.728-2.017-2.728-2.018zm109.432-3.874-2.772 2.211 3.683 11.48c2.025 6.314 4.027 11.849 4.449 12.299.873.932 15.428-14.681 14.884-15.965-.285-.671-11.871-8.857-16.413-11.597-.582-.351-2.306.357-3.831 1.572m-61.05 24.573c-.307.496 2.148 1.216 5.456 1.6 6.979.81 20.236-.284 19.42-1.603-.726-1.176-24.15-1.173-24.876.003m1.385 18.848A5262 5262 0 0 1 94.274 84c.313.825.604-5.812.647-14.75L95 53H82.187zM97 81.37v28.37L92.5 111c-3.11.871-4.5 1.793-4.5 2.987 0 .95 1.8 10.351 4 20.89s4 19.378 4 19.642c0 .265 1.241.481 2.758.481h2.759l3.902-19.25 4.335-21.378c.373-1.837-.263-2.295-4.661-3.35L100 109.801V81.4c0-24.578-.202-28.4-1.5-28.4S97 56.819 97 81.37m5-11.703c0 9.166.18 16.479.4 16.25.454-.474 12.6-31.767 12.6-32.464 0-.249-2.925-.453-6.5-.453H102zm-34.991 2.436-13.11 15.102.3 4.648.301 4.647 13.25.279 13.25.279V77.029C81 66.013 80.802 57 80.56 57s-6.34 6.796-13.551 15.103M117 76.815v20.243l13.25-.279 13.25-.279.259-4.5c.255-4.432.077-4.711-11.834-18.5-6.651-7.7-12.731-14.659-13.509-15.464-1.223-1.265-1.416 1.297-1.416 18.779m-34.639-8.911c.351 5.172.639 13.464.639 18.427v9.024l4.4-6.323 4.401-6.323-2.307-6.104C85.3 65.508 82.84 59.507 82.277 59c-.306-.275-.268 3.732.084 8.904m31.056-5.255c-.596 1.568-2.565 6.732-4.374 11.474l-3.291 8.624 4.374 6.208 4.374 6.209.288-9.133c.159-5.022.159-12.98 0-17.682-.249-7.404-.433-8.168-1.371-5.7M129 105.85c-7.975 3.578-14.677 6.64-14.892 6.804-.216.163 1.809 2.823 4.5 5.91s6.042 6.968 7.448 8.624l2.555 3.011 7.747-12.233c6.177-9.754 7.686-12.88 7.444-15.428l-.302-3.195zm-75-2.882c0 2.69 7.488 16.209 13.505 24.382 1.746 2.372 2.301 1.981 10.029-7.077l6.445-7.554-13.237-5.871C53.087 99.018 54 99.23 54 102.968m23.194 20.705-7.307 8.387 7.807 12.473 7.806 12.472.254-8.252c.14-4.539-.085-13.926-.5-20.86l-.754-12.608zm34.845 11.777c-.021 11.523.337 20.523.797 20 .459-.522 3.898-5.811 7.641-11.752 7.896-12.532 8.009-11.277-1.99-22.198l-6.408-7zm-24.95 4.265c-.086 18.5-.011 19.256 1.997 20.331 1.147.614 2.159.967 2.25.785.09-.182.727-1.337 1.414-2.567 1.716-3.07 1.658-3.645-2.182-21.764l-3.391-16zm19.223-.036c-2.781 13.734-3.001 15.927-1.772 17.681 1.022 1.46 1.109 2.358.32 3.309-.881 1.062-.504 1.103 2.028.22l3.112-1.085v-17.902c0-9.846-.115-17.902-.256-17.902s-1.686 7.055-3.432 15.679M48 175.941c0 4.368.449 8.219.998 8.558.55.339 4.15.881 8 1.204l7.002.587V179h-9v-11h-7zm18.008-5.957c-.604 1.13-.966 5.083-.803 8.785l.295 6.731 3.25.313c2.903.28 3.25.04 3.25-2.25 0-2.409.3-2.563 5-2.563 4.667 0 5 .167 5 2.5 0 2.118.464 2.5 3.039 2.5h3.039l-.289-8.75-.289-8.75-10.196-.284c-9.416-.263-10.281-.128-11.296 1.768m24.203 6.766.289 8.75h8l.289-8.75.289-8.75h-9.156zm11 0 .289 8.75 3.25.313c3.071.296 3.251.132 3.277-3l.027-3.313 2.723 3.259c2.466 2.951 3.239 3.258 8.181 3.25l5.458-.009-4.368-4.451-4.369-4.452 3.892-4.298 3.892-4.299-4.979-.315c-4.488-.284-5.25-.011-7.731 2.766L108 174.032v-3.016c0-2.786-.269-3.016-3.539-3.016h-3.539zm25.893-7.376c-.755.911-1.087 4.142-.9 8.784l.296 7.342 3.25.313c2.903.28 3.25.04 3.25-2.25 0-2.408.301-2.563 4.988-2.563 4.577 0 4.969.186 4.75 2.25-.198 1.873.313 2.303 3.052 2.566l3.29.317-.29-8.817-.29-8.816-10.1-.283c-7.835-.22-10.368.039-11.296 1.157M72 174.5c0 2.333.333 2.5 5 2.5s5-.167 5-2.5-.333-2.5-5-2.5-5 .167-5 2.5m61 0c0 2.286.374 2.5 4.383 2.5 3.499 0 4.486-.392 4.892-1.942.696-2.664.059-3.058-4.942-3.058-3.955 0-4.333.218-4.333 2.5"/><path fill-opacity=".96" fill-rule="evenodd" d="M81 17.987c-4.125 1.104-10.754 3.603-14.731 5.555l-7.232 3.549-5.476-4.046C50.55 20.82 47.748 19 47.336 19 45.946 19 25 33.264 25 34.211c0 .516 2.403 3.492 5.341 6.613 2.937 3.122 5.611 6.432 5.941 7.355.338.944-.868 4.666-2.754 8.5-1.844 3.752-4.071 9.596-4.947 12.987-1.899 7.355-3.205 23.14-1.615 19.52.559-1.273 1.419-2.066 1.91-1.762.492.303 1.218-2.473 1.613-6.169.746-6.96 3.683-17.715 6.148-22.505C38.027 56.048 40 55.026 40 57.009c0 .555 2.475 7.627 5.5 15.715C50.642 86.472 51 88.005 51 96.265c0 5.73.506 9.812 1.439 11.617.791 1.53 7.341 12.188 14.554 23.682 7.213 11.495 12.701 21.038 12.195 21.207-1.543.514-10.992-3.587-17.004-7.38-11.336-7.154-20.671-18.039-26.284-30.651-1.431-3.213-3.64-6.57-4.909-7.459-2.3-1.611-2.306-1.605-1.626 1.801.888 4.446 5.721 14.734 9.464 20.148 8.527 12.332 22.765 22.91 36.987 27.479 4.776 1.535 9.134 3.285 9.684 3.891s3.597 2.124 6.77 3.375c5.24 2.065 6.19 2.156 10.339.995 2.512-.704 6.202-2.389 8.2-3.744s5.895-3.13 8.661-3.943c21.444-6.302 43.111-27.812 47.907-47.557 1.34-5.52-3.301-.621-8.002 8.446-5.244 10.112-13.978 20.124-22.769 26.099-5.822 3.957-15.715 8.655-18.334 8.705-.675.013 1.314-3.914 4.419-8.726 3.106-4.812 9.617-15.143 14.47-22.958l8.823-14.207.611-10.293c.549-9.239 1.187-11.849 6.236-25.514 3.094-8.372 5.993-14.854 6.444-14.403 1.98 1.98 5.998 16.24 7.008 24.876.79 6.753 1.331 8.821 1.902 7.277.445-1.203 1.282-1.858 1.893-1.48.772.477.899-1.048.43-5.186-1.002-8.848-3.245-17.154-6.542-24.224-1.631-3.5-2.966-7.186-2.966-8.193s2.756-5.026 6.125-8.93 5.956-7.239 5.75-7.412c-.206-.172-5.268-3.575-11.248-7.562-12.078-8.054-11.321-7.979-19.346-1.916l-4.218 3.187-5.782-3.058c-10.093-5.34-18.513-7.424-31.781-7.87-9.77-.328-13.394-.03-19.5 1.603m1 3.545c-3.025.839-8.625 2.996-12.445 4.793l-6.944 3.268 10.944 7.699L84.5 44.991l14.353.005 14.354.004 10.358-7.25c5.697-3.987 10.376-7.498 10.397-7.801.053-.763-8.344-4.795-14.962-7.185-7.525-2.717-29.063-3.434-37-1.232m-44.25 6.552c-4.812 3.284-8.734 6.296-8.715 6.694s3.569 4.541 7.888 9.208l7.852 8.487 4.158-12.987L53.092 26.5l-2.602-2.25c-1.431-1.238-2.914-2.225-3.296-2.193-.382.031-4.631 2.743-9.444 6.027m109.351-4.02-2.399 1.998 3.28 10.719c5.392 17.618 3.97 16.725 12.301 7.727 3.969-4.287 7.54-8.339 7.935-9.005.468-.789-2.38-3.355-8.165-7.357-4.886-3.38-9.259-6.131-9.718-6.113-.459.019-1.915.933-3.234 2.031M55 30.251c0 .688 4.833 6.81 10.74 13.604l10.74 12.354 3.24-3.748 3.24-3.748-13.151-9.856C62.576 33.436 56.285 29 55.829 29S55 29.563 55 30.251m73 8.362c-6.875 5.227-12.5 9.841-12.5 10.254 0 .412 1.266 2.254 2.813 4.093 2.374 2.822 3.012 3.124 4.094 1.941C130.201 46.376 143 30.962 143 30.1c0-2.328-2.918-.673-15 8.513M52.518 35.25c-.231.688-1.833 5.883-3.561 11.546-2.589 8.488-3.385 10.094-4.529 9.144-1.243-1.031 6.369 14.263 10.633 21.366l1.685 2.805 9.158-10.608c9.082-10.52 9.144-10.627 7.377-12.856C69.977 52.478 53.68 34 53.307 34c-.203 0-.559.563-.789 1.25m80.556 10.945c-7.524 8.679-10.168 12.392-9.5 13.346 2.022 2.886 16.958 20.358 17.426 20.386.275.016 3.305-5.359 6.733-11.943 3.428-6.585 5.74-11.863 5.139-11.728-.602.134-2.693-4.818-4.648-11.006-1.955-6.187-3.817-11.212-4.139-11.165s-5.276 5.496-11.011 12.11M86.025 49.47c-1.129 1.361.248 1.53 12.436 1.53 10.519 0 13.609-.291 13.291-1.25-.295-.886-3.915-1.331-12.437-1.53-9.811-.228-12.254.002-13.29 1.25M82 52.407c0 1.237 12.279 32.199 13.113 33.068.584.608.834-5.423.662-16L95.5 52.5l-6.75-.296c-3.713-.162-6.75-.071-6.75.203M97 80.9v28.901l-5.033 1.207c-3.913.939-4.924 1.573-4.54 2.85.271.903 2.084 9.517 4.029 19.142 1.946 9.625 3.772 18.512 4.06 19.75.388 1.674 1.24 2.25 3.325 2.25h2.803l4.181-20.25c2.299-11.138 4.179-20.786 4.178-21.442s-2.141-1.796-4.753-2.535l-4.75-1.343.381-28.715.38-28.715h-2.13C97.006 52 97 52.076 97 80.9m5-11.733c0 9.441.233 16.933.519 16.648C103.388 84.945 115 54.7 115 53.304c0-.938-1.822-1.304-6.5-1.304H102zm-35.25 2.755C54.026 86.765 54 86.806 54 91.898V97h27V77c0-11-.338-19.989-.75-19.976s-6.487 6.718-13.5 14.898M117 77v20h27v-4.956c0-4.92-.094-5.064-13.06-20C123.757 63.77 117.682 57 117.44 57s-.44 9-.44 20m-34.957-.704C82.108 86.583 82.489 95 82.89 95s2.647-2.781 4.993-6.18l4.264-6.18-4.679-12.07c-2.573-6.638-4.873-12.274-5.111-12.524s-.379 7.963-.314 18.25m32.27-16.546c-.343.962-2.354 6.147-4.469 11.52C107.73 76.644 106 81.618 106 82.325s2.006 4.133 4.457 7.614l4.458 6.33.292-19.136c.161-10.524.166-19.135.012-19.134-.155.001-.563.789-.906 1.751m-71.297-.583c-.014.585 6.608 19.348 8.509 24.109.552 1.382 1.015 1.521 2.092.627.761-.631 1.367-1.655 1.347-2.275-.039-1.223-11.921-23.559-11.948-22.461m105.259 11.027c-4.78 9.089-5.735 11.649-4.87 13.056.592.962 1.342 1.75 1.668 1.75.667 0 9.95-25.31 9.462-25.798-.173-.173-2.99 4.774-6.26 10.992m-60.15 20.743L83.872 97h12.219l-.677-3.75c-.373-2.062-1.208-4.791-1.857-6.063-1.147-2.25-1.294-2.149-5.432 3.75m15.076-2.616c-.661 1.827-1.201 4.527-1.201 6 0 2.584.197 2.679 5.559 2.679 4.15 0 5.383-.317 4.866-1.25-1.825-3.295-6.987-10.701-7.474-10.724-.302-.014-1.09 1.468-1.75 3.295M53 102.277c0 2.354 2.123 6.652 7.533 15.25 4.144 6.585 7.906 12.102 8.361 12.26.917.318 15.614-16.613 14.975-17.251C83.288 111.955 54.322 99 53.604 99c-.332 0-.604 1.475-.604 3.277m6.083-2.882c.854.809 25.428 11.427 25.736 11.12.176-.176-.612-2.364-1.75-4.863-1.138-2.498-2.069-5.017-2.069-5.597C81 99.378 76.998 99 69.833 99c-6.141 0-10.979.178-10.75.395m24.2.855c4.207 10.574 3.713 9.973 7.602 9.244 4.693-.881 5.118-1.197 5.101-3.803-.037-5.965-.819-6.691-7.21-6.691-4.39 0-5.857.334-5.493 1.25M102 103.441c0 4.961.067 5.038 5.102 5.945l3.602.649 2.033-5.517L114.769 99H102zm12.749 1.309c-1.379 3.162-2.399 5.874-2.268 6.026.27.313 24.569-10.493 25.348-11.272.278-.277-4.238-.504-10.035-.504h-10.54zm13.001 1.196-14.751 6.771 7.576 8.641c4.166 4.753 7.879 8.627 8.25 8.609s3.937-5.284 7.925-11.702c5.68-9.141 7.25-12.491 7.25-15.467 0-2.089-.338-3.758-.75-3.71s-7.388 3.135-15.5 6.858M112 135.511v21.845l8.021-12.705 8.022-12.706-7.687-8.722c-4.228-4.798-7.838-8.91-8.022-9.14-.184-.229-.334 9.414-.334 21.428m-34.585-12.377c-3.803 4.473-6.864 8.679-6.802 9.347C70.732 133.745 84.972 157 85.627 157c.205 0 .373-9.45.373-21s-.376-21-.835-21-3.946 3.66-7.75 8.134m9.701 16.518L87 159.804l3.149 1.098c4.025 1.403 4.331 1.381 3.002-.22-.803-.968-.722-1.85.308-3.32 1.229-1.755.993-3.966-1.918-17.932-1.826-8.761-3.543-16.83-3.815-17.93s-.546 7.068-.61 18.152m23.085-19.493c-.11.363-1.793 8.216-3.739 17.451-2.954 14.018-3.347 17.255-2.378 19.592.908 2.192.877 3.14-.143 4.369-1.116 1.345-.791 1.325 2.286-.142l3.588-1.711.669-12.109c.564-10.221.365-29.572-.283-27.45m-15.534 38.266c-.32.834.513 2.118 2.014 3.101 2.43 1.593 2.661 1.576 4.561-.323 1.1-1.101 1.695-2.497 1.32-3.102-1.003-1.623-7.246-1.367-7.895.324M49 176.5v8.5h15v-3c0-2.889-.167-3-4.5-3H55v-5.5c0-5.444-.03-5.5-3-5.5h-3zm18.25-7.855c-.851.355-1.25 3.05-1.25 8.438V185h3c2.333 0 3-.444 3-2 0-1.733.667-2 5-2s5 .267 5 2c0 1.561.667 2 3.04 2h3.041l-.291-8.25-.29-8.25-9.5-.189c-5.225-.103-10.062.047-10.75.334M90 176.5v8.5h9v-17h-9zm12 0v8.5h3c2.598 0 3.004-.368 3.032-2.75l.031-2.75 2.421 2.75c2.062 2.344 3.196 2.75 7.671 2.75h5.251l-3.703-3.792c-2.037-2.086-3.703-4.204-3.703-4.708s1.666-2.622 3.703-4.708l3.703-3.792h-5.131c-4.596 0-5.397.338-7.691 3.25l-2.562 3.25-.011-3.25c-.01-2.942-.295-3.25-3.011-3.25h-3zm24.975-5.935c-.536 1.411-.975 5.236-.975 8.5V185h3.5c2.833 0 3.5-.381 3.5-2 0-1.733.667-2 5-2s5 .267 5 2c0 1.556.667 2 3 2h3v-7.3c0-4.344-.486-7.786-1.2-8.5-.762-.762-4.606-1.2-10.525-1.2-9.089 0-9.349.065-10.3 2.565M72 174.5c0 2.333.333 2.5 5 2.5s5-.167 5-2.5-.333-2.5-5-2.5-5 .167-5 2.5m61 0c0 2.333.333 2.5 5 2.5s5-.167 5-2.5-.333-2.5-5-2.5-5 .167-5 2.5"/></svg>