<svg xmlns="http://www.w3.org/2000/svg" width="32" height="32" version="1.1" fill="#000000"><path fill-opacity=".122" d="M 23 7.500 C 23 8.325, 23.675 9, 24.500 9 C 25.325 9, 26 8.325, 26 7.500 C 26 6.675, 25.325 6, 24.500 6 C 23.675 6, 23 6.675, 23 7.500 M 9.200 9.200 C 7.364 11.036, 7.617 21, 9.500 21 C 10.325 21, 11 21.675, 11 22.500 C 11 24.383, 20.964 24.636, 22.800 22.800 C 24.636 20.964, 24.383 11, 22.500 11 C 21.675 11, 21 10.325, 21 9.500 C 21 7.617, 11.036 7.364, 9.200 9.200 M 12 16 L 12 20 16 20 L 20 20 20 16 L 20 12 16 12 L 12 12 12 16 M 13.176 15.676 C 13.435 17.935, 14 18.500, 16 18.500 C 18 18.500, 18.500 18, 18.500 16 C 18.500 14, 17.935 13.435, 15.676 13.176 C 13.108 12.882, 12.882 13.108, 13.176 15.676 M 6 24.500 C 6 25.325, 6.675 26, 7.500 26 C 8.325 26, 9 25.325, 9 24.500 C 9 23.675, 8.325 23, 7.500 23 C 6.675 23, 6 23.675, 6 24.500" stroke="none" fill="#000000" fill-rule="evenodd"/><path fill-opacity=".138" d="M 23 7.500 C 23 8.325, 23.675 9, 24.500 9 C 25.325 9, 26 8.325, 26 7.500 C 26 6.675, 25.325 6, 24.500 6 C 23.675 6, 23 6.675, 23 7.500 M 9.571 9.571 C 8.637 10.506, 8.007 12.836, 8.017 15.321 C 8.046 22.307, 11.974 24.453, 22.250 23.099 C 23.832 22.890, 23.027 12.055, 21.278 10.011 C 19.129 7.501, 11.913 7.230, 9.571 9.571 M 11.667 11.667 C 11.300 12.033, 11 14.308, 11 16.721 L 11 21.110 15.750 20.805 L 20.500 20.500 20.805 15.750 L 21.110 11 16.721 11 C 14.308 11, 12.033 11.300, 11.667 11.667 M 14 16 C 14 17.333, 14.667 18, 16 18 C 17.333 18, 18 17.333, 18 16 C 18 14.667, 17.333 14, 16 14 C 14.667 14, 14 14.667, 14 16 M 6 24.500 C 6 25.325, 6.675 26, 7.500 26 C 8.325 26, 9 25.325, 9 24.500 C 9 23.675, 8.325 23, 7.500 23 C 6.675 23, 6 23.675, 6 24.500" stroke="none" fill="#000000" fill-rule="evenodd"/><path fill-opacity=".534" d="M 9 14.571 C 9 18.160, 9.527 20.670, 10.481 21.624 C 11.508 22.651, 13.581 23.013, 17.231 22.803 L 22.500 22.500 22.803 17.231 C 23.199 10.345, 21.854 9, 14.571 9 L 9 9 9 14.571 M 11 16 L 11 21 16 21 L 21 21 21 16 L 21 11 16 11 L 11 11 11 16 M 6 24.500 C 6 25.325, 6.675 26, 7.500 26 C 8.325 26, 9 25.325, 9 24.500 C 9 23.675, 8.325 23, 7.500 23 C 6.675 23, 6 23.675, 6 24.500" stroke="none" fill="#000000" fill-rule="evenodd"/><path fill-opacity=".611" d="M 9.667 9.667 C 8.599 10.734, 8.898 20, 10 20 C 10.550 20, 11 17.975, 11 15.500 L 11 11 15.500 11 C 17.975 11, 20 10.550, 20 10 C 20 8.898, 10.734 8.599, 9.667 9.667 M 21 16.500 L 21 21 16.559 21 C 14.116 21, 11.825 21.474, 11.467 22.053 C 11.033 22.756, 12.757 23.005, 16.658 22.803 L 22.500 22.500 22.802 17.250 C 22.986 14.051, 22.693 12, 22.052 12 C 21.472 12, 21 14.018, 21 16.500" stroke="none" fill="#000000" fill-rule="evenodd"/></svg>