<svg xmlns="http://www.w3.org/2000/svg" width="200" height="200" fill="#000000"><path fill-opacity=".145" fill-rule="evenodd" d="M88.5 9.128c-25.089 3.136-50.02 18.326-64.412 39.244-4.8 6.976-10.808 20.179-13.256 29.128-3.149 11.514-3.149 34.486 0 46 9.337 34.136 36.72 60.075 70.877 67.139 5.635 1.165 11.376 1.458 22.196 1.133 13.016-.391 15.623-.779 24.095-3.587 27.918-9.254 50.073-31.118 59.466-58.685 5.979-17.546 5.979-40.454 0-58-9.36-27.47-31.81-49.713-58.966-58.422-8.561-2.746-23.532-5.215-30-4.949-1.65.068-6.15.518-10 .999m-1.433 22.746C86.393 33.134 86 43.015 86 58.701v24.833L75 94.5c-6.05 6.031-11 11.504-11 12.162 0 1.475 2.767 4.338 4.194 4.338.578 0 4.82-3.68 9.428-8.177L86 94.645v16.341l-11 11.059c-6.05 6.082-11 11.62-11 12.306 0 1.88 2.147 3.649 4.428 3.649 1.191 0 5.233-3.186 9.8-7.727L86 122.547v22.292c0 13.454.41 23.059 1.035 24.227 2.368 4.424 4.919 2.495 30.312-22.913 20.533-20.545 24.773-25.263 24.493-27.25-.242-1.707-1.064-2.484-2.84-2.684-2.071-.233-6.016 3.242-22.991 20.25C104.739 147.761 95.177 157 94.759 157S94 147.458 94 135.796v-21.205l13-13.128c7.15-7.221 13-13.789 13-14.596 0-2-2.022-3.867-4.187-3.867-.983 0-6.062 4.275-11.287 9.5s-9.731 9.5-10.013 9.5S94 98.506 94 94.236v-7.765L107 73.5c7.15-7.134 13-13.675 13-14.536 0-2.009-1.958-3.964-3.97-3.964-.863 0-5.827 4.275-11.03 9.5S95.202 74 94.789 74c-.412 0-.871-9.787-1.019-21.75L93.5 30.5l-2.683-.31c-1.866-.216-3.007.297-3.75 1.684"/><path fill-opacity=".119" fill-rule="evenodd" d="M81 10.554C56.79 15.75 34.493 31.612 21.628 52.79-2.287 92.158 6.845 143.515 42.862 172.209c8.464 6.743 24.451 14.794 34.638 17.444 5.312 1.382 10.738 1.821 22.5 1.821 18.366 0 24.513-1.308 39.5-8.406 24.817-11.753 42.378-33.021 49.655-60.135 3.236-12.06 3.236-32.806 0-44.866-9.278-34.571-36.276-60.434-70.455-67.494-9.385-1.939-28.711-1.948-37.7-.019M87.2 31.2c-.87.87-1.2 8.154-1.2 26.493v25.293L75 94.045c-10.714 10.77-12.275 13.28-9.8 15.755 2.288 2.288 4.299 1.16 12.529-7.028L86 94.544v15.925l-11.134 11.165c-9.658 9.686-11.051 11.494-10.511 13.646.35 1.394 1.58 2.731 2.806 3.052 1.742.455 3.866-1.072 10.511-7.558L86 122.645v22.978c0 24.081.228 25.377 4.458 25.377C93.427 171 142 122.258 142 119.278c0-1.955-2.515-4.278-4.63-4.278-.419 0-10.123 9.323-21.566 20.719L95 156.437V113.47L107.5 101c12.854-12.823 14.606-15.802 10.566-17.965-1.064-.569-2.252-1.035-2.64-1.035s-5.143 4.359-10.566 9.687L95 101.374V85.47L107.5 73c6.875-6.858 12.5-13.174 12.5-14.035 0-2.088-1.982-3.965-4.187-3.965-.983 0-6.068 4.281-11.3 9.513L95 74.026V53.947c0-11.928-.42-20.864-1.035-22.013-1.157-2.162-4.928-2.571-6.765-.734"/><path fill-opacity=".292" fill-rule="evenodd" d="M84.831 9.957C54.564 15.492 29.992 34.47 16.955 62.381 5.244 87.454 5.609 115.12 17.986 140.5c16.288 33.398 49.049 52.902 86.014 51.208 14.072-.645 24.41-3.24 36.5-9.161 34.439-16.866 55.135-54.713 50.52-92.387-4.6-37.546-30.441-67.686-67.02-78.167-8.364-2.397-30.815-3.564-39.169-2.036m2.824 20.872C86.208 32.427 86 35.794 86 57.596v24.938L75 93.5c-10.865 10.831-12.518 13.582-9.8 16.3 2.424 2.424 5.203 1.031 12.915-6.473L86 95.653v14.881L75 121.5c-11.799 11.762-13.204 14.539-8.454 16.703 2.403 1.095 3.023.687 10.982-7.23l8.434-8.391.269 23.338c.385 33.425-2.094 33.4 30.998.309 25.621-25.622 26.072-26.143 24.566-28.415-.844-1.273-2.331-2.472-3.305-2.664-1.211-.24-8.377 6.249-22.631 20.491L95 156.482V113.47L107.5 101c13.34-13.308 14.807-15.992 9.951-18.204-2.417-1.102-3.06-.652-12.5 8.753L95 101.462V86.47l12.535-12.485c11.082-11.038 12.502-12.833 12.25-15.485-.236-2.486-.782-3.057-3.185-3.331-2.503-.285-4.18.944-12.25 8.98L95 73.46V52.787c0-20.23-.048-20.707-2.223-22.23-2.808-1.967-3.11-1.951-5.122.272"/><path fill-opacity=".25" fill-rule="evenodd" d="M86.5 10.041C73.727 12.028 58.911 17.909 48 25.32c-13.211 8.975-27.077 26.468-32.838 41.427-10.603 27.533-7.556 59.074 8.008 82.916 12.879 19.729 31.844 33.402 54.83 39.531 11.804 3.148 32.743 3.122 44.5-.053 28.63-7.734 52.123-28.539 62.508-55.357 8.061-20.813 8.061-45.755 0-66.568C180.21 54.826 174.46 46.245 164.092 36c-13.059-12.904-26.252-20.388-43.221-24.517-7.882-1.918-26.337-2.692-34.371-1.442m1.25 20.039c-1.595.929-1.75 3.299-1.75 26.737v25.717L75 93.5c-10.865 10.831-12.518 13.582-9.8 16.3 2.516 2.516 5.371 1.086 13.028-6.527L86 95.547v14.987L75 121.5c-10.865 10.831-12.518 13.582-9.8 16.3 2.424 2.424 5.203 1.031 12.915-6.473L86 123.653v23.138c0 22.258.078 23.18 2.038 24.229 1.121.6 2.818.843 3.771.541 2.668-.847 51.191-49.933 51.191-51.786 0-2.116-2.679-4.775-4.813-4.775-.918 0-11.011 9.333-22.428 20.741L95 156.482V114.47l12.425-12.396c6.834-6.817 12.635-13.194 12.89-14.17.595-2.275-1.928-5.904-4.104-5.904-.921 0-6.071 4.379-11.443 9.731L95 101.462V86.591l13-13.128c7.15-7.221 13-13.654 13-14.296 0-1.498-3.65-5.167-5.14-5.167-.627 0-5.577 4.359-11 9.687L95 73.374V52.759c0-17.409-.244-20.861-1.571-22.188-1.808-1.807-3.21-1.929-5.679-.491"/></svg>