<svg xmlns="http://www.w3.org/2000/svg" width="200" height="200" version="1.1" fill="#000000"><path fill-opacity=".608" d="M -0 100.005 L -0 200.010 100.250 199.755 L 200.500 199.500 200.755 99.750 L 201.010 0 100.505 0 L 0 0 -0 100.005 M 0.481 100.500 C 0.481 155.500, 0.602 178.147, 0.750 150.826 C 0.898 123.506, 0.898 78.506, 0.750 50.826 C 0.602 23.147, 0.481 45.500, 0.481 100.500 M 45 46 L 45 62 100 62 L 155 62 155 46 L 155 30 100 30 L 45 30 45 46 M 45 153.500 L 45 169 100 169 L 155 169 155 153.500 L 155 138 100 138 L 45 138 45 153.500" stroke="none" fill="#000000" fill-rule="evenodd"/><path fill-opacity=".05" d="M -0 100.005 L -0 200.010 100.250 199.755 L 200.500 199.500 200.755 99.750 L 201.010 0 100.505 0 L 0 0 -0 100.005 M 0.481 100.500 C 0.481 155.500, 0.602 178.147, 0.750 150.826 C 0.898 123.506, 0.898 78.506, 0.750 50.826 C 0.602 23.147, 0.481 45.500, 0.481 100.500 M 45 46 L 45 62 100 62 L 155 62 155 46 L 155 30 100 30 L 45 30 45 46 M 45 154 L 45 170 100 170 L 155 170 155 154 L 155 138 100 138 L 45 138 45 154" stroke="none" fill="#000000" fill-rule="evenodd"/><path fill-opacity=".758" d="M -0 100.005 L -0 200.010 100.250 199.755 L 200.500 199.500 200.755 99.750 L 201.010 0 100.505 0 L 0 0 -0 100.005 M 0.481 100.500 C 0.481 155.500, 0.602 178.147, 0.750 150.826 C 0.898 123.506, 0.898 78.506, 0.750 50.826 C 0.602 23.147, 0.481 45.500, 0.481 100.500 M 45 46 L 45 62 100 62 L 155 62 155 46 L 155 30 100 30 L 45 30 45 46 M 45 100.500 L 45 116 100 116 L 155 116 155 100.500 L 155 85 100 85 L 45 85 45 100.500 M 45 154 L 45 170 100 170 L 155 170 155 154 L 155 138 100 138 L 45 138 45 154" stroke="none" fill="#000000" fill-rule="evenodd"/><path fill-opacity=".13" d="M -0 100.005 L -0 200.010 100.250 199.755 L 200.500 199.500 200.755 99.750 L 201.010 0 100.505 0 L 0 0 -0 100.005 M 0.481 100.500 C 0.481 155.500, 0.602 178.147, 0.750 150.826 C 0.898 123.506, 0.898 78.506, 0.750 50.826 C 0.602 23.147, 0.481 45.500, 0.481 100.500 M 45 46 L 45 62 100 62 L 155 62 155 46 L 155 30 100 30 L 45 30 45 46 M 45 101 L 45 117 100 117 L 155 117 155 101 L 155 85 100 85 L 45 85 45 101 M 45 154 L 45 170 100 170 L 155 170 155 154 L 155 138 100 138 L 45 138 45 154" stroke="none" fill="#000000" fill-rule="evenodd"/></svg>