<svg xmlns="http://www.w3.org/2000/svg" width="200" height="200" fill="#000000"><path fill-opacity=".067" fill-rule="evenodd" d="M79 1.959C40.116 10.278 9.879 40.797 1.798 79.881-.804 92.465-.308 113.45 2.873 125.354c2.617 9.796 9.71 24.907 15.487 32.998 14.427 20.203 36.899 34.759 61.521 39.85 12.584 2.602 33.569 2.106 45.473-1.075 9.796-2.617 24.907-9.71 32.998-15.487 19.785-14.129 34.877-37.117 39.563-60.26.925-4.571 1.998-8.626 2.384-9.012 1.143-1.143.849-26.577-.299-25.868-.561.346-1-.436-1-1.781 0-8.858-9.163-31.592-17.36-43.071-14.31-20.039-36.922-34.766-61.013-39.738C108.689-.554 90.646-.532 79 1.959m14.969 42.168c-1.206 4.88-2.705 8.864-3.331 8.853S85.225 51.853 80 50.5s-9.781-2.469-10.125-2.48-.885 1.278-1.202 2.863a138 138 0 0 1-1.203 5.382c-.583 2.321-.265 2.585 4.502 3.728 9.263 2.222 9.249 1.994 1.892 31.673-3.5 14.119-7.004 26.315-7.786 27.103-1.35 1.359-6.36 1.211-10.311-.305-.974-.374-2.197 1.291-3.975 5.411l-2.568 5.952 10.888 2.701c5.989 1.485 10.88 2.987 10.871 3.336-.01.35-.902 4.011-1.983 8.136s-1.973 7.987-1.983 8.582c-.023 1.476 9.274 3.565 10.078 2.264.335-.542 1.429-4.573 2.43-8.957 1.25-5.472 2.214-7.819 3.077-7.488.691.265 2.863.783 4.827 1.152s3.563.732 3.554.808S90.081 143.875 89 148c-2.691 10.268-2.638 10.658 1.571 11.447 1.964.369 4.138.888 4.831 1.154q1.26.484 2.463-4.889c.661-2.955 1.627-6.911 2.146-8.792l.944-3.42h12.856c12.442 0 12.986-.09 16.886-2.792 7.26-5.028 12.4-17.922 10.281-25.791-1.171-4.349-6.015-10.476-9.04-11.437-2.851-.904-2.377-1.919 1.56-3.343 9.769-3.533 13.634-19.464 6.777-27.936-2.357-2.912-13.05-9.859-17.681-11.487-.499-.175-.108-3.577.868-7.559 2.601-10.614 2.671-10.312-2.702-11.71l-4.74-1.233-1.01 3.894-2.111 8.144c-.606 2.337-1.278 4.54-1.495 4.895-.324.533-8.212-.905-9.205-1.679-.165-.129.648-3.951 1.808-8.493 1.159-4.542 1.745-8.581 1.301-8.977s-2.684-1.175-4.977-1.731l-4.17-1.011zm2.654 34.343C95.181 84.228 94 89.331 94 89.81c0 .938 8.588 3.006 13.5 3.252 7.66.383 9.691-.099 12.577-2.985 5.091-5.091 3.215-13.36-3.848-16.957-3.798-1.934-13.62-5.12-15.787-5.12-.684 0-2.318 4.481-3.819 10.47M.392 100c0 7.425.157 10.463.35 6.75s.192-9.787 0-13.5c-.193-3.713-.35-.675-.35 6.75m89.73 4.651C87.955 112.927 85 124.858 85 125.336c0 1.084 14.236 3.664 20.197 3.66 10.259-.006 15.793-4.905 14.333-12.689-1.153-6.143-11.491-12.34-24.715-14.815-3.616-.677-3.703-.619-4.693 3.159"/><path fill-opacity=".105" fill-rule="evenodd" d="M80 1.882C60.397 6.201 43.775 15.176 29.87 28.951 10.824 47.82 1.405 69.348.316 96.5c-.424 10.573-.151 14.773 1.461 22.5 4.229 20.271 13.056 36.879 27.174 51.13 18.869 19.046 40.397 28.465 67.549 29.554 15 .601 26.344-1.254 40.009-6.543 24.019-9.298 45.708-30.296 55.441-53.675 3.529-8.479 7.05-21.275 7.05-25.626 0-1.562.45-2.84 1-2.84.609 0 1-4.5 1-11.5 0-6.325-.362-11.5-.805-11.5s-1.363-3.263-2.046-7.25c-5.217-30.481-29.483-60.544-58.683-72.7C126.414 2.617 117.908.86 102.5.414 91.375.092 86.754.394 80 1.882m15.114 36.784a524 524 0 0 0-2.208 8.834c-.661 2.75-1.306 5.134-1.434 5.298-.129.163-4.757-.849-10.284-2.25S70.71 48 70.187 48C69.348 48 67 55.271 67 57.872c0 .542 2.493 1.711 5.54 2.597 4.035 1.173 5.778 2.238 6.419 3.924 1.058 2.782-10.921 51.998-13.214 54.291-1.179 1.179-2.238 1.221-6.124.242-2.584-.65-5.001-.879-5.372-.508-.371.37-1.666 3.016-2.878 5.878-2.557 6.04-2.844 5.731 7.629 8.216 4.125.978 8.474 2.138 9.665 2.576l2.165.798-1.898 7.307c-2.662 10.25-2.607 10.548 2.173 11.835 2.257.608 4.648.897 5.313.642.664-.255 2.051-4.154 3.081-8.665l1.873-8.201 4.026.644c2.215.354 4.237.854 4.494 1.111.406.406-2.455 14.052-3.566 17.011-.569 1.516 9.811 3.827 10.703 2.383.372-.602 1.489-4.653 2.482-9.003 1.763-7.717 1.869-7.892 4.398-7.24 1.425.368 6.416.696 11.091.729 7.143.051 9.298-.338 13.5-2.439 6.068-3.034 10.823-9.618 12.563-17.392 1.811-8.094.637-12.194-5.152-17.982-5.409-5.41-5.543-5.626-3.488-5.626 2.423 0 7.77-5.216 9.697-9.459 5.196-11.439-.06-22.022-14.074-28.338-3.05-1.375-5.681-2.606-5.847-2.736-.165-.129.622-3.85 1.75-8.268S126 43.755 126 43.252c0-.941-8.999-3.371-10.059-2.716-.325.201-1.429 4.032-2.452 8.513l-1.861 8.147-3.969-.634c-2.182-.35-4.304-.843-4.714-1.096s.101-3.725 1.137-7.714c2.599-10.006 2.539-10.413-1.653-11.199-1.964-.369-4.187-.906-4.939-1.195-.926-.356-1.694.713-2.376 3.308m1.81 39.609C95.591 83.899 94.5 88.947 94.5 89.493c0 1.339 8.763 3.293 15.3 3.411 8.441.153 13.2-3.603 13.2-10.416 0-4.164-5.389-9.131-12.295-11.333-12.236-3.901-11.018-4.531-13.781 7.12M.382 100.5c.002 6.6.164 9.17.359 5.711.196-3.459.195-8.859-.003-12S.38 93.9.382 100.5m87.841 12.575-3.019 12.052 2.265.861c1.246.474 4.883 1.345 8.082 1.937 13.467 2.489 21.006.465 23.19-6.228 2.505-7.671-3.121-13.98-15.741-17.653-12.906-3.756-11.332-4.717-14.777 9.031"/><path fill-opacity=".206" fill-rule="evenodd" d="M90 .648C74.17 3.025 65.767 5.582 53.991 11.603 14.715 31.685-6.824 77.158 2.409 120.5c11.508 54.018 64.512 88.493 118.417 77.02 28.836-6.137 53.647-25.004 67.387-51.242 5.456-10.42 9.463-22.659 10.395-31.752.37-3.62 1.061-6.821 1.533-7.113s.859-4.131.859-8.531c0-5.079-.365-7.774-1-7.382-.582.359-1-.634-1-2.376 0-1.646-.653-6.06-1.45-9.809C188.924 38.777 155.99 7.716 115 1.461 106.135.109 95.824-.227 90 .648m5.552 35.496c-.257.746-1.18 4.281-2.052 7.856s-1.761 7.021-1.976 7.658c-.276.818-3.618.342-11.367-1.618L69.18 47.262l-1.476 5.861-1.477 5.861 4.137 1.089C76.339 61.647 79 63.639 79 66.537c0 1.371-2.766 13.55-6.146 27.065-4.181 16.714-6.629 24.758-7.654 25.152-.829.318-3.701.129-6.381-.42l-4.874-.999-2.028 4.583c-3.637 8.218-3.689 8.146 7.833 10.972 7.526 1.846 10.245 2.926 10.233 4.062-.01.852-.889 4.906-1.955 9.01s-1.779 7.62-1.586 7.813 2.675.964 5.515 1.714c3.892 1.026 5.263 1.072 5.569.186.223-.646 1.248-4.55 2.277-8.675l1.871-7.5 3.399.286c1.869.157 3.768.655 4.22 1.107s-.127 4.538-1.286 9.08-1.907 8.46-1.661 8.706 2.734 1.051 5.53 1.788l5.083 1.341.987-3.574c.543-1.966 1.524-5.976 2.181-8.913l1.195-5.339 9.127.642c12.44.874 18.747-.943 24.345-7.017 6.549-7.104 9.056-18.905 5.576-26.241-.897-1.889-3.26-4.818-5.25-6.508s-3.17-3.252-2.62-3.47c7.131-2.826 11.528-9.639 11.722-18.163.205-9.008-5.085-15.621-16.552-20.692l-5.497-2.431 1.896-7.301c2.709-10.428 2.713-10.414-3.123-11.814-2.78-.667-5.191-1.049-5.358-.85-.167.2-1.188 3.963-2.27 8.363l-1.967 8-3.411-.286c-1.877-.157-3.781-.655-4.233-1.107s.104-4.449 1.235-8.881S107 37.96 107 37.708s-1.298-.718-2.883-1.035a140 140 0 0 1-5.491-1.231c-1.768-.443-2.758-.218-3.074.702m1.295 43.353-2.579 10.498 4.116 1.189c2.264.653 7.33 1.217 11.258 1.252 5.793.052 7.562-.314 9.365-1.936 3.286-2.957 4.238-6.226 2.951-10.127-1.339-4.056-5.026-6.816-12.576-9.414-9.737-3.35-9.59-3.45-12.535 8.538M.349 100c0 4.675.173 6.587.383 4.25.211-2.338.211-6.163 0-8.5-.21-2.338-.383-.425-.383 4.25m88.134 13.069c-1.617 6.518-2.378 11.436-1.85 11.964 1.174 1.174 14.527 3.967 18.964 3.967 7.893 0 13.403-4.554 13.403-11.076 0-4.276-2.821-7.772-8.684-10.763C106.421 105.174 95.6 102 92.72 102c-1.066 0-2.273 3.153-4.237 11.069"/><path fill-opacity=".142" fill-rule="evenodd" d="M89.5.978C49.173 5.517 15.798 33.609 4.528 72.5c-10.45 36.062-.07 73.883 27.351 99.658 29.262 27.505 70.348 34.888 107.369 19.293 31.926-13.449 56.746-46.943 59.453-80.233.326-4.005.976-7.519 1.446-7.809.469-.29.853-2.327.853-4.527s-.386-3.761-.858-3.47c-.472.292-1.125-2.719-1.452-6.691-3.058-37.145-31.526-71.765-68.69-83.534C117.219 1.139 102.065-.436 89.5.978m3.976 42.125c-1.017 4.457-2.381 8.307-3.029 8.556-.964.369-12.293-2.087-19.645-4.259-1.681-.497-2.078.39-4.293 9.602-.559 2.325-.233 2.59 4.569 3.731 5.98 1.42 7.922 2.749 7.922 5.42 0 3.245-12.059 50.214-13.266 51.667-1.101 1.327-6.129 1.117-10.145-.424-1.202-.462-2.284.93-4.467 5.748-1.584 3.496-2.598 6.635-2.251 6.975.346.341 4.904 1.637 10.129 2.881s9.863 2.589 10.308 2.988c.444.4-.145 4.455-1.308 9.012s-1.752 8.609-1.308 9.006c.659.589 9.164 2.994 10.587 2.994.217 0 1.209-3.568 2.205-7.93 2.354-10.308 2.305-10.243 6.859-8.986 2.82.779 3.63 1.457 3.258 2.726-2.094 7.141-3.638 14.651-3.23 15.714.405 1.057 6.416 2.812 10.076 2.942.521.019 1.896-3.791 3.055-8.466l2.107-8.5 10.566.354c9.113.306 11.231.06 15.409-1.788 6.561-2.902 8.22-4.563 11.556-11.566 2.126-4.462 2.859-7.487 2.859-11.8.001-6.755-1.531-10.204-6.451-14.524l-3.555-3.121 2.884-1.492c4.539-2.346 7.868-7.066 9.207-13.05 1.558-6.961.208-12.077-4.589-17.386C136.438 66.742 126.728 61 124.063 61c-1.458 0-1.333-1.339.937-10 1.081-4.125 1.973-7.784 1.983-8.131.018-.671-7.881-2.869-10.307-2.869-.885 0-1.89 1.828-2.61 4.75-3.213 13.021-2.683 12.126-6.655 11.23-1.963-.443-3.738-.974-3.945-1.181-.207-.206.496-3.733 1.562-7.837s1.945-7.971 1.955-8.593c.016-1.046-7.06-3.369-10.262-3.369-.925 0-2.017 2.727-3.245 8.103m6.223 26.647c-.231.412-1.445 4.96-2.697 10.106-2.648 10.876-2.881 10.478 7.104 12.162C115.714 93.976 122 90.796 122 82.966c0-5.733-5.021-9.818-15.5-12.61-5.858-1.561-6.248-1.596-6.801-.606M.272 100c0 2.475.195 3.487.434 2.25.238-1.237.238-3.263 0-4.5-.239-1.237-.434-.225-.434 2.25m88.409 13.171c-2.175 8.843-2.48 11.337-1.464 11.973 4.383 2.743 22.626 4.081 26.605 1.951 2.595-1.388 5.178-6.083 5.178-9.41 0-5.45-7.78-11.019-19.716-14.111-3.34-.866-6.474-1.574-6.965-1.574s-2.128 5.027-3.638 11.171"/></svg>