<svg width="500" height="500" viewBox="0 0 500 500" fill="#000000" xmlns="http://www.w3.org/2000/svg">
<path fill-rule="evenodd" clip-rule="evenodd" d="M238.875 0.041834C238.188 0.091084 235.657 0.252834 233.252 0.401084C91.8688 9.12383 -14.4375 136.582 1.6027 278.143C17.1356 415.229 141.109 513.928 278.235 498.379C415.27 482.84 513.932 358.82 498.389 221.643C484.139 95.8793 378.453 0.821084 251.995 0.026834C245.466 -0.014166 239.562 -0.00741598 238.875 0.041834ZM294.046 141.608C318.063 179.126 337.709 209.923 337.704 210.046C337.694 210.287 250.677 260.929 250.176 260.984C249.539 261.054 162.52 210.281 162.613 209.893C162.777 209.212 249.839 73.3928 250.112 73.3928C250.258 73.3928 270.029 104.09 294.046 141.608ZM249.428 109.802C249.092 110.333 235.467 131.623 219.15 157.113C202.833 182.602 189.575 203.548 189.688 203.659C190.692 204.648 250.14 238.833 250.51 238.635C251.89 237.896 310.383 203.823 310.549 203.662C310.709 203.506 251.009 109.84 250.247 109.052C250.132 108.933 249.764 109.27 249.428 109.802ZM199.348 261.618C227.027 277.719 249.815 290.893 249.988 290.893C250.161 290.893 272.952 277.719 300.634 261.618C328.317 245.517 351.174 232.289 351.427 232.223C351.796 232.127 352.385 232.891 354.379 236.06C365.354 253.494 371.268 270.495 373.498 291.018C373.931 294.998 373.932 310.981 373.5 314.893C367.418 369.963 328.139 413.455 274.736 424.248C266.018 426.01 260.482 426.518 249.996 426.518C239.509 426.518 233.973 426.01 225.255 424.248C157.6 410.575 114.04 343.79 128.815 276.393C131.925 262.209 137.347 249.19 145.612 236.06C147.603 232.898 148.195 232.127 148.563 232.223C148.815 232.289 171.669 245.517 199.348 261.618Z" fill="#000000"/>
</svg>
