<svg xmlns="http://www.w3.org/2000/svg" width="200" height="200" fill="#000000"><path fill-opacity=".016" fill-rule="evenodd" d="M40 34q0 2 2 2t2-2-2-2-2 2m12.149-.396c-1.822 2.061-.649 3.039 1.303 1.086.852-.851 1.548-1.804 1.548-2.119 0-1.05-1.485-.512-2.851 1.033M61 33c0 .55.45 1 1 1s1 .45 1 1-.862 1-1.917 1c-1.054 0-2.145.563-2.424 1.25-.382.944-.789.883-1.659-.25s-1.277-1.194-1.659-.25c-.279.688-1.37 1.25-2.424 1.25-1.25 0-1.917.696-1.917 2 0 1.1.351 2 .779 2s1.428-.9 2.221-2c1.722-2.39 3-2.583 3-.455C57 40.902 52.791 46 51.67 46c-.231 0-.69-1.35-1.02-3s-1.061-3-1.625-3c-1.452 0-1.278 3.749.197 4.241.781.26.256 1.372-1.455 3.083C45.097 49.994 42 50.894 42 49c0-1.516-2.947-1.196-4.647.504-1.339 1.339-.757 1.458 5.296 1.077 3.74-.236 6.962-.913 7.159-1.505.436-1.308 3.192-1.446 3.192-.159 0 .504-.489 1.079-1.086 1.278s1.001.453 3.552.564c4.486.196 8.602 2.565 7.016 4.039-.416.386-.957.14-1.202-.548-.705-1.974-2.28-1.456-2.28.75 0 1.1-.45 2-1 2s-1 .707-1 1.571c0 1.98-2.858 4.923-3.798 3.911-.386-.416-.139-.957.548-1.202C55.858 60.527 55.24 57 53 57c-1.232 0-2.006-.672-2.015-1.75-.009-.962-.433-2.411-.944-3.218-.775-1.225-1.291-1.06-3.119 1-1.457 1.64-2.342 2.049-2.64 1.218C43.751 52.77 40 52.551 40 54c0 .55-.707 1-1.571 1C36.633 55 34 52.665 34 51.071c0-.589-.45-1.071-1-1.071-1.717 0-1.094 2.49 1 4 2.783 2.006 2.694 7.664-.16 10.139-1.189 1.031-1.802 2.208-1.363 2.617.438.409.998.182 1.243-.506.705-1.974 2.28-1.456 2.28.75 0 1.1-.45 2-1 2s-1 .862-1 1.917c0 1.054-.562 2.117-1.25 2.363-.687.245-.915.805-.506 1.243s1.586-.174 2.617-1.363C36.785 70.942 40 70.216 40 72c0 .55-.45 1-1 1s-1 .45-1 1 .9 1 2 1 2-.45 2-1 .45-1 1-1 1 1.35 1 3 .45 3 1 3 1-.45 1-1 .45-1 1-1 1 .9 1 2c0 2.213 1.547 2.71 2.338.75.355-.879.528-.901.583-.071.043.648-.596 1.853-1.421 2.678-1.825 1.825-1.949 4.294-.25 4.984.946.383.892.755-.221 1.528-.809.562-1.085 1.384-.613 1.827.472.442 1.059.242 1.304-.446S50.804 89 51.583 89c.78 0 1.417-.45 1.417-1s1.35-1 3-1 3-.45 3-1 .9-1 2-1 2 .45 2 1-.707 1-1.571 1c-1.98 0-4.923 2.858-3.911 3.798.416.386.957.14 1.202-.548.661-1.85 14.975-1.698 16.851.179C77.237 92.094 77.616 105 76 105c-.55 0-1-2.213-1-4.917 0-2.955-.499-5.149-1.25-5.5-1-.466-1-.7 0-1.166C75.692 92.511 75.223 91 73 91q-2 0-2 2c0 1.1.45 2 1 2s1 2.25 1 5 .45 5 1 5c1.485 0 1.21 2.933-.429 4.571-.785.786-3.035 1.429-5 1.429S65 111.45 65 112s-.9 1-2 1-2 .45-2 1-.9 1-2 1-2-.45-2-1c0-1.824-3.534-1.035-5.029 1.123-.809 1.167-2.033 2.71-2.721 3.428S48 120.564 48 121.429c0 .904-.848 1.571-2 1.571-1.1 0-2 .45-2 1s-.9 1-2 1-2-.45-2-1-.45-1-1-1-1 .707-1 1.571c0 2.021-2.408 4.429-4.429 4.429-.864 0-1.571.45-1.571 1 0 1.449 3.751 1.23 4.28-.25.259-.727.817-.879 1.333-.363s.364 1.074-.363 1.333c-.711.254-1.25 2.135-1.25 4.363 0 3.25-.34 3.917-2 3.917-2.369 0-2.509.634-.571 2.571.984.985 3.762 1.429 8.932 1.429 6.626 0 7.579.234 8.139 2 .651 2.052 2.5 2.792 2.5 1 0-.55-.45-1-1-1-2.347 0-.834-5.232 2.467-8.533 3.01-3.011 6.533-4.586 6.533-2.922 0 1.217-5.015 5.455-6.455 5.455-.85 0-1.545.45-1.545 1s.9 1 2 1 2-.45 2-1 .695-1 1.545-1c1.78 0 6.455-4.365 6.455-6.026 0-1.633 2.976-4.341 3.798-3.456.386.416.14.957-.548 1.202-.687.246-1.25 1.759-1.25 3.363 0 2.25-.457 2.917-2 2.917-2.197 0-2.733 1.589-.759 2.247 1.616.539-1.456 3.753-3.586 3.753-.819 0-1.717.563-1.996 1.25-.383.946-.755.892-1.528-.221-.562-.809-1.371-1.122-1.798-.696-.426.427-.113 1.236.696 1.798 1.113.773 1.167 1.145.221 1.528-2.02.82-1.433 2.341.903 2.341h2.153l-2.153 1.867c-1.184 1.027-2.153 2.602-2.153 3.5 0 .966-.817 1.633-2 1.633-2.55 0-2.55-1.162 0-3 2.668-1.923 2.538-3.822-.25-3.649-1.945.121-2.239.676-2.168 4.089.045 2.171.607 4.123 1.25 4.337.642.214 1.168 1.498 1.168 2.852s1.105 3.566 2.455 4.916C58.431 168.521 59 168.594 59 166q0-2-2-2c-1.556 0-2-.667-2-3 0-3.745.502-3.745 4 0 1.541 1.65 3.779 3 4.973 3 2.541 0 5.027-2.19 5.027-4.429 0-.904.848-1.571 2-1.571 2.713 0 2.527.705-1.075 4.07l-3.074 2.872 2.529 2.529c3.052 3.052 3.62 3.135 3.62.529 0-1.1-.45-2-1-2-2.266 0-.735-3.411 3.25-7.243 2.579-2.48 3.758-4.251 3-4.505-1.48-.496-1.701-4.252-.25-4.252.55 0 1-.675 1-1.5s.695-1.5 1.545-1.5c1.44 0 6.455-4.238 6.455-5.455 0-1.127-3.852-.492-4.28.705-.259.727-.817.879-1.333.363s-.364-1.074.363-1.333c.688-.246 1.25-1.21 1.25-2.143s.9-2.344 2-3.137 2-2.049 2-2.792c0-1.342 2.335-4.208 3.429-4.208.314 0 .571.9.571 2s-.45 2-1 2-1 .707-1 1.571c0 1.98 2.858 4.923 3.798 3.911.386-.416.14-.957-.548-1.202-2.108-.753-1.49-4.28.75-4.28 1.556 0 2-.667 2-3 0-3.022-1.4-4.069-2.341-1.75-.382.944-.789.883-1.659-.25s-1.277-1.194-1.659-.25C88.546 129.709 87 129.214 87 127c0-1.304.667-2 1.917-2 1.054 0 2.179-.563 2.5-1.25.466-1 .7-1 1.166 0 .692 1.483 4.417 1.693 4.417.25 0-.55.45-1 1-1s1 .9 1 2q0 2 2 2c1.1 0 2-.45 2-1s-.45-1-1-1-1-.45-1-1 .9-1 2-1q2 0 2 2c0 1.1.45 2 1 2s1-.9 1-2 .45-2 1-2 1 .9 1 2 .45 2 1 2 1 .9 1 2 .45 2 1 2 1 1.251 1 2.779c0 1.632.826 3.374 2 4.221 1.1.793 2 2.143 2 3s-.9 2.207-2 3-2 2.43-2 3.637c0 1.208-.562 2.397-1.25 2.643-.687.245-.888.832-.446 1.304.443.472 1.265.196 1.827-.613.773-1.113 1.145-1.167 1.528-.221.716 1.764 3.185 1.551 5.162-.444 1.572-1.586 1.568-1.652-.071-1.031-.962.364-2.425.403-3.25.087-1.66-.637-2.087-4.362-.5-4.362.55 0 1 .45 1 1s.707 1 1.571 1c.865 0 2.247.675 3.072 1.5s1.018 1.5.428 1.5c-.589 0-1.071.707-1.071 1.571 0 3.337-5.296 6.04-6.247 3.188-.295-.886-.925-.729-2.202.548-.984.983-1.486 2.091-1.116 2.462.371.37 1.134.011 1.696-.798.773-1.113 1.145-1.167 1.528-.221.865 2.13 3.41 1.387 6.469-1.887 1.612-1.726 3.255-2.789 3.651-2.363.397.425.159.975-.529 1.22-1.48.529-1.699 4.28-.25 4.28.55 0 1-.45 1-1s.45-1 1-1 1 .9 1 2 .45 2 1 2c1.449 0 1.23 3.751-.25 4.28-.687.245-.888.832-.446 1.304.443.472 1.205.211 1.694-.581.737-1.192 1.22-1.058 2.813.779 2.427 2.798 3.951 2.798 6.378 0 1.593-1.837 2.076-1.971 2.813-.779.489.792 1.251 1.053 1.694.581.442-.472.242-1.059-.446-1.304-1.48-.529-1.699-4.28-.25-4.28.55 0 1-.862 1-1.917 0-1.054.562-2.118 1.25-2.365.831-.298.413-1.209-1.25-2.718s-2.081-2.42-1.25-2.718c.688-.247 1.25-1.086 1.25-1.865 0-.953 1.147-1.417 3.5-1.417 1.925 0 3.5-.45 3.5-1 0-1.914-6.211-1.062-8.095 1.109-1.646 1.898-1.983 1.956-3.367.572-.846-.846-1.538-2.208-1.538-3.026 0-.819-.562-1.689-1.25-1.935-.687-.245-.934-.786-.548-1.202.94-1.012 3.798 1.931 3.798 3.911 0 .864.45 1.571 1 1.571s1-.695 1-1.545c0-1.44 4.238-6.455 5.455-6.455.3 0 .545.9.545 2 0 2.213 1.547 2.71 2.338.75.403-1 .52-1 .583 0 .043.688.979 1.25 2.079 1.25s2 .45 2 1 .9 1 2 1 2-.45 2-1 .9-1 2-1 2-.45 2-1 .9-1 2-1 2 .45 2 1 .9 1 2 1 2-.45 2-1 .9-1 2-1c2.223 0 2.692-1.511.75-2.417-1-.466-1-.7 0-1.166.687-.321 1.25-1.409 1.25-2.417s-.563-2.096-1.25-2.417c-1-.466-1-.7 0-1.166 1.433-.669 1.716-4.417.333-4.417-.504 0-1.179.562-1.5 1.25-.466 1-.7 1-1.166 0-.792-1.696-3.235-1.575-5.06.25-1.333 1.333-1.333 1.667 0 3 .825.825 2.657 1.5 4.072 1.5 1.904 0 2.571.519 2.571 2 0 1.667-.667 2-4 2s-4-.333-4-2c0-1.1-.45-2-1-2s-1-1.35-1-3c0-2.667-.333-3-3-3-3.001 0-4.105-1.439-1.75-2.28.688-.245.888-.832.446-1.304-.443-.472-1.265-.196-1.827.613-.773 1.113-1.145 1.167-1.528.221-.279-.688-1.34-1.25-2.357-1.25s-2.135-.9-2.484-2-1.312-2-2.139-2c-1.462 0-4.361-2.279-4.361-3.429 0-.314.9-.571 2-.571s2-.45 2-1-1.35-1-3-1-3-.45-3-1-.9-1-2-1-2 .45-2 1-.9 1-2 1-2-.45-2-1-1.145-1-2.545-1c-2.807 0-7.455-4.025-7.455-6.455 0-.85-.45-1.545-1-1.545-2.224 0-.902-5.289 2-8 3.527-3.294 3.703-4 1-4-1.1 0-2-.45-2-1s.9-1 2-1 2-.45 2-1 1.35-1 3-1 3 .45 3 1 .9 1 2 1 2-.45 2-1 .719-1 1.599-1c.879 0 2.86-1.35 4.401-3s3.522-3 4.401-3c.88 0 1.599-.381 1.599-.847 0-1.577 3.725-5.153 5.367-5.153.898 0 1.633-.45 1.633-1s.45-1 1-1 1 .9 1 2q0 2-2 2t-2 2 2 2 2-2c0-1.1.45-2 1-2s1-.9 1-2q0-2 2-2c1.1 0 2-.45 2-1s-.45-1-1-1-1-.9-1-2 .45-2 1-2c1.848 0 1.061-5.515-1-7-1.1-.793-2-2.242-2-3.221 0-2.032 1.609-2.406 2.28-.529.245.688.786.934 1.202.548.416-.387-.049-1.508-1.033-2.491-1.277-1.277-1.907-1.434-2.202-.548C159.589 55.733 158 55.197 158 53c0-1.1-.45-2-1-2s-1 .9-1 2c0 3.103-5.609 2.825-6.208-.308-.411-2.151-.115-2.307 4.358-2.307 5.584 0 6.688-.69 4.54-2.837-1.714-1.715-6.69-2.122-6.69-.548 0 .55-.675 1-1.5 1s-1.5.41-1.5.912-1.8 1.216-4 1.588c-2.962.5-4 1.15-4 2.505 0 1.005-.563 2.091-1.25 2.412-1 .466-1 .7 0 1.166.688.321 1.25 1.409 1.25 2.417s.562 2.034 1.25 2.28c.727.259.879.817.363 1.333s-1.074.364-1.333-.363c-.636-1.781-2.28-1.549-2.28.321 0 1.516-2.255 4.429-3.429 4.429-.314 0-.571-.9-.571-2s-.45-2-1-2-1-.9-1-2q0-2 2-2c1.1 0 2-.45 2-1s-.45-1-1-1-1-.45-1-1 .9-1 2-1q2 0 2-2c0-1.1.402-2 .894-2s2.292-1.306 4-2.901c3.337-3.117 4.087-6.099 1.535-6.099-3.337 0-6.04-5.296-3.188-6.247.903-.301.786-.869-.428-2.083C139.478 31.336 139 31.562 139 35c0 1.65-.45 3-1 3s-1-.45-1-1c0-1.446-3.756-1.232-4.247.241-.551 1.652-3.753-1.479-3.753-3.67 0-1.875-1.593-2.087-2.417-.321-.466 1-.7 1-1.166 0-.906-1.942-2.417-1.473-2.417.75 0 1.556.667 2 3 2 1.65 0 3 .257 3 .571 0 1.352-3.029 3.429-5 3.429-3.238 0-5 2.413-5 6.845 0 2.254-.544 4.209-1.25 4.496-.946.383-.892.755.221 1.528.809.562 1.085 1.384.613 1.827-.472.442-1.059.242-1.304-.446s-.859-1.25-1.363-1.25c-1.39 0-1.097 3.769.333 4.28.727.259.879.817.363 1.333s-1.074.364-1.333-.363c-.647-1.81-2.28-1.535-2.28.383 0 .898-.969 2.473-2.153 3.5L108.694 64l2.262 1.962c2.036 1.766 2.109 2.116.725 3.5-.846.846-2.245 1.538-3.11 1.538S107 71.45 107 72s.45 1 1 1 1 .45 1 1-1.8 1-4 1-4 .45-4 1c0 1.557-8.949 1.194-10.571-.429-.822-.821-1.429-3.371-1.429-6 0-3.904.292-4.571 2-4.571 1.304 0 2-.667 2-1.917 0-1.054.563-2.179 1.25-2.5 1-.466 1-.7 0-1.166-.687-.321-1.25-1.446-1.25-2.5S92.55 55 92 55s-1 1.595-1 3.545c0 2.431-.772 4.317-2.455 6C85.569 67.521 85 67.594 85 65c0-1.1-.45-2-1-2s-1-.9-1-2 .45-2 1-2 1-.9 1-2-.45-2-1-2-1 .45-1 1-.45 1-1 1-1-.735-1-1.633-.969-2.473-2.153-3.5S77.181 50 77.776 50c.594 0 1.829.748 2.743 1.662 1.411 1.411 1.812 1.449 2.648.25.756-1.083 1.103-1.121 1.492-.162.707 1.741 2.341 1.566 2.341-.25 0-.825-.45-1.5-1-1.5s-1-1.35-1-3-.45-3-1-3-1 1.35-1 3-.45 3-1 3-1-.45-1-1-1.35-1-3-1c-2.333 0-3-.444-3-2 0-1.1-.45-2-1-2s-1-.9-1-2c0-2.197 1.589-2.733 2.247-.759.297.892.903.752 2.155-.5 1.623-1.623 1.628-1.854.079-3.403-1.34-1.34-1.821-1.405-2.481-.338-.656 1.061-1.168.975-2.571-.429-1.451-1.45-1.515-1.9-.37-2.607.761-.471 1.08-1.158.71-1.529-.371-.37-1.419.073-2.331.984-1.542 1.542-1.511 1.783.453 3.486 2.512 2.179 2.671 3.095.538 3.095C69.068 40 67 37.465 67 34.571c0-2.691-1.416-3.465-2.417-1.321-.466 1-.7 1-1.166 0C62.721 31.759 61 31.581 61 33m51.25.496c-1.266 1.438-1.728 4.504-.679 4.504 1.174 0 3.429-2.913 3.429-4.429 0-1.93-1.09-1.96-2.75-.075M119 33c0 .55.45 1 1 1s1-.45 1-1-.45-1-1-1-1 .45-1 1m14 0c0 .55.45 1 1 1s1-.45 1-1-.45-1-1-1-1 .45-1 1m12-.455c0 .3 1.031 1.577 2.291 2.837 1.857 1.857 2.52 2.046 3.5.997C153.165 33.837 152.204 32 148.5 32c-1.925 0-3.5.245-3.5.545M48 35c0 .55.45 1 1 1s1-.45 1-1-.45-1-1-1-1 .45-1 1m68.25 2.496c-1.656 1.881-1.576 2.504.321 2.504 1.516 0 4.429-2.255 4.429-3.429 0-1.144-3.534-.457-4.75.925M75 39c0 .55.45 1 1 1s1-.45 1-1-.45-1-1-1-1 .45-1 1m52 2c0 .55-.9 1-2 1q-2 0-2 2c0 1.1-.45 2-1 2s-1 .9-1 2 .45 2 1 2 1-.719 1-1.599c0-.879 1.35-2.86 3-4.401 3.141-2.934 3.674-4 2-4-.55 0-1 .45-1 1m-16 2c0 .55.45 1 1 1s1-.45 1-1-.45-1-1-1-1 .45-1 1m-58 3.571c0 .315.643 1.215 1.429 2C56.366 50.509 57 50.369 57 48q0-2-2-2c-1.1 0-2 .257-2 .571m61.149 1.033c-1.822 2.061-.649 3.039 1.303 1.086.852-.851 1.548-1.804 1.548-2.119 0-1.05-1.485-.512-2.851 1.033M89 49c0 .55.9 1 2 1 1.111 0 2 .667 2 1.5 0 .825.45 1.5 1 1.5 1.454 0 1.224-1.919-.429-3.571C91.933 47.79 89 47.515 89 49m63 0c0 .55.45 1 1 1s1-.45 1-1-.45-1-1-1-1 .45-1 1m-7 4q0 2 2 2t2-2-2-2-2 2m-4 2.545c0 .711 4.744 5.455 5.455 5.455 1.113 0 .496-3.191-.884-4.571S141 54.432 141 55.545M32 59c0 1.1.45 2 1 2s1-.9 1-2-.45-2-1-2-1 .9-1 2m27 0c0 1.1-.45 2-1 2s-1 .9-1 2c0 1.667.667 2 4 2s4 .333 4 2c0 2.369.634 2.509 2.571.571S69.369 65 67 65c-1.1 0-2-.45-2-1s.45-1 1-1c1.485 0 1.21-2.933-.429-4.571C63.342 56.199 59 56.577 59 59m28 0c0 1.1.45 2 1 2s1-.9 1-2-.45-2-1-2-1 .9-1 2m-24.75 1.496C60.518 62.463 60.679 63 63 63q2 0 2-2c0-2.328-.985-2.509-2.75-.504M113 63c0 1.1.45 2 1 2s1-.9 1-2-.45-2-1-2-1 .9-1 2m53-1c0 .55.45 1 1 1s1-.45 1-1-.45-1-1-1-1 .45-1 1m-35.75 2.496C128.518 66.463 128.679 67 131 67q2 0 2-2c0-2.328-.985-2.509-2.75-.504M170 64c0 .55.45 1 1 1s1-.45 1-1-.45-1-1-1-1 .45-1 1m-4 3c0 1.1.45 2 1 2s1-.9 1-2-.45-2-1-2-1 .9-1 2m-75 4c0 2.97.405 4 1.571 4 1.98 0 4.923-2.858 3.911-3.798-.416-.386-.957-.139-1.202.548C94.575 73.724 93 73.206 93 71c0-1.1.45-2 1-2s1-.45 1-1-.9-1-2-1c-1.667 0-2 .667-2 4m78.25-.46c-1.787 1.872-3.25 4.091-3.25 4.932 0 .84-.45 1.528-1 1.528s-1 .45-1 1c0 1.485 2.933 1.21 4.571-.429.786-.785 1.429-2.036 1.429-2.779s.9-1.999 2-2.792c1.901-1.37 2.84-5.077 1.25-4.931-.412.038-2.213 1.6-4 3.471M186 75c0 3.333.333 4 2 4s2-.667 2-4-.333-4-2-4-2 .667-2 4M51 84c0 .55 1.35 1 3 1s3-.45 3-1-1.35-1-3-1-3 .45-3 1m88 0c0 .55.45 1 1 1s1-.45 1-1-.45-1-1-1-1 .45-1 1m2 7c0 1.1.45 2 1 2s1-.9 1-2-.45-2-1-2-1 .9-1 2m-90 1c0 .55-.675 1-1.5 1s-1.5.45-1.5 1 .675 1 1.5 1 1.5-.45 1.5-1 .9-1 2-1 2-.45 2-1-.9-1-2-1-2 .45-2 1m12 0c0 .55-.707 1-1.571 1C59.913 93 57 95.255 57 96.429c0 .314 1.35.571 3 .571 2.333 0 3-.444 3-2 0-1.1.45-2 1-2s1-.45 1-1-.45-1-1-1-1 .45-1 1m4 1c0 1.1.45 2 1 2s1-.9 1-2-.45-2-1-2-1 .9-1 2m107 0c0 1.556.667 2 3 2 3.355 0 3.654-.489 1.571-2.571C176.49 90.347 174 90.659 174 93m-73 1c0 .55-1.8 1-4 1s-4 .45-4 1 .9 1 2 1 2 .45 2 1-1.35 1-3 1c-2.333 0-3 .444-3 2 0 1.1.45 2 1 2s1-.45 1-1 .45-1 1-1 1 .707 1 1.571c0 1.516 2.255 4.429 3.429 4.429.314 0 .571-1.35.571-3 0-3.438.478-3.664 2.813-1.33 1.214 1.214 1.331 1.782.428 2.083-.683.228-1.241.826-1.241 1.33 0 1.417 2.976 1.084 4.571-.512 1.639-1.638 1.914-4.571.429-4.571-.55 0-1-1.35-1-3s.45-3 1-3 1-.45 1-1-1.35-1-3-1-3 .45-3 1m24 6c0 1.65.45 3 1 3s1-1.35 1-3-.45-3-1-3-1 1.35-1 3m29 1c0 2.369.634 2.509 2.571.571S158.369 99 156 99q-2 0-2 2M32 112c0 .55.45 1 1 1s1-.45 1-1-.45-1-1-1-1 .45-1 1m8 2c0 .55.45 1 1 1s1-.45 1-1-.45-1-1-1-1 .45-1 1m6 0c0 .55.9 1 2 1s2-.45 2-1-.9-1-2-1-2 .45-2 1m91 0c0 .55.9 1 2 1s2-.45 2-1-.9-1-2-1-2 .45-2 1m-84 2c0 .55.9 1 2 1s2-.45 2-1-.9-1-2-1-2 .45-2 1m96.393 2.582c.334.87.607 1.77.607 2s.9.418 2 .418c2.369 0 2.509-.634.571-2.571-1.921-1.922-3.937-1.825-3.178.153M156 118c0 .55.45 1 1 1s1-.45 1-1-.45-1-1-1-1 .45-1 1m-114 2c0 .55.9 1 2 1s2-.45 2-1-.9-1-2-1-2 .45-2 1m89 9.571c0 1.063 3.091 3.672 3.667 3.096.314-.315-.125-1.268-.977-2.119-1.587-1.588-2.69-1.988-2.69-.977m35 .429c0 .55.45 1 1 1s1-.45 1-1-.45-1-1-1-1 .45-1 1m-37 3.571c0 1.174 2.913 3.429 4.429 3.429.864 0 1.571.45 1.571 1s.9 1 2 1q2 0 2 2c0 2.39.633 2.51 2.643.5 1.333-1.333 1.333-1.667 0-3-.825-.825-2.207-1.5-3.072-1.5-1.87 0-2.102-1.644-.321-2.28.727-.259.879-.817.363-1.333s-1.074-.364-1.333.363c-.528 1.477-6.28 1.706-6.28.25 0-.55-.45-1-1-1s-1 .257-1 .571m-24 6.346c0 1.604-.558 3.102-1.241 3.33-1.652.551 1.479 3.753 3.67 3.753 2.05 0 2.159-6.555.142-8.571-2.073-2.073-2.571-1.785-2.571 1.488m6-1.346c0 1.516 2.255 4.429 3.429 4.429 1.134 0 .539-3.175-.858-4.571-1.846-1.847-2.571-1.807-2.571.142M166 140c0 .55.9 1 2 1s2-.45 2-1-.9-1-2-1-2 .45-2 1m-77 2c0 .55.45 1 1 1s1-.45 1-1-.45-1-1-1-1 .45-1 1m-49.888 4.644c-1.184 1.337-1.184 1.696 0 2.446 3.251 2.059 8.888.666 8.888-2.197 0-1.528-.724-1.886-3.75-1.855-2.106.021-4.359.725-5.138 1.606M160 147.93c0 .512-1.012 1.126-2.25 1.364-1.249.241-.415.494 1.875.57 5.147.17 10.375-.832 10.375-1.989 0-.481-2.25-.875-5-.875s-5 .419-5 .93M95 155c0 2.333.444 3 2 3s2-.667 2-3-.444-3-2-3-2 .667-2 3m-22 1c0 2.369.634 2.509 2.571.571S77.369 154 75 154q-2 0-2 2m-25 4c0 1.1.45 2 1 2s1-.9 1-2-.45-2-1-2-1 .9-1 2m28.25 1.496c-1.497 1.7-1.652 4.504-.25 4.504.55 0 1-.9 1-2s.45-2 1-2 1-.45 1-1c0-1.408-1.277-1.178-2.75.496m54.75 1.075c0 1.012 2.82 3.429 4 3.429 1.653 0 4.374-2.969 3.482-3.798-.416-.386-.957-.139-1.202.548-.529 1.48-4.28 1.699-4.28.25 0-.55-.45-1-1-1s-1 .257-1 .571m-68 5.346c0 1.054-.558 2.102-1.241 2.33-.871.29-.672.983.67 2.324 1.341 1.342 2.034 1.541 2.324.67.228-.683 1.276-1.241 2.33-1.241 2.508 0 2.419-.589-.538-3.545S63 165.409 63 167.917M77 169c0 .55.45 1 1 1s1-.45 1-1-.45-1-1-1-1 .45-1 1m52-.429c0 2.914 9.251 4.863 10.341 2.179.383-.946.755-.892 1.528.221.562.809 1.325 1.168 1.696.798.37-.371-.132-1.479-1.116-2.462-1.277-1.277-1.907-1.434-2.202-.548-.493 1.478-8.247 1.705-8.247.241 0-.55-.45-1-1-1s-1 .257-1 .571M63 171c0 .55.45 1 1 1s1-.45 1-1-.45-1-1-1-1 .45-1 1"/><path fill-opacity=".079" fill-rule="evenodd" d="M58.25 39.54C56.462 41.412 55 43.45 55 44.07s1.35 2.389 3 3.93 3 3.198 3 3.68.9 1.527 2 2.32 2 2.242 2 3.221c0 .978.45 1.779 1 1.779s1 .801 1 1.779c0 .979.9 2.428 2 3.221 1.174.847 2 2.589 2 4.221 0 1.528.45 2.779 1 2.779s1 .45 1 1-.9 1-2 1-2-.45-2-1-.9-1-2-1-2-.45-2-1-.9-1-2-1-2-.45-2-1-.801-1-1.779-1c-.979 0-2.428-.9-3.221-2s-2.242-2-3.221-2c-.978 0-1.779-.402-1.779-.894C51 60.769 45.37 55 44.065 55 42.636 55 36 61.573 36 62.988 36 64.594 46.752 75 48.411 75c.8 0 1.74.9 2.089 2s1.504 2 2.567 2S55 79.45 55 80s.9 1 2 1 2 .45 2 1 .9 1 2 1 2 .45 2 1 1.35 1 3 1 3 .45 3 1 1.8 1 4 1h4v12c0 11.333-.111 12-2 12-1.1 0-2 .45-2 1s-1.35 1-3 1-3 .45-3 1-1.35 1-3 1-3 .45-3 1-.9 1-2 1-2 .45-2 1-.801 1-1.779 1c-.979 0-2.428.9-3.221 2s-1.918 2-2.5 2-1.707.9-2.5 2-2.032 2-2.754 2c-1.569 0-8.246 6.478-8.246 8 0 1.637 6.734 8 8.467 8 .843 0 1.533-.45 1.533-1s.9-1 2-1 2-.381 2-.847c0-1.473 3.675-5.153 5.147-5.153.776 0 2.06-.9 2.853-2s2.242-2 3.221-2c.978 0 1.779-.45 1.779-1s.9-1 2-1 2-.45 2-1 .9-1 2-1 2-.45 2-1 .45-1 1-1 1 .9 1 2-.45 2-1 2-1 .9-1 2-.45 2-1 2-1 .9-1 2-.45 2-1 2-1 .9-1 2-.45 2-1 2-1 .719-1 1.599c0 1.556-3.619 5.396-7.889 8.372-2.654 1.849-2.697 4.165-.111 6.029 1.1.793 2 2.242 2 3.221 0 1.087.746 1.779 1.917 1.779 1.054 0 2.097.543 2.319 1.207.481 1.444 9.764-7.549 9.764-9.46 0-.718.9-1.954 2-2.747s2-2.017 2-2.721c0-.703.45-1.279 1-1.279s1-.801 1-1.779c0-.979.9-2.428 2-3.221s2-2.242 2-3.221c0-.978.45-1.779 1-1.779s1-1.35 1-3 .45-3 1-3 1-1.35 1-3 .45-3 1-3 1-.9 1-2c0-1.879.667-2 11-2h11v3c0 1.65.45 3 1 3s1 1.35 1 3 .45 3 1 3 1 1.35 1 3 .45 3 1 3 1 .801 1 1.779c0 .979.9 2.428 2 3.221s2 2.242 2 3.221c0 .978.45 1.779 1 1.779s1 .479 1 1.065 2.25 3.256 5 5.935 5 5.574 5 6.435a1.56 1.56 0 0 0 1.545 1.565c2.001 0 6.455-4.454 6.455-6.455 0-.85.45-1.545 1-1.545 1.768 0 1.066-3.511-1-5-1.1-.793-2-1.837-2-2.32s-1.35-2.139-3-3.68-3-3.522-3-4.401c0-.88-.45-1.599-1-1.599s-1-.801-1-1.779c0-.979-.9-2.428-2-3.221-1.149-.828-2-2.589-2-4.137 0-1.483-.562-2.897-1.25-3.143-.727-.259-.879-.817-.363-1.333s1.074-.364 1.333.363c.246.687 1.309 1.25 2.363 1.25s1.917.45 1.917 1 .9 1 2 1 2 .45 2 1 .9 1 2 1 2 .45 2 1 .801 1 1.779 1c.979 0 2.428.9 3.221 2s2.242 2 3.221 2c.978 0 1.779.381 1.779.847s.84 1.816 1.867 3c1.919 2.212 5.133 2.934 5.133 1.153 0-.55.9-1 2-1q2 0 2-2t2-2 2-2c0-1.155-.667-2-1.578-2-.869 0-3.308-1.8-5.422-4s-4.523-4-5.354-4-1.797-.9-2.146-2-1.504-2-2.567-2-1.933-.45-1.933-1-.9-1-2-1-2-.45-2-1-.9-1-2-1-2-.45-2-1-1.35-1-3-1-3-.45-3-1-.9-1-2-1-2-.45-2-1-1.35-1-3-1h-3v-11c0-10.333.121-11 2-11 1.1 0 2-.45 2-1s1.35-1 3-1 3-.45 3-1 .9-1 2-1 2-.45 2-1 1.251-1 2.779-1c1.632 0 3.374-.826 4.221-2 .793-1.1 2.242-2 3.221-2 .978 0 1.779-.45 1.779-1s.494-1 1.099-1c.604 0 2.36-1.35 3.901-3s3.312-3 3.935-3c.622 0 2.705-1.573 4.628-3.496l3.497-3.497-4.504-4.503c-5.052-5.052-6.463-5.444-8.585-2.383-2.968 4.28-8.858 9.879-10.393 9.879-.868 0-1.578.45-1.578 1s-.9 1-2 1-2 .45-2 1-1.35 1-3 1-3 .45-3 1-.45 1-1 1-1-1.35-1-3 .45-3 1-3 1-.9 1-2 .45-2 1-2 1-.801 1-1.779c0-.979.9-2.428 2-3.221s2-2.143 2-3 .942-2.22 2.093-3.029c4.516-3.173 5.907-4.791 5.907-6.872 0-2.202-6.059-9.099-7.993-9.099C133.487 36 125 44.696 125 46.253c0 .718-.9 1.954-2 2.747s-2 2.017-2 2.721c0 .703-.45 1.279-1 1.279s-1 .9-1 2-.45 2-1 2-1 .9-1 2-.45 2-1 2-1 .9-1 2-.45 2-1 2-1 1.35-1 3-.45 3-1 3-1 1.35-1 3v3h-10.571C88.899 77 87 76.232 87 71.571 87 70.157 86.55 69 86 69s-1-1.35-1-3-.45-3-1-3-1-.9-1-2-.45-2-1-2-1-.9-1-2-.45-2-1-2-1-.87-1-1.933-.9-2.218-2-2.567-2-1.315-2-2.146-1.8-3.24-4-5.354-4-4.553-4-5.422c0-2.907-5.216-1.738-8.75 1.962M91 99v8h2.917c1.604 0 3.179.563 3.5 1.25.466 1 .7 1 1.166 0 .691-1.479 6.417-1.702 6.417-.25 0 .55.45 1 1 1 .593 0 1-3.667 1-9v-9H91z"/><path fill-opacity=".174" fill-rule="evenodd" d="M62 38c-.793 1.1-2.049 2-2.792 2C57.548 40 55 42.438 55 44.027c0 1.189 4.054 5.271 7.889 7.944C64.05 52.78 65 54.242 65 55.221c0 .978.45 1.779 1 1.779s1 .9 1 2 .45 2 1 2 1 .9 1 2 .45 2 1 2 1 .9 1 2 .45 2 1 2 1 1.35 1 3-.45 3-1 3-1-.45-1-1-.9-1-2-1-2-.45-2-1-.9-1-2-1-2-.45-2-1-.9-1-2-1-2-.45-2-1-.719-1-1.599-1C55.75 67 50 61.479 50 59.894c0-.492-.9-.894-2-.894s-2-.45-2-1c0-2.09-3.202-.865-6.586 2.519-3.108 3.108-3.346 3.692-2.038 5 .815.815 1.999 1.481 2.631 1.481s2.879 1.8 4.993 4 4.229 4 4.701 4 1.506.9 2.299 2 2.242 2 3.221 2c.978 0 1.779.45 1.779 1s.9 1 2 1 2 .45 2 1 .9 1 2 1 2 .45 2 1 1.35 1 3 1 3 .45 3 1 1.35 1 3 1c2.333 0 3 .444 3 2 0 1.1.45 2 1 2 .571 0 1 3 1 7s-.429 7-1 7c-.55 0-1 1.157-1 2.571 0 3.281-2.148 5.429-5.429 5.429-1.414 0-2.571.45-2.571 1s-1.35 1-3 1-3 .45-3 1-.9 1-2 1-2 .45-2 1-.801 1-1.779 1c-.979 0-2.428.9-3.221 2s-1.918 2-2.5 2-1.707.9-2.5 2-2.032 2-2.754 2c-1.569 0-8.246 6.478-8.246 8 0 .587 1.591 2.657 3.535 4.602l3.535 3.535 2.965-3.174c1.631-1.746 2.965-3.577 2.965-4.069s.801-.894 1.779-.894c.979 0 2.428-.9 3.221-2s2.242-2 3.221-2c.978 0 1.779-.45 1.779-1s.9-1 2-1 2-.45 2-1 .9-1 2-1 2-.45 2-1 .9-1 2-1c1.556 0 2 .667 2 3 0 1.65-.45 3-1 3s-1 .9-1 2-.45 2-1 2-1 .9-1 2-.45 2-1 2-1 .71-1 1.578-1.8 3.308-4 5.422-4 4.163-4 4.554-.938 1.525-2.085 2.52l-2.085 1.808 4.594 4.595 4.595 4.595 2.491-2.491c1.369-1.369 2.49-3.005 2.49-3.634 0-.63 1.35-2.406 3-3.947s3-3.198 3-3.68.9-1.527 2-2.32 2-2.242 2-3.221c0-.978.45-1.779 1-1.779s1-.9 1-2 .45-2 1-2 1-.9 1-2 .45-2 1-2 1-1.35 1-3 .45-3 1-3 1-1.8 1-4v-4h12c11.333 0 12 .111 12 2 0 1.1.45 2 1 2s1 1.35 1 3 .45 3 1 3 1 1.35 1 3 .45 3 1 3 1 .9 1 2 .45 2 1 2 1 .9 1 2 .45 2 1 2 1 .9 1 2 .381 2 .847 2c1.348 0 5.153 3.619 5.153 4.901 0 1.46 6.557 8.099 8 8.099 1.522 0 8-6.677 8-8.246 0-.722-.942-1.974-2.093-2.783-4.161-2.924-5.907-4.732-5.907-6.118 0-.776-.9-2.06-2-2.853s-2-2.242-2-3.221c0-.978-.45-1.779-1-1.779s-1-.9-1-2-.45-2-1-2-1-1.35-1-3-.45-3-1-3-1-.45-1-1 .9-1 2-1 2 .45 2 1 .9 1 2 1 2 .45 2 1 .9 1 2 1 2 .45 2 1 .9 1 2 1 2 .45 2 1 .801 1 1.779 1c.979 0 2.428.9 3.221 2s2.017 2 2.721 2c.703 0 1.279.9 1.279 2 0 1.304.667 2 1.917 2 1.054 0 2.098.546 2.32 1.213.451 1.35 7.763-5.455 7.763-7.225 0-1.526-4.645-5.988-6.234-5.988-.728 0-1.973-.9-2.766-2s-1.918-2-2.5-2-1.707-.9-2.5-2-2.242-2-3.221-2c-.978 0-1.779-.45-1.779-1s-.9-1-2-1-2-.45-2-1-.9-1-2-1-2-.45-2-1-1.35-1-3-1-3-.45-3-1-1.157-1-2.571-1c-4.741 0-5.429-1.83-5.429-14.429V87h3c1.65 0 3-.45 3-1s1.35-1 3-1 3-.45 3-1 1.35-1 3-1 3-.45 3-1 .801-1 1.779-1c.979 0 2.428-.9 3.221-2s2.242-2 3.221-2c.978 0 1.779-.381 1.779-.847 0-1.348 3.619-5.153 4.901-5.153.641 0 2.741-1.575 4.666-3.5l3.5-3.5-3.5-3.5c-4.04-4.04-5.55-4.32-7.596-1.407-3.013 4.288-4.75 5.907-6.338 5.907-.898 0-1.633.45-1.633 1s-.801 1-1.779 1c-.979 0-2.428.9-3.221 2-.847 1.174-2.589 2-4.221 2-1.528 0-2.779.45-2.779 1s-.9 1-2 1-2 .45-2 1-.45 1-1 1-1-.9-1-2 .45-2 1-2 1-1.251 1-2.779c0-1.632.826-3.374 2-4.221 1.1-.793 2-2.242 2-3.221 0-.978.45-1.779 1-1.779s1-.801 1-1.779c0-.979.9-2.428 2-3.221s2-1.837 2-2.32 1.35-2.139 3-3.68 3-3.312 3-3.935c0-1.442-6.579-8.065-8.012-8.065-1.435 0-5.988 4.603-5.988 6.053 0 .63-1.35 2.406-3 3.947s-3 3.297-3 3.901c0 .605-.45 1.099-1 1.099s-1 .801-1 1.779c0 .979-.9 2.428-2 3.221-1.174.847-2 2.589-2 4.221 0 1.528-.45 2.779-1 2.779s-1 .9-1 2-.45 2-1 2-1 1.35-1 3-.45 3-1 3-1 .707-1 1.571C111 78.045 108.413 79 99 79c-10.007 0-12-.902-12-5.429C87 72.157 86.55 71 86 71s-1-1.35-1-3-.45-3-1-3-1-1.35-1-3-.45-3-1-3-1-.801-1-1.779c0-.979-.9-2.428-2-3.221s-2-1.918-2-2.5-.9-1.707-2-2.5-2-2.029-2-2.747C73 45.17 64.725 36 63.747 36c-.168 0-.954.9-1.747 2m29 61v10h18v-8.571c0-6.673-.37-8.942-1.67-10.241-1.214-1.215-1.782-1.332-2.083-.429C104.743 91.27 93 91.501 93 90c0-.55-.45-1-1-1-.6 0-1 4-1 10m54 31c0 .55.45 1 1 1s1-.45 1-1-.45-1-1-1-1 .45-1 1"/><path fill-opacity=".219" fill-rule="evenodd" d="M60.25 39.54C57.083 42.857 55.988 46 58 46c.55 0 1 .9 1 2s.402 2 .894 2C61.479 50 67 55.75 67 57.401c0 .88.45 1.599 1 1.599s1 .9 1 2 .45 2 1 2 1 .9 1 2 .45 2 1 2 1 .9 1 2 .45 2 1 2 1 .9 1 2q0 2 2 2c1.1 0 2 .45 2 1s1.8 1 4 1c3.778 0 4-.167 4-3 0-1.65-.45-3-1-3s-1-.9-1-2-.45-2-1-2-1-1.35-1-3-.45-3-1-3-1-.9-1-2-.45-2-1-2-1-.801-1-1.779c0-.979-.9-2.428-2-3.221s-2-1.837-2-2.32-1.35-2.139-3-3.68-3-3.317-3-3.947c0-1.02-4.466-6.156-5.205-5.984-.162.038-1.757 1.6-3.545 3.471m69 3.009c-2.338 2.422-4.25 5.09-4.25 5.928 0 .837-.45 1.523-1 1.523s-1 .576-1 1.279c0 .704-.9 1.928-2 2.721s-2 2.242-2 3.221c0 .978-.45 1.779-1 1.779s-1 .9-1 2-.45 2-1 2-1 1.35-1 3-.45 3-1 3-1 1.35-1 3-.45 3-1 3-1 1.35-1 3-.45 3-1 3c-.632 0-1 7-1 19s.368 19 1 19c.55 0 1 .9 1 2s.45 2 1 2 1 1.35 1 3 .45 3 1 3 1 1.35 1 3 .45 3 1 3 1 .9 1 2 .45 2 1 2 1 .9 1 2 .45 2 1 2 1 .9 1 2 .45 2 1 2 1 .494 1 1.099c0 .604 1.35 2.36 3 3.901s3 3.317 3 3.947c0 1.45 4.553 6.053 5.988 6.053 1.77 0 8.575-7.312 7.224-7.762-.666-.223-1.212-1.267-1.212-2.321s-.402-1.917-.894-1.917c-1.585 0-7.106-5.75-7.106-7.401 0-.88-.45-1.599-1-1.599s-1-.9-1-2-.45-2-1-2-1-.9-1-2-.45-2-1-2-1-.9-1-2-.45-2-1-2-1-1.35-1-3-.45-3-1-3-1-2.25-1-5-.45-5-1-5c-.619 0-1-5.333-1-14s.381-14 1-14c.55 0 1-1.8 1-4s.45-4 1-4 1-1.8 1-4 .45-4 1-4 1-.9 1-2 .45-2 1-2 1-.9 1-2 .45-2 1-2 1-.801 1-1.779c0-.979.9-2.428 2-3.221s2-2.242 2-3.221c0-.978.402-1.779.894-1.779s2.323-1.334 4.069-2.965l3.174-2.965-3.535-3.535c-1.945-1.944-4.113-3.502-4.819-3.463-.706.04-3.195 2.055-5.533 4.477M79 100c0 10.333.121 11 2 11 1.1 0 2-.45 2-1s1.35-1 3-1c2.333 0 3-.444 3-2 0-1.1.45-2 1-2s1-2.495 1-5.545C91 92.538 88.139 89 82.545 89H79zm6 22c0 .55-2.25 1-5 1-4.333 0-5 .267-5 2 0 1.1-.45 2-1 2s-1 .9-1 2-.45 2-1 2-1 1.251-1 2.779c0 1.632-.826 3.374-2 4.221-1.1.793-2 2.143-2 3s-.9 2.207-2 3-2 2.242-2 3.221c0 .978-.381 1.779-.847 1.779-1.348 0-5.153 3.619-5.153 4.901 0 .641 1.573 2.739 3.496 4.662l3.497 3.497 4.503-4.504c2.477-2.477 4.504-5.16 4.504-5.962 0-.803.9-1.745 2-2.094s2-1.504 2-2.567.45-1.933 1-1.933 1-.9 1-2 .45-2 1-2 1-.9 1-2 .45-2 1-2 1-.9 1-2 .45-2 1-2 1-1.35 1-3 .45-3 1-3 1-1.35 1-3-.45-3-1-3-1 .45-1 1"/></svg>