<svg width="500" height="482" viewBox="0 0 500 482" fill="#000000" xmlns="http://www.w3.org/2000/svg">
<path fill-rule="evenodd" clip-rule="evenodd" d="M159.454 1.13176C151.128 4.31589 147.544 15.2292 151.997 23.8387C157.914 35.2818 175.91 34.5199 180.84 22.6177C186.318 9.39405 172.954 -4.03032 159.454 1.13176ZM221.047 18.7292C206.198 27.1627 201.661 34.7141 202.597 49.4335C205.23 90.7696 265.513 89.3857 265.633 47.9871C265.699 24.8786 239.961 7.98876 221.047 18.7292ZM307.498 40.406C296.897 51.0066 303.514 67.6843 318.32 67.6843C324.705 67.6843 326.685 66.901 329.982 63.0669C343.288 47.5971 321.881 26.0223 307.498 40.406ZM95.222 46.9882C86.3575 55.8544 89.8822 70.0292 101.845 73.6132C118.618 78.637 129.25 57.5921 115.856 45.8808C109.667 40.4702 101.291 40.9194 95.222 46.9882ZM386.013 51.1712C361.61 59.8712 356.836 90.4619 377.302 107.003C386.405 114.362 405.806 114.612 415.139 107.493C444.173 85.3476 420.198 38.9843 386.013 51.1712ZM139.737 67.2729C119.788 77.3634 115.882 104.818 132.339 119.269C148.306 133.286 173.639 128.904 182.505 110.589C196.059 82.588 167.215 53.3746 139.737 67.2729ZM35.9823 94.7091C26.0975 104.594 32.864 121.165 46.787 121.165C54.9539 121.165 58.9822 118.668 61.8355 111.841C68.7649 95.2554 48.7189 81.9725 35.9823 94.7091ZM293.629 93.8715C278.659 108.841 299.296 131 315.348 117.194C326.282 107.79 318.951 89.8991 304.167 89.8991C299.42 89.8991 296.5 91 293.629 93.8715ZM343.004 123.075C330.504 129.948 331.401 148.058 344.455 152.366C356.089 156.205 365.218 149.326 365.218 136.722C365.218 125.091 352.994 117.581 343.004 123.075ZM95.222 132.557C85.1677 142.611 91.8552 159.012 106.009 159.012C114.317 159.012 119.481 155.431 121.431 148.316C125.862 132.145 106.984 120.794 95.222 132.557ZM408.972 150.911C403.012 157.994 403.217 165.999 409.522 172.303C421.315 184.097 441.154 172.228 435.957 156.486C432.075 144.721 416.831 141.571 408.972 150.911ZM20.6821 171.215C-12.2783 183.416 -3.71976 233.062 31.3435 233.062C56.4678 233.062 71.5689 205.866 58.3042 184.507C50.2986 171.615 34.5919 166.067 20.6821 171.215ZM453.866 188.642C426.285 203.216 433.092 242.859 464.177 248.691C490.417 253.613 509.875 221.604 494.637 198.578C486.35 186.055 467.469 181.452 453.866 188.642ZM96.8511 197.324C81.2365 209.312 96.0201 232.851 114.014 224.653C122.89 220.608 124.901 206.516 117.638 199.254C113.132 194.747 101.602 193.677 96.8511 197.324ZM372.321 204.994C357.965 211.512 351.371 231.008 358.256 246.575C368.202 269.056 400 271.489 413.418 250.796C431.341 223.156 402.678 191.212 372.321 204.994ZM43.5634 250.43C10.4649 262.872 18.9625 312.048 54.2101 312.048C87.9043 312.048 98.3288 266.945 68.1972 251.526C62.0544 248.383 50.3924 247.865 43.5634 250.43ZM434.422 279.576C415.646 289.078 429.243 316.876 448.253 307.855C460.428 302.078 460.292 285.607 448.016 279.33C443.39 276.965 439.441 277.036 434.422 279.576ZM118.796 310.455C113.813 312.458 109.402 321.974 110.827 327.649C114.789 343.442 138.89 344.054 142.013 328.441C144.75 314.752 132.232 305.054 118.796 310.455ZM346.295 322.729C345.39 323.032 342.627 323.725 340.153 324.269C306.234 331.744 314.735 386.098 349.823 386.098C387.338 386.098 393.509 332.122 356.958 323.7C349.141 321.9 348.862 321.874 346.295 322.729ZM406.925 342.359C383.217 353.397 383.257 388.628 406.989 399.405C437.356 413.195 466.517 376.312 445.454 350.756C435.414 338.578 421.539 335.555 406.925 342.359ZM36.3559 344.181C30.1028 349.443 28.4803 356.264 31.908 362.89C37.126 372.981 49.7984 374.597 57.6641 366.177C71.1872 351.701 51.5328 331.411 36.3559 344.181ZM109.117 365.976C94.5358 377.788 105.661 399.427 123.372 393.702C130.078 391.534 135.446 382.704 133.998 376.224C131.625 365.604 117.009 359.583 109.117 365.976ZM210.888 372.198C199.783 376.866 197.295 389.058 205.727 397.49C212.579 404.342 220.427 404.434 227.119 397.743C239.385 385.477 226.718 365.541 210.888 372.198ZM277.405 375.625C271.172 381.86 271.371 391.237 277.878 397.743C292.27 412.133 313.204 391.956 300.073 376.351C294.285 369.473 283.892 369.14 277.405 375.625ZM153.766 404.88C132.433 414.375 127.88 442.777 145.248 458.026C167.295 477.384 199.469 460.758 197.024 431.271C195.304 410.539 172.418 396.576 153.766 404.88ZM342.673 420.588C330.537 427.987 329.066 443.511 339.587 453.152C356.785 468.913 382.382 447.669 370.221 427.728C364.132 417.74 352.35 414.686 342.673 420.588ZM242.619 422.074C213.351 435.37 224.215 481.539 256.612 481.539C289.168 481.539 300.272 437.017 271.393 422.285C263.344 418.178 251.386 418.09 242.619 422.074Z" fill="#000000"/>
</svg>
