<svg xmlns="http://www.w3.org/2000/svg" width="200" height="200" fill="#000000"><path fill-opacity=".122" fill-rule="evenodd" d="M72 30v3h-8.5c-8.4 0-8.5.029-8.5 2.5 0 2.364-.3 2.5-5.5 2.5-5.444 0-5.5.03-5.5 3 0 2.533-.389 3-2.5 3-2.36 0-2.5.304-2.5 5.434 0 5.184-.126 5.448-2.75 5.75l-2.75.316v34l2.75.316 2.75.317V156h2.5c2 0 2.5.5 2.5 2.5 0 2.364.3 2.5 5.5 2.5 5.444 0 5.5.03 5.5 3s.056 3 5.5 3c5.2 0 5.5.136 5.5 2.5 0 2.471.1 2.5 8.5 2.5H83v6h7.93c7.463 0 7.95.133 8.25 2.25.307 2.161.763 2.261 11.57 2.533l11.25.283v-2.533c0-2.523.036-2.533 9-2.533h9v-6h8c7.821 0 8-.055 8-2.448 0-2.248.429-2.472 5.25-2.75 4.897-.282 5.271-.487 5.566-3.052.265-2.303.794-2.75 3.25-2.75H173v-60h5V60h-2.5c-2.333 0-2.5-.333-2.5-5 0-4.889-.067-5-3-5h-3v-6c0-5.733-.111-6-2.5-6-2.016 0-2.5-.496-2.5-2.56 0-2.348-.312-2.535-3.75-2.25-3.012.249-3.813.753-4.07 2.56-.205 1.446-1.009 2.25-2.25 2.25-1.478 0-1.93.703-1.93 3v3h-16v-6h-6c-5.733 0-6-.111-6-2.5 0-2.458-.133-2.5-8-2.5h-8v-6H72z"/><path fill-opacity=".509" fill-rule="evenodd" d="M73 30.5V34h-8.5c-7.833 0-8.5.157-8.5 2 0 1.755-.667 2-5.437 2-5.402 0-5.438.02-5.75 3.25-.259 2.692-.777 3.304-3.013 3.562-2.5.288-2.722.695-3 5.5-.261 4.51-.594 5.23-2.55 5.508-2.229.316-2.25.472-2.25 16.75V89h5v65.867l2.75.317c2.146.246 2.818.909 3.062 3.016.288 2.5.695 2.722 5.5 3 4.51.261 5.23.594 5.508 2.55.281 1.981.9 2.25 5.183 2.25 4.563 0 4.884.17 5.181 2.75.315 2.741.345 2.751 9.066 3.039l8.75.289V178h8c7.333 0 8 .167 8 2 0 1.879.667 2 11 2s11-.121 11-2c0-1.843.667-2 8.5-2h8.5v-6h16v-3c0-2.97.056-3 5.5-3 5.162 0 5.5-.15 5.5-2.437 0-2.018.558-2.49 3.25-2.75l3.25-.313.265-30.25.264-30.25H178V61h-2.5c-2.364 0-2.5-.3-2.5-5.5V50h-7v-6c0-5.333-.222-6-2-6q-2 0-2-2c0-1.619-.667-2-3.5-2s-3.5.381-3.5 2c0 1.467-.667 2-2.5 2-2.19 0-2.5.433-2.5 3.5V45h-15.873l-.314-3.25c-.309-3.213-.378-3.253-6.063-3.55-4.932-.257-5.75-.577-5.75-2.25 0-1.771-.735-1.95-8-1.95h-8v-7H73zm82 17c0 2-.5 2.5-2.5 2.5-2.364 0-2.5.3-2.5 5.5V61h16v-5.5c0-5.2-.136-5.5-2.5-5.5-2 0-2.5-.5-2.5-2.5 0-2.111-.467-2.5-3-2.5s-3 .389-3 2.5m-49 8c0 5.444-.03 5.5-3 5.5h-3v17h3c2.667 0 3-.333 3-3 0-2.533.389-3 2.5-3s2.5-.467 2.5-3c0-2.667.333-3 3-3 2.933 0 3-.111 3-5s-.067-5-3-5c-2.667 0-3-.333-3-3 0-2.533-.389-3-2.5-3-2.364 0-2.5.3-2.5 5.5m38.667 11.167c-.367.366-.667 1.716-.667 3 0 2.303-.143 2.333-11 2.333h-11v3c0 2.97-.056 3-5.5 3-5.2 0-5.5.136-5.5 2.5 0 2-.5 2.5-2.5 2.5-2.111 0-2.5.467-2.5 3 0 2.667-.333 3-3 3h-3v33h6v56h16v-7h8.5c8.4 0 8.5-.029 8.5-2.5 0-2.457.138-2.5 7.934-2.5 7.911 0 7.934-.008 8.25-2.75.295-2.565.669-2.77 5.566-3.052l5.25-.303V100h6V72h-3c-2.667 0-3-.333-3-3v-3h-10.333c-5.684 0-10.634.3-11 .667M155 91.5c0 2.364.3 2.5 5.5 2.5s5.5-.136 5.5-2.5-.3-2.5-5.5-2.5-5.5.136-5.5 2.5M111 103c0 2.97.056 3 5.5 3s5.5-.03 5.5-3-.056-3-5.5-3-5.5.03-5.5 3m28-.566c0 1.911-.59 2.501-2.75 2.75-2.16.248-2.818.906-3.066 3.066-.302 2.624-.566 2.75-5.75 2.75-5.13 0-5.434.14-5.434 2.5 0 2.389.267 2.5 6 2.5s6-.111 6-2.5c0-2 .5-2.5 2.5-2.5s2.5-.5 2.5-2.5.5-2.5 2.5-2.5 2.5.5 2.5 2.5c0 2.36.304 2.5 5.434 2.5 5.168 0 5.449-.133 5.75-2.719.264-2.276.805-2.724 3.316-2.75 2.52-.026 3.051-.471 3.316-2.781.293-2.545.051-2.75-3.25-2.75-3.137 0-3.566.301-3.566 2.5 0 2.333-.333 2.5-5 2.5s-5-.167-5-2.5c0-2.111-.467-2.5-3-2.5-2.511 0-3 .396-3 2.434"/><path fill-opacity=".199" fill-rule="evenodd" d="M73 31v3h-8.5c-7.673 0-8.5.184-8.5 1.893 0 2.455 1.047 2.779 9.75 3.016 7.158.194 7.25.164 7.25-2.356V34h33v2.544c0 2.391.284 2.534 4.75 2.377C121.409 38.547 122 38.708 122 42c0 2.97.056 3 5.5 3s5.5-.03 5.5-3-.056-3-5.5-3c-5.2 0-5.5-.136-5.5-2.5 0-2.458-.133-2.5-8-2.5h-8v-6H73zm83 4.941c0 2.356 1.275 3.274 3.41 2.455 2.669-1.024 1.971-4.396-.91-4.396-1.808 0-2.5.537-2.5 1.941M45 42c0 2.533-.389 3-2.5 3-2.364 0-2.5.3-2.5 5.5 0 5.444-.03 5.5-3 5.5h-3v33h6v66h2.5c2 0 2.5.5 2.5 2.5 0 2.364.3 2.5 5.5 2.5 5.444 0 5.5.03 5.5 3s.056 3 5.5 3c5.2 0 5.5.136 5.5 2.5 0 2.471.1 2.5 8.5 2.5H84v7h8c7.333 0 8 .167 8 2 0 1.879.667 2 11 2 10.258 0 11-.132 11-1.96 0-1.764.822-1.988 8.25-2.25 8.175-.287 8.253-.315 8.566-3.04l.317-2.75H122v6l-6.75-.011c-3.713-.006-8.392-.283-10.399-.614-3.562-.59-3.665-.732-4.322-5.989-.606-4.851-.914-5.386-3.101-5.386-1.923 0-2.428-.52-2.428-2.5 0-2 .5-2.5 2.5-2.5 2.111 0 2.5-.467 2.5-3s-.389-3-2.5-3c-2 0-2.5-.5-2.5-2.5s.5-2.5 2.5-2.5c2.111 0 2.5-.467 2.5-3s-.389-3-2.5-3-2.5-.467-2.5-3 .389-3 2.5-3c2 0 2.5-.5 2.5-2.5s-.5-2.5-2.5-2.5c-2.123 0-2.5-.462-2.5-3.063s.338-3.016 2.25-2.75c1.806.251 2.312-.23 2.566-2.437.273-2.368-.04-2.75-2.25-2.75-2.07 0-2.566-.483-2.566-2.5 0-1.833.533-2.5 2-2.5 1.609 0 2-.667 2-3.406 0-2.914-.289-3.331-2-2.884-1.684.441-2 .031-2-2.593 0-2.812-.3-3.117-3.07-3.117-2.611 0-3.021-.336-2.75-2.25.229-1.611 1.101-2.34 3.07-2.566 2.303-.265 2.75-.794 2.75-3.25C95 94.341 94.652 94 92 94c-2.667 0-3 .333-3 3 0 2.533-.389 3-2.5 3s-2.5-.467-2.5-3c0-2.667-.333-3-3-3-2.533 0-3-.389-3-2.5 0-2-.5-2.5-2.5-2.5s-2.5.5-2.5 2.5c0 2.111-.467 2.5-3 2.5s-3-.389-3-2.5c0-2-.5-2.5-2.5-2.5-2.199 0-2.5-.429-2.5-3.563 0-3.418-.133-3.551-3.25-3.25-2.858.275-3.288.705-3.563 3.563-.236 2.44-.796 3.25-2.25 3.25C51.694 89 51 88.312 51 87.082 51 83.646 49.832 82 47.393 82 45.667 82 45 81.443 45 80c0-1.467-.667-2-2.5-2H40V56h2.5c2.364 0 2.5-.3 2.5-5.5V45h5.5c5.444 0 5.5-.03 5.5-3s-.056-3-5.5-3-5.5.03-5.5 3m105-.04v2.959l-8.25.291c-7.692.27-8.272.442-8.57 2.54-.271 1.914.139 2.25 2.75 2.25 3.054 0 3.07.028 3.07 5.5 0 5.2.136 5.5 2.5 5.5s2.5-.3 2.5-5.5c0-5.444.03-5.5 3-5.5 2.533 0 3-.389 3-2.5 0-2 .5-2.5 2.5-2.5 2.111 0 2.5-.467 2.5-3s-.389-3-2.5-3c-2.104 0-2.5.469-2.5 2.96m11.686-1.583c-.291.757-.28 3.232.024 5.5.424 3.162.989 4.123 2.422 4.123 1.598 0 1.868.796 1.868 5.5 0 5.381.062 5.5 2.852 5.5h2.852l.642 8.25c.353 4.537.645 13.344.648 19.57.006 11.165.037 11.315 2.256 11 2.243-.319 2.25-.378 2.25-19.32v-19l-2.75-.316c-2.624-.302-2.75-.566-2.75-5.75 0-5.371-.035-5.434-3-5.434-2.97 0-3-.056-3-5.5 0-4.73-.265-5.5-1.893-5.5-1.041 0-2.131.62-2.421 1.377M100 47.5c0 1.982-.504 2.5-2.434 2.5-1.911 0-2.501.59-2.75 2.75-.248 2.16-.906 2.818-3.066 3.066-2.16.249-2.75.839-2.75 2.75C89 60.458 88.474 61 86.636 61c-2.054 0-2.447.608-3 4.64-.35 2.551-.636 6.376-.636 8.5 0 3.611.191 3.86 2.96 3.86h2.959l.291-8.25c.287-8.175.315-8.253 3.04-8.566 2.16-.249 2.75-.839 2.75-2.75 0-1.93.518-2.434 2.5-2.434 2.111 0 2.5-.467 2.5-3 0-2.97.056-3 5.5-3 5.2 0 5.5.136 5.5 2.5 0 2.111.467 2.5 3 2.5s3-.389 3-2.5-.467-2.5-3-2.5-3-.389-3-2.5c0-2.364-.3-2.5-5.5-2.5s-5.5.136-5.5 2.5m18 11c0 1.833.533 2.5 2 2.5s2 .667 2 2.5c0 2.111.467 2.5 3 2.5s3-.389 3-2.5-.467-2.5-3-2.5-3-.389-3-2.5c0-1.833-.533-2.5-2-2.5s-2 .667-2 2.5M40 86c0 2.333.444 3 2 3s2-.667 2-3-.444-3-2-3-2 .667-2 3m5.667 3.667c-.367.366-.667 1.491-.667 2.5 0 1.289.742 1.833 2.5 1.833 2 0 2.5-.5 2.5-2.5 0-1.758-.544-2.5-1.833-2.5-1.009 0-2.134.3-2.5.667M56 91.434c0 2.184.446 2.566 3 2.566 2.667 0 3 .333 3 3 0 2.333.444 3 2 3s2-.667 2-3c0-2.297-.452-3-1.93-3-1.241 0-2.045-.804-2.25-2.25-.229-1.611-1.101-2.34-3.07-2.566-2.368-.273-2.75.04-2.75 2.25M156 92c0 1.733.667 2 5 2s5-.267 5-2-.667-2-5-2-5 .267-5 2M51 97c0 2.333.444 3 2 3s2-.667 2-3-.444-3-2-3-2 .667-2 3m22 0c0 2.533.389 3 2.5 3 2 0 2.5.5 2.5 2.5s.5 2.5 2.5 2.5 2.5-.5 2.5-2.5-.5-2.5-2.5-2.5c-2.111 0-2.5-.467-2.5-3s-.389-3-2.5-3-2.5.467-2.5 3m-27.333 3.667c-.367.366-.667 1.491-.667 2.5 0 1.289.742 1.833 2.5 1.833 2 0 2.5-.5 2.5-2.5 0-1.758-.544-2.5-1.833-2.5-1.009 0-2.134.3-2.5.667M56 102.434c0 2.197.441 2.566 3.07 2.566 2.611 0 3.021-.336 2.75-2.25-.229-1.611-1.101-2.34-3.07-2.566-2.368-.273-2.75.04-2.75 2.25m11 0c0 2.197.441 2.566 3.07 2.566 2.611 0 3.021-.336 2.75-2.25-.229-1.611-1.101-2.34-3.07-2.566-2.368-.273-2.75.04-2.75 2.25m44.667-1.767c-.367.366-.667 1.491-.667 2.5 0 1.555.833 1.833 5.5 1.833 5.2 0 5.5-.136 5.5-2.5 0-2.322-.344-2.5-4.833-2.5-2.659 0-5.134.3-5.5.667M139 102.5c0 2 .5 2.5 2.5 2.5s2.5-.5 2.5-2.5-.5-2.5-2.5-2.5-2.5.5-2.5 2.5m27 27.5v30h6v-60h-6zM51 108.5c0 1.833.533 2.5 2 2.5s2-.667 2-2.5-.533-2.5-2-2.5-2 .667-2 2.5m11 0c0 2.111-.467 2.5-3 2.5s-3 .389-3 2.5.467 2.5 3 2.5 3-.389 3-2.5c0-1.833.533-2.5 2-2.5s2-.667 2-2.5-.533-2.5-2-2.5-2 .667-2 2.5m11.18-.25c.21 1.477 1.007 2.25 2.32 2.25s2.11-.773 2.32-2.25c.262-1.846-.155-2.25-2.32-2.25s-2.582.404-2.32 2.25m10.82.32c0 2.092.418 2.51 2.25 2.25 1.446-.206 2.364-1.124 2.57-2.57.26-1.832-.158-2.25-2.25-2.25s-2.57.477-2.57 2.57m50 0c0 2.092.418 2.51 2.25 2.25 1.446-.206 2.364-1.124 2.57-2.57.26-1.832-.158-2.25-2.25-2.25s-2.57.477-2.57 2.57m11-.07c0 2.677.463 2.815 6.25 1.858 2.775-.458 3.75-1.106 3.75-2.489 0-1.576-.783-1.869-5-1.869-4.667 0-5 .167-5 2.5m-100 5c0 2 .5 2.5 2.5 2.5s2.5-.5 2.5-2.5-.5-2.5-2.5-2.5-2.5.5-2.5 2.5m22-.066c0 2.197.441 2.566 3.07 2.566 2.611 0 3.021-.336 2.75-2.25-.229-1.611-1.101-2.34-3.07-2.566-2.368-.273-2.75.04-2.75 2.25m11 .066c0 2 .5 2.5 2.5 2.5s2.5-.5 2.5-2.5-.5-2.5-2.5-2.5-2.5.5-2.5 2.5m11.38-1.048c-.775 2.021.378 3.548 2.679 3.548 1.404 0 1.941-.692 1.941-2.5 0-1.846-.531-2.5-2.031-2.5-1.118 0-2.283.653-2.589 1.452M128 113.5c0 2 .5 2.5 2.5 2.5s2.5-.5 2.5-2.5-.5-2.5-2.5-2.5-2.5.5-2.5 2.5m-77.579 5.75c.061 1.736-.55 2.322-2.671 2.566-2.16.249-2.75.839-2.75 2.75 0 1.93.518 2.434 2.5 2.434 2 0 2.5-.5 2.5-2.5s.5-2.5 2.5-2.5 2.5-.5 2.5-2.5c0-1.951-.511-2.5-2.329-2.5-1.773 0-2.311.538-2.25 2.25M62 119.5c0 2.111-.467 2.5-3 2.5s-3 .389-3 2.5.467 2.5 3 2.5c2.667 0 3 .333 3 3 0 2.333.444 3 2 3s2-.667 2-3-.444-3-2-3c-1.467 0-2-.667-2-2.5s.533-2.5 2-2.5 2-.667 2-2.5-.533-2.5-2-2.5-2 .667-2 2.5m11 0c0 2.111-.467 2.5-3 2.5-2.554 0-3 .382-3 2.566 0 2.21.382 2.523 2.75 2.25 1.969-.226 2.841-.955 3.07-2.566.231-1.629.99-2.25 2.75-2.25 3.377 0 3.541 4.703.18 5.18-1.611.229-2.34 1.101-2.566 3.07-.273 2.368.04 2.75 2.25 2.75 2.184 0 2.566-.446 2.566-3 0-2.533.389-3 2.5-3 2 0 2.5-.5 2.5-2.5s-.5-2.5-2.5-2.5-2.5-.5-2.5-2.5-.5-2.5-2.5-2.5-2.5.5-2.5 2.5m11 0c0 2 .5 2.5 2.5 2.5s2.5-.5 2.5-2.5-.5-2.5-2.5-2.5-2.5.5-2.5 2.5m5.38 3.952c-.775 2.021.378 3.548 2.679 3.548 1.404 0 1.941-.692 1.941-2.5 0-1.846-.531-2.5-2.031-2.5-1.118 0-2.283.653-2.589 1.452m-38.57 4.072c-1.26 1.26.516 5.476 2.307 5.476 1.426 0 1.883-.729 1.883-3 0-2.242-.463-3-1.833-3-1.009 0-2.069.236-2.357.524M84 129.93c0 2.629.369 3.07 2.566 3.07 2.21 0 2.523-.382 2.25-2.75-.226-1.969-.955-2.841-2.566-3.07-1.914-.271-2.25.139-2.25 2.75M45 136c0 1.467.667 2 2.5 2s2.5-.533 2.5-2-.667-2-2.5-2-2.5.533-2.5 2m11 0c0 1.556.667 2 3 2 2.667 0 3 .333 3 3 0 2.333.444 3 2 3s2-.667 2-3-.444-3-2-3q-2 0-2-2c0-1.556-.667-2-3-2s-3 .444-3 2m11 0c0 1.556.667 2 3 2 2.667 0 3 .333 3 3 0 2.533.389 3 2.5 3s2.5-.467 2.5-3 .389-3 2.5-3c1.833 0 2.5-.533 2.5-2s-.667-2-2.5-2-2.5.533-2.5 2-.667 2-2.5 2-2.5-.533-2.5-2c0-1.556-.667-2-3-2s-3 .444-3 2m22 0c0 1.467-.667 2-2.5 2-2.111 0-2.5.467-2.5 3s.389 3 2.5 3 2.5-.467 2.5-3 .389-3 2.5-3c1.833 0 2.5-.533 2.5-2s-.667-2-2.5-2-2.5.533-2.5 2m-38 5c0 2.333.444 3 2 3s2-.667 2-3-.444-3-2-3-2 .667-2 3m-6 6c0 1.467.667 2 2.5 2s2.5-.533 2.5-2-.667-2-2.5-2-2.5.533-2.5 2m11 0c0 1.556.667 2 3 2s3-.444 3-2-.667-2-3-2-3 .444-3 2m11 .283c0 1.852.519 2.261 2.75 2.167 2.01-.084 2.836-.699 3.07-2.283.268-1.821-.17-2.167-2.75-2.167-2.53 0-3.07.402-3.07 2.283m11 .217c0 2-.5 2.5-2.5 2.5s-2.5.5-2.5 2.5c0 1.982.504 2.5 2.434 2.5 1.911 0 2.501-.59 2.75-2.75.244-2.121.83-2.732 2.566-2.671 1.712.061 2.25-.477 2.25-2.25 0-1.818-.549-2.329-2.5-2.329-2 0-2.5.5-2.5 2.5m11-.5c0 1.467.667 2 2.5 2s2.5-.533 2.5-2-.667-2-2.5-2-2.5.533-2.5 2m-38 5.5c0 1.833.533 2.5 2 2.5s2-.667 2-2.5-.533-2.5-2-2.5-2 .667-2 2.5m11 0c0 1.833.533 2.5 2 2.5s2-.667 2-2.5-.533-2.5-2-2.5-2 .667-2 2.5m22 0c0 2 .5 2.5 2.5 2.5s2.5-.5 2.5-2.5-.5-2.5-2.5-2.5-2.5.5-2.5 2.5M56 158c0 1.556.667 2 3 2s3-.444 3-2-.667-2-3-2-3 .444-3 2m11 0c0 1.556.667 2 3 2s3-.444 3-2-.667-2-3-2-3 .444-3 2m11 0c0 1.467.667 2 2.5 2s2.5-.533 2.5-2-.667-2-2.5-2-2.5.533-2.5 2m11 0c0 1.467.667 2 2.5 2s2.5-.533 2.5-2-.667-2-2.5-2-2.5.533-2.5 2m-16 5.5c0 2 .5 2.5 2.5 2.5s2.5-.5 2.5-2.5-.5-2.5-2.5-2.5-2.5.5-2.5 2.5m11 0c0 2 .5 2.5 2.5 2.5s2.5-.5 2.5-2.5-.5-2.5-2.5-2.5-2.5.5-2.5 2.5m71 0c0 2.458-.133 2.5-8 2.5s-8 .042-8 2.5.133 2.5 8 2.5 8-.042 8-2.5c0-2.364.3-2.5 5.5-2.5s5.5-.136 5.5-2.5-.3-2.5-5.5-2.5-5.5.136-5.5 2.5m-65.333 3.167c-.367.366-.667 1.491-.667 2.5 0 1.289.742 1.833 2.5 1.833 2 0 2.5-.5 2.5-2.5 0-1.758-.544-2.5-1.833-2.5-1.009 0-2.134.3-2.5.667"/><path fill-opacity=".421" fill-rule="evenodd" d="M74 31.025v3.026l15.75-.276 15.75-.275.316-2.75.317-2.75H74zM56 36c0 1.843.667 2 8.5 2s8.5-.157 8.5-2-.667-2-8.5-2-8.5.157-8.5 2m50 0c0 1.833.667 2 8 2s8-.167 8-2-.667-2-8-2-8 .167-8 2m50 0c0 1.467.667 2 2.5 2s2.5-.533 2.5-2-.667-2-2.5-2-2.5.533-2.5 2M45 41.403c0 2.172.483 2.437 5.001 2.75 4.872.338 5 .277 5-2.403C55 39.117 54.788 39 50 39c-4.613 0-5 .186-5 2.403m77 .097c0 2.364.3 2.5 5.5 2.5s5.5-.136 5.5-2.5-.3-2.5-5.5-2.5-5.5.136-5.5 2.5m28 0c0 2 .5 2.5 2.5 2.5s2.5-.5 2.5-2.5-.5-2.5-2.5-2.5-2.5.5-2.5 2.5m12 3c0 4.833.242 5.5 2 5.5s2-.667 2-5.5-.242-5.5-2-5.5-2 .667-2 5.5M40 50c0 4.518.217 5 2.25 5.001 2.08 0 2.224-.378 1.903-5-.286-4.128-.678-5.001-2.25-5.001-1.617 0-1.903.751-1.903 5m94-2.5c0 2.458.133 2.5 8 2.5s8-.042 8-2.5-.133-2.5-8-2.5-8 .042-8 2.5m33 8c0 5.2.136 5.5 2.5 5.5s2.5-.3 2.5-5.5-.136-5.5-2.5-5.5-2.5.3-2.5 5.5M34 72v16h5V56h-5zm139 8.5c0 17.833.072 18.5 2 18.5s2-.667 2-18.5-.072-18.5-2-18.5-2 .667-2 18.5M40 122v33.139l2.25-.319 2.25-.32v-65l-2.25-.32-2.25-.319zm127 8.139V160h5v-58.767l-2.5-.478-2.5-.478zM139 103c0 1.467.667 2 2.5 2s2.5-.533 2.5-2-.667-2-2.5-2-2.5.533-2.5 2m-5 5q0 2 2 2t2-2-2-2-2 2m11 0c0 1.467.667 2 2.5 2s2.5-.533 2.5-2-.667-2-2.5-2-2.5.533-2.5 2m-99.333 47.667c-.367.366-.667 1.491-.667 2.5 0 1.533.818 1.833 5 1.833 4.667 0 5-.167 5-2.5 0-2.282-.378-2.5-4.333-2.5-2.384 0-4.634.3-5 .667M56 163.5c0 2.364.3 2.5 5.5 2.5s5.5.136 5.5 2.5c0 2.471.1 2.5 8.5 2.5s8.5-.029 8.5-2.5-.1-2.5-8.5-2.5-8.5-.029-8.5-2.5c0-2.364-.3-2.5-5.5-2.5s-5.5.136-5.5 2.5m100 0c0 2.333.333 2.5 5 2.5s5-.167 5-2.5-.333-2.5-5-2.5-5 .167-5 2.5m-17 5.5c0 1.833.667 2 8 2s8-.167 8-2-.667-2-8-2-8 .167-8 2m-54.513 2.846c-.268.268-.487 1.537-.487 2.821 0 2.251.283 2.333 8.066 2.333h8.067l-.317-2.742c-.311-2.7-.427-2.743-7.579-2.82-3.995-.043-7.482.141-7.75.408M122 174.5c0 2.458.133 2.5 8 2.5s8-.042 8-2.5-.133-2.5-8-2.5-8 .042-8 2.5m-21 5.5c0 1.873.667 2 10.5 2s10.5-.127 10.5-2-.667-2-10.5-2-10.5.127-10.5 2"/></svg>