<svg width="500" height="500" viewBox="0 0 500 500" fill="#000000" xmlns="http://www.w3.org/2000/svg">
<path fill-rule="evenodd" clip-rule="evenodd" d="M209.919 3.4028C147.016 14.0277 92.3298 46.4546 54.107 95.792C47.7191 104.036 41.4061 112.138 40.077 113.794C34.7333 120.454 15.1672 161.995 15.1672 166.679C15.1672 169.437 14.2029 172.288 13.0263 173.017C10.9378 174.309 7.7875 188.034 2.69362 218.04C-10.8942 298.093 27.9356 392.318 96.3594 445.326C104.604 451.714 112.705 458.027 114.362 459.356C121.022 464.699 162.562 484.265 167.246 484.265C170.004 484.265 172.855 485.23 173.584 486.406C174.876 488.495 188.601 491.645 218.607 496.739C298.66 510.327 392.886 471.497 445.893 403.073C452.281 394.829 458.594 386.727 459.923 385.071C465.267 378.411 484.833 336.87 484.833 332.186C484.833 329.428 485.797 326.578 486.974 325.848C489.062 324.557 492.212 310.831 497.306 280.825C510.894 200.772 472.064 106.547 403.641 53.5396C395.396 47.1516 387.295 40.8386 385.638 39.5096C378.978 34.1659 337.438 14.5998 332.754 14.5998C329.996 14.5998 327.145 13.6355 326.416 12.4588C325.124 10.3703 311.399 7.22008 281.393 2.12621C262.254 -1.12148 233.689 -0.611843 209.919 3.4028ZM367.426 175.745L416.102 224.47L333.051 307.521L250 390.572L166.949 307.521L83.8983 224.47L132.574 175.745L181.251 127.02H250H318.749L367.426 175.745ZM228.385 158.048C203.853 163.998 187.562 174.156 161.313 199.878L136.331 224.355L161.313 249.325C175.053 263.058 187.562 274.322 189.113 274.355C190.662 274.387 193.25 276.009 194.867 277.955C210.583 296.891 275.892 297.508 302.847 278.974C306.495 276.466 310.429 274.387 311.591 274.355C312.753 274.322 324.947 263.058 338.687 249.325L363.669 224.355L338.687 199.878C299.537 161.518 266.198 148.874 228.385 158.048ZM274.622 178.735C308.378 199.998 311.334 242.483 280.688 265.931C240.244 296.879 184.244 255.024 201.585 206.805C211.855 178.246 250.355 163.449 274.622 178.735ZM243.327 204.152C236.37 206.156 227.516 217.443 227.516 224.308C227.516 245.141 257.972 254.327 268.165 236.569C278.602 218.382 263.293 198.399 243.327 204.152Z" fill="#000000"/>
</svg>
