<!-- Generated by IcoMoon.io -->
<svg version="1.1" xmlns="http://www.w3.org/2000/svg" width="32" height="32" viewBox="0 0 32 32" fill="#000000">
<title>loom</title>
<path d="M24.241 30.131l-21.83-15.315c-1.51-1.059-2.408-2.787-2.408-4.632s0.899-3.572 2.408-4.632l5.29-3.719 21.83 15.315c1.51 1.059 2.408 2.787 2.408 4.632s-0.899 3.573-2.408 4.632zM7.697 4.315l-4.122 2.884c-0.973 0.68-1.552 1.793-1.552 2.98s0.579 2.299 1.552 2.98l20.67 14.492 4.122-2.884c0.973-0.68 1.552-1.793 1.552-2.98s-0.579-2.299-1.552-2.98z"/>
<path d="M7.68 27.65l-4.117-2.888c-0.973-0.68-1.552-1.793-1.552-2.98s0.579-2.299 1.552-2.98l10.65-7.439-1.75-1.234-10.051 7.018c-1.51 1.059-2.408 2.787-2.408 4.632s0.899 3.572 2.408 4.632l5.273 3.702 6.524-4.564-1.75-1.234zM29.54 5.562l-5.277-3.702-6.528 4.568 1.75 1.234 4.769-3.339 4.117 2.888c0.973 0.68 1.552 1.793 1.552 2.98s-0.579 2.299-1.552 2.98l-10.65 7.439 1.75 1.234 10.064-7.032c1.51-1.059 2.408-2.787 2.408-4.632s-0.899-3.572-2.408-4.632z"/>
<path d="M3.659 16.261l8.303-5.81 1.156 1.653-8.303 5.81z"/>
<path d="M27.309 13.919l-4.043 2.831 1.155 1.654 4.196-2.936c-0.446-0.508-0.875-1.028-1.308-1.549z"/>
</svg>
