<svg xmlns="http://www.w3.org/2000/svg" width="200" height="200" fill="#000000"><path fill-opacity=".239" fill-rule="evenodd" d="M0 100.005V200.01l100.25-.255 100.25-.255.255-99.75L201.01 0H0zm.481.495c0 55 .121 77.647.269 50.326.148-27.32.148-72.32 0-100C.602 23.147.481 45.5.481 100.5M94.75 5.732c2.337.211 6.162.211 8.5 0 2.337-.21.425-.383-4.25-.383s-6.588.173-4.25.383m-2.506 2.932c-.691.279-1.005.913-.698 1.41s-.123.642-.955.323c-.956-.367-3.275 1.159-6.302 4.146-2.634 2.599-3.664 3.976-2.289 3.058 11.582-7.726 24.268-8.436 32.921-1.844 1.882 1.433 3.066 2.03 2.631 1.327-1.248-2.019-9.73-7.077-11.998-7.154-2.032-.07-2.032-.08-.054-.93 2.173-.934-10.949-1.266-13.256-.336M77.689 12.25c-3.114 3.084-3.126 3.123-.235.758a636 636 0 0 1 3.996-3.25c.523-.417.628-.758.235-.758s-2.191 1.462-3.996 3.25m33.129-1.731c1.825.793 4.637 2.381 6.25 3.529S120 15.871 120 15.546c0-1.014-9.31-6.548-10.946-6.507-.855.022-.061.688 1.764 1.48m-31.321 3.618c-4.351 3.82-6.005 6.53-3.987 6.53.771 0 1.159-.393.862-.874-.296-.48 1.411-2.636 3.794-4.792s4.012-3.937 3.619-3.96c-.394-.023-2.323 1.371-4.288 3.096M119 11.378c0 .207.787.995 1.75 1.75 1.586 1.243 1.621 1.208.378-.378-1.307-1.666-2.128-2.195-2.128-1.372M112.5 17c.995 1.1 2.035 2 2.31 2s-.315-.9-1.31-2-2.035-2-2.31-2 .315.9 1.31 2m12.472 2.227c1.072 1.818 2.612 5.772 3.423 8.789s1.503 4.528 1.539 3.36c.036-1.169-.606-4.029-1.427-6.357-.821-2.327-1.318-4.522-1.103-4.875.214-.354-.684-1.449-1.996-2.432l-2.386-1.789zm-54.414-.202c-2.45 1.566-2.594 1.853-.863 1.723 1.144-.086 2.584-.965 3.201-1.952 1.336-2.14 1.378-2.144-2.338.229M130 21c.825.533 1.95.969 2.5.969s.325-.436-.5-.969-1.95-.969-2.5-.969-.325.436.5.969m-61.11 3.75c-.583 1.512-1.306 5.079-1.607 7.925-.528 4.995-.632 5.143-2.98 4.25-3.953-1.503-8.846-1.088-10.648.904-2.017 2.228-2.059 3.055-.262 5.092.766.869 2.003 3.772 2.75 6.452.99 3.557 2.302 5.564 4.857 7.433l3.5 2.56-3.207-3.087c-1.764-1.698-3.482-4.368-3.819-5.933-.7-3.252-1.926-6.105-3.659-8.512-2.943-4.089 5.37-6.551 11.435-3.387L68 39.881V35.6c0-2.355.631-6.379 1.402-8.941 1.527-5.075 1.192-6.327-.512-1.909m10.694-1.109c-.527 1.373-.38 1.435.893.378 1.735-1.44 1.916-2.019.63-2.019-.491 0-1.176.739-1.523 1.641m36.166.192c.963 1.009 1.927 1.695 2.143 1.524.59-.465-2.007-3.357-3.015-3.357-.483 0-.091.825.872 1.833M134 22.449c0 .275 1.35 1.198 3 2.051s3 1.326 3 1.051-1.35-1.198-3-2.051-3-1.326-3-1.051m-53.559 4.106c-1.864 1.494-1.852 1.512.309.465 1.237-.6 2.25-1.3 2.25-1.555 0-.765-.519-.544-2.559 1.09m75.576 2.927c-4.262 4.344-4.462 4.429-6.458 2.75-2.022-1.701-2.028-1.695-.324.33 1.678 1.995 1.609 2.184-2.115 5.821-3.53 3.447-3.894 3.591-4.379 1.733-.666-2.547-5.195-3.761-8.865-2.375-2.291.865-2.846.761-3.207-.598-.24-.904-.489-.38-.553 1.164-.112 2.705-.036 2.75 2.107 1.25 3.42-2.396 9.777-1.814 9.777.895 0 .681-.9 2.053-2 3.048s-2 2.499-2 3.341c0 .841-1.005 2.684-2.233 4.095s-.108.563 2.489-1.884c3.323-3.129 4.355-4.681 3.483-5.234-1.082-.687-.419-1.179 1.339-.994.318.034 4.583-3.963 9.479-8.881S161.224 25 160.937 25s-2.5 2.017-4.92 4.482m6.494.141c-.945 1.443-1.224 2.318-.62 1.944 1.154-.713 3.483-4.567 2.759-4.567-.231 0-1.193 1.18-2.139 2.623M144 28.378c0 .207.787.995 1.75 1.75 1.586 1.243 1.621 1.208.378-.378-1.307-1.666-2.128-2.195-2.128-1.372M48.872 32.75c-1.243 1.586-1.208 1.621.378.378.962-.755 1.75-1.543 1.75-1.75 0-.823-.821-.294-2.128 1.372M97.5 32c1.1.473 3.125.884 4.5.914 1.97.044 2.182-.15 1-.914-.825-.533-2.85-.945-4.5-.914-2.576.047-2.717.176-1 .914m55.828 3.386c-6.414 7.349-36.452 39.969-38.968 42.316-1.298 1.211-2.36 3.15-2.36 4.308 0 1.442 6.821-5.718 21.625-22.702 11.894-13.644 22.314-25.596 23.155-26.558s1.27-1.75.953-1.75-2.3 1.974-4.405 4.386m-73.214.196c-1.117 1.421-2.342 3.558-2.721 4.75-.674 2.12-.706 2.124-1.471.168-.747-1.912-.785-1.903-.852.203-.038 1.212-.592 3.348-1.23 4.748-1.335 2.931.237 11.932 2.649 15.165 1.208 1.619 1.209 1.321.002-2.116-2.128-6.066-1.786-9.59 1.587-16.341 3.466-6.935 5.75-8.152 12.112-6.454 4.573 1.221 4.827.873.86-1.179-4.526-2.341-8.571-1.95-10.936 1.056m15.619-1.458c.679.684 1.486.991 1.793.683.308-.308-.247-.867-1.233-1.243-1.425-.542-1.54-.428-.56.56m63.139.626c-1.243 1.586-1.208 1.621.378.378 1.666-1.307 2.195-2.128 1.372-2.128-.207 0-.995.788-1.75 1.75M102 35l-3.5.737 3.191.131c1.755.073 3.469-.318 3.809-.868s.479-.941.309-.868-1.884.463-3.809.868m-13.306 2.639c-.799.799.104 2.361 1.365 2.361.518 0 .941-.675.941-1.5 0-1.546-1.18-1.987-2.306-.861M154 41c-1.742 2.2-2.943 4-2.668 4s1.926-1.8 3.668-4 2.943-4 2.668-4-1.926 1.8-3.668 4m-71.5-2c.34.55.816 1 1.059 1s.441-.45.441-1-.477-1-1.059-1-.781.45-.441 1m15.02-.033c-.238.385.111.704.774.709s2.275.354 3.581.774c1.492.48 2.148.397 1.765-.223-.759-1.228-5.532-2.21-6.12-1.26m9.885 1.283L105.5 42.5l2.25-1.905c1.237-1.048 2.25-2.06 2.25-2.25 0-.8-.805-.209-2.595 1.905m4.345-.678c-3.738 2.028-3.511 2.873.25.928 1.65-.853 3-1.765 3-2.026 0-.643-.107-.607-3.25 1.098m7.888-.072c.317.825.753 1.5.969 1.5s.393-.675.393-1.5-.436-1.5-.969-1.5-.709.675-.393 1.5M59 40.186c1.925.54 4.962 1.612 6.75 2.382 1.787.77 3.25 1.175 3.25.901 0-1.413-6.956-4.449-10-4.363l-3.5.098zM39.872 41.75c-1.243 1.586-1.208 1.621.378.378.962-.755 1.75-1.543 1.75-1.75 0-.823-.821-.294-2.128 1.372m92.79-.132c-4.317 2.34-2.54 2.684 2.442.474 2.683-1.191 3.616-1.963 2.396-1.981-1.1-.017-3.277.661-4.838 1.507m-34.098.675c.376.986.935 1.541 1.243 1.233s.001-1.114-.683-1.793c-.988-.98-1.102-.865-.56.56m63.676 5.626c1.79 2.706 3.412 4.762 3.604 4.57.407-.407-5.718-9.489-6.4-9.489-.253 0 1.005 2.214 2.796 4.919m-22.573-3.252c-.367.366-.667 1.131-.667 1.7 0 .626.466.567 1.183-.15.651-.651.951-1.416.667-1.7s-.817-.217-1.183.15M59.195 47.5c.02 1.65.244 2.204.498 1.231s.237-2.323-.037-3-.481.119-.461 1.769m27.198-.918c.334.87.607 2.22.607 3S87.375 51 87.833 51c.459 0 .834-1.35.834-3 0-1.945-.507-3-1.441-3-.902 0-1.213.591-.833 1.582m-4.934.485c-.363.586-.445 1.281-.183 1.543s.743-.218 1.069-1.067c.676-1.762.1-2.072-.886-.476m34.458-.817c-.67 2.01-.309 4.75.625 4.75.664 0 1.208-1.125 1.208-2.5s-.394-2.5-.875-2.5-.912.112-.958.25m28.623 7c-4.173 5.322-4.573 6.053-1.504 2.75 4.382-4.716 8.422-10 7.645-10-.251 0-3.014 3.263-6.141 7.25M60 51.941c0 .518.445 1.216.989 1.552.566.35.734-.051.393-.941C60.717 50.82 60 50.503 60 51.941m40.28 3.982c-.844 1.351-.676 1.973.776 2.88 1.212.757 2.066.809 2.472.152.341-.553.25-.94-.204-.861-2.169.377-2.534-.22-.875-1.433 1.514-1.107 1.578-1.437.37-1.9-.805-.309-1.947.214-2.539 1.162m66.8.077c1.458 3.061 1.92 3.628 1.92 2.358 0-.537-.7-1.849-1.555-2.917-1.467-1.83-1.487-1.798-.365.559m-70.681 4.25c-.396.688-.351.916.099.509s1.534-.183 2.41.5c1.409 1.098 1.434 1.039.22-.509-1.636-2.086-1.8-2.116-2.729-.5M73.272 64c0 2.475.195 3.487.434 2.25.238-1.237.238-3.263 0-4.5-.239-1.237-.434-.225-.434 2.25m-5.929 4.5c.003 4.4.179 6.076.39 3.724s.209-5.952-.006-8-.388-.124-.384 4.276M70.32 67c0 3.575.182 5.037.403 3.25s.222-4.713 0-6.5c-.221-1.788-.403-.325-.403 3.25m80.17-2.984c-.346.559-1.117.715-1.714.346-.663-.41-.796-.203-.341.532.569.921 1.074.929 2.154.032 1.415-1.174 1.794-1.926.97-1.926-.243 0-.724.457-1.069 1.016m-48.74 1.646c.688.278 1.813.278 2.5 0 .688-.277.125-.504-1.25-.504s-1.937.227-1.25.504m-7.243 1.327c-.35.566.051.734.941.393 1.732-.665 2.049-1.382.611-1.382-.518 0-1.216.445-1.552.989m36.662 2.307c-1.242 1.497-1.158 5.704.115 5.704.473 0 .728-1.013.568-2.25-.159-1.237.06-2.812.488-3.5 1.022-1.641.203-1.609-1.171.046M96 70.046c-1.095.741-.691.834 1.5.344 3.677-.823 4.475-1.395 1.917-1.375-1.055.009-2.592.472-3.417 1.031m77.079 3.537c.048 1.165.285 1.402.604.605.289-.722.253-1.585-.079-1.917s-.568.258-.525 1.312m-26.133 3.316c.585 1.094 1.52 2.271 2.076 2.614.556.344.709 1.114.34 1.711-.41.663-.203.796.532.341.845-.521.893-1.116.163-1.996-.572-.689-.839-1.454-.594-1.699s-.46-1.012-1.568-1.704c-1.84-1.148-1.922-1.085-.949.733M24.079 78.583c.048 1.165.285 1.402.604.605.289-.722.253-1.585-.079-1.917s-.568.258-.525 1.312m72.486.312c-.305.493.147 1.164 1.004 1.493s1.307 1.004 1 1.5.063 1.141.821 1.432c1.127.432 1.177-.006.275-2.396-1.126-2.982-2.112-3.628-3.1-2.029M174.158 80c0 1.375.227 1.938.504 1.25.278-.687.278-1.812 0-2.5-.277-.687-.504-.125-.504 1.25m-100.634.359c-1.006.736-1.533 1.817-1.171 2.404.363.586.094 1.294-.597 1.573-.96.387-.967.525-.029.585 1.301.084 4.864-4.663 4.085-5.442-.252-.252-1.281.144-2.288.88m67.079-.192c.283.458.938.833 1.456.833s.941-.375.941-.833c0-.459-.655-.834-1.456-.834s-1.224.375-.941.834m-32.731 1.583c-1.243 1.586-1.208 1.621.378.378 1.666-1.307 2.195-2.128 1.372-2.128-.207 0-.995.787-1.75 1.75m29.891 2.085c.253 1.73.861 2.898 1.349 2.596 1.229-.76 1.113-1.741-.461-3.894-1.22-1.668-1.305-1.542-.888 1.298m-70.426 1.476c-3.168 4.772-4.345 7.356-4.266 9.373.038.999.92-.096 1.959-2.434 1.854-4.174 2.978-5.468 2.603-3-.104.688-.517 1.775-.918 2.416-.552.883-.006.893 2.258.038 2.187-.826 4.087-.834 7.091-.033 2.675.714 3.746.739 3.078.071-.563-.563-3.237-1.237-5.941-1.497-5.11-.491-5.656-1.296-3.757-5.538 1.385-3.093.105-2.726-2.107.604M142.71 84c.288 1.1.879 2 1.313 2s.554-.9.267-2-.879-2-1.313-2-.554.9-.267 2m-20.255 3.068c-.022 1.613.344 2.932.812 2.932s.587.427.264.95c-.944 1.528 2.768 3.022 4.751 1.912 1.368-.766 1.51-1.383.674-2.943-.581-1.086-1.56-1.664-2.176-1.283-.756.467-.885.08-.397-1.191.397-1.036.398-1.559.001-1.162s-1.435.076-2.306-.712c-1.411-1.277-1.588-1.114-1.623 1.497m-13.642-1.385c.721.289 1.584.253 1.916-.079s-.258-.568-1.312-.525c-1.165.048-1.402.285-.604.604m5 2c.721.289 1.584.253 1.916-.079s-.258-.568-1.312-.525c-1.165.048-1.402.285-.604.604m18.167.841c-.696.838-1.071 1.718-.835 1.955.237.236.98-.449 1.651-1.524 1.452-2.325.968-2.58-.816-.431m-44.818 1.507c1.048.611 2.526.623 4 .033 2.045-.82 1.837-.941-1.662-.97-3.05-.025-3.605.197-2.338.937m37.171.606c0 .75.825 1.363 1.834 1.363 1.008 0 1.833-.398 1.833-.883 0-.486-.825-1.099-1.833-1.363-1.116-.292-1.834.054-1.834.883m-40.72 3.546c.289.467.944.591 1.456.274 1.308-.808 1.161-1.124-.525-1.124-.801 0-1.22.383-.931.85m12.724-.513c.368.369-.002 1.695-.822 2.948-.924 1.409-1.116 2.511-.504 2.889 1.607.993 3.117-.529 2.488-2.509-.402-1.269-.116-1.765.931-1.611.832.122 1.825.535 2.208.917.959.959 2.362.874 2.362-.143 0-.462-1.146-1.362-2.547-2-2.786-1.27-5.18-1.555-4.116-.491m-9.13 1.58c-.789.951-.341 1.25 1.878 1.25 1.665 0 2.915-.536 2.915-1.25 0-.687-.845-1.25-1.878-1.25s-2.344.563-2.915 1.25m27.316-.348c.537.526 2.327 1.277 3.977 1.668 3.87.918 3.001.065-1.477-1.449-1.913-.646-3.038-.745-2.5-.219m12.338 1.012c-1.299 1.053-2.054 2.222-1.679 2.598.732.736 5.734-2.516 5.787-3.762.054-1.304-1.665-.817-4.108 1.164M134 94.378c0 .207.787.995 1.75 1.75 1.586 1.243 1.621 1.208.378-.378-1.307-1.666-2.128-2.195-2.128-1.372M95.5 98c-.34.55-.141 1 .441 1S97 98.55 97 98s-.198-1-.441-1-.719.45-1.059 1m43.25-.338c.688.278 1.813.278 2.5 0 .688-.277.125-.504-1.25-.504s-1.937.227-1.25.504m-50.584 1.214c-1.074.681-1.025.964.25 1.453 1.002.385 1.584.069 1.584-.86 0-1.7-.058-1.719-1.834-.593M93 100.972c0 1.356 1.777 2.198 2.425 1.149.31-.501-.109-1.169-.931-1.485-.822-.315-1.494-.164-1.494.336m-30.921 8.611c.048 1.165.285 1.402.604.605.289-.722.253-1.585-.079-1.917s-.568.258-.525 1.312m73 1c.048 1.165.285 1.402.604.605.289-.722.253-1.585-.079-1.917s-.568.258-.525 1.312M87 111.559c0 .857.457 1.276 1.016.931.559-.346.758-1.047.441-1.559-.857-1.387-1.457-1.129-1.457.628m-2.921 3.024c.048 1.165.285 1.402.604.605.289-.722.253-1.585-.079-1.917s-.568.258-.525 1.312m52.079.417c0 1.375.227 1.938.504 1.25.278-.687.278-1.812 0-2.5-.277-.687-.504-.125-.504 1.25m-75.079.583c.048 1.165.285 1.402.604.605.289-.722.253-1.585-.079-1.917s-.568.258-.525 1.312M75.272 121c0 2.475.195 3.487.434 2.25.238-1.237.238-3.263 0-4.5-.239-1.237-.434-.225-.434 2.25m61.886-1c0 1.375.227 1.938.504 1.25.278-.687.278-1.812 0-2.5-.277-.687-.504-.125-.504 1.25m-24.394 2.454c-.334 1.748.295 3.187 2.188 5 1.462 1.4 3.195 2.546 3.853 2.546 1.638 0 1.506-2.497-.207-3.919-.771-.639-1.679-2.27-2.019-3.622-.796-3.173-3.209-3.176-3.815-.005m-34.321-.844c.244.335-.42 2.221-1.476 4.19-2.146 4.004-1.878 5.185.701 3.093 1.135-.922 1.462-.97.965-.143-.413.688-.363 1.25.112 1.25 1.022 0 .985-7.679-.04-8.462-.388-.296-.506-.264-.262.072m35.588 1.39c0 .825.436 2.175.969 3 .862 1.333.969 1.333.969 0 0-.825-.436-2.175-.969-3-.862-1.333-.969-1.333-.969 0M72.6 133.6c-.356.927-.422 1.911-.147 2.186s.791-.259 1.147-1.186.422-1.911.147-2.186-.791.259-1.147 1.186M34 142.486c0 .778-.637 1.774-1.417 2.214-1.179.666-1.096 1.194.5 3.161 1.201 1.479 1.917 1.834 1.917.95 0-.776-.562-2.042-1.25-2.813-1.058-1.186-.989-1.205.448-.121.995.751 2.242.938 3.013.452 1.024-.645.814-1.321-.947-3.043-1.575-1.54-2.264-1.784-2.264-.8m129.132.267c-.661 1.236-1.911 2.247-2.778 2.247-1.161 0-.954.504.785 1.917 1.967 1.596 2.495 1.679 3.161.5.44-.78 1.538-1.417 2.441-1.417 1.487 0 1.493-.118.065-1.25-.867-.687-1.777-1.924-2.023-2.747-.342-1.143-.733-.965-1.651.75M70 150.097c-2.475 2.144-4.05 3.906-3.5 3.916s.325.454-.5.987c-1.562 1.009-1.038 1.222 3 1.222 5.505 0 6.525-.237 5.046-1.172-1.221-.773-1.245-1.309-.151-3.354.716-1.338 1.145-3.122.954-3.965-.262-1.15-1.472-.559-4.849 2.366m52-.691c0 .812.457 1.759 1.016 2.104s.777 1.016.484 1.491c-.944 1.527 3.574 3.917 5.871 3.106 1.171-.413 3.475-.625 5.121-.471 2.088.197 2.556.012 1.548-.611-.795-.491-1.794-.677-2.221-.413s-2.093-.494-3.703-1.684-3.388-1.878-3.952-1.529c-.564.348-1.351.107-1.749-.537-.452-.731-.291-.903.43-.457.635.392 1.155.477 1.155.189s-.9-1.005-2-1.594c-1.58-.846-2-.76-2 .406M119.5 151c-.34.55-.141 1 .441 1s1.059-.45 1.059-1-.198-1-.441-1-.719.45-1.059 1m1.25 6.662c.688.278 1.813.278 2.5 0 .688-.277.125-.504-1.25-.504s-1.937.227-1.25.504m-49.982 2.506c.582.582 1.647.86 2.369.62.749-.25.295-.703-1.057-1.057-1.663-.435-2.054-.305-1.312.437m54.673.282c-1.875 1.401-1.864 1.431.309.884 1.237-.312 2.25-.965 2.25-1.451 0-1.19-.295-1.124-2.559.567m28.309-.788c.688.278 1.813.278 2.5 0 .688-.277.125-.504-1.25-.504s-1.937.227-1.25.504M32 162c.825.533 1.95.969 2.5.969s.325-.436-.5-.969-1.95-.969-2.5-.969-.325.436.5.969m133 0c-.901.582-1.025.975-.309.985.655.008 1.469-.435 1.809-.985.767-1.242.421-1.242-1.5 0m-121 3.614c8.321 2.107 31.102 4.438 43.769 4.479 6.198.02 11.028.426 10.734.903-.295.476-.067 1.155.505 1.509s.918.048.767-.681c-.208-1.001 2.167-1.46 9.725-1.88 8.078-.45 6.31-.594-9.196-.75-21.385-.216-40.983-1.63-52.304-3.773-9.296-1.761-11.327-1.662-4 .193m81.75 3.092c1.237.238 3.262.238 4.5 0 1.238-.239.225-.434-2.25-.434s-3.487.195-2.25.434M57.272 174c0 2.475.195 3.488.434 2.25.238-1.238.238-3.262 0-4.5-.239-1.238-.434-.225-.434 2.25m-7.114-1c0 1.375.227 1.938.504 1.25.278-.687.278-1.812 0-2.5-.277-.687-.504-.125-.504 1.25m16.842.941c0 1.132.45 2.059 1 2.059s1-.648 1-1.441-.45-1.719-1-2.059-1 .309-1 1.441m4.195.559c.02 1.65.244 2.204.498 1.231s.237-2.323-.037-3-.481.119-.461 1.769m8.615 1c-.225 1.925-.049 3.5.391 3.5.439 0 .799-1.575.799-3.5s-.176-3.5-.391-3.5c-.214 0-.574 1.575-.799 3.5m21.062-2.75c-.545 3.205-.483 5.372.164 5.772.421.261.721-1.1.667-3.024-.091-3.195-.515-4.6-.831-2.748m-12.991 3.031c-.329 1.988-.183 2.921.372 2.366.504-.504.749-1.981.544-3.282-.315-2.001-.455-1.861-.916.916m-35.009-.031c-1.243 1.586-1.208 1.621.378.378 1.666-1.307 2.195-2.128 1.372-2.128-.207 0-.995.787-1.75 1.75m43.286.25c0 1.375.227 1.938.504 1.25.278-.687.278-1.812 0-2.5-.277-.687-.504-.125-.504 1.25m-21.079 1.187c-.053 1.13-1.15 1.819-3.329 2.09-2.331.289-1.837.444 1.75.548 2.75.079 4.505-.186 3.9-.59s-1.357-1.41-1.671-2.235c-.467-1.226-.586-1.192-.65.187m18.187 1.695c.136 1.809.749 2.096 4.197 1.968 3.347-.124 3.524-.22 1.037-.562-1.65-.227-3.539-1.113-4.197-1.969-1.037-1.349-1.175-1.274-1.037.563m-32.516-.176c1.237.238 3.263.238 4.5 0 1.237-.239.225-.434-2.25-.434s-3.487.195-2.25.434m50.573-.027c.441.736-.143 1.33-1.558 1.583-1.246.223-.24.416 2.235.429s3.825-.198 3-.468-2.149-.994-2.942-1.607c-1.08-.836-1.265-.82-.735.063m-8.054 2.014c.973.254 2.323.237 3-.037s-.119-.481-1.769-.461-2.204.244-1.231.498"/><path fill-opacity=".433" fill-rule="evenodd" d="M86.707 7.533c-2.086.766-5.011 2.259-6.5 3.32s-3.157 2.034-3.707 2.164c-2.519.598-4.589 1.484-13 5.562C42.493 28.765 28.013 46.661 21.896 70c-2.799 10.676-3.063 28.079-.58 38.23 1.791 7.323 6.372 18.119 9.631 22.695 3.429 4.816 2.23 13.075-1.899 13.075-3.045 0-2.961 2.399.13 3.708 3.954 1.675 4.691 4.17 1.899 6.431-2.116 1.713-2.235 2.448-1.917 11.766.34 9.926.343 9.939 3.079 10.49 1.507.303 3.493.261 4.414-.092 1.214-.466 1.451-.281.862.673-.629 1.018-.195 1.161 1.92.63 1.934-.486 2.525-.351 2.024.461-.508.821.249.957 2.666.479 2.615-.517 3.037-.415 1.875.452-1.148.858-.445.975 3 .502 3.326-.457 4.109-.34 3 .448-1.104.784.083.941 4.5.593 4.513-.354 5.256-.251 3 .418-2.195.651-.987.79 4.5.52 4.791-.236 6.236-.105 4 .362-3.192.666-2.899.796 3.335 1.481 3.759.413 13.659.567 22 .342 11.221-.302 12.955-.214 6.665.34-6.299.554-4.228.66 8 .409 17.892-.366 34.613-2.249 50.798-5.717l10.299-2.208.201-11.15c.111-6.132-.085-10.972-.435-10.755s-1.169-.246-1.819-1.03c-1.736-2.092.401-5.553 3.429-5.553 1.786 0 2.364-.513 2.252-2-.083-1.1-.842-2.007-1.688-2.015-2.667-.027-4.156-1.581-4.969-5.183-.68-3.015-.275-4.344 2.97-9.739 7.276-12.097 11.658-31.156 10.36-45.058-1.415-15.152-8.027-32.937-15.783-42.451-1.818-2.23-3.524-4.728-3.792-5.551-.377-1.156-.762-.986-1.689.748-1.061 1.982-.742 2.86 2.723 7.497 5.343 7.148 9.688 16.118 12.329 25.453 1.77 6.254 2.192 10.275 2.135 20.299-.04 6.875-.54 13.85-1.111 15.5l-1.038 3-.086-2.917c-.105-3.555-1.476-2.561-1.54 1.116-.066 3.788-2.168 3.942-2.913.215-.348-1.74-.639-7.945-.647-13.789-.027-21.178-1.498-15.034-1.986 8.293-.372 17.787-.818 24.023-1.741 24.33-.899.299-1.064-.472-.598-2.802.501-2.504.333-3.106-.759-2.725-.838.292-1.286 1.553-1.114 3.134.158 1.455-.179 2.645-.75 2.645s-1.075-.562-1.119-1.25c-.421-6.49-.528-11.407-.71-32.7-.135-15.816-.552-24.107-1.18-23.479-.534.534-1.097 7.487-1.25 15.45-.23 11.93-.537 14.479-1.746 14.479-1.119 0-1.398-1.1-1.18-4.648.157-2.557-.196-4.946-.784-5.309-.749-.463-1.069 7.699-1.069 27.276 0 21.128-.305 28.189-1.25 28.975-.995.827-1.191-3.432-.963-20.878.247-18.8.077-21.916-1.191-21.916-.813 0-1.795.514-2.183 1.141-.388.628-.61 10.157-.494 21.177.191 18.118.061 19.91-1.361 18.73-1.724-1.431-5.563-13.275-8.138-25.109l-1.645-7.561 6.112-6.424c3.362-3.533 6.113-7.217 6.113-8.186s1.617-4.014 3.593-6.765l3.594-5.002-1.727-5.488c-1.281-4.073-1.44-5.832-.617-6.824.818-.986.787-1.684-.117-2.659-.908-.981-.915-1.149-.027-.649 1.357.763 2.942-5.535 1.841-7.316-.887-1.436-4.853-1.352-6.34.135-.933.933-1.237.211-1.368-3.25-.165-4.36-.176-4.374-.56-.7-.31 2.956-.817 3.75-2.398 3.75-1.103 0-2.93.495-4.06 1.1-2.777 1.486-2.16.535 7.204-11.1 12.422-15.433 20.251-26.41 19.109-26.791-1.846-.615-7.479 4.411-19.678 17.561-6.495 7.001-12.715 13.63-13.821 14.73l-2.011 2 1.417-2c.779-1.1 2.665-3.478 4.191-5.285S138 47.413 138 46.78s.966-2.179 2.147-3.436c1.776-1.891 1.928-2.549.877-3.815-1.59-1.916-4.314-1.947-7.904-.091l-2.781 1.438-1.174-7.555c-2.055-13.218-6.823-20.359-16.665-24.963-4.061-1.899-6.597-2.327-13.5-2.278-4.675.034-10.207.687-12.293 1.453M91 9.118c-2.927 1.161-8.296 6.115-11.253 10.382-2.035 2.937-1.997 2.926 1.77-.5l3.847-3.5-3.014 4c-4.31 5.719-5.089 7.344-2.397 5l2.297-2-2.121 3.5c-2.644 4.361-2.767 6.009-.215 2.861 1.053-1.299 2.26-2.016 2.683-1.594s.237 1.299-.414 1.95c-1.757 1.757-1.432 3.092.567 2.328.963-.369.281.768-1.514 2.525-1.796 1.757-3.576 4.373-3.956 5.813l-.692 2.617-.606-3c-.515-2.549-.802-1.947-1.905 4-1.504 8.108-.448 13.964 3.207 17.783 1.219 1.273 1.711 1.618 1.093.766-.617-.852-1.678-3.926-2.357-6.832-1.538-6.578-.267-10.283 4.549-13.26 2.862-1.768 3.889-1.911 7.252-1.005 2.155.58 5.06 1.953 6.456 3.051 4.177 3.286 7.931 2.123 5.829-1.805-.866-1.619-.594-1.834 2.241-1.771 2.939.067 3.192.319 2.827 2.823-.331 2.271-.027 2.75 1.748 2.75 1.181 0 3.296-.752 4.699-1.671 1.403-.92 4.195-1.939 6.204-2.266 4.246-.69 5.531-3.498 2.1-4.587-1.713-.543-1.889-.885-.807-1.57.93-.589.074-.897-2.618-.942l-4-.067 4-1.61c5.181-2.085 5.095-1.972 3.158-4.112-.914-1.011-1.36-2.14-.99-2.51s-.382-1.796-1.672-3.169c-1.551-1.651-1.879-2.496-.967-2.496.757 0-.402-1.855-2.576-4.122-3.149-3.284-3.444-3.869-1.453-2.875 1.375.686 3.625 2.202 5 3.368 1.952 1.657 1.857 1.411-.437-1.125-3.809-4.209-2.17-4.206 2.265.004 2.216 2.104 3.059 2.541 2.39 1.239-2.943-5.731-11.16-9.46-20.718-9.404-3.85.023-8.125.488-9.5 1.033m18.344 1.998c2.115 1.116 4.096 1.777 4.404 1.469s-1.071-1.24-3.062-2.072c-5.127-2.142-5.893-1.797-1.342.603M80.154 13.6c-5.007 4.286-7.402 8.395-6.096 10.459.785 1.241.93 1.233 1.045-.059.074-.825.051-2.108-.051-2.85-.114-.828.287-1.058 1.036-.596.745.461.964.339.56-.314-.363-.588-.293-1.22.157-1.405.987-.405 8.612-8.835 7.991-8.835-.24 0-2.329 1.62-4.642 3.6m-6.332 2.213C72.545 17.36 68.575 20.049 65 21.79 42.695 32.649 27.653 53.605 23.941 78.991c-1.231 8.418-.756 21.809.976 27.509l.911 3 .086-3.309c.099-3.825 1.836-3.51 1.836.332 0 2.865.868 4.192 2 3.061.413-.412.932-8.475 1.154-17.917.569-24.196 1.876-16.941 1.996 11.083.064 14.767.465 23.25 1.1 23.25.55 0 1-1.35 1-3s.482-3 1.072-3c.589 0 .926 1.104.75 2.454s.128 2.478.678 2.508c.623.034 1.268-9.274 1.71-24.704.85-29.631 1.378-36.717 1.615-21.648C41.048 92.786 41.889 99 43.584 99c.869 0 1.435-1.771 1.679-5.25.202-2.888.45 6.957.552 21.878.138 20.293.5 27.389 1.435 28.165.993.825 1.25-3.305 1.25-20.113 0-18.011.223-21.192 1.5-21.429 1.803-.333 4.147 4.202 2.845 5.504-.494.494-.774 7.839-.622 16.322L52.5 139.5l2.226-7c3.509-11.037 5.425-21.286 5.724-30.622.175-5.454.873-9.819 1.9-11.879 1.121-2.245 1.831-7.422 2.289-16.68l.663-13.425-3.568-3.697c-2.013-2.086-4.052-5.53-4.677-7.902-.611-2.313-1.773-4.868-2.583-5.679-1.99-1.989-1.854-3.342.46-4.581 2.751-1.472 6.689-1.281 10.116.491L68 40.051v-3.844c0-5.405 2.408-12.884 5.943-18.457 3.391-5.346 3.342-6.131-.121-1.937m49.665-.473c.835 1.275 5.68 4.387 10.766 6.917s11.102 6.193 13.37 8.14c4.073 3.498 4.144 3.517 5.905 1.572 1.005-1.11 1.282-1.969.636-1.969-.631 0-3.217-1.58-5.747-3.512-6.71-5.121-12.835-8.525-20.063-11.149l-6.386-2.318zM71.116 31.098c-.614 1.76-1.084 3.696-1.046 4.301.039.606.716-.66 1.504-2.812.789-2.152 1.259-4.087 1.046-4.301-.214-.213-.891 1.052-1.504 2.812m65.44 22.352c-12.971 13.997-24.028 25.724-24.57 26.059s-.986 1.707-.986 3.05c0 1.993-.505 2.444-2.75 2.456-3.399.019-5.949 1.435-4.357 2.419.609.376 1.107.32 1.107-.125s1.082-.809 2.405-.809 2.176.45 1.898 1 .772-.575 2.335-2.5 7.57-8.9 13.351-15.5C148.634 42.504 161.09 28 160.629 28c-.268 0-11.101 11.452-24.073 25.45M95.584 33.137c.898 1.453 7.442 1.858 10.415.645 2.991-1.22 2.807-1.282-3.833-1.282-3.836 0-6.798.286-6.582.637m.221 3.015c5.63 2.718 6.624 2.913 9.272 1.816 4.552-1.886 4.347-2.77-.516-2.222-2.691.303-6.251-.134-9.16-1.125-6.866-2.339-6.757-1.927.404 1.531m-4.609 1.283c2.582 1.402 5.156 3.339 5.719 4.306s1.038 1.237 1.055.598C98.002 41.095 92.405 36 91.005 36c-.463 0-1.666-.25-2.673-.556s.281.59 2.864 1.991m19.673 1.075c-1.448.786-2.93 2.205-3.293 3.154-.574 1.495-.379 1.467 1.472-.207 1.173-1.062 3.33-2.463 4.793-3.113 1.462-.65 1.984-1.2 1.159-1.223-.825-.022-2.684.602-4.131 1.389m16.21.073c.048 1.165.285 1.402.604.605.289-.722.253-1.585-.079-1.917s-.568.258-.525 1.312M55.5 40c-.351.569.503 1 1.981 1 1.429 0 4.356.897 6.504 1.993 4.89 2.494 6.418.833 1.814-1.974C62.31 38.891 56.538 38.32 55.5 40m76.361 1.914c-3.027 2.454-1.723 3.881 1.573 1.721 1.372-.899 3.16-1.635 3.972-1.635s1.754-.45 2.094-1c1.121-1.814-5.209-1.056-7.639.914M58.46 45.416c.297 1.421.766 3.679 1.042 5.018.277 1.338 1.964 3.44 3.75 4.67l3.248 2.237-2.848-3.077c-1.566-1.692-2.814-3.342-2.774-3.666.201-1.609-1.248-6.709-2.047-7.203-.506-.312-.671.586-.371 2.021m11.735.084c.02 1.65.244 2.204.498 1.231s.237-2.323-.037-3-.481.119-.461 1.769m11.213 2c-1.489 2.272-1.496 2.716-.08 4.877 2.925 4.465 9.215 4.214 11.72-.467 3.114-5.818-7.967-10.016-11.64-4.41m70.92 4c.005 3.85.185 5.302.402 3.228.216-2.075.213-5.225-.008-7s-.398-.078-.394 3.772m-39.761-3.574c-2.222 2.455-1.698 5.201 1.276 6.683 4.734 2.36 10.495-2.24 8.193-6.542-1.461-2.73-7.051-2.813-9.469-.141M54.31 56.5c.005 3.3.192 4.529.415 2.732s.218-4.497-.01-6c-.229-1.503-.411-.032-.405 3.268m-9.31 3c0 4.333.422 7.5 1 7.5s1-3.167 1-7.5-.422-7.5-1-7.5-1 3.167-1 7.5M39.5 54c.34.55.816 1 1.059 1s.441-.45.441-1-.477-1-1.059-1-.781.45-.441 1m86.579.583c.048 1.165.285 1.402.604.605.289-.722.253-1.585-.079-1.917s-.568.258-.525 1.312M157 54c0 .55.45 1 1 1s1-.45 1-1-.45-1-1-1-1 .45-1 1m-56.944 1.895c-.752 1.405-.635 2.21.452 3.112 1.936 1.606 4.884.457 4.096-1.597-.332-.866-.604-1.987-.604-2.492 0-1.672-2.912-.951-3.944.977m24.568 2.644c-.965 2.514-.681 3.163.498 1.136.584-1.004.851-2.036.593-2.293-.257-.258-.749.263-1.091 1.157m-30.931 3.103c-3.305 3.029-3.545 3.589-2.51 5.861 1.067 2.342 1.265 2.402 2.94.886 2.697-2.441 10.287-3.005 13.357-.994 2.914 1.909 3.234.952 1.423-4.245l-1.098-3.148-2.98 1.749c-2.94 1.725-3.011 1.714-5.229-.854l-2.248-2.604zm-27.678 8.049c.011 6.703.323 9.334.985 8.309 1.282-1.983 1.282-16.708 0-17.5-.641-.396-.995 2.903-.985 9.191M73.3 65c0 3.025.187 4.263.416 2.75s.229-3.987 0-5.5-.416-.275-.416 2.75m-2.98 2c0 3.575.182 5.037.403 3.25s.222-4.713 0-6.5c-.221-1.788-.403-.325-.403 3.25m80.689-3.511c-.68.819-1.704 1.199-2.277.845-.624-.385-.739-.155-.287.577.566.916 1.226.792 2.654-.501 1.046-.946 1.901-1.875 1.901-2.065 0-.743-.811-.277-1.991 1.144M60.36 72c0 5.225.169 7.362.375 4.75s.206-6.888 0-9.5-.375-.475-.375 4.75m-6.56-6.25c-.175.412-.063 6.6.25 13.75l.568 13 .204-11.5c.113-6.325.477-12.513.808-13.75.548-2.043-1.046-3.349-1.83-1.5m67.659.317c-.363.586-.445 1.281-.183 1.543s.743-.218 1.069-1.067c.676-1.762.1-2.072-.886-.476m7.413 1.683c-1.243 1.586-1.208 1.621.378.378.963-.755 1.75-1.543 1.75-1.75 0-.823-.821-.294-2.128 1.372m-43.376 1.093c1.09 1.288 2.887 2.806 3.993 3.372 2.124 1.088 1.814.752-2.982-3.23-2.887-2.397-2.923-2.402-1.011-.142m53.773-1.15c.973.254 2.323.237 3-.037s-.119-.481-1.769-.461-2.204.244-1.231.498m-61.762 1.296c-.35.566.051.734.941.393 1.732-.665 2.049-1.382.611-1.382-.518 0-1.216.445-1.552.989M99 68.703c-5.062.945-3.812 1.888 2.443 1.843 3.539-.025 6.125-.352 5.746-.725-1.059-1.044-5.406-1.638-8.189-1.118m32.2.497c-1.311 1.311-1.488 10.538-.342 17.8.683 4.323.761 4.409 2.003 2.172.711-1.281 1.035-3.001.72-3.823-.316-.821-.136-2.313.4-3.313.689-1.288.511-2.746-.608-4.99-.87-1.744-1.388-4.493-1.151-6.108.238-1.616.375-2.938.305-2.938s-.667.54-1.327 1.2m-6.1 3.095c-1.265 2.107-1.243 2.128.479.479.991-.95 1.587-1.942 1.324-2.205s-1.074.514-1.803 1.726m13.662-1.588c1.244.239 3.044.23 4-.02s-.062-.446-2.262-.435-2.982.216-1.738.455M99.5 73c-.362.585.676 1 2.5 1s2.862-.415 2.5-1c-.34-.55-1.465-1-2.5-1s-2.16.45-2.5 1m26.893 1.417c-.299.78.147 2.692.992 4.25l1.535 2.833.04-4.25c.039-4.103-1.449-5.745-2.567-2.833m12.876-.724c.973.254 2.323.237 3-.037s-.119-.481-1.769-.461-2.204.244-1.231.498m-68.81 1.374c-.363.586-.445 1.281-.183 1.543s.743-.218 1.069-1.067c.676-1.762.1-2.072-.886-.476m75.541.208c0 .287 1.12 2.479 2.488 4.873 2.127 3.721 2.479 3.989 2.43 1.852-.056-2.402-1.703-7.419-1.848-5.628-.038.48-.745.313-1.57-.372s-1.5-1.011-1.5-.725m-48.624 2.857c-2.397 3.08-2.749 4.225-1.102 3.593 1.115-.428 1.696.024 1.914 1.49.171 1.157 1.099 2.217 2.062 2.356 1.883.271 2.379-1.064.766-2.061-.541-.335-1.342-1.99-1.78-3.677-.627-2.42-1.02-2.78-1.86-1.701m41.807.618c.192.412 1.398 2.437 2.681 4.499 2.843 4.57 4.701 4.003 2.437-.744-.897-1.881-2.006-3.187-2.466-2.903-.459.284-.835.039-.835-.543S140.512 78 139.917 78c-.596 0-.927.338-.734.75m-65.798 1.015c-.614.404-1.468 1.86-1.898 3.235-.691 2.206-.859 2.282-1.434.647-.554-1.577-1.039-1.266-3.261 2.092-3.258 4.922-5.064 10.975-3.555 11.908.677.418.776.184.269-.637-.847-1.372 1.951-1.12 5.908.531 1.341.56 1.701.453 1.2-.356-.507-.821.167-.979 2.334-.545 3.121.624 6.515-1.081 5.482-2.753-.301-.488.041-.901.761-.919.807-.019.565-.594-.632-1.5C77.491 90.661 74.602 90 72.137 90h-4.48l4.577-3.031c4.567-3.025 6.274-5.338 5.21-7.059-.674-1.091-2.523-1.156-4.059-.145m34.02 2.468c-1.167 1.368-1.288 1.758-.313 1.008.876-.673 1.888-.928 2.25-.566s.658-.092.658-1.008c0-2.176-.314-2.107-2.595.566m-23.125.107c.211.634 1.149 1.153 2.085 1.156s2.075.606 2.531 1.341c.457.736 1.78 1.186 2.941 1 3.269-.522 1.212-2.591-3.663-3.687-3.147-.707-4.176-.656-3.894.19m52.216-.333c-.644 1.042 3.374 7.456 4.172 6.659.523-.523-2.326-7.666-3.058-7.666-.271 0-.772.453-1.114 1.007M146 82c0 .55.477 1 1.059 1s.781-.45.441-1-.816-1-1.059-1-.441.45-.441 1m-43.49 1.016c.346.559 1.047.758 1.559.441 1.387-.857 1.129-1.457-.628-1.457-.857 0-1.276.457-.931 1.016m18.845 2.502c-.647 1.686 1.433 7.482 2.685 7.482.438 0 1.396.22 2.128.489.733.27 1.937.104 2.676-.367 1.109-.707 1.058-1.411-.292-4.022-.901-1.741-2.021-2.928-2.49-2.638-.469.289-1.11-.146-1.426-.968-.741-1.932-2.536-1.919-3.281.024M26 88c0 .55.45 1 1 1s1-.45 1-1-.45-1-1-1-1 .45-1 1m87.51.016c.346.559 1.047.758 1.559.441 1.387-.857 1.129-1.457-.628-1.457-.857 0-1.276.457-.931 1.016m57.49.043c0 .582.45.781 1 .441s1-.816 1-1.059-.45-.441-1-.441-1 .477-1 1.059m-81.5.848-5 .593 3.872 1.855c3.109 1.489 4.356 1.635 6.325.737 1.349-.614 2.982-.821 3.628-.458s.181-.306-1.033-1.487c-1.215-1.181-2.34-2.076-2.5-1.99s-2.542.424-5.292.75m16.007.082c-.35.566.051.734.941.393 1.732-.665 2.049-1.382.611-1.382-.518 0-1.216.445-1.552.989m-3.107 1.409c-.819.891-.506 1.476 1.23 2.295 2.175 1.027 2.256.958 1.214-1.047-.613-1.18-1.166-2.213-1.229-2.295s-.61.389-1.215 1.047M67 93.059c0 .582.45.781 1 .441s1-.816 1-1.059S68.55 92 68 92s-1 .477-1 1.059m13.665.372c-.388 1.01.039 1.319 1.445 1.048 1.651-.318 1.878-.004 1.318 1.818-.799 2.602-.184 2.135 1.536-1.168.684-1.311.775-2.086.205-1.733a1.21 1.21 0 0 1-1.659-.38c-.895-1.447-2.204-1.256-2.845.415M95 94c-1.125.727-1.166.973-.167.985.734.008 1.127.578.875 1.265-.252.688-.948 1.143-1.547 1.012s-.85.386-.557 1.149-.018 1.727-.69 2.142c-.791.489-.966.34-.494-.423.401-.649.358-1.115-.096-1.036-2.073.36-2.252-.274-.732-2.594 1.594-2.433 1.572-2.5-.822-2.5-4.153 0-7.95 5.81-4.02 6.152.963.084 2.331.201 3.042.259.71.059 1.615.629 2.009 1.268.395.638 1.387 1.309 2.205 1.491.818.181 2.073 1.005 2.789 1.83.797.919.692.241-.272-1.75-1.401-2.892-1.406-3.25-.049-3.25.859 0 1.526-.874 1.526-2 0-2.375.607-2.454 4.25-.553 3.863 2.015 3.442-.054-.5-2.458-3.661-2.232-4.611-2.371-6.75-.989m17.433.75c.141.963 1.113 1.911 2.161 2.108 1.049.196 2.389.748 2.98 1.226.63.51 1.559.383 2.25-.308 1.913-1.913 1.364-2.776-1.765-2.776-1.618 0-3.219-.45-3.559-1-1.005-1.627-2.344-1.141-2.067.75M134 93.623c0 2.996 7.873 6.009 9.371 3.586.269-.435-.999-.617-2.818-.405-2.584.302-3.661-.12-4.93-1.931-.893-1.275-1.623-1.838-1.623-1.25m-7.694 2.804c-2.402 2.077-2.565 2.52-1.134 3.077 2.351.914 5.828-1.197 5.828-3.539 0-2.606-1.295-2.478-4.694.462M28.5 97c-.34.55-.141 1 .441 1S30 97.55 30 97s-.198-1-.441-1-.719.45-1.059 1m50.124.539c-.343.893-.572 2.825-.509 4.293.086 1.998.311 1.664.895-1.332.828-4.251.645-5.65-.386-2.961M169.232 102c0 1.925.206 2.713.457 1.75.252-.963.252-2.537 0-3.5-.251-.963-.457-.175-.457 1.75M99 100.882c0 .55.45 1.278 1 1.618s1 .168 1-.382-.45-1.278-1-1.618-1-.168-1 .382M62.5 106c-.388 2.82-.494 5.339-.236 5.597.258.259.777-1.848 1.153-4.68.375-2.833.482-5.352.236-5.598S62.888 103.18 62.5 106m-33.862-2.5c.317.825.753 1.5.969 1.5s.393-.675.393-1.5-.436-1.5-.969-1.5-.709.675-.393 1.5M58 103c0 .55.477 1 1.059 1s.781-.45.441-1-.816-1-1.059-1-.441.45-.441 1m11 0c.825.533 1.95.969 2.5.969s.325-.436-.5-.969-1.95-.969-2.5-.969-.325.436.5.969m18-.059c0 .518.45 1.219 1 1.559s1-.084 1-.941S88.55 102 88 102s-1 .423-1 .941m3.733 2.183c.679.684 1.486.991 1.793.683.308-.308-.247-.867-1.233-1.243-1.425-.542-1.54-.428-.56.56m-5.693 6.328c-1.706 2.055-.881 4.988 1.471 5.229 1.561.16 1.612.093.239-.312-1.867-.55-2.471-4.369-.691-4.369.582 0 .781.45.441 1-.758 1.226.514 1.277 2.378.096 1.567-.992.674-3.096-1.315-3.096-.725 0-1.86.653-2.523 1.452M102.333 115c0 2.35.226 2.753.883 1.578.511-.913.511-2.243 0-3.156-.657-1.175-.883-.772-.883 1.578m-41.138.5c.02 1.65.244 2.204.498 1.231s.237-2.323-.037-3-.481.119-.461 1.769m14.884-.917c.048 1.165.285 1.402.604.605.289-.722.253-1.585-.079-1.917s-.568.258-.525 1.312m21.458-.644c-.319.517.298.874 1.372.793s1.732-.504 1.463-.94c-.665-1.075-2.126-.999-2.835.147M133.088 115c-.149 3.824 6.584 27.661 7.543 26.703.234-.234-.087-1.726-.712-3.314s-2.405-7.839-3.955-13.889-2.844-10.325-2.876-9.5m-54.398 1.75c-.235.412-.742 2.493-1.127 4.623s-1.074 4.605-1.531 5.5c-5.317 10.414-5.358 10.563-4.231 15.681l1.089 4.946-.39-5.5-.39-5.5 1.091 4.957 1.091 4.956-4.369 3.763c-2.403 2.07-5.575 4.028-7.049 4.352-1.586.348-2.592 1.188-2.464 2.058.118.808.637 1.344 1.153 1.191.515-.152.848-.543.74-.868-.274-.821 9.803-.348 11.941.56 2.178.925 1.314 2.531-1.362 2.531-1.31 0-1.756-.431-1.294-1.25.527-.934.355-.924-.683.042-1.182 1.1-1.167 1.431.103 2.234.821.519 2.269.95 3.219.959 2.025.018 5.239-4.422 4.3-5.941-.355-.574-.11-1.044.545-1.044.803 0 1.004-1.146.618-3.522-.417-2.571-.25-3.33.619-2.808.833.499.813.247-.066-.839-1.017-1.256-.969-2.243.25-5.16.829-1.984 1.475-4.634 1.437-5.889-.053-1.695-.441-1.273-1.509 1.643-1.627 4.443-3.07 6.39-1.908 2.575 1.579-5.184 1.587-5.438.092-3l-1.534 2.5-.036-2.691c-.041-3.166-1.68-4.614-2.343-2.071-.293 1.123-.502.787-.576-.929-.122-2.839 1.311-4.545 2.374-2.825.345.559 1.137 1.016 1.76 1.016s.259-.676-.809-1.502c-1.187-.919-1.346-1.299-.41-.977 1.865.64 7.464-5.034 8.271-8.382.428-1.775.089-2.485-1.367-2.866-1.064-.279-1.935-1.129-1.935-1.89 0-1.444-2.567-1.936-3.31-.633m17.182.5c.755.963 2.33 1.698 3.5 1.634 2.021-.11 2.028-.141.128-.608-1.1-.27-2.675-1.005-3.5-1.634-1.305-.993-1.321-.914-.128.608m25.207.333c.048 1.165.285 1.402.604.605.289-.722.253-1.585-.079-1.917s-.568.258-.525 1.312M75.286 121.5c.008 2.75.202 3.756.432 2.236s.223-3.77-.014-5-.425.014-.418 2.764m36.914-3.3c-1.978 1.978-1.383 6.414 1.193 8.893 1.316 1.267 2.173 3.001 1.905 3.855-.394 1.258-.301 1.291.496.174.54-.758 1.392-1.125 1.892-.816s1.559.161 2.352-.33c1.239-.765 1.196-1.309-.297-3.838-.958-1.621-1.741-3.633-1.741-4.471 0-1.566-2.572-4.667-3.871-4.667-.401 0-1.269.54-1.929 1.2m-52.121 1.732c-.248 4.494-4.768 17.83-7.686 22.675-1.868 3.102-2.796 5.143-2.063 4.534 3.783-3.14 11.67-24.101 10.32-27.428-.332-.819-.518-.748-.571.219m-18.567 8.166c-.67 2.666-.188 10.559.697 11.445.926.926 1.699-10.885.816-12.463-.705-1.259-.99-1.067-1.513 1.018m114.155-1.431c-1.077 1.076-.77 13.333.333 13.333.571 0 1-3 1-7 0-7.039-.109-7.557-1.333-6.333m-69.795 2.083c-1.243 1.586-1.208 1.621.378.378 1.666-1.307 2.195-2.128 1.372-2.128-.207 0-.995.787-1.75 1.75M118.5 132c-1.63.701-1.688.872-.309.93.93.038 1.969-.38 2.309-.93.711-1.15.676-1.15-2 0m4.531.5c0 .55.436 1.675.969 2.5s.969 1.05.969.5-.436-1.675-.969-2.5-.969-1.05-.969-.5m-7.961 4.282c-.038 1.255.546 3.757 1.299 5.559s1.187 5.095.965 7.316c-.28 2.802.067 4.431 1.131 5.314.844.701 1.535 1.824 1.535 2.496 0 2.211 3.721 4.756 5.928 4.056 2.891-.918 2.601-2.347-.362-1.78-1.994.381-2.344.124-1.939-1.423.377-1.444 1.346-1.86 4.117-1.768 1.993.066 5.003-.19 6.69-.57l3.066-.69-2.978-.812c-4.431-1.207-12.522-7.365-12.522-9.529 0-2.196-4.967-9.877-5.07-7.841-.04.784-.445.518-.93-.61-.816-1.898-.863-1.884-.93.282m1.961 2.718c0 .55.436 1.675.969 2.5s.969 1.05.969.5-.436-1.675-.969-2.5-.969-1.05-.969-.5m-82.991 1.693c-.022.932-.96 2.338-2.085 3.126-1.743 1.221-1.813 1.521-.476 2.035.863.331 1.98 1.624 2.482 2.874.673 1.676.929 1.821.976.554.034-.945 1.3-2.389 2.813-3.21 1.908-1.035 2.224-1.504 1.032-1.532-.945-.022-2.389-1.278-3.21-2.79-1.013-1.866-1.505-2.206-1.532-1.057m129.535.571c-.39 1.227-1.831 2.513-3.203 2.857l-2.494.626 2.95 1.795c1.623.987 3.19 2.393 3.482 3.126.367.918.557.805.611-.361.043-.932.999-2.338 2.124-3.126 1.743-1.221 1.813-1.521.476-2.035-.863-.331-1.945-1.617-2.404-2.857l-.834-2.256zm-16.349 6.815c.95.991 1.942 1.587 2.205 1.324s-.514-1.074-1.726-1.803c-2.107-1.265-2.128-1.243-.479.479M150.5 151c-.34.55.11 1 1 1s1.34-.45 1-1-.79-1-1-1-.66.45-1 1m7.5 1c.825.533 1.95.969 2.5.969s.325-.436-.5-.969-1.95-.969-2.5-.969-.325.436.5.969m-115 1c-.825.533-1.05.969-.5.969s1.675-.436 2.5-.969 1.05-.969.5-.969-1.675.436-2.5.969m-8.722 1.25c-1.703 2.203-2.487 4.324-.852 2.309.865-1.067 2.136-2.298 2.824-2.735.817-.519.86-.799.122-.809-.62-.008-1.562.548-2.094 1.235M162 153.43c0 .275.9.981 2 1.57s2 .845 2 .57-.9-.981-2-1.57-2-.845-2-.57M54.5 158c-.34.55-.141 1 .441 1S56 158.55 56 158s-.198-1-.441-1-.719.45-1.059 1m80.833.456c0 .801.383 1.22.85.931s.591-.944.274-1.456c-.808-1.308-1.124-1.161-1.124.525M142 158c0 .55.477 1 1.059 1s.781-.45.441-1-.816-1-1.059-1-.441.45-.441 1m-77 1c.825.533 1.95.969 2.5.969s.325-.436-.5-.969-1.95-.969-2.5-.969-.325.436.5.969m64.733.124c.679.684 1.486.991 1.793.683.308-.308-.247-.867-1.233-1.243-1.425-.542-1.54-.428-.56.56M42.5 160l-3 .763 3 .103c1.65.057 3.675-.333 4.5-.866 1.333-.862 1.333-.958 0-.866-.825.056-2.85.446-4.5.866m109.074-.026c.602.602 2.11.635 3.95.086 2.941-.878 2.93-.889-.974-.974-2.563-.056-3.608.256-2.976.888M48.5 161c-1.522.654-.925.873 2.5.914 3.256.04 4.085-.213 3-.914-1.78-1.15-2.823-1.15-5.5 0m96.5 0c-1.333.862-1.333.963 0 .914.825-.03 2.4-.441 3.5-.914l2-.859-2-.055c-1.1-.031-2.675.381-3.5.914m-113.45.934c.522.513 4.775 1.989 9.45 3.279l8.5 2.346.307 4.22c.255 3.494-.004 4.236-1.5 4.307-3.607.172 3.658 1.718 14.377 3.06 12.947 1.621 65.671 1.899 67.218.354q1.003-1-3.237-.855l-4.239.145.392-3.36c.216-1.848 1.016-3.878 1.779-4.51.762-.633 7.802-1.993 15.644-3.023 7.843-1.029 16.284-2.548 18.759-3.374s3.375-1.278 2-1.004c-18.503 3.682-38.503 5.477-61 5.475-25.914-.003-53.593-2.856-64.376-6.636-4.573-1.602-5.356-1.684-4.074-.424M165 162c-.825.533-1.05.969-.5.969s1.675-.436 2.5-.969 1.05-.969.5-.969-1.675.436-2.5.969m-107.25.662c.688.278 1.813.278 2.5 0 .688-.277.125-.504-1.25-.504s-1.937.227-1.25.504m.443 10.588c.255 3.533.687 4.304 2.557 4.57 1.237.175 2.25-.162 2.25-.75 0-.589-.675-1.07-1.5-1.07-1.048 0-1.5-1.056-1.5-3.5 0-1.925-.476-3.5-1.057-3.5-.626 0-.932 1.735-.75 4.25m7.474-2.583c-1.232 1.231-.682 6.076.833 7.333 3.168 2.629 6.292-3.808 3.3-6.8-1.328-1.328-3.109-1.558-4.133-.533m51.333.163c-2.75.398-5 1.901-5 3.341 0 .509 1.463 1.58 3.25 2.379 2.831 1.266 2.928 1.421.75 1.202-3.352-.338-3.779 1.659-.443 2.073 1.514.188 3.462-.438 4.615-1.481 1.972-1.784 1.95-1.827-1.838-3.548l-3.834-1.743 3.75.585c2.53.394 3.75.204 3.75-.586 0-.643-.419-.911-.931-.595s-1.256.049-1.654-.595-.296-.906.228-.582c.524.323 1.6.188 2.392-.302 1.511-.933.581-.961-5.035-.148m13.564.463c.376.986.935 1.541 1.243 1.233s.001-1.114-.683-1.793c-.988-.98-1.102-.865-.56.56m2.668 1.707c0 1.925.206 2.713.457 1.75.252-.963.252-2.537 0-3.5-.251-.963-.457-.175-.457 1.75M73 174.934c0 4.097 1.462 5.563 2.311 2.316.435-1.667.463-1.667.573 0 .237 3.574 2.616 1.751 2.61-2-.006-3.343-.304-3.784-2.75-4.066-2.594-.3-2.744-.094-2.744 3.75m8-.041c0 4.252 1.252 5.308 4.75 4.008 4.286-1.593 2.33-7.901-2.45-7.901-2.006 0-2.3.497-2.3 3.893m-14-.393c0 1.375.45 2.5 1 2.5s1-1.125 1-2.5-.45-2.5-1-2.5-1 1.125-1 2.5m8-1.5c0 .55.477 1 1.059 1s.781-.45.441-1-.816-1-1.059-1-.441.45-.441 1m19 2.327c0 2.272.558 3.673 1.627 4.083 2.36.906 4.521-1.333 4.174-4.324-.231-1.985-.94-2.66-3.051-2.902-2.531-.292-2.75-.041-2.75 3.143m8 .114c0 1.893.45 3.719 1 4.059s1-.309 1-1.441c0-1.282.66-2.071 1.75-2.091 1.633-.029 1.629-.124-.072-1.413-1.762-1.336-1.762-1.396 0-1.852 1.208-.312.895-.51-.928-.587-2.49-.105-2.75.21-2.75 3.325m24-.941c0 1.375.45 2.5 1 2.5s1-1.125 1-2.5-.45-2.5-1-2.5-1 1.125-1 2.5m-42.272.433c-.297 1.136-.129 2.319.373 2.629 1.312.812 2.358-2.503 1.166-3.695q-.999-.997-1.539 1.066m12.272.508c0 1.407.45 2.559 1 2.559s1-.873 1-1.941-.45-2.219-1-2.559c-.567-.351-1 .49-1 1.941M51.5 175c.34.55.816 1 1.059 1s.441-.45.441-1-.477-1-1.059-1-.781.45-.441 1m-7.687.683c.721.289 1.584.253 1.916-.079s-.258-.568-1.312-.525c-1.165.048-1.402.285-.604.604m97 5c.721.289 1.584.253 1.916-.079s-.258-.568-1.312-.525c-1.165.048-1.402.285-.604.604m-10.051 1.024c1.244.239 3.044.23 4-.02s-.062-.446-2.262-.435-2.982.216-1.738.455m-54.034 1.015c1.775.221 4.925.224 7 .008 2.074-.217.622-.397-3.228-.402-3.85-.004-5.548.173-3.772.394m40.022.001c1.787.222 4.713.222 6.5 0 1.787-.221.325-.403-3.25-.403s-5.037.182-3.25.403"/><path fill-opacity=".582" fill-rule="evenodd" d="M89.5 6.879C77.935 9.911 69.898 20.103 68.456 33.567l-.669 6.242-3.555-1.485c-3.647-1.524-9.621-1.122-10.762.724-.33.534.292 2.105 1.382 3.491s2.274 4.247 2.631 6.358c.423 2.506 1.84 4.993 4.082 7.166L65 59.392v12.369c0 9.894-.384 13.306-1.917 17.054-1.23 3.006-2.118 8.268-2.478 14.685-.836 14.922-5.862 33.572-10.645 39.5l-2.016 2.5-5.566-6c-7.025-7.573-12.482-16.757-16.045-27-2.522-7.252-2.785-9.308-2.808-22-.029-16.129 1.295-22.355 7.445-35 7.197-14.8 18.191-25.82 33.665-33.744 4.478-2.292 8.67-5.015 9.316-6.05 1.052-1.684.933-1.807-1.138-1.177-1.272.387-6.363 2.767-11.313 5.288-7.36 3.748-10.737 6.323-18.535 14.133C32.609 44.323 28.404 51.086 23.347 65.5c-2.638 7.521-2.806 8.987-2.806 24.5 0 15.274.197 17.058 2.642 24.01 1.453 4.131 4.499 10.732 6.769 14.669 3.266 5.665 3.986 7.749 3.45 9.99-.903 3.773-2.242 5.331-4.583 5.331-1.066 0-1.659.45-1.319 1s.029 1.041-.691 1.09.148.511 1.928 1.025c3.853 1.113 5.664 5.521 2.904 7.066-2.33 1.304-2.49 22.359-.163 21.466.814-.312 5.547.32 10.519 1.405 23.871 5.21 66.712 6.836 93.835 3.561 7.333-.886 14.533-1.379 16-1.096 2.336.45 2.419.385.668-.52-1.592-.823-1.183-.934 2-.544 2.978.365 3.617.222 2.5-.56-1.144-.8-.788-.927 1.5-.535 1.65.283 4.688.022 6.75-.58l3.75-1.095v-10.292c0-8.402-.294-10.456-1.603-11.189-2.502-1.4-1.238-4.528 2.606-6.45 1.923-.962 2.908-1.75 2.188-1.75-.72-.001-1.031-.452-.691-1.002s-.253-1-1.319-1c-2.419 0-3.763-1.626-4.606-5.571-.529-2.481.125-4.4 3.409-10 6.421-10.95 9.156-20.788 9.765-35.135.438-10.335.174-13.693-1.722-21.897-3.52-15.236-15.775-36.944-19.05-33.746-.901.88-.207 2.382 2.936 6.358 4.889 6.185 10.302 17.162 12.571 25.491.899 3.3 1.891 10.959 2.205 17.02.653 12.626-1.353 22.891-6.71 34.338-5.138 10.981-16.542 25.196-20.143 25.11-4.2-.1-6.997-5.438-10.861-20.723-3.476-13.75-3.602-15.688-1.128-17.438C140.433 105.27 147 96.852 147 94.792c0-1.147 1.618-4.06 3.595-6.473l3.595-4.387-1.595-3.986c-2.043-5.107-2.066-11.311-.047-12.986 3.276-2.719-.258-8.182-4.162-6.434-1.037.464-3.38.922-5.207 1.016-4.366.227-8.349 3.31-10.049 7.777-1.244 3.268-1.178 3.977.714 7.605 1.222 2.346 1.686 4.248 1.121 4.598-.531.328-.965 1.724-.965 3.103 0 3.167-1.8 6.616-3.05 5.844-.523-.323-.95-5.059-.95-10.525 0-9.856.028-9.969 3.345-13.691 1.84-2.064 8.161-9.828 14.048-17.253 23.426-29.545 23.242-32.533-.501-8.159C137.602 50.379 130 57.761 130 57.246s.9-1.751 2-2.746 2.007-2.753 2.015-3.905c.012-1.655.208-1.792.93-.649.7 1.106 1.301.48 2.563-2.673.906-2.265 2.287-4.364 3.07-4.664 2.132-.819 1.716-2.518-.91-3.714-1.771-.807-3.242-.682-6.122.521-2.085.871-3.9 1.584-4.034 1.584s-.461-3.045-.727-6.766c-.831-11.612-6.358-20.833-15.285-25.501-4.347-2.273-18.293-3.35-24-1.854m-1.112 3.554c-4.007 2.451-7.791 6.64-10.332 11.438-.793 1.496-.85 2.12-.156 1.691.605-.374 1.1-.148 1.1.501 0 .836.512.78 1.75-.191 1.584-1.242 1.62-1.207.387.367-.75.956-1.763 1.492-2.25 1.191s-.909-.184-.935.261-.211 3.284-.41 6.309c-.291 4.406-.202 4.83.446 2.129.445-1.853 1.833-4.328 3.085-5.5l2.275-2.129-1.674 2.715c-1.91 3.098-2.128 4.184-.657 3.274.559-.345-.141 1.079-1.557 3.165-3.013 4.44-3.701 5.212-3.425 3.846.111-.55.12-2.125.02-3.5-.171-2.355-.23-2.38-1.019-.43-.461 1.138-1.162 5.091-1.557 8.785-.877 8.19.677 14.557 4.351 17.824 1.435 1.277 2.142 1.646 1.57.821s-1.549-3.3-2.17-5.5c-2.473-8.747-2.439-9.136 1.137-12.928 4.36-4.622 8.369-4.759 15.064-.514 2.652 1.682 5.44 2.822 6.196 2.532 1.715-.658 1.784-3.755.123-5.512-1.026-1.085-.891-1.146.75-.336 1.1.543 2.468.817 3.04.609s1.023.866 1 2.386c-.033 2.251.446 2.819 2.584 3.067 1.444.168 3.34-.411 4.215-1.285.874-.875 1.831-1.574 2.125-1.555s1.549.029 2.786.021c1.819-.013 1.963-.201.75-.985-1.116-.721-.539-.973 2.25-.985 3.669-.015 5.206-1.997 2.734-3.525-.559-.346-.756-1.05-.437-1.566s-.049-1.179-.817-1.474-1.397-1.211-1.397-2.036.534-1.295 1.186-1.045c1.444.554-.961-7.041-2.966-9.369-.711-.825-1.107-2.007-.881-2.626.227-.619-.992-2.307-2.707-3.75-4.125-3.471-2.64-3.378 1.941.123 1.977 1.51 4.006 2.748 4.511 2.75s1.125.628 1.379 1.392q.463 1.39-.821.596c-.848-.525-1.038-.397-.56.377.398.644 1.104.935 1.569.648s1.104.043 1.421.734.319.131.003-1.244c-.847-3.698-3.571-7.128-8.336-10.5-3.855-2.729-5.068-3.026-13.406-3.291-8.316-.264-9.547-.058-13.278 2.224m-7.017 1.605c-4.777 3.061-11.325 13.609-9.89 15.931.272.441.024 2.152-.551 3.802-.728 2.089-.728 4.023 0 6.365l1.047 3.364-.522-3.687c-.366-2.583.231-5.541 1.993-9.876 1.383-3.404 2.228-6.652 1.879-7.218s-.166-.737.409-.382 1.828-.588 2.784-2.096c.956-1.507 2.89-3.979 4.297-5.491 3.033-3.262 2.751-3.4-1.446-.712m30.129-.457c6.452 5.963 8.744 7.694 7.442 5.621-.793-1.264-3.017-3.254-4.942-4.422s-3.05-1.707-2.5-1.199m12.097 3.812c.322.838 4.307 3.325 8.856 5.527s10.615 5.856 13.48 8.121c3.16 2.498 5.816 3.886 6.751 3.527 1.292-.496 1.328-.849.219-2.185-3.381-4.074-20.093-13.661-27.647-15.86-1.745-.509-2.114-.316-1.659.87m-42.593 4.103c-1.29 1.373-2.124 2.717-1.854 2.988.271.27 1.486-.853 2.701-2.496 2.691-3.64 2.315-3.858-.847-.492m66.777 21.754C118.64 72.227 111 80.883 111 82.926c0 1.7-.626 2.074-3.465 2.074-3.45 0-6.37 2.84-5.075 4.935.304.492-.013 1.122-.704 1.401-.77.31-.591.537.462.585.945.043 2.389 1.316 3.21 2.829s1.51 2.188 1.532 1.5c.022-.687.66-1.25 1.419-1.25 1.672 0 3.783-4.75 3.399-7.648-.197-1.489 4.314-7.363 15.533-20.225C136.008 57.157 143.353 49 143.634 49c.723 0-2.356 3.71-16.971 20.454-7.06 8.088-12.584 14.959-12.274 15.268.309.31 1.177.053 1.929-.571.751-.623 1.59-.91 1.863-.636.274.273 1.358-.51 2.408-1.742 1.547-1.812 1.578-1.98.161-.883-.963.745-1.75.905-1.75.355 0-1.508 2.569-3.332 3.502-2.486.45.407.493.176.095-.515-.57-.99 6.033-10.014 10.422-14.244 2.137-2.059 14.078-17.202 12.718-16.128-.955.755-1.737.923-1.737.373 0-1.268 2.513-3.399 3.2-2.712.659.66 3.265-2.448 3.285-3.919.008-.612.283-1.114.611-1.114 1.189 0 3.87-2.746 3.409-3.491-.259-.421 1.359-2.845 3.596-5.387 8.312-9.442 2.659-4.169-10.32 9.628m-48.517-7.532c1.52.229 3.77.223 5-.014s-.014-.425-2.764-.418-3.756.202-2.236.432M126.683 37c.328 2.475.758 4.688.956 4.917.752.868.181-5.507-.665-7.417-.591-1.335-.688-.505-.291 2.5m-2.598-1.833c-.047.916-.423 1.816-.835 2s.263 2.341 1.5 4.795 2.231 4.029 2.208 3.5c-.096-2.163-2.794-11.835-2.873-10.295m-27.526 1.301c2.511 1.9 8.518 1.939 11 .072 1.753-1.318 1.569-1.36-1.89-.43-2.666.716-4.765.704-6.9-.041-4.093-1.426-4.522-1.349-2.21.399m-5.059.699c1.1.608 2.922 1.832 4.048 2.72 1.127.887.782.376-.766-1.137-1.547-1.513-3.369-2.736-4.048-2.72s-.334.529.766 1.137m17.905 3.083L107.5 42.5l2.5-1.989c1.375-1.094 2.688-2.107 2.917-2.25.229-.144-.039-.261-.595-.261-.557 0-1.869 1.013-2.917 2.25M55.5 40c-.36.582.645 1 2.406 1 1.929 0 4.252 1.078 6.415 2.977 3.426 3.008 4.679 3.027 4.679.072 0-3.511-11.669-7.011-13.5-4.049m76.723 1.557C131 42.413 130 43.8 130 44.638c0 1.257.593 1.158 3.368-.556 1.852-1.145 4.102-2.082 5-2.082S140 41.55 140 41c0-1.556-5.303-1.176-7.777.557m-73.665 5.309c1.521 5.877 2.406 7.26 6.51 10.182l2.745 1.955-1.156-2.494c-.636-1.371-1.746-2.497-2.466-2.501s-1.062-.407-.761-.895c.301-.487-.122-1.442-.941-2.122S61 48.96 61 47.988c0-.971-.862-2.829-1.916-4.127-1.91-2.354-1.911-2.345-.526 3.005M70.252 45.5c.011 2.2.216 2.982.455 1.738s.23-3.044-.02-4-.446.062-.435 2.262m15.017-2.807c.973.254 2.323.237 3-.037s-.119-.481-1.769-.461-2.204.244-1.231.498m62.603 1.057c-1.243 1.586-1.208 1.621.378.378 1.666-1.307 2.195-2.128 1.372-2.128-.207 0-.995.788-1.75 1.75m-65.237 2.323C81.121 47.263 80 49.147 80 50.5c0 2.953 4.355 6.5 7.98 6.5 5.875 0 8.109-7.212 3.385-10.927C89.916 44.933 87.952 44 87 44s-2.916.933-4.365 2.073m31.65.403c-4.359 1.895-5.491 6.129-2.325 8.693C116.418 58.778 123 56.293 123 51c0-1.849-.799-3.446-2.223-4.443-2.638-1.849-2.432-1.846-6.492-.081m12.349 5.631c-2.037 6.864-4.012 10.768-5.913 11.686-1.222.589-1.658 1.102-.971 1.139.688.038 1.25.833 1.25 1.768 0 1.354.253 1.447 1.242.458.988-.988.971-1.408-.084-2.06-1.059-.655-1.007-.942.258-1.427.908-.349 1.593-.088 1.606.61.026 1.437 3.934-3.313 3.934-4.781 0-.55-.932.125-2.071 1.5-1.666 2.011-1.929 2.108-1.343.5l2.132-5.878c.772-2.132 1.172-4.109.889-4.393-.284-.283-.702.112-.929.878m-25.426 1.154c-1.779 2.165-1.766 4.936.028 6.092 2.396 1.545 6.25-2.073 4.637-4.353-.884-1.248-.964-1.198-.479.302.342 1.057.174 1.549-.405 1.191-.544-.336-.989-1.233-.989-1.993 0-1.982-1.598-2.691-2.792-1.239m-4.988 4.747C94.966 60.203 93.477 62 92.911 62s-.708-.52-.316-1.155c.446-.721.274-.882-.457-.43-.644.398-.91 1.145-.591 1.661s-.097 1.198-.924 1.515c-1.228.471-1.296 1.066-.37 3.243.624 1.466 1.791 3.453 2.595 4.416 2.309 2.764-.207 2.041-4.348-1.25-4.41-3.505-5.599-3.872-2.907-.898 3.025 3.343 7.306 5.227 8.89 3.912.924-.767 1.54-.786 1.987-.063.827 1.339 9.53 1.383 9.53.049 0-.55-2.138-1.029-4.75-1.063-4.226-.057-4.474-.176-2.25-1.086 1.762-.72 3.482-.674 5.825.155 3.902 1.382 5.513.446 2.732-1.588-2.485-1.817-6.694-1.806-11.089.031-3.764 1.573-4.822.346-1.318-1.529 2.796-1.497 11.466-1.484 13.278.02 1.105.918 1.613.81 2.345-.499.659-1.177.332-2.772-1.105-5.395l-2.04-3.725-2.134 2.481c-2.108 2.45-2.167 2.458-4.904.665-2.266-1.485-2.667-2.33-2.205-4.641.311-1.554.464-2.823.34-2.818s-1.251 1.804-2.505 4M66 69.617c0 7.333.286 9.497 1.142 8.641 1.637-1.637 1.731-17.432.108-17.993-.944-.326-1.25 1.961-1.25 9.352m7.31-4.117c.005 3.3.192 4.529.415 2.732s.218-4.497-.01-6c-.229-1.503-.411-.032-.405 3.268m-3.193 1.45c-.079 4.376.21 6.123.901 5.432.666-.666.706-2.896.117-6.45l-.901-5.432zm80.045-3.396c-1.584.825-1.957 1.455-1.154 1.951.651.402 1.901.014 2.778-.863 2.092-2.091 1.308-2.616-1.624-1.088M75.232 66c0 1.925.206 2.713.457 1.75.252-.963.252-2.537 0-3.5-.251-.962-.457-.175-.457 1.75m1.847-.417c.048 1.165.285 1.402.604.605.289-.722.253-1.585-.079-1.917s-.568.258-.525 1.312m39.199.667c-1.499 1.938-2.442 3.75-1.952 3.75.244 0 1.181-1.125 2.082-2.5 1.686-2.573 1.592-3.476-.13-1.25m22.472.439c-3.13.818-1.845 1.92 1.75 1.501 1.925-.225 3.5-.81 3.5-1.299 0-.919-2.185-1.003-5.25-.202M77.5 69c-.782 1.266.542 1.266 2.5 0 1.293-.835 1.266-.971-.191-.985-.93-.008-1.969.435-2.309.985m61 1c-1.597.686-1.233.874 1.809.93 2.3.042 3.564-.326 3.191-.93-.73-1.181-2.252-1.181-5 0m-66.595 3.75c-.773.963-2.04 2.875-2.816 4.25-1.296 2.297-1.276 2.389.25 1.128.914-.755 1.661-1.966 1.661-2.691 0-1.627 1.411-2.538 5.413-3.494l3.087-.738-3.095-.103c-1.845-.061-3.662.605-4.5 1.648m54.901-.141c-1.588 1.601-1.589 1.901-.014 4.799l1.681 3.092.331-2.764c.182-1.52.189-3.679.014-4.799-.3-1.917-.416-1.936-2.012-.328m12.694-.896c-4.028.969-4.082 2.427-.077 2.104 2.157-.174 4.107-.879 4.333-1.567.417-1.269-.652-1.404-4.256-.537m-57.75 2.949c.688.278 1.813.278 2.5 0 .688-.277.125-.504-1.25-.504s-1.937.227-1.25.504m64.25-.193c0 .992 4.252 8.569 5.104 9.095 1.358.84 1.075-1.892-.617-5.942-.833-1.992-2.183-3.622-3-3.622s-1.487.211-1.487.469m-49.276 3.283c-2.12 2.343-2.2 5.123-.229 7.938 1.482 2.115 3.725 2.483 5.226.858.428-.464-.195-.604-1.385-.312-1.59.391-2.304-.006-2.694-1.496-.398-1.522-.245-1.743.614-.884.629.629 2.024 1.144 3.099 1.144 1.855 0 1.867-.097.242-1.893-.942-1.04-2.036-3.1-2.43-4.576-.7-2.618-.761-2.637-2.443-.779M139 78.645c0 1.102 5.461 9.351 6.191 9.353 1.761.005 1.488-1.962-.806-5.808-1.374-2.305-3.148-4.19-3.942-4.19s-1.443.29-1.443.645m-66.636 1.849c-.316.822-.961 1.255-1.435.962-1.285-.794-6.782 7.284-7.977 11.721-1.203 4.467-.496 6.519 1.636 4.75 1.078-.895 2.094-.887 4.316.033 4.377 1.813 7.251.959 9.445-2.809 2.159-3.707 1.315-5.106-3.099-5.136C74.013 90.007 73 89.55 73 89s.367-1 .816-1c1.182 0 5.267-7.584 4.498-8.352-1.232-1.232-5.379-.642-5.95.846M125 79.941c0 .518.445 1.216.989 1.552.566.35.734-.051.393-.941-.665-1.732-1.382-2.049-1.382-.611m-17.595 2.292c-1.322 1.549-1.399 1.843-.252.958 1.341-1.034 1.75-1.031 2.171.017.285.711.554.279.597-.958.098-2.797-.143-2.798-2.516-.017m-23.505.58c.611 1.142 1.628 2.395 2.26 2.786.71.439.876.269.435-.444-.392-.635-.285-1.155.239-1.155s1.223.707 1.555 1.57c.685 1.786 4.736 1.594 5.343-.252.491-1.491-2.165-2.933-7.106-3.86-3.658-.687-3.785-.624-2.726 1.355m51.777-1.063c-.684 1.165 4.281 8.394 5.323 7.75 1.461-.903-2.17-8.5-4.063-8.5-.451 0-1.017.338-1.26.75M146 82c0 .55.477 1 1.059 1s.781-.45.441-1-.816-1-1.059-1-.441.45-.441 1m-44 1c0 .55.423 1 .941 1s1.219-.45 1.559-1-.084-1-.941-1-1.559.45-1.559 1m20.161.78c-1.484.494-1.492 4.398-.017 7.637.906 1.989 1.745 2.44 4.04 2.173 1.593-.185 3.14-.58 3.437-.878 1.49-1.49-5.321-9.645-7.46-8.932M107 87.294c-2.522 1.276-3.537 4.409-1.286 3.968.769-.151.97.399.55 1.5-.621 1.624-.504 1.632 1.786.119 2.565-1.696 4.316-5.843 1.814-4.297-1.846 1.141-4.891 1.269-4.216.177.305-.493 1.147-.67 1.87-.392.724.277 1.565-.142 1.868-.932.662-1.725.733-1.721-2.386-.143M113.275 89c-.083 1.1.03 2 .252 2 .221 0 .884-.9 1.473-2 .82-1.531.76-2-.252-2-.727 0-1.39.9-1.473 2m-29.812-.13c-.25.25 1.427 1.297 3.726 2.326 3.137 1.405 5.311 1.702 8.717 1.191 4.516-.677 4.526-.688 2.175-2.249-2.168-1.44-13.466-2.42-14.618-1.268m-14.65.813c.721.289 1.584.253 1.916-.079s-.258-.568-1.312-.525c-1.165.048-1.402.285-.604.604m64.574 1.048c-.817 1.323-.817 2.117 0 2.988a75 75 0 0 1 2.402 2.733c1.703 2.044 6.611 1.978 8.339-.113 1.253-1.516 1.18-1.541-.829-.289-3.497 2.177-7.672.236-8.299-3.857-.441-2.877-.632-3.051-1.613-1.462m3.863-.19c-1.655 1.82-1.587 3.459.143 3.459 1.637 0 3.024-2.998 1.89-4.084-.431-.412-1.345-.13-2.033.625m-56.779 3.143c-1.929 2.944-3.45 12.985-1.562 10.316.943-1.333 1.064-1.333 1.091 0 .025 1.229.187 1.254.894.137.729-1.151.948-1.151 1.406 0 .298.75.578-.264.621-2.252.044-1.996.975-4.754 2.079-6.158 2.503-3.182 2.602-4.582.169-2.38-1.007.912-2.188 1.319-2.624.905-.437-.414-.506.186-.155 1.331.453 1.476.197 2.084-.876 2.084-1.914 0-1.904-.665.054-3.461.863-1.232 1.988-1.98 2.5-1.664.513.317.932.099.932-.483 0-2.036-2.785-1.036-4.529 1.625m14.062.116c-.352.352-2.158.51-4.014.35-2.605-.224-3.635.199-4.523 1.858-.633 1.181-.896 2.811-.584 3.622.317.828.132 1.206-.423.863-1.439-.889-1.213 1.076.264 2.302.69.573 1.927 1.19 2.75 1.373.824.183 2.689 1.6 4.146 3.149 1.457 1.55 2.915 2.388 3.239 1.864.325-.525-.08-1.51-.899-2.19S93 105.36 93 104.878c0-1.505 2.218-.962 3.558.87.703.962 1.613 1.415 2.021 1.007s-.085-1.656-1.095-2.772c-1.319-1.458-1.531-2.336-.753-3.114.777-.777 1.563-.35 2.785 1.516.937 1.429 2.112 2.345 2.611 2.036s-.048-1.906-1.218-3.549c-2.601-3.653-1.869-4.731 1.647-2.428 3.49 2.288 3.975 1.5 1.226-1.993-1.235-1.571-1.691-2.513-1.014-2.094.678.419 1.232.397 1.232-.048 0-.968-8.548-1.427-9.467-.509m16.96 1.179c.559 1.759.415 2.087-.636 1.454-1.061-.639-1.046-.434.069.939.957 1.179 2.272 1.584 4 1.232 1.416-.289 2.012-.28 1.324.019-1.738.756-1.567 2.377.25 2.377.825 0 1.5-.477 1.5-1.059s.403-.81.895-.506c.83.513 2.105-1.548 2.105-3.403 0-.443-1.237-1.039-2.75-1.325s-3.814-.853-5.114-1.26c-2.117-.663-2.289-.503-1.643 1.532M128 94.67c-4.248 2.913-5.307 5.891-2.479 6.977 2.326.892 6.258-3.651 5.556-6.419-.56-2.204-.652-2.221-3.077-.558M91 98.5c-.523 1.375-1.438 2.5-2.034 2.5s-.801.457-.456 1.016 1.117.715 1.714.346c.623-.385.799-.209.414.414-.369.597-.213 1.368.346 1.714S92 104.218 92 103.118s.45-2.278 1-2.618.993-1.154.985-1.809c-.01-.716-.403-.592-.985.309-.838 1.297-.971 1.275-.985-.167-.008-.916.548-1.893 1.235-2.171.983-.397.978-.521-.025-.583-.701-.043-1.702 1.046-2.225 2.421M79.275 100c.164 2.176 2.725 2.176 2.725 0 0-.917-.641-1.667-1.425-1.667s-1.369.75-1.3 1.667m57.739 1.414c.648.648 1.324.648 1.972 0 .647-.647.309-.985-.986-.985s-1.633.338-.986.985m-74.37 2.336c-.284 1.513-.801 5-1.151 7.75-1.857 14.608-7.19 29.838-12.258 35.004-3.684 3.756-3.693 3.783-.642 2.029 1.701-.978 3.827-2.961 4.723-4.406.897-1.445 1.643-2.042 1.657-1.327.043 2.088-2.821 7.012-4.723 8.12-.962.561-1.21 1.033-.551 1.05 1.766.044 5.889-5.842 7.519-10.734.781-2.345 1.727-3.958 2.101-3.583.375.374.681.182.681-.427 0-.61-.41-1.361-.911-1.671-.701-.433-.787-4.055-.097-4.055.08 0 .308-1.125.507-2.5s1.042-5.425 1.874-9c1.731-7.441 3.152-19 2.336-19-.303 0-.782 1.237-1.065 2.75m4.93-1.63c.61.987 7.208 3.126 8.36 2.71.504-.181-1.273-1.031-3.949-1.887-2.675-.856-4.66-1.227-4.411-.823m41.926 2.948c-1.65 1.057-2.55 1.921-2 1.92s2.35-.895 4-1.988 2.55-1.957 2-1.92c-.55.036-2.35.931-4 1.988m14.72.913c.68 1.089 1.911 2.239 2.735 2.555s.418-.575-.903-1.98c-2.878-3.064-3.51-3.263-1.832-.575m-46.351 1.361c.612.738.78 1.71.372 2.16-.407.45-.157.481.558.069 1-.577 1.029-1.073.127-2.16-.644-.776-1.396-1.411-1.671-1.411s.001.604.614 1.342m40.054-1.092c-.539 1.764-.633 3.793-.152 3.313.729-.73 1.239-3.563.641-3.563-.227 0-.446.112-.489.25m-9.482 3.305c-1.864 1.494-1.852 1.512.309.465 1.237-.6 2.25-1.3 2.25-1.555 0-.765-.519-.544-2.559 1.09M87 110.294c-3.06 1.549-3.498 5.986-.644 6.536 1.021.197 2.273-.059 2.783-.569.569-.569.085-.895-1.255-.844-1.2.046-2.413-.592-2.695-1.417-.413-1.204-.228-1.264.932-.307 1.828 1.508 4.383.062 3.581-2.027-.324-.845-.052-1.755.604-2.022.657-.268.744-.515.194-.55s-2.125.505-3.5 1.2m32.075.206c.007.55.676 3.25 1.486 6l1.473 5-.553-4.404c-.487-3.872-2.443-9.233-2.406-6.596M132 115.351c0 7.985 3.677 24.048 6.513 28.452 3.802 5.904 6.558 9.197 7.698 9.197.582 0-.127-.933-1.576-2.073-2.397-1.885-3.851-4.796-1.746-3.495.49.302-.368-2.709-1.906-6.691-1.537-3.983-3.938-12.354-5.336-18.604-1.397-6.25-2.789-11.612-3.094-11.917s-.553 2.005-.553 5.131m-31.032-2.584c2.151 1.747 2.29 2.217 1.087 3.667-2.04 2.458-5.504 1.601-5.795-1.434-.237-2.464-.226-2.467.718-.25 1.108 2.604 2.823 2.933 3.677.707.713-1.859.57-2.002-2.801-2.809-3.126-.749-4.446 1.377-2.784 4.483 1.323 2.471 6.692 2.226 8.324-.381 1.353-2.16-.204-5.074-3.001-5.618-1.557-.303-1.455-.012.575 1.635M76.1 114.25c-.469 1.237-1.189 4.714-1.601 7.726-.672 4.911-.587 5.342.822 4.172.923-.765.355 1.075-1.374 4.456-2.407 4.706-2.9 6.808-2.696 11.493.211 4.856.478 5.575 1.749 4.707.825-.564-.075.418-2 2.182s-5.363 4.027-7.64 5.028-4.429 2.288-4.782 2.86c-.353.571-1.257.803-2.009.514-.752-.288-1.664-.043-2.028.545-.44.712.53.918 2.899.614 2.13-.272 3.56-.029 3.56.606 0 .583.661.807 1.468.498s1.723-.15 2.036.355c.615.996 5.496-.824 5.496-2.05 0-.398 1.029-.919 2.286-1.16 1.704-.326 2.285.027 2.285 1.384 0 2.076-.691 2.3-2.258.733-.783-.783-1.295-.752-1.828.112-.895 1.448 1.21 2.939 4.181 2.96 1.453.01 2.604-.973 3.494-2.985.731-1.65 1.727-3 2.215-3s.635-1.548.328-3.441c-.354-2.185-.128-3.602.619-3.883.737-.277.531-.711-.547-1.157-1.583-.655-1.599-.958-.193-3.677.842-1.629 1.394-4.595 1.225-6.591-.3-3.542-.352-3.585-2.166-1.76-1.732 1.742-1.925 1.754-2.812.169-.523-.936-1.368-1.445-1.877-1.13-.559.345-.581-.339-.055-1.729.544-1.438 1.53-2.178 2.63-1.974.968.18 2.18-.27 2.693-1 .736-1.048.842-1.011.505.173-.235.825-1.394 1.464-2.576 1.421-1.182-.044-2.149.293-2.149.75 0 .456 1.096.829 2.436.829 1.974 0 3.019-1.148 5.516-6.061l3.08-6.061-2.776-2.776c-4.523-4.523-5.607-4.398-6.91.797-.767 3.058-1.186 3.76-1.25 2.094-.053-1.378.323-3.966.834-5.75 1.057-3.685.458-4.401-.83-.993m22.4.75c-.34.55-.141 1 .441 1s1.059-.45 1.059-1-.198-1-.441-1-.719.45-1.059 1m13.419 1.598c-.729.878-1.475 2.566-1.658 3.75-.356 2.313 2.712 9.622 4.048 9.641.445.006.539.448.209.982-.855 1.383 4.408 2.503 5.699 1.212.761-.761.484-.917-.96-.54-1.117.292-2.263.155-2.546-.306s.779-.884 2.36-.942c2.491-.091 3.073.441 4.366 4 .821 2.258 1.672 5.23 1.892 6.605.369 2.314.409 2.286.535-.375.142-3.011-4.563-14.625-5.925-14.625-.434 0-.635-1.653-.447-3.674.229-2.463.044-3.205-.56-2.25-.496.783-.908.93-.917.327-.016-1.145-3.373-5.403-4.26-5.403-.28 0-1.107.719-1.836 1.598m-49.215 4.731c-.299.778-.855 3.498-1.237 6.043S60.414 132 59.975 132c-1.015 0-.709 1.954.689 4.402.889 1.557 1.311.319 2.322-6.805 1.143-8.054 1.02-11.662-.282-8.268m59.375 2.254c.048 1.165.285 1.402.604.605.289-.722.253-1.585-.079-1.917s-.568.258-.525 1.312m-35.674 4.667L84.5 130.5l2.25-1.905c1.237-1.048 2.25-2.06 2.25-2.25 0-.8-.805-.209-2.595 1.905M109.5 128c.995 1.1 2.035 2 2.31 2s-.315-.9-1.31-2-2.035-2-2.31-2 .315.9 1.31 2m-24.414 7.668c-.047 2.293-.318 4.993-.601 6-.283 1.008.144.429.949-1.286 1.019-2.171 1.202-3.992.601-6-.816-2.726-.868-2.656-.949 1.286m25.637-1.474c-.501 1.841-.085 4.218 1.31 7.5 1.124 2.644 1.75 3.681 1.392 2.306s-.947-4.75-1.309-7.5c-.58-4.402-.747-4.678-1.393-2.306m3.823 1.732c-.315.509.141 3.026 1.012 5.593s1.342 5.3 1.045 6.074-.049 1.407.551 1.407c.764 0 .75.411-.049 1.373-1.383 1.667-.572 4.07 2.829 8.377 2.543 3.22 5.285 4.03 7.944 2.346 2.254-1.427.374-3.301-2.024-2.018-1.114.596-2.287.823-2.606.503-.32-.32-.008-.581.692-.581.705 0 1.024-.651.715-1.457-.435-1.133-.069-1.28 1.643-.662 1.211.437 3.423.714 4.914.614 1.492-.1 2.454.237 2.137.749-.316.511-1.536.688-2.712.393-2.081-.523-2.086-.5-.196.913 1.532 1.145 2.127 1.187 2.826.2.674-.952 1.002-.965 1.374-.056.268.656 1.132.947 1.918.645s1.176-.959.866-1.46-.907-.699-1.327-.439c-.421.259-.765-.176-.765-.968 0-1.167.301-1.206 1.584-.206.87.679 1.864 1.62 2.208 2.091s.911.395 1.26-.17c.724-1.173-3.95-5.187-6.04-5.187-1.307 0-6.734-3.239-10.595-6.323-1.183-.945-1.755-2.82-1.765-5.787-.009-2.415-.452-5.065-.985-5.89-.812-1.257-.972-1.191-.985.405-.014 1.782-.133 1.798-1.844.25-2.089-1.891-2.817-2.037-3.625-.729m48.454 5.42c-.825 1.735-2.4 3.31-3.5 3.501-3.564.618-4.085 2.153-.732 2.153 2.428 0 3.517.643 4.66 2.75 1.418 2.613 1.494 2.637 1.532.479.025-1.429.967-2.694 2.537-3.41l2.497-1.137-2.242-1.118c-1.233-.615-2.469-2.3-2.747-3.745l-.505-2.628zm-128.937-.653c-.034 1.207-1.001 2.851-2.147 3.653-1.784 1.25-1.864 1.583-.558 2.315.84.47 1.974 1.976 2.521 3.347.681 1.707 1.014 1.948 1.058.765.034-.95 1.202-2.473 2.593-3.385l2.53-1.657-2.102-1.473c-1.156-.809-2.491-2.436-2.966-3.615l-.865-2.143zm49.016 4.89c.048 1.165.285 1.402.604.605.289-.722.253-1.585-.079-1.917s-.568.258-.525 1.312m62.45 1.563c2.156 3.765 3.946 4.854 7.977 4.854 2.584 0 6.05.986 9.022 2.566 3.28 1.744 4.387 2.037 3.456.914-2.343-2.823-9.705-5.731-13.413-5.299-1.887.221-3.241.094-3.009-.281.231-.375-.756-1.452-2.194-2.394-1.753-1.149-2.359-1.267-1.839-.36m-60.965 2.147c.376.986.935 1.541 1.243 1.233s.001-1.114-.683-1.793c-.988-.98-1.102-.865-.56.56m27.781.25c-.326.849-.369 1.767-.096 2.04.274.273.737-.422 1.03-1.543.624-2.383-.069-2.751-.934-.497m-78.039 4.872c-1.585 1.364-2.42 2.778-1.919 3.25.488.459 1.066.338 1.285-.27.219-.607 1.62-.953 3.113-.768 2.693.333 2.695.33.215-.457-2.452-.777-2.461-.814-.435-1.918 1.333-.726 3.37-.83 5.743-.295 2.023.456 3.451.461 3.173.012-.278-.45.288-1.024 1.257-1.277s-.8-.512-3.932-.576c-4.68-.095-6.194.314-8.5 2.299M158.5 156c1.1.473 2.675.859 3.5.859.945 0 .761-.317-.5-.859-1.1-.473-2.675-.859-3.5-.859-.945 0-.761.317.5.859m-97.516 1.481c.639.77 1.824 1.146 2.632.836 1.814-.696 1.334-1.249-1.57-1.808-1.813-.349-2.009-.17-1.062.972M91 157.017c-3.13.475-.72.728 7.917.833 6.829.082 12.229-.012 12-.21-.923-.798-15.709-1.26-19.917-.623m-25.342 1.432q-.557 1.45.887.895c.794-.304 1.195-.956.89-1.449-.766-1.24-1.132-1.126-1.777.554M142 158c0 .55.45 1 1 1s1-.45 1-1-.45-1-1-1-1 .45-1 1m-101.5 1.913-3 .676 4 .685c2.358.404 4.137.283 4.333-.294.184-.539.773-.98 1.309-.98.537 0 .735.389.441.865-.532.861 13.513 3.314 29.51 5.153 9.707 1.116 39.281 1.181 45.907.1l4.5-.734-7-.819c-9.301-1.088-34.891-1.161-40.325-.114-2.681.516-6.292.408-9.5-.285-2.846-.615-9.371-2.029-14.501-3.142-9.796-2.126-10.841-2.2-15.674-1.111m102.5 1.039c-4.125.994-9.233 2.116-11.352 2.492-2.119.377-3.606.931-3.305 1.232.663.663 17.746-1.71 19.157-2.661.866-.584 4.611-1.061 10.677-1.361.922-.045 1.458-.436 1.191-.868-.802-1.297-8.39-.756-16.368 1.166m-112 1.441c0 .884.675 1.674 1.5 1.757s2.063.195 2.75.25c.688.055 1.487.414 1.777.798s3.196 1.29 6.459 2.014c5.911 1.311 5.933 1.329 6.062 5.052.072 2.055-.135 3.731-.459 3.724s-2.951-.641-5.839-1.409c-2.888-.769-5.25-1.025-5.25-.569 0 1.022 10.481 3.435 22.5 5.182 14.166 2.059 69.174 1.726 82-.496 10.124-1.754 24.867-5.662 24.132-6.397-.22-.221-4.015.522-8.433 1.65S149.877 176 149.523 176s-.504-1.656-.333-3.68c.301-3.57.471-3.716 5.679-4.884 2.953-.662 5.689-1.721 6.08-2.353s1.404-.885 2.252-.559c1.369.525 5.417-2.239 4.55-3.106-.189-.19-2.521.31-5.182 1.111-19.964 6.009-67.677 8.064-101.569 4.375-9.052-.985-24.512-3.956-28.25-5.428-1.227-.484-1.75-.209-1.75.917m70.813 2.29c.721.289 1.584.253 1.916-.079s-.258-.568-1.312-.525c-1.165.048-1.402.285-.604.604M33 166.335c0 .258 1.452.976 3.227 1.594s2.788.714 2.25.211c-1.139-1.066-5.477-2.496-5.477-1.805m127.558 1.572c-.309.498.34.671 1.441.383 2.335-.611 2.63-1.29.56-1.29-.793 0-1.693.408-2.001.907m-126.043 2.117c.664 1.075 4.485 1.926 4.485.999 0-.434-1.111-1.002-2.47-1.262-1.358-.26-2.265-.141-2.015.263M44.5 170c.34.55.816 1 1.059 1s.441-.45.441-1-.477-1-1.059-1-.781.45-.441 1m117.25-.311c-.963.252-1.75.89-1.75 1.42 0 .579.795.536 2-.109 1.1-.589 2-1.28 2-1.535 0-.256-.113-.413-.25-.349s-1.037.322-2 .573M58 173.5c0 1.925.413 3.5.918 3.5s1.63.273 2.5.607 1.582.109 1.582-.5S62.325 176 61.5 176q-1.5 0-1.5-3c0-1.65-.45-3-1-3s-1 1.575-1 3.5m8.046-2.055c-.66.795-1.052 2.482-.873 3.75.242 1.705.978 2.305 2.827 2.305s2.585-.6 2.827-2.305C71.144 172.959 69.534 170 68 170c-.415 0-1.295.65-1.954 1.445m58.559-.146c-2.645 1.935-1.822 7.099 1.2 7.528 3.119.442 5.195-1.493 5.195-4.842 0-3.777-3.114-5.085-6.395-2.686M134 174c0 3.778.167 4 3 4 1.911 0 3-.51 3-1.406 0-.914-.7-1.224-2-.884-1.684.441-2 .031-2-2.593 0-1.715-.45-3.117-1-3.117s-1 1.8-1 4m-103-2.056c0 .916 4.966 2.423 5.669 1.72.238-.238-.94-.911-2.618-1.496S31 171.482 31 171.944m42.032 3.306c.028 3.783.18 4.054 1.382 2.471 1.294-1.706 1.382-1.706 2.125 0 .641 1.472.889 1.261 1.431-1.221.897-4.102.242-5.5-2.577-5.5-2.154 0-2.39.425-2.361 4.25m8.635-3.583c-.367.366-.667 2.195-.667 4.063 0 3.23.16 3.381 3.25 3.083 2.708-.261 3.303-.772 3.566-3.063.253-2.193-.215-2.951-2.315-3.75-3.122-1.187-2.992-1.175-3.834-.333m31.555.566c-1.339 1.613-.549 2.912 2.778 4.564l2.5 1.241-2.774-.385c-3.304-.458-4.615.93-1.741 1.842 5.014 1.592 8.338-2.661 3.515-4.495-3.249-1.235-3.224-2.371.04-1.748 1.602.307 2.404.073 2.173-.633-.542-1.652-5.21-1.93-6.491-.386M155.5 172c-.34.55-.141 1 .441 1s1.059-.45 1.059-1-.198-1-.441-1-.719.45-1.059 1m-111 1c.34.55.816 1 1.059 1s.441-.45.441-1-.477-1-1.059-1-.781.45-.441 1m22.5 1.5c0 1.375.45 2.5 1 2.5s1-1.125 1-2.5-.45-2.5-1-2.5-1 1.125-1 2.5m8-.941c0 .857.457 1.276 1.016.931.559-.346.758-1.047.441-1.559-.857-1.387-1.457-1.129-1.457.628m19.384-.117c-.976 2.543.075 5.049 2.249 5.361 2.38.341 3.742-2.046 2.822-4.944-.696-2.195-4.276-2.49-5.071-.417M102 175.5c0 1.925.45 3.5 1 3.5s1-.675 1-1.5.45-1.5 1-1.5 1-.477 1-1.059-.45-.781-1-.441-1 .174-1-.368.787-1.191 1.75-1.443c1.077-.281.692-.502-1-.573-2.498-.105-2.75.204-2.75 3.384m23.412-2.131c-.751 1.956.272 3.631 2.217 3.631.981 0 1.398-.76 1.191-2.172-.388-2.637-2.594-3.581-3.408-1.459M83 175.5c0 1.689.458 2.514 1.25 2.25.688-.229 1.25-1.242 1.25-2.25s-.562-2.021-1.25-2.25c-.792-.264-1.25.561-1.25 2.25m13-.059c0 1.407.45 2.559 1 2.559s1-.873 1-1.941-.45-2.219-1-2.559c-.567-.351-1 .49-1 1.941m64.813 1.242c.721.289 1.584.253 1.916-.079s-.258-.568-1.312-.525c-1.165.048-1.402.285-.604.604m-31 6c.721.289 1.584.253 1.916-.079s-.258-.568-1.312-.525c-1.165.048-1.402.285-.604.604m-13.045 1.042c1.797.222 4.497.218 6-.01 1.503-.229.032-.411-3.268-.405s-4.529.192-2.732.415"/><path fill-opacity=".891" fill-rule="evenodd" d="M88.821 7.396c-7.503 2.019-15 8.785-17.849 16.108-1.434 3.686-2.891 13.564-1.911 12.959.849-.525 2.343-7.327 2.08-9.471-.562-4.582 11.081-17.888 14.503-16.575.689.264 2.699-.24 4.465-1.121 2.118-1.057 5.807-1.595 10.833-1.581 8.684.025 13.481 1.931 18.74 7.447 3.35 3.516 6.533 11.114 5.635 13.456-.292.76-.006 1.382.635 1.382s.845.52.453 1.155c-.419.677-.277.884.343.501.713-.441 1.049 2.264 1.034 8.316-.021 8.449-.131 8.912-1.892 7.969-1.029-.55-1.762-1.49-1.63-2.088.47-2.131-7.933-2.061-12.17.101-2.206 1.125-4.687 2.046-5.515 2.046-1.993 0-3.62-3.169-2.58-5.026.619-1.107.262-1.474-1.438-1.474-1.862 0-2.077.295-1.22 1.669.754 1.207.675 2.112-.288 3.272-1.457 1.755-4.435 1.299-7.172-1.099-.893-.783-3.941-1.789-6.774-2.237-5.02-.793-5.227-.727-8.127 2.575-3.525 4.015-3.533 4.095-.69 7.374 3.027 3.491 6.549 5.523 10.723 6.185 3.88.616 7.17-1.454 10.318-6.489 2.352-3.762 4.275-3.45 6.58 1.067 1.071 2.099 2.65 4.4 3.509 5.113s1.334 1.665 1.056 2.115.388 1.444 1.48 2.209c1.82 1.275 1.859 1.572.459 3.57-.84 1.199-1.259 2.613-.931 3.144.328.53-1.33 2.359-3.683 4.064-4.321 3.13-7.76 3.414-12.67 1.047l-5.5-2.656c-2.131-1.029-4.329-2.87-4.886-4.092-1.247-2.736-3.801-3.84-4.896-2.115-.661 1.042-.817 1.042-.83.003-.008-.705.582-1.511 1.313-1.791 1.827-.701 6.927 1.351 6.216 2.501-.602.975 1.063 2.379 3.206 2.704 1.65.251 1.578-.72-.249-3.328-1.155-1.649-1.212-2.257-.25-2.654.687-.284-.18-.272-1.927.027-1.917.327-4.435-.086-6.35-1.041-2.641-1.318-2.969-1.336-1.952-.11.767.924.83 1.473.17 1.473-.579 0-1.241.787-1.472 1.75-.335 1.402-.419 1.353-.42-.25 0-1.1-.958-4.025-2.128-6.5-1.595-3.373-2.134-6.454-2.15-12.303-.04-14.261 3.526-25.149 10.79-32.947 1.409-1.512 2.066-2.75 1.459-2.75-3.291 0-12.637 16.518-12.447 22 .091 2.646-.124 3.134-.882 2-.766-1.146-.886-.909-.509 1 .272 1.375.105 7.225-.372 13l-.866 10.5.153-10.158c.083-5.587-.09-9.765-.386-9.284s-1.871.167-3.5-.698c-3.725-1.978-9.708-2.231-11.795-.498-1.448 1.201-1.419 1.562.309 3.979 1.046 1.463 2.388 4.539 2.982 6.836.646 2.498 2.278 5.185 4.061 6.685L65 58.871v13.604c0 11.466-.303 14.199-1.93 17.387-1.342 2.631-1.939 5.892-1.962 10.71-.063 13.364-5.859 36.293-10.599 41.928l-2.524 3-6.494-6.866c-7.818-8.265-14.538-20.966-17.037-32.197C22.098 95.85 22.857 76.278 25.982 67c2.764-8.204 7.27-17.19 11.554-23.039 6.834-9.33 19.383-19.407 29.737-23.877 2.325-1.004 5.114-2.816 6.197-4.027l1.971-2.202-5.311 2.094c-11.679 4.603-21.064 10.972-29.341 19.912-22.667 24.484-27.387 63.335-11.154 91.821 2.447 4.295 4.709 8.936 5.026 10.313.834 3.621 3.16 7.005 4.817 7.005.964 0 .63-.801-1.023-2.455-1.35-1.35-2.455-3-2.455-3.666 0-.667.148-1.025.33-.796.181.23 2.234 2.523 4.563 5.098 4.639 5.128 4.447 5.706-2.393 7.196l-3 .654 2.361-2.016c1.298-1.108 3.012-2.015 3.809-2.015.796 0 1.18-.433.853-.962-.932-1.509-5.476 1.007-7.051 3.904q-1.393 2.563-1.432.93c-.022-.895-.828-2.223-1.79-2.951-1.489-1.127-1.563-1.115-.5.077 1.722 1.931 1.571 5.942-.25 6.64-1.19.457-1.5 2.574-1.5 10.255 0 8.526.208 9.686 1.75 9.743.962.035 3.1.359 4.75.72 1.794.392 1.292.017-1.25-.933-2.337-.874-4.25-2.05-4.25-2.613s.689-.759 1.532-.436c3.105 1.191 13.701 3.726 14.063 3.364.206-.206-3.219-1.412-7.61-2.681-4.392-1.269-7.985-2.654-7.985-3.077 0-.826 3.644-.072 11.25 2.326 2.612.824 4.795 1.205 4.85.846s.477.473.938 1.848c.703 2.093.809 1.85.651-1.492-.149-3.139-.616-4.059-2.189-4.309-1.1-.175-5.038-1.229-8.75-2.342-5.013-1.503-6.75-2.477-6.75-3.785 0-1.668.296-1.662 5.566.118 24.221 8.177 98.548 8.387 124.934.354 6.166-1.877 6.5-1.884 6.5-.137 0 1.294-11.276 5.593-14.668 5.593-.733 0-1.332.675-1.332 1.5s-.477 1.5-1.059 1.5-.781-.45-.441-1 .141-1-.441-1-1.059 1.605-1.059 3.567c0 2.927.314 3.475 1.75 3.053.963-.283 4.548-1.222 7.968-2.086 3.42-.865 6.907-1.837 7.75-2.16s1.532-.183 1.532.312c0 .496-1.912 1.674-4.25 2.62-3.889 1.572-1.272 1.599 2.821.028 1.2-.46 1.528-.303 1.034.496-.398.644-.246 1.17.336 1.17.677 0 1.059-3.745 1.059-10.393 0-8.316-.3-10.508-1.5-10.969-.825-.316-1.5-1.736-1.5-3.155 0-1.954.788-2.922 3.25-3.992 1.787-.777 2.658-1.43 1.934-1.452-2.282-.068-5.265 2.009-6.14 4.276-.825 2.136-.861 2.141-1.621.185-1.027-2.642-2.395-3.491-5.423-3.366-2.312.095-2.28.15.418.734 1.604.348 3.119 1.238 3.365 1.979.354 1.064.017 1.116-1.602.25-1.127-.603-3.542-1.121-5.365-1.149l-3.316-.053 2.434-1.697c1.339-.934 3.773-2.148 5.408-2.698 2.367-.796 3.313-2.02 4.639-6 .916-2.75 3.13-7.442 4.92-10.427 10.808-18.017 12.953-42.674 5.62-64.583-3.793-11.334-14.006-27.544-16.416-26.055-.727.45.449 2.884 3.375 6.984C171.301 58.183 176 72.883 176 89.846c0 20.544-7.487 38.568-21.822 52.533l-5.008 4.878-3.085-2.196c-1.697-1.209-3.085-2.295-3.085-2.414s-.93-2.862-2.066-6.096c-1.137-3.233-3.129-10.58-4.428-16.327l-2.362-10.448 5.678-5.381c3.123-2.96 5.228-5.392 4.678-5.404s-.325-.494.5-1.072c1.143-.8.906-.884-1-.352-1.375.383-2.642 1.064-2.815 1.511-.174.448-1.812-.026-3.641-1.053l-3.325-1.868-3.859 3.592c-3.625 3.374-2.927 3.722.89.444 1.56-1.34 1.75-1.336 1.75.037 0 1.799-4.133 4.755-6.715 4.803-1.526.029-1.443.319.576 2 1.767 1.472 1.961 1.967.773 1.967-2.11 0-4.843-4.291-4.05-6.359.35-.912.138-1.641-.477-1.641-.609 0-1.107-.702-1.107-1.559s.403-1.31.895-1.006c.855.528 2.101-1.447 2.676-4.241.205-.998-.056-1.037-1.107-.164-1.965 1.631-3.255.461-4.471-4.055-.875-3.249-.767-4.391.613-6.496l1.674-2.555 2.11 2.217c1.161 1.22 2.895 3.375 3.853 4.788 1.71 2.522 1.744 2.368 1.75-8.024.006-9.512.223-10.79 2.12-12.5 2.084-1.879 26.373-32.784 30.818-39.213 1.258-1.819 1.972-3.619 1.587-4-.384-.38-8.534 7.395-18.109 17.28S129 59.036 129 58.537c0-.5.978-1.95 2.174-3.223 1.358-1.444 1.687-2.314.878-2.314-1.032 0-1.016-.336.076-1.646.754-.905 1.939-2.817 2.632-4.25 1.237-2.557 1.251-2.541.808.896l-.45 3.5 1.9-4.25c1.045-2.337 2.368-4.25 2.941-4.25S141 42.1 141 41c0-1.623-.667-2-3.535-2-1.945 0-4.645.727-6 1.615L129 42.23l-.012-4.865c-.026-10.915-4.614-20.908-12.08-26.317-6.366-4.611-18.608-6.203-28.087-3.652M115 14.5c2.395 2.55 1.581 3.518-1.05 1.25-.797-.687.35.729 2.55 3.147 2.571 2.827 3.325 4.158 2.109 3.728-1.315-.466-.933.309 1.256 2.548 2.212 2.262 2.976 3.828 2.575 5.272-.47 1.693-.374 1.791.548.555.939-1.258 1.061-1.178.756.5-.199 1.1-.899 1.888-1.553 1.75-1.803-.378-1.426 2.446.42 3.154 1.118.429 1.445.185 1.069-.795-.298-.777-.243-1.713.124-2.079.366-.367 1.182 1.502 1.812 4.152s1.2 3.877 1.265 2.727c.066-1.15-.535-4.264-1.335-6.921s-1.231-5.189-.959-5.629c.639-1.033-2.547-7.233-3.319-6.461-.738.739-3.268-1.307-3.268-2.643 0-.55.787-.404 1.75.325s-.029-.566-2.203-2.877S113.382 12 113.123 12s.585 1.125 1.877 2.5m9.123 1.315c.583.927 3.606 2.795 6.718 4.152s9.133 4.823 13.379 7.703c4.622 3.136 7.978 4.819 8.363 4.196.707-1.143.664-1.19-5.083-5.533-6.034-4.561-12.529-8.107-18.798-10.263-5.077-1.747-5.533-1.773-4.579-.255M121 22.941c0 .518.445 1.216.989 1.552.566.35.734-.051.393-.941-.665-1.732-1.382-2.049-1.382-.611m30.363 14.375C126.533 63.181 111 80.794 111 83.082c0 2.257.05 2.247 3.246-.645 2.609-2.36 2.805-2.433 1-.373-2.408 2.75-2.804 3.936-1.314 3.936 1.024 0 20.862-23.293 36.777-43.183C160.087 31.098 163.706 26 162.648 26c-.232 0-5.31 5.092-11.285 11.316m-70.958-8.162c-1.107 1.791-1.342 5.925-.301 5.282.511-.316.675-.984.366-1.484-.309-.501-.076-1.82.519-2.931 1.137-2.124.644-2.854-.584-.867m72.519 8.596L150.5 40.5l2.75-2.424c2.57-2.266 3.209-3.076 2.424-3.076-.179 0-1.416 1.237-2.75 2.75m-54.587-.521c1.523.969 7.414.984 8.004.021.253-.413-1.706-.752-4.354-.755-2.647-.003-4.29.328-3.65.734m-41.587 1.46c-2.428.635-2.199 2.311.316 2.311 2.952 0 6.024 1.811 9.143 5.391l2.71 3.109.04-3.799c.038-3.514-.278-3.944-4.209-5.728-4.353-1.976-4.972-2.075-8-1.284M94 38.378c0 .207.787.995 1.75 1.75 1.586 1.243 1.621 1.208.378-.378C94.821 38.084 94 37.555 94 38.378m37.655 3.244c-2.19 1.187-2.712 2.041-2.264 3.71.32 1.192.588 2.461.595 2.818s1.544-.88 3.414-2.75 4.12-3.4 5-3.4 1.6-.45 1.6-1c0-1.507-5.12-1.126-8.345.622M57.478 43.75c.381.962.938 3.213 1.238 5.002.348 2.069 1.955 4.525 4.418 6.75 4.752 4.293 6.193 4.46 4.211.487-.839-1.682-1.977-2.717-2.578-2.345-.592.366-.792.206-.445-.356s-.259-1.826-1.346-2.809S61 47.897 61 46.927C61 44.03 59.882 42 58.286 42c-1.026 0-1.281.554-.808 1.75m89.446 1L144.5 47.5l2.75-2.424c1.512-1.334 2.75-2.571 2.75-2.75 0-.785-.81-.146-3.076 2.424M82 46c-4.517 4.517-1.014 11 5.943 11 6.649 0 9.231-5.917 4.602-10.545C89.515 43.424 84.78 43.22 82 46m32.017.286c-3.629 1.836-4.88 6.103-2.544 8.684C115.218 59.108 124 56.325 124 51c0-2.473-3.393-6.005-5.75-5.985-.963.008-2.868.58-4.233 1.271m26.929 5.464L137.5 55.5l3.75-3.446c2.063-1.896 3.75-3.583 3.75-3.75 0-.764-.846-.044-4.054 3.446m-15.2.515c-.96 1.466-1.746 3.104-1.746 3.641 0 1.453-2.028 2.446-6.5 3.184l-4 .66 4.05.125c2.228.069 4.59-.415 5.25-1.075.893-.893 1.2-.902 1.2-.035 0 1.825-3.483 3.235-7.993 3.235-2.863 0-3.907-.353-3.412-1.155.443-.715.275-.883-.44-.44-1.712 1.057-1.438 1.537 1.513 2.659 1.787.679 3.616.684 5.534.015 1.775-.618 2.641-.633 2.273-.039-1.244 2.014 1.487.852 2.968-1.263.856-1.222 1.557-1.698 1.557-1.059 0 .64-.45 1.442-1 1.782s-1 1.111-1 1.714.9.281 2-.714c1.982-1.793 2.887-6.166 1.04-5.025-.575.356-.543-.604.082-2.395.573-1.644.891-3.775.706-4.735-.278-1.441-.64-1.28-2.082.92m-47.559 4.674c.242.792 1.549 2.268 2.905 3.28 2.03 1.516 3.168 1.677 6.437.912l3.971-.93-4.711-.101c-3.49-.074-5.272-.683-6.876-2.35-1.191-1.237-1.967-1.602-1.726-.811m27.471-.145c.191.299-.406 1.375-1.325 2.39-1.62 1.791-1.742 1.78-4.002-.343C98.658 57.27 98 57.056 98 58.085c0 1.988 3.739 4.133 5.97 3.424 2.128-.675 3.51-3.509 2.219-4.551-.482-.389-.721-.463-.531-.164m28.288 2.956L130.5 63.5l3.75-3.446c2.063-1.896 3.75-3.583 3.75-3.75 0-.764-.846-.044-4.054 3.446M66 69.617c0 7.67.262 9.521 1.214 8.569 1.694-1.694 1.726-17.346.036-17.924-.944-.324-1.25 1.966-1.25 9.355m4-3.176c0 3.706.435 6.559 1 6.559.554 0 1-2.647 1-5.941 0-3.268-.45-6.219-1-6.559-.628-.388-1 1.823-1 5.941m3.157-.691c.155 5.074-.195 6.674-1.858 8.5-2.593 2.847-4.631 6.751-3.904 7.479.307.306.848-.199 1.203-1.123 1.183-3.085 5.927-4.603 14.602-4.674 9.092-.074 8.685-.634-2.52-3.467-4.844-1.225-6.51-2.035-5.75-2.795 1.552-1.552 1.311-5.979-.447-8.229-1.397-1.788-1.502-1.447-1.326 4.309m75.093-5.088c-.687.278-1.302 1.48-1.366 2.671-.091 1.691-.216 1.783-.573.417-1.051-4.02-9.524-1.287-12.194 3.934-2.367 4.628-.522 12.069 2.686 10.838 1.246-.478 1.132-.068-.465 1.672-2.57 2.802-3.717 9.889-1.46 9.023q1.445-.554.692.67c-1.334 2.158.326 6.049 2.852 6.683 2.63.66 6.954-1.152 6.09-2.551-.3-.484-.111-1.149.419-1.477.537-.331.792.303.574 1.431-.215 1.115.034 2.027.552 2.027.519 0 .943-.873.943-1.941s.42-2.201.934-2.518c.514-.318.68-2.144.369-4.059-.388-2.395-.181-3.482.665-3.482.81 0 .513-1.214-.869-3.557-2.522-4.275-2.586-5.042-.488-5.847 1.17-.449 1.447-.191 1.012.945-.33.859-.221 1.329.242 1.042.995-.614 3.135 3.715 3.135 6.342 0 1.006-.675 2.39-1.5 3.075s-1.486 1.752-1.468 2.372c.017.621 1.131-.121 2.475-1.649l2.443-2.776-2.058-5.221c-1.132-2.872-2.583-5.869-3.225-6.661-.95-1.171-.841-1.317.583-.784 1.371.514 1.75.122 1.75-1.812 0-1.358.42-2.469.933-2.469s1.243-.978 1.622-2.174c.482-1.519.144-2.573-1.124-3.5-1.926-1.409-2.219-1.455-4.181-.664m2.475 2.063c.466 1.214.201 1.461-1.051.98-1.82-.698-2.328.773-.63 1.822 1.079.667 3.956-1.182 3.956-2.542 0-.424-.652-1.021-1.449-1.327-1.02-.392-1.265-.076-.826 1.067M140 64.559c0 .857-.367 1.332-.817 1.054-1.351-.835-4.367 5.23-3.679 7.399.811 2.556 6.029 2.696 8.839.238 1.181-1.033 1.662-1.175 1.174-.345-.557.947-.451 1.172.328.69 1.614-.997 1.525-6.897-.095-6.303-.687.252-1.126.998-.975 1.657.151.66-.208.901-.799.536-.746-.461-.697-1.116.161-2.15.983-1.184.97-1.651-.064-2.29-1.054-.651-1.042-.905.064-1.345.75-.298.125-.578-1.387-.621-1.858-.053-2.75.427-2.75 1.48m-23.31.893c-.798.799-1.666 1.238-1.928.976-.866-.866-2.948 2.461-2.249 3.593.475.769 1.217.628 2.417-.458.953-.862 2.057-1.243 2.454-.846s.425-.052.062-.997c-.761-1.982.593-2.281 2.354-.52.933.933 1.476.924 2.442-.042.988-.988.938-1.433-.25-2.184-2.11-1.334-3.626-1.197-5.302.478m10.256 2.298L123.5 71.5l3.75-3.446c3.49-3.208 4.21-4.054 3.446-4.054-.167 0-1.854 1.688-3.75 3.75m-48.503.668c-2.329 1.703-1.996 2.094 2.523 2.957 3.227.616 3.33.559 1.5-.825-1.202-.909-1.457-1.499-.657-1.518.72-.018 1.031-.482.691-1.032-.837-1.355-1.764-1.259-4.057.418M87.5 68c.34.55.816 1 1.059 1s.441-.45.441-1-.477-1-1.059-1-.781.45-.441 1m7.25.08c-2.882 1.679-1.975 2.919 1 1.367 3.616-1.887 9.251-1.835 12.027.11 2.581 1.807 2.924 1.287.652-.986-1.804-1.803-10.867-2.129-13.679-.491m18.709-.013c-.363.586-.445 1.281-.183 1.543s.743-.218 1.069-1.067c.676-1.762.1-2.072-.886-.476m6.487 7.683L116.5 79.5l3.75-3.446c2.063-1.896 3.75-3.583 3.75-3.75 0-.764-.846-.044-4.054 3.446m6.726-1.95c-1.736 1.928-1.742 2.164-.115 4.647.943 1.438 1.469 2.86 1.17 3.16-.3.299-.828-.349-1.174-1.439-1.107-3.489-3.211-3.177-6.545.971-1.765 2.197-2.993 4.21-2.729 4.473.264.264 1.801-1.316 3.416-3.512l2.937-3.993 1.819 3.08c1.556 2.633 1.953 2.842 2.739 1.438.505-.903.782-3.715.614-6.249-.3-4.543-.329-4.579-2.132-2.576M113 74c-.825.533-1.05 1.008-.5 1.055s.13.426-.934.843c-1.231.482-1.53 1.006-.822 1.444.611.378 2.381-.431 3.934-1.796 2.813-2.475 1.554-3.635-1.678-1.546m-38.75.689c.963.252 2.537.252 3.5 0 .963-.251.175-.457-1.75-.457s-2.713.206-1.75.457m24.938.556c2.176.546 4.341.558 5.283.031 1.099-.615-.05-.903-3.687-.924-5.206-.03-5.23-.017-1.596.893m41.062 2.251c-1.643 1.866-1.653 1.822 1.304 6.178 1.818 2.679 2.371 4.487 1.922 6.278l-.631 2.515 2.116-2.69 2.116-2.691-2.493-4.921c-1.372-2.707-2.214-5.201-1.872-5.543s.209-.605-.295-.584c-.505.021-1.479.677-2.167 1.458m-44.114 2.058c-1.148 1.459-1.766 3.304-1.428 4.26.96 2.716 3.475 5.191 4.58 4.508.562-.347.751-.193.42.341-.33.535.251 1.587 1.292 2.337s1.685 1.701 1.43 2.113c-.254.412-.005 1.031.554 1.377.559.345 1.045.039 1.079-.681s.481-.268.992 1.005c.51 1.273 1.391 2.028 1.957 1.679.566-.35 2.404.521 4.085 1.935 3.28 2.76 6.766 3.309 8.703 1.372 1.978-1.978 1.451-4.8-.896-4.8-3.491 0-7.709-3.029-7.157-5.139.267-1.023.87-1.861 1.338-1.861s.557.787.196 1.75c-.574 1.532-.446 1.579 1.032.378 2.241-1.824 2.135-3.128-.254-3.128-1.068 0-2.219-.45-2.559-1-.726-1.174-6.671-1.346-8.05-.233-.523.421-.841.575-.709.342.133-.234-.317-1.141-1-2.017-1.083-1.39-1.03-1.427.42-.293 1.193.933 1.855.984 2.35.183.887-1.435.231-2.05-2.398-2.248-1.274-.096-2.113-.846-2.113-1.888 0-2.882-1.724-3.012-3.864-.292M70.505 81.25c-3.924 3.341-8.478 11.593-8.495 15.393-.011 2.333 2.208 3.739 3.639 2.308.524-.524 2.838-.308 5.599.523l4.707 1.417L78 96.268c2.062-4.662 1.644-6.21-1.688-6.253-.653-.008-1.122-.884-1.042-1.946s.436-1.751.791-1.531c.782.483 2.939-4.028 2.939-6.144 0-.888.476-1.218 1.155-.799.715.443.883.275.44-.44-1.372-2.221-6.199-1.218-10.09 2.095M87 78.963c3.095 1.037 7.575 1.278 6.654.358-.373-.374-2.586-.796-4.916-.938-3.397-.207-3.742-.092-1.738.58m19.813-.28c.721.289 1.584.253 1.916-.079s-.258-.568-1.312-.525c-1.165.048-1.402.285-.604.604M82 81.214C82 84.057 86.436 87 90.721 87c3.65 0 4.033-.224 3.549-2.077-.578-2.21-2.839-3.376-8.663-4.469-2.783-.522-3.607-.348-3.607.76m21.75-.552c.688.278 1.813.278 2.5 0 .688-.277.125-.504-1.25-.504s-1.937.227-1.25.504m4 .73c-2.252 1.709-2.205 2.148.25 2.333 1.364.103 2-.466 2-1.787 0-2.27.016-2.266-2.25-.546m27.917.275c-1.02 1.02-.793 5.137.322 5.826.577.357.751-.138.418-1.191-.497-1.57-.362-1.546 1.046.186 1.448 1.781 1.456 2.105.081 3.11-1.891 1.383-2 4.009-.195 4.702.772.296 2.09-.757 3.111-2.485 1.693-2.865 1.693-3.171.009-6.907-1.66-3.68-3.267-4.767-4.792-3.241m9.971.833c.317.825.978 1.5 1.469 1.5s.893-.675.893-1.5-.661-1.5-1.469-1.5c-.894 0-1.243.586-.893 1.5m-48 3c.317.825 1.033 1.5 1.591 1.5.586 0 .489-.635-.229-1.5-.685-.825-1.401-1.5-1.591-1.5s-.087.675.229 1.5m-17.294 2.046c-.725 1.889.445 3.472 2.098 2.838.758-.291 2.815.215 4.572 1.123 2.388 1.235 4.449 1.479 8.167.968l4.972-.684-2.141-1.995c-1.634-1.521-2.933-1.846-5.482-1.368-1.953.367-5.07.032-7.503-.807-3.486-1.201-4.246-1.213-4.683-.075m24.528 1.204c-1.269 1.619-1.222 1.64.628.283 1.1-.807 2.188-1.594 2.417-1.75s-.054-.283-.628-.283-1.662.787-2.417 1.75M109 89.802c0 .624-.629.894-1.399.598-1.73-.664-3.052 1.203-1.521 2.149 1.291.798 4.64-2.162 3.61-3.192-.379-.38-.69-.179-.69.445M79.989 94.25c-1.09 1.787-1.983 4.885-1.985 6.883-.003 3.083.375 3.706 2.496 4.112 2.274.434 2.514.151 2.65-3.134.125-3.022.218-3.162.566-.861.575 3.794 3.936 5.536 5.94 3.079.821-1.006 1.197-1.25.836-.542-.889 1.744 4.512 7.12 8.121 8.085 2.178.582 2.887 1.368 2.887 3.2 0 1.923-.52 2.428-2.5 2.428-2.07 0-2.493-.473-2.461-2.75.022-1.513-.33-2.75-.781-2.75-1.496 0-1.93 2.811-.769 4.98.86 1.606 1.909 2.06 4.227 1.828 5.768-.577 6.396-6.819.769-7.649-2.581-.381-5.92-3.857-5.916-6.159.002-.948.864-.447 2.341 1.358 3.076 3.761 4.468 1.683 1.585-2.365-2.569-3.607-.964-4.04 1.826-.493 1.082 1.375 2.24 2.5 2.573 2.5 1.415 0 .438-3.55-1.565-5.682-3.043-3.239-1.523-4.103 1.646-.934 2.238 2.238 2.683 2.369 3.227.95.422-1.099-.442-2.606-2.598-4.533-3.057-2.731-3.563-2.85-9.417-2.213-3.403.37-6.862 1.176-7.687 1.792-1.319.985-1.327.9-.064-.706 1.247-1.587 1.247-1.945 0-2.735-2.498-1.58-3.909-1.032-5.947 2.311m48.511-.952c-1.997 1.958-1.996 1.959.25.796 1.862-.964 2.25-.9 2.25.371 0 .844.423 1.535.941 1.535 1.457 0 2.214-1.786 1.059-2.5-.568-.351-.82-.982-.56-1.402.984-1.593-2.027-.676-3.94 1.2m-45.947-.383a1.116 1.116 0 0 0 .362 1.532c.521.322 1.21.159 1.532-.362a1.116 1.116 0 0 0-.362-1.532 1.116 1.116 0 0 0-1.532.362m50.992 5.013c-.847 1.37 4.052 4.035 6.537 3.556 2.529-.487 5.084-2.484 3.177-2.484-.628 0-1.409.433-1.736.963-.348.564-2.015.165-4.023-.963-1.885-1.059-3.665-1.541-3.955-1.072m-25.251 4.103c-1.021 2.707-.962 2.862.743 1.949 2.627-1.406 3.139-2.589 1.654-3.821-.979-.813-1.552-.364-2.397 1.872m-45.636-.356c-.362.362-.658 2.109-.658 3.881 0 5.121-2.924 19.233-5.789 27.944-2.121 6.447-3.553 8.922-7.374 12.75-2.608 2.613-4.34 4.75-3.848 4.75.491 0 1.186-.474 1.544-1.053.357-.579 1.172-.863 1.809-.63s2.011-.307 3.054-1.197c1.795-1.535 1.836-1.508.785.498-1.179 2.249-4.961 3.382-11.29 3.382-2.851 0-4.713.762-7.125 2.917-1.795 1.605-3.04 3.126-2.765 3.38s3.649-.007 7.499-.579c6.179-.919 6.653-1.136 4.046-1.848-1.624-.443-4.099-.559-5.5-.257-2.028.437-2.241.324-1.046-.557.933-.687 3.637-.874 7.153-.494 3.473.376 6.468.176 7.765-.518 2.454-1.313 6.707-7.7 7.662-11.507.363-1.447.858-2.433 1.099-2.191.957.957-2.972 11.849-5.252 14.559-2.219 2.637-2.277 2.946-.676 3.639 2.472 1.071 4.275 1.46 7.995 1.725 1.785.127 3.247.569 3.25.981.009 1.663 2.555.592 4.555-1.916 1.615-2.026 2.322-2.349 2.942-1.346q.816 1.321-.346.603c-.659-.407-1.437.002-1.8.947-1.401 3.65 5.551 4.755 7.877 1.251.935-1.408 2.515-2.225 4.353-2.25 1.932-.026 2.999-.618 3.228-1.789.188-.963-.254-1.753-.982-1.756s-2.066-1.313-2.974-2.909c-1.561-2.743-1.551-2.93.185-3.384 1.019-.266 2.074.138 2.37.91.293.764.071 1.389-.494 1.389-.566 0-.726.489-.356 1.087.473.766.985.774 1.732.027.746-.746.703-1.844-.148-3.711-.987-2.165-.911-3.431.411-6.892 1.235-3.234 1.389-5.076.648-7.761-.864-3.13-.68-3.836 1.665-6.364l2.638-2.844-3.418 2.979-3.418 2.979 2.168-3.618c2.906-4.85 2.8-7.691-.332-8.882-1.375-.523-2.5-1.379-2.5-1.904s-.773-1.726-1.718-2.671c-1.624-1.625-1.79-1.56-3.025 1.178l-1.306 2.897.631-3.375c1.025-5.474-1.277-2.775-2.501 2.933-1.35 6.297-1.389 10.25-.092 9.449 1.228-.759.272 1.89-2.213 6.128-2.406 4.104-2.301 16.025.125 14.064 1.162-.94 1.322-.932.74.038-1.083 1.802-9.265 7.263-10.883 7.263-.759 0-2.253.787-3.319 1.75-1.067.963-2.839 1.829-3.939 1.926-1.861.164-1.879.087-.258-1.104 4.577-3.364 9.222-22.534 10.439-43.086.483-8.142.317-10.243-.886-11.241-.813-.675-1.775-.932-2.137-.57m5.513.924c.807.808 3.236 1.682 5.398 1.944 4.119.498 3.501.059-2.967-2.106-3.428-1.148-3.722-1.128-2.431.162m43.329 1.044c-1.1.866-3.73 2.373-5.845 3.348-2.115.976-3.368 2.069-2.784 2.429.583.361 2.88-.272 5.103-1.407 2.223-1.134 3.985-1.713 3.916-1.287-.311 1.899.241 2.274 1.975 1.346 1.934-1.035 2.395-5.179.635-5.705-.55-.165-1.9.41-3 1.276m5.771.531c-.719.866-.82 1.938-.268 2.832.75 1.213.991 1.174 1.538-.251.978-2.551.132-4.271-1.27-2.581m20.179-.093c-.368.595-2.082 1.943-3.809 2.996-1.728 1.054-2.449 1.917-1.603 1.919 1.814.005 9.017-5.896 7.271-5.955-.655-.023-1.492.445-1.859 1.04M69.32 112c0 3.575.182 5.037.403 3.25s.222-4.713 0-6.5c-.221-1.787-.403-.325-.403 3.25m8.429-4.802c.679.817.979 1.741.667 2.053s.412.877 1.609 1.257c2.654.842 4.622-.743 2.767-2.228-.71-.569-2.413-1.38-3.784-1.802-2.131-.655-2.314-.551-1.259.72M84.5 108c.34.55 1.068 1 1.618 1s.722-.45.382-1-1.068-1-1.618-1-.722.45-.382 1m4.688 1.063c.24.721 1.028 1.509 1.75 1.75.75.25 1.125-.125.875-.875-.241-.722-1.029-1.51-1.75-1.75-.75-.25-1.125.125-.875.875m17.926.816c-1.312 1.009-1.943 2.109-1.401 2.443.541.335 1.929-.271 3.083-1.346s2.357-1.538 2.672-1.027c.316.51-.223 1.392-1.197 1.959-2.367 1.378-.69 1.387 1.882.01 1.113-.595 3.063-1.271 4.335-1.502 2.047-.371 2.448.15 3.505 4.554.656 2.735.961 5.548.679 6.251-.283.704-.55.288-.593-.924-.129-3.61-2.272-7.297-4.24-7.297-1.011 0-1.839.525-1.839 1.167 0 .641-.293.873-.651.515s-1.292.13-2.074 1.084c-.783.953-1.138 1.172-.79.484s.211-1.25-.304-1.25c-1.121 0-.884 8.661.314 11.5.843 1.998.842 1.998-1.575.007l-2.42-1.993 2.424 2.743c2.421 2.738 3.745 3.635 2.576 1.743-.34-.55-.378-1-.085-1 .294 0 1.166 1.238 1.938 2.75 1.054 2.064 1.128 3.179.299 4.471-.837 1.303-.697 2.821.574 6.25.923 2.491 1.322 4.529.886 4.529-1.086 0-3.045-6.638-3.393-11.5l-.286-4-.81 3.653c-.596 2.692-.365 4.587.879 7.209 1.203 2.537 1.492 4.716 1.005 7.598-.43 2.544-.302 4.04.346 4.04 1.527 0 2.337-1.765 1.147-2.5-.568-.351-.76-1.079-.427-1.618.383-.62 1.106-.563 1.971.155 1.084.899 1.119 1.53.171 3.048-.658 1.053-1.763 1.915-2.456 1.915-1.454 0-1.623 1.877-.35 3.887.528.834 1.884 1.195 3.399.905 1.906-.364 2.826.09 3.775 1.863.918 1.716 2.12 2.345 4.479 2.345 3.926 0 5.474-2.732 2.742-4.838-1.244-.96-1.339-1.258-.304-.962.825.236 1.944 1.413 2.487 2.615.954 2.112 3.513 3.077 3.513 1.324 0-.474 1.125-.647 2.5-.384 1.52.291 2.5.017 2.5-.697 0-.647.5-.867 1.112-.489.611.378 1.504.067 1.984-.691.633-.998.878-1.033.889-.128.008.688.465 1.25 1.015 1.25s1-.675 1-1.5-.66-1.5-1.466-1.5c-1.314 0-4.63-1.265-11.257-4.293-1.222-.559-3.697-2.346-5.5-3.972s-2.557-2.457-1.677-1.847c1.406.974 1.622.406 1.774-4.661.139-4.645-.406-6.901-2.797-11.576-1.633-3.194-2.319-5.266-1.523-4.606 1.205 1 1.446.716 1.446-1.705 0-1.597-.696-5.365-1.547-8.372-.85-3.007-1.6-6.026-1.666-6.707-.118-1.212-2.577-1.121-5.936.218-.907.361-1.946.177-2.309-.411-.903-1.461-1.651-1.324-4.428.811m-21.864.783c-.687.278-1.25 1.817-1.25 3.421 0 2.434.408 2.917 2.465 2.917 2.972 0 4.782-2.807 3.401-5.276-.963-1.72-2.251-2.016-4.616-1.062m46.118 7.953c.808 10.625 3.766 25.533 6.029 30.385.898 1.925 1.427 2.744 1.176 1.821s-.712-3.398-1.025-5.5l-.569-3.821 1.425 3.655c2.303 5.906 4.56 8.796 6.336 8.115.914-.351 1.33-.192.98.374-.387.626 1.239.746 4.481.33 5.725-.734 12.372.192 14.129 1.969.9.91.478.921-1.83.047-1.874-.71-4.69-.85-7.5-.373-4.398.747-4.319.78 3.5 1.478 4.4.393 8.189.531 8.421.306.829-.806-4.306-5.401-6.036-5.401-.972 0-2.045-.45-2.385-1s-2.054-1.002-3.809-1.004-4.654-.895-6.441-1.985-3.25-1.617-3.25-1.171c0 1.281 4.297 4.907 6.5 5.485 1.1.289.457.447-1.428.35-2.989-.153-3.721-.751-5.721-4.675-3.238-6.353-5.998-14.91-8.706-26.982-3.064-13.663-5.225-14.877-4.277-2.403M85 113.902c0 1.038 1.902 2.541 2.466 1.948.183-.192-.297-.93-1.067-1.639-.769-.71-1.399-.849-1.399-.309m12.19.848c.186.963 1 1.75 1.81 1.75s1.624-.787 1.81-1.75c.236-1.228-.304-1.75-1.81-1.75s-2.046.522-1.81 1.75m-5.12 1.559c-.043 1.118-.517 1.533-1.24 1.086-.798-.493-.957-.168-.5 1.023.369.96.734 3.846.812 6.414l.142 4.668.716-4c.576-3.215.744-3.449.858-1.191.08 1.591.576 2.541 1.142 2.191.582-.36 1 .637 1 2.382 0 3.2 1.947 5.476 2.077 2.427.042-.995.67-.009 1.395 2.191 1.283 3.893 1.561 3.687 2.026-1.5.392-4.361.745-4.596 1.502-1 .659 3.13.763 2.866.987-2.5.202-4.854.386-5.427.965-3l.715 3 .722-4c.397-2.2.879-4.787 1.072-5.749.511-2.544-1.494-3.34-2.145-.852-.302 1.156-.961 2.101-1.465 2.101-.503 0-1.322 1.013-1.82 2.25-.497 1.237-.933 1.661-.968.941s-.485-1.048-1.002-.729c-.516.319-1.437-.217-2.047-1.191-.936-1.494-1.006-1.38-.449.729 1.024 3.879-1.245 1.186-2.969-3.524-.8-2.187-1.487-3.162-1.526-2.167m-15.991 3.274c.048 1.165.285 1.402.604.605.289-.722.253-1.585-.079-1.917s-.568.258-.525 1.312M78.5 131c-1.63.701-1.688.872-.309.93.93.038 1.969-.38 2.309-.93.711-1.15.676-1.15-2 0m38.268.168c.582.582 1.647.86 2.369.62.749-.25.295-.703-1.057-1.057-1.663-.435-2.054-.305-1.312.437M82.7 132.341c-.283.737-.107 1.975.391 2.75 1.001 1.557.225 6.729-1.293 8.615-.533.664-.645 1.732-.248 2.375 1.051 1.7 3.417-5.76 3.435-10.831.014-4.1-1.224-5.676-2.285-2.909m37.938.159c-.316.825-1.354 1.5-2.307 1.5-1.191 0-1.409.322-.698 1.033 1.49 1.49 4.367.081 4.367-2.14 0-2.276-.575-2.442-1.362-.393m-44.786 1.213c.796 1.494 1.725 2.003 2.863 1.566 1.364-.523 1.408-.732.234-1.097-.797-.248-2.085-.953-2.863-1.566-1.192-.941-1.229-.77-.234 1.097M123.158 137c0 1.375.227 1.938.504 1.25.278-.687.278-1.812 0-2.5-.277-.687-.504-.125-.504 1.25m36.5 3.999c-1.888 2.12-2.237 3.001-1.189 3.001 1.517 0 5.183-4.681 4.332-5.532-.258-.258-1.672.881-3.143 2.531m-126.579-.82c-.043.923-.786 2.385-1.65 3.25-.865.864-1.106 1.571-.536 1.571 1.388 0 3.361-3.806 2.751-5.305-.275-.675-.52-.465-.565.484m89.991 2.571c.063 2.437.168 2.522.93.75 1.174-2.731 1.174-3.5 0-3.5-.55 0-.968 1.238-.93 2.75m41.93-2.052c0 1.339 2.749 4.887 3.332 4.3.273-.274-.365-1.56-1.418-2.859S165 140.192 165 140.698m-137.187 5.985c.721.289 1.584.253 1.916-.079s-.258-.568-1.312-.525c-1.165.048-1.402.285-.604.604M47.5 153l-2 .859 2 .055c1.1.031 2.675-.381 3.5-.914 1.333-.862 1.333-.963 0-.914-.825.03-2.4.441-3.5.914m39.5 4c0 .611 4.667 1 12 1s12-.389 12-1-4.667-1-12-1-12 .389-12 1m-26.397.833c-.283.459.12.834.897.834s1.18-.375.897-.834S61.71 157 61.5 157s-.614.375-.897.833m71.01.35c.289.467.944.591 1.456.274 1.308-.808 1.161-1.124-.525-1.124-.801 0-1.22.383-.931.85m-92.529 1.7c-2.351 1.561 7.436 3.86 24.198 5.684 12.055 1.311 21.245 1.548 44.218 1.138 15.95-.284 32.15-1.017 36-1.628 9.622-1.527 17.691-3.959 16.976-5.115-1.016-1.645-8.029-1.069-21.255 1.745-6.996 1.489-14.521 2.624-16.721 2.521-26.858-1.25-36.495-1.304-41-.23-4.455 1.062-6.363.889-17.5-1.58-13.809-3.062-22.753-3.972-24.916-2.535M31 165.841c0 .731 13.575 5.186 15.75 5.169 1.922-.015 1.482-1.562-.5-1.755-.962-.094-4.788-1.058-8.5-2.142-3.712-1.085-6.75-1.657-6.75-1.272m132.75.362c-2.062.547-3.75 1.353-3.75 1.79s1.8.337 4-.221 4-1.411 4-1.894-.113-.831-.25-.775c-.137.057-1.937.552-4 1.1m-9 2.554c-.963.214-1.75.807-1.75 1.316 0 1.172 1.084 1.159 2.971-.034 1.796-1.136 1.154-1.81-1.221-1.282m11.25.302c0 .582.45.781 1 .441s1-.816 1-1.059-.45-.441-1-.441-1 .477-1 1.059m-4.971.902c-.809.512-1.239 1.162-.956 1.445.774.775 4.927-.508 4.927-1.523 0-1.147-2.1-1.106-3.971.078M58 173.383c0 2.815.42 3.464 2.5 3.862 1.375.263 2.5.09 2.5-.384 0-.473-.675-.861-1.5-.861q-1.5 0-1.5-3c0-1.65-.45-3-1-3s-1 1.523-1 3.383m76 .617c0 4.196 1.633 5.176 5 3 1.213-.784 1.069-.972-.75-.985-1.83-.012-2.25-.575-2.25-3.015 0-1.65-.45-3-1-3s-1 1.8-1 4m-68.616-1.558c-.976 2.543.075 5.049 2.249 5.361 2.38.341 3.742-2.046 2.822-4.944-.696-2.195-4.276-2.49-5.071-.417m7.631 2.238c.011 2.791.27 3.417.961 2.325.81-1.282 1.157-1.211 2.435.5 1.397 1.872 1.477 1.748 1.289-2.005-.166-3.313-.586-4.055-2.45-4.32-1.998-.283-2.248.108-2.235 3.5m41.089-2.766c-1.925 1.219-.616 4.086 1.865 4.086 1.117 0 2.031.502 2.031 1.117 0 .651-1.041.917-2.5.638-1.375-.263-2.5-.062-2.5.447s1.463.784 3.25.611c3.807-.367 4.523-3.133.942-3.64-3.069-.435-2.19-2.757.901-2.378 1.915.234 2.101.084.907-.735-1.838-1.261-3.076-1.298-4.896-.146m9.301 1.61c-.976 3.885 1.622 6.24 5.124 4.645 2.034-.927 2.533-1.785 2.287-3.927-.262-2.276-.863-2.795-3.532-3.053-2.758-.266-3.31.065-3.879 2.335m31.345-1.835c-.963.252-1.75.833-1.75 1.291s.9.597 2 .31c1.1-.288 2-.921 2-1.407 0-.485-.113-.831-.25-.767s-1.037.322-2 .573M67 174.5c0 1.375.45 2.5 1 2.5s1-1.125 1-2.5-.45-2.5-1-2.5-1 1.125-1 2.5m7.15-1.55c.22.66.726 1.166 1.125 1.125 1.196-.124.964-1.495-.325-1.925-.66-.22-1.02.14-.8.8M82 175.5c0 2.757.398 3.5 1.878 3.5 2.589 0 4.419-2.49 3.637-4.952-.42-1.325-1.509-2.048-3.082-2.048-2.114 0-2.433.459-2.433 3.5m12.412-2.132c-1.031 2.687.048 5.123 2.417 5.461 2.065.293 2.276-.023 1.99-2.992-.342-3.564-3.342-5.244-4.407-2.469m8.667 2.382c.043 2.063.336 3.075.65 2.25s1.066-1.831 1.671-2.235c.761-.508.715-.739-.15-.75-1.883-.023-1.501-1.803.5-2.326 1.317-.344 1.193-.486-.5-.573-1.967-.101-2.24.356-2.171 3.634m22.105-1c.188 1.637.923 2.75 1.816 2.75s1.628-1.113 1.816-2.75c.258-2.239-.079-2.75-1.816-2.75s-2.074.511-1.816 2.75m25.483-2.083c-.367.366-.667 1.131-.667 1.7 0 .626.466.567 1.183-.15.651-.651.951-1.416.667-1.7s-.817-.217-1.183.15M83 175.5c0 1.556.567 2.5 1.5 2.5s1.5-.944 1.5-2.5-.567-2.5-1.5-2.5-1.5.944-1.5 2.5m12.38-1.048c-.306.799-.266 1.924.09 2.5 1.165 1.885 2.53 1.101 2.53-1.452 0-2.711-1.718-3.398-2.62-1.048m-54.63 2.21c.688.278 1.813.278 2.5 0 .688-.277.125-.504-1.25-.504s-1.937.227-1.25.504m116.063.021c.721.289 1.584.253 1.916-.079s-.258-.568-1.312-.525c-1.165.048-1.402.285-.604.604m-111 1c.721.289 1.584.253 1.916-.079s-.258-.568-1.312-.525c-1.165.048-1.402.285-.604.604m105.937-.021c.688.278 1.813.278 2.5 0 .688-.277.125-.504-1.25-.504s-1.937.227-1.25.504m-101 1c.688.278 1.813.278 2.5 0 .688-.277.125-.504-1.25-.504s-1.937.227-1.25.504m95.519.031c.973.254 2.323.237 3-.037s-.119-.481-1.769-.461-2.204.244-1.231.498m-88 1c.973.254 2.323.237 3-.037s-.119-.481-1.769-.461-2.204.244-1.231.498m81.481-.031c.688.278 1.813.278 2.5 0 .688-.277.125-.504-1.25-.504s-1.937.227-1.25.504m-73 1.044c1.237.238 3.263.238 4.5 0 1.237-.239.225-.434-2.25-.434s-3.487.195-2.25.434m63.012.001c1.244.239 3.044.23 4-.02s-.062-.446-2.262-.435-2.982.216-1.738.455m-50.034 1.015c1.775.221 4.925.224 7 .008 2.074-.217.622-.397-3.228-.402-3.85-.004-5.548.173-3.772.394m36.04.003c1.797.222 4.497.218 6-.01 1.503-.229.032-.411-3.268-.405s-4.529.192-2.732.415"/></svg>