<svg xmlns="http://www.w3.org/2000/svg" width="250" height="250" version="1.1" fill="#000000"><path fill-opacity=".463" d="M 0 125.004 L 0 250.008 125.250 249.754 L 250.500 249.500 250.754 124.750 L 251.008 0 125.504 0 L 0 0 0 125.004 M 0.485 125.500 C 0.485 194.250, 0.604 222.228, 0.750 187.672 C 0.896 153.117, 0.896 96.867, 0.750 62.672 C 0.604 28.478, 0.485 56.750, 0.485 125.500 M 76.973 81.419 C 60.096 85.125, 45.742 100.495, 42.946 117.854 C 38.147 147.653, 64.634 174.242, 94.087 169.192 C 103.904 167.508, 110.727 163.880, 117.637 156.666 C 120.862 153.300, 122.226 151.660, 120.669 153.023 C 118.054 155.312, 117.744 155.371, 116.594 153.798 C 115.437 152.216, 115.197 152.247, 113.202 154.242 C 112.022 155.423, 110.709 156.043, 110.286 155.619 C 109.863 155.196, 110.282 154.422, 111.217 153.899 C 112.920 152.945, 112.631 150, 110.834 150 C 110.310 150, 110.160 150.450, 110.500 151 C 111.506 152.628, 110.358 152.140, 108.872 150.308 C 108.118 149.377, 108.012 148.923, 108.637 149.297 C 109.262 149.672, 110.299 149.344, 110.943 148.569 C 112.932 146.172, 109.967 147.228, 104.893 150.725 C 89.256 161.500, 66.687 154.877, 58.717 137.176 C 55.688 130.448, 55.733 119.242, 58.816 112.500 C 62.745 103.909, 70.483 97.487, 79.900 95.003 L 84.300 93.842 92.421 101.921 C 96.887 106.365, 100.925 110, 101.393 110 C 101.862 110, 101.627 109.241, 100.872 108.313 C 99.667 106.830, 99.719 106.708, 101.302 107.301 C 102.332 107.687, 102.855 107.575, 102.524 107.039 C 102.205 106.523, 102.869 105.605, 104 105 C 105.131 104.395, 105.792 103.472, 105.469 102.950 C 104.956 102.120, 107.038 101.532, 109.250 101.882 C 111.263 102.199, 109.170 99.637, 99.733 90.232 C 88.329 78.867, 88.424 78.904, 76.973 81.419 M 115 154.882 C 115 155.432, 115.450 156.160, 116 156.500 C 116.550 156.840, 117 156.668, 117 156.118 C 117 155.568, 116.550 154.840, 116 154.500 C 115.450 154.160, 115 154.332, 115 154.882 M 113.429 158 C 113.429 159.295, 113.767 159.633, 114.414 158.986 C 115.062 158.338, 115.062 157.662, 114.414 157.014 C 113.767 156.367, 113.429 156.705, 113.429 158" stroke="none" fill="#000000" fill-rule="evenodd"/><path fill-opacity=".233" d="M 0 125.004 L 0 250.008 125.250 249.754 L 250.500 249.500 250.754 124.750 L 251.008 0 125.504 0 L 0 0 0 125.004 M 0.485 125.500 C 0.485 194.250, 0.604 222.228, 0.750 187.672 C 0.896 153.117, 0.896 96.867, 0.750 62.672 C 0.604 28.478, 0.485 56.750, 0.485 125.500 M 72.893 82.374 C 45.556 92.025, 33.856 122.780, 48.071 147.625 C 51.401 153.444, 60.308 162.096, 65.912 164.955 C 78.005 171.124, 93.674 171.688, 105.017 166.363 C 120.796 158.955, 129.253 146.048, 132.017 125.156 C 132.624 120.566, 133.533 115.729, 134.036 114.406 C 134.539 113.083, 134.667 112, 134.320 112 C 133.974 112, 134.507 111.097, 135.506 109.994 C 136.504 108.890, 137.024 107.690, 136.661 107.327 C 136.297 106.964, 136 107.192, 136 107.833 C 136 108.475, 135.325 109, 134.500 109 C 133.675 109, 133 108.564, 133 108.031 C 133 107.499, 132.285 107.337, 131.410 107.673 C 130.373 108.071, 129.977 109.101, 130.272 110.641 C 130.728 113.030, 129.642 113.848, 128.490 111.984 C 128.144 111.425, 127.443 111.226, 126.931 111.543 C 125.787 112.250, 125.783 110.641, 126.917 105.757 C 127.425 103.568, 127.415 102.243, 126.893 102.566 C 125.561 103.390, 125.815 101.599, 127.250 100.053 C 128.253 98.972, 128.245 98.851, 127.209 99.438 C 124.520 100.960, 120.023 112.732, 118.381 122.548 C 115.619 139.056, 110.561 147.636, 100.590 152.727 C 93.345 156.427, 82.767 156.489, 75 152.877 C 63.114 147.350, 57.881 139.560, 57.188 126.364 C 56.816 119.265, 57.080 117.509, 59.220 112.852 C 60.573 109.908, 62.895 106.064, 64.380 104.308 C 67.523 100.592, 78.149 94.979, 81.910 95.047 C 83.801 95.082, 87.446 97.912, 95.423 105.540 L 106.345 115.986 108.394 113.103 C 109.520 111.517, 111.661 109.400, 113.150 108.399 C 115.644 106.723, 116.235 104.119, 113.776 105.638 C 113.152 106.024, 112.977 105.847, 113.363 105.222 C 113.739 104.614, 108.904 98.812, 102.401 92.067 L 90.767 80 85.133 80.021 C 81.838 80.033, 76.758 81.010, 72.893 82.374 M 124.755 105.500 C 124.492 106.875, 124.665 108, 125.139 108 C 125.612 108, 126 106.875, 126 105.500 C 126 104.125, 125.827 103, 125.617 103 C 125.406 103, 125.018 104.125, 124.755 105.500 M 128.079 106.583 C 128.127 107.748, 128.364 107.985, 128.683 107.188 C 128.972 106.466, 128.936 105.603, 128.604 105.271 C 128.272 104.939, 128.036 105.529, 128.079 106.583 M 106 113 C 105.099 113.582, 104.975 113.975, 105.691 113.985 C 106.346 113.993, 107.160 113.550, 107.500 113 C 108.267 111.758, 107.921 111.758, 106 113 M 131.583 113.643 C 130.665 116.037, 131.381 116.221, 132.796 113.955 C 133.468 112.880, 133.611 112, 133.115 112 C 132.620 112, 131.930 112.739, 131.583 113.643" stroke="none" fill="#000000" fill-rule="evenodd"/><path fill-opacity=".172" d="M 0 125.004 L 0 250.008 125.250 249.754 L 250.500 249.500 250.754 124.750 L 251.008 0 125.504 0 L 0 0 0 125.004 M 0.485 125.500 C 0.485 194.250, 0.604 222.228, 0.750 187.672 C 0.896 153.117, 0.896 96.867, 0.750 62.672 C 0.604 28.478, 0.485 56.750, 0.485 125.500 M 80.500 80.107 C 66.481 82.122, 52.942 92.319, 46.190 105.948 C 42.577 113.242, 42.500 113.637, 42.500 125 C 42.500 136.426, 42.558 136.722, 46.311 144.316 C 51.300 154.410, 58.094 161.187, 67.935 165.887 C 75.328 169.418, 75.774 169.500, 87.521 169.500 C 99.020 169.500, 99.824 169.361, 106.032 166.305 C 120.810 159.030, 129.374 145.810, 132.413 125.580 C 134.065 114.580, 136.399 108.777, 141.396 103.247 C 149.393 94.395, 164.690 91.808, 176.214 97.359 C 187.231 102.665, 193.444 113.082, 193.298 126 C 193.162 137.989, 185.842 149.065, 175.532 152.882 C 165.550 156.578, 166.665 156.840, 158.253 148.826 C 154.023 144.797, 151.094 142.201, 151.745 143.059 C 152.724 144.349, 152.176 145.325, 148.572 148.717 C 145.149 151.937, 143.930 152.568, 142.884 151.658 C 140.667 149.731, 153.243 163.184, 156.958 166.714 C 160.903 170.462, 164.932 170.931, 173.500 168.639 C 196.658 162.443, 211.246 140.198, 207.083 117.428 C 202.869 94.378, 182.162 78.548, 158.589 80.356 C 144.070 81.469, 130.873 90.204, 123.958 103.277 C 122.148 106.700, 120.404 109.725, 120.083 110 C 119.763 110.275, 119.399 111.175, 119.276 112 C 119.153 112.825, 118.399 117.887, 117.601 123.248 C 114.389 144.810, 104.684 155, 87.359 155 C 70.518 155, 58.284 143.465, 57.242 126.605 C 56.664 117.251, 59.364 109.794, 65.579 103.579 C 69.738 99.420, 78.553 95, 82.689 95 C 83.576 95, 90.413 100.963, 97.881 108.250 C 107.917 118.043, 111.550 121.040, 111.806 119.738 C 111.996 118.769, 112.567 118.233, 113.076 118.547 C 113.584 118.861, 114 118.143, 114 116.952 C 114 115.472, 114.459 114.962, 115.449 115.342 C 116.814 115.866, 117.941 113.982, 118.642 110 C 118.971 108.136, 89.976 78.954, 87.963 79.122 C 87.158 79.189, 83.800 79.632, 80.500 80.107" stroke="none" fill="#000000" fill-rule="evenodd"/><path fill-opacity=".563" d="M 0 125.004 L 0 250.008 125.250 249.754 L 250.500 249.500 250.754 124.750 L 251.008 0 125.504 0 L 0 0 0 125.004 M 0.485 125.500 C 0.485 194.250, 0.604 222.228, 0.750 187.672 C 0.896 153.117, 0.896 96.867, 0.750 62.672 C 0.604 28.478, 0.485 56.750, 0.485 125.500 M 76.773 80.555 C 58.892 84.889, 44.517 100.433, 42.143 118 C 38.687 143.581, 54.743 165.556, 80.216 170.108 C 106.538 174.812, 129.219 155.712, 132.860 125.777 C 134.217 114.616, 137.008 108.201, 142.908 102.683 C 154.158 92.159, 173.309 92.506, 184.229 103.430 C 195.861 115.067, 195.864 134.767, 184.236 146.396 C 179.655 150.976, 170.523 155.421, 166.972 154.798 C 166.039 154.634, 159.269 148.729, 151.927 141.675 C 140.773 130.959, 138.460 129.151, 137.860 130.675 C 137.464 131.679, 137.095 132.050, 137.038 131.500 C 136.982 130.950, 136.276 131.374, 135.468 132.441 C 134.015 134.363, 133.999 134.363, 133.898 132.441 C 133.841 131.374, 133.433 132.035, 132.991 133.911 C 132.549 135.788, 132.412 138.038, 132.688 138.911 C 133.124 140.296, 133.050 140.307, 132.110 139 C 131.173 137.697, 131.029 137.724, 131.015 139.203 C 131.007 140.139, 137.627 147.727, 145.726 156.064 L 160.452 171.222 165.602 170.617 C 190.911 167.642, 208 149.278, 208 125.054 C 208 112.068, 203.857 102.014, 194.815 93.056 C 179.507 77.890, 156.208 75.215, 138.436 86.584 C 132.377 90.460, 124.927 99.252, 122.274 105.659 L 120.551 109.817 105.331 94.409 C 88.263 77.129, 89.143 77.556, 76.773 80.555 M 75.590 97.477 C 63.788 102.329, 57.651 111.722, 57.608 125 C 57.577 134.581, 60.667 141.777, 67.335 147.646 C 78.669 157.623, 98.142 157.226, 107.537 146.827 C 113.666 140.044, 119.407 125.017, 115.881 124.989 C 115.121 124.983, 107.540 118.233, 99.033 109.989 C 90.526 101.745, 83.101 95.011, 82.533 95.024 C 81.965 95.037, 78.840 96.141, 75.590 97.477 M 135.100 135.295 C 133.835 137.402, 133.857 137.423, 135.579 135.774 C 136.570 134.824, 137.166 133.832, 136.903 133.569 C 136.640 133.306, 135.829 134.083, 135.100 135.295" stroke="none" fill="#000000" fill-rule="evenodd"/></svg>