<!-- Generated by IcoMoon.io -->
<svg version="1.1" xmlns="http://www.w3.org/2000/svg" width="32" height="32" viewBox="0 0 32 32" fill="#000000">
<title>lpt</title>
<path fill="#000000fff" d="M16 32c8.837 0 16-7.163 16-16s-7.163-16-16-16c-8.837 0-16 7.163-16 16s7.163 16 16 16z"/>
<path fill="#000000" d="M9.125 20.687v3.125h3.125v-3.125h-3.125zM9.125 14.438v3.125h3.125v-3.125h-3.125zM21.625 14.438v3.125h3.125v-3.125h-3.125zM9.125 11.313v-3.125h3.125v3.125h-3.125zM15.375 14.438v-3.125h3.125v3.125h-3.125zM15.375 17.562v3.125h3.125v-3.125h-3.125z"/>
</svg>
