<svg xmlns="http://www.w3.org/2000/svg" width="200" height="200" fill="#000000"><path fill-opacity=".18" fill-rule="evenodd" d="M87.116 39.044c-19.694 5.158-35.73 20.387-42.834 40.678-2.381 6.8-2.723 9.287-2.723 19.778s.342 12.978 2.723 19.778c6.964 19.893 22.992 35.348 42.65 41.126 8.311 2.442 26.942 2.181 35.153-.493 8.928-2.908 16.422-7.361 23.181-13.775 5.886-5.585 14.405-17.798 13.233-18.97-.357-.357-1.123.247-1.703 1.342-2.695 5.093-15.522 16.25-22.796 19.829-23.409 11.515-48.149 7.682-66.112-10.242-12.081-12.053-16.366-22.422-16.367-39.595-.001-8.877.443-12.291 2.301-17.69 6.241-18.141 21.892-32.503 40.638-37.288 8.611-2.199 22.894-1.982 30.701.465 7.453 2.336 6.839 2.236 6.839 1.119 0-1.195-11.187-5.586-17.799-6.985-7.784-1.647-18.692-1.275-27.085.923m43.279 29.034c20.716 18.934 15.935 52.343-9.194 64.248-6.079 2.879-7.583 3.172-16.201 3.156-8.166-.016-10.303-.392-15.218-2.68-7.551-3.515-14.731-10.379-18.9-18.065-3.26-6.012-3.382-6.634-3.382-17.237 0-6.05.368-12.013.817-13.25 1.508-4.149-1.056-2.357-2.86 2-2.528 6.101-3.099 20.03-1.103 26.895 2.404 8.271 8.618 17.103 15.702 22.318 21.855 16.088 53.459 8.508 65.105-15.615 9.508-19.694 4.12-41.154-13.561-54.012-6.402-4.655-7.176-3.215-1.205 2.242m-32.603 2.324c-21.651 5.828-28.128 33.57-11.295 48.386 4.417 3.889 6.503 5.058 6.503 3.647 0-.31-1.414-1.754-3.143-3.209-6.833-5.749-10.066-20.004-6.482-28.581 3.544-8.483 13.06-14.933 22.021-14.927 10.194.007 20.72 7.082 23.654 15.901 1.479 4.447 1.805 12.488.685 16.881-.708 2.775-.655 2.859.708 1.116.81-1.036 2.017-4.311 2.681-7.278 3.061-13.68-7.022-29.085-21.124-32.272-5.733-1.296-8.378-1.233-14.208.336m3.56 12.69c-3.136.909-9.992 7.601-8.903 8.69.314.315 1.883-.684 3.485-2.219 5.564-5.33 14.928-4.368 19.978 2.052 2.546 3.237 2.791 10.124.517 14.522-1.95 3.772-9.371 7.325-13.551 6.489-3.56-.712-3.85 1.092-.318 1.979 7.271 1.824 15.413-2.132 18.535-9.006 2.341-5.155 2.344-8.052.015-13.099-2.226-4.823-5.444-7.832-10.009-9.361-3.901-1.307-5.374-1.314-9.749-.047m-2.279 10.543c-3.158 4.015-2.726 8.638 1.109 11.865 3.302 2.778 7.398 2.924 10.473.372 2.457-2.04 1.391-2.789-1.968-1.386-2.615 1.093-3.81 1.135-5.671.199C97.293 101.808 98.806 93 105.023 93c1.637 0 2.977-.45 2.977-1s-1.542-1-3.427-1c-2.512 0-3.982.704-5.5 2.635m4.289 3.865c-.793 2.064.282 4.5 1.984 4.5.775 0 1.969-.675 2.654-1.5.993-1.197.993-1.803 0-3-.685-.825-1.879-1.5-2.654-1.5s-1.668.675-1.984 1.5"/><path fill-opacity=".397" fill-rule="evenodd" d="M90.072 38.553c-23.878 5.178-42.429 24.202-47.489 48.701C41.712 91.468 41 96.979 41 99.5c0 13.605 6.944 31.55 16.249 41.99 6.23 6.99 17.319 14.47 25.975 17.521 7.809 2.753 25.526 3.805 34.097 2.026 7.977-1.656 20.094-7.957 26.773-13.922 5.189-4.635 14.751-17.603 13.732-18.623-.247-.246-2.154 1.788-4.238 4.521-4.552 5.969-14.095 13.383-21.454 16.669-30.841 13.769-65.895-.342-77.764-31.305-3.521-9.185-4.356-23.908-1.891-33.377C57.682 65.006 72.976 49.495 93.5 43.396c8.008-2.379 22.956-2.394 30.857-.03 7.357 2.201 8.257 1.575 1.756-1.222-11.655-5.014-23.869-6.231-36.041-3.591M131 68.153c9.974 9.894 14.427 22.979 12.106 35.576-2.42 13.133-10.336 23.576-22.106 29.161-4.789 2.273-6.792 2.61-15.5 2.61-8.922 0-10.676-.312-16.273-2.897-8.192-3.783-17.116-13.132-20.317-21.286-1.795-4.571-2.276-7.745-2.246-14.817.021-4.95.557-10.35 1.193-12 1.075-2.794 1.049-2.864-.382-1.017-6.46 8.337-5.601 28.486 1.705 40.017 21.491 33.918 72.773 23.319 79.891-16.511 2.855-15.972-5.606-34.438-19.193-41.89l-4.378-2.401zm-37 3.924c-9.626 4.348-15.931 13.192-16.759 23.506-.854 10.637 4.267 20.897 12.897 25.844l3.362 1.927-4.326-4.737c-5.707-6.25-7.502-10.692-7.52-18.617-.028-12.342 8.791-22.608 21.115-24.579 8.935-1.429 20.901 5.091 25.351 13.814 2.513 4.925 3.514 13.507 2.062 17.672-.593 1.701-.686 3.093-.208 3.093 1.508 0 3.423-7.275 3.423-13 .001-10.312-6.302-20.069-15.897-24.613-6.597-3.124-16.969-3.261-23.5-.31m5.5 12.09c-2.688 1.487-6.5 4.992-6.5 5.977 0 .438 1.688-.357 3.75-1.766 3.153-2.153 4.59-2.493 9.022-2.136 17.957 1.45 16.081 26.689-1.99 26.773-2.487.012-2.919.25-1.782.985 4.354 2.814 14.554-.925 18.078-6.626 4.429-7.167 2.126-17.298-5.03-22.121-3.697-2.491-11.964-3.069-15.548-1.086m-.045 9.288c-4.208 4.207-2.511 11.433 3.194 13.602 2.637 1.002 9.351-1.101 9.351-2.929 0-.536-1.391-.281-3.091.567-3.807 1.899-7.349.629-9.127-3.273-1.619-3.554.574-7.341 5.218-9.011l3.5-1.259-3.295-.076c-2.236-.052-4.085.713-5.75 2.379m4.697 3.431c-1.977 1.252-.985 4.614 1.362 4.614 1.433 0 1.986-.672 1.986-2.417 0-2.667-1.28-3.506-3.348-2.197"/><path fill-opacity=".239" fill-rule="evenodd" d="M94.381 37.962c-44.754 6.887-67.328 57.382-42.799 95.735 8.238 12.881 22.631 22.968 38.406 26.917 9.662 2.418 25.28 1.513 34.512-2 9.358-3.562 19.642-10.696 25.131-17.434 7.869-9.66 7.931-11.643.12-3.867C137.725 149.285 124.174 155 107.816 155c-16.24 0-29.041-5.248-40.449-16.582C56.165 127.288 50.9 114.525 50.9 98.5c0-10.218 1.329-15.922 5.942-25.5 7.243-15.04 22.867-26.916 40.293-30.629 8.368-1.782 20.435-1.361 28.113.983 2.612.797 4.506 1.057 4.21.578-1.02-1.65-15.973-5.71-22.958-6.233-3.85-.289-9.303-.17-12.119.263m37.525 30.849c2.714 2.714 6.217 7.755 8.035 11.565 13.48 28.245-9.43 59.751-40.394 55.549-12.631-1.714-24.116-10.505-29.916-22.899-2.628-5.616-3.052-7.68-3.089-15.018-.023-4.68.315-10.083.751-12.008 1.245-5.488-1.235-.894-2.908 5.388-6.189 23.243 9.85 47.256 34.507 51.662 13.434 2.401 26.742-1.744 36.991-11.52 6.882-6.564 10.576-13.42 12.687-23.543 2.51-12.037-.482-23.774-8.704-34.156C137.208 70.474 129.141 64 127.617 64c-.287 0 1.643 2.165 4.289 4.811m-36.879 2.926c-6.873 2.425-14.489 10.604-16.583 17.807-3.156 10.856.4 22.996 8.649 29.53 5.14 4.071 6.01 3.654 1.72-.824-5.795-6.049-7.273-9.758-7.273-18.25 0-8.491 1.369-11.873 7.032-17.373 4.705-4.57 9.749-6.883 16.201-7.431 4.455-.378 6.288.052 11.811 2.771 10.413 5.126 15.17 13.756 14.202 25.766-.436 5.412-.385 5.582.829 2.767.712-1.65 1.315-5.949 1.34-9.554.132-19.155-19.018-31.883-37.928-25.209m4.024 13.096c-1.879 1.008-4.122 2.918-4.984 4.244L92.5 91.488l2.866-2.229c6.464-5.028 14.595-4.653 19.794.913 8.163 8.738 1.556 22.685-10.844 22.891-3.536.059-3.634.136-1.343 1.051 5.912 2.359 15.226-2.353 18.03-9.121 1.709-4.125.787-12.074-1.824-15.742-4.254-5.974-13.459-7.995-20.128-4.418m1.862 7.449C94.496 97.209 97.309 107 105.141 107c3.225 0 5.859-.908 5.859-2.02 0-.444-1.34-.3-2.979.318-2.536.958-3.39.819-5.75-.936-3.114-2.315-4.112-6.643-2.094-9.076.727-.876 2.672-2.181 4.323-2.9 2.897-1.263 2.914-1.308.5-1.315-1.375-.004-3.214.541-4.087 1.211m2.56 5.762c-.918 1.485 1.398 3.943 3.1 3.29 2.192-.842 1.778-4.334-.514-4.334-1.068 0-2.231.47-2.586 1.044"/><path fill-opacity=".979" fill-rule="evenodd" d="M86.5 39.87c-9.993 2.876-18.395 7.962-26.591 16.096C47.748 68.036 42 82.008 42 99.5c0 17.729 5.695 31.375 18.406 44.106 12.303 12.322 26.605 18.346 43.634 18.379 20.472.04 41.463-11.882 51.358-29.169 1.341-2.343.231-1.498-3.782 2.877-12.007 13.09-26.632 19.559-44.116 19.511-7.27-.02-11.774-.59-16.5-2.089-20.188-6.404-35.145-23.082-39.594-44.15-3.828-18.125 2.919-38.548 17.125-51.843 15.54-14.543 36.463-19.545 57.469-13.74l2.5.691-2.526-1.451c-8.054-4.627-28.106-6.025-39.474-2.752m46.335 29.545c2.385 2.599 5.76 7.732 7.5 11.405 2.898 6.117 3.165 7.525 3.165 16.701 0 9.296-.236 10.501-3.268 16.659-4.178 8.487-12.873 16.754-20.947 19.916-4.371 1.712-7.866 2.272-14.296 2.291-7.453.022-9.333-.359-15.123-3.069-11.302-5.289-18.988-14.001-22.278-25.25-1.793-6.131-2.074-15.887-.605-21.007 1.273-4.439-.402-2.659-1.825 1.939-7.575 24.477 8.678 49.802 34.592 53.9 17.17 2.716 36.091-6.6 43.996-21.663 4.117-7.844 5.587-14.916 5.046-24.269-.561-9.688-4.403-18.153-11.489-25.315-6.376-6.443-9.983-8.25-4.468-2.238m-35.953 1.904c-9.569 3.582-15.684 9.908-18.392 19.026-1.886 6.352-1.872 9.007.085 15.597 1.063 3.579 3.06 6.892 6.137 10.181 2.509 2.683 4.898 4.877 5.31 4.877s-.756-1.641-2.593-3.648c-6.753-7.372-8.357-19.09-3.851-28.132 4.781-9.595 13.67-14.795 23.89-13.975 14.158 1.137 23.377 11.188 23.622 25.755.136 8.062 1.698 4.459 1.734-4 .063-14.594-10.765-25.816-25.724-26.662-4.01-.226-8.02.159-10.218.981m3.618 13.029c-1.65.758-3.9 2.43-5 3.715l-2 2.337 2.851-2.174c8.257-6.294 20.328-1.787 22.219 8.297.951 5.07-.225 8.368-4.517 12.66-3.221 3.221-4.5 3.827-8.185 3.88-3.454.051-3.923.243-2.241.923 2.714 1.096 8.957-.296 12.296-2.741 11.035-8.081 5.683-26.594-8.059-27.87-2.465-.229-5.669.194-7.364.973m.247 8.636c-4.42 3.477-4.344 9.271.166 12.734 2.377 1.825 7.635 1.556 9.166-.468 1.127-1.489 1.115-1.563-.077-.5-3.68 3.281-11.002-.159-11.002-5.168 0-3.92 1.108-5.721 4.4-7.154 1.705-.742 2.373-1.367 1.485-1.389-.888-.021-2.75.854-4.138 1.945m2.733 5.048c-.388.628-.235 1.613.34 2.188 1.344 1.344 4.477.172 3.93-1.471-.556-1.671-3.386-2.147-4.27-.717"/></svg>