<svg xmlns="http://www.w3.org/2000/svg" width="250" height="250" version="1.1" fill="#000000"><path fill-opacity=".102" d="M 109.500 61.012 C 77.285 66.881, 55.035 93.022, 55.035 125 C 55.035 156.346, 77.684 184.174, 107.079 188.943 C 115.266 190.271, 205.648 190.378, 206.463 189.060 C 206.782 188.543, 206.136 183.960, 205.026 178.875 C 202.043 165.207, 194.498 153.682, 184.142 146.972 C 181.959 145.558, 181.865 145.149, 182.885 141.472 C 184.744 134.767, 185.298 122.879, 184.107 115.230 C 180.329 90.959, 163.055 70.843, 139.639 63.446 C 130.807 60.656, 117.399 59.573, 109.500 61.012" stroke="none" fill="#000000" fill-rule="evenodd"/><path fill-opacity=".319" d="M 106.500 62.642 C 87.658 66.623, 72.640 77.578, 63.159 94.255 C 52.730 112.601, 52.869 137.416, 63.508 156.500 C 71.729 171.248, 83.320 180.964, 99.500 186.672 L 107.500 189.494 155.889 189.808 C 186.173 190.005, 204.639 189.761, 205.245 189.155 C 207.039 187.361, 204.014 174.259, 199.913 166.066 C 196.240 158.728, 189.577 151.124, 183.199 146.991 C 180.909 145.508, 180.905 145.467, 182.434 139 C 187.364 118.147, 180.781 95.771, 165.044 79.885 C 149.733 64.429, 128.140 58.070, 106.500 62.642" stroke="none" fill="#000000" fill-rule="evenodd"/><path fill-opacity=".307" d="M 81.338 73.827 C 64.802 86.898, 56 104.578, 56 124.719 C 56 155.195, 75.808 180.810, 104.525 187.470 C 109.951 188.728, 119.467 189, 158.062 189 L 205 189 205 185.175 C 205 180.518, 201.106 168.744, 197.571 162.711 C 191.349 152.095, 179.656 143.808, 167.096 141.114 C 164.239 140.501, 154.110 140, 144.587 140 C 119.756 140, 110.312 137.682, 100.989 129.300 C 90.863 120.196, 86.840 107.207, 86.880 83.750 C 86.893 76.188, 86.741 70, 86.542 70 C 86.342 70, 84.001 71.722, 81.338 73.827" stroke="none" fill="#000000" fill-rule="evenodd"/><path fill-opacity=".389" d="M 79.466 76.029 C 68.637 85.402, 60.970 97.524, 57.980 110 C 56.300 117.012, 56.271 131.750, 57.923 139.500 C 59.772 148.177, 66.467 161.256, 72.361 167.705 C 85.662 182.258, 99.647 188.260, 120.500 188.366 C 138.180 188.456, 151.324 182.760, 165.074 169.049 C 173.058 161.089, 180 151.200, 180 147.789 C 180 146.020, 177.131 144.633, 168.780 142.364 C 163.972 141.058, 157.696 140.611, 142 140.455 C 119.899 140.235, 114.647 139.370, 106.736 134.642 C 98.089 129.474, 92.971 122.816, 88.888 111.420 C 87.161 106.599, 86.672 102.391, 86.256 88.750 C 85.974 79.537, 85.379 72, 84.933 72 C 84.487 72, 82.027 73.813, 79.466 76.029" stroke="none" fill="#000000" fill-rule="evenodd"/></svg>