<svg xmlns="http://www.w3.org/2000/svg" width="200" height="200" fill="#000000"><path fill-opacity=".298" fill-rule="evenodd" d="M81.736 9.988C25.595 21.824-5.884 78.842 13.889 132.88c10.345 28.272 36.049 50.549 65.959 57.163 11.623 2.571 28.681 2.571 40.304 0 35.345-7.816 63.182-36.304 70.364-72.007 1.291-6.415 1.585-11.622 1.217-21.5-.505-13.527-1.795-19.842-6.419-31.423C169.12 24.559 124.717.927 81.736 9.988m4.095 5.035C46.63 21.638 16.928 54.832 14.382 94.872c-2.237 35.161 18.614 69.295 51.104 83.664 20.859 9.225 48.169 9.225 69.028 0 14.246-6.3 28.634-18.506 36.917-31.318 10.206-15.788 13.959-28.69 13.879-47.718-.066-15.674-2.137-24.59-8.83-38-12.045-24.137-34.268-40.921-60.939-46.023-8.155-1.561-21.907-1.771-29.71-.454m4.094 5.903c-7.343 1.018-19.133 4.641-25.4 7.806-20.291 10.246-34.382 27.361-41.131 49.961-2.23 7.468-2.63 10.708-2.63 21.307s.4 13.839 2.63 21.307c7.076 23.695 22.027 41.151 43.766 51.099 11.343 5.19 19.651 6.948 32.84 6.948 13.137 0 21.497-1.758 32.675-6.872 21.915-10.026 36.781-27.337 43.949-51.175 2.253-7.493 2.648-10.671 2.648-21.307s-.395-13.814-2.648-21.307c-6.834-22.727-20.857-39.714-41.317-50.046-12.274-6.199-32.069-9.566-45.382-7.721"/><path fill-opacity=".374" fill-rule="evenodd" d="M84 22.481C68.896 25.85 56.148 32.692 45.13 43.343c-16.737 16.179-25.087 37.43-23.816 60.611.68 12.392 2.475 19.604 7.603 30.546 9.379 20.013 28.962 36.202 51.083 42.229 9.048 2.465 30.952 2.465 40 0 27.299-7.438 49.291-29.43 56.729-56.729 2.453-9.002 2.464-30.929.02-40-4.096-15.204-13.678-30.066-26.462-41.044-6.554-5.629-20.848-13.053-29.787-15.472-8.448-2.286-28.301-2.832-36.5-1.003"/><path fill-opacity=".188" fill-rule="evenodd" d="M95.405 29.779c-2.252 3.147-4.906 7.133-5.898 8.858-1.764 3.067-1.757 3.204.344 6.154C91.229 46.726 92 49.315 92 52.004c0 3.439-.614 4.81-3.4 7.596-3.885 3.885-8.012 4.451-12.617 1.731-3.398-2.008-4.831-4.578-5.329-9.557-.417-4.163-2.865-6.786-9.154-9.808-3.83-1.841-9.5-2.645-9.5-1.348 0 .34 1.806 4.629 4.013 9.531C59.764 58.478 65 74.48 65 77.612 65 78.77 70.806 79 99.981 79h34.981l.606-2.75c.963-4.365 1.269-4.914 1.353-2.434.158 4.641-1.591 6.174-7.206 6.316-4.702.118-4.871.195-1.715.782 3.373.628 3.301.677-2 1.36-3.025.39-10.331.713-16.235.717-8.301.007-12.608.548-19 2.387-4.546 1.309-12.617 3.155-17.937 4.104l-9.671 1.726-1.955 4.646c-5.799 13.783-9.325 27.89-10.159 40.646l-.718 11-.163-9.25L50 129h-5c-2.75 0-5.002-.338-5.004-.75-.003-.412-1.644-.835-3.646-.939-2.003-.104-4.94-.727-6.528-1.385-3.901-1.616-4.405-.741-2.478 4.305 8.139 21.31 29.029 39.602 52.512 45.982 11.089 3.012 29.746 3 40.443-.027 27.577-7.803 48.084-28.31 55.887-55.887 3.027-10.697 3.039-29.354.027-40.443-2.226-8.192-6.592-17.59-11.548-24.856-3.548-5.2-12.559-15-13.794-15-.461 0-2.175 2.587-3.807 5.75s-2.981 5.3-2.998 4.75c-.016-.55 1.283-3.381 2.887-6.291l2.917-5.291-4.185-3.048c-2.302-1.677-5.381-3.674-6.843-4.438-2.352-1.228-2.632-1.205-2.426.2.129.873-.058 3.507-.414 5.853l-.647 4.265 3.29-1.375c1.81-.756 4.543-1.323 6.073-1.26 2.499.103 2.427.186-.718.815-4.054.81-7.193 2.346-11.75 5.746-2.732 2.039-3.25 3.071-3.25 6.475 0 3.271-.653 4.702-3.4 7.449-4.73 4.73-9.47 4.73-14.2 0-4.083-4.083-4.555-9.194-1.336-14.473 1.131-1.855 1.784-4.081 1.451-4.948-.779-2.031-10.857-16.15-11.515-16.134-.275.008-2.343 2.588-4.595 5.734m45.229 28.971c-1.398 3.712-2.801 8.1-3.119 9.75-.317 1.65.734-.6 2.336-5 1.603-4.4 3.24-8.788 3.638-9.75.399-.962.491-1.75.205-1.75-.285 0-1.663 3.038-3.06 6.75m-4.809 26.924c.426 2.093.678 2.345.969.97.217-1.021-.043-2.293-.576-2.826-.626-.626-.766.031-.393 1.856m2.254 8.909c.048 1.165.285 1.402.604.605.289-.722.253-1.585-.079-1.917s-.568.258-.525 1.312m1 4c.048 1.165.285 1.402.604.605.289-.722.253-1.585-.079-1.917s-.568.258-.525 1.312M126 104c0 1.1.173 2 .383 2s.619-.9.907-2c.287-1.1.115-2-.384-2-.498 0-.906.9-.906 2m-14-.087-5.5.587 4.27 1.75c5.044 2.067 6.734 2.235 3.289.327-2.326-1.288-2.139-1.398 4-2.337 6.959-1.064 2.903-1.283-6.059-.327m24 2.798c0 .574.787 1.662 1.75 2.417 1.619 1.269 1.64 1.222.283-.628-.807-1.1-1.594-2.187-1.75-2.417s-.283.054-.283.628m-16.5 2.747c5.477 2.364 7.5 2.753 7.5 1.443 0-.679-.266-.969-.59-.644-.325.325-2.407-.05-4.626-.833-4.956-1.749-6.366-1.728-2.284.034M65.5 140c-1.65 1.093-2.647 1.99-2.215 1.993s1.86-.697 3.174-1.558c2.17-1.422 2.67-1.419 5.465.026 1.692.875 3.076 1.365 3.076 1.09 0-.445-5.45-3.561-6.2-3.544-.165.003-1.65.9-3.3 1.993m-8.804 4.978c-2.583 1.638-4.696 3.194-4.696 3.459 0 .264 2.25-.918 5-2.628 4.41-2.741 5.726-3.809 4.696-3.809-.168 0-2.418 1.34-5 2.978m25.304 1.4c0 .207.787.995 1.75 1.75 1.586 1.243 1.621 1.208.378-.378-1.307-1.666-2.128-2.195-2.128-1.372"/><path fill-opacity=".824" fill-rule="evenodd" d="m93.416 33.496-5.772 8.497 2.26 2.405c5.119 5.448 2.916 14.813-4.292 18.25-6.75 3.219-14.423-1.793-15.351-10.026-.468-4.153-1.069-5.195-4.381-7.594-3.369-2.44-12.54-5.701-13.457-4.784-.184.184 1.243 3.636 3.171 7.671 4.099 8.581 8.035 19.911 8.989 25.877L65.256 78l33.372.15c18.355.083 33.866.195 34.471.25s2.096-3.725 3.314-8.4c2.104-8.069 8.751-25.038 10.88-27.774 2.858-3.672-5.678-2.156-12.109 2.149-4.234 2.835-4.732 3.588-5.374 8.125-1.196 8.462-8.659 13.373-15.422 10.148-7.208-3.437-9.411-12.802-4.292-18.25l2.26-2.405-5.772-8.497C103.41 28.823 100.447 25 100 25s-3.41 3.823-6.584 8.496m2.246 51.041c-3.097 1.145-17.332 4.444-30.323 7.027-1.62.322-2.789 2.123-4.663 7.183-6.203 16.745-9.623 31.642-9.654 42.051L51 148.096l4.25-2.911C60.791 141.389 67.511 138 69.495 138c1.959 0 3.697 1.11 20.715 13.233 7.54 5.372 14.065 9.765 14.5 9.764.434-.002 2.156-3.49 3.826-7.75 3.481-8.882 3.708-9.046 19.714-14.257 5.562-1.81 9.75-3.72 9.75-4.446 0-.7 2.025-2.046 4.5-2.991s4.5-2.075 4.5-2.511c0-1.794-5.382-12.778-8.738-17.835l-3.6-5.424 1.868-3.468c1.828-3.395 1.827-3.633-.081-11.142L134.5 83.5l-17.5-.191c-13.038-.143-18.479.17-21.338 1.228M121 102.15c-3.575.492-8.467 1.146-10.871 1.452-2.497.318-3.995.932-3.495 1.432.667.667 19.616 7.966 20.682 7.966.12 0 .217-2.7.217-6s-.007-5.943-.016-5.873c-.01.071-2.942.531-6.517 1.023m8.246 47.938c-6.441 3.974-8.246 5.588-8.246 7.375 0 1.258-.271 3.644-.603 5.303l-.603 3.015 7.16 1.28c7.06 1.262 7.194 1.245 9.613-1.174 2.255-2.255 2.379-2.852 1.533-7.379-.677-3.628-.586-5.404.348-6.737 1.222-1.745.986-6.771-.319-6.771-.35 0-4.348 2.29-8.883 5.088"/></svg>