<!-- Generated by IcoMoon.io -->
<svg version="1.1" xmlns="http://www.w3.org/2000/svg" width="32" height="32" viewBox="0 0 32 32" fill="#000000">
<title>lsk</title>
<path d="M13.023 31.914l4.174-4.69c0.070-0.070 0.023-0.188-0.094-0.188h-4.596c-0.023 0-0.070-0.023-0.094-0.047l-3.893-4.362c-0.023-0.047-0.047-0.094-0.023-0.141l6.519-11.185c0.023-0.047 0.023-0.094 0-0.117l-2.697-4.643c-0.047-0.070-0.164-0.070-0.211 0l-9.638 16.555c-0.023 0.047-0.023 0.094 0 0.141l7.738 8.7c0.023 0.023 0.047 0.047 0.094 0.047h2.626c0.023-0.023 0.070-0.047 0.094-0.070z"/>
<path d="M15.883 0.070l-2.72 4.643c-0.023 0.047-0.023 0.094 0 0.117l10.271 17.634c0.023 0.047 0.023 0.094-0.023 0.141l-3.939 4.408-4.197 4.737c-0.070 0.070-0.023 0.188 0.094 0.188h6.284c0.023 0 0.070-0.023 0.094-0.047l7.738-8.7c0.023-0.047 0.047-0.094 0.023-0.141l-13.436-22.98c-0.023-0.094-0.141-0.094-0.188 0z"/>
</svg>
