<svg xmlns="http://www.w3.org/2000/svg" width="200" height="200" fill="#000000"><path fill-opacity=".165" fill-rule="evenodd" d="M72 2c0 1.778-.667 2-6 2s-6 .222-6 2c0 1.667-.667 2-4 2s-4 .333-4 2-.667 2-4 2-4 .333-4 2q0 2-2 2t-2 2-2 2-2 2c0 1.667-.667 2-4 2s-4 .333-4 2q0 2-2 2c-1.667 0-2 .667-2 4s-.333 4-2 4q-2 0-2 2t-2 2-2 2-2 2c-1.667 0-2 .667-2 4s-.333 4-2 4-2 .667-2 4-.333 4-2 4c-1.778 0-2 .667-2 6s-.222 6-2 6c-1.952 0-2 .667-2 28s.048 28 2 28c1.778 0 2 .667 2 6s.222 6 2 6c1.667 0 2 .667 2 4s.333 4 2 4 2 .667 2 4 .333 4 2 4q2 0 2 2t2 2 2 2 2 2c1.667 0 2 .667 2 4s.333 4 2 4q2 0 2 2c0 1.667.667 2 4 2s4 .333 4 2q0 2 2 2t2 2 2 2 2 2c0 1.667.667 2 4 2s4 .333 4 2 .667 2 4 2 4 .333 4 2c0 1.778.667 2 6 2s6 .222 6 2c0 1.952.667 2 28 2s28-.048 28-2c0-1.778.667-2 6-2s6-.222 6-2c0-1.667.667-2 4-2s4-.333 4-2 .667-2 4-2 4-.333 4-2q0-2 2-2t2-2 2-2 2-2c0-1.667.667-2 4-2s4-.333 4-2q0-2 2-2c1.667 0 2-.667 2-4s.333-4 2-4q2 0 2-2t2-2 2-2 2-2c1.667 0 2-.667 2-4s.333-4 2-4 2-.667 2-4 .333-4 2-4c1.775 0 2-.667 2-5.93 0-5.389.206-5.96 2.25-6.25l2.25-.32.265-28.114.266-28.115-2.516.481c-2.465.472-2.515.36-2.515-5.635 0-5.45-.218-6.117-2-6.117-1.667 0-2-.667-2-4s-.333-4-2-4-2-.667-2-4-.333-4-2-4q-2 0-2-2t-2-2-2-2-2-2c-1.667 0-2-.667-2-4s-.333-4-2-4q-2 0-2-2c0-1.667-.667-2-4-2s-4-.333-4-2q0-2-2-2t-2-2-2-2-2-2c0-1.667-.667-2-4-2s-4-.333-4-2-.667-2-4-2-4-.333-4-2c0-1.778-.667-2-6-2s-6-.222-6-2c0-1.952-.667-2-28-2S72 .048 72 2m20 68q0 2 2 2t2-2-2-2-2 2m12 0q0 2 2 2t2-2-2-2-2 2M.441 100c0 15.675.138 22.087.307 14.25.169-7.838.169-20.663 0-28.5C.579 77.912.441 84.325.441 100M92 90c0 5.333.222 6 2 6q2 0 2-2t2-2c1.667 0 2-.667 2-4v-4h-8zm12 4q0 2 2 2t2-2-2-2-2 2m-12 10c0 3.333.333 4 2 4s2-.667 2-4-.333-4-2-4-2 .667-2 4m12 16c0 11.333-.111 12-2 12-1.667 0-2 .667-2 4s-.333 4-2 4q-2 0-2 2c0 1.667.667 2 4 2s4-.333 4-2q0-2 2-2c1.917 0 2-.667 2-16s-.083-16-2-16c-1.889 0-2 .667-2 12m-12 2c0 9.333.133 10 2 10s2-.667 2-10-.133-10-2-10-2 .667-2 10"/><path fill-opacity=".291" fill-rule="evenodd" d="M76 2c0 1.778-.667 2-6 2s-6 .222-6 2c0 1.667-.667 2-4 2s-4 .333-4 2-.667 2-4 2-4 .333-4 2-.667 2-4 2-4 .333-4 2q0 2-2 2t-2 2-2 2-2 2-2 2-2 2-2 2-2 2-2 2-2 2-2 2c-1.667 0-2 .667-2 4s-.333 4-2 4-2 .667-2 4-.333 4-2 4-2 .667-2 4-.333 4-2 4c-1.778 0-2 .667-2 6s-.222 6-2 6c-1.944 0-2 .667-2 24s.056 24 2 24c1.778 0 2 .667 2 6s.222 6 2 6c1.667 0 2 .667 2 4s.333 4 2 4 2 .667 2 4 .333 4 2 4 2 .667 2 4 .333 4 2 4q2 0 2 2t2 2 2 2 2 2 2 2 2 2 2 2 2 2 2 2 2 2 2 2c0 1.667.667 2 4 2s4 .333 4 2 .667 2 4 2 4 .333 4 2 .667 2 4 2 4 .333 4 2c0 1.778.667 2 6 2s6 .222 6 2c0 1.944.667 2 24 2s24-.056 24-2c0-1.778.667-2 6-2s6-.222 6-2c0-1.667.667-2 4-2s4-.333 4-2 .667-2 4-2 4-.333 4-2 .667-2 4-2 4-.333 4-2q0-2 2-2t2-2 2-2 2-2 2-2 2-2 2-2 2-2 2-2 2-2 2-2c1.667 0 2-.667 2-4s.333-4 2-4 2-.667 2-4 .333-4 2-4 2-.667 2-4 .333-4 2-4c1.775 0 2-.667 2-5.93 0-5.389.206-5.96 2.25-6.25l2.25-.32.267-24.115.268-24.114-2.518.481c-2.468.472-2.517.361-2.517-5.635 0-5.45-.218-6.117-2-6.117-1.667 0-2-.667-2-4s-.333-4-2-4-2-.667-2-4-.333-4-2-4-2-.667-2-4-.333-4-2-4q-2 0-2-2t-2-2-2-2-2-2-2-2-2-2-2-2-2-2-2-2-2-2-2-2c0-1.667-.667-2-4-2s-4-.333-4-2-.667-2-4-2-4-.333-4-2-.667-2-4-2-4-.333-4-2c0-1.778-.667-2-6-2s-6-.222-6-2c0-1.944-.667-2-24-2S76 .056 76 2m8 4c0 1.917.667 2 16 2s16-.083 16-2-.667-2-16-2-16 .083-16 2m-16 4c0 1.667.667 2 4 2s4-.333 4-2-.667-2-4-2-4 .333-4 2m56 0c0 1.667.667 2 4 2s4-.333 4-2-.667-2-4-2-4 .333-4 2m-64 4q0 2 2 2t2-2-2-2-2 2m76 0q0 2 2 2t2-2-2-2-2 2m-84 4q0 2 2 2t2-2-2-2-2 2m92 0q0 2 2 2t2-2-2-2-2 2M44 22q0 2-2 2t-2 2-2 2-2 2-2 2-2 2-2 2-2 2-2 2-2 2-2 2-2 2 2 2 2-2 2-2 2-2 2-2 2-2 2-2 2-2 2-2 2-2 2-2 2-2 2-2 2-2-2-2-2 2m108 0q0 2 2 2t2 2 2 2 2 2 2 2 2 2 2 2 2 2 2 2 2 2 2 2 2 2 2 2 2-2-2-2-2-2-2-2-2-2-2-2-2-2-2-2-2-2-2-2-2-2-2-2-2-2-2-2-2 2M80 46c0 1.667-.667 2-4 2s-4 .333-4 2-.667 2-4 2-4 .333-4 2q0 2-2 2t-2 2-2 2c-1.939 0-2 .667-2 22s.061 22 2 22c1.667 0 2 .667 2 4s.333 4 2 4 2 .667 2 4 .333 4 2 4 2 .667 2 4 .333 4 2 4q2 0 2 2t2 2c1.667 0 2 .667 2 4s.333 4 2 4q2 0 2 2t2 2 2 2c0 1.667.667 2 4 2s4 .333 4 2q0 2 2 2t2 2c0 1.667.667 2 4 2s4-.333 4-2q0-2 2-2t2-2c0-1.667.667-2 4-2s4-.333 4-2q0-2 2-2t2-2 2-2c1.667 0 2-.667 2-4s.333-4 2-4q2 0 2-2t2-2c1.667 0 2-.667 2-4s.333-4 2-4 2-.667 2-4 .333-4 2-4 2-.667 2-4 .333-4 2-4c1.939 0 2-.667 2-22s-.061-22-2-22q-2 0-2-2t-2-2-2-2c0-1.667-.667-2-4-2s-4-.333-4-2-.667-2-4-2-4-.333-4-2c0-1.933-.667-2-20-2s-20 .067-20 2m-64 8q0 2 2 2t2-2-2-2-2 2m76 0c0 1.778-.667 2-6 2s-6 .222-6 2c0 1.667-.667 2-4 2s-4 .333-4 2q0 2-2 2t-2 2-2 2c-1.778 0-2 .667-2 6s.222 6 2 6q2 0 2 2c0 1.667.667 2 4 2s4 .333 4 2q0 2-2 2t-2 2-2 2-2-2-2-2-2 2 2 2c1.778 0 2 .667 2 6s.222 6 2 6q2 0 2-2t2-2c1.667 0 2 .667 2 4s-.333 4-2 4-2 .667-2 4v4h4c3.333 0 4 .333 4 2q0 2-2 2t-2 2 2 2 2 2 2 2 2 2 2 2 2-2-2-2-2-2 2-2c1.778 0 2-.667 2-6s-.222-6-2-6c-1.667 0-2-.667-2-4s.333-4 2-4c1.778 0 2-.667 2-6s-.222-6-2-6c-1.667 0-2-.667-2-4v-4h32v4c0 3.333-.333 4-2 4-1.778 0-2 .667-2 6s.222 6 2 6c1.667 0 2 .667 2 4s-.333 4-2 4c-1.778 0-2 .667-2 6s.222 6 2 6q2 0 2 2t-2 2-2 2 2 2 2-2 2-2 2-2 2-2 2-2-2-2-2-2c0-1.667.667-2 4-2h4v-4c0-3.333-.333-4-2-4s-2-.667-2-4 .333-4 2-4q2 0 2 2t2 2c1.778 0 2-.667 2-6s.222-6 2-6q2 0 2-2t-2-2-2 2-2 2-2-2-2-2-2-2c0-1.667.667-2 4-2s4-.333 4-2q0-2 2-2c1.778 0 2-.667 2-6s-.222-6-2-6q-2 0-2-2t-2-2-2-2c0-1.667-.667-2-4-2s-4-.333-4-2c0-1.778-.667-2-6-2s-6-.222-6-2c0-1.833-.667-2-8-2s-8 .167-8 2m88 0q0 2 2 2t2-2-2-2-2 2M12 62q0 2 2 2t2-2-2-2-2 2m80 2c0 3.333-.333 4-2 4q-2 0-2 2t2 2 2 2 2 2 2 2c0 1.667.667 2 4 2s4-.333 4-2q0-2 2-2t2-2 2-2 2-2-2-2c-1.667 0-2-.667-2-4v-4H92zm92-2q0 2 2 2t2-2-2-2-2 2M8 72c0 3.333.333 4 2 4s2-.667 2-4-.333-4-2-4-2 .667-2 4m180 0c0 3.333.333 4 2 4s2-.667 2-4-.333-4-2-4-2 .667-2 4M.432 100c0 13.475.142 18.987.315 12.25s.173-17.763 0-24.5S.432 86.525.432 100M4 100c0 15.333.083 16 2 16s2-.667 2-16-.083-16-2-16-2 .667-2 16m188 0c0 15.333.083 16 2 16s2-.667 2-16-.083-16-2-16-2 .667-2 16M80 94q0 2-2 2t-2 2 2 2 2-2 2-2 2-2-2-2-2 2m36 0q0 2 2 2t2 2 2 2 2-2-2-2-2-2-2-2-2 2m-20 4q0 2 2 2t2-2-2-2-2 2m-16 16q0 2 2 2t2-2-2-2-2 2m36 0q0 2 2 2t2-2-2-2-2 2M8 128c0 3.333.333 4 2 4s2-.667 2-4-.333-4-2-4-2 .667-2 4m180 0c0 3.333.333 4 2 4s2-.667 2-4-.333-4-2-4-2 .667-2 4M12 138q0 2 2 2t2-2-2-2-2 2m172 0q0 2 2 2t2-2-2-2-2 2m-168 8q0 2 2 2t2-2-2-2-2 2m164 0q0 2 2 2t2-2-2-2-2 2m-160 8q0 2 2 2t2 2 2 2 2 2 2 2 2 2 2 2 2 2 2 2 2 2 2 2 2 2 2 2 2-2-2-2-2-2-2-2-2-2-2-2-2-2-2-2-2-2-2-2-2-2-2-2-2-2-2-2-2 2m156 0q0 2-2 2t-2 2-2 2-2 2-2 2-2 2-2 2-2 2-2 2-2 2-2 2-2 2 2 2 2-2 2-2 2-2 2-2 2-2 2-2 2-2 2-2 2-2 2-2 2-2 2-2 2-2-2-2-2 2M52 182q0 2 2 2t2-2-2-2-2 2m92 0q0 2 2 2t2-2-2-2-2 2m-84 4q0 2 2 2t2-2-2-2-2 2m76 0q0 2 2 2t2-2-2-2-2 2m-68 4c0 1.667.667 2 4 2s4-.333 4-2-.667-2-4-2-4 .333-4 2m56 0c0 1.667.667 2 4 2s4-.333 4-2-.667-2-4-2-4 .333-4 2m-40 4c0 1.917.667 2 16 2s16-.083 16-2-.667-2-16-2-16 .083-16 2"/><path fill-opacity=".477" fill-rule="evenodd" d="M80 2c0 1.933.667 2 20 2s20-.067 20-2-.667-2-20-2-20 .067-20 2M68 6c0 1.667.667 2 4 2s4-.333 4-2-.667-2-4-2-4 .333-4 2m56 0c0 1.667.667 2 4 2s4-.333 4-2-.667-2-4-2-4 .333-4 2m-64 4q0 2 2 2t2-2-2-2-2 2m20 0c0 1.778-.667 2-6 2s-6 .222-6 2c0 1.667-.667 2-4 2s-4 .333-4 2-.667 2-4 2-4 .333-4 2-.667 2-4 2-4-.333-4-2q0-2 2-2t2-2-2-2-2 2-2 2-2 2 2 2 2 2-2 2-2 2-2 2-2 2-2 2-2 2-2 2-2 2-2 2-2-2-2-2-2 2-2 2-2 2 2 2 2-2 2-2c1.667 0 2 .667 2 4s-.333 4-2 4-2 .667-2 4-.333 4-2 4-2 .667-2 4-.333 4-2 4c-1.778 0-2 .667-2 6s-.222 6-2 6c-1.933 0-2 .667-2 20s.067 20 2 20c1.778 0 2 .667 2 6s.222 6 2 6c1.667 0 2 .667 2 4s.333 4 2 4 2 .667 2 4 .333 4 2 4 2 .667 2 4-.333 4-2 4q-2 0-2-2t-2-2-2 2 2 2 2 2 2 2 2-2 2-2 2 2 2 2 2 2 2 2 2 2 2 2 2 2 2 2 2 2-2 2-2 2 2 2 2 2 2 2 2-2-2-2-2-2c0-1.667.667-2 4-2s4 .333 4 2 .667 2 4 2 4 .333 4 2 .667 2 4 2 4 .333 4 2c0 1.778.667 2 6 2s6 .222 6 2c0 1.933.667 2 20 2s20-.067 20-2c0-1.778.667-2 6-2s6-.222 6-2c0-1.667.667-2 4-2s4-.333 4-2 .667-2 4-2 4-.333 4-2 .667-2 4-2 4 .333 4 2q0 2-2 2t-2 2 2 2 2-2 2-2 2-2-2-2-2-2 2-2 2-2 2-2 2-2 2-2 2-2 2-2 2-2 2-2 2 2 2 2 2-2 2-2 2-2-2-2-2 2-2 2c-1.667 0-2-.667-2-4s.333-4 2-4 2-.667 2-4 .333-4 2-4 2-.667 2-4 .333-4 2-4c1.778 0 2-.667 2-6s.222-6 2-6c1.933 0 2-.667 2-20s-.067-20-2-20c-1.778 0-2-.667-2-6s-.222-6-2-6c-1.667 0-2-.667-2-4s-.333-4-2-4-2-.667-2-4-.333-4-2-4-2-.667-2-4 .333-4 2-4q2 0 2 2t2 2 2-2-2-2-2-2-2-2-2 2-2 2-2-2-2-2-2-2-2-2-2-2-2-2-2-2-2-2-2-2 2-2 2-2-2-2-2-2-2-2-2 2 2 2 2 2c0 1.667-.667 2-4 2s-4-.333-4-2-.667-2-4-2-4-.333-4-2-.667-2-4-2-4-.333-4-2c0-1.778-.667-2-6-2s-6-.222-6-2c0-1.933-.667-2-20-2s-20 .067-20 2m56 0q0 2 2 2t2-2-2-2-2 2m-84 4q0 2 2 2t2-2-2-2-2 2m92 0q0 2 2 2t2-2-2-2-2 2M32 26q0 2-2 2t-2 2-2 2-2 2 2 2 2-2 2-2 2-2 2-2 2-2-2-2-2 2m132 0q0 2 2 2t2 2 2 2 2 2 2 2 2-2-2-2-2-2-2-2-2-2-2-2-2 2M92 42c0 1.833-.667 2-8 2s-8 .167-8 2c0 1.667-.667 2-4 2s-4 .333-4 2-.667 2-4 2-4 .333-4 2q0 2-2 2c-1.667 0-2 .667-2 4s-.333 4-2 4c-1.905 0-2 .667-2 14s.095 14 2 14c1.833 0 2 .667 2 8s.167 8 2 8c1.667 0 2 .667 2 4s.333 4 2 4 2 .667 2 4 .333 4 2 4 2 .667 2 4 .333 4 2 4q2 0 2 2t2 2 2 2 2 2 2 2 2 2 2 2 2 2 2 2 2 2 2 2c0 1.833.667 2 8 2s8-.167 8-2q0-2 2-2t2-2 2-2 2-2 2-2 2-2 2-2 2-2 2-2 2-2 2-2c1.667 0 2-.667 2-4s.333-4 2-4 2-.667 2-4 .333-4 2-4 2-.667 2-4 .333-4 2-4c1.833 0 2-.667 2-8s.167-8 2-8c1.905 0 2-.667 2-14s-.095-14-2-14c-1.667 0-2-.667-2-4s-.333-4-2-4q-2 0-2-2c0-1.667-.667-2-4-2s-4-.333-4-2-.667-2-4-2-4-.333-4-2c0-1.833-.667-2-8-2s-8-.167-8-2-.667-2-8-2-8 .167-8 2M12 54q0 2 2 2t2-2-2-2-2 2m172 0q0 2 2 2t2-2-2-2-2 2M84 58c0 1.667-.667 2-4 2s-4 .333-4 2-.667 2-4 2h-4v6c0 5.333-.222 6-2 6q-2 0-2 2c0 1.905.667 2 14 2s14-.095 14-2q0-2-2-2c-1.778 0-2-.667-2-6s.222-6 2-6q2 0 2-2t2-2 2-2c0-1.778-.667-2-6-2s-6 .222-6 2m20 0q0 2 2 2t2 2 2 2c1.778 0 2 .667 2 6s-.222 6-2 6q-2 0-2 2c0 1.905.667 2 14 2s14-.095 14-2q0-2-2-2c-1.778 0-2-.667-2-6v-6h-4c-3.333 0-4-.333-4-2s-.667-2-4-2-4-.333-4-2c0-1.778-.667-2-6-2s-6 .222-6 2M8 62q0 2 2 2t2-2-2-2-2 2m180 0q0 2 2 2t2-2-2-2-2 2M4 72c0 3.333.333 4 2 4s2-.667 2-4-.333-4-2-4-2 .667-2 4m188 0c0 3.333.333 4 2 4s2-.667 2-4-.333-4-2-4-2 .667-2 4M0 100c0 19.333.067 20 2 20s2-.667 2-20-.067-20-2-20-2 .667-2 20m196 0c0 19.333.067 20 2 20s2-.667 2-20-.067-20-2-20-2 .667-2 20M76 90q0 2-2 2t-2 2-2 2c-1.667 0-2 .667-2 4s.333 4 2 4q2 0 2-2t2-2 2-2 2-2 2-2 2-2 2-2c0-1.667-.667-2-4-2s-4 .333-4 2m40 0q0 2 2 2t2 2 2 2 2 2 2 2 2 2 2 2c1.667 0 2-.667 2-4s-.333-4-2-4q-2 0-2-2t-2-2-2-2c0-1.667-.667-2-4-2s-4 .333-4 2m-32 8q0 2-2 2t-2 2-2 2-2 2-2 2c-1.667 0-2 .667-2 4s.333 4 2 4q2 0 2-2t2-2 2-2 2-2 2-2 2-2c1.667 0 2-.667 2-4s-.333-4-2-4q-2 0-2 2m28 2c0 3.333.333 4 2 4q2 0 2 2t2 2 2 2 2 2 2 2 2 2c1.667 0 2-.667 2-4s-.333-4-2-4q-2 0-2-2t-2-2-2-2-2-2-2-2-2-2c-1.667 0-2 .667-2 4m-32 20c0 3.333.333 4 2 4q2 0 2-2t2-2 2-2c0-1.667-.667-2-4-2h-4zm32-2q0 2 2 2t2 2 2 2c1.667 0 2-.667 2-4v-4h-4c-3.333 0-4 .333-4 2M4 128c0 3.333.333 4 2 4s2-.667 2-4-.333-4-2-4-2 .667-2 4m188 0c0 3.333.333 4 2 4s2-.667 2-4-.333-4-2-4-2 .667-2 4M8 138q0 2 2 2t2-2-2-2-2 2m180 0q0 2 2 2t2-2-2-2-2 2m-176 8q0 2 2 2t2-2-2-2-2 2m172 0q0 2 2 2t2-2-2-2-2 2M24 166q0 2 2 2t2 2 2 2 2 2 2 2 2-2-2-2-2-2-2-2-2-2-2-2-2 2m148 0q0 2-2 2t-2 2-2 2-2 2 2 2 2-2 2-2 2-2 2-2 2-2-2-2-2 2M52 186q0 2 2 2t2-2-2-2-2 2m92 0q0 2 2 2t2-2-2-2-2 2m-84 4q0 2 2 2t2-2-2-2-2 2m76 0q0 2 2 2t2-2-2-2-2 2m-68 4c0 1.667.667 2 4 2s4-.333 4-2-.667-2-4-2-4 .333-4 2m56 0c0 1.667.667 2 4 2s4-.333 4-2-.667-2-4-2-4 .333-4 2m-44 4c0 1.933.667 2 20 2s20-.067 20-2-.667-2-20-2-20 .067-20 2"/><path fill-opacity=".405" fill-rule="evenodd" d="M92 10c0 1.867-.667 2-10 2s-10 .133-10 2c0 1.778-.667 2-6 2s-6 .222-6 2q0 2-2 2t-2 2c0 1.667-.667 2-4 2s-4 .333-4 2q0 2-2 2t-2 2-2 2-2 2-2 2-2 2-2 2-2 2-2 2-2 2-2 2c-1.667 0-2 .667-2 4s-.333 4-2 4q-2 0-2 2t-2 2c-1.778 0-2 .667-2 6s-.222 6-2 6c-1.867 0-2 .667-2 10s-.133 10-2 10c-1.833 0-2 .667-2 8s.167 8 2 8c1.867 0 2 .667 2 10s.133 10 2 10c1.778 0 2 .667 2 6s.222 6 2 6q2 0 2 2t2 2c1.667 0 2 .667 2 4s.333 4 2 4q2 0 2 2t2 2 2 2 2 2 2 2 2 2 2 2 2 2 2 2 2 2 2 2c0 1.667.667 2 4 2s4 .333 4 2q0 2 2 2t2 2c0 1.778.667 2 6 2s6 .222 6 2c0 1.867.667 2 10 2s10 .133 10 2c0 1.833.667 2 8 2s8-.167 8-2c0-1.867.667-2 10-2s10-.133 10-2c0-1.778.667-2 6-2s6-.222 6-2q0-2 2-2t2-2c0-1.667.667-2 4-2s4-.333 4-2q0-2 2-2t2-2 2-2 2-2 2-2 2-2 2-2 2-2 2-2 2-2 2-2c1.667 0 2-.667 2-4s.333-4 2-4q2 0 2-2t2-2c1.778 0 2-.667 2-6s.222-6 2-6c1.867 0 2-.667 2-10s.133-10 2-10c1.833 0 2-.667 2-8s-.167-8-2-8c-1.867 0-2-.667-2-10s-.133-10-2-10c-1.778 0-2-.667-2-6s-.222-6-2-6q-2 0-2-2t-2-2c-1.667 0-2-.667-2-4s-.333-4-2-4q-2 0-2-2t-2-2-2-2-2-2-2-2-2-2-2-2-2-2-2-2-2-2-2-2c0-1.667-.667-2-4-2s-4-.333-4-2q0-2-2-2t-2-2c0-1.778-.667-2-6-2s-6-.222-6-2c0-1.867-.667-2-10-2s-10-.133-10-2c0-1.833-.667-2-8-2s-8 .167-8 2m-8 32c0 1.778-.667 2-6 2s-6 .222-6 2c0 1.667-.667 2-4 2s-4 .333-4 2q0 2-2 2t-2 2-2 2-2 2-2 2c-1.933 0-2 .667-2 20s.067 20 2 20c1.778 0 2 .667 2 6s.222 6 2 6c1.667 0 2 .667 2 4s.333 4 2 4 2 .667 2 4 .333 4 2 4q2 0 2 2t2 2c1.667 0 2 .667 2 4s.333 4 2 4q2 0 2 2t2 2 2 2 2 2 2 2c0 1.667.667 2 4 2s4 .333 4 2q0 2 2 2t2 2c0 1.667.667 2 4 2s4-.333 4-2q0-2 2-2t2-2c0-1.667.667-2 4-2s4-.333 4-2q0-2 2-2t2-2 2-2 2-2 2-2c1.667 0 2-.667 2-4s.333-4 2-4q2 0 2-2t2-2c1.667 0 2-.667 2-4s.333-4 2-4 2-.667 2-4 .333-4 2-4c1.778 0 2-.667 2-6s.222-6 2-6c1.933 0 2-.667 2-20s-.067-20-2-20q-2 0-2-2t-2-2-2-2-2-2-2-2c0-1.667-.667-2-4-2s-4-.333-4-2c0-1.778-.667-2-6-2s-6-.222-6-2c0-1.917-.667-2-16-2s-16 .083-16 2"/></svg>