<svg xmlns="http://www.w3.org/2000/svg" width="200" height="200" fill="#000000"><path fill-opacity=".282" fill-rule="evenodd" d="M0 100v100h9.455c8.844 0 9.622-.167 12.05-2.596 2.942-2.942 6.437-2.709 10.059.67 1.612 1.503 3.532 1.926 8.75 1.926 5.868 0 6.686-.229 6.686-1.873C47 193.479 39.297 180 36.64 180c-.692 0-2.039-.571-2.994-1.27-1.64-1.199-1.621-1.532.333-5.949 2.458-5.557 7.046-9.243 10.443-8.39 2.513.631 4.108 4.209 2.222 4.982-.629.258-.131.505 1.106.548 1.298.046 2.25.714 2.25 1.579 0 .825.45 1.5 1 1.5s1-.862 1-1.917c0-1.054.563-2.151 1.25-2.437.907-.378.765-.914-.518-1.956-1.671-1.358-1.643-1.518.515-2.932 2.092-1.371 2.571-1.298 5.739.873 4.226 2.896 6.597 3.113 2.764.254-1.513-1.129-2.75-2.583-2.75-3.231 0-1.216-1.748-2.329-8.292-5.28-2.754-1.242-3.619-2.144-3.159-3.292.349-.87.761-2.637.916-3.927.333-2.78 4.516-7.477 4.566-5.127.048 2.229 4.619 5.099 8.247 5.177 1.772.038 5.896.604 9.164 1.258 6.255 1.251 6.352 1.358 7.985 8.769.378 1.716 1.79 3.346 3.8 4.386 3.456 1.787 7.463 6.262 6.967 7.782-.169.516.281.453 1-.141.718-.594 2.944-1.033 4.947-.975 3.197.093 3.609.391 3.383 2.444-.141 1.286-.541 2.622-.888 2.97-1.188 1.188-5.636 1.175-5.651-.016-.01-.745-.287-.812-.75-.182-1.27 1.728-5.272 3.595-6.32 2.948-.551-.341-2.061.073-3.354.92-2.181 1.429-2.389 1.399-2.863-.414-.281-1.075-1.276-1.954-2.211-1.954-1.101 0-1.498-.529-1.125-1.5.356-.93-.005-1.5-.952-1.5-.841 0-1.25-.45-.91-1s-.219-1-1.241-1-2.418-.559-3.101-1.242c-.988-.988-1.418-.956-2.107.16-1.484 2.4-.165 4.076 2.431 3.089 2.487-.946 3.518-.459 3.518 1.66 0 .733-.787 1.369-1.75 1.412-1.056.048-1.252.28-.494.585.691.279.997.927.68 1.44s-1.852.024-3.411-1.086c-4.188-2.982-4.552-2.473-1.236 1.732 2.312 2.931 2.774 4.241 2.117 6-.463 1.238-1.644 2.254-2.624 2.258s-2.274 1.068-2.874 2.365c-.954 2.057-.86 2.297.734 1.88 3.218-.842 6.858.627 6.858 2.766 0 1.677-.681 1.981-4.441 1.981-2.443 0-4.694-.409-5.002-.908-.309-.5-2.248-.11-4.309.866s-4.423 2.026-5.248 2.333 32.25.479 73.5.383l75-.174.255-99.75L201.01 0H0zm.481.5c0 55 .121 77.647.269 50.326.148-27.32.148-72.32 0-100C.602 23.147.481 45.5.481 100.5M194.5 27.163c-2.2 1.141-4.785 2.764-5.744 3.606-1.223 1.073-4.092 1.561-9.599 1.633-4.32.056-8.485.592-9.256 1.192-.77.599-3.426 1.885-5.901 2.857s-5.129 2.018-5.898 2.322c-1.056.419-1.271-.109-.879-2.16.494-2.584.368-2.683-2.602-2.053-1.717.364-3.916 1.364-4.887 2.221-1.609 1.419-1.892 1.387-3.183-.362-1.135-1.538-1.668-1.671-2.684-.669-1.734 1.711-4.867 1.577-4.867-.208 0-1.521-3.143-1.54-9.629-.056-1.946.445-3.386.299-3.809-.385-.986-1.596-4.251-1.351-7.128.534-3.026 1.983-9.931 2.704-12.536 1.31-1.452-.777-1.898-.68-1.898.413 0 .785-1.688 2.11-3.75 2.943-3.536 1.429-3.878 1.397-6-.567-1.238-1.146-2.257-1.667-2.265-1.158-.009.508-.424.278-.924-.512-.79-1.247-1.14-1.247-2.672 0-1.566 1.276-1.692 1.246-1.127-.263.455-1.215.223-1.541-.813-1.143-.797.306-1.518 1.07-1.601 1.699-.172 1.286-.5 2.777-.858 3.893-.334 1.044-.717 2.605-.865 3.531-.232 1.448-6.463 3.29-7.184 2.123-.421-.68-.885-.493-1.27.512-.335.871-1.522 1.584-2.64 1.584-1.117 0-2.031.398-2.031.883 0 .486-.9 1.119-2 1.407-2.111.552-2.943-1.809-.881-2.496.616-.206 1.274-2.156 1.464-4.334.379-4.371 4.884-9.46 8.374-9.46 1.059 0 2.203-.45 2.543-1s-.167-1-1.127-1c-.959 0-2.749-.944-3.977-2.097-2.904-2.729-6.989-1.908-11.256 2.264-3.971 3.883-4.115 8.076-.632 18.451 2.664 7.937 2.52 11.921-.466 12.869-2.1.666-4.69 6.368-5.582 12.29-.441 2.921-1.725 5.421-4.052 7.89-3.847 4.079-4.077 4.859-1.804 6.131 1.472.824 1.472 1.154.004 3.994-1.235 2.388-1.364 3.719-.564 5.824.571 1.501.813 3.315.538 4.032s.152 2.865.95 4.774c.981 2.349 1.11 3.681.399 4.121-.681.42-.526 1.055.438 1.803.819.635 1.634 2.279 1.81 3.654.507 3.95 3.394 3.228 2.996-.75-.244-2.429.072-3.25 1.25-3.25.866 0 1.575.62 1.575 1.378s.675 1.937 1.5 2.622c2.096 1.74 1.868 3-.542 3-1.123 0-2.634.553-3.358 1.229-1.076 1.005-.931 1.429.792 2.332 1.16.606 1.995 1.628 1.858 2.271-.304 1.423 3.384 1.569 4.25.168.34-.55 1.154-.964 1.809-.921.859.057.842.22-.059.583-2.114.853-1.405 1.904 2.25 3.338 3.659 1.436 4.357 2.476 2.25 3.354-.91.379-.773.908.5 1.943 2.037 1.657 2.252 3.801.55 5.503-.933.933-.711 1.2 1 1.2 1.21 0 2.2.45 2.2 1s.658 1 1.461 1c.896 0 2.057-2.005 3-5.182 1.982-6.671 1.946-7.302-.51-8.946-1.127-.755-2.124-2.411-2.217-3.682-.121-1.663-.655-2.182-1.905-1.856-1.607.421-1.62.276-.168-1.94.863-1.317 1.93-2.394 2.372-2.394s1.589-.301 2.549-.67c1.191-.457 1.516-.298 1.023.5-.398.644-.246 1.17.336 1.17s1.059-.414 1.059-.921c0-.506 1.35-1.217 3-1.579 3.279-.72 3.654-1.441 1.75-3.359-1.002-1.01-.903-1.127.5-.593 2.019.768 2.088.436 2.195-10.548.041-4.125.437-8.513.882-9.751.754-2.1.631-2.184-1.824-1.25-3.864 1.469-7.309 1.227-10.675-.749-2.65-1.556-2.939-2.191-2.607-5.725.233-2.474-.161-4.6-1.045-5.633-1.317-1.538-1.633-1.539-4.324-.025-1.596.898-4.744 4.446-6.995 7.883-2.25 3.438-4.277 6.25-4.502 6.25-1.208 0 .55-6.925 2.207-8.693 1.066-1.138 2.838-3.293 3.938-4.789 3.322-4.517 9.867-11.196 12.097-12.345 1.365-.702 2.438-.738 3.073-.103.636.636 1.63.256 2.848-1.089 1.814-2.005 1.814-2.046.012-1.354-1.288.494-1.636.354-1.135-.457.789-1.276 7.605-1.644 7.605-.411 0 .418-.9 1.322-2 2.009-2.973 1.857-2.472 2.93 2.371 5.072 2.404 1.063 4.706 2.475 5.115 3.138 1.22 1.974.844 10.919-.528 12.573-.838 1.01-.936 1.871-.286 2.521.651.651 2.157-.042 4.408-2.026 1.881-1.658 3.983-3.021 4.67-3.03 1.362-.017 1.497-.941 1.267-8.665-.084-2.832.328-5.446.915-5.809 1.444-.892 1.36-5.278-.109-5.768-2.306-.768.353-2.774 3.677-2.774 1.86 0 3.7-.515 4.09-1.145.487-.789-.107-.989-1.911-.644-1.44.275-2.41.162-2.154-.251.986-1.596-2.69-1.814-7.251-.43-2.626.796-4.886 1.453-5.024 1.459s-.25-.655-.25-1.47c0-1.858 2.938-2.61 11.097-2.839 4.6-.129 6.748-.64 7.628-1.813 1.377-1.836 7.066-3.014 7.916-1.639.808 1.307 5.584 3.119 7.57 2.872 2.531-.314 5.466 1.556 6.07 3.868s.392 2.372-3.965 1.123c-3.378-.969-4.236-.392-7.185 4.836-1.201 2.129-1.157 2.581.359 3.689 1.458 1.066 2.139.881 4.366-1.184 1.452-1.345 2.797-1.974 2.989-1.398.228.686.87.618 1.853-.198.827-.687 2.021-1.358 2.653-1.491.632-.134 3.082-.946 5.445-1.805 5.096-1.853 8.52-.71 8.015 2.676-.374 2.504-3.525 4.759-4.589 3.284-1.278-1.771-3.315-1.606-6.808.553-4.133 2.555-4.283 3.189-.663 2.809 1.512-.158 3.265.03 3.893.418.629.389 2.752.035 4.718-.787 1.965-.821 4.488-1.493 5.606-1.493S155 73.55 155 73s.45-1 1-1 1 .9 1 2 .563 1.888 1.25 1.75 1.164.233 1.059.823.795 1.04 2 1c1.684-.056 2.266.582 2.515 2.756.211 1.842.781 2.653 1.635 2.325.721-.277 2.333.213 3.582 1.088 2.131 1.492 2.385 1.45 4.11-.68 1.011-1.249 1.59-2.673 1.286-3.165s.485-.782 1.755-.646c1.857.2 2.261-.191 2.07-2.001-.184-1.737.274-2.25 2.009-2.25 2.515 0 5.172 3.427 4.103 5.291-.382.665-.338.887.097.494s1.642-.26 2.681.296c2.656 1.422 4.424.073 2.158-1.645-1.695-1.285-1.699-1.374-.06-1.404.963-.018 1.75-.691 1.75-1.497 0-1.649-2.924-3.473-4.596-2.868-.603.218-1.53-1.08-2.06-2.885-.699-2.382-1.464-3.193-2.789-2.957-1.312.234-1.656-.118-1.222-1.25.332-.866.168-1.575-.364-1.575-2.483 0-.577-1.894 2.681-2.664 4.696-1.111 6.606-3.891 4.003-5.826-1.016-.755-2.388-1.165-3.048-.912-1.296.497-6.297-4.24-5.411-5.125.295-.295 1.609-.737 2.921-.983s3.185-1.423 4.163-2.615c1.744-2.124 1.71-2.208-1.68-4.271-3.029-1.842-3.299-2.322-2.168-3.854 1.372-1.86 4.57-2.407 4.57-.781 0 .532.624.729 1.387.436 1.668-.64 4.609 3.369 7.036 9.595 1.904 4.882 3.326 7 4.699 7 .483 0 .878-6.75.878-15s-.338-14.98-.75-14.956-2.55.978-4.75 2.119M82.51 35.016c.346.559 1.047.758 1.559.441C85.456 34.6 85.198 34 83.441 34c-.857 0-1.276.457-.931 1.016m-2.915 4.831c-.321.519.153 1.226 1.054 1.572 2.21.848 2.727.138.964-1.325-.855-.71-1.67-.81-2.018-.247M70 48.059c0 .582.45.781 1 .441s1-.816 1-1.059S71.55 47 71 47s-1 .477-1 1.059M166.5 50c.34.55.816 1 1.059 1s.441-.45.441-1-.477-1-1.059-1-.781.45-.441 1m2.731 4.959c.451 2.344 3.435 2.424 4.041.109.434-1.661.089-1.993-1.902-1.828-1.574.13-2.329.737-2.139 1.719m8.096-.299c.363.363-.237 1.289-1.333 2.057S174 58.933 174 59.934c0 2.141 2.495 4.496 3.866 3.649 1.271-.786 1.096-9.583-.191-9.583-.555 0-.711.297-.348.66M90.5 66c-.34.55-.141 1 .441 1S92 66.55 92 66s-.198-1-.441-1-.719.45-1.059 1m68.118 1.552c-.327.854-.169 1.288.353.966.521-.322 1.845-.025 2.943.66 2.651 1.656 3.975.206 1.513-1.657-2.512-1.9-4.071-1.89-4.809.031m6.439 11.555c.85 1.587 1.412 1.824 2.277.959s.781-1.382-.342-2.092c-2.426-1.534-3.138-1.116-1.935 1.133m26.619 4.295c-.679 1.77.124 2.612 1.859 1.946.736-.282 1.094-1.151.795-1.931-.695-1.811-1.962-1.818-2.654-.015m-18.18 1.605c-.76 1.229 1.992 2.427 3.472 1.513.586-.362.806-1.077.489-1.589-.763-1.235-3.18-1.189-3.961.076M180 86c0 1.646.518 2.065 2.25 1.82 1.238-.176 2.25-.995 2.25-1.82s-1.012-1.644-2.25-1.82c-1.732-.245-2.25.174-2.25 1.82m-62 1.968c-1.948 1.499-2.235 2.19-1.298 3.13s1.758.677 3.732-1.196c4.272-4.053 2.327-5.598-2.434-1.934m65 5.425c0 .216.698.661 1.552.989.89.341 1.291.173.941-.393-.587-.951-2.493-1.406-2.493-.596m-27.5 4.268c-1.1.853-3.35 2.172-5 2.932-2.961 1.365-2.942 1.375 1.5.758 2.475-.344 5.4-1.105 6.5-1.692s2.636-1.087 3.414-1.113c.778-.025 1.578-.535 1.779-1.133.569-1.695-5.94-1.497-8.193.248m-26.806 4.983c.656.267.968 1.073.692 1.792-.275.718.2 1.575 1.057 1.904.856.328 1.557.161 1.557-.371 0-.533-.562-.976-1.25-.984-.936-.012-.915-.228.084-.861 1.064-.675.997-.975-.332-1.485-1.914-.734-3.614-.73-1.808.005M63 105c0 .55.423 1 .941 1s1.219-.45 1.559-1-.084-1-.941-1-1.559.45-1.559 1m54 .987c0 1.175 2.848 2.067 3.457 1.083.286-.463-.374-1.077-1.468-1.363s-1.989-.16-1.989.28m-10.642 2.229c-1.728.556-3.727 2.105-4.442 3.442-1.175 2.194-1.04 2.672 1.392 4.926 1.48 1.373 2.692 2.915 2.692 3.425 0 .511.64.683 1.422.383s2.244-.118 3.25.405c1.005.524 2.695.637 3.755.252 1.721-.625 1.748-.768.25-1.343-2.405-.922-2.183-4.706.276-4.706 1.513 0 1.907-.619 1.75-2.75-.376-5.095-3.395-6.272-10.345-4.034m-42.868.8c-.346.559-1.051.755-1.568.436-1.71-1.057-4.922.65-4.922 2.615 0 1.458.7 1.933 2.847 1.933 2.937 0 7.153-2.869 7.153-4.867 0-1.408-2.657-1.497-3.51-.117m43.51 2.515c0 1.618 1.563 1.986 2.435.574.305-.493-.119-1.153-.941-1.469-.907-.348-1.494.003-1.494.895m10.638 3.969c-.316.825-.139 1.5.393 1.5.533 0 .969-.675.969-1.5s-.177-1.5-.393-1.5-.652.675-.969 1.5m-55.983 11.042c.655 1.707 2.499 1.497 3.116-.354.22-.66-.517-1.188-1.656-1.188-1.438 0-1.875.461-1.46 1.542m-.405 11.12c-1.874.756-1.505 3.038.579 3.583 2.608.682 5.464-1.552 3.936-3.08-1.217-1.217-2.414-1.351-4.515-.503M69 141c0 .55.45 1 1 1s1-.45 1-1-.45-1-1-1-1 .45-1 1m-26.467 15.61c-.843.843-1.533 2.303-1.533 3.244 0 1.599 1.001 1.796 6.25 1.227 1.438-.156.736-2.649-1.217-4.321-1.767-1.513-2.122-1.528-3.5-.15M65 168c0 .55.477 1 1.059 1s.781-.45.441-1-.816-1-1.059-1-.441.45-.441 1m-2.782 14.154c.246.741 1.25 1.501 2.23 1.692 1.14.22 1.621-.14 1.334-1-.246-.741-1.25-1.501-2.23-1.692-1.14-.22-1.621.14-1.334 1m22.816 1.305c-.999 1.203-.745 1.576 1.451 2.127 2.85.715 5.173-.712 4.069-2.499-.96-1.553-4.097-1.342-5.52.372m-57.299 1.715C24.977 187.183 24.153 189 26 189c.55 0 1-.623 1-1.383 0-1.612 3.732-2.859 4.558-1.523.743 1.202 2.442 1.161 2.442-.059 0-2.352-3.548-2.839-6.265-.861M71 187.731l-3.5 1.589 3.087.68c1.698.375 3.627 1.014 4.287 1.422s3.019.434 5.242.058c3.936-.665 3.993-.73 2.13-2.465-2.8-2.609-7.218-3.113-11.246-1.284"/><path fill-opacity=".372" fill-rule="evenodd" d="M0 100v100h17.802l1.993-3.377c1.095-1.857 2.317-4.894 2.715-6.75.435-2.025 2.076-4.501 4.107-6.196 2.431-2.028 3.383-3.647 3.383-5.75 0-1.61.363-2.927.808-2.927.444 0 1.627-1.858 2.629-4.129 1.002-2.272 2.64-4.948 3.64-5.948s2.284-3.548 2.853-5.663 1.858-4.728 2.862-5.807c1.005-1.078 3.629-4.659 5.832-7.957 3.071-4.598 4.514-5.94 6.19-5.758 1.202.131 2.186-.233 2.186-.809s-.563-.739-1.25-.361c-.688.377-.012-.515 1.5-1.982 3.276-3.177 3.562-5.032.658-4.272-1.914.5-1.961.402-.551-1.156 1.036-1.145 1.241-2.188.626-3.181-.787-1.269-1.983-1.094-8.488 1.24-11.813 4.239-8.417 1.649 4.453-3.395 1.346-.528 2.021-1.266 1.5-1.641-.521-.374-1.728-2.368-2.682-4.431-1.013-2.192-2.443-3.75-3.441-3.75-1.5 0-1.472-.172.234-1.419 1.718-1.257 1.801-1.789.722-4.647-.67-1.775-.962-3.641-.649-4.147s-.264-1.551-1.282-2.322c-1.082-.819-1.331-1.415-.6-1.433 2.017-.052 1.448-1.767-1.49-4.492-1.507-1.397-2.182-2.54-1.5-2.54s1.24.45 1.24 1c0 1.526 2.597 1.191 4.016-.519 1.027-1.238.957-1.853-.378-3.328C47.805 90.127 47.478 88 49 88c.55 0 1-.603 1-1.339 0-.737 1.101-1.841 2.446-2.454 1.751-.798 2.62-2.193 3.058-4.911.336-2.088.884-4.921 1.217-6.296.332-1.375.522-3.018.421-3.652-.102-.633 1.235-2.571 2.97-4.306l3.155-3.155-1.875-3.853c-2.238-4.602-4.791-6.47-7.087-5.185-1.433.802-1.37 1.046.535 2.065 2.144 1.148 2.792 4.277 1.553 7.504-.974 2.537-2.066 1.856-3.742-2.333-.862-2.153-2.036-4.205-2.609-4.559-1.33-.822-1.399 6.406-.093 9.839.746 1.964.516 3.045-1.08 5.075-1.202 1.527-2.506 2.275-3.199 1.835-2.178-1.385-3.089-.786-5.395 3.552l-2.301 4.327 1.957 4.423C41.007 87.01 41.575 89 41.194 89 40.245 89 35 82.342 35 81.137c0-.534-.338-1.12-.75-1.304-1.028-.457-6.25-8.234-6.25-9.308 0-.477.715-1.657 1.588-2.622 2.003-2.213 3.139-13.322 1.558-15.227-1.587-1.912-.427-2.676 4.06-2.676h3.872l-1.952 2.095c-1.224 1.314-2.204 4.27-2.629 7.929-1.279 11.02 1.863 12.982 4.436 2.77 2.491-9.886 4.065-12.753 8.153-14.838C49.195 46.88 51.596 46 52.423 46c.826 0 3.277-2.588 5.445-5.75s4.773-6.436 5.788-7.275c3.114-2.575 15.923-9.425 14.602-7.809-1.055 1.291-.641 1.718 2.755 2.838 2.198.726 4.295 1.022 4.659.658s.136-.662-.505-.662c-.642 0-1.166-1.012-1.166-2.25.002-1.93.599-2.291 4.2-2.539 2.309-.159 11.196-2.021 19.748-4.139s16.226-3.829 17.051-3.804 2.459-.263 3.632-.641c1.791-.577 2.199-.23 2.552 2.17.38 2.593.159 2.842-2.383 2.691-1.54-.091-2.801.009-2.801.224 0 .581 7.38 3.689 8.25 3.474.412-.102.75.521.75 1.385 0 2.574 2.325 4.377 3.718 2.885.639-.683.865-1.54.502-1.902-.362-.363.103-.367 1.035-.01 1.546.594 1.555.789.108 2.235-1.447 1.447-1.428 1.701.217 2.903 1.039.76 1.273 1.318.552 1.318-.687 0-.984.43-.659.956.338.546 1.521.612 2.763.152 1.195-.442 3.899-.416 6.008.058 2.39.537 4.549.48 5.73-.152 3.189-1.707 4.016-1.215 3.372 2.004-.695 3.475-.514 3.459 8.654-.76 4.306-1.981 7.076-2.526 12.762-2.509 3.994.012 7.513-.385 7.82-.882.69-1.117 9.947-5.867 11.432-5.867.748 0 .989 6.195.783 20.143-.262 17.774-.499 20.27-2.019 21.227-2.464 1.552-4.636-.632-2.813-2.828.938-1.13.964-1.542.098-1.542-.649 0-.959-.359-.688-.798s.08-1.451-.426-2.25c-.756-1.196-.921-1.134-.934.348-.018 2.095-2.663 7.491-4.645 9.473-2.455 2.455-1.628 4.227 1.975 4.227 2.075 0 4.032.759 5.155 2 .995 1.1 2.303 2 2.905 2.001s1.199 1.8 1.326 4c.127 2.199-.182 3.999-.686 3.999-.505 0-.833 2.138-.731 4.75.105 2.688-.248 4.697-.814 4.628-.55-.067-2.349-.441-3.998-.831s-2.677-.389-2.285.003.247 1.583-.322 2.645c-.748 1.399-.68 2.359.248 3.477 1.066 1.285.954 1.784-.669 2.971-1.578 1.154-2.143 1.181-2.962.141-.557-.706-2.55-1.284-4.431-1.284-3.461 0-4.464-1.007-8.242-8.275-.65-1.251-2.793-3.25-4.761-4.442-4.466-2.705-8.078-6.432-8.078-8.335 0-1.936-2.63-1.856-3.382.104-.327.854-.263 1.361.143 1.128s1.639.453 2.739 1.526c1.993 1.943 1.99 1.947-.899 1.226-2.068-.516-2.696-.395-2.191.422.389.63 1.356 1.146 2.149 1.146A1.44 1.44 0 0 1 162 87.432c0 2.269-4.697 1.233-7.776-1.716-3.886-3.723-9.322-5.716-15.591-5.716-5.157 0-5.683.248-10.452 4.917C121.544 91.415 119.112 96 122.3 96c.715 0 1.835.535 2.49 1.19.654.654 1.757 1.29 2.45 1.413s3.282.957 5.753 1.852c7.456 2.701 17.859.681 22.414-4.353 1.351-1.492 3.106-2.102 6.048-2.102 2.28 0 4.576-.431 5.103-.958 1.396-1.396 3.182.077 3.589 2.958.194 1.375.803 2.838 1.353 3.25.635.476.502 1.071-.363 1.629-1.144.737-1.145.952-.009 1.33 1.106.369 1.08.726-.146 1.952-.825.825-2.006 1.331-2.625 1.125-.619-.207-1.868.368-2.777 1.277-1.008 1.008-2.515 1.435-3.866 1.096-2.194-.55-2.193-.538.148 1.394l2.362 1.949-3.128 1.316c-1.721.723-2.784 1.684-2.363 2.134.422.45-.216.308-1.417-.317-1.202-.624-4-1.135-6.219-1.135-3.104 0-3.907.333-3.48 1.443.304.794 1.302 1.642 2.218 1.884 1.481.392 1.472.454-.085.557-.962.064-2.65-.784-3.75-1.884-2.411-2.411-2.443-2.414-4.468-.389-1.481 1.481-1.467 1.727.179 3.055 1.679 1.356 1.666 1.387-.211.515-1.1-.511-2.9-.603-4-.204s-2.675.372-3.5-.061c-3.469-1.821-8.367-3.916-9.154-3.916-1.776 0-.743 2.089 1.445 2.921 1.26.479 2.886 1.588 3.613 2.464.728.876 1.791 1.303 2.364.949.652-.403.735-.148.222.681-.576.933-.375 1.155.679.75.892-.342 1.498-.006 1.498.83 0 .773-.083 1.405-.184 1.405-1.253 0-7.301-2.682-8.304-3.683-1.78-1.774-4.179-1.669-4.179.183 0 .825.62 1.5 1.378 1.5s1.937.675 2.622 1.5 1.977 1.502 2.872 1.505c1.979.006 8.186 4.908 6.28 4.959-.741.02-5.157-1.825-9.814-4.1-6.215-3.037-8.762-3.84-9.578-3.024-.817.817-.624 1.652.724 3.143 1.01 1.116 2.066 1.801 2.345 1.521.655-.654 4.171 2.507 4.171 3.75 0 .519-1.601-.001-3.557-1.155-1.957-1.155-4.394-2.099-5.417-2.099s-2.063-.563-2.312-1.25c-.355-.981-.89-.992-2.488-.051-2.31 1.361-8.226-.257-8.226-2.249 0-.612-1.083-1.692-2.406-2.4s-2.629-2.452-2.901-3.875c-.397-2.077.324-3.337 3.656-6.389 2.283-2.091 5.051-4.073 6.151-4.406 3.777-1.142 7.232-5.267 6.848-8.176-.196-1.487-.093-2.141.231-1.454.679 1.445 3.421 1.703 3.421.321 0-.51-.707-1.635-1.571-2.5-1.823-1.822-4.91-2.158-3.834-.416.446.721.274.882-.457.43-.644-.398-.912-1.142-.595-1.654.316-.512-.127-.931-.984-.931S107 93.459 107 94.019c0 .572-1.037.759-2.364.426-1.829-.459-2.487-.124-2.906 1.481-.443 1.694-1.339 2.077-4.886 2.089-7.441.027-7.677.538-4.844 10.485 2.422 8.505 2.431 8.408-1.125 11.845-1.856 1.793-4.652 4.06-6.213 5.038-2.247 1.408-2.713 2.28-2.235 4.183.338 1.348-.278 5.023-1.401 8.357-1.103 3.274-2.08 7.935-2.172 10.36-.338 8.953 6.615 17.01 12.687 14.701 4.31-1.638 17.459.724 17.459 3.137 0 .484.706.879 1.57.879 1.062 0 1.458.727 1.226 2.25-.189 1.238-.895 2.137-1.57 2-.674-.138-1.226.375-1.226 1.139s.77 1.326 1.712 1.25c.941-.076 1.869.624 2.062 1.556.26 1.254-.769 2.013-3.961 2.923l-4.313 1.229 4.563.717c4.815.756 15.233 2.042 18.187 2.245.963.066 1.75.5 1.75.964 0 .465.45.567 1 .227s1-.141 1 .441.661 1.059 1.469 1.059c.894 0 1.243.586.893 1.5-.336.874-.01 1.513.781 1.53.897.021.761.378-.401 1.055-2.022 1.177-3.742.436-3.742-1.613 0-.842-.604-1.178-1.5-.834-.825.317-2.287.234-3.25-.185-3.157-1.372-6.219-1.54-8.251-.452-1.458.78-1.999.759-1.999-.077 0-.63-.848-.098-1.885 1.183-1.037 1.28-1.681 2.859-1.432 3.509s-.027 1.479-.615 1.842c-.587.363-1.068-.042-1.068-.899s-.477-1.559-1.059-1.559-.751.498-.375 1.107c.466.753-.075.892-1.691.435-1.699-.482-1.973-.396-.963.302 1.203.83 1.176 1.211-.178 2.565-.875.875-2.025 1.591-2.556 1.591-.53 0-1.234.704-1.564 1.563-.33.86-1.06 1.279-1.623.931s-.834-.939-.603-1.313c.232-.375-.618-.681-1.888-.681s-2.1.338-1.845.75c.725 1.173-3.126.879-4.337-.332-1.12-1.12-5.318.721-5.318 2.331 0 .422 25.763.651 57.25.509l57.25-.258.255-99.75L201.01 0H0zm.481.5c0 55 .121 77.647.269 50.326.148-27.32.148-72.32 0-100C.602 23.147.481 45.5.481 100.5m117.913-79.65c-1.316.406-2.001 1.341-1.825 2.491.261 1.715-4.453 7.176-8.401 9.731-1.525.986-1.518 1.032.082.535 1.862-.579 2.43.855.75 1.893-1.967 1.216-1.028 2.585 1.021 1.489 1.111-.595 2.42-.834 2.909-.532 1.335.825 4.07-.49 4.07-1.957 0-1.139 1.608-2.32 3-2.204 2.064.172 5-2.728 5-4.94 0-2.245-.318-2.493-2.5-1.945-1.845.463-2.5.229-2.5-.892 0-.835.402-1.519.893-1.519s1.152-.675 1.469-1.5c.604-1.576-.424-1.745-3.968-.65M57.416 46.477c-.531 2.119-.132 3.261 1.822 5.215l2.502 2.503-1.155-4.549c-1.46-5.752-2.308-6.599-3.169-3.169M7.25 47.689c.963.252 2.537.252 3.5 0 .963-.251.175-.457-1.75-.457s-2.713.206-1.75.457m107.908 12.376c-1.289.517-2.72.706-3.181.421s-1.162.004-1.557.643c-.501.811.088 1.007 1.955.65 1.47-.281 2.853-.219 3.074.139.797 1.288 8.551-.092 8.551-1.523 0-1.615-5.154-1.807-8.842-.33m-72.671 5.129C41.802 67.925 42.435 70 43.952 70c1.566 0 1.834-2.597.522-5.049l-1.311-2.449zm67.533 2.282c-.789.95-.865 1.524-.201 1.524 1.208 0 2.617-1.897 1.924-2.591-.252-.251-1.027.229-1.723 1.067m30.243 1.774c-1.765 1.237-3.443 2.841-3.729 3.563s.89.309 2.612-.917c2.704-1.925 3.542-2.075 6.139-1.094 3.979 1.501 5.366.497 2.612-1.892-2.816-2.442-3.724-2.402-7.634.34M82.5 72c-.34.55-1.716 1-3.059 1S77 73.45 77 74s.986 1 2.191 1c2.083 0 2.1.066.347 1.348-1.014.742-1.535 1.847-1.159 2.456.377.61-.005 2.758-.847 4.774C76.689 85.594 76 88.49 76 90.014c0 2.284.681 3.041 3.893 4.326 7.832 3.134 15.094-1.905 15.103-10.479.005-4.561-2.351-7.434-7.496-9.141-2.2-.73-3.888-1.866-3.75-2.524.304-1.454-.404-1.566-1.25-.196m50.372 4.75c-1.243 1.586-1.208 1.621.378.378.963-.755 1.75-1.543 1.75-1.75 0-.823-.821-.294-2.128 1.372m-60.489 1.744q-2.884 2.628-.883 1.701c1.1-.508 2.521-.737 3.158-.507 1.578.569 2.804-1.626 1.588-2.842-.639-.639-1.981-.067-3.863 1.648M121 76.906c0 .499-.792.7-1.761.446-1.095-.286-2.891.753-4.75 2.749-1.644 1.764-2.426 2.887-1.739 2.495 1.754-1.002 1.564.898-.239 2.395-1.687 1.4-1.118 3.009 1.063 3.009C114.911 88 126 81.181 126 80.358c0-.549-3.933-4.358-4.5-4.358-.275 0-.5.408-.5.906M83 85c0 .55.45 1 1 1s1-.45 1-1-.45-1-1-1-1 .45-1 1m108 5c0 1.187 1.737 1.187 4.5 0 1.676-.72 1.474-.871-1.25-.93-1.787-.038-3.25.38-3.25.93m-3.333 15.667c-1.159 1.159-.722 5.042.7 6.223 1.033.857 1.643.803 2.492-.22.618-.745.892-1.586.608-1.87-.283-.283.171-1.084 1.009-1.78s1.524-1.66 1.524-2.142c0-1.021-5.346-1.199-6.333-.211m-67.524 7.24c-1.006.625-1.053 1.03-.183 1.568 1.372.848 2.402.097 1.894-1.38-.208-.606-.914-.683-1.711-.188m-75.33 3.776c.721.289 1.584.253 1.916-.079s-.258-.568-1.312-.525c-1.165.048-1.402.285-.604.604m72.212 1.787c-1.565 1.886.286 2.754 2.468 1.159 1.571-1.149 1.598-1.38.22-1.909-.862-.33-2.072.007-2.688.75m35.402 2.051c2.055 1.555 3.203 1.308 2.114-.454-.362-.587-1.42-1.053-2.35-1.035-1.485.028-1.456.209.236 1.489m36.652.062c.048 1.165.285 1.402.604.605.289-.722.253-1.585-.079-1.917s-.568.258-.525 1.312M112 123c0 .55.45 1 1 1s1-.45 1-1-.45-1-1-1-1 .45-1 1m-17.092 3.057c-.722.446-1.697.573-2.167.283-1.304-.806-5.411.473-7.171 2.233-2.012 2.012-2.054 9.27-.076 13.063.821 1.575 1.496 3.651 1.5 4.614.014 4.024 4.469.011 9.524-8.578 3.463-5.884 3.815-6.844 3.6-9.805-.137-1.896-3.296-2.993-5.21-1.81m15.235 2.837c-.945.597-1.021 1.063-.25 1.54.609.376 1.107.346 1.107-.066 0-.413.661.123 1.468 1.191.808 1.067 1.483 1.465 1.5.882.064-2.11-2.433-4.426-3.825-3.547m15.244.856c.404.69.231 1.25-.387 1.25-.615 0-.825.474-.467 1.053s1.152.885 1.766.681c.613-.205 2.882 1.459 5.042 3.697l3.926 4.069-3.023-4c-3.002-3.971-8.257-9.145-6.857-6.75m7.752 3.164c1.299 1.053 2.553 1.723 2.788 1.49.514-.511-3.067-3.327-4.288-3.372-.473-.018.202.829 1.5 1.882M141 139.5c1.292 1.375 2.574 2.5 2.849 2.5s-.557-1.125-1.849-2.5-2.574-2.5-2.849-2.5.557 1.125 1.849 2.5m-79.239 5.972c1.244.912 3.944 1.861 6 2.111l3.739.453-3.5-1.375c-1.925-.756-4.625-1.706-6-2.111l-2.5-.735zM145 144.378c0 .207.787.995 1.75 1.75 1.586 1.243 1.621 1.208.378-.378-1.307-1.666-2.128-2.195-2.128-1.372M141 148c.589 1.1 1.295 2 1.57 2s.019-.9-.57-2-1.295-2-1.57-2-.019.9.57 2m-15 1.882c0 .55.45 1.278 1 1.618s1 .168 1-.382-.45-1.278-1-1.618-1-.168-1 .382m-30.657 7.666c-.793 2.068 2.423 4.319 6.029 4.22l2.873-.079-3.258-2.845c-3.711-3.239-4.802-3.49-5.644-1.296M136 187.5c0 .917.484 1.505 1.075 1.308s1.075-.786 1.075-1.308-.484-1.111-1.075-1.308-1.075.391-1.075 1.308m6.5 2.5c.34.55.816 1 1.059 1s.441-.45.441-1-.477-1-1.059-1-.781.45-.441 1m-111.758 1.732c-1.64 1.813-1.569 2.043 1.568 5.083 2.024 1.962 4.309 3.185 5.952 3.185h2.667l-2.02-2.25c-1.111-1.238-3.017-3.525-4.234-5.083-2.161-2.764-2.256-2.787-3.933-.935M41.5 191c.34.55 1.068 1 1.618 1s.722-.45.382-1-1.068-1-1.618-1-.722.45-.382 1m64.5 5c0 .55.45 1 1 1s1-.45 1-1-.45-1-1-1-1 .45-1 1m-26.639 3.225c-.263.426.646.775 2.021.775s2.776-.447 3.114-.993c.358-.579-.486-.903-2.021-.776-1.449.12-2.85.567-3.114.994"/><path fill-opacity=".226" fill-rule="evenodd" d="M85.723 3.359c-2.439 2.234-5.457 3.721-9.407 4.633-3.199.739-6.349 1.749-7.001 2.244C67.842 11.355 64 18.626 64 20.293c0 .678-1.164 2.107-2.587 3.175-2.495 1.874-5.433 2.956-24.891 9.166-4.938 1.576-10.401 3.831-12.14 5.011l-3.161 2.145-2.09-2.827c-1.205-1.63-3.238-2.961-4.803-3.145-2.133-.25-2.897-1.037-3.578-3.681-.799-3.103-1.103-3.316-3.933-2.75-1.687.337-3.911.613-4.942.613C.198 28 0 28.844 0 35.972v7.972l5.553 1.615c3.055.887 6.265 1.341 7.135 1.007 2.83-1.086 7.987.544 11.301 3.571 2.881 2.632 3.426 2.8 4.877 1.507.899-.801 4.784-1.77 8.634-2.154s7.997-1.326 9.215-2.094S49.811 46 50.889 46c1.077 0 3.006-1.38 4.285-3.066 5.919-7.801 10.288-11.896 16.909-15.845 6.383-3.807 7.934-4.301 14.289-4.552 6.27-.248 36.818-7.3 39.917-9.215 2.052-1.269 12.335-1.049 19.711.422 7.304 1.456 22.025 8.55 32.39 15.607 3.994 2.721 8.006 3.436 9.124 1.627.347-.563 3.299-2.369 6.559-4.015L200 23.971V.016l-55.343.027L89.315.07zm40.861 1.891c1.042 1.238 1.955 2.38 2.028 2.54.074.159.374-.629.668-1.752.293-1.122.125-1.789-.373-1.48-.499.308-.907.083-.907-.499S127.255 3 126.345 3c-1.469 0-1.442.253.239 2.25M13.75 50.758c-3.312 2.053-3.419 3.147-.606 6.167l2.145 2.301-2.145-.68c-1.535-.487-2.144-.259-2.144.803 0 .817-.436 1.634-.968 1.818-.624.215-.624.866 0 1.833.86 1.333 1.077 1.333 1.953 0 .782-1.191.988-.975 1 1.05.025 4.153 4.968 7.285 5.05 3.2.029-1.402.288-1.297 1.302.531.697 1.255 1.679 1.93 2.182 1.5s.312.006-.424.969c-1.179 1.54-1.081 1.75.818 1.75 1.746 0 1.979.334 1.219 1.753-.697 1.303-.322 2.522 1.46 4.75 1.319 1.648 2.4 3.56 2.403 4.247.003.688.98 1.25 2.172 1.25 1.191 0 1.899.268 1.572.594-.94.941 2.936 6.657 5.466 8.061 1.262.701 1.722 1.29 1.022 1.31-.962.026-.899.605.253 2.365.84 1.281 1.247 2.609.906 2.951s.57.921 2.028 1.287c2.359.592 2.468.798.991 1.878-1.316.962-1.432 1.635-.563 3.258 1.389 2.596 4.736 3.51 6.236 1.702 1.637-1.972-1.191-7.555-11.965-23.618-8.947-13.341-9.65-15.08-10.217-25.288-.156-2.821-2.084-7.862-3.339-8.735-1.747-1.214-4.892-.814-7.807.993M29.868 55.5c-.348.55-.944 2.575-1.325 4.5s-.914 4.287-1.185 5.25c-.314 1.116.059 1.75 1.029 1.75.934 0 1.765-1.291 2.149-3.342.729-3.885.259-9.624-.668-8.158M.035 132l-.01 68 7.238-.015c3.98-.009 7.72-.346 8.31-.75 1.271-.87 2.834-4.352 2.533-5.643-.116-.5.339-1.249 1.012-1.665.936-.578.843-1.337-.395-3.227-1.577-2.406-1.546-2.485 1.159-3.026C24.626 184.725 31.856 177 28 177c-1.828 0-1.032-2.179.989-2.707 1.094-.286 1.742-.919 1.441-1.407-.302-.487.015-.886.702-.886.688 0 .377-.661-.691-1.468-1.892-1.432-1.885-1.469.309-1.5 1.497-.021 2.25-.641 2.25-1.852 0-1 1.125-2.798 2.5-3.993 2.656-2.309 3.271-6.016 1.322-7.965-.904-.904-.205-2.159 3-5.397 2.298-2.321 4.178-4.607 4.178-5.081s.393-.619.874-.322c1.083.67 6.478-4.211 6.757-6.113.406-2.766-8.122 1.391-12.572 6.129-2.471 2.629-4.059 3.271-4.059 1.639 0-.508 3.141-3.012 6.98-5.564s7.216-5.021 7.504-5.487c.892-1.443-.614-4.027-2.341-4.016-1.661.01-8.768 3.283-15.083 6.947-4.095 2.375-4.905 1.981-2.733-1.333.903-1.378 3.679-3.147 6.385-4.067 5.695-1.938 10.373-4.472 8.347-4.522-1.19-.029-1.167-.253.13-1.285 1.389-1.106 1.405-1.638.144-4.608-1.254-2.952-1.753-3.277-4.13-2.696-1.487.364-3.552.661-4.589.66s-4.059 1.099-6.716 2.446c-5.562 2.818-6.628 3.033-4.935.992.665-.801 4.769-2.713 9.12-4.25 4.352-1.537 7.913-3.272 7.914-3.855.005-1.696-3.914-5.432-5.786-5.518-1.043-.048-1.223-.276-.461-.583 3.372-1.361-.966-7.319-5.367-7.373l-2.883-.036 2.385-1.322c1.693-.939 2.026-1.544 1.148-2.087-.68-.42-1.872-2.284-2.648-4.142C26.608 92.52 25.541 91 25.012 91c-.528 0-1.714-1.463-2.635-3.25s-2.508-3.838-3.526-4.557C17.833 82.475 17 81.205 17 80.372 17 78.623 14.643 76 13.071 76c-.589 0-1.022-.338-.963-.75s-.227-1.799-.638-3.081c-.523-1.637-1.3-2.185-2.608-1.843-1.024.268-1.862.057-1.862-.468 0-1.044-5.057-5.776-6.227-5.826C.373 64.014.041 94.6.035 132M83.2 76.512c-1.815.788-3.183 2.008-3.04 2.711s-.326 2.337-1.042 3.632c-.805 1.457-1.061 3.746-.672 6 .439 2.548.332 3.202-.355 2.174-.54-.809-1.227-1.226-1.526-.927-1.46 1.459 2.46 4.201 6.595 4.614 3.772.376 4.994.025 7.632-2.194 5.796-4.878 5.205-14.282-1.036-16.457-1.68-.586-3.1-1.047-3.155-1.026-.056.022-1.586.684-3.401 1.473m51.3 4.905c-7.324 3.269-11.529 11.615-7.666 15.214 5.494 5.118 21.759 5.8 25.655 1.076 1.106-1.341 2.861-3.477 3.899-4.746l1.888-2.307-4.485-4.238c-6.264-5.918-13.203-7.716-19.291-4.999M84.5 83c.34.55.141 1-.441 1S83 84.45 83 85c0 1.926 2.576.98 2.725-1 .083-1.1-.298-2-.846-2s-.719.45-.379 1m51.825 4.658c.362.362.156 1.262-.456 2-.84 1.013-.775 1.342.268 1.342.76 0 1.944-.9 2.631-2 1.105-1.77.999-2-.926-2-1.197 0-1.879.296-1.517.658M166 90.04c0 .42 1.356 1.237 3.013 1.815s3.281 1.746 3.607 2.598.996 1.547 1.487 1.547c3.03 0-2.073-6.063-5.412-6.429-1.482-.163-2.695.048-2.695.469m-62 9.105c0 .802-1.915.965-6.411.546-7.342-.686-8.787.551-5.861 5.016.937 1.431 1.72 3.545 1.738 4.698.049 3.002 3.66 3.183 7.146.358 1.588-1.288 4.05-2.842 5.471-3.455 2.911-1.254 3.509-4.308.844-4.308-1.247 0-1.592-.566-1.217-2 .293-1.118.031-2-.593-2-.615 0-1.117.515-1.117 1.145m-82.187 3.538c.721.289 1.584.253 1.916-.079s-.258-.568-1.312-.525c-1.165.048-1.402.285-.604.604m152.079.588c-.059.126-.194 1.579-.299 3.229s-.716 3.953-1.357 5.119-.858 2.426-.481 2.802c.376.377-.09.388-1.035.025-.988-.379-1.72-.189-1.72.447 0 .609-.675 1.107-1.5 1.107s-1.5-.45-1.5-1-.9-1-2-1c-1.182 0-2 .667-2 1.631 0 1.317-.7 1.517-3.636 1.041l-3.636-.59 2.292 2.439c1.714 1.825 2.919 2.281 4.785 1.813 1.737-.436 2.278-.278 1.785.52-.393.637-.127 1.153.601 1.161 1.001.012.976.227-.108.912-.837.53-2.393.525-3.807-.012-1.685-.641-2.189-.583-1.708.195.463.748-.083.891-1.693.441-1.306-.364 1.705 1.322 6.693 3.748 4.987 2.425 10.725 4.721 12.75 5.101 2.581.484 3.682 1.215 3.682 2.445 0 .965.54 2.295 1.2 2.955.933.933.831 1.2-.461 1.2-.914 0-2.466-.82-3.45-1.823-5.641-5.747-25.105-14.493-34.982-15.717-1.206-.149-2.621-.536-3.145-.86s-1.205.069-1.514.874c-.701 1.827-.171 2.148 6.472 3.915 6.425 1.71 17.35 6.474 16.59 7.234-.296.297-1.477.037-2.624-.577-1.314-.703-2.086-.746-2.086-.116 0 1.651 6.095 8.07 7.663 8.07.8 0 1.165.47.81 1.044s-.044 1.772.691 2.662c.735.891.886 1.419.336 1.175-.55-.245-2.125-.96-3.5-1.589a180 180 0 0 0-5.761-2.467c-1.879-.762-3.058-1.854-2.782-2.574.264-.688.097-1.251-.372-1.251s-1.068-.828-1.333-1.839-2.904-3.252-5.866-4.978-4.711-3.143-3.886-3.149c.825-.005 3.458 1.11 5.852 2.478 4.655 2.661 6.148 3.04 6.148 1.56 0-1.092-10.02-5.011-14.865-5.814-3.192-.528-3.306-.446-2.215 1.592.876 1.637.868 2.15-.033 2.15-.651 0 .229 1.35 1.956 3s2.719 3 2.207 3c-.513 0-1.209-.448-1.547-.995-.727-1.177-4.503-3.312-4.503-2.546 0 1.162 17.204 19.142 19.695 20.584 3.048 1.764 4.437 4.329 1.795 3.315-1.452-.557-1.396-.095.417 3.459 2.327 4.562 2.833 7.193.589 3.064-.91-1.676-3.026-3.148-5.872-4.084l-4.448-1.465.89 2.341c.489 1.287 1.602 3.718 2.473 5.402.87 1.683 1.398 3.593 1.173 4.243s-1.45-1.222-2.723-4.16c-2.54-5.864-5.634-7.981-7.698-5.269-.915 1.201-1.235 1.266-1.259.254-.018-.748-.662-1.115-1.434-.819s-1.709.232-2.084-.143c-.96-.96-6.514-.851-6.514.128 0 .445-.395.565-.878.266s-1.2.913-1.594 2.691c-.393 1.779-.935 2.672-1.205 1.984-.514-1.312-8.969-1.72-13.037-.629-1.893.507-2.012.796-.822 1.986.766.766 1.806 1.393 2.31 1.393 1.209 0 4.803 3.991 3.631 4.032-.498.017-.041.685 1.014 1.484 1.845 1.396 1.851 1.529.135 3.424-1.575 1.741-1.611 2.146-.305 3.452 1.008 1.008 1.805 1.154 2.502.457.698-.698 1.237-.677 1.695.064.865 1.4 6.554 1.424 6.554.028 0-.582.457-.776 1.016-.431s.758 1.047.441 1.559c-.316.512.325.931 1.425.931s2.278-.45 2.618-1c1.011-1.636 2.489-1.135 1.817.616-.524 1.366-.296 1.443 1.471.498 1.375-.737 2.303-.776 2.71-.117.341.552-.082 1.003-.939 1.003s-1.559.288-1.559.64c0 1.118 3.434 3.295 5.25 3.328.963.018 1.75.707 1.75 1.532s.482 1.5 1.071 1.5c1.637 0 3.641 2.365 3.179 3.75-.226.678.35 1.993 1.281 2.923 1.588 1.589 1.585 1.769-.044 2.96-1.42 1.038 2.834 1.28 23.379 1.33l25.114.061-.21-2.534c-.123-1.482-.701-2.347-1.392-2.081-2.101.806-2.424-.689-.448-2.073 1.834-1.284 1.922-3.141 2.029-42.839.11-40.559.068-41.497-1.844-41.497-1.399 0-2.152.925-2.644 3.25-.378 1.787-1.48 4.15-2.449 5.25s-1.746 3.462-1.725 5.25c.044 3.969-.853 5.017-3.095 3.614-1.965-1.231-2.77-6.527-1.371-9.027.526-.939.614-2.411.196-3.272-1.166-2.405-3.203-8.428-3.286-9.718-.054-.843-.7-.867-2.408-.089-1.674.763-3.039.741-4.833-.076-1.375-.627-2.549-1.036-2.608-.911m-77.161 2.809c.354 1.352.807 1.806 1.057 1.057.24-.722-.038-1.787-.62-2.369-.742-.742-.872-.351-.437 1.312m-95.698 3.67c.059 1.335 3.998 5.552 4.612 4.938 1.324-1.324-.72-5.688-2.664-5.688-1.09 0-1.966.338-1.948.75M43 110.809c0 .445.592 1.619 1.316 2.609 1.741 2.38 5.098 1.662 5.504-1.178.279-1.961-.125-2.24-3.25-2.24-1.964 0-3.57.364-3.57.809M125.5 116c.34.55 1.068 1 1.618 1s.722-.45.382-1-1.068-1-1.618-1-.722.45-.382 1M46 117.378c0 1.56 3.239 7.622 4.072 7.622.576 0 .794.408.486.907-.309.498.378.661 1.525.361s1.662-.821 1.143-1.157-.809-1.48-.646-2.542c.464-3.027-1.414-5.569-4.115-5.569-1.356 0-2.465.17-2.465.378m44.42 5.937-2.691 2.315 3.885-.383c6.032-.596 6.831-1.006 5.376-2.759-1.724-2.078-3.445-1.861-6.57.827m-60.114 1.1c-1.543 1.328-2.548 2.673-2.233 2.989.315.317 1.862-.77 3.437-2.414 3.442-3.593 2.709-3.943-1.204-.575M129 124c1.97 1.273 4.287 1.273 3.5 0-.34-.55-1.604-.993-2.809-.985-1.781.013-1.91.197-.691.985m-43.5 2c-.34.55-.141 1 .441 1S87 126.55 87 126s-.198-1-.441-1-.719.45-1.059 1m34 0c.34.55.816 1 1.059 1s.441-.45.441-1-.477-1-1.059-1-.781.45-.441 1m-103.628 2.664c-1.244 1.508-1.162 1.552.878.465 2.327-1.24 2.9-2.129 1.372-2.129-.482 0-1.495.749-2.25 1.664m37.378-.572c-1.237.464-2.25 1.046-2.25 1.294 0 1.563 1.41 3.614 2.485 3.614 1.895 0 3.354-2.277 2.641-4.125-.47-1.22-1.187-1.416-2.876-.783m70.75-.627c0 .255.89.941 1.977 1.523 1.614.863 1.87.778 1.394-.465-.518-1.35-3.371-2.245-3.371-1.058m-24.212 8.997a2162 2162 0 0 0-5.842 12.75c-2.194 4.852-5.066 6.763-7.336 4.879-1.424-1.181-2.61-.48-2.61 1.544 0 .747.64 1.057 1.5.727.99-.38 1.527.056 1.579 1.281.045 1.053.297 1.316.583.607.608-1.507 2.338-1.668 2.338-.218 0 .568-1.01 1.406-2.244 1.862-1.971.73-1.782.884 1.556 1.274 3.72.434 3.844.341 5.889-4.414 1.588-3.69 2.475-4.698 3.694-4.197 4.668 1.919 8.416 2.558 9.044 1.542.364-.59 2.215-1.238 4.112-1.441 2.395-.255 3.815-1.089 4.648-2.727 1.058-2.082 1.278-2.154 1.868-.616.636 1.655.734 1.656 1.94.006.699-.955 1.07-2.26.824-2.9-.245-.64.255-1.432 1.112-1.761 1.869-.717 2.047-4.669.307-6.829-1.719-2.134-4.518-2.969-5.109-1.525-.358.874-.75.82-1.464-.202-.536-.767-1.695-1.119-2.574-.782-1.035.397-2.163-.248-3.201-1.831-.88-1.344-2.794-3.034-4.252-3.756-2.65-1.311-2.65-1.311-6.362 6.727m30.287-3.763c.772.991 3.771 4.465 6.665 7.721 2.893 3.257 5.26 6.252 5.26 6.657s.9.5 2 .213c2.025-.53 2.803 1.096 1.044 2.183-.526.325-.706 1.243-.4 2.041.419 1.092 1.025 1.198 2.456.433 1.298-.695 1.9-.689 1.9.018 0 .569.505 1.035 1.122 1.035.797 0 .775-.419-.073-1.441-.657-.792-1.889-1.174-2.738-.848-1.186.455-1.392.118-.891-1.458.482-1.519-.436-3.307-3.545-6.902-3.957-4.576-15.814-13.517-12.8-9.652m-74.944 1.643c-.612.738-.849 1.607-.525 1.931.967.966 3.394-.378 3.394-1.88 0-1.767-1.423-1.793-2.869-.051m69.428 2.488c.439 4.557 2.904 10.17 4.467 10.17.536 0 .974-.485.974-1.077s1.191.34 2.648 2.07c2 2.378 2.852 2.824 3.484 1.827.461-.726.837-1.77.837-2.32s-.386-.389-.859.357c-.662 1.043-1.034 1.075-1.613.138a1.437 1.437 0 0 1 .464-1.971c.916-.566.704-1.76-.857-4.82-2.216-4.344-3.455-5.467-6.561-5.95-1.076-.168-2.278-.826-2.672-1.463s-.534.73-.312 3.039M7.507 134.989c-.35.566.051.734.941.393 1.732-.665 2.049-1.382.611-1.382-.518 0-1.216.445-1.552.989M137 144c.589 1.1 1.295 2 1.57 2s.019-.9-.57-2-1.295-2-1.57-2-.019.9.57 2m-6.391 6.824c-.353.571-.154 1.339.441 1.707 1.486.918 2.012.188 1.021-1.417-.532-.859-1.047-.962-1.462-.29m40.399.856c.004.451 1.156 1.353 2.561 2.005 2.217 1.029 2.51.963 2.232-.5-.319-1.67-4.808-3.079-4.793-1.505m-48.35 20.871c.607 1.582 2.342 1.994 2.342.556 0-.491-.652-1.143-1.449-1.449q-1.452-.56-.893.893m30.412 3.14c-.038 1.205.38 2.469.93 2.809 1.183.731 1.183-.248 0-3-.829-1.928-.862-1.921-.93.191m-8.873 5.684c.248 1.738.88 2.067 3.473 1.808 1.744-.174 4.556.4 6.25 1.276 1.736.897 3.08 1.145 3.08.567 0-.564 1.012-1.062 2.25-1.105 1.397-.049 1.682-.268.75-.579a65 65 0 0 1-3-1.101c-.825-.33-2.175-.73-3-.888s-3.436-.698-5.803-1.197c-4.05-.854-4.286-.782-4 1.219M162 184.393c0 .216.675.652 1.5.969s1.5.139 1.5-.393c0-.533-.675-.969-1.5-.969s-1.5.177-1.5.393m-6.569 5.719c-.378.611-.249 1.399.287 1.75s1.277 1.876 1.647 3.388c.686 2.803 2.023 3.549 3.135 1.75.34-.55 1.604-.948 2.809-.884 1.692.09 1.792.22.441.573-.963.252-1.75.833-1.75 1.291 0 1.033 3.829.106 4.579-1.108.72-1.166-2.024-3.872-3.926-3.872-2.579 0-4.653-1.162-4.653-2.607 0-1.667-1.604-1.842-2.569-.281m-33.878 6.054c.746 2.35-2.075 2.521-2.974.181-.572-1.491-.776-1.467-2.075.25-.792 1.046-1.455 2.241-1.472 2.653-.018.412 3.809.75 8.503.75 8.052 0 8.478-.107 7.527-1.885-.94-1.756-4.163-3.147-8.327-3.594-1.289-.138-1.607.305-1.182 1.645"/><path fill-opacity=".854" fill-rule="evenodd" d="M87.706 4.122c-4.412 3.782-7.503 5.138-15 6.58-2.087.402-3.395 1.724-5.17 5.228-1.308 2.579-2.3 5.544-2.207 6.587.227 2.52-1.851 3.448-21.406 9.557-9.033 2.823-17.435 5.771-18.673 6.552-3.027 1.91-3.096 7.844-.129 11.003 1.873 1.993 2.371 2.101 4.25.919 1.171-.737 5.189-1.65 8.928-2.029s8.015-1.323 9.5-2.098c1.486-.775 3.446-1.411 4.356-1.415.91-.003 2.791-1.944 4.179-4.314C58.908 36.301 67.154 28 68.943 28c.543 0 3.116-1.35 5.718-3 3.905-2.476 5.788-3.002 10.785-3.012 5.316-.01 32.802-5.903 34.24-7.341.718-.717-2.373-9.756-4.255-12.442C114.002.165 113.088 0 103.193.006L92.5.013zM160 8.951v8.951l6.75 3.675c3.713 2.021 8.55 4.898 10.75 6.393 5.706 3.879 7.894 4.19 11.38 1.618 1.639-1.209 4.807-3.074 7.039-4.143l4.058-1.945.012-11.75L200 0h-40zM0 36.34v7.341l5.506 1.32c3.028.727 5.758 1.069 6.067.76.308-.309.003-4.206-.679-8.661L9.654 29H0zm82.25 44.102c-3.831 4.13-4.219 8.057-1.177 11.923 2.778 3.533 5.444 3.318 9.527-.765 2.727-2.727 3.4-4.187 3.4-7.378 0-4.412-1.274-5.948-5.595-6.747-2.392-.443-3.479.081-6.155 2.967m2.5.247c-2.091.547-2.381 4.855-.378 5.623.769.295 2.283-.706 3.446-2.28 2.715-3.671 1.839-4.625-3.068-3.343m48.584 1.539c-5.245 3.08-8.862 11.226-6.336 14.27 1.607 1.936 4.002 1.937 4.002.002 0-2.357 1.424-1.771 3.928 1.616 2.075 2.807 2.7 3.063 6.299 2.58 4.532-.607 9.204-4.468 10.354-8.556l.743-2.64.681 3c.557 2.455.82 2.682 1.446 1.248 2.411-5.523-4.446-11.948-13.299-12.463-3.357-.195-6.531.188-7.818.943m4.041 3.757c-1.334.539-2.293 2.004-2.577 3.937-.546 3.724.126 3.853 3.173.609 1.276-1.358 2.657-2.261 3.07-2.006s.993-.172 1.291-.948c.412-1.073-1.557-2.931-2.664-2.514-.092.035-1.124.45-2.293.922M37.97 90.944c.573 1.07 1.535 2.25 2.139 2.623s.325-.501-.62-1.944c-2.002-3.055-3.038-3.518-1.519-.679m3.827 7.033c.936 1.638 1.845 2.563 2.018 2.056.431-1.261-1.67-5.033-2.804-5.033-.505 0-.151 1.34.786 2.977M43.71 105c.288 1.1.921 2 1.407 2 .485 0 .883-.9.883-2s-.633-2-1.406-2c-.914 0-1.224.7-.884 2m56.814-1.19c-.288.288-.524 1.552-.524 2.81 0 2.253.045 2.261 2.994.583 1.646-.936 2.996-1.988 3-2.336.008-.819-4.783-1.745-5.47-1.057M92.5 123c-.34.55.084 1 .941 1S95 123.55 95 123s-.423-1-.941-1-1.219.45-1.559 1m101.642 1.081c-1.297 1.053-2.118 2.539-1.825 3.303.375.976-.04 1.24-1.392.886-1.508-.394-1.925.02-1.925 1.913 0 1.33-.54 2.957-1.2 3.617-.933.933-.62 1.2 1.411 1.2 4.274 0 9.992-8.045 8.1-11.396-.682-1.209-1.185-1.133-3.169.477M179 125c0 .55.477 1 1.059 1s.781-.45.441-1-.816-1-1.059-1-.441.45-.441 1m-20.559 2.445c1.068.855 2.38 1.555 2.917 1.555 1.27 0 .703-.462-2.358-1.92-2.357-1.122-2.389-1.102-.559.365m38.352 3.182c-2.179 3.509-3.56 4.586-7.091 5.53l-4.384 1.173 1.524 3.085c.839 1.697 3.495 6.17 5.902 9.941 2.408 3.77 4.219 7.015 4.024 7.21s-2.952-3.236-6.126-7.625-6.223-7.7-6.775-7.359-.8 1.151-.551 1.8c.249.648-1.07 2.45-2.932 4.003-2.608 2.176-3.281 3.401-2.93 5.336.479 2.64-1.853 6.06-2.937 4.307-.686-1.11-4.272.586-6.106 2.889-.62.779-2.195 1.58-3.498 1.779-3.305.504-4.125 1.609-3.385 4.559.41 1.635 1.501 2.709 3.055 3.006 2.815.538 3.434-1.849.667-2.572-1.264-.33-1.099-.489.596-.573 1.29-.064 3.613-1.019 5.162-2.122 2.566-1.827 2.795-1.849 2.57-.25-.136.966-1.455 2.347-2.932 3.07-2.895 1.417-2.699 3.186.354 3.186 2.891 0 3.282 1.689.794 3.432-1.248.874-1.642 1.568-.892 1.568.978 0 1.175.863.719 3.143-.704 3.524.667 5.857 3.442 5.857 1.001 0 2.141.521 2.534 1.158.491.793.037.98-1.441.593-1.263-.33-2.209-.085-2.285.593-.576 5.161-.624 7.53-.201 9.906.488 2.743.511 2.75 8.878 2.75 9.458 0 9.743-.451 4.283-6.785-3.145-3.649-3.586-6.343-1.342-8.206.819-.68 1.252-1.619.962-2.089-.598-.966 6.408-7.911 8.007-7.937.573-.01 2.089-1.122 3.369-2.471 2.226-2.348 2.315-3.021 2.05-15.548-.153-7.201-.686-13.346-1.184-13.654-.499-.308-.388-.88.245-1.272.749-.463 1.049-3.343.857-8.24l-.295-7.529zm-93.081 8.091c-2.041 3.571-3.712 6.951-3.712 7.512 0 1.494 6.278.04 7.626-1.766.882-1.181 1.711-1.286 3.816-.486 3.858 1.467 4.267 1.326 4.838-1.665.713-3.726-.1-5.294-2.612-5.034-1.384.143-2.491-.567-3.133-2.01-1.723-3.872-3.008-3.223-6.823 3.449m14.288.352c0 1.555.539 1.99 2.172 1.75 1.194-.176 2.353-.995 2.576-1.82.322-1.193.213-1.227-.533-.166-.76 1.083-1.051 1.036-1.544-.25-.875-2.278-2.671-1.952-2.671.486m56.5 2.93c.34.55 1.266 1 2.059 1s1.441-.45 1.441-1-.927-1-2.059-1-1.781.45-1.441 1m-56.806 21.639c-1.134 1.134.356 2.361 2.865 2.361 1.343 0 2.441-.477 2.441-1.059s-.419-.8-.931-.484-1.213.118-1.559-.441c-.716-1.158-1.879-1.314-2.816-.377m9.808 1.358c-.998 1.615.563 3.219 2.611 2.684 1.189-.311 1.887.027 1.887.913 0 .773.45 1.406 1 1.406s1-.508 1-1.128c0-.756 1.32-.917 4-.488 3.103.496 4 .318 4-.793 0-1.556-4.012-2.641-8-2.164-1.375.164-3.26-.091-4.189-.567-1.018-.521-1.936-.467-2.309.137m29.375 3.268c-.777.778-2.08 1.675-2.895 1.995-1.297.509-1.294.58.018.561 3.46-.047 5.936-1.328 5.115-2.645-.678-1.089-1.075-1.073-2.238.089m-11.29.64c1.698.427 3.669 1.135 4.38 1.575q1.295.802.835-.591c-.271-.824-2.052-1.465-4.379-1.575-3.722-.176-3.765-.146-.836.591"/></svg>