<svg xmlns="http://www.w3.org/2000/svg" width="100" height="100" version="1.1" fill="#000000"><path fill-opacity=".114" d="M 38.286 11.394 C 27.872 14.788, 17.925 23.658, 13.180 33.782 C 10.805 38.848, 10.500 40.699, 10.500 50.021 C 10.500 59.859, 10.710 60.968, 13.734 67.110 C 17.681 75.128, 25.726 83.045, 33.747 86.804 C 38.853 89.197, 40.684 89.500, 50.021 89.500 C 59.859 89.500, 60.968 89.290, 67.110 86.266 C 75.128 82.319, 83.045 74.274, 86.804 66.253 C 89.197 61.147, 89.500 59.316, 89.500 49.979 C 89.500 40.141, 89.290 39.032, 86.266 32.890 C 82.303 24.839, 74.233 16.918, 66.253 13.243 C 59.300 10.042, 45.279 9.115, 38.286 11.394 M 32 34 L 32 38 38.500 38 L 45 38 45 45 L 45 52 50 52 L 55 52 55 45 L 55 38 61.500 38 L 68 38 68 34 L 68 30 50 30 L 32 30 32 34 M 26.574 48.902 C 25.261 50.995, 28.182 52.652, 35.399 53.909 C 38.844 54.509, 42.414 55, 43.332 55 C 44.772 55, 45 56.297, 45 64.500 L 45 74 50 74 L 55 74 55 64.500 C 55 56.297, 55.228 55, 56.668 55 C 60.600 55, 71.015 52.709, 72.683 51.476 C 74.139 50.401, 74.252 49.883, 73.250 48.867 C 72.243 47.846, 72 47.915, 72 49.222 C 72 52.218, 65.406 53.500, 50 53.500 C 34.689 53.500, 28.401 52.281, 27.789 49.193 C 27.513 47.803, 27.295 47.751, 26.574 48.902" stroke="none" fill="#000000" fill-rule="evenodd"/><path fill-opacity=".141" d="M 40.618 11.048 C 34.290 12.638, 25.284 17.968, 20.912 22.711 C 18.667 25.147, 15.405 30.147, 13.665 33.820 C 10.799 39.869, 10.500 41.402, 10.500 50.052 C 10.500 59.067, 10.710 60.028, 14.235 67.160 C 18.733 76.262, 24.523 81.931, 33.820 86.335 C 39.861 89.197, 41.409 89.500, 50 89.500 C 58.591 89.500, 60.139 89.197, 66.180 86.335 C 75.477 81.931, 81.267 76.262, 85.765 67.160 C 89.294 60.020, 89.500 59.075, 89.500 50 C 89.500 40.925, 89.294 39.980, 85.765 32.840 C 79.008 19.167, 67.003 11.144, 52.249 10.442 C 47.987 10.239, 42.753 10.512, 40.618 11.048 M 32 34.500 L 32 39 38.500 39 L 45 39 45 45.500 L 45 52 50 52 L 55 52 55 45.546 L 55 39.091 61.750 38.796 L 68.500 38.500 68.807 34.250 L 69.115 30 50.557 30 L 32 30 32 34.500 M 38.269 45.693 C 39.242 45.947, 40.592 45.930, 41.269 45.656 C 41.946 45.382, 41.150 45.175, 39.500 45.195 C 37.850 45.215, 37.296 45.439, 38.269 45.693 M 59.269 45.693 C 60.242 45.947, 61.592 45.930, 62.269 45.656 C 62.946 45.382, 62.150 45.175, 60.500 45.195 C 58.850 45.215, 58.296 45.439, 59.269 45.693 M 27.441 48.500 C 25.553 49.959, 25.551 50.039, 27.360 51.441 C 29.430 53.044, 37.503 55, 42.049 55 L 45 55 45 64.500 L 45 74 50 74 L 55 74 55 64.500 L 55 55 57.951 55 C 62.497 55, 70.570 53.044, 72.640 51.441 C 74.449 50.039, 74.447 49.959, 72.559 48.500 C 71.491 47.675, 70.168 47, 69.618 47 C 69.068 47, 69.419 47.586, 70.399 48.303 C 71.995 49.469, 72.019 49.739, 70.635 50.888 C 67.887 53.169, 50.087 54.541, 39.910 53.257 C 29.792 51.980, 26.642 50.466, 29.601 48.303 C 30.581 47.586, 30.932 47, 30.382 47 C 29.832 47, 28.509 47.675, 27.441 48.500" stroke="none" fill="#000000" fill-rule="evenodd"/><path fill-opacity=".124" d="M 40 11.603 C 28.696 14.627, 19.527 22.136, 14.440 32.533 C 2.690 56.549, 17.033 84.222, 43.813 89.202 C 64.584 93.065, 85.122 78.126, 89.202 56.187 C 91.991 41.191, 84.217 24.279, 70.863 16.292 C 61.002 10.394, 50.488 8.797, 40 11.603 M 31.688 29.645 C 31.310 30.024, 31 32.283, 31 34.667 L 31 39 38.066 39 L 45.133 39 44.816 41.750 C 44.524 44.293, 44.086 44.545, 38.992 45.092 C 25.457 46.548, 21.648 50.630, 31.182 53.461 C 34.031 54.308, 38.306 55, 40.682 55 L 45 55 45 65 L 45 75 50 75 L 55 75 55 65 L 55 55 59.318 55 C 61.694 55, 65.969 54.308, 68.818 53.461 C 78.352 50.630, 74.543 46.548, 61.008 45.092 C 55.914 44.545, 55.476 44.293, 55.184 41.750 L 54.867 39 61.988 39 L 69.110 39 68.805 34.250 L 68.500 29.500 50.438 29.228 C 40.505 29.079, 32.067 29.266, 31.688 29.645 M 33.157 46.995 C 24.486 49.045, 27.949 51.702, 41.059 53.059 C 55.333 54.535, 74.280 51.880, 71.230 48.830 C 69.918 47.518, 63.405 46.053, 58.750 46.024 C 55.245 46.002, 55 46.196, 55 49 C 55 51.933, 54.889 52, 50 52 C 45.111 52, 45 51.933, 45 49 C 45 46.121, 44.828 46.004, 40.750 46.102 C 38.413 46.159, 34.996 46.560, 33.157 46.995" stroke="none" fill="#000000" fill-rule="evenodd"/><path fill-opacity=".112" d="M 43.800 11.105 C 27.668 13.399, 13.366 27.810, 11.152 43.999 C 8.181 65.725, 23.011 85.978, 43.992 88.847 C 70.640 92.492, 92.492 70.643, 88.848 43.999 C 86.727 28.485, 72.382 13.437, 57.833 11.462 C 55.450 11.139, 52.600 10.744, 51.500 10.584 C 50.400 10.425, 46.935 10.659, 43.800 11.105 M 31 34 L 31 39 38 39 C 44.800 39, 45 39.071, 45 41.500 C 45 42.875, 44.663 44.003, 44.250 44.008 C 37.371 44.077, 25 47.928, 25 50 C 25 51.343, 29.939 53.731, 34.035 54.367 C 35.941 54.664, 39.188 55.173, 41.250 55.498 L 45 56.091 45 65.545 L 45 75 50 75 L 55 75 55 65.545 L 55 56.091 58.500 55.545 C 60.425 55.245, 63.672 54.736, 65.715 54.414 C 70.032 53.734, 75 51.372, 75 50 C 75 47.928, 62.629 44.077, 55.750 44.008 C 55.337 44.003, 55 42.875, 55 41.500 C 55 39.071, 55.200 39, 62 39 L 69 39 69 34 L 69 29 50 29 L 31 29 31 34 M 33.250 47.166 C 27.420 48.472, 27.773 50.571, 34.049 51.917 C 39.029 52.985, 48.679 53.318, 46.250 52.338 C 45.563 52.060, 45 50.521, 45 48.917 C 45 46.194, 44.751 46.007, 41.250 46.107 C 39.188 46.166, 35.587 46.642, 33.250 47.166 M 54.810 49.500 C 54.417 52.866, 54.526 53, 57.652 53 C 63.142 53, 71 50.940, 71 49.500 C 71 48.109, 63.201 46, 58.060 46 C 55.557 46, 55.170 46.417, 54.810 49.500" stroke="none" fill="#000000" fill-rule="evenodd"/></svg>