<svg xmlns="http://www.w3.org/2000/svg" width="64" height="64" version="1.1" fill="#000000"><path fill-opacity=".129" d="M 26.324 1.598 C 25.966 2.531, 26.155 4.572, 26.744 6.133 C 27.755 8.811, 27.699 8.909, 25.761 7.872 C 23.945 6.900, 23.771 7.018, 24.261 8.891 C 24.700 10.567, 24.261 11.141, 22.157 11.646 C 15.673 13.202, 7.838 18.766, 10.750 19.746 C 12.771 20.426, 12.199 22.958, 9.145 26.856 C 3.615 33.913, 2.652 37.414, 6 38.290 C 7.339 38.640, 8 39.654, 8 41.357 C 8 48.287, 12.386 59.750, 13.698 56.250 C 14.555 53.964, 17.471 54.972, 19.771 58.349 C 22.668 62.604, 26.772 64.988, 27.942 63.094 C 28.592 62.043, 29.805 62.007, 34.038 62.915 C 39.980 64.189, 46 62.922, 46 60.398 C 46 59.602, 47.237 58.482, 48.750 57.909 C 56.104 55.123, 59.952 47.947, 59.964 37 C 59.973 29.429, 59.297 24.999, 58.133 25.001 C 57.139 25.003, 54.212 41.461, 55.141 41.828 C 56.610 42.410, 53.109 47.815, 49.459 50.599 C 45.301 53.770, 38.055 54.833, 32.683 53.060 C 27.797 51.448, 22.380 45.211, 21.539 40.229 C 20.551 34.384, 22.430 28.708, 26.549 25.091 C 30.210 21.877, 32.283 21.099, 31.458 23.250 C 31.104 24.171, 32.891 24.544, 38.239 24.666 C 42.233 24.757, 47.189 25.048, 49.254 25.313 C 53.523 25.861, 53.567 25.823, 54.523 20.730 C 55.134 17.471, 55.005 17.061, 53.548 17.620 C 52.447 18.042, 50.771 17.227, 48.684 15.254 C 46.933 13.598, 42.675 10.997, 39.223 9.473 C 35.771 7.949, 31.603 5.173, 29.961 3.302 C 27.440 0.432, 26.873 0.166, 26.324 1.598" stroke="none" fill="#000000" fill-rule="evenodd"/><path fill-opacity=".316" d="M 27 3.665 C 27 5.279, 27.563 7.198, 28.250 7.929 C 29.278 9.022, 29.003 9.141, 26.698 8.597 C 24.120 7.989, 23.982 8.098, 24.983 9.968 C 25.946 11.767, 25.774 12, 23.486 12 C 20.477 12, 15.455 14.361, 12.271 17.272 C 10.219 19.147, 10.175 19.408, 11.721 20.538 C 13.291 21.686, 13.289 21.918, 11.688 24.133 C 4.140 34.573, 2.706 38, 5.887 38 C 7.428 38, 8.039 38.834, 8.455 41.500 C 8.755 43.425, 9.258 46.688, 9.574 48.750 C 9.890 50.813, 10.825 53.550, 11.652 54.834 C 13.089 57.064, 13.217 57.086, 14.515 55.334 C 15.783 53.623, 16.200 53.851, 20.748 58.750 C 25.395 63.757, 28 65.258, 28 62.928 C 28 62.212, 29.824 62.084, 33.487 62.542 C 40.149 63.374, 46 62.428, 46 60.519 C 46 59.754, 47.844 58.092, 50.098 56.825 C 54.988 54.077, 58.747 48.125, 59.621 41.748 C 60.326 36.602, 59.281 26, 58.068 26 C 57.298 26, 56 34.008, 55.636 41.007 C 55.336 46.760, 50.853 51.616, 43.679 53.955 C 36.286 56.367, 26.051 51.843, 22.641 44.655 C 19.307 37.629, 21.344 28.027, 27.028 23.980 C 30.037 21.838, 32.530 21.333, 31.447 23.086 C 30.977 23.846, 32.401 23.969, 36.200 23.494 C 40.168 22.998, 42.653 23.246, 45.451 24.415 C 48.333 25.619, 49.614 25.735, 50.639 24.885 C 51.388 24.263, 52.007 24.148, 52.015 24.628 C 52.050 26.594, 53.971 22.324, 53.985 20.250 C 53.995 18.683, 53.410 18, 52.057 18 C 50.988 18, 49.503 17.129, 48.758 16.065 C 48.012 15, 43.717 12.265, 39.213 9.987 C 34.709 7.709, 30.118 4.694, 29.012 3.288 L 27 0.730 27 3.665" stroke="none" fill="#000000" fill-rule="evenodd"/><path fill-opacity=".684" d="M 27 3.823 C 27 4.776, 27.701 6.555, 28.557 7.777 C 29.799 9.550, 29.839 10, 28.757 10 C 28.011 10, 26.809 9.438, 26.088 8.750 C 25.019 7.733, 24.890 7.883, 25.394 9.559 C 25.930 11.341, 25.369 11.784, 21.229 12.845 C 18.597 13.519, 15.161 15.094, 13.594 16.344 C 11.056 18.367, 10.886 18.844, 12.043 20.698 C 13.191 22.536, 12.980 23.238, 10.235 26.703 C 8.525 28.862, 6.569 31.851, 5.888 33.347 C 4.796 35.744, 4.889 36.234, 6.677 37.486 C 8.169 38.532, 8.869 40.477, 9.326 44.849 C 9.668 48.117, 10.467 51.931, 11.102 53.324 C 12.091 55.495, 12.527 55.689, 14.153 54.679 C 15.804 53.653, 16.617 54.116, 20.417 58.250 C 24.647 62.852, 27.445 64.165, 28.199 61.903 C 28.462 61.113, 29.778 61.132, 32.895 61.972 C 37.923 63.326, 45 62.458, 45 60.487 C 45 59.752, 46.895 58.104, 49.211 56.825 C 56.997 52.527, 60.871 42.911, 59.223 31.975 L 58.398 26.500 56.781 33.500 C 55.892 37.350, 55.552 40.642, 56.026 40.815 C 58.688 41.787, 51.843 50.713, 46.616 53.087 C 39.014 56.539, 30.159 54.543, 24.795 48.168 C 19.520 41.900, 18.894 34.963, 22.994 28.241 C 25.664 23.864, 34.114 18.665, 32.732 22.250 C 32.375 23.176, 33.600 23.414, 37.459 23.167 C 40.590 22.967, 44.121 23.441, 46.312 24.357 C 48.510 25.275, 50.191 25.500, 50.547 24.924 C 50.872 24.398, 51.557 24.226, 52.069 24.543 C 52.581 24.859, 53 24.453, 53 23.641 C 53 22.828, 53.273 21.452, 53.607 20.582 C 54.010 19.532, 53.657 19, 52.559 19 C 51.649 19, 49.727 17.763, 48.289 16.250 C 46.850 14.738, 46.005 14.175, 46.411 15 C 46.962 16.121, 46.811 16.092, 45.812 14.885 C 45.078 13.996, 41.615 11.825, 38.117 10.059 C 34.620 8.294, 30.688 5.779, 29.379 4.470 C 27.372 2.463, 27 2.362, 27 3.823" stroke="none" fill="#000000" fill-rule="evenodd"/><path fill-opacity=".354" d="M 25.622 10.458 C 26.006 11.459, 25.291 12.109, 23.341 12.529 C 21.778 12.867, 19.600 13.563, 18.500 14.077 C 16.810 14.866, 16.887 14.918, 19 14.416 C 21.089 13.920, 20.893 14.248, 17.803 16.411 C 13.419 19.481, 10.403 19.862, 14 16.891 C 16.358 14.943, 14.880 15.247, 12.295 17.241 C 11.358 17.963, 11.356 18.598, 12.285 20.085 C 13.221 21.583, 13.204 22.444, 12.207 24.041 C 11.506 25.163, 11.168 26.462, 11.455 26.927 C 11.743 27.393, 11.195 28.387, 10.239 29.137 C 8.631 30.397, 8.612 30.349, 9.983 28.500 C 11.437 26.539, 11.424 26.535, 9.324 28.322 C 8.146 29.325, 6.627 31.487, 5.947 33.127 C 4.838 35.804, 4.932 36.264, 6.856 37.612 C 8.244 38.584, 9.028 40.239, 9.080 42.307 C 9.125 44.063, 9.687 47.525, 10.330 50 C 11.397 54.105, 11.743 54.472, 14.270 54.176 C 16.509 53.914, 17.876 54.774, 21.391 58.656 C 25.150 62.808, 25.956 63.281, 27.332 62.139 C 28.561 61.120, 30.017 61.049, 33.712 61.831 C 39.592 63.076, 43.736 62.362, 45.066 59.876 C 45.620 58.842, 47.601 57.358, 49.470 56.577 C 51.424 55.761, 54.064 53.350, 55.684 50.905 C 58.187 47.125, 58.539 45.589, 58.848 37.076 C 59.039 31.809, 58.961 27.728, 58.674 28.007 C 57.720 28.935, 55.265 40.954, 56.140 40.413 C 57.656 39.477, 57.053 42.400, 55.056 45.676 C 53.991 47.423, 51.760 49.857, 50.099 51.085 C 48.438 52.313, 47.264 53.618, 47.491 53.985 C 47.718 54.352, 43.897 54.652, 39 54.652 C 33.343 54.652, 30.321 54.289, 30.713 53.656 C 31.081 53.060, 30.638 52.925, 29.612 53.319 C 28.668 53.681, 28.128 53.601, 28.413 53.142 C 28.939 52.290, 23.879 46.906, 22.343 46.682 C 21.880 46.614, 21.643 45.938, 21.817 45.179 C 21.991 44.420, 21.761 44.030, 21.305 44.312 C 20.849 44.593, 20.476 41.303, 20.476 37 C 20.476 32.697, 20.849 29.407, 21.305 29.688 C 21.761 29.970, 21.991 29.368, 21.817 28.350 C 21.643 27.333, 22.009 26.595, 22.631 26.710 C 23.921 26.950, 27.761 23.056, 27 22.279 C 26.725 21.998, 28.202 21.616, 30.281 21.429 C 32.361 21.243, 33.816 21.489, 33.514 21.977 C 33.213 22.464, 34.211 22.279, 35.733 21.565 C 38.654 20.195, 47 20.576, 47 22.080 C 47 22.559, 45.538 22.716, 43.750 22.429 C 40.740 21.947, 40.796 22.021, 44.500 23.432 C 46.700 24.270, 49.312 24.703, 50.305 24.393 C 51.939 23.884, 51.871 23.610, 49.587 21.493 C 46.814 18.923, 46.108 18.654, 37.811 17.011 C 31.870 15.834, 27 12.868, 27 10.427 C 27 9.642, 26.564 9, 26.031 9 C 25.499 9, 25.315 9.656, 25.622 10.458 M 6.954 33.086 C 6.340 34.233, 6.026 35.360, 6.257 35.590 C 6.487 35.820, 7.189 34.882, 7.816 33.504 C 9.194 30.480, 8.523 30.154, 6.954 33.086 M 18.158 37 C 18.158 38.375, 18.385 38.938, 18.662 38.250 C 18.940 37.563, 18.940 36.438, 18.662 35.750 C 18.385 35.063, 18.158 35.625, 18.158 37 M 10.158 42 C 10.158 43.375, 10.385 43.938, 10.662 43.250 C 10.940 42.563, 10.940 41.438, 10.662 40.750 C 10.385 40.063, 10.158 40.625, 10.158 42 M 50.337 52.250 C 49.159 54.136, 49.046 56.090, 50.154 55.405 C 50.693 55.072, 50.882 54.549, 50.575 54.242 C 50.268 53.935, 50.519 53.080, 51.131 52.342 C 51.744 51.604, 51.991 51, 51.681 51 C 51.372 51, 50.767 51.563, 50.337 52.250 M 37.250 56.689 C 38.212 56.941, 39.788 56.941, 40.750 56.689 C 41.712 56.438, 40.925 56.232, 39 56.232 C 37.075 56.232, 36.288 56.438, 37.250 56.689 M 23.220 59.533 C 24.716 61.106, 26.119 62.193, 26.338 61.947 C 26.557 61.701, 25.333 60.414, 23.618 59.086 L 20.500 56.672 23.220 59.533" stroke="none" fill="#000000" fill-rule="evenodd"/></svg>