<svg xmlns="http://www.w3.org/2000/svg" width="64" height="64" version="1.1" fill="#000000"><path fill-opacity=".306" d="M 21.882 1.321 C 13.461 4.468, 7.135 10.077, 2.759 18.278 C 0.876 21.805, 0.505 24.063, 0.503 32 C 0.500 40.644, 0.765 41.978, 3.438 46.804 C 6.776 52.829, 11.936 57.860, 18.205 61.204 C 21.815 63.129, 24.015 63.494, 32 63.494 C 39.985 63.494, 42.185 63.129, 45.795 61.204 C 52.440 57.660, 57.502 52.525, 60.545 46.239 C 62.073 43.083, 63.701 39.719, 64.162 38.764 C 65.376 36.249, 65.234 23.738, 64 24.500 C 63.450 24.840, 62.996 24.304, 62.991 23.309 C 62.976 20.431, 57.489 11.636, 53.550 8.178 C 47.219 2.619, 42.298 0.689, 33.500 0.312 C 28.420 0.095, 24.180 0.463, 21.882 1.321 M 19.750 19.215 L 11 25.344 11 32.063 L 11 38.781 19.920 44.891 C 24.826 48.251, 29.101 51, 29.420 51 C 29.739 51, 30 48.530, 30 45.510 L 30 40.020 24.500 36.369 C 21.475 34.360, 19 32.394, 19 32 C 19 31.606, 21.475 29.640, 24.500 27.631 L 30 23.980 30 18.490 C 30 15.470, 29.663 13.019, 29.250 13.043 C 28.837 13.066, 24.563 15.844, 19.750 19.215 M 34 18.490 L 34 23.980 39.500 27.631 C 42.525 29.640, 45 31.606, 45 32 C 45 32.394, 42.525 34.360, 39.500 36.369 L 34 40.020 34 45.510 C 34 48.530, 34.263 51, 34.585 51 C 34.906 51, 39.181 48.224, 44.085 44.832 L 53 38.664 53 32 L 53 25.336 44.085 19.168 C 39.181 15.776, 34.906 13, 34.585 13 C 34.263 13, 34 15.470, 34 18.490 M 0.336 32 C 0.336 36.125, 0.513 37.813, 0.728 35.750 C 0.944 33.688, 0.944 30.313, 0.728 28.250 C 0.513 26.188, 0.336 27.875, 0.336 32" stroke="none" fill="#000000" fill-rule="evenodd"/><path fill-opacity=".48" d="M 22.005 1.607 C -0.652 9.840, -7.268 37.780, 9.476 54.524 C 26.013 71.061, 54.657 64.511, 62.063 42.500 C 62.803 40.300, 63.766 38.072, 64.204 37.550 C 65.246 36.306, 65.242 24.732, 64.199 25.377 C 63.759 25.649, 62.836 23.965, 62.148 21.635 C 60.151 14.874, 54.339 8.116, 47.125 4.171 C 39.341 -0.087, 29.448 -1.097, 22.005 1.607 M 21.576 17.479 C 9.882 25.618, 10 25.470, 10 31.981 C 10 36.602, 10.416 38.021, 12.250 39.651 C 14.319 41.490, 25.834 49.680, 28.750 51.386 C 29.696 51.940, 30 50.551, 30 45.663 L 30 39.208 25 36 C 22.250 34.235, 20 32.435, 20 32 C 20 31.565, 22.250 29.765, 25 28 L 30 24.792 30 18.396 C 30 14.878, 29.876 12, 29.723 12 C 29.571 12, 25.905 14.465, 21.576 17.479 M 34 18.385 L 34 24.888 39.500 28.178 C 42.525 29.987, 44.987 31.700, 44.972 31.984 C 44.956 32.268, 42.481 33.990, 39.472 35.812 L 34 39.123 34 45.621 C 34 50.542, 34.303 51.941, 35.250 51.386 C 38.166 49.680, 49.681 41.490, 51.750 39.651 C 53.582 38.023, 54 36.602, 54 32 C 54 27.398, 53.582 25.977, 51.750 24.349 C 49.681 22.510, 38.166 14.320, 35.250 12.614 C 34.303 12.059, 34 13.459, 34 18.385 M 0.320 32 C 0.320 35.575, 0.502 37.038, 0.723 35.250 C 0.945 33.462, 0.945 30.538, 0.723 28.750 C 0.502 26.962, 0.320 28.425, 0.320 32" stroke="none" fill="#000000" fill-rule="evenodd"/><path fill-opacity=".565" d="M 24.734 1.030 C 15.471 3.356, 6.826 10.651, 2.847 19.500 C -0.285 26.464, -0.285 37.533, 2.846 44.500 C 5.786 51.042, 13.038 58.326, 19.408 61.135 C 26.510 64.267, 37.557 64.275, 44.500 61.153 C 53.467 57.121, 62.959 45.394, 62.990 38.309 C 62.996 37.104, 63.450 35.840, 64 35.500 C 64.550 35.160, 65 33.082, 65 30.882 C 65 28.470, 64.603 27.127, 64 27.500 C 63.444 27.843, 62.996 27.092, 62.990 25.809 C 62.960 18.699, 53.386 6.828, 44.519 2.905 C 39.335 0.612, 29.942 -0.278, 24.734 1.030 M 19.250 18.718 L 10 25.321 10 32.002 L 10 38.683 19.458 45.342 C 24.660 49.004, 29.407 52, 30.006 52 C 30.707 52, 30.989 49.786, 30.798 45.792 L 30.500 39.585 25.261 36.042 C 22.380 34.094, 20.033 32.275, 20.047 32 C 20.061 31.725, 22.419 29.917, 25.286 27.982 L 30.500 24.463 30.798 18.232 C 31.018 13.616, 30.759 12.015, 29.798 12.057 C 29.084 12.089, 24.337 15.086, 19.250 18.718 M 33.202 18.241 L 33.500 24.482 38.500 27.747 C 41.250 29.544, 43.626 31.388, 43.780 31.845 C 43.933 32.303, 41.571 34.330, 38.530 36.349 L 33 40.020 33 46.010 C 33 49.497, 33.435 52, 34.042 52 C 34.615 52, 39.340 49.004, 44.542 45.342 L 54 38.683 54 32 L 54 25.317 44.542 18.658 C 39.340 14.996, 34.593 12, 33.994 12 C 33.293 12, 33.011 14.223, 33.202 18.241 M 0.272 32 C 0.272 34.475, 0.467 35.487, 0.706 34.250 C 0.944 33.013, 0.944 30.988, 0.706 29.750 C 0.467 28.512, 0.272 29.525, 0.272 32" stroke="none" fill="#000000" fill-rule="evenodd"/><path fill-opacity=".475" d="M 26.355 1.009 C 6.208 5.143, -4.836 26.245, 3.466 44.744 C 4.984 48.127, 7.002 51.597, 7.952 52.456 C 9.557 53.909, 9.804 53.601, 11.482 48.060 L 13.286 42.101 17.643 45.098 C 22.386 48.362, 22.934 49.050, 20.250 48.369 C 19.023 48.058, 17.678 49.239, 15.750 52.317 C 14.237 54.733, 13 56.939, 13 57.218 C 13 57.498, 15.791 58.980, 19.203 60.510 C 30.791 65.711, 44.715 63.376, 53.872 54.696 C 57.763 51.007, 62.998 40.749, 62.999 36.809 C 63 35.329, 63.450 33.840, 64 33.500 C 64.550 33.160, 65 31.982, 65 30.882 C 65 29.782, 64.550 29.160, 64 29.500 C 63.424 29.856, 63 28.927, 62.999 27.309 C 62.997 20.337, 52.536 5.090, 48.751 6.542 C 47.880 6.876, 45.998 8.916, 44.569 11.075 C 43.140 13.234, 41.737 15, 41.451 15 C 41.164 15, 39.708 14.242, 38.215 13.317 C 34.786 11.190, 36.364 12.779, 41.183 16.305 C 45.122 19.187, 46.557 19.710, 45.405 17.845 C 44.959 17.124, 45.131 16.963, 45.862 17.415 C 46.506 17.813, 46.808 18.502, 46.533 18.947 C 46.258 19.392, 47.825 20.942, 50.016 22.392 L 54 25.028 54 32 L 54 38.972 50.016 41.608 C 47.825 43.058, 46.258 44.608, 46.533 45.053 C 46.808 45.498, 46.506 46.187, 45.862 46.585 C 45.131 47.037, 44.959 46.876, 45.405 46.155 C 46.518 44.352, 44.407 44.800, 42.872 46.692 C 41.704 48.133, 41.708 48.258, 42.905 47.537 C 43.838 46.975, 44.079 47.064, 43.622 47.802 C 43.245 48.413, 42.388 48.715, 41.718 48.474 C 41.048 48.233, 39.375 48.967, 38 50.105 C 36.625 51.242, 36.132 51.840, 36.905 51.432 C 37.781 50.970, 38.062 51.090, 37.654 51.752 C 37.293 52.335, 36.098 52.577, 34.999 52.289 C 33.294 51.844, 33 50.925, 33 46.050 C 33 42.906, 33.337 39.996, 33.750 39.583 C 34.163 39.171, 34.500 38.309, 34.500 37.668 C 34.500 37.027, 35.175 36.502, 36 36.501 C 37.623 36.500, 44.023 32.910, 43.964 32.034 C 43.944 31.740, 41.600 29.925, 38.756 28 C 35.694 25.927, 33.318 23.480, 32.930 22 C 32.316 19.654, 32.227 19.623, 31.486 21.500 C 31.051 22.600, 29.977 24.400, 29.098 25.500 C 27.509 27.489, 27.513 27.489, 29.785 25.563 C 32.055 23.640, 32.086 23.642, 34.285 25.864 C 35.816 27.411, 35.996 27.913, 34.869 27.490 C 33.721 27.059, 32.538 27.986, 30.869 30.623 C 29.566 32.683, 28.219 34.783, 27.876 35.289 C 27.526 35.806, 25.987 35.424, 24.376 34.422 C 20.784 32.188, 22.288 33.723, 27.250 37.356 C 30.841 39.985, 31 40.349, 31 45.934 C 31 50.925, 30.711 51.842, 29.001 52.289 C 27.902 52.577, 26.707 52.335, 26.346 51.752 C 25.929 51.077, 26.202 50.982, 27.095 51.492 C 30.086 53.198, 26.309 50.172, 20 45.807 C 11.500 39.926, 10.479 39.349, 11.500 41 C 11.995 41.801, 11.916 42.066, 11.296 41.683 C 10.739 41.339, 10.196 37.466, 10.091 33.076 L 9.898 25.096 13.933 22.426 C 16.152 20.957, 17.742 19.392, 17.467 18.947 C 17.192 18.502, 17.494 17.813, 18.138 17.415 C 18.869 16.963, 19.041 17.124, 18.595 17.845 C 17.482 19.648, 19.593 19.200, 21.128 17.308 C 22.296 15.867, 22.292 15.742, 21.095 16.463 C 20.162 17.025, 19.921 16.936, 20.378 16.198 C 20.755 15.587, 21.612 15.285, 22.282 15.526 C 22.952 15.767, 24.625 15.033, 26 13.895 C 27.375 12.758, 27.868 12.160, 27.095 12.568 C 26.219 13.030, 25.938 12.910, 26.346 12.248 C 27.292 10.718, 31 11.947, 31 13.792 C 31 15.072, 31.334 15.007, 32.872 13.425 C 33.902 12.366, 34.550 11.162, 34.313 10.750 C 34.076 10.338, 34.343 10, 34.906 10 C 36.185 10, 43 4.086, 43 2.976 C 43 1.244, 31.710 -0.090, 26.355 1.009 M 13.872 20.750 C 12.629 22.336, 12.664 22.371, 14.250 21.128 C 15.916 19.821, 16.445 19, 15.622 19 C 15.415 19, 14.627 19.788, 13.872 20.750 M 48 19.378 C 48 19.585, 48.788 20.373, 49.750 21.128 C 51.336 22.371, 51.371 22.336, 50.128 20.750 C 48.821 19.084, 48 18.555, 48 19.378 M 9.607 23.882 C 8.263 25.366, 7.978 27.216, 8.256 32.632 L 8.608 39.500 8.804 32.579 C 8.941 27.758, 9.502 25.102, 10.655 23.829 C 11.565 22.823, 12.085 22, 11.810 22 C 11.535 22, 10.543 22.847, 9.607 23.882 M 53.250 23.579 C 54.514 25.080, 55 27.418, 55 32 C 55 36.582, 54.514 38.920, 53.250 40.421 C 51.502 42.498, 51.502 42.498, 53.750 40.595 C 55.669 38.970, 56 37.707, 56 32 C 56 26.293, 55.669 25.030, 53.750 23.405 C 51.502 21.502, 51.502 21.502, 53.250 23.579 M 0.158 32 C 0.158 33.375, 0.385 33.938, 0.662 33.250 C 0.940 32.563, 0.940 31.438, 0.662 30.750 C 0.385 30.063, 0.158 30.625, 0.158 32 M 40.429 32 C 40.429 33.295, 40.767 33.633, 41.414 32.986 C 42.062 32.338, 42.062 31.662, 41.414 31.014 C 40.767 30.367, 40.429 30.705, 40.429 32 M 48.872 43.750 C 47.629 45.336, 47.664 45.371, 49.250 44.128 C 50.212 43.373, 51 42.585, 51 42.378 C 51 41.555, 50.179 42.084, 48.872 43.750" stroke="none" fill="#000000" fill-rule="evenodd"/></svg>