<svg xmlns="http://www.w3.org/2000/svg" width="200" height="200" fill="#000000"><path fill-opacity=".208" fill-rule="evenodd" d="M80 1.496C40.427 9.462 9.029 41.16 1.409 80.838c-1.809 9.421-1.809 28.903 0 38.324 7.696 40.072 39.357 71.733 79.429 79.429 9.421 1.809 28.903 1.809 38.324 0 35.539-6.825 64.829-32.525 76.201-66.86 1.415-4.272 2.872-10.02 3.237-12.772s1.054-5.245 1.532-5.54c.477-.296.868-6.837.868-14.537 0-7.729-.391-13.758-.874-13.46-.48.297-1.17-1.693-1.532-4.422-.362-2.73-1.816-8.459-3.231-12.731-11.31-34.149-40.855-60.072-76.201-66.86C110.118-.328 88.826-.28 80 1.496m1.112 25.494C66.395 30.954 55.42 37.543 44.989 48.676 37.112 57.085 31.84 65.852 28.258 76.5c-2.462 7.318-2.692 9.321-2.692 23.5s.23 16.182 2.692 23.5c3.939 11.71 9.156 19.925 18.736 29.506S64.79 167.803 76.5 171.742c7.318 2.462 9.321 2.692 23.5 2.692s16.182-.23 23.5-2.692c11.71-3.939 19.925-9.156 29.506-18.736s14.797-17.796 18.736-29.506c2.462-7.318 2.692-9.321 2.692-23.5s-.23-16.182-2.692-23.5c-3.939-11.71-9.156-19.925-18.736-29.506-9.632-9.631-17.89-14.857-29.506-18.673-11.149-3.662-31.375-4.297-42.388-1.331M92 31.481c-.825.212-3.183.66-5.241.996l-3.74.61 8.01 11.957C95.435 51.62 99.472 57 100 57s4.547-5.353 8.931-11.896c7.503-11.201 7.841-11.933 5.769-12.516-2.712-.764-20.639-1.638-22.7-1.107m-21.5 6.38c-21.658 10.321-36.673 31.83-39.049 55.935L30.742 101h138.516l-.709-7.204c-1.887-19.142-11.798-37.003-26.859-48.401-6.063-4.589-18.341-11.077-19.246-10.172-.252.252 3.313 10.317 7.921 22.367l8.38 21.91-19.372.271c-10.655.149-28.091.149-38.746 0L61.254 79.5 69.118 59c9.398-24.5 9.228-24 8.199-23.999-.449 0-3.517 1.287-6.817 2.86M.397 100c0 7.975.156 11.237.346 7.25s.189-10.513 0-14.5c-.19-3.987-.346-.725-.346 7.25M32 110.448c0 4.297 4.807 17.849 8.532 24.052 5.431 9.046 8.132 11.5 12.655 11.5 2.411 0 3.794-.46 3.762-1.25-.028-.687-1.783-5.525-3.9-10.75s-3.676-9.681-3.463-9.902c.212-.222 7.492 2.928 16.179 7l15.794 7.402 5.371 13C94.317 169.382 94.032 169 100 169s5.683.382 13.07-17.5l5.371-13 15.794-7.402c8.687-4.072 15.967-7.222 16.179-7 .213.221-1.346 4.677-3.463 9.902s-3.872 10.063-3.9 10.75c-.032.79 1.351 1.25 3.762 1.25 4.523 0 7.224-2.454 12.655-11.5 3.725-6.203 8.532-19.755 8.532-24.052V108H32zm60.256 34.802c.258.688 1.994 5.635 3.857 10.995s3.612 9.745 3.887 9.745 2.024-4.385 3.887-9.745 3.599-10.307 3.857-10.995c.352-.937-1.589-1.25-7.744-1.25s-8.096.313-7.744 1.25"/><path fill-opacity=".262" fill-rule="evenodd" d="M81 1.433c-21.097 4.421-39.312 14.606-54.009 30.2C15.572 43.749 7.3 58.59 2.82 75 .83 82.29.5 85.849.5 100s.33 17.71 2.32 25c7.883 28.873 27.043 52.091 53.68 65.048 15.873 7.721 23.838 9.452 43.5 9.452s27.627-1.731 43.5-9.452c21.443-10.43 37.341-26.609 47.518-48.356 3.781-8.081 7.982-21.933 7.982-26.321 0-1.239.45-2.531 1-2.871.584-.361 1-6.03 1-13.618 0-8.412-.353-12.782-1-12.382-.559.346-1-.427-1-1.753 0-5.082-4.321-18.711-8.956-28.247-10.417-21.435-26.602-37.339-48.352-47.518C128.221 2.679 119.699.816 102.5.418 92.424.185 85.366.518 81 1.433m8.477 23.49C70.707 27.925 53.029 37.897 41.479 52c-5.988 7.31-11.868 18.799-14.616 28.557-3.138 11.141-3.138 27.745 0 38.886 7.453 26.465 27.229 46.241 53.694 53.694 11.141 3.138 27.745 3.138 38.886 0 26.465-7.453 46.241-27.229 53.694-53.694 3.138-11.141 3.138-27.745 0-38.886-9.086-32.263-36.556-54.363-69.597-55.992-4.972-.245-11.301-.084-14.063.358m1.654 7.156c-3.503.454-6.572 1.029-6.82 1.276C83.746 33.921 99.059 57 100 57c.898 0 16.268-23.065 15.729-23.605-.49-.49-14.582-2.375-16.729-2.237-.825.052-4.366.467-7.869.921m-22.265 7.08C56.931 45.093 44.941 57.135 39.155 69c-4.279 8.776-6.578 16.648-7.518 25.75l-.543 5.25h137.812l-.543-5.25c-.94-9.102-3.239-16.974-7.518-25.75-6.698-13.734-21.744-27.449-36.102-32.908l-2.701-1.027 2.359 6.218c3.844 10.129 13.373 35.076 14.121 36.967.652 1.649-1.578 1.75-38.522 1.75s-39.174-.101-38.522-1.75c.751-1.898 10.292-26.876 14.133-37 1.305-3.437 2.203-6.25 1.996-6.25s-4.14 1.872-8.741 4.159M.392 100c0 7.425.157 10.463.35 6.75s.192-9.787 0-13.5c-.193-3.713-.35-.675-.35 6.75m32.141 12.194c1.568 9.281 7.764 23.152 13.289 29.754 2.345 2.8 3.194 3.158 6.823 2.875l4.144-.323-3.888-10c-2.139-5.5-3.779-10.273-3.645-10.606s7.486 2.753 16.337 6.858l16.094 7.463 6.233 14.83c5.71 13.586 6.478 14.883 9.156 15.472 1.608.353 4.24.353 5.848 0 2.678-.589 3.446-1.886 9.156-15.472l6.233-14.83 16.094-7.463c8.851-4.105 16.203-7.191 16.337-6.858s-1.506 5.106-3.645 10.606l-3.888 10 4.144.323c3.629.283 4.478-.075 6.823-2.875 5.525-6.602 11.721-20.473 13.289-29.754l.709-4.194H31.824zm59.723 33.056c.258.688 1.977 5.863 3.819 11.5C97.918 162.387 99.684 167 100 167s2.082-4.613 3.925-10.25 3.561-10.812 3.819-11.5c.352-.937-1.589-1.25-7.744-1.25s-8.096.313-7.744 1.25"/><path fill-opacity=".624" fill-rule="evenodd" d="M83.45 1.394C43.331 9.066 13.576 36.302 3.262 74.792.99 83.272.661 86.46.661 100s.329 16.728 2.601 25.208c9.427 35.178 36.352 62.103 71.53 71.53 8.48 2.272 11.668 2.601 25.208 2.601 13.573 0 16.718-.326 25.297-2.624 36.779-9.85 65.458-40.102 72.253-76.215.932-4.95 2.089-9.781 2.572-10.736 1.251-2.474 1.139-21.043-.122-20.264-.58.358-1-.614-1-2.313 0-5.638-4.9-22.178-9.145-30.866-12.867-26.337-36.473-45.68-64.647-52.969C113.186.241 94.145-.652 83.45 1.394m1.406 24.117c-14.76 2.94-26.949 9.619-38.337 21.008-11.671 11.67-18.112 23.623-21.075 39.109-3.553 18.573-.196 37.308 9.701 54.132 4.313 7.332 17.763 20.782 25.095 25.095 25.131 14.783 54.389 14.783 79.52 0 7.332-4.313 20.782-17.763 25.095-25.095 14.783-25.131 14.783-54.389 0-79.52-4.313-7.332-17.763-20.782-25.095-25.095-16.798-9.882-36.396-13.32-54.904-9.634m2.397 7.371-3.246.618 7.746 11.728c4.261 6.451 7.972 11.728 8.247 11.728s3.984-5.277 8.243-11.728l7.743-11.728-3.743-.692c-4.512-.835-20.467-.788-24.99.074m-16.165 5.216C50.72 47.134 34.214 70.34 32.333 92.583L31.707 100h136.586l-.626-7.417c-1.626-19.233-13.894-39.077-30.874-49.939-5.589-3.575-12.819-6.951-13.477-6.293-.207.207 3.237 9.772 7.654 21.256S139 79.053 139 79.744c0 .987-8.362 1.256-39 1.256s-39-.269-39-1.256c0-.691 3.6-10.617 8-22.058s8-21 8-21.243c0-.75-1.327-.379-5.912 1.655M.37 100c0 5.775.165 8.138.367 5.25s.202-7.612 0-10.5S.37 94.225.37 100m32.691 13.295c1.368 7.325 5.73 17.622 10.513 24.816 4.367 6.57 4.761 6.889 8.503 6.889 2.499 0 3.905-.454 3.872-1.25-.028-.687-1.783-5.525-3.902-10.75-2.118-5.225-3.525-9.623-3.126-9.774.96-.363 31.262 13.668 32.685 15.134.608.627 3.758 7.548 7 15.38 5.108 12.341 6.194 14.242 8.144 14.25 1.237.006 2.25-.352 2.25-.794 0-.441-1.575-5.48-3.5-11.196S92 145.245 92 144.804c0-.442 3.6-.804 8-.804s8 .362 8 .804c0 .441-1.575 5.48-3.5 11.196s-3.5 10.755-3.5 11.196c0 .442 1.013.8 2.25.794 1.95-.008 3.036-1.909 8.144-14.25 3.242-7.832 6.392-14.753 7-15.38 1.423-1.466 31.725-15.497 32.685-15.134.399.151-1.008 4.549-3.126 9.774-2.119 5.225-3.874 10.063-3.902 10.75-.033.796 1.373 1.25 3.872 1.25 3.742 0 4.136-.319 8.503-6.889 4.783-7.194 9.145-17.491 10.513-24.816l.803-4.295H32.258z"/><path fill-opacity=".251" fill-rule="evenodd" d="M87.25.999c-25.119 3.537-49.434 17.166-64.746 36.29C14.264 47.58 6.784 62.517 3.367 75.5c-3.805 14.46-3.805 34.54 0 49 9.337 35.482 36.651 62.796 72.133 72.133 14.46 3.805 34.54 3.805 49 0 28.295-7.446 51.757-26.399 64.536-52.133 5.109-10.289 9.964-26.646 9.964-33.569 0-2.097.45-4.091 1-4.431s1-3.768 1-7.618c0-4.412-.37-6.772-1-6.382-.602.372-1-.947-1-3.313 0-7.031-4.821-23.329-9.964-33.687C172.941 23.088 140.545 2.119 104.173.572 98.303.323 90.687.514 87.25.999M82 25.996c-4.125 1.018-9.716 2.803-12.425 3.967-16.169 6.947-32.714 23.542-39.694 39.81-7.727 18.011-7.693 42.522.085 60.652 6.93 16.154 23.536 32.714 39.807 39.694 18.011 7.727 42.522 7.693 60.652-.085 16.154-6.93 32.714-23.536 39.694-39.807 7.69-17.926 7.69-42.528 0-60.454-6.98-16.271-23.54-32.877-39.694-39.807-13.937-5.979-33.716-7.6-48.425-3.97m6.5 6.868c-1.65.411-2.885 1.292-2.744 1.958.463 2.198 13.567 21.237 14.42 20.953 1.881-.627 14.745-21.254 13.827-22.172-1.176-1.176-21.394-1.762-25.503-.739m-19.116 6.613C55.521 46.478 44.984 57.39 38.462 71.5 35.015 78.956 32 90.597 32 96.447V100h136v-3.553c0-5.85-3.015-17.491-6.462-24.947-7.078-15.312-19.746-27.679-34.784-33.959l-3.746-1.564 2.376 6.261c3.841 10.122 13.386 35.112 14.138 37.012.652 1.649-1.626 1.75-39.522 1.75s-40.174-.101-39.522-1.75c.751-1.898 10.292-26.876 14.133-37 1.305-3.437 2.211-6.25 2.015-6.25-.197 0-3.455 1.565-7.242 3.477M.336 100c0 4.125.177 5.813.392 3.75s.216-5.437 0-7.5C.513 94.188.336 95.875.336 100m32.676 10.75c.045 6.601 7.324 23.662 13.013 30.5 2.494 2.997 3.809 3.75 6.548 3.75 1.885 0 3.427-.204 3.427-.452s-1.845-5.229-4.1-11.067-3.942-10.763-3.75-10.945c.463-.437 32.061 14.291 33.35 15.545.55.535 3.721 7.373 7.046 15.196 4.938 11.618 6.449 14.282 8.25 14.543 1.212.175 2.204.154 2.204-.047 0-.202-1.8-5.725-4-12.273s-4-12.04-4-12.203 4.05-.297 9-.297 9 .134 9 .297-1.8 5.655-4 12.203-4 12.071-4 12.273.992.222 2.204.047c1.801-.261 3.312-2.925 8.25-14.543 3.325-7.823 6.496-14.661 7.046-15.196 1.289-1.254 32.887-15.982 33.35-15.545.192.182-1.495 5.107-3.75 10.945s-4.1 10.818-4.1 11.067c0 .248 1.542.452 3.427.452 2.739 0 4.054-.753 6.548-3.75 5.689-6.838 12.968-23.899 13.013-30.5.011-1.649-3.841-1.75-66.988-1.75s-66.999.101-66.988 1.75"/></svg>