<svg xmlns="http://www.w3.org/2000/svg" width="200" height="200" fill="#000000"><path fill-opacity=".216" fill-rule="evenodd" d="M82 2.092C64.853 5.85 51.302 12.161 38.298 22.443 3.5 49.96-8.432 97.472 8.963 139.257c10.277 24.686 34.211 46.834 59.537 55.094 9.541 3.112 23.901 5.649 31.975 5.649 21.978 0 47.352-9.652 64.827-24.659 14.567-12.51 26.939-32.633 31.87-51.841 3.308-12.886 3.308-34.114 0-47-3.085-12.017-11.59-29.206-19.049-38.5C154.991 9.177 116.048-5.371 82 2.092M60.251 60.496C47.793 63.243 36.612 72.19 31.196 83.747c-2.649 5.653-2.702 6.159-3.012 28.982l-.317 23.229 2.521 2.521c3.389 3.389 9.355 3.488 12.438.207 2.072-2.207 2.174-3.19 2.174-21.058 0-10.975.484-20.664 1.168-23.38C47.78 87.844 55.764 79.641 62 77.982c10.17-2.706 20.965 1.559 26.474 10.461l3.026 4.891.5 21.923c.492 21.552.54 21.956 2.861 23.833 1.298 1.051 3.849 1.91 5.668 1.91 8.713 0 9.471-2.107 9.471-26.328 0-14.451.361-20.292 1.409-22.8 4.562-10.916 16.871-17.013 28.035-13.888 5.51 1.543 11.895 6.867 14.84 12.373 2.05 3.833 2.24 5.716 2.536 25.143.301 19.731.447 21.136 2.424 23.25 3.009 3.217 9.011 3.086 12.368-.271l2.521-2.521-.317-23.229c-.31-22.823-.363-23.329-3.012-28.982-1.483-3.164-4.965-8.152-7.739-11.085-16.049-16.969-41.453-17.534-58.815-1.307L101 74.392l-3.25-3.037c-10.441-9.758-24.293-13.77-37.499-10.859"/><path fill-opacity=".455" fill-rule="evenodd" d="M84.811 2.019C72.662 4.251 66.61 6.228 56.5 11.271c-10.616 5.296-15.633 8.8-23.864 16.668C11.502 48.139 1.682 71.001 1.682 100s9.755 51.712 30.978 72.126c14.726 14.164 30.698 21.97 53.001 25.902 13.739 2.423 16.146 2.428 29.339.064 24.108-4.319 42.27-13.936 57.928-30.674 35.5-37.95 35.5-96.886 0-134.836-8.125-8.686-15.831-14.593-26.185-20.071-10.47-5.54-18.552-8.24-31.743-10.603-12.566-2.251-17.425-2.234-30.189.111M58 60.603c-15.783 4.223-27.578 17.409-30.108 33.662-.562 3.614-.881 14.521-.707 24.237l.315 17.667 3.266 2.915c3.657 3.266 6.01 3.6 10.175 1.446 4.378-2.264 5.059-5.9 5.059-27.022 0-18.161.125-19.431 2.326-23.601 9.273-17.568 35.54-15.709 42.135 2.983C91.643 96.239 92 101.737 92 116.57c0 18.936.047 19.374 2.394 22.102 3.412 3.966 9.8 3.966 13.212 0 2.345-2.727 2.394-3.176 2.4-21.978.003-10.557.477-20.894 1.054-22.971 2.005-7.221 9.856-14.202 17.618-15.666 10.033-1.894 20.315 2.981 24.996 11.85 2.209 4.186 2.326 5.408 2.326 24.3 0 21.656.556 24.358 5.472 26.598 4.032 1.837 6.208 1.453 9.762-1.724l3.266-2.918v-21.332c0-24.34-.826-28.662-7.229-37.828-14.395-20.604-43.43-23.802-61.861-6.813L101 74.255l-4.401-4.057C86.179 60.593 71.592 56.967 58 60.603"/><path fill-opacity=".67" fill-rule="evenodd" d="M86.585 2.036C54.747 7.059 27.622 26.221 13.141 53.921 10.387 59.19 6.887 67.55 5.364 72.5c-2.603 8.456-2.77 10.119-2.77 27.5s.167 19.044 2.77 27.5c10.378 33.722 36.841 59.361 70.362 68.172 12.762 3.355 33.384 3.785 45.774.954 35.845-8.189 63.383-34.226 74.168-70.126 2.493-8.297 2.704-10.367 2.704-26.5s-.211-18.203-2.704-26.5c-10.626-35.369-36.853-60.64-72.162-69.53-9.271-2.334-28.123-3.322-36.921-1.934M55.909 60.84C42.913 65.129 32.308 76.116 28.532 89.2c-1.347 4.669-1.59 9.528-1.339 26.839l.307 21.138 2.806 2.411c4.013 3.45 9.01 3.25 12.771-.511L46 136.154v-20.012c0-11.603.444-21.195 1.056-22.827 2.11-5.626 6.188-10.258 11.253-12.782 11.632-5.796 25.733-1.253 30.811 9.926 1.574 3.464 1.839 6.779 1.858 23.226.012 10.552.444 20.296.961 21.654 3.368 8.86 14.754 8.86 18.122 0 .517-1.358.939-11.233.939-21.944 0-17.356.213-19.892 1.956-23.309 2.227-4.364 7.041-8.759 11.762-10.738 7.535-3.157 18.657-.792 24.625 5.238 5.847 5.908 6.108 7.111 6.653 30.753l.504 21.84 2.806 2.41c3.21 2.758 8.16 3.173 11.334.951 4.073-2.853 4.553-6.142 4.197-28.707L174.5 90.5l-3.185-6.723c-4.426-9.344-10.956-15.996-20.173-20.551-7.265-3.591-7.921-3.726-18.111-3.726-9.964 0-10.963.192-17.351 3.337-3.728 1.835-8.557 5.028-10.73 7.096l-3.951 3.759-4.211-3.887c-2.315-2.138-7.107-5.314-10.647-7.057-5.559-2.736-7.68-3.208-15.539-3.461-6.788-.218-10.524.177-14.693 1.553"/><path fill-opacity=".805" fill-rule="evenodd" d="M67.813 57.683c.721.289 1.584.253 1.916-.079s-.258-.568-1.312-.525c-1.165.048-1.402.285-.604.604m65 0c.721.289 1.584.253 1.916-.079s-.258-.568-1.312-.525c-1.165.048-1.402.285-.604.604m-71.544 1.01c.973.254 2.323.237 3-.037s-.119-.481-1.769-.461-2.204.244-1.231.498m12 0c.973.254 2.323.237 3-.037s-.119-.481-1.769-.461-2.204.244-1.231.498m53 0c.973.254 2.323.237 3-.037s-.119-.481-1.769-.461-2.204.244-1.231.498m12 0c.973.254 2.323.237 3-.037s-.119-.481-1.769-.461-2.204.244-1.231.498M49.91 62.196c-3.526 1.758-8.684 5.47-11.464 8.25-5.195 5.195-11.498 16.253-11.379 19.964.039 1.231.584.447 1.325-1.91 3.858-12.26 13.023-22.013 25.517-27.152 3.075-1.265 4.875-2.311 4.001-2.324-.875-.013-4.475 1.414-8 3.172m28.903-2.513c.721.289 1.584.253 1.916-.079s-.258-.568-1.312-.525c-1.165.048-1.402.285-.604.604m43 0c.721.289 1.584.253 1.916-.079s-.258-.568-1.312-.525c-1.165.048-1.402.285-.604.604m26.295 1.671c9.235 3.799 17.405 10.992 22.315 19.646 1.404 2.475 2.558 3.989 2.565 3.364.027-2.568-8.587-13.751-13.379-17.37-5.362-4.048-13.028-7.951-15.609-7.948-.825.001 1.023 1.04 4.108 2.308M83 61c.825.533 1.95.969 2.5.969s.325-.436-.5-.969-1.95-.969-2.5-.969-.325.436.5.969m34 0c-.825.533-1.05.969-.5.969s1.675-.436 2.5-.969 1.05-.969.5-.969-1.675.436-2.5.969m-6.5 3.2c-1.65 1.176-4.443 3.481-6.207 5.124l-3.208 2.986-3.954-3.573c-2.175-1.964-5.006-4.072-6.293-4.683-2.199-1.046-2.19-1.006.153.667 1.37.979 4.202 3.311 6.293 5.184l3.801 3.405 3.208-3.018c1.764-1.66 4.999-4.204 7.189-5.655 2.19-1.45 3.54-2.623 3-2.605-.54.017-2.332.993-3.982 2.168m-48 14.775c-1.208.504.377.62 4 .292 3.3-.299 6.188-.706 6.417-.905.852-.74-8.492-.19-10.417.613m66.583-.613c.23.199 3.117.606 6.417.905 3.623.328 5.208.212 4-.292-1.925-.803-11.269-1.353-10.417-.613M77.5 80.866c2.2 1.002 5.688 3.693 7.75 5.981 4.117 4.565 4.913 4.595 1.685.061-2.167-3.043-9.608-7.924-12.023-7.886-.777.012.388.842 2.588 1.844m43.352 1.013c-4.729 2.999-9.384 9.217-8.514 11.373.301.744.536.543.583-.499.121-2.681 7.103-9.849 11.579-11.887 2.2-1.002 3.301-1.832 2.446-1.844s-3.597 1.273-6.094 2.857m-66.746 1.644c-3.843 3.472-7.179 8.99-7.03 11.628.042.742.604-.001 1.25-1.651 2.097-5.358 3.707-7.511 7.876-10.531C58.456 81.336 59.784 80 59.153 80s-2.902 1.586-5.047 3.523m91.533-.67c4.51 3.267 6.82 6.437 8.208 11.267.535 1.859 1.013 2.548 1.063 1.531.157-3.22-3.029-8.597-7.22-12.184-2.227-1.907-4.487-3.467-5.02-3.467-.534 0 .802 1.284 2.969 2.853m28.44 7.73c.048 1.165.285 1.402.604.605.289-.722.253-1.585-.079-1.917s-.568.258-.525 1.312M26.212 114.234 26 135.968l2.75 2.814c1.512 1.548 1.85 1.745.75.438-1.828-2.172-2.046-4.282-2.538-24.548L26.425 92.5zm148.788.189v21.424l-2.614 3.326-2.613 3.327 3.113-3.266 3.114-3.266v-21.484c0-11.816-.225-21.484-.5-21.484s-.5 9.64-.5 21.423m-84.79-.123c-.225 21.227.251 23.808 5.007 27.139 2.86 2.004 8.706 2.004 11.566 0 4.756-3.331 5.232-5.912 5.007-27.139l-.21-19.8-.54 20.5c-.557 21.138-1.085 23.883-4.997 25.977-2.455 1.314-7.631 1.314-10.086 0-3.912-2.094-4.44-4.839-4.997-25.977l-.54-20.5zm-43.984 2.373c-.224 19.025-.246 19.197-2.818 22.254-1.426 1.695-1.933 2.828-1.126 2.518.806-.309 2.222-1.998 3.146-3.754 1.436-2.728 1.632-5.873 1.352-21.691l-.328-18.5zM155.158 134c0 1.375.227 1.938.504 1.25.278-.687.278-1.812 0-2.5-.277-.687-.504-.125-.504 1.25m1.491 4.528c.322.84 1.546 2.026 2.719 2.635 1.961 1.02 1.938.897-.292-1.527-2.789-3.032-3.245-3.24-2.427-1.108m-121.887 4.179c1.244.239 3.044.23 4-.02s-.062-.446-2.262-.435-2.982.216-1.738.455m129 0c1.244.239 3.044.23 4-.02s-.062-.446-2.262-.435-2.982.216-1.738.455"/></svg>