<svg xmlns="http://www.w3.org/2000/svg" width="200" height="200" fill="#000000"><path fill-opacity=".427" fill-rule="evenodd" d="M81 1.423C55.576 6.611 36.656 18.565 18.983 40.607 10.043 51.757 2.512 71.466.746 88.329c-1.594 15.223.425 34.961 4.388 42.907.476.955.866 2.241.866 2.857 0 2.975 9.173 19.829 13.25 24.346.963 1.066 1.75 2.281 1.75 2.701C21 163.618 46.566 186 49.397 186c.353 0 2.425 1.125 4.603 2.5s4.532 2.503 5.23 2.506c.699.004 2.395.587 3.77 1.297 2.6 1.342 10.075 3.62 18.264 5.565 2.621.623 10.744 1.132 18.051 1.132 17.017 0 30.211-2.795 43.685-9.254 3.134-1.502 15.099-8.833 16.674-10.215.646-.567 3.346-2.804 6-4.971 8.743-7.139 19.612-21.595 24.479-32.56 5.816-13.101 7.7-20.201 8.626-32.5.495-6.572.724-7.375 1.28-4.5.422 2.177.671-.279.659-6.5-.014-7.478-.195-8.865-.718-5.5l-.7 4.5-.15-5.551c-.184-6.808-3.165-20.549-6.063-27.949-9.42-24.051-27.441-43.408-51.072-54.858C138.448 7.414 134.826 6 133.965 6s-1.993-.397-2.515-.883C127.22 1.187 94.057-1.242 81 1.423m-5.605 57.902c-2.627 5.284-4.953 9.201-5.645 9.508-.412.184-.75.73-.75 1.215s-2.544 5.285-5.653 10.667c-6.95 12.028-9.016 15.66-11.823 20.785-4.002 7.306-7.816 13.958-10.033 17.5-1.204 1.925-2.945 4.963-3.866 6.75L35.949 129h6.132c4.649 0 6.011-.317 5.63-1.312-.277-.721.323-2.409 1.333-3.75 1.763-2.341 2.413-2.458 16.333-2.938 14.385-.496 14.52-.523 17.56-3.437 5.385-5.164 4.598-5.563-10.968-5.563-15.995 0-16.792-.423-12.55-6.665 1.419-2.09 2.581-4.37 2.581-5.067S62.45 99 63 99s1-.431 1-.958C64 96.176 75.875 76.5 77.001 76.5c1.035 0 2.522 2.356 9.469 15 1.208 2.2 3.397 6.112 4.864 8.692 4.185 7.366 3.55 10.427-4.993 24.038-1.288 2.052-2.341 3.964-2.341 4.25s2.7.52 6 .52c5.457 0 6-.193 6-2.132 0-2.198 3.644-8.878 4.832-8.856 1.201.023 5.168 6.91 5.168 8.974 0 1.775.654 2.014 5.5 2.014 6.348 0 6.711-.753 3-6.215-1.375-2.023-2.5-3.937-2.5-4.252s-1.125-2.355-2.5-4.533-2.5-4.875-2.5-5.994c0-1.824 1.667-5.697 3.015-7.006.283-.275 1.408-2.407 2.5-4.739s2.323-4.243 2.735-4.25.75-.475.75-1.042C116 89.47 124.174 76 125.084 76c.423 0 1.42 1.237 2.214 2.75 2.634 5.013 6.35 11.636 12.09 21.545 3.121 5.388 5.409 10.225 5.084 10.75-.329.533-6.755.955-14.531.955-14.99 0-15.942.387-12.037 4.889 2.791 3.218 7.2 4.111 20.3 4.111 10.767 0 11.884.178 13.757 2.189 1.121 1.203 2.039 3.003 2.039 4 0 1.547.875 1.811 6.008 1.811 5.938 0 5.994-.027 4.75-2.25-.692-1.237-1.492-2.475-1.778-2.75s-1.066-1.625-1.733-3-2.824-5.2-4.794-8.5-4.102-7.237-4.737-8.75-1.405-2.75-1.711-2.75-1.445-2.021-2.531-4.491-2.312-4.494-2.724-4.5c-.412-.005-.75-.394-.75-.866 0-.471-2.323-4.858-5.163-9.75-9.557-16.46-10.911-18.883-12.095-21.643-.649-1.513-1.426-2.75-1.726-2.75s-1.843 2.362-3.428 5.25C106.711 89.353 102.046 97 100.386 97 99.624 97 99 96.325 99 95.5s-.351-1.5-.781-1.5c-.429 0-1.309-1.237-1.954-2.75-.646-1.513-2.799-5.45-4.784-8.75s-4.13-7.237-4.765-8.75S85.311 71 85.005 71s-1.445-2.021-2.531-4.491-2.312-4.494-2.724-4.5c-.412-.005-.75-.629-.75-1.387 0-.757-.568-1.848-1.262-2.424-.929-.771-1.546-.474-2.343 1.127M.365 99.5c.003 5.5.171 7.622.373 4.716.203-2.905.201-7.405-.004-10S.363 94 .365 99.5"/><path fill-opacity=".651" fill-rule="evenodd" d="M86.391 1.021C55.324 4.297 23.995 27.159 9.68 57-.45 78.118-2.552 108.219 4.613 129.553c2.298 6.841 8.884 21.157 10.328 22.447.307.275 2.233 2.975 4.279 6 13.301 19.663 36.869 34.706 61.901 39.51 9.371 1.798 29.8 1.632 39.515-.321 24.4-4.905 49.359-22.216 63.117-43.777 1.786-2.798 3.247-5.61 3.247-6.25s.45-1.162 1-1.162 1-.691 1-1.535c0-.845.627-2.532 1.392-3.75 1.928-3.067 5.509-13.605 6.775-19.94 1.973-9.869 2.149-30.241.343-39.654-4.812-25.076-19.836-48.616-39.51-61.906-3.025-2.043-5.749-4.048-6.053-4.455-.831-1.112-12.643-6.693-18.394-8.691-10.393-3.61-12.336-4.063-21.584-5.037-10.533-1.109-15.142-1.111-25.578-.011M72.955 63.213A6220 6220 0 0 0 61.542 83.5c-1.23 2.2-4.106 7.249-6.39 11.219-2.283 3.971-4.152 7.683-4.152 8.25S50.55 104 50 104s-1 .638-1 1.417-.337 1.566-.75 1.75-1.641 2.133-2.73 4.333-3.676 6.82-5.75 10.268c-2.073 3.447-3.77 6.484-3.77 6.75 0 .265 2.883.482 6.406.482 5.616 0 6.35-.217 5.948-1.755-.253-.965.482-2.765 1.632-4 1.961-2.104 2.906-2.245 15.103-2.245 9.24 0 13.793-.408 15.711-1.408 2.86-1.491 6.587-6.872 5.507-7.952-.352-.352-7.09-.64-14.974-.64-7.883 0-14.333-.259-14.333-.576s1.896-3.804 4.213-7.75c4.193-7.139 6.597-11.456 9.566-17.174 2.961-5.703 5.82-9.366 6.778-8.684.529.376 1.858 2.484 2.953 4.684s2.328 4.15 2.74 4.333c.412.184.75.682.75 1.107s2.25 4.683 5 9.462c5.696 9.899 6.099 12.897 2.5 18.598-1.375 2.178-2.5 4.203-2.5 4.5s-1.125 2.322-2.5 4.5-2.5 4.194-2.5 4.48 2.7.52 6 .52c4.832 0 6-.311 6-1.599 0-2.284 3.048-8.401 4.185-8.401 1.884 0 5.815 5.738 5.815 8.486 0 1.186 1.319 1.514 6.086 1.514h6.086l-3.79-6.75a1759 1759 0 0 1-5.836-10.469l-2.046-3.719 3.916-7.281C120.047 82.872 124.055 76 124.868 76c.372 0 1.563 1.688 2.645 3.75s2.206 3.975 2.498 4.25c.291.275 1.075 1.625 1.742 3 .666 1.375 2.807 5.2 4.756 8.5s4.08 7.237 4.737 8.75c.656 1.513 1.544 2.75 1.973 2.75s.781.9.781 2c0 1.904-.667 2-13.833 2-7.609 0-14.116.282-14.46.627-1.017 1.016 1.984 5.94 4.707 7.725 2.023 1.325 5.159 1.648 16.012 1.648 12.699 0 13.62.133 15.588 2.245 1.15 1.235 1.885 3.035 1.632 4-.402 1.538.332 1.755 5.948 1.755 6.204 0 7.412-.562 5.485-2.55-.863-.891-8.609-14.009-13.551-22.95-6.182-11.184-7.586-13.671-12.362-21.893-2.841-4.892-5.166-9.242-5.166-9.667s-.338-.923-.75-1.107-2.311-3.37-4.218-7.083S125.296 57 124.97 57c-.514 0-9.774 15.76-10.87 18.5-.22.55-.67 1.225-1 1.5s-1.496 2.3-2.59 4.5c-1.095 2.2-2.22 4.225-2.5 4.5-.281.275-1.32 2.075-2.309 4-2.806 5.459-4.596 7.509-5.625 6.446-1.355-1.397-12.225-20.268-18.83-32.688-3.935-7.399-4.404-7.43-8.291-.545"/><path fill-opacity=".235" fill-rule="evenodd" d="M116.212 67.032c-1.512 2.421-1.52 2.968-.045 2.968.641 0 .87-.296.508-.658s-.147-1.273.476-2.024c.624-.752.94-1.56.704-1.797-.237-.236-.976.443-1.643 1.511M6.651 68.468c-.346.9-.22 1.383.28 1.075.499-.309 1.57.101 2.379.91 1.044 1.044 4.339 1.567 11.331 1.8l9.859.328-9.816.21c-5.398.115-10.686-.257-11.75-.826-1.575-.843-1.937-.704-1.949.75-.013 1.518-.161 1.561-.985.285-.782-1.21-.972-1.058-.985.781-.008 1.255-.659 2.529-1.447 2.831-.787.302-1.403 1.301-1.369 2.219s-.255 3.919-.642 6.669c-1.004 7.127-.787 27.097.359 33 2.174 11.192 7.458 24.324 13.82 34.343 1.975 3.111 3.858 5.882 4.184 6.157.325.275 1.911 2.268 3.523 4.429 3.354 4.494 8.48 9.565 13.557 13.409 1.925 1.458 3.725 2.893 4 3.189.856.922 10.257 6.487 15.5 9.176 21.427 10.988 51.28 12.849 75 4.674 6.887-2.373 18.84-8.016 19.333-9.127.184-.413.971-.75 1.75-.75.78 0 1.417-.378 1.417-.839 0-.462 1.013-1.318 2.25-1.902 6.177-2.915 22.094-18.832 25.009-25.009.584-1.238 1.44-2.25 1.902-2.25s.839-.675.839-1.5.338-1.5.752-1.5c.913 0 5.28-9.14 8.601-18 6.313-16.841 7.584-44.697 2.48-54.355-.76-1.437-.683-1.675.343-1.058 1.071.645 1.087.503.083-.737-.683-.844-.946-1.83-.584-2.192s.133-.658-.508-.658c-.642 0-1.167-.645-1.167-1.433s-.907-1.72-2.015-2.072c-1.108-.351-1.775-1.026-1.483-1.498s.073-1.141-.486-1.487c-.559-.345-1.016-.137-1.016.462 0 .761-7.631 1.061-25.25.993-20.261-.078-25.25.162-25.25 1.219 0 1.011 3.709 1.441 16 1.855l16 .538-15.25.212L140 73l-.015 2.75c-.012 2.061-.246 2.386-.934 1.298-.506-.799-.654-1.881-.331-2.405.324-.524.117-.66-.461-.303-.577.357-1.332-.088-1.678-.989-.345-.9-.878-1.387-1.184-1.081s.206 1.721 1.138 3.143c.932 1.423 1.306 2.603.83 2.622-.476.02.26.679 1.635 1.465s1.911 1.445 1.191 1.465c-.72.019-1.026.492-.681 1.051.346.559 1.118.714 1.717.344.71-.439.892.076.524 1.484-.31 1.186-.156 2.156.343 2.156.498 0 .906.675.906 1.5s.862 2.362 1.917 3.417c1.054 1.054 1.616 2.251 1.25 2.659s.184.436 1.224.06c1.605-.578 1.7-.451.628.841-1.047 1.261-.975 1.523.418 1.523.963 0 1.392.467 1.004 1.095-1.172 1.897 1.746 6.089 3.854 5.538 1.805-.472 1.811-.408.142 1.437-1.012 1.117-1.261 1.93-.592 1.93.635 0 1.155.472 1.155 1.048s1.575 3.51 3.5 6.519 3.5 5.809 3.5 6.22c0 .412 1.125 2.404 2.5 4.428s2.5 3.928 2.5 4.232-2.911.553-6.469.553c-5.251 0-6.363-.274-5.91-1.456.31-.807-.574-2.588-1.986-4-2.471-2.471-2.926-2.544-15.877-2.544-13.111 0-13.386-.046-16.5-2.75-1.741-1.513-3.299-3.65-3.462-4.75-.283-1.909.349-2.013 13.954-2.277 7.998-.156 14.25-.689 14.25-1.215 0-1.574-5.123-10.428-6.803-11.758-.869-.687-1.243-1.25-.832-1.25 1.28 0-2.761-6.121-4.75-7.196-1.189-.643-1.486-1.266-.803-1.688 1.292-.799.427-2.2-2.312-3.743-1.175-.662-1.988-2.148-1.972-3.602.018-1.609-.507-2.439-1.5-2.373-1.869.125-3.359 2.257-2.523 3.61.337.546.11.992-.505.992s-.843.445-.507.989c.344.556-.036.74-.868.421-1.123-.431-1.338-.029-.895 1.667.374 1.43.206 2.001-.468 1.585-.999-.617-2.759 1.991-2.421 3.588.088.412-.277.75-.81.75-.532 0-.681.749-.33 1.664.43 1.119.256 1.427-.531.941-.702-.434-1.17-.1-1.17.836 0 .857-.338 1.559-.75 1.56s-2.03 2.28-3.594 5.065c-3.259 5.802-3.024 7.098 3.025 16.703 1.826 2.899 3.319 5.679 3.319 6.179s.707 1.616 1.571 2.481c1.429 1.428.974 1.571-5 1.571-5.201 0-6.571-.316-6.571-1.514 0-1.988-4.216-8.465-5.5-8.449-1.154.014-4.5 6.337-4.5 8.504 0 1.117-1.408 1.459-6 1.459-3.3 0-6-.158-6-.351 0-.323 1.114-2.425 7.658-14.452C92.946 111.83 94 109 94 107.907c0-2.825-3.89-10.093-5.027-9.39-.522.323-.732.001-.466-.715.635-1.707-5.214-11.863-6.649-11.546-.609.134-1.335-.381-1.613-1.145-.351-.966-.084-1.136.875-.558 1.171.705 1.172.575.008-.861-.755-.931-.993-1.692-.528-1.692s-.204-.735-1.486-1.633c-1.806-1.265-2.505-1.352-3.102-.387-.423.686-.976.858-1.227.383s-.296-.237-.099.527c.197.765-.577 2.046-1.722 2.847-1.989 1.394-2.001 1.517-.272 2.811 1.671 1.25 1.633 1.308-.501.77-1.783-.45-2.436-.097-2.867 1.55-.306 1.173-.981 2.132-1.5 2.132-.518 0-.659.457-.314 1.016s1.042.761 1.548.448c.505-.312.637.168.291 1.068-.449 1.17-.837 1.297-1.363.445-.528-.855-.929-.878-1.42-.084-.376.609-.363 1.627.029 2.262.442.713.275.883-.436.443-.697-.431-1.637.395-2.384 2.096-.679 1.543-1.693 3.137-2.255 3.541-.662.477-.669.745-.02.765.647.02.639.29-.023.765-1.113.8-4.477 5.833-4.477 6.7 0 .294 6.78.535 15.067.535h15.068l-.643 2.25c-.354 1.237-2.055 3.487-3.78 5-3.095 2.714-3.317 2.75-16.852 2.75-13.686 0-13.719.006-15.825 2.682-1.16 1.475-1.882 3.275-1.604 4 .387 1.007-1.02 1.318-5.962 1.318-3.558 0-6.469-.346-6.469-.768s1.049-2.335 2.332-4.25 3.023-4.832 3.869-6.482c2.98-5.814 8.045-15.012 8.811-16 .426-.55 2.156-3.567 3.845-6.704 2.452-4.557 2.725-5.598 1.356-5.175-1.227.38-1.146.173.287-.731 2.943-1.855 4.818-3.905 4.167-4.557-.315-.314.108-1.251.938-2.081.831-.83 1.284-2.098 1.009-2.816-.276-.719.036-1.499.692-1.734.657-.236.867-.779.468-1.208s-1.485-.152-2.412.613c-1.456 1.202-1.619 1.187-1.187-.107.275-.825 1.586-1.509 2.913-1.519 1.455-.011 2.412-.606 2.412-1.5 0-.815-.675-1.336-1.5-1.16-1.203.258-1.252.07-.25-.95 1.498-1.523 1.689-5.26.222-4.354-2.008 1.241-7.743 1.562-29.822 1.669-16.998.083-22.536-.193-23.129-1.152-.615-.995-.894-.974-1.324.103-.452 1.132-.703 1.137-1.482.029-.757-1.078-1.057-1.02-1.564.302m61.574-.613c.151.552-.625 1.696-1.725 2.543-1.1.846-1.507 1.553-.905 1.57 1.807.053 4.694-3.671 3.445-4.443-.599-.371-.966-.222-.815.33M100.5 69.11c-11.216 1.028-12.239 1.229-13.71 2.7-.92.92-.918 1.19.01 1.19.66 0 1.202-.338 1.204-.75s5.065-.824 11.25-.915l11.246-.166-9.681 1.166c-5.324.641-10.024 1.514-10.442 1.941-1.186 1.207-1.52 4.93-.38 4.226.552-.341 1.003.045 1.003.858 0 2.304 3.353 7.627 4.809 7.634.765.003 1.01-.514.59-1.244-.396-.687-.334-.899.136-.471 1.176 1.07 1.509 3.866.377 3.167-2.364-1.462 1.123 5.56 3.772 7.594.999.767 1.526 1.044 1.171.615-.355-.428.449-1.959 1.786-3.402 1.337-1.442 2.204-3.215 1.926-3.938-.277-.723-.049-1.315.508-1.315s.88-.787.719-1.75c-.164-.978.258-1.64.956-1.5 1.645.329 1.155-1.92-.75-3.438-1.271-1.014-1.157-1.172.75-1.041 1.237.085 2.282.621 2.32 1.192.039.57.428.137.866-.963.437-1.1.404-3.044-.073-4.32s-.635-3.639-.351-5.25.173-2.866-.248-2.787c-.42.078-4.814.513-9.764.967m32.5-.002c0 1.453 1.789 1.884 2.3.553.28-.73-.123-1.328-.895-1.328-.773 0-1.405.349-1.405.775m43.269 1.585c.973.254 2.323.237 3-.037s-.119-.481-1.769-.461-2.204.244-1.231.498M44.784 72.738c2.905.203 7.405.201 10-.004s.216-.371-5.284-.369-7.622.171-4.716.373m67.487 1.211c.11 1.465.465 1.685 1.427.887.704-.585 1.033-1.462.732-1.949-.981-1.588-2.309-.935-2.159 1.062m69.979-1.233c1.512.229 3.988.229 5.5 0s.275-.416-2.75-.416-4.262.187-2.75.416M92 81.044c0 .391.579 1.191 1.286 1.778.965.802 1.285.625 1.285-.711 0-.978-.578-1.778-1.285-1.778s-1.286.32-1.286.711M143.5 81c.34.55.816 1 1.059 1s.441-.45.441-1-.477-1-1.059-1-.781.45-.441 1M70 89.059c0 .582.45.781 1 .441s1-.816 1-1.059S71.55 88 71 88s-1 .477-1 1.059M81.5 89c.34.55 1.068 1 1.618 1s.722-.45.382-1-1.068-1-1.618-1-.722.45-.382 1"/><path fill-opacity=".692" fill-rule="evenodd" d="M86.943 111.343c.679.679.674 1.413-.015 2.244-.703.847-.688 1.443.048 1.898.591.365 1.009.293.93-.161-.334-1.925.187-2.726.97-1.49.682 1.075.963 1.029 1.449-.238.361-.941.116-1.476-.611-1.334-.668.131-1.126-.249-1.02-.845.107-.596-.47-1.084-1.283-1.084-.994 0-1.148.33-.468 1.01m-50.674 3.35c.973.254 2.323.237 3-.037s-.119-.481-1.769-.461-2.204.244-1.231.498m76.731.276c0 .532.675.709 1.5.393.825-.317 1.5-.753 1.5-.969s-.675-.393-1.5-.393-1.5.436-1.5.969m51 .031c0 2.101.236 2.492 1.35 2.236.632-.146.296.402-.747 1.217-1.044.816-2.351 1.203-2.905.86-.554-.342-.703-.13-.331.471s1.54.927 2.596.723c1.335-.257 1.755.065 1.375 1.056-.301.784-.95 1.177-1.443.872-1.532-.947-.982 1.09.855 3.165 3.144 3.554 2.472 4.063-5.305 4.024-6.11-.032-7.538-.343-7.982-1.742-.783-2.467-5.168-5.189-5.809-3.606-.273.673-.532.211-.575-1.026-.076-2.177-.401-2.25-10.006-2.25-8.613 0-9.987.232-10.384 1.75-.423 1.62-.466 1.622-.573.031-.074-1.091-.66-1.509-1.608-1.146-.856.329-1.757-.121-2.116-1.057-.444-1.156-.981-1.334-1.851-.612-.674.559-1.521.721-1.883.359s-.658-.107-.658.567-.52.905-1.155.513c-.678-.42-.884-.277-.499.347.361.583 1.505.838 2.542.567 1.038-.271 2.189-.004 2.558.594.37.598.195 1.087-.387 1.087s-1.059.9-1.059 2 .525 2 1.167 2c.641 0 .829.338.416.75-.412.412-3.81.75-7.551.75-6.459 0-6.789-.113-6.554-2.25.225-2.054-.958-2.806-3.728-2.368-.412.065-.75-.38-.75-.989s.652-.857 1.449-.551q1.45.557.895-.887c-.304-.794-1.007-1.163-1.561-.821-.553.342-1.416.002-1.916-.756-.618-.935-.759-.465-.439 1.46.328 1.975.097 2.694-.759 2.365-.782-.3-1.219.472-1.199 2.122.028 2.433-.279 2.601-4.97 2.717-6.164.153-11.758-1.268-11.23-2.852.217-.65 1.257-1.183 2.312-1.186s1.805-.566 1.668-1.254c-.138-.687.255-1.25.872-1.25.827 0 .826-.358-.006-1.36-1.245-1.501-6.116-1.024-6.116.599 0 .663-.426.655-1.25-.022-1.821-1.497-22.996-1.422-23.974.086-.579.893-1.026.816-1.761-.303-.799-1.218-.987-1.077-1 .75-.009 1.399-.626 2.25-1.632 2.25-1.171 0-1.489.667-1.153 2.421.457 2.394.38 2.419-6.796 2.25-7.475-.176-8.16-.706-5.219-4.033.944-1.068 1.48-2.323 1.191-2.789s-.047-.849.535-.849S40 121.48 40 120.845c0-.675-.79-.44-1.901.565-1.329 1.203-2.111 1.38-2.6.589-.686-1.11.016-2.451 1.334-2.548 2.224-.164 5.108-1.738 4.623-2.523-.316-.51-.022-.928.652-.928s.936-.289.583-.643c-.354-.353-1.216-.212-1.917.313-1.701 1.274-23.412 1.597-27.524.409-2.615-.756-3.25-.653-3.25.526 0 1.159-.421 1.24-2.015.387-1.585-.848-2.141-.749-2.607.465-.326.849-1.331 1.557-2.235 1.575-1.395.027-1.349.254.298 1.5 1.182.894 1.427 1.468.628 1.468-.986 0-1.036.335-.2 1.342.612.738.839 1.617.502 1.953-1.21 1.211.673 5.705 2.398 5.72 1.349.012 1.432.205.378.873-1.784 1.13.347 5.532 2.153 4.448.877-.526.866-.307-.041.814-.683.844-.908 1.868-.5 2.275.407.408.768 1.042.802 1.408.133 1.458 3.375 8.167 3.947 8.167.336 0 .286-.562-.109-1.25-.411-.714-.335-.898.178-.429.494.451.903 1.576.91 2.5.009 1.196.732 1.599 2.513 1.401 2.218-.247 2.296-.153.69.833-1.693 1.04-1.705 1.274-.177 3.605C28.123 171.853 49.14 187.658 69 194.379c19.884 6.728 47.42 5.746 67.5-2.408 5.866-2.382 14.005-6.482 14.333-7.221.184-.412.971-.75 1.75-.75.78 0 1.417-.378 1.417-.839 0-.462 1.012-1.318 2.25-1.902 6.488-3.062 21.311-18.147 25.96-26.419 1.187-2.112 2.49-3.84 2.895-3.84s1.033-1.35 1.395-3 .961-3.002 1.329-3.004c.369-.002 1.507-2.035 2.528-4.519 1.502-3.653 1.618-4.802.608-6.019-1.029-1.24-.978-1.4.292-.913 1.911.734 2.749-.55 3.13-4.793.162-1.809.833-4.294 1.489-5.521.832-1.555.863-2.231.1-2.231-.602 0-.845-.403-.541-.895.305-.493-.068-1.134-.828-1.425-.991-.381-1.227.057-.836 1.551.37 1.416.174 1.853-.613 1.366-.637-.393-1.158-1.588-1.158-2.656s-.477-1.941-1.059-1.941-.8-.419-.484-.931.049-1.256-.595-1.654c-.703-.435-.904-.292-.503.357.928 1.501-9.029 2.64-14.516 1.66-2.389-.427-5.631-.659-7.206-.517-1.856.168-2.627-.123-2.191-.828.37-.598.195-1.087-.387-1.087s-1.059.45-1.059 1M2.564 116.293c.376.986.935 1.541 1.243 1.233s.001-1.114-.683-1.793c-.988-.98-1.102-.865-.56.56m156.989-.378a1.116 1.116 0 0 0 .362 1.532c.521.322 1.21.159 1.532-.362a1.116 1.116 0 0 0-.362-1.532 1.116 1.116 0 0 0-1.532.362m35.18.209c.679.684 1.486.991 1.793.683.308-.308-.247-.867-1.233-1.243-1.425-.542-1.54-.428-.56.56m-83.733.285c0 .19.675.906 1.5 1.591.865.718 1.5.815 1.5.229 0-.558-.675-1.274-1.5-1.591s-1.5-.419-1.5-.229m4.658 1.04q-.557 1.45.887.895c.794-.304 1.195-.956.89-1.449-.766-1.24-1.132-1.126-1.777.554m-32.625 1.279c-1.311 1.476-1.275 1.579.332.962.989-.379 1.987-.69 2.217-.69s.418-.45.418-1c0-1.471-1.297-1.153-2.967.728m66.601 5.603c1.576 1.854 3.184 3.198 3.572 2.988 1.309-.71-.216-2.807-3.338-4.589l-3.1-1.77zm-73.978-.786c.304.794.956 1.195 1.449.89 1.24-.766 1.126-1.132-.554-1.777q-1.45-.557-.895.887m-39.627.416c-.809.512-1.211 1.191-.893 1.509s1.148-.108 1.844-.946c1.443-1.738 1.166-1.902-.951-.563"/></svg>