<svg width="499" height="500" viewBox="0 0 499 500" fill="#000000" xmlns="http://www.w3.org/2000/svg">
<path fill-rule="evenodd" clip-rule="evenodd" d="M212.749 3.03892C24.9972 32.2174 -63.4297 250.284 51.0864 401.71C193.86 590.5 497.066 489.11 498 252.264C498.613 96.3952 364.727 -20.5793 212.749 3.03892ZM189.176 158.45C202.024 172.127 192.425 194.683 173.756 194.683C163.369 194.683 151.558 182.737 151.558 172.229C151.558 153.984 176.423 144.876 189.176 158.45ZM344.394 158.45C357.242 172.127 347.643 194.683 328.975 194.683C318.588 194.683 306.776 182.737 306.776 172.229C306.776 153.984 331.641 144.876 344.394 158.45ZM144.838 192.588C161.775 201.611 160.57 223.719 142.733 231.172C128.105 237.283 114.005 227.707 114.005 211.657C114.005 194.518 129.947 184.657 144.838 192.588ZM226.856 196.994C238.84 208.979 235.846 224.693 220.342 231.172C202.312 238.705 185.125 221.584 192.648 203.581C199.192 187.916 214.777 184.917 226.856 196.994ZM300.057 192.588C319.704 203.053 313.223 232.336 291.121 232.962C278.123 233.33 269.223 224.673 269.223 211.657C269.223 194.518 285.166 184.657 300.057 192.588ZM382.074 196.994C394.059 208.979 391.065 224.693 375.56 231.172C357.53 238.705 340.343 221.584 347.866 203.581C354.41 187.916 369.995 184.917 382.074 196.994ZM182.659 230.742C204.264 239.769 196.556 272.293 172.81 272.293C150.939 272.293 144.613 237.927 164.969 229.713C172.377 226.721 173.143 226.766 182.659 230.742ZM337.877 230.742C349.256 235.496 353.915 248.497 348.202 259.547C340.619 274.213 325.705 276.586 314.094 264.975C296.176 247.057 314.342 220.908 337.877 230.742ZM107.701 238.805C114.235 245.342 111.779 260.018 103.365 264.704C89.2701 272.553 73.4228 254.821 82.3528 241.191C87.3574 233.556 101.149 232.256 107.701 238.805ZM262.141 238.883C271.647 247.485 264.289 267.286 251.586 267.286C245.232 267.286 234.174 256.58 234.174 250.432C234.174 236.878 251.856 229.575 262.141 238.883ZM417.359 238.883C426.865 247.485 419.507 267.286 406.804 267.286C400.45 267.286 389.392 256.58 389.392 250.432C389.392 236.878 407.075 229.575 417.359 238.883ZM146.551 277.3C156.627 287.376 149.214 304.838 134.857 304.838C125.453 304.838 119.012 298.124 119.012 288.32C119.012 273.932 136.276 267.025 146.551 277.3ZM223.374 277.735C230.494 284.427 230.807 293.184 224.16 299.831C213.522 310.469 196.621 303.401 196.621 288.32C196.621 273.677 212.406 267.433 223.374 277.735ZM301.769 277.3C311.846 287.376 304.433 304.838 290.075 304.838C280.672 304.838 274.23 298.124 274.23 288.32C274.23 273.932 291.494 267.025 301.769 277.3ZM378.592 277.735C385.712 284.427 386.025 293.184 379.378 299.831C368.741 310.469 351.839 303.401 351.839 288.32C351.839 273.677 367.624 267.433 378.592 277.735ZM65.0085 281.233C69.6199 285.847 69.8703 288.41 66.3503 294.989C61.2231 304.568 46.4098 299.516 46.4098 288.19C46.4098 278.646 58.0637 274.29 65.0085 281.233ZM453.069 282.126C458.715 288.365 456.169 296.81 448.025 298.852C440.439 300.758 434.456 296.139 434.456 288.383C434.456 278.131 445.954 274.265 453.069 282.126ZM105.465 323.61C107.839 333.063 105.072 337.384 96.648 337.384C87.3974 337.384 82.3854 329.989 86.4661 322.363C90.5794 314.677 103.435 315.521 105.465 323.61ZM260.195 322.989C263.948 328.982 259.372 335.902 250.988 336.908C242.663 337.907 237.644 329.914 241.765 322.213C245.114 315.954 256.08 316.415 260.195 322.989ZM414.4 321.079C416.172 323.214 416.816 327.485 415.912 331.093C413.872 339.217 401.028 340.085 396.903 332.377C391.042 321.424 406.436 311.483 414.4 321.079Z" fill="#000000"/>
</svg>
