<svg xmlns="http://www.w3.org/2000/svg" width="64" height="64" fill="#000000"><path fill-opacity=".098" fill-rule="evenodd" d="M18.5 2.882C6.619 8.586.026 18.969.011 32c-.008 6.22.482 8.524 2.871 13.5C8.589 57.388 18.977 63.98 32 63.98c13.359 0 23.259-6.486 29.602-19.395C64.549 38.586 65 36.675 65 30.168c0-4.126-.286-7.216-.635-6.866-.349.349-1.871-1.939-3.381-5.084C55.415 6.624 44.912.026 32 .011c-6.22-.008-8.524.482-13.5 2.871M24 20.367c0 2.837.649 3.797 4.119 6.093l4.118 2.725 4.132-2.996c3.437-2.493 4.073-3.475 3.784-5.843-.191-1.565-.516-3.021-.723-3.235-.207-.215-1.963.821-3.903 2.3L32 22.102l-3.344-2.551c-1.84-1.403-3.64-2.551-4-2.551-.361 0-.656 1.515-.656 3.367M14 31.381v10.382l3.433 2.618c1.889 1.441 3.914 2.619 4.5 2.619.648 0 1.067-2.58 1.067-6.562v-6.562l4.5 3.231 4.5 3.232 4.5-3.232 4.5-3.231v6.562C41 44.42 41.419 47 42.067 47c.586 0 2.611-1.178 4.5-2.619L50 41.763V31.381C50 24.6 49.625 21 48.918 21c-.596 0-4.622 2.738-8.948 6.085l-7.866 6.084-7.993-6.084C19.715 23.738 15.642 21 15.059 21 14.382 21 14 24.741 14 31.381M.349 32c0 4.675.173 6.587.383 4.25.211-2.338.211-6.163 0-8.5-.21-2.338-.383-.425-.383 4.25"/><path fill-opacity=".3" fill-rule="evenodd" d="M22.396 1.418C12.518 4.51 3.417 14.211.921 24.309c-5.674 22.963 15.807 44.444 38.77 38.77 10.139-2.506 21.144-13 22.913-21.85.36-1.799 1.046-3.513 1.525-3.809.479-.296.871-3.238.871-6.538 0-3.3-.395-5.756-.878-5.457-.483.298-1.169-.913-1.525-2.691-.99-4.952-6.989-13.219-12.186-16.795C42.12.235 31.601-1.463 22.396 1.418m1.277 15.242c-.37.37-.673 1.911-.673 3.423 0 2 1.061 3.589 3.894 5.833C29.036 27.612 31.333 29 32 29c.667 0 2.964-1.388 5.106-3.084C40.003 23.622 41 22.1 41 19.975c0-4.03-1.348-4.395-4.971-1.346-3.325 2.798-4.436 2.669-9.606-1.121-1.142-.837-2.379-1.219-2.75-.848M14 30.916v10.916l3.894 3.084c2.142 1.696 4.167 3.084 4.5 3.084.333 0 .606-2.925.606-6.5s.347-6.5.772-6.5c.425 0 2.453 1.385 4.507 3.079l3.735 3.078 3.887-3.078C38.039 36.385 40.061 35 40.394 35c.333 0 .606 2.925.606 6.5s.266 6.5.59 6.5c.325 0 2.34-1.237 4.479-2.75l3.888-2.75.022-11.25c.011-6.187-.231-11.25-.538-11.25-.308 0-4.106 2.7-8.441 6-4.335 3.3-8.396 6-9.023 6-.628 0-4.632-2.7-8.898-6s-8.054-6-8.417-6C14.298 20 14 24.912 14 30.916M.32 32c0 3.575.182 5.038.403 3.25.222-1.788.222-4.712 0-6.5C.502 26.962.32 28.425.32 32"/><path fill-opacity=".466" fill-rule="evenodd" d="M23.951 1.303c-6.018 1.701-10.938 4.833-15.467 9.846C2.818 17.421.656 23.18.656 32c0 9.047 2.228 14.749 8.363 21.405 9.378 10.174 24.187 13.154 36.189 7.281 6.769-3.311 14.045-10.982 16.093-16.964C65.275 32.117 65.981 28 64 28c-.55 0-1-1.037-1-2.304 0-6.843-9.828-18.963-18.481-22.791C38.845.395 29.684-.318 23.951 1.303M23 19.807c0 3.384.508 4.166 4.558 7.021l4.558 3.213 4.442-3.19C40.486 24.03 41 23.217 41 19.83c0-4.521-.955-4.729-5.567-1.211L32 21.237l-3.433-2.618C23.96 15.105 23 15.31 23 19.807m-9.302.829c-.384.383-.698 5.308-.698 10.944v10.247l4.214 3.099c2.317 1.704 4.679 2.945 5.25 2.757.57-.187 1.171-2.893 1.336-6.012.165-3.119.532-5.671.817-5.671.284 0 2.061 1.178 3.95 2.619L32 41.237l3.433-2.618C37.322 37.178 39.099 36 39.383 36c.285 0 .652 2.552.817 5.671.165 3.119.766 5.825 1.336 6.012.571.188 2.948-1.064 5.283-2.781l4.246-3.123-.282-10.558c-.176-6.568-.7-10.696-1.385-10.924-.607-.201-4.207 2.031-8 4.959-3.794 2.929-7.481 5.683-8.193 6.122-.841.516-3.922-1.181-8.771-4.83-8.13-6.12-9.677-6.971-10.736-5.912M.232 32c0 1.925.206 2.712.457 1.75.252-.962.252-2.538 0-3.5-.251-.962-.457-.175-.457 1.75"/><path fill-opacity=".325" fill-rule="evenodd" d="M22.512 16.25c-.234.688-.558 2.533-.719 4.101l-.293 2.85-2.751-2.173c-1.513-1.196-3.538-1.969-4.5-1.717-1.615.422-1.611.466.06.573.995.064 5.405 2.853 9.8 6.199l7.991 6.083 5.231-4.036c5.017-3.87 5.215-4.204 4.838-8.157-.437-4.585-2.519-6.169-4.75-3.613-.784.898-.885 1.184-.223.636 2.652-2.195 3.927-1.097 3.611 3.112-.263 3.515-.907 4.542-4.464 7.112l-4.158 3.003-4.592-3.159C23.444 24.209 23 23.522 23 19.952c0-4.675 1.046-4.917 5.748-1.33 3.307 2.521 3.5 2.552 5.095.804 1.548-1.697 1.545-1.732-.048-.536-1.442 1.083-2.228.881-5.094-1.305-3.733-2.847-5.542-3.237-6.189-1.335m26.301 3.433c.721.289 1.584.253 1.916-.079.332-.332-.258-.568-1.312-.525-1.165.048-1.402.285-.604.604m-3.941 2.067c-1.243 1.586-1.208 1.621.378.378C46.916 20.821 47.445 20 46.622 20c-.207 0-.995.788-1.75 1.75m-32.661 9.345c-.197 9.89-.061 10.722 2.039 12.5 2.24 1.896 2.242 1.896.537-.132-1.321-1.573-1.787-4.428-2.039-12.5L12.422 20.5l-.211 10.595m39.163.405c.002 6.05.167 8.396.366 5.213.199-3.182.197-8.132-.004-11-.201-2.867-.364-.263-.362 5.787m-27.064 10c.005 3.3.192 4.529.415 2.732.222-1.797.218-4.497-.01-6-.229-1.503-.411-.032-.405 3.268m15 0c.005 3.3.192 4.529.415 2.732.222-1.797.218-4.497-.01-6-.229-1.503-.411-.032-.405 3.268M26 37.378c0 .207.788.995 1.75 1.75 1.586 1.243 1.621 1.208.378-.378C26.821 37.084 26 36.555 26 37.378m9.872 1.372c-1.243 1.586-1.208 1.621.378.378.962-.755 1.75-1.543 1.75-1.75 0-.823-.821-.294-2.128 1.372m-4.858 2.664c.648.648 1.324.648 1.972 0 .647-.647.309-.985-.986-.985s-1.633.338-.986.985M17 45.378c0 .207.788.995 1.75 1.75 1.586 1.243 1.621 1.208.378-.378C17.821 45.084 17 44.555 17 45.378m27.872 1.372c-1.243 1.586-1.208 1.621.378.378.962-.755 1.75-1.543 1.75-1.75 0-.823-.821-.294-2.128 1.372"/></svg>