<!-- Generated by IcoMoon.io -->
<svg version="1.1" xmlns="http://www.w3.org/2000/svg" width="32" height="32" viewBox="0 0 32 32" fill="#000000">
<title>mbox</title>
<path d="M13.036 8.549c-1.515 0.926-2.791 1.793-2.836 1.927s1.144 0.972 2.641 1.861c1.498 0.889 2.848 1.651 3.002 1.693s1.523-0.65 3.043-1.538c1.551-0.906 2.768-1.766 2.773-1.96 0.006-0.202-1.122-1.020-2.699-1.959-1.49-0.887-2.812-1.634-2.939-1.66s-1.47 0.71-2.985 1.636zM4.599 13.673c-1.832 1.093-3.616 2.19-3.965 2.436l-0.634 0.449v4.018c0 3.489 0.048 4.018 0.36 4.018 0.198 0 1.903-0.934 3.789-2.075s3.598-2.075 3.806-2.075c0.207 0 1.121 0.454 2.031 1.009s2.614 1.598 3.785 2.317l2.13 1.308 1.327-0.791c0.73-0.435 2.462-1.478 3.847-2.317s2.69-1.527 2.899-1.527c0.208 0 2.021 0.985 4.027 2.19s3.739 2.19 3.85 2.19c0.11 0 0.173-1.889 0.138-4.198l-0.063-4.198-2.075-1.252c-1.141-0.688-2.793-1.704-3.672-2.257s-1.822-1.005-2.098-1.005c-0.276 0-2.143 0.986-4.149 2.19s-3.768 2.19-3.914 2.19c-0.146 0-1.992-1.037-4.103-2.305s-3.871-2.305-3.912-2.305c-0.041 0-1.574 0.894-3.406 1.988z"/>
</svg>
