<svg xmlns="http://www.w3.org/2000/svg" width="200" height="200" fill="#000000"><path fill-opacity=".188" fill-rule="evenodd" d="M49 .986c28.765.299 46.149.799 41.5 1.195C55.457 5.166 23.11 28.658 9.418 61.067c-19.012 45.002-3.865 94.964 36.989 122.012 16.78 11.109 31.238 15.294 53.093 15.369 12.637.044 16.418-.318 24-2.298 34.182-8.926 61.279-35.119 70.407-68.057 1.076-3.883 1.63-7.261 1.232-7.507s-.417-4.02-.042-8.386c.375-4.367.545-14.41.377-22.32-.323-15.166-1.815-21.74-7.468-32.899-5.951-11.75-16.015-24.711-18.159-23.386-.717.443-.885.275-.442-.44.427-.691.063-1.155-.905-1.155-1.011 0-1.348-.469-.899-1.25.396-.687.376-.941-.044-.563-.42.377-3.597-1.651-7.06-4.507-3.463-2.857-9.144-6.878-12.624-8.937s-5.888-3.765-5.35-3.791c.537-.027-1.555-1.356-4.651-2.954-7.474-3.86-19.426-6.989-29.872-7.821-4.986-.397 12.376-.889 42-1.191 34.413-.35 18.486-.514-50-.514-67.19 0-84.093.17-51 .514m83 13.073c0 .582.45.781 1 .441s1-.222 1 .263c0 .484 2.207 1.878 4.904 3.097 12.196 5.512 28.78 19.297 35.142 29.212 1.739 2.71 3.592 4.928 4.117 4.928s.699.414.387.919c-.313.506.127 1.615.977 2.465.849.849 1.542 1.78 1.539 2.067s.875 2.578 1.952 5.09c3.546 8.272 6.268 18.676 6.376 24.363.101 5.331-.013 5.596-2.394 5.596-2.239 0-2.594-.553-3.399-5.3-.664-3.915-1.265-5.159-2.302-4.761q-1.401.537-.616-.7c1.197-1.885 1.089-2.723-1.253-9.739-2.737-8.201-6.36-15.162-7.518-14.446-.489.303-.65-.073-.358-.834.766-1.996-7.061-12.094-15.671-20.22-10.422-9.835-27.529-17.952-25.235-11.974.309.805.964 1.214 1.457.909.492-.304.895-.16.895.321 0 .48 1.615 1.644 3.588 2.585 3.936 1.876 17.811 11.877 18.881 13.608a1.28 1.28 0 0 0 1.755.413c.63-.39.799-.208.403.433-.378.612.65 2.09 2.306 3.314 1.644 1.215 2.774 2.557 2.511 2.982s.53 1.478 1.762 2.341c1.231.862 1.801 1.584 1.267 1.604-.535.02.377 1.194 2.027 2.61s2.391 2.244 1.646 1.841c-1.413-.765.755 3.2 3.791 6.935 1.322 1.625 1.331 1.787.063 1.05-.825-.479-.282.738 1.207 2.705 1.488 1.967 2.445 3.837 2.126 4.156-.319.32-.226 1.388.207 2.374s.882 2.131.999 2.543.304.862.417 1q1.066 1.29 1.559 22.25c.207 8.8.401 16.337.431 16.75.029.412.617.637 1.304.5 1.586-.317 2.481-3.847 2.632-10.375.234-10.133 2.279-14.146 5.745-11.27 2.041 1.694 1.302 16.767-1.232 25.145-.292.962-.111 1.75.401 1.75 1.831 0 3.653-12.643 3.604-25-.039-9.684-.56-14.415-2.31-21-1.243-4.675-2.727-9.062-3.298-9.75-.57-.687-.702-1.25-.292-1.25s.185-.675-.5-1.5-.934-1.5-.554-1.5c.379 0-.159-1.237-1.197-2.75s-3.078-5.225-4.535-8.25c-1.456-3.025-3.788-6.718-5.181-8.206-1.393-1.489-2.533-3.1-2.533-3.581 0-1.339-13.921-14.45-19-17.895-10.145-6.881-21-11.15-21-8.259m14.186 11.998c.229.689 1.429 1.626 2.666 2.084 2.735 1.012 1.986-.622-1.023-2.233-1.585-.848-1.964-.814-1.643.149m-14.781 5.098c-.444.717-.275.882.448.436.64-.396 1.414-.058 1.726.754.678 1.767 6.188 4.221 7.201 3.208 1.016-1.015-2.949-3.702-4.553-3.087-.732.281-1.085.113-.785-.373.301-.486-.163-1.156-1.03-1.488-2.094-.804-2.181-.788-3.007.55m17.398 12.002c3.207 3.112 4.57 3.87 5.423 3.017.628-.628.946-1.283.707-1.458-.238-.174-1.93-1.531-3.76-3.016-5.47-4.44-7.291-3.32-2.37 1.457m9.899 9.178c-.62 1.616 1.056 3.665 2.998 3.665 1.849 0 1.609-1.411-.576-3.388-1.563-1.414-1.968-1.46-2.422-.277m3.509 6.06c.709.767 1.675 1.161 2.146.875s.246-.907-.5-1.38c-2.11-1.337-3.075-1.041-1.646.505m5.122 8.105c0 .825.395 1.5.878 1.5.482 0 .769.563.637 1.25-.334 1.74 1.119 5.75 2.083 5.75.928 0 .761-2.639-.348-5.5-.426-1.1-.943-2.562-1.148-3.25-.522-1.751-2.102-1.564-2.102.25m6.051 15.942c-.827 2.154-.069 4.831 1.518 5.359 1.061.354 1.226-.112.677-1.917-.398-1.311-.766-2.946-.818-3.634-.125-1.661-.696-1.582-1.377.192M174 90.5c0 .825.45 1.5 1 1.5s1-.675 1-1.5-.45-1.5-1-1.5-1 .675-1 1.5m.553 8.415c-.311.503 0 1.104.691 1.337.898.302.96.826.218 1.835-1.449 1.972-1.83 6.913-.534 6.913 1.293 0 1.351-.232 1.575-6.25.164-4.427-.625-5.98-1.95-3.835m12.792 26.628c-.326.849-.369 1.767-.096 2.04.274.273.737-.422 1.03-1.543.624-2.383-.069-2.751-.934-.497"/><path fill-opacity=".464" fill-rule="evenodd" d="M49.75.75c27.637.148 72.862.148 100.5 0C177.887.602 155.275.481 100 .481S22.112.602 49.75.75M84.5 3.041C37.057 10.424 1.777 51.998 1.795 100.5c.006 14.132 1.917 24.465 6.719 36.323 18.63 46.006 67.684 70.993 115.497 58.832 17.046-4.335 31.427-12.375 43.874-24.527 8.251-8.056 17.25-20.613 16.386-22.865-.448-1.166-.231-1.374.809-.78 1.122.64 1.169.539.224-.482-.934-1.01-.795-2.082.635-4.897 2.6-5.12 6.613-18.377 8.072-26.668 1.75-9.948.807-29.773-1.9-39.936-4.318-16.208-13.668-32.255-25.568-43.88C154.972 20.316 143.645 13.527 128 8.521c-4.675-1.496-10.066-3.392-11.98-4.214-4.269-1.833-23.036-2.587-31.52-1.266m21.123 4.76c-.418.676 1.098 1.315 4.108 1.733 31.542 4.378 57.76 22.696 71.514 49.966 3.375 6.691 7.596 20.299 8.388 27.038.634 5.389.607 5.462-1.976 5.462-1.999 0-2.776-.627-3.284-2.651-.384-1.529-.146-3.483.563-4.618.971-1.555.971-2.204-.001-3.099-.926-.853-1.054-.824-.523.118.391.691.181 1.25-.47 1.25-.673 0-.957-.833-.665-1.952.281-1.074.168-2.086-.251-2.25s-1.105-1.402-1.526-2.751c-.728-2.337-.681-2.371.987-.703.963.963 1.958 1.544 2.212 1.29.708-.707-2.816-5.68-3.657-5.16-.407.251-.777-.871-.824-2.495s-.443-3.521-.883-4.216c-.44-.694-.855-2.484-.923-3.976-.237-5.212-9.812-18.791-13.442-19.064-1.111-.084-1.818-.677-1.572-1.318.683-1.779-7.036-9.132-15.276-14.552-4.058-2.669-7.883-4.887-8.5-4.93-.617-.042-1.912-.227-2.877-.412s-1.501.075-1.191.577c.78 1.262.544 1.222-8.941-1.527-4.63-1.342-11.162-2.75-14.515-3.129-5.771-.653-6.098-.576-6.098 1.439 0 1.537.626 2.133 2.25 2.144 5.16.036 18.853 4.272 27.25 8.432 16.078 7.964 29.119 21.192 36.649 37.174 6.05 12.841 7.351 18.926 7.351 34.379 0 16.254-1.415 22.395-8.355 36.25-3.87 7.727-4.547 9.765-3.264 9.82 1.258.055 1.189.239-.308.825-1.694.664-1.728.831-.286 1.385 1.727.663 3.949-1.853 7.121-8.063.923-1.805 2.077-3.035 2.565-2.733.489.302 1.176.084 1.527-.484s1.026-.793 1.5-.5 1.131.098 1.459-.434c.328-.531-.281-1.435-1.353-2.009-1.873-1.003-1.885-1.212-.304-5.3.905-2.342 1.998-4.408 2.428-4.592.43-.185.574-.673.319-1.086s-.072-2.062.408-3.665c.479-1.603.91-2.127.957-1.164.129 2.624 1.958 2.106 2.677-.757.396-1.578.017-3.443-1.022-5.029-.922-1.407-1.31-3.06-.877-3.742.427-.672.783-3.697.792-6.722.014-4.94.246-5.533 2.27-5.82 3.269-.464 3.662 1.649 2.388 12.85-1.413 12.424-5.792 26.192-11.521 36.221-2.435 4.263-4.014 8.006-3.508 8.319.506.312.618 1.057.249 1.654-.391.632-.208.799.44.398.611-.377.864-1.329.563-2.114-.393-1.024.051-1.313 1.57-1.021 1.193.23 1.858-.013 1.523-.556-.328-.53-1.06-.677-1.627-.327-.628.389-.587-.191.104-1.483.625-1.167 1.371-2.121 1.659-2.121s.203.52-.189 1.155c-.456.737-.273.882.507.399.672-.415.989-.986.706-1.27-.284-.283 1.282-4.044 3.48-8.358 10.531-20.668 12.124-48.796 4.075-71.974-7.526-21.674-25.198-41.87-45.673-52.197-11.588-5.845-35.053-10.906-36.877-7.954M106 24c0 .55.675 1 1.5 1s1.5-.45 1.5-1-.675-1-1.5-1-1.5.45-1.5 1m9 1.213c0 1.28 6.999 3.787 10.573 3.787 2.047 0 .796-1.911-1.92-2.934-5.03-1.895-8.653-2.252-8.653-.853m15.121 5.65c2.93 2.284 8.865 5.441 10.86 5.778.815.137 2.615 1.557 4 3.154 1.386 1.598 4.656 4.601 7.269 6.675s4.75 4.197 4.75 4.717c0 1.231 4.956 7.853 7.405 9.894 1.048.874 1.97 2.478 2.051 3.565.199 2.707 2.565 8.491 4.315 10.55.793.933 1.617 4.162 1.832 7.176.214 3.013.778 6.525 1.254 7.803 1.076 2.897.492 24.677-.703 26.204-.987 1.259-2.211 5.676-2.771 10l-.374 2.879 1.949-2.478c2.533-3.22 6.736-27.233 4.959-28.331-.385-.238-.69-3.699-.678-7.691.017-5.463-.488-8.206-2.044-11.094-1.137-2.109-1.839-4.428-1.561-5.153.561-1.463-2.968-8.981-4.726-10.068-.827-.511-.828-.875-.002-1.385 1.287-.796-4.962-10.314-10.756-16.38-7.557-7.914-20.976-16.68-26.529-17.331l-2.879-.338zm-8.805 9.221c-.638.638-.907 1.818-.599 2.622.385 1.001.779 1.109 1.254.342.38-.617.714.583.742 2.666.06 4.627 3.34 14.083 5.305 15.297.95.587 2.122.312 3.459-.812 2.02-1.697 2.02-1.695.087.801-3.51 4.533-13.52 13.708-14.289 13.098-.414-.329.014.32.951 1.443.938 1.122 2.228 4.497 2.867 7.5.639 3.002 1.667 5.79 2.284 6.194.759.496.663.739-.294.75-.779.008-1.159.272-.844.587s2.415-.591 4.667-2.012L131 85.975v11.929c0 6.561.338 12.079.75 12.263s2.062 2.358 3.666 4.833c3.36 5.186 12.611 16.302 14.074 16.913.545.228 2.233 1.656 3.75 3.174l2.76 2.759v-13.769c0-10.018.395-14.561 1.448-16.673 1.462-2.93 1.481-4.457.096-7.654-.417-.963-.499-2.425-.182-3.25.316-.825.139-1.5-.393-1.5-.533 0-.933-1.013-.89-2.25s.306-1.687.583-1c.278.688 1.066 1.25 1.752 1.25.687 0 1.85 1.125 2.586 2.5s1.712 2.5 2.169 2.5c1.385 0 .931-2.672-.681-4.01-1.046-.868-1.203-1.628-.509-2.465.552-.665.69-1.523.306-1.907-.384-.383.288-.955 1.493-1.27 2.49-.651 4.46-6.146 3.688-10.287-.44-2.363-.364-2.329.983.439 1.716 3.525 2.086 1.769.405-1.922-.631-1.383-1.5-2.297-1.931-2.03-.432.266-1.067.027-1.413-.532-.345-.559-1.501-1.016-2.569-1.016-2.333 0-2.32.185-.392-5.493l1.549-4.563-3.102-3.102c-1.707-1.707-3.867-4.72-4.8-6.695s-2.705-4.095-3.939-4.709-3.034-1.803-4-2.644c-1.97-1.714-5.257-1.997-5.257-.453 0 .554-1.042.029-2.314-1.167-2.721-2.555-3.355-2.648-5.24-.763-.776.776-2.334 1.17-3.461.875-1.203-.315-2.859.195-4.005 1.232-1.908 1.727-1.948 1.678-1.717-2.125.197-3.233-.104-3.941-1.775-4.181-1.106-.159-2.533.233-3.172.872m53.763 18.499c.048 1.165.285 1.402.604.605.289-.722.253-1.585-.079-1.917s-.568.258-.525 1.312m-4.412 28.084c-.367.366-.667 1.131-.667 1.7 0 .626.466.567 1.183-.15.651-.651.951-1.416.667-1.7s-.817-.217-1.183.15m.348 5.154c-.016 2.412-2.106 5.179-3.912 5.179-.572 0-.753.749-.402 1.664.43 1.119.256 1.427-.531.941-.644-.398-1.17-.246-1.17.336 0 1.664 1.796 1.239 2.92-.691.561-.963 1.033-1.397 1.05-.965.016.432.93.304 2.03-.285 2.124-1.137 2.607-4.514 1-7-.779-1.206-.972-1.044-.985.821M6.31 106.5c.005 3.3.192 4.529.415 2.732s.218-4.497-.01-6c-.229-1.503-.411-.032-.405 3.268m180.387 1.893c-.409 1.041-.508 2.129-.221 2.417.913.912 1.715-.583 1.333-2.482-.35-1.74-.404-1.737-1.112.065M7.614 120.25c3.221 14.014 8.406 25.796 15.704 35.688 5.511 7.469 16.464 18.162 23.468 22.911 7.451 5.052 16.24 9.472 17.063 8.581.358-.387.079-.908-.62-1.157-2.823-1.007-11.11-5.721-17.427-9.913-6.194-4.11-15.856-13.975-21.901-22.36-6.785-9.411-13.526-25.318-15.362-36.25-.346-2.062-1.019-3.75-1.496-3.75-.476 0-.219 2.813.571 6.25m151.929-4.319c-.317.512-.118 1.213.441 1.559s1.016-.074 1.016-.931c0-1.757-.6-2.015-1.457-.628m3.571 6.998c-.859.532-.962 1.047-.29 1.462.571.353 1.339.154 1.707-.441.918-1.486.188-2.012-1.417-1.021m5.354 8.426c-1.821 2.021-5.468 8.345-5.468 9.482 0 2.481 3.253-.403 5.536-4.909 2.288-4.514 2.249-7.144-.068-4.573M67.5 189.387c1.65.751 4.125 1.642 5.5 1.979 2.008.493 1.909.344-.5-.753-1.65-.751-4.125-1.642-5.5-1.979-2.008-.493-1.909-.344.5.753"/><path fill-opacity=".135" fill-rule="evenodd" d="M86.742 3.592c-.326.325-2.821.746-5.545.934-14.924 1.032-38.674 13.606-51.263 27.14-5.638 6.061-6.155 9.264-.907 5.614l2.473-1.719-1.67 2.469c-.918 1.359-2.08 2.382-2.583 2.276-.502-.107-.914.348-.914 1.011C26.333 43.083 16.885 57 15.687 57c-.561 0-.736.284-.389.631s.102 1.585-.546 2.75c-.647 1.166-1.089 2.434-.981 2.818.107.385-.652 3.535-1.688 7C8.354 82.671 7.615 87.665 7.674 100c.113 23.851 6.768 41.782 22.774 61.359 8.846 10.82 15.803 16.051 31.552 23.726 13.182 6.424 20.233 7.99 37.037 8.222 7.675.106 13.956.475 13.959.82.007 1.115-19.826 1.005-28.281-.157-9.762-1.342-18.99-4.139-27.215-8.247-6.888-3.441-16.438-9.738-18.458-12.172-.758-.913-2.174-2.087-3.148-2.608-1.422-.761-1.741-.567-1.624.986.08 1.063.502 1.712.938 1.443.435-.27.792.013.792.628s.45.84 1 .5 1-.013 1 .728c0 1.981 9.274 8.561 18.993 13.475 15.77 7.973 35.68 11.425 53.579 9.289 16.697-1.992 32.744-8.107 45.928-17.501 6.519-4.644 17.5-15.598 17.5-17.456 0-.634.563-.868 1.25-.52s.478-.001-.465-.776c-1.366-1.122-1.468-1.691-.5-2.797.668-.764.22-.56-.995.454-1.216 1.013-2.116 2.295-2 2.848.115.553-.415 1.233-1.179 1.511-.922.335-1.159.04-.704-.875.377-.759-.052-.388-.953.825s-3.618 3.827-6.038 5.81c-5.523 4.526-4.901 1.879 1.062-4.515 4.755-5.099 10.853-12.759 11.939-15 .4-.825-.424-.15-1.832 1.5-1.71 2.005-3.484 3-5.35 3-2.004 0-4.33 1.476-8.246 5.231-4.715 4.521-5.648 5.038-6.877 3.81s-.699-2.21 3.904-7.231c21.781-23.76 28.399-54.211 18.105-83.302-14.528-41.054-61.165-63.124-102.242-48.384C69.237 25.931 65.45 27 64.462 27s-1.51.286-1.161.634-1.902 2.163-5.003 4.03c-9.02 5.431-20.798 17.097-24.425 24.192-.744 1.454-2.655 4.894-4.247 7.644-3.9 6.737-7.231 16.787-8.129 24.526-1.028 8.859-.702 25.792.52 26.974.691.669 3.247 10.045 3.339 12.25.04.963.426 1.75.858 1.75s.786.693.786 1.54c0 2.125 3.789 9.483 6.287 12.21 1.134 1.238 1.646 2.257 1.137 2.265s-.434.346.166.75c.599.404 3.257 3.192 5.907 6.195s6.659 7.007 8.91 8.898c2.251 1.89 3.969 3.854 3.818 4.364s.191.639.76.287c.569-.351 2.087.189 3.373 1.201l2.34 1.84-2.197 1.657c-2.12 1.599-2.439 1.474-9.099-3.596-8.809-6.706-17.154-16.628-22.216-26.416-5.13-9.92-7.004-15.52-9.098-27.193-1.353-7.537-2.076-9.569-3.502-9.843-.989-.191-2.153.033-2.585.497-.954 1.023 2.29 21.239 4.314 26.883 7.264 20.263 23.878 38.653 44.963 49.768 3.972 2.094 6.097 3.486 4.722 3.093s-3.062-.719-3.75-.724c-.687-.005-1.25-.37-1.25-.811s-.749-.515-1.664-.164c-1.208.464-1.44.276-.846-.686.539-.872.432-1.085-.313-.624-1.615.998-14.623-8.07-21.532-15.01C18.144 147.801 9 125.749 9 101.122c0-17.684 3.078-30.896 10.454-44.876C27.807 40.415 41.34 26.624 55.46 19.553c4.147-2.077 7.54-4.176 7.54-4.665S63.675 14 64.5 14c3.069 0 1.313 1.663-5.09 4.821-9.138 4.506-15.666 9.546-24.417 18.851-7.332 7.797-14.743 18.434-15.469 22.202-.2 1.041-1.361 3.846-2.579 6.235-2.884 5.652-7.223 26.36-6.433 30.703.49 2.699 1.008 3.254 2.795 3 1.984-.282 2.271-1.121 3.008-8.812.477-4.979 2.056-12.021 3.812-17 1.649-4.675 3.066-9.287 3.15-10.25.083-.962.462-1.75.842-1.75s2.028-2.363 3.662-5.25c1.635-2.888 5.133-7.867 7.773-11.066 5.075-6.15 21.489-19.193 22.406-17.805.706 1.07 4.04 1.033 4.04-.046 0-.458-.75-.833-1.667-.833-3.646 0 .58-1.72 4.726-1.923.857-.043 2.432-.777 3.5-1.632 1.875-1.502 1.867-1.519-.243-.5-2.761 1.334-4.391 1.329-2.1-.006C68.767 21.452 82.779 17 84.908 17c1.016 0 2.412-.681 3.102-1.512.978-1.179 1.568-1.253 2.673-.336 1.822 1.512 4.883-1.234 3.985-3.574-.823-2.146-6.215-2.03-16.148.347-4.388 1.05-8.287 1.719-8.664 1.486s-.887.142-1.134.833-.81.918-1.252.506c-1.168-1.091-.403-1.573 6.136-3.872 18.506-6.504 38.927-6.478 57.808.075 3.253 1.129 6.076 1.89 6.274 1.692.629-.629-13.933-5.405-20.688-6.786-3.575-.731-11.745-1.335-18.155-1.344-6.409-.008-11.445-.353-11.19-.765.551-.892-.072-1-.913-.158m12.465 6.601c-.664.664-1.207 1.97-1.207 2.903 0 1.401 1.432 1.816 8.25 2.39 4.537.381 10.213 1.116 12.612 1.633 2.985.643 4.776.596 5.674-.149 1.725-1.431 7.925.227 15.939 4.262 18.046 9.087 32.465 24.254 40.445 42.544 3.531 8.091 7.08 20.917 7.08 25.584 0 2.329.275 2.765 1.176 1.864.9-.9.763-3.109-.587-9.45-7.27-34.147-32.675-60.909-65.641-69.151-12.145-3.036-22.115-4.056-23.741-2.43m44.858 6.087c22.312 12.91 35.398 28.228 44.213 51.756 8.53 22.768 6.591 54.396-4.63 75.529-1.869 3.519-2.994 6.149-2.501 5.844 1.148-.709 6.64-11.566 8.526-16.856 8.288-23.234 6.396-53.802-4.676-75.572-8.49-16.695-25.567-34.032-41.697-42.334-5.568-2.866-5.032-1.721.765 1.633m-45.398 6.387c-.367.366-.667.979-.667 1.36 0 1.011 8.998 1.903 12.449 1.235 2.898-.561 2.871-.595-1.5-1.901-4.846-1.449-9.231-1.745-10.282-.694m-12.928 1.299c-3.908.751-5.465 1.641-4.522 2.584.983.983 10.874-.778 10.509-1.871-.477-1.431-1.576-1.562-5.987-.713m28.76 1.036c-.756 1.222 3.592 3.018 9.001 3.718 2.2.284 6.264 2.045 9.031 3.913 2.767 1.869 6.142 3.606 7.5 3.861s3.786 2.093 5.395 4.084 4.621 4.689 6.692 5.996 4.499 3.923 5.396 5.813c.896 1.89 3.407 5.361 5.578 7.713s3.785 4.755 3.584 5.339c-.454 1.316 3.088 9.797 4.44 10.633.544.336 1.189 3.672 1.434 7.413s.843 7.3 1.332 7.909c1.055 1.316.405 22.508-.739 24.042-1.267 1.7-3.287 9.522-2.704 10.466.293.474-.581 2.502-1.942 4.507-3.91 5.763-5.686 9.655-5.101 11.181.298.776.13 1.41-.372 1.41-1.153 0-11.024 9.971-11.024 11.136 0 1.701 2.693.82 5-1.636 1.292-1.375 2.908-2.5 3.593-2.5 1.335 0 5.619-6.277 5.23-7.664-.331-1.18 2.747-6.734 4.569-8.246 1.054-.875 1.334-2.209.909-4.333-.422-2.111-.268-2.855.492-2.385.709.438 1.918-1.93 3.369-6.594 3.048-9.804 3.322-32.051.508-41.278-5.612-18.407-14.231-31.123-28.17-41.562-7.253-5.431-19.012-11.358-20.595-10.38-.498.308-.905.137-.905-.38s-1.999-1.444-4.443-2.059c-5.453-1.374-6.273-1.387-7.058-.117M72.5 29c.34.55.816 1 1.059 1s.441-.45.441-1-.477-1-1.059-1-.781.45-.441 1m-17.897 1.833c-.283.459.12.834.897.834s1.18-.375.897-.834S55.71 30 55.5 30s-.614.375-.897.833M65 32.031c0 .533.675.969 1.5.969s1.5-.177 1.5-.393-.675-.652-1.5-.969-1.5-.139-1.5.393m43-.102c0 1.426 2.97 4.071 4.571 4.071 2.19 0 1.703-1.591-1.036-3.385-2.828-1.853-3.535-1.99-3.535-.686m18.208.747c-.941.378-.999.871-.212 1.819.594.716 1.252 2.194 1.462 3.286.347 1.804.117 1.885-2.538.883-3.273-1.236-4.029-3.187-.92-2.374 1.1.287 2 .068 2-.489 0-.577-1.718-.847-4-.63-2.2.21-4 .032-4-.395s-.675-.776-1.5-.776-1.5.675-1.5 1.5.675 1.5 1.5 1.5c.933 0 1.5.944 1.5 2.5 0 1.375-.567 2.5-1.259 2.5-1.417 0-4.308 4.01-3.9 5.408.145.5-.304 1.26-.998 1.689-.966.597-.802 1.301.697 2.987l1.96 2.207-2.402-1.262c-2.098-1.103-2.323-1.058-1.781.355.341.889.184 1.616-.348 1.616-.533 0-.969.702-.969 1.559s.419 1.3.931.984 1.213-.118 1.559.441.201 1.016-.32 1.016c-1.227 0-.972 3.278.33 4.235.637.468.584.74-.145.75-1.076.014-.985.964.771 8.015.206.825.819 1.818 1.362 2.206.544.389-1.368 1.686-4.25 2.884L104 79.267v5.227c0 2.875.282 7.284.627 9.799l.626 4.573 6.962-2.512c3.829-1.381 7.222-2.25 7.54-1.932s.326.578.017.578c-1.593 0 6.051 19.154 8.165 20.461.918.567.9.72 1.807-15.461.714-12.742.784-11.872 1.256 15.5l.5 29 12.25.281 12.25.281.006-5.281c.004-2.905.566-6.406 1.25-7.781 1.621-3.258 1.617-7.575-.006-7.25-.881.176-1.25-1.408-1.25-5.372 0-4.958.183-5.471 1.546-4.34.85.705 1.305 1.909 1.011 2.674-.294.766-.089 1.117.454.781.544-.336.989-.172.989.365s-.338 1.164-.75 1.395c-.412.23-.242.303.378.161.621-.142 1.652.266 2.292.906.884.884 1.358.848 1.976-.152.659-1.066 1.103-1.026 2.34.21.839.84 1.797 1.255 2.129.923s-.177-1.239-1.131-2.015c-1.3-1.058-1.358-1.311-.234-1.011 2.782.744 5.408-5.164 5.142-11.568-.132-3.187.329-7.367 1.024-9.291.979-2.705.998-3.924.084-5.387-.649-1.039-1.486-4.88-1.861-8.534-.374-3.654-1.177-7.173-1.785-7.819-1.87-1.992-4.604-8.614-4.604-11.153 0-1.325-.788-2.998-1.751-3.716-2.262-1.689-7.249-8.367-7.249-9.708 0-.569-2.497-2.919-5.549-5.224-3.052-2.304-5.99-5.013-6.529-6.02s-2.204-2.126-3.701-2.485C136.258 37.418 130 34.118 130 32.98c0-1.036-1.64-1.167-3.792-.304m-70.812 5.008c-1.593 1.476-3.008 2.601-3.146 2.5s-.284.142-.325.541c-.186 1.801 2.266 1.26 2.755-.608.301-1.152.946-1.848 1.434-1.547.487.302.886.045.886-.57s.52-.797 1.155-.405c.682.422.884.277.493-.355-.363-.588-.095-1.297.596-1.576.736-.297.799-.539.152-.585-.607-.043-2.407 1.129-4 2.605M43.003 48.616C39.268 51.99 37.811 55 39.911 55c.501 0 2.149-1.462 3.661-3.25s3.128-3.138 3.589-3S48 48.1 48 47c0-2.69-.359-2.574-4.997 1.616m1.261 8.138c-.399 1.041.336 24.781.899 29.029.245 1.847 1.47.177 2.227-3.033.383-1.625.231-2.75-.371-2.75-.56 0-1.019-.477-1.019-1.059s.498-.751 1.107-.375c.745.461.887-.011.433-1.441-.371-1.169-.297-2.125.165-2.125 1.273 0 4.16-6.107 4.491-9.5.161-1.65.822-4.068 1.469-5.374s.982-2.881.745-3.5c-.601-1.566-9.539-1.452-10.146.128M34.247 60.25c-1.923 2.41-3.966 7.282-4.509 10.75-.526 3.368-.505 3.396.551.75.603-1.513 1.573-2.75 2.156-2.75.992 0 5.564-7.609 5.558-9.25-.005-1.214-2.672-.858-3.756.5m-8.194 18.5C24.647 83.813 24.732 85 26.5 85c.825 0 1.503-.787 1.506-1.75s.635-2.956 1.404-4.429C30.86 76.041 30.58 75 28.38 75c-.707 0-1.755 1.688-2.327 3.75M95.158 86c0 1.375.227 1.938.504 1.25.278-.687.278-1.812 0-2.5-.277-.687-.504-.125-.504 1.25M25 88.774c0 1.16-.45 2.386-1 2.726-1.262.78-1.321 10.183-.069 10.957.512.317 1.283.006 1.714-.691.874-1.414.808-13.646-.078-14.533-.312-.311-.567.382-.567 1.541m44.079 1.809c.048 1.165.285 1.402.604.605.289-.722.253-1.585-.079-1.917s-.568.258-.525 1.312m119.495 7.855c.936 3.73-1.523 20.22-4.184 28.062-2.743 8.082-3.235 12.702-.893 8.394 3.687-6.785 8.53-33.055 6.883-37.345-.963-2.512-2.473-1.769-1.806.889m-184.427.253c-.081 1.205-.659 2.507-1.284 2.894-1.596.986-.453 13.906 2.116 23.915 2.312 9.011 8.191 22.148 10.797 24.127.948.72 1.387 1.324.974 1.341-.678.029-.019.869 4.796 6.116.8.871 1.454 2.034 1.454 2.583s.677 1 1.504 1c1.307 0 1.297-.23-.083-1.754-.873-.965-2.446-3.252-3.496-5.084C10.506 135.655 6.541 123.496 5.002 105c-.389-4.675-.774-7.514-.855-6.309m20.546 8.957c-1.183 7.174.945 13.213 3.644 10.34.833-.887.85-1.354.058-1.648-.608-.226-.88-1.583-.605-3.024.376-1.966.178-2.414-.8-1.81-.744.46-1.054.406-.725-.126.316-.511.245-2.493-.157-4.405l-.732-3.475zm132.576 2.294c-.942 1.507-.787 2.185.837 3.654 1.96 1.774 1.983 1.747 1.39-1.616-.748-4.248-.811-4.306-2.227-2.038m4.19 6.125c-.363.586-.445 1.281-.183 1.543s.743-.218 1.069-1.067c.676-1.762.1-2.072-.886-.476M161.5 120c.34.55.816 1 1.059 1s.441-.45.441-1-.477-1-1.059-1-.781.45-.441 1m-133.936 1.293c.376.986.935 1.541 1.243 1.233s.001-1.114-.683-1.793c-.988-.98-1.102-.865-.56.56M163 123c-.772.477-1.763.646-2.202.375s-.798.182-.798 1.007.52 1.821 1.155 2.213c.689.426.884.276.483-.371-1.008-1.631.683-2.208 2.07-.706 1.289 1.396.415 2.613-2.708 3.769-.988.366-.732.582.75.634 1.238.043 2.25-.371 2.25-.921s.45-1 1-1 1.007.787 1.015 1.75c.011 1.295.356 1.1 1.328-.75.722-1.375 1.087-3.142.81-3.927-.385-1.093-.656-.991-1.155.434-.45 1.282-.88 1.492-1.385.677-.402-.651-.472-1.603-.156-2.115.84-1.358-.821-2.08-2.457-1.069m-135 3.5c0 .825.477 1.5 1.059 1.5s.738-.52.346-1.155c-.453-.731-.274-.882.489-.41.932.575.934 1.067.012 2.178-.655.79-.877 1.749-.494 2.132s1.073.088 1.533-.656c.638-1.032 1.003-.83 1.537.854.385 1.214.89 2.018 1.122 1.786s-.265-2.066-1.104-4.075c-1.511-3.617-4.5-5.047-4.5-2.154m2.595 5.346c-.647 1.047 2.297 4.595 3.126 3.766.266-.265-.191-1.445-1.015-2.621-.835-1.192-1.769-1.699-2.111-1.145m128.484 1.404c.043 1.238.307 1.685.585.994.279-.691.871-1.031 1.317-.756s1.067-.172 1.383-.994c.389-1.014-.06-1.494-1.395-1.494-1.399 0-1.946.652-1.89 2.25m-124.515 5.043c.376.986.935 1.541 1.243 1.233s.001-1.114-.683-1.793c-.988-.98-1.102-.865-.56.56M157 137.518c0 .809 2.866 1.183 3.947.514.81-.5.327-.782-1.34-.782-1.434 0-2.607.121-2.607.268m20.944.134c-.855.231-2.313 1.702-3.239 3.27-1.486 2.515-1.509 2.996-.194 4.087 1.254 1.041 1.589.742 2.114-1.886.344-1.718 1.019-3.123 1.5-3.123 1.291 0 1.069 1.724-.651 5.05-2.367 4.577-.972 3.476 1.981-1.564 1.455-2.483 2.372-4.958 2.036-5.5-.629-1.018-.914-1.045-3.547-.334m-141.84 3.241c-1.136.737-.949 1.353 1 3.302 1.318 1.318 2.508 2.825 2.646 3.35s.649.955 1.137.955 1.823 1.125 2.967 2.5 2.094 1.993 2.113 1.372c.018-.62-.642-1.687-1.467-2.372s-1.5-1.769-1.5-2.41-1.237-2.614-2.75-4.384c-1.971-2.307-3.145-2.962-4.146-2.313M46.5 154c-.34.55-.115 1 .5 1 .628 0 .789.548.367 1.25-.498.828-.172.781.964-.141 1.475-1.197 1.637-1.188 1.157.063-.307.8.293 2.225 1.333 3.166 1.632 1.477 2.056 1.515 3.084.276.923-1.112.921-1.604-.011-2.179-.816-.505-.96-.292-.447.66.416.773-.447-.058-1.918-1.845-2.791-3.393-3.991-3.929-5.029-2.25m100.107 5.582c-.939 2.447-.735 2.689.893 1.061 1.7-1.7 1.917-2.643.607-2.643-.491 0-1.166.712-1.5 1.582M56 161.378c0 .207.788.995 1.75 1.75 1.586 1.243 1.621 1.208.378-.378-1.307-1.666-2.128-2.195-2.128-1.372m94.035 3.08c-.938 1.13-.964 1.542-.098 1.542.651 0 .867.56.481 1.25-.385.688.132.466 1.148-.493 1.29-1.217 1.531-2.06.799-2.792-.733-.733-1.436-.584-2.33.493M55.333 167.5c0 .825.655 1.5 1.456 1.5 1.181 0 1.221-.283.211-1.5-.685-.825-1.34-1.5-1.456-1.5s-.211.675-.211 1.5m-23.769.793c.376.986.935 1.541 1.243 1.233s.001-1.114-.683-1.793c-.988-.98-1.102-.865-.56.56m30.169 1.831c.679.684 1.486.991 1.793.683.308-.308-.247-.867-1.233-1.243-1.425-.542-1.54-.428-.56.56M57 172c0 .55.477 1 1.059 1s.781-.45.441-1-.816-1-1.059-1-.441.45-.441 1m98.982 4.268c-1.915 1.247-4.044 2.259-4.732 2.25-.687-.01-1.288.432-1.335.982s-.609 1.667-1.25 2.483c-1.24 1.578 2.896-.796 6.151-3.53a96 96 0 0 1 3.684-2.902c3.103-2.307 1.367-1.813-2.518.717m-11.413 5.598c-1.612.946-3.109 2.376-3.326 3.177-.238.876-.066 1.058.431.457.454-.55 1.389-1.045 2.076-1.1 2.993-.239 3.544-.439 2.925-1.058-.362-.362-.156-1.262.456-2 1.394-1.679 1.085-1.616-2.562.524m-13.069 6.669c-2.501 1.205-2.584 1.343-.5.834 2.834-.692 6.018-2.316 4.5-2.293-.55.008-2.35.664-4 1.459m-16.687 5.148c.721.289 1.584.253 1.916-.079s-.258-.568-1.312-.525c-1.165.048-1.402.285-.604.604"/><path fill-opacity=".927" fill-rule="evenodd" d="M106.269 5.693c.973.254 2.323.237 3-.037s-.119-.481-1.769-.461-2.204.244-1.231.498m-24.688 5.869c-13.188 2.619-28.732 10.006-36.708 17.443C42.516 31.202 40.156 33 39.628 33s-.709.252-.401.561c.309.308-.404 1.579-1.583 2.825C29.143 45.368 26 49.173 26 50.487c0 .832-.477 1.513-1.059 1.513s-.76.484-.394 1.075C25.394 54.447 29 50.719 29 48.47c0-1.936 16.293-18.477 18.179-18.455.976.012.929.269-.179.985-1.256.811-1.188.972.412.985 1.052.008 3.992-1.319 6.532-2.949C60.794 24.64 72.629 19.459 80 17.629c3.575-.888 7-2.292 7.61-3.121C88.865 12.804 91 12.484 91 14c0 1.509 2.709 1.2 3.315-.378.705-1.837-1.224-3.644-3.765-3.528-1.128.052-5.164.712-8.969 1.468m17.181.242c-.3 1.144-.293 2.331.013 2.638 1.038 1.038 9.102.567 9.806-.573 1.126-1.822 13.321-.206 22.225 2.945 10.914 3.862 21.072 10.126 29.678 18.3 8.689 8.254 11.202 9.191 3.482 1.298-14.73-15.059-35.498-24.732-56.063-26.111-8.111-.545-8.628-.459-9.141 1.503M88.5 21.029c-8.117 1.242-17.569 4.454-25.995 8.834-10.93 5.682-26.326 21.973-32.734 34.637-6.071 11.997-9.268 30.101-7.733 43.789.99 8.829 3.802 19.711 5.094 19.711 1.414 0 .98-4.27-.762-7.5-.89-1.65-1.787-5.475-1.993-8.5s-.665-8.987-1.02-13.25c-.461-5.528-.318-7.75.499-7.75.715 0 1.144-1.985 1.144-5.289 0-3.314.747-6.753 2-9.211 1.1-2.158 2-5.026 2-6.374 0-5.705 16.844-28.47 20.25-27.369.412.134.766-.319.786-1.007.046-1.574 6.779-6.75 8.781-6.75.822 0 2.887-1.058 4.589-2.352C67.787 29.318 72.548 27 75.005 27c1.158 0 4.111-.914 6.562-2.031 2.668-1.215 6.36-1.988 9.195-1.925 2.606.058 7.325-.209 10.486-.593 3.409-.414 6.258-.295 7 .292.689.544 3.375 1.009 5.97 1.033 8.923.08 23.418 6.319 35.406 15.238 6.853 5.099 6.861 5.102 2.262.801-8.183-7.653-22.948-15.161-34.824-17.708-7.601-1.63-21.515-2.155-28.562-1.078m5.25 3.663c-.963.25-1.75.759-1.75 1.131s-1.013.733-2.25.801-4.275.361-6.75.651c-2.475.289-5.062.571-5.75.626-.687.054-1.25.849-1.25 1.766 0 .916-.282 1.384-.627 1.039s-2.257.068-4.25.918-4.716 1.755-6.053 2.013c-3.142.604-4.065 1.208-4.09 2.672-.012.655-2.509 2.725-5.55 4.6s-6.031 4.35-6.643 5.5C46.92 49.912 42.564 55 41.431 55c-.588 0-2.553 3.375-4.366 7.5s-3.68 7.5-4.149 7.5-.566.749-.215 1.664c.43 1.119.256 1.427-.531.941-1.053-.651-1.627.546-1.28 2.67C31.173 77.006 28.7 85 27.881 85c-.484 0-.881 1.535-.881 3.412 0 2.689.37 3.351 1.75 3.129.962-.155 2.083-.091 2.49.141 1.118.64-1.563 3.131-2.841 2.641-1.583-.607-2.836 12.446-1.365 14.218.611.736 1.267 3.728 1.459 6.648.191 2.921.384 5.841.427 6.49.044.648.643 1.773 1.33 2.5 1.72 1.818 4.95 8.954 4.333 9.572-.665.664 2.243 6.249 3.255 6.249.961 0 5.3 5.753 5.543 7.349.33 2.171 1.758 3.683 2.843 3.013.648-.401.797-.205.37.485-.427.692.213 1.523 1.596 2.068 2.734 1.078 11.249 9.979 10.379 10.849-.331.332-1.135.07-1.786-.581-.65-.651-1.905-1.183-2.787-1.183-1.826 0-7.996-5.992-7.996-7.766 0-.644-1.953-2.642-4.339-4.441-4.095-3.087-6.661-6.703-6.661-9.385 0-.657-.631-1.436-1.401-1.732-4.301-1.65 3.751 10.418 12.393 18.573 11.641 10.987 24.921 17.805 41.216 21.163 9.064 1.867 13.899 1.97 24.348.517 13.866-1.929 28.704-8.381 38.537-16.757 3.493-2.975 5.164-6.225 3.157-6.14-1.279.054-4.25 2.635-4.25 3.692 0 1.395-7.235 6.276-9.304 6.276-.933 0-2.491.787-3.463 1.75-3.024 2.996-6.599 4.81-10.096 5.123-2.367.212-3.149-.045-2.64-.869.847-1.37 9.147-5.2 11.902-5.491 1.045-.11 2.395-.84 3-1.622 1.626-2.1 9.601-8.18 9.601-7.32 0 1.416 3.954-2.851 4.589-4.953.631-2.086 6.379-8.162 6.444-6.812.019.382.89-.333 1.937-1.588 1.046-1.255 1.739-3.132 1.539-4.171s.279-2.135 1.064-2.437c.785-.301 1.413-1.124 1.395-1.829-.017-.704-1.183.029-2.591 1.631-1.901 2.163-2.764 2.58-3.356 1.622-1.243-2.011-3.021-.23-3.021 3.025V145h-25v-15.155c0-14.48-.079-15.083-1.784-13.54-1.965 1.778-2.621 5.327-1.152 6.234 1.243.769 1.199 2.461-.064 2.461-.55 0-1-.661-1-1.469 0-.807-.562-1.255-1.25-.994-1.205.457-4.75-6.525-4.75-9.357 0-.714-.39-1.057-.866-.763-.477.295-1.672-.354-2.655-1.441-1.091-1.204-3.072-1.976-5.075-1.976-1.807 0-3.564-.45-3.904-1s-1.344-1-2.23-1c-.887 0-2.391-.704-3.342-1.565-2.328-2.107-3.238-.322-1.269 2.488.987 1.409 2.261 2.07 3.411 1.769 1.011-.264 2.645.121 3.634.856 1.718 1.279 1.709 1.421-.204 3.273-2.106 2.039-8.122 3.994-7.075 2.3.327-.528-.118-1.671-.987-2.54-.87-.87-1.099-1.581-.509-1.581.589 0 1.071-.45 1.071-1s-.675-1-1.5-1-1.5-.845-1.5-1.878-.67-2.433-1.489-3.113c-1.316-1.092-1.301-1.556.13-3.978 1.276-2.161 1.375-3.144.465-4.637-1.117-1.83-1.146-1.826-.881.106.226 1.641-.245 1.963-2.621 1.792-3.173-.228-16.047-6.047-20.683-9.348L70 86.864V145l-6.75.066c-3.712.036-9.337.285-12.5.553l-5.75.488-.018-6.304c-.044-15.248-1.276-38.384-2.091-39.253-.49-.523-.859-1.648-.821-2.5.05-1.099.321-.968.93.45.521 1.213.887-5.604.93-17.333.054-15.068-.206-19.233-1.18-18.875-.687.252-1.1 1.077-.917 1.833s.012 1.053-.381.66-1.556-.265-2.583.285c-2.081 1.114-2.288.727-.986-1.834.486-.955 1.462-2.973 2.169-4.486S41.691 56 42.124 56c1.213 0 5.684-4.756 7.212-7.671.877-1.674 1.624-2.203 2.076-1.472.388.629.244 1.143-.322 1.143-.565 0-.74.749-.389 1.664.467 1.216.278 1.441-.701.836-1.004-.621-1.163-.368-.636 1.006.421 1.097.188 2.161-.58 2.649-.719.456 2.56.821 7.446.83l8.729.015 1.917 3.75C69.573 64.025 82 74.932 82 72.023c0-.563-.408-1.023-.906-1.023s-.681-.861-.406-1.914c.53-2.027-2.771-4.625-4.192-3.301-.422.393-.24-.298.404-1.535 1-1.922.915-2.25-.579-2.25-1.612 0-1.622-.127-.131-1.618 1.039-1.04 2.099-1.308 2.964-.75.74.477 3.113 1.318 5.272 1.868 4.58 1.167 6.508 4.103 2.146 3.269-2.183-.417-2.566-.209-2.041 1.109.356.892.86 2.737 1.119 4.099s.736 2.713 1.058 3c.323.288.346-.46.05-1.662-.331-1.349-.005-2.39.853-2.719.764-.293 1.389-1.222 1.389-2.065 0-.842.45-1.531 1-1.531s1.007-.787 1.015-1.75c.013-1.496.157-1.532.985-.25.605.937.975 1.045.985.289.008-.667 1.848-1.706 4.089-2.309 3.51-.945 3.897-1.31 2.795-2.637-1.108-1.335-.751-1.321 2.677.11 2.439 1.019 3.475 1.172 2.704.399-.687-.689-1.25-2.764-1.25-4.611 0-2.437.343-3.145 1.25-2.578 3.19 1.993 4.914.103 4.94-5.413.019-4.309-.157-4.85-1.098-3.365-.701 1.107-1.107.956-2.02-.75-1.272-2.378-3.604-2.964-2.73-.686q.56 1.452-.893.893c-.797-.306-1.449-.081-1.449.499 0 .581-1.136 2.282-2.524 3.78-3.14 3.388-4.136 7.093-2.577 9.59 1.105 1.768 1.024 1.817-1.103.666-1.263-.684-3.496-1.273-4.963-1.31-3.435-.086-4.932-1.529-1.75-1.685 1.329-.066 2.956-.051 3.616.032.659.082 1.502-1.47 1.874-3.451s1.52-4.128 2.551-4.773C98.845 44.616 99.77 42 98.429 42c-.743 0-3.511 2.768-3.465 3.464.02.295-.289.536-.686.536-.654 0-.728-1.04-.389-5.443.068-.882.887-1.293 2.111-1.057 1.1.212 2-.039 2-.557 0-.519.477-.943 1.059-.943s.837.359.566.798-.08 1.451.426 2.25c.755 1.194.921 1.131.934-.357.008-.995.468-1.529 1.022-1.187.554.343 1.265-.048 1.579-.868s1.324-1.346 2.243-1.17c1.296.249 1.733-.553 1.945-3.572.18-2.554-.147-3.894-.95-3.894-.952 0-.957-.267-.024-1.2 2.033-2.033 1.378-2.591-3.55-3.026-2.612-.231-5.425-.671-6.25-.978s-2.287-.354-3.25-.104M109 26.361c0 .913.824 1.204 2.5.884 1.375-.263 2.5-.026 2.5.527s1.607 1.307 3.571 1.675 4.214.917 5 1.219c.786.301 1.429.089 1.429-.471 0-.561-1.758-1.316-3.908-1.679-2.149-.364-4.737-1.289-5.75-2.057-2.37-1.795-5.342-1.85-5.342-.098M161.5 28c.995 1.1 2.035 2 2.31 2s-.315-.9-1.31-2-2.035-2-2.31-2 .315.9 1.31 2M125 29.332c0 .708 9.899 6.697 14.086 8.522 2.428 1.058 4.98 2.874 5.672 4.035.693 1.161 1.719 2.111 2.28 2.111 1.94 0-3.473-6.071-5.972-6.698-2.748-.69-8.221-3.663-11.951-6.493-2.156-1.636-4.115-2.339-4.115-1.477m-38.15 1.987c-1.5 1.141-1.425 1.455.835 3.468 3.097 2.758 4.24 2.893 1.815.213-.995-1.1-1.365-2-.822-2 .544 0 .989-.675.989-1.5 0-1.804-.63-1.845-2.817-.181m-15.344 2.675C69.849 35.825 69.837 36 71.376 36c.928 0 1.953-.694 2.279-1.543.931-2.427-.16-2.662-2.149-.463M76.29 32.8c-.873.555-.664 1.11.75 1.993 1.175.734 1.96.82 1.96.215 0-.554-.477-1.008-1.059-1.008s-.781-.45-.441-1c.735-1.189.426-1.24-1.21-.2m-3.54 7.862c.688.278 1.813.278 2.5 0 .688-.277.125-.504-1.25-.504s-1.937.227-1.25.504m88.687 9.667c1.54 2.019 3.003 3.671 3.25 3.671.694 0-3.635-5.85-4.915-6.641-.624-.386.125.951 1.665 2.97M21.688 57.224c-.858 1.773-1.201 3.686-.761 4.25 1.333 1.708.874 4.387-.651 3.802-.803-.309-1.13-1.219-.774-2.155.39-1.025.276-1.253-.31-.621C18.398 63.357 15 72.517 15 73.801c0 .244.637-.085 1.416-.732 1.126-.934 1.5-.805 1.82.628.53 2.373 3.741-4.73 4.487-9.926.294-2.051.908-3.499 1.363-3.218.456.282 1.568-.918 2.472-2.666 1.492-2.884 1.496-3.122.043-2.564-.881.338-1.601.178-1.601-.354 0-2.062-1.822-.821-3.312 2.255m86.876 1.069c.376.986.935 1.541 1.243 1.233s.001-1.114-.683-1.793c-.988-.98-1.102-.865-.56.56M179 58.54c0 .297.893 2.289 1.983 4.427 2.633 5.161 6.872 19.941 7.17 25.002.141 2.385.606 3.672 1.136 3.142 1.67-1.67-3.216-20.934-7.447-29.361-1.697-3.38-2.842-4.673-2.842-3.21m-8.385 5.96c4.991 13.741 6.646 20.088 7.886 30.254l1.433 11.746-.479-9.638c-.56-11.259-3.253-22.703-6.948-29.526-1.44-2.66-2.292-3.936-1.892-2.836m17.471 1.5c-.031.825.381 2.175.914 3 1.181 1.828 1.181.249 0-2.5-.567-1.319-.878-1.489-.914-.5m-21.183 5.032c1.013 2.262 2.349 4.62 2.969 5.24S171 78.21 171 79.2s.436 1.8.969 1.8c1.106 0 .298-2.776-1.456-5-.651-.825-1.766-2.972-2.479-4.771-.712-1.8-1.672-3.505-2.133-3.79s-.01 1.332 1.002 3.593M83 72.441c0 .857.45 1.559 1 1.559s1-.423 1-.941-.45-1.219-1-1.559-1 .084-1 .941M87 75c.825.533 1.95.969 2.5.969s.325-.436-.5-.969-1.95-.969-2.5-.969-.325.436.5.969m84.079 8.583c.048 1.165.285 1.402.604.605.289-.722.253-1.585-.079-1.917s-.568.258-.525 1.312M12.468 85.052c-.315.509.132.655.991.325 1.172-.449 1.396-.162.893 1.148-.474 1.237-.258 1.611.739 1.279 2.241-.747 2.213-3.356-.039-3.525-1.107-.084-2.27.264-2.584.773m85.737 4.201c-.734.884-.623 1.823.378 3.191.779 1.066 1.417 2.559 1.417 3.319 0 1.715 2.541 4.363 3.381 3.523 1.259-1.259.589-6.36-.911-6.936-.965-.37-1.309-1.281-.932-2.468.692-2.182-1.674-2.628-3.333-.629m73.801-.062c-.003.93.452 1.974 1.012 2.32.62.383.834 3.823.548 8.809l-.468 8.18.956-7.625c.779-6.209.679-8.159-.542-10.5-.947-1.814-1.502-2.251-1.506-1.184M11.267 95.125c0 3.221.422 4.875 1.244 4.875 1.992 0 3.164-2.225 3.226-6.125.05-3.116-.26-3.625-2.206-3.625-2.043 0-2.264.477-2.264 4.875m177.516 6.624c.493 10.034.912 11.018 1.067 2.501.083-4.537-.188-8.251-.6-8.251-.412-.001-.623 2.586-.467 5.75m-177.265 2.223c-.331.534-.061 4.833.599 9.552 1.003 7.165 1.612 8.905 3.695 10.542 1.371 1.079 2.693 1.762 2.937 1.518.244-.243-.275-3.601-1.153-7.461S16 109.822 16 108.253c0-3.942-2.951-6.76-4.482-4.281m166.734 6.528c.011 2.2.216 2.982.455 1.738s.23-3.044-.02-4-.446.062-.435 2.262m9.943 5c.02 1.65.244 2.204.498 1.231s.237-2.323-.037-3-.481.119-.461 1.769m-11.037 1.5c0 1.375.227 1.938.504 1.25.278-.687.278-1.812 0-2.5-.277-.687-.504-.125-.504 1.25m-6.079.583c.048 1.165.285 1.402.604.605.289-.722.253-1.585-.079-1.917s-.568.258-.525 1.312M169.5 123c-.38 1.729-.482 3.351-.227 3.606s.751-.974 1.102-2.731c.834-4.168.026-4.976-.875-.875m17.579-1.417c.048 1.165.285 1.402.604.605.289-.722.253-1.585-.079-1.917s-.568.258-.525 1.312m-11.968 2.528c-.616 1.767-.945 3.388-.731 3.602s.893-1.057 1.509-2.824.945-3.388.731-3.602-.893 1.057-1.509 2.824m10.513 1.428c-.343.893-.595 2.15-.561 2.793.035.642.495.09 1.022-1.227s.779-2.574.56-2.793-.679.333-1.021 1.227m-157.92 4.13c-.716 1.159.953 4.007 1.833 3.127.356-.355.217-1.413-.307-2.349s-1.211-1.287-1.526-.778m144.92.87c-.965 2.514-.681 3.163.498 1.136.584-1.004.851-2.036.593-2.293-.257-.258-.749.263-1.091 1.157m11 1c-.965 2.514-.681 3.163.498 1.136.584-1.004.851-2.036.593-2.293-.257-.258-.749.263-1.091 1.157m-3.67 8.547c-.614 1.147-.928 2.274-.697 2.504.23.23.932-.708 1.559-2.086 1.378-3.024.707-3.35-.862-.418M126 140.5c0 .825.436 1.5.969 1.5s.709-.675.393-1.5c-.317-.825-.753-1.5-.969-1.5s-.393.675-.393 1.5m40.564 1.207c-.542 1.425-.428 1.54.56.56.684-.679.991-1.486.683-1.793-.308-.308-.867.247-1.243 1.233m9.515.876c.048 1.165.285 1.402.604.605.289-.722.253-1.585-.079-1.917s-.568.258-.525 1.312m-147.651 6.846c-1.7 1.243-1.673 1.358.476 2.041 1.649.523 2.136 1.269 1.762 2.7-.387 1.481 1.373 3.843 7.006 9.404 4.138 4.084 7.906 7.426 8.374 7.426s2.082 1.141 3.587 2.536 3.329 2.309 4.052 2.031c.723-.277 1.315.07 1.315.773 0 1.653 14.496 8.251 23.5 10.696 3.85 1.045 9.459 2.027 12.464 2.182 4.672.241 5.52.01 5.848-1.598.496-2.423-1.409-3.586-5.902-3.605-5.582-.023-18.668-3.695-26.654-7.479-12.227-5.792-22.304-13.687-30.292-23.73-3.32-4.175-3.934-4.549-5.536-3.377m100.764 8.646c.197.591.786 1.075 1.308 1.075s1.111-.484 1.308-1.075S131.417 157 130.5 157s-1.505.484-1.308 1.075m4.372 1.619c-.368.96-.35 1.425.041 1.034s1.262-.253 1.936.306c.874.725 1.418.516 1.895-.728.368-.96.35-1.425-.041-1.034s-1.262.253-1.936-.306c-.874-.725-1.418-.516-1.895.728m26.359 1.063c-1.417.958-4.567 3.385-7 5.392-11.026 9.095-27.825 16.045-42.842 17.725-9.224 1.032-11.745 2.401-8.64 4.693 6.09 4.495 33.584-3.103 49.232-13.605 5.106-3.426 16.327-13.86 16.327-15.181 0-1.415-4.451-.801-7.077.976m-100.256 2.91c-.367.366-.667 1.005-.667 1.418 0 1.313 6.361 4.647 10.15 5.32 2.007.356 4.153 1.255 4.769 1.997 1.227 1.478 8.692 3.73 11.081 3.342.825-.134 4.04.379 7.145 1.141 5.857 1.436 11.276.879 10.619-1.093-.228-.685-3.326-1.212-7.821-1.332-4.7-.125-8.627-.819-10.655-1.883-1.767-.927-4.917-1.841-7-2.03-5.253-.477-4.999-.406-6.467-1.828-1.635-1.585-8.655-5.719-9.711-5.719-.427 0-1.077.3-1.443.667M80 169c0 .55.45 1 1 1s1-.45 1-1-.45-1-1-1-1 .45-1 1m33.5 4.341c-6.312 1.413-6.668 1.579-5.932 2.77.868 1.404 7.955.537 11.765-1.44 2.701-1.401 2.708-1.429.455-1.824-1.258-.221-4.088.002-6.288.494m19.74 16.226c-13.336 6.092-36.154 8.061-52.24 4.508-4.675-1.033-8.658-1.727-8.85-1.543-.858.82 1.194 2.55 2.451 2.068.77-.296 1.399-.142 1.399.341 0 1.541 14.144 3.412 25 3.305 11.48-.112 24.434-2.424 27.1-4.836 1.275-1.155 1.795-1.225 2.109-.284.285.855 1.105.56 2.604-.938 1.203-1.204 2.525-2.202 2.937-2.22.412-.017 1.624-.692 2.691-1.5 2.751-2.08.904-1.69-5.201 1.099"/></svg>