<svg xmlns="http://www.w3.org/2000/svg" width="200" height="200" fill="#000000"><path fill-opacity=".263" fill-rule="evenodd" d="M89.156 21.076c-42.462 5.508-73.39 46.477-67.209 89.028 7.226 49.748 58.036 80.072 105.314 62.854 26.226-9.551 45.405-32.829 50.331-61.09 7.571-43.427-23.754-85.312-67.948-90.853-9.022-1.132-11.344-1.125-20.488.061m17.792 63.5c-13.996 11.318-26.419 21.555-27.607 22.75-1.88 1.894-2.249 3.755-2.86 14.424L75.779 134h30.46c16.752 0 33.902-.291 38.11-.647l7.651-.646V64h-19.604zM52 99.935v34.936l9.25 7.567 9.25 7.568.5-29.227.5-29.228 4.028 3.64 4.027 3.64 7.764-6.34 7.764-6.34-12.09-10.575L70.904 65H52zm64.396 1.446L100.291 114.5l15.996.275c8.797.152 16.17.101 16.384-.113s.263-6.241.109-13.394l-.28-13.006z"/><path fill-opacity=".5" fill-rule="evenodd" d="M90.061 21.046C63.422 24.662 41.072 40.687 29.457 64.5c-6.027 12.358-7.822 20.36-7.853 35-.028 13.828 2.092 23.056 8.024 34.915 18.994 37.971 65.002 54.08 103.116 36.105 18.099-8.535 30.516-20.978 38.778-38.861 17.781-38.484 1.221-84.495-37.144-103.202-13.064-6.371-30.499-9.286-44.317-7.411m16.833 63.569c-13.967 11.338-26.476 21.47-27.798 22.515-2.254 1.782-2.434 2.678-2.885 14.385L75.73 134H152V64h-19.713zM52 99.95v34.951l9.25 7.591 9.25 7.59.265-29.149.266-29.149 4.317 3.538 4.317 3.537 7.417-6.042c4.08-3.323 7.496-6.329 7.591-6.68.096-.35-5.214-5.249-11.798-10.887L70.903 65H52zm64.164 1.613L99.827 115H133v-13.5c0-7.425-.113-13.471-.25-13.437s-7.601 6.11-16.586 13.5"/><path fill-opacity=".617" fill-rule="evenodd" d="M90.259 21.076C58.432 24.892 31.705 48.651 23.413 80.5c-2.684 10.307-2.491 28.501.41 38.799 7.778 27.604 28.129 47.996 55.762 55.873 11.249 3.207 29.592 3.203 40.858-.008 15.64-4.458 30.032-13.732 39.928-25.729 22.433-27.197 24.294-65.478 4.591-94.49-16.398-24.149-45.548-37.364-74.703-33.869m14.468 65.174L76.035 109.5l-.017 12.25L76 134h76V63h-18.581zm-52.68 14 .046 35.25 9.204 7.234 9.203 7.233.265-29.038.265-29.038 4.301 3.524 4.3 3.524 7.435-6.047c4.089-3.325 7.512-6.349 7.608-6.719.095-.37-5.151-5.285-11.659-10.923L71.183 65H52zm64.132 1.332L99.857 115H133v-13.5c0-7.425-.113-13.463-.25-13.418s-7.595 6.12-16.571 13.5"/><path fill-opacity=".944" fill-rule="evenodd" d="M91.064 21.039C59.89 24.343 33.688 46.542 24.422 77.5c-3.552 11.868-3.817 29.761-.617 41.644 7.328 27.209 28.225 48.167 55.896 56.06 6.212 1.772 10.342 2.221 20.299 2.206 14.805-.022 21.393-1.532 34.5-7.908 35.837-17.434 52.625-58.225 39.59-96.196-9.351-27.239-34.93-48.396-62.59-51.771-9.786-1.194-13.093-1.274-20.436-.496m13.634 65.211L76.007 109.5l-.004 12.25L76 134h76V63h-18.61zm-53.681 13.5.017 34.75 9.733 7.812 9.733 7.812.265-29.127.265-29.127 4.121 3.527c4.633 3.966 3.433 4.3 13.688-3.816 3.418-2.705 6.09-5.232 5.938-5.614-.152-.383-5.529-5.257-11.947-10.831L71.16 65H51zm65.52 1.717L100.574 114.5l15.386.277c8.462.152 15.772-.109 16.244-.581s.732-6.462.577-13.311l-.281-12.452z"/></svg>