<!-- Generated by IcoMoon.io -->
<svg version="1.1" xmlns="http://www.w3.org/2000/svg" width="32" height="32" viewBox="0 0 32 32" fill="#000000">
<title>mda</title>
<path d="M32 16c0 8.836-7.164 16-16 16s-16-7.164-16-16c0-8.836 7.164-16 16-16s16 7.164 16 16zM22.5 12.832c0-1.908-0.621-3.54-1.837-4.84-1.244-1.356-2.784-1.992-4.649-1.992-1.892 0-3.434 0.636-4.676 1.936-1.243 1.273-1.838 2.905-1.838 4.869 0 1.936 0.622 3.569 1.865 4.869 0.973 1.023 2.135 1.632 3.46 1.853v1.162h-2.73v1.245h2.756v0.664h-2.757v1.162h2.73v2.24h2.352v-2.241h2.756v-1.161h-2.784v-0.664h2.784v-1.245h-2.756v-1.134c1.351-0.222 2.513-0.83 3.486-1.853 1.217-1.3 1.838-2.933 1.838-4.87zM18.906 12.805c0 1.051-0.271 1.909-0.784 2.573-0.514 0.664-1.243 0.996-2.109 0.996-0.837 0-1.539-0.332-2.080-0.996s-0.812-1.522-0.812-2.6c0-1.052 0.27-1.881 0.812-2.545s1.243-0.996 2.081-0.996c0.811 0 1.514 0.332 2.054 1.023 0.568 0.665 0.838 1.522 0.838 2.545z"/>
</svg>
