<svg xmlns="http://www.w3.org/2000/svg" width="200" height="200" fill="#000000"><path fill-opacity=".098" fill-rule="evenodd" d="M84.5 39.195c-6.774 3.842-8.77 12.054-4.217 17.348 3.242 3.768 10.392 4.537 14.565 1.565 5.824-4.147 5.473-13.227-.675-17.488-4.09-2.835-6.549-3.197-9.673-1.425m20.322 2.027c-5.26 4.473-5.002 13.478.482 16.822 7.824 4.771 16.627.155 16.674-8.742.031-5.974-3.375-9.467-9.729-9.977-3.838-.307-5.263.057-7.427 1.897M64.878 52.25C58.784 58.222 57.13 60.397 54.425 66c-4.983 10.321-4.928 10.044-4.824 24.5.096 13.503.208 14.213 3.129 20 3.706 7.339 6.231 9.756 9.746 9.325 1.998-.245 3.215-1.437 4.926-4.825 3.727-7.38 6.44-16.999 7.176-25.442.653-7.488.785-7.831 2.31-6 4.161 4.995 18.685 8.469 21.912 5.242.933-.933 1.467-.933 2.4 0 3.022 3.022 18.089-.556 21.903-5.203 1.512-1.841 1.643-1.527 2.296 5.475.726 7.792 3.271 17.162 6.845 25.205 3.813 8.58 9.527 7.213 14.913-3.568 3.007-6.02 3.104-6.636 3.189-20.209.091-14.422-.195-15.778-5.428-25.75-3.537-6.742-8.494-12.491-14.145-16.407l-4.004-2.775-1.83 2.259c-1.006 1.243-2.126 4.239-2.489 6.66-.905 6.031-7.456 15.575-15.675 22.833l-6.725 5.938-2.275-2.011c-9.761-8.63-13.833-12.85-15.22-15.772-.885-1.865-2.001-3.633-2.481-3.929-.48-.297-1.419-2.904-2.086-5.793C76.592 49.708 74.546 46 72.605 46c-.742 0-4.219 2.813-7.727 6.25M0 143.5V162h7v-11.122c0-9.774.182-10.972 1.5-9.878.825.685 1.5 2.09 1.5 3.122S10.473 146 11.051 146s1.677 1.498 2.442 3.33c.765 1.831 2.092 3.911 2.949 4.622S18 155.865 18 156.622c0 2.614 2.735 1.367 5.204-2.372 4.494-6.807 6.271-9.714 7.792-12.75 1.435-2.862 1.517-2.459 1.786 8.75l.281 11.75h2.95c3.923 0 4.12-1.071 3.773-20.5l-.286-16h-3.381c-2.851 0-3.667.549-5.203 3.5-1.002 1.925-2.245 3.992-2.762 4.594-.518.602-1.727 2.627-2.687 4.5s-2.081 3.631-2.491 3.906c-.409.275-.915 1.4-1.124 2.5-.482 2.543-3.206 2.615-3.691.098-.201-1.046-1.22-2.818-2.264-3.938S14 138.278 14 137.856c0-.723-2.983-5.581-6.513-10.606-1.032-1.469-2.606-2.25-4.534-2.25H0zm48-6.866c0 14.918 1.1 18.65 6.611 22.443 3.43 2.359 5.307 2.923 9.736 2.923 3.017 0 5.636-.338 5.82-.75.183-.412 1.683-1.494 3.333-2.404 4.711-2.597 6.492-8.995 6.222-22.346l-.222-11-3.75-.31-3.75-.311v12.096C72 152.326 71.171 154 63.57 154c-4.967 0-5.275-.158-6.885-3.534-1.263-2.648-1.685-6.281-1.685-14.5V125h-7zm40 6.866V162h9.065c19.042 0 27.804-8.053 25.497-23.434-.499-3.326-1.647-5.416-4.598-8.366-4.535-4.536-7.078-5.173-20.714-5.189L88 125zm41.982-18.376c-.042.902-.069 34.5-.028 35.626.028.753 1.437 1.25 3.546 1.25 3.785 0 3.89-.199 3.544-6.75l-.224-4.25h4.138c3.261 0 4.651.583 6.558 2.75 1.332 1.512 2.435 3.082 2.452 3.489.018.406.807 1.643 1.754 2.75 1.713 2 8.278 2.924 8.278 1.165 0-1.466-3.111-7.154-3.913-7.154-.421 0-1.27-1.107-1.886-2.459-.961-2.109-.8-2.714 1.127-4.25 5.569-4.437 5.837-13.044.576-18.548-2.933-3.07-3.153-3.124-14.441-3.556-6.305-.241-11.471-.27-11.481-.063m45.38 3.626c-.884 2.063-2.001 4.537-2.484 5.5-1.594 3.178-2.538 5.194-4.796 10.25-1.228 2.75-3.099 6.664-4.157 8.698-1.059 2.034-1.925 4.847-1.925 6.25 0 2.145.459 2.552 2.878 2.552 3.239 0 4.547-1.248 5.503-5.25l.657-2.75h9.481c8.814 0 9.481.141 9.481 2 0 1.1.398 2 .883 2 .486 0 1.119.9 1.407 2 .4 1.532 1.364 2 4.116 2 3.763 0 4.483-1.261 2.72-4.764-.481-.955-1.831-3.597-3-5.872S194 146.557 194 145.736s-.646-2.027-1.436-2.683-1.742-2.585-2.116-4.289-1.526-4.485-2.56-6.181-1.882-3.822-1.884-4.726c-.005-1.921-2.003-2.857-6.102-2.857-2.439 0-3.206.633-4.54 3.75M95 142.5V154h7.326c6.346 0 7.589-.301 9.295-2.25 4.055-4.632 4.779-7.251 3.381-12.241-1.109-3.962-1.871-4.855-5.588-6.548-2.462-1.122-6.468-1.961-9.359-1.961H95zm42.201-4.878.299 6.878 5.301-.141c6.148-.164 9.199-2.273 9.199-6.359 0-4.007-3.182-6.268-9.564-6.797l-5.533-.459zm41.774-1.057c-.536 1.411-.975 3.002-.975 3.535s-.727 2.08-1.615 3.435L174.77 146h5.615c3.088 0 5.613-.338 5.611-.75s-.902-2.223-2-4.024-1.996-4.163-1.996-5.25c0-2.811-1.871-2.447-3.025.589"/><path fill-opacity=".352" fill-rule="evenodd" d="M84.388 39.934C80.98 41.386 78 45.948 78 49.712c0 6.499 7.939 11.799 13.947 9.31 4.653-1.927 6.386-4.533 6.386-9.603 0-3.662-.528-5.045-2.696-7.054-2.964-2.749-7.966-3.83-11.249-2.431m23.112.615c-4.251 2.179-5.5 4.229-5.5 9.031 0 4.776 1.945 7.545 6.543 9.318C114.192 61.076 122 55.623 122 49.5c0-3.124-2.961-7.254-6.357-8.865-4.209-1.997-4.408-1.999-8.143-.086M70 48.5c-.685.825-1.651 1.5-2.147 1.5-1.194 0-8.689 8.136-10.261 11.138-.681 1.299-1.712 3.262-2.293 4.362-5.042 9.556-6.798 20.021-5.327 31.751.551 4.395 1.683 9.356 2.515 11.024S54 111.867 54 112.55c0 1.888 6.969 7.603 8.834 7.244 3.773-.727 9.582-16.224 11.087-29.582.451-4.008 1.135-7.601 1.518-7.985.384-.383 1.455.242 2.379 1.389 1.927 2.39 7.721 4.818 13.994 5.863 3.425.57 4.717.352 6.274-1.057 1.504-1.361 2.236-1.5 3.138-.598 2.933 2.933 18.829-.381 21.076-4.395.44-.786 1.452-1.429 2.25-1.429 1.099 0 1.449 1.392 1.447 5.75-.005 9.565 6.39 29.317 10.143 31.325.951.509 1.967.925 2.259.925 1.18 0 7.601-6.293 7.601-7.45 0-.683.715-2.675 1.588-4.426 3.558-7.132 3.502-29.182-.092-36.132-.823-1.591-1.496-3.375-1.496-3.964 0-1.429-5.148-9.317-6.74-10.328-.693-.44-1.274-1.34-1.291-2-.032-1.248-7.294-7.12-10.17-8.224-1.933-.741-2.919.894-4.837 8.024-2.191 8.143-6.529 14.169-16.601 23.056l-6.138 5.418-3.261-2.737c-11.549-9.693-17.62-17.826-19.96-26.737-1.958-7.461-4.197-9.38-7.002-6M.667 125.667c-.367.366-.667 8.466-.667 18V161h6.934l.283-11.152.283-11.152 5.414 9.152c5.391 9.113 8.122 11.25 9.462 7.402.336-.963 1.947-3.775 3.582-6.25s3.867-6.075 4.962-8l1.992-3.5.044 11.75L33 161h6v-36h-2.432c-2.261 0-5.013 2.783-6.921 7-.374.825-2.019 3.525-3.655 6-1.637 2.475-3.474 5.738-4.082 7.25s-1.399 2.745-1.758 2.738c-.359-.006-2.227-2.788-4.152-6.181C6.838 125.658 6.354 125 3.644 125c-1.271 0-2.611.3-2.977.667m47.722.762c-.33.86-.433 6.852-.23 13.317.43 13.641 1.633 16.588 8.191 20.062 5.27 2.791 10.077 2.762 15.15-.09 6.314-3.549 7.497-7.013 7.498-21.968L79 125h-6v10.48c0 13.734-1.581 18.105-6.874 18.999-4.647.785-8.304-.552-9.893-3.617-.704-1.357-1.332-7.253-1.479-13.862l-.254-11.5-2.756-.317c-1.794-.206-2.965.228-3.355 1.246m40.278-.762c-.367.366-.667 8.466-.667 18V161h9.322c11.339 0 17.468-1.858 21.58-6.542 3.317-3.777 4.745-10.15 3.632-16.201-1.037-5.63-7.872-11.757-14.064-12.606-6.19-.848-18.949-.838-19.803.016M130 142.922v18.205l3.25-.314c3.169-.305 3.258-.443 3.552-5.563l.303-5.25h4.447c2.447 0 4.448.381 4.448.847s.787 1.807 1.75 2.981a104 104 0 0 1 3.547 4.653c1.326 1.859 2.701 2.519 5.25 2.519 1.899 0 3.453-.354 3.453-.788 0-.433-1.332-2.346-2.959-4.25s-2.978-4.024-3-4.712a1.3 1.3 0 0 0-1.277-1.25c-.68 0 .204-1.012 1.965-2.25 5.671-3.987 5.762-15.192.159-19.623-2.622-2.073-4.385-2.438-13.945-2.892L130 124.717zm46.108-15.073c-1.16 1.628-2.108 3.386-2.108 3.906 0 .521-2.7 6.931-6 14.245s-6 13.681-6 14.149 1.566.851 3.481.851c2.971 0 3.577-.402 4.138-2.75 1.154-4.832 2.054-5.251 11.253-5.24l8.628.01 1.676 3.99c1.51 3.597 2.028 3.99 5.25 3.99 3.879 0 4.038-.167 2.638-2.764-1.342-2.488-5.326-11.193-10.406-22.736-4.066-9.239-4.631-10.023-7.422-10.305-2.393-.242-3.459.31-5.128 2.654m-80.89 14.901.282 11.75 5.612-.107c3.086-.059 6.813-.408 8.281-.777 3.309-.83 6.598-6.019 6.603-10.416.009-7.782-5.578-12.2-15.429-12.2h-5.63zM137 138.12v7.12l5.876-.425c6.744-.487 9.457-2.467 9.457-6.898 0-4.464-3.541-6.917-9.986-6.917H137zm40.254 1.927L174.165 147h5.917c6.736 0 7.167-.715 3.918-6.5-1.1-1.958-2-4.196-2-4.971 0-3.651-1.935-1.808-4.746 4.518"/><path fill-opacity=".195" fill-rule="evenodd" d="M84.788 41.15c-3.524 1.288-7.058 6.947-6.263 10.028.33 1.277 1.501 3.421 2.603 4.764 2.834 3.455 10.712 3.496 14.353.076 4.637-4.356 3.037-12.068-3.029-14.603-3.853-1.609-3.977-1.614-7.664-.265m-15.41 8.226C66.953 50.725 58 60.094 58 61.283c0 .433-.777 1.973-1.726 3.422-8.398 12.816-8.423 39.059-.049 50.386 1.175 1.589 2.955 3.149 3.956 3.466 2.51.797 5.819-.398 5.819-2.1 0-.775.898-2.882 1.996-4.683s1.998-4.422 2-5.824.393-2.978.868-3.5C72.278 100.895 74 92.477 74 87.116c0-5.862 1.107-6.991 3.907-3.985C80.417 85.825 89.18 89 94.105 89 97.5 89 99 87.795 99 85.067 99 84.119 93.231 78 92.338 78c-1.005 0-8.207-8.045-11.325-12.65-1.546-2.282-3.131-5.609-3.522-7.393-1.155-5.257-3.425-9.964-4.754-9.859-.681.054-2.192.629-3.359 1.278M140 95.247c-5.225 4.47-9.638 8.897-9.806 9.839-.169.941.619 3.438 1.75 5.548s2.056 4.631 2.056 5.601c0 1.703 1.513 2.253 5.295 1.927 2.265-.195 6.632-5.078 6.673-7.462.018-.989.754-3.196 1.637-4.903 1.389-2.686 3.369-18.903 2.288-18.737-.216.034-4.668 3.718-9.893 8.187M.226 143.25.5 160.5h6l.5-11.4.5-11.4 1.758 3.701c.967 2.035 2.216 4.24 2.776 4.9.56.659 2.412 3.356 4.115 5.992 1.703 2.635 3.573 4.633 4.155 4.439s3.565-4.542 6.628-9.662l5.568-9.309.5 11.37c.498 11.327.509 11.369 3 11.369h2.5l.274-17.315.274-17.315-3.159.315c-2.733.273-3.646 1.189-6.788 6.815-1.996 3.575-4.634 8.075-5.861 10-1.228 1.925-2.459 3.95-2.736 4.5-.305.606-.729.521-1.076-.217-.315-.669-1.561-2.694-2.77-4.5-1.208-1.806-3.988-6.313-6.177-10.016-3.616-6.115-4.281-6.734-7.255-6.75L-.047 126zm47.958-5c.477 13.76 1.526 16.97 6.678 20.438 5.325 3.585 9.534 3.937 15.225 1.271 7.61-3.564 8.336-5.282 8.752-20.709l.357-13.25H73v11.096c0 14.869-1.715 17.848-10.295 17.89-1.649.008-3.803-.993-5.25-2.441-2.335-2.334-2.455-3.044-2.455-14.5V126h-7.241zm40.042 5 .274 17.25 7.844.294c14.7.55 23.226-3.771 25.722-13.039 2.113-7.845-.817-15.584-7.452-19.684-2.886-1.784-4.963-2.071-15.006-2.071H87.953zm41.774.25V161h2.948c2.851 0 2.957-.172 3.25-5.25l.302-5.25 4.249-.307c3.606-.261 4.621.116 6.718 2.5 1.358 1.544 2.484 3.204 2.501 3.69.06 1.663 4.337 4.617 6.685 4.617 3.083 0 2.985-.58-1.138-6.702l-3.486-5.176 3.236-2.532c3.018-2.362 3.235-2.943 3.235-8.643 0-5.638-.253-6.337-3.266-9.029-3.188-2.849-3.526-2.918-14.25-2.918H130zm44.939-12.75a1162 1162 0 0 1-9.324 20.538c-1.988 4.284-3.615 8.221-3.615 8.75s1.373.962 3.051.962c2.581 0 3.291-.577 4.612-3.75.859-2.062 1.915-3.975 2.346-4.25s4.635-.355 9.343-.178c7.782.293 8.619.52 9.222 2.5 1.024 3.366 3.5 5.678 6.081 5.678 2.981 0 2.947-1.322-.206-8.054-1.404-2.995-3.397-7.246-4.43-9.446-4.103-8.74-7.019-15.608-7.019-16.53 0-.533-1.789-.97-3.975-.97-3.779 0-4.079.234-6.086 4.75M95 143v12l4.75-.006c10.564-.012 15.157-2.991 15.989-10.37 1.028-9.118-3.858-13.624-14.773-13.624H95zm41-5v7h6.045c5.086 0 6.436-.39 8.5-2.455 1.35-1.35 2.455-3.395 2.455-4.545s-1.105-3.195-2.455-4.545c-2.064-2.065-3.414-2.455-8.5-2.455H136zm42.878-2.25c-.593 1.512-1.928 4.662-2.965 7l-1.887 4.25h6.456c5.701 0 6.388-.205 5.879-1.75-.989-3.002-5.485-12.25-5.956-12.25-.246 0-.933 1.238-1.527 2.75"/><path fill-opacity=".842" fill-rule="evenodd" d="M1 143v17h5v-11c0-6.515.399-11 .98-11 .538 0 1.899 1.688 3.023 3.75s3.168 5.55 4.542 7.75 2.761 4.563 3.083 5.25c1.069 2.282 3.842 1.212 6.122-2.362 1.237-1.94 2.25-3.964 2.25-4.5 0-.535.477-1.516 1.059-2.18.583-.664 1.926-2.671 2.986-4.458C33.275 135.799 34 137.219 34 149c0 10.333.121 11 2 11 1.922 0 2-.667 2-17 0-16.134-.098-17-1.932-17-1.751 0-4.603 3.095-6.453 7-.391.825-1.811 3.3-3.156 5.5-1.344 2.2-3.129 5.463-3.965 7.25-.837 1.787-1.959 3.25-2.494 3.25s-1.652-1.463-2.482-3.25-2.481-4.825-3.668-6.75-2.66-4.4-3.272-5.5c-3.105-5.582-4.945-7.5-7.193-7.5H1zm48.161-3.75c.409 15.168 1.337 17.532 7.919 20.165 4.973 1.99 7.994 1.999 12.688.037 7.886-3.294 8.232-4.12 8.232-19.626V126h-5v11.865c0 10.32-.258 12.194-1.984 14.388-3.956 5.029-12.05 4.32-15.266-1.337-1.372-2.413-1.75-5.437-1.75-13.997V126h-5.196zM89 143v17h10.011c16.685 0 22.989-4.661 22.989-17 0-7.712-2.367-11.83-8.584-14.935-3.362-1.679-6.03-2.065-14.276-2.065H89zm41 0v17h3c2.933 0 3-.111 3-5v-5h4.635c3.685 0 5.121.523 7 2.552 1.301 1.403 2.365 2.908 2.365 3.345 0 1.664 3.771 4.103 6.345 4.103h2.688l-3.516-5.112c-1.935-2.812-3.517-5.436-3.517-5.831s1.125-1.321 2.5-2.057c3.009-1.611 4.696-6.924 3.859-12.159-.453-2.828-1.491-4.354-4.282-6.288-3.362-2.33-4.577-2.553-13.881-2.553H130zm45.989-13.75c-1.09 1.787-1.983 3.836-1.985 4.552s-.87 2.966-1.929 5c-1.058 2.034-2.935 5.948-4.171 8.698s-3.099 6.688-4.139 8.75l-1.893 3.75h3.545c3.041 0 3.638-.391 4.202-2.75 1.154-4.833 2.052-5.25 11.311-5.25h8.685l1.765 4c1.475 3.343 2.242 4 4.668 4 3.584 0 4.271 2.121-7.937-24.5-1.009-2.2-2.337-5.238-2.951-6.75-1.679-4.134-6.506-3.871-9.171.5m-81.322 1.417c-.367.366-.667 5.991-.667 12.5V155h6.351c8.881 0 12.311-1.418 14.685-6.071 2.403-4.709 2.454-6.833.279-11.396-2.159-4.527-8.131-7.533-14.964-7.533-2.76 0-5.318.3-5.684.667m41.75.688c-.286.746-.384 4.233-.218 7.75l.301 6.395 5.693-.023c4.616-.018 6.178-.477 8.25-2.424 5.813-5.461.839-13.053-8.551-13.053-3.247 0-5.134.467-5.475 1.355m42.909 2.875c-4.131 9.075-5.326 11.946-5.326 12.797 0 .535 2.925.973 6.5.973 4.148 0 6.5-.407 6.5-1.125 0-1.225-4.945-12.895-5.994-14.145-.356-.424-1.111.251-1.68 1.5"/></svg>