<svg xmlns="http://www.w3.org/2000/svg" width="200" height="200" fill="#000000"><path fill-opacity=".251" fill-rule="evenodd" d="M82.633 7.553c-19.188 3.812-36.307 12.976-50.205 26.875C3.303 63.552-4.163 108.4 13.937 145.5c16.587 33.999 48.875 54.333 86.485 54.465 46.315.163 84.983-30.782 95.244-76.222 1.108-4.907 1.622-11.758 1.592-21.243-.036-11.739-.46-15.594-2.624-23.872C183.303 35.283 145.008 5.78 100.5 6.107c-6.05.045-14.09.695-17.867 1.446M98 57.333c0 .927.777 1.66 1.75 1.652.999-.009 1.321-.336.75-.762-.55-.41-1.338-1.154-1.75-1.651s-.75-.155-.75.761m7.079.25c.048 1.165.285 1.402.604.605.289-.722.253-1.585-.079-1.917s-.568.258-.525 1.312M98 63c0 1.111.667 2 1.5 2s1.5-.889 1.5-2-.667-2-1.5-2-1.5.889-1.5 2m5 0c0 1.1.579 2 1.287 2s1.355-.9 1.438-2c.086-1.143-.466-2-1.287-2-.791 0-1.438.9-1.438 2m4.667-.333c-1.151 1.15-.729 2.333.833 2.333.825 0 1.5-.675 1.5-1.5 0-1.562-1.183-1.984-2.333-.833M95.333 68.5c0 .825.375 1.5.834 1.5s.833-.675.833-1.5-.375-1.5-.833-1.5c-.459 0-.834.675-.834 1.5m3.667 0c0 .825.45 1.5 1 1.5s1-.675 1-1.5-.45-1.5-1-1.5-1 .675-1 1.5m4 0c0 .825.45 1.5 1 1.5s1-.675 1-1.5-.45-1.5-1-1.5-1 .675-1 1.5m4 0c0 .825.45 1.5 1 1.5s1-.675 1-1.5-.45-1.5-1-1.5-1 .675-1 1.5m4 4c0 .825.45 1.5 1 1.5s1-.675 1-1.5-.45-1.5-1-1.5-1 .675-1 1.5M91 73c0 .55.477 1 1.059 1s.781-.45.441-1-.816-1-1.059-1-.441.45-.441 1m4.5 0c-.34.55-.141 1 .441 1S97 73.55 97 73s-.198-1-.441-1-.719.45-1.059 1m3.5.5c0 .825.45 1.5 1 1.5s1-.675 1-1.5-.45-1.5-1-1.5-1 .675-1 1.5m4 0c0 .825.45 1.5 1 1.5s1-.675 1-1.5-.45-1.5-1-1.5-1 .675-1 1.5m4-.5c0 .55.45 1 1 1s1-.45 1-1-.45-1-1-1-1 .45-1 1m-16 3.893c0 .491.675 1.152 1.5 1.469.914.35 1.5.001 1.5-.893 0-.808-.675-1.469-1.5-1.469s-1.5.402-1.5.893m8.531.4c-.428.986-.497 2.074-.155 2.417 1.016 1.015 1.835-.411 1.367-2.382-.414-1.747-.468-1.748-1.212-.035m3.469.766c0 1.132.45 1.781 1 1.441s1-1.266 1-2.059S104.55 76 104 76s-1 .927-1 2.059m3.638-.559c-.316.825-.139 1.5.393 1.5.533 0 .969-.675.969-1.5s-.177-1.5-.393-1.5-.652.675-.969 1.5m3.362.083c0 1.766 2.153 1.459 2.771-.395.218-.654-.317-1.188-1.188-1.188-.87 0-1.583.713-1.583 1.583m-9.921 5c.048 1.165.285 1.402.604.605.289-.722.253-1.585-.079-1.917s-.568.258-.525 1.312M103 82.5c0 .825.177 1.5.393 1.5s.652-.675.969-1.5.139-1.5-.393-1.5c-.533 0-.969.675-.969 1.5m.079 4.083c.048 1.165.285 1.402.604.605.289-.722.253-1.585-.079-1.917s-.568.258-.525 1.312M39.3 98c0 3.025.187 4.263.416 2.75s.229-3.987 0-5.5-.416-.275-.416 2.75m32.735-3.309c-.019 1.205.445 2.488 1.032 2.85 1.724 1.066 1.867.132.387-2.543-1.334-2.409-1.384-2.42-1.419-.307m11.184.728c-.947 2.078-.847 2.296.854 1.852 1.967-.515 2.613-2.729 1.073-3.681-.469-.29-1.337.533-1.927 1.829m33.448-1.752c-1.298 1.298-.641 3.107 1.316 3.618 1.748.457 1.85.264.864-1.633-1.457-2.805-1.407-2.759-2.18-1.985m11.647 1.083c-.342.963-.801 2.082-1.02 2.489-.219.406.3.47 1.154.143.854-.328 1.552-1.448 1.552-2.489 0-2.373-.866-2.447-1.686-.143m35.972 2.75c.008 2.75.202 3.756.432 2.236s.223-3.77-.014-5-.425.014-.418 2.764"/><path fill-opacity=".455" fill-rule="evenodd" d="M86.5 7.039c-13.455 2.098-27.925 7.765-39.278 15.382-15.338 10.29-29.753 28.021-35.295 43.412l-.96 2.667 1.791-2.276c1-1.272 3.358-2.531 5.341-2.853 3.04-.493 3.9-.165 5.976 2.277C26.93 69.006 32 69.737 32 66.789c0-.984.45-1.789 1-1.789s1 .675 1 1.5c0 2.212 4.704 1.878 7.797-.555l2.612-2.054 1.726 2.289 1.727 2.289.394-4.485c.217-2.466.5.241.629 6.016s.586 12.638 1.016 15.25.403 4.75-.06 4.75c-.462 0-.841-.675-.841-1.5 0-2.019-3.941-1.93-6.919.156-2.29 1.604-2.345 1.964-1.766 11.472.546 8.96.964 10.538 4.8 18.094C50.161 128.165 51.626 130 54.516 130c1.912 0 2.287.691 2.82 5.191.338 2.855.401 5.405.14 5.667-.262.261-.476-.445-.476-1.569 0-4.786-6.898-5.086-9.565-.416l-1.5 2.627.557-3c.552-2.973.517-3-3.967-3-5.068 0-5.401.397-2.519 3.006 1.104.998 1.772 2.05 1.485 2.336s-2.089-.999-4.006-2.857c-3.23-3.13-3.485-3.217-3.485-1.181 0 1.208-.45 2.196-1 2.196s-1-.858-1-1.906c0-1.416-.516-1.772-2.005-1.382-1.103.288-2.599.032-3.324-.57-1.053-.874-1.228-.485-.873 1.938.324 2.203-.183 3.701-1.851 5.476-2.828 3.01-5.833 3.108-9.397.305l-2.719-2.139 3.217 6.389c6.84 13.581 15.635 24.241 27.18 32.94 16.739 12.613 33.918 18.556 55.675 19.26 5.136.167 12.321-.055 15.967-.493 10.08-1.21 27.623-7.16 36.505-12.383 9.009-5.297 22.875-18.12 29.126-26.935 3.783-5.333 8.499-13.601 8.499-14.897 0-.263-1.524-.23-3.387.072-4.163.676-7.613-2.254-7.613-6.464 0-2.386-.398-2.784-2.75-2.75-1.923.027-3.112.791-3.955 2.539l-1.205 2.5-.045-2.924-.045-2.925-2.25 1.972c-1.238 1.085-3.15 2.612-4.25 3.394-1.695 1.205-1.657 1.036.25-1.112 1.237-1.394 2.25-2.73 2.25-2.969 0-.24-2.059-.436-4.575-.436-4.544 0-4.571.02-4.003 3l.572 3-2.05-3.179c-1.883-2.919-2.293-3.095-4.997-2.153-1.982.691-2.947 1.705-2.947 3.096 0 1.138-.214 1.855-.476 1.594-.261-.262-.198-2.812.14-5.667.533-4.5.908-5.191 2.82-5.191 2.91 0 4.349-1.851 9.332-12 3.652-7.437 4.254-9.64 4.812-17.617.591-8.433.479-9.276-1.495-11.25-2.587-2.587-5.909-2.75-7.841-.383-1.289 1.579-1.36 1.457-.726-1.25.386-1.65 1.021-8.4 1.41-15s.778-10.672.866-9.05c.12 2.233.439 2.669 1.315 1.793s1.83-.59 3.928 1.175c3.453 2.906 7.882 2.47 7.978-.785l.064-2.133.855 2.118c1.39 3.441 5.425 3.55 8.341.227 2.814-3.206 6.099-3.639 9.507-1.252l2.275 1.594-1.605-3.844c-6.112-14.636-20.393-31.139-35.282-40.77C138.234 11.88 122.851 7.122 104.5 6.506c-6.6-.222-14.7.018-18 .533M100 44.107c0 .609-.675.848-1.5.531-.842-.323-1.5-.025-1.5.679 0 .69.9 1.254 2 1.254 1.253 0 2-.666 2-1.785 0-.982-.225-1.786-.5-1.786s-.5.498-.5 1.107m-6.789 1.431c-1.066 1.208-1.022 1.462.25 1.462.846 0 1.539-.675 1.539-1.5 0-1.824-.15-1.82-1.789.038m12.332-.607c-.317.512-.118 1.213.441 1.559s1.016-.074 1.016-.931c0-1.757-.6-2.015-1.457-.628m3.457.402c0 .927.777 1.66 1.75 1.652.999-.009 1.321-.336.75-.762-.55-.41-1.338-1.154-1.75-1.651s-.75-.155-.75.761m5.257.667c.483 1.774 3.743 2.657 3.743 1.014 0-.622-.5-.823-1.112-.445-.611.378-1.546.067-2.076-.691-.793-1.133-.891-1.111-.555.122M97 51c0 2.242.463 3 1.833 3 2.518 0 2.958-.644 2.407-3.524-.725-3.793-4.24-3.359-4.24.524m6 .073c0 2.387.391 3 1.75 2.742 1.055-.2 1.876-1.42 2.066-3.074.255-2.206-.087-2.741-1.75-2.741-1.64 0-2.066.634-2.066 3.073m-14.875-1.15c-1.796 1.109-1.013 4.475 1.136 4.889 1.142.22 1.734-.291 1.724-1.489-.023-2.754-1.351-4.333-2.86-3.4M92 51.5c0 1.833.533 2.5 2 2.5s2-.667 2-2.5-.533-2.5-2-2.5-2 .667-2 2.5m16 0c0 1.833.533 2.5 2 2.5s2-.667 2-2.5-.533-2.5-2-2.5-2 .667-2 2.5m5.39.082c-.736 2.934-.087 3.899 2.067 3.073 1.971-.757 2.009-4.262.053-5.013-1.003-.385-1.695.249-2.12 1.94m7.61 1.025c0 1.018-.55 1.396-1.5 1.031-.825-.316-1.5-.139-1.5.393 0 .533.9.969 2 .969q2 0 2-2c0-1.1-.225-2-.5-2s-.5.723-.5 1.607m-28.118 3.301c-.066.325-.056.957.02 1.404.077.446.324 3.03.549 5.743.225 2.712.677 5.774 1.004 6.804.497 1.564.178 1.794-1.93 1.391-2.16-.413-2.525-.119-2.525 2.04 0 2.03-.39 2.421-2 2-1.414-.37-2-.031-2 1.156 0 1.016.692 1.594 1.75 1.463.963-.119 2.575.14 3.584.576 1.443.624 1.549.974.5 1.639-.91.577-.955.85-.143.861.655.008 1.432-.375 1.726-.851 1.044-1.69 5.583.009 5.583 2.09 0 1.339.48 1.806 1.468 1.427.807-.31 1.702-.184 1.989.279.286.463-.467 1.101-1.675 1.417-1.207.315-1.876.893-1.486 1.283 1.174 1.173 7.704 1.511 7.704.398 0-.565-.506-.915-1.125-.778-.619.138-1.347-.36-1.618-1.105-.359-.985.084-1.172 1.625-.683 1.674.532 2.118.255 2.118-1.321 0-1.097-.787-2.162-1.75-2.367-1.193-.255-.856-.556 1.058-.946 2.092-.427 2.677-.231 2.294.768-.703 1.831 1.42 2.986 2.444 1.33.452-.732.597-1.695.322-2.14s.897-1.089 2.606-1.431c2.114-.423 3.022-1.138 2.841-2.238-.146-.889.088-2.179.519-2.867 1.281-2.042-.129-3.099-3.589-2.69-1.785.211-2.682.134-1.995-.172.688-.305 1.25-1.47 1.25-2.588 0-1.541-.484-1.907-2-1.51-1.1.287-2 .115-2-.384 0-.498 1.125-.906 2.5-.906 1.455 0 2.5-.575 2.5-1.375 0-.756.29-2.827.645-4.601.56-2.799.394-3.178-1.25-2.857-1.169.227-1.906 1.22-1.923 2.593-.016 1.223-.463 2.115-.994 1.982s-.813-.917-.629-1.742c.185-.825.407-1.939.494-2.476.167-1.038-18.254-1.653-18.461-.616M88 57.927c0 1.431.642 2.073 2.073 2.073 2.563 0 2.272-3.31-.334-3.812-1.2-.231-1.739.308-1.739 1.739m-4.39.5c.71 1.849 3.753 2.162 3.14.323-.228-.687-1.164-1.395-2.079-1.573-1.16-.225-1.481.154-1.061 1.25m33.39-.034c0 2.251 2.743 2.697 3.308.538.368-1.409-.01-1.931-1.402-1.931-1.048 0-1.906.627-1.906 1.393M96.5 60c-.34.55-.141 1 .441 1S98 60.55 98 60s-.198-1-.441-1-.719.45-1.059 1m4.5 0c0 .55.45 1 1 1s1-.45 1-1-.45-1-1-1-1 .45-1 1m5 0c0 .55.477 1 1.059 1s.781-.45.441-1-.816-1-1.059-1-.441.45-.441 1m-15.75 1.662c-1.758.71-1.562 3.338.25 3.338.833 0 1.5-.889 1.5-2 0-1.1-.112-1.964-.25-1.921s-.812.306-1.5.583m-6 1.588c.63 1.892 3.75 2.161 3.75.323 0-.927-.855-1.573-2.083-1.573-1.222 0-1.912.517-1.667 1.25m31.75.25c0 .833.889 1.5 2 1.5s2-.667 2-1.5-.889-1.5-2-1.5-2 .667-2 1.5m-36.5.5c.34.55 1.266 1 2.059 1S83 64.55 83 64s-.927-1-2.059-1-1.781.45-1.441 1m41.5 0c0 .55.648 1 1.441 1s1.719-.45 2.059-1-.309-1-1.441-1-2.059.45-2.059 1m-77.911 2.833c-.741 1.385-.627 1.834.465 1.834.795 0 1.446-.825 1.446-1.834 0-1.008-.209-1.833-.465-1.833-.255 0-.906.825-1.446 1.833M97 66c0 .55.477 1 1.059 1s.781-.45.441-1-.816-1-1.059-1-.441.45-.441 1m4 0c0 .55.45 1 1 1s1-.45 1-1-.45-1-1-1-1 .45-1 1m-11 2c0 1.111.667 2 1.5 2s1.5-.889 1.5-2-.667-2-1.5-2-1.5.889-1.5 2m25.614-.437c-.364.949.117 1.437 1.417 1.437 2.276 0 2.638-1.529.552-2.33a1.534 1.534 0 0 0-1.969.893m41.855-.513c-.918 1.486-.188 2.012 1.417 1.021.859-.532.962-1.047.29-1.462-.571-.353-1.339-.154-1.707.441M80 68c0 .55.675 1 1.5 1s1.5-.45 1.5-1-.675-1-1.5-1-1.5.45-1.5 1m5 0c0 .55.675 1 1.5 1s1.5-.45 1.5-1-.675-1-1.5-1-1.5.45-1.5 1m36 0c0 .55.675 1 1.5 1s1.5-.45 1.5-1-.675-1-1.5-1-1.5.45-1.5 1m-23.5 3c.34.55.816 1 1.059 1s.441-.45.441-1-.477-1-1.059-1-.781.45-.441 1M81 72c0 .55.675 1 1.5 1s1.5-.45 1.5-1-.675-1-1.5-1-1.5.45-1.5 1m4.25.25c.63 1.892 3.75 2.161 3.75.323 0-.927-.855-1.573-2.083-1.573-1.222 0-1.912.517-1.667 1.25M120 72c0 .55.675 1 1.5 1s1.5-.45 1.5-1-.675-1-1.5-1-1.5.45-1.5 1m-37.857 2.907c-1.006.625-1.053 1.03-.183 1.568 1.372.848 2.402.097 1.894-1.38-.208-.606-.914-.683-1.711-.188M94 75c0 .55.477 1 1.059 1s.781-.45.441-1-.816-1-1.059-1-.441.45-.441 1m14.5 0c-.34.55-.141 1 .441 1S110 75.55 110 75s-.198-1-.441-1-.719.45-1.059 1m11.3 1.2c.933.933 1.467.933 2.4 0s.667-1.2-1.2-1.2-2.133.267-1.2 1.2M96 82.5c0 .825.45 1.5 1 1.5s1-.675 1-1.5-.45-1.5-1-1.5-1 .675-1 1.5m4 7.559c0 .582.45.781 1 .441s1-.816 1-1.059-.45-.441-1-.441-1 .477-1 1.059M70.958 93.55c-1.543 1.859.022 3.785 4.042 4.976 2.423.717 2.446.679.75-1.222-.963-1.079-1.75-2.714-1.75-3.633 0-2.094-1.359-2.148-3.042-.121M83 93.723c0 1.117-.686 2.601-1.524 3.297-2.189 1.817-1.283 2.157 2.362.887 3.696-1.289 3.871-1.955 1.162-4.407-1.938-1.754-2-1.747-2 .223m17.158.277c0 1.375.227 1.938.504 1.25.278-.687.278-1.812 0-2.5-.277-.687-.504-.125-.504 1.25M128 93.86c0 1.115-1 2.727-2.223 3.583-2.525 1.769-1.184 2.042 2.727.555 1.917-.728 2.548-1.593 2.315-3.171-.415-2.824-2.819-3.648-2.819-.967m-24.921.723c.048 1.165.285 1.402.604.605.289-.722.253-1.585-.079-1.917s-.568.258-.525 1.312m12.588-.916c-1.494 1.493-.489 3.199 2.495 4.24 3.645 1.27 4.551.93 2.362-.887-.838-.696-1.524-1.885-1.524-2.642 0-1.425-2.159-1.885-3.333-.711M82.158 102c0 1.375.227 1.938.504 1.25.278-.687.278-1.812 0-2.5-.277-.687-.504-.125-.504 1.25m-3.158.5c0 .825.177 1.5.393 1.5s.652-.675.969-1.5.139-1.5-.393-1.5c-.533 0-.969.675-.969 1.5m48 5.5c0 .55.45 1 1 1s1-.45 1-1-.45-1-1-1-1 .45-1 1m27.667.667c-.367.366-.667 1.131-.667 1.7 0 .626.466.567 1.183-.15.651-.651.951-1.416.667-1.7s-.817-.217-1.183.15m-76 1c-.367.366-.667 1.131-.667 1.7 0 .626.466.567 1.183-.15.651-.651.951-1.416.667-1.7s-.817-.217-1.183.15M124 110c0 .55.477 1 1.059 1s.781-.45.441-1-.816-1-1.059-1-.441.45-.441 1m-50 2c0 .55.423 1 .941 1s1.219-.45 1.559-1-.084-1-.941-1-1.559.45-1.559 1m7.5 0c-.34.55-.141 1 .441 1S83 112.55 83 112s-.198-1-.441-1-.719.45-1.059 1m49.5 1c0 .55.45 1 1 1s1-.45 1-1-.45-1-1-1-1 .45-1 1m-53 1c0 .55.45 1 1 1s1-.45 1-1-.45-1-1-1-1 .45-1 1m46.5 0c.34.55.816 1 1.059 1s.441-.45.441-1-.477-1-1.059-1-.781.45-.441 1m-43 1c-.34.55-.168 1 .382 1s1.278-.45 1.618-1 .168-1-.382-1-1.278.45-1.618 1m18.658 1c0 1.375.227 1.938.504 1.25.278-.687.278-1.812 0-2.5-.277-.687-.504-.125-.504 1.25m3 0c0 1.375.227 1.938.504 1.25.278-.687.278-1.812 0-2.5-.277-.687-.504-.125-.504 1.25M121 115c0 .55.477 1 1.059 1s.781-.45.441-1-.816-1-1.059-1-.441.45-.441 1m-47 1.559c0 .857.45 1.281 1 .941s1-1.041 1-1.559-.45-.941-1-.941-1 .702-1 1.559m9.985.487c-1.367 1.05-2.035 1.905-1.485 1.9 1.323-.013 4.978-2.802 4.412-3.367-.243-.243-1.56.417-2.927 1.467m33.015-1.31c0 .974 4.035 3.562 4.629 2.969.238-.239-.706-1.18-2.098-2.093-1.392-.912-2.531-1.306-2.531-.876m11 .205c0 .518.45 1.219 1 1.559s1-.084 1-.941-.45-1.559-1-1.559-1 .423-1 .941m-49.333.726c-.367.366-.667 1.131-.667 1.7 0 .626.466.567 1.183-.15.651-.651.951-1.416.667-1.7s-.817-.217-1.183.15m45.333.215c0 .55.45 1.278 1 1.618s1 .168 1-.382-.45-1.278-1-1.618-1-.168-1 .382m-38 2.177c0 .582.45.781 1 .441s1-.816 1-1.059-.45-.441-1-.441-1 .477-1 1.059m32 1.441c1.296 1.379 1.796 2.5 1.115 2.5-.678 0-.925.498-.549 1.107.477.771.944.696 1.544-.25 1.327-2.094 1.048-3.857-.61-3.857-.825 0-1.5-.45-1.5-1s-.528-1-1.174-1-.118 1.125 1.174 2.5m-43.541-.433c-.363.586-.419 1.306-.126 1.6.717.716 2.667-.546 2.667-1.726 0-1.278-1.726-1.193-2.541.126m48.541-.185c0 .55.45 1.278 1 1.618s1 .168 1-.382-.45-1.278-1-1.618-1-.168-1 .382m4.15.068c.43 1.289 1.801 1.521 1.925.325.041-.399-.465-.905-1.125-1.125s-1.02.14-.8.8M79 121.059c0 .582.45.781 1 .441s1-.816 1-1.059-.45-.441-1-.441-1 .477-1 1.059m4.015.191c.027 2.171 1.654 4.094 2.419 2.857.376-.609.222-1.107-.344-1.107-.565 0-.768-.675-.452-1.5.317-.825.078-1.5-.531-1.5s-1.1.563-1.092 1.25m-2.348 1.417c-.367.366-.667 1.131-.667 1.7 0 .626.466.567 1.183-.15.651-.651.951-1.416.667-1.7s-.817-.217-1.183.15m41.333.215c0 .55.45 1.278 1 1.618s1 .168 1-.382-.45-1.278-1-1.618-1-.168-1 .382m4 0c0 .55.45 1.278 1 1.618s1 .168 1-.382-.45-1.278-1-1.618-1-.168-1 .382m-50.541 1.185c-1.076 1.741.149 2.11 1.521.457.789-.95.865-1.524.201-1.524-.584 0-1.36.48-1.722 1.067m6.208 1.6c-.367.366-.667 1.131-.667 1.7 0 .626.466.567 1.183-.15.651-.651.951-1.416.667-1.7s-.817-.217-1.183.15m43.364-.167c0 .55.436 1.675.969 2.5s.969 1.05.969.5-.436-1.675-.969-2.5-.969-1.05-.969-.5m-47.572 1.567c-.363.586-.445 1.281-.183 1.543s.743-.218 1.069-1.067c.676-1.762.1-2.072-.886-.476m7.541-.008c0 .582.45.781 1 .441s1-.816 1-1.059-.45-.441-1-.441-1 .477-1 1.059m32.5-.059c.34.55.816 1 1.059 1s.441-.45.441-1-.477-1-1.059-1-.781.45-.441 1m4 0c.34.55.816 1 1.059 1s.441-.45.441-1-.477-1-1.059-1-.781.45-.441 1m-110.875 8.798c-.271.439-.08 1.451.426 2.25.717 1.134.922.959.934-.798.015-2.313-.493-2.856-1.36-1.452M99.5 152c-.34.55-.141 1 .441 1s1.059-.45 1.059-1-.198-1-.441-1-.719.45-1.059 1m-.5 3c0 .55.45 1 1 1s1-.45 1-1-.45-1-1-1-1 .45-1 1m4 0c0 .55.45 1 1 1s1-.45 1-1-.45-1-1-1-1 .45-1 1m4 0c0 .55.477 1 1.059 1s.781-.45.441-1-.816-1-1.059-1-.441.45-.441 1m-10.921 3.583c.048 1.165.285 1.402.604.605.289-.722.253-1.585-.079-1.917s-.568.258-.525 1.312m2.38-.516c-.363.586-.409 1.317-.102 1.623.822.823 3.643-.461 3.643-1.659 0-1.357-2.697-1.33-3.541.036m4.541.35c0 .87.713 1.583 1.583 1.583.871 0 1.406-.534 1.188-1.187-.618-1.855-2.771-2.162-2.771-.396m4 .083c0 .825.45 1.5 1 1.5s1-.675 1-1.5-.45-1.5-1-1.5-1 .675-1 1.5m-13 4c0 .825.675 1.5 1.5 1.5s1.5-.675 1.5-1.5-.675-1.5-1.5-1.5-1.5.675-1.5 1.5m4.276 1.601c.319 3.941 2.724 5.249 2.724 1.482 0-1.421.024-2.921.053-3.333s-.643-.895-1.494-1.072c-1.183-.247-1.485.44-1.283 2.923m4.724.399c0 3.302.839 4.328 2.325 2.842.362-.362.156-1.262-.456-2-.819-.987-.817-1.342.009-1.342.617 0 1.122-.675 1.122-1.5s-.675-1.5-1.5-1.5c-1.048 0-1.5 1.056-1.5 3.5m4-2c0 .825.675 1.5 1.5 1.5s1.5-.675 1.5-1.5-.675-1.5-1.5-1.5-1.5.675-1.5 1.5m-10.429 19.386c-.301.487.572 1.099 1.941 1.361 1.665.318 2.488.025 2.488-.886 0-1.501-3.559-1.883-4.429-.475m6.429.475c0 .911.823 1.204 2.488.886 2.823-.54 2.407-2.247-.547-2.247-1.068 0-1.941.613-1.941 1.361m-6.229 5.219c.412 2.157.981 2.42 5.229 2.42 4.263 0 4.816-.259 5.235-2.447.452-2.367.281-2.446-5.23-2.42-5.482.026-5.68.119-5.234 2.447m-4.104 4.087c-.367.366-.667 1.716-.667 3 0 1.666.571 2.333 2 2.333 2.022 0 2.503-1.526 1.393-4.418-.644-1.679-1.631-2.01-2.726-.915m4.333 2.9v3.337l4.75-.202c4.541-.193 4.763-.34 5.055-3.337l.305-3.134H97zM108.743 193c-1.049 3.664-.943 4 1.257 4 1.412 0 1.995-.662 1.985-2.25-.012-1.711-.23-1.912-.91-.838-.687 1.087-.977.856-1.255-1l-.361-2.412zm-19.585 1c0 1.375.227 1.938.504 1.25.278-.687.278-1.812 0-2.5-.277-.687-.504-.125-.504 1.25m-2.079.583c.048 1.165.285 1.402.604.605.289-.722.253-1.585-.079-1.917s-.568.258-.525 1.312"/><path fill-opacity=".385" fill-rule="evenodd" d="M88 7.09c-14.309 1.842-32.829 9.415-44.5 18.196-6.306 4.745-16.564 15.038-20.28 20.35l-2.194 3.136 2.534.484c2.178.417 2.885-.163 5.043-4.136 1.38-2.541 2.227-3.72 1.883-2.62-1.649 5.268-1.67 7.167-.078 7.167 1.143 0 1.592-.957 1.592-3.393 0-2.007.408-3.14 1-2.774.55.34 1 1.866 1 3.392 0 1.871.519 2.775 1.592 2.775 1.592 0 1.571-1.908-.08-7.167-.345-1.1.456-.017 1.781 2.407 2.028 3.712 2.904 4.421 5.557 4.5 1.733.051 3.15-.113 3.15-.365s-1.666-2.164-3.703-4.25S39.057 41 39.623 41c.565 0 2.119 1.169 3.453 2.598 2.639 2.828 8.642 7.382 7.71 5.849-.317-.521.137-1.607 1.009-2.414 1.403-1.299 1.513-1.277.951.187-3.094 8.062-4.07 22.695-2.486 37.28.756 6.957.749 6.985-1.104 4.618-1.605-2.051-2.266-2.247-4.76-1.41l-2.896.973.067 10.91c.071 11.6.426 12.823 7.222 24.909 2.351 4.18 3.231 4.956 5.372 4.734 2.459-.255 2.608.038 3.79 7.5.676 4.271 2.089 9.736 3.139 12.143 1.051 2.408 1.858 5.558 1.794 7-.066 1.492-.304 1.915-.553.979-.418-1.571-5.331-3.315-5.331-1.892 0 1.254 4.636 5.066 5.324 4.378.372-.371.676.39.676 1.691 0 1.782-.284 2.083-1.149 1.218s-1.876-.772-4.093.374c-1.619.837-3.141 1.325-3.383 1.083-.242-.241.948-1.013 2.644-1.716l3.082-1.277-2.737-2.857c-1.506-1.572-3.46-2.858-4.343-2.858-.882 0-3.592 2.025-6.021 4.5s-4.866 4.5-5.416 4.5.893-1.93 3.208-4.288c2.314-2.358 4.208-4.496 4.209-4.75s-1.647-.415-3.659-.359c-3.381.096-3.873.515-6.454 5.5-2.783 5.377-3.657 6.112-2.034 1.712 2.255-6.116 2.19-7.315-.398-7.315-2.095 0-2.456.469-2.456 3.191 0 1.755-.45 3.469-1 3.809-.6.371-1-.906-1-3.191 0-3.414-.264-3.809-2.546-3.809-2.63 0-2.695.454-.874 6.157.323 1.014-.438.156-1.693-1.907-1.599-2.63-2.985-3.75-4.64-3.75h-2.36l1.806 3.232c.994 1.777 6.082 7.553 11.307 12.834 10.331 10.442 20.297 17.253 31.309 21.398l6.785 2.554-.658-3.509c-.52-2.768-.336-3.509.869-3.509.841 0 1.712.551 1.936 1.224.225.674.67.224.99-1s.163-2.224-.349-2.224c-1.004 0-2.187-2.716-3.266-7.5-.528-2.339-.431-2.669.44-1.5.903 1.212 1.016 1.04.587-.894-.91-4.101 1.232-.885 3.276 4.921 1.049 2.978 2.378 5.572 2.952 5.763.607.203.475-.832-.317-2.471-.748-1.55-1.673-4.315-2.053-6.144l-.693-3.326 2.935 1.518c1.729.894 3.403 2.876 4.076 4.825.958 2.777 1.089 2.88.816.642-.303-2.484-.15-2.6 2.237-1.693 1.409.536 3.145 1.458 3.857 2.049.996.826 1.234.597 1.033-.995-.144-1.138.076-2.098.488-2.132 3.532-.296 4.752.135 4.765 1.687.01 1.115.282 1.337.75.611.404-.626 3.21-1.139 6.235-1.139s5.831.513 6.235 1.139c.479.743.74.57.75-.494.008-.899 1.028-1.905 2.265-2.237 3.599-.964 4.009-.766 3.536 1.709-.433 2.267-.358 2.294 2.446.895 3.542-1.767 4.153-1.266 3.284 2.694-.52 2.365-1.215 3.072-3.022 3.072-1.395 0-2.533-.71-2.805-1.75-.281-1.077-.502-.692-.573 1-.064 1.512-.641 2.75-1.283 2.75s-.929.238-.638.528c.29.29 1.79.048 3.333-.539 2.032-.772 2.998-.757 3.5.056.467.756.892.606 1.301-.461.718-1.869 4.657-2.149 4.701-.334.018.713.459.515 1.027-.458 1.167-2.003 3.943-1.294 3.943 1.006 0 1.399.147 1.388 1.25-.088 2.02-2.703 4.069-.678 2.77 2.737-.94 2.471-.86 2.701.711 2.065.973-.394 3.119-1.183 4.769-1.752 8.122-2.803 19.327-10.638 28.974-20.26 5.514-5.5 10.839-11.463 11.833-13.25 1.775-3.194 1.771-3.25-.231-3.25-1.417 0-2.791 1.447-4.51 4.75-2.87 5.513-3.046 5.401-1.178-.75 1.348-4.441 1.335-4.5-.975-4.5-2.019 0-2.466.686-3.258 5l-.917 5-.135-4c-.155-4.638-.886-5.94-3.459-6.157-1.894-.159-1.927 1.649-.132 7.157.358 1.1-.524-.025-1.961-2.5-2.303-3.967-3.024-4.5-6.082-4.5-3.809 0-4.263.596-1.931 2.531.846.702 2.949 3.12 4.673 5.373l3.136 4.096-4.923-4.536c-9.49-8.741-8.592-8.418-12.424-4.464l-3.369 3.476 3.236 1.127c4.404 1.536 3.44 2.111-1.168.697-2.034-.625-3.699-1.735-3.699-2.468s.338-1.346.75-1.363c.412-.018 1.524-1.097 2.47-2.399 1.65-2.271 1.642-2.347-.196-1.866-1.054.276-2.114 1.243-2.354 2.149s-.49.28-.554-1.392.726-4.69 1.755-6.709c1.03-2.019 2.438-7.307 3.129-11.752.995-6.399 1.595-8.05 2.879-7.926 3.421.33 4.041-.334 8.705-9.324 4.707-9.071 4.807-9.457 5.218-19.983l.418-10.733-2.782-1.058c-1.531-.582-3.493-.745-4.36-.362-1.383.61-1.362.747.172 1.114 2.051.491 2.215 1.407.55 3.072-1.51 1.51-3.15 1.575-2.231.088.378-.611.213-1.405-.366-1.763-.737-.455-.732-3.965.019-11.698.88-9.072.796-12.646-.471-19.987-.848-4.917-1.829-9.84-2.178-10.94-.486-1.532-.358-1.474.549.25.651 1.237 1.474 2.25 1.828 2.25s2.423-1.836 4.597-4.079c2.174-2.244 4.853-4.548 5.953-5.12s.088.942-2.25 3.367-4.25 4.616-4.25 4.87 1.107.462 2.461.462c1.882 0 2.864-.894 4.174-3.798 2.413-5.352 3.414-5.515 1.844-.3-1.199 3.986-1.167 4.376.349 4.158 1.126-.162 1.843-1.517 2.195-4.15l.523-3.91.712 4.083c.481 2.756 1.226 4.084 2.294 4.084 1.564 0 1.54-1.125-.138-6.324-.328-1.014.458-.087 1.745 2.06s2.679 3.834 3.091 3.75 1.451-.153 2.308-.153c1.078 0 .191-1.773-2.875-5.75C156.198 16.688 121.943 2.721 88 7.09m7.968 28.538c-.03 2.741-.098 2.784-1.5.931-1.058-1.4-1.477-1.539-1.5-.5s-.441.899-1.5-.5C90.082 33.726 90 33.802 90 36.926c0 2.942.249 3.241 2.25 2.704 1.237-.331 3.713-.609 5.5-.616 3-.013 3.249-.264 3.235-3.264-.011-2.339-.27-2.848-.924-1.814-.753 1.19-1.178 1.211-2.485.127-1.372-1.138-1.58-.936-1.608 1.565m7.032.337c0 2.571.382 3.035 2.5 3.035 2.111 0 2.5-.467 2.5-3 0-1.65-.477-3-1.059-3s-.753.495-.379 1.1c.477.773.049.762-1.441-.035-1.945-1.041-2.121-.883-2.121 1.9m6.829-1.121a85 85 0 0 0-.271 3.611c-.089 1.762-.936 1.975-8.579 2.152-9.27.214-12.028.594-17.544 2.414-3.44 1.136-3.626 1.412-3.11 4.594.302 1.862.223 3.385-.175 3.385s-.797-.967-.886-2.149c-.231-3.059-1.599-4.062-3.552-2.605-1.86 1.388-1.334 5.806.637 5.349.633-.147.813-.078.401.152-1.407.787-.754 4.151 1 5.152 1.524.869 1.33 1.147-1.5 2.147-3.249 1.149-4.061 2.335-2.331 3.404.506.313 1.587-.099 2.403-.915 1.306-1.305 1.552-1.307 2.049-.009q.564 1.473-1.343 1.474c-2.418 0-3.082 1.076-2.363 3.826.383 1.465 1.346 2.174 2.952 2.174 1.31 0 2.383.436 2.383.969s-.653.717-1.452.411c-2.29-.879-3.868.53-2.474 2.209.644.776.778 1.463.298 1.526-.479.064-1.508.176-2.286.25s-1.615.734-1.86 1.467c-.278.828.256 1.257 1.413 1.134 1.024-.108 2.761-.138 3.861-.066 1.667.109 1.75.292.5 1.1-1.282.828-1.246.972.25.985.963.008 1.75-.467 1.75-1.056 0-.59.707-.365 1.571.5 1.891 1.89 3.418 2.032 3.459.321.017-.694.484-.471 1.05.5.561.963 1.897 1.75 2.97 1.75 1.072 0 1.95.406 1.95.902s1.384 1.385 3.075 1.974c1.691.59 2.812 1.498 2.491 2.018s.127 1.656.996 2.525c.87.87 1.099 1.581.509 1.581-.589 0-1.071.498-1.071 1.107s.675.848 1.5.531c1.666-.639 2.076.888.5 1.862-2.133 1.318-.983 3.221 1.75 2.897 1.513-.179 1.963-.083 1 .212-2.407.739-2.212 3.391.25 3.391 1.954 0 2.593-2.116 2.177-7.211-.098-1.205.351-1.524 1.515-1.077 1.239.476 1.497.223 1.025-1.006-.346-.903-.199-1.908.327-2.233s.956-.088.956.527.489.816 1.087.446c.783-.484.783-.976 0-1.759-1.677-1.677-1.286-3.097.455-1.652 1.169.97 1.824.999 2.7.123.877-.877.699-1.158-.733-1.158-1.832 0-1.831-.046.05-1.468 1.067-.808 2.743-1.483 3.723-1.5.98-.018 2.189-1.045 2.687-2.282.673-1.675.92-1.811.968-.531.078 2.132 2.816 1.301 3.257-.989.392-2.033 9.626-2.375 11.675-.432.753.713 1.646 1.02 1.985.681s-.412-1.391-1.668-2.338c-1.455-1.098-2.057-2.314-1.658-3.353.452-1.177-.02-1.72-1.702-1.958-1.712-.243-2.226-.858-1.949-2.33.208-1.1.433-2.675.5-3.5.068-.825.526-1.792 1.019-2.149 1.487-1.078-.193-3.851-2.333-3.851-1.352 0-1.817-.478-1.434-1.474.498-1.299.74-1.299 2.04 0 1.917 1.918 2.968 1.863 3.758-.196.707-1.843-1.216-3.569-3.177-2.851-1.496.548-1.537.007-.319-4.237.789-2.753.635-3.404-1.016-4.288-1.613-.863-2.096-.648-2.814 1.252-.476 1.262-.667 2.631-.425 3.044s-.065.75-.684.75c-1.022 0-.837-1.51.681-5.563.219-.585-1.756-1.78-4.388-2.655-3.044-1.012-3.966-1.626-2.535-1.686 1.716-.073 2.25-.697 2.25-2.627 0-2.88-2.751-4.472-4.086-2.365-.486.768-.89 2.409-.899 3.646-.016 2.452-.711 2.739-3.015 1.25-1.282-.828-1.246-.972.25-.985 2.634-.023 2.412-5.609-.25-6.305-1.372-.358-2.054-.002-2.171 1.134m-23.325 1.163c.343.554-.081 1.277-.941 1.607-2.222.853-1.94 3.386.378 3.386 1.068 0 2.171-.372 2.452-.826.742-1.202-.462-5.174-1.569-5.174-.518 0-.662.453-.32 1.007m35.237 2.325c-1.12 2.769-.924 3.387 1.259 3.958 1.1.287 2 .115 2-.384a.92.92 0 0 0-.93-.906c-.512 0-1.079-1.013-1.259-2.25-.295-2.016-.406-2.06-1.07-.418m-41.491 2.33c-2.047.826-1.417 2.194.75 1.628 1.1-.288 2-.921 2-1.407 0-.953-.78-1.016-2.75-.221m71.851 1.806c-1.87.676-2.995 1.48-2.5 1.785.495.306 2.475-.282 4.399-1.306 3.953-2.104 3.153-2.306-1.899-.479M50 43.5c1.375.786 2.95 1.429 3.5 1.429s-.125-.643-1.5-1.429-2.95-1.429-3.5-1.429.125.643 1.5 1.429M90 48c0 .55.45 1 1 1s1-.45 1-1-.45-1-1-1-1 .45-1 1m22 0c0 .55.45 1 1 1s1-.45 1-1-.45-1-1-1-1 .45-1 1m18.651 2.225c-.552 2.111.691 3.744 2.849 3.744.55 0 .372-.397-.396-.883-.767-.486-1.125-1.59-.793-2.453s.222-1.803-.241-2.09-1.102.471-1.419 1.682m-59.094 2.357c-1.066.78-1.516 1.411-.998 1.403 1.382-.023 3.961-1.799 3.41-2.349-.259-.26-1.345.166-2.412.946m.623 2.702c-1.401 1.687.048 3.949 2.039 3.185.957-.367 1.364-1.347 1.054-2.534-.588-2.248-1.593-2.46-3.093-.651M70 62c-.793.49-1.217 1.116-.942 1.391S70.207 63.49 71 63s1.217-1.116.942-1.391S70.793 61.51 70 62m62.229.187c.498 1.495 2.771 2.318 2.771 1.003 0-.537-.713-1.249-1.584-1.584-.973-.373-1.431-.15-1.187.581M69.5 66c-.34.55.309 1 1.441 1S73 66.55 73 66s-.648-1-1.441-1-1.719.45-2.059 1m8.5 0c0 .55.45 1 1 1s1-.45 1-1-.45-1-1-1-1 .45-1 1m46 0c0 .55.45 1 1 1s1-.45 1-1-.45-1-1-1-1 .45-1 1m7.5 0c.34.55 1.041 1 1.559 1s.941-.45.941-1-.702-1-1.559-1-1.281.45-.941 1m-61 3c-.34.55.057 1 .882 1s1.778-.45 2.118-1-.057-1-.882-1-1.778.45-2.118 1m59.5 0c0 .55.927 1 2.059 1s1.781-.45 1.441-1-1.266-1-2.059-1-1.441.45-1.441 1m-58.5 3c-.34.55.084 1 .941 1S74 72.55 74 72s-.423-1-.941-1-1.219.45-1.559 1m56.5 1.969c0 .532.675.709 1.5.393.825-.317 1.5-.753 1.5-.969s-.675-.393-1.5-.393-1.5.436-1.5.969m6.5.031c.34.55 1.068 1 1.618 1s.722-.45.382-1-1.068-1-1.618-1-.722.45-.382 1m-66 3c-.34.55-.141 1 .441 1S70 77.55 70 77s-.198-1-.441-1-.719.45-1.059 1m55.5 1.969c0 .532.675.709 1.5.393.825-.317 1.5-.753 1.5-.969s-.675-.393-1.5-.393-1.5.436-1.5.969m-49.187 6.714c.721.289 1.584.253 1.916-.079s-.258-.568-1.312-.525c-1.165.048-1.402.285-.604.604m4 0c.721.289 1.584.253 1.916-.079s-.258-.568-1.312-.525c-1.165.048-1.402.285-.604.604m45 0c.721.289 1.584.253 1.916-.079s-.258-.568-1.312-.525c-1.165.048-1.402.285-.604.604m-52.614 6.89c-1.935 1.356-2.091 1.852-.997 3.17.713.86 2.647 2.152 4.298 2.871 1.841.802 2.324 1.323 1.25 1.347-.963.021-1.757.602-1.765 1.289-.01.774-.295.869-.75.25-1.466-1.994-3.791-.918-6.481 3-3.323 4.841-3.389 5.5-.554 5.5 1.581 0 1.895.305 1.116 1.084-.597.597-.856 1.959-.576 3.028.37 1.418 1.05 1.772 2.509 1.309 1.328-.422 1.771-.263 1.317.472-.376.609-1.306 1.107-2.066 1.107-1.839 0-2.647 1.453-1.896 3.41.817 2.13 2.392 2.026 2.411-.16.013-1.485.158-1.524.959-.258.518.82.564 1.87.1 2.334-1.461 1.461.01 4.855 1.807 4.171 1.298-.493 1.371-.365.369.644-1.775 1.788-1.643 2.178 2.137 6.306 1.985 2.167 3.203 4.406 2.941 5.408-.308 1.177.195 1.759 1.612 1.866 1.133.085 2.06-.294 2.06-.842s.526-.672 1.17-.274q1.169.722.551-.89c-.45-1.172-.192-1.449.945-1.013 1.256.482 1.423.127.846-1.801-.701-2.342-.68-2.352.853-.401.962 1.224 1.584 1.492 1.603.691.018-.72.485-1.029 1.039-.687 1.593.985 2.177-1.89 1.008-4.964-1.056-2.778-1.087-2.787-3.29-.938-1.32 1.107-1.077.599.597-1.247 1.551-1.713 2.699-3.731 2.549-4.484-.427-2.154 1.187-9.221 2.468-10.808.943-1.168.833-1.314-.589-.782-.963.361-1.75.22-1.75-.312 0-.533.45-.969 1-.969s1-.502 1-1.115c0-.681-.974-.477-2.5.523-2.848 1.866-3.392 1.047-.75-1.129 1.667-1.374 1.667-1.416 0-.892-.963.303-1.75.114-1.75-.418 0-.533.45-.969 1-.969s1-.436 1-.969-.64-.723-1.423-.422c-.945.362-1.335-.05-1.163-1.227.144-.976.784-1.948 1.423-2.161.64-.213 1.163-1.065 1.163-1.892 0-1.202-.806-1.369-4-.829-5.448.92-5.066-.203.551-1.617l4.551-1.146-2.137-2.274c-2.407-2.563-5.178-3.567-6.902-2.502-.833.515-.724 1.076.39 2 2.388 1.982 1.837 2.946-1.203 2.104-2.065-.572-2.688-1.312-2.501-2.971.154-1.371-.162-1.957-.832-1.543-.593.367-.809 1.743-.479 3.058s.379 2.391.11 2.391c-.27 0-.843-1.358-1.273-3.017-.756-2.919-.856-2.965-3.076-1.41M119 91.728c-2.302.875-7.545 5.473-5.927 5.199 1.414-.24 3.567.386 7.427 2.159 1.506.691 1.197.775-1.25.337-2.977-.533-3.25-.365-3.25 1.998 0 1.418.477 2.579 1.059 2.579s.746-.507.363-1.126c-.501-.812-.189-.843 1.116-.113.996.558 1.918 1.74 2.048 2.627.278 1.891-.059 1.965-2.652.577-1.333-.714-1.934-.714-1.934 0 0 .569.45 1.035 1 1.035s1 .502 1 1.115c0 .661-1.119.395-2.75-.655-2.687-1.729-2.714-1.726-1.176.135 1.712 2.072 1.458 5.852-.32 4.753-.736-.455-.839-.05-.316 1.238 1.526 3.757 1.53 12.196.006 13.461-1.023.848-1.444.87-1.444.075 0-1.99-1.569-1.191-1.725.878-.112 1.489.466 2 2.262 2 2.176 0 2.351.311 1.779 3.168-.535 2.675-.375 3.069 1.025 2.531.981-.376 1.672-.138 1.691.582.017.671.739.319 1.603-.781 1.533-1.951 1.554-1.941.853.401-.585 1.953-.417 2.286.897 1.782.888-.341 1.615-.184 1.615.348 0 .533.48.969 1.067.969.639 0 .799-.903.397-2.25-.659-2.212-.644-2.216.886-.25 1.415 1.817 1.407 2.114-.087 3.25-.905.688-1.141 1.25-.526 1.25.616 0 1.774-.654 2.573-1.452.798-.799 1.73-1.174 2.071-.834.34.341.619.046.619-.654 0-.722-.651-1.024-1.5-.698q-3.696 1.418 2.224-4.003c3.244-2.972 3.568-3.661 2.515-5.348-1.014-1.624-.963-1.842.315-1.352 1.216.467 1.476-.142 1.284-3.001-.133-1.973.074-3.903.46-4.289s.702.048.702.964c0 .917.671 1.667 1.49 1.667 1.162 0 1.438-1.158 1.25-5.25-.19-4.148-.593-5.253-1.919-5.263-.924-.007-2.049-.416-2.5-.91-.47-.513-.283-.588.436-.174.747.43 1.519.042 1.902-.957.555-1.447.827-1.352 1.958.687.721 1.302 1.328 3.181 1.348 4.176.019.995.426 1.567.905 1.272 1.39-.86-.353-8.046-2.776-11.449-1.28-1.798-1.901-3.65-1.465-4.375.578-.963.418-.994-.687-.132-.881.686-3.157.881-5.845.5l-4.403-.625 3.653-1.315c4.077-1.467 4.934-4.429 1.772-6.121-1.618-.866-1.98-.557-2.593 2.215-.392 1.771-.921 2.697-1.174 2.057-.311-.784-1.392-.898-3.309-.348-2.77.794-2.825.737-2.015-2.086.847-2.952.63-3.184-2.028-2.174m5 1.082c0 .537.713 1.249 1.584 1.584.973.373 1.431.15 1.187-.581-.498-1.495-2.771-2.318-2.771-1.003M157.158 96c0 1.375.227 1.938.504 1.25.278-.687.278-1.812 0-2.5-.277-.687-.504-.125-.504 1.25m-107.143.75c.009.963.452 2.425.985 3.25.736 1.138.973.716.985-1.75C51.993 96.463 51.55 95 51 95s-.993.787-.985 1.75M160 97c0 1.867.267 2.133 1.2 1.2s.933-1.467 0-2.4-1.2-.667-1.2 1.2m-116.921.583c.048 1.165.285 1.402.604.605.289-.722.253-1.585-.079-1.917s-.568.258-.525 1.312M64 99.559c0 .857.457 1.276 1.016.931.559-.346.758-1.047.441-1.559C64.6 97.544 64 97.802 64 99.559m-20.921 2.024c.048 1.165.285 1.402.604.605.289-.722.253-1.585-.079-1.917s-.568.258-.525 1.312m117 0c.048 1.165.285 1.402.604.605.289-.722.253-1.585-.079-1.917s-.568.258-.525 1.312m-95.196 1.241c-1.853 2.163-3.078 5.178-2.102 5.17.82-.008 4.457-6.089 3.947-6.6-.184-.184-1.015.46-1.845 1.43M100 102.5c0 .833.889 1.5 2 1.5s2-.667 2-1.5-.889-1.5-2-1.5-2 .667-2 1.5m37-.5c0 .55.477 1 1.059 1s.781-.45.441-1-.816-1-1.059-1-.441.45-.441 1m-92.361 1.708c-.467 1.38-.179 3.255.767 5 .833 1.536 1.532 2.399 1.554 1.92s.715-.313 1.54.372c1.253 1.04 1.5.896 1.5-.878 0-1.324-.658-2.152-1.75-2.201-1.045-.047-1.247-.282-.5-.583 1.707-.689 1.582-2.338-.177-2.338-.784 0-1.598-.787-1.807-1.75-.32-1.472-.499-1.399-1.127.458M69.5 103c.34.55.816 1 1.059 1s.441-.45.441-1-.477-1-1.059-1-.781.45-.441 1m70.169.726c-.812 1.314.184 4.274 1.438 4.274 1.041 0 1.04-.766-.005-3.434-.472-1.205-1.012-1.521-1.433-.84m16.095 1.089c-2.513.29-2.698.605-2.278 3.889.252 1.965.584 3.699.738 3.853.512.512 3.261-2.07 4.434-4.166 1.515-2.707.496-3.966-2.894-3.576M100 106c0 .55.9 1 2 1s2-.45 2-1-.9-1-2-1-2 .45-2 1m0 3c0 .55.9 1 2 1s2-.45 2-1-.9-1-2-1-2 .45-2 1m-30.5 2c-.34.55-.168 1 .382 1s1.278-.45 1.618-1 .168-1-.382-1-1.278.45-1.618 1m47 0c.34.55.816 1 1.059 1s.441-.45.441-1-.477-1-1.059-1-.781.45-.441 1m-52.789 1.999c-.288 1.099-.167 2.219.269 2.488.435.269 1.005-.63 1.267-1.999.564-2.952-.781-3.38-1.536-.489M100 114.5c0 .825-.723 1.5-1.607 1.5-1.055 0-1.398.544-1 1.582.334.87.607 1.907.607 2.304 0 .398 1.744.826 3.875.952 3.202.189 3.97-.138 4.425-1.879.347-1.326-.163-2.822-1.374-4.033-2.296-2.296-4.926-2.523-4.926-.426m33.5 1.5c.34.55 1.068 1 1.618 1s.722-.45.382-1-1.068-1-1.618-1-.722.45-.382 1M67 125.382c0 1.375.45 2.778 1 3.118.565.349 1-.47 1-1.882 0-1.375-.45-2.778-1-3.118-.565-.349-1 .47-1 1.882m68.07 1.368c.063 2.437.168 2.522.93.75 1.174-2.731 1.174-3.5 0-3.5-.55 0-.968 1.237-.93 2.75M89 127.5c0 .825.45 1.5 1 1.5s1 1.125 1 2.5.413 2.5.918 2.5 1.743.267 2.75.594c1.524.495 1.58.413.332-.484-1.22-.878-1.003-1.082 1.167-1.095 1.466-.008 2.9-.577 3.186-1.265s.477-.35.425.75c-.215 4.533.229 5.5 2.472 5.384 1.693-.087 1.817-.229.5-.573-.963-.252-1.75-.923-1.75-1.491s.661-.78 1.468-.471 1.745.115 2.084-.433c.339-.549 1.366-.79 2.282-.536s2.58.721 3.698 1.039c1.623.461 2.073.077 2.238-1.907.15-1.816-.262-2.445-1.532-2.34-.956.08-2.638.042-3.738-.084l-2-.229 2-.859c1.71-.735 1.746-.87.25-.93-.963-.038-1.75-.569-1.75-1.178 0-.652-.931-.875-2.258-.542-1.242.312-2.93.152-3.75-.355-1.063-.657-1.687-.429-2.171.792-.635 1.598-.685 1.596-.751-.037-.038-.963-.506-1.75-1.039-1.75s-.686.736-.34 1.636c.435 1.135.195 1.48-.782 1.125-.775-.281-1.297-1.017-1.159-1.636.342-1.538-1.46-1.43-2.088.125-.403 1-.52 1-.583 0-.113-1.788-2.079-1.552-2.079.25m28.5 1.5c.995 1.1 2.035 2 2.31 2s-.315-.9-1.31-2-2.035-2-2.31-2 .315.9 1.31 2M93 131.059c0 .582.45.781 1 .441s1-.816 1-1.059-.45-.441-1-.441-1 .477-1 1.059m32.583.584c-.918 2.394-.202 2.578 1.213.312.672-1.075.815-1.955.319-1.955s-1.185.739-1.532 1.643m-44.371 2.389c-1.791 2.868-1.473 3.786.39 1.126.881-1.258 1.427-2.463 1.212-2.677-.214-.215-.935.483-1.602 1.551M71.158 135c0 1.375.227 1.938.504 1.25.278-.687.278-1.812 0-2.5-.277-.687-.504-.125-.504 1.25m61 0c0 1.375.227 1.938.504 1.25.278-.687.278-1.812 0-2.5-.277-.687-.504-.125-.504 1.25M95 137.059c0 .582.45.781 1 .441s1-.816 1-1.059-.45-.441-1-.441-1 .477-1 1.059m-19.921 1.524c.048 1.165.285 1.402.604.605.289-.722.253-1.585-.079-1.917s-.568.258-.525 1.312m5.467 3.342c-.365.591-.202 1.075.364 1.075.565 0 .786.629.49 1.399-.295.769-.008 1.725.639 2.125.873.54.828.94-.174 1.559-1.129.698-1.126 1.044.018 2.125.986.932 1.485.973 1.79.148.233-.629 1.204-.94 2.158-.69 1.203.315 1.782-.177 1.89-1.606.15-1.994-1.12-2.837-1.974-1.31-.23.412-.3.235-.155-.394.39-1.689-4.231-5.748-5.046-4.431m18.454.544c0 .894-.586 1.243-1.5.893-.93-.357-1.5.004-1.5.95 0 1.196 1.3 1.533 6 1.555 5.707.027 6-.091 6-2.419 0-2.813-1.629-3.305-2.311-.698-.435 1.667-.463 1.667-.573 0-.141-2.129-2.116-2.362-2.116-.25 0 .825-.45 1.5-1 1.5s-1-.675-1-1.5-.45-1.5-1-1.5-1 .661-1 1.469m19.417 2.007c-2.065 2.245-2.826 5.524-1.282 5.524.441 0 .581.575.312 1.279-.27.703.093 2.077.807 3.053 1.222 1.672 1.428 1.635 3.55-.623 1.415-1.507 2.01-3.029 1.601-4.096-.729-1.9-2.543-1.699-3.229.359-.297.892.087 1.141 1.137.738 1.105-.424 1.417-.169 1.029.841-.821 2.14-1.712 1.785-3.618-1.441-1.672-2.83-1.656-2.925.784-4.523 1.371-.898 2.492-2.073 2.492-2.61 0-1.522-1.308-.975-3.583 1.499m2.177 1.42c-2.283 2.523-1.971 3.755.406 1.604 1.241-1.123 2-1.349 2-.596 0 .668.45.936 1 .596 1.425-.881 1.236-2.195-.406-2.826-.773-.296-2.123.253-3 1.222M79 146c0 .615-.445.843-.989.507-.557-.345-.739.038-.417.878.314.819 1.209 1.244 1.989.945 1.652-.634 1.845-1.947.417-2.83-.55-.34-1-.115-1 .5m9.71 3c-.307 1.175-.03 2 .671 2 .656 0 1.261-.9 1.344-2s-.219-2-.671-2c-.451 0-1.056.9-1.344 2m3.79-1c-.34.55-.141 1 .441 1S94 148.55 94 148s-.198-1-.441-1-.719.45-1.059 1m20.775 1c.083 1.1.505 2 .938 2s.787-.9.787-2-.422-2-.938-2-.87.9-.787 2m-17.731 1.61c-.509 1.239-.938 1.46-1.244.64-.257-.687-.906-1.25-1.442-1.25-.537 0-.698.45-.358 1s.174 1-.368 1-1.191.787-1.443 1.75c-.392 1.499-.474 1.515-.573.108-.115-1.627-4.81-3.498-5.94-2.367-.324.324.352.834 1.501 1.135 1.474.385 1.942 1.116 1.586 2.476-.277 1.061-.948 2.204-1.491 2.539-.602.372-.723-.22-.31-1.521.491-1.546.177-2.313-1.143-2.8-1-.368-2.179-1.266-2.619-1.995S80.403 150 79.795 150s-.306.883.671 1.963c1.003 1.108 1.505 2.67 1.153 3.588-.39 1.016.221 2.329 1.629 3.504 3.066 2.557 4.626 2.407 5.752-.555.523-1.375 1.502-2.5 2.175-2.5.953 0 .958.267.025 1.2-1.633 1.633-1.508 2.8.3 2.8.833 0 1.5-.889 1.5-2 0-1.1.419-2 .93-2 .574 0 .574 1.243 0 3.243-.511 1.784-.93 3.317-.93 3.407s-.9-.073-2-.36c-1.118-.293-2-.031-2 .593 0 .615.9 1.117 2 1.117 1.435 0 2 .667 2 2.36 0 2.306.207 2.36 9.043 2.36h9.042l-.497-5.382c-.273-2.96-.769-5.822-1.101-6.36-.333-.538-.342-.978-.021-.978s1.011 1.125 1.534 2.5c1.254 3.299 3.423 3.321 2.596.027-.47-1.875-.279-2.343.79-1.932.777.298 1.684.101 2.016-.437.997-1.612-.488-4.158-2.426-4.158-.995 0-2.038-.562-2.317-1.25-.383-.946-.756-.892-1.529.222-.881 1.269-1.114 1.234-1.683-.25-.859-2.237-2.438-2.219-2.479.028-.03 1.642-.116 1.639-1.399-.053-1.023-1.35-1.499-1.476-1.892-.5-.428 1.062-.698 1.057-1.462-.031-.751-1.069-1.069-.989-1.603.404-.629 1.638-.742 1.635-1.979-.057-1.255-1.717-1.345-1.713-2.089.097m-16.906 2.89c.317.825 1.033 1.5 1.591 1.5.586 0 .489-.635-.229-1.5-.685-.825-1.401-1.5-1.591-1.5s-.087.675.229 1.5m41.476 3.429c-.859.532-.962 1.047-.29 1.462.571.353 1.339.154 1.707-.441.918-1.486.188-2.012-1.417-1.021M115.5 159c.34.55 1.041 1 1.559 1s.941-.45.941-1-.702-1-1.559-1-1.281.45-.941 1m-34.5.882c0 .55.45 1.278 1 1.618s1 .168 1-.382-.45-1.278-1-1.618-1-.168-1 .382m3.813 2.801c.721.289 1.584.253 1.916-.079s-.258-.568-1.312-.525c-1.165.048-1.402.285-.604.604M112 163c0 .55.675 1 1.5 1s1.5-.45 1.5-1-.675-1-1.5-1-1.5.45-1.5 1m-23 3.5c0 .917.484 1.505 1.075 1.308s1.075-.786 1.075-1.308-.484-1.111-1.075-1.308S89 165.583 89 166.5m23.667-.833c-1.151 1.15-.729 2.333.833 2.333.825 0 1.5-.675 1.5-1.5 0-1.562-1.183-1.984-2.333-.833m13.403 10.795c-1.494.8-2.894 2.882-3.643 5.419-1.178 3.99-1.144 4.119 1.101 4.119 1.759 0 2.594-.838 3.466-3.48.631-1.915.888-3.901.571-4.415s-.012-1.136.679-1.383c.691-.246 1.03-.698.754-1.003-.275-.306-1.593.029-2.928.743m-39.641.424c.535.864-.045 1.029-2.095.597l-2.834-.597 2.5 1.522c1.375.836 2.838 1.537 3.25 1.557 1.191.056.87-2.773-.405-3.56-.729-.451-.882-.274-.416.481M116 178.531c0 1.618 1.563 1.986 2.435.574.305-.493-.119-1.153-.941-1.469-.907-.348-1.494.003-1.494.895m13.086 2.653c-.856 2.455-.821 3.366.152 3.981 1.234.779 3.612-3.005 3.717-5.915.093-2.575-2.802-1.128-3.869 1.934M94.5 184c.34.55.816 1 1.059 1s.441-.45.441-1-.477-1-1.059-1-.781.45-.441 1m-24.936 1.707c-.542 1.425-.428 1.54.56.56.684-.679.991-1.486.683-1.793-.308-.308-.867.247-1.243 1.233m63.436-.766c0 .518.445 1.216.989 1.552.566.35.734-.051.393-.941-.665-1.732-1.382-2.049-1.382-.611M82.5 187c2.749 1.181 4.328 1.181 2.5 0-.825-.533-2.175-.945-3-.914-.989.036-.819.347.5.914m6.5.441c0 .793.408 1.693.907 2.001.498.309.671-.34.383-1.441-.611-2.335-1.29-2.63-1.29-.56M135.5 191c-.34.55-.141 1 .441 1s1.059-.45 1.059-1-.198-1-.441-1-.719.45-1.059 1"/><path fill-opacity=".266" fill-rule="evenodd" d="M90.678 7.092C71.428 9.125 51.092 18.025 37.5 30.366l-4 3.632 10-3.609c5.5-1.985 11.462-4.085 13.25-4.667 2.459-.8 3.25-1.636 3.25-3.435C60 19.434 64.15 15 66.82 15c2.909 0 7.18 3.839 7.18 6.454 0 1.455-1.27 3.277-3.433 4.927-4.095 3.123-5.677 3.26-8.001.692-1.938-2.142-.628-2.487-15.408 4.061L41.817 33.5l9.341-.334c6.253-.224 10.144-.848 11.768-1.889 1.814-1.162 1.412-.32-1.595 3.334C51.386 46.7 49.569 53.634 50.353 76.5c.301 8.8 1.036 17.972 1.632 20.382 1.862 7.525-.884 6.593-2.992-1.016C47.979 92.21 45 88.531 45 90.937c0 .649-.477.886-1.06.526-.668-.413-.392-1.143.747-1.976 1.388-1.015 2.136-1.05 3.223-.154 1.123.926 1.307.857.892-.333-.584-1.677-4.38-1.595-6.472.141-1.492 1.238-1.677 14.218-.276 19.359.51 1.871.613.122.274-4.646-.331-4.663-.123-8.37.534-9.5.956-1.645 1.081-1.537 1.108.955.017 1.612.456 2.546 1.03 2.191.55-.34 1-1.581 1-2.759 0-3.943 2.177-.209 2.343 4.019.101 2.554.572 3.816 1.318 3.534.777-.294 1.328 1.657 1.662 5.883.275 3.478.816 7.786 1.202 9.573 1.045 4.837-1.123 4.084-3.636-1.263-2.325-4.946-4.568-7.19-3.64-3.642.311 1.187.156 1.906-.342 1.597-1.683-1.04-.885 1.029 2.914 7.554 2.293 3.939 4.55 6.618 5.731 6.804 1.428.225 1.595.065.625-.6-.942-.647-1.114-2.017-.599-4.763.611-3.26.842-3.534 1.492-1.777.423 1.143.995 3.374 1.272 4.959 2.305 13.174 4.09 20.383 5.758 23.239 1.638 2.806 1.937 5.073 1.822 13.805l-.137 10.448-12.346-.305c-6.791-.168-12.03-.039-11.643.288s5.115 2.501 10.505 4.83c7.861 3.397 10.088 3.998 11.25 3.034 1.832-1.52 1.98.181.292 3.335-1.078 2.015-1.201 2.037-1.803.322-.356-1.016-3.161-2.864-6.259-4.125C44.732 177.809 37 175 37 175.394c0 .988 11.923 9.181 18.292 12.569 8.218 4.372 12.345 5.876 11.247 4.1-.391-.633-.11-1.892.625-2.799.953-1.175.977-1.432.086-.897q-1.249.748-1.25-1.226c0-1.088-.267-2.802-.594-3.809-.504-1.552-.418-1.603.56-.332.914 1.187 1.019.807.5-1.817-.486-2.465-.181-3.874 1.19-5.483 1.597-1.875 1.61-1.984.094-.81-1.575 1.22-1.748 1.068-1.735-1.518.011-2.036.271-2.469.893-1.487.535.845.669-.518.343-3.5l-.534-4.885 2.141 1.905c1.178 1.048 2.142 2.51 2.142 3.25S71.45 170 72 170s1-.41 1-.912c0-1.368 5.19-.528 6.452 1.044 1.413 1.76 7.869 5.197 6.94 3.694-.43-.696-.255-.859.453-.421.635.392 1.162 1.474 1.17 2.404.012 1.318.203 1.395.868.347.705-1.113 1.373-1.075 3.875.219 3.982 2.059 15.55 2.593 17.228.795.735-.786 2.217-1.085 3.628-.731 1.312.33 2.389.253 2.392-.17.01-1.187 6.054-4.35 7.09-3.71.505.312 1.225-.248 1.599-1.246.82-2.183 3.298-4.238 5.164-4.281.969-.023 1.242.974.951 3.468-.225 1.925-.258 3.5-.074 3.5s1.182-1.975 2.217-4.39c2.61-6.09 3.678-6.319 4.414-.947.982 7.16.894 7.799-.867 6.337-.865-.718-1.5-.815-1.5-.229 0 .558.675 1.274 1.5 1.591s1.5 1.186 1.5 1.932c0 2.016 4.44 5.855 5.557 4.806.519-.488 4.993-2.582 9.943-4.654s9.317-4.032 9.704-4.357c.387-.324-4.605-.451-11.094-.283l-11.798.307-.194-10.435c-.163-8.782.117-10.97 1.767-13.807 1.078-1.854 2.476-6.296 3.106-9.871 2.022-11.478 1.815-10.999 4.778-11.008 2.323-.007 3.202-.911 5.881-6.052 2.354-4.517 2.97-6.715 2.438-8.703-.597-2.234-.821-2.376-1.393-.885-.392 1.021-1.174 1.47-1.842 1.057-.707-.437-.893-.282-.474.396.664 1.074-1.574 9.282-3.284 12.043-.459.742-1.476 1.192-2.261 1-1.16-.283-1.239-1.186-.424-4.848.861-3.867 1.053-4.113 1.362-1.75.199 1.512.767 2.75 1.263 2.75s.657-.64.357-1.422.002-2.446.672-3.697c.708-1.324 1.135-5.402 1.02-9.748-.177-6.663-.029-7.332 1.359-6.18.956.794 1.557.882 1.557.228 0-.584-.39-1.304-.866-1.598s-.676-1.784-.445-3.309l.421-2.774-1.603 2.5-1.603 2.5.544-3.5c.299-1.925.827-11.221 1.173-20.657.573-15.61.442-17.775-1.454-24-2.157-7.082-6.423-14.722-11.018-19.731l-2.649-2.887 2.5 1.548c1.574.976 5.615 1.68 10.913 1.903l8.413.354-8.878-4.136-8.879-4.135-2.64 1.952-2.64 1.951-4.549-3.206c-4.283-3.019-4.49-3.375-3.539-6.102 2.451-7.032 11.141-6.308 12.646 1.054.73 3.568-.749 2.77 19.473 10.515 3.751 1.437 6.553 2.18 6.226 1.651s-4.213-3.688-8.635-7.02c-9.337-7.036-21.555-13.141-32.036-16.01-6.268-1.715-24.181-4.263-27.375-3.894-.55.064-4.52.488-8.822.942m3.246 7.658L91.5 17.5l2.75-2.424C96.82 12.81 97.459 12 96.674 12c-.179 0-1.416 1.238-2.75 2.75M108.5 15c.995 1.1 2.035 2 2.31 2s-.315-.9-1.31-2-2.035-2-2.31-2 .315.9 1.31 2M95.652 27.491c-.924.923-1.627 1.085-1.847.425-.206-.618-1.427-.798-2.898-.429-2.151.54-2.496 1.129-2.239 3.826l.303 3.187-1.006-3.219c-.942-3.013-1.17-3.145-3.571-2.051-2.116.964-2.466 1.658-2.004 3.969.308 1.541.217 2.801-.202 2.801s-.834-.951-.922-2.113c-.221-2.942-.751-3.221-3.23-1.706-1.692 1.033-2.041 1.968-1.615 4.319.476 2.622.402 2.748-.586 1-.621-1.1-1.224-2.123-1.339-2.274-.116-.15-.987.025-1.937.39-1.369.525-1.45.838-.393 1.508.999.633 1.02.849.084.861-.687.008-1.25.513-1.25 1.122 0 .643.733.826 1.75.436.963-.369-.838 1.738-4 4.681S63 50.373 63 51.347s-.403 1.522-.895 1.218C61.141 51.969 60 54.207 60 56.693c0 1.09.565.851 1.967-.832 1.081-1.299 1.981-1.888 2-1.311.018.578-.493 1.576-1.136 2.219s-1.251 2.645-1.351 4.45-.47 3.956-.821 4.781-.21 2.173.312 2.995c.815 1.283 1.164 1.212 2.458-.5.829-1.097 1.522-1.58 1.539-1.074.018.507-.683 1.712-1.558 2.678-1.128 1.246-1.313 2.252-.638 3.458.645 1.152 1.176 1.337 1.649.571.383-.62 1.19-1.128 1.793-1.128.618 0 .417.763-.463 1.75-.898 1.008-1.414 3.011-1.218 4.724.187 1.636-.12 3.529-.683 4.206-.562.678-.74 1.689-.395 2.248.346.559-.079 2.095-.944 3.414-.864 1.319-1.67 3.763-1.791 5.431s-.557 2.824-.97 2.571c-.413-.254-.75.427-.75 1.514s.563 2.202 1.25 2.48c.747.301.545.536-.5.583-2.202.099-2.242 1.878-.095 4.25.99 1.094 1.191 1.829.5 1.829-1.414 0-1.545 4.641-.155 5.5.55.34 1 2.166 1 4.059s.388 3.441.861 3.441c.474 0 .65 1.108.391 2.462-.281 1.471.177 3.11 1.139 4.072.885.885 1.577 2.589 1.539 3.787-.068 2.106-.1 2.112-.93.179-.823-1.916-.862-1.92-.93-.079-.038 1.057.717 2.822 1.68 3.922.962 1.101 1.188 1.672.5 1.27-.882-.516-1.229.096-1.18 2.078.062 2.471.174 2.568.93.809.843-1.961.861-1.962.93-.038.038 1.08 1.104 2.88 2.367 4 1.264 1.121 1.714 1.645 1 1.166-.953-.641-1.297-.189-1.297 1.703 0 1.983.844 2.976 3.668 4.316 2.018.957 3.15 1.914 2.515 2.125-1.541.514 1.365 6.228 3.168 6.228.715 0 2.391 1.198 3.725 2.661 1.333 1.464 1.749 2.286.924 1.828-.825-.459-.356.336 1.043 1.767 1.398 1.431 3.873 2.919 5.5 3.307s3.632 1.248 4.457 1.911c2.304 1.85 16.94 1.845 17.651-.006.31-.807 1.64-1.468 2.956-1.468s2.393-.436 2.393-.969.669-.712 1.486-.398c.978.375 1.832-.339 2.498-2.092.557-1.464 1.474-2.376 2.039-2.027s.944.264.843-.19c-.405-1.819 1.458-4.324 3.215-4.324 1.064 0 2.536-1.292 3.419-3s1.11-3 .526-3c-.564 0-.239-.823.724-1.828s2.257-1.653 2.877-1.44 1.429-.818 1.798-2.29c.872-3.472-.099-4.44-1.34-1.337-.733 1.832-.973 1.969-1.022.586-.038-1.092-.558-1.569-1.313-1.204-.687.333-.238-.145 1-1.063 1.328-.985 2.256-2.745 2.265-4.296.017-2.927 1.241-5.365 2.597-5.174 1.471.207 1.665-4.163.225-5.076-1.038-.658-.961-.851.347-.863.957-.008 1.87.955 2.117 2.235.239 1.238.258.529.043-1.574-.278-2.716-.056-3.616.767-3.108.815.504 1.021-.214.697-2.426-.254-1.728-.09-3.142.365-3.142s.827-1.548.827-3.441.45-3.719 1-4.059 1-1.968 1-3.618c0-2.134-.361-2.783-1.25-2.249-.953.573-.985.408-.136-.691 1.353-1.753 1.416-4.942.097-4.942-.526 0-.4-.67.279-1.488 1.001-1.207.925-1.607-.403-2.117-1.269-.487-1.38-.94-.49-2.012.871-1.05.852-1.383-.082-1.383-.682 0-.973-.668-.653-1.5.685-1.785.446-1.825-2.606-.435-1.286.586-2.77 2.019-3.297 3.184s-1.973 2.186-3.213 2.268c-2.045.136-2.114-.006-.742-1.522 1.358-1.5 1.309-1.854-.474-3.468-3.274-2.963-10.487-2.987-8.03-.027.759.914.774 1.522.049 1.97-1.654 1.022-3.272-.509-2.73-2.583.648-2.477-1.362-2.427-4.592.113-2.901 2.282-4.514 2.653-2.858.658.612-.738.78-1.71.372-2.16-.407-.45-.108-.451.667-.002 1.074.623 1.278.322.861-1.273-.487-1.86-.278-1.987 1.899-1.159 1.374.522 2.205.539 1.895.038-.303-.491.158-1.165 1.025-1.497 2.44-.937 6.208-.715 6.579.387.183.546 3.033 1.109 6.333 1.25s6.295.666 6.655 1.164.607-.804.548-2.893c-.059-2.09-.28-3.282-.491-2.65s-.777.906-1.259.608-.508-1.538-.057-2.756c.45-1.218.756-3.452.678-4.965s.164-2.75.536-2.75c1.63 0 1.799-3.443.254-5.151-.927-1.024-1.398-2.148-1.048-2.498s.921.102 1.267 1.006c.347.904 1.019 1.643 1.493 1.643.473 0 .574-.749.223-1.664-.43-1.119-.256-1.427.531-.941 1.726 1.067 1.431-.236-.911-4.027-1.662-2.688-1.763-3.245-.5-2.761 1.975.758 1.98.118.032-3.907l-1.55-3.2 2.05 2.361c1.846 2.127 2.049 2.173 2.049.467 0-1.931-1.965-4.817-7.75-11.382-1.787-2.029-3.25-4.591-3.25-5.695 0-2.823-2.846-5.118-4.01-3.234-.472.763-.593 1.816-.27 2.34.324.524.13.668-.431.321-.562-.346-.811-1.726-.555-3.066.572-2.993-3.362-5.807-4.846-3.465-.663 1.046-.861.949-.873-.429-.016-1.861-4.264-4.136-4.848-2.596-.184.483-.773.878-1.309.878-.537 0-.73-.399-.428-.886.301-.488-.46-1.157-1.691-1.487-3.351-.898-3.733-.785-3.802 1.123-.049 1.341-.275 1.224-.968-.5-.995-2.475-5.377-3.162-6.386-1-.466 1-.7 1-1.166 0-.797-1.706-3.95-1.574-5.765.241M94.5 32c-.34.55-.141 1 .441 1S96 32.55 96 32s-.198-1-.441-1-.719.45-1.059 1m13.5 0c0 .55.477 1 1.059 1s.781-.45.441-1-.816-1-1.059-1-.441.45-.441 1m-41.273 8.749c-.933 1.031-1.296 2.33-.853 3.047.579.936 1.24.736 2.626-.796q1.852-2.048.853-3.047t-2.626.796m67.746-.705c-.731 1.182 1.236 3.956 2.804 3.956.568 0 .287-.824-.624-1.831-.912-1.007-1.356-2.132-.989-2.5s.396-.669.062-.669c-.335 0-.898.47-1.253 1.044m-71.547 4.147c-.453 1.884-.902 5.089-.666 4.748.168-.241.875-1.186 1.572-2.1.855-1.123.925-1.871.217-2.309-.577-.356-1.082-.509-1.123-.339m.946 15.559c-1.243 1.586-1.208 1.621.378.378.963-.755 1.75-1.543 1.75-1.75 0-.823-.821-.294-2.128 1.372M59 63.5c0 .825.177 1.5.393 1.5s.652-.675.969-1.5.139-1.5-.393-1.5c-.533 0-.969.675-.969 1.5m84.564-.207c.376.986.935 1.541 1.243 1.233s.001-1.114-.683-1.793c-.988-.98-1.102-.865-.56.56m-81.957 2.289c-.939 2.446-.735 2.769.893 1.418 1.662-1.38 1.99-3 .607-3-.491 0-1.166.712-1.5 1.582m78.936-.651c-.317.512-.118 1.213.441 1.559s1.016-.074 1.016-.931c0-1.757-.6-2.015-1.457-.628m-76.562 6.592c-1.057 1.273-.995 1.42.378.893.902-.347 1.641-1.032 1.641-1.523 0-1.286-.579-1.105-2.019.63M138 70.378c0 .207.787.995 1.75 1.75 1.586 1.243 1.621 1.208.378-.378-1.307-1.666-2.128-2.195-2.128-1.372M65.5 77c-.34.55-.141 1 .441 1S67 77.55 67 77s-.198-1-.441-1-.719.45-1.059 1m10.654 4.56c.326 1.69 2.946 2.823 8.837 3.821 1.38.233 3.37.77 4.423 1.192 1.345.539 1.699.419 1.191-.403-.398-.644-1.356-1.17-2.129-1.17s-1.887-.9-2.476-2c-1.096-2.049-6-2.866-6-1 0 .55-.702 1-1.559 1s-1.3-.419-.984-.931.075-1.24-.537-1.618c-.693-.429-.982-.011-.766 1.109m59.305-.493c-.363.586-.445 1.281-.183 1.543s.743-.218 1.069-1.067c.676-1.762.1-2.072-.886-.476m-16.107.625c-1.181.231-2.389 1.34-2.682 2.463-.446 1.703-.172 1.946 1.648 1.458 1.2-.322 2.745-.592 3.432-.599.688-.008 1.25-.914 1.25-2.014s-.338-1.939-.75-1.864-1.717.325-2.898.556M66.25 83.22C63.951 84.329 63.2 86 65 86c.55 0 1-.45 1-1s.648-1 1.441-1 1.719-.45 2.059-1c.775-1.255-.349-1.178-3.25.22M82 83c0 .55.702 1 1.559 1s1.281-.45.941-1-1.041-1-1.559-1-.941.45-.941 1m6 .383c0 .211.901.619 2.001.907 1.101.288 1.75.115 1.441-.383-.538-.871-3.442-1.313-3.442-.524M113.5 86c-.34.55-.141 1 .441 1S115 86.55 115 86s-.198-1-.441-1-.719.45-1.059 1m-36.094 1.848c.654 1.057-3.274 1.731-7.156 1.227-.687-.09-1.25.296-1.25.856 0 .665-.841.7-2.415.101-1.875-.713-2.553-.557-3.034.695-.567 1.478.877 3.22 2.699 3.258.412.008.75.701.75 1.54 0 .838 1.154 1.963 2.565 2.5 3.696 1.405 3.957 1.219 1.304-.93-2.291-1.855-2.304-1.957-.518-3.93 2.066-2.283 7.81-2.747 6.972-.563-.737 1.918.513 3.398 2.293 2.715 1.144-.439 1.233-.792.34-1.344-1.434-.887-.404-2.973 1.468-2.973.719 0 2.45.9 3.849 2 1.398 1.1 2.836 2 3.194 2 1.309 0-.766-2.211-3.826-4.077-1.728-1.054-2.774-1.917-2.325-1.919 1.192-.006 4.933 2.103 6.485 3.654 1.591 1.592 2.852 1.712 3.692.353.35-.566-.051-.734-.941-.393-1.537.59-2.246-1.063-.802-1.871.412-.23.188-.282-.5-.114s-1.25-.26-1.25-.95-.787-1.316-1.75-1.391-3.731-.465-6.153-.867c-3.219-.533-4.212-.42-3.691.423m80.801 2.193c-.701 1.122-.929 2.585-.506 3.25s.775 1.509.784 1.876c.008.366.414 1.041.902 1.5.509.478.671-.355.381-1.957-.327-1.803-.11-2.651.613-2.398 1.176.411 1.336 12.175.245 18.019-.502 2.686-.419 2.875.54 1.242 1.726-2.939 2.389-20.199.847-22.057-1.66-2.001-2.283-1.915-3.806.525m-50.476 6.039c.354 1.352.807 1.806 1.057 1.057.24-.722-.038-1.787-.62-2.369-.742-.742-.872-.351-.437 1.312M94 101.393c0 .216.698.661 1.552.989.89.341 1.291.173.941-.393-.587-.951-2.493-1.406-2.493-.596m.146 10.141c-1.295 1.497-3.007 4.281-3.803 6.188-1.298 3.105-1.274 3.735.231 6.031l1.679 2.563 1.807-2.395 1.806-2.395 2.382 2.237c2.947 2.769 4.907 2.828 7.266.221l1.824-2.015 2.138 2.008c1.656 1.556 2.407 1.74 3.331.816 2.619-2.619.732-10.185-3.494-14.01-1.801-1.629-1.901-1.607-2.056.456-.09 1.193.316 2.746.902 3.452.585.706.818 1.927.516 2.714s.075 1.669.837 1.961c.906.348 1.193.03.83-.917-.306-.797-.088-1.449.484-1.449 1.239 0 2.631 3.876 1.72 4.788-.35.35-1.564.057-2.698-.651-1.771-1.106-2.37-.995-4.268.788-3.008 2.825-4.953 2.609-7.887-.878-2.272-2.7-2.528-2.786-2.995-1-.681 2.604-3.698 2.546-3.698-.072 0-1.245.973-2.394 2.526-2.985 2.833-1.077 3.789-2.815 3.303-6.011-.32-2.108-.392-2.094-2.683.555m62.521 5.133c-.367.366-.667 1.131-.667 1.7 0 .626.466.567 1.183-.15.651-.651.951-1.416.667-1.7s-.817-.217-1.183.15M139.195 138.5c.02 1.65.244 2.204.498 1.231s.237-2.323-.037-3-.481.119-.461 1.769M136 140.059c0 1.785.417 2.802 1 2.441.55-.34 1-1.716 1-3.059s-.45-2.441-1-2.441-1 1.377-1 3.059m-50.75-.443c-3.423 1.508.277 1.881 17 1.713 20.169-.203 19.957-.189 17.537-1.149-2.095-.832-32.793-1.333-34.537-.564m-20.18 4.075c.039.445.457 1.709.93 2.809.829 1.928.862 1.921.93-.191.038-1.205-.38-2.469-.93-2.809s-.968-.254-.93.191m72.009 2.892c.048 1.165.285 1.402.604.605.289-.722.253-1.585-.079-1.917s-.568.258-.525 1.312M71.031 153c0 .825.436 2.175.969 3 .862 1.333.969 1.333.969 0 0-.825-.436-2.175-.969-3-.862-1.333-.969-1.333-.969 0m-29.218 17.683c.721.289 1.584.253 1.916-.079s-.258-.568-1.312-.525c-1.165.048-1.402.285-.604.604m122.637 4.259c-.522.518-5.203 2.563-10.4 4.544-5.198 1.98-10.049 4.098-10.781 4.706-1.005.834-1.656.662-2.652-.702-1.176-1.607-1.383-1.266-1.878 3.102-.307 2.699-.418 5.051-.248 5.225.55.564 10.849-4.984 16.509-8.892 6.116-4.223 11.796-8.834 10.95-8.889-.302-.02-.978.388-1.5.906"/></svg>