<svg xmlns="http://www.w3.org/2000/svg" width="200" height="200" fill="#000000"><path fill-opacity=".133" fill-rule="evenodd" d="M117.333 14.538c0 .804.402 1.462.893 1.462.49 0 .571.52.179 1.155-.443.715-.275.883.44.44.635-.392 1.155-.498 1.155-.236 0 .263.273 1.189.607 2.059.83 2.164-.794 1.988-3.312-.358-1.145-1.067-2.355-1.667-2.689-1.333-.333.333-.606.177-.606-.348 0-1.315-3.14-1.769-12.5-1.807-7.228-.029-8.609.296-14.313 3.371-10.92 5.886-18.774 16.623-19.633 26.838-.236 2.815-.908 6.012-1.492 7.103S65 55.828 65 57.002c0 1.569-.462 1.991-1.75 1.596-.962-.295-5.486-1.399-10.052-2.452l-8.303-1.916-1.407 2.148c-2.234 3.409-3.769 12.427-3.064 18.004 1.389 11.005 1.509 11.284 5.666 13.159 2.151.969 3.91 2.171 3.91 2.67s.45.629 1 .289 1 .061 1 .891.563 1.869 1.25 2.309c2.614 1.673 3.921 4.076 2.644 4.865-.735.455-.942.322-.532-.341.369-.597.213-1.368-.346-1.714S54 96.572 54 97.415c0 .844 1.35 2.232 3 3.085 3.31 1.712 3.661 2.696 1.67 4.688-.732.731-1.158 1.847-.948 2.479.211.632-.09 1.443-.669 1.8-.634.392-1.099-.467-1.169-2.158s-.298-2.112-.573-1.059c-.589 2.252-2.047 2.252-2.607 0-.239-.963-.263-.422-.054 1.2.376 2.919 2.068 4.842 3.488 3.965.403-.25.312 1.015-.202 2.809-.515 1.795-.936 3.325-.936 3.402s-1.807.163-4.016.194c-2.208.03-4.908.339-6 .685s-1.984.204-1.984-.316c0-.521-1.326-1.496-2.947-2.167-2.43-1.006-3.493-.949-6.052.327-1.707.852-3.756 1.298-4.555.992-2.364-.907-5.787.392-9.305 3.533-1.815 1.621-3.265 3.212-3.221 3.537.258 1.899-.029 2.64-.831 2.144-1.294-.8-.71-3.549.981-4.62 1.084-.686 1.113-.908.121-.92-.72-.008-1.031-.465-.691-1.015s.153-1-.415-1c-1.98 0-4.097 5.769-3.558 9.696.287 2.092.624 4.704.748 5.804s.675 2.331 1.225 2.735c.619.455.524.74-.25.75-1.858.022-1.597 10.424.359 14.315.885 1.76 3.381 5.039 5.548 7.287 3.463 3.593 3.753 4.243 2.392 5.373-.852.707-1.549 1.616-1.549 2.02 0 1.171 23.625 13.062 24.403 12.283.387-.386.419.037.073.94-.347.903-1.271 1.888-2.053 2.188-3.239 1.243-1.068 2.353 3.827 1.958 9.516-.769 15.561-2.038 17.692-3.714 1.132-.891 1.266-.843.625.222-.624 1.037-.318 1.199 1.299.685a45 45 0 0 1 4.375-1.098c1.243-.235 3.384-.665 4.759-.956s4.51-.779 6.967-1.084 4.855-.794 5.329-1.087 2.963-.749 5.532-1.014l4.672-.483-2.271 2.427c-2.127 2.273-6.332 3.568-17.111 5.271-1.86.293-4.744 1.504-6.409 2.689-2.747 1.957-2.851 2.219-1.118 2.849 1.05.382 2.261.489 2.692.239s2.456-.655 4.5-.901 4.617-.74 5.717-1.097c1.1-.358 2.675-.755 3.5-.884s2.625-.491 4-.806c5.65-1.295 8.268-1.813 10.328-2.043 1.195-.134 6.256-1.071 11.247-2.083 8.375-1.697 9.253-1.715 11.375-.229l2.299 1.611-3.875.704c-11.565 2.104-15.284 3.251-19.301 5.954-3.238 2.179-3.961 3.069-2.692 3.314.955.184 2.497.009 3.427-.389s2.367-.813 3.192-.923c12.082-1.606 22.096-4.129 26-6.551 2.475-1.536 6.075-3.461 8-4.278s4.975-2.868 6.778-4.558c3.226-3.025 5.127-3.729 16.393-6.067 4.846-1.006 5.814-1.587 6.653-3.995l.983-2.818-4.154.88a550 550 0 0 0-6.51 1.418c-1.667.38-.642-.89 3.5-4.34 8.754-7.29 16.097-15.764 19.592-22.609 2.578-5.05 3.192-7.582 3.554-14.657.57-11.153-1.848-17.367-8.938-22.972l-4.806-3.798 5.727-5.209c3.151-2.865 4.941-4.65 3.978-3.966-.963.683-1.75.985-1.75.67s-1.463.027-3.25.758c-8.302 3.395-8.503 3.149-2.62-3.205 3.086-3.333 6.67-8.236 7.963-10.894 3.125-6.423 3.795-16.682 1.399-21.43-3.122-6.19-10.563-12.699-15.492-13.553-1.763-.305-10.364 1.8-21.302 5.215-9.593 2.995-10.546 3.011-11.611.186-.755-2-.335-2.484 3.782-4.355 5.276-2.398 9.554-6.395 6.845-6.395-.878 0-1.862.43-2.187.956s-1.252.703-2.059.393-1.468-.107-1.468.45c0 .558-.9.778-2 .491-1.226-.321-2-.031-2 .748 0 2.216-3.552-1.739-3.734-4.158-.091-1.21-.751-2.571-1.466-3.025s-.85-.838-.3-.855q1-.03 0-.765c-.55-.404-1.675-2.053-2.5-3.663-1.843-3.597-13.667-13.143-13.667-11.034m-22.669 5.808c-4.02.959-5.428 1.956-8.346 5.904-1.93 2.613-3.065 4.75-2.521 4.75s1.248-.675 1.565-1.5c.342-.893 1.903-1.522 3.857-1.555 2.4-.041 3.906-.846 5.607-3 1.574-1.993 1.898-2.97 1-3.022-.729-.042.474-.67 2.674-1.395 4.944-1.629 2.68-1.737-3.836-.182M77.592 32.584c-4.166 5.455-6.635 12.813-6.492 19.348.068 3.143.302 3.873.75 2.34.357-1.225 1.325-3.027 2.15-4.004.841-.996 1.526-3.832 1.559-6.455.043-3.465.896-6.026 3.288-9.874 4.146-6.669 3.409-7.464-1.255-1.355m9.221 4.099c.721.289 1.584.253 1.916-.079s-.258-.568-1.312-.525c-1.165.048-1.402.285-.604.604m-2.724 3.628c-1.544 1.544-1.349 3.375.434 4.059 1.434.551 5.478-2.491 5.476-4.12-.001-1.19-4.708-1.141-5.91.061M108 45.378c0 .207.787.995 1.75 1.75 1.586 1.243 1.621 1.208.378-.378-1.307-1.666-2.128-2.195-2.128-1.372m14.161 7.092c-.674 2.386-.758 4.333-.211 4.88s1.178-.516 1.581-2.666c.977-5.203-.055-6.87-1.37-2.214m-4.161.471c0 1.132.45 2.059 1 2.059s1-.648 1-1.441-.45-1.719-1-2.059-1 .309-1 1.441m7 2.688c0 2.131.254 2.306 2 1.371 1.1-.589 2-1.452 2-1.919 0-.466-.9-1.083-2-1.371-1.597-.417-2-.03-2 1.919m48.42-.717c1.644 1.816 1.639 1.936-.095 2.384-1.144.296-.734.515 1.099.588l2.925.116L175 55.5c-2.727-2.903-4.156-3.434-1.58-.588M69 57.833c0 1.742.459 3.167 1.019 3.167.605 0 .751-1.117.359-2.75-.941-3.926-1.378-4.058-1.378-.417m29.141.007c-4.286 3.555-4.023 6.525.617 6.973l3.242.314v-5.064c0-2.784-.112-5.051-.25-5.036s-1.762 1.281-3.609 2.813m46.308-.895c-10.261 3.653-13.638 6.305-17.264 13.555-3.292 6.583-3.548 9.377-.367 4 5.107-8.631 10.728-13.318 20.949-17.469 5.971-2.425 3.435-2.491-3.318-.086m13.179 2.178c-4.409 2.92-4.611 3.239-3.107 4.9 1.529 1.69 1.86 1.611 6.771-1.623 2.839-1.87 5.848-3.403 6.685-3.406.838-.004.234-.679-1.341-1.5-3.744-1.953-3.546-1.989-9.008 1.629M79 59.296c0 3.681.949 5.613 3.368 6.854 1.756.902 1.911.861.882-.228-.687-.727-1.25-2.527-1.25-4s-.675-3.237-1.5-3.922c-1.266-1.051-1.5-.849-1.5 1.296M46.342 62.75c-1.311 5.182-.97 10.75.658 10.75 1.156 0 1.568-1.548 1.796-6.75.303-6.926-1.124-9.254-2.454-4m100.53-1c-1.243 1.586-1.208 1.621.378.378 1.666-1.307 2.195-2.128 1.372-2.128-.207 0-.995.788-1.75 1.75m-90.059.933c.721.289 1.584.253 1.916-.079s-.258-.568-1.312-.525c-1.165.048-1.402.285-.604.604m3.937.979c.688.278 1.813.278 2.5 0 .688-.277.125-.504-1.25-.504s-1.937.227-1.25.504m-5.111 2.032C54.513 66.82 54.954 68 56.5 68c.825 0 1.5-.423 1.5-.941 0-1.261-1.562-2.164-2.361-1.365M77 65.395c0 1.811 3.194 6.438 6.668 9.659 6.381 5.918 8.179 6.797 2.578 1.261C83.361 73.463 81 70.495 81 69.72c0-.776-.9-2.225-2-3.22s-2-1.493-2-1.105M78 80c-1.1 1.1-2 2.48-2 3.066C76 85.352 78.165 88 80.035 88c1.081 0 1.972.563 1.98 1.25.011.888.274.843.905-.155.588-.928 3.808-1.637 9.489-2.088 4.73-.375 8.936-1.021 9.346-1.434s-.83-.509-2.755-.212-6.907.799-11.072 1.115c-6.849.52-7.755.373-9.491-1.545-1.902-2.103-1.895-2.14.878-4.526C80.853 79.082 81.636 78 81.056 78S79.1 78.9 78 80m31 4c0 .55.45 1 1 1s1-.45 1-1-.45-1-1-1-1 .45-1 1m17.924 1.75L124.5 88.5l2.75-2.424c2.57-2.266 3.209-3.076 2.424-3.076-.179 0-1.416 1.237-2.75 2.75m-56.714 1c-1.997 2.85-6.214 13.409-6.205 15.538.003.666 1.015 2.346 2.25 3.733s1.907 2.084 1.495 1.55c-1.417-1.835-.703-7.084 2.084-15.321C71.37 87.713 72.516 84 72.381 84s-1.112 1.237-2.171 2.75M18 89.378c0 .207.788.995 1.75 1.75 1.586 1.243 1.621 1.208.378-.378C18.821 89.084 18 88.555 18 89.378m88.306 4.195-2.806 2.573 3.25-2.261c1.787-1.244 3.25-2.401 3.25-2.573 0-.789-1.106-.112-3.694 2.261m-29.699.009C75.702 95.94 75.76 96 78.95 96c1.623 0 3.31-.625 3.75-1.389.44-.763 1.7-1.611 2.8-1.884s-.314-.547-3.143-.611c-3.842-.087-5.297.284-5.75 1.466m62.634 2.668c-1.604 1.712-1.87 2.674-1.112 4.023.942 1.677 1.156 1.66 3.91-.301 2.531-1.802 2.754-2.331 1.697-4.023-1.542-2.469-1.924-2.444-4.495.301m3.28 5c-2.423 2.104-2.49 2.393-1.039 4.444 1.493 2.109 1.663 2.129 4.448.531 2.77-1.59 2.833-1.782 1.457-4.443-.791-1.53-1.627-2.782-1.857-2.782s-1.584 1.013-3.009 2.25M44.5 102c.34.55.816 1 1.059 1s.441-.45.441-1-.477-1-1.059-1-.781.45-.441 1m-3.687.683c.721.289 1.584.253 1.916-.079s-.258-.568-1.312-.525c-1.165.048-1.402.285-.604.604m121.456 2.01c.973.254 2.323.237 3-.037s-.119-.481-1.769-.461-2.204.244-1.231.498M79.158 112c0 1.375.227 1.938.504 1.25.278-.687.278-1.812 0-2.5-.277-.687-.504-.125-.504 1.25m-18.851 3.501c-.566 2.475-.682 4.499-.256 4.499.843 0 2.419-7.864 1.716-8.566-.237-.237-.894 1.593-1.46 4.067M50.5 115c-.34.55-.141 1 .441 1S52 115.55 52 115s-.198-1-.441-1-.719.45-1.059 1m87.75.989c-4.515 2.753-4.093 3.426.5.797 4.62-2.645 4.806-2.787 3.667-2.782-.505.002-2.38.895-4.167 1.985m4.044.948c-3.678 1.74-8.566 5.274-12 8.676-3.187 3.157-6.115 5.666-6.508 5.576s-.457.505-.143 1.323c1.017 2.651 3.183 1.602 9.249-4.484 3.274-3.284 8.758-7.784 12.186-10 7.319-4.731 6.002-5.247-2.784-1.091m-12.841 6.313-3.953 4.25 4.25-3.953c3.952-3.676 4.71-4.547 3.953-4.547-.163 0-2.076 1.912-4.25 4.25m-91.488.682c2.018 3.955 4.035 6.047 4.035 4.184 0-1.604-4.107-8.116-5.119-8.116-.507 0-.019 1.769 1.084 3.932m-13.088-1.584c-1.301.951-1.365 1.407-.331 2.373.993.927 1.51.917 2.309-.047 1.59-1.915.006-3.777-1.978-2.326M46 123c-1.177.761-.962.947 1 .866 1.375-.056 3.85-.446 5.5-.866 2.89-.735 2.853-.767-1-.866-2.2-.057-4.675.333-5.5.866m7 3.5c-3.747 1.443-2.247 1.899 2.875.875 1.719-.344 3.125-1.019 3.125-1.5 0-1.179-1.803-.991-6 .625m19.642 2.25c-.917 5.545-.773 9.25.358 9.25.564 0 1-2.833 1-6.5 0-3.575-.166-6.5-.369-6.5s-.648 1.688-.989 3.75m-45.181.293c-1.62 1.791-1.64 1.963-.155 1.393.983-.377 1.694-.17 1.694.492 0 .825.545.851 1.963.092 1.153-.618 1.728-1.663 1.393-2.535-.795-2.07-2.714-1.851-4.895.558m-3.382 5.54c.048 1.165.285 1.402.604.605.289-.722.253-1.585-.079-1.917s-.568.258-.525 1.312m8.623-.952c-.347.348-.166 1.502.403 2.565.802 1.5 1.342 1.678 2.405.795.754-.625 1.125-1.779.824-2.564-.566-1.475-2.524-1.904-3.632-.796m113.219 1.964c-1.66 2-.109 4.772 2.921 5.223 1.5.224 2.488-.448 3.309-2.25.643-1.412 1.548-2.568 2.01-2.568a.84.84 0 0 0 .839-.836c0-1.578-7.716-1.211-9.079.431m-129.542.784c.127.86.509 1.842.85 2.184.342.341.518-.083.392-.942-.127-.86-.509-1.842-.85-2.184-.342-.341-.518.083-.392.942m64.7.204c.048 1.165.285 1.402.604.605.289-.722.253-1.585-.079-1.917s-.568.258-.525 1.312m44.671.637c-3.14 1.081-3.673 2.78-.872 2.78 1.754 0 4.882-2.638 4.015-3.387-.216-.187-1.63.087-3.143.607m-63.804 3.521c-2.013 2.185-2.334 2.765-.77 1.395 1.472-1.29 3.159-2.047 3.75-1.682.633.391 1.074-.182 1.074-1.395 0-1.132-.137-2.059-.304-2.059s-1.854 1.683-3.75 3.741m-23.929-1.262c-1.009 1.216-1.051 1.887-.175 2.763 1.691 1.691 3.668-.508 2.437-2.709-.852-1.521-1.041-1.525-2.262-.054M28 140.441c0 .793.408 1.693.907 2.001.498.309.671-.34.383-1.441-.611-2.335-1.29-2.63-1.29-.56m84.25 1.375c-2.338 1.464-4.25 3.033-4.25 3.487 0 .993 7.67-3.2 9.179-5.019 1.648-1.985-.258-1.392-4.929 1.532m-37.044-.075c3.689.191 9.989.193 14 .002 4.012-.19.994-.347-6.706-.348s-10.982.154-7.294.346m-41.76 2.346c-.369.598-.267 1.492.227 1.986.531.531.898.087.898-1.087 0-2.273-.185-2.42-1.125-.899m32.633.496c.048 1.165.285 1.402.604.605.289-.722.253-1.585-.079-1.917s-.568.258-.525 1.312m51.871.674c-1.897 1.162-3.572 2.19-3.721 2.283s.075 1.079.5 2.191c.741 1.942.959 1.893 5.621-1.266 4.368-2.961 4.661-3.389 2.95-4.304-1.448-.775-2.721-.514-5.35 1.096m-45.95.16c0 .87.713 1.583 1.583 1.583.871 0 1.406-.534 1.188-1.187-.618-1.855-2.771-2.162-2.771-.396m-9.306 2.222c-.799.799.104 2.361 1.365 2.361.518 0 .941-.675.941-1.5 0-1.546-1.18-1.987-2.306-.861m4.385 2.944c.048 1.165.285 1.402.604.605.289-.722.253-1.585-.079-1.917s-.568.258-.525 1.312m22.227.832c-1.543 1.328-2.581 2.575-2.306 2.77s1.794-.892 3.376-2.415c3.538-3.408 2.772-3.662-1.07-.355m19.125-.303c-.754 1.22 1.492 3.054 2.771 2.263.439-.271.798-1.141.798-1.934 0-1.697-2.577-1.935-3.569-.329M53 152.886a2671 2671 0 0 1-8.841 6.388l-6.341 4.567 2.784 1.458c2.701 1.415 3.007 1.293 10.341-4.13 4.156-3.074 7.711-5.686 7.898-5.804.188-.118.045-1.148-.317-2.29-.804-2.531-2.243-2.581-5.524-.189m40.694-.247c-.352.352-.412 1.008-.135 1.457.624 1.009 3.441.024 3.441-1.203 0-1.026-2.353-1.207-3.306-.254M123 155.202c-1.925 1.193-3.654 2.276-3.842 2.408s.053.944.534 1.804c.764 1.365 1.345 1.246 4.556-.936 2.385-1.621 3.479-3.025 3.109-3.99-.69-1.797-.165-1.883-4.357.714M113.5 161c-.34.55-.403 1-.141 1 .263 0 1.189.273 2.059.607 1.038.398 1.582.055 1.582-1 0-1.764-2.515-2.2-3.5-.607m-83.053.915c.311.503.101 1.144-.466 1.425-.567.28-.485.403.182.273 1.585-.311 2.345-2.613.861-2.613-.628 0-.888.412-.577.915m97.804 3.199c-1.787 1.145-2.985 2.507-2.664 3.027.639 1.034 6.656-2.37 7.229-4.09.531-1.591-.965-1.242-4.565 1.063"/><path fill-opacity=".335" fill-rule="evenodd" d="M94 15.935c-12.909 3.941-26 18.462-26 28.841 0 2.629-1.973 10.312-3.595 13.998-.066.151-2.633-.38-5.703-1.179-3.071-.8-7.57-1.753-9.997-2.117l-4.414-.662-1.765 4.342c-1.21 2.976-1.742 6.858-1.691 12.342.107 11.61.876 13.467 7.04 17 5.148 2.95 10.623 9.885 9.386 11.887-.314.507-.083.621.512.253 1.456-.9 2.657 3.137 1.389 4.665-.552.665-1.629 3.681-2.393 6.702L55.38 117.5l-5.882.638c-5.005.543-6.3.329-8.688-1.436-2.631-1.946-3.007-1.978-6.058-.524-1.846.88-4.658 1.343-6.506 1.072-2.772-.407-3.845.114-7.25 3.518-4.284 4.284-5.182 8.228-2.66 11.677 1.088 1.488 1.105 2.498.09 5.446-1.5 4.352-.574 10.606 2.222 15.023 2.139 3.377 7.989 8.086 10.046 8.086 1.963 0 1.572 1.701-.769 3.34-1.963 1.375-1.381 1.813 10.75 8.103l12.825 6.65 28.56-5.542c30.853-5.986 32.49-6.024 34.871-.801.929 2.036 2.858 2.83 5.56 2.288.545-.109 3.314.59 6.152 1.555 4.915 1.671 5.377 1.671 9.74.005 4.126-1.576 12.617-9.426 12.617-11.665 0-.433 2.588-2.252 5.75-4.044 8.232-4.665 19.274-16.007 23.245-23.876 4.124-8.174 5.087-16.89 2.589-23.432-2.009-5.26-9.028-12.08-13.428-13.047-3.996-.877-9.649-8.534-6.301-8.534.471 0 3.818-2.714 7.438-6.031 15.574-14.272 16.981-30.555 3.368-38.995-2.766-1.715-3.16-1.676-15.5 1.554-6.963 1.823-14.63 4.025-17.037 4.893-5.446 1.965-5.123 2.008-5.128-.671-.002-1.237-.826-3.6-1.832-5.25s-2.142-4.954-2.523-7.342c-2.216-13.864-15.871-25.304-29.929-25.072-2.866.047-6.337.429-7.712.849m.057 4.395c-3.512.925-5.132 2.134-7.737 5.772l-3.295 4.602 5.174-.497c4.214-.405 5.65-1.063 7.738-3.545C99.303 22.66 102.188 20 103.162 20c.432 0-1.228 2.013-3.688 4.474-2.461 2.46-4.474 5.003-4.474 5.65s1.274-.579 2.831-2.724 4.041-4.543 5.519-5.329c5.249-2.791-.916-3.946-9.293-1.741M78.541 31.134C72.292 38.56 69.452 49.889 71.804 58l1.016 3.5.105-5c.117-5.547 1.237-8.136 3.037-7.023.877.541.866.22-.042-1.233-1.681-2.692.268-10.251 4.111-15.945 3.365-4.986 2.376-5.759-1.49-1.165m8.209 5.528c.688.278 1.813.278 2.5 0 .688-.277.125-.504-1.25-.504s-1.937.227-1.25.504m-2.129 2.859c-.891.892-1.621 2.715-1.621 4.05 0 3.127 3.861 3.345 6.553.37 3.292-3.638-1.457-7.894-4.932-4.42m21.784 6.634c-.456.736-.273.882.504.402.685-.424 2.172.054 3.404 1.095L112.5 49.5l-1.905-2.25c-2.136-2.523-3.145-2.787-4.19-1.095m-22.964 3.29C84.509 50.3 85.821 51 86.358 51c1.27 0 .703-.462-2.358-1.92-2.357-1.122-2.389-1.102-.559.365m35.226.222c-1.025 1.025-.79 5.139.333 5.833.55.34 1.029.029 1.063-.691s.495-.231 1.022 1.086c1.162 2.906 1.839 2.374 2.886-2.266.936-4.15.111-5.585-1.49-2.593-1.063 1.986-1.201 2.004-2.552.34-.902-1.11-.968-1.483-.179-1.009.688.413 1.25.274 1.25-.308 0-1.187-1.317-1.409-2.333-.392M80 54.5c1.866 1.925 3.617 3.5 3.892 3.5S82.866 56.425 81 54.5 77.383 51 77.108 51s1.026 1.575 2.892 3.5m45 .512c0 4.269 2.203 6.507 3.382 3.436.399-1.041.188-1.322-.643-.853-.967.545-.964.402.011-.648 1.742-1.877 1.567-2.631-.75-3.237-1.46-.382-2-.03-2 1.302m48.289-.398c1.75 2.084 1.721 2.123-2.007 2.738-2.656.439-4.091.211-4.819-.763-.882-1.181-1.524-1.183-4.318-.008-4.716 1.983-9.263 5.418-8.598 6.495.314.508.143.924-.381.924-1.542 0-2.294 3.141-1.097 4.583.607.731.77 1.869.363 2.528-.471.76-.317.936.421.48.638-.395 1.852-2.054 2.697-3.687.844-1.633 1.938-2.72 2.431-2.416s1.342-.243 1.887-1.217 1.248-1.659 1.562-1.521c1.338.587 2.644.178 2.123-.665-.642-1.037 6.492-3.884 10.791-4.306l2.844-.279-2.837-2.5c-2.027-1.786-2.33-1.897-1.062-.386M69.067 58c-.052 3.052 3.006 10 4.401 10 .274 0-.321-1.463-1.323-3.25-1.001-1.788-1.655-3.739-1.454-4.336s-.068-2.172-.599-3.5c-.901-2.254-.969-2.182-1.025 1.086m29.183-.407C96.463 58.997 95 60.69 95 61.357s-1.271 1.963-2.825 2.88c-2.705 1.599-2.916 1.577-5-.506-1.96-1.961-2.175-1.997-2.175-.37 0 2.741-2.456 1.354-2.806-1.584-.169-1.413-1.091-3.279-2.05-4.147-1.643-1.487-1.709-1.264-1.144 3.87.576 5.229.526 5.381-1.227 3.794-1.756-1.589-1.773-1.525-.445 1.634 1.54 3.663 5.234 7.873 10.293 11.732l3.36 2.563 4.759-2.479c5.155-2.683 7.222-5.586 7.245-10.171.011-2.063.975-3.737 3.265-5.668 2.615-2.205 3.006-2.991 2-4.023-1.014-1.039-1.25-.982-1.25.303 0 .872-1.101 2.306-2.446 3.187l-2.445 1.603-.305-4.467-.304-4.466zm43.795.267c-8.6 3.179-12.44 6.528-15.602 13.604-3.821 8.551-3.81 10.32.025 4.036 5.341-8.752 9.071-12.179 18.032-16.565 9.291-4.548 8.214-5.019-2.455-1.075m9.59.232c-4.054 2.546-5.36 4.168-7.832 9.731-2.416 5.436-3.963 7.398-8.321 10.555-2.945 2.134-6.62 5.231-8.168 6.884s1.077-.03 5.833-3.739c7.689-5.997 8.945-7.446 11.344-13.089 2.238-5.267 3.531-6.881 7.603-9.494 2.698-1.732 4.906-3.327 4.906-3.544 0-.639-.265-.506-5.365 2.696m-21.071.615c-.542 1.425-.428 1.54.56.56.684-.679.991-1.486.683-1.793-.308-.308-.867.247-1.243 1.233m-84.011 2.208c-.311.503-.852 3.653-1.202 7-.594 5.684-.5 6.085 1.424 6.085 1.853 0 2.094-.706 2.393-7.002.234-4.937-.019-7.002-.859-7-.655.001-1.445.414-1.756.917m7.92 1.041c.265.43 2.18 1.065 4.255 1.412s4.897.923 6.272 1.279c1.375.357 2.254.373 1.952.036-.849-.949-13.024-3.609-12.479-2.727m56.626 1.439c-1.237 1.316-1.866 2.631-1.397 2.921.468.289 1.606-.788 2.528-2.395 2.036-3.547 1.807-3.653-1.131-.526M55 66.5c0 .825.675 1.5 1.5 1.5s1.5-.675 1.5-1.5-.675-1.5-1.5-1.5-1.5.675-1.5 1.5m105.521.466c-.356.577.168 1.338 1.166 1.693s2.556 1.281 3.464 2.058c2.02 1.73 3.257.176 1.567-1.969-1.596-2.026-5.375-3.113-6.197-1.782m-51.442 2.617c.048 1.165.285 1.402.604.605.289-.722.253-1.585-.079-1.917s-.568.258-.525 1.312M89.75 71.706c1.237.238 3.263.238 4.5 0 1.237-.239.225-.434-2.25-.434s-3.487.195-2.25.434m82.198 4.044c-1.757 2.612-2.351 3.993-1.321 3.067 1.966-1.766 5.836-7.817 5-7.817-.267 0-1.923 2.138-3.679 4.75M70.507 72.989c-.35.566.051.734.941.393 1.732-.665 2.049-1.382.611-1.382-.518 0-1.216.445-1.552.989m83.053.914c-.307.496.904 1.479 2.691 2.185 1.787.705 3.587 1.461 3.999 1.68s.75-.298.75-1.149c0-2.648-6.105-4.877-7.44-2.716m-85.481 1.68c.048 1.165.285 1.402.604.605.289-.722.253-1.585-.079-1.917s-.568.258-.525 1.312m10.574 3.476C74.565 82.274 75.556 88 80.2 88c.99 0 1.807.563 1.815 1.25.013.997.176.998.807.004.458-.722 4.136-1.518 8.735-1.891C98.46 86.802 107 84.088 107 82.454c0-.278-1.434.236-3.186 1.142-3.947 2.041-22.725 3.719-24.564 2.195-1.926-1.596-1.485-4.513.94-6.211 1.204-.844 1.948-1.776 1.652-2.071-.295-.295-1.73.402-3.189 1.55m-11.574.524c.048 1.165.285 1.402.604.605.289-.722.253-1.585-.079-1.917s-.568.258-.525 1.312M47 80.711c0 .574.788 1.662 1.75 2.417 1.619 1.269 1.64 1.222.283-.628-.807-1.1-1.594-2.187-1.75-2.417s-.283.054-.283.628m78.636.783c.316.822.984 1.241 1.485.931 1.049-.648.207-2.425-1.149-2.425-.5 0-.651.672-.336 1.494m-55.159 4.947C67.687 90.1 64 98.841 64 101.799c0 .977 1.382 3.335 3.072 5.239 1.728 1.947 2.384 2.38 1.5.989-2.614-4.111-1.97-5.726 1.178-2.951l2.75 2.424-2.25-2.564c-1.237-1.411-2.245-3.436-2.239-4.5.014-2.61 2.461-10.514 4.436-14.334 2.109-4.077 1.292-3.937-1.97.339M109 84c0 .55.45 1 1 1s1-.45 1-1-.45-1-1-1-1 .45-1 1m13.252 4.5c.011 2.2.216 2.982.455 1.738s.23-3.044-.02-4-.446.062-.435 2.262m-49.173 3.083c.048 1.165.285 1.402.604.605.289-.722.253-1.585-.079-1.917s-.568.258-.525 1.312m20.734.1c.721.289 1.584.253 1.916-.079s-.258-.568-1.312-.525c-1.165.048-1.402.285-.604.604m12.956 1.064c-2.513 1.558-6.489 9.866-5.294 11.061.506.506 2.525-4.27 2.525-5.972 0-.568 1.398-2.339 3.106-3.935 3.556-3.321 3.495-3.53-.337-1.154m-30.162.835C75.407 96.709 75.98 98 78.566 98c3.292 0 6.107-1.521 7.446-4.023C87 92.132 86.741 92 82.142 92c-3.571 0-5.095.435-5.535 1.582m66.893-.102c-1.65.72-3.84 1.952-4.867 2.737-1.768 1.352-1.779 1.599-.212 4.63.91 1.761 1.585 3.753 1.499 4.427-.378 2.957.229 4.207 1.08 2.226.772-1.796.867-1.815.93-.182.065 1.697.267 1.678 3.026-.287 1.625-1.157 4.287-2.568 5.914-3.136 2.923-1.018 2.939-1.065 1.339-3.853-1.563-2.724-3.799-3.041-5.334-.758-.361.538-.931.434-1.351-.245-.444-.718.089-1.387 1.375-1.723 2.349-.614 2.747-2.535.851-4.108-.873-.725-2.155-.643-4.25.272m-71.421 2.103c.048 1.165.285 1.402.604.605.289-.722.253-1.585-.079-1.917s-.568.258-.525 1.312M159 99c.589 1.1 1.295 2 1.57 2s.019-.9-.57-2-1.295-2-1.57-2-.019.9.57 2m-17.441 1.532c-1.068.807-1.46 1.468-.873 1.468.588 0 1.629-.675 2.314-1.5 1.557-1.876 1.067-1.866-1.441.032m-68.126.359c.713 1.154 4.567 3.483 4.567 2.759 0-.231-1.18-1.193-2.623-2.139s-2.318-1.224-1.944-.62M160 104.558c3.716.809 8.814.951 8.371.233-.269-.435-2.6-.739-5.18-.675s-4.016.263-3.191.442m-81.61 5.644.641 3.202-3.266-2.95-3.265-2.95 3.167 3.498c1.742 1.924 3.368 4.623 3.614 5.998s.508-.312.583-3.75c.088-4.044-.261-6.25-.989-6.25-.732 0-.902 1.117-.485 3.202m72.423-1.519c.721.289 1.584.253 1.916-.079s-.258-.568-1.312-.525c-1.165.048-1.402.285-.604.604m12.437.006c.963.252 2.537.252 3.5 0 .963-.251.175-.457-1.75-.457s-2.713.206-1.75.457m-98.25.694c0 1.073 2.975 6.617 3.551 6.617.275 0-.243-1.463-1.152-3.25-1.857-3.65-2.399-4.411-2.399-3.367m-4.75 5.867c-.575 2.813-.51 4.497.191 4.981 1.408.972 3.816-4.845 3.031-7.32-.994-3.133-2.298-2.186-3.222 2.339m47.622-1.5c-1.243 1.586-1.208 1.621.378.378 1.666-1.307 2.195-2.128 1.372-2.128-.207 0-.995.787-1.75 1.75m30.628 2.166c-2.75 1.594-6.8 4.831-9 7.193-2.2 2.363-3.213 3.7-2.25 2.971s1.75-.875 1.75-.325c0 1.06-1.834 2.85-3.493 3.41-.546.184-.863.904-.703 1.598.159.695-.404 1.53-1.251 1.855-.848.325-1.303.977-1.012 1.449 1.058 1.711 5.971-1.299 12.972-7.949 3.964-3.766 10.014-8.252 13.57-10.063 6.103-3.109 6.221-3.236 2.417-2.593-5.663.956-13.453 4.68-17.829 8.522-2.056 1.805-3.969 3.052-4.251 2.77-.671-.671 6.174-6.067 11.714-9.234 2.401-1.373 3.916-2.497 3.366-2.499-.55-.001-3.25 1.302-6 2.895m24.1-.242c.605.454 1.385 1.501 1.732 2.326.445 1.054.564.93.4-.417-.127-1.055-.907-2.101-1.732-2.326-.965-.263-1.107-.114-.4.417M69 117.378c0 .207.787.995 1.75 1.75 1.586 1.243 1.621 1.208.378-.378-1.307-1.666-2.128-2.195-2.128-1.372m44 .681c0 .582.45.781 1 .441s1-.816 1-1.059-.45-.441-1-.441-1 .477-1 1.059m-76.988 1.933c-1.157.716-1.083 1.523.45 4.925 1.556 3.449 2.211 4 4.309 3.62 3.239-.588 3.906-1.34 1.878-2.118-.901-.346-1.408-1-1.127-1.455.916-1.482-3.991-5.91-5.51-4.972m72.912 2.758-2.424 2.75 2.75-2.424c2.57-2.266 3.209-3.076 2.424-3.076-.179 0-1.416 1.237-2.75 2.75m-84.746-.089c-.923.701-1.341 1.29-.928 1.307.413.018-.14.922-1.227 2.009-1.206 1.206-1.726 2.633-1.333 3.659.548 1.428.995 1.243 2.965-1.228 1.275-1.599 2.887-2.928 3.582-2.953s1.173-.521 1.062-1.102c-.115-.608.841-.858 2.25-.588 1.348.257 2.451.015 2.451-.539 0-1.56-6.93-2.004-8.822-.565M122 121.76c0 .418-1.143 1.993-2.54 3.5s-2.126 2.74-1.619 2.74 2.123-1.575 3.591-3.5 2.197-3.5 1.619-3.5-1.051.342-1.051.76M46 123c-1.141.737-.781.945 1.5.866 1.65-.056 4.35-.446 6-.866 2.736-.696 2.604-.772-1.5-.866-2.475-.057-5.175.333-6 .866m27-.622c0 .207.787.995 1.75 1.75 1.586 1.243 1.621 1.208.378-.378-1.307-1.666-2.128-2.195-2.128-1.372m-21.5 4.645c-2.2 1.106-3.176 1.778-2.168 1.493 1.007-.284 3.857-.516 6.333-.516 3.154 0 4.378-.374 4.09-1.25-.659-2.002-3.944-1.893-8.255.273m21.121 1.121c-.341 1.708-.621 4.625-.621 6.481V138h19.923l1.14-4.25c.627-2.338 1.363-4.615 1.635-5.061.273-.447-2.638.766-6.468 2.695l-6.964 3.507-1.885-2.195a161 161 0 0 1-4.012-4.927l-2.127-2.731zm-45.943 1.919c-2.942 3.437-3.415 4.561-2.576 6.127.971 1.815 1.142 1.768 3.203-.886 1.198-1.542 3.082-3.562 4.186-4.489 1.848-1.551 1.88-1.817.4-3.324-1.487-1.513-1.883-1.318-5.213 2.572M177.5 127c.34.55.816 1 1.059 1s.441-.45.441-1-.477-1-1.059-1-.781.45-.441 1m-63.885 6.615c-.885 2.598-1.396 4.937-1.136 5.198.261.26.67-.154.909-.92.24-.766.928-2.928 1.528-4.805 1.691-5.279.516-4.803-1.301.527m60.649-1.506c-.68 1.901-3.493 6.257-6.25 9.679-6.238 7.741-6.528 10.444-.408 3.792 5.258-5.715 8.645-11.839 8.203-14.831-.249-1.688-.551-1.422-1.545 1.36m-31.191 1.526c-1.412 1.794-2.03 3.947-1.939 6.75l.133 4.115.656-4.688c.36-2.579 1.495-5.616 2.521-6.75s1.604-2.062 1.284-2.062-1.516 1.186-2.655 2.635m-111.437 1.81c-3.535 3.836-4.421 5.954-2.886 6.898.413.254 2.371-1.182 4.352-3.191 2.716-2.753 3.426-4.144 2.886-5.652-.657-1.835-1.016-1.675-4.352 1.945m114.001-.939c-3.705 3.705-2.594 9.494 1.821 9.494 5.456 0 11.3-8.728 6.96-10.393-2.84-1.09-7.243-.639-8.781.899m-21.689 3.335c-2.242 1.815-2.245 1.848-.223 2.377 1.285.336 3.12-.339 4.913-1.805l2.862-2.341-2.639-.036c-1.452-.02-3.662.792-4.913 1.805m-61.698 2.212c-4.031 3.62-4.235 4.785-.355 2.021 2.536-1.805 2.971-1.866 3.5-.486.333.867.605 2.622.605 3.9 0 1.832-.424 2.214-2 1.802-1.391-.364-2-.031-2 1.093 0 1.9 2.088 2.129 3.8.417.933-.933 1.2-.835 1.2.443 0 .904-1 2.344-2.223 3.2S63.019 154 63.586 154c.568 0 1.828-.582 2.8-1.293 1.629-1.191 1.664-1.858.442-8.434l-1.328-7.139zm-26.243 1.44c-2.668 2.752-3.141 3.773-2.19 4.724 1.793 1.793 7.792-4.306 6.503-6.61-.782-1.397-1.387-1.133-4.313 1.886m76.243.073c-2.743 1.644-4.25 3.259-4.25 4.555 0 1.978.056 1.975 3.897-.183 2.143-1.205 4.384-3.259 4.979-4.564 1.366-2.999.649-2.969-4.626.192m-35.951.179c4.84.184 12.49.183 17-.002 4.511-.185.551-.335-8.799-.334s-13.04.153-8.201.336M69.158 145c0 1.375.227 1.938.504 1.25.278-.687.278-1.812 0-2.5-.277-.687-.504-.125-.504 1.25m48.592.245c-4.065 2.329-4.337 3.069-2.407 6.548l1.273 2.292 2.554-2.292c1.404-1.261 3.352-2.759 4.327-3.329 2.389-1.397 2.39-2.464.003-4.043-1.72-1.138-2.526-1.022-5.75.824M27 144.378c0 .207.788.995 1.75 1.75 1.586 1.243 1.621 1.208.378-.378-1.307-1.666-2.128-2.195-2.128-1.372m44.446.709c-1.03 1.668 1.287 3.58 2.667 2.2C75.267 146.133 74.545 144 73 144c-.485 0-1.184.489-1.554 1.087m70.554.814c0 1.102 4.814 4.654 5.399 3.984.186-.212-.953-1.432-2.531-2.711-1.577-1.279-2.868-1.852-2.868-1.273m17.241 4.628c-2.426 3.728-1.671 4.708 1.192 1.545.958-1.059 1.59-2.621 1.405-3.471-.232-1.061-1.045-.458-2.597 1.926m-67.882-.606c-1.727 1.053-3.454 2.421-3.836 3.04-.797 1.29 1.168 4.053 2.849 4.005.621-.017.228-.731-.872-1.587l-2-1.555 2-1.369c6.337-4.34 7.565-6.013 1.859-2.534m17.612.954c-1.359 1.131-1.908 2.071-1.221 2.09.688.018 1.138.578 1 1.245-.143.695.894 1.247 2.433 1.295 1.475.046 2.439-.309 2.142-.79-.297-.48-.842-2.004-1.211-3.385l-.672-2.511zm-82.466.975c2.345 2.772 6.659 5.166 9.195 5.104.99-.024.07-.661-2.045-1.415s-5.036-2.421-6.493-3.706l-2.648-2.335zm20.995 4.759c-4.95 3.582-9.118 6.838-9.262 7.236-.144.399 2.173 1.919 5.15 3.379l5.412 2.654 5.331-3.978c2.933-2.188 5.653-4.551 6.044-5.251.69-1.232-2.14-10.701-3.167-10.602-.279.027-4.558 2.979-9.508 6.562M93 153.5c0 .833.889 1.5 2 1.5s2-.667 2-1.5-.889-1.5-2-1.5-2 .667-2 1.5m29.7 1.779c-4.158 2.376-4.251 2.586-2.306 5.245 1.369 1.873 1.455 1.872 5-.037 3.872-2.085 4.258-3.046 2.274-5.655-1.174-1.544-1.544-1.51-4.968.447m26.535 4.623c-2.895 2.971-5.11 5.556-4.922 5.744.577.577 8.644-6.698 9.78-8.82 1.761-3.291.68-2.606-4.858 3.076m-34.697.446c-1.973 1.443-1.356 3.652 1.021 3.652.87 0 1.441-.99 1.441-2.5 0-2.908-.036-2.925-2.462-1.152m13.046 4.995c-1.964 1.572-2.533 2.57-1.743 3.059 1.254.775 7.159-2.912 7.159-4.47 0-1.626-2.402-1.001-5.416 1.411"/><path fill-opacity=".49" fill-rule="evenodd" d="M92.423 16.759C78.932 21.586 68.076 34.68 68.022 46.191c-.012 2.58-.421 4.938-.909 5.239-.487.301-1.191 2.17-1.562 4.152-.608 3.241-.929 3.54-3.183 2.974-11.647-2.923-17.659-3.705-18.498-2.406-2.645 4.1-3.558 12.262-2.422 21.659.819 6.784 2.382 9.05 7.786 11.288 1.932.8 4.572 3.629 7.305 7.828 3.616 5.554 4.077 6.808 2.966 8.075-.723.825-1.898 4.04-2.612 7.144l-1.299 5.645-6.047.472c-3.967.309-6.563.047-7.547-.764-2.369-1.952-4.306-2.287-7-1.212-1.375.549-4.429 1.091-6.787 1.205-7.757.374-13.068 8.085-9.918 14.399.879 1.763 1.113 3.438.593 4.259-1.321 2.084-1.044 10.543.463 14.15 1.599 3.826 7.662 9.416 11.167 10.296 3.049.765 3.072 1.107.232 3.41-1.238 1.003-2.025 2.027-1.75 2.276s5.988 3.235 12.695 6.637l12.195 6.186 28.15-5.593c24.88-4.944 28.487-5.444 31.055-4.308 1.598.708 2.905 1.594 2.905 1.971 0 1.615 3.353 3.828 5.821 3.842 1.474.008 4.512.653 6.753 1.434 7.347 2.56 14.723-.66 20.395-8.904 1.851-2.69 5.155-5.549 8.752-7.572 3.179-1.788 8.757-6.275 12.397-9.971 10.994-11.163 15.813-24.17 12.922-34.87-1.532-5.668-9.37-13.728-14.239-14.642-2.557-.479-3.902-1.522-5.29-4.099l-1.862-3.457 2.426-1.623c4.388-2.936 13.723-12.994 15.721-16.94 4.916-9.709 4.118-17.509-2.463-24.091-4.442-4.441-4.594-4.503-9.497-3.853-4.305.571-25.255 6.2-29.95 8.048-1.224.481-1.771-.151-2.265-2.618-.357-1.789-1.389-4.38-2.292-5.758s-1.797-4.233-1.987-6.346c-.714-7.927-8.22-17.579-16.961-21.811-6.224-3.013-15.453-3.51-21.958-1.183m1.29 3.452c-2.691.714-4.788 2.317-7.25 5.541-1.904 2.494-3.464 4.808-3.465 5.142-.001.333 2.924.455 6.5.271C93.074 30.98 96 30.417 96 29.914c0-1.519 8.12-8.909 9.871-8.984 1.256-.054 1.171-.268-.371-.93-2.608-1.121-7.067-1.041-11.787.211m4.414 4.267C95.857 26.94 94 29.293 94 29.706s1.378-.922 3.062-2.965 4.034-4.395 5.222-5.227S103.952 20 103.35 20s-2.953 2.015-5.223 4.478m20.274 3.701c3.99 3.289 7.539 9.645 7.577 13.571.012 1.237.528 2.25 1.147 2.25 1.399 0 .53-4.817-1.727-9.574C123.677 30.8 117.733 25 115.737 25c-.656 0 .543 1.431 2.664 3.179m-39.112 2.086c-4.97 5.231-7.555 11.417-8.037 19.235-.237 3.85.031 8.125.595 9.5.902 2.198 1.034 1.889 1.09-2.55.098-7.82 1.342-7.997 7.975-1.134l5.813 6.014.477-3.251c.392-2.67.082-3.401-1.731-4.09-5.78-2.198-8.306-10.502-4.589-15.091 1.516-1.873 1.673-2.782.805-4.685-.799-1.754-.75-2.882.188-4.384 2.044-3.273.728-3.051-2.586.436m28.211 1.921c-1.1.619-3.72 2.469-5.823 4.112-3.064 2.393-3.706 3.452-3.233 5.335.812 3.237-1.619 8.59-5.071 11.162-1.58 1.178-2.284 2.156-1.564 2.173.72.018 1.034.477.698 1.021-1.001 1.619 2.763-.08 5.493-2.48 1.375-1.208 4.202-3.457 6.283-4.997l3.782-2.799 2.629 2.393c1.446 1.317 2.336 1.883 1.979 1.259-.779-1.362 1.067-7.234 2.969-9.444 1.961-2.279 1.679-4.271-.956-6.747-2.58-2.423-4.232-2.65-7.186-.988m-24.277 5.371C82 38.413 81 39.616 81 40.231s1.042.139 2.314-1.057C86.202 36.462 89.398 36.398 92 39c1.1 1.1 2 1.523 2 .941s.563-.735 1.25-.34c.688.396.95.385.583-.024-.366-.409-1.041-.759-1.5-.779-.458-.019-1.721-.657-2.806-1.416-2.587-1.813-5.557-1.75-8.304.175m.185 2.943c-1.517 2.316-1.517 2.684 0 5 1.689 2.577 4.786 3.469 4.342 1.25-.138-.687.313-1.138 1-1s1.154-.088 1.038-.5c-.117-.413.338-1.744 1.012-2.958 1.052-1.895.95-2.356-.722-3.25-3.066-1.641-4.902-1.24-6.67 1.458M81 46.788c0 1.61 4.649 4.515 6.218 3.885.819-.329.665-.544-.429-.594-.941-.043-2.629-1.064-3.75-2.268S81 46.147 81 46.788m9.559 1.744c-1.068.807-1.46 1.468-.873 1.468.588 0 1.629-.675 2.314-1.5 1.557-1.876 1.067-1.866-1.441.032m32.927-.555c.186.301-.217 1.585-.895 2.853-1.108 2.07-1.368 2.143-2.554.715-1.143-1.378-1.066-1.496.572-.881 1.718.645 1.756.544.414-1.103-1.391-1.708-1.553-1.628-2.775 1.367-1.4 3.429-.841 5.513 1.261 4.707.8-.307 1.569.54 1.981 2.18.621 2.474.774 2.545 1.969.91 1.218-1.665 1.329-1.644 1.852.357.731 2.795 2.824 2.012 3.992-1.492 1.249-3.747-.678-8.354-2.768-6.619-.778.646-1.606 2.154-1.839 3.352-.377 1.937-.439 1.898-.56-.35-.075-1.391.497-3.432 1.271-4.536 1.255-1.792 1.209-2.008-.427-2.008-1.008 0-1.681.246-1.494.548m7.078 2.316c.376.986.935 1.541 1.243 1.233s.001-1.114-.683-1.793c-.988-.98-1.102-.865-.56.56m42.254 3.84 2.311 2.633-3.407.398c-1.969.23-3.913-.143-4.604-.883-1.627-1.741-1.88-1.685-7.852 1.74-6.52 3.739-9.152 7.331-7.411 10.118.667 1.068.893 2.487.502 3.152s1.54-.873 4.292-3.418 5.988-4.94 7.192-5.322c1.241-.394 1.894-1.17 1.509-1.793-.439-.712-.075-.866 1.038-.439.969.371 1.463.25 1.136-.28-.493-.798 1.841-1.461 8.3-2.356.766-.106-.074-1.445-1.997-3.183-2.743-2.479-2.918-2.543-1.009-.367m-58.668 2.162c-.105 2.654-.959 4.604-2.839 6.485-2.134 2.134-2.722 3.723-2.853 7.704-.157 4.798-.125 4.864.75 1.516.502-1.925 2.051-5.758 3.442-8.517 1.625-3.226 2.371-6.082 2.089-8-.392-2.659-.456-2.57-.589.812M69.114 57.5c-.064 2.392.69 5.306 1.875 7.25 2.228 3.654 3.732 4.466 1.887 1.019-.656-1.227-1.747-4.49-2.424-7.25L69.221 53.5zm6.892-.853c.004 1.569.679 4.142 1.5 5.717 1.891 3.626 1.883 4.203-.038 2.61-1.343-1.115-1.408-.946-.527 1.371 1.752 4.609 4.149 7.551 9.13 11.207 4.88 3.583 7.314 4.004 9.76 1.689.731-.693 1.744-1.004 2.25-.691.505.312.919.016.919-.658s.307-.918.683-.542c1.014 1.014 3.317-5.092 3.317-8.796 0-2.401.629-3.553 2.483-4.545 2.203-1.179 4.278-4.581 3.356-5.503-.189-.189-1.647-.671-3.24-1.071-2.067-.518-2.694-.398-2.189.419.389.63.263 1.146-.281 1.146-.545 0-1.141-1.013-1.327-2.25-.322-2.151-.5-2.09-4.036 1.367-2.035 1.989-3.939 3.376-4.233 3.083S93 61.417 93 62.333C93 63.25 92.325 64 91.5 64s-1.5.496-1.5 1.103-3.15-1.69-7-5.103c-6.911-6.127-7-6.17-6.994-3.353m68.405.219c-8.982 3.074-12.618 5.328-17.426 10.803-4.797 5.464-9.487 16.652-5.643 13.462.738-.612 1.638-.818 2-.456s.658.101.658-.58c0-.714.977-1.11 2.306-.936 3.818.5 14.769-8.403 17.305-14.069 1.508-3.37 3.486-5.628 6.922-7.904 5.847-3.873 4.47-3.945-6.122-.32m8.545.384c-4.661 2.777-5.938 4.235-8.767 10.014-2.533 5.175-4.53 7.664-8.501 10.597-2.855 2.109-5.807 4.578-6.562 5.487-1.707 2.057-4.004 2.133-4.762.158-1.122-2.924-2.363-.308-2.278 4.803.078 4.706.171 4.911.995 2.191.5-1.65.692-3.586.426-4.302s-.039-1.027.504-.691c.544.336 1.07 2.947 1.169 5.802l.18 5.191.372-4.665c.357-4.495.65-4.881 8.076-10.625 6.49-5.021 8.177-6.966 10.699-12.336 3.193-6.801 5.199-9.098 7.295-8.357.716.253 1.039.035.718-.485-.812-1.314 4.122-4.372 5.591-3.464.724.448.936.318.537-.328-.363-.588-.095-1.297.596-1.576.691-.278.786-.542.212-.585s-3.5 1.383-6.5 3.171M111.158 57c0 1.375.227 1.938.504 1.25.278-.687.278-1.812 0-2.5-.277-.687-.504-.125-.504 1.25m19.091 2.25c-1.075 2.938-1.048 3.064.281 1.309 1.272-1.68 2.023-4.559 1.189-4.559-.154 0-.816 1.462-1.47 3.25m-83.593 1.5c-1.088 1.769-1.804 10.413-1.172 14.155.592 3.506.882 3.872 2.102 2.652.952-.952 1.414-3.723 1.414-8.486 0-4.047.428-7.071 1-7.071.55 0 1-.45 1-1 0-1.157-3.656-1.367-4.344-.25m77.344.135c0 .897 3.005 2.443 3.598 1.851.171-.172-.568-.861-1.643-1.532-1.075-.672-1.955-.815-1.955-.319m-69.801 6.238L54.5 73.5l4.961 2.675c2.728 1.472 5.253 3.497 5.61 4.5.464 1.3.861.597 1.381-2.447.451-2.635 1.585-4.917 2.959-5.953l2.228-1.681-2.07-3.175c-1.647-2.527-3.192-3.43-7.569-4.424-3.025-.688-6.085-1.475-6.801-1.749-1.002-.385-1.232.965-1 5.877M50.195 65.5c.02 1.65.244 2.204.498 1.231s.237-2.323-.037-3-.481.119-.461 1.769m126.561.221c-.861 3.991-4.833 10.507-9.622 15.779-3.464 3.815-3.408 3.792 1.201-.5 5.336-4.968 9.966-12.971 9.449-16.333-.265-1.723-.475-1.507-1.028 1.054M160 67.5c-1.051 1.267-.848 1.5 1.305 1.5 1.564 0 3.352 1.019 4.622 2.635L168 74.27v-2.578c0-1.531-.903-3.211-2.223-4.135-2.784-1.951-4.194-1.964-5.777-.057m-89.133 5.011c-1.799.977-2.849 2.581-3.315 5.062-.374 1.997-.427 3.885-.116 4.196.31.31.564-.395.564-1.568 0-1.172 1.397-3.722 3.104-5.666 3.472-3.955 3.463-4.035-.237-2.024m18.883-.805c1.237.238 3.263.238 4.5 0 1.237-.239.225-.434-2.25-.434s-3.487.195-2.25.434m63.794 2.222c-.315.51.446 1.239 1.691 1.618 1.246.38 3.052 1.382 4.015 2.227 1.6 1.405 1.75 1.355 1.75-.583 0-3.13-5.933-5.726-7.456-3.262m-75.338 5.239C76.443 80.283 75 81.854 75 82.657s-.409 1.208-.909.899C71.775 82.125 64 96.381 64 102.06c0 1.092 1.848 3.99 4.107 6.44 3.259 3.536 4.466 4.264 5.847 3.525 2.294-1.228 4.046.554 4.046 4.116 0 1.508.45 3.019 1 3.359.584.361 1-.658 1-2.448 0-2.874.592-3.359 9.494-7.781 9.355-4.647 9.517-4.789 11.132-9.743.901-2.766 2.084-5.59 2.628-6.277.663-.837.574-2.251-.267-4.282-.691-1.668-1.083-3.166-.872-3.327.212-.162 2.073-1.31 4.135-2.55 2.063-1.24 3.75-2.462 3.75-2.716 0-.253-2.025.726-4.499 2.176-3.714 2.177-6.25 2.754-14.537 3.311-5.521.371-10.697.306-11.501-.144-2.215-1.239-1.761-3.335 1.188-5.483 3.644-2.655 1.524-3.582-2.445-1.069m33.666-.417c-1.243 1.586-1.208 1.621.378.378 1.666-1.307 2.195-2.128 1.372-2.128-.207 0-.995.787-1.75 1.75M55 78.882c0 .55.45 1.278 1 1.618s1 .168 1-.382-.45-1.278-1-1.618-1-.168-1 .382m6 1.535c0 .87.712 1.583 1.583 1.583s1.406-.534 1.188-1.187C63.153 78.958 61 78.651 61 80.417m-14 .294c0 .574.788 1.662 1.75 2.417 1.619 1.269 1.64 1.222.283-.628-.807-1.1-1.594-2.187-1.75-2.417s-.283.054-.283.628m78 .789c0 .917.484 1.505 1.075 1.308s1.075-.785 1.075-1.308-.484-1.111-1.075-1.308S125 80.583 125 81.5m-67-.051c0 .382.675 1.369 1.5 2.194s1.5 1.073 1.5.551-.675-1.509-1.5-2.194-1.5-.933-1.5-.551m58.374 2.018c-.309.807-.37 2.044-.134 2.75s.666.046.956-1.467c.566-2.953.099-3.682-.822-1.283m-50.295 1.116c.048 1.165.285 1.402.604.605.289-.722.253-1.585-.079-1.917s-.568.258-.525 1.312M109 84c0 .55.45 1 1 1s1-.45 1-1-.45-1-1-1-1 .45-1 1m-37.287 7.75c-.951 3.713-1.726 7.274-1.721 7.913s1.883 2.543 4.174 4.228c4.473 3.289 4.732 3.295 14.596.322 4.897-1.476 5.432-1.956 7.708-6.928 3.645-7.963 3.299-8.239-9.493-7.564l-10.865.573-.664-2.647C75.082 86.191 74.482 85 74.113 85c-.368 0-1.448 3.037-2.4 6.75m37.103-.636c-3.832 2.433-4.988 3.888-6.352 7.995-.917 2.761-1.443 5.246-1.168 5.521s1.251-1.762 2.169-4.525c1.213-3.651 2.577-5.586 4.99-7.077 2.829-1.749 6.572-5.174 5.417-4.958-.204.038-2.48 1.408-5.056 3.044m-35.395-.769c-.378.984-.237 2.239.313 2.789 1.341 1.341 2.372-1.345 1.227-3.197-.69-1.117-.985-1.039-1.54.408m8.145 1.562c-4.288.515-5.026.944-5.645 3.276-.484 1.822-.295 2.843.587 3.182 1.767.678 5.648-.351 7.573-2.008.87-.749 1.92-1.023 2.333-.609s.603.077.419-.748c-.201-.905.337-1.449 1.357-1.371.929.071 1.927-.492 2.218-1.25.568-1.479-.145-1.517-8.842-.472m9.523 3.19c-.675 2.254-1.014 4.311-.753 4.572.26.261.778-.912 1.15-2.606.402-1.828 1.113-2.811 1.75-2.417.614.379.784.196.397-.43-.371-.601.122-1.557 1.096-2.124 1.623-.945 1.596-1.034-.321-1.062-1.592-.023-2.384.948-3.319 4.067m50.611-1.003c-4.567 2.41-5.38 4.097-3.365 6.974.833 1.189 1.288 2.75 1.013 3.469s.014 2.271.645 3.449c.865 1.616 1.468 1.877 2.453 1.059.718-.596 3.57-2.322 6.338-3.836l5.031-2.751-3.148-5.229c-1.732-2.876-3.603-5.209-4.158-5.185s-2.719.947-4.809 2.05m13.3-1.216c0 .482.749 1.495 1.664 2.25 1.508 1.244 1.552 1.162.465-.878-1.24-2.327-2.129-2.9-2.129-1.372m-83.352 3.306c-.342 1.274-.627 2.617-.634 2.984-.02.953 6.989 5.162 7.591 4.56.275-.275-1.098-1.488-3.052-2.695-3.725-2.303-4.394-3.558-2.303-4.325.924-.338.959-.769.134-1.649-.848-.905-1.265-.634-1.736 1.125M159 99c.589 1.1 1.295 2 1.57 2s.019-.9-.57-2-1.295-2-1.57-2-.019.9.57 2m-50.427 2.154c-1.916 3.841-1.92 3.916-.177 3.247.768-.294 1.59-1.855 1.827-3.468.545-3.714.297-3.681-1.65.221m17.506-1.571c.048 1.165.285 1.402.604.605.289-.722.253-1.585-.079-1.917s-.568.258-.525 1.312m-16.674 6.667-1.905 2.25 2.25-1.905c1.237-1.048 2.25-2.06 2.25-2.25 0-.8-.805-.209-2.595 1.905m48.678-1.889c.23.199 3.117.652 6.417 1.007 4.107.441 5.527.332 4.5-.346-1.348-.891-11.92-1.531-10.917-.661m-8.875 2.976c-2.36 1.235-3.977 2.561-3.592 2.946s1.28.218 1.988-.37c.713-.591 5.669-1.088 11.092-1.111 8.171-.035 9.221-.206 6.304-1.024-1.925-.54-5.75-.752-8.5-.471-4.868.497-4.921.475-2-.853 2.267-1.03 2.511-1.364 1-1.364-1.1 0-3.931 1.011-6.292 2.247m-84.196 2.217C64.997 110.895 70.74 120 71.6 120c.355 0 .177-.564-.396-1.254-.572-.689-2.197-3.277-3.61-5.75-1.414-2.473-2.575-4.022-2.582-3.442m-4.75 5.097c-.691 2.989-.764 5.213-.191 5.799 2.342 2.394 4.819-5.851 2.649-8.818-1.211-1.657-1.444-1.372-2.458 3.019m47.705-1.369c-1.393 1.22-3.643 3.025-5 4.012-2.372 1.724-2.34 1.724.843 0 1.82-.987 4.261-2.807 5.424-4.044 2.692-2.864 2.02-2.847-1.267.032m8.161 1.283c-1.729 2.197-2.324 2.4-4.158 1.419-2.807-1.502-4.026-.229-1.53 1.596 1.883 1.377 1.855 1.507-.999 4.668l-2.937 3.252 3.498-3.187c3.351-3.053 3.675-3.14 7.691-2.059l4.194 1.129-1.638 2.773c-.901 1.525-2.338 2.961-3.193 3.192-.941.254-.666.466.694.536 1.237.064 2.252-.222 2.254-.634s1.806-3.125 4.007-6.029c3.244-4.279 3.707-5.392 2.445-5.876-.896-.344-2.568.351-3.935 1.636-1.908 1.791-2.901 2.059-5.021 1.352l-2.644-.881 2.145-2.726c1.179-1.499 1.919-2.726 1.644-2.726s-1.408 1.154-2.517 2.565m27.992-1.412c-8.068 2.32-19.417 12.956-22.355 20.949-.525 1.43-.196 1.461 3.073.294 4.403-1.573 8.172-1.723 11.498-.458 1.973.75 2.837.528 4.315-1.107 1.017-1.124 3.424-2.85 5.349-3.835s4.626-2.849 6.001-4.143c2.926-2.752 8.999-10.884 8.999-12.05 0-1.107-12.734-.843-16.88.35m18.743 2.741c1.151.729 1.151.939 0 1.348-.75.266-1.045.826-.656 1.245.389.418 1.452.474 2.362.125 1.344-.516 1.423-.917.421-2.124-.679-.818-1.742-1.481-2.362-1.473-.662.009-.564.373.235.879m-126.838 4.069c-1.269.803-1.166 1.567.737 5.485 2.389 4.917 2.835 5.174 5.483 3.164 1.629-1.237 1.545-1.602-1.256-5.469-1.651-2.279-3.111-4.136-3.245-4.128s-.908.435-1.719.948m-13.439 4.696c-2.026 2.981-2.283 4.039-1.387 5.713 1.095 2.046 1.102 2.046 1.921-.167.452-1.222 1.96-2.74 3.351-3.374S29 125.301 29 124.839s.9-.839 2-.839c3.137 0 2.34-1.682-1.125-2.375-4.611-.922-4.597-.928-7.289 3.034m50.168-2.409c.569.712.652 2.111.193 3.25-.444 1.1-.838 4.363-.877 7.25L72 138h20.605l1.03-5.027c.566-2.766.73-4.903.364-4.75-.367.152-3.2 1.622-6.297 3.265l-5.63 2.988-4.036-3.941c-4.388-4.285-5.864-8.38-1.786-4.956 1.237 1.04.928.434-.687-1.345-2.83-3.116-4.859-4.549-2.809-1.984m104.988 1.66c-.416 1.875-.528 3.638-.249 3.916 1.043 1.043 1.638-.742 1.327-3.98l-.322-3.346zm-132.296-.823c-.369.598-.171 1.588.441 2.2S47 127.869 47 129.665c0 3.824 2.106 5.335 7.434 5.335 7.433 0 10.203-7.207 4.198-10.918-3.647-2.254-12.017-2.886-13.186-.995m-18.802 7.016c-2.912 3.402-3.38 4.522-2.542 6.087.979 1.831 1.117 1.802 3.042-.646 1.109-1.41 2.37-2.344 2.802-2.077.433.267 1.592-.404 2.575-1.491S35.012 130 35.869 130c1.367 0 1.379-.172.095-1.393-3.38-3.214-5.592-2.859-9.32 1.496m147.005.393c-1.017 2.481-3.83 6.713-6.25 9.405-2.986 3.321-4.399 5.792-4.399 7.692v2.799l3.556-3.446c6.173-5.982 9.608-12.25 9.255-16.886l-.311-4.076zm-60.052 3.174c-.875 2.568-1.38 4.88-1.122 5.138.498.499 2.102-3.273 3.125-7.352 1.06-4.223-.335-2.681-2.003 2.214m29.377-.85c-1.789 1.449-2.288 2.966-2.448 7.453-.111 3.099.169 6.218.621 6.931s.829.933.838.489c.008-.443 1.015-.106 2.238.75 3.592 2.517 4.199 1.783.854-1.032-2.553-2.148-3.077-3.318-3.077-6.865 0-2.812.71-5.179 2.073-6.911 2.424-3.082 2.047-3.362-1.099-.815M32.13 134.544c-3.23 2.718-4.68 5.757-3.589 7.522.431.698 1.551.256 3.145-1.241 1.361-1.279 2.776-2.268 3.145-2.199.368.069 1.791-.757 3.162-1.835 2.432-1.913 2.446-1.997.559-3.376-2.577-1.885-2.909-1.827-6.422 1.129m115.155-1.068c-3.708 1.613-5.125 5.385-3.423 9.119.917 2.015 1.604 2.339 3.876 1.828 1.519-.341 3.516-.672 4.439-.736.922-.064 1.475-.441 1.229-.84-.247-.398.349-1.188 1.323-1.755s1.445-1.045 1.046-1.062c-.399-.016-.3-1.15.221-2.519.829-2.18.583-2.677-1.975-4-3.434-1.776-2.74-1.772-6.736-.035m-23.61 4.33c-1.538 1.7-1.431 1.88 1.804 3.05 1.891.684 5.247 3.298 7.458 5.809 2.67 3.034 4.541 4.365 5.576 3.968 1.404-.538 1.406-.889.022-3.565-.844-1.633-1.535-4.32-1.535-5.971 0-2.618-.48-3.136-3.75-4.044-5.363-1.49-7.712-1.305-9.575.753m-61.425 2.057c-1.788 1.531-3.25 3.33-3.25 3.999 0 .704.921.358 2.189-.823 2.633-2.453 3.406-2.537 4.204-.457 1.095 2.852.639 4.418-1.286 4.418-1.041 0-2.172.727-2.513 1.615-.506 1.318-.064 1.534 2.393 1.174 3.581-.526 3.854.38.763 2.537-1.74 1.214-1.881 1.581-.622 1.622 3.409.109 4.142-2.417 2.877-9.916-.652-3.868-1.258-7.014-1.345-6.991-.088.022-1.623 1.292-3.41 2.822M22 139.75c0 1.027.7 2.741 1.555 3.809 1.491 1.861 1.51 1.847.454-.33-.606-1.249-.848-2.68-.539-3.181s.105-1.192-.454-1.538c-.559-.345-1.016.213-1.016 1.24m13.998 1.752c-2.537 2.617-3.107 3.789-2.256 4.64.85.85 1.93.47 4.274-1.502 1.726-1.452 3.848-2.64 4.716-2.64 1.36 0 1.328-.276-.232-2-2.376-2.625-2.538-2.588-6.502 1.502m76.252.064c-2.668 1.599-4.25 3.271-4.25 4.491 0 2.458.472 2.435 4.346-.212 3.389-2.316 5.654-4.733 5.654-6.036 0-1.319-1.259-.934-5.75 1.757m-43.857 1.016c.334.87.632 2.332.662 3.25.031.917 1.38 2.714 2.998 3.992l2.943 2.325 5.497-2.517c3.419-1.566 5.931-3.468 6.643-5.032 1.028-2.256 1.826-2.551 7.755-2.862 3.635-.19-.977-.434-10.248-.542-15.01-.175-16.79-.023-16.25 1.386m-40.671 2.468c1.222 1.287 2.416 2.139 2.652 1.894s-.763-1.296-2.222-2.338l-2.652-1.894zm89.541.262c-3.568 2.412-3.782 3.126-1.937 6.449l1.256 2.261 3.459-2.579c1.902-1.418 4.134-2.998 4.959-3.511 1.271-.789 1.139-1.237-.861-2.932-2.855-2.419-2.834-2.42-6.876.312m43.897-.197c-.088.888-.983 2.688-1.99 4-1.006 1.312-2.121 3.183-2.477 4.158-.535 1.464-.332 1.604 1.162.805 3.142-1.682 4.294-3.843 3.873-7.263-.224-1.823-.48-2.588-.568-1.7m-67.66 3.361c-1.65.769-4.125 2.326-5.5 3.461L85.5 154l2.472 1.922c1.36 1.057 2.855 1.685 3.323 1.395.469-.289-.136-1.218-1.343-2.064-2.173-1.521-2.14-1.573 3.13-4.895 5.492-3.463 5.686-4.336.418-1.882m-68.375 2.331c2.582 4.331 10.925 8.037 13.883 6.167 1.111-.702.645-.947-1.824-.959-3.891-.018-6.606-1.274-10.559-4.887-2.677-2.447-2.781-2.469-1.5-.321m84.034-.137c-2.797 2.265-2.014 5.583 1.219 5.166 1.167-.151 2.797.136 3.622.637 1.202.73 1.278.624.384-.531-.613-.793-1.527-2.719-2.029-4.281-.906-2.814-.934-2.823-3.196-.991M47.5 156.535c-4.95 3.561-9.118 6.825-9.262 7.255s2.235 2.006 5.286 3.502l5.547 2.721 6.226-4.756 6.226-4.757-2.012-5.239c-1.106-2.881-2.236-5.23-2.511-5.219s-4.55 2.933-9.5 6.493m46.188-4.889c-1.416 1.415-.615 3.354 1.385 3.354 1.398 0 1.968-.543 1.75-1.667-.357-1.841-2.064-2.759-3.135-1.687m57.311 3.631c-1.925 1.773-4.611 3.944-5.969 4.824-2.135 1.385-2.321 1.926-1.382 4l1.086 2.399 5.133-5.107c2.992-2.977 5.133-6.001 5.133-7.25 0-1.179-.113-2.131-.25-2.116s-1.825 1.477-3.751 3.25m-28.257-.363c-4.077 2.614-4.158 2.803-2.357 5.551l1.656 2.527 3.467-2.246c3.788-2.454 3.994-2.94 2.457-5.812-1.236-2.31-1.649-2.311-5.223-.02m-8.92 5.425c-2.174 1.653-.811 3.965 2.42 4.106 2.234.098 2.336-.102 1.367-2.669-1.18-3.127-1.436-3.224-3.787-1.437m13.514 4.002c-3.085 2.181-3.12 2.293-1.437 4.525l1.726 2.288 3.728-2.2c3.44-2.029 3.622-2.36 2.352-4.272-1.902-2.865-2.736-2.909-6.369-.341m-7.84 4.666c-.343.554.1 1.285.984 1.624 1.914.734 2.981-.075 2.061-1.564-.83-1.344-2.235-1.371-3.045-.06"/><path fill-opacity=".773" fill-rule="evenodd" d="M92.332 16.79C80.056 21.178 68 35.283 68 45.258c0 2.127-.74 6.128-1.644 8.893-1.512 4.622-1.854 4.981-4.25 4.46-8.587-1.868-15.959-2.882-17.277-2.376-2.58.99-4.183 9.069-3.486 17.566.882 10.745 1.203 11.461 6.344 14.189 3.116 1.653 5.716 4.183 8.187 7.966 1.991 3.049 3.956 5.793 4.365 6.098s-.116 2.244-1.169 4.308c-1.053 2.065-2.203 5.469-2.557 7.563l-.644 3.809-6.184.561c-4.585.416-6.593.192-7.764-.867-1.8-1.629-7.496-1.925-8.415-.437-.337.545-2.357.922-4.489.839-4.805-.189-8.571 2.167-10.742 6.719-1.511 3.169-1.515 3.724-.053 6.791 1.017 2.132 1.27 3.851.701 4.75-1.351 2.134-1.097 10.558.428 14.208 1.599 3.826 7.662 9.416 11.167 10.296 3.055.767 3.122 1.525.294 3.291-2.148 1.342-2.153 1.393-.25 2.79 1.066.782 6.716 3.859 12.557 6.836l10.618 5.414 27.882-5.482c15.334-3.016 28.899-5.239 30.143-4.941s3.418 1.84 4.831 3.426c2.739 3.074 6.745 4.083 17.486 4.405 4.642.139 6.154-.275 9-2.463 1.882-1.446 4.544-4.425 5.916-6.621 1.629-2.605 4.345-4.96 7.82-6.779 6.279-3.288 16.453-12.939 21.002-19.925 3.617-5.553 6.183-13.173 6.183-18.36 0-9.221-5.838-17.98-13.89-20.84-3.158-1.121-5.474-2.77-6.859-4.882l-2.09-3.19 6.134-4.886c11.609-9.247 17.517-21.395 14.806-30.443C180.688 53.226 173.936 46 170.942 46c-2.962 0-25.086 5.692-30.693 7.897l-4.749 1.868-.191-3.557c-.105-1.957-1.118-4.811-2.25-6.342-1.132-1.532-2.059-4.168-2.059-5.858 0-4.573-2.335-9.331-7.134-14.537-8.464-9.183-20.703-12.552-31.534-8.681M93 20.409c-3.209 1.152-10 8.397-10 10.669 0 1.262 11.726 1.174 12.51-.094.346-.559 1.042-.761 1.548-.448.505.312.678-.059.384-.826-.503-1.311 4.662-6.626 9.137-9.401 1.616-1.002.967-1.189-4.079-1.174-3.3.009-7.575.583-9.5 1.274m14.996 5.453c-1.909 1.024-4.827 3.925-6.484 6.446s-3.665 4.608-4.462 4.638c-1.128.042-1.183.321-.25 1.254.66.66 1.2 3.179 1.2 5.599 0 10.297-12.877 14.141-17.49 5.221-2.025-3.917-1.903-7.314.366-10.115 1.479-1.827 1.676-2.892.928-5.037-.717-2.056-.538-3.408.734-5.544 1.055-1.772-.18-.888-3.317 2.374-5.831 6.065-8.19 11.962-8.291 20.73-.053 4.575-.302 5.579-1.009 4.072-.68-1.447-.837-.526-.569 3.333.265 3.814.992 5.951 2.553 7.5l2.183 2.167-1.544-3.718c-.849-2.045-1.524-4.52-1.5-5.5s.658-.061 1.408 2.042c.75 2.104 1.702 4.129 2.115 4.5s.392-.224-.047-1.324c-1.47-3.684-1.831-13.19-.53-13.994.76-.47 3.572 1.591 7.549 5.533l6.337 6.281 8.312-6.915c13.332-11.09 11.647-10.365 14.94-6.421 4.029 4.826 3.98 10.179-.128 14.016-1.65 1.541-3 3.761-3 4.933s-.652 3.692-1.449 5.599-1.134 3.454-.75 3.436c1.772-.08 3.728-2.741 4.021-5.468.177-1.65 1.04-3.554 1.916-4.231.876-.678 1.706-2.253 1.844-3.5.385-3.477.592-3.516 1.418-.269.573 2.252.793 1.179.882-4.3.169-10.462 4.22-17.144 9.578-15.799 2.165.543 2.537.302 2.518-1.632-.056-5.835-6.424-14.488-12.293-16.705-3.65-1.379-3.623-1.382-7.689.798m-6.124.888c-1.243 1.586-1.208 1.621.378.378 1.666-1.307 2.195-2.128 1.372-2.128-.207 0-.995.788-1.75 1.75M82.455 38.455c-4.476 4.475-2.032 12.551 3.795 12.541 2.02-.003 1.926-.201-.911-1.931-1.738-1.06-3.463-2.88-3.833-4.045-.73-2.302 1.615-6.745 4.055-7.682 2.449-.94 6.623.649 7.167 2.729.41 1.568.806 1.735 1.919.811 1.195-.992 1.154-1.441-.277-3.021-2.533-2.8-8.834-2.484-11.915.598m.963 2.03c-1.461 2.23-1.518 2.96-.394 5.06 1.721 3.215 6.243 3.34 8.419.232 1.23-1.755 1.557-1.872 1.557-.556 0 .916-1 2.366-2.223 3.222S88.922 50 89.37 50s1.861-.823 3.14-1.829l2.325-1.829-2.193-3.921c-2.804-5.015-6.675-5.827-9.224-1.936m36.152 7.437c-.957 1.058-1.977 3.696-2.268 5.863-.503 3.747-.364 3.998 2.824 5.109 2.379.829 3.458.854 3.715.084.206-.619.961-.311 1.76.719 1.343 1.73 1.459 1.725 2.899-.138 2.909-3.765 1.021-11.066-2.176-8.413-.728.604-1.324 1.794-1.324 2.643s-.266 1.278-.591.953c-.842-.841.451-4.459 2.228-6.236 2.16-2.16-.412-1.977-3.058.217-1.144.948-1.516 1.083-.829.3S124 47.24 124 46.8c0-1.49-2.68-.811-4.43 1.122m11.354 3.379c1.896 4.987-2.142 12.423-5.316 9.788-.944-.783-1.644-.839-2.06-.167-.944 1.527 4.239 2.499 5.914 1.11 2.378-1.974 3.731-7.395 2.593-10.388-.553-1.454-1.23-2.644-1.505-2.644s-.107 1.035.374 2.301m-32.891 6.198-9.467 7.314-6.033-5.595-6.033-5.596-.309 3.125c-.169 1.719.463 4.617 1.405 6.439 1.555 3.008 1.56 3.187.059 1.942-2.171-1.801-2.088-.897.359 3.9C80.302 73.512 89.167 81 92.189 81c5.863 0 13.245-6.466 14.398-12.61.366-1.954 1.734-4.62 3.039-5.926 3.043-3.042 3.096-7.447.124-10.197l-2.25-2.081zM172 53.832c1.985 1.75 2.885 3.104 2.079 3.127-.782.023-2.155-.623-3.051-1.433-1.266-1.146-2.397-1.257-5.079-.495-5.574 1.582-11.223 5.252-13.666 8.877-2.119 3.145-2.158 3.463-.567 4.626 1.514 1.108 1.542 1.461.246 3.108-.804 1.022 1.142-.487 4.326-3.353 3.958-3.563 7.54-5.763 11.331-6.958 4.219-1.33 5.106-1.92 3.713-2.469-1.27-.5-.671-.743 1.953-.792 3.29-.061 3.661-.299 2.839-1.82-.521-.962-2.449-2.595-4.285-3.628l-3.339-1.877zm-10-.663c-1.925.531-5.303 1.087-7.507 1.237-4.505.306-13.226 2.969-18.493 5.649-4.636 2.358-11.271 9.361-14.16 14.945-3.377 6.528-3.75 17.542-.856 25.25 2.741 7.298 5.174 7.835 4.531 1-.358-3.798-.277-4.149.401-1.75.709 2.512.867 1.987.966-3.224l.118-6.224 8.785-6.448c8.333-6.117 8.958-6.841 12.14-14.082 3.611-8.216 6.352-10.987 14.38-14.539 6.597-2.918 6.469-3.681-.305-1.814m-12.452 4.877c-3.818 2.888-5.501 4.745-5.533 6.104-.008.357 1.448-.776 3.235-2.52s4.375-3.925 5.75-4.847 2.05-1.689 1.5-1.703c-.55-.013-2.778 1.321-4.952 2.966M46.55 60.919c-2.524 4.084-1.097 19.552 2.045 22.16 1.191.988 1.184.723-.046-1.648-.906-1.745-1.119-3.244-.558-3.92.499-.602 1.068-4.226 1.263-8.053l.354-6.958.196 8.21.196 8.21 5.02 4.695c2.761 2.583 5.335 5.864 5.719 7.291.674 2.499.72 2.466 1.262-.906.322-2.001 1.085-3.393 1.781-3.25.67.137 1.263-.763 1.318-2 .095-2.148.133-2.136.846.25.659 2.205.954 1.792 2.5-3.5 2.003-6.857 4.041-9.166 6.386-7.233 1.3 1.072 1.339.939.293-1.023-1.149-2.156-1.343-2.188-4.413-.727-2.99 1.422-3.06 1.417-1.011-.084l2.2-1.611-2.2-3.381c-1.883-2.892-3.168-3.601-8.898-4.91-3.684-.842-6.89-1.531-7.124-1.531-.235 0-.371 2.896-.303 6.435.109 5.662.475 6.801 3.044 9.482 2.265 2.363 3.223 2.794 4.274 1.922.745-.618 1.643-.835 1.997-.482.353.354.117.643-.524.643-.642 0-1.167.675-1.167 1.5 0 1.689 2.559 2.053 3.342.475.279-.564.394-.451.255.25-.14.701-1.187 1.413-2.328 1.582-1.447.214-3.238-1.081-5.922-4.284-3.424-4.086-3.902-5.329-4.347-11.307-.441-5.929-.753-6.752-2.656-7.023-1.185-.169-2.443.158-2.794.726M171 62c-1.375.44-1.782.845-.905.9s2.411 1.001 3.407 2.103c2.68 2.96.646 8.545-5.715 15.692l-5.165 5.805 5.718-5.495c8.249-7.926 12.345-17.761 8.078-19.398-1.823-.7-2.059-.683-5.418.393m-48.956 7.75C118.249 74.338 116 81.503 116 89.003c0 5.528 2.336 14.468 4.058 15.533.479.296.262-.941-.483-2.749-3.834-9.313-2.728-20.829 2.9-30.175 1.858-3.087 3.22-5.612 3.025-5.612s-1.75 1.688-3.456 3.75m19.797-.795c-2.483 4.325-11.699 11.225-14.014 10.49-2.351-.746-4.909 1.177-4.161 3.128.674 1.755 5.326 1.908 5.355.177.012-.687 2.748-3.275 6.081-5.75s6.731-5.779 7.553-7.343c1.965-3.743 1.274-4.34-.814-.702M160 67.5c-1.032 1.244-.92 1.5.655 1.5 2.766 0 6.142 2.674 6.64 5.259.271 1.4.484.856.569-1.452.102-2.779-.414-4.079-2.087-5.25-2.784-1.951-4.194-1.964-5.777-.057m-46.5.5c-.34.55-.141 1 .441 1S115 68.55 115 68s-.198-1-.441-1-.719.45-1.059 1m-23.75 3.706c1.237.238 3.263.238 4.5 0 1.237-.239.225-.434-2.25-.434s-3.487.195-2.25.434M153 74.5c-1.054 1.27-.835 1.5 1.425 1.5 1.603 0 3.651 1.058 5.123 2.646 2.169 2.341 2.452 2.424 2.452.723 0-5.044-6.111-8.35-9-4.869m-44.687 6.143c-7.095 4.44-7.29 4.495-18.082 5.064-9.664.51-10.983.382-11.56-1.122-.428-1.114.222-2.508 1.888-4.052 1.397-1.295 2.148-2.596 1.67-2.892C81.093 76.94 75 80.651 75 82.044c0 .591-.394.83-.876.533-1.375-.85-6.109 6.698-8.729 13.916l-2.383 6.566 8.061 8.396 8.06 8.397 5.684-2.735c15.248-7.336 16.175-7.963 15.294-10.347-.546-1.474-.19-4.098 1.049-7.749 1.585-4.669 2.672-6.062 7.043-9.025 4.47-3.03 5.339-4.173 6.434-8.465.696-2.729 1.172-5.055 1.058-5.17-.115-.114-3.436 1.813-7.382 4.282m-42.234-.06c.048 1.165.285 1.402.604.605.289-.722.253-1.585-.079-1.917s-.568.258-.525 1.312m58.417.424c-.343.554.1 1.285.984 1.624 1.914.734 2.981-.075 2.061-1.564-.83-1.344-2.235-1.371-3.045-.06m-51.51 6.243c-.007.688-.245 2.375-.528 3.75l-.514 2.5 1.079-2.476c1.669-3.828 2.876-.686 1.589 4.136-.989 3.706-.884 4.202 1.265 5.942 1.29 1.044 3.307 1.896 4.484 1.894 3.706-.006 8.728-3.852 10.481-8.027.991-2.361 2.333-3.953 3.338-3.959 1.447-.009 1.331.612-.839 4.495-2.907 5.202-5.309 7.13-10.692 8.586-3.47.938-4.242.77-7.793-1.691-3.479-2.411-3.879-3.094-3.402-5.816.423-2.412.339-2.648-.386-1.084-1.685 3.634-1.112 5.198 2.932 8 3.426 2.374 4.643 2.684 8.48 2.158 7.971-1.093 11.172-3.038 13.919-8.458 2.126-4.195 2.309-5.217 1.205-6.726-.715-.979-1.727-1.516-2.249-1.194-.521.323-4.977.692-9.902.821-8.329.219-9.022.084-9.94-1.933-1.082-2.376-2.505-2.893-2.527-.918m35.816 3.846c-3.781 2.473-5.015 4.03-6.329 7.984-1.338 4.03-1.419 5.553-.452 8.483 1.033 3.131.951 3.749-.671 5.02-1.685 1.32-1.619 1.351.738.347 2.426-1.034 2.525-1.339 1.581-4.877-1.295-4.85.704-12.719 3.453-13.592 1.033-.328 1.878-1.042 1.878-1.587 0-.546.403-.743.895-.439.493.305 1.164-.147 1.493-1.004s1.051-1.278 1.605-.935 1.007-.08 1.007-.937c0-1.975.315-2.069-5.198 1.537M124.232 93c0 1.925.206 2.713.457 1.75.252-.963.252-2.537 0-3.5-.251-.963-.457-.175-.457 1.75m11.9-.961c-1.993 1.661-2.163 2.219-1.073 3.532 1.051 1.267 1.057 2.22.031 5.056-1.146 3.17-1.046 3.815 1.073 6.927 1.285 1.888 2.629 3.435 2.987 3.439.357.004 2.832-1.46 5.5-3.253 4.131-2.778 7.38-4.138 15.143-6.343.978-.278 1.031-.858.215-2.382-.822-1.535-2.201-2.057-5.793-2.19l-4.715-.174 4.254-.383c3.859-.348 4.158-.564 3.215-2.326-.845-1.578-2.12-1.942-6.804-1.942-3.171 0-6.263.498-6.872 1.107-.81.81-1.411.541-2.236-1-1.376-2.572-1.91-2.579-4.925-.068m-54.929-.304c-3.488.312-4.478.857-5.25 2.89-1.206 3.172-1.235 2.95.618 4.804 3.648 3.647 10.621.657 13.247-5.679 1.267-3.058 1.751-2.944-8.615-2.015m31.464 3.932c-.367.366-.667 2.166-.667 4 0 2.044-.806 4.139-2.083 5.416-2.612 2.612-1.919 3.591.843 1.192 1.334-1.159 2.208-3.424 2.519-6.525.497-4.97.468-5.164-.612-4.083m-3.387 2.559c-.552.701-1.297 2.5-1.654 3.997-.5 2.093-.326 2.599.749 2.186.771-.295 1.679-1.93 2.02-3.633q1.061-5.308-1.115-2.55m44.22 7.191c-3.521 1.129-11.5 5.325-11.5 6.048 0 .146 1.912-.104 4.25-.556 6.161-1.192 12.724-1.009 16.86.469 3.128 1.118 3.746 1.079 4.633-.294.905-1.402 1.312-1.316 3.534.741 1.947 1.803 2.684 2.027 3.278 1 .421-.729.393-.987-.064-.573-1.024.929-4.646-2.192-3.915-3.374.29-.47-.176-.585-1.035-.255-1.134.435-1.394.158-.948-1.006.339-.883 1.132-1.297 1.762-.919s.527-.075-.227-1.006c-1.678-2.068-10.58-2.215-16.628-.275m-37.967 2.48c-.343 1.079-2.277 3.569-4.299 5.533-2.022 1.963-3.239 3.577-2.705 3.585s1.638.437 2.453.953c1.239.783.993 1.479-1.5 4.235L106.5 125.5l3.055-2.75c3.053-2.749 5.855-3.412 8.18-1.935 1.811 1.15-1.251 5.157-4.042 5.288-1.396.066-.811.47 1.611 1.113 2.093.554 3.911.845 4.041.646.129-.199 2.12-2.917 4.423-6.04l4.188-5.678-3.715-1.822c-2.043-1.002-4.698-3.299-5.9-5.105-1.964-2.95-2.249-3.083-2.808-1.32m-4.524 2.593c-1.286 1.369-5.19 4.347-8.674 6.617-7.463 4.863-8.428 6.286-1.508 2.226 5.372-3.154 8.732-5.798 11.578-9.114 2.6-3.028 1.504-2.816-1.396.271M65 109.767c0 .592 1.961 4.001 4.358 7.575 2.886 4.305 4.073 6.948 3.515 7.829-.463.731-.849 3.917-.858 7.079L72 138h24.834l1.083-5.049c1.393-6.497 1.433-6.276-1.016-5.635-1.696.443-2.002.178-1.594-1.384.278-1.062.357-1.932.176-1.932s-3.701 1.819-7.822 4.041c-4.208 2.27-7.754 3.618-8.089 3.076-.328-.531-.017-1.112.69-1.291.883-.224 1.081-1.268.631-3.326-.489-2.234-.687-2.44-.775-.809-.181 3.349-1.583 3.525-4.223.528L73.5 123.5l2.972 2.5c2.551 2.146 2.456 1.911-.668-1.662-4.368-4.995-5.984-7.825-5.019-8.79.393-.393.04-.565-.785-.381-.913.202-1.399-.289-1.243-1.256.141-.874-.646-2.406-1.75-3.405S65 109.175 65 109.767m-4.933 4.881c-1.229 4.88-.91 5.723 2.559 6.768 1.65.497 2.259.133 2.719-1.626.562-2.152-2.128-9.709-3.476-9.764-.347-.014-1.158 2.066-1.802 4.622m86.014-2.102c-2.98.825-6.844 2.38-8.586 3.457-5.848 3.614-16.495 16.19-16.495 19.483 0 .321.787.171 1.75-.335 3.12-1.638 9.665-2.225 13.215-1.184 2.786.818 3.628.725 4.3-.475 1.354-2.42 6.329-4.492 10.785-4.492 3.387 0 4.776.626 7.554 3.404l3.404 3.404 3.6-4.154c1.98-2.285 4.281-5.552 5.113-7.261 1.374-2.822 1.355-3.347-.208-5.732-4.118-6.286-14.459-8.874-24.432-6.115m-49.64 3.009c-1.864 1.494-1.852 1.512.309.465 1.237-.6 2.25-1.3 2.25-1.555 0-.765-.519-.544-2.559 1.09m64.218-.108c-.96 2.501.369 4.553 2.948 4.553 1.316 0 2.393-.408 2.393-.906s-.838-.688-1.862-.42c-1.13.296-2.106-.149-2.483-1.131-.805-2.097 2.204-3.326 3.522-1.439.812 1.162.907 1.145.571-.104-.556-2.06-4.353-2.473-5.089-.553m-125.26 4.956c-.873 2.275 3.371 9.597 5.562 9.597 3.22 0 3.322-1.842.364-6.524-2.866-4.537-4.95-5.617-5.926-3.073m142.004 1.453c-1.23 2.826-.599 8.74.786 7.355.516-.516.782-2.913.589-5.325-.317-3.977-.445-4.166-1.375-2.03m-154.839 2.471c-2.297 3.012-2.528 3.871-1.539 5.719 1.155 2.158 1.193 2.147 4.819-1.354 2.011-1.941 4.657-3.678 5.88-3.861 3.287-.489 1.361-2.781-2.921-3.476-3.172-.514-3.812-.209-6.239 2.972M58 121.406c0 .252 1.35 1.419 3 2.594s3 1.667 3 1.094c0-.574-1.35-1.741-3-2.594s-3-1.345-3-1.094m-12.487 1.573c-.333.539-.129 1.871.454 2.96s.965 2.336.849 2.77c-.363 1.364 3.59 15.291 4.34 15.291 2.221 0 6.372-2.446 10.306-6.072l4.477-4.127-2.01-3.94c-2.625-5.146-7.144-7.853-13.12-7.857-2.58-.002-4.963.437-5.296.975m-18.859 6.983c-3.082 3.411-3.521 4.419-2.64 6.064 1.436 2.683 2.062 2.523 5.986-1.526 1.866-1.925 4.204-3.5 5.196-3.5 3.384 0 1.598-3.512-2.281-4.485-2.131-.535-3.192.049-6.261 3.447m146.626.852c-1.22 2.658-4.032 6.894-6.249 9.413-2.74 3.114-4.019 5.491-3.993 7.426.038 2.803.115 2.765 5.034-2.51 6.61-7.087 9.221-12.233 8.202-16.164l-.777-2.999zm-61.641 2.95c-.878 3.087-1.445 5.763-1.261 5.947.996.996 3.476-1.198 3.986-3.525a96 96 0 0 1 1.192-4.798c.392-1.366.088-2.311-.858-2.674-1.082-.415-1.878.9-3.059 5.05m33.62-2.277c-7.066 3.071-8.319 13.967-1.954 16.987 5.419 2.572 9.593 3.5 10.336 2.298.367-.595.241-.817-.281-.495-1.478.914-9.074-2.874-10.279-5.126-1.756-3.282-1.303-8.929.894-11.126 3.205-3.205 6.929-3.626 11.232-1.269 4.635 2.539 5.036 1.972.543-.767-3.807-2.321-6.058-2.429-10.491-.502m-114.677 4.689c-3.381 3.949-3.483 4.276-1.896 6.029 1.618 1.788 1.825 1.71 5.784-2.175 2.258-2.217 4.721-4.03 5.473-4.03 1.008 0 .892-.525-.443-2-2.712-2.997-4.961-2.448-8.918 2.176m116.733-3.191c-4.582 1.892-5.592 7.474-2.065 11.422 3.232 3.617 6.748 4.169 10.043 1.577 3.277-2.577 3.797-8.692.957-11.251-2.324-2.095-6.239-2.86-8.935-1.748M43 133.953c0 1.766 2.313 6.047 3.268 6.047.52 0 .673-.712.339-1.582s-.607-2.445-.607-3.5S45.325 133 44.5 133s-1.5.429-1.5.953m-21.968 2.829c-.07 2.838 2.874 7.929 6.354 10.984 3.896 3.42 5.19 3.8 7.614 2.234 1.314-.849 1.304-.971-.084-.985-1.784-.017-8.405-5.975-11.685-10.515-1.192-1.65-2.182-2.423-2.199-1.718m102.742.873c-1.54 1.54-1.374 1.794 2.383 3.653 4.805 2.377 10.929 9.814 15.188 18.442 1.696 3.438 3.325 6.25 3.62 6.249.294 0 2.672-2.078 5.285-4.618 3.247-3.157 4.75-5.435 4.75-7.2 0-2.007-.267-2.314-1.2-1.381-2.155 2.155-8.38 1.424-11.704-1.373-3.067-2.58-5.723-9.351-4.707-11.997q.524-1.36-3.184-2.39c-5.305-1.473-8.534-1.283-10.431.615m-61.533 2.161c-1.792 1.476-3.255 3.259-3.25 3.963.019 2.671 5.916 12.888 7.439 12.888.864 0 1.57-.402 1.57-.893 0-.49.38-.657.844-.371s.239-1.809-.5-4.658-1.376-6.32-1.414-7.713-.376-3.29-.75-4.216c-.6-1.486-1.061-1.369-3.939 1m-24.361-.809c-.891.521-2.348 2.059-3.239 3.417-3.721 5.68 2.428 7.858 6.716 2.379 3.624-4.63 1.263-8.565-3.477-5.796m75.37 2.023c-3.552 2.036-5.25 3.651-5.25 4.99 0 2.457.082 2.454 4.479-.14 1.977-1.167 4.264-3.417 5.083-5s1.365-2.876 1.214-2.871c-.152.006-2.638 1.365-5.526 3.021m-44.632 3.22c1.495 8.56 6.093 20.75 7.827 20.75.667 0 2.278-2.274 3.58-5.053 3.068-6.55 9.309-12.233 15.804-14.39 2.993-.994 5.171-2.316 5.171-3.137 0-1.169-2.912-1.42-16.475-1.42H68.05zm54.921-1.389c1.672 1.019 4.94 4.012 7.262 6.651 2.323 2.638 4.479 4.541 4.792 4.228 1.796-1.795-9.224-12.742-12.821-12.736-2.088.003-2.026.153.767 1.857m-6.289 2.314c-1.787 1.105-3.25 2.44-3.25 2.967 0 1.299 2.916 6.858 3.598 6.858.922 0 9.368-5.136 9.923-6.034.609-.985-4.52-6.005-6.011-5.883-.555.045-2.473.987-4.26 2.092m43.91-.404c-.088.7-1.351 3.071-2.806 5.271-3.141 4.745-2.644 5.971 1.111 2.742 2.194-1.888 2.618-2.968 2.276-5.802-.232-1.915-.493-2.91-.581-2.211M22 145.7c0 .55 1.317 2.817 2.926 5.039 3.572 4.931 10.79 8.188 14.344 6.472 2.077-1.002 2.001-1.08-1.119-1.143-4.981-.101-10.023-2.908-13.267-7.387C23.298 146.491 22 145.15 22 145.7m73.845 1.785c-8.521 3.134-12.206 7.354-9.262 10.606 1.534 1.695 1.933 1.752 3.348.472.883-.8 4.218-2.453 7.41-3.675 4.969-1.901 5.724-2.522 5.246-4.305-.308-1.146-.566-2.645-.573-3.333-.017-1.548-1.471-1.493-6.169.235m12.772 3.385c-1.414 1.564-1.496 2.303-.494 4.5 1.109 2.434 4.57 3.604 6.108 2.065.646-.645-2.42-8.409-3.326-8.425-.327-.005-1.357.832-2.288 1.86m-61.137 5.667c-4.939 3.595-9.076 6.857-9.193 7.25s3.258 2.641 7.5 4.997c8.464 4.702 8.631 4.695 14.934-.65l3.22-2.731-3.22-7.673c-1.772-4.221-3.455-7.687-3.741-7.702-.285-.015-4.56 2.913-9.5 6.509m81.134-3.1c.303.79 1.187 1.193 1.963.895 1.689-.648.891-2.332-1.105-2.332-.814 0-1.176.607-.858 1.437m-6.364 1.738c-3.713 2.295-3.937 3.375-1.388 6.689l1.818 2.364 3.648-2.364c4.16-2.696 4.266-3.027 2.057-6.399-1.896-2.893-1.922-2.894-6.135-.29M98 159.3c-3.376 1.058-4.972 2.387-6.979 5.813-.849 1.449-.018 1.422 8.196-.262 5.027-1.031 9.349-2.083 9.603-2.338.748-.747-4.179-4.453-5.82-4.378-.825.038-3.075.563-5 1.165m15.853.939c-2.607 1.774-.329 5.761 3.291 5.761h2.824l-1.669-3.5c-1.82-3.815-2.016-3.915-4.446-2.261m20.162 1.511c.009.412.396 1.35.861 2.084.689 1.087.951 1.059 1.416-.152.314-.818.301-1.755-.028-2.084-.84-.841-2.267-.745-2.249.152m-6.515 2.342c-3.163 2.052-3.327 3.315-.795 6.126 1.585 1.76 2.656 1.528 6.619-1.435 1.576-1.179 1.656-1.732.589-4.074-1.441-3.163-2.352-3.251-6.413-.617m12.194 5.493c-1.543 1.328-2.38 2.415-1.861 2.415 1.331 0 5.773-3.722 5.167-4.329-.275-.275-1.763.586-3.306 1.914m-20.198-.578c-.343.554.1 1.285.984 1.624 1.914.734 2.981-.075 2.061-1.564-.83-1.344-2.235-1.371-3.045-.06"/></svg>