<svg xmlns="http://www.w3.org/2000/svg" width="200" height="200" fill="#000000"><path fill-opacity=".255" fill-rule="evenodd" d="M85.919 5.943C62.54 10.244 40.462 22.059 28.69 36.571 5.302 65.4-.651 98.022 10.809 134.553c8.092 25.795 30.547 48.037 58.187 57.635 19.16 6.654 43.848 6.654 63.008 0 31.427-10.913 55.848-38.526 62.391-70.545.883-4.321 1.573-8.821 1.535-10-.068-2.075-.096-2.079-.855-.143-.461 1.174-1.007-4.405-1.322-13.5-.44-12.696-1.012-17.128-3.163-24.5-2.772-9.502-9.966-25.293-12.312-27.027-.764-.565-1.499-1.772-1.632-2.682-.46-3.134-9.68-13.657-16.405-18.724C143.957 12.799 124.396 6.103 103 5.47c-6.875-.203-14.561.01-17.081.473M90.5 74c-.34.55.219 1 1.241 1s2.454.563 3.181 1.25c1.092 1.032 1.121.857.165-1-1.205-2.343-3.521-2.974-4.587-1.25m12.459 1.076c-1.008 1.885-.926 1.976.9 1 3.425-1.833 6.857-1.253 9.046 1.531 1.598 2.031 1.822 3.035 1.012 4.548-1.544 2.886-5.715 4.172-9.05 2.79-4.207-1.743-5.458-.724-2.55 2.075 1.892 1.821 2.268 2.775 1.471 3.736-.819.986-.685 1.142.571.66 1.097-.421 1.641-.104 1.641.958 0 1.994-4.737 3.272-6.966 1.879-.982-.613-2.296-.686-3.203-.179-.969.543-2.229.356-3.407-.506-1.558-1.139-1.681-1.758-.737-3.717 2.4-4.983 2.294-5.451-1.234-5.451-3.236 0-3.329.115-3.27 4.05.095 6.287.65 7.368 5.133 9.995C102.66 104.506 116 101.366 116 92.87c0-1.513.45-3.03 1-3.37s1-2.444 1-4.677c0-8.058-11.839-15.73-15.041-9.747M124.5 74c-.34.55.11 1 1 1s1.34-.45 1-1-.79-1-1-1-.66.45-1 1m16 0c-.34.55.11 1 1 1s1.34-.45 1-1-.79-1-1-1-.66.45-1 1m-52.342 6c0 1.375.227 1.938.504 1.25.278-.687.278-1.812 0-2.5-.277-.687-.504-.125-.504 1.25m16.288-.913c-.369.598-.171 1.588.441 2.2.817.817 1.113.528 1.113-1.087q0-3.623-1.554-1.113m-27.882 4.62c-.542 1.425-.428 1.54.56.56.684-.679.991-1.486.683-1.793-.308-.308-.867.247-1.243 1.233m3.028 1.656c-.347 1.849-1.486 4.136-2.531 5.082-1.814 1.642-2.027 1.575-4.73-1.487-1.557-1.763-2.727-3.573-2.601-4.022.127-.45-1.415-.13-3.427.711-2.012.84-4.948 1.339-6.524 1.107-1.577-.231-3.091-.059-3.364.383-1.043 1.688 2.631 6.684 5.704 7.755 3.862 1.346 14.25 1.459 16.645.181.955-.51 2.543-1.178 3.529-1.485 1.436-.447 1.585-.947.75-2.507C82.469 90.009 82 87.527 82 85.566c0-4.512-1.575-4.645-2.408-.203m48.989-.011c-1.844 1.844-3.651 4.294-4.017 5.445-1.53 4.823 10.222 7.5 17.105 3.895 2.793-1.463 6.331-6.42 6.331-8.871 0-.48-1.373-.163-3.05.705-2.981 1.542-3.116 1.508-5.902-1.474-3.671-3.93-6.312-3.854-10.467.3m-57.017-1.059c.376.986.935 1.541 1.243 1.233s.001-1.114-.683-1.793c-.988-.98-1.102-.865-.56.56m60.686-.63c-1.588.64-1.617 3.57-.05 5.137.933.933.711 1.2-1 1.2-1.21 0-2.193.338-2.185.75.04 1.964 1.863 2.814 5.971 2.783 3.462-.025 4.564-.433 4.824-1.783.241-1.252-.31-1.75-1.937-1.75-1.768 0-2.006-.267-1.073-1.2 1.41-1.41 1.609-4.8.282-4.8-.505 0-1.518-.189-2.25-.421-.733-.231-1.894-.194-2.582.084M51.556 96.91c-.834 1.348.436 4.015 2.415 5.074 1.479.792 1.663.551 1.245-1.634-.298-1.557.054-2.907.897-3.441.997-.632.631-.883-1.304-.894-1.48-.008-2.944.394-3.253.895m82.287 8.591c-.325 5.216-.22 5.502 2.024 5.5 1.966-.001 2.264-.382 1.763-2.251-.331-1.237-.609-3.713-.616-5.5-.009-2.121-.503-3.25-1.421-3.25-.998 0-1.508 1.601-1.75 5.501M77.5 103c-.34.55-.141 1 .441 1S79 103.55 79 103s-.198-1-.441-1-.719.45-1.059 1m36.176 3.75c-.682 1.159 1.128 5.25 2.323 5.25 1.703 0 2.337-2.89.99-4.513-1.348-1.624-2.623-1.908-3.313-.737m-33.773 8.021c-1.093 1.447-1.085 1.532.048.526.94-.835 1.921-.901 3.202-.215 1.016.544 1.847.763 1.847.488s-.853-.956-1.895-1.514c-1.451-.777-2.201-.609-3.202.715m45.528-.574c-.413.717-.383.969.067.562.45-.408 1.495-.183 2.323.5 1.224 1.01 1.416.973 1.029-.196-.652-1.974-2.508-2.444-3.419-.866m-82.352.471c-.149 2.204 1.158 4.389 3.289 5.495l2.132 1.108-2.123-2.385c-1.167-1.312-2.369-3.061-2.671-3.886s-.584-.974-.627-.332m150.116 1.832c.02 1.65.244 2.204.498 1.231s.237-2.323-.037-3-.481.119-.461 1.769m-129.445.58c-1.035.603-1.709 2.122-1.65 3.72l.099 2.7.713-2.5c.49-1.718 1.391-2.476 2.88-2.423 1.69.06 1.924-.214 1.065-1.25-.606-.73-1.159-1.313-1.229-1.297s-.915.489-1.878 1.05m58.947.313c-.409 1.041-.508 2.129-.221 2.417.913.912 1.715-.583 1.333-2.482-.35-1.74-.404-1.737-1.112.065M84 118.5c0 1.812-2.628 2.008-3.338.25-.317-.785-.533-.831-.583-.122-.043.62.583 1.677 1.393 2.349 1.175.975 1.781.913 3-.306C86.21 118.933 86.488 117 85 117c-.55 0-1 .675-1 1.5m-12.985 1.25c.016 1.845 1.934 5.47 1.983 3.75.016-.55.301-2.013.632-3.25.444-1.654.175-2.25-1.013-2.25-.89 0-1.61.787-1.602 1.75m55.39.5-1.905 2.25 2.25-1.905c1.237-1.048 2.25-2.06 2.25-2.25 0-.8-.805-.209-2.595 1.905m65.22 2.875c-.834 4.168-.026 4.976.875.875.38-1.729.482-3.351.227-3.606s-.751.974-1.102 2.731M60 124.5c.685.825 1.695 1.5 2.245 1.5.558 0 .449-.663-.245-1.5-.685-.825-1.695-1.5-2.245-1.5-.558 0-.449.663.245 1.5"/><path fill-opacity=".11" fill-rule="evenodd" d="M85.5 7.094c-7.912 1.589-19.123 5.145-17.75 5.631.688.243 1.25 1.109 1.25 1.926 0 1.013.615 1.289 1.939.868 2.255-.715 4.42 2.382 3.443 4.927-.519 1.352-.208 1.438 2.069.573 1.474-.561 3.662-1.013 4.864-1.006 1.202.008-1.467 1.285-5.929 2.839-15.129 5.266-26.551 13.146-36.676 25.302-2.591 3.11-4.71 5.903-4.71 6.206s-1.314 2.781-2.921 5.506C20.503 77.803 18.063 103.082 24.889 124c7.011 21.486 19.092 36.394 37.89 46.756 9.073 5.001 14.805 6.948 25.721 8.736 6.054.991 7.005 1.334 3.91 1.409-2.25.054-7.65-.811-12-1.924-30.204-7.724-52.72-31.157-59.831-62.268-.351-1.535-1.074-2.521-1.608-2.191s-.971.123-.971-.459.45-1.059 1-1.059 1-.477 1-1.059-.399-.812-.887-.511c-1.421.879-3.212-2.008-2.46-3.967.509-1.328.343-1.579-.641-.971-.989.612-1.188.29-.783-1.261.382-1.458.148-1.929-.779-1.573-.728.279-1.114 1.054-.858 1.722.299.778-.531 1.197-2.313 1.167l-2.779-.048L8.554 95c.03-6.325.643-13.887 1.363-16.804 2.141-8.677.516-6.984-1.928 2.009-4.35 16.001-2.81 35.77 4.214 54.111 2.714 7.088 3.494 9.602 3.72 11.993.043.445.522.534 1.066.198.543-.336.755-.003.47.74-.913 2.378 7.493 13.989 16.471 22.753 10.481 10.231 21.441 17.029 34.808 21.591 13.211 4.509 22.288 5.772 36.762 5.114 19.239-.875 36.936-7.208 52.686-18.855 10.41-7.698 21.576-20.664 27.169-31.55 3.157-6.144 1.601-4.585-4.267 4.274-3.252 4.909-8.053 10.951-10.669 13.426l-4.756 4.5 3.903-4.89c4.504-5.642 4.803-7.406 1.684-9.933-2.36-1.911-3.035-4.677-1.143-4.677.609 0 .839-.699.511-1.554s.526-3.77 1.899-6.479c16.387-32.34 11.176-70.958-13.157-97.496-1.023-1.116-4.783-4.491-8.357-7.5s-7.118-6.304-7.878-7.323c-1.111-1.49-1.548-1.588-2.238-.5-.713 1.126-.859 1.127-.872.008-.008-.739.841-1.567 1.887-1.841 1.314-.343 1.82-1.242 1.637-2.906-.17-1.55.248-2.409 1.172-2.409 3.154 0 .481-3.45-4.711-6.081-10.609-5.374-22.2-8.063-36.5-8.464-7.15-.201-15.25.087-18 .639M70 13.059c0 .582.45.781 1 .441s1-.816 1-1.059S71.55 12 71 12s-1 .477-1 1.059m1.636 5.447c-.348.907.003 1.494.895 1.494 1.618 0 1.986-1.563.574-2.435-.493-.305-1.153.119-1.469.941m14.177 1.177c.721.289 1.584.253 1.916-.079s-.258-.568-1.312-.525c-1.165.048-1.402.285-.604.604M65.509 34.804C44.486 45.919 29.81 70.663 29.88 94.875c.038 13.013.367 17.09 1.332 16.494.482-.298 1.531.003 2.332.667 1.199.996 1.456.824 1.456-.973 0-1.462-.412-1.944-1.25-1.462-.687.396-.899.334-.471-.136 1.279-1.406 3.721-1.387 3.721.03 0 2.123 3.637.598 4.833-2.027.592-1.299 2.222-3.113 3.623-4.031 2.401-1.573 3.964-1.563 9.156.063 1.591.498 2.241.169 2.635-1.335.287-1.098.034-2.484-.563-3.081-.779-.779-.603-1.084.624-1.084 1.456 0 1.525-.294.465-1.993-1.367-2.187-3.985-1.902-7.023.766-1.539 1.352-1.75 1.356-1.75.037 0-1.705 2.579-4.177 5.413-5.189 1.326-.474 2.737.106 4.598 1.89 2.268 2.173 3.896 2.659 10.458 3.124 6.369.451 8.39.218 11.2-1.292 2.63-1.413 3.299-2.309 2.867-3.843-.31-1.1-.843-3.912-1.185-6.25-.696-4.751-1.978-5.26-5.49-2.18L74.5 85.139l2.673-.569c2.664-.568 2.668-.559 1.187 2.41-2.32 4.651-3.03 4.687-6.702.34-1.805-2.137-1.8-2.17.25-1.634 2.334.611 2.794-.859.789-2.522-.947-.786-2.07-.683-4.114.377-1.546.803-4.56 1.459-6.697 1.459H58v-4.917c0-3.039-.477-5.079-1.25-5.343-.983-.336-.998-1.112-.067-3.636 1.095-2.971 1.003-3.29-1.25-4.317-1.338-.609-2.433-1.766-2.433-2.57 0-1.232-.254-1.252-1.615-.121-1.403 1.163-1.566 1.081-1.242-.628.454-2.395 5.478-3.144 10.155-1.514 4.114 1.434 13.176-.472 16.947-3.564 4.061-3.332 6.585-3.854 8.827-1.825 1.06.96 1.939 2.238 1.953 2.84C88.09 62.317 99 64.813 99 61.916c0-.469-1.011-.478-2.246-.021-2.798 1.035-9.181-3.339-8.284-5.677.31-.809.052-2.089-.575-2.845-.627-.755-.834-1.373-.461-1.373 1.287 0-2.299-4.248-4.535-5.373-1.233-.62-2.447-1.752-2.7-2.516-.278-.843-.014-1.115.671-.691.729.45 1.13-.222 1.13-1.892 0-1.425-.647-2.839-1.437-3.142-.802-.308-1.202-1.287-.906-2.219.447-1.4.365-1.431-.508-.196-1.26 1.782-2.578.69-2.619-2.171-.048-3.333-3.393-3.029-11.021 1.004M79.5 40c-.34.55-.141 1 .441 1S81 40.55 81 40s-.198-1-.441-1-.719.45-1.059 1m58.935 3.357c.156 1.423-.103 2.348-.576 2.056-.472-.292-.859-.036-.859.57 0 .605-.903 2.069-2.006 3.253-1.219 1.309-1.775 2.88-1.417 4.007.324 1.019.097 2.445-.504 3.168-.859 1.036-.557 1.257 1.418 1.041 1.38-.152 2.509.134 2.509.636s-.9.912-2 .912-2 .45-2 1-.9 1-2 1-2 .408-2 .907 2.588 1.09 5.75 1.312c4.838.341 6.146.058 8.25-1.785 1.375-1.204 3.589-2.752 4.921-3.438 3.712-1.915 5.464.994 4.52 7.504-.871 6.002-.852 9.306.095 16.234.549 4.015.346 5.798-.873 7.657-1.43 2.184-1.434 2.483-.035 3.02.854.327 1.961.343 2.46.034.499-.308 2.146.105 3.66.919 1.514.813 3.539 1.725 4.502 2.026s1.75 1.518 1.75 2.704c0 1.824-.428 2.07-2.779 1.6-2.417-.483-3.036-.076-4.75 3.125-1.182 2.207-2.841 3.805-4.145 3.991-2.302.327-6.267 5.19-4.232 5.19.659 0 .912.871.598 2.068-.802 3.068 1.268 8.028 4.478 10.729 1.557 1.309 2.83 2.968 2.83 3.685s.64 1.55 1.422 1.85c.894.343 1.234 1.405.914 2.857-.41 1.857-.296 2.016.577.811.966-1.333 1.201-1.333 2.111 0 .864 1.266 1.39 1.053 3.38-1.366 6.742-8.2 9.631-32.722 5.708-48.445-3.072-12.312-9.095-23.093-17.862-31.975-4.043-4.095-7.634-7.163-7.981-6.816-.347.346-1.865-.553-3.374-1.999l-2.744-2.629zm-56.402 6.371c-1.311 1.476-1.275 1.579.332.962.989-.379 1.987-.69 2.217-.69s.418-.45.418-1c0-1.471-1.297-1.153-2.967.728M134 52c0 .55.45 1 1 1s1-.45 1-1-.45-1-1-1-1 .45-1 1m-51.397.833c-.283.459.14.834.941.834S85 53.292 85 52.833 84.577 52 84.059 52s-1.173.375-1.456.833M121 57.378c0 .207.787.995 1.75 1.75 1.586 1.243 1.621 1.208.378-.378-1.307-1.666-2.128-2.195-2.128-1.372m-42.559 3.09c-1.067.808-1.434 1.483-.813 1.5.62.018 1.687-.643 2.372-1.468 1.581-1.905.935-1.918-1.559-.032M125 61c0 .55.477 1 1.059 1s.781-.45.441-1-.816-1-1.059-1-.441.45-.441 1m-42.817 1.279c-.958 1.155-.89 1.719.329 2.731 2.011 1.669 2.737.837 1.705-1.953-.704-1.904-1.004-2.018-2.034-.778m22.63-.596c.721.289 1.584.253 1.916-.079s-.258-.568-1.312-.525c-1.165.048-1.402.285-.604.604M110 62c-.901.582-1.025.975-.309.985.655.008 1.469-.435 1.809-.985.767-1.242.421-1.242-1.5 0m-33.5 3c.34.55 1.226 1 1.97 1s2.488 1.35 3.877 3c3.084 3.665 4.313 3.937 2.028.449-2.052-3.132-9.748-7.48-7.875-4.449m39.109.824c-.353.571-.154 1.339.441 1.707 1.486.918 2.012.188 1.021-1.417-.532-.859-1.047-.962-1.462-.29m-56.157 4.269c-2.191 4.236-1.436 4.409 1.252.287C61.916 68.521 62.49 67 61.98 67c-.511 0-1.648 1.392-2.528 3.093M108 68.748c0 .53-1.463 1.377-3.25 1.883-2.945.834-3.337 1.41-4.182 6.145-.867 4.856-3.236 7.413-3.219 3.474.036-8.153-.306-9.25-2.884-9.25-2.742 0-7.013 2.381-7.759 4.325-.324.843.663 1.097 3.294.846 3.017-.287 4.071.092 5.358 1.929 1.471 2.101 1.468 2.434-.033 4.094-2.043 2.257-6.09 2.329-8.496.151C85.083 80.765 85 80.894 85 85.196c0 8.357 3.139 13.004 10.736 15.894 4.347 1.654 12.67 1.267 16.553-.769 6.096-3.196 8.868-7.504 8.925-13.87.041-4.585-.389-6.041-2.44-8.258-1.37-1.481-3.327-4.156-4.348-5.943-1.022-1.787-2.173-3.25-2.56-3.25-.386 0-1.414-.273-2.284-.607s-1.582-.174-1.582.355m-29.756 1.916c-1.771.714-.511 2.336 1.815 2.336C81.127 73 82 72.325 82 71.5c0-1.494-1.368-1.799-3.756-.836m46.444 1.982c-1.416 1.415-.615 3.354 1.385 3.354 1.398 0 1.968-.543 1.75-1.667-.357-1.841-2.064-2.759-3.135-1.687m15.471.663C138.8 74.946 139.614 76 142.24 76c1.242 0 1.794-.581 1.583-1.667-.43-2.219-2.25-2.728-3.664-1.024m-76.909.353C61.29 74.453 61.787 76 64 76c1.111 0 2-.667 2-1.5 0-1.541-.574-1.716-2.75-.838m39.515 4.955c-1.053 2.311-.92 2.839 1.132 4.5 1.278 1.036 3.368 1.883 4.642 1.883 2.519 0 5.461-2.38 5.461-4.416 0-2.216-3.539-4.584-6.85-4.584-2.474 0-3.462.59-4.385 2.617m-15.262.374c-.348 1.095-.351 2.445-.009 3 1.181 1.911 2.173 1.002 2.173-1.991 0-3.412-1.221-3.981-2.164-1.009m16.452-.436c-1.077 1.297-.948 1.897.782 3.626l2.072 2.073-.103-3.627c-.112-3.959-.773-4.457-2.751-2.072m-49.876 4.028c.048 1.165.285 1.402.604.605.289-.722.253-1.585-.079-1.917s-.568.258-.525 1.312m74.016 2.167c-2.106 2.063-4.103 4.909-4.437 6.326-.523 2.215-.116 2.812 2.9 4.25C135.794 99.73 149 93.977 149 85.55c0-1.918-.377-1.924-3.982-.059-2.76 1.427-3.01 1.363-5.873-1.5-3.943-3.943-6.424-3.773-11.05.759m-33.345.33c-2.201 1.282-2.253 3.539-.11 4.739 2.089 1.169.867 3.298-1.422 2.478-.984-.352-1.368-.233-.9.279 1.077 1.176 11.468 1.579 12.153.471.293-.473-.362-.627-1.455-.341s-2.729.234-3.637-.114c-1.529-.587-1.53-.767-.015-2.442 2.152-2.377 2.066-3.85-.298-5.115-2.302-1.232-2.12-1.234-4.316.045m37.25.861c0 1.068.457 2.224 1.016 2.569 1.562.965.131 2.484-1.684 1.787-1.055-.405-1.455-.165-1.167.699.643 1.929 8.835 2.163 8.835.252 0-.874-.59-1.236-1.468-.899-1.717.659-3.043-.915-1.548-1.839.559-.345 1.016-1.501 1.016-2.569 0-1.404-.692-1.941-2.5-1.941s-2.5.537-2.5 1.941M122 96c0 .55.45 1 1 1s1-.45 1-1-.45-1-1-1-1 .45-1 1m-43.25 2.661c-1.561.822-2.75 2.289-2.75 3.394 0 2.027 2.426 2.683 3.5.945.34-.55.063-1-.615-1-.681 0-.181-1.121 1.115-2.5 2.646-2.816 2.583-2.858-1.25-.839m-5.937 1.022c.721.289 1.584.253 1.916-.079s-.258-.568-1.312-.525c-1.165.048-1.402.285-.604.604m60.188 6.133c-.001 6.175.056 6.31 2.53 6 1.392-.174 2.517-.654 2.5-1.066s-.031-3.177-.031-6.144c0-5.125-.125-5.387-2.499-5.25-2.387.137-2.5.429-2.5 6.46M11.605 101.17c.461.745.21.973-.691.628-.977-.375-1.463.266-1.574 2.077l-.159 2.62 1.909-2.358c2.133-2.633 2.442-4.137.851-4.137-.582 0-.734.526-.336 1.17m46.494 2.225c-1.237 1.316-1.866 2.631-1.397 2.921.468.289 1.606-.788 2.528-2.395 2.036-3.547 1.807-3.653-1.131-.526M82.2 102.2c-1.405 1.405-1.609 6.429-.293 7.242.498.309.671-.339.384-1.439s.214-3.125 1.116-4.501c1.692-2.582.913-3.422-1.207-1.302m-43.063 2.465c.569.686.702 1.787.295 2.446-.438.708-.318.937.293.559.568-.351 1.262-1.514 1.542-2.584.375-1.433.025-1.908-1.328-1.806-1.349.101-1.562.469-.802 1.385M110.5 104c.34.55.816 1 1.059 1s.441-.45.441-1-.477-1-1.059-1-.781.45-.441 1M36 106.059c0 .582.45.781 1 .441s1-.816 1-1.059-.45-.441-1-.441-1 .477-1 1.059m77.2.141c-1.845 1.845-1.451 5.586.659 6.255 4.572 1.451 6.873-2.578 3.312-5.8-2.183-1.976-2.423-2.003-3.971-.455m-70.039 3.347c-1.931 4.238-1.454 9.134 1.062 10.896C46.678 122.164 54 122.58 54 121c0-.55-1.125-1-2.5-1-4.182 0-6.743-3.474-6.336-8.593.395-4.973-.294-5.613-2.003-1.86M86.5 108c.34.55 1.041 1 1.559 1s.941-.45.941-1-.702-1-1.559-1-1.281.45-.941 1M8 109c0 .55.477 1 1.059 1s.781-.45.441-1-.816-1-1.059-1-.441.45-.441 1m63.813-.317c.721.289 1.584.253 1.916-.079s-.258-.568-1.312-.525c-1.165.048-1.402.285-.604.604m30.254.736c-.93 1.121-.799 1.64.628 2.47.993.578 1.243 1.064.555 1.081-1.756.042-1.569 2.03.191 2.03 1.961 0 3.019-1.94 1.75-3.209-.569-.569-.797-1.655-.506-2.413.692-1.804-1.11-1.775-2.618.041M124 109.5c0 .825.661 1.5 1.469 1.5.894 0 1.243-.586.893-1.5-.317-.825-.978-1.5-1.469-1.5s-.893.675-.893 1.5m-72.878 3.42c.944 2.708 3.539 4.752 4.638 3.653.552-.552-3.923-6.436-4.958-6.518-.384-.03-.24 1.259.32 2.865m-40.563-.388c-2.496 1.888-1.57 1.876 2.077-.026 1.575-.821 2.189-1.482 1.364-1.468s-2.374.686-3.441 1.494m69.108 1.135c-2.481 2.481 1.109 9.333 4.89 9.333 1.948 0 2.443-.513 2.443-2.535 0-4.873-4.805-9.327-7.333-6.798m43.406 1.968c-3.934 5.001-1.567 9.229 3.359 6.002 2.976-1.95 4.136-5.247 2.528-7.185-1.774-2.138-3.557-1.78-5.887 1.183m14.86 2.615c.336 2.518 1.076 4.209 1.817 4.15.688-.055 2.262-.212 3.5-.35 2.182-.242 2.174-.271-.25-.949-1.486-.416-2.558-1.491-2.644-2.65a340 340 0 0 0-.25-3.201c-.058-.687-.699-1.25-1.423-1.25-.972 0-1.169 1.114-.75 4.25m-41.312-1.796c.585 1.525 4.236 4.076 4.833 3.377.155-.182-1.007-1.377-2.583-2.654-2.023-1.641-2.684-1.853-2.25-.723M149 116c0 .55.477 1 1.059 1s.781-.45.441-1-.816-1-1.059-1-.441.45-.441 1m-86.677 1.935c-.972 1.136-2.792 2.065-4.045 2.065-2.82 0-2.866.983-.205 4.365 2.609 3.318 5.895 3.362 8.941.12 1.967-2.094 2.202-2.97 1.403-5.24-1.207-3.432-3.8-3.989-6.094-1.31M70 119.941c0 3.489 1.648 4.839 3.566 2.921 1.868-1.867.721-5.862-1.683-5.862-1.417 0-1.883.727-1.883 2.941m80-1.37c0 .315.675 1.247 1.5 2.072 1.628 1.628 1.832 1.386.893-1.061-.57-1.487-2.393-2.256-2.393-1.011m-50.25 3.091c.688.278 1.813.278 2.5 0 .688-.277.125-.504-1.25-.504s-1.937.227-1.25.504m69.212 20.088c-4.728 8.42-19.805 23.043-28.962 28.089-8.913 4.913-20.39 8.916-29.154 10.168l-6.346.907 6.508-.397c22.855-1.393 49.321-19.477 60.392-41.267 2.759-5.43 1.005-3.631-2.438 2.5m-105.883-1.167c.048 1.165.285 1.402.604.605.289-.722.253-1.585-.079-1.917s-.568.258-.525 1.312m35.683 41.124c1.244.239 3.044.23 4-.02s-.062-.446-2.262-.435-2.982.216-1.738.455"/><path fill-opacity=".142" fill-rule="evenodd" d="M103.728 7.722c1.775.221 4.925.224 7 .008 2.074-.217.622-.397-3.228-.402-3.85-.004-5.548.173-3.772.394m12.085.961c.721.289 1.584.253 1.916-.079s-.258-.568-1.312-.525c-1.165.048-1.402.285-.604.604M86.5 20.503C64.58 24.645 46.913 36.38 34.879 54.791c-7.184 10.992-10.853 21.447-11.836 33.735-1.888 23.589 3.428 42.634 16.881 60.474 2.695 3.575 4.828 6.756 4.739 7.07-.468 1.638 12.994 11.659 20.832 15.507 12.925 6.345 19.611 7.876 34.505 7.897 16.685.024 28.539-3.205 42.739-11.641 7.5-4.456 19.981-16.889 24.557-24.464 9.429-15.607 13.901-36.189 11.704-53.87-3.747-30.156-23.471-55.243-51.366-65.337-13.788-4.989-27.595-6.217-41.134-3.659m2.036 4.61c-14.858 2.164-27.105 8.377-38.124 19.34-8.723 8.679-13.895 16.845-17.845 28.177-6.85 19.652-5.532 44.259 3.43 64.023C43.359 152.89 60.581 167.224 80 173.278c2.449.763 3.014.762 2.75-.006-.138-.4-.7-.803-1.25-.894-.55-.092-3.925-1.677-7.5-3.522-5.082-2.624-6.436-3.792-6.208-5.356.235-1.61.099-1.713-.696-.529-.543.809-1.319 1.139-1.725.733-.406-.405-.205-1.27.446-1.921 1.881-1.881 1.37-3.26-.567-1.531-1.467 1.308-1.951 1.342-2.99.207-.781-.852-.873-1.58-.25-1.965.544-.337.997-.023 1.005.697.012.994.201 1.018.785.098.424-.666 2.843-2.128 5.378-3.249 4.134-1.829 6.174-3.921 5.545-5.686-.123-.344.79-.999 2.027-1.457 2.669-.987 2.859-3.038.601-6.484-2.044-3.12-.641-4.954 3.076-4.021 2.462.618 3.242 2.784 2.648 7.358-.09.688.532 1.25 1.381 1.25 1.098 0 1.544-1.011 1.544-3.5 0-1.925-.45-3.5-1-3.5s-1-.45-1-1c0-1.42 10.355-1.245 11.8.2.933.933 1.2.933 1.2 0 0-.66-.498-1.2-1.107-1.2-.616 0-.827-.729-.477-1.641.55-1.433.415-1.465-1.057-.25-1.533 1.264-1.58 1.191-.517-.803 1.557-2.922 2.965-3.701 2.795-1.545-.236 2.99 3.674 2.067 6.125-1.447 1.433-2.054 2.807-3.033 3.75-2.671.818.314 1.488.796 1.488 1.071s-.725.222-1.611-.118c-1.18-.453-1.448-.192-1 .974.336.877.611 1.786.611 2.02 0 .235.9-.135 2-.822s2-1.765 2-2.395 1.612-1.91 3.581-2.845c1.97-.934 3.406-1.875 3.191-2.089-.215-.215-6.797-.5-14.628-.635-13.847-.237-22.655-1.736-10.644-1.811 5.843-.036 5.944-.083 3.867-1.765-2.751-2.229-4.367-5.434-4.367-8.662 0-2.844-1.629-3.289-4.46-1.219-1.277.934-1.489 1.566-.691 2.059.633.392 1.151 1.168 1.151 1.726 0 .557-1.154.106-2.564-1.004-4.544-3.574-7.876.28-5.082 5.879 1.381 2.769 1.358 2.993-.308 2.993-.991 0-2.361.675-3.046 1.5s-2.427 1.514-3.872 1.532c-1.446.017-3.502.692-4.569 1.5-3.37 2.549-4.051 1.591-1.077-1.514 2.244-2.342 3.153-2.736 4.238-1.836 1.058.879 1.753.774 2.976-.45 1.327-1.326 1.429-2.441.605-6.606-.545-2.756-.673-5.524-.285-6.152.388-.627.942.961 1.232 3.53.289 2.568 1.035 5.179 1.658 5.802.842.842.972.335.509-1.983-.477-2.384-.13-3.608 1.481-5.219 2.56-2.56 2.62-3.095.354-3.136-.963-.017-2.624-.692-3.691-1.5-1.068-.807-2.946-1.468-4.174-1.468-1.227 0-4.238-1.532-6.691-3.403-3.771-2.88-4.669-3.193-5.826-2.036s-1.368 1.008-1.368-.969c0-1.459.47-2.157 1.25-1.858 1.613.619 1.547-.759-.142-2.984-1.539-2.027-3.83-2.227-6.924-.604-2.168 1.137-2.17 1.129-.279-1 2.405-2.709 4.361-2.714 7.23-.019 1.47 1.381 4.298 2.387 8.064 2.869 3.913.5 4.689.784 2.384.873-3.463.133-3.751 1.063-.479 1.543 2.024.297 3.217 2.588 1.347 2.588-.668 0-2.843-.944-4.833-2.098L61.5 97.804l3.211 3.049c1.766 1.677 5.056 3.546 7.312 4.153 2.256.608 4.861 1.347 5.79 1.644 1.411.451 1.447.369.215-.502-1.27-.898-1.236-1.131.25-1.701.947-.364 1.722-1.219 1.722-1.901s.903-2.281 2.006-3.553c2.073-2.39 1.879-4.278-.223-2.176-.651.651-1.656 1.167-2.233 1.147s.158-1.032 1.635-2.25c2.531-2.087 2.652-2.572 2.111-8.464-.389-4.236-1.001-6.25-1.9-6.25-.729 0-1.791-.87-2.361-1.934-1.425-2.663-1.305-3.107.639-2.361 1.268.487 1.518.237 1.031-1.031-.715-1.864.344-2.225 1.915-.654.694.694 1.453.212 2.371-1.503 1.221-2.283 1.119-2.772-1.07-5.116-4.939-5.286-7.541-5.671-19.182-2.836C61.983 66.236 57 71.18 57 73.243c0 .6-.258.832-.574.517-.315-.316.141-1.956 1.014-3.645 1.556-3.007 1.537-3.083-.926-3.701C55.131 66.067 54 65.157 54 64.392c0-.766-.765-1.392-1.7-1.392-1.302 0-1.425-.275-.526-1.174s2.294-.883 5.95.07c8.241 2.147 15.344 1.053 20.125-3.1 3.865-3.357 7.073-3.36 8.736-.009.625 1.257 2.803 3.136 4.84 4.175 2.987 1.522 4.287 1.686 6.706.842 1.651-.575 5.218-.833 7.927-.572 4.482.43 5.284.167 8.889-2.918l3.961-3.391 3.836 3.464c3.563 3.22 4.356 3.482 11.188 3.704 5.561.18 7.624-.125 8.461-1.252 1.939-2.609 6.535-5.081 8.235-4.428 1.399.536 1.539 1.629.947 7.36-.916 8.864-.913 8.97.427 14.468.965 3.957.895 5.262-.423 7.904C149.405 92.5 149.556 93 153.04 93c3.799 0 11.235 3.696 10.671 5.304-.232.658-1.561 1.074-2.955.926-1.979-.212-2.99.501-4.611 3.25-1.466 2.483-2.79 3.52-4.495 3.52q-2.418-.001-3.181 2.25c-1.267 3.73-1.208 8.098.148 10.851 1.623 3.298.209 4.954-4.067 4.763-2.45-.11-2.596-.223-.742-.577 2.851-.545 2.35-2.668-.736-3.12-1.95-.285-2.215-.816-1.873-3.75.303-2.588.024-3.419-1.15-3.425-1.223-.006-1.573-1.341-1.662-6.335-.113-6.297-.101-6.325 2.5-5.858 1.437.258 3.176.914 3.863 1.458.898.71 1.25.505 1.25-.728 0-.944-.895-1.95-1.989-2.236s-1.714-.964-1.379-1.506c.335-.543-.347-.475-1.516.151s-4.599 1.167-7.621 1.203-5.495.469-5.495.962c0 .494 1.158.897 2.574.897 2.45 0 2.562.236 2.315 4.886-.186 3.511.215 5.361 1.426 6.572 1.883 1.883 2.204 3.542.685 3.542-.55 0-1.007 1.237-1.015 2.75-.029 5.145-1.68 6.017-11.704 6.181-3.322.054-4.096.388-3.643 1.569.317.825.051 1.5-.59 1.5s-.874.472-.518 1.049c.445.72 1.075.693 2.015-.087 1.589-1.318 3.455-.473 3.455 1.566 0 .81.607 1.176 1.427.862 1.064-.409 1.278.021.843 1.687-.404 1.543-.226 2.014.572 1.52.726-.448 1.158.012 1.158 1.233 0 1.42.914 2.119 3.376 2.581 3.002.563 3.445 1.067 4.004 4.564.346 2.162 1.189 4.289 1.874 4.728 1.954 1.25 3.885 5.263 3.125 6.492-.378.613-.274.858.233.545.506-.313 1.454.56 2.105 1.94 1.039 2.201.876 2.818-1.327 5.021-4.065 4.065-1.972 3.792 3.841-.502 23.31-17.221 33.814-48.056 26.367-77.41-5.123-20.197-16.461-35.677-33.578-45.846-7.267-4.318-20.238-9.385-26.522-10.362-2.199-.342-4.498-1.288-5.108-2.101-1.244-1.658-7.117-1.786-16.854-.367M78.494 60.006c-.998 1.104-1.521 2.301-1.161 2.661.73.729 4.667-2.496 4.667-3.822 0-1.46-1.619-.924-3.506 1.161m2.849 2.542c-.344.897.195 2.131 1.282 2.933 1.612 1.19 1.922 1.175 2.21-.107.798-3.557-2.261-6.033-3.492-2.826m62.565 1.551c-2.706 2.896-3.393 3.111-10.494 3.28-4.825.114-8.265-.286-9.424-1.099-1.694-1.186-1.799-.973-1.458 2.971.202 2.337.39 4.767.418 5.4s1.625 2.081 3.55 3.216c4.115 2.429 4.713 4.654 1 3.722-2.211-.555-2.504-.307-2.533 2.142-.018 1.523-.823 5.057-1.79 7.853-1.431 4.14-1.518 5.308-.467 6.29.709.662 1.29 2.852 1.29 4.865 0 2.559.316 3.345 1.051 2.61 1.213-1.213 1.339-3.69.387-7.596l-.67-2.748 3.584 1.498c4.774 1.994 6.858 1.892 12.705-.623 3.208-1.38 5.657-3.3 7.017-5.499 1.889-3.058 1.973-3.832.878-8.13-1.442-5.657-1.571-10.078-.484-16.501.974-5.754-.298-6.214-4.56-1.651m-30.408.279c-2.471 1.941-4.499 2.435-11.5 2.799-10.008.521-12.96 2.042-15.951 8.222-2.432 5.023-2.584 9.438-.559 16.255 1.303 4.387 2.095 5.346 6.307 7.639 9.854 5.363 18.723 4.45 25.835-2.662 3.583-3.583 4.266-4.963 4.878-9.862.466-3.734.288-6.827-.519-8.982-.677-1.808-1.376-5.182-1.554-7.497-.327-4.248-1.904-8.299-3.222-8.279-.393.006-2.065 1.072-3.715 2.367m1.087.526c-1.125 1.242-1.35 2.125-.652 2.556.586.362 1.065-.044 1.065-.901S115.731 65 116.625 65c1.272 0 1.495.651 1.025 3-.338 1.692-.175 3 .375 3 1.473 0 1.169-5.594-.373-6.874-1.027-.852-1.758-.666-3.065.778m-23.98 12.678c-.911 2.374-.731 5.223.372 5.905C92.51 84.434 96 82.124 96 80.165c0-3.581-4.232-5.608-5.393-2.583m16.583 2.168c.241 2.917.774 3.816 2.398 4.048 1.148.164 2.663-.396 3.368-1.245 1.052-1.267.987-1.99-.361-4.048-.903-1.378-2.558-2.505-3.678-2.505-1.743 0-1.993.542-1.727 3.75m-43.806-1.308c-.98 2.554.074 5.058 2.13 5.058 1.297 0 2.097-.779 2.305-2.245.253-1.78-.043-2.106-1.424-1.576-1.34.514-1.594.282-1.1-1.005.353-.921.192-1.674-.358-1.674s-1.249.649-1.553 1.442m76.866.232c-2.703 1.886-2.907 3.326-.473 3.326 2.088 0 6.223-2.696 6.223-4.057 0-1.438-3.228-1.028-5.75.731M108.5 79c.34.55.816 1 1.059 1s.441-.45.441-1-.477-1-1.059-1-.781.45-.441 1m-38.095 2.155c-.428.692-.276.883.379.478.601-.371 1.542.122 2.09 1.096.93 1.653 1.136 1.621 3.1-.479L78.078 80h-3.48c-1.914 0-3.801.52-4.193 1.155m62.036 3.941c-.373.603-.062 1.711.691 2.464 1.734 1.734 4.398.263 3.545-1.959-.703-1.832-3.23-2.133-4.236-.505m-59.319.808c-2.062 1.305-.316 3.289 2.212 2.512 3.023-.928 3.329-1.385 1.637-2.455-1.812-1.146-2.123-1.151-3.849-.057M94 86.671c0 .919.721 2.469 1.603 3.443 1.533 1.693 1.693 1.688 3.629-.115 2.726-2.54 1.643-4.999-2.201-4.999-2.166 0-3.031.477-3.031 1.671M133.5 91c-.34.55.11 1 1 1s1.34-.45 1-1-.79-1-1-1-.66.45-1 1m15.938 9.25c.045 3.083.474 4.25 1.562 4.25.825 0 1.644-1.013 1.82-2.25.175-1.237.85-2.26 1.5-2.272 1.116-.021-3.19-3.909-4.382-3.956-.31-.012-.535 1.89-.5 4.228M6.272 101c0 2.475.195 3.487.434 2.25.238-1.237.238-3.263 0-4.5-.239-1.237-.434-.225-.434 2.25m67.997-2.307c.973.254 2.323.237 3-.037s-.119-.481-1.769-.461-2.204.244-1.231.498m15.326 2.125c1.152.963 2.294 2.348 2.536 3.076.345 1.033.737.97 1.778-.284 1.127-1.358 1.101-1.61-.164-1.61-.825 0-2.06-.675-2.745-1.5s-1.752-1.485-2.372-1.467c-.621.019-.185.822.967 1.785m27.509-.904c-.781.495-1.12 1.603-.769 2.517.437 1.138-.125 1.919-1.854 2.576-1.365.519-2.481 1.593-2.481 2.386s-.273 2.155-.607 3.025c-.398 1.038-.055 1.582 1 1.582.884 0 1.607.436 1.607.969 0 1.603 3.305-.107 6.568-3.4 2.591-2.614 2.948-3.547 2.293-5.997-1.069-3.997-3.141-5.314-5.757-3.658M82 102c-2.233 2.233-2.501 4.195-.965 7.066 1.435 2.681 4.368 2.582 3.66-.123-.439-1.68-.279-1.843.871-.888.775.643 2.089.908 2.921.588 2.284-.876 1.841-5.3-.71-7.086-2.86-2.004-3.369-1.965-5.777.443m27.766 1.513c-2.637.968-5.229 1.135-8.818.568-5.465-.864-6.713-.02-8.42 5.696-.806 2.7 2.773 10.779 5.398 12.184.953.509 8.464.877 16.693.816l14.961-.111.187-4.296c.137-3.152-.273-4.565-1.54-5.303-1.527-.89-1.467-1.01.523-1.037 1.238-.016 2.25-.48 2.25-1.03s-.648-1-1.441-1-1.73-.468-2.084-1.04c-.419-.678.283-.808 2.014-.373 2.513.63 2.639.488 2.334-2.633-.404-4.133-2.424-4.924-3.96-1.552-.642 1.408-1.998 2.824-3.015 3.146-2.209.701-2.486 3.452-.348 3.452 2.174 0 1.791 1.242-1.012 3.282-1.992 1.45-2.34 1.496-1.862.25 1.338-3.485-4.244-1.172-6.173 2.56-.811 1.567-2.48 3.387-3.709 4.045-2.047 1.096-1.999.886.568-2.479s2.651-3.733.996-4.344c-4.056-1.498-4.476-6.25-.808-9.135 4.257-3.349 3.35-3.901-2.734-1.666m-64.543 1.044c-1.223.856-2.223 2.071-2.223 2.7 0 .826.333.81 1.2-.057 2.592-2.592 8.78-1.083 8.84 2.157.036 1.906.21 1.83 1.576-.691 1.416-2.612 1.393-2.943-.29-4.218-2.439-1.849-6.376-1.802-9.103.109M74.5 104c.34.55 1.068 1 1.618 1s.722-.45.382-1-1.068-1-1.618-1-.722.45-.382 1m65.5 2c0 3.39-.062 3.354 3.475 2.009 2.225-.845 2.448-1.283 1.53-3-.591-1.105-1.96-2.009-3.04-2.009-1.517 0-1.965.685-1.965 3m1.469 4.05c-.95 1.538.351 2.53 1.635 1.246.718-.718.735-1.277.052-1.699-.56-.346-1.319-.142-1.687.453M62.5 112.59c1.874 1.429 1.89 1.588.25 2.517-.962.546-1.75 1.51-1.75 2.143 0 .839.324.826 1.2-.05.66-.66 2.222-1.2 3.471-1.2 1.704 0 2.506.813 3.21 3.25.821 2.843.946 2.937.999.75.073-2.966-5.063-9.014-7.616-8.968-1.586.028-1.563.185.236 1.558m-15.108.832c-.921 2.398 1.391 5.319 4.58 5.787 3.682.541 3.806-.171.528-3.022-1.375-1.196-2.5-2.627-2.5-3.18 0-1.522-1.986-1.206-2.608.415M51.5 123c-.782 1.266.542 1.266 2.5 0 1.293-.835 1.266-.971-.191-.985-.93-.008-1.969.435-2.309.985m69.313 3.683c.721.289 1.584.253 1.916-.079s-.258-.568-1.312-.525c-1.165.048-1.402.285-.604.604M113 133.059c0 .582.45.781 1 .441s1-.816 1-1.059-.45-.441-1-.441-1 .477-1 1.059m-10.298 2.608c.282.733.914 1.333 1.405 1.333s.893-.6.893-1.333c0-.734-.632-1.334-1.405-1.334-.772 0-1.174.6-.893 1.334m-39.67 1.083c.061 1.434 2.847 4.457 3.783 4.104 1.476-.555-.546-4.854-2.283-4.854-.842 0-1.518.338-1.5.75m6.968.156c0 .58.723 2.862 1.608 5.072.884 2.21 1.307 4.806.941 5.77-.49 1.286-.371 1.458.449.645.633-.628.983-3.438.809-6.491-.239-4.184-.697-5.457-2.057-5.716-.963-.183-1.75.141-1.75.72m36 5.594c0 4.34.107 4.5 3.021 4.5 2.232 0 3.312-.637 4.132-2.436 1.175-2.58.587-5.564-1.097-5.564-.652 0-.682.854-.085 2.423.669 1.76.537 2.74-.481 3.586-2.091 1.734-3.49.304-3.49-3.568 0-1.893-.45-3.441-1-3.441s-1 2.025-1 4.5m30.466-2.445c-.397.643-.176 1.506.491 1.919.668.412 1.288 1.149 1.378 1.638.169.907 3.616.77 4.568-.182.289-.289.046-1.292-.54-2.228-1.292-2.061-4.898-2.763-5.897-1.147M88 143.5c0 2.444.452 3.5 1.5 3.5 1.54 0 1.97-2.611.893-5.418C89.33 138.812 88 139.878 88 143.5m42.015-2.464c.026 2.47 1.613 4.375 2.478 2.975.41-.663.017-1.93-.875-2.821-1.349-1.35-1.615-1.375-1.603-.154m-36.842 2.528c.18 1.53.924 2.978 1.654 3.218.935.307 1.23-.385 1-2.346-.18-1.53-.924-2.978-1.654-3.218-.935-.307-1.23.385-1 2.346m3.827-.635c0 2.291 2.765 5.334 4.099 4.51.515-.319-.002-1.898-1.149-3.509-2.449-3.439-2.95-3.609-2.95-1.001m20.215.571c.23 2.417.803 3.06 2.949 3.308 1.966.227 2.835-.229 3.315-1.741.666-2.1.005-4.067-1.367-4.067-.424 0-.735.787-.691 1.75.123 2.71-1.778 2.792-3.206.138-1.279-2.376-1.284-2.372-1 .612m8.785.786c0 .878.43 1.862.956 2.187s.703 1.252.393 2.059c-.382.996.095 1.468 1.485 1.468 3.838 0 3.64-1.828-.584-5.405-1.931-1.635-2.25-1.679-2.25-.309m14.02 1.702c-1.242.767-1.196 1.007.301 1.582 2.087.8 3.449-.2 2.104-1.545-.568-.568-1.522-.583-2.405-.037M80 148.059c0 .582.45.781 1 .441s1-.816 1-1.059-.45-.441-1-.441-1 .477-1 1.059M70 152c-.589 1.1-.845 2-.57 2s.981-.9 1.57-2 .845-2 .57-2-.981.9-1.57 2m6 1c0 .55.423 1 .941 1s1.219-.45 1.559-1-.084-1-.941-1-1.559.45-1.559 1m99.539 6.054c-2.616 3.33-7.42 8.271-10.675 10.979-6.091 5.07-10.625 8.008-9.468 6.136A1.217 1.217 0 0 0 155 174.5c-.568-.351-.793-1.026-.5-1.501s-.262-1.455-1.233-2.181c-2.725-2.033-2.614-3.841.435-7.09 2.238-2.386 1.697-2.154-2.702 1.156-7.042 5.299-21.651 12.505-30 14.798-4.962 1.362-10.049 1.77-21.5 1.724-13.353-.054-15.915-.351-23.337-2.707-8.685-2.756-17.179-6.524-18.337-8.134-.398-.553-1.328-.394-2.273.391-1.359 1.128-1.509 1.092-.998-.237.704-1.836-.906-1.75-4.555.243-2.301 1.256-2.39 1.232-1.116-.312 1.236-1.498 1.128-1.637-1-1.296-1.565.25-2.281.95-2.085 2.036.352 1.946-2.4 5.065-3.252 3.687-.319-.516-.122-1.221.437-1.567 1.25-.773 1.35-3.51.127-3.51-.489 0-.826.739-.75 1.642.319 3.777-2.833 2.029-10.912-6.05-4.713-4.713-7.552-7.112-6.31-5.33 3.66 5.249 14.194 15.21 20.896 19.762C54.545 185.803 66.81 191.39 77 194.13c12.256 3.296 34.744 3.296 47 0 21.559-5.797 42.56-19.991 53.83-36.38 4.525-6.58 3.4-5.94-2.291 1.304m-106.667-.304c-1.243 1.586-1.208 1.621.378.378.963-.755 1.75-1.543 1.75-1.75 0-.823-.821-.294-2.128 1.372m69.128 8.3c-12.401 6.311-24.517 9.293-37.575 9.247-6.251-.022-11.995-.532-13.189-1.171-1.269-.679-2.345-.758-2.692-.198-1.103 1.786 1.854 2.394 13.9 2.858 10.071.388 13.549.111 20.587-1.641 8.36-2.082 23.82-9.055 26.061-11.755 1.438-1.734 1.838-1.884-7.092 2.66"/><path fill-opacity=".324" fill-rule="evenodd" d="M81 21.991c-9.401 2.51-20.06 7.699-27.863 13.565-6.719 5.051-14.6 13.886-13.694 15.351.324.525.063 1.28-.581 1.678q-1.169.722-.43-.68c.408-.773-.162-.293-1.267 1.067s-1.804 2.804-1.553 3.209c.25.405-1.072 3.792-2.938 7.528-7.442 14.895-10.174 28.406-8.675 42.912.777 7.514 4.649 23.064 5.526 22.188.21-.211-.256-3.966-1.036-8.346-4.54-25.48 1.054-51.888 14.844-70.08 14.143-18.659 40.664-29.452 64.9-26.413 8.911 1.117 23.401 5.261 20.44 5.846-1.307.258-.455 1.079 3 2.89 41.116 21.547 54.996 76.622 28.641 113.642-4.91 6.897-3.46 6.852 1.754-.055 5.775-7.648 10.553-17.544 13.055-27.038 2.583-9.801 2.794-25.814.469-35.647-2.029-8.583-8.352-22.224-13.697-29.551-4.041-5.538-1.277-3.047 4.412 3.977l2.807 3.466-2.204-4.183c-7.603-14.434-24.308-27.775-42.41-33.869-6.805-2.291-10.09-2.75-22-3.076-11.686-.321-15.239-.053-21.5 1.619m41.121 39.968c2.798 2.53 5.282 3.925 6.879 3.864l2.5-.095-2.491-.465c-1.37-.256-4.183-1.995-6.253-3.864-2.069-1.869-4.043-3.399-4.387-3.399-.345 0 1.344 1.782 3.752 3.959m24.468-2.103c-.291.47.583.643 1.941.383s2.47-.645 2.47-.856c0-.773-3.899-.356-4.411.473m-45.821 4.869c1.797.222 4.497.218 6-.01 1.503-.229.032-.411-3.268-.405s-4.529.192-2.732.415m36.501.968c.973.254 2.323.237 3-.037s-.119-.481-1.769-.461-2.204.244-1.231.498m12.094 3.926c-.762 3.274-.811 5.497-.149 6.753.542 1.029 1.339 3.954 1.769 6.5.666 3.943.799 4.143.899 1.346.065-1.805-.534-4.842-1.33-6.749-1.091-2.609-1.194-4.198-.418-6.422.566-1.626.881-3.711.698-4.633s-.844.52-1.469 3.205M86 70c0 .55.477 1 1.059 1s.781-.45.441-1-.816-1-1.059-1-.441.45-.441 1m-3.436 7.293c.376.986.935 1.541 1.243 1.233s.001-1.114-.683-1.793c-.988-.98-1.102-.865-.56.56m10.186-.295C94.274 78.707 94.4 82 92.941 82c-.582 0-.81-.403-.506-.895.305-.493-.119-1.153-.941-1.469-1.68-.645-1.893.185-.58 2.26 1.189 1.878 4.086.643 4.086-1.742 0-1.05-.787-2.505-1.75-3.233-1.489-1.127-1.563-1.115-.5.077m14.657 1.515c-.361 1.441-.104 3.147.604 4 1.662 2.003 3.08 1.887 2.284-.187-.487-1.268-.237-1.518 1.031-1.031 2.276.873 2.174-1.533-.155-3.64-2.458-2.225-3.022-2.096-3.764.858m1.232-.819c-1.126 1.126-.685 2.306.861 2.306.825 0 1.5-.423 1.5-.941 0-1.261-1.562-2.164-2.361-1.365m14.361.245c0 1.31 3.788 3.3 5.305 2.787.657-.222-.268-1.163-2.055-2.09-1.787-.928-3.25-1.242-3.25-.697m17.441 1.529c-1.552 1.174-1.628 1.475-.382 1.5.857.018 2.432-.629 3.5-1.436 1.552-1.174 1.628-1.475.382-1.5-.857-.018-2.432.629-3.5 1.436M64 80.409c0 .19.675.906 1.5 1.591.865.718 1.5.815 1.5.229 0-.558-.675-1.274-1.5-1.591s-1.5-.419-1.5-.229m30.363 6.088c-.346.901-.167 2.099.398 2.664 1.63 1.63 4.739.531 4.739-1.675 0-2.543-4.228-3.358-5.137-.989m37.887-.247c.229.688 1.242 1.25 2.25 1.25s2.021-.562 2.25-1.25c.264-.792-.561-1.25-2.25-1.25s-2.514.458-2.25 1.25m-58.692.657c-.309.498.34.671 1.441.383 2.335-.611 2.63-1.29.56-1.29-.793 0-1.693.408-2.001.907m72.454 6.32c-1.96 1.782-2.617 2.792-1.5 2.307 1.094-.475 3.788-.847 5.988-.827 2.86.025 3.188-.092 1.153-.412-2.227-.349-2.737-.866-2.343-2.371.276-1.058.432-1.911.346-1.895s-1.725 1.456-3.644 3.198M119 96.5c-.718.865-.815 1.5-.229 1.5.558 0 1.274-.675 1.591-1.5s.419-1.5.229-1.5-.906.675-1.591 1.5m39.483-.527c.267.432 1.393 1.023 2.503 1.313 1.109.29 1.798.174 1.531-.259-.267-.432-1.393-1.023-2.503-1.313-1.109-.29-1.798-.174-1.531.259m-31.75 1.151c.679.684 1.486.991 1.793.683.308-.308-.247-.867-1.233-1.243-1.425-.542-1.54-.428-.56.56m28.435 3.825c-.585 1.678-.851 3.051-.591 3.051.675 0 2.562-5.195 2.067-5.69-.227-.227-.891.961-1.476 2.639m-8.625 5.982c-.317.512-.118 1.213.441 1.559s1.016-.074 1.016-.931c0-1.757-.6-2.015-1.457-.628m-69.775 1.237c.582.582 1.647.86 2.369.62.749-.25.295-.703-1.057-1.057-1.663-.435-2.054-.305-1.312.437m54.221 8.853c-.595 1.111-.809 2.461-.476 3 1.164 1.883 2.154.954 2.154-2.021 0-3.539-.235-3.676-1.678-.979M144.5 116c-.34.55-.141 1 .441 1s1.059-.45 1.059-1-.198-1-.441-1-.719.45-1.059 1m23.962 51.093c-5.762 5.915-14.337 12.01-21.753 15.462-6.11 2.845-8.003 3.008-10.138.874-1.069-1.07-1.571-1.176-1.571-.334 0 1.95-1.486-.042-1.625-2.178-.263-4.028-.344-4.186-1.625-3.178-.687.541-2.825 1.248-4.75 1.571s-6.776 1.294-10.779 2.158-11.552 1.614-16.774 1.667c-8.474.085-9.665.325-11.075 2.23-1.072 1.449-1.733 1.733-2.059.885-.659-1.716-1.977-1.569-2.695.302-.341.89-.173 1.291.393.941 1.806-1.116 1.022 1.034-1.011 2.775-1.1.942-2 1.258-2 .703 0-.592-1.094-.734-2.649-.344-1.608.403-2.415.286-2.053-.3.348-.563-.552-.797-2.161-.56-5.851.858-25.046-8.304-35.637-17.012-4.294-3.531-4.576-3.65-2-.846 4.282 4.662 17.873 13.488 26.277 17.064 23.131 9.843 50.383 10.121 73.223.747 11.887-4.878 20.679-10.589 29.919-19.432 4.72-4.516 8.339-8.229 8.043-8.25-.295-.021-2.77 2.254-5.5 5.055"/></svg>