<svg xmlns="http://www.w3.org/2000/svg" width="200" height="200" fill="#000000"><path fill-opacity=".365" fill-rule="evenodd" d="M0 100v100h3c2.483 0 3-.405 3-2.352 0-2.857 3.535-8.249 7.176-10.946 1.678-1.243 4.659-2.097 8-2.292 5.184-.302 5.211-.29 1.038.462-2.358.425-5.058 1.58-6 2.567-1.631 1.708-1.609 1.741.47.678 5.828-2.98 14.445-.112 18.403 6.124 1.766 2.784 1.971 2.895 1.406.759-.364-1.375-1.6-3.85-2.747-5.5l-2.085-3 2.307 2c3.259 2.824 6.856 11.745 4.032 10-.55-.34-1-.157-1 .405 0 .645 4.602 1.011 12.446.988l12.446-.035.379-4.179.38-4.179.174 4.25L63 200h8v-4.375C71 188.564 72.02 185 74.042 185c.985 0 2.018.562 2.296 1.25.301.747.536.545.583-.5.045-.987-.636-1.75-1.56-1.75-1.38 0-1.546-.793-1.048-4.999 1.317-11.112 5.376-16.298 20.855-26.639 5.317-3.552 10.209-7.112 10.872-7.91.816-.984 3.206-1.452 7.413-1.452 5.409 0 6.367.29 7.435 2.25.675 1.238 4.914 4.487 9.419 7.221 9.097 5.519 16.128 11.536 18.229 15.598.76 1.47 1.687 5.656 2.061 9.302s1.041 6.629 1.484 6.629c.442 0 1.602 3.546 2.576 7.881 1.714 7.625 1.846 7.847 4.057 6.839 3.919-1.785 2.352-7.475-3.625-13.157-2.906-2.763-3.089-3.373-3.089-10.29 0-10.677-2.506-14.8-14.644-24.099-2.279-1.746-4.607-3.174-5.173-3.174-1.843 0-7.336-5.247-6.435-6.148 1.047-1.047 11.875 4.581 14.858 7.722 1.258 1.325 4.478 2.728 8 3.485 8.212 1.765 9.261 2.464 11.49 7.664 2.766 6.453 3.693 10.818 5.367 25.277.35 3.025.868 7.007 1.151 8.848.298 1.945.123 3.107-.419 2.773-.513-.317-1.256-3.849-1.652-7.849l-.721-7.272-1.341 3.891c-1.143 3.313-1.13 4.103.088 5.321.787.787 1.431 2.244 1.431 3.237s.645 2.341 1.433 2.995c1.16.963 2.207.416 5.5-2.877 2.826-2.826 4.906-4.056 6.817-4.032l2.75.036-2.487 1.377c-1.369.757-2.808 1.178-3.2.936-.94-.581-2.927 3.169-2.111 3.985.347.347.08.631-.594.631s-.948.45-.608 1c.7 1.133 5.805 1.362 6.859.308 1.154-1.154 4.5-1.345 5.15-.294.912 1.476 8.488 1.241 8.506-.264.012-.943.222-.925.855.074.505.797 2.193 1.195 4.235 1l3.395-.324.255-99.75L201.01 0H0zm.481.5c0 55 .121 77.647.269 50.326.148-27.32.148-72.32 0-100C.602 23.147.481 45.5.481 100.5m144.586-28.626c-1.472 2.75-1.339 6.126.242 6.126 2.569 0 4.886-2.577 4.536-5.046-.434-3.06-3.363-3.723-4.778-1.08m-60.4 8.793c-.367.366-.667 1.491-.667 2.5C84 84.52 84.754 85 86.878 85c3.079 0 5.71-2.239 4.649-3.956-.712-1.152-5.805-1.432-6.86-.377m75.479 1.833c-.095 1.65-.405 4.125-.688 5.5l-.514 2.5 1.075-2.465c.592-1.356.901-3.831.688-5.5l-.387-3.035zm-85.529 9.056c-.328.856.02 3.032.773 4.835C76.893 99.988 83.59 107 85.522 107c.668 0-.705-1.92-3.052-4.267-2.692-2.692-4.688-5.83-5.407-8.5-1.252-4.65-1.56-4.986-2.446-2.677M153 91.5c0 .825.45 1.5 1 1.5s1-.675 1-1.5-.45-1.5-1-1.5-1 .675-1 1.5m-54 8c0 .917.484 1.505 1.075 1.308s1.075-.785 1.075-1.308-.484-1.111-1.075-1.308S99 98.583 99 99.5m-3.64 41.893c-1.727 1.159-4.539 2.874-6.25 3.81-1.813.994-3.11 2.507-3.11 3.629 0 1.937-2.287 3.271-8.75 5.106-3.758 1.067-4.267-.113-1.027-2.381 3.102-2.173 1.451-1.942-3.248.456-4.719 2.407-6.524 5.04-7.37 10.747-.348 2.344-1.777 7.744-3.178 12-1.4 4.257-2.914 9.673-3.366 12.036-.794 4.161-.761 4.242 1.06 2.595 1.295-1.173 1.879-1.306 1.879-.429 0 .779.774 1.069 2 .748 1.401-.366 2-.03 2 1.12 0 .904 1.558-.67 3.462-3.498 2.776-4.121 3.597-6.499 4.14-11.987 1.168-11.805 4.984-17.163 19.302-27.105 6.026-4.185 8.08-6.706 6.574-8.07-.585-.528-2.242-.036-4.118 1.223M105.5 161c-1.65.42-2.186.817-1.191.882 1.114.073 1.531.568 1.084 1.291-.399.645.35.42 1.664-.5 2.619-1.835 5.423-2.259 4.443-.673-.34.55.084 1 .941 1s1.559-.42 1.559-.934c0-.513 1.237-1.121 2.75-1.35s.275-.431-2.75-.448-6.85.312-8.5.732m-17.839 2.224c-3.751.993-3.823 1.099-3.159 4.639.875 4.666 1.208 5.137 3.623 5.137 4.236 0 5.875-1.823 5.875-6.535 0-4.849-.092-4.896-6.339-3.241m43.314 2.341c-1.276 3.358-1.399 3.091 1.964 4.264 3.349 1.167 4.848.072 5.293-3.868.438-3.882-2.884-3.725-4.689.222l-1.517 3.317.566-3.25c.677-3.883-.251-4.276-1.617-.685M96.511 180.25c-.631 1.965-.784 2.021-1.201.443-.759-2.866-3.6-1.514-4.554 2.168-1.044 4.031-.133 5.376 1.826 2.696.78-1.066 1.418-1.403 1.418-.748S94.675 186 95.5 186s1.507-.562 1.515-1.25c.011-.847.316-.775.946.221 1.241 1.963 2.003 1.023 2.713-3.347.512-3.16.33-3.624-1.427-3.624-1.208 0-2.303.901-2.736 2.25m5.299 1.25c-.282 2.414-.005 3.5.891 3.5.818 0 1.299-1.296 1.299-3.5 0-1.925-.401-3.5-.891-3.5-.489 0-1.074 1.575-1.299 3.5m3.797-1.918c-1.488 3.877-.715 5.423 2.643 5.282 2.016-.085 2.464-.292 1.18-.546-1.664-.329-1.985-.99-1.637-3.364.455-3.096-1.14-4.097-2.186-1.372m7 0c-1.427 3.717-.691 5.019 2.893 5.121 3.333.094 3.5-.063 3.5-3.302 0-3.084-.269-3.401-2.893-3.401-1.716 0-3.14.644-3.5 1.582m7.956-.812c-.31.31-.563 2.063-.563 3.897 0 3.127.211 3.333 3.417 3.333 2.82 0 3.589-.48 4.406-2.75l.99-2.75.719 3.25c.68 3.08 2.468 4.585 2.468 2.079 0-.644.747-1.997 1.661-3.006 1.812-2.003 1.025-3.909-.843-2.041-.865.865-1.416.815-2.233-.2-1.117-1.387-9.018-2.816-10.022-1.812m41.168 1.15c-.435 1.663-.305 2.054.437 1.312.582-.582.86-1.647.62-2.369-.25-.749-.703-.295-1.057 1.057M122 182.5c0 .825.627 1.5 1.393 1.5s1.652-.675 1.969-1.5c.391-1.02-.054-1.5-1.393-1.5-1.084 0-1.969.675-1.969 1.5m-104.551 8.051c-2.911 1.437-6.449 6.02-6.449 8.353 0 .608 1.744 1.096 3.917 1.096 3.388 0 4.395-.575 7.45-4.25l3.532-4.25-.823 3.655-.823 3.656 4.465.669c2.456.369 4.71.426 5.008.127 1.173-1.173-2.233-6.945-5.146-8.722-3.702-2.257-7.032-2.357-11.131-.334m57.637.574c-.047 1.444-.367 4.031-.711 5.75-.623 3.113-.609 3.125 3.687 3.125h4.312l-2.734-2.854c-1.504-1.57-3.125-4.158-3.602-5.75l-.866-2.896zm73.525 4.318c-1.436 1.883-2.611 3.679-2.611 3.99s1.575.567 3.5.567c3.322 0 3.5-.175 3.5-3.441 0-4.784-1.332-5.123-4.389-1.116M188 193.378c0 .207.787.995 1.75 1.75 1.586 1.243 1.621 1.208.378-.378-1.307-1.666-2.128-2.195-2.128-1.372m-95 5.653c0 .533.675.969 1.5.969s1.5-.177 1.5-.393-.675-.652-1.5-.969-1.5-.139-1.5.393m17.462.03c-.319.517.872.939 2.646.939 3.468 0 3.494-.806.048-1.47-1.163-.224-2.375.015-2.694.531M133 199c-.901.582-1.025.975-.309.985.655.008 1.469-.435 1.809-.985.767-1.242.421-1.242-1.5 0"/><path fill-opacity=".29" fill-rule="evenodd" d="M0 100v100h2.52c2.147 0 2.452-.372 2.062-2.52-.251-1.387-.067-2.28.409-1.986s1.182-.484 1.568-1.729c.828-2.665 5.958-7.577 9.256-8.862 4.185-1.632 11.453-1 15.685 1.363 2.913 1.627 4.679 3.66 6.5 7.48l2.5 5.247 5.5.017c3.025.01 6.421.265 7.547.567 1.891.508 2.148-.158 3.392-8.764.74-5.122 1.69-9.763 2.111-10.313 1.506-1.966 4.943-12.967 5.601-17.926.465-3.505 1.465-5.844 3.272-7.65C70.334 152.513 80.401 148 83.369 148c.711 0 1.864-1.067 2.562-2.372.74-1.382 2.882-2.854 5.133-3.529 2.125-.637 4.485-2.045 5.244-3.129 1.371-1.956 1.395-1.956 3.244.088 2.875 3.176 2.219 3.893-14.043 15.371-3.062 2.161-6.41 5.311-7.441 7-2.221 3.64-4.251 10.571-3.096 10.571.446 0 1.091-1.117 1.434-2.482 1.056-4.208 6.192-9.046 18.076-17.027 6.274-4.214 11.546-8.011 11.713-8.438.168-.427 3.568-1.003 7.555-1.281 6.529-.455 7.25-.324 7.25 1.315 0 2.037.696 2.595 13.809 11.074C144.466 161.405 150 167.412 150 171.65c0 1.293.508 2.35 1.128 2.35 1.819 0 .094-8.029-2.605-12.128-2.522-3.829-11.179-10.872-18.227-14.828-4.37-2.454-6-4.74-4.468-6.272.524-.524 2.769.374 5.436 2.173 2.499 1.687 5.929 3.344 7.623 3.682s2.906.899 2.693 1.245c-.214.345.704.694 2.038.774 2.817.169 5.608 2.18 4.812 3.467-.301.488.154.887 1.011.887 2.326 0 3.094-.396 2.753-1.419-.388-1.164 2.733 1.284 4.997 3.919 3.831 4.458 8.793 22.017 8.82 31.208.017 5.723 1.132 11.322 2.133 10.703.489-.302.584-1.081.212-1.73-.372-.65-.3-.839.159-.422.46.418 1.783-.13 2.939-1.216s3.911-2.613 6.122-3.393c3.51-1.239 4.393-1.228 6.971.085 3.91 1.99 8.453 6.296 8.453 8.012 0 .976 1.086 1.284 3.75 1.063l3.75-.31.255-99.75L201.01 0l-32.255.02L136.5.041l10 4.556c5.5 2.506 10.675 5.14 11.5 5.852s3.106 2.041 5.07 2.952C172.971 17.994 180 31.086 180 44.934c0 7.72-.963 10.652-5.441 16.566-3.347 4.421-5.542 6.428-7.059 6.453-.55.009-.488-.314.139-.718 1.068-.69 3.361-12.49 3.361-17.299 0-1.788-.26-1.965-1.445-.982-1.76 1.461-5.744 1.016-6.31-.705-.246-.745.16-1.031 1.005-.707 1.642.631 1.594.868 2.37-11.542.562-8.974.47-9.611-1.656-11.5l-2.25-2 .564 8.472c.405 6.095.171 9.412-.836 11.822-1.349 3.227-3.442 3.621-3.442.647 0-1.844-.944-1.815-4.885.151-1.755.876-3.918 1.314-4.807.973-1.437-.552-1.41-.77.25-1.984 2.065-1.51 2.203-6.555.337-12.331-1.694-5.242-3.597-4.049-4.074 2.554-.317 4.371-1.1 6.695-3.173 9.413-4.144 5.433-5.117 5.325-5.346-.594-.109-2.818-.499-7.148-.866-9.623-.621-4.18-.736-4.322-1.625-2-.881 2.301-.324 11.501.888 14.657.957 2.496-1.592 1.364-5.673-2.517-3.445-3.278-4.023-3.542-3.829-1.75.126 1.16-.34 4.042-1.035 6.404-1.388 4.72-4.442 6.676-8.741 5.597-3.308-.83-3.987-2.257-1.826-3.837 1.724-1.26 1.719-1.564-.113-7.683-1.05-3.504-2.485-7.496-3.189-8.871s-1.314-3.175-1.354-4c-.147-3.022-2.829 7.464-3.492 13.652-.624 5.821-1.751 8.377-3.101 7.027-.723-.723-2.499-7.805-2.485-9.909.024-3.588-1.603-2.501-3.778 2.525C94.484 47.3 90.423 52 87.832 52c-1.079 0-2.044.996-2.421 2.5-.929 3.699-3.061 3.055-6.624-2-1.745-2.475-3.678-4.5-4.295-4.5-1.533 0-5.176 6.714-5.97 11-.356 1.925-.197 5.501.353 7.946.55 2.446.787 4.793.525 5.216s-1.993.046-3.847-.838c-4.64-2.213-6.907-1.211-6.053 2.675.857 3.903-.883 3.904-2.5.001-.683-1.65-1.836-3-2.562-3-1.78 0-2.731-1.717-1.792-3.236.42-.679.637-2.704.482-4.5-.209-2.424.124-3.264 1.295-3.264.959 0 1.589.882 1.609 2.25.036 2.579 2.147 5.75 3.828 5.75 1.736 0 1.386-1.358-1.408-5.476-1.401-2.065-2.693-4.94-2.871-6.389s-.112-1.96.145-1.135c1.432 4.59 2.29 2.561 2.453-5.8.098-5.06.21-10.213.25-11.45.061-1.933-.507-2.292-4.037-2.551-4.637-.339-5.083.302-7.515 10.801-1.526 6.589-2.239 4.404-1.696-5.2.365-6.456.263-6.865-1.645-6.591-2.619.375-3.782 3.98-6.526 20.23-2.013 11.92-2.061 14.341-.385 19.218.453 1.319-.125 1.062-2.036-.907C31.827 69.905 27 68.989 27 71.309c0 .72-.576 2.096-1.28 3.059-1.112 1.522-1.307 1.131-1.486-2.986-.249-5.719 1.471-11.815 5.645-20.006 3.213-6.304 4.071-10.859 1.91-10.139-.667.222-1.975 2.976-2.909 6.121-.933 3.144-2.128 6.262-2.654 6.929-.527.667-1.355 2.396-1.842 3.841-.744 2.212-1.241 2.495-3.134 1.783-2.761-1.039-2.776-2.07-.211-14.864 3.163-15.779 7.103-24.271 10.358-22.323.607.363.452-.141-.343-1.121-1.299-1.6-1.248-1.746.5-1.442 1.091.19 1.848-.176 1.722-.833-.359-1.879 5.547-7.61 7.193-6.978.807.309 1.697.191 1.977-.263.419-.678 5.46-.681 9.191-.006 3.077.556 4.464-.188 3.865-2.075-.506-1.593-.285-1.86 1.097-1.33 1.227.471 1.505.301.956-.587-.981-1.587-9.533-1.083-11.386.67-.731.693-1.684 1.041-2.117.773-.892-.551 5.845-7.951 8.023-8.811.784-.31-10.613-.599-25.325-.642L0 0zm.481.5c0 55 .121 77.647.269 50.326.148-27.32.148-72.32 0-100C.602 23.147.481 45.5.481 100.5M68.25 2.262C65.912 2.824 64 3.67 64 4.142S62.623 5 60.941 5s-2.801.417-2.487.926c.35.567 1.831.555 3.809-.031 1.781-.527 4.812-.9 6.737-.829 7.156.262 7.847.066 7.29-2.066-.57-2.18-1.635-2.278-8.04-.738m.563 1.421c.721.289 1.584.253 1.916-.079s-.258-.568-1.312-.525c-1.165.048-1.402.285-.604.604m53.739 21.233c-.766 1.239 1.366 10.916 2.569 11.659.574.355.703-.427.322-1.946-.351-1.397-.706-4.357-.79-6.579-.148-3.897-.919-5.047-2.101-3.134M74.098 43.149C72.719 47.104 72.708 47 74.5 47c1.048 0 1.5-1.056 1.5-3.5 0-4.328-.484-4.418-1.902-.351m72.181 26.679c-1.516.936-3.451 6.085-2.727 7.256.803 1.299 3.829 1.135 5.248-.284 2.588-2.588.36-8.753-2.521-6.972M175 77.059c0 .582.45.781 1 .441s1-.816 1-1.059-.45-.441-1-.441-1 .477-1 1.059m-15.44 7.21c-.43 3.871-1.682 7.935-3.303 10.731-1.479 2.55-1.931 3.945-1.043 3.219 3.512-2.873 8.229-18.209 6.021-19.574-.577-.357-1.267 1.959-1.675 5.624m-73.481-4.018c-3.378 1.743-3.667 3.524-.784 4.838 3.333 1.518 6.949-.366 6.516-3.396-.374-2.612-2.45-3.134-5.732-1.442M74.508 91.974c-1.322 4.165 6.849 15.044 11.277 15.015 1.223-.008.774-.753-1.563-2.594C80.674 101.598 77 95.314 77 92.04c0-2.607-1.671-2.651-2.492-.066m77.742-.724c.229.688 1.017 1.25 1.75 1.25s1.521-.562 1.75-1.25c.248-.744-.461-1.25-1.75-1.25s-1.998.506-1.75 1.25m-53.819 7.862c-.862 1.395 1.741 3.116 2.924 1.933.961-.961.035-3.045-1.355-3.045-.485 0-1.191.5-1.569 1.112m25.236 8.555c-1.467 1.466-.551 3.327 1.583 3.217 1.693-.087 1.817-.229.5-.573-2.038-.533-2.3-1.922-.5-2.649.698-.281.771-.539.167-.583-.596-.043-1.384.221-1.75.588M199.158 119c0 1.375.227 1.938.504 1.25.278-.687.278-1.812 0-2.5-.277-.687-.504-.125-.504 1.25M192 120.861c0 .474 1.125.647 2.5.384s2.5-.651 2.5-.862-1.125-.383-2.5-.383-2.5.388-2.5.861M59 136.059c0 .582.45.781 1 .441s1-.816 1-1.059-.45-.441-1-.441-1 .477-1 1.059m-8.5.941c.34.55.816 1 1.059 1s.441-.45.441-1-.477-1-1.059-1-.781.45-.441 1m108.25.08c-.963.561-1.75 1.672-1.75 2.47 0 .797-.45 1.45-1 1.45s-1 .413-1 .917 1.688.074 3.75-.957 4.566-2.114 5.563-2.409c.998-.295 1.534-.99 1.191-1.544-.795-1.287-4.488-1.247-6.754.073m-79.191 13.452c-1.466 1.109-1.574 1.468-.441 1.468.825 0 2.373-.661 3.441-1.468 1.466-1.109 1.574-1.468.441-1.468-.825 0-2.374.66-3.441 1.468m115.711 9.537c-.173 2.297.298 2.499 1.079.463.31-.807.227-1.676-.185-1.931-.412-.254-.814.406-.894 1.468m-18.811 1.998c-.363.586-.445 1.281-.183 1.543s.743-.218 1.069-1.067c.676-1.762.1-2.072-.886-.476M88.638 164.5c.317.825 1.428 1.5 2.469 1.5S93 165.325 93 164.5c0-.928-.941-1.5-2.469-1.5-1.783 0-2.308.416-1.893 1.5m-3.832 2.965c.481 4.122 2.335 5.942 5.144 5.051 1.936-.614 1.885-.784-.952-3.172-1.649-1.387-2.998-3.157-2.998-3.933S85.64 164 85.201 164s-.617 1.559-.395 3.465M151.158 179c0 1.375.227 1.938.504 1.25.278-.687.278-1.812 0-2.5-.277-.687-.504-.125-.504 1.25m-52.743-.235c-.597.404-1.596 1.635-2.22 2.735-1.103 1.945-1.135 1.938-1.165-.25-.057-4.247-3.549-2.178-4.219 2.5-.568 3.969.416 4.23 1.89.5 1-2.533 1.095-2.572 1.193-.5.127 2.686 1.61 2.931 3.026.5.943-1.619 1.021-1.604 1.05.2.043 2.804 1.68.713 2.504-3.2.675-3.202.073-3.928-2.059-2.485m4.335-.194c-.412.419-.75 2.127-.75 3.796 0 2.169.307 2.726 1.078 1.955.593-.593.931-2.301.75-3.796-.18-1.495-.666-2.375-1.078-1.955m3.236.679c-.007.688-.285 2.262-.616 3.5-.543 2.024-.264 2.236 2.763 2.114 2.276-.092 2.65-.275 1.155-.565-1.859-.36-2.118-.897-1.625-3.364.371-1.855.173-2.935-.538-2.935-.619 0-1.131.563-1.139 1.25m7-.066c-.007.724-.272 2.279-.588 3.457-.511 1.907-.21 2.112 2.764 1.878 2.95-.232 3.338-.597 3.338-3.141 0-2.396-.46-2.931-2.75-3.194-1.763-.203-2.755.156-2.764 1m7.439 2.259c-.828 3.297.145 4.557 3.517 4.557 2.286 0 2.925-.523 3.349-2.744.688-3.6.175-4.256-3.331-4.256-2.265 0-3.06.55-3.535 2.443m-6.425-.55c0 .491.675 1.152 1.5 1.469.914.35 1.5.001 1.5-.893 0-.808-.675-1.469-1.5-1.469s-1.5.402-1.5.893m15.313.439c.378 1.007.687 2.695.687 3.75 0 2.922 1.319 2.24 3.124-1.615 1.459-3.116.947-5.009-.654-2.418-.436.704-1.172.623-2.246-.25-1.375-1.118-1.502-1.043-.911.533M122 183.073c0 2.563 3.31 2.272 3.812-.334.231-1.2-.308-1.739-1.739-1.739s-2.073.642-2.073 2.073m30.659.927c.596.825 1.648 3.975 2.338 7s1.396 6.028 1.568 6.672c.443 1.66 4.435.411 4.435-1.388 0-2.668-3.03-7.941-6.258-10.891-1.741-1.591-2.678-2.218-2.083-1.393m9.638 3.893c-.972 1.559-.924 2.036.25 2.487.799.306 1.489 1.584 1.532 2.839s.278 1.801.522 1.214.096-2.732-.329-4.768c-.705-3.378-.877-3.532-1.975-1.772M67.755 191c-2.121 3.488-2.738 4.007-2.746 2.309-.009-2.288-1.669-3.982-2.797-2.855-.36.36-.146.969.475 1.353s1.446 2.384 1.833 4.445c.573 3.056 1.133 3.748 3.03 3.748 1.979 0 2.425-.65 2.979-4.343.358-2.389.496-5.427.306-6.75-.313-2.189-.593-1.999-3.08 2.093m-49.763-.5c-.114.55-.22 2.238-.235 3.75s-.416 2.75-.892 2.75-.865-1.143-.865-2.539c0-2.12-.23-2.327-1.389-1.25-.86.798-1.01 1.527-.393 1.914.548.344.693 1.581.322 2.75-.711 2.24.926 3.036 1.798.875.403-1 .52-1 .583 0 .139 2.194 2.079 1.339 2.079-.917 0-1.191.301-1.865.669-1.497 1.024 1.023 4.331-2.406 4.331-4.491 0-2.491-1.215-2.324-2.947.405l-1.428 2.25-.713-2.5c-.392-1.375-.806-2.05-.92-1.5m40.929 1.095c-1.751 2.11-2.031 8.405-.374 8.405 1.156 0 3.113-8.673 2.171-9.616-.238-.238-1.047.307-1.797 1.211m-32.842 1.988c.048 1.165.285 1.402.604.605.289-.722.253-1.585-.079-1.917s-.568.258-.525 1.312M75 197c0 2.68.327 3 3.059 3 3.19 0 3.211-.667.134-4.25C76.005 193.203 75 193.596 75 197m73 0-2.136 3h3.068c2.742 0 3.068-.319 3.068-3 0-1.65-.419-3-.932-3-.512 0-1.893 1.35-3.068 3m32.235-2.292c-1.245.239-2.026.82-1.735 1.291.291.472-.377 1.145-1.485 1.496-1.108.352-2.015 1.059-2.015 1.572 0 1.23.277 1.19 3.555-.511 2.165-1.123 3.247-1.19 4.865-.299 1.144.63 2.963 1.291 4.042 1.47 1.664.276 1.521-.135-.937-2.701-1.595-1.664-3.152-2.965-3.462-2.89s-1.582.332-2.828.572M30 196.559c0 .857-.419 1.3-.931.984s-1.213-.118-1.559.441-.188 1.016.349 1.016c.538 0 1.689.273 2.559.607 1.193.458 1.582-.034 1.582-2 0-1.434-.45-2.607-1-2.607s-1 .702-1 1.559m31.079 2.024c.048 1.165.285 1.402.604.605.289-.722.253-1.585-.079-1.917s-.568.258-.525 1.312"/><path fill-opacity=".287" fill-rule="evenodd" d="M0 1.566c0 .861.466 2.436 1.035 3.5C1.682 6.275 1.706 7 1.098 7 .493 7 .104 17.597.067 35.057c-.039 18.39.284 27.844.937 27.441.605-.374.996 1.15.996 3.884 0 2.475.451 4.779 1.003 5.12.67.414.67 1.241 0 2.493-.552 1.03-.989 3.141-.971 4.689.027 2.37.225 2.578 1.25 1.316C4.666 78.296 16 77.645 16 79.269c0 .537.675.416 1.5-.269 1.236-1.026 1.5-.938 1.5.5 0 1.415.276 1.516 1.458.535.859-.713 1.282-2.302 1.031-3.872-.234-1.465-1.154-6.97-2.043-12.234-1.613-9.541-1.609-9.606 1.007-21 1.444-6.286 3.373-13.004 4.288-14.929 2.594-5.461 7.786-11.496 14.279-16.597 3.272-2.571 7.104-6.188 8.515-8.038L50.102 0H25.051C2.983 0 0 .186 0 1.566m141-.682c0 .486 2.459 1.882 5.465 3.102s7.521 3.522 10.035 5.116c5.661 3.59 6.496 3.609 6.515.148.012-2.143.23-2.419.985-1.25.533.825.976 2.471.985 3.657.009 1.345 1.85 3.693 4.888 6.237 3.809 3.189 5.374 5.448 7.168 10.343 1.262 3.445 2.739 7.388 3.283 8.763s.898 3.4.788 4.5c-.126 1.252.096 1.569.593.847.594-.861 1.553-.819 3.795.169l3 1.322-3.636.081c-3.505.078-3.66.238-4.286 4.407-.357 2.38-.331 5.154.057 6.164.489 1.276.345 1.616-.472 1.111-.692-.428-1.453.02-1.846 1.086-.369.997-1.715 3.205-2.993 4.907S173 65.884 173 67.344c0 3.091.751 3.352 2.608.906.811-1.069 1.341-1.263 1.36-.5.018.688.44 1.25.938 1.25.499 0 .685-.849.413-1.887-.271-1.038.065-2.233.748-2.655.801-.494.988-.357.528.387-.392.635-.236 1.155.346 1.155s1.073-.787 1.091-1.75c.029-1.621.135-1.614 1.433.1.771 1.018 1.816 1.595 2.321 1.282s1.773.126 2.817.974c1.043.848 1.409 1.304.814 1.012-.657-.321-1.084.669-1.084 2.514 0 1.674-.56 3.391-1.246 3.814-.792.49.237 1.147 2.826 1.804 2.239.568 3.823.632 3.52.142-.767-1.241-.214-1.128 3.457.703 2.691 1.343 2.998 1.835 1.94 3.11-.811.977-1.389 1.119-1.629.399-.234-.702-1.29-.392-2.85.835-1.363 1.072-3.125 1.701-3.915 1.398-.807-.31-1.452.043-1.471.806-.02.746-.679.232-1.465-1.143-1.091-1.908-1.438-2.086-1.465-.75-.025 1.238-.84 1.746-2.785 1.735-3.407-.019-6.89-1.909-3.75-2.035 1.1-.044-.363-1.011-3.25-2.149-4.58-1.805-5.25-2.424-5.25-4.852 0-1.53.531-2.959 1.18-3.176.693-.231.894-1.137.488-2.196-.569-1.483-.959-1.58-2.204-.547-1.885 1.564-3.153.506-1.615-1.348.623-.751.9-1.6.614-1.885-.285-.286-.109-1.597.391-2.914.501-1.317.619-4.188.263-6.381-.561-3.447-1.054-4.058-3.633-4.505-1.746-.302-2.984-1.135-2.984-2.007 0-.819.563-1.377 1.25-1.24.688.138 1.25-.2 1.25-.75 0-1.05-1.28-1.358-4.324-1.04-1.095.115-2.038-.627-2.359-1.854-.499-1.91-.722-1.948-3.376-.575-3.248 1.679-6.55 1.911-7.41.519-.323-.522.326-1.438 1.441-2.035 2.595-1.389 2.582-2.637-.033-3.321-1.463-.382-2.843.354-4.75 2.533-5.714 6.527-6.206 6.816-9.078 5.327-1.436-.744-3.817-2.473-5.292-3.842l-2.681-2.489-.652 3.859c-.951 5.632-3.895 8.918-7.987 8.918-3.113 0-6.499-2.061-6.499-3.955 0-.446.958-1.062 2.13-1.369 1.596-.417 1.941-1.01 1.377-2.366-.414-.996-1.21-3.16-1.768-4.81-2.199-6.496-2.746-7.5-4.087-7.5-1.474 0-2.622 4.837-2.641 11.128-.011 3.607-2.086 6.562-3.844 5.475-.507-.313-1.433-2.602-2.058-5.086-1.345-5.339-2.389-5.669-4.19-1.321C95.067 47.666 90.158 53 87.896 53c-1.21 0-1.896.702-1.896 1.941 0 4.577-4.51 3.206-7.992-2.428C76.814 50.581 75.282 49 74.604 49c-2.622 0-5.005 7.244-5.074 15.423-.072 8.572-.836 9.733-4.729 7.182-2.999-1.965-5.013-.704-4.613 2.887.461 4.139-1.877 4.189-3.595.077-.82-1.963-2.189-3.569-3.042-3.569S52 70.55 52 70s-.9-1-2-1-2 .648-2 1.441c0 2.64-2.243 2.887-4.115.453-1.012-1.317-1.851-1.862-1.863-1.211-.012.65-.873 1.452-1.914 1.783s-2.175 1.598-2.52 2.817c-.618 2.18-.67 2.167-3.073-.755-2.856-3.472-6.811-4.01-7.354-1-.195 1.084-1.492 3.18-2.882 4.656-2.117 2.248-2.416 3.271-1.848 6.302.374 1.991 1.262 3.843 1.975 4.116.88.338.238 1.554-2.002 3.794-4.104 4.104-3.729 6.164 2.243 12.309 2.396 2.465 4.135 4.839 3.865 5.275-.27.437.067.742.749.679.681-.064 6.167 2.281 12.191 5.21 8.862 4.309 10.623 5.509 9.229 6.29-.948.53-1.52 1.292-1.272 1.693.716 1.159 7.591 1.322 7.591.179 0-.567.45-1.031 1-1.031s1 .73 1 1.622c0 1.324.274 1.395 1.49.386 1.232-1.022 1.654-.827 2.437 1.128.807 2.016.956 2.078 1.01.423.062-1.922.078-1.922 1.531 0 .906 1.197 1.481 1.439 1.5.632.018-.72.462-1.043.988-.718s.721 1.206.432 1.958c-.288.752-.044 1.664.544 2.027.619.383 1.068-.166 1.068-1.305 0-1.514.49-1.838 2.133-1.408 1.174.307 2.361 1.428 2.639 2.491.299 1.145.776 1.495 1.169.86.442-.715 3.15-.118 8.111 1.787 4.096 1.574 8.841 3.164 10.544 3.535 3.942.857 7.412 5.327 6.355 8.186-.745 2.012-9.6 8.396-11.648 8.396-1.684 0-10.26 8.017-11.837 11.065-2.361 4.566-1.785 4.427 4.155-1.002 3.092-2.825 9.842-7.886 15-11.245 5.159-3.359 9.38-6.605 9.382-7.213.002-.692 3.017-1.207 8.074-1.379 4.439-.151 7.866.074 7.614.5-1.165 1.977 1.648 5.208 7.527 8.647 3.533 2.066 8.716 5.492 11.517 7.611 2.801 2.12 5.429 3.554 5.839 3.185s.421-.103.023.588c-.426.739-.062 1.511.883 1.874 8.178 3.138-8.239-13.347-16.98-17.05-1.65-.699-3.582-1.973-4.293-2.83-1.668-2.012-.534-7.09 1.416-6.342.758.291 1.377.175 1.377-.256 0-.432 2.588-1.826 5.75-3.099 7.3-2.939 14.516-6.983 15.55-8.714.44-.737 1.29-1.34 1.889-1.34.6 0 1.688-.788 2.419-1.75 1.256-1.655 1.33-1.649 1.36.107.022 1.277.526 1.667 1.614 1.25.87-.334 1.77-.607 2-.607s.418-.761.418-1.691c0-1.497-.158-1.475-1.375.189-1.291 1.765-1.375 1.714-1.375-.836 0-2.215.352-2.606 1.9-2.114 1.045.331 1.836.231 1.757-.223-.422-2.424.232-5.325 1.2-5.325.609 0 .848.675.531 1.5s-.139 1.5.393 1.5c.533 0 .969-1.377.969-3.059 0-1.817.412-2.804 1.016-2.431.559.346.777 1.016.484 1.49s-.075 1.144.484 1.49c.895.553 1.64-5.032 1.061-7.959-.704-3.567-.088-6.842 1.581-8.397 1.982-1.847 5.374-2.457 5.374-.967 0 .458.45.833 1 .833s1-.723 1-1.607c0-1.055.544-1.398 1.582-1 .87.334 1.825.607 2.122.607.298 0-.019.675-.704 1.5-1.021 1.23-.948 1.5.409 1.5.91 0 1.923-.701 2.251-1.557.329-.857 1.238-1.312 2.021-1.012s1.171.138.862-.361c-.79-1.278 3.944-2.062 10.725-1.777 4.786.201 5.669-.014 5.19-1.263-1.01-2.632-1.256-14.03-.303-14.03.504 0 .408-.948-.212-2.107-.74-1.383-.79-2.446-.144-3.092 1.356-1.356.279-25.075-1.182-26.036-.804-.529-.786-.739.065-.75.874-.011 1.198-6.144 1.242-23.515l.06-23.5h-29.492C154.081 0 141 .392 141 .884m51.607 24.698c-.844 2.199-.782 2.418.679 2.418.707 0 1.285-.9 1.285-2 0-2.392-1.116-2.629-1.964-.418M196 27c0 .55.477 1 1.059 1s.781-.45.441-1-.816-1-1.059-1-.441.45-.441 1m-4.834 2.876c-1.098.696-1.083.942.083 1.389.809.311 1.418-.059 1.418-.86 0-.773-.038-1.398-.084-1.39s-.683.396-1.417.861M135.134 37c-.057 3.025.333 6.175.866 7 1.18 1.827 1.18-4.861 0-9.5-.638-2.506-.78-2.095-.866 2.5M197 34c0 .55.45 1 1 1s1-.45 1-1-.45-1-1-1-1 .45-1 1m-12.43 1.886c-.301.488.347 1.121 1.441 1.407s1.989.145 1.989-.313.787-1.039 1.75-1.291c.963-.251.314-.509-1.441-.573s-3.437.283-3.739.77m7.17 10.999c-.304 1.162-.176 2.346.285 2.63 1.344.831 2.166-1.351 1.176-3.121-.791-1.413-.979-1.35-1.461.491m-2.725 2.865c-.008 1.237.435 2.25.985 2.25 1.253 0 1.253-1.061 0-3-.784-1.213-.972-1.069-.985.75M13.079 53.583c.048 1.165.285 1.402.604.605.289-.722.253-1.585-.079-1.917s-.568.258-.525 1.312m173.266-.04c-.326.849-.369 1.767-.096 2.04.274.273.737-.422 1.03-1.543.624-2.383-.069-2.751-.934-.497m-3.671 1.191c-.255.421.164 1.346.931 2.055 1.146 1.06 1.395 1.025 1.395-.191 0-1.698-1.633-3.008-2.326-1.864m-2.448 15.519c.074 2.595.344 2.821 2.676 2.235 3.34-.838 3.854-1.402 2.206-2.421-1.107-.684-1.102-.904.029-1.288.75-.254-.067-.676-1.815-.937-2.959-.442-3.172-.276-3.096 2.411m-35.777 2.215c-1.8 4.308-1.81 5.18-.064 5.85 3.74 1.435 7.343-5.19 4.415-8.118-1.906-1.906-2.802-1.439-4.351 2.268m54.202-2c-.31.807-.133 1.734.393 2.059s.956-.336.956-1.468c0-2.415-.556-2.658-1.349-.591m-3.108.463c-.317.512-.118 1.213.441 1.559s1.016-.074 1.016-.931c0-1.757-.6-2.015-1.457-.628m-36.197 13.376c-.692 4.804-1.891 8.65-3.324 10.662-1.232 1.73-1.999 3.388-1.703 3.683.295.295 1.703-1.311 3.129-3.57 3.271-5.182 5.232-13.242 3.931-16.158-.77-1.727-1.156-.707-2.033 5.383M85.25 80.012c-3.062 1.257-2.963 4.771.157 5.554 3.412.856 6.787-1.19 6.404-3.884-.348-2.439-3.025-3.121-6.561-1.67M1.5 85c.34.55.816 1 1.059 1S3 85.55 3 85s-.477-1-1.059-1-.781.45-.441 1m172 0c.34.55.816 1 1.059 1s.441-.45.441-1-.477-1-1.059-1-.781.45-.441 1m6.579.583c.048 1.165.285 1.402.604.605.289-.722.253-1.585-.079-1.917s-.568.258-.525 1.312m12.421-.144c2.2.714 4.367 1.087 4.817.829 1.415-.812.077-1.336-4.441-1.738l-4.376-.389zM176.638 86.5c.317.825.753 1.5.969 1.5s.393-.675.393-1.5-.436-1.5-.969-1.5-.709.675-.393 1.5M169 87c0 .55.45 1 1 1s1-.45 1-1-.45-1-1-1-1 .45-1 1m-93.753 3.153c-2.846 2.846-.58 8.507 5.666 14.149 2.599 2.349 4.618 3.431 5.655 3.034 1.292-.496 1.006-1.003-1.443-2.554-3.706-2.346-6.821-7.17-7.86-12.169-.615-2.962-1.021-3.457-2.018-2.46m77.441-.507c-1.416 1.415-.615 3.354 1.385 3.354 1.398 0 1.968-.543 1.75-1.667-.357-1.841-2.064-2.759-3.135-1.687m25.538.933c.95.991 1.942 1.587 2.205 1.324s-.514-1.074-1.726-1.803c-2.107-1.265-2.128-1.243-.479.479m-2.226.799c0 .207.787.995 1.75 1.75 1.586 1.243 1.621 1.208.378-.378-1.307-1.666-2.128-2.195-2.128-1.372m6.5.622c-.34.55.11 1 1 1s1.34-.45 1-1-.79-1-1-1-.66.45-1 1m5.25-.338c.688.278 1.813.278 2.5 0 .688-.277.125-.504-1.25-.504s-1.937.227-1.25.504M149 95c-2.327.745-2.349.808-.309.9 1.205.055 2.469-.35 2.809-.9s.479-.955.309-.9zM1.154 99.5c.094 2.475.491 4.5.882 4.5.392 0 .657-2.022.588-4.494-.068-2.472-.465-4.497-.882-4.5s-.682 2.019-.588 4.494M8 99.941c0 4.171 1.45 4.553 1.749.462.138-1.872-.2-3.403-.75-3.403C8.45 97 8 98.323 8 99.941m3.195-.441c.02 1.65.244 2.204.498 1.231s.237-2.323-.037-3-.481.119-.461 1.769m86.995.25c.186.963 1 1.75 1.81 1.75s1.624-.787 1.81-1.75c.236-1.228-.304-1.75-1.81-1.75s-2.046.522-1.81 1.75M5.195 101.5c.02 1.65.244 2.204.498 1.231s.237-2.323-.037-3-.481.119-.461 1.769m168.25-.411c-.506.819.094 1.233 1.593 1.1.296-.026.629 1.158.74 2.632.156 2.062-.022 2.333-.773 1.179-.761-1.171-.978-.898-.99 1.25-.009 1.673.475 2.652 1.235 2.5.688-.138 1.126.346.975 1.074s.152 1.061.672.739c.521-.321.87-2.9.775-5.73-.135-4.052-.543-5.199-1.918-5.4-.96-.14-1.999.155-2.309.656m-154.366 2.494c.048 1.165.285 1.402.604.605.289-.722.253-1.585-.079-1.917s-.568.258-.525 1.312m73.19 1.11c.973.254 2.323.237 3-.037s-.119-.481-1.769-.461-2.204.244-1.231.498m35.981 1.338c-1.237.498-2.25.639-2.25.314 0-.324-.675-.03-1.5.655s-1.5 1.865-1.5 2.622c0 1.677 3.597 1.839 4.605.208.486-.787.178-.961-.941-.531-.915.351-1.664.201-1.664-.334s1.445-.858 3.211-.719c2.382.188 3.305-.198 3.574-1.496.4-1.935-.204-2.058-3.535-.719m-126.803.884c.311.503.012 1.099-.665 1.324s-.237.67.976.988c1.918.501 2.074.328 1.189-1.325C2.388 106.856 1.694 106 1.406 106s-.27.412.041.915M182.5 107c.34.55.816 1 1.059 1s.441-.45.441-1-.477-1-1.059-1-.781.45-.441 1m3.5.383c0 .761-.936 1.628-2.079 1.927-1.495.391-1.987 1.197-1.75 2.867.388 2.738 2.435 2.569 2.103-.173-.193-1.592.274-1.789 3.137-1.325 1.85.301 4.202.051 5.227-.554 1.78-1.051 1.774-1.093-.138-.954-4.269.311-5.718-.16-5.138-1.671.316-.825.139-1.5-.393-1.5-.533 0-.969.623-.969 1.383m3-.99c0 .216.698.661 1.552.989.89.341 1.291.173.941-.393-.587-.951-2.493-1.406-2.493-.596m-10 1.666c0 .582.45.781 1 .441s1-.816 1-1.059-.45-.441-1-.441-1 .477-1 1.059M21.158 110c0 1.375.227 1.938.504 1.25.278-.687.278-1.812 0-2.5-.277-.687-.504-.125-.504 1.25m-5.158.5c-.707.852-1.06 1.773-.785 2.048s1.078-.196 1.785-1.048 1.06-1.773.785-2.048-1.078.196-1.785 1.048m152.5-.5c-.34.55-.141 1 .441 1s1.059-.45 1.059-1-.198-1-.441-1-.719.45-1.059 1m11 1c.34.55.816 1 1.059 1s.441-.45.441-1-.477-1-1.059-1-.781.45-.441 1m17.359 2.25c-.47 2.223-.225 2.75 1.28 2.75 1.023 0 1.861-.477 1.861-1.059s-.418-.801-.929-.485c-.51.315-1.086-.446-1.279-1.691-.324-2.082-.399-2.043-.933.485M3.5 113c.34.55.816 1 1.059 1s.441-.45.441-1-.477-1-1.059-1-.781.45-.441 1m165.002-.003c-.341.552-.481 1.033-.311 1.07 3.532.772 6.86.659 7.423-.251.482-.78.15-.939-1.022-.49-.955.367-2.577.217-3.604-.332q-1.867-1-2.486.003m17.498.149c0 .396 1.35.682 3 .635s3-.474 3-.949-1.35-.761-3-.635-3 .553-3 .949m-6.5.854c-.34.55-.141 1 .441 1s1.059-.45 1.059-1-.198-1-.441-1-.719.45-1.059 1M21 115c0 .55.477 1 1.059 1s.781-.45.441-1-.816-1-1.059-1-.441.45-.441 1m168.5 1c-.34.55.11 1 1 1s1.34-.45 1-1-.79-1-1-1-.66.45-1 1m-24.083.75c.412.412 1.269.75 1.903.75s1.317.853 1.518 1.896c.262 1.363-.065 1.731-1.164 1.309-1.306-.501-1.369-.129-.434 2.553.927 2.661 1.195 2.853 1.755 1.257.457-1.304.886-1.516 1.396-.691.546.884 1.143.785 2.308-.381 1.174-1.173 1.284-1.86.437-2.707-.848-.848-1.136-.817-1.136.123 0 .692-.508.945-1.128.562-.772-.477-.614-.986.5-1.609 3.213-1.799 1.872-3.812-2.539-3.812-2.291 0-3.829.338-3.416.75m-122.921 3.257c-.783 1.266 2.001 2.4 4.004 1.631.825-.316 1.5-1.039 1.5-1.607 0-1.328-4.685-1.349-5.504-.024M163.71 121c.333 1.273.026 2.011-.843 2.031-.752.018-2.246 1.255-3.32 2.75-1.412 1.965-1.5 2.354-.317 1.402 1.411-1.136 1.83-.947 3.047 1.377 1.17 2.233 1.521 2.409 2.051 1.029.382-.996.068-1.884-.782-2.21-.781-.299-1.161-1.22-.844-2.046.459-1.196.74-1.236 1.383-.196.443.718 1.099 1.013 1.456.656.863-.863-.47-6.793-1.527-6.793-.455 0-.591.9-.304 2m11.448 0c0 1.375.227 1.938.504 1.25.278-.687.278-1.812 0-2.5-.277-.687-.504-.125-.504 1.25M53.5 122c.34.55.816 1 1.059 1s.441-.45.441-1-.477-1-1.059-1-.781.45-.441 1m139.894 2.998c.138 3.912 1.606 3.914 1.606.002 0-1.65-.385-3-.856-3-.472 0-.809 1.349-.75 2.998m2.999-1.416c.334.87.607 1.756.607 1.968 0 .213.663.133 1.474-.179 1.265-.485 1.276-.764.072-1.968-1.866-1.866-2.905-1.78-2.153.179m-6.544 2.501c-.273 4.385.329 8.407 1.355 9.042.667.413.644.851-.068 1.291-.635.392-1.324-.481-1.678-2.125-.33-1.535-.988-3.691-1.462-4.791-.813-1.889-.864-1.872-.928.309-.038 1.272-.517 2.032-1.068 1.691-.55-.34-1.007-.029-1.015.691-.011.951-.281.899-.985-.191-.801-1.239-.972-1.148-.985.528-.017 2.247-3.967 6.323-4.083 4.212-.037-.682-.528-.291-1.09.87-.959 1.978-7.37 4.8-8.84 3.891-.957-.591-.861 2.892.096 3.525.438.29.445 1.095.016 1.789-.567.919-1.478.997-3.344.288-2.545-.968-3.77-.6-3.77 1.131 0 .495.844.633 1.876.305 1.336-.424 2.029-.011 2.406 1.433.577 2.203 2.708 2.81 2.733.778.012-.926.237-.901.87.098.469.741 1.999 1.416 3.399 1.5 1.901.113 2.285.465 1.518 1.39-.734.885-.567 1.415.585 1.857.887.341 1.613 1.246 1.613 2.012 0 2.309 6.712 1.8 8-.607.589-1.1 1.703-2 2.476-2s1.658-.408 1.966-.907c.309-.498-.373-.662-1.514-.364s-3.805-.028-5.919-.726c-3.599-1.188-3.774-1.425-2.73-3.715.866-1.901 1.677-2.338 3.642-1.963 2.728.522 6.366-2.502 7.569-6.293.986-3.109 2.22-2.416 1.723.968-.246 1.679-1.05 3-1.826 3-.763 0-1.387.686-1.387 1.525s-1.125 1.952-2.5 2.475c-3.478 1.322-3.28 3.413.24 2.529 1.507-.378 3.045-1.181 3.418-1.784s1.727-1.237 3.01-1.408c2.024-.27 2.101-.174.582.726-1.783 1.056-2.469 4.937-.872 4.937.483 0 1.629-1.012 2.546-2.25.918-1.238 1.396-1.687 1.063-1-.355.734.062 1.25 1.013 1.25.89 0 1.34.45 1 1s.099 1 .976 1c1.299 0 1.391-.381.494-2.056-.606-1.132-1.746-2.305-2.535-2.607-2.189-.84-1.709-2.221.565-1.627 1.162.304 2 .031 2-.652 0-.647-.45-.898-1-.558s-1-.084-1-.941.495-1.559 1.101-1.559c.691 0 .967-1.675.742-4.5-.196-2.475.038-4.5.522-4.5s.32-.675-.365-1.5c-.86-1.036-.898-1.5-.122-1.5.617 0 1.122-.664 1.122-1.475 0-1.194-.521-1.277-2.729-.438-1.914.728-2.836.718-3.086-.031-.196-.588-.797-.796-1.336-.463-.586.363-.367 1.282.547 2.292 1.378 1.522 1.352 1.686-.268 1.686-.987 0-1.855-.466-1.928-1.035-.073-.57-.32-2.52-.548-4.334-.515-4.091-1.6-5.366-1.803-2.119M152.5 127c-.34.55-.141 1 .441 1s1.059-.45 1.059-1-.198-1-.441-1-.719.45-1.059 1m-1 3c.34.55.816 1 1.059 1s.441-.45.441-1-.477-1-1.059-1-.781.45-.441 1M3.732 133.915c-.361 1.383-.071 2.085.862 2.085 1.595 0 1.761-.891.529-2.835-.643-1.014-.976-.834-1.391.75M143 132.378c0 .207.787.995 1.75 1.75 1.586 1.243 1.621 1.208.378-.378-1.307-1.666-2.128-2.195-2.128-1.372m44.052 2.122c-.069 1.663-.246 1.748-1.052.5-.828-1.282-.972-1.246-.985.25-.008.963-.413 1.75-.898 1.75s-1.138.974-1.45 2.164c-.502 1.921-.762 2.006-2.308.75-.959-.777-1.457-.936-1.108-.352s-.901 2.787-2.777 4.896c-3.635 4.086-3.717 6.703-.129 4.091 1.185-.863 3.28-2.085 4.655-2.716 2.068-.95 2.198-1.22.75-1.564-.963-.228-1.75-1.047-1.75-1.818 0-1.082.57-1.185 2.5-.451 1.697.645 2.5.608 2.5-.114 0-.586.993-1.87 2.208-2.853 1.885-1.527 2.041-2.133 1.067-4.16-1.03-2.145-1.148-2.181-1.223-.373M18.5 140c.34.55.816 1 1.059 1s.441-.45.441-1-.477-1-1.059-1-.781.45-.441 1m27 1c-.34.55-.141 1 .441 1S47 141.55 47 141s-.198-1-.441-1-.719.45-1.059 1m-26.771 1.604c-.401.401-.729 1.419-.729 2.263 0 1.125.296 1.237 1.113.421.611-.612.94-1.631.729-2.263s-.712-.822-1.113-.421m18.938.063C36.629 143.704 36.883 147 38 147c.55 0 1-1.125 1-2.5 0-2.618-.231-2.936-1.333-1.833M49.158 145c0 1.375.227 1.938.504 1.25.278-.687.278-1.812 0-2.5-.277-.687-.504-.125-.504 1.25M173 143.393c0 .216.698.661 1.552.989.89.341 1.291.173.941-.393-.587-.951-2.493-1.406-2.493-.596m-138.532 2.708c-.367 1.155-.172 2.595.433 3.2.799.799 1.099.225 1.099-2.101 0-3.694-.577-4.108-1.532-1.099m6.784 1.399c.011 2.2.216 2.982.455 1.738s.23-3.044-.02-4-.446.062-.435 2.262M71 144.941c0 .518.45 1.219 1 1.559s1-.084 1-.941S72.55 144 72 144s-1 .423-1 .941m75.867-.475c-.227.227-1.695.645-3.262.929-4.63.84-4.282 1.605.728 1.605 2.567 0 4.667-.423 4.667-.941 0-1.077-1.516-2.21-2.133-1.593m12.181.483c-.799.506-1.811.697-2.25.426s-.798-.016-.798.566 1.35 1.059 3 1.059q3 0 3-1.5c0-1.711-.863-1.872-2.952-.551M3 147.5c0 .825.177 1.5.393 1.5s.652-.675.969-1.5.139-1.5-.393-1.5c-.533 0-.969.675-.969 1.5m11.079.083c.048 1.165.285 1.402.604.605.289-.722.253-1.585-.079-1.917s-.568.258-.525 1.312M28.158 149c0 1.375.227 1.938.504 1.25.278-.687.278-1.812 0-2.5-.277-.687-.504-.125-.504 1.25m-3.079.583c.048 1.165.285 1.402.604.605.289-.722.253-1.585-.079-1.917s-.568.258-.525 1.312m19.521.017c-.356.927-.422 1.911-.147 2.186s.791-.259 1.147-1.186.422-1.911.147-2.186-.791.259-1.147 1.186M8 150c0 .55.45 1 1 1s1-.45 1-1-.45-1-1-1-1 .45-1 1m61.35.05c.11.605.526 1.066.925 1.025s1.427-.075 2.284-.075 1.267-.472.911-1.049c-.449-.726-1.052-.713-1.962.042-.925.768-1.468.775-1.836.024-.353-.722-.457-.712-.322.033M81.5 150c-.34.55-.168 1 .382 1s1.278-.45 1.618-1 .168-1-.382-1-1.278.45-1.618 1m67.5 0c0 .55.477 1 1.059 1s.781-.45.441-1-.816-1-1.059-1-.441.45-.441 1m3.5 0c.34.55.816 1 1.059 1s.441-.45.441-1-.477-1-1.059-1-.781.45-.441 1m3.5 1c0 .55.45 1 1 1s1-.45 1-1-.45-1-1-1-1 .45-1 1m5.75.662c.688.278 1.813.278 2.5 0 .688-.277.125-.504-1.25-.504s-1.937.227-1.25.504M8.247 153.977c-.686 1.098-1.244 2.789-1.241 3.759.004 1.185.506.806 1.528-1.153 1.778-3.41 1.543-5.538-.287-2.606M54.5 153c.34.55 1.068 1 1.618 1s.722-.45.382-1-1.068-1-1.618-1-.722.45-.382 1m-26 3c-.34.55-.141 1 .441 1S30 156.55 30 156s-.198-1-.441-1-.719.45-1.059 1m130.138.5c.317.825.705 1.5.862 1.5s.545-.675.862-1.5c.347-.905.005-1.5-.862-1.5s-1.209.595-.862 1.5m12.175-.817c.721.289 1.584.253 1.916-.079s-.258-.568-1.312-.525c-1.165.048-1.402.285-.604.604m19.437.73c-1.787.55-3.25 1.583-3.25 2.294 0 1.21-1.854 1.744-4.75 1.368-.687-.09-1.25.255-1.25.765 0 1.463 3.705 2.048 5.028.794.918-.87 1.038-.61.517 1.116-.427 1.414-.257 2.25.459 2.25.627 0 1.057-1.012.957-2.25-.307-3.79-.014-4.846 1.289-4.639 1.758.28 6.289-1.683 5.171-2.24-.507-.253-2.384-.009-4.171.542m7.25.587c-.34.55-.168 1 .382 1s1.278-.45 1.618-1 .168-1-.382-1-1.278.45-1.618 1M36 158c0 .55.45 1 1 1s1 .675 1 1.5.696 1.5 1.547 1.5c1.328 0 1.292-.349-.25-2.469C37.42 156.953 36 156.293 36 158m127.25-.338c-1.975.797-1.455 2.229.75 2.063 1.1-.083 2-.73 2-1.438 0-1.337-.63-1.48-2.75-.625m6.75.216c0 .482.675 1.437 1.5 2.122 1.253 1.04 1.5.896 1.5-.878 0-1.22-.638-2.122-1.5-2.122-.825 0-1.5.395-1.5.878M4 159.059c0 .582.45.781 1 .441s1-.816 1-1.059S5.55 158 5 158s-1 .477-1 1.059m45 .441c0 .825.45 1.5 1 1.5s1-.675 1-1.5-.45-1.5-1-1.5-1 .675-1 1.5m-3.436.793c.376.986.935 1.541 1.243 1.233s.001-1.114-.683-1.793c-.988-.98-1.102-.865-.56.56M61 160.75c0 .779.534 1.239 1.188 1.021 1.813-.605 2.069-2.438.34-2.438-.84 0-1.528.638-1.528 1.417m136-.25c-1.351 1.628-1.028 1.832 1.418.893.87-.334 1.582-1.009 1.582-1.5 0-1.383-1.62-1.055-3 .607M32 162c0 .55.477 1 1.059 1s.781-.45.441-1-.816-1-1.059-1-.441.45-.441 1m-24.921 1.583c.048 1.165.285 1.402.604.605.289-.722.253-1.585-.079-1.917s-.568.258-.525 1.312m29.589-.667c.697.788.933 2.783.584 4.952-.525 3.263-.42 3.496 1.038 2.296.892-.735 2.092-1.046 2.666-.691s1.044.168 1.044-.414S41.325 168 40.5 168s-1.5-.845-1.5-1.878-.788-2.473-1.75-3.201c-1.436-1.087-1.541-1.088-.582-.005M40 164.559c0 .857.45 1.281 1 .941s1-1.041 1-1.559-.45-.941-1-.941-1 .702-1 1.559m140.645.924c-.319.832-1.234 1.228-2.084.902-.993-.381-1.929.328-2.716 2.056-.764 1.677-1.734 2.432-2.665 2.075-1.205-.463-1.24-.293-.199.961 1.037 1.25.992 1.523-.252 1.523-.833 0-1.774.675-2.091 1.5-.316.825-1.463 1.5-2.548 1.5s-2.234.423-2.553.941c-.345.557.958.727 3.191.417 2.991-.415 3.461-.284 2.272.635-1.133.876-1.194 1.283-.25 1.666.688.279 1.25 1.37 1.25 2.424s.45 1.917 1 1.917 1-.675 1-1.5.45-1.5 1-1.5 1 .675 1 1.5.45 1.5 1 1.5 1-.9 1-2 .498-2 1.107-2c.624 0 .836-.764.487-1.75-.374-1.054.172-.755 1.371.75 1.095 1.375 2.001 2.007 2.013 1.405.041-2.051-3.627-4.405-6.866-4.405-1.8 0-2.968-.423-2.639-.956.325-.526 1.364-.667 2.309-.313 1.51.566 1.549.436.325-1.068-1.843-2.265-.847-3.095 2.057-1.715l2.336 1.11-2.281-1.671-2.28-1.672 3.03-1.843c1.667-1.013 3.031-2.299 3.031-2.857 0-1.482-.7-1.24-1.355.468m-162.63.267c.009.412.452 1.425.985 2.25.784 1.213.972 1.069.985-.75.008-1.238-.435-2.25-.985-2.25s-.993.338-.985.75m146.636.718c-.31.807-.133 1.734.393 2.059s.956-.336.956-1.468c0-2.415-.556-2.658-1.349-.591m25.51 1.532-3.284 3h2.561c1.611 0 2.562-.557 2.562-1.5 0-.825.73-1.5 1.622-1.5 1.305 0 1.387.284.418 1.452-.663.799-1.039 2.261-.836 3.25s-.323 2.355-1.168 3.035c-1.316 1.06-1.193 1.203.857 1 1.903-.188 2.436.275 2.604 2.263.117 1.375-.464 3.536-1.291 4.801-1.132 1.733-1.22 2.585-.355 3.45.632.632 1.149 2.436 1.149 4.008 0 1.651.422 2.598 1 2.241.55-.34 1-1.518 1-2.618s.4-1.753.888-1.451 1.091-.835 1.339-2.527c.4-2.724.201-3.028-1.738-2.657-2.018.386-2.106.199-1.13-2.386.676-1.791 1.32-2.38 1.784-1.63.399.645.443 1.645.099 2.221s.126.438 1.045-.307c1.24-1.006 1.419-1.825.696-3.178-.537-1.002-.722-2.484-.411-3.293.31-.81.084-1.769-.504-2.132-.587-.363-1.061-1.196-1.053-1.851.01-.718.389-.6.956.296.745 1.179.907 1.037.777-.68-.09-1.193-.471-1.978-.846-1.746-.376.232-1.418-.699-2.316-2.07-2.068-3.157-2.444-3.127-6.425.509m-136.472-1.306c-.373.603-.02 1.349.785 1.658.804.308 1.771.061 2.148-.55.397-.641.235-.832-.382-.45-.588.363-1.25.117-1.472-.547-.282-.848-.603-.881-1.079-.111m94.859.384c.367.593 1.034 2.281 1.483 3.75.728 2.383.797 2.266.643-1.076-.108-2.332-.668-3.749-1.483-3.75-.72-.001-1.009.483-.643 1.076m34.911-.011c-.363.586-.419 1.306-.126 1.6.717.716 2.667-.546 2.667-1.726 0-1.278-1.726-1.193-2.541.126M24.731 169.08c.354 1.352.807 1.806 1.057 1.057.24-.722-.038-1.787-.62-2.369-.742-.742-.872-.351-.437 1.312m8.561-.176c-1.223 1.958-.308 4.398 1.234 3.293 1.287-.921 1.746-3.911.701-4.557-.455-.281-1.325.288-1.935 1.264m135.472-.108c-.317 1.211-.139 2.473.396 2.803 1.615.998 2.216-.441 1.167-2.793l-.987-2.212zm-118.685.787c.048 1.165.285 1.402.604.605.289-.722.253-1.585-.079-1.917s-.568.258-.525 1.312M6.5 171c-.34.55.084 1 .941 1S9 171.55 9 171s-.423-1-.941-1-1.219.45-1.559 1m12.579.583c.048 1.165.285 1.402.604.605.289-.722.253-1.585-.079-1.917s-.568.258-.525 1.312M164 171.167c0 .458.423.833.941.833s1.173-.375 1.456-.833c.283-.459-.14-.834-.941-.834s-1.456.375-1.456.834m16.5 1.333c0 1.375.338 2.5.75 2.5s.75-1.125.75-2.5-.338-2.5-.75-2.5-.75 1.125-.75 2.5m3.313-1.817c.721.289 1.584.253 1.916-.079s-.258-.568-1.312-.525c-1.165.048-1.402.285-.604.604M195 172.059c0 .582.45.781 1 .441s1-.816 1-1.059-.45-.441-1-.441-1 .477-1 1.059m-11 2.741c0 .99.495 2.295 1.099 2.899 1.626 1.626.095 5.301-2.207 5.301-1.085 0-3.369 1.012-5.076 2.25-2.207 1.6-3.23 1.889-3.543 1-.704-2.001-2.273-1.442-2.273.809 0 1.14-.454 1.779-1.016 1.431-.559-.346-.742-1.073-.406-1.616.974-1.576-.482-5.874-1.99-5.874-1.691 0-2.287 1.585-2.068 5.5.092 1.65.245 4.575.339 6.5.13 2.659.405 3.14 1.141 2 .533-.825.976-1.147.985-.715.008.432.911.306 2.005-.28 1.095-.585 1.941-1.389 1.882-1.785-.348-2.305.503-2.937 3.813-2.834 3.12.096 3.795-.27 4.4-2.386.394-1.375.76-1.937.815-1.25s.775 1.25 1.6 1.25c.848 0 1.5.895 1.5 2.059 0 1.132.436 1.79.969 1.46.533-.329.818-2.606.635-5.059-.356-4.756.013-5.365 1.786-2.942.905 1.238 1.11.971 1.11-1.45 0-1.632-.629-3.553-1.397-4.268-1.17-1.088-1.288-.992-.727.591.575 1.625.449 1.709-.895.593-1.086-.901-1.247-1.618-.523-2.342 1.487-1.487 1.287-2.642-.458-2.642-.825 0-1.5.81-1.5 1.8m-171.921 1.783c.048 1.165.285 1.402.604.605.289-.722.253-1.585-.079-1.917s-.568.258-.525 1.312m-8 2c.048 1.165.285 1.402.604.605.289-.722.253-1.585-.079-1.917s-.568.258-.525 1.312m98.476 2.239c-.41 1.826-.499 3.567-.199 3.868.753.752 1.945-4.3 1.392-5.897-.246-.711-.783.202-1.193 2.029m3.255.678c-.391 3.347-.275 3.494 2.641 3.364 2.528-.113 2.646-.213.691-.584-2.013-.382-2.273-.875-1.775-3.364.321-1.604.193-2.916-.283-2.916s-1.049 1.575-1.274 3.5m7.887-2.75c-.231.412-.688 1.875-1.015 3.25-.534 2.243-.286 2.5 2.405 2.5 2.318 0 3.135-.536 3.592-2.357.369-1.471.07-2.688-.794-3.235-1.71-1.083-3.628-1.156-4.188-.158m-17.186 2.5c-.631 1.965-.784 2.021-1.201.443-.776-2.929-3.778-1.581-4.044 1.816l-.235 2.991 1.158-2.5c1.157-2.497 1.158-2.497 1.554-.25.53 3.012 1.854 2.837 3.783-.5 1.37-2.371 1.525-2.44 1.125-.5-.255 1.238-.107 2.25.329 2.25s.991-1.35 1.233-3c.343-2.336.062-3-1.27-3-.94 0-2.035 1.012-2.432 2.25m24.119 0c-.839 3.133-.778 3.75.37 3.75.55 0 1-1.083 1-2.406 0-1.914.409-2.3 2-1.884 2.196.575 2.742 3.894.75 4.563-.794.267-.729.384.178.323 1.455-.098 3.328-5.007 2.302-6.033-.31-.31-1.786-.563-3.28-.563-1.972 0-2.882.617-3.32 2.25m-6.63.25c0 .825.675 1.5 1.5 1.5s1.5-.675 1.5-1.5-.675-1.5-1.5-1.5-1.5.675-1.5 1.5m15.472 0c.421 1.1.788 2.563.814 3.25.07 1.836 1.385 1.522 2.098-.5.34-.963.915-2.425 1.279-3.25.541-1.225.39-1.276-.824-.274-1.174.968-1.765.968-2.81 0-1.077-.997-1.181-.853-.557.774M39 185c0 .55.45 1 1 1s1-.45 1-1-.45-1-1-1-1 .45-1 1m3.583.866c-.431.697-.513 1.537-.183 1.867.895.895 1.871-.421 1.387-1.871-.338-1.016-.574-1.016-1.204.004M188 186c0 .55.45 1 1 1s1-.45 1-1-.45-1-1-1-1 .45-1 1m3.182 3.2c-.129 1.684.057 3.976.411 5.094.58 1.826.74 1.863 1.58.361.514-.919.585-2.23.156-2.913s-.656-1.99-.506-2.903c.15-.914-.105-1.896-.568-2.181s-.945.858-1.073 2.542m-185.753-.127c0 1.06.353 1.927.785 1.927s.786-.648.786-1.441-.354-1.659-.786-1.927c-.432-.267-.785.382-.785 1.441M163.158 189c0 1.375.227 1.938.504 1.25.278-.687.278-1.812 0-2.5-.277-.687-.504-.125-.504 1.25m24.842.5c0 .825.45 1.5 1 1.5s1-.675 1-1.5-.45-1.5-1-1.5-1 .675-1 1.5m-142.921 1.083c.048 1.165.285 1.402.604.605.289-.722.253-1.585-.079-1.917s-.568.258-.525 1.312m22.604 1.134c-.771 1.531-1.699 4.021-2.062 5.533-.581 2.425-.373 2.75 1.763 2.75 2.202 0 2.455-.466 2.769-5.096.405-5.946-.495-7.106-2.47-3.187m-9.016.95C57.608 193.725 57.894 200 59 200c.55 0 1-1.8 1-4 0-4.087-.166-4.501-1.333-3.333M41 194c0 .55.45 1 1 1s1-.45 1-1-.45-1-1-1-1 .45-1 1m34.667.667c-.367.366-.667 1.716-.667 3 0 1.954.516 2.333 3.174 2.333h3.175l-2.425-2.75c-1.333-1.512-2.461-2.863-2.507-3s-.384.05-.75.417m71.969 3.839c-.348.907.003 1.494.895 1.494 1.618 0 1.986-1.563.574-2.435-.493-.305-1.153.119-1.469.941m46.097.618c.679.684 1.486.991 1.793.683.308-.308-.247-.867-1.233-1.243-1.425-.542-1.54-.428-.56.56"/><path fill-opacity=".976" fill-rule="evenodd" d="M2.762.695c-.233.443-.227 2.972.013 5.621.326 3.597.79 4.681 1.831 4.282.767-.295 1.394-.099 1.394.433 0 .533.41.969.912.969.501 0 .76-.787.576-1.75-.184-.962-.369-2.114-.411-2.559-.043-.445-.597-.488-1.232-.096-.721.446-.882.274-.43-.457.398-.644 1.142-.912 1.654-.595.512.316.931-.562.931-1.953 0-1.929.387-2.379 1.636-1.899 1.124.431 1.492.186 1.173-.782C10.31.393 3.465-.639 2.762.695M15 1c0 .55.45 1 1 1s1-.45 1-1-.45-1-1-1-1 .45-1 1m7 .607c0 .976-.557 1.393-1.417 1.063-.78-.299-1.667.107-1.972.902-.306.796-1.044 1.33-1.642 1.187-.597-.142-1.682 1.429-2.41 3.491-1.116 3.163-1.107 3.75.059 3.75 1.848 0 1.767 1.915-.112 2.636-.822.316-1.246.976-.941 1.469.304.492-.261.927-1.256.965-1.615.063-1.594.163.191.93 3.605 1.549 5.361 1.183 4.79-1-.358-1.368-.031-2 1.034-2 2.592 0 2.873 1.803.629 4.047-2.75 2.75-2.137 3.336.908.867 1.298-1.053 2-1.914 1.559-1.914s.071-.651 1.139-1.446c1.742-1.298 2.118-1.222 3.669.75 1.407 1.788 1.732 1.887 1.75.529.012-.916-.456-1.826-1.04-2.02-.745-.249-.733-1.221.038-3.251.606-1.593.747-3.158.313-3.479C25.765 7.956 26.042 3 27.629 3c1.051 0 1.314.604.871 2-.364 1.147-.18 2 .433 2C29.52 7 30 6.54 30 5.979c0-.562 1.125-1.534 2.5-2.161C37.255 1.651 35.525 0 28.5 0 23.197 0 22 .296 22 1.607M38.07.75c.039.413.417 1.637.841 2.722.692 1.77.824 1.694 1.291-.75C40.563.838 40.304 0 39.361 0c-.748 0-1.329.337-1.291.75m4.58.715c-1.018.771-1.54 1.904-1.161 2.517.503.815 1.066.802 2.089-.047.77-.639 1.174-1.527.899-1.973-.276-.446.292-1.017 1.261-1.27 1.219-.318 1.3-.486.262-.544-.825-.047-2.333.546-3.35 1.317m102.54.285c.185.962 1.284 1.798 2.442 1.857 1.582.081 1.985-.355 1.62-1.75-.636-2.434-4.529-2.537-4.062-.107m7.81-.691c0 .582-.45.781-1 .441-.567-.351-1 .49-1 1.941 0 1.407.382 2.559.85 2.559s2.829 1.333 5.25 2.963l4.4 2.963.65-2.213c.358-1.217.695-3.93.75-6.029.094-3.579-.068-3.797-2.604-3.5-2.167.253-2.732.865-2.846 3.079-.079 1.52-.479 3.095-.891 3.5s-.653.062-.536-.763c.506-3.552-.115-6-1.523-6-.825 0-1.5.477-1.5 1.059m15.136.584c-.075 1.179-.811 2.402-1.636 2.719S165 5.653 165 6.528c0 .874.338 1.383.75 1.13.412-.252.784 1.071.825 2.941.074 3.359 3.564 8.382 5.849 8.418 1.056.017 5.594 9.429 5.582 11.578-.003.602.894 1.91 1.994 2.905 1.809 1.637 2.466 1.394 2.109-.779-.071-.429.937-.082 2.24.772 2.099 1.375 2.51 1.382 3.609.057.999-1.203.943-1.792-.287-3.022-.841-.84-2.01-1.528-2.6-1.528-1.353 0-1.416-5.669-.071-6.5.55-.34 1-.141 1 .441S186.927 24 188.059 24s1.827.375 1.544.833c-.283.459.115.834.885.834.771 0 1.373-.263 1.338-.584-.287-2.665.255-3.004 2.924-1.832 1.512.665 3.063 1.654 3.446 2.2.382.545 1.032.655 1.443.243.411-.411-.8-2.161-2.691-3.889-2.508-2.291-3.048-3.272-1.994-3.623.795-.265 1.619.036 1.829.668.888 2.663 2.191.848 2.046-2.85-.086-2.2-.533-4-.993-4s-.836-.436-.836-.969.675-.709 1.5-.393c.825.317 1.5.078 1.5-.531s-.548-.994-1.218-.857c-.803.165-1.147-.943-1.01-3.25.185-3.119.101-3.248-.774-1.186-1.317 3.106-3.302 1.708-2.765-1.947l.425-2.896-11.446.104c-10.378.095-11.493.283-11.946 2.015-.677 2.59-2.03 2.41-2.56-.34-.42-2.178-.438-2.182-.57-.107M10.665 6.75C10.87 7.988 10.594 9 10.05 9c-.543 0-.729.672-.414 1.494.744 1.938 2.364.93 2.364-1.47 0-1.021.338-2.046.75-2.277.412-.23.216-.293-.437-.139-.653.155-1.375-.256-1.605-.913s-.248-.183-.043 1.055m9.973-.25c-.316.825-.139 1.5.393 1.5.533 0 .969-.675.969-1.5S21.823 5 21.607 5s-.652.675-.969 1.5M23 6c0 .55.45 1 1 1s1-.45 1-1-.45-1-1-1-1 .45-1 1m9.5 2c.34.55.816 1 1.059 1S34 8.55 34 8s-.477-1-1.059-1-.781.45-.441 1M19.558 9.907c-.309.498.34.671 1.441.383 2.335-.611 2.63-1.29.56-1.29-.793 0-1.693.408-2.001.907m4.045.926c-.283.459.12.834.897.834s1.18-.375.897-.834S24.71 10 24.5 10s-.614.375-.897.833m5.54.074c-1.006.625-1.053 1.03-.183 1.568 1.372.848 2.402.097 1.894-1.38-.208-.606-.914-.683-1.711-.188M32.5 12c.34.55.816 1 1.059 1s.441-.45.441-1-.477-1-1.059-1-.781.45-.441 1M6 14.239c0 .419.477.761 1.059.761s.753.495.379 1.1c-.491.795-.108.794 1.386-.006 3.313-1.773 3.378-2.869.162-2.737-1.642.067-2.986.464-2.986.882m-1.921 1.344c.048 1.165.285 1.402.604.605.289-.722.253-1.585-.079-1.917s-.568.258-.525 1.312m.176 7.601C4.227 28.01 3.97 29.1 3 28.5c-.575-.355-1.007.576-1.015 2.191C1.973 32.872 1.753 33.165 1 32c-.687-1.064-.974.19-.985 4.309C.006 39.931.377 41.885 1 41.5c.55-.34 1.014-1.829 1.03-3.309.027-2.311.175-2.444 1.05-.941.561.962 1.639 1.75 2.396 1.75.758 0 1.583.787 1.835 1.75.251.962.509-1.314.573-5.059.073-4.258.491-6.577 1.116-6.191.55.34 1 .066 1-.608s.186-1.038.413-.809c.227.23.079 2.243-.33 4.475s-.402 4.931.016 6 .792 1.38.831.692c.085-1.52 2.07-1.691 2.07-.179 0 .59-.691 1.762-1.535 2.606-1.156 1.156-1.258 1.868-.413 2.885.616.743.787 1.89.38 2.549-.44.711-.318.937.3.555 2.07-1.279 3.531 2.247 3.042 7.339-.337 3.503-.119 4.995.728 4.995.665 0 1.707 1.462 2.316 3.25 1.044 3.061 1.072 2.988.481-1.25-.345-2.475-.553-5.578-.462-6.896s-.224-2.893-.7-3.5C16.049 50.214 16.06 47 17.153 47c1.876 0 3.742-7.09 3.16-12.007-.455-3.836-.276-4.993.77-4.993.781 0 .413-.665-.86-1.557C19 27.587 18 26.12 18 25.184c0-.937-.9-2.265-2-2.952-1.798-1.123-2-.999-2 1.228 0 1.791-.415 2.318-1.5 1.902-.825-.317-1.5-.051-1.5.59s-.45.888-1 .548-1-1.54-1-2.666c0-1.329-.484-1.862-1.378-1.519-.758.291-1.823.084-2.366-.459-.651-.651-.992-.197-1.001 1.328m19.356-1.363c-.338.547-.228 2.041.246 3.32l.86 2.326.741-2.334c.775-2.442-.724-5.13-1.847-3.312M20.5 24c.34.55 1.068 1 1.618 1s.722-.45.382-1-1.068-1-1.618-1-.722.45-.382 1m-7.455 5c-.042 3.496 1.268 5.827 3.517 6.257 1.949.372 2.325.082 2.068-1.598-.172-1.129-.947-2.263-1.722-2.518-.774-.256-1.956-1.18-2.626-2.053-1.045-1.362-1.221-1.375-1.237-.088m-9.27 3.662c-.249.461.099 1.89.772 3.176.674 1.287 1.429 1.962 1.678 1.5s-.099-1.89-.772-3.176c-.674-1.287-1.429-1.962-1.678-1.5M15.5 33c-.34.55-.141 1 .441 1S17 33.55 17 33s-.198-1-.441-1-.719.45-1.059 1M14 37.059c0 .582.45.781 1 .441s1-.816 1-1.059S15.55 36 15 36s-1 .477-1 1.059M191.29 38c-.589 2.252-3.232 2.634-5.187.75-1.049-1.011-1.229-.868-.942.75.26 1.465 1.286 2.089 3.838 2.331 1.916.183 3.818.858 4.227 1.5.491.772.749.585.759-.55.01-1.114.543-1.516 1.515-1.143.825.317 1.5.051 1.5-.59s-.451-.887-1.002-.547c-.551.341-1.44-.533-1.975-1.941-1.17-3.077-2.029-3.253-2.733-.56m-8.79 1c.34.55.816 1 1.059 1s.441-.45.441-1-.477-1-1.059-1-.781.45-.441 1M0 46c0 .55.702 1 1.559 1s1.281-.45.941-1-1.041-1-1.559-1S0 45.45 0 46m3.25 5.662c-.687.278-1.189 1.93-1.114 3.671.116 2.701.2 2.799.571.667.239-1.375 1.164-3.062 2.055-3.75 1.617-1.247.856-1.543-1.512-.588m138.13.79c-.94 2.448.237 3.161 9.197 5.569 6.256 1.681 9.789 3.279 12.784 5.784 3.393 2.836 4.199 3.157 4.472 1.778.421-2.126-2.139-6.082-5.258-8.126C159.214 55.255 147.186 51 144.322 51c-1.312 0-2.636.653-2.942 1.452m54.223-.619c-.283.459.12.834.897.834s1.18-.375.897-.834S196.71 51 196.5 51s-.614.375-.897.833M9 53.5c0 .833-.889 1.5-2 1.5-1.1 0-2 .498-2 1.107s.675.848 1.5.531c1.091-.418 1.536.166 1.633 2.143.17 3.475.1 8.16-.161 10.719-.175 1.711-.27 1.747-.661.25-.252-.963-1.38-1.75-2.507-1.75-1.67 0-1.828.266-.853 1.44.657.793 1.11 2.255 1.007 3.25s-.136 2.653-.073 3.682c.1 1.628.333 1.693 1.778.5 1.302-1.075 1.754-1.1 2.085-.116.233.691.947.928 1.587.525C12.393 75.99 19 75.94 19 77.216c0 .877.292.892 1.125.059.698-.698.866-2.511.441-4.774-.569-3.031-.928-3.446-2.125-2.452-1.153.957-1.441.874-1.441-.415q0-1.61-2.25-1.372c-1.93.204-2.242-.224-2.195-3.012.039-2.291-.404-3.255-1.5-3.265-1.126-.011-1.217-.23-.33-.794 1.259-.8 1.712-2.991 1.433-6.941C11.984 51.775 9 51.066 9 53.5m184.369 2.711c-.365.592-.814 2.358-.996 3.923-.286 2.456-.025 2.8 1.898 2.504 1.787-.276 2.162-.891 1.893-3.103-.196-1.609.069-2.509.636-2.158.536.33 1.473-.001 2.083-.736.882-1.063.499-1.354-1.869-1.422-1.639-.046-3.279.4-3.645.992M89.324 57.439c-5.661 1.771-10.027 4.612-14.978 9.75C70.038 71.66 65 78.64 65 80.14c0 2.02 2.189.414 9.175-6.732 7.1-7.262 7.786-7.697 15.831-10.027 8.673-2.512 10.653-3.882 8.814-6.097-1.316-1.587-4.069-1.541-9.496.155M194.158 59c0 1.375.227 1.938.504 1.25.278-.687.278-1.812 0-2.5-.277-.687-.504-.125-.504 1.25M199 59c0 .55.45 1 1 1s1-.45 1-1-.45-1-1-1-1 .45-1 1M4.25 60.496c-1.655 1.88-1.597 2.052.75 2.229 1.364.103 2-.466 2-1.787 0-2.27-.999-2.431-2.75-.442m139 3.619c-3.741 2.396-4.723 5.744-1.119 3.815 1.924-1.03 1.875-.805-.501 2.311-1.448 1.898-3.023 5.537-3.499 8.085-.897 4.803.258 14.22 2.002 16.331 1.808 2.186 13.676 6.634 15.564 5.833 1.583-.672 1.5-.845-.687-1.42-1.85-.487-2.142-.87-1.137-1.492 2.156-1.332 4.895-8.568 5.679-15.001.646-5.301.864-5.729 2.075-4.073 2.497 3.415 2.773.502.454-4.776-1.264-2.876-2.516-6.188-2.783-7.36-1.029-4.517-10.448-5.84-16.048-2.253M3 65.059c0 .582.45.781 1 .441s1-.816 1-1.059S4.55 64 4 64s-1 .477-1 1.059m141.557 6.164c-3.274 4.673-1.094 9.205 3.297 6.855 2.6-1.392 3.545-4.463 2.166-7.04-1.422-2.658-3.522-2.587-5.463.185M49 71.393c0 2.743-5.956 2.99-6.032.25-.017-.629-1.12.094-2.452 1.607-2.587 2.94-4.439 3.427-6.229 1.637-.817-.817-1.594-.552-2.922 1-.995 1.162-2.497 2.127-3.337 2.145-1.345.028-1.339.177.048 1.25.868.67 1.826 2.185 2.13 3.367.452 1.753.024 2.255-2.326 2.725-3.101.62-3.991 2.626-1.164 2.626 3.157 0 27.144-8.003 28.724-9.583 2.151-2.151 1.973-3.13-1.086-5.965C51.421 69.734 49 69.255 49 71.393m38.158.494c-5.095 1.781-9.082 4.522-8.062 5.542.262.262 2.786-.666 5.61-2.064 3.998-1.978 6.605-2.529 11.785-2.489 4.785.037 6.539-.29 6.252-1.163-.651-1.975-9.728-1.873-15.585.174M188 73.213c0 .983.45 1.787 1 1.787s1.007-.562 1.015-1.25c.011-.847.316-.775.946.221 1.162 1.837 2.299.87 1.482-1.26-.828-2.158-4.443-1.75-4.443.502m-160.921 2.37c.048 1.165.285 1.402.604.605.289-.722.253-1.585-.079-1.917s-.568.258-.525 1.312m59.11-.067C78.29 78.948 71.977 86.318 72.071 92l.057 3.5 1.617-3.25c.89-1.787 1.893-3.25 2.229-3.25s1.182 2.134 1.88 4.743c.923 3.453 2.595 6.021 6.147 9.445 2.684 2.587 4.232 4.455 3.439 4.151-.859-.33-1.44.052-1.44.947 0 2.47 3.008 2.87 8.406 1.117 6.353-2.062 9.087-4.509 11.189-10.013 1.927-5.047 1.234-14.147-1.421-18.661-1.82-3.094-8.509-6.75-12.24-6.69-1.339.022-3.924.686-5.745 1.477m70.43 7.734c-.612 4.616-1.122 5.75-2.584 5.75-1.002 0-2.067.642-2.369 1.427-.619 1.615 1.772 4.038 3.147 3.188 1.192-.736 3.508-11.776 2.981-14.209-.227-1.048-.755.682-1.175 3.844M23.158 81c0 1.375.227 1.938.504 1.25.278-.687.278-1.812 0-2.5-.277-.687-.504-.125-.504 1.25m61.424-.684c-2.2 1.609-1.729 5.032.759 5.511 4.66.898 8.338-1.893 7.021-5.327-.711-1.851-5.349-1.961-7.78-.184m103.231 6.367c.721.289 1.584.253 1.916-.079s-.258-.568-1.312-.525c-1.165.048-1.402.285-.604.604m3.202 1.022c-.008.662-1.702 1.523-3.765 1.912-2.062.389-3.27.87-2.683 1.068s2.71.012 4.717-.413c2.92-.617 3.46-1.072 2.699-2.272-.585-.921-.958-1.035-.968-.295M194 89c0 .55.45 1 1 1s1-.45 1-1-.45-1-1-1-1 .45-1 1m3.5 0c-.34.55-.168 1 .382 1s1.278-.45 1.618-1 .168-1-.382-1-1.278.45-1.618 1m-94.421 6.583c.048 1.165.285 1.402.604.605.289-.722.253-1.585-.079-1.917s-.568.258-.525 1.312m43.709.656c4.292 1.872 6.212 1.684 6.212-.606 0-.839-1.716-1.248-5.232-1.248h-5.232zM169 94.383c0 .211.9.619 2 .907 1.1.287 2 .115 2-.384 0-.498-.9-.906-2-.906s-2 .173-2 .383m-70.333 3.284C97.224 99.11 98.042 102 99.893 102c2.286 0 3.383-2.324 1.829-3.878-1.284-1.284-2.104-1.406-3.055-.455m-8.276 7.473c3.15 1.662 4.351 1.843 6.306.952 3.773-1.719 1.736-3.096-4.506-3.048l-5.691.044zm38.462 17.113c.504.504 1.981.749 3.282.544 2.001-.315 1.861-.455-.916-.916-1.988-.329-2.921-.183-2.366.372m-27.547 17.131c1.544 1.444 2.576 2.998 2.294 3.454-.281.456.123.829.9.829s1.18-.375.897-.834 1.592-.833 4.166-.833c3.892 0 4.487-.235 3.524-1.395-.637-.768-2.83-1.683-4.873-2.035a361 361 0 0 1-6.714-1.225l-3-.586zm97.773-.575c-.045.749-.614 1.007-1.329.603-.992-.56-.996-.431-.017.625 1.423 1.534 2.726.715 1.95-1.224-.431-1.078-.539-1.079-.604-.004m-8.35 7.323c-.951.532-1.729 1.353-1.729 1.824 0 1.013 3.806.166 4.532-1.008.825-1.335-.951-1.853-2.803-.816M194 150c-.901.582-1.025.975-.309.985.655.008 1.469-.435 1.809-.985.767-1.242.421-1.242-1.5 0m-103 2.833c0 .642-.338 1.114-.75 1.049-3.262-.515-8.907 3.246-7.73 5.15.438.71 1.149.459 2.044-.722.755-.996 1.387-1.372 1.404-.837.018.534.738-.036 1.6-1.267.863-1.232 1.957-2 2.431-1.706 1.028.635 2.465-1.369 1.601-2.233-.33-.33-.6-.075-.6.566M197 176.5c0 .825.177 1.5.393 1.5s.652-.675.969-1.5.139-1.5-.393-1.5c-.533 0-.969.675-.969 1.5m-21.554 1.587c-.369.598-.171 1.588.441 2.2.817.817 1.113.528 1.113-1.087q0-3.623-1.554-1.113M167 184.059c0 .582.45.781 1 .441s1-.816 1-1.059-.45-.441-1-.441-1 .477-1 1.059m10.813 4.624c.721.289 1.584.253 1.916-.079s-.258-.568-1.312-.525c-1.165.048-1.402.285-.604.604M169.5 190c.34.55.816 1 1.059 1s.441-.45.441-1-.477-1-1.059-1-.781.45-.441 1m-110.816 2.75c-.238.412-.072 1.65.371 2.75.702 1.746.813 1.651.875-.75.069-2.713-.399-3.464-1.246-2"/></svg>