<svg xmlns="http://www.w3.org/2000/svg" width="64" height="64" version="1.1" fill="#000000"><path fill-opacity=".141" d="M 22.005 1.668 C -0.571 9.567, -7.261 37.787, 9.476 54.524 C 26.013 71.061, 54.657 64.511, 62.063 42.500 C 62.803 40.300, 63.766 38.072, 64.204 37.550 C 65.170 36.397, 65.283 24.383, 64.319 25.347 C 63.945 25.722, 62.991 24.112, 62.199 21.769 C 56.644 5.335, 38.071 -3.953, 22.005 1.668 M 19.402 22.394 C 13.240 25.263, 11.908 27.634, 15.658 29.060 C 17.099 29.608, 18.515 29.818, 18.805 29.528 C 19.096 29.238, 18.808 29, 18.167 29 C 17.525 29, 17 28.403, 17 27.674 C 17 26.067, 21.757 21.424, 22.570 22.237 C 22.888 22.555, 22.166 26.456, 20.965 30.907 C 18.757 39.090, 17.191 40.758, 15.013 37.250 C 14.009 35.633, 13.948 35.646, 14.213 37.428 C 14.620 40.164, 19.227 41.101, 26.914 40.013 C 30.494 39.506, 33.563 39.230, 33.734 39.400 C 33.904 39.570, 33.628 40.787, 33.122 42.105 C 32.316 44.200, 32.112 44.281, 31.493 42.750 C 30.589 40.512, 28.847 40.438, 29.705 42.674 C 30.194 43.948, 29.948 44.187, 28.674 43.674 C 24.026 41.803, 23.775 41.976, 27 44.826 C 28.925 46.527, 31.097 47.937, 31.826 47.959 C 34.032 48.027, 45 39.010, 45 37.130 C 45 36.165, 46.377 34.358, 48.060 33.113 C 50.528 31.289, 50.892 30.574, 49.938 29.425 C 48.159 27.282, 46.096 27.650, 46.711 30.002 C 47.140 31.645, 46.235 32.461, 41.652 34.559 C 38.582 35.964, 34.592 37.346, 32.785 37.630 L 29.500 38.145 27.374 31.072 L 25.249 24 32.124 24 C 35.906 24, 39 24.168, 39 24.374 C 39 24.580, 38.325 26.662, 37.500 29 C 35.772 33.899, 35.620 35.353, 36.923 34.548 C 37.431 34.234, 38.142 32.632, 38.503 30.989 C 39.277 27.461, 40.535 27.114, 41.344 30.206 C 41.661 31.420, 42.184 32.150, 42.505 31.828 C 42.827 31.506, 42.566 29.164, 41.926 26.622 L 40.763 22 32.322 22 C 26.950 22, 24.107 21.636, 24.500 21 C 25.334 19.651, 25.233 19.678, 19.402 22.394 M 0.320 32 C 0.320 35.575, 0.502 37.038, 0.723 35.250 C 0.945 33.462, 0.945 30.538, 0.723 28.750 C 0.502 26.962, 0.320 28.425, 0.320 32 M 22.119 32.443 C 20.527 38.763, 20.614 39, 24.500 39 C 26.425 39, 28 38.630, 28 38.178 C 28 36.315, 24.753 28, 24.025 28 C 23.592 28, 22.734 29.999, 22.119 32.443 M 39.303 37.232 C 37.157 37.921, 35.776 39.203, 35.105 41.130 C 34.554 42.708, 34.394 44, 34.748 44 C 36.287 44, 43 38.602, 43 37.364 C 43 36.614, 42.888 36.046, 42.750 36.102 C 42.612 36.158, 41.061 36.667, 39.303 37.232" stroke="none" fill="#000000" fill-rule="evenodd"/><path fill-opacity=".27" d="M 23.951 1.303 C 14.895 3.863, 6.679 11.040, 2.687 19.878 C -0.216 26.304, -0.205 37.720, 2.710 44.176 C 5.683 50.759, 12.247 57.484, 18.853 60.716 C 26.180 64.301, 36.966 64.546, 44.176 61.290 C 53.171 57.227, 63 45.257, 63 38.363 C 63 37.128, 63.450 35.840, 64 35.500 C 64.550 35.160, 65 33.082, 65 30.882 C 65 28.470, 64.603 27.127, 64 27.500 C 63.441 27.845, 63 27.076, 63 25.755 C 63 18.856, 53.208 6.749, 44.519 2.905 C 38.845 0.395, 29.684 -0.318, 23.951 1.303 M 42.553 16.915 C 42.231 17.436, 42.394 18.125, 42.915 18.447 C 43.436 18.769, 44.125 18.606, 44.447 18.085 C 44.769 17.564, 44.606 16.875, 44.085 16.553 C 43.564 16.231, 42.875 16.394, 42.553 16.915 M 21.388 21.070 C 18.577 22.152, 15.433 23.969, 14.402 25.109 C 12.567 27.136, 12.568 27.211, 14.454 28.590 C 15.515 29.366, 17.026 30, 17.814 30 C 19.018 30, 19.032 29.744, 17.905 28.385 C 16.750 26.994, 16.956 26.434, 19.398 24.334 C 20.956 22.994, 22.385 22.052, 22.573 22.240 C 23.167 22.834, 18.628 39, 17.868 39 C 17.469 39, 16.464 38.322, 15.635 37.492 C 14.602 36.460, 13.914 36.329, 13.451 37.079 C 12.101 39.264, 15.188 40.500, 21.999 40.500 C 27.728 40.500, 28.975 40.797, 29.355 42.250 C 29.845 44.124, 28.525 44.658, 27.500 43 C 27.160 42.450, 25.944 42, 24.797 42 C 23.164 42, 23.715 42.766, 27.342 45.535 L 31.971 49.069 38.444 44.285 C 42.726 41.120, 44.932 38.795, 44.959 37.419 C 44.982 36.263, 46.088 34.756, 47.447 34.028 C 52.015 31.583, 51.455 28.031, 46.500 28.031 C 44.890 28.031, 44.784 28.211, 45.960 28.954 C 47.212 29.746, 47.160 30.166, 45.594 31.896 C 43.631 34.065, 31.290 38.623, 30.236 37.569 C 29.593 36.927, 26.042 26.141, 26.015 24.750 C 26.007 24.337, 28.700 24, 32 24 C 38.742 24, 38.889 24.228, 36.500 31 C 34.558 36.503, 34.644 37.007, 37.033 34.139 C 38.115 32.841, 39 30.928, 39 29.889 C 39 28.850, 39.450 28, 40 28 C 40.550 28, 41 28.900, 41 30 C 41 31.100, 41.450 32, 42 32 C 43.269 32, 43.256 30.461, 41.947 25.750 L 40.906 22 32.203 21.919 C 24.003 21.842, 23.674 21.758, 26.500 20.464 C 31.054 18.379, 27.197 18.836, 21.388 21.070 M 0.272 32 C 0.272 34.475, 0.467 35.487, 0.706 34.250 C 0.944 33.013, 0.944 30.988, 0.706 29.750 C 0.467 28.512, 0.272 29.525, 0.272 32 M 23.165 30.191 C 22.576 31.672, 21.960 34.147, 21.797 35.691 C 21.554 37.989, 21.930 38.561, 23.865 38.835 C 27.460 39.343, 27.920 37.973, 25.995 32.500 C 24.246 27.531, 24.229 27.517, 23.165 30.191 M 38.338 37.999 C 36.410 38.776, 34.239 42.572, 35.182 43.515 C 35.383 43.716, 37.336 42.349, 39.523 40.478 C 43.357 37.197, 42.867 36.172, 38.338 37.999 M 31 41.500 C 31 42.325, 31.450 43, 32 43 C 32.550 43, 33 42.325, 33 41.500 C 33 40.675, 32.550 40, 32 40 C 31.450 40, 31 40.675, 31 41.500" stroke="none" fill="#000000" fill-rule="evenodd"/><path fill-opacity=".506" d="M 26.223 1.051 C 11.520 3.986, 0.706 17.162, 0.706 32.141 C 0.706 37.777, 1.255 40.077, 3.873 45.395 C 13.336 64.617, 37.085 69.278, 53.249 55.086 C 57.429 51.416, 63 41.026, 63 36.899 C 63 35.370, 63.450 33.840, 64 33.500 C 64.550 33.160, 65 31.982, 65 30.882 C 65 29.782, 64.550 29.160, 64 29.500 C 63.421 29.858, 63 28.897, 63 27.219 C 63 22.991, 57.480 12.629, 53.249 8.914 C 45.904 2.465, 35.014 -0.703, 26.223 1.051 M 42.512 15.980 C 42.106 16.637, 42.224 17.624, 42.774 18.174 C 44.077 19.477, 45.113 17.801, 44.059 16.095 C 43.444 15.101, 43.073 15.073, 42.512 15.980 M 24.372 19.838 C 18.319 21.930, 14.123 24.515, 13.301 26.659 C 12.574 28.552, 14.657 29.991, 18 29.906 C 19.375 29.871, 19.938 29.615, 19.250 29.338 C 17.333 28.564, 17.765 25.628, 20 24.232 C 22.438 22.709, 22.443 22.836, 20.279 31.279 C 18.994 36.296, 18.147 37.970, 17.021 37.720 C 16.184 37.534, 15.642 36.733, 15.816 35.941 C 16.058 34.842, 15.722 34.903, 14.402 36.200 C 11.747 38.808, 14.158 41, 19.681 41 C 22.122 41, 23.881 41.384, 23.591 41.853 C 22.787 43.153, 31.789 49.242, 33.248 48.385 C 37.946 45.626, 45.995 38.431, 45.584 37.358 C 45.312 36.651, 46.420 35.125, 48.045 33.968 C 51.680 31.380, 51.817 29.261, 48.435 27.975 C 44.815 26.599, 43.293 26.693, 44.800 28.200 C 46.888 30.288, 46.119 31.899, 42.040 33.980 C 39.862 35.091, 37.879 36, 37.633 36 C 37.388 36, 37.671 34.425, 38.261 32.500 C 39.454 28.614, 41 27.837, 41 31.122 C 41 32.843, 41.269 33.022, 42.420 32.066 C 43.598 31.089, 43.634 30.171, 42.630 26.694 L 41.420 22.500 32.960 21.993 L 24.500 21.487 29.500 19.813 C 32.954 18.657, 33.727 18.128, 32 18.102 C 30.625 18.082, 27.192 18.863, 24.372 19.838 M 26.257 25.250 C 26.517 25.938, 27.459 29.026, 28.353 32.114 C 29.801 37.122, 30.227 37.679, 32.303 37.282 C 34.086 36.941, 34.931 35.750, 35.925 32.169 C 36.639 29.601, 37.450 26.712, 37.728 25.750 C 38.171 24.217, 37.463 24, 32.010 24 C 27.446 24, 25.912 24.333, 26.257 25.250 M 23.204 31.069 C 21.165 36.221, 21.325 38.475, 23.754 38.820 C 26.761 39.247, 27.345 37.275, 25.633 32.468 L 24.221 28.500 23.204 31.069 M 0.158 32 C 0.158 33.375, 0.385 33.938, 0.662 33.250 C 0.940 32.563, 0.940 31.438, 0.662 30.750 C 0.385 30.063, 0.158 30.625, 0.158 32 M 38.854 38.128 C 37.399 38.661, 35.978 39.975, 35.698 41.049 C 35.008 43.686, 35.871 43.476, 40 40 C 43.636 36.940, 43.353 36.479, 38.854 38.128 M 31 41 C 31 41.550, 31.450 42, 32 42 C 32.550 42, 33 41.550, 33 41 C 33 40.450, 32.550 40, 32 40 C 31.450 40, 31 40.450, 31 41 M 26.500 42 C 26.840 42.550, 27.541 43, 28.059 43 C 28.577 43, 29 42.550, 29 42 C 29 41.450, 28.298 41, 27.441 41 C 26.584 41, 26.160 41.450, 26.500 42" stroke="none" fill="#000000" fill-rule="evenodd"/><path fill-opacity=".848" d="M 25.500 1.630 C 13.554 4.446, 4.411 13.682, 1.622 25.750 C 0.364 31.194, 0.363 32.806, 1.618 38.250 C 4.429 50.441, 13.547 59.558, 25.747 62.377 C 32.116 63.849, 37.862 63.205, 45 60.219 C 52.872 56.925, 60.253 47.832, 62.111 39.140 C 62.774 36.038, 63.695 33.072, 64.158 32.550 C 65.234 31.335, 65.257 29.723, 64.188 30.384 C 63.742 30.660, 62.840 28.288, 62.184 25.113 C 60.058 14.820, 51.750 5.806, 41.500 2.671 C 33.553 0.241, 31.860 0.130, 25.500 1.630 M 42.120 16.355 C 40.492 18.317, 42.978 20.366, 44.708 18.487 C 45.654 17.459, 45.629 16.937, 44.590 16.075 C 43.611 15.262, 42.967 15.335, 42.120 16.355 M 26.409 18.886 C 17.818 21.346, 13.500 24.057, 13.500 26.992 C 13.500 28.840, 14.230 29.562, 16.761 30.218 C 19.683 30.975, 19.955 31.346, 19.373 33.781 C 18.547 37.237, 18.108 38, 16.941 38 C 16.423 38, 16 37.045, 16 35.878 C 16 34.104, 15.753 33.960, 14.500 35 C 12.033 37.048, 12.670 39.888, 15.750 40.574 C 21.482 41.850, 22.610 42.376, 26.603 45.643 C 28.860 47.489, 31.236 49, 31.884 49 C 34.165 49, 45.917 39.517, 45.959 37.644 C 45.982 36.623, 47.125 34.903, 48.500 33.821 C 52.855 30.396, 51.369 27, 45.516 27 C 43.837 27, 42.907 26.171, 42.150 24 C 41.132 21.079, 40.925 20.997, 34.302 20.898 C 28.007 20.803, 27.761 20.721, 31 19.788 C 32.925 19.234, 35.625 18.416, 37 17.969 C 42.251 16.265, 32.666 17.095, 26.409 18.886 M 19.563 24.931 C 17.904 26.763, 18.117 29, 19.951 29 C 20.827 29, 22.377 24.043, 21.709 23.376 C 21.496 23.162, 20.530 23.862, 19.563 24.931 M 28.234 31 C 29.666 35.424, 30.655 37, 31.997 37 C 33.329 37, 34.359 35.393, 35.843 31 L 37.869 25 32.080 25 L 26.291 25 28.234 31 M 43.431 30.250 C 43.469 31.376, 42.938 32.493, 42.250 32.732 C 41.563 32.971, 41 32.454, 41 31.583 C 41 29.041, 39.279 29.762, 38.750 32.525 C 38.332 34.716, 38.548 34.965, 40.384 34.407 C 42.729 33.694, 46 31.099, 46 29.952 C 46 29.546, 45.407 28.986, 44.681 28.708 C 43.844 28.387, 43.388 28.949, 43.431 30.250 M 23.797 30.555 C 23.488 31.075, 22.922 32.962, 22.538 34.750 C 21.893 37.757, 22.034 38, 24.421 38 C 27.310 38, 27.342 37.868, 25.603 33.055 C 24.919 31.161, 24.106 30.036, 23.797 30.555 M 38.869 38.510 C 37.421 39.296, 35.969 40.639, 35.641 41.493 C 34.865 43.516, 37.705 42.088, 40.416 39.093 C 42.625 36.652, 42.426 36.577, 38.869 38.510" stroke="none" fill="#000000" fill-rule="evenodd"/></svg>