<svg xmlns="http://www.w3.org/2000/svg" width="64" height="64" version="1.1" fill="#000000"><path fill-opacity=".247" d="M 22.300 1.862 C 11.528 5.584, 4.524 12.949, 1.339 23.905 C -2.808 38.171, 4.814 54.363, 18.661 60.702 C 36.140 68.704, 57.103 59.480, 62.189 41.548 C 62.821 39.321, 63.711 37.072, 64.169 36.550 C 65.143 35.437, 65.315 25.352, 64.343 26.324 C 63.982 26.685, 62.933 24.757, 62.014 22.040 C 58.538 11.772, 51.049 4.577, 40.614 1.478 C 34.095 -0.458, 28.686 -0.344, 22.300 1.862 M 20.626 21.532 C 20.233 22.556, 20.883 23.385, 22.584 24.032 C 25.932 25.305, 29.425 25.245, 26.250 23.969 C 25.012 23.471, 24 22.375, 24 21.532 C 24 19.543, 21.390 19.543, 20.626 21.532 M 18.336 27.567 C 17.543 29.632, 18.851 30.820, 22.781 31.606 C 25.532 32.156, 26 31.965, 26 30.286 C 26 29.151, 24.924 27.831, 23.453 27.161 C 20.063 25.616, 19.054 25.696, 18.336 27.567 M 0.300 32 C 0.300 35.025, 0.487 36.263, 0.716 34.750 C 0.945 33.237, 0.945 30.762, 0.716 29.250 C 0.487 27.738, 0.300 28.975, 0.300 32 M 18 45.177 L 18 58.102 21.468 59.551 C 26.068 61.473, 26 61.503, 26 57.607 C 26 55.513, 25.426 53.994, 24.500 53.638 C 22.182 52.749, 22.389 40.175, 24.750 38.419 C 27.174 36.616, 25.305 33.747, 21.155 32.898 L 18 32.253 18 45.177 M 24 45.941 C 24 48.659, 24.450 51.160, 25 51.500 C 25.621 51.884, 26 50.010, 26 46.559 C 26 43.502, 25.550 41, 25 41 C 24.450 41, 24 43.223, 24 45.941" stroke="none" fill="#000000" fill-rule="evenodd"/><path fill-opacity=".193" d="M 23.951 1.303 C 14.895 3.863, 6.679 11.040, 2.687 19.878 C -0.216 26.304, -0.205 37.720, 2.710 44.176 C 5.683 50.759, 12.247 57.484, 18.853 60.716 C 26.180 64.301, 36.966 64.546, 44.176 61.290 C 53.171 57.227, 63 45.257, 63 38.363 C 63 37.128, 63.450 35.840, 64 35.500 C 64.550 35.160, 65 33.082, 65 30.882 C 65 28.470, 64.603 27.127, 64 27.500 C 63.441 27.845, 63 27.076, 63 25.755 C 63 18.856, 53.208 6.749, 44.519 2.905 C 38.845 0.395, 29.684 -0.318, 23.951 1.303 M 29 17.941 C 29 18.459, 29.450 19.160, 30 19.500 C 30.550 19.840, 31 19.416, 31 18.559 C 31 17.702, 30.550 17, 30 17 C 29.450 17, 29 17.423, 29 17.941 M 39.839 19.043 C 42.557 20.700, 42.957 21.346, 41.989 22.513 C 40.550 24.247, 34.865 25.435, 31.757 24.652 C 30.515 24.339, 29.050 23.089, 28.500 21.874 C 26.840 18.206, 24.432 17.299, 22.059 19.447 C 20.926 20.472, 20 21.894, 20 22.608 C 20 24.278, 26.173 25.987, 32.230 25.994 C 37.132 26, 45 23.463, 45 21.877 C 45 20.864, 39.059 17.007, 37.500 17.007 C 36.950 17.007, 38.003 17.924, 39.839 19.043 M 34.500 20 C 34.160 20.550, 34.359 21, 34.941 21 C 35.523 21, 36 20.550, 36 20 C 36 19.450, 35.802 19, 35.559 19 C 35.316 19, 34.840 19.450, 34.500 20 M 15.356 25.514 C 14.579 27.540, 16.988 30.079, 21.282 31.759 L 24.500 33.018 21.500 32.462 C 19.850 32.155, 17.712 31.671, 16.750 31.385 C 15.147 30.909, 15 31.952, 15 43.843 L 15 56.822 19.463 58.982 C 25.065 61.694, 36.642 62.051, 42.250 59.685 C 45.246 58.420, 46 57.568, 46 55.444 C 46 53.309, 45.656 52.926, 44.250 53.495 C 40.755 54.911, 30.260 55.241, 26.645 54.048 L 23 52.845 23.193 46.172 L 23.385 39.500 23.740 45.750 L 24.095 52 28.298 51.882 C 32.099 51.775, 32.214 51.702, 29.500 51.122 C 26.632 50.508, 26.494 50.238, 26.355 44.979 L 26.211 39.478 31.855 39.399 C 41.387 39.266, 45.005 38.247, 44.967 35.705 C 44.948 34.492, 44.089 32.487, 43.056 31.250 C 41.497 29.380, 40.176 29, 35.243 29 C 31.857 29, 27.958 28.327, 26.166 27.433 C 24.439 26.571, 21.988 25.756, 20.721 25.621 C 19.453 25.485, 17.869 25.037, 17.201 24.624 C 16.479 24.178, 15.730 24.539, 15.356 25.514 M 0.272 32 C 0.272 34.475, 0.467 35.487, 0.706 34.250 C 0.944 33.013, 0.944 30.988, 0.706 29.750 C 0.467 28.512, 0.272 29.525, 0.272 32 M 27.768 33.725 C 29.565 33.947, 32.265 33.943, 33.768 33.715 C 35.271 33.486, 33.800 33.304, 30.500 33.310 C 27.200 33.315, 25.971 33.502, 27.768 33.725 M 34.843 45.500 C 35.040 47.975, 35.719 50.045, 36.351 50.100 C 36.983 50.155, 36.375 50.598, 35 51.084 C 33.214 51.716, 34.184 51.847, 38.392 51.542 C 41.633 51.307, 44.736 50.664, 45.286 50.114 C 45.955 49.445, 45.610 49.289, 44.247 49.646 C 42.504 50.101, 42.104 49.574, 41.505 46.032 C 40.868 42.257, 40.682 42.047, 39.434 43.692 C 38.143 45.395, 38.062 45.369, 38.032 43.250 C 38.011 41.782, 37.389 41, 36.243 41 C 34.774 41, 34.544 41.738, 34.843 45.500 M 43 46.500 C 43 47.325, 43.450 48, 44 48 C 44.550 48, 45 47.325, 45 46.500 C 45 45.675, 44.550 45, 44 45 C 43.450 45, 43 45.675, 43 46.500 M 31.813 46.683 C 32.534 46.972, 33.397 46.936, 33.729 46.604 C 34.061 46.272, 33.471 46.036, 32.417 46.079 C 31.252 46.127, 31.015 46.364, 31.813 46.683" stroke="none" fill="#000000" fill-rule="evenodd"/><path fill-opacity=".393" d="M 24.929 1.319 C 10.290 5.421, 0.614 17.665, 0.596 32.111 C 0.590 37.548, 1.161 39.884, 3.815 45.275 C 13.375 64.694, 36.972 69.378, 53.249 55.086 C 57.201 51.616, 63 41.098, 63 37.399 C 63 36.145, 63.450 34.840, 64 34.500 C 64.550 34.160, 65 32.532, 65 30.882 C 65 29.137, 64.582 28.140, 64 28.500 C 63.439 28.846, 63 28.064, 63 26.719 C 63 22.919, 57.257 12.433, 53.249 8.914 C 45.392 2.016, 33.666 -1.129, 24.929 1.319 M 27.542 12.792 C 27.244 13.090, 27.007 14.046, 27.015 14.917 C 27.029 16.309, 27.159 16.319, 28.091 15 C 28.965 13.765, 29.083 13.755, 28.761 14.945 C 28.546 15.740, 27.113 16.727, 25.577 17.138 C 24.042 17.548, 21.868 18.698, 20.746 19.692 C 19.283 20.990, 18.838 21.093, 19.168 20.059 C 19.421 19.266, 21.051 17.916, 22.791 17.059 C 26.783 15.092, 26.966 13.767, 23.058 15.130 C 16.982 17.248, 16.618 22.058, 22.345 24.549 C 24.080 25.304, 24.915 25.939, 24.200 25.961 C 23.486 25.982, 21.560 25.307, 19.921 24.459 C 16.401 22.639, 15 23.228, 15 26.527 C 15 28.102, 15.953 29.489, 17.750 30.532 C 20.264 31.991, 19.297 31.929, 15.486 30.388 C 14.170 29.855, 14.013 31.506, 14.284 42.981 C 14.583 55.647, 14.696 56.262, 17.042 58.032 C 23.169 62.653, 36.798 63.184, 44.779 59.113 C 48.314 57.309, 49 56.475, 49 53.980 C 49 51.102, 47.720 50.026, 46.550 51.919 C 45.547 53.541, 35.897 55.055, 30.837 54.384 C 28.140 54.026, 26.115 53.552, 26.337 53.330 C 26.559 53.107, 30.306 52.798, 34.662 52.642 C 40.250 52.443, 43.531 51.799, 45.801 50.458 C 49.656 48.181, 49.461 46.850, 45.087 45.596 C 42.393 44.823, 41.908 44.260, 42.277 42.331 C 42.690 40.170, 40.672 38.864, 39.833 40.750 C 39.650 41.163, 36.800 41.238, 33.500 40.918 L 27.500 40.336 33.500 39.982 C 36.800 39.786, 40.850 39.559, 42.500 39.476 C 48.171 39.190, 49 38.997, 49 37.965 C 49 37.277, 48.300 37.304, 46.914 38.046 C 45.767 38.660, 44.643 38.976, 44.416 38.749 C 44.189 38.522, 45.127 37.735, 46.502 36.999 C 48.442 35.961, 49 34.873, 49 32.131 C 49 29.385, 48.733 28.867, 47.800 29.800 C 47.140 30.460, 46.140 31, 45.577 31 C 45.015 31, 45.555 30.299, 46.777 29.443 C 49.063 27.842, 49.751 24.582, 48.028 23.517 C 47.494 23.187, 45.881 23.687, 44.444 24.629 C 42.626 25.820, 39.348 26.417, 33.666 26.591 L 25.500 26.841 33 26.066 C 42.155 25.120, 43.886 24.430, 45.098 21.242 C 46.309 18.056, 44.919 16.321, 40.134 15.048 C 35.130 13.717, 32.735 14.266, 32.343 16.833 C 31.928 19.557, 33.646 19.691, 34.500 17 C 34.849 15.900, 35.569 15, 36.100 15 C 37.858 15, 43.744 17.777, 44.468 18.948 C 44.860 19.582, 43.459 19.178, 41.355 18.050 C 39.251 16.923, 37.159 16, 36.706 16 C 35.166 16, 37.184 18.119, 39.597 19.037 C 43.261 20.430, 42.526 22.762, 37.997 24.119 C 33.469 25.476, 29 24.185, 29 21.521 C 29 19.710, 29.472 19.647, 32.182 21.098 C 34.848 22.524, 38.191 19.791, 36.207 17.807 C 35.264 16.864, 35 16.972, 35 18.300 C 35 19.365, 34.209 20, 32.883 20 C 31.259 20, 30.888 19.535, 31.290 18 C 31.577 16.900, 31.373 16, 30.835 16 C 30.297 16, 30.564 15.293, 31.429 14.429 C 32.293 13.564, 33 12.721, 33 12.554 C 33 12.017, 28.103 12.230, 27.542 12.792 M 0.232 32 C 0.232 33.925, 0.438 34.712, 0.689 33.750 C 0.941 32.788, 0.941 31.212, 0.689 30.250 C 0.438 29.288, 0.232 30.075, 0.232 32 M 26.659 42.743 C 26.369 43.212, 26.484 44.166, 26.915 44.862 C 27.346 45.559, 27.483 47.256, 27.219 48.633 C 26.768 50.995, 26.960 51.118, 30.612 50.818 C 33.176 50.607, 34.584 49.966, 34.783 48.917 C 35.019 47.668, 34.411 47.433, 31.899 47.802 C 29.690 48.126, 28.931 47.921, 29.417 47.134 C 29.803 46.510, 31.249 46, 32.632 46 C 34.487 46, 35.060 45.541, 34.815 44.250 C 34.585 43.037, 33.363 42.406, 30.835 42.195 C 28.828 42.028, 26.949 42.274, 26.659 42.743 M 42.356 48.500 C 42.740 49.592, 46.014 49.299, 47.309 48.057 C 47.755 47.630, 46.743 47.330, 45.062 47.391 C 43.381 47.451, 42.163 47.950, 42.356 48.500" stroke="none" fill="#000000" fill-rule="evenodd"/><path fill-opacity=".766" d="M 24.369 1.866 C 11.937 5.488, 4.571 13.542, 1.156 27.244 C -1.002 35.908, 4.237 49.678, 12.023 55.804 L 14.500 57.753 14.294 41.729 C 14.085 25.552, 14.803 21.327, 17.577 22.391 C 18.360 22.691, 19 22.539, 19 22.052 C 19 21.565, 18.469 20.990, 17.820 20.773 C 15.678 20.059, 17.866 17.028, 21.719 15.371 C 23.799 14.477, 26.758 13.090, 28.296 12.289 C 30.141 11.328, 31.502 11.160, 32.296 11.795 C 32.958 12.325, 36.029 13.483, 39.119 14.369 C 44.882 16.021, 47.501 17.998, 46.782 20.154 C 46.558 20.825, 47.157 22.157, 48.113 23.113 C 49.638 24.638, 49.829 26.864, 49.675 41.302 L 49.500 57.753 51.977 55.804 C 56.274 52.423, 60.861 44.981, 62.122 39.345 C 62.791 36.355, 63.712 33.678, 64.169 33.395 C 64.626 33.113, 65 31.982, 65 30.882 C 65 29.782, 64.618 29.118, 64.151 29.406 C 63.685 29.695, 62.763 27.521, 62.104 24.575 C 58.462 8.301, 40.136 -2.728, 24.369 1.866 M 36.596 20.609 C 36.120 21.851, 35.186 22.070, 32.505 21.567 C 29.629 21.027, 29.132 21.181, 29.622 22.458 C 30.321 24.280, 37.044 24.582, 40.130 22.930 C 41.726 22.076, 41.890 21.572, 40.942 20.430 C 39.368 18.533, 37.361 18.616, 36.596 20.609 M 0.158 32 C 0.158 33.375, 0.385 33.938, 0.662 33.250 C 0.940 32.563, 0.940 31.438, 0.662 30.750 C 0.385 30.063, 0.158 30.625, 0.158 32 M 44.250 40.220 C 43.013 40.817, 42 42.163, 42 43.212 C 42 44.281, 42.458 44.835, 43.044 44.473 C 43.618 44.118, 44.688 44.326, 45.422 44.935 C 46.454 45.792, 46.893 45.529, 47.364 43.771 C 48.681 38.858, 48.203 38.314, 44.250 40.220 M 27 43.441 C 27 45.489, 28.510 46.161, 31.454 45.422 C 35.352 44.444, 34.671 42, 30.500 42 C 28.119 42, 27 42.461, 27 43.441 M 27 49 C 27 49.550, 28.125 50, 29.500 50 C 30.875 50, 32.326 50.034, 32.725 50.075 C 33.124 50.116, 33.611 49.666, 33.808 49.075 C 34.019 48.442, 32.694 48, 30.583 48 C 28.612 48, 27 48.450, 27 49 M 46 51 C 45.099 51.582, 44.975 51.975, 45.691 51.985 C 46.346 51.993, 47.160 51.550, 47.500 51 C 48.267 49.758, 47.921 49.758, 46 51 M 30.250 53.728 C 32.313 53.944, 35.688 53.944, 37.750 53.728 C 39.813 53.513, 38.125 53.336, 34 53.336 C 29.875 53.336, 28.188 53.513, 30.250 53.728 M 46 59 C 45.099 59.582, 44.975 59.975, 45.691 59.985 C 46.346 59.993, 47.160 59.550, 47.500 59 C 48.267 57.758, 47.921 57.758, 46 59 M 26.813 62.683 C 27.534 62.972, 28.397 62.936, 28.729 62.604 C 29.061 62.272, 28.471 62.036, 27.417 62.079 C 26.252 62.127, 26.015 62.364, 26.813 62.683 M 35.813 62.683 C 36.534 62.972, 37.397 62.936, 37.729 62.604 C 38.061 62.272, 37.471 62.036, 36.417 62.079 C 35.252 62.127, 35.015 62.364, 35.813 62.683 M 30.750 63.662 C 31.438 63.940, 32.563 63.940, 33.250 63.662 C 33.938 63.385, 33.375 63.158, 32 63.158 C 30.625 63.158, 30.063 63.385, 30.750 63.662" stroke="none" fill="#000000" fill-rule="evenodd"/></svg>