<svg width="500" height="491" viewBox="0 0 500 491" fill="#000000" xmlns="http://www.w3.org/2000/svg">
<path fill-rule="evenodd" clip-rule="evenodd" d="M207.343 3.94652C95.5014 25.2447 17.319 107.495 2.17995 219.789C-11.1007 318.276 37.1316 415.954 124.151 466.806L142.208 477.358L146.805 469.801C149.333 465.642 152.613 461.492 154.096 460.578C156.663 458.989 170.311 431.999 179.322 410.688C184.044 399.522 184.852 391.819 181.056 394.164C177.58 396.313 130.514 372.16 125.031 365.414C122.562 362.376 118.362 353.439 115.7 345.553C112.174 335.109 108.637 329.896 102.684 326.373C94.1348 321.31 88.3879 311.818 88.3879 302.759C88.3879 295.606 83.68 287.197 79.6778 287.197C73.1141 287.197 61.9138 273.517 58.9981 261.947C57.3592 255.431 54.9827 249.462 53.7218 248.682C52.4583 247.899 53.209 242.998 55.3872 237.786C57.761 232.099 58.8924 223.466 58.213 216.197C56.7776 200.809 61.9509 188.276 73.9891 177.996C80.6744 172.286 82.382 169.431 80.0003 167.959C77.6582 166.51 78.6178 165.162 83.2464 163.402C86.8627 162.027 91.4834 157.795 93.5162 153.999C95.549 150.2 99.1045 147.094 101.415 147.094C103.728 147.094 107.106 144.715 108.922 141.807C110.762 138.86 115.087 136.52 118.692 136.52C123.038 136.52 131.18 130.824 143.48 119.185C183.105 81.6823 219.582 65.3141 251.428 70.7437C258.441 71.9385 273.693 74.1432 285.324 75.6394C339.393 82.5943 368.593 92.5759 368.593 104.107C368.593 105.584 370.314 108.225 372.418 109.97C374.522 111.717 378.347 118.704 380.919 125.495C383.489 132.286 390.697 146.515 396.936 157.116L408.282 176.386L403.991 189.506C398.876 205.142 401.943 210.598 429.44 234.801C438.137 242.456 445.253 249.805 445.253 251.127C445.253 254.381 435.221 262.877 429.078 264.828C423.09 266.729 422.765 270.889 428.023 278.394C431.48 283.335 431.48 284.366 428.023 287.236C423.381 291.088 422.926 298.178 427.055 302.307C429.226 304.477 428.877 306.867 425.734 311.353C423.214 314.948 421.427 322.907 421.377 330.742C421.242 352.212 418.781 353.79 381.197 356.497C346.058 359.03 341.26 361.279 337.977 376.746C335.029 390.643 320.583 430.744 311.658 449.806C290.958 494.017 305.132 501.271 360.166 474.633C514.075 400.135 547.996 194.872 426.476 73.3501C369.301 16.1777 284.373 -10.722 207.343 3.94652ZM297.405 159.183C281.634 177.145 269.424 201.446 267.431 218.843C266.664 225.517 247.891 249.322 245.377 246.808C244.711 246.144 245.369 240.387 246.839 234.016C250.198 219.44 250.426 192.831 247.209 190.843C238.313 185.348 231.187 208.663 231.089 243.58C231.018 269.1 230.698 270.517 221.882 284.553L212.749 299.092L212.691 277.678C212.619 252.827 208.818 238.946 202.41 240.17C196.378 241.32 195.231 275.774 200.475 298.196C204.189 314.065 204.097 315.778 198.773 330.518L193.15 346.082L188.9 333.037C180.856 308.365 168.196 292.114 162.431 299.061C158.275 304.07 166.288 324.295 180.118 343.698C188.87 355.979 189.167 357.119 186.425 367.999C181.836 386.228 183.525 393.376 188.569 377.074C192.717 363.674 193.634 362.601 200.277 363.394C218.776 365.599 256.381 347.816 254.309 337.843C252.926 331.192 239.04 333.407 216.32 343.907C205.567 348.874 196.769 352.434 196.769 351.816C196.769 351.2 199.756 343.248 203.407 334.147L210.044 317.596L230.502 317.213C255.726 316.74 282.303 305.764 275.269 298.727C273.342 296.803 226.312 305.265 219.918 308.688C213.806 311.958 214.01 310.832 222.225 295.881C233.159 275.981 234.726 274.897 255.266 272.988C274.997 271.154 307.553 257.736 309.93 250.458C311.616 245.298 282.493 248.005 262.194 254.894C246.511 260.218 244.645 260.136 250.299 254.376C252.118 252.525 257.767 246.073 262.855 240.038C271.798 229.432 272.636 229.067 287.968 229.025C310.025 228.967 344.802 217.613 344.802 210.468C344.802 206.741 324.857 207.383 306.493 211.703C297.783 213.751 290.286 215.057 289.834 214.605C288.864 213.635 314.069 197.542 323.654 193.008C340.091 185.239 363.306 167.57 363.306 162.833C363.306 154.385 313.43 179.268 299.84 194.491C294.709 200.243 283.244 208.533 286.792 203.928C298.565 188.647 313.641 149.738 307.786 149.738C306.639 149.738 301.965 153.988 297.405 159.183Z" fill="#000000"/>
</svg>
