<svg xmlns="http://www.w3.org/2000/svg" width="64" height="64" version="1.1" fill="#000000"><path fill-opacity=".349" d="M 24.500 0.876 C 15.282 3.322, 7.248 10.103, 3.126 18.914 C 1.038 23.379, 0.513 26.005, 0.513 32 C 0.513 44.662, 6.732 54.710, 18.283 60.710 C 22.758 63.034, 24.708 63.419, 32 63.419 C 39.292 63.419, 41.242 63.034, 45.717 60.710 C 48.586 59.219, 52.575 56.359, 54.581 54.352 C 58.250 50.683, 62.972 41.955, 62.990 38.809 C 62.996 37.879, 63.450 36.840, 64 36.500 C 64.550 36.160, 65 33.632, 65 30.882 C 65 27.803, 64.616 26.119, 64 26.500 C 63.450 26.840, 62.996 26.304, 62.990 25.309 C 62.973 22.060, 58.310 13.377, 54.581 9.648 C 49.053 4.120, 41.963 0.936, 34.152 0.473 C 30.494 0.257, 26.150 0.438, 24.500 0.876 M 0.300 32 C 0.300 35.025, 0.487 36.263, 0.716 34.750 C 0.945 33.237, 0.945 30.762, 0.716 29.250 C 0.487 27.738, 0.300 28.975, 0.300 32" stroke="none" fill="#000000" fill-rule="evenodd"/><path fill-opacity=".289" d="M 25.147 1.034 C 16.132 2.892, 6.784 10.744, 2.715 19.878 C -0.140 26.286, -0.129 37.738, 2.739 44.176 C 5.645 50.700, 12.218 57.470, 18.745 60.664 C 25.964 64.195, 37.006 64.455, 44.176 61.261 C 53.438 57.135, 63 45.249, 63 37.863 C 63 36.353, 63.450 34.840, 64 34.500 C 64.550 34.160, 65 32.532, 65 30.882 C 65 29.137, 64.582 28.140, 64 28.500 C 63.422 28.857, 63 27.909, 63 26.255 C 63 18.929, 53.480 6.846, 44.676 2.996 C 39.469 0.720, 30.865 -0.145, 25.147 1.034 M 24.153 12.067 C 20.399 13.571, 16.673 16.868, 14.255 20.826 C 13.020 22.847, 12.008 24.795, 12.005 25.156 C 11.993 26.752, 15.880 24.593, 17.089 22.333 C 18.633 19.450, 25.024 15.504, 29.747 14.519 C 33.181 13.803, 38.877 15.247, 42.871 17.846 C 44.175 18.695, 46.096 19.452, 47.140 19.529 C 48.886 19.657, 48.856 19.474, 46.769 17.237 C 41.616 11.715, 31.058 9.301, 24.153 12.067 M 34.446 21.087 C 34.077 21.685, 34.542 23.876, 35.480 25.957 C 37.060 29.460, 37.067 29.970, 35.567 32.870 C 33.981 35.938, 33.994 36, 36.247 36 C 37.820 36, 39.104 34.961, 40.318 32.708 C 42.067 29.461, 42.055 29.350, 39.460 24.708 C 36.795 19.939, 35.662 19.120, 34.446 21.087 M 21.750 30.015 C 18.478 35.948, 18.470 36, 20.918 36 C 22.032 36, 23.744 34.532, 25 32.500 C 26.797 29.593, 27.748 29, 30.617 29 C 33.760 29, 33.974 28.821, 33 27 C 32.222 25.546, 30.916 25.004, 28.215 25.014 C 24.798 25.028, 24.279 25.429, 21.750 30.015 M 0.232 32 C 0.232 33.925, 0.438 34.712, 0.689 33.750 C 0.941 32.788, 0.941 31.212, 0.689 30.250 C 0.438 29.288, 0.232 30.075, 0.232 32 M 26.614 34.563 C 26.284 35.423, 26.698 37.448, 27.533 39.063 C 28.956 41.815, 29.428 42, 35.026 42 C 38.312 42, 41 41.640, 41 41.200 C 41 39.390, 38.381 38, 34.969 38 C 32.119 38, 31.050 37.462, 30 35.500 C 28.459 32.620, 27.465 32.345, 26.614 34.563" stroke="none" fill="#000000" fill-rule="evenodd"/><path fill-opacity=".526" d="M 26.223 1.051 C 11.520 3.986, 0.706 17.162, 0.706 32.141 C 0.706 37.777, 1.255 40.077, 3.873 45.395 C 13.336 64.617, 37.085 69.278, 53.249 55.086 C 57.429 51.416, 63 41.026, 63 36.899 C 63 35.370, 63.450 33.840, 64 33.500 C 64.550 33.160, 65 31.982, 65 30.882 C 65 29.782, 64.550 29.160, 64 29.500 C 63.421 29.858, 63 28.897, 63 27.219 C 63 22.991, 57.480 12.629, 53.249 8.914 C 45.904 2.465, 35.014 -0.703, 26.223 1.051 M 27.340 10.973 C 22.259 12.159, 17.744 15.288, 14.544 19.841 C 12.103 23.314, 11.496 25.306, 11.203 30.793 C 10.905 36.393, 11.243 38.243, 13.250 42 C 19.615 53.917, 35.467 56.675, 45.743 47.653 C 54.022 40.384, 55.310 28.129, 48.782 18.754 C 44.783 13.012, 34.536 9.294, 27.340 10.973 M 24.450 16.407 C 20.371 18.183, 16.293 23.200, 14.988 28.045 C 11.766 40.011, 24.141 52.193, 36.214 48.942 C 41.698 47.466, 47.466 41.698, 48.942 36.214 C 51.017 28.508, 46.609 19.406, 39.329 16.364 C 35.231 14.652, 28.435 14.671, 24.450 16.407 M 34.426 21.438 C 34.050 22.937, 34.483 25.009, 35.550 26.815 C 37.165 29.550, 37.172 29.917, 35.643 32.099 C 33.409 35.288, 33.569 36, 36.516 36 C 38.390 36, 39.444 35.137, 40.644 32.620 C 42.205 29.348, 42.167 29.078, 39.469 24.120 C 36.360 18.409, 35.325 17.858, 34.426 21.438 M 23.433 26.750 C 22.856 27.712, 21.361 30.188, 20.110 32.250 L 17.837 36 20.691 36 C 22.927 36, 23.953 35.242, 25.430 32.500 C 27.024 29.541, 27.848 29, 30.764 29 C 33.499 29, 34.088 28.672, 33.607 27.418 C 33.273 26.548, 33 25.648, 33 25.418 C 33 25.188, 31.083 25, 28.741 25 C 25.750 25, 24.169 25.521, 23.433 26.750 M 0.158 32 C 0.158 33.375, 0.385 33.938, 0.662 33.250 C 0.940 32.563, 0.940 31.438, 0.662 30.750 C 0.385 30.063, 0.158 30.625, 0.158 32 M 27.176 33.224 C 25.557 34.843, 25.702 36.686, 27.716 40.096 C 29.320 42.811, 29.839 43, 35.716 43 C 39.172 43, 41.986 42.663, 41.968 42.250 C 41.871 39.953, 38.956 38, 35.625 38 C 32.643 38, 31.638 37.452, 30.161 35.024 C 28.774 32.744, 28.077 32.323, 27.176 33.224" stroke="none" fill="#000000" fill-rule="evenodd"/><path fill-opacity=".964" d="M 25.230 1.528 C 17.806 3.558, 14.384 5.528, 9.436 10.619 C -2.273 22.667, -2.002 41.903, 10.048 53.952 C 22.388 66.293, 41.612 66.293, 53.952 53.952 C 58.660 49.245, 63 40.643, 63 36.022 C 63 34.975, 63.450 33.840, 64 33.500 C 64.550 33.160, 65 31.982, 65 30.882 C 65 29.782, 64.550 29.160, 64 29.500 C 63.450 29.840, 63 29.208, 63 28.097 C 63 26.985, 62.061 23.566, 60.914 20.499 C 55.735 6.657, 39.003 -2.238, 25.230 1.528 M 24.500 11.490 C 18.801 13.488, 12.509 20.711, 11.004 26.982 C 7.756 40.522, 18.056 53.459, 32 53.353 C 44.251 53.261, 53.327 44.170, 53.320 32 C 53.311 16.867, 38.740 6.498, 24.500 11.490 M 23.907 17.325 C 8.559 25.422, 14.580 48.967, 32 48.967 C 49.445 48.967, 55.501 25.057, 40.034 17.250 C 34.340 14.376, 29.454 14.399, 23.907 17.325 M 34.179 20.506 C 33.238 22.572, 33.378 23.573, 34.978 26.204 C 36.905 29.374, 36.905 29.418, 34.878 32.698 L 32.837 36 36.237 36 C 39.083 36, 39.894 35.471, 41.211 32.750 C 42.734 29.607, 42.683 29.311, 39.662 23.750 C 37.944 20.587, 36.264 18, 35.930 18 C 35.595 18, 34.807 19.128, 34.179 20.506 M 23.202 26.750 C 22.139 28.262, 20.522 30.962, 19.609 32.750 L 17.949 36 20.949 36 C 23.271 36, 24.299 35.322, 25.500 33 C 26.829 30.430, 27.621 30, 31.026 30 C 35.414 30, 35.736 29.496, 33.443 26.223 C 31.112 22.894, 25.719 23.172, 23.202 26.750 M 0.158 32 C 0.158 33.375, 0.385 33.938, 0.662 33.250 C 0.940 32.563, 0.940 31.438, 0.662 30.750 C 0.385 30.063, 0.158 30.625, 0.158 32 M 26.195 34.059 C 25.098 35.815, 25.222 36.623, 27.036 39.559 C 29.103 42.902, 29.346 43, 35.582 43 C 42.419 43, 42.562 42.918, 40.965 39.934 C 40.210 38.524, 38.862 38, 35.990 38 C 32.625 38, 31.825 37.563, 30.500 35 C 28.668 31.457, 27.922 31.294, 26.195 34.059" stroke="none" fill="#000000" fill-rule="evenodd"/></svg>