<svg xmlns="http://www.w3.org/2000/svg" width="200" height="200" fill="#000000"><path fill-opacity=".522" fill-rule="evenodd" d="M0 100.005V200.01l100.25-.255 100.25-.255.255-99.75L201.01 0H0zm.481.495c0 55 .121 77.647.269 50.326.148-27.32.148-72.32 0-100C.602 23.147.481 45.5.481 100.5M88.5 66.392c-5.704 1.795-8.197 3.287-13.209 7.908-5.803 5.349-6.716 7.112-4.578 8.845 1.179.956 1.449.985.916.098-2.043-3.4 10.286-13.376 19.121-15.471 2.888-.685 5.25-1.589 5.25-2.009 0-1.077-2.832-.839-7.5.629m15.313-.709c.721.289 1.584.253 1.916-.079s-.258-.568-1.312-.525c-1.165.048-1.402.285-.604.604m-16.58 3.985c-4.726 1.672-15.579 10.963-14.62 12.515.336.543 2.472-.913 4.748-3.235 4.375-4.462 12.581-8.922 16.448-8.938 1.283-.006 2.034-.454 1.691-1.01-.826-1.336-3.129-1.15-8.267.668m3.659 6.399c-.756.467-2.37.6-3.585.295-1.706-.428-3.361.597-7.258 4.494-4.962 4.961-6.432 7.612-3.626 6.535 1.743-.669 5.556 2.959 5.633 5.359.031.963.594.175 1.25-1.75.924-2.709 1.816-3.572 3.944-3.816 1.513-.174 2.75-.764 2.75-1.309 0-.546-.419-.734-.931-.418-2.075 1.283-2.128-1.765-.069-3.957 1.215-1.294 1.911-2.835 1.546-3.426S90.299 77 90.808 77s2.074 1.734 3.477 3.854c2.879 4.351 10.586 7.811 12.79 5.743.886-.831.928-.612.173.903-.548 1.1-.702 2.81-.342 3.801.525 1.441.916 1.081 1.96-1.807 1.233-3.411 1.161-3.74-1.332-6.05C106.083 82.1 104.387 81 103.763 81s-2.104-.911-3.288-2.024c-2.668-2.506-7.743-4.047-9.583-2.909m25.858 6.774c.963 1.013 2.109 1.648 2.549 1.411 1.123-.605-1.255-3.252-2.921-3.252-1.036 0-.943.458.372 1.841m-5.182 1.05c-.635 1.027 4.315 4.559 5.179 3.695.653-.653-2.643-4.586-3.843-4.586-.432 0-1.034.401-1.336.891m-71.997 4.68c-.864.865-1.571 2.365-1.571 3.334 0 2.555-1.093 3.257-2.86 1.836-1.221-.981-1.187-.722.158 1.232.936 1.359 1.669 3.834 1.629 5.5-.063 2.62-.33 2.305-1.982-2.349C32.584 91.475 31.398 90 28.413 90c-4.029 0-4.693 2.954-3.907 17.379.829 15.21 2.005 17.968 5.971 14.001 1.315-1.314 1.51-2.966 1.037-8.75l-.583-7.13 2.115 5c1.163 2.75 2.145 6.575 2.181 8.5.044 2.292.215 2.704.497 1.192.327-1.754.74-2.052 1.721-1.238 2.219 1.842 3.896-1.601 4.523-9.288.361-4.419.842-6.399 1.255-5.166 1.078 3.216 2.198 9.872 1.936 11.5-.144.89.08 1.093.549.5.436-.55 1.643-1 2.683-1 3.915 0 4.206-2.804 1.453-14.008-2.422-9.858-2.468-10.462-.679-8.842 1.742 1.576 1.861 1.582 1.279.064C49.775 90.971 44.048 87 42.203 87c-.583 0-1.767.707-2.632 1.571m60.626.692C98.915 90.807 99.005 95 100.32 95c.492 0 .635.675.318 1.5-.316.825-.153 1.5.362 1.5s.65.749.299 1.664c-.467 1.216-.278 1.441.701.836s1.168-.38.701.836c-.351.915-.233 1.664.263 1.664s1.187.9 1.536 2c1.231 3.878 4.358 2.334 7.26-3.584l2.739-5.583 1 5.833 1.001 5.834 4.5.623c5.4.748 6 .48 6-2.682 0-1.343-.338-2.388-.75-2.323-.412.066-1.537.066-2.5 0-2.558-.173-2.144-1.791.435-1.697 1.761.064 2.427-.794 3.434-4.421 1.218-4.385 1.236-4.308.697 3.03-.447 6.104-.254 7.777 1.022 8.836 1.911 1.585 3.662.693 3.662-1.866 0-3.355 1.809-3.11 2.968.402 1.358 4.115 3.607 5.251 5.236 2.644 1.146-1.836 1.221-1.827 2.265.278.667 1.342 2.603 2.542 5.056 3.131 2.186.526 4.355 1.426 4.819 2 .502.621.616.334.282-.705-.31-.963-.165-1.75.322-1.75s1.337-1.237 1.89-2.75c.903-2.473 1.012-2.224 1.083 2.474.072 4.794.334 5.356 3.169 6.823 1.7.879 3.748 1.345 4.552 1.037s1.217-.164.917.321.672 1.187 2.159 1.56c2.753.691 5.282-1.265 5.282-4.085 0-1.962-2.984-4.427-6.121-5.054-1.619-.324-2.879-1.225-2.879-2.059 0-1.128.659-1.31 2.75-.758 4.826 1.275 5.628 1.051 6.679-1.864.892-2.47.716-3.109-1.31-4.75-1.287-1.042-3.191-1.895-4.23-1.895-1.069 0-1.889-.698-1.889-1.608 0-1.58 1.882-1.526 6.333.182 2.353.903 5.106-3.885 3.721-6.473-.971-1.814-2.921-2.608-10.803-4.402-1.39-.316-3.555.376-5.67 1.81-2.656 1.803-4.302 2.204-7.363 1.793-2.708-.363-4.727-.014-6.447 1.113-2.399 1.571-2.571 1.54-4.07-.749-1.797-2.742-8.616-4.317-11.654-2.691-1.291.691-1.997.676-2.238-.047-.57-1.711-8.556-2.383-10.376-.873-1.287 1.068-1.735 1.074-2.379.032-1.558-2.52-4.365-.656-5.893 3.913l-1.504 4.5-1.346-3.5c-2.592-6.74-4.104-8.159-6.114-5.737m-25.148 1.178c-1.307 1.575-.45 17.193.992 18.084 1.946 1.203 3.959-.898 3.959-4.132 0-2.961.321-3.393 2.525-3.393 2.009 0 2.648.617 3.129 3.021.712 3.558 1.935 4.565 3.732 3.074.714-.593 1.594-.782 1.956-.42 1.114 1.114.727-11.179-.459-14.58-.851-2.441-1.624-3.131-3.25-2.899-1.596.227-2.212 1.122-2.446 3.554-.26 2.692-.732 3.25-2.75 3.25C80.561 96 80 95.471 80 93.7c0-2.197-1.639-4.7-3.078-4.7-.372 0-1.215.649-1.873 1.441m18.161 7.234c.265 8.062.463 8.825 2.29 8.825 1.843 0 2-.667 2-8.5 0-8.098-.108-8.515-2.29-8.825-2.256-.32-2.286-.195-2 8.5m-30.994-5.203c-1.616 1.36-3.133 2.277-3.372 2.039-.486-.486.002 5.786.717 9.211 1.122 5.384 7.662 7.911 12.216 4.721 4.079-2.856 1.747-6.864-2.629-4.522-2.676 1.432-5.372-1.179-4.952-4.797.261-2.252.843-2.668 4.11-2.938 4.131-.34 5.671-2.304 3.683-4.699-1.867-2.25-6.482-1.785-9.773.985m-10.08 1.705c-1.017 2.718 1.069 16.428 2.757 18.116 3.104 3.104 4.58-8.139 2.225-16.946-.968-3.617-3.815-4.286-4.982-1.17M122 95.383c0 .211 1.125.599 2.5.862s2.5.09 2.5-.384c0-.473-1.125-.861-2.5-.861s-2.5.173-2.5.383m34.56 3.149-.663 3.532-2.583-2.032c-4.172-3.281-5.128-2.327-1.042 1.041 2.05 1.69 3.728 3.715 3.728 4.5s.45 1.427 1 1.427 1.005-1.013 1.011-2.25.29-3.937.631-6c.8-4.839-1.176-5.045-2.082-.218M134.5 97c-.34.55.084 1 .941 1S137 97.55 137 97s-.423-1-.941-1-1.219.45-1.559 1m8.636 1.679c-.075 1.198-.81 2.852-1.633 3.675-2.097 2.097-.911 4.351 2.298 4.368 1.484.007 3.824.342 5.199.742 2.211.645 2.073.342-1.2-2.618-2.034-1.84-3.886-4.471-4.113-5.846-.359-2.164-.433-2.207-.551-.321m-43.057 6.904c.048 1.165.285 1.402.604.605.289-.722.253-1.585-.079-1.917s-.568.258-.525 1.312M67.5 107l-3 1.987 2.633.006c1.796.005 2.8-.629 3.157-1.993.287-1.1.452-1.997.366-1.993-.086.003-1.506.9-3.156 1.993m17.5 3.509c0 .987 4.504 4.491 5.772 4.491 2.364 0 .835-2.126-2.555-3.551-1.769-.744-3.217-1.167-3.217-.94m17.177 6.238c-4.027 2.992-7.118 5.645-6.868 5.896.344.343 8.309-4.728 14.545-9.261.195-.141.195-.666 0-1.167-.195-.5-3.649 1.539-7.677 4.532M82 114.345c0 1.35 3.073 4.655 4.329 4.655 1.35 0 .621-2.735-1.158-4.345-2.217-2.006-3.171-2.099-3.171-.31m21.725 5.257c-3.686 2.545-6.487 4.973-6.226 5.397.518.838 13.356 3.479 13.962 2.873.881-.882.829-12.275-.057-12.571-.538-.179-3.994 1.756-7.679 4.301M79 117.878c0 1.256 2.934 3.521 3.643 2.812.327-.327-.101-1.291-.953-2.142-1.737-1.738-2.69-1.975-2.69-.67"/><path fill-opacity=".459" fill-rule="evenodd" d="M0 100.005V200.01l100.25-.255 100.25-.255.255-99.75L201.01 0h-36.432c-33.856 0-36.464.124-36.889 1.75-.435 1.667-.463 1.667-.573 0C127.007.103 123.265 0 63.5 0H0zm.481.495c0 55 .121 77.647.269 50.326.148-27.32.148-72.32 0-100C.602 23.147.481 45.5.481 100.5M165.683 4.384c-.328.854-.196 1.799.292 2.1 1.275.789 2.036-.849 1.098-2.366-.621-1.004-.925-.946-1.39.266m-17 1c-.328.854-.196 1.799.292 2.1 1.275.789 2.036-.849 1.098-2.366-.621-1.004-.925-.946-1.39.266M82 22c0 .55.477 1 1.059 1s.781-.45.441-1-.816-1-1.059-1-.441.45-.441 1m5 .559c0 .857.457 1.276 1.016.931.559-.346.758-1.047.441-1.559C87.6 20.544 87 20.802 87 22.559M178.158 34c0 1.375.227 1.938.504 1.25.278-.687.278-1.812 0-2.5-.277-.687-.504-.125-.504 1.25M44.813 39.683c.721.289 1.584.253 1.916-.079s-.258-.568-1.312-.525c-1.165.048-1.402.285-.604.604m15 7c.721.289 1.584.253 1.916-.079s-.258-.568-1.312-.525c-1.165.048-1.402.285-.604.604m26.544 20.399c-6.146 2.364-13.633 8.706-17.529 14.85C67.273 84.385 66 86.685 66 87.044c0 .358 1.35.69 3 .737 2.049.058 3-.394 3-1.428 0-.832 2.592-4.105 5.76-7.273 7.301-7.301 13.25-9.535 23.619-8.869 7.16.46 14.024 2.867 16.385 5.747 1.097 1.337 1.23 1.342 1 .042-.145-.825-.71-1.819-1.256-2.208-.633-.453-.542-1.158.25-1.95.808-.808 1.242-.86 1.242-.149 0 .601.787 1.368 1.75 1.705 1.085.379.724-.306-.951-1.803-7.123-6.368-23.036-8.515-33.442-4.513m6.393.58c.688.278 1.813.278 2.5 0 .688-.277.125-.504-1.25-.504s-1.937.227-1.25.504m10.519.031c.973.254 2.323.237 3-.037s-.119-.481-1.769-.461-2.204.244-1.231.498m-73.19 2.89c.048 1.165.285 1.402.604.605.289-.722.253-1.585-.079-1.917s-.568.258-.525 1.312M111 70.059c0 .582.45.781 1 .441s1-.216 1 .274c0 .491.735.893 1.632.893 1.414 0 1.389-.179-.191-1.334-2.197-1.606-3.441-1.706-3.441-.274M78.405 74.25 76.5 76.5l2.25-1.905c1.237-1.048 2.25-2.06 2.25-2.25 0-.8-.805-.209-2.595 1.905m11.639 1.216c-5.582 1.149-7.038 1.944-10.75 5.873C74.411 86.507 73.981 88 77.375 88c1.661 0 2.822.922 3.861 3.069l1.487 3.068.608-3.042c.682-3.41 4.657-5.18 7.093-3.158.918.762 1.613.813 2.023.148.858-1.387 14.601-1.072 14.44.332-.068.595-.053 1.983.034 3.083.121 1.54.482 1.252 1.57-1.25.777-1.787 1.997-3.257 2.711-3.265 1.005-.012.987-.213-.08-.889-.861-.545-1.063-1.382-.538-2.232.462-.747.929-2.522 1.037-3.943.159-2.08-.429-2.811-3.009-3.744-5.2-1.881-11.676-2.128-18.568-.711M72.807 79.75C71.045 81.802 69.724 84 70.253 84c.204 0 1.369-1.35 2.589-3 2.41-3.26 2.388-4.071-.035-1.25m18.82-.988c.173.282-.64 1.913-1.807 3.625L87.7 85.5l2.864-2.736c1.911-1.827 2.512-3.032 1.806-3.625-.582-.489-.916-.659-.743-.377m30.186-.079c.721.289 1.584.253 1.916-.079s-.258-.568-1.312-.525c-1.165.048-1.402.285-.604.604m3.586.567c-.396.688-.351.916.099.509s1.534-.183 2.41.5c1.409 1.098 1.434 1.039.22-.509-1.636-2.086-1.8-2.116-2.729-.5M115 80.81c0 1.289 3.91 4.614 4.606 3.917.327-.327.299-1.071-.062-1.655-.937-1.516-4.544-3.312-4.544-2.262m-3.473 3.146c-.691 1.118 3.916 4.396 5.457 3.883 1.435-.479-1.702-4.839-3.482-4.839-.761 0-1.65.43-1.975.956M125 83.833c0 .459.655.834 1.456.834s1.224-.375.941-.834-.938-.833-1.456-.833-.941.375-.941.833m-84.694 3.811c-.656.267-1.703 2.028-2.325 3.914l-1.132 3.429-3.269-2.494C31.782 91.122 29.396 90 28.278 90c-4.128 0-4.625 2.143-3.891 16.784.726 14.478 1.662 17.261 5.285 15.704 1.006-.432 2.841-.686 4.078-.565 1.437.141 2.25-.325 2.25-1.289 0-1.453.716-1.62 7.25-1.686 1.609-.017 2.75-.581 2.75-1.36 0-1.879 8.064-3.092 9.152-1.377.577.911.822.687.833-.761.022-3.021 1.932-4.565 4.168-3.368 1.506.806 1.847.624 1.847-.984 0-1.691.493-1.892 3.456-1.411 1.901.308 4.264.232 5.25-.17 2.764-1.125 9.238-1.136 9.779-.017.266.55.375-1.138.242-3.75-.228-4.484-.101-4.746 2.266-4.68 2.296.065 2.339.143.507.93-1.742.749-1.771.868-.225.93.976.038 2.181 1.139 2.677 2.445.628 1.65 1.688 2.375 3.476 2.375 2.464 0 2.579-.257 2.745-6.125l.172-6.125.578 6.267c.317 3.447.802 6.335 1.077 6.419s1.489-.377 2.698-1.024c1.76-.943 2.258-2.22 2.5-6.419L99.5 95.5l2.367 6.237c1.302 3.43 2.784 5.979 3.294 5.664s1.668.028 2.575.763c1.175.953 1.432.977.897.086-.413-.687-.318-1.25.212-1.25s2.019-2.56 3.309-5.689l2.346-5.69.5 6.93c.415 5.748.819 6.991 2.368 7.286 1.277.243 1.627-.036 1.106-.879-.582-.942.159-1.062 3.129-.505 2.141.402 4.224 1.252 4.629 1.889.449.705.743.747.753.108.008-.577 1.59-1.05 3.515-1.05 2.018 0 3.5.498 3.5 1.178 0 .647.761 1.795 1.692 2.55 1.15.932 1.451.971.941.122q-.752-1.25 1.249-1.25c1.1 0 2.277.448 2.615.995s1.602 1.52 2.809 2.163c1.943 1.036 2.045.989.895-.405-1.526-1.852-.25-3.028 1.847-1.702.798.505 2.69.925 4.202.934 2.359.013 2.75.424 2.75 2.893 0 3.71 2.759 6.305 4.119 3.873.85-1.519 1.408-1.48 6.839.474 4.909 1.766 6.178 1.907 7.477.829 2.121-1.76 1.969-4.65-.366-6.985-1.907-1.907-1.901-1.949.5-3.523 2.744-1.797 3.227-5.607.995-7.84-1.249-1.248-1.12-1.605.983-2.731 2.736-1.464 3.873-4.076 2.989-6.861-.422-1.331-2.507-2.366-7.08-3.515-6.081-1.527-6.651-1.52-9.219.113-1.505.958-2.992 2.095-3.303 2.527-.312.432-2 .285-3.751-.325-2.668-.93-3.718-.796-6.467.826l-3.282 1.936-1.717-2.277c-1.963-2.601-10.14-4.376-11.928-2.588-.747.747-1.484.636-2.496-.375-1.71-1.71-8.418-1.911-10.029-.3-.847.847-1.568.702-2.843-.572-2.16-2.16-3.744-.801-5.756 4.938l-1.401 3.998-1.294-4.262c-1.588-5.23-3.375-6.977-5.41-5.288-.792.657-1.631 2.175-1.864 3.373-.36 1.852-.444 1.782-.56-.466C98.023 89.656 96.415 88 94.393 88c-.243 0-.928 1.237-1.521 2.75-1.034 2.639-1.111 2.664-1.891.639-1.722-4.468-5.426-3.502-6.135 1.601-.514 3.701-3.399 3.731-4.683.048-1.283-3.681-3.978-5.011-5.615-2.773-.792 1.084-1.623 1.3-2.606.678-2.571-1.627-6.722-.999-9.641 1.457-2.527 2.127-3.072 2.241-4.768 1-2.659-1.944-5.52-1.765-5.596.35-.052 1.413-.229 1.342-.919-.368-.471-1.166-2.408-3.078-4.305-4.25-3.509-2.169-4.289-2.35-6.407-1.488M122 95.383c0 .211 1.111.596 2.47.856 1.358.26 2.232.087 1.941-.383-.512-.829-4.411-1.246-4.411-.473M65 97c0 .55.486 1 1.079 1 .691 0 .831 1.134.389 3.147-.684 3.113-.656 3.141 2.563 2.497 1.914-.383 3.815-.187 4.612.475 1.533 1.272 1.768.018.727-3.869-.457-1.704-1.364-2.267-3.737-2.32-2.656-.06-2.829-.201-1.133-.93 1.676-.72 1.474-.871-1.25-.93-1.787-.038-3.25.38-3.25.93m84.5 2c.34.55 1.068 1 1.618 1s.722-.45.382-1-1.068-1-1.618-1-.722.45-.382 1m16.5.941c0 1.572 1.892 2.228 4.259 1.476 2.172-.691 2.179-.737.241-1.495-2.798-1.093-4.5-1.086-4.5.019m-43.25 2.721c.688.278 1.813.278 2.5 0 .688-.277.125-.504-1.25-.504s-1.937.227-1.25.504m-22.671 3.588c-.054 2.557.359 3.75 1.299 3.75.757 0 1.884.61 2.503 1.356.892 1.076-.022 2.119-4.414 5.035l-5.54 3.678 1.719 2.908c1.285 2.177 2.742 3.078 5.786 3.582 2.237.37 4.823 1.069 5.746 1.554 3.116 1.635 4.822-.013 4.822-4.661 0-2.384.45-4.612 1-4.952s1-.041 1 .663c0 .782.819.462 2.1-.819 1.816-1.816 1.932-2.416.854-4.431-2.312-4.32-8.133-7.438-6.651-3.562.715 1.869-4.917 1.74-6.562-.15-.814-.936-1.953-3.051-2.532-4.701l-1.051-3zM140.71 105c.288 1.1.921 2 1.407 2 1.045 0 1.082-.319.276-2.418-.881-2.296-2.3-1.944-1.683.418m3.972-.348c-.711.71 3.846 3.369 5.682 3.315.625-.019.074-.919-1.225-2-2.512-2.093-3.413-2.359-4.457-1.315M42 107.941c0 1.682.45 3.059 1 3.059s1-1.098 1-2.441-.45-2.719-1-3.059c-.583-.361-1 .656-1 2.441m41.023-1.845c-.049 3.451 3.152 7.989 6.043 8.567 1.59.318 3.142 1.416 3.472 2.456.743 2.341 1.328 2.328 4.462-.099 2.046-1.584 2.299-2.261 1.391-3.728-.61-.986-1.51-1.724-2-1.641-.49.084-1.619-.238-2.51-.714-2.019-1.081-3.211-.04-1.843 1.609.614.74-.37.577-2.467-.408-1.918-.901-4.171-2.988-5.006-4.638-.836-1.65-1.53-2.282-1.542-1.404M31 109.559c0 1.407.408 2.307.906 1.999s.671-1.46.383-2.559c-.719-2.752-1.289-2.504-1.289.56m133.496 1.448c-.343.554.1 1.285.984 1.624 1.914.734 2.981-.075 2.061-1.564-.83-1.344-2.235-1.371-3.045-.06m-83.533 2.923c.51.954 1.601 2.293 2.423 2.975.822.683 1.271 1.825.997 2.539s.267 1.591 1.201 1.95c1.37.526 1.473.38.532-.754-.915-1.103-.806-1.545.508-2.049 1.496-.574 1.436-.898-.56-3.023-2.853-3.037-6.472-4.199-5.101-1.638M78 113.882c0 .55.45 1.278 1 1.618s1 .168 1-.382-.45-1.278-1-1.618-1-.168-1 .382m-9.397 1.951c-.283.459.12.834.897.834s1.18-.375.897-.834S69.71 115 69.5 115s-.614.375-.897.833M79 117.878c0 1.278 2.94 3.515 3.667 2.789.726-.727-1.511-3.667-2.789-3.667a.88.88 0 0 0-.878.878m41.405 3.372-1.905 2.25 2.25-1.905c1.237-1.048 2.25-2.06 2.25-2.25 0-.8-.805-.209-2.595 1.905M75 124c.589 1.1 1.295 2 1.57 2s.019-.9-.57-2-1.295-2-1.57-2-.019.9.57 2m46.872-.25c-1.243 1.586-1.208 1.621.378.378 1.666-1.307 2.195-2.128 1.372-2.128-.207 0-.995.787-1.75 1.75M80 123.378c0 .207.787.995 1.75 1.75 1.586 1.243 1.621 1.208.378-.378-1.307-1.666-2.128-2.195-2.128-1.372m13.813 1.305c.721.289 1.584.253 1.916-.079s-.258-.568-1.312-.525c-1.165.048-1.402.285-.604.604m-2 5c.721.289 1.584.253 1.916-.079s-.258-.568-1.312-.525c-1.165.048-1.402.285-.604.604m13 0c.721.289 1.584.253 1.916-.079s-.258-.568-1.312-.525c-1.165.048-1.402.285-.604.604"/><path fill-opacity=".12" fill-rule="evenodd" d="M194.5 1c-1.1.473-1.452.891-.781.93.67.038.959.745.643 1.57-.365.95.013 1.5 1.031 1.5.884 0 1.621.563 1.639 1.25.017.688.692 2.124 1.5 3.191 1.346 1.78 1.468 1.469 1.468-3.75 0-6.061-.774-6.722-5.5-4.691M88.286 64.403c-10.107 3.274-18.517 10.58-22.787 19.796-2.759 5.957-5.865 8.572-8.036 6.77-.798-.662-2.568-.991-3.932-.73-1.579.302-3.061-.168-4.078-1.291-.879-.971-2.912-2.31-4.519-2.976-2.425-1.004-3.336-.939-5.352.382-1.337.876-2.722 2.512-3.079 3.636l-.648 2.043-2.929-2.086c-3.653-2.601-6.652-2.218-9.173 1.172-1.82 2.447-1.892 3.565-1.101 16.965l.848 14.345 3.398 2.286c4.461 3 7.637 2.924 9.705-.232 1.257-1.919 1.964-2.258 2.968-1.424 2.604 2.161 6.26.414 8.05-3.846.066-.159 1.314.256 2.773.921 2.265 1.032 3.05.918 5.379-.781 1.5-1.093 3.557-2.297 4.572-2.676 1.015-.378 2.074-1.563 2.354-2.634.391-1.497 1.184-.596 3.432 3.903 3.542 7.088 10.067 13.318 17.694 16.894 4.968 2.328 6.921 2.658 15.675 2.648 9.255-.011 10.45-.247 16.037-3.157 6.508-3.39 13.484-10.21 16.14-15.779 1.492-3.13 2.005-3.438 5.272-3.161 1.99.169 4.586.825 5.769 1.458s3.478 1.151 5.1 1.151c2.105 0 3.098.571 3.47 1.995.312 1.193 2.47 2.836 5.367 4.088 7.579 3.276 10.731 3.49 14.271.97 3.504-2.495 4.584-5.499 3.263-9.071-.656-1.772-.494-3.113.571-4.739.964-1.47 1.264-3.373.855-5.418-.446-2.23-.141-3.692 1.044-5.001 1.964-2.17 2.2-7.084.442-9.202-1.295-1.561-9.313-3.638-13.9-3.6-1.486.012-3.79.859-5.12 1.882-1.73 1.33-3.471 1.719-6.106 1.366-2.028-.272-4.641.016-5.808.641-1.748.935-2.477.779-4.144-.888C140.91 89.91 138.901 89 137.559 89c-1.962 0-3.07-1.179-5.641-6.002-6.539-12.268-17.712-19.277-31.418-19.708-4.734-.149-9.72.305-12.214 1.113M89 65.879c-8.475 2.777-17.425 10.113-21.081 17.28-2.282 4.473-2.373 5.229-.541 4.526.758-.291 1.845-.062 2.415.508.716.716 1.533.076 2.641-2.065 4.945-9.563 15.582-16.126 26.138-16.127 11.113-.002 19.708 4.732 26.49 14.589 4.725 6.868 8.612 5.611 4.934-1.597-2.844-5.575-8.882-11.387-15.212-14.642-4.391-2.258-6.806-2.766-14.284-3.004-4.95-.158-10.125.082-11.5.532M117 73c0 .55.45 1 1 1s1-.45 1-1-.45-1-1-1-1 .45-1 1m-27.489 2.562c-4.997 1.086-6.694 2.048-10.25 5.812C74.548 86.362 73.993 88 77.015 88c1.157 0 2.775 1.251 3.803 2.941l1.788 2.941 1.109-2.939c1.31-3.469 3.834-4.706 6.371-3.121 1.029.642 2.063.746 2.377.238.305-.494 3.283-.911 6.616-.927 5.852-.028 6.097.075 7.112 2.985l1.051 3.014 1.933-3.18c1.629-2.678 2.376-3.092 4.731-2.621 4.317.864 6.953-.156 6.351-2.457-.677-2.588-8.382-7.807-14.045-9.511-5.33-1.604-8.586-1.565-16.701.199m31.489.969c0 .808.675 1.469 1.5 1.469s1.5-.402 1.5-.893-.675-1.152-1.5-1.469c-.914-.35-1.5-.001-1.5.893m-30.394 5.317L88.712 84.5l2.338-2.222c1.287-1.222 2.139-2.416 1.894-2.652s-1.296.763-2.338 2.222m35.406.175c1.241 2.318 1.988 2.537 1.988.584 0-.766-.685-1.656-1.523-1.978-1.243-.476-1.328-.22-.465 1.394m-86.809 6.233c-.573.69-1.349 2.478-1.724 3.973l-.682 2.718-3.243-2.474C31.77 91.113 29.396 90 28.278 90c-4.112 0-4.624 2.165-3.971 16.786.587 13.165.715 13.804 3.208 15.964 4.04 3.501 8.485 2.461 8.485-1.985 0-1.545.327-1.66 2.065-.73 4.278 2.289 6.08 2.041 7.227-.996.667-1.768 1.763-2.835 2.829-2.755.957.072 1.54.455 1.295.852s.483 1.015 1.617 1.375c2.319.735 4.967-.992 4.967-3.24 0-.961.575-1.264 1.627-.861 2.058.79 4.373-1.08 4.373-3.532 0-2.017 1.482-2.526 2.51-.862.346.559 1.047.758 1.559.441.512-.316.931-.098.931.484 0 1.543 4.643 1.295 7.971-.426 2.077-1.074 2.98-1.163 3.26-.323.771 2.314 2.769-.393 2.769-3.751 0-2.774.387-3.441 2-3.441 1.1 0 2 .625 2 1.389s.848 2.437 1.885 3.718c1.588 1.96 2.132 2.123 3.447 1.033.858-.713 1.731-3.173 1.94-5.468l.379-4.172.174 4.128c.206 4.852 2.343 7.308 4.675 5.372 1.025-.85 1.513-3.187 1.542-7.372l.043-6.128 2.439 5.876c2.593 6.243 4.149 8.624 5.637 8.624.505 0 2.475-3.25 4.378-7.222L115 95.556v6.663c0 3.665.426 6.927.948 7.249.521.322 2.883.752 5.25.957s5.124.704 6.13 1.11c1.171.473 2.415.151 3.463-.897 1.514-1.515 1.8-1.432 3.848 1.113 1.731 2.151 2.479 2.487 3.439 1.546.958-.939 1.771-.774 3.709.75 2.609 2.052 7.213 2.66 7.213.953 0-.55.477-1 1.059-1s.721.562.308 1.25c-.51.849-.209.81.941-.122 1.529-1.241 1.692-1.032 1.692 2.178 0 3.397.242 3.641 5.632 5.657 3.097 1.159 5.872 1.867 6.166 1.572s-.016-.535-.69-.535-.939-.464-.589-1.031c.375-.606 2.089-.758 4.168-.368 2.499.469 3.788.258 4.407-.719 1.509-2.382.988-5.711-1.124-7.191-2.011-1.408-2.006-1.437.5-3.079 3.041-1.993 3.494-6.951.78-8.532-.963-.561-1.272-1.033-.689-1.05 1.766-.05 5.44-3.992 5.424-5.819-.028-3.148-1.624-4.304-7.987-5.789-6.18-1.441-6.401-1.421-9.909.892-2.895 1.908-4.123 2.187-6.349 1.44-2.118-.712-3.507-.49-5.976.952-3.212 1.876-3.22 1.875-5.242-.475-2.353-2.736-9.68-4.174-11.896-2.336-1.085.901-1.533.789-2.03-.506-.53-1.379-1.642-1.572-6.521-1.13-3.658.332-6.299.117-6.986-.57-1.525-1.525-3.657.762-5.399 5.793l-1.377 3.977-1.737-5.23c-1.998-6.015-4.736-7.073-6.414-2.479-.925 2.532-1.01 2.57-1.083.469-.109-3.155-2.989-4.048-5.009-1.554-1.616 1.996-1.621 1.996-3.214-.064-1.369-1.77-1.826-1.871-3.225-.709-.897.744-1.631 2.39-1.631 3.657 0 3.476-3.233 3.622-4.708.212-1.505-3.477-4.178-4.638-5.744-2.496-.792 1.084-1.623 1.3-2.606.678-2.6-1.645-6.735-.988-9.75 1.549-2.58 2.171-3.12 2.299-4.199 1-1.76-2.121-5.977-1.941-6.056.258-.052 1.413-.229 1.342-.919-.368-.933-2.31-6.844-6.382-9.264-6.382-.83 0-1.978.565-2.551 1.256M67.355 99.75c-.845 3.232-.378 3.75 3.441 3.81 3.609.058 3.781-.082 3.389-2.75-.346-2.359-.89-2.81-3.392-2.81-1.997 0-3.131.577-3.438 1.75m.724 1.833c.048 1.165.285 1.402.604.605.289-.722.253-1.585-.079-1.917s-.568.258-.525 1.312m31.928 3.917c-.058 4.664-1.007 5.334-7.609 5.365-5.857.028-6.145-.09-7.678-3.168-1.57-3.153-1.593-3.161-1.656-.602-.071 2.891-3.352 6.463-5.001 5.444-2.17-1.341-.986 1.046 1.717 3.461 1.539 1.375 2.207 2.098 1.485 1.607-1.901-1.292-2.909.196-1.205 1.779 1.487 1.381 20.034 7.614 22.659 7.614 2.272 0 8.281 3.098 8.281 4.269 0 .573-.823.296-1.829-.614s-2.918-1.637-4.25-1.615c-2.071.034-1.851.324 1.521 2.006 3.837 1.915 7.558 1.83 7.558-.172 0-.546.408-.74.908-.431 1.526.943 10.829-7.139 13.539-11.762 1.404-2.396 2.553-4.557 2.553-4.802s-1.238-.374-2.75-.287-2.686.552-2.607 1.033c.173 1.062-10.856 11.773-12.485 12.125-.676.146-1.158-1-1.158-2.75 0-1.65.375-3 .833-3 1.086 0 8.167-7.081 8.167-8.167 0-.458-1.093-.833-2.429-.833-3 0-5.558-2.426-5.611-5.321-.037-1.988-.172-1.936-1.544.595-.828 1.525-1.236 3.208-.908 3.738.328.531-.067.711-.878.4-.811-.312-2.415-.062-3.566.554s-2.014.763-1.918.327-.788-2.818-1.964-5.293c-2.055-4.325-2.14-4.383-2.175-1.5m40.957-.664c.659 1.284 1.472 2.061 1.807 1.726.336-.335-.203-1.386-1.197-2.336-1.728-1.65-1.755-1.623-.61.61M148.5 107c.34.55 1.068 1 1.618 1s.722-.45.382-1-1.068-1-1.618-1-.722.45-.382 1M85 114.5c1.292 1.375 2.574 2.5 2.849 2.5s-.557-1.125-1.849-2.5-2.574-2.5-2.849-2.5.557 1.125 1.849 2.5m14 1.106c-1.925 1.379-4.12 2.869-4.877 3.312-1.099.641-1.135 1.186-.175 2.693.983 1.543 1.105 1.573.667.16-.382-1.231.749-2.613 3.924-4.798 2.454-1.688 4.461-3.272 4.461-3.521 0-.676-.205-.565-4 2.154m-29.814 2.525c2.982 5.322 8.953 10.501 15.519 13.459 5.918 2.666 16.34 3.958 20.795 2.577l3-.93-3.93-1.707c-2.161-.939-5.392-1.536-7.179-1.327-1.788.208-3.031.023-2.762-.412s-.416-.791-1.523-.791c-4.878 0-14.949-6.392-18.097-11.486-1.699-2.748-2.822-3.514-5.155-3.514h-2.982zm57.565-1.924c-.273.711-.577 1.607-.675 1.991-.493 1.932-7.706 8.254-8.659 7.589-.619-.431-1.084-.167-1.084.616 0 .754.488 1.277 1.084 1.161 1.253-.242 10.001-8.564 9.003-8.564-.366 0-.096-.686.6-1.524s1.031-1.758.746-2.043-.742.063-1.015.774m-55.093 2.344c.306.797.958 1.449 1.449 1.449 1.438 0 1.026-1.735-.556-2.342q-1.452-.56-.893.893M194.5 119c-.995 1.1-2.405 2-3.132 2s-2.109 1.237-3.072 2.75c-.962 1.513-2.21 3.081-2.773 3.485-.651.467-.568.74.227.75.688.008 1.25.482 1.25 1.053s-1.012.951-2.25.844c-4.155-.357-5.75.108-5.75 1.677 0 .857-.403 1.31-.895 1.006-.493-.305-1.153.119-1.469.941-.315.822-1.484 1.494-2.596 1.494s-2.575.884-3.25 1.964c-.856 1.371-1.907 1.794-3.479 1.399-2.181-.547-5.842 1.773-4.661 2.954.306.305-.896.514-2.67.463-2.004-.057-3.569.52-4.13 1.523-.538.962-1.558 1.363-2.524.992-1.32-.507-1.524-.109-1.094 2.137.49 2.563.322 2.729-2.352 2.337-1.584-.232-2.88-.051-2.88.404s-1.323.827-2.941.827-3.235.476-3.595 1.059c-.36.582-1.849.8-3.309.485-2.077-.449-3.492.175-6.499 2.863-3.195 2.857-4.397 3.347-7.123 2.905-1.892-.307-3.569-.063-3.965.578-.377.61-2.009 1.11-3.627 1.11s-2.941.408-2.941.906-.842.687-1.871.418c-1.371-.359-2.041.188-2.507 2.045-.6 2.391-.915 2.502-5.545 1.954-6.258-.741-9.775.149-10.578 2.679-.795 2.506-7.499 2.951-7.499.498 0-.825-.675-1.5-1.5-1.5s-1.5.436-1.5.969-.72.692-1.601.354-1.991.013-2.469.781c-.709 1.138-1.242 1.165-2.886.146-2.905-1.801-4.817-1.542-5.544.75-.674 2.125-2.5 2.766-2.5.878 0-.791-.431-.765-1.456.086-.801.664-1.926.918-2.5.563s-1.044-.168-1.044.414S61.523 172 60.941 172s-.801-.418-.485-.928c.697-1.128-3.033-2.451-4.447-1.578-.555.343-1.009.139-1.009-.455 0-.597-1.088-.881-2.442-.635-1.343.243-2.595-.014-2.781-.573s-1.562-1.086-3.057-1.173c-1.918-.111-2.719-.701-2.719-2.002-.001-1.014-.901-2.079-2.001-2.366-1.1-.288-2-.921-2-1.407 0-.485-.9-.883-2-.883-1.313 0-2-.667-2-1.941 0-1.068-.45-2.219-1-2.559s-1-.162-1 .394c0 .557-1.347.246-2.994-.691-2.103-1.196-3.032-2.521-3.125-4.453-.213-4.474-.313-4.781-1.872-5.745-.821-.507-3.858-1.217-6.75-1.578-3.352-.419-5.259-1.135-5.259-1.975 0-.724-.9-1.603-2-1.952s-2-1.054-2-1.567S9.486 137 8.858 137s-2.54-1.463-4.25-3.25L1.5 130.5.849 136c-.358 3.025-.696 18.662-.75 34.75L0 200h72c47.333 0 72-.343 72-1 0-.55 1.152-1 2.559-1 1.479 0 2.294.429 1.931 1.017-.422.681 8.045.929 25.691.75l26.319-.267-.129-39.701c-.112-34.403-.336-39.907-1.679-41.25-1.958-1.958-2.017-1.952-4.192.451m-119.282 3.977c1.258 2.016 2.782 2.707 2.782 1.264 0-.418-.91-1.328-2.023-2.023-1.876-1.172-1.931-1.117-.759.759m5.458 4.622c.644 1.678 3.66 1.91 3.103.238-.213-.639-1.119-1.27-2.014-1.401-1.034-.152-1.431.272-1.089 1.163m107.927 1.568c.283.458.938.833 1.456.833s.941-.375.941-.833c0-.459-.655-.834-1.456-.834s-1.224.375-.941.834M87 131.059c0 .582.45.781 1 .441s1-.816 1-1.059-.45-.441-1-.441-1 .477-1 1.059m3 .91c0 .532.675.709 1.5.393.825-.317 1.5-.753 1.5-.969s-.675-.393-1.5-.393-1.5.436-1.5.969m5 .781c0 .412 2.009.793 4.463.845s4.228-.285 3.941-.75c-.645-1.044-8.404-1.132-8.404-.095M.444 170c0 16.775.137 23.637.304 15.25s.167-22.113 0-30.5S.444 153.225.444 170M134 153c0 .55.423 1 .941 1s1.219-.45 1.559-1-.084-1-.941-1-1.559.45-1.559 1m63.145 12.325c-.908 1.094-.834 1.688.331 2.655 1.224 1.016 1.619.936 2.145-.435.897-2.337-.981-4.022-2.476-2.22m-140.876.368c.973.254 2.323.237 3-.037s-.119-.481-1.769-.461-2.204.244-1.231.498m110.36 9.165c-1.609 1.777-1.613 2.016-.058 3.571s1.794 1.551 3.571-.058c1.316-1.191 1.552-1.942.764-2.429-.628-.388-1.46-1.22-1.848-1.848-.487-.788-1.238-.552-2.429.764m-117.456 7.801c.421 2.189 3.327 2.498 3.327.355 0-.818-.828-1.646-1.841-1.841-1.336-.257-1.743.15-1.486 1.486m82.996 1.572c-.767.767-.764 1.657.009 3.102 1.054 1.969 1.125 1.974 2.454.156.752-1.029 1.368-2.187 1.368-2.573 0-1.286-2.741-1.775-3.831-.685m20.98 6.089c-.909 1.096-.859 1.676.222 2.573 1.073.891 1.517.842 1.92-.208.866-2.257-.75-4.042-2.142-2.365"/><path fill-opacity=".655" fill-rule="evenodd" d="M88.782 64.34c-9.897 2.799-19.357 11.214-23.788 21.16-.98 2.2-2.658 4.722-3.728 5.603-1.681 1.385-2.206 1.414-3.851.211-1.048-.766-2.82-1.273-3.937-1.127-1.118.147-3.378-.692-5.023-1.863-5.077-3.615-8.912-3.432-11.187.533l-1.64 2.856-3.279-1.935c-3.772-2.225-6.695-1.706-8.842 1.571-1.161 1.772-1.318 4.89-.81 16.123.596 13.19.762 14.049 3.138 16.251 4.444 4.119 9.835 4.254 10.877.272.603-2.309.755-2.351 3.392-.94 2.586 1.385 5.631.354 6.435-2.178.446-1.404 1.149-1.812 2.301-1.336 3.834 1.584 5.071 1.548 6.831-.199 1.021-1.013 3.088-2.395 4.593-3.071 1.505-.675 2.752-2.025 2.773-3 .02-.974 1.23.698 2.688 3.716 3.455 7.145 10.855 14.458 18.039 17.825 4.967 2.328 7.013 2.688 15.257 2.688 8.743 0 10.067-.269 16.197-3.287 6.894-3.394 13.654-9.877 16.539-15.863 1.285-2.666 2.07-3.15 5.104-3.15 1.973 0 4.486.63 5.585 1.4s3.402 1.4 5.116 1.4c2.294 0 3.397.615 4.179 2.33.71 1.56 3.028 3.047 7.013 4.5 7.28 2.655 7.923 2.664 11.996.181 2.785-1.698 3.25-2.548 3.25-5.937 0-2.176-.446-4.231-.991-4.568-.583-.361-.094-1.825 1.192-3.564 1.766-2.389 1.999-3.471 1.223-5.679-.759-2.157-.59-3.097.808-4.495 2.044-2.044 2.368-8.027.518-9.557-.687-.569-4.053-1.612-7.478-2.318-5.659-1.167-6.574-1.111-10 .612-2.185 1.099-5.316 1.779-7.442 1.617-2.018-.153-4.618.23-5.778.85-1.721.921-2.588.751-4.715-.922-1.434-1.127-3.61-2.05-4.836-2.05-1.702 0-2.614-1.007-3.854-4.255-2.538-6.645-9.794-14.2-17.086-17.79-7.563-3.723-18.935-4.833-26.779-2.615M92 65.379c-10.538 2.365-19.602 9-23.959 17.54-2.622 5.139-2.572 5.67.516 5.535 1.781-.078 3.177-1.15 4.602-3.533 2.717-4.546 6.9-8.921 8.528-8.921.722 0 1.313-.42 1.313-.933 0-.919 2.658-2.113 4.388-1.97.489.041 1.26-.527 1.714-1.262.588-.952 3.345-1.33 9.611-1.317 7.573.016 9.495.39 13.91 2.703C117.798 75.932 126 84.149 126 86.622c0 1.429 4.664 3.047 5.726 1.986.828-.828-2.115-6.94-5.44-11.3-7.275-9.537-22.043-14.675-34.286-11.929M117.5 73c.34.55.816 1 1.059 1s.441-.45.441-1-.477-1-1.059-1-.781.45-.441 1m-27.689 2.504c-6.025 1.316-10.545 4.279-13.199 8.65C74.531 87.58 74.579 88 77.047 88c1.226 0 2.728 1.199 3.75 2.994 2.102 3.695 2.977 3.787 3.387.357.422-3.533 3.154-5.246 5.766-3.614 1.089.68 2.203.824 2.512.325.305-.494 3.081-.875 6.169-.847 5.064.045 5.771.323 7.208 2.827l1.593 2.776 1.769-2.909c1.679-2.759 5.071-3.896 6.196-2.076.283.459 1.829.641 3.435.405 2.833-.416 2.879-.511 1.533-3.207-1.596-3.2-7.745-7.548-13.588-9.61-4.705-1.66-9.092-1.638-16.966.083M121.5 77c-.34.55.084 1 .941 1S124 77.55 124 77s-.423-1-.941-1-1.219.45-1.559 1m4.158 4.551c.607 1.582 2.342 1.994 2.342.556 0-.491-.652-1.143-1.449-1.449q-1.452-.56-.893.893m-86.455 6.705c-.573.69-1.349 2.478-1.724 3.973l-.682 2.718-3.243-2.474C31.77 91.113 29.396 90 28.278 90c-4.073 0-4.612 2.193-4.007 16.281.313 7.271.849 13.933 1.193 14.805.343.872 2.162 2.319 4.043 3.216 3.075 1.466 3.572 1.476 4.956.093.845-.846 1.537-2.457 1.537-3.581 0-1.943.122-1.964 2.465-.429 3.537 2.318 5.411 2.003 6.759-1.135.649-1.513 1.254-2.877 1.343-3.031s1.526.501 3.194 1.458c2.548 1.463 3.287 1.528 4.635.409.882-.732 1.604-1.888 1.604-2.57 0-.782.922-1.062 2.502-.76 2.152.411 2.589.038 3.13-2.668.619-3.095.67-3.12 3.111-1.521 1.725 1.131 3.588 1.437 6.119 1.007 2.001-.34 4.988-.721 6.638-.846 2.696-.205 3.031-.608 3.31-3.978.397-4.792 3.071-5.039 5.19-.478 1.988 4.277 5.23 4.398 6.122.228.449-2.102.677-2.363.76-.872.065 1.17.793 2.687 1.618 3.372 2.752 2.284 4.493-.53 4.563-7.372l.063-6.128 2.731 6.995c3.649 9.344 5.109 9.469 9.548.819l3.497-6.814.049 6.191c.027 3.405.542 6.496 1.144 6.868.603.372 3.04.799 5.418.949 2.377.149 4.852.599 5.5 1 .648.4 2.245.157 3.549-.541 2.107-1.128 2.592-1.001 4.334 1.132 1.534 1.877 2.229 2.138 3.186 1.198.955-.938 1.768-.774 3.705.75 2.774 2.182 8.178 2.588 10.013.753.933-.933 1.2-.394 1.2 2.428 0 3.485.219 3.71 5.538 5.7 6.375 2.385 7.771 2.505 10.778.922 4.219-2.221 5.043-6.784 1.654-9.159-2.011-1.408-2.006-1.437.5-3.079 3.041-1.993 3.494-6.951.78-8.532-.971-.566-1.194-1.033-.5-1.05 1.935-.047 5.25-3.81 5.25-5.959 0-2.985-2.271-4.59-8.456-5.974-5.427-1.214-5.848-1.161-9.378 1.175-2.854 1.888-4.239 2.245-6.076 1.565-2.688-.994-5.797-.295-8.249 1.854-1.473 1.291-1.732 1.228-2.298-.556-.803-2.53-6.667-4.539-11.133-3.814-1.855.301-3.657.088-4.004-.472-.347-.563-3.158-.879-6.268-.706-3.101.173-6.2-.041-6.888-.474-1.838-1.157-3.235.078-5.297 4.685-1.158 2.587-2.016 3.559-2.317 2.626-.263-.814-.886-2.83-1.385-4.48-1.161-3.836-4.877-4.686-6.094-1.394l-.832 2.247-.569-2.177c-.701-2.68-3.33-2.83-4.922-.281-1.151 1.842-1.232 1.836-2.894-.218-1.462-1.804-1.946-1.917-3.325-.772-.888.737-1.615 2.41-1.615 3.717 0 3.548-3.45 3.119-5-.622-1.31-3.163-4.633-4.12-5.596-1.611-.416 1.084-1.139 1.16-3.292.347-3.393-1.281-7.634-.317-9.815 2.23-1.604 1.874-1.685 1.874-4.031.029-2.418-1.902-5.266-1.721-5.266.334 0 .614-.702.113-1.561-1.112C48.767 89.83 44.012 87 41.672 87c-.785 0-1.896.565-2.469 1.256m28.464 10.411c-.367.366-.667 1.638-.667 2.825 0 1.814.558 2.146 3.497 2.083 3.129-.067 3.497-.364 3.5-2.825.003-2.354-.405-2.75-2.83-2.75-1.559 0-3.134.3-3.5.667m.412 2.916c.048 1.165.285 1.402.604.605.289-.722.253-1.585-.079-1.917s-.568.258-.525 1.312m31.992 4.045c-.095 4.19-1.586 5.179-7.87 5.222-4.903.034-5.445-.203-7.247-3.157l-1.947-3.193-.003 2.693c-.004 2.705-3.505 6.233-5.167 5.206-1.431-.884-.917 1.29.604 2.552.792.657 1.211 1.792.931 2.521-.852 2.222 3.76 4.297 18.02 8.105 4.891 1.306 9.083 2.564 9.314 2.796.232.232-1.744.709-4.392 1.06-9.557 1.267-21.128-3.716-26.929-11.597-2.449-3.326-8.39-5.779-8.38-3.46.01 2.299 7.712 11.233 12.398 14.383 16.575 11.139 38.951 6.326 49.772-10.705 3.097-4.873 3.655-6.988 1.338-5.065-.818.679-2.128.989-2.91.689-.889-.341-2.453.941-4.168 3.416-1.51 2.178-4.588 5.321-6.84 6.983-3.978 2.935-4.104 2.96-4.427.879-.231-1.49 1.063-3.479 4.25-6.532 5.142-4.927 5.663-6.424 2.237-6.424-2.927 0-5.639-2.889-5.707-6.079-.043-2.031-.301-1.817-1.606 1.329-1.298 3.128-2.043 3.75-4.49 3.75-2.489 0-3.22-.645-4.822-4.25l-1.889-4.25zm40.893-.792c.659 1.284 1.472 2.061 1.807 1.726.336-.335-.203-1.386-1.197-2.336-1.728-1.65-1.755-1.623-.61.61m-69.306 13.715c.306.797.958 1.449 1.449 1.449 1.438 0 1.026-1.735-.556-2.342q-1.452-.56-.893.893m49.779 4.699-2.937 3.25 3.25-2.937c1.787-1.615 3.25-3.078 3.25-3.25 0-.773-.825-.092-3.563 2.937m-46.219-.273c1.258 2.016 2.782 2.707 2.782 1.264 0-.418-.91-1.328-2.023-2.023-1.876-1.172-1.931-1.117-.759.759m5.464 4.636c.293.763 1.159 1.387 1.925 1.387 2.078 0 1.682-1.691-.532-2.27-1.351-.353-1.767-.09-1.393.883m18.131 5.07c.721.289 1.584.253 1.916-.079s-.258-.568-1.312-.525c-1.165.048-1.402.285-.604.604"/></svg>