<svg xmlns="http://www.w3.org/2000/svg" width="32" height="32" fill="#000000"><g clip-path="url(#a)"><path fill="#757575" d="M16 32c8.837 0 16-7.163 16-16S24.837 0 16 0 0 7.163 0 16s7.163 16 16 16"/><path fill="#0F0F0F" d="M9.06 23.826c.093.107.088.25.09.368.001.242.111.426.236.614.052.08.118.16.071.265-.567-.27-1.946-2.176-2.434-3.37a.4.4 0 0 0-.14.217c-.157.477-.306.957-.458 1.435-.023.072-.028.174-.11.185-.106.014-.125-.098-.153-.172-.088-.24-.29-.418-.337-.68-.087-.49-.133-.98.005-1.467.036-.126.034-.159-.114-.124-.46.104-.924.1-1.385.008-.165-.033-.182-.094-.07-.23.258-.317.621-.526.873-.852.134-.174.27-.345.367-.543.021-.047.091-.097.03-.151-.055-.05-.12-.005-.17.022-.171.087-.336.184-.505.276-.044.024-.093.076-.137.028-.042-.045-.003-.098.022-.155.166-.376.32-.757.48-1.134.017-.04.028-.08-.014-.1-.05-.023-.095.011-.13.044-.261.238-.544.455-.752.747-.028.039-.04.112-.106.089-.064-.024-.064-.095-.056-.151q.052-.367.11-.735a6 6 0 0 1 .546-1.678 2.8 2.8 0 0 1 .411-.629c-.568.132-.893.556-1.322.83-.05-.154.024-.253.058-.359.079-.042.09-.1.042-.174.166-.461.33-.918.557-1.36.255-.492.645-.841 1.021-1.217.176-.174.367-.323.581-.433.179-.094.377-.153.572-.209.174-.05.219-.133.155-.304q-.15-.406-.148-.844c.005-.607-.012-1.216.014-1.822.016-.348.076-.694.13-1.04.044-.282.054-.572.094-.856.054-.384.117-.77.146-1.156.028-.354.02-.71.019-1.066 0-.102.001-.2.03-.301.06-.22.117-.27.327-.207q.273.08.539.185c.551.224 1.108.44 1.651.677.718.313 1.457.595 2.116 1.033.345.23.635.513.889.842.18.237.416.417.678.561.142.078.247.008.342-.085.213-.204.468-.32.749-.398.129-.036.133.014.124.107-.012.14-.096.25-.15.373l-.108-.113c-.04-.08.06-.128.064-.2-.048-.005-.075-.008-.109.007a2.1 2.1 0 0 0-.646.494c-.076.08-.14.08-.252.05-.329-.09-.53-.368-.818-.513.001-.23-.134-.363-.305-.498-.396-.314-.798-.619-1.26-.825-.747-.337-1.51-.64-2.252-.988-.4-.188-.833-.311-1.204-.566-.129-.088-.278-.01-.318.166-.028.119-.04.246.023.36.065.119.08.243.08.375-.002.387-.049.772-.068 1.158-.01.206-.05.408-.074.61-.044.37-.013.752-.143 1.108a1.1 1.1 0 0 0-.067.377c.002.646.023 1.294-.01 1.939-.02.359.061.69.127 1.028.023.123.194.204.355.179s.153-.125.122-.244c-.014-.055-.005-.117-.01-.174-.03-.34-.1-.673-.231-.988-.06-.145-.03-.222.12-.258.041.199.189.359.222.556.074.446.125.895.127 1.348-.06.04-.1-.046-.155-.026-.07.006-.142.019-.212.017-.654-.01-1.21.261-1.716.63-.5.367-.889.841-1.17 1.399a5.2 5.2 0 0 0-.408 1.16c-.04.013-.078.04-.047.078.043.053.075.012.09-.036.146-.056.238-.188.367-.268.414-.26.913-.381 1.247-.774.02-.025.092-.096.144-.019.044.064-.03.086-.062.112-.329.284-.564.65-.786 1.01-.321.522-.477 1.123-.624 1.718a1.5 1.5 0 0 0-.092.578c.09.004.135-.058.179-.107.217-.257.47-.474.725-.69.163-.138.322-.278.415-.476.033-.068.08-.094.155-.076-.206.403-.363.825-.545 1.238-.084.198-.174.392-.248.592-.024.064-.025.171.104.104.2-.104.418-.154.635-.2l.06.056c.011.166-.14.244-.208.368-.14.264-.292.523-.501.749-.137.147-.308.26-.427.424-.06.048-.117.1-.18.146-.049.034-.11.057-.081.132.024.067.088.039.135.037.428-.015.865.039 1.275-.143.022-.01.05-.01.076-.01.171-.01.213.047.15.207-.041.1-.1.187-.13.294-.073.264-.06.527-.035.794.03.345.07.688.265.99.022.032.033.077.075.077.056.002.043-.05.053-.085q.073-.297.15-.592c.087-.326.179-.654.38-.93.097-.131.099-.24.04-.373-.024-.052-.098-.125-.017-.159.059-.026.087.072.116.124.016.028.028.058.044.086.113.22.144.472.268.693.421.752.904 1.461 1.436 2.14.045.058.082.166.166.135.093-.035.068-.157.047-.225-.115-.371.102-.74-.033-1.11.102.001.118.061.146.111.123.218.227.45.374.646.445.594.971 1.111 1.543 1.585.481.4 1.044.656 1.578.965.037.021.072.037.104.007.033-.03.024-.074.008-.108a5 5 0 0 0-.165-.308 1.9 1.9 0 0 1-.248-1.031c.12.076.208.138.304.19.575.315 1.043.757 1.471 1.245q.124.146.233.304c.034.047.076.04.121.036.046-.005.042-.042.042-.073.004-.297.139-.565.17-.856a.25.25 0 0 1 .146-.037c.001.109-.014.22.008.325.088.414.153.832.164 1.258a.3.3 0 0 0-.005.208c-.093.22-.023.46-.08.685-.014.054-.073.127-.01.176.072.052.13-.02.187-.056.357-.23.624-.558.924-.852.275-.27.478-.602.757-.87q.464-.443.733-1.03c.085-.186.17-.37.23-.568.021-.07.079-.096.129-.076.046.02.012.076-.003.118-.086.227-.139.464-.247.683a.66.66 0 0 0-.075.316c.008.314-.124.595-.218.884-.012.039-.07.063-.03.118.045.063.093.018.135 0 .424-.179.85-.345 1.23-.617.326-.233.635-.486.938-.747l.2.084c.008.295-.003.587-.104.873.076.042.143.015.21-.034.197-.145.402-.282.597-.43.884-.681 1.645-1.469 2.164-2.47.105-.276.307-.5.431-.766.025-.053.028-.133.117-.128-.01.187-.101.351-.16.522-.028.08-.036.137.01.211.18.303.256.637.27.987.003.091-.033.192.04.28.185-.19.25-.442.371-.662.229-.42.4-.864.482-1.338.035-.205.056-.415.102-.617.067-.282.101-.57.123-.858.14-.119.025-.307.118-.437.08.034.087.1.084.175-.011.356.022.713-.073 1.068a.83.83 0 0 0 .033.514c.099.281.184.582.142.896-.098.056-.07.143-.048.222.01.033.047.042.081.031.096-.03.1-.107.092-.188l-.003-.018c.085-.437.192-.869.296-1.299.14-.58.19-1.166.212-1.757.014-.341.006-.683.007-1.025l.072-.039c.026.036.048.069.048.12 0 .326.129.596.343.842.199.226.356.481.434.783.027.112.104.21.178.355.005-.265.078-.472.1-.688.021-.199-.018-.412.073-.604.048-.011.07-.031.024-.073l.042-.544c.004-.003.011-.008.01-.01a.1.1 0 0 0-.011-.027l-.014-.112c.022-.082.028-.162-.022-.238a1.2 1.2 0 0 1-.043-.36.9.9 0 0 0-.084-.458q0-.054-.003-.107c.084-.017.138.052.208.073.03.15-.024.332.161.425l.089.15q.016.082.1.085c-.013.088.032.208.088.2.113-.015.014-.122.026-.188.011-.064.027-.141-.025-.203l-.01-.048.009-.013-.01-.012.016-.2c.005-.004.012-.01.012-.012q-.007-.013-.015-.026c-.088-.207-.068-.433-.129-.648-.095-.334-.08-.71-.405-.946-.03-.021-.04-.068-.069-.12.283.12.68.491.898.777.134.176.235.387.441.52-.352-1.767-1.042-3.325-2.487-4.473.173.059.316-.01.465-.072.138-.055.276.04.418.027.035-.003.083.018.104-.025.025-.056-.027-.084-.062-.106q-.106-.06-.216-.113a32 32 0 0 0-1.568-.696c-.091-.037-.26.031-.268-.12-.011-.166.172-.074.251-.135.028-.021.062-.038.087-.066-.025-.02-.046-.053-.074-.058-.36-.062-.71-.205-1.09-.16-.046.006-.108.09-.147.006-.036-.076.014-.14.078-.18.217-.137.435-.272.679-.365.287-.11.56-.255.862-.328.026-.006.084-.01.082-.063-.002-.044-.036-.064-.075-.078l-.105-.039a8 8 0 0 0-1.24-.307c-.405-.072-.818-.175-1.22.029-.029.014-.09.03-.117-.05.31-.234.55-.554.884-.778a.5.5 0 0 0-.235-.015c-.298.079-.617-.02-.907.111-.033.014-.087.052-.114-.014-.029-.074.049-.062.078-.08.454-.27.909-.536 1.361-.808.044-.027.137-.023.115-.101-.019-.065-.1-.042-.155-.044a7.5 7.5 0 0 0-1.495.08c-.323.046-.65.063-.966.177-.135.048-.283.143-.466.071.262-.233.527-.444.724-.722.08.068.012.144.014.217 0 .05-.047.106-.003.148.05.046.093-.013.138-.031a.5.5 0 0 1 .224-.055c.166.007.295-.066.416-.174.165-.144.357-.253.553-.354.4-.21.82-.374 1.24-.542.143-.057.304-.073.436-.144.232-.126.446-.286.673-.421.104-.062.195-.159.346-.162-.039.15-.17.174-.258.24-.245.181-.273.242-.21.53a.8.8 0 0 1 .005.345.5.5 0 0 0 .02.285c.128.35.151.708.123 1.082-.015.212-.132.375-.166.568-.022.122-.078.15-.183.136.161-.38.149-.778.122-1.18-.03-.438-.181-.858-.177-1.3 0-.144-.079-.08-.135-.049-.659.375-1.403.56-2.06.937-.028.008-.073.01-.062.05.014.046.06.028.097.024.554-.059 1.105.008 1.657.052.073.006.158.018.174.096.019.09-.073.118-.137.134-.303.077-.54.268-.786.444-.079.057-.194.078-.239.219.25-.034.486-.06.732-.012-.26.17-.42.438-.657.62-.04.03-.094.061-.08.124.011.045.056.05.097.048.377-.017.745.057 1.115.109.11.015.188-.016.233-.119.071.014.084.07.095.13.014.077.064.138.141.136.24 0 .41.17.622.236a.5.5 0 0 1 .26.16c.067.084.063.123-.054.157-.357.103-.716.208-1.048.38-.08.043-.146.098-.142.19.005.093.089.114.166.134q.347.09.692.19c.071.021.13.07.122.153-.006.08-.077.072-.133.08-.045.007-.095.013-.101.072s.043.073.082.095q.135.076.272.148c.332.166.472.1.468-.254-.008-.745.206-1.45.363-2.167.087-.397.163-.798.137-1.205a5.4 5.4 0 0 0-.412-1.727c-.043-.108-.05-.23-.1-.333-.169-.334-.347-.662-.487-1.01-.031-.079-.09-.102-.168-.104-.225-.004-.432.004-.641.145-.365.244-.79.377-1.203.525-.492.175-.927.449-1.339.763-.05.038-.12.077-.116.146.004.082.091.045.141.062.078.025.117.073.069.143-.102.146-.24.251-.394.337-.041.023-.066-.023-.079-.062-.003-.045.084-.027.06-.075-.033-.064-.106-.054-.156-.04-.567.16-1.168.242-1.59.727-.09.104-.182.211-.308.286-.13.076-.194-.008-.207-.097-.017-.115-.037-.24.03-.355.026-.047.079-.114.02-.156-.047-.032-.101.025-.15.055-.354.208-.646.487-.916.792-.048.054-.102.091-.165.06-.074-.038-.054-.118-.027-.177.048-.108.108-.213.163-.318.138.051.28.116.37-.073l.119-.128-.008.004c.171-.182.395-.28.618-.372.092-.037.184-.028.173.115-.003.033 0 .065 0 .097-.003.063.022.118.076.142.059.027.11-.004.155-.05.302-.3.653-.529 1.067-.624.448-.102.762-.393 1.077-.685.435-.4.963-.62 1.507-.814.44-.157.885-.301 1.303-.51.18-.09.368-.046.552-.063.063-.006.102.047.127.103.379.838.769 1.676.958 2.584.063.3.114.608.117.914.005.408-.054.814-.166 1.212-.2.716-.354 1.44-.382 2.191-.01.243.048.336.25.424.194.086.365.22.498.393.034.045.114.081.087.137-.032.068-.115.031-.177.026q-.039-.003-.076-.01-.013-.005-.023.001-.11 0-.22.002l.002-.003a1 1 0 0 1-.355.015h.003l-.089.019q-.014.044.027.067c.414.361.764.78 1.064 1.244.543.843.868 1.766 1.04 2.75.049.276.053.559.139.83.017.056.035.134-.055.16-.093.028-.118-.04-.143-.107-.169-.46-.484-.823-.793-1.208a.22.22 0 0 0-.027.199c.2.588.202 1.199.211 1.81 0 .05 0 .105-.01.153-.013.048-.03.106-.092.11s-.089-.05-.107-.096c-.056-.137-.101-.278-.162-.412-.022-.048-.053-.12-.124-.099-.07.019-.036.087-.036.132a9 9 0 0 1-.141 1.68c-.062.336-.182.666-.188 1.014 0 .034-.028.068-.05.116a.55.55 0 0 1-.17-.29 5.5 5.5 0 0 0-.355-.979c-.071-.141-.157-.275-.242-.41-.017-.026-.056-.053-.095-.036-.034.016-.033.047-.026.082.082.5-.01.99-.104 1.472-.097.483-.202.967-.38 1.43-.073.19-.124.392-.253.555-.074.093-.149.124-.175-.031a5 5 0 0 1-.075-.589 1.2 1.2 0 0 0-.112-.479c-.08.25-.143.496-.24.726-.241.565-.543 1.098-.878 1.61-.03.046-.064.153-.159.105-.077-.039-.048-.127-.05-.194-.004-.2-.002-.401-.004-.601 0-.227-.043-.445-.146-.65-.017-.036.006-.098-.068-.091-.053.004-.075.043-.097.084-.102.194-.2.388-.332.567a8.8 8.8 0 0 1-1.745 1.812c-.33.252-.669.499-1.048.678-.051.023-.11.087-.174.021-.06-.06-.036-.122-.01-.194.081-.234.139-.475.164-.724.003-.034.021-.082-.027-.1-.042-.018-.071.012-.1.04-.311.313-.673.559-1.057.775-.35.196-.715.356-1.103.452-.113.028-.192.129-.318.124-.089-.003-.148-.02-.087-.121.105-.177.177-.37.26-.558l.005-.008-.003-.009q.014-.052.027-.104c.018-.084.094-.158.059-.269-.13.076-.154.22-.25.299-.227.219-.462.449-.633.702-.194.287-.461.475-.688.716-.238.252-.52.441-.828.595-.186.093-.272.047-.258-.159.019-.271.061-.543.094-.814.04-.354.026-.708.006-1.062-.002-.033-.031-.065-.062-.096 0 .194-.132.332-.187.501-.034.106-.138.098-.206 0a6.3 6.3 0 0 0-1.644-1.62c-.051-.014-.104-.071-.154-.006-.063.084.033.121.058.18.172.326.256.698.508.982.008.01.018.022.018.032 0 .075.092.15.03.215-.06.06-.138-.005-.196-.03-.644-.28-1.283-.573-1.833-1.02a9.7 9.7 0 0 1-1.13-1.066 5.7 5.7 0 0 1-.683-.927c-.01-.019-.04-.028-.06-.042-.014-.056-.034-.067-.064-.01-.06.116-.04.238-.032.36z"/><path fill="#0F0F0F" d="M14.591 8.758c.047-.088.137-.116.222-.138.096-.023.174-.019.173.126 0 .186.062.211.219.1a.64.64 0 0 0 .245-.291.46.46 0 0 1 .182-.21c.127.137.141.314.202.472.025.064.034.155.11.166.075.011.114-.065.152-.125.075-.114.145-.224.134-.367a.17.17 0 0 1 .08-.165c.075-.051.102.031.142.06.194.133.357.3.47.507.07.128.137.109.215.027.266-.285.598-.457.962-.578.133-.045.27-.075.413-.045-.051.112-.22.034-.263.158-.428.16-.863.31-1.132.72-.106.161-.177.09-.242-.025-.1-.178-.182-.362-.325-.513-.098-.103-.16-.084-.197.043a1.3 1.3 0 0 1-.25.462c-.053.064-.102.149-.2.123-.088-.022-.113-.105-.138-.185-.037-.121-.046-.25-.108-.365-.019-.036-.024-.069-.072-.072-.051-.003-.07.037-.08.07-.084.264-.336.303-.544.392-.097.041-.182.014-.171-.139.015-.202-.003-.205-.197-.107 0-.034-.004-.067-.004-.1z"/><path fill="#5C5C5C" d="M18.25 8.452c.043-.124.21-.046.262-.158.048.006.064.028.05.077q-.031.106.068.163c-.092.19-.232.126-.37.073-.026-.05.044-.107-.01-.156z"/><path fill="#212121" d="M14.591 8.758q.002.05.003.101c-.071.086-.18.182-.269.118-.083-.059-.054-.202-.007-.307q.01-.026.018-.055.054.056.107.114l.146.03z"/><path fill="#5C5C5C" d="M17.008 26.397c.098-.08.121-.222.25-.298.036.111-.04.184-.059.268a.26.26 0 0 0-.19.03M9.06 23.826c-.008-.121-.029-.244.032-.359.03-.057.05-.046.064.01-.086.102.025.257-.097.349M12.505 25.333c-.027-.058-.121-.096-.058-.18.05-.067.103-.01.154.006q-.049.086-.096.174"/><path fill="#212121" d="M4.006 16.25c.047.073.037.132-.042.174-.017-.065.027-.116.042-.174"/><path fill="#5C5C5C" d="M26.482 13.625s.016-.005.024-.002q-.012 0-.024.002M25.852 13.724q-.04-.023-.027-.066.014.033.027.066M17.173 26.471l.005.01-.008.007-.005-.01z"/><path fill="#C7C7C7" d="M14.338 8.614q-.008.026-.019.054c-.046.106-.076.248.008.308.088.063.197-.033.269-.119.194-.097.211-.093.197.108-.01.152.075.18.17.138.208-.089.46-.127.545-.392.01-.034.028-.073.08-.07.049.004.053.038.072.072.062.115.071.244.108.365.025.08.05.163.137.185.1.025.148-.06.2-.123.114-.137.201-.289.25-.461.038-.13.1-.148.198-.044.143.151.225.336.325.513.063.115.136.185.242.025.269-.409.704-.56 1.132-.72.055.05-.015.106.01.157-.055.106-.115.21-.163.319-.027.059-.047.138.028.177.062.033.116-.006.164-.06.269-.305.561-.585.915-.793.05-.03.104-.087.15-.054.061.042.007.11-.02.155-.066.117-.046.242-.029.356.013.088.076.172.207.096.126-.074.219-.18.309-.286.42-.484 1.022-.567 1.589-.727.051-.014.123-.023.155.04.025.049-.062.032-.059.075-.212.163-.332.4-.477.615-.197.277-.46.49-.723.723.183.071.33-.023.466-.072.315-.113.643-.13.966-.177a7.8 7.8 0 0 1 1.494-.079c.056.003.135-.022.155.044.024.077-.071.074-.114.1-.454.27-.91.536-1.361.808-.03.017-.109.005-.078.081.027.065.08.028.114.014.29-.132.61-.033.907-.112a.5.5 0 0 1 .234.016c-.335.222-.573.543-.884.778.027.08.089.064.117.05.404-.204.815-.101 1.22-.03.42.075.837.168 1.24.308q.053.019.106.039c.039.014.073.034.075.077.003.053-.056.058-.083.064-.301.073-.574.217-.862.328a4 4 0 0 0-.679.365c-.062.039-.113.104-.077.18.04.084.1 0 .147-.006.38-.045.727.098 1.09.16.026.004.049.037.074.057-.025.028-.058.047-.087.067-.08.06-.263-.031-.252.135.011.152.177.082.269.12q.795.326 1.567.696c.073.034.148.071.216.113.036.022.087.05.062.106-.018.043-.068.021-.104.025-.141.012-.28-.083-.418-.027-.149.06-.292.13-.464.072 1.444 1.148 2.136 2.706 2.487 4.473-.207-.133-.308-.344-.441-.52-.218-.286-.614-.657-.898-.778.03.053.039.1.068.12.325.237.31.613.406.947.06.214.04.441.128.648 0 .012.004.025.004.037l-.016.2-.026.007.026.018.011.048c-.072.007-.05.067-.062.108h-.127l-.09-.15c.201-.427-.053-.807-.209-1.146-.146-.318-.332-.634-.497-.954-.022-.042-.015-.105-.102-.115.026.151.065.29.111.429.083.249.233.472.264.738-.013.188.018.37.066.55l.003.107c-.124.106-.148.253-.145.4.007.394-.175.754-.187 1.144 0 .042-.008.104-.064.106-.064.001-.075-.062-.089-.112l-.126-.508c-.116-.479-.324-.918-.543-1.355-.083.033-.073.09-.076.139-.04.714-.221 1.4-.423 2.08-.062.21-.134.407-.32.54-.095.13.02.319-.118.437q-.143-.005-.141-.146c.003-.154-.011-.308.023-.462a.62.62 0 0 0-.045-.43c-.031.332-.159.638-.224.958-.034.165-.095.322-.253.417a.3.3 0 0 0-.134.203c-.026.12-.077.232-.12.345-.085.215-.223.395-.344.586-.089-.005-.093.074-.116.127-.125.267-.327.49-.432.767-.12-.091-.076-.212-.042-.318.082-.255.098-.52.146-.78.037-.2.008-.413.008-.66-.087.157-.156.273-.216.393-.195.38-.37.772-.648 1.098-.432.505-.959.925-1.336 1.48-.027.038-.067.105-.121.07-.062-.04-.016-.107.007-.156.192-.424.282-.88.367-1.35-.374.769-1.022 1.272-1.659 1.792.182-.445.376-.88.536-1.334-.058-.01-.07.017-.082.037-.229.368-.558.643-.878.926-.036.031-.072.095-.129.05-.037-.03-.02-.084-.012-.13.118-.599.153-1.21.312-1.803.015-.059.057-.146-.017-.17-.076-.025-.086.077-.12.127-.413.618-.74 1.29-1.19 1.884a13 13 0 0 1-1.926 2.035c-.051.044-.106.098-.16.017-.11-.166-.247-.321-.284-.523a8 8 0 0 1-.104-.707c-.056-.584-.2-1.157-.22-1.746a1.9 1.9 0 0 0-.094-.558c-.03.073-.056.117-.067.163-.14.583-.343 1.153-.376 1.759-.003.05.013.121-.05.133-.073.016-.09-.062-.113-.11-.087-.18-.19-.354-.233-.553-.008-.039-.014-.093-.093-.09l-.051.628c-.005.05.012.115-.052.133-.056.016-.095-.034-.129-.071-.104-.114-.21-.227-.309-.347-.362-.44-.702-.893-.876-1.45-.084-.27-.213-.527-.293-.8-.025-.084-.056-.18-.171-.247-.027.206-.066.39-.07.574-.019.724-.01 1.448.136 2.163.01.043.036.097-.017.12-.057.026-.077-.035-.096-.072-.225-.446-.547-.831-.778-1.274-.246-.47-.486-.943-.868-1.324-.04-.038-.063-.124-.126-.1-.078.027-.044.113-.036.172q.093.743.384 1.435c.05.123.091.247.102.393-.1-.039-.149-.107-.199-.174-.296-.396-.5-.845-.694-1.292-.155-.36-.43-.587-.702-.831-.06.057.02.153-.072.158-.07.003-.071-.082-.09-.133-.073-.209-.13-.421-.213-.625-.057-.141-.079-.303-.19-.427-.05.048-.036.096-.038.14-.01.376.06.745.103 1.118.018.165.03.336.108.49.047.093.162.22.052.285-.105.063-.176-.094-.232-.181-.362-.564-.746-1.116-.958-1.765-.04-.126-.072-.294-.243-.353-.256-.09-.324-.28-.21-.537.04-.087.1-.171.072-.295-.289.386-.514.615-.679.678.226-.444.47-.865.553-1.35.024-.006.048-.012.048-.043 0-.005-.007-.012-.01-.012-.032 0-.036.026-.042.05-.011.006-.025.01-.033.02-.564.607-1.29.958-2.021 1.31-.047.022-.085.016-.126-.013.121-.163.29-.277.427-.424.21-.226.36-.485.502-.75.067-.123.218-.201.207-.367.11-.094.11-.233.152-.356.19-.426.48-.781.802-1.112-.053-.044-.083-.022-.11-.006-.37.231-.76.44-1.062.767-.09.098-.188.18-.334.157.182-.413.34-.836.546-1.238-.075-.118-.058-.222 0-.353.208-.469.38-.954.641-1.404-.082-.023-.124.03-.174.067a4.3 4.3 0 0 0-.97 1.026 6.4 6.4 0 0 0-.663 1.285c-.041.11-.11.152-.217.15.148-.594.303-1.195.624-1.717.221-.36.457-.726.786-1.01.032-.026.105-.048.063-.112-.053-.078-.125-.006-.145.019-.332.393-.832.516-1.247.773-.13.081-.22.213-.367.27l-.043-.043c.094-.4.223-.79.408-1.16a3.9 3.9 0 0 1 1.17-1.398c.506-.372 1.062-.642 1.716-.63.07 0 .142-.012.212-.018-.007.129.042.24.1.371.094-.118.061-.233.055-.345a8 8 0 0 0-.127-1.348c-.033-.197-.18-.357-.222-.556h.071c.3.193.513.474.758.725.252.26.204.643.405.968.03-.301-.063-.542-.066-.789-.008-.638-.036-1.277.025-1.914.007-.16.085-.307.077-.47.005-.058.006-.134.07-.145.068-.01.101.053.135.112.176.295.303.624.575.854.05.042.084.146.163.098.068-.042.042-.138.031-.211-.004-.03-.028-.056-.042-.084-.01-.158-.015-.318-.079-.468-.002-.045.002-.09-.008-.132-.008-.035-.046-.073.006-.096.024-.01.07 0 .089.017.202.197.49.305.607.594.013.03.03.15.122.1.074-.04.057-.122.032-.189-.059-.15-.123-.295-.183-.443-.076-.234-.214-.436-.348-.64-.048-.073-.044-.1.042-.107.312.065.582.235.865.368.244.115.511.236.628.522.01.027.04.052.08.036.027-.039.024-.085.01-.127-.048-.157-.087-.316-.19-.45-.03-.04-.068-.091-.02-.136.033-.033.089-.022.127 0 .092.054.191.092.285.148.105.063.17.172.28.226.094.045.147.06.153-.084.005-.113-.053-.195-.085-.288-.121-.34-.27-.667-.505-.946-.01-.056-.109-.081-.055-.165.353.13.724.196 1.064.357.29.145.491.423.82.513.11.03.175.032.25-.05.187-.2.394-.377.647-.494.033-.015.06-.012.109-.006-.005.073-.104.12-.064.199zm-2.119 8.798q.056.03.112.06c-.048.043-.087.09-.082.16.079.038.122-.024.172-.058.112-.077.219-.159.33-.235.046-.031.103-.092.15-.039.047.055-.02.109-.057.146a.5.5 0 0 0-.11.222l-.047.122-.061.027q-.086-.007-.123.07l-.49.744c.274-.138.464-.372.723-.515.033.124.177.19.177.33-.071.042-.066.108-.059.176a.1.1 0 0 0-.006.033.42.42 0 0 0-.211.163c-.261.348-.49.717-.687 1.121.487-.29.973-.58 1.49-.89-.089.29-.281.47-.377.702-.11.047-.147.159-.212.243-.042.053-.161.08-.12.15.046.078.16.053.25.046.037-.004.07-.025.106-.038l.387-.214-.037.283c-.171.21-.388.36-.617.5-.223.138-.477.231-.668.42-.275.09-.52.246-.772.383-.177.096-.376.161-.516.325.45-.137.874-.338 1.293-.543.084-.05.163-.108.25-.152a8.6 8.6 0 0 0 1.48-.91c.09.074.173.071.278.01.14-.083.195-.04.204.12.006.118-.019.24.022.36.085-.03.09-.106.132-.153.034-.037.05-.109.105-.103.069.008.044.083.052.13.062.357.19.697.293 1.042.016.05.028.13.101.12.056-.007.06-.077.069-.127.026-.14.046-.28.079-.417.018-.076.001-.213.093-.205.098.007.053.138.057.215.016.282.098.546.185.808.013.04.03.097.09.078.045-.014.034-.064.036-.101.003-.058 0-.117.002-.174.004-.319.093-.623.141-.935.008-.048.015-.114.078-.121.066-.01.073.06.1.1.041.06.044.145.147.192v-.269c0-.103-.025-.208.152-.19.096.01.084-.093.064-.163q-.062-.203-.126-.405c-.01-.03-.034-.064-.003-.089.034-.028.076-.015.105.011.04.034.073.073.109.11.123.122.25.185.4.04.023-.02.06-.024.09-.035q.145.128.291.252c.463.388.925.773 1.445 1.089.345.208.705.374 1.067.542.288.134.573.272.867.391.101.042.222.123.351.008-.118-.048-.233-.073-.325-.134-.51-.337-1.096-.521-1.634-.804-.346-.182-.674-.39-.952-.67-.019-.132-.05-.256-.191-.312a4 4 0 0 1-.384-.725l.081-.066c.308.507.732.889 1.249 1.176-.16-.22-.337-.43-.368-.716-.005-.04-.053-.085-.005-.118.042-.028.084.008.121.036q.083.064.171.124c.03.02.067.02.087-.008.022-.03-.005-.057-.028-.082q-.123-.12-.245-.242a2.4 2.4 0 0 1-.463-.608c.582.513 1.252.853 1.979 1.102.025-.083-.034-.117-.065-.162-.134-.197-.282-.387-.383-.604a.6.6 0 0 0-.243-.266q.002-.038.006-.074c.135.08.297.104.422.202.028.073.04.214.122.178.09-.04-.033-.133-.047-.208-.002-.01-.016-.02-.023-.03q-.188-.336-.373-.675c-.016-.03-.06-.065-.024-.101.044-.042.086.003.117.028.073.059.14.126.208.188.034-.208-.105-.477-.276-.534l.003-.098c.01-.205-.183-.331-.2-.525.156.088.288.206.419.33.303.288.503.654.773.965.25.398.538.774.67 1.27.056-.09.042-.13.033-.173-.04-.173-.126-.328-.18-.494a2 2 0 0 0-.352-.648c-.026-.137-.186-.197-.192-.345.11.02.194.093.292.14.413.193.832.36 1.298.367.076-.02.076-.05.013-.089l-.139-.064.015-.063c.316.05.626-.006.938-.049.175-.023.225-.063.126-.225.256-.056.484-.155.699-.293.206-.132.206-.13.009-.257-.025-.015-.048-.04-.04-.082.175-.056.352-.121.542-.127.093-.003.154-.042.122-.146-.043-.148-.082-.299-.146-.437-.032-.07-.04-.118.031-.127.191-.028.125-.13.066-.216-.27-.38-.483-.803-.866-1.095a.6.6 0 0 1-.124-.15 1.3 1.3 0 0 0-.324-.35c-.105-.075-.218-.167-.235-.316a.9.9 0 0 0-.22-.398c-.016-.145.063-.3-.084-.433-.247-.217-.48-.45-.717-.68-.048-.047-.167-.055-.14-.135.032-.094.145-.055.226-.061a.2.2 0 0 1 .076.014c.033.01.068.02.087-.012.028-.044-.016-.069-.039-.097-.082-.1-.211-.088-.317-.127-.283-.103-.55-.256-.859-.281-.039-.003-.08-.013-.087-.06-.006-.044.017-.079.051-.099.07-.039.143-.071.216-.107a1.2 1.2 0 0 0-.355-.01c-.35.032-.709-.09-1.05.068-.03.014-.067.012-.086-.022-.019-.036.012-.06.031-.084l.256-.312c-.226.021-.37.164-.534.253a2.6 2.6 0 0 0-.983.91c-.134.214-.196.216-.342.01-.044-.061-.073-.17-.163-.143-.216.065-.236-.067-.264-.22a.7.7 0 0 0-.109-.268.7.7 0 0 1-.1-.35c-.004-.077.038-.214-.046-.222-.104-.01-.051.134-.082.204-.024.05 0 .14-.069.146-.084.007-.082-.087-.1-.142-.102-.282-.119-.58-.125-.876-.008-.382-.095-.755-.095-1.138 0-.187-.056-.372-.088-.564-.02.015-.037.02-.039.03-.157.678-.32 1.355-.582 2.003-.036.089-.055.197-.168.22-.198.036-.266.18-.322.347-.03.093-.032.238-.155.244-.13.006-.017-.163-.118-.22-.067.05-.089.133-.121.206q-.075.168-.143.34c-.038.093-.095.142-.195.087-.383-.206-.844-.253-1.174-.572a.34.34 0 0 0-.158-.068c-.455-.1-.91-.199-1.38-.102-.054.01-.129.038-.168-.04.06-.105.2-.08.291-.19-.449 0-.792.177-1.118.427.08.067.14.008.198.006.066-.001.15-.01.176.051.034.083-.06.104-.11.13a2.7 2.7 0 0 0-.491.308c-.193.157-.385.299-.373.61.006.156.028.138.134.113.057-.014.12-.011.152.053.03.057 0 .096-.047.13-.048.034-.054.085-.046.138-.389.139-.61.477-.886.748-.014.013-.006.05-.01.074-.142.225-.26.461-.415.682-.23.33-.454.662-.724.96-.042.047-.086.115-.042.154.166.144.039.265.001.408-.03.117-.174.257-.059.355.123.104.06.163.006.237-.07.101-.038.168.055.22.161.09.315.203.51.215.094.006.145.047.122.15-.051.029-.148.03-.123.116.017.06.084.039.13.006.335.068.706-.134 1.009.145.177-.061.373.003.547-.09.053-.027.112-.074.178-.02l-.383.541-.424.524.043.039q.302-.231.5-.561c.311-.264.55-.597.831-.889.086-.028.07-.118.11-.175.217-.103.39-.263.568-.418z"/><path fill="#9C9C9C" d="M6.914 19.365c-.084.484-.328.905-.553 1.35q.246-.097.679-.68c.026.125-.034.21-.071.296-.114.26-.046.447.21.537.169.061.2.229.242.353.212.65.596 1.2.958 1.765.056.087.127.244.231.181.112-.066-.003-.192-.05-.285-.078-.154-.09-.325-.11-.49-.043-.37-.111-.74-.102-1.118 0-.044-.012-.09.039-.14.11.123.132.284.19.427.082.204.14.417.212.625.019.051.019.136.09.133.092-.004.011-.1.072-.158.272.244.546.469.702.83.194.448.397.899.694 1.293.05.066.1.136.199.174a1.2 1.2 0 0 0-.102-.393 5.4 5.4 0 0 1-.384-1.435c-.008-.059-.042-.145.035-.172.064-.022.086.062.126.1.38.381.623.855.869 1.324.231.443.553.828.778 1.274.019.037.039.098.096.073.053-.023.027-.078.017-.121-.144-.715-.155-1.437-.136-2.163.004-.184.043-.368.07-.574.116.066.146.163.17.247.083.273.21.528.294.8.172.557.513 1.01.876 1.45.098.12.205.233.31.347.033.037.07.088.128.071.064-.018.047-.084.052-.133l.05-.628c.08-.003.085.051.094.09.043.2.146.373.233.553.023.05.04.128.113.11.063-.013.047-.085.05-.133.033-.606.236-1.176.376-1.758.01-.047.037-.092.067-.164.068.202.087.383.093.558.022.589.165 1.162.22 1.746q.037.357.105.707c.038.202.175.357.284.523.054.081.107.028.16-.017a13 13 0 0 0 1.926-2.035c.449-.595.777-1.266 1.19-1.884.033-.05.044-.152.12-.127.074.024.032.111.017.17-.157.592-.195 1.206-.312 1.804-.01.045-.027.1.012.129.057.043.093-.02.129-.05.32-.282.648-.556.877-.926.013-.021.025-.046.083-.037-.16.455-.356.89-.536 1.335.635-.52 1.285-1.023 1.659-1.793-.085.47-.176.924-.367 1.35-.021.05-.07.116-.007.157.052.034.094-.034.12-.072.378-.554.905-.974 1.337-1.479.278-.326.453-.719.647-1.098.063-.12.13-.236.216-.393 0 .247.03.46-.007.66-.049.26-.064.525-.146.78-.035.104-.078.227.042.319-.52 1-1.279 1.79-2.164 2.468-.194.15-.4.286-.597.43-.067.05-.134.076-.21.034.101-.284.112-.578.105-.873.082-.214.335-.321.338-.593l-.539.51c-.303.26-.612.514-.938.747-.38.271-.806.44-1.23.616-.042.018-.09.064-.136 0-.038-.054.02-.079.031-.118.094-.29.226-.571.218-.884a.66.66 0 0 1 .075-.315c.108-.219.161-.457.247-.683.015-.044.05-.098.003-.118-.052-.022-.11.006-.13.076-.058.195-.144.382-.23.568a3.3 3.3 0 0 1-.732 1.03c-.28.267-.482.6-.757.87-.298.294-.565.623-.924.851-.056.036-.115.109-.187.056-.063-.048-.004-.123.01-.175.056-.226-.013-.465.08-.685.036-.069.028-.139.005-.208a6.6 6.6 0 0 0-.165-1.259c-.021-.104-.006-.216-.007-.324.034-.232.006-.46-.04-.689-.008-.037 0-.082-.055-.085-.073-.005-.06.054-.06.095 0 .237.006.477.009.714-.031.29-.166.561-.17.856 0 .031.002.069-.042.073-.043.005-.086.011-.12-.035-.075-.105-.15-.21-.234-.305-.428-.488-.896-.929-1.47-1.244-.096-.052-.184-.115-.305-.191-.008.383.065.719.248 1.031q.09.152.165.308c.017.034.025.079-.008.108-.032.03-.067.014-.104-.007-.534-.31-1.097-.566-1.578-.965a9.4 9.4 0 0 1-1.543-1.584c-.149-.2-.251-.43-.374-.647-.028-.05-.044-.108-.146-.112.134.37-.082.74.033 1.111.021.07.046.191-.047.225-.084.033-.121-.077-.166-.135a17 17 0 0 1-1.436-2.14c-.122-.22-.153-.471-.268-.693q-.02-.043-.044-.086c-.03-.052-.057-.15-.116-.124-.081.036-.005.107.017.159.057.133.057.242-.04.374-.201.275-.291.604-.38.929q-.076.295-.15.592c-.01.036.003.087-.053.085-.044 0-.055-.045-.075-.078-.195-.3-.234-.644-.265-.989-.025-.266-.036-.53.035-.794.03-.107.089-.194.13-.293.063-.159.023-.218-.15-.209-.025 0-.053 0-.076.011-.41.184-.847.13-1.275.143-.047.002-.11.031-.135-.037-.028-.073.032-.098.08-.132q.091-.07.18-.146c.04.03.078.034.126.012.73-.35 1.457-.702 2.021-1.31.008-.009.022-.013.033-.02l.005.005z"/><path fill="#212121" d="M21.031 8.525c.146-.216.265-.452.477-.615.014.039.038.085.08.062.152-.085.292-.193.393-.337.048-.07.009-.12-.069-.143-.05-.016-.136.022-.141-.062-.005-.067.067-.107.116-.146.412-.314.847-.587 1.34-.763.413-.147.837-.281 1.202-.525.21-.14.416-.148.641-.144.078 0 .135.024.168.104.138.348.317.675.486 1.01.052.102.058.225.101.332.226.554.375 1.13.412 1.727.025.407-.05.808-.137 1.206-.158.716-.373 1.42-.363 2.167.003.352-.135.419-.468.253q-.137-.072-.272-.148c-.039-.021-.088-.037-.082-.095.006-.057.056-.063.1-.071.057-.008.128 0 .134-.08.007-.085-.05-.133-.122-.153q-.345-.1-.692-.191c-.077-.02-.163-.04-.166-.134-.004-.091.062-.147.142-.19.332-.172.69-.276 1.048-.38.117-.034.121-.073.055-.157a.5.5 0 0 0-.261-.16c-.212-.066-.383-.237-.622-.236-.079 0-.127-.059-.141-.136-.011-.061-.023-.115-.095-.13l.106-.197c.105.014.163-.014.183-.136.033-.193.15-.355.166-.567.028-.375.005-.73-.122-1.083a.5.5 0 0 1-.02-.284.8.8 0 0 0-.005-.347c-.064-.287-.036-.35.21-.53.088-.065.218-.088.257-.239-.15.002-.242.1-.346.162-.227.135-.441.295-.673.42-.133.072-.295.09-.436.145-.42.166-.84.333-1.24.542a3 3 0 0 0-.553.355c-.123.107-.252.18-.416.174-.08-.004-.152.026-.224.054-.045.019-.088.078-.138.031-.044-.042.003-.098.003-.148-.002-.073.065-.149-.014-.217zM7.53 11.212h-.07c-.148.036-.18.114-.12.258.132.316.202.648.231.988.005.058-.004.118.01.174.03.12.04.22-.122.244-.16.023-.33-.056-.355-.179-.066-.34-.146-.67-.128-1.028.034-.645.013-1.292.011-1.939 0-.13.02-.253.067-.377.13-.357.1-.738.143-1.108.023-.203.065-.404.074-.61.02-.385.066-.77.067-1.157a.74.74 0 0 0-.079-.375c-.064-.115-.051-.24-.023-.36.04-.176.19-.253.318-.166.371.254.803.377 1.204.565.743.348 1.504.65 2.253.988.46.208.863.511 1.26.825.172.137.307.269.304.498-.34-.161-.71-.225-1.064-.357-.055.084.046.109.054.165-.109.054-.117.132-.039.214.146.157.222.345.257.553.009.06.082.126.012.174-.051.034-.101-.05-.154-.056-.18-.021-.312-.28-.536-.104-.042.033-.067-.04-.085-.079a1.7 1.7 0 0 0-.3-.447c-.298-.303-.694-.434-1.056-.626-.174-.092-.354-.177-.518-.288a3.6 3.6 0 0 1-.863-.818c-.04-.055-.09-.142-.162-.12-.082.025-.051.126-.043.19.056.515-.07 1.014-.16 1.51-.062.338-.058.678-.108 1.015-.03.208.098.356.282.392.037.088.028.181.03.275-.11-.008-.189.037-.156.155.087.31.065.626.074.941.002.055.05.122-.023.156-.064.03-.11-.028-.152-.062-.11-.09-.215-.151-.336-.02z"/><path fill="#9C9C9C" d="M24.496 20.747c.186-.134.257-.33.32-.54.201-.682.383-1.366.422-2.08.003-.049-.006-.106.076-.139.22.437.429.876.544 1.355q.06.254.126.508c.012.05.024.113.088.112.056-.002.062-.066.064-.106.012-.39.194-.75.188-1.143-.002-.148.02-.295.144-.401a.9.9 0 0 1 .084.458c-.01.123.016.242.044.36-.006.081-.016.162.021.238l.014.112v.039l-.041.544c-.038.014-.032.043-.025.073-.089.192-.052.404-.073.604-.024.216-.095.422-.1.688-.074-.144-.15-.244-.178-.356a1.9 1.9 0 0 0-.434-.783c-.213-.245-.343-.515-.343-.841 0-.052-.022-.084-.048-.12-.002-.09.037-.19-.075-.27-.053.11-.064.208.003.309-.001.341.006.683-.008 1.025-.023.59-.07 1.176-.21 1.757-.105.432-.212.862-.297 1.299-.077.082-.101.024-.122-.046.042-.312-.043-.615-.142-.896a.83.83 0 0 1-.033-.514c.096-.353.062-.71.073-1.067.003-.075-.005-.142-.084-.176z"/><path fill="#5C5C5C" d="M24.4 10.193q-.054.098-.106.198c-.046.104-.125.133-.233.118-.37-.053-.74-.126-1.116-.11-.039.003-.085-.002-.096-.047-.016-.062.04-.094.08-.123.238-.183.397-.449.656-.621-.245-.048-.481-.022-.731.012.045-.141.16-.161.239-.219.245-.175.483-.367.786-.444.063-.017.157-.044.136-.134-.017-.077-.1-.09-.173-.096-.552-.044-1.103-.11-1.658-.051q-.016-.038-.034-.075c.657-.376 1.401-.56 2.06-.937.056-.03.136-.094.135.05-.005.441.147.86.177 1.299.026.402.039.8-.123 1.18"/><path fill="#9C9C9C" d="M23.138 22.658c.121-.191.26-.371.343-.586.045-.115.095-.225.121-.345a.3.3 0 0 1 .134-.203c.158-.095.219-.252.253-.416.065-.32.194-.625.224-.959a.62.62 0 0 1 .045.43c-.034.154-.022.308-.023.462q0 .142.14.146a6 6 0 0 1-.122.859c-.046.202-.067.412-.102.617A4.4 4.4 0 0 1 23.669 24c-.12.22-.186.472-.371.662-.075-.087-.037-.188-.04-.28a2.05 2.05 0 0 0-.27-.986c-.046-.076-.038-.132-.01-.212.059-.17.15-.335.16-.521zM4.478 18.119c.11.001.176-.04.218-.15.175-.451.39-.88.662-1.286a4.4 4.4 0 0 1 .97-1.026c.05-.04.092-.092.174-.067-.262.45-.434.935-.641 1.404-.058.13-.075.235 0 .353q-.108-.027-.155.076c-.094.197-.252.337-.415.475a6 6 0 0 0-.726.69c-.042.05-.088.112-.178.107a1.4 1.4 0 0 1 .091-.578zM5.316 18.585c.147.023.244-.06.334-.157.303-.328.691-.536 1.062-.767.025-.016.056-.036.109.006-.322.332-.612.686-.802 1.112-.166.031-.174.177-.212.3-.218.046-.435.096-.636.2-.129.067-.127-.04-.104-.104.075-.2.165-.394.249-.592zM26.402 17.653c-.032-.266-.182-.49-.265-.738a3 3 0 0 1-.111-.429c.087.01.082.072.102.115.165.32.351.636.497.954.156.339.41.72.21 1.146-.185-.091-.132-.273-.162-.425.025-.199-.079-.367-.136-.547-.02-.062-.073-.085-.139-.078z"/><path fill="#212121" d="m14.611 25.612-.008-.714c0-.04-.014-.1.06-.095.054.003.046.048.054.085.046.227.074.456.04.689a.23.23 0 0 0-.146.037zM26.402 17.653c.065-.01.118.015.138.077.057.18.161.347.137.547-.072-.02-.125-.09-.209-.073a1.7 1.7 0 0 1-.065-.55zM19.525 25.53l.539-.51c-.003.27-.257.38-.339.594z"/><path fill="#5C5C5C" d="M7.809 13.117c.006.112.039.227-.054.345-.06-.13-.108-.243-.101-.371.057-.02.096.066.155.026M27.052 18.852c.013-.04-.009-.1.063-.107.05.062.035.138.024.203-.012.067.087.174-.026.188-.056.008-.101-.111-.089-.2q.016-.042.028-.084"/><path fill="#212121" d="M24.682 23.4c.02.07.045.128.121.046l.003.018c.008.08.005.159-.091.188-.035.011-.073.003-.081-.03-.02-.08-.05-.167.048-.223zM5.807 19.08c.037-.122.045-.267.212-.3-.042.123-.042.263-.152.356l-.059-.056zM25.319 19.365c-.067-.101-.056-.2-.003-.31.112.081.073.18.074.27zM4.148 16.298l.043.042c-.017.048-.047.087-.09.036-.031-.037.006-.067.047-.078"/><path fill="#5C5C5C" d="M26.618 19.368c-.038-.076-.028-.157-.022-.238.048.076.043.155.021.238"/><path fill="#212121" d="M22.15 8.601q.016.038.034.075c-.036.001-.082.02-.096-.025-.011-.039.032-.042.062-.05"/><path fill="#9C9C9C" d="m27.052 18.852-.027.084q-.084-.004-.1-.085h.127z"/><path fill="#5C5C5C" d="M14.93 27.157c.023.07.03.14-.005.208a.3.3 0 0 1 .005-.208"/><path fill="#212121" d="M26.566 20.135c-.006-.03-.012-.059.025-.073.045.042.023.062-.025.073M26.631 19.518v-.038q.006.013.01.026-.002.006-.01.01z"/><path fill="#5C5C5C" d="M27.12 18.47c0-.012-.004-.025-.004-.037q.01.013.016.026s-.008.008-.013.01M27.104 18.697l-.027-.019q.014-.004.027-.006l.009.012z"/><path fill="#0F0F0F" d="M13.886 20.245a8.7 8.7 0 0 1-1.48.91c-.088.044-.168.102-.25.153l-.005-.165c.192-.19.444-.283.668-.42.228-.14.445-.291.616-.5l.034-.009c.02-.003.042 0 .056-.009.566-.407 1.18-.764 1.507-1.421.056-.01.082-.055.12-.09.239-.229.356-.532.505-.816.084-.16.054-.24-.106-.314-.43-.194-.691-.525-.763-.997-.012-.084-.045-.162-.141-.15-.362.043-.729.07-1.06.243-.31.162-.663.246-.928.492-.118.04-.218.125-.344.143-.108-.16-.066-.247.117-.312.104-.037.2-.108.309-.149.04-.014.095-.034.088-.088-.007-.073-.074-.06-.122-.061a2.8 2.8 0 0 1-1.398-.429c-.261-.3-.504-.592-.547-1.03a6 6 0 0 1-.031-.783c.001-.05.082-.105.005-.152-.056-.032-.112 0-.164.031-.21.135-.438.246-.624.42-.04.037-.08.133-.17.073.002-.025-.006-.06.008-.075.278-.27.498-.609.886-.747l1.044-.34a.6.6 0 0 1 .36.006c.092.033.191.015.284.023.263.024.53-.018.79.06.295.086.582.204.893.226.057.068.118.135.172.208.224.299.438.302.693.025.19-.205.304-.443.39-.702.017-.054.012-.155.1-.141.096.017.054.116.057.178.006.097-.003.194-.003.29 0 .05-.018.12.046.134.062.013.078-.057.1-.102.077-.163.104-.365.34-.395.046-.006.057-.065.068-.108.045-.168.098-.335.114-.51q.108.004.105.109c-.015.34-.149.65-.359.898-.108.127-.271.223-.385.365-.051.065-.157.14-.216.074-.158-.172-.236-.015-.3.07-.153.208-.36.204-.576.177-.078-.01-.149-.054-.224-.084.2.278.252.614.418.895.139.23.117.38-.066.578-.07.076-.146.146-.216.222-.035.037-.05.078.018.103.13.046.491-.084.561-.21.082-.15.19-.266.36-.3.278-.054.56-.129.844-.1.332.036.694.09.873.408.105.188.23.236.408.284.898.24 1.647.752 2.362 1.322.071.16.244.25.304.41.084.22.277.334.433.483.007.148.167.21.193.345l-.17.045c-.27-.312-.471-.679-.773-.965a2.2 2.2 0 0 0-.42-.33c-.116-.188-.315-.274-.486-.389-.201-.135-.419-.248-.616-.39-.128-.091-.298-.012-.41-.132-.145-.068-.286-.144-.434-.205-.256-.106-.262-.085-.407.15-.2.327-.388.672-.756.854-.087.043-.112.132-.117.23-.012.273 0 .545.089.804.127.38.29.744.637.988l.251.31c-.015.097-.085.122-.169.127-.27-.241-.477-.533-.687-.825-.16-.375-.326-.747-.324-1.192-.047.04-.069.048-.073.064-.138.44-.424.79-.694 1.148-.283.29-.578.565-.91.802-.108.077-.228.144-.304.26zm2.81-4.183s.012-.008.01-.01q-.001-.015-.007-.03c-.337-.205-.708-.22-1.084-.184-.266.027-.504.122-.639.378-.122.418.086.81.401 1.05.312.238.624.238.914-.019.186-.164.349-.36.472-.58.11-.2.07-.476-.066-.603zm-2.75-1.302c.053.441.005.856-.402 1.127-.492.326-1.04.343-1.577.167-.323-.105-.607-.324-.738-.674-.14-.382-.187-.766-.012-1.151.019-.039.056-.087.012-.123-.05-.04-.105-.001-.135.036-.085.106-.186.196-.222.347a2 2 0 0 0-.028.71c.024.207.056.434.22.597.239.236.51.425.829.532.382.127.778.14 1.176.118h-.003l.116-.007v.004l.115-.022c.374-.075.7-.247.979-.505.098-.092.225-.202.194-.332a1.86 1.86 0 0 0-.446-.864c-.014-.016-.014-.056-.046-.023-.016.015-.02.043-.03.066zm-.772-.313c-.035.096-.113.161-.093.262.017.084.048.179.15.179.142 0 .287-.143.26-.266-.034-.158-.213-.082-.317-.175"/><path fill="#5C5C5C" d="M20.466 18.549c-.158-.148-.35-.262-.433-.483-.062-.162-.235-.25-.305-.41l.076-.005c.266.06.53.086.831-.03-.216-.142-.42-.17-.62-.215-.03-.045-.07-.087-.062-.148.226.045.425-.051.631-.113a4.1 4.1 0 0 1-1.06-.345c.002-.076.081-.082.116-.13.69.032 1.253-.248 1.735-.721.088-.034.113-.121.144-.196.13-.317.196-.65.22-.991.009-.115.009-.233-.064-.334 0-.055-.066-.12-.013-.159.056-.042.117.02.17.05q.226.14.451.283.231.184.462.37c.018.149.13.24.234.315.137.096.235.216.325.351.036.053.073.11.124.15.383.291.597.714.866 1.094.059.084.125.188-.066.216-.071.011-.063.06-.03.128.063.138.102.289.145.436.03.103-.03.143-.122.146-.19.006-.366.07-.543.128-.009.041.016.066.04.082.198.126.198.124-.009.256a2.1 2.1 0 0 1-.698.294c.097.161.05.2-.126.225-.313.042-.622.098-.939.048-.046-.008-.113-.04-.12.026-.007.047.064.04.106.038q.07.032.139.063l-.013.089c-.466-.006-.885-.174-1.298-.367-.098-.045-.182-.12-.292-.14zm.53-.492-.57.091c.239.12.402-.015.57-.091"/><path fill="#9C9C9C" d="M16.12 12.842c-.016.174-.069.34-.114.51-.012.043-.023.104-.068.108-.236.03-.263.232-.34.395-.022.043-.038.115-.1.102s-.046-.084-.046-.133c0-.097.009-.194.003-.29-.005-.064.039-.164-.058-.18-.085-.015-.08.088-.1.142-.086.26-.2.497-.39.702-.254.277-.468.274-.692-.025-.054-.071-.115-.138-.172-.208.023-.01.048-.025.071-.026.082-.005.202.093.24-.007.038-.102-.075-.192-.153-.265-.037-.036-.082-.062-.123-.093-.282-.21-.605-.347-.925-.48a4 4 0 0 0-1.08-.26c.2.167.452.264.62.525a3.34 3.34 0 0 0-1.652.008c.081.08.145.082.206.101.16.05.337.062.467.185l-1.044.34c-.006-.054 0-.106.047-.138.046-.034.076-.073.046-.13-.032-.064-.094-.067-.152-.053-.105.026-.127.043-.133-.114-.013-.31.18-.452.373-.609.15-.123.316-.222.49-.309.05-.025.146-.046.11-.129-.026-.062-.11-.053-.175-.051-.06.001-.118.06-.199-.006.326-.252.67-.428 1.119-.428-.092.11-.232.086-.29.19.04.078.113.051.167.04.47-.096.926 0 1.38.103.055.012.119.031.158.068.33.319.79.367 1.174.572.1.053.157.006.194-.087q.069-.17.143-.34c.033-.073.055-.156.121-.205.1.057-.01.225.118.219.123-.007.125-.151.156-.244.056-.166.124-.31.321-.348.114-.022.133-.13.168-.22.263-.647.426-1.324.583-2.003.001-.01.018-.014.039-.03.03.193.088.378.088.564 0 .384.089.757.095 1.139.006.295.023.593.124.876.02.056.019.15.101.141.067-.006.045-.096.068-.146.033-.07-.021-.212.083-.203.084.006.042.143.045.222a.7.7 0 0 0 .1.35.8.8 0 0 1 .11.268c.027.153.05.285.264.22.09-.027.12.082.163.142.147.207.21.205.341-.009.244-.393.58-.69.984-.91.164-.09.306-.232.534-.253-.096.116-.177.214-.256.312-.02.024-.05.05-.031.084.017.034.056.035.085.021.342-.157.7-.034 1.05-.068.117-.01.235-.014.356.01-.071.037-.146.07-.216.108a.095.095 0 0 0-.051.098c.008.048.046.057.087.06.309.024.576.18.859.282.107.039.234.026.317.127.023.028.066.053.039.096-.02.031-.056.022-.087.013a.2.2 0 0 0-.076-.014c-.081.006-.193-.033-.226.06-.028.081.092.089.14.136.238.228.47.46.716.68.148.13.07.286.084.433l-.193-.153a1.46 1.46 0 0 0-.688-.443 11 11 0 0 1-.902-.325c-.01-.076.035-.096.1-.112.106-.025.209-.06.313-.091.082.02.183.006.183-.076 0-.115-.113-.053-.18-.06-.42-.068-.839-.116-1.255.025-.036.013-.08.016-.106-.023-.037-.056.019-.082.045-.109q.152-.15.344-.247c.063-.03.129-.056.146-.143-.205-.042-.383.064-.56.112-.594.157-1.154.398-1.624.81-.094.08-.171.144.001.222.048.021.028.08.025.124-.039.014-.031.048-.037.078-.042.009-.04.046-.047.077a.05.05 0 0 0-.031 0c-.028-.051-.095-.077-.088-.149.014-.087-.008-.15-.106-.096-.065.036-.115.034-.173 0l-.068-.218c-.048-.143 0-.296-.07-.43-.01-.022-.026-.048-.046-.054-.016-.005-.052.017-.058.032-.08.243-.225.462-.247.723-.005.05.036.138-.051.138-.073 0-.06-.084-.065-.14-.04-.317-.11-.632-.078-.955.01-.11-.044-.103-.112-.05l-.152-.005a254 254 0 0 1-.197-1.54c-.007-.047-.005-.102-.055-.11-.039-.009-.06.036-.079.074-.02.039-.048.067-.056.116-.073.424-.154.847-.233 1.27z"/><path fill="#5C5C5C" d="M9.777 14.813c.092.062.13-.034.17-.073.187-.174.414-.284.625-.42.05-.032.108-.063.164-.03.079.045-.002.1-.005.152-.01.262.005.52.03.783.043.438.285.73.548 1.03l-.014.074c-.226.003-.435-.082-.654-.108-.06-.075-.045-.202-.165-.243-.026.075.012.13.03.19.087.298.309.497.525.699q-.084.127-.165.258c-.023.037-.047.085-.019.127.035.05.081.01.122 0l.386-.106.062.008c-.08.2-.282.31-.372.503-.204.008-.387-.063-.572-.135-.272-.104-.478-.31-.729-.45.02.034.03.074.056.1.261.254.55.465.91.557.074.019.156.023.196.104-.052.193-.037.235.075.208.054-.012.112-.067.155-.005.047.064-.012.12-.048.17s-.054.116-.118.146c-.065-.055-.126-.008-.179.02-.172.092-.37.028-.546.089-.303-.278-.676-.076-1.009-.145l-.007-.123c.023-.102-.028-.143-.123-.149-.194-.014-.348-.124-.51-.214-.093-.053-.124-.12-.054-.22.051-.075.117-.133-.006-.238-.115-.098.03-.24.059-.355.037-.142.163-.264-.002-.408-.043-.039 0-.107.042-.154.27-.3.494-.63.724-.96.154-.222.274-.458.416-.682zM12.659 17.151c.265-.245.618-.33.928-.492.1.028.134.073.05.16-.034.035-.09.073-.065.129.028.068.101.045.155.042.103-.005.205-.02.308-.03.045-.005.093-.012.124.031.033.047-.005.086-.023.124-.039.078-.12.134-.126.252.115-.03.22-.054.323-.082.14-.038.171.021.118.138q-.104.239-.227.47c-.057.106.01.122.077.098.108-.035.21-.097.315-.144.1-.045.266-.258.23.082 0 .011.008.027.017.035.126.1.062.217.03.334-.02.071-.078.133-.058.24l.236-.181c.026-.02.056-.042.087-.02.03.02.025.055.014.088l-.135.359c-.33.657-.943 1.014-1.507 1.421-.014.01-.037.006-.056.01.033-.074.076-.145.098-.221.028-.103-.02-.11-.095-.055l-.386.215c-.061-.011-.103-.022-.036-.09.416-.421.662-.945.88-1.482.035-.084.066-.171.02-.29-.14.308-.254.597-.403.865-.126.223-.208.492-.485.598.097-.233.287-.412.378-.703l-1.49.89c.197-.403.426-.773.687-1.121a.4.4 0 0 1 .21-.163c.254.01.67-.21.746-.402l-.739.368c-.008-.069-.012-.134.059-.176q.077-.069.155-.141c.034-.031.061-.065.04-.117-.086-.205-.204-.228-.372-.073-.26.143-.449.38-.724.516l.49-.744c.052-.006.099-.019.124-.07l.06-.028c.29-.014.54-.137.796-.256-.13.003-.247.039-.37.065-.124.028-.252.047-.378.068a.46.46 0 0 1 .11-.222c.035-.037.103-.091.057-.146-.047-.054-.104.008-.15.04-.111.075-.219.157-.33.234-.05.034-.094.096-.173.057-.006-.071.034-.118.082-.16.087-.064.17-.132.275-.161.086-.025.11-.081.053-.159z"/><path fill="#9C9C9C" d="M16.191 19.164c.21.29.416.584.687.825l.063.1c-.03.01-.068.014-.09.034-.15.146-.278.082-.4-.04-.038-.035-.07-.075-.11-.11-.03-.026-.07-.038-.105-.01-.031.025-.006.059.003.088q.065.203.126.406c.02.07.034.174-.064.163-.177-.019-.152.087-.152.19v.268c-.1-.045-.105-.132-.146-.191-.028-.04-.034-.11-.1-.1-.063.008-.072.074-.079.12-.048.313-.135.617-.14.935q0 .088-.002.174c-.002.038.009.087-.036.101-.06.019-.078-.039-.09-.077-.087-.264-.17-.528-.185-.808-.005-.076.04-.208-.058-.216-.091-.008-.074.13-.093.205-.032.138-.053.278-.08.418-.008.05-.011.12-.067.127-.073.01-.086-.071-.101-.12-.104-.346-.232-.686-.294-1.043-.008-.047.017-.121-.051-.13-.056-.005-.072.066-.106.103-.042.047-.046.123-.132.153-.04-.12-.015-.241-.022-.36-.009-.16-.063-.203-.203-.12-.106.062-.188.065-.278-.01.076-.116.197-.183.304-.26a7 7 0 0 0 .909-.802c.1.132.033.272.025.411-.008.132-.09.263-.027.406.06-.031.07-.076.089-.117.056-.116.078-.318.23-.285.141.029.11.222.116.355.002.052-.021.134.069.13.076-.002.073-.075.082-.133q.053-.305.101-.61c.02-.126.067-.139.162-.056.169.147.172.146.22-.066q.009-.027.022-.052z"/><path fill="#5C5C5C" d="M19.363 19.292q.163.093.244.265c.1.218.248.407.382.605.03.045.089.079.065.161-.725-.248-1.396-.59-1.979-1.101.12.236.286.427.463.607q.122.122.246.242c.024.024.05.052.028.083-.02.028-.058.028-.087.008q-.087-.06-.171-.125c-.037-.028-.08-.063-.121-.035-.049.032 0 .077.004.118.031.285.208.495.368.716a3.27 3.27 0 0 1-1.248-1.176c-.204-.409-.463-.786-.637-1.21-.04-.098-.083-.188-.064-.296.211-.038.323.133.464.262.027-.094-.007-.137-.034-.178-.155-.244-.126-.517-.129-.784 0-.031-.001-.067.034-.084.04-.017.061.012.078.037.129.185.322.316.44.51-.062.08-.011.144.03.21.147.234.361.405.572.571.317.25.633.516 1.05.595z"/><path fill="#5C5C5C" d="M17.783 16.732c.11.12.283.04.41.132.198.14.415.254.617.39.173.116.371.201.486.388.017.194.212.32.2.525-.279.028-.52-.098-.754-.216-.236-.118-.459-.267-.693-.405-.02.079.028.1.057.13.264.273.6.423.957.517.139.038.275.13.43.072.173.056.311.326.277.534-.068-.062-.135-.129-.208-.188-.031-.025-.072-.07-.117-.028-.037.036.008.072.024.101q.184.339.372.676l-.052.059c-.126-.098-.29-.121-.423-.202a2.4 2.4 0 0 1-.543-.287c-.306-.212-.634-.4-.813-.75.045-.105-.01-.18-.062-.265-.121-.19-.233-.39-.202-.626a.5.5 0 0 0-.05-.29c-.045-.093-.129-.238.084-.269z"/><path fill="#0F0F0F" d="M8.092 9.77c-.184-.036-.313-.184-.282-.392.05-.337.046-.677.108-1.016.09-.496.216-.996.16-1.51-.007-.064-.04-.165.043-.19.072-.021.121.066.162.12.242.322.533.594.863.819.163.11.342.196.518.287.362.193.76.323 1.056.626.129.132.219.286.3.448.02.038.043.113.085.079.224-.177.356.082.536.104.053.006.103.09.154.056.07-.047-.003-.115-.012-.174a1.03 1.03 0 0 0-.257-.553c-.078-.084-.07-.16.039-.215.235.28.384.608.505.947.032.091.09.175.085.288-.006.143-.059.13-.152.084-.112-.054-.175-.163-.281-.226-.092-.056-.193-.094-.284-.148-.04-.023-.095-.033-.128 0-.046.045-.009.096.02.135.103.134.142.294.19.45.012.043.016.088-.01.128a.06.06 0 0 1-.08-.036c-.117-.286-.384-.407-.628-.522-.282-.133-.553-.303-.865-.368q.001-.055.005-.11c.304.005.551.161.803.303.042.023.096.07.138.015.031-.039-.015-.082-.034-.12-.174-.378-.483-.613-.84-.798-.27-.14-.54-.275-.807-.418-.32-.17-.548-.445-.784-.71-.031-.034-.065-.074-.114-.063-.06.014-.032.074-.038.115-.035.202-.06.405-.101.606-.134.649-.12 1.303-.078 1.958zM7.53 11.213c.122-.13.226-.07.336.02.042.034.089.091.153.062.073-.034.024-.101.023-.155-.01-.316.01-.631-.075-.942-.032-.118.045-.161.157-.155.03.376.134.738.198 1.107.01.061-.036.157.077.178.095-.055.075-.125.028-.2q.001-.055.005-.113c.07-.155.03-.318.03-.48q0-.03-.004-.06c.089-.075-.01-.281.194-.274-.059.637-.032 1.276-.024 1.914.003.249.094.488.066.79-.2-.325-.152-.71-.405-.969-.244-.251-.457-.532-.758-.725z"/><path fill="#212121" d="m16.943 20.087-.064-.1c.084-.004.154-.029.17-.125.205.19.375.415.596.59.101.15.233.26.409.31.278.279.605.485.952.669.537.282 1.123.467 1.634.804.092.061.207.087.325.134-.13.115-.25.034-.351-.008-.294-.12-.58-.258-.867-.391-.362-.168-.723-.334-1.067-.542-.522-.316-.984-.7-1.445-1.09q-.146-.124-.29-.25z"/><path fill="#5C5C5C" d="M17.644 20.452c-.221-.174-.392-.4-.597-.59l-.252-.31c.207.05.328 0 .29-.243-.002-.019.024-.042.037-.064.178.115.212.337.355.479.104.254.229.498.384.725-.072.064-.146-.076-.218.002z"/><path fill="#9C9C9C" d="M13.063 19.753c.276-.105.36-.374.484-.598.15-.267.263-.556.404-.865.045.12.014.206-.02.29-.22.538-.465 1.061-.88 1.482-.07.069-.026.08.035.09-.036.013-.072.034-.107.038-.089.007-.204.032-.25-.045-.042-.07.079-.098.12-.151.066-.084.103-.196.212-.242z"/><path fill="#0F0F0F" d="M10.973 18.35c.064-.03.081-.096.118-.146s.095-.104.048-.169c-.043-.06-.102-.008-.155.005-.113.026-.127-.016-.075-.209.038-.003.08-.017.114-.007.177.046.376.032.519.18-.281.292-.52.623-.831.888l-.12-.001.384-.54zM10.245 9.737c.062.147.126.293.183.442.026.067.043.15-.033.19-.091.05-.108-.07-.12-.101-.117-.29-.406-.396-.608-.594-.019-.018-.065-.028-.089-.017-.051.024-.014.061-.006.097.01.042.006.088.008.132q-.07-.002-.14-.003a1 1 0 0 1-.006-.077c0-.097-.069-.223.028-.287.115-.076.23.02.335.076.033.017.06.045.09.07.053.045.103.101.184.07h.172z"/><path fill="#9C9C9C" d="M18.015 18.181c.178.35.505.54.812.75.17.117.35.218.544.288l-.006.074c-.418-.079-.734-.343-1.05-.595-.212-.166-.426-.337-.574-.571-.042-.067-.091-.13-.03-.21l.305.266z"/><path fill="#0F0F0F" d="M9.662 10.357c.014.027.037.054.042.083.01.073.037.17-.031.212-.08.048-.115-.056-.163-.098-.273-.229-.4-.558-.575-.855-.034-.059-.068-.122-.135-.111-.065.01-.065.085-.07.144l-.113-.003c.023-.115.051-.24.188-.261.14-.022.194.098.256.194l.337.533c.028.155.145.162.266.16z"/><path fill="#9C9C9C" d="M17.477 19.724c-.143-.142-.178-.364-.355-.479-.218-.374-.34-.781-.426-1.202l.084-.01q.038.06.078.12c-.02.107.023.197.063.295.174.424.434.803.637 1.21zM11.54 18.005c-.143-.147-.342-.133-.519-.18-.034-.01-.074.005-.113.008-.04-.08-.123-.085-.196-.104-.36-.093-.65-.305-.91-.558-.026-.025-.037-.065-.056-.1.25.14.457.347.729.453.184.071.368.143.571.135.165.135.357.166.563.152l.041.02c-.038.056-.023.148-.108.176z"/><path fill="#212121" d="m12.15 21.142.005.165c-.42.205-.843.403-1.292.542.14-.163.34-.229.516-.325.251-.137.497-.292.772-.382M20.49 18.94l.169-.046c.161.193.273.409.35.648.055.166.142.321.18.494.01.043.024.084-.032.174-.132-.497-.42-.873-.67-1.27z"/><path fill="#9C9C9C" d="M19.495 18.266c-.157.058-.292-.034-.43-.071-.358-.095-.693-.246-.957-.517-.03-.03-.078-.053-.058-.13.235.137.456.287.693.405s.476.243.755.216q0 .048-.003.097"/><path fill="#212121" d="M10.245 9.737h-.173c-.168-.249-.208-.569-.436-.785-.031-.03-.058-.077-.02-.12.03-.037.073-.02.105 0 .07.04.145.047.222.047q-.001.056-.004.11c-.086.008-.09.033-.042.108.132.203.27.405.348.64"/><path fill="#0F0F0F" d="m11.649 17.83-.042-.02q-.037-.219.174-.294c.102-.037.152-.129.214-.208h.196l.05.04-.025.066c-.177.155-.351.315-.569.417z"/><path fill="#212121" d="M8.615 9.73q.056 0 .114.004c.007.163-.07.31-.078.47-.205-.01-.106.2-.194.274-.076-.196.065-.365.074-.552.003-.062-.018-.161.083-.194z"/><path fill="#9C9C9C" d="M12.736 18.116c.168-.157.286-.134.372.073.021.052-.007.085-.04.116q-.076.072-.155.142c0-.142-.144-.207-.177-.331"/><path fill="#212121" d="M10.59 18.89q.06 0 .12.002-.201.331-.501.561l-.044-.039q.212-.262.425-.523M9.662 10.357c-.121.001-.24-.005-.266-.16.09-.094.013-.21.047-.313q.07.002.14.003c.064.15.071.31.08.468zM22.329 14.42l.192.154a.9.9 0 0 1 .22.398l-.46-.37z"/><path fill="#9C9C9C" d="M12.735 17.668c.126-.023.253-.042.377-.068.121-.027.241-.062.37-.065-.255.118-.506.242-.795.256l.048-.121zM12.854 18.622c.244-.121.488-.244.74-.368-.078.191-.494.412-.746.402q0-.017.006-.032zM17.644 20.452c.07-.08.146.06.217-.002.141.056.172.18.191.313a.72.72 0 0 1-.409-.31zM12.218 17.412q.012-.032.024-.065l.072-.053c.126-.02.227-.102.343-.143.058.078.033.134-.053.159-.107.03-.19.099-.275.161zM19.793 19.42l.053-.058c.008.009.022.018.023.03.015.074.136.167.047.207-.08.036-.093-.105-.121-.178zM13.474 19.938c.075-.056.121-.05.095.054-.02.076-.064.148-.098.22l-.034.009zM9.233 18.193l.008.123c-.046.033-.112.054-.13-.006-.025-.086.071-.087.122-.117M21.932 18.902c-.043.001-.113.008-.107-.038.008-.066.076-.034.121-.026zM12.626 17.818c-.025.05-.073.063-.123.07q.038-.08.123-.07M22.057 19.056l.012-.089c.062.039.064.07-.012.089M6.91 19.36c.006-.023.01-.048.041-.05.004 0 .013.008.011.013 0 .03-.025.037-.048.043l-.005-.004z"/><path fill="#5C5C5C" d="M9.443 9.884c-.033.101.045.22-.047.313q-.168-.267-.337-.533c-.062-.097-.116-.216-.256-.194-.137.021-.165.144-.188.26-.1.032-.08.133-.082.195-.01.186-.15.355-.075.551l.003.06c-.122.153-.077.316-.03.48q0 .056-.004.114c-.057.06-.03.13-.028.199-.113-.019-.068-.117-.077-.177-.064-.37-.167-.732-.198-1.108-.003-.093.006-.186-.03-.275-.043-.655-.058-1.31.077-1.959.042-.2.065-.403.1-.605.007-.04-.02-.1.04-.115.048-.011.082.03.113.063.238.264.466.538.785.71q.401.213.806.418c.357.185.666.42.84.797.019.039.065.082.034.121-.042.055-.096.008-.138-.015-.253-.142-.499-.299-.803-.303a.43.43 0 0 1-.222-.048c-.033-.019-.075-.038-.106 0-.037.043-.01.091.02.12.229.217.268.537.437.785-.082.031-.13-.025-.183-.07-.03-.025-.058-.052-.09-.07-.106-.054-.221-.15-.336-.076-.096.064-.028.188-.028.288 0 .025.005.051.006.076z"/><path fill="#212121" d="M16.893 13.04c.069-.053.121-.061.112.049-.03.323.04.638.078.955.006.056-.008.14.065.14.087 0 .048-.088.051-.138.022-.263.168-.482.247-.722.006-.018.042-.038.058-.033.018.005.035.033.046.054.072.135.02.29.07.43q.035.107.069.218c-.014.084.023.126.107.11.057-.01.112-.028.17-.012-.006.07.061.098.09.15 0 .11.072.18.153.241-.101.319-.292.599-.374.928-.049.192-.047.35.08.503.191.228.423.412.67.573.194.128.379.266.6.35.052.02.163.078.06.149-.146.1-.065.15.022.21q.126.087.26.166c.046.026.103.08.156.025.06-.062-.012-.101-.046-.145-.024-.03-.064-.059-.035-.098.028-.038.072-.012.106.003l.244.115c-.008.061.03.103.062.148q-.299.075-.211.245l-.076.005c-.715-.57-1.465-1.081-2.362-1.322-.178-.048-.302-.096-.408-.284-.179-.317-.54-.371-.873-.407-.284-.031-.564.043-.844.1-.17.034-.278.15-.36.3-.07.125-.432.255-.56.209-.07-.025-.054-.065-.02-.103.07-.076.147-.146.216-.222.184-.199.204-.346.067-.578-.168-.28-.22-.616-.418-.895.075.03.148.075.224.084.215.027.423.031.576-.177.064-.085.14-.242.3-.07.06.066.165-.009.216-.074.112-.143.277-.24.385-.365a1.48 1.48 0 0 0 .36-.898q.002-.105-.106-.109.12-.633.233-1.269c.009-.05.037-.08.055-.116.02-.036.04-.081.08-.075.05.01.048.064.054.11q.098.771.197 1.541c-.04.067-.045.154.022.18.067.027.086-.07.117-.12.009-.016.009-.036.014-.055z"/><path fill="#212121" d="m16.858 18.153-.078-.12c-.011-.13-.031-.258-.152-.37-.028.153.017.266.068.38.085.42.21.828.425 1.202-.012.022-.037.045-.035.064.037.244-.084.292-.29.242-.347-.242-.51-.606-.638-.988-.087-.26-.099-.531-.088-.805.005-.098.028-.186.116-.23.37-.181.556-.526.757-.852.144-.235.15-.255.407-.151.147.06.289.137.433.205-.213.03-.127.174-.084.269a.5.5 0 0 1 .05.29c-.031.236.082.435.202.626.053.084.107.16.062.264l-.304-.265c-.118-.194-.311-.325-.44-.51-.017-.025-.04-.054-.078-.037-.035.015-.034.053-.034.084.005.267-.026.54.13.784.026.04.06.084.033.177-.14-.128-.253-.3-.464-.26z"/><path fill="#757575" d="M13.067 16.446c-.398.022-.794.01-1.176-.118a2.1 2.1 0 0 1-.828-.531c-.164-.164-.197-.392-.22-.599a2 2 0 0 1 .028-.71c.035-.15.136-.239.222-.346.03-.037.085-.076.135-.035.045.035.006.083-.012.122-.176.386-.13.77.012 1.151.13.35.415.569.738.675.536.175 1.084.158 1.577-.168.407-.27.455-.684.402-1.126.01-.022.014-.05.03-.067.032-.033.032.009.046.023.231.245.37.544.446.864.03.13-.097.24-.194.332q-.419.391-.979.505l-.117.022v-.003l-.116.006z"/><path fill="#212121" d="M16.696 16.064c.137.127.175.404.065.602-.123.221-.286.417-.472.581-.289.257-.601.257-.914.02-.315-.242-.523-.632-.4-1.051.088.059.143-.01.202-.058a.66.66 0 0 1 .292-.135c.36-.065.719-.13 1.075.031.043.02.1.007.152.008zm-.569 1.154a.16.16 0 0 0 .126-.08c.076-.12.163-.228.277-.316.032-.025.08-.062.045-.11-.03-.04-.084-.027-.128-.02-.153.03-.388.32-.383.473 0 .042.026.053.062.053z"/><path fill="#212121" d="m15.034 18.782.135-.359c.012-.032.017-.068-.014-.088s-.06 0-.087.02l-.236.182c-.02-.107.037-.17.057-.241.031-.117.097-.233-.03-.334a.05.05 0 0 1-.016-.034c.035-.34-.13-.128-.23-.083-.106.047-.207.11-.316.145-.068.022-.133.006-.076-.1a7 7 0 0 0 .227-.469c.051-.116.02-.177-.118-.138-.104.028-.208.054-.323.082.005-.118.087-.174.126-.251.02-.04.056-.078.023-.125-.03-.043-.08-.035-.124-.03-.103.009-.205.024-.308.029-.054.003-.126.026-.155-.042-.023-.056.031-.093.065-.129.084-.085.05-.132-.05-.16.331-.175.7-.2 1.06-.244.096-.012.129.067.141.15.072.473.333.804.763.998.162.073.19.154.106.314-.15.284-.266.587-.505.815-.038.036-.064.081-.12.09zM11.716 13.65c-.132-.123-.308-.135-.468-.185-.06-.019-.124-.022-.205-.101a3.36 3.36 0 0 1 1.651-.008c-.169-.26-.42-.359-.62-.525.375.043.74.117 1.08.26.32.133.643.27.926.48.042.03.085.057.123.093.079.074.19.163.152.265-.037.1-.157.002-.24.006-.024 0-.047.018-.07.027-.313-.022-.6-.138-.894-.227-.258-.076-.527-.034-.79-.059-.092-.008-.192.01-.283-.023a.6.6 0 0 0-.36-.006z"/><path fill="#5C5C5C" d="M16.191 19.164c-.008.017-.019.036-.022.053-.05.211-.051.213-.22.065-.095-.082-.142-.07-.162.056-.03.204-.068.407-.1.61-.01.058-.007.131-.083.134-.092.003-.067-.079-.068-.13-.007-.134.024-.328-.117-.356-.154-.03-.174.17-.23.286-.018.04-.03.085-.088.116-.064-.142.018-.273.026-.405.008-.138.074-.28-.025-.412.27-.358.556-.708.694-1.148.005-.015.027-.024.074-.063 0 .444.166.817.324 1.191z"/><path fill="#212121" d="m12.314 17.296-.072.052-.05-.04c.025-.165-.138-.092-.195-.154.051-.088.005-.213.121-.284.054-.034.012-.089-.05-.104-.12-.03-.385.141-.424.275h-.079c-.16.054-.234-.121-.368-.137q-.026-.014-.053-.026l.003.003-.008-.12c.046-.02.086-.054.142-.045.079-.008.181.047.23-.045.048-.095-.052-.146-.103-.207l-.112-.132.014-.074a2.77 2.77 0 0 0 1.398.428c.049.004.115-.01.123.061.006.055-.048.075-.088.089-.11.039-.206.112-.31.149-.183.065-.225.152-.116.312z"/><path fill="#5C5C5C" d="M16.696 16.064c-.051-.002-.109.01-.152-.008-.355-.162-.715-.098-1.075-.031a.66.66 0 0 0-.292.135c-.058.045-.112.115-.202.057.135-.256.373-.35.638-.377.376-.037.747-.02 1.084.183q0 .02-.003.04z"/><path fill="#C7C7C7" d="M13.174 14.448c.104.093.283.017.317.176.027.122-.116.265-.26.265-.102 0-.133-.094-.15-.178-.02-.101.056-.165.093-.263"/><path fill="#212121" d="M16.696 16.062q0-.02.003-.04.006.013.008.03c0 .002-.008.007-.011.01"/><path fill="#5C5C5C" d="m13.067 16.446-.001-.008-.002.008z"/><path fill="#0F0F0F" d="m19.952 17.258-.244-.115c-.034-.015-.078-.04-.106-.003-.03.04.011.069.035.098.034.042.105.08.046.145-.053.056-.109.001-.157-.025a4 4 0 0 1-.26-.166c-.085-.06-.167-.11-.021-.21.103-.07-.008-.13-.06-.15-.221-.083-.406-.223-.6-.349a3 3 0 0 1-.67-.573c-.127-.152-.129-.31-.08-.503.082-.33.273-.61.374-.928.155-.11.008-.16-.047-.228.003-.036-.003-.067-.03-.092.005-.03-.002-.063.037-.077.15-.033.295-.089.44-.134.283-.085.555-.224.849-.248.424-.035.853-.035 1.278-.049.297.118.595.232.903.325.264.08.502.23.688.443l-.048.181q-.225-.142-.452-.282c-.052-.031-.112-.092-.17-.05-.052.039.013.104.013.159-.047.032-.051.11-.124.114-.028-.027-.035-.065-.049-.1-.045-.12-.09-.24-.197-.324-.04-.03-.088-.045-.124-.018-.019.012-.02.076-.006.104a.94.94 0 0 1 .091.4c.019.448-.02.881-.413 1.19-.55.432-1.162.459-1.78.22-.32-.125-.57-.38-.625-.748a1.8 1.8 0 0 1 .02-.623c-.083-.012-.105.047-.124.089-.091.205-.239.374-.324.587-.118.295-.115.4.124.6.31.26.63.49 1.06.494q.03.032.065.004l.127.02q.077 0 .154.005h.158-.001l.157-.009v.005l.17-.007.005.008.006-.008a2.2 2.2 0 0 0 1.158-.486q.088.001.175.005c-.481.474-1.044.753-1.735.72-.03-.012-.057-.029-.087-.037-.09-.02-.231-.077-.252.019-.023.109.12.137.223.148.337.158.686.28 1.06.344-.206.063-.405.157-.63.114zm.949-2.684c-.037-.113-.045-.225-.211-.227-.168-.003-.232.081-.24.226-.006.133.044.216.2.214.152-.002.204-.092.25-.213z"/><path fill="#212121" d="M21.55 14.543c.073-.005.078-.08.125-.115.071.1.073.219.065.334a3.3 3.3 0 0 1-.22.991c-.032.075-.055.162-.145.196q-.087-.001-.176-.005c.16-.152.246-.348.323-.548.136-.15.15-.395.031-.538q-.001-.158-.004-.317z"/><path fill="#0F0F0F" d="M19.803 17.65q-.087-.171.211-.246c.199.045.404.073.62.216-.302.114-.566.089-.831.03"/><path fill="#212121" d="M19.523 16.8c-.104-.01-.247-.039-.222-.148.022-.097.163-.04.252-.018.03.008.059.025.087.037-.035.048-.114.054-.117.13z"/><path fill="#9C9C9C" d="M20.997 18.057c-.168.076-.33.21-.57.091z"/><path fill="#212121" d="M20.74 13.653c-.426.014-.855.014-1.28.048-.294.025-.566.161-.847.248-.148.045-.29.101-.441.134.003-.043.024-.103-.025-.124-.174-.076-.095-.14-.002-.222.47-.414 1.032-.654 1.625-.81.179-.046.354-.152.56-.112-.02.087-.083.112-.147.143a1.3 1.3 0 0 0-.343.247c-.026.027-.082.053-.045.11.026.038.07.035.106.022.416-.141.835-.091 1.255-.024q0 .067-.002.135c-.104.03-.206.066-.312.091-.065.016-.11.036-.101.112z"/><path fill="#5C5C5C" d="M18.162 14.25c.053.07.202.119.047.23-.08-.063-.152-.131-.154-.243a.05.05 0 0 1 .031 0zM16.893 13.04c-.005.018-.005.038-.014.054-.03.051-.05.146-.116.12-.069-.026-.062-.113-.022-.18zM17.967 14.09c-.06-.015-.114 0-.171.012-.084.015-.121-.027-.107-.11.057.035.107.037.172 0 .098-.053.12.01.106.096zM21.153 13.45l.001-.136c.067.005.179-.056.18.06 0 .082-.1.095-.183.075z"/><path fill="#212121" d="m18.162 14.25-.076-.013c.008-.03.005-.069.047-.078q.037.038.03.092M11.997 17.308c-.062.08-.114.17-.214.208q-.209.076-.175.294c-.205.014-.397-.016-.562-.152.09-.195.292-.303.373-.504q.037-.003.076-.008c.15.11.359.032.503.16z"/><path fill="#0F0F0F" d="m11.295 16.331.112.132c.05.062.15.112.102.207-.046.093-.15.037-.23.046-.05-.188-.217-.112-.334-.149-.123-.096-.296-.149-.306-.346.22.026.43.111.654.108z"/><path fill="#9C9C9C" d="M10.64 16.22c.01.198.182.25.307.347.03.098.138.12.192.193q.005.06.008.12l-.116-.013c-.215-.204-.437-.401-.525-.7-.018-.06-.058-.114-.03-.189.12.04.104.168.165.243"/><path fill="#212121" d="m11.03 16.868.117.013-.003-.003.053.026c-.026.132.143.138.158.242l-.386.106c-.04.01-.087.051-.122 0-.028-.04-.004-.089.019-.127q.08-.13.165-.258z"/><path fill="#9C9C9C" d="M11.355 17.148c-.017-.104-.184-.11-.158-.242.134.015.208.19.368.136l-.071.106-.076.008z"/><path fill="#212121" d="M8.43 11.017c-.048-.163-.091-.327.03-.48 0 .16.04.323-.03.48M8.398 11.329c-.002-.068-.03-.14.028-.199.046.075.066.145-.028.199"/><path fill="#5C5C5C" d="M16.694 18.043c-.05-.114-.096-.227-.068-.38.121.11.141.238.152.37zM11.494 17.148l.071-.106h.08q.176.056.352.114c.056.062.22-.013.196.153h-.196c-.143-.129-.353-.05-.503-.16z"/><path fill="#0F0F0F" d="M16.127 17.216c-.035 0-.06-.01-.062-.052-.004-.151.229-.442.384-.473.043-.007.098-.02.127.019.036.048-.012.085-.045.11a1.2 1.2 0 0 0-.276.316.17.17 0 0 1-.126.08zM11.997 17.154l-.353-.113c.04-.134.302-.305.424-.275.064.015.104.07.05.104-.115.071-.068.196-.121.284"/><path fill="#5C5C5C" d="M11.14 16.761c-.055-.074-.162-.095-.193-.192.116.037.284-.04.334.149-.055-.011-.097.023-.142.045z"/><path fill="#757575" d="M21.522 15.397c-.079.2-.163.396-.323.549a2.2 2.2 0 0 1-1.157.486l-.005-.008-.006.008-.172.006.001-.005-.157.01h-.157l.002-.007v.007l-.154-.01v.002l-.127-.019c-.02-.021-.042-.03-.066-.004-.428-.003-.75-.235-1.059-.494-.24-.2-.24-.306-.124-.6.084-.213.233-.382.325-.587.018-.042.038-.101.124-.089-.044.207-.051.42-.02.623.054.368.306.625.624.747.618.24 1.23.213 1.78-.219.393-.309.432-.742.413-1.19a1 1 0 0 0-.091-.4c-.014-.028-.013-.092.006-.104.036-.027.084-.013.124.018.107.083.154.204.198.323.014.036.02.073.048.101q.001.16.004.317c.035.182-.01.36-.03.538z"/><path fill="#C7C7C7" d="M20.903 14.574c-.045.121-.1.211-.25.213-.156.001-.206-.083-.2-.215.008-.145.072-.228.24-.225.166.003.174.115.211.227z"/><path fill="#5C5C5C" d="M19.203 16.412c.025-.025.045-.017.065.004q-.035.026-.065-.004M20.031 16.43l.005-.007.006.007-.006.007zM19.55 16.443v-.007l-.002.007zM19.706 16.441l-.001-.005-.002.007z"/><path fill="#0F0F0F" d="M21.522 15.397c.022-.178.067-.355.031-.537.117.143.103.387-.03.537"/></g><defs><clipPath id="a"><path fill="#FFFFFF" d="M0 0h32v32H0z"/></clipPath></defs></svg>