<svg width="500" height="499" viewBox="0 0 500 499" fill="#000000" xmlns="http://www.w3.org/2000/svg">
<path fill-rule="evenodd" clip-rule="evenodd" d="M200.224 3.52323C24.1217 43.342 -55.9695 239.846 42.9232 389.461C120.769 507.23 290.402 534.337 403.747 447.123C506.177 368.303 530.53 219.919 459.012 110.372C454.485 103.44 449.563 97.7667 448.074 97.7667C446.583 97.7667 402.982 140.159 351.185 191.973C299.387 243.786 255.19 286.179 252.971 286.179C250.75 286.179 234.706 271.913 217.314 254.475C199.921 237.038 184.716 223.377 183.521 224.115C182.325 224.852 181.348 254.085 181.348 289.074C181.348 368.879 178.349 377.955 150.969 381.041C139.714 382.309 138.271 381.718 128.303 371.75L117.659 361.106V249.733V138.358L123.728 129.34C141.58 102.809 159.184 108.854 209.034 158.624C231.06 180.615 250.864 198.607 253.048 198.607C257.406 198.607 401.605 55.5888 401.605 51.2659C401.605 43.939 352.793 18.3468 320.128 8.54933C290.866 -0.229103 228.395 -2.84565 200.224 3.52323ZM375.007 245.893C384.414 252.873 389.3 268.583 385.574 279.874C374.383 313.786 324.648 306.7 324.648 271.196C324.648 244.933 353.897 230.237 375.007 245.893ZM372.685 324.082C385.521 332.704 390.459 347.726 384.85 361.088C374.606 385.478 340.32 388.402 328.673 365.878C313.269 336.085 345.288 305.676 372.685 324.082Z" fill="#000000"/>
</svg>
