<svg xmlns="http://www.w3.org/2000/svg" width="32" height="32" version="1.1" fill="#000000"><path fill-opacity=".078" d="M 7.750 9.392 C 6.787 10.123, 6 11.410, 6 12.253 C 6 13.096, 5.325 14.045, 4.500 14.362 C 2.295 15.208, 2.636 19.735, 5 21 C 7.600 22.392, 11 20.672, 11 17.965 C 11 16.884, 11.372 16, 11.827 16 C 12.282 16, 12.461 17.310, 12.226 18.911 C 11.903 21.113, 12.311 22.096, 13.900 22.946 C 17.220 24.723, 20.315 22.598, 19.774 18.911 C 19.539 17.310, 19.718 16, 20.173 16 C 20.628 16, 21 16.884, 21 17.965 C 21 20.781, 24.407 22.387, 26.977 20.782 C 29.340 19.307, 29.675 15.196, 27.500 14.362 C 26.675 14.045, 26 12.950, 26 11.928 C 26 7.266, 18.486 7.560, 17.820 12.248 C 17.424 15.036, 14.654 15.228, 14.179 12.500 C 13.858 10.656, 11.370 7.957, 10.059 8.032 C 9.751 8.049, 8.713 8.661, 7.750 9.392 M 20.598 10.736 C 19.281 12.052, 20.117 14, 22 14 C 23.100 14, 24 13.373, 24 12.607 C 24 11.099, 21.571 9.762, 20.598 10.736 M 8 12.393 C 8 13.901, 10.429 15.238, 11.402 14.264 C 12.719 12.948, 11.883 11, 10 11 C 8.900 11, 8 11.627, 8 12.393 M 23.598 15.736 C 22.281 17.052, 23.117 19, 25 19 C 26.100 19, 27 18.373, 27 17.607 C 27 16.099, 24.571 14.762, 23.598 15.736 M 5 17.393 C 5 18.901, 7.429 20.238, 8.402 19.264 C 9.719 17.948, 8.883 16, 7 16 C 5.900 16, 5 16.627, 5 17.393 M 14 19.500 C 14 20.333, 14.889 21, 16 21 C 17.111 21, 18 20.333, 18 19.500 C 18 18.667, 17.111 18, 16 18 C 14.889 18, 14 18.667, 14 19.500" stroke="none" fill="#000000" fill-rule="evenodd"/><path fill-opacity=".171" d="M 8.669 9.166 C 7.690 9.713, 6.465 11.138, 5.947 12.331 C 5.429 13.524, 4.449 15.279, 3.769 16.231 C 2.761 17.644, 2.837 18.265, 4.182 19.611 C 6.373 21.802, 11 20.735, 11 18.040 C 11 15.804, 12.575 14.503, 13.490 15.984 C 13.835 16.543, 13.641 17, 13.059 17 C 11.072 17, 11.899 21.833, 14 22.500 C 17.270 23.538, 20 22.142, 20 19.433 C 20 18.095, 19.523 17, 18.941 17 C 18.359 17, 18.165 16.543, 18.510 15.984 C 19.383 14.571, 21 15.763, 21 17.818 C 21 20.661, 24.373 22.128, 26.876 20.374 C 29.336 18.651, 29.682 15.476, 27.500 14.638 C 26.675 14.322, 26 13.221, 26 12.192 C 26 9.670, 21.949 7.833, 19.821 9.389 C 18.948 10.028, 18.062 11.439, 17.853 12.525 C 17.332 15.231, 14.574 15.023, 14.180 12.248 C 13.772 9.372, 11.035 7.841, 8.669 9.166 M 8.323 11.601 C 7.615 13.445, 10.034 15.366, 11.374 14.026 C 12.466 12.934, 11.464 10, 10 10 C 9.415 10, 8.661 10.720, 8.323 11.601 M 20.336 11.567 C 19.502 13.739, 21.618 15.782, 23.133 14.267 C 24.413 12.987, 23.620 10, 22 10 C 21.415 10, 20.667 10.705, 20.336 11.567 M 5.323 16.601 C 4.615 18.445, 7.034 20.366, 8.374 19.026 C 9.466 17.934, 8.464 15, 7 15 C 6.415 15, 5.661 15.720, 5.323 16.601 M 23.336 16.567 C 22.502 18.739, 24.618 20.782, 26.133 19.267 C 27.413 17.987, 26.620 15, 25 15 C 24.415 15, 23.667 15.705, 23.336 16.567 M 14.336 18.567 C 13.502 20.739, 15.618 22.782, 17.133 21.267 C 18.413 19.987, 17.620 17, 16 17 C 15.415 17, 14.667 17.705, 14.336 18.567" stroke="none" fill="#000000" fill-rule="evenodd"/><path fill-opacity=".302" d="M 8.250 9.662 C 7.563 9.940, 7 10.981, 7 11.976 C 7 12.972, 6.325 14.045, 5.500 14.362 C 3.789 15.018, 3.464 19.550, 5.057 20.535 C 7.003 21.738, 11 20.060, 11 18.040 C 11 16.983, 11.480 15.821, 12.067 15.459 C 13.800 14.388, 14.235 15.651, 12.879 17.821 C 11.862 19.451, 11.872 20.140, 12.933 21.419 C 15.833 24.914, 21.558 21.724, 19.190 17.932 C 17.753 15.631, 17.700 15, 18.945 15 C 19.465 15, 20.484 16.238, 21.209 17.750 C 22.943 21.368, 27.338 21.645, 27.830 18.168 C 28.012 16.885, 27.518 15.085, 26.732 14.168 C 25.947 13.250, 25.025 11.713, 24.683 10.750 C 23.514 7.453, 18 8.986, 18 12.607 C 18 14.333, 17.443 15, 16 15 C 14.557 15, 14 14.333, 14 12.607 C 14 9.656, 11.473 8.362, 8.250 9.662 M 8.336 11.567 C 7.546 13.627, 9.229 15.233, 11.333 14.426 C 13.443 13.616, 13.493 11.403, 11.418 10.607 C 9.192 9.753, 9.010 9.809, 8.336 11.567 M 20.250 10.662 C 18.456 11.386, 18.709 13.675, 20.667 14.426 C 22.771 15.233, 24.454 13.627, 23.664 11.567 C 23.046 9.956, 22.415 9.789, 20.250 10.662 M 5.336 16.567 C 4.546 18.627, 6.229 20.233, 8.333 19.426 C 10.443 18.616, 10.493 16.403, 8.418 15.607 C 6.192 14.753, 6.010 14.809, 5.336 16.567 M 23 15.979 C 21.688 16.809, 21.718 17.146, 23.243 18.671 C 25.268 20.697, 27.680 19.214, 26.664 16.567 C 25.975 14.772, 25.124 14.636, 23 15.979 M 14.336 18.567 C 13.502 20.739, 15.618 22.782, 17.133 21.267 C 18.413 19.987, 17.620 17, 16 17 C 15.415 17, 14.667 17.705, 14.336 18.567" stroke="none" fill="#000000" fill-rule="evenodd"/><path fill-opacity=".294" d="M 10.864 10.073 C 12.566 10.755, 13.082 11.577, 12.708 13.010 C 12.421 14.104, 12.643 15, 13.201 15 C 13.758 15, 13.998 15.562, 13.734 16.250 C 13.422 17.063, 14.215 17.500, 16 17.500 C 17.785 17.500, 18.578 17.063, 18.266 16.250 C 17.719 14.825, 19.590 14.528, 20.442 15.906 C 20.764 16.427, 22.025 16.328, 23.415 15.672 C 24.743 15.045, 25.603 14.166, 25.326 13.718 C 25.049 13.270, 24.300 13.298, 23.661 13.780 C 23.022 14.263, 20.587 14.711, 18.250 14.776 C 14.827 14.871, 14 14.554, 14 13.147 C 14 10.959, 12.086 8.980, 10.050 9.063 C 9.149 9.100, 9.490 9.523, 10.864 10.073 M 19.507 9.989 C 19.156 10.557, 19.561 10.722, 20.461 10.377 C 21.321 10.046, 22.695 10.332, 23.513 11.011 C 24.376 11.727, 25 11.819, 25 11.229 C 25 9.327, 20.539 8.319, 19.507 9.989 M 6.839 12.250 C 6.530 13.762, 6.628 15, 7.057 15 C 7.486 15, 8.661 15.286, 9.668 15.635 C 11.354 16.219, 11.367 16.159, 9.834 14.885 C 8.918 14.123, 7.996 12.600, 7.785 11.500 C 7.472 9.871, 7.297 10.010, 6.839 12.250 M 4 18.885 C 4 19.782, 7.005 21.328, 7.598 20.736 C 7.769 20.564, 7.030 19.875, 5.955 19.204 C 4.880 18.532, 4 18.389, 4 18.885 M 23.022 20.417 C 23.575 20.974, 24.833 20.930, 26.217 20.306 C 28.342 19.349, 28.279 19.286, 25.304 19.389 C 23.369 19.456, 22.469 19.862, 23.022 20.417 M 14 22 C 14.825 22.533, 15.950 22.969, 16.500 22.969 C 17.050 22.969, 16.825 22.533, 16 22 C 15.175 21.467, 14.050 21.031, 13.500 21.031 C 12.950 21.031, 13.175 21.467, 14 22" stroke="none" fill="#000000" fill-rule="evenodd"/></svg>