<svg xmlns="http://www.w3.org/2000/svg" width="200" height="200" fill="#000000"><path fill-opacity=".353" fill-rule="evenodd" d="m92 16.375-5.5 3.19-.289 7.537-.289 7.538 5.097 2.774c4.362 2.374 5.052 3.151 4.788 5.398-.25 2.138-2.067 3.666-9.807 8.244l-9.5 5.62-.283 11.198c-.269 10.642-.4 11.252-2.624 12.265-1.671.762-2.929.752-4.401-.036C66.243 78.524 66 78.665 66 81.95c0 1.642.697 3.34 1.571 3.83 1.106.619 1.475 2.022 1.25 4.75-.264 3.184-.92 4.221-3.692 5.834-3.293 1.916-3.448 1.919-6.797.116-3.212-1.73-3.408-2.127-3.129-6.335C55.479 85.97 58 82.736 58 86.556c0 1.627 2.616 4.343 4.25 4.412.413.018.75-9.335.75-20.783V49.37l9.486-5.435c5.217-2.989 9.492-5.664 9.5-5.944s-.923-1.095-2.067-1.81c-1.855-1.158-3.165-.687-12 4.316L58 46.113V77.81l-4.5 2.637-4.5 2.637v14.484l6.25 3.635 6.25 3.635 6-3.333 6-3.333.305-5.766c.299-5.643 1.838-8.292 4.866-8.374.644-.018 5.067 2.218 9.829 4.968s9.127 5 9.7 5 5.054-2.315 9.956-5.145c7.852-4.531 9.208-5.01 11.379-4.021 1.835.836 2.465 1.902 2.465 4.17v3.047l3-1.551c1.65-.853 3-2.221 3-3.04s1.436-2.363 3.192-3.431c3.182-1.934 3.205-1.934 7.047.226 3.582 2.013 3.834 2.449 3.558 6.156-.246 3.303-.86 4.318-3.562 5.891-1.878 1.092-4.003 1.616-5 1.232-1.643-.633-1.642-.721.015-1.651 1.552-.871 2.64-6.883 1.246-6.883-.278 0-8.332 4.5-17.898 10-9.567 5.5-17.724 10-18.127 10-.404 0-4.665-2.25-9.471-5s-9.276-5-9.935-5c-.713 0-1.07 1.094-.881 2.705.264 2.259 1.95 3.652 10.228 8.448 8.23 4.77 10.249 5.564 11.901 4.68 1.094-.586 7.332-4.175 13.863-7.976l11.875-6.912 4.238 2.484 4.238 2.484 6.277-3.537 6.277-3.538-.29-7.607-.291-7.608-5.851-3.415-5.852-3.415-4.996 2.719c-4.158 2.263-5.401 2.536-7.399 1.625-2.329-1.061-2.402-1.436-2.402-12.366l-.001-11.271-9.499-5.344c-8.526-4.797-9.5-5.637-9.5-8.194 0-1.804.809-3.415 2.206-4.394 2.176-1.524 2.18-1.566.25-3.016-1.076-.809-2.791-1.219-3.811-.911s-3.403-.272-5.294-1.29c-3.219-1.733-3.42-2.136-3.145-6.301.255-3.856.742-4.711 3.649-6.404 3.267-1.901 3.438-1.905 6.5-.125 1.73 1.006 3.453 2.291 3.829 2.856 1.035 1.555-.134 2.774-2.071 2.159-.945-.3-2.594.132-3.665.96-1.68 1.299-1.742 1.637-.448 2.46.825.525 8.7 5.144 17.5 10.263l16 9.308.282 11.739.282 11.738 2.468-1.617c2.392-1.567 2.467-1.975 2.449-13.252l-.019-11.635-13.231-7.63-13.231-7.63-.3-5.062-.3-5.062-6.363-3.558c-3.499-1.957-6.514-3.516-6.699-3.465-.186.05-2.813 1.528-5.838 3.282m.722 41.529c-5.27 3.092-5.2 3.354 1.833 6.896l4.054 2.041 4.848-3.017c3.744-2.33 4.529-3.232 3.445-3.959-1.831-1.23-8.738-4.88-9.112-4.815-.16.028-2.44 1.312-5.068 2.854M86 70.915v5.914l4.626 2.586c2.544 1.422 4.794 2.585 5 2.585S96 79.409 96 76.243v-5.758l-4.541-2.742c-2.497-1.509-4.747-2.743-5-2.743-.252 0-.459 2.662-.459 5.915m18.75-3.223L100 70.336v5.939c0 6.641.003 6.642 6.924 2.273 3.96-2.5 4.076-2.729 4.076-8.061 0-3.018-.338-5.476-.75-5.463-.412.014-2.888 1.214-5.5 2.668m-84.037 56.929c-.392.392-.713 4.012-.713 8.046 0 6.666.182 7.333 2 7.333 1.743 0 2.003-.674 2.023-5.25l.024-5.25 2.73 5c1.864 3.413 3.363 5 4.723 5s2.859-1.587 4.723-5l2.73-5 .024 5.25c.02 4.612.271 5.25 2.065 5.25 1.906 0 2.023-.518 1.75-7.75l-.292-7.75h-2.996c-2.542 0-3.38.711-5.526 4.684l-2.53 4.684-2.474-4.684c-1.821-3.448-3.144-4.762-5.011-4.98-1.396-.163-2.859.025-3.25.417m24.954.046c-.367.366-.667 3.998-.667 8.069 0 7.105.091 7.39 2.25 7.084 1.897-.27 2.328-1.084 2.75-5.194l.5-4.874 4.356 5.18c3.152 3.747 4.949 5.095 6.5 4.874 1.951-.279 2.17-1.003 2.436-8.056.273-7.232.156-7.75-1.75-7.75-1.796 0-2.042.631-2.042 5.233v5.233l-4.578-5.233c-4.284-4.898-7.785-6.537-9.755-4.566m29.541 7.083.292 7.75 6.228.297c8.941.427 10.21-.52 10.136-7.562-.034-3.154-.522-6.297-1.085-6.985-.652-.796-3.721-1.25-8.444-1.25h-7.419zm18.725-5.25c-.336 12.607-.28 12.989 1.929 13.32 1.789.267 2.138-.182 2.138-2.75 0-2.915.202-3.07 4-3.07 3.778 0 4 .167 4 3 0 2.534.389 3 2.502 3 2.435 0 2.495-.17 2.235-6.364-.361-8.649-1.372-9.636-9.859-9.636-6.652 0-6.88.082-6.945 2.5m18.275 5.25c.27 7.172.46 7.774 2.542 8.07 2.174.308 2.25.046 2.25-7.75 0-7.977-.029-8.07-2.542-8.07-2.529 0-2.541.039-2.25 7.75m6.792.366v8.117l6.634-.422c7.645-.487 10.366-2.679 10.366-8.349 0-4.983-3.699-7.462-11.135-7.462H119zm22.321-6.927c-1.198.579-2.741 2.41-3.428 4.069-2.441 5.894 2.648 10.7 11.357 10.727L154 140v-4.5c0-4.087-.221-4.5-2.406-4.5-1.941 0-2.302.4-1.866 2.068.488 1.865.158 2.037-3.343 1.75-3.392-.278-3.885-.635-3.885-2.818 0-2.342.363-2.519 5.75-2.8 5.354-.279 5.75-.469 5.75-2.75 0-2.298-.327-2.446-5.25-2.382-2.887.037-6.23.541-7.429 1.121m14.887 6.561.292 7.75 7.75.292c7.673.289 7.75.267 7.75-2.202 0-2.355-.349-2.514-6.25-2.85l-6.25-.355 6.25-.192c5.467-.169 6.25-.438 6.25-2.145 0-1.691-.839-2-6.25-2.308l-6.25-.355 6.25-.192c5.949-.184 6.25-.314 6.25-2.693 0-2.459-.131-2.5-8.042-2.5h-8.042zM80 129c0 .55 1.575 1 3.5 1s3.5-.45 3.5-1-1.575-1-3.5-1-3.5.45-3.5 1m18 0c0 .55 1.827 1 4.059 1 2.451 0 3.814-.396 3.441-1-.34-.55-2.166-1-4.059-1S98 128.45 98 129m25 3c0 2.741.291 3 3.378 3 3.775 0 5.976-1.913 5.032-4.373-.428-1.117-1.844-1.627-4.517-1.627-3.659 0-3.893.18-3.893 3m-43 2c0 .55 1.827 1 4.059 1 2.451 0 3.814-.396 3.441-1-.34-.55-2.166-1-4.059-1S80 133.45 80 134"/><path fill-opacity=".285" fill-rule="evenodd" d="M86 32.941c0 .518.445 1.216.989 1.552.566.35.734-.051.393-.941C86.717 31.82 86 31.503 86 32.941m4.143 1.949c-.946.6-1.021 1.067-.25 1.544.609.376 1.107.181 1.107-.434s.52-.797 1.155-.405c.715.443.883.275.44-.44-.842-1.364-.735-1.352-2.452-.265M117 35c0 .55.477 1 1.059 1s.781-.45.441-1-.816-1-1.059-1-.441.45-.441 1m-23.05 1.73c-2.143 1.085-1.452 1.823 1.3 1.388.412-.065.75 1.639.75 3.788 0 3.891-.034 3.924-9.5 9.25L77.001 56.5 77 67.177c0 10.315-.089 10.747-2.607 12.728-1.956 1.539-3.063 1.807-4.434 1.073-1.005-.538-2.082-.978-2.393-.978-.991 0-.608 4.856.434 5.5.55.34 1 2.528 1 4.862 0 3.847-.347 4.443-3.697 6.358l-3.697 2.113-3.795-2.167c-3.448-1.968-3.796-2.552-3.803-6.381-.006-3.196.475-4.473 1.992-5.285 1.687-.903 2-.76 2 .908 0 1.088 1.013 2.688 2.25 3.556l2.25 1.578L63 69.8l.5-21.241 7.5-4.313c4.125-2.373 8.175-4.72 9-5.217 1.238-.747 1.271-1.134.188-2.217s-1.49-.997-2.331.493c-.695 1.233-1.39 1.498-2.188.837s-3.786.492-9.419 3.637L58 46.384v31.665l-4.5 2.718-4.5 2.718.012 7.008.012 7.007 5.917 3.25c3.255 1.787 6.363 3.25 6.908 3.25.546 0 3.493-1.462 6.552-3.25l5.56-3.25.019-5.718c.018-5.155.28-5.854 2.661-7.102 2.486-1.302 3.176-1.07 11.75 3.957 5.01 2.938 9.396 5.346 9.746 5.352.351.006 4.844-2.449 9.985-5.455 8.343-4.878 9.565-5.323 11.363-4.136 1.141.752 2.151 2.69 2.328 4.467.279 2.789.535 3.019 2.298 2.075 1.092-.584 2.366-2.047 2.833-3.251s2.394-3.006 4.283-4.005c3.369-1.782 3.504-1.775 7.104.349 3.291 1.942 3.668 2.592 3.661 6.316-.007 3.757-.368 4.357-3.815 6.324-2.626 1.5-4.252 1.881-5.242 1.231-1.212-.796-1.152-1.159.39-2.338 1.147-.877 1.704-2.362 1.5-3.998-.321-2.569-.553-2.471-17.825 7.55-9.625 5.584-17.965 10.167-18.533 10.184s-4.97-2.294-9.781-5.135C83.875 101.325 79.727 99 79.469 99s-.463 1.237-.455 2.75c.012 2.419 1.175 3.424 9.661 8.347l9.648 5.597 13.835-7.924 13.834-7.924 4.254 2.36 4.254 2.36 6.241-3.533 6.24-3.533.01-7.159.009-7.159-6.25-3.516-6.25-3.516-5.009 2.861c-4.782 2.73-5.111 2.784-7.222 1.175-2.009-1.531-2.238-2.687-2.491-12.563l-.278-10.877-9.75-5.587c-8.652-4.958-9.75-5.9-9.75-8.365 0-1.694.78-3.264 2-4.026 2.42-1.512 2.655-2.957.336-2.067-.952.366-1.41.228-1.07-.322.849-1.373-4.406-1.121-7.316.351M111 35.455c0 .772 2.976 1.392 3.399.709.254-.412-.406-.814-1.468-.894s-1.931.003-1.931.185m6.5 3.57c1.65 1.107 5.813 3.673 9.25 5.702l6.25 3.689v11.292c0 6.21.338 11.278.75 11.26.412-.017 1.537-.629 2.5-1.36 1.482-1.125 1.75-3.029 1.75-12.42V46.096l-6.124-3.59c-3.369-1.974-6.631-3.683-7.25-3.797s-1.457-.659-1.861-1.209c-.451-.614-.74-.504-.75.285-.011.96-.504 1.024-1.949.25-1.064-.569-2.752-1.032-3.75-1.028-1.366.005-1.072.505 1.184 2.018M92.25 57.641C89.912 59.05 88 60.511 88 60.887s2.37 1.965 5.267 3.532l5.267 2.849 5.316-3.271 5.317-3.271-4.833-2.846c-5.884-3.464-6.709-3.48-12.084-.239M85 70.022v6.022l4.696 2.978C92.278 80.66 94.753 82 95.196 82S96 79.339 96 76.086v-5.914l-5.015-3.086C88.227 65.389 85.752 64 85.485 64S85 66.71 85 70.022m20.25-2.917-5.25 3.06v12.732l5.5-3.159 5.5-3.159v-6.29c0-3.459-.112-6.279-.25-6.267s-2.612 1.399-5.5 3.083m-84.012 58.057c-.722.722-1.238 3.863-1.238 7.538 0 5.633.212 6.3 2 6.3 1.74 0 2.006-.683 2.048-5.25l.048-5.25 3 5.814c3.717 7.201 5.397 7.141 9.074-.324l2.703-5.49.064 5.25c.055 4.562.325 5.25 2.063 5.25 1.791 0 2-.667 2-6.378 0-9.954-4.682-11.912-8.659-3.622-1.187 2.475-2.462 4.406-2.834 4.291s-1.65-2.139-2.841-4.5c-2.251-4.46-5.171-5.886-7.428-3.629m24.962.038c-.679.679-1.2 3.933-1.2 7.5 0 5.633.212 6.3 2 6.3 1.743 0 2.003-.674 2.021-5.25l.021-5.25 5.552 5.829c3.608 3.787 6.081 5.626 7.061 5.25.83-.319 1.697-.579 1.927-.579s.418-3.375.418-7.5c0-6.833-.178-7.5-2-7.5-1.743 0-2.003.675-2.024 5.25l-.025 5.25-4.565-5.25c-4.57-5.255-6.937-6.299-9.186-4.05m29.467-.533c-.367.366-.667 3.76-.667 7.54v6.874l8.25-.291 8.25-.29.192-6.246c.159-5.204-.122-6.414-1.685-7.25-2.088-1.118-13.296-1.381-14.34-.337M94 131.5c0 6.833.178 7.5 2 7.5 1.467 0 2-.667 2-2.5 0-2.25.4-2.5 4-2.5s4 .25 4 2.5c0 1.994.501 2.5 2.479 2.5 2.412 0 2.468-.166 2.099-6.191-.474-7.709-1.755-8.809-10.269-8.809H94zm19 0c0 6.833.178 7.5 2 7.5s2-.667 2-7.5-.178-7.5-2-7.5-2 .667-2 7.5m6-.116V139h6.461c5.359 0 6.809-.373 8.5-2.189 2.544-2.73 2.616-6.877.173-9.894-1.526-1.884-3.079-2.382-8.5-2.728l-6.634-.422zm24-6.675c-3.349 1.232-5 3.672-5 7.389 0 5.106 2.66 6.902 10.223 6.902H154v-4c0-3.333-.333-4-2-4-1.353 0-2 .667-2 2.06 0 1.769-.53 2.017-3.742 1.75-2.764-.229-3.837-.815-4.108-2.244-.519-2.733 2.508-4.566 7.541-4.566 3.642 0 4.309-.309 4.309-2 0-1.73-.64-1.989-4.75-1.921-2.613.043-5.425.327-6.25.63m13.667-.042c-.367.366-.667 3.741-.667 7.5V139h8c6.322 0 8-.304 8-1.45 0-1.061-1.521-1.531-5.671-1.75-8.141-.431-8.49-2.8-.412-2.8 4.74 0 6.083-.331 6.083-1.5 0-1.167-1.333-1.5-6-1.5-3.333 0-6-.444-6-1s2.667-1 6-1c5.333 0 6-.222 6-2 0-1.818-.667-2-7.333-2-4.034 0-7.634.3-8 .667M79 129c0 .55 2.052 1 4.559 1 2.785 0 4.319-.389 3.941-1-.34-.55-2.391-1-4.559-1S79 128.45 79 129m19 .56c0 1.187.879 1.486 3.673 1.25 5.275-.445 5.621-2.81.41-2.81-3.033 0-4.083.401-4.083 1.56m25 1.997v3.558l4.241-.308c3.261-.236 4.327-.754 4.609-2.241.461-2.428-2.367-4.566-6.041-4.566-2.552 0-2.809.325-2.809 3.557m-43.47 2.395c-.361.584.009 1.318.822 1.63 2.17.832 7.148.079 7.148-1.082 0-1.374-7.156-1.865-7.97-.548"/><path fill-opacity=".373" fill-rule="evenodd" d="m58.024 70-.039 8.5-3.993 2.28L50 83.06v6.47c0 3.558-.062 6.808-.138 7.22s2.483 2.282 5.686 4.153l5.825 3.404 6.312-3.404 6.312-3.403.002-5.727c.001-4.976.323-5.938 2.455-7.335 2.374-1.556 2.77-1.423 12.053 4.041l9.599 5.649 9.5-5.562c9.296-5.443 9.564-5.529 12.458-4.033 2.43 1.256 2.848 1.971 2.339 3.998-.341 1.358-.316 2.469.054 2.469 1.653 0 4.543-2.197 4.543-3.454 0-.76 1.644-2.399 3.653-3.64 3.652-2.258 3.653-2.258 7.25-.332 3.25 1.74 3.626 2.379 3.9 6.629.294 4.571.193 4.758-3.621 6.704-3.289 1.678-4.21 1.793-5.693.708-1.611-1.178-1.623-1.35-.129-1.923 1.387-.532 2.493-5.692 1.221-5.692-.231 0-8.207 4.486-17.725 9.968l-17.306 9.969-5.525-3.096a897 897 0 0 1-9.775-5.563L79 98.81v2.582c0 2.753 1.703 4.088 13.567 10.629l6.067 3.345 13.245-7.683c7.285-4.226 13.69-7.683 14.235-7.683s2.705.987 4.801 2.193l3.811 2.194 5.887-3.489 5.887-3.488.272-6.955.272-6.955-6.292-3.558-6.292-3.559-4.737 2.784c-7.781 4.571-10.676 1.755-10.712-10.417-.007-2.274-.503-3.789-1.261-3.849-6.63-.522-6.211-.888-6.75 5.907l-.5 6.307-5.25 3.025-5.25 3.025.003-6.832.002-6.833 3.736-2c2.054-1.1 3.894-2.9 4.087-4l.352-2-1.664 2c-.916 1.1-1.372 1.325-1.014.5s-.183-.562-1.201.583c-2.185 2.459-9.197 2.911-10.828.699-.565-.767-1.69-1.494-2.5-1.616s-2.004-.554-2.654-.96a1.38 1.38 0 0 0-1.904.432c-.454.734-.29.903.438.453.658-.407 1.435-.004 1.793.929.505 1.317.802 1.38 1.478.314.631-.996.849-.849.861.583.008 1.054.268 1.664.577 1.355s1.659.455 3 1.698C96.636 70.392 97 71.646 97 76.865c0 3.374-.232 6.135-.515 6.135s-2.983-1.393-6-3.095L85 76.809V63.211l-3.45.778c-1.897.428-3.697.53-4 .228S77 67.105 77 71.308c0 7.541-.041 7.662-3.115 9.251-2.239 1.158-3.42 1.306-4.2.526C69.088 80.488 68.24 80 67.8 80c-1.158 0-.985 4.768.2 5.5.55.34 1 2.606 1 5.035 0 4.094-.275 4.559-3.75 6.353-3.733 1.926-3.767 1.926-7.5-.161-3.423-1.913-3.75-2.469-3.75-6.376 0-3.257.478-4.537 2-5.351 1.69-.905 2-.76 2 .93 0 1.704 2.577 4.07 4.434 4.07.863 0 .562-17.961-.377-22.5-.455-2.2-.879-3.576-.942-3.059-.063.518-.776.068-1.583-1-1.329-1.757-1.472-1.134-1.508 6.559m75.725-1.466c-.452 2.364-.346 2.442 1.578 1.165 2.822-1.874 3.252-3.699.873-3.699q-1.966 0-2.451 2.534M21.2 125.2c-.679.679-1.2 3.933-1.2 7.5 0 5.633.212 6.3 2 6.3 1.738 0 2.008-.687 2.061-5.25l.061-5.25 2.629 5.216c3.96 7.856 5.411 7.823 9.569-.216l2.587-5 .046 5.25c.041 4.568.307 5.25 2.047 5.25 1.788 0 2-.667 2-6.3 0-3.567-.521-6.821-1.2-7.5-2.524-2.524-4.739-1.257-7.563 4.327l-2.794 5.526-2.711-5.526c-2.745-5.599-4.978-6.881-7.532-4.327m24.835.734c-.569 1.064-1.035 4.439-1.035 7.5 0 4.899.24 5.566 2 5.566 1.733 0 2-.667 2-5 0-2.75.187-5 .415-5 .229 0 2.884 2.568 5.9 5.706 4.759 4.953 5.694 5.531 7.084 4.378 1.187-.985 1.601-3.126 1.601-8.28 0-6.079-.219-6.909-1.75-6.619-1.301.247-1.878 1.609-2.25 5.311l-.5 4.979-4.407-5.237c-4.644-5.521-7.344-6.505-9.058-3.304M76 131.5v7.5h6.878c4.307 0 7.247-.467 7.866-1.25.544-.687 1.008-3.39 1.032-6.007.056-6.128-2.029-7.743-9.999-7.743H76zm18.667-6.833c-.367.366-.667 3.741-.667 7.5 0 6.166.195 6.833 2 6.833 1.479 0 2-.667 2-2.557 0-2.391.278-2.538 4.25-2.25 3.533.255 4.304.687 4.57 2.557.175 1.238.946 2.25 1.712 2.25 1.055 0 1.382-1.594 1.344-6.558-.047-6.038-.247-6.633-2.529-7.5-2.839-1.079-11.684-1.272-12.68-.275m18.333 6.76c0 6.96.165 7.573 2.044 7.573 1.897 0 2.023-.519 1.75-7.239-.242-5.961-.603-7.299-2.044-7.574-1.542-.294-1.75.566-1.75 7.24m6.667-6.76c-.367.366-.667 3.741-.667 7.5V139h6.427c5.753 0 6.645-.277 8.5-2.635 1.14-1.449 2.073-3.228 2.073-3.953 0-2.957-2.454-6.375-5.287-7.362-3.371-1.175-10.024-1.406-11.046-.383m23.592.015c-4.954 1.005-6.966 8.611-3.259 12.318 1.556 1.556 3.333 2 8 2h6v-4c0-3.333-.333-4-2-4-1.467 0-2 .667-2 2.5 0 2.071-.48 2.5-2.8 2.5-3.364 0-5.2-1.622-5.2-4.593 0-2.643 1.716-3.407 7.655-3.407 3.738 0 4.436-.294 4.16-1.75-.341-1.798-5.586-2.577-10.556-1.568m13.991-.041c-.829.349-1.25 2.856-1.25 7.442V139h8c6.444 0 8-.292 8-1.5 0-1.167-1.333-1.5-6-1.5s-6-.333-6-1.5 1.333-1.5 6-1.5c3.333 0 6-.444 6-1s-2.667-1-6-1c-4.667 0-6-.333-6-1.5 0-1.169 1.341-1.5 6.073-1.5 5.245 0 6.028-.239 5.74-1.75-.272-1.428-1.529-1.785-6.823-1.942-3.57-.106-7.052.044-7.74.333M79 129.557c0 1.211.93 1.489 4.172 1.25 5.967-.439 6.313-2.807.411-2.807-3.482 0-4.583.374-4.583 1.557m19-.057c0 1.083 1.111 1.5 4 1.5s4-.417 4-1.5-1.111-1.5-4-1.5-4 .417-4 1.5m25 2.5c0 3.627.239 4 2.566 4 3.54 0 6.434-1.725 6.434-3.835 0-2.676-2.038-4.165-5.7-4.165-3.183 0-3.3.141-3.3 4m-44 2.5c0 1.111 1.167 1.5 4.5 1.5s4.5-.389 4.5-1.5-1.167-1.5-4.5-1.5-4.5.389-4.5 1.5"/><path fill-opacity=".446" fill-rule="evenodd" d="M102.333 89.456c0 .801.383 1.22.85.931s.591-.944.274-1.456c-.808-1.308-1.124-1.161-1.124.525m39.817 1.429c-.233 5.266-6.233 9.663-9.934 7.281-1.314-.845-.597-4.52.722-3.704.401.247.729-.185.729-.962s-.337-1.204-.748-.95a.83.83 0 0 1-1.17-.294c-.232-.416-.315-.274-.185.316.13.589-.646 1.622-1.723 2.295-1.779 1.111-1.861 1.04-.893-.77.712-1.331-4.104.982-14.482 6.954-8.553 4.922-15.732 8.949-15.955 8.949-.388 0-9.462-5.143-16.261-9.216L79 98.837v2.523c0 2.127 1.482 3.396 9.444 8.082 5.195 3.057 9.73 5.558 10.079 5.558s6.671-3.57 14.048-7.934l13.414-7.933 4.392 2.454 4.392 2.455 5.607-3.271c5.087-2.968 5.589-3.568 5.414-6.476-.145-2.406-.499-2.952-1.419-2.188-.909.755-1.335.291-1.649-1.795-.389-2.59-.434-2.545-.572.573m-92.071 2.134c-.079 4.514-.072 4.523 5.925 7.82l6.004 3.301 5.827-3.54c5.349-3.249 5.791-3.788 5.384-6.56-.244-1.661-.815-2.79-1.27-2.509-.454.281-1.29-.286-1.857-1.26-.866-1.487-1.036-1.263-1.062 1.397-.024 2.503-.738 3.606-3.398 5.25-3.73 2.306-6.632 2.706-6.632.915 0-.641-.263-.903-.585-.582-.955.956-4.415-2.549-4.415-4.473C54 91.8 53.362 91 52.583 91s-1.643-.562-1.921-1.25c-.277-.687-.54.784-.583 3.269M93 89.544c0 .116.6.709 1.333 1.318.997.827 1.334.773 1.334-.211 0-.725-.6-1.318-1.334-1.318-.733 0-1.333.095-1.333.211M97.5 93c.34.55.816 1 1.059 1s.441-.45.441-1-.477-1-1.059-1-.781.45-.441 1m-75.75 32.08c-2.383 1.388-2.608 13.92-.25 13.92 1.137 0 1.5-1.231 1.5-5.083 0-6.068 1.146-6.046 4.233.083 3.256 6.464 5.733 6.477 8.746.044 1.3-2.774 2.736-5.044 3.192-5.044s.829 2.25.829 5c0 3.778.367 5 1.5 5 1.179 0 1.5-1.385 1.5-6.465 0-5.508-.305-6.628-2.064-7.569-2.694-1.442-4.64.134-7.145 5.784-1.037 2.338-2.067 4.25-2.291 4.25s-1.345-2.122-2.492-4.715c-2.706-6.117-4.044-7.077-7.258-5.205m24.917-.413c-.367.366-.667 3.741-.667 7.5 0 5.407.313 6.833 1.5 6.833 1.159 0 1.5-1.306 1.502-5.75l.002-5.75 5.253 5.87c7.162 8.002 9.131 7.666 9.539-1.63.273-6.22.138-6.74-1.75-6.74-1.8 0-2.046.628-2.046 5.228v5.228l-3.25-3.962c-6.032-7.354-8.134-8.777-10.083-6.827M76 132v7h6.878c4.293 0 7.259-.47 7.892-1.25 1.166-1.435 1.102-9.635-.089-11.5-.514-.803-3.28-1.25-7.74-1.25H76zm18-.042c0 5.593.309 7.042 1.5 7.042.933 0 1.5-.944 1.5-2.5 0-2.333.333-2.5 5-2.5s5 .167 5 2.5c0 1.528.569 2.5 1.464 2.5 1.161 0 1.419-1.394 1.25-6.75l-.214-6.75-7.75-.292-7.75-.292zm19 .042c0 5.556.31 7 1.5 7s1.5-1.444 1.5-7-.31-7-1.5-7-1.5 1.444-1.5 7m6 0v7h5.889c6.557 0 9.61-1.737 10.625-6.043.414-1.758-.059-3.38-1.53-5.25-1.92-2.441-2.761-2.707-8.557-2.707H119zm21-5c-2.698 2.698-2.556 7.129.314 9.826 1.819 1.708 3.539 2.174 8.028 2.174h5.714l-.383-3.75c-.461-4.506-3.673-6.1-3.673-1.823 0 2.178-.449 2.573-2.929 2.573-1.61 0-3.635-.707-4.5-1.571-1.859-1.86-1.875-1.993-.536-4.495.806-1.505 2.114-1.934 5.893-1.934 3.396 0 5.031-.452 5.434-1.5.969-2.526-10.776-2.086-13.362.5m16.204 4.75.296 6.75 7.583.289c6.285.24 7.584.026 7.584-1.25 0-1.209-1.249-1.539-5.834-1.539-4.518 0-5.833-.338-5.833-1.5 0-1.152 1.278-1.5 5.5-1.5 3.025 0 5.5-.45 5.5-1s-2.475-1-5.5-1c-4.222 0-5.5-.348-5.5-1.5 0-1.167 1.333-1.5 6-1.5s6-.333 6-1.5c0-1.209-1.561-1.5-8.046-1.5h-8.045zM79 129.557c0 1.211.93 1.489 4.172 1.25 5.967-.439 6.313-2.807.411-2.807-3.482 0-4.583.374-4.583 1.557m18.637-.06c.457 1.19 1.683 1.528 4.74 1.304 5.641-.412 5.211-2.231-.616-2.605-4.011-.258-4.645-.058-4.124 1.301M123 132v4.121l3.649-.311c2.126-.181 4.106-1.04 4.745-2.06 1.688-2.696-.444-5.195-4.745-5.56l-3.649-.311zm-44 2.5c0 1.111 1.167 1.5 4.5 1.5s4.5-.389 4.5-1.5-1.167-1.5-4.5-1.5-4.5.389-4.5 1.5"/></svg>