<svg xmlns="http://www.w3.org/2000/svg" width="200" height="200" fill="#000000"><path fill-opacity=".118" fill-rule="evenodd" d="M.039 48.25C.075 92.259.212 96.192 1.594 93c3.522-8.129 10.064-12.363 19.004-12.298l6.099.044 10.052-17.495 10.053-17.495-2.827-4.456c-3.478-5.485-4.46-10.785-3.002-16.201C43.128 17.097 52.041 10.044 60 10.044c7.501 0 17.338 7.398 18.666 14.038L79.25 27h20.875c19.213 0 20.875-.139 20.879-1.75.004-2.071 3.566-8.158 5.873-10.037 3.212-2.617 9.691-5.169 13.123-5.169 7.959 0 16.872 7.053 19.027 15.055 1.46 5.422.475 10.718-3.016 16.223l-2.84 4.478 10.008 17.474 10.009 17.473 6.156-.045c3.812-.027 7.337.572 9.258 1.576 4.273 2.232 9.065 7.928 9.911 11.781 1.854 8.44 2.457-2.995 2.472-46.809L201 0H0zm.423.25c.001 26.4.13 37.056.287 23.681.158-13.376.158-34.976 0-48S.462 22.1.462 48.5m55.933-31.394c-4.161 1.174-8.147 5.333-9.528 9.943-.986 3.293-.84 4.376 1.149 8.485 1.81 3.739 3.208 5.12 6.782 6.701 3.802 1.682 5.08 1.819 8.215.879 4.754-1.424 8.684-5.371 10.12-10.163.975-3.255.84-4.375-.98-8.135-3.094-6.39-9.436-9.494-15.758-7.71m77.999.803c-3.121 1.417-4.652 2.992-6.382 6.566-2.034 4.201-2.147 5.13-1.067 8.735 1.535 5.123 4.722 8.31 9.845 9.845 3.585 1.074 4.537.965 8.562-.983 5.533-2.679 9.237-9.114 8.135-14.132-.962-4.377-6.008-9.713-10.319-10.91-4.562-1.267-3.903-1.333-8.774.879M78.106 37.25c-1.093 2.337-2.757 5.428-3.698 6.869-1.676 2.564-1.633 2.752 2.078 9 7.198 12.117 5.913 11.017 10.759 9.204 2.665-.996 7.432-1.591 12.755-1.591s10.09.595 12.755 1.591c4.863 1.819 3.793 2.747 10.719-9.293 3.599-6.258 3.667-6.554 2.064-9-.911-1.392-2.551-4.443-3.644-6.78L119.906 33H80.094zM42.04 66.724l-9.976 17.34 2.069 2.069c1.138 1.138 2.951 4.064 4.03 6.502l1.961 4.434 10.162-.285 10.163-.284.736-4.324c1.195-7.018 5.339-14.795 10.787-20.243l5.096-5.096-4.932-8.59-4.933-8.591-7.594-.136-7.594-.136zM129.103 56c-6.834 11.603-6.725 10.283-1.299 15.709 5.594 5.594 10.228 14.399 10.951 20.806L139.26 97h20.646l1.946-4.399c1.071-2.42 2.922-5.375 4.114-6.567 1.477-1.477 1.86-2.545 1.203-3.351-.53-.651-5.053-8.379-10.052-17.173l-9.087-15.991-7.55-.009-7.549-.01zM90 66.878C79.407 70.353 70.152 79.53 67.023 89.661 65.91 93.263 65 96.388 65 96.605S68.6 97 73 97h8V80h10.858l1.512 5.25c.831 2.888 2.275 8.4 3.208 12.25s2.021 7.363 2.416 7.807c.641.719 7.006-21.205 7.006-24.13 0-.759 1.94-1.177 5.46-1.177h5.459l.291 8.25.29 8.25h16l-.294-3c-.466-4.745-4.894-12.953-9.442-17.5-6.742-6.742-12.784-9.303-22.764-9.648-4.675-.162-9.625.075-11 .526M12.719 88.777c-1.53.947-3.727 3.675-4.882 6.061-1.807 3.732-1.943 4.864-.974 8.098 1.507 5.033 5.049 8.658 9.869 10.102 3.461 1.037 4.566.924 8.657-.886 3.861-1.708 5.055-2.902 6.763-6.763 1.772-4.006 1.91-5.237.949-8.447-.619-2.066-2.711-5.148-4.648-6.849-2.888-2.536-4.372-3.088-8.238-3.066-2.677.015-5.917.771-7.496 1.75m160.254-.073c-3.424 2.359-4.764 4.213-6.073 8.396-.958 3.061-.816 4.301.948 8.289 1.708 3.861 2.902 5.055 6.763 6.763 3.986 1.763 5.246 1.908 8.402.962 10.849-3.25 13.782-15.696 5.428-23.032-2.866-2.516-4.381-3.082-8.253-3.082-2.835 0-5.738.686-7.215 1.704m-85.089-.174c-.278.534-.478 7.157-.445 14.72L87.5 117H81v-13h-7.5c-7.382 0-7.5.04-7.5 2.562 0 3.921 4.837 13.275 9.036 17.474 2.068 2.068 5.944 5.044 8.612 6.612 4.503 2.647 5.607 2.852 15.352 2.852 9.119 0 11.154-.322 15.474-2.448 9.229-4.541 16.898-14.544 19.014-24.802l.671-3.25H117v14.5h-6l-.03-15c-.018-8.516-.39-14.352-.861-13.5-.457.825-2.285 7.418-4.062 14.651l-3.23 13.152-3.439.401c-3.003.351-3.521.078-4.084-2.151-.355-1.404-2.053-8.164-3.775-15.023-1.721-6.858-3.357-12.033-3.635-11.5m-49.736 18.869c-1.071 2.42-2.897 5.35-4.059 6.512l-2.113 2.113 10.138 17.528 10.139 17.528 7.514-.29 7.514-.29 4.935-8.684 4.935-8.685-4.131-3.732c-6.108-5.518-10.176-13.241-12.456-23.649l-.602-2.75H40.094zm101.412-3.184c-.222.707-.675 2.923-1.007 4.924-.976 5.9-6.27 15.346-11.09 19.788l-4.483 4.133 1.628 3.22c.896 1.771 3.184 5.808 5.083 8.97l3.454 5.75h14.619l10.052-17.473 10.051-17.473-2.683-3.055c-1.476-1.68-3.173-4.505-3.771-6.277l-1.087-3.222-10.181-.285c-7.617-.214-10.283.038-10.585 1M0 151.886V200h100.031c79.103 0 100.132-.262 100.511-1.25.263-.687.362-22.625.218-48.75l-.26-47.5-2.083 4.5c-3.946 8.523-12.606 13.794-20.816 12.669l-4.148-.569-10.316 17.95-10.316 17.949 2.563 3.046c5.272 6.265 5.662 14.674 1.05 22.618-4.852 8.359-16.002 11.661-24.875 7.366-5.237-2.536-9.245-7.207-10.176-11.863L120.75 173h-41.5l-.553 2.75c-.89 4.431-4.86 9.321-9.697 11.946-8.772 4.759-20.466 1.526-25.434-7.033-4.607-7.935-4.222-16.353 1.033-22.598l2.546-3.026-10.274-17.926-10.273-17.927-5.049.502c-4.221.42-5.945.03-10.515-2.377-4.447-2.343-5.984-3.873-8.25-8.21L0 103.772zm.463.114c0 26.675.129 37.588.286 24.25.158-13.338.158-35.162 0-48.5C.592 114.412.463 125.325.463 152M112.5 137.714c-6.665 2.468-15.756 2.784-23.077.803-3.581-.97-6.674-1.595-6.874-1.39C81.368 138.338 73 153.243 73 154.134c0 .593 1.149 2.443 2.553 4.111 1.404 1.669 2.81 4.321 3.125 5.895l.572 2.86h41.5l.572-2.86c.315-1.574 1.721-4.226 3.125-5.895s2.553-3.517 2.553-4.109c0-1.021-9.845-18.264-10.289-18.019-.116.064-2.011.783-4.211 1.597M51.596 160.05c-4.975 4.368-6.265 8.911-4.123 14.519 2.214 5.797 6.61 8.931 12.527 8.931s10.313-3.134 12.527-8.931c2.142-5.608.852-10.151-4.123-14.519C65.536 157.532 64.07 157 60 157s-5.536.532-8.404 3.05m80.345-.347c-6.821 5.739-7.36 13.811-1.326 19.845 4.468 4.469 8.838 5.23 14.822 2.583 3.767-1.666 5.018-2.906 6.644-6.58 2.612-5.906 1.407-11.037-3.63-15.46-4.814-4.227-11.754-4.39-16.51-.388"/><path fill-opacity=".36" fill-rule="evenodd" d="M.086 48.25c.047 26.635.452 47.037.902 45.541 2.475-8.207 9.511-13.168 18.979-13.38l6.513-.145 9.76-16.776C41.608 54.264 46 46.349 46 45.902s-1.113-2.453-2.474-4.458C36.765 31.481 40.212 18.015 51 12.248c3.643-1.947 5.596-2.331 10.255-2.013 7.761.53 13.34 4.365 16.745 11.511l2.5 5.247 19.614.003 19.614.004 1.701-4.453C127.454 6.771 149.64 5.826 157.752 21c3.391 6.343 2.836 14.293-1.417 20.327l-3.036 4.307 10.137 17.433L173.572 80.5l4.085-.323c2.246-.178 5.966.183 8.267.802 5.074 1.367 11.597 7.563 12.556 11.928 1.943 8.849 2.52-1.559 2.52-45.466V0H0zm.376.25c.001 26.4.13 37.056.287 23.681.158-13.376.158-34.976 0-48S.462 22.1.462 48.5m52.45-29.22c-4.618 3.112-6.077 6.259-5.592 12.063.317 3.793 1.088 5.527 3.561 8C53.718 42.18 54.643 42.5 60 42.5s6.282-.32 9.119-3.157c2.473-2.473 3.244-4.207 3.561-8 .237-2.838-.137-5.866-.902-7.313C69.814 20.318 64.255 17 60 17c-2.2 0-5.078.926-7.088 2.28m81.506-1.311c-1.144.463-3.33 2.326-4.856 4.14-2.457 2.92-2.725 3.914-2.331 8.664.357 4.31 1.043 5.962 3.485 8.405 5.873 5.872 15.985 4.64 20.324-2.477 6.518-10.688-4.846-23.496-16.622-18.732M78.992 36.525c-.64 1.939-2.297 4.872-3.682 6.518l-2.517 2.992 4.853 8.479c2.67 4.664 5.304 8.476 5.854 8.472s3.209-.678 5.909-1.497c6.411-1.945 14.536-1.889 21.803.15 3.213.902 5.997 1.465 6.185 1.25.188-.214 2.447-4.124 5.02-8.688l4.678-8.299-2.462-2.926c-1.353-1.609-2.985-4.512-3.625-6.451L119.845 33h-39.69zM42.898 65.849c-5.169 8.992-9.544 16.741-9.721 17.22-.178.48.832 2.388 2.245 4.24s3.066 4.791 3.672 6.53L40.196 97h19.361l1.783-6.921c1.967-7.636 5.482-13.58 11.485-19.421l3.948-3.842-4.955-8.658-4.956-8.658H52.296zm85.191-7.625-5.101 8.724 4.366 4.024c5.158 4.755 10.164 13.681 11.707 20.877L140.166 97h19.679l1.163-3.525c.64-1.939 2.312-4.89 3.715-6.557l2.551-3.032-2.387-4.207c-1.313-2.313-5.709-10.05-9.769-17.193L147.736 49.5H133.19zm-38.094 9.062C80.504 69.983 71.51 78.359 67.98 87.788 64.635 96.72 64.803 97 73.5 97H81V80h11.543l2.873 11.425c1.581 6.284 3.187 11.932 3.569 12.551s2.183-4.523 4.002-11.426L106.293 80H118v16h7.5c7.114 0 7.499-.116 7.49-2.25-.016-3.686-4.555-12.323-9.025-17.173-5.695-6.177-13.307-9.64-22.335-10.16-4.091-.236-9.05.135-11.635.869M13.299 88.96c-7.462 4.549-8.406 14.804-1.912 20.756 3.077 2.82 4.309 3.284 8.716 3.284 4.628 0 5.513-.381 9.015-3.882 3.326-3.327 3.881-4.508 3.878-8.25-.009-10.804-10.805-17.331-19.697-11.908m159.613.32c-4.266 2.875-5.879 6.044-5.897 11.588-.013 3.749.534 4.917 3.867 8.25s4.501 3.88 8.25 3.867c5.544-.018 8.713-1.631 11.588-5.897 7.794-11.567-6.241-25.602-17.808-17.808m-84.818 13.97L88 118h-7v-14H65.777l.695 3.703c1.682 8.966 9.377 18.602 18.386 23.027 4.9 2.406 6.826 2.769 14.642 2.765 10.659-.006 15.727-1.907 23.076-8.656 5.071-4.657 10.422-14.456 10.423-19.089L133 103h-15v15h-6.945l-.278-14.25c-.152-7.838-.574-13.575-.937-12.75s-2.128 7.26-3.921 14.3l-3.26 12.8-3.529-.3-3.529-.3-3.706-14.5-3.707-14.5zm-47.774.964c-.542.708-1.551 2.716-2.244 4.464-.692 1.747-2.118 3.955-3.167 4.905-1.05.95-1.909 2.13-1.909 2.623s4.339 8.428 9.642 17.634l9.641 16.739 7.263-.039 7.263-.04 4.988-8.5 4.988-8.5-5.224-5.5c-6.232-6.562-7.269-8.363-10.07-17.5l-2.146-7-9.02-.286c-6.456-.204-9.301.081-10.005 1m99.221 2.419c-1.535 8.182-4.769 14.537-10.533 20.699l-5.797 6.198 4.959 8.485 4.959 8.485 7.288.039 7.289.04 8.897-15.446c11.764-20.425 11.09-18.758 8.657-21.399-1.133-1.228-2.895-4.034-3.915-6.234l-1.856-4-9.627-.285-9.626-.285zM.022 152.25 0 200h100.031c79.103 0 100.132-.262 100.511-1.25.263-.687.362-22.4.219-48.25-.222-39.907-.46-46.548-1.58-44.004-3.97 9.02-11.365 13.855-20.455 13.372l-5.163-.274-10.125 17.453-10.125 17.453 2.987 4.213c5.17 7.294 4.745 17.514-1.012 24.356-9.836 11.69-29.501 7.935-34.28-6.544L119.845 173h-39.69l-1.163 3.525c-4.779 14.479-24.444 18.234-34.28 6.544-5.574-6.623-6.161-16.927-1.361-23.855 1.457-2.102 2.645-4.247 2.641-4.768s-4.405-8.575-9.779-17.899l-9.771-16.953-5.092.27c-8.751.465-15.937-3.732-19.46-11.364-1.825-3.955-1.846-3.46-1.868 43.75m.44.25c.001 26.4.13 37.056.287 23.681.158-13.376.158-34.976 0-48S.462 126.1.462 152.5m77.303-7.004-4.735 8.448 2.873 4.278c1.581 2.353 3.042 5.178 3.248 6.278.358 1.911 1.276 2.012 20.507 2.27l20.132.271 1.109-3.182c.61-1.749 2.249-4.675 3.642-6.502l2.533-3.321-4.709-8.268c-2.59-4.547-4.793-8.391-4.895-8.542s-2.819.411-6.038 1.25c-7.423 1.933-16.718 1.947-23.023.035-2.7-.819-5.134-1.483-5.409-1.476s-2.631 3.815-5.235 8.461M53.299 158.96C49.242 161.433 47 165.743 47 171.068c0 3.507.615 4.782 3.882 8.05C54.403 182.639 55.252 183 60 183s5.597-.361 9.118-3.882c3.326-3.327 3.881-4.508 3.878-8.25-.009-10.804-10.805-17.331-19.697-11.908m80 0c-4.057 2.473-6.299 6.783-6.299 12.108 0 3.507.615 4.782 3.882 8.05 3.502 3.501 4.387 3.882 9.015 3.882 4.407 0 5.639-.464 8.716-3.284 8.734-8.005 3.157-22.709-8.613-22.709-1.925 0-4.941.879-6.701 1.953"/><path fill-opacity=".611" fill-rule="evenodd" d="M.04 47.25C.077 90.945.199 94.274 1.662 91.5c4.058-7.698 10.753-11.746 19.254-11.642l5.584.069 9.884-17.14c6.47-11.22 9.578-17.549 9-18.323-3.81-5.101-4.747-7.185-5.158-11.465-.718-7.476.428-11.324 4.879-16.381 7.627-8.665 19.022-9.481 27.775-1.988 2.199 1.882 4.787 5.21 5.751 7.396L80.385 26h39.23l1.754-3.974c2.297-5.207 8.634-10.538 14.19-11.936 5.957-1.501 12.141.106 17.253 4.481 8.931 7.645 9.692 18.763 2.021 29.539-.938 1.317.655 4.716 8.756 18.69l9.901 17.08 5.524-.078c8.459-.12 17.342 5.444 19.489 12.207C200.5 98.302 201 89.182 201 46.441V0H0zm.422.25C.461 73.35.591 84.068.749 71.319c.158-12.75.158-33.9 0-47S.462 21.65.462 47.5m53.6-28.673c-9.921 5.321-8.87 19.453 1.721 23.142 7.99 2.784 15.801-2.11 16.849-10.556C73.51 24.332 67.085 17 60 17c-1.392 0-4.064.822-5.938 1.827m80.059-.117c-10.066 4.959-9.084 19.515 1.567 23.227 14.822 5.164 24.075-15.696 10.25-23.11-4.196-2.25-7.421-2.282-11.817-.117M78.945 37.133c-.714 1.723-2.345 4.378-3.625 5.899l-2.328 2.766 5.062 8.601C80.838 59.13 83.259 63 83.432 63s2.23-.675 4.568-1.5c2.377-.838 7.669-1.5 12-1.5s9.623.662 12 1.5c2.338.825 4.394 1.5 4.568 1.5s2.586-3.858 5.362-8.574l5.046-8.573-2.887-3.677c-1.587-2.022-3.187-4.689-3.555-5.926-.664-2.235-.8-2.25-20.48-2.25H80.243zM47.546 58.5c-2.9 4.95-7.412 12.698-10.026 17.218l-4.752 8.217 2.44 2.9c1.341 1.594 3.023 4.309 3.737 6.032L40.243 96h19.501l.614-3.75c1.001-6.124 6.208-15.869 11.085-20.746C73.949 68.998 76 66.786 76 66.589s-2.014-3.898-4.476-8.224L67.047 50.5l-7.114-.5-7.114-.5zm92.266-8.706-6.688.295-4.562 7.909c-2.509 4.35-4.562 8.225-4.562 8.611s1.824 2.491 4.054 4.677c5.204 5.101 9.594 12.808 11.087 19.464l1.177 5.25h19.486l1.123-3.222c.618-1.772 2.287-4.436 3.709-5.92l2.585-2.698-9.693-16.83c-5.331-9.256-9.994-17.055-10.361-17.33s-3.677-.368-7.355-.206M90.723 67.358c-6.171 1.739-14.807 7.713-18.172 12.568C69.795 83.903 66 92.932 66 95.511 66 96.697 67.524 97 73.5 97H81V78.9l5.732.3 5.733.3 3.176 11.826c1.748 6.504 3.374 12.022 3.614 12.262s1.687-4.406 3.215-10.325c3.8-14.718 3.595-14.424 9.842-14.063l5.188.3.29 8.25.291 8.25h15.169l-.585-2.926c-1.898-9.49-9.977-19.496-19.121-23.682-6.606-3.025-16.257-3.885-22.821-2.034M14.062 88.827c-3.925 2.105-7.064 7.289-7.058 11.657C7.012 106.925 13.32 113 20 113s12.988-6.075 12.996-12.516C33.004 93.848 26.405 87 20 87c-1.392 0-4.064.822-5.938 1.827m160.194-.182c-1.784.879-4.146 3.06-5.25 4.845-6.952 11.249 6.275 24.514 17.574 17.624 3.322-2.025 6.42-7.469 6.42-11.281 0-3.776-3.368-9.025-7.062-11.006-4.163-2.232-7.42-2.283-11.682-.182M88 104.5V118h-7v-14H65.841l.704 3.25c2.147 9.916 8.818 18.326 18.199 22.945 5.846 2.878 7.648 3.281 14.727 3.292 7.111.011 8.855-.376 14.744-3.274 8.018-3.945 13.889-10.202 16.752-17.853 3.403-9.096 3.248-9.36-5.467-9.36H118v15h-8.111l.305-12.92c.168-7.106.081-12.699-.194-12.428s-1.873 5.972-3.55 12.67L103.4 117.5l-3.976.297-3.976.296-3.327-13.546C90.292 97.096 88.616 91 88.397 91c-.218 0-.397 6.075-.397 13.5m-49.287 3.289c-.919 2.084-2.627 4.815-3.794 6.067l-2.121 2.278 9.855 17.108 9.855 17.109 6.996-.234c7.93-.266 7.941-.274 13.34-10.366l3.344-6.251-4.844-5.022c-5.414-5.612-8.811-11.822-10.61-19.397L59.527 104H40.385zm100.929-.039c-1.001 6.124-6.208 15.869-11.085 20.746-2.506 2.506-4.547 4.882-4.535 5.28s2.149 4.324 4.75 8.724l4.728 8 6.814-.12c7.957-.139 6.148 1.764 18.133-19.074l8.738-15.194-2.595-2.798c-1.427-1.54-3.079-4.265-3.67-6.056L159.845 104h-19.589zm-139.579 45L0 200h100.031c79.103 0 100.132-.262 100.511-1.25.264-.687.362-22.175.219-47.75l-.261-46.5-2.158 4c-4.467 8.278-10.213 11.744-19.344 11.666l-5.502-.046-9.83 17.19c-7.68 13.432-9.595 17.518-8.758 18.69 4.852 6.796 6.49 15.194 4.159 21.324-1.337 3.517-6.841 9.507-10.465 11.389-3.994 2.073-13.188 2.084-17.163.021-4.384-2.277-9.215-7.525-10.494-11.401l-1.1-3.333h-39.69l-1.1 3.333c-1.279 3.876-6.11 9.124-10.494 11.401-3.942 2.047-13.176 2.054-17.061.013-3.954-2.078-9.112-7.544-10.439-11.062-2.454-6.511-.913-14.788 4.039-21.688.846-1.18-1.042-5.203-8.761-18.663L26.5 120.175l-6.084.024c-3.559.014-7.295-.61-9-1.502-3.704-1.939-9.01-7.45-10.298-10.697C.44 106.29.107 120.44.063 152.75m.399.25c0 26.125.129 36.813.287 23.75.158-13.062.158-34.437 0-47.5C.591 116.188.462 126.875.462 153m78.62-9.082c-6.365 10.996-6.241 10.628-4.188 12.486 1.006.91 2.635 3.442 3.619 5.626l1.791 3.97h19.78c19.649 0 19.786-.015 20.45-2.25.368-1.238 1.944-3.874 3.502-5.86l2.833-3.61-4.911-8.464-4.912-8.464-6.773 1.766c-8.501 2.217-12.05 2.216-20.577-.007l-6.804-1.775zm-25.02 14.909c-6.484 3.478-8.843 11.74-5.102 17.874 3.729 6.117 11.649 8.054 17.741 4.339 9.143-5.574 7.782-18.322-2.419-22.669-4.259-1.815-6.143-1.731-10.22.456m80 0c-6.484 3.478-8.843 11.74-5.102 17.874 5.4 8.858 18.752 8.019 22.698-1.425 2.876-6.883-.155-13.828-7.376-16.905-4.259-1.815-6.143-1.731-10.22.456"/><path fill-opacity=".964" fill-rule="evenodd" d="M0 46.64v46.639l2.628-3.873c4.715-6.948 9.604-9.638 17.795-9.793l5.992-.113 9.666-16.887 9.666-16.887-3.107-4.998c-4.222-6.792-4.344-14.145-.347-20.965 8.745-14.922 31.078-13.205 36.878 2.834L80.402 26h39.196l1.231-3.403c2.939-8.128 10.061-12.963 19.185-13.026 16.118-.11 25.869 17.446 17.324 31.193l-3.129 5.033 9.701 16.852 9.702 16.851 5.979.113c3.288.062 7.341.817 9.005 1.678 3.646 1.885 9.16 7.365 9.965 9.903 1.931 6.084 2.439-3.336 2.439-45.253V0H0zm.461.36c0 25.575.13 36.038.288 23.25s.158-33.712 0-46.5S.461 21.425.461 47m56.724-28.937c-4.346.932-7.95 4.42-9.331 9.029C45.722 34.208 52.243 42.455 60 42.455c4.838 0 8.849-2.774 11.379-7.867 1.58-3.181 1.702-4.374.767-7.496-2.017-6.73-8.222-10.475-14.961-9.029m79.434-.004c-9.2 2.676-12.196 14.305-5.34 20.727 7.27 6.81 18.166 3.703 20.756-5.918 2.372-8.808-6.557-17.386-15.416-14.809M78.818 37.76c-.925 2.057-2.442 4.895-3.37 6.306-1.653 2.513-1.59 2.736 3.022 10.674l4.711 8.107 4.16-1.557c5.539-2.075 19.79-2.071 25.341.008l4.182 1.565 4.645-8.181c3.638-6.409 4.405-8.507 3.538-9.682-.608-.825-2.105-3.627-3.327-6.226l-2.22-4.727-19.5-.013-19.5-.014zM42.921 67.079l-9.544 16.656 2.321 2.883c1.277 1.585 2.858 4.345 3.513 6.132L40.402 96h19.335l.527-3.932c.838-6.247 5.212-14.633 10.606-20.337l4.979-5.264-4.557-7.984-4.557-7.983-7.135-.039-7.136-.038zm85.766-8.583-4.581 8.004 4.386 4.5c5.335 5.473 10.142 14.377 11.057 20.479l.678 4.521h9.887c7.805 0 9.886-.295 9.886-1.4 0-.769 1.527-3.668 3.393-6.44s3.103-5.326 2.75-5.674-4.693-7.665-9.643-16.26l-9-15.629-7.116-.052-7.116-.052zm-38.693 9.381c-10.876 3.556-19.1 12.005-22.356 22.97L66.108 96h13.811l.291-8.25.29-8.25 6.108-.294 6.109-.294 2.803 10.794c1.542 5.937 3.113 11.406 3.492 12.153.404.796 1.389-1.483 2.377-5.5.928-3.772 2.358-9.221 3.177-12.109l1.49-5.25H118v17h15.038l-.613-2.75c-1.255-5.625-5.599-13.155-9.846-17.07-7.134-6.576-11.824-8.495-21.579-8.83-4.675-.161-9.628.077-11.006.527M12.095 90.574c-1.682 1.415-3.575 4.296-4.206 6.402-3.091 10.317 10.152 19.773 18.818 13.437 1.536-1.123 3.639-3.744 4.672-5.825 1.599-3.22 1.708-4.354.732-7.612C30.407 91.289 25.969 88 20 88c-3.748 0-5.54.584-7.905 2.574m160.048-.041c-6.173 5.194-6.238 13.127-.155 18.955 2.275 2.18 3.952 2.84 7.403 2.915 11.741.255 17.368-13.838 8.646-21.653-4.238-3.798-11.519-3.898-15.894-.217M88 104.833V118h-8v-14h-6.5c-6.207 0-6.5.109-6.5 2.417 0 6.763 8.116 18.117 16.436 22.993 8.361 4.899 21.654 5.145 31.096.575 8.452-4.092 15.631-13.423 17.877-23.235l.629-2.75H118v14h-8l-.102-12.25-.103-12.25-3.107 12.25L103.58 118h-4.222c-3.159 0-4.353-.441-4.739-1.75-.284-.963-1.71-6.7-3.17-12.75s-2.833-11.187-3.051-11.417c-.219-.229-.398 5.509-.398 12.75m-48.852 2.634c-.703 1.943-2.321 4.774-3.597 6.29l-2.319 2.756 9.634 16.707 9.634 16.708 7 .027 7 .028 4.674-8.225 4.675-8.225-4.814-5.09c-5.513-5.828-8.5-11.189-10.418-18.694l-1.341-5.249-9.425-.284-9.425-.283zm100.441.79c-.983 6.556-5.013 14.254-10.498 20.053l-4.981 5.267 4.588 8.135 4.589 8.135 6.878.327 6.878.326 9.77-17.012 9.77-17.012-3.291-4.316c-1.811-2.373-3.292-5.18-3.292-6.238 0-1.766-.8-1.922-9.886-1.922h-9.887zM.04 153.255 0 200.01l100.25-.255 100.25-.255.197-47c.154-36.807-.063-46.594-1-45.129l-3.198 5c-2.988 4.673-11.776 8.818-17.884 8.435l-4.884-.306-9.818 17c-9.042 15.656-9.704 17.158-8.37 19 7.843 10.835 6.167 23.552-4.049 30.724-4.856 3.409-12.509 4.586-18.011 2.77-4.822-1.591-12.056-8.772-12.953-12.858l-.689-3.136-19.67.045-19.671.046-2.5 5.204c-3.7 7.703-9.382 11.206-18.169 11.201-5.811-.003-7.227-.395-11-3.044-10.542-7.401-12.313-19.905-4.386-30.952 1.318-1.838.636-3.38-8.406-19l-9.842-17-4.477.33q-4.478.33-9.501-1.831c-5.369-2.31-8.029-4.703-10.557-9.499-1.463-2.775-1.585.511-1.622 43.755m.422.245c-.001 25.85.129 36.568.287 23.819.158-12.75.158-33.9 0-47S.462 127.65.462 153.5m78.041-8.088c-4.575 7.827-4.653 8.099-3.031 10.561.915 1.39 2.421 4.21 3.346 6.267l1.682 3.74h39l1.682-3.74c.925-2.057 2.423-4.865 3.329-6.24 1.599-2.427 1.509-2.736-3.072-10.585l-4.719-8.085-4.11 1.461c-6.971 2.478-17.299 2.697-23.761.504l-5.65-1.918zm-26.28 15.054c-6.263 5.27-6.165 13.637.23 19.534 3.303 3.046 10.553 3.352 14.719.623 3.888-2.548 6.131-8.784 4.859-13.508-1.513-5.617-5.013-8.366-11.32-8.889-4.642-.385-5.701-.106-8.488 2.24m79.999.001c-1.752 1.474-3.695 4.38-4.317 6.456-2.257 7.532 4.306 16.077 12.348 16.077 3.603 0 8.988-3.998 11.051-8.205 1.482-3.021 1.618-4.369.762-7.551-1.547-5.743-5.008-8.492-11.355-9.018-4.642-.385-5.701-.106-8.489 2.241"/></svg>