<svg xmlns="http://www.w3.org/2000/svg" width="20" height="20" fill="#000000"><path fill="url(#a)" d="M4.477 2.2c-.314.124-.952.8-.952.99 0 .086-.224.567-.315 1.107a47.225 47.225 0 0 0-.752 2.94c-.048.239-.2.782-.324 1.21a15.5 15.5 0 0 0-.324 1.238c-.038.257-.19.838-.323 1.295a20.894 20.894 0 0 0-.343 1.238c-.038.22-.19.781-.324 1.257C.191 15.723.087 16.161.182 16.4c.19.505 1.028.733 1.41.38.104-.085.59-.637 1.075-1.209.496-.58 1-1.17 1.134-1.314.4-.447.495-.552 1.4-1.6l.866-1.01.276.334c.153.19.362.429.467.534.114.114.638.704 1.18 1.333 1.144 1.295 1.4 1.485 2.039 1.485.638 0 1.095-.266 1.685-.99.286-.352.37-.337.59-.629.027-.034.037-.055.077-.114.163-.23.162-.305.933-1.047.162-.162.066-.08.305-.4.489-.42.467-.486.514-.42.343.439 3.829 4.448 4.152 4.762.39.39.515.457.82.457.466 0 .895-.362.895-.742 0-.143-.105-.6-.239-1.02-.133-.418-.238-.847-.238-.952 0-.104-.133-.6-.285-1.095-.162-.486-.286-.971-.286-1.057 0-.086-.133-.58-.295-1.095a18.384 18.384 0 0 1-.372-1.372c-.066-.39-.228-.97-.78-2.952-.115-.39-.258-.952-.315-1.238-.343-1.485-.695-2.533-.962-2.8-.58-.59-1.447-.704-2.095-.266-.219.143-1.219 1.21-2.219 2.371l-1.828 2.124-.22-.22c-.123-.114-.485-.533-.818-.923-.333-.39-.657-.762-.705-.828a11.186 11.186 0 0 1-.438-.505 8.603 8.603 0 0 0-.59-.648c-.153-.133-.14-.115-.29-.354-.208-.176-.1-.198-.263-.312-.122-.19-.111-.139-.285-.334-.074-.082-.172-.219-.362-.343-.4-.257-1.238-.361-1.638-.19Z"/><path fill="url(#b)" d="m13.975 2.377-3.843 4.419-.072.072.143.144.309.35.503.42.565.432c.244.096.736.298.76.34.032.05 1.008.225 1.028.277.021.051.75.03.812.051.05.017.569-.062.822-.103l.658-.164.545-.216c.154-.103.48-.312.555-.329.092-.02.462-.39.513-.39.041 0 .25-.267.35-.401v-.103l-.113-.442-.39-1.48-.206-.801a2.766 2.766 0 0 1-.155-.648c-.02-.287-.42-1.089-.554-1.264-.134-.174-.155-.082-.401-.318-.247-.237-.432-.134-.463-.196-.03-.061-.544 0-.647 0-.082 0-.514.233-.72.35Z"/><path fill="url(#c)" d="M1.33 11.536.018 16.281l-.005.274c0 .004 0 .007.002.01.027.059.119.179.15.246.04.087.35.266.433.343.065.062.334.032.46.01l.414-.25.558-.668.836-.941.664-.73.666-.805.856-.92.537-.635.247-.286.226-.297-.072-.098-.266-.318-.275-.371-.35-.33-.393-.224-.436-.16-.376-.072-.398-.008-.42.056-.4.143-.424.207-.383.315-.54.764Z"/><path fill="url(#d)" d="m14.868 10.841-.744.878h-.016l.016.02.067.083.123.144.22.261.247.298.4.452.283.334.288.323.267.319.467.55.75.841.488.57.431.467.365.36.195.138.16.062.179.015h.175l.174-.04.165-.078.148-.097.098-.098.077-.087.087-.21.02-.14-.04-.292-.303-1.15-.385-1.494-.185-.663-.375-1.422-.216-.714-.22-.878-.257-1.073-.278-.945-.354.39-1.12 1.269-.713.816-.684.791Z"/><defs><linearGradient id="a" x1="11.706" x2="3.482" y1="13.274" y2="3.102" gradientUnits="userSpaceOnUse"><stop stop-color="#474747"/><stop offset="1" stop-color="#7a7a7a"/></linearGradient><linearGradient id="b" x1="14.47" x2="12.089" y1="2" y2="6.937" gradientUnits="userSpaceOnUse"><stop offset=".008" stop-color="#7a7a7a"/><stop offset="1" stop-color="#242424"/></linearGradient><linearGradient id="c" x1=".397" x2="4.211" y1="15.576" y2="11.551" gradientUnits="userSpaceOnUse"><stop stop-color="#636363"/><stop offset="1" stop-color="#292929"/></linearGradient><linearGradient id="d" x1="19.521" x2="15.424" y1="17.172" y2="9.87" gradientUnits="userSpaceOnUse"><stop stop-color="#787878"/><stop offset="1" stop-color="#212121"/></linearGradient></defs></svg>