<svg width="500" height="500" viewBox="0 0 500 500" fill="#000000" xmlns="http://www.w3.org/2000/svg">
<path fill-rule="evenodd" clip-rule="evenodd" d="M205.9 4.04204C10.6762 39.338 -67.8353 277.717 68.2184 422.077C198.5 560.313 430.997 506.486 488.268 324.831C544.285 147.155 389.148 -29.0915 205.9 4.04204ZM306.575 47.5863C409.872 77.4862 478.234 187.521 456.672 289.187L454.675 298.594H324.103C195.449 298.594 193.42 298.516 186.127 293.323C163.096 276.922 133.803 291.464 133.803 319.297C133.803 345.976 162.396 360.336 184.991 345.003L194.233 338.731H317.041C384.588 338.731 439.852 339.512 439.852 340.467C439.852 362.794 379.987 421.279 336.608 441.331C193.463 507.492 23.0336 389.255 39.5677 235.252L41.384 218.319H177.904C255.54 218.319 314.422 219.277 314.422 220.541C314.422 231.968 348.311 232.876 359.913 221.761C389.522 193.393 352.435 148.831 318.423 171.91L309.182 178.181H180.23H51.2754L55.1863 168.774C94.9074 73.2592 207.594 18.9356 306.575 47.5863Z" fill="#000000"/>
</svg>
