<svg xmlns="http://www.w3.org/2000/svg" width="200" height="200" fill="#000000"><path fill-opacity=".122" fill-rule="evenodd" d="M86.585 1.107C65.402 4.196 44.944 14.262 30.106 28.895 23.901 35.015 13 49.201 13 51.157c0 .464 4.745.843 10.545.843 9.864 0 10.705.159 13 2.455 3.13 3.129 3.113 5.978-.052 9.143-2.471 2.471-2.708 2.503-16.547 2.205L5.907 65.5l-1.458 5.021C3.064 75.29 0 90.144 0 92.088c0 .511 7.049.912 16.05.912 12.396 0 16.718.346 18.985 1.518 3.911 2.023 4.83 5.846 2.239 9.319l-1.987 2.663-17.644.273C3.385 106.994 0 107.313 0 108.435c0 2.727 3.019 17.107 4.576 21.794L6.161 135H52V96.611c0-35.112.149-38.565 1.75-40.444 1.715-2.012 3.135-2.523 6.355-2.285.882.065 10.264 5.516 20.847 12.114l19.243 11.996 10.153-6.354c32.003-20.029 32.147-20.089 36.346-15.207L149 59.112V135h22c12.1 0 22.338.033 22.75.074s1.325-1.871 2.028-4.25c1.46-4.941 5.221-21.704 5.223-23.277.001-.701-5.776-.95-17.456-.753-16.46.278-17.573.178-19.501-1.75-2.918-2.918-2.652-7.421.591-9.971 2.421-1.905 3.959-2.073 18.941-2.073 10.089 0 16.548-.392 16.941-1.028.636-1.029-1.103-9.422-4.19-20.222L194.683 66h-14.167c-13.516 0-14.267-.106-16.342-2.314-2.808-2.99-2.768-6.78.102-9.476 1.987-1.866 3.649-2.174 13.093-2.424l10.818-.286-4.334-6.486C162.637 13.261 123.714-4.309 86.585 1.107M66 107.571c0 34.22-.289 37.586-3.4 39.664-.605.404-12.013.741-25.35.75-16.331.01-24.25.359-24.25 1.07 0 2.357 8.835 13.938 16.421 21.524C42.45 183.608 55.437 191.263 73.5 196.56c12.847 3.767 32.969 4.478 46.619 1.648 19.32-4.006 37.444-13.781 51.273-27.655C177.428 164.497 188 150.52 188 148.595c0-.327-11.18-.595-24.845-.595-22.729 0-24.985-.155-26.487-1.815-1.448-1.599-1.674-6.049-1.905-37.519L134.5 72.96l-6 3.698c-3.3 2.034-10.571 6.543-16.159 10.02s-10.987 6.32-12 6.318-3.191-.831-4.841-1.842-8.963-5.508-16.25-9.991L66 73.011zM.158 91c0 1.375.227 1.938.504 1.25.278-.687.278-1.812 0-2.5-.277-.687-.504-.125-.504 1.25m.037 18.5c.02 1.65.244 2.204.498 1.231s.237-2.323-.037-3-.481.119-.461 1.769"/><path fill-opacity=".375" fill-rule="evenodd" d="M88.874 1.037c-8.452.987-20.231 4.217-29.026 7.96C44.232 15.642 27.426 29.632 17.798 44l-5.026 7.5 10.838.286c9.466.25 11.126.557 13.114 2.424 2.929 2.752 2.913 6.843-.038 9.616C34.535 65.846 33.372 66 20.263 66H6.155l-1.021 3.25c-1.931 6.143-3.113 11.39-3.957 17.564L.331 93h16.88c16.589 0 16.922.042 19.334 2.455 2.973 2.973 3.158 6.842.455 9.545-1.847 1.847-3.333 2-19.475 2H.05l.553 3.25c1.808 10.622 2.687 14.753 4.042 19L6.161 134H52V57.145l2.635-2.072C56.084 53.933 57.958 53 58.8 53c.841 0 9.92 5.156 20.175 11.458 10.254 6.302 19.39 11.745 20.301 12.094 1.093.42 7.41-2.938 18.575-9.873 21.351-13.261 22.543-13.869 25.664-13.086 5.448 1.367 5.485 1.659 5.485 42.63V134l20.25.014c11.137.007 21.254.283 22.482.612 2.785.746 3.723-1.402 6.384-14.626 1.051-5.225 2.111-10.4 2.355-11.5.433-1.95.001-1.993-17.134-1.704-15.409.259-17.811.085-19.458-1.405-2.524-2.284-2.459-7.811.121-10.391 1.842-1.842 3.333-2 18.833-2 9.259 0 17.053-.219 17.321-.487.602-.603-2.544-16.561-4.34-22.013l-1.318-4-14.831-.5c-13.195-.445-14.988-.714-16.248-2.441-2.022-2.77-1.75-7.226.583-9.559 1.757-1.757 3.333-2 12.991-2h10.991l-2.933-4.75c-15.473-25.059-43.35-42.464-74.023-46.214-9.344-1.142-12.365-1.142-22.152.001M66 108.889c0 32.85-.112 35.027-1.91 37.25-1.892 2.339-2.139 2.366-26.567 2.861l-24.658.5 5.25 7.5c13.495 19.278 34.005 33.659 56.677 39.741 8.551 2.294 11.615 2.604 25.708 2.6 13.174-.003 17.356-.376 23.675-2.112 23.896-6.565 42.47-19.138 56.974-38.566 3.218-4.31 5.851-8.247 5.851-8.75 0-.524-9.768-.913-22.953-.913-25.064 0-27.296-.407-28.997-5.287-.652-1.87-1.05-15.653-1.05-36.362 0-18.343-.175-33.351-.39-33.351-.214 0-7.286 4.275-15.715 9.5S101.494 93 100.179 93s-9.237-4.275-17.602-9.5S67.059 74 66.683 74 66 89.7 66 108.889"/><path fill-opacity=".028" fill-rule="evenodd" d="M90.466 1.053c-10.399 1.01-20.632 3.636-22.216 5.7-.688.896-1.25 1.132-1.25.525 0-.805-.797-.803-2.938.005-1.616.61-2.671 1.54-2.345 2.067s.113.663-.472.301c-1.509-.932-4.364.348-3.585 1.608.372.602.171.754-.471.358-1.319-.815-8.422 2.616-11.23 5.424C44.881 18.119 43.775 19 43.5 19h-1.189c-.378 0 .303.923 1.513 2.051 1.211 1.128 2.716 1.734 3.343 1.346.703-.435.868-.262.428.448-1.044 1.69-2.267 1.424-4.506-.98L41.1 19.73l-5.08 4.253c-3.801 3.183-4.929 4.727-4.483 6.135.329 1.035.19 1.882-.309 1.882s-1.42 1.125-2.046 2.5c-.627 1.375-1.843 2.5-2.704 2.5-.93 0-1.446.701-1.272 1.728.162.95-.156 1.744-.706 1.765s-1.639.442-2.42.936c-1.075.681-1.265.495-.781-.765 1.046-2.727.133-1.915-2.756 2.451-1.498 2.263-2.238 3.814-1.645 3.448.668-.413.852-.075.484.885-.803 2.093.581 1.969 2.226-.198 1.579-2.08 1.799-3.619.392-2.75-1.102.681-1.385-.782-.352-1.815.357-.357 1.474.303 2.483 1.466l1.835 2.116.8-2.164c.788-2.129.849-2.114 3.705.866C30.124 46.695 30.803 48 30.047 48c-.729 0-1.87-.744-2.535-1.653-1.183-1.617-4.047-1.022-3.027.629.285.461-.332.615-1.371.344-1.038-.272-2.191-.005-2.56.593C20.092 48.659 22.269 49 27.5 49c11.919 0 8.037 1.971-4.309 2.187l-10.691.188 11.834.562c10.174.484 12.033.835 13.25 2.504.779 1.068 1.453 2.418 1.499 3 .046.583.196 2.071.333 3.309s.052 2.051-.19 1.81c-.241-.242-1.376.433-2.521 1.5-1.862 1.735-3.614 1.94-16.56 1.94-7.963 0-14.274.205-14.024.455s6.627.52 14.171.601 13.965.551 14.271 1.045c.305.495 1.878.899 3.496.899S41 69.45 41 70s-.9 1-2 1-2 .45-2 1 .627 1 1.393 1 1.652.675 1.969 1.5c.316.825 1.264 1.5 2.107 1.5 1.522 0 1.918 1.45 1.57 5.75-.221 2.728 2.669 3.114 3.742.5.504-1.225.899-.401 1.319 2.75.49 3.68.668 2.861.973-4.5.208-5.025.618 1.822.927 15.5l.554 24.5.223-31.711c.218-30.999.271-31.756 2.369-33.71l2.146-1.999-2.646.479c-1.587.288-2.646.027-2.646-.653 0-1.578 8.463-.22 12.977 2.082 1.937.989 3.85 1.857 4.249 1.93.4.074 1.836 1.162 3.193 2.419 1.624 1.505 3.509 2.213 5.521 2.074 1.68-.116 2.816.174 2.525.645s-1.302.603-2.247.294c-.945-.31-.228.395 1.592 1.565 1.821 1.171 3.702 1.887 4.181 1.591s1.196-.012 1.594.632c.452.731.291.903-.43.457-.635-.392-1.155-.506-1.155-.253C83 66.809 89.771 71 90.526 71c.226 0 .158-.787-.152-1.75-.459-1.427-.373-1.482.466-.298.565.799.818 1.792.561 2.208-.496.803 5.581 4.393 6.849 4.046.412-.113.757.356.765 1.044q.016 1.25.985-.25c.789-1.22.972-1.238.985-.095.012 1.162.318 1.141 1.765-.12.963-.838 2.233-1.695 2.824-1.905 3.536-1.252 23.197-14.441 22.709-15.232-.326-.526-.08-.641.545-.254 1.098.678 8.582-3.649 7.752-4.483-.225-.226 1.361-.535 3.525-.687 3.081-.215 4.473.263 6.415 2.205l2.48 2.48v76.017l22.25.287c13.788.178 22.518-.087 22.954-.697 1.01-1.413 4.51-15.181 5.261-20.7l.638-4.683-17.027-.317c-15.975-.296-17.161-.451-19.218-2.51-2.961-2.966-2.92-8.028.086-10.462 2.013-1.629 4.243-1.844 19.167-1.844 15.423 0 16.888-.152 16.876-1.75-.02-2.639-3.633-19.362-4.861-22.5L194.05 66h-14.37c-13.131 0-14.527-.174-16.192-2.013-1.002-1.107-1.821-3.351-1.821-4.987s.819-3.88 1.821-4.987c1.615-1.784 3.069-2.013 12.774-2.013 9.388 0 10.869-.217 10.369-1.52-1.622-4.226-9.874-14.811-16.745-21.48-20.892-20.277-50.638-30.745-79.42-27.947M38.51 24.016c.346.559 1.047.758 1.559.441C41.456 23.6 41.198 23 39.441 23c-.857 0-1.276.457-.931 1.016m-4.659 4.235c.757.757 1.486.812 2.137.161s.259-1.043-1.149-1.149c-1.61-.121-1.854.122-.988.988M26 33.5c-1.866 1.925-2.854 3.5-2.196 3.5S25 36.564 25 36.031s.749-.681 1.664-.33c1.199.461 1.438.274.856-.668-.525-.85.031-1.952 1.586-3.148 1.317-1.012 1.92-1.851 1.34-1.863S27.866 31.575 26 33.5m3.174 4.654C27.895 39.719 27.038 41 27.271 41c1.069 0 4.889-4.005 4.578-4.8-.192-.491-1.396.388-2.675 1.954m6.925 12.096c-1.377 2.242-1.375 2.243.759.345C39.15 48.557 39.446 48 38.241 48c-.418 0-1.382 1.013-2.142 2.25m26.714 2.433c.721.289 1.584.253 1.916-.079s-.258-.568-1.312-.525c-1.165.048-1.402.285-.604.604M38.638 54.5c.317.825.964 1.5 1.438 1.5.473 0 .602-.675.286-1.5-.317-.825-.964-1.5-1.438-1.5-.473 0-.602.675-.286 1.5M50 57.5c0 .825.177 1.5.393 1.5s.652-.675.969-1.5.139-1.5-.393-1.5c-.533 0-.969.675-.969 1.5m-1 4.441c0 1.132.45 2.059 1 2.059s1-.648 1-1.441-.45-1.719-1-2.059-1 .309-1 1.441M86.031 64.5c0 .55.436 1.675.969 2.5s.969 1.05.969.5-.436-1.675-.969-2.5-.969-1.05-.969-.5m-49.59 1.968c-1.067.808-1.415 1.483-.773 1.5 1.9.052 4.332-1.113 4.332-2.075 0-1.311-1.355-1.092-3.559.575M41 65.893c0 .491.649 1.142 1.442 1.446 2.099.806 4.782 5.284 5.69 9.497.669 3.104.738 2.83.456-1.794-.196-3.192-.849-5.629-1.575-5.871-.682-.227-1.964-1.259-2.849-2.292C42.45 64.877 41 64.425 41 65.893M5 69.711c0 .574.787 1.662 1.75 2.417 1.619 1.269 1.64 1.222.283-.628-.807-1.1-1.594-2.187-1.75-2.417S5 69.137 5 69.711m14.75.021c2.337.211 6.162.211 8.5 0 2.337-.21.425-.383-4.25-.383s-6.588.173-4.25.383m113.469 5.018c-.12.688-.577 1.138-1.015 1-1.308-.411-17.154 9.522-16.606 10.409.278.45-.109.582-.861.294-.752-.289-2.575.595-4.052 1.963S108 90.649 108 90.337s-1.014.098-2.254.91c-1.988 1.302-10.355 3.029-9.231 1.904.572-.571-9.661-7.092-11.182-7.125-.641-.014-1.316-.409-1.5-.877C83.485 84.26 75.467 79 74.461 79c-.319 0-.301.45.039 1s-.103 1-.985 1c-.926 0-1.479-.677-1.309-1.605.162-.882-.669-2.254-1.846-3.049l-2.14-1.444.041 20.549c.023 11.302.424 20.549.89 20.549.467 0 .916-3.713.997-8.25l.149-8.25.717 10.128C71.735 119.812 72.282 122 74.107 122c1.579 0 5.827 5.322 5.861 7.344.018 1.014.932 2.079 2.032 2.366 1.1.288 2 1.065 2 1.726 0 .662 1.8 3.615 4 6.564s4 5.902 4 6.564.9 1.438 2 1.726c1.163.304 2 1.364 2 2.532 0 1.156 1.731 3.381 4.076 5.238 2.812 2.227 3.694 3.464 2.844 3.99-.898.554-.375 1.926 1.924 5.052 1.736 2.361 3.156 4.826 3.156 5.478s.9 1.422 2 1.71c1.163.304 2 1.364 2 2.532 0 1.15 1.711 3.365 4 5.178 2.2 1.742 4 3.84 4 4.661s1.39 2.883 3.09 4.583l3.09 3.089-2.34 1.349c-2.177 1.254-2.069 1.302 1.555.695 2.791-.469 3.695-.331 3.191.485-.387.626-.227 1.138.355 1.138s1.059-.477 1.059-1.059.409-.806.91-.497c1.403.867 4.162-.519 3.42-1.719-.413-.668-.038-.827 1.006-.426 2.008.77 4.862-.17 4.126-1.36-.289-.468-1.299-.575-2.244-.236s-1.422.285-1.06-.119 1.262-.825 2-.937 1.899-.551 2.581-.977c.848-.53 1.05-.285.643.778-.922 2.402.564 1.906 8.639-2.887 7.687-4.562 14.835-10.145 11.761-9.185-.945.295-1.964.138-2.265-.349s.74-.722 2.313-.523c2.401.304 3.869-.656 9.137-5.97 3.611-3.644 5.98-6.81 5.58-7.458-.4-.646-.132-1.009.629-.851.728.151 1.2-.321 1.049-1.049-.151-.729.129-1.075.622-.771.763.472 8.153-9.399 8.153-10.89 0-.283-10.75-.515-23.889-.515-22.026 0-24.074-.149-26.25-1.911l-2.361-1.91-.531-35.84c-.291-19.711-.629-35.276-.75-34.589M6.079 76.583c.048 1.165.285 1.402.604.605.289-.722.253-1.585-.079-1.917s-.568.258-.525 1.312M66.402 91c0 8.525.154 12.013.341 7.75s.188-11.237 0-15.5c-.187-4.263-.341-.775-.341 7.75m3.331-12.876c.679.684 1.486.991 1.793.683.308-.308-.247-.867-1.233-1.243-1.425-.542-1.54-.428-.56.56M28 80.059c0 .582.45.781 1 .441s1-.816 1-1.059S29.55 79 29 79s-1 .477-1 1.059M70.349 88c0 4.675.173 6.587.383 4.25.211-2.338.211-6.163 0-8.5-.21-2.338-.383-.425-.383 4.25M2.116 82.168c-.064.918-.375 2.493-.692 3.5-.545 1.736-.515 1.739.568.051.628-.98.939-2.555.691-3.5-.406-1.549-.462-1.554-.567-.051M76 82.441c0 .857.45 1.559 1 1.559s1-.423 1-.941-.45-1.219-1-1.559-1 .084-1 .941M78 86c0 .55.423 1 .941 1s1.219-.45 1.559-1-.084-1-.941-1S78 85.45 78 86M1.079 89.583c.048 1.165.285 1.402.604.605.289-.722.253-1.585-.079-1.917s-.568.258-.525 1.312m35.671-.921c.688.278 1.813.278 2.5 0 .688-.277.125-.504-1.25-.504s-1.937.227-1.25.504m-28.5 4.054c1.513.229 3.988.229 5.5 0s.275-.416-2.75-.416-4.262.187-2.75.416m16.5-.054c.688.278 1.813.278 2.5 0 .688-.277.125-.504-1.25-.504s-1.937.227-1.25.504m8.25-.269c0 .216.675.652 1.5.969s1.5.139 1.5-.393c0-.533-.675-.969-1.5-.969s-1.5.177-1.5.393m4.638 3.107c.317.825 1.033 1.5 1.591 1.5.586 0 .489-.635-.229-1.5-.685-.825-1.401-1.5-1.591-1.5s-.087.675.229 1.5M49.32 106c0 3.575.182 5.037.403 3.25s.222-4.713 0-6.5c-.221-1.787-.403-.325-.403 3.25m-12.123-1.053c-1.519 2.056-1.832 3.161-1.033 3.654.68.421.873.267.474-.378-.369-.597.124-1.679 1.095-2.405.972-.725 1.879-1.88 2.017-2.568.379-1.894-.165-1.533-2.553 1.697M66.158 110c0 1.375.227 1.938.504 1.25.278-.687.278-1.812 0-2.5-.277-.687-.504-.125-.504 1.25m10.898 5.559c1.359 1.447 2.567 2.072 2.779 1.437.205-.617-.461-1.755-1.481-2.528-3.065-2.322-3.87-1.646-1.298 1.091M49.272 120c0 2.475.195 3.487.434 2.25.238-1.237.238-3.263 0-4.5-.239-1.237-.434-.225-.434 2.25m16.893 9.5c-.074 5.5.196 10.52.6 11.156.404.635.606-2.74.449-7.5-.434-13.175-.899-14.794-1.049-3.656m2.954-3.45.119 6.45.974-5.357c.683-3.753.647-5.684-.119-6.45-.791-.791-1.06.69-.974 5.357M80.6 121.4c.305.795 1.176 1.684 1.935 1.975s2.539 2.366 3.956 4.611c1.418 2.245 3.26 4.854 4.095 5.798.834.944 2.379 2.841 3.432 4.216 1.845 2.408 1.917 2.422 1.949.366.019-1.248-1.627-3.633-3.967-5.747-2.2-1.988-4-4.485-4-5.549s-.9-2.221-2-2.57-2-1.039-2-1.532-.89-1.374-1.977-1.956c-1.587-.849-1.868-.772-1.423.388M51.158 126c0 1.375.227 1.938.504 1.25.278-.687.278-1.812 0-2.5-.277-.687-.504-.125-.504 1.25m-6.889 7.693c.973.254 2.323.237 3-.037s-.119-.481-1.769-.461-2.204.244-1.231.498m17.845 14.323c-3.075 2.71-3.184 2.984-1.19 2.984 1.206 0 1.938-.414 1.625-.92s.622-1.856 2.076-3 2.247-2.073 1.76-2.064-2.408 1.359-4.271 3m38.942-.457c1.359 1.447 2.567 2.072 2.779 1.437.205-.617-.461-1.755-1.481-2.528-3.065-2.322-3.87-1.646-1.298 1.091m31.277-1.059c0 .825.375 1.5.834 1.5s.833-.675.833-1.5-.375-1.5-.833-1.5c-.459 0-.834.675-.834 1.5m-118.52 3.183c.721.289 1.584.253 1.916-.079s-.258-.568-1.312-.525c-1.165.048-1.402.285-.604.604m22.937-.021c.688.278 1.813.278 2.5 0 .688-.277.125-.504-1.25-.504s-1.937.227-1.25.504m13.5.054c1.513.229 3.987.229 5.5 0s.275-.416-2.75-.416-4.263.187-2.75.416m54.332 3.434c.453.743 1.874 2.183 3.156 3.2 1.48 1.174 2.129 2.494 1.775 3.609-.307.967.127 2.327.964 3.022 1.315 1.092 1.523.779 1.523-2.291 0-2.677-.494-3.712-2-4.19-1.1-.349-2-1.039-2-1.532s-.954-1.408-2.121-2.033c-1.718-.919-1.964-.879-1.297.215M21.1 160.705c.729 1.212 1.54 1.989 1.803 1.726s-.333-1.255-1.324-2.205c-1.722-1.649-1.744-1.628-.479.479M25.5 166c.995 1.1 2.035 2 2.31 2s-.315-.9-1.31-2-2.035-2-2.31-2 .315.9 1.31 2m81-1c.34.55.816 1 1.059 1s.441-.45.441-1-.477-1-1.059-1-.781.45-.441 1m62.156 4.545c.304.794.956 1.195 1.449.89 1.24-.766 1.126-1.132-.554-1.777q-1.45-.557-.895.887m-51.6 2.014c1.359 1.447 2.567 2.072 2.779 1.437.205-.617-.461-1.755-1.481-2.528-3.065-2.322-3.87-1.646-1.298 1.091M36 176.378c0 .207.788.995 1.75 1.75 1.586 1.243 1.621 1.208.378-.378-1.307-1.666-2.128-2.195-2.128-1.372m84.6 1.022c.305.795 1.192 1.69 1.972 1.989.779.299 2.317 2.021 3.419 3.827l2.002 3.284.003-2.683c.003-1.806-.649-2.89-1.996-3.317-1.1-.349-2-1.039-2-1.532s-.89-1.374-1.977-1.956c-1.587-.849-1.868-.772-1.423.388m35.278 1.504c.816.516 1.062 1.428.603 2.234-.599 1.054-.489 1.099.485.199 1.389-1.282.597-3.346-1.275-3.322-.783.01-.719.315.187.889M40 179.378c0 .207.788.995 1.75 1.75 1.586 1.243 1.621 1.208.378-.378-1.307-1.666-2.128-2.195-2.128-1.372m112.491 2.447c.271.27-.059 1.207-.732 2.083-.75.975-.36.854 1.008-.313 2.649-2.26 2.65-2.262.733-2.262-.825 0-1.279.221-1.009.492m-7.878 3.358c.289.467.944.591 1.456.274 1.308-.808 1.161-1.124-.525-1.124-.801 0-1.22.383-.931.85M136 186c0 .55.9 1 2 1s2-.45 2-1-.9-1-2-1-2 .45-2 1m11.507-.011c-.35.566.051.734.941.393 1.732-.665 2.049-1.382.611-1.382-.518 0-1.216.445-1.552.989m-3.507 2.07c0 .582.45.781 1 .441s1-.816 1-1.059-.45-.441-1-.441-1 .477-1 1.059m-15.921 3.524c.048 1.165.285 1.402.604.605.289-.722.253-1.585-.079-1.917s-.568.258-.525 1.312M64 193c.825.533 1.95.969 2.5.969s.325-.436-.5-.969-1.95-.969-2.5-.969-.325.436.5.969m66.603.167c.283.458.938.833 1.456.833s.941-.375.941-.833c0-.459-.655-.834-1.456-.834s-1.224.375-.941.834m-13.853 1.495c.688.278 1.813.278 2.5 0 .688-.277.125-.504-1.25-.504s-1.937.227-1.25.504M120 197c0 .55.45 1 1 1s1-.45 1-1-.45-1-1-1-1 .45-1 1m-35 1c-.901.582-1.025.975-.309.985.655.008 1.469-.435 1.809-.985.767-1.242.421-1.242-1.5 0m28.5 0c.34.55 1.379.993 2.309.985 1.457-.014 1.484-.15.191-.985-1.958-1.266-3.282-1.266-2.5 0m-4.687.683c.721.289 1.584.253 1.916-.079s-.258-.568-1.312-.525c-1.165.048-1.402.285-.604.604"/><path fill-opacity=".118" fill-rule="evenodd" d="M97.75.749C96.787.968 96 1.564 96 2.073S95.523 3 94.941 3s-.781-.45-.441-1c.764-1.236-4.514-1.223-10 .025l-4 .909 4.371-.388c3.34-.297 4.095-.112 3.199.783-.696.696-4.228 1.154-8.703 1.129-4.142-.023-6.707.283-5.699.68 1.007.397 1.302.753.653.792C72.651 6.029 70 8.877 70 10.571c0 .824.952 1.416 2.25 1.399 2.076-.028 2.108-.113.416-1.097-1.779-1.035-1.779-1.104 0-2.321 1.009-.689 3.182-1.582 4.83-1.984l2.996-.73-2.496 2.189-2.496 2.189 2.25 1.514c1.237.833 2.25 2.321 2.25 3.308s1.8 3.22 4 4.962 4 4.03 4 5.084C88 26.666 87.272 27 83.829 27c-2.427 0-4.914-.672-5.946-1.606-1.647-1.491-1.763-1.455-1.616.5.098 1.297.846 2.106 1.946 2.106 1.056 0 1.787.738 1.787 1.804 0 2.141 6.643 8.886 7.706 7.823.648-.648-.831-2.091-2.933-2.861-.4-.146-1.008-1.671-1.35-3.388-.582-2.922-.413-3.152 2.629-3.599 3.939-.578 7.081 1.996 6.262 5.129-.407 1.556.104 2.3 2.099 3.059 1.45.551 3.546 2.544 4.658 4.428 1.112 1.885 2.675 3.677 3.475 3.984s1.447 1.36 1.439 2.34 1.904 3.455 4.25 5.501c3.305 2.883 3.832 3.727 2.344 3.75-1.057.017-2.716-.689-3.687-1.568-1.83-1.656-3.903-1.171-3.877.907.01.716.403.592.985-.309q.969-1.5.985-.25c.008.688.638 1.25 1.398 1.25 1.612 0 2.859 3.732 1.523 4.558-1.471.909-1.034 3.442.594 3.442.848 0 1.5-.895 1.5-2.059 0-1.132.45-1.781 1-1.441s1 1.518 1 2.618c0 1.257.429 1.735 1.155 1.287.689-.426.884-.276.483.371-.369.597-.206 1.373.362 1.724s.745 1.104.393 1.673.541.261 1.984-.684S119 65.345 119 64.826s.445-.669.989-.333c.593.367.718-.109.312-1.191-.579-1.546-.449-1.618.919-.506 1.361 1.105 2.101.774 5.039-2.25 1.893-1.95 3.821-3.546 4.283-3.546s-.033.708-1.101 1.574c-2.407 1.952-.324.904 5.505-2.771 5.446-3.434 8.411-3.536 11.548-.4 1.322 1.322 2.539 1.995 2.705 1.496s.233 16.756.15 38.346.081 38.355.365 37.255c.285-1.1 1.028-2.331 1.652-2.735.813-.526.78-.739-.116-.75-.813-.01-1.25-1.59-1.25-4.515 0-2.475.45-4.5 1-4.5s1 .648 1 1.441.346 1.655.768 1.916.601-1.287.395-3.441c-.402-4.214 1.051-5.253 2.794-1.997.746 1.394.691 2.032-.201 2.329-.777.259-.223 1.342 1.508 2.945 2.64 2.447 3.591 4.807 1.936 4.807-.44 0-1.34-.54-2-1.2-.933-.933-1.2-.794-1.2.628 0 1.542.587 1.743 3.75 1.286 2.063-.298 4.65-.162 5.75.302 1.421.599.335.864-3.75.914-4.585.056-5.75.395-5.75 1.677 0 .933-.563 1.391-1.341 1.093-.737-.283-1.975-.103-2.75.399-.874.568 6.263.883 18.81.83 11.121-.047 20.713.22 21.317.593 1.345.831 1.267.932 3.301-4.292 1.853-4.758 2.217-7.635.663-5.23-.828 1.282-.972 1.246-.985-.25-.008-.963.602-1.75 1.357-1.75 1.499 0 3.01-6.841 2.059-9.319-.312-.813-.087-1.776.501-2.139.587-.363 1.068-1.329 1.068-2.148 0-1.268-2.417-1.444-16.406-1.191-9.024.164-16.176-.075-15.894-.53s-.883-.607-2.589-.338c-3.217.507-5.018-.656-2.973-1.92.661-.409.905-.294.56.264-.335.543.003.988.753.988.998 0 .836-.712-.606-2.663-1.397-1.889-1.772-3.446-1.293-5.357 1.283-5.112 3.343-5.647 21.732-5.647h16.839l-.656-4.75c-.864-6.256-3.061-16.057-4.371-19.5L194.05 66l-14.275-.032c-10.946-.024-14.726-.373-16.21-1.495-2.152-1.628-2.723-4.824-1.466-8.193.616-1.65.388-2.478-.885-3.22-.943-.55-1.242-1.013-.664-1.03.577-.016 1.539.459 2.137 1.057.783.783 1.275.783 1.759 0 .418-.676 4.813-1.087 11.613-1.087 6.018 0 10.941-.379 10.941-.843 0-1.965-10.786-15.973-16.887-21.93-7.388-7.215-23.842-18.545-25.827-17.783-.707.271-1.286.141-1.286-.29 0-1.179-6.248-3.9-8.255-3.596-.965.147-1.501-.144-1.191-.646s-.138-.968-.995-1.037c-2.362-.189-2.967-.347-4.094-1.066-2.976-1.901-26.519-5.012-30.715-4.06M68.667 5.667C68.3 6.033 68 6.798 68 7.367c0 .626.466.567 1.183-.15.651-.651.951-1.416.667-1.7s-.817-.217-1.183.15M65.5 7c-.34.55-.141 1 .441 1S67 7.55 67 7s-.198-1-.441-1-.719.45-1.059 1m-6.148 2.285c-1.84 1.041-1.944 1.403-.724 2.529.784.723 2.65 1.127 4.148.9L65.5 12.3l-2.833-.15c-1.793-.095-2.672-.609-2.393-1.4.243-.687 1.18-1.187 2.084-1.111.903.076 1.642-.261 1.642-.75 0-1.23-2.086-1.052-4.648.396M136 10.833c0 .459.655.834 1.456.834s1.224-.375.941-.834c-.667-1.08-2.397-1.08-2.397 0m-83.778 2.009c-.914.58-.487 1.15 1.5 2.001 2.398 1.027 2.541 1.003 1.044-.176-.954-.75-1.442-1.658-1.084-2.016.897-.896.086-.79-1.46.191M56.5 13c-.34.55-.141 1 .441 1S58 13.55 58 13s-.198-1-.441-1-.719.45-1.059 1M69 15c0 .55.477 1 1.059 1s.781-.45.441-1-.816-1-1.059-1-.441.45-.441 1m6.505.985c-.943 2.971.354 6.015 2.562 6.015C79.13 22 80 22.45 80 23s1.013.987 2.25.971c2.134-.028 2.088-.177-.876-2.876-1.72-1.565-3.745-3.093-4.5-3.394-1.155-.461-1.157-.701-.017-1.5.875-.613.989-1.178.322-1.591-.569-.351-1.323.267-1.674 1.375m-29.902.848c-.283.459.12.834.897.834s1.18-.375.897-.834S46.71 16 46.5 16s-.614.375-.897.833m-1.096 3.156c-.35.566.051.734.941.393 1.732-.665 2.049-1.382.611-1.382-.518 0-1.216.445-1.552.989m-6.102 2.261L36.5 24.5l2.25-1.905C40.864 20.805 41.455 20 40.655 20c-.19 0-1.202 1.012-2.25 2.25M72 20.393c0 .216.675.652 1.5.969s1.5.139 1.5-.393c0-.533-.675-.969-1.5-.969s-1.5.177-1.5.393M32.924 26.72c-1.333 1.496-1.656 2.132-.718 1.414.939-.719 2.149-1.033 2.69-.698s.914-.302.831-1.414S35.524 24 35.462 24c-.063 0-1.204 1.224-2.538 2.72m-6.519 6.53L24.5 35.5l2.25-1.905c1.238-1.048 2.25-2.06 2.25-2.25 0-.8-.805-.209-2.595 1.905m61.068-1.206C86.711 33.277 89.58 38 91.09 38c.59 0 .768.872.41 2-.939 2.958.363 6 2.567 6C95.13 46 96 46.45 96 47s1.428 1 3.174 1h3.175l-2.281-2.428c-1.255-1.335-2.914-2.185-3.687-1.888-1.473.565-4.381-1.298-4.381-2.806 0-.483 1.013-.896 2.25-.918 2.111-.038 2.078-.133-.53-1.548-1.528-.829-2.534-1.903-2.235-2.387.299-.485-.395-1.179-1.543-1.543-1.257-.399-1.872-1.223-1.546-2.072.631-1.643.017-1.887-.923-.366M89.5 45c.34.55.816 1 1.059 1s.441-.45.441-1-.477-1-1.059-1-.781.45-.441 1m-72.957.931c-.317.512-.049 1.256.595 1.654q1.177.729.352-.6c-.599-.97-.358-1.149.898-.666 1.019.391 1.468.257 1.105-.33-.77-1.246-2.199-1.274-2.95-.058m75.724 3.963c.126 1.67.822 2.106 3.362 2.106 1.763 0 3.431.563 3.709 1.25.301.747.536.545.583-.5.052-1.154-.661-1.75-2.092-1.75-1.194 0-2.97-.723-3.946-1.606-1.647-1.491-1.763-1.455-1.616.5m-73.98 1.846c3.182.199 8.132.197 11-.004 2.867-.201.263-.364-5.787-.362s-8.396.167-5.213.366m117.223 1.276c.346.559 1.047.758 1.559.441 1.387-.857 1.129-1.457-.628-1.457-.857 0-1.276.457-.931 1.016M64 54.35c0 .231 1.18 1.193 2.623 2.139s2.318 1.224 1.944.62C67.854 55.955 64 53.626 64 54.35m-12.376 2.189c-.343.893-.595 2.15-.561 2.793.035.642.495.09 1.022-1.227s.779-2.574.56-2.793-.679.333-1.021 1.227M98 56.826c0 1.683 5.091 5.644 5.803 4.513.383-.609 1.571-1.273 2.638-1.476 1.699-.322 1.612-.518-.702-1.572s-2.565-1.001-2.017.426c.477 1.244.21 1.471-1.13.957-.966-.371-1.944-.674-2.174-.674s-.418-.675-.418-1.5-.45-1.5-1-1.5-1 .372-1 .826m-26.541 1.241c-.363.586-.445 1.281-.183 1.543s.743-.218 1.069-1.067c.676-1.762.1-2.072-.886-.476m51.741.133c-.66.66-1.171 2.122-1.137 3.25.06 1.934.115 1.923.968-.2.498-1.237 1.369-2.25 1.937-2.25.567 0 1.032-.45 1.032-1 0-1.356-1.34-1.26-2.8.2M77.732 61c-.942 1.1-1.529 2-1.304 2s1.075.256 1.889.568c1.089.418 1.441-.11 1.331-1.999-.081-1.412-.16-2.568-.176-2.568-.015-.001-.798.899-1.74 1.999m72.347 1.583c.048 1.165.285 1.402.604.605.289-.722.253-1.585-.079-1.917s-.568.258-.525 1.312M51.286 68.5c.008 2.75.202 3.756.432 2.236s.223-3.77-.014-5-.425.014-.418 2.764m34.947-2.501c-.928 1.486-.92 2.065.037 2.615.677.389.896.338.489-.112s-.231-1.433.392-2.184c.624-.752.94-1.56.704-1.797-.237-.236-.967.429-1.622 1.478M104 65.5c0 .825.499 1.5 1.109 1.5.676 0 .953 1.347.707 3.448l-.402 3.447 3.752-2.109c2.064-1.16 3.517-2.489 3.23-2.955-.288-.465-1.202-.168-2.031.661-2.026 2.026-3.588 1.907-3.178-.242.183-.963 1.341-1.894 2.573-2.07s2.24-.738 2.24-1.25c0-1.423-3.996-1.107-4.032.32-.019.763-.549.569-1.36-.5-1.629-2.146-2.608-2.24-2.608-.25m10.694-.861c-1.065 1.065.27 2.312 1.832 1.713.805-.309 1.214-.964.909-1.457-.648-1.049-1.837-1.16-2.741-.256M7.813 66.683c.721.289 1.584.253 1.916-.079s-.258-.568-1.312-.525c-1.165.048-1.402.285-.604.604m8.937-.021c.688.278 1.813.278 2.5 0 .688-.277.125-.504-1.25-.504s-1.937.227-1.25.504m15.25.397c0 .582.45.781 1 .441s1-.816 1-1.059S33.55 66 33 66s-1 .477-1 1.059m57.5 3.451c3.479 2.847 5.529 3.728 4.908 2.112-.3-.784-1.303-1.695-2.227-2.024-.925-.33-2.356-.852-3.181-1.161s-.6.174.5 1.073m6.5 2.931c0 .793.408 1.693.907 2.001.498.309.671-.34.383-1.441-.611-2.335-1.29-2.63-1.29-.56M133 75c0 .55-.338.921-.75.825-1.244-.289-6.25 2.43-6.25 3.395 0 .494.45.62 1 .28s1 .139 1 1.063c0 1.398-.259 1.467-1.534.409-1.244-1.033-2-1.024-4 .046-1.356.726-2.466 1.698-2.466 2.159 0 .462.88.291 1.955-.381 2.493-1.557 4.126-.06 1.793 1.646-1.9 1.39-2.354 5.065-.748 6.058.55.34 1-.309 1-1.441s.381-2.059.847-2.059 1.348-1.013 1.959-2.25c.921-1.863 1.008-1.476.501 2.25-.336 2.475-1.046 4.785-1.579 5.133-.55.36-.286 1.015.613 1.518 1.239.693 1.652 3.047 1.911 10.867.219 6.629.4 4.188.539-7.268.115-9.487.595-17.25 1.066-17.25s.924 7.537 1.006 16.75c.19 21.37 1.431 28.484 2.137 12.25.57-13.115-.134-30.037-1.25-30.015-2.497.049-2.814-.073-2.308-.891.308-.498 1.46-.671 2.559-.383 1.534.401 1.999.03 1.999-1.594 0-1.165-.225-2.117-.5-2.117s-.5.45-.5 1m-64 1.393c0 .216.698.661 1.552.989.89.341 1.291.173.941-.393-.587-.951-2.493-1.406-2.493-.596m7 4.056c0 .275 1.35 1.198 3 2.051s3 1.326 3 1.051-1.35-1.198-3-2.051-3-1.326-3-1.051m39.028 5.1C113.119 86.897 112.08 88 112.719 88c.64 0 1.404-.39 1.698-.866s1.784-.629 3.309-.339c2.379.452 2.597.313 1.533-.976-.683-.827-.946-1.799-.584-2.161 1.32-1.32-.257-.502-3.647 1.891m-31.386.961c.288.75 1.089 1.147 1.781.881.691-.265 1.834.213 2.539 1.063.706.851 1.733 1.546 2.283 1.546 1.821 0-1.286-2.819-4.244-3.85-2.31-.805-2.778-.734-2.359.36m25.773 2.628q-.729 1.177.6.352c.957-.591 1.151-.365.699.814-.345.898-.29 1.84.122 2.095.412.254.814-.398.893-1.449.173-2.295-1.302-3.45-2.314-1.812M106 91c-.901.582-1.025.975-.309.985.655.008 1.469-.435 1.809-.985.767-1.242.421-1.242-1.5 0m-9.73 3.069c-.173 2.297.298 2.499 1.079.463.31-.807.227-1.676-.185-1.931-.412-.254-.814.406-.894 1.468m65.43-.408c.28.73.912 1.079 1.405.774 1.369-.846 1.065-2.102-.51-2.102-.772 0-1.175.598-.895 1.328M160 104c0 .55.477 1 1.059 1s.781-.45.441-1-.816-1-1.059-1-.441.45-.441 1m-108.728 4c0 2.475.195 3.487.434 2.25.238-1.237.238-3.263 0-4.5-.239-1.237-.434-.225-.434 2.25m98.828 1.75c-.057 3.566.329 6.25.9 6.25 1.165 0 1.165-6.363 0-10-.595-1.858-.826-.895-.9 3.75m-17.848 21.75c.011 2.2.216 2.982.455 1.738s.23-3.044-.02-4-.446.062-.435 2.262M169 129c-1.213.784-1.069.972.75.985 1.238.008 2.25-.435 2.25-.985 0-1.253-1.061-1.253-3 0m-5.25 3.732c2.338.211 6.162.211 8.5 0 2.338-.21.425-.383-4.25-.383s-6.588.173-4.25.383m-31.634 9.651c-.064 1.035.853 2.723 2.037 3.75 2.759 2.392 3.171 2.359 1.615-.133-.687-1.1-1.558-2-1.935-2-.378 0-.892-.787-1.144-1.75-.407-1.559-.47-1.545-.573.133m6.217 7.117c0 .825.655 1.5 1.456 1.5 1.181 0 1.221-.283.211-1.5-.685-.825-1.34-1.5-1.456-1.5s-.211.675-.211 1.5m3.784-.05c.247.248 9.997.542 21.667.653 11.862.113 21.216.602 21.216 1.109 0 .498.45.628 1 .288 3.273-2.023-.863-2.5-21.667-2.5-12.466 0-22.464.203-22.216.45M164.5 152c-.34.55-.403 1-.141 1 .263 0 1.131.251 1.93.557s1.722-.143 2.051-1c.677-1.765-2.783-2.267-3.84-.557m6.911 1.5c-.348 1.386-1.359 2.507-2.269 2.515-1.424.014-1.443.142-.142.968.955.607 1.621.601 1.833-.015.184-.532 1.026-.968 1.873-.968 1.254 0 1.309-.277.294-1.5-1.04-1.253-.896-1.5.878-1.5 1.167 0 2.122-.45 2.122-1 0-2.236-3.978-.936-4.589 1.5m9.515-1.089c.701.844.792 1.645.227 1.994-.519.321-1.201-.089-1.517-.911S178.595 152 178.023 152c-.65 0-.572.75.209 2 .687 1.1 1.842 2 2.568 2 .742 0 1.006.505.605 1.155-.456.737-.273.882.507.399.672-.415.973-1.002.67-1.305s.23-1.192 1.184-1.974c.953-.783 1.095-1.091.314-.685-1.039.54-1.248.291-.781-.926.47-1.225.087-1.664-1.453-1.664-1.687 0-1.864.273-.92 1.411m-4.756 5.042c.237 3.517 2.182 5.404 3.452 3.349.392-.633.236-.832-.363-.462-.577.357-1.299-.001-1.603-.795q-.555-1.444.895-.887c2.116.812 1.77-.939-.584-2.954-1.991-1.705-2.027-1.669-1.797 1.749m-4.17 4.078c0 .808.675 1.469 1.5 1.469s1.5-.402 1.5-.893-.675-1.152-1.5-1.469c-.914-.35-1.5-.001-1.5.893m4 2.361c0 .674-.45.948-1 .608s-1 .18-1 1.155c0 1.665.103 1.67 1.69.083.93-.93 1.38-2.001 1-2.381s-.69-.139-.69.535m-11.019 5.631c-1.057 1.273-.995 1.42.378.893.902-.347 1.641-1.032 1.641-1.523 0-1.286-.579-1.105-2.019.63m4.246 1.559c-1.734 1.695-3.614 2.797-4.178 2.448-.578-.357-.798-.039-.503.73.302.787-.55 1.939-2.011 2.721-1.394.746-2.535 1.769-2.535 2.272 0 1.105 6.363-3.87 10.437-8.16 3.807-4.009 2.887-4.017-1.21-.011M149.5 186c-1.65 1.093-2.55 1.98-2 1.971 1.003-.016 6.44-3.913 5.5-3.942-.275-.009-1.85.878-3.5 1.971m-8 4c-.782 1.266.542 1.266 2.5 0 1.293-.835 1.266-.971-.191-.985-.93-.008-1.969.435-2.309.985"/></svg>