<svg xmlns="http://www.w3.org/2000/svg" width="200" height="200" fill="#000000"><path fill-opacity=".106" fill-rule="evenodd" d="M83.028 1.141C74.182 2.607 64.064 5.936 55.5 10.199 29.791 22.997 10.129 47.1 2.908 74.671.257 84.794-.68 103.924.935 114.968c5.241 35.845 32.162 68.026 66.291 79.242 5.101 1.676 9.949 3.274 10.774 3.55 3.713 1.245 8.474 1.59 22 1.596 12.006.005 16.048-.397 23.5-2.341 4.95-1.29 9.838-2.296 10.863-2.234s1.598-.153 1.275-.477 3.338-2.516 8.137-4.871c19.475-9.562 35.801-25.881 45.555-45.541 4.799-9.672 9.594-26 9.77-33.27.085-3.543.212-3.771.9-1.622.489 1.526.788-2.372.769-10-.018-6.904-.324-10.933-.685-9-.563 3.025-.75 2.521-1.371-3.708-.396-3.965-1.89-10.94-3.321-15.5-11.415-36.379-40.361-62.208-77.642-69.28-8.637-1.638-25.959-1.824-34.722-.371M150 57.387c0 5.22.092 5.4 3 5.826 2.61.383 3 .134 3-1.918 0-3.625-2.714-9.295-4.449-9.295-1.209 0-1.551 1.186-1.551 5.387m-78-1.834c-4.675.747-10.493 1.952-12.929 2.676l-4.43 1.318-.12 10.477c-.107 9.316-.481 11.384-3.377 18.682-4.54 11.443-4.844 14.216-2.169 19.743 2.697 5.572 10.924 11.81 18.382 13.94 12.174 3.476 30.185 5.321 40.817 4.183l6.469-.693 2.675-5.189c3.128-6.069 9.684-15.413 10.305-14.69.237.275 1.991-2.317 3.899-5.759 3.93-7.092 7.022-18.337 7.955-28.932.761-8.646.519-8.892-12.477-12.644-16.05-4.633-37.791-5.864-55-3.112m92.145 6.138c-2.28 2.58-4.145 4.964-4.145 5.299s1.48.436 3.289.224c3.676-.429 8.391-6 7.357-8.694-.922-2.403-2.07-1.843-6.501 3.171M62.063 65.75l-2.159 1.75 2.648.15c2.62.149 5.268 1.863 4.329 2.802-.267.268-1.916.595-3.665.728-2.943.225-3.083.394-1.874 2.281.717 1.122 3.409 3.06 5.981 4.308 5.117 2.483 5.803 4.387 2.764 7.667C66.751 89.036 63 97.17 63 100.806v3.509l2.285-4.32c3.332-6.302 4.705-6.854 10.209-4.105 4.194 2.094 5.158 2.209 10.573 1.255 3.277-.577 6.953-1.746 8.168-2.597C95.451 93.696 97.267 93 98.272 93c2.18 0 8.223 5.638 9.718 9.066.929 2.13 1.001 1.95.579-1.44-.545-4.368-2.285-6.648-8.069-10.574-5.795-3.934-7.15-4.264-7.069-1.722.06 1.854-.683 2.223-5.789 2.876-3.454.442-6.607.348-7.684-.228-1.005-.538-3.18-.978-4.833-.978s-3.297-.47-3.652-1.044C70.59 87.528 72.85 85 75.009 85c1.132 0 1.95-.985 2.283-2.75.286-1.513 1.199-4.55 2.03-6.75 1.108-2.933 1.2-4.108.344-4.405-.641-.223-3.012-1.911-5.269-3.75-4.647-3.788-8.943-4.344-12.334-1.595M94 67.602c-3.343 1.456-4.667 1.437-9.75-.138-1.913-.593-2.25-.328-2.25 1.764 0 1.354.787 3.141 1.75 3.971 2.16 1.863 10.936 6.432 14.05 7.315 2.705.767 16.812-4.061 17.56-6.01.269-.701-.211-2.274-1.066-3.495-3.331-4.755-13.339-6.435-20.294-3.407m54.919 1.263c-1.713 1.386-2.316 3.259-2.819 8.745-.529 5.766-1.419 8.348-5.12 14.846-2.464 4.327-4.368 8.244-4.23 8.705s-.128.839-.589.839c-.805 0-3.541 5.057-2.948 5.448.158.104 3.113 1.389 6.568 2.856l6.28 2.665 1.086-2.734c.597-1.504 1.145-3.928 1.219-5.387s.396-2.491.715-2.295c.32.196 1.828-2.886 3.353-6.848 1.524-3.963 3.819-9.118 5.099-11.457 2.3-4.201 2.304-4.265.342-5.315-1.092-.584-2.502-.891-3.132-.681-1.346.449-4.468-1.976-5.894-4.578-.881-1.608-.761-1.697 1.01-.75 3.331 1.783 7.141 1.355 7.141-.802 0-3.734-5.003-5.75-8.081-3.257M79 69c0 .55.477 1 1.059 1s.781-.45.441-1-.816-1-1.059-1-.441.45-.441 1m30.5 3c2.749 1.181 4.328 1.181 2.5 0-.825-.533-2.175-.945-3-.914-.989.036-.819.347.5.914m52.1.601c-.816 2.125-.146 2.823 1.94 2.022.894-.343 1.448-1.158 1.231-1.811-.639-1.915-2.471-2.037-3.171-.211m-94.1.365c-1.914.706-1.9.77.325 1.477 2.555.812 4.08.025 2.608-1.346-.513-.479-1.833-.538-2.933-.131m31.073.929c-1.788.701-1.8.804-.168 1.43 2.942 1.129 4.576.788 3.957-.825-.635-1.654-.973-1.708-3.789-.605M.385 100c0 6.875.16 9.688.355 6.25.196-3.437.196-9.062 0-12.5-.195-3.437-.355-.625-.355 6.25m102.946 2.001c-1.193.481-9.631.751-18.75.6C70.37 102.366 68 102.541 68 103.83c0 .827.262 1.241.582.921.321-.32 2.908.5 5.75 1.823 6.327 2.946 8.102 2.979 18.525.343 6.853-1.733 8.524-1.865 9.94-.783.937.715 1.364.901.949.413-.414-.488-.066-1.936.774-3.217.839-1.282 1.403-2.301 1.253-2.267s-1.249.457-2.442.938m-22.563 4.724c1.797.222 4.497.218 6-.01 1.503-.229.032-.411-3.268-.405s-4.529.192-2.732.415M24.5 108c-.34.55.084 1 .941 1S27 108.55 27 108s-.423-1-.941-1-1.219.45-1.559 1m49.779 5.057c.077 1.021.33 1.667.562 1.435s1.363.238 2.513 1.043c3.24 2.27 7.137 1.751 12.361-1.647 3.346-2.176 4.033-2.943 2.285-2.548-6.703 1.513-10.947 1.769-14.245.858-3.232-.892-3.601-.801-3.476.859M23 114.059c0 .582-.419.8-.931.484-3.134-1.938-2.94 7.433.315 15.221 3.194 7.64 5.462 14.483 6.123 18.471.656 3.959 4.362 13.694 6.001 15.765.654.825 1.466 2.285 1.806 3.244 1.439 4.057 11.62 7.357 15.359 4.979.646-.41 1.487-3.514 1.87-6.897.695-6.145.692-6.153-2.424-7.764-2.925-1.513-3.126-1.503-3.237.162-.066.977-.08 2.071-.032 2.431s-.574.909-1.382 1.219c-1.077.413-1.468-.188-1.468-2.256 0-4.286-1.844-8.748-7.68-18.589-5.092-8.586-5.318-9.273-5.285-16 .034-6.601.123-6.877 1.465-4.529 1.263 2.21 1.43 2.268 1.433.5.002-1.1-.581-2.77-1.296-3.711-2.298-3.024-10.637-5.165-10.637-2.73"/><path fill-opacity=".149" fill-rule="evenodd" d="M90.393 4.019c-21.986 3.974-35.916 12.693-55.28 34.602-13.434 15.199-20.195 29.12-23.159 47.683-1.68 10.521-.694 28.15 2.051 36.696 1.148 3.575 2.258 7.243 2.465 8.152.208.909 1.18 3.159 2.162 5 .981 1.841 1.819 3.573 1.862 3.848.042.275.561 1.4 1.152 2.5.592 1.1 2.079 5.375 3.306 9.5 2.78 9.351 7.489 18.351 11.26 21.525 3.399 2.86 9.75 4.774 13.075 3.939 3.212-.806 4.522 1.081 4.899 7.061l.314 4.975 9 3.353c18.046 6.724 34.494 8.539 51.538 5.689 5.716-.956 12.434-2.503 14.928-3.439 4.358-1.635 4.527-1.851 4.352-5.542-.106-2.221.421-4.443 1.25-5.272.788-.787 1.432-2.02 1.432-2.739s1.256-1.827 2.79-2.463c5.356-2.218 14.669-9.061 21.504-15.799 12.714-12.535 20.833-27.432 24.86-45.616 2.735-12.35 2.202-32.655-1.133-43.172-2.853-8.997-5.992-16.569-7.716-18.608-.747-.885-3.086-5.18-5.197-9.546C159.671 20.627 134.943 4.724 105.5 3.509c-5.5-.227-12.298.003-15.107.51M150 57.5c0 4.081.366 5.5 1.418 5.5.78 0 2.202.301 3.159.668 1.557.597 1.671.16 1.081-4.149-.706-5.145-2.057-7.519-4.28-7.519-1.004 0-1.378 1.495-1.378 5.5m-79.969-1.809c-4.658.827-10.057 2.024-11.996 2.66l-3.527 1.155-.148 10.497c-.131 9.325-.498 11.334-3.291 17.997-4.11 9.805-4.841 15.57-2.579 20.338 3.659 7.711 13.394 13.614 26.572 16.114 10.591 2.009 26.873 3.036 34.006 2.145 5.403-.675 5.494-.742 8.355-6.207 1.591-3.039 4.765-7.632 7.054-10.208 9.145-10.29 14.265-23.971 14.765-39.449l.258-8.014-7-2.479c-16.582-5.871-43.849-7.857-62.469-4.549m96.963 2.591c-2.09 1.69-6.994 7.716-6.994 8.594 0 .397 1.48.55 3.289.338 2.38-.277 3.931-1.322 5.615-3.778 3.162-4.616 1.839-8.187-1.91-5.154M61.861 65.948c-2.169 1.79-2.194 1.907-.304 1.434 1.226-.307 3.045.307 4.5 1.518l2.443 2.033-3.191.034c-3.915.041-5.279 1.877-2.712 3.651 1.047.722 2.447 1.779 3.111 2.348S67.577 78 68.386 78C69.983 78 73 80.616 73 82c0 .471-.579 1.452-1.286 2.179-3.517 3.613-7.768 11.366-8.287 15.114l-.582 4.207 2.327-3.904c3.49-5.853 4.759-6.302 10.654-3.766 4.735 2.037 5.428 2.088 10.937.802 3.236-.754 6.904-1.919 8.153-2.587s3.276-.963 4.505-.654c2.772.696 7.288 4.795 8.628 7.832.85 1.926.925 1.738.489-1.223-.564-3.828-4.5-7.929-11.243-11.716l-3.947-2.216.076 2.215c.066 1.913-.654 2.338-5.288 3.125-3.702.629-6.358.552-8.571-.248-1.764-.638-4.161-1.16-5.327-1.16s-2.41-.47-2.765-1.044C70.569 87.494 72.87 85 75.122 85c1.39 0 1.878-.728 1.878-2.8 0-1.54.437-3.237.971-3.771.535-.535 1.11-1.862 1.279-2.95s.659-2.541 1.088-3.229c.491-.786.237-1.25-.684-1.25-.806 0-3.35-1.575-5.654-3.5-4.79-4.002-8.583-4.487-12.139-1.552M94 67.671c-3.506 1.228-5.14 1.335-7.397.484C83.255 66.893 82 67.378 82 69.937c0 2.223.93 3.005 8.273 6.956 6.735 3.625 11.093 3.916 18.208 1.214 8.135-3.09 8.636-6.684 1.444-10.355-4.195-2.142-9.956-2.171-15.925-.081m54.455 1.784c-2.041 2.04-2.456 3.433-2.459 8.25-.003 5.281-.58 6.815-6.496 17.295-3.571 6.325-6.494 11.762-6.496 12.082s2.947 1.752 6.553 3.183c5.941 2.358 6.613 2.444 7.158.918 3.649-10.211 9.804-25.381 11.397-28.088 2.136-3.63 1.459-5.047-2.428-5.08-2.45-.02-5.328-1.644-5.995-3.382-.434-1.132.258-1.316 3.383-.897 3.478.467 3.928.29 3.928-1.548 0-1.908-3.33-5.188-5.268-5.188-.453 0-1.927 1.105-3.277 2.455M109.5 72c2.749 1.181 4.328 1.181 2.5 0-.825-.533-2.175-.945-3-.914-.989.036-.819.347.5.914m51.845.543c-.326.849-.331 1.804-.012 2.124 1.009 1.009 3.667-.539 3.667-2.136 0-1.996-2.888-1.986-3.655.012m-94.101.126c-1.804.72-.492 2.331 1.898 2.331 1.119 0 1.847-.532 1.629-1.187-.47-1.409-1.792-1.838-3.527-1.144m30.871 1.239c-1.111.703-.976 1.096.684 1.985 1.138.609 2.778 1.107 3.644 1.107 1.324 0 1.375-.318.325-2-1.359-2.176-2.514-2.447-4.653-1.092M68 103.809c0 .72.346 1.095.769.834s2.56.372 4.75 1.407c6.521 3.084 9.51 3.241 18.412.968 4.585-1.171 8.945-1.896 9.688-1.611s1.763-.252 2.267-1.194c.849-1.588-.423-1.713-17.485-1.713-14.497 0-18.401.278-18.401 1.309m12.768 2.916c1.797.222 4.497.218 6-.01 1.503-.229.032-.411-3.268-.405s-4.529.192-2.732.415M24.5 108c-.34.55.084 1 .941 1S27 108.55 27 108s-.423-1-.941-1-1.219.45-1.559 1m50.776 5.307c.794 1.206 3.03 2.597 4.969 3.091 3.074.784 4.215.485 8.891-2.328 3.133-1.884 4.324-2.98 2.864-2.635-6.177 1.462-10.854 1.699-14.369.729-3.765-1.04-3.786-1.029-2.355 1.143m-53.802 1.088c-2.735 2-2.231 7.88 1.465 17.112 1.678 4.189 3.987 11.301 5.133 15.805 4.363 17.152 10.533 25.704 18.522 25.673 2.148-.009 4.478-.379 5.177-.822.699-.444 1.539-3.7 1.867-7.235l.596-6.428-3.057-1.141c-2.913-1.086-3.115-.992-4.275 2l-1.218 3.141-.686-4.5c-.896-5.875-1.769-7.86-7.888-17.925-4.953-8.146-5.116-8.652-4.937-15.316.167-6.198.315-6.659 1.471-4.575 1.068 1.924 1.291 2.009 1.321.5.059-3.058-1.77-5.42-5.093-6.579-4.188-1.46-6.095-1.394-8.398.29"/><path fill-opacity=".619" fill-rule="evenodd" d="M97 3.464c-.825.196-4.875.901-9 1.567C63.767 8.943 42.464 25.236 30.51 49c-1.521 3.025-3.537 6.625-4.479 8-2.916 4.256-7.953 17.496-9.556 25.119-1.064 5.059-1.48 12.218-1.367 23.563.139 14.034.47 17.164 2.385 22.556 3.793 10.678 5.197 14.923 8.369 25.288 5.188 16.953 11.3 23.709 21.443 23.7 2.857-.002 5.526.509 5.93 1.135s.741 3.215.75 5.752l.015 4.614 6.008 2.696c19.94 8.949 46.233 10.505 68.435 4.051 5.489-1.596 5.557-1.662 5.557-5.431 0-2.098.672-5.103 1.494-6.679.821-1.575 1.496-3.876 1.5-5.114.003-1.238.398-2.25.878-2.25 2.134 0 16.213-10.296 22.022-16.105 22.781-22.785 30.406-55.046 20.654-87.395-1.327-4.4-3.381-11.375-4.566-15.5-3.474-12.091-8.455-20.425-17.982-30.081-14.635-14.833-30.618-22.054-51.652-23.333-4.316-.263-8.523-.318-9.348-.122m52.782 50.286c-.795 3.086.368 9.25 1.746 9.25.719 0 2.092.301 3.049.668 1.557.597 1.671.16 1.081-4.149-.694-5.06-2.055-7.519-4.164-7.519-.693 0-1.464.788-1.712 1.75M75 54.592c-1.375.246-6.662 1.371-11.75 2.5L54 59.144l-.006 5.678c-.01 9.645-1.797 17.343-5.979 25.754-9.643 19.395-3.047 27.79 26.658 33.929 9.142 1.889 28.981 3.074 35.388 2.113 4.154-.623 4.641-1.031 7.309-6.126 1.572-3.003 4.862-7.604 7.311-10.226 8.609-9.214 13.55-22.107 14.926-38.945l.669-8.179-3.888-1.66c-2.138-.913-8.163-2.792-13.388-4.176-8.118-2.151-12.119-2.564-27.5-2.839-9.9-.177-19.125-.121-20.5.125m91.305 3.907c-1.851 1.296-6.305 7.42-6.305 8.668 0 .237 1.568.248 3.485.025 2.666-.312 3.981-1.211 5.597-3.825 1.964-3.177 2.05-6.367.172-6.367-.445 0-1.772.675-2.949 1.499M63 65.5l-2.5 1.429 3.059.036c1.682.019 3.932.673 4.999 1.454 1.853 1.355 1.806 1.448-1.059 2.092C61.965 71.756 61 72.13 61 73.032c0 1.717 4.538 3.398 10.649 3.946l6.148.55 1.48-3.264c1.158-2.555 1.2-3.264.196-3.264-.706 0-3.169-1.575-5.473-3.5-4.517-3.774-7.081-4.24-11-2m31.5 2.127c-2.2.817-5.237 1.313-6.75 1.103-1.513-.211-2.75-.022-2.75.42s1.237 1.571 2.75 2.509 4.019 2.861 5.57 4.273c2.44 2.223 3.612 2.538 8.714 2.346 6.294-.236 13.938-2.785 12.393-4.132-1.375-1.2-8.738-3.142-12.043-3.176-2.528-.027-2.657-.163-1.05-1.097 1.925-1.119 7.821-.781 11.08.635 3.404 1.479.849-1.155-2.799-2.886-4.17-1.979-9.78-1.977-15.115.005M148 69c-1.569 1.569-2.003 3.347-2.015 8.25-.015 5.864-.436 6.994-6.822 18.283l-6.806 12.033 6.884 2.821c3.786 1.552 6.985 2.662 7.108 2.467s1.062-2.829 2.087-5.854c3.144-9.276 8.701-22.356 10.693-25.168l1.891-2.669-3.26-.64c-7.467-1.465-11.281-5.316-4.638-4.683 3.362.321 3.878.098 3.878-1.678 0-2.087-3.409-5.162-5.723-5.162-.702 0-2.177.9-3.277 2m13.345 3.543c-.326.849-.331 1.804-.012 2.124 1.009 1.009 3.667-.539 3.667-2.136 0-1.996-2.888-1.986-3.655.012m-95.095.108c-2.189.903-1.349 2.107 1.791 2.568 2.368.348 2.974.099 2.739-1.125-.318-1.649-2.413-2.317-4.53-1.443m31.5 1.038c-3.721.973-1.009 3.311 3.84 3.311 2.177 0 2.298-.206 1.178-2-1.256-2.011-1.798-2.152-5.018-1.311M72.228 84.23c-1.249.602-2.551 2.259-2.893 3.683s-1.681 4.608-2.978 7.079c-2.784 5.305-3.154 7.823-.515 3.508 3.379-5.527 4.665-6.068 9.971-4.197 3.609 1.272 6.019 1.464 10.475.837 9.295-1.31 9.348-3.007.092-2.961-14.16.071-18.581-2.058-13.69-6.592 3.039-2.819 2.974-3.012-.462-1.357m21.646 3.535c.59 1.103 2.12 2.268 3.399 2.589 1.28.321 4.217 2.329 6.527 4.461s4.2 3.305 4.2 2.604c0-1.553-5.575-6.25-11.113-9.363-3.876-2.178-4.031-2.193-3.013-.291M69 103.275c0 1.228 4.804 2.726 6.741 2.103 1.395-.45 1.467-.359.345.438-1.096.779-.515 1.275 2.58 2.202 3.422 1.025 5.245.883 12.731-.992 4.805-1.204 9.301-1.972 9.991-1.707.691.265 1.83-.439 2.533-1.564 1.143-1.83 1.082-1.96-.572-1.236-1.017.444-2.749.762-3.849.705-11.41-.59-30.5-.559-30.5.051m11.768 3.45c1.797.222 4.497.218 6-.01 1.503-.229.032-.411-3.268-.405s-4.529.192-2.732.415M24 108c0 .55.927 1 2.059 1s1.781-.45 1.441-1-1.266-1-2.059-1-1.441.45-1.441 1m50 3.568c0 .159.707.996 1.571 1.861 2.024 2.023 9.339 2.053 14.115.058 4.884-2.041 3.927-2.5-2.455-1.177-3.749.778-6.418.786-9.25.03-2.19-.584-3.981-.932-3.981-.772m51.37 3.713c-1.722 2.32-3.919 5.773-4.882 7.673-2.089 4.121-5.094 27.864-6.1 48.196l-.7 14.131 3.906-.679c2.148-.374 6.206-1.169 9.017-1.769l5.111-1.089.675-10.437c.371-5.741.381-13.673.023-17.627l-.651-7.19 4.243-6.389c4.836-7.28 9.988-18.116 9.988-21.006 0-1.513-1.787-2.639-7.968-5.022-4.382-1.69-8.319-3.059-8.75-3.042s-2.191 1.929-3.912 4.25M21 115c-1.1 1.1-1.995 2.563-1.988 3.25.022 2.308 2.661 11.221 4.22 14.25.85 1.65 2.727 7.5 4.173 13 4.997 19.012 10.85 27.514 18.922 27.485 6.027-.022 6.815-.891 7.398-8.144.498-6.204.427-6.45-2.18-7.639-2.954-1.345-4.545-.871-4.545 1.357 0 .793-.45 1.441-1 1.441s-1.01-1.238-1.022-2.75c-.026-3.306-2.449-8.819-7.142-16.25-4.81-7.618-5.83-10.684-5.565-16.742.126-2.883.356-5.246.511-5.25s.689 1.005 1.187 2.242l.904 2.25.064-2.316c.096-3.533-1.569-5.86-5.065-7.079-4.545-1.584-6.6-1.377-8.872.895m37.602 14.044c-3.63 3.188-8.99 13.027-10.064 18.474-.515 2.613-.174 3.266 2.548 4.874 3.737 2.207 4.089 1.838 5.92-6.223 1.85-8.148 2.316-4.894 1.07 7.484-1.082 10.75-1.437 23.347-.658 23.347.23 0 1.06.246 1.845.547 1.161.446 1.553-1.558 2.106-10.75.374-6.213 1.759-17.595 3.077-25.292s2.321-14.053 2.226-14.125c-.095-.073-1.148-.431-2.34-.797-1.597-.49-3.106.158-5.73 2.461m21.456 6.372c-2.319 11.624-3.152 18.832-3.745 32.428-.497 11.377-.351 14.514.703 15.166.731.452 4.514 1.103 8.407 1.447s8.765.871 10.827 1.172l3.75.547v-12.079c0-6.643.708-18.875 1.574-27.181.865-8.306 1.428-15.23 1.25-15.386-.178-.157-5.145-.49-11.038-.742l-10.713-.457z"/><path fill-opacity=".973" fill-rule="evenodd" d="M85.5 5.477c-15.475 3.398-27.164 9.968-39.147 22.004-7.741 7.775-9.857 10.647-13.767 18.684-2.541 5.223-5.279 12.61-6.085 16.416-1.65 7.785-2.005 23.989-.546 24.891.525.324 4.587 1.119 9.027 1.767 6.643.968 7.955 1.449 7.41 2.719-4.121 9.597-4.248 12.932-.757 19.937 2.662 5.341 8.506 10.6 13.046 11.74 2.253.565 2.218.673-1.638 5.054-2.168 2.462-4.713 6.577-5.657 9.144s-2.026 5.028-2.404 5.47-2.6-2.36-4.936-6.226l-4.247-7.03 2.167-4.478 2.168-4.477-1.967-4.447c-1.082-2.446-2.799-4.717-3.817-5.047-1.017-.33-2.604-2.399-3.526-4.599-1.412-3.369-2.135-3.999-4.595-3.999-3.349 0-5.073 1.67-8.264 8-2.67 5.297-2.815 10.701-.456 17 .927 2.475 3.592 10.575 5.921 18 4.967 15.834 8.042 22.204 13.028 26.992 3.354 3.221 4.119 3.493 9.839 3.5 7.065.009 7.524.47 7.633 7.651.049 3.265.54 4.823 1.652 5.25 2.396.92 2.418.889 2.418-3.349v-3.955l4.25 1.515c18.258 6.511 44.063 8.038 64.5 3.817l3.25-.671v4.232c0 3.448.293 4.12 1.582 3.625.87-.334 1.77-.607 2-.607s.418-1.935.418-4.3.473-4.773 1.051-5.351c.661-.661 1.033-7.658 1.001-18.815l-.051-17.763 4.507-7.231c4.781-7.672 9.492-18.27 9.492-21.356 0-1.021 1.614-3.928 3.587-6.46 2.245-2.881 3.791-6.124 4.132-8.664l.544-4.06h7.178c4.386 0 7.883-.516 8.992-1.327 4.022-2.941 5.705-22.248 3.057-35.067-3.172-15.355-9.582-27.03-20.923-38.106-10.68-10.43-22.884-16.976-37.381-20.048-8.261-1.751-25.658-1.738-33.686.025m64.148 47.997c-.332.865-.342 3.475-.023 5.8.522 3.795.876 4.247 3.478 4.436 2.641.191 2.896-.075 2.882-3-.027-6.01-4.742-11.392-6.337-7.236m-77.999 1.625c-3.219.47-8.506 1.599-11.75 2.509L54 59.264l-.02 4.618c-.042 9.723-1.984 18.323-5.994 26.529-6.203 12.696-5.132 21.45 3.255 26.614 8.84 5.443 31.189 9.975 49.187 9.975 10.642 0 15.572-.999 15.572-3.156 0-1.758 7.922-13.634 10.43-15.635 3.316-2.645 9.04-13.96 10.962-21.667.954-3.826 1.994-10.639 2.312-15.139.518-7.34.383-8.286-1.313-9.19-4.081-2.175-15.325-5.348-23.891-6.741-9.737-1.584-33.168-1.788-42.851-.373m93.966 3.989c-2.202 1.732-5.615 6.72-5.615 8.205 0 .216 1.665.122 3.699-.209 2.793-.454 4.165-1.399 5.601-3.858 1.823-3.121 1.756-6.226-.134-6.226-.493 0-2.091.94-3.551 2.088M63 65.5l-2.5 1.429 3.139.036c1.727.019 4.202.941 5.5 2.049s1.911 1.915 1.361 1.793c-2.142-.475-9.5 1.273-9.5 2.256 0 1.813 7.167 4.125 11.675 3.767 2.433-.194 4.361.096 4.407.663.044.554.761-.554 1.592-2.462 1.036-2.38 1.165-3.585.41-3.836-.606-.202-2.94-1.904-5.187-3.781C69.479 63.723 66.901 63.27 63 65.5m32 2.109c-1.925.841-4.963 1.364-6.75 1.161s-3.25-.02-3.25.405 1.463 1.521 3.25 2.435c1.787.913 3.61 2.275 4.05 3.026 1.593 2.718 6.495 4.417 10.93 3.79 6.49-.919 10.77-2.442 10.77-3.832 0-1.287-8.08-3.57-12.826-3.624-2.408-.028-2.488-.139-.806-1.116 1.028-.597 4.065-.875 6.75-.617s4.882.322 4.882.142-1.328-1.014-2.95-1.853c-3.727-1.928-9.531-1.893-14.05.083M148 69c-1.577 1.577-2 3.333-2 8.301 0 5.858-.394 6.966-5.594 15.75-9.533 16.103-9.371 14.199-1.469 17.285 3.751 1.465 7.051 2.664 7.333 2.664s.815-1.237 1.183-2.75c1.599-6.567 9.978-25.982 12.266-28.422l2.506-2.672-4.534-.68c-2.897-.434-5.369-1.568-6.847-3.142l-2.314-2.463 2.8 1.065c1.941.737 3.395.746 4.735.029 2.502-1.339 2.438-2.144-.379-4.791-2.879-2.704-5.105-2.755-7.686-.174m13.089 4.25c-.487 1.297-.46 2.396.066 2.595 1.287.486 3.845-1.821 3.845-3.467 0-2.239-2.992-1.572-3.911.872M66 73.015c-1.333.876-1.333 1.094 0 1.97.825.541 2.561.991 3.857 1 1.741.011 2.198-.398 1.75-1.567-.334-.87-.607-1.77-.607-2 0-.8-3.51-.381-5 .597m31.75.674c-3.721.973-1.009 3.311 3.84 3.311 2.177 0 2.298-.206 1.178-2-1.256-2.011-1.798-2.152-5.018-1.311m-27.095 12.14C69.745 86.835 69 88.193 69 88.847s-1.182 3.45-2.626 6.212-2.405 5.243-2.135 5.514c.271.27 1.032-.813 1.692-2.407 1.823-4.4 5.259-5.862 9.855-4.192C80.878 95.824 93 95.266 93 93.181c0-.376-3.487-.742-7.75-.813-13.368-.223-17.432-2.186-13.227-6.391C73.11 84.89 73.62 84 73.155 84s-1.59.823-2.5 1.829m23.511 2.065c.684 1.096 2.176 2.226 3.316 2.512s4.085 2.224 6.545 4.307c3.096 2.621 4.011 3.077 2.973 1.482-1.926-2.961-14.631-11.178-12.834-8.301m-16.132 15.031c-8.507.517-9.191.699-6.761 1.798 1.487.673 3.496.968 4.465.656 1.315-.424 1.423-.325.428.388-1.077.771-1.014 1.078.332 1.594.916.351 2.416.607 3.334.569 1.333-.056 1.266-.243-.332-.93-1.399-.601-.197-.845 4-.811 4.773.038 5.386.204 3 .811-2.074.528-2.37.8-.96.882 1.122.065 4.721-.58 7.998-1.434 3.277-.853 6.717-1.353 7.645-1.11s1.942-.221 2.252-1.03c.894-2.33.674-2.643-.926-1.316-1.01.839-3.026 1.016-6.25.551a563 563 0 0 0-6.759-.94c-1.1-.139-6.26.006-11.466.322M23.5 108c-.352.569.509 1 2 1s2.352-.431 2-1c-.34-.55-1.24-1-2-1s-1.66.45-2 1m102.178 6.356c-5.439 7.13-6.856 11.319-8.769 25.918-1.025 7.824-2.171 21.15-2.547 29.614l-.684 15.387 4.911-.711c2.701-.392 6.783-1.172 9.071-1.734l4.161-1.022.717-10.521c.394-5.786.418-13.818.053-17.85-.654-7.207-.607-7.41 2.772-12.133 4.605-6.437 9.636-16.52 10.308-20.662l.546-3.365-7.539-3.139c-4.146-1.726-8.192-3.138-8.99-3.138s-2.602 1.51-4.01 3.356m-49.468-.606c1.315 1.588 9.597 1.564 12.475-.035 1.863-1.036 1.027-1.215-5.663-1.215-6.163 0-7.625.268-6.812 1.25m-55.69 1.227c-2.287 2.528-1.718 6.322 2.852 19.023 1.88 5.225 4.421 12.875 5.648 17 5.035 16.935 11.481 23.965 20.41 22.258 3.149-.602 4.276-2.932 4.692-9.702.257-4.177-.01-4.931-2.164-6.124-3.488-1.931-4.958-1.745-4.958.627 0 1.132-.45 1.781-1 1.441s-1-1.662-1-2.939c0-2.235-3.093-8.736-9.874-20.751-2.904-5.145-3.144-6.195-2.51-10.973.479-3.613.913-4.681 1.37-3.377.457 1.303.9 1.533 1.398.728 1.083-1.753-1.525-6.448-4.384-7.894-3.741-1.892-8.425-1.587-10.48.683m36.224 15.963c-2.996 3.332-5.286 7.207-6.655 11.264-2.7 7.993-2.658 8.45.94 10.311 3.49 1.805 4.939 1.281 5.047-1.824.042-1.205.722-3.766 1.512-5.691l1.436-3.5-.511 4c-.281 2.2-.808 10.004-1.171 17.342-.541 10.919-.405 13.505.749 14.235 2.538 1.607 2.909.995 2.925-4.827.015-5.829 3.06-29.326 5.064-39.079.602-2.931.942-5.482.755-5.669s-1.506-.632-2.932-.99c-2.216-.556-3.256.087-7.159 4.428m13.332 3.543c-2.391 13.731-4.027 26.138-4.661 35.343l-.671 9.736 2.675 1.219c1.471.671 3.039 1.219 3.484 1.219.446 0 1.071-6.863 1.391-15.25.513-13.473 2.12-26.866 4.184-34.875.605-2.347.358-2.672-2.33-3.067-2.973-.436-3.019-.372-4.072 5.675m10.655-3.223c-1.875 4.886-4.093 25.017-4.157 37.74l-.074 14.5 9 1.173c4.95.646 10.35 1.205 12 1.243l3 .068.232-17.742c.128-9.758.822-22.129 1.541-27.492l1.309-9.75-7.541-.011c-4.148-.006-9.162-.279-11.143-.607-2.656-.439-3.75-.209-4.167.878m26.855 1.49c-1.088 3.468-3.586 33.788-3.586 43.527 0 9.837.027 9.949 2.25 9.353 1.237-.331 2.518-.609 2.846-.616.327-.008.869-7.102 1.203-15.764.53-13.746 1.041-19.44 3.137-35 .406-3.013.229-3.25-2.431-3.25-1.858 0-3.064.617-3.419 1.75"/></svg>