<svg width="350" height="500" viewBox="0 0 350 500" fill="#000000" xmlns="http://www.w3.org/2000/svg">
<path fill-rule="evenodd" clip-rule="evenodd" d="M333.081 4.94444C318.955 15.642 4.43361 332.35 2.25849 338.067C1.03619 341.284 0.0352512 373.571 0.0352512 409.815C0.0352512 477.241 1.32011 487.97 9.40221 487.97C14.9002 487.97 338.531 164.019 344.724 152.318C349.615 143.076 349.793 139.977 349.178 74.1343C348.446 -4.0977 347.934 -6.30169 333.081 4.94444ZM4.01735 6.33757C0.559778 10.1561 0.0352512 17.8724 0.0352512 64.8275C0.0352512 140.661 1.50297 141.719 45.1882 97.4422C79.6123 62.5513 79.6748 65.8429 43.9105 30.17C14.8111 1.14761 10.8531 -1.21759 4.01735 6.33757ZM43.8504 113.219C-2.59703 159.038 0.153149 151.505 0.0881839 233.065C0.0111886 329.073 -5.71532 329.058 89.8815 233.267C176.713 146.257 172.642 159.375 127.065 113.404C82.8822 68.8433 88.8204 68.8577 43.8504 113.219ZM217.309 298.489C137.325 378.569 100.844 416.698 99.7081 421.402C97.6075 430.11 165.166 500 175.686 500C182.009 500 338.665 346.38 345.482 333.498C350.085 324.797 350.588 189.837 346.033 185.282C338.569 177.818 332.496 183.162 217.309 298.489ZM306.327 387.63C270.472 423.486 270.522 422.136 303.806 456.045C348.968 502.057 348.92 502.093 348.92 421.508V360.446H341.216C334.606 360.446 329.65 364.308 306.327 387.63Z" fill="#000000"/>
</svg>
