<svg xmlns="http://www.w3.org/2000/svg" width="200" height="200" fill="#000000"><path fill-opacity=".537" fill-rule="evenodd" d="M0 100.005V200.01l100.25-.255 100.25-.255.255-99.75L201.01 0H0zm.481.495c0 55 .121 77.647.269 50.326.148-27.32.148-72.32 0-100C.602 23.147.481 45.5.481 100.5M75.5 41.94c-11 .383-20.791 1.053-21.759 1.488-3.732 1.682-3.355 8.673.577 10.698 10.477 5.396 11.006 17.271 1.129 25.364C52.038 82.283 51 83.813 51 86.044c0 5.88 1.067 6.04 38.116 5.733 29.673-.246 34.023-.079 39.134 1.501 3.162.978 5.75 2.031 5.75 2.34 0 1.221-4.778 4.637-10 7.151-5.08 2.444-6.874 2.701-23.5 3.362-9.9.393-24.343.75-32.095.792-12.325.067-14.303.307-15.75 1.906-2.938 3.246-2.055 6.413 2.955 10.601 2.536 2.12 5.242 5.365 6.014 7.212 1.925 4.609.141 8.642-6.376 14.415-6.142 5.442-6.992 7.728-4.193 11.286l2.09 2.657h33.291c18.31 0 35.505-.42 38.211-.933 10.296-1.953 16.55-5.09 23.003-11.537 5.215-5.211 6.474-7.192 8.275-13.024 4.205-13.614 2.55-27.847-4.084-35.115-1.732-1.898-1.822-2.749-.901-8.517 2.016-12.618-1.818-24.819-10.236-32.579-5.022-4.629-8.489-6.611-16.617-9.501-6.731-2.393-19.315-2.873-48.587-1.854m9.155 11.747c-11.684.34-12.78.53-12.118 2.094 2.743 6.484 2.739 12.909-.013 21.719-.614 1.964-.166 2 25.175 2.001 25.458.002 30.541.52 39.551 4.031 1.546.603 1.747.001 1.728-5.175-.04-10.783-5.597-18.147-16.978-22.502-6.049-2.314-14.818-2.823-37.345-2.168M140 107.139c-1.925 1.658-5.544 4.065-8.043 5.349-8.666 4.456-14.343 5.372-37.761 6.097-19.975.619-22.232.86-21.617 2.303 3 7.037 2.768 11.438-1.076 20.449-.752 1.763.293 1.821 25.607 1.423 29.308-.461 33.299-1.146 40.269-6.91 5.764-4.767 8.599-11.652 8.611-20.909.006-4.526-.492-8.212-1.24-9.188-1.127-1.468-1.595-1.332-4.75 1.386"/><path fill-opacity=".051" fill-rule="evenodd" d="M0 76.967v76.966l24.75.284c13.613.155 25.538.669 26.5 1.14 1.129.553 1.75.464 1.75-.25 0-.609-.927-1.107-2.059-1.107-1.176 0-1.782-.448-1.414-1.044.355-.574.208-1.586-.326-2.25-.535-.664-.618-2.104-.185-3.206.962-2.448 4.712-6.5 6.017-6.5C57.06 141 62 132.693 62 129.285c0-2.837-.931-4.302-5.5-8.658-4.334-4.131-5.5-5.893-5.5-8.312 0-5.689.406-5.763 34.901-6.38 34.64-.619 37.301-1.037 44.181-6.943 2.85-2.447 3.169-3.099 1.918-3.931C128.347 92.634 119.156 92 87.606 92c-30.987 0-33.411-.127-34.951-1.829-.91-1.006-1.655-3.262-1.655-5.014 0-2.479.676-3.598 3.045-5.038C59.178 76.997 62 72.263 62 66.771c0-5.779-1.911-9.059-7.24-12.422-3.498-2.209-3.845-2.804-3.567-6.125.22-2.642.946-3.995 2.576-4.803 1.403-.695 13.073-1.397 30.561-1.839 23.84-.601 29.344-.469 34.981.838 12.796 2.967 22.692 9.61 28.122 18.875 3.495 5.965 5.234 16.869 3.881 24.336-.981 5.412-.892 6.057 1.23 8.853 4.402 5.8 5.961 11.374 5.881 21.016-.061 7.228-.576 10.223-2.618 15.211-1.699 4.149-2.172 6.363-1.425 6.671.615.253.346.496-.597.539-1.693.078-4.433 3.804-3.973 5.403.131.454-.224.54-.787.191-.934-.577-1.412.984-1.295 4.224.024.682-.386.974-.911.649s-.725-1.189-.444-1.922c.332-.866-.693-.621-2.932.7-1.894 1.117-3.436 2.55-3.428 3.183.011.821.226.836.75.052.809-1.209 4.429-1.523 3.685-.32-.254.412.103.976.794 1.255.791.318.639.535-.411.585-.916.043-1.893-.483-2.171-1.171-.403-1-.52-1-.583 0-.099 1.56-2.777 1.655-3.29.116-.257-.77-.848-.664-1.843.33-.805.806-2.099 1.253-2.875.994-1.162-.387-1.183-.225-.114.92 1.075 1.152 6.882 1.304 33.92.89l32.623-.5.256-76.75.256-76.75H0zm.476.533c0 42.35.123 59.529.274 38.176.15-21.353.15-56.003 0-77C.599 17.679.476 35.15.476 77.5m89.879-23.735-18.146.279 1.469 4.728c1.55 4.989 1.201 14.717-.652 18.18-.956 1.786.07 1.876 26.239 2.289 26.907.426 29.445.711 38.111 4.294 1.745.721 1.846.326 1.445-5.63-.765-11.353-5.603-17.474-17.176-21.733-6.795-2.501-9.868-2.737-31.29-2.407m50.322 53.049c-4.071 4.251-11.393 7.939-20.262 10.208-6.438 1.646-11.082 1.978-27.692 1.978H72.767l.63 2.25c2.025 7.231 1.779 12.458-.896 19-.67 1.639.87 1.75 24.303 1.75 21.571 0 25.84-.256 30.987-1.858 6.762-2.105 13.564-6.775 12.793-8.785-.282-.733.025-1.226.681-1.095 3.361.671 6.019-17.55 3.44-23.578l-1.205-2.817zM6.75 151.723c1.788.222 4.712.222 6.5 0 1.788-.221.325-.403-3.25-.403s-5.038.182-3.25.403m23-.017c1.238.238 3.263.238 4.5 0 1.237-.239.225-.434-2.25-.434s-3.488.195-2.25.434m14.25-.323c0 .211 1.125.599 2.5.862s2.5.09 2.5-.384c0-.473-1.125-.861-2.5-.861s-2.5.173-2.5.383m104.75.279c.688.278 1.813.278 2.5 0 .688-.277.125-.504-1.25-.504s-1.937.227-1.25.504m14 .081c3.988.189 10.512.189 14.5 0 3.988-.19.725-.346-7.25-.346s-11.238.156-7.25.346m27-.037c1.238.238 3.262.238 4.5 0 1.238-.239.225-.434-2.25-.434s-3.488.195-2.25.434M129 153.941c0 .518.445 1.216.989 1.552.566.35.734-.051.393-.941-.665-1.732-1.382-2.049-1.382-.611m-5.493 1.048c-.35.566.051.734.941.393 1.732-.665 2.049-1.382.611-1.382-.518 0-1.216.445-1.552.989m-52.695.759c8.421.168 21.921.167 30 0 8.078-.168 1.188-.305-15.312-.305-16.5.001-23.11.138-14.688.305m49.001-.065c.721.289 1.584.253 1.916-.079s-.258-.568-1.312-.525c-1.165.048-1.402.285-.604.604"/><path fill-opacity=".241" fill-rule="evenodd" d="M0 49.358v49.357l6.147.643c3.38.353 8.304.642 10.941.642s5.102.498 5.478 1.107c.478.773.934.702 1.513-.235.664-1.075 6.873-1.345 31.125-1.357 19.013-.009 30.575-.387 31.046-1.015.485-.647 1.025-.575 1.529.202.91 1.403 8.221 2.434 8.221 1.16 0-1.446 7.416-.959 9.695.637 1.279.896 2.276 1.089 2.478.481.187-.559 2.672-1.293 5.522-1.63 3.974-.471 5.548-.25 6.744.946 1.824 1.824 2.077 3.141.406 2.109-.731-.453-.882-.274-.41.489.566.916 1.077.926 2.143.041.77-.639 1.144-1.576.831-2.082-.316-.511.58-.713 2.011-.453 1.933.35 2.584.046 2.595-1.216.014-1.453.149-1.478.985-.184.872 1.349 1.43.725 1.118-1.25-.065-.412.388-.637 1.007-.5.619.138 1.355-.384 1.636-1.159.355-.977.01-1.217-1.125-.782-.9.346-1.636.24-1.636-.233 0-2.107-5.656-2.538-39.894-3.041L53.713 91.5l-2.004-2.686c-1.765-2.366-1.853-3.053-.735-5.75.698-1.685 1.777-3.078 2.397-3.096.621-.017 2.642-1.553 4.492-3.412 2.538-2.551 3.489-4.502 3.878-7.952.692-6.134-.993-9.728-6.368-13.588-4.064-2.919-4.453-3.556-4.177-6.844.218-2.602.952-3.947 2.597-4.763 1.447-.717 13.074-1.39 31.5-1.824 24.971-.587 30.077-.458 35.207.894 13.721 3.617 23.47 10.95 28.316 21.301 2.326 4.967 2.697 7.102 2.822 16.22.079 5.775.249 10.838.378 11.25.128.412.329 1.088.445 1.5.661 2.345 1.874 4.25 2.705 4.25.524 0 .631-.52.239-1.155-.46-.744-.273-.881.528-.387.835.517.911 1.098.231 1.778-1.396 1.396.692 5.768 2.747 5.749 1.391-.014 1.402-.136.089-.985-1.09-.704-1.142-.974-.191-.985.72-.008 1.057-.423.748-.922-.331-.536 7.741-.784 19.691-.605 14.417.215 20.464-.027 20.987-.843.404-.63.741-23.082.75-49.895L201 0H0zM.463 50c0 27.225.129 38.362.286 24.75s.157-35.888 0-49.5S.463 22.775.463 50m73.063 8.075c1.802 5.106 1.831 12.179.071 17.107l-1.315 3.683 23.109.094c23.401.095 32.001.857 39.479 3.495l4.13 1.457v-4.806c0-10.133-4.188-16.594-13.838-21.348l-6.61-3.257-23.25-.301-23.249-.301zM35 100.954c.825.559 2.363 1.022 3.417 1.031 2.558.02 1.76-.552-1.917-1.375-2.191-.49-2.595-.397-1.5.344M81 105c1.958 1.266 3.282 1.266 2.5 0-.34-.55-1.379-.993-2.309-.985-1.457.014-1.484.15-.191.985m-23.187.683c.721.289 1.584.253 1.916-.079s-.258-.568-1.312-.525c-1.165.048-1.402.285-.604.604M142 107c-.901.582-1.025.975-.309.985.655.008 1.469-.435 1.809-.985.767-1.242.421-1.242-1.5 0"/><path fill-opacity=".142" fill-rule="evenodd" d="M0 24.907v24.906l23.25-.274c12.788-.151 23.923-.447 24.746-.657s2.398-1.732 3.5-3.382 2.521-3.097 3.154-3.217c.632-.119 6.594-.276 13.25-.349 8.368-.092 12.105-.488 12.115-1.284.01-.711.344-.631.877.209.604.954 2.013 1.176 4.734.745 4.973-.788 28.404-1.038 30.374-.325 4.101 1.485 5.911 1.446 6.331-.136.396-1.489.448-1.485.553.04.101 1.462 2.655 3.097 4.116 2.635.275-.087 2.412 1.049 4.75 2.524S136 48.694 136 48.29s.733.311 1.628 1.589c1.012 1.445 1.881 1.915 2.297 1.243.449-.727 10.496-1.171 30.622-1.352l29.953-.27.267-24.75.268-24.75H0zm.434.593c-.001 13.75.14 19.514.313 12.808.172-6.705.173-17.955.001-25C.576 6.264.434 11.75.434 25.5M48 45c0 .55.477 1 1.059 1s.781-.45.441-1-.816-1-1.059-1-.441.45-.441 1m.733 6.124c.679.684 1.486.991 1.793.683.308-.308-.247-.867-1.233-1.243-1.425-.542-1.54-.428-.56.56m93.81 1.807c-.317.512-.193 1.167.274 1.456s.85-.13.85-.931c0-1.686-.316-1.833-1.124-.525M75.015 55.78c.013 1.383.189 1.447.899.324.486-.767 1.533-1.146 2.326-.842s1.983.218 2.645-.191c.681-.421-.334-.801-2.341-.877-2.742-.103-3.541.256-3.529 1.586m18.254-1.087c.973.254 2.323.237 3-.037s-.119-.481-1.769-.461-2.204.244-1.231.498m6.481-.031c.688.278 1.813.278 2.5 0 .688-.277.125-.504-1.25-.504s-1.937.227-1.25.504m13.853.171c-.283.459.12.834.897.834s1.18-.375.897-.834S114.71 54 114.5 54s-.614.375-.897.833m31.476 1.858c-.114 1.721 1.656 2.548 2.506 1.171.432-.698.292-.904-.345-.51-.588.363-1.297.095-1.576-.596-.362-.899-.529-.917-.585-.065m3.485 6.602c.376.986.935 1.541 1.243 1.233s.001-1.114-.683-1.793c-.988-.98-1.102-.865-.56.56"/></svg>