<svg xmlns="http://www.w3.org/2000/svg" width="32" height="32" version="1.1" fill="#000000"><path fill-opacity=".322" d="M 7.750 6.572 C 5.106 8.006, 5 8.370, 5 16.006 C 5 23.790, 5.059 23.979, 7.950 25.474 C 9.573 26.313, 13.195 27, 16 27 C 18.805 27, 22.427 26.313, 24.050 25.474 C 26.941 23.979, 27 23.791, 27 16 C 27 8.209, 26.941 8.021, 24.050 6.526 C 20.316 4.595, 11.348 4.620, 7.750 6.572" stroke="none" fill="#000000" fill-rule="evenodd"/><path fill-opacity=".127" d="M 10 5.709 C 5.964 7.193, 5 9.210, 5 16.170 C 5 22.824, 5.098 23.091, 8.250 25.070 C 12.163 27.528, 20.342 27.316, 24.408 24.652 C 26.788 23.093, 27 22.383, 27 15.962 C 27 9.147, 26.918 8.921, 23.750 6.989 C 20.616 5.078, 13.514 4.417, 10 5.709 M 8.713 9.621 C 7.363 10.971, 8.004 13.932, 9.862 14.926 C 12.296 16.229, 15.354 14.088, 14.850 11.434 C 14.479 9.481, 10.135 8.198, 8.713 9.621" stroke="none" fill="#000000" fill-rule="evenodd"/><path fill-opacity=".443" d="M 9.250 6.491 L 6 7.903 6 15.917 C 6 24.804, 6.281 25.212, 13.312 26.531 C 15.921 27.020, 18.462 26.714, 21.543 25.537 L 26 23.835 26 15.866 L 26 7.898 22.532 6.449 C 18.206 4.641, 13.471 4.656, 9.250 6.491 M 9.040 9.452 C 6.392 12.642, 10.299 17.657, 13.416 15.070 C 15.297 13.508, 15.470 10.870, 13.800 9.200 C 12.197 7.597, 10.505 7.686, 9.040 9.452 M 19.500 14 C 19.160 14.550, 19.332 15, 19.882 15 C 20.432 15, 21.160 14.550, 21.500 14 C 21.840 13.450, 21.668 13, 21.118 13 C 20.568 13, 19.840 13.450, 19.500 14" stroke="none" fill="#000000" fill-rule="evenodd"/><path fill-opacity=".429" d="M 10 6.306 L 6.500 7.500 6.206 15.371 L 5.912 23.242 10.493 20.557 L 15.075 17.872 16.788 19.966 C 17.729 21.118, 20.188 22.331, 22.250 22.661 L 26 23.262 26 15.739 L 26 8.217 21.980 6.609 C 17.287 4.731, 14.804 4.668, 10 6.306 M 8 10 C 6.504 12.795, 8.374 16, 11.500 16 C 14.626 16, 16.496 12.795, 15 10 C 14.381 8.842, 12.906 8, 11.500 8 C 10.094 8, 8.619 8.842, 8 10 M 19 14.500 C 19 15.325, 19.395 16, 19.878 16 C 20.360 16, 21.315 15.325, 22 14.500 C 23.040 13.247, 22.896 13, 21.122 13 C 19.902 13, 19 13.638, 19 14.500" stroke="none" fill="#000000" fill-rule="evenodd"/></svg>