<svg xmlns="http://www.w3.org/2000/svg" width="96" height="96" version="1.1" fill="#000000"><path fill-opacity=".31" d="M 37 6.431 C 30.144 8.339, 24.227 11.708, 18.774 16.808 C -3.697 37.827, 2.443 73.893, 30.777 87.315 C 37.006 90.266, 38.272 90.500, 48 90.500 C 57.845 90.500, 58.951 90.289, 65.730 87.111 C 74.849 82.837, 82.772 74.815, 87.285 65.288 C 90.270 58.986, 90.500 57.749, 90.500 48 C 90.500 38.261, 90.268 37.010, 87.299 30.741 C 78.108 11.339, 56.644 0.965, 37 6.431 M 44 40.706 C 42.051 41.419, 38 45.111, 38 46.174 C 38 46.628, 39.350 47, 41 47 C 43.946 47, 45.137 45.546, 42.823 44.774 C 41.391 44.297, 42.641 41.988, 44.309 42.029 C 44.964 42.045, 47.021 43.442, 48.881 45.132 L 52.261 48.205 48.691 51.775 C 45.647 54.820, 44.890 55.153, 43.548 54.040 C 42.349 53.045, 42.245 52.410, 43.110 51.367 C 44.029 50.261, 43.650 50, 41.122 50 C 37.381 50, 36.946 52.148, 40.223 54.443 C 43.017 56.401, 44.365 56.395, 48.552 54.409 C 54.832 51.428, 55.334 43.218, 49.374 40.952 C 46.639 39.912, 46.224 39.893, 44 40.706 M 20.392 46.750 C 19.477 49.913, 18.499 53.108, 18.218 53.851 C 17.883 54.739, 18.329 55.082, 19.515 54.851 C 20.622 54.636, 21.784 52.952, 22.517 50.500 C 23.732 46.435, 24.226 46.732, 25.436 52.250 C 26.254 55.987, 27.231 55.713, 29.880 51 C 31.293 48.485, 32.847 47, 34.064 47 C 35.548 47, 36 46.300, 36 44 C 36 39.712, 32.857 39.994, 30.430 44.500 C 29.393 46.425, 28.248 48, 27.884 48 C 27.520 48, 26.927 46.425, 26.566 44.500 C 26.085 41.938, 25.393 41, 23.983 41 C 22.497 41, 21.675 42.315, 20.392 46.750 M 55.407 43.250 C 55.760 44.487, 56.564 47.638, 57.196 50.250 C 57.977 53.482, 58.860 55, 59.959 55 C 61.603 55, 69.628 42.294, 68.620 41.287 C 67.452 40.119, 64.909 42.124, 63.313 45.469 C 62.387 47.411, 61.302 49, 60.903 49 C 60.503 49, 59.872 47.200, 59.500 45 C 58.971 41.870, 58.383 41, 56.795 41 C 55.168 41, 54.894 41.446, 55.407 43.250 M 69.524 46.657 C 69.135 49.768, 68.585 52.918, 68.301 53.657 C 67.922 54.645, 68.857 55, 71.834 55 C 76.225 55, 78.452 53.345, 74.765 52.821 C 71.832 52.405, 71.821 49.596, 74.750 49.180 C 77.539 48.784, 77.678 47.410, 75 46.710 C 72.156 45.967, 72.519 44, 75.500 44 C 77.056 44, 78 43.433, 78 42.500 C 78 41.424, 76.902 41, 74.115 41 L 70.230 41 69.524 46.657 M 32.667 50.667 C 31.175 52.159, 32.049 55, 34 55 C 35.467 55, 36 54.333, 36 52.500 C 36 50.147, 34.185 49.149, 32.667 50.667" stroke="none" fill="#000000" fill-rule="evenodd"/><path fill-opacity=".221" d="M 40 6.098 C 27.821 8.476, 15.673 17.824, 10.131 29.083 C -2.620 54.984, 12.994 85.048, 41.836 90.128 C 69.145 94.938, 94.659 69.378, 90.100 41.777 C 87.738 27.470, 79.149 15.865, 66.496 9.881 C 57.050 5.414, 49.224 4.297, 40 6.098 M 20.128 46.250 C 19.054 49.688, 17.848 53.327, 17.447 54.338 C 16.847 55.851, 17.136 56.116, 19.081 55.838 C 20.865 55.583, 21.727 54.520, 22.601 51.500 L 23.759 47.500 24.463 50.500 C 26.113 57.532, 26.652 57.629, 30 51.500 C 31.482 48.786, 33.161 47, 34.229 47 C 35.586 47, 36 46.182, 36 43.500 C 36 38.754, 33.004 38.721, 30.463 43.439 C 28.341 47.378, 27.507 47.287, 26.654 43.021 C 26.225 40.877, 25.474 40, 24.065 40 C 22.505 40, 21.662 41.338, 20.128 46.250 M 40.635 42.073 C 36.830 45.066, 37.217 47, 41.622 47 C 44.773 47, 45.078 46.799, 43.965 45.458 C 43.154 44.481, 43.034 43.566, 43.637 42.963 C 44.240 42.360, 45.857 43.079, 48.044 44.920 L 51.500 47.830 48.052 51.417 C 45.850 53.707, 44.257 54.657, 43.644 54.044 C 43.032 53.432, 43.147 52.527, 43.965 51.542 C 45.083 50.195, 44.724 50, 41.122 50 C 36.549 50, 36.012 51.012, 39 54 C 43.844 58.844, 54 54.157, 54 47.077 C 54 40.624, 46.193 37.700, 40.635 42.073 M 54.808 40.525 C 54.096 41.237, 57.721 54.121, 58.989 55.389 C 60.305 56.705, 61.185 55.786, 66.193 47.867 C 68.408 44.365, 69.987 42.217, 69.702 43.093 C 69.416 43.970, 68.861 47.261, 68.468 50.407 L 67.754 56.127 72.118 55.814 C 75.327 55.583, 76.571 55.037, 76.815 53.750 C 77.044 52.539, 76.508 52, 75.073 52 C 73.933 52, 73 51.550, 73 51 C 73 50.450, 73.852 50, 74.893 50 C 76.461 50, 78 48.226, 78 46.418 C 78 46.188, 76.785 46, 75.300 46 C 72.319 46, 73.188 44.431, 76.500 43.833 C 77.600 43.635, 78.500 42.804, 78.500 41.986 C 78.500 40.864, 76.990 40.428, 72.334 40.204 L 66.168 39.909 63.632 44.161 C 61.459 47.805, 61.006 48.133, 60.467 46.457 C 58.926 41.667, 57.951 40, 56.688 40 C 55.943 40, 55.097 40.236, 54.808 40.525 M 32 53 C 32 55.333, 32.444 56, 34 56 C 35.556 56, 36 55.333, 36 53 C 36 50.667, 35.556 50, 34 50 C 32.444 50, 32 50.667, 32 53" stroke="none" fill="#000000" fill-rule="evenodd"/><path fill-opacity=".139" d="M 36.204 7.206 C 34.304 7.846, 33.106 8.833, 33.375 9.536 C 34.189 11.655, 31.907 13.050, 30.284 11.427 C 28.661 9.804, 26.832 10.398, 27.565 12.308 C 27.827 12.993, 26.253 15.300, 24.066 17.436 C 20.925 20.502, 19.799 21.078, 18.707 20.172 C 17.625 19.274, 16.801 19.584, 14.913 21.597 L 12.500 24.170 14.858 26.083 C 16.155 27.135, 16.975 28.624, 16.680 29.392 C 15.899 31.427, 9.247 36.271, 8.158 35.597 C 7.647 35.282, 7.020 36.117, 6.764 37.455 C 6.411 39.300, 7.229 40.794, 10.154 43.651 L 14.009 47.415 9.817 51.686 C 7.511 54.036, 5.923 56.257, 6.288 56.622 C 6.653 56.986, 7.646 56.709, 8.495 56.004 C 10.145 54.635, 9.804 54.435, 17.730 61.435 L 21.053 64.370 16.853 68.650 C 12.483 73.102, 12.501 73.176, 18.250 74.436 C 21.119 75.064, 21.787 74.187, 19.887 72.287 C 19.275 71.675, 19.077 70.685, 19.446 70.087 C 19.874 69.396, 21.580 70.175, 24.140 72.233 L 28.163 75.465 24.911 78.371 C 21.779 81.169, 21.730 81.329, 23.579 82.682 C 25.932 84.403, 29.868 85.465, 30.724 84.610 C 31.070 84.263, 30.487 83.336, 29.427 82.551 C 27.690 81.263, 27.652 80.968, 29.041 79.555 C 30.438 78.136, 30.948 78.362, 34.451 81.950 C 37.648 85.223, 38.105 86.169, 37.086 87.396 C 36.044 88.652, 36.416 88.987, 39.485 89.563 C 41.483 89.938, 46.873 90.048, 51.463 89.807 C 58.319 89.447, 60.992 88.786, 66.434 86.107 C 74.907 81.936, 81.959 74.860, 86.173 66.301 C 89.360 59.827, 89.500 59.056, 89.500 48 C 89.500 36.944, 89.360 36.173, 86.173 29.699 C 81.907 21.033, 74.839 13.989, 66.257 9.849 C 60.199 6.926, 58.466 6.564, 49.500 6.343 C 44 6.207, 38.017 6.596, 36.204 7.206 M 36.967 10.535 L 34.639 13.013 37.319 15.811 C 38.794 17.350, 40.001 18.810, 40.001 19.055 C 40.002 19.300, 37.512 19.345, 34.469 19.156 C 27.129 18.699, 26.220 19.142, 26.773 22.907 L 27.227 26 33.801 26 L 40.374 26 37.483 29.018 L 34.591 32.036 36.674 34.118 C 39.312 36.756, 40.562 36.117, 48.435 28.106 L 54.371 22.067 52.435 19.922 C 51.371 18.741, 47.979 15.589, 44.897 12.917 L 39.295 8.057 36.967 10.535 M 18.409 23.387 C 17.618 24.248, 17.663 24.896, 18.572 25.745 C 19.532 26.642, 20.082 26.606, 20.925 25.590 C 22.436 23.770, 20.010 21.646, 18.409 23.387 M 54.010 25.488 C 52.646 27.132, 53.142 27.458, 58.250 28.280 C 61.662 28.829, 61.778 27.740, 58.535 25.615 C 55.530 23.646, 55.539 23.646, 54.010 25.488 M 23.231 26.169 C 22.293 27.107, 22.389 27.772, 23.669 29.186 C 25.229 30.911, 25.102 31, 21.082 31 C 17.594 31, 16.912 31.306, 17.188 32.750 C 17.406 33.888, 18.742 34.677, 21.011 35.006 C 23.259 35.333, 24.055 35.798, 23.250 36.315 C 22.563 36.757, 22 37.541, 22 38.059 C 22 39.959, 25.670 38.920, 29.038 36.066 L 32.500 33.132 28.468 29.048 C 25.324 25.865, 24.170 25.230, 23.231 26.169 M 48 33 C 48 34.556, 48.667 35, 51 35 C 53.333 35, 54 34.556, 54 33 C 54 31.444, 53.333 31, 51 31 C 48.667 31, 48 31.444, 48 33 M 15.500 36 C 15.840 36.550, 15.399 37, 14.520 37 C 13.200 37, 13.146 37.248, 14.211 38.424 C 15.283 39.608, 15.730 39.624, 16.868 38.520 C 18.272 37.157, 17.668 35, 15.882 35 C 15.332 35, 15.160 35.450, 15.500 36 M 54.471 38.047 C 54.115 38.624, 54.351 41.436, 54.996 44.297 C 58.157 58.325, 59.596 59.084, 65.291 49.728 L 69.083 43.500 68.456 48 C 67.860 52.289, 67 54.714, 67 52.108 C 67 51.434, 66.521 51.178, 65.935 51.540 C 63.620 52.971, 68.184 56, 72.655 56 C 76.333 56, 77 55.693, 77 54 C 77 52.667, 76.333 52, 75 52 C 73.900 52, 73 51.550, 73 51 C 73 50.450, 73.942 50, 75.094 50 C 76.346 50, 77.397 49.197, 77.710 48 C 77.998 46.900, 78.553 46, 78.943 46 C 79.334 46, 79.453 44.631, 79.207 42.957 L 78.760 39.914 72.158 40.207 C 65.626 40.497, 65.532 40.542, 63.366 44.411 L 61.176 48.321 59.945 44.211 C 59.096 41.375, 58.061 39.973, 56.607 39.687 C 54.934 39.358, 55.054 39.244, 57.191 39.136 C 60.981 38.944, 61.825 37, 58.118 37 C 56.468 37, 54.827 37.471, 54.471 38.047 M 65.500 38 C 65.160 38.550, 65.584 39, 66.441 39 C 67.298 39, 68 38.550, 68 38 C 68 37.450, 67.577 37, 67.059 37 C 66.541 37, 65.840 37.450, 65.500 38 M 19 39.417 C 19 40.196, 19.491 40.997, 20.092 41.197 C 20.840 41.447, 20.659 43.364, 19.517 47.293 C 18.600 50.446, 17.533 52.830, 17.146 52.590 C 16.558 52.227, 16.479 54.194, 16.919 58.250 C 16.963 58.663, 19.925 59, 23.500 59 C 27.075 59, 30 59.247, 30 59.548 C 30 59.849, 28.767 61.157, 27.259 62.453 C 24.553 64.781, 24.543 64.837, 26.414 66.905 C 27.457 68.057, 28.817 69, 29.436 69 C 30.056 69, 33.151 66.384, 36.315 63.187 L 42.067 57.374 39.618 56.063 C 38.271 55.342, 36.928 53.795, 36.634 52.626 C 36.186 50.846, 36.430 50.947, 38.133 53.250 C 42.701 59.427, 54 54.954, 54 46.968 C 54 42.455, 51.350 40, 46.477 40 C 44.785 40, 42.899 39.499, 42.287 38.887 C 41.016 37.616, 38.664 38.647, 39.553 40.085 C 39.875 40.606, 40.670 40.708, 41.319 40.311 C 41.969 39.914, 41.199 41.141, 39.609 43.038 L 36.719 46.488 39.839 47.383 C 42.034 48.012, 43.411 47.903, 44.480 47.017 C 46.434 45.395, 46.446 43.892, 44.500 44.638 C 43.675 44.955, 43 44.742, 43 44.166 C 43 41.949, 44.697 42.260, 47.912 45.068 C 50.632 47.442, 51.032 48.257, 50.055 49.434 C 49.394 50.230, 48.324 50.757, 47.677 50.604 C 47.030 50.452, 46.856 50.523, 47.292 50.761 C 48.407 51.372, 46.042 54, 44.378 54 C 42.695 54, 42.567 52.386, 44.171 51.394 C 45.874 50.342, 42.401 49.401, 37.013 49.455 C 32.851 49.497, 32.479 49.717, 31.881 52.500 C 31.527 54.150, 31.183 54.837, 31.118 54.027 C 31.035 52.996, 30.534 53.220, 29.443 54.777 C 28.587 56, 27.462 57, 26.943 57 C 26.424 57, 26.787 56.170, 27.750 55.157 C 28.712 54.143, 30.283 51.864, 31.241 50.092 C 32.198 48.320, 33.385 47.120, 33.877 47.424 C 35.295 48.300, 37.186 45.339, 36.827 42.805 C 36.614 41.304, 35.715 40.388, 34.250 40.180 C 33.013 40.005, 32 39.456, 32 38.962 C 32 38.467, 31.314 38.326, 30.474 38.648 C 29.337 39.085, 29.227 39.569, 30.041 40.550 C 30.842 41.515, 30.748 42.603, 29.689 44.625 L 28.243 47.384 27.527 44.124 C 27.134 42.332, 26.066 40.637, 25.156 40.359 C 24.245 40.081, 22.719 39.437, 21.764 38.927 C 19.424 37.678, 19 37.753, 19 39.417 M 15 43.607 C 15 44.662, 15.544 45.005, 16.582 44.607 C 17.452 44.273, 18.577 44, 19.082 44 C 19.587 44, 20 43.550, 20 43 C 20 42.450, 18.875 42, 17.500 42 C 15.870 42, 15 42.560, 15 43.607 M 74 45 C 74 45.550, 74.927 46, 76.059 46 C 77.191 46, 77.840 45.550, 77.500 45 C 77.160 44.450, 76.234 44, 75.441 44 C 74.648 44, 74 44.450, 74 45 M 22.479 52.262 C 21.930 55.188, 21.288 55.965, 19.149 56.293 L 16.500 56.700 19.344 56.850 C 21.499 56.964, 22.326 56.468, 22.762 54.804 C 23.310 52.707, 23.371 52.696, 24.098 54.554 C 24.767 56.265, 24.866 56.198, 24.914 54 C 24.945 52.625, 24.562 50.856, 24.064 50.069 C 23.393 49.009, 22.983 49.576, 22.479 52.262 M 53.676 52.402 C 53.111 53.874, 53.758 55, 55.167 55 C 55.625 55, 56 54.100, 56 53 C 56 50.707, 54.477 50.315, 53.676 52.402 M 32.750 56.662 C 33.438 56.940, 34.563 56.940, 35.250 56.662 C 35.938 56.385, 35.375 56.158, 34 56.158 C 32.625 56.158, 32.063 56.385, 32.750 56.662 M 46 59.500 C 46 61.282, 46.541 62, 47.885 62 C 48.922 62, 50.507 60.875, 51.408 59.500 L 53.046 57 49.523 57 C 46.432 57, 46 57.306, 46 59.500 M 7.015 59.536 C 7.043 61.257, 8.871 63.463, 9.636 62.697 C 10.046 62.288, 9.620 61.192, 8.690 60.262 C 7.761 59.332, 7.007 59.005, 7.015 59.536 M 39.984 64.519 C 38.957 65.757, 39.027 66.372, 40.362 67.847 C 42.856 70.603, 42.424 71, 36.930 71 C 32.264 71, 31.886 71.177, 32.180 73.220 C 32.466 75.208, 32.998 75.410, 37.250 75.145 C 42.391 74.825, 42.908 75.340, 40.317 78.202 C 38.739 79.946, 38.739 80.168, 40.318 81.746 C 41.896 83.325, 42.349 83.088, 47.547 77.965 L 53.093 72.500 50.296 70.230 C 48.758 68.982, 46.370 66.845, 44.989 65.480 C 42.050 62.577, 41.659 62.501, 39.984 64.519 M 18 78 C 18 78.550, 18.423 79, 18.941 79 C 19.459 79, 20.160 78.550, 20.500 78 C 20.840 77.450, 20.416 77, 19.559 77 C 18.702 77, 18 77.450, 18 78" stroke="none" fill="#000000" fill-rule="evenodd"/><path fill-opacity=".136" d="M 36.814 7.188 C 34.520 7.798, 33.309 8.643, 33.609 9.424 C 34.352 11.359, 31.197 13.597, 29.758 12.158 C 28.216 10.616, 26.942 10.684, 27.553 12.276 C 27.822 12.978, 26.240 15.313, 24.036 17.464 C 20.427 20.989, 20.178 21.540, 21.523 23.026 C 22.856 24.499, 22.799 24.872, 20.992 26.507 C 19.028 28.284, 18.926 28.282, 17.558 26.419 C 16.521 25.007, 16.459 24.368, 17.324 24 C 18.781 23.381, 19.367 20.345, 18.172 19.606 C 17.687 19.307, 16.323 20.092, 15.140 21.351 L 12.989 23.641 15.514 26.013 L 18.039 28.385 13.890 32.612 C 11.555 34.991, 9.143 36.608, 8.371 36.312 C 7.459 35.962, 7 36.543, 7 38.047 C 7 39.456, 8.541 41.628, 11.090 43.809 L 15.179 47.309 10.542 51.273 C 7.991 53.454, 6.140 55.473, 6.428 55.761 C 6.716 56.049, 7.645 55.710, 8.492 55.007 C 9.795 53.926, 10.860 54.481, 15.408 58.614 C 18.365 61.301, 20.833 63.974, 20.892 64.554 C 20.951 65.133, 19.425 67.134, 17.500 69 C 15.575 70.866, 14 72.754, 14 73.196 C 14 73.638, 15.440 74, 17.200 74 C 19.689 74, 20.133 73.733, 19.200 72.800 C 17.570 71.170, 17.691 70.332, 19.668 69.574 C 20.770 69.151, 22.468 70.031, 24.671 72.166 L 28.006 75.398 24.896 78.607 C 21.869 81.730, 21.841 81.844, 23.828 82.908 C 24.950 83.508, 26.853 84, 28.057 84 C 29.799 84, 30.012 83.720, 29.105 82.627 C 27.954 81.240, 28.566 78, 29.978 78 C 30.399 78, 32.713 79.766, 35.121 81.924 C 39.361 85.723, 39.437 85.895, 37.521 87.328 C 35.658 88.721, 35.827 88.852, 40.365 89.532 C 47.551 90.610, 57.734 89.526, 64.500 86.963 C 72.878 83.789, 83.727 72.972, 87.027 64.500 C 90.251 56.225, 90.796 43.660, 88.283 35.532 L 86.437 29.564 83.049 34.282 L 79.661 39 72.330 39 C 68.110 39, 65 38.576, 65 38 C 65 36.337, 62.422 36.876, 60.565 38.928 C 59.470 40.139, 59.133 41.348, 59.660 42.178 C 60.834 44.026, 63.257 43.825, 64.807 41.750 C 65.811 40.405, 67.579 40, 72.440 40 C 78.546 40, 78.786 40.096, 79.301 42.750 C 79.595 44.263, 79.422 45.650, 78.918 45.833 C 78.413 46.017, 78 47.029, 78 48.083 C 78 49.461, 77.297 50, 75.500 50 C 74.125 50, 73 50.450, 73 51 C 73 51.550, 73.900 52, 75 52 C 76.333 52, 77 52.667, 77 54 C 77 55.720, 76.333 56, 72.241 56 C 68.635 56, 67.191 55.536, 66.285 54.085 C 65.328 52.553, 65.380 51.929, 66.545 50.963 C 68.190 49.597, 68.470 48, 67.064 48 C 66.549 48, 65.098 49.833, 63.839 52.073 C 62.019 55.311, 61.089 56.059, 59.305 55.718 C 58.070 55.482, 57.298 55.674, 57.589 56.144 C 58.318 57.323, 61.745 57.222, 62.500 56 C 63.587 54.240, 66 54.930, 66 57 C 66 58.818, 66.667 59, 73.317 59 L 80.634 59 80.067 63.250 L 79.500 67.500 68.559 67.786 C 62.378 67.947, 57.031 68.560, 56.267 69.193 C 55.266 70.024, 54.615 70.015, 53.758 69.158 C 53.121 68.521, 51.712 68, 50.626 68 C 48.730 68, 48.740 68.095, 50.876 70.368 L 53.100 72.735 47.300 78.324 C 41.574 83.841, 41.475 83.888, 39.563 81.992 C 37.680 80.124, 37.677 80.014, 39.468 78.035 C 41.296 76.016, 41.274 76, 36.655 76 C 32.149 76, 32 75.904, 32 73 C 32 70.096, 32.149 70, 36.655 70 C 41.274 70, 41.296 69.984, 39.468 67.965 C 37.674 65.982, 37.682 65.873, 39.788 63.767 L 41.951 61.605 44.282 63.795 C 46.088 65.492, 46.883 65.717, 47.807 64.793 C 49.563 63.037, 49.264 62, 47 62 C 45.533 62, 45 61.333, 45 59.500 C 45 58.125, 44.449 57, 43.775 57 C 43.101 57, 39.542 59.986, 35.864 63.635 L 29.178 70.269 26.539 67.630 L 23.900 64.990 26.700 62.527 L 29.500 60.063 23.500 59.976 C 18.210 59.900, 17.246 59.567, 15.354 57.162 C 13.444 54.735, 13.366 54.220, 14.644 52.473 C 15.876 50.787, 16.212 50.721, 17.024 52.005 C 17.809 53.246, 17.999 53.160, 18.143 51.500 C 18.239 50.400, 18.251 48.712, 18.170 47.750 C 18.090 46.788, 18.468 46, 19.012 46 C 19.555 46, 20 45.628, 20 45.173 C 20 44.718, 18.650 44.545, 17 44.787 C 14.657 45.131, 14 44.850, 14 43.504 C 14 42.127, 14.696 41.862, 17.470 42.186 C 20.643 42.557, 20.812 42.450, 19.445 40.939 C 18.186 39.548, 18.165 39.108, 19.317 38.152 C 20.069 37.528, 20.916 37.249, 21.200 37.533 C 21.483 37.816, 22.284 37.362, 22.980 36.524 C 24.067 35.215, 23.810 35, 21.154 35 C 18.981 35, 18.216 35.398, 18.577 36.340 C 18.860 37.077, 18.322 38.314, 17.383 39.090 C 16.061 40.181, 15.580 40.218, 15.254 39.250 C 15.023 38.562, 14.083 37.999, 13.167 37.999 C 11.916 37.998, 12.186 37.407, 14.250 35.632 C 15.762 34.332, 17 32.757, 17 32.134 C 17 31.496, 18.598 31, 20.655 31 C 24.153 31, 24.238 30.920, 22.630 29.143 C 21.153 27.512, 21.129 27.138, 22.431 26.057 C 23.246 25.381, 24.382 25.118, 24.956 25.473 C 25.606 25.874, 26 24.791, 26 22.605 L 26 19.091 32.651 18.796 L 39.303 18.500 36.684 15.394 L 34.065 12.288 36.461 10.037 C 37.779 8.799, 39.271 7.946, 39.777 8.143 C 40.283 8.339, 43.936 11.470, 47.895 15.101 L 55.094 21.702 47.633 28.937 C 40.283 36.064, 40.200 36.200, 42.086 38.086 C 43.208 39.208, 45.383 40, 47.345 40 C 51.545 40, 54 42.593, 54 47.029 C 54 49.519, 54.293 50.107, 55.121 49.279 C 55.949 48.451, 55.830 46.951, 54.668 43.539 C 53.802 40.998, 53.334 38.293, 53.627 37.529 C 54.005 36.545, 53.186 36.045, 50.830 35.819 C 48.030 35.551, 47.500 35.102, 47.500 33 C 47.500 30.924, 48.009 30.473, 50.500 30.342 C 52.150 30.255, 53.893 30.142, 54.372 30.092 C 54.852 30.041, 54.678 29.317, 53.984 28.481 C 52.952 27.238, 53.052 26.600, 54.536 24.961 C 56.342 22.965, 56.355 22.966, 58.978 25.479 C 61.484 27.880, 62.167 28, 73.305 28 C 79.964 28, 85 27.594, 85 27.057 C 85 25.284, 73.921 14.144, 69.707 11.679 C 60.837 6.491, 46.691 4.559, 36.814 7.188 M 27 26.514 C 27 26.797, 28.397 28.277, 30.105 29.803 L 33.210 32.577 29.342 36.072 C 25.776 39.293, 25.572 39.759, 26.722 42.033 C 27.409 43.390, 27.977 43.889, 27.985 43.143 C 27.994 42.350, 28.623 42.025, 29.500 42.362 C 30.325 42.678, 31 42.549, 31 42.076 C 31 41.602, 30.292 40.942, 29.426 40.610 C 28.015 40.068, 28.027 39.830, 29.548 38.309 C 31.141 36.716, 31.319 36.716, 32.482 38.307 C 33.163 39.238, 34.458 40, 35.360 40 C 36.262 40, 37 40.675, 37 41.500 C 37 43.181, 39.545 43.545, 40.500 42 C 40.840 41.450, 40.593 41, 39.952 41 C 39.274 41, 39.054 40.302, 39.426 39.332 C 39.847 38.236, 39.001 36.565, 36.962 34.461 L 33.857 31.257 36.429 29.235 C 37.843 28.122, 39 26.939, 39 26.606 C 39 26.273, 36.300 26, 33 26 C 29.700 26, 27 26.231, 27 26.514 M 43.449 43.168 C 43.026 43.901, 43.048 44.166, 43.498 43.759 C 43.948 43.351, 44.923 43.521, 45.665 44.137 C 46.763 45.048, 46.501 45.719, 44.257 47.749 C 42.535 49.306, 42.157 50.021, 43.250 49.652 C 45.117 49.023, 45.684 50.459, 43.984 51.510 C 42.742 52.278, 43.668 54.006, 45.309 53.985 C 46.025 53.975, 45.901 53.582, 45 53 C 43.662 52.135, 44.260 51.578, 46.214 51.870 C 46.607 51.928, 46.671 51.306, 46.357 50.488 C 46.043 49.670, 46.284 49, 46.893 49 C 47.502 49, 48 49.546, 48 50.214 C 48 50.979, 48.626 50.803, 49.690 49.738 C 50.620 48.808, 51.180 47.924, 50.935 47.774 C 50.690 47.623, 49.079 46.226, 47.355 44.668 C 44.952 42.497, 44.040 42.147, 43.449 43.168 M 67.564 45.707 C 67.022 47.132, 67.136 47.247, 68.124 46.267 C 68.808 45.588, 69.115 44.781, 68.807 44.474 C 68.499 44.166, 67.940 44.721, 67.564 45.707 M 36 46.831 C 36 47.254, 36.540 48.140, 37.200 48.800 C 38.836 50.436, 40.057 50.312, 39.391 48.577 C 38.796 47.026, 36 45.586, 36 46.831 M 23.070 50.691 C 23.032 51.896, 23.450 53.160, 24 53.500 C 25.183 54.231, 25.183 53.252, 24 50.500 C 23.171 48.572, 23.138 48.579, 23.070 50.691 M 50.457 54.070 C 50.093 54.659, 48.829 55.516, 47.648 55.975 C 45.976 56.625, 46.443 56.805, 49.750 56.787 C 52.087 56.775, 54 56.629, 54 56.464 C 54 56.299, 53.727 55.452, 53.393 54.582 C 52.691 52.753, 51.409 52.530, 50.457 54.070" stroke="none" fill="#000000" fill-rule="evenodd"/></svg>