<svg width="395" height="500" viewBox="0 0 395 500" fill="#000000" xmlns="http://www.w3.org/2000/svg">
<path fill-rule="evenodd" clip-rule="evenodd" d="M149.244 4.97674C138.383 7.64717 121.101 14.0378 110.839 19.1738C100.578 24.3124 84.5601 34.6433 75.2405 42.1323C65.9234 49.6213 52.8376 63.0144 46.1602 71.8988C39.4829 80.7806 30.7957 94.4348 26.8579 102.239C22.9175 110.043 17.0595 125.028 13.8411 135.538C9.17108 150.793 7.96004 160.939 7.8397 185.803C7.75777 202.934 8.37225 217.633 9.20436 218.465C10.0365 219.297 19.2537 214.312 29.687 207.389C40.7118 200.074 56.6986 192.309 67.8591 188.847C82.4376 184.326 92.9196 182.915 111.385 182.989C129.351 183.063 140.393 184.592 153.63 188.837C163.488 191.999 175.782 197.122 180.954 200.223C186.123 203.321 201.677 213.529 215.519 222.905C232.064 234.114 246.693 241.787 258.233 245.308C270.003 248.9 282.776 250.664 297.009 250.664C311.372 250.664 323.89 248.918 335.734 245.259C345.358 242.286 358.611 236.334 365.18 232.032C374.756 225.765 377.429 222.388 378.645 215.034C379.48 209.988 380.176 196.41 380.192 184.861C380.207 173.314 378.973 157.76 377.45 150.296C375.929 142.835 372.467 130.628 369.761 123.169C367.055 115.711 362.385 104.791 359.381 98.9052C356.378 93.0164 349.588 82.414 344.291 75.3398C338.996 68.2656 329.072 57.1231 322.236 50.5737C315.402 44.027 303.474 34.6869 295.729 29.8222C287.984 24.955 275.886 18.3724 268.845 15.195C261.804 12.0151 246.826 7.2708 235.561 4.64901C223.251 1.784 205.884 -0.0696815 192.035 0.0020079C178.465 0.0736973 160.873 2.11684 149.244 4.97674ZM70.2376 214.865C60.9846 217.508 45.0823 224.474 34.8973 230.345C24.7149 236.216 12.3305 244.842 7.37628 249.514C-0.350805 256.804 -1.229 258.76 1.20076 263.297C2.75744 266.205 6.58258 268.584 9.70106 268.579C12.8196 268.576 24.0133 262.805 34.5747 255.754C45.1361 248.703 59.6071 240.74 66.7299 238.057C73.8554 235.374 88.8333 232.409 100.014 231.466C111.684 230.483 127.72 230.96 137.651 232.58C147.171 234.137 159.268 237.36 164.535 239.747C169.804 242.135 187.642 253.071 204.176 264.047C220.714 275.025 239.834 286.212 246.67 288.905C253.504 291.601 268.361 295.221 279.681 296.955C296.064 299.464 304.378 299.451 320.4 296.898C331.474 295.134 346.295 291.271 353.336 288.316C360.377 285.359 372.106 279.025 379.398 274.239C386.692 269.457 393.313 263.839 394.112 261.758C394.911 259.676 394.376 255.754 392.922 253.04C391.47 250.323 387.937 248.104 385.072 248.104C382.207 248.104 374.769 251.606 368.547 255.889C362.323 260.17 349.442 266.638 339.92 270.261C325.982 275.563 318.127 276.843 299.569 276.843C281.007 276.843 273.157 275.563 259.198 270.253C249.668 266.628 230.082 255.682 215.672 245.93C201.263 236.18 184.866 225.913 179.234 223.12C173.601 220.324 161.429 216.161 152.186 213.867C142.203 211.391 125.572 209.773 111.221 209.88C95.782 209.996 80.9885 211.795 70.2376 214.865ZM117.017 258.857C114.718 261.156 113.955 290.93 113.983 377.272C114.007 440.712 114.869 493.852 115.904 495.363C116.938 496.873 119.69 498.811 122.018 499.667C124.345 500.524 128.378 499.669 130.979 497.767C135.457 494.49 135.708 488.132 135.708 377.513C135.708 276.48 135.191 260.391 131.867 258.291C129.755 256.955 126.24 255.846 124.058 255.823C121.877 255.802 118.707 257.167 117.017 258.857ZM69.4132 262.395C68.558 264.623 67.8591 293.196 67.8591 325.892C67.8591 368.713 68.7193 386.198 70.9315 388.41C72.6213 390.1 76.4695 391.482 79.4804 391.482C82.8677 391.482 86.0938 388.991 87.9295 384.961C89.883 380.678 90.9021 360.09 90.9021 324.96C90.9021 295.547 89.7781 268.525 88.4057 264.912C86.5111 259.935 84.1018 258.345 78.4384 258.345C73.9885 258.345 70.34 259.983 69.4132 262.395ZM163.103 276.779C160.948 278.935 160.031 293.278 160.031 324.914C160.031 356.549 160.948 370.892 163.103 373.048C164.793 374.738 168.183 376.12 170.639 376.12C173.094 376.12 176.896 373.56 179.088 370.429C182.28 365.871 183.074 356.815 183.074 324.914C183.074 293.012 182.28 283.956 179.088 279.398C176.896 276.267 173.094 273.707 170.639 273.707C168.183 273.707 164.793 275.089 163.103 276.779ZM24.8454 284.46C22.6896 286.616 21.773 300.959 21.773 332.595C21.773 364.23 22.6896 378.573 24.8454 380.729C26.5353 382.419 29.9098 383.801 32.3447 383.801C34.777 383.801 38.5791 381.991 40.7938 379.779C44.1299 376.44 44.8161 368.437 44.8161 332.81C44.8161 294.456 44.3142 289.409 40.1332 285.625C37.5575 283.295 33.7554 281.388 31.6841 281.388C29.6128 281.388 26.5353 282.77 24.8454 284.46ZM207.725 305.783C206.839 308.087 206.117 316.132 206.117 323.659C206.117 332.692 207.487 338.719 210.139 341.374C212.354 343.586 215.014 345.396 216.051 345.396C217.091 345.396 219.948 343.929 222.401 342.134C226.049 339.466 226.72 335.621 226.09 321.012L225.32 303.151L217.326 302.372C211.778 301.832 208.839 302.877 207.725 305.783ZM347.448 315.184C345.463 317.169 344.375 327.418 344.375 344.116C344.375 360.815 345.463 371.064 347.448 373.048C349.137 374.738 352.512 376.12 354.947 376.12C357.379 376.12 361.181 374.31 363.396 372.098C366.473 369.018 367.418 362.502 367.418 344.331C367.418 324.578 366.63 319.875 362.735 316.349C360.16 314.019 356.358 312.112 354.286 312.112C352.215 312.112 349.137 313.494 347.448 315.184ZM255.893 320.866C251.21 324.291 250.923 328.081 250.923 386.362C250.923 444.642 251.21 448.432 255.893 451.857C258.627 453.855 261.794 455.491 262.933 455.491C264.073 455.491 267.309 453.186 270.125 450.37C274.949 445.546 275.246 441.836 275.246 386.362C275.246 330.887 274.949 327.177 270.125 322.353C267.309 319.537 264.073 317.233 262.933 317.233C261.794 317.233 258.627 318.869 255.893 320.866ZM302.77 325.118C298.724 327.476 298.289 333.04 298.289 382.559C298.289 434.767 298.535 437.52 303.41 440.129C307.048 442.074 310.013 442.074 313.651 440.129C318.526 437.52 318.772 434.767 318.772 382.521C318.772 330.897 318.48 327.497 313.82 325.003C311.096 323.546 308.502 322.389 308.059 322.43C307.614 322.474 305.235 323.682 302.77 325.118Z" fill="#000000"/>
</svg>
