<svg xmlns="http://www.w3.org/2000/svg" width="64" height="64" fill="#000000"><path fill-opacity=".22" fill-rule="evenodd" d="M21.882 1.321C13.461 4.468 7.135 10.077 2.759 18.278.876 21.805.505 24.063.503 32 .5 40.644.765 41.978 3.438 46.804c3.338 6.025 8.498 11.056 14.767 14.4 3.61 1.925 5.81 2.29 13.795 2.29s10.185-.365 13.795-2.29c6.645-3.544 11.707-8.679 14.75-14.965l3.617-7.475C65.376 36.249 65.234 23.738 64 24.5c-.55.34-1.004-.196-1.009-1.191-.015-2.878-5.502-11.673-9.441-15.131C47.219 2.619 42.298.689 33.5.312c-5.08-.217-9.32.151-11.618 1.009m-2.836 20.124c-.66.795-1.052 2.482-.873 3.75.259 1.822.956 2.305 3.327 2.305s3.068-.483 3.327-2.305c.599-4.228-3.291-6.751-5.781-3.75M40 22.953c0 3.23-2.07 6.758-4.657 7.937-1.341.61-4.812 1.11-7.716 1.11-6.286 0-9.415 2.553-9.852 8.037-.263 3.315-.121 3.476 3.339 3.765 3.51.294 3.632.188 4.253-3.695C26.223 34.754 28.913 33 36.268 33 43.481 33 47 30.228 47 24.545 47 21.16 46.842 21 43.5 21c-2.805 0-3.5.388-3.5 1.953M.336 32c0 4.125.177 5.813.392 3.75s.216-5.437 0-7.5C.513 26.188.336 27.875.336 32"/><path fill-opacity=".14" fill-rule="evenodd" d="M22.005 1.668C-.571 9.567-7.261 37.787 9.476 54.524 26.013 71.061 54.657 64.511 62.063 42.5c.74-2.2 1.703-4.428 2.141-4.95.966-1.153 1.079-13.167.115-12.203-.374.375-1.328-1.235-2.12-3.578C56.644 5.335 38.071-3.953 22.005 1.668m-4.047 20.41c-1.349 2.522-.728 4.44 1.893 5.842 1.525.816 2.479.634 4.27-.817 2.034-1.647 2.166-2.178 1.114-4.486-1.492-3.276-5.647-3.584-7.277-.539M39 24.345C39 29.078 36.464 31 30.218 31c-2.818 0-6.304.538-7.746 1.195C19.464 33.565 17 37.733 17 41.45c0 2.355.343 2.55 4.5 2.55 4.458 0 4.5-.032 4.5-3.427C26 35.493 29.637 33 37.046 33c5.222 0 6.024-.295 8.365-3.077 1.493-1.774 2.589-4.314 2.589-6C48 21.125 47.807 21 43.5 21c-4.436 0-4.5.047-4.5 3.345M.32 32c0 3.575.182 5.038.403 3.25s.222-4.712 0-6.5C.502 26.962.32 28.425.32 32"/><path fill-opacity=".386" fill-rule="evenodd" d="M25.147 1.034c-9.015 1.858-18.363 9.71-22.432 18.844-2.855 6.408-2.844 17.86.024 24.298C5.645 50.7 12.218 57.47 18.745 60.664c7.219 3.531 18.261 3.791 25.431.597C53.438 57.135 63 45.249 63 37.863c0-1.51.45-3.023 1-3.363s1-1.968 1-3.618c0-1.745-.418-2.742-1-2.382-.578.357-1-.591-1-2.245 0-7.326-9.52-19.409-18.324-23.259C39.469.72 30.865-.145 25.147 1.034M18.2 21.2c-3.232 3.232.394 8.698 4.835 7.289 2.438-.774 3.617-4.999 1.954-7.002-1.486-1.791-5.131-1.945-6.789-.287M39 23.5c0 5.457-2.746 7.5-10.077 7.5-5.383 0-6.411.334-9 2.923-2.141 2.141-2.923 3.88-2.923 6.5 0 3.573.005 3.577 4.5 3.577 4.253 0 4.5-.152 4.5-2.777 0-1.528.701-3.778 1.557-5C28.844 34.385 30.064 34 34.606 34 43.736 34 48 30.679 48 23.566c0-3.56-.008-3.566-4.5-3.566-4.476 0-4.5.019-4.5 3.5M.232 32c0 1.925.206 2.712.457 1.75.252-.962.252-2.538 0-3.5-.251-.962-.457-.175-.457 1.75"/><path fill-opacity=".21" fill-rule="evenodd" d="M23.25 20.028c1.512 1.176 2.802 3.114 2.866 4.305.094 1.763.203 1.831.583.369.534-2.06-1.095-4.36-4.117-5.812-1.303-.626-1.053-.2.668 1.138m20-.325 4.75.407v3.81c0 2.286-.839 4.964-2.098 6.695L43.805 33.5l2.649-2.866c2.136-2.31 2.591-3.668 2.348-7L48.5 19.5l-5-.102-5-.102zm-26.583 1.964c-1.288 1.288-.649 5.103 1.083 6.461 1.585 1.242 1.621 1.207.382-.372-.752-.96-1.152-2.872-.888-4.25.513-2.687.455-2.872-.577-1.839M38.195 23.5c.02 1.65.244 2.204.498 1.231s.237-2.323-.037-3-.481.119-.461 1.769m-2.323 5.25c-1.243 1.586-1.208 1.621.378.378C37.916 27.821 38.445 27 37.622 27c-.207 0-.995.788-1.75 1.75m-14.677.977c1.393.328 1.125.943-1.5 3.449L16.5 36.227l3.327-2.613C22.512 31.504 24.231 31 28.743 31c7.531 0 6.359-.628-2.243-1.203-3.85-.257-6.237-.289-5.305-.07m11.573 4.998c1.797.222 4.497.218 6-.01 1.503-.229.032-.411-3.268-.405s-4.529.192-2.732.415m-5.733 2.209c-.569 1.064-.983 3.202-.92 4.75.104 2.539.183 2.468.807-.718.381-1.944 1.031-4.081 1.444-4.75S28.882 35 28.594 35s-.989.87-1.559 1.934M16.252 40.5c.011 2.2.216 2.982.455 1.738s.23-3.044-.02-4-.446.062-.435 2.262"/></svg>