<svg xmlns="http://www.w3.org/2000/svg" width="20" height="20" fill="#000000"><path fill="#000000" d="M18.583 10.42c0 4.794-3.842 8.682-8.582 8.682S1.42 15.214 1.42 10.419s3.842-8.682 8.582-8.682 8.582 3.887 8.582 8.682Z"/><path fill="url(#a)" d="M7.813.198C5.098.645 2.162 3.057.86 5.893c-1.192 2.59-1.148 5.806.154 8.576.773 1.652 3.002 3.863 4.591 4.6 3.93 1.742 8.432 1.005 11.412-1.92 3.996-3.909 3.974-10.452-.044-14.316C14.48.422 11.5-.427 7.813.198Zm4.922 3.104c2.141.983 3.51 2.636 4.128 5.025.353 1.385.265 3.238-.177 3.238-.11 0-.883-.558-1.722-1.228-.816-.67-1.589-1.228-1.7-1.228-.11 0-.33.246-.485.558-.154.313-.375.559-.485.559-.11 0-.95-.604-1.877-1.34-.905-.737-1.743-1.34-1.81-1.34-.088 0-1.302 1.116-2.737 2.478-2.958 2.837-2.913 2.837-2.913-.245 0-2.211.419-3.283 1.942-4.869C6.444 3.302 7.437 2.9 10.02 2.878c1.302 0 2.009.112 2.715.424Zm-1.5 6.924c.065.066.44.401.86.736l.728.626.31-.603c.176-.313.308-.737.308-.916 0-.469.2-.335 1.766 1.094 1.347 1.251 1.369 1.296 1.104 1.943-.133.358-.64 1.072-1.104 1.564l-.816.915-1.038-.58c-1.17-.67-1.258-.916-.397-1.095 1.766-.38 2.295-.603 2.053-.848-.199-.201-.376-.179-.729.044-.243.157-1.103.38-1.92.492-1.7.245-2.009.469-1.501 1.05.53.58.463.915-.22 1.183-.928.357-2.186-.112-2.716-.983-.662-1.072-.552-1.898.464-3.595.883-1.497.949-1.854.53-2.926-.155-.357 1.544 1.028 2.317 1.899Z"/><defs><linearGradient id="a" x1="10.001" x2="7.62" y1="17.883" y2="-4.719" gradientUnits="userSpaceOnUse"><stop stop-color="#cfcfcf"/><stop offset=".294" stop-color="#b5b5b5"/><stop offset="1" stop-color="#8f8f8f"/></linearGradient></defs></svg>