<svg xmlns="http://www.w3.org/2000/svg" width="32" height="32" version="1.1" fill="#000000"><path fill-opacity=".18" d="M 11.500 8.175 C 8.354 10.031, 7.066 12.232, 7.032 15.816 C 7.014 17.639, 6.549 19.975, 5.997 21.005 C 5.298 22.311, 5.341 23.093, 6.139 23.586 C 7.731 24.570, 16.037 25.190, 18.722 24.526 C 22.230 23.658, 25 20.004, 25 16.246 C 25 14.388, 25.451 12.025, 26.003 10.995 C 26.688 9.714, 26.666 8.912, 25.932 8.458 C 23.876 7.187, 13.519 6.985, 11.500 8.175 M 23.500 10 C 23.160 10.550, 23.359 11, 23.941 11 C 24.523 11, 25 10.550, 25 10 C 25 9.450, 24.802 9, 24.559 9 C 24.316 9, 23.840 9.450, 23.500 10 M 12.918 13.014 C 11.214 13.412, 10.407 14.379, 10.184 16.290 C 9.810 19.489, 11.713 20.003, 12.180 16.828 C 12.356 15.634, 13.126 14.450, 13.891 14.198 C 14.944 13.851, 15.122 14.379, 14.622 16.370 C 14.239 17.897, 14.381 19, 14.962 19 C 15.512 19, 16.244 17.875, 16.589 16.500 C 16.934 15.125, 17.618 14, 18.108 14 C 18.599 14, 19 15.125, 19 16.500 C 19 18.430, 19.513 18.997, 21.250 18.985 C 23.113 18.972, 23.242 18.787, 22 17.909 C 20.880 17.116, 20.814 16.720, 21.741 16.344 C 22.666 15.968, 22.576 15.433, 21.384 14.241 C 19.668 12.525, 16.791 12.108, 12.918 13.014" stroke="none" fill="#000000" fill-rule="evenodd"/><path fill-opacity=".33" d="M 10.197 9.649 C 8.023 11.823, 7.182 13.817, 6.691 17.960 C 6.240 21.773, 6.412 23.636, 7.264 24.163 C 7.935 24.578, 8.862 24.538, 9.324 24.076 C 9.786 23.614, 11.461 23.725, 13.046 24.324 C 19.281 26.677, 24.377 22.117, 25.442 13.231 C 26.072 7.977, 26.066 7.963, 23.287 7.993 C 21.754 8.010, 18.826 7.745, 16.779 7.406 C 13.582 6.875, 12.656 7.190, 10.197 9.649 M 23.543 9.931 C 23.226 10.443, 23.425 11.144, 23.984 11.490 C 24.543 11.835, 25 11.416, 25 10.559 C 25 8.802, 24.400 8.544, 23.543 9.931 M 10.495 13.413 C 10.321 14.011, 9.955 15.512, 9.683 16.750 C 8.986 19.916, 11.614 19.675, 12.411 16.500 C 12.756 15.125, 13.488 14, 14.038 14 C 14.605 14, 14.767 15.082, 14.411 16.500 C 13.578 19.817, 15.739 19.817, 17 16.500 C 18.228 13.269, 19.373 13.269, 18.755 16.500 C 18.344 18.653, 18.640 18.998, 20.889 18.985 C 22.734 18.974, 23.102 18.717, 22.143 18.110 C 21.195 17.509, 21.120 17.044, 21.896 16.564 C 22.653 16.097, 22.693 15.295, 22.023 14.042 C 21.258 12.614, 19.904 12.219, 15.926 12.266 C 13.113 12.299, 10.669 12.815, 10.495 13.413 M 7 21.559 C 7 22.416, 7.457 22.835, 8.016 22.490 C 8.575 22.144, 8.774 21.443, 8.457 20.931 C 7.600 19.544, 7 19.802, 7 21.559" stroke="none" fill="#000000" fill-rule="evenodd"/><path fill-opacity=".093" d="M 11.888 8.463 C 7.807 10.739, 5.590 18.112, 8.378 20.138 C 9.624 21.044, 8.090 23.174, 6.776 22.362 C 6.101 21.945, 5.981 22.160, 6.458 22.933 C 6.880 23.616, 8.120 23.940, 9.214 23.654 C 10.307 23.369, 12.261 23.617, 13.556 24.207 C 18.605 26.508, 25.289 20.761, 24.776 14.561 C 24.659 13.153, 24.260 12, 23.889 12 C 23.518 12, 22.946 11.302, 22.618 10.448 C 22.291 9.594, 22.437 9.152, 22.942 9.464 C 23.448 9.777, 24.134 9.592, 24.467 9.054 C 24.808 8.501, 23.858 8.096, 22.286 8.123 C 20.754 8.149, 18.375 7.908, 17 7.588 C 15.599 7.262, 13.351 7.646, 11.888 8.463 M 10.685 12.769 C 10.461 13.171, 9.981 14.738, 9.619 16.250 C 8.723 19.999, 11.468 19.999, 12.838 16.250 L 13.842 13.500 13.921 16.250 C 14.012 19.406, 17 20.191, 17 17.059 C 17 15.991, 17.516 14.799, 18.146 14.410 C 18.952 13.911, 19.095 14.486, 18.627 16.351 C 18.027 18.741, 18.233 18.999, 20.731 18.985 C 22.665 18.974, 23.091 18.710, 22.143 18.110 C 21.195 17.509, 21.120 17.044, 21.896 16.564 C 22.645 16.101, 22.691 15.291, 22.038 14.071 C 21.318 12.726, 19.793 12.234, 16.082 12.151 C 13.339 12.089, 10.910 12.367, 10.685 12.769" stroke="none" fill="#000000" fill-rule="evenodd"/><path fill-opacity=".457" d="M 10.189 10.039 C 7.839 12.228, 7.070 19.307, 9.049 20.530 C 9.750 20.963, 9.767 21.576, 9.099 22.380 C 8.345 23.290, 9.501 23.638, 13.843 23.810 C 18.457 23.992, 20.017 23.633, 21.792 21.979 C 24.631 19.334, 24.598 19.259, 20.858 19.808 C 17.921 20.239, 17.748 20.097, 18.219 17.634 C 18.861 14.275, 18.236 14.248, 16.969 17.581 C 15.772 20.729, 13.414 20.239, 13.725 16.907 C 13.933 14.676, 13.872 14.701, 12.891 17.250 C 11.720 20.295, 8.992 20.999, 9.014 18.250 C 9.056 12.782, 9.945 12, 16.117 12 C 20.680 12, 22 12.337, 22 13.500 C 22 14.325, 22.450 15, 23 15 C 24.663 15, 24.126 12.512, 21.961 10.189 C 19.264 7.294, 13.218 7.217, 10.189 10.039 M 22.500 17 C 22.160 17.550, 22.359 18, 22.941 18 C 23.523 18, 24 17.550, 24 17 C 24 16.450, 23.802 16, 23.559 16 C 23.316 16, 22.840 16.450, 22.500 17" stroke="none" fill="#000000" fill-rule="evenodd"/></svg>