<svg xmlns="http://www.w3.org/2000/svg" width="215" height="250" version="1.1" fill="#000000"><path fill-opacity=".133" d="M 71.500 38.621 C 53.900 48.803, 34.325 60.095, 28 63.716 C 21.675 67.337, 15.259 71.165, 13.741 72.224 L 10.983 74.148 11.241 128.786 L 11.500 183.425 23.500 190.341 C 48.978 205.025, 67.988 216.008, 80 222.982 C 86.875 226.974, 95.308 231.800, 98.740 233.706 L 104.980 237.173 125.240 225.462 C 167.551 201.006, 177.806 195.088, 188 189.242 L 198.500 183.221 198.759 128.630 L 199.017 74.040 195.259 71.625 C 185.504 65.358, 105.961 20.007, 104.809 20.055 C 104.089 20.085, 89.100 28.440, 71.500 38.621" stroke="none" fill="#000000" fill-rule="evenodd"/><path fill-opacity=".412" d="M 58.500 47.077 C 33.750 61.376, 13.050 73.665, 12.500 74.386 C 11.854 75.233, 11.595 94.679, 11.767 129.278 L 12.034 182.858 15.267 184.786 C 41.757 200.588, 104.353 236.061, 105.321 235.820 C 106.027 235.644, 127.168 223.621, 152.302 209.101 L 198 182.703 198 128.390 L 198 74.076 186.250 67.177 C 148.821 45.198, 106.186 21.005, 104.942 21.040 C 104.149 21.061, 83.250 32.778, 58.500 47.077 M 84.121 71.710 C 76.640 75.395, 74.834 85.301, 79.602 96.500 C 83.482 105.613, 83.495 105.322, 79.108 107.144 C 73.285 109.562, 70.766 114.917, 71.970 122.316 C 73.037 128.874, 74.279 131.442, 80.397 139.753 C 85.463 146.634, 85.625 147, 83.616 147 C 81.779 147, 67.090 154.503, 64.318 156.857 C 57.629 162.538, 55.265 170.745, 58.511 177.021 C 60.333 180.545, 66.598 185, 69.732 185 C 73.079 185, 72.488 183.578, 68.549 182.154 C 62.268 179.883, 58.044 172.946, 59.473 167.250 C 60.477 163.252, 67.881 156.636, 75.335 153.079 C 84.391 148.757, 87.845 148.186, 89.882 150.677 C 94.613 156.466, 109.398 165.777, 119 169.017 C 129.327 172.501, 141 170.307, 141 164.881 C 141 153.657, 112.120 140.827, 94.280 144.125 L 88.500 145.194 84.316 140.574 C 78.907 134.599, 74 124.774, 74 119.917 C 74 115.199, 77.490 110.799, 82.436 109.281 L 86.014 108.183 93.506 116.943 C 102.816 127.829, 109.645 133.165, 122.685 139.746 C 137.141 147.040, 144.236 147.893, 145.589 142.501 C 146.990 136.917, 137.587 126.771, 125.321 120.631 C 122.472 119.205, 119.855 117.574, 119.504 117.006 C 119.153 116.439, 120.481 114.088, 122.454 111.782 C 127.556 105.823, 128.746 101.243, 126.633 95.709 C 124.128 89.150, 119.614 83.623, 112.188 78.022 C 102.085 70.403, 91.574 68.039, 84.121 71.710 M 86.014 74.710 C 84.097 75.694, 81.937 77.625, 81.216 79 C 79.063 83.102, 80.375 91.018, 84.514 98.895 C 88.076 105.674, 88.323 105.903, 93.140 106.937 C 95.867 107.521, 98.715 108, 99.470 108 C 100.224 108, 104.059 109.635, 107.992 111.633 L 115.143 115.266 119.101 111.402 C 126.977 103.710, 126.533 96.919, 117.518 87.208 C 107.740 76.678, 93.322 70.957, 86.014 74.710 M 92.177 110.681 C 92.733 113.570, 117.188 134.326, 124.665 138.254 C 131.851 142.031, 139.231 144.232, 141.623 143.314 C 144.698 142.135, 143.027 137.867, 137.250 132.142 C 132.815 127.746, 128.642 125.032, 119 120.271 C 107.870 114.775, 94.296 109, 92.506 109 C 92.147 109, 91.999 109.757, 92.177 110.681 M 94.033 149.540 C 96.010 151.921, 110.940 161.517, 116.274 163.835 C 123.462 166.958, 132.550 168.526, 135.547 167.161 C 139.174 165.508, 138.741 161.858, 134.472 158.110 C 126.875 151.439, 115.595 148, 101.316 148 C 93.720 148, 92.899 148.174, 94.033 149.540" stroke="none" fill="#000000" fill-rule="evenodd"/><path fill-opacity=".208" d="M 104.191 33.120 L 104.500 45.500 108 46.010 C 111.290 46.488, 111.483 46.725, 111.222 49.941 C 111.068 51.824, 110.510 53.886, 109.980 54.524 C 108.650 56.126, 109.801 57, 113.240 57 C 117.066 57, 116.649 59.832, 112.510 61.966 C 108.311 64.130, 107.068 65.971, 107.032 70.082 C 107.004 73.268, 107.524 74.004, 111.750 76.751 C 123.035 84.088, 130.257 96.131, 128.029 103.900 C 127.510 105.710, 125.463 109.170, 123.480 111.590 C 121.497 114.009, 120.130 116.402, 120.442 116.907 C 120.754 117.411, 124.270 119.626, 128.255 121.828 C 138.661 127.578, 146 135.635, 146 141.312 C 146 148.821, 135.072 147.760, 119.629 138.751 C 116.950 137.188, 114.610 136.057, 114.430 136.237 C 114.250 136.417, 114.594 138.502, 115.195 140.869 C 115.998 144.032, 116.979 145.451, 118.894 146.219 C 133.679 152.149, 141 158.195, 141 164.477 C 141 167.310, 140.457 168.229, 138.050 169.474 C 136.427 170.313, 133.926 171, 132.491 171 C 131.044 171, 128.084 172.447, 125.842 174.250 L 121.801 177.500 106.198 177.823 C 97.617 178.001, 89.162 177.878, 87.410 177.549 C 79.622 176.088, 76.220 166.946, 81.595 161.924 C 85.431 158.341, 89.471 151.071, 88.285 149.885 C 87.642 149.242, 85.050 149.751, 80.778 151.359 C 67.545 156.340, 60 163.165, 60 170.152 C 60 173.578, 60.640 174.875, 63.973 178.208 C 67.941 182.177, 67.951 182.180, 74.223 181.606 C 90.648 180.102, 107 181.605, 107 184.618 C 107 186.460, 100.496 187.336, 87 187.313 C 72.206 187.288, 67.231 186.107, 61.999 181.380 C 50.973 171.419, 55.816 159.512, 74.614 150.368 C 79.776 147.856, 84 145.580, 84 145.310 C 84 145.039, 82.410 142.960, 80.466 140.689 C 76.007 135.479, 71.988 127.329, 71.282 122.062 C 70.982 119.828, 70.362 118, 69.905 118 C 69.447 118, 66.146 120.738, 62.569 124.085 C 53.330 132.727, 50.500 138.842, 50.500 150.164 L 50.500 158.827 37 166.608 C 10.368 181.957, 11.661 181.093, 13.145 182.535 C 14.195 183.556, 77.722 220.705, 100.638 233.700 L 104.777 236.046 150.138 209.897 C 175.087 195.515, 196.063 183.300, 196.750 182.752 C 197.722 181.977, 198 169.912, 198 128.533 C 198 79.078, 197.876 75.205, 196.250 73.821 C 194.239 72.109, 108.427 22.460, 105.691 21.425 C 103.996 20.784, 103.901 21.522, 104.191 33.120 M 110.574 83.768 C 110.230 84.851, 109.060 86.540, 107.974 87.523 C 105.405 89.849, 105.417 94.989, 108 98.273 C 110.421 101.350, 110.565 104.719, 108.379 107.134 C 106.177 109.567, 107.061 111.259, 111.342 112.807 C 114.618 113.991, 115.203 113.910, 117.930 111.893 C 121.434 109.303, 124 104.399, 124 100.295 C 124 96.881, 119.714 89.879, 114.729 85.150 C 111.463 82.051, 111.151 81.947, 110.574 83.768 M 94.637 98.089 C 91.451 101.988, 88.993 105.284, 89.173 105.413 C 89.788 105.853, 99 107.723, 99 107.408 C 99 107.236, 98.512 106.024, 97.916 104.715 C 97.011 102.730, 97.260 101.706, 99.416 98.529 C 101.912 94.850, 102.832 91, 101.214 91 C 100.782 91, 97.822 94.190, 94.637 98.089 M 81.500 110.167 C 73.913 114.363, 72.786 121.130, 78.053 130.860 C 82.061 138.264, 88.378 145.453, 90.246 144.736 C 92.406 143.907, 94.582 132.572, 93.174 129.483 C 92.229 127.408, 92.358 126.879, 94.030 125.984 C 97.144 124.317, 96.367 121.217, 91.250 114.885 C 86.402 108.887, 85.022 108.219, 81.500 110.167 M 95 114 C 96.742 116.200, 98.508 118, 98.924 118 C 99.339 118, 100.202 116.852, 100.841 115.450 C 101.926 113.067, 101.774 112.804, 98.534 111.450 C 92.386 108.881, 91.470 109.543, 95 114 M 107.226 116.179 C 107.806 117.919, 110.782 119.551, 111.700 118.633 C 112.138 118.195, 111.624 117.198, 110.557 116.418 C 108.198 114.693, 106.695 114.585, 107.226 116.179 M 113.750 120.080 C 111.497 121.393, 111.393 126, 113.617 126 C 114.809 126, 115.106 126.667, 114.747 128.542 C 114.340 130.670, 115.001 131.593, 118.801 134.207 C 127.864 140.442, 140.818 144.722, 142.482 142.029 C 144.444 138.854, 135.102 129.405, 123.872 123.205 C 115.305 118.476, 116.088 118.718, 113.750 120.080 M 119 151.768 C 119 152.190, 121.239 155.228, 123.975 158.518 C 126.711 161.808, 128.961 165.036, 128.975 165.691 C 129.016 167.648, 130.482 167.982, 134.344 166.916 C 139.182 165.580, 139.096 163.223, 134.045 158.660 C 128.104 153.292, 119 149.122, 119 151.768" stroke="none" fill="#000000" fill-rule="evenodd"/><path fill-opacity=".349" d="M 106 28.856 L 106 35.671 129.250 49.221 C 142.037 56.673, 159.802 66.984, 168.726 72.135 L 184.953 81.500 184.976 127.750 C 184.989 153.188, 184.841 174, 184.646 174 C 184.451 174, 178.563 170.684, 171.561 166.632 L 158.831 159.263 158.611 149.882 C 158.434 142.281, 157.949 139.649, 156.058 136.019 C 153.025 130.196, 143.464 120.819, 133.890 114.275 L 126.280 109.074 124.342 111.287 C 119.402 116.930, 119.357 116.646, 125.724 119.861 C 136.967 125.536, 144.758 133.146, 146.509 140.163 C 147.384 143.671, 144.175 147, 139.921 147 C 136.335 147, 125.205 142.754, 119.656 139.270 C 117.541 137.942, 115.627 137.040, 115.402 137.265 C 115.176 137.490, 115.598 139.424, 116.338 141.563 C 117.517 144.968, 118.410 145.743, 123.538 147.804 C 134.121 152.058, 142 159.310, 142 164.795 C 142 167.709, 137.799 170.653, 132.512 171.446 C 130.030 171.818, 128 172.508, 128 172.980 C 128 173.451, 126.484 174.774, 124.632 175.918 C 121.542 177.828, 119.757 178, 103.032 178 L 84.800 178 81.400 174.600 C 77.266 170.466, 76.747 165.422, 80.146 162.405 C 83.209 159.687, 88 152.943, 88 151.350 C 88 149.370, 85.692 149.683, 78.743 152.608 C 67.094 157.511, 60.013 164.007, 60.004 169.800 C 59.998 173.381, 62.631 177.609, 66.268 179.857 C 69.216 181.679, 70.303 181.803, 76.043 180.973 C 85.518 179.604, 95.913 179.825, 100.714 181.497 C 103.031 182.305, 105.619 182.700, 106.464 182.376 C 107.609 181.936, 108 182.466, 108 184.460 C 108 186.630, 107.643 187.021, 106.105 186.533 C 105.063 186.203, 102.476 186.609, 100.355 187.437 C 94.567 189.695, 71.903 188.095, 65.927 185.005 C 59.745 181.808, 56 176.318, 56 170.451 C 56 162.110, 62.582 155.131, 76.249 148.981 L 83.794 145.586 80.464 141.521 C 75.591 135.575, 71 126.298, 71 122.398 C 71 120.529, 70.554 119, 70.009 119 C 67.940 119, 56.259 131.715, 53.932 136.500 C 51.961 140.551, 51.472 143.205, 51.352 150.489 L 51.204 159.479 32.127 170.489 C 21.635 176.545, 13.039 181.740, 13.025 182.034 C 13.011 182.328, 14.238 183.270, 15.750 184.128 C 20.333 186.726, 70.429 215.774, 87.444 225.699 C 96.214 230.815, 103.974 235, 104.689 235 C 105.404 235, 124.554 224.282, 147.244 211.182 C 169.935 198.082, 190.412 186.300, 192.750 184.998 L 197 182.632 197 128.494 L 197 74.357 189.250 70.006 C 184.988 67.613, 176.775 62.866, 171 59.458 C 165.225 56.049, 158.475 52.131, 156 50.751 C 150.133 47.481, 128.035 34.710, 121 30.525 C 117.975 28.726, 113.362 26.080, 110.750 24.646 L 106 22.040 106 28.856 M 107.011 92.842 C 107.005 94.685, 107.897 97.325, 109 98.727 C 111.552 101.971, 111.524 104.064, 108.886 107.418 C 107.723 108.896, 106.936 110.209, 107.136 110.335 C 107.336 110.461, 109.075 111.279, 111 112.152 C 114.433 113.709, 114.572 113.683, 118.250 110.786 C 120.313 109.161, 122 107.484, 122 107.059 C 122 106.634, 119.838 104.084, 117.196 101.393 C 114.554 98.702, 111.184 94.925, 109.707 93 L 107.022 89.500 107.011 92.842 M 99.094 93.894 C 98.369 95.211, 95.974 98.243, 93.772 100.631 C 89.642 105.112, 89.666 105.218, 95.073 106.391 C 97.435 106.903, 97.611 106.713, 97.223 104.069 C 96.943 102.159, 97.541 100.187, 98.997 98.217 C 100.206 96.583, 101.018 94.403, 100.803 93.373 C 100.453 91.694, 100.276 91.747, 99.094 93.894 M 82.500 110.572 C 74.170 114.906, 73.024 119.726, 77.971 129.627 C 81.326 136.339, 87.474 144, 89.506 144 C 91.635 144, 93.640 133.535, 92.228 129.794 C 91.224 127.133, 91.318 126.730, 93.047 126.277 C 94.121 125.997, 95.067 124.919, 95.150 123.883 C 95.233 122.848, 95.345 121.636, 95.400 121.191 C 95.455 120.745, 93.250 117.823, 90.500 114.696 L 85.500 109.011 82.500 110.572 M 93 110.865 C 93 111.284, 94.371 112.940, 96.047 114.545 C 98.592 116.983, 99.249 117.220, 100.031 115.982 C 100.546 115.167, 100.837 114.087, 100.677 113.581 C 100.312 112.422, 93 109.836, 93 110.865 M 108.500 117 C 108.840 117.550, 109.568 118, 110.118 118 C 110.668 118, 110.840 117.550, 110.500 117 C 110.160 116.450, 109.432 116, 108.882 116 C 108.332 116, 108.160 116.450, 108.500 117 M 113.667 120.667 C 112.311 122.022, 112.992 126, 114.579 126 C 115.789 126, 116.015 126.656, 115.544 128.801 C 114.966 131.430, 115.377 131.856, 122.214 135.720 C 129.287 139.717, 137.549 143, 140.535 143 C 141.438 143, 142 142.023, 142 140.452 C 142 136.795, 134.088 129.288, 124.877 124.206 C 117.410 120.086, 115.006 119.327, 113.667 120.667 M 120 151.873 C 120 152.352, 122.250 155.560, 125 159 C 127.750 162.440, 130 165.648, 130 166.127 C 130 166.607, 131.260 167, 132.800 167 C 141.489 167, 137.284 159.267, 125.259 153.132 C 120.603 150.757, 120 150.612, 120 151.873" stroke="none" fill="#000000" fill-rule="evenodd"/></svg>