<svg xmlns="http://www.w3.org/2000/svg" width="200" height="200" fill="#000000"><path fill-opacity=".176" fill-rule="evenodd" d="M87 6.718c-4.655 1.739-33.171 17.619-46.542 25.919C23.817 42.967 22.549 44.224 15.889 57L12.5 63.5v72.159l4 7.78c5.092 9.905 8.959 14.391 16.205 18.799 20.539 12.497 30.309 18.18 41.795 24.317l13 6.945 12.5-.008 12.5-.007 11-5.909c22.771-12.232 48.097-27.689 51.649-31.523 1.457-1.572 4.535-6.087 6.839-10.033 3.866-6.618 4.269-8 5.207-17.847.56-5.87.813-22.72.563-37.445l-.455-26.772-3.86-7.503c-2.123-4.127-5.199-9.127-6.835-11.113-4.551-5.521-28.671-20.532-54.969-34.211L111.778 6l-11.639.079c-6.401.043-12.314.331-13.139.639m.464 15.139c-3.319 1.57-9.675 5.113-14.123 7.872-4.449 2.759-13.344 7.886-19.768 11.393-16.195 8.844-20.23 12.126-24.232 19.713L26 67.169v28.05c0 18.124.404 29.397 1.141 31.859 1.638 5.464 5.517 9.677 14.489 15.736l7.87 5.315-7.588-7.315c-7.14-6.882-7.78-7.862-10.846-16.601l-3.258-9.288.401-22.212c.544-30.197 2.143-33.961 12.367-29.11 3.347 1.588 3.403 1.575 5.91-1.404 3.135-3.726 17.108-12.496 33.236-20.86C91.584 35.187 92.168 35 99.521 35c5.52 0 8.695.541 11.701 1.993 2.269 1.096 4.286 1.832 4.483 1.636.659-.66-4.501-3.555-8.636-4.846-3.028-.945-3.923-1.669-3.44-2.78.36-.827.866-2.741 1.126-4.253s.575-2.75.702-2.75c4.795 0 38.33 17.817 51.972 27.613 11.764 8.448 13.264 11.033 14.843 25.579.985 9.067 1.293 10.317 1.557 6.308.182-2.75.038-8.183-.318-12.073-.535-5.839-1.307-8.105-4.428-13-4.093-6.42-5.087-7.109-35.465-24.593C108.493 19.374 107.65 19 100.167 19.001c-5.256 0-7.945.605-12.703 2.856m10.298 21.85c1.244.239 3.044.23 4-.02s-.062-.446-2.262-.435-2.982.216-1.738.455m-13.597 4.801C73.343 54.319 58.046 63.385 55.5 65.498c-1.1.912.489.298 3.53-1.367l5.53-3.026 3.085 2.414c1.697 1.328 3.65 3.779 4.341 5.448 1.42 3.427 1.415 3.424 4.144 1.963 2.387-1.277 4.471.149 16.154 11.061l7.783 7.269 3.717-3.913c2.044-2.152 6.866-6.745 10.716-10.206s6.013-5.807 4.806-5.212-2.452 1.498-2.767 2.008c-.315.509-4.19 3.685-8.613 7.059-7.1 5.415-8.356 6.029-10.733 5.244-1.481-.488-3.262-2.053-3.957-3.478-1.345-2.758-3.897-18.708-4.421-27.631-.307-5.225-.222-5.418 3.169-7.25 1.917-1.034 2.817-1.873 2-1.864-.816.009-5.235 2.03-9.819 4.491m53.648 19.175c.721.289 1.584.253 1.916-.079s-.258-.568-1.312-.525c-1.165.048-1.402.285-.604.604m-3.272 3.25c-.362.587-2.32 1.113-4.35 1.169l-3.691.102 3.304 1.058c2.703.866 3.602.76 4.941-.578.9-.9 1.37-1.902 1.046-2.227s-.887-.11-1.25.476M64.164 72c.27.825 1.806 1.581 3.413 1.679 1.836.113 2.18-.02.923-.357-1.1-.296-2.636-1.051-3.413-1.68-1.11-.897-1.307-.821-.923.358m94.7 31c-.836 20.393-2.075 23.552-11.882 30.301-5.62 3.868-7.313 4.592-8.836 3.777-2.143-1.147-3.146-.518-3.146 1.974 0 .945-1.182 2.492-2.626 3.438-2.767 1.814-2.857 1.769-5.402-2.664-.789-1.375-.324-1.885 2.6-2.85 6.024-1.988 3.347-1.887-5.008.188-4.365 1.085-8.865 1.739-10 1.454-2.022-.508-2.024-.489-.123.932 1.068.797 2.305 1.45 2.75 1.45 1.008 0 1.045 8.11.044 9.575-.404.591-2.642 2.133-4.974 3.427-2.331 1.295-4.033 2.56-3.781 2.811.252.252 1.618-.303 3.037-1.232 1.419-.93 3.345-1.614 4.281-1.521 3.269.327 5.316-.067 4.789-.919-.292-.473.581-.738 1.941-.588 1.36.149 2.472-.114 2.472-.584s.898-.681 1.996-.47c2.044.394 4.545-2.624 3.249-3.92-.376-.377.062-.398.974-.048 1.864.715 3.444 6.24 2.132 7.456-2.622 2.431-14.249 7.376-21.307 9.061-16.658 3.979-20.824 3.609-38.794-3.446-3.438-1.349-6.25-2.236-6.25-1.971s5.62 3.199 12.488 6.52c15.7 7.589 20.699 8.307 30.904 4.442 18.038-6.832 54.077-29.17 58.956-36.542 2.904-4.388 4.72-11.762 4.542-18.437-.085-3.195-.522-2.023-1.956 5.245-1.016 5.148-2.558 10.444-3.427 11.77-1.694 2.586-7.403 7.015-14.238 11.044-3.77 2.223-4.614 2.368-7.75 1.333-1.935-.638-3.519-1.576-3.519-2.084 0-1.535 3.677-4.716 7.998-6.921 2.244-1.145 4.927-3.475 5.963-5.177 2.288-3.763 3.299-14.675 2.855-30.824l-.316-11.5zM40.252 96.5c.011 2.2.216 2.982.455 1.738s.23-3.044-.02-4-.446.062-.435 2.262m96.827-.917c.048 1.165.285 1.402.604.605.289-.722.253-1.585-.079-1.917s-.568.258-.525 1.312M40.25 112.5c-.017 12.689.617 14.452 7.307 20.341 5.504 4.845 11.457 8.291 26.918 15.584 11.63 5.486 15.992 6.854 6.275 1.969-5.284-2.656-22.508-13.166-30.611-18.677-5.904-4.016-8.366-9.684-9.214-21.217l-.661-9zM86 112c0 .55.413 1 .918 1s1.743.262 2.75.582c1.676.532 1.667.447-.109-1C87.336 110.77 86 110.552 86 112m24.238.327c-2.064 1.146-2.132 1.429-.769 3.215 1.291 1.693 1.629 1.755 2.497.458.876-1.31 1.469-5.062.784-4.965-.138.02-1.268.601-2.512 1.292m-15.234 6.563c-1.134 2.49-1.111 2.517.741.841 3.586-3.245 6.113-2.234 8.791 3.519 2.051 4.405 2.446 4.811 2.454 2.524.006-1.499-.853-4.144-1.907-5.878-1.499-2.465-2.68-3.199-5.412-3.365-2.888-.175-3.699.235-4.667 2.359m43.455 6.177c-.363.586-.445 1.281-.183 1.543s.743-.218 1.069-1.067c.676-1.762.1-2.072-.886-.476m-77.895 1.226c.376.986.935 1.541 1.243 1.233s.001-1.114-.683-1.793c-.988-.98-1.102-.865-.56.56M92.232 129c0 1.925.206 2.713.457 1.75.252-.963.252-2.537 0-3.5-.251-.963-.457-.175-.457 1.75M64 133c.589 1.1 1.295 2 1.57 2s.019-.9-.57-2-1.295-2-1.57-2-.019.9.57 2m24.694 3.532c-3.243 2.853-5.134 2.997-12.694.968-3.025-.812-5.95-1.448-6.5-1.414-1.541.097 12.673 4.914 14.499 4.914.885 0 3.135-1.575 5.001-3.5 3.925-4.049 3.766-4.551-.306-.968m31.321 8.111c.031 3.664 1.353 4.412 4.339 2.453 2.424-1.59 2.549-1.894.965-2.348a41 41 0 0 1-3.569-1.242c-1.299-.534-1.746-.241-1.735 1.137m-29.386 11.373c1.799 1.82 8.956 3.082 11.558 2.038 1.93-.773 1.536-.938-2.372-.991-2.577-.034-5.952-.541-7.5-1.126-2.109-.796-2.532-.777-1.686.079"/><path fill-opacity=".529" fill-rule="evenodd" d="M87.743 6.651c-.966.274-5.774 2.715-10.684 5.424C72.148 14.784 67.89 17 67.596 17c-1.808 0-38.301 22.527-41.879 25.852-1.531 1.422-4.862 6.13-7.401 10.462-4.314 7.358-4.68 8.543-5.566 18.031-.522 5.585-.758 22.199-.525 36.92l.423 26.765 4.223 8.329c2.322 4.581 5.439 9.745 6.926 11.476 3.976 4.629 32.295 22.011 54.203 33.269l10.5 5.396h23l17-9.102c9.35-5.006 19.925-10.943 23.5-13.194a949 949 0 0 1 14.382-8.82c6.713-4.028 8.539-5.746 12.323-11.594 9.104-14.074 8.72-11.864 8.732-50.29.008-25.373-.319-34.953-1.292-37.754-1.928-5.555-8.846-17.102-11.942-19.934C170.149 39.104 147.626 25.446 129 15.4l-16.5-8.9-11.5-.174c-6.325-.095-12.29.051-13.257.325m.653 14.257c-2.257 1.025-9.682 5.206-16.5 9.291S55.9 39.574 51.5 41.954c-12.969 7.015-17.966 10.941-21.64 17.003L26.5 64.5l-.293 29.993c-.321 32.875-.038 34.962 5.591 41.124 6.264 6.859 43.547 29.337 57.202 34.488 11.069 4.175 20.272 1.87 43.388-10.872 20.828-11.48 35.52-22.274 38.886-28.569 2.126-3.977 2.24-5.432 2.533-32.347.335-30.838.023-33.357-5.071-40.965-3.539-5.286-8.288-8.748-22.736-16.577-5.225-2.831-12.533-7.082-16.24-9.448-3.707-2.365-10.284-6.107-14.616-8.314-7.11-3.623-8.594-4.011-15.26-3.991-5.03.015-8.692.616-11.488 1.886m-1.013 16.88c-9.849 4.367-32.223 17.389-36.924 21.491-2.383 2.078-5.373 5.453-6.645 7.5-2.255 3.626-2.313 4.333-2.266 27.721.027 13.2.477 24.989 1 26.199.631 1.458.843-4.481.628-17.62-.203-12.478.09-21.354.793-23.962 2.169-8.058 9.202-13.8 33.434-27.297 15.301-8.522 19.753-9.775 28.107-7.905 9.975 2.232 42.571 22.513 47.239 29.391 3.39 4.996 4.484 13.379 4.098 31.387-.221 10.299-.017 15.394.56 14 .498-1.206.885-12.357.859-24.78-.05-24.376-.182-25.095-5.856-31.838-2.917-3.467-27.392-18.349-38.985-23.705-9.536-4.406-17.038-4.574-26.042-.582M57.099 70.601c-4.504 5.726-2.922 14.447 3.465 19.1l2.635 1.919-1.634 10.44c-.898 5.742-2.09 11.867-2.65 13.61-.895 2.79-.541 4.117 2.953 11.067l3.97 7.896 9.112 2.193c8.341 2.008 9.361 2.065 12.051.673 3.738-1.932 4.999-4.323 4.999-9.473 0-2.258.882-5.834 1.96-7.947 1.747-3.424 2.376-3.848 5.786-3.895 3.522-.049 4.013.298 6.159 4.343 1.785 3.365 2.174 5.237 1.66 7.981-.598 3.183-.286 3.971 2.781 7.038 3.986 3.986 4.458 4.021 15.154 1.122l8-2.168 3.763-7c2.662-4.953 3.64-7.877 3.344-10-.23-1.65-1.298-8.144-2.373-14.432l-1.955-11.432 2.896-2.437c4.169-3.507 6.136-7.842 5.549-12.223-.962-7.167-6.635-11.984-8.222-6.982-1.459 4.598-3.125 5.119-9.151 2.865-6.933-2.594-7.291-2.439-18.513 8.047-4.764 4.452-9.129 8.094-9.7 8.094s-1.455-.745-1.965-1.655C95.581 84.501 79.621 71 77.85 71c-.926 0-3.787.901-6.357 2.003-5.245 2.248-5.879 2.085-8.026-2.066-1.874-3.624-3.705-3.721-6.368-.336m28.936 41.123c.02.977.618 2.826 1.33 4.11l1.295 2.334 1.675-2.556c1.642-2.506 1.616-2.586-1.33-4.11-2.796-1.445-3.003-1.43-2.97.222m24.701-.097c-2.436 1.279-2.628 1.714-1.615 3.662.633 1.216 1.308 2.393 1.501 2.615.194.221 1.059-1.29 1.923-3.359s1.433-3.898 1.264-4.065-1.553.349-3.073 1.147"/><path fill-opacity=".363" fill-rule="evenodd" d="M88.31 7.049c-4.038 1.237-26.71 13.33-38.685 20.636a9939 9939 0 0 1-14.875 9.058c-3.196 1.94-5.757 4.216-5.765 5.124-.012 1.251-.21 1.327-.845.325-1.255-1.978-5.867 3.864-10.933 13.848l-4.292 8.46-.542 25c-.299 13.75-.134 30.225.365 36.61.89 11.371 1.005 11.774 5.596 19.5 2.579 4.34 5.476 8.82 6.439 9.956 3.154 3.724 31.577 20.942 52.075 31.546l12.347 6.388h21.506l11.399-5.892c22.77-11.768 49.268-27.98 53.511-32.74 2.949-3.307 8.855-13.736 10.441-18.438 1-2.961 1.317-12.066 1.286-36.93-.047-37.381.063-36.734-8.517-50-3.96-6.123-5.704-7.741-13.924-12.912-13.757-8.656-31.849-19.036-43.331-24.861-9.887-5.016-10.244-5.111-20.066-5.38-5.5-.151-11.435.165-13.19.702m4.429 12.059c-3.641.838-14.965 6.832-25.239 13.361-2.75 1.748-8.6 5.066-13 7.375s-11.126 6.326-14.946 8.927c-5.711 3.888-7.578 5.885-10.5 11.229L25.5 66.5l-.191 26c-.106 14.3.203 29.638.686 34.085 1.638 15.089 6.759 20.702 30.505 33.438 5.5 2.95 12.925 7.242 16.5 9.539C84.077 176.677 87.358 178 93.921 178c4.886 0 6.38-.407 8.04-2.189 1.121-1.203 2.039-2.482 2.039-2.841 0-.36 1.912-1.212 4.25-1.894 4.539-1.325 27.164-12.883 37.485-19.148 3.429-2.082 6.493-3.368 6.809-2.857s1.447.929 2.515.929 1.941.472 1.941 1.048c0 1.06 8.403-4.274 9.481-6.018.354-.572-1.395-.709-4.449-.347-2.767.327-5.032.407-5.032.176s2.363-2.141 5.25-4.246c2.887-2.104 6.6-5.691 8.25-7.97l3-4.143v-64l-3.5-5.804c-3.674-6.092-9.306-10.324-25.5-19.161-3.85-2.101-10.854-6.183-15.565-9.07-18.411-11.284-26.067-13.686-36.196-11.357m5.511 23.581c.963.252 2.537.252 3.5 0 .963-.251.175-.457-1.75-.457s-2.713.206-1.75.457M56.989 71.25c-2.05 3.362-2.486 8.766-.989 12.25l.859 2 .074-2c.084-2.244 3.622-8.503 4.802-8.494.421.004 1.532 1.354 2.468 3 1.961 3.445 3.496 3.649 9.976 1.327l4.678-1.677 6.822 5.592c3.751 3.076 8.143 6.978 9.758 8.672 3.529 3.701 4.83 3.828 7.281.712 1.024-1.303 5.151-5.206 9.17-8.674l7.309-6.305 5.486 1.865c5.983 2.033 8.032 1.542 9.804-2.35 1.282-2.816 1.922-2.735 4.523.571 1.568 1.994 2.056 3.773 1.793 6.534l-.362 3.794 1.742-2.283c3.719-4.876 3.099-12.431-1.348-16.413-2.04-1.827-2.116-1.827-3.212-.002-.618 1.027-1.844 2.794-2.726 3.927l-1.602 2.058-6.146-2.298-6.147-2.299-4.357 3.571c-2.396 1.963-7.199 6.258-10.673 9.542l-6.315 5.973-10.051-9.422C84.078 75.24 79.04 71 78.411 71s-3.45.958-6.269 2.13c-5.641 2.344-7.464 1.783-9.221-2.839-1.229-3.23-3.613-2.845-5.932.959m76.399 22.181c-.302.788-.154 5.288.329 10l.879 8.569h-9.798c-9.247 0-9.798-.117-9.798-2.073 0-2.269-3.007-2.41-3.751-.176-.252.757.157 1.031 1.036.693.908-.348 1.654.213 1.99 1.499.296 1.132.16 2.057-.301 2.057-.462 0-1.125.9-1.474 2-.867 2.732-2.311 2.51-3.715-.572-.923-2.027-.896-2.741.129-3.375.715-.441.914-1.031.443-1.311-1.086-.643-5.357.933-5.356 1.976.001.43-2.474.628-5.5.439-3.025-.188-5.501-.75-5.501-1.25 0-.499-.765-.907-1.7-.907-1.257 0-1.408.292-.577 1.123.815.815.826 1.774.039 3.5-1.488 3.266-2.611 2.983-4.313-1.091-1.855-4.439-1.823-4.876.301-4.137 1.174.408.956-.064-.66-1.433-2.99-2.533-4.545-1.289-3.109 2.488.982 2.583.898 2.741-1.213 2.266-1.247-.28-5.923-.216-10.39.143l-8.122.654.467-4.007c.258-2.203.779-6.256 1.159-9.006.751-5.431.443-8.5-.852-8.5-.453 0-1.379 3.938-2.058 8.75-.679 4.813-1.788 10.602-2.465 12.867-1.183 3.956-1.071 4.422 2.881 11.962l4.112 7.846 9 2.246 9 2.246 3.5-2.836c3.133-2.539 3.5-3.347 3.5-7.709 0-3.35.747-6.129 2.391-8.895 2.121-3.566 2.821-4.022 6.174-4.022 3.324 0 3.995.425 5.553 3.522.974 1.938 2.021 6.208 2.327 9.489.494 5.313.904 6.201 3.748 8.112l3.193 2.146 9.14-2.049 9.14-2.049 3.894-7.745 3.894-7.745-1.414-6.318c-.777-3.475-1.933-9.581-2.567-13.568-1.097-6.891-2.377-8.968-3.585-5.819M36 141c0 .55.477 1 1.059 1s.781-.45.441-1-.816-1-1.059-1-.441.45-.441 1"/><path fill-opacity=".302" fill-rule="evenodd" d="M176.828 57.85c-3.279 5.524-3.45 6.244-2.8 11.767.808 6.87.263 60.847-.645 63.846-.339 1.12-2.14 4.572-4.001 7.671-3.728 6.204-7.88 9.254-26.382 19.381-5.775 3.161-12.867 7.26-15.759 9.109-2.893 1.85-8.845 5.166-13.228 7.369-6.875 3.457-8.868 4.007-14.519 4.007-7.145 0-11.078-1.585-26.945-10.855-4.373-2.555-8.423-4.492-9-4.305s-3.749.753-7.049 1.259c-11.382 1.744-11.193 1.62-6.92 4.52 2.059 1.397 11.208 6.667 20.332 11.711L86.5 192.5l13.5-.003 13.5-.002 13-7.116c22.54-12.337 43.426-25.158 48.003-29.467 1.652-1.554 5.027-6.742 7.5-11.528l4.497-8.702.303-33.591c.319-35.262.011-38.693-4.122-45.97l-2.36-4.155zM25.079 66.583c.048 1.165.285 1.402.604.605.289-.722.253-1.585-.079-1.917s-.568.258-.525 1.312m-9.699 3.583c-1.945.939-2.179 2.125-2.828 14.375-.718 13.556.22 49.507 1.337 51.237 1.088 1.684 15.85 11.181 20.438 13.148l4.456 1.91-4.141-4.179c-5.178-5.225-8.398-11.7-9.032-18.167-.269-2.744-.517-14.804-.55-26.799-.034-12.394-.442-21.573-.946-21.262-.487.302-1.725-2.006-2.75-5.128-2.005-6.107-2.713-6.714-5.984-5.135M89 80.378c0 .207.787.995 1.75 1.75 1.586 1.243 1.621 1.208.378-.378C89.821 80.084 89 79.555 89 80.378m5 5c0 .207.787.995 1.75 1.75 1.586 1.243 1.621 1.208.378-.378C94.821 85.084 94 84.555 94 85.378"/></svg>