<svg xmlns="http://www.w3.org/2000/svg" width="32" height="32" version="1.1" fill="#000000"><path fill-opacity=".141" d="M 9.299 4.960 C 3.182 8.689, 1.245 16.609, 4.960 22.701 C 10.016 30.995, 21.984 30.995, 27.040 22.701 C 34.012 11.268, 20.732 -2.012, 9.299 4.960 M 11 11.049 C 11.825 11.609, 13.400 12.527, 14.500 13.090 C 16.072 13.894, 15.995 13.673, 14.139 12.056 C 12.841 10.925, 11.266 10.007, 10.639 10.015 C 10.013 10.024, 10.175 10.489, 11 11.049 M 18.459 11.067 C 17.383 12.808, 18.608 13.177, 19.980 11.524 C 20.769 10.574, 20.845 10, 20.181 10 C 19.597 10, 18.821 10.480, 18.459 11.067 M 21 13.186 C 21 13.838, 19.988 15.477, 18.750 16.830 L 16.500 19.288 19.250 17.529 C 21.540 16.064, 23.194 12, 21.500 12 C 21.225 12, 21 12.533, 21 13.186 M 10 14.183 C 10 14.918, 10.944 16.109, 12.098 16.829 C 13.460 17.680, 14.020 18.817, 13.692 20.069 C 13.415 21.130, 13.596 22.250, 14.094 22.558 C 16.071 23.780, 14.848 18.609, 12.500 15.818 C 11.125 14.184, 10 13.448, 10 14.183" stroke="none" fill="#000000" fill-rule="evenodd"/><path fill-opacity=".416" d="M 9.763 5.565 C 2.129 9.707, 2.254 22.494, 9.967 26.483 C 20.956 32.166, 32.166 20.956, 26.483 9.967 C 23.655 4.498, 15.625 2.384, 9.763 5.565 M 12 12 C 15.133 14.451, 15.800 14.451, 19.500 12 C 21.524 10.660, 21.954 10.011, 20.821 10.007 C 19.898 10.003, 18.491 10.652, 17.693 11.449 C 16.440 12.702, 15.990 12.707, 14.372 11.481 C 13.342 10.702, 11.825 10.059, 11 10.054 C 10.013 10.048, 10.354 10.713, 12 12 M 9 13.492 C 9 14.312, 9.900 15.545, 11 16.232 C 13.511 17.800, 13.708 20.460, 11.250 19.605 C 10.120 19.212, 10.386 19.749, 12 21.121 L 14.500 23.246 14.836 20.422 C 15.027 18.818, 14.568 17.145, 13.774 16.549 C 13.005 15.972, 12.081 14.713, 11.719 13.750 C 10.918 11.614, 9 11.432, 9 13.492 M 20.467 13.500 C 20.003 14.600, 18.922 16.026, 18.064 16.668 C 17.205 17.311, 16.776 18.110, 17.110 18.443 C 18.307 19.640, 22.231 15.433, 21.767 13.450 C 21.318 11.536, 21.294 11.537, 20.467 13.500 M 17.667 21.667 C 17.300 22.033, 17 22.798, 17 23.367 C 17 23.993, 17.466 23.934, 18.183 23.217 C 18.834 22.566, 19.134 21.801, 18.850 21.517 C 18.566 21.233, 18.033 21.300, 17.667 21.667" stroke="none" fill="#000000" fill-rule="evenodd"/><path fill-opacity=".633" d="M 11.500 4.903 C 7.049 6.858, 4.500 10.921, 4.500 16.061 C 4.500 20.262, 4.966 21.428, 7.769 24.231 C 12.506 28.968, 19.494 28.968, 24.231 24.231 C 27.045 21.417, 27.500 20.270, 27.500 16 C 27.500 11.787, 27.033 10.572, 24.407 7.945 C 21.105 4.643, 15.239 3.261, 11.500 4.903 M 12.289 12.550 C 15.808 14.941, 16.147 14.995, 17.726 13.416 C 20.083 11.060, 20.747 13.517, 18.442 16.064 C 16.012 18.750, 17.309 19.600, 20.400 17.348 C 25.014 13.987, 22.611 7.889, 17.845 10.865 C 16.515 11.695, 15.387 11.742, 14.043 11.023 C 12.992 10.460, 11.322 10, 10.334 10 C 9.114 10, 9.743 10.821, 12.289 12.550 M 9 13.759 C 9 14.727, 9.900 16.081, 11 16.768 C 12.100 17.455, 13 18.518, 13 19.131 C 13 19.884, 12.506 19.835, 11.476 18.980 C 10.638 18.284, 9.686 17.981, 9.360 18.306 C 8.745 18.922, 13.936 23.913, 15.250 23.968 C 17.044 24.044, 15.766 18.600, 13.250 15.447 C 10.187 11.608, 9 11.137, 9 13.759 M 19.174 20.314 C 17.978 21.587, 17.014 23.050, 17.032 23.564 C 17.049 24.079, 17.724 23.626, 18.532 22.559 C 19.339 21.491, 20 20.984, 20 21.431 C 20 21.879, 20.675 21.685, 21.500 21 C 23.128 19.649, 23.499 18, 22.174 18 C 21.720 18, 20.370 19.042, 19.174 20.314" stroke="none" fill="#000000" fill-rule="evenodd"/><path fill-opacity=".979" d="M 11 5.711 C 1.460 10.588, 2.688 24.029, 12.956 27.105 C 18.282 28.701, 23.741 26.055, 26.412 20.584 C 28.147 17.030, 28.193 16.298, 26.912 12.674 C 24.396 5.559, 17.338 2.471, 11 5.711 M 9 12.965 C 9 14.906, 9.690 16.299, 11 17 C 12.100 17.589, 13 18.560, 13 19.158 C 13 19.863, 12.465 19.801, 11.476 18.980 C 10.638 18.284, 9.625 18.044, 9.226 18.447 C 8.316 19.364, 13.970 23.990, 16 23.990 C 17.988 23.990, 23.693 19.374, 22.808 18.481 C 22.427 18.096, 20.739 18.762, 19.058 19.959 C 17.376 21.156, 16.006 21.768, 16.012 21.318 C 16.019 20.868, 17.594 19.483, 19.512 18.241 C 22.215 16.490, 23 15.308, 23 12.991 C 23 10.537, 22.587 10, 20.700 10 C 19.435 10, 17.860 10.540, 17.200 11.200 C 16.267 12.133, 15.733 12.133, 14.800 11.200 C 14.140 10.540, 12.565 10, 11.300 10 C 9.417 10, 9 10.538, 9 12.965 M 12 13.986 C 12 14.567, 13.112 15.549, 14.470 16.168 C 16.359 17.029, 17.301 16.995, 18.470 16.025 C 20.685 14.187, 20.349 12.743, 18 14 C 16.579 14.760, 15.421 14.760, 14 14 C 12.604 13.253, 12 13.249, 12 13.986" stroke="none" fill="#000000" fill-rule="evenodd"/></svg>