<svg width="500" height="449" viewBox="0 0 500 449" fill="#000000" xmlns="http://www.w3.org/2000/svg">
<path fill-rule="evenodd" clip-rule="evenodd" d="M2.07417 1.47115C-1.76085 5.30367 0.201663 444.023 4.06668 447.231C7.05169 449.708 12.0267 447.741 30.9418 436.611C55.1744 422.353 95.3846 398.975 110.407 390.413C119.692 385.12 159.662 361.945 209.158 333.155C225.658 323.558 258.283 304.627 281.658 291.087C408.448 217.652 400.093 225.815 367.681 207.05L346.201 194.617L316.431 211.777C300.055 221.215 264.72 241.692 237.908 257.282C73.6295 352.803 61.2494 359.805 56.6719 359.805C53.3644 359.805 52.9069 343.253 52.9069 223.555C52.9069 125.907 53.6894 87.304 55.6644 87.304C58.5194 87.304 109.1 115.437 137.527 132.837L153.737 142.759L163.947 137.174C184.805 125.764 202.905 114.392 202.82 112.749C202.773 111.817 186.177 101.582 165.945 90.004C128.64 68.6589 75.4295 37.7813 33.7243 13.2762C11.4717 0.20365 5.54919 -2.00636 2.07417 1.47115ZM466.659 13.2387C454.284 20.6087 426.721 36.7738 405.408 49.1614C369.871 69.8214 348.111 82.4365 254.158 136.847C236.283 147.199 205.908 164.834 186.657 176.037C167.407 187.239 142.32 201.81 130.91 208.415C105.44 223.157 105.482 224.86 131.68 240.42C156.347 255.072 151.842 255.465 185.707 235.715C201.355 226.59 235.533 206.755 261.658 191.637C287.783 176.517 323.221 155.982 340.408 145.997C426.609 95.9291 441.901 87.3315 444.784 87.319C447.246 87.3065 447.909 116.214 447.909 223.555C447.909 351.66 447.646 359.803 443.534 359.78C441.126 359.765 418.238 347.593 392.668 332.728L346.178 305.702L322.043 319.54C294.238 335.48 294.545 334.948 308.533 342.975C314.376 346.328 333.221 357.27 350.408 367.29C367.596 377.308 385.033 387.46 389.158 389.845C393.283 392.233 410.721 402.358 427.909 412.348C494.594 451.111 493.026 450.321 496.861 447.138C499.921 444.598 500.344 412.245 499.796 222.612C499.056 -34.5465 503.179 -8.50389 466.659 13.2387Z" fill="#000000"/>
</svg>
