<svg xmlns="http://www.w3.org/2000/svg" width="200" height="200" fill="#000000"><path fill-opacity=".055" fill-rule="evenodd" d="M72 20.687c-8.71 1.537-19.966 5.728-24.987 9.303-1.552 1.106-3.122 2.01-3.49 2.01-1.503 0-10.624 9.556-11.161 11.694C32.044 44.962 31.357 46 30.837 46c-.819 0-3.281 4.855-7.099 14-.574 1.375-1.196 3.4-1.383 4.5-.186 1.1-.867 5.15-1.513 9-1.517 9.049-1.517 43.951 0 53 .646 3.85 1.327 7.9 1.513 9 .187 1.1.809 3.125 1.383 4.5 3.818 9.145 6.28 14 7.099 14 .52 0 1.207 1.038 1.525 2.306.621 2.475 8.284 10.041 13.163 12.997 6.077 3.682 16.149 7.874 22.464 9.35 4.162.973 13.99 1.712 27.245 2.048 23.933.606 36.603-.912 48.029-5.756 11.26-4.773 22.983-13.804 24.197-18.64.318-1.268 1.038-2.305 1.601-2.305 1.79 0 7.023-13.163 9.144-23 2.974-13.797 2.974-48.203 0-62-2.121-9.837-7.354-23-9.144-23-.563 0-1.283-1.037-1.601-2.305s-2.24-3.89-4.269-5.826c-9.361-8.931-21.655-14.808-36.117-17.267-12.264-2.084-43.053-2.037-55.074.085M61.332 37.851c-8.002 2.765-17.208 10.522-19.772 16.66-.81 1.939-1.454 3.804-1.431 4.145s-.559.991-1.294 1.444c-1.735 1.07-2.558 22.577-.926 24.209.788.788 1.091.192 1.091-2.149 0-1.782.9-5.004 2-7.16s2-4.613 2-5.46.378-1.54.839-1.54c.462 0 1.36-1.142 1.996-2.538 2.331-5.116 14.992-18.129 18.493-19.008 1.39-.349 2.761-1.244 3.047-1.989s2.119-1.655 4.072-2.021C73.401 42.077 75 41.45 75 41.049 75 39.774 79.972 38 83.547 38 85.446 38 87 37.55 87 37c0-1.803-19.895-1.144-25.668.851M112 37c0 .55 1.806 1 4.014 1 3.557 0 7.54 1.372 8.986 3.096.275.328 1.706.891 3.18 1.252 1.474.36 3.274 1.217 4 1.904s2.67 1.923 4.32 2.748c3.188 1.594 14.5 12.387 14.5 13.835 0 .755 1.087 2.254 4.981 6.873.561.664 1.019 1.699 1.019 2.299 0 .601.755 2.532 1.679 4.293.923 1.76 1.996 4.775 2.385 6.7.444 2.2.749-1.05.821-8.75.071-7.577-.266-12.25-.885-12.25-.55 0-.919-.337-.82-.75.446-1.855-4.071-8.997-8.025-12.691-5.086-4.752-10.041-7.693-15.771-9.361C131.352 35.733 112 35.576 112 37M96.5 53c-.34.55-1.491 1-2.559 1S92 54.378 92 54.84s-1.908 1.469-4.239 2.239-5.031 2.191-6 3.16S79.325 62 78.5 62s-1.5.45-1.5 1-.9 1-2 1-2 .45-2 1-.801 1-1.779 1c-.979 0-2.428.9-3.221 2s-2.467 2-3.721 2c-1.253 0-2.279.398-2.279.883 0 .486-.9 1.119-2 1.407-1.927.504-2 1.364-2 23.549 0 22.148.076 23.05 2 23.661 1.1.349 2 1.054 2 1.567s1.125.933 2.5.933 2.5.45 2.5 1 .9 1 2 1 2 .45 2 1 .801 1 1.779 1c.979 0 2.428.9 3.221 2s2.467 2 3.721 2c1.253 0 2.279.45 2.279 1s.9 1 2 1 2 .45 2 1 .59 1 1.311 1c.722 0 2.278.9 3.459 2 1.18 1.1 2.814 2 3.629 2 .816 0 1.761.45 2.101 1s1.915 1 3.5 1 3.16-.45 3.5-1 1.285-1 2.101-1c.815 0 2.449-.9 3.629-2s2.737-2 3.459-2c.721 0 1.311-.366 1.311-.813 0-.448 1.575-1.432 3.5-2.187s3.5-1.739 3.5-2.187.9-.813 2-.813 2-.45 2-1 .9-1 2-1 2.004-.338 2.008-.75c.008-.777 4.75-3.25 6.233-3.25.464 0 1.809-.9 2.989-2 1.586-1.477 1.758-2 .658-2-1.988 0-6.87-2.306-6.88-3.25-.004-.412-1.133-.75-2.508-.75s-2.5.45-2.5 1-.873 1-1.941 1-2.219.45-2.559 1-1.51 1-2.601 1-2.949.9-4.129 2c-1.181 1.1-2.737 2-3.459 2-.721 0-1.311.366-1.311.813 0 .448-1.575 1.432-3.5 2.187s-3.5 1.739-3.5 2.187-1.8.813-4 .813-4-.366-4-.813c0-.448-1.575-1.432-3.5-2.187s-3.5-1.655-3.5-2-1.575-1.245-3.5-2-3.5-1.739-3.5-2.187-1.125-.813-2.5-.813-2.5-.45-2.5-1-.9-1-2-1-2-.343-2-.763c0-.419-1.013-1.207-2.25-1.75-2.182-.957-2.258-1.473-2.524-17.142l-.275-16.156 3.025-1.339C72.639 78.114 74 77.172 74 76.756S74.675 76 75.5 76s1.5-.45 1.5-1 .9-1 2-1 2-.45 2-1 .9-1 2-1 2-.45 2-1 .9-1 2-1 2-.45 2-1 .675-1 1.5-1 1.5-.45 1.5-1 .9-1 2-1 2-.45 2-1 1.8-1 4-1 4 .366 4 .813c0 .448 1.575 1.432 3.5 2.187s3.5 1.739 3.5 2.187.9.813 2 .813 2 .45 2 1 .9 1 2 1 2 .366 2 .813c0 .448 1.555 1.424 3.455 2.169s3.223 1.73 2.941 2.187 1.088.831 3.045.831S132 77.55 132 77s.675-1 1.5-1 1.5-.45 1.5-1 .9-1 2-1 2-.257 2-.571c0-1.068-2.851-3.429-4.179-3.461-1.575-.038-4.98-2.475-4.345-3.11.244-.245-1.563-1.038-4.016-1.762S122 63.379 122 62.89c0-.49-.671-.89-1.492-.89-.82 0-2.053-.9-2.74-2s-1.951-2-2.809-2c-2.044 0-6.941-2.29-6.951-3.25-.004-.413-.881-.75-1.949-.75s-2.219-.45-2.559-1-1.915-1-3.5-1-3.16.45-3.5 1m.5 31c-.793 1.1-2.242 2-3.221 2-.978 0-1.779.366-1.779.813 0 .448-1.575 1.432-3.5 2.187S85 90.739 85 91.187s-.675.813-1.5.813c-1.164 0-1.5 1.324-1.5 5.913v5.913l3.25-1.163c1.787-.64 3.475-1.389 3.75-1.665.275-.275 1.85-1.175 3.5-2 1.65-.824 3.595-2.061 4.322-2.749 1.288-1.218 6.098-.725 7.178.735.275.372 1.963 1.313 3.75 2.09 1.787.778 3.25 1.698 3.25 2.045s1.296.89 2.879 1.207c1.584.317 3.497 1.192 4.25 1.944.754.753 2.271 1.624 3.371 1.936s2.787.891 3.75 1.288c1.554.639 1.75.037 1.75-5.387 0-5.847-.106-6.107-2.5-6.107-1.375 0-2.5-.45-2.5-1s-.9-1-2-1-2-.45-2-1-.675-1-1.5-1-1.5-.366-1.5-.813c0-.448-1.575-1.432-3.5-2.187s-3.5-1.739-3.5-2.187-.801-.813-1.779-.813c-.979 0-2.428-.9-3.221-2s-2.143-2-3-2-2.207.9-3 2m-59.358 24.128c-1.349 4.445-.358 30.815 1.193 31.772.735.453 1.256.998 1.158 1.212-.325.709 2.449 6.376 3.487 7.123.561.404.684.741.274.75-1.911.039 9.36 9.366 14.246 11.788l5.5 2.727 34 .305c35.507.319 39.065.005 46.5-4.098 3.162-1.745 13.578-10.707 12.445-10.707-.259 0 .635-1.751 1.986-3.89s2.181-4.165 1.846-4.5c-.336-.336-.085-.61.556-.61.846 0 1.135-4.47 1.052-16.25-.066-9.29-.417-14.751-.821-12.75-.389 1.925-1.462 4.94-2.385 6.7-.924 1.761-1.679 3.692-1.679 4.293 0 .6-.458 1.635-1.019 2.299-3.894 4.619-4.981 6.118-4.981 6.873 0 1.448-11.312 12.241-14.5 13.835-1.65.825-3.617 2.085-4.371 2.799-.753.715-2.666 1.558-4.25 1.875-1.583.317-2.879.899-2.879 1.293 0 1.037-7.188 3.033-10.925 3.033-1.874 0-2.938.413-2.575 1 .399.646-3.676 1-11.5 1s-11.899-.354-11.5-1c.364-.589-.741-1.002-2.691-1.006C81.68 153.987 75 152.185 75 151.078c0-.455-1.296-1.087-2.879-1.404-1.584-.317-3.518-1.214-4.297-1.993-.78-.779-2.49-1.758-3.801-2.174s-5.115-3.58-8.453-7.031c-7.39-7.64-8.265-8.713-9.735-11.938-.636-1.396-1.452-2.538-1.815-2.538-.362 0-1.271-2.25-2.02-5s-1.704-5-2.123-5-.914-1.912-1.1-4.25c-.305-3.84-.414-3.996-1.135-1.622"/><path fill-opacity=".274" fill-rule="evenodd" d="M90 37c0 .55-1.581 1-3.514 1-3.373 0-4.236.266-9.222 2.844-1.23.636-3.143 1.156-4.25 1.156S71 42.45 71 43s-.675 1-1.5 1-1.5.45-1.5 1-.801 1-1.779 1c-.979 0-2.428.9-3.221 2s-2.212 2-3.153 2c-.942 0-1.998.9-2.347 2s-1.087 2-1.639 2C54.499 54 52 56.589 52 58c0 1.443-2.512 4-3.929 4-.589 0-1.071.831-1.071 1.847s-.853 2.83-1.895 4.031c-1.042 1.202-2.199 3.81-2.572 5.797s-1.32 4.255-2.105 5.04C39.642 79.5 39 81.911 39 84.071 39 86.232 38.55 88 38 88c-.583 0-1 3.333-1 8s.417 8 1 8c.55 0 1 1.768 1 3.929s.642 4.571 1.428 5.356 1.732 3.053 2.105 5.04 1.53 4.595 2.572 5.797S47 127.137 47 128.153 47.482 130 48.071 130c1.394 0 3.082 1.828 4.848 5.25.78 1.512 1.988 2.75 2.683 2.75s1.549.9 1.898 2 1.405 2 2.347 2c.941 0 2.36.9 3.153 2s2.242 2 3.221 2c.978 0 1.783.338 1.787.75.01 1.015 4.957 3.25 7.191 3.25.991 0 1.801.45 1.801 1s1.125 1 2.5 1 2.5.45 2.5 1 2.223 1 4.941 1 5.219.45 5.559 1 3.715 1 7.5 1 7.16-.45 7.5-1 2.841-1 5.559-1 4.941-.45 4.941-1 1.125-1 2.5-1 2.5-.45 2.5-1 1.35-1 3-1 3-.45 3-1 .675-1 1.5-1 1.5-.45 1.5-1 .87-1 1.933-1 2.218-.9 2.567-2 1.501-2 2.559-2 2.486-.9 3.173-2 1.786-2 2.441-2c.656 0 1.482-.914 1.837-2.032s1.735-3.122 3.068-4.455C150.91 130.181 152 128.6 152 128s1.105-2.196 2.455-3.546 2.769-4.13 3.153-6.179c.385-2.049 1.264-4.29 1.954-4.98 2.928-2.928 2.932-31.658.005-34.585-.693-.693-1.574-2.936-1.959-4.985-.384-2.049-1.803-4.829-3.153-6.179S152 64.6 152 64s-1.09-2.181-2.422-3.513c-1.333-1.333-2.713-3.337-3.068-4.455S145.251 54 144.5 54s-1.651-.9-2-2c-.399-1.257-1.513-2-3-2s-2.601-.743-3-2c-.349-1.1-1.504-2-2.567-2S132 45.55 132 45s-.675-1-1.5-1-1.5-.45-1.5-1-.906-1-2.014-1-2.907-.45-4-1l-3.972-2c-1.093-.55-3.568-1-5.5-1-1.933 0-3.514-.45-3.514-1 0-.6-4-1-10-1s-10 .4-10 1m7 14c0 .55-.675 1-1.5 1s-1.5.45-1.5 1-.9 1-2 1-2 .45-2 1-.9 1-2 1-2 .45-2 1-.9 1-2 1-2 .45-2 1-.675 1-1.5 1-1.5.45-1.5 1-.9 1-2 1-2 .34-2 .756-1.463 1.392-3.25 2.17c-1.787.777-3.475 1.675-3.75 1.994-.847.982-4.916 3.08-5.975 3.08-.551 0-1.907.775-3.014 1.722C57.105 73.355 57 74.639 57 96.316c0 22.03.074 22.89 2 23.394 1.1.288 2 .921 2 1.407 0 .485.9.883 2 .883s2 .45 2 1 .675 1 1.5 1 1.5.45 1.5 1 .9 1 2 1 2 .45 2 1 .649 1 1.443 1c1.638 0 8.883 4.025 9.39 5.217.184.431 1.196.783 2.25.783s1.917.45 1.917 1 .706 1 1.57 1c.863 0 3.532 1.35 5.93 3 4.275 2.941 7.004 3.742 7.667 2.25.417-.939 5.743-4.186 8.083-4.928.963-.306 1.75-.953 1.75-1.439 0-.485 1.125-.883 2.5-.883s2.5-.379 2.5-.843 2.138-1.926 4.75-3.25 4.9-2.745 5.083-3.157c.184-.412.881-.75 1.551-.75 1.774 0 6.599-2.373 6.608-3.25.004-.412.908-.75 2.008-.75s2-.45 2-1 .675-1 1.5-1 1.5-.45 1.5-1-.96-1-2.133-1-2.86-.788-3.75-1.75c-.889-.963-3.131-2.293-4.982-2.957-2.744-.983-3.622-.949-4.756.185-.765.765-2.288 1.676-3.385 2.024S121 116.554 121 117.067s-.9.933-2 .933-2 .45-2 1-1.125 1-2.5 1-2.5.45-2.5 1-.469 1-1.042 1-2.008.9-3.188 2-2.962 2-3.959 2-1.811.45-1.811 1-1.125 1-2.5 1-2.5-.398-2.5-.883c0-.486-.787-1.133-1.75-1.439-2.34-.742-7.666-3.989-8.083-4.928-.184-.413-1.196-.75-2.25-.75S83 119.55 83 119s-.9-1-2-1-2-.344-2-.764-1.8-1.544-4-2.497l-4-1.733V95.909c0-16.255.098-17.122 2-17.619 1.1-.288 2-.921 2-1.407 0-.485.9-.883 2-.883s2-.45 2-1 .9-1 2-1 2.002-.338 2.004-.75S85.479 71.375 88.5 70s5.494-2.838 5.496-3.25S94.9 66 96 66s2-.54 2-1.2c0-.933.267-.933 1.2 0 .66.66 2.46 1.2 4 1.2s2.802.338 2.804.75 2.475 1.875 5.496 3.25 5.494 2.838 5.496 3.25.904.75 2.004.75 2 .374 2 .831 1.237 1.469 2.75 2.248 3.122 1.869 3.576 2.419c.536.65 1.004.563 1.333-.248.279-.687 1.37-1.25 2.424-1.25 1.055 0 1.917-.45 1.917-1s.9-1 2-1 2-.45 2-1 .723-1 1.607-1c1.055 0 1.398-.544 1-1.582-.334-.87-.607-1.77-.607-2s-.9-.418-2-.418-2-.45-2-1-.675-1-1.5-1-1.5-.45-1.5-1-1.026-1-2.279-1c-1.254 0-2.928-.9-3.721-2s-2.242-2-3.221-2c-.978 0-1.779-.45-1.779-1s-.9-1-2-1-2-.45-2-1-.675-1-1.5-1-1.5-.45-1.5-1-.9-1-2-1-2-.45-2-1-.9-1-2-1-2-.45-2-1-.9-1-2-1-2-.45-2-1-1.125-1-2.5-1-2.5.45-2.5 1m0 31.756c0 .416-1.463 1.392-3.25 2.17-1.787.777-3.475 1.675-3.75 1.994-.984 1.142-4.999 3.08-6.379 3.08-.774 0-1.68.712-2.014 1.582-.885 2.307-.743 12.216.183 12.789.78.481 7.239-2.2 8.21-3.409.275-.342 1.963-1.259 3.75-2.036S97 97.172 97 96.756 98.125 96 99.5 96s2.5.45 2.5 1 .681 1 1.514 1c1.466 0 5.47 1.901 6.486 3.08.275.319 1.963 1.217 3.75 1.994 1.787.778 3.25 1.754 3.25 2.17s.585.756 1.301.756c1.839 0 6.682 2.352 6.691 3.25.004.412.908.75 2.008.75 1.798 0 2-.667 2-6.594 0-5.752-.255-6.66-2-7.116-1.1-.288-2-.921-2-1.407 0-.485-.9-.883-2-.883s-2-.358-2-.795-2.086-1.655-4.635-2.706c-2.549-1.052-5.154-2.381-5.789-2.955-1.971-1.784-5.479-3.544-7.062-3.544-.833 0-1.514-.45-1.514-1s-1.125-1-2.5-1-2.5.34-2.5.756"/><path fill-opacity=".326" fill-rule="evenodd" d="M95 36.953c-.825.559-3.862 1.023-6.75 1.032C85.362 37.993 83 38.45 83 39s-1.35 1-3 1-3 .45-3 1-.9 1-2 1-2 .45-2 1-.9 1-2 1-2 .45-2 1-.9 1-2 1-2 .45-2 1-.645 1-1.433 1-1.718.9-2.067 2-1.064 2-1.589 2C58.341 52 48 62.833 48 64.478c0 .837-.45 1.522-1 1.522s-1 .9-1 2-.45 2-1 2-1 .9-1 2-.45 2-1 2-1 1.35-1 3-.45 3-1 3-1 2.01-1 4.466-.758 6.056-1.685 8c-1.58 3.314-1.58 3.754 0 7.068.927 1.944 1.685 5.544 1.685 8S40.45 112 41 112s1 1.35 1 3 .45 3 1 3 1 .9 1 2 .45 2 1 2 1 .9 1 2 .45 2 1 2 1 .646 1 1.435C48 128.682 58.41 140 59.557 140c.234 0 1.716 1.35 3.293 3 1.576 1.65 3.605 3 4.508 3s1.642.45 1.642 1 .9 1 2 1 2 .352 2 .782 2.138 1.403 4.75 2.163 5.021 1.791 5.353 2.29c.883 1.329 33.261 1.172 33.707-.164.196-.589 1.193-1.071 2.214-1.071 1.022 0 2.136-.45 2.476-1s1.716-1 3.059-1 2.441-.45 2.441-1 .9-1 2-1 2-.45 2-1 .719-1 1.599-1c.879 0 2.86-1.35 4.401-3s3.267-3 3.834-3 1.317-.9 1.666-2 1.249-2 2-2 1.628-.828 1.949-1.84 1.702-2.438 3.068-3.169c1.365-.731 2.483-2.153 2.483-3.16s.45-1.831 1-1.831 1-.9 1-2 .45-2 1-2 1-.9 1-2 .45-2 1-2 1-1.35 1-3 .408-3 .907-3c.985 0 2.181-8.777 2.181-16s-1.196-16-2.181-16c-.499 0-.907-1.35-.907-3s-.45-3-1-3-1-.9-1-2-.45-2-1-2-1-.9-1-2-.45-2-1-2-1-.707-1-1.571c0-1.796-2.335-4.429-3.929-4.429-.589 0-1.071-.402-1.071-.894 0-1.079-5.513-7.106-6.5-7.106-.384 0-1.959-1.35-3.5-3s-3.522-3-4.401-3c-.88 0-1.599-.45-1.599-1s-.9-1-2-1-2-.45-2-1-1.125-1-2.5-1-2.5-.45-2.5-1-1.125-1-2.5-1-2.5-.41-2.5-.911-2.588-1.159-5.75-1.462a409 409 0 0 1-10.25-1.12c-2.475-.313-5.175-.113-6 .446m3 11.917c0 .488-1.35 1.447-3 2.13s-3 1.638-3 2.121-1.026.879-2.279.879c-1.254 0-2.928.9-3.721 2s-2.242 2-3.221 2c-.978 0-1.779.45-1.779 1s-.9 1-2 1-2 .45-2 1-.585 1-1.301 1c-1.839 0-6.682 2.352-6.691 3.25-.004.412-.823.75-1.819.75-.997 0-2.778.9-3.959 2-1.18 1.1-2.75 2-3.488 2C56.302 70 56 72.114 56 96.2c0 18.968.266 23.8 1.311 23.8.722 0 2.278.9 3.459 2 1.18 1.1 2.621 2 3.202 2 1.358 0 4.876 2.016 7.416 4.25 1.094.963 2.804 1.75 3.801 1.75.996 0 1.811.45 1.811 1s.9 1 2 1 2 .45 2 1 .707 1 1.571 1c.865 0 2.269.697 3.121 1.549s2.845 1.808 4.429 2.125c1.583.317 2.879.97 2.879 1.451s.675.875 1.5.875 1.5.45 1.5 1 1.8 1 4 1 4-.45 4-1 .675-1 1.5-1 1.5-.45 1.5-1 .585-1 1.301-1c1.839 0 6.682-2.352 6.691-3.25.004-.412.908-.75 2.008-.75s2-.45 2-1 .675-1 1.5-1 1.5-.45 1.5-1 .815-1 1.811-1c.997 0 2.778-.9 3.959-2 1.18-1.1 2.84-2 3.688-2s1.542-.366 1.542-.813c0-.448 1.575-1.432 3.5-2.187s3.5-1.739 3.5-2.187.675-.813 1.5-.813 1.5-.45 1.5-1-.675-1-1.5-1-1.5-.366-1.5-.813c0-.448-1.575-1.432-3.5-2.187s-3.5-1.739-3.5-2.187-.9-.813-2-.813c-1.824 0-2-.667-2-7.571C129 96.796 127.872 94 124.792 94c-.743 0-1.999-.9-2.792-2s-2.242-2-3.221-2c-.978 0-1.779-.45-1.779-1s-.873-1-1.941-1-2.219-.45-2.559-1-1.491-1-2.559-1-1.941-.378-1.941-.839c0-1.417-4.888-3.161-8.858-3.161-2.383 0-4.553.734-5.912 2-1.18 1.1-3.065 2-4.188 2S87 86.45 87 87s-.672 1-1.492 1c-.821 0-2.621.981-4 2.18-2.219 1.929-2.508 2.967-2.508 9 0 6.791.012 6.82 2.779 6.82 1.632 0 3.374-.826 4.221-2 .793-1.1 2.467-2 3.721-2 1.253 0 2.279-.45 2.279-1s.9-1 2-1 2-.45 2-1 1.8-1 4-1 4 .45 4 1 .9 1 2 1 2 .45 2 1 .9 1 2 1 2 .45 2 1 .675 1 1.5 1 1.5.45 1.5 1 .9 1 2 1 2.004.338 2.008.75c.009.924 4.875 3.25 6.798 3.25.873 0 1.177.601.801 1.582-.334.87-.607 1.77-.607 2s-.9.418-2 .418-2 .45-2 1-.675 1-1.5 1-1.5.45-1.5 1-.9 1-2 1-2 .45-2 1-.675 1-1.5 1-1.5.45-1.5 1-.9 1-2 1-2 .45-2 1-.9 1-2 1-2 .45-2 1-1.8 1-4 1-4-.45-4-1-.9-1-2-1-2-.45-2-1-1.026-1-2.279-1c-1.254 0-2.928-.9-3.721-2s-2.242-2-3.221-2c-.978 0-1.779-.45-1.779-1s-.9-1-2-1-2-.45-2-1-.852-1-1.893-1-2.203-.788-2.581-1.75c-.807-2.054-.697-30.641.126-32.786.309-.805 1.414-1.464 2.455-1.464S77 77.55 77 77s1.125-1 2.5-1 2.5-.45 2.5-1 .9-1 2-1 2-.45 2-1 .675-1 1.5-1 1.5-.45 1.5-1 .585-1 1.301-1c1.839 0 6.682-2.352 6.691-3.25.004-.412 1.133-.75 2.508-.75s2.5.45 2.5 1 .632 1 1.405 1c1.666 0 9.948 4.17 10.428 5.25.184.412 1.196.75 2.25.75s1.921.338 1.925.75c.01 1.015 4.957 3.25 7.191 3.25.991 0 1.801.45 1.801 1s1.125 1 2.5 1 2.5-.45 2.5-1 .9-1 2-1 2-.45 2-1 .675-1 1.5-1 1.5-.45 1.5-1 .675-1 1.5-1c.833 0 1.5-.889 1.5-2 0-1.415-.667-2-2.279-2-1.254 0-2.928-.9-3.721-2s-2.242-2-3.221-2c-.978 0-1.779-.45-1.779-1s-.9-1-2-1-2-.45-2-1-1.125-1-2.5-1-2.5-.45-2.5-1-.675-1-1.5-1-1.5-.45-1.5-1-.9-1-2-1-2-.45-2-1-.675-1-1.5-1-1.5-.45-1.5-1-.9-1-2-1-2-.34-2-.756-1.463-1.345-3.25-2.065c-1.787-.721-4.037-1.734-5-2.253-.976-.526-1.75-.551-1.75-.056"/><path fill-opacity=".279" fill-rule="evenodd" d="M97 98.813c0 .448-1.575 1.432-3.5 2.187s-3.5 1.739-3.5 2.187-.9.813-2 .813-2 .45-2 1-.9 1-2 1-2 .45-2 1-1.382 1-3.071 1-3.747.675-4.572 1.5c-1.333 1.333-1.333 1.667 0 3 .825.825 2.207 1.5 3.072 1.5.864 0 1.571.45 1.571 1s.675 1 1.5 1 1.5.45 1.5 1 .9 1 2 1 2 .45 2 1 .9 1 2 1 2 .366 2 .813c0 .448 1.575 1.432 3.5 2.187s3.5 1.739 3.5 2.187 1.125.813 2.5.813 2.5-.45 2.5-1 .681-1 1.514-1c1.637 0 5.127-1.785 7.203-3.684.712-.652 2.305-1.5 3.539-1.885s2.469-.977 2.744-1.316c.961-1.182 4.986-3.115 6.486-3.115.847 0 1.514-.881 1.514-2q0-2-2-2c-1.1 0-2-.45-2-1s-.9-1-2-1-2-.36-2-.799-1.575-1.369-3.5-2.065-3.5-1.602-3.5-2.014-1.575-1.367-3.5-2.122-3.5-1.739-3.5-2.187-1.35-.813-3-.813-3 .366-3 .813"/></svg>