<svg xmlns="http://www.w3.org/2000/svg" width="200" height="200" fill="#000000"><path fill-opacity=".137" fill-rule="evenodd" d="M109 32.5c0 1.111-1.167 1.5-4.5 1.5s-4.5.389-4.5 1.5c0 .825-.675 1.5-1.5 1.5s-1.5-.675-1.5-1.5c0-1.253-2.056-1.5-12.5-1.5S72 34.247 72 35.5q0 1.5-3 1.5c-2.333 0-3 .444-3 2q0 2-2 2c-1.111 0-2 .667-2 1.5 0 .825-.675 1.5-1.5 1.5-1.111 0-1.5 1.167-1.5 4.5s-.389 4.5-1.5 4.5c-1.179 0-1.5 1.389-1.5 6.5V66h-9.5c-8.833 0-9.5-.14-9.5-2 0-1.704-.667-2-4.5-2-3.333 0-4.5-.389-4.5-1.5q0-1.5-3-1.5c-2.667 0-3-.333-3-3q0-3 1.5-3c.825 0 1.5-.675 1.5-1.5q0-1.5 3-1.5t3-1.5c0-1.133 1.222-1.5 5-1.5 4.889 0 5-.067 5-3v-3H28.5c-10.444 0-12.5.247-12.5 1.5 0 1.048-1.056 1.5-3.5 1.5S9 44.452 9 45.5c0 .825-.675 1.5-1.5 1.5S6 47.675 6 48.5 5.325 50 4.5 50C3.272 50 3 51.722 3 59.5S3.272 69 4.5 69c.825 0 1.5.675 1.5 1.5S6.675 72 7.5 72s1.5.675 1.5 1.5.675 1.5 1.5 1.5 1.5.675 1.5 1.5c0 1.048 1.056 1.5 3.5 1.5s3.5.452 3.5 1.5c0 .825.675 1.5 1.5 1.5s1.5.675 1.5 1.5q0 1.5-3 1.5t-3 1.5c0 1.048-1.056 1.5-3.5 1.5H9v5c0 3.778.367 5 1.5 5 .825 0 1.5.675 1.5 1.5 0 .833.889 1.5 2 1.5s2 .667 2 1.5c0 .825.675 1.5 1.5 1.5s1.5.675 1.5 1.5q0 1.5 3 1.5t3 1.5c0 .825.675 1.5 1.5 1.5s1.5.675 1.5 1.5q0 1.5 3 1.5h3v11c0 9.111.258 11 1.5 11 .825 0 1.5.675 1.5 1.5 0 .833.889 1.5 2 1.5q2 0 2 2c0 1.556.667 2 3 2q3 0 3 1.5c0 1.111 1.167 1.5 4.5 1.5s4.5.389 4.5 1.5q0 1.5 3 1.5t3 1.5c0 1.133 1.222 1.5 5 1.5s5 .367 5 1.5c0 1.167 1.333 1.5 6 1.5s6 .333 6 1.5c0 1.285 2.944 1.5 20.5 1.5s20.5-.215 20.5-1.5c0-1.242 1.889-1.5 11-1.5s11-.258 11-1.5c0-.825.675-1.5 1.5-1.5s1.5-.675 1.5-1.5.675-1.5 1.5-1.5 1.5-.675 1.5-1.5.675-1.5 1.5-1.5 1.5-.675 1.5-1.5.675-1.5 1.5-1.5c1.048 0 1.5-1.056 1.5-3.5s.452-3.5 1.5-3.5c.825 0 1.5-.675 1.5-1.5 0-.833.889-1.5 2-1.5s2-.667 2-1.5q0-1.5 3-1.5t3-1.5c0-.825.675-1.5 1.5-1.5 1.242 0 1.5-1.889 1.5-11s.258-11 1.5-11c.825 0 1.5-.675 1.5-1.5s.675-1.5 1.5-1.5 1.5-.675 1.5-1.5.675-1.5 1.5-1.5 1.5-.675 1.5-1.5c0-1.048 1.056-1.5 3.5-1.5 3.333 0 3.5-.167 3.5-3.5 0-2.833-.381-3.5-2-3.5-1.111 0-2-.667-2-1.5q0-1.5-3-1.5t-3-1.5c0-.825.675-1.5 1.5-1.5s1.5-.675 1.5-1.5.675-1.5 1.5-1.5 1.5-.675 1.5-1.5c0-.833.889-1.5 2-1.5s2-.667 2-1.5c0-.825.675-1.5 1.5-1.5q1.5 0 1.5-3t1.5-3c1.179 0 1.5-1.389 1.5-6.5s-.321-6.5-1.5-6.5q-1.5 0-1.5-3t-1.5-3c-.825 0-1.5-.675-1.5-1.5 0-.833-.889-1.5-2-1.5s-2-.667-2-1.5c0-1.111-1.167-1.5-4.5-1.5s-4.5.389-4.5 1.5q0 1.5-3 1.5t-3 1.5c0 .825.675 1.5 1.5 1.5s1.5.675 1.5 1.5q0 1.5 3 1.5h3v12h-3c-2.333 0-3 .444-3 2s-.667 2-3 2-3-.444-3-2c0-1.111-.667-2-1.5-2-.825 0-1.5-.675-1.5-1.5 0-.833-.889-1.5-2-1.5s-2-.667-2-1.5q0-1.5-3-1.5c-2.889 0-3-.167-3-4.5 0-3.333-.389-4.5-1.5-4.5-.825 0-1.5-.675-1.5-1.5s-.675-1.5-1.5-1.5-1.5-.675-1.5-1.5q0-1.5-3-1.5c-2.333 0-3-.444-3-2 0-1.879-.667-2-11-2-9.111 0-11-.258-11-1.5 0-.825-.675-1.5-1.5-1.5s-1.5-.675-1.5-1.5c0-1.133-1.222-1.5-5-1.5s-5 .367-5 1.5m0 6.5c0 1.619.667 2 3.5 2s3.5-.381 3.5-2-.667-2-3.5-2-3.5.381-3.5 2m-6 3.5c0 .825.675 1.5 1.5 1.5s1.5-.675 1.5-1.5-.675-1.5-1.5-1.5-1.5.675-1.5 1.5m-84 3c0 1.048-1.056 1.5-3.5 1.5s-3.5.452-3.5 1.5c0 .825-.675 1.5-1.5 1.5Q9 50 9 53t-1.5 3T6 59t1.5 3c.833 0 1.5.889 1.5 2s.667 2 1.5 2c.825 0 1.5.675 1.5 1.5 0 .833.889 1.5 2 1.5s2 .667 2 1.5c0 .825.675 1.5 1.5 1.5s1.5.675 1.5 1.5q0 1.5 3 1.5t3 1.5c0 1.167 1.333 1.5 6 1.5s6 .333 6 1.5c0 1.179 1.389 1.5 6.5 1.5H50v-3q0-3 1.5-3t1.5-3v-3H40.5C30.056 69 28 68.753 28 67.5q0-1.5-3-1.5c-2.333 0-3-.444-3-2 0-1.111-.667-2-1.5-2-.825 0-1.5-.675-1.5-1.5s-.675-1.5-1.5-1.5Q16 59 16 56t1.5-3c.825 0 1.5-.675 1.5-1.5s.675-1.5 1.5-1.5 1.5-.675 1.5-1.5.675-1.5 1.5-1.5 1.5-.675 1.5-1.5q0-1.5-3-1.5t-3 1.5m97 0c0 1.048-1.056 1.5-3.5 1.5s-3.5.452-3.5 1.5c0 .825.675 1.5 1.5 1.5q1.5 0 1.5 3c0 2.333.444 3 2 3 1.111 0 2 .667 2 1.5 0 1.167 1.333 1.5 6 1.5h6v-3q0-3-1.5-3t-1.5-3-1.5-3c-.825 0-1.5-.675-1.5-1.5q0-1.5-3-1.5t-3 1.5M100 50q0 3 1.5 3t1.5 3c0 2.667.333 3 3 3s3-.333 3-3q0-3-1.5-3c-.825 0-1.5-.675-1.5-1.5s-.675-1.5-1.5-1.5-1.5-.675-1.5-1.5-.675-1.5-1.5-1.5q-1.5 0-1.5 3m84-1.5c0 .825.675 1.5 1.5 1.5 1.167 0 1.5 1.333 1.5 6s-.333 6-1.5 6c-.833 0-1.5.889-1.5 2 0 1.556-.667 2-3 2q-3 0-3 1.5t-3 1.5-3 1.5c0 .825.675 1.5 1.5 1.5q1.5 0 1.5 3t1.5 3c.825 0 1.5-.675 1.5-1.5q0-1.5 3-1.5t3-1.5c0-.825.675-1.5 1.5-1.5q1.5 0 1.5-3c0-2.333.444-3 2-3 1.833 0 2-.667 2-8s-.167-8-2-8c-1.111 0-2-.667-2-1.5 0-.825-.675-1.5-1.5-1.5s-1.5.675-1.5 1.5M119 67c0 3.778.367 5 1.5 5 .825 0 1.5.675 1.5 1.5s.675 1.5 1.5 1.5 1.5.675 1.5 1.5.675 1.5 1.5 1.5 1.5-.675 1.5-1.5q0-1.5 3-1.5c2.667 0 3-.333 3-3q0-3-1.5-3c-1.048 0-1.5-1.056-1.5-3.5V62h-12zm-13 .5c0 .825.675 1.5 1.5 1.5s1.5.675 1.5 1.5c0 1.048 1.056 1.5 3.5 1.5s3.5-.452 3.5-1.5c0-.833-.889-1.5-2-1.5s-2-.667-2-1.5q0-1.5-3-1.5t-3 1.5m-15 6c0 1.179-1.389 1.5-6.5 1.5H78v3q0 3 1.5 3c.825 0 1.5.675 1.5 1.5s.675 1.5 1.5 1.5 1.5.675 1.5 1.5.675 1.5 1.5 1.5 1.5-.675 1.5-1.5c0-.833.889-1.5 2-1.5 1.556 0 2-.667 2-3 0-2.667.333-3 3-3q3 0 3-1.5t3-1.5 3-1.5c0-1.167-1.333-1.5-6-1.5s-6 .333-6 1.5m18 3c0 .825.675 1.5 1.5 1.5s1.5.675 1.5 1.5c0 .833.889 1.5 2 1.5 1.556 0 2 .667 2 3q0 3 1.5 3c.825 0 1.5-.675 1.5-1.5s.675-1.5 1.5-1.5 1.5-.675 1.5-1.5-.675-1.5-1.5-1.5-1.5-.675-1.5-1.5-.675-1.5-1.5-1.5-1.5-.675-1.5-1.5c0-1.048-1.056-1.5-3.5-1.5s-3.5.452-3.5 1.5m25 3c0 .825.675 1.5 1.5 1.5s1.5-.675 1.5-1.5-.675-1.5-1.5-1.5-1.5.675-1.5 1.5m28 0c0 .833.889 1.5 2 1.5 1.556 0 2 .667 2 3 0 2.667.333 3 3 3s3-.333 3-3q0-3-1.5-3c-.825 0-1.5-.675-1.5-1.5 0-1.048-1.056-1.5-3.5-1.5s-3.5.452-3.5 1.5m-18 3c0 1.228-1.722 1.5-9.5 1.5H125v3.5c0 2.444-.452 3.5-1.5 3.5-.825 0-1.5.675-1.5 1.5q0 1.5 3 1.5t3 1.5c0 1.208 1.556 1.5 8 1.5h8v-5c0-3.778.367-5 1.5-5 .825 0 1.5-.675 1.5-1.5s.675-1.5 1.5-1.5 1.5-.675 1.5-1.5q0-1.5-3-1.5t-3 1.5M119 100v3h6c4.667 0 6-.333 6-1.5 0-1.111-1.167-1.5-4.5-1.5s-4.5-.389-4.5-1.5c0-.825-.675-1.5-1.5-1.5q-1.5 0-1.5 3m18 32.5q0 1.5-3 1.5t-3 1.5c0 1.111-1.167 1.5-4.5 1.5-3.833 0-4.5.296-4.5 2 0 1.733-.667 2-5 2-4.889 0-5 .067-5 3q0 3-1.5 3c-.825 0-1.5.675-1.5 1.5 0 1.253 2.056 1.5 12.5 1.5s12.5-.247 12.5-1.5c0-1.179 1.389-1.5 6.5-1.5s6.5-.321 6.5-1.5c0-.825.675-1.5 1.5-1.5s1.5-.675 1.5-1.5.675-1.5 1.5-1.5c1.048 0 1.5-1.056 1.5-3.5s.452-3.5 1.5-3.5c.825 0 1.5-.675 1.5-1.5 0-1.228-1.722-1.5-9.5-1.5s-9.5.272-9.5 1.5"/><path fill-opacity=".168" fill-rule="evenodd" d="M112 32.5c0 .833.889 1.5 2 1.5 1.619 0 2 .667 2 3.5 0 3.333-.167 3.5-3.5 3.5-2.444 0-3.5.452-3.5 1.5q0 1.5-3 1.5t-3-1.5c0-.825-.675-1.5-1.5-1.5-.833 0-1.5-.889-1.5-2s.667-2 1.5-2c.825 0 1.5-.675 1.5-1.5s-.675-1.5-1.5-1.5-1.5.675-1.5 1.5q0 1.5-3 1.5t-3-1.5c0-1.242-1.889-1.5-11-1.5s-11 .258-11 1.5q0 1.5-3 1.5c-2.333 0-3 .444-3 2q0 2-2 2c-1.556 0-2 .667-2 3q0 3-1.5 3c-1.111 0-1.5 1.167-1.5 4.5s-.389 4.5-1.5 4.5c-1.133 0-1.5 1.222-1.5 5s-.367 5-1.5 5c-1.167 0-1.5 1.333-1.5 6s-.333 6-1.5 6c-.825 0-1.5.675-1.5 1.5 0 1.228-1.722 1.5-9.5 1.5s-9.5-.272-9.5-1.5q0-1.5-3-1.5t-3-1.5-3-1.5-3-1.5c0-1.048-1.056-1.5-3.5-1.5s-3.5-.452-3.5-1.5c0-.825-.675-1.5-1.5-1.5S9 68.325 9 67.5 8.325 66 7.5 66C6.321 66 6 64.611 6 59.5S5.679 53 4.5 53 3 54.389 3 59.5 3.321 66 4.5 66Q6 66 6 69t1.5 3c.825 0 1.5.675 1.5 1.5 0 1.048 1.056 1.5 3.5 1.5s3.5.452 3.5 1.5q0 1.5 3 1.5c2.667 0 3 .333 3 3q0 3-1.5 3c-.825 0-1.5.675-1.5 1.5 0 1.048-1.056 1.5-3.5 1.5-2.833 0-3.5.381-3.5 2 0 1.111-.667 2-1.5 2Q9 91 9 94t1.5 3c.825 0 1.5.675 1.5 1.5 0 .833.889 1.5 2 1.5s2 .667 2 1.5q0 1.5 3 1.5t3 1.5c0 .825.675 1.5 1.5 1.5s1.5.675 1.5 1.5q0 1.5 3 1.5t3 1.5c0 .825.675 1.5 1.5 1.5 1.228 0 1.5 1.722 1.5 9.5s.272 9.5 1.5 9.5q1.5 0 1.5 3c0 2.333.444 3 2 3q2 0 2 2c0 1.704.667 2 4.5 2 3.333 0 4.5.389 4.5 1.5s1.167 1.5 4.5 1.5 4.5.389 4.5 1.5c0 1.048 1.056 1.5 3.5 1.5s3.5.452 3.5 1.5c0 1.111 1.167 1.5 4.5 1.5s4.5.389 4.5 1.5c0 1.304 4.5 1.5 34.5 1.5s34.5-.196 34.5-1.5q0-1.5 3-1.5t3-1.5c0-.825.675-1.5 1.5-1.5s1.5-.675 1.5-1.5.675-1.5 1.5-1.5c1.048 0 1.5-1.056 1.5-3.5s-.452-3.5-1.5-3.5-1.5 1.056-1.5 3.5-.452 3.5-1.5 3.5c-.825 0-1.5.675-1.5 1.5 0 1.111-1.167 1.5-4.5 1.5s-4.5.389-4.5 1.5c0 1.271-2.444 1.5-16 1.5h-16v-9h5c4.333 0 5-.267 5-2 0-1.704.667-2 4.5-2 3.333 0 4.5-.389 4.5-1.5q0-1.5 3-1.5t3-1.5c0-.825-.675-1.5-1.5-1.5s-1.5-.675-1.5-1.5.675-1.5 1.5-1.5 1.5.675 1.5 1.5c0 1.133 1.222 1.5 5 1.5s5-.367 5-1.5q0-1.5 3-1.5t3 1.5 3 1.5 3 1.5c0 .825.675 1.5 1.5 1.5s1.5-.675 1.5-1.5c0-1.048 1.056-1.5 3.5-1.5s3.5-.452 3.5-1.5c0-.825.675-1.5 1.5-1.5s1.5-.675 1.5-1.5.675-1.5 1.5-1.5 1.5-.675 1.5-1.5.675-1.5 1.5-1.5 1.5-.675 1.5-1.5-.675-1.5-1.5-1.5c-1.048 0-1.5-1.056-1.5-3.5s.452-3.5 1.5-3.5c1.111 0 1.5-1.167 1.5-4.5s.389-4.5 1.5-4.5c.825 0 1.5-.675 1.5-1.5s.675-1.5 1.5-1.5 1.5-.675 1.5-1.5.675-1.5 1.5-1.5 1.5-.675 1.5-1.5.675-1.5 1.5-1.5 1.5-.675 1.5-1.5c0-.833.889-1.5 2-1.5q2 0 2-2t-2-2c-1.111 0-2-.667-2-1.5 0-1.111-1.167-1.5-4.5-1.5s-4.5-.389-4.5-1.5c0-.825-.675-1.5-1.5-1.5q-1.5 0-1.5-3t-1.5-3-1.5-3 1.5-3c.825 0 1.5-.675 1.5-1.5q0-1.5-3-1.5c-2.333 0-3-.444-3-2 0-1.111-.667-2-1.5-2-.825 0-1.5-.675-1.5-1.5 0-1.048-1.056-1.5-3.5-1.5s-3.5-.452-3.5-1.5q0-1.5-3-1.5h-3v-6c0-4.667-.333-6-1.5-6-.825 0-1.5-.675-1.5-1.5 0-1.111-1.167-1.5-4.5-1.5-3.833 0-4.5-.296-4.5-2 0-1.879-.667-2-11-2-9.111 0-11-.258-11-1.5 0-.825-.675-1.5-1.5-1.5s-1.5-.675-1.5-1.5c0-.833-.889-1.5-2-1.5s-2 .667-2 1.5m-87 10c0 .825.675 1.5 1.5 1.5s1.5.675 1.5 1.5-.675 1.5-1.5 1.5-1.5.675-1.5 1.5q0 1.5-3 1.5h-3v12h3c2.333 0 3 .444 3 2s.667 2 3 2 3-.444 3-2-.667-2-3-2q-3 0-3-1.5c0-.825-.675-1.5-1.5-1.5Q22 59 22 56t1.5-3c.825 0 1.5-.675 1.5-1.5s.675-1.5 1.5-1.5 1.5-.675 1.5-1.5c0-1.111 1.167-1.5 4.5-1.5s4.5-.389 4.5-1.5q0-1.5-3-1.5t-3-1.5-3-1.5-3 1.5M97 44q0 3 1.5 3c1.167 0 1.5 1.333 1.5 6s.333 6 1.5 6c1.133 0 1.5 1.222 1.5 5s.367 5 1.5 5c.825 0 1.5.675 1.5 1.5 0 1.228-1.722 1.5-9.5 1.5s-9.5.272-9.5 1.5c0 1.167-1.333 1.5-6 1.5h-6v3q0 3 1.5 3c.825 0 1.5.675 1.5 1.5s.675 1.5 1.5 1.5 1.5.675 1.5 1.5q0 1.5 3 1.5c2.333 0 3 .444 3 2q0 2 2 2c1.733 0 2-.667 2-5 0-3.778.367-5 1.5-5 .825 0 1.5-.675 1.5-1.5q0-1.5 3-1.5t3-1.5 3-1.5 3 1.5 3 1.5 3 1.5c0 .833.889 1.5 2 1.5 1.733 0 2 .667 2 5 0 3.778.367 5 1.5 5 .833 0 1.5-.889 1.5-2s.667-2 1.5-2c1.048 0 1.5 1.056 1.5 3.5s.452 3.5 1.5 3.5c.825 0 1.5.675 1.5 1.5 0 1.167 1.333 1.5 6 1.5s6 .333 6 1.5-1.333 1.5-6 1.5-6-.333-6-1.5q0-1.5-3-1.5c-2.667 0-3 .333-3 3v3h9c7.333 0 9-.278 9-1.5 0-.833.889-1.5 2-1.5 1.556 0 2 .667 2 3 0 2.762-.278 3-3.5 3-2.444 0-3.5.452-3.5 1.5 0 .825.675 1.5 1.5 1.5s1.5.675 1.5 1.5c0 .833.889 1.5 2 1.5q2 0 2 2c0 1.833-.667 2-8 2-6.444 0-8 .292-8 1.5 0 .825-.675 1.5-1.5 1.5s-1.5.675-1.5 1.5-.675 1.5-1.5 1.5-1.5.675-1.5 1.5c0 1.048-1.056 1.5-3.5 1.5s-3.5.452-3.5 1.5q0 1.5-3 1.5c-2.889 0-3 .167-3 4.5v4.5h5c4.889 0 5-.067 5-3q0-3 1.5-3c.825 0 1.5-.675 1.5-1.5 0-1.111 1.167-1.5 4.5-1.5s4.5-.389 4.5-1.5 1.167-1.5 4.5-1.5 4.5.389 4.5 1.5c0 1.048 1.056 1.5 3.5 1.5s3.5-.452 3.5-1.5-1.056-1.5-3.5-1.5-3.5-.452-3.5-1.5c0-1.208 1.556-1.5 8-1.5s8 .292 8 1.5 1.556 1.5 8 1.5 8-.292 8-1.5c0-.825.675-1.5 1.5-1.5s1.5-.675 1.5-1.5q0-1.5-3-1.5t-3-1.5c0-.833-.889-1.5-2-1.5s-2 .667-2 1.5q0 1.5-3 1.5c-2.762 0-3-.278-3-3.5 0-2.444.452-3.5 1.5-3.5.825 0 1.5-.675 1.5-1.5 0-1.2-1.5-1.5-7.5-1.5H144v-4.5c0-3.333-.389-4.5-1.5-4.5-.825 0-1.5-.675-1.5-1.5s.675-1.5 1.5-1.5q1.5 0 1.5-3t1.5-3c1.048 0 1.5-1.056 1.5-3.5s.452-3.5 1.5-3.5c.825 0 1.5-.675 1.5-1.5s.675-1.5 1.5-1.5 1.5-.675 1.5-1.5-.675-1.5-1.5-1.5-1.5.675-1.5 1.5c0 1.111-1.167 1.5-4.5 1.5s-4.5.389-4.5 1.5c0 1.228-1.722 1.5-9.5 1.5H122v-3q0-3-1.5-3c-.825 0-1.5-.675-1.5-1.5 0-1.133-1.222-1.5-5-1.5s-5-.367-5-1.5c0-1.048 1.056-1.5 3.5-1.5s3.5-.452 3.5-1.5c0-.825.675-1.5 1.5-1.5s1.5.675 1.5 1.5.675 1.5 1.5 1.5q1.5 0 1.5 3c0 2.889.167 3 4.5 3 3.333 0 4.5.389 4.5 1.5q0 1.5 3 1.5t3-1.5-3-1.5-3-1.5c0-.825.675-1.5 1.5-1.5 1.111 0 1.5-1.167 1.5-4.5s-.389-4.5-1.5-4.5c-.833 0-1.5-.889-1.5-2 0-1.822-.667-2-7.5-2s-7.5.178-7.5 2c0 1.619-.667 2-3.5 2H109v-6.5c0-5.111-.321-6.5-1.5-6.5q-1.5 0-1.5-3t-1.5-3c-.825 0-1.5-.675-1.5-1.5s-.675-1.5-1.5-1.5-1.5-.675-1.5-1.5-.675-1.5-1.5-1.5Q97 41 97 44m12 4.5c0 3.333.389 4.5 1.5 4.5q1.5 0 1.5 3v3h16v-4.5c0-3.333-.389-4.5-1.5-4.5q-1.5 0-1.5-3v-3h-16zm66-3q0 1.5 3 1.5t3 1.5c0 .825.675 1.5 1.5 1.5 1.111 0 1.5 1.167 1.5 4.5s-.389 4.5-1.5 4.5c-.825 0-1.5.675-1.5 1.5s-.675 1.5-1.5 1.5c-.833 0-1.5.889-1.5 2s.667 2 1.5 2 1.5-.889 1.5-2 .667-2 1.5-2c.825 0 1.5-.675 1.5-1.5s.675-1.5 1.5-1.5c1.111 0 1.5-1.167 1.5-4.5s-.389-4.5-1.5-4.5c-.825 0-1.5-.675-1.5-1.5 0-1.048 1.056-1.5 3.5-1.5h3.5v11c0 10.333-.121 11-2 11-1.111 0-2 .667-2 1.5 0 .825-.675 1.5-1.5 1.5s-1.5.675-1.5 1.5-.675 1.5-1.5 1.5-1.5.675-1.5 1.5-.675 1.5-1.5 1.5-1.5.675-1.5 1.5.675 1.5 1.5 1.5 1.5-.675 1.5-1.5q0-1.5 3-1.5t3-1.5c0-.833.889-1.5 2-1.5s2-.667 2-1.5c0-.825.675-1.5 1.5-1.5 1.133 0 1.5-1.222 1.5-5s.367-5 1.5-5q1.5 0 1.5-3t-1.5-3c-1.111 0-1.5-1.167-1.5-4.5s-.389-4.5-1.5-4.5c-.825 0-1.5-.675-1.5-1.5 0-1.208-1.556-1.5-8-1.5s-8 .292-8 1.5m-138 22c0 1.179 1.389 1.5 6.5 1.5s6.5-.321 6.5-1.5-1.389-1.5-6.5-1.5-6.5.321-6.5 1.5m122 12c0 .825.675 1.5 1.5 1.5s1.5.675 1.5 1.5c0 .833.889 1.5 2 1.5 1.619 0 2 .667 2 3.5 0 3.222.238 3.5 3 3.5h3V78h-6.5c-5.111 0-6.5.321-6.5 1.5m-62 3c0 .825.675 1.5 1.5 1.5s1.5-.675 1.5-1.5-.675-1.5-1.5-1.5-1.5.675-1.5 1.5m25 50q0 1.5 3 1.5t3-1.5-3-1.5-3 1.5"/><path fill-opacity=".377" fill-rule="evenodd" d="M75 35.5q0 1.5-3 1.5c-2.333 0-3 .444-3 2 0 1.111-.667 2-1.5 2-.825 0-1.5.675-1.5 1.5 0 .833-.889 1.5-2 1.5s-2 .667-2 1.5c0 .825-.675 1.5-1.5 1.5-1.2 0-1.5 1.5-1.5 7.5s-.3 7.5-1.5 7.5c-1.179 0-1.5 1.389-1.5 6.5s-.321 6.5-1.5 6.5Q53 75 53 78t-1.5 3c-.825 0-1.5.675-1.5 1.5q0 1.5-3 1.5t-3-1.5c0-1.208-1.556-1.5-8-1.5s-8-.292-8-1.5q0-1.5-3-1.5t-3-1.5-3-1.5-3-1.5c0-.833-.889-1.5-2-1.5s-2-.667-2-1.5c0-.825-.675-1.5-1.5-1.5S9 68.325 9 67.5 8.325 66 7.5 66 6 66.675 6 67.5 6.675 69 7.5 69s1.5.675 1.5 1.5.675 1.5 1.5 1.5 1.5.675 1.5 1.5c0 .833.889 1.5 2 1.5s2 .667 2 1.5q0 1.5 3 1.5c2.667 0 3 .333 3 3q0 3-1.5 3c-.825 0-1.5.675-1.5 1.5s-.675 1.5-1.5 1.5c-.833 0-1.5.889-1.5 2q0 2-2 2c-1.556 0-2 .667-2 3s.444 3 2 3c1.111 0 2 .667 2 1.5 0 .825.675 1.5 1.5 1.5s1.5.675 1.5 1.5.675 1.5 1.5 1.5 1.5.675 1.5 1.5q0 1.5 3 1.5t3 1.5c0 .825.675 1.5 1.5 1.5s1.5.675 1.5 1.5q0 1.5 3 1.5c2.762 0 3 .278 3 3.5 0 2.444-.452 3.5-1.5 3.5-1.111 0-1.5 1.167-1.5 4.5s.389 4.5 1.5 4.5q1.5 0 1.5 3c0 2.333.444 3 2 3 1.111 0 2 .667 2 1.5 0 .825.675 1.5 1.5 1.5.833 0 1.5.889 1.5 2 0 1.704.667 2 4.5 2 3.333 0 4.5.389 4.5 1.5s1.167 1.5 4.5 1.5 4.5.389 4.5 1.5c0 1.048 1.056 1.5 3.5 1.5s3.5.452 3.5 1.5c0 1.111 1.167 1.5 4.5 1.5s4.5.389 4.5 1.5c0 1.262 2.222 1.5 14 1.5h14v-3q0-3 1.5-3t1.5-3 1.5-3c.833 0 1.5-.889 1.5-2 0-1.556-.667-2-3-2q-3 0-3-1.5c0-.825-.675-1.5-1.5-1.5s-1.5-.675-1.5-1.5.675-1.5 1.5-1.5 1.5-.675 1.5-1.5.675-1.5 1.5-1.5 1.5-.675 1.5-1.5c0-1.048 1.056-1.5 3.5-1.5s3.5-.452 3.5-1.5c0-.825.675-1.5 1.5-1.5s1.5-.675 1.5-1.5q0-1.5 3-1.5t3-1.5c0-1.208 1.556-1.5 8-1.5 7.333 0 8-.167 8-2q0-2-2-2c-1.111 0-2-.667-2-1.5q0-1.5-3-1.5t-3-1.5c0-1.111-1.167-1.5-4.5-1.5s-4.5.389-4.5 1.5c0 .825-.675 1.5-1.5 1.5q-1.5 0-1.5-3t-1.5-3c-1.242 0-1.5-1.889-1.5-11 0-10.333-.121-11-2-11-1.111 0-2-.667-2-1.5 0-1.222-1.667-1.5-9-1.5s-9 .278-9 1.5c0 .825-.675 1.5-1.5 1.5-1.133 0-1.5 1.222-1.5 5v5h-3.5c-2.833 0-3.5-.381-3.5-2 0-1.111-.667-2-1.5-2-.825 0-1.5-.675-1.5-1.5s-.675-1.5-1.5-1.5-1.5-.675-1.5-1.5-.675-1.5-1.5-1.5-1.5-.675-1.5-1.5-.675-1.5-1.5-1.5-1.5-.675-1.5-1.5c0-1.167 1.333-1.5 6-1.5s6-.333 6-1.5c0-1.228 1.722-1.5 9.5-1.5h9.5v-5c0-3.778-.367-5-1.5-5-1.111 0-1.5-1.167-1.5-4.5s-.389-4.5-1.5-4.5-1.5-1.167-1.5-4.5-.389-4.5-1.5-4.5c-1.048 0-1.5-1.056-1.5-3.5s-.452-3.5-1.5-3.5c-.825 0-1.5-.675-1.5-1.5 0-1.208-1.556-1.5-8-1.5s-8 .292-8 1.5M97 39c0 1.111.667 2 1.5 2s1.5-.889 1.5-2-.667-2-1.5-2-1.5.889-1.5 2m31 0c0 1.111-.667 2-1.5 2q-1.5 0-1.5 3t1.5 3c1.2 0 1.5 1.5 1.5 7.5V62h3c2.762 0 3 .278 3 3.5 0 2.444.452 3.5 1.5 3.5 1.167 0 1.5 1.333 1.5 6v6h5c3.778 0 5-.367 5-1.5 0-1.253 2.056-1.5 12.5-1.5H172v-3q0-3-1.5-3t-1.5-3-1.5-3c-.833 0-1.5-.889-1.5-2q0-2-2-2c-1.111 0-2-.667-2-1.5q0-1.5-3-1.5t-3-1.5c0-.825-.675-1.5-1.5-1.5-1.111 0-1.5-1.167-1.5-4.5s-.389-4.5-1.5-4.5c-.825 0-1.5-.675-1.5-1.5s-.675-1.5-1.5-1.5-1.5-.675-1.5-1.5c0-1.179-1.389-1.5-6.5-1.5-5.833 0-6.5-.205-6.5-2 0-1.556-.667-2-3-2s-3 .444-3 2m-12 3.5c0 .825.675 1.5 1.5 1.5s1.5-.675 1.5-1.5-.675-1.5-1.5-1.5-1.5.675-1.5 1.5m-13 3c0 .825.675 1.5 1.5 1.5s1.5-.675 1.5-1.5-.675-1.5-1.5-1.5-1.5.675-1.5 1.5m72 0c0 .825.675 1.5 1.5 1.5s1.5-.675 1.5-1.5-.675-1.5-1.5-1.5-1.5.675-1.5 1.5M3 60.5c0 .825.675 1.5 1.5 1.5S6 61.325 6 60.5 5.325 59 4.5 59 3 59.675 3 60.5M112 64q0 2 2 2t2-2-2-2-2 2m79 1.5c0 2.833-.381 3.5-2 3.5-1.111 0-2 .667-2 1.5s.889 1.5 2 1.5 2-.667 2-1.5c0-.825.675-1.5 1.5-1.5 1.048 0 1.5-1.056 1.5-3.5s-.452-3.5-1.5-3.5-1.5 1.056-1.5 3.5m-72 11c0 .825.675 1.5 1.5 1.5s1.5-.675 1.5-1.5-.675-1.5-1.5-1.5-1.5.675-1.5 1.5m-22 6c0 .825.675 1.5 1.5 1.5s1.5-.675 1.5-1.5-.675-1.5-1.5-1.5-1.5.675-1.5 1.5m25 0c0 .825.675 1.5 1.5 1.5s1.5-.675 1.5-1.5-.675-1.5-1.5-1.5-1.5.675-1.5 1.5m31 0c0 .825-.675 1.5-1.5 1.5s-1.5.675-1.5 1.5-.675 1.5-1.5 1.5c-1.048 0-1.5 1.056-1.5 3.5s-.452 3.5-1.5 3.5q-1.5 0-1.5 3t1.5 3 1.5 3v3h9.5c7.778 0 9.5.272 9.5 1.5 0 .833-.889 1.5-2 1.5s-2 .667-2 1.5q0 1.5-3 1.5c-2.333 0-3 .444-3 2 0 1.795.667 2 6.5 2 5.111 0 6.5.321 6.5 1.5 0 .825.675 1.5 1.5 1.5 1.208 0 1.5-1.556 1.5-8s.292-8 1.5-8c.825 0 1.5-.675 1.5-1.5s.675-1.5 1.5-1.5 1.5-.675 1.5-1.5.675-1.5 1.5-1.5 1.5-.675 1.5-1.5.675-1.5 1.5-1.5 1.5-.675 1.5-1.5.675-1.5 1.5-1.5c.833 0 1.5-.889 1.5-2s-.667-2-1.5-2c-.825 0-1.5-.675-1.5-1.5 0-1.111-1.167-1.5-4.5-1.5s-4.5-.389-4.5-1.5c0-.825-.675-1.5-1.5-1.5-1.133 0-1.5 1.222-1.5 5s-.367 5-1.5 5c-.825 0-1.5.675-1.5 1.5s-.675 1.5-1.5 1.5c-1.133 0-1.5-1.222-1.5-5 0-4.333-.267-5-2-5-1.111 0-2-.667-2-1.5 0-1.111-1.167-1.5-4.5-1.5s-4.5.389-4.5 1.5m-34 10c0 .825.675 1.5 1.5 1.5s1.5-.675 1.5-1.5-.675-1.5-1.5-1.5-1.5.675-1.5 1.5m40 0c0 .825.675 1.5 1.5 1.5s1.5-.675 1.5-1.5-.675-1.5-1.5-1.5-1.5.675-1.5 1.5"/><path fill-opacity=".982" fill-rule="evenodd" d="M66 42.5c0 .833-.889 1.5-2 1.5s-2 .667-2 1.5.889 1.5 2 1.5 2-.667 2-1.5c0-.825.675-1.5 1.5-1.5s1.5-.675 1.5-1.5-.675-1.5-1.5-1.5-1.5.675-1.5 1.5m12 18q0 1.5 3 1.5t3-1.5-3-1.5-3 1.5m16 0q0 1.5 3 1.5t3-1.5-3-1.5-3 1.5m40 0c0 1.048 1.056 1.5 3.5 1.5s3.5-.452 3.5-1.5-1.056-1.5-3.5-1.5-3.5.452-3.5 1.5m25 13c0 .825.675 1.5 1.5 1.5s1.5-.675 1.5-1.5-.675-1.5-1.5-1.5-1.5.675-1.5 1.5m-62 6c0 .825-.675 1.5-1.5 1.5s-1.5.675-1.5 1.5-.675 1.5-1.5 1.5c-1.133 0-1.5 1.222-1.5 5s.367 5 1.5 5c.825 0 1.5.675 1.5 1.5 0 1.222 1.667 1.5 9 1.5s9-.278 9-1.5c0-.833.889-1.5 2-1.5 1.733 0 2-.667 2-5s-.267-5-2-5c-1.111 0-2-.667-2-1.5 0-.825-.675-1.5-1.5-1.5s-1.5-.675-1.5-1.5c0-1.167-1.333-1.5-6-1.5s-6 .333-6 1.5m-72 3c0 1.111 1.167 1.5 4.5 1.5s4.5-.389 4.5-1.5-1.167-1.5-4.5-1.5-4.5.389-4.5 1.5M97 84q0 3 1.5 3c.825 0 1.5-.675 1.5-1.5s.675-1.5 1.5-1.5 1.5-.675 1.5-1.5q0-1.5-3-1.5c-2.667 0-3 .333-3 3m56-1.5c0 .825-.675 1.5-1.5 1.5s-1.5.675-1.5 1.5-.675 1.5-1.5 1.5c-1.133 0-1.5 1.222-1.5 5s-.367 5-1.5 5c-.825 0-1.5.675-1.5 1.5 0 1.222 1.667 1.5 9 1.5s9-.278 9-1.5c0-.833.889-1.5 2-1.5 1.733 0 2-.667 2-5s-.267-5-2-5c-1.556 0-2-.667-2-3 0-2.889-.167-3-4.5-3-3.333 0-4.5.389-4.5 1.5m0 3c0 .825.675 1.5 1.5 1.5s1.5-.675 1.5-1.5-.675-1.5-1.5-1.5-1.5.675-1.5 1.5M19 89c0 1.822.667 2 7.5 2 6 0 7.5.3 7.5 1.5 0 .825.675 1.5 1.5 1.5s1.5.675 1.5 1.5c0 .833.889 1.5 2 1.5s2-.667 2-1.5-.889-1.5-2-1.5-2-.667-2-1.5c0-.825-.675-1.5-1.5-1.5-.833 0-1.5-.889-1.5-2 0-1.822-.667-2-7.5-2s-7.5.178-7.5 2m87 0c0 1.111.667 2 1.5 2s1.5-.889 1.5-2-.667-2-1.5-2-1.5.889-1.5 2m53 3.5c0 .825.675 1.5 1.5 1.5s1.5-.675 1.5-1.5-.675-1.5-1.5-1.5-1.5.675-1.5 1.5m13 0c0 .825.675 1.5 1.5 1.5s1.5-.675 1.5-1.5-.675-1.5-1.5-1.5-1.5.675-1.5 1.5m-50 20v3.5h7.5c6.833 0 7.5-.178 7.5-2 0-1.111-.667-2-1.5-2-.825 0-1.5-.675-1.5-1.5 0-1.167-1.333-1.5-6-1.5h-6zm40-2c0 .825-.675 1.5-1.5 1.5-.833 0-1.5.889-1.5 2 0 1.795.667 2 6.5 2h6.5v-7h-5c-3.778 0-5 .367-5 1.5m-125 22c0 .833.889 1.5 2 1.5s2 .667 2 1.5c0 .825.675 1.5 1.5 1.5s1.5-.675 1.5-1.5-.675-1.5-1.5-1.5-1.5-.675-1.5-1.5c0-.833-.889-1.5-2-1.5s-2 .667-2 1.5"/></svg>