<svg xmlns="http://www.w3.org/2000/svg" width="24" height="24" fill="#000000"><g clip-path="url(#a)"><path fill="#545454" d="m23.613 15.41-5.19-9.003c-1.137-1.877-3.912-1.896-5.01.08l-5.449 9.361c-1.018 1.717.24 3.873 2.276 3.873h10.918c2.056 0 3.593-2.216 2.455-4.312Z"/><path fill="#636363" d="m16.129 16.109-.32-.559c-.3-.519-.958-1.637-.958-1.637L10.46 6.288c-1.138-1.697-3.833-1.836-4.97.3L.38 15.43c-1.059 1.857.199 4.272 2.495 4.292h18.244c-2.815.02-3.713-1.437-4.99-3.613Z"/><path fill="url(#b)" d="m16.128 16.108-.319-.56a297 297 0 0 0-.958-1.636l-2.835-4.99-4.072 6.946c-1.018 1.717.24 3.873 2.276 3.873H21.12c-2.835-.02-3.713-1.457-4.99-3.633Z"/></g><defs><linearGradient id="b" x1="6.495" x2="19.11" y1="12.712" y2="17.374" gradientUnits="userSpaceOnUse"><stop stop-color="#4a4a4a" stop-opacity="0"/><stop offset="1" stop-color="#424242"/></linearGradient><clipPath id="a"><path fill="#ffffff" d="M0 0h24v24H0z"/></clipPath></defs></svg>