<svg xmlns="http://www.w3.org/2000/svg" width="24" height="24" fill="#000000"><circle cx="12" cy="12" r="12" fill="#000000"/><path fill="#000000" d="M19.2 11.532a1.83 1.83 0 0 1-1.273-.518 1.738 1.738 0 0 1-.527-1.249c0-.468-.19-.917-.527-1.248A1.818 1.818 0 0 0 15.6 8c-.477 0-.935.186-1.273.517a1.75 1.75 0 0 0-.527 1.249c0 .468-.19.917-.527 1.248a1.818 1.818 0 0 1-1.273.518c-.477 0-.935-.186-1.273-.518a1.749 1.749 0 0 1-.527-1.248 1.75 1.75 0 0 0-.531-1.241A1.818 1.818 0 0 0 8.4 8.012c-.475 0-.931.184-1.269.513a1.75 1.75 0 0 0-.531 1.24 1.737 1.737 0 0 1-.527 1.25 1.805 1.805 0 0 1-1.273.517c-.356 0-.704.103-1 .297-.296.194-.527.47-.663.793a1.734 1.734 0 0 0 .39 1.924 1.833 1.833 0 0 0 1.962.383c.329-.134.61-.36.808-.65.197-.29.303-.632.303-.982a1.75 1.75 0 0 1 .532-1.24 1.818 1.818 0 0 1 1.268-.513c.475 0 .931.184 1.269.513.337.328.528.774.531 1.24 0 .469.19.918.527 1.25.338.33.796.516 1.273.516.477 0 .935-.186 1.273-.517.337-.331.527-.78.527-1.248 0-.469.19-.918.527-1.25a1.818 1.818 0 0 1 1.273-.516c.477 0 .935.186 1.273.517.337.331.527.78.527 1.248 0 .35.106.691.303.981.198.29.48.517.808.65.33.134.691.17 1.04.101.35-.068.67-.236.922-.483s.423-.561.492-.904c.07-.342.034-.698-.102-1.02a1.774 1.774 0 0 0-.663-.793 1.824 1.824 0 0 0-1-.297Z"/></svg>