<svg width="500" height="253" viewBox="0 0 500 253" fill="#000000" xmlns="http://www.w3.org/2000/svg">
<path fill-rule="evenodd" clip-rule="evenodd" d="M56.8744 30.3793V60.7586H28.665H0.455688V84.6281V108.498H28.665C53.9797 108.498 56.8744 109.387 56.8744 117.177C56.8744 124.976 53.9797 125.857 28.4394 125.857H0L1.315 148.642L2.62564 171.426L33.5127 172.689L64.3955 173.952L71.9556 190.708C101.51 256.254 200.89 274.013 240.244 220.779L249.536 208.22L264.955 223.245C318.557 275.467 409.921 252.704 432.523 181.499C434.654 174.781 439.91 173.596 467.516 173.596H500L498.685 150.812L497.374 128.027L470.25 126.734C428.34 124.737 429.507 108.498 471.561 108.498H500L498.685 85.7131L497.374 62.9286L468.08 61.644L438.786 60.3637V30.1797V0H415.177H391.572L390.222 16.2746L388.877 32.5493H247.83H106.783L105.438 16.2746L104.088 0H80.4835H56.8744V30.3793ZM207.148 126.942C198.498 172.003 126.313 171.209 126.313 126.052V112.837H168.084H209.856L207.148 126.942ZM369.347 126.052C369.347 171.292 298.121 172.081 289.037 126.942L286.199 112.837H327.775H369.347V126.052Z" fill="#000000"/>
</svg>
