<!-- Generated by IcoMoon.io -->
<svg version="1.1" xmlns="http://www.w3.org/2000/svg" width="32" height="32" viewBox="0 0 32 32" fill="#000000">
<title>nbs</title>
<path d="M13.128 9.241c-0.468 0.202-1.041 0.537-1.272 0.744-0.287 0.256-0.373 0.568-0.271 0.976 0.135 0.537 0.1 0.573-0.327 0.344-0.414-0.221-0.742 0.010-2.464 1.742-1.093 1.098-1.987 2.186-1.987 2.417 0 0.24-0.184 0.42-0.429 0.42-0.236 0-1.768 1.342-3.404 2.982-2.352 2.358-2.974 3.121-2.974 3.647v0.665h8.948l1.165-1.216c0.641-0.669 1.253-1.216 1.361-1.216s0.199 0.246 0.203 0.547c0.004 0.301 0.25 0.72 0.547 0.932s0.912 0.512 1.366 0.669c0.455 0.156 1.084 0.284 1.398 0.284 0.568 0 0.572-0.018 0.572-2.903 0-1.754-0.1-2.965-0.254-3.060-0.14-0.086-0.401-0.035-0.58 0.114-0.26 0.216-0.345 0.109-0.415-0.526-0.049-0.439-0.021-1.18 0.062-1.648s0.165-0.714 0.183-0.547c0.018 0.167 0.251 0.304 0.518 0.304 0.46 0 0.486-0.162 0.486-3.039v-3.039l-0.79 0.020c-0.434 0.011-1.173 0.185-1.641 0.387zM16.291 10.928c0.001 1.188 0.071 2.571 0.153 3.072 0.109 0.662 0.271 0.912 0.591 0.912 0.242 0 0.503 0.103 0.581 0.228s0.073 0.653-0.010 1.172c-0.122 0.764-0.25 0.94-0.674 0.927-0.507-0.016-0.523 0.072-0.523 2.901 0 2.85 0.013 2.919 0.553 2.996 0.304 0.043 1.037-0.107 1.629-0.332s1.259-0.613 1.482-0.86c0.251-0.277 0.361-0.689 0.287-1.074-0.109-0.57-0.084-0.593 0.286-0.258 0.369 0.334 0.586 0.185 2.399-1.637 1.097-1.102 1.994-2.193 1.994-2.425 0-0.239 0.184-0.42 0.429-0.42 0.236 0 1.834-1.408 3.551-3.129 2.593-2.599 3.095-3.217 2.958-3.647-0.159-0.502-0.292-0.517-4.429-0.517h-4.264l-2.743 2.705-0.072-0.685c-0.053-0.505-0.323-0.829-1.027-1.235-0.525-0.303-1.45-0.618-2.055-0.701l-1.1-0.151 0.003 2.16zM12.916 12.906c0.302 0.386 0.294 0.394-0.092 0.092-0.234-0.184-0.425-0.375-0.425-0.425s0.041-0.092 0.092-0.092c0.050 0 0.242 0.191 0.425 0.425zM18.751 18.741c0.302 0.386 0.294 0.394-0.092 0.092-0.234-0.184-0.425-0.375-0.425-0.425s0.041-0.092 0.092-0.092c0.050 0 0.242 0.191 0.425 0.425z"/>
</svg>
