<svg xmlns="http://www.w3.org/2000/svg" width="64" height="64" fill="#000000"><path fill-opacity=".09" fill-rule="evenodd" d="M11.99 26.519c-.974 1.82-1.567 2.167-2.136 1.25-.593-.955-1.354-.697-3.071 1.04L4.5 31.118 7 33.309c1.375 1.205 2.5 2.853 2.5 3.661 0 2.674 4.708 4 14.25 4.015 7.49.012 9.583-.318 11-1.735 1.209-1.209 3.14-1.703 6.25-1.596 2.475.084 5.063-.309 5.75-.873.867-.711 1.25-.682 1.25.097 0 .617.9 1.122 2 1.122s2-.505 2-1.122c0-.78.454-.746 1.487.111 2.52 2.092 4.515.447 4.498-3.708-.011-2.537-.302-3.329-.887-2.406-.479.756-2.047 1.375-3.484 1.375-1.889 0-2.614.52-2.614 1.875C51 35.156 50.55 36 50 36s-1-.881-1-1.958c0-1.623-.598-1.91-3.5-1.682-2.369.187-3.5-.15-3.5-1.042 0-1.467-1.645-1.808-2.167-.45-.183.477-1.348 1.183-2.588 1.569-1.68.522-2.42.237-2.902-1.118C33.231 28.193 30.782 26 28.404 26c-1.257 0-2.564-.45-2.904-1-.34-.55-2.44-1-4.666-1-3.187 0-3.926.319-3.472 1.5.316.825.125 1.5-.425 1.5s-1.259-.675-1.575-1.5c-.829-2.159-1.834-1.855-3.372 1.019M37 35c0 .55.675 1 1.5 1s1.5-.45 1.5-1-.675-1-1.5-1-1.5.45-1.5 1m7 0c0 .55.45 1 1 1s1-.45 1-1-.45-1-1-1-1 .45-1 1m10 0c0 .55.423 1 .941 1s1.219-.45 1.559-1c.34-.55-.084-1-.941-1S54 34.45 54 35"/><path fill-opacity=".267" fill-rule="evenodd" d="M17.882 24.75a5.707 5.707 0 0 0 0 1.5c.181 1.15-1.341.891-2.689-.457-.943-.943-1.535-.834-2.704.496-.823.937-.955 1.255-.293.707.662-.548 1.65-.996 2.195-.996 1.474 0-2.673 2.931-4.2 2.968-.72.018-1.003-.463-.629-1.068.491-.794.123-.802-1.324-.028-4.109 2.2-3.453 5.051 1.512 6.573 2.314.71 3.129 2.555 1.128 2.555-.776 0-.738.464.122 1.5.965 1.163 3.66 1.5 12 1.5s11.035-.337 12-1.5c1.317-1.587.877-1.833-2.75-1.539-1.668.135-2.25-.354-2.25-1.889 0-2.893 3.366-2.688 5.341.325 1.861 2.841 6.377 3.061 7.238.353C43.164 33.907 46 33.285 46 35c0 .55-.765 1-1.7 1-1.288 0-1.419.281-.542 1.158.864.864 1.504.87 2.523.023 1.019-.845 1.655-.845 2.5 0 .846.846 1.482.846 2.5 0 .919-.762 1.697-.803 2.376-.124 2.002 2.002 4.344-.116 4.328-3.914-.009-2.004-.351-3.116-.76-2.472-.41.644-1.978 1.48-3.485 1.858-1.507.378-2.74 1.314-2.74 2.079 0 .766-.45 1.392-1 1.392s-1-.675-1-1.5c0-1.454-1.633-1.973-5.25-1.67-1.042.087-1.763-.557-1.782-1.592-.028-1.521-.184-1.551-1.25-.238-2.208 2.719-5.536 2.252-7.226-1.015-.998-1.931-2.328-2.996-3.768-3.017-1.223-.017-3.098-.692-4.165-1.5-2.014-1.523-7.47-2.033-7.677-.718m-9.549 6.575c0 1.999 2.37 2.993 3.295 1.381.381-.663.327-.875-.119-.472-.446.404-1.343.007-1.993-.882-1.069-1.462-1.183-1.464-1.183-.027M14 35c0 1.1.173 2 .383 2 .211 0 .619-.9.907-2 .287-1.1.115-2-.384-2-.498 0-.906.9-.906 2m3.704-.023c.333 1.273 1.711 1.655 6.113 1.696 3.126.029 4.895-.144 3.933-.384C26.788 36.05 26 35.469 26 35s.788-1.067 1.75-1.328c.962-.261.288-.423-1.5-.361-1.924.068-3.25.639-3.25 1.402 0 .708-.675 1.287-1.5 1.287s-1.5-.6-1.5-1.333c0-.734-.613-1.334-1.363-1.334-.772 0-1.176.713-.933 1.644M31 35c0 .55.675 1 1.5 1s1.5-.45 1.5-1-.675-1-1.5-1-1.5.45-1.5 1m6 0c0 .55.675 1 1.5 1s1.5-.45 1.5-1-.675-1-1.5-1-1.5.45-1.5 1m17 0c0 .55.675 1 1.5 1s1.5-.45 1.5-1-.675-1-1.5-1-1.5.45-1.5 1"/><path fill-opacity=".236" fill-rule="evenodd" d="M18.244 24.63c-.691.298-1.002.952-.691 1.455.76 1.23-.857 1.165-2.345-.093-.655-.555-.969-.704-.697-.331.684.938-2.534 4.339-4.107 4.339-.707 0-1.607.52-1.999 1.155-.443.715-.275.883.44.44.635-.392 1.155-.236 1.155.346S9.475 33 8.833 33c-.641 0-.877.289-.524.643.354.353 1.339.064 2.19-.642 1.303-1.081 1.447-1.025.917.358-.35.912-.139 1.641.477 1.641.609 0 1.107.45 1.107 1s-.73 1-1.622 1c-1.344 0-1.404.263-.352 1.531 1.726 2.08 23.057 1.733 23.761-.386.321-.966-.134-1.17-1.585-.709-1.118.355-2.337.155-2.707-.444-.479-.776-1.079-.752-2.084.082-1.04.863-1.764.878-2.753.057-.738-.612-1.675-.78-2.083-.372-1.487 1.487-5.446.843-5.918-.963-.656-2.51-2.423-2.242-2.996.454-.321 1.511-.426 1.265-.32-.75.135-2.555.567-3.007 2.909-3.046 1.997-.034 2.75.445 2.75 1.75 0 .988.675 1.796 1.5 1.796s1.5-.808 1.5-1.796c0-1.246.741-1.783 2.417-1.75 1.329.025 2.75.38 3.158.787.408.408 1.398.196 2.201-.47 1.19-.987 1.863-.707 3.63 1.508 2.593 3.252 3.165 3.378 3.165.696 0-1.129-.514-1.827-1.163-1.578-1.52.583-3.408-1.345-3.408-3.478 0-2.346-11.783-6.568-14.756-5.289M15 29c0 .55.45 1 1 1s1-.45 1-1-.45-1-1-1-1 .45-1 1m-9.457 1.931c-.317.512-.193 1.167.274 1.456.467.289.85-.13.85-.931 0-1.686-.316-1.833-1.124-.525M57.055 31c-.689 1.585-.483 5.828.247 5.098.477-.477.666-1.932.419-3.233-.247-1.301-.546-2.14-.666-1.865M42.25 33.662c-1.643.663-1.615 3.005.036 3.005.707 0 1.285-.825 1.285-1.834 0-1.008-.016-1.797-.035-1.754-.02.043-.598.306-1.286.583m3.179 1.163c0 1.441.86 1.775 4.571 1.775s4.571-.334 4.571-1.775c0-1.618-.2-1.643-2.285-.277-2.03 1.331-2.542 1.331-4.572 0-2.085-1.366-2.285-1.341-2.285.277M26 35c0 .55.675 1 1.5 1s1.5-.45 1.5-1-.675-1-1.5-1-1.5.45-1.5 1m5 0c0 .55.45 1 1 1s1-.45 1-1-.45-1-1-1-1 .45-1 1"/><path fill-opacity=".146" fill-rule="evenodd" d="M19.845 24.74c-.911.203-1.944 1.518-2.296 2.92-.493 1.965-1.11 2.426-2.691 2.013-2.808-.734-4.874.21-4.779 2.184.05 1.047.263 1.187.585.387.279-.691.94-.989 1.47-.661.593.366.513 1.138-.208 2.006-.686.827-.757 1.411-.171 1.411.55 0 1.553-.666 2.228-1.48 1.657-1.996 6.204-1.52 6.788.711.611 2.338 2.229 2.274 2.229-.089 0-1.532.687-1.82 3.913-1.637 5.082.286 6.973-.826 5.485-3.227-.606-.978-2.181-1.934-3.5-2.124-1.319-.19-2.848-.683-3.398-1.095-1.589-1.19-3.863-1.72-5.655-1.319m14.719 9.553c.376.986.935 1.541 1.243 1.233.308-.307.001-1.114-.683-1.793-.988-.98-1.102-.865-.56.56M15 36.019c0 1.678-.464 1.92-2.75 1.432-2.632-.562-2.667-.52-.809.981C14.446 40.859 35 40.589 35 38.122c0-.365-4.05-.611-9-.545-8.13.107-9-.06-9-1.729C17 34.832 16.55 34 16 34s-1 .909-1 2.019M26 35c0 .55.675 1 1.5 1s1.5-.45 1.5-1-.675-1-1.5-1-1.5.45-1.5 1m5 0c0 .55.45 1 1 1s1-.45 1-1-.45-1-1-1-1 .45-1 1"/></svg>