<svg xmlns="http://www.w3.org/2000/svg" width="234" height="250" version="1.1" fill="#000000"><path fill-opacity=".196" d="M 107 5.818 C 105.075 6.883, 98.412 10.735, 92.192 14.378 C 85.973 18.020, 80.722 21, 80.523 21 C 80.324 21, 70.337 26.774, 58.330 33.831 C 46.324 40.889, 33.062 48.543, 28.859 50.841 C 19.052 56.204, 15.332 60.049, 13.348 66.876 C 11.052 74.774, 11.798 170.605, 14.197 176 C 16.591 181.383, 19.692 183.611, 45.500 198.487 C 58.700 206.095, 76.433 216.349, 84.907 221.273 C 106.931 234.069, 110.909 236, 115.255 236 C 120.452 236, 123.189 234.724, 142.942 223.092 C 152.368 217.541, 160.237 213, 160.429 213 C 160.621 213, 170.744 207.150, 182.924 200 C 195.104 192.850, 205.440 187, 205.894 187 C 206.347 187, 208.765 185.199, 211.266 182.997 C 219.100 176.102, 219.003 176.901, 218.978 119.072 C 218.958 72.164, 218.823 68.210, 217.121 64.500 C 214.482 58.747, 211.158 55.865, 199.679 49.379 C 194.080 46.215, 179.247 37.636, 166.716 30.313 C 154.185 22.991, 143.765 17, 143.559 17 C 143.354 17, 138.532 14.216, 132.843 10.814 C 123.803 5.408, 121.744 4.581, 116.500 4.254 C 111.921 3.969, 109.671 4.339, 107 5.818 M 106 70.635 C 91.968 73.358, 77.522 84.403, 71.205 97.237 C 67.400 104.967, 66.056 110.598, 66.024 118.946 L 66 125.392 69.250 122.261 C 77.514 114.298, 92.014 108.256, 104.077 107.748 C 108.619 107.556, 111.554 106.825, 114.099 105.250 C 125.687 98.081, 140.076 94.912, 152.666 96.757 C 156.425 97.308, 159.678 97.597, 159.896 97.400 C 160.495 96.857, 155.380 89.426, 151.299 84.909 C 147.514 80.720, 139.606 75.685, 132 72.620 C 127.524 70.818, 111.404 69.587, 106 70.635" stroke="none" fill="#000000" fill-rule="evenodd"/><path fill-opacity=".268" d="M 107 6.712 C 103.975 8.292, 91.150 15.582, 78.500 22.911 C 65.850 30.241, 47.656 40.742, 38.070 46.248 C 19.894 56.686, 18.643 57.585, 15.449 62.500 C 13.590 65.362, 13.487 67.913, 13.213 118 C 12.898 175.498, 12.920 175.748, 18.768 181.214 C 20.270 182.618, 31.175 189.370, 43 196.217 C 54.825 203.064, 73.506 213.895, 84.513 220.286 C 107.381 233.561, 110.445 235, 115.847 235 C 120.770 235, 124.777 232.941, 162.500 211.034 C 179 201.451, 196.118 191.561, 200.539 189.056 C 210.062 183.659, 212.830 181.522, 215.505 177.500 C 217.437 174.594, 217.500 172.785, 217.500 119.927 L 217.500 65.355 214.834 61.326 C 212.800 58.252, 209.362 55.688, 200.334 50.510 C 193.825 46.778, 179.050 38.219, 167.500 31.492 C 155.950 24.764, 144.475 18.148, 142 16.789 C 139.525 15.430, 133.799 12.167, 129.276 9.539 C 118.616 3.345, 114.455 2.816, 107 6.712 M 104.958 70.492 C 78.208 75.827, 59.864 104.392, 66.570 130.270 C 70.309 144.701, 79.878 157.864, 90.565 163.280 C 97.075 166.578, 106.366 169.016, 108.141 167.892 C 109.222 167.207, 109.232 167.027, 108.191 167.015 C 107.471 167.007, 107.141 166.580, 107.459 166.067 C 107.776 165.554, 108.449 163.191, 108.954 160.817 C 110.638 152.903, 112.027 147.520, 112.906 145.500 C 117.770 134.324, 119.024 130.848, 118.498 129.997 C 118.141 129.419, 119.139 129, 120.873 129 L 123.865 129 120.546 133.932 C 114.966 142.224, 111.859 151.778, 111.668 161.237 L 111.500 169.500 119.070 169.389 C 144.589 169.016, 165.499 146.462, 165.322 119.500 C 165.161 95.045, 148.841 74.935, 125.539 70.476 C 116.475 68.742, 113.725 68.744, 104.958 70.492" stroke="none" fill="#000000" fill-rule="evenodd"/><path fill-opacity=".74" d="M 110 5.901 C 108.625 6.363, 102.851 9.499, 97.169 12.871 C 91.486 16.242, 86.676 19, 86.479 19 C 86.281 19, 76.304 24.738, 64.306 31.750 C 52.308 38.763, 41.369 45.082, 39.996 45.794 C 38.623 46.506, 33.225 49.656, 28 52.794 C 20.011 57.592, 18.138 59.216, 16.224 63 L 13.947 67.500 14.224 121.074 L 14.500 174.649 16.887 178.131 C 18.629 180.672, 24.553 184.708, 38.797 193.057 C 49.535 199.351, 58.789 204.680, 59.362 204.901 C 59.936 205.121, 69.143 210.409, 79.823 216.651 C 90.502 222.893, 99.391 228, 99.576 228 C 99.761 228, 102.202 229.350, 105 231 C 108.933 233.319, 111.295 234, 115.403 234 C 121.383 234, 123.055 233.223, 145.411 220.053 C 153.052 215.551, 162.273 210.238, 165.902 208.246 C 169.531 206.255, 181.500 199.349, 192.500 192.900 C 210.458 182.372, 212.730 180.742, 214.750 176.930 L 217 172.685 217 119.965 C 217 64.196, 216.903 62.923, 212.333 58.811 C 210.609 57.260, 185.317 42, 184.470 42 C 184.254 42, 175.172 36.774, 164.289 30.386 C 126.679 8.312, 122.138 5.912, 117.154 5.472 C 114.594 5.245, 111.375 5.439, 110 5.901 M 99.388 71.376 C 90.130 74.818, 84.924 78.256, 78.417 85.227 C 59.471 105.520, 59.929 136.002, 79.471 155.522 C 98.836 174.867, 128.626 176.041, 148.950 158.263 C 160.169 148.448, 166 135.363, 166 120 C 166 104.484, 161.478 93.617, 150.725 83.291 C 140.117 73.105, 129.776 68.972, 115.093 69.052 C 107.671 69.092, 104.117 69.618, 99.388 71.376" stroke="none" fill="#000000" fill-rule="evenodd"/><path fill-opacity=".667" d="M 112.274 5.706 C 109.272 6.282, 104.331 8.972, 80.457 23.025 C 69.269 29.611, 59.787 35, 59.386 35 C 58.985 35, 57.947 35.621, 57.079 36.380 C 56.210 37.139, 52.350 39.475, 48.500 41.571 C 31.265 50.955, 19.484 58.627, 17.285 61.898 L 15 65.296 15.173 102.398 C 15.272 123.592, 15.593 134.712, 15.923 128.332 C 16.483 117.494, 17.919 111.666, 18.079 119.583 C 18.122 121.738, 18.385 122.938, 18.662 122.250 C 18.940 121.563, 19.804 121, 20.583 121 C 21.362 121, 22.007 121.563, 22.015 122.250 C 22.026 123.118, 22.308 123.061, 22.939 122.064 C 23.667 120.913, 24.143 120.873, 25.335 121.863 C 26.342 122.699, 27.031 122.759, 27.470 122.049 C 28.353 120.619, 33.322 120.722, 34.800 122.200 C 35.733 123.133, 36.267 123.133, 37.200 122.200 C 38.783 120.617, 45.693 120.654, 46.341 122.250 C 46.727 123.204, 47.085 123.159, 47.848 122.064 C 48.688 120.858, 49.106 120.843, 50.466 121.972 C 51.692 122.989, 52.366 123.034, 53.242 122.158 C 54.781 120.619, 58.704 120.679, 59.338 122.250 C 59.615 122.938, 59.906 122.150, 59.984 120.500 L 60.127 117.500 61.226 120 C 62.227 122.277, 62.436 121.877, 63.565 115.500 C 65.252 105.976, 66.636 101.722, 70.196 95.119 C 74.014 88.035, 85.048 77.215, 91.541 74.187 C 94.268 72.915, 97.236 71.481, 98.135 71.001 C 99.034 70.520, 103.309 69.644, 107.635 69.053 C 115.736 67.947, 129.074 68.934, 132.718 70.909 C 133.698 71.440, 136.686 72.907, 139.357 74.168 C 145.351 76.998, 156.187 86.781, 159.132 92.021 C 160.337 94.165, 161.695 95.689, 162.150 95.407 C 162.605 95.126, 162.679 95.673, 162.315 96.622 C 161.800 97.963, 162.040 98.198, 163.392 97.680 C 164.785 97.145, 165.005 97.410, 164.496 99.012 C 164.147 100.112, 164.612 103.593, 165.529 106.747 C 166.569 110.325, 167.215 116.249, 167.246 122.492 C 167.282 129.918, 167.462 131.276, 167.943 127.755 C 168.753 121.823, 170.257 120.055, 173.025 121.784 C 174.204 122.520, 175 122.611, 175 122.008 C 175 120.520, 183.749 120.748, 184.254 122.250 C 184.588 123.241, 184.999 123.232, 186.240 122.208 C 187.519 121.153, 187.900 121.153, 188.324 122.208 C 188.720 123.197, 188.861 123.207, 188.921 122.250 C 189.018 120.713, 192.204 120.604, 193.687 122.087 C 194.454 122.854, 194.968 122.860, 195.433 122.108 C 195.891 121.367, 196.700 121.417, 198.077 122.270 C 199.608 123.220, 200.231 123.228, 200.805 122.307 C 201.213 121.650, 204.237 120.975, 207.524 120.807 C 212.991 120.526, 213.543 120.287, 214 118 C 214.275 116.625, 214.747 120.900, 215.049 127.500 C 215.477 136.851, 215.697 133.209, 216.049 111 C 216.729 68.008, 216.627 65.539, 214.005 61.712 C 211.969 58.741, 202.293 52.526, 183.650 42.215 C 180.383 40.408, 176.468 38.046, 174.951 36.965 C 173.433 35.884, 171.926 35, 171.601 35 C 171.277 35, 162.346 29.888, 151.756 23.641 C 121.667 5.892, 118.590 4.494, 112.274 5.706 M 62.158 112 C 62.158 113.375, 62.385 113.938, 62.662 113.250 C 62.940 112.563, 62.940 111.438, 62.662 110.750 C 62.385 110.063, 62.158 110.625, 62.158 112 M 63.232 129 C 63.232 130.925, 63.438 131.713, 63.689 130.750 C 63.941 129.787, 63.941 128.213, 63.689 127.250 C 63.438 126.287, 63.232 127.075, 63.232 129 M 65.170 134.500 C 65.154 135.600, 65.527 137.400, 66 138.500 C 67.095 141.048, 67.095 138.419, 66 135 C 65.356 132.990, 65.194 132.892, 65.170 134.500 M 164.571 136.571 C 164.204 138.037, 164.096 139.429, 164.331 139.665 C 164.567 139.900, 165.061 138.894, 165.429 137.429 C 165.796 135.963, 165.904 134.571, 165.669 134.335 C 165.433 134.100, 164.939 135.106, 164.571 136.571" stroke="none" fill="#000000" fill-rule="evenodd"/></svg>