<svg xmlns="http://www.w3.org/2000/svg" width="200" height="200" fill="#000000"><path fill-opacity=".165" fill-rule="evenodd" d="M0 100.005V200.01l100.25-.255 100.25-.255.255-99.75L201.01 0H0zm.481.495c0 55 .121 77.647.269 50.326.148-27.32.148-72.32 0-100C.602 23.147.481 45.5.481 100.5M50 100c0 23.365.354 36.899.957 36.527C55.664 133.617 98.5 100.707 98.5 100S55.664 66.383 50.957 63.473C50.354 63.101 50 76.635 50 100m75.5-18.959c-13.2 9.916-24 18.447-24 18.959s10.8 9.043 24 18.959l24 18.03.272-18.495c.15-10.171.15-26.817 0-36.988l-.272-18.495z"/><path fill-opacity=".446" fill-rule="evenodd" d="M0 100.005V200.01l100.25-.255 100.25-.255.255-99.75L201.01 0H0zm.481.495c0 55 .121 77.647.269 50.326.148-27.32.148-72.32 0-100C.602 23.147.481 45.5.481 100.5M50 100c0 29.432.259 36.961 1.25 36.359C55.126 134.007 99 100.599 99 100S55.126 65.993 51.25 63.641C50.259 63.039 50 70.568 50 100m75.5-19.105c-13.2 9.907-24 18.505-24 19.105s10.8 9.198 24 19.105l24 18.014.272-18.559c.15-10.208.15-26.912 0-37.12l-.272-18.559z"/><path fill-opacity=".797" fill-rule="evenodd" d="M0 100.005V200.01l100.25-.255 100.25-.255.255-99.75L201.01 0H0zm.481.495c0 55 .121 77.647.269 50.326.148-27.32.148-72.32 0-100C.602 23.147.481 45.5.481 100.5M50 100c0 20.442.337 37.017.75 36.833C52.983 135.841 99 100.692 99 99.979S52.988 64.161 50.75 63.167C50.337 62.983 50 79.558 50 100m75.059-19.06c-12.892 9.738-23.602 18.19-23.8 18.784-.28.84 44.779 35.682 47.991 37.109.412.184.75-16.354.75-36.75 0-20.395-.338-37.03-.75-36.965s-11.298 8.085-24.191 17.822"/><path fill-opacity=".123" fill-rule="evenodd" d="M0 100.005V200.01l100.25-.255 100.25-.255.255-99.75L201.01 0H0zm.481.495c0 55 .121 77.647.269 50.326.148-27.32.148-72.32 0-100C.602 23.147.481 45.5.481 100.5M50 100c0 20.442.356 37.017.791 36.833.435-.183 11.411-8.321 24.392-18.083C88.163 108.987 99.315 101 99.965 101s11.82 7.987 24.823 17.75 23.995 17.9 24.427 18.083c.432.184.785-16.391.785-36.833s-.353-37.017-.785-36.833c-.432.183-11.436 8.32-24.455 18.083S100.584 99 99.965 99 88.206 91.013 75.21 81.25s-23.984-17.9-24.419-18.083C50.356 62.983 50 79.558 50 100"/></svg>