<svg xmlns="http://www.w3.org/2000/svg" width="26" height="25" fill="#000000"><path fill="#000000" d="m20.248 1.227-5.013 7.44c-.347.507.32 1.12.8.694l4.934-4.294c.133-.107.32-.027.32.16v13.415c0 .186-.24.266-.347.133L6.007.907A2.468 2.468 0 0 0 4.06 0h-.533C2.14 0 .993 1.147.993 2.56v18.882a2.56 2.56 0 0 0 4.748 1.333l5.013-7.44c.347-.507-.32-1.12-.8-.694L5.02 18.908c-.133.107-.32.027-.32-.16V5.36c0-.186.24-.266.347-.133l14.935 17.868c.48.587 1.2.907 1.947.907h.533a2.56 2.56 0 0 0 2.56-2.56V2.56A2.56 2.56 0 0 0 22.462 0c-.907 0-1.733.453-2.214 1.227z"/></svg>