<svg xmlns="http://www.w3.org/2000/svg" width="200" height="200" fill="#000000"><path fill-opacity=".157" fill-rule="evenodd" d="M0 100.005V200.01l100.25-.255 100.25-.255.255-99.75L201.01 0H0zm.481.495c0 55 .121 77.647.269 50.326.148-27.32.148-72.32 0-100C.602 23.147.481 45.5.481 100.5m79.622-79.04c-4.069.769-7.669 1.768-8 2.219-.332.452-1.147.821-1.812.821s-6.562 2.7-13.106 6l-11.897 6-.574 5.268c-.746 6.85-3.799 11.684-8.765 13.875-3.274 1.444-4.271 2.607-5.831 6.8-3.493 9.386-4.408 15.838-3.858 27.191.526 10.841 3.683 23.366 5.891 23.366.532 0 .739.369.46.821s.369 2.262 1.441 4.024c1.527 2.511 1.948 5.042 1.948 11.711 0 5.915.381 8.634 1.25 8.926.688.231 3.168.91 5.513 1.511 7.374 1.887 14.244 9.47 14.231 15.707-.008 4.408-1.788 9.702-4.093 12.176l-2.114 2.269 2.297 2.444c5.021 5.345 14.906 5.575 20.015.466 5.548-5.548 4.427-11.684-2.677-14.652-4.049-1.692-4.332-2.403-.957-2.403 1.356 0 4.056 1.397 6 3.104s3.535 2.6 3.535 1.985c0-1.421 5.936-5.08 8.25-5.085 2.864-.006 1.99 1.511-1.462 2.539-2.003.597-3.938 2.21-5.137 4.283l-1.924 3.325 2.887 4.098c1.587 2.254 4.911 5.187 7.386 6.519 4.37 2.352 4.977 2.408 21 1.927 19.397-.583 28.861-2.836 38.332-9.126 5.669-3.764 11.761-10.754 15.052-17.269 2.049-4.059 2.03-4.3-.347-4.3-6.687 0-20.872-8.93-25.799-16.242-7.08-10.508-9.014-24.692-4.766-34.958.538-1.299-.123-2.045-2.804-3.165-1.929-.806-3.993-2.374-4.588-3.485-2.77-5.176.327-14.214 5.551-16.2 1.447-.55 3.878-1.889 5.404-2.975 5.571-3.967 13.884-1.57 16.794 4.841 1.591 3.505 1.917 3.69 6.71 3.806 2.942.071 6.767 1.003 9.193 2.241l4.155 2.12-1.554-5.241c-4.251-14.342-10.054-24.656-19.164-34.064-6.307-6.514-13.858-11.988-15.304-11.094-.722.446-.907.293-.48-.397.806-1.304-12.919-8.593-14.426-7.661-.528.325-.959.175-.959-.335s-2.812-1.731-6.25-2.714c-8.187-2.341-25.035-2.835-34.647-1.017m19.275 13.931c-5.984 2.693-7.824 7.912-4.829 13.703C96.786 53.421 105 58.063 105 55c0-.55-.72-1-1.6-1-2.796 0-8.4-6.489-8.4-9.726 0-5.551 7.041-9.501 13.145-7.373 3.312 1.154 4.895.738 3.288-.866-1.728-1.727-8.81-2.105-12.055-.644m-74.754 9.148c-.965 2.514-.681 3.163.498 1.136.584-1.004.851-2.036.593-2.293-.257-.258-.749.263-1.091 1.157M40.25 80.703c-1.709.634-1.582 3.956.177 4.631.785.301 1.984-.124 2.664-.944.991-1.194.956-1.755-.177-2.82-.778-.732-1.976-1.122-2.664-.867M83 82.941c0 2.693 1.892 3.596 3.714 1.773 1.823-1.822.92-3.714-1.773-3.714-1.255 0-1.941.686-1.941 1.941M58.2 87.2c-.66.66-1.2 1.769-1.2 2.465 0 1.688-3.724 3.61-5.271 2.721-.676-.389-.895-.338-.488.112s.277 1.378-.292 2.063c-.568.685-1.421 2.596-1.894 4.248-.734 2.558-.469 3.377 1.792 5.533C54.348 107.682 58.07 109 64 109c11.279 0 17.322-5.811 13.885-13.352-.775-1.702-2.685-2.94-6.273-4.069-2.837-.892-5.714-2.513-6.393-3.601-1.376-2.202-5.174-2.623-7.019-.778m6.8 5.714c0 1.495-3.776 2.311-5.704 1.232-2.874-1.608-8.189 2.206-8.264 5.93-.018.866 1.108 2.646 2.5 3.954 5.157 4.845 21.259 3.356 22.999-2.126.927-2.921-.393-5.785-3.352-7.275C69.359 92.706 65 91.792 65 92.914m42.053.19c-3.284 1.312-11.579 1.587-16.803.558-4.828-.952-6.017.716-1.685 2.363 6.38 2.425 24.812.012 22.948-3.004-.749-1.212-1.241-1.203-4.46.083m-.553 6.63c-4.689 1.276-11.806 1.131-17.25-.354-1.611-.439-2.25-.184-2.25.897 0 2.187 10.512 3.864 17.243 2.751 6.184-1.022 8.757-1.926 8.757-3.076 0-1.539-1.47-1.588-6.5-.218"/><path fill-opacity=".042" fill-rule="evenodd" d="M40 16c0 15.838.155 16.607 3.25 16.118.925-.146.986 1.313.092 2.207-.362.362-1.272.148-2.023-.475-1.079-.895-1.233-.789-.735.509.435 1.134.057 1.694-1.227 1.812-3.831.353-4.902.561-6.559 1.274-.936.403-2.243.398-2.905-.011-.733-.453-.941-.321-.533.339.64 1.035-2.944 2.871-4.684 2.4-.454-.122-.54.239-.191.802.348.564-.01 1.025-.796 1.025-2.663 0-1.642 7.127 1.504 10.5 1.539 1.65 2.8 3.364 2.802 3.809s.455.531 1.005.191 1 .057 1 .882-.392 1.742-.871 2.038-1.149 1.928-1.488 3.625c-.34 1.698-1.042 2.825-1.56 2.505-.519-.32-1.268-.056-1.666.588-.452.731-.291.903.43.457.635-.392 1.155-.236 1.155.346s-.562 1.066-1.25 1.074q-1.254.015.25 1c1.223.803 1.255 1.143.173 1.841-.73.472-1.239 1.484-1.131 2.25.107.767.142 5.761.076 11.099L24 93.909l-3.5.657C17.393 95.149 15.467 97 17.969 97c.532 0 .831.563.664 1.25-.168.688-.116.912.114.5.644-1.152 4.253-.89 4.253.309 0 .582.45.781 1 .441s1 .084 1 .941S24.325 102 23.5 102s-1.5-.408-1.5-.906-.9-.671-2-.384c-2.89.756-2.504 3.29.5 3.29 1.375 0 2.5.48 2.5 1.067 0 .595.844.8 1.906.463 1.597-.507 2.016.048 2.588 3.433.375 2.22.986 4.037 1.358 4.037s1.709 2.177 2.972 4.837c1.688 3.556 2.215 6.205 1.986 10-.17 2.839-.76 5.17-1.31 5.178s-.483.346.149.75c1.806 1.155 2.036 5.602.359 6.918-1.243.975-1.278 1.414-.199 2.5 1.081 1.087 1.198.968.669-.683-.632-1.972-.619-1.973.94-.059 1.456 1.787 2.093 5.065 1.634 8.409-.114.828.287 1.058 1.036.596.857-.53.963-.337.355.647-1.604 2.595-1.383 6.791.388 7.356 1.184.377 1.761 1.916 1.987 5.291.515 7.712.539 8.709.235 9.76-.16.55-.237 6.512-.171 13.25L40 200h160V0H40zm40 5.497c-7.897 1.59-14.801 4.258-22 8.503-6.173 3.64-12.167 6.124-23.209 9.62-12.126 3.84-13.293 6.142-6.535 12.899l4.255 4.255-1.731 3.97C27.552 68.147 26 76.347 26 86c0 11.141 1.682 18.572 6.532 28.854 3.025 6.414 3.468 8.342 3.468 15.09 0 13.414 3.919 25.333 12.256 37.277 6.468 9.267 15.83 12.229 23.261 7.36 3.265-2.139 5.791-7.219 5.052-10.161-.738-2.943-4.366-6.42-6.699-6.42-.963 0-2.03-.45-2.37-1-1.527-2.471 4.875-.779 7.684 2.03l3.03 3.031 2.308-2.49c2.269-2.448 7.031-4.351 8.133-3.25.308.309-.95 1.193-2.797 1.966-3.924 1.64-5.458 3.273-6.327 6.731-.489 1.951.154 3.422 2.897 6.627 5.311 6.205 9.794 7.602 24.072 7.502 21.565-.152 36.357-4.181 46.145-12.57 17.557-15.049 26.655-57.476 18.814-87.737-7.316-28.232-30.752-50.447-60.459-57.309-7.834-1.81-22.105-1.825-31-.034m19.378 13.94c-5.967 2.597-7.828 7.858-4.829 13.657C96.786 53.421 105 58.063 105 55c0-.55-.72-1-1.6-1-2.765 0-8.402-6.488-8.385-9.65.018-3.35.631-4.382 3.958-6.658 2.77-1.896 7.207-2.201 10.032-.689 1.098.587 2.105.628 2.433.097.591-.955-4.616-3.127-7.337-3.061-.881.022-3.006.651-4.723 1.398m36.915 35.472c-1.215 1.014-2.021 2.029-1.793 2.257s-.549.487-1.725.576c-3.501.264-7.854 5.428-8.474 10.053-.483 3.599-.183 4.477 2.423 7.083 3.903 3.902 8.788 4.777 15.055 2.695 5.321-1.767 9.483-5.455 11.157-9.888 1.773-4.693 1.237-6.747-2.818-10.803-3.195-3.194-4.568-3.876-7.75-3.849-2.251.02-4.791.804-6.075 1.876M39 82.893c0 2.42 2.502 3.412 4.013 1.591 1.469-1.769.449-3.484-2.072-3.484-1.238 0-1.941.686-1.941 1.893m44 .048c0 2.693 1.892 3.596 3.714 1.773 1.823-1.822.92-3.714-1.773-3.714-1.255 0-1.941.686-1.941 1.941M58.2 87.2c-.66.66-1.2 1.9-1.2 2.756s-1.277 2.121-2.837 2.812c-6.113 2.706-6.568 9.365-.926 13.565 3.354 2.497 12.998 3.405 18.141 1.707C75.58 106.653 79 102.739 79 99.317c0-3.145-4.338-7.102-8.679-7.916-2.018-.379-4.077-1.626-4.993-3.023-1.672-2.552-5.175-3.131-7.128-1.178m6.8 5.733c0 1.477-3.787 2.285-5.699 1.216-2.452-1.373-7.107 1.232-7.909 4.425-.865 3.446 2.511 6.912 8.103 8.32 7.294 1.837 15.968-.908 17.098-5.41.935-3.723-.125-5.37-4.828-7.504C67.048 91.839 65 91.522 65 92.933m39.5.754c-3.996 1.139-6.279 1.204-11.37.322-3.503-.606-6.623-.849-6.933-.539-2.775 2.775 14.382 4.682 21.29 2.366 2.192-.735 3.914-1.775 3.825-2.311-.239-1.439-1.284-1.414-6.812.162m3 5.9c-5.038 1.586-10.892 1.709-15.844.335-2.114-.587-4.109-.802-4.433-.478-1.153 1.153 1.42 2.54 6.496 3.503 5.867 1.112 16.514-.318 18.29-2.458 1.636-1.971-.043-2.307-4.509-.902m-70.05 56.047c.08 1.502.734 2.927 1.453 3.167.953.318 1.113-.206.59-1.933-1.096-3.617-2.207-4.288-2.043-1.234M45 170c1.958 1.266 3.282 1.266 2.5 0-.34-.55-1.379-.993-2.309-.985-1.457.014-1.484.15-.191.985"/><path fill-opacity=".184" fill-rule="evenodd" d="M128.985 11.75c-.012 8.626-.301 11.351-1.087 10.25-.861-1.205-.975-1.058-.578.75.569 2.597-.51 2.931-2.34.726-.696-.838-1.485-1.304-1.754-1.035s-1.442-.056-2.607-.722c-2.326-1.328-2.79-1.435-6.976-1.604-2.147-.086-2.709-.5-2.261-1.667.392-1.023.195-1.305-.578-.827-.645.399-7.277.783-14.738.854-16.851.16-22.248 1.548-39.021 10.03-6.9 3.489-15.92 7.328-20.045 8.53-9.138 2.664-12.62 4.386-13.97 6.91-1.39 2.596.18 6.514 4.061 10.14l3.052 2.851-2.738 7.782c-2.353 6.69-2.749 9.425-2.821 19.498L24.5 95.932l-3.75-.594c-4.87-.771-5.079 1.322-.223 2.233 2.024.38 3.987 1.52 4.605 2.676 1.016 1.898.862 1.974-2.632 1.319-4.879-.915-4.363 1.526.577 2.728 3.075.749 3.766 1.614 6.805 8.52 2.823 6.414 3.516 9.469 4.186 18.458.942 12.639 2.811 19.745 7.598 28.887 6.369 12.165 13.998 18.761 21.768 18.819 4.001.03 11.041-3.527 13.05-6.594 1.329-2.028 1.929-2.286 3.083-1.328.788.654 1.433 1.741 1.433 2.417s2.812 2.651 6.25 4.39c6.095 3.084 6.591 3.163 20.022 3.21 9.708.033 13.572.37 13.095 1.142-.409.662-.213.808.495.37.644-.398.912-1.142.595-1.654-.895-1.449 1.523-1.094 3.067.45.759.759 1.065 1.715.678 2.124s.311.432 1.548.052c2.212-.68 2.25-.547 2.25 7.876V200h71V0h-71zM83.5 20.635c-7.147 1.097-14.752 3.877-25.5 9.32-6.325 3.204-15.937 7.21-21.36 8.903-5.422 1.694-10.485 3.598-11.25 4.233-2.362 1.961-1.559 4.771 2.679 9.368l4.07 4.415-2.71 7.313c-2.18 5.883-2.803 9.567-3.185 18.839-.551 13.38.799 20.216 6.283 31.828C35.571 121.3 36 123.176 36 130.055c0 10.118 1.425 16.699 5.582 25.769 8.144 17.771 18.376 24.869 28.389 19.691 3.197-1.653 7.029-6.49 7.029-8.872 0-3.472-2.614-6.989-6.472-8.708-3.834-1.707-3.892-1.797-1.201-1.864 1.889-.048 3.854.956 5.923 3.025 3.043 3.043 3.123 3.062 4.673 1.117 1.918-2.407 5.309-4.228 7.761-4.169 1.157.028.478.751-1.872 1.992-3.969 2.097-6.812 5.438-6.812 8.007 0 2.961 6.848 9.733 11.761 11.628 3.822 1.475 7.158 1.788 17.239 1.618 21.679-.367 35.028-4.28 45.228-13.258 6.176-5.437 10.279-12.147 14.292-23.377 9.23-25.824 9.084-55.132-.378-76-9.002-19.855-26.464-35.501-47.913-42.93-7.527-2.607-10.382-3.06-20.729-3.287-6.6-.145-13.35-.056-15 .198m38.113.548c.289.467.944.591 1.456.274 1.308-.808 1.161-1.124-.525-1.124-.801 0-1.22.383-.931.85M129 24.969c0 .532.675.709 1.5.393.825-.317 1.5-.753 1.5-.969s-.675-.393-1.5-.393-1.5.436-1.5.969M99.378 35.437c-5.967 2.597-7.828 7.858-4.829 13.657C96.786 53.421 105 58.063 105 55c0-.55-.72-1-1.6-1s-3.13-1.53-5-3.4c-7.45-7.45-2.357-15.508 9.009-14.254 4.971.549 5.02.529 2.091-.847-3.767-1.769-6.166-1.784-10.122-.062M39 83c0 1.646.518 2.065 2.25 1.82 1.237-.176 2.25-.995 2.25-1.82s-1.013-1.644-2.25-1.82C39.518 80.935 39 81.354 39 83m44-.107c0 2.42 2.502 3.412 4.013 1.591 1.469-1.769.449-3.484-2.072-3.484-1.238 0-1.941.686-1.941 1.893M57.694 89c-.623 1.65-1.625 3-2.226 3C53.661 92 49 97.464 49 99.582c0 5.339 6.496 9.418 15 9.418 8.313 0 15-4.077 15-9.146 0-2.958-4.882-7.741-8.617-8.442-2.077-.39-4.129-1.622-5.055-3.034-2.294-3.501-6.198-3.182-7.634.622M65 92.933c0 1.5-3.76 2.266-5.791 1.179C56.756 92.799 51 96.159 51 98.904c0 5.43 4.615 8.419 13 8.419 6.611 0 11.723-2.37 12.593-5.839.935-3.723-.125-5.37-4.828-7.504C67.048 91.839 65 91.522 65 92.933m43.009.041c-2.603 1.644-11.333 2.211-16.392 1.064-2.685-.608-5.13-.858-5.433-.555-2.764 2.763 14.417 4.662 21.303 2.353 2.192-.735 3.914-1.775 3.825-2.311-.234-1.409-1.588-1.634-3.303-.551m-.509 6.73c-3.925 1.444-12.973 1.313-18.25-.265-3.288-.982-2.845 1.381.5 2.67 6.578 2.536 24.717.074 22.763-3.088-.347-.562-.717-.969-.822-.904s-1.991.778-4.191 1.587m23.313 79.979c.721.289 1.584.253 1.916-.079s-.258-.568-1.312-.525c-1.165.048-1.402.285-.604.604m.266 2.9c.048 1.165.285 1.402.604.605.289-.722.253-1.585-.079-1.917s-.568.258-.525 1.312"/><path fill-opacity=".708" fill-rule="evenodd" d="M85.318 19.096c-9.272 1.08-17.803 3.987-28.007 9.542-4.504 2.452-13.441 6.222-19.86 8.378-6.419 2.157-12.296 4.44-13.061 5.075-2.547 2.114-1.621 6.647 2.228 10.908l3.617 4.004-2.867 8.748C24.927 73.198 24.5 76.11 24.5 85.314v10.813l-3.25-.609c-1.79-.335-3.25-.187-3.25.33C18 96.954 20.419 98 22.975 98 24.619 98 26 99.831 26 102.012c0 .467-1.46.43-3.243-.082-3.961-1.136-3.757-1.137-3.757.031 0 .529 1.739 1.43 3.865 2.003 3.375.908 4.087 1.643 5.619 5.788.964 2.611 2.659 6.323 3.766 8.248 1.576 2.742 2.073 5.666 2.292 13.5.365 13.047 3.655 23.637 10.541 33.933 5.611 8.388 8.483 10.834 14.676 12.502 6.083 1.638 11.343 0 15.358-4.782l3.179-3.787 3.991 4.329c5.947 6.452 11.418 7.758 29.21 6.972 21.718-.96 32.83-4.534 42.942-13.81 13.829-12.687 22.445-40.092 21.29-67.717-.852-20.35-5.714-34.61-16.857-49.444C147.275 34.26 126.643 22.298 106 19.041c-7.305-1.153-10.383-1.145-20.682.055M78.5 21.639c-4.356.918-12.289 4.076-21 8.358-7.7 3.786-17.375 7.85-21.5 9.031-13.378 3.829-14.69 6.098-7.835 13.536l4.166 4.519-1.625 3.407c-3.156 6.618-4.947 15.888-4.93 25.51.02 11.101 1.95 19.571 6.721 29.5 3.014 6.273 3.406 8.091 3.774 17.5.514 13.113 3.236 21.639 10.199 31.944 6.793 10.053 9.027 11.556 17.18 11.556 6.233 0 6.646-.155 9.927-3.735 5.327-5.813 4.363-11.618-2.407-14.493-2.019-.857-3.138-1.746-2.488-1.976 1.71-.604 7.085 2.4 8.276 4.626.953 1.78 1.237 1.683 4.43-1.51 2.056-2.056 4.346-3.38 5.762-3.33 2.122.073 2.045.215-.796 1.46-3.741 1.64-7.354 5.931-7.354 8.736 0 1.104 2.138 4.141 4.75 6.747 6.628 6.614 11.805 7.648 30.911 6.176 35.721-2.753 49.961-15.875 57.956-53.405 2.45-11.504 2.477-32.645.055-43.036-7.159-30.714-28.989-53.041-59.489-60.841-9.081-2.323-24.407-2.447-34.683-.28m22.143 13.389c-6.474 1.94-8.958 7.398-6.106 13.409 1.742 3.67 7.543 8.037 9.715 7.312.686-.229-.459-1.227-2.546-2.218s-4.449-3.068-5.25-4.616c-4.108-7.944.478-13.417 10.544-12.583 5.277.436 5.378.4 2.5-.893-3.432-1.543-4.859-1.609-8.857-.411M39.5 82c-.837 1.354.292 3 2.059 3 .793 0 1.441-.9 1.441-2 0-2.07-2.413-2.76-3.5-1m44.167-.333C82.29 83.043 83.073 85 85 85q2 0 2-2c0-1.927-1.957-2.71-3.333-1.333m-25.012 6.162c-.91 1.006-1.658 2.243-1.661 2.75-.004.506-1.354 1.688-3.001 2.625C44.219 98.765 50.703 109 64 109c9.671 0 16.812-5.728 14.223-11.409-1.31-2.876-6.698-6.581-9.579-6.587-1.021-.002-2.741-1.129-3.823-2.504-2.337-2.972-3.927-3.145-6.166-.671m4.995 5.592c-1.442 1.127-2.385 1.201-4.279.338-3.614-1.646-7.871 1.756-7.871 6.293 0 4.578 4.783 7.415 12.5 7.415s12.5-2.837 12.5-7.415c0-2.4-.702-3.855-2.5-5.183-3.474-2.565-8.092-3.212-10.35-1.448m42.85.227c-3.932 1.482-12.939 1.379-18.25-.209-3.504-1.047-2.678 1.216.899 2.463 6.646 2.317 21.851.535 21.851-2.56 0-.738-.112-1.31-.25-1.272s-2.05.749-4.25 1.578m-19.003 6.357c-.974 1.576 1.864 2.373 9.978 2.798 6.133.322 8.998.012 12.037-1.302 4.714-2.038 3.248-3.084-2.202-1.57-4.71 1.308-11.771 1.371-16.053.143-1.777-.51-3.468-.541-3.76-.069"/></svg>