<svg width="501" height="501" viewBox="0 0 501 501" fill="#000000" xmlns="http://www.w3.org/2000/svg">
<path fill-rule="evenodd" clip-rule="evenodd" d="M227.02 1.2855C16.7237 23.1855 -75.6093 276.904 72.5197 425.83C218.182 572.276 466.719 490.069 497.473 285.271C521.067 128.16 384.609 -15.1265 227.02 1.2855ZM318.862 137.385C350.717 145.42 365.149 171.598 358.558 209.391C356.029 223.894 327.025 356.666 326.207 357.484C321.507 362.184 279.119 361.062 279.699 356.253C279.797 355.438 286.757 322.821 295.165 283.771C312.292 204.227 313.186 197.755 308.304 188.628C295.694 165.05 250.992 169.144 221.457 196.581L214.665 202.889L198.083 280.309L181.5 357.729L176.01 359.038C165.073 361.646 136.499 360.473 134.56 357.336C134.311 356.933 144.35 308.492 156.87 249.688L179.633 142.771L184.576 141.415C195.064 138.535 227.02 140.016 227.02 143.382C227.02 143.883 226.105 148.399 224.988 153.417C222.561 164.31 222.572 164.33 228.136 159.646C253.25 138.501 288.752 129.791 318.862 137.385Z" fill="#000000"/>
</svg>
