<svg xmlns="http://www.w3.org/2000/svg" width="64" height="64" fill="#000000"><path fill-opacity=".259" fill-rule="evenodd" d="M18.5 2.882C6.619 8.586.026 18.969.011 32c-.008 6.22.482 8.524 2.871 13.5C8.589 57.388 18.977 63.98 32 63.98c13.359 0 23.259-6.486 29.602-19.395C64.549 38.586 65 36.675 65 30.168c0-4.126-.286-7.216-.635-6.866-.349.349-1.871-1.939-3.381-5.084C55.415 6.624 44.912.026 32 .011c-6.22-.008-8.524.482-13.5 2.871M18 32c0 10.667.373 17 1 17 .609 0 1-4.5 1-11.5 0-6.325.374-11.5.831-11.5s5.503 5.175 11.212 11.5C37.917 44.007 43.201 49 44.212 49 45.859 49 46 47.66 46 32c0-10.667-.373-17-1-17-.609 0-1 4.5-1 11.5 0 6.325-.337 11.461-.75 11.413s-5.413-5.224-11.113-11.5C25.91 19.555 21.021 15 19.887 15 18.112 15 18 16.005 18 32m2.037-12.914c-.027 1.917 2.577 5.411 10.065 13.5C45.591 49.319 44.006 47.96 43.963 44.472 43.933 42.063 41.665 39.131 32 29c-10.345-10.843-11.931-12.157-11.963-9.914M.349 32c0 4.675.173 6.587.383 4.25.211-2.338.211-6.163 0-8.5-.21-2.338-.383-.425-.383 4.25"/><path fill-opacity=".402" fill-rule="evenodd" d="M21.332 1.851C3.837 7.897-4.796 28.108 2.79 45.258c2.611 5.902 9.967 13.281 16.014 16.062 6.676 3.071 19.749 3.055 26.464-.031 6.421-2.953 14.118-11.02 16.226-17.009.926-2.629 2.093-5.561 2.595-6.516 1.126-2.147 1.217-13.071.103-12.382-.445.274-1.314-1.388-1.931-3.695C57.963 5.617 38.179-3.971 21.332 1.851M18 31.5c0 14.889.224 17.5 1.5 17.5 1.246 0 1.5-1.944 1.5-11.494V26.012l10.613 11.494C37.938 44.356 42.988 49 44.113 49 45.891 49 46 47.985 46 31.5c0-20.194-1.777-24.474-2.219-5.345L43.5 38.311l-11-12.146c-6.05-6.68-11.788-12.15-12.75-12.155-1.6-.009-1.75 1.486-1.75 17.49m3.024-11.379c.031 3.024 22.859 27.426 22.93 24.511.05-2.036-2.026-4.594-14.62-18.011-6.917-7.37-8.33-8.475-8.31-6.5M.32 32c0 3.575.182 5.038.403 3.25s.222-4.712 0-6.5C.502 26.962.32 28.425.32 32"/><path fill-opacity=".681" fill-rule="evenodd" d="M22.3 1.862C11.528 5.584 4.524 12.949 1.339 23.905c-4.147 14.266 3.475 30.458 17.322 36.797 17.479 8.002 38.442-1.222 43.528-19.154.632-2.227 1.522-4.476 1.98-4.998.974-1.113 1.146-11.198.174-10.226-.361.361-1.41-1.567-2.329-4.284-3.476-10.268-10.965-17.463-21.4-20.562C34.095-.458 28.686-.344 22.3 1.862M18 32c0 15.16.232 18 1.468 18 1.191 0 1.522-2.199 1.75-11.631l.282-11.631 10.389 11.381c6.967 7.632 11.085 11.381 12.5 11.381 2.067 0 2.111-.361 2.111-17.486 0-15.734-.172-17.52-1.718-17.817-1.53-.295-1.748.921-2 11.146L42.5 36.821l-10.368-11.41C25.923 18.576 21.01 14 19.882 14 18.109 14 18 15.041 18 32m3-11.913c0 2.698 21.395 25.588 21.846 23.374.197-.965-1.542-3.696-4.028-6.329-2.407-2.548-7.4-7.851-11.097-11.785C22.979 20.301 21 18.752 21 20.087M.3 32c0 3.025.187 4.263.416 2.75s.229-3.988 0-5.5S.3 28.975.3 32"/><path fill-opacity=".945" fill-rule="evenodd" d="M24.081 1.537C17.074 3.488 12.992 6.066 8.083 11.643.873 19.834-1.294 31.912 2.46 42.99c2.568 7.579 10.971 15.982 18.55 18.55 12.313 4.172 24.113 1.497 33.119-7.509 4.537-4.537 5.987-6.817 7.368-11.59.946-3.267 2.121-6.722 2.612-7.677C65.327 32.39 65.246 27.73 64 28.5c-.55.34-1-.228-1-1.263 0-8.593-10.254-21.506-19.51-24.568C36.004.193 30.141-.149 24.081 1.537M18.75 12.662c.688.278 1.813.278 2.5 0 .688-.277.125-.504-1.25-.504s-1.937.227-1.25.504M17 32c0 17.333.074 18 2 18 1.886 0 2-.667 2-11.687V26.626l3.026 2.899c1.664 1.594 2.824 3.424 2.577 4.066s1.093 2.66 2.975 4.484C31.46 39.9 33 41.001 33 40.522s1.138.199 2.529 1.506 2.318 2.927 2.06 3.601c-.259.674.178 1.763.97 2.42.793.658 1.441.826 1.441.373s.54-.282 1.2.378 2.235 1.2 3.5 1.2H47V32c0-17.237-.083-18-1.968-18-1.825 0-1.989.823-2.25 11.25L42.5 36.5l-3.463-4-3.464-4 3.464 3 3.463 3-2.903-3.214c-1.597-1.768-3.219-3.02-3.605-2.781-.96.593-5.083-3.916-5.37-5.875-.294-2.002-4.662-6.723-5.654-6.11-.408.252-1.297-.212-1.977-1.031S20.685 14 19.378 14H17zm10-12.5c1.292 1.375 2.574 2.5 2.849 2.5s-.557-1.125-1.849-2.5-2.574-2.5-2.849-2.5.557 1.125 1.849 2.5m-5.963.643c-.042 1.861 18.871 22.506 20.23 22.082.485-.151.616.156.291.681-.325.526-.133 1.238.426 1.584.559.345.999-.186.979-1.181-.047-2.324-21.876-25.387-21.926-23.166M24 23.5c1.292 1.375 2.574 2.5 2.849 2.5s-.557-1.125-1.849-2.5-2.574-2.5-2.849-2.5.557 1.125 1.849 2.5M.232 32c0 1.925.206 2.712.457 1.75.252-.962.252-2.538 0-3.5-.251-.962-.457-.175-.457 1.75m22.138 7c0 5.775.165 8.138.367 5.25s.202-7.612 0-10.5-.367-.525-.367 5.25m12.13-4c3.266 3.3 6.162 6 6.437 6s-2.171-2.7-5.437-6-6.162-6-6.437-6 2.171 2.7 5.437 6m-7.5-.687c0 .172 1.462 1.635 3.25 3.25L33.5 40.5l-2.937-3.25C27.825 34.221 27 33.54 27 34.313"/></svg>