<svg xmlns="http://www.w3.org/2000/svg" width="160" height="160" fill="#000000"><path fill-opacity=".275" fill-rule="evenodd" d="M65.5 1.463C31.825 7.631 5.587 36.002.961 71.25c-3.318 25.274 9.02 54.782 29.817 71.313 7.138 5.674 21.503 12.699 30.722 15.025 9.466 2.388 27.534 2.388 37 0 9.219-2.326 23.584-9.351 30.722-15.025 13.145-10.448 25.303-30.191 28.367-46.063.849-4.4 1.964-9.382 2.477-11.071C161.303 81.36 161.261 74 160 74c-.55 0-1-1.278-1-2.84 0-5.916-4.157-18.712-9.233-28.418C133.494 11.621 99.896-4.838 65.5 1.463M.3 80c0 3.025.187 4.263.416 2.75s.229-3.987 0-5.5S.3 76.975.3 80"/><path fill-opacity=".389" fill-rule="evenodd" d="M65.49 6.955c-23.238 4.978-42.553 20.748-52.935 43.221C-.011 77.373 6.117 109.869 28 132.075c8.549 8.676 17.875 14.551 29.5 18.586 7.318 2.54 9.235 2.777 22.5 2.777s15.182-.237 22.5-2.777c22.927-7.958 40.629-26.031 48.152-49.161 3.765-11.576 4.334-26.165 1.462-37.52-6.757-26.723-24.67-46.381-50.114-54.996-5.045-1.708-9.41-2.278-19.5-2.545-7.15-.189-14.805.043-17.01.516m11.873 8.542c-.346.901-.167 2.099.398 2.664 1.63 1.63 4.739.531 4.739-1.675 0-2.543-4.228-3.358-5.137-.989M37 74.38V114h20V73.872l7.556 6.174c4.156 3.396 7.791 5.941 8.077 5.655s.568-5.096.626-10.688c.118-11.181-.27-11.97-5.887-11.998-3.365-.016-4.705-1.139-5.865-4.916-.602-1.958-.439-2.287.878-1.782.888.341 1.615.458 1.615.26s-4.163-3.634-9.25-7.637c-5.087-4.002-11.163-8.83-13.5-10.729L37 34.759zm66-23.439c0 2.168.45 4.219 1 4.559 1.278.79 1.302 5.798.034 7.066-.532.532-1.094 6.216-1.25 12.632l-.284 11.666-6.759-5.492-6.759-5.491.359 12.076c.197 6.642.539 12.222.759 12.401.417.339 29.458 23.195 31.65 24.909.995.779 1.25-7.092 1.25-38.645V47h-20zM85.25 63.662c-.687.278-1.326 2.38-1.418 4.671l-.168 4.167-.389-3.684c-.307-2.914-.794-3.653-2.331-3.537-1.592.12-1.972.967-2.101 4.684l-.157 4.537-.593-4.991c-.452-3.805-1.037-5.076-2.461-5.346-1.213-.231-1.618.05-1.155.799.392.635.659 6.312.593 12.616-.073 7.056.33 12.301 1.049 13.644.872 1.629.878 2.279.024 2.564-.729.243-1.143 3.244-1.143 8.289 0 6.825.274 8.079 2 9.157 1.708 1.067 2 2.332 2 8.675 0 4.085.255 7.171.567 6.859 1.98-1.98 3.386-14.166 3.609-31.266l.247-19 .538 15.815c.52 15.245.598 15.713 2.175 13 1.356-2.332 1.651-6.202 1.722-22.565.047-10.862-.239-19.714-.636-19.671s-1.284.306-1.972.583M78.31 105.5c.005 3.3.192 4.529.415 2.732s.218-4.497-.01-6c-.229-1.503-.411-.032-.405 3.268m7.751 4.815c-1.022 3.097-2.432 11.259-3.734 21.622-.489 3.887-.377 4.256.899 2.979.802-.801 1.967-2.409 2.59-3.572C86.958 129.209 88.662 107 87.683 107c-.29 0-1.02 1.492-1.622 3.315m-12.7 15.185c.321 7.7.596 14.213.611 14.473.015.259.746-.553 1.624-1.807 1.169-1.669 1.437-3.535 1.002-6.972-.327-2.582-.867-7.619-1.201-11.194s-1.059-6.95-1.612-7.5c-.674-.67-.814 3.616-.424 13m5.784 12.5c-.129 3.312-.432 4.104-1.145 3-.703-1.087-.96-.262-.937 3l.032 4.5 1.511-4.313c.831-2.371 1.332-5.746 1.113-7.5-.319-2.546-.434-2.282-.574 1.313"/><path fill-opacity=".487" fill-rule="evenodd" d="M66.5 7.429c-22.884 4.53-40.015 17.419-51.364 38.647-12.4 23.192-11.487 48.882 2.564 72.167 5.567 9.226 17.068 20.761 25.522 25.598 13.245 7.578 30.732 11.151 45.17 9.23 16.706-2.223 29.35-8.09 40.883-18.969 29.543-27.869 32.369-70.147 6.8-101.723-8.778-10.84-23.531-20.216-37.575-23.882-8.565-2.235-23.572-2.736-32-1.068m11.652 6.456C75.923 15.297 77.206 18.5 80 18.5c1.625 0 2.597-.645 2.835-1.88.311-1.618-1.246-3.589-2.835-3.589-.275 0-1.107.384-1.848.854M37 74.941V115h19.959l.27-19.964.271-19.963 8.11 6.213c8.864 6.791 12.093 10.886 9.972 12.646-1.803 1.496-1.284 14.615.667 16.856 1.949 2.24 2.798 7.158 1.577 9.142-.657 1.07-.489 2.685.53 5.07 1.69 3.957 1.554 4.207 4.463-8.229 1.123-4.8 3.092-10.489 4.376-12.641l2.333-3.913 15.986 12.855c8.792 7.07 16.324 12.871 16.736 12.891S123 108 123 86V46h-20v4.941c0 2.718.45 5.219 1 5.559s1 1.716 1 3.059S104.55 62 104 62c-.611 0-1 4.667-1 12 0 6.6-.25 12-.556 12s-3.343-2.26-6.75-5.022L89.5 75.957l-.593 4.771c-.403 3.244-.643 1.135-.75-6.586L88 62.783l-2.75.791c-3.458.995-7.256 1.006-9.42.028-1.255-.567-1.781-.176-2.114 1.572l-.444 2.326-.136-2.25c-.119-1.962-.684-2.25-4.42-2.25-3.677 0-4.53-.415-6.015-2.929-1.674-2.834-1.665-2.939.276-3.25 1.511-.242-1.134-2.804-10.736-10.401-7.008-5.545-13.303-10.409-13.991-10.809-.991-.578-1.25 7.561-1.25 39.33M74.328 76.5c.005 3.85.185 5.302.402 3.228.216-2.075.213-5.225-.008-7s-.398-.078-.394 3.772m12.377 31.75C84.823 112.266 82 127.131 82 133.025v4.369l2.862-3.947c2.656-3.662 2.91-4.83 3.528-16.197.367-6.737.48-12.25.252-12.25s-1.099 1.463-1.937 3.25m-13.647 18.068c.012 8.625.342 15.67.732 15.656.391-.014 1.558-1.863 2.595-4.109 1.714-3.714 1.762-4.594.535-9.724-.742-3.103-1.411-7.802-1.487-10.444-.076-2.641-.646-5.31-1.267-5.931-.839-.839-1.124 2.904-1.108 14.552M78.984 135c-.026 1.375-.708 3.374-1.516 4.441-1.511 1.999-2.067 9.559-.703 9.559.947 0 4.241-9.082 4.22-11.634-.009-1.026-.452-2.541-.985-3.366-.77-1.191-.979-.986-1.016 1"/><path fill-opacity=".707" fill-rule="evenodd" d="M76.455 12.455c-2.906 2.905-3.096 4.904-.694 7.306 1.556 1.556 1.742 3.721 1.598 18.602-.101 10.367-.573 17.251-1.229 17.907-.591.591-3.974.96-7.593.829-5.94-.215-6.466-.073-5.855 1.582.966 2.614 2.302 3.277 6.818 3.38 2.2.05 5.556.653 7.458 1.34 2.971 1.073 4.16.982 8.455-.65 3.597-1.367 6.903-1.808 11.795-1.575l6.797.324-.003-2.817c-.002-2.223-.371-2.703-1.752-2.275-3.422 1.063-15.087 1.664-15.618.806-1.018-1.648-2.584-13.725-3.171-24.455-.481-8.803-.305-11.144.976-12.973 2.238-3.195 1.939-5.345-1.072-7.713-3.349-2.635-3.926-2.603-6.91.382m.65 1.918c-2.161 2.604 1.009 6.288 4.318 5.018C84.908 18.054 83.783 13 80 13c-.965 0-2.268.618-2.895 1.373"/></svg>