<svg xmlns="http://www.w3.org/2000/svg" width="200" height="200" fill="#000000"><path fill-opacity=".082" fill-rule="evenodd" d="M86.5.58c-1.1.258-5.15 1.17-9 2.026C40.687 10.793 12.324 39.063 2.36 77.5c-2.62 10.108-2.58 34.023.075 45 7.813 32.298 30.379 58.527 60.72 70.577 13.412 5.327 19.478 6.377 36.845 6.377s23.433-1.05 36.845-6.377c30.41-12.078 53.379-38.838 60.576-70.577.998-4.4 2.212-9.034 2.697-10.297C201.356 108.978 201.253 87 200 87c-.55 0-1.011-1.013-1.024-2.25-.032-3.07-3.313-15.08-5.9-21.595C181.224 33.302 155.823 11.101 124 2.782 116.757.888 91.511-.594 86.5.58m-2 37.034c-22.276 5.372-41.891 25.221-46.963 47.524C28.329 125.62 58.8 164.176 100 164.176c35.27 0 64.176-28.906 64.176-64.176 0-29.429-20.75-55.738-49.264-62.459-7.967-1.878-22.468-1.843-30.412.073M.385 100c0 6.875.16 9.688.355 6.25.196-3.437.196-9.062 0-12.5-.195-3.437-.355-.625-.355 6.25"/><path fill-opacity=".103" fill-rule="evenodd" d="M81.5 1.659c-13.787 2.946-28.485 9.129-39.31 16.537-6.041 4.134-19.86 17.953-23.994 23.994C13.84 48.555 7.571 61.203 5.154 68.5c-9.903 29.897-5.098 62.8 13.042 89.31 4.079 5.961 17.925 19.842 23.804 23.863 10.297 7.043 23.541 12.924 36 15.984 10.499 2.58 33.541 2.574 44-.01 19.989-4.94 34.472-13.024 48.548-27.099 14.407-14.408 22.908-29.872 26.963-49.048.93-4.4 2.096-8.781 2.59-9.736 1.268-2.45 1.174-25.052-.101-24.264-.55.34-1-.28-1-1.378 0-5.58-4.481-20.17-9.252-30.122-6.377-13.303-20.415-29.919-31.938-37.804-6.365-4.356-19.013-10.625-26.31-13.042-15.719-5.207-35.515-6.59-50-3.495M94 35.621c-15.588 2.869-25.103 6.6-32.765 12.847-1.643 1.34-11.427 11.124-12.767 12.767-13.232 16.229-16.655 44.674-7.744 64.352 3.727 8.23 6.605 12.273 14.011 19.678s11.448 10.284 19.678 14.011c19.678 8.911 48.123 5.488 64.352-7.744 1.643-1.34 11.427-11.124 12.767-12.767 13.232-16.229 16.655-44.674 7.744-64.352-3.727-8.23-6.605-12.273-14.011-19.678-7.395-7.396-11.449-10.284-19.636-13.992-7.704-3.49-25.149-6.314-31.629-5.122M.385 100c0 6.875.16 9.688.355 6.25.196-3.437.196-9.062 0-12.5-.195-3.437-.355-.625-.355 6.25"/><path fill-opacity=".028" fill-rule="evenodd" d="M87 .643C69.29 4.14 52.336 11.021 41.091 19.276c-7.148 5.248-16.567 14.667-21.815 21.815C13.37 49.137 5.524 66.055 2.855 76.5c-3.259 12.758-3.287 34.156-.062 46.699 4.757 18.498 13.615 34.169 26.727 47.281s28.783 21.97 47.281 26.727c17.118 4.402 44.073 2.619 58.997-3.903 29.095-12.714 45.759-29.438 57.595-57.804 1.964-4.705 5.578-19.042 5.595-22.191.007-1.205.462-2.469 1.012-2.809.569-.351 1-5.363 1-11.618 0-7.079-.356-10.78-1-10.382-.555.343-1.005-.408-1.012-1.691-.023-4.546-3.984-18.459-7.632-26.809-5.191-11.88-11.526-21.129-20.876-30.48-13.003-13.002-28.886-22.008-46.98-26.636C115.66.878 92.889-.52 87 .643m6 34.973c-17.536 3.286-28.001 8.428-38.478 18.906C42.086 66.958 35.588 82.564 35.588 100c0 35.668 28.744 64.412 64.412 64.412A64.227 64.227 0 0 0 164.412 100c0-29.457-19.936-55.19-48.357-62.419-6.794-1.728-18.841-2.755-23.055-1.965M.378 100c0 6.325.163 8.912.361 5.75s.198-8.338 0-11.5-.361-.575-.361 5.75"/><path fill-opacity=".147" fill-rule="evenodd" d="M80 2.413c-21.557 4.686-35.987 12.631-51.215 28.2-8.99 9.191-12.034 13.309-16.916 22.887C6.528 63.978 4.274 70.428 2.03 81.657c-2.573 12.873-2.573 23.813 0 36.686 4.235 21.188 12.703 37.167 27.581 52.046 15.082 15.081 30.665 23.285 52.483 27.63 9.451 1.882 13.172 2.153 22.371 1.63 45.485-2.587 81.989-32.912 92.645-76.962 1.039-4.298 1.89-8.884 1.89-10.191s.45-2.656 1-2.996c.56-.346 1-5.066 1-10.726 0-5.559-.307-9.801-.682-9.426s-1.656-3.937-2.848-9.583c-4.331-20.526-12.403-35.476-27.081-50.154C155.51 14.733 139.531 6.265 118.343 2.03 105.122-.612 93.38-.495 80 2.413m12 33.228c-17.063 3.413-27.027 8.432-37.477 18.882-5.977 5.978-8.958 9.939-11.69 15.536-9.95 20.384-9.982 39.443-.098 59.684 5.295 10.843 16.772 22.268 27.788 27.663 8.982 4.398 21.27 7.543 29.477 7.543s20.495-3.145 29.477-7.543c11.129-5.45 22.479-16.8 27.929-27.929 4.398-8.982 7.543-21.27 7.543-29.477 0-3.025-.819-9.1-1.819-13.5-5.451-23.984-23.213-42.615-46.648-48.928-6.264-1.688-20.201-2.787-24.482-1.931M.37 100c0 5.775.165 8.138.367 5.25s.202-7.612 0-10.5S.37 94.225.37 100"/></svg>