<svg xmlns="http://www.w3.org/2000/svg" width="200" height="200" fill="#000000"><path fill-opacity=".404" fill-rule="evenodd" d="M94.147 40.888c-1.112.705-1.126 1.282-.076 3.235.703 1.307 1.806 4.157 2.451 6.332l1.172 3.956-4.991 1.689-4.991 1.69-4.738-3.405C71.362 46.043 56.815 41.853 46.74 43.948c-6.494 1.351-11.747 5.109-11.727 8.391.007 1.189 2.689 5.309 5.96 9.156s8.399 11.485 11.396 16.973l5.449 9.978-2.051 2.881c-1.695 2.38-1.809 3.033-.659 3.761.766.485 1.701.888 2.079.897.378.008-.688 3.048-2.369 6.755-2.835 6.253-5.149 16.596-3.975 17.77.28.279 1.555-.474 2.833-1.675L56 116.651v4.069c0 2.238.899 6.98 1.998 10.537C61.021 141.046 66 146.175 66 139.5c0-3.453 1.67-3.955 2.471-.743.377 1.509 1.645 4.318 2.819 6.243 2.349 3.851 11.573 14 12.725 14 .399 0 1.295-2.037 1.992-4.526 1.292-4.613 2.993-6.883 2.993-3.993 0 2.457 3.511 8.744 6.377 11.419 2.765 2.581 2.617 2.714 4.295-3.867l.884-3.467 2.768 4.725c2.97 5.066 7.239 8.592 8.607 7.108.455-.495 1.367-2.586 2.026-4.649.659-2.062 1.541-3.75 1.96-3.75.956 0 3.083 4.575 3.083 6.63 0 2.731 2.445.881 4.544-3.437 1.642-3.377 2.292-3.958 3.304-2.949s1.648.763 3.227-1.244c3.19-4.053 8.925-16.491 8.925-19.355 0-2.81.909-3.336 2.687-1.558 1.817 1.817 2.772-1.003 2.922-8.629.097-4.952.758-8.256 2.225-11.133 1.454-2.849 2.142-6.247 2.267-11.187.181-7.197-.908-10.138-3.755-10.138-.775 0-1.668-.675-1.984-1.5s-1.518-1.5-2.669-1.5c-1.628 0-1.826-.267-.893-1.2 1.938-1.938 1.399-2.8-1.753-2.8-4.32 0-8.249-2.032-7.533-3.896.324-.847 1.006-4.814 1.513-8.817 1.123-8.854-.158-16.99-2.985-18.97-1.072-.751-3.658-4.133-5.746-7.517-2.353-3.812-3.915-5.535-4.109-4.531-.477 2.473-3.187.878-3.187-1.876 0-2.679-1.466-3.169-2.729-.913-.645 1.152-1.6 1.284-4.3.594-5.823-1.487-13.395-2.093-14.824-1.186m26.098 42.362c-.55.688-1.311 2.263-1.69 3.5-.512 1.67-.286 2.25.878 2.25.862 0 1.567.461 1.567 1.025s1.125 1.452 2.5 1.975c1.756.667 2.5 1.702 2.5 3.475 0 2.798 1.723 3.411 2.667.95.825-2.149-1.215-8.58-3.739-11.79-2.316-2.944-3.222-3.212-4.683-1.385m-30.784 1.793c-1.806 1.996-1.798 2.056.345 2.617C91.251 88.037 92 89.008 92 90.5c0 1.475.747 2.462 2.139 2.826 1.867.488 2.07 1.077 1.595 4.617-.597 4.454-.169 4.694 6.141 3.432 1.968-.394 3.121-1.227 3.115-2.25-.018-3.019-4.72-11.768-7.5-13.954-3.447-2.712-5.659-2.747-8.029-.128"/><path fill-opacity=".349" fill-rule="evenodd" d="M94 42.346c0 .741.644 2.653 1.432 4.25s1.726 4.099 2.085 5.558c.618 2.516.356 2.741-4.986 4.294l-5.639 1.639-3.088-2.599c-3.786-3.185-11.446-7.129-18.688-9.62-15.34-5.278-35.192 1.37-28.54 9.557l6.541 8.054c2.54 3.128 6.956 9.959 9.815 15.18 4.96 9.058 5.126 9.603 3.633 11.882C54.466 93.745 54.594 95 57.02 95c2.008 0 2.007.027-.123 4.202C53.779 105.313 51 113.857 51 117.331v3.018L53.5 118l2.5-2.349v3.465C56 126.145 61.615 142 64.105 142c.405 0 1.031-1.345 1.392-2.989.987-4.491 2.285-4.534 3.475-.116 1.076 3.998 7.688 13.593 12.404 18.001l2.563 2.395 1.057-2.895a256 256 0 0 1 2.168-5.685l1.111-2.788 2.326 5.725c2.872 7.066 5.999 10.587 7.417 8.352.523-.825.965-2.4.982-3.5s.43-2.631.918-3.401c.674-1.065 1.368-.466 2.893 2.5 1.93 3.753 7.814 10.209 8.501 9.328.184-.235.981-2.191 1.772-4.347 1.989-5.422 3.58-5.535 5.834-.415l1.908 4.335 2.286-5.25c2.281-5.24 3.888-6.726 3.888-3.595 0 5.422 10.451-12.368 11.642-19.818.657-4.11 1.701-4.833 3.175-2.199 1.344 2.4 3.584-7.686 2.725-12.265-.465-2.479-.23-4.079.767-5.223 3.595-4.125 4.898-18.159 1.985-21.378-.882-.975-2.209-1.772-2.949-1.772S143 94.325 143 93.5c0-.962-.986-1.511-2.75-1.532-2.543-.029-2.614-.135-.942-1.402 1.648-1.25 1.459-1.43-2.158-2.041-6.717-1.134-7.354-2.083-6.058-9.025.617-3.3.915-9.261.665-13.246-.39-6.203-.831-7.593-3.06-9.659-1.432-1.327-4.037-4.742-5.788-7.589-2.186-3.553-3.432-4.778-3.971-3.906-.633 1.024-1.092 1.017-2.362-.037-.867-.719-1.576-1.983-1.576-2.808 0-1.166-.309-1.244-1.389-.347-1.001.831-2.604.872-5.75.146C101.357 40.555 94 40.71 94 42.346m25.068 41.528c-1.516 2.831-1.322 5.126.432 5.126.825 0 1.5.675 1.5 1.5s.88 1.5 1.955 1.5c1.445 0 2.127.92 2.616 3.526.536 2.858.924 3.308 2.045 2.378 2.06-1.71 1.647-6.88-.909-11.404-2.588-4.579-5.972-5.742-7.639-2.626m-30.413.955c-2.189 2.418-2.091 2.97.595 3.351 1.691.241 2.172.879 1.937 2.571-.229 1.648.373 2.511 2.25 3.225 2.841 1.08 3.017 1.7 1.568 5.511l-.995 2.617 5.236-.302c6.191-.357 6.847-1.652 4.262-8.42-3.337-8.737-10.798-13.034-14.853-8.553m-3.34 31.178c-2.932 1.182-4.315 4.031-4.315 8.892 0 4.717 1.765 6.101 7.778 6.101 2.15 0 6.525.9 9.722 2 8.724 3.002 11.047 2.689 15.868-2.137l4.132-4.137-4.478-1.325c-2.463-.729-5.5-1.068-6.749-.755s-5.42-.202-9.27-1.145c-3.851-.944-7.676-1.457-8.502-1.14-.825.317-1.501.079-1.501-.529 0-1.088 7.613-.71 16 .795l3.5.628-2.277-2.47c-1.508-1.637-4.593-3.03-9.143-4.128-7.716-1.862-7.751-1.864-10.765-.65"/><path fill-opacity=".555" fill-rule="evenodd" d="M94 41.747c0 .569.89 2.996 1.978 5.394 1.088 2.397 1.988 5.372 2 6.609.019 1.928.558 2.251 3.772 2.256 5.45.008 10.853 1.742 13.998 4.494l2.752 2.408-3.706-.578c-2.039-.318-4.5-.273-5.47.099-1.525.585-1.328 1.017 1.457 3.196 1.77 1.386 3.219 3.016 3.219 3.622s-1.042.123-2.314-1.073c-3.276-3.077-4.193-2.695-1.754.73 3.196 4.489 2.455 4.876-1.682.879-2.135-2.063-5.952-4.334-8.864-5.273-5.018-1.62-5.26-1.602-13 .984-4.337 1.449-9.011 3.34-10.386 4.2-1.716 1.075-1.245.244 1.5-2.649 2.2-2.318 5.741-5.113 7.87-6.211l3.87-1.997-2.868-1.488c-1.577-.818-3.544-2.081-4.37-2.806-5.262-4.619-21.539-10.546-28.934-10.537-5.505.006-12.329 1.762-11.577 2.979.298.482.084 1.159-.475 1.505-2.11 1.304-.824 3.794 5.367 10.385 3.51 3.738 8.519 10.009 11.131 13.937 4.475 6.73 4.676 7.315 3.496 10.164C60.321 84.639 59.433 86 59.038 86c-.396 0-1.945-2.25-3.441-5-1.497-2.75-2.949-5-3.227-5s.976 2.694 2.786 5.987c3.235 5.884 3.261 6.036 1.567 8.904-2.204 3.731-2.168 4.109.384 4.109 1.584 0 1.948.435 1.467 1.75-.351.963.484.4 1.857-1.25 2.914-3.501 3.397-5.559.74-3.155-1.006.91-2.611 1.655-3.568 1.655-1.603 0-1.588-.215.202-2.75 1.068-1.513 3.339-5.53 5.046-8.927 3.09-6.149 5.883-9.437 4.84-5.698-.287 1.031-.81 3.988-1.16 6.57l-.637 4.696 3.296-.946c6.286-1.802 6.223-.912-.405 5.805-3.872 3.924-6.959 8.006-7.373 9.75-.694 2.927-.663 2.957 1.267 1.25 3.072-2.717 3.386-2.109 1.294 2.5-2.357 5.193-2.474 6.879-.422 6.092 1.242-.477 1.422-.081.902 1.988-.551 2.197-.256 2.681 1.976 3.242 2.043.512 2.38.953 1.522 1.988-.868 1.045.033 1.901 4.223 4.009 2.929 1.474 6.451 3.991 7.826 5.594 1.878 2.189 3.779 3.112 7.639 3.709 3.834.593 6.844 2.043 11.852 5.711 13.245 9.702 13.397 9.781 19.555 10.227 5.52.399 6.064.234 9.046-2.748 3.099-3.099 3.157-3.325 2.505-9.692-.575-5.614-.374-6.994 1.449-9.945 1.164-1.884 2.418-3.451 2.786-3.483.367-.031 2.356-.235 4.418-.452l3.75-.394v5.393c0 5.307-1.24 7.933-2.364 5.005-1.078-2.808-2.408-1.497-3.089 3.044-.78 5.201-2.669 10.078-6.329 16.34-2.364 4.046-2.659 4.24-3.892 2.554-1.615-2.209-2.652-1.285-4.283 3.818-.659 2.063-1.501 3.747-1.871 3.744-.369-.004-1.439-1.354-2.375-3-2.398-4.213-4.347-3.739-6.366 1.548l-1.735 4.541-2.729-2.615c-1.501-1.438-3.546-4.494-4.545-6.791-.998-2.297-1.976-4.389-2.173-4.648-.458-.603-2.218 2.151-2.218 3.471 0 .55.399.369.887-.401.668-1.055 1.433-.313 3.097 3 2.476 4.929 5.785 8.903 7.409 8.897.592-.002 1.908-2.027 2.925-4.5s2.203-4.496 2.636-4.496c.734 0 3.232 4.71 4.198 7.913.234.777 1.526-1.127 2.871-4.233 2.418-5.582 3.946-7.168 3.946-4.097 0 3.389 2.684.425 6.746-7.45 2.335-4.527 4.533-10.024 4.883-12.216.611-3.817.717-3.914 2.504-2.296 1.027.929 1.887 1.282 1.911.784s.424-2.879.89-5.292.48-5.67.03-7.237c-.473-1.65-.424-3.092.117-3.426 3.374-2.086 6.074-17.424 3.81-21.653-1.415-2.646-7.631-4.114-12.617-2.981l-4.225.96-.653-3.48c-.359-1.915-.259-6.477.224-10.138.482-3.662.847-10.081.809-14.264-.066-7.387-.186-7.749-4.136-12.5-2.238-2.692-4.884-6.469-5.881-8.394-1.327-2.563-1.91-3.041-2.179-1.783-.306 1.434-.685 1.518-2.3.509-1.063-.664-1.947-2.111-1.963-3.217-.028-1.817-.126-1.845-1.03-.295-.794 1.362-1.519 1.517-3.531.751C106.448 41.46 94 40.535 94 41.747m3.012 5.47c1.069 2.356 1.954 5.071 1.966 6.033.015 1.194.816 1.75 2.522 1.75 1.39 0 2.5-.58 2.5-1.306 0-1.694-4.308-7.521-6.907-9.341l-2.025-1.418zm-59.838 2.097C35.978 50.587 35 52.106 35 52.688s2.449 3.804 5.442 7.158 6.635 8.136 8.095 10.626C49.996 72.963 51.401 75 51.659 75c1.146 0-4.647-8.803-9.899-15.042-3.168-3.764-5.76-7.177-5.76-7.586s.978-1.785 2.174-3.058S40.124 47 39.849 47s-1.479 1.042-2.675 2.314m56.639 7.369c.721.289 1.584.253 1.916-.079s-.258-.568-1.312-.525c-1.165.048-1.402.285-.604.604m26.776 17.173c-.291.47.583.643 1.941.383s2.47-.645 2.47-.856c0-.773-3.899-.356-4.411.473m-30.339.806c-2.678 1.081-1.068 2.086 2.17 1.356 1.881-.424 4.648-.537 6.149-.25 1.892.362 2.511.171 2.021-.623-.698-1.129-7.906-1.465-10.34-.483m.25 8.546c-1.962 1.125-4.405 3.767-4.468 4.831-.018.297 1.205.522 2.718.5 2.313-.033 2.698.33 2.425 2.285-.238 1.7.262 2.477 1.862 2.896 1.903.498 2.119 1.079 1.664 4.473l-.523 3.902 5.661-.298c5.634-.296 5.66-.311 5.362-3.297-.483-4.86-4.443-11.826-8.099-14.249-3.889-2.577-3.92-2.582-6.602-1.043m28.8-.006c-.563.714-1.329 2.571-1.701 4.128-.603 2.519-.453 2.758 1.362 2.182 1.493-.474 2.039-.202 2.039 1.014 0 .914.9 1.897 2 2.184 1.417.371 2 1.364 2 3.407 0 3.025.591 3.428 2.892 1.971 1.945-1.232.897-9.551-1.632-12.952-2.215-2.978-5.431-3.872-6.96-1.934m18.21 6.814c.346.559 1.047.758 1.559.441 1.387-.857 1.129-1.457-.628-1.457-.857 0-1.276.457-.931 1.016m-2.176 1.716c.775 1.253 7.666 2.212 7.666 1.067 0-.439-.787-.805-1.75-.813s-2.833-.303-4.156-.657c-1.559-.417-2.179-.275-1.76.403m-78.875 8.335c-.363.586-.445 1.281-.183 1.543s.743-.218 1.069-1.067c.676-1.762.1-2.072-.886-.476m-4.38 12.516c.048 1.165.285 1.402.604.605.289-.722.253-1.585-.079-1.917s-.568.258-.525 1.312m2.368 3.476c-1.772 1.957-1.914 1.971-2.591.256-.547-1.387-.732-1.126-.786 1.109l-.07 2.925 2.75-2.425c1.513-1.333 2.938-2.536 3.167-2.674s.189-.478-.09-.756c-.278-.279-1.349.426-2.38 1.565m29.782-.39c-1.903.766-4.229 5.832-4.229 9.21 0 3.904 2.348 6.121 6.482 6.121 1.837 0 6.192.894 9.679 1.987s8.296 1.993 10.689 2c3.623.011 4.918-.555 7.75-3.387 1.87-1.87 3.4-4.062 3.4-4.872 0-1.719-6.418-3.169-12.5-2.825-2.2.125-5.125-.213-6.5-.75-1.886-.736-1.026-.848 3.5-.454l6 .522-2.5-2.375c-4.21-4-17.087-7.061-21.771-5.177m7.021 6.02c.963.252 2.537.252 3.5 0 .963-.251.175-.457-1.75-.457s-2.713.206-1.75.457M57.158 125c0 1.375.227 1.938.504 1.25.278-.687.278-1.812 0-2.5-.277-.687-.504-.125-.504 1.25m.963 4c-.017.825.587 2.85 1.343 4.5 1.768 3.862 1.794 2.066.036-2.5-.741-1.925-1.362-2.825-1.379-2m8.284 5.155c-.422.682-.277.884.355.493.588-.363 1.297-.095 1.576.596.305.758.537.562.585-.494.089-1.979-1.438-2.34-2.516-.595m-4.523 4.539c.621 1.207 1.576 2.471 2.123 2.809 1.713 1.059 1.088-.49-1.128-2.795l-2.124-2.208zm7.204-.694c-.031.825.381 2.175.914 3 1.181 1.828 1.181.249 0-2.5-.567-1.319-.878-1.489-.914-.5m2.78 6.5c1.164 2.382 10.004 12.857 11.25 13.331.48.182 1.324-.859 1.878-2.315 1.406-3.698 1.107-4.61-.398-1.211l-1.241 2.804-3.937-4.304c-2.166-2.368-4.97-5.655-6.233-7.305s-1.856-2.1-1.319-1m15.375 3.486c-.683 1.093-1.227 2.33-1.211 2.75s.495-.033 1.062-1.007 1.453-1.51 1.969-1.191c.517.319.939-.122.939-.979 0-2.149-1.273-1.952-2.759.427m3.789 6.779c-.016.695 1.433 2.741 3.22 4.546s2.298 2.136 1.134.735c-1.164-1.4-2.613-3.446-3.22-4.546s-1.117-1.431-1.134-.735"/><path fill-opacity=".319" fill-rule="evenodd" d="M94 42.059c0 .582.377.826.837.541C96.287 41.704 105 51.798 105 54.374c0 .278-1.687.682-3.75.898-3.064.32-2.784.423 1.532.56 5.567.177 11.443 2.156 14.431 4.861 2.731 2.471 2.229 2.833-3.462 2.498l-5.251-.308 3.25 2.631c4.099 3.318 4.662 6.641.683 4.034l-2.567-1.682 1.677 2.559c.922 1.408 1.417 3.238 1.098 4.067s-.142 1.508.39 1.508c.533 0 .969-.9.969-2 0-1.111.667-2 1.5-2 1.786 0 1.908-1.368.377-4.23l-1.123-2.098 3.293 1.923c3.567 2.083 4.985 4.405 2.691 4.405-1.49 0-4.738 3.063-4.738 4.468 0 .446 2.202.55 4.894.231l4.893-.58 1.048 4.13c.577 2.272.852 4.448.612 4.837-.241.389.231 2.216 1.048 4.061l1.486 3.353-.146-4c-.081-2.2.147-6.025.506-8.5.448-3.094.363-3.875-.274-2.5-.805 1.737-.936 1.591-.997-1.109-.048-2.14-1.317-4.526-4.07-7.654-2.2-2.499-4-4.959-4-5.466 0-1.559-4.331-5.094-8.247-6.73-2.533-1.058-4.353-2.797-5.708-5.453-2.152-4.217-6.342-8.046-8.93-8.158-1.227-.054-1.135-.277.385-.93 1.676-.72 1.474-.871-1.25-.93-1.787-.038-3.25.407-3.25.989m18.733 1.502c-2.099 2.804-3.425 8.439-1.986 8.439.549 0 1.333-1.913 1.742-4.25l.745-4.25 1.217 4.506c1.352 5.004 3.464 9.413 4.17 8.706.253-.253.813-2.696 1.245-5.429.759-4.799.706-4.961-1.534-4.715-1.797.197-2.491-.38-3.076-2.557L114.5 41.2zm4.267 4.88c0 .857.45 1.559 1 1.559s1-.423 1-.941-.45-1.219-1-1.559-1 .084-1 .941M47.015 49.75c.009.962.488 2.425 1.066 3.25.822 1.174.913 1.011.417-.75-1.318-4.685 4.862-.71 8.024 5.161 2.397 4.45 3.449 4.55 3.578.339.055-1.788.426-4.375.825-5.75.638-2.199.942-1.777 2.524 3.5 1.57 5.238 1.909 5.714 2.675 3.75 2.84-7.292 2.443-7.232 5.429-.816 2.347 5.042 2.617 6.47 1.797 9.5l-.965 3.566 5.271-5.171c2.9-2.844 6.188-5.462 7.308-5.818S87 59.394 87 58.818c0-1.219-4.366 1.389-8.055 4.811-3.18 2.952-3.942 2.975-3.954.121C74.98 61.267 69.451 51 68.124 51c-.459 0-1.285 1.462-1.835 3.25l-1 3.25-1.263-4.75c-.695-2.612-1.671-4.75-2.169-4.75C60.643 48 59 52.486 59 55.797c0 2.642-.023 2.633-2.424-.9-3.873-5.699-9.592-8.778-9.561-5.147m76.573 4c1.3 3.163 2.375 6.961 2.388 8.441.032 3.604 1.805 4.529 2.601 1.357.35-1.394 1.038-2.286 1.53-1.982 1.792 1.108.828-1.329-1.646-4.16-1.397-1.599-3.458-4.368-4.582-6.156S121.699 48 121.53 48s.757 2.587 2.058 5.75M48.053 59.5c2.908 3.3 7.307 9.15 9.775 13 5.459 8.515 5.02 7.986 5.893 7.112.397-.396.254-1.034-.316-1.416-.57-.383-2.807-3.39-4.971-6.682s-6.574-8.692-9.801-12L42.766 53.5zm83.142 9c.02 1.65.244 2.204.498 1.231s.237-2.323-.037-3-.481.119-.461 1.769M91 73.306c-2.492.85-3.597 1.882-3.838 3.585-.273 1.929.001 2.26 1.417 1.717.966-.371 4.38-.948 7.588-1.283 6.362-.665 7.828-2.616 3.268-4.35-3.165-1.203-4.035-1.169-8.435.331m30.352-.313c-1.882.76-4.17 3.007-3.06 3.007 1.582 0 6.708-2.367 6.708-3.098 0-1.081-.792-1.061-3.648.091m-29.029.694c-1.198.238-2.682 1.04-3.298 1.782-.927 1.117-.035 1.256 5.178.805 6.151-.532 7.559-.88 6.714-1.657-.812-.747-6.448-1.356-8.594-.93M119 82c-1.1 1.1-1.986 2.563-1.97 3.25.017.688.541.35 1.165-.75 2.272-4.006 3.952-4.332 6.766-1.311 1.121 1.203 2.039 1.679 2.039 1.056 0-1.151-3.806-4.245-5.223-4.245-.427 0-1.677.9-2.777 2m-30.504 1.25c-3.332 2.867-6.745 12.632-5.123 14.658 1.497 1.871 8.612 5.063 11.127 4.991 1.1-.031 1.483-.269.852-.527-.715-.293-.956-1.907-.638-4.275.431-3.214.195-3.887-1.517-4.335-1.163-.304-2.172-1.539-2.366-2.896-.253-1.777-.897-2.307-2.584-2.128-1.236.131-2.247-.227-2.247-.795C86 86.144 90.826 82 92.92 82c2.672 0 8.519 5.23 10.091 9.027.692 1.671 1.456 2.84 1.697 2.598.896-.895-2.719-6.428-6.192-9.477-4.251-3.732-6.492-3.933-10.02-.898m27.841 9.25c.154 5.673 0 6.098-2.837 7.805-2.723 1.639-2.769 1.747-.5 1.176 1.375-.346 4.638-.878 7.25-1.182l4.75-.553v3.487c0 3.651 3.405 9.632 7.318 12.853l2.182 1.797-2.636 2.672c-4.564 4.626-14.884 5.071-22.788.984-1.496-.773-4.859-3.911-7.475-6.972C98.57 111.019 96.067 109 94.7 109c-2.061 0-2.048.065.327 1.646 3.888 2.589 5.225 4.576 3.723 5.53-.805.511-.338.799 1.313.809 1.507.009 3.705 1.207 5.335 2.909 1.561 1.629 4.812 3.442 7.438 4.147 2.565.69 5.044 1.59 5.508 2s-.835 2.603-2.885 4.873c-2.051 2.27-2.97 3.836-2.044 3.48s2.769-2.242 4.094-4.192l2.41-3.546 1.04 2.737c2.001 5.261 1.03 10.607-1.926 10.607-.965 0-3.314-1.059-5.22-2.352-2.299-1.56-4.451-2.215-6.39-1.945-1.608.224-5.581-.517-8.83-1.648-7.952-2.767-8.985-2.562-3.588.712 2.478 1.503 7.32 4.837 10.759 7.408 7.267 5.434 12.047 7.271 16.664 6.405 5.854-1.099 9.159-6.872 7.458-13.029-1.189-4.31-.602-6.546 2.772-10.556 1.849-2.198 3.387-2.995 5.776-2.995 2.097 0 3.934-.776 5.161-2.181l1.905-2.181-2.473 1.681c-3.284 2.233-8.479 2.301-7.634.099.334-.87.607-1.77.607-2s.675-.418 1.5-.418 3.272-1.772 5.439-3.939c3.681-3.681 3.964-3.795 4.333-1.75.218 1.204.419.351.446-1.896s.341-5.406.695-7.02c1.161-5.286-1.109-6.895-9.73-6.895-5.714 0-7.929.412-9.407 1.75C126.441 99.816 125 99.394 125 96c0-2.027-.497-3-1.531-3-.843 0-1.791-.675-2.107-1.5s-1.395-1.5-2.396-1.5-2.038-.787-2.306-1.75c-.267-.963-.413.95-.323 4.25m-49.96 2.75c-3.111 3.55-4.078 5.074-4.885 7.699l-.753 2.448 3.207-2.698c1.764-1.485 3.698-2.699 4.297-2.699.6 0 .829-.261.509-.581s-1.519-.079-2.666.535c-2.759 1.477-2.631.627.533-3.521 2.94-3.855 2.781-4.633-.242-1.183M59 95.059c0 .582.45.781 1 .441s1-.816 1-1.059S60.55 94 60 94s-1 .477-1 1.059m46.743 5.169c-.344.895-1.889 1.818-3.434 2.05-2.614.393-2.636.432-.309.557 3.134.168 5.38-1.196 4.805-2.919-.322-.968-.603-.885-1.062.312M134 99.721c-5.417.972-4.452 2.386 1.421 2.084 3.615-.186 6.082-.792 6.333-1.555.418-1.267-2.523-1.467-7.754-.529m-67.756 9.943c-.691.279-1.008.909-.704 1.401.304.491.088 1.762-.48 2.823-.878 1.64-.499 2.245 2.511 4.021 3.999 2.36 4.429 2.472 4.429 1.156 0-.515-1.559-1.499-3.465-2.189l-3.465-1.253 2.046-3.311c1.976-3.196 1.801-3.725-.872-2.648m21.02 5.054c1.52.229 3.77.223 5-.014s-.014-.425-2.764-.418-3.756.202-2.236.432m-6.191 2.917c-1.14 1.449-2.073 3.707-2.073 5.017v2.382l-4.967-2.517c-2.731-1.384-5.544-2.495-6.25-2.469s1.417 1.435 4.717 3.13c3.3 1.696 6.331 3.587 6.735 4.202.404.616.741-.732.75-2.995.009-2.631.763-5.066 2.088-6.75 1.139-1.449 1.847-2.635 1.572-2.635s-1.433 1.186-2.572 2.635m46.095 17.615c-.21 3.431-3.415 6.75-6.519 6.75-1.293 0-4.379-1.078-6.858-2.397-5.99-3.184-8.663-1.807-3.184 1.641 2.141 1.347 5.598 3.009 7.681 3.693 3.243 1.064 4.15 1.006 6.304-.405 3.149-2.063 3.642-3.347 3.143-8.177-.277-2.676-.45-3.014-.567-1.105"/></svg>