<svg xmlns="http://www.w3.org/2000/svg" width="200" height="200" fill="#000000"><path fill-opacity=".298" fill-rule="evenodd" d="M81 2c0 1.778-.667 2-6 2s-6 .222-6 2c0 1.758-.667 2-5.5 2s-5.5.242-5.5 2c0 1.667-.667 2-4 2-2.889 0-4 .417-4 1.5S48.889 15 46 15c-3.333 0-4 .333-4 2q0 2-2 2t-2 2c0 1.111-.667 2-1.5 2s-1.5.889-1.5 2q0 2-2 2t-2 2-2 2-2 2-2 2c-1.619 0-2 .667-2 3.5s-.381 3.5-2 3.5q-2 0-2 2t-2 2c-1.667 0-2 .667-2 4 0 2.889-.417 4-1.5 4S12 55.111 12 58c0 3.333-.333 4-2 4-1.758 0-2 .667-2 5.5S7.758 73 6 73c-1.942 0-2 .667-2 23s.058 23 2 23c1.778 0 2 .667 2 6s.222 6 2 6c1.758 0 2 .667 2 5.5 0 4.222.348 5.5 1.5 5.5 1.083 0 1.5 1.111 1.5 4 0 3.333.333 4 2 4q2 0 2 2t2 2 2 2 2 2c1.619 0 2 .667 2 3.5s.381 3.5 2 3.5q2 0 2 2t2 2 2 2c0 1.619.667 2 3.5 2s3.5.381 3.5 2q0 2 2 2t2 2 2 2 2 2c0 1.667.667 2 4 2 2.889 0 4 .417 4 1.5 0 1.152 1.278 1.5 5.5 1.5 4.833 0 5.5.242 5.5 2 0 1.833.667 2 8 2s8 .167 8 2c0 1.911.667 2 15 2s15-.089 15-2c0-1.833.667-2 8-2s8-.167 8-2c0-1.758.667-2 5.5-2 4.222 0 5.5-.348 5.5-1.5 0-.833.889-1.5 2-1.5q2 0 2-2c0-1.667.667-2 4-2s4-.333 4-2q0-2 2-2t2-2c0-1.619.667-2 3.5-2s3.5-.381 3.5-2q0-2 2-2t2-2 2-2c1.619 0 2-.667 2-3.5s.381-3.5 2-3.5q2 0 2-2t2-2 2-2 2-2c1.667 0 2-.667 2-4 0-2.889.417-4 1.5-4 1.048 0 1.5-1.056 1.5-3.5 0-2.833.381-3.5 2-3.5 1.833 0 2-.667 2-8s.167-8 2-8c1.937 0 2-.667 2-21s-.063-21-2-21c-1.822 0-2-.667-2-7.5s-.178-7.5-2-7.5c-1.667 0-2-.667-2-4 0-2.889-.417-4-1.5-4s-1.5-1.111-1.5-4c0-3.333-.333-4-2-4s-2-.667-2-4-.333-4-2-4c-1.111 0-2-.667-2-1.5s-.889-1.5-2-1.5q-2 0-2-2t-2-2-2-2-2-2-2-2c0-1.111-.667-2-1.5-2s-1.5-.889-1.5-2c0-1.667-.667-2-4-2s-4-.333-4-2q0-2-2-2c-1.111 0-2-.667-2-1.5 0-1.083-1.111-1.5-4-1.5-3.333 0-4-.333-4-2 0-1.619-.667-2-3.5-2s-3.5-.381-3.5-2c0-1.778-.667-2-6-2s-6-.222-6-2c0-1.937-.667-2-21-2S81 .063 81 2"/><path fill-opacity=".045" fill-rule="evenodd" d="M104 2c0 1.901-.667 2-13.5 2S77 4.099 77 6q0 2-2 2t-2-2-2-2-2 2-2 2-2 2c0 1.619-.667 2-3.5 2-2.444 0-3.5.452-3.5 1.5 0 1.083-1.111 1.5-4 1.5-3.333 0-4 .333-4 2s-.667 2-4 2-4 .333-4 2q0 2-2 2t-2 2c0 1.111-.667 2-1.5 2s-1.5.889-1.5 2q0 2-2 2t-2 2-2 2c-1.111 0-2 .667-2 1.5s-.889 1.5-2 1.5c-1.667 0-2 .667-2 4s-.333 4-2 4q-2 0-2 2t-2 2c-1.667 0-2 .667-2 4 0 2.889-.417 4-1.5 4-1.152 0-1.5 1.278-1.5 5.5 0 4.833-.242 5.5-2 5.5-1.86 0-2 .667-2 9.5S7.86 88 6 88q-2 0-2 2t2 2c1.833 0 2 .667 2 8s-.167 8-2 8q-2 0-2 2t2 2c1.619 0 2 .667 2 3.5s.381 3.5 2 3.5q2 0 2 2t-2 2-2 2 2 2 2 2c0 1.111.667 2 1.5 2 1.048 0 1.5 1.056 1.5 3.5 0 2.833.381 3.5 2 3.5 1.667 0 2 .667 2 4s.333 4 2 4q2 0 2 2t2 2 2-2-2-2c-1.667 0-2-.667-2-4s-.333-4-2-4c-1.619 0-2-.667-2-3.5s-.381-3.5-2-3.5c-1.778 0-2-.667-2-6 0-4.667-.333-6-1.5-6-1.29 0-1.5-3.222-1.5-23s.21-23 1.5-23c1.152 0 1.5-1.278 1.5-5.5 0-4.833.242-5.5 2-5.5 1.667 0 2-.667 2-4s.333-4 2-4q2 0 2-2t2-2c1.667 0 2-.667 2-4s.333-4 2-4q2 0 2-2t2-2c1.111 0 2-.667 2-1.5 0-.825.675-1.5 1.5-1.5.833 0 1.5-.889 1.5-2 0-1.667.667-2 4-2s4-.333 4-2q0-2 2-2t2-2c0-1.667.667-2 4-2s4-.333 4-2c0-1.619.667-2 3.5-2s3.5-.381 3.5-2c0-1.667.667-2 4-2 2.889 0 4-.417 4-1.5 0-1.246 1.944-1.5 11.5-1.5 10.833 0 11.5-.116 11.5-2 0-1.667.667-2 4-2s4 .333 4 2c0 1.884.667 2 11.5 2 9.556 0 11.5.254 11.5 1.5 0 1.152 1.278 1.5 5.5 1.5 4.833 0 5.5.242 5.5 2 0 1.667.667 2 4 2s4 .333 4 2q0 2 2 2t2 2c0 1.667.667 2 4 2s4 .333 4 2q0 2 2 2t2 2c0 1.111.667 2 1.5 2 .825 0 1.5.675 1.5 1.5 0 .833.889 1.5 2 1.5q2 0 2 2t2 2c1.667 0 2 .667 2 4s.333 4 2 4 2 .667 2 4 .333 4 2 4c1.822 0 2 .667 2 7.5s-.178 7.5-2 7.5q-2 0-2 2t-2 2-2 2-2 2-2 2-2 2c-1.111 0-2 .667-2 1.5 0 .825-.675 1.5-1.5 1.5-.833 0-1.5.889-1.5 2q0 2-2 2t-2 2-2 2-2 2-2 2-2 2-2 2-2 2-2 2-2 2-2 2c-1.111 0-2 .667-2 1.5 0 .825-.675 1.5-1.5 1.5-.833 0-1.5.889-1.5 2q0 2-2 2t-2 2-2 2-2 2c0 1.965-.667 2-38.5 2H50v19h29c28.333 0 29 .046 29 2q0 2-2 2t-2 2c0 1.667-.667 2-4 2h-4v8h-4c-2.889 0-4 .417-4 1.5 0 .825-.675 1.5-1.5 1.5-.833 0-1.5.889-1.5 2q0 2-2 2c-1.667 0-2 .667-2 4s-.333 4-2 4q-2 0-2 2c0 1.778-.667 2-6 2s-6-.222-6-2c0-1.619-.667-2-3.5-2s-3.5-.381-3.5-2c0-1.667-.667-2-4-2s-4-.333-4-2q0-2-2-2t-2 2 2 2 2 2 2 2 2 2c0 1.667.667 2 4 2s4 .333 4 2c0 1.111.667 2 1.5 2 .825 0 1.5.675 1.5 1.5 0 1.246 1.944 1.5 11.5 1.5 10.833 0 11.5.116 11.5 2 0 1.901.667 2 13.5 2s13.5-.099 13.5-2c0-1.833.667-2 8-2 6.444 0 8-.292 8-1.5 0-1.152 1.278-1.5 5.5-1.5 4.833 0 5.5-.242 5.5-2 0-1.667.667-2 4-2s4-.333 4-2 .667-2 4-2 4-.333 4-2q0-2 2-2t2-2c0-1.111.667-2 1.5-2s1.5-.889 1.5-2q0-2 2-2c1.111 0 2-.667 2-1.5s.889-1.5 2-1.5q2 0 2-2t2-2c1.667 0 2-.667 2-4s.333-4 2-4q2 0 2-2t2-2c1.667 0 2-.667 2-4 0-2.889.417-4 1.5-4 1.048 0 1.5-1.056 1.5-3.5 0-2.833.381-3.5 2-3.5 1.86 0 2-.667 2-9.5s.14-9.5 2-9.5c1.914 0 2-.667 2-15.5s-.086-15.5-2-15.5c-1.833 0-2-.667-2-8s-.167-8-2-8c-1.619 0-2-.667-2-3.5 0-2.444-.452-3.5-1.5-3.5-.833 0-1.5-.889-1.5-2q0-2-2-2c-1.667 0-2-.667-2-4s-.333-4-2-4-2-.667-2-4-.333-4-2-4c-1.111 0-2-.667-2-1.5s-.889-1.5-2-1.5q-2 0-2-2t-2-2-2-2c0-1.111-.667-2-1.5-2s-1.5-.889-1.5-2q0-2-2-2t-2-2c0-1.667-.667-2-4-2s-4-.333-4-2q0-2-2-2c-1.111 0-2-.667-2-1.5 0-1.083-1.111-1.5-4-1.5-3.333 0-4-.333-4-2 0-1.758-.667-2-5.5-2s-5.5-.242-5.5-2c0-1.86-.667-2-9.5-2s-9.5-.14-9.5-2q0-2-2-2t-2 2M50 67c0 20.333.063 21 2 21q2 0 2 2c0 1.667.667 2 4 2s4 .333 4 2c0 1.619.667 2 3.5 2s3.5.381 3.5 2c0 1.778.667 2 6 2h6v-4c0-3.905.083-4 3.5-4 2.833 0 3.5.381 3.5 2 0 1.667.667 2 4 2s4 .333 4 2c0 1.778.667 2 6 2h6v-4c0-3.333.333-4 2-4q2 0 2 2c0 1.758.667 2 5.5 2s5.5.242 5.5 2c0 1.667.667 2 4 2h4V88h19V46H50zm-23 89q0 2 2 2t2 2 2 2c1.111 0 2 .667 2 1.5 0 .825.675 1.5 1.5 1.5.833 0 1.5.889 1.5 2q0 2 2 2t2-2-2-2c-1.111 0-2-.667-2-1.5 0-.825-.675-1.5-1.5-1.5-.833 0-1.5-.889-1.5-2q0-2-2-2t-2-2-2-2-2 2"/><path fill-opacity=".216" fill-rule="evenodd" d="M77 6c0 1.778-.667 2-6 2s-6 .222-6 2c0 1.619-.667 2-3.5 2-2.444 0-3.5.452-3.5 1.5 0 1.083-1.111 1.5-4 1.5-3.333 0-4 .333-4 2q0 2-2 2t-2 2c0 1.667-.667 2-4 2s-4 .333-4 2c0 1.111-.667 2-1.5 2s-1.5.889-1.5 2q0 2-2 2t-2 2-2 2c-1.111 0-2 .667-2 1.5 0 1.083 1.111 1.5 4 1.5 3.905 0 4-.083 4-3.5 0-3.333.167-3.5 3.5-3.5 2.833 0 3.5-.381 3.5-2q0-2 2-2t2-2 2-2 2-2c0-1.667.667-2 4-2s4-.333 4-2c0-1.619.667-2 3.5-2 2.444 0 3.5-.452 3.5-1.5 0-1.167 1.333-1.5 6-1.5 5.333 0 6-.222 6-2 0-1.937.667-2 21-2s21-.063 21-2-.667-2-21-2-21 .063-21 2m46 4c0 1.667.667 2 4 2s4-.333 4-2-.667-2-4-2-4 .333-4 2m12 3.5c0 1.048 1.056 1.5 3.5 1.5 2.833 0 3.5.381 3.5 2 0 1.667.667 2 4 2s4 .333 4 2q0 2 2 2t2 2 2 2 2 2 2 2 2 2c0 1.111.667 2 1.5 2 .825 0 1.5.675 1.5 1.5 0 .833.889 1.5 2 1.5q2 0 2 2t2 2 2 2 2 2 2-2-2-2-2-2-2-2c-1.619 0-2-.667-2-3.5s-.381-3.5-2-3.5q-2 0-2-2c0-1.619-.667-2-3.5-2s-3.5-.381-3.5-2q0-2-2-2t-2-2-2-2-2-2c0-1.667-.667-2-4-2-2.889 0-4-.417-4-1.5 0-1.048-1.056-1.5-3.5-1.5s-3.5.452-3.5 1.5M23 44q0 2-2 2c-1.667 0-2 .667-2 4s-.333 4-2 4-2 .667-2 4 .333 4 2 4 2-.667 2-4 .333-4 2-4 2-.667 2-4 .333-4 2-4q2 0 2-2t-2-2-2 2m31 4q0 2-2 2c-1.93 0-2 .667-2 19s.07 19 2 19q2 0 2 2c0 1.667.667 2 4 2s4 .333 4 2c0 1.758.667 2 5.5 2s5.5.242 5.5 2c0 1.667.667 2 4 2h4v-4c0-3.905.083-4 3.5-4 2.833 0 3.5.381 3.5 2 0 1.667.667 2 4 2s4 .333 4 2 .667 2 4 2h4v-8h5.5c4.833 0 5.5.242 5.5 2 0 1.667.667 2 4 2s4 .333 4 2 .667 2 4 2h4V88h19V69c0-18.333-.07-19-2-19q-2 0-2-2c0-1.971-.667-2-46-2s-46 .029-46 2m123 4q0 2 2 2c1.667 0 2 .667 2 4s.333 4 2 4c1.619 0 2 .667 2 3.5 0 2.444.452 3.5 1.5 3.5s1.5-1.056 1.5-3.5-.452-3.5-1.5-3.5c-1.083 0-1.5-1.111-1.5-4 0-3.333-.333-4-2-4q-2 0-2-2t-2-2-2 2M12 67c0 1.111.667 2 1.5 2s1.5-.889 1.5-2-.667-2-1.5-2-1.5.889-1.5 2m176 21.5V104h4c3.333 0 4-.333 4-2q0-2-2-2c-1.901 0-2-.667-2-13.5s-.099-13.5-2-13.5c-1.914 0-2 .667-2 15.5M8 81c0 3.333.333 4 2 4s2-.667 2-4-.333-4-2-4-2 .667-2 4m0 15c0 3.333.333 4 2 4s2-.667 2-4-.333-4-2-4-2 .667-2 4m0 10q0 2 2 2t2-2-2-2-2 2m180 9.5c0 6-.3 7.5-1.5 7.5-1.167 0-1.5 1.333-1.5 6 0 5.333-.222 6-2 6-1.619 0-2 .667-2 3.5s-.381 3.5-2 3.5q-2 0-2 2t-2 2-2 2-2 2c-1.667 0-2 .667-2 4s-.333 4-2 4q-2 0-2 2c0 1.111-.667 2-1.5 2-.825 0-1.5.675-1.5 1.5 0 .833-.889 1.5-2 1.5q-2 0-2 2c0 1.667-.667 2-4 2s-4 .333-4 2q0 2-2 2t-2 2-2 2-2 2 2 2 2-2c0-1.667.667-2 4-2s4-.333 4-2q0-2 2-2t2-2c0-1.619.667-2 3.5-2 3.333 0 3.5-.167 3.5-3.5 0-3.417.095-3.5 4-3.5h4v-4c0-3.333.333-4 2-4q2 0 2-2t2-2c1.667 0 2-.667 2-4s.333-4 2-4c1.619 0 2-.667 2-3.5 0-2.444.452-3.5 1.5-3.5 1.083 0 1.5-1.111 1.5-4 0-3.333.333-4 2-4 1.86 0 2-.667 2-9.5s-.14-9.5-2-9.5c-1.822 0-2 .667-2 7.5M8 117q0 2 2 2t2-2-2-2-2 2m42 17.5c0 6.833.178 7.5 2 7.5q2 0 2 2c0 1.971.667 2 46 2s46-.029 46-2q0-2 2-2c1.822 0 2-.667 2-7.5V127H50zm-15 29c0 .825.675 1.5 1.5 1.5s1.5-.675 1.5-1.5-.675-1.5-1.5-1.5-1.5.675-1.5 1.5M58 179q0 2 2 2t2-2-2-2-2 2m77 4c0 1.111.667 2 1.5 2s1.5-.889 1.5-2-.667-2-1.5-2-1.5.889-1.5 2m-20 3.5c0 .825-.675 1.5-1.5 1.5-.833 0-1.5.889-1.5 2s.667 2 1.5 2 1.5-.889 1.5-2c0-1.667.667-2 4-2 2.889 0 4-.417 4-1.5s-1.111-1.5-4-1.5-4 .417-4 1.5m12 0c0 .833.889 1.5 2 1.5s2-.667 2-1.5-.889-1.5-2-1.5-2 .667-2 1.5"/><path fill-rule="evenodd" d="M54 69c0 18.333.07 19 2 19q2 0 2 2c0 1.619.667 2 3.5 2s3.5.381 3.5 2c0 1.667.667 2 4 2s4 .333 4 2q0 2 2 2c1.778 0 2-.667 2-6v-6h4c3.333 0 4 .333 4 2 0 1.619.667 2 3.5 2s3.5.381 3.5 2c0 1.667.667 2 4 2s4 .333 4 2q0 2 2 2c1.778 0 2-.667 2-6s.222-6 2-6q2 0 2 2c0 1.758.667 2 5.5 2s5.5.242 5.5 2c0 1.667.667 2 4 2s4 .333 4 2q0 2 2 2c1.778 0 2-.667 2-6v-6h15V50H54zm0 65.5v7.5h92v-15H54z"/></svg>