<svg xmlns="http://www.w3.org/2000/svg" width="32" height="32" version="1.1" fill="#000000"><path fill-opacity=".059" d="M 9.616 9.882 C 4.987 14.582, 3.917 17.807, 6.681 18.727 C 7.330 18.943, 9.713 17.447, 11.977 15.402 L 16.092 11.684 19.976 15.476 C 23.996 19.402, 27 19.731, 27 16.244 C 27 14.068, 18.070 5, 15.928 5 C 15.101 5, 12.261 7.197, 9.616 9.882 M 11.557 17.223 C 9.488 20.177, 9.593 22.322, 11.912 24.420 C 14.637 26.886, 19.093 26.116, 20.909 22.865 C 22.227 20.505, 22.202 19.958, 20.667 17.615 C 18.454 14.236, 13.789 14.035, 11.557 17.223" stroke="none" fill="#000000" fill-rule="evenodd"/><path fill-opacity=".287" d="M 10.096 10.402 C 5.233 15.327, 4.237 18, 7.267 18 C 7.899 18, 10.122 16.334, 12.208 14.297 L 16 10.594 19.792 14.297 C 23.722 18.134, 25.400 18.780, 26.560 16.902 C 27.159 15.934, 17.458 5, 16 5 C 15.687 5, 13.031 7.431, 10.096 10.402 M 12.174 17.314 C 9.430 20.236, 9.449 21.134, 12.314 23.826 C 15.273 26.605, 17.115 26.571, 19.826 23.686 C 22.570 20.764, 22.551 19.866, 19.686 17.174 C 16.727 14.395, 14.885 14.429, 12.174 17.314" stroke="none" fill="#000000" fill-rule="evenodd"/><path fill-opacity=".603" d="M 12.655 16.829 C 10.413 19.306, 10.573 22.304, 13.068 24.562 C 14.957 26.271, 15.370 26.303, 17.818 24.933 C 21.064 23.117, 21.785 19.525, 19.425 16.918 C 17.242 14.505, 14.787 14.473, 12.655 16.829" stroke="none" fill="#000000" fill-rule="evenodd"/><path fill-opacity=".382" d="M 13 17 C 10.080 19.920, 10.392 21.845, 14.279 24.897 C 15.842 26.124, 16.359 26.011, 18.529 23.972 C 21.594 21.094, 21.620 19.932, 18.686 17.174 C 15.846 14.507, 15.503 14.497, 13 17" stroke="none" fill="#000000" fill-rule="evenodd"/></svg>