<svg xmlns="http://www.w3.org/2000/svg" width="200" height="200" fill="#000000"><path fill-opacity=".176" fill-rule="evenodd" d="M42.444 3.785C32.769 9.72 26.959 14.333 19.936 21.656 10.551 31.441-.03 46.593.018 50.178c.009.727 1.841-1.803 4.07-5.623 9.747-16.702 23.801-30.74 40.579-40.532C48.425 1.83 50.825.043 50 .053s-4.225 1.689-7.556 3.732M71 1.666c-3.025.817-9.24 3.235-13.811 5.373C31.272 19.165 12.726 39.669 2.956 67 1.123 72.127.544 76.194.216 86.25L-.201 99h24.078l.598 4.75c2.113 16.81 5.705 26.921 13.512 38.038 9.807 13.965 24.969 24.678 41.513 29.335 11.14 3.135 27.785 3.157 38.809.051 30.702-8.65 51.445-33.621 55.18-66.424l.655-5.75h25.15l-.578 9.25c-1.702 27.21-17.88 55.556-41.272 72.311-8.14 5.831-23.158 12.943-32.944 15.602-11.646 3.164-38.471 3.204-49.742.073-27.998-7.776-48.076-23.197-62.747-48.193-4.185-7.13-6.778-13.618-9.608-24.043-1.514-5.576-2.324-7.426-2.355-5.378-.137 8.97 11.118 33.148 21.005 45.12 14.367 17.397 35.919 30.355 57.893 34.807 11.751 2.381 36.412 1.596 47.054-1.497 17.779-5.169 34.027-15.031 46.632-28.303 17.017-17.918 25.515-37.389 27.387-62.749 1.101-14.916 1.087-34.563-.019-26.5-.377 2.75-.756 3.813-.843 2.362-.292-4.91-5.15-19.898-8.799-27.15-12.619-25.076-33.092-42.999-59.006-51.656L122.205 0 99.352.091C82.523.158 75.05.573 71 1.666m81.869 1.902c18.073 10.059 31.605 23.71 42.558 42.932 2.507 4.4 4.561 7.321 4.566 6.492.011-2.371-9.928-18.263-15.993-25.571-9.133-11.004-30.723-27.449-35.984-27.41-.834.007 1.35 1.607 4.853 3.557M93.17 7.594c-1.852 1.297-2.219 2.362-1.973 5.718.242 3.298.854 4.431 3.053 5.656 2.47 1.376 3.03 1.376 5.5 0 2.199-1.225 2.811-2.358 3.053-5.656.246-3.356-.121-4.421-1.973-5.718-2.873-2.013-4.787-2.013-7.66 0m14.371.788C106.23 14.815 105.962 20 106.939 20c.583 0 1.061-1.35 1.061-3 0-4.373 3.436-4.07 6.158.543 2.487 4.216 3.66 3.939 1.446-.341-1.452-2.809-1.427-3.015.427-3.5 2.166-.566 2.701-4.131.796-5.309-.645-.399-2.901-1.041-5.014-1.427-3.395-.621-3.891-.457-4.272 1.416m-13.886.447c-2.49 2.751-2.096 6.836.845 8.763 2.316 1.517 2.684 1.517 5 0 3.026-1.983 3.365-6.499.671-8.937-2.377-2.151-4.462-2.095-6.516.174m-15.287-.161c-2.244.463-2.243.503.159 11.082.733 3.229 2.205 2.783 1.72-.521-.354-2.413.023-2.897 2.923-3.75 2.816-.828 3.33-1.442 3.33-3.979 0-2.636-.364-3.016-3-3.136-1.65-.075-3.959.062-5.132.304M109 10.437c0 2.272.405 2.563 3.57 2.563 3.129 0 3.53-.277 3.25-2.25-.245-1.725-1.079-2.323-3.57-2.563-2.903-.28-3.25-.04-3.25 2.25m-29.323-.734c-1.126.292-1.605 1.043-1.25 1.966.315.822.573 1.908.573 2.413 0 1.389 3.369 1.1 5.521-.474 1.617-1.182 1.703-1.633.569-3-1.351-1.627-2.121-1.756-5.413-.905m43.985.478c2.096 1.014 2.118 1.198.691 6.003-.81 2.727-1.281 5.488-1.046 6.137s1.206-1.452 2.159-4.669c1.569-5.294 1.96-5.804 4.133-5.388 4.264.815 2.546-.99-2.042-2.145-5.397-1.359-6.788-1.337-3.895.062m-58.412 2.85c-2.709 1.089-2.718 1.231-.462 7.173 2.034 5.356 3.81 7.619 2.858 3.642-.545-2.273-.134-2.951 2.859-4.716 6.796-4.01 2.359-9.159-5.255-6.099m1.5.648c-1.81.484-2.186 2.021-1.153 4.714.539 1.404.891 1.406 3.563.024 4.74-2.451 2.86-6.147-2.41-4.738M139 14.905c0 .602.338 1.102.75 1.11s1.363.404 2.113.879c1.099.697.84 1.756-1.337 5.472-1.486 2.535-2.507 5.177-2.269 5.871.237.695 1.637-1.105 3.111-4 2.461-4.835 2.901-5.21 5.406-4.609 3.386.812 2.956.375-3.024-3.077-2.613-1.507-4.75-2.248-4.75-1.646m-79.53 7.036c2.301 4.541 2.374 5.072.896 6.55-.885.885-2.326 1.471-3.202 1.302-1.468-.283-5.449-5.269-6.46-8.091-.236-.661-.723-.933-1.082-.604-.915.84 4.127 9.592 5.923 10.281 2.288.878 6.439-1.467 7.074-3.996.353-1.406-.299-3.82-1.708-6.328-3.245-5.773-4.442-5.037-1.441.886m89.076 4.703c-3.833 5.019-4.915 8.615-1.243 4.132l2.23-2.723 2.875 2.292c2.839 2.264 2.853 2.327 1.119 4.974-2.897 4.421-.28 2.947 3.223-1.816 3.412-4.639 4.592-8.381 1.399-4.439l-1.85 2.285-3.216-2.29-3.215-2.289 2.24-2.385C153.34 23.073 153.841 22 153.22 22s-2.724 2.09-4.674 4.644M40 28c-2.224 2.224-2.368 2.87-1.091 4.887.577.911 1.772 1.168 3.485.75 1.433-.35 3.731-.914 5.106-1.254 2.037-.502 2.5-.247 2.5 1.378 0 2.634-2.492 4.605-4.995 3.951-1.103-.289-2.005-.117-2.005.382 0 1.694 4.991.915 7-1.094 2.399-2.399 2.542-4.305.452-6.04-1.272-1.056-2.175-.986-5.069.394C41.695 33.113 40 32.837 40 30.476c0-1.679 3.631-3.822 5.021-2.963.538.333.979.128.979-.454 0-1.785-3.883-1.176-6 .941m119.643 8.25-4.803 4.25 3.705 3.5c2.418 2.284 3.334 2.776 2.635 1.418-.589-1.145-1.776-2.668-2.638-3.383-1.194-.991-1.297-1.626-.432-2.668 1.705-2.054 3.514-1.66 5.817 1.268 1.14 1.449 2.073 2.266 2.073 1.814s-.987-1.871-2.194-3.155c-2.054-2.187-2.087-2.442-.514-4.015s1.872-1.496 4.694 1.208c1.658 1.588 3.014 2.437 3.014 1.887 0-.978-5.149-6.374-6.082-6.374-.26 0-2.634 1.913-5.275 4.25M29 38.753c0 .82 2.537 3.334 7.75 7.681 1.237 1.032 2.25 1.427 2.25.878 0-.55-2.25-2.896-5-5.215s-5-3.823-5-3.344M.382 87.5c.002 6.6.164 9.17.359 5.711.196-3.459.195-8.859-.003-12S.38 80.9.382 87.5m196.803 61.055c-9.041 18.61-26.852 36.87-46.185 47.351-4.125 2.236-6.795 4.072-5.933 4.08 2.648.024 18.802-10.145 26.317-16.566 3.914-3.344 9.191-8.519 11.726-11.5 5.195-6.108 14.444-19.939 15.447-23.101.522-1.642.847-1.791 1.537-.701.726 1.146.875 1.126.875-.118 0-4.021-1.68-3.775-3.784.555M1 150.181c0 2.985 10.064 16.955 18.574 25.783 8.71 9.034 18.752 16.673 28.143 21.407 8.74 4.405 8.341 2.895-.487-1.845-17.939-9.631-31.838-22.98-42.657-40.967C2.608 151.291 1 149.321 1 150.181m33.077 6.408c-3.563 2.997-4.097 7.178-1.248 9.756 1.988 1.8 7.171 2.273 7.171.655 0-.55-1.07-1-2.378-1-5.064 0-6.002-4.886-1.573-8.19 3.218-2.399 5.867-1.479 6.623 2.3.613 3.066 2.328 2.995 2.328-.096 0-1.984-4.395-6.014-6.558-6.014-.709 0-2.673 1.165-4.365 2.589M158 154.801c0 .575 1.228 2.505 2.728 4.288l2.729 3.242-2.479-.597c-6.046-1.458-9.975-1.891-9.938-1.095.022.473 2.061 3.059 4.533 5.744 4.862 5.285 7.384 5.731 3.01.534-1.466-1.743-2.439-3.394-2.162-3.671.276-.276 2.611.028 5.189.677s5.041.82 5.474.379c.434-.441-.673-2.377-2.459-4.302-4.357-4.697-6.625-6.477-6.625-5.199M44.636 165.804c-3.097 4.469-3.333 7.255-.807 9.541 2.931 2.653 5.74 1.994 8.919-2.095 4.087-5.255 4.58-6.256 3.061-6.212-.72.021-2.563 1.85-4.096 4.065-2.062 2.98-3.362 3.945-5 3.712-3.313-.471-3.215-3.822.251-8.607 1.99-2.747 2.573-4.208 1.678-4.208-.753 0-2.556 1.712-4.006 3.804M147 163.529c0 .809 7.837 10.545 8.456 10.506 1.337-.085.801-1.263-2.725-5.986-3.256-4.361-5.731-6.313-5.731-4.52m-7 4.761c-4.182 2.108-3.938 9.394.41 12.243 3.173 2.079 7.306.968 8.926-2.4 1.726-3.587 1.03-6.7-2.038-9.113-2.985-2.348-3.906-2.44-7.298-.73m-84.292 6.232c-1.489 3.037-2.708 5.962-2.708 6.5 0 1.779 1.509 1.015 2.513-1.272 1.605-3.66 3.879-2.737 4.929 2 1.128 5.09 2.946 5.697 2.373.793-.336-2.881-.063-3.507 1.641-3.75 1.382-.198 2.145-1.166 2.355-2.991.263-2.274-.322-3.022-3.71-4.75-2.212-1.129-4.171-2.052-4.353-2.052s-1.55 2.485-3.04 5.522m85.042-4.442c-4.736 2.758.348 11.543 5.183 8.956 2.619-1.402 2.753-6.105.238-8.381-2.099-1.9-2.985-1.994-5.421-.575m-82.106 3.405c-.6 1.564 2.059 3.515 4.79 3.515 2.204 0 1.951-2.723-.368-3.965-2.641-1.413-3.75-1.301-4.422.45m69.373.801c-5.346 2.705-4.606 11.079 1.158 13.107 3.287 1.156 7.825-1.405 7.825-4.416 0-2.646-1.294-2.506-2.513.273-1.434 3.268-4.996 3.43-7.034.319-3.029-4.624.161-9.916 4.559-7.563 1.173.628 2.085.645 2.455.047.324-.524-.294-1.425-1.373-2.003-2.386-1.277-2.057-1.292-5.077.236m-59.475 5.217c-.867 2.982-1.842 6.115-2.166 6.96-.325.845-.081 1.537.542 1.537.622 0 1.572-1.158 2.11-2.573 1.42-3.736 4.257-2.773 5.398 1.834.51 2.056 1.491 3.739 2.181 3.739.932 0 1.02-.812.344-3.17-.765-2.667-.586-3.398 1.127-4.597 3.417-2.393 2.075-5.437-3.269-7.416l-4.69-1.738zm2.458-.63c0 2.445 4.474 4.053 6.273 2.254 1.424-1.424.139-2.76-3.523-3.665-2.339-.577-2.75-.367-2.75 1.411m11.727-.21c-.275.46-.812 3.585-1.195 6.943l-.695 6.106 3.832.633c5.272.871 6.331.813 6.331-.345 0-.55-1.237-1.007-2.75-1.015-3.748-.021-5.686-1.407-4.885-3.493.519-1.354 1.384-1.574 4.146-1.056 2.096.393 3.489.255 3.489-.345 0-.55-1.575-1.296-3.5-1.657-2.518-.472-3.5-1.181-3.5-2.526 0-1.641.551-1.794 4.5-1.253 3.054.419 4.5.252 4.5-.519 0-.625-1.237-1.142-2.75-1.15-1.513-.007-3.712-.271-4.887-.587-1.176-.315-2.362-.197-2.636.264m26.273.298c-3.383.673-3.231.966 1.25 2.412 1.107.357 1.755 1.587 1.764 3.346.019 3.889 1.04 7.281 2.191 7.281.896 0 .421-5.767-.845-10.25-.379-1.341.106-1.75 2.073-1.75 1.412 0 2.567-.45 2.567-1 0-1.101-3.594-1.116-9-.039M103.676 180c-.329.825-.729 3.044-.887 4.932l-.289 3.432-2.886-4.182c-3.537-5.126-6.159-5.655-5.239-1.057.344 1.719.625 4.644.625 6.5S95.465 193 96.034 193c.663 0 .804-1.885.391-5.25l-.645-5.25 3.752 5.25c4.784 6.694 6.501 6.829 6.368.5-.123-5.873-1.352-10.432-2.224-8.25"/><path fill-opacity=".234" fill-rule="evenodd" d="M46 1.706c-13.295 8.516-16.839 11.121-22.862 16.802-3.812 3.597-8.741 8.891-10.953 11.766C7.265 36.666 0 48.526 0 50.165c0 .66 2.363-2.819 5.25-7.732C12.574 29.971 29.971 12.574 42.433 5.25c4.913-2.888 8.288-5.226 7.5-5.198-.788.029-2.558.774-3.933 1.654m22 1.166C52.429 7.993 41.063 14.935 28.765 26.833 16.338 38.857 8.559 51.249 2.977 67.91.387 75.641 0 78.237 0 87.898V99h23.909l.496 3.25c.272 1.787.751 5.558 1.064 8.379.81 7.319 4.909 18.708 9.535 26.495 16.79 28.262 50.772 42.379 82.438 34.248 29.044-7.459 52.287-33.671 55.117-62.16C173.671 98.015 172.324 99 186.519 99H199v6.042c0 13.274-5.901 32.529-13.967 45.576-15.614 25.255-39.138 41.575-67.661 46.941-11.916 2.241-32.495 1.51-43.872-1.559-34.43-9.288-62.191-37.11-70.983-71.14-1.33-5.148-2.441-8.146-2.468-6.662s1.123 6.434 2.555 11c9.235 29.447 32.021 53.811 60.22 64.391 14.352 5.385 23.186 6.723 40.561 6.141 17.062-.57 24.564-2.272 38.234-8.675 26.719-12.514 46.801-35.83 54.922-63.767 2.771-9.529 4.492-26.973 4.273-43.288-.108-7.963-.239-8.691-.814-4.5-.377 2.75-.756 4.072-.843 2.938-.443-5.816-4.788-19.063-9.179-27.982-11.71-23.787-33.094-42.694-57.764-51.073L122.5.083 99.5.08C77.007.077 76.312.138 68 2.872m83-.727C172.698 15.236 185.973 28.7 196.703 48.5c1.788 3.3 3.255 5.55 3.26 5 .017-1.908-8.038-15.749-12.662-21.759-5.589-7.262-13.985-15.665-20.801-20.816C160.395 6.312 150.004-.006 148.559.017c-.583.009.516.967 2.441 2.128M92.488 8.013C88.668 12.235 91.59 20 97 20c.978 0 2.803-.83 4.056-1.844C105.647 14.438 102.832 6 97 6c-1.48 0-3.51.906-4.512 2.013m15.088-.062c-1.262 4.534-1.68 12.049-.67 12.049.602 0 1.094-1.35 1.094-3 0-4.353 3.434-4.073 6.133.5 1.135 1.925 2.515 3.5 3.065 3.5s.095-1.533-1.01-3.407c-1.966-3.331-1.968-3.417-.099-3.906 2.159-.565 2.566-3.916.661-5.446-.687-.552-2.936-1.192-4.996-1.421-2.779-.31-3.858-.018-4.178 1.131M94 9c-3.624 3.624-1.832 9 3 9 2.961 0 5-2.216 5-5.434C102 10.827 98.562 7 97 7c-.55 0-1.9.9-3 2m-15.794-.311c-1.58.318-2.139.982-1.797 2.136.273.921.784 3.025 1.136 4.675 1.123 5.259 1.572 6.5 2.349 6.5.418 0 .561-1.35.319-3-.388-2.648-.148-3 2.051-3 3.093 0 4.993-2.163 4.563-5.195-.34-2.399-3.435-3.158-8.621-2.116M109 10.5c0 2.19.433 2.5 3.5 2.5 2.767 0 3.5-.396 3.5-1.893C116 9.125 114.159 8 110.918 8c-1.379 0-1.918.702-1.918 2.5m-28.826-.784c-1.574.3-2.14.929-1.75 1.945.317.827.576 1.965.576 2.529 0 1.151 4.945.211 6.408-1.218.902-.882-1.017-4.11-2.28-3.836-.346.075-1.675.336-2.954.58m42.97.411 2.644.969-1.82 6.011c-1.143 3.775-1.407 5.873-.709 5.64.611-.204 1.771-2.744 2.578-5.646 1.309-4.704 1.722-5.227 3.815-4.827 3.817.73 2.677-.859-1.518-2.116-4.826-1.445-8.919-1.471-4.99-.031M65.25 13.031c-1.237.498-2.25 1.329-2.25 1.848 0 2.262 4.344 12.026 5.133 11.539.48-.297.356-1.505-.276-2.685-.947-1.77-.839-2.33.616-3.19 4.618-2.731 5.777-4.179 5.087-6.355-.751-2.366-4.131-2.837-8.31-1.157m1.5.648c-1.924.514-2.212 2.042-.806 4.264.747 1.181 1.393 1.225 3.556.239 4.571-2.083 2.273-5.846-2.75-4.503M139 14.907c0 .563.86 1.483 1.911 2.045 1.834.982 1.791 1.244-1.075 6.535-1.643 3.032-2.51 5.513-1.928 5.513s2.198-2.25 3.592-5c2.77-5.466 2.766-5.463 5.566-3.965 1.064.57 1.934.682 1.933.25s-2.251-2.048-5-3.593S139 14.345 139 14.907m-82 1.574c0 .329.9 2.363 2 4.519 2.559 5.015 2.543 7.693-.048 8.515-2.491.791-4.032-.392-6.514-5C50.775 21.427 49 19.907 49 21.572c0 1.486 5.26 9.314 6.605 9.83 2.346.9 7.395-2.15 7.395-4.468 0-2.275-3.441-9.47-4.986-10.425-.558-.345-1.014-.358-1.014-.028m91.546 10.163c-3.833 5.019-4.915 8.615-1.243 4.132l2.23-2.723 2.978 2.374c2.859 2.28 2.908 2.452 1.234 4.303-1.872 2.068-2.224 3.27-.958 3.27 1.242 0 8.166-9.713 7.441-10.439-.358-.358-1.387.325-2.287 1.517-1.582 2.098-1.722 2.112-4.288.43-3.082-2.019-3.282-3.156-.998-5.679.915-1.011 1.159-1.829.546-1.829-.61 0-2.705 2.09-4.655 4.644M40 28c-2.224 2.224-2.368 2.87-1.091 4.887.577.911 1.772 1.168 3.485.75 1.433-.35 3.731-.914 5.106-1.254 2.063-.508 2.5-.253 2.5 1.465 0 2.321-3.384 4.602-5.578 3.76-.782-.3-1.422-.157-1.422.316 0 3.136 6.533 1.195 8.185-2.432.96-2.106.883-2.853-.432-4.168-1.469-1.469-1.942-1.465-5.707.041-3.811 1.525-4.151 1.524-4.738-.006-.818-2.131 2.442-4.573 5.015-3.757 1.268.403 1.693.233 1.243-.495-1.078-1.744-4.377-1.296-6.566.893m41.579 2.564c-.86.86-2.017 1.283-2.571.941-.555-.343-1.008-.19-1.008.338 0 .529-1.463 1.471-3.25 2.094s-3.25 1.053-3.25.956c0-.843-14.72 9.127-17.33 11.737C52.317 48.483 50.395 50 49.9 50s-.9.671-.9 1.492c0 .82-.9 2.053-2 2.74s-2 1.816-2 2.509S44.618 58 44.152 58c-.467 0-1.66 1.8-2.652 4s-2.185 4-2.652 4c-.466 0-.848.66-.848 1.466s-.737 3.169-1.639 5.25c-2.916 6.735-3.179 7.676-4.272 15.284-1.108 7.717-.72 17.908.91 23.906.509 1.874.691 3.786.404 4.25s-.044.844.538.844 1.059.873 1.059 1.941.399 2.188.887 2.489c.487.301 1.177 2.099 1.533 3.995.664 3.54 5.857 11.944 10.397 16.825 1.406 1.512 2.248 2.75 1.87 2.75s.101.83 1.063 1.845c2.556 2.696 8.133 1.88 10.997-1.608 3.412-4.156 5.268-8.655 6.399-15.515 1.404-8.514.52-14.571-3.047-20.893-6.373-11.291-7.78-27.816-3.562-41.829 2.537-8.429 5.566-11.662 15.303-16.334 7.874-3.778 9.359-4.143 18.31-4.503 12.771-.513 21.158 1.891 30.064 8.617 6.72 5.075 12.781 13.687 12.792 18.176.004 1.399.75 3.894 1.659 5.544 1.614 2.931 3.365 16.321 3.604 27.575.122 5.742-1.83 12.315-3.374 11.36-.479-.296-.616.13-.302.947.778 2.027-8.201 19.165-11.331 21.626-1.388 1.092-4.264 2.454-6.393 3.027-3.907 1.052-4.914 2.872-2.619 4.735.688.558 5.3 1.26 10.25 1.56 9.966.605 11.354.823 13.42 2.112 1.08.674 1.262.476.761-.83-.362-.944-.273-1.478.197-1.188.852.527 12.122-9.435 12.122-10.715 0-.371 1.718-3.494 3.818-6.941 2.101-3.448 4.682-9.306 5.738-13.018 1.055-3.713 2.196-6.75 2.535-6.75.997 0 .229-26.147-.891-30.329-.564-2.106-1.286-4.09-1.604-4.408s-.056-1.208.582-1.977c.904-1.09.852-1.331-.235-1.092-.82.18-1.543-.668-1.753-2.055-.255-1.677 0-2.139.88-1.595q1.234.76.484-.456c-.415-.672-1.008-.968-1.317-.658-.31.309-1.39-.796-2.4-2.458-2.124-3.493-2.303-4.378-.682-3.377.721.446.882.274.43-.457-.398-.644-1.142-.912-1.654-.595-.858.53-1.367-.894-1.025-2.867.079-.454-.205-.661-.631-.462-.426.2-2.029-.855-3.562-2.344-1.941-1.885-2.425-2.93-1.595-3.443.801-.495.926-.308.382.573-.551.892-.42 1.068.412.554 1.201-.742.659-2.054-.847-2.054-1.622 0-9.066-7.581-9.08-9.247-.012-1.378-.201-1.46-.883-.383-.728 1.149-1.008 1.136-1.735-.082-.477-.798-3.342-2.705-6.367-4.237a1100 1100 0 0 1-8.154-4.168c-1.46-.761-3.421-1.383-4.357-1.383-1.168 0-1.505-.516-1.073-1.641.464-1.211.295-1.391-.643-.689-1.489 1.114-1.583 1.108-8.825-.595-3.605-.847-8.516-1.096-14-.709-4.646.328-9.327.626-10.402.662s-2.621.607-3.437 1.269c-1.226.994-1.369.899-.828-.547.811-2.163.328-2.216-1.702-.186m77.625 5.729-4.213 4.292 4.004 3.91c2.203 2.151 4.005 3.454 4.005 2.895s-1.342-2.301-2.981-3.872l-2.981-2.856 2.127-1.49c1.968-1.379 2.273-1.291 4.065 1.169 1.065 1.462 2.403 2.659 2.972 2.659.57 0-.131-1.53-1.557-3.399-2.275-2.982-2.408-3.553-1.083-4.653 1.251-1.038 2.019-.766 4.474 1.587 1.63 1.561 2.964 2.389 2.964 1.839 0-1.27-5.282-6.374-6.597-6.374-.542 0-2.882 1.932-5.199 4.293M29 38.711c0 .493 1.462 2.246 3.25 3.895 4.844 4.468 6.75 5.77 6.75 4.61 0-.567-2.25-2.914-5-5.216s-5-3.783-5-3.289m66 9.195c.825.585 2.088 1.07 2.807 1.079 4.19.049 25.525 20.663 33.039 31.923 1.617 2.424 4.001 4.996 5.297 5.714 1.297.719 1.89 1.323 1.318 1.343-.676.023-.82 2.416-.412 6.868.659 7.19 1.488 9.571 3.005 8.634.525-.325.673.844.347 2.733-.433 2.508-.313 2.94.499 1.8 1.286-1.804 1.449-7.666.235-8.416-.476-.294-.69-2.121-.476-4.059.274-2.492-.009-3.525-.969-3.525-.746 0-1.357-.668-1.357-1.484 0-1.077.345-1.199 1.256-.443.977.812 1.14.312.734-2.265-.286-1.82-.974-3.589-1.528-3.933-.657-.407-.616-.867.116-1.32.776-.48.53-1.45-.797-3.137-1.056-1.343-1.698-3.292-1.427-4.331.632-2.414-3.099-10.924-5.13-11.704-.85-.326-1.322-.954-1.049-1.397.274-.442-.966-1.976-2.755-3.41a841 841 0 0 1-4.488-3.616c-4.249-3.477-14.93-7.159-22.109-7.623-5.571-.36-7.247-.206-6.156.569M.382 87.5c.002 6.6.164 9.17.359 5.711.196-3.459.195-8.859-.003-12S.38 80.9.382 87.5m196.714 61.258c-9.027 18.65-26.391 36.404-46.096 47.131-4.125 2.246-6.821 4.089-5.992 4.097 2.529.024 18.551-10.109 26.442-16.721 8.722-7.31 16.723-16.906 23.51-28.198 2.675-4.452 5.093-7.525 5.373-6.83.353.876.529.804.573-.237.173-4.092-1.637-3.733-3.81.758m-82.832.996c-.299.781.653 2.618 2.118 4.083 2.839 2.839 3.222 2.882 19.863 2.247 8.514-.325 10.257-2.157 3.255-3.422-1.1-.199-2.705-.67-3.566-1.048s-2.886.002-4.5.844c-3.565 1.859-4.773 1.897-9.363.297-3.61-1.258-5.263-2.635-4.549-3.791.215-.347-.308-.631-1.161-.631-.854 0-1.797.639-2.097 1.421m-113.251.292c-.041 5.019 18.949 28.052 30.429 36.909 6.404 4.941 20.412 13.047 22.534 13.04.838-.003-1.626-1.619-5.476-3.592-17.884-9.164-34.313-24.848-44.237-42.232-1.781-3.119-3.244-4.975-3.25-4.125m32.91 6.877c-3.339 3.339-3.765 7.005-1.094 9.422 1.988 1.8 7.171 2.273 7.171.655 0-.55-1.341-1-2.981-1-4.315 0-5.281-4.193-1.773-7.701 3.213-3.212 6.582-2.41 7.417 1.765.579 2.898 2.337 3.147 2.337.332 0-1.991-4.499-6.396-6.531-6.396-.893 0-2.938 1.315-4.546 2.923M158 154.354c0 .429 1.178 2.324 2.619 4.213 2.882 3.778 2.332 4.102-3.989 2.347-5.969-1.657-6.168.131-.624 5.592 5.701 5.615 6.897 5.027 1.343-.66l-3.65-3.739 6.322 1.475c3.477.811 6.692 1.105 7.144.653.453-.453-1.425-3.036-4.171-5.741s-4.994-4.568-4.994-4.14M44.633 165.979c-3.101 4.685-3.308 7.1-.804 9.366 3.139 2.841 5.809 2.01 9.635-3.002 4.589-6.01 3.518-7.186-1.347-1.48-6.138 7.198-10.896 3.935-5.704-3.911 2.799-4.229 3.05-4.952 1.72-4.952-.477 0-2.052 1.79-3.5 3.979M148 163.904c0 1.785 7.249 11.06 8.19 10.479.461-.285-.61-2.533-2.378-4.996-3.788-5.274-5.812-7.184-5.812-5.483m-7.772 4.326c-4.449 2.144-4.008 10.074.69 12.416 2.562 1.278 6.888.257 8.296-1.959 1.547-2.432.757-6.807-1.669-9.232-2.679-2.68-3.88-2.881-7.317-1.225m-84.722 6.758c-1.575 3.294-2.574 6.277-2.222 6.63.353.352 1.18-.543 1.839-1.989S56.908 177 57.625 177c1.7 0 3.375 3.193 3.375 6.434 0 1.411.499 2.566 1.109 2.566.679 0 .951-1.358.701-3.5-.325-2.782-.061-3.5 1.284-3.5 1.688 0 2.906-1.912 2.906-4.561 0-1.094-6.612-5.439-8.276-5.439-.196 0-1.644 2.695-3.218 5.988M140.2 170.2c-2.093 2.093-1.426 6.606 1.233 8.348 3.32 2.176 6.567.481 6.567-3.428 0-4.647-4.95-7.77-7.8-4.92m-81.726 2.883c-.806 2.54-.618 2.738 3.349 3.532 4.225.845 4.39-1.936.242-4.081-2.767-1.431-2.973-1.399-3.591.549m67.083 3.14c-.856 1.222-1.557 2.819-1.557 3.549 0 2.78 3.139 7.225 5.525 7.824 3.128.785 7.475-1.901 7.475-4.619 0-2.646-1.294-2.506-2.513.273-2.148 4.897-8.487 1.914-8.487-3.994 0-2.939 4.213-5.154 6.381-3.354.812.673 1.686.798 2.003.286 1.895-3.066-6.679-3.033-8.827.035m-57.415 5.027c-1.062 3.438-1.783 6.408-1.603 6.6.801.855 2.461-1.154 2.461-2.979 0-3.502 4.141-1.94 5.485 2.069 1.536 4.581 3.772 5.441 2.485.956-.781-2.724-.615-3.457 1.051-4.623 3.133-2.195 2.485-5.164-1.489-6.824-5.643-2.358-6.294-1.985-8.39 4.801m2.583-2.306c-.398 1.521.143 2.088 2.482 2.601 3.977.874 6.092-1.09 3.352-3.112-2.716-2.005-5.234-1.784-5.834.511m12.002-.281c-.275.46-.812 3.585-1.195 6.943l-.695 6.106 3.832.633c5.272.871 6.331.813 6.331-.345 0-.55-1.088-1-2.418-1-3.787 0-5.582-1.04-5.582-3.235 0-1.797.442-1.95 4-1.381 4.911.785 5.375-.903.5-1.818-2.591-.486-3.5-1.167-3.5-2.623 0-1.734.473-1.891 4-1.327 2.68.429 4 .268 4-.488 0-.62-1.013-1.134-2.25-1.142-1.237-.007-3.212-.271-4.387-.587-1.176-.315-2.362-.197-2.636.264m27.523.06c-3.718.462-4.343 1.982-1.01 2.457 1.232.176 2.327.995 2.433 1.82.8 6.194 1.564 9 2.452 9 .611 0 .797-1.227.454-3l-1.158-6c-.494-2.557-.273-3 1.5-3 1.143 0 2.079-.45 2.079-1 0-1.001-.686-1.029-6.75-.277m-15.415 7.775c.185 3.576.635 6.502 1 6.503.366 0 .526-2.363.356-5.25l-.309-5.251 3.74 5.25c4.827 6.775 6.888 6.985 6.014.61-.35-2.551-.636-5.476-.636-6.5 0-1.023-.465-1.86-1.034-1.86-.663 0-.804 1.885-.391 5.25l.645 5.25-3.752-5.25c-2.063-2.887-4.25-5.251-4.86-5.252-.732-.001-.994 2.206-.773 6.5"/><path fill-opacity=".683" fill-rule="evenodd" d="M44.093 3.017C33.049 9.104 21.16 19.245 12.905 29.619 7.825 36.003-.014 48.695.018 50.484c.01.559 1.321-1.348 2.914-4.236C12.6 28.713 28.713 12.6 46.248 2.932 49.136 1.339 51.05.036 50.5.036s-3.433 1.342-6.407 2.981m23.653-.011c-16.07 5.442-26.684 11.936-39.089 23.919C10.408 44.551 0 66.998 0 88.73V99h24.714l.533 7.75c1.085 15.792 8.953 32.447 21.14 44.749 29.083 29.357 76.141 29.36 105.22.005 12.277-12.392 20.052-28.84 21.144-44.727l.531-7.722 13.609-.278L200.5 98.5l.11-11.5c.078-8.118-.096-10.03-.592-6.5-.387 2.75-.774 3.813-.861 2.362-.246-4.14-4.88-19.294-8.008-26.194-6.744-14.873-20.803-31.647-34.026-40.599-8.198-5.549-22.914-12.481-30.767-14.494-4.688-1.202-11.325-1.57-28-1.554-21.565.02-21.972.06-30.61 2.985m89.28 2.853c16.527 10.382 29.845 24.475 38.88 41.141 4.524 8.346 5.567 8.856 1.465.717-7.716-15.307-24.45-33.355-39.535-42.638C153.297 2.285 149.16 0 148.642 0s3.255 2.636 8.384 5.859M92.073 8.635C90.933 10.084 90 12.048 90 13c0 3.089 3.911 7 7 7s7-3.911 7-7c0-.952-.933-2.916-2.073-4.365-2.784-3.541-7.07-3.541-9.854 0m15.577-1.819C106.587 8.693 105.988 20 106.95 20c.578 0 1.05-1.381 1.05-3.07 0-2.611.336-3.021 2.25-2.75 1.414.201 2.782 1.528 3.68 3.57.787 1.788 2.069 3.25 2.849 3.25 1.109 0 .98-.744-.591-3.407-1.966-3.331-1.968-3.417-.099-3.906 2.158-.564 2.567-3.926.661-5.426-1.582-1.245-8.585-2.357-9.1-1.445M77.749 8.667c-1.822.5-1.81.789.39 9.583 1.097 4.386 2.457 4.953 2.4 1-.029-2.078.493-2.826 2.138-3.06 2.898-.413 4.551-2.558 4.15-5.385-.265-1.868-.991-2.335-3.827-2.462-1.925-.086-4.288.059-5.251.324M92.818 10.5C91.063 14.352 93.097 18 97 18s5.937-3.648 4.182-7.5C100.33 8.631 99.275 8 97 8s-3.33.631-4.182 2.5m16.362-.25c.406 2.854 5.477 3.807 6.471 1.216.751-1.956-1.156-3.429-4.471-3.451-1.836-.012-2.253.453-2 2.235m12.329-1.264c-.272.44.586 1.072 1.907 1.404l2.403.603-1.836 6.062c-1.15 3.8-1.421 5.924-.724 5.692.611-.204 1.769-2.737 2.574-5.63 1.325-4.765 1.684-5.204 3.815-4.669 1.294.324 2.352.217 2.352-.238 0-1.163-9.887-4.201-10.491-3.224m-41.111.708c-1.645.318-1.996.956-1.617 2.938.384 2.009.921 2.415 2.601 1.964 1.165-.313 2.487-.575 2.938-.582 1.164-.02.388-4.319-.82-4.542-.55-.102-1.946-.002-3.102.222m-13.099 2.48c-1.76.472-3.492 1.329-3.848 1.905-.865 1.4 3.538 13.046 4.669 12.347.498-.308.427-1.405-.164-2.507-1.164-2.176-.52-3.919 1.448-3.919 2.204 0 4.828-3.692 4.148-5.836-.814-2.566-2.318-3.045-6.253-1.99m-.662 2.102c-1.882 1.376-1.33 4.724.779 4.724 2.301 0 4.924-2.67 4.278-4.355-.756-1.971-2.675-2.11-5.057-.369m72.363.657c0 .532.785 1.407 1.744 1.944 1.619.905 1.547 1.379-.989 6.55-1.503 3.065-2.296 5.573-1.761 5.573s2.112-2.25 3.506-5c2.77-5.466 2.766-5.463 5.566-3.965 1.301.697 1.934.702 1.934.017 0-.56-2.25-2.158-5-3.552s-5-2.098-5-1.567m-82 1.984c0 .569.898 2.508 1.996 4.309 2.597 4.259 2.58 7.456-.044 8.289-2.491.791-4.032-.392-6.514-5C50.775 21.427 49 19.907 49 21.572c0 1.507 5.269 9.317 6.641 9.844 2.354.903 6.818-1.649 7.168-4.099.171-1.19-.61-3.967-1.735-6.172C59.008 17.096 57 15.012 57 16.917m91.676 9.107c-4.036 5.406-5.004 9.055-1.281 4.829l2.331-2.646 2.882 2.297c2.822 2.251 2.844 2.34 1.034 4.339-1.016 1.123-1.671 2.571-1.455 3.218.216.648 2.328-1.385 4.693-4.518s4.004-5.992 3.642-6.355c-.362-.362-1.494.449-2.514 1.801l-1.855 2.46-2.326-1.964c-1.28-1.08-2.5-2.067-2.712-2.193s.345-1.345 1.238-2.709c3.07-4.684-.002-3.481-3.677 1.441M39.5 28.359c-.862 1.316-1.249 3.132-.875 4.107.674 1.756 2.987 1.745 9.125-.044 1.823-.531 2.25-.26 2.25 1.426 0 2.361-3.397 4.597-5.662 3.728-.93-.357-1.346-.1-1.089.673.69 2.072 3.224 1.953 6.068-.284 2.999-2.359 3.451-5.082 1.159-6.985-1.237-1.027-2.281-.967-5.554.319-3.678 1.444-4.083 1.444-4.639-.003-.798-2.081 2.209-4.242 4.92-3.533 1.439.377 1.882.184 1.394-.605-1.246-2.017-5.455-1.304-7.097 1.201m43.865-.93C58.039 33.201 37.346 51.994 29.333 76.5c-3.459 10.58-4.332 28.539-1.896 39 2.395 10.282 9.581 24.363 15.812 30.984l5.251 5.58 5.307-2.05c3.801-1.468 5.788-1.769 7-1.062 1.407.821 1.224.992-1.089 1.018-1.53.016-4.455.738-6.5 1.603l-3.718 1.573 4 3.421c5.889 5.035 18.348 11.22 27.123 13.465 16.042 4.102 36.303 2.06 50.521-5.094 6.9-3.472 14.856-8.834 14.856-10.014 0-1.503-9.754-4.083-17.5-4.627-9.114-.642-11.5-1.54-11.5-4.332 0-1.616-.69-1.965-3.886-1.965-2.325 0-5.952-1.104-9.03-2.75-5.389-2.881-21.346-17.949-23.562-22.25-1.856-3.603-2.93-12.63-1.601-13.451Q80 104.884 80 110.04c0 7.53 2.073 10.852 12.965 20.781 12.275 11.19 16.43 13.032 25.78 11.43 8.571-1.468 10.558-3.504 17.586-18.022 6.209-12.825 6.393-13.912 5.203-30.729-.368-5.191-1.436-10.905-2.525-13.5-1.038-2.475-2.158-6.177-2.489-8.226-1.196-7.409-11.656-17.628-22.52-22.003-4.494-1.809-7.512-2.219-16.5-2.243-10.704-.027-11.215.074-19 3.785-4.4 2.097-9.249 5.004-10.775 6.461-5.312 5.069-8.82 23.546-6.772 35.664.552 3.266 2.881 9.889 5.176 14.718 4.132 8.695 4.167 8.862 3.578 17.211-.328 4.636-1.317 10.163-2.2 12.281-1.917 4.604-5.689 10.336-6.808 10.345-.44.004.338-1.486 1.73-3.312 3.592-4.709 5.574-10.993 6.261-19.854.582-7.513.506-7.856-3.671-16.5-5.472-11.325-6.752-18.988-5.233-31.328 1.315-10.681 4.629-18.734 8.986-21.837 1.666-1.186 6.111-3.61 9.878-5.386 6.524-3.076 7.424-3.231 18.902-3.253 11.9-.023 12.146.024 19.531 3.673 11.579 5.723 20.824 16.166 20.895 23.604.012 1.264.797 3.739 1.745 5.5 1.004 1.865 2.084 7.162 2.591 12.7 1.536 16.801 1.299 18.863-3.386 29.546-6.251 14.255-9.51 18.595-15.468 20.601-5.27 1.774-6.345 3.081-4.432 5.387.835 1.006 3.206 1.466 7.556 1.466 3.923 0 9.216.913 13.885 2.396l7.545 2.396 6.091-6.646c7.09-7.735 13.962-20.946 16.463-31.646 2.305-9.859 1.507-29.449-1.568-38.493-7.825-23.015-25.177-40.422-47.5-47.648-9.945-3.219-28.382-4.152-38.135-1.93m76.415 8.323-4.64 4.748 3.37 3.977c1.854 2.187 3.702 3.644 4.107 3.239s-.536-2.066-2.092-3.69c-2.401-2.506-2.632-3.193-1.523-4.529 1.169-1.408 1.608-1.287 4.142 1.141 1.559 1.494 3.145 2.407 3.523 2.029s-.535-1.964-2.029-3.523c-2.48-2.589-2.573-2.953-1.072-4.199 1.437-1.192 1.989-.941 4.386 1.997 1.509 1.848 3.018 2.915 3.354 2.372s-1.076-2.636-3.137-4.649l-3.749-3.66zM28.712 38.621c-.312.312 1.697 2.578 4.465 5.036 4.707 4.18 7.711 5.323 4.812 1.829-2.228-2.683-8.682-7.46-9.277-6.865M.378 88c0 6.325.163 8.912.361 5.75s.198-8.338 0-11.5S.378 81.675.378 88m98.006 5.442c-.938 2.443.044 5.017 2.061 5.405 2.643.509 4.782-2.554 3.481-4.985-1.18-2.204-4.753-2.475-5.542-.42m29.101.606c-.7 2.205.973 4.952 3.015 4.952s3.715-2.747 3.015-4.952c-.413-1.304-1.51-2.048-3.015-2.048s-2.602.744-3.015 2.048m-5.528 12.202c1.556 4.537 3.144 9.019 3.528 9.96.622 1.523-.267 1.746-8.143 2.044l-8.842.335 9.25.205c5.088.113 9.25-.108 9.25-.493 0-1.807-6.513-20.301-7.149-20.301-.398 0 .549 3.713 2.106 8.25m76.752 2.5c-.692 10.649-2.803 19.008-7.664 30.345-12.164 28.369-36 48.532-68.045 57.56-5.224 1.471-9.937 1.819-24 1.771-20.782-.071-27.757-1.567-43.5-9.332C28.586 175.82 9.562 152.555 1.985 123.65c-1.031-3.932-1.9-6.161-1.93-4.952-.101 4.02 5.074 18.685 9.732 27.58 11.131 21.256 30.141 38.286 52.7 47.211 21.084 8.341 48.17 8.757 70.417 1.08 36.719-12.67 64.434-48.266 66.818-85.819.305-4.812.33-8.75.055-8.75s-.755 3.938-1.068 8.75M81.272 127c0 2.475.195 3.488.434 2.25.238-1.238.238-3.263 0-4.5-.239-1.237-.434-.225-.434 2.25m28.478 1.74c3.438.196 9.063.196 12.5 0 3.438-.195.625-.355-6.25-.355s-9.687.16-6.25.355m-33.743 16.489c-1.08 1.777-2.761 3.545-3.736 3.93-1.64.649-1.643.706-.044.771.95.038 2.493-1.168 3.43-2.68s2.383-3.312 3.214-4c.975-.807 1.084-1.25.305-1.25-.663 0-2.089 1.453-3.169 3.229m119.729 6.084c-9.448 18.232-25.952 34.614-45.236 44.9-3.85 2.054-6.603 3.746-6.119 3.761.485.014 4.461-1.881 8.836-4.212 16.455-8.768 30.959-22.885 41.428-40.323 2.928-4.878 5.371-8.003 5.671-7.254.39.976.543.928.59-.185.192-4.532-1.749-3.289-5.17 3.313M1 149.321c0 1.319 3.102 6.902 7.19 12.941 5.118 7.56 14.505 17.528 22.493 23.884C37.047 191.21 51.509 200 53.476 200c.563 0-2.655-2.078-7.151-4.617-17.191-9.71-31.624-23.594-40.917-39.362-2.424-4.114-4.408-7.129-4.408-6.7m34.925 6.029c-1.301.648-3.053 2.41-3.895 3.914-1.374 2.457-1.373 3.016.004 5.479 1.645 2.94 4.05 3.888 6.774 2.67 1.278-.57.835-.897-1.808-1.334-4.588-.759-5.312-4.498-1.555-8.027 2.184-2.052 2.883-2.224 5.045-1.238 1.785.813 2.51 1.929 2.51 3.865 0 2.159.255 2.466 1.235 1.486s.929-1.774-.25-3.846c-1.899-3.336-5.018-4.485-8.06-2.969m54.888-.667c.721.289 1.584.253 1.916-.079s-.258-.568-1.312-.525c-1.165.048-1.402.285-.604.604m67.187-.188c0 .507 1.688 2.678 3.75 4.825 2.776 2.891 3.231 3.761 1.75 3.352-8.188-2.263-10.86-2.712-11.621-1.951-.489.489 1.311 3.011 4.127 5.785 5.779 5.692 6.832 4.992 1.244-.826-2.753-2.867-3.218-3.752-1.75-3.329 5.692 1.636 11.084 2.465 11.744 1.805.409-.409-1.504-2.957-4.25-5.662S158 153.989 158 154.495M95.732 157c2.013 2.352 4.542 2.579 6.218.56.657-.792 2.175-1.631 3.373-1.864 2.164-.421 2.164-.424.049-.56-1.17-.075-2.687.539-3.372 1.364s-2.042 1.5-3.015 1.5-2.03-.675-2.347-1.5c-.316-.825-1.035-1.5-1.597-1.5s-.251.9.691 2m-50.982 8.931c-3.209 4.538-3.462 7.115-.921 9.414 3.081 2.789 5.891 2.024 9.165-2.495 4.243-5.858 3.685-7.204-.825-1.988-2.563 2.965-4.395 4.242-5.72 3.989-2.925-.558-2.932-4.351-.016-8.175 1.412-1.85 2.567-3.66 2.567-4.02 0-1.626-1.723-.299-4.25 3.275M148 163.697c0 1.531 7.647 11.323 8.318 10.652.338-.339-.811-2.601-2.553-5.027-3.489-4.858-5.765-7.079-5.765-5.625m-7.5 4.506c-2.686 1.512-3.466 2.817-3.485 5.824-.037 6.15 7.375 9.515 11.33 5.144 4.679-5.17-1.873-14.33-7.845-10.968m-84.994 6.785c-1.575 3.294-2.574 6.277-2.222 6.63.353.352 1.18-.543 1.839-1.989C57.211 175.047 61 177.027 61 182.7c0 1.815.509 3.3 1.131 3.3.721 0 .936-1.197.595-3.304-.44-2.71-.149-3.473 1.619-4.25 1.185-.52 2.296-1.935 2.468-3.144.242-1.7-.598-2.662-3.71-4.25-2.213-1.128-4.184-2.052-4.379-2.052-.196 0-1.644 2.695-3.218 5.988m84.166-3.93c-1.62 2.313-1.297 4.361 1.135 7.192 2.138 2.489 4.875 2.166 6.822-.807 1.588-2.423 1.571-2.699-.327-5.25-2.585-3.475-5.669-3.934-7.63-1.135m-81.214 2.075c-.764 2.406.821 3.828 4.292 3.852 3.224.022 2.814-2.642-.685-4.451-2.776-1.436-2.972-1.403-3.607.599m66.955 3.36c-3.126 4.77 1.248 12.285 6.424 11.039 2.821-.68 5.163-3.048 5.163-5.223 0-2.064-1.429-1.529-2.513.941-2.148 4.897-8.487 1.914-8.487-3.994 0-2.939 4.213-5.154 6.381-3.354.859.712 1.677.814 2.024.251.699-1.131-1.658-2.153-4.964-2.153-1.449 0-3.04.984-4.028 2.493m-56.91 3.757a4349 4349 0 0 0-2.049 6.5c-.215.688.036 1.25.558 1.25.523 0 1.238-1.149 1.591-2.554.947-3.773 4.411-2.893 5.882 1.494.634 1.891 1.673 3.613 2.308 3.824.86.287.881-.401.08-2.698-.941-2.7-.798-3.306 1.153-4.886 3.195-2.587 1.91-5.826-2.834-7.143-2.03-.564-3.993-1.028-4.362-1.031-.368-.003-1.415 2.357-2.327 5.244m2.222-1.306c-.398 1.521.143 2.088 2.482 2.601 3.977.874 6.092-1.09 3.352-3.112-2.716-2.005-5.234-1.784-5.834.511m11.938.734c-.285 1.002-.818 4.185-1.185 7.072-.606 4.781-.49 5.25 1.303 5.25 1.083 0 3.375.281 5.094.625 1.935.387 3.125.219 3.125-.44 0-.585-1.687-1.204-3.75-1.375-3.086-.255-3.81-.734-4.088-2.704-.32-2.261-.113-2.363 3.75-1.845 2.248.302 4.088.142 4.088-.356s-.863-.905-1.918-.905c-3.279 0-5.082-1.133-5.082-3.195 0-1.757.452-1.904 4-1.305 2.63.444 4 .303 4-.412 0-.598-1.313-1.088-2.918-1.088s-3.59-.258-4.41-.572c-.913-.351-1.692.134-2.009 1.25m27.587-.955c-3.72.462-4.343 1.982-1.006 2.457 1.869.267 2.383 1.198 3.076 5.57.458 2.887 1.284 5.25 1.836 5.25.576 0 .757-1.275.423-3l-1.158-6c-.494-2.557-.273-3 1.5-3 1.143 0 2.079-.45 2.079-1 0-1.001-.686-1.029-6.75-.277m-15.087 8.027.163 6.75.587-5.494.587-5.493 3.354 5.243c1.845 2.884 3.758 5.244 4.25 5.244.493 0 .823-3.037.733-6.75l-.163-6.75-.587 5.494-.587 5.493-3.354-5.243c-1.845-2.884-3.758-5.244-4.25-5.244-.493 0-.823 3.037-.733 6.75"/><path fill-opacity=".961" fill-rule="evenodd" d="M45.75 2.068C43.688 3.157 42 4.271 42 4.544c0 .446 7.899-3.246 8.917-4.167 1.15-1.041-1.853-.058-5.167 1.691m25.75-.146C38.739 11.639 14.089 35.39 2.921 68 1.259 72.853.58 77.604.244 86.75L-.206 99h25.115l.537-3.75c1.991-13.903 3.81-20.406 8.185-29.25 3.957-8.001 6.132-10.925 13.784-18.532 9.77-9.713 17.263-14.353 30.085-18.632C83.549 26.817 86.469 26.5 99 26.5s15.451.317 21.5 2.336c19.861 6.628 35.615 20.097 44.534 38.074 3.561 7.177 6.959 19.59 6.981 25.5.025 6.658.085 6.683 15.063 6.37l13.422-.28.11-11.5c.078-8.118-.096-10.03-.592-6.5-.387 2.75-.774 3.813-.861 2.362-.304-5.101-5.251-20.155-9.273-28.215-12.643-25.336-33.942-43.597-60.686-52.03-7.93-2.5-9.272-2.614-30-2.546C81.461.129 76.405.467 71.5 1.922M148.083.365c.23.2 1.542.9 2.917 1.555 2.357 1.122 2.389 1.102.559-.365-1.593-1.276-4.848-2.391-3.476-1.19M154 3.43c0 .275.9.981 2 1.57s2 .845 2 .57-.9-.981-2-1.57-2-.845-2-.57M92.862 7.018c-2.318 1.353-3.186 5.785-1.793 9.148 2.13 5.142 9.754 5.091 11.895-.08 2.806-6.773-3.831-12.731-10.102-9.068m14.129.621c-.004 1.023-.292 4.223-.639 7.111-.436 3.63-.279 5.25.509 5.25.626 0 1.139-1.35 1.139-3 0-4.417 3.503-4.11 5.701.5.918 1.925 2.273 3.5 3.01 3.5 1.059 0 .999-.661-.29-3.152-1.494-2.889-1.496-3.227-.025-4.05 2.172-1.215 2.07-5.526-.146-6.177-.963-.283-3.437-.813-5.5-1.179-3.227-.572-3.751-.405-3.759 1.197M77.173 8.872c-1.018.646-1.1 1.747-.35 4.735a372 372 0 0 1 1.625 6.761c.76 3.357 1.94 2.717 2.006-1.087.037-2.108.683-2.81 3.189-3.464 6.187-1.612 5.049-7.828-1.428-7.802-2.043.009-4.312.394-5.042.857m15.746 1.406C91.195 14.062 93.277 18 97 18c3.683 0 5.533-3.468 4-7.5-1.298-3.413-6.561-3.557-8.081-.222m16.243-.171c.415 2.94 5.459 4.045 6.467 1.417.787-2.05.438-2.361-3.54-3.156-3.016-.603-3.24-.47-2.927 1.739M121 8.826c0 .571.9 1.325 2 1.674 2.379.755 2.429 1.514.514 7.825-1.096 3.614-1.156 4.723-.239 4.42.674-.223 1.861-2.762 2.638-5.642 1.278-4.74 1.635-5.182 3.75-4.652 1.285.323 2.337.146 2.337-.393 0-.54-1.828-1.473-4.063-2.075s-4.709-1.342-5.5-1.645c-.79-.304-1.437-.084-1.437.488m44.5 2.243c2.2 1.783 8.272 7.559 13.493 12.836s8.079 7.795 6.353 5.595C181.227 24.253 169.43 13.014 165 10.117c-3.119-2.04-3.064-1.936.5.952M32.872 10.75c-1.243 1.586-1.208 1.621.378.378.962-.755 1.75-1.543 1.75-1.75 0-.823-.821-.294-2.128 1.372m45.883 1.75c.518 2.708.645 2.768 3.995 1.87 1.323-.355 2.25-1.379 2.25-2.487C85 10.412 84.264 10 81.639 10c-3.047 0-3.317.234-2.884 2.5M66 12.456c-2.007.748-3.378 1.889-3.215 2.674.776 3.72 4.542 11.786 5.289 11.324.467-.288.453-1.568-.032-2.843-.768-2.019-.441-2.527 2.539-3.948 3.959-1.888 4.737-5.887 1.485-7.628-1.064-.569-2.077-1.001-2.25-.959s-1.891.663-3.816 1.38m-42.546 6.122L16.5 25.157l7.25-6.283C30.422 13.093 31.528 12 30.704 12c-.163 0-3.426 2.96-7.25 6.578m43.796-4.543c-2.411.965-2.693 1.719-1.402 3.754 1.203 1.895 6.404-.245 5.975-2.459-.404-2.084-1.693-2.448-4.573-1.295m71.75.898c0 .532.785 1.407 1.744 1.944 1.619.905 1.547 1.379-.989 6.55-3.333 6.796-2.003 7.406 1.796.823 1.508-2.613 2.862-4.899 3.01-5.081s1.206.171 2.353.785c1.352.723 2.086.758 2.086.098 0-.56-2.25-2.158-5-3.552s-5-2.098-5-1.567m-82 2.119c0 .578 1.013 2.818 2.25 4.978 1.77 3.088 2.013 4.303 1.141 5.698-1.906 3.045-4.676 2.092-7.196-2.478-1.29-2.337-2.761-4.25-3.27-4.25-1.524 0-1.079 1.366 2.053 6.304 3.179 5.013 5.13 5.709 8.799 3.139 2.796-1.958 2.801-4.2.024-9.916C58.733 16.27 57 14.686 57 17.052m91.181 9.674c-4.237 5.771-4.81 8.864-.774 4.176l2.236-2.598 2.716 2.165 2.716 2.166-2.055 2.613c-1.168 1.485-1.639 2.87-1.09 3.209 1.199.741 9.626-10.236 8.624-11.234-.399-.397-1.597.351-2.661 1.663-1.905 2.351-1.968 2.359-4.164.511-1.226-1.032-2.402-1.979-2.614-2.105s.345-1.345 1.238-2.709c.894-1.363 1.253-2.709.798-2.99s-2.692 2.029-4.97 5.133M13.924 28.75 11.5 31.5l2.75-2.424C16.82 26.81 17.459 26 16.674 26c-.179 0-1.416 1.238-2.75 2.75m25.731-.921c-3.875 4.282-.441 7.962 5.212 5.585 3.565-1.499 5.133-1.16 5.133 1.11 0 1.938-3.228 3.491-5.838 2.808-2.8-.732-2.839 1.318-.042 2.206 2.594.823 7.246-2.343 7.678-5.226.511-3.402-2.04-4.619-6.732-3.214-2.243.672-4.365.936-4.715.586C39.218 30.552 42.177 28 44.622 28 45.93 28 47 27.55 47 27c0-1.722-5.609-1.09-7.345.829m120.033 7.981-4.733 4.805 3.423 3.942c1.882 2.169 3.772 3.601 4.199 3.183s-.496-2.09-2.052-3.714c-2.401-2.506-2.632-3.193-1.523-4.529 1.169-1.408 1.608-1.287 4.142 1.141 3.671 3.517 5.048 2.215 1.535-1.451-2.079-2.17-2.407-3.059-1.476-3.99.932-.932 1.909-.511 4.385 1.889 1.753 1.698 3.444 2.672 3.758 2.163.314-.508-1.116-2.571-3.177-4.584l-3.749-3.66zM9 35c-1.175 1.65-1.911 3-1.636 3S8.825 36.65 10 35s1.911-3 1.636-3S10.175 33.35 9 35m181.463 2.75c1.541 2.337 2.993 4.25 3.226 4.25.722 0-3.107-6.086-4.609-7.327-.781-.645-.159.74 1.383 3.077m-161.778.982c-.597 1.008 9.215 9.701 10.03 8.886.733-.733-3.056-4.983-6.895-7.734-1.474-1.056-2.884-1.575-3.135-1.152M3.03 44.25C1.374 47.138.015 49.913.009 50.417c-.012 1.216.125 1.013 3.824-5.667C5.584 41.587 6.797 39 6.529 39c-.269 0-1.843 2.362-3.499 5.25m193.675 4.222c1.477 3.01 2.852 5.304 3.057 5.099.449-.449-4.595-10.571-5.268-10.571-.26 0 .735 2.462 2.211 5.472M93.28 46.736c2.629.207 6.679.204 9-.005 2.321-.21.17-.379-4.78-.376s-6.849.175-4.22.381m-7.467.947c.721.289 1.584.253 1.916-.079s-.258-.568-1.312-.525c-1.165.048-1.402.285-.604.604m22 0c.721.289 1.584.253 1.916-.079s-.258-.568-1.312-.525c-1.165.048-1.402.285-.604.604M79 50c-1.925 1.054-3.05 1.916-2.5 1.916S79.075 51.054 81 50s3.05-1.916 2.5-1.916-2.575.862-4.5 1.916m40 2.061c3.025 1.664 7.75 5.143 10.499 7.732l5 4.707-4.5-4.841c-4.159-4.475-13.164-10.652-15.499-10.632-.55.005 1.475 1.371 4.5 3.034m-50.172 2.976c-2.108 1.229-6.264 7.86-5.442 8.682.338.338.614.091.614-.549 0-.641 1.627-2.966 3.616-5.167 3.795-4.2 3.942-4.559 1.212-2.966m66.677 13.181c.822 2.045 1.495 4.707 1.495 5.917s.279 1.919.62 1.578c.952-.951-.464-7.13-2.128-9.289-1.299-1.686-1.298-1.464.013 1.794m-74.426 1.365c.048 1.165.285 1.402.604.605.289-.722.253-1.585-.079-1.917s-.568.258-.525 1.312M60.232 75c0 1.925.206 2.713.457 1.75.252-.963.252-2.537 0-3.5-.251-.963-.457-.175-.457 1.75M.378 88c0 6.325.163 8.912.361 5.75s.198-8.338 0-11.5S.378 81.675.378 88m137.693-10.5c0 .55.643 2.125 1.429 3.5s1.429 2.05 1.429 1.5-.643-2.125-1.429-3.5-1.429-2.05-1.429-1.5m-78.785 8c.008 2.75.202 3.756.432 2.236s.223-3.77-.014-5-.425.014-.418 2.764m81.863 5.5c-.005 4.125.342 8.397.77 9.494s.588-1.828.355-6.5c-.55-11.018-1.114-12.519-1.125-2.994m-42.44 1.624c-1.277 1.277-.743 5.149.791 5.738 2.672 1.025 4.628-.447 4.304-3.24-.299-2.575-3.465-4.127-5.095-2.498m29.337.82c-2.701 3.255 1.769 7.17 4.765 4.174 1.273-1.274 1.404-2.055.565-3.387-1.46-2.318-3.775-2.66-5.33-.787M60.158 95c0 1.375.227 1.938.504 1.25.278-.687.278-1.812 0-2.5-.277-.687-.504-.125-.504 1.25m59.406 4.293c.376.986.935 1.541 1.243 1.233s.001-1.114-.683-1.793c-.988-.98-1.102-.865-.56.56M62.097 101.5c0 .55 1.531 3.925 3.403 7.5s3.403 6.05 3.403 5.5-1.531-3.925-3.403-7.5-3.403-6.05-3.403-5.5m110.189 4c.008 2.75.202 3.756.432 2.236s.223-3.77-.014-5-.425.014-.418 2.764m-147.014.5c0 2.475.195 3.487.434 2.25.238-1.237.238-3.263 0-4.5-.239-1.237-.434-.225-.434 2.25m174.014 2.5c.008 2.75.202 3.756.432 2.236s.223-3.77-.014-5-.425.014-.418 2.764m-76.204-.376c-.045.344.593 2.538 1.418 4.876s1.5 4.402 1.5 4.587-3.937.485-8.75.668l-8.75.334 9.358.205 9.359.206-.663-2.64c-.759-3.026-3.35-9.171-3.472-8.236M142.158 111c0 1.375.227 1.938.504 1.25.278-.687.278-1.812 0-2.5-.277-.687-.504-.125-.504 1.25m-62.926 2c0 1.925.206 2.713.457 1.75.252-.963.252-2.537 0-3.5-.251-.963-.457-.175-.457 1.75m91.742.25c-.014 1.237-1.1 5.4-2.412 9.25-2.866 8.403-2.619 9.94.33 2.059 2.237-5.978 3.766-13.559 2.736-13.559-.345 0-.64 1.013-.654 2.25m-144.895.333c.048 1.165.285 1.402.604.605.289-.722.253-1.585-.079-1.917s-.568.258-.525 1.312m112.616 5.967c-3.672 7.486-3.333 8.373.42 1.1 1.66-3.218 2.851-6.017 2.646-6.222-.204-.205-1.584 2.1-3.066 5.122m59.5-3.05c.02 1.65.244 2.204.498 1.231s.237-2.323-.037-3-.481.119-.461 1.769m-171.116 1.083c.048 1.165.285 1.402.604.605.289-.722.253-1.585-.079-1.917s-.568.258-.525 1.312M69.31 121.5c.005 3.3.192 4.529.415 2.732s.218-4.497-.01-6c-.229-1.503-.411-.032-.405 3.268m10.694-3.501c-.005 1.795 18.456 20.091 23.175 22.969 1.826 1.113 3.996 2.009 4.821 1.989s-.03-.699-1.901-1.511c-4.059-1.762-21.664-17.686-24.262-21.946-1.006-1.65-1.831-2.326-1.833-1.501M.079 119.583c.048 1.165.285 1.402.604.605.289-.722.253-1.585-.079-1.917s-.568.258-.525 1.312M28.086 121c-.031.825.381 2.175.914 3 1.181 1.828 1.181.249 0-2.5-.567-1.319-.878-1.489-.914-.5m168.993.583c.048 1.165.285 1.402.604.605.289-.722.253-1.585-.079-1.917s-.568.258-.525 1.312m-196 2c.048 1.165.285 1.402.604.605.289-.722.253-1.585-.079-1.917s-.568.258-.525 1.312m80 2c.048 1.165.285 1.402.604.605.289-.722.253-1.585-.079-1.917s-.568.258-.525 1.312m115 0c.048 1.165.285 1.402.604.605.289-.722.253-1.585-.079-1.917s-.568.258-.525 1.312m-194.006.989c-.103 1.51 3.07 10.619 3.536 10.152.212-.211-.481-2.823-1.539-5.804s-1.957-4.938-1.997-4.348m27.958-.072c0 .55.436 1.675.969 2.5s.969 1.05.969.5-.436-1.675-.969-2.5-.969-1.05-.969-.5m51.048 3.083c.048 1.165.285 1.402.604.605.289-.722.253-1.585-.079-1.917s-.568.258-.525 1.312m29.71-.842c3.459.196 8.859.195 12-.003s.311-.358-6.289-.356-9.17.164-5.711.359M68.195 131.5c.02 1.65.244 2.204.498 1.231s.237-2.323-.037-3-.481.119-.461 1.769m65.264-1.433c-.363.586-.445 1.281-.183 1.543s.743-.218 1.069-1.067c.676-1.762.1-2.072-.886-.476m-99.067 5.725c2.757 5.33 10.713 15.109 15.398 18.925 6.89 5.612 8.21 6.583 8.21 6.039 0-.269-2.051-2.087-4.558-4.04-4.11-3.201-4.381-3.659-2.75-4.647 1.533-.93 1.412-1.007-.799-.51-2.246.505-3.196-.152-6.85-4.736-2.334-2.928-5.366-7.235-6.738-9.573-2.788-4.748-4.152-5.788-1.913-1.458m96.119-.169c-.945 1.443-1.224 2.318-.62 1.944 1.154-.713 3.483-4.567 2.759-4.567-.231 0-1.193 1.18-2.139 2.623M162 137c-.589 1.1-.845 2-.57 2s.981-.9 1.57-2 .845-2 .57-2-.981.9-1.57 2M6 138.367C6 139.45 10.97 149 11.534 149c.275 0-.687-2.363-2.137-5.25C6.607 138.197 6 137.235 6 138.367m59.144 2.383c-1.091 2.55-1.066 2.609.34.809.834-1.068 1.516-2.305 1.516-2.75 0-1.52-.678-.81-1.856 1.941m58.856.299c-2.475 1.013-3.923 1.867-3.218 1.897 1.62.068 8.218-2.657 8.218-3.395 0-.303-.113-.504-.25-.447zm63.495 5.649c-7.224 13.669-18.849 26.336-34.502 37.596-2.415 1.737-2.392 1.739.748.04 6.063-3.282 17.741-13.876 24.259-22.009 5.898-7.36 14.737-21.922 13.846-22.812-.199-.199-2.157 3.034-4.351 7.185m-31.38-1.347c-7.1 9.203-7.065 9.186-13.588 6.745-3.081-1.153-6.373-2.071-7.315-2.04-.941.031 1.101.947 4.538 2.036s6.25 2.361 6.25 2.826c0 1.146-5.332 5.11-12 8.92-3.025 1.729-5.105 3.147-4.622 3.153 4.095.043 22.751-14.597 28.34-22.241 4.743-6.486 3.507-6.023-1.603.601m-42.865-1.623c2.315.243 3.75.916 3.75 1.761 0 3.194 3.004 4.515 9.821 4.318l6.679-.192-6.462-.361c-6.934-.387-9.038-1.406-9.038-4.376 0-1.569-.699-1.85-4.25-1.71l-4.25.168zm-52.146 2.661c-1.234 1.314-3.634 2.667-5.334 3.007-4.732.946-2.87 1.449 2.23.602 2.475-.411 3.859-.804 3.076-.873-1.025-.09-.766-.826.924-2.625 1.292-1.375 2.124-2.5 1.849-2.5s-1.51 1.075-2.745 2.389M13 152c.589 1.1 1.295 2 1.57 2s.019-.9-.57-2-1.295-2-1.57-2-.019.9.57 2m181.5 2c-.853 1.65-1.326 3-1.051 3s1.198-1.35 2.051-3 1.326-3 1.051-3-1.198 1.35-2.051 3M3.96 155.63c1.25 2.271 3.36 5.421 4.687 7s.591-.027-1.637-3.568c-4.78-7.594-6.253-9.251-3.05-3.432M158 154.495c0 .507 1.688 2.678 3.75 4.825 2.753 2.867 3.218 3.752 1.75 3.329-5.692-1.636-11.084-2.465-11.744-1.805-.409.409 1.504 2.957 4.25 5.662 5.768 5.681 6.855 4.995 1.244-.784l-3.75-3.863 3 .668c1.65.367 4.561 1.064 6.47 1.55 5.43 1.382 5.437-.251.024-5.583-2.747-2.705-4.994-4.505-4.994-3.999M17.129 158c2.769 4.282 16.255 18.4 20.371 21.326 1.65 1.173-1.536-2.358-7.08-7.847-5.544-5.488-11.312-11.554-12.817-13.479l-2.738-3.5zm15.944-.365c-1.14 1.449-2.073 3.474-2.073 4.5 0 4.027 6.738 7.716 8.597 4.707.483-.781.062-.986-1.299-.63C33.372 167.5 31.116 161.884 35 158c3.603-3.603 7.986-1.991 8.015 2.95.012 1.884.249 2.182.908 1.141 1.927-3.044-1.521-7.091-6.042-7.091-1.765 0-3.472.935-4.808 2.635M59 161.43c0 .275.9.981 2 1.57s2 .845 2 .57-.9-.981-2-1.57-2-.845-2-.57m127.675 4.32c-3.513 4.774-16.154 17.362-22.675 22.579-2.536 2.029-2.168 1.892 1.336-.496 5.892-4.015 18.005-15.995 22.495-22.247 1.811-2.522 3.079-4.586 2.816-4.586-.262 0-2.05 2.137-3.972 4.75m-141.925.607c-3.23 5.113-3.398 6.747-.921 8.988 3.168 2.867 5.817 2.029 9.219-2.915 1.73-2.514 2.925-4.791 2.656-5.06s-1.775 1.324-3.347 3.539c-3.555 5.012-4.666 5.471-7.558 3.127l-2.299-1.864 3.25-4.615c3.405-4.836 3.73-5.558 2.5-5.555-.413.001-1.987 1.96-3.5 4.355M148 163.856c0 1.366 6.99 10.144 8.078 10.144.543 0-.882-2.475-3.166-5.5-4.172-5.526-4.912-6.226-4.912-4.644m-83.434 1.089c1.184 1.156 11.569 5.254 12.063 4.759.203-.203-2.638-1.562-6.314-3.02-3.675-1.458-6.262-2.241-5.749-1.739M12.5 168c.995 1.1 2.035 2 2.31 2s-.315-.9-1.31-2-2.035-2-2.31-2 .315.9 1.31 2m112.5 0c-.825.533-1.05.969-.5.969s1.675-.436 2.5-.969 1.05-.969.5-.969-1.675.436-2.5.969m13.655 1.829c-3.765 4.16-.508 11.171 5.19 11.171 5.384 0 7.944-6 4.598-10.777-1.962-2.802-7.41-3.022-9.788-.394m-82.994 4.79c-1.516 3.091-2.448 5.903-2.072 6.25.377.347.856.181 1.064-.369s.809-1.675 1.335-2.5c1.42-2.23 4.434.013 4.839 3.601.18 1.594.801 3.349 1.38 3.899.732.695.89-.084.518-2.554-.446-2.96-.176-3.711 1.614-4.5 3.619-1.593 3.162-4.105-1.256-6.894C60.859 170.149 58.9 169 58.728 169c-.171 0-1.552 2.529-3.067 5.619m83.971-3.504c-2.185 3.119.649 8.885 4.368 8.885 2.6 0 5.288-3.518 4.525-5.922-1.606-5.06-6.323-6.632-8.893-2.963m-60.819-.432c.721.289 1.584.253 1.916-.079s-.258-.568-1.312-.525c-1.165.048-1.402.285-.604.604m39 0c.721.289 1.584.253 1.916-.079s-.258-.568-1.312-.525c-1.165.048-1.402.285-.604.604m-98.313 5.19c5.449 5.761 14.829 13.459 20.75 17.029 6.292 3.794 4.18 1.677-3.268-3.275-3.86-2.567-10.497-7.901-14.75-11.854-5.475-5.089-6.273-5.643-2.732-1.9m39.107-3.291c-1.02 2.657-.721 3.183 2.438 4.284 2.527.881 3.151.786 3.667-.558.39-1.016-.227-2.307-1.656-3.464-2.787-2.256-3.664-2.308-4.449-.262m24.143-.92c.688.278 1.813.278 2.5 0 .688-.277.125-.504-1.25-.504s-1.937.227-1.25.504m30 0c.688.278 1.813.278 2.5 0 .688-.277.125-.504-1.25-.504s-1.937.227-1.25.504m-23.988 1.045c1.244.239 3.044.23 4-.02s-.062-.446-2.262-.435-2.982.216-1.738.455m17.488-.018c.963.252 2.537.252 3.5 0 .963-.251.175-.457-1.75-.457s-2.713.206-1.75.457m19.811 3.25c-1.134 1.134-2.061 2.482-2.061 2.996 0 2.407 2.145 6.114 4.388 7.584 2.039 1.335 2.889 1.407 4.795.402 2.598-1.369 3.779-2.82 3.802-4.671.027-2.197-1.833-1.338-2.165 1-.462 3.251-5.093 3.625-7.223.585-2.382-3.401-2.023-6.684.873-8.003 1.931-.88 2.841-.821 4.163.271 1.462 1.207 1.626 1.193 1.203-.103-.774-2.368-5.431-2.405-7.775-.061m-57.465 4.38c-1.949 6.701-1.948 9.361 0 4.903 1.25-2.86 1.69-3.139 3.454-2.195 1.112.595 2.289 2.417 2.615 4.048s.985 3.209 1.464 3.505c1.202.743 1.095-2.293-.164-4.646-.638-1.191-.665-1.934-.072-1.934 1.219 0 4.107-2.847 4.107-4.048 0-1.23-3.909-3.671-7.154-4.469-2.51-.616-2.742-.351-4.25 4.836m2.161-1.828c-.499 2.612.753 3.509 4.898 3.509 3.537 0 2.696-3.006-1.296-4.635-2.975-1.214-3.166-1.154-3.602 1.126m11.86 2.332c-1.88 9.871-1.86 11.177.17 11.177 1.08 0 3.439.295 5.243.656 2.357.471 3.08.331 2.566-.5-.393-.636-2.262-1.156-4.155-1.156-3.041 0-3.441-.303-3.441-2.605 0-2.436.259-2.58 4-2.224 2.2.21 4 .061 4-.331s-1.463-.854-3.25-1.027c-2.555-.246-3.322-.824-3.588-2.705-.324-2.293-.159-2.363 4-1.699 2.661.425 3.951.337 3.338-.228-.55-.506-2.659-1.171-4.687-1.478-3.386-.511-3.728-.339-4.196 2.12m28.133-2.095c-2.062.216-3.75.868-3.75 1.449s.928.814 2.061.517c2.305-.602 2.523-.185 3.426 6.556.349 2.613 1.088 4.75 1.642 4.75s.783-.787.511-1.75c-.271-.963-.791-3.662-1.155-6-.534-3.435-.368-4.25.868-4.25.841 0 1.807-.45 2.147-1s.029-.924-.691-.832-2.996.345-5.059.56m-15.587 8.022.163 6.75.587-5.448.587-5.448 3.5 5.172c1.925 2.845 3.838 5.184 4.25 5.198s.677-3.011.587-6.724l-.163-6.75-.587 5.403-.587 5.404-3.5-5.152c-1.925-2.833-3.838-5.152-4.25-5.153s-.677 3.035-.587 6.748m-53.73-4.859c.713 1.154 4.567 3.483 4.567 2.759 0-.231-1.18-1.193-2.623-2.139s-2.318-1.224-1.944-.62M47 185.449c0 .275 1.35 1.198 3 2.051s3 1.326 3 1.051-1.35-1.198-3-2.051-3-1.326-3-1.051M144 189c-3.025 1.598-5.148 2.927-4.717 2.953 1.063.064 10.717-4.863 10.717-5.47 0-.668.139-.726-6 2.517m-86 2.5c1.375.786 2.95 1.429 3.5 1.429s-.125-.643-1.5-1.429-2.95-1.429-3.5-1.429.125.643 1.5 1.429m97.741 1.874c-4.804 2.953-6.145 4.348-2.241 2.329 3.135-1.62 7.363-4.639 6.5-4.64-.275 0-2.192 1.04-4.259 2.311M135 193c-.825.533-1.05.969-.5.969s1.675-.436 2.5-.969 1.05-.969.5-.969-1.675.436-2.5.969m-69.5 1.536c1.65.756 3.675 1.36 4.5 1.343s-.075-.638-2-1.379c-4.566-1.758-6.362-1.732-2.5.036m-20.5.957c0 .677 8.123 4.718 8.575 4.265.21-.209-1.634-1.36-4.097-2.556-2.463-1.197-4.478-1.966-4.478-1.709m27.813 1.19c.721.289 1.584.253 1.916-.079s-.258-.568-1.312-.525c-1.165.048-1.402.285-.604.604m52 0c.721.289 1.584.253 1.916-.079s-.258-.568-1.312-.525c-1.165.048-1.402.285-.604.604m-48 1c.721.289 1.584.253 1.916-.079s-.258-.568-1.312-.525c-1.165.048-1.402.285-.604.604m44 0c.721.289 1.584.253 1.916-.079s-.258-.568-1.312-.525c-1.165.048-1.402.285-.604.604m-40.063.979c.688.278 1.813.278 2.5 0 .688-.277.125-.504-1.25-.504s-1.937.227-1.25.504m34 0c.688.278 1.813.278 2.5 0 .688-.277.125-.504-1.25-.504s-1.937.227-1.25.504m-26 1.044c1.237.238 3.263.238 4.5 0 1.237-.239.225-.434-2.25-.434s-3.487.195-2.25.434m17 0c1.237.238 3.263.238 4.5 0 1.237-.239.225-.434-2.25-.434s-3.487.195-2.25.434"/></svg>