<!-- Generated by IcoMoon.io -->
<svg version="1.1" xmlns="http://www.w3.org/2000/svg" width="32" height="32" viewBox="0 0 32 32" fill="#000000">
<title>nrg</title>
<path d="M7.994 8.079c-4.389 4.324-7.987 7.879-7.994 7.9s3.49 3.492 7.772 7.715c4.282 4.223 7.887 7.766 8.010 7.873l0.225 0.196 7.977-7.862c4.387-4.324 7.983-7.879 7.99-7.901s-0.887-0.923-1.988-2.005l-2.001-1.966-5.97 5.883c-3.283 3.236-5.996 5.883-6.028 5.883s-1.831-1.747-3.997-3.881c-2.166-2.135-3.939-3.899-3.939-3.921s1.779-1.794 3.953-3.938c2.174-2.144 3.971-3.899 3.993-3.899s0.473 0.432 1.002 0.961l0.962 0.961-2.069 2.039c-1.138 1.121-2.487 2.453-2.997 2.958l-0.928 0.92 4.019 3.956 0.876-0.864c0.482-0.475 2.522-2.483 4.535-4.462s3.874-3.81 4.137-4.069l0.479-0.471-4.983-4.919c-2.74-2.705-4.999-4.925-5.020-4.934s-3.629 3.523-8.018 7.847z"/>
</svg>
