<svg xmlns="http://www.w3.org/2000/svg" width="160" height="160" fill="#000000"><path fill-opacity=".227" fill-rule="evenodd" d="M61.5 1.903C50.515 4.89 44.138 7.735 35.377 13.558 20.72 23.301 9.895 37.514 3.815 55 .628 64.166.512 65.046.512 80s.116 15.834 3.303 25c8.503 24.455 26.741 42.764 50.903 51.101C64.184 159.368 65 159.477 80 159.482c14.961.006 15.83-.109 25-3.297 24.282-8.443 42.532-26.474 50.661-50.052 1.827-5.298 3.325-10.619 3.33-11.824S159.45 91.84 160 91.5c.577-.356 1-5.697 1-12.618 0-7.745-.355-11.781-1-11.382-.556.343-1.004-.408-1.009-1.691-.005-1.27-1.503-6.644-3.33-11.942C147.519 30.251 129.13 12.107 105 3.879 96.467.97 94.126.607 82 .32 71.116.062 67.144.369 61.5 1.903M.385 80c0 6.875.16 9.688.355 6.25.196-3.437.196-9.062 0-12.5C.545 70.313.385 73.125.385 80"/><path fill-opacity=".417" fill-rule="evenodd" d="M67.691 1.025C32.776 6.54 5.262 35.134.788 70.553c-4.976 39.398 20.497 76.216 60.214 87.034 8.961 2.44 29.035 2.44 37.996 0 24.77-6.747 44.948-23.888 54.314-46.141 3.051-7.249 5.688-17.142 5.688-21.34 0-1.708.45-3.106 1-3.106.587 0 .994-3.406.985-8.25-.011-5.696-.316-7.786-.985-6.75-.732 1.133-.973.679-.985-1.856-.02-4.441-2.596-14.201-5.712-21.642-7.387-17.64-24.107-34.343-41.857-41.814-12.985-5.466-30.584-7.743-43.755-5.663M39.703 17.792C37.666 19.878 36 21.878 36 22.237s2.516 2.703 5.592 5.208L47.183 32h64.986l5.915-4.648c3.254-2.556 5.916-4.992 5.916-5.414s-2.301-2.182-5.114-3.913l-5.113-3.146-4.816 4.06L104.141 23H55.486L50 18.5c-3.017-2.475-5.735-4.5-6.04-4.5s-2.22 1.706-4.257 3.792M18.178 40.545l-3.322 5.488 4.072 5.114L23 56.261v48.273l-4.5 5.145c-2.475 2.829-4.5 5.542-4.5 6.029 0 1.519 7.768 8.554 8.764 7.938.52-.322 2.811-3.002 5.091-5.958L32 112.315V47.784l-5.086-6.392c-2.797-3.516-5.16-6.379-5.25-6.364-.09.016-1.659 2.498-3.486 5.517m113.996 1.016L127 48.264v63.952l5.185 6.517 5.186 6.517 4.381-4.638 4.381-4.637-4.566-5.345-4.567-5.346V54.818l3.5-4.089c1.925-2.249 3.5-4.366 3.5-4.705s-1.497-2.99-3.326-5.891l-3.325-5.275zM50 79.5V109h12.957l.271-19.179.272-19.179 17 19.675 17 19.674 6.25.005L110 110V50H97.041l-.271 20.492-.27 20.492-17-20.434-17-20.434-6.25-.058L50 50zM.349 80c0 4.675.173 6.587.383 4.25.211-2.338.211-6.163 0-8.5-.21-2.338-.383-.425-.383 4.25m41.656 51.524c-3.022 2.446-5.59 4.791-5.705 5.211-.115.421 1.53 2.747 3.656 5.169l3.864 4.404 5.448-4.654L54.716 137h49.924l4.089 3.5c2.249 1.925 4.488 3.5 4.976 3.5s3.237-1.481 6.108-3.291l5.22-3.292-6.851-5.208-6.851-5.209-31.916.038-31.915.038z"/><path fill-opacity=".661" fill-rule="evenodd" d="M69.039 3.169c-16.555 2.364-31.224 9.844-43.625 22.245C12.361 38.468 5.442 52.598 2.971 71.25.9 86.89 4.765 105.083 13.222 119.5c5.278 8.997 18.281 22 27.278 27.278 30.001 17.6 67.714 13.282 92.774-10.621 7.345-7.006 11.538-12.672 16.029-21.659 9.407-18.823 10.805-39.246 4.074-59.498-3.662-11.02-9.646-20.441-18.791-29.586-12.799-12.798-27.049-19.887-44.908-22.34-8.865-1.217-11.534-1.205-20.639.095M39.211 17.864l-4.101 4.865 6.408 5.135L47.927 33h63.332l6.87-5.24c3.779-2.882 6.871-5.486 6.871-5.788 0-.689-10.299-6.972-11.427-6.972-.457 0-2.574 1.575-4.705 3.5l-3.874 3.5H54.716l-5.268-4.5c-2.897-2.475-5.462-4.5-5.701-4.5s-2.28 2.189-4.536 4.864M18.086 40.015C16.389 42.773 15 45.514 15 46.106s1.575 2.916 3.5 5.165L22 55.36v49.821l-4.684 5.483-4.685 5.483 4.886 4.177c2.687 2.297 5.048 4.086 5.247 3.976s2.582-2.98 5.298-6.378L33 111.745V48.741l-5.24-6.87C24.878 38.092 22.217 35 21.846 35s-2.063 2.257-3.76 5.015m113.164 2.118L126 49.199l.009 31.151.009 31.15 5.241 6.706c2.883 3.688 5.691 6.711 6.241 6.717s2.731-2.013 4.847-4.487c4.258-4.979 4.378-4.302-2.071-11.689L137 104.994V55.629l4.019-4.766 4.018-4.766-3.549-5.548c-1.952-3.052-3.873-5.534-4.269-5.515-.395.018-3.082 3.213-5.969 7.099M49.235 79.25l.265 30.25 6.75.296 6.75.295v-39.2l17.054 19.555L97.108 110H110V49H97.041l-.271 20.588-.27 20.588-17.33-20.588L61.84 49H48.971zm-7.893 52.429a2733 2733 0 0 1-6.28 5.021c-.51.399 8.062 9.3 8.956 9.3.331 0 2.974-2.025 5.873-4.5l5.272-4.5h48.978l4.816 4.06 4.815 4.061 5.614-3.591c3.088-1.975 5.614-3.764 5.614-3.975 0-.21-2.876-2.672-6.392-5.469L112.216 127H47.183z"/><path fill-opacity=".307" fill-rule="evenodd" d="M63.552 4.652C34.284 10.925 10.671 34.777 4.592 64.21-5.305 112.121 31.168 157 80 157s85.305-44.879 75.408-92.79C149.259 34.44 125.56 10.741 95.79 4.592c-9.45-1.952-22.966-1.927-32.238.06M39.208 17.288C36.894 19.646 35 21.88 35 22.251s2.723 2.942 6.052 5.713c6.022 5.011 6.087 5.036 13.25 5.063l7.198.026-5.831 3.164c-7.446 4.039-15.413 12.006-19.452 19.452L33.053 61.5l-.026-6.889c-.027-6.865-.047-6.915-5.663-13.866l-5.636-6.975-3.918 6.162-3.918 6.161 4.054 4.843L22 55.778v48.593l-3.814 4.565c-5.89 7.047-5.866 6.795-1.094 11.657 2.378 2.424 4.629 4.407 5.001 4.407s2.979-2.811 5.792-6.246C32.87 112.667 33 112.343 33 106.027v-6.481l3.75 6.35c4.009 6.789 12.201 14.97 18.124 18.1l3.626 1.916-5.287.044c-4.841.04-5.831.481-11.75 5.223-3.554 2.849-6.445 5.437-6.423 5.75.022.314 2.04 2.745 4.485 5.402l4.447 4.831 5.841-5.081L55.655 137h47.882l4.84 4c2.663 2.2 5.07 4 5.351 4 .645 0 12.272-7.043 12.272-7.434 0-.159-3.272-2.795-7.272-5.859-5.917-4.531-8.107-5.629-11.75-5.888l-4.478-.319 4.5-2.672c5.681-3.373 13.112-10.986 16.424-16.828l2.552-4.5.012 5.303c.011 4.954.389 5.77 5.73 12.381l5.718 7.077 4.786-5.205 4.786-5.204-5.004-5.754-5.004-5.753V56.07l2.775-3.285c5.859-6.937 5.753-6.128 1.67-12.743-2.051-3.323-3.858-6.042-4.015-6.042s-2.793 3.227-5.858 7.171c-5.044 6.492-5.572 7.64-5.572 12.114v4.943l-4.112-6.158c-4.638-6.945-10.533-12.274-18.053-16.32L98.723 33h6.778c6.739 0 6.817-.032 13.717-5.607l6.939-5.606-6.249-3.844-6.25-3.843-4.718 3.95-4.718 3.95H55.163l-5.272-4.5c-2.899-2.475-5.542-4.5-5.873-4.5s-2.495 1.93-4.81 4.288"/></svg>