<svg xmlns="http://www.w3.org/2000/svg" width="64" height="64" fill="#000000"><path fill-opacity=".165" fill-rule="evenodd" d="M41.5 14.482c-4.936 4.384-5.094 4.442-12.337 4.48-6.514.034-7.802-.288-11.5-2.873-6.617-4.626-8.276-4.766-10.657-.899C4.586 19.122 0 33.086 0 36.524c0 1.332 1.229 5.021 2.731 8.199 10.927 23.116 40.873 25.879 55.768 5.146 3.798-5.288 3.952-5.954 3.205-13.869-.677-7.166-1.753-10.137-3.545-9.792-1.166.224-2.167-1.38-3.694-5.917-2.1-6.24-4.822-10.309-6.87-10.27-.602.011-3.345 2.019-6.095 4.461"/><path fill-opacity=".169" fill-rule="evenodd" d="M41.851 14.736c-4.934 4.615-5.247 4.745-12.262 5.099-6.462.327-7.501.113-10.144-2.087-7.365-6.129-10.521-6.248-13.22-.498C2.566 25.044-.147 35.299.51 38.852c.34 1.844.851 3.12 1.134 2.837.284-.284 1.418-4.042 2.52-8.352C6.39 24.631 9.816 16 11.047 16c.44 0 2.863 1.575 5.385 3.5 4.353 3.323 4.989 3.5 12.543 3.5h7.958l5.206-4.624c4.895-4.347 5.287-4.513 6.554-2.781.741 1.014 1.833 3.646 2.427 5.849.593 2.203 2.329 6.492 3.857 9.531s3.098 7.435 3.488 9.77c.807 4.831 1.976 6.076 3.369 3.587.635-1.134.528-3.135-.317-5.942-.701-2.328-.911-4.606-.468-5.061 1.346-1.383-1.727-7.39-3.443-6.731-1.121.43-1.892-.771-3.056-4.761C52.796 15.822 49.561 10 47.972 10c-.582 0-3.336 2.131-6.121 4.736M6.142 33.127C4.277 38.031 7.249 43.624 9.66 39.75c1.096-1.76.435-5.984-1.2-7.673-1.185-1.224-1.509-1.078-2.318 1.05m36.401-1.196c-.317.512-.118 1.213.441 1.559 1.193.737 3.016-.199 3.016-1.549 0-1.217-2.707-1.225-3.457-.01m-8.878 1.547c-.877.876-1.947 1.554-2.379 1.505-1.411-.159-1.471 3.009-.067 3.547.751.289 3.147.157 5.324-.293 3.004-.621 4.034-1.35 4.277-3.028.207-1.432-.204-2.209-1.169-2.209-.818 0-2.141-.251-2.94-.558-.799-.306-2.17.16-3.046 1.036m-10.122 1.453c-.317.512-.118 1.213.441 1.559 1.193.737 3.016-.199 3.016-1.549 0-1.217-2.707-1.225-3.457-.01"/><path fill-opacity=".435" fill-rule="evenodd" d="M41.109 15.5C35.954 19.9 35.681 20 28.86 20c-6.215 0-7.381-.321-10.669-2.937-5.322-4.235-8.641-4.833-10.559-1.901C4.683 19.668.072 35.621.863 38.58c.645 2.414 1.03 1.684 2.977-5.654C6.613 22.474 9.467 16 11.301 16c.769 0 3.379 1.438 5.799 3.195 4.229 3.071 4.73 3.185 12.9 2.926 8.396-.267 8.55-.318 12.538-4.195C44.759 15.766 47.084 14 47.705 14s1.887 2.137 2.812 4.75S53.703 26.875 55.54 31c1.838 4.125 3.654 9.247 4.037 11.382.556 3.105.883 3.548 1.631 2.21.584-1.043.574-3.373-.027-6.191-.53-2.484-.747-5.345-.482-6.357.645-2.469-1.397-6.097-3.071-5.455-1.325.509-2.176-1.083-4.555-8.524C51.854 14.251 49.305 11 47.535 11c-.635 0-3.527 2.025-6.426 4.5M43 32.5c0 .917.484 1.505 1.075 1.308s1.075-.785 1.075-1.308c0-.522-.484-1.111-1.075-1.308S43 31.583 43 32.5M6.347 36.192c.103 2.369.517 4.196.92 4.058S8.378 40 8.839 40s.781-1.685.709-3.744c-.09-2.596-.63-3.841-1.76-4.058-1.324-.255-1.594.493-1.441 3.994m25.825-1.357c-1.873 1.441-2.068 2-1 2.861 1.668 1.344 7.395.531 8.882-1.261 1.581-1.906.2-3.891-1.643-2.361-1.014.842-1.411.855-1.411.048 0-1.65-2.173-1.329-4.828.713M24 35c0 .55.702 1 1.559 1s1.281-.45.941-1-1.041-1-1.559-1-.941.45-.941 1"/><path fill-opacity=".99" fill-rule="evenodd" d="M41.321 15.5c-5.055 4.423-5.265 4.5-12.203 4.5-6.159 0-7.605-.373-11.339-2.922-7.111-4.857-8.347-4.846-10.867.094C3.99 22.9.979 33.672 1.091 37.997c.07 2.707.609 1.572 2.373-4.997 1.255-4.675 3.22-10.631 4.367-13.235 2.361-5.361 3.197-5.418 9.36-.632C20.565 21.753 21.585 22 29.044 22h8.162l5.061-4.55c5.99-5.386 6.522-5.139 9.741 4.512 1.186 3.554 3.201 8.279 4.478 10.5s2.64 6.009 3.028 8.419c.413 2.565 1.016 3.88 1.453 3.173.41-.664.365-3.248-.101-5.742s-.573-4.977-.239-5.518c.903-1.461-1.802-5.941-3.252-5.385-.805.309-1.988-1.741-3.326-5.762C51.747 14.731 49.514 11 47.676 11c-.666 0-3.525 2.025-6.355 4.5M43.5 32c-.34.55-.141 1 .441 1S45 32.55 45 32s-.198-1-.441-1-.719.45-1.059 1m-36.591.281c-.051.121-.177 1.941-.281 4.045-.197 3.968.698 5.574 1.964 3.526 1.338-2.165 1.204-6.716-.213-7.26-.758-.291-1.42-.431-1.47-.311M34 34.607c0 1.018-.55 1.396-1.5 1.031-.898-.344-1.5-.007-1.5.84 0 2.147 7.889 1.597 9.083-.633 1.255-2.345-.653-3.415-1.991-1.116-.974 1.674-1.033 1.675-1.062.021-.016-.962-.705-1.75-1.53-1.75s-1.5.723-1.5 1.607M24 35c0 .55.45 1 1 1s1-.45 1-1-.45-1-1-1-1 .45-1 1"/></svg>