<svg xmlns="http://www.w3.org/2000/svg" width="64" height="64" fill="#000000"><path fill-opacity=".075" fill-rule="evenodd" d="M22.396 1.418C12.518 4.51 3.417 14.211.921 24.309c-5.674 22.963 15.807 44.444 38.77 38.77 10.139-2.506 21.144-13 22.913-21.85.36-1.799 1.046-3.513 1.525-3.809S65 34.182 65 30.882s-.395-5.756-.878-5.457c-.483.298-1.169-.913-1.525-2.691-.99-4.952-6.989-13.219-12.186-16.795C42.12.235 31.601-1.463 22.396 1.418M.32 32c0 3.575.182 5.038.403 3.25s.222-4.712 0-6.5C.502 26.962.32 28.425.32 32"/><path fill-opacity=".271" fill-rule="evenodd" d="M15 26.781C15 34.092 15.373 38 16.071 38c.59 0 1.747.675 2.572 1.5s1.151 1.5.725 1.5c-.425 0 .984 1.8 3.132 4 3.637 3.724 4.291 4 9.5 4s5.863-.276 9.5-4c2.148-2.2 3.557-4 3.132-4-.426 0-.1-.675.725-1.5s1.982-1.5 2.572-1.5C48.627 38 49 34.092 49 26.781V15.563l-5.779 5.718C37.613 26.831 37.281 27 32 27s-5.613-.169-11.221-5.719L15 15.563z"/><path fill-opacity=".645" fill-rule="evenodd" d="M16 26.784C16 33.382 16.379 37 17.071 37c1.502 0 4.302 2.96 3.53 3.732-.35.35.81 2.129 2.578 3.952C26.065 47.662 26.963 48 32 48s5.935-.338 8.821-3.316c1.768-1.823 2.928-3.602 2.578-3.952-.772-.772 2.028-3.732 3.53-3.732C47.621 37 48 33.382 48 26.784V16.568l-5.281 5.216C37.655 26.785 37.213 27 32 27s-5.655-.215-10.719-5.216L16 16.568z"/><path fill-opacity=".918" fill-rule="evenodd" d="M16.208 26.75c-.186 9.179-.025 10.248 1.542 10.235 1.2-.011 1.37-.257.54-.784-.764-.486-1.332-4.253-1.542-10.235l-.333-9.466zM47 26.417c0 6.597-.374 9.567-1.25 9.921-.747.301-.545.536.5.583C47.805 36.991 48 35.887 48 27c0-5.5-.225-10-.5-10s-.5 4.237-.5 9.417m-18.25 1.306c1.788.222 4.712.222 6.5 0 1.788-.221.325-.403-3.25-.403s-5.038.182-3.25.403M22.946 44.25C26.142 47.728 26.799 48 32 48s5.858-.272 9.054-3.75L44.5 40.5l-3.548 3.25C37.865 46.578 36.703 47 32 47s-5.865-.422-8.952-3.25L19.5 40.5z"/></svg>