<svg width="500" height="500" viewBox="0 0 500 500" fill="#000000" xmlns="http://www.w3.org/2000/svg">
<path fill-rule="evenodd" clip-rule="evenodd" d="M0 250V500H250H500V250V0H250H0V250ZM325.973 41.875C335.9 91.6525 357.845 256.9 356.985 275.403C355.038 317.418 329.85 353.177 281.635 382.38L272.02 388.205L237.26 353.51C218.142 334.43 202.5 319.525 202.5 320.39C202.5 321.258 204.275 330.55 206.445 341.04C213.233 373.86 203.913 399.1 175.338 425.285C166.503 433.377 158.585 440 157.738 440C156.893 440 147.89 405.26 137.732 362.8C113.245 260.427 114.172 248.813 149.622 213.643C170.547 192.883 167.33 191.637 212.302 237.932C234.11 260.382 252.488 278.188 253.143 277.5C253.798 276.812 250.495 251.5 245.802 221.25C230.177 120.53 240.345 89.3125 302.965 45.7325C321.045 33.15 324.13 32.6325 325.973 41.875Z" fill="#000000"/>
</svg>
