<svg xmlns="http://www.w3.org/2000/svg" width="200" height="200" fill="#000000"><path fill-opacity=".224" fill-rule="evenodd" d="M74.25 41.667c-2.338.246-4.25.845-4.25 1.329 0 .485-2.025 1.185-4.5 1.556S61 45.59 61 46.034s-1.263 1.084-2.806 1.423-3.442 1.5-4.221 2.58S52.037 52 51.4 52c-1.688 0-14.079 12.412-14.866 14.892C36.166 68.051 35.481 69 35.012 69s-1.15 1.35-1.512 3-1.053 3-1.534 3-1.186 1.688-1.565 3.75-1.187 4.071-1.795 4.464c-1.529.986-1.529 32.586 0 33.572.608.393 1.416 2.402 1.795 4.464s1.07 3.75 1.536 3.75 1.151 1.215 1.524 2.699c.372 1.485 1.771 3.714 3.108 4.953S39 135.17 39 135.494C39 137.178 48.843 147 50.53 147c.843 0 1.792.675 2.108 1.5s1.203 1.5 1.969 1.5 1.393.45 1.393 1 .643 1 1.429 1c.785 0 2.034.606 2.775 1.347.74.74 3.134 1.681 5.319 2.091s4.271 1.229 4.637 1.82c.945 1.53 31.096 1.473 31.607-.06.208-.624 1.921-1.424 3.806-1.778 1.885-.353 3.427-1.022 3.427-1.486s1.575-1.139 3.5-1.5 3.5-1.057 3.5-1.545c0-.489.471-.889 1.048-.889.576 0 2.09-1.125 3.364-2.5s2.794-2.5 3.376-2.5c1.376 0 7.212-5.836 7.212-7.212 0-.582 1.072-2.053 2.383-3.267 1.311-1.215 2.691-3.179 3.067-4.365s1.104-2.156 1.617-2.156.933-1.125.933-2.5.414-2.5.921-2.5c.506 0 1.237-1.462 1.625-3.25.388-1.787 1.211-3.571 1.83-3.964 1.673-1.061 1.553-30.976-.126-31.536-.687-.229-1.257-1.167-1.265-2.083s-.459-2.342-1-3.167c-.876-1.333-1.092-1.333-1.949 0-.75 1.167-2.901 1.464-9.702 1.34-7.71-.142-9.007.094-11.019 2-1.254 1.188-2.288 3.173-2.298 4.41-.009 1.237-.467 2.25-1.017 2.25s-1 1.35-1 3-.403 3-.896 3-1.215 3.6-1.604 8-1.059 8-1.489 8c-.429 0-1.09 2.475-1.468 5.5s-1.056 5.5-1.507 5.5-1.115 1.179-1.477 2.621-1.219 3.182-1.905 3.868c-3.554 3.554-11.088 2.901-12.079-1.048-.337-1.343-1.055-2.441-1.594-2.441s-.981-.511-.981-1.135c0-.625-1.072-2.13-2.383-3.344-1.311-1.215-2.691-3.179-3.067-4.365S82.446 114 81.933 114s-.933-.643-.933-1.429c0-.785-.588-2.023-1.306-2.75s-1.604-2.108-1.969-3.071c-.696-1.84-5.725-2.519-5.725-.773 0 .537-2.925 3.872-6.5 7.412s-6.5 6.776-6.5 7.19-.672 1.466-1.493 2.337-2.881 3.047-4.577 4.834-3.724 3.25-4.507 3.25-1.423.45-1.423 1-2.25 1-5 1-5-.45-5-1 1.475-1 3.278-1c3.942 0 6.648-2.769 7.433-7.605.303-1.867.942-3.395 1.42-3.395s.869-.9.869-2 .408-2 .906-2 1.216-2.25 1.594-5 1.056-5 1.506-5 1.122-1.8 1.494-4 1.059-4 1.527-4 1.154-2.025 1.525-4.5 1.016-4.5 1.434-4.5 1.046-1.8 1.398-4 1.084-4 1.628-4 .988-.675.988-1.5.45-1.5 1-1.5 1-1.025 1-2.278c0-3.077 3.791-6.122 7.622-6.122 3.527 0 8.589 4.323 9.882 8.439.426 1.353 1.836 3.452 3.135 4.663S89 85.376 89 85.952 89.42 87 89.933 87s1.233.948 1.601 2.107C92.41 91.869 95.13 95 96.651 95 98.17 95 105 88.628 105 87.211 105 85.957 113.782 77 115.012 77c.469 0 1.154-.948 1.522-2.107.786-2.476 3.545-5.893 4.76-5.893.467 0 1.476-.562 2.243-1.25 3.309-2.968 4.44-3.75 5.421-3.75.573 0 1.042-.466 1.042-1.034 0-1.555 5.734 4.621 6.484 6.983.358 1.128 1.07 2.051 1.583 2.051s.933 1.077.933 2.393.662 2.647 1.471 2.958c1.492.572 4.529-1.722 4.529-3.422 0-.511.685-.929 1.521-.929.837 0 5.553-4.05 10.479-9s9.642-9 10.479-9 1.521-.417 1.521-.927c0-.509.787-1.132 1.75-1.384 1.667-.435 1.667-.463 0-.573-.963-.064-1.75-.566-1.75-1.116s-1.088-1-2.417-1-2.597-.542-2.817-1.203c-.583-1.749-28.934-1.792-29.517-.045-.228.686-1.053 1.248-1.832 1.248s-1.417.414-1.417.921c0 .506-1.35 1.217-3 1.579-3.493.767-3.732 1.798-1.078 4.646 1.631 1.751 2.728 1.98 7.25 1.511 2.93-.304 4.541-.318 3.578-.031-.963.286-1.75.938-1.75 1.447s-1.519.927-3.375.927c-5.812 0-9.536 1.143-10.163 3.119-.328 1.035-1.298 1.881-2.154 1.881-1.221 0-1.419-.696-.914-3.221.355-1.772 1.311-3.594 2.125-4.05 2.249-1.258 1.882-5.811-.519-6.439-1.1-.288-2-.921-2-1.407 0-.485-.675-.883-1.5-.883s-1.5-.45-1.5-1-.914-1-2.031-1c-1.118 0-2.27-.622-2.562-1.382s-2.402-1.681-4.689-2.047-4.408-1.069-4.714-1.564c-.631-1.021-21.309-2.02-27.754-1.34M141 57c0 .55 1.575 1 3.5 1s3.5-.45 3.5-1-1.575-1-3.5-1-3.5.45-3.5 1"/><path fill-opacity=".207" fill-rule="evenodd" d="M75.25 41.678c-2.888.235-5.25.825-5.25 1.313s-2.025 1.19-4.5 1.561-4.5 1.025-4.5 1.453-1.125 1.061-2.5 1.406S56 48.48 56 49.019s-.627.981-1.393.981-1.652.675-1.969 1.5c-.316.825-1.243 1.5-2.059 1.5C48.931 53 39 62.516 39 64.095c0 .55-1.094 2.014-2.431 3.253s-2.736 3.468-3.108 4.953C33.088 73.785 32.439 75 32.019 75s-1.045 1.762-1.39 3.916c-.344 2.154-1.189 4.104-1.877 4.333-1.8.6-1.8 32.902 0 33.502.688.229 1.533 2.179 1.877 4.333S31.648 125 32.128 125s.872.643.872 1.429c0 4.575 9.037 6.344 12.392 2.426 1.011-1.18 2.07-3.88 2.354-6S48.654 119 49.132 119s.868-.675.868-1.5.408-1.5.906-1.5 1.216-2.25 1.594-5 1.068-5 1.533-5 1.148-2.025 1.519-4.5 1.016-4.5 1.434-4.5 1.046-1.8 1.398-4 1.027-4 1.5-4 1.148-1.8 1.5-4 1.084-4 1.628-4 .988-.675.988-1.5.45-1.5 1-1.5 1-1.025 1-2.278c0-2.792 3.102-5.592 7.076-6.387 2.476-.495 3.529-.019 6.324 2.859 1.844 1.899 3.664 4.432 4.044 5.629S84.554 80 85.067 80s.933.689.933 1.531c0 .843.675 1.791 1.5 2.107s1.5 1.203 1.5 1.969.42 1.393.933 1.393 1.233.948 1.601 2.107C92.41 91.869 95.13 95 96.651 95 98.17 95 105 88.628 105 87.211 105 85.917 113.802 77 115.079 77c.507 0 .921-.742.921-1.649 0-2.023 5.846-7.85 8.823-8.795 1.197-.38 2.177-1.11 2.177-1.623s.627-.933 1.393-.933 1.674-.733 2.018-1.629c.523-1.363.113-1.526-2.518-1-1.729.346-3.506.629-3.951.629-.444 0-1.093.9-1.442 2s-1.279 2-2.067 2c-1.813 0-1.902-4.382-.127-6.179 2.564-2.594 2.614-4.615.18-7.242-1.315-1.418-2.862-2.579-3.438-2.579S116 49.6 116 49.111c0-.488-1.575-1.184-3.5-1.545s-3.5-1.036-3.5-1.5-1.542-1.133-3.427-1.486c-1.885-.354-3.573-1.045-3.75-1.536-.376-1.038-18.891-1.99-26.573-1.366m64 6.039c-2.887.213-5.25.814-5.25 1.335 0 .522-.675.948-1.5.948s-1.5.45-1.5 1-.575 1-1.278 1-1.963.8-2.8 1.778c-1.369 1.599-1.352 1.959.17 3.562 1.425 1.502 2.659 1.674 7.801 1.093 3.359-.38 6.107-1.083 6.107-1.562s2.025-.871 4.5-.871c6.906 0 5.34 1.632-2.245 2.341-3.71.346-6.897 1.086-7.083 1.644S135.196 61 134.417 61c-1.866 0-1.872 4.888-.007 5.604.775.297 1.684 1.633 2.019 2.968.335 1.336 1.051 2.428 1.59 2.428s.981 1.077.981 2.393.662 2.647 1.471 2.958c1.492.572 4.529-1.722 4.529-3.422 0-.511.661-.929 1.468-.929C148.201 73 158 63.759 158 62.125c0-.619.675-1.125 1.5-1.125s1.5-.675 1.5-1.5.511-1.5 1.135-1.5c.625 0 2.178-1.125 3.453-2.5s2.774-2.5 3.333-2.5.757-.675.441-1.5c-.317-.825-1.615-1.5-2.886-1.5-1.27 0-2.459-.386-2.643-.859-.393-1.014-17.058-1.98-24.583-1.424m-.5 31.533c-.291.872-3.117 1.261-9.334 1.287-9.816.04-13.416 1.7-13.416 6.185 0 1.253-.45 2.278-1 2.278s-1 1.35-1 3-.41 3-.91 3c-.501 0-1.229 3.825-1.619 8.5s-1.062 8.5-1.495 8.5-1.098 2.25-1.476 5-1.047 5-1.485 5-1.094 1.179-1.456 2.621-1.311 3.273-2.108 4.071c-2.415 2.415-1.756 4.308 1.499 4.308 1.751 0 3.37.712 3.982 1.75.9 1.526 1.16 1.558 2.034.25.568-.848 1.01-.998 1.019-.344.008.636 2.265 1.466 5.015 1.844s5 1.095 5 1.594c0 .498 2.025.906 4.5.906 3.333 0 4.5-.389 4.5-1.5 0-.825.441-1.5.981-1.5.539 0 1.255-1.092 1.59-2.428s1.244-2.671 2.019-2.968 1.41-1.23 1.41-2.073c0-.842.45-1.531 1-1.531s1-.862 1-1.917c0-1.054.461-2.07 1.024-2.258.563-.187 1.307-2.137 1.654-4.333s1.121-4.311 1.719-4.701c1.489-.97 1.488-28.613-.001-29.582-.598-.39-1.391-1.946-1.761-3.459-.704-2.876-2.172-3.639-2.885-1.5m-69 29.68c-2.062 2.125-3.75 4.585-3.75 5.467 0 .903-.822 1.603-1.883 1.603-1.599 0-3.044 2.391-3.103 5.135-.008.349 2.461.944 5.486 1.322s5.5 1.105 5.5 1.615 1.35.928 3 .928 3 .392 3 .872 1.899 1.176 4.22 1.547 4.459 1.039 4.75 1.484 2.33 1.066 4.53 1.381 3.234.351 2.297.08-2.014-1.476-2.393-2.678c-.38-1.202-1.444-2.861-2.366-3.686s-1.969-2.287-2.326-3.25S85.647 119 85.14 119s-1.206-1.125-1.551-2.5-1.069-2.5-1.608-2.5-.981-.643-.981-1.429c0-.785-.588-2.023-1.306-2.75s-1.604-2.108-1.969-3.071c-1.052-2.779-3.923-1.994-7.975 2.18M98 132c0 .55.45 1 1 1s1-.45 1-1-.45-1-1-1-1 .45-1 1"/><path fill-opacity=".05" fill-rule="evenodd" d="M139.75 47.765c-3.162.184-5.75.762-5.75 1.285s-.675.95-1.5.95-1.5.45-1.5 1-.575 1-1.278 1-1.963.8-2.8 1.778c-1.369 1.599-1.353 1.958.159 3.551 1.376 1.449 2.614 1.648 6.801 1.092 2.815-.373 5.118-1.071 5.118-1.55s2.475-.871 5.5-.871c7.709 0 6.867 1.583-1.245 2.341-3.71.346-6.897 1.086-7.083 1.644S135.196 61 134.417 61c-1.866 0-1.872 4.888-.007 5.604.775.297 1.684 1.633 2.019 2.968.335 1.336 1.051 2.428 1.59 2.428s.981.675.981 1.5.45 1.5 1 1.5c1.536 0 1.189 1.954-.679 3.821-1.308 1.308-3.596 1.686-10.353 1.71-9.418.034-11.287.907-12.527 5.848-.362 1.442-1.059 2.621-1.549 2.621-.491 0-.892 1.763-.892 3.917s-.382 4.066-.848 4.25c-.467.183-1.146 2.921-1.509 6.083l-.66 5.75h3.008c1.655 0 3.009.414 3.009.92 0 .507 2.911 1.233 6.469 1.614 5.096.545 6.595 1.093 7.067 2.579.329 1.038 1.356 1.892 2.281 1.898.926.006 3.371.29 5.433.631 2.985.493 3.75.304 3.75-.928 0-.851.551-1.731 1.224-1.955 1.601-.534 1.747-26.523.155-27.561-1.805-1.178-2.492-8.218-.863-8.843.774-.297 1.673-1.375 1.997-2.396s1.563-2.166 2.753-2.543C149.758 71.625 158 63.688 158 62.079c0-.593.675-1.079 1.5-1.079s1.5-.675 1.5-1.5.511-1.5 1.135-1.5c.625 0 2.178-1.125 3.453-2.5s2.774-2.5 3.333-2.5.757-.675.441-1.5c-.352-.915-1.866-1.5-3.886-1.5-1.82 0-3.459-.382-3.643-.848-.396-1.008-13.96-1.861-22.083-1.387M50 54c0 .55-.621 1-1.379 1C46.997 55 39 62.52 39 64.047c0 .577-1.094 2.062-2.431 3.301s-2.736 3.468-3.108 4.953C33.088 73.785 32.439 75 32.019 75s-1.067 1.899-1.438 4.22-1.216 4.555-1.878 4.964c-1.698 1.049-1.698 30.583 0 31.632.662.409 1.507 2.643 1.878 4.964s1.067 4.22 1.547 4.22.872.643.872 1.429c0 4.575 9.037 6.344 12.392 2.426 1.011-1.18 2.07-3.88 2.354-6S48.654 119 49.132 119s.868-.675.868-1.5.391-1.5.87-1.5c.478 0 1.104-2.081 1.391-4.624s.999-4.919 1.583-5.28 1.366-2.555 1.737-4.876S56.591 97 57 97s1.032-1.8 1.384-4 1.027-4 1.5-4 1.148-1.8 1.5-4 1.084-4 1.628-4 .988-.9.988-2 .45-2 1-2 1.008-.787 1.017-1.75c.026-2.623 4.391-6.25 7.523-6.25 2.993 0 8.707 5.052 9.875 8.731.363 1.146 1.319 2.337 2.123 2.645.804.309 1.462 1.25 1.462 2.093 0 .842.45 1.531 1 1.531s1 .675 1 1.5.42 1.5.933 1.5 1.233.948 1.601 2.107C92.41 91.869 95.13 95 96.651 95 98.17 95 105 88.628 105 87.211c0-.579 2.025-3.078 4.5-5.553s4.5-4.786 4.5-5.135C114 75.151 123.826 66 125.299 66c.861 0 1.843-.871 2.181-1.936s1.38-2.137 2.317-2.384c1.265-.333 1.143-.478-.476-.564-1.198-.064-2.853.559-3.678 1.384s-1.945 1.5-2.488 1.5c-.544 0-1.138.391-1.322.868-.183.477-1.458 1.182-2.833 1.565-1.375.384-1.981.331-1.347-.117.634-.449 1.309-2.366 1.5-4.26l.347-3.443-8.5-.378c-4.675-.208-8.65-.796-8.833-1.306-.502-1.398-4.165-1.117-4.182.321-.011.847-.357.767-1.076-.25-.799-1.129-1.187-1.191-1.568-.25-.597 1.469-3.026 1.674-3.508.295-.183-.525-7.083-1.217-15.333-1.538s-15.15-1.017-15.333-1.546C60.724 52.684 56 52.719 56 54c0 .55-.675 1-1.5 1s-1.5-.45-1.5-1-.675-1-1.5-1-1.5.45-1.5 1m59 59c0 .55.45 1 1 1s1-.45 1-1-.45-1-1-1-1 .45-1 1"/><path fill-opacity=".182" fill-rule="evenodd" d="M136 49c0 .55-1.125 1-2.5 1s-2.5.45-2.5 1-.575 1-1.278 1-1.963.8-2.8 1.778c-1.369 1.599-1.353 1.958.159 3.551 1.376 1.449 2.614 1.648 6.801 1.092 2.815-.373 5.118-1.071 5.118-1.55s2.925-.871 6.5-.871c9.011 0 8.162 1.586-1.23 2.296-4.252.321-7.889 1.061-8.083 1.644-.195.583-.991 1.06-1.77 1.06-2.121 0-1.721 4.295.583 6.268 1.1.942 2 2.392 2 3.222s.45 1.51 1 1.51 1 .482 1 1.071c0 1.385 2.544 3.929 3.929 3.929.589 0 1.071-.384 1.071-.854 0-1.34 4.771-6.146 6.101-6.146 1.645 0 7.5-6.168 8.327-8.772.371-1.169 1.664-2.436 2.873-2.816s3.19-1.752 4.401-3.051S168.362 53 168.921 53s.757-.675.441-1.5c-.356-.926-1.875-1.5-3.969-1.5-1.866 0-3.393-.45-3.393-1 0-.615-5-1-13-1s-13 .385-13 1m2.75 30.25c-.292.874-3.133 1.259-9.436 1.281-7.012.025-9.386.398-10.667 1.679-2.578 2.578-1.972 3.714 2.353 4.406 2.2.352 4 1.032 4 1.512s1.125.872 2.5.872 2.5.398 2.5.885c0 .486 2.549 1.203 5.664 1.592 5.62.702 7.486 1.689 8.587 4.541.314.815.318-.993.007-4.018s-.946-5.65-1.411-5.833c-.466-.184-.847-1.384-.847-2.669 0-4.449-2.217-7.347-3.25-4.248M30.272 81.802c-.345.934-1.109 2.019-1.699 2.412-1.578 1.049-1.456 30.622.13 31.602.662.409 1.507 2.643 1.878 4.964s1.067 4.22 1.547 4.22.872.643.872 1.429c0 4.575 9.037 6.344 12.392 2.426 1.011-1.18 2.07-3.88 2.354-6S48.654 119 49.132 119s.868-.675.868-1.5.391-1.5.87-1.5c.478 0 1.104-2.081 1.391-4.624s.999-4.919 1.583-5.28 1.366-2.555 1.737-4.876S56.591 97 57 97s1.026-1.762 1.371-3.916c.344-2.154 1.012-4.067 1.484-4.25.472-.184 1.133-2.134 1.469-4.334s.363-3.437.06-2.75c-.638 1.447-3.06 1.679-3.551.34-.183-.501-6.319-1.152-13.634-1.448-11.898-.481-13.368-.358-13.927 1.16M89 85c0 .55.401 1 .892 1 .49 0 1.175 1.132 1.522 2.515.741 2.953 3.549 6.485 5.155 6.485 1.548 0 5.431-3.48 5.431-4.867 0-.623.675-1.133 1.5-1.133s1.5-.413 1.5-.918.273-1.63.607-2.5c.39-1.016.062-1.582-.917-1.582-.838 0-1.75.563-2.028 1.25-.403 1-.52 1-.583 0-.043-.687-.941-1.25-1.996-1.25-1.054 0-2.143.563-2.421 1.25-.403 1-.52 1-.583 0C96.984 83.746 89 83.499 89 85"/></svg>