<svg xmlns="http://www.w3.org/2000/svg" width="24" height="24" fill="#000000"><rect width="24" height="24" fill="#000000" rx="4"/><path fill="url(#a)" fill-rule="evenodd" d="M10.478 7.117C3.852 8.569 2.995 17.72 9.232 20.41c5.764 2.488 11.715-3.574 9.117-9.287-.6-1.317-2.189-3.08-2.778-3.08-.3 0-.18.227.313.59a6.606 6.606 0 0 1 .662 10.105c-3.18 3.058-8.339 2.234-10.447-1.669-2.134-3.95.364-8.958 4.814-9.652.456-.071.59-.146.532-.295-.045-.117-.449-.12-.969-.006m.605 1.246c-2.906.574-4.755 2.753-4.755 5.605 0 5.059 6.08 7.572 9.637 3.983 3.057-3.085 1.652-8.318-2.54-9.456-.444-.121-1.965-.207-2.342-.132m2.173.468c3.236.84 4.918 4.437 3.471 7.426a5.37 5.37 0 0 1-4.222 2.982l-.355.039.017-.355.017-.354.281-.047c2.745-.458 2.761-4.563.021-5.129l-.33-.068v-.88h1.46c1.53 0 1.655-.02 1.566-.253-.029-.075-.428-.086-3.224-.086s-3.196.01-3.224.086c-.09.233.035.253 1.566.253h1.46v.89l-.268.039c-.808.117-1.932 1.057-1.932 1.615 0 .312.224.273.4-.071.313-.614.877-1.016 1.673-1.193l.127-.028v4.508l-.211-.035c-.592-.099-1.294-.619-1.57-1.162-.163-.323-.419-.403-.419-.132 0 .583 1.004 1.467 1.86 1.637l.312.062.017.355.017.356-.327-.04c-4.137-.493-6.178-5.18-3.69-8.476 1.261-1.672 3.499-2.46 5.507-1.94m-1.461.939c-.02.049-.035.315-.035.591v.502l-1.475.015c-1.58.016-1.81.063-1.49.3.164.122 6.162.122 6.326 0 .32-.237.09-.284-1.49-.3l-1.476-.015v-.502c0-.592-.025-.68-.197-.68-.071 0-.145.04-.163.089m1.236 4.211c1.83.937 1.368 3.85-.664 4.189l-.212.035v-4.509l.297.07c.162.039.423.136.579.215" clip-rule="evenodd"/><path fill="url(#b)" fill-rule="evenodd" d="M18.513 2.123c-.677.355-1.598.546-2.99.619-2.416.125-3.46.815-3.949 2.605q-.434 1.592.436.847c.933-.799 2.273-1.437 3.344-1.592.664-.096.676-.1.676-.25 0-.522-2.267.153-3.675 1.095l-.51.34.04-.183c.364-1.723 1.41-2.407 3.864-2.525 1.235-.06 1.93-.194 2.784-.54.125-.05.112.075-.11 1.06-.733 3.239-2.747 4.573-5.468 3.62-.794-.278-.854-.286-.904-.13-.146.46 2.193.952 3.358.707 1.896-.399 3.166-2.23 3.557-5.127.093-.696.014-.792-.453-.546m-9.62 3.11c-.124.03-.433.04-.685.022-.57-.04-.592-.006-.363.54.464 1.104 1.263 1.543 2.176 1.196.513-.195.383-.523-.134-.338s-.916.09-1.272-.305c-.164-.181-.427-.608-.427-.692 0-.013.222-.04.493-.06.272-.021.601-.053.732-.07.264-.037.711.136.773.298.026.067.01.078-.065.046-.24-.1-1.284-.101-1.368 0-.143.172-.005.286.32.265.315-.02.87.065 1.278.197.484.156.55-.105.173-.677-.275-.415-.949-.59-1.631-.422" clip-rule="evenodd"/><defs><linearGradient id="a" x1="11.988" x2="11.988" y1="7.033" y2="20.985" gradientUnits="userSpaceOnUse"><stop stop-color="#BFBFBF"/><stop offset="1" stop-color="#8C8C8C"/></linearGradient><linearGradient id="b" x1="11.574" x2="13.355" y1="3.552" y2="7.861" gradientUnits="userSpaceOnUse"><stop stop-color="#ADADAD"/><stop offset="1" stop-color="#696969"/></linearGradient></defs></svg>