<svg xmlns="http://www.w3.org/2000/svg" width="200" height="200" fill="#000000"><path fill-opacity=".078" fill-rule="evenodd" d="M84.028 1.141C33.868 9.453-2.001 53.741.316 104.5c1.207 26.435 10.959 48.095 30.165 67 33.438 32.914 85.139 37.847 124.771 11.907 10.063-6.587 24.133-21.163 30.136-31.22 5.961-9.988 11.108-23.3 12.636-32.687.626-3.85 1.552-7.781 2.058-8.736 1.28-2.422 1.205-23.059-.082-22.264-.578.357-1-.594-1-2.253 0-8.837-7.798-29.589-15.593-41.499-6.589-10.066-21.162-24.133-31.227-30.14C131.934 2.523 106.278-2.547 84.028 1.141M103.67 48.75C99.098 56.031 99 56.514 99 71.812c0 10.743.351 15.23 1.25 15.965 1.776 1.452 25.798 12.509 26.232 12.074.198-.198-4.779-8.799-11.061-19.112C109.14 70.425 104 61.531 104 60.974c0-2.137 12.512 1.982 18.595 6.122 5.858 3.986 10.239 9.338 13.802 16.857 2.793 5.894 3.103 7.495 3.103 16.047 0 8.548-.31 10.151-3.09 16-3.534 7.433-7.22 12.126-12.566 15.998l-3.728 2.701 3.576 5.4c4.97 7.507 4.779 7.392 8.485 5.088 8.423-5.237 17.292-17.596 20.943-29.187 2.449-7.773 2.871-20.938.928-29-4.398-18.256-18.519-33.416-36.99-39.713-9.191-3.133-10.598-2.979-13.388 1.463M67 55.404C44.118 72.445 37.86 104.049 52.526 128.5c1.98 3.3 5.259 7.745 7.287 9.878 6.987 7.348 19.656 14.306 29.366 16.128 3.347.628 3.689.416 7.168-4.426l3.653-5.085v-21.677l-10.75-6.313c-5.912-3.472-11.875-7.031-13.25-7.909l-2.5-1.596 1.936 3c1.065 1.65 5.902 8.516 10.75 15.258S95 138.414 95 138.901c0 1.502-8.077-.825-14.209-4.093-18.435-9.826-25.751-33.007-16.581-52.537C66.446 77.51 74.264 68.804 79 65.803l2.5-1.585-4.074-5.8c-2.24-3.19-4.49-5.928-5-6.083S69.475 53.561 67 55.404M.378 100c0 6.325.163 8.912.361 5.75s.198-8.338 0-11.5-.361-.575-.361 5.75"/><path fill-opacity=".345" fill-rule="evenodd" d="M84.46 1.379C31.637 10.041-5.612 59.237.964 111.653c8.743 69.69 83.36 109.002 145.314 76.56 27.404-14.351 47.352-41.691 51.752-70.93.644-4.281 1.576-8.564 2.07-9.519 1.152-2.224 1.184-17.058.036-16.348-.476.294-1.166-2.404-1.534-5.995-.926-9.043-4.943-21.299-10.389-31.699-13.802-26.356-38.4-45.004-67.713-51.333-9.824-2.121-26.427-2.587-36.04-1.01m7.518 43.596C60.808 48.999 38.854 80.116 45.397 111c.873 4.125 2.992 10.357 4.707 13.85 3.939 8.018 13.821 18.557 21.855 23.309 6.453 3.816 17.881 7.5 20.34 6.557.784-.301 8.531-10.598 17.215-22.882s16.283-22.989 16.887-23.79c.667-.884-.279-.631-2.401.642a3717 3717 0 0 1-13.824 8.195l-10.323 6.096-13.427-7.948C79.042 110.657 73 107.201 73 107.347c0 .147 4.93 7.216 10.955 15.71 7.582 10.687 10.504 15.543 9.487 15.769-2.686.596-11.182-2.873-16.682-6.812-12.085-8.654-18.476-24.253-15.826-38.63 2.261-12.269 10.451-23.407 21.121-28.724 2.887-1.439 6.209-4.068 7.431-5.881 2.283-3.388 8.79-14.88 8.294-14.648-.154.072-2.765.452-5.802.844M89.371 71.88c-9.151 15.191-16.808 27.923-17.015 28.293-.315.559 17.461 11.559 25.445 15.746 2.069 1.084 3.715.379 16.289-6.972l13.989-8.178-1.698-2.591c-.934-1.425-6.174-10.036-11.646-19.135a27209 27209 0 0 0-10.494-17.445c-1.014-1.672 7.934.426 13.584 3.184 28.32 13.825 28.84 54.41.9 70.178-4.407 2.487-6.654 4.806-11.5 11.87l-6.022 8.779 5.648-.694c7.849-.964 10.75-1.788 17.649-5.018 13.56-6.346 23.806-18.288 29.086-33.897 2.745-8.115 2.604-23.306-.301-32.542-6.148-19.539-23.112-34.684-43.017-38.402l-4.26-.796zM.349 100c0 4.675.173 6.587.383 4.25.211-2.338.211-6.163 0-8.5-.21-2.338-.383-.425-.383 4.25"/><path fill-opacity=".175" fill-rule="evenodd" d="M80.113 2.488c-13.27 2.997-26.705 8.695-36.679 15.557C25.681 30.26 11.122 50.6 4.302 72.718 1.772 80.923 1.594 82.716 1.594 100c0 17.379.167 19.045 2.769 27.5 5.017 16.309 12.159 28.716 23.373 40.603 12.025 12.747 27.381 22.168 44.982 27.595 8.205 2.53 9.998 2.708 27.282 2.708 17.379 0 19.045-.167 27.5-2.769 16.309-5.017 28.716-12.159 40.603-23.373 12.747-12.025 22.168-27.381 27.595-44.982 2.53-8.205 2.708-9.998 2.708-27.282 0-17.379-.167-19.045-2.769-27.5-5.017-16.309-12.159-28.716-23.373-40.603-12.081-12.807-27.589-22.298-44.982-27.528-7.569-2.277-10.991-2.689-24.782-2.983-11.413-.243-17.831.073-22.387 1.102m6.159 42.949c-17.34 4.202-32.478 17.941-39.165 35.548-2.143 5.642-2.479 8.189-2.509 19.015-.03 10.802.285 13.315 2.316 18.5 7.218 18.429 22 31.704 39.973 35.897l6.034 1.407 16.79-23.556c9.234-12.956 17.192-24.239 17.685-25.074.975-1.652 1.356-1.859-15.988 8.689-5.551 3.375-10.637 6.137-11.303 6.137s-6.889-3.373-13.828-7.497c-6.94-4.123-12.806-7.307-13.037-7.076s4.586 7.469 10.704 16.084c10.977 15.455 11.082 15.654 7.841 14.985-11.077-2.287-21.831-10.784-27.044-21.367-3.033-6.16-3.241-7.257-3.241-17.121 0-9.896.201-10.948 3.291-17.231 3.763-7.648 12.071-15.795 18.683-18.32 3.562-1.361 4.843-2.804 9.775-11.011L98.924 44l-3.712.085c-2.042.047-6.065.655-8.94 1.352M89 71.611c-9.075 15.158-16.604 28.084-16.732 28.724-.276 1.386 26.237 16.937 28.098 16.481 2.239-.55 27.589-15.283 27.612-16.048.012-.402-4.975-8.924-11.082-18.938s-11.329-18.795-11.605-19.514c-.766-1.995 5.091-.67 12.394 2.803 7.286 3.466 13.926 10.353 18.02 18.689 2.526 5.144 2.793 6.702 2.779 16.192-.015 9.765-.241 10.961-3.225 17.089-3.593 7.381-10.687 14.688-17.452 17.974-3.304 1.605-5.793 4.2-10.645 11.097-3.483 4.952-6.055 9.28-5.716 9.619 1.513 1.513 15.522-2.016 23.468-5.913 14.577-7.148 25.469-20.348 29.601-35.874 1.871-7.032 1.876-20.933.01-27.947-5.191-19.505-21.065-35.379-40.57-40.57-3-.798-6.13-1.445-6.955-1.438-.892.008-8.192 11.192-18 27.574"/><path fill-opacity=".197" fill-rule="evenodd" d="M85.5 1.653c-9.251 1.485-20.178 5.011-29.044 9.372C31.226 23.437 12.799 45.535 4.36 73.5c-2.483 8.229-2.719 10.457-2.761 26-.055 20.33 1.628 28.192 9.426 44.044 12.412 25.23 34.51 43.657 62.475 52.096 8.229 2.483 10.457 2.719 26 2.761 20.33.055 28.192-1.628 44.044-9.426 25.23-12.412 43.657-34.51 52.096-62.475 2.483-8.229 2.719-10.457 2.761-26 .055-20.33-1.628-28.192-9.426-44.044-12.433-25.271-34.803-43.899-62.475-52.021-7.531-2.211-11.367-2.693-23.5-2.953-7.975-.171-15.85-.094-17.5.171m-.591 11.832C75.096 15.351 64.05 19.336 56.5 23.733c-6.352 3.7-18.5 12.972-18.5 14.12 0 .375 4.917 5.582 10.926 11.573l10.925 10.892-3.82 4.591c-8.044 9.669-12.038 21.316-12.019 35.051.022 15.955 5.185 28.385 16.513 39.761 5.193 5.214 9.212 8.19 14.463 10.706 6.358 3.047 17.69 6.374 18.429 5.41.143-.185 6.052-8.55 13.131-18.589l12.873-18.252 4.35 4.252 4.35 4.252-3.192 2.683c-1.756 1.475-5.202 3.725-7.658 5-3.43 1.779-5.953 4.463-10.874 11.567L99.99 156l4.255-.012c9.274-.026 23.581-5.722 31.589-12.578l4.334-3.71 11.281 11.249 11.281 11.25 5.778-7.35c34.89-44.379 20.309-109.247-30.008-133.5-4.95-2.386-12.6-5.265-17-6.397-10.507-2.705-26.675-3.353-36.591-1.467M68.683 76.75c-4.541 6.577-6.984 13.393-7.466 20.829-1.029 15.895 7.074 30.053 21.283 37.188 3.952 1.985 11.5 4.416 11.5 3.705 0-.202-4.996-7.395-11.103-15.983s-10.934-15.786-10.726-15.993 6.553 3.239 14.101 7.659l13.724 8.036 6.502-3.803c3.576-2.092 6.502-4.174 6.502-4.627 0-2.165-3.44-1.662-8.056 1.179l-5.099 3.137-13.946-8.171c-7.67-4.495-14.129-8.469-14.354-8.833s2.072-4.639 5.105-9.5l5.515-8.837-4.795-4.868C74.733 75.191 72.282 73 71.924 73c-.359 0-1.817 1.688-3.241 3.75"/></svg>