<svg xmlns="http://www.w3.org/2000/svg" width="490" height="490" fill="#000000"><path fill="#000000" d="M217.511.912c-60.4 7.6-116.266 36.8-155.466 80.934-74.667 84.133-82.8 206.933-19.734 300.533 36.267 54 94.8 92.133 159.867 104.133 22.4 4.134 63.467 4.134 85.867 0 53.2-9.733 105.2-38.8 140-78.266 29.333-33.2 50.4-76.4 58.666-120 4.267-23.067 4.267-63.6 0-86.534-8.266-44-29.2-86.8-58.666-120.133-34.667-39.2-86.4-68.267-139.067-78-17.333-3.2-55.467-4.667-71.467-2.667Zm68.267 51.467c49.333 8.133 98 40 126.8 83.2 11.733 17.733 14.533 24.4 12.4 29.467-2 5.066-6 7.866-11.2 7.866-5.867 0-9.067-2.8-14.667-12.666-23.333-41.867-67.333-73.734-113.866-82.534-35.867-6.8-71.734-2.266-103.867 13.2-8.4 4-19.2 10.134-24.133 13.6-18.4 12.934-42 38.934-50.267 55.334-4.933 9.866-8.667 13.066-15.067 13.066-4.266 0-5.866-.8-8.666-4.133-1.867-2.267-3.467-5.733-3.467-7.6 0-4.267 10.533-22.4 20.667-35.733 16.4-21.334 43.466-43.734 67.466-55.867 34.934-17.733 77.067-23.867 117.867-17.2Zm-8.533 40c44.666 7.467 82.533 34.133 105.6 74.133 7.333 12.934 7.866 17.067 2.4 22.534-7.334 7.333-15.334 4.533-21.6-7.334-17.867-33.6-48.267-56.4-86.8-64.933-10.134-2.267-15.334-2.667-29.067-2.133-17.733.666-25.467 2.4-42.8 9.066-26 10-52 33.734-64.933 59.467-5.334 10.4-13.467 12.8-20.4 5.867-4.934-5.067-4.934-8.8.266-19.2 19.867-39.467 62.134-70 107.467-77.6 14.533-2.4 35.067-2.4 49.867.133Zm-5.467 53.067c31.867 5.733 59.333 26.266 73.867 55.066 4.933 10 8.666 24.667 9.733 38.134l.8 11.866-5.2-2.266c-15.333-6.4-34.4-21.467-40.267-31.734-10.933-19.333-26.933-29.333-49.733-31.2-24-1.866-48 12.534-59.067 35.6-3.866 8.267-4.133 9.467-4.133 24.8 0 15.6.133 16.267 4.667 25.2 18.666 36.934 65.866 46.8 94.533 20 3.467-3.2 8.933-6.933 12.267-8.4 8-3.333 25.466-7.866 35.066-9.066 7.734-.934 7.734-.8 6.934 2.266-.534 1.734-3.734 8.934-7.2 15.867-5.067 10.4-8.134 14.667-17.6 24.133-22.267 22.267-47.6 32.134-78 30.134-37.467-2.534-68-22.934-84.134-56.267-8.266-16.933-10.4-26.267-10.4-44.667 0-18.266 2.267-27.6 10.534-44.666 9.866-20.134 25.2-35.467 45.6-45.467 20.266-10 40.666-13.067 61.733-9.333Zm164.4 42.133c9.2 7.333 3.333 21.333-9.067 21.333-4.8 0-10-5.2-10.933-10.933-.667-4.267-.133-5.467 3.333-9.067 4.934-4.8 11.467-5.333 16.667-1.333ZM79.911 208.512c5.334 3.2 7.2 8.267 5.2 14.4-3.6 10.934-18.666 10.534-22.8-.533-1.733-4.533.934-11.733 5.2-14.133 4.8-2.534 7.734-2.534 12.4.266Zm196.8 2.534c24.267 11.733 30.134 44.133 11.334 63.6-8.4 8.8-16.534 12.133-28.934 12.133-8.933 0-11.733-.533-17.466-3.6-8.667-4.4-14.4-10.133-18.8-18.8-4.934-9.333-5.2-25.2-.534-34.133 10.8-20.934 34-29.2 54.4-19.2Zm-153.2 2.533c6.8 7.867 1.467 19.333-9.066 19.333-11.467 0-16.134-12-8-20.266 3.6-3.467 4.8-4 9.066-3.334 2.934.534 6.134 2.267 8 4.267Zm-2.666 38.133c4.933 1.734 7.466 5.334 8.8 12.534 6.266 33.066 26.666 63.6 55.733 82.8 11.867 7.866 12.933 9.2 13.067 15.6 0 3.733-.934 5.866-3.467 8.266-6.667 6.134-13.467 4.134-32-9.6-25.6-19.066-45.2-47.733-54.4-79.6-5.6-18.933-4.267-27.333 4.533-30.533 2.934-1.067 3.2-1.067 7.734.533Zm-35.467 22.4c3.733 1.334 5.067 4 9.733 18.534 5.2 16.4 10.534 27.466 20.267 42.133 16.133 24.133 37.867 43.2 64.4 56 6.933 3.467 14.8 7.2 17.333 8.533 8.8 4.4 8.4 16.4-.8 20.534-4.533 2.133-12.533-.134-27.6-7.6-37.866-18.934-67.6-48.8-86.8-86.934-7.333-14.666-14.666-38.533-13.333-43.733 1.733-6.8 9.467-10.267 16.8-7.467Zm145.2 89.467c2.933 1.6 6.533 8 6.533 11.867 0 1.466-1.6 4.4-3.466 6.666-5.867 7.067-17.334 5.067-20.134-3.466-3.6-10.4 7.467-20.134 17.067-15.067Zm13.467 49.333c3.6 3.6 4 4.8 3.333 9.734-.933 6.933-4.8 10.266-11.6 10.266s-10.667-3.333-11.6-10.266c-.667-4.934-.267-6.134 3.333-9.734 2.8-2.8 5.334-4 8.267-4s5.467 1.2 8.267 4Z"/></svg>