<svg xmlns="http://www.w3.org/2000/svg" width="64" height="64" fill="#000000"><path fill="#000000" d="M32 64c17.673 0 32-14.327 32-32C64 14.327 49.673 0 32 0 14.327 0 0 14.327 0 32c0 17.673 14.327 32 32 32Z"/><path fill="#000000" d="M32.418 50.999c-10.719-.107-19.145-8.227-19.412-18.707-.264-10.385 8.53-19.255 19.129-19.292 8.819-.03 16.023 5.023 18.831 13.244.204.596.486.853 1.122.748.896-.152 1.801-.254 2.696-.418.899-.165 1.186.02 1.204.909.017.866-.015 1.733.01 2.6.017.595-.257.904-.84 1.006-.842.148-1.68.324-2.525.46-.761.124-.948.498-.794 1.595.091.656.569.473.95.421.71-.097 1.414-.23 2.117-.367.734-.143 1.066.076 1.084.803.023.92-.007 1.842.01 2.763.01.559-.254.863-.802.95-1.197.188-2.39.422-3.596.533-.613.056-.901.257-1.128.82C47.56 46.275 40.267 51.08 32.418 51Zm13.35-13.34c-.721-.22-1.312-.438-1.92-.58-2.713-.634-5.426-.53-8.133.062-.895.195-1.177-.021-1.187-.909-.01-.894.022-1.789-.011-2.681-.022-.59.22-.963.798-1.044 1.443-.202 2.908-.585 4.335-.49 2.163.147 4.3.652 6.455.965.267.039.823-.18.82-.269-.015-.51.441-1.263-.35-1.48-1.643-.454-3.308-1.012-4.989-1.103-1.96-.108-3.948.208-5.918.401-.87.085-1.121-.044-1.14-.897-.01-.488-.003-.976-.003-1.464 0-2.318-.002-2.33 2.346-2.673 2.581-.378 5.125-.1 7.65.47.275.062.58.005.87.004-.075-.296-.087-.628-.236-.883-2.136-3.641-5.27-6.028-9.454-6.966C25.337 15.797 15.76 24.79 18.32 35.276c2.25 9.214 12.436 13.622 21.003 9.237 2.907-1.488 5.014-3.76 6.445-6.853Z"/></svg>