<svg xmlns="http://www.w3.org/2000/svg" width="64" height="64" fill="#000000"><path fill-opacity=".059" fill-rule="evenodd" d="M18.5 2.882C6.619 8.586.026 18.969.011 32c-.008 6.22.482 8.524 2.871 13.5C8.589 57.388 18.977 63.98 32 63.98c13.359 0 23.259-6.486 29.602-19.395C64.549 38.586 65 36.675 65 30.168c0-4.126-.286-7.216-.635-6.866-.349.349-1.871-1.939-3.381-5.084C55.415 6.624 44.912.026 32 .011c-6.22-.008-8.524.482-13.5 2.871m.372 11.868c-1.243 1.586-1.208 1.621.378.378C20.916 13.821 21.445 13 20.622 13c-.207 0-.995.787-1.75 1.75m-.926 4L14.5 22.5l3.75-3.446C21.74 15.846 22.46 15 21.696 15c-.167 0-1.854 1.688-3.75 3.75m17.867-3.067c.721.289 1.584.253 1.916-.079s-.258-.568-1.312-.525c-1.165.048-1.402.285-.604.604M45 18.5c1.866 1.925 3.617 3.5 3.892 3.5S47.866 20.425 46 18.5 42.383 15 42.108 15s1.026 1.575 2.892 3.5m-25.563 1.75L16.5 23.5l3.25-2.937c1.788-1.615 3.25-3.078 3.25-3.25 0-.773-.825-.092-3.563 2.937m6.063-2.345c-3.842 1.704-7.561 6.66-8.02 10.689-.387 3.396-.34 3.514.364.906 2.045-7.584 6.787-11.49 13.956-11.496 7.151-.006 11.247 2.871 13.86 9.737l1.432 3.759-.568-3.5c-.346-2.128-1.911-4.845-3.995-6.933-2.998-3.002-4.154-3.471-9.228-3.74-3.191-.17-6.701.091-7.801.578m15.5-.592c0 .172 1.462 1.635 3.25 3.25L47.5 23.5l-2.937-3.25C41.825 17.221 41 16.54 41 17.313m7 1.065c0 .207.788.995 1.75 1.75 1.586 1.243 1.621 1.208.378-.378C48.821 18.084 48 17.555 48 18.378m-25.118 4.504C19.43 26.335 19 27.307 19 31.66c0 5.121 2.311 9.884 4.223 8.702.624-.385.8-.209.415.415C22.456 42.689 27.219 45 32.34 45c4.353 0 5.325-.43 8.778-3.882C44.639 37.597 45 36.748 45 32s-.361-5.597-3.882-9.118S36.748 19 32 19s-5.597.361-9.118 3.882M.349 32c0 4.675.173 6.587.383 4.25.211-2.338.211-6.163 0-8.5-.21-2.338-.383-.425-.383 4.25m14.73-4.417c.048 1.165.285 1.402.604.605.289-.722.253-1.585-.079-1.917s-.568.258-.525 1.312M17.476 36c.349 2.147 1.92 4.853 4.063 7 3.325 3.331 3.831 3.5 10.461 3.5s7.136-.169 10.461-3.5c2.143-2.147 3.714-4.853 4.063-7l.568-3.5-1.432 3.759C43.07 43.063 38.951 46 32 46s-11.07-2.937-13.66-9.741L16.908 32.5zm30.603.583c.048 1.165.285 1.402.604.605.289-.722.253-1.585-.079-1.917s-.568.258-.525 1.312M17 41.313c0 .172 1.462 1.635 3.25 3.25L23.5 47.5l-2.937-3.25C17.825 41.221 17 40.54 17 41.313m26.437 2.937L40.5 47.5l3.25-2.937c1.788-1.615 3.25-3.078 3.25-3.25 0-.773-.825-.092-3.563 2.937M18 45.5c1.866 1.925 3.617 3.5 3.892 3.5S20.866 47.425 19 45.5 15.383 42 15.108 42s1.026 1.575 2.892 3.5m26.946.25L41.5 49.5l3.75-3.446c2.063-1.896 3.75-3.583 3.75-3.75 0-.764-.846-.044-4.054 3.446M13 43.378c0 .207.787.995 1.75 1.75 1.586 1.243 1.621 1.208.378-.378C13.821 43.084 13 42.555 13 43.378m13.813 5.305c.721.289 1.584.253 1.916-.079s-.258-.568-1.312-.525c-1.165.048-1.402.285-.604.604m17.059 1.067c-1.243 1.586-1.208 1.621.378.378.962-.755 1.75-1.543 1.75-1.75 0-.823-.821-.294-2.128 1.372"/><path fill-opacity=".117" fill-rule="evenodd" d="M20.035 2.202C12.556 5.073 4.99 12.739 2.154 20.319-5.799 41.575 9.523 64 32 64c12.214 0 23.582-7.087 28.531-17.786 1.453-3.143 3.054-6.495 3.556-7.45 1.116-2.124 1.227-15.076.123-14.394-.435.269-1.605-1.804-2.6-4.605-2.506-7.057-10.373-14.784-17.929-17.611-7.451-2.788-16.305-2.77-23.646.048m4.778.481c.721.289 1.584.253 1.916-.079s-.258-.568-1.312-.525c-1.165.048-1.402.285-.604.604m13 0c.721.289 1.584.253 1.916-.079s-.258-.568-1.312-.525c-1.165.048-1.402.285-.604.604m-12 2c.721.289 1.584.253 1.916-.079s-.258-.568-1.312-.525c-1.165.048-1.402.285-.604.604m11 0c.721.289 1.584.253 1.916-.079s-.258-.568-1.312-.525c-1.165.048-1.402.285-.604.604M12.389 8.475c-1.712 1.349-3.874 3.707-4.806 5.239L5.889 16.5l2.437-2.868c1.341-1.578 3.728-3.924 5.306-5.214 3.818-3.123 2.727-3.073-1.243.057m6.118-1.486c-.35.566.051.734.941.393C21.18 6.717 21.497 6 20.059 6c-.518 0-1.216.445-1.552.989m10.243-.266c1.788.222 4.712.222 6.5 0 1.788-.221.325-.403-3.25-.403s-5.038.182-3.25.403M43 6.393c0 .216.698.661 1.552.989.89.341 1.291.173.941-.393C44.906 6.038 43 5.583 43 6.393m7.368 1.906c1.578 1.356 3.977 3.755 5.333 5.333l2.464 2.868-2.122-3.21c-1.167-1.766-3.567-4.166-5.333-5.333L47.5 5.835zm-31.142.705c-3.995 2.436-4.909 2.53-3.098.321 1.182-1.442.987-1.424-1.404.132-1.527.994-3.759 3.21-4.961 4.925-1.529 2.182-1.671 2.706-.474 1.746 2.243-1.799 2.161-.915-.285 3.098C7.906 21.027 7.016 23.175 7.026 24s.854-.3 1.877-2.5C11.159 16.645 17.248 10.643 22 8.59c1.925-.831 2.825-1.528 2-1.547-.825-.02-2.973.863-4.774 1.961M42 8.59c4.752 2.053 10.841 8.055 13.097 12.91 1.023 2.2 1.867 3.325 1.877 2.5s-.88-2.973-1.978-4.774c-2.446-4.013-2.528-4.897-.285-3.098 1.197.96 1.055.436-.474-1.746-1.202-1.715-3.434-3.931-4.961-4.925-2.391-1.556-2.586-1.574-1.404-.132 1.811 2.209.897 2.115-3.098-.321C42.973 7.906 40.825 7.023 40 7.043c-.825.019.075.716 2 1.547m-20.842 1.978C12.115 15.142 7.441 23.601 8.196 34.029c.555 7.68 4.621 14.345 11.252 18.445C23.781 55.152 25.223 55.5 32 55.5s8.219-.348 12.552-3.026c3.034-1.876 6.046-4.888 7.922-7.922C55.152 40.219 55.5 38.777 55.5 32s-.348-8.219-3.026-12.552c-6.581-10.643-20.196-14.504-31.316-8.88m1.342.332C7.659 17.786 4.334 37.51 16.128 48.699 30.825 62.643 54.956 52.265 54.956 32c0-9.368-5.628-17.885-14.174-21.449-5.016-2.092-13.364-1.933-18.282.349m-.485 1.806c-15.082 7.927-15.994 28.848-1.643 37.72 14.33 8.86 32.229-.383 33.408-17.253.833-11.911-8.309-22.093-20.607-22.953-4.779-.334-6.537.058-11.158 2.486m-10.035-.182c-1.932 2.329-.554 2.767 1.514.482.999-1.103 1.351-2.006.783-2.006-.567 0-1.601.686-2.297 1.524m17.77-.818c1.238.238 3.263.238 4.5 0 1.237-.239.225-.434-2.25-.434s-3.488.195-2.25.434m20.756 1.3c.998 1.104 2.032 1.789 2.297 1.524.672-.672-1.822-3.53-3.08-3.53-.568 0-.216.903.783 2.006m-28.006.158c-5.311 2.931-11.195 10.564-10.14 13.154.279.684.515.508.561-.418.149-3.019 5.865-9.585 10.221-11.741 2.397-1.187 3.683-2.144 2.858-2.128s-2.4.526-3.5 1.133m18.358.995C45.219 16.318 51 22.962 51 25.817c0 .834.266 1.25.591.925 2.686-2.685-8.597-14.744-13.791-14.741-.715 0 .661.971 3.058 2.158m-18.351 1.83c-.35.566.051.734.941.393 1.732-.665 2.049-1.382.611-1.382-.518 0-1.216.445-1.552.989M39 15.393c0 .216.698.661 1.552.989.89.341 1.291.173.941-.393-.587-.951-2.493-1.406-2.493-.596M18.405 19.25 16.5 21.5l2.25-1.905c1.238-1.048 2.25-2.06 2.25-2.25 0-.8-.805-.209-2.595 1.905M44.5 19c.995 1.1 2.035 2 2.31 2s-.315-.9-1.31-2-2.035-2-2.31-2 .315.9 1.31 2m-38.041.067c-.363.586-.445 1.281-.183 1.543s.743-.218 1.069-1.067c.676-1.762.1-2.072-.886-.476m50.105.226c.376.986.935 1.541 1.243 1.233s.001-1.114-.683-1.793c-.988-.98-1.102-.865-.56.56m-41.105 3.774c-.363.586-.445 1.281-.183 1.543s.743-.218 1.069-1.067c.676-1.762.1-2.072-.886-.476m32.105.226c.376.986.935 1.541 1.243 1.233s.001-1.114-.683-1.793c-.988-.98-1.102-.865-.56.56m-45.485 2.29c.048 1.165.285 1.402.604.605.289-.722.253-1.585-.079-1.917s-.568.258-.525 1.312m59 0c.048 1.165.285 1.402.604.605.289-.722.253-1.585-.079-1.917s-.568.258-.525 1.312M.23 32c0 5.897.155 6.699.728 3.75.4-2.062.4-5.438 0-7.5C.385 25.301.23 26.103.23 32m3.849-5.417c.048 1.165.285 1.402.604.605.289-.722.253-1.585-.079-1.917s-.568.258-.525 1.312m55 0c.048 1.165.285 1.402.604.605.289-.722.253-1.585-.079-1.917s-.568.258-.525 1.312M6.32 32c0 3.575.182 5.038.403 3.25s.222-4.712 0-6.5c-.221-1.788-.403-.325-.403 3.25m51 0c0 3.575.182 5.038.403 3.25s.222-4.712 0-6.5c-.221-1.788-.403-.325-.403 3.25m-46.048 0c0 2.475.195 3.487.434 2.25.238-1.237.238-3.262 0-4.5-.239-1.238-.434-.225-.434 2.25m41 0c0 2.475.195 3.487.434 2.25.238-1.237.238-3.262 0-4.5-.239-1.238-.434-.225-.434 2.25M4.079 37.583c.048 1.165.285 1.402.604.605.289-.722.253-1.585-.079-1.917s-.568.258-.525 1.312m55 0c.048 1.165.285 1.402.604.605.289-.722.253-1.585-.079-1.917s-.568.258-.525 1.312m-57 1c.048 1.165.285 1.402.604.605.289-.722.253-1.585-.079-1.917s-.568.258-.525 1.312m9.922-.783c-.003 5.194 12.056 16.477 14.741 13.791.325-.325-.091-.591-.925-.591-2.855 0-9.499-5.781-11.658-10.142-1.187-2.397-2.158-3.773-2.158-3.058M51 38.183c0 2.855-5.781 9.499-10.142 11.658-2.397 1.187-3.773 2.158-3.058 2.158 5.194.003 16.477-12.056 13.791-14.741-.325-.325-.591.091-.591.925m10.079.4c.048 1.165.285 1.402.604.605.289-.722.253-1.585-.079-1.917s-.568.258-.525 1.312M7.043 40c-.02.825.863 2.973 1.961 4.774 2.436 3.995 2.53 4.909.321 3.098-1.442-1.182-1.424-.987.132 1.404.994 1.527 3.21 3.759 4.925 4.961 2.182 1.529 2.706 1.671 1.746.474-1.799-2.243-.915-2.161 3.098.285 1.801 1.098 3.949 1.988 4.774 1.978s-.3-.854-2.5-1.877C16.645 52.841 10.643 46.752 8.59 42c-.831-1.925-1.528-2.825-1.547-2M15 39.941c0 .518.445 1.216.989 1.552.566.35.734-.051.393-.941C15.717 38.82 15 38.503 15 39.941m32.564.766c-.542 1.425-.428 1.54.56.56.684-.679.991-1.486.683-1.793-.308-.308-.867.247-1.243 1.233m8.071.61C54.66 45.203 47.31 52.932 42.5 55.129c-2.2 1.005-3.325 1.835-2.5 1.845s2.973-.88 4.774-1.978c4.013-2.446 4.897-2.528 3.098-.285-.96 1.197-.436 1.055 1.746-.474 1.715-1.202 3.931-3.434 4.925-4.961 1.556-2.391 1.574-2.586.132-1.404-2.217 1.817-2.112.984.414-3.298 1.149-1.947 1.9-4.107 1.669-4.8s-.736.002-1.123 1.543M6 43.941c0 .518.445 1.216.989 1.552.566.35.734-.051.393-.941C6.717 42.82 6 42.503 6 43.941M18.5 45c.995 1.1 2.035 2 2.31 2s-.315-.9-1.31-2-2.035-2-2.31-2 .315.9 1.31 2m25.905.25L42.5 47.5l2.25-1.905C46.864 43.805 47.455 43 46.655 43c-.19 0-1.202 1.013-2.25 2.25m12.159-.543c-.542 1.425-.428 1.54.56.56.684-.679.991-1.486.683-1.793-.308-.308-.867.247-1.243 1.233m-33.831 3.417c.679.684 1.486.991 1.793.683.308-.308-.247-.867-1.233-1.243-1.425-.542-1.54-.428-.56.56M40 48c-.901.582-1.025.975-.309.985.655.008 1.469-.435 1.809-.985.767-1.242.421-1.242-1.5 0M7.957 50.71c1.167 1.766 3.567 4.166 5.333 5.333l3.21 2.122-2.868-2.464c-1.578-1.356-3.977-3.755-5.333-5.333L5.835 47.5zM52.5 53.294c-3.683 3.805-4.155 4.568-1.79 2.896 2.597-1.836 8.311-8.368 7.108-8.126-.175.035-2.568 2.389-5.318 5.23M11 49.723c0 1.258 2.858 3.752 3.53 3.08.265-.265-.42-1.299-1.524-2.297-1.103-.999-2.006-1.351-2.006-.783m39.506 1.271C49.507 52.097 49.155 53 49.723 53c1.258 0 3.752-2.858 3.08-3.53-.265-.265-1.299.42-2.297 1.524M29.75 52.706c1.238.238 3.263.238 4.5 0 1.237-.239.225-.434-2.25-.434s-3.488.195-2.25.434m-11.017 4.418c.679.684 1.486.991 1.793.683.308-.308-.247-.867-1.233-1.243-1.425-.542-1.54-.428-.56.56M44 57c-.901.582-1.025.975-.309.985.655.008 1.469-.435 1.809-.985.767-1.242.421-1.242-1.5 0m-15.25.723c1.788.222 4.712.222 6.5 0 1.788-.221.325-.403-3.25-.403s-5.038.182-3.25.403m-2.937 1.96c.721.289 1.584.253 1.916-.079s-.258-.568-1.312-.525c-1.165.048-1.402.285-.604.604m11 0c.721.289 1.584.253 1.916-.079s-.258-.568-1.312-.525c-1.165.048-1.402.285-.604.604m-12 2c.721.289 1.584.253 1.916-.079s-.258-.568-1.312-.525c-1.165.048-1.402.285-.604.604m13 0c.721.289 1.584.253 1.916-.079s-.258-.568-1.312-.525c-1.165.048-1.402.285-.604.604m-6 1c.721.289 1.584.253 1.916-.079s-.258-.568-1.312-.525c-1.165.048-1.402.285-.604.604"/><path fill-opacity=".122" fill-rule="evenodd" d="M22.005 1.668C-.571 9.567-7.261 37.787 9.476 54.524 26.013 71.061 54.657 64.511 62.063 42.5c.74-2.2 1.703-4.428 2.141-4.95.966-1.153 1.079-13.167.115-12.203-.374.375-1.328-1.235-2.12-3.578C56.644 5.335 38.071-3.953 22.005 1.668m1.946.635c-5.911 1.671-11.028 4.882-15.013 9.42C5.197 15.984 2.06 22.446 2.007 26c-.03 1.984-.238 2.191-1.007 1-.68-1.053-.969.439-.969 5S.32 38.053 1 37c.765-1.184.973-.962.985 1.054.043 7.178 8.901 18.198 17.893 22.259 7.162 3.236 17.966 2.977 25.288-.606C56.327 54.247 62.401 44.482 62.401 32c0-8.792-2.164-14.518-7.878-20.843C47.34 3.206 34.207-.597 23.951 2.303m1.783.738C2.868 8.716-5.222 36.62 11.308 52.801c11.824 11.574 30.104 11.526 41.493-.109C70.306 34.809 59.478 5.181 34.5 2.619c-2.75-.282-6.694-.093-8.766.422m-1.062 1.343C10.283 8.396 1.033 23.208 3.998 37.49 7.176 52.8 22.516 63.111 37.49 60.002c15.251-3.166 25.62-18.522 22.536-33.377C56.651 10.367 40.241.044 24.672 4.384m1.597 1.309c.973.254 2.323.237 3-.037s-.119-.481-1.769-.461-2.204.244-1.231.498m10.997.395C45.761 8.09 51.881 12.837 55.843 20.5c1.138 2.2 2.088 3.645 2.113 3.21.102-1.831-4.026-8.445-7.118-11.403C46.939 8.576 39.574 5.01 36 5.122c-1.854.059-1.527.308 1.266.966M19.5 7.657C12.241 11.471 4.888 21.867 5.11 28c.068 1.872.314 1.555.978-1.266C8.09 18.239 12.837 12.119 20.5 8.157c2.2-1.138 3.55-2.07 3-2.073-.55-.002-2.35.706-4 1.573m8.313.026c.721.289 1.584.253 1.916-.079s-.258-.568-1.312-.525c-1.165.048-1.402.285-.604.604m7 0c.721.289 1.584.253 1.916-.079s-.258-.568-1.312-.525c-1.165.048-1.402.285-.604.604m-19.316 5.454c-1.966 1.726-4.043 4.088-4.616 5.25-.574 1.162.126.683 1.555-1.066 1.428-1.748 3.827-4.096 5.331-5.218 1.503-1.122 2.411-2.054 2.018-2.071s-2.323 1.38-4.288 3.105m30.736-1.034c1.504 1.122 3.903 3.47 5.331 5.218 1.429 1.749 2.129 2.228 1.555 1.066-1.1-2.229-7.686-8.409-8.904-8.355-.393.017.515.949 2.018 2.071M15.405 16.25 13.5 18.5l2.25-1.905c1.238-1.048 2.25-2.06 2.25-2.25 0-.8-.805-.209-2.595 1.905M47.5 16c.995 1.1 2.035 2 2.31 2s-.315-.9-1.31-2-2.035-2-2.31-2 .315.9 1.31 2m10.695 11.5c.02 1.65.244 2.204.498 1.231s.237-2.323-.037-3-.481.119-.461 1.769M7.079 28.583c.048 1.165.285 1.402.604.605.289-.722.253-1.585-.079-1.917s-.568.258-.525 1.312m49 0c.048 1.165.285 1.402.604.605.289-.722.253-1.585-.079-1.917s-.568.258-.525 1.312M5.195 36.5c.02 1.65.244 2.204.498 1.231s.237-2.323-.037-3-.481.119-.461 1.769m1.884-.917c.048 1.165.285 1.402.604.605.289-.722.253-1.585-.079-1.917s-.568.258-.525 1.312M56.158 36c0 1.375.227 1.938.504 1.25.278-.687.278-1.812 0-2.5-.277-.687-.504-.125-.504 1.25m1.948 0c-.189 3.759-4.476 12.154-7.73 15.137-1.582 1.451-4.676 3.569-6.876 4.706s-3.645 2.088-3.21 2.113c2.056.115 8.707-4.211 11.887-7.73 3.913-4.332 7.275-11.983 6.533-14.867-.36-1.399-.509-1.241-.604.641M6.044 40.29c-.103 1.851 4.036 8.45 7.118 11.348 3.386 3.183 9.678 6.855 10.441 6.092.23-.229-1.348-1.213-3.506-2.186-4.693-2.117-9.121-6.582-11.942-12.044-1.137-2.2-2.086-3.645-2.111-3.21m3.988 3.925c-.054 1.218 6.126 7.804 8.355 8.904 1.162.574.683-.126-1.066-1.555-1.748-1.428-4.096-3.827-5.218-5.331-1.122-1.503-2.054-2.411-2.071-2.018m38.761 4.888C46.204 51.796 44.276 54 44.508 54c.91 0 7.624-6.379 8.565-8.137 1.37-2.559 1.088-2.346-4.28 3.24M15.5 48c.995 1.1 2.035 2 2.31 2s-.315-.9-1.31-2-2.035-2-2.31-2 .315.9 1.31 2m31.905.25L45.5 50.5l2.25-1.905C49.864 46.805 50.455 46 49.655 46c-.19 0-1.202 1.013-2.25 2.25M26.75 56.662c.688.278 1.813.278 2.5 0 .688-.277.125-.504-1.25-.504s-1.937.227-1.25.504m8.063.021c.721.289 1.584.253 1.916-.079s-.258-.568-1.312-.525c-1.165.048-1.402.285-.604.604m-8.544 2.01c.973.254 2.323.237 3-.037s-.119-.481-1.769-.461-2.204.244-1.231.498m9 0c.973.254 2.323.237 3-.037s-.119-.481-1.769-.461-2.204.244-1.231.498"/><path fill-opacity=".215" fill-rule="evenodd" d="M29.75.706c1.238.238 3.263.238 4.5 0 1.237-.239.225-.434-2.25-.434s-3.488.195-2.25.434m-5.937.977c.721.289 1.584.253 1.916-.079s-.258-.568-1.312-.525c-1.165.048-1.402.285-.604.604m15 0c.721.289 1.584.253 1.916-.079s-.258-.568-1.312-.525c-1.165.048-1.402.285-.604.604M17.5 3.653C13.074 5.975 6.118 12.951 3.848 17.347c-1.093 2.116-1.802 4.033-1.574 4.26s1.205-1.343 2.174-3.491C6.577 13.394 13.049 6.963 18.5 4.151c2.2-1.134 3.55-2.064 3-2.067-.55-.002-2.35.704-4 1.569m28 .498c5.451 2.812 11.923 9.243 14.052 13.965.969 2.148 1.947 3.718 2.174 3.491.942-.941-3.862-8.395-7.893-12.248-4.02-3.842-9.659-7.418-11.533-7.315-.44.025 1 .973 3.2 2.107M10.946 11.75 7.5 15.5l3.75-3.446C14.74 8.846 15.46 8 14.696 8c-.167 0-1.854 1.688-3.75 3.75M52 11.5c1.866 1.925 3.617 3.5 3.892 3.5S54.866 13.425 53 11.5 49.383 8 49.108 8 50.134 9.575 52 11.5m-39.563 1.75L9.5 16.5l3.25-2.937c1.788-1.615 3.25-3.078 3.25-3.25 0-.773-.825-.092-3.563 2.937M48 10.313c0 .172 1.462 1.635 3.25 3.25L54.5 16.5l-2.937-3.25C48.825 10.221 48 9.54 48 10.313M1.079 24.583c.048 1.165.285 1.402.604.605.289-.722.253-1.585-.079-1.917s-.568.258-.525 1.312m61 0c.048 1.165.285 1.402.604.605.289-.722.253-1.585-.079-1.917s-.568.258-.525 1.312M.272 32c0 2.475.195 3.487.434 2.25.238-1.237.238-3.262 0-4.5C.467 28.512.272 29.525.272 32m63 0c0 2.475.195 3.487.434 2.25.238-1.237.238-3.262 0-4.5-.239-1.238-.434-.225-.434 2.25M1.079 39.583c.048 1.165.285 1.402.604.605.289-.722.253-1.585-.079-1.917s-.568.258-.525 1.312m61 0c.048 1.165.285 1.402.604.605.289-.722.253-1.585-.079-1.917s-.568.258-.525 1.312M2.044 42.3c-.103 1.874 3.473 7.513 7.315 11.533 3.853 4.031 11.307 8.835 12.248 7.893.227-.227-1.343-1.205-3.491-2.174C13.394 57.423 6.963 50.951 4.151 45.5c-1.134-2.2-2.082-3.64-2.107-3.2m57.878 2.918C58 49.899 50.712 57.375 45.999 59.501c-2.211.996-3.832 2-3.602 2.229.865.865 7.265-3.102 11.436-7.089 4.074-3.895 8.832-11.31 7.871-12.27-.239-.239-1.041 1.042-1.782 2.847M10 48.313c0 .172 1.462 1.635 3.25 3.25L16.5 54.5l-2.937-3.25C10.825 48.221 10 47.54 10 48.313m40.437 2.937L47.5 54.5l3.25-2.937c1.788-1.615 3.25-3.078 3.25-3.25 0-.773-.825-.092-3.563 2.937M11 52.5c1.866 1.925 3.617 3.5 3.892 3.5S13.866 54.425 12 52.5 8.383 49 8.108 49 9.134 50.575 11 52.5m40.946.25L48.5 56.5l3.75-3.446c2.063-1.896 3.75-3.583 3.75-3.75 0-.764-.846-.044-4.054 3.446m-28.133 9.933c.721.289 1.584.253 1.916-.079s-.258-.568-1.312-.525c-1.165.048-1.402.285-.604.604m15 0c.721.289 1.584.253 1.916-.079s-.258-.568-1.312-.525c-1.165.048-1.402.285-.604.604m-9.063 1.023c1.238.238 3.263.238 4.5 0 1.237-.239.225-.434-2.25-.434s-3.488.195-2.25.434"/></svg>