<svg xmlns="http://www.w3.org/2000/svg" width="200" height="200" fill="#000000"><path fill-opacity=".063" fill-rule="evenodd" d="M93.5 13.548c-2.99 2.467-3.006 2.469-4.66.464-3.362-4.073-8.917-1.694-10.812 4.631-.734 2.45-.868 2.537-.942.607-.047-1.238-.201-2.25-.343-2.25-.141 0-1.753-.429-3.583-.954-3.11-.892-3.581-.687-7.208 3.126-2.953 3.103-4.405 3.943-6.07 3.507-3.353-.877-7.855 1.934-8.534 5.329-.514 2.572-.989 2.907-3.959 2.795-4.046-.152-6.935 2.177-7.749 6.248C39.179 39.355 38.513 40 36.596 40c-4.38 0-6.174 3.103-5.635 9.75.151 1.866-.321 2.25-2.767 2.25-4.436 0-7.003 4.742-5.173 9.554.716 1.885.517 2.458-1.022 2.946-1.051.334-3.001 1.903-4.334 3.486-2.192 2.605-2.321 3.263-1.35 6.9 1.007 3.774.908 4.151-1.621 6.14-3.255 2.56-3.439 5.552-.533 8.646l2.161 2.3-2.661 2.466c-3.355 3.11-3.392 6.54-.113 10.437l2.549 3.028-2.049 2.049c-1.126 1.126-2.048 2.739-2.048 3.583 0 2.25 3.009 6.465 4.615 6.465 1.701 0 1.703-.153-.072 4.878l-1.457 4.13 3.863 3.824c3.208 3.177 3.845 4.469 3.755 7.624-.117 4.123 2.788 7.544 6.407 7.544 1.499 0 1.889.736 1.889 3.566 0 4.848 1.429 7.15 4.916 7.915 1.996.439 3.238 1.521 3.89 3.392 1.436 4.12 3.954 6.127 7.686 6.127 2.871 0 3.439.408 3.977 2.857.746 3.398 4.101 5.444 8.22 5.012 2.392-.251 3.629.424 6.25 3.409 3.379 3.848 6.299 4.627 9.149 2.44.873-.67 1.818-1.893 2.1-2.718.319-.935.773-.338 1.205 1.585.496 2.204 1.692 3.562 4.189 4.753 3.329 1.587 3.595 1.575 5.567-.262 2.279-2.123 4.348-1.79 7.214 1.164 2.721 2.803 9.637.748 9.637-2.862 0-.758.45-1.378 1-1.378s1 .367 1 .815 1.636 1.595 3.634 2.548c3.563 1.699 3.687 1.688 6.25-.555 1.439-1.258 3.204-2.967 3.924-3.798 1.159-1.338 1.42-1.311 2.299.24 2.229 3.932 9.893.008 9.893-5.064 0-2.263 1.418-2.936 2.5-1.186.683 1.105 5.446 1.342 7.918.393.87-.334 1.582-1.647 1.582-2.918 0-4.188.852-5.091 4.415-4.675 5.002.584 7.409-1.135 7.775-5.553.277-3.35.577-3.716 2.833-3.455 3.619.418 8.413-4.731 7.73-8.303-.408-2.133-.02-2.817 2.04-3.601 2.478-.942 4.222-2.643 6.222-6.069.718-1.229.514-2.147-.758-3.419-1.192-1.192-1.364-1.864-.548-2.136.655-.219 2.338-1.3 3.741-2.403 2.091-1.645 2.55-2.857 2.55-6.734 0-2.6-.54-5.267-1.2-5.927-.933-.933-.756-1.2.8-1.2 2.992 0 4.4-1.968 4.4-6.15 0-2.473-.572-4.071-1.681-4.691-1.547-.866-1.552-1.069-.065-2.556 3.633-3.633 3.349-11.367-.516-14.074-1.676-1.174-1.808-1.529-.567-1.529 1.968 0 2.829-2.03 2.829-6.675 0-2.671-.479-3.637-2-4.035-1.714-.449-2-1.364-2-6.407 0-6.48-2.119-9.883-6.155-9.883-2.024 0-2.055-.111-.5-1.829.91-1.006 1.655-2.727 1.655-3.825 0-2.575-4.014-6.346-6.755-6.346-2.403 0-3.8-1.539-2.261-2.49 3.06-1.891-1.492-8.75-6.312-9.51-2.704-.426-3.217-.969-3.48-3.676-.169-1.746-.907-3.673-1.64-4.281-1.402-1.163-6.018-1.686-8.538-.967-1.082.309-1.626-.648-2-3.517-.449-3.444-.925-4.047-3.772-4.781-1.998-.515-4.004-.441-5.185.191-2.732 1.463-3.057 1.323-3.057-1.314 0-4.375-6.542-7.97-9.365-5.147-1.435 1.435-1.796 1.433-4.022-.026-1.345-.881-2.694-2.25-2.998-3.042-.926-2.415-6.227-1.749-8.436 1.06-2.37 3.012-3.179 3.148-3.179.535 0-4.377-6.915-5.271-11.5-1.487m11.5 6.738c0 3.709-7.098 6.216-9.838 3.476-1.769-1.769-4.447-1.55-5.969.488-.774 1.036-2.609 1.744-4.5 1.735-3.603-.018-5.156-.801-5.914-2.985-.323-.932-.876-.182-1.458 1.979-.739 2.742-1.637 3.68-4.234 4.425-2.294.658-3.87.588-5.179-.229C65.28 27.534 65 27.663 65 30.516c0 1.878-.864 2.929-3.409 4.142-1.95.93-4.197 1.323-5.25.919-2.697-1.034-2.795-.957-3.341 2.627-.377 2.477-1.291 3.655-3.724 4.802-1.773.836-4.547 3.607-6.166 6.159-2.198 3.467-3.784 4.828-6.276 5.387-1.834.412-2.771.943-2.084 1.181 3.073 1.066-.584 9.015-4.84 10.52-1.137.401-1.462 1.44-1.139 3.642.718 4.891-.444 7.806-3.407 8.55-1.992.5-2.368.951-1.509 1.81 1.647 1.647 1.432 9.262-.302 10.701-1.257 1.043-1.232 1.65.195 4.641 1.362 2.856 1.438 4.001.446 6.743-1.456 4.027-1.533 6.66-.194 6.66.55 0 1 2.264 1 5.031 0 3.73-.422 5.194-1.631 5.658-1.208.463-.754.91 1.75 1.724 3.273 1.063 3.381 1.265 3.381 6.356 0 4.331.343 5.367 1.944 5.874 4.402 1.393 7.019 7.494 4.356 10.157-.933.933-.642 1.2 1.309 1.2 3.164 0 5.39 1.675 7.311 5.5.829 1.65 3.176 3.9 5.217 5 2.766 1.491 4.021 3.018 4.932 6 .672 2.2 1.268 3.438 1.326 2.75.294-3.505 10.105 1.116 10.105 4.759 0 1.03.45 2.151 1 2.491s1 .116 1-.498c0-1.694 8.142-.798 9.076.998.429.825 1.067 2.4 1.419 3.5.594 1.857.71 1.875 1.622.25 1.226-2.183 7.481-2.359 11.411-.32 2.368 1.229 3.057 1.233 4.896.028 2.821-1.849 7.75-.572 9.063 2.348 1.3 2.888 2.513 2.792 2.513-.199 0-1.316.712-2.666 1.582-3 2.504-.961 8.239-.706 8.92.397.344.555 1.749-.338 3.148-2 2.022-2.403 3.316-3.004 6.469-3.004 3.271 0 4.478-.61 7.088-3.583 2.359-2.687 3.735-3.47 5.505-3.132 1.588.304 2.68-.149 3.341-1.385 2.055-3.839 5.737-6.9 8.3-6.9 2.297 0 2.705-.509 3.277-4.086.359-2.247 1.152-4.234 1.762-4.416.609-.182 2.284-.587 3.722-.899 2.287-.498 2.613-1.067 2.613-4.567 0-4.768 1.367-6.674 5.426-7.566 2.994-.657 3.001-.674 1.014-2.525-1.209-1.127-1.798-2.635-1.49-3.814.748-2.861 4.115-6.127 6.317-6.127 1.741 0 1.691-.224-.539-2.455-3.107-3.106-3.115-5.841-.026-8.755 2.298-2.167 2.356-2.497 1.081-6.145-1.139-3.26-1.129-4.473.062-7.848 1.294-3.67 1.256-4.126-.476-5.645-3.07-2.691-3.474-6.722-.915-9.106 1.807-1.683 1.903-2.046.544-2.046-.909 0-2.786-1.667-4.17-3.704-2.294-3.376-2.387-3.903-1.054-5.939 1.325-2.021 1.288-2.289-.387-2.821-3.168-1.005-5.397-4.353-5.508-8.274-.091-3.219-.467-3.812-2.606-4.108-3.738-.517-4.833-1.856-5.577-6.819-.586-3.909-.945-4.432-2.725-3.966-3.029.792-7.521-2.289-8.264-5.667-.559-2.547-.983-2.842-3.392-2.36-2.216.443-3.408-.124-6.101-2.903-2.809-2.898-3.841-3.361-6.421-2.877-3.45.647-8.52-2.501-8.52-5.29 0-1.416-.191-1.409-1.829.073-3.31 2.996-10.171 1.43-10.171-2.321 0-1.048-.45-2.184-1-2.524s-1 .014-1 .786M86 37.408c-1.375.731-4.075 1.614-6 1.964-5.402.98-21 9.629-21 11.644 0 .413-.9.986-2 1.274-1.1.287-2 1.24-2 2.116S54.397 56 53.661 56c-.737 0-1.853 1.125-2.479 2.5S49.638 61 49.143 61s-1.491 1.462-2.213 3.25c-.722 1.787-1.901 3.61-2.621 4.05S43 69.916 43 70.915c0 .998-.834 2.888-1.853 4.2s-2.173 4.849-2.564 7.86-1.196 6.059-1.789 6.773c-1.379 1.662-1.303 17.934.092 19.614.579.698 1.358 3.861 1.73 7.029s1.264 6.346 1.981 7.063c.717.718 1.605 2.596 1.974 4.175.368 1.579 1.221 3.321 1.895 3.871.675.55 1.925 2.35 2.779 4 3.231 6.244 17.98 19.211 23.911 21.021 1.289.394 3.019 1.28 3.844 1.971.825.69 3.3 1.571 5.5 1.959 2.2.387 6.135 1.395 8.744 2.24 8.459 2.738 25.938-.143 37.256-6.141 8.533-4.522 9.811-5.354 10.719-6.977.484-.865 1.288-1.573 1.785-1.573 1.184 0 5.996-4.823 5.996-6.01 0-.506.9-1.401 2-1.99s2-1.744 2-2.567c0-.822.634-1.739 1.408-2.036.775-.297 1.994-1.971 2.708-3.719s1.881-3.773 2.592-4.499c.71-.727 1.307-2.302 1.326-3.5.019-1.199.903-3.979 1.966-6.179 1.627-3.368 1.932-6.211 1.932-18s-.305-14.632-1.932-18c-1.063-2.2-1.947-4.829-1.966-5.842-.019-1.014-.934-2.987-2.034-4.385-1.1-1.399-2-3.087-2-3.753s-.9-2.025-2-3.02-2-2.215-2-2.711c0-1.035-11.633-12.662-14.552-14.545-1.072-.691-3.523-2.041-5.448-3s-4.054-2.265-4.73-2.903-3.106-1.475-5.398-1.863c-2.293-.387-5.662-1.328-7.488-2.091-4.365-1.824-21.939-1.809-25.384.021m7 15.54c-1.375.469-3.765.897-5.312.952-3.342.119-13.848 4.86-14.988 6.764-.44.735-1.286 1.336-1.881 1.336C69.511 62 61 70.361 61 71.646c0 .5-.9 1.68-2 2.622s-2 2.517-2 3.5-.729 2.828-1.621 4.101c-3.709 5.296-3.717 31.936-.009 35.644.896.896 1.63 2.429 1.63 3.405 0 .977.787 2.749 1.75 3.938.962 1.19 2.65 3.322 3.75 4.739 3.215 4.143 7.898 8.395 9.25 8.4.688.003 1.25.624 1.25 1.38s1.433 1.662 3.184 2.012 3.917 1.299 4.811 2.109c.895.809 5.126 1.958 9.403 2.553 9.192 1.279 23.923-.124 26.582-2.531.923-.835 2.36-1.518 3.193-1.518s2.823-1.124 4.421-2.499 3.251-2.499 3.672-2.5 1.859-1.239 3.194-2.751l4.984-5.646c1.406-1.593 2.556-3.436 2.556-4.097s.9-2.239 2-3.507 2.003-3.475 2.006-4.903c.004-1.428.757-3.947 1.675-5.597 1.997-3.592 2.385-18.51.539-20.735-.64-.771-1.663-3.733-2.274-6.583-.612-2.85-1.47-5.182-1.908-5.182s-1.397-1.463-2.133-3.25C136.955 70.014 124.31 58 121.275 58c-.855 0-2.054-.657-2.665-1.459-1.872-2.461-21.045-5.151-25.61-3.593m-.5 15.895C80.199 73.557 72.262 80.859 70.501 89.08c-.402 1.881-1.182 3.979-1.732 4.661-1.537 1.909-1.149 10.403.629 13.759.874 1.65 1.592 3.862 1.596 4.916.003 1.054.793 2.778 1.756 3.832 6.725 7.363 11.016 10.881 14.373 11.785 2.086.562 4.063 1.459 4.394 1.994.781 1.264 15.483 1.274 15.483.012 0-.529 1.762-1.436 3.915-2.016 4.333-1.167 13.408-9.314 14.617-13.123.402-1.269 1.347-2.922 2.1-3.675.962-.962 1.368-4.139 1.368-10.704 0-8.19-.331-9.975-2.698-14.536-1.483-2.86-3.283-5.424-4-5.699-.716-.275-1.302-1.141-1.302-1.924 0-.784-.753-1.714-1.674-2.067s-2.495-1.464-3.5-2.469S113.248 72 112.329 72s-2.429-.686-3.356-1.524c-1.894-1.714-13.309-2.846-16.473-1.633m.473 22.849c-3.54 2.423-3.941 3.27-3.958 8.384-.02 5.921 2.948 9.021 8.712 9.101 6.124.084 8.129-.975 10.283-5.434l1.988-4.115-2.036-4.207c-1.199-2.476-2.947-4.451-4.249-4.801-3.996-1.071-8.226-.649-10.74 1.072"/><path fill-opacity=".155" fill-rule="evenodd" d="M95.408 15.5c-1.517 2.316-1.517 2.684 0 5 1.929 2.945 1.856 2.932 5.642.974 3.45-1.784 3.73-3.694.95-6.474-2.668-2.668-4.613-2.521-6.592.5m-14.208.7c-1.543 1.543-1.543 5.057 0 6.6 2.805 2.805 7.8.692 7.8-3.3s-4.995-6.105-7.8-3.3m27.793.309c-2.038 2.456-.137 6.911 3.111 7.292 3.226.377 5.136-1.845 4.718-5.491-.266-2.322-.857-2.862-3.407-3.111-1.919-.187-3.591.308-4.422 1.31M68.05 19.44c-1.601 1.929-.949 6.608 1.099 7.89 1.214.76 2.335.583 4.25-.672 3.188-2.089 3.344-5.024.378-7.101-2.762-1.935-4.194-1.965-5.727-.117m55.521.131c-1.977 1.978-1.98 3.4-.014 6.206 1.982 2.83 3.546 2.807 6.269-.091 2.691-2.865 2.69-3.127-.015-5.647-2.627-2.448-4.145-2.562-6.24-.468M54.95 26.093c-1.361 2.544-.524 6.473 1.55 7.269.835.32 2.638.156 4.009-.365C62.397 32.279 63 31.326 63 29.06c0-4.784-5.911-6.963-8.05-2.967m81.25-.893c-1.815 1.815-1.47 6.594.55 7.608 3.081 1.546 6.714-.076 7.072-3.158.177-1.524-.215-3.419-.872-4.21-1.452-1.75-5.11-1.88-6.75-.24m-91.953 7.953c-2.096 2.096-1.567 7.611.802 8.363 4.158 1.319 8.427-3.648 6.176-7.187-1.168-1.835-5.576-2.578-6.978-1.176m104.003-.491c-1.649.666-1.61 6.794.052 8.174.716.594 2.404.801 3.75.46 4.334-1.099 5.137-4.107 1.948-7.296-1.987-1.987-3.354-2.305-5.75-1.338m-61.75 6.96c-17.446 3.461-34.003 16.57-42.235 33.442-8.743 17.919-7.971 38.635 2.158 57.936 2.13 4.059 2.372 4.347 11.03 13.143 22.435 22.793 61.574 22.426 84.137-.789 7.478-7.694 13.311-17.671 15.994-27.354 4.815-17.376 1.759-35.412-8.738-51.57-2.509-3.863-6.668-8.185-13.341-13.865-5.253-4.472-17.143-9.595-25.808-11.12-9.721-1.71-13.84-1.679-23.197.177m-51.272 3.417c-2.935 1.179-3.772 3.472-2.381 6.525 1.208 2.652 4.884 3.305 6.953 1.236 2.219-2.219.853-9.037-1.75-8.737-.302.035-1.572.474-2.822.976m123.569-.359c-4.017 1.058-3.297 7.727.95 8.793 4.206 1.055 6.563-3.157 4.218-7.539-1.026-1.916-1.872-2.121-5.168-1.254m-73.4 9.639c-3.907 1.199-7.732 2.65-8.5 3.222-.769.573-2.609 1.648-4.089 2.389-3.48 1.74-10.429 8.231-13.219 12.348-6.287 9.275-10.018 20.755-9.844 30.289.318 17.404 12.237 36.21 27.472 43.348 12.244 5.736 22.571 6.643 35.627 3.127 13.79-3.713 25.816-14.916 31.719-29.548 2.453-6.081 2.828-8.364 2.872-17.494.043-8.793-.348-11.557-2.402-17-5.797-15.362-17.3-26.013-33.388-30.912-8.699-2.649-17.109-2.575-26.248.231m81.883 1.748c-3.088 1.177-4.151 5.823-1.736 7.589 3.592 2.627 7.456.968 7.456-3.201 0-3.137-2.988-5.429-5.72-4.388M25.518 55.625c-2.312 2.312-1.49 5.631 1.784 7.195 3.484 1.665 5.698.211 5.698-3.742 0-4.785-4.208-6.727-7.482-3.453m146.546 12.807c-2.118 2.254-2.147 2.508-.617 5.466 1.895 3.665 2.446 3.761 5.918 1.029 3.379-2.658 3.326-4.299-.222-6.825l-2.857-2.035zm-152.368.592c-1.632 2.329-1.239 5.28.942 7.09 3.323 2.758 9.344-3.654 6.215-6.618-2.653-2.513-5.592-2.706-7.157-.472M96.5 70.506c-.55.192-3.475 1.044-6.5 1.894-13.374 3.759-21.483 17.844-19.012 33.025 1.814 11.144 11.142 20.522 22.358 22.475 7.068 1.231 15.807.058 18.733-2.513.868-.763 2.067-1.387 2.665-1.387 2.109 0 8.983-9.012 11.106-14.559 2.686-7.02 2.728-12.902.137-19.473-4.001-10.152-10.704-15.982-21.231-18.463-6.552-1.545-6.652-1.557-8.256-.999m79.052 11.436c-3.695 4.084 1.799 10.502 6.003 7.012 2.431-2.018 1.802-6.47-1.102-7.793-3.188-1.453-2.826-1.511-4.901.781m-159.309.215c-1.763 1.763-1.541 6.577.352 7.636.878.491 2.683.685 4.011.431 2.75-.525 4.282-4.585 2.69-7.129-1.262-2.018-5.42-2.571-7.053-.938m76.591 7.117c-6.524 3.889-7.67 14.194-2.147 19.312 7.497 6.947 20.207 1.701 20.281-8.371.037-5.018-1.905-8.395-6.44-11.197-4.138-2.558-7.082-2.494-11.694.256m-77.761 7.361c-2.612 3.32-2.599 3.522.427 6.365l2.5 2.349L20.5 103c3.094-2.907 3.126-4.063.186-6.826-2.92-2.742-3.106-2.727-5.613.461m161.088-.088c-1.528 3.352-1.466 4.459.364 6.481 1.852 2.046 6.134 1.478 7.454-.989 1.378-2.574.059-6.074-2.681-7.116-3.481-1.323-3.847-1.208-5.137 1.624M16.05 110.44c-1.609 1.938-.946 6.611 1.122 7.905 1.183.74 2.427.703 4.25-.128 3.659-1.667 3.667-6.853.013-8.242-3.389-1.288-3.972-1.238-5.385.465m159.521.131c-1.749 1.75-1.794 1.995-.949 5.146 1.333 4.972 8.378 3.478 8.378-1.777 0-2.289-.601-3.218-2.565-3.965-3.24-1.231-3.007-1.26-4.864.596M20.267 123.25c-1.571 2.007-2.079 5.334-1.087 7.108 1.113 1.987 4.761 2.137 7.276.298 2.49-1.821 1.399-5.946-1.979-7.485-3.16-1.439-3.02-1.442-4.21.079m152.956-.388c-1.877 1.16-3.111 5.587-2.074 7.441 1.153 2.06 4.775 2.204 7.387.294 1.577-1.153 1.744-1.89.941-4.14-1.017-2.85-4.355-4.769-6.254-3.595M28 135.749c-4.548 1.458-5.176 6.592-1.066 8.717 2.807 1.451 3.023 1.405 4.978-1.081 1.473-1.873 1.786-3.08 1.121-4.324-1.369-2.558-3.34-3.854-5.033-3.312m139.228.481c-2.673 1.289-3.935 5.213-2.307 7.175 2.155 2.596 4.969 2.55 7.067-.116 1.896-2.411 1.909-2.655.283-5.407-1.89-3.2-1.855-3.188-5.043-1.652M34.845 147.671c-1.839.488-3.157 4.352-2.272 6.659.774 2.016 5.28 3.037 7.023 1.591 1.718-1.427 1.841-6.084.204-7.721-1.222-1.222-2.02-1.308-4.955-.529m123.378.886c-3.217 2.252-2.939 6.218.527 7.546 4.765 1.824 7.833-2.276 5.278-7.051-1.314-2.456-2.823-2.584-5.805-.495M43.192 159.75c-.483.963-.591 2.875-.24 4.25.525 2.057 1.246 2.5 4.069 2.5 2.87 0 3.595-.465 4.432-2.847.833-2.368.679-3.084-.917-4.25-2.641-1.931-6.287-1.759-7.344.347m103.988-.108c-2.236 3.997 1.449 8.94 5.343 7.166 3.126-1.425 4.207-5.801 1.858-7.519-2.448-1.79-6.101-1.611-7.201.353M55.2 167.2c-1.712 1.712-1.484 4.227.617 6.822 1.54 1.902 2.147 2.068 3.977 1.088 1.188-.636 2.68-2.128 3.316-3.316.98-1.83.814-2.437-1.088-3.977-2.595-2.101-5.11-2.329-6.822-.617m81 0c-1.476 1.476-1.542 4.293-.16 6.875.801 1.497 1.663 1.791 3.75 1.28 3.259-.797 4.174-1.997 4.195-5.498.021-3.635-5.069-5.373-7.785-2.657m-67.671 5.414C65.392 175.751 67.251 181 71.5 181c2.706 0 4.5-1.825 4.5-4.578 0-3.733-4.998-6.281-7.471-3.808m55.028.609c-1.864 2.661-1.988 4.946-.357 6.577 3.273 3.273 9.977-.732 7.857-4.694-.972-1.816-4.003-4.106-5.435-4.106-.28 0-1.209 1-2.065 2.223m-41.307 2.808c-3.469 1.395-3.142 6.677.5 8.072 3.479 1.332 5.645.079 6.072-3.514.338-2.842-1.276-5.633-3.194-5.526-.621.035-2.141.471-3.378.968m28.501-.342c-1.873.49-3.308 4.418-2.44 6.68.744 1.938 5.578 2.968 7.285 1.552 1.718-1.427 1.841-6.084.204-7.721-1.23-1.23-2-1.308-5.049-.511m-15.206 3.224c-1.369 2.648-1.347 3.11.245 5.077 1.348 1.664 2.374 2.007 4.445 1.487 4.676-1.173 4.775-6.24.163-8.342-3.292-1.5-3.127-1.56-4.853 1.778"/><path fill-opacity=".217" fill-rule="evenodd" d="M96.468 17.101c-.924 2.91.773 4.376 3.425 2.956 2.623-1.403 2.678-2.681.173-4.022-2.627-1.406-2.833-1.345-3.598 1.066m-13.218-.07c-2.902 1.167-2.844 2.35.215 4.354 2.327 1.525 2.527 1.499 3.577-.463 1.125-2.103.675-4.975-.761-4.859-.429.035-1.794.471-3.031.968m28.017-.002c-2.631 1.053-2.104 3.571.95 4.54 2.183.693 3.958-1.059 3.532-3.486-.323-1.839-1.71-2.165-4.482-1.054m-42.6 3.638c-.914.913-.812 2.556.263 4.254.762 1.204 1.321 1.144 3.658-.387 2.63-1.723 2.672-1.871.894-3.171-2.033-1.486-3.774-1.738-4.815-.696m56 0c-1.037 1.037-.785 4.142.396 4.872.585.361 1.933-.13 2.996-1.093 1.474-1.333 1.668-2.071.815-3.098-1.202-1.449-3.128-1.761-4.207-.681m-68.242 6.776C55.708 30.298 56.517 32 58.59 32c2.054 0 2.776-2.448 1.452-4.922-1.48-2.766-2.866-2.626-3.617.365m80.69-.237c-1.168 3.145-.276 4.959 2.262 4.597 2.932-.418 3.383-4.326.668-5.779-1.773-.949-2.202-.775-2.93 1.182m11.935 7.234c-1.74 2.097-.883 5.06 1.464 5.06 2.421 0 3.217-3.648 1.167-5.35-1.1-.913-1.686-.848-2.631.29M44.503 35.991C43.696 38.533 44.61 40 47 40c2.542 0 3.319-1.536 2.011-3.979-1.382-2.583-3.693-2.598-4.508-.03M87 40.864c-5.616 1.237-14.645 4.888-19.244 7.78C61.835 52.369 50.88 63.606 47.912 69 41.797 80.115 40.5 85.538 40.5 100c0 11.753.302 14.277 2.329 19.5 16.491 42.474 66.989 53.535 98.863 21.655 7.222-7.224 12.527-17.382 14.869-28.47 6.243-29.564-9.065-58.119-37.057-69.123-5.78-2.273-8.909-2.813-18-3.11-6.052-.198-12.579-.013-14.504.412m-52.139 5.058L32.5 47.845l2.815 1.077c3.525 1.35 3.36 1.367 4.047-.422.655-1.709-.187-4.5-1.358-4.5-.43 0-1.845.865-3.143 1.922m124.389-.891c-2.975 1.196-2.849 2.791.315 3.994 1.411.536 2.713.975 2.893.975.796 0 1.426-3.138.904-4.5-.651-1.696-.969-1.732-4.112-.469m-76.331 6.387C61.803 58.937 48.433 77.832 48.542 100c.107 21.814 13.959 41.08 34.71 48.277 8.527 2.957 22.9 3.021 30.748.137 9.602-3.528 14.334-6.521 20.696-13.093 10.748-11.101 14.949-22.884 14.041-39.376-.9-16.325-8.381-29.412-22.279-38.974-11.727-8.068-29.949-10.392-43.539-5.553M27.25 57.031c-2.975 1.196-2.849 2.791.315 3.994 1.411.536 2.713.975 2.893.975.796 0 1.426-3.138.904-4.5-.651-1.696-.969-1.732-4.112-.469m139.5.049c-2.382 1.388-2.199 2.395.674 3.703 2.835 1.292 5.027-.444 3.986-3.156-.711-1.853-2.131-2.02-4.66-.547M20.667 69.667c-.9.9-.816 2.55.214 4.175.71 1.12 1.205 1.121 2.985.01 2.523-1.576 2.76-3.398.552-4.245-2.033-.78-2.926-.766-3.751.06m151.69.846c-.32.832-.042 2.162.616 2.955.957 1.153 1.582 1.203 3.112.247 2.326-1.453 2.475-3.286.333-4.108-2.466-.946-3.433-.731-4.061.906M93 72.936c-7.766 1.567-14.131 6.644-18.412 14.686-2.085 3.918-2.584 6.223-2.566 11.87.034 10.881 4.562 18.827 13.833 24.278 4.075 2.395 5.688 2.73 13.145 2.73 7.555 0 9.026-.315 13.234-2.835 11.879-7.116 16.682-20.97 11.743-33.877-3.336-8.72-10.238-14.843-18.776-16.66-5.777-1.23-6.965-1.248-12.201-.192M17 85.393c0 3.639.533 4.107 3.418 3 1.662-.638 2.247-5.393.664-5.393-.505 0-1.63-.273-2.5-.607-1.262-.484-1.582.122-1.582 3m159.465-2.336c-.972 1.572.431 6.144 1.75 5.705 1.832-.611 3.156-3.352 2.476-5.126-.707-1.841-3.232-2.187-4.226-.579m-85.424 5.562c-6.134 5.161-7.449 10.702-4.099 17.268 3.721 7.294 11.174 9.862 17.806 6.135 4.245-2.386 6.973-6.126 7.336-10.054.576-6.249-.13-8.321-4.126-12.123-3.556-3.383-4.629-3.845-8.923-3.845-3.807 0-5.567.576-7.994 2.619M15.958 98.55c-1.062 1.281-.997 1.84.378 3.214 1.552 1.553 1.776 1.553 3.328 0 1.375-1.374 1.44-1.933.378-3.214C19.334 97.698 18.415 97 18 97s-1.334.698-2.042 1.55M177 99.434c0 2.197.441 2.566 3.07 2.566 2.611 0 3.021-.336 2.75-2.25-.229-1.611-1.101-2.34-3.07-2.566-2.368-.273-2.75.04-2.75 2.25M16.643 111.769c-.301.486-.285 1.886.036 3.11.409 1.566 1.211 2.136 2.701 1.923 3.016-.43 2.985-5.179-.036-5.609-1.185-.169-2.401.09-2.701.576m159.822.288c-.972 1.572.431 6.144 1.75 5.705 1.832-.611 3.156-3.352 2.476-5.126-.707-1.841-3.232-2.187-4.226-.579M20.553 126.645c-.813 3.238.263 4.477 3.214 3.706 2.709-.709 2.861-2.473.404-4.696-2.447-2.215-2.841-2.107-3.618.99m152.309-.241c-1.45 3.182-.275 4.778 2.905 3.947 2.756-.721 2.853-2.48.268-4.819-1.9-1.72-2.005-1.691-3.173.872M26.75 139.08c-2.382 1.388-2.199 2.395.674 3.703 1.901.867 2.681.796 3.612-.326 1.39-1.675.597-4.471-1.255-4.427-.704.017-2.069.489-3.031 1.05m139.797.262c-1.753 1.282-1.729 1.417.526 2.997 2.04 1.428 2.556 1.461 3.781.235 1.615-1.615.883-4.574-1.131-4.574-.738 0-2.167.604-3.176 1.342M35.75 150.392c-2.34 1.776-2.208 3.328.351 4.14 2.69.854 4.285-.741 3.431-3.431-.77-2.428-1.37-2.54-3.782-.709m123.474.404c-1.797 1.383-2.018 2.01-1.05 2.978 1.398 1.398 4.457 1.632 5.219.4.629-1.019-.388-5.182-1.26-5.152-.348.012-1.657.811-2.909 1.774m-114.793 9.522c-.322.839-.065 2.498.572 3.687 1.104 2.063 1.243 2.082 3.077.423 2-1.81 2.592-4.428 1.002-4.428-.505 0-1.626-.272-2.492-.604-.924-.354-1.815.026-2.159.922m104.097-.364c-.729 1.181.417 6.046 1.425 6.046.406 0 1.588-.941 2.629-2.09 1.856-2.052 1.855-2.117-.036-3.5-2.263-1.655-3.21-1.762-4.018-.456m-91.861 7.713c-.938.938-.802 3.571.272 5.269.753 1.19 1.178 1.211 2.485.127 2.03-1.684 2.027-4.676-.006-5.456-1.958-.752-1.94-.752-2.751.06m80.412.738c-1.068 1.287-.354 5.595.927 5.595 1.603 0 5.285-3.72 4.669-4.717-1.018-1.648-4.504-2.194-5.596-.878m-68.421 6.793c-.737 2.819.862 4.74 3.394 4.078 2.966-.776 3.246-1.978.984-4.24-2.609-2.609-3.663-2.57-4.378.162m55.752.304c-.876 3.492.696 5.047 3.555 3.517 1.966-1.052 2.042-1.376.772-3.288-2.079-3.131-3.579-3.21-4.327-.229M83.2 178.2c-2.129 2.129-1.439 4.8 1.241 4.8 2.939 0 3.649-.939 2.894-3.826-.63-2.411-2.304-2.805-4.135-.974m27.811.287c-1.638 1.973-.569 4.513 1.899 4.513 2.479 0 3.149-1.058 2.425-3.826-.659-2.52-2.553-2.821-4.324-.687m-14.675 2.08c-.839 2.186 1.055 3.761 3.563 2.965 2.474-.785 2.775-3.059.519-3.925-2.482-.953-3.434-.729-4.082.96"/><path fill-opacity=".393" fill-rule="evenodd" d="M97 18c0 .55.45 1 1 1s1-.45 1-1-.45-1-1-1-1 .45-1 1m28.543 3.931c-.317.512-.118 1.213.441 1.559s1.016-.074 1.016-.931c0-1.757-.6-2.015-1.457-.628M81 44.497c-3.575 1.267-8.611 3.496-11.19 4.955C64.894 52.231 53 63.069 53 64.768c0 .543-.631 1.51-1.401 2.15C49.64 68.543 45.247 77.8 44.441 82c-.37 1.925-1.182 4.132-1.806 4.903-1.88 2.325-1.422 20.654.689 27.597 6.305 20.736 19.122 34.317 38.176 40.453 10.805 3.479 20.697 3.805 31.248 1.032 4.813-1.266 9.427-2.818 10.252-3.45.825-.631 2.754-1.683 4.288-2.337 3.62-1.545 4.78-2.48 12.292-9.918 6.212-6.15 7.86-8.458 10.915-15.28.862-1.925 2.338-4.85 3.279-6.5 1.416-2.483 1.707-5.673 1.686-18.5-.024-14.043-.235-15.896-2.243-19.71-1.219-2.316-2.217-4.834-2.217-5.597s-.9-2.425-2-3.693-2-2.736-2-3.262-.894-1.92-1.986-3.097a290 290 0 0 1-4.25-4.717C138.17 56.973 129.632 50 128.612 50c-.375 0-1.817-.743-3.203-1.652-1.387-.908-5.533-2.706-9.215-3.995-9.383-3.286-25.702-3.219-35.194.144m7.305 3.453C79.158 49.391 71.109 53.989 61.959 63c-5.126 5.048-7.332 8.453-12.582 19.422-2.656 5.549-2.741 29.541-.122 34.078.953 1.65 1.735 3.612 1.739 4.36.008 1.732 6.067 11.14 7.174 11.14.458 0 .832.509.832 1.132C59 135.563 74.8 148 77.889 148c.65 0 2.384.788 3.854 1.75 3.832 2.509 30.481 2.59 34.257.104 1.375-.905 3.616-1.981 4.981-2.39 6.071-1.823 16.123-10.632 21.777-19.084 4.847-7.247 9.955-24.883 8.905-30.75-1.832-10.236-3.976-18.318-5.227-19.7-.79-.873-1.436-2.157-1.436-2.853 0-1.675-8.678-13.036-11.884-15.558-10.474-8.238-18.057-11.225-30.156-11.878-5.203-.28-11.798-.142-14.655.309M29 59c0 .55.477 1 1.059 1s.781-.45.441-1-.816-1-1.059-1-.441.45-.441 1m140 0c0 .55.477 1 1.059 1s.781-.45.441-1-.816-1-1.059-1-.441.45-.441 1m4.5 12c-.34.55-.141 1 .441 1S175 71.55 175 71s-.198-1-.441-1-.719.45-1.059 1m-81.995 3.678c-2.665.752-9.499 5.537-12.09 8.466C76.295 86.67 73 95.327 73 99.999c0 4.634 3.621 13.068 7.401 17.238 9.075 10.012 25.804 10.543 36.248 1.148 1.293-1.163 2.351-2.418 2.351-2.79s.997-2.024 2.215-3.672c1.855-2.509 2.221-4.333 2.25-11.21.019-4.517-.291-9.338-.689-10.713-1.035-3.573-7.659-10.652-12.309-13.154-3.98-2.142-14.71-3.369-18.962-2.168m.782 10.952c-4.327 2.133-8.384 7.675-9.005 12.301-.638 4.76 1.731 9.995 6.364 14.063 2.987 2.622 4.184 3.006 9.386 3.006 5.423 0 6.317-.32 9.885-3.544 4.377-3.954 5.744-8.585 4.576-15.498-1.6-9.472-12.337-14.701-21.206-10.328M17 100c0 .55.45 1 1 1s1-.45 1-1-.45-1-1-1-1 .45-1 1m4.5 28c-.34.55-.141 1 .441 1S23 128.55 23 128s-.198-1-.441-1-.719.45-1.059 1m152 0c-.34.55-.141 1 .441 1s1.059-.45 1.059-1-.198-1-.441-1-.719.45-1.059 1M29 141.059c0 .582.45.781 1 .441s1-.816 1-1.059-.45-.441-1-.441-1 .477-1 1.059m140 0c0 .582.45.781 1 .441s1-.816 1-1.059-.45-.441-1-.441-1 .477-1 1.059m-132 12c0 .582.45.781 1 .441s1-.816 1-1.059-.45-.441-1-.441-1 .477-1 1.059M57 170c0 .55.45 1 1 1s1-.45 1-1-.45-1-1-1-1 .45-1 1m68.5 7c-.34.55-.141 1 .441 1s1.059-.45 1.059-1-.198-1-.441-1-.719.45-1.059 1m-28 5c.34.55.816 1 1.059 1s.441-.45.441-1-.477-1-1.059-1-.781.45-.441 1"/></svg>