<svg xmlns="http://www.w3.org/2000/svg" width="24" height="24" fill="#000000"><path fill="#000000" d="M0 0h24v24H0z"/><path fill="#000000" fill-rule="evenodd" d="M5 11.011c.57 0 .965-.118 1.186-.354.22-.236.33-.618.33-1.146V8.376c0-.633.085-1.14.253-1.52.171-.384.408-.673.711-.868a2.8 2.8 0 0 1 1.087-.39c.419-.065 2.112-.098 2.61-.098v1.633c-.39 0-1.921.053-2.125.16a.804.804 0 0 0-.41.482c-.073.216-.11.49-.11.822v1.5c0 .26-.045.508-.137.745-.093.233-.264.44-.514.621-.25.178-.608.32-1.073.427l-.034.007v.206l.034.007c.465.103.822.245 1.073.427.25.178.421.385.514.621.092.233.138.481.138.745v1.5c0 .329.036.6.109.816.072.22.209.38.41.483.204.106 1.736.16 2.124.16V18.5c-.497 0-2.19-.032-2.609-.098a2.8 2.8 0 0 1-1.087-.39c-.303-.195-.54-.485-.711-.868-.168-.38-.252-.887-.252-1.52v-1.14c0-.528-.11-.91-.331-1.146-.22-.236-.616-.354-1.186-.354V11.01Zm14 0c-.57 0-.965-.118-1.186-.354-.22-.236-.33-.618-.33-1.146V8.376c0-.633-.085-1.14-.253-1.52-.171-.384-.408-.673-.711-.868a2.8 2.8 0 0 0-1.088-.39c-.418-.065-2.111-.098-2.608-.098v1.633c.388 0 1.92.053 2.124.16.201.102.338.263.41.482.073.216.11.49.11.822v1.5c0 .26.045.508.137.745.093.233.264.44.514.621.25.178.608.32 1.073.427l.034.007v.206l-.034.007c-.465.103-.822.245-1.073.427-.25.178-.421.385-.514.621a2.003 2.003 0 0 0-.138.745v1.5c0 .329-.036.6-.109.816a.804.804 0 0 1-.41.483c-.204.106-1.736.16-2.124.16V18.5c.497 0 2.19-.032 2.608-.098a2.8 2.8 0 0 0 1.088-.39c.303-.195.54-.485.711-.868.168-.38.252-.887.252-1.52v-1.14c0-.528.11-.91.331-1.146.22-.236.616-.354 1.186-.354V11.01Zm-8.441.99c0-.838.645-1.517 1.44-1.517.797 0 1.442.679 1.442 1.516 0 .838-.645 1.517-1.441 1.517s-1.441-.68-1.441-1.517Zm1.44-2.817c-1.478 0-2.676 1.26-2.676 2.816 0 1.556 1.198 2.817 2.677 2.817 1.478 0 2.676-1.261 2.676-2.817 0-1.555-1.198-2.816-2.676-2.816Z" clip-rule="evenodd"/></svg>