<svg xmlns="http://www.w3.org/2000/svg" width="20" height="20" fill="#000000"><path fill="#383838" d="M19.261 3.535c-.203-.784-.857-1.568-2.034-2.44C16.283.399 15.281 0 14.482 0c-.16 0-.305.015-.45.044-.364.074-.683.34-.887.74-.247.473-.305 1.11-.145 1.494.058.118.13.266.218.4-.77.473-1.206.606-1.264.62 2.005.681 3.675 2.101 4.721 3.95l.015-.177c.043-.488.189-1.05.392-1.627.203.059.407.089.61.089.538 0 1.003-.222 1.293-.622.29-.4.407-.932.276-1.376Z"/><path fill="url(#a)" d="M17.168 5.015c1.322.37 1.86-.666 1.685-1.361-.189-.695-.799-1.405-1.874-2.204-1.075-.8-2.164-1.125-2.862-.977-.697.148-.9 1.228-.726 1.642.073.163.232.4.45.666-.276.192-.537.34-.755.473a8.619 8.619 0 0 1 3.37 2.737c.102-.4.247-.754.378-1.065.102.015.218.044.334.089Z"/><path fill="url(#b)" d="M9.6 19.512c4.485 0 8.12-3.702 8.12-8.27 0-4.566-3.635-8.269-8.12-8.269-4.485 0-8.12 3.703-8.12 8.27s3.635 8.269 8.12 8.269Z"/><path fill="#949494" d="M18.186 2.973c-1.104-1.183-2.034-1.494-3.153-1.745-.871-.207-.639-.71.422-.607-.509-.177-.988-.222-1.337-.148-.697.148-.9 1.228-.726 1.642.072.163.232.4.45.666-.392.266-.726.459-1.002.607.13.059.29.133.48.236.493.266 1.03.71 1.03.71-.813-.71-.639-1.035.48-1.834.349-.252.988-.222 1.583.089.596.31 1.293 1.094 1.293 1.094l-.668 1.302.13.045c.422.118.756.088 1.018-.015.305-.193 1.104-.843 0-2.042Z" opacity=".6"/><path fill="#383838" d="M15.019 1.938c.29.118.668.325 1.133.636.552.37 1.031.784 1.336 1.11-.508.68-.842 1.612-1.046 2.263.102.148.218.296.32.444.102-.37.276-.918.508-1.465.059.015.131.015.204.015.174 0 .378-.03.537-.163.117-.089.247-.251.233-.547 0-.281-.218-.636-.668-1.065-.32-.311-.756-.651-1.192-.962-1.249-.843-2.12-1.08-2.513-.68-.261.266-.232.591-.145.828-.465.31-.857.533-1.119.68.175.06.335.134.509.208.465-.252 1.133-.68 1.903-1.302Zm2.745 2.115a.403.403 0 0 1 .059.193c0 .133-.044.177-.073.207a.51.51 0 0 1-.276.074c.087-.178.189-.326.29-.474ZM14.176 1.85c.044-.044.16-.074.349-.044-.145.118-.29.222-.436.325-.014-.103 0-.207.087-.28Z"/><path fill="#383838" d="M9.6 2.485c-4.75 0-8.6 3.92-8.6 8.758C1 16.08 4.85 20 9.6 20s8.6-3.92 8.6-8.757c0-4.838-3.864-8.758-8.6-8.758Zm0 17.027c-4.489 0-8.12-3.698-8.12-8.27 0-4.57 3.631-8.269 8.12-8.269 4.489 0 8.12 3.699 8.12 8.27 0 4.57-3.646 8.269-8.12 8.269Z"/><path fill="url(#c)" d="M9.6 19.512c4.485 0 8.12-3.702 8.12-8.27 0-4.566-3.635-8.269-8.12-8.269-4.485 0-8.12 3.703-8.12 8.27s3.635 8.269 8.12 8.269Z" opacity=".6"/><path fill="#949494" d="M9.542 18.506c-4.431-.725-7.438-4.97-6.712-9.482a8.26 8.26 0 0 1 2.702-4.926 8.253 8.253 0 0 0-3.951 5.828c-.712 4.512 2.295 8.757 6.711 9.482 2.47.414 4.852-.37 6.61-1.908a8.02 8.02 0 0 1-5.36 1.006Z" opacity=".6"/><path fill="url(#d)" d="M10.893 3.092a7.984 7.984 0 0 0-5.665 1.183l-.058.06c.624-.385 1.54-.726 1.54-.726C4.356 5 3.63 6.583 3.63 6.583c.915-1.805 3.603-3.077 5.709-3.166 2.106-.089 3.486.547 5.171 1.923 1.686 1.39 2.702 4.231 2.6 6.48-.086 2.248-1.248 4.068-1.248 4.068.798-1.05 1.278-1.82 1.583-2.604.058-.237.116-.473.145-.725.727-4.497-2.266-8.742-6.697-9.467Z" opacity=".6"/><path fill="url(#e)" d="M17.314 11.169c0 4.334-3.457 7.855-7.714 7.855-4.256 0-7.728-3.521-7.728-7.855h15.442Z"/><path fill="url(#f)" d="M16.704 11.169c0 4.23-3.283 7.692-7.41 7.855H9.6c4.256 0 7.714-3.521 7.714-7.855h-.61Z" opacity=".6"/><path fill="url(#g)" d="M2.96 11.169H1.872c0 4.334 3.458 7.855 7.714 7.855.189 0 .363 0 .537-.015-3.995-.296-7.161-3.698-7.161-7.84Z" opacity=".7"/><path fill="url(#h)" d="M17.3 11.243c0-.903-1.54-1.42-3.589-1.598-1.481-.118-2.978.03-4.692.562-1.481.444-2.818.37-3.791.252-2.165-.252-3.356-.281-3.356.784 0 1.538 3.08 3.461 7.7 2.795 2.338-.34 3.544-1.035 4.924-1.508 1.496-.503 2.804-.489 2.804-1.287Z"/><path fill="#ffffff" d="M12.128 7.515a1.32 1.32 0 0 0 1.307-1.332 1.32 1.32 0 0 0-1.307-1.33 1.32 1.32 0 0 0-1.308 1.33 1.32 1.32 0 0 0 1.308 1.332ZM14.263 8.506a.557.557 0 0 0 .552-.562.557.557 0 0 0-.552-.562.557.557 0 0 0-.552.562c0 .31.247.562.552.562Z"/><defs><linearGradient id="c" x1="8.297" x2="10.988" y1="19.395" y2="3.092" gradientUnits="userSpaceOnUse"><stop stop-color="#d9d9d9"/><stop offset=".62" stop-color="#ffffff" stop-opacity="0"/></linearGradient><linearGradient id="d" x1="15.323" x2="8.497" y1="5.627" y2="11.777" gradientUnits="userSpaceOnUse"><stop offset=".289" stop-color="#ffffff"/><stop offset=".78" stop-color="#ffffff" stop-opacity="0"/></linearGradient><linearGradient id="e" x1="1.879" x2="17.31" y1="15.091" y2="15.091" gradientUnits="userSpaceOnUse"><stop stop-color="#1c1c1c"/><stop offset=".995" stop-color="#636363"/></linearGradient><linearGradient id="f" x1="18.041" x2="9.497" y1="11.858" y2="19.786" gradientUnits="userSpaceOnUse"><stop offset=".289" stop-color="#ffffff"/><stop offset=".78" stop-color="#ffffff" stop-opacity="0"/></linearGradient><linearGradient id="g" x1="1.878" x2="10.134" y1="15.091" y2="15.091" gradientUnits="userSpaceOnUse"><stop stop-color="#121212"/><stop offset=".995" stop-color="#3d3d3d"/></linearGradient><linearGradient id="h" x1="1.889" x2="17.3" y1="11.895" y2="11.895" gradientUnits="userSpaceOnUse"><stop stop-color="#121212"/><stop offset=".995" stop-color="#4f4f4f"/></linearGradient><radialGradient id="a" cx="0" cy="0" r="1" gradientTransform="matrix(6.4927 0 0 6.61162 18.588 2.722)" gradientUnits="userSpaceOnUse"><stop stop-color="#f2f2f2" stop-opacity=".6"/><stop offset=".681" stop-color="#969696"/><stop offset="1" stop-color="#0a0a0a"/></radialGradient><radialGradient id="b" cx="0" cy="0" r="1" gradientTransform="matrix(15.8852 0 0 16.1762 14.976 5.542)" gradientUnits="userSpaceOnUse"><stop stop-color="#f2f2f2" stop-opacity=".6"/><stop offset=".681" stop-color="#969696"/><stop offset="1" stop-color="#0a0a0a"/></radialGradient></defs></svg>