<svg xmlns="http://www.w3.org/2000/svg" width="250" height="250" version="1.1" fill="#000000"><path fill-opacity=".2" d="M 112.750 39.080 C 111.302 39.924, 111 41.557, 111 48.550 C 111 53.517, 111.412 57, 112 57 C 112.550 57, 113 57.574, 113 58.275 C 113 59.093, 110.227 59.985, 105.250 60.766 C 95.657 62.272, 84.558 67.534, 79.751 72.854 C 77.831 74.979, 75.083 77.013, 73.645 77.374 C 70.459 78.174, 69.005 82.433, 71.177 84.605 C 72.405 85.833, 72.430 87.594, 71.354 96.770 C 70.662 102.672, 70.074 107.988, 70.048 108.584 C 70.020 109.227, 75.601 110.433, 83.750 111.545 C 100.581 113.841, 103.798 113.095, 47 120.074 C 30.290 122.128, 28.539 123.338, 40.750 124.395 C 45.012 124.764, 50.975 125.495, 54 126.018 C 57.025 126.541, 67.600 127.917, 77.500 129.075 C 103.785 132.149, 104 132.182, 104 133.130 C 104 133.609, 103.213 134.032, 102.250 134.070 C 99.201 134.193, 104.015 135.835, 108 136.032 C 112.926 136.275, 99.586 138.497, 78 141.027 C 68.375 142.156, 56.900 143.663, 52.500 144.377 L 44.500 145.675 48.500 146.787 C 50.700 147.398, 57.450 148.401, 63.500 149.015 C 69.550 149.629, 76.975 150.541, 80 151.042 C 83.025 151.542, 92.025 152.654, 100 153.513 C 124.476 156.148, 124.778 156.015, 83 161.009 C 72.825 162.226, 64.084 163.610, 63.576 164.085 C 63.067 164.560, 61.903 171.412, 60.989 179.311 C 59.594 191.368, 58.980 194.020, 57.163 195.837 C 53.247 199.753, 55.421 206.039, 61.332 207.892 C 74.871 212.133, 108.584 214.171, 143.261 212.843 C 163.301 212.076, 181.057 209.645, 186.017 206.991 C 190.241 204.730, 191.243 198.952, 188.009 195.509 C 186.386 193.782, 185.702 190.484, 184.318 177.719 C 183.383 169.100, 182.824 161.842, 183.076 161.591 C 183.327 161.339, 190.501 160.396, 199.017 159.495 C 214.524 157.854, 220.017 156.703, 217 155.726 C 214.853 155.031, 193.407 152.260, 173 150.043 C 149.273 147.464, 144.718 146.854, 143.203 146.053 C 142.490 145.677, 150.590 144.380, 161.203 143.172 C 197.978 138.988, 208 137.640, 208 136.881 C 208 136.461, 206.088 135.689, 203.750 135.166 C 200.443 134.425, 200.110 134.190, 202.250 134.107 C 204.910 134.003, 206.277 132.044, 203.750 131.957 C 203.063 131.933, 197.325 131.268, 191 130.478 C 184.675 129.689, 169.600 127.895, 157.500 126.491 C 145.400 125.088, 134.375 123.575, 133 123.129 C 130.070 122.178, 137.573 120.929, 160.720 118.513 C 168.541 117.697, 178.216 116.544, 182.220 115.952 C 186.224 115.360, 190.963 114.658, 192.750 114.392 C 198.814 113.491, 196.036 112.189, 186.525 111.476 C 181.314 111.086, 176.660 110.256, 176.183 109.633 C 174.689 107.683, 172.621 85.626, 173.892 85.203 C 175.374 84.709, 175.308 79.708, 173.800 78.200 C 173.140 77.540, 171.970 77, 171.200 77 C 170.430 77, 167.780 75.009, 165.311 72.575 C 158.592 65.951, 144.386 60, 135.290 60 C 131.736 60, 131.123 58.973, 133.500 57 C 134.580 56.104, 135 53.733, 135 48.533 C 135 38.801, 134.068 37.990, 122.921 38.030 C 118.290 38.047, 113.713 38.519, 112.750 39.080 M 122 46 C 122 46.550, 122.450 47, 123 47 C 123.550 47, 124 46.550, 124 46 C 124 45.450, 123.550 45, 123 45 C 122.450 45, 122 45.450, 122 46" stroke="none" fill="#000000" fill-rule="evenodd"/><path fill-opacity=".245" d="M 115.500 38.724 C 111.631 39.675, 111 41.045, 111 48.500 C 111 53.729, 111.419 56.103, 112.500 57 C 114.780 58.892, 114.304 60, 111.210 60 C 102.859 60, 86.133 66.903, 80.547 72.654 C 78.651 74.606, 75.616 76.945, 73.803 77.852 C 69.972 79.767, 69.202 82.059, 71.589 84.447 C 73.128 85.985, 73.165 87.060, 72.002 96.488 C 71.299 102.181, 70.964 107.465, 71.258 108.229 C 71.633 109.207, 75.405 109.992, 83.989 110.876 C 98.869 112.410, 102.562 113.487, 96 114.380 C 77.579 116.886, 52.323 120.073, 46.500 120.626 C 42.650 120.992, 38.600 121.627, 37.500 122.038 C 35.638 122.733, 35.672 122.825, 38 123.366 C 39.375 123.687, 48.150 124.872, 57.500 126 C 102.803 131.469, 108.604 132.249, 110 133.064 C 111.048 133.676, 110.295 133.970, 107.500 134.040 C 104.336 134.120, 103.918 134.320, 105.500 135 C 106.600 135.473, 108.850 135.905, 110.500 135.960 C 117.392 136.191, 109.642 137.861, 92 139.944 C 54.994 144.315, 46.350 145.600, 49.500 146.261 C 54.878 147.390, 66.227 148.947, 80.500 150.516 C 88.200 151.362, 96.975 152.467, 100 152.973 C 103.025 153.478, 108.650 154.195, 112.500 154.566 C 116.350 154.937, 120.131 155.580, 120.902 155.995 C 122.354 156.776, 118.294 157.414, 88.792 161.038 C 79.603 162.166, 70.153 163.418, 67.792 163.818 L 63.500 164.547 61.542 179.436 C 59.876 192.111, 59.244 194.665, 57.292 196.617 C 54.483 199.426, 54.446 200.414, 57.017 204.024 C 60.072 208.315, 66.046 209.657, 92.759 212.053 C 119.089 214.415, 173.644 211.682, 183.655 207.500 C 190.027 204.837, 191.894 199.843, 187.906 196.127 C 186.161 194.501, 185.468 191.502, 183.737 178.091 C 182.596 169.244, 181.902 161.764, 182.197 161.470 C 182.491 161.175, 188.080 160.272, 194.616 159.462 C 209.943 157.564, 215.871 156.430, 214 155.753 C 211.035 154.680, 160 149.019, 159.110 149.664 C 158.896 149.819, 159.297 158.534, 160.002 169.031 C 160.752 180.207, 160.914 188.483, 160.392 189.001 C 159.901 189.487, 157.700 189.637, 155.500 189.334 L 151.500 188.784 151.178 180.142 C 151 175.389, 150.550 166.336, 150.178 160.025 L 149.500 148.550 145.256 147.828 C 142.922 147.431, 140.222 146.646, 139.256 146.084 C 137.733 145.197, 137.846 145.057, 140.101 145.030 C 141.531 145.014, 144.176 144.486, 145.978 143.858 L 149.255 142.715 148.628 136.711 C 148.282 133.409, 148 129.917, 148 128.951 C 148 126.703, 144.035 125.322, 135.034 124.435 C 124.573 123.404, 125.668 121.769, 137.682 120.482 C 147.641 119.415, 147.329 120.169, 145.946 100.463 C 145.238 90.392, 144.296 83.162, 143.627 82.668 C 143.007 82.210, 144.700 82.097, 147.390 82.418 C 150.079 82.738, 152.918 83, 153.699 83 C 154.479 83, 154.872 83.399, 154.570 83.886 C 154.269 84.373, 154.542 92.023, 155.176 100.886 L 156.328 117 161.914 116.991 C 167.485 116.982, 193.090 114.243, 193.747 113.586 C 194.164 113.169, 189.559 112.345, 181.737 111.436 C 178.567 111.068, 175.794 110.476, 175.576 110.122 C 175.357 109.768, 174.436 104.116, 173.530 97.562 C 172.039 86.784, 172.031 85.562, 173.441 84.773 C 175.868 83.415, 175.280 80.223, 172.250 78.309 C 170.738 77.354, 167.376 74.699, 164.780 72.410 C 157.917 66.359, 146.563 61.452, 136.721 60.282 C 131.379 59.648, 130.314 58.815, 132.511 56.991 C 133.598 56.089, 134 53.639, 134 47.925 L 134 40.094 130.250 39.053 C 126.439 37.994, 119.130 37.831, 115.500 38.724 M 121.446 45.087 C 120.416 46.755, 122.733 48.667, 124.113 47.287 C 125.267 46.133, 124.545 44, 123 44 C 122.515 44, 121.816 44.489, 121.446 45.087 M 110.500 62.626 C 109.400 62.842, 106.025 63.512, 103 64.115 C 97.032 65.303, 85.194 71.023, 82.467 74.037 C 80.835 75.839, 80.900 75.894, 84.135 75.455 C 99.302 73.397, 105.578 73.005, 122.822 73.038 C 133.645 73.058, 147.225 73.670, 153 74.397 C 158.775 75.125, 163.676 75.569, 163.892 75.385 C 164.107 75.201, 163.207 74.110, 161.892 72.960 C 157.890 69.464, 147.129 64.928, 139.266 63.424 C 132.499 62.129, 115.428 61.656, 110.500 62.626 M 157.609 134.750 C 157.974 138.463, 158.456 141.707, 158.680 141.960 C 159.209 142.558, 193.702 139.133, 201.500 137.708 L 207.500 136.611 202.652 135.874 C 196.510 134.941, 195.497 134.009, 200.583 133.970 C 203.434 133.947, 204.074 133.690, 202.936 133.024 C 201.319 132.078, 166.907 128, 160.540 128 L 156.944 128 157.609 134.750" stroke="none" fill="#000000" fill-rule="evenodd"/><path fill-opacity=".422" d="M 113.250 39.662 C 111.341 40.433, 111.547 55.379, 113.489 56.991 C 115.731 58.852, 114.543 59.738, 108.749 60.527 C 102.394 61.391, 90.614 65.496, 86.500 68.281 C 84.850 69.397, 81.700 71.992, 79.500 74.048 C 77.300 76.103, 74.487 78.089, 73.250 78.460 C 70.592 79.257, 70.138 83.418, 72.560 84.774 C 73.961 85.558, 73.975 86.758, 72.695 96.573 C 71.912 102.583, 71.593 107.861, 71.987 108.301 C 72.380 108.742, 79.182 109.812, 87.101 110.680 C 101.846 112.296, 105.860 113.459, 99.880 114.383 C 91.555 115.670, 73.375 118.080, 61 119.536 C 53.575 120.411, 45.475 121.449, 43 121.844 L 38.500 122.563 46 123.807 C 50.125 124.491, 61.150 125.962, 70.500 127.077 C 79.850 128.192, 92.450 129.736, 98.500 130.509 C 104.550 131.281, 110.063 131.933, 110.750 131.957 C 113.272 132.044, 111.913 134.004, 109.250 134.119 C 107.231 134.206, 107.828 134.569, 111.500 135.485 C 117.671 137.025, 116.452 137.532, 103 139.020 C 97.225 139.659, 88.450 140.794, 83.500 141.543 C 78.550 142.291, 68.993 143.455, 62.262 144.130 C 55.531 144.805, 50.207 145.540, 50.431 145.765 C 50.879 146.213, 63.393 147.889, 89.500 150.997 C 98.850 152.111, 108.945 153.467, 111.934 154.011 C 114.922 154.555, 119.058 155, 121.125 155 C 124.823 155, 127.378 156.656, 124.813 157.390 C 124.091 157.597, 116.300 158.534, 107.500 159.472 C 98.700 160.411, 85.425 161.938, 78 162.866 L 64.500 164.553 63.797 168.526 C 63.411 170.712, 62.399 177.450, 61.548 183.500 C 60.311 192.296, 59.600 194.775, 58.001 195.872 C 55.707 197.445, 55.401 201.627, 57.387 204.243 C 59.216 206.652, 65.488 208.698, 75.065 210.009 C 88.819 211.892, 122.182 212.795, 143.808 211.868 C 176.163 210.483, 187.214 208.020, 189.436 201.702 C 190.230 199.445, 189.968 198.563, 187.821 196.255 C 185.565 193.829, 184.997 191.624, 183.060 177.767 C 181.851 169.114, 181.103 161.643, 181.398 161.165 C 181.694 160.686, 184.763 159.979, 188.218 159.592 C 204.113 157.812, 212.454 156.327, 210 155.715 C 206.437 154.825, 179.760 152, 174.921 152 C 171.536 152, 170.947 152.289, 171.361 153.750 C 171.634 154.713, 172.165 161.575, 172.541 169 C 172.918 176.425, 173.540 184.525, 173.924 187 L 174.622 191.500 157.599 190.332 C 148.236 189.689, 138.758 188.888, 136.538 188.551 L 132.500 187.938 132.279 181.719 C 132.158 178.299, 131.606 168.975, 131.054 161 C 130.502 153.025, 129.781 142, 129.451 136.500 C 128.730 124.450, 128.607 124, 126.031 124 C 123.369 124, 123.419 122.319, 126.105 121.467 C 128.096 120.835, 128.178 120.326, 127.617 112.149 C 127.290 107.392, 126.738 99, 126.390 93.500 C 126.043 88, 125.586 83.203, 125.376 82.840 C 124.375 81.113, 142.837 80.793, 153.766 82.347 C 160.018 83.237, 165.499 84.190, 165.946 84.466 C 166.392 84.742, 167.058 90.713, 167.426 97.734 C 167.793 104.755, 168.339 111.765, 168.640 113.311 L 169.186 116.121 177.117 115.429 C 181.479 115.049, 186.500 114.418, 188.274 114.027 C 190.955 113.436, 190.179 113.184, 183.678 112.534 C 174.319 111.598, 174.375 111.680, 172.570 96.187 C 171.435 86.446, 171.473 85.817, 173.245 84.869 C 176.259 83.256, 175.037 79.760, 170.755 77.748 C 168.695 76.781, 166.445 75.071, 165.755 73.950 C 162.707 68.998, 147.152 61.885, 136.189 60.431 C 131.105 59.756, 129.276 57.876, 132.500 56.638 C 134.741 55.779, 134.667 40.470, 132.418 39.607 C 130.547 38.889, 115.056 38.934, 113.250 39.662 M 116.250 40.706 C 114.262 41.089, 114 41.742, 114 46.320 L 114 51.500 123 51.500 L 132 51.500 132 46.725 C 132 42.520, 131.694 41.834, 129.435 40.975 C 126.886 40.006, 120.554 39.877, 116.250 40.706 M 119.111 44.183 C 117.844 47.540, 119.542 50.191, 122.716 49.810 C 128.297 49.140, 128.236 42.851, 122.642 42.183 C 120.622 41.942, 119.775 42.422, 119.111 44.183 M 121 46 C 121 47.506, 121.522 48.046, 122.750 47.810 C 123.713 47.624, 124.500 46.810, 124.500 46 C 124.500 45.190, 123.713 44.376, 122.750 44.190 C 121.522 43.954, 121 44.494, 121 46 M 117.131 56.342 C 115.427 58.396, 116.799 59, 123.167 59 C 127.486 59, 129 58.638, 129 57.607 C 129 56.841, 128.288 55.941, 127.418 55.607 C 124.580 54.518, 118.271 54.968, 117.131 56.342 M 112.500 61.654 C 96.622 65.008, 88.618 68.168, 82.500 73.499 L 79.500 76.113 84 75.533 C 101.860 73.230, 147.177 73.258, 161.500 75.580 L 165.500 76.228 163.035 73.571 C 159.225 69.463, 149.364 65.125, 138.956 62.977 C 130.384 61.209, 117.630 60.571, 112.500 61.654 M 98.500 77.097 C 85.514 78.158, 75.170 79.916, 74.378 81.197 C 73.997 81.814, 74.487 81.984, 75.625 81.629 C 86.331 78.288, 133.455 76.934, 154 79.376 C 161.425 80.259, 168.583 81.281, 169.906 81.648 C 171.497 82.089, 172.089 81.953, 171.653 81.247 C 169.304 77.447, 124.986 74.933, 98.500 77.097 M 170.197 134.653 L 170.500 140.500 175.500 140.250 C 180.912 139.980, 194.361 138.172, 200 136.956 C 203.469 136.208, 203.473 136.200, 200.500 136.085 C 197.092 135.954, 193.167 134.042, 196.250 134.015 C 197.213 134.007, 198 133.642, 198 133.204 C 198 132.767, 193.387 131.845, 187.750 131.157 C 182.113 130.469, 175.789 129.659, 173.697 129.356 L 169.894 128.806 170.197 134.653 M 77.750 194.662 C 78.438 194.940, 79.563 194.940, 80.250 194.662 C 80.938 194.385, 80.375 194.158, 79 194.158 C 77.625 194.158, 77.063 194.385, 77.750 194.662 M 165.813 194.683 C 166.534 194.972, 167.397 194.936, 167.729 194.604 C 168.061 194.272, 167.471 194.036, 166.417 194.079 C 165.252 194.127, 165.015 194.364, 165.813 194.683 M 103.500 196.017 C 94.700 196.414, 85.250 197.046, 82.500 197.421 C 62.414 200.161, 59.021 201.115, 60.976 203.472 C 62.369 205.150, 64.152 205.588, 77.592 207.556 C 92.348 209.717, 134.551 210.589, 152.285 209.100 C 168.488 207.739, 182.825 205.390, 184.768 203.777 C 190.695 198.859, 142.492 194.255, 103.500 196.017" stroke="none" fill="#000000" fill-rule="evenodd"/><path fill-opacity=".91" d="M 113.750 40.080 C 112.787 40.641, 112.007 41.640, 112.015 42.300 C 112.025 43.029, 112.402 42.911, 112.976 42 C 113.637 40.952, 116.420 40.325, 122.211 39.919 L 130.500 39.338 123 39.200 C 118.875 39.123, 114.713 39.519, 113.750 40.080 M 131.750 41.075 C 132.978 42.376, 133.528 51.138, 132.450 52.217 C 132.147 52.519, 130.235 52.368, 128.200 51.880 C 126.165 51.393, 121.688 51.273, 118.250 51.614 C 113.161 52.118, 112 52.563, 112 54.010 C 112 54.987, 112.675 56.045, 113.500 56.362 C 115.780 57.237, 115.291 59.805, 112.750 60.294 C 111.513 60.533, 115.862 60.789, 122.417 60.864 C 128.971 60.939, 134.025 60.692, 133.649 60.316 C 133.273 59.940, 129.148 59.737, 124.483 59.866 L 116 60.099 116 57.550 C 116 55.083, 116.207 55, 122.393 55 C 127.195 55, 128.931 55.379, 129.370 56.523 C 129.859 57.796, 130.292 57.837, 132.010 56.773 C 133.832 55.645, 134.033 54.657, 133.783 48.080 C 133.571 42.530, 133.122 40.546, 132 40.205 C 130.789 39.838, 130.741 40.006, 131.750 41.075 M 120.571 43.571 C 118.635 45.507, 118.620 46.106, 120.441 48.559 C 121.595 50.112, 122.244 50.279, 123.691 49.393 C 125.964 48.002, 126.531 45.345, 124.960 43.452 C 123.422 41.598, 122.520 41.623, 120.571 43.571 M 120.441 45.096 C 119.559 46.522, 122.478 49.441, 123.904 48.559 C 125.810 47.382, 125.183 44, 123.059 44 C 121.991 44, 120.813 44.493, 120.441 45.096 M 106.813 61.683 C 107.534 61.972, 108.397 61.936, 108.729 61.604 C 109.061 61.272, 108.471 61.036, 107.417 61.079 C 106.252 61.127, 106.015 61.364, 106.813 61.683 M 137.813 61.683 C 138.534 61.972, 139.397 61.936, 139.729 61.604 C 140.061 61.272, 139.471 61.036, 138.417 61.079 C 137.252 61.127, 137.015 61.364, 137.813 61.683 M 145.500 64 C 146.600 64.473, 148.175 64.859, 149 64.859 C 149.945 64.859, 149.761 64.542, 148.500 64 C 147.400 63.527, 145.825 63.141, 145 63.141 C 144.055 63.141, 144.239 63.458, 145.500 64 M 94 65 C 92.172 66.181, 93.751 66.181, 96.500 65 C 97.819 64.433, 97.989 64.122, 97 64.086 C 96.175 64.055, 94.825 64.467, 94 65 M 156.559 68.561 C 163.162 72.518, 165.679 74.655, 164.787 75.546 C 164.461 75.873, 157.797 75.595, 149.980 74.928 C 136.525 73.781, 100.956 74.135, 85.500 75.570 L 79.500 76.126 82.515 73.313 C 84.173 71.766, 86.648 69.702, 88.015 68.727 C 90.461 66.982, 90.449 66.979, 87.198 68.530 C 85.381 69.397, 82.231 71.781, 80.198 73.829 C 78.164 75.877, 75.232 78.108, 73.682 78.786 C 71.598 79.698, 70.946 80.603, 71.182 82.260 C 71.566 84.965, 72.566 84.989, 89.500 82.699 C 113.634 79.436, 150.751 79.906, 165.713 83.664 C 171.360 85.082, 172.327 85.101, 173.611 83.818 C 175.612 81.816, 174.435 79.347, 170.890 78.112 C 169.268 77.546, 166.767 75.688, 165.332 73.983 C 163.897 72.278, 160.423 69.563, 157.612 67.951 C 150.328 63.773, 149.435 64.291, 156.559 68.561 M 89.383 77.098 C 80.022 78.350, 73.761 80.216, 73.192 81.924 C 72.850 82.951, 73.340 83.131, 75.116 82.628 C 91.905 77.875, 146.890 77.175, 165.500 81.478 C 168.800 82.241, 171.877 82.497, 172.337 82.046 C 173.536 80.872, 172.102 80.221, 164.357 78.420 C 156.160 76.515, 101.015 75.542, 89.383 77.098 M 90.500 190.047 C 61.924 192.227, 52.946 195.646, 57.166 202.739 C 59.236 206.218, 65.701 208.514, 78.190 210.205 C 90.428 211.863, 155.206 211.865, 166.903 210.208 C 180.205 208.324, 186.427 206.262, 188.162 203.165 C 192.138 196.063, 185.919 193.282, 161 191.019 C 144.532 189.524, 104.575 188.973, 90.500 190.047 M 98.500 192.037 C 76.419 193.187, 59.602 195.990, 58.564 198.693 C 58.124 199.839, 58.419 200.045, 59.739 199.514 C 69.085 195.754, 80.502 194.376, 110.500 193.386 C 140.803 192.386, 177.974 195.240, 185.230 199.123 C 186.375 199.736, 187 199.717, 187 199.070 C 187 197.251, 183.518 196.159, 172.447 194.505 C 152.255 191.488, 125.922 190.609, 98.500 192.037 M 93 195.695 C 83.348 196.265, 65.768 199.070, 62.073 200.628 L 58.500 202.136 60.719 203.953 C 65.488 207.858, 78.336 209.244, 114.434 209.747 C 150.293 210.246, 167.615 209.297, 179.069 206.205 C 193.679 202.263, 184.347 198.378, 154.605 196.022 C 142.860 195.091, 106.483 194.898, 93 195.695" stroke="none" fill="#000000" fill-rule="evenodd"/></svg>