<svg xmlns="http://www.w3.org/2000/svg" width="64" height="64" fill="#000000"><path fill-opacity=".078" fill-rule="evenodd" d="M14.15 12.696c-.922.367.347 2.263 4 5.975 2.942 2.99 4.559 5.138 3.592 4.773-3.051-1.152-8.658.543-12.263 3.709C7.565 28.833 6 30.611 6 31.104S8.946 32 12.547 32h6.547l-2.952 3.75c-3.324 4.223-4.573 8.685-3.56 12.719.674 2.687.82 2.592 10.051-6.601L32 32.54l9.367 9.328c9.231 9.193 9.377 9.288 10.051 6.601 1.013-4.034-.236-8.496-3.56-12.719L44.906 32h6.547c3.601 0 6.547-.403 6.547-.896s-1.565-2.271-3.479-3.951c-3.606-3.167-9.213-4.862-12.263-3.708-.967.366.492-1.626 3.241-4.427 4.095-4.172 4.728-5.264 3.5-6.04-.824-.521-2.399-.944-3.499-.941-3.174.011-10.085 3.532-11.835 6.031l-1.6 2.284-2.2-2.797c-3.464-4.404-11.005-6.735-15.715-4.859"/><path fill-opacity=".2" fill-rule="evenodd" d="M14 13.429c0 .236 2.313 2.636 5.141 5.333l5.141 4.905h-4.513c-4.983 0-10.171 2.519-12.526 6.083L5.756 32l7.372.032c6.664.029 7.188.171 5.452 1.484-3.615 2.735-5.567 6.845-5.573 11.734-.004 2.612.322 4.75.723 4.75.402 0 4.677-3.928 9.5-8.729L32 32.542l8.77 8.729C45.593 46.072 49.868 50 50.27 50s.73-2.15.73-4.777c0-4.864-1.566-8.14-5.469-11.44-1.953-1.651-1.749-1.718 5.341-1.75L58.244 32l-1.487-2.25c-2.392-3.619-7.502-6.071-12.496-5.995l-4.518.068 5.344-5.411L50.432 13h-4.266c-4.981 0-9.178 1.928-11.998 5.513l-2.008 2.553-1.525-2.177c-2.67-3.811-6.84-5.875-11.885-5.882-2.613-.004-4.75.186-4.75.422"/><path fill-opacity=".351" fill-rule="evenodd" d="m19 18.5 5.432 5.5h-4.315c-5.221 0-10.439 2.317-12.581 5.586L5.954 32H21.27l-2.756 2.168c-1.516 1.192-3.377 3.653-4.135 5.468C12.914 43.141 12.508 49 13.73 49c.402 0 4.677-3.928 9.5-8.729L32 31.542l8.77 8.729C45.593 45.072 49.868 49 50.27 49c1.222 0 .816-5.859-.649-9.364-.758-1.815-2.619-4.276-4.135-5.468L42.73 32h7.135c3.924 0 7.135-.366 7.135-.813s-1.38-2.135-3.066-3.75c-2.677-2.565-3.806-2.937-8.916-2.937-4.522 0-6.551.518-8.934 2.28L33 29.06l-.004-2.78c-.009-6.805-7.294-13.27-14.962-13.276L13.568 13z"/><path fill-opacity=".23" fill-rule="evenodd" d="M14.001 25.123c-2.507 1-7 4.722-7.002 5.801-.001.566 7.363.523 17.802-.105l5.301-.319-3.536-3.25c-3.743-3.44-7.624-4.097-12.565-2.127m29.268-.43c.973.254 2.323.237 3-.037s-.119-.481-1.769-.461-2.204.244-1.231.498M54 28.5c1.292 1.375 2.574 2.5 2.849 2.5s-.557-1.125-1.849-2.5-2.574-2.5-2.849-2.5.557 1.125 1.849 2.5M21.978 40.75 13.5 49.5l8.75-8.478C30.377 33.148 31.456 32 30.728 32c-.15 0-4.087 3.938-8.75 8.75m-5.106-5c-1.243 1.586-1.208 1.621.378.378.962-.755 1.75-1.543 1.75-1.75 0-.823-.821-.294-2.128 1.372m-3.793 9.833c.048 1.165.285 1.402.604.605.289-.722.253-1.585-.079-1.917s-.568.258-.525 1.312"/></svg>