<svg xmlns="http://www.w3.org/2000/svg" width="24" height="24" fill="#000000"><path fill="#828282" d="m19.843 3.428-2.967 1.716-2.975-1.716-5.926 3.428L5 5.136 13.9 0l5.943 3.428Zm-5.934 6.86-5.934 3.428 2.967 1.716 5.934-3.428-2.963-1.716h-.004Z"/><path fill="#404040" d="M13.909 3.424v6.856l2.967 1.716V5.14l-2.967-1.716Zm-2.967 12v3.428l-2.967-1.716v6.86l-2.971-1.708V5.14L7.97 6.856v6.856l2.967 1.716.004-.004Z"/><path fill="#b2b2b2" d="M10.943 15.428v6.86L7.976 24v-6.86l2.967 1.716v-3.428Zm2.963-12L10.938 5.14 7.976 6.856v6.856L10.943 12V8.212L13.906 6.5V3.428Zm2.97 1.712v6.868l-5.933 3.424v3.428l8.9-5.152V3.428l-2.966 1.716V5.14Z"/></svg>