<svg xmlns="http://www.w3.org/2000/svg" width="200" height="200" fill="#000000"><path fill-opacity=".118" fill-rule="evenodd" d="M2.455 2.455 0 4.909v190.182l2.455 2.454L4.909 200h190.289l2.901-3.106 2.901-3.106v-95.06c0-52.284-.252-94.809-.561-94.501-.308.309-1.637-.516-2.954-1.833L195.091 0H4.909zM.48 100c0 52.525.121 74.012.27 47.75.148-26.263.148-69.238 0-95.5C.601 25.987.48 47.475.48 100m47.005-56.75c.322 3.438 1.493 12.775 2.602 20.75a3613 3613 0 0 1 3.515 26c.824 6.325 2.368 17.8 3.432 25.5 2.647 19.154 4.803 35.867 5.515 42.75l.595 5.75h29.579l-.942-4.75c-.518-2.613-1.808-8.8-2.868-13.75-2.976-13.903-4.987-12.5 17.919-12.5 17.416 0 20.654-.258 26.587-2.12 8.551-2.684 12.289-6.341 15.768-15.425 6.743-17.604 5.144-43.291-3.47-55.767-2.017-2.921-11.384-7.69-15.091-7.685-1.169.002-5.276-.861-9.126-1.917s-11.5-2.647-17-3.537c-12.938-2.093-30.574-5.291-42.278-7.666C57.119 37.847 51.584 37 49.922 37h-3.021zm25.512 21.5c-.002 1.513.886 6.575 1.973 11.25s2.692 12.325 3.565 17c2.574 13.785 3.696 18.755 4.544 20.128.582.941 5.102 1.399 16.61 1.681 13.917.341 16.41.153 20.811-1.572 3.974-1.559 5.506-2.861 7.467-6.349 2.198-3.91 2.462-5.532 2.423-14.888-.064-15.64-2.879-19.943-14.39-21.995-4.542-.81-13.103-2.447-31.598-6.042C78.847 62.883 74.01 62 73.652 62s-.653 1.237-.655 2.75"/><path fill-opacity=".271" fill-rule="evenodd" d="M2.455 2.455 0 4.909v190.182l2.455 2.454L4.909 200h190.289l2.901-3.106 2.901-3.106v-95.06c0-52.284-.252-94.809-.561-94.501-.308.309-1.637-.516-2.954-1.833L195.091 0H4.909zM.48 100c0 52.525.121 74.012.27 47.75.148-26.263.148-69.238 0-95.5C.601 25.987.48 47.475.48 100m46.75-57.184c.453 3.676 1.69 12.984 2.75 20.684s2.638 19.625 3.507 26.5c1.908 15.103 5.024 37.885 7.044 51.5.815 5.5 1.48 11.406 1.476 13.125s.274 4.531.618 6.25L63.25 164h14.982c13.867 0 14.93-.13 14.286-1.75-.383-.963-1.063-4.225-1.511-7.25-.449-3.025-1.533-8.565-2.411-12.312S87 135.5 87 135.041s9.112-1.023 20.25-1.251c17.437-.358 21.046-.708 25.979-2.52 8.683-3.189 11.276-5.519 15.078-13.548 6.9-14.571 7.199-37.992.666-52.222-4.333-9.44-5.521-10.167-25.202-15.432C119.52 48.93 115.079 48 113.903 48c-2.026 0-5.63-.62-29.403-5.059-15.224-2.842-31.648-5.813-35.046-6.338l-3.047-.472zm25.98 23.296c.238 2.413 1.17 7.313 2.071 10.888.9 3.575 2.344 10.325 3.207 15 2.04 11.049 4.411 21.233 5.107 21.928.303.303 8.281.556 17.728.562 19.846.012 22.345-.783 26.594-8.457 2.113-3.818 2.413-5.631 2.393-14.449-.04-17.482-2.067-19.37-25.31-23.564-12.066-2.177-24.962-4.667-29.862-5.766-2.249-.505-2.341-.322-1.928 3.858"/><path fill-opacity=".726" fill-rule="evenodd" d="M2.636 2.636 0 5.273v189.454l2.636 2.637L5.273 200h189.49l3.118-3.19 3.119-3.19V98.81c0-52.145-.346-94.698-.769-94.56s-1.858-.763-3.189-2L194.623 0H5.273zM.48 100c0 52.525.121 74.012.27 47.75.148-26.263.148-69.238 0-95.5C.601 25.987.48 47.475.48 100m45.877-61.667c.292 1.192.798 4.642 1.124 7.667s1.466 11.8 2.534 19.5 2.633 19.4 3.48 26c2.013 15.699 5.239 39.462 7.06 52 .798 5.5 1.45 11.651 1.448 13.668-.006 6.999-.402 6.832 16.211 6.832 13.767 0 14.946-.141 14.341-1.718-.363-.944-1.078-4.882-1.59-8.75-.512-3.867-1.609-9.507-2.436-12.532-.828-3.025-1.511-5.798-1.517-6.163-.007-.364 9.326-.85 20.738-1.081 17.905-.36 21.494-.701 26.177-2.485 10.626-4.046 15.979-11.582 18.663-26.271 3.136-17.161-.121-37.888-7.329-46.638-1.848-2.245-10.36-6.364-13.138-6.359-.893.002-4.773-.857-8.623-1.908-6.937-1.894-15.891-3.595-26.5-5.034-5.157-.699-8.945-1.398-33-6.091-5.225-1.02-11.452-2.067-13.837-2.328-4.045-.443-4.302-.329-3.806 1.691M73 64.017c0 1.131.864 5.752 1.919 10.269S77.568 86.325 78.46 91c2.445 12.817 4.586 21.392 5.602 22.437.502.515 8.23.965 17.175 1 18.978.074 22.541-.995 26.468-7.937 3.131-5.536 3.316-21.937.324-28.7-1.769-4-2.509-4.618-7.25-6.054C113.573 69.563 96.12 66 92.634 66c-1.565 0-5.385-.628-8.49-1.396C72.603 61.751 73 61.772 73 64.017"/><path fill-opacity=".711" fill-rule="evenodd" d="M4.303 1.197c-1.209.584-2.671 2.421-3.25 4.081-1.54 4.419-1.459 186.737.085 190.125.626 1.374 2.493 2.97 4.149 3.547 4.494 1.567 186.74 1.45 190.19-.121 1.414-.645 2.834-2.22 3.155-3.5.322-1.281.986-2.329 1.476-2.329.516 0 .892-39.412.892-93.5 0-57.163-.362-93.5-.933-93.5-.513 0-1.196-.832-1.519-1.848s-1.724-2.367-3.114-3C192-.413 7.544-.369 4.303 1.197M.48 100.5c0 51.7.121 72.703.27 46.674.148-26.029.148-68.329 0-94C.601 27.503.48 48.8.48 100.5m45.88-60.803c.351 2.092.885 6.278 1.186 9.303s1.427 11.575 2.501 19c1.075 7.425 2.642 18.9 3.483 25.5s2.401 18.3 3.466 26c2.653 19.165 4.997 37.391 5.274 41l.23 3 15.38.277 15.381.276-.699-3.276c-.385-1.802-1.098-5.752-1.586-8.777-.487-3.025-1.576-7.975-2.419-11s-1.539-5.838-1.545-6.25 8.876-.759 19.738-.771c18.353-.02 20.239-.194 26.667-2.462 3.805-1.342 7.18-2.828 7.5-3.302.321-.473 1.37-1.151 2.333-1.507s1.75-1.334 1.75-2.177c0-.842.34-1.531.756-1.531 1.338 0 5.442-10.106 6.864-16.903 3.48-16.634-.243-40.558-7.494-48.15C143.08 55.805 135.611 52 133.454 52c-.895 0-4.85-.861-8.79-1.914S113 47.423 107.5 46.508c-13.583-2.259-30.053-5.23-41.5-7.484-5.225-1.029-11.925-2.154-14.889-2.5l-5.39-.63zM73 64.036c0 .57.864 4.733 1.919 9.25S77.576 85.325 78.478 90c.901 4.675 2.368 11.722 3.259 15.661 1.947 8.611 1.253 8.339 21.305 8.339 11.434 0 14.567-.332 18.324-1.943 6.433-2.757 8.634-7.834 8.634-19.919 0-15.085-3.112-19.725-14.5-21.62-2.2-.366-8.275-1.499-13.5-2.517-27.548-5.37-29-5.568-29-3.965"/></svg>