<svg xmlns="http://www.w3.org/2000/svg" width="32" height="32" fill="#000000"><g clip-path="url(#a)"><path fill="#000000" d="M16 32c8.837 0 16-7.163 16-16S24.837 0 16 0 0 7.163 0 16s7.163 16 16 16"/><path fill="#A3A3A3" d="M11.53 14.182c-.32.049-.64-.13-.971-.25-.13-.048-.238-.153-.352-.239a5.7 5.7 0 0 1-.81-.755c-.232-.258-.497-.484-.737-.735-.52-.545-1.082-1.05-1.593-1.605a2.46 2.46 0 0 1-.63-1.378 2.3 2.3 0 0 1 .124-1.127c.242-.659.662-1.152 1.321-1.445a2.54 2.54 0 0 1 1.488-.183c.226.037.444.101.645.192.19.085.385.185.536.34.228.236.46.472.694.698.335.324.66.66.996.985q.685.664 1.345 1.354c.265.276.422.62.504.99.036.164.104.32.109.49.015.517-.111.989-.37 1.44-.168.291-.357.556-.635.738-.486.319-1.016.516-1.665.49z"/><path fill="#ABABAB" d="M6.432 23.094c-.023-.745.247-1.333.745-1.828.916-.913 1.827-1.832 2.746-2.742.555-.55 1.24-.786 2.01-.713.519.049.985.26 1.393.6.307.254.492.583.67.932.236.464.246.937.16 1.425a2.4 2.4 0 0 1-.402.997c-.194.266-.446.485-.683.714-.239.232-.472.471-.709.708-.572.574-1.138 1.153-1.72 1.717-.397.384-.886.585-1.436.657-.32.043-.617-.014-.928-.081-.697-.153-1.151-.59-1.52-1.159a2.06 2.06 0 0 1-.326-1.225z"/><path fill="#616161" d="M17.84 20.333c-.039-.438.083-.854.286-1.248.198-.383.492-.688.859-.901a2.57 2.57 0 0 1 1.58-.346c.718.07 1.264.417 1.745.916.28.292.576.569.854.863.325.345.663.676 1.002 1.006.267.259.55.502.794.782.453.519.672 1.114.617 1.806-.06.757-.375 1.378-.975 1.841-.606.467-1.298.597-2.038.457-.666-.125-1.148-.545-1.603-1.019-.67-.7-1.363-1.38-2.052-2.062-.2-.2-.408-.394-.577-.62-.321-.432-.537-.907-.49-1.477z"/><path fill="#969696" d="M17.855 11.726c.027-.365.023-.806.243-1.21.128-.234.297-.435.484-.62.53-.529 1.076-1.045 1.605-1.576q.604-.603 1.198-1.216c.274-.283.618-.463 1.003-.577.585-.174 1.151-.113 1.695.115.474.198.86.522 1.107.988.037.07.09.13.123.202.4.836.302 1.641-.146 2.43-.18.317-.467.534-.711.788a79 79 0 0 1-1.722 1.742c-.326.319-.62.679-.996.942-.308.217-.663.332-1.033.396-.329.056-.656.022-.983-.032-.393-.065-.715-.263-1.019-.51-.32-.263-.533-.597-.706-.962-.123-.26-.127-.544-.144-.899z"/><path fill="#FFFFFF" d="M18.54 16.03c.05 1.427-1.177 2.425-2.273 2.497-.742.048-1.41-.13-1.962-.62a2.47 2.47 0 0 1-.855-2.026c.055-1.331 1.073-2.346 2.31-2.428 1.71-.113 2.836 1.194 2.78 2.578"/></g><defs><clipPath id="a"><path fill="#FFFFFF" d="M0 0h32v32H0z"/></clipPath></defs></svg>