<svg xmlns="http://www.w3.org/2000/svg" width="200" height="200" fill="#000000"><path fill-opacity=".431" fill-rule="evenodd" d="M0 100.005V200.01l100.25-.255 100.25-.255.255-99.75L201.01 0H0zm.481.495c0 55 .121 77.647.269 50.326.148-27.32.148-72.32 0-100C.602 23.147.481 45.5.481 100.5M56 98.039v42.373l21.608-35.456c11.885-19.501 21.745-35.603 21.911-35.784s2.93 4.013 6.142 9.317c8.413 13.894 7.57 13.094 9.674 9.188l1.82-3.38-8.698-14.195c-4.783-7.807-8.81-14.062-8.948-13.898S91.489 69.325 81.993 85c-9.497 15.675-17.655 28.927-18.13 29.45-.487.536-.85-6.866-.833-17l.031-17.95 3.337 5.818 3.338 5.819 1.944-3.319 1.944-3.318-8.417-14c-4.629-7.7-8.594-14.187-8.812-14.417-.217-.229-.395 18.651-.395 41.956m66.148-7.588c-11.194 18.395-20.869 34.132-21.5 34.971-.95 1.262-2.292-.375-7.776-9.486l-6.628-11.011-2.019 3.189-2.02 3.19 8.331 13.576c4.582 7.466 8.698 13.695 9.147 13.842s5.092-6.791 10.317-15.417 13.213-21.786 17.75-29.243l8.25-13.56-.022 17.499-.022 17.499-3.099-5.316-3.098-5.316-1.928 3.17c-1.061 1.744-1.794 3.479-1.63 3.857.165.377 3.899 6.59 8.299 13.807l8 13.12.27-20.411c.149-11.226.149-29.635 0-40.909l-.27-20.498z"/><path fill-opacity=".642" fill-rule="evenodd" d="M0 100.005V200.01l100.25-.255 100.25-.255.255-99.75L201.01 0H0zm.481.495c0 55 .121 77.647.269 50.326.148-27.32.148-72.32 0-100C.602 23.147.481 45.5.481 100.5M56 98c0 23.283.171 42.146.38 41.917.292-.321 26.417-43.097 41.375-67.747l2.021-3.33 6.731 11.172 6.732 11.173 1.874-2.843c1.031-1.563 1.877-3.249 1.88-3.746.008-.992-14.618-25.352-16.402-27.319-.839-.926-5.493 5.953-19.1 28.233L63.5 114.966l-.289-8.483c-.159-4.666-.159-12.42 0-17.233l.289-8.75 3.092 5.316 3.092 5.315 1.825-2.785c1.003-1.531 1.822-3.248 1.82-3.815-.004-.843-15.6-27.044-16.933-28.448C56.178 55.854 56 74.717 56 98m65.101-6.122-21.398 35.183-6.547-10.968c-3.601-6.033-6.912-10.744-7.359-10.468-.446.276-1.439 1.716-2.206 3.199-1.339 2.59-1.049 3.267 7.257 16.925 7.269 11.953 8.84 13.975 9.828 12.649.647-.868 8.747-13.986 18-29.152L135.5 81.673l.29 8.164c.16 4.489.16 11.876 0 16.413l-.29 8.25-2.857-4.861-2.857-4.861-1.887 2.861c-1.037 1.574-1.889 3.192-1.892 3.596-.004.405 3.705 6.82 8.243 14.257l8.25 13.522.27-20.507c.149-11.279.149-29.801 0-41.16l-.27-20.653z"/><path fill-opacity=".75" fill-rule="evenodd" d="M0 100.005V200.01l100.25-.255 100.25-.255.255-99.75L201.01 0H0zm.481.495c0 55 .121 77.647.269 50.326.148-27.32.148-72.32 0-100C.602 23.147.481 45.5.481 100.5M56 98.032v42.432l2.319-3.482c1.275-1.915 11.042-17.819 21.702-35.341 22.209-36.502 18.948-34.191 27.59-19.557 2.6 4.404 5.038 8.199 5.417 8.433s1.491-1.065 2.472-2.886l1.783-3.312-8.391-14.132c-4.616-7.772-8.665-14.144-8.999-14.159S91.712 68.487 82.456 83.75s-17.42 28.638-18.143 29.723c-1.109 1.665-1.309-.744-1.29-15.5l.022-17.473 3.382 5.432 3.381 5.432 2.044-3.362c1.125-1.848 1.916-3.617 1.758-3.931-.967-1.927-16.095-26.743-16.777-27.521-.458-.522-.833 18.144-.833 41.482M122.133 90c-11.202 18.425-20.912 34.082-21.578 34.792-.968 1.033-2.502-.834-7.633-9.289L86.5 104.922l-2.251 2.789c-1.238 1.534-2.001 3.454-1.694 4.266.306.813 4.233 7.446 8.726 14.74 6.286 10.206 8.431 12.977 9.307 12.023.626-.682 8.237-12.94 16.914-27.24s16.388-26.888 17.137-27.973c1.172-1.699 1.358.31 1.342 14.5l-.019 16.473-3.009-4.792c-3.262-5.195-4.051-5.301-5.918-.793-1.165 2.813-.815 3.636 7.12 16.722l8.345 13.764.27-20.7c.149-11.386.149-30.038 0-41.451l-.27-20.75z"/><path fill-opacity=".846" fill-rule="evenodd" d="M0 100.005V200.01l100.25-.255 100.25-.255.255-99.75L201.01 0H0zm.481.495c0 55 .121 77.647.269 50.326.148-27.32.148-72.32 0-100C.602 23.147.481 45.5.481 100.5m55.549-1.719c.023 32.37.306 42.234 1.165 40.719.624-1.1 1.548-2.275 2.055-2.612.506-.336.913-1.011.903-1.5C60.124 133.863 65.93 125 66.959 125c.538 0 .719-.675.403-1.5-.317-.825-.127-1.5.423-1.5.549 0 1.255-1.021 1.568-2.27.313-1.248 1.378-3.161 2.365-4.25s2.358-3.243 3.043-4.786c.755-1.699 1.701-2.526 2.398-2.096.71.439.878.27.438-.441-.765-1.238 2.277-7.157 3.678-7.157.463 0 .565-.45.225-1s-.194-1 .324-1c.519 0 1.207-.787 1.53-1.75.324-.963 1.034-2.425 1.579-3.25s3.986-6.45 7.645-12.5 6.8-11.162 6.98-11.359c.487-.536 6.972 10.237 6.687 11.109-.135.412.205.75.755.75s1 .469 1 1.042.455 1.586 1.011 2.25 1.942 2.45 3.08 3.968c2.05 2.733 4.542 2.832 3.509.139-.296-.77-.154-1.399.315-1.399 2.01 0 1.699-4.103-.562-7.432-1.334-1.962-2.105-3.568-1.715-3.568.391 0-.315-1.092-1.568-2.426-1.398-1.488-1.984-2.938-1.514-3.75.42-.728.395-.989-.056-.58-1.137 1.03-3.782-2.979-2.903-4.4.394-.638.277-.884-.263-.551-.536.332-2.275-1.624-3.864-4.345-1.59-2.721-3.22-4.948-3.624-4.948s-1.53 1.35-2.505 3-2.125 3-2.557 3-.684.337-.562.75c.363 1.221-3.37 6.276-4.238 5.74-.439-.271-.562.408-.274 1.509.293 1.119.031 2.001-.593 2.001-.615 0-1.117.466-1.117 1.036C88 74.767 74.94 96 73.875 96c-.546 0-.737.414-.425.919.313.506-.051 1.54-.809 2.297-.757.758-1.692 2.369-2.076 3.581S69.446 105 68.933 105s-.933.675-.933 1.5-.477 1.5-1.059 1.5-.781.45-.441 1 .141 1-.441 1-1.059.702-1.059 1.559-.45 1.281-1 .941c-1.466-.906-1.321-28.184.155-29.095.715-.443.883-.275.44.44-.392.635-.248 1.155.32 1.155 1.298 0 4.227 5.525 3.378 6.373-.344.345-.393.627-.108.627s1.895-1.316 3.578-2.924l3.06-2.924-2.369-4.451c-1.304-2.449-2.051-4.805-1.662-5.237.389-.431.159-.469-.513-.083-.779.447-1.451-.217-1.858-1.84C68.07 73.143 67.355 72 66.833 72c-.523 0-.69-.422-.371-.939s-.015-1.303-.743-1.75c-1.659-1.017-7.748-10.948-7.107-11.59.261-.261-.22-.74-1.069-1.066-1.376-.528-1.54 4.027-1.513 42.126M142 57.059c0 .582-.52.738-1.155.346-.701-.434-.883-.276-.463.403.583.944-3.394 8.619-5.281 10.193-.331.275-1.32 1.85-2.2 3.5-4.114 7.717-11.715 19.352-12.276 18.791-.344-.344-.625.35-.625 1.541 0 1.192-.45 2.167-1 2.167s-.9.338-.778.75c.363 1.221-3.37 6.276-4.238 5.74-.439-.271-.562.408-.274 1.509.293 1.119.031 2.001-.593 2.001-.615 0-1.117.485-1.117 1.077 0 1.164-10.859 19.718-11.926 20.377-.355.22-3.495-4.292-6.977-10.027-3.66-6.03-6.983-10.427-7.88-10.427-.853 0-1.266.284-.919.631s-.028 1.573-.833 2.723C81.787 110.749 81.52 114 83 114c.55 0 1 .675 1 1.5s.338 1.5.75 1.501c1.238.002 6.262 9.647 5.477 10.516-.4.442-.197.5.451.129.7-.401 1.464.226 1.882 1.543.387 1.22 1.319 2.833 2.072 3.586.752.752 1.368 2.011 1.368 2.796 0 .786.381 1.429.847 1.429s1.288.988 1.827 2.195c.93 2.085 1.097 1.985 3.337-2 1.296-2.307 2.751-4.195 3.232-4.195s.597-.45.257-1-.194-1 .324-1c.519 0 1.207-.787 1.53-1.75.324-.963 1.031-2.425 1.573-3.25 1.473-2.244 16.189-26.551 20.585-34 6.775-11.483 6.308-11.849 6.432 5.043.105 14.179-.006 15.151-1.569 13.853-.925-.767-2.233-2.706-2.906-4.308l-1.225-2.913-2.716 4.104c-2.079 3.141-2.45 4.411-1.582 5.412 2.79 3.219 10.931 17.199 10.46 17.962-.288.466-.061.847.505.847s2.055 1.797 3.309 3.992 2.618 3.996 3.03 4S144 121.1 144 98c0-27.333-.349-42-1-42-.55 0-1 .477-1 1.059"/></svg>