<svg xmlns="http://www.w3.org/2000/svg" width="200" height="200" fill="#000000"><path fill-opacity=".455" fill-rule="evenodd" d="M81.5 11.971C61.907 14.691 43.281 26.922 36.531 41.5c-4.955 10.703-6.464 17.458-6.753 30.245-.153 6.734-.592 12.247-.976 12.25C27.61 84.004 23 88.666 23 89.862c0 .624-1.575 2.803-3.5 4.844s-3.5 4.517-3.5 5.502c0 .986-.378 1.792-.839 1.792-1.167 0-2.951 4.23-2.426 5.75.237.687 1.182 1.262 2.098 1.277 1.706.029 6.167 7.632 6.167 10.511 0 2.595 2.952 7.462 4.526 7.462 1.682 0 1.68-.021.532 5.927-1.05 5.442.216 8.624 3.95 9.926 2.046.713 2.898 1.833 3.39 4.453.769 4.1 4.125 6.686 9.637 7.426l3.759.504-2.147 3.467a381 381 0 0 1-3.886 6.132c-.957 1.466-2.298 3.79-2.98 5.165s-1.494 2.725-1.804 3C34.721 174.115 27 191.274 27 192.951c0 .631-.687 2.476-1.526 4.099L23.949 200H200v-33.082l-3.211-6.209c-3.93-7.599-17.197-21.193-24.289-24.886-14.009-7.296-13.487-7.071-22.655-9.789l-7.655-2.269 2.752-4.666c3.481-5.904 6.898-16.271 7.271-22.06.277-4.302.437-4.505 4.465-5.666 8.415-2.426 16.337-8.587 22.336-17.373 1.314-1.925 2.713-3.729 3.108-4.009C183.336 69.129 187 59.065 187 56.59c0-5.306-9.368-19.59-12.848-19.59-.634 0-1.152-.429-1.152-.953 0-1.585-8.991-5.047-13.107-5.047-2.119 0-5.549.61-7.623 1.355-6.768 2.433-14.711 4.634-17.657 4.892-2.688.236-3.091-.224-5.835-6.654-1.622-3.798-3.55-7.508-4.286-8.244s-2.16-2.353-3.165-3.594c-4.163-5.139-9.588-6.924-22.136-7.283-6.43-.184-14.391.041-17.691.499m7.554 46.643c-7.752 1.406-11.916 3.734-8.81 4.926.88.338 2.505.129 3.612-.463C86.309 61.764 87 61.726 87 62.902c0 1.204-5.643 3.118-8.899 3.019-1.431-.043-2.064-.297-1.407-.565.656-.267.951-1.118.654-1.892-.445-1.159-1.221-1.059-4.404.565-2.125 1.084-4.445 1.985-5.154 2.003-.71.017-2.147.68-3.193 1.472-1.872 1.417-1.872 1.451 0 2.041 1.046.331 3.413 1.259 5.259 2.062 2.346 1.022 3.731 1.151 4.601.429.685-.568 3.449-1.296 6.144-1.617 3.619-.431 4.507-.305 3.399.483-.825.587-2.711 1.074-4.191 1.083-6.122.035-2.452 3.679 5.493 5.453 2.547.569 2.707.447 1.75-1.34-1.876-3.505-1.115-3.572 1.428-.125 1.914 2.594 4.044 3.857 9.341 5.536C104.11 83.503 114 85.414 114 84.636c0-.179-.889-2.983-1.975-6.231s-1.961-6.355-1.943-6.905c.048-1.445 4.918 9.505 4.918 11.057 0 2.23 3.014 4.443 6.051 4.443 2.165 0 3.967-1.149 7.056-4.5C132.172 78.09 134 77.004 134 79c0 .55-.511 1-1.135 1-1.294 0-5.865 4.655-5.865 5.972 0 .478 1.408 1.178 3.13 1.556 2.814.619 3.508.249 6.893-3.67l3.764-4.358-2.644-.788c-1.454-.433-4.937-1.186-7.74-1.673-6.398-1.11-12.403-3.577-12.403-5.095 0-.7.692-.884 1.75-.466 3.148 1.245 8.25 1.803 8.246.903-.002-.485-.895-2.344-1.985-4.131S124.448 65 124.96 65c.911 0 3.373 3.834 4.615 7.187.605 1.632 6.283 4.288 7.203 3.369.249-.25-.025-1.827-.61-3.505-1.534-4.399-.467-3.754 1.571.949 1.423 3.284 2.228 4 4.497 4 2.992 0 3.743-2.173 1.514-4.381-3.363-3.331-13.755-7.504-25-10.037-1.513-.341-2.75-1.062-2.75-1.601 0-1.228 1.604-1.242 5.757-.051 2.404.69 3.243.612 3.243-.3 0-3.341-21.871-4.568-35.946-2.016m7.518 1.815c.383 1.527.143 3.21-.583 4.084-.783.943-.845 1.487-.17 1.487.584 0 1.359-.479 1.721-1.065.431-.697 1.315-.471 2.559.655 2.527 2.286 2.446.372-.099-2.36-1.1-1.18-2-2.589-2-3.129 0-.541-.468-1.272-1.04-1.626-.675-.417-.811.269-.388 1.954m6.863.071c.389 1.65.95 4.463 1.246 6.25s.939 3.25 1.428 3.25c1.116 0 1.086-.427-.438-6.202-1.361-5.158-3.377-8.131-2.236-3.298m6.635-.309c.039 1.27.457 3.209.93 4.309.693 1.612.873 1.284.93-1.691.038-2.03-.38-3.969-.93-4.309-.562-.347-.969.393-.93 1.691m16.486.047c.276.694 2.921 2.199 5.877 3.345 3.897 1.509 5.234 1.713 4.861.741-.283-.738-1.702-1.626-3.154-1.973s-3.865-1.249-5.363-2.003c-2.091-1.053-2.607-1.079-2.221-.11m-11.525 4.606c.018.361 1.143 1.465 2.5 2.453 1.763 1.282 2.467 1.425 2.461.5-.004-.713-1.129-1.817-2.5-2.453s-2.478-.861-2.461-.5m-23.957 1.797c-.041 1.177.816 4.102 1.904 6.5 1.579 3.48 1.968 3.855 1.926 1.859-.07-3.363-3.726-11.343-3.83-8.359m11.329 7.828c.484 1.929.063 2.835-1.923 4.136-1.398.916-2.317 1.891-2.042 2.166s1.623-.236 2.996-1.136c3.205-2.1 3.234-2.093 3.977.865.345 1.375 1.069 2.5 1.608 2.5 1.308 0 1.338.115-1.521-5.813-2.662-5.517-4.119-6.796-3.095-2.718m19.337 5.071c-1.507 1.398-2.74 3.061-2.74 3.697 0 .635 1.575-.371 3.5-2.237s3.5-3.529 3.5-3.696c0-.962-1.87.02-4.26 2.236m-36.725.71c.008.138.63 2.017 1.382 4.177l1.367 3.926.725-3.301c.512-2.335.327-3.554-.632-4.162-1.292-.818-2.874-1.175-2.842-.64m54.027 3.355c-1.741 1.983-3.024 3.747-2.85 3.92.531.532 12.727-1.111 13.424-1.808.36-.36-.091-1.794-1.004-3.186-2.386-3.642-5.762-3.264-9.57 1.074m-83.657 6.09C53.523 91.728 52 93.83 52 94.367s-.725 1.777-1.611 2.756c-1.488 1.644-1.448 1.987.539 4.512 3.663 4.658 8.546 7.365 13.284 7.365 7.556 0 16.764-6.383 20.842-14.449l2.048-4.051-2.567 3.178c-6.948 8.601-21.201 5.951-23.124-4.3C61.063 87.52 60.326 86 59.774 86c-.553 0-2.527 1.663-4.389 3.695M21.75 106.392c-.962.731-1.748 2.179-1.746 3.218.006 2.965 3.661 8.215 7.237 10.395 4.612 2.812 8.165 2.564 10.783-.755l2.17-2.75-4.368-.521c-4.836-.576-7.709-2.869-9.74-7.772-1.48-3.572-1.829-3.718-4.336-1.815"/><path fill-opacity=".468" fill-rule="evenodd" d="M83.5 11.932C74.69 13.098 55 20.223 55 22.244c0 .416-.487.756-1.082.756-1.893 0-9.863 7.128-12.735 11.39-7.458 11.068-11.085 23.061-11.419 37.76L29.5 83.8l-3.25 2.229C24.462 87.255 23 88.84 23 89.552s-1.073 2.569-2.384 4.127c-3.712 4.413-7.827 12.329-7.224 13.9.3.782 1.17 1.421 1.935 1.421 1.6 0 6.673 9.227 6.673 12.138 0 1.074 1.092 3.045 2.426 4.379 2.103 2.103 2.402 3.261 2.25 8.704L26.5 140.5l3.75 1.832c3.236 1.582 3.75 2.297 3.75 5.225 0 2.744.563 3.683 2.95 4.917 1.623.839 4.296 1.526 5.941 1.526 4.035 0 4.406 1.027 1.807 5.01a677 677 0 0 0-4.449 6.929c-3.268 5.169-12.889 25.105-13.618 28.218-.342 1.462-.898 3.374-1.234 4.25-.556 1.45 7.263 1.593 86.996 1.593H200v-32.877l-3.13-5.704c-4.271-7.782-10.125-14.595-18.343-21.35-3.378-2.776-23.34-13.053-25.373-13.063-.74-.003-3.816-.724-6.835-1.602l-5.488-1.595 1.933-2.155c4.285-4.774 9.2-18.515 9.224-25.785.011-3.475.209-3.681 4.583-4.783 4.871-1.226 10.339-4.336 14.442-8.212 4.978-4.703 12.049-14.858 14.127-20.289l2.121-5.54-2.226-5.952c-1.225-3.274-2.858-6.195-3.631-6.491-.772-.297-1.423-1.116-1.447-1.821-.063-1.911-8.787-8.217-14.187-10.253-4.512-1.702-5.064-1.704-12-.049-3.998.954-8.748 2.362-10.554 3.128S139.018 37 137.9 37s-2.836.431-3.82.957c-1.402.75-2.006.48-2.798-1.25-.556-1.214-2.043-4.457-3.306-7.207-3.403-7.412-7.378-11.978-12.978-14.906-4.195-2.193-6.643-2.681-15.248-3.035-5.637-.232-12.95-.064-16.25.373m14 45.128c-17.972 2.915-20.639 3.863-18.413 6.545.927 1.117 1.676 1.103 4.512-.082 1.871-.782 3.401-1.065 3.401-.63 0 .831-6.743 3.118-9.116 3.092-1.109-.013-1.126-.179-.087-.839 1.04-.659.999-1.07-.208-2.072-1.223-1.015-2.215-.877-5.297.74-2.086 1.094-5.315 2.563-7.177 3.265l-3.385 1.275 5.312 2.345c5.135 2.266 5.472 2.291 10.122.747 2.645-.879 5.603-1.391 6.573-1.138 1.434.374 1.371.482-.338.576-1.155.064-3.547.62-5.316 1.237l-3.215 1.121 2.822 1.716c1.552.943 3.944 1.956 5.316 2.25s3.394.902 4.494 1.351c1.79.73 1.854.636.607-.896-.765-.941-1.179-1.925-.918-2.186s1.076.65 1.812 2.025C89.736 78.876 91.107 80 92.047 80s3.363.691 5.386 1.536c2.022.845 5.789 1.96 8.372 2.477 2.582.517 5.739 1.237 7.015 1.599 2.318.657 2.319.655.75-3.099-.864-2.067-1.563-4.265-1.555-4.885.026-1.886 1.92 1.637 3.024 5.622.992 3.584 1.226 3.75 5.3 3.75 2.343 0 4.833-.562 5.532-1.25 1.02-1.002 1.208-.953.95.25-.486 2.271 5.87 2.59 8.273.415 1.048-.949 1.906-1.243 1.906-.653 0 .589-.562 1.332-1.25 1.65-.687.319 1.9.317 5.75-.004s7.418-.984 7.93-1.475c1.42-1.363-1.456-5.933-3.733-5.933-1.081 0-3.745-.533-5.92-1.185-3.174-.951-4.382-.919-6.116.161-1.969 1.225-2.039 1.197-.789-.315 1.197-1.448 1.126-1.661-.555-1.661-3.227 0-14.359-4.123-13.758-5.095.323-.524 1.28-.544 2.252-.049 2.188 1.117 8.189 2.255 8.189 1.553 0-.297-.475-1.523-1.055-2.725-.912-1.888-.878-1.958.25-.521a53 53 0 0 1 2.305 3.206c.55.847 2.238 1.835 3.75 2.195 2.236.531 2.763.305 2.818-1.206.058-1.595.221-1.54 1.152.392 1.436 2.976 6.78 3.23 6.78.323 0-3.795-7.342-7.884-20.245-11.275-9.035-2.374-12.002-4.158-4.505-2.707 5.506 1.065 5.969 1.072 5.356.08-.282-.456 2.16.444 5.427 2 6.804 3.241 9.228 3.661 6.735 1.169-2.277-2.278-7.514-4.021-19.092-6.358-10.402-2.099-13.173-2.219-21.176-.922m-1 2.94c.34.55.816 1 1.059 1s.441-.45.441-1-.477-1-1.059-1-.781.45-.441 1m7.231 1.08c.354 1.352.807 1.806 1.057 1.057.24-.722-.038-1.787-.62-2.369-.742-.742-.872-.351-.437 1.312m6.355-1.08c.03.825.441 2.4.914 3.5l.859 2 .055-2c.031-1.1-.381-2.675-.914-3.5-.862-1.333-.963-1.333-.914 0m-13.115 3.535c-.691.832-.977 1.792-.637 2.132s.9-.114 1.244-1.009c.543-1.417.88-1.337 2.58.606l1.955 2.236-1.062-2.194c-1.473-3.045-2.612-3.539-4.08-1.771M124 65.409c0 .19.675.906 1.5 1.591.865.718 1.5.815 1.5.229 0-.558-.675-1.274-1.5-1.591s-1.5-.419-1.5-.229M91.082 66c-.044.275.798 2.75 1.872 5.5s1.962 4.325 1.973 3.5c.019-1.417-3.675-10.064-3.845-9m14.076 2c0 1.375.227 1.938.504 1.25.278-.687.278-1.812 0-2.5-.277-.687-.504-.125-.504 1.25M117 66.393c0 .216.698.661 1.552.989.89.341 1.291.173.941-.393-.587-.951-2.493-1.406-2.493-.596m-60.5 5.272c-4.566 2.413-6.503 4.432-6.468 6.74.029 1.954.121 1.978 1.36.345.731-.963 1.841-1.75 2.468-1.75S55 76.543 55 75.984s1.575-1.767 3.5-2.685c3.48-1.66 4.637-3.335 2.25-3.259-.687.022-2.6.753-4.25 1.625m54.064 1.628c.376.986.935 1.541 1.243 1.233s.001-1.114-.683-1.793c-.988-.98-1.102-.865-.56.56M60.5 75c-.995 1.1-2.303 2.008-2.905 2.017-1.406.022-5.595 4.42-5.595 5.874 0 .61-.406 1.109-.902 1.109-1.191 0-3.112 5.613-3.046 8.899l.053 2.601 1.637-2.5c2.563-3.915 12.452-12.997 14.19-13.032.863-.017 2.442-.692 3.509-1.5 1.068-.807 2.755-1.468 3.75-1.468 2.63 0 2.202-1.31-.898-2.75-3.925-1.823-7.728-1.532-9.793.75m42.307-.447c.855 1.668.672 2.291-.974 3.32-1.115.696-1.77 1.524-1.455 1.839.316.315 1.333-.054 2.26-.819 1.146-.946 1.807-1.037 2.061-.285.205.61 1.032 1.96 1.837 3 .958 1.238.816.397-.408-2.43-1.03-2.377-2.435-4.852-3.122-5.5-.994-.936-1.034-.756-.199.875m-60.8 4.764-3.494 2.151 3.528.574c1.94.315 4.074.911 4.743 1.324.868.537 1.216-.267 1.216-2.807 0-4.125-.982-4.328-5.993-1.242M123.5 78c-.34.55-.168 1 .382 1s1.278-.45 1.618-1 .168-1-.382-1-1.278.45-1.618 1m-37.869 5.659c1.386 3.318 1.375 3.995-.114 7.25-2.447 5.348-6.053 7.591-12.201 7.591-4.347 0-5.669-.464-8.183-2.873-1.864-1.785-3.247-4.34-3.654-6.75-.36-2.132-.885-3.877-1.167-3.877C58.594 85 49 97.346 49 99.557c0 .244 1.789 2.232 3.975 4.418 4.534 4.534 7.185 5.456 13.845 4.816 9.096-.874 17.057-8.648 21.243-20.745 2.288-6.612 1.899-7.993-2.262-8.031-1.568-.014-1.581.267-.17 3.644M128.5 82c-.995 1.1-1.306 2-.69 2s1.601-.9 2.19-2 .899-2 .69-2-1.195.9-2.19 2m10.006-.006c-.999 1.103-1.351 2.006-.783 2.006 1.258 0 3.752-2.858 3.08-3.53-.265-.265-1.299.42-2.297 1.524m-46.828 1.661c-.373.373-.678 1.491-.678 2.485 0 1.777-3.542 10.005-5.5 12.775-3.883 5.495-9.887 9.93-15.623 11.54-5.801 1.627-6.379 1.627-10.754-.005-2.543-.949-5.94-3.04-7.549-4.647l-2.927-2.921-2.184 5.809c-2.192 5.831-6.551 13.07-8.773 14.568-1.821 1.228 4.449-.358 7.51-1.899 1.486-.748 3.427-1.36 4.315-1.36 1.501 0 3.825-.851 16.985-6.221 2.75-1.122 5.9-2.4 7-2.84s5.15-2.212 9-3.939c18.686-8.382 21.839-9.321 31.488-9.381 7.682-.047 9.189.244 12.301 2.377 5.947 4.075 5.557 11.397-.904 17.01-2.581 2.243-12.786 7.619-22.385 11.794-1.925.837-5.136 2.35-7.136 3.361S91.782 134 91.238 134c-1.308 0-11.031 4.571-14.393 6.766-8.194 5.352-18.764 11.071-21.595 11.687-4.595.998-4.042 2.021 1.826 3.375 9.491 2.191 27.241.876 38.424-2.847 4.786-1.593 17.801-7.797 22-10.487 4.954-3.174 11.6-8.72 16.171-13.494 6.62-6.916 6.963-7.328 8.34-10 .709-1.375 1.559-2.725 1.889-3 2.27-1.891 4.997-13.417 5.056-21.367.042-5.618-.051-5.839-2.206-5.214-7.119 2.064-16.599 1.783-30.285-.9-7.681-1.505-14.64-3.078-15.465-3.496-2.378-1.204-8.576-2.114-9.322-1.368M31 85.73c-5.312 2.557-7.215 6.076-2.25 4.159 1.512-.585 6.007-1.136 9.988-1.226 4.688-.105 7.405-.598 7.713-1.398C47.73 83.94 36.944 82.869 31 85.73m-4.627 7.677c-5.567 2.592-7.827 4.731-4.124 3.903 1.736-.389 1.226.42-2.227 3.531-7.116 6.411-4.224 6.489 6.478.175 4.18-2.466 6.107-2.956 11.75-2.983L45 98v-7l-6.75.01c-5.002.007-8.078.628-11.877 2.397M21.5 106.579c-3.751 2.843-.001 11.105 6.561 14.452 4.944 2.523 6.382 2.478 8.982-.281 4.158-4.411 4.163-5.322.028-4.928-3.017.288-4.357-.198-6.847-2.482-1.703-1.562-3.564-4.077-4.136-5.59-1.184-3.134-1.792-3.29-4.588-1.171M25 123c.825.533 1.95.969 2.5.969s.325-.436-.5-.969-1.95-.969-2.5-.969-.325.436.5.969m84 26.955c-8.826 4.708-23.371 9.039-30.426 9.06-2.791.009-5.749.452-6.574.985-2.324 1.502 11.355 1.24 19-.364 7.119-1.493 18.99-6.862 21.635-9.785 2.108-2.33.861-2.294-3.635.104"/><path fill-opacity=".621" fill-rule="evenodd" d="M85.5 11.95c-12.256 1.269-28.032 7.284-34.884 13.3-1.096.962-2.332 1.75-2.746 1.75-1.472 0-9.633 11.581-11.628 16.5-4.711 11.62-6.147 18.162-6.394 29.13l-.246 10.87-3.301 2.934C24.486 88.048 23 89.942 23 90.644c0 .701-1.086 2.306-2.414 3.566-3.288 3.119-7.864 11.624-7.194 13.369.3.782 1.227 1.421 2.06 1.421 1.72 0 6.548 8.858 6.548 12.015 0 1.144 1.178 3.172 2.618 4.507 2.414 2.237 2.566 2.852 1.94 7.857-.603 4.826-.428 5.665 1.57 7.526 1.237 1.152 3.064 2.095 4.061 2.095 1.387 0 1.811.783 1.811 3.345 0 4.376 2.72 6.756 8.459 7.403 2.498.282 4.541.919 4.541 1.417 0 .823-2.333 4.844-4.256 7.335-2.303 2.983-5.503 8.536-7.205 12.5-1.062 2.475-2.743 5.694-3.735 7.154S30 185.121 30 185.503s-.63 2.113-1.401 3.846c-.77 1.733-1.619 4.051-1.886 5.151s-.81 2.787-1.207 3.75c-.682 1.659 3.844 1.75 86.887 1.75H200v-16.014c0-8.807-.386-16.795-.857-17.75-4.879-9.882-10.865-17.721-17.984-23.551-5.861-4.799-11.782-8.685-13.235-8.685-.613 0-2.31-.83-3.77-1.844-2.555-1.775-7.609-3.621-17.154-6.264-6.266-1.735-6.373-1.841-4.325-4.247 4.152-4.88 7.913-14.882 8.911-23.702.626-5.534.824-5.873 3.787-6.512 7.347-1.582 15.69-7.887 23.128-17.477 10.125-13.053 10.081-21.764-.163-32.576-8.197-8.652-16.313-11.368-25.514-8.539-1.828.562-6.024 1.786-9.324 2.721-3.3.934-7.063 2.104-8.362 2.599-2.574.981-5.138-.394-5.138-2.754 0-2.533-4.993-11.897-8.25-15.472-1.788-1.962-5.275-4.493-7.75-5.623-5.267-2.406-17.928-3.454-28.5-2.36m-6.054 2.957C58.29 19.669 45.389 28.697 38.584 43.5c-1.517 3.3-3.107 6.682-3.533 7.516-1.027 2.007-4.557 29.811-3.872 30.496.293.293 5.21-1.91 10.927-4.896C60.461 67.028 68.213 63.308 82 57.469c7.425-3.144 14.947-6.35 16.715-7.123s6.718-2.536 11-3.916 9.135-3.119 10.785-3.864 4.494-1.67 6.321-2.055c2.59-.547 3.165-1.065 2.614-2.356-.388-.91-1.207-3.025-1.821-4.7-.613-1.674-1.902-4.246-2.865-5.715-.962-1.468-1.749-3.033-1.749-3.477 0-1.53-7.82-7.559-11.657-8.987-6.171-2.297-22.491-2.486-31.897-.369M150 35.459c-1.925.696-6.875 2.275-11 3.509-4.125 1.235-9.075 2.863-11 3.618s-6.65 2.337-10.5 3.514-8.908 2.986-11.239 4.02-4.807 1.896-5.5 1.915c-.694.02-2.386.69-3.761 1.489-2.341 1.36-2.023 1.448 5 1.38 4.125-.04 9.3-.656 11.5-1.369 4.599-1.49 14.309-4.449 23-7.01 3.3-.973 7.515-2.406 9.366-3.186 6.231-2.624 18.03-4.375 22.512-3.34 6.171 1.425 6.97 1.284 4.911-.872-4.738-4.96-15.168-6.603-23.289-3.668m5.5 7.659c-3.85 1.117-11.05 3.373-16 5.013-4.95 1.641-10.575 3.352-12.5 3.803-9.096 2.132-9.14 2.604-.5 5.364 9.819 3.137 14.5 5.441 14.5 7.138 0 .709 1.382 3.027 3.07 5.152 1.689 2.125 3.323 5.128 3.632 6.673.309 1.546 1.379 3.247 2.378 3.782 1.295.693 1.903 2.371 2.118 5.852l.302 4.881 7-3.259c7.365-3.429 10.731-6.185 16.531-13.54 10.98-13.922 10.819-24.415-.452-29.4-7.903-3.495-12.032-3.795-20.079-1.459m-70.059 3.35c-1.067.808-2.616 1.498-3.441 1.534s-3.3.935-5.5 1.998-4.358 1.947-4.795 1.966c-.814.035-20.605 9.256-24.205 11.279a152 152 0 0 1-4.75 2.512c-1.513.764-2.75 2.011-2.75 2.771 0 .927 3.698-.448 11.25-4.182 10.864-5.373 16.485-7.999 21.75-10.16 1.375-.565 5.142-2.187 8.371-3.606S87.776 48 88.43 48s2.061-.661 3.129-1.468c1.844-1.395 1.788-1.47-1.118-1.5-1.682-.018-3.932.629-5 1.436M92 57.611c-13.621 3.005-15.955 4.063-13 5.889 1.322.817 1.282 2.5-.059 2.5-.582 0-.812-.399-.511-.887.301-.487-.115-1.437-.926-2.11-1.195-.992-2.85-.557-8.739 2.296L61.5 68.818l3 1.112c1.65.611 3.959 1.599 5.131 2.196 1.172.596 3.197.783 4.5.414 1.509-.427 1.905-.347 1.091.221-1.459 1.018 1.32 2.549 8.778 4.837 5.523 1.694 5.44 1.692 4.372.105-.479-.714-.197-.601.628.25C91.537 80.57 114.434 87 121.214 87c1.862 0 3.953-.562 4.645-1.25 1.01-1.003 1.121-.887.56.586-.659 1.732-.035 1.809 11.058 1.369 12.697-.503 14.632-1.359 11.741-5.191-1.127-1.494-4.048-2.691-9.666-3.961C128.901 76.146 118 73.04 118 72.412c0-.674 6.338.451 12.5 2.22 2.75.789 6.575 1.666 8.5 1.949s4.063.705 4.75.936c.775.261 1.25-.515 1.25-2.042 0-4.65-7.228-8.516-24.5-13.105l-5-1.328 5.378.59c4.37.48 5.228.336 4.578-.771-.539-.917-.173-.846 1.122.218 1.057.868 4.609 2.578 7.894 3.801l5.972 2.222-2.192-2.334c-3.76-4.002-22.384-8.835-33.449-8.68-3.467.049-9.228.734-12.803 1.523m5.603 5.222c-.283.459.12.834.897.834s1.18-.375.897-.834S98.71 62 98.5 62s-.614.375-.897.833m13.476.75c.048 1.165.285 1.402.604.605.289-.722.253-1.585-.079-1.917s-.568.258-.525 1.312M83 64c-.825.533-1.05.969-.5.969s1.675-.436 2.5-.969 1.05-.969.5-.969-1.675.436-2.5.969m-28.5 8.376c-2.847 1.629-4.091 3.057-4.316 4.956-.174 1.468.163 2.668.75 2.668 1.643 0 1.272 1.802-1.004 4.881-1.461 1.976-1.976 3.949-1.75 6.709l.32 3.91 3.391-4.711c4.384-6.089 12.236-11.463 20-13.689l2.391-.685-2.711-1.777c-3.721-2.438-8.105-2.359-11.577.208C58.392 76.031 56.775 77 56.401 77s-1.256.787-1.959 1.748c-.703.962-1.633 1.394-2.067.96-.916-.916 4.078-5.512 7.375-6.788 1.237-.479 2.25-1.332 2.25-1.895 0-1.675-3.229-1.093-7.5 1.351m27.25-1.714c.688.278 1.813.278 2.5 0 .688-.277.125-.504-1.25-.504s-1.937.227-1.25.504m46.25.279c0 .518.445 1.216.989 1.552.566.35.734-.051.393-.941-.665-1.732-1.382-2.049-1.382-.611m-50.187.742c.721.289 1.584.253 1.916-.079s-.258-.568-1.312-.525c-1.165.048-1.402.285-.604.604m15.218-.183c0 .55.436 1.675.969 2.5s.969 1.05.969.5-.436-1.675-.969-2.5-.969-1.05-.969-.5m17.533 1.793c.376.986.935 1.541 1.243 1.233s.001-1.114-.683-1.793c-.988-.98-1.102-.865-.56.56M103 77c-.901.582-1.025.975-.309.985.655.008 1.469-.435 1.809-.985.767-1.242.421-1.242-1.5 0m-61.878 2.487-4.377 2.215 4.248.57c7.062.947 6.556 2.358-.68 1.897-7.292-.464-11.759 1.114-14.196 5.015-1.219 1.952-1.146 2.048 1.036 1.366 1.291-.403 6.246-.97 11.011-1.26 9.613-.584 9.794-.741 9.822-8.54.016-4.324-.594-4.436-6.864-1.263m64.442.806c.376.986.935 1.541 1.243 1.233s.001-1.114-.683-1.793c-.988-.98-1.102-.865-.56.56M85.295 83.81c.559 2.096.717 5.008.349 6.471-1.422 5.668-9.141 9.641-15.644 8.052-3.773-.922-7.72-5.719-8.499-10.328l-.689-4.08-4.182 4.288c-2.3 2.358-5.049 5.953-6.108 7.99l-1.926 3.703 3.511 3.409c4.922 4.78 7.005 5.685 13.089 5.685 9.902 0 18.381-7.749 22.844-20.877 2.267-6.672 1.897-8.069-2.151-8.108-1.378-.013-1.464.536-.594 3.795m53.577-1.06c-1.243 1.586-1.208 1.621.378.378.963-.755 1.75-1.543 1.75-1.75 0-.823-.821-.294-2.128 1.372M91 84.379c0 2.214-3.525 10.637-6.293 15.04-2.188 3.479-7.826 8.053-12.05 9.777-8.003 3.264-15.868 1.68-21.483-4.328l-2.951-3.158-.737 3.354c-.828 3.771-5.766 13.392-8.435 16.436-2.997 3.419-3.534 4.799-1.406 3.619C40.916 123.306 49.213 120 50.494 120c1.911 0 15.62-5.438 28.845-11.441 4.312-1.958 8.384-3.559 9.05-3.559s1.639-.415 2.161-.922c.523-.507 4.291-2.082 8.374-3.5C104.47 98.652 108.345 98 114.24 98c11.254 0 15.76 2.732 15.76 9.556 0 3.412-.637 4.753-3.75 7.889-2.062 2.078-6.225 4.994-9.25 6.479a872 872 0 0 0-7.5 3.72c-6.908 3.515-8.768 4.356-9.636 4.356-.536 0-3.087.933-5.669 2.072A664 664 0 0 1 86 135.621c-1.925.812-4.4 1.984-5.5 2.605s-2.9 1.623-4 2.227-4.025 2.422-6.5 4.041c-7.363 4.814-12.267 7.191-16.38 7.94-5.382.979-3.612 2.126 6.463 4.19 8.162 1.672 9.116 1.673 19.5.026 6.004-.953 13.167-2.467 15.917-3.365 6.303-2.058 15.894-6.461 16.333-7.498.184-.433 1.223-.787 2.309-.787 3.055 0 1.446 1.481-4.871 4.482a893 893 0 0 0-7.284 3.491c-5.635 2.786-20.654 6.033-28.175 6.09-6.94.053-7.899.246-5.812 1.168 3.707 1.637 18.64 1.33 25.264-.519 3.171-.886 8.487-3.061 11.814-4.834 6.196-3.303 14.262-9.878 12.117-9.878-2.137 0-1.262-1.648 1.555-2.93 3.351-1.525 3.749-1.866 13.75-11.757 8.235-8.144 9.355-9.632 13.033-17.313 2.55-5.326 4.706-17.556 3.849-21.838-.561-2.808-.797-2.953-3.244-2-4.173 1.625-18.927 1.354-27.138-.5a1363 1363 0 0 0-15-3.278c-4.125-.872-8.534-1.99-9.797-2.484C91.052 81.665 91 81.689 91 84.379m-65.75 9.085C22.362 94.808 20 96.427 20 97.061s.675.894 1.5.577c2.597-.996 1.624.777-1.57 2.862-5.853 3.82-6.103 7.704-.299 4.649C31.983 98.646 33.786 98 39.596 98H45.5v-7l-7.5.01c-5.841.007-8.661.55-12.75 2.454M109 99.997c-8.357 2.033-17.209 5.023-21.96 7.418-1.397.705-4.34 2.07-6.54 3.034-2.2.963-5.8 2.563-8 3.554-6.53 2.942-9.55 4.08-18.602 7.01-11.555 3.741-20.805 8.405-24.166 12.186-2.488 2.798-2.628 3.326-1.384 5.207 2.826 4.274 15.816 3.006 32.152-3.139 6.842-2.574 18.784-8.619 23.74-12.017 2.607-1.787 4.994-3.25 5.305-3.25s3.128-1.702 6.26-3.783c6.192-4.113 9.817-5.945 18.078-9.137 6.329-2.445 8.117-2.592 8.117-.668 0 .883-1.593 1.679-4.25 2.125-4.164.698-9.771 3.097-16.75 7.167-1.925 1.123-4.96 2.886-6.744 3.919s-3.246 2.215-3.25 2.627c-.003.412-.868.75-1.923.75-1.054 0-2.066.403-2.25.894-.695 1.867-17.423 10.502-27.333 14.111-3.3 1.202-10.05 3.099-15 4.217s-9.154 2.166-9.341 2.33c-.644.561.972 4.436 2.478 5.942 3.21 3.21 19.932.472 25.442-4.165.868-.731 2.021-1.329 2.561-1.329.541 0 1.874-.787 2.964-1.75 4.119-3.639 15.395-9.323 30.364-15.307 9.246-3.696 20.432-9.241 22.471-11.139 1.066-.992 2.311-1.804 2.766-1.804 1.62 0 4.074-6.752 3.412-9.388-1.097-4.373-11.2-7.42-18.617-5.615m-88.054 6.846-2.276 1.843 2.272 4.694c2.497 5.159 8.067 9.62 12.01 9.62 1.57 0 3.512-1.199 5.265-3.25 3.296-3.856 3.471-4.743.799-4.044-4.674 1.222-11.338-3-12.557-7.956-.789-3.212-2.35-3.469-5.513-.907m3.915 16.19c2.531 2.109 5.139 2.6 5.139.967 0-.55-.873-1-1.941-1s-2.219-.45-2.559-1-1.154-.985-1.809-.967-.129.919 1.17 2"/><path fill-opacity=".929" fill-rule="evenodd" d="M74 14.15c-18.016 5.514-30.312 14.721-36.378 27.24-5.564 11.482-6.901 16.961-7.382 30.26L29.8 83.8l-3.4 2.711c-1.87 1.491-3.4 3.482-3.4 4.425 0 .944-1.136 2.783-2.525 4.088-1.389 1.304-3.643 4.371-5.008 6.815l-2.484 4.443 3.682 3.575c3.367 3.27 3.627 3.368 3.046 1.146-.412-1.577-.068-3.056.982-4.216 2.528-2.794 5.011-2.211 6.233 1.463 1.475 4.433 7.102 8.194 11.07 7.401 3.508-.702 3.779.14 1.004 3.119-1.1 1.18-2 2.615-2 3.188 0 1.742-6.314 1.151-9.394-.879-1.592-1.05-3.939-3.184-5.215-4.744s-2.335-2.299-2.355-1.644.414 1.469.964 1.809 1 1.746 1 3.125c0 3.39 1.72 6.375 3.674 6.375 1.356 0 1.523.965 1.082 6.25-.287 3.438-.282 5.575.01 4.75.869-2.447 4.133-6.255 6.514-7.597 5.169-2.915 11.637-5.677 17.72-7.566 6.387-1.984 12.079-4.171 21-8.068a784 784 0 0 1 7.765-3.34c1.795-.756 4.72-2.039 6.5-2.851 11.033-5.035 22.474-8.576 27.732-8.583 5.167-.007 12.655 2.987 14.067 5.624 1.738 3.248-.3 7.621-5.559 11.93-2.316 1.898-4.508 3.451-4.87 3.451s-4.141 1.606-8.397 3.569c-9.011 4.155-10.709 4.907-22.738 10.057-4.95 2.12-9.45 4.213-10 4.651-3.685 2.934-14.127 8.962-19.292 11.136-4.456 1.875-7.913 2.587-12.563 2.587-5.779 0-6.581-.254-8.092-2.559-3.017-4.605-1.892-5.648 8.199-7.601 5.087-.984 10.577-2.476 12.199-3.315S60.466 137 61.157 137c1.427 0 22.077-10.016 22.843-11.08.614-.853 6.721-4.551 9.653-5.846 1.184-.523 2.43-1.4 2.77-1.949s1.845-1.619 3.347-2.378a266 266 0 0 0 4.73-2.452c3.937-2.112 9.07-4.146 13.279-5.26 2.353-.623 4.035-1.527 3.736-2.01-1.105-1.789-15.995 4.15-25.015 9.976-1.65 1.066-4.35 2.69-6 3.608s-3.225 1.945-3.5 2.281c-.792.966-6.325 4.178-8.25 4.788-.963.306-1.75.953-1.75 1.439 0 .485-.518.883-1.15.883-.633 0-3.67 1.196-6.75 2.659-8.53 4.05-11.008 5.016-18.628 7.266-7.86 2.32-20.336 2.811-22.272.875-.857-.857-1.2-.876-1.2-.065 0 .625 1.575 1.705 3.5 2.401 3.03 1.096 3.5 1.706 3.5 4.542 0 3.899 2.667 6.024 8.914 7.102 2.296.396 4.187 1.077 4.203 1.513.027.738-.929 2.358-6.885 11.664-1.247 1.949-3.525 6.018-5.063 9.043a647 647 0 0 1-3.86 7.5C29 187.837 27 193.162 27 194.975c0 1.049-.45 2.185-1 2.525-1.227.758-1.321 2.5-.136 2.5.475 0 1.618-2.138 2.54-4.75 1.652-4.684 4.574-11.368 7.104-16.25 4.428-8.544 6.649-12.489 7.296-12.962.405-.296 1.403-1.853 2.216-3.461 3.863-7.63 2.649-7.269 11.98-3.559 8.185 3.255 15.362 4.235 26.5 3.621 12.064-.666 21.823-3.98 28.208-9.58.664-.582 1.661-1.059 2.215-1.059s1.488-.9 2.077-2 1.73-2 2.535-2 1.465-.502 1.465-1.115 4.293-5.338 9.539-10.5c8.039-7.909 10.044-9.386 12.75-9.39 3.609-.006 11.209 2.249 17.211 5.106 2.2 1.048 4.563 1.903 5.25 1.902s1.25.398 1.25.889c0 .49 1.042 1.153 2.316 1.472 1.273.32 3.283 1.381 4.467 2.359 1.183.977 4.021 3.127 6.306 4.777 3.499 2.527 6.053 5.319 13.719 15 .996 1.258 4.617 8.191 6.007 11.5l1.05 2.5.067-2.691c.038-1.48-.382-2.969-.932-3.309s-1-1.491-1-2.559-.395-1.941-.879-1.941c-.483 0-1.47-1.463-2.194-3.25-1.498-3.7-19.163-21.75-21.287-21.75-.767 0-1.955-.675-2.64-1.5s-1.977-1.51-2.872-1.522c-.896-.012-2.753-.902-4.128-1.978s-3.107-1.966-3.849-1.978-2.767-.643-4.5-1.402-5.739-1.956-8.901-2.66c-5.809-1.293-6.49-1.786-4.842-3.51 1.913-2.002 6.202-10.619 5.835-11.722-.213-.637-1.447 1.189-2.743 4.057S142.274 120 141.822 120s-.822.496-.822 1.103c0 3.118-18.523 19.992-25.708 23.42-3.173 1.514-5.191 3.477-3.574 3.477.461 0 1.866-.721 3.124-1.602s2.485-1.405 2.726-1.164c.602.603-6.267 6.766-7.541 6.766-.565 0-1.027.389-1.027.863 0 1.317-10.646 5.719-18.5 7.651-4.886 1.201-9.172 1.559-14.193 1.185-11.455-.854-12.017-2.299-1.159-2.98 5.143-.322 11.152-1.26 13.352-2.082 5.175-1.935 1.803-2.001-6-.117-7.811 1.886-17.187 1.863-24.856-.062-9.016-2.264-9.528-2.515-7.144-3.495 1.1-.452 3.125-.864 4.5-.915s3.625-.972 5-2.048 3.288-1.966 4.25-1.978 1.75-.37 1.75-.795 1.575-1.62 3.5-2.657 3.5-2.264 3.5-2.727.83-.843 1.845-.843 2.66-.9 3.655-2 2.458-2 3.251-2 2.635-.621 4.095-1.381 5.129-2.396 8.154-3.637c11.45-4.697 13.707-5.736 24-11.056 5.451-2.818 7.358-4.299 10.75-8.349 1.36-1.624 1.664-7.396.485-9.201-.404-.618-2.31-2.079-4.235-3.246-2.753-1.67-5.125-2.123-11.117-2.126-8.234-.004-12.186 1.194-29.16 8.843-2.627 1.184-5.439 2.153-6.25 2.153s-1.473.401-1.473.892c0 .49-1.237 1.179-2.75 1.531s-4.55 1.476-6.75 2.499C61.192 116.854 52.859 120 51.401 120c-1.262 0-2.711.543-11.651 4.365-2.062.881-3.75 1.386-3.75 1.121s1.56-2.653 3.467-5.307 4.747-7.826 6.311-11.494l2.845-6.669 3.385 3.492c1.861 1.921 4.032 3.492 4.823 3.492.824 0 .206-.962-1.444-2.25-1.586-1.237-3.852-3.368-5.036-4.735-2.129-2.458-2.132-2.515-.252-5.155C51.145 95.392 52 93.751 52 93.213s1.893-2.87 4.206-5.184c3.709-3.709 4.291-3.988 4.93-2.367.398 1.011.755 2.784.794 3.94.038 1.156 1.424 3.518 3.079 5.25 2.719 2.846 3.584 3.148 9 3.148 3.295 0 5.991-.42 5.991-.933s.788-1.182 1.751-1.488c3.658-1.161 5.112-8.385 2.783-13.829-.588-1.376-.245-1.764 1.609-1.814 2.188-.059 2.142-.162-.643-1.431-1.65-.751-7.275-3.036-12.5-5.078-5.225-2.041-9.906-4.076-10.402-4.521-.5-.449.39-1.339 2-1.996a303 303 0 0 0 6.902-2.968c12.443-5.541 21.128-7.442 34-7.442 14.166 0 26.949 3.188 33.167 8.272l2.833 2.317-3-.613c-2.613-.533-2.784-.442-1.325.706.921.725 3.059 2.085 4.75 3.021 2.354 1.305 3.075 2.396 3.075 4.655 0 2.87-.118 2.94-4.25 2.544-4.021-.386-3.931-.31 1.666 1.403 6.451 1.974 9.872 5.309 7.685 7.492-1.993 1.99-30.077 1.485-38.351-.69-3.712-.975-7.312-1.572-8-1.326-1.574.563 3.973 1.985 16.567 4.245 8.767 1.573 21.229 1.702 27.748.286 1.123-.244 1.432.992 1.421 5.688-.007 3.3-.371 8.025-.809 10.5-.559 3.166-.491 4.055.23 3 .564-.825 1.553-4.77 2.199-8.766 1.07-6.627 1.403-7.313 3.784-7.802 5.243-1.078 11.69-5.062 17.086-10.56 6.637-6.761 8.024-8.46 8.024-9.83 0-.573.39-1.042.867-1.042 1.266 0 5.133-9.802 5.133-13.011 0-3.304-2.489-9.525-5.181-12.946-2.267-2.882-5.251-3.429-18.32-3.361-6.561.035-10.355.588-14 2.04-2.749 1.096-7.699 2.781-10.999 3.746-5.921 1.731-12.225 3.71-22 6.907-2.935.96-8.283 1.633-12.95 1.63-8.666-.005-9.092-.965-1.518-3.415 5.713-1.848 12.902-4.403 15.468-5.497 1.1-.469 6.275-2.229 11.5-3.91s10.85-3.499 12.5-4.038c10.898-3.56 13.669-4.154 19.346-4.15 6.645.005 11.084 1.715 14.29 5.505.93 1.1 2.02 1.673 2.42 1.274 1.155-1.15-1.161-3.285-6.656-6.136-7.47-3.876-9.511-3.72-30.811 2.347-7.52 2.142-9.028 1.868-9.074-1.653-.021-1.645-5.155-11.762-6.173-12.165-.463-.184-.842-.723-.842-1.199 0-1.872-4.757-5.691-9.685-7.775-4.538-1.919-6.912-2.183-19-2.112-10.772.062-15.247.518-20.315 2.069m5.5.442c-8.562 2.067-12.261 3.31-18.474 6.21-6.248 2.916-16.017 10.136-16.022 11.841-.002.629-.571 1.361-1.265 1.627-2.177.835-8.607 14.968-10.124 22.254C31.575 66.315 30.457 82 31.798 82c1.266 0 14.299-6.706 15.652-8.054.523-.52 1.723-.946 2.667-.946s1.866-.346 2.05-.769c.323-.746 16.994-9.103 23.598-11.829 1.795-.741 4.72-2.008 6.5-2.815 1.779-.807 5.71-2.448 8.735-3.647s6.85-2.766 8.5-3.483c4.05-1.76 11.333-4.404 15-5.446 7.328-2.083 15.5-5.377 15.5-6.249 0-.525-.606-2.148-1.347-3.608s-2.428-4.811-3.75-7.448C119.513 16.954 111.401 12.988 95 13.087c-5.225.031-12.2.709-15.5 1.505m74 28.512c-3.85 1.152-8.575 2.673-10.5 3.382s-6.65 2.223-10.5 3.364-8.729 2.59-10.842 3.22-3.463 1.485-3 1.9c.768.688 5.99 2.279 12.342 3.76 4.043.942 9.784 5.012 10.556 7.482.393 1.259 1.778 3.362 3.079 4.674 1.334 1.347 2.365 3.585 2.365 5.135 0 1.86.845 3.302 2.612 4.461 2.298 1.505 2.539 2.175 1.998 5.554-.338 2.114-.23 4.081.239 4.371.469.289 3.438-.471 6.598-1.69 7.029-2.712 14.567-9.61 20.929-19.153 4.142-6.213 4.624-7.529 4.624-12.615 0-6.745-2.034-9.928-8.337-13.046-6.11-3.022-13.8-3.3-22.163-.799M85 46.714c-9.458 4.287-12.664 5.692-14.5 6.354-6.298 2.274-24.445 11.034-25.12 12.126-.274.444-1.323.806-2.332.806s-2.093.675-2.41 1.5c-.316.825-.401 1.5-.189 1.5.365 0 8.297-4.058 11.551-5.91 1.347-.766 5.681-2.731 14.5-6.573 3.349-1.458 5.127-2.199 14.5-6.041 3.575-1.466 7.85-3.268 9.5-4.006 2.902-1.298 2.918-1.342.5-1.342-1.375 0-4.075.714-6 1.586m31.75 14.948c.688.278 1.813.278 2.5 0 .688-.277.125-.504-1.25-.504s-1.937.227-1.25.504m10.606 2.332c3.221 1.156 6.371 1.909 7 1.673 1.604-.601-3.652-2.553-8.665-3.218-3.972-.527-3.885-.446 1.665 1.545M55.643 71.5c-.825.825-1.972 1.5-2.549 1.5-.576 0-1.8 1.148-2.72 2.551-1.254 1.914-1.386 2.837-.528 3.695s1.622.629 3.061-.916c1.055-1.132 3.533-3.057 5.506-4.276S62 71.424 62 70.918c0-1.484-4.724-1.052-6.357.582m6.822 1.461c-1.119.448-2.636 1.541-3.372 2.427S57.36 77 56.878 77c-1.032 0-3.451 2.341-6.728 6.511-1.926 2.451-2.31 2.629-2.134.989.411-3.837-.022-7.5-.889-7.5-.48 0-3.067.982-5.75 2.181L36.5 81.362l4.5 1.221 4.5 1.221-6.817.098c-5.724.082-7.367.518-10.25 2.717-3.786 2.888-4.357 4.376-1.683 4.39 1.022.006-.019 1.07-2.5 2.557C20.144 96.027 18.767 98 21.155 98c.655 0 .371.866-.655 2-.995 1.1-2.363 2-3.038 2-1.233 0-2.796 3.999-1.91 4.886.503.502 4.112-1.249 11.448-5.555 3.667-2.152 5.829-2.659 11.679-2.736l7.179-.095-.047-3.75-.047-3.75-8.132-.1c-9.512-.116-6.946-1.639 3.035-1.8 3.87-.063 6.383-.565 6.748-1.35.321-.687.331.888.023 3.5-.313 2.648-.151 4.75.365 4.75.509 0 2.224-1.877 3.811-4.171 3.895-5.628 12.188-12.114 14.663-11.467 1.057.276 1.658.24 1.337-.081-.834-.834 2.558-3.211 4.636-3.249 2.658-.049 2.092-1.658-1-2.844-4.682-1.795-6.674-2.073-8.785-1.227m58.535.468c0 .798 11.175 3.684 12.844 3.317.911-.2-.888-1.125-3.998-2.055-5.52-1.651-8.846-2.125-8.846-1.262m-31.469 7.84c.312 1.24-.131 3.922-.982 5.96-.852 2.039-1.53 4.284-1.507 4.989.073 2.234 3.872-5.609 3.916-8.085.035-1.975.414-2.258 2.292-1.711 3.106.905 9.597 1.736 7.75.992-.825-.332-3.87-1.458-6.767-2.501l-5.267-1.898zm-4.348 13.948c-1.4 1.4-1.545 2.783-.29 2.783.916 0 2.425-3.016 1.814-3.626-.187-.188-.873.192-1.524.843m-3.772 5.928c-1.051 1.187-3.912 3.44-6.357 5.006-3.031 1.942-3.826 2.842-2.5 2.828 2.14-.022 12.302-8.425 11.357-9.39-.325-.331-1.45.37-2.5 1.556M60 110c1.814 1.172 5.772 1.172 8.5 0 1.422-.611.267-.875-4-.914-4.223-.039-5.556.232-4.5.914m-37 11.456c0 1.636 4.296 3.827 6.619 3.375 1.408-.274.813-.896-2.369-2.473-2.818-1.397-4.25-1.701-4.25-.902m6 7.044c0 .825.177 1.5.393 1.5s.652-.675.969-1.5.139-1.5-.393-1.5c-.533 0-.969.675-.969 1.5m75.5 21.393a559 559 0 0 1-7.5 3.422c-2.569 1.143-2.955 1.574-1.45 1.621 1.127.035 2.477-.312 3-.771s3.083-1.619 5.69-2.578c2.606-.96 4.996-2.159 5.309-2.666.853-1.381-.606-1.1-5.049.972m-57.011 45.174c-.606 3.588-.164 6.046.872 4.85.914-1.055 1.565-8.917.739-8.917-.508 0-1.233 1.83-1.611 4.067"/></svg>