<svg xmlns="http://www.w3.org/2000/svg" width="200" height="200" fill="#000000"><path fill-opacity=".427" fill-rule="evenodd" d="M0 100.005V200.01l100.25-.255 100.25-.255.255-99.75L201.01 0H0zm.481.495c0 55 .121 77.647.269 50.326.148-27.32.148-72.32 0-100C.602 23.147.481 45.5.481 100.5M88.5 39.441c-10.793 2.238-18.793 6.271-28.159 14.194L55.181 58h-10.09c-5.55 0-10.091.28-10.091.621 0 .342 2.24 4.504 4.979 9.25l4.978 8.629-1.541 5c-1.942 6.299-2.204 21.287-.498 28.5 4.815 20.365 22.098 38.147 41.868 43.078 5.202 1.298 5.363 1.451 10.154 9.708l4.869 8.39 4.102-7.024c2.257-3.864 4.333-7.624 4.614-8.356s2.865-1.879 5.743-2.55c15.548-3.621 30.617-15.841 37.619-30.507 2.163-4.532 4.423-10.624 5.023-13.538 1.568-7.624 1.342-19.371-.522-27.093l-1.612-6.678 5.011-8.465 5.012-8.465-10.548-.285-10.548-.286-5.397-4.932c-9.647-8.817-25.999-15.088-38.806-14.882-2.75.045-7.7.641-11 1.326m-.444 3.649c-7.591 1.489-18.728 7.456-24.895 13.338l-5.75 5.484-8.168.294-8.167.294 3.822 6.583 3.822 6.582-1.802 6.918c-7.704 29.561 11.035 60.892 40.342 67.451 5.036 1.127 5.449 1.468 8.555 7.075 1.795 3.24 3.592 5.891 3.993 5.891.402 0 2.191-2.657 3.976-5.904 3.068-5.581 3.532-5.972 8.481-7.151 24.878-5.931 42.113-27.596 42.117-52.945.001-4.927-.74-11.32-1.763-15.208l-1.765-6.707 3.573-6.096c1.965-3.353 3.573-6.297 3.573-6.543 0-.245-3.358-.446-7.462-.446h-7.462l-5.964-5.321C123.39 44.435 105.903 39.591 88.056 43.09"/><path fill-opacity=".617" fill-rule="evenodd" d="M0 100.005V200.01l100.25-.255 100.25-.255.255-99.75L201.01 0H0zm.481.495c0 55 .121 77.647.269 50.326.148-27.32.148-72.32 0-100C.602 23.147.481 45.5.481 100.5m84.635-60.456c-8.859 2.32-18.017 7.264-24.871 13.425L55.206 58H34.087l5.305 9.178 5.305 9.177-1.334 4.435c-3.909 12.987-2.31 28.751 4.282 42.21 6.902 14.091 22.491 26.812 37.042 30.226 5.102 1.197 5.265 1.352 9.97 9.496 2.631 4.553 5.022 8.267 5.314 8.254.291-.014 2.578-3.681 5.081-8.15 4.484-8.002 4.633-8.145 9.877-9.487 18.423-4.715 34.207-19.786 40.569-38.737 3.009-8.964 3.426-23.246.958-32.772l-1.544-5.958 4.99-8.686 4.989-8.686-10.015-.286-10.016-.286-6.68-5.522c-15.582-12.884-34.365-17.259-53.064-12.362m1.075 3.981c-9.375 2.456-16.168 6.165-23.226 12.682l-5.639 5.207-8.071.293-8.071.293 3.973 6.661 3.973 6.661-1.579 5.319c-6.813 22.942 2.383 47.66 22.864 61.452 4.524 3.047 12.603 6.252 19.629 7.786 1.812.396 3.515 2.281 5.914 6.546 1.853 3.295 3.703 5.785 4.11 5.533s2.133-2.924 3.834-5.938c2.259-4.004 3.835-5.645 5.845-6.09 10.457-2.315 19.275-6.77 26.53-13.4 12.006-10.973 17.764-24.245 17.662-40.706-.04-6.393-.668-11.745-1.798-15.324l-1.736-5.5 3.76-6.5 3.76-6.5-7.605-.295-7.604-.294-5.764-5.217c-14.003-12.671-32.823-17.368-50.761-12.669M85.5 56.056c-3.3 1.069-7.125 2.869-8.5 4l-2.5 2.056 4-.44c2.2-.243 6.025-1.231 8.5-2.197 6.628-2.586 18.888-2.427 26.465.344 3.281 1.199 7.331 2.167 9 2.15l3.035-.031-4-2.465c-9.221-5.681-24.526-7.134-36-3.417M53.869 70.721c.533.979 6.182 10.779 12.552 21.779 6.371 11 16.195 27.987 21.831 37.748 5.636 9.762 10.523 17.749 10.859 17.75s1.646-1.949 2.911-4.333l2.299-4.335-8.66-14.995C90.897 116.088 87 109.057 87 108.712s3.356-.759 7.458-.92l7.459-.292-10.807-19-10.807-19-13.702-.279c-12.875-.261-13.643-.171-12.732 1.5M87 69.604c0 .622 25.392 45.56 27.454 48.587 1.01 1.483 1.445 1.155 3.526-2.655l2.375-4.347-6.332-11.345a18238 18238 0 0 0-9.272-16.594L101.809 78h2.922c2.717 0 3.433.931 10.189 13.25 3.997 7.287 7.625 13.628 8.063 14.09s1.932-1.064 3.319-3.39l2.522-4.23-4.912-9.193c-2.702-5.056-4.912-9.493-4.912-9.86s2.475-.667 5.5-.667 5.5.241 5.5.535-.702 1.607-1.561 2.918c-1.448 2.21-1.392 2.715.776 6.981l2.338 4.599 5.913-9.766c3.252-5.372 6.554-10.78 7.338-12.017L146.23 69h-29.615C100.327 69 87 69.272 87 69.604M74.338 88.25c4.567 8.511 5.938 10.304 8.081 10.566 1.42.174 2.581-.152 2.581-.725s-2.29-5.328-5.089-10.566C75.221 78.748 74.587 78 71.83 78h-2.992zm66.988 1.837c-.645 1.327-1.448 5.473-1.783 9.214-1.148 12.82-6.29 22.461-15.768 29.569-6.057 4.542-11.008 9.231-10.394 9.844.9.9 11.032-5.053 15.366-9.027 10.036-9.202 14.531-20.004 14.045-33.75-.252-7.144-.451-7.936-1.466-5.85m-84.666-.414c-.363.363-.66 3.695-.66 7.405 0 16.56 9.533 32.026 24.267 39.368 2.797 1.394 5.263 2.358 5.479 2.142.966-.966-2.34-4.338-6.948-7.088-11.096-6.621-17.866-17.851-18.603-30.861-.43-7.598-2.008-12.492-3.535-10.966"/><path fill-opacity=".482" fill-rule="evenodd" d="M0 100.005V200.01l100.25-.255 100.25-.255.255-99.75L201.01 0H0zm.481.495c0 55 .121 77.647.269 50.326.148-27.32.148-72.32 0-100C.602 23.147.481 45.5.481 100.5m85.164-60.916c-7.671 1.857-18.58 7.653-24.613 13.077L56.206 57h-11.21c-12.928 0-12.436-1.057-5.247 11.285l4.784 8.215-1.698 6.5c-7.821 29.932 11.684 62.788 41.773 70.367 4.666 1.175 5.111 1.6 9.631 9.179 2.606 4.37 5.081 8.059 5.5 8.198.418.138 2.778-3.327 5.242-7.701l4.481-7.951 8.019-2.518c18.872-5.925 34.259-21.913 39.156-40.687 2.174-8.33 2.156-22.648-.037-30.191l-1.676-5.765 5.039-8.56c2.771-4.708 4.786-8.968 4.478-9.466S159.389 57 153.897 57h-9.985l-5.899-4.909c-6.854-5.704-16.018-10.411-24.473-12.569-7.309-1.866-20.047-1.838-27.895.062m3.868 3.591c-7.878 1.502-20.391 7.912-26.653 13.654L57.22 62h-7.61c-4.186 0-7.61.264-7.61.588s1.627 3.497 3.617 7.054l3.616 6.467-1.716 6.115c-2.207 7.865-2.205 21.548.004 29.366 5.123 18.137 23.288 35.263 40.524 38.205 4.131.705 4.681 1.185 8.109 7.082l3.678 6.326 3.797-6.602c2.9-5.042 4.326-6.601 6.039-6.601 3.882 0 15.371-4.694 21.034-8.595 10.809-7.444 19.501-20.489 22.335-33.519 1.523-7.006.811-21.837-1.335-27.814l-1.59-4.427 3.854-6.573 3.854-6.572-7.746-.288-7.745-.288-5.415-5.02c-12.455-11.548-30.87-16.882-47.401-13.729M91.78 53.98c-4.969.89-13.902 4.702-17.28 7.374-1.947 1.54-1.924 1.583.879 1.614 1.583.018 5.998-1.093 9.81-2.468 8.965-3.234 19.798-3.378 27.811-.37 3.025 1.135 7.3 2.265 9.5 2.511l4 .446-2.812-2.38c-6.147-5.205-21.882-8.522-31.908-6.727M53 69.519c0 .286 9.723 17.246 21.608 37.689s22.081 38.21 22.66 39.481 1.318 2.305 1.643 2.297 1.765-2.148 3.202-4.755l2.612-4.74-8.859-15.495-8.86-15.496 7.497-.292c4.123-.161 7.497-.443 7.497-.627 0-.308-3.139-5.956-16.576-29.828L80.5 69.006l-13.75-.003c-7.562-.002-13.75.231-13.75.516m33.316.231c.239.412 6.607 11.55 14.152 24.75s14.069 24.371 14.499 24.823 1.908-1.195 3.287-3.662l2.508-4.486-2.218-3.838c-3.644-6.306-15.018-26.673-15.377-27.536-.184-.441.808-.801 2.203-.801 2.229 0 3.464 1.695 10.2 14 4.216 7.7 7.799 14 7.962 14s1.466-2.091 2.894-4.646l2.596-4.646-4.998-9.354L119.026 79h4.987c5.337 0 5.519.137 3.991 2.992-.729 1.363-.47 3.087.965 6.435 1.078 2.515 2.17 4.573 2.428 4.573C131.951 93 146 70.497 146 69.609c0-.335-13.527-.609-30.059-.609s-29.864.338-29.625.75M70 79.28c0 .227 2.171 4.419 4.825 9.316 4.114 7.593 5.237 8.952 7.63 9.233l2.806.329-4.975-9.329c-4.163-7.808-5.407-9.381-7.63-9.645-1.461-.174-2.656-.131-2.656.096M56 96.318c0 13.853 3.855 23.4 13.065 32.354C73.934 133.406 82.924 139 85.661 139c2.417 0-1.388-4.65-6.031-7.371-5.978-3.503-13.34-11.753-16.345-18.317-1.73-3.78-2.715-7.95-3.003-12.718C59.839 93.271 58.414 88 56.879 88c-.484 0-.879 3.743-.879 8.318m84.891-6.272c-.994 1.518-1.788 5.506-2.081 10.454-.365 6.165-1.144 9.362-3.392 13.937-3.4 6.918-10.396 14.491-16.053 17.377-2.184 1.114-4.514 3.219-5.179 4.677-1.139 2.5-1.08 2.612 1.053 1.976 8.491-2.534 19.479-12.576 23.832-21.78 3.655-7.731 5.468-17.921 4.312-24.247l-.885-4.848z"/><path fill-opacity=".483" fill-rule="evenodd" d="M0 100.005V200.01l100.25-.255 100.25-.255.255-99.75L201.01 0H0zm.481.495c0 55 .121 77.647.269 50.326.148-27.32.148-72.32 0-100C.602 23.147.481 45.5.481 100.5M89 38.692c-8.818 1.48-20.149 7.013-27.16 13.263L56.179 57H45.09C36.101 57 34 57.273 34 58.441c0 .793.45 1.719 1 2.059s1 1.491 1 2.559S36.464 65 37.031 65c.568 0 1.324.787 1.68 1.75.357.963 1.742 3.421 3.078 5.463l2.428 3.713-1.733 7.787c-3.144 14.132-.237 32.972 6.628 42.95C50.7 128.971 52 131.169 52 131.547c0 .377 2.7 3.353 6 6.612s6 6.383 6 6.943.453.736 1.007.394 2.241.212 3.75 1.232c3.683 2.491 11.794 5.971 16.917 7.259 3.76.945 4.578 1.75 8.252 8.123 2.243 3.89 3.783 7.552 3.422 8.136-.387.626-.182.77.497.349.638-.393 1.155-.154 1.155.535 0 2.099 3.295-2.325 6.966-9.354 3.202-6.13 3.814-6.732 8-7.87 2.494-.678 6.945-2.281 9.892-3.562s5.828-2.038 6.404-1.682c.58.359.753.171.386-.422-.367-.594 1.009-2.08 3.096-3.343 3.595-2.177 11.38-9.725 13.998-13.572 6.321-9.287 11.271-24.365 11.241-34.235-.017-5.321-1.944-16.389-3.571-20.514-.599-1.516-.416-1.792.863-1.301 1.117.429 1.458.192 1.092-.761-.292-.761 1.306-4.529 3.551-8.374 2.245-3.844 4.082-7.458 4.082-8.032 0-.645-4.29-1.15-11.25-1.325-9.387-.236-11.195-.531-10.917-1.783.184-.825.027-1.193-.348-.818-.375.374-3-1.201-5.833-3.5-6.186-5.021-17.274-10.283-24.595-11.671-5.192-.985-18.032-1.162-23.057-.319M79 57.059c0 .582.45.781 1 .441s1-.816 1-1.059S80.55 56 80 56s-1 .477-1 1.059m22.813 47.624c.721.289 1.584.253 1.916-.079s-.258-.568-1.312-.525c-1.165.048-1.402.285-.604.604m37.059 29.067c-1.243 1.586-1.208 1.621.378.378 1.666-1.307 2.195-2.128 1.372-2.128-.207 0-.995.787-1.75 1.75m-72.793 3.833c.048 1.165.285 1.402.604.605.289-.722.253-1.585-.079-1.917s-.568.258-.525 1.312"/></svg>