<svg xmlns="http://www.w3.org/2000/svg" width="40" height="40" fill="#000000"><path fill="#fafafa" d="M22.502 29v-.8l5.74-17.2h1.96v.8L24.462 29zM17.202 27.3c-2.92 0-5.44-1.56-5.44-4.84h2.4c0 2.08 1.8 2.64 3.18 2.64 1.72 0 2.62-.78 2.62-1.82 0-1.1-1.1-1.48-3.24-2.28l-.32-.12c-2.64-1-4.26-1.82-4.26-4.1 0-2.44 1.9-4.08 5.04-4.08 2.96 0 5.2 1.34 5.2 4.72h-2.4c0-1.88-1.36-2.52-2.82-2.52-1.6 0-2.6.72-2.6 1.7 0 1.18.98 1.52 3.02 2.24l.28.1c2.48.88 4.64 1.76 4.64 4.22 0 2.36-1.78 4.14-5.3 4.14"/></svg>