<svg xmlns="http://www.w3.org/2000/svg" width="250" height="250" version="1.1" fill="#000000"><path fill-opacity=".122" d="M 112 38.706 C 108.294 39.350, 94.158 43.846, 91.664 45.175 C 87.499 47.393, 76.051 57.058, 72.293 61.528 C 66.274 68.687, 61.157 77.807, 58.294 86.479 C 56.025 93.351, 55.636 96.290, 55.573 107 C 55.492 120.950, 57.411 129.273, 63.247 140.282 L 66.313 146.064 63.764 148.782 C 59.972 152.825, 56.300 160.830, 55.034 167.813 C 52.034 184.354, 61.758 202.309, 77.782 209.820 C 82.798 212.171, 84.727 212.498, 93.500 212.487 C 102.221 212.475, 104.231 212.132, 109.218 209.807 C 120.100 204.732, 128.958 193.889, 131.523 182.507 L 132.648 177.514 138.010 176.323 C 152.826 173.033, 164.541 166.687, 174.500 156.557 C 182.745 148.170, 188.040 139.538, 191.713 128.500 C 194.048 121.481, 194.374 118.906, 194.374 107.500 C 194.374 96.094, 194.048 93.519, 191.713 86.500 C 187.953 75.199, 182.677 66.703, 173.957 57.903 C 167.878 51.770, 164.578 49.392, 156.957 45.652 C 144.374 39.478, 137.967 37.969, 125.040 38.136 C 119.243 38.211, 113.375 38.468, 112 38.706" stroke="none" fill="#000000" fill-rule="evenodd"/><path fill-opacity=".245" d="M 93 44.946 L 89.500 46.809 89 91.110 L 88.500 135.411 84.618 136.217 C 78.637 137.459, 69.233 142.918, 65.300 147.430 C 63.348 149.668, 60.345 154.425, 58.626 158 C 55.800 163.876, 55.500 165.413, 55.500 174 C 55.500 182.605, 55.800 184.134, 58.686 190.225 C 72.733 219.877, 114.267 219.877, 128.314 190.225 C 131.235 184.060, 131.500 182.667, 131.500 173.500 C 131.500 164.792, 131.163 162.789, 128.890 158 C 123.839 147.356, 112.957 138.414, 102.382 136.217 L 98.500 135.411 98.240 89.205 C 98.097 63.792, 97.647 43.019, 97.240 43.042 C 96.833 43.065, 94.925 43.922, 93 44.946" stroke="none" fill="#000000" fill-rule="evenodd"/><path fill-opacity=".627" d="M 92.250 45.989 L 89 47.971 89 91.867 L 89 135.763 84.250 136.957 C 69.636 140.632, 58.818 152.462, 56.034 167.813 C 53.395 182.368, 60.213 197.848, 72.778 205.825 C 91.941 217.992, 117.281 211.211, 127.385 191.213 C 138.504 169.205, 126.583 142.950, 102.750 136.957 L 98 135.763 98 89.881 C 98 53.841, 97.732 44.001, 96.750 44.004 C 96.063 44.006, 94.037 44.899, 92.250 45.989" stroke="none" fill="#000000" fill-rule="evenodd"/><path fill-opacity=".334" d="M 93.250 45.823 L 90 47.363 90 91.574 C 90 139.067, 90.220 136.998, 85.168 137.001 C 82.465 137.002, 71.688 142.533, 69.273 145.158 L 67.047 147.579 73.049 154.230 C 80.517 162.504, 90.455 169.194, 101.227 173.198 C 107.989 175.711, 111.490 176.364, 120.394 176.771 L 131.288 177.269 130.794 170.384 C 130.167 161.655, 126.478 153.636, 120.203 147.361 C 115.550 142.708, 105.290 137.016, 101.500 136.985 C 96.954 136.949, 97.034 137.746, 96.760 89.839 L 96.500 44.284 93.250 45.823" stroke="none" fill="#000000" fill-rule="evenodd"/></svg>