<svg xmlns="http://www.w3.org/2000/svg" width="64" height="64" version="1.1" fill="#000000"><path fill-opacity=".212" d="M 19.977 10.233 C 17.039 12.676, 14 17.289, 14 19.306 C 14 20.426, 13.367 22.053, 12.593 22.921 C 9.113 26.826, 10.650 33.010, 16.080 36.943 C 19.916 39.721, 20.014 39.922, 18.062 40.967 C 15.326 42.431, 11.987 49.153, 11.717 53.739 C 11.513 57.209, 11.799 57.595, 16.500 60.192 C 22.375 63.437, 25 63.741, 25 61.178 C 25 57.457, 28.271 49.932, 30.729 47.998 C 32.407 46.678, 34.785 46, 37.734 46 C 41.399 46, 42.696 46.534, 44.984 48.983 C 46.517 50.624, 48.068 53.549, 48.431 55.483 C 49.107 59.085, 50.639 60.104, 51.603 57.591 C 51.901 56.816, 51.709 54.605, 51.177 52.678 C 50.293 49.476, 50.470 48.929, 53.235 46.337 C 57.323 42.503, 60.241 35.853, 59.398 32.290 C 58.632 29.054, 55.137 24.030, 50.066 18.874 C 48.105 16.880, 45.543 13.969, 44.373 12.404 C 42.215 9.518, 41.921 9.458, 32 9.881 C 31.175 9.916, 28.475 9.725, 26 9.456 C 23.165 9.147, 20.936 9.435, 19.977 10.233 M 24.500 21.726 L 21.500 23.372 24 24.086 C 28.095 25.256, 28.500 25.114, 28.500 22.500 C 28.500 19.582, 28.432 19.569, 24.500 21.726 M 32.722 21.122 C 33.339 21.739, 33.606 22.864, 33.315 23.622 C 32.969 24.524, 33.514 25, 34.893 25 C 36.052 25, 37 24.415, 37 23.700 C 37 21.950, 34.945 20, 33.100 20 C 31.991 20, 31.893 20.293, 32.722 21.122 M 39.693 20.700 C 37.575 21.249, 37.818 24.341, 40.011 24.764 C 41.012 24.956, 41.500 24.223, 41.500 22.525 C 41.500 21.136, 41.500 20.052, 41.500 20.116 C 41.500 20.180, 40.687 20.443, 39.693 20.700 M 46.500 22.500 C 46.500 25.016, 48.328 25.896, 49.527 23.956 C 50.157 22.937, 48.375 20, 47.128 20 C 46.782 20, 46.500 21.125, 46.500 22.500 M 48 28 C 48 28.550, 48.477 29, 49.059 29 C 49.641 29, 49.840 28.550, 49.500 28 C 49.160 27.450, 48.684 27, 48.441 27 C 48.198 27, 48 27.450, 48 28 M 46.441 35.468 C 45.374 36.276, 45.026 36.951, 45.668 36.968 C 47.568 37.020, 50 35.855, 50 34.893 C 50 33.582, 48.645 33.801, 46.441 35.468" stroke="none" fill="#000000" fill-rule="evenodd"/><path fill-opacity=".214" d="M 19.219 11.469 C 17.333 13.056, 15.551 15.849, 14.846 18.324 C 14.191 20.621, 13.058 23.210, 12.327 24.079 C 10.121 26.703, 10.790 30.691, 14.062 34.417 C 15.745 36.335, 17.994 38.181, 19.059 38.519 C 20.832 39.081, 20.739 39.349, 17.961 41.686 C 14.534 44.570, 12 49.850, 12 54.108 C 12 56.321, 12.852 57.521, 15.750 59.389 C 21.604 63.161, 23.726 63.504, 24.454 60.792 C 27.646 48.912, 30.325 45.833, 37.471 45.833 C 40.611 45.833, 42.826 46.438, 44.182 47.664 C 46.782 50.018, 49 54.319, 49 57.009 C 49 58.281, 49.434 58.850, 50.094 58.442 C 50.718 58.056, 51.011 55.991, 50.776 53.633 C 50.416 50.024, 50.839 48.930, 54.111 45 C 61.044 36.674, 60.634 30.812, 52.516 22.202 C 49.560 19.066, 45.817 14.948, 44.197 13.050 C 41.740 10.170, 40.654 9.634, 37.627 9.807 C 31.108 10.179, 30.545 10.163, 26.451 9.473 C 22.966 8.886, 21.959 9.164, 19.219 11.469 M 45.957 20.919 C 46.699 22.306, 46.563 23.118, 45.429 24.059 C 44.170 25.103, 43.599 25.008, 42.200 23.522 C 40.596 21.818, 40.603 21.752, 42.334 22.359 C 43.556 22.787, 44.028 22.585, 43.751 21.751 C 43.494 20.980, 41.257 20.447, 37.917 20.362 C 32.602 20.226, 32.498 20.278, 32.394 23.112 C 32.285 26.050, 33.389 26.673, 35.894 25.087 C 36.716 24.566, 38.469 24.616, 40.169 25.209 C 41.754 25.761, 44.642 25.915, 46.587 25.550 C 49.445 25.014, 50.064 24.486, 49.812 22.802 C 49.640 21.656, 48.477 20.342, 47.228 19.883 C 45.221 19.146, 45.072 19.267, 45.957 20.919 M 24.250 21.220 C 23.012 21.817, 22 22.634, 22 23.036 C 22 23.879, 25.597 24.966, 28.450 24.986 C 29.967 24.997, 30.133 24.733, 29.200 23.800 C 27.475 22.075, 27.723 20.956, 29.664 21.701 C 30.783 22.131, 31.091 21.957, 30.605 21.170 C 29.725 19.746, 27.266 19.766, 24.250 21.220 M 47.791 27.097 C 46.861 27.618, 43.715 28.026, 40.800 28.005 C 33.533 27.952, 28 28.394, 28 29.028 C 28 30.234, 31.698 32.601, 32.937 32.188 C 33.675 31.942, 34.004 32.184, 33.669 32.726 C 33.310 33.307, 34.025 33.527, 35.413 33.261 C 36.707 33.014, 38.070 33.304, 38.442 33.906 C 38.814 34.508, 40.554 34.993, 42.309 34.985 C 44.737 34.973, 45.141 34.738, 44 34 C 42.865 33.266, 43.303 33.027, 45.806 33.015 L 49.112 33 46.306 35.518 L 43.500 38.036 46.500 37.377 C 50.389 36.523, 50.167 36.880, 50.167 31.500 C 50.167 26.070, 50.042 25.838, 47.791 27.097" stroke="none" fill="#000000" fill-rule="evenodd"/><path fill-opacity=".658" d="M 20.763 10.553 C 17.930 12.103, 15 16.674, 15 19.543 C 15 20.446, 14.100 22.329, 13 23.727 C 11.900 25.126, 11.002 26.997, 11.004 27.885 C 11.011 30.843, 14.943 36.005, 18.471 37.687 L 21.955 39.349 18.917 41.196 C 15.507 43.270, 12.776 48.781, 12.610 53.924 C 12.508 57.092, 12.909 57.564, 17.983 60.236 L 23.465 63.124 24.571 58.812 C 26.939 49.575, 31.222 45, 37.500 45 C 43.256 45, 49 50.470, 49 55.950 C 49 57.078, 49.492 58, 50.094 58 C 50.821 58, 50.975 56.409, 50.553 53.250 C 49.971 48.901, 50.163 48.272, 52.825 45.791 C 55.902 42.925, 59 37.293, 59 34.567 C 59 31.886, 56.407 26.729, 53.185 23 L 50.160 19.500 50.481 28.159 C 50.784 36.309, 50.676 36.852, 48.651 37.396 C 45.228 38.314, 43.749 38.097, 44.258 36.750 C 44.586 35.883, 43.358 35.435, 40.247 35.289 C 33.773 34.983, 29.452 33.288, 28.212 30.567 C 27.172 28.283, 27.312 28.168, 31.815 27.595 C 34.392 27.267, 39.196 27.032, 42.490 27.073 C 45.785 27.114, 48.186 26.853, 47.826 26.493 C 47.467 26.133, 43.011 25.826, 37.926 25.809 C 32.840 25.793, 26.839 25.244, 24.590 24.588 L 20.500 23.396 23.423 21.469 C 25.387 20.175, 27.849 19.600, 30.923 19.716 C 33.441 19.812, 36.850 19.847, 38.500 19.796 C 40.150 19.744, 43.096 19.656, 45.047 19.601 L 48.595 19.500 45.799 15.358 C 44.262 13.079, 42.291 10.942, 41.420 10.608 C 39.088 9.713, 34.713 9.896, 33.034 10.958 C 32.227 11.468, 31.102 11.513, 30.534 11.058 C 28.370 9.327, 23.468 9.073, 20.763 10.553 M 31.417 21.361 C 31.866 22.741, 31.631 23.073, 30.511 22.643 C 29.680 22.324, 29 22.499, 29 23.031 C 29 23.564, 29.900 24, 31 24 C 33.242 24, 33.478 23.207, 31.890 21 C 30.998 19.759, 30.916 19.821, 31.417 21.361 M 44 21 C 44 21.550, 44.477 22, 45.059 22 C 45.641 22, 45.840 21.550, 45.500 21 C 45.160 20.450, 44.684 20, 44.441 20 C 44.198 20, 44 20.450, 44 21 M 42.750 23.662 C 43.438 23.940, 44.563 23.940, 45.250 23.662 C 45.938 23.385, 45.375 23.158, 44 23.158 C 42.625 23.158, 42.063 23.385, 42.750 23.662" stroke="none" fill="#000000" fill-rule="evenodd"/><path fill-opacity=".963" d="M 18.510 12.990 C 16.935 14.634, 15.838 16.105, 16.073 16.258 C 16.308 16.411, 17.924 15.066, 19.664 13.268 C 21.405 11.471, 22.501 10, 22.101 10 C 21.701 10, 20.085 11.345, 18.510 12.990 M 25.750 10.662 C 26.438 10.940, 27.563 10.940, 28.250 10.662 C 28.938 10.385, 28.375 10.158, 27 10.158 C 25.625 10.158, 25.063 10.385, 25.750 10.662 M 33.458 11.068 C 33.095 11.656, 32.056 11.854, 31.149 11.509 C 29.858 11.018, 29.762 11.145, 30.708 12.098 C 31.573 12.971, 32.281 13.013, 33.208 12.246 C 33.918 11.658, 35.850 10.980, 37.500 10.738 L 40.500 10.300 37.309 10.150 C 35.554 10.067, 33.821 10.481, 33.458 11.068 M 41.771 11.669 C 42.470 11.951, 43.691 13.435, 44.484 14.969 L 45.925 17.756 41.713 18.525 C 39.396 18.948, 37.050 19.166, 36.500 19.010 C 35.950 18.854, 34.375 18.551, 33 18.336 C 31.315 18.073, 31.642 18.380, 34 19.277 C 36.401 20.191, 38.373 20.322, 40.282 19.696 C 41.812 19.193, 44.324 18.967, 45.864 19.193 L 48.665 19.605 45.762 15.302 C 44.165 12.936, 42.328 11.036, 41.679 11.079 C 40.869 11.133, 40.898 11.318, 41.771 11.669 M 15.158 20 C 15.158 21.375, 15.385 21.938, 15.662 21.250 C 15.940 20.563, 15.940 19.438, 15.662 18.750 C 15.385 18.063, 15.158 18.625, 15.158 20 M 24.500 19.945 C 22.300 20.986, 20.950 21.841, 21.500 21.845 C 22.864 21.854, 30.755 18.161, 29.500 18.100 C 28.950 18.074, 26.700 18.904, 24.500 19.945 M 50.429 22.927 C 50.429 23.986, 50.810 24.617, 51.277 24.329 C 51.744 24.040, 53.090 24.636, 54.269 25.652 C 56.099 27.230, 56.054 27.033, 53.956 24.305 C 51.078 20.562, 50.429 20.308, 50.429 22.927 M 30.500 23 C 28.592 23.820, 28.603 23.863, 30.750 23.930 C 31.988 23.968, 33 23.550, 33 23 C 33 22.450, 32.888 22.032, 32.750 22.070 C 32.612 22.109, 31.600 22.527, 30.500 23 M 12.345 24.543 C 12.019 25.392, 12.034 26.367, 12.376 26.710 C 12.719 27.053, 13 26.621, 13 25.750 C 13 24.879, 13.563 23.940, 14.250 23.662 C 15.229 23.267, 15.222 23.141, 14.219 23.079 C 13.514 23.036, 12.671 23.694, 12.345 24.543 M 21.441 24.445 C 22.509 25.300, 24.084 25.964, 24.941 25.921 C 26.288 25.853, 26.296 25.766, 25 25.286 C 24.175 24.980, 22.600 24.316, 21.500 23.810 C 19.532 22.904, 19.531 22.915, 21.441 24.445 M 42.750 23.662 C 43.438 23.940, 44.563 23.940, 45.250 23.662 C 45.938 23.385, 45.375 23.158, 44 23.158 C 42.625 23.158, 42.063 23.385, 42.750 23.662 M 32 26.035 C 28.093 26.430, 27.010 26.828, 28.262 27.407 C 29.232 27.856, 31.482 27.928, 33.262 27.567 C 35.043 27.206, 39.200 26.912, 42.500 26.915 C 45.800 26.918, 48.050 26.750, 47.500 26.543 C 45.436 25.764, 37.307 25.498, 32 26.035 M 50 26.941 C 50 27.459, 50.445 28.157, 50.989 28.493 C 51.555 28.843, 51.723 28.442, 51.382 27.552 C 50.717 25.820, 50 25.503, 50 26.941 M 56.731 30.080 C 57.085 31.432, 57.538 31.886, 57.788 31.137 C 58.028 30.415, 57.750 29.350, 57.168 28.768 C 56.426 28.026, 56.296 28.417, 56.731 30.080 M 12 30.441 C 12 31.234, 12.408 32.134, 12.907 32.442 C 13.405 32.751, 13.578 32.102, 13.290 31.001 C 12.679 28.666, 12 28.371, 12 30.441 M 51.079 34.667 C 51.036 35.858, 50.438 37.060, 49.750 37.338 C 48.771 37.733, 48.778 37.859, 49.781 37.921 C 51.299 38.015, 52.403 35.600, 51.673 33.783 C 51.390 33.077, 51.122 33.475, 51.079 34.667 M 16 35.911 C 17.375 37.035, 18.950 37.959, 19.500 37.962 C 20.570 37.970, 18.762 36.585, 15.500 34.899 C 14.172 34.213, 14.339 34.552, 16 35.911 M 34.750 35.662 C 35.438 35.940, 36.563 35.940, 37.250 35.662 C 37.938 35.385, 37.375 35.158, 36 35.158 C 34.625 35.158, 34.063 35.385, 34.750 35.662 M 41.500 36 L 38.500 36.763 41.191 36.882 C 42.671 36.947, 44.160 36.550, 44.500 36 C 44.840 35.450, 44.979 35.053, 44.809 35.118 C 44.639 35.183, 43.150 35.580, 41.500 36 M 57.079 37.583 C 57.127 38.748, 57.364 38.985, 57.683 38.188 C 57.972 37.466, 57.936 36.603, 57.604 36.271 C 57.272 35.939, 57.036 36.529, 57.079 37.583 M 44.750 38.662 C 45.438 38.940, 46.563 38.940, 47.250 38.662 C 47.938 38.385, 47.375 38.158, 46 38.158 C 44.625 38.158, 44.063 38.385, 44.750 38.662 M 52.564 44.783 C 49.039 49.008, 48.969 49.187, 51.900 46.500 C 54.676 43.954, 57.720 39.925, 56.785 40.033 C 56.628 40.051, 54.729 42.188, 52.564 44.783 M 18.239 41.666 C 17.545 41.946, 16.507 43.148, 15.933 44.337 C 15.043 46.182, 15.082 46.268, 16.195 44.927 C 16.913 44.062, 18.400 42.839, 19.500 42.208 C 21.492 41.065, 20.639 40.699, 18.239 41.666 M 35.762 44.707 C 37.006 44.946, 38.806 44.937, 39.762 44.687 C 40.718 44.437, 39.700 44.241, 37.500 44.252 C 35.300 44.263, 34.518 44.468, 35.762 44.707 M 28.924 47.750 L 26.500 50.500 29.500 48 C 31.150 46.625, 32.688 45.388, 32.917 45.250 C 33.146 45.112, 32.887 45, 32.341 45 C 31.795 45, 30.258 46.237, 28.924 47.750 M 46.415 49.094 C 47.837 51.071, 49 53.659, 49 54.844 C 49 56.030, 49.502 57, 50.117 57 C 50.787 57, 50.992 56.100, 50.630 54.750 C 50.299 53.513, 50.021 51.863, 50.014 51.083 C 50.006 50.304, 49.729 49.938, 49.397 50.270 C 49.066 50.601, 47.677 49.664, 46.312 48.186 C 43.848 45.520, 43.848 45.527, 46.415 49.094 M 13.624 48.539 C 13.281 49.432, 13.029 50.689, 13.063 51.332 C 13.098 51.974, 13.558 51.422, 14.085 50.105 C 14.612 48.787, 14.864 47.531, 14.645 47.312 C 14.426 47.093, 13.966 47.645, 13.624 48.539 M 12.079 54.583 C 12.127 55.748, 12.364 55.985, 12.683 55.188 C 12.972 54.466, 12.936 53.603, 12.604 53.271 C 12.272 52.939, 12.036 53.529, 12.079 54.583 M 24.624 54.539 C 24.281 55.432, 24.029 56.689, 24.063 57.332 C 24.098 57.974, 24.558 57.422, 25.085 56.105 C 25.612 54.787, 25.864 53.531, 25.645 53.312 C 25.426 53.093, 24.966 53.645, 24.624 54.539 M 23.079 60.583 C 23.127 61.748, 23.364 61.985, 23.683 61.188 C 23.972 60.466, 23.936 59.603, 23.604 59.271 C 23.272 58.939, 23.036 59.529, 23.079 60.583" stroke="none" fill="#000000" fill-rule="evenodd"/></svg>