<svg xmlns="http://www.w3.org/2000/svg" width="200" height="200" fill="#000000"><path fill-opacity=".125" fill-rule="evenodd" d="M70.813 1.683c.721.289 1.584.253 1.916-.079s-.258-.568-1.312-.525c-1.165.048-1.402.285-.604.604m14.653.764c-4.418.687-10.493 2.044-13.5 3.017-13.94 4.51-31.379 15.517-39.876 25.171l-3.859 4.384.24-3.054c.511-6.49 18.3-20.301 34.767-26.992 3.155-1.282 5.559-2.51 5.34-2.728-.218-.219-3.491.903-7.273 2.492-14.755 6.199-31.197 19.128-39.38 30.966C19.15 39.716 17.093 43 17.352 43c.26 0 2.56-2.925 5.111-6.5s4.812-6.5 5.025-6.5c.625 0-.734 7.452-1.459 8-1.683 1.273-7.463 10.707-10.577 17.264-5.557 11.701-8.514 25.171-8.525 38.829-.019 23.715 6.617 42.458 21.509 60.754 3.427 4.21 6.231 8.442 6.231 9.404 0 2.409-.55 2.232-4.666-1.501-1.971-1.787-1.242-.888 1.62 2l5.203 5.25h-4.847c-2.666 0-6.064-.463-7.551-1.028s-2.832-.9-2.989-.743-.609 7.37-1.005 16.028L19.712 200H46v-2.441c0-1.343.45-2.719 1-3.059.583-.361 1 .656 1 2.441V200h57.233l-.478-2.5c-.366-1.916-.058-2.5 1.317-2.5 1.177 0 1.958.947 2.268 2.75.259 1.512.3-2.875.089-9.75-.555-18.135-.547-18.246 1.604-20.535 2.574-2.74 2.548-4.301-.033-1.965-1.799 1.628-2 1.643-2 .155 0-3.809-1.795-1.259-2.417 3.434-.447 3.363-1.085 4.932-1.882 4.627-.663-.255-6.013-1.489-11.89-2.743l-10.684-2.28 5.687-3.421c3.127-1.882 7.14-4.53 8.917-5.883 3.106-2.366 3.773-2.455 17.25-2.299l14.019.162v2.816c0 2.497-.528 2.965-4.67 4.135-5.354 1.512-6.382 3.006-3.108 4.518 2.246 1.037 2.235 1.062-.722 1.737-6.987 1.595-6.926 2.432.163 2.238 3.94-.108 7.418.057 7.728.365.311.309 1.087 4.134 1.726 8.5.647 4.422 1.985 9.115 3.022 10.593 1.024 1.46 1.861 3.823 1.861 5.25 0 2.473.255 2.596 5.383 2.596 6.093 0 6.578-.665 6.603-9.05.008-2.503.503-5.039 1.101-5.637.783-.783.783-1.275 0-1.759-1.448-.895-1.388-2.554.093-2.554 1.507 0 13.29-7.652 15.016-9.751.717-.872-.946.003-3.696 1.945-6.867 4.849-11.254 7.454-9.75 5.789 1.493-1.652 1.665-3.357.25-2.483-.55.34-1 .383-1 .096s2.618-2.299 5.817-4.472c6.351-4.312 15.073-12.41 19.922-18.495l3.084-3.87-.351 3.783c-.284 3.056-1.565 5.043-6.662 10.339l-6.31 6.556 6.038-5.469c5.173-4.685 11.26-12.197 8.502-10.493-2.003 1.238.467-7.215 3.638-12.454 13.827-22.842 16.357-54.915 6.366-80.714-2.397-6.189-2.571-7.275-1.245-7.783 1.475-.566 3.153.958 3.186 2.893.008.504.309.622.669.262.359-.359-1.216-3.318-3.5-6.575-2.285-3.257-4.154-6.642-4.154-7.521 0-1.356-.314-1.408-2.055-.341-1.741 1.065-2.209.989-3.053-.497-1.806-3.179-11.836-14.555-15.145-17.179l-3.247-2.574 3.5.641c1.925.353 4.287 1.325 5.25 2.159 3.076 2.668 1.873.427-1.5-2.794C157.488 14.11 133.744.944 128 1.065c-.825.018 1.941 1.312 6.147 2.875 9.934 3.693 21.386 10.425 29.267 17.202.502.432-.848.508-3 .169s-5.222-1.703-6.822-3.032c-3.617-3.005-17.259-9.92-24.592-12.465-6.768-2.35-22.598-4.834-30-4.709-3.025.051-9.115.655-13.534 1.342m17.534 7.6c0 .524 1.463.958 3.25.964s5.05.243 7.25.526c2.794.359 3.397.25 2-.363-3.111-1.365-12.5-2.212-12.5-1.127m-19.75.655c-1.787.233-3.25.774-3.25 1.2 0 .427 2.732.362 6.071-.143 6.973-1.055 9.778-.487 8.025 1.626-.621.748-3.822 1.665-7.113 2.037-5.806.657-5.983.765-5.983 3.628 0 2.21.467 2.95 1.861 2.95 1.431 0 1.754-.561 1.398-2.423-.426-2.231-.077-2.476 4.389-3.084 7.661-1.044 8.501-1.438 8.16-3.829-.266-1.871-.985-2.179-5.308-2.276-2.75-.061-6.463.08-8.25.314m-17 5.497C63.362 17.337 61 18.626 61 19.064c0 .687 11.77-3.563 12.917-4.664 1.048-1.007-2.896-.081-7.667 1.799m35.75.657c0 3.35.143 3.423 9 4.632 2.957.404 4.157.277 3.5-.37-.55-.541-2.796-1.127-4.992-1.301-2.975-.236-4.083-.799-4.35-2.208-.321-1.691.13-1.837 4.241-1.373 2.531.285 4.601.124 4.601-.359 0-.482-1.294-.877-2.875-.877s-4.281-.281-6-.625c-2.963-.593-3.125-.464-3.125 2.481m-34 4.077c-4.821 1.952-5.819 3.61-3.779 6.28 1.186 1.552 1.662 1.51 6.541-.582 2.894-1.24 5.819-2.818 6.5-3.506.681-.689-.937-.324-3.595.811-5.693 2.431-7.667 2.593-7.667.629 0-.79 1.575-2.005 3.5-2.701s3.5-1.625 3.5-2.065c0-.968.442-1.069-5 1.134m-20.069 6.112c-2.987 2.224-5.605 4.547-5.818 5.16-.386 1.113 8.624-4.971 9.528-6.434.262-.424 1.125-.771 1.918-.771 2.737 0 1.427 2.843-2.809 6.094-2.337 1.794-4.629 3.584-5.093 3.977s-.069 1.896.876 3.34c1.366 2.084 2.008 2.385 3.119 1.463 1.186-.985 1.132-1.455-.356-3.099-1.676-1.852-1.669-1.987.152-3.006 1.048-.586 3.498-2.525 5.443-4.308 3.057-2.801 3.355-3.459 2.2-4.851-1.958-2.359-3.149-2.042-9.16 2.435m37.141 1.508C72.169 31.351 56.827 40.647 48.173 50.91L43.881 56h13.425c11.43 0 13.779.27 15.809 1.816 1.312 1 4.052 3.062 6.089 4.584l3.704 2.768-.815-2.843c-.448-1.564-.427-3.894.048-5.178.776-2.096.221-4.151-2.758-10.219-.154-.314.352-1.791 1.126-3.283s.976-2.444.449-2.119c-1.802 1.114-.959-.456 2.143-3.988 1.705-1.942 3.5-3.285 3.988-2.983.489.302.652-.065.364-.816s.505-2.237 1.762-3.302L91.5 28.5 89.516 31l-1.985 2.5 2.985-2.625c1.641-1.444 3.659-2.871 4.484-3.171 2.981-1.085-3.61-.521-9.928.849m19.178-.864c.963.252 2.537.252 3.5 0 .963-.251.175-.457-1.75-.457s-2.713.206-1.75.457M172 29.5c1.292 1.375 2.574 2.5 2.849 2.5s-.557-1.125-1.849-2.5-2.574-2.5-2.849-2.5.557 1.125 1.849 2.5m-78.694 2.073L90.5 34.146l3.25-2.261c1.787-1.244 3.25-2.401 3.25-2.573 0-.789-1.106-.112-3.694 2.261m13.188.433c-.998 1.104-1.63 2.184-1.405 2.402.226.218 1.22-.685 2.208-2.006 2.182-2.918 1.697-3.157-.803-.396m20.74 1.278c.954.778 1.404 1.779 1 2.225s-.284.569.266.272 2.007 1.005 3.238 2.892 1.681 3.109 1 2.715c-.681-.393.025.485 1.568 1.953s2.53 3.116 2.191 3.663c-.338.548-.153.996.413.996.565 0 .74.749.389 1.664-.467 1.216-.278 1.441.701.836s1.168-.38.701.836c-.353.92-.155 1.664.444 1.664.633 0 .899 1.244.642 3-.242 1.65-.356 3-.252 3s3.186-1.359 6.851-3.021c5.872-2.662 6.543-3.244 5.655-4.902-1.893-3.538-12.535-12.05-19.541-15.63-3.85-1.967-6.219-2.941-5.266-2.163m32.804 1.152c-.021.514 1.818 3.136 4.086 5.826 3.205 3.801 3.854 5.152 2.913 6.064-.936.907-2.272-.008-5.874-4.025l-4.663-5.2-2.41 1.99c-1.8 1.485-2.122 2.277-1.274 3.125.849.849 1.595.722 2.946-.501 1.702-1.54 2.016-1.374 5.274 2.786 2.252 2.876 4.262 4.437 5.745 4.461 2.966.049 3.847-2.388 1.887-5.22-2.746-3.969-8.592-10.272-8.63-9.306M85.75 43.162c-3.032 1.108-3.633 3.285-1.168 4.231 2.353.903 5.614.734 5.001-.259-.295-.477.241-1.552 1.191-2.39C92.835 42.926 97 44.079 97 46.468c0 .842.408 1.532.906 1.532 2.155 0-.383-3.97-3.155-4.937-3.622-1.263-5.324-1.244-9.001.099m15.25.872c-1.298.869-1.239 1.203.441 2.485 2.608 1.989 4.174 1.866 6.559-.519 2.414-2.414 3.37-2.487 5.438-.42.869.87 2.138 1.392 2.821 1.162.683-.231-.199-1.167-1.959-2.081-3.541-1.838-10.967-2.188-13.3-.627M12.66 50.75C10.809 54.462 8.555 59.525 7.652 62c-2.054 5.628-4.809 17.6-3.773 16.395.424-.492 1.54-4.27 2.481-8.395s3.693-11.663 6.116-16.75c5.07-10.644 5.213-12.587.184-2.5M25.232 52c0 1.925.206 2.712.457 1.75.252-.962.252-2.538 0-3.5-.251-.962-.457-.175-.457 1.75m148.848 1c-.041.825 1.24 4.2 2.846 7.5s2.921 5.325 2.921 4.5c0-2.061-5.676-13.87-5.767-12m-80.208 2.664c-1.244 1.508-1.162 1.552.878.465 2.327-1.24 2.9-2.129 1.372-2.129-.482 0-1.495.749-2.25 1.664m72.879-.058-2.748 1.456 3.064 6.07c1.685 3.339 3.291 5.843 3.568 5.566s-.427-2.33-1.565-4.561c-2.466-4.833-2.583-6.137-.554-6.137.834 0 2.267 1.575 3.185 3.5 2.518 5.28 3.49 4.2 1.126-1.25-2.702-6.225-2.861-6.347-6.076-4.644m23.28 2.894c0 .55.436 1.675.969 2.5s.969 1.05.969.5-.436-1.675-.969-2.5-.969-1.05-.969-.5M38.156 66.86c-5.044 11.724-7 25.611-5.239 37.184 1.213 7.97 4.787 19.956 5.95 19.956.387 0 4.794-3.488 9.793-7.75s14.093-11.35 20.21-15.75c9.519-6.849 11.046-8.324 10.606-10.25-.283-1.237-.168-2.264.255-2.281s1.625-1.205 2.671-2.639l1.901-2.608-3.814 2.591-3.814 2.592-3.087-2.182c-1.699-1.2-9.302-6.828-16.897-12.506-7.594-5.679-14.392-10.549-15.104-10.822-.818-.314-2.085 1.334-3.431 4.465m154.493-1.36c1.314 5.835 2.374 8.252 1.753 4-.322-2.2-1-4.675-1.507-5.5-.617-1.004-.699-.508-.246 1.5m-39.986 3.724c-6.151 3.217-7.491 4.292-6.229 4.999.884.495 1.304 1.392.933 1.993-.405.655-.214.807.478.379.635-.392 1.155-.161 1.155.513s.296.929.658.567c.981-.981 3.423 1.385 2.676 2.593-.359.581-.163.744.443.37 1.187-.734 4.433 3.213 3.665 4.456-.261.422.052 1.093.696 1.491.731.452.903.291.457-.43-.392-.635-.471-1.155-.174-1.155 1.129 0 4.692 8.263 4.16 9.649-.307.8-.136 1.194.38.875 2.717-1.679 3.257 16.779.669 22.88-.911 2.146-1.469 4.09-1.241 4.319.978.977 4.856-11.883 5.87-19.468.809-6.045.806-10.486-.01-16.59-1.049-7.836-4.304-19.135-5.991-20.794-.417-.41-4.285 1.099-8.595 3.353m28.81 4.026c2.091 9.209 2.348 11.329 1.477 12.2-1.605 1.605-2.939-.739-4.162-7.316-.859-4.617-1.513-6.07-2.553-5.671-.769.296-2.037.537-2.817.537S172 73.724 172 74.608c0 1.201.611 1.455 2.414 1.003 2.266-.569 2.496-.225 3.758 5.629.998 4.632 1.82 6.327 3.192 6.592 3.471.668 4.018-1.253 2.645-9.282-.711-4.153-1.687-7.55-2.17-7.55s-.647 1.013-.366 2.25m13.745 2.25c.01 1.1.362 3.35.782 5 .686 2.695.765 2.746.782.5.01-1.375-.342-3.625-.782-5-.627-1.959-.797-2.067-.782-.5M15.522 82.25c-.367 2.888-.889 6.037-1.162 7s-.098 1.75.388 1.75 1.318-3.15 1.85-7 .658-7 .279-7-.989 2.362-1.355 5.25m10.184-1.375c-.388 1.856-.706 4.444-.706 5.75C25 88.376 24.445 89 22.886 89c-1.944 0-2.062-.38-1.475-4.75.395-2.94.3-4.179-.251-3.25-.489.825-1.171 3.666-1.514 6.313l-.625 4.812 3.231-.312c3.1-.3 3.263-.537 4.016-5.805.905-6.333.487-10.151-.562-5.133M3.158 82c0 1.375.227 1.938.504 1.25.278-.687.278-1.812 0-2.5-.277-.687-.504-.125-.504 1.25m89.848.75c.009 4.705 2.089 10.542 5.024 14.103l2.816 3.416 9.827-.194c9.113-.18 10.027-.386 12.577-2.822 1.513-1.445 2.75-2.957 2.75-3.361 0-1.317-6.32-2.243-15.836-2.318-8.991-.071-9.427-.18-11.797-2.935-1.354-1.573-2.721-4.16-3.039-5.75-.734-3.671-2.33-3.766-2.322-.139M2.079 86.583c.048 1.165.285 1.402.604.605.289-.722.253-1.585-.079-1.917s-.568.258-.525 1.312m195 1c.048 1.165.285 1.402.604.605.289-.722.253-1.585-.079-1.917s-.568.258-.525 1.312M87.176 90.589c-1.248.874-2.946 1.329-3.774 1.012-.828-.318-1.281-.214-1.006.231s-.365 2.232-1.423 3.972c-2.086 3.431-1.797 5.673.846 6.568.925.314 2.447 1.13 3.383 1.814 2.57 1.877 3.411.122 1.495-3.121-.933-1.58-1.697-3.903-1.697-5.16 0-2.158.076-2.184 1.342-.452 1.227 1.679 1.431 1.482 2.393-2.309.579-2.279.975-4.144.881-4.144s-1.192.715-2.44 1.589M2.286 95.5c.008 2.75.202 3.756.432 2.236s.223-3.77-.014-5-.425.014-.418 2.764m194.986-.5c0 2.475.195 3.487.434 2.25.238-1.237.238-3.263 0-4.5-.239-1.237-.434-.225-.434 2.25M154.5 93c-1.1.473-3.922.891-6.272.93-3.972.065-4.481.4-7.25 4.766-2.427 3.827-2.978 5.775-2.978 10.531 0 4.68.346 5.945 1.75 6.389 6.241 1.974 15.371 7.678 14.115 8.818-.201.183-3.671-.996-7.713-2.62s-8.078-2.672-8.972-2.33c-1.337.513-1.38.775-.243 1.477.76.47 1.903.654 2.54.41 1.485-.57 10.523 7.343 10.523 9.214 0 2.603-2.775 1.457-8.936-3.691l-6.11-5.106-5.562 3.831c-3.059 2.107-6.016 4.678-6.57 5.714s-4.364 3.434-8.465 5.329c-6.65 3.072-7.384 3.683-6.773 5.642.377 1.208 1.187 2.564 1.801 3.013 1.394 1.022 27.746.044 32.987-1.224 5.275-1.277 10.222-6.327 13.728-14.013l2.929-6.42-2.199-2.58c-1.21-1.419-4.01-4.248-6.224-6.287-5.269-4.855-4.122-5.901 1.406-1.283 7.517 6.28 7.746 6.277 8.542-.092.726-5.812.235-11.302-1.579-17.668-1.133-3.974-1.336-4.099-4.475-2.75m20.088 3.311c-.323 1.616-.536 5.02-.472 7.564.125 4.965.399 4.344 1.382-3.125.418-3.176 1.101-4.75 2.063-4.75 1.033 0 1.472 1.339 1.557 4.75.106 4.24.201 4.428.882 1.75 1.632-6.414 1.231-8.239-1.912-8.7-2.558-.376-2.984-.071-3.5 2.511m10-.179c-.823 3.831-1.155 11.868-.49 11.868.711 0 2.075-13.161 1.43-13.805-.237-.237-.66.635-.94 1.937m-94.398 8.066c-.648 5.271-2.075 12.445-3.171 15.943s-1.984 7.484-1.973 8.859c.018 2.22 2.944 7 4.285 7 .736 0 1.45-3.935 3.183-17.543 1.309-10.275 1.337-12.909.194-17.943l-1.34-5.899zM125 100c-1.743 3.417-2.511 4.001-5.27 4.005-1.777.003-7.58.293-12.896.645l-9.667.641-1.244-4.152c-1.59-5.309-2.413-4.674-.956.738.84 3.121.741 6.978-.422 16.415-.836 6.785-1.8 13.734-2.142 15.444-.612 3.061-.549 3.12 4.112 3.819 5.49.823 11.281-1.155 23.245-7.938l7.261-4.117-.598-9.5c-.462-7.345-.237-10.492.99-13.876 1.846-5.089 1.948-6.124.607-6.124-.538 0-1.898 1.8-3.02 4M15.371 98.209c-.898 1.453-.571 7.958.644 12.791.711 2.829.842 2.083.682-3.898-.134-5.053.188-7.533 1.016-7.821 1.278-.446 1.783 1.18 2.803 9.029.579 4.463.812 4.787 3.227 4.5 3.466-.413 4.235-2.81.902-2.81-2.252 0-2.592-.51-3.168-4.75-.355-2.612-.863-5.537-1.128-6.5-.552-1.996-3.857-2.355-4.978-.541m113.688 5.14c-.894 2.69-1.067 6.397-.574 12.318.694 8.326.739 8.44 2.662 6.7 1.757-1.59 1.884-2.585 1.254-9.805-.385-4.419-1.007-9.166-1.382-10.549-.651-2.405-.736-2.347-1.96 1.336M2.158 103c0 1.375.227 1.938.504 1.25.278-.687.278-1.812 0-2.5-.277-.687-.504-.125-.504 1.25m74.91 4.042c-.711 3.552-1.899 8.914-2.64 11.915-.741 3.002-1.252 5.49-1.137 5.53s1.952.866 4.083 1.836c2.13.969 3.955 1.631 4.056 1.47s1.313-4.156 2.695-8.878l2.514-8.585-2.929-3.415c-1.622-1.891-2.434-2.44-1.82-1.231 1.349 2.656 1.388 3.316.193 3.316-.504 0-1.548-1.894-2.319-4.208l-1.403-4.208zM197.158 103c0 1.375.227 1.938.504 1.25.278-.687.278-1.812 0-2.5-.277-.687-.504-.125-.504 1.25m-194 5c0 1.375.227 1.938.504 1.25.278-.687.278-1.812 0-2.5-.277-.687-.504-.125-.504 1.25m192.07 5.05c-.648 3.483-1.004 6.508-.79 6.721.576.576 2.774-10.634 2.34-11.936-.205-.615-.902 1.732-1.55 5.215m-191.403.624c.426 2.093.678 2.345.969.97.217-1.021-.043-2.293-.576-2.826-.626-.626-.766.031-.393 1.856m23.207 2.493c-.018.367.868 2.767 1.968 5.333s2 5.079 2 5.583-.9.917-2 .917-2-.421-2-.935c0-1.817-2.064-6.334-2.634-5.764-1.128 1.128 2.873 9.699 4.52 9.684 3.875-.037 4.448-1.463 2.702-6.719-1.483-4.467-4.476-9.786-4.556-8.099M5.17 118.5c-.016 1.1.357 2.9.83 4 1.095 2.548 1.095-.081 0-3.5-.644-2.01-.806-2.108-.83-.5m14.968 7.25c1.16 3.162 2.57 6.2 3.133 6.75.69.674.855.512.505-.5-3.105-8.981-4.362-12-4.997-12-.413 0 .198 2.588 1.359 5.75m171.576.464c-.91 2.848-1.489 5.344-1.287 5.547s1.136-1.94 2.073-4.761 1.516-5.317 1.287-5.546-1.162 1.913-2.073 4.76M140 123.378c0 .207.787.995 1.75 1.75 1.586 1.243 1.621 1.208.378-.378-1.307-1.666-2.128-2.195-2.128-1.372m-81.5 2.278c-2.841.765-4.297 2.344-2.16 2.344 2.907 0 8.976 3.579 14.519 8.563 3.452 3.104 5.592 4.386 6.24 3.738s.457-1.425-.557-2.266c-3.546-2.943-.851-5.431 4.719-4.355 3.206.619 3.22.604 1.418-1.435-3.949-4.466-17.92-8.273-24.179-6.589M8.031 128.5c0 .55.436 1.675.969 2.5s.969 1.05.969.5-.436-1.675-.969-2.5-.969-1.05-.969-.5M43 131.878c0 .482.759 1.495 1.687 2.25 1.483 1.205 1.605 1.153 1.012-.43-.378-1.008-.271-1.552.243-1.234.506.313 1.202.111 1.548-.448.363-.587-.452-1.016-1.931-1.016-1.407 0-2.559.395-2.559.878m-32.974 1.476c-.042 1.375 6.825 13.917 9.114 16.646l2.097 2.5-1.842-3c-1.013-1.65-3.53-6.15-5.592-10-2.063-3.85-3.762-6.616-3.777-6.146m176.224 5.928c-1.731 3.42-4.119 7.793-5.307 9.718-2.069 3.353-2.072 3.395-.073 1 2.471-2.96 9.49-15.973 8.922-16.541-.217-.217-1.811 2.403-3.542 5.823m-108.777-3.326c.325.526 1.252.703 2.059.393 2.067-.793 1.824-1.349-.591-1.349-1.132 0-1.793.43-1.468.956M84 136c-1.282.828-1.246.972.25.985.963.008 1.75-.435 1.75-.985 0-1.22-.113-1.22-2 0m-55.968 2.462c-.988 1.19-.427 2.583 3.022 7.5 2.33 3.321 4.676 6.038 5.213 6.038.615 0 .63-.463.041-1.25a920 920 0 0 0-4.193-5.482c-2.974-3.867-3.396-6.268-1.102-6.268.493 0 2.454 2.042 4.359 4.537 1.917 2.509 3.751 4.073 4.105 3.5.353-.57.277-1.047-.168-1.059s-2.159-2.036-3.809-4.498c-3.101-4.627-5.372-5.545-7.468-3.018M71.5 141c.995 1.1 2.035 2 2.31 2s-.315-.9-1.31-2-2.035-2-2.31-2 .315.9 1.31 2m17.278-1.444c-.515.515.847 6.961 1.81 8.568.612 1.02 9.749-1.032 11.241-2.525 2.176-2.175.612-5.323-2.6-5.233-1.501.042-4.336-.253-6.301-.656-1.964-.404-3.832-.473-4.15-.154m65.886 6.113c-.367.368.089 1.505 1.014 2.528 1.597 1.765 1.465 2.082-2.593 6.216-4.346 4.428-5.125 7.763-1.956 8.373 1.651.318 13.352-9.638 12.421-10.569-.286-.286-2.782 1.597-5.547 4.183-4.502 4.212-7.003 5.139-7.003 2.596 0-.487 2.129-2.898 4.731-5.356 4.689-4.43 4.715-4.49 2.846-6.555-1.995-2.204-2.824-2.504-3.913-1.416m-53.414 4.151c-2.355.334-2.649.977-1.643 3.598.511 1.333 2.7 1.582 13.883 1.582 12.734 0 13.3-.088 13.838-2.144.55-2.107.405-2.133-8.134-1.497-4.782.356-9.927.923-11.434 1.259-2.095.467-2.918.173-3.5-1.253-.493-1.211-1.55-1.753-3.01-1.545M129 153c0 1.597.656 1.993 3.25 1.967l3.25-.034-2.361-1.966c-2.998-2.498-4.139-2.488-4.139.033m-106.5 2c.995 1.1 2.035 2 2.31 2s-.315-.9-1.31-2-2.035-2-2.31-2 .315.9 1.31 2m65.5-1.26c-5.024.643-7.069 1.339-6.525 2.22.844 1.366-8.611 9.113-15.696 12.862-6.684 3.535-4.915 3.396 4.407-.347 6.474-2.599 15.236-8.166 18.764-11.922 2.709-2.883 2.58-3.264-.95-2.813m41 10.942c0 4.226.504 11.615 1.121 16.421 1.005 7.841 1.454 9.062 4.368 11.887l3.248 3.148.717-11.319c.94-14.858.865-18.922-.443-23.779-1.039-3.857-1.268-4.04-5.05-4.04H129zm-91 2.961c0 .598.933 2.273 2.073 3.722 1.897 2.413 2.635 2.622 8.75 2.478l6.677-.158-6.669-.592c-3.668-.326-6.855-.818-7.082-1.093s-1.163-1.613-2.081-2.973S38 167.044 38 167.643m4.818 2.575c.533.533 1.805.793 2.826.576 1.375-.291 1.123-.543-.97-.969-1.825-.373-2.482-.233-1.856.393M54.5 170c-2.722.693-2.768.768-.5.811 1.375.027 3.4-.338 4.5-.811 2.466-1.06.164-1.06-4 0M50 195.5c0 .825.675 1.5 1.5 1.5s1.5-.675 1.5-1.5-.675-1.5-1.5-1.5-1.5.675-1.5 1.5"/><path fill-opacity=".319" fill-rule="evenodd" d="M91.5 2.108C70.064 3.757 49.929 13.315 34.093 29.359l-7.407 7.504-.014 12.318c-.009 8.518.468 13.772 1.547 17.028 1.289 3.889 1.335 5.019.267 6.48-1.145 1.565-1.393 1.194-2.14-3.21-.465-2.738-.843-10.729-.84-17.756.007-14.34.29-14.23-6.566-2.574-4.492 7.637-9.278 21.226-11.008 31.253-1.848 10.716-.703 29.202 2.471 39.886 4.29 14.443 11.126 26.754 20.767 37.399 3.051 3.37 4.83 6.251 4.83 7.824 0 1.369.436 2.489.969 2.489s.709-.787.393-1.75.3-.4 1.37 1.25c3.417 5.274 4.661 5.812 12.182 5.274 4.807-.344 8.806-1.4 13.237-3.496C70.796 166.135 81 158.574 81 156.792c0-.617-.617-.525-1.523.227-1.271 1.055-1.42.996-.9-.358.666-1.736 6.208-3.646 10.608-3.655 1.477-.003 3.839-.445 5.25-.981 2.323-.884 2.565-.743 2.565 1.49 0 3.255-6.413 8.019-19.5 14.486-16.666 8.236-30.544 10.124-36.093 4.912-2.247-2.111-3.297-2.339-9.467-2.054-4.537.21-6.94-.057-6.94-.769 0-.6-.9-1.09-2-1.09-2.444 0-2.553.875-.312 2.514 1.967 1.438 1.938 7.856-.096 20.636L21.343 200H46v-3c0-3.761 1.756-3.962 2.184-.25l.316 2.75 28.37.266 28.369.266-.504-2.64c-.391-2.046-.052-2.758 1.511-3.167 1.914-.5 1.991-1.127 1.53-12.337-.471-11.417-.408-11.885 1.869-14.024 2.852-2.679 3.19-4.93.355-2.364-1.851 1.676-2 1.683-2 .096 0-.943-.45-1.436-1-1.096s-1.007 2.054-1.015 3.809c-.028 5.837-.522 5.961-12.741 3.202-6.119-1.381-11.489-2.512-11.934-2.514-.446-.001 1.888-1.629 5.186-3.617 3.297-1.989 7.269-4.688 8.826-5.998C98.02 157.113 98.838 157 112.64 157h14.487l-.314 3.152c-.28 2.815-.819 3.298-5.063 4.53-5.096 1.479-6.005 2.785-2.675 3.842 2.699.856 1.76 1.714-3.395 3.101-3.99 1.074-3.816 1.12 3.815 1l7.995-.125.779 8c.528 5.423 1.416 8.873 2.755 10.71 1.087 1.49 1.976 4.101 1.976 5.802v3.093l5.25-.303 5.25-.302.307-5.984c.19-3.709.914-6.656 1.905-7.75.977-1.08 1.149-1.766.443-1.766-.635 0-1.155-.606-1.155-1.346 0-3.235 3.386-7.552 9.37-11.946 6.728-4.939 21.577-20.021 21.702-22.041.45-7.253.406-10.222-.247-16.562-.418-4.067-1.481-9.564-2.362-12.215-1.11-3.342-1.302-5.355-.626-6.563.811-1.45 1.16-1.05 2.088 2.393 1.888 7.014 3.265 20.534 2.608 25.617-.43 3.329-.29 4.631.448 4.175 1.958-1.21 8.969-16.317 11.709-25.23 2.469-8.032 2.7-10.192 2.7-25.282 0-15.116-.228-17.242-2.718-25.344-1.495-4.864-3.414-10.191-4.266-11.837-1.419-2.746-1.406-3.098.16-4.243 1.569-1.148 1.434-1.649-1.679-6.201-2.126-3.109-3.984-4.828-4.992-4.618-.906.188-2.392-.884-3.411-2.462C172.71 36 157.814 21 156.323 21c-.728 0-1.323-.43-1.323-.955 0-1.489-13.115-8.915-21.482-12.164-13.2-5.126-26.564-6.962-42.018-5.773m-5.25 8.107c-3.437.528-6.25 1.406-6.25 1.952 0 .545 1.237.755 2.75.466C91.87 10.889 94 10.827 94 12.305c0 1.727-2.073 2.689-5.832 2.709C82.875 15.041 81 16.071 81 18.95c0 3.211.687 4.107 2.591 3.377.882-.339 1.187-1.362.831-2.782-.524-2.089-.12-2.31 5.757-3.146 5.593-.795 6.36-1.174 6.658-3.286.326-2.304-1.269-4.202-3.337-3.97-.55.061-3.812.544-7.25 1.072M103 9.811c0 .501 2.362 1.194 5.25 1.541 7.274.874 9.331.816 8.2-.231C115.104 9.877 103 8.697 103 9.811m22 2.943c0 .441.701 1.801 1.557 3.023 1.729 2.47 4.709 3.079 3.828.783-.635-1.655-5.385-5.012-5.385-3.806m-59.25 3.452C63.138 17.33 61 18.644 61 19.125c0 1.272.844 1.033 7.5-2.125 6.825-3.238 4.494-3.911-2.75-.794m36.03.838c-.245 1.674-.184 3.194.137 3.377s3.62.649 7.333 1.036c4.599.478 6.75.358 6.75-.377 0-.594-1.463-1.086-3.25-1.094-4.85-.02-7.75-1.036-7.75-2.716 0-1.208.87-1.367 4.5-.822 2.577.386 4.5.279 4.5-.251 0-.795-6.717-2.197-10.526-2.197-.686 0-1.448 1.37-1.694 3.044m-34.964 4.135c-4.502 1.938-4.64 2.12-3.548 4.669.626 1.459 1.266 2.834 1.423 3.057.492.697 13.309-5.083 13.309-6.003 0-.48-2.283.027-5.073 1.127-4.826 1.902-6.927 1.899-6.927-.01 0-.475 1.569-1.382 3.486-2.014 3.545-1.17 5.706-3.071 3.323-2.924-.72.044-3.417.988-5.993 2.098m65.684-1.553c-12.287 2.419-12.846 2.601-11.079 3.59 1.241.694 3.492.511 7.492-.612 3.272-.918 9.969-1.658 15.653-1.729 8.3-.105 9.194-.257 5.434-.926-4.68-.833-14.035-1.005-17.5-.323M48 26.622c-5.739 4.489-6.481 5.231-5.856 5.855.281.281 2.902-1.273 5.825-3.454C52.846 25.385 55 24.757 55 26.974c0 .471-2.25 2.507-5 4.526s-5 4.032-5 4.474.788 1.752 1.75 2.909c1.247 1.501 2.17 1.837 3.21 1.172 1.257-.803 1.216-1.203-.297-2.874-1.7-1.88-1.595-2.06 3.29-5.647 5.181-3.803 5.937-5.244 3.847-7.334-1.913-1.913-3.988-1.342-8.8 2.422m84.224-2.781c-.967.613-.675 1.46 1.202 3.484 3.507 3.785 4.886 3.318 2.441-.825-1.135-1.925-2.133-3.493-2.216-3.485s-.725.38-1.427.826M27.298 28.226c-2.268 2.929-2.408 4.116-.241 2.052 1.282-1.222 2.084-2.471 1.78-2.774-.304-.304-.996.021-1.539.722m56.618.296c-12.752 3.097-25.773 11.009-34.82 21.16-2.803 3.144-5.097 5.965-5.098 6.268s5.962.435 13.25.294l13.252-.255 6.489 4.933c6.154 4.677 8.689 5.804 6.135 2.728-.896-1.08-.722-2.423.766-5.894 1.904-4.442 1.904-4.517-.014-6.435-1.067-1.067-2.183-3.489-2.479-5.381-.481-3.066.061-4.146 4.988-9.94 3.04-3.575 6.785-7.042 8.321-7.705 2.787-1.202 2.785-1.205-1.206-1.167-2.2.021-6.513.649-9.584 1.394m19.834-.302c1.618.781 2.882.781 4.5 0 1.976-.952 1.701-1.085-2.25-1.085s-4.226.133-2.25 1.085m-10 2.352c-1.513.821-2.75 1.928-2.75 2.46 0 1.558 1.553 1.119 3.449-.976.967-1.069 2.95-2.126 4.405-2.35 2.634-.404 2.635-.407.146-.516-1.375-.061-3.737.561-5.25 1.382m19-.91c.688.278 1.813.278 2.5 0 .688-.277.125-.504-1.25-.504s-1.937.227-1.25.504m-6.722 1.804c-2.156 2.598-.606 3.525 1.646.986 1.39-1.567 1.705-2.452.873-2.452-.716 0-1.85.66-2.519 1.466M122.5 33c.995 1.1 2.035 2 2.31 2s-.315-.9-1.31-2-2.035-2-2.31-2 .315.9 1.31 2m5.502 3.003c1.203 2.359 3.275 5.46 4.604 6.893 2.362 2.545 4.649 7.782 5.858 13.411.687 3.198 1.1 3.155 10.304-1.058l5.597-2.563-6.988-6.593c-6.301-5.945-14.793-11.839-19.72-13.687-1.7-.638-1.673-.358.345 3.597m32.11-.253c.746.962 2.83 3.523 4.631 5.691 2.333 2.806 2.965 4.245 2.196 5-.765.751-2.448-.496-5.783-4.284l-4.704-5.343-2.476 2.022c-1.941 1.585-2.215 2.287-1.268 3.251.954.971 1.548.945 2.833-.121 1.42-1.179 2.172-.755 5.934 3.342 2.37 2.581 4.717 4.692 5.217 4.692 1.371 0 3.308-2.219 3.308-3.791C170 44.527 161.168 34 159.756 34c-.55 0-.39.788.356 1.75M107 36c-1.333.862-1.333.969 0 .969.825 0 2.175-.436 3-.969 1.333-.862 1.333-.969 0-.969-.825 0-2.175.436-3 .969m-18.371.791c-.269.435 1.055.611 2.941.391 1.887-.221 3.43-.577 3.43-.791 0-.753-5.887-.383-6.371.4m-3.277 6.202c-3.701 1.494-3.687 2.969.044 4.528 4.499 1.88 4.406 1.895 4.784-.771.449-3.161 5.725-3.829 6.511-.824.298 1.141.898 2.074 1.332 2.074s.545-.935.247-2.077c-.9-3.438-7.786-5-12.918-2.93m15.089 1.442c-1.85 1.367-1.766 1.508 1.777 3 4.207 1.771 6.172 2.005 5.324.633-.788-1.276 3.358-4.044 5.073-3.386.762.293 1.385 1.145 1.385 1.894 0 .799.619 1.124 1.5.786 2.186-.839 1.844-1.884-1.047-3.201-3.537-1.612-11.676-1.453-14.012.274M131 44.289c0 .158.9 2.053 2 4.211s2 3.355 2 2.662c0-1.447-2.813-7.162-3.526-7.162-.261 0-.474.13-.474.289m42 8.073c0 1.575 6.388 13.864 6.718 12.923.526-1.503-4.665-13.285-5.855-13.285-.474 0-.863.163-.863.362m-77.75 1.915C92.751 55.42 92.244 57 94.378 57c1.393 0 4.238-2.752 3.515-3.4-.216-.193-1.406.111-2.643.677M87 55.5c-.707.852-1.06 1.773-.785 2.048S87.293 57.352 88 56.5s1.06-1.773.785-2.048-1.078.196-1.785 1.048m80-.236c-1.375.621-2.612 1.19-2.748 1.264-.699.38 5.215 12.437 6.306 12.856.809.31.414-1.459-1.081-4.84-1.297-2.932-2.084-5.603-1.75-5.937 1.276-1.277 2.363-.486 3.974 2.893 1.431 3 3.299 4.68 3.299 2.967 0-.693-4.961-10.488-5.267-10.399-.128.037-1.358.575-2.733 1.196M32.224 58.155c-4.274 2.706-4.566 5.59-.345 3.408 2.512-1.299 4.745-4.272 3.868-5.149-.165-.165-1.75.619-3.523 1.741m7.316 5.424c-.836 1.277-2.699 5.83-4.138 10.119-4.837 14.407-4.177 33.98 1.584 47.003l1.987 4.492 6.263-5.712c3.445-3.141 12.564-10.43 20.264-16.197 9.233-6.915 14.304-11.388 14.893-13.135.491-1.457 1.795-3.937 2.897-5.511l2.006-2.862-4.123 2.728c-2.268 1.501-4.697 2.497-5.398 2.213S66.976 80.589 57.78 73.73L41.06 61.259zm46.458-.203c1.375.803 2.687 1.272 2.917 1.042.621-.621-.13-1.094-2.915-1.835l-2.5-.666zm-65.06.906c-.859.67-1.859 2.011-2.223 2.98-.617 1.643-.461 1.658 2.312.224C22.662 66.641 24 65.285 24 64.474c0-1.772-.959-1.832-3.062-.192M152.25 69.1c-3.988 2.229-7.25 4.443-7.25 4.92s2.524 3.254 5.609 6.171c6.176 5.842 9.459 11.515 11.38 19.67 1.236 5.243.939 15.975-.582 21.045-.507 1.691-.382 2.197.422 1.7.629-.389 2.163-3.947 3.408-7.907 1.883-5.991 2.254-9.381 2.21-20.199-.047-11.41-.389-14.009-2.794-21.25-1.507-4.537-3.283-8.239-3.947-8.226-.663.013-4.468 1.848-8.456 4.076M87 67c.825.533 1.95.969 2.5.969s.325-.436-.5-.969-1.95-.969-2.5-.969-.325.436.5.969m8.5 4.983c2.2 1.08 4.675 1.959 5.5 1.952 1.684-.015-3.314-2.349-7.065-3.3-1.339-.34-.635.267 1.565 1.348m85.911 1.518c.345 1.375.905 4.525 1.244 7 .498 3.632.324 4.499-.906 4.499-1.083 0-1.88-1.893-2.759-6.552l-1.236-6.553-3.127.669c-3.759.805-4.016.997-3.168 2.369.362.587 1.705 1.067 2.983 1.067 2.352 0 3.515 2.141 3.544 6.527.008 1.116.686 2.987 1.507 4.159 2.1 2.999 5.507 1.988 5.507-1.636 0-4.497-2.207-14.05-3.246-14.05-.536 0-.69 1.12-.343 2.501M96.07 77.75c.063 2.437.168 2.522.93.75 1.174-2.731 1.174-3.5 0-3.5-.55 0-.968 1.237-.93 2.75m-80.437 2C14.182 87.334 13.902 91 14.771 91c.521 0 1.374-3.15 1.895-7s.62-7 .22-7-.964 1.237-1.253 2.75m10.117-.418c-.413 1.007-.75 2.883-.75 4.168 0 3.362-1.006 5.5-2.588 5.5-1.053 0-1.23-1.051-.757-4.5.376-2.74.226-4.5-.381-4.5-.866 0-2.79 10.841-2.049 11.544.151.144 1.61.418 3.243.609 2.807.328 3.011.104 3.768-4.153.986-5.546.655-11.455-.486-8.668m67.429 4.278c.426 5.705 1.076 7.437 5.32 14.158l2 3.166 10.11-.159 10.111-.16 3.079-3.667 3.079-3.668-3.867-1.276c-2.581-.852-6.137-1.053-10.689-.605-4.241.418-8.041.247-10.045-.452C98.827 89.744 95 84.613 95 81.191c0-1.14-.509-2.387-1.13-2.772-.809-.5-1.006.976-.691 5.191M87.5 90.006c-1.65 1.095-3.562 1.782-4.25 1.524-.687-.257-1.25.209-1.25 1.037 0 .827-.724 2.609-1.61 3.96-.885 1.352-1.376 3.024-1.091 3.715.286.692 1.241 2.946 2.124 5.008.882 2.063 1.219 3.75.749 3.75s-1.408-1.844-2.083-4.097-1.462-3.863-1.749-3.576c-.567.567-5.437 22.923-5.067 23.258.125.113 1.994.937 4.154 1.833 4.685 1.942 4.58 2.061 7.461-8.454l2.148-7.837-2.518-2.518c-3.152-3.152-3.353-5.307-.295-3.166 1.222.856 2.572 1.557 3 1.557 1.076 0 .983-4.755-.101-5.167-.483-.183-1.178-1.908-1.544-3.833-.524-2.758-.433-3.129.428-1.75C87.588 97.783 89 97.398 89 94.434c0-1.411.466-3.436 1.035-4.5 1.281-2.393 1.171-2.39-2.535.072m4.579 1.577c.048 1.165.285 1.402.604.605.289-.722.253-1.585-.079-1.917s-.568.258-.525 1.312M153 93.131c-1.375.553-3.676.773-5.113.489-1.958-.386-3.243.161-5.128 2.182-3.938 4.225-4.759 6.582-4.759 13.668v6.601l4.75 1.991c6.739 2.824 11.25 5.275 11.25 6.11 0 .395-2.459-.408-5.465-1.784-5.931-2.716-12.546-4.179-12.517-2.769.021 1.006 7.982 7.836 7.982 6.848 0-.356-1.012-1.491-2.25-2.523s-1.706-1.892-1.042-1.911c1.556-.043 9.292 7.294 9.292 8.812 0 2.266-2.6 1.08-8.844-4.033-5.349-4.381-6.594-5-7.996-3.973-.913.668-3.558 2.441-5.878 3.938s-4.233 3.28-4.25 3.962c-.018.681-3.632 3.049-8.032 5.261-8.041 4.043-9.211 5.544-7.017 9 .767 1.208 3.244 1.473 12.735 1.363 23.826-.278 29.012-2.503 34.942-14.998 3.968-8.36 4.185-7.412-3.603-15.733-2.506-2.678-3.618-4.389-2.471-3.803 1.148.586 3.719 2.873 5.714 5.081 2.364 2.617 3.876 3.614 4.34 2.863 1.622-2.625 1.592-16.465-.049-22.108-1.694-5.828-2.312-6.253-6.591-4.534m21.667.536c-.367.366-.602 3.854-.522 7.75l.145 7.083 1.017-5.75c1.241-7.021 3.685-8.009 3.708-1.5.012 3.112.275 3.849.985 2.75 1.623-2.511 1.22-9.702-.582-10.393-2.068-.794-3.921-.77-4.751.06m-84.48 9.424c-.668 5.175-2.391 13.302-3.828 18.059l-2.613 8.65 2.819 3.697c3.518 4.611 3.545 4.549 5.928-13.497 1.596-12.085 1.632-14.172.346-19.909l-1.437-6.408zM93.08 94.5c-.031.55.549 3.272 1.288 6.049 1.461 5.486 1.471 5.251-.928 23.33-1.863 14.045-1.85 14.08 5.332 14.106 4.549.016 13.701-3.659 23.097-9.276l5.37-3.209-.589-9.193c-.426-6.645-.185-10.524.87-14 2.6-8.571 1.408-10.005-2.381-2.863l-2.358 4.445-12.548.305-12.548.306-1.382-3.5c-2.272-5.756-3.165-7.556-3.223-6.5m90.906 4.75c-.007 2.888-.293 6.375-.636 7.75-.44 1.767-.304 2.207.462 1.5 1.583-1.461 2.776-14.5 1.326-14.5-.704 0-1.143 2-1.152 5.25M14.573 97.882c-.564.912-.315 4.041 1.025 12.868.271 1.787.931 3.25 1.466 3.25.536 0 .765-1.013.51-2.25-1.575-7.628-1.66-11.75-.242-11.75 1.794 0 2.668 2.13 2.668 6.5 0 5.092.89 6.5 4.107 6.5 2.235 0 2.893-.459 2.893-2.019 0-1.62-.464-1.903-2.351-1.429-2.219.557-2.401.238-3.25-5.731-.829-5.829-1.106-6.345-3.555-6.628-1.46-.169-2.932.141-3.271.689m114.568 4.143c-1.304 3.74-1.565 21.975-.315 21.975.454 0 1.743-1.013 2.864-2.25 1.9-2.098 1.973-2.858 1.079-11.25-1.169-10.961-2.046-13.011-3.628-8.475M27 116.249c0 .372.874 2.895 1.942 5.605s1.669 5.202 1.334 5.537c-1.331 1.331-2.362.433-3.89-3.385-.879-2.196-1.972-3.762-2.428-3.48-.62.383 2.161 9.1 3.593 11.261.146.221 4.547-1.433 6.209-2.333.54-.292-4.144-11.018-5.423-12.418-.735-.806-1.337-1.16-1.337-.787m153.75 1.509c-1.512.938-2.75 2.276-2.75 2.974 0 2.55 3.052 1 4.885-2.482 1.407-2.67 1.386-2.675-2.135-.492M18 120.411c0 .226.975 3.039 2.167 6.25 2.292 6.173 3.833 8.718 3.833 6.328C24 130.853 19.618 120 18.755 120c-.415 0-.755.185-.755.411m150.801 5.634c-1.674 1.675-2.791 3.299-2.48 3.609.892.892 6.679-3.633 6.679-5.222 0-2.094-.799-1.786-4.199 1.613m-112.301.356c-2.996 1.435-2.997 1.437-.446 1.518 3.212.102 10.619 4.754 15.768 9.903 2.578 2.578 4.388 3.666 5.231 3.145 1.025-.633.946-1.319-.382-3.346-.919-1.403-1.671-2.791-1.671-3.086 0-.998 8.878-.542 9.515.489.415.672-.766.8-3.441.372-2.411-.386-4.074-.256-4.074.318 0 .533 2.27 1.049 5.045 1.147l5.044.179-2.254-3.049c-4.974-6.729-21.107-11.05-28.335-7.59M43.5 133c.995 1.1 1.949 2 2.12 2 .17 0 .791-.9 1.38-2 .966-1.806.76-2-2.12-2-3.127 0-3.154.04-1.38 2m25.458 5.345c2.452 2.56 4.606 4.655 4.785 4.655 1.199 0-2.293-4.167-5.445-6.499l-3.798-2.81zm-40.226-1.215c-.952.533-1.732 1.504-1.732 2.157 0 1.482 8.227 13.657 9.25 13.689 1.406.045.752-1.48-2.75-6.405-3.449-4.851-4.378-7.571-2.585-7.571.503 0 2.617 2.319 4.698 5.154s3.952 4.651 4.157 4.035c.391-1.173-6.059-10.201-8.116-11.359-.654-.368-1.969-.233-2.922.3m59.886 2.679c-.276.446-.023 2.697.562 5.001.943 3.717 1.392 4.19 3.974 4.19 1.601 0 4.471-.652 6.378-1.449 2.688-1.123 3.468-2.03 3.468-4.031 0-1.421-.562-2.756-1.25-2.968-3.03-.933-12.677-1.48-13.132-.743m66.603 5.37c-.925.925-.816 1.611.481 3.044 1.588 1.755 1.429 2.075-3.094 6.229-4.19 3.846-4.634 4.631-3.653 6.463 1.723 3.219 4.082 2.488 9.844-3.054 6.501-6.252 6.121-7.599-.555-1.97-4.67 3.938-7.244 5.091-7.244 3.246 0-.475 2.166-2.889 4.813-5.366l4.813-4.502-2.106-2.641c-1.631-2.047-2.375-2.373-3.299-1.449m-55.324 4.482c-1.078.289-1.455 1.202-1.151 2.791.433 2.264.92 2.392 11.603 3.053 14.886.921 17.063.621 17.491-2.41l.34-2.405-12.09.683c-10.477.592-12.09.479-12.09-.845 0-1.507-.957-1.709-4.103-.867M129 153.5c0 2.19.433 2.5 3.5 2.5 4.021 0 4.47-1.208 1.277-3.443-3.192-2.237-4.777-1.924-4.777.943m-40.076 4.25L86.5 160.5l2.75-2.424c1.513-1.334 2.75-2.571 2.75-2.75 0-.785-.81-.146-3.076 2.424M129 165.959c0 14.286 1.641 22.955 5.071 26.794 1.595 1.786 3.066 3.247 3.268 3.247.613 0 2.039-19 2.027-27-.014-9.768-1.205-12-6.401-12H129zm-47.464-2.843c-5.254 3.948-5.745 4.602-1.719 2.29 2.838-1.631 7.3-5.542 6.088-5.338-.223.038-2.189 1.41-4.369 3.048M62 167.581c-6.218 2.666-17.629 3.335-19.925 1.169-1.068-1.007-1.239-.969-.885.195.63 2.07 5.582 3.215 10.771 2.491 5.099-.711 14.718-4.107 15.579-5.501.318-.514.439-.885.269-.823-.17.061-2.784 1.172-5.809 2.469M69 170c-.825.533-1.05.969-.5.969s1.675-.436 2.5-.969 1.05-.969.5-.969-1.675.436-2.5.969m-47.68 8c0 3.575.182 5.037.403 3.25s.222-4.713 0-6.5c-.221-1.787-.403-.325-.403 3.25m40.493-5.317c.721.289 1.584.253 1.916-.079s-.258-.568-1.312-.525c-1.165.048-1.402.285-.604.604M50 196.083c0 2.437 2.337 2.093 2.823-.416.192-.987-.318-1.667-1.25-1.667-.927 0-1.573.855-1.573 2.083"/><path fill-opacity=".71" fill-rule="evenodd" d="M84.66 2.982C65.169 6.519 47.009 16.178 33.006 30.455l-5.494 5.602-.368 11.622c-.285 8.967.025 12.925 1.357 17.325 1.432 4.729 1.511 6.105.464 8.062l-1.263 2.36-1.062-2.463c-.592-1.376-1.078-9.416-1.1-18.212-.022-8.663-.101-15.75-.175-15.75-.563-.003-8.789 14.673-10.866 19.385-6.437 14.606-8.911 35.372-6.117 51.356 3.351 19.172 10.425 33.941 22.902 47.81 2.548 2.831 4.736 6.347 4.981 8l.435 2.948.176-3 .176-3 1.893 4c1.041 2.2 1.93 3.422 1.974 2.715.06-.958.573-1.022 2.015-.25 7.031 3.763 28.424-3.249 34.854-11.423 2.408-3.06 4.868-4.17 10.712-4.833 2.75-.312 5.729-.85 6.621-1.195 1.825-.708 3.149 1.62 2.251 3.959-1.249 3.255-20.891 14.628-30.872 17.875-13.408 4.363-20.582 4.246-25.573-.416-2.55-2.382-3.444-2.686-5.548-1.886-3.811 1.449-9.969 1.153-11.379-.546-.685-.825-1.752-1.485-2.372-1.467-.621.019-.116.878 1.122 1.911 1.551 1.294 2.25 2.969 2.25 5.394 0 3.557-1.628 17.271-2.542 21.412-.493 2.236-.422 2.25 11.523 2.25H46v-3.083c0-3.826 2.356-3.483 2.816.41l.317 2.673h56.026l-.659-3c-.577-2.626-.384-3 1.546-3 2.177 0 2.199-.154 1.716-11.75-.453-10.868-.333-11.938 1.609-14.25 1.154-1.375 1.453-1.937.664-1.25-2.034 1.772-3.079 1.549-2.344-.5.345-.963.248-1.404-.217-.981s-1.118 2.672-1.453 5-1.039 4.162-1.565 4.078c-4.896-.782-22.137-4.87-22.773-5.4-.449-.374 1.657-2.077 4.68-3.783s7.143-4.548 9.156-6.314c3.036-2.666 3.563-3.69 3.097-6.019-.48-2.401-.184-2.901 2.043-3.46 1.907-.479 2.865-.186 3.581 1.093.853 1.524 1.82 1.643 7.618.935 3.653-.446 12.603-.831 19.889-.855 13.083-.043 13.247-.016 13.25 2.206.002 1.787-.563 2.252-2.747 2.259-1.512.004-5.074.288-7.914.629-4.864.584-5.189.482-5.613-1.759-.432-2.279-.456-2.286-.587-.159-.132 2.153-.523 2.23-12.886 2.533-8.925.219-6.412.378 8.375.53l21.125.217.625 3.125c.915 4.577.763 12.909-.305 16.632-.512 1.783-.561 3.243-.109 3.243s1.093-1.013 1.425-2.25 2.856-3.769 5.61-5.625c7.128-4.805 13.491-10.596 19.261-17.529l5.001-6.009-.505-11.544c-.355-8.118-1.092-13.062-2.483-16.663-1.642-4.247-1.77-5.511-.755-7.409 1.213-2.265 1.236-2.254 2.315 1.12 2.093 6.546 3.383 17.025 3.008 24.439-.207 4.108-.278 7.47-.156 7.47 1.057 0 8.158-14.957 10.364-21.833 6.859-21.37 6.094-45.697-2.032-64.637-1.941-4.526-1.988-5.076-.522-6.148 1.439-1.052 1.262-1.672-1.651-5.806-1.811-2.568-3.825-4.412-4.525-4.144-.703.27-3.217-2.049-5.665-5.224-2.422-3.139-6.867-8.033-9.879-10.875-4.476-4.222-6.354-5.298-10.284-5.887-6.455-.968-21.026.083-26.046 1.878-3.358 1.201-4.474 1.229-6.469.161-2.376-1.271-2.346-1.309 2.058-2.603 2.669-.785 9.824-1.327 17.768-1.348 13.132-.034 13.27-.057 11-1.898-4.201-3.405-17.618-9.591-26.517-12.226C118.191 3.311 113.9 2.742 103 2.457c-7.425-.195-15.678.042-18.34.525m1.132 6.943c-2.589.362-5.027.977-5.417 1.366-1.515 1.515.707 1.835 6.577.946 3.679-.556 6.347-.563 6.685-.015.873 1.412.166 1.696-6.461 2.602-3.398.465-6.35 1.032-6.559 1.261s-.157 1.877.115 3.665c.364 2.392 1.012 3.25 2.453 3.25 1.545 0 1.89-.577 1.637-2.731-.307-2.604-.065-2.769 5.169-3.527 6.66-.964 8.698-2.585 7.071-5.625-1.2-2.244-2.645-2.397-11.27-1.192M102 9.764c0 .572 2.813 1.341 6.25 1.71 3.438.368 7.15.911 8.25 1.205 1.789.479 1.842.371.5-1.024-1.786-1.857-15-3.523-15-1.891m22.892 3.986c2.283 4.155 3.585 5.228 5.108 4.213 1.267-.843 1.063-1.385-1.306-3.481-3.318-2.935-5.214-3.3-3.802-.732M66.25 15.655C60.705 17.923 58.191 20 60.989 20c2.308 0 13.952-5.286 13.447-6.104-.755-1.222-1.062-1.156-8.186 1.759m35.234 1.417c-.371 1.689-.493 3.253-.271 3.475s3.577.698 7.456 1.059c8.907.828 10.978-1.048 2.247-2.036-4.015-.454-5.909-1.084-5.639-1.877.253-.745 1.967-1.067 4.564-.857 4.841.391 5.628-1.292 1.034-2.211-6.762-1.352-8.665-.857-9.391 2.447M66.25 21.03C63.913 22.068 62 23.14 62 23.412 62 25.027 64.514 29 65.536 29 67.706 29 78 24.055 78 23.013c0-1.345-.104-1.326-5.5.987-5.562 2.384-5.5 2.378-5.5.578 0-.783 1.575-1.943 3.5-2.578 3.661-1.208 4.762-3.051 1.75-2.929-.963.038-3.662.92-6 1.959m-18.727 5.881c-3.757 2.739-6.214 5.162-5.612 5.534.588.364 3.164-.938 5.723-2.892 4.378-3.343 7.404-4.499 7.336-2.803-.017.413-2.504 2.624-5.526 4.914l-5.497 4.163 2.457 2.837c1.85 2.136 2.744 2.554 3.619 1.693.883-.868.88-1.669-.011-3.335-.646-1.206-1.025-2.293-.843-2.415 8.271-5.533 10.68-9.547 6.934-11.552-1.549-.829-3.127-.12-8.58 3.856M131 23.453c0 1.86 2.649 5.522 4.657 6.437 3.419 1.557 3.419 1.557 1.01-2.882-1.248-2.298-2.909-3.995-3.917-4-.963-.004-1.75.196-1.75.445m-40.5 3.549c-15.079 2.267-26.897 8.313-38.25 19.564-4.538 4.497-8.25 8.685-8.25 9.305C44 56.654 48.145 57 57.516 57h13.516l6.165 4.486c5.829 4.242 8.458 5.213 5.958 2.201-.859-1.035-.648-2.361.877-5.517l2.007-4.154-2.635-3.981c-3.242-4.9-2.837-7.014 2.497-13.035 7.793-8.795 8.09-9 13.057-9 2.553 0 5.114.472 5.69 1.048.73.73 1.906.656 3.883-.244l2.835-1.292-3.933-.698c-4.843-.86-10.374-.799-16.933.188m2.135 4.071c-1.449 1.139-2.633 2.377-2.63 2.75.003.372 2.898.697 6.434.721 5.683.039 6.544-.212 7.435-2.166.78-1.713.664-2.341-.516-2.794-3.152-1.21-8.18-.512-10.723 1.489m13.757.444c-1.685 1.685-2.315 3.151-1.906 4.439.42 1.323-.028 2.264-1.438 3.018-1.126.603-2.048 1.981-2.048 3.061 0 1.081-.45 1.965-1 1.965-2.031 0-.911 1.995 1.95 3.474 3.888 2.01 6.046 1.931 6.065-.224.013-1.496.157-1.532.985-.25.872 1.349 1.43.725 1.118-1.25-.238-1.508 2.811-.699 3.77 1 .789 1.399 1.24 1.5 2.246.504 1.01-1 .874-1.529-.688-2.679-2.323-1.711-7.431-2.794-10.636-2.255-1.271.214-1.635.168-.81-.101 1.178-.384 1.071-.659-.5-1.284-1.874-.744-1.855-.799.309-.865 1.272-.038 2.031-.519 1.691-1.07-.648-1.049.652-1.378 3.99-1.012 3.027.333 13.639 6.124 13.267 7.24-.18.54-2.111 1.638-4.292 2.44-9.398 3.455-9.213 3.351-4.965 2.788 2.91-.386 3.591-.252 2.5.492-.825.562-3.75 1.076-6.5 1.143-4.668.114-4.817.194-2.25 1.208 1.513.598 2.75 1.439 2.75 1.869 0 1.058-5.092-.941-7.157-2.81-1.481-1.34-2.024-1.32-5.002.19-1.838.931-4.148 2.401-5.134 3.267-1.641 1.439-1.738 1.429-1.143-.121.502-1.308.092-1.694-1.796-1.694-2.462 0-5.409 4.154-4.263 6.008.291.471 3.11 1.394 6.262 2.049 8.299 1.725 19.479.562 25.919-2.696 5.505-2.785 8.314-2.628 8.314.462 0 6.032-10.889 10.501-25.848 10.609l-9.349.068 4.349 1.97c2.98 1.35 7.18 2.085 13.348 2.336 8.597.35 9.291.216 15.5-2.991 8.343-4.309 13.167-10.798 12.327-16.58-.776-5.338-4.292-12.463-5.854-11.863-.779.299-1.555-.568-1.959-2.189-1.071-4.292-4.474-9.111-7.561-10.707-4.678-2.42-11.595-1.925-14.561 1.041m20.019 2.56c1.424 1.692 2.589 3.647 2.589 4.345 0 .697.948 2.125 2.106 3.173 3.03 2.74 5.835 8.695 6.549 13.902.339 2.477.725 4.503.856 4.503.132 0 3.783-1.619 8.114-3.599l7.875-3.598-8.072-7.652c-5.079-4.814-10.516-8.856-14.664-10.901-3.626-1.788-6.896-3.25-7.267-3.25s.49 1.385 1.914 3.077m-18.733.218c-2.635 1.125-2.436 1.205 3 1.205 3.202 0 6.947.334 8.322.741 1.375.408.7-.143-1.5-1.224-4.628-2.273-5.96-2.371-9.822-.722m51.915-.446c-.404.655 1.116 3.319 3.524 6.175 2.814 3.337 3.901 5.358 3.239 6.02s-2.315-.676-4.926-3.984c-2.162-2.739-4.414-4.998-5.006-5.02-.591-.022-2.051.998-3.243 2.267-1.664 1.772-1.893 2.581-.988 3.486.906.906 1.618.783 3.071-.532 1.811-1.639 2.077-1.5 6.241 3.264 3.702 4.235 4.62 4.81 6.172 3.868 3.033-1.842 2.678-4.256-1.345-9.129-2.107-2.554-4.326-5.301-4.929-6.105-.791-1.053-1.297-1.14-1.81-.31M91 35.7c-1.375.258-2.95.929-3.5 1.49-.678.692.012.808 2.146.359 1.947-.41 4.498-.098 6.691.818 3.092 1.292 3.697 1.297 4.746.033.661-.797 1.025-1.611.81-1.81-.783-.721-8.454-1.348-10.893-.89m7 6.253c0 .555-2.074.707-4.966.365C88.258 41.752 82 43.273 82 44.999c0 1.223 2.312 2.79 5.175 3.509 2.266.569 2.712.32 2.994-1.67.471-3.327 4.826-3.219 6.537.162.695 1.375 1.318 2.275 1.384 2 .336-1.412.541-8 .249-8-.186 0-.339.429-.339.953M91.5 46c-.34.55-.141 1 .441 1S93 46.55 93 46s-.198-1-.441-1-.719.45-1.059 1m10.5 4c.825.533 2.175.945 3 .914.989-.036.819-.347-.5-.914-2.749-1.181-4.328-1.181-2.5 0m-15.504 1.007c-.343.554.038 1.261.845 1.571 2.375.911 7.97.028 8.415-1.328.507-1.543-8.314-1.775-9.26-.243m87.066 3.243c1.413 4.562 5.831 12.229 6.167 10.702.453-2.062-4.41-12.952-5.784-12.952-.66 0-.809.875-.383 2.25m-7.312.97c-1.238.597-2.25 1.48-2.25 1.961C164 58.933 170.056 70 171.014 70c1.401 0 1.28-.486-1.483-5.938-1.929-3.808-2.173-4.985-1.117-5.391.857-.329 2.003.928 3.135 3.439 2.647 5.868 3.814 3.155 1.251-2.909-2.292-5.427-2.849-5.765-6.55-3.981M32.76 57.294C29.29 59.34 27.583 63 30.099 63 31.379 63 37 57.212 37 55.894c0-1.141.156-1.192-4.24 1.4m4.907 9.514c-4.449 9.914-5.913 18.325-5.43 31.192.341 9.056.985 13.063 3.033 18.852 1.43 4.043 2.831 7.582 3.113 7.864s4.024-2.549 8.315-6.292S59 108.31 64.5 104.266C80.109 92.788 81 92.026 81 90.148c0-2.332 2.326-5.432 4.293-5.72 1.93-.284 6.633-3.627 6.676-4.746.017-.45-1.319.143-2.969 1.318s-3 1.634-3 1.02-1.994.256-4.43 1.932S76.894 87 76.594 87s-8.408-5.85-18.018-13-17.66-13-17.888-13-1.588 2.613-3.021 5.808M84 62.052C84 63.034 87.29 65 88.934 65c2.133 0 .992-1.59-1.934-2.694-1.65-.623-3-.737-3-.254m-64.548 3.594C18.104 67.101 17 68.718 17 69.238c0 1.584 6.47-2.725 6.82-4.542.483-2.508-1.578-2.06-4.368.95m66.837.735c.456 1.388 4.711 2.115 4.711.805 0-.524-1.143-1.171-2.54-1.438-1.602-.307-2.404-.073-2.171.633m65.461 2.681c-4.262 2.179-7.75 4.294-7.75 4.7.001.406 2.191 2.624 4.867 4.928 10.469 9.016 15.349 21.855 13.348 35.115-.556 3.682-1.17 7.145-1.363 7.695s.079 1.225.606 1.5 2.062-2.65 3.41-6.5c2.865-8.18 4.081-26.847 2.293-35.185-1.593-7.427-5.138-16.322-6.483-16.265-.648.027-4.666 1.833-8.928 4.012m29.596 5.688c.33 2.063.906 5.273 1.279 7.134.528 2.631.372 3.282-.697 2.925-.757-.252-1.891-3.028-2.52-6.168s-1.396-5.962-1.704-6.271c-.309-.308-1.968-.251-3.688.127-3.994.877-3.86 4.15.153 3.733 2.389-.247 2.656.115 3.313 4.5.855 5.699 2.093 8.27 3.982 8.27 2.11 0 4.664-2.997 4.139-4.855-.256-.905-.978-4.233-1.605-7.395-1.265-6.382-3.642-8.174-2.652-2M96 77.531c0 4.236.486 4.381 1.823.546.801-2.296.715-3.04-.402-3.469-1.06-.407-1.421.336-1.421 2.923m-79.766-.281C14.777 79.052 13.55 91 14.822 91c1.059 0 1.65-2.201 2.754-10.25.673-4.909.391-5.643-1.342-3.5m116.654 4.241C123.458 88.499 116.95 91 108.137 91c-5.766 0-7.097-.339-8.838-2.25-2.732-3-4.299-6.165-4.299-8.684C95 78.93 94.498 78 93.884 78c-.746 0-.984 2.083-.717 6.276.32 5.029 1.071 7.313 3.785 11.5l3.385 5.224h20.517l3.625-4.75c1.993-2.612 5.456-7.379 7.694-10.593 2.838-4.074 5.319-6.398 8.198-7.679 2.917-1.297 3.509-1.857 2.017-1.907-1.162-.039-5.437 2.4-9.5 5.42M25.642 78c-.271.825-.783 3.664-1.138 6.31-.808 6.031-3.089 5.915-2.653-.135.45-6.23-1.596-5.062-2.4 1.371-.381 3.05-.526 5.697-.322 5.883s1.78.639 3.503 1.008l3.132.67 1-6.803c.55-3.742.633-7.479.185-8.304-.724-1.333-.869-1.333-1.307 0m112.318 6.5c-.419 6.494-.087 31.706.423 32.216.336.336 2.949 1.435 5.808 2.441 2.858 1.007 5.672 2.315 6.253 2.908s-1.323.146-4.231-.993c-5.554-2.177-10.213-2.704-10.213-1.156 0 1.008 7.332 7.084 8.549 7.084.418 0-.093-1.013-1.137-2.25-1.665-1.974-1.534-1.944 1.066.25 4.932 4.159 6.794 7 4.589 7-.513 0-3.994-2.454-7.734-5.454-6.663-5.343-6.843-5.417-8.817-3.624-1.109 1.007-3.928 3.017-6.266 4.467s-4.25 3.254-4.25 4.008c0 .755-3.415 2.873-7.588 4.707l-7.588 3.335.685 5.53c.376 3.042.766 5.619.866 5.726s1.969-.22 4.153-.726c2.185-.507 9.732-.932 16.772-.945 13.574-.025 16.269-.712 20.334-5.179 2.042-2.245 9.366-18.071 9.366-20.24 0-.573-2.363-3.507-5.25-6.519s-4.35-4.865-3.25-4.117c1.1.747 3.436 2.962 5.19 4.922s3.555 3.198 4 2.753c1.64-1.637 1.562-18.265-.112-24.025-1.554-5.345-1.712-5.519-4.162-4.587-3.565 1.355-9.731 1.206-11.625-.282-.875-.687-2.516-3.05-3.647-5.25-1.501-2.922-2.09-3.461-2.184-2m-4.713 5.778c-4.172 12.112-6.182 17.204-6.207 15.722-.015-.825 1.096-4.806 2.467-8.846s2.484-7.64 2.473-8-2.281 2.833-5.043 7.096l-5.023 7.75H97.049l-2.274-7.479c-1.251-4.114-2.878-7.716-3.616-8.004-.737-.288-2.579.358-4.093 1.436-2.084 1.484-3.034 1.679-3.909.804-.876-.876-1.157-.764-1.157.461 0 .89-1.072 3.792-2.383 6.45-2.02 4.094-7.268 26.094-6.404 26.839.158.136 2.166 1.194 4.462 2.352l4.174 2.105 2.043-6.232C87.127 112.865 88.005 108 86.549 108c-1.281 0-4.549-3.126-4.549-4.352 0-.382 1.139.052 2.531.964 2.916 1.911 3.067 1.839 4.006-1.903.519-2.07.353-2.713-.645-2.498-.772.166-1.502-.756-1.714-2.163-.324-2.146-.171-2.287 1.226-1.128s1.605.967 1.666-1.548c.039-1.579.447-3.772.907-4.872 1.093-2.615.371 9.787-1.102 18.93-.614 3.811-2.132 9.914-3.372 13.563l-2.257 6.633 2.805 3.437c1.543 1.89 3.25 3.437 3.794 3.437s1.326.338 1.738.75c.413.412 1.913.757 3.334.765s3.258.495 4.083 1.081c1.12.795.486.918-2.5.485-2.2-.319-5.013-.858-6.25-1.197-1.914-.525-2.25-.23-2.25 1.979C88 143.256 90.837 151 91.897 151c.374 0 3.138-.864 6.141-1.919 6-2.109 7.013-3.827 4.51-7.648-1.508-2.301-1.496-2.513.167-3.115 5.344-1.934 13.19-5.723 18.39-8.882l5.895-3.581.186-8.677.187-8.678.563 8.5.564 8.5 3.973-4.116 3.973-4.117-.316-16.383c-.174-9.011-.412-16.484-.528-16.606s-1.177 2.578-2.355 6M173.821 98c-.098 2.75-.21 5.975-.25 7.167-.039 1.191.492 2.354 1.179 2.583.9.3 1.25-1.144 1.25-5.167 0-4.403.331-5.583 1.567-5.583 1.202 0 1.494.877 1.25 3.75-.174 2.063.133 3.975.683 4.25.599.3 1.119-2.006 1.298-5.75l.297-6.25H174zm-81.742-2.417c.048 1.165.285 1.402.604.605.289-.722.253-1.585-.079-1.917s-.568.258-.525 1.312m91.912.667c-.004 1.237-.261 4.725-.569 7.75-.522 5.113-.451 5.364 1.008 3.559C186.197 105.374 186.675 94 185 94c-.55 0-1.004 1.013-1.009 2.25M15.073 97.412C13.384 99.447 14.765 114 16.647 114c1.261 0 1.255-3.27-.024-12.375-.068-.481.404-1.069 1.048-1.307.768-.283 1.395 1.567 1.822 5.375.934 8.319.96 8.362 4.719 7.646 4.043-.77 4.178-.88 3.443-2.796-.326-.849-1.669-1.543-2.984-1.543-2.132 0-2.458-.556-2.997-5.106-.852-7.189-3.696-9.982-6.601-6.482m78.006 2.171c.048 1.165.285 1.402.604.605.289-.722.253-1.585-.079-1.917s-.568.258-.525 1.312m1.173 5.917c.011 2.2.216 2.982.455 1.738s.23-3.044-.02-4-.446.062-.435 2.262M27 116.917c0 .504.869 2.943 1.93 5.42 1.553 3.622 1.667 4.604.583 5.02-.866.332-1.916-.906-2.942-3.472-.878-2.193-2.027-3.721-2.553-3.396-.797.492 2.157 10.017 3.534 11.396.424.424 6.448-1.907 6.448-2.496C34 127.848 28.596 116 27.894 116a.91.91 0 0 0-.894.917M93.232 119c0 1.925.206 2.713.457 1.75.252-.963.252-2.537 0-3.5-.251-.963-.457-.175-.457 1.75m86.913-1.144c-1.419 1.091-2.205 2.573-1.976 3.728.349 1.759.604 1.694 3.106-.789 4.295-4.262 3.449-6.461-1.13-2.939M18.302 121.75c.916 4.571 4.621 12.416 5.582 11.822 1.065-.658-3.941-14.572-5.242-14.572-.491 0-.644 1.237-.34 2.75m73.313 6.865c-.366 3.117-.466 5.867-.223 6.111s.76-2.091 1.146-5.188c.387-3.096.488-5.846.224-6.11s-.78 2.07-1.147 5.187m76.84-3.16c-1.35 1.35-2.455 3.154-2.455 4.009 0 1.271.635 1.143 3.488-.705 1.918-1.242 3.493-3.046 3.5-4.009.017-2.441-1.647-2.182-4.533.705m-112.267.599c-1.272.51-2.992 1.607-3.822 2.437-1.345 1.345-1.227 1.509 1.095 1.509 4.363 0 9.29 2.651 15.05 8.098C71.53 140.954 74 142.81 74 142.223c0-2.008-10.493-10.26-15.5-12.191-2.75-1.06-4.195-1.951-3.21-1.98 3.049-.089 9.826 3.944 15.254 9.078 3.51 3.32 5.719 4.706 6.823 4.283 2.139-.821 2.06-1.716-.343-3.892-2.648-2.396-1.688-3.555 2.785-3.361l3.691.16-3.25.403c-5.108.634-3.796 2.277 1.818 2.277h5.068l-2.234-3.138c-3.283-4.61-13.292-8.879-20.63-8.799-3.175.035-6.812.481-8.084.991M145 127.819c0 1.208 1.897 2.617 2.591 1.924.251-.252-.229-1.027-1.067-1.723-.95-.789-1.524-.865-1.524-.201M42.032 130.75c.017.412.685 1.614 1.484 2.669 1.401 1.852 1.522 1.856 3.445.117 1.095-.992 1.751-2.193 1.456-2.67-.654-1.059-6.43-1.164-6.385-.116m8.172 1.82c-2.377 1.664-6.117 8.418-8.166 14.743-1.078 3.328-1.012 4.059.519 5.75 2.63 2.906 7.81 2.557 10.37-.698 1.14-1.449 2.073-3.839 2.073-5.311 0-3.198-3.301-7.054-6.039-7.054-1.079 0-1.961-.417-1.961-.927 0-1.524 5.236-5.17 8.304-5.784 2.043-.408 2.478-.812 1.527-1.415-2.006-1.271-4.139-1.047-6.627.696M28.2 137.2c-.66.66-1.2 1.837-1.2 2.615 0 1.599 8.094 13.111 9.25 13.156 1.525.059.66-2.092-2.75-6.838-3.826-5.326-4.124-6.136-2.25-6.126 1.067.006 2.52 1.745 7 8.382.521.772 1.05.654 1.735-.389 1.235-1.882 1.287-3.076.119-2.75-.493.137-2.538-1.887-4.546-4.5-3.758-4.891-5.282-5.626-7.358-3.55m27.162 1.3c-.802 2.089.289 4.5 2.035 4.5 2.14 0 4.607-2.826 3.954-4.529-.739-1.924-5.248-1.902-5.989.029m99.686 6.943c-1.053 1.268-1.055 1.844-.009 3.104 1.089 1.313.617 2.228-3.108 6.023-3.621 3.69-4.201 4.779-3.304 6.203.598.95 1.828 1.873 2.734 2.051 1.66.327 12.639-8.313 12.639-9.945 0-1.72-1.781-.824-6.342 3.191-2.726 2.399-5.109 3.769-5.807 3.338-.778-.481.669-2.367 4.233-5.512l5.416-4.781-2.58-2.615c-2.294-2.324-2.723-2.442-3.872-1.057M75.5 160.67c-2.2 1.973-7.375 5.217-11.5 7.208-6.473 3.126-8.479 3.622-14.655 3.622-3.934 0-6.634.331-6 .735 4.077 2.594 18.331-.96 27.042-6.743 6.279-4.169 11.46-8.495 10.113-8.445-.55.02-2.8 1.65-5 3.623m46.5 4.259c-5.191 1.589-5.374 1.753-3.25 2.913 2.695 1.472 2.893 2.843.5 3.469-1.24.324-1.313.486-.25.558.825.055 2.157-.315 2.96-.823 1.25-.791 1.192-1.221-.405-2.985-1.408-1.556-1.521-2.064-.46-2.075.773-.007 2.361-.27 3.53-.583 1.971-.529 2.173-.077 2.804 6.263 1.159 11.654 2.668 18.758 4.39 20.674.91 1.012 1.704 2.362 1.765 3s.18 1.947.264 2.91c.11 1.262 1.026 1.75 3.289 1.75h3.137l-4.57-4.886c-4.977-5.32-5.329-6.421-7.116-22.241l-1.088-9.627zm22 18.63c0 1.407.408 2.307.906 1.999s.671-1.46.383-2.559c-.719-2.752-1.289-2.504-1.289.56m-94 12.514c0 1.431.539 1.97 1.739 1.739 2.606-.502 2.897-3.812.334-3.812-1.431 0-2.073.642-2.073 2.073"/><path fill-opacity=".955" fill-rule="evenodd" d="M83.849 3.564c-15.983 2.892-30.942 9.965-44.007 20.804-11.047 9.165-11.966 10.844-12.585 22.973-.608 11.904-.046 12.912 5.402 9.698 1.976-1.166 3.778-1.935 4.004-1.709.976.976-2.079 5.484-4.808 7.096-2.5 1.478-2.876 2.2-2.363 4.537.694 3.159-.269 8.037-1.586 8.037-.482 0-1.39-2.036-2.017-4.525L24.75 65.95l-3.501 2.066c-1.926 1.136-3.686 1.88-3.912 1.654-.94-.94 2.06-5.53 4.273-6.538 2.197-1.001 2.392-1.675 2.414-8.361.013-3.999.434-9.071.936-11.271l.912-4-2.088 2.5c-3.165 3.79-11.449 21.721-13.166 28.5-4.037 15.931-4.054 32.987-.048 48.965 2.486 9.917 11.603 27.095 19.045 35.883 4.341 5.125 6.903 7.432 7.386 6.651.444-.719 1.008.236 1.412 2.388.37 1.971.991 3.518 1.38 3.437s1.974.376 3.522 1.015c6.948 2.866 20.002-.448 29.368-7.457 3.757-2.811 5.109-3.079 3.189-.632-1.248 1.591-1.211 1.624.402.357.976-.765 1.554-1.612 1.285-1.881s-.018-1.368.557-2.442c1.223-2.286 6.685-4.784 10.459-4.784 2.138 0 2.494-.332 1.875-1.75-.42-.963-1.253-3.697-1.852-6.076-1.042-4.143-1.215-4.297-4.093-3.648-7.512 1.694-8.837 1.411-13.505-2.885l-4.5-4.141 4.438 4.729c2.44 2.601 4.169 4.998 3.84 5.326s-2.398-1.357-4.599-3.745-5.955-5.365-8.341-6.613-3.451-1.692-2.366-.984c4.585 2.993 12.793 11.549 12.122 12.635-.392.634-2.682 1.649-5.089 2.255-4.837 1.218-11.187 6.783-12.159 10.654-.326 1.3-.348 4.188-.049 6.418l.543 4.054-5.836-.422c-8.524-.617-9.265-1.561-8.838-11.258.353-8.032 2.563-14.257 8.524-24.01 5.234-8.565 15.195-10.518 27.262-5.346 5.307 2.275 7.633 4.172 10.187 8.307 1.153 1.867 1.855 2.385 1.857 1.372.002-.895-.696-2.208-1.551-2.917-3.264-2.709-3.39-4.458-.891-12.327 1.345-4.237 2.422-8.475 2.393-9.416s-1.172 2.071-2.538 6.695c-1.367 4.624-2.695 8.747-2.952 9.162-.256.415-2.726-.2-5.488-1.367-3.69-1.559-4.863-2.53-4.423-3.662.329-.847 1.507-6.04 2.617-11.54 1.109-5.5 3.102-11.969 4.427-14.376 1.326-2.407 2.41-4.98 2.41-5.719 0-.768.627-1.102 1.465-.78.805.309 2.877-.444 4.603-1.673 2.072-1.476 3.367-1.866 3.81-1.149.37.597.66-.848.647-3.213-.025-4.255-.049-4.284-2.326-2.796-1.61 1.051-1.985 1.82-1.25 2.555 1.627 1.627 1.24 3.053-.449 1.651-1.197-.993-1.803-.993-3 0-2.279 1.891-1.791-.054.75-2.992 1.237-1.43.775-1.11-1.028.712s-3.541 4.625-3.862 6.23c-.428 2.139-2.219 4.048-6.722 7.162-8.753 6.053-22.018 16.402-28.949 22.586-3.268 2.916-6.282 5.302-6.699 5.302-1.009 0-4.65-9.251-6.101-15.5-1.75-7.534-1.484-23.917.507-31.331C35.441 70.556 39.548 61 40.775 61c.487 0 8.673 5.839 18.191 12.975 9.519 7.136 17.808 12.684 18.42 12.33.613-.355 3.06-1.964 5.439-3.575 4.037-2.734 5.818-3.463 8.925-3.653.688-.043 1.138-.639 1-1.327s.313-1.137 1-1c.688.138 1.25-.425 1.25-1.25s.034-1.826.075-2.225-.521-.883-1.25-1.076c-.878-.233-.818.007.175.71.962.68 1.064 1.066.285 1.076-.987.012-3.292-2.915-3.283-4.169.002-.174 4.839-.331 10.75-.35 11.217-.035 16.332-1.171 20.686-4.596 3.229-2.54 3.65-7.87.621-7.87-1.068 0-2.248.497-2.623 1.104-.376.607-2.54 1.948-4.809 2.978s-3.492 1.884-2.715 1.896 3.4-1.143 5.829-2.566c4.88-2.86 5.796-2.687 4.89.922-1.227 4.89-13.299 8.123-27.54 7.376-10.264-.538-10.813-.738-18.99-6.893L70.702 57H42.93l1.164-2.176c2.171-4.057 14.529-15.305 20.983-19.1 14.38-8.453 32.262-11.549 47.423-8.211 6.969 1.535 8.5 2.283 11.882 5.805 2.135 2.224 3.37 3.087 2.745 1.919-.626-1.169-1.585-2.402-2.132-2.74S124 31.451 124 30.924c0-1.363 9.401 3.536 16.661 8.682 5.439 3.856 13.341 11.75 13.338 13.324-.001.583-13.946 7.082-15.179 7.074-.375-.002-.876-.791-1.116-1.754-.239-.962-.277-.49-.084 1.05.192 1.54-.016 2.573-.463 2.297s-2.493 1.508-4.547 3.965-6.068 5.687-8.922 7.179c-4.612 2.411-6.275 2.712-14.976 2.713-10.854.001-9.958-.629-11.081 7.775-.423 3.167-.093 4.051 2.185 5.856 2.314 1.833 3.65 2.066 9.684 1.683 8.441-.535 14.369-2.999 23.501-9.769C136.71 78.25 140.65 76 141.756 76s2.224-.817 2.485-1.815c.44-1.68 16.401-10.876 17.307-9.971.217.217 1.508 3.353 2.869 6.968 3.684 9.789 5.142 22.067 3.771 31.762-.965 6.825-4.513 19.684-5.789 20.983-.231.235-1.876-.89-3.656-2.5-2.942-2.661-3.022-2.684-.882-.249 2.199 2.503 2.249 2.826.773 4.934-.926 1.322-1.339 3.214-.999 4.572.358 1.424.135 2.316-.578 2.316-.637 0-1.863 1.688-2.722 3.75-2.505 6.007-5.347 9.345-9.736 11.435-2.751 1.309-3.229 1.767-1.454 1.39l2.645-.561.268 8.243c.147 4.534.307 10.542.355 13.352l.087 5.108 5.98-4.108c8.507-5.846 21.115-18.851 22.581-23.293 1.162-3.521.661-19.927-.648-21.237-.301-.3-2.294.459-4.428 1.687-2.135 1.229-4.106 2.234-4.381 2.234-1.328 0 1.798-5.993 3.389-6.498 3.379-1.072 4.382-3.183 3.045-6.41-.907-2.19-.925-3.435-.072-5.029 1.475-2.756 2.796-1.851 3.607 2.472.758 4.045.898 4.085 5.201 1.461 4.216-2.57 4.312-2.542 3.109.911-.558 1.598-2.222 3.511-3.698 4.25L177.5 123.5l.5 10.976.5 10.976 4.612-9.976c5.508-11.912 7.481-18.859 8.869-31.226 1.575-14.03-.858-31.799-5.996-43.785-2.375-5.541-2.482-7.211-.49-7.642 1.157-.25.762-1.386-1.75-5.03-1.99-2.885-3.825-4.55-4.745-4.301-.932.251-3.204-1.891-6-5.658-2.475-3.334-6.89-8.206-9.811-10.825-4.932-4.422-5.8-4.811-12.138-5.435-3.754-.37-9.071-.375-11.816-.011l-4.991.662 2.366 4.138c3.105 5.43 3.002 6.005-.73 4.075-1.716-.887-3.615-2.924-4.219-4.526-1.223-3.238-1.448-3.324-5.096-1.937-2.909 1.106-8.079-.335-7.068-1.97.34-.55 2.402-1.285 4.582-1.634l3.964-.633-2.022-3.426c-2.754-4.668-2.541-5.632.858-3.875 2.758 1.427 4.661 4.089 4.24 5.933-.11.479 2.181.6 5.091.27 2.909-.331 8.103-.242 11.54.196 3.438.438 6.25.675 6.25.525 0-.149-3.063-2.092-6.807-4.316C128.71 4.065 104.914-.248 83.849 3.564m18.612 5.499c-.364.588-.435 1.296-.159 1.572.75.75 14.821 2.576 15.399 1.997 1.223-1.223-1.124-2.565-5.474-3.129-2.6-.337-5.712-.814-6.916-1.061s-2.486.032-2.85.621M84.078 9.9c-2.433.33-4.627 1.221-4.877 1.979-.373 1.133.912 1.252 7.173.665 4.745-.445 7.626-.349 7.626.254 0 .533-2.92 1.282-6.489 1.664s-6.753 1.121-7.075 1.641c-.321.52-.29 2.285.069 3.921.848 3.862 4.495 4.263 4.495.495 0-2.577.32-2.733 8.194-3.996 4.062-.652 5.859-3.549 3.766-6.071-1.237-1.491-4.825-1.645-12.882-.552m-17.77 5.463c-5.962 2.513-6.748 3.116-5.882 4.517.729 1.18 13.81-4.087 14.377-5.789.551-1.652-2.718-1.163-8.495 1.272m35.287-.749c-.327.852-.595 2.61-.595 3.907 0 2.058.601 2.434 4.75 2.972 2.612.339 5.654.798 6.758 1.02 2.151.432 5.32-1.018 4.349-1.99-.322-.322-2.897-.859-5.721-1.193-6.078-.72-6.862-2.33-1.136-2.33 2.2 0 4-.464 4-1.031 0-1.259-1.159-1.64-7.155-2.352-3.637-.432-4.786-.214-5.25.997M67.5 20.255c-2.75 1.152-5.157 2.21-5.35 2.352-.896.664 2.187 7.476 3.2 7.071.633-.252 3.175-1.247 5.65-2.211C76.24 25.427 80.506 22 77.805 22c-.901 0-3.701.884-6.222 1.964C68.26 25.389 67 25.581 67 24.665c0-.695 1.575-1.833 3.5-2.529s3.5-1.911 3.5-2.701c0-1.794-.366-1.748-6.5.82m-20.13 6.303c-5.457 4.238-6.88 6.077-5.178 6.692.38.138 2.983-1.497 5.783-3.633s5.414-3.56 5.809-3.164c.704.708-.12 1.513-6.773 6.611l-3.345 2.565 2.366 3.2c2.125 2.875 2.523 3.045 3.898 1.67 1.226-1.226 1.294-1.91.345-3.431-1.037-1.66-.624-2.36 3.269-5.551 4.5-3.687 5.453-6.12 3.256-8.317-1.926-1.926-3.217-1.466-9.43 3.358m40.94 8.192c-4.879 5.623-7.329 9.297-7.291 10.934.01.449 1.373-1.34 3.028-3.976s3.672-5.046 4.481-5.357c.81-.311 1.472-1.05 1.472-1.644s.978-2.12 2.174-3.393S94.113 29 93.824 29c-.288 0-2.769 2.587-5.514 5.75m16.119-3.575c0 1.614.136 1.624 1.785.131.982-.889 1.786-1.675 1.786-1.747s-.804-.13-1.786-.13c-1.032 0-1.785.736-1.785 1.746m55.14 2.713c-.479.776.817 3.127 3.439 6.237 5.66 6.712 4.015 7.75-1.861 1.174l-4.647-5.202-2.891 2.525c-2.68 2.34-2.771 2.644-1.25 4.166 1.521 1.521 1.763 1.519 3.307-.026 1.555-1.555 1.928-1.369 5.585 2.786 4.266 4.846 7.061 5.606 8.783 2.388.909-1.698.664-2.631-1.377-5.25-6.291-8.075-8.32-10.04-9.088-8.798m-65.756.795c.721.289 1.584.253 1.916-.079s-.258-.568-1.312-.525c-1.165.048-1.402.285-.604.604m8.297.249c-1.11.686-1.106.918.027 1.371 1.118.447 1.093.736-.137 1.606-.825.583-.993 1.067-.372 1.076.62.008 1.606-.563 2.192-1.269 1.395-1.68.05-3.872-1.71-2.784m-13.36 5.73c.688.278 1.813.278 2.5 0 .688-.277.125-.504-1.25-.504s-1.937.227-1.25.504M99 42c0 1.1.173 2 .383 2s.619-.9.907-2c.287-1.1.115-2-.384-2-.498 0-.906.9-.906 2m30.083-.717c.23.156 1.317.943 2.417 1.75 1.85 1.357 1.897 1.336.628-.283-.755-.962-1.843-1.75-2.417-1.75s-.857.127-.628.283m-13.54 1.648c-.317.512-.049 1.256.595 1.654.698.432.904.292.51-.345-.363-.588-.095-1.297.596-1.576.899-.362.917-.529.065-.585-.655-.043-1.45.34-1.766.852M93 45.607c0 1.067-.542 1.399-1.611.989-1.18-.453-1.448-.192-1 .974.336.877.611 1.782.611 2.012s1.073.418 2.383.418c2.647 0 4.104-3.113 2.301-4.916-1.556-1.556-2.684-1.336-2.684.523M121.5 45c.34.55.816 1 1.059 1s.441-.45.441-1-.477-1-1.059-1-.781.45-.441 1M111 46.607c0 1.018-.55 1.396-1.5 1.031-.947-.363-1.5.013-1.5 1.018 0 1.252.671 1.46 3.125.969 1.719-.344 3.514-.625 3.99-.625s.095-.9-.847-2c-2.069-2.416-3.268-2.56-3.268-.393m-11.602.898c.122.834.848 2.073 1.614 2.755 1.161 1.035 1.194.977.198-.352-.656-.876-.942-1.843-.635-2.15s.118-.83-.421-1.163c-.538-.332-.878.077-.756.91M83 49c.589 1.1 1.237 2 1.442 2s.135-.9-.152-2-.937-2-1.442-2c-.507 0-.439.895.152 2m90.552 3.047c-.879 2.227 5.373 15.692 6.466 13.925.875-1.416-.093-4.35-3.783-11.472-1.507-2.909-2.239-3.578-2.683-2.453m-8.033 3.315c-1.807 1.322-1.795 1.53.409 6.961 2.222 5.473 4.561 8.522 5.68 7.403.307-.308-.378-2.679-1.524-5.27-2.402-5.43-2.408-5.456-1.097-5.456.542 0 1.644 1.575 2.449 3.5 1.48 3.544 3.564 4.729 3.564 2.027 0-.811-.99-3.511-2.199-6-2.297-4.727-4.083-5.503-7.282-3.165m-44.513 6.131c-1.775 2.138-8.151 3.689-18.506 4.5l-9 .706 8.068.15c9.104.17 17.161-1.787 19.923-4.839 1-1.106 1.579-2.01 1.286-2.01s-1.09.672-1.771 1.493m-37.273 2.631c.679.684 1.486.991 1.793.683.308-.308-.247-.867-1.233-1.243-1.425-.542-1.54-.428-.56.56m15.017-.392c2.337.211 6.162.211 8.5 0 2.337-.21.425-.383-4.25-.383s-6.588.173-4.25.383M138 65.441c0 1.407.389 2.559.864 2.559.476 0 1.557 1.688 2.403 3.75 1.41 3.435 1.547 3.53 1.636 1.122.053-1.445-.578-3.187-1.403-3.872s-1.5-2.063-1.5-3.063-.45-2.097-1-2.437c-.567-.351-1 .49-1 1.941m-48.731.252c.973.254 2.323.237 3-.037s-.119-.481-1.769-.461-2.204.244-1.231.498m85.231 6.272c-2.174.397-3.091 1.188-3.33 2.874-.287 2.02.037 2.282 2.473 1.993 2.633-.312 2.867-.026 3.831 4.668.564 2.75 1.39 5.563 1.835 6.25 1.105 1.708 4.178 1.573 5.69-.249 1.798-2.166-.855-15.85-3.158-16.293-1.473-.284-1.493.289-.214 6.391 1.379 6.578 1.125 9.235-.615 6.42-.484-.783-1.164-3.491-1.512-6.019-.824-5.989-1.406-6.692-5-6.035M15.486 78.25c-2.216 9.034-2.098 15.695.238 13.36.705-.706 2.132-8.985 2.216-12.86.072-3.307-1.678-3.663-2.454-.5m9.063 4.207C24.168 85.506 23.381 88 22.8 88c-.669 0-.825-1.443-.426-3.94.383-2.392.211-4.199-.438-4.6-1.544-.954-1.741-.525-2.78 6.076-1.034 6.568-.569 7.423 4.049 7.449 2.96.016 3.687-1.913 4.095-10.877.301-6.603-1.918-6.321-2.751.349M143.5 77.672c-4.761 1.048-7.18 2.662-9.915 6.615l-2.914 4.213 3.65-3.432c2.007-1.887 3.825-3.237 4.041-3s1.349 2.329 2.518 4.649c2.391 4.741 4.601 6.283 9.007 6.283 3.43 0 8.113-1.867 8.113-3.235 0-1.086-11.038-12.817-11.902-12.649-.329.064-1.498.314-2.598.556m-48.421 1.911c.048 1.165.285 1.402.604.605.289-.722.253-1.585-.079-1.917s-.568.258-.525 1.312m49.995 3.294c-1.334.373-2.601 1.205-2.816 1.85-.432 1.295 4.127.308 7.418-1.606 1.72-1 1.71-1.056-.176-.991-1.1.038-3.092.374-4.426.747m-8.995 5.706c.048 1.165.285 1.402.604.605.289-.722.253-1.585-.079-1.917s-.568.258-.525 1.312m-7.126 2.505c-.615 1.149-2.708 3.849-4.652 6L120.767 101h-20.339l-3.354-4.25c-1.844-2.338-3.098-3.509-2.785-2.604s1.122 3.493 1.798 5.75l1.23 4.104h8.202c14.168 0 16.934-.696 19.344-4.87a183 183 0 0 1 4.215-6.88c1.165-1.787 1.865-3.25 1.555-3.25-.309 0-1.066.94-1.68 2.088m44.555 7.841c-.706 6.086-.089 10.071 1.559 10.071.513 0 .933-2.7.933-6 0-4.429.361-6 1.377-6 1.041 0 1.253 1.1.87 4.5-.417 3.7-.217 4.5 1.123 4.5 1.185 0 1.63-.922 1.63-3.375 0-1.856.281-4.781.625-6.5.617-3.086.575-3.125-3.402-3.125h-4.027zm10.14-2.217c-.931 5.635-.777 12.288.285 12.288 1.285 0 1.878-2.481 2.25-9.408.363-6.772-1.535-8.929-2.535-2.88m-168.545.203c-1.105.7-1.249 2.515-.691 8.676.76 8.392 1.185 9.776 2.709 8.834.599-.37.716-3.304.301-7.516-.444-4.505-.323-6.909.347-6.909.566 0 1.344 3.15 1.731 7 .743 7.401 1.089 7.753 6.25 6.37 1.323-.355 2.25-1.379 2.25-2.487 0-1.426-.729-1.883-3-1.883-2.825 0-3-.229-3-3.935 0-7.565-2.729-10.789-6.897-8.15M88.07 98.75c.039.412.457 1.65.93 2.75.762 1.772.867 1.687.93-.75.038-1.513-.38-2.75-.93-2.75s-.968.338-.93.75m-5.18 6c.649 1.237 1.915 2.25 2.812 2.25s1.444-.117 1.215-.261c-.229-.143-1.495-1.156-2.813-2.25l-2.395-1.989zm5.305 2.75c.02 1.65.244 2.204.498 1.231s.237-2.323-.037-3-.481.119-.461 1.769m72.884 9.083c.048 1.165.285 1.402.604.605.289-.722.253-1.585-.079-1.917s-.568.258-.525 1.312m-133.094 4.378c2.31 5.861 2.342 6.039 1.08 6.039-.515 0-1.505-1.575-2.201-3.5s-1.899-3.5-2.673-3.5c-1.588 0-1.227 2.277 1.333 8.403 1.417 3.391 1.864 3.718 4.279 3.121 1.483-.366 3.088-1.047 3.566-1.513 1.333-1.302-3.653-13.442-5.682-13.833-1.574-.303-1.549.098.298 4.783m105.961-.211-3.446 3.75 3.75-3.446c2.063-1.896 3.75-3.583 3.75-3.75 0-.764-.846-.044-4.054 3.446M18 120.711c0 3.01 4.444 13.289 5.745 13.289 1.716 0 1.633-.486-1.403-8.225-2.567-6.543-4.342-8.613-4.342-5.064M138.5 124c.995 1.1 2.035 2 2.31 2s-.315-.9-1.31-2-2.035-2-2.31-2 .315.9 1.31 2m-11.059 1.555c-1.864 1.494-1.852 1.512.309.465 1.238-.6 2.25-1.3 2.25-1.555 0-.765-.519-.544-2.559 1.09M143 127.378c0 .207.787.995 1.75 1.75 1.586 1.243 1.621 1.208.378-.378-1.307-1.666-2.128-2.195-2.128-1.372m-21.193 2.483c-1.611 2.294-12.984 8.139-15.838 8.139-1.339 0-1.828.419-1.364 1.17.488.79.175.96-.964.522-1.348-.517-1.507-.3-.792 1.081.492.95 1.205 3.864 1.584 6.477 1.026 7.069 2.899 6.017 2.368-1.33l-.44-6.079 7.569-3.832c4.164-2.107 8.136-4.772 8.828-5.92 1.561-2.59.83-2.765-.951-.228M42 130.777c0 .428.711 1.793 1.58 3.034l1.58 2.255 1.92-2.441c2.602-3.308 2.464-3.625-1.58-3.625-1.925 0-3.5.35-3.5.777m35.044 6.817c2.177 2.743 2.774 2.986 5.257 2.135 3.322-1.139 3.194-1.432-.801-1.843-1.65-.169-3.88-1-4.956-1.847-1.429-1.124-1.295-.705.5 1.555m-49.471-.025c-1.245 1.246-1.336 2.006-.438 3.683C29.08 144.887 35.152 153 35.927 153c2.116 0 1.594-1.734-1.98-6.571-4.189-5.672-4.536-6.429-2.945-6.429.551 0 2.658 2.305 4.682 5.123 3.474 4.836 3.728 4.996 4.519 2.859.639-1.73.379-2.586-1.101-3.623-1.066-.747-2.912-2.933-4.102-4.858-2.333-3.776-4.911-4.447-7.427-1.932m21.299.181c-1.243 1.586-1.208 1.621.378.378 1.666-1.307 2.195-2.128 1.372-2.128-.207 0-.995.787-1.75 1.75m43.878.912c.688.278 1.813.278 2.5 0 .688-.277.125-.504-1.25-.504s-1.937.227-1.25.504m61.464 6.524c-.915.915-.806 1.608.48 3.029 1.576 1.741 1.438 2.075-2.513 6.101-4.624 4.711-5.207 7.065-2.155 8.698 2.362 1.264 5.081-.374 11.315-6.815 5.827-6.022 2.655-6.605-3.414-.627-2.684 2.644-5.202 4.487-5.594 4.095s1.485-2.944 4.17-5.67l4.883-4.957-2.367-2.52c-2.687-2.86-3.15-2.989-4.805-1.334m-73.964 1.476c-2.047.826-1.417 2.194.75 1.628 1.1-.288 2-.921 2-1.407 0-.953-.78-1.016-2.75-.221m-.5 4.027c-2.723.712-2.058 2.092.75 1.556 1.375-.263 2.5-.876 2.5-1.362 0-.923-.373-.946-3.25-.194m33.063-.006c.721.289 1.584.253 1.916-.079s-.258-.568-1.312-.525c-1.165.048-1.402.285-.604.604m19.451.035c1.52.229 3.77.223 5-.014s-.014-.425-2.764-.418-3.756.202-2.236.432m-34.185 3.435c-.043.909-1.766 3.085-3.829 4.836-2.934 2.491-3.078 2.739-.661 1.144 4.043-2.67 5.721-4.765 5.084-6.349-.34-.847-.542-.721-.594.369m40.171 2.536c.963.252 2.537.252 3.5 0 .963-.251.175-.457-1.75-.457s-2.713.206-1.75.457m-50.809 6.866c-1.864 1.494-1.852 1.512.309.465 1.237-.6 2.25-1.3 2.25-1.555 0-.765-.519-.544-2.559 1.09m-5 3c-1.864 1.494-1.852 1.512.309.465 1.237-.6 2.25-1.3 2.25-1.555 0-.765-.519-.544-2.559 1.09m-5.841 3.136c-5.488 2.895-17.11 6.398-23.155 6.98-6.706.644-11.027-.876-13.964-4.915-1.479-2.035-1.607-2.063-1.304-.291.45 2.625 6.255 6.421 10.976 7.175 2.096.336 3.567 1.004 3.27 1.485-1.097 1.775-5.481.775-13.406-3.057-7.798-3.771-7.996-3.949-4.824-4.34 1.962-.242.835-.473-2.77-.568l-6.077-.16.54 3.25c.432 2.602.61 2.802.896 1 .196-1.238.586-2.25.866-2.25s4.524 1.865 9.431 4.145L46 182.29v4.926c0 3.046.573 5.5 1.5 6.427.825.825 1.5 1.018 1.5.428 0-.589 1.125-1.071 2.5-1.071 2.03 0 2.5.492 2.5 2.617 0 2.251-.349 2.55-2.5 2.138-1.676-.32-2.5-.029-2.5.884 0 1.115 4.967 1.361 27.5 1.361H104v-3c0-2.352.44-3 2.038-3 1.923 0 2.021-.516 1.75-9.23l-.288-9.23-11.5-2.742c-6.325-1.508-12.475-2.755-13.667-2.77-1.191-.015-2.316-.442-2.5-.947-.183-.506-1.638-.231-3.233.61M106.158 172c0 1.375.227 1.938.504 1.25.278-.687.278-1.812 0-2.5-.277-.687-.504-.125-.504 1.25M93 175c0 .55 1.912.968 4.25.93 3.292-.055 3.799-.264 2.25-.93-2.789-1.198-6.5-1.198-6.5 0m52.079 3.583c.048 1.165.285 1.402.604.605.289-.722.253-1.585-.079-1.917s-.568.258-.525 1.312m-120.427 7.249c-.349 3.757-.864 8.37-1.144 10.25l-.51 3.418.982-3c1.108-3.387 2.561-17.5 1.802-17.5-.272 0-.781 3.074-1.13 6.832m107.623 6.747c.949 1.143 1.725 3.185 1.725 4.537 0 1.733.584 2.502 1.98 2.608 3.431.258 3.072-1.273-1.246-5.311-2.301-2.152-3.407-2.978-2.459-1.834"/></svg>