<svg xmlns="http://www.w3.org/2000/svg" width="200" height="200" fill="#000000"><path fill-opacity=".349" fill-rule="evenodd" d="M81.625 1.554C21.189 13.562-14.352 74.643 5.368 132.61c21.723 63.856 100.677 88.041 154.748 47.404 20.058-15.075 35.462-40.278 38.468-62.937.374-2.817 1.07-5.363 1.548-5.658.477-.296.868-5.937.868-12.537s-.393-11.757-.874-11.46c-.48.297-1.177-1.746-1.547-4.54-.918-6.919-5.172-20.107-8.833-27.382-11.719-23.286-32.851-41.873-56.913-50.057C117.093.09 96.765-1.454 81.625 1.554M105.891 42.5c-2.553.819-6.569 3.315-9 5.595-3.861 3.619-3.917 3.726-.464.885 2.16-1.776 5.48-3.879 7.378-4.672 3.781-1.58 14.239-2.128 18.195-.954 2.111.626 2.22.566.701-.384-2.931-1.832-11.791-2.08-16.81-.47M74.5 43.89c-2.2 1.015-5.123 3.143-6.496 4.728L65.507 51.5l2.997-2.628c4.492-3.939 7.056-4.982 14.354-5.834l6.642-.775-5.5-.11c-3.443-.068-6.996.581-9.5 1.737m45.75 14.141c-1.237.498-2.25 1.369-2.25 1.937 0 1.333 3.688 1.346 4.51.016.346-.559 1.16-.698 1.809-.308.673.403.59-.02-.191-.984-.755-.931-1.43-1.663-1.5-1.629s-1.141.471-2.378.968M55.2 77.2c-1.411 1.411-1.568 2.8-.317 2.8.486 0 1.119-.9 1.407-2 .61-2.334.514-2.404-1.09-.8M129 80c1.391 1.088 1.903 1.965 1.154 1.978-.74.012-2.54.858-4 1.881-1.46 1.022-5.354 2.877-8.654 4.124-10.816 4.083-37.968 3.838-54.618-.495l-5.382-1.4 3.593 3.325c10.194 9.436 38.538 12.156 56.784 5.448 3.093-1.137 6.62-2.295 7.838-2.574 2.912-.666 7.285-6.481 7.285-9.685 0-1.479-.804-2.962-1.934-3.567-3.287-1.759-4.703-1.098-2.066.965M.385 100c0 6.875.16 9.688.355 6.25.196-3.437.196-9.062 0-12.5-.195-3.437-.355-.625-.355 6.25m48.346 34.92c-.435 1.663-.305 2.054.437 1.312.582-.582.86-1.647.62-2.369-.25-.749-.703-.295-1.057 1.057m-4.304 8.559c-1.06.801-1.477 1.465-.927 1.474 1.486.024 4.026-1.761 3.398-2.388-.299-.3-1.411.112-2.471.914m-.696 6.441c-.435 1.663-.305 2.054.437 1.312.582-.582.86-1.647.62-2.369-.25-.749-.703-.295-1.057 1.057m-.652 6.663c.048 1.165.285 1.402.604.605.289-.722.253-1.585-.079-1.917s-.568.258-.525 1.312m-2 13c.048 1.165.285 1.402.604.605.289-.722.253-1.585-.079-1.917s-.568.258-.525 1.312"/><path fill-opacity=".59" fill-rule="evenodd" d="M88 .599C69.373 4.033 58.052 8.226 45.812 16.225 23.315 30.925 8.437 52.263 2.39 78.5c-2.561 11.113-2.572 32.078-.023 43 4.999 21.421 17.255 41.725 33.04 54.738 30.577 25.207 70.446 30.511 107.192 14.261 2.971-1.314 5.401-2.789 5.401-3.277 0-.489.589-.889 1.309-.889 3.926 0 21.579-14.606 28.46-23.546C189.557 147.47 199 124.904 199 112.053c0-1.679.45-3.053 1-3.053.597 0 1-3.853 1-9.559 0-6.118-.36-9.337-1-8.941-.589.364-1.006-.743-1.015-2.691-.008-1.82-.696-6.234-1.528-9.809-8.666-37.219-36.865-65.862-73.957-75.119C115.754.947 93.773-.465 88 .599m17.23 41.678c-1.798.686-5.623 2.987-8.5 5.115s-4.432 2.975-3.456 1.883C96.881 45.238 92.495 42 83.421 42c-3.017 0-6.933.612-8.703 1.36-3.402 1.438-8.19 5.784-9.908 8.995-.964 1.802-.714 1.89 4.047 1.433 3.269-.314 4.854-.129 4.453.52-.37.598.164.801 1.313.501 1.065-.279 2.512.11 3.216.864s1.816 1.064 2.471.689c.654-.376.879-.337.499.085s.366 1.908 1.658 3.301c1.704 1.838 2.978 2.369 4.639 1.935 1.259-.33 2.962-.056 3.784.609.875.707 1.222.753.838.111-1.191-1.989 8.134-9.224 10.224-7.933.5.309 1.192.105 1.538-.454.345-.559 2.964-1.009 5.819-1.001 3.926.012 4.826.273 3.691 1.071-1.153.812-.761.966 1.697.666 1.915-.234 2.955.002 2.594.586-.357.578.278.746 1.554.413 1.187-.311 1.906-.156 1.597.342-.494.8.811 1.309 2.712 1.057.36-.047 1.26.661 2 1.574 1.152 1.421 1.13 1.537-.154.808-.831-.473-1.153-.471-.721.003 1.05 1.154 3.721 1.491 3.721.47 0-.45.899-.583 1.997-.296 1.852.485 1.951.171 1.368-4.343-.359-2.779-1.537-5.907-2.747-7.294l-2.118-2.427 3.5 2.26 3.5 2.26-3-2.635c-1.65-1.449-4.346-3.354-5.992-4.233-3.836-2.05-15.026-2.641-19.278-1.02m-37.618 8.192C66.063 52.833 66.066 53 67.644 53c.929 0 1.393-.296 1.031-.658s-.147-1.273.476-2.024c.624-.752.906-1.595.627-1.873-.279-.279-1.253.632-2.166 2.024m48.408 12.645c-3.14 5.892-3.167 6.043-.993 5.719 1.428-.213 3.49-2.313 5.726-5.833 1.921-3.025 3.154-5.178 2.739-4.785s-1.54.294-2.5-.22c-1.463-.782-2.269.047-4.972 5.119M85 64c0 .55 1.377 1 3.059 1 1.785 0 2.802-.417 2.441-1-.34-.55-1.716-1-3.059-1S85 63.45 85 64m41.59.625c-1.061 2.766-.629 3.421 1.91 2.894 7.951-1.651 7.99-1.666 6.486-2.46-3.359-1.772-7.794-2.002-8.396-.434m-44.551 5.834c-4.04 4.169-10.07 6.374-19.506 7.133l-7.033.566 2.485-2.01c1.367-1.106 2.251-2.246 1.964-2.532-.661-.662-6.949 5.161-6.949 6.435 0 1.251 1.715 1.219 2.498-.047.384-.622 1.816-.373 3.809.661 1.756.912 5.218 2.256 7.693 2.986l4.5 1.327-4-.548c-2.2-.301-5.687-1.365-7.75-2.364S56 80.572 56 80.965c0 3.239 23.47 7.98 39.685 8.017 4.501.01 11.374-.653 15.272-1.473 6.907-1.453 15.743-5.143 14.733-6.152-.277-.278-1.874.204-3.547 1.069-4.215 2.18-4.351 2.009-1.137-1.432 1.545-1.654 4.145-3.274 5.779-3.601 3.537-.707 7.215 1.008 7.215 3.365 0 1.354-.308 1.248-1.557-.535-.917-1.311-2.605-2.223-4.11-2.223h-2.555l2.243 1.816 2.242 1.816-7.381 3.587C114.823 89.136 106.034 91 95.629 91c-8.995 0-24.794-1.781-31.915-3.597-3.182-.812-6.22-1.208-6.75-.881-.53.328-.964.044-.964-.63s-.263-.963-.584-.642c-1.228 1.229 3.879 10.455 8.253 14.908 6.421 6.538 15.46 10.484 27.493 12.004 12.912 1.631 18.803.559 20.136-3.662 1.051-3.328 6.585-9.69 7.784-8.95.42.26 2.374-.477 4.341-1.637 3.964-2.339 4.847-3.599 1.327-1.893-1.708.828-1.585.573.511-1.056 3.268-2.541 11.9-7.034 11.135-5.795-.293.473-2.301 1.762-4.464 2.866-2.163 1.103-3.932 2.233-3.932 2.511 0 .724 6.178-2.505 8.226-4.3.95-.832 1.523-1.843 1.274-2.246s.437-1.538 1.524-2.521c2.388-2.162 2.569-6.815.463-11.857-1.418-3.394-1.794-3.622-5.966-3.622-4.326 0-6.327 1.153-13.203 7.611-1.929 1.812-8.933 2.484-14.016 1.345-5.995-1.344-10.363-4.036-13.746-8.472-3.408-4.467-6.204-4.474-10.517-.025m63.047 1.041c.104 1.894 1.77 5.084 1.828 3.5.031-.825-.381-2.175-.914-3s-.945-1.05-.914-.5m2.072 7.5c0 1.375.227 1.938.504 1.25.278-.687.278-1.812 0-2.5-.277-.687-.504-.125-.504 1.25M73.25 85.689c.963.252 2.537.252 3.5 0 .963-.251.175-.457-1.75-.457s-2.713.206-1.75.457m38.563-.006c.721.289 1.584.253 1.916-.079s-.258-.568-1.312-.525c-1.165.048-1.402.285-.604.604M81.25 86.689c.963.252 2.537.252 3.5 0 .963-.251.175-.457-1.75-.457s-2.713.206-1.75.457m25.019.004c.973.254 2.323.237 3-.037s-.119-.481-1.769-.461-2.204.244-1.231.498M91.75 87.732c2.337.211 6.162.211 8.5 0 2.337-.21.425-.383-4.25-.383s-6.588.173-4.25.383M.365 100.5c.003 5.5.171 7.622.373 4.716.203-2.905.201-7.405-.004-10S.363 95 .365 100.5m59.243-6.61c2.294 4.11 10.314 10.705 16.225 13.343 6.147 2.743 6.213 1.599.073-1.277-2.798-1.31-6.094-3.524-7.325-4.919-1.23-1.396-4.179-4.337-6.551-6.537l-4.315-4zM41.25 96.115c-3.409 2.183-4.512 3.649-1.5 1.993 2.294-1.261 5.889-4.04 5.25-4.059-.275-.009-1.962.921-3.75 2.066m102.493 1.635c-1.943 1.513-4.367 3.337-5.388 4.054s.395.098 3.145-1.377c5.384-2.887 8.591-5.427 6.852-5.427-.592 0-2.666 1.237-4.609 2.75M50 100c0 .55.477 1 1.059 1s.781-.45.441-1-.816-1-1.059-1-.441.45-.441 1m65.924 2.75-2.424 2.75 2.75-2.424c2.57-2.266 3.209-3.076 2.424-3.076-.179 0-1.416 1.237-2.75 2.75m17.517 1.805c-1.864 1.494-1.852 1.512.309.465 1.238-.6 2.25-1.3 2.25-1.555 0-.765-.519-.544-2.559 1.09m-82.898.376c-.317.512-.193 1.167.274 1.456s.85-.13.85-.931c0-1.686-.316-1.833-1.124-.525m61.547 4.569c-.046 1.1.816 3.473 1.914 5.274 2.43 3.986 2.445 4.226.273 4.226-1.509 0-1.478.171.25 1.382 1.085.759 2.263 1.322 2.618 1.25s1.667.768 2.917 1.868c1.39 1.224.608-.472-2.014-4.37-2.357-3.503-4.643-7.553-5.081-9-.618-2.043-.813-2.184-.877-.63m29.182 3.89c-3.224 2.954-3.525 3.6-2.344 5.023 1.184 1.427 1.116 1.555-.537 1.016-1.361-.445-1.52-.352-.568.331 1.457 1.044 5.97.824 7.015-.341.364-.406-.058-.481-.938-.167-2.656.947-2.323-5.35.395-7.48 1.213-.95 1.861-1.738 1.44-1.75-.42-.012-2.429 1.503-4.463 3.368m10.51 1.159c.927 2.502 1.816 4.157 1.975 3.679.321-.963-2.525-8.228-3.223-8.228-.241 0 .32 2.047 1.248 4.549m-15.198-.206c-1.618 1.294-2.468 2.611-1.909 2.956.554.342 1.992-.71 3.196-2.338 2.637-3.567 2.488-3.638-1.287-.618m-25.916.08c-.319.832-.143 1.783.392 2.114s.709 1.027.387 1.548-1.074.646-1.671.277c-.647-.401-.797-.206-.371.483.392.635.184 1.155-.463 1.155-.683 0-.956.838-.652 2.001.288 1.101.115 1.75-.383 1.441-.499-.308-.907 1.477-.907 3.968 0 3.812.263 4.426 1.664 3.889 1.208-.464 1.44-.276.846.686-.542.875-.432 1.085.322.619.627-.388.955-1.695.728-2.904-.226-1.21-.445-2.564-.486-3.009s-.594-.488-1.229-.096c-.763.472-.88.271-.347-.592.63-1.019 1.104-.9 2.158.542 1.123 1.535 1.562 1.621 2.598.505.839-.905.862-1.128.068-.682-1.232.691-2.974-3.05-1.913-4.11.325-.325.591.159.591 1.075 0 .917.477 1.667 1.059 1.667s.781-.45.441-1-.086-1 .563-1c.885 0 .871-.375-.054-1.489-.68-.819-1.747-1.192-2.372-.828-.625.363-.305-.289.713-1.45 1.658-1.892 1.697-2.328.374-4.217-1.213-1.732-1.579-1.837-2.056-.593M52.25 119.22c-1.237.597-2.25 1.477-2.25 1.956 0 .689 3.056-.795 5.917-2.873.998-.726-1.617-.071-3.667.917m63.75.662c0 .55.45 1.278 1 1.618s1 .168 1-.382-.45-1.278-1-1.618-1-.168-1 .382m25.333 4.574c0 .801.383 1.22.85.931s.591-.944.274-1.456c-.808-1.308-1.124-1.161-1.124.525m-91.293 6.645c-1.098 2.419-2.006 4.899-2.018 5.509s-1.179 2.816-2.593 4.899c-1.772 2.612-2.384 4.534-1.969 6.186.33 1.318.271 2.932-.133 3.586s-.79 4.12-.857 7.704l-.122 6.515.863-5.5c.474-3.025 1.256-6.736 1.737-8.246.515-1.616.5-2.977-.036-3.309-1.576-.973-.993-3.284.985-3.912 1.228-.39 1.73-1.243 1.423-2.419-.262-.999.235-2.526 1.102-3.393.868-.868 1.578-2.308 1.578-3.199 0-.892.708-2.991 1.574-4.665.865-1.673 1.323-3.293 1.018-3.599-.306-.306-1.455 1.424-2.552 3.843m98.401 3.454c-1.864 1.494-1.852 1.512.309.465 1.238-.6 2.25-1.3 2.25-1.555 0-.765-.519-.544-2.559 1.09M118 151.941c0 .518.445 1.216.989 1.552.566.35.734-.051.393-.941-.665-1.732-1.382-2.049-1.382-.611M114 153c-.901.582-1.025.975-.309.985.655.008 1.469-.435 1.809-.985.767-1.242.421-1.242-1.5 0m26.75 2.662c.688.278 1.813.278 2.5 0 .688-.277.125-.504-1.25-.504s-1.937.227-1.25.504m-99.083 12.005c-.367.366-.638 1.604-.604 2.75.059 1.915.141 1.89 1.022-.312.979-2.448.776-3.633-.418-2.438m41.521 4.058c2.839.299 3.786.893 4.114 2.582.352 1.811.449 1.714.562-.557.129-2.614-.074-2.742-4.114-2.582l-4.25.168zm11.891 2.858c.048 1.165.285 1.402.604.605.289-.722.253-1.585-.079-1.917s-.568.258-.525 1.312"/><path fill-opacity=".456" fill-rule="evenodd" d="M90 .648C74.17 3.025 65.767 5.582 53.991 11.603 27.431 25.183 8.42 50.667 1.85 81.5c-1.625 7.622-1.609 29.157.027 37 5.417 25.974 19.538 47.933 40.366 62.772 16.461 11.728 38.712 18.811 58.731 18.696 5.077-.029 5.368-.151 3.585-1.5-1.817-1.374-1.689-1.476 2-1.586 2.167-.066 4.278-.066 4.691 0 .412.065.75-.277.75-.761 0-1.444-6.23-3.575-9.477-3.241-4.667.48-2.375-.858 4.127-2.41 6.445-1.538 5.71-1.884 11.445 5.385l1.857 2.354 7.274-2.177c4.001-1.197 10.304-3.558 14.008-5.245 6.207-2.828 6.691-3.272 6.193-5.678-.528-2.543-.508-2.554.766-.435 1.303 2.167 1.328 2.159 7.807-2.241 8.319-5.65 18.617-15.551 24.559-23.612 9.351-12.685 16.812-31.208 18.084-44.894.358-3.845 1.034-7.227 1.504-7.518.469-.29.853-3.902.853-8.027 0-4.745-.367-7.273-1-6.882-.592.366-1-.78-1-2.813 0-1.887-1.125-7.876-2.501-13.309-8.296-32.772-32.564-58.931-64.999-70.064C119.722 1.271 100.352-.907 90 .648M78.589 42.134c-5.434 1.253-10.112 4.358-12.58 8.351-1.15 1.861-2.824 3.526-3.72 3.7-.896.173 1.485.347 5.291.387 7.303.075 12.21 1.862 14.639 5.33.881 1.258 2.788 2.018 5.567 2.218 3.429.248 4.519-.111 5.772-1.899 2.06-2.941 5.011-4.441 10.442-5.308 3.933-.628 13.607.361 14.755 1.509.224.224-1.931 4.744-4.788 10.045-2.858 5.3-4.898 9.936-4.533 10.3 1.331 1.331 4.103-1.618 8.96-9.533 4.67-7.609 5.088-8.01 6.969-6.692 1.388.972 2.377 1.089 3.23.381.838-.696 1.435-.686 1.877.028.743 1.203 7.53 1.448 7.53.272 0-.428-.6-1.666-1.334-2.75-2.106-3.116-2.86-5.708-1.405-4.83.682.41.064-.804-1.371-2.698-4.435-5.853-11.143-9.337-18.811-9.771-4.615-.26-7.853.123-10.546 1.248-3.107 1.298-4.071 1.368-4.804.351-.672-.932-.78-.838-.404.349.329 1.039-.624 2.437-2.656 3.892-1.743 1.25-2.606 1.668-1.919.929 1.831-1.967 1.562-2.734-1.5-4.278-3.858-1.946-10.057-2.593-14.661-1.531M95 42.56c0 .674.675 1.485 1.5 1.802.991.38 1.5-.036 1.5-1.227 0-.991-.675-1.802-1.5-1.802s-1.5.552-1.5 1.227m43.153 16.818c1.944 4.001 2.341 4.329 3.434 2.834.68-.929.973-2.115.652-2.635s-.874-.119-1.228.89c-.54 1.542-.854 1.327-1.957-1.337-.723-1.745-1.716-3.421-2.207-3.724s.097 1.484 1.306 3.972m-83.942-1.84c-1.066 1.208-1.022 1.462.25 1.462.846 0 1.539-.675 1.539-1.5 0-1.824-.15-1.82-1.789.038M85 64c0 .55 1.602 1 3.559 1 2.118 0 3.309-.405 2.941-1-.34-.55-1.941-1-3.559-1S85 63.45 85 64m41 1.605c0 2.238.334 2.539 2.25 2.025 1.238-.331 4.5-.646 7.25-.698 4.986-.095 4.992-.099 2-1.378-1.65-.705-4.912-1.574-7.25-1.93-4.086-.623-4.25-.546-4.25 1.981m-84 .954c0 .857.457 1.276 1.016.931.559-.346.758-1.047.441-1.559C42.6 64.544 42 64.802 42 66.559m11-.109c0 .798.788 1.909 1.75 2.47 1.667.971 1.667 1.021 0 1.05-.962.016-1.787.368-1.831.78-.944 8.717-.483 10.661 2.908 12.256 4.306 2.026 14.422 4.966 17.673 5.136 2.957.155 2.961.164.297.57-3.969.605-19.05-3.697-20.604-5.878-1.688-2.37-3.498-2.371-2.746-.002.358 1.13-.179 2.52-1.401 3.626-1.408 1.275-1.725 2.272-1.097 3.447.68 1.27.197 2.049-2.079 3.355-1.744 1.001-2.671 1.195-2.253.47.39-.676-.49.033-1.958 1.576s-3.093 2.544-3.613 2.222c-.52-.321-1.434.329-2.031 1.444-.969 1.811-.787 2.03 1.7 2.043 2.249.013 2.496.222 1.285 1.087-1.205.861-1.057.974.751.578 1.434-.314 2.013-.107 1.594.571-.421.682.117.861 1.5.5 1.187-.311 1.914-.17 1.616.312s1.047 1.54 2.988 2.351 5.671 2.947 8.29 4.746c4.736 3.254 4.752 3.257 3.005.582-2.851-4.367-4.891-13.665-4.179-19.042l.636-4.8 2.029 4.101c6.58 13.299 22.483 21.023 43.204 20.984 8.34-.016 9.867-.437 10.837-2.985.448-1.176.588-1.113.65.29.043.984-.801 3.516-1.878 5.625-3.863 7.573-6.156 14.683-6.556 20.335-.225 3.162-.124 5.75.224 5.75.347 0 1.567-.787 2.71-1.75 2.028-1.707 2.04-1.701.481.25-3.572 4.471-3.054 4.776 1.432.841 2.608-2.288 7.279-5.452 10.381-7.031 3.101-1.579 5.787-3.316 5.968-3.86.181-.543-2.429-5.255-5.802-10.469-5.779-8.937-6.062-9.653-4.936-12.481.657-1.65 1.313-3.638 1.458-4.417s1.002-1.525 1.905-1.658c2.374-.348 6.752-4.018 5.908-4.953-.394-.436-.169-.478.5-.095 1.547.889 9.553-3.133 8.767-4.404-.336-.543.148-.668 1.129-.292 1.157.444 1.483.281 1-.5-.458-.741-.19-.956.746-.597s1.727-.276 2.2-1.762c.68-2.141.79-2.174 1.407-.418.636 1.811.777 1.789 2.845-.431 1.197-1.284 2.807-4.391 3.579-6.904l1.403-4.569.19 6c.15 4.739.359 5.442.992 3.344.442-1.461.417-4.723-.055-7.248s-.575-5.38-.229-6.344.243-1.4-.229-.971c-.471.43-1.474-.245-2.228-1.5-.901-1.499-1.175-1.649-.798-.438.316 1.013.813 3.038 1.105 4.5.38 1.896.062 1.583-1.111-1.093-1.529-3.491-1.938-3.75-5.911-3.75-7.259 0-10.218 1.069-15.542 5.614C118.1 78.775 117.517 79 111.615 79c-7.776 0-15.549-3.539-18.594-8.466-3.283-5.312-6.151-5.352-11.346-.157C76.932 75.121 71.433 77 62.296 77c-4.513 0-4.57-.039-2.83-1.963 1.717-1.897 1.672-2.05-1.345-4.589C56.405 69.004 55 67.187 55 66.411S54.55 65 54 65s-1 .653-1 1.45m136.079.133c.048 1.165.285 1.402.604.605.289-.722.253-1.585-.079-1.917s-.568.258-.525 1.312M42.5 72c.34.55.816 1 1.059 1s.441-.45.441-1-.477-1-1.059-1-.781.45-.441 1m13 3.558c-1.864 1.583-2.212 2.17-.918 1.549 1.859-.891 5.23-4.115 4.29-4.102-.204.003-1.722 1.151-3.372 2.553m-12.957 1.373c-.317.512-.118 1.213.441 1.559S44 78.416 44 77.559c0-1.757-.6-2.015-1.457-.628m80.969 3.056c-1.617 1.787-1.587 1.848.646 1.312 4.302-1.031-.218 2.531-6.735 5.307-3.258 1.388-4.573 2.256-2.923 1.929 3.772-.749 13.729-5.697 14.173-7.043.183-.554-.522-1.541-1.566-2.193-1.559-.973-2.203-.85-3.595.688M131 78.378c0 .207.787.995 1.75 1.75 1.586 1.243 1.621 1.208.378-.378-1.307-1.666-2.128-2.195-2.128-1.372M42.5 83c.34.55.816 1 1.059 1s.441-.45.441-1-.477-1-1.059-1-.781.45-.441 1m4.5 1c0 .55.45 1 1 1s1-.45 1-1-.45-1-1-1-1 .45-1 1m103 3.209c0 4.203-4.862 9.69-13.557 15.299-4.644 2.996-8.443 5.696-8.443 6s2.363-.954 5.25-2.796c2.887-1.843 9.188-5.493 14-8.112 4.813-2.619 8.75-5.331 8.75-6.026 0-1.768-3.486-4.738-4.491-3.826-.457.414-.525.221-.153-.429.372-.649.219-1.463-.34-1.809-.577-.357-1.016.377-1.016 1.699m-56.736.509c1.52.229 3.77.223 5-.014s-.014-.425-2.764-.418-3.756.202-2.236.432m-61.185 1.865c.048 1.165.285 1.402.604.605.289-.722.253-1.585-.079-1.917s-.568.258-.525 1.312m10.254-.083c0 .825.375 1.5.834 1.5s.833-.675.833-1.5-.375-1.5-.833-1.5c-.459 0-.834.675-.834 1.5m119.746.083c.048 1.165.285 1.402.604.605.289-.722.253-1.585-.079-1.917s-.568.258-.525 1.312m21.38-.516c-.363.586-.445 1.281-.183 1.543s.743-.218 1.069-1.067c.676-1.762.1-2.072-.886-.476m-105.209.622c.963.252 2.537.252 3.5 0 .963-.251.175-.457-1.75-.457s-2.713.206-1.75.457m9.123.516c-.27.437 3.248.759 7.818.716s7.859-.24 7.309-.438c-2.206-.791-14.668-1.02-15.127-.278m20.377-.543c.688.278 1.813.278 2.5 0 .688-.277.125-.504-1.25-.504s-1.937.227-1.25.504M.343 99.5c.003 4.4.179 6.076.39 3.724s.209-5.952-.006-8S.339 95.1.343 99.5M161.5 98c.34.55.816 1 1.059 1s.441-.45.441-1-.477-1-1.059-1-.781.45-.441 1m-15.791 1.82c-3.176 1.927-4.284 4.18-2.055 4.18 1.238 0 1.337.306.447 1.378-.904 1.089-.668 1.503 1.128 1.974 1.249.328 2.43.131 2.625-.439.203-.593 1.162-.303 2.25.681 1.938 1.754 2.661 3.997.947 2.938-.521-.323-.28 1.376.538 3.774.848 2.491 2.115 4.361 2.952 4.361 1.204 0 1.16-.34-.242-1.89-1.483-1.638-1.529-2.18-.344-4.083 1.234-1.981 1.21-2.065-.245-.863-1.442 1.192-1.55.958-1.031-2.241.357-2.201.099-4.152-.672-5.082-.862-1.038-.902-1.508-.129-1.508.617 0 1.115-.787 1.107-1.75-.013-1.496-.157-1.532-.985-.25-.854 1.321-1.405.767-1.15-1.155.2-1.511-2.669-1.525-5.141-.025m-113.63 1.763c.048 1.165.285 1.402.604.605.289-.722.253-1.585-.079-1.917s-.568.258-.525 1.312M157 101.559c0 .857.45 1.281 1 .941s1-1.041 1-1.559-.45-.941-1-.941-1 .702-1 1.559m4.543-.628c-.317.512-.118 1.213.441 1.559s1.016-.074 1.016-.931c0-1.757-.6-2.015-1.457-.628m-5.043 6.154c0 3.436.109 3.513 1.444 1.02.723-1.351.661-2.188-.215-2.915-.924-.767-1.229-.297-1.229 1.895m4.5-2.144c0 .518.45 1.219 1 1.559s1-.084 1-.941-.45-1.559-1-1.559-1 .423-1 .941m-119.272 1.992c-.297 1.136-.129 2.319.373 2.629 1.312.812 2.358-2.503 1.166-3.695q-.999-.997-1.539 1.066m3.646 1.599c.391 1.018-.244 1.848-1.893 2.475-3.053 1.161-3.192 2.795-.327 3.854 1.76.651 2.154 1.605 2.155 5.218 0 3.317-.413 4.502-1.654 4.744-2.194.429-2.137 1.994.066 1.816 1.428-.115 1.722.76 1.725 5.132.003 3.859.346 5.139 1.279 4.781 1.978-.759 1.524.795-1.475 5.048-2.361 3.348-2.743 4.856-2.703 10.65.025 3.713-.252 6.75-.616 6.75s-.332 1.81.073 4.022c.404 2.211.344 4.263-.134 4.559-.479.295-.87 1.95-.87 3.678 0 1.973.351 2.788.943 2.191.519-.523 1.236-5.45 1.592-10.95.408-6.292 1.163-10.577 2.036-11.556 1.191-1.336 1.144-1.801-.336-3.28-1.631-1.631-1.603-1.755.521-2.31 1.491-.39 2.244-1.346 2.244-2.848 0-1.244.675-2.821 1.5-3.506s1.52-2.427 1.545-3.872c.025-1.446.594-3.913 1.265-5.483l1.219-2.854 4.899 7.104c2.694 3.908 5.102 7.105 5.35 7.105.249 0-.311-1.164-1.243-2.587-.932-1.422-1.409-2.872-1.061-3.221s1.042.024 1.539.829c1.325 2.144 3.032.019 3.308-4.118.125-1.872.615-4.022 1.09-4.779 1.237-1.972 1.447-9.397.308-10.874-.53-.687-.571-1.257-.091-1.265.479-.009.225-.425-.565-.925-.957-.605-2.745-.243-5.347 1.085-2.15 1.097-4.166 1.738-4.48 1.425-.313-.314.011-.57.72-.57 2.206 0-.837-2.891-6.407-6.085-5.728-3.286-7.016-3.574-6.175-1.383m-9.374.527c0 .582.45.781 1 .441s1-.816 1-1.059-.45-.441-1-.441-1 .477-1 1.059M161.5 109c-.34.55-.141 1 .441 1s1.059-.45 1.059-1-.198-1-.441-1-.719.45-1.059 1m-22.5 1.188c-5.981 2.517-6.958 3.254-7.9 5.955-.548 1.572-.618 2.857-.156 2.857s1.148 1.23 1.525 2.734c.674 2.682.73 2.643 3.015-2.097 1.28-2.657 3.579-6.137 5.109-7.734 2.922-3.05 2.544-3.457-1.593-1.715m4.334 1.097c-4.514 2.532-8.934 10.963-7.598 14.493 1.466 3.871 2.751 4.089 6.707 1.14 5.85-4.362 7-6.435 5.533-9.976-.67-1.618-1.667-2.942-2.214-2.942s-.76-.9-.472-2c.287-1.1.452-1.984.366-1.965-.086.02-1.131.582-2.322 1.25m13.535-.094c-.519 1.221-.409 9.809.125 9.809 1.444 0 1.842-1.302 1.042-3.405-.469-1.234-.436-2.916.076-3.831.572-1.021.535-1.864-.1-2.256-.556-.344-1.071-.487-1.143-.317m5.21 1.392c.048 1.165.285 1.402.604.605.289-.722.253-1.585-.079-1.917s-.568.258-.525 1.312M37.5 113c.34.55.816 1 1.059 1s.441-.45.441-1-.477-1-1.059-1-.781.45-.441 1m-.801 3.958c.655 2.502 2.301 3.735 2.301 1.723 0-.79-.64-1.967-1.421-2.616-1.167-.968-1.325-.808-.88.893M162.061 118c0 2.855.188 3.178 1.019 1.75.692-1.189.692-2.311 0-3.5-.831-1.428-1.019-1.105-1.019 1.75m-120.306.5c-.32 1.676-.029 2.5.884 2.5.785 0 1.361-1.058 1.361-2.5 0-1.375-.398-2.5-.883-2.5-.486 0-1.099 1.125-1.362 2.5m-9.676.083c.048 1.165.285 1.402.604.605.289-.722.253-1.585-.079-1.917s-.568.258-.525 1.312m69.421.431c-3.3.977-9.473 2.106-13.718 2.508-6.286.595-7.976 1.125-9.109 2.854-1.698 2.592-1.979 4.124-.756 4.124 2.182 0 2.182 1.508 0 1.579-1.33.043-1.852.307-1.161.585.691.279 1.002.918.691 1.421s-.088.915.494.915 1.059.477 1.059 1.059-.495.753-1.1.379c-.773-.477-.762-.049.035 1.441.625 1.167 1.57 2.121 2.1 2.121.531 0 .965.477.965 1.059s-.52.738-1.155.346c-.729-.451-.882-.274-.415.481.423.685 1.609.919 2.779.548 1.232-.391 1.8-.258 1.432.337-.654 1.059 4.656 2.625 7.718 2.277 1.023-.116 1.588.229 1.256.766s.092 1.243.943 1.57c.85.326 1.302.199 1.005-.282-.298-.482.129-1.431.948-2.111s1.509-.843 1.533-.363c.025.479.942-.829 2.04-2.909s1.726-4.217 1.397-4.75c-.33-.533-.219-.969.246-.969s1.938-3.262 3.274-7.25c1.335-3.987 2.837-7.812 3.336-8.5s.74-1.197.535-1.132-3.072.918-6.372 1.896m-49.764 1.584c-.329.329-.32 1.341.02 2.25.53 1.415.385 1.462-1.009.329-1.469-1.194-1.512-1.073-.437 1.242 1.253 2.701 3.318 3.659 2.328 1.081-1.009-2.629-.069-1.642 3.836 4.027 2.093 3.039 4.003 5.33 4.243 5.089s-1.607-3.245-4.105-6.678-4.306-6.624-4.018-7.09c.601-.973.031-1.139-.858-.25m102.295-.098c0 .55.436 1.675.969 2.5s.969 1.05.969.5-.436-1.675-.969-2.5-.969-1.05-.969-.5m2.758 3.2c-.264 1.008-.151 2.725.251 3.816.656 1.78.807 1.694 1.472-.839.421-1.601.312-3.253-.251-3.816-.657-.657-1.155-.374-1.472.839m5.29-.117c.048 1.165.285 1.402.604.605.289-.722.253-1.585-.079-1.917s-.568.258-.525 1.312m-13.579.82c-4.023 1.775-6.339 4.543-7.136 8.527-.622 3.109-.54 3.234 1.432 2.179 1.151-.616 2.374-1.575 2.717-2.131.344-.556.932-.826 1.306-.599.687.415 3.028-1.689 3.452-3.103.126-.419.792-.633 1.479-.475s1.25-.183 1.25-.757-.506-.932-1.125-.794-1.352-.375-1.63-1.139-.071-1.122.459-.794c.529.327.963-.06.963-.861s-.038-1.438-.084-1.417c-.046.022-1.433.635-3.083 1.364M120 126c.589 1.1 1.295 2 1.57 2s.019-.9-.57-2-1.295-2-1.57-2-.019.9.57 2m-42.493.989c-.35.566.051.734.941.393 1.732-.665 2.049-1.382.611-1.382-.518 0-1.216.445-1.552.989m-40.048 3.078c-.363.586-.445 1.281-.183 1.543s.743-.218 1.069-1.067c.676-1.762.1-2.072-.886-.476m4.235-.428c-.799.799.104 2.361 1.365 2.361.518 0 .941-.675.941-1.5 0-1.546-1.18-1.987-2.306-.861m74.077 3.616c-3.701 2.266-6.54 4.31-6.308 4.542.232.231 1.685-.43 3.229-1.471 1.545-1.04 4.496-2.657 6.558-3.593 2.063-.935 3.75-2.158 3.75-2.717 0-1.287.608-1.56-7.229 3.239M162 130.5c0 .825.436 1.5.969 1.5s.709-.675.393-1.5c-.317-.825-.753-1.5-.969-1.5s-.393.675-.393 1.5m-3.921 1.083c.048 1.165.285 1.402.604.605.289-.722.253-1.585-.079-1.917s-.568.258-.525 1.312m-109.734.96c-.326.849-.369 1.767-.096 2.04.274.273.737-.422 1.03-1.543.624-2.383-.069-2.751-.934-.497m99.057 2.21c-2.254 2.061-4.729 4.604-5.5 5.652-1.362 1.85-1.311 1.857 1.798.25 3.549-1.835 7.774-2.231 6.788-.636-.854 1.382-10.046 5.981-11.955 5.981-.843 0-1.533.498-1.533 1.107 0 .662.703.817 1.75.387 3.563-1.467 5.25-1.701 5.25-.727 0 .55-1.01 1.264-2.244 1.587-2.076.542-2.122.709-.612 2.219 1.16 1.159 2.317 1.4 3.994.832 1.299-.441 2.7-.712 3.112-.603s.75-.272.75-.846.563-.971 1.25-.881c3.566.463 4.465-.116 3.995-2.575-.331-1.728-1.137-2.505-2.612-2.517-1.827-.014-1.667-.315 1.117-2.098 1.787-1.145 3.25-2.514 3.25-3.042 0-.529-.445-.686-.989-.35-.566.35-.734-.051-.393-.941.339-.882.067-1.552-.628-1.552-.766 0-1.044-.935-.745-2.5.67-3.506-1.04-3.14-5.843 1.253m12.171 2.747c.294 2.2.798 4.893 1.122 5.984.552 1.861.642 1.836 1.468-.396.484-1.308.645-2.613.358-2.9-.286-.287-.565.116-.619.895-.054.78-.72-.608-1.48-3.083l-1.382-4.5zm2.585-1.5c0 1.375.227 1.938.504 1.25.278-.687.278-1.812 0-2.5-.277-.687-.504-.125-.504 1.25M42 136.5c0 .825.45 1.5 1 1.5s1-.675 1-1.5-.45-1.5-1-1.5-1 .675-1 1.5m.667 4.167c-.367.366-.667 1.131-.667 1.7 0 .626.466.567 1.183-.15.651-.651.951-1.416.667-1.7s-.817-.217-1.183.15m73.622 5.573c-2.317 1.164-4.427 2.678-4.69 3.364-.941 2.451 3.265 14.295 6.113 17.217.708.727 1.288 1.692 1.288 2.143 0 .452.624 1.061 1.387 1.354.957.368 1.238-.037.906-1.307-.308-1.177.276-2.245 1.622-2.966 1.833-.98 2.232-.79 3.094 1.48.545 1.433.991 3.048.991 3.59 0 1.567 3.031 7.004 5.18 9.291 1.562 1.664 1.415.991-.717-3.272-1.476-2.951-2.92-7.124-3.209-9.274-.575-4.29-1.824-5.69-3.541-3.973-1.708 1.708-2.403 1.336-2.129-1.137.371-3.35.378-3.359 1.32-1.872 1.193 1.885 3.113.495 3.02-2.187-.132-3.795-2.583-9.196-4.121-9.08-.808.061-1.47-.481-1.47-1.206 0-.724.42-1.058.933-.74.514.317.423-.378-.201-1.544-.625-1.167-1.232-2.093-1.35-2.059s-2.11 1.014-4.426 2.178m45.906 2.26c.02 1.65.244 2.204.498 1.231s.237-2.323-.037-3-.481.119-.461 1.769M117 152.154c0 2.033 3.587 5.219 4.937 4.385 1.386-.857 1.37-4.231-.024-5.093-.598-.369-1.611-.105-2.25.588-.916.993-.738 1.11.837.554 1.651-.583 1.77-.478.683.603s-1.569.969-2.75-.632c-1.113-1.508-1.433-1.598-1.433-.405M58 153.5c0 .825.375 1.5.833 1.5.459 0 .834-.675.834-1.5s-.375-1.5-.834-1.5-.833.675-.833 1.5m79 .196c0 .115.523 1.358 1.162 2.761 1.449 3.179.429 4.388-1.913 2.269-1.63-1.476-1.847-1.417-2.884.78-.951 2.016-.777 2.697 1.15 4.508l2.27 2.133 2.108-2.262c1.159-1.244 2.125-1.84 2.147-1.324.022.517.708-.293 1.525-1.798s2.937-3.518 4.71-4.472c2.676-1.439 2.885-1.774 1.225-1.97-3.449-.408-11.5-.845-11.5-.625m-30.718 5.937c.318 1.577.872 3.767 1.232 4.867.574 1.757.4 1.713-1.43-.361-1.146-1.298-2.084-1.825-2.084-1.17 0 2.077 11.673 18.275 18.038 25.031l6.123 6.5-6.581-7.782c-3.619-4.28-6.58-8.183-6.58-8.673s-1.165-2.276-2.589-3.968-2.283-3.077-1.91-3.077 1.523 1.012 2.555 2.25c1.605 1.924 1.882 1.996 1.911.5.018-.963-.529-1.757-1.217-1.765-.923-.012-.897-.24.102-.872 1.071-.679.916-1.162-.744-2.325-1.152-.807-1.798-1.765-1.435-2.128s.135-.66-.506-.66c-.642 0-1.167-1.25-1.167-2.778 0-1.604-.908-3.555-2.148-4.617-2.135-1.828-2.145-1.821-1.57 1.028m-51.203-.05c.048 1.165.285 1.402.604.605.289-.722.253-1.585-.079-1.917s-.568.258-.525 1.312m10.116.917c.02 1.65.244 2.204.498 1.231s.237-2.323-.037-3-.481.119-.461 1.769M47.5 162c-.995 1.1-1.36 2-.81 2s1.815-.9 2.81-2 1.36-2 .81-2-1.815.9-2.81 2m83.137 1.696c-1.453 1.454-.55 7.073 1.424 8.859 1.764 1.597 2.194 1.655 2.985.405.508-.803.965-1.685 1.015-1.96.051-.275.242-1.285.426-2.245.351-1.829-4.707-6.202-5.85-5.059M155 166c-.589 1.1-.845 2-.57 2s.981-.9 1.57-2 .845-2 .57-2-.981.9-1.57 2m-47 1.893c0 .491.739 1.176 1.641 1.523 1.373.527 1.435.38.378-.893-1.44-1.735-2.019-1.916-2.019-.63m14 .274c0 .458.675.833 1.5.833s1.5-.375 1.5-.833c0-.459-.675-.834-1.5-.834s-1.5.375-1.5.834M52 171c1.426.921.659 1.457-1.5 1.047-.55-.104-.437.382.25 1.082.918.933 1.546.975 2.363.158 1.26-1.26.376-3.295-1.422-3.272-.716.01-.592.403.309.985m25.25-.338c-1.443.583-1.685 3.951-.343 4.78.498.309.667-.452.375-1.691-.479-2.028-.396-2.087.843-.592.762.92 3.269 1.823 5.625 2.027 3.801.328 4.25.139 4.25-1.793 0-1.394-.797-2.373-2.25-2.763-2.626-.704-6.715-.688-8.5.032m17.945 2.838c.02 1.65.244 2.204.498 1.231s.237-2.323-.037-3-.481.119-.461 1.769m22.138-.903c0 .937.372 1.062 1.176.396.646-.537 1.359-.867 1.583-.734.224.132.282.04.129-.205-.691-1.103-2.888-.69-2.888.543M115 176c0 .55.338 1.001.75 1.003.412.001 1.612 1.29 2.666 2.863 2.408 3.594 5.251 5.534 5.251 3.582 0-.748-.375-1.128-.834-.845s-.833.105-.833-.396c0-.95-5.651-7.207-6.509-7.207-.27 0-.491.45-.491 1m-40.636 2.506c3.611 1.883 4.636 1.882 4.636-.006 0-1.068-1.081-1.498-3.75-1.494l-3.75.006zm11.886-.8c-1.237.238-2.25.872-2.25 1.409 0 1.007 5.791.279 9.5-1.194 1.542-.612 1.199-.778-1.5-.721-1.925.04-4.513.267-5.75.506m7.25 1.372c-3.3 1.042-6.787 1.901-7.75 1.908-.963.008-1.75.464-1.75 1.014s.628 1 1.395 1c2.426 0 14.494-4.012 15.122-5.027.779-1.26.164-1.164-7.017 1.105M80 179c0 .55.423 1 .941 1s1.219-.45 1.559-1-.084-1-.941-1-1.559.45-1.559 1m20.637 1.246c-2.144.746-2.521 1.213-1.5 1.86 1.013.642.815.867-.772.879-2.579.018-12.486 3.018-13.815 4.183-1.451 1.271 3.696 1.001 11.742-.616 3.964-.797 8.481-1.585 10.037-1.75l2.829-.302-2.829-2.625c-2.436-2.261-3.227-2.487-5.692-1.629m-26.344 1.382c2.086.891 4.073 1.339 4.416.996.939-.939.179-1.298-4.209-1.988l-4-.628zm6.26.287a1.116 1.116 0 0 0 .362 1.532c.521.322 1.21.159 1.532-.362a1.116 1.116 0 0 0-.362-1.532 1.116 1.116 0 0 0-1.532.362M75.5 186c2.749 1.181 4.328 1.181 2.5 0-.825-.533-2.175-.945-3-.914-.989.036-.819.347.5.914m25.5 2.08c-7.016 1.466-7.525 1.685-2.918 1.254 3.07-.287 7.232-.569 9.25-.626 3.383-.096 4.726-1.015 2.918-1.997-.412-.224-4.575.392-9.25 1.369"/><path fill-opacity=".514" fill-rule="evenodd" d="M87.5 1.142C65.288 3.964 45.317 13.949 29.35 30.216c-8.921 9.089-17.587 21.462-16.79 23.973.372 1.172.07 1.811-.857 1.811C10.256 56 7 63.119 7 66.283 7 67.228 6.598 68 6.108 68 4.57 68 1.58 82.171 1.539 89.655c-.021 3.934-.376 6.945-.789 6.69-.412-.254-.75.239-.75 1.096S.45 99 1 99c1.447 0 1.231 3.739-.25 4.341-.83.336-.906.785-.226 1.333.564.454 1.14 3.976 1.281 7.826.318 8.649 2.434 17.109 4.18 16.707.832-.191 1.085.416.733 1.762-1.006 3.847 6.638 20.81 9.135 20.272 1.246-.269 1.558.339 2.597 5.066.506 2.302.995 2.687 2.719 2.139 1.841-.584 2.026-.359 1.483 1.803-.44 1.754-.042 2.993 1.37 4.271 1.095.991 2.325 1.442 2.734 1.004.409-.439.179-1-.512-1.246-.691-.247-.998-.868-.681-1.38 1.01-1.634 2.437.125 2.437 3.006 0 1.532.851 3.556 1.892 4.498 1.835 1.661 1.88 1.559 1.522-3.421-.27-3.74-.037-5.022.858-4.723.777.26 1.228 2.48 1.228 6.04 0 4.071.494 6.124 1.786 7.416 1.559 1.559 1.907 1.595 2.735.286.76-1.203.951-1.049.964.775.01 1.498.868 2.599 2.515 3.225 1.375.523 2.5 1.315 2.5 1.76 0 .761 5.197 4.24 6.334 4.24.29 0 .175-1.238-.256-2.75-.43-1.513-.659-3.563-.51-4.556.219-1.455-.004-1.577-1.148-.627-1.122.931-1.42.855-1.42-.363 0-.847.294-2.307.654-3.244.588-1.533.814-1.491 2.257.422 1.583 2.099 1.619 2.101 2.831.159 1.056-1.69.996-1.878-.421-1.334-1.194.458-1.423.268-.831-.692.57-.921.435-1.087-.443-.544-.936.578-1.079.206-.555-1.445.388-1.224.827-3.193.975-4.376.148-1.182.739-3.275 1.313-4.65s2.036-5.088 3.248-8.25 2.554-5.75 2.981-5.75c1.423 0 2.042 3.234.886 4.627-.627.755-.747 1.38-.267 1.388.479.009.197.452-.628.985-1.295.837-1.271.971.177.985.922.008 1.882-.772 2.134-1.735.251-.963.565.387.698 3 .442 8.713 1.43 9.924 2.487 3.046.635-4.135.855-4.481 1.6-2.514.944 2.497-1.108 8.668-7.472 22.468-3.439 7.458-5.671 10.634-3.547 5.048 1.018-2.677 1.008-2.685-1.025-.845-1.129 1.021-2.052 2.148-2.052 2.503 0 1 8.816 5.044 10.997 5.044 1.069 0 4.32 1.074 7.223 2.387 6.791 3.071 13.137 4.373 24.847 5.097l9.433.583-6.5-2.517c-3.575-1.385-7.967-2.801-9.761-3.147s-3.469-.966-3.722-1.376c-.254-.411 2.113-.183 5.261.506 9.414 2.062 12.618 2.53 11.817 1.727-.417-.418-2.409-1.275-4.427-1.905-3.155-.985-3.318-1.17-1.168-1.32 1.375-.097 3.4-.553 4.5-1.015 1.217-.511-.937-.67-5.5-.408-9.389.541-7.133-.974 4.5-3.023 4.4-.775 6.875-1.45 5.5-1.499s-6.027.585-10.338 1.41C84.92 189.364 84 189.364 84 187.5c0-.825.563-1.507 1.25-1.515q1.248-.017-.25-.977c-.825-.53-2.287-.717-3.25-.418-1.475.459-1.75-.114-1.75-3.639 0-3.61.259-4.116 1.889-3.69 1.039.272 2.502.106 3.25-.368.864-.547-.558-.868-3.889-.878-4.807-.014-5.25-.209-5.25-2.315 0-1.265.473-2.773 1.051-3.351.735-.735-.092-2.056-2.75-4.392l-3.801-3.341.243-9.003c.274-10.143 1.719-22.9 3.228-28.504l1.008-3.744 8.309-.114c7.365-.101 17.925-1.845 22.973-3.794 1.341-.517 1.614-.295 1.143.932-.34.886-.366 1.611-.058 1.611.73 0 4.673-8.915 4.591-10.377-.035-.618-.471-.11-.968 1.127-.856 2.13-1.457 2.25-11.227 2.25-11.373 0-19.002-1.578-26.846-5.553-6.273-3.179-13.444-10.219-15.825-15.537l-1.794-4.008-.529 3.943c-.725 5.399.763 12.693 3.783 18.55 1.59 3.083 1.95 4.419.974 3.609-1.308-1.085-1.452-1.029-.921.355.778 2.027.656 2.032 4.636-.195 3.222-1.803 3.319-1.798 5.454.25 1.838 1.764 3.229 8.041 2.346 10.586-.376 1.084-1.035 4.692-1.554 8.5-.299 2.2-.951 4.142-1.449 4.315s-.674.915-.393 1.648c1.227 3.197-1.614 2.151-4.016-1.479-3.67-5.546-4.138-4.996-.651.766 1.581 2.613 3.164 5.875 3.519 7.25s-.69.143-2.322-2.738c-2.437-4.304-8.627-13.5-11.078-16.458-.597-.721-1.15 2.961-1.42 9.458-.108 2.613-.69 3.931-1.906 4.317-.962.306-1.75.953-1.75 1.439 0 .485.788 1.341 1.75 1.902 1.08.629 1.249 1.031.441 1.05-.72.016-1.01.515-.644 1.107.447.723-.438.904-2.691.551l-3.356-.525 2.38 1.801 2.38 1.801-2.216 1.552c-1.858 1.301-2.035 1.891-1.095 3.648.618 1.155.704 2.095.191 2.095-.511 0-1.097 1.756-1.302 3.902l-.372 3.903 2.737-1.949c1.505-1.072 3.002-2.378 3.326-2.903s1.082-.953 1.685-.953c.609 0 .392.778-.488 1.75-1.597 1.765-1.726 2.112-1.726 4.643 0 .766-.725 1.671-1.611 2.011-1.153.443-1.447.189-1.032-.893.319-.831.16-1.511-.353-1.511-1.374 0-3.004 3.491-3.004 6.434 0 1.514-.565 2.566-1.379 2.566-1.107 0-1.192-.876-.429-4.453.523-2.449.76-5.712.529-7.25-.309-2.052-.461-1.68-.571 1.394-.083 2.305-.631 4.488-1.218 4.851-.588.363-.839 1.257-.56 1.986.28.729-.084 1.818-.809 2.42-1.006.835-1.444.616-1.847-.926-.291-1.111-.113-2.277.394-2.59.508-.314.64-1.027.295-1.585s-.834-4.915-1.087-9.681c-.453-8.524-2.004-13.523-2.173-7-.169 6.537-.661 9.175-1.78 9.547-.72.239-1.057-.828-.92-2.918.119-1.812-.241-3.892-.8-4.621-.719-.939-.596-1.592.419-2.235 1.169-.739 1.1-.911-.373-.924-.995-.008-1.531-.465-1.191-1.015s.141-1-.441-1-1.059.45-1.059 1-.73 1-1.622 1c-1.233 0-1.359-.318-.524-1.324.652-.786.733-1.7.199-2.25-1.405-1.447-.046-6.637 1.575-6.015.754.289 1.372-.093 1.372-.849 0-.837-.712-1.189-1.82-.899-1.722.451-1.817-.739-1.75-22.048.066-21.321.177-22.603 2.068-23.988 1.1-.805 1.662-1.8 1.25-2.212s-.748-.197-.748.477-.45.948-1 .608c-1.747-1.08-1.077-3.5.969-3.5 1.262 0 1.778-.495 1.439-1.379-.291-.758-1.241-1.321-2.111-1.25-2.443.199-2.79-2.429-.402-3.054 1.446-.378 2.105-1.349 2.105-3.1 0-4.074 1.132-1.82 1.993 3.968.763 5.135.79 5.044.786-2.685-.006-11.305-.299-10.61 4.042-9.577.177.043-.385.784-1.25 1.648-1.908 1.908-1.913 2.393-.05 4.856 2.193 2.899 2.905 1.23 2.79-6.539-.076-5.107.271-7.174 1.267-7.556 1.119-.43 1.077-.819-.226-2.123-1.308-1.307-1.348-1.698-.225-2.153.755-.306 1.48-1.569 1.611-2.806.253-2.389-1.227-3.102-2.076-1-.318.789-.533.645-.583-.393C37.014 53.495 38.847 52 40.582 52c.23 0 .418 2.7.418 6s.413 6 .918 6c1.997 0 4.039-1.261 3.487-2.153-.349-.565-1.15-.474-1.994.227-1.137.944-1.411.77-1.411-.893 0-2.317 1.622-3.816 2.212-2.044.286.856.963.84 2.65-.063 1.9-1.017 2.06-1.463.99-2.752-1.059-1.276-.952-1.776.627-2.93C49.526 52.626 50.746 52 51.191 52s.809-.873.809-1.941.435-2.21.967-2.539.701-1.93.375-3.559C52.88 41.651 53.108 41 54.375 41c.894 0 1.625.702 1.625 1.559s.45 1.281 1 .941 1-2.391 1-4.559S58.45 35 59 35s1 1.302 1 2.893c0 1.681.644 3.14 1.538 3.483 1.736.666 2.977-1.592 2.113-3.844-.728-1.896 1.323-3.192 2.37-1.498.626 1.012 1.175.913 2.55-.463 1.376-1.375 1.475-1.924.463-2.55C67.487 32.065 68.53 30 70.559 30c.793 0 1.441.9 1.441 2s.408 2 .906 2 .673-.895.387-1.988c-.734-2.808 2.562-3.931 4.352-1.483.745 1.019 1.355 1.317 1.355.662S79.9 30 81 30c1.849 0 2.402-1.158 2.269-4.75-.058-1.55 1.375-1.636 2.3-.138.378.611.069 1.494-.686 1.96-1.107.684-.986 1.142.622 2.357 2.29 1.731 3.495 1.963 3.495.674 0-.494 1.463-.832 3.25-.75 2.944.133 3.225-.101 2.98-2.488-.167-1.628.311-2.859 1.25-3.219 1.082-.415 1.52.064 1.52 1.663 0 1.236.787 2.909 1.75 3.719 1.751 1.473 8.022 1.849 10.04.602a1.254 1.254 0 0 1 1.725.394c.359.582 1.515.784 2.569.449 1.205-.382 1.959-.119 2.031.71.064.724.22 1.767.348 2.317s.301 1.563.385 2.25c.083.688.65 1.25 1.259 1.25.611 0 .828-.728.483-1.626-.576-1.5-.431-1.5 1.863.003 2.109 1.382 2.399 1.402 1.91.126-.882-2.298 2.242-1.844 4.58.666 1.525 1.637 1.75 2.496.917 3.5-.827.996-.76 1.36.268 1.446.754.064 1.822.22 2.372.348s1.878.301 2.95.385c1.455.113 1.662.44.814 1.288-.847.847-.789 1.482.229 2.5C136.091 47.233 138 47.432 138 46c0-.55.431-1 .958-1s.832 1.598.678 3.551.09 3.78.542 4.059.822-.842.822-2.492.45-3.278 1-3.618c.913-.564 1.388 1.027 1.269 4.25-.026.688.316 1.25.759 1.25s.68 1.587.526 3.526c-.278 3.507 1.084 5.678 2.314 3.687.427-.69 1.299-.564 2.579.372 1.065.778 1.624 1.471 1.244 1.54s-1.141.181-1.691.25a1.04 1.04 0 0 0-.9 1.125c.055.55.56.869 1.123.709s.762.388.443 1.218c-.318.83-.148 1.775.378 2.1s.956 1.422.956 2.438c0 1.319.541 1.706 1.887 1.354 1.038-.271 2.19-.004 2.559.594.374.605-.019 1.087-.887 1.087-.857 0-1.559.661-1.559 1.469 0 .981.58 1.251 1.75.812 1.532-.574 1.579-.446.378 1.032-1.542 1.895-.171 2.33 1.639.52.89-.89 1.32-.771 1.807.5.352.917 1.267 1.667 2.033 1.667 1.058 0 1.393-1.683 1.393-7 0-4.519.399-7 1.125-7 .674 0 .938 1.103.658 2.75-.257 1.513-.179 4.1.174 5.75.352 1.65.329 4.459-.051 6.243-.381 1.784-.327 3.017.119 2.742.445-.276.684 1.089.53 3.033s.13 3.787.631 4.097c.525.325.45 1.119-.179 1.877-.8.964-.747 1.452.201 1.835 1.039.419 1.026.707-.065 1.472-.924.648-1.011 1.164-.274 1.62.595.368.928 1.988.74 3.601-.187 1.613-.007 2.726.401 2.474s.817-4.606.909-9.676.654-9.803 1.247-10.518c.776-.935.764-1.3-.044-1.3-.617 0-1.108-1.237-1.09-2.75.03-2.634.094-2.668 1.5-.809.807 1.068 1.468 1.491 1.468.941s-.661-1.873-1.468-2.941c-2.017-2.667-1.891-4.441.316-4.441 1.603 0 1.876.932 2.053 7 .152 5.183-.134 7.004-1.098 7.015-1.054.013-1.05.176.021.855.925.587 1.252 2.841 1.083 7.485-.132 3.655.06 6.945.426 7.312.367.366.719-.196.782-1.25.257-4.272.454-4.732 2.135-4.981 1.21-.179 1.745.407 1.735 1.902-.013 1.763-.195 1.885-.985.662-.774-1.198-.996-.997-1.1 1-.072 1.375-.05 3.287.048 4.25.11 1.08-.517 1.762-1.635 1.78-1.718.029-1.715.088.056 1.117 1.384.804 2.065.768 2.625-.137.539-.873.952-.906 1.44-.117.376.609.256 1.107-.268 1.107-.523 0-.83 2.25-.681 5s-.125 5-.608 5c-.482 0-.877 1.35-.877 3 0 3.021-1.401 4.07-2.338 1.75-.38-.942-.524-.951-.583-.035-.116 1.791 3.642 3.612 4.186 2.027.234-.683.404 1.504.376 4.861-.045 5.61-.215 6.068-2.095 5.674-1.953-.409-1.943-.338.204 1.557 2.063 1.822 3.245 4.856 1.5 3.853-.412-.237-1.569.366-2.57 1.341-1.761 1.715-1.761 1.768 0 1.623 1.001-.083 2.085-.51 2.408-.948.324-.439 1.175-.091 1.892.773 1.094 1.318 1.06 1.477-.21.989-.888-.34-1.776.109-2.153 1.09-.52 1.356-.921 1.438-2.129.435-1.263-1.048-1.488-.764-1.488 1.888 0 1.717.45 3.122 1 3.122s1-.375 1-.833c0-.459.675-.834 1.5-.834s1.5.627 1.5 1.393c0 .765-.45 1.114-1 .774s-1-.141-1 .441-.635 1.059-1.411 1.059c-1.631 0-2.482 8.914-1.481 15.5.572 3.761.617 3.806.75.75.148-3.385 1.756-4.483 2.319-1.582.451 2.327 8.823-8.65 8.823-11.569 0-1.22.427-1.953.95-1.63 1.838 1.136 3.55-4.045 3.624-10.969.041-3.85.492-6.876 1.001-6.724s.925 1.796.925 3.655c0 4.659 1.05 5.299 2.389 1.458.616-1.767.897-3.436.624-3.709s-.044-1.04.508-1.705c.696-.839.517-1.613-.585-2.528-1.024-.85-1.828-.96-2.262-.31-.371.555-1.41 1.28-2.309 1.61-1.424.524-1.492.225-.53-2.323.796-2.11.802-3.723.02-5.795-.984-2.606-.903-2.824.874-2.359 1.565.409 1.878 1.188 1.563 3.888-.243 2.079.009 3.234.657 3.005.578-.204.92-1.104.761-2.001-.192-1.079.206-1.44 1.177-1.067 1.109.426 1.324.018.883-1.672-.404-1.543-.226-2.014.572-1.52 1.5.926 1.486 3.869-.025 5.38-.651.651-.869 1.499-.484 1.884 2.865 2.864 5.17-10.866 5.164-30.759-.005-17.446-1.555-27.207-4.162-26.206-.734.281-1.335.051-1.335-.512s.524-1.198 1.165-1.412c.796-.265.271-2.667-1.658-7.583-1.553-3.957-2.876-7.195-2.941-7.195-.121 0 .171 8.844.34 10.309.052.445.544.531 1.094.191s1-.141 1 .441S191.295 68 190.433 68c-1.072 0-1.381.587-.979 1.855.324 1.02.158 2.933-.369 4.25-.697 1.742-.984-.878-1.053-9.605-.099-12.388-1.302-16.83-3.867-14.265-.887.887-1.165.373-1.165-2.151 0-4.183-4.318-10.178-14.158-19.656-16.538-15.931-34.787-24.577-57.816-27.392-9.608-1.175-13.584-1.157-23.526.106M74.079 19.583c.048 1.165.285 1.402.604.605.289-.722.253-1.585-.079-1.917s-.568.258-.525 1.312M104.5 20c-.34.55-.141 1 .441 1S106 20.55 106 20s-.198-1-.441-1-.719.45-1.059 1M74 25.226c0 .858.739 1.843 1.641 2.19 1.429.548 1.466.4.283-1.143a89 89 0 0 1-1.641-2.19c-.156-.229-.283.286-.283 1.143m5 .833c0 1.132.45 1.781 1 1.441s1-1.266 1-2.059S80.55 24 80 24s-1 .927-1 2.059m20-.559c0 .825.45 1.5 1 1.5s1-.675 1-1.5-.45-1.5-1-1.5-1 .675-1 1.5m11.158.5c0 1.375.227 1.938.504 1.25.278-.687.278-1.812 0-2.5-.277-.687-.504-.125-.504 1.25m4.921-.417c.048 1.165.285 1.402.604.605.289-.722.253-1.585-.079-1.917s-.568.258-.525 1.312m4.921-.142c0 .857.45 1.559 1 1.559s1-.423 1-.941-.45-1.219-1-1.559-1 .084-1 .941M42.5 26c-.34.55-.141 1 .441 1S44 26.55 44 26s-.198-1-.441-1-.719.45-1.059 1m99 0c.34.55.816 1 1.059 1s.441-.45.441-1-.477-1-1.059-1-.781.45-.441 1M120 31c0 1.1.45 2 1 2s1-.9 1-2-.45-2-1-2-1 .9-1 2m6 .059c0 1.132.43 1.793.956 1.468s.703-1.252.393-2.059c-.793-2.067-1.349-1.824-1.349.591m15.731-.139c-.435 1.663-.305 2.054.437 1.312.582-.582.86-1.647.62-2.369-.25-.749-.703-.295-1.057 1.057m-83.093.58c.317.825.753 1.5.969 1.5s.393-.675.393-1.5-.436-1.5-.969-1.5-.709.675-.393 1.5M162 31.5c0 .825.45 1.5 1 1.5s1-.675 1-1.5-.45-1.5-1-1.5-1 .675-1 1.5M42 32c0 .55.45 1 1 1s1-.45 1-1-.45-1-1-1-1 .45-1 1m104.5 0c-.34.55-.141 1 .441 1S148 32.55 148 32s-.198-1-.441-1-.719.45-1.059 1M32.158 37c0 1.375.227 1.938.504 1.25.278-.687.278-1.812 0-2.5-.277-.687-.504-.125-.504 1.25M141 36.441c0 .793.45 1.719 1 2.059s1-.309 1-1.441S142.55 35 142 35s-1 .648-1 1.441M42 37.5c0 .825.45 1.5 1 1.5s1-.675 1-1.5-.45-1.5-1-1.5-1 .675-1 1.5m120.079.083c.048 1.165.285 1.402.604.605.289-.722.253-1.585-.079-1.917s-.568.258-.525 1.312M167 37.5c0 .825.436 1.5.969 1.5s.709-.675.393-1.5c-.317-.825-.753-1.5-.969-1.5s-.393.675-.393 1.5m6.079.083c.048 1.165.285 1.402.604.605.289-.722.253-1.585-.079-1.917s-.568.258-.525 1.312M55.5 39c.34.55.816 1 1.059 1s.441-.45.441-1-.477-1-1.059-1-.781.45-.441 1m55.764 1.718c1.52.229 3.77.223 5-.014s-.014-.425-2.764-.418-3.756.202-2.236.432m-89.185 1.865c.048 1.165.285 1.402.604.605.289-.722.253-1.585-.079-1.917s-.568.258-.525 1.312M32.158 43c0 1.375.227 1.938.504 1.25.278-.687.278-1.812 0-2.5-.277-.687-.504-.125-.504 1.25M42 43c0 1.1.45 2 1 2s1-.9 1-2-.45-2-1-2-1 .9-1 2m44.813-1.317c.721.289 1.584.253 1.916-.079s-.258-.568-1.312-.525c-1.165.048-1.402.285-.604.604m49.187.879c0 1.619.193 1.685 2.418.831 2.194-.842 1.978-1.938-.418-2.118-1.143-.086-2 .466-2 1.287m5.393-.091c.362 2.466 1.607 3.005 1.607.696 0-1.192-.41-2.167-.912-2.167-.501 0-.814.662-.695 1.471m5.53-1.221c-.618 2.02-.57 3.75.103 3.75.467 0 .782-.9.699-2-.129-1.707-.54-2.605-.802-1.75M26 43c0 .55.45 1 1 1s1-.45 1-1-.45-1-1-1-1 .45-1 1m141.5 0c.34.55.816 1 1.059 1s.441-.45.441-1-.477-1-1.059-1-.781.45-.441 1m-72.941 1.468c2.236 1.692 4.079 1.927 4.883.625.309-.498-.289-.684-1.328-.413-1.038.272-2.191.005-2.56-.593S94.373 43 93.75 43s-.259.661.809 1.468m32.941.167c6.432 5.662 7.9 6.76 5.737 4.291-1.24-1.416-2.139-2.766-1.996-3s.087-.329-.122-.211c-.21.118-1.335-.275-2.5-.873s-1.669-.691-1.119-.207M16 48.441c0 .857.45 1.559 1 1.559s1-.423 1-.941-.45-1.219-1-1.559-1 .084-1 .941m10.166-.565c-1.074.681-1.025.964.25 1.453 1.002.385 1.584.069 1.584-.86 0-1.7-.058-1.719-1.834-.593m5.913.707c.048 1.165.285 1.402.604.605.289-.722.253-1.585-.079-1.917s-.568.258-.525 1.312M42 47.941c0 .518.45 1.219 1 1.559s1-.084 1-.941S43.55 47 43 47s-1 .423-1 .941m104 0c0 .518.45 1.219 1 1.559s1-.084 1-.941S147.55 47 147 47s-1 .423-1 .941m16 .5c0 .857.45 1.559 1 1.559s1-.423 1-.941-.45-1.219-1-1.559-1 .084-1 .941m5 .559c0 1.1.45 2 1 2s1-.9 1-2-.45-2-1-2-1 .9-1 2m5.543-1.069c-.317.512-.118 1.213.441 1.559s1.016-.074 1.016-.931c0-1.757-.6-2.015-1.457-.628M178 48.5c0 .825.375 1.5.833 1.5.459 0 .834-.675.834-1.5s-.375-1.5-.834-1.5-.833.675-.833 1.5M47 49c0 .55.45 1 1 1s1-.45 1-1-.45-1-1-1-1 .45-1 1m17.459 2.067c-.363.586-.445 1.281-.183 1.543s.743-.218 1.069-1.067c.676-1.762.1-2.072-.886-.476M42 54.5c0 1.375.45 2.5 1 2.5s1-1.125 1-2.5-.45-2.5-1-2.5-1 1.125-1 2.5m104.75-1.923c-.412.416-.75 1.671-.75 2.79 0 1.471.302 1.731 1.094.939.601-.601.939-1.857.75-2.789s-.682-1.356-1.094-.94m21.5.085c-1.805.729-1.535 3.401.5 4.946 1.667 1.265 1.667 1.33 0 1.36-1.09.02-1.75.809-1.75 2.091 0 1.132.45 1.781 1 1.441s1 .057 1 .882-.457 1.783-1.016 2.128c-1.282.792-.297 2.49 1.443 2.49.956 0 1.355-2.161 1.48-8 .166-7.791-.05-8.39-2.657-7.338m6.75.14c0 .624-.675.876-1.5.56-.95-.365-1.5.013-1.5 1.031 0 .884.395 1.607.878 1.607 1.301 0 3.509-2.947 2.765-3.691-.354-.353-.643-.131-.643.493M16 53.941c0 .518.45 1.219 1 1.559s1-.084 1-.941S17.55 53 17 53s-1 .423-1 .941m5.667-.274c-.367.366-.667 1.131-.667 1.7 0 .626.466.567 1.183-.15.651-.651.951-1.416.667-1.7s-.817-.217-1.183.15m4.916.199c-.431.697-.513 1.537-.183 1.867.895.895 1.871-.421 1.387-1.871-.338-1.016-.574-1.016-1.204.004m5.417.693c0 .857.45 1.281 1 .941s1-1.041 1-1.559S33.55 53 33 53s-1 .702-1 1.559m125-.059c0 .825.45 1.5 1 1.5s1-.675 1-1.5-.45-1.5-1-1.5-1 .675-1 1.5m5 3.667c0 2.841.338 4.829.75 4.417 1.065-1.066 1.175-9.584.123-9.584-.48 0-.873 2.325-.873 5.167m16-3.726c0 .857.45 1.559 1 1.559s1-.423 1-.941-.45-1.219-1-1.559-1 .084-1 .941m5 3.059c0 2.475.381 4.5.846 4.5s.803-2.025.75-4.5c-.125-5.871-1.596-5.871-1.596 0M49 55c0 .55.45 1 1 1s1-.45 1-1-.45-1-1-1-1 .45-1 1m14 .107c-1.925.52-4.098 1.077-4.83 1.239-.731.162-1.699.891-2.149 1.62-.451.729-1.54 1.049-2.42.711-.881-.338-1.601-.164-1.601.386s.675 1.259 1.5 1.575 1.5 1.696 1.5 3.065c0 3.023 3.345 7.954 5.96 8.784 1.228.39 1.773 1.302 1.531 2.559-.415 2.153.555 2.338 6.836 1.3 2.754-.455 3.455-.895 2.5-1.568-.916-.645-.474-.798 1.423-.495 1.513.242 2.75.026 2.75-.481 0-.506.45-.642 1-.302s1 .115 1-.5.39-.877.866-.583c.477.295 1.672-.354 2.655-1.441.984-1.087 1.382-1.983.884-1.991s-.313-.391.411-.85c.725-.46 1.442-1.69 1.595-2.735.172-1.179 1.38-2.14 3.183-2.532 2.851-.619 2.839-.634-.603-.75-2.382-.08-3.926-.784-4.805-2.192C79.703 55.95 69.432 53.37 63 55.107m35.218 1.505c-7.69 3.91-8.269 9.626-1.697 16.737 2.913 3.151 4.019 3.732 6.102 3.209 1.645-.412 2.317-.271 1.902.402-.837 1.354 7.732 1.374 12.575.029 3.847-1.069 7.096-3.98 7.562-6.776 1.319-7.902 1.441-8.124 3.942-7.173 1.906.724 2.396.585 2.396-.681 0-1.082-.62-1.43-1.935-1.086-1.065.278-2.767-.076-3.783-.788-1.68-1.177-2.311-.537-6.964 7.061-3.19 5.208-4.684 8.532-3.968 8.825.633.259-.553.507-2.635.55-4.358.091-4.622 1.149 3.045-12.221 2.46-4.29 4.158-8.115 3.774-8.5s-4.375-.825-8.867-.978c-6.081-.207-9.005.148-11.449 1.39M29 57c0 .55.45 1 1 1s1-.45 1-1-.45-1-1-1-1 .45-1 1m-18 3.441c0 .857.45 1.559 1 1.559s1-.423 1-.941-.45-1.219-1-1.559-1 .084-1 .941m5.333.059c0 .825.375 1.5.834 1.5s.833-.675.833-1.5-.375-1.5-.833-1.5c-.459 0-.834.675-.834 1.5m5.746.083c.048 1.165.285 1.402.604.605.289-.722.253-1.585-.079-1.917s-.568.258-.525 1.312m5 0c.048 1.165.285 1.402.604.605.289-.722.253-1.585-.079-1.917s-.568.258-.525 1.312m2 0c.048 1.165.285 1.402.604.605.289-.722.253-1.585-.079-1.917s-.568.258-.525 1.312M32 60.5c0 .825.436 1.5.969 1.5s.709-.675.393-1.5c-.317-.825-.753-1.5-.969-1.5S32 59.675 32 60.5m124.639-.806c-1.126 1.126-.685 2.306.861 2.306.825 0 1.5-.423 1.5-.941 0-1.261-1.562-2.164-2.361-1.365m15.999.806c.317.825.705 1.5.862 1.5s.545-.675.862-1.5c.347-.905.005-1.5-.862-1.5s-1.209.595-.862 1.5m5.362-.559c0 .518.45 1.219 1 1.559s1-.084 1-.941S179.55 59 179 59s-1 .423-1 .941M132.5 63c-.34.55.11 1 1 1s1.34-.45 1-1-.79-1-1-1-.66.45-1 1m8.5-.116c0 .732-.915.924-2.5.527-4.186-1.051-2.851 1.404 1.467 2.697 2.363.708 3.719 1.634 3.354 2.29-.375.673-.118.643.661-.077 1.025-.947.857-1.71-.853-3.885-1.171-1.488-2.129-2.186-2.129-1.552M29 64c0 .55.477 1 1.059 1s.781-.45.441-1-.816-1-1.059-1-.441.45-.441 1m154 5.108c0 3.424.334 5.892.742 5.484 1.097-1.097 1.246-10.481.177-11.142-.521-.322-.919 2.127-.919 5.658M10.5 65c-.399.646-.276 1.624.274 2.174q1 1 1.726-.174c.399-.646.276-1.624-.274-2.174q-1-1-1.726.174m5.5 1.059c0 1.132.43 1.793.956 1.468s.703-1.252.393-2.059c-.793-2.067-1.349-1.824-1.349.591m5.03-.382c-.031 2.255 2.065 3.263 5.22 2.508C28.084 67.747 28.731 65 27 65c-.55 0-1 .45-1 1 0 1.663-2.83 1.121-3.92-.75-.917-1.575-1.022-1.533-1.05.427m10.97.735c0 1.553.523 2.334 1.471 2.195C35.326 68.335 36.734 67 35.167 67 34.525 67 34 66.325 34 65.5s-.45-1.5-1-1.5-1 1.085-1 2.412m119.625-1.614c-.271.439-.08 1.451.426 2.25.717 1.134.922.959.934-.798.015-2.313-.493-2.856-1.36-1.452M178 66.059c0 1.132.45 1.781 1 1.441s1-1.266 1-2.059S179.55 64 179 64s-1 .927-1 2.059m-22.25.333c-.963.731-1.75 1.706-1.75 2.168s.505.335 1.122-.282 1.667-.913 2.333-.657 1.212-.229 1.212-1.078c0-1.865-.617-1.897-2.917-.151m16.916.035c-.308.804.275 1.586 1.403 1.881 2.289.598 2.442.061.528-1.854-1.185-1.185-1.485-1.189-1.931-.027M29 67.559c0 .857.457 1.276 1.016.931.559-.346.758-1.047.441-1.559C29.6 65.544 29 65.802 29 67.559m-18.352 3.915c-.308.804-.177 1.699.291 1.988.468.29 1.104-.131 1.413-.936.308-.804.177-1.699-.291-1.988-.468-.29-1.104.131-1.413.936m5.352.467c0 2.415.556 2.658 1.349.591.31-.807.133-1.734-.393-2.059S16 70.809 16 71.941m5.731-.021c-.435 1.663-.305 2.054.437 1.312.582-.582.86-1.647.62-2.369-.25-.749-.703-.295-1.057 1.057m5.427.08c0 1.375.227 1.938.504 1.25.278-.687.278-1.812 0-2.5-.277-.687-.504-.125-.504 1.25M29 71c0 .55.45 1 1 1s1-.45 1-1-.45-1-1-1-1 .45-1 1m128 1.039c0 1.695.236 1.822 1.395.75 1.439-1.33 1.202-2.789-.454-2.789-.518 0-.941.918-.941 2.039M172 72c0 1.867.267 2.133 1.2 1.2s.933-1.467 0-2.4-1.2-.667-1.2 1.2m14.079-.417c.048 1.165.285 1.402.604.605.289-.722.253-1.585-.079-1.917s-.568.258-.525 1.312M5 71.941c0 1.676 1.774 2.092 2.364.553.348-.907-.003-1.494-.895-1.494-.808 0-1.469.423-1.469.941m173 .618c0 .857.457 1.276 1.016.931.559-.346.758-1.047.441-1.559-.857-1.387-1.457-1.129-1.457.628M29 74.441c0 .857.45 1.559 1 1.559s1-.423 1-.941-.45-1.219-1-1.559-1 .084-1 .941m35.813.242c.721.289 1.584.253 1.916-.079s-.258-.568-1.312-.525c-1.165.048-1.402.285-.604.604M5.512 76.98c-.406.657-.288 1.644.262 2.194 1.303 1.303 2.339-.373 1.285-2.079-.615-.994-.986-1.022-1.547-.115M11 78c0 1.1.422 2 .938 2s.87-.9.787-2-.505-2-.938-2-.787.9-.787 2m161.655-1.251c-.288.466-.11 1.5.396 2.299.795 1.257.922 1.251.949-.048.027-1.333.138-1.333 1 0 .533.825.976.993.985.372.021-1.542-2.682-3.671-3.33-2.623m6.074-.145c-.401.401-.729 1.419-.729 2.263 0 1.125.296 1.237 1.113.42.611-.611.94-1.63.729-2.262s-.712-.822-1.113-.421M183 78c0 1.1.45 2 1 2s1-.9 1-2-.45-2-1-2-1 .9-1 2m10.635-1.219c-.277.448-.145 1.393.292 2.101.621 1.004.925.946 1.39-.266.629-1.64-.823-3.224-1.682-1.835M21 78.5c0 .825.177 1.5.393 1.5s.652-.675.969-1.5.139-1.5-.393-1.5c-.533 0-.969.675-.969 1.5m127.079.083c.048 1.165.285 1.402.604.605.289-.722.253-1.585-.079-1.917s-.568.258-.525 1.312M188 78.559c0 .857.45 1.281 1 .941s1-1.041 1-1.559-.45-.941-1-.941-1 .702-1 1.559m-162.493.43c-.35.566.051.734.941.393 1.732-.665 2.049-1.382.611-1.382-.518 0-1.216.445-1.552.989M125 78.786c0 .603.511 1.412 1.136 1.798.754.466.334 1.349-1.25 2.626-1.712 1.381-1.821 1.632-.386.891 4.46-2.305 4.652-2.654 2.524-4.58-1.113-1.007-2.024-1.338-2.024-.735M33 80c0 .55 1.013.993 2.25.985 1.819-.013 1.963-.201.75-.985-1.939-1.253-3-1.253-3 0m126 0c-1.27.821-1.222.972.317.985 1.404.012 1.674.527 1.185 2.265-.496 1.761-.405 1.924.417.75 1.216-1.736 1.433-5.007.331-4.985-.412.009-1.425.452-2.25.985m24 3.167c0 1.008.477 1.833 1.059 1.833s.781-.45.441-1-.141-1 .441-1 1.091.787 1.129 1.75c.06 1.496.195 1.46.93-.25.647-1.505.877-.824.93 2.75.038 2.612.494 4.75 1.013 4.75 1.323 0 .963-9.981-.364-10.083-.593-.046-2.091-.196-3.329-.333-1.606-.178-2.25.275-2.25 1.583m-177.846.385c.191.98.951 1.984 1.692 2.23.86.287 1.22-.194 1-1.334-.191-.98-.951-1.984-1.692-2.23-.86-.287-1.22.194-1 1.334M10.5 83c-.816 1.32.38 3.192 1.569 2.457 1.215-.75 1.207-3.457-.01-3.457-.518 0-1.219.45-1.559 1m5.515-.25c.009.412.452 1.425.985 2.25.784 1.213.972 1.069.985-.75C17.993 83.013 17.55 82 17 82s-.993.338-.985.75m5 0c.009.412.452 1.425.985 2.25.784 1.213.972 1.069.985-.75C22.993 83.013 22.55 82 22 82s-.993.338-.985.75m127.221 3.657c-2.256 8.435-8.699 13.463-23.038 17.979-4.566 1.438-8.819 2.614-9.453 2.614s.628-1.88 2.802-4.177c3.348-3.538 3.473-3.806.815-1.75-3.107 2.403-6.362 6.848-6.362 8.689 0 .524 2.733 5.107 6.072 10.185s5.846 9.825 5.568 10.548c-.277.724-3.332 2.821-6.789 4.66-6.218 3.31-11.772 8.004-15.196 12.845-.973 1.375-.62.25.784-2.5l2.554-5-2.434 2.938-2.434 2.939.301-4.439c.166-2.441.581-5.788.922-7.438s-.052-.975-.875 1.5-1.996 7.365-2.608 10.867c-.939 5.384-.844 7.248.618 12.078 2.295 7.58 1.847 9.555-2.169 9.555-1.727 0-3.48.338-3.894.75s-2.366.802-4.337.866-2.834.314-1.919.557c1.334.353 1.496 1.025.82 3.384L87.14 177h7.562c7.31 0 7.666.113 10.68 3.381 2.861 3.101 8.838 9.961 13.306 15.272 1.648 1.959 2.168 2.048 5.752.985l3.94-1.169-5.099-5.484c-7.339-7.893-12.392-14.507-17.129-22.422-4.303-7.189-5.136-9.878-2.781-8.974.754.289 1.64-.175 1.969-1.032.61-1.59 3.66-2.214 3.66-.748 0 .445.696 1.682 1.547 2.75 1.456 1.826 1.509 1.741.893-1.433-1.173-6.055-1.191-6.605-.277-8.373.993-1.919 7.855-5.753 10.297-5.753.847 0 1.54.114 1.54.254s1.125 3.356 2.5 7.147c1.376 3.795 2.5 9.074 2.5 11.746 0 2.669.436 4.853.969 4.853s.762-.562.51-1.25-.047-1.896.455-2.686c.78-1.225 1.181-1.233 2.74-.054 1.731 1.308 1.737 1.284.132-.473-1.536-1.681-1.553-2.125-.182-4.776.926-1.791 2.053-2.715 2.91-2.386 1.076.413 1.262-.144.807-2.421l-.592-2.957 3.572 1.493c2.623 1.096 3.76 1.188 4.28.347.418-.676.268-.874-.366-.482-1.426.881-4.488-2.253-3.843-3.933.322-.839-.021-1.118-.943-.764-.797.306-1.449.148-1.449-.35s1.463-1.442 3.25-2.097c4.287-1.571 10.115-5.179 9.446-5.848-.291-.292-2.662.413-5.267 1.566-2.606 1.152-4.858 1.976-5.004 1.83-.602-.603 6.868-7.925 10.617-10.405 3.063-2.027 4.319-2.393 5.198-1.514.638.638.839 1.16.447 1.16-.393 0-.049 1.591.764 3.536 1.47 3.52 1.462 3.546-1.737 5.497-2.827 1.723-2.947 1.96-.999 1.963 2.059.004 4.044 2.173 4.121 4.504.044 1.354-3.835 3.421-6.504 3.465-2.873.047-5.332 1.035-5.332 2.142 0 .491.338.84.75.775.412-.066 2.198-.066 3.969 0 2.464.09 3.08.479 2.626 1.661-.326.849-.837 1.299-1.136.999s-3.13 2.234-6.291 5.629l-5.746 6.171-2.836-1.808-2.836-1.809 2.552 2.887c2.486 2.813 2.994 7.388.819 7.388-.544 0-.656.539-.249 1.197 1.252 2.026-5.489-3.169-7.104-5.475-3.838-5.479.42 5.849 4.521 12.028 2.336 3.519 1.347 4.439-1.45 1.348-1.917-2.118-5.27-2.094-4.764.035.179.752.744 1.518 1.256 1.702.512.185.699.711.416 1.17-.715 1.157 4.365 4.995 6.611 4.995 1.011 0 3.85-.977 6.309-2.172 3.878-1.884 4.334-2.425 3.445-4.085-1.241-2.32-.166-3.785 1.258-1.714.772 1.123.864.949.391-.739-.405-1.441.3-3.857 2.025-6.947 1.882-3.371 2.139-4.32.891-3.291-1.623 1.34-1.664 1.278-.541-.83.668-1.253 1.611-2.033 2.095-1.734.484.3 1.206.018 1.604-.626.452-.731.291-.903-.43-.457-1.638 1.011-1.469.412 1.275-4.529 1.336-2.407 3.399-6.851 4.584-9.875 1.922-4.908 2.015-5.93.869-9.5-.706-2.201-1.358-4.676-1.448-5.501-.458-4.208-2.663-12.998-3.256-12.981-.373.011-3.962 2.486-7.975 5.5-4.013 3.015-7.501 5.481-7.75 5.481-1.015 0-.345-4.685 1.052-7.364 2.146-4.114 1.852-4.501-1.046-1.376-1.398 1.507-2.952 2.74-3.455 2.74-1.266 0-2.348-6.398-1.649-9.743.428-2.046.093-1.726-1.301 1.243l-1.877 4-.714-3.25c-1.005-4.574-2.828-4.138-2.092.5.478 3.013.404 3.295-.381 1.433-2.178-5.17-1.878-6.774 2.151-11.487 2.8-3.276 4.971-4.814 7.451-5.279 4.281-.804 5.406.07 2.834 2.199-1.529 1.265-1.335 1.243.935-.107 1.68-.999 4.212-1.544 6.132-1.32 3.2.374 3.238.332 1.773-1.904-1.431-2.184-3.05-3.362-1.767-1.285.691 1.118-2.439 1.344-5.002.361-1.331-.511-1.398-.812-.332-1.5 1.092-.705 1.062-1.047-.166-1.885-1.265-.863-1.029-1.427 1.5-3.593 5.071-4.343-8.311 3.197-16.778 9.453-5.31 3.923-6.357 4.454-3.956 2.003 1.796-1.833 7.646-6.259 13-9.836 8.891-5.94 9.913-6.955 11.808-11.729 1.59-4.004 2.349-4.951 3.25-4.05.735.735 1.176.784 1.176.131 0-.575-.81-1.778-1.8-2.674-1.698-1.536-1.865-1.383-2.964 2.726m29.843-2.824c.048 1.165.285 1.402.604.605.289-.722.253-1.585-.079-1.917s-.568.258-.525 1.312m15.559-.083c-.347.905-.005 1.5.862 1.5s1.209-.595.862-1.5c-.317-.825-.705-1.5-.862-1.5s-.545.675-.862 1.5M5.679 87.711c-.301.486-.183 1.474.262 2.194.615.994.986 1.022 1.547.115.406-.657.288-1.644-.262-2.194-.56-.56-1.241-.61-1.547-.115m166.88.194c-.367.594-.26 1.807.238 2.697.818 1.461.971 1.446 1.587-.16.781-2.036-.787-4.217-1.825-2.537m10.299 4.376c-.079 2.871-.171 6.313-.204 7.651-.034 1.338.488 2.615 1.16 2.839.905.302 1.102-1.165.762-5.659-.253-3.336-.036-6.328.482-6.648 1.4-.865 1.142-2.173-.558-2.826-1.205-.462-1.528.45-1.642 4.643M194 89.031c0 2.276 1.529 2.638 2.33.552a1.534 1.534 0 0 0-.893-1.969c-.949-.364-1.437.117-1.437 1.417m-184 .386c0 .87.713 1.583 1.583 1.583.871 0 1.406-.534 1.188-1.187-.618-1.855-2.771-2.162-2.771-.396m6 .083c0 .825.45 1.5 1 1.5s1-.675 1-1.5-.45-1.5-1-1.5-1 .675-1 1.5m5 0c0 .825.45 1.5 1 1.5s1-.675 1-1.5-.45-1.5-1-1.5-1 .675-1 1.5m133-1.122c0 .207.787.995 1.75 1.75 1.586 1.243 1.621 1.208.378-.378-1.307-1.666-2.128-2.195-2.128-1.372m24 1.681c0 1.132.45 1.781 1 1.441s1-1.266 1-2.059S179.55 88 179 88s-1 .927-1 2.059m-86.75.669c2.063.216 5.438.216 7.5 0 2.063-.215.375-.392-3.75-.392s-5.812.177-3.75.392m-85.134 3.44c-.064.918-.375 2.493-.692 3.5-.545 1.736-.515 1.739.568.051.628-.98.939-2.555.691-3.5-.406-1.549-.462-1.554-.567-.051m181.627 1.094c-.267 1.231-.811 3.138-1.209 4.238-.579 1.604-.509 1.703.356.5.933-1.297 1.081-1.263 1.095.25.008.963-.435 1.75-.985 1.75s-1 .675-1 1.5.412 1.5.917 1.5c1.347 0 1.118 9.356-.25 10.227-.864.55-.843.746.083.758.688.008 1.25.915 1.25 2.015s.352 2 .782 2 .862-3.363.96-7.473c.146-6.118-.132-7.653-1.532-8.469-1.56-.91-1.564-1-.05-1.028 1.308-.024 1.645-.991 1.591-4.569-.075-4.939-1.231-6.781-2.008-3.199M10.888 95.25c-.061.688-.281 2.713-.488 4.5s.083 3.25.644 3.25c1.604 0 2.385-3.117.995-3.976-.888-.549-.931-.973-.146-1.458.609-.376 1.107-1.332 1.107-2.125 0-1.763-1.955-1.939-2.112-.191m5.112.191c0 .857.45 1.559 1 1.559s1-.423 1-.941-.45-1.219-1-1.559-1 .084-1 .941m4.801.809c-.45 2.985.234 6.75 1.225 6.75.436 0 .763-2.025.725-4.5-.071-4.681-1.361-6.169-1.95-2.25M178 96c0 1.867.267 2.133 1.2 1.2s.933-1.467 0-2.4-1.2-.667-1.2 1.2m15.12-.224c-.547 1.022-.61 2.431-.143 3.187.461.746.606 1.959.323 2.696-.669 1.746.47 1.714 2.246-.062 1.204-1.204 1.193-1.483-.072-1.968-.811-.312-1.474-1.282-1.474-2.157 0-.874.45-1.312 1-.972s1 .168 1-.382c0-1.929-1.909-2.156-2.88-.342m-66.679.779c-1.864 1.494-1.852 1.512.309.465 1.237-.6 2.25-1.3 2.25-1.555 0-.765-.519-.544-2.559 1.09M16.729 99.604c-.401.401-.729 1.419-.729 2.263 0 1.125.296 1.237 1.113.42.611-.611.94-1.63.729-2.262s-.712-.822-1.113-.421M178 101c0 1.1.45 2 1 2s1-.9 1-2-.45-2-1-2-1 .9-1 2m13.079-.417c.048 1.165.285 1.402.604.605.289-.722.253-1.585-.079-1.917s-.568.258-.525 1.312m-185.412.084c-.367.366-.667 1.131-.667 1.7 0 .626.466.567 1.183-.15.651-.651.951-1.416.667-1.7s-.817-.217-1.183.15m27.859.292c-.359.58.07 1.333.954 1.672 2.2.844 2.884-.084 1.133-1.537-.985-.818-1.639-.86-2.087-.135m-5.901 1.839c-.271.439-.08 1.451.426 2.25.717 1.134.922.959.934-.798.015-2.313-.493-2.856-1.36-1.452M39 104c1.958 1.266 3.282 1.266 2.5 0-.34-.55-1.379-.993-2.309-.985-1.457.014-1.484.15-.191.985m152.25 1.452c0 1.626.443 2.219 1.386 1.857.991-.38 1.192-.025.705 1.244-.466 1.216-.312 1.547.489 1.052 1.805-1.116 1.385-4.42-.705-5.538-1.59-.851-1.875-.641-1.875 1.385M5 106.941c0 1.682.45 3.059 1 3.059s1-1.098 1-2.441-.45-2.719-1-3.059c-.583-.361-1 .656-1 2.441m5.886-2.891c-.648 2.557-.587 5.95.107 5.95 1.433 0 2.293-4.114 1.106-5.301-.604-.604-1.15-.897-1.213-.649m9.862 2.486c-.477 2.498.392 3.991 1.613 2.77.941-.942.777-4.103-.247-4.735-.487-.301-1.101.583-1.366 1.965M15.71 107c-.34 1.3-.03 2 .884 2 .773 0 1.406-.9 1.406-2s-.398-2-.883-2c-.486 0-1.119.9-1.407 2m162.29.059c0 1.132.45 1.781 1 1.441s1-1.266 1-2.059-.45-1.441-1-1.441-1 .927-1 2.059m4.656.147c-.317 1.214-.345 2.438-.062 2.721.647.647 2.37-2.004 2.391-3.677.025-2.103-1.716-1.388-2.329.956m-9.166 1.81c-.346.559-1.047.758-1.559.441-.512-.316-.931-.098-.931.484s.9 1.059 2 1.059c1.111 0 2-.667 2-1.5 0-1.739-.613-1.936-1.51-.484M27.5 110c-.34.55-.141 1 .441 1S29 110.55 29 110s-.198-1-.441-1-.719.45-1.059 1m-22.233 6c0 2.75.404 5 .898 5s.825-1.463.736-3.25.17-4.037.576-5c.509-1.208.281-1.75-.737-1.75-1.101 0-1.473 1.262-1.473 5M10 112.5c0 .825.45 1.5 1 1.5s1-.675 1-1.5-.45-1.5-1-1.5-1 .675-1 1.5m6-.059c0 2.227 1.566 2.67 1.73.49.08-1.062-.276-1.931-.792-1.931s-.938.648-.938 1.441m4.843.309c-.086.963-.243 2.92-.348 4.351-.106 1.43-.493 3.087-.86 3.681s-.255 1.335.25 1.647c1.26.778 1.043 7.745-.296 9.498-.898 1.177-.764 1.247.769.4 2.538-1.403 3.175-8.909.832-9.807-1.41-.542-1.433-.752-.162-1.537 1.598-.988 2.36-9.983.845-9.983-.48 0-.943.787-1.03 1.75m126.329-1.126c1.024.302 1.93 2.021 2.339 4.439.366 2.17 1.001 3.738 1.411 3.485s.745.175.745.952-.344 1.199-.765.94c-.42-.26-1.092.097-1.493.794-.401.696-.357.928.1.514s1.655-.004 2.666.91c2.927 2.65 3.068 1.067.515-5.777-1.966-5.268-2.8-6.413-4.785-6.566-1.323-.101-1.653.038-.733.309m30.504.778c-.565 1.472.082 2.598 1.491 2.598.458 0 .833-.9.833-2 0-2.293-1.523-2.685-2.324-.598m4.722 3.598c.055 3.023.542 5 1.231 5 .702 0 1.14-1.924 1.14-5 0-3.294-.42-5-1.231-5-.824 0-1.202 1.657-1.14 5m10.912-2.921c.397 1.518.159 1.931-.883 1.531-.785-.301-1.427-.159-1.427.314 0 .474.706 1.133 1.569 1.464 1.043.4 1.355 1.275.933 2.607-.35 1.103-.205 2.005.324 2.005 1.458 0 2.336-3.1 1.248-4.41-.564-.68-.598-1.742-.083-2.576.983-1.59.432-3.014-1.167-3.014-.581 0-.813.936-.514 2.079m-183.06 4.439c0 1.385.394 2.762.875 3.059s.875-.836.875-2.518-.394-3.059-.875-3.059-.875 1.133-.875 2.518m5.75.923c0 1.407.45 2.559 1 2.559s1-.873 1-1.941-.45-2.219-1-2.559c-.567-.351-1 .49-1 1.941m161.273-.41c-.179 2.373 1.315 3.485 2.063 1.536.3-.781-.009-1.881-.686-2.443-.9-.746-1.271-.501-1.377.907M27 121c-.901.582-1.025.975-.309.985.655.008 1.469-.435 1.809-.985.767-1.242.421-1.242-1.5 0m-21.781 4.005c.082 2.872.148 2.916 1.491.998.773-1.103 1.128-2.456.789-3.005-1.212-1.961-2.364-.948-2.28 2.007m5.242 1.77c.096 2.532.71 4.782 1.365 5 .863.288.937-.268.27-2.022-.545-1.434-.554-2.997-.023-3.836 1.237-1.954 1.148-2.618-.43-3.224-1.036-.397-1.316.569-1.182 4.082m5.193-1.561c-.318 1.218-.098 2.512.49 2.875.749.463.733.869-.054 1.355-1.275.788-.518 2.556 1.094 2.556.651 0 .832-1.168.466-3-.33-1.65-.175-3 .344-3s.684-.675.368-1.5c-.831-2.163-2.039-1.845-2.708.714m34.941-1.06c.333.539.856.728 1.163.421s1.274-.021 2.15.635c1.329.996 1.387.963.352-.198-1.422-1.596-4.577-2.335-3.665-.858m132.061 3.096c.199 5.424.091 5.205 1.856 3.74 1.122-.931 1.23-1.597.418-2.575-.603-.725-.803-2.241-.445-3.367.43-1.357.205-2.048-.668-2.048-.907 0-1.268 1.322-1.161 4.25m-78.032-1.711c-.965 2.514-.681 3.163.498 1.136.584-1.004.851-2.036.593-2.293-.257-.258-.749.263-1.091 1.157m-76.913 5.46c-.288 1.099-.115 2.251.383 2.559s.906-.592.906-1.999c0-3.064-.57-3.312-1.289-.56m93.161-.249c-1.243 1.586-1.208 1.621.378.378 1.666-1.307 2.195-2.128 1.372-2.128-.207 0-.995.787-1.75 1.75m-110.539 5.155c0 2.009.411 2.747 1.334 2.393 1.584-.608 1.734-1.932.317-2.808-.559-.346-.758-1.047-.441-1.559.316-.512.173-.931-.317-.931-.491 0-.893 1.307-.893 2.905m5.315-2.22c-.347.347-.129 1.235.483 1.973.819.987.817 1.342-.009 1.342-.617 0-1.122.436-1.122.969s.675.709 1.5.393c.825-.317 1.5-1.401 1.5-2.41 0-1.99-1.338-3.28-2.352-2.267m167.367 2.565c.011 2.21.292 2.814.878 1.889.786-1.241.4-5.139-.51-5.139-.21 0-.376 1.463-.368 3.25m-162.431 0c.373 3.365.396 3.388 1.501 1.492.563-.967.747-2.204.41-2.75-1.09-1.763-2.168-1.054-1.911 1.258M177.5 138c-.34.55-.141 1 .441 1s1.059-.45 1.059-1-.198-1-.441-1-.719.45-1.059 1m-50.84 1.742c-.398.643.033 2.877.959 4.964 1.127 2.542 1.814 3.255 2.082 2.161.563-2.297-2.128-8.603-3.041-7.125m-116.117 1.189c-.317.512-.118 1.213.441 1.559s1.016-.074 1.016-.931c0-1.757-.6-2.015-1.457-.628m5.731-.1c-.676.418-.828 1.273-.36 2.029.627 1.015.956.921 1.47-.419.799-2.082.456-2.578-1.11-1.61m4.63-.402c-.746.746.261 9.587 1.037 9.107.973-.601 1.099-9.536.135-9.536-.408 0-.936.193-1.172.429M183 142.559c0 1.451.433 2.292 1 1.941.55-.34 1-1.491 1-2.559s-.45-1.941-1-1.941-1 1.152-1 2.559m-154.988 2.464c1.241 2.318 1.988 2.537 1.988.584 0-.766-.685-1.656-1.523-1.978-1.243-.476-1.328-.22-.465 1.394M16 148.059c0 1.132.45 1.781 1 1.441s1-1.266 1-2.059S17.55 146 17 146s-1 .927-1 2.059m166.345-.516c-.326.849-.341 1.794-.035 2.1.876.876 2.69-.609 2.69-2.202 0-1.919-1.908-1.845-2.655.102m-19.266 1.04c.048 1.165.285 1.402.604.605.289-.722.253-1.585-.079-1.917s-.568.258-.525 1.312m13.921.476c0 .582.45.781 1 .441s1-.816 1-1.059-.45-.441-1-.441-1 .477-1 1.059M21.139 152.5c.171 1.1-.078 2.621-.553 3.38-.605.965-.447 1.24.525.917 1.84-.613 2.38-3.716.896-5.153-.896-.869-1.105-.663-.868.856m4.36 1.25c.2 1.512.394 2.918.432 3.122.038.205.698-.149 1.466-.786 1.645-1.366.954-5.086-.945-5.086-.856 0-1.189.96-.953 2.75m22.751-1.473c-1.237.566-2.25 1.635-2.25 2.376 0 1.685 1.172 1.723 3.023.097.783-.687.564-.221-.488 1.037-1.051 1.257-1.978 3.183-2.058 4.279-.134 1.818.09 1.765 2.563-.604 2.451-2.349 3.672-6.948 2.085-7.856-.344-.197-1.638.105-2.875.671m72.425.584c.225.881-.205 1.15-1.216.762-.898-.345-1.303-.18-.952.388.932 1.509 3.206 1.178 3.875-.563.327-.854.189-1.301-.308-.994s-1.093.218-1.325-.198-.265-.143-.074.605m41.404-.278c.048 1.165.285 1.402.604.605.289-.722.253-1.585-.079-1.917s-.568.258-.525 1.312m9.921 1.571c0 2.634.222 2.907 1.5 1.846.825-.685 1.5-1.817 1.5-2.515s-.675-1.53-1.5-1.847c-1.134-.435-1.5.179-1.5 2.516m5 1.846c0 .55.45 1 1 1s1-.45 1-1-.45-1-1-1-1 .45-1 1m-150.417 2.866c-.431.697-.513 1.537-.183 1.867.895.895 1.871-.421 1.387-1.871-.338-1.016-.574-1.016-1.204.004M172 159.5c0 .825.45 1.5 1 1.5s1-.675 1-1.5-.45-1.5-1-1.5-1 .675-1 1.5m-7.096 6.5c-.07 1.925-.304 5.054-.52 6.954-.297 2.61-.111 3.173.761 2.301 1.407-1.407 1.94-9.513.748-11.394-.586-.925-.903-.24-.989 2.139M156 166c-.589 1.1-.845 2-.57 2s.981-.9 1.57-2 .845-2 .57-2-.981.9-1.57 2m-34.559 1.096c-.882 1.426 2.037 4.345 3.463 3.463 1.318-.814 1.444-3.226.209-3.989-.488-.302-.825.009-.75.691s-.313 1.239-.863 1.239-.937-.562-.861-1.25c.171-1.542-.303-1.603-1.198-.154M102.232 173c0 1.925.206 2.713.457 1.75.252-.963.252-2.537 0-3.5-.251-.963-.457-.175-.457 1.75M59 172.5c-.718.865-.815 1.5-.229 1.5.558 0 1.274-.675 1.591-1.5s.419-1.5.229-1.5-.906.675-1.591 1.5m36.195 1c.02 1.65.244 2.204.498 1.231s.237-2.323-.037-3-.481.119-.461 1.769m-27.037.5c0 1.375.227 1.938.504 1.25.278-.687.278-1.812 0-2.5-.277-.687-.504-.125-.504 1.25m75.668 3.636-1.675 3.57 2.352-2.209c1.294-1.216 2.112-2.837 1.818-3.603-.686-1.788-.547-1.914-2.495 2.242m4.738-.929c-.542 1.425-.428 1.54.56.56.684-.679.991-1.486.683-1.793-.308-.308-.867.247-1.243 1.233m-108.021.224c-.317.512-.118 1.213.441 1.559s1.016-.074 1.016-.931c0-1.757-.6-2.015-1.457-.628M70 176.8c0 .568.563 1.278 1.25 1.577s.013.288-1.5-.025c-4.46-.923-3.16.577 2.779 3.203 6.483 2.867 6.471 2.866 6.471 1.018 0-.784-.787-1.632-1.75-1.884-1.667-.435-1.667-.463 0-.573 2.626-.174 2.157-3.114-.5-3.13-1.237-.007-3.263-.285-4.5-.616-1.271-.341-2.25-.154-2.25.43m63.782 1.782c.61 1.145 1.882 2.72 2.827 3.5 1.564 1.29 1.619 1.23.609-.664-.61-1.145-1.882-2.72-2.827-3.5-1.564-1.29-1.619-1.23-.609.664m-50.969 2.101c.721.289 1.584.253 1.916-.079s-.258-.568-1.312-.525c-1.165.048-1.402.285-.604.604m-14.68 2.457c1.448 1.142 4.517 2.919 6.82 3.95 3.669 1.643 4.147 1.678 3.867.285-.187-.928-3.025-2.572-6.82-3.95-6.194-2.25-6.376-2.263-3.867-.285m-1.693 3.391c2.456 1.858 12.655 5.708 13.33 5.032.279-.279-.568-.926-1.881-1.439-1.314-.512-4.564-1.875-7.222-3.028-5.634-2.443-6.942-2.618-4.227-.565m13.56.347c0 .482.675 1.437 1.5 2.122 1.253 1.04 1.5.896 1.5-.878 0-1.22-.638-2.122-1.5-2.122-.825 0-1.5.395-1.5.878m-16 2.04c0 .881 6.028 3.388 6.65 2.766.179-.179-1.244-1.074-3.163-1.989-1.918-.914-3.487-1.264-3.487-.777"/></svg>