<svg xmlns="http://www.w3.org/2000/svg" width="200" height="200" fill="#000000"><path fill-opacity=".208" fill-rule="evenodd" d="M0 100.05v99.96l100.25-.255 100.25-.255.255-99.707.255-99.707-100.505.002L0 .091zm.481.45c0 55 .121 77.647.269 50.326.148-27.32.148-72.32 0-100C.602 23.147.481 45.5.481 100.5M82.75 1.662c.688.278 1.813.278 2.5 0 .688-.277.125-.504-1.25-.504s-1.937.227-1.25.504m31 0c.688.278 1.813.278 2.5 0 .688-.277.125-.504-1.25-.504s-1.937.227-1.25.504M77.558 2.907c-.309.498.34.671 1.441.383 2.335-.611 2.63-1.29.56-1.29-.793 0-1.693.408-2.001.907M119 2.393c0 .216.698.661 1.552.989.89.341 1.291.173.941-.393-.587-.951-2.493-1.406-2.493-.596M74.5 4c.34.55.816 1 1.059 1S76 4.55 76 4s-.477-1-1.059-1-.781.45-.441 1m49.5-.291c.825.303 2.963 1.144 4.75 1.87 1.787.725 3.25.963 3.25.528s-1.74-1.312-3.866-1.949c-3.856-1.155-6.98-1.495-4.134-.449M61.5 7.815c-13.594 5.669-28.312 15.732-24.759 16.928.947.319.904.755-.178 1.837-1.803 1.803-3.178 1.866-1.694.078.612-.738.806-1.65.43-2.026C34.382 23.715 24 34.042 24 35.871c0 1.173.338 1.134 1.829-.216 3.149-2.85 3.391-1.811.472 2.027-1.541 2.025.812.072 5.228-4.339s9.921-9.274 12.233-10.805c2.313-1.53 3.993-3.126 3.733-3.547-.26-.42.31-1.378 1.266-2.128 1.574-1.233 1.609-1.197.367.387-.93 1.185-1.003 1.75-.226 1.75.631 0 1.539-1.031 2.019-2.291.885-2.328 4.079-5.598 4.079-4.176 0 .427.824.031 1.831-.88 1.007-.912 2.132-1.356 2.5-.989s.669.144.669-.497C60 9.525 60.606 9 61.346 9s2.785-.718 4.544-1.595 3.839-1.689 4.624-1.804c1.97-.289 3.148-1.608 1.403-1.57-.779.017-5.467 1.719-10.417 3.784M133 7.06c0 .7.296.977.658.615s1.323-.106 2.136.569c.812.674 2.086 1.233 2.83 1.241s1.329.465 1.299 1.015-.812.876-1.739.725c-.926-.152 1.989 1.678 6.478 4.066 9.743 5.182 20.243 13.463 27.443 21.642 2.888 3.281 5.658 5.713 6.157 5.405s2.253.952 3.898 2.801c2.254 2.532 1.98 1.861-1.111-2.72-7.295-10.814-20.203-22.538-32.378-29.409-5.177-2.922-5.583-3.002-6.64-1.311-1.015 1.623-1.069 1.589-.546-.34.457-1.687-.009-2.354-2.202-3.147a162 162 0 0 1-4.533-1.717c-1.122-.454-1.75-.252-1.75.565m-45 4.335c0 .217 1.8.567 4 .776s4 .032 4-.395S94.2 11 92 11s-4 .178-4 .395m-32.245 2.451c-2.06.91-3.747 2.001-3.75 2.424-.004.639 7.551-2.661 8.912-3.893.901-.816-1.602-.103-5.162 1.469m57.65-.691c-.422.682-.277.884.355.493.588-.363 1.22-.241 1.405.272.184.513 1.685 1.21 3.335 1.549l3 .617-3-1.531-3-1.53 3.5.485c2.675.371 3.028.266 1.5-.442-2.831-1.313-6.257-1.271-7.095.087M143 13.059c0 .582.45.781 1 .441s1-.816 1-1.059-.45-.441-1-.441-1 .477-1 1.059m-66 .324c0 .211 1.111.596 2.47.856 1.358.26 2.232.087 1.941-.383-.512-.829-4.411-1.246-4.411-.473m70.565 1.512c-.305.493.096 1.145.89 1.449q1.444.555.887-.895c-.645-1.68-1.011-1.794-1.777-.554m-36.859 2.98c-.959 4.585-.864 5.917.294 4.125.945-1.463 1.09-1.333 1.4 1.25.086.715 1.326 1.168 2.898 1.059 1.511-.106 2.486.232 2.166.75-.32.517.12.941.977.941 2.852 0 1.609-2.696-1.691-3.668-2.913-.859-3.229-1.314-3.051-4.395.152-2.624.006-2.964-.615-1.437l-.814 2-.43-2c-.321-1.496-.606-1.15-1.134 1.375m-18.893-1.192c.721.289 1.584.253 1.916-.079s-.258-.568-1.312-.525c-1.165.048-1.402.285-.604.604m35.187.419c1.21.865 1.074.978-.707.59-1.806-.395-2.415.147-3.35 2.98-1.102 3.341-.792 4.69 1.14 4.953 2.213.302 2.343.452 1.083 1.251-1.067.677-1.007.971.302 1.473.956.367 1.382.217 1.025-.36-.336-.544.428-1.034 1.698-1.089 2.263-.097 2.259-.114-.191-.809-1.863-.528-2.491-1.376-2.466-3.325.018-1.439-.389-2.356-.905-2.037s-.617.06-.224-.574c.392-.635 2.093-1.155 3.779-1.155 2.873 0 3.028.189 2.466 3-.35 1.749-.179 3 .41 3 .657 0 .629.788-.08 2.25-1.042 2.15-1.022 2.164.452.326 2.201-2.745 3.057-8.282 1.559-10.087-.68-.819-2.643-1.482-4.363-1.474-2.493.013-2.824.233-1.628 1.087M44 19.5c-.707.852-1.06 1.773-.785 2.048S44.293 21.352 45 20.5s1.06-1.773.785-2.048-1.078.196-1.785 1.048m17 .5c-.825.533-1.05.969-.5.969s1.675-.436 2.5-.969 1.05-.969.5-.969-1.675.436-2.5.969m34.188.71c1.479.226 2.889 1.171 3.134 2.1.316 1.199.48 1.036.562-.56.099-1.924-.355-2.228-3.134-2.1-2.934.135-2.989.19-.562.56m40.827 3.261c-1.602 3.139-1.711 3.849-.52 3.393.875-.336 1.505-.022 1.505.752 0 2.137 3.279-3.155 3.564-5.753.415-3.773-2.292-2.817-4.549 1.608m-69.457-1.064c-.309.498.34.671 1.441.383 2.335-.611 2.63-1.29.56-1.29-.793 0-1.693.408-2.001.907m70.516 1.504c-.801.965-.839 1.616-.123 2.059.577.356 1.083.509 1.126.339.448-1.813.688-3.809.457-3.809-.159 0-.816.635-1.46 1.411m4.169 3.643c-1.792 2.72-2.901 4.946-2.466 4.946.436 0 1.594-1.358 2.574-3.018.994-1.681 2.264-2.72 2.87-2.345.612.378.804.212.439-.378-.357-.577.053-1.319.911-1.648 1.219-.468 1.426-.109.947 1.645-.544 1.988-.485 2.038.513.442.845-1.351.826-2.165-.074-3.25-1.739-2.096-2.116-1.858-5.714 3.606m-90.702-2.12c-.317.513.557.813 1.943.665C55.966 26.228 56.919 25 53.726 25c-1.435 0-2.868.42-3.185.934m21.663 1.021c.671 1.075 1.36 1.814 1.532 1.643.592-.593-.954-3.598-1.851-3.598-.496 0-.353.88.319 1.955m-11.591.228c.289.467.944.591 1.456.274 1.308-.808 1.161-1.124-.525-1.124-.801 0-1.22.383-.931.85m6.828.372c-1.864 1.494-1.852 1.512.309.465 1.237-.6 2.25-1.3 2.25-1.555 0-.765-.519-.544-2.559 1.09m81.513 1.531c-.614 1.147-.855 2.347-.535 2.666.32.32.581.087.581-.518s.907-1.387 2.015-1.739c1.108-.351 1.756-1.057 1.441-1.567-.939-1.518-2.313-1.064-3.502 1.158m-116.621.37c0 .801.383 1.22.85.931s.591-.944.274-1.456c-.808-1.308-1.124-1.161-1.124.525m-2.597.142c-.329.329-.328 1.302.003 2.164.429 1.117.222 1.332-.724.748q-1.329-.825-.6.352c1.026 1.66 2.486.47 2.309-1.882-.167-2.217-.162-2.209-.988-1.382m16.807.333c-.317.512-.193 1.167.274 1.456s.85-.13.85-.931c0-1.686-.316-1.833-1.124-.525m7.081.355c-1.659 1.213-1.651 1.285.142 1.285 1.045 0 1.901-.578 1.901-1.285S55.603 29 55.524 29s-.933.579-1.9 1.286m11.248 1.464c-1.243 1.586-1.208 1.621.378.378C66.916 30.821 67.445 30 66.622 30c-.207 0-.995.788-1.75 1.75m15.465.258c-7.541 2.096-13.699 4.883-20.737 9.385C53.375 45.375 45 52.718 45 54.194c0 .517-1.123 2.412-2.495 4.211s-2.198 3.569-1.834 3.933S40.733 63 40 63s-1.074.259-.757.576-.508 2.945-1.833 5.84c-4.392 9.593-6.419 19.872-6.31 31.994.055 6.099.498 12.215.986 13.59.772 2.176.826 2.073.416-.796-1.037-7.264 7.6-29.562 17.881-46.158 2.539-4.1 4.617-7.859 4.617-8.355 0-2.034 5.349-11.409 8.201-14.375 6.338-6.588 22.255-10.301 31.329-7.306 3.297 1.088 3.961 1.039 4.989-.367 1.357-1.856 7.52-4.643 10.267-4.643 5.16 0 12.004 3.224 17.471 8.229 3.167 2.899 5.755 5.789 5.75 6.422s2.605 3.414 5.798 6.18 6.661 6.619 7.708 8.564c1.047 1.944 3.16 4.055 4.696 4.691s2.822 1.44 2.859 1.785c1.448 13.376 1.339 18.442-.474 21.946-1.364 2.64-1.317 3.236.562 7.034 1.129 2.282 2.692 4.149 3.473 4.149 1.931 0 3.59 4.725 2.848 8.106-.558 2.537-.341 2.783 2.709 3.076 3.183.305 3.307.476 3.128 4.318-.247 5.322 1.338 1.6 1.967-4.618.244-2.41.257-3.436.029-2.281-.32 1.624-.972 1.995-2.869 1.632-2.018-.385-2.415-.996-2.229-3.432.201-2.633.536-2.918 3.007-2.556 1.849.272 2.781-.036 2.781-.918 0-.73-.45-1.327-1-1.327s-1-1.152-1-2.559.338-2.35.75-2.095c.412.256.702-1.18.644-3.191-.1-3.457-.271-3.638-3.151-3.34-1.674.173-3.329-.144-3.676-.706-.979-1.585 2.143-8.109 3.882-8.109.853 0 1.551-.422 1.551-.937s-1.575-.682-3.5-.369c-3.051.495-3.5.303-3.5-1.492 0-1.132.716-2.775 1.591-3.651 2.208-2.207 2.446-4.641.722-7.382-.806-1.282-1.211-2.993-.9-3.802.362-.944.149-1.214-.594-.755q-1.155.711-.533-.916c.345-.898.127-1.941-.484-2.318-.673-.416-.83-.232-.397.467 1.52 2.46-.273 1.004-1.965-1.595-1.732-2.662-1.731-2.702.049-1.25 1.718 1.402 1.762 1.357.669-.694-.643-1.207-1.686-2.514-2.318-2.905-.771-.476-.881-.248-.333.694.448.773-.382.314-1.846-1.019-1.463-1.334-2.661-2.641-2.661-2.905 0-.265.9.334 2 1.329 1.578 1.428 2 1.505 2 .363C155 52.553 143.283 42 140.718 42c-.46 0-.515.52-.123 1.155.446.721.274.882-.457.43-.644-.398-.926-1.12-.626-1.604.745-1.206-3.279-3.243-4.687-2.373-.68.42-.859.256-.447-.411.862-1.394-5.006-4.554-7.02-3.781-.804.309-1.209.153-.901-.347.968-1.565-6.608-3.379-15.457-3.7-4.675-.17-12.173-.461-16.663-.646-5.417-.224-10.127.208-14 1.285M132.5 31c.34.55 1.041 1 1.559 1s.941-.45.941-1-.702-1-1.559-1-1.281.45-.941 1m12.28 2.828c-.946 1.961-1.542 3.743-1.324 3.961.568.568 3.727-5.765 3.355-6.725-.171-.44-1.085.804-2.031 2.764m6.027-2.078c-1.762 2.052-3.083 4.25-2.554 4.25.204 0 1.369-1.35 2.589-3 2.41-3.26 2.388-4.071-.035-1.25m-9.28 2.206c-.325.526-1.252.703-2.059.393S138 34.011 138 34.286c0 1.314 2.992 1.429 4.049.155.658-.793.942-1.441.632-1.441s-.829.43-1.154.956m30.076-.123c-.283.459.12.834.897.834s1.18-.375.897-.834S172.71 33 172.5 33s-.614.375-.897.833M53.462 34.939c.319.516-.133 1.337-1.004 1.825-1.446.809-1.445 1.002.002 2.203 1.365 1.133 1.49 1.065.894-.486-.572-1.492-.302-1.701 1.569-1.211 2.176.569 2.196.519.514-1.34-1.833-2.025-2.965-2.593-1.975-.991m120.772 2.355c.954.772 1.506 1.633 1.226 1.912-.279.28.137 1.045.927 1.7 1.003.833 1.634.868 2.098.118.365-.591.068-.95-.661-.799-.728.151-1.216-.274-1.084-.945s-.768-1.709-2-2.305c-2.012-.975-2.063-.942-.506.319M21 38.5c-.707.852-1.06 1.773-.785 2.048S21.293 40.352 22 39.5s1.06-1.773.785-2.048-1.078.196-1.785 1.048m125-.5c-.901.582-1.025.975-.309.985.655.008 1.469-.435 1.809-.985.767-1.242.421-1.242-1.5 0M17.381 43.25c-.405.688-1.429 2.375-2.275 3.75-1.149 1.866-.723 1.649 1.678-.856C18.553 44.299 20 42.611 20 42.394c0-.924-1.944-.289-2.619.856m3.491 1.5c-1.243 1.586-1.208 1.621.378.378.962-.755 1.75-1.543 1.75-1.75 0-.823-.821-.294-2.128 1.372M143.5 46c.995 1.1 2.035 2 2.31 2s-.315-.9-1.31-2-2.035-2-2.31-2 .315.9 1.31 2M12 52c-.589 1.1-.845 2-.57 2s.981-.9 1.57-2 .845-2 .57-2-.981.9-1.57 2m176.202 3.478c1.196 2.463 2.347 4.307 2.556 4.097.453-.452-3.588-8.575-4.265-8.575-.257 0 .512 2.015 1.709 4.478m-17.389-.795c.721.289 1.584.253 1.916-.079s-.258-.568-1.312-.525c-1.165.048-1.402.285-.604.604M23.872 57.75c-1.243 1.586-1.208 1.621.378.378.962-.755 1.75-1.543 1.75-1.75 0-.823-.821-.294-2.128 1.372m153.896 16.418c.582.582 1.647.86 2.369.62.749-.25.295-.703-1.057-1.057-1.663-.435-2.054-.305-1.312.437m4.348.46c-.064 1.17.671 2.745 1.634 3.5 1.522 1.193 1.601 1.177.608-.128-.629-.825-1.364-2.4-1.634-3.5-.467-1.9-.498-1.893-.608.128M22 76.378c0 .207.788.995 1.75 1.75 1.586 1.243 1.621 1.208.378-.378C22.821 76.084 22 75.555 22 76.378m153.872 1.372c-1.243 1.586-1.208 1.621.378.378.963-.755 1.75-1.543 1.75-1.75 0-.823-.821-.294-2.128 1.372M87.5 81.617c-2.2.841-4.562 1.571-5.25 1.623-1.363.102-1.631 1.046-.592 2.085.362.362 1.273.147 2.024-.476.752-.624 1.655-.845 2.009-.492.353.354.117.643-.524.643-2.446 0-1.013 1.757 2.583 3.166l3.75 1.47.007-4.818c.005-2.65.005-4.798 0-4.774-.004.024-1.807.732-4.007 1.573m42.815-.61c-2.792 1.125-4.877 4.831-3.495 6.213.554.554 3.167 1.25 5.809 1.547l4.803.542-1.716-2.619c-.944-1.441-1.716-3.535-1.716-4.655 0-2.225-.422-2.343-3.685-1.028M30.079 83.583c.048 1.165.285 1.402.604.605.289-.722.253-1.585-.079-1.917s-.568.258-.525 1.312m139 0c.048 1.165.285 1.402.604.605.289-.722.253-1.585-.079-1.917s-.568.258-.525 1.312M109 85.563c0 1.096-.658 2.932-1.463 4.081-1.411 2.015-1.35 2.064 1.75 1.41 3.473-.733 3.927-3.141 1.134-6.018-1.242-1.281-1.421-1.214-1.421.527m-94.267 8.561c.679.684 1.486.991 1.793.683.308-.308-.247-.867-1.233-1.243-1.425-.542-1.54-.428-.56.56m4.08.559c.721.289 1.584.253 1.916-.079s-.258-.568-1.312-.525c-1.165.048-1.402.285-.604.604M179 94.393c0 .216.698.661 1.552.989.89.341 1.291.173.941-.393-.587-.951-2.493-1.406-2.493-.596m4.5.607c.34.55.816 1 1.059 1s.441-.45.441-1-.477-1-1.059-1-.781.45-.441 1M12.872 98.75c-1.243 1.586-1.208 1.621.378.378C14.916 97.821 15.445 97 14.622 97c-.207 0-.995.787-1.75 1.75M177.5 99c-.34.55-.141 1 .441 1S179 99.55 179 99s-.198-1-.441-1-.719.45-1.059 1M18 116c.825.533 1.95.969 2.5.969s.325-.436-.5-.969-1.95-.969-2.5-.969-.325.436.5.969m158.116.55c-.064 1.127-.564 2.592-1.112 3.254s-.28.58.596-.182 1.376-2.226 1.112-3.254c-.433-1.684-.491-1.666-.596.182m3.384-.55c-1.63.701-1.688.872-.309.93.93.038 1.969-.38 2.309-.93.711-1.15.676-1.15-2 0m-146.421 3.583c.048 1.165.285 1.402.604.605.289-.722.253-1.585-.079-1.917s-.568.258-.525 1.312m125.936 2.032c-.008 1.163-.848 3.188-1.865 4.5-1.018 1.312-2.847 5.496-4.066 9.299s-3.33 9.202-4.692 12l-2.475 5.086 4.792-5.081c5.555-5.89 12.291-16.885 12.291-20.063 0-1.204.561-2.376 1.247-2.605.738-.246.228-.954-1.25-1.733-1.373-.725-2.828-1.813-3.232-2.418-.429-.643-.741-.221-.75 1.015m1.623 5.885c-.316.825-.139 1.5.393 1.5.533 0 .969-.675.969-1.5s-.177-1.5-.393-1.5-.652.675-.969 1.5m6.362 8.559c0 .582.45.781 1 .441s1-.816 1-1.059-.45-.441-1-.441-1 .477-1 1.059m-1.128 3.691c-1.243 1.586-1.208 1.621.378.378 1.666-1.307 2.195-2.128 1.372-2.128-.207 0-.995.787-1.75 1.75M51.5 150c2.709 2.75 5.15 5 5.425 5s-1.716-2.25-4.425-5-5.15-5-5.425-5 1.716 2.25 4.425 5m-1.52 8.524c-.696.838-1.071 1.718-.835 1.955.237.236.98-.449 1.651-1.524 1.452-2.325.968-2.58-.816-.431m96.485.532c-.298.483.375 1.452 1.496 2.152 2.493 1.556 2.629 2.617.313 2.431-.949-.076-1.775.311-1.836.861s-.458 1.787-.881 2.75c-2.15 4.882 4.308 6.652 8.395 2.301 2.367-2.519 2.216-6.342-.195-4.954-.691.398-.935.367-.542-.068.992-1.1-1.091-4.724-2.29-3.983-.536.332-.851.066-.7-.589.323-1.399-2.965-2.187-3.76-.901m-4.241 4.116c.284 1.366 1.767 2.786 2.938 2.813 1.457.033.034-3.507-1.533-3.813-.983-.192-1.567.222-1.405 1m-94.717.817c-.35.566.051.734.941.393 1.732-.665 2.049-1.382.611-1.382-.518 0-1.216.445-1.552.989m89.039 1.937c-.304.491-.278 1.609.058 2.484.442 1.152.013 1.59-1.556 1.59-1.191 0-1.888-.45-1.548-1 .829-1.341-.821-1.279-2.182.082-1.611 1.611 1.409 7.39 3.119 5.97.686-.569 1.543-.814 1.905-.543s.396.153.075-.259-1.071-.75-1.667-.75-1.268-.675-1.493-1.5c-.244-.895-.076-1.097.417-.5.454.55 2.514 1.046 4.576 1.101 3.091.084 3.75-.242 3.75-1.857 0-1.405-.464-1.78-1.641-1.328-1.265.485-1.393.33-.558-.677 1.169-1.407.438-3.095-1.502-3.473-.661-.128-1.45.169-1.753.66m12.704.57c-.687.781-1.25 1.84-1.25 2.355 0 1.098 3.047 2.436 3.81 1.673.288-.288-.092-.524-.843-.524-1.063 0-1.1-.267-.167-1.2 1.328-1.328 1.626-3.822.45-3.762-.412.021-1.312.677-2 1.458m-103.68 1.391c-.301.487.235 1.5 1.191 2.25 1.574 1.233 1.609 1.197.367-.387-1.575-2.007-.222-2.369 1.874-.5 1.192 1.063 1.204.989.077-.5-1.457-1.926-2.668-2.224-3.509-.863M72 171.031c0 .533.675.969 1.5.969s1.5-.177 1.5-.393-.675-.652-1.5-.969-1.5-.139-1.5.393m-14.655 1.512c-.326.849-.311 1.824.031 2.167.343.343.624-.095.624-.974 0-.878 1.013-1.792 2.25-2.03l2.25-.434-2.281-.136c-1.255-.075-2.548.558-2.874 1.407m66.655-.872c0 .369.694 1.438 1.542 2.375 1.414 1.562 1.332 1.704-.982 1.704-1.476 0-2.259-.427-1.887-1.03.35-.566.155-.732-.433-.368-.588.363-1.271.095-1.518-.596-.246-.691-.788-.94-1.204-.554-.995.924 1.481 3.345 4.352 4.257 1.637.519 2.669.205 3.672-1.118 1.342-1.772 1.399-1.766 1.505.159.061 1.1.315 1.506.565.901.881-2.133-1.51-6.401-3.587-6.401-1.114 0-2.025.302-2.025.671m-48.98 1.805c-.789.95-.865 1.524-.201 1.524 1.208 0 2.617-1.897 1.924-2.591-.252-.251-1.027.229-1.723 1.067m5.247.242c1.669.252 2.5.849 2.095 1.505-.404.654-.205.798.5.362 1.861-1.15.272-2.599-2.671-2.435l-2.691.15zm58.422.65c-.317.827-.039 1.76.617 2.073.657.314-.122.315-1.731.002-2.566-.499-2.765-.377-1.627.994 1.81 2.181 3.795 1.948 4.584-.538.783-2.466-.953-4.85-1.843-2.531m-28.689.414c-2.88.367-3.145.579-1.5 1.197 1.1.413 3.013.373 4.25-.089 1.67-.624 2.25-.475 2.25.576 0 .779.444 1.69.987 2.026.626.387.682-.213.154-1.64-.946-2.558-1.319-2.683-6.141-2.07m52.872.968c-1.243 1.586-1.208 1.621.378.378 1.666-1.307 2.195-2.128 1.372-2.128-.207 0-.995.787-1.75 1.75m-104.269.083c-.283.459.12.834.897.834s1.18-.375.897-.834S59.71 175 59.5 175s-.614.375-.897.833m4.956.699c-1.068.807-1.46 1.468-.873 1.468.588 0 1.629-.675 2.314-1.5 1.557-1.876 1.067-1.866-1.441.032M93 175.668c.825.347 1.872 1.127 2.326 1.732.531.707.68.565.417-.4-.225-.825-1.271-1.605-2.326-1.732-1.347-.164-1.471-.045-.417.4m-21.458 1.264c-.746 1.207-.836 1.147 2.25 1.487 1.261.139 2.525-.123 2.809-.583s.077-.836-.46-.836c-.538 0-1.644-.256-2.458-.568-.814-.313-1.778-.088-2.141.5m6.022 1.775c-.542 1.425-.428 1.54.56.56.684-.679.991-1.486.683-1.793-.308-.308-.867.247-1.243 1.233m2.769-.056c0 .984.337 1.038 1.334.211.733-.609 1.333-1.202 1.333-1.318s-.6-.211-1.333-.211a1.33 1.33 0 0 0-1.334 1.318m-14.874.416c-.363.586-.445 1.281-.183 1.543s.743-.218 1.069-1.067c.676-1.762.1-2.072-.886-.476m55.048-.078c-.35.566.051.734.941.393 1.732-.665 2.049-1.382.611-1.382-.518 0-1.216.445-1.552.989m-11.918.867c-.291.47.583.643 1.941.383s2.47-.645 2.47-.856c0-.773-3.899-.356-4.411.473M130 180.5c.997 1.201.988 1.5-.044 1.5-.709 0-1.019.27-.689.6s1.06.316 1.623-.032c1.217-.752.334-3.568-1.119-3.568-.586 0-.489.635.229 1.5m-46.128 1.25c-1.195 1.524-1.178 1.599.132.582.827-.643 3.077-1.358 5-1.59l3.496-.422-3.628-.16c-2.41-.106-4.088.427-5 1.59m38.159-1.25c0 .55.436 1.675.969 2.5s.969 1.05.969.5-.436-1.675-.969-2.5-.969-1.05-.969-.5M71 181.383c0 .211 1.111.596 2.47.856 1.358.26 2.232.087 1.941-.383-.512-.829-4.411-1.246-4.411-.473m54.507.606c-.35.566.051.734.941.393 1.732-.665 2.049-1.382.611-1.382-.518 0-1.216.445-1.552.989M89.5 185c-1.63.701-1.688.872-.309.93.93.038 1.969-.38 2.309-.93.711-1.15.676-1.15-2 0"/><path fill-opacity=".376" fill-rule="evenodd" d="M.131 45.75C.203 70.913.59 89.025.991 86 6.554 43.983 39.927 9.156 81.909 1.554 88.887.29 85.889.172 44.75.09L0 0zM114.5.99c41.462 6.142 75.187 38.549 83.095 79.848 1.803 9.415 1.803 27.909 0 37.324-7.791 40.693-39.803 72.266-80.476 79.373-8.769 1.533-27.664 2.007-28.468.715-.256-.412 3.98-.608 9.413-.434 14.534.464 30.944-3.011 35.767-7.575.731-.693 1.738-1.007 2.237-.699s1.475.079 2.169-.51c.695-.589 5.307-3.574 10.25-6.633s11.419-7.639 14.392-10.178c10.376-8.865 20.396-22.647 25.508-35.084 3.678-8.951 3.893-9.531 4.283-11.559.203-1.056.819-2.462 1.367-3.123.549-.661.688-2.007.31-2.992-.472-1.23-.32-1.564.483-1.068 1.078.666 1.587-1.153 1.439-5.145-.026-.687.258-1.25.63-1.25 1.102 0 .96-20.278-.162-23-.566-1.375-.932-3.513-.812-4.75s-.317-2.25-.97-2.25c-.696 0-.972-.829-.665-2 .287-1.1.2-2-.195-2-.394 0-1.286-2.222-1.982-4.938-1.546-6.029-6.501-16.508-11.616-24.562-5.158-8.122-20.428-23.242-28.997-28.713C118.747-1.124 79.022-.642 46.881 21.055 30.177 32.332 14.957 51.854 9.503 69c-.962 3.025-2.172 5.95-2.689 6.5s-.473-.237.098-1.75S7.581 71 7.13 71c-1.15 0-4.984 17.226-5.501 24.712-.832 12.059 2.289 29.066 7.492 40.828 1.59 3.595 2.323 4.399 3.051 3.346.672-.972.758-.676.286.989-.5 1.768-.35 2.176.589 1.596.873-.539 1.013-.377.455.526-.498.805-.188 1.76.807 2.487.888.649 3.273 3.619 5.3 6.598 9.616 14.137 21.755 24.98 37.144 33.18 4.54 2.419 7.915 4.766 7.5 5.216-.414.449.26.568 1.498.263 1.239-.305 2.02-.179 1.736.28-.617.999.809 1.534 13.013 4.882 9.334 2.561 5.22 2.615-5.393.071-16.049-3.847-31.271-12.386-44.426-24.921C14.751 155.874 3.844 134.547.991 113c-.401-3.025-.788 15.313-.86 40.75L0 200h99.941c69.697 0 100.14-.323 100.6-1.066.363-.587.326-45.587-.082-100L199.718 0l-45.109.125C129.799.193 111.75.583 114.5.99M86.178 17.462c.227 3.554.617 6.647.867 6.874s3.043.188 6.205-.086c4.78-.414 5.75-.814 5.75-2.374 0-1.526-.792-1.893-4.25-1.966l-4.25-.09 3.25-.939c1.787-.516 3.25-1.522 3.25-2.236 0-.892-1.019-1.156-3.25-.844-1.787.25-2.954.138-2.592-.248.362-.387 1.487-.824 2.5-.973 1.013-.148 1.987-1.014 2.165-1.924.268-1.37-.573-1.656-4.866-1.656h-5.19zm27.704-4.843c-.066.485-.066 1.219 0 1.631.065.413-.427.638-1.093.5-1.872-.386-3.407 6.801-1.853 8.673 1.815 2.186 8.059 3.203 9.121 1.485.996-1.612-.624-2.871-3.724-2.893-2.388-.017-3.263-1.531-2.526-4.372.386-1.484 1.141-1.751 3.76-1.326 2.402.39 3.438.113 3.879-1.036.33-.862.421-1.747.201-1.967-.904-.904-7.656-1.508-7.765-.695M74.75 14.162c-2.763 1.009-3.627 3.178-1.734 4.348.559.346.801.977.538 1.403-.264.426-.017 2.447.547 4.492 1.253 4.536 4.521 4.769 4.21.3-.146-2.093.486-3.066 2.75-4.237 3.391-1.753 3.881-4.893 1.005-6.433-2.305-1.233-3.656-1.21-7.316.127m50.275 2.813c-2.089 2.089-3.356 5.7-2.837 8.089.387 1.779 6.668 4.929 8.458 4.242 1.379-.529 3.339-6.322 3.348-9.895.004-1.272-.991-2.544-2.541-3.25-3.442-1.569-4.133-1.481-6.428.814m-47.996-.014c-.809.512-1.181 1.221-.825 1.576.874.874 4.796-.438 4.796-1.604 0-1.19-2.068-1.176-3.971.028m-14.277 2.01c-2.061.93-3.98 1.923-4.263 2.206C57.916 21.751 62.675 33 63.491 33c.284 0 2.195-.9 4.248-2 2.052-1.1 4.301-2 4.996-2 1.485 0 1.705-2.61.294-3.482-.533-.33-2.276.076-3.873.901-1.596.826-3.192 1.212-3.546.858s.709-1.212 2.362-1.907c2.05-.862 2.819-1.75 2.419-2.792-.523-1.364-.898-1.367-3.488-.028-1.597.826-2.903 1.07-2.903.543s.9-1.244 2-1.593c1.96-.622 2.733-2.972 1.25-3.801-.412-.231-2.437.341-4.498 1.272m63.287 1.957C124.8 23.243 125.666 26 127.632 26c1.566 0 3.712-4.635 2.816-6.084-.961-1.556-3.325-1.014-4.409 1.012m9.018 4.271c-1.711 3.344-2.987 6.13-2.834 6.19.152.061 2.21 1.149 4.572 2.417l4.294 2.305 1.922-2.305c1.426-1.711 1.931-1.906 1.956-.756.018.853-.529 2.12-1.217 2.817-1.002 1.016-.874 1.545.642 2.665 1.736 1.281 2.22.938 5.852-4.133 3.766-5.259 3.869-5.598 2.108-6.918-1.606-1.204-2.035-1.162-3.227.315-1.25 1.55-1.326 1.499-.84-.559.377-1.596-.053-2.578-1.461-3.331-1.097-.587-2.076-.919-2.175-.737s-1.62 2.409-3.381 4.948-2.879 4.974-2.485 5.41c.395.437.155.47-.533.074-1.89-1.087-1.534-2.762 1.654-7.788l2.904-4.58-2.32-1.056c-2.163-.986-2.529-.647-5.431 5.022m-86.655 2.132c-2.436 2.095-2.649 2.666-1.506 4.043.732.882 1.799 1.314 2.372.96.604-.373.742-.159.329.509C48.759 34.198 51.936 40 53.516 40c.596 0 1.618-.534 2.27-1.186.915-.915.809-1.604-.464-3.011-1.543-1.705-1.504-1.981.604-4.224 3.07-3.268 2.401-5.997-1.565-6.383-2.177-.213-3.982.434-5.959 2.135m3.661 1.093c-1.856 2.236-.87 3.662 1.383 2.002 1.346-.991 1.626-1.754.908-2.472s-1.425-.573-2.291.47M89 29.247c0 .483-.787.781-1.75.662s-2.425.028-3.25.327a763 763 0 0 1-6.5 2.272c-6.945 2.401-20.609 9.681-25.409 13.539-4.329 3.479-13.328 14.383-12.529 15.181.269.269-1.108 3.315-3.06 6.769-2.333 4.127-3.347 7.002-2.96 8.391.443 1.59.345 1.759-.396.683-.746-1.081-1.349-.106-2.476 4-2.207 8.043-2.799 12.127-1.655 11.42.542-.335 1.017-1.82 1.055-3.3s.478-3.591.977-4.691q.907-2.004.19 2c-2.115 11.818.23 33.328 4.412 40.474.813 1.389 1.232 1.722.932.739-4.023-13.156-4.136-14.914-1.679-26.213 1.29-5.931 10.095-24.374 15.953-33.414 2.286-3.527 4.592-8.034 5.126-10.015 1.499-5.569 6.512-12.726 10.816-15.443 7.962-5.026 17.978-6.721 26.716-4.52 3.927.989 4.684.882 7.073-.997 7.75-6.096 17.888-4.352 26.614 4.579 2.586 2.645 7.595 7.735 11.133 11.31s7.158 7.937 8.046 9.694c.888 1.756 2.853 3.784 4.368 4.505 2.571 1.226 2.812 1.889 3.655 10.057.769 7.461.647 9.309-.834 12.592-1.658 3.679-1.654 3.998.11 7.25 1.015 1.871 3.078 4.619 4.584 6.107 3.235 3.195 3.393 5.087.843 10.089-1.042 2.045-1.492 3.967-1 4.271 1.537.95.976 4.789-1.228 8.405-1.164 1.909-2.788 5.733-3.609 8.499-2.628 8.85-7.898 18.03-12.964 22.584-6.498 5.841-.394 2.139 6.911-4.191 5.215-4.519 13.514-14.929 10.723-13.45-.791.419-.313-.217 1.062-1.412s1.927-1.877 1.228-1.514c-.753.391-.376-1.186.925-3.864 1.209-2.488 2.564-4.297 3.011-4.021.447.277.517-.269.155-1.213-.444-1.157-.281-1.483.5-1 .756.468.952.178.563-.836-.347-.902-.063-1.552.678-1.552.7 0 .989-.284.642-.631s-.158-1.516.42-2.597c2.717-5.077 2.853-29.269.216-38.272-.323-1.1-.244-1.676.174-1.28s1.336 3.096 2.039 6c.973 4.015 1.297 4.561 1.353 2.28.114-4.587-2.438-11.931-7.358-21.18-2.453-4.612-3.917-8.059-3.253-7.661.674.405.557-.132-.266-1.217-5.986-7.888-10.116-12.107-15.302-15.629-6.764-4.593-20.584-11.259-25.475-12.288-1.787-.376-3.25-1.084-3.25-1.573s-.675-.63-1.5-.314c-.825.317-2.287.238-3.25-.174-2.508-1.075-22.25-1.267-22.25-.217m71 .131c0 .207.787.995 1.75 1.75 1.586 1.243 1.621 1.208.378-.378-1.307-1.666-2.128-2.195-2.128-1.372M57.411 33.227c-1.051 1.231-1.236 1.722-.411 1.091s1.837-1.186 2.25-1.233c.85-.096 1.128-1.04.494-1.674-.233-.233-1.283.584-2.333 1.816m93.515 2.736a97 97 0 0 1-.471 2.638c-.297 1.573.744 2.921 4.135 5.356 2.492 1.79 4.829 2.958 5.192 2.594.363-.363.06-1.031-.674-1.484-1.031-.638-1.051-.919-.089-1.24.807-.269.161-1.601-1.84-3.792-1.697-1.858-2.872-3.724-2.61-4.146.261-.422-.435-.699-1.547-.616-1.112.084-2.055.394-2.096.69M42.073 39.728c-3.317 4.023-3.606 4.824-2.084 5.765 1.216.752 8.011-2.358 8.011-3.666 0-.52.45-.667 1-.327 1.3.803 1.281-1.106-.035-3.566-1.536-2.87-3.461-2.369-6.892 1.794M25 54.998c0 .881-.54 2.142-1.2 2.802-.933.933-.83 1.2.465 1.2.915 0 2.134.876 2.707 1.947 1.008 1.883 1.126 1.864 3.581-.591 1.968-1.968 2.285-2.847 1.407-3.904-.623-.75-.869-1.79-.548-2.309.327-.531-.951-.901-2.914-.846-2.5.071-3.498.556-3.498 1.701m143 .143c0 .958-.45 2.019-1 2.359-1.655 1.023-1.128 2.5.893 2.5 1.041 0 2.196.788 2.567 1.75.642 1.667.721 1.667 1.657 0 .54-.962 1.688-1.75 2.549-1.75 1.137 0 1.402-.617.964-2.25-.331-1.237-.609-2.723-.616-3.3s-1.589-1.05-3.514-1.05c-2.66 0-3.5.418-3.5 1.741M16.487 74.827c.301.784.123 1.938-.396 2.563-.631.76-.14 1.852 1.483 3.298C18.908 81.876 20 82.447 20 81.956s1.189-1.515 2.643-2.277c1.689-.885 2.23-1.639 1.5-2.091C23.514 77.2 23 76.099 23 75.141c0-1.326-.842-1.741-3.53-1.741-2.647 0-3.393.357-2.983 1.427m160.234-.111c.287.747-.278 2.242-1.255 3.321-1.711 1.892-1.699 1.963.329 1.963 1.158 0 2.548.787 3.088 1.75.936 1.667 1.015 1.667 1.657 0 .371-.963 1.526-1.75 2.567-1.75 2.021 0 2.548-1.477.893-2.5-.55-.34-1.001-1.379-1.003-2.309-.002-1.242-.906-1.71-3.4-1.762-2.469-.051-3.254.3-2.876 1.287M91.5 78.722c-7.535 1.335-15.691 3.697-14.467 4.189.807.324 3.492 1.78 5.967 3.235 2.475 1.456 5.507 2.947 6.738 3.314 2.051.611 2.187.413 1.627-2.385-.409-2.046-.049-3.908 1.092-5.65 1.929-2.944 1.839-3.198-.957-2.703m38.839 2.213c-3.029 1.847-5.174 5.563-3.929 6.808.326.326 3.125.803 6.221 1.059l5.628.467-2.265-3.063c-1.389-1.879-2.055-3.864-1.723-5.135.669-2.559.076-2.58-3.932-.136M137 81c0 .55.45 1 1 1s1-.45 1-1-.45-1-1-1-1 .45-1 1m6 .441c0 2.088 2.075 3.051 3.096 1.437C147.452 80.738 147.171 80 145 80c-1.1 0-2 .648-2 1.441m8.341 1.295c-.148 2.558-.07 2.613 1.218.852.757-1.035 1.14-2.266.85-2.735-1.015-1.643-1.91-.827-2.068 1.883m-47.872 1.314c-.918 1.486-.188 2.012 1.417 1.021.859-.532.962-1.047.29-1.462-.571-.353-1.339-.154-1.707.441m4.913.502c.332.866-.11 2.956-.983 4.643l-1.587 3.069 2.844-.703c4.006-.99 4.608-1.887 3.256-4.854-1.308-2.871-4.569-4.862-3.53-2.155M14.171 94.753c.181 1.067-.289 2.684-1.044 3.593-1.201 1.448-1.114 1.654.701 1.654 1.14 0 2.515.787 3.055 1.75.936 1.667 1.015 1.667 1.657 0 .371-.963 1.616-1.75 2.767-1.75 1.628 0 1.826-.267.893-1.2-.66-.66-1.2-2.251-1.2-3.535 0-1.927-.31-2.169-1.776-1.385-1.139.61-2.422.589-3.579-.059-1.49-.834-1.746-.673-1.474.932m164.174-.297c.356.929.184 2.556-.384 3.616-.803 1.502-.703 1.928.454 1.928.817 0 1.958.787 2.535 1.75 1 1.667 1.1 1.667 2.1 0 .577-.963 1.792-1.75 2.7-1.75 1.283 0 1.383-.267.45-1.2-.66-.66-1.2-2.058-1.2-3.107 0-1.323-.481-1.722-1.572-1.304-.865.332-2.509.103-3.652-.509-1.775-.95-1.984-.866-1.431.576M.461 154c0 25.575.13 36.038.288 23.25s.158-33.712 0-46.5S.461 128.425.461 154M17 117c0 .88-.495 2.095-1.101 2.701-.801.801-.553 1.274.908 1.738 1.105.35 2.255 1.279 2.556 2.064.437 1.14 1.041.986 3.006-.765 1.9-1.691 2.241-2.599 1.499-3.985-.528-.987-.744-2.145-.479-2.574s-1.064-.779-2.954-.779c-2.482 0-3.435.444-3.435 1.6m159.003.191c-.002.93-.453 1.969-1.003 2.309-1.655 1.023-1.128 2.5.893 2.5 1.041 0 2.196.787 2.567 1.75.642 1.667.721 1.667 1.657 0 .54-.963 1.93-1.75 3.088-1.75 1.987 0 2.011-.104.426-1.855-.924-1.021-1.425-2.518-1.115-3.327.435-1.132-.251-1.454-2.973-1.395-2.623.057-3.538.514-3.54 1.768m-14.439 16.516c-.542 1.425-.428 1.54.56.56.684-.679.991-1.486.683-1.793-.308-.308-.867.247-1.243 1.233M26 136.25c0 1.293-.54 2.89-1.2 3.55-.933.933-.849 1.2.378 1.2.867 0 2.161.703 2.874 1.563 1.177 1.418 1.379 1.418 2.173 0 .481-.86 1.822-1.563 2.98-1.563 1.987 0 2.011-.104.426-1.855-1.011-1.117-1.41-2.557-1.003-3.617.57-1.485.374-1.599-1.252-.729-1.257.672-2.528.696-3.652.067-1.417-.793-1.724-.547-1.724 1.384m146-1.258c-.825.53-2.287.717-3.25.418-1.236-.385-1.75.003-1.75 1.323 0 1.027-.54 2.407-1.2 3.067-.933.933-.833 1.2.45 1.2.908 0 2.123.787 2.7 1.75.999 1.667 1.113 1.667 2.41 0 .748-.963 2.153-1.75 3.123-1.75 1.525 0 1.578-.222.39-1.654-.755-.909-1.232-2.484-1.06-3.5.358-2.112.238-2.169-1.813-.854m-131.357 3.854c4.063 6.533 12.411 15.036 19.175 19.533 7.559 5.025 13.028 7.516 6.725 3.063-7.572-5.349-13.464-10.918-19.852-18.76-2.58-3.168-4.691-5.462-4.691-5.098s-.774.043-1.719-.712c-1.368-1.092-1.294-.688.362 1.974m131.229 17.904c-1.243 1.586-1.208 1.621.378.378 1.666-1.307 2.195-2.128 1.372-2.128-.207 0-.995.787-1.75 1.75m-121.881 1.761c-1.455 1.753-.05 4.018 3.114 5.022 1.058.336 1.648 1.058 1.31 1.604-.369.597-1.357.32-2.477-.693-1.149-1.04-2.549-1.419-3.651-.988-1.579.617-1.438.98 1.213 3.116 3.155 2.543 2.852 3.289-.489 1.203-1.558-.973-2.223-.962-3.236.054-1.034 1.037-.802 1.652 1.225 3.253 5.136 4.057 5.797 4.16 7.716 1.201.981-1.512 2.572-3.545 3.534-4.516s1.75-2.37 1.75-3.106c0-1.294-4.721-4.191-6.25-3.836-.413.096-.75-.473-.75-1.266 0-2.168-1.613-2.73-3.009-1.048M147 158.5c-.951 1.145-.97 1.832-.081 2.902.953 1.149.66 1.374-1.628 1.25-3.346-.182-4.311 1.454-1.679 2.848 1.189.63 1.77 1.833 1.569 3.248-.236 1.662.368 2.51 2.315 3.251 2.903 1.103 4.959.366 7.833-2.81 1.756-1.94 1.704-2.138-1.855-7.093-3.967-5.521-4.589-5.867-6.474-3.596m-113 6c2.987 3.025 5.657 5.5 5.932 5.5s-1.945-2.475-4.932-5.5-5.657-5.5-5.932-5.5 1.945 2.475 4.932 5.5m99-2.5c-.901.582-1.025.975-.309.985.655.008 1.469-.435 1.809-.985.767-1.242.421-1.242-1.5 0m30.946 3.75-3.446 3.75 3.75-3.446c3.49-3.208 4.21-4.054 3.446-4.054-.167 0-1.854 1.688-3.75 3.75m-27.102-.426c-1.205.916-1.396 1.726-.701 2.968 1.125 2.01.545 2.155-2.075.518-1.484-.926-2.238-.914-3.408.057-1.333 1.107-1.324 1.557.087 4.015.874 1.522 3.05 3.726 4.836 4.897l3.248 2.128 1.584-2.418c1.998-3.048 2.018-6.75.059-10.539-1.75-3.384-1.479-3.263-3.63-1.626m12.136 2.2c-.696.838-.987 1.803-.647 2.143.727.726 3.667-1.511 3.667-2.789 0-1.378-1.63-1.029-3.02.646m-64.23.138c.688.278 1.813.278 2.5 0 .688-.277.125-.504-1.25-.504s-1.937.227-1.25.504m-18.25 2.339c-.542 1.708-1.209 1.909-4.551 1.375-3.082-.493-4.049-.28-4.54 1.001-1.242 3.237.462 6.425 4.071 7.616 4.035 1.332 5.902.575 5.2-2.107-.271-1.039-.09-1.639.404-1.334s1.673-1.071 2.62-3.058c1.496-3.137 1.53-3.734.259-4.538-2.151-1.361-2.758-1.178-3.463 1.045m24.25-1.295c1.237.238 3.263.238 4.5 0 1.237-.239.225-.434-2.25-.434s-3.487.195-2.25.434m16.012.001c1.244.239 3.044.23 4-.02s-.062-.446-2.262-.435-2.982.216-1.738.455m-7.493.986c.973.254 2.323.237 3-.037s-.119-.481-1.769-.461-2.204.244-1.231.498m-27.573 2.362c-.401 1.533.094 2.295 1.948 3 1.368.52 2.907.945 3.421.945s.935.439.935.975c0 .632-.91.63-2.584-.007-2.594-.986-4.416-.577-4.416.992 0 .463 1.688 1.328 3.75 1.923l3.75 1.081-3.654-.403c-2.9-.321-3.752-.028-4.131 1.421-.375 1.435.404 2.072 3.654 2.981 2.272.636 4.547 1.154 5.054 1.151.785-.006 4.518-10.124 4.562-12.364.008-.412-1.474-.75-3.294-.75s-4.182-.661-5.25-1.468c-2.599-1.966-3.113-1.894-3.745.523m53.451-1.167c-1.07.678-1.108 1.316-.183 3.045 1.161 2.17 1.145 2.175-1.926.587-3.014-1.559-5.038-1.35-5.038.52 0 .507 1.117 1.202 2.482 1.545l2.483.623-2.224 1.801c-2.189 1.773-2.194 1.832-.327 3.896 2.143 2.368 3.907 2.576 8.437.997 3.441-1.199 3.863-2.156 1.8-4.083-.742-.693-1.165-1.962-.941-2.819.482-1.842-1.319-7.007-2.435-6.985-.426.009-1.384.402-2.128.873m31.258 1.362-1.905 2.25 2.25-1.905c2.114-1.79 2.705-2.595 1.905-2.595-.19 0-1.202 1.012-2.25 2.25M136 173.393c0 .216.698.661 1.552.989.89.341 1.291.173.941-.393-.587-.951-2.493-1.406-2.493-.596m-90 .985c0 .207.788.995 1.75 1.75 1.586 1.243 1.621 1.208.378-.378-1.307-1.666-2.128-2.195-2.128-1.372m14 .408c0 1.512 3.191 2.423 4.367 1.247.711-.711.684-1.033-.085-1.033-.615 0-1.83-.273-2.7-.607s-1.582-.157-1.582.393m49.777.106c-2.848.465-3.519.934-2.856 1.995.532.853 1.87 1.195 3.473.889 1.433-.274 2.606-.111 2.606.363 0 .473-1.125.861-2.5.861-1.442 0-2.5.576-2.5 1.361 0 .912.909 1.235 2.75.979 2.576-.358 2.607-.32.5.606-3.737 1.643-2.651 3.198 2 2.861 4.2-.303 4.246-.348 3.941-3.807-.446-5.056-1.164-7.019-2.508-6.858-.651.078-2.858.415-4.906.75M91.589 177.5c.58 2.309.361 2.5-2.858 2.5-4.78 0-6.497 2.181-4.326 5.495 1.347 2.056 2.444 2.505 6.118 2.505 3.698 0 4.477-.324 4.477-1.86 0-1.024.286-3.949.636-6.5.619-4.515.564-4.64-2.019-4.64-2.333 0-2.579.304-2.028 2.5m32.958 2.089c-1.212.886-1.585 1.767-.993 2.347 1.25 1.228 4.53-1.182 3.618-2.658-.483-.782-1.255-.69-2.625.311M87 184.156c0 1.145.597 1.501 1.931 1.152 2.886-.755 3.209-2.808.442-2.808-1.542 0-2.373.58-2.373 1.656"/><path fill-opacity=".206" fill-rule="evenodd" d="M.09 44.75C.173 85.565.3 88.842 1.534 82.016c3.488-19.28 11.976-36.079 25.457-50.383C41.755 15.968 58.783 6.408 79.826 1.97L88.5.141 44.25.07 0 0zM118.091 1.554C160.65 9.26 194.359 45.6 198.908 88.678c.544 5.152.871-8.647.959-40.428L200 0l-44.75.09c-41.139.082-44.137.2-37.159 1.464M87.92 5.414c-.308.307-2.55.809-4.982 1.115-4.698.59-7.804 2.403-4.388 2.561 1.135.053.545.495-1.41 1.057-1.847.532-3.61.716-3.916.41s.305-.564 1.359-.572c1.512-.012 1.619-.204.508-.908-1.908-1.207-4.093-.246-3.421 1.506.313.815-.063 1.417-.886 1.417-2.275 0-18.8 8.433-24.284 12.393-11.021 7.958-21.857 20.253-28.028 31.802-1.751 3.278-3.473 5.924-3.828 5.882A16 16 0 0 0 13.126 62c-1.695 0-6.993 18.617-8.143 28.617-2.055 17.871 2.048 37.976 11.047 54.133 3.926 7.048 6.808 9.61 5.627 5-.558-2.176-.515-2.169 1.315.235 1.04 1.367 1.769 2.607 1.619 2.757s1.409 2.091 3.462 4.315c2.579 2.794 3.603 4.724 3.312 6.244-.421 2.194-.419 2.194.575-.051 1.239-2.8 2.074-2.92 1.555-.223-.215 1.114-.015 1.794.444 1.511.999-.618 3.256 1.862 2.552 2.804-.27.362-.216.458.119.215.336-.244 3.459 1.74 6.942 4.409s8.607 6.131 11.389 7.694 5.057 3.204 5.058 3.649.563.471 1.251.058c.781-.469.712-.088-.186 1.017-1.853 2.282-1.315 2.617 10.513 6.539 18.547 6.15 37.085 6.31 55.543.479 7.051-2.227 15.88-6.727 15.88-8.094 0-.234-.476-.132-1.057.227-.582.36-2.044.783-3.25.941-1.206.159-3.093.595-4.193.97s-.723-.058.838-.961c1.562-.903 3.072-1.408 3.357-1.123s1.033.075 1.662-.467c.628-.542 4.828-3.409 9.332-6.371 5.291-3.481 8.378-4.969 8.721-4.206.306.68.462.545.368-.318-.09-.825 2.304-3.975 5.321-7s6.981-7.3 8.808-9.5l3.321-4-2.711 3.811c-1.492 2.096-2.818 4.531-2.947 5.41s-1.547 2.702-3.152 4.049-2.394 2.172-1.753 1.834c.64-.339 1.392-.051 1.671.64.329.817.534.695.585-.349.043-.883 1.516-2.795 3.272-4.25s2.836-2.645 2.4-2.645.812-1.605 2.774-3.567c7.865-7.865 16.346-27.975 18.7-44.343 1.474-10.249.684-23.315-2.06-34.064-2.588-10.134-5.672-17.304-7.222-16.788-.68.227-3.435-3.324-6.25-8.056C173.862 43.649 164.516 33.053 156 26.5c-6.572-5.057-18.962-11.809-24.975-13.611-2.648-.793-3.931-1.691-3.61-2.528.274-.713-.002-1.606-.613-1.983-.648-.401-.831-.234-.44.398 1.046 1.694-.748 2.232-3.948 1.185l-2.914-.953 2.981.401c2.775.374 2.848.305 1.059-1.004-1.057-.773-2.624-1.439-3.481-1.482-.858-.042-2.459-.33-3.559-.641-2.793-.789-27.897-1.552-28.58-.868m-5.107 3.269c.721.289 1.584.253 1.916-.079s-.258-.568-1.312-.525c-1.165.048-1.402.285-.604.604m7.387 2.121c-4.802.275-5.24.494-4.66 2.322 1.086 3.423-.369 6.576-4.033 8.738C79.578 23.001 78 23.552 78 23.088c0-.465 1.307-1.387 2.905-2.049s3.166-2.178 3.486-3.371c.782-2.915.751-3.699-.141-3.504-.412.09-1.996-.186-3.519-.613-3.428-.962-8.725 1.049-8.746 3.32-.013 1.315-.184 1.363-.889.251-1.177-1.859-3.16-.498-2.418 1.66.55 1.599.495 1.597-.793-.022-1.303-1.637-1.711-1.583-6.885.918-3.025 1.463-5.725 2.697-6 2.742-.275.046-1.901 1.082-3.613 2.302s-3.472 1.895-3.91 1.498c-.439-.396-.493-.189-.121.461.372.649.189 1.482-.408 1.851-.596.369-.818 1.363-.493 2.211.483 1.259.321 1.316-.888.312-1.7-1.41-2.797-.909-7.355 3.363C34.467 37.928 26 49.341 26 50.88c0 .561.788 1.479 1.75 2.04 2.291 1.334.689 1.385-1.793.057-1.543-.826-1.799-.729-1.328.5.85 2.214-.484 5.376-1.544 3.661-.632-1.023-.943-.952-1.434.33-.367.956-.217 1.382.36 1.025.544-.336.989-.134.989.448S23.852 60 24.893 60c1.822 0 3.708 2.732 2.631 3.81-.288.288-.524-.016-.524-.676 0-1.396-3.953-3.079-5.685-2.421-.651.248-1.664 2.686-2.25 5.418-1.343 6.266-1.401 5.869.853 5.869 2.837 0 5.149 1.082 4.512 2.112-.306.497.146 1.607 1.006 2.467.908.907 1.564 1.089 1.564.433 0-.621.384-.893.854-.602.469.29 1.386-.642 2.037-2.071 2.068-4.539 2.054-2.061-.042 7.186-3.43 15.133-.944 35.333 6.094 49.519 1.679 3.384 2.822 6.528 2.539 6.986-.283.457.012 1.157.656 1.555.771.477.932.245.47-.68-.385-.773.098-.28 1.074 1.095.975 1.375 4.709 5.611 8.296 9.414s5.991 6.607 5.341 6.233-1.463-.222-1.809.337.186 1.085 1.181 1.168c.995.084 2.484.218 3.309.297s1.38.707 1.234 1.395c-.15.707.502 1.122 1.5.953 1.041-.175 1.653.247 1.491 1.027-.151.729.169 1.051.71.716.542-.335 3.627.724 6.855 2.354 9.266 4.678 17.196 6.326 30.71 6.383 11.656.049 23.008-1.645 21.996-3.283-.274-.444.472-.554 1.659-.243 1.468.384 1.931.198 1.449-.582-.448-.726-.176-.942.743-.589 2.045.785 11.902-4.369 11.036-5.77-.433-.7-.238-.838.521-.369 4.022 2.486 28.051-23.469 25.519-27.566-.46-.744-.303-.919.422-.47.635.392 1.155.21 1.155-.405s.419-.859.931-.543c.512.317 1.256.049 1.654-.595q.729-1.177-.6-.352c-.975.602-1.148.356-.655-.928.369-.96.67-1.96.67-2.223s.408-.225.907.083c.498.309.653-.41.342-1.597-.42-1.607-.229-1.951.748-1.347.86.532 1.071.421.612-.321-.384-.623-.042-4.405.761-8.404 2.263-11.276 2.919-22.632 1.632-28.273-.627-2.75-1.338-6.511-1.579-8.358s-.686-3.759-.99-4.25-.06-.892.539-.892c.6 0 1.37.787 1.711 1.75 1.008 2.841 3.496 5.25 5.422 5.25.988 0 2.268.788 2.845 1.75 1 1.667 1.1 1.667 2.1 0 .577-.962 1.997-1.75 3.155-1.75 2.028 0 2.04-.071.329-1.963-.977-1.079-1.517-2.639-1.2-3.466.457-1.191-.012-1.385-2.257-.936-1.76.352-3.132.085-3.62-.704-.56-.907-.297-1.084.917-.618 2.522.968 2.855-1.148 1.235-7.85-.794-3.28-1.48-5.4-1.526-4.713S177.122 61 176.05 61s-2.457.788-3.076 1.75c-1.051 1.634-1.087 1.629-.55-.082.317-1.007.576-2.02.576-2.25s.9-.418 2-.418c2.109 0 2.691-1.455 1-2.5-.55-.34-1-1.5-1-2.578 0-1.603-.501-1.861-2.75-1.418-2.511.495-2.554.456-.5-.449 2.916-1.284 2.845-1.934-.756-6.905-1.654-2.282-2.801-4.15-2.55-4.15s-1.096-1.508-2.994-3.351c-1.897-1.843-3.45-3.895-3.45-4.559s-.392-.966-.872-.669c-.479.296-2.054-.889-3.5-2.634-1.656-1.999-2.628-2.604-2.628-1.635 0 .846-1.012 2.395-2.25 3.443-2.248 1.903-2.248 1.903-.5-.174 2.263-2.687 2.211-4.104-.197-5.392-1.526-.817-2.184-.663-3.047.714-.953 1.52-1.018 1.453-.485-.498.421-1.539.121-2.445-.946-2.855-.86-.33-1.34-.96-1.068-1.402.273-.441-.389-.57-1.47-.287-1.081.282-1.869.968-1.751 1.523.118.556-.602 1.147-1.599 1.314-1.666.279-1.691.117-.313-1.986 1.4-2.136 1.339-2.362-.907-3.385-1.969-.897-2.603-.785-3.485.618-.891 1.419-.963 1.301-.414-.686.523-1.897.341-2.278-.87-1.813-.843.323-1.758-.001-2.034-.72-.882-2.297-5.628-2.819-8.52-.937-2.402 1.563-2.518 1.567-1.272.046.755-.921.923-1.675.373-1.675s-1.584.704-2.298 1.564c-.86 1.036-2.137 1.354-3.778.942-1.536-.385-2.83-.124-3.4.686-.717 1.018-.829.975-.503-.192.266-.956 1.647-1.5 3.804-1.5 2.399 0 3.484-.499 3.724-1.714.448-2.268-4.198-3.45-7.966-2.027-1.663.627-3.051.69-3.383.153-.31-.502-3.461-.912-7.004-.912-5.423 0-6.46.277-6.559 1.75-.074 1.084-.359.799-.75-.75-.588-2.326-1.002-2.479-5.932-2.196m1.613 4.879c.721.289 1.584.253 1.916-.079s-.258-.568-1.312-.525c-1.165.048-1.402.285-.604.604m-14.247 1.215c-1.236.484-1.531 1.005-.819 1.446.613.379 1.402.224 1.753-.344s1.127-.731 1.724-.362c.647.401.797.206.371-.483-.392-.635-.799-1.123-.904-1.085s-1.061.411-2.125.828M97 17.437c0 .865-1.291 1.607-3.25 1.867-2.654.352-2.497.421.857.376 3.461-.046 4.033-.34 3.634-1.867-.568-2.171-1.241-2.375-1.241-.376m-24.921 3.146c.048 1.165.285 1.402.604.605.289-.722.253-1.585-.079-1.917s-.568.258-.525 1.312m37.057-.241c-.075 1.014.764 2.987 1.864 4.385 1.1 1.399 2 2.087 2 1.53s-.648-1.55-1.44-2.207-1.631-2.175-1.864-3.373c-.33-1.697-.454-1.771-.56-.335m17.323-.275c-.363.586-.389 1.336-.059 1.666s.6.023.6-.683c0-.791.767-1.083 2.001-.76 1.101.288 1.75.115 1.441-.383-.766-1.24-3.178-1.143-3.983.16M134 21.441c0 .793.408 1.693.907 2.001.498.309.671-.34.383-1.441-.611-2.335-1.29-2.63-1.29-.56m-34.884.809c-.091 1.371-1.036 1.753-4.366 1.765-2.338.009-4.916.437-5.731.952-.962.608.615.73 4.5.346 6.955-.685 6.799-.61 6.185-2.985-.427-1.655-.483-1.663-.588-.078M57.27 23.931c.08 1.062.482 1.722.894 1.468.412-.255.495-1.124.185-1.931-.781-2.036-1.252-1.834-1.079.463M72.5 25c.34.55.816 1 1.059 1s.441-.45.441-1-.477-1-1.059-1-.781.45-.441 1m60.5 1.492c0 .82-.867 2.032-1.926 2.694-1.784 1.114-1.802 1.296-.25 2.476.922.701 2.126 1.282 2.676 1.291s.329-.408-.491-.926c-1.302-.824-1.264-1.326.307-3.985.988-1.673 1.322-3.042.741-3.042S133 25.671 133 26.492m-74.585.646c-.434.702-.292.904.355.504.593-.366 1.285.127 1.538 1.096.411 1.575.472 1.583.576.071.145-2.12-1.503-3.235-2.469-1.671M115 26.383c0 .211.901.619 2.001.907 1.101.288 1.75.115 1.441-.383-.538-.871-3.442-1.313-3.442-.524M74.657 28.25c.254.413-.353.786-1.348.829s-1.295.29-.668.547c.628.258 2.653-.159 4.5-.927l3.359-1.395-3.152.098c-1.733.054-2.944.435-2.691.848m48.784.195c1.068.855 2.38 1.555 2.917 1.555 1.27 0 .703-.462-2.358-1.92-2.357-1.122-2.389-1.102-.559.365M51.872 29.75c-1.214 1.548-1.189 1.607.22.509.876-.683 1.888-.946 2.25-.584s.658.133.658-.508c0-1.712-1.555-1.422-3.128.583m14.69 2.2c-1.615 1.065-3.372 1.667-3.904 1.339-.542-.335-.644-.076-.233.589.534.865 1.731.588 4.404-1.019 4.568-2.746 4.713-2.86 3.588-2.852-.505.003-2.239.878-3.855 1.943m70.438.109c0 .582.45.781 1 .441s1-.816 1-1.059-.45-.441-1-.441-1 .477-1 1.059m-83 1.882c0 .518.445 1.216.989 1.552.566.35.734-.051.393-.941C54.717 32.82 54 32.503 54 33.941m55.264.777c1.52.229 3.77.223 5-.014s-.014-.425-2.764-.418-3.756.202-2.236.432m-8.125 2.315c-1.298 1.082-3.548 1.979-5 1.994l-2.639.026 2.755 1.708c3.344 2.073 3.06 3.54-.837 4.332-1.889.384-2.389.786-1.418 1.14.825.3 3.638 1.308 6.25 2.239 2.612.932 4.75 2.106 4.75 2.611 0 .504.642.917 1.427.917.786 0 2.361 1.186 3.5 2.635 2.327 2.958 2.832 1.953.541-1.076-.807-1.068-1.468-3.4-1.468-5.183 0-2.378-.54-3.413-2.028-3.885-1.116-.354-2.615-2.072-3.331-3.817-1.123-2.736-1.084-3.342.278-4.392.87-.67 1.131-1.218.581-1.217s-2.062.887-3.361 1.968M117 35.453c0 .249 1.591 1.208 3.536 2.131 1.944.923 3.298 1.915 3.008 2.205-.741.741 1.521 3.289 2.424 2.731.408-.252 1.773.64 3.034 1.982 2.057 2.19 2.098 2.401.395 2.058-1.043-.21-3.197-.885-4.786-1.499s-3.115-.89-3.393-.613c-.277.278.348.769 1.389 1.093 4.574 1.42 10.931 5.32 15.959 9.789 5.552 4.935 6.801 7.436 3.684 7.375-4.238-.083-9.985 1.664-12.75 3.875-2.836 2.267-2.869 2.373-.604 1.938 1.319-.253 3.891-.953 5.717-1.555 3.707-1.224 11.027-.476 16.26 1.66 2.984 1.219 3.229 1.205 2.127-.123-.685-.825-1.851-1.5-2.592-1.5-.74 0-2.872-2.362-4.737-5.25s-5.236-6.6-7.492-8.25c-2.255-1.65-4.628-4.249-5.272-5.776s-2.574-3.754-4.289-4.95c-1.715-1.195-3.478-2.759-3.918-3.474-1.178-1.915-7.7-5.174-7.7-3.847M141 36c-.825.533-1.05.969-.5.969s1.675-.436 2.5-.969 1.05-.969.5-.969-1.675.436-2.5.969m-55.5 2c2.791 1.199 5.741 1.199 5 0-.34-.55-2.054-.968-3.809-.93-2.69.06-2.877.206-1.191.93m-33.845 2.25c.254.413 1.085.75 1.845.75s1.591-.337 1.845-.75c.255-.413-.575-.75-1.845-.75s-2.1.337-1.845.75m33.614 4.443c.973.254 2.323.237 3-.037s-.119-.481-1.769-.461-2.204.244-1.231.498M114.5 45c-2.768.704-2.806.771-.5.866 1.375.057 3.175-.333 4-.866 1.702-1.1.822-1.1-3.5 0M176 56c0 .55.477 1 1.059 1s.781-.45.441-1-.816-1-1.059-1-.441.45-.441 1M29.459 61.067c-.363.586-.389 1.336-.059 1.666s.6.108.6-.493.788-1.299 1.75-1.551c1.578-.412 1.584-.468.059-.573-.93-.064-1.988.364-2.35.951m55.291-.351c-3.891.59-3.42 2.084.656 2.084 4.305 0 9.74 1.146 11.27 2.376.647.52 1.772.836 2.5.701s3.081.519 5.228 1.452c2.146.934 4.132 1.468 4.412 1.189.279-.28-.915-1.005-2.654-1.611S103 65.42 103 64.949c0-1.067-6.547-2.936-10.309-2.943-1.617-.004-2.547-.43-2.191-1.006.619-1.002-.611-1.062-5.75-.284m83 .315c1.238.498 2.25 1.444 2.25 2.103s.236.964.524.676c1.159-1.16-.875-3.806-2.881-3.747-2.119.063-2.118.074.107.968M114.638 66.5c.317.825.753 1.5.969 1.5s.393-.675.393-1.5-.436-1.5-.969-1.5-.709.675-.393 1.5m-2.343 2.948c-.951 1.083-.899 1.49.25 1.931q1.455.558 1.455-1.41c0-2.304-.109-2.338-1.705-.521m15.456 3.244c-6.042 3.363-5.342 4.239 1.154 1.444 6.744-2.901 14.652-2.836 18.297.15l2.703 2.214-8.203-.055c-8.565-.058-8.773.019-14.475 5.355-3.829 3.583-6.182 3.576-6.306-.019-.043-1.254-.307-1.716-.585-1.025-.279.691-.918 1.002-1.421.691s-.929.474-.947 1.744c-.031 2.271-.055 2.276-1.488.309-3.021-4.148-7.094-7.724-10.352-9.088-4.713-1.973-5.296-1.683-1.128.56 4.472 2.407 10 7.52 10 9.249 0 1.22 3.36 4.779 4.511 4.779.269 0 .489-.904.489-2.009 0-1.965.078-1.959 3.479.25 1.913 1.242 3.914 3.496 4.447 5.009.534 1.513 1.695 2.75 2.581 2.75s1.352.419 1.036.931-.118 1.213.441 1.559 1.016.134 1.016-.47c0-.707.498-.639 1.395.191.767.709 1.145 1.739.84 2.289s-.17.649.3.221c1.91-1.738 1.103-3.799-2.078-5.309-6.351-3.013-5.886-3.888 2.237-4.207 4.151-.163 9.678-1.114 12.334-2.124 3.851-1.463 4.703-1.544 4.267-.406-.301.782-1.952 2.038-3.671 2.792-2.462 1.079-2.7 1.404-1.124 1.533 2.957.24-3.163 2.896-6.809 2.955-1.545.025-2.566.438-2.269.919s3.052.662 6.122.402c7.249-.613 9.456 1.133 9.456 7.479 0 6.19-4.197 10.299-13.432 13.151-18.471 5.705-36.923 4.186-60.969-5.022-8.679-3.323-11.629-3.223-15.092.514-4.94 5.331 1.938 13.213 16.266 18.638 4.8 1.818 9.118 3.641 9.595 4.052.477.412 2.39.501 4.25.199 2.366-.384 3.382-.164 3.382.73 0 .98 1.934 1.152 8.25.737 5.296-.348 7.355-.228 5.75.334-2.24.784-2.189.819.5.333 1.65-.298 4.301-.8 5.892-1.116 2.009-.398 2.679-.228 2.193.558-.496.802-.028.882 1.608.275 1.269-.47 6.92-1.165 12.557-1.542 9.027-.606 10.25-.496 10.25.917 0 .95.467 1.316 1.144.898.629-.389.433.597-.436 2.191s-2.974 5.841-4.678 9.438c-2.15 4.54-3.69 6.584-5.037 6.686-1.862.14-9.254 5.347-8.566 6.034.436.436 9.39-4.531 12.458-6.91 1.312-1.018 2.936-1.85 3.611-1.85 1.601 0 7.179-10.516 9.137-17.23.846-2.898 2.655-7.203 4.021-9.565 1.977-3.42 2.297-4.846 1.57-7-.658-1.948-.509-3.328.531-4.932 2.345-3.614 1.853-9.363-1.005-11.737-1.347-1.12-3.261-3.45-4.252-5.178-1.721-3.002-1.724-3.336-.057-7.5 1.376-3.436 1.604-5.872 1.076-11.511-.788-8.417-.638-8.325-13.517-8.309-7.313.009-9.163.38-13.249 2.654M16 74.406c0 1.362-.45 2.754-1 3.094-1.675 1.035-1.118 2.5.95 2.5 1.073 0 2.393.787 2.933 1.75.936 1.667 1.015 1.667 1.657 0 .371-.963 1.526-1.75 2.567-1.75 2.021 0 2.548-1.477.893-2.5-.55-.34-1-1.54-1-2.666 0-1.452-.458-1.872-1.572-1.445-.865.332-2.44.14-3.5-.428-1.663-.889-1.928-.69-1.928 1.445m99-1.976c0 .275.9.981 2 1.57s2 .845 2 .57-.9-.981-2-1.57-2-.845-2-.57m60.03 2.379c-.016 1.279-.476 2.033-1.03 1.691-.55-.34-1-.168-1 .382 0 1.758 1.734 2.144 2.966.659.854-1.029.895-1.947.143-3.239-.95-1.633-1.051-1.586-1.079.507M70.635 76.073C69.186 77.212 68 78.787 68 79.573c0 .785-.546 1.427-1.214 1.427-2.458 0 2.297 3.469 4.983 3.635 4.801.298 7.644 1.091 11.948 3.335 5.913 3.081 13.844 5.016 20.283 4.948 3.025-.032 4.729-.365 3.787-.739-1.238-.491-1.451-1.096-.766-2.179.522-.825.955-2.775.964-4.333.019-3.589 1.86-3.097 4.347 1.162 1.848 3.163 1.847 3.169-.491 4.106-1.287.516-1.868.967-1.29 1.002 1.555.093 6.432-2.319 6.441-3.187.004-.412-.667-.75-1.492-.75s-1.5-.434-1.5-.965c0-2.234-6.367-7.969-10.28-9.259-5.12-1.688-13.494-1.366-21.37.823-9.538 2.651-10.995 2.768-11.696.942-.433-1.13-.243-1.422.607-.933.682.392.901.34.487-.117-.414-.456-.007-1.653.905-2.66 2.206-2.437 1.241-2.322-2.018.242M112 74.43c0 .275.9.981 2 1.57s2 .845 2 .57-.9-.981-2-1.57-2-.845-2-.57m-24.5 4.703c-2.2.513-5.768 1.407-7.93 1.987l-3.93 1.054 6.93 3.892c8.664 4.867 9.71 4.944 8.906.657-.465-2.477-.092-3.941 1.527-6 1.971-2.506 1.997-2.715.32-2.623-1.003.056-3.623.52-5.823 1.033m44.5.573c-2.578.942-6 4.565-6 6.352 0 1.949 2.754 2.909 8.405 2.928 3.85.014 3.879-.014 2.083-1.999-1.002-1.107-1.821-3.357-1.821-5 0-3.084-.141-3.204-2.667-2.281M151 82c0 3.238.095 3.333 1.714 1.714s1.619-1.809 0-3.428S151 78.762 151 82m-14-1c0 .55.45 1 1 1s1-.45 1-1-.45-1-1-1-1 .45-1 1m6.188.739c.502 2.606 3.812 2.897 3.812.334 0-1.431-.642-2.073-2.073-2.073s-1.97.539-1.739 1.739m-46.549-.045C95.513 82.82 95.954 84 97.5 84c.825 0 1.5-.423 1.5-.941 0-1.261-1.562-2.164-2.361-1.365m79.117-.03c.691.279.959.988.596 1.576-.394.637-.188.777.51.345 1.377-.85.55-2.62-1.171-2.506-.852.056-.834.223.065.585m-72.579 2.889c.452 2.172 2.227 2.305 2.633.197.21-1.095-.28-1.75-1.31-1.75-.961 0-1.512.647-1.323 1.553m-31.672 2.6C73.329 91.905 94 101.872 94 98c0-.55-1.244-1-2.765-1-2.93 0-9.4-3.035-12.735-5.973-3.721-3.279-7.588-5.421-6.995-3.874M97 88.059c0 .582.45.781 1 .441s1-.816 1-1.059S98.55 87 98 87s-1 .477-1 1.059m18.613 4.124c.289.467.944.591 1.456.274 1.308-.808 1.161-1.124-.525-1.124-.801 0-1.22.383-.931.85M14 95.3c0 1.265-.54 2.84-1.2 3.5-.933.933-.835 1.2.443 1.2.904 0 2.305.944 3.113 2.098l1.469 2.097 1.123-2.097c.617-1.154 1.714-2.098 2.438-2.098 1.04 0 1.091-.717.246-3.418-.877-2.802-1.38-3.252-2.79-2.497-1.084.58-1.95.549-2.34-.082C15.397 92.216 14 92.94 14 95.3m164.25-.45c.313 1.195-.081 2.594-.927 3.297-1.258 1.044-1.098 1.415 1.103 2.568 1.416.742 2.588 1.897 2.606 2.567.02.78.47.656 1.25-.344.67-.859 2.056-1.877 3.081-2.262 1.518-.571 1.635-.973.632-2.183-.677-.815-.995-2.385-.707-3.488.578-2.207-.287-2.606-1.981-.912-.79.79-1.716.758-3.346-.114-2.041-1.092-2.202-1.01-1.711.871m-63.437-.167c.721.289 1.584.253 1.916-.079s-.258-.568-1.312-.525c-1.165.048-1.402.285-.604.604m-5.457 4.816c.188 3.258 1.644 3.259 1.644.001 0-1.375-.402-2.5-.894-2.5s-.83 1.125-.75 2.499m89.744 8.067c-.537 21.75-14.171 49.644-32.168 65.814-11.588 10.411-26.53 18.583-41.432 22.659-12.02 3.287-33.901 3.828-46.059 1.137-24.918-5.513-46.672-19.699-61.072-39.824-8.286-11.58-15.208-28.668-17.361-42.852-.417-2.75-.815 15.365-.883 40.255L0 200.01l100.25-.255 100.25-.255.26-44.125c.143-24.269-.149-45.869-.649-48l-.91-3.875zM.461 155c0 25.025.129 35.263.288 22.75s.159-32.987 0-45.5S.461 129.975.461 155m16.255-38.977c.286 1.093-.034 2.655-.711 3.47-1.003 1.21-.886 1.612.632 2.183 1.025.385 2.411 1.403 3.081 2.262.845 1.084 1.228 1.172 1.25.287.018-.701 1.23-1.73 2.695-2.287 2.024-.769 2.384-1.291 1.5-2.175-.64-.64-1.163-2.214-1.163-3.498 0-2.025-.265-2.193-2-1.265-1.372.734-2.598.751-3.902.053-1.618-.867-1.824-.722-1.382.97m159.284.848c0 .809-.745 2.294-1.655 3.3-1.552 1.715-1.528 1.829.378 1.829 1.117 0 2.616.703 3.329 1.563 1.177 1.418 1.379 1.418 2.173 0 .481-.86 1.842-1.563 3.025-1.563 1.672 0 1.883-.267.95-1.2-.66-.66-1.2-2.145-1.2-3.3 0-1.733-.611-2.1-3.5-2.1-2.414 0-3.5.456-3.5 1.471m-31.187 2.812c.721.289 1.584.253 1.916-.079s-.258-.568-1.312-.525c-1.165.048-1.402.285-.604.604M132 121.573c-3.575.733-9.537 1.355-13.25 1.38-3.713.026-6.75.445-6.75.93 0 1.621 3.919 1.938 13.252 1.075 9.865-.912 17.006-2.731 16.151-4.114-.626-1.013-1.094-.977-9.403.729m39.994 7.226c-1.922 1.95-3.363 4.136-3.204 4.858.176.792-.29 1.088-1.177.748-1.087-.417-1.326-.024-.922 1.521.3 1.147-.009 2.752-.686 3.567-1.003 1.21-.886 1.612.632 2.183 1.025.385 2.411 1.403 3.081 2.262.78 1 1.23 1.124 1.25.344.018-.67 1.221-1.841 2.675-2.603 1.689-.885 2.23-1.639 1.5-2.091-.629-.388-1.143-1.831-1.143-3.206 0-1.734-.383-2.27-1.25-1.749-.721.433-.615-.035.25-1.106 1.403-1.738 1.532-1.605 2 2.058.579 4.533 1.474 3.699 2.466-2.299.479-2.892.278-4.814-.64-6.124-1.279-1.825-1.493-1.753-4.832 1.637M130 128.68c-5.487.564-8 1.28-8 2.279 0 .944 3.32.839 6-.19.825-.316 3.525-1.015 6-1.552 4.485-.974 2.646-1.22-4-.537m-104.278 7.039c.286.745-.279 2.239-1.256 3.318-1.616 1.787-1.626 1.963-.111 1.963.915 0 2.419.881 3.341 1.957 1.663 1.943 1.685 1.943 3.046 0 .754-1.076 2.076-1.957 2.937-1.957 1.343 0 1.371-.235.194-1.654-.755-.909-1.248-2.392-1.095-3.295.219-1.288-.568-1.647-3.649-1.665-2.9-.017-3.791.331-3.407 1.333m-10.691.781c0 .55.436 1.675.969 2.5s.969 1.05.969.5-.436-1.675-.969-2.5-.969-1.05-.969-.5M164 137.559c0 .857.457 1.276 1.016.931.559-.346.758-1.047.441-1.559-.857-1.387-1.457-1.129-1.457.628m-5.212 4.222c-1.643 2.78-12.5 13.496-18.788 18.544-3.107 2.494-3.146 2.577-.346.742 3.539-2.319 4.811-2.628 3.751-.912-.456.737-.273.882.507.399.672-.415.97-1.005.663-1.312-.941-.941 1.577-3.262 2.788-2.571.625.357.869.347.541-.024-.73-.824 8.267-10.25 9.42-9.869.454.149.559-.159.234-.684-.325-.526-.133-1.238.426-1.584.559-.345 1.016.058 1.016.896s-.861 1.984-1.913 2.547-4.032 3.505-6.622 6.536c-3.548 4.153-4.444 5.831-3.636 6.805.851 1.025.358 1.209-2.378.89-2.971-.347-3.451-.11-3.451 1.707 0 1.16.338 2.056.75 1.991 2.419-.382 3.334.279 2.783 2.013-.753 2.375 1.841 5.105 4.851 5.105 1.233 0 3.487-1.299 5.008-2.887l2.766-2.888-3.673-5.112c-2.02-2.812-3.211-5.113-2.646-5.113.564 0 1.297.855 1.629 1.899.86 2.711 5.513 7.115 7.418 7.022 1.036-.051 1.166-.26.364-.583-.687-.278-1.25-.944-1.25-1.48 0-.537.427-.712.95-.389s1.445-.338 2.05-1.469c.633-1.182 1.61-1.763 2.3-1.368.66.379.882.336.493-.095-.388-.431.342-2.191 1.624-3.91 2.296-3.082 7.583-12.258 7.583-13.162 0-.256-.45-.465-1-.465s-1 .675-1 1.5c0 .848-.895 1.5-2.059 1.5-1.132 0-1.795-.427-1.472-.95s-.326-1.438-1.441-2.035-2.028-.755-2.028-.35c0 .404-.534.201-1.186-.451-.915-.915-1.601-.811-3 .455-1.98 1.791-2.553.47-.631-1.452.651-.651.965-1.402.698-1.67-.267-.267-1.209.738-2.093 2.234M18.306 144c.623 1.65 1.495 3 1.939 3s.108-1.35-.745-3-1.726-3-1.939-3 .122 1.35.745 3m13.151.365c-.756 1.079-1.144 2.332-.863 2.787.28.454-.236.539-1.148.189-1.264-.485-1.038.344.948 3.492 1.433 2.27 2.606 4.502 2.606 4.96s1.35 2.126 3 3.707 3 3.717 3 4.746.419 1.613.931 1.297 1.213-.118 1.559.441c1.125 1.82 3.538 1.072 4.473-1.387 1.389-3.653 2.626-3.872 5.715-1.014l2.822 2.612-2.921-2.126c-2.122-1.544-3.217-1.824-4-1.023-.777.795-.24 1.78 1.921 3.524 1.65 1.331 2.585 2.422 2.079 2.425-.507.003-1.758-.752-2.781-1.678-1.733-1.568-1.974-1.57-3.52-.024-.912.913-1.461 1.801-1.218 1.974.242.172 2.097 1.533 4.123 3.023s4.051 2.685 4.5 2.655 2.511-2.393 4.581-5.25c3.216-4.439 3.545-5.355 2.265-6.294-.824-.604-1.167-1.464-.763-1.91.403-.446.138-.467-.59-.047-1.408.814-5.572-2.483-7.384-5.846-.849-1.575-.739-1.792.644-1.261 1.017.39 1.42.239 1.032-.389-.35-.566-1.607-.721-2.794-.344-1.787.567-1.955.439-.978-.738.951-1.146.466-2.099-2.489-4.894-2.018-1.91-3.023-2.572-2.232-1.472s2.358 2.777 3.482 3.728c1.686 1.426 1.76 1.731.42 1.75-.892.012-3.592-2.115-6-4.728-4.786-5.194-8.15-6.125-10.42-2.885M179 146c-.589 1.1-.845 2-.57 2s.981-.9 1.57-2 .845-2 .57-2-.981.9-1.57 2m-157.504 7.007c-.343.554.078 1.276.935 1.605s1.353.929 1.103 1.334c-.251.405.889 1.73 2.533 2.945 1.738 1.285 2.706 2.712 2.314 3.409-.504.897-.342.892.644-.021 1.076-.998.826-1.609-1.363-3.33-1.475-1.16-2.454-2.476-2.177-2.924.277-.449-.197-1.084-1.054-1.413s-1.278-1.051-.935-1.605.172-1.007-.378-1.007-1.28.453-1.622 1.007M130 162.5c-1.375.786-2.024 1.445-1.441 1.465.582.019 1.932-.626 3-1.433 2.469-1.868 1.68-1.884-1.559-.032m-68.658 3.119c-.383 1.034-.954 2.106-1.269 2.381-1.521 1.327-3.681 6.698-3.324 8.264.447 1.958 5.16 4.75 7.951 4.71 1.109-.016 2.498-1.54 3.617-3.967 1.612-3.498 2.031-3.807 3.724-2.749 1.608 1.004 1.676 1.321.433 2.016-2.343 1.312-1.73 2.588 1.776 3.694l3.25 1.025-3.16-.453c-2.269-.326-3.332-.003-3.773 1.146-.338.88-.455 1.759-.261 1.954.889.889 9.74 3.093 10.09 2.513.558-.926 3.604-11.35 3.604-12.335 0-.45-1.147-.818-2.55-.818s-3.937-.717-5.632-1.594c-2.3-1.189-3.269-1.295-3.812-.416-.482.78-.913.473-1.274-.905-.694-2.657-3.754-2.715-4.442-.085-.288 1.1-1.178 2-1.978 2-1.224 0-1.205-.25.117-1.571 1.94-1.941 1.966-1.668-.41-4.407-1.876-2.164-2.018-2.185-2.677-.403m75.364-.488c-1.227.696-1.605 1.705-1.198 3.193.544 1.989.477 2.029-.788.464-1.24-1.533-1.605-1.557-3.505-.226-2.108 1.476-2.109 1.504-.211 4.72 1.05 1.779 3.309 4.063 5.021 5.074 3.023 1.785 3.155 1.785 4.574-.009.978-1.236 1.332-3.443 1.071-6.672-.459-5.661-2.282-8.065-4.964-6.544m12.425 2.211c-1.533 1.848-.221 2.89 1.488 1.182.76-.76 1.381-1.638 1.381-1.953 0-1.053-1.744-.585-2.869.771m-7.131.717c0 .582.45.781 1 .441s1-.816 1-1.059-.45-.441-1-.441-1 .477-1 1.059m-17 2.927c-1.271.807-1.297 1.281-.172 3.095 1.293 2.086 1.268 2.1-.972.53-2.75-1.926-5.497-2.086-6.197-.361-.39.963-.702.975-1.359.053-.561-.788-1.357-.879-2.326-.266-.811.513-2.985.939-4.831.948-2.647.012-3.229.35-2.75 1.597.334.87.607 1.692.607 1.827 0 .134 1.237.159 2.75.055 2.018-.139 2.134-.073.436.246-2.026.381-2.229.829-1.633 3.613.374 1.747.741 3.217.814 3.266s2.031-.109 4.35-.352l4.217-.441-.617-4.5c-.556-4.058-.43-4.46 1.283-4.089 1.052.228 1.734 1.055 1.528 1.852-.204.793-.575 2.155-.824 3.028-.27.948.63 2.295 2.239 3.349 2.565 1.681 2.871 1.681 6.573.011 4.354-1.963 4.371-2.037 2.054-8.875-1.775-5.237-2.764-6.115-5.17-4.586m18.177 1.67c.178.91 1.149 1.776 2.159 1.924 1.75.256 1.754.177.095-1.656-2.134-2.358-2.675-2.422-2.254-.268M60 174.893c0 1.109 3.076 2.364 3.864 1.576.318-.318-.084-.996-.893-1.508-1.87-1.183-2.971-1.208-2.971-.068m94.35.157c.279 1.537 2.027 1.377 2.451-.225.277-1.046.15-1.038-.604.038-.673.961-1.116 1.028-1.501.225-.353-.736-.475-.749-.346-.038M91 177.5c0 2.181-.438 2.5-3.433 2.5-6.327 0-5.478 7.231.993 8.445 4.831.907 6.116-.064 6.812-5.142 1.043-7.612.888-8.303-1.872-8.303-2 0-2.5.5-2.5 2.5m-15.187-.817c.721.289 1.584.253 1.916-.079s-.258-.568-1.312-.525c-1.165.048-1.402.285-.604.604m48.937 3.074c-.963.214-1.75.807-1.75 1.316 0 1.278 2.732 1.17 3.541-.14.843-1.364.391-1.661-1.791-1.176M56 182.536c0 1.324 2.9 3.435 3.464 2.522.326-.527-.321-1.446-1.436-2.043S56 182.203 56 182.536M87 184c0 .55.9 1 2 1s2-.45 2-1-.9-1-2-1-2 .45-2 1m-23 1c.825.533 1.95.969 2.5.969s.325-.436-.5-.969-1.95-.969-2.5-.969-.325.436.5.969m11.5 4c1.1.473 2.675.859 3.5.859.945 0 .761-.317-.5-.859-1.1-.473-2.675-.859-3.5-.859-.945 0-.761.317.5.859m48.313-.317c.721.289 1.584.253 1.916-.079s-.258-.568-1.312-.525c-1.165.048-1.402.285-.604.604m-41.063 1.979c.688.278 1.813.278 2.5 0 .688-.277.125-.504-1.25-.504s-1.937.227-1.25.504m32 0c.688.278 1.813.278 2.5 0 .688-.277.125-.504-1.25-.504s-1.937.227-1.25.504m-24.988 1.045c1.244.239 3.044.23 4-.02s-.062-.446-2.262-.435-2.982.216-1.738.455m15.988-.001c1.237.238 3.263.238 4.5 0 1.237-.239.225-.434-2.25-.434s-3.487.195-2.25.434"/><path fill-opacity=".98" fill-rule="evenodd" d="M.07 43.75.141 87.5 1.937 79c8.088-38.282 38.76-68.985 76.968-77.046L87.5.141 43.75.07 0 0zM119.003 1.533c41.799 8.35 74.731 43.381 79.878 84.967.586 4.739.907-8.1.993-39.75L200 0l-43.75.117c-38.754.103-43.007.265-37.247 1.416M83.5 9.004c-1.702.435.461.54 5 .242 4.4-.289 8.188-.687 8.417-.886.77-.666-10.386-.131-13.417.644m21.75-.288c1.513.229 3.987.229 5.5 0s.275-.416-2.75-.416-4.263.187-2.75.416m10.019.977c.973.254 2.323.237 3-.037s-.119-.481-1.769-.461-2.204.244-1.231.498m-37.456.99c.721.289 1.584.253 1.916-.079s-.258-.568-1.312-.525c-1.165.048-1.402.285-.604.604m43 0c.721.289 1.584.253 1.916-.079s-.258-.568-1.312-.525c-1.165.048-1.402.285-.604.604m-47 1c.721.289 1.584.253 1.916-.079s-.258-.568-1.312-.525c-1.165.048-1.402.285-.604.604M129 13c.825.533 1.95.969 2.5.969s.325-.436-.5-.969-1.95-.969-2.5-.969-.325.436.5.969m-63 1c-.825.533-1.05.969-.5.969s1.675-.436 2.5-.969 1.05-.969.5-.969-1.675.436-2.5.969m-8.25 3.572c-3.877 2.103-3.438 2.829.5.827 3.77-1.918 4.437-2.414 3.167-2.359-.504.022-2.154.711-3.667 1.532M43.872 26.75c-1.243 1.586-1.208 1.621.378.378C45.916 25.821 46.445 25 45.622 25c-.207 0-.995.788-1.75 1.75M155 26.378c0 .207.787.995 1.75 1.75 1.586 1.243 1.621 1.208.378-.378-1.307-1.666-2.128-2.195-2.128-1.372M34.473 35.25 27.5 42.5l7.25-6.973C41.484 29.05 42.457 28 41.723 28c-.152 0-3.415 3.262-7.25 7.25M164.5 35c2.709 2.75 5.15 5 5.425 5s-1.716-2.25-4.425-5-5.15-5-5.425-5 1.716 2.25 4.425 5m7 8c.995 1.1 2.035 2 2.31 2s-.315-.9-1.31-2-2.035-2-2.31-2 .315.9 1.31 2M25.872 44.75c-1.243 1.586-1.208 1.621.378.378.962-.755 1.75-1.543 1.75-1.75 0-.823-.821-.294-2.128 1.372M174 46.378c0 .207.787.995 1.75 1.75 1.586 1.243 1.621 1.208.378-.378-1.307-1.666-2.128-2.195-2.128-1.372m8.086 14.065c6.15 13.124 8.174 24.649 7.684 43.753-.222 8.632-.036 15.468.413 15.191.449-.278.817.068.817.768 0 .869.536.738 1.685-.411 1.322-1.323 1.778-4.148 2.123-13.149.518-13.527-.295-20.595-2.369-20.595-.792 0-1.439-.877-1.439-1.948 0-3.348-5.081-18.243-8.631-25.302-4.809-9.563-5.006-8.385-.283 1.693M17.633 57.75c-1.321 2.612-3.625 8.35-5.122 12.75S9.542 79.175 9.238 80s-.453 2.104-.331 2.842c.123.738-.594 1.941-1.592 2.672C5.703 86.695 5.5 88.503 5.5 101.672c0 11.075.364 15.461 1.439 17.328l1.438 2.5.599-2.469c.493-2.03.844-1.452 1.973 3.256 1.713 7.142 2.619 6.774 1.124-.458L10.457 114c-.77-3.742-.341-33.5.483-33.5.109 0 .368-1.3.576-2.89.207-1.589.694-3.614 1.081-4.5.387-.885.863-2.432 1.059-3.438.195-1.005 1.898-5.167 3.784-9.25 3.81-8.245 3.943-10.091.193-2.672m119.566 19.206c-3.424.842-5.402 2.044-3.366 2.044.659 0 1.167 1.471 1.167 3.378 0 1.857.67 3.933 1.489 4.613s1.266 1.596.994 2.036c-.69 1.117 5.212.199 10.066-1.566 3.886-1.414 4.031-1.622 3.613-5.203-.398-3.403-.288-3.608 1.247-2.334.925.768 1.442 2.023 1.148 2.788-.294.766-.089 1.117.454.781.544-.336.989-1.413.989-2.394 0-2.914-11.714-5.641-17.801-4.143m-42.808.868c.353.571.157 1.338-.436 1.704-4.024 2.486-2.262 12.363 2.244 12.586 1.266.063 3.597.265 5.181.45 3.926.458 6.643-2.842 6.409-7.783-.155-3.266-.61-3.891-3.733-5.128-5.302-2.101-10.433-3.072-9.665-1.829m49.276 1.843c-1.465 1.465-.622 4.333 1.274 4.333 2.553 0 3.535-1.721 2.023-3.544-1.321-1.591-2.269-1.818-3.297-.789m-6.941.941c-.665.664 1.364 4.392 2.39 4.392.348 0 .634-1.125.634-2.5 0-2.315-1.601-3.316-3.024-1.892m-41.28 1.479c-1.03 1.668 1.287 3.58 2.667 2.2C99.267 83.133 98.545 81 97 81c-.485 0-1.184.489-1.554 1.087M192 83c0 1.1.408 2 .906 2s.671-.9.384-2-.696-2-.907-2c-.21 0-.383.9-.383 2m-89.554 1.087c-.369.598-.21 1.549.354 2.113 1.262 1.262 3.2.196 3.2-1.759 0-1.684-2.574-1.94-3.554-.354m-5.752 2.552c-.799.799.104 2.361 1.365 2.361.518 0 .941-.675.941-1.5 0-1.546-1.18-1.987-2.306-.861M7.158 89c0 1.375.227 1.938.504 1.25.278-.687.278-1.812 0-2.5-.277-.687-.504-.125-.504 1.25m123.655.683c.721.289 1.584.253 1.916-.079s-.258-.568-1.312-.525c-1.165.048-1.402.285-.604.604m61.266 3.9c.048 1.165.285 1.402.604.605.289-.722.253-1.585-.079-1.917s-.568.258-.525 1.312M155 103.5c0 .825.177 1.5.393 1.5s.652-.675.969-1.5.139-1.5-.393-1.5c-.533 0-.969.675-.969 1.5m44.09 7.122c-.131 6.002-4.369 21.833-7.972 29.779-14.47 31.912-46.118 54.914-80.618 58.591-3.85.41 14.825.693 41.5.627l48.5-.119.261-43.319c.146-24.299-.144-44.716-.66-46.5l-.921-3.181zM1.055 158.75 1 200l47.75-.133c31.516-.088 45.091-.414 39.928-.959-11.429-1.207-21.862-4.321-33.178-9.904-26.247-12.949-45.094-36.046-52.515-64.354L1.11 117.5zm185.509-32.043c-.542 1.425-.428 1.54.56.56.684-.679.991-1.486.683-1.793-.308-.308-.867.247-1.243 1.233M87 183.383c0 .211.9.619 2 .907 1.1.287 2 .115 2-.384 0-.498-.9-.906-2-.906s-2 .173-2 .383m43.459.684c-.363.586-.445 1.281-.183 1.543s.743-.218 1.069-1.067c.676-1.762.1-2.072-.886-.476M68 185.393c0 .216.698.661 1.552.989.89.341 1.291.173.941-.393-.587-.951-2.493-1.406-2.493-.596m59 .607c0 .55.477 1 1.059 1s.781-.45.441-1-.816-1-1.059-1-.441.45-.441 1m-3.53 1.049c-.368.594-1.861.96-3.319.813s-3.551.292-4.651.977c-1.705 1.061-1.336 1.146 2.5.576 5.978-.89 8.634-1.905 7.24-2.767-.606-.374-1.403-.194-1.77.401m-48.47.942c3.341 1.082 5 1.168 4.998.259-.001-.412-1.689-.822-3.75-.91-3.198-.136-3.381-.041-1.248.651M81 189c0 .55.477 1 1.059 1s.781-.45.441-1-.816-1-1.059-1-.441.45-.441 1m6 1.182c0 .45 1.35.818 3 .818s3-.368 3-.818-1.35-.818-3-.818-3 .368-3 .818m15-.118-8.5.563 9.75.187c5.362.102 9.75-.189 9.75-.647 0-.459-.562-.796-1.25-.75zm-4.238 2.643c1.244.239 3.044.23 4-.02s-.062-.446-2.262-.435-2.982.216-1.738.455"/></svg>