<svg xmlns="http://www.w3.org/2000/svg" width="24" height="24" fill="#000000"><path fill="#3d3d3d" d="m12.165 2.821.5.326.997-.614.922-.288.883-.153h1.017l.844.153.98.403.69.442.576.537.422.749.058.326.691.192.806.307.403.327.173.268.576.288.269.192.23.384v.48l.365.23.268.442.096.614-.25.864v.326l-.153.46-.46.384-.615.25-.153.326-.326.403.364.442.307.499.25.595.173.71.287.058.327.23.057.365-.134.345-.384.384-.73.422.212.538.153.652-.076.73-.346.73-.69.575-.711.365-.768.71-1.44.73-1.67.537-1.976.326-.883.038-2.726-.038-1.689-.154-1.804-.307-1.286-.307-.998-.288-1.286-.48-1.325-.69-.94-.653-.595-.576-.634-.71-.518-.902-.288-.922-.115-.94-.038-1.229.172-1.113.308-.94.403-.998.633-.999.595-.767.768-.691.518-.327.518-1.305.653-1.17.94-1.114.787-.595 1.382-.749 1.037-.345h1.305l1.363.307.73.403Z"/><path fill="#000000" d="m8.864 8.31-1.19.71-.058.096.288.212.864.556 1.094.538 1.056.307.787.173 1.113.076 1.248-.134.806-.192.748-.384.5-.518.191.077 1.977.46 1.824.02 1.516-.192 1.286-.288.614-.423.25-.383.134-.576-.057-.595-.327-.519-.345-.23-1.478-.25h-1.44l-1.094.135-1.056.288-1.094.46-.71.346-.115-.346-.576-.537-.998-.269-1.19-.057-1.017.057-1.19.346-1.344.46-1.017.576Z"/><path fill="#828282" d="m6.427 16.775-.422-.384-.212-.307-.268-.48-.096-.48.172-.537.365-.442.46-.134h.96l.768.077 1.401.172 3.551.384 2.975.154h2.227l1.727-.23 1.766-.423 1.075-.403h.538l.288.288.057.346-.23.364-.422.442-.595.326.21.557.154.69-.057.365-.154.538-.384.633-.422.346-.825.403-.634.153-1.593.25-1.036.077-1.402-.039h-1.535l-.902-.115-1.229-.211-1.516-.326-1.267-.327-1.152-.345-.998-.422-.652-.384-.691-.576Z"/><path fill="#3d3d3d" d="M12.396 17.139 9.69 16.083h-.022l.099-.268 2.84.326 2.054.192h1.747l1.785-.058.768.691-2.323.633h-1.977l-2.265-.46Z"/><path fill="#000000" fill-rule="evenodd" d="M7.324 2.587c.663-.334 1.21-.502 1.766-.542.19-.014.545-.014.788 0 1.027.057 1.78.304 2.446.8l.015.01c.176.132.258.193.337.19.069-.003.136-.055.26-.152l.012-.01c.343-.266.99-.545 1.64-.707 1.312-.326 2.535-.2 3.678.381.947.481 1.51 1.07 1.806 1.882l.084.23.225.05c.879.194 1.464.517 1.77.975.06.09.146.16.235.189.168.055.44.201.607.325.177.133.282.377.282.66 0 .22.008.24.105.292.247.129.483.486.575.869.056.232.058.308.017.545a2.605 2.605 0 0 1-.14.488c-.06.141-.097.311-.107.502-.03.541-.287.83-.99 1.108-.191.076-.224.106-.314.29a1.887 1.887 0 0 1-.223.344l-.122.14.135.148c.36.398.626.967.93 1.985.006.023.073.053.147.065.284.046.525.337.523.63-.002.34-.326.736-.879 1.076l-.305.189c-.008.006.05.206.13.444.154.463.198.802.138 1.141a1.987 1.987 0 0 1-.078.294c-.16.464-.34.775-.598 1.033-.192.191-.301.261-.652.416-.233.102-.433.203-.447.224-.077.126-.541.553-.776.715-1.228.849-3.136 1.447-5.224 1.64-1.12.102-3.232.066-4.686-.08-2.763-.28-5.441-1.049-7.036-2.02a2.442 2.442 0 0 0-.26-.147c-.01 0-.179-.114-.373-.254C1.323 17.91.583 16.955.224 15.667c-.05-.18-.1-.386-.111-.46A8.279 8.279 0 0 1 0 13.709c-.001-.804.052-1.19.267-1.938a8.123 8.123 0 0 1 1.04-2.303c.606-.935 1.153-1.52 1.98-2.107.012-.017.021-.024.024-.017l.092-.065c.09-.061.137-.156.241-.476.223-.684.768-1.707 1.25-2.346.49-.65 1.222-1.268 1.893-1.6.084-.041.326-.163.537-.27Zm11.928.81c-.54-.533-1.565-1.044-2.375-1.185-.418-.073-1.18-.1-1.549-.057-.508.061-1.197.26-1.692.49-.307.141-.776.433-.825.513-.013.02.042.093.122.16.266.225.574.543.676.698.13.2.453.948.453 1.052 0 .044.017.08.038.08.021 0 .038.027.038.058 0 .081.073.073.321-.037a7.57 7.57 0 0 1 1.848-.541c.549-.086 2.333-.113 3.043-.046.309.029.562.037.581.018.097-.097-.34-.87-.679-1.204Zm-7.647-.83a5.51 5.51 0 0 0-1.075-.32c-.405-.072-1.355-.101-1.69-.051-.724.107-2.253.842-2.974 1.43-.254.207-.657.62-.853.876-.28.364-.79 1.23-1.003 1.703a6.47 6.47 0 0 0-.337.972c-.12.474-.245 1.24-.245 1.506 0 .08-.019.113-.063.113-.056 0-.06-.039-.04-.317.012-.174.05-.47.083-.658.033-.187.053-.349.043-.358-.052-.052-.697.44-1.036.79-.384.396-.843.985-1.05 1.35-.04.067-.127.22-.202.35l-.001.003-.01.016-.007.014c-.128.222-.27.514-.453.921-.182.408-.462 1.473-.529 2.01-.058.469-.028 1.627.056 2.118.288 1.695 1.214 2.942 3.032 4.083.302.19 1.13.61 1.444.733.116.046.263.107.326.136.224.103.659.254 1.152.402 1.274.38 2.547.636 4.107.825 1.127.137 3.68.191 4.741.1 1.06-.09 2.326-.342 3.172-.63 1.057-.362 1.778-.736 2.402-1.248.328-.269.315-.278-.241-.162a26.73 26.73 0 0 1-1.186.195l-.825.119-1.786-.017c-.982-.009-1.863-.028-1.958-.042l-.626-.095-.046-.006c-1.282-.193-3.336-.642-4.415-.964-1.144-.343-2.1-.758-2.407-1.047a2.94 2.94 0 0 0-.26-.214c-.143-.101-.146-.103-.553-.445-.282-.237-.678-.735-.8-1.006a1.7 1.7 0 0 1-.103-.355c-.087-.551.259-1.226.71-1.385.186-.066 1.651-.07 2.09-.005 3.633.53 6.11.753 8.406.754 1.433.001 1.812-.023 3.014-.192.21-.03 1.352-.269 1.727-.362.169-.042.605-.183.97-.313l.127-.046c.342-.121.483-.171.519-.263.025-.065-.003-.15-.051-.297l-.025-.078c-.223-.695-.437-1.128-.726-1.463-.17-.198-.19-.201-.428-.086-.157.075-.755.235-1.14.304-.442.08-1.385.076-1.79-.005-.047-.01-.086-.045-.086-.079 0-.05.033-.056.183-.039.52.06 1.13.072 1.433.026.424-.064 1.127-.242 1.375-.349.285-.122.668-.575.57-.672-.01-.01-.163.015-.34.055-.625.143-1.594.237-2.414.232-.57-.002-.643-.01-1.352-.133-.226-.04-.422-.06-.435-.047-.014.013.155.203.376.42.465.46.853.966.816 1.063l-.003.006c-.005.015-.01.026-.017.029-.026.01-.09-.071-.377-.434l-.039-.049c-.303-.384-.687-.754-1.253-1.207a4.459 4.459 0 0 0-.663-.43c-.179-.094-.27-.213-.162-.213.083 0 .492.233.795.453.315.228.317.229.595.232.154.002.443.039.644.081.303.065.506.078 1.209.077 1.03-.002 1.756-.082 2.438-.27.158-.044.33-.089.383-.1.169-.037.706-.302.837-.414a.975.975 0 0 0 .2-.25c.068-.134.115-.436.073-.477-.01-.01-.104.05-.209.132-.6.474-2.16.767-4.091.767-1.156 0-1.767-.097-2.732-.434-.207-.072-.385-.116-.396-.097a.828.828 0 0 0-.015.234c.003.11.005.237.003.281-.009.212-.432.626-.823.805-.29.132-.871.278-1.453.364-.401.059-.718.075-1.477.075-1.224 0-1.857-.083-2.66-.347-.739-.243-1.652-.713-1.652-.849 0-.072.135-.023.44.161.177.106.43.237.564.291.134.054.295.122.359.15.176.077.819.271 1.055.318.658.129.82.141 1.9.14.873-.002 1.196-.017 1.494-.069.584-.101 1.13-.246 1.394-.37.275-.128.612-.424.688-.604.06-.143.07-.356.016-.356-.02 0-.163.095-.317.212a3.47 3.47 0 0 1-1.22.593c-.453.11-1.578.206-2.054.177-.754-.046-1.85-.299-2.605-.6-.34-.136-1.298-.63-1.421-.731a8.527 8.527 0 0 0-.332-.227c-.158-.104-.327-.22-.376-.255-.084-.061-.102-.06-.307.004-.12.038-.335.078-.477.089-.248.018-.262.014-.366-.097-.134-.144-.15-.31-.047-.51.084-.165.218-.263.627-.457.325-.155.719-.395.944-.576.335-.268.88-.602 1.464-.895a9.316 9.316 0 0 1 1.667-.668c.826-.26.968-.283 1.881-.306l1.053-.027c.128-.004.214-.025.224-.055.009-.027-.085-.148-.208-.269-.297-.292-.842-.562-1.453-.72-.632-.165-2.214-.227-2.91-.115-.64.103-1.765.48-2.533.848-.256.123-.334.135-.334.051 0-.067 1.12-.54 1.823-.77.73-.24 1.145-.3 2.054-.3 1.41 0 2.094.122 2.889.518.312.155.32.134.134-.292-.273-.625-.575-1.005-1.124-1.415a3.753 3.753 0 0 1-.267-.212c-.056-.06-.63-.418-.787-.49Zm9.77 2.638c-.418-.229-1.022-.383-1.862-.477-.51-.056-1.846-.079-2.419-.04-.855.057-1.305.14-1.985.369-.246.082-.771.304-.81.342-.016.015.19.336.238.37.02.013.149.036.288.05.428.042.816.214 1.084.482.19.19.253.221.323.16.047-.042.61-.278.958-.402.281-.1 1-.263 1.459-.33.995-.148 1.945-.154 3.125-.02.13.014.233.01.232-.008-.004-.06-.394-.365-.632-.496Zm1.612 1.207c-.222-.272-.702-.465-1.478-.594-.417-.069-2.051-.067-2.591.004-.607.079-1.315.234-1.739.382-.535.186-1.006.406-1.006.469 0 .029.029.116.064.195.047.105.065.265.07.6.003.288.02.464.046.473.022.007.263-.095.535-.229.847-.415 1.317-.577 2.222-.767.567-.12.592-.12 1.689-.123 1.116-.003 1.52.028 2.03.156.123.031.249.047.278.036.11-.042.036-.41-.12-.602Zm-6.995.258c-.16-.32-.412-.513-.84-.645-.239-.074-.367-.084-1.282-.092-.56-.005-1.18.007-1.38.027-.806.08-1.973.455-2.884.925-.782.405-.982.522-1.322.777-.49.366-.77.543-1.174.743-.42.207-.573.353-.573.55 0 .128.15.263.292.263.192 0 .682-.154.783-.246.12-.11 1.253-.77 1.862-1.086.626-.325 2.126-.834 2.92-.992.695-.137 1.707-.108 2.602.075.49.1.784.227 1.007.43.077.071.155.12.173.109.079-.049-.024-.52-.184-.838Zm3.439-.393c.245-.014.453-.031.462-.04.01-.007.35-.013.756-.013.502 0 .749.013.767.042.055.09-.108.11-.944.112-.475 0-1.036.018-1.247.039-.771.075-1.525.28-2.32.633-.218.096-.405.167-.415.156-.046-.046.034-.134.188-.207a7.293 7.293 0 0 1 2.753-.722Zm-5.12.167c-.436-.012-.572-.044-.474-.112.145-.101 1.548.064 1.596.188.037.095-.021.098-.362.017a4.08 4.08 0 0 0-.76-.093Zm-4.146.583a10.577 10.577 0 0 1 2.483-.683c.015-.003.039.014.053.038.038.06-.046.102-.27.131a8.414 8.414 0 0 0-1.217.27c-.478.154-1.517.565-1.874.743-.294.147-.384.165-.384.076 0-.045.583-.322 1.21-.575Zm5.503.27c-.19-.099-.662-.217-1.146-.287-.504-.073-1.392-.102-1.749-.056-.555.07-1.379.297-2.09.575a7.399 7.399 0 0 1-.307.113 6.978 6.978 0 0 0-.844.36c-1.089.583-1.785 1.007-1.785 1.086 0 .083.146.188.844.6l.009.006c.448.265.616.364.793.447.105.05.214.093.388.163l.006.003c.501.2.971.342 1.577.473.619.133 1.66.164 2.393.07.881-.111 1.397-.306 1.92-.725.45-.36.65-.957.577-1.738-.053-.58-.229-.907-.586-1.09Zm7.611-.053c-.155-.08-.664-.202-1.06-.253-.346-.044-1.95-.085-2.13-.055-.053.01-.252.036-.442.059a9.388 9.388 0 0 0-1.63.371c-.533.173-1.677.739-1.659.819.046.193.005.927-.067 1.203a2.335 2.335 0 0 0-.07.312c.005.005.204.071.443.148.965.31 1.608.406 2.72.406.427 0 .786-.014.797-.032.01-.017-.05-.1-.136-.182-.395-.382-.55-.77-.523-1.311.015-.298.038-.394.138-.598.156-.318.436-.604.74-.758.212-.108.295-.127.612-.143.445-.022.7.041 1.01.25.707.478.918 1.393.5 2.163-.058.104-.093.2-.08.214.042.041.38-.067.625-.2.286-.157.527-.412.661-.7.09-.192.102-.268.103-.622 0-.388-.005-.412-.13-.633-.14-.248-.253-.372-.422-.458ZM11.966 8.489c.187-.55.716-1.005 1.25-1.076.316-.041.394-.041.613 0 .288.055.566.206.802.435.79.769.596 2.07-.388 2.603-.197.107-.237.126-.524.13-.136.018-.276.018-.417-.002-.248-.005-.316-.026-.481-.103a1.788 1.788 0 0 1-.812-.855 1.76 1.76 0 0 1-.043-1.132Zm9.079-.216c.047-.173.004-.288-.147-.396-.33-.235-.703-.042-.633.329.034.185.21.321.413.321.203 0 .318-.08.366-.254Zm-7.598.058c0-.13-.02-.163-.159-.264a.537.537 0 0 0-.278-.115c-.51.005-.488.699.025.756.166.02.19.01.296-.103.088-.094.116-.16.116-.274Zm8.853.644c.118-.137.125-.376.015-.486-.173-.173-.597-.027-.62.213-.023.255.077.362.352.373.133.005.178-.012.253-.1ZM14.765 8.9c0-.097-.022-.204-.05-.237-.032-.039-.114-.06-.239-.06-.159 0-.209.02-.302.113-.08.08-.112.15-.112.244 0 .17.102.262.317.286.139.016.186.003.277-.075.09-.078.11-.124.11-.271Zm6.352 1.117c.083-.084.056-.332-.048-.436-.109-.109-.292-.125-.383-.034-.092.092-.082.424.014.476.101.054.36.05.417-.006Zm-7.618.167c.131-.145.05-.437-.14-.503a.71.71 0 0 0-.157-.04c-.19.003-.29.386-.139.537.1.1.348.104.436.006Zm-.244 1.893c.439-.105.976-.286 1.134-.383.164-.1.231-.116.266-.06.073.118-.832.473-1.572.617-.565.11-2.831.075-3.56-.056-.401-.071-.682-.168-.682-.235 0-.07.102-.07.305.002.495.175 2.183.29 3.208.22.358-.025.764-.072.901-.105Zm-9.41 2.42c.054-.282.227-.657.37-.797a.448.448 0 0 1 .137-.106c.074 0 .065.072-.019.15-.123.117-.32.558-.372.833-.05.27-.024.676.064.994.106.379.109.403.044.403-.165 0-.315-.988-.223-1.476Zm19.821-.14c.037-.201-.007-.336-.155-.47-.11-.1-.522-.127-.672-.045a.519.519 0 0 1-.154.06c-.024 0-.26.08-.524.175a12.616 12.616 0 0 1-1.957.52c-.462.094-.61.117-.96.153l-.71.075c-.25.027-.757.047-1.325.057-.124.003-.252.005-.381.005-.684.007-1.39 0-1.807-.023a74.824 74.824 0 0 1-5.278-.505c-.596-.077-.687-.09-1.075-.152-.4-.065-.821-.109-1.205-.13a27.755 27.755 0 0 0-.924.001 2.45 2.45 0 0 0-.164.02c-.45.07-.633.236-.798.727-.09.27-.096.455-.02.712.054.18.27.556.336.585.017.007.03.034.03.061 0 .084 1.016.996 1.275 1.144.046.027.12.08.163.118.108.096.994.526 1.084.526.04 0 .09.015.11.033.02.019.105.055.19.08.084.025.188.06.23.079.109.047.818.256.979.288.074.015.203.05.288.077.084.027.395.104.69.172l.845.194c.381.088 1.272.265 1.555.308.499.077.773.118 1.152.174.296.044.842.065 2.054.08 1.551.018 1.686.014 2.245-.065.327-.047.708-.099.845-.117a12.22 12.22 0 0 0 1.132-.222c.374-.111 1.132-.474 1.3-.622.259-.227.505-.638.64-1.068.138-.443.076-1.076-.155-1.593l-.014-.031c-.027-.061-.044-.1-.074-.12-.05-.034-.139-.013-.378.045l-.071.017c-.137.033-.396.088-.576.124-.18.035-.337.07-.35.078-.012.007.026.111.087.231.124.246.145.525.054.702-.134.26-.487.467-1.039.611-.27.07-.472.115-1.26.276-.242.05-3.197.05-4.018 0-.66-.04-.764-.054-1.708-.218a231.24 231.24 0 0 0-.749-.13c-.578-.097-1.985-.42-2.351-.54a1.763 1.763 0 0 0-.268-.072 5.5 5.5 0 0 1-.663-.193 6.675 6.675 0 0 0-.346-.116 1.628 1.628 0 0 1-.305-.118.146.146 0 0 0-.085-.034c-.027 0-.166-.052-.31-.117-.72-.326-1.12-.567-1.122-.678 0-.046.03-.101.068-.122.075-.04.512.002.781.074.084.023.277.056.429.074.152.018.466.06.698.094 1.377.2 1.731.245 3.781.48.18.022.586.057.902.079l1.115.079c1.281.09 3.214-.005 4.605-.226 2.83-.451 3.185-.543 3.744-.97.369-.282.5-.45.544-.69Zm-11.734 1.77c-.254-.02-.678-.063-.942-.095-.264-.033-.6-.068-.748-.08-.26-.02-.265-.018-.163.04.058.034.222.097.364.14.143.043.311.101.375.13.126.056.459.178.787.287.223.074.505.178.633.234.261.113 1.603.512 2.111.627.738.167 1.847.226 2.323.123.362-.079.71-.214.976-.38.35-.22.67-.744.494-.812-.035-.013-.315-.003-.623.022-.747.06-2.375.064-3.112.006-1.025-.081-1.898-.164-1.957-.186a5.018 5.018 0 0 0-.518-.057Z" clip-rule="evenodd"/></svg>