<!-- Generated by IcoMoon.io -->
<svg version="1.1" xmlns="http://www.w3.org/2000/svg" width="32" height="32" viewBox="0 0 32 32" fill="#000000">
<title>perp</title>
<path fill="#cfcfcf" d="M11.779 2.572c0.54-0.54 1.415-0.54 1.955 0l8.59 8.59-3.189 3.189-6.378-6.378-6.378 6.378 3.189 3.189 3.189-3.189 3.189 3.189-3.189 3.189 5.401 5.401c0.54 0.54 0.54 1.415 0 1.955l-1.235 1.234c-0.54 0.54-1.415 0.54-1.955 0l-13.991-13.991c-0.54-0.54-0.54-1.415 0-1.955l10.802-10.802z"/>
<path fill="#4a4a4a" d="M18.16 2.572c0.54-0.54 1.415-0.54 1.955 0l10.802 10.802c0.54 0.54 0.54 1.415 0 1.955l-13.991 13.991c-0.54 0.54-1.415 0.54-1.955 0l-2.212-2.212 6.378-6.378-6.378-6.378 3.189-3.189 6.378 6.378 3.189-3.189-9.568-9.568 2.212-2.212z"/>
<path fill="#8a8a8a" d="M12.757 7.974l3.189 3.189-3.189 3.189-3.189-3.189 3.189-3.189z"/>
<path fill="#cfcfcf" opacity="0.95" d="M19.137 7.974l3.189 3.189-3.189 3.189-3.189-3.189 3.189-3.189z"/>
</svg>
