<svg xmlns="http://www.w3.org/2000/svg" width="200" height="200" fill="#000000"><path fill-opacity=".161" fill-rule="evenodd" d="M85.06 19.323c-7.942 4.574-14.58 8.736-14.751 9.25-.172.515 7.226 5.272 16.44 10.573 9.213 5.301 24.231 13.962 33.373 19.246S137.251 68 137.872 68c.794 0 1.128-5.114 1.128-17.274V33.452l-19.373-11.226c-10.656-6.174-19.543-11.224-19.75-11.222s-6.875 3.746-14.817 8.319M55.958 36.16A4880 4880 0 0 1 36.75 47.155L28 52.127v35.957l4.75-2.69c2.613-1.48 5.757-3.305 6.987-4.057 1.23-.751 11.13-6.482 22-12.734C94.619 49.688 96 48.857 96 47.989c0-.611-20.384-12.937-29.042-17.561-.299-.159-5.249 2.42-11 5.732M141 74.925c0 22.041.219 40.075.487 40.075s7.243-3.881 15.5-8.624L172 97.752l-.013-22.626-.012-22.626-10.238-5.959c-5.63-3.277-12.6-7.248-15.487-8.825L141 34.85zm-52.5.933-10 5.796-.279 12.532-.279 12.532 9.279 5.323c5.104 2.927 10.016 5.767 10.916 6.311 1.256.758 4.056-.383 12-4.889 5.7-3.233 10.701-6.347 11.114-6.921s.639-6.371.5-12.885l-.251-11.842-10.243-5.908c-5.634-3.249-10.809-5.893-11.5-5.876S94 72.67 88.5 75.858m-46.231 26.458L28.038 110.5l.231 36.314.231 36.315 14.474 8.356c7.96 4.596 14.823 8.141 15.25 7.877S59 175.284 59 146.441c0-41.321-.265-52.427-1.25-52.375-.687.036-7.654 3.748-15.481 8.25m124.731.852c-1.925 1.188-16.929 9.89-33.341 19.338-16.413 9.447-29.864 17.583-29.893 18.078s2.15 2.206 4.841 3.8C123.588 153.259 132.105 158 133.065 158c.596 0 9.591-4.838 19.99-10.75l18.908-10.75.018-17.75c.011-9.763-.319-17.748-.731-17.746s-2.325.976-4.25 2.164M61 137.852v17.852l19.25 11.019 19.25 11.02 5-2.689c9.78-5.259 25.5-14.533 25.494-15.039-.004-.283-1.466-1.363-3.25-2.399s-10.444-6.04-19.244-11.12-22.708-13.12-30.906-17.866S61.533 120 61.344 120 61 128.033 61 137.852"/><path fill-opacity=".341" fill-rule="evenodd" d="M84.789 19.804c-8.092 4.682-14.518 8.825-14.282 9.207s5.282 3.437 11.212 6.787 20.898 11.966 33.264 19.146S137.822 68 138.257 68s.667-7.726.517-17.17l-.274-17.169-8.5-4.949c-4.675-2.722-12.55-7.315-17.5-10.206s-9.9-5.697-11-6.235c-1.638-.801-4.665.564-16.711 7.533M46.766 41.762 28.032 52.5l-.016 17.25c-.009 9.487.238 17.25.549 17.25.31 0 11.223-6.149 24.25-13.665a18546 18546 0 0 1 33.432-19.25c5.362-3.072 9.747-5.81 9.746-6.085-.002-.676-28.436-17.003-29.584-16.988-.5.007-9.339 4.844-19.643 10.75M141 74.927c0 28.405.309 39.073 1.131 39.073.623 0 7.582-3.713 15.465-8.25l14.334-8.25-.008-22.5-.007-22.5-14.183-8c-7.801-4.4-14.756-8.145-15.457-8.323-1.017-.258-1.275 7.586-1.275 38.75m-51.738.843L79.025 81.5l.237 12.862.238 12.862 10.175 5.877 10.175 5.877 10.604-6.137 10.604-6.137-.279-12.556-.279-12.557-10-5.772c-5.5-3.174-10.225-5.773-10.5-5.775s-5.107 2.575-10.738 5.726M42.75 102.641 28 111.194v71.371l14.533 8.351c7.993 4.593 14.747 8.137 15.009 7.875s.359-23.927.217-52.59L57.5 94.087zm108.103 10.369c-11.356 6.55-26.408 15.232-33.449 19.295s-12.929 7.794-13.086 8.291c-.156.497 6.234 4.657 14.202 9.244l14.486 8.34 6.247-3.47c11.023-6.123 31.222-17.874 32.021-18.628.426-.402.651-8.437.5-17.855l-.274-17.125zm-89.627 25.171.274 17.181 5 2.943C83.832 168.504 98.965 177 99.799 177 101.29 177 129 160.817 129 159.946c0-.421-5.737-4.034-12.75-8.028s-21.885-12.586-33.05-19.091C72.034 126.322 62.461 121 61.926 121c-.604 0-.869 6.521-.7 17.181"/><path fill-opacity=".688" fill-rule="evenodd" d="M96.5 13.385c-1.1.733-7.287 4.389-13.75 8.123s-11.74 7.06-11.727 7.39 8.45 5.392 18.75 11.247 25.365 14.503 33.477 19.217L138 67.933l-.033-17.216-.033-17.217-17.961-10.342c-9.878-5.688-18.751-10.514-19.717-10.725s-2.656.218-3.756.952M47 41.963 28.5 52.75l-.274 17.125c-.15 9.419-.098 17.125.115 17.125s9.787-5.449 21.274-12.109A167605 167605 0 0 1 82.75 55.682C89.488 51.777 95 48.291 95 47.935c0-.722-27.863-16.985-28.864-16.848-.35.049-8.961 4.942-19.136 10.876m95 32.981v39.107l2.75-1.438c1.512-.791 8.15-4.584 14.75-8.428l12-6.99.269-22.003.269-22.003-11.769-6.714c-6.473-3.692-13.232-7.596-15.019-8.676L142 35.837zm-52.5 1.115-10 5.792-.278 12.381-.279 12.382 10.086 5.755c5.547 3.166 10.622 5.615 11.278 5.443.656-.171 5.58-2.787 10.942-5.812l9.749-5.5.001-12.058.001-12.059-10.25-5.859c-5.638-3.223-10.475-5.949-10.75-6.058s-5 2.408-10.5 5.593m-47.262 27.219-14.263 8.218.263 35.434.262 35.434 14.339 8.318c7.887 4.575 14.524 8.318 14.75 8.318S58 175.6 58 147s-.337-51.986-.75-51.97c-.413.017-7.168 3.728-15.012 8.248M143.5 117.636c-14.85 8.577-29.813 17.16-33.252 19.072-3.438 1.913-6.034 3.829-5.768 4.259.707 1.144 27.704 16.372 28.957 16.334.585-.018 8.263-4.221 17.063-9.339s17.235-10.016 18.744-10.884l2.743-1.578.007-16.75c.003-9.213-.332-16.741-.744-16.73s-12.9 7.038-27.75 15.616m-82.274 20.339.274 17.158 19.155 10.98 19.154 10.979 14.567-8.296c8.011-4.563 14.57-8.521 14.574-8.796.008-.469-64.941-38.104-67.031-38.841-.605-.214-.865 6.075-.693 16.816"/><path fill-opacity=".955" fill-rule="evenodd" d="M87 19.325c-6.875 4.013-13.333 7.762-14.351 8.332-1.599.895-.718 1.69 6.5 5.865C83.742 36.178 92.675 41.341 99 44.996s17.442 10.101 24.705 14.325S137.155 67 137.455 67s.545-7.405.545-16.455V34.089l-6.75-3.934c-3.713-2.164-12.233-7.134-18.935-11.045s-12.327-7.104-12.5-7.096-5.94 3.298-12.815 7.311M47.24 42.249 28 53.264V87.23l2.252-1.476c2.559-1.676 43.991-25.602 56.495-32.623 4.536-2.547 8.248-4.856 8.249-5.131s-4.16-2.846-9.247-5.714c-5.087-2.867-11.503-6.527-14.259-8.133l-5.009-2.919zM142 75.452v38.453l15-8.635 15-8.634-.015-21.568-.016-21.568-14.331-8.25c-7.882-4.538-14.625-8.25-14.985-8.25S142 54.304 142 75.452m-53.236 1.341L79.027 82.5l-.007 12-.007 12 6.744 3.737c3.709 2.055 8.37 4.697 10.358 5.87l3.616 2.132 10.163-5.777 10.163-5.777-.278-12.441-.279-12.441-9.394-5.401c-5.167-2.971-9.892-5.383-10.5-5.359s-5.487 2.612-10.842 5.75M42.5 103.517l-14 8.064-.263 35.083-.262 35.084 14.176 8.129c7.797 4.471 14.332 7.973 14.522 7.783s.229-23.264.086-51.276L56.5 95.453zm116 5.697c-6.6 3.864-21.553 12.539-33.228 19.279l-21.229 12.255 14.164 8.126c7.79 4.469 14.642 8.109 15.228 8.089.586-.021 9.39-4.907 19.565-10.858l18.5-10.821.274-16.642c.151-9.153-.074-16.599-.5-16.547s-6.174 3.256-12.774 7.119m-96.274 29.408.274 16.622 6.5 3.726c3.575 2.048 11.675 6.775 18 10.503s11.982 6.796 12.571 6.819c1.309.051 28.437-15.451 28.409-16.234-.022-.626-3.048-2.437-31.48-18.836C66.43 123.878 63.11 122 62.506 122c-.305 0-.431 7.48-.28 16.622"/></svg>