<svg xmlns="http://www.w3.org/2000/svg" width="64" height="64" fill="#000000"><path fill-opacity=".227" fill-rule="evenodd" d="M18.5 2.882C6.619 8.586.026 18.969.011 32c-.008 6.22.482 8.524 2.871 13.5C8.589 57.388 18.977 63.98 32 63.98c13.359 0 23.259-6.486 29.602-19.395 2.965-6.035 3.396-7.881 3.383-14.5-.011-5.267-.312-7.126-.985-6.085-.804 1.245-.976 1.16-1.008-.5-.062-3.225-5.275-11.841-7.992-13.211-1.375-.693-2.107-1.266-1.628-1.274 2.125-.036-2.392-3.578-7.872-6.173-8.563-4.054-18.503-4.039-27 .04m13.25 3.78c.688.278 1.813.278 2.5 0 .688-.277.125-.504-1.25-.504s-1.937.227-1.25.504M39.5 8c2.749 1.181 4.328 1.181 2.5 0-.825-.533-2.175-.945-3-.914-.989.036-.819.347.5.914M20.441 9.555c-1.83 1.467-1.798 1.487.559.365C24.061 8.462 24.628 8 23.358 8c-.537 0-1.849.7-2.917 1.555M15 9.393c0 .216.698.661 1.552.989.89.341 1.291.173.941-.393C16.906 9.038 15 8.583 15 9.393m13.232.173c.997.997 7.752 1.268 8.329.335.307-.496-1.57-.901-4.169-.901s-4.471.255-4.16.566M50 10c-.901.582-1.025.975-.309.985.655.008 1.469-.435 1.809-.985.767-1.242.421-1.242-1.5 0m-26.5 1c-1.71.735-1.746.87-.25.93.962.038 1.75.408 1.75.82s3.573.75 7.94.75c5.244 0 7.197-.278 5.75-.82-1.204-.451-4.558-.676-7.453-.5-3.897.237-5.137-.004-4.781-.93.547-1.422-.101-1.477-2.956-.25m14.86-.227c.336.544 1.776 1.211 3.201 1.483 3.055.584 1.992-.712-1.436-1.751-1.479-.448-2.145-.346-1.765.268M15 12.631c0 .677 7.137 3.565 7.619 3.083.221-.221-1.402-1.111-3.608-1.978C16.805 12.87 15 12.373 15 12.631M50 13c-.825.533-1.05.969-.5.969s1.675-.436 2.5-.969 1.05-.969.5-.969-1.675.436-2.5.969m-7.365 3.073c-1.449 1.139-2.619 2.827-2.6 3.75.026 1.198.43.964 1.416-.817.759-1.371 2.656-3.038 4.215-3.705 1.559-.666 2.107-1.231 1.219-1.256s-2.801.888-4.25 2.028m-31.556.51c.048 1.165.285 1.402.604.605.289-.722.253-1.585-.079-1.917s-.568.258-.525 1.312m18.311-.611c-1.71.395-4.185 1.482-5.5 2.415l-2.39 1.698 3.5-.493c1.925-.27 2.938-.252 2.25.041-.687.294-1.25 1.171-1.25 1.95 0 1.685-.506 1.752-3.031.4-1.586-.848-2.154-.526-3.435 1.951-.844 1.631-1.509 3.777-1.478 4.766.031.99.594.23 1.25-1.688 1.348-3.937 3.672-4.891 6.073-2.491.891.892 1.621 1.252 1.621.8s1.012-.875 2.25-.94c4.245-.226 8.831-1.129 9.54-1.879.391-.413-.303-.439-1.54-.059-1.67.514-2.25.288-2.25-.876 0-.862.627-1.567 1.393-1.567 1.508 0 2.97-2.685 1.813-3.33-1.825-1.017-6-1.348-8.816-.698m.423 2.711c.721.289 1.584.253 1.916-.079s-.258-.568-1.312-.525c-1.165.048-1.402.285-.604.604m5 0c.721.289 1.584.253 1.916-.079s-.258-.568-1.312-.525c-1.165.048-1.402.285-.604.604m-23.354 5.384c-.363.586-.445 1.281-.183 1.543s.743-.218 1.069-1.067c.676-1.762.1-2.072-.886-.476M.349 32c0 4.675.173 6.587.383 4.25.211-2.338.211-6.163 0-8.5-.21-2.338-.383-.425-.383 4.25m31.384-4.876c.679.684 1.486.991 1.793.683.308-.308-.247-.867-1.233-1.243-1.425-.542-1.54-.428-.56.56M10.158 29c0 1.375.227 1.938.504 1.25.278-.687.278-1.812 0-2.5-.277-.687-.504-.125-.504 1.25m-2.872 3.5c.008 2.75.202 3.756.432 2.236s.223-3.77-.014-5-.425.014-.418 2.764m29.369-1.25c.255.413 1.921.75 3.704.75s3.872.563 4.643 1.25c1.174 1.047 1.208.991.208-.342-.656-.876-.872-1.913-.48-2.305s-1.368-.576-3.912-.408-4.418.642-4.163 1.055M11 46.378c0 .207.787.995 1.75 1.75 1.586 1.243 1.621 1.208.378-.378C11.821 46.084 11 45.555 11 46.378m39.405 3.872L48.5 52.5l2.25-1.905C52.864 48.805 53.455 48 52.655 48c-.19 0-1.202 1.013-2.25 2.25m-33.972 1.641C17.146 53.045 21 55.374 21 54.65c0-.231-1.18-1.193-2.623-2.139s-2.318-1.224-1.944-.62"/><path fill-opacity=".391" fill-rule="evenodd" d="M20.035 2.202C12.477 5.104 5.001 12.726 2.055 20.531c-4.589 12.162-.995 26.951 8.604 35.4 8.969 7.895 21.657 10.168 33.022 5.915 7.497-2.805 15.285-10.428 17.734-17.357.969-2.744 2.172-5.77 2.674-6.725C65.367 35.329 65.281 23.018 64 25c-.817 1.264-.972 1.209-.985-.355-.014-1.78-4.379-11.345-5.883-12.892-.399-.411-.284 2.739.256 7 1.49 11.758 1.195 20.209-.844 24.247-9.474 18.757-35.822 20.032-46.251 2.238-3.47-5.922-4.336-16.872-1.797-22.743.949-2.197 2.249-6.241 2.887-8.985 1.176-5.061 3.935-7.232 5.654-4.45.605.978 1.626.848 4.62-.589C27.089 5.863 35.484 5.437 41 7.49c6.653 2.475 9.429 3.013 8.597 1.666-.44-.712-.161-.926.75-.576.798.306 1.717.125 2.043-.402.795-1.287-4.146-4.447-5.573-3.565-.652.403-.85.25-.471-.364C47.384 2.57 38.317-.006 31.572.052c-3.647.031-8.254.89-11.537 2.15M25.5 8.634c-2.2.914-5.773 1.718-7.941 1.787-3.784.121-3.989.303-5.179 4.603-.681 2.462-1.99 6.501-2.909 8.976-3.369 9.076-.23 20.74 7.25 26.938 9.854 8.164 24.59 7.478 33.635-1.567 5.556-5.556 8.312-14.795 6.542-21.93-.538-2.167-1.173-6.606-1.411-9.864-.521-7.123-1.46-8.366-5.078-6.718-2.234 1.018-3.307.885-6.912-.86-5.954-2.883-13.046-3.42-17.997-1.365m-1.25 1.857c-3.067 1.333-4.688 3.16-2 2.255.688-.232 1.7.183 2.25.923.761 1.022 1.813 1.11 4.396.365 2.116-.609 4.923-.635 7.446-.068 4.353.978 6.1.558 5.01-1.205-.438-.708-.087-.873.984-.462.915.351 1.664.274 1.664-.172 0-1.274-7.287-3.131-12.116-3.088-2.411.022-5.846.675-7.634 1.452M27.5 11c-.34.55-.141 1 .441 1S29 11.55 29 11s-.198-1-.441-1-.719.45-1.059 1m24.187.697c-.366.592-2.294 1.382-4.285 1.755-1.99.374-4.695 1.841-6.011 3.26-1.818 1.961-2.391 2.19-2.391.953 0-3.465-10.158-3.386-14.977.117-3.487 2.536-6.773 9.366-7.568 15.735-.768 6.146.097 7.899 6.164 12.49 3.088 2.337 4.902 2.939 8.881 2.943 5.242.006 12.057-2.494 14.349-5.263 2.965-3.584 3.225-9.61.682-15.85-.462-1.131-.096-1.813 1.146-2.134 1.257-.325 1.358-.517.323-.618-2.61-.257-5.23-4.786-4.048-6.996 1.039-1.941 7.695-4.775 8.746-3.725.31.31.103 2.377-.459 4.592-.562 2.216-.638 3.791-.169 3.501 1.412-.873 2.244-7.439 1.23-9.712-.573-1.282-1.211-1.697-1.613-1.048M14 16.941c0 2.718.338 5.15.75 5.405s.589-1.565.391-4.043c-.345-4.332-.267-4.479 2-3.793 1.298.393 2.787 1.114 3.309 1.602C21.711 17.29 23 17.24 23 16.013 23 15.081 16.765 12 14.878 12c-.483 0-.878 2.223-.878 4.941M22.5 21c-.34.55.335 1 1.5 1s1.84-.45 1.5-1-1.015-1-1.5-1-1.16.45-1.5 1M36 21c0 .55.927 1 2.059 1s1.781-.45 1.441-1-1.266-1-2.059-1S36 20.45 36 21m-25.37 3.25c-1.396 5.21-.619 12.837 1.792 17.596C15.226 47.379 18 50.252 18 47.622 18 46.73 17.353 46 16.562 46s-1.46-.788-1.488-1.75-.321-3.366-.653-5.341c-.331-1.975-.123-5.328.463-7.45.856-3.101.776-4.178-.41-5.487-.81-.896-1.474-2.157-1.474-2.801 0-2.051-1.743-1.258-2.37 1.079m25.899.364c-1.843 1.843-1.903 2.612-.329 4.186 1.462 1.462 4.454 1.57 5.306.191.895-1.448-.332-4.71-2.015-5.356-.788-.303-2.121.138-2.962.979m-15.862.053c-.367.366-.681 1.604-.699 2.75s-.692 2.957-1.5 4.024C15.431 35.456 18.062 43 22.5 43c.825 0 1.5.418 1.5.929C24 45.817 27.229 48 30.024 48c2.154 0 3.684-.998 6.057-3.951 1.747-2.174 3.822-4.086 4.612-4.25 1.141-.238 1.037-.726-.506-2.376-1.068-1.142-2.263-3.086-2.654-4.319-.828-2.608-6.072-6.095-9.176-6.1-1.179-.002-2.402-.679-2.719-1.504-.584-1.522-3.752-2.053-4.971-.833M.328 31.5c.005 3.85.185 5.302.402 3.228.216-2.075.213-5.225-.008-7S.324 27.65.328 31.5m53.687-5.191c-.008.995-.418 1.56-.91 1.256s-1.155.124-1.473.952c-.748 1.949.356 7.483 1.493 7.483.481 0 .875.477.875 1.059s-.45.781-1 .441-1 .309-1 1.441c0 3.383 1.83 2.333 2.947-1.691 1.299-4.678 1.321-9.288.053-11.25-.822-1.272-.972-1.225-.985.309M11.5 27c-.34.55-.141 1 .441 1S13 27.55 13 27s-.198-1-.441-1-.719.45-1.059 1m11.549 2.759c-1.886.957-3.635 2.388-3.885 3.178-.296.934.518.672 2.325-.75 3.507-2.758 8.452-2.808 11.871-.118 1.686 1.326 2.433 1.556 2.082.64-.563-1.468-3.407-3.16-6.952-4.138-1.106-.304-3.554.23-5.441 1.188M11.5 37c.34.55.816 1 1.059 1s.441-.45.441-1-.477-1-1.059-1-.781.45-.441 1m16.5.393c0 .216.698.661 1.552.989.89.341 1.291.173.941-.393-.587-.951-2.493-1.406-2.493-.596m22.317 6.357c-.342.962-1.34 2.65-2.219 3.75-1.596 1.998-1.596 1.998.745.011C51.758 45.036 53.499 42 52.004 42c-.587 0-1.346.788-1.687 1.75m-6.81 7.239c-.35.566.051.734.941.393 1.732-.665 2.049-1.382.611-1.382-.518 0-1.216.445-1.552.989M38.5 53c-.782 1.266.542 1.266 2.5 0 1.293-.835 1.266-.971-.191-.985-.93-.008-1.969.435-2.309.985M30 54c.825.533 2.175.945 3 .914.989-.036.819-.347-.5-.914-2.749-1.181-4.328-1.181-2.5 0"/><path fill-opacity=".35" fill-rule="evenodd" d="M28.75.723c1.788.222 4.712.222 6.5 0C37.038.502 35.575.32 32 .32s-5.038.182-3.25.403M18.04 3.26C12.211 6.083 6.734 11.649 3.325 18.216.977 22.738.576 24.726.544 32c-.035 7.904.213 8.956 3.538 15 6.38 11.599 17.827 17.858 30.494 16.675 14.05-1.312 25.976-11.767 28.022-24.565.359-2.241 1.046-3.83 1.527-3.533s.843-1.848.805-4.768c-.052-3.889-.3-4.774-.93-3.309-.8 1.862-.864 1.834-.93-.4-.038-1.321-1.302-4.918-2.807-7.995-3.311-6.768-4.121-4.951-2.239 5.023 2.15 11.391.027 19.754-6.727 26.508-4.908 4.908-8.974 6.633-16.837 7.143-5.757.374-7.989.049-12.242-1.781-5.768-2.481-11.301-7.972-13.831-13.726-2.526-5.745-2.302-15.75.481-21.499 1.254-2.59 2.119-5.736 1.922-6.991-.313-2.001-.753-1.672-3.573 2.664C5.447 19.166 4 20.931 4 20.367c0-1.852 6.169-10.381 7.095-9.809.498.308.905-.093.905-.892 0-2.078 2.501-2.751 4.579-1.232 1.484 1.086 2.493.98 6.174-.649 5.934-2.625 15.029-2.553 20.64.163 4.908 2.376 5.523 2.432 7.783.714 1.541-1.171 1.5-1.383-.5-2.629-1.912-1.19-2.026-1.172-.935.148C51.101 7.828 50.471 9 48.226 9c-.792 0-1.211-.597-.931-1.326.336-.876-.221-1.261-1.643-1.136-1.184.104-2.687-.232-3.342-.747-.654-.514-4.141-1.101-7.748-1.304-3.608-.202-7.123-.692-7.811-1.088s-.92-.354-.516.092C27.031 4.37 22.647 7 20.386 7 19.624 7 19 7.477 19 8.059s-.457.776-1.016.431-.761-1.042-.448-1.548c.312-.505-.13-.651-.984-.324-.854.328-1.552.302-1.552-.057s2.362-1.753 5.25-3.097S24.825 1.038 24 1.06s-3.507 1.012-5.96 2.2m9.678 4.834c-2.081.489-5.02 1.528-6.531 2.309-1.897.981-3.284 1.122-4.476.455C14.284 9.5 13 10.621 13 14.099c0 1.639-.862 4.671-1.917 6.737-2.803 5.495-3.414 10.252-2.119 16.489 1.58 7.611 5.625 12.838 12.564 16.232 17.91 8.763 37.415-4.462 35.088-23.79-.348-2.897-.975-8.275-1.392-11.951s-1.03-6.955-1.362-7.287-1.792-.062-3.244.599c-2.226 1.014-3.385.873-7.379-.902C37.325 7.6 32.593 6.95 27.718 8.094M30 8.781c-4.342.574-9 2.335-9 3.404 0 .566.698.761 1.552.433.89-.341 1.291-.173.941.393-.724 1.171-.781 1.164 9.757 1.235 5.249.035 8.171-.326 8.034-.993-.119-.579.665-.818 1.75-.534 1.081.283 1.966.253 1.966-.067 0-1.863-10.223-4.501-15-3.871m-16 8.013c0 3.78.493 6.37 1.348 7.08 1.08.896 1.366.488 1.438-2.059.05-1.747-.348-3.996-.883-4.996-1.207-2.255.793-2.493 3.614-.43C21.389 17.757 24 17.532 24 16.002c0-.432-1.913-1.606-4.25-2.609s-4.588-1.989-5-2.192c-.412-.202-.75 2.315-.75 5.593m33.628-3.814c-2.68.882-5.668 2.586-6.64 3.786-1.721 2.126-1.782 2.131-2.284.209C38.277 15.344 37.325 15 33.242 15c-8.639 0-13.808 5.074-16.775 16.466-1.317 5.055-1.314 6.053.023 8.865C18.779 45.142 26.549 50 31.955 50c5.708 0 12.722-3.422 15.139-7.387 2.251-3.692 2.461-10.025.459-13.863-1.32-2.531-1.285-2.75.434-2.75C51.036 26 54 21.28 54 16.424c0-2.368-.337-4.473-.75-4.677s-2.942.351-5.622 1.233m.607 2.563c-3.839 1.615-4.813 3.509-3.277 6.379 1.543 2.882 4.761 2.76 4.531-.172-.097-1.238.489-3.277 1.303-4.531 1.938-2.989 1.401-3.341-2.557-1.676M22.5 21c-.34.55.335 1 1.5 1s1.84-.45 1.5-1-1.015-1-1.5-1-1.16.45-1.5 1m14.132-.214c-.267.432.349.785 1.368.785s1.635-.353 1.368-.785C39.1 20.354 38.485 20 38 20s-1.1.354-1.368.786m-25.64 2.217c-2.143 3.985-1.764 13.826.712 18.497 2.724 5.138 7.797 9.982 12.514 11.949 7.45 3.108 18.397.994 24.664-4.761 3.775-3.467 7.099-11.522 7.093-17.188-.006-5.297-1.198-8.566-2.409-6.607-.376.609-.32 1.121.125 1.137s.01.496-.966 1.064c-1.5.873-1.712 2.111-1.365 7.97.225 3.815.012 6.936-.475 6.936S50 42.675 50 43.5c0 3.937-10.977 9.845-17.75 9.554-3.668-.158-4.86-.413-5.956-1.276-.664-.523-1.629-.689-2.145-.37-.517.319-1.197-.092-1.513-.914S21.447 49 20.695 49s-2.633-2.499-4.178-5.554c-2.708-5.353-2.763-5.752-1.505-10.996 1.132-4.718 1.102-5.675-.223-7.196-.84-.965-1.736-2.428-1.991-3.251-.344-1.112-.808-.855-1.806 1m9.89 2.247c-.066.688-.056 1.617.021 2.065s-.77 1.971-1.881 3.385C17.91 32.113 17 34.489 17 35.98c0 2.686 2.637 6.02 4.761 6.02.606 0 2.064 1.35 3.239 3 2.838 3.986 6.31 3.95 10.099-.106 1.595-1.708 2.901-3.508 2.901-4S38.675 40 39.5 40s1.5-.395 1.5-.878c0-.482-.675-1.437-1.5-2.122S38 35.219 38 34.565c0-2.137-5.492-6.514-9.036-7.202-1.905-.369-3.824-1.277-4.264-2.017-1.007-1.695-3.661-1.761-3.818-.096m15.508.176c-.91 2.371.377 4.765 2.357 4.384 1.107-.213 1.753-1.249 1.753-2.81 0-2.851-3.156-4.059-4.11-1.574M.3 32c0 3.025.187 4.263.416 2.75s.229-3.988 0-5.5S.3 28.975.3 32m20.777-1.411c-6.547 5.509-2.356 9.252 9.562 8.539 1.177-.07 3.149-.946 4.383-1.945 1.907-1.544 2.069-2.144 1.081-3.99C34.698 30.568 30.013 28 26.626 28c-1.36 0-3.857 1.165-5.549 2.589m.59 2.078C20.175 34.159 21.049 37 23 37c1.467 0 2-.667 2-2.5 0-2.353-1.815-3.351-3.333-1.833m6.741.711c-.809 2.109.327 3.622 2.721 3.622 1.51 0 1.931-.557 1.691-2.24-.373-2.614-3.556-3.611-4.412-1.382m2.405 12.305c.721.289 1.584.253 1.916-.079s-.258-.568-1.312-.525c-1.165.048-1.402.285-.604.604M11 52c0 .55.45 1 1 1s1-.45 1-1-.45-1-1-1-1 .45-1 1m42 .059c0 .582.45.781 1 .441s1-.816 1-1.059S54.55 51 54 51s-1 .477-1 1.059M14.5 55c.34.55.816 1 1.059 1s.441-.45.441-1-.477-1-1.059-1-.781.45-.441 1m4 2c-.34.55-.141 1 .441 1S20 57.55 20 57s-.198-1-.441-1-.719.45-1.059 1m27 0c-.34.55-.141 1 .441 1S47 57.55 47 57s-.198-1-.441-1-.719.45-1.059 1M23 59c0 .55.477 1 1.059 1s.781-.45.441-1-.816-1-1.059-1-.441.45-.441 1m18 0c0 .55.45 1 1 1s1-.45 1-1-.45-1-1-1-1 .45-1 1m-4.5 1c-.34.55-.141 1 .441 1S38 60.55 38 60s-.198-1-.441-1-.719.45-1.059 1M32 61.059c0 .582.45.781 1 .441s1-.816 1-1.059S33.55 60 33 60s-1 .477-1 1.059"/><path fill-opacity=".974" fill-rule="evenodd" d="M10.543 9.048C3.326 15.873.607 22.175.638 32 .678 44.635 7.346 55.314 18.5 60.608c5.173 2.454 10.489 3.393 7.5 1.323-1.233-.854-1.144-.974.5-.675 1.1.199 1.887.899 1.75 1.553-.156.745 1.083 1.191 3.309 1.191 2.211 0 3.315-.394 2.916-1.041-.354-.572-1.597-.738-2.763-.368-1.996.634-2.02.574-.415-1.03 1.548-1.549 1.846-1.561 3.274-.132.865.864 1.765 1.571 2 1.571.825 0 .416-.87-1.142-2.429C34 59.143 34.131 59 36.87 59c1.656 0 3.333.52 3.725 1.155.426.689.276.884-.371.483-.597-.369-1.349-.244-1.671.277s-.095 1.25.505 1.621c1.196.739 5.942-3.23 5.942-4.97 0-.597.9-1.647 2-2.334 2.377-1.485 2.66-.035.429 2.197-.865.864-1.076 1.571-.469 1.571s1.376-.713 1.711-1.584c.493-1.285.782-1.332 1.534-.25.628.905.717.595.278-.964-.363-1.286-.117-2.938.557-3.75C52.414 50.796 55 50.501 55 52c0 .55-.675 1-1.5 1s-1.5.466-1.5 1.035c0 .704.603.713 1.882.028C56.306 52.766 57.418 50 55.515 50c-1.17 0-1.123-.521.263-2.935.926-1.614 1.941-2.52 2.255-2.011s.616-.645.67-2.563l.099-3.486-2.479 4.974c-7.943 15.94-30.286 19.297-42.458 6.379-1.999-2.122-4.391-5.208-5.314-6.858s-1.409-2.136-1.081-1.08c.331 1.062.024 2.333-.686 2.844-.978.704-.925.813.221.456 1.719-.536 5.489 3.857 4.066 4.736-.513.317-1.22.112-1.571-.456s-1.067-.768-1.591-.444-2.162-2.031-3.639-5.233c-5.701-12.359-2.621-26.326 7.889-35.776C14.94 6.046 16.916 4 16.548 4s-3.07 2.272-6.005 5.048m16.207-.386c.688.278 1.813.278 2.5 0 .688-.277.125-.504-1.25-.504s-1.937.227-1.25.504m9 0c.688.278 1.813.278 2.5 0 .688-.277.125-.504-1.25-.504s-1.937.227-1.25.504M20.5 11c-3.91 2.589-2.52 2.592 1.726.004C24.027 9.906 25.05 9.009 24.5 9.01s-2.35.897-4 1.99m21.836-.383c2.684 1.454 2.737 1.612 1 2.928-1.01.765-2.736 1.413-3.836 1.439-1.593.037-1.708.232-.562.956.976.618 2.222.292 3.884-1.015 1.346-1.059 3.4-1.941 4.563-1.96 1.163-.02 3.24-.726 4.615-1.57 1.679-1.029 1.843-1.309.5-.851-4.552 1.554-5.402 1.558-8.334.042-3.935-2.035-5.59-2.007-1.83.031M14 10.393c0 .216.698.661 1.552.989.89.341 1.291.173.941-.393-.587-.951-2.493-1.406-2.493-.596m-.805 4.107c.02 1.65.244 2.204.498 1.231s.237-2.323-.037-3-.481.119-.461 1.769m40.957 2.115C53.992 22.014 51.216 27 48.371 27c-1.291 0-1.281.29.072 2.223.856 1.222 1.557 4.232 1.557 6.688 0 15.666-23.35 20.871-32.219 7.182-1.905-2.941-2.722-3.694-2.27-2.093.935 3.309 7.419 10 9.692 10 .988 0 1.797.389 1.797.865 0 .999 10.64.829 11.655-.187.373-.373 1.503-.678 2.512-.678C42.175 51 43 50.55 43 50s.563-1.025 1.25-1.055 2.375-1.476 3.75-3.211c2.119-2.675 2.508-4.236 2.55-10.24.035-5.036.549-7.793 1.778-9.539 1.456-2.068 1.879-2.218 2.685-.955.526.825.953 3.975.95 7-.016 13.129-10.052 23-23.384 23-8.692 0-15.033-3.492-19.698-10.849C11.296 41.653 10 40.058 10 40.608s1.298 3.047 2.885 5.549c5.935 9.359 20.355 12.795 31.018 7.392 5.761-2.919 9.283-6.852 11.622-12.975 1.756-4.598 1.712-6.993-.423-23.074l-.797-6zm-31.593-2.182c1.482 1.093 1.665 1.712.775 2.615-.896.91-1.699.81-3.472-.432-3.272-2.292-4.657-2.006-2.051.423 2.359 2.197 3.061 3.929.849 2.093-1.068-.885-1.322-.554-1.25 1.628.129 3.909-1.632 4.095-3.544.375-1.208-2.349-1.788-2.782-2.219-1.657-.321.837-.251 1.522.157 1.522 1.777 0 4.446 7.011 3.886 10.206-.709 4.038.592 1.216 2.181-4.734 1.682-6.296 6.765-10.548 13.805-11.549l5.824-.828-6.716.412c-3.694.226-6.983-.02-7.309-.548-.326-.527-1.102-.959-1.725-.959s-.259.645.809 1.433m24.793 1.56c-1.181.477-2.471 1.391-2.868 2.032-1 1.619 1.512 5.978 3.435 5.96 1.268-.013 1.313-.186.224-.875-1.039-.659-1.073-1.035-.143-1.61s.896-.951-.143-1.61c-.946-.599-.989-.864-.142-.875.668-.008 1.696-.915 2.285-2.015 1.157-2.163.673-2.347-2.648-1.007m9.843 3.507c.02 1.65.244 2.204.498 1.231s.237-2.323-.037-3-.481.119-.461 1.769M9.624 23.539c-.343.893-.585 2.375-.538 3.293.047.917.482.341.967-1.282.943-3.156.609-4.718-.429-2.011M6.158 26c0 1.375.227 1.938.504 1.25.278-.687.278-1.812 0-2.5-.277-.687-.504-.125-.504 1.25m17.447-.75c.341.98.122 1.75-.498 1.75-.609 0-1.107-.477-1.107-1.059s-.408-.807-.906-.499-.671 1.46-.383 2.559c.287 1.099.068 1.999-.487 1.999-.556 0-1.285.717-1.621 1.592-.389 1.014.508.651 2.47-1 1.694-1.425 4.283-2.644 5.754-2.708 2.069-.09 2.227-.229.698-.617-1.086-.275-2.55-1.235-3.253-2.134-1.164-1.488-1.223-1.478-.667.117m13.096-.618c-1.182 1.182-.779 4.124.64 4.668 2.015.774 3.903-.796 3.496-2.908-.371-1.926-2.895-3-4.136-1.76M37 26c0 .55.45 1 1 1s1-.45 1-1-.45-1-1-1-1 .45-1 1m22.31 6.5c.005 3.3.192 4.529.415 2.732s.218-4.497-.01-6c-.229-1.503-.411-.032-.405 3.268M34.5 31c.995 1.1 2.035 2 2.31 2s-.315-.9-1.31-2-2.035-2-2.31-2 .315.9 1.31 2M8.158 32c0 1.375.227 1.938.504 1.25.278-.687.278-1.812 0-2.5-.277-.687-.504-.125-.504 1.25m13.869 1.467C20.645 35.133 21.454 37 23.559 37c1.561 0 2.003-3.534.554-4.43-.487-.301-1.426.102-2.086.897m7.663-.824c-.379.38-.69 1.515-.69 2.524 0 1.994 2.466 2.505 3.559.737.792-1.281-1.848-4.282-2.869-3.261M17.116 35.75c-.064 1.237.791 3.038 1.901 4s3.637 3.251 5.619 5.086c2.577 2.386 4.208 3.172 5.733 2.763 1.172-.314 2.409-.578 2.748-.585s1.819-1.83 3.288-4.05 3.098-3.771 3.621-3.448c.535.331.677-.127.323-1.048-.502-1.309-.796-1.369-1.473-.302-.57.9-.851.358-.862-1.666l-.017-3-1.749 3.449c-3.657 7.215-16.666 6.198-18.529-1.449-.441-1.81-.498-1.786-.603.25m-3.037.833c.048 1.165.285 1.402.604.605.289-.722.253-1.585-.079-1.917s-.568.258-.525 1.312M6.158 38c0 1.375.227 1.938.504 1.25.278-.687.278-1.812 0-2.5-.277-.687-.504-.125-.504 1.25m2.921-.417c.048 1.165.285 1.402.604.605.289-.722.253-1.585-.079-1.917s-.568.258-.525 1.312m21.171 7.079C28.867 45.22 28.531 47 29.809 47c.445 0 1.682-.661 2.75-1.468 1.446-1.094 1.559-1.456.441-1.421-.825.026-2.062.274-2.75.551M8 50.68c0 .534 1.125 2.028 2.5 3.32s2.5 2.068 2.5 1.726-1.125-1.837-2.5-3.321C9.125 50.922 8 50.145 8 50.68m3 .868c0 .301 1.191 1.651 2.646 3S15.915 57 15.455 57s.03.634 1.09 1.409c1.293.946 2.486 1.109 3.63.497 1.033-.552 1.929-.546 2.277.016.315.509-.221 1.091-1.19 1.293-1.444.3-1.356.477.489.982 1.249.342 2.002.213 1.691-.29-.308-.499-.083-.907.499-.907S25 59.585 25 59.078c0-.907-6.839-3.665-8.189-3.303-.379.101-.974-.713-1.322-1.81s-1.051-1.736-1.561-1.421c-.51.316-.928.097-.928-.485S12.55 51 12 51s-1 .246-1 .548m6 5.393c0 .518.445 1.216.989 1.552.566.35.734-.051.393-.941C17.717 55.82 17 55.503 17 56.941m25.25.721c-1.43.577-1.699 2.338-.357 2.338.491 0 1.152-.675 1.469-1.5.316-.825.477-1.464.357-1.421-.121.043-.781.306-1.469.583M27.5 60c2.731 1.174 3.5 1.174 3.5 0 0-.55-1.238-.968-2.75-.93-2.437.063-2.522.168-.75.93"/></svg>