<svg width="500" height="501" viewBox="0 0 500 501" fill="#000000" xmlns="http://www.w3.org/2000/svg">
<path fill-rule="evenodd" clip-rule="evenodd" d="M213.701 2.06688C180.494 7.19977 142.421 21.9492 111.641 41.6033C93.6863 53.0686 59.544 86.0393 46.301 104.702C-24.6414 204.679 -12.996 340.531 73.9232 426.953C172.249 524.713 328.207 524.731 426.776 426.993C509.057 345.405 523.725 216.134 461.974 116.786C438.49 79.0044 394.647 40.8983 352.867 21.9543C313.858 4.2656 254.419 -4.2275 213.701 2.06688ZM307.533 24.6754C329.89 30.4778 363.11 45.4682 381.734 58.1584C399.189 70.0523 426.898 97.2966 439.39 114.846C495.418 193.566 496.892 300.373 443.047 380.206C386.063 464.699 278.191 502.612 181.513 472.132C143.476 460.136 118.232 445.255 89.7859 418.054C34.2701 364.968 7.817 286.638 20.6365 213.299C25.7162 184.231 30.0223 171.082 43.1005 144.692C74.6789 80.9799 136.788 34.8144 209.514 21.0007C235.624 16.0428 280.783 17.7344 307.533 24.6754ZM108.456 87.429C94.6196 94.5882 88.168 109.901 88.168 135.575C88.168 159.83 93.8461 178.028 106.016 192.785C113.799 202.219 113.827 202.364 114.312 235.897C114.771 267.826 115.199 270.384 122.683 286.027C127.02 295.093 134.722 306.733 139.801 311.894C147.977 320.207 149.032 322.753 149.032 334.168C149.032 351.149 154.411 363.339 164.73 369.738C171.407 373.877 177.015 374.881 192.144 374.637C202.829 374.467 217.276 376.088 225.113 378.335C242.664 383.369 255.573 383.394 273.297 378.426C280.968 376.276 295.804 374.594 306.265 374.691C336.938 374.975 349.377 363.291 349.377 334.208C349.377 322.822 350.422 320.316 358.578 312.16C363.64 307.101 371.342 295.44 375.696 286.252C383.18 270.453 383.644 267.701 384.222 235.748C384.826 202.249 384.899 201.869 392.515 192.635C404.566 178.025 410.241 159.759 410.241 135.575C410.241 109.901 403.79 94.5882 389.953 87.429C370.046 77.1252 334.138 89.2702 305.469 116.005L289.781 130.632H249.205H208.629L192.941 116.005C164.271 89.2702 128.364 77.1252 108.456 87.429ZM155.372 108.805C163.741 114.28 175.14 122.672 180.702 127.452L190.818 136.148L180.002 145.405C169.325 154.545 164.205 162.117 160.414 174.381C158.537 180.445 158.788 180.379 167.771 172.494C188.044 154.694 210.744 147.814 249.205 147.814C287.699 147.814 312.648 155.414 331.283 172.814C339.606 180.587 339.771 180.625 337.935 174.442C334.377 162.447 329.198 154.643 319.011 145.922C313.396 141.116 308.801 136.521 308.801 135.715C308.801 132.362 349.758 103.708 360.302 99.6805C370.165 95.9145 372.688 95.7852 378.808 98.7422C403.194 110.524 403.087 158.11 378.617 183.648L367.446 195.306L368.831 221.013C370.913 259.642 361.695 292.039 344.199 307.585C339.837 311.46 338.211 311.853 337.306 309.254C336.654 307.382 331.217 298.537 325.222 289.6C315.907 275.71 315.027 273.347 319.171 273.347C321.836 273.347 324.017 272.205 324.017 270.811C324.017 269.416 322.445 268.275 320.522 268.275C318.603 268.275 315.854 266.849 314.416 265.104C312.422 262.685 313.893 261.823 320.616 261.468C331.453 260.897 337.465 256.274 335.776 249.815C334.78 245.998 335.561 245.225 339.406 246.229C345.708 247.877 345.662 244.271 339.296 237.906C329.54 228.15 322.883 228.751 308.763 240.657C297.79 249.909 295.162 251.098 291.531 248.458C289.175 246.744 282.68 243.11 277.101 240.381C259.191 231.619 222.929 234.923 210.163 246.477C203.901 252.145 202.469 251.719 189.608 240.378C176.162 228.52 172.336 228.025 161.908 236.8C153.011 244.284 151.837 248.106 159.004 246.229C162.848 245.225 163.63 245.998 162.633 249.815C160.939 256.292 166.444 260.459 177.78 261.27C188.498 262.038 189.928 264.924 180.732 267.232C173.279 269.104 172.242 273.347 179.239 273.347C183.383 273.347 182.503 275.71 173.188 289.6C167.193 298.537 161.745 307.382 161.081 309.254C159.159 314.666 147.323 302.214 140.351 287.444C131.186 268.023 127.77 246.11 129.589 218.414L131.171 194.312L123.492 187.85C119.27 184.297 112.77 175.548 109.047 168.406C96.1361 143.642 101.109 108.021 118.74 99.0059C127.476 94.5375 137.77 97.2916 155.372 108.805ZM180.038 247.976L188.34 253.041L181.455 253.048C177.159 253.056 173.55 251.151 171.856 247.986C168.463 241.644 169.647 241.644 180.038 247.976ZM323.533 249.559C321.339 251.752 317.413 253.096 314.806 252.549C310.853 251.719 311.329 250.875 317.677 247.456C326.452 242.732 329.327 243.764 323.533 249.559ZM268.237 252.029C285.454 257.141 308.745 279.791 321.451 303.779C328.698 317.455 330.2 322.999 330.271 336.331C330.344 350.216 329.543 353.061 324.37 357.253C315.273 364.628 301.878 363.377 281.673 353.269C261.504 343.178 256.229 338.263 254.089 327.569C252.849 321.363 254.239 318.003 261.781 308.975C275.457 292.605 273.634 289.831 249.205 289.831C224.849 289.831 222.962 292.618 236.411 308.714C241.356 314.633 245.401 322.132 245.401 325.38C245.401 342.884 202.656 366.568 180.915 361.113C177.245 360.19 172.711 356.069 170.352 351.506C156.265 324.265 195.124 261.79 232.901 250.941C245.637 247.284 253.024 247.512 268.237 252.029ZM270.195 359.373C268.557 367.879 231.691 368.987 228.483 360.626C227.623 358.382 231.336 353.183 238.074 347.203L249.073 337.444L259.988 346.569C265.991 351.585 270.583 357.349 270.195 359.373ZM137.217 348.793C137.653 353.325 137.148 357.035 136.094 357.035C132.804 357.035 126.208 364.826 126.208 368.711C126.208 373.156 136.563 377.584 140.187 374.686C141.696 373.478 146.245 376.796 151.236 382.74C158.948 391.925 159.334 393.133 155.464 395.963C152.385 398.212 151.682 400.987 152.928 405.952C154.322 411.508 156.108 412.827 162.225 412.827C167.662 412.827 170.17 411.399 171.121 407.755C171.851 404.966 172.833 402.683 173.302 402.683C174.06 402.683 187.237 408.136 189.068 409.208C189.471 409.444 188.503 412.477 186.92 415.952C184.628 420.985 184.879 423.884 188.158 430.227C192.974 439.536 191.678 439.184 203.247 434.35C210.487 431.325 212.433 429.106 212.433 423.874C212.433 417.661 213.021 417.331 221.623 418.726C226.677 419.548 231.346 420.752 232 421.404C232.652 422.058 231.709 426.676 229.903 431.672C226.657 440.645 226.751 440.883 237.843 452.186L249.065 463.621L260.447 452.239C271.735 440.952 271.801 440.782 268.527 431.725C266.708 426.702 265.757 422.058 266.409 421.404C267.063 420.752 271.732 419.548 276.786 418.726C285.252 417.354 285.977 417.724 285.977 423.438C285.977 428.094 288.318 430.757 295.37 434.119C304.398 438.426 304.895 438.418 308.162 433.955C313.234 427.019 314.887 417.899 311.659 414.671C307.652 410.664 308.091 408.551 313.239 407.07C315.679 406.368 319.523 405.029 321.783 404.096C324.626 402.919 326.304 403.997 327.25 407.611C328.242 411.404 330.677 412.827 336.185 412.827C342.236 412.827 344.09 411.496 345.421 406.188C346.494 401.915 345.773 398.078 343.397 395.41C340.116 391.733 340.62 390.221 347.914 381.837C352.694 376.344 357.097 373.321 358.456 374.599C361.814 377.757 372.201 373.151 372.201 368.503C372.201 366.352 369.919 362.64 367.129 360.251C364.34 357.862 362.032 353.023 362.001 349.498C361.953 343.997 361.286 344.543 357.289 353.335C344.828 380.772 303.719 397.611 249.205 397.611C191.934 397.611 148.396 378.102 138.85 348.159L136.426 340.551L137.217 348.793Z" fill="#000000"/>
</svg>
