<svg xmlns="http://www.w3.org/2000/svg" width="200" height="200" fill="#000000"><path fill-opacity=".184" fill-rule="evenodd" d="M11 100v28h18v-15h5.851c7.432 0 11.775-1.46 16.018-5.384C55.29 103.528 57 99.309 57 92.492c0-9.352-5.53-17.156-13.781-19.448-2.045-.568-10.131-1.035-17.969-1.038L11 72zm48 0v28h18V72H59zm19.519-25.94c.36 1.134 4.614 13.621 9.453 27.75l8.799 25.69h22.475l8.733-25.5c4.803-14.025 9.054-26.513 9.445-27.75.705-2.231.626-2.25-9.314-2.25h-10.024l-2.983 9.75c-1.64 5.362-3.797 12.562-4.793 15.999-.995 3.436-2.035 6.245-2.31 6.24s-1.546-3.491-2.824-7.748a2697 2697 0 0 0-4.867-15.991L97.764 72h-9.949c-9.592 0-9.926.074-9.296 2.06M139 100v28h17.938l.281-11.96.281-11.96 8.407 11.96 8.407 11.96H189V72h-17.937l-.281 11.75-.282 11.75-8.281-11.75L153.938 72H139zM35.189 87.039C33.985 88.16 33 89.51 33 90.039c0 .535-3.55.961-8 .961-4.4 0-7.994.338-7.986.75C17.082 95.481 20 99.145 20 95.5c0-.825.45-1.5 1-1.5s1.014.787 1.03 1.75c.029 1.667.079 1.667 1.05 0 .69-1.185 2.257-1.75 4.855-1.75 3.005 0 4.196.551 5.502 2.545C37.751 103.128 48 100.551 48 92.883c0-6.48-8.142-10.194-12.811-5.844m2.561 2.041c-2.009 1.17-2.318 4.952-.55 6.72 1.886 1.886 5.615 1.413 6.836-.867.86-1.608.752-2.608-.488-4.5-1.723-2.63-3.068-2.943-5.798-1.353"/><path fill-opacity=".231" fill-rule="evenodd" d="M11 99.912V128h17v-14.743l8.037-.465c6.83-.396 8.671-.905 12.25-3.392 6.226-4.325 8.978-10.282 8.399-18.18-.569-7.761-3.865-13.212-9.937-16.436-3.784-2.009-5.974-2.294-19.999-2.608L11 71.824zm48.234-.162.266 27.75 8.75.289 8.75.289V72H58.968zm19.759-26.5c-.003.688 4.108 13.287 9.137 28L97.273 128h10.863c5.975 0 10.864-.155 10.864-.344s4.263-12.789 9.473-28L137.947 72h-19.649l-4.879 16.417c-2.683 9.029-5.161 16.242-5.506 16.029s-2.805-7.601-5.466-16.417L97.609 72h-9.305c-6.773 0-9.306.34-9.311 1.25M139 100.039v28.039l8.75-.289 8.75-.289.5-11.987.5-11.988 8.5 12.207 8.5 12.206 7.25.031L189 128V71.922l-8.75.289-8.75.289-.5 11.821-.5 11.821-8.373-12.071L153.753 72H139zM34 88c-2.605 2.788-3.303 3-9.901 3-7.427 0-7.69.193-6.469 4.75.677 2.525 2.37 3.061 2.37.75 0-.825.45-1.5 1-1.5s1 .675 1 1.5.45 1.5 1 1.5 1-.675 1-1.5c0-2.4 8.681-2.08 9.452.348.647 2.04 4.534 4.152 7.641 4.152C44.307 101 48 96.573 48 92.72c0-7.448-8.709-10.384-14-4.72m3.082 2.401c-1.593 1.919-1.075 4.574 1.168 5.987 2.565 1.615 5.25-.429 5.25-3.997 0-2.365-.47-2.946-2.586-3.192-1.422-.165-3.146.376-3.832 1.202"/><path fill-opacity=".306" fill-rule="evenodd" d="M11 100v28h17v-14.737l7.25-.473c12.527-.818 18.792-5.612 20.927-16.01 1.519-7.403-.178-13.048-5.528-18.383C45.415 73.179 40.404 72 23.451 72H11zm49 0v28.081l8.25-.291 8.25-.29v-55l-8.25-.29-8.25-.291zm19.052-26.788c.028.709 4.191 13.213 9.25 27.788l9.198 26.5 10.286.285 10.286.286 1.351-3.286C121.472 119.801 137 73.929 137 72.86c0-.533-3.973-.811-9.246-.648l-9.246.288-5.165 17c-3.87 12.743-5.364 16.499-5.964 15-.441-1.1-2.853-8.75-5.362-17l-4.56-15-9.229-.288c-7.028-.219-9.216.02-9.176 1M140 100v28h16v-12.5c0-6.875.338-12.479.75-12.454s4.72 5.67 9.573 12.544l8.822 12.498 6.678-.294 6.677-.294v-55l-8.25-.29-8.25-.291v12.663c0 10.317-.242 12.462-1.308 11.577-.72-.597-4.854-6.277-9.188-12.622L153.623 72H140zM37.308 85.01c-1.205.485-2.944 2.032-3.865 3.436C31.899 90.803 31.2 91 24.385 91c-7.731 0-7.981.176-6.755 4.75.677 2.525 2.37 3.061 2.37.75 0-.825.45-1.5 1-1.5s1 .675 1 1.5.45 1.5 1 1.5 1-.675 1-1.5c0-1.055 1.067-1.5 3.599-1.5 2.709 0 4.291.742 6.401 3 3.189 3.414 7.221 3.934 10.841 1.399 5.041-3.531 4.551-11.111-.9-13.929-3.211-1.661-3.587-1.687-6.633-.46m-.268 5.442c-1.59 1.916-.449 5.283 2.059 6.079 2.553.811 4.901-1.128 4.901-4.046 0-3.399-4.69-4.769-6.96-2.033"/><path fill-opacity=".442" fill-rule="evenodd" d="M11 100v27h16.912l.294-7.25.294-7.25 7.5-.515c8.325-.572 12.433-2.334 16.381-7.026 3.335-3.964 3.945-6.505 3.444-14.365-.322-5.062-.983-7.112-3.249-10.083-4.834-6.338-8.792-7.464-26.326-7.489L11 73zm49 0v27h16V73H60zm19.154-26.218c.19.473 4.394 12.641 9.341 27.039L97.491 127h21.096l9.169-27.037 9.169-27.037-9.19.287-9.189.287-4.899 16c-2.694 8.8-5.067 16.188-5.273 16.417-.736.82-1.27-.625-6.061-16.417l-4.855-16-9.325-.289c-5.129-.159-9.17.098-8.979.571M140 100v27h15.94l.28-12.75.28-12.75 9 12.734 9 12.734 6.75.016L188 127V73h-15.94l-.28 12.75-.28 12.75-8.798-12.75L153.905 73H140zM36.5 85.161c-1.1.605-2.675 1.924-3.5 2.932-1.165 1.423-3.177 1.897-9 2.12-6.914.265-7.525.463-7.82 2.537-.175 1.237.162 2.25.75 2.25.589 0 1.07.607 1.07 1.348 0 .812 1.193 1.382 3 1.433 1.977.056 3-.403 3-1.348C24 95.457 25.137 95 27.565 95c2.733 0 4.153.7 6.088 3 1.874 2.227 3.382 3 5.854 3 4.706 0 6.358-.838 8.03-4.072 2.17-4.196 1.798-6.747-1.46-10.005-3.051-3.05-6.186-3.627-9.577-1.762m1.663 4.717c-.736.467-1.186 1.922-1 3.235.269 1.908.937 2.387 3.323 2.387 3.319 0 4.561-2.534 2.474-5.048-1.36-1.639-2.838-1.816-4.797-.574"/></svg>