<svg xmlns="http://www.w3.org/2000/svg" width="24" height="24" fill="#000000"><path fill="#949494" fill-rule="evenodd" d="M22.667 2.889a2.889 2.889 0 1 1-5.778 0 2.889 2.889 0 0 1 5.778 0ZM24 9.333a1.555 1.555 0 1 1-3.11 0 1.555 1.555 0 0 1 3.11 0ZM5.036 6.023l-1.12-1.567a.217.217 0 0 0-.347-.01C2.4 5.943 1.699 7.81 1.575 9.186A9.511 9.511 0 0 0 0 14.444a9.556 9.556 0 1 0 17.72-4.968c-.043-1.395-.76-3.425-2.011-5.03a.217.217 0 0 0-.348.01L14.195 6.09a9.512 9.512 0 0 0-4.64-1.2c-1.634 0-3.174.41-4.52 1.134Zm7.409 8.421a2.889 2.889 0 1 1-5.778 0 2.889 2.889 0 0 1 5.777 0Z" clip-rule="evenodd"/></svg>