<svg xmlns="http://www.w3.org/2000/svg" width="200" height="200" fill="#000000"><path fill-opacity=".357" fill-rule="evenodd" d="M0 100.005V200.01l100.25-.255 100.25-.255.255-99.75L201.01 0H0zm.481.495c0 55 .121 77.647.269 50.326.148-27.32.148-72.32 0-100C.602 23.147.481 45.5.481 100.5M93.25 34.019c-3.237 1.319-2.77 2.335.75 1.631 1.65-.33 3-.377 3-.104s-1.144 2.226-2.543 4.34c-4.692 7.09-2.951 13.027 3.022 10.306 3.163-1.442 2.308-3.606-1.088-2.754-3.004.754-2.988.256.174-5.138 3.981-6.794 2.447-10.627-3.315-8.281m13-.244c-1.237.2-2.25.839-2.25 1.42 0 .645 1.196.816 3.076.44l3.077-.616-3.013 3.805c-1.657 2.092-3.587 5.062-4.287 6.599-1.127 2.474-1.048 2.961.687 4.231 1.681 1.231 6.008 1.131 7.308-.169 1.077-1.076-1.328-2.403-3.409-1.88-3.14.788-3.073.176.561-5.105 4.495-6.534 3.873-9.635-1.75-8.725m10.39 4.475c-3.075 5.348-4.457 11.185-2.495 10.545.745-.244 1.942-1.647 2.66-3.119 1.907-3.912 4.195-3.462 4.195.824 0 4.562 1.588 4.508 2.45-.084 1.029-5.489-.94-12.416-3.53-12.416-.46 0-1.936 1.913-3.28 4.25M73.2 36.2c-2.629 2.629-.59 17.8 2.392 17.8 1.159 0 1.356-.761.869-3.357-.514-2.739-.154-3.871 1.954-6.146C82.464 40.129 81.429 35 76.5 35c-1.155 0-2.64.54-3.3 1.2m11.413.367c-.359.936-.419 3.216-.133 5.067s.765 4.941 1.065 6.866 1.034 3.5 1.632 3.5c.728 0 .926-2.487.601-7.553-.49-7.634-1.907-11.16-3.165-7.88m-9.509 1.369c-1.779 1.099-.98 4.464 1.157 4.876 1.28.246 1.739-.33 1.739-2.18 0-2.891-1.029-3.85-2.896-2.696m43.47.731c-.851 2.219 1.029 4.13 2.559 2.6 1.224-1.224.515-4.267-.995-4.267-.508 0-1.212.75-1.564 1.667m20.119 2.12c-3.793 4.191-6.114 14.217-3.645 15.743.576.356 1.711.393 2.523.081 1.175-.451 1.238-.944.31-2.429-2.359-3.778 1.17-13.144 4.474-11.876 2.211.848 2.284 8.919.098 10.733-1.208 1.002-1.27 1.456-.284 2.066 4.48 2.768 6.436-10.357 2.178-14.615-1.971-1.971-3.683-1.881-5.654.297m-85.387.857c-.656.267-1.704 2.031-2.327 3.921-1.444 4.375.118 9.58 3.728 12.419 3.325 2.615 5.803 2.553 7.727-.193 2.058-2.939.507-4.541-2.895-2.991-2.936 1.338-5.202.699-6.567-1.852-1.513-2.827-1.176-4.436 1.544-7.371 3.085-3.328 2.441-5.419-1.21-3.933m101.156 6.381C150.794 50.431 146 56.75 146 59.178c0 2.666 2.541 2.223 4.765-.83 2.679-3.677 4.411-2.303 3.588 2.845-.518 3.239-.365 3.978.748 3.607 1.864-.62 4.777-8.393 4.845-12.928.075-5.019-1.748-6.298-5.484-3.847m-114.712.547c-3.258 1.767-3.882 5.738-.824 5.241 1.452-.236 2.634 1.04 4.8 5.183 1.581 3.023 3.639 5.643 4.574 5.823 2.812.542 2.016-3.251-1.703-8.125-3.048-3.991-3.245-4.618-1.882-5.98 1.599-1.6 1.002-3.742-1.024-3.674-.655.022-2.428.711-3.941 1.532M155.2 50.2c-1.659 1.659-1.507 4.8.233 4.8 1.727 0 3.131-3.836 1.866-5.101-.532-.532-1.389-.409-2.099.301m11.808 4.292c-1.873 1.993-2.459 3.722-2.48 7.309-.027 4.595-.133 4.751-4.743 7.038-4.078 2.024-5.175 2.187-8.129 1.213-4.406-1.455-6.201-3.544-7.618-8.865-.85-3.19-1.59-4.229-2.843-3.991-2.816.534-2.619 5.146.371 8.7 7.569 8.995 18.387 7.968 30.727-2.915 5.118-4.514 5.648-6.792.735-3.16-3.137 2.32-6.028 2.861-6.028 1.129 0-.577.702-2.407 1.561-4.067 2.187-4.23 1.364-5.497-1.553-2.391M26.147 58.323c-1.493 1.799-.665 4.018 3.61 9.677 4.431 5.865 5.761 6.546 8.842 4.527 3.944-2.584 5.027-5.922 2.95-9.092-1.377-2.102-2.291-2.537-4.433-2.108-2.111.422-2.908.064-3.658-1.644-1.137-2.59-5.601-3.421-7.311-1.36M28 59.918C28 62.197 29.372 64 31.107 64c1.989 0 2.29-.801 1.286-3.418-.64-1.669-4.393-2.236-4.393-.664m6.667 4.749c-1.03 1.029-.789 4.14.377 4.86C36.506 70.431 39 68.13 39 65.878c0-1.837-2.898-2.647-4.333-1.211m55.948 1.421c-3.204 2.52-5.644 6.977-5.536 10.112.057 1.649.501 1.108 1.569-1.907.819-2.314 3.05-5.576 4.956-7.25 3.897-3.422 3.112-4.18-.989-.955M73 88.313c-15.678 13.906-25.896 25.763-31.355 36.387-2.283 4.443-2.06 10.588.565 15.59 1.663 3.168 2.238 6.067 2.322 11.71.174 11.653.245 12 2.468 12 1.84 0 2-.667 2-8.309 0-10.351 1.298-12.772 5.916-11.029 2.802 1.058 3.258.932 5.102-1.413 1.114-1.415 2.299-3.738 2.633-5.161 1.865-7.951 7.295-12.893 12.679-11.541 1.905.478 3.892-.073 7.151-1.983 3.06-1.793 5.723-2.577 8.266-2.434 2.064.117 5.459-.356 7.544-1.05 5.489-1.828 7.064-.91 6.317 3.68-2.16 13.286-1.522 16.555 3.727 19.071 1.527.732 3.218 2.493 3.758 3.913.769 2.023 1.244 2.319 2.194 1.369.792-.792 1.213-4.754 1.213-11.413 0-8.401.353-10.799 2-13.594 3.019-5.124 5.212-6.109 7.473-3.356 2.694 3.281 3.858 2.809 6.126-2.48 2.303-5.375 3.285-6.233 7.151-6.255 3.971-.022 3.443-2.213-1.5-6.22-11.989-9.72-26.374-17.547-42.681-23.223C88.425 80.607 83.737 79 83.653 79S78.775 83.191 73 88.313m6.523-2.748c-3.721 1.94-4.488 3.137-4.508 7.03-.017 3.559 2.188 5.933 6.485 6.981 1.65.403 3.372 1.225 3.826 1.828.535.709.686.579.429-.368-.236-.868.853-2.09 2.674-3 4.266-2.134 4.85-7.848 1.176-11.522-2.886-2.885-5.836-3.163-10.082-.949m.877 1.863c-3.824 1.664-4.837 3.992-2.678 6.151 1.845 1.846 8.296 1.481 10.817-.612 2.055-1.705 1.816-4.707-.473-5.932-2.489-1.332-3.867-1.261-7.666.393m.145 2.822c.941 3.116 1.749 3.805 3.32 2.833 1.971-1.218.45-5.083-2-5.083-1.609 0-1.867.44-1.32 2.25M100 90c0 1.355.667 2 2.066 2 1.136 0 2.965.481 4.064 1.069 1.475.79 2.4.736 3.537-.207 1.364-1.132 1.287-1.481-.675-3.07-1.218-.985-3.739-1.792-5.603-1.792-2.722 0-3.389.393-3.389 2m-31.871 5.154c-2.996 2.696-3.204 3.2-1.87 4.533 1.333 1.334 1.874 1.163 4.87-1.533 2.996-2.697 3.204-3.2 1.871-4.534s-1.875-1.163-4.871 1.534M86.5 96c-1.63.701-1.688.872-.309.93.93.038 1.969-.38 2.309-.93.711-1.15.676-1.15-2 0m10.771 4.426c-4.332 3.645-5.984 8.837-3.848 12.096 4.525 6.906 20.577 2.679 20.577-5.418 0-4.606-3.709-8.204-9.079-8.809-3.839-.433-4.982-.115-7.65 2.131m26.586.258c-2.094 2.416-4.033 8.272-2.805 8.466.521.083 1.389.195 1.928.25.54.055 1.835-1.576 2.879-3.624 1.491-2.924 1.649-4.067.735-5.317-1.055-1.442-1.312-1.421-2.737.225m-25.78 1.905c-3.595 3.024-3.952 5.872-.94 7.484 4.244 2.272 13.863-1.289 13.863-5.131 0-2.374-3.713-4.942-7.146-4.942-1.485 0-4.085 1.165-5.777 2.589m3.512-.218c.289.754-.204 2.101-1.095 2.992-1.917 1.918-1.167 3.637 1.586 3.637 2.684 0 4.678-4.382 2.945-6.47-1.578-1.901-4.15-2.02-3.436-.159m-39.359 3.228c-6.027 4.75-7.972 11.659-4.313 15.318 1.054 1.054 1.659 2.173 1.345 2.488s2.986.337 7.333.051c4.348-.286 8.986-.549 10.308-.584 1.346-.036 1.905-.372 1.271-.764-.77-.476-.508-1.234.82-2.371 4.764-4.079 3.193-11.581-3.097-14.79-5.261-2.684-9.703-2.472-13.667.652m1.783 1.61c-4.585 3.094-6.225 7.432-3.549 9.388 2.985 2.183 9.728 1.747 13.638-.881 4.227-2.842 4.876-6.029 1.657-8.138-4.307-2.822-7.943-2.936-11.746-.369m22.387-1.444c-.605.404-1.346 2.617-1.646 4.918-.41 3.145-.177 4.324.94 4.753.818.314 1.838.353 2.267.088 1.162-.718 2.011-5.917 1.368-8.375-.599-2.288-1.17-2.558-2.929-1.384m-18.963 2.134c.306.494-.519 1.933-1.833 3.197-2.185 2.103-2.591 5.632-.499 4.339.492-.304.895-.119.895.412s.9.73 2 .443c1.1-.288 2-1.146 2-1.907 0-.76.45-1.383 1-1.383 1.642 0 1.131-4.736-.582-5.393-2.284-.877-3.622-.746-2.981.292m64.563 1.16c0 .582.45.781 1 .441s1-.816 1-1.059-.45-.441-1-.441-1 .477-1 1.059m-24 2.441c-1.375.786-2.024 1.445-1.441 1.465.582.019 1.932-.626 3-1.433 2.469-1.868 1.68-1.884-1.559-.032m-54 1.559c0 .582.45.781 1 .441s1-.816 1-1.059-.45-.441-1-.441-1 .477-1 1.059m48.813.624c.721.289 1.584.253 1.916-.079s-.258-.568-1.312-.525c-1.165.048-1.402.285-.604.604m-53.778 3.251c-1.617 3.022-1.307 8.066.496 8.066.843 0 1.674-.562 1.849-1.25.174-.687.785-2.684 1.357-4.436.838-2.563.754-3.296-.43-3.75-2.077-.797-2.122-.778-3.272 1.37m24.003 1.7C70.584 119.935 69.136 121 69.82 121c1.947 0 7.861-2.676 8.617-3.898.951-1.54-.247-1.199-5.399 1.532M60 120c.825.533 2.175.945 3 .914.989-.036.819-.347-.5-.914-2.749-1.181-4.328-1.181-2.5 0m51.014 9.05c.007 3.547.285 7.462.616 8.7 1.198 4.469 1.863 2.099 1.545-5.498-.405-9.652-2.181-12.283-2.161-3.202M43 130.309c0 .72.661 2.182 1.468 3.25.808 1.067 1.483 2.898 1.5 4.069.04 2.668 2.164 4.526 3.928 3.437 1.732-1.071 7.129-12.233 5.698-11.787-.602.188-2.219 2.451-3.594 5.029-2.521 4.726-4 5.922-4 3.234 0-1.907-3.283-8.485-4.25-8.516-.413-.014-.75.564-.75 1.284m13 8.75c0 .582.45.781 1 .441s1-.816 1-1.059-.45-.441-1-.441-1 .477-1 1.059"/><path fill-opacity=".103" fill-rule="evenodd" d="M0 100.005V200.01l100.25-.255 100.25-.255.255-99.75L201.01 0H0zm.481.495c0 55 .121 77.647.269 50.326.148-27.32.148-72.32 0-100C.602 23.147.481 45.5.481 100.5M92.54 34.347c-2.432 1.778-.349 3.156 2.48 1.642 1.815-.971 1.698-.46-.979 4.285-3.748 6.64-3.916 9.468-.613 10.297 3.238.813 6.572-.335 6.572-2.263 0-1.193-.693-1.419-2.956-.967-3.301.66-3.281-.172.139-5.841.995-1.65 1.811-4.237 1.813-5.75.003-2.207-.452-2.75-2.305-2.75-1.27 0-3.138.606-4.151 1.347m11.901.211c-1.844 1.48-1.778 1.539 1.309 1.173 1.787-.211 3.25-.211 3.25.001s-1.368 2.088-3.04 4.168c-5.207 6.48-3.873 12.299 2.456 10.71 3.452-.866 2.785-3.177-.84-2.913l-2.705.197 2.118-3.197c1.164-1.758 2.865-4.686 3.778-6.506 1.444-2.88 1.47-3.429.196-4.235-2.149-1.359-4.329-1.158-6.522.602m12.78 2.192C115.213 39.633 113 45.348 113 47.649c0 2.272 1.933 1.508 3.765-1.487 2.124-3.474 4.235-3.015 4.235.921 0 3.137 1.402 3.919 2.393 1.335C125.055 44.087 123.01 34 120.47 34c-.733 0-2.196 1.237-3.249 2.75m-45.258.847c-1.232 3.24.608 14.802 2.62 16.472 1.705 1.415 2.936-.976 2.116-4.11-.328-1.256.381-3.089 1.888-4.88C82.773 40.104 81.349 35 75.775 35c-2.121 0-3.07.647-3.812 2.597m12.49-1.521c-.645 1.044.149 10.645 1.174 14.174 1.109 3.822 2.372 1.413 2.359-4.5-.02-9.093-1.458-13.031-3.533-9.674M119 39.5c0 1.375.412 2.5.917 2.5 1.171 0 1.925-2.128 1.329-3.75-.796-2.165-2.246-1.358-2.246 1.25m-44.664.067c-.834 2.172 1.282 4.215 2.797 2.7C78.413 40.987 77.62 38 76 38c-.585 0-1.333.705-1.664 1.567m63.781.792c-1.826 2.2-5.081 12.572-4.456 14.2.908 2.365 3.664 3.417 5.044 1.924.947-1.024.894-1.423-.25-1.862-1.766-.678-1.832-2.63-.266-7.859 1.281-4.273 3.471-5.909 4.897-3.658 1.373 2.169 1.071 7.227-.572 9.572-1.328 1.896-1.312 2.187.143 2.746 1.847.709 1.691.811 3.208-2.106 2.742-5.275.047-14.316-4.268-14.316-1.294 0-2.86.611-3.48 1.359m-85.449 1.894c-4.266 3.12-2.293 14.594 2.917 16.968 3.091 1.408 7.139.225 7.948-2.324.85-2.679-1.025-4.805-2.733-3.097-1.993 1.993-5.635 1.381-7.348-1.233-1.702-2.597-1.071-4.979 1.993-7.522 3.451-2.864.87-5.458-2.777-2.792m100.053 6.821c-2.078 1.716-4.68 4.885-5.78 7.042-1.846 3.618-1.87 3.974-.314 4.571 1.109.426 2.422-.205 3.826-1.838 2.975-3.458 4.458-2.603 3.814 2.2-.732 5.457 1.312 5.156 3.843-.566 2.373-5.364 2.308-13.793-.11-14.247-.825-.154-3.201 1.123-5.279 2.838m-114.325.262C35.5 51.827 35.801 54 39.042 54c1.303 0 2.737 1.603 4.44 4.964 2.709 5.347 5.932 8.005 6.839 5.642.65-1.693-1.675-6.296-4.875-9.651-2.231-2.339-2.297-2.675-.818-4.154 3.816-3.816-1.929-5.167-6.232-1.465m116.208 2.254c-.988 2.575.524 3.956 2.049 1.87.741-1.013 1.347-2.206 1.347-2.651 0-1.475-2.775-.837-3.396.781m11.357 3.973c-1.62 2.622-2.053 4.484-1.637 7.048.506 3.116.227 3.692-2.629 5.433-7.082 4.318-15.132 1.116-17.559-6.985-.884-2.951-1.751-4.059-3.176-4.059-1.568 0-1.96.69-1.96 3.452 0 2.659.84 4.267 3.657 7.004 4.555 4.423 9.875 6.016 15.253 4.568 4.109-1.106 18.166-10.63 18.855-12.774.603-1.877-1.625-1.505-4.492.75-4.978 3.916-6.855 1.909-3.273-3.5 2.362-3.567 2.483-4.5.582-4.5-.781 0-2.41 1.603-3.621 3.563m-139.1 2.361c-2.357 1.921-2.358 1.93-.511 5.394C29.329 68.903 33.989 74 36.118 74 38.845 74 43 69.593 43 66.7c0-3.071-2.919-5.7-6.329-5.7C34.992 61 34 60.456 34 59.535 34 58.299 31.188 56 29.677 56c-.251 0-1.518.866-2.816 1.924m1.58 2.172c-1.073 1.735 2.279 4.584 3.709 3.154.887-.887.859-1.534-.115-2.708-1.508-1.817-2.659-1.96-3.594-.446m6.226 4.571c-1.05 1.05-.779 4.146.429 4.892 1.556.962 4.297-2.093 3.572-3.981-.618-1.612-2.803-2.11-4.001-.911m56.523.686c-3.121 1.732-6.175 6.562-6.183 9.778-.006 2.305.58 2.779 4.726 3.823 11.823 2.977 32.608 13.32 44.227 22.008l5.461 4.082 1.411-2.772c2.068-4.062 5.28-7.36 8.526-8.755l2.858-1.227-2.858-2.02c-9.206-6.508-34.766-18.802-47.358-22.779-3.025-.955-5.927-2.132-6.45-2.614-1.21-1.117-1.559-1.079-4.36.476M74.431 86.868c-10.733 9.392-22.897 22.035-27.096 28.163-7.745 11.305-9.029 17.692-5.221 25.969 1.53 3.325 2.112 6.772 2.228 13.201.162 8.949 1.196 11.574 4.116 10.453 1.347-.517 1.493-1.806.948-8.382-.568-6.859-.409-8.062 1.357-10.236 1.807-2.224 2.267-2.343 4.731-1.22 3.687 1.679 4.793.592 8.036-7.895 3.12-8.164 5.207-9.921 11.785-9.921 3.355 0 5.66-.622 7.412-2 1.699-1.336 4.075-2.005 7.158-2.015 2.538-.008 6.415-.651 8.615-1.428 3.407-1.203 4.211-1.207 5.421-.028 1.163 1.133 1.209 2.095.25 5.294-2.513 8.387-1.291 14.319 3.537 17.167 1.921 1.133 3.731 2.971 4.022 4.084.309 1.183 1.201 1.895 2.149 1.714 1.347-.257 1.706-2.252 2.121-11.798.391-8.991.924-12.19 2.447-14.709 2.51-4.148 4.129-4.705 6.576-2.258 3.057 3.057 4.535 2.4 6.788-3.023 1.858-4.471 2.405-5 5.165-5 4.115 0 4.926-2.408 1.901-5.645-6.49-6.945-28.112-19.206-43.377-24.598-12.373-4.37-11.09-4.62-21.069 4.111m7.193-1.743C77.356 86.267 75 88.889 75 92.5c0 4.443 2.636 6.5 8.329 6.5C88.824 99 92 96.518 92 92.223c0-5.712-4.373-8.703-10.376-7.098m-1.309 1.882c-3.081 1.242-4.802 4.701-3.262 6.557 1.58 1.904 7.936 1.832 10.724-.121 5.75-4.027-.36-9.297-7.462-6.436m.333 1.754c-.716 1.158 2.082 4.524 3.192 3.838 1.357-.839.215-4.599-1.398-4.599-.728 0-1.536.342-1.794.761M100.5 89c-.959 1.552.215 2.725 3.238 3.235 1.519.257 3.41.646 4.203.866.792.219 1.597-.308 1.789-1.173.6-2.708-7.732-5.351-9.23-2.928m1.583 1.356c.23.196 1.992.646 3.917.999 2.462.452 3.055.351 2-.341-1.356-.889-6.908-1.506-5.917-.658m-33.909 4.958c-4.309 4.587-1.819 6.392 3.237 2.347 1.706-1.365 2.613-2.813 2.191-3.495-1.112-1.8-3.042-1.391-5.428 1.148m17.367.345c-5.191 1.87-5.925 2.797-1.554 1.962 1.917-.366 4.151-1.331 4.964-2.143 1.694-1.694 1.815-1.701-3.41.181m64.904-.7c-1.13.458-3.543 2.528-5.363 4.601-2.99 3.405-3.251 4.193-2.704 8.185.642 4.682-.566 8.255-2.791 8.255-1.497 0-4.147 2.773-3.382 3.539.953.953 14.241-3.777 17.419-6.201 3.955-3.017 5.749-7.446 3.99-9.852-1.986-2.715-5.858-1.485-7.912 2.514-1.795 3.493-1.798 3.494-1.5.599.183-1.784 1.375-3.702 3.094-4.98 2.581-1.918 3.003-1.962 5.496-.562 1.631.915 2.936 2.69 3.295 4.479l.594 2.964 1.159-2.815c1.315-3.192 1.48-6.66.395-8.285-1.999-2.993-7.575-4.148-11.79-2.441m-81.573 1.705c-1.244 1.508-1.162 1.552.878.465 2.327-1.24 2.9-2.129 1.372-2.129-.482 0-1.495.749-2.25 1.664m29.442 3.286c-3.926 2.394-5.314 4.864-5.314 9.459 0 4.758 4.139 7.097 10.794 6.099 10.723-1.608 13.809-12.269 4.658-16.093-4.499-1.879-6.337-1.782-10.138.535m-.668 2.502c-4.593 4.257-2.666 8.548 3.838 8.548 5.196 0 11.458-4.944 9.696-7.654-2.512-3.865-9.809-4.346-13.534-.894m24.88.498c-1.925 3.722-1.936 5.679-.036 6.408q1.49.575 2.098-1.852c.334-1.333 1.212-2.925 1.951-3.538 1.586-1.316.837-3.968-1.12-3.968-.752 0-2.054 1.328-2.893 2.95m-20.937-.579c.289.754-.134 2.031-.941 2.838-.839.839-1.133 2.006-.687 2.727.883 1.429 4.128 1.09 4.177-.436.018-.55.499-1.562 1.069-2.25.726-.875.664-1.7-.207-2.75-1.559-1.878-4.119-1.975-3.411-.129m21.534 2.258c-1.702 3.737-.643 4.12 1.196.433.84-1.684 1.184-3.062.765-3.062-.42 0-1.302 1.183-1.961 2.629m-59.819.327c-6.32 3.853-9.21 12.138-5.522 15.826 4.264 4.264 15.293 3.638 20.902-1.187 5.213-4.484 3.014-12.094-4.402-15.233-4.391-1.858-7.205-1.706-10.978.594m-.769 3.148c-6.331 5.558-4.14 9.896 4.999 9.896 3.988 0 5.168-.502 8.124-3.458 2.858-2.858 3.278-3.793 2.421-5.395-1.115-2.084-5.938-4.147-9.693-4.147-1.274 0-3.907 1.397-5.851 3.104m23.824-2.288c-1.419.929-1.614 8.908-.238 9.759 1.599.988 2.846-1.522 2.864-5.766.016-3.846-.847-5.157-2.626-3.993m-18.882 2.148c.328.529-.32 1.879-1.441 3-2.433 2.433-2.47 2.745-.546 4.669 1.321 1.321 1.777 1.182 4-1.217 2.86-3.086 3.247-5.919.928-6.809-2.332-.895-3.618-.739-2.941.357m19.444 2.285c-.298 2.15-.145 3.375.358 2.872.483-.483.716-2.17.519-3.749-.33-2.644-.399-2.574-.877.877M69 110c0 .55.477 1 1.059 1s.781-.45.441-1-.816-1-1.059-1-.441.45-.441 1m39.21 1.14c-2.6 1.665-4.348 2.005-8.334 1.622-2.945-.283-4.49-.133-3.711.361 2.407 1.526 9.251.921 12.585-1.112 1.787-1.09 3.25-2.213 3.25-2.496 0-.759-.199-.674-3.79 1.625m-30.265 4.426c-3.764 4.536-14.323 6.212-18.024 2.862-1.057-.956-1.921-1.273-1.921-.705 0 2.194 3.426 3.705 8.361 3.688 5.823-.021 10.246-1.86 12.409-5.161 1.683-2.569 1.124-3.032-.825-.684m-28.97 1.999c-1.54 4.051-1.209 6.435.894 6.435 1.377 0 2.026-.964 2.463-3.656.916-5.647-1.504-7.651-3.357-2.779m.596 2.006c-.367 1.466-.475 2.858-.24 3.094.236.235.73-.771 1.098-2.236.367-1.466.475-2.858.24-3.094-.236-.235-.73.771-1.098 2.236M99.2 126.1c-2.098 1.078-4.648 1.522-7 1.218-3.039-.392-3.939-.083-5.04 1.733-1.251 2.064-1.185 2.175 1 1.664 1.287-.301 4.956-1.073 8.154-1.715 3.295-.662 6.056-1.8 6.373-2.627.815-2.122.202-2.17-3.487-.273m12.059 3.254c-.133 2.83.166 6.496.664 8.146.732 2.426.922 1.529.991-4.691.096-8.607-1.279-11.477-1.655-3.455m-67.592 1.344c.354.991.984 2.252 1.4 2.802s.908 2.35 1.095 4c.562 4.987 3.823 3.961 7.151-2.25 1.548-2.887 2.404-5.25 1.902-5.25-.501 0-1.724 1.803-2.718 4.006-2.717 6.025-4.133 6.749-4.926 2.52-.364-1.939-1.091-3.526-1.616-3.526s-.955-.648-.955-1.441-.445-1.716-.989-2.052c-.588-.364-.728.118-.344 1.191m28.774 1.884c-1.776 1.447-1.785 1.532-.109 1 1.007-.32 2.807-.589 4-.597 1.766-.013 1.89-.195.668-.985-2.004-1.295-2.302-1.257-4.559.582"/><path fill-opacity=".456" fill-rule="evenodd" d="M0 100.005V200.01l100.25-.255 100.25-.255.255-99.75L201.01 0H0zm.481.495c0 55 .121 77.647.269 50.326.148-27.32.148-72.32 0-100C.602 23.147.481 45.5.481 100.5M91.98 34.524c-1.81 2.181-.436 3.005 2.66 1.594l2.648-1.206-1.644 2.544-3.217 4.979c-2.038 3.157-1.525 7.934.902 8.395 3.036.576 6.671-.766 6.671-2.463 0-1.193-.735-1.486-2.925-1.165l-2.926.43 2.95-5.669c1.689-3.246 2.681-6.374 2.319-7.316-.804-2.095-5.734-2.176-7.438-.123m12.136-.164c-1.43 1.724-.061 2.94 2.294 2.036 2.044-.784 2.06.969.024 2.659-2.12 1.759-4.434 6.392-4.434 8.876 0 3.542 8.142 4.288 8.812.808.248-1.288-.333-1.739-2.239-1.739-3.189 0-3.191-.324-.024-4.476 1.402-1.838 2.64-4.62 2.75-6.183.177-2.495-.175-2.878-2.884-3.142-1.811-.177-3.587.303-4.299 1.161m-31.162 1.686c-1.935 1.935-2.122 2.871-1.548 7.752C72.574 53.735 77 59.2 77 50.706c0-2.815.574-4.937 1.555-5.751 2.807-2.33 3.531-4.671 2.289-7.398C80.203 36.151 79.338 35 78.921 35c-.416 0-1.434-.26-2.262-.577-.839-.322-2.477.395-3.705 1.623m44.739-.259C115.629 38.068 113 44.331 113 46.968c0 2.861 2.808 2.547 4.182-.468 1.514-3.324 3.407-3.183 3.357.25-.025 1.795.482 2.75 1.461 2.75 1.097 0 1.579-1.361 1.796-5.064.511-8.757-2.344-12.803-6.103-8.649m-33.339.732c-.834 2.173.612 14.342 1.791 15.071.543.335 1.232.366 1.53.068.711-.71.536-12.419-.221-14.804-.713-2.244-2.301-2.415-3.1-.335m35.177 1.774c-.428.986-.497 2.074-.155 2.417 1.016 1.015 1.835-.411 1.367-2.382-.414-1.747-.468-1.748-1.212-.035m-44.943.564c-.869 1.406.468 4.291 1.785 3.852 1.48-.493 1.456-3.933-.031-4.428-.637-.213-1.426.047-1.754.576m62.54 3.173c-1.057 1.737-2.485 5.174-3.175 7.636-1.155 4.128-1.089 4.642.842 6.574 1.789 1.788 2.333 1.899 3.714.753 1.488-1.235 1.485-1.417-.038-2.269-1.779-.996-1.453-5.475.752-10.313 1.328-2.916 2.366-3.048 3.742-.477 1.485 2.775 1.277 6.276-.527 8.851-1.423 2.031-1.417 2.286.067 2.855 2.454.942 3.733-.997 4.178-6.331.504-6.033-1.283-9.699-4.932-10.123-2.131-.248-3.109.354-4.623 2.844m-85.571 1.193c-3.034 4.331-1.094 13.349 3.388 15.747 4.262 2.281 9.055.634 9.055-3.111 0-2.511-1.289-2.954-4.773-1.638-2.411.91-3.404.877-4.647-.154-2.198-1.825-1.974-6.401.42-8.567 1.1-.995 2-2.415 2-3.155 0-2.154-3.742-1.551-5.443.878m100.697 6.167c-5.116 4.622-8.14 10.124-6.478 11.786.948.948 1.821.626 4.022-1.483 3.51-3.362 5.615-3.564 4.62-.443-1.191 3.734-1.001 5.156.734 5.516 2.211.459 5.078-8.127 4.658-13.947-.405-5.62-2.482-6.013-7.556-1.429m-113.916-.005c-2.341 2.014-2.572 2.628-1.482 3.941.709.855 1.911 1.317 2.67 1.026.903-.347 2.11 1.024 3.492 3.963 2.617 5.566 5.588 8.479 7.105 6.962 1.552-1.552.182-4.933-3.773-9.311-3.063-3.391-3.256-3.919-1.743-4.766 2.198-1.23 1.124-4.2-1.52-4.2-1.086 0-3.223 1.073-4.749 2.385M155.2 51.2c-1.633 1.633-1.508 2.8.3 2.8.833 0 1.5-.889 1.5-2 0-2.331-.186-2.414-1.8-.8m10.733 4.05c-1.446 2.306-1.904 4.347-1.577 7.026.433 3.55.228 3.895-3.408 5.75-2.127 1.086-5.202 1.974-6.831 1.974-4.031 0-8.733-4.141-9.531-8.394-.351-1.873-1.351-3.996-2.221-4.718-1.332-1.105-1.801-1.012-2.973.591-1.835 2.509-1.77 3.173.695 7.162 2.524 4.084 9.475 8.359 13.591 8.359 3.966 0 13.703-4.976 19.322-9.875 4.322-3.767 5-6.846.955-4.337l-3.91 2.424c-2.996 1.859-3.396.397-1.115-4.075 2.474-4.849 2.505-5.137.555-5.137-.833 0-2.431 1.462-3.552 3.25M26.544 57.344c-1.329.972-1.661 2.054-1.197 3.904C26.34 65.204 33.735 74 36.069 74 38.9 74 43 69.591 43 66.545c0-3.257-3.494-6.84-5.919-6.071-1.239.393-2.345-.227-3.472-1.948-1.838-2.805-4.286-3.214-7.065-1.182M29 60.941c0 2.199 1.506 3.482 3.003 2.557.667-.412.655-1.269-.035-2.559-1.336-2.495-2.968-2.494-2.968.002m5.57 4.737c-.354.922-.026 2.295.729 3.05 1.164 1.163 1.567 1.138 2.649-.165 1.507-1.816.719-4.563-1.31-4.563-.783 0-1.714.755-2.068 1.678m54.447 1.151c-2.244 2.244-5.745 10.132-4.74 10.68.123.067 4.017 1.346 8.655 2.843 14.999 4.842 28.714 11.92 41.266 21.296 5.519 4.122 5.719 4.187 6.366 2.054 1.305-4.301 5.42-8.531 10.002-10.28l4.6-1.757-6.833-4.317c-9.835-6.213-33.547-17.812-42.509-20.794-10.064-3.348-13.235-3.296-16.807.275M75.903 85.354c-10.48 8.994-25.767 25.126-30.218 31.886-7.319 11.118-7.871 14.729-3.664 23.996 1.382 3.045 1.946 6.551 1.972 12.264.04 8.795 1.508 13 4.537 13 1.671 0 1.934-.607 1.736-4-.825-14.112-.754-15.436.924-17.116 1.556-1.559 1.947-1.568 4.953-.112 5.179 2.509 8.734-.768 10.386-9.574.789-4.209 4.911-8.165 7.403-7.107 4.214 1.79 5.893 1.501 9.45-1.622 2.965-2.603 4.225-3.098 6.655-2.612 2.02.404 4.425-.094 7.374-1.526 5.469-2.657 8.098-1.947 7.144 1.931-.37 1.506-.925 5.322-1.234 8.481-.612 6.271.934 10.069 4.57 11.223 1.167.37 2.478 2.302 3.277 4.825.77 2.433 1.952 4.209 2.802 4.209 2.834 0 4-4.701 4.015-16.185.021-16.099 2.266-20.323 7.92-14.906 3.215 3.08 3.895 2.648 6.635-4.21 1.354-3.39 2.344-4.426 4.675-4.892 1.626-.325 3.202-1.229 3.501-2.009 1.93-5.029-26.844-22.819-48.094-29.734C88.29 80.154 84.421 79 84.025 79s-4.051 2.859-8.122 6.354m1.552 2.101c-6.733 6.733 1.665 14.637 11.022 10.374 4.1-1.868 4.553-7.657.886-11.323-2.446-2.446-9.04-1.92-11.908.949m.851.984c-2.307 2.006-2.61 2.762-1.705 4.25 1.303 2.143 6.831 2.858 10.705 1.385 2.913-1.108 3.689-4.679 1.494-6.874-2.043-2.043-7.454-1.404-10.494 1.239M81 89.5c0 .825.787 1.507 1.75 1.515 1.51.014 1.544.161.25 1.076-.993.703-1.053.943-.175.71.729-.193 1.291-.677 1.25-1.076S84 90.325 84 89.5s-.675-1.5-1.5-1.5-1.5.675-1.5 1.5m19.625-.702c-1.009 1.633 1.02 3.066 4.784 3.379 4.87.405 5.821-1.553 1.487-3.063-3.777-1.317-5.596-1.409-6.271-.316M102 89.892c0 .609.563 1.114 1.25 1.122.688.007 2.375.293 3.75.636 1.747.435 2.199.301 1.5-.443-1.523-1.622-6.5-2.629-6.5-1.315M68.5 95.43c-2.33 1.88-2.734 2.692-1.81 3.635.93.949 1.818.685 4.071-1.211 1.585-1.333 2.7-2.971 2.477-3.639-.574-1.724-1.338-1.528-4.738 1.215m.608.681c-1.315 1.066-2.09 2.24-1.722 2.608.368.369 1.645-.305 2.836-1.497 2.809-2.808 1.989-3.626-1.114-1.111m18.863-1.072c-.809.512-3.496.968-5.971 1.013-3.899.072-4.208.224-2.316 1.139 2.414 1.167 8.883.318 9.881-1.296.923-1.493.106-1.931-1.594-.856m60.211.991c-4.172 2.544-7.773 9.996-6.227 12.886 1.482 2.77.247 5.094-3.059 5.755-2.991.598-4.158 1.634-5.234 4.644-.725 2.027-1.399 2.111 10.085-1.25 4.348-1.272 8.591-3.301 10.606-5.07 1.848-1.622 3.625-2.684 3.949-2.359 1.166 1.166 4.691-6.214 4.694-9.829.003-2.686-.602-4.118-2.219-5.25-3.07-2.151-8.634-1.942-12.595.473m-47.216 2.753c-7.308 3.418-10.297 10.797-5.962 14.72 2.242 2.029 8.745 2.337 13.194.625 5.979-2.302 7.407-10.375 2.413-13.647-2.745-1.799-7.601-2.654-9.645-1.698m-3.331 3.29c-2.931 2.305-3.456 6.001-1.127 7.934 3.604 2.99 15.492-1.326 15.492-5.625 0-4.2-9.932-5.797-14.365-2.309m26.119-.347c-.879.976-1.907 3.011-2.284 4.524-1.043 4.178 1.789 3.527 3.898-.896 1.951-4.091.911-6.429-1.614-3.628m28.524-.633c-2.251.833-4.333 3.853-4.199 6.091.043.724.509.144 1.035-1.29 2.312-6.3 10.593-5.025 9.442 1.453-.514 2.89-.464 2.965.598.894 2.329-4.537-1.94-8.974-6.876-7.148m-28.013 1.133c-1.249 1.56-2.605 5.774-1.858 5.774.776 0 3.826-6.1 3.309-6.617-.237-.237-.89.142-1.451.843m-23.012 2.454c-.966 2.096-.976 2.873-.048 3.447 1.894 1.17 3.012-.127 2.357-2.736-.588-2.342.776-3.389 1.78-1.366.279.564.392.451.25-.25-.478-2.365-3.083-1.822-4.339.905M66 103.82c-4.251 1.927-7.061 4.772-8.542 8.651-2.687 7.037.632 10.751 9.547 10.682 5.759-.044 11.438-2.244 12.915-5.003 1.677-3.134 1.305-8.636-.707-10.457-2.049-1.855-8.53-4.727-10.431-4.623-.705.039-1.957.376-2.782.75m-2.757 3.299c-3.526 2.259-5.131 6.239-3.542 8.786.547.877 2.584 1.999 4.527 2.492 2.856.725 4.421.467 8.169-1.347 7.287-3.528 8.266-7.622 2.531-10.587-3.914-2.024-7.844-1.803-11.685.656m22.441-.369c-.238.412-.031 1.65.462 2.75.824 1.841.861 1.822.468-.25-.235-1.237-.019-2.25.48-2.25 1.186 0 1.179 5.714-.009 6.447-.503.311-1.142 0-1.421-.691-.305-.758-.537-.562-.585.494-.098 2.182 2.491 2.313 3.314.168 1.159-3.021.665-7.418-.834-7.418-.793 0-1.636.338-1.875.75m-18.257 1.132c.3.486-.342 2.011-1.426 3.39-1.719 2.185-1.783 2.664-.499 3.729 1.887 1.567 4.892.469 4.133-1.509-.347-.905.005-1.492.896-1.492 1.774 0 1.926-2.143.269-3.8-1.379-1.379-4.192-1.644-3.373-.318M108 110.733c-3.506 2.424-7.526 2.696-12.5.847l-2-.743 2 1.661c2.869 2.382 11.861 1.585 14.754-1.307 3.05-3.05 1.849-3.294-2.254-.458M68.5 110c-.34.55.11 1 1 1s1.34-.45 1-1-.79-1-1-1-.66.45-1 1m-2 3c-.34.55-.141 1 .441 1S68 113.55 68 113s-.198-1-.441-1-.719.45-1.059 1m12.032 1.948c-1.289 2.087-8.491 5.052-12.27 5.052-2.099 0-4.877-.743-6.173-1.65-1.813-1.27-2.249-1.328-1.893-.25.66 2 4.764 3.868 8.534 3.885 4.391.02 11.096-2.791 12.38-5.191 1.102-2.058.581-3.722-.578-1.846m-29.371 2.599c-1.591 3.491-1.457 6.453.292 6.453 1.497 0 3.895-6.629 2.95-8.156-.925-1.497-2.055-.904-3.242 1.703m.446 1.035c-.895 2.331-.738 4.617.274 3.992 1.132-.7 2.083-5.574 1.087-5.574-.415 0-1.027.712-1.361 1.582m71.862 3.468c-.918 1.486-.188 2.012 1.417 1.021.859-.532.962-1.047.29-1.462-.571-.353-1.339-.154-1.707.441M98.5 124.068c-1.851 1.185-4.778 1.923-7.643 1.927-3.261.003-4.819.465-5.236 1.55-1.043 2.717-6.995 4.569-10.622 3.305-2.604-.908-3.459-.819-4.776.498-.882.883-1.293 1.915-.913 2.295.596.596 11.882-1.285 28.94-4.824 4.356-.903 4.75-1.227 4.75-3.902 0-3.374-.431-3.456-4.5-.849m13.752 4.432c.011 2.2.216 2.982.455 1.738s.23-3.044-.02-4-.446.062-.435 2.262m-58.729 4c-.838 1.375-2.276 3.728-3.196 5.23l-1.674 2.729-.973-2.979c-.983-3.012-3.68-7.548-3.68-6.189 0 .405.423 1.518.94 2.473s1.207 3.003 1.535 4.552c.9 4.251 3.596 3.006 6.671-3.08 2.771-5.485 2.982-7.011.377-2.736m58.635 4.5c0 1.375.227 1.938.504 1.25.278-.687.278-1.812 0-2.5-.277-.687-.504-.125-.504 1.25"/><path fill-opacity=".338" fill-rule="evenodd" d="M0 100.005V200.01l100.25-.255 100.25-.255.255-99.75L201.01 0H0zm.481.495c0 55 .121 77.647.269 50.326.148-27.32.148-72.32 0-100C.602 23.147.481 45.5.481 100.5M92.25 33.662C91.563 33.94 91 34.857 91 35.7c0 1.089.712 1.397 2.456 1.064l2.456-.47-2.527 4.311c-1.509 2.576-2.397 5.435-2.205 7.103.269 2.351.844 2.842 3.635 3.11 4.093.393 6.75-1.433 5.056-3.473-.676-.814-1.972-1.13-3.13-.763-1.088.345-1.801.243-1.586-.227s1.46-2.945 2.766-5.499 2.097-5.367 1.758-6.25c-.596-1.552-4.645-2.067-7.429-.944m11.872.216c-1.889 1.231-.339 3.412 1.992 2.802 2.099-.548 1.895-.002-1.865 5.009-1.531 2.04-2.277 4.203-2.071 6 .278 2.43.808 2.852 3.908 3.112 2.309.193 4.04-.247 4.862-1.239 1.349-1.625.889-2.025-3.164-2.753-1.481-.267-1.304-.922 1.291-4.772 3.751-5.563 3.563-8.438-.575-8.798-1.65-.143-3.62.144-4.378.639m14.232 1.305C115.38 38.433 113 43.442 113 46.45c0 3.338 2.669 3.37 4.182.05 1.439-3.159 2.818-3.219 2.818-.122 0 2.482 2.204 5.085 3.342 3.947.362-.362.658-3.458.658-6.881 0-4.454-.501-6.841-1.763-8.4l-1.763-2.177zm-45.843.805c-1.48 1.635-1.689 3.034-1.181 7.895C72.039 50.67 73.726 55 75.661 55 76.573 55 77 53.622 77 50.674c0-3.321.581-4.871 2.5-6.674 3.02-2.837 3.176-5.324.5-8-2.541-2.541-5.197-2.545-7.489-.012m11.759 7.125c.577 8.416 1.96 11.626 3.826 8.879 1.027-1.511.581-12.063-.643-15.254C87.086 35.782 86.095 35 85.25 35c-1.301 0-1.451 1.242-.98 8.113M75 40.5c0 1.375.402 2.5.893 2.5 1.166 0 2.274-2.921 1.551-4.09C76.355 37.147 75 38.029 75 40.5m44-1c0 .825.45 1.5 1 1.5s1-.675 1-1.5-.45-1.5-1-1.5-1 .675-1 1.5m19.616.793c-3.047 3.048-6.012 10.992-5.244 14.053.75 2.987 3.328 4.121 5.505 2.421 1.441-1.125 1.47-1.072.261.47-1.769 2.256-.854 5.759 2.565 9.822 7.199 8.556 17.395 7.612 30.13-2.79 6.87-5.611 7.264-9.445.498-4.848-4.48 3.044-5.501 1.907-2.797-3.114 2.617-4.859.606-6.45-2.894-2.291-1.978 2.351-2.64 4.241-2.64 7.538 0 4.862-1.927 6.881-7.664 8.029-3.536.707-8.725-1.573-10.306-4.528-1.452-2.712-1.279-4.088.432-3.431.831.319 2.499-.558 3.865-2.032 3.222-3.477 4.945-3.439 3.607.08-1.185 3.117-.593 5.328 1.426 5.328 1.546 0 4.086-5.531 5.153-11.22.786-4.189-.781-7.78-3.395-7.78-2.29 0-8.573 6.046-10.87 10.459l-1.748 3.36-1.953-2.659c-1.343-1.828-1.449-2.254-.341-1.362 4.308 3.465 6.735-10.06 2.721-15.163-2.536-3.224-3.383-3.27-6.311-.342M51.395 43.52c-1.172 1.788-1.503 3.831-1.141 7.04.547 4.854 2.807 8.119 6.631 9.581C59.88 61.286 64 58.857 64 55.946c0-2.386-2.663-3.683-4.267-2.079-1.565 1.565-3.306 1.417-5.162-.438-2.202-2.203-1.975-6.142.429-7.429 1.1-.589 2-1.955 2-3.035 0-2.858-3.603-2.501-5.605.555m87.045 4.037c-1.316 4.527-1.395 5.853-.388 6.475 3.248 2.007 6.822-3.91 5.236-8.669-1.522-4.566-3.088-3.858-4.848 2.194m-98.245.146c-4.607 2.231-5.678 8.18-1.265 7.026 1.239-.324 2.459.996 4.47 4.837 2.692 5.142 4.835 7.025 6.69 5.878 1.79-1.106.855-4.232-2.554-8.54-2.222-2.808-3.118-4.722-2.5-5.34 1.401-1.401 1.18-4.267-.374-4.863-.736-.283-2.746.168-4.467 1.002m115.336 3.59c-.428.986-.497 2.074-.155 2.417 1.016 1.015 1.835-.411 1.367-2.382-.414-1.747-.468-1.748-1.212-.035M26.75 57.08c-2.769 1.613-2.069 4.97 2.329 11.17 3.273 4.614 4.622 5.75 6.826 5.75 6.298 0 9.684-9.258 4.603-12.587-1.371-.898-3.137-1.386-3.925-1.083-.835.32-2.098-.468-3.031-1.89-1.694-2.586-3.929-3.033-6.802-1.36m2.416 3.98c.184 1.256.934 2.481 1.668 2.723.907.299 1.227-.292 1-1.843-.184-1.256-.934-2.481-1.668-2.723-.907-.299-1.227.292-1 1.843m5.87 4.396c-1.361 1.64-.6 3.544 1.416 3.544 1.516 0 2.84-2.718 1.992-4.09-.812-1.315-2.024-1.121-3.408.546m54.06 1.117c-3.631 3.055-6.057 10.202-3.923 11.555 1.014.643.918.845-.407.857-2.417.021-21.453 16.667-29.142 25.484-7.244 8.306-11.349 14.059-14.599 20.46-2.623 5.167-2.317 10.618.956 17.034 1.527 2.993 2.019 5.906 2.019 11.95C44 163.465 45.298 167 48.805 167c2.472 0 2.481-.032 1.753-6.75-1.509-13.926-.094-17.613 5.625-14.656 1.613.835 3.83 1.219 4.959.861 2.153-.683 5.799-7.544 5.836-10.982.012-1.116.741-3.055 1.62-4.31 1.442-2.058 2.12-2.217 6.902-1.62 4.986.623 5.498.477 8.565-2.455 2.755-2.633 3.778-3.02 6.583-2.494 2.416.453 4.292.049 6.893-1.486 1.965-1.159 4.174-2.108 4.909-2.108 1.931 0 2.646 2.618 1.522 5.574-.535 1.406-.972 5.183-.972 8.394 0 5.495.21 6.007 3.58 8.71 2.33 1.869 3.828 4.084 4.29 6.341.464 2.267 1.366 3.595 2.604 3.834 3.509.676 4.526-2.53 4.532-14.294.008-17.197 2.669-23.212 7.557-17.083 2.821 3.538 4.85 2.862 6.467-2.156 1.553-4.821 2.744-6.32 5.021-6.32.993 0 2.586-.779 3.538-1.732 1.309-1.308 1.614-1.37 1.247-.25-.268.815-1.994 1.98-3.836 2.589-2.951.975-5.876 4.85-4.614 6.112.236.236 4.183-.575 8.771-1.801 6.998-1.871 9.028-2.91 12.593-6.443 3.731-3.698 5.658-4.735 3.5-1.884-.412.545.488-.272 2-1.816 2.492-2.543 3.36-5.597 2.778-9.775-.438-3.15-3.296-4.999-7.933-5.132-4.4-.126-4.447-.157-1.11-.75l3.485-.618-4.985-3.139C131.276 76.004 104.548 64 96.017 64c-2.691 0-4.791.781-6.921 2.573M91.92 81.07c2.981 1.058 5.593 1.751 5.804 1.539.467-.466-8.642-3.639-10.152-3.536-.59.04 1.367.939 4.348 1.997m11.985 4.499c2.973 1.35 5.574 2.286 5.78 2.079.435-.434-9.15-4.677-10.37-4.59-.448.031 1.617 1.162 4.59 2.511M79 86.605c-1.471.902-1.677 1.213-.5.756 1.1-.428 3.87-.796 6.155-.819 2.284-.023 3.945-.38 3.69-.792-.798-1.292-6.731-.749-9.345.855m11.383 2.668c.346 1.074-.276 2.62-1.579 3.923-1.714 1.714-1.794 2.014-.396 1.478.966-.371 2.169-.674 2.674-.674 1.253 0 1.132-3.16-.192-5-.907-1.261-.988-1.217-.507.273m17.969 1.487c.363.588.095 1.297-.596 1.576-.899.362-.917.529-.065.585 1.721.114 2.548-1.656 1.171-2.506-.698-.432-.904-.292-.51.345m6.648-.451c0 .275 2.588 1.948 5.75 3.718 7.074 3.959 18.893 12.587 20.303 14.822.865 1.369.942 1.28.451-.526-.839-3.085 1.671-8.451 5.437-11.62 1.767-1.487 2.816-2.703 2.332-2.703-1.507 0-7.096 6.356-8.227 9.357l-1.078 2.856-3.734-2.797c-8.088-6.059-9.938-7.301-15.484-10.397-3.162-1.766-5.75-2.985-5.75-2.71M75.079 92.5c-.074 3.084 1.165 4.328 3.421 3.434 1.739-.69 1.767-.803.218-.864-.98-.038-2.189-1.083-2.687-2.32-.827-2.059-.908-2.08-.952-.25m27.19-.807c.973.254 2.323.237 3-.037s-.119-.481-1.769-.461-2.204.244-1.231.498m-31.666 2.14c-.283.459.12.834.897.834s1.18-.375.897-.834S71.71 93 71.5 93s-.614.375-.897.833m13.21 1.85c.721.289 1.584.253 1.916-.079s-.258-.568-1.312-.525c-1.165.048-1.402.285-.604.604m4.746.849c-1.068.807-1.46 1.468-.873 1.468.588 0 1.629-.675 2.314-1.5 1.557-1.876 1.067-1.866-1.441.032M69.678 97.75c-1.531 1.531-1.869 1.562-2.699.25-.566-.896-.955-1.02-.964-.309-.029 2.305 2.21 2.528 4.308.43C71.49 96.955 72.216 96 71.937 96c-.28 0-1.296.787-2.259 1.75m11.572.939c.963.252 2.537.252 3.5 0 .963-.251.175-.457-1.75-.457s-2.713.206-1.75.457m15.827 2.9c-1.692 1.424-3.063 3.111-3.047 3.75s.507.343 1.088-.657 2.481-2.686 4.22-3.746 2.634-1.93 1.989-1.932c-.646-.002-2.558 1.161-4.25 2.585m10.553-1.149c3.717 1.618 4.698 2.952 3.936 5.353-1.244 3.917-9.057 6.524-14.566 4.859-2.439-.737-2.452-.716-.5.872 4.148 3.377 16.478-1.259 16.493-6.201.008-2.391-4.321-6.346-6.878-6.284-.888.022-.207.652 1.515 1.401m16.233 1.321c-1.216 1.551-1.185 1.6.29.447 1.35-1.055 1.747-1.055 2.171 0 .356.887.543.918.597.101.136-2.048-1.633-2.365-3.058-.548M102 104c-.819 1.531-.76 2 .251 2 .726 0 1.32-.9 1.32-2s-.112-2-.25-2-.732.9-1.321 2m-40.613 3.284c-2.836 2.599-3.692 4.24-4.1 7.863-.449 3.981-.211 4.793 1.821 6.216 4.681 3.278 18.55 1.013 20.921-3.418 2.412-4.506.629-10.036-4.009-12.435-5.091-2.632-10.547-1.971-14.633 1.774m97.692-1.701c.048 1.165.285 1.402.604.605.289-.722.253-1.585-.079-1.917s-.568.258-.525 1.312m-96.881 2.091c-2.677 2.29-3.385 3.722-3.734 7.55-.542 5.954 1.266 7.181 9.689 6.571 6.193-.448 11.059-3.039 11.684-6.223.275-1.397-.427-1.21-3.774 1.005-5.163 3.417-12.649 4.341-15.563 1.921l-2-1.661 2 .743c6.856 2.549 14.459.412 17.493-4.916 1.381-2.424 1.331-2.784-.666-4.782-1.425-1.425-3.804-2.308-6.994-2.597-4.199-.381-5.266-.067-8.135 2.389m58.802-.341c0 .927.777 1.66 1.75 1.652.999-.009 1.321-.336.75-.762-.55-.41-1.338-1.154-1.75-1.651s-.75-.155-.75.761m-53.634 2.172c-.891 1.886-.829 2.487.297 2.919.869.334 1.305-.005 1.127-.874-.159-.781.16-1.403.71-1.384s.888.439.75.934.2.9.75.9c1.539 0 1.189-1.519-.757-3.28-1.622-1.468-1.843-1.408-2.877.785M93 109.319c0 1.34.787 3.054 1.75 3.809 1.556 1.22 1.61 1.192.483-.251-.697-.893-1.004-2.31-.682-3.149s.105-1.823-.483-2.186c-.646-.399-1.068.303-1.068 1.777m7-1.864c0 .772 2.976 1.392 3.399.709.254-.412-.406-.814-1.468-.894s-1.931.003-1.931.185m-11.921 4.128c.048 1.165.285 1.402.604.605.289-.722.253-1.585-.079-1.917s-.568.258-.525 1.312m21.421.676c-1.1.659-4.475 1.479-7.5 1.823l-5.5.624 4.8.147c4.143.127 10.7-1.943 10.7-3.379 0-.652-.213-.585-2.5.785m-44.059 2.273c2.29 1.732 3.559 1.878 3.559.409 0-.582-.419-.8-.931-.484s-1.213.118-1.559-.441-1.164-1.002-1.819-.984c-.655.017-.317.692.75 1.5M48.158 122c0 1.375.227 1.938.504 1.25.278-.687.278-1.812 0-2.5-.277-.687-.504-.125-.504 1.25m72.473.52c-.465 1.211-.11 1.538 1.414 1.299 2.329-.365 2.767-2.171.634-2.618-.785-.165-1.707.429-2.048 1.319m-23.023 1.623c-2.624 1.383-4.861 1.856-6.869 1.455-2.392-.479-3.673.015-6.516 2.511-3.223 2.83-3.962 3.051-8.287 2.477-3.633-.482-5.123-.256-6.343.963-2.261 2.261-1.973 3.573.657 2.992 1.237-.273 8.578-1.666 16.312-3.094s14.586-2.92 15.226-3.316c1.485-.918 2.032-5.31.712-5.724-.55-.172-2.751.609-4.892 1.736M45.1 133.705c.729 1.212 1.54 1.989 1.803 1.726s-.333-1.255-1.324-2.205c-1.722-1.649-1.744-1.628-.479.479m7.359.362c-.363.586-.445 1.281-.183 1.543s.743-.218 1.069-1.067c.676-1.762.1-2.072-.886-.476m-2.119 4.49c-.329.857-1.215 1.321-1.969 1.032s-1.371-.09-1.371.442c0 1.758 2.909 1.008 4-1.031.589-1.1.815-2 .504-2-.312 0-.836.701-1.164 1.557"/></svg>