<svg xmlns="http://www.w3.org/2000/svg" width="200" height="200" fill="#000000"><path fill-opacity=".075" fill-rule="evenodd" d="M.065 44.491c.085 24.47.519 44.266.964 43.991C2.26 87.722 5 90.889 5 93.071c0 2.282 1.814 2.577 2.638.429.317-.825 1.229-1.5 2.028-1.5.811 0 1.149.491.765 1.112-.378.611-.067 1.504.691 1.984.898.569-.276.879-3.372.889-3.999.013-4.75-.284-4.75-1.878 0-1.041-.675-2.152-1.5-2.469-1.77-.679-1.864-.187-.465 2.428.714 1.333.714 1.934 0 1.934C.466 96 0 97.548 0 99.44c0 3.252.204 3.456 3.75 3.75 2.885.238 3.717.722 3.605 2.095-.114 1.411.145 1.545 1.239.637.761-.632 1.161-1.51.887-1.952-.273-.442 1.532-.803 4.011-.803 4.586 0 5.366.575 3.421 2.52-.783.783-.74 1.302.154 1.855.773.477.988.357.571-.318-.369-.597-.264-1.337.232-1.644 1.615-.998 3.045 1.929 2.671 5.466-.201 1.9-.158 2.939.095 2.31s1.364-.907 2.469-.618c1.288.336 1.8 1.067 1.429 2.035-.461 1.199-.291 1.27.826.343 1.106-.918 1.572-.788 2.182.608.427.977.709 2.097.629 2.49-.081.393.528.455 1.352.139 1.126-.432 1.326-.112.801 1.286-.602 1.605-.478 1.682.901.561 1.376-1.118 2.053-.737 4.831 2.72 1.777 2.212 3.522 3.841 3.877 3.621.355-.219 2.608.919 5.007 2.53S49.71 132 50.209 132s.624.461.276 1.025c-.349.563-.263.906.191.762.453-.144 2.31.359 4.126 1.118 2.254.942 3.12 1.857 2.727 2.879-.436 1.138-.261 1.239.727.419.953-.792 2.46-.562 5.632.858 2.382 1.067 4.956 1.939 5.721 1.939s1.391.338 1.392.75 1.013.847 2.25.965c5.523.528 16.794 2.907 16.267 3.434-.321.32.894.443 2.7.272 1.805-.171 7.782-.516 13.282-.767s10.675-.701 11.5-1.001c5.462-1.981 9.455-2.535 10.152-1.407.531.859.922.725 1.381-.473.586-1.525 9.18-5.22 12.259-5.27.71-.011 1.61-.5 2-1.086s2.73-2.158 5.202-3.492 5.382-3.224 6.465-4.2 2.549-1.552 3.256-1.281 1.285-.176 1.285-.995c0-1.045.751-1.352 2.52-1.031 1.45.263 2.27.052 1.931-.497-.324-.524-1.121-.649-1.77-.276-.65.373-.078-.533 1.271-2.013s3.036-2.467 3.75-2.193 1.298-.071 1.298-.767c0-1.606 7.392-8.89 8.313-8.192.378.286.477.235.22-.113-.256-.348.931-2.579 2.638-4.956 2.577-3.588 3.012-4.968 2.559-8.117-.301-2.087-.325-3.231-.055-2.544.27.688.931 1.25 1.467 1.25.537 0 .698-.45.358-1s-.029-1.052.691-1.115c.72-.064 1.759-.22 2.309-.348s1.701-.301 2.557-.385c1.083-.106 1.494-1.066 1.35-3.152-.137-1.974.261-3 1.161-3 .806 0 1.133.617.794 1.5-.32.832-.029 1.5.653 1.5.916 0 .879.425-.143 1.663-.973 1.178-1.039 1.774-.228 2.048.629.211.944 1.151.7 2.087-.327 1.25.23 1.74 2.098 1.846 2.206.124 2.463-.174 1.942-2.25-.387-1.542-.168-2.394.615-2.394.669 0 .956.674.639 1.5-.316.825-.169 1.5.327 1.5s1.09 1.238 1.319 2.75c.34 2.249.444 2.078.566-.941.083-2.03-.3-3.969-.85-4.309-1.121-.693-1.359-4.807-.337-5.829 1.287-1.287 1.359-7.039.099-7.839-.95-.603-.962-.805-.048-.817.931-.011 1.226-9.348 1.263-40.015l.048-40H-.09zM.45 35c0 18.975.134 26.737.298 17.25.165-9.488.165-25.013 0-34.5C.584 8.262.45 16.025.45 35m114.3 19.662c.688.278 1.813.278 2.5 0 .688-.277.125-.504-1.25-.504s-1.937.227-1.25.504M70 57c0 .55.477 1 1.059 1s.781-.45.441-1-.816-1-1.059-1-.441.45-.441 1m57 0c0 .55.675 1 1.5 1s1.5-.45 1.5-1-.675-1-1.5-1-1.5.45-1.5 1m-61.667 1.5c0 .72.6 1.079 1.334.798C67.4 59.016 68 58.657 68 58.5s-.6-.516-1.333-.798c-.734-.281-1.334.078-1.334.798m76 1.956c0 .801.383 1.22.85.931s.591-.944.274-1.456c-.808-1.308-1.124-1.161-1.124.525M92.5 61c-.34.55-.254 1.034.191 1.077s1.565.222 2.49.401c1.1.213 1.495-.159 1.143-1.077-.623-1.622-2.92-1.863-3.824-.401m6.5 0c0 .55.9 1 2 1s2-.45 2-1-.9-1-2-1-2 .45-2 1m38 0c.825.533 1.95.969 2.5.969s.325-.436-.5-.969-1.95-.969-2.5-.969-.325.436.5.969m-51.493.989c-.35.566.051.734.941.393 1.732-.665 2.049-1.382.611-1.382-.518 0-1.216.445-1.552.989m21.098.181q.726 1.172-.909.544c-.898-.345-1.898-.196-2.223.33s.512.956 1.861.956 2.711-.675 3.028-1.5c.356-.93-.005-1.5-.952-1.5-.912 0-1.237.472-.805 1.17M154 62c0 .55.45 1 1 1s1-.45 1-1-.45-1-1-1-1 .45-1 1m8 .5c-1.584 1.908-.098 1.889 2.441-.032 1.554-1.175 1.628-1.468.373-1.468-.863 0-2.129.675-2.814 1.5m-113 .378c0 .617.528 1.122 1.174 1.122s.084 1.184-1.25 2.631c-2.312 2.51-2.321 2.569-.193 1.272 2.91-1.775 3.496-3.47 1.71-4.952-1.022-.848-1.441-.87-1.441-.073m58.577 2.997c-.297.481.624.875 2.048.875 1.829 0 2.191-.252 1.232-.86-1.74-1.102-2.606-1.106-3.28-.015m81.423.747c0 1.389.252 1.43 1.75.283a93 93 0 0 1 2.167-1.622c.229-.156-.559-.283-1.75-.283-1.332 0-2.167.625-2.167 1.622m-122.857.268c-.834.529-.971 1.098-.355 1.479.552.341 1.26-.053 1.576-.875.662-1.727.6-1.757-1.221-.604m7.352 2.101c.617 1 .171 1.142-1.93.615-1.789-.449-2.511-.327-2.09.354.799 1.292 4.205 1.367 4.982.109.317-.512.049-1.256-.595-1.654q-1.168-.72-.367.576m50.852.84c.912 1.007 1.319 2.204.905 2.66-.414.457-.16.488.563.07 1.048-.605.965-1.146-.405-2.66-.946-1.046-1.945-1.901-2.22-1.901s.246.824 1.157 1.831m28.516-.534c.75.925 1.724 1.458 2.165 1.186.441-.273 1.003.07 1.25.761.246.691.81.918 1.252.506.947-.884.197-1.818-1.688-2.103-.738-.112-2.017-.614-2.842-1.117-1.291-.787-1.31-.68-.137.767m40.644-.308c-.35.566.051.734.941.393 1.732-.665 2.049-1.382.611-1.382-.518 0-1.216.445-1.552.989M0 75.5c0 3.208.24 5.593.534 5.3.764-.764.844-9.755.094-10.506C.282 69.949 0 72.292 0 75.5m18.079-4.809c-.123 1.856 1.967 2.673 3.258 1.275.908-.984.793-1.131-.522-.669-.927.325-1.904.053-2.171-.603-.375-.921-.504-.921-.565-.003m17.083 1.793c-1.287.709-1.962 1.495-1.5 1.748 2.36 1.293 4.338 1.577 4.88.7.334-.54.236-.917-.218-.838-2.015.35-2.477-.205-1.324-1.594 1.447-1.743 1.3-1.745-1.838-.016m-28.703.583c-.363.586-.445 1.281-.183 1.543s.743-.218 1.069-1.067c.676-1.762.1-2.072-.886-.476m53.964.612c.317 2.155 1.5 2.687 2.158.97.346-.901 1.031-1.389 1.524-1.084.492.304.895.082.895-.495 0-.576-1.071-.959-2.381-.851-1.309.109-2.297.766-2.196 1.46m78.244-1.012c-.932.932-.832 2.333.166 2.333.459 0 .834-.675.834-1.5 0-1.699-.073-1.76-1-.833m21.146.016c.721.289 1.584.253 1.916-.079s-.258-.568-1.312-.525c-1.165.048-1.402.285-.604.604m-31.384 2.39c0 1.06.353 1.927.785 1.927s.786 1.125.786 2.5c0 1.598.563 2.5 1.559 2.5.857 0 1.281.45.941 1-.648 1.049.76 1.407 1.727.44.764-.764-2.144-6.44-3.3-6.44-.51 0-.927-.648-.927-1.441s-.354-1.659-.786-1.927c-.432-.267-.785.382-.785 1.441m17.292-.358c.445 1.161.248 1.384-.706.795-.9-.557-1.086-.434-.58.384.569.921 1.074.929 2.154.032 1.753-1.455 1.751-1.582-.038-2.268-1.018-.391-1.265-.076-.83 1.057m-53.211.301c.346.559 1.047.758 1.559.441C95.456 74.6 95.198 74 93.441 74c-.857 0-1.276.457-.931 1.016m103.157-.349c-.367.366-.667 1.131-.667 1.7 0 .626.466.567 1.183-.15.651-.651.951-1.416.667-1.7s-.817-.217-1.183.15M48.729 76.092c-.974.567-1.463 1.53-1.086 2.139.44.713.102.885-.947.483-.898-.345-1.84-.29-2.095.122-.254.412.512.822 1.703.912s2.323.633 2.515 1.208c.191.574.72 1.044 1.176 1.044 1.271 0 .493-3.337-.885-3.797-.822-.274-.631-.848.587-1.772 2.124-1.611 1.558-1.81-.968-.339m5.942.324c-.328.853-1.175 1.407-1.883 1.231s-.976-.139-.594.082c.381.22.46 1.159.174 2.086-.448 1.454-.363 1.442.618-.086.625-.974 1.528-1.529 2.006-1.234 1.295.801 2.39-1.513 1.254-2.649-.64-.64-1.187-.443-1.575.57M86 76c0 .55.477 1 1.059 1s.781-.45.441-1-.816-1-1.059-1-.441.45-.441 1m34.062.5c.002 1.256 2.422 4.5 3.357 4.5.385 0 .391-.498.015-1.107-.464-.751.079-.897 1.691-.452 2.017.556 2.11.488.617-.447-.967-.606-2.177-.843-2.688-.527s-1.395-.222-1.962-1.196-1.031-1.321-1.03-.771m43.938.123c0 1.057 2.338 3.412 4.75 4.784.688.391 1.25.234 1.25-.348S169.351 80 168.557 80s-2.144-1-3-2.223S164 76.035 164 76.623m2.603.544c.283.458.938.833 1.456.833s.941-.375.941-.833c0-.459-.655-.834-1.456-.834s-1.224.375-.941.834M184.5 77c-.34.55-.141 1 .441 1S186 77.55 186 77s-.198-1-.441-1-.719.45-1.059 1M10 78.441c0 .857.45 1.559 1 1.559s1-.423 1-.941-.45-1.219-1-1.559-1 .084-1 .941M18 78c0 .55.477 1 1.059 1s.781-.45.441-1-.816-1-1.059-1-.441.45-.441 1m14.536.96c-.976 1.078-2.227 1.866-2.78 1.75-.553-.115-1.212.353-1.464 1.04-.806 2.196 1.243 1.344 4.208-1.75 1.581-1.65 2.635-3 2.342-3s-1.33.882-2.306 1.96m44.02-1.05c-.723 1.169.385 4.09 1.551 4.09.491 0 .893.675.893 1.5s.675 1.5 1.5 1.5c1.972 0 1.931-1.897-.057-2.66-.857-.329-1.33-1.192-1.051-1.918.322-.839-.022-1.118-.943-.764-.797.306-1.449.095-1.449-.468s.563-1.25 1.25-1.528c.901-.363.918-.526.059-.583-.655-.043-1.444.33-1.753.831m31.664 1.506c-.868 1.906-.803 2.53.308 2.956 1.706.655 2.939-.965 1.44-1.892-.741-.458-.708-1.088.106-2.069.644-.776.738-1.411.209-1.411s-1.457 1.087-2.063 2.416m41.78-.448c-2.059 1.585-2.269 2.154-1.191 3.228 1.078 1.073 1.18.964.577-.62-.583-1.528-.389-1.791.94-1.281 1.133.435 1.674.128 1.674-.949 0-1.371.242-1.401 1.75-.218 1.586 1.243 1.621 1.208.378-.378-.755-.963-1.43-1.74-1.5-1.728s-1.253.888-2.628 1.946m37.345-.425c-.326.849-.311 1.824.031 2.167.343.343.624.098.624-.543 0-.642.675-1.167 1.5-1.167s1.5-.45 1.5-1c0-1.6-3.004-1.153-3.655.543M7 79c0 .55.477 1 1.059 1s.781-.45.441-1-.816-1-1.059-1S7 78.45 7 79m65.656.545c.304.794.956 1.195 1.449.89 1.24-.766 1.126-1.132-.554-1.777q-1.45-.557-.895.887m69.999.912c-.381.992-.024 1.543.999 1.543 1.371 0 1.401.242.218 1.75-1.246 1.589-1.21 1.623.39.367 1.438-1.128 1.536-1.68.533-3-.676-.889-1.301-1.749-1.388-1.91-.088-.161-.426.401-.752 1.25M5.798 81.5c.512 1.1.801 2.574.642 3.275s-.083.878.171.392 2.132-.723 4.175-.527c2.951.283 3.353.14 1.956-.696-.967-.579-2.266-.738-2.887-.354-.622.384-1.997-.378-3.059-1.696-1.474-1.828-1.71-1.921-.998-.394M16 81c0 .55.45 1 1 1s1-.45 1-1-.45-1-1-1-1 .45-1 1m51 .912c0 2.175 2.353 2.217 4.26.076 1.052-1.18.974-1.19-.51-.067-1.594 1.206-2.185.836-1.868-1.171.065-.412-.332-.75-.882-.75s-1 .86-1 1.912m16.647.766c.195 1.197-.321 2.853-1.146 3.678-1.927 1.927-1.898 2.644.106 2.644 1.041 0 1.397.546 1.011 1.552-.356.929-.179 1.295.441.911.57-.352.963-1.388.874-2.302-.319-3.247.079-5.271.933-4.744.477.295 1.702-.466 2.724-1.691 1.021-1.224 1.216-1.663.433-.976s-2.2 1.25-3.15 1.25-1.919-.562-2.154-1.25-.268-.27-.072.928m93.489-.524c-.662 1.06-.925 2.379-.584 2.93s.076 1.659-.588 2.46c-.98 1.18-.878 1.456.539 1.456 1.392 0 1.63-.586 1.171-2.882-.696-3.48.106-4.535 2.176-2.859 1.224.99 1.382.988.783-.009-.438-.729-.24-1.25.475-1.25.674 0 .912-.313.53-.696-1.397-1.396-3.327-1.032-4.502.85m17.075-.755c.709.77 1.447 1.25 1.639 1.067.593-.564-.91-2.466-1.948-2.466-.54 0-.401.63.309 1.399M38.12 84.667C36.118 86.771 35.48 88 36.391 88c.793 0 1.669-.562 1.947-1.25.357-.885.527-.905.583-.068.089 1.339-4.371 4.73-7.495 5.698-1.141.354-3.314 1.937-4.829 3.519-2.452 2.559-2.609 3.109-1.428 5 .73 1.169 1.953 1.884 2.72 1.59 1.067-.409 1.132-.22.278.81-.866 1.043-.266 2.175 2.671 5.043 2.084 2.034 4.169 3.352 4.635 2.928s.572-.285.235.308c-.822 1.444 7.984 8.731 9.453 7.823.666-.412.877-.271.502.335-.687 1.112 3.904 4.597 6.056 4.597.705 0 1.05.231.769.513-.463.462 9.299 6.091 13.084 7.543 1.435.551-4.833-7.979-7.072-9.624-.55-.404-.687-.741-.305-.75.382-.008-.401-2.492-1.739-5.52s-2.44-5.727-2.445-6c-.006-.272-.011-1.872-.011-3.554 0-1.768-.419-2.8-.992-2.446-.546.337-1.783.153-2.75-.41-.971-.566-1.198-1.038-.508-1.055.688-.016 1.282-.817 1.32-1.78.06-1.483.191-1.445.862.25.62 1.567.881 1.08 1.206-2.253.334-3.423.068-4.364-1.361-4.818C49.616 93.743 49.418 92 51.5 92c.825 0 1.5.525 1.5 1.167 0 .641.289.877.643.524.353-.354.068-1.334-.633-2.179-2.121-2.556-4.053-.003-3.476 4.592.458 3.648-.626 5.175-2.044 2.88-.346-.559-1.016-.777-1.49-.484s-1.13.099-1.458-.431c-.331-.537.303-.792 1.431-.574 1.115.215 2.027-.034 2.027-.552 0-.519-.505-.943-1.122-.943-.747 0-.673-.587.219-1.75.738-.963.12-.661-1.373.671-1.494 1.331-2.5 2.636-2.236 2.901.265.264-.3 1.121-1.254 1.903-.953.783-1.239 1.18-.634.883.605-.298 2.569 1.21 4.365 3.35 1.815 2.163 3.855 3.665 4.594 3.381.815-.313 1.315.201 1.291 1.325-.038 1.865.575 4.949 1.673 8.41.485 1.526.241 1.783-1.208 1.268-.998-.355-2.65-1.365-3.67-2.244s-2.145-1.486-2.5-1.348-.645-.163-.645-.667c0-1.705-2.866-3.024-7.234-3.33-.926-.065-.952-.426-.108-1.444.62-.746.838-1.646.485-2-.354-.353-.643-.031-.643.715q-.001 1.355-1.348-.486c-1.323-1.809-4.247-1.31-3.109.531.946 1.532-1.198 1.052-2.543-.569-.928-1.118-.944-1.5-.063-1.5.649 0 .903-.45.563-1s-.141-1 .441-1 1.059.477 1.059 1.059.43.793.956.468c1.97-1.217-.31-3.56-4.047-4.158-2.13-.34-3.625-1.02-3.322-1.51s1.015-.605 1.582-.255c.576.356.494-.365-.186-1.635-1.051-1.964-.997-2.188.401-1.652.889.341 1.616.198 1.616-.317s.675-.678 1.5-.362 1.5.078 1.5-.531S32.475 94 31.833 94c-.641 0-.9-.266-.575-.592s1.35-.167 2.276.351c1.248.698 2.328.346 4.166-1.357 1.365-1.265 2.187-2.776 1.827-3.358s.018-1.316.84-1.631c.821-.315 1.925-1.812 2.453-3.327 1.349-3.869-.707-3.615-4.7.581m117.86-2.143c-.696.838-.986 1.803-.646 2.143.34.341.902-.118 1.247-1.018.346-.901 1.101-1.346 1.678-.989.613.379.753.169.336-.505-.917-1.485-1.098-1.459-2.615.369m15.479-.457c-1.026 1.66-.105 1.89 1.33.332.71-.769.849-1.399.309-1.399-.539 0-1.277.48-1.639 1.067M.158 84c0 1.375.227 1.938.504 1.25.278-.687.278-1.812 0-2.5-.277-.687-.504-.125-.504 1.25m24.226-.274c1.662 1.966 3.616 2.262 3.616.548 0-.334-.301-.306-.669.062-.368.367-1.605-.12-2.75-1.084-2.076-1.747-2.076-1.746-.197.474m39.243-.21c-.887.886-1.974 1.388-2.417 1.114s-1.459-.035-2.258.53c-1.188.841-1.136.927.283.472 1.086-.349 2.114.151 2.75 1.339 1.287 2.406 1.293 3.319.015 2.529-.55-.34-1 .084-1 .941S61.402 92 61.893 92c1.307 0 2.142-2.744 1.413-4.645-.385-1.004.085-2.168 1.209-2.989 1.011-.74 1.588-1.596 1.281-1.903s-1.283.167-2.169 1.053m50.078 1.318c.987 1.734 2.148 3.156 2.58 3.16 1.067.008-.801-3.347-2.776-4.986-1.323-1.099-1.289-.783.196 1.826M188 83.241c0 1.846 2.059 3.773 3.95 3.696.922-.038.613-.44-.764-.992-1.273-.51-2.053-1.351-1.734-1.867.319-.517.123-1.222-.436-1.568-.559-.345-1.016-.016-1.016.731M18.078 85.25c-.67 1.757-.437 2.45 1.06 3.165 2.36 1.126 2.005 2.445-1.193 4.438-1.804 1.124-2.117 1.16-1.195.135 1.932-2.146 1.56-4.221-.632-3.526-1.257.399-2.109.007-2.567-1.182-.651-1.69-.735-1.691-1.668-.03-1.133 2.019.36 5.784 1.538 3.878.383-.62 1.131-1.128 1.661-1.128s.2 1.167-.735 2.593c-1.674 2.555-1.663 2.587.727 2.25 2.167-.307 9.974-7.923 9.894-9.654-.017-.379-.629.098-1.36 1.061-1.475 1.943-3.144 2.426-2.003.58.487-.788.176-.96-.953-.527-1.375.528-1.565.198-1.056-1.83.776-3.091-.361-3.258-1.518-.223m21.58-.801q-.56 1.452.893.893c1.582-.607 1.994-2.342.556-2.342-.491 0-1.143.652-1.449 1.449M118 83.393c0 .216.698.661 1.552.989.89.341 1.291.173.941-.393-.587-.951-2.493-1.406-2.493-.596m5 .666c0 .582.45.781 1 .441s1-.816 1-1.059-.45-.441-1-.441-1 .477-1 1.059m-78 1c0 .582.45.781 1 .441s1-.816 1-1.059S46.55 84 46 84s-1 .477-1 1.059m59.429 1.014c0 1.06.353 1.927.785 1.927s.786-.648.786-1.441-.354-1.659-.786-1.927c-.432-.267-.785.382-.785 1.441m40.121-.154c-.313.506.143 1.631 1.012 2.5 1.982 1.982 2.539 2.007 1.8.081-.317-.825-1.004-1.5-1.528-1.5s-.674-.45-.334-1 .393-1 .118-1-.756.414-1.068.919m-136.992.987c-.308.498-1.572.662-2.809.364L2.5 86.727l2.208 2.136c2.535 2.453 4.839 2.761 5.61.75.387-1.009-.06-1.234-1.643-.826-1.932.497-2.022.373-.803-1.114.755-.92 1.119-1.673.809-1.673s-.815.408-1.123.906m60.409.452c-1.357.693-2.41 1.988-2.34 2.88.072.916-1.135 2.144-2.776 2.824-2.769 1.147-2.896 1.472-2.729 7.037.176 5.85 1.228 7.081 2.11 2.467.259-1.355.103-2.831-.348-3.282C60.86 98.26 61.901 94 63.176 94c.518 0 .704.385.413.856-.291.47.579.643 1.932.385 1.983-.379 2.349-.911 1.889-2.743-.412-1.641.061-2.714 1.7-3.862 2.9-2.031 2.095-2.93-1.143-1.278M73 87.059c0 .582.45.781 1 .441s1-.816 1-1.059S74.55 86 74 86s-1 .477-1 1.059m4.712.946c.288 1.103-.034 2.678-.716 3.5-1.448 1.745-1.034 1.84 2.369.546 2.256-.857 2.382-1.192 1.315-3.492-1.405-3.028-3.729-3.462-2.968-.554M100 86.429c0 .88 3.183 3.571 4.224 3.571.595 0 .044-.9-1.224-2-2.315-2.008-3-2.367-3-1.571M130 87c0 .55.45 1 1 1s1-.45 1-1-.45-1-1-1-1 .45-1 1m55 0c0 .55.477 1 1.059 1s.781-.45.441-1-.816-1-1.059-1-.441.45-.441 1m9.792-.324c.992.398 1.021.844.127 1.921-.811.978-.831 1.403-.066 1.403.67 0 .909 1.263.612 3.25l-.484 3.25 1.412-3c1.048-2.225 1.115-3.194.26-3.75-.846-.55-.798-.979.181-1.611 1.066-.688.999-.989-.332-1.5-.916-.351-1.966-.603-2.334-.56-.367.043-.087.312.624.597M57.014 88.414c.648.648 1.324.648 1.972 0 .647-.647.309-.985-.986-.985s-1.633.338-.986.985m67.071 1.422c3.328 4.23 7.019 5.976 9.723 4.598 1.849-.942 2.001-1.293.766-1.767-.847-.325-1.397-1.171-1.221-1.879s.13-.948-.102-.532-.91.455-1.506.086c-.707-.437-.844-.042-.392 1.135.578 1.505.447 1.602-.786.578-.814-.675-1.967-.926-2.563-.557-.725.447-.874-.166-.452-1.85.575-2.291.356-2.512-2.414-2.433l-3.046.087zm11.595-1.445c-.339.885-.257 1.609.184 1.609 1.526 0 .479 4.276-1.38 5.635-1.397 1.022-1.504 1.391-.425 1.467.792.057-.123.471-2.034.92-3.956.931-5.592.366-4.111-1.418.73-.88.212-1.689-1.867-2.917-2.21-1.306-3.012-1.408-3.462-.443-.469 1.008-.701 1.008-1.17 0-.322-.691-.997-1.002-1.5-.691-.792.489-1.295-.729-1.089-2.636.035-.321-.523-.584-1.239-.584-1.004 0-.934.707.305 3.084a568 568 0 0 1 1.772 3.414c.091.182 1.093-.166 2.228-.773 1.705-.913 1.962-.84 1.479.419-.322.838-1.463 1.523-2.537 1.523s-1.669.457-1.324 1.016c.346.559.956.814 1.357.566.401-.247 1.312-.089 2.026.352.911.563.498 1.002-1.389 1.476-1.774.445-2.5 1.158-2.139 2.1.301.784.048 1.735-.563 2.112-.72.445-.826.226-.302-.622s.418-1.067-.302-.622c-1.081.668-.666 3.097.875 5.125.882 1.161-1.441 4.796-2.432 3.804-.364-.364-1.575.318-2.691 1.516S111.49 116 110.961 116s-.961.75-.961 1.667c0 .916-.293 1.373-.651 1.015s-1.259.13-2.003 1.084c-1.209 1.552-1.29 1.558-.769.057.452-1.306.124-1.557-1.487-1.136-1.137.297-1.821.939-1.52 1.427.302.487-.18.886-1.07.886s-1.366-.408-1.058-.907c.309-.498-.34-.671-1.441-.383-2.834.741-2.483-1.164.586-3.175 1.422-.932 2.352-1.929 2.066-2.216-.287-.286-1.114-.025-1.837.58-5.911 4.947-5.986 4.971-9.42 3.043-1.762-.99-3.473-1.532-3.8-1.204-.328.327-.596-.203-.596-1.178 0-1.138-.519-1.575-1.449-1.218-.878.337-1.694-.217-2.072-1.408-.343-1.079-.999-1.731-1.458-1.447s-.581-.455-.27-1.642c.358-1.37.18-1.92-.489-1.507-.579.358-1.319-.045-1.646-.896-.34-.885-.171-1.285.395-.935.544.336.989.12.989-.479 0-.6-.611-1.325-1.357-1.611-.767-.295-1.235-1.626-1.077-3.065.23-2.101-.066-2.454-1.701-2.027-1.619.423-1.764.259-.8-.904.649-.781 1.8-1.421 2.557-1.421.758 0 1.378-.502 1.378-1.117 0-.624-.882-.886-2-.593-1.1.287-2 .115-2-.384 0-.498-.542-.794-1.205-.656-.662.137-1.225-.29-1.25-.95s-.674-1.785-1.442-2.5c-1.046-.974-1.218-.985-.686-.043.409.724.055 1.509-.835 1.85-1.181.453-1.306 1.041-.529 2.493.695 1.298.689 1.9-.018 1.9-.569 0-1.035-.436-1.035-.969s-.672-.71-1.494-.395c-.822.316-1.241.984-.931 1.485s.931.684 1.381.406 1.431.24 2.181 1.15c1.225 1.488 1.085 1.586-1.387.97-2.467-.615-3.906.54-2 1.606.412.23.231.299-.402.152-2.035-.472-2.371.854-.582 2.298 1.591 1.285 1.549 1.35-.51.783-1.712-.471-2.109-.267-1.676.861.347.904-.141 1.661-1.257 1.95-1.656.428-1.663.482-.073.587.962.064 1.75.614 1.75 1.223s-.635.863-1.411.565c-1.842-.706-.664 3.642 2.519 9.307 2.336 4.155 4.495 5.436 3.638 2.157-.437-1.671-.163-1.761 2.633-.866 1.717.549 3.956 1.421 4.976 1.938 1.218.617 1.641.595 1.233-.065-.341-.553-.094-1.33.55-1.728.712-.441.904-.291.489.38-.916 1.482 2.784 3.368 4.965 2.531 1.1-.422 1.496-.277 1.08.396-1.544 2.498 25.812 2.762 28.867.278 1.316-1.07 1.612-1.113 1.032-.15-.638 1.06-.411 1.135 1.058.348 1.029-.55 2.209-1.045 2.621-1.099s.862-.132 1-.173 1.355-.278 2.707-.526 2.751-.928 3.111-1.511.943-1.021 1.294-.974c.976.13 1.864-.129 6.388-1.864 3.656-1.402 4.064-2.685 1.5-4.718-1.64-1.301-1.625-1.37.25-1.11 1.363.189 1.873-.2 1.602-1.223-.22-.825-.445-2.529-.5-3.787-.056-1.257-.764-2.695-1.573-3.195s-1.142-1.238-.74-1.641c.403-.402 1.425.136 2.273 1.196 1.476 1.845 1.513 1.821.875-.573-.367-1.375-.669-2.725-.671-3-.016-2.547.372-4 1.069-4 .94 0 .957 8.952.02 10.5-.332.55-.202 1.9.291 3 .824 1.842.861 1.822.468-.249-.234-1.237.039-2.536.607-2.888 1.208-.746.366-15.493-1.027-17.98-.821-1.468-.948-1.467-1.514.008m22.944.146c-.295.769-.106 1.665.42 1.99S160 90.39 160 89.5s.446-1.342.992-1.005 1.715.209 2.599-.286c1.242-.695.922-.918-1.412-.985-1.729-.049-3.247.512-3.555 1.313m20.376-.61c0 .59.477 1.073 1.059 1.073s.781.45.441 1-.141 1 .441 1 1.059.675 1.059 1.5c0 1.804.197 1.823 3.453.339 1.401-.638 2.511-1.875 2.468-2.75-.051-1.033-.255-1.152-.583-.339-.796 1.971-5.142 1.568-4.977-.462.077-.941-.648-1.874-1.611-2.073s-1.75.121-1.75.712M54 89.559c0 .857.457 1.276 1.016.931.559-.346.758-1.047.441-1.559C54.6 87.544 54 87.802 54 89.559m-17.429 1.012c-1.059.775-1.732 1.601-1.496 1.837.235.236 1.295-.205 2.354-.979 1.059-.775 1.732-1.601 1.496-1.837-.235-.236-1.295.205-2.354.979m128.167.188c.463 1.207.106 1.433-1.569.995-2.592-.677-2.681-.408-.563 1.709 1.183 1.183 1.95 1.321 2.911.523.92-.764 1.499-.769 1.963-.018.791 1.28 2.526.395 2.505-1.277-.01-.716-.403-.592-.985.309-.675 1.044-1.012 1.12-1.11.25-.077-.687-.196-1.77-.265-2.405s-.881-1.265-1.806-1.401c-1.157-.17-1.494.24-1.081 1.315m-70.709.202c-.809.512-1.211 1.191-.893 1.509s1.148-.108 1.844-.946c1.443-1.738 1.166-1.902-.951-.563M178.5 92c.995 1.1 2.035 2 2.31 2s-.315-.9-1.31-2-2.035-2-2.31-2 .315.9 1.31 2m-31-.235c1.686 1.239 1.717 4.235.044 4.235-.849 0-1.544.702-1.544 1.559s.375 1.327.833 1.044c.459-.283.834.14.834.941s-.323 1.456-.717 1.456c-1.223 0-1.712 4.838-.601 5.949 1.031 1.031.872 1.127-2.349 1.416-.841.076-1.581 1.234-1.685 2.635-.108 1.468.026 1.773.326.738.281-.969.89-1.528 1.354-1.241 1.274.787 3.995-2.359 3.394-3.925-.289-.753-.034-1.674.568-2.045.61-.377.971-.091.818.649-.367 1.768 2.43 1.708 3.021-.065.281-.843.019-1.115-.666-.691-.622.384-1.13.435-1.13.114s1.125-1.011 2.5-1.534 2.493-1.524 2.485-2.225c-.012-.972-.22-.952-.875.082-.547.862-1.091.982-1.494.33-.349-.564.069-1.729.928-2.588 1.416-1.417 1.274-1.844-1.525-4.581-1.699-1.66-3.635-3.011-4.303-3.003-.76.01-.841.291-.216.75m-2.5 1.117c0 .55.45 1.278 1 1.618s1 .168 1-.382-.45-1.278-1-1.618-1-.168-1 .382m-54.333.785c-.367.366-.667 1.131-.667 1.7 0 .626.466.567 1.183-.15.651-.651.951-1.416.667-1.7s-.817-.217-1.183.15m58.971.833c.317.825.753 1.5.969 1.5s.393-.675.393-1.5-.436-1.5-.969-1.5-.709.675-.393 1.5m20.508 1.203c-.803 1.436-1.203 1.495-2.549.377-1.06-.88-1.597-.948-1.597-.202 0 .617.477 1.122 1.059 1.122s.784.445.448.989c-.363.587.086.721 1.105.33 1.164-.447 1.484-.283.993.511-.398.644-.359 1.17.086 1.171.445 0 .871 1.078.947 2.395.137 2.382-.965 2.78-3.432 1.24-.746-.466-2.002-.243-2.968.528-4.408 3.517-5.105 4.243-4.701 4.896.239.387-.955 1.377-2.653 2.2-1.835.888-2.641 1.772-1.986 2.177 1.685 1.041 1.311 2.857-.45 2.181-.89-.341-1.291-.173-.941.393.336.544.172.989-.365.989s-1.153-.534-1.371-1.187c-.255-.765-1.176-.408-2.583 1-1.204 1.203-2.301 2.145-2.438 2.095-.137-.051-1.452.455-2.921 1.124-1.842.839-2.482 1.721-2.063 2.842.516 1.379.365 1.428-.99.327-2.145-1.743-3.417.28-1.629 2.593 1.086 1.405.938 1.382-.835-.127-2.099-1.787-2.181-1.779-3.302.315-.845 1.578-1.484 1.87-2.411 1.101-.911-.757-1.841-.506-3.356.905-1.269 1.183-2.241 1.517-2.464.849-.247-.742-.847-.65-1.824.279-.8.761-2.355 1.445-3.455 1.519s-3.125.378-4.5.676c-1.375.297-3.764.574-5.309.615s-2.55.493-2.234 1.005c.317.512.049 1.256-.595 1.654-.731.452-.903.291-.457-.43 1.19-1.927-3.187-1.339-4.431.595-1.068 1.661-1.097 1.66-.575-.014.483-1.553-.095-1.738-4.813-1.54-3.082.129-5.267.666-5.138 1.264.123.572.034.697-.199.279-1.109-1.995-4.409-2.852-6.005-1.558-.895.725-1.323.81-.95.187.429-.717-.762-1.497-3.248-2.128-5.667-1.439-6.338 1.06-1.013 3.777 2.659 1.356 3.967 1.624 3.967.812 0-.666.602-.387 1.339.62 1.025 1.402 3.101 1.944 8.865 2.314 4.975.319 7.761.102 8.22-.64.382-.618 1.455-1.091 2.385-1.053 1.379.058 1.321.229-.309.93-1.715.737-1.573.866 1 .906 1.65.025 4.8-.411 7-.97s5.343-1.267 6.985-1.573c7.418-1.385 23.974-8.811 23.034-10.332-.303-.491-.025-1.218.619-1.616.731-.452.903-.291.457.43-2.832 4.584 11.861-6.218 21.797-16.024 7.541-7.443 8.699-9.006 7.627-10.298-.695-.838-1.771-1.509-2.391-1.491s-.327.639.651 1.382c1.578 1.196 1.6 1.418.198 1.956-.869.334-1.325.193-1.013-.312.313-.506.139-1.185-.386-1.51s-.784-1.481-.574-2.569c.468-2.43-.089-2.543-1.358-.276m-119.582.59c.376.986.935 1.541 1.243 1.233s.001-1.114-.683-1.793c-.988-.98-1.102-.865-.56.56m20.769.179c0 .841.638 1.528 1.417 1.528s1.239-.534 1.021-1.187c-.605-1.814-2.438-2.07-2.438-.341M191.087 97c-.065 1.375-.537 3.162-1.049 3.972-.797 1.261-1.025 1.225-1.591-.25-.723-1.885-5.447-2.418-5.447-.615 0 .609.685.844 1.523.523.856-.329 2.464.357 3.675 1.568 2.091 2.091 2.175 2.097 2.907.227.415-1.059.786-1.362.825-.675s.547 1.25 1.129 1.25.736-.523.34-1.163c-.395-.639-1.05-2.552-1.456-4.25-.663-2.771-.75-2.831-.856-.587M.252 99.5c.011 2.2.216 2.982.455 1.738s.23-3.044-.02-4S.241 97.3.252 99.5M185 97.059c0 .582.45.781 1 .441s1-.816 1-1.059-.45-.441-1-.441-1 .477-1 1.059m-99.595.786c.392.635.289 1.155-.229 1.155-1.604 0-2.047 3.862-.584 5.077.762.632 1.1 1.661.75 2.286s.348.124 1.55-1.113 2.645-2.25 3.206-2.25.742-.45.402-1c-.901-1.458-2.733-1.227-1.985.25.348.688-.061.396-.909-.647s-1.324-2.25-1.058-2.681c.267-.431-.042-1.109-.686-1.507-.731-.452-.903-.291-.457.43M88 98.5c0 .825.177 1.5.393 1.5s.652-.675.969-1.5.139-1.5-.393-1.5c-.533 0-.969.675-.969 1.5m68 1.559c0 1.132.43 1.793.956 1.468s.703-1.252.393-2.059c-.793-2.067-1.349-1.824-1.349.591m-84-.174c0 .495.722 1.178 1.604 1.516.915.352 1.358 1.256 1.031 2.107-.315.821-.136 1.492.396 1.492 1.762 0 1.006-3.496-1.031-4.768-1.1-.687-2-.843-2-.347m35.118 1.865c.398 2.516-.259 6.281-1.014 5.814-.493-.304-1.861.232-3.041 1.191l-2.145 1.745 2.195 1.872c1.813 1.546 2.086 1.589 1.572.25-.342-.892-.186-1.622.346-1.622.533 0 .969.675.969 1.5s.47 1.5 1.044 1.5.911-.787.75-1.75c-.182-1.081.248-1.633 1.125-1.444 1.177.254 1.198.039.121-1.258-.807-.973-1.084-2.886-.732-5.056.311-1.921.145-3.492-.371-3.492-.515 0-.884.338-.819.75M69 103.5c-.718.865-.815 1.5-.229 1.5.558 0 1.274-.675 1.591-1.5s.419-1.5.229-1.5-.906.675-1.591 1.5m113.736-.902c-.329.329-.328 1.302.003 2.164.367.956.189 1.312-.456.913-.581-.359-1.648.13-2.371 1.086-1.11 1.467-1.1 1.547.062.513 1.089-.968 1.697-.968 2.894 0 1.205.974 1.361.968.761-.031-.453-.753-.128-1.498.808-1.857 1.905-.731 2.085-3.386.23-3.386-.734 0-1.603.269-1.931.598m12.711.488c-.305.494-.047 1.689.574 2.656.991 1.541 1.066 1.55.61.07-.363-1.178.142-1.788 1.674-2.02l2.195-.333-2.249-.636c-1.237-.349-2.499-.231-2.804.263m-67.809 1.414c.317.825 1.155 1.5 1.862 1.5s1.545-.675 1.862-1.5c.414-1.08-.106-1.5-1.862-1.5s-2.276.42-1.862 1.5m36.418.932c-.675.814-.89 2.027-.477 2.695.513.831 1.021.482 1.607-1.101 1.05-2.838.521-3.583-1.13-1.594M191 105c-1.282.828-1.246.972.25.985.963.008 1.75-.435 1.75-.985 0-1.22-.113-1.22-2 0m-71.397.833c-.283.459.14.834.941.834s1.456-.375 1.456-.834-.423-.833-.941-.833-1.173.375-1.456.833M92 107c0 .55.477 1 1.059 1s.781-.45.441-1-.816-1-1.059-1-.441.45-.441 1m22.5 0c-.34.55-.141 1 .441 1s1.059-.45 1.059-1-.198-1-.441-1-.719.45-1.059 1M3.079 108.583c.048 1.165.285 1.402.604.605.289-.722.253-1.585-.079-1.917s-.568.258-.525 1.312M187.5 108c.34.55.816 1 1.059 1s.441-.45.441-1-.477-1-1.059-1-.781.45-.441 1m-76.5 1.059c0 .582.45.781 1 .441s1-.816 1-1.059-.45-.441-1-.441-1 .477-1 1.059m80.813-.376c.721.289 1.584.253 1.916-.079s-.258-.568-1.312-.525c-1.165.048-1.402.285-.604.604m-170.249 1.61c.376.986.935 1.541 1.243 1.233s.001-1.114-.683-1.793c-.988-.98-1.102-.865-.56.56m63.594.707c0 1.375.227 1.938.504 1.25.278-.687.278-1.812 0-2.5-.277-.687-.504-.125-.504 1.25m11.342-1c2.752 1.183 3.731 1.183 3 0-.34-.55-1.604-.968-2.809-.93-2.112.068-2.119.101-.191.93m20.5 0c-.901.582-1.025.975-.309.985.655.008 1.469-.435 1.809-.985.767-1.242.421-1.242-1.5 0m61.27 1.069c-.173 2.297.298 2.499 1.079.463.31-.807.227-1.676-.185-1.931-.412-.254-.814.406-.894 1.468m-15.261.42c-.68.819-1.704 1.199-2.277.845-.624-.385-.739-.155-.287.577.566.916 1.226.792 2.654-.501 1.046-.946 1.901-1.875 1.901-2.065 0-.743-.811-.277-1.991 1.144m32.324-.033c0 .801.375 1.224.834.941s.833-.938.833-1.456-.375-.941-.833-.941c-.459 0-.834.655-.834 1.456M139 112c0 .55-.338.888-.75.75-.786-.262-1.25.57-1.25 2.24 0 .545.9.22 2-.722 2.163-1.852 2.597-3.268 1-3.268-.55 0-1 .45-1 1m-101.397.833c-.283.459.12.834.897.834s1.18-.375.897-.834S38.71 112 38.5 112s-.614.375-.897.833m26.476.75c.048 1.165.285 1.402.604.605.289-.722.253-1.585-.079-1.917s-.568.258-.525 1.312m59.654-.459c.679.684 1.486.991 1.793.683.308-.308-.247-.867-1.233-1.243-1.425-.542-1.54-.428-.56.56m50.517.805c.137.512-.65 1.622-1.75 2.469-1.751 1.347-1.787 1.542-.285 1.57.943.018 2.18-.838 2.75-1.902 1.294-2.419 1.302-3.066.035-3.066-.55 0-.887.418-.75.929m-172.438.754c.722.289 1.585.253 1.917-.079s-.258-.568-1.312-.525c-1.165.048-1.402.285-.605.604m66.521 1.817c0 .825.182 1.5.405 1.5s1.08-.675 1.905-1.5c1.333-1.333 1.288-1.5-.405-1.5-1.048 0-1.905.675-1.905 1.5M183.5 116c-.34.55-.168 1 .382 1s1.278-.45 1.618-1 .168-1-.382-1-1.278.45-1.618 1m-141.887 1.183c.289.467.944.591 1.456.274 1.308-.808 1.161-1.124-.525-1.124-.801 0-1.22.383-.931.85m86.387-.242c0 .518.445 1.216.989 1.552.566.35.734-.051.393-.941-.665-1.732-1.382-2.049-1.382-.611M113 118c0 .615-.45.84-1 .5s-1 .139-1 1.063c0 1.445.246 1.494 1.75.342.963-.736 1.892-1.421 2.067-1.522.174-.1-.164-.479-.75-.842-.587-.362-1.067-.156-1.067.459m36.307.406c.106 1.048.949 2.016 1.874 2.151q1.683.248 1.111-1.239c-.431-1.122-.756-1.185-1.33-.257-.539.873-.917.68-1.303-.666-.53-1.846-.539-1.846-.352.011M8.5 119c-.34.55-.141 1 .441 1S10 119.55 10 119s-.198-1-.441-1-.719.45-1.059 1m190 1c.34.55.816 1 1.059 1s.441-.45.441-1-.477-1-1.059-1-.781.45-.441 1m-184.767 2.124c.679.684 1.486.991 1.793.683.308-.308-.247-.867-1.233-1.243-1.425-.542-1.54-.428-.56.56m8.903.382c-.348.907.003 1.494.895 1.494 1.618 0 1.986-1.563.574-2.435-.493-.305-1.153.119-1.469.941M189 122.059c0 .582.45.781 1 .441s1-.816 1-1.059-.45-.441-1-.441-1 .477-1 1.059m-187 2.5c0 .857.45 1.281 1 .941s1-1.041 1-1.559S3.55 123 3 123s-1 .702-1 1.559m67.541-.625c-.596.964 6.106 8.066 7.612 8.066.466 0 .847-.702.847-1.559s-.45-1.281-1-.941-1-.057-1-.882-.52-1.821-1.155-2.213c-.759-.47-.904-.233-.425.69.4.773.02.531-.846-.536S72 124.254 72 123.809c0-1.11-1.751-1.021-2.459.125m113.042-.068c-.431.697-.513 1.537-.183 1.867.895.895 1.871-.421 1.387-1.871-.338-1.016-.574-1.016-1.204.004m-160.77 2.817c.721.289 1.584.253 1.916-.079s-.258-.568-1.312-.525c-1.165.048-1.402.285-.604.604M194.5 129c-.34.55-.141 1 .441 1s1.059-.45 1.059-1-.198-1-.441-1-.719.45-1.059 1m-5 2c.34.55.816 1 1.059 1s.441-.45.441-1-.477-1-1.059-1-.781.45-.441 1M83 133c0 .55.477 1 1.059 1s.781-.45.441-1-.816-1-1.059-1-.441.45-.441 1m77 0c0 .55.477 1 1.059 1s.781-.45.441-1-.816-1-1.059-1-.441.45-.441 1"/><path fill-opacity=".182" fill-rule="evenodd" d="M81.5 55.404c-10.389 1.994-24.219 7.557-34.003 13.677-9.208 5.759-23.514 18.387-27.56 24.327L17.5 96.986l-8.75.007L0 97v6h16.979l7.761 8.161c37.866 39.822 90.027 45.725 132.76 15.026 8.096-5.816 22.343-20.181 23.504-23.698 1.522-4.614.05-7.589-7.774-15.71-13.75-14.272-31.405-25.072-48.73-29.81-10.142-2.774-32.467-3.587-43-1.565m4.16 5.582c-20.537 3.709-40.982 15.019-55.778 30.852-5.402 5.781-6.665 7.699-5.949 9.036 1.602 2.993 17.44 17.626 23.604 21.807C53.087 126.446 65.166 133 66.556 133c.336 0-.685-1.687-2.27-3.75C56.868 119.599 54 111.472 54 100.1c0-7.559.14-8.06 2.75-9.868 5.059-3.503 5.101-3.497 4.167.525-4.619 19.891 7.681 41.291 26.953 46.894 7.468 2.171 21.161 1.892 31.861-.65 10.056-2.388 24.051-8.834 33.149-15.268 6.748-4.773 23.12-20.409 23.12-22.082 0-1.763-18.329-19.077-24.485-23.129C145.772 72.741 132.93 66 131.469 66c-.386 0 .976 1.857 3.026 4.127 7.27 8.046 11.926 22.491 10.766 33.399-.364 3.423-1.002 4.356-4.259 6.23l-3.83 2.205 1.028-3.725c.566-2.048.828-7.185.583-11.415-.349-6.036-1.131-9.085-3.632-14.165-4.128-8.387-12.886-16.65-20.866-19.69-6.51-2.479-20.505-3.447-28.625-1.98m-6.16 8.122c-10.489 2.575-22.476 8.46-32.28 15.848C39.484 90.784 32 98.127 32 99.888c0 1.261 12.044 12.358 17.444 16.074C51.95 117.686 54 118.93 54 118.726c0-.203-.748-2.566-1.663-5.249-1.515-4.449-2.735-5.909-9.613-11.509l-2.224-1.811 3-3.195c7.104-7.563 20.049-15.567 31.45-19.445 15.632-5.317 33.057-5.503 47.573-.509 3.193 1.098 6.034 1.768 6.314 1.489.279-.28-1.554-2.485-4.076-4.901-3.457-3.313-5.846-4.663-9.721-5.494-8.215-1.762-26.355-1.248-35.54 1.006m16.143 11.661c-.771 1.247 4.835 3.672 6.34 2.741.608-.375 1.731-.163 2.495.472.765.635 2.883 1.011 4.707.836l3.315-.318-3.96-1.896c-4.637-2.221-12.01-3.27-12.897-1.835m49.631.503c.338.882 1.104 3.319 1.702 5.415.78 2.738 2.644 5.082 6.608 8.313l5.521 4.499-4.302 3.785c-11.659 10.256-26.955 18.346-40.159 21.242-10.931 2.396-26.328 1.649-36.894-1.791-4.263-1.387-7.75-2.182-7.75-1.766 0 .417 2.156 2.774 4.792 5.24 4.449 4.161 5.388 4.574 13.116 5.777 25.002 3.889 51.303-5.22 72.604-25.146 3.568-3.338 6.488-6.641 6.488-7.34s-2.9-3.983-6.444-7.299c-7.699-7.202-16.179-13.266-15.282-10.929M87.75 84.115C85.347 85.908 85 86.844 85 91.524c0 2.947.452 5.637 1.005 5.979.552.341 3.223-1.657 5.935-4.441S97.349 88 97.935 88c2.485 0 .785-3.219-2.403-4.551-4.357-1.821-4.461-1.812-7.782.666m18.265 4.135c.008.688.72 3.275 1.582 5.75 1.094 3.138 1.37 6.089.914 9.75-.7 5.615-.181 6.178 3.805 4.125 6.947-3.578 8.364-8.578 4.711-16.625-1.859-4.094-2.096-4.25-6.478-4.25-2.98 0-4.544.431-4.534 1.25m-9.652 2.675c-3.951 2.403-7.811 7.68-6.3 8.614.604.374.867 1.643.582 2.82-.351 1.454.185 2.649 1.669 3.724 3.078 2.229 8.944 4.107 9.62 3.079.311-.475 1.579-1.396 2.816-2.047 1.868-.984 2.25-2.021 2.25-6.103 0-5.8-1.666-10.012-3.961-10.012-.901 0-2.078-.439-2.615-.976-.634-.634-2.055-.318-4.061.901m-15.297 2.442c-1.653 4.923-.923 12.705 1.532 16.326L84.5 112.5l.326-3.423c.18-1.883-.226-4.455-.9-5.716-.828-1.546-.904-2.711-.234-3.577.664-.858.608-2.778-.167-5.784l-1.162-4.5zm5.37 14.031c-1.05 4.185-.034 6.968 3.385 9.266 3.574 2.403 6.697 1.987 10.427-1.389 2.649-2.397 2.116-3.984-1.57-4.676-1.827-.342-4.839-1.742-6.694-3.111-4.181-3.085-4.794-3.094-5.548-.09m28.549.648c-1.367 1.05-3.032 1.92-3.7 1.932S109.589 110.9 109 112s-2.067 2.014-3.285 2.032c-2.023.028-7.715 4.061-7.715 5.465 0 1.038 7.36-.697 11.249-2.652 3.343-1.68 9.684-9.245 8.632-10.297-.226-.226-1.529.448-2.896 1.498"/><path fill-opacity=".461" fill-rule="evenodd" d="M82.233 68.574c-3.446.755-9.693 2.744-13.88 4.421C54.224 78.653 33 94.563 33 99.496c0 2.442 7.554 9.972 16.317 16.265l4.481 3.218-1.403-4.739c-1.068-3.609-2.743-5.939-7.019-9.766l-5.616-5.026 5.37-4.542c11.319-9.576 22.151-15.564 34.571-19.115 11.364-3.248 29.531-3.078 40.956.383l8.157 2.472-1.481-2.261c-2.59-3.953-8.08-7.389-13.426-8.403-7.212-1.367-24.177-1.051-31.674.592m13.922 12.259c-1.744 1.17 1.578 2.158 12.345 3.67l4 .562-3.649-2.005c-4.304-2.364-10.795-3.503-12.696-2.227m49.27.73c.431 1.065 1.174 3.287 1.651 4.937.486 1.679 3.37 5.245 6.552 8.099l5.684 5.099-6.906 5.729c-9.367 7.77-18.737 13.214-29.177 16.949-8.313 2.975-9.443 3.123-23.729 3.111-13.521-.012-15.715-.266-22.25-2.574-3.988-1.408-7.25-2.247-7.25-1.864 0 1.843 9.299 8.963 13.159 10.076 2.502.721 9.638 1.228 16.841 1.196 10.569-.048 13.89-.472 21.5-2.748 14.813-4.429 32.611-15.312 41.954-25.654 2.899-3.209 3.396-4.331 2.586-5.844-1.05-1.962-10.756-10.604-17.469-15.553-3.226-2.379-3.789-2.55-3.146-.959M88.25 84.115c-2.908 1.862-3.248 2.571-3.235 6.733.026 7.702 1.23 8.291 5.96 2.918 2.253-2.559 4.98-4.934 6.061-5.277 3.056-.97 2.318-3.443-1.504-5.04-4.2-1.755-3.386-1.829-7.282.666m17.765 4.135c.008.688.726 3.275 1.596 5.75a21.1 21.1 0 0 1 1.036 9.222c-.612 5.289.25 6.418 3.582 4.699 7.103-3.663 8.518-8.682 4.682-16.605-1.994-4.12-2.29-4.316-6.5-4.316-2.87 0-4.406.437-4.396 1.25m-9.684 2.838c-9.031 5.718-7.782 14.933 2.419 17.845 2.045.584 3.25.573 3.25-.028 0-.525 1.125-1.382 2.5-1.905 2.141-.814 2.5-1.579 2.5-5.326C107 95.829 105.237 91 103.102 91c-.936 0-2.132-.43-2.658-.956-.608-.608-2.105-.228-4.113 1.044m-15.114 2.583c-1.729 5.771-1.487 9.184 1.017 14.329l2.19 4.5.353-3.82c.193-2.101-.146-4.42-.756-5.154-.609-.734-.844-2.39-.523-3.68s.213-4.121-.24-6.291l-.825-3.945zm5.291 14.293c-.872 3.968 1.302 8.245 4.817 9.481 2.234.786 3.584.583 6.486-.976 4.409-2.368 5.519-5.469 1.958-5.469-1.308 0-4.506-1.35-7.108-3s-4.904-3-5.116-3-.679 1.334-1.037 2.964m29.524-.503c-.667.804-2.184 1.752-3.372 2.107s-2.857 1.524-3.709 2.597c-.852 1.074-2.228 2.053-3.058 2.174-.831.122-3.059 1.213-4.951 2.425l-3.442 2.202 3.282.017c1.805.009 4.73-.592 6.5-1.335 3.737-1.57 9.311-6.985 10.033-9.744.598-2.286.325-2.38-1.283-.443"/><path fill-opacity=".452" fill-rule="evenodd" d="M87.5 67.647c-11.784 1.895-26.172 7.76-36.692 14.958C43.124 87.863 33 97.758 33 100.011c0 1.887 7.725 9.298 15.548 14.916 2.449 1.759 4.452 2.786 4.452 2.284 0-3.397-3.055-8.392-7.696-12.582-5.267-4.754-5.353-4.918-3.6-6.872.988-1.1 4.317-3.946 7.399-6.324 22.948-17.708 50.344-22.971 74.808-14.373l5.482 1.927-3.947-4.11c-5.754-5.993-9.066-7.063-22.942-7.411-6.602-.166-13.354-.084-15.004.181m10.487 14.801c1.369.757 2.858 1.148 3.311.868s2.11.025 3.683.676c1.574.652 3.684.988 4.69.747 3.052-.731-4.994-3.744-9.889-3.704-4.179.035-4.222.069-1.795 1.413M146 81.789c0 3.453 3.023 8.405 7.782 12.743l5.519 5.033-4.9 4.334c-23.174 20.493-52.044 27.653-76.948 19.085-3.18-1.094-6.009-1.761-6.288-1.483-.723.724 3.749 5.283 7.387 7.531 4.398 2.718 18.819 4.18 29.366 2.977 10.887-1.241 17.765-3.27 27.472-8.104 13.76-6.852 30.61-20.179 30.61-24.209 0-1.282-2.174-4.143-5.501-7.239C153.94 86.353 146 80.511 146 81.789m-58.1 2.948c-2.87 2.416-3.082 3.013-2.654 7.466.255 2.663.749 5.126 1.097 5.474s2.454-1.437 4.681-3.966 4.957-4.888 6.068-5.24c3.077-.977 1.862-3.615-2.332-5.066-3.512-1.214-3.929-1.133-6.86 1.332m18.561 3.505c-.288.75.202 3.101 1.089 5.224 1.03 2.465 1.494 5.881 1.282 9.448-.304 5.12-.165 5.558 1.668 5.246 1.1-.186 3.463-1.447 5.25-2.8 3.995-3.026 4.283-6.888 1-13.398-1.994-3.954-2.678-4.497-6.008-4.773-2.483-.205-3.936.152-4.281 1.053m-12.748 5.379c-3.318 3.318-3.668 4.136-3.127 7.307 1.038 6.088 7.163 9.566 12.241 6.951 3.596-1.851 4.14-2.764 4.158-6.98.021-5.048-1.853-9.896-3.833-9.913-.909-.007-2.563-.258-3.677-.558-1.442-.387-3.103.534-5.762 3.193m-12.624 1.242c-1.32 4.694-.786 10.128 1.391 14.136l1.357 2.499.666-2.656c.367-1.461.168-3.588-.442-4.728s-.88-3.095-.601-4.343c.28-1.249.137-3.846-.317-5.771l-.827-3.5zm6.524 10.857c-.337.337-.613 2.571-.613 4.963 0 4.003.285 4.485 3.572 6.053 3.417 1.629 3.731 1.617 7.25-.268 4.73-2.536 4.656-4.318-.25-6.004-2.16-.743-5.146-2.252-6.636-3.354-1.491-1.101-2.986-1.727-3.323-1.39m24.887 3.975c-1.65.887-3.588 2.444-4.307 3.46-.718 1.015-2.068 1.855-3 1.867s-2.818.947-4.193 2.078l-2.5 2.055 4.368-.498c4.501-.514 10.049-4.14 12.899-8.432 1.734-2.612.863-2.753-3.267-.53"/></svg>