<!-- Generated by IcoMoon.io -->
<svg version="1.1" xmlns="http://www.w3.org/2000/svg" width="32" height="32" viewBox="0 0 32 32" fill="#000000">
<title>pnt</title>
<path d="M12.882 0.184c-0.604 0.125-1.468 0.349-1.92 0.497s-1.433 0.575-2.181 0.948c-0.748 0.374-1.798 1.009-2.334 1.412s-1.472 1.257-2.080 1.899-1.383 1.584-1.721 2.095c-0.338 0.511-0.899 1.534-1.245 2.274s-0.786 1.906-0.976 2.591c-0.293 1.057-0.345 1.669-0.345 4.045s0.052 2.988 0.345 4.045c0.19 0.685 0.629 1.851 0.976 2.591s0.907 1.763 1.245 2.274c0.338 0.511 1.112 1.454 1.721 2.095s1.544 1.498 2.080 1.903c0.536 0.405 1.694 1.086 2.574 1.514s2.176 0.935 2.88 1.128c1.090 0.299 1.695 0.351 4.080 0.351s2.99-0.052 4.080-0.351c0.704-0.193 2-0.7 2.88-1.128s2.038-1.109 2.574-1.514c0.536-0.405 1.472-1.261 2.080-1.903s1.383-1.584 1.721-2.095c0.338-0.511 0.891-1.519 1.229-2.24s0.781-1.923 0.985-2.671c0.318-1.166 0.371-1.736 0.371-4s-0.053-2.834-0.371-4c-0.204-0.748-0.648-1.95-0.985-2.671s-0.891-1.729-1.229-2.24c-0.338-0.511-1.112-1.454-1.721-2.095s-1.544-1.498-2.080-1.903c-0.536-0.405-1.694-1.086-2.574-1.514s-2.176-0.93-2.88-1.117c-0.959-0.254-1.881-0.353-3.68-0.395-1.651-0.038-2.743 0.016-3.499 0.173zM17.694 3.973c0.37 0.172 0.901 0.573 1.18 0.891s0.606 0.814 0.727 1.104c0.121 0.29 0.218 0.979 0.216 1.532-0.002 0.624-0.114 1.248-0.295 1.647-0.16 0.353-0.567 0.884-0.905 1.18s-0.85 0.638-1.14 0.759-0.963 0.22-1.497 0.22c-0.534 0-1.212-0.101-1.508-0.224s-0.829-0.488-1.185-0.81c-0.357-0.322-0.769-0.901-0.916-1.287-0.189-0.495-0.249-1.031-0.205-1.823 0.052-0.928 0.146-1.24 0.543-1.804 0.264-0.375 0.766-0.883 1.115-1.129s0.96-0.506 1.356-0.578c0.396-0.073 0.972-0.1 1.28-0.061s0.863 0.212 1.233 0.385zM14.908 5.699c-0.282 0.172-0.624 0.528-0.76 0.791s-0.248 0.717-0.247 1.007c0 0.29 0.141 0.759 0.313 1.040s0.528 0.624 0.791 0.76c0.264 0.136 0.702 0.248 0.975 0.248s0.712-0.112 0.975-0.248c0.264-0.136 0.62-0.478 0.791-0.76s0.312-0.764 0.312-1.072-0.141-0.791-0.312-1.072c-0.172-0.282-0.528-0.624-0.791-0.76s-0.717-0.248-1.007-0.247c-0.29 0-0.759 0.141-1.040 0.313zM18.755 22.905c0.757 0.132 1.96 0.453 2.674 0.714s1.759 0.732 2.322 1.047c0.564 0.315 1.579 1.014 2.257 1.553l1.233 0.98-0.711 0.633c-0.391 0.348-1.134 0.921-1.652 1.274s-1.526 0.915-2.24 1.249c-0.715 0.335-1.911 0.776-2.659 0.98-1.166 0.318-1.736 0.371-4 0.371s-2.834-0.053-4-0.371c-0.748-0.204-1.944-0.645-2.659-0.98s-1.722-0.897-2.24-1.249c-0.517-0.352-1.261-0.926-1.652-1.274l-0.711-0.633 1.233-0.98c0.678-0.539 1.694-1.238 2.257-1.553s1.614-0.788 2.334-1.051c0.72-0.263 1.86-0.577 2.533-0.699s1.917-0.228 2.763-0.236c0.846-0.008 2.158 0.094 2.916 0.226z"/>
</svg>
