<svg xmlns="http://www.w3.org/2000/svg" width="32" height="32" fill="#000000"><path fill="#363636" d="M16 32c8.837 0 16-7.163 16-16S24.837 0 16 0 0 7.163 0 16s7.163 16 16 16Z"/><path fill="#b2b2b2" d="M11.165 10.667 20.376 16l3.337-1.971v-3.13l-9.208-5.45-3.338 1.971v3.247Z"/><path fill="#b2b2b2" d="m11.165 17.855 5.64-3.362 3.57 2.203 3.452-2.087-.115 3.014-9.323 5.333-3.223-1.855v-3.246Z"/><path fill="#b2b2b2" d="m11.165 21.797 3.224 1.855 3.338-1.855v2.899l-3.338 1.855-3.223-1.855v-2.899Z"/></svg>