<svg xmlns="http://www.w3.org/2000/svg" width="250" height="250" version="1.1" fill="#000000"><path fill-opacity=".137" d="M 91.648 25.712 C 91.304 27.796, 91.017 31.442, 91.011 33.816 C 91.005 36.189, 90.609 38.889, 90.132 39.816 C 89.655 40.742, 89.035 43.638, 88.755 46.250 C 88.344 50.085, 88.543 51, 89.790 51 C 90.639 51, 91.081 51.252, 90.772 51.561 C 90.464 51.869, 86.976 51.139, 83.020 49.938 C 74.360 47.307, 74.655 47.190, 63.073 57.857 L 54.646 65.618 56.478 77.059 C 57.486 83.352, 58.882 89.445, 59.580 90.600 C 60.278 91.755, 63.657 93.750, 67.088 95.033 L 73.327 97.366 70.175 98.859 C 64.252 101.664, 64.041 109.371, 69.726 115.309 C 71.802 117.476, 73.050 119.426, 72.500 119.641 C 67.613 121.550, 66.473 122.749, 65.959 126.524 C 65.585 129.275, 65.893 131.092, 66.959 132.420 C 68.390 134.202, 68.357 134.287, 66.500 133.610 C 64.955 133.047, 64.769 133.153, 65.683 134.074 C 66.345 134.741, 67.666 134.954, 68.683 134.558 C 70.361 133.905, 70.320 133.704, 68.139 131.926 C 66.841 130.867, 66.253 130, 66.833 130 C 67.414 130, 69.109 131.050, 70.601 132.333 C 73.407 134.747, 73.354 134.797, 67.500 135.262 C 65.273 135.439, 64.178 136.238, 63.250 138.365 C 61.547 142.267, 61.668 142.900, 64 142.290 C 65.118 141.997, 66 142.259, 66 142.883 C 66 143.498, 65.583 144, 65.073 144 C 64.564 144, 63.941 144.787, 63.689 145.750 C 63.254 147.417, 63.226 147.417, 63.116 145.750 C 62.975 143.621, 61 143.388, 61 145.500 C 61 146.325, 60.564 147, 60.031 147 C 57.701 147, 60.439 149.771, 64.373 151.393 C 70.157 153.778, 74.524 157.343, 73.564 158.896 C 73.147 159.571, 71.681 160.551, 70.306 161.074 C 68.931 161.596, 67.573 162.919, 67.287 164.012 C 66.804 165.859, 65.745 166.460, 63.645 166.083 C 63.174 165.999, 62.125 166.481, 61.312 167.156 C 60.047 168.206, 59.905 172.914, 60.321 199.941 L 60.807 231.500 127.404 231.757 L 194 232.014 194.014 219.757 C 194.021 213.016, 194.283 206.547, 194.596 205.383 C 194.941 204.095, 197.092 202.362, 200.082 200.962 C 204.754 198.773, 205 198.461, 205 194.707 C 205 192.535, 204.291 185.985, 203.426 180.153 C 202.332 172.791, 202.180 169.440, 202.926 169.191 C 204.641 168.620, 204.201 163.994, 201.082 149.789 C 196.704 129.856, 196.727 130, 197.921 130 C 199.827 130, 199.118 126.840, 192.987 107.988 C 187.124 89.961, 182.535 77.717, 180.739 75.307 C 180.211 74.599, 180.363 71.065, 181.112 66.607 C 182.794 56.597, 181.114 43.374, 176.958 33.905 C 175.331 30.198, 174 26.678, 174 26.082 C 174 24.545, 173.456 24.686, 168.192 27.581 C 165.612 29.001, 160.325 33.291, 156.444 37.114 L 149.387 44.065 141.444 43.830 C 136.946 43.697, 130.720 44.255, 127.092 45.117 C 122.865 46.120, 119.462 46.365, 117.092 45.835 C 115.116 45.394, 112.375 44.797, 111 44.509 C 108.532 43.992, 107.394 42.608, 98.236 29 C 95.831 25.425, 93.505 22.371, 93.068 22.212 C 92.631 22.054, 91.992 23.629, 91.648 25.712 M 99 47.463 C 96.834 48.669, 96.729 48.944, 98.217 49.522 C 99.161 49.889, 100.511 49.957, 101.217 49.673 C 101.949 49.379, 101.642 49.109, 100.500 49.044 C 98.700 48.941, 98.750 48.786, 101 47.500 C 102.375 46.714, 103.050 46.071, 102.500 46.071 C 101.950 46.071, 100.375 46.697, 99 47.463 M 95.515 51.024 C 96.179 52.099, 100 52.950, 100 52.023 C 100 51.589, 98.889 51.021, 97.530 50.761 C 96.172 50.501, 95.265 50.620, 95.515 51.024 M 88.663 106.019 C 89.071 108.153, 89.681 108.500, 93.018 108.500 C 97.164 108.500, 97.152 107.395, 93 106.836 C 91.625 106.651, 89.980 105.834, 89.345 105.019 C 88.402 103.811, 88.277 103.996, 88.663 106.019 M 115 113 C 115 113.550, 115.423 114, 115.941 114 C 116.459 114, 117.160 113.550, 117.500 113 C 117.840 112.450, 117.416 112, 116.559 112 C 115.702 112, 115 112.450, 115 113 M 98.750 129.662 C 99.438 129.940, 100.563 129.940, 101.250 129.662 C 101.938 129.385, 101.375 129.158, 100 129.158 C 98.625 129.158, 98.063 129.385, 98.750 129.662 M 106.750 129.662 C 107.438 129.940, 108.563 129.940, 109.250 129.662 C 109.938 129.385, 109.375 129.158, 108 129.158 C 106.625 129.158, 106.063 129.385, 106.750 129.662 M 140.228 187.250 L 140.500 206.500 144.250 206.810 L 148 207.121 148 187.560 L 148 168 143.978 168 L 139.957 168 140.228 187.250 M 115.328 183.938 C 110.157 186.286, 107.727 189.852, 107.727 195.094 C 107.727 200.420, 109.395 203.292, 113.987 205.872 C 118.793 208.574, 123.210 208.572, 128.022 205.868 C 137.274 200.668, 136.667 188.932, 126.887 183.942 C 122.184 181.543, 120.604 181.542, 115.328 183.938 M 76 201.213 L 76 219 79.500 219 L 83 219 83 212.667 C 83 209.183, 83.271 206.062, 83.602 205.731 C 83.933 205.400, 85.685 205.836, 87.496 206.700 C 91.441 208.581, 94.548 207.953, 98.202 204.535 C 108.131 195.249, 98.579 178.678, 86.475 184.193 C 84.432 185.124, 83.691 185.118, 83.101 184.164 C 82.686 183.492, 80.918 183.051, 79.173 183.184 L 76 183.425 76 201.213 M 155.744 183.868 L 152.987 184.500 155.977 190 C 157.621 193.025, 159.963 197.432, 161.181 199.792 L 163.397 204.085 159.710 211.535 L 156.024 218.985 160.033 218.828 C 163.753 218.682, 164.249 218.304, 166.913 213.585 C 172.313 204.020, 182 185.056, 182 184.050 C 182 183.498, 180.234 183.148, 178.076 183.273 C 174.424 183.484, 173.954 183.874, 171.317 188.877 C 169.758 191.834, 168.036 194.209, 167.491 194.155 C 166.946 194.100, 165.375 191.906, 164 189.278 C 161.632 184.753, 160.126 182.902, 159 183.134 C 158.725 183.190, 157.260 183.521, 155.744 183.868 M 117 191 C 114.597 193.403, 114.462 195.786, 116.557 198.777 C 119.677 203.232, 126.333 200.660, 126.333 195 C 126.333 189.448, 120.886 187.114, 117 191 M 84.571 191.571 C 82.580 193.563, 82.575 195.948, 84.557 198.777 C 88.496 204.402, 96.704 198.834, 93.816 192.496 C 92.941 190.576, 91.925 190, 89.411 190 C 87.613 190, 85.436 190.707, 84.571 191.571 M 90.405 213.153 C 90.117 213.619, 90.359 214, 90.941 214 C 91.529 214, 92 215.999, 92 218.500 C 92 220.975, 91.550 223, 91 223 C 90.450 223, 90 223.416, 90 223.924 C 90 225.267, 99.696 224.498, 101.484 223.013 C 103.067 221.700, 103.501 217.296, 102.235 215.400 C 100.340 212.563, 91.775 210.936, 90.405 213.153 M 109.500 213.195 C 106.775 214.740, 106.033 216.024, 106.015 219.227 C 105.993 223.114, 109.971 225.584, 114.269 224.352 C 120.275 222.629, 120.854 215.624, 115.203 213.047 C 112.386 211.763, 112.008 211.773, 109.500 213.195 M 124.684 214.034 C 121.339 216.665, 121.251 219.948, 124.445 222.948 C 126.959 225.310, 130.791 225.248, 133.744 222.797 C 135.628 221.234, 135.256 219, 133.111 219 C 131.926 219, 131.274 219.652, 131.361 220.750 C 131.545 223.064, 127.112 223.124, 125.663 220.828 C 124.071 218.304, 126.350 214, 129.279 214 C 130.555 214, 132.132 214.532, 132.783 215.183 C 134.166 216.566, 135.212 215.947, 134.196 214.347 C 133.813 213.744, 132.120 212.952, 130.434 212.587 C 128.128 212.087, 126.704 212.445, 124.684 214.034 M 138.518 213.750 C 139.552 216.221, 139.730 222.049, 138.788 222.631 C 136.883 223.808, 138.310 224.630, 142 224.482 C 147.783 224.250, 148 224.171, 148 222.300 C 148 220.978, 147.733 220.867, 146.800 221.800 C 146.140 222.460, 144.790 223, 143.800 223 C 141.444 223, 141.401 219.303, 143.750 218.689 C 145.417 218.254, 145.417 218.226, 143.750 218.116 C 141.353 217.957, 141.401 214, 143.800 214 C 144.790 214, 146.140 214.540, 146.800 215.200 C 147.733 216.133, 148 215.911, 148 214.200 C 148 212.221, 147.488 212, 142.893 212 C 138.417 212, 137.876 212.216, 138.518 213.750 M 94.667 214.667 C 93.621 215.713, 93.887 221.812, 95.009 222.506 C 97.151 223.830, 100 221.904, 100 219.133 C 100 215.247, 96.781 212.552, 94.667 214.667 M 109.388 216.592 C 108.517 220.060, 110.054 222.500, 113.109 222.500 C 115.232 222.500, 115.500 222.051, 115.500 218.500 C 115.500 214.892, 115.234 214.469, 112.785 214.187 C 110.548 213.929, 109.950 214.352, 109.388 216.592" stroke="none" fill="#000000" fill-rule="evenodd"/><path fill-opacity=".282" d="M 93.499 25 C 93.820 26.375, 94.344 31.550, 94.664 36.500 C 94.985 41.450, 95.378 45.649, 95.538 45.831 C 95.698 46.013, 96.880 45.592, 98.164 44.896 C 99.449 44.199, 101.956 43.376, 103.735 43.065 L 106.970 42.500 101.235 34.382 C 98.081 29.917, 94.919 25.417, 94.208 24.382 C 93.021 22.653, 92.963 22.704, 93.499 25 M 168 28.514 C 165.525 29.805, 161.510 33.204, 159.077 36.067 C 155.320 40.488, 154.880 41.441, 156.153 42.387 C 157.249 43.201, 157.631 45.367, 157.576 50.444 C 157.514 56.090, 157.862 57.726, 159.439 59.194 C 160.505 60.187, 161.967 61, 162.689 61 C 163.410 61, 164 61.412, 164 61.915 C 164 62.419, 165.350 64.105, 167 65.662 C 170.405 68.876, 170.403 68.868, 168.868 72.685 C 168.246 74.233, 167.826 77.353, 167.936 79.617 C 168.076 82.513, 167.684 83.907, 166.615 84.317 C 165.035 84.924, 165.189 88.855, 166.834 89.927 C 167.319 90.242, 170.017 97.358, 172.829 105.741 L 177.944 120.981 175.504 131.741 C 172.267 146.012, 170.261 152.547, 168.747 153.753 C 168.061 154.299, 165.813 155.344, 163.750 156.074 C 161.688 156.804, 160 157.690, 160 158.043 C 160 158.395, 158.160 159.235, 155.912 159.908 C 153.664 160.582, 150.275 162.003, 148.382 163.067 C 146.488 164.130, 144.489 165, 143.939 165 C 142.832 165, 139.154 160.993, 132.734 152.791 C 130.405 149.815, 127.927 146.733, 127.227 145.940 C 126.527 145.148, 124.329 142.363, 122.343 139.750 C 120.357 137.137, 118.343 135, 117.866 135 C 117.390 135, 117 134.518, 117 133.929 C 117 131.003, 113.874 129.728, 108.167 130.325 C 102.422 130.925, 94.796 129.747, 83.898 126.575 C 79.829 125.390, 77.992 124.277, 77.185 122.508 C 75.939 119.771, 76.165 119.522, 80.794 118.529 C 83.167 118.019, 84.803 116.688, 86.647 113.767 C 89.949 108.537, 89.063 104.308, 84.149 101.838 C 79.708 99.605, 78.931 98.694, 82.159 99.504 C 84.509 100.094, 88.535 98.860, 90 97.100 C 90.275 96.770, 94.213 93.190, 98.750 89.144 L 107 81.788 107 85.619 C 107 88.761, 106.349 90.028, 103.378 92.671 C 99.957 95.715, 99.794 96.138, 100.422 100.331 C 100.789 102.772, 101.856 105.416, 102.794 106.206 C 104.803 107.898, 123.540 114.036, 126.629 114.015 C 129.151 113.997, 145.552 99.986, 146.483 97.054 C 147.444 94.026, 143.030 72.325, 141.116 70.669 C 139.053 68.885, 121.075 63, 117.687 63 C 115.249 63, 112.473 65.029, 102.640 74 C 98.176 78.073, 96.624 78.372, 96.180 75.245 C 95.960 73.696, 96.857 72.150, 99.041 70.312 C 101.987 67.833, 102.176 67.304, 101.606 63.141 C 100.811 57.341, 99.353 55.847, 92.297 53.601 C 89.109 52.586, 84.803 51.136, 82.730 50.378 C 75.939 47.896, 74.428 48.440, 65.015 56.750 C 60.187 61.012, 56.007 65.264, 55.726 66.199 C 54.939 68.812, 59.060 89.277, 60.768 91.234 C 61.600 92.187, 66.017 94.184, 70.583 95.671 C 75.150 97.158, 78.698 98.680, 78.467 99.053 C 78.236 99.427, 76.935 99.519, 75.576 99.259 C 66.194 97.466, 62.527 109.487, 70.582 115.630 C 72.462 117.064, 74 118.547, 74 118.926 C 74 119.305, 72.200 120.409, 70 121.380 C 64.666 123.733, 64.604 126.726, 69.803 130.844 C 72.697 133.136, 75.082 134.023, 79.784 134.555 C 83.181 134.939, 85.738 135.616, 85.464 136.058 C 85.191 136.500, 85.425 137.144, 85.984 137.490 C 86.543 137.835, 87 139.448, 87 141.073 C 87 142.698, 87.397 144.809, 87.883 145.764 C 89.670 149.276, 93.442 160.158, 93.512 162 C 93.522 162.275, 93.865 163.026, 94.275 163.669 C 94.684 164.313, 94.307 165.550, 93.438 166.419 C 92.134 167.724, 89.159 168, 76.429 168 L 61 168 61 199.500 L 61 231 127.500 231 L 194 231 194 217.005 L 194 203.010 198.750 200.811 C 204.276 198.252, 205.194 197.246, 204.543 194.459 C 204.281 193.337, 203.606 188.353, 203.044 183.385 C 202.481 178.416, 201.734 172.922, 201.385 171.176 C 200.870 168.602, 201.073 168, 202.454 168 C 203.778 168, 204.038 167.385, 203.620 165.250 C 202.977 161.970, 197.192 134.468, 196.468 131.250 C 196.104 129.632, 196.418 129, 197.588 129 C 198.727 129, 199.012 128.476, 198.539 127.250 C 198.167 126.287, 195.142 117.175, 191.815 107 C 188.488 96.825, 184.224 85.132, 182.340 81.015 C 179.218 74.196, 179 73.129, 179.893 69.015 C 181.753 60.450, 181.851 58.472, 180.812 50.500 C 179.944 43.831, 175.181 29.257, 173.078 26.834 C 172.760 26.467, 170.475 27.224, 168 28.514 M 158.250 38.559 C 156.777 40.157, 156.654 41, 157.893 41 C 158.746 41, 160.343 37.991, 159.774 37.458 C 159.623 37.317, 158.938 37.812, 158.250 38.559 M 66.538 67.938 C 65.829 69.085, 74.896 76.182, 76.111 75.432 C 76.587 75.137, 76.719 75.569, 76.403 76.391 C 76.088 77.213, 75.172 78.024, 74.368 78.193 C 73.511 78.373, 75.651 80.570, 79.538 83.500 C 83.185 86.250, 86.458 88.421, 86.810 88.325 C 88.620 87.830, 87.373 86.080, 82.343 82.050 C 77.839 78.444, 77.122 77.484, 78.553 76.981 C 79.966 76.486, 79.105 75.428, 74.235 71.681 C 67.699 66.651, 67.418 66.515, 66.538 67.938 M 167 67.941 C 167 68.459, 167.445 69.157, 167.989 69.493 C 168.555 69.843, 168.723 69.442, 168.382 68.552 C 167.717 66.820, 167 66.503, 167 67.941 M 163.813 70.683 C 164.534 70.972, 165.397 70.936, 165.729 70.604 C 166.061 70.272, 165.471 70.036, 164.417 70.079 C 163.252 70.127, 163.015 70.364, 163.813 70.683 M 109.459 80.067 C 109.096 80.653, 108.957 81.231, 109.150 81.351 C 109.342 81.471, 111.703 83.325, 114.395 85.471 C 118.505 88.746, 118.997 89.475, 117.462 90.013 C 115.976 90.535, 116.909 91.621, 122.441 95.809 C 128.486 100.385, 131.015 101.385, 130.993 99.191 C 130.989 98.811, 129.302 97.376, 127.243 96.001 C 125.184 94.627, 122.901 92.935, 122.169 92.242 C 121.438 91.549, 120.313 91.245, 119.669 91.567 C 119.026 91.889, 119.489 91.277, 120.698 90.208 L 122.896 88.264 118.198 84.918 C 115.614 83.077, 112.905 80.993, 112.179 80.286 C 110.574 78.725, 110.302 78.703, 109.459 80.067 M 97.813 134.683 C 98.534 134.972, 99.397 134.936, 99.729 134.604 C 100.061 134.272, 99.471 134.036, 98.417 134.079 C 97.252 134.127, 97.015 134.364, 97.813 134.683 M 141.750 167.689 C 140.157 168.106, 140 169.938, 140 188.107 L 140 208.067 143.750 207.783 L 147.500 207.500 148 188 C 148.319 175.568, 148.138 168.234, 147.500 167.765 C 146.429 166.979, 144.564 166.954, 141.750 167.689 M 87.601 182.732 C 87.198 183.135, 84.198 183.332, 80.934 183.170 L 75 182.876 75 200.919 L 75 218.962 77.421 219.570 C 82.660 220.884, 83.477 220.009, 83.796 212.740 C 84.070 206.498, 84.987 204.551, 86.500 207 C 87.370 208.408, 94.048 208.180, 96.810 206.647 C 105.216 201.983, 104.784 188.042, 96.094 183.549 C 92.920 181.907, 88.820 181.513, 87.601 182.732 M 114.270 183.483 C 107.570 186.395, 104.712 196.821, 109.088 202.385 C 117.133 212.612, 135 208.025, 135 195.733 C 135 185.359, 124.384 179.086, 114.270 183.483 M 152 183.546 C 152 183.906, 154.478 188.616, 157.506 194.012 L 163.013 203.822 159.008 211.247 C 156.806 215.330, 155.303 218.970, 155.669 219.335 C 156.829 220.496, 163.715 220.051, 164.737 218.750 C 166.060 217.064, 183 184.438, 183 183.574 C 183 183.198, 180.880 183.028, 178.289 183.195 C 173.745 183.489, 173.486 183.678, 170.994 188.500 C 169.573 191.250, 167.981 193.336, 167.455 193.136 C 166.930 192.936, 165.375 190.686, 164 188.136 C 161.622 183.727, 161.267 183.485, 156.750 183.195 C 154.137 183.028, 152 183.185, 152 183.546 M 85.750 191.080 C 83.740 192.251, 83.401 197.001, 85.200 198.800 C 85.860 199.460, 87.570 200, 89 200 C 92.351 200, 94 198.297, 94 194.835 C 94 190.769, 89.669 188.798, 85.750 191.080 M 117.200 191.200 C 115.081 193.319, 115.776 197.807, 118.500 199.592 C 120.816 201.109, 121.184 201.109, 123.500 199.592 C 125.173 198.496, 126 197.036, 126 195.177 C 126 191.703, 124.355 190, 121 190 C 119.570 190, 117.860 190.540, 117.200 191.200 M 89 212.950 C 89 213.528, 89.450 214, 90 214 C 90.550 214, 91 216.025, 91 218.500 C 91 220.975, 90.550 223, 90 223 C 89.450 223, 89 223.450, 89 224 C 89 225.157, 98.918 225.339, 100.687 224.214 C 101.341 223.799, 102.375 222.143, 102.987 220.534 C 103.917 218.089, 103.787 217.190, 102.198 215.055 C 100.614 212.927, 99.352 212.450, 94.648 212.200 C 91.180 212.016, 89 212.305, 89 212.950 M 107.090 214.131 C 105.291 215.807, 104.933 216.929, 105.415 219.381 C 106.178 223.269, 108.419 225, 112.691 225 C 116.663 225, 120 222.032, 120 218.500 C 120 212.607, 111.730 209.808, 107.090 214.131 M 123.655 213.829 C 121.561 216.142, 121.516 221.373, 123.571 223.429 C 125.761 225.618, 132.271 225.463, 134.345 223.171 C 137.049 220.183, 136.455 218, 132.937 218 C 130.458 218, 129.934 218.372, 130.187 219.955 C 130.359 221.030, 130.162 221.930, 129.750 221.955 C 126.461 222.154, 126 221.805, 126 219.122 C 126 215.005, 128.273 213.377, 131.180 215.413 C 134.282 217.586, 135 217.415, 135 214.500 C 135 212.177, 134.656 212, 130.155 212 C 126.731 212, 124.825 212.536, 123.655 213.829 M 137 212.941 C 137 213.459, 137.376 214.115, 137.836 214.399 C 139.023 215.132, 139.131 221.801, 137.968 222.520 C 135.528 224.028, 137.501 225, 143 225 C 148.333 225, 149 224.778, 149 223 C 149 220.772, 147.040 220.360, 145.200 222.200 C 144.319 223.081, 143.704 223.104, 142.887 222.287 C 141.625 221.025, 142.643 218.661, 144.069 219.543 C 144.581 219.859, 145 219.416, 145 218.559 C 145 217.702, 144.325 217, 143.500 217 C 142.675 217, 142 216.536, 142 215.969 C 142 214.445, 145.312 213.437, 145.773 214.820 C 146.430 216.791, 149 216.138, 149 214 C 149 212.222, 148.333 212, 143 212 C 139.700 212, 137 212.423, 137 212.941 M 95 218.378 C 95 223.280, 95.847 224.010, 98.479 221.379 C 100.544 219.313, 100.109 217.143, 97.250 215.248 C 95.026 213.773, 95 213.810, 95 218.378 M 109.628 216.528 C 108.697 218.954, 108.840 219.697, 110.569 221.427 C 112.914 223.772, 116.219 221.726, 115.810 218.183 C 115.573 216.131, 114.883 215.428, 112.878 215.196 C 111.169 214.998, 110.037 215.462, 109.628 216.528" stroke="none" fill="#000000" fill-rule="evenodd"/><path fill-opacity=".43" d="M 95 36.441 C 95 41.148, 95.247 45, 95.550 45 C 95.852 45, 97.456 44.299, 99.114 43.441 L 102.128 41.882 100.098 38.441 C 98.981 36.549, 98.518 35, 99.069 35 C 99.710 35, 99.680 34.270, 98.985 32.972 C 98.386 31.852, 97.398 31.254, 96.780 31.636 C 96.054 32.084, 95.881 31.753, 96.286 30.696 C 96.631 29.798, 96.482 28.798, 95.956 28.473 C 95.376 28.115, 95 31.250, 95 36.441 M 174.240 44.004 C 169.472 46.139, 169.099 46.956, 172.052 48.800 C 174.072 50.062, 174.053 50.147, 170.829 54.291 C 169.028 56.606, 166.979 58.860, 166.277 59.300 C 164.286 60.546, 164.755 62.391, 167.805 65.313 C 171.170 68.537, 171.967 68.611, 174.811 65.961 C 176.015 64.840, 177 64.165, 177 64.461 C 177 64.757, 177.928 64.072, 179.063 62.937 C 180.941 61.059, 181.065 60.137, 180.439 52.687 C 179.527 41.835, 179.420 41.685, 174.240 44.004 M 65.500 57.042 C 60.550 61.431, 56.351 65.956, 56.169 67.098 C 55.868 68.987, 57.703 78.837, 60.095 88.173 C 61.020 91.786, 61.213 91.906, 71.770 95.423 C 77.673 97.390, 83.434 99, 84.572 99 C 85.758 99, 90.978 95.150, 96.820 89.966 L 107 80.933 107 85.610 C 107 89.707, 106.563 90.674, 103.479 93.394 C 100.058 96.411, 99.989 96.614, 101.067 100.500 C 101.677 102.700, 102.699 105.029, 103.338 105.676 C 103.977 106.323, 109.315 108.489, 115.200 110.488 C 127.766 114.757, 126.825 114.994, 138.250 104.699 C 144.342 99.209, 146 97.127, 146 94.968 C 146 90.849, 142.133 72.865, 140.937 71.425 C 139.945 70.229, 119.589 63, 117.215 63 C 116.594 63, 111.997 66.600, 107 71 C 102.003 75.400, 97.535 79, 97.071 79 C 96.607 79, 96.012 77.537, 95.749 75.750 C 95.345 73.009, 95.790 72.055, 98.592 69.660 C 101.426 67.236, 101.829 66.355, 101.335 63.660 C 100.226 57.606, 98.666 56.388, 87.163 52.598 C 81.158 50.619, 75.852 49.014, 75.372 49.031 C 74.892 49.048, 70.450 52.653, 65.500 57.042 M 179.079 65.583 C 179.127 66.748, 179.364 66.985, 179.683 66.188 C 179.972 65.466, 179.936 64.603, 179.604 64.271 C 179.272 63.939, 179.036 64.529, 179.079 65.583 M 65.708 67.007 C 65.318 68.499, 66.427 69.878, 70.312 72.729 C 73.994 75.432, 74.949 76.579, 73.715 76.816 C 72.772 76.998, 72.025 77.451, 72.055 77.823 C 72.176 79.306, 86.309 89.096, 87.608 88.597 C 89.993 87.682, 89.182 86.445, 83.548 82.408 C 77.682 78.203, 77.073 77.326, 79.673 76.823 C 80.834 76.599, 79.546 75.125, 75.458 72 C 65.544 64.423, 66.285 64.803, 65.708 67.007 M 108.669 79.421 C 108.286 80.419, 109.744 82.200, 113.003 84.713 C 118.350 88.835, 118.867 89.686, 116.328 90.177 C 115.209 90.393, 117.163 92.386, 122.241 96.208 C 128.474 100.899, 130.029 101.670, 130.971 100.535 C 131.889 99.429, 130.973 98.290, 126.386 94.827 C 122.405 91.821, 121.166 90.401, 122.327 90.177 C 123.247 89.999, 123.979 89.549, 123.954 89.177 C 123.911 88.537, 111.546 78.832, 109.980 78.208 C 109.577 78.047, 108.986 78.593, 108.669 79.421 M 75.050 102.447 C 73.044 104.582, 72.567 104.710, 71.304 103.447 C 68.071 100.214, 65.336 103.509, 66.668 109.030 C 67.314 111.706, 73.748 119.004, 75.453 118.994 C 79.862 118.971, 84.248 116.568, 86.557 112.909 C 88.804 109.349, 88.934 108.635, 87.775 106.216 C 86.602 103.770, 81.145 100.169, 78.424 100.048 C 77.833 100.022, 76.314 101.101, 75.050 102.447 M 70.250 121.745 C 65.462 124.128, 65.756 127.866, 71.019 131.513 C 74.991 134.266, 75.166 134.291, 86.269 133.695 C 93.090 133.329, 98.898 133.506, 101.059 134.147 C 104.085 135.044, 105.134 134.888, 108.059 133.105 L 111.500 131.007 105.500 131.026 C 102.146 131.036, 94.769 129.826, 88.772 128.282 C 79.170 125.811, 77.924 125.231, 76.901 122.761 C 75.597 119.614, 74.783 119.490, 70.250 121.745 M 97.962 167.371 C 97.694 167.639, 89.493 167.963, 79.738 168.092 L 62 168.325 62 199.663 L 62 231 127.383 231 C 191.363 231, 192.778 230.958, 193.277 229.050 C 193.557 227.978, 193.842 213.803, 193.911 197.550 L 194.035 168 171.518 168 L 149 168 149 188.055 L 149 208.110 144.250 207.805 L 139.500 207.500 139.229 187.750 L 138.958 168 120.729 167.986 C 110.703 167.979, 101.589 167.728, 100.475 167.428 C 99.361 167.129, 98.230 167.103, 97.962 167.371 M 117.275 182.063 C 105.043 184.620, 102.214 199.852, 112.695 206.719 C 114.436 207.861, 117.317 208.467, 121 208.467 C 129.386 208.467, 134.403 204.451, 135.655 196.738 C 136.338 192.532, 133.771 186.551, 130.310 184.283 C 127.164 182.222, 121.295 181.223, 117.275 182.063 M 75.667 182.667 C 75.300 183.033, 75 191.583, 75 201.667 L 75 220 79.500 220 L 84 220 84 213.500 C 84 209.925, 84.196 207, 84.435 207 C 84.674 207, 86.080 207.460, 87.558 208.022 C 93.786 210.390, 100.654 206.436, 102.810 199.241 C 105.975 188.675, 95.733 178.326, 86.827 183.093 C 85.350 183.883, 84.483 183.883, 83.693 183.093 C 82.500 181.900, 76.739 181.594, 75.667 182.667 M 152 183.571 C 152 184.496, 154.293 189.494, 157.096 194.678 L 162.193 204.104 158.596 210.948 C 156.618 214.713, 155 218.313, 155 218.948 C 155 219.712, 156.737 220.002, 160.116 219.802 L 165.233 219.500 174.572 201.505 C 179.708 191.608, 183.542 183.142, 183.091 182.691 C 182.641 182.241, 180.298 182.013, 177.886 182.186 C 173.672 182.488, 173.382 182.723, 170.478 188.190 L 167.455 193.881 164.478 188.190 C 161.550 182.596, 161.420 182.495, 156.750 182.195 C 152.846 181.945, 152 182.190, 152 183.571 M 86 192 C 83.592 194.408, 83.553 194.917, 85.557 197.777 C 87.520 200.580, 90.448 200.626, 92.368 197.885 C 93.994 195.563, 93.563 193.179, 91.169 191.250 C 89.069 189.558, 88.335 189.665, 86 192 M 118.024 191.976 C 116.559 193.441, 116.260 194.530, 116.870 196.179 C 118.658 201.011, 123.071 201.134, 125.223 196.411 C 126.291 194.066, 126.163 193.551, 124.103 191.883 C 121.183 189.518, 120.471 189.529, 118.024 191.976 M 89.337 212.564 C 88.925 213.637, 89.123 214.541, 89.820 214.773 C 91.248 215.249, 91.416 222, 90 222 C 89.450 222, 89 222.956, 89 224.124 C 89 226.086, 89.417 226.213, 94.485 225.793 C 101.099 225.244, 104 223.021, 104 218.500 C 104 214.152, 101.114 211.814, 95.027 211.229 C 90.857 210.828, 89.919 211.048, 89.337 212.564 M 108.500 212.195 C 105.702 213.781, 105.033 215.027, 105.015 218.677 C 104.998 222.297, 108.783 226, 112.500 226 C 116.217 226, 120.002 222.297, 119.985 218.677 C 119.965 214.646, 119.142 213.385, 115.665 212.063 C 112.189 210.741, 111.025 210.763, 108.500 212.195 M 123.250 213.661 C 120.115 216.794, 120.283 221.291, 123.635 223.927 C 127.236 226.760, 131.508 226.583, 134.619 223.472 C 137.846 220.245, 137.249 218.500, 132.917 218.500 C 130.276 218.500, 129.532 218.898, 129.639 220.250 C 129.801 222.290, 128.894 222.494, 127.200 220.800 C 125.505 219.105, 125.710 216.048, 127.567 215.336 C 128.430 215.005, 130.187 215.297, 131.472 215.985 C 134.268 217.482, 136.162 216.600, 135.269 214.218 C 134.707 212.717, 134.838 212.673, 136.313 213.872 C 138.220 215.424, 138.583 221.017, 136.887 222.713 C 134.814 224.786, 137.094 226, 143.059 226 C 148.993 226, 149 225.997, 149 223 C 149 220.032, 146.855 218.807, 145.500 221 C 145.160 221.550, 144.459 222, 143.941 222 C 143.423 222, 143 221.550, 143 221 C 143 220.450, 143.675 220, 144.500 220 C 145.325 220, 146 219.325, 146 218.500 C 146 217.675, 145.325 217, 144.500 217 C 143.675 217, 143 216.550, 143 216 C 143 215.450, 143.423 215, 143.941 215 C 144.459 215, 145.160 215.450, 145.500 216 C 146.846 218.177, 149 216.971, 149 214.040 L 149 211.079 137.250 211.246 C 126.521 211.398, 125.304 211.608, 123.250 213.661 M 95 218.500 C 95 221.435, 95.342 222.081, 96.750 221.810 C 97.949 221.579, 98.500 220.536, 98.500 218.500 C 98.500 216.464, 97.949 215.421, 96.750 215.190 C 95.342 214.919, 95 215.565, 95 218.500 M 110.412 216.368 C 109.406 218.989, 110.434 221.500, 112.514 221.500 C 114.052 221.500, 114.500 220.826, 114.500 218.514 C 114.500 215.242, 111.457 213.645, 110.412 216.368" stroke="none" fill="#000000" fill-rule="evenodd"/><path fill-opacity=".978" d="M 172.200 54.200 C 170.531 55.869, 170.700 58, 172.500 58 C 173.325 58, 174.007 58.788, 174.015 59.750 C 174.024 60.712, 174.473 62.175, 175.014 63 C 175.704 64.053, 175.801 63.457, 175.340 61 C 174.979 59.075, 174.352 57.366, 173.948 57.202 C 173.543 57.038, 173.442 56.026, 173.723 54.952 C 174.310 52.705, 173.898 52.502, 172.200 54.200 M 167.500 60 C 166.498 61.107, 165.976 62.310, 166.339 62.673 C 166.703 63.036, 167 62.782, 167 62.108 C 167 61.434, 167.403 61.131, 167.895 61.435 C 168.388 61.740, 169.073 61.252, 169.419 60.351 C 170.362 57.892, 169.543 57.742, 167.500 60 M 71.138 62.357 L 67.884 65.714 74.958 71.107 C 80.716 75.497, 81.759 76.700, 80.566 77.574 C 79.362 78.456, 79.959 79.289, 83.910 82.238 L 88.719 85.829 92.496 82.565 L 96.273 79.301 94.387 71.544 L 92.500 63.788 86.580 61.394 C 78.303 58.047, 75.124 58.245, 71.138 62.357 M 170.638 60.500 C 170.291 61.405, 170.633 62, 171.500 62 C 172.367 62, 172.709 61.405, 172.362 60.500 C 172.045 59.675, 171.657 59, 171.500 59 C 171.343 59, 170.955 59.675, 170.638 60.500 M 169.500 66 C 169.840 66.550, 170.316 67, 170.559 67 C 170.802 67, 171 66.550, 171 66 C 171 65.450, 170.523 65, 169.941 65 C 169.359 65, 169.160 65.450, 169.500 66 M 65.096 72.250 C 65.149 73.487, 65.713 76.744, 66.350 79.487 C 67.423 84.107, 67.876 84.650, 72.504 86.857 C 77.819 89.391, 85.017 90.849, 84.975 89.382 C 84.961 88.897, 82.036 86.304, 78.475 83.621 C 72.150 78.855, 70.725 77.038, 73.250 76.962 C 74.532 76.924, 67.103 70.042, 65.750 70.015 C 65.338 70.007, 65.043 71.013, 65.096 72.250 M 113.704 75.787 L 111.034 78.573 117.009 82.924 C 124.367 88.282, 125.942 90, 123.500 90 C 121.197 90, 122.683 91.815, 128.007 95.505 C 131.801 98.134, 132.076 98.180, 134.484 96.602 C 137.327 94.740, 137.637 92.067, 135.931 84.115 C 134.687 78.315, 133.624 77.243, 126.700 74.804 C 119.585 72.299, 116.848 72.505, 113.704 75.787 M 108 87.313 C 108 97.703, 108.417 98.447, 115.934 101.473 C 122.640 104.173, 127.011 104.509, 127.712 102.379 C 127.915 101.763, 124.942 98.866, 121.107 95.941 C 115.352 91.551, 114.395 90.431, 115.632 89.527 C 116.879 88.615, 116.366 87.884, 112.565 85.154 L 108 81.876 108 87.313 M 67.628 103.528 C 66.158 107.358, 67.102 110.222, 71.250 114.517 L 75.500 118.917 79.500 117.498 C 85.718 115.291, 89.721 109.046, 87.235 105.432 C 86.756 104.736, 84.062 104.595, 79.500 105.027 C 73.456 105.599, 72.210 105.430, 70.378 103.790 C 68.462 102.076, 68.195 102.051, 67.628 103.528 M 70.288 109.911 C 69.312 111.473, 69.386 111.934, 70.690 112.435 C 71.568 112.771, 72.522 112.811, 72.810 112.524 C 73.098 112.236, 72.778 112, 72.099 112 C 71.320 112, 71.099 111.262, 71.500 110 C 72.300 107.479, 71.828 107.445, 70.288 109.911 M 70.250 122.491 C 66.011 124.333, 66.050 127.038, 70.363 130.328 C 74.333 133.356, 81.281 134.198, 90.678 132.791 C 94.702 132.189, 98.150 132.223, 100.568 132.891 C 103.492 133.698, 104.836 133.593, 106.891 132.395 C 108.487 131.464, 108.723 131.120, 107.500 131.510 C 106.400 131.861, 105.275 132.200, 105 132.263 C 104.725 132.326, 101.125 131.745, 97 130.972 C 92.875 130.198, 89.050 129.550, 88.500 129.533 C 87.950 129.515, 87.223 129.121, 86.884 128.658 C 86.546 128.195, 84.454 127.745, 82.237 127.658 C 80.020 127.571, 78.411 127.162, 78.662 126.750 C 78.913 126.338, 78.714 126, 78.220 126 C 77.725 126, 76.808 124.875, 76.182 123.500 C 74.873 120.627, 74.633 120.586, 70.250 122.491 M 69.500 124 C 69.160 124.550, 69.584 125, 70.441 125 C 71.298 125, 72 124.550, 72 124 C 72 123.450, 71.577 123, 71.059 123 C 70.541 123, 69.840 123.450, 69.500 124 M 82.813 131.683 C 83.534 131.972, 84.397 131.936, 84.729 131.604 C 85.061 131.272, 84.471 131.036, 83.417 131.079 C 82.252 131.127, 82.015 131.364, 82.813 131.683" stroke="none" fill="#000000" fill-rule="evenodd"/></svg>