<!-- Generated by IcoMoon.io -->
<svg version="1.1" xmlns="http://www.w3.org/2000/svg" width="32" height="32" viewBox="0 0 32 32" fill="#000000">
<title>ppc</title>
<path d="M23.203 31.549c0 0 1.466-4.878 0.818-9.262s-4.567-9.699-7.528-12.095c-2.961-2.396-8.642-5.117-8.642-5.117s4.934 3.778 6.64 5.582c1.706 1.804 4.060 4.793 5.174 8.726 1.114 3.919 0.916 10.742-1.339 12.166-2.255 1.438-8.218-1.043-10.206-2.706s-4.525-4.384-5.258-10.009c-0.733-5.639-0.522-18.833-0.522-18.833s10.587 0.056 18.58 5.103c8.007 5.047 8.74 9.050 8.74 15.506 0 6.47-6.456 10.939-6.456 10.939z"/>
</svg>
