<svg width="500" height="500" viewBox="0 0 500 500" fill="#000000" xmlns="http://www.w3.org/2000/svg">
<path fill-rule="evenodd" clip-rule="evenodd" d="M45.3544 1.85436C24.81 6.29114 8.13034 22.0851 2.01904 42.8923C-0.567201 51.6971 -0.720658 447.246 1.85881 456.936C7.46008 477.981 25.4013 494.868 46.3541 498.817C54.7256 500.394 444.456 500.394 452.828 498.817C473.908 494.844 492.971 476.64 497.745 455.924C499.911 446.518 499.354 50.3521 497.163 42.8923C490.946 21.7319 474.397 6.23698 453.263 1.79117C441.719 -0.637101 56.6145 -0.577297 45.3544 1.85436ZM245.218 61.8006C333.373 86.8359 369.045 198.199 313.774 275.818C286.877 313.589 257.414 325.002 186.684 325.046L158.192 325.064V383.739V442.415H108.544H58.8949V250.558V58.7009L147.755 59.0293C234.969 59.3509 236.774 59.4016 245.218 61.8006ZM158.734 151.511C158.419 152.329 158.296 171.021 158.46 193.049L158.756 233.101L184.709 233.451C201.612 233.679 212.797 233.34 216.784 232.479C245.028 226.382 248.002 167.888 220.817 153.172C215.187 150.124 159.834 148.643 158.734 151.511ZM441.415 406.871V442.415H323.5H205.584V406.871V371.327H323.5H441.415V406.871Z" fill="#000000"/>
</svg>
