<svg xmlns="http://www.w3.org/2000/svg" width="200" height="200" fill="#000000"><path fill-opacity=".208" fill-rule="evenodd" d="M116 58.301C99.482 63.015 86.43 76.98 82.972 93.637c-.811 3.907-.796 5.823.06 7.422 1.407 2.629 2.24 1.948 6.535-5.349 4.508-7.658 8.428-9.978 16.063-9.508 4.827.297 6.917.978 9.835 3.204 4.443 3.388 7.315 7.84 8.127 12.594 1.872 10.966 5.473 16.747 12.175 19.547 4.479 1.871 13.012 1.861 17.517-.021 4.465-1.866 9.445-7.844 10.85-13.026.596-2.2.896-7.62.665-12.045-.331-6.366-1.079-9.457-3.581-14.802-3.925-8.389-12.492-17.196-20.545-21.122-6.839-3.334-17.445-4.293-24.673-2.23M46.446 78.483c-7.826 3.929-11.469 10.789-11.422 21.51.112 25.148 22.473 46.088 44.877 42.025 18.26-3.311 32.095-16.13 36.666-33.973 1.671-6.524 1.304-11.045-.899-11.045-.711 0-2.84 2.758-4.731 6.128-5.937 10.584-13.55 13.415-23.5 8.738-5.36-2.52-8.824-6.746-10.34-12.616-.603-2.338-1.598-6.162-2.21-8.5-1.62-6.186-4.521-9.671-10.288-12.356-6.578-3.063-11.925-3.037-18.153.089M96.5 91.158c-6.935 4.151-5.645 14.513 2.047 16.443 3.04.763 8.182-1.227 9.491-3.672 1.556-2.907 1.044-8.25-1.027-10.735-2.25-2.699-7.655-3.746-10.511-2.036"/><path fill-opacity=".124" fill-rule="evenodd" d="M129.882 57.856c-.066.354-.047 1.037.04 1.517.088.48-.588.585-1.502.235-1.291-.496-1.544-.189-1.134 1.377.569 2.178-.794 2.82-1.624.765-.277-.687-.54-.317-.583.823-.046 1.203-2.602 4.35-6.091 7.5-3.307 2.985-7.919 7.263-10.25 9.506s-5.02 4.509-5.976 5.033c-1.334.733-.668 1.001 2.869 1.155 6.609.287 12.759 4.42 15.893 10.679 1.362 2.721 2.476 5.927 2.476 7.125 0 3.466 2.868 10.659 5.284 13.248 3.774 4.046 9.121 6.182 15.426 6.165 7.238-.021 12.514-2.803 16.748-8.831 2.928-4.168 3.042-4.728 3.042-14.991 0-9.927-.221-11.129-3.209-17.436-3.567-7.532-11.136-15.8-18.291-19.982-4.482-2.62-12.893-5.112-13.118-3.888M121 59.378c0 .207.787.995 1.75 1.75 1.586 1.243 1.621 1.208.378-.378-1.307-1.666-2.128-2.195-2.128-1.372M49.843 76.919c-9.897 3.197-14.872 10.945-14.819 23.074.045 9.986 3.652 20.243 9.635 27.397 3.775 4.514 13.358 11.456 16.841 12.2 1.65.353 3.522 1.061 4.161 1.574 1.632 1.312 2.609-.636 2.974-5.933.266-3.871.113-4.267-1.222-3.159-1.246 1.035-1.47 1.012-1.219-.126.956-4.344 19.658-16.818 25.494-17.004.997-.031-.453-1.088-3.221-2.347-2.768-1.26-6.243-3.729-7.723-5.488-2.587-3.074-3.186-4.708-5.682-15.502-1.459-6.312-4.247-10.149-9.215-12.683-4.55-2.321-12.096-3.266-16.004-2.003m46.216 18.022c-3.192 3.192-2.253 7.814 2.055 10.12 2.96 1.584 7.725-.571 8.552-3.868 1.584-6.31-6.05-10.809-10.607-6.252m17.765 3.809c-.817.963-2.757 4-4.312 6.75-2.482 4.391-2.561 4.766-.647 3.075 2.638-2.331 8.453-11.575 7.281-11.575-.46 0-1.505.787-2.322 1.75m-44.281 37.181c-.317.512-.118 1.213.441 1.559s1.016-.074 1.016-.931c0-1.757-.6-2.015-1.457-.628"/><path fill-opacity=".395" fill-rule="evenodd" d="M135.639 59.694c-.351.352-.639 1.294-.639 2.095 0 1.189.279 1.225 1.519.195 1.235-1.025 1.841-.968 3.25.307.952.861 2.106 1.561 2.564 1.554s1.082.237 1.386.54-.4.369-1.563.145-2.38.023-2.704.548-.953.73-1.397.456-.686.932-.537 2.68c.291 3.415-.893 5.737-6.518 12.786-1.975 2.475-4.314 5.654-5.197 7.065-1.827 2.917-4.043 10.201-2.886 9.486.419-.259.823 1.158.898 3.149.523 13.9 8.506 22.3 21.193 22.3 9.01 0 16.102-5.379 18.999-14.412 2.121-6.613.784-19.3-2.852-27.071-3.707-7.921-11.883-16.464-18.772-19.615-2.686-1.228-5.158-2.372-5.494-2.54s-.898-.02-1.25.332M137.5 63c-.34.55.11 1 1 1s1.34-.45 1-1-.79-1-1-1-.66.45-1 1m1.423 3.191c-.712 2.879-.556 3.605.676 3.133 1.638-.629 1.825-1.944.401-2.824-.55-.34-1.034-.479-1.077-.309m-89.08 10.728c-8.821 2.85-13.654 9.442-14.524 19.811-.649 7.751.632 15.06 3.835 21.875C41.556 123.714 51.448 135 53.524 135c.72 0 1.498.563 1.73 1.25.317.944 1.256.819 3.833-.51 2.159-1.113 2.54-1.533 1.038-1.143-1.63.424-2.156.262-1.676-.515.402-.649.145-1.014-.601-.857-1.946.411-2.332-4.375-.438-5.434.874-.49 1.59-1.931 1.59-3.203 0-1.574 2.261-4.434 7.075-8.951 3.891-3.65 7.35-6.637 7.686-6.637.335 0 1.589-.919 2.785-2.043 2.023-1.901 2.085-2.337.881-6.25-.712-2.314-1.779-6.369-2.371-9.012q-2.04-9.094-9.374-12.85c-4.399-2.253-11.976-3.174-15.839-1.926M96 95c-1.1 1.1-2 2.92-2 4.045 0 2.332 4.201 6.955 6.32 6.955 2.561 0 6.68-4.052 6.68-6.573 0-3.145-3.319-6.427-6.5-6.427-1.375 0-3.4.9-4.5 2"/><path fill-opacity=".299" fill-rule="evenodd" d="M146 64.364c0 .275 1.35 1.461 3 2.636s3 1.911 3 1.636-1.35-1.461-3-2.636-3-1.911-3-1.636M146 68c0 .55.477 1 1.059 1s.781-.45.441-1-.816-1-1.059-1-.441.45-.441 1m4.459 4.067c-.363.586-.389 1.336-.059 1.666s.6.103.6-.504c0-.608.869-1.039 1.931-.959s1.706.509 1.431.954-.888.569-1.362.276-1.156-.057-1.515.524-1.628.793-2.819.469c-2.098-.57-2.103-.551-.166.607 2.821 1.685 2.786 1.629 1.878 3.083-1.294 2.073-1.316 3.883-.04 3.246.639-.32.177.29-1.027 1.356-1.351 1.195-1.833 2.293-1.258 2.868.994.994-.846 7.336-2.468 8.508-1.307.945-2.345 21.836-1.085 21.855.55.008.389.401-.357.874-.946.6-1.021 1.067-.25 1.544.609.376 1.107 1.524 1.107 2.55 0 1.509.636 1.807 3.326 1.557 11.282-1.049 17.576-11.429 16.396-27.037-1.021-13.502-10.637-29.304-14.263-23.437m-102.2 5.535c-5.316 1.954-10.696 8.106-12.155 13.899-3.059 12.148.698 26.966 9.037 35.645 3.83 3.987 3.859 3.997 3.859 1.368 0-2.194-.344-2.54-2-2.014-1.147.364-2 .18-2-.433 0-.587.405-.955.9-.817.495.137.869.025.831-.25s.531-1.625 1.264-3c1.232-2.312 1.204-2.394-.377-1.09-1.561 1.289-1.556 1.143.068-1.685.977-1.703 1.97-2.903 2.206-2.666.236.236.956-.581 1.6-1.815s1.681-2.137 2.304-2.006.919-.319.658-1 .655-2.456 2.036-3.944c1.38-1.489 2.51-3.371 2.51-4.183s.9-1.762 2-2.111 2-1.054 2-1.567.659-.933 1.465-.933c1.368 0 10.654-2.87 11.351-3.509.772-.707-2.178-9.063-4.144-11.737-4.603-6.26-15.398-9.096-23.413-6.152M150.5 79c-.34.55-.141 1 .441 1S152 79.55 152 79s-.198-1-.441-1-.719.45-1.059 1M96.039 95.189c-2.5 2.683-2.586 4.957-.289 7.613 2.925 3.383 5.883 3.656 8.733.806 3.035-3.035 3.208-5.917.517-8.608-2.621-2.621-6.418-2.541-8.961.189m-46.396 28.3c-.859 2.237.16 3.448 1.321 1.57.639-1.035.941-.775 1.196 1.029.211 1.485.628 1.972 1.086 1.266.409-.63-.08-2.162-1.085-3.404-1.689-2.085-1.882-2.12-2.518-.461"/></svg>