<svg xmlns="http://www.w3.org/2000/svg" width="200" height="200" fill="#000000"><path fill-opacity=".29" fill-rule="evenodd" d="M53 45c-1.784 1.784-2 3.333-2 14.326C51 77.066 49.153 76 79.88 76c25.17 0 26.794.235 30.458 4.407C112.684 83.077 115 88.589 115 91.5c0 3.729-2.62 8.83-6.15 11.976-3.265 2.91-3.585 2.975-17.048 3.498-12.185.474-13.89.757-15.23 2.53-1.183 1.565-1.515 5.188-1.54 16.781-.031 14.271-.099 14.75-1.954 13.757-1.057-.566-2.52-1.611-3.25-2.322s-3.015-2.567-5.078-4.125L61 130.763V96h39.662l1.314-2.455c1.121-2.095 1.069-2.827-.354-5L99.954 86H77.477c-21.144 0-22.596.119-24.477 2-1.876 1.876-2 3.333-2 23.453 0 12.847.421 22.374 1.049 23.75.577 1.263 2.345 3.197 3.929 4.297 4.412 3.065 18.281 13.721 20.461 15.721 2.34 2.147 5.195 2.288 7.132.35C84.706 154.437 85 150.35 85 135.697v-18.445l11.25-.444c12.256-.483 13.582-.95 20.442-7.205 7.028-6.407 9.989-17.193 7.042-25.648-2.504-7.184-7.113-12.577-13.56-15.866C106.38 66.153 104.426 66 83.54 66H61V52.818l24.25.386c17.275.274 25.113.768 27.25 1.715 6.924 3.07 8.067 3.652 9.968 5.081 12.036 9.046 18.254 23.973 15.516 37.25-1.399 6.787-4.068 12.85-7.076 16.079-1.049 1.127-1.908 2.391-1.908 2.809 0 1.263-12.248 9.369-16 10.59-1.925.627-6.2 1.449-9.5 1.829-7.12.819-8.5 1.726-8.5 5.59 0 2.21.624 3.14 2.615 3.897 3.984 1.514 15.635-.222 22.385-3.337 5.504-2.539 14.062-8.927 16.698-12.463 1.535-2.059 3.116-3.986 3.513-4.283 1.743-1.298 6.631-14.058 7.792-20.336 3.378-18.277-8.116-40.655-25.055-48.778-10.465-5.019-16.068-5.772-43.198-5.811-23.442-.034-24.856.07-26.75 1.964"/><path fill-opacity=".387" fill-rule="evenodd" d="M65.058 43.748c-5.743.179-11.031.815-11.75 1.412-2.063 1.711-1.835 26.171.263 28.269 1.334 1.333 4.926 1.572 23.75 1.577 12.199.003 23.831.464 25.85 1.025 10.19 2.83 14.756 14.298 9.36 23.506-3.923 6.694-8.818 8.463-23.413 8.463-9.932 0-12.005.262-12.511 1.582-.334.87-.607 8.52-.607 17s-.338 15.417-.75 15.416c-.412-.002-2.325-1.361-4.25-3.02s-4.959-4.021-6.743-5.248l-3.243-2.23-.007-17.75L61 96h19.3c20.365 0 21.7-.285 21.7-4.629 0-5.06-1.443-5.371-24.916-5.371-19.824 0-21.922.164-23.429 1.829C52.216 89.419 52 92.665 52 112.745v23.087l4.247 3.334c2.335 1.834 4.923 3.878 5.75 4.542s3.303 2.571 5.503 4.238 4.45 3.393 5 3.837c6.363 5.132 7.44 5.587 9.985 4.225L85 154.662v-37.405l10.75-.47c8.674-.379 11.523-.9 14.75-2.7 19.165-10.686 18.567-36.784-1.054-46.007-4.062-1.91-6.229-2.08-26.435-2.08H61V52.823l25.25.381 25.25.381 6.27 3.333c14.828 7.881 23.5 25.029 20.356 40.25-1.839 8.906-4.831 14.611-10.819 20.629-6.102 6.132-13.765 9.897-22.069 10.841C97.119 129.56 95 130.52 95 133.275c0 3.643 1.919 4.725 8.383 4.725 10.179 0 21.366-4.786 29.755-12.728 11.842-11.212 17.013-26.327 14.318-41.849-2.765-15.923-11.459-27.799-25.317-34.583-11.396-5.58-19.197-6.275-57.081-5.092"/><path fill-opacity=".18" fill-rule="evenodd" d="M53.64 45.503C52.473 46.67 52 48.93 52 53.345v6.202l7.772 7.726L67.544 75h16.103c19.331 0 21.413.354 25.732 4.378 4.454 4.15 5.621 6.621 5.621 11.903 0 7.29-2.933 11.682-10.272 15.383l-3.771 1.902 3.407 3.302 3.407 3.302 3.352-1.734c6.941-3.589 11.32-10.023 12.645-18.576 1.409-9.104-1.929-17.712-9.082-23.419-6.075-4.848-9.436-5.41-32.436-5.426L61 66V52l10.25.033c5.638.018 17.093.431 25.456.918 14.459.841 15.509 1.046 21.375 4.173 9.792 5.219 16.135 13.141 19.837 24.775 1.411 4.432 1.382 13.516-.056 18.03-3.321 10.427-8.443 17.81-15.653 22.562l-4.291 2.829 3.187 3.288 3.186 3.288 4.182-2.877c5.274-3.629 11.741-11.027 14.329-16.39 4.15-8.603 4.698-11.124 4.698-21.629 0-6.435-.524-11.855-1.353-14-3.428-8.867-6.101-12.996-12.625-19.5-5.711-5.693-8.422-7.56-14.522-10l-7.5-3-28.11-.319c-24.991-.283-28.292-.136-29.75 1.322M83.5 91c4.66 4.732 5.205 5 10.141 5q8.36.001 8.359-5.015C102 87.351 98.223 86 88.065 86h-9.49z"/><path fill-opacity=".681" fill-rule="evenodd" d="m73.5 47.889 4 4.013 11.701.049c16.752.07 24.405 1.802 32.799 7.422 5.779 3.869 9.103 7.664 12.284 14.023 5.374 10.745 6.125 18.98 2.687 29.455l-2.029 6.181 2.483 2.484c1.366 1.366 2.941 2.484 3.5 2.484s2.23-2.587 3.713-5.75c2.393-5.102 2.706-6.989 2.78-16.75.052-7.044-.405-12.259-1.271-14.5-3.445-8.912-6.098-13-12.655-19.5-5.7-5.65-8.502-7.578-14.527-9.999-7.346-2.952-7.8-3.005-28.465-3.312l-21-.313zM93 66.533c0 1.468 7.406 7.648 11.434 9.541 5.11 2.402 9.226 6.722 10.235 10.744.586 2.334 7.559 10.182 9.047 10.182 1.228 0-.535-13.754-2.179-17.008C117.269 71.549 108.122 66 98.47 66c-3.008 0-5.47.24-5.47.533"/></svg>