<svg xmlns="http://www.w3.org/2000/svg" width="250" height="250" version="1.1" fill="#000000"><path fill-opacity=".094" d="M 104.974 4.474 C 68.205 10.672, 35.820 33.772, 17.521 66.854 C 2.016 94.885, -1.284 130.665, 8.701 162.500 C 12.021 173.086, 19.635 187.797, 26.858 197.581 C 61.531 244.544, 124.748 260.248, 177.500 235.002 C 190.330 228.861, 200.760 221.437, 211.044 211.125 C 229.705 192.411, 240.589 171.303, 245.059 145.153 C 248.420 125.497, 247.054 106.581, 240.882 87.267 C 230.953 56.200, 208.413 30.292, 178.021 15.011 C 157.779 4.833, 128.175 0.563, 104.974 4.474 M 105.834 8.495 C 58.688 16.430, 21.588 51.066, 9.961 98 C 6.997 109.966, 6.242 131.487, 8.364 143.500 C 13.766 174.077, 29.796 200.960, 53 218.358 C 62.172 225.235, 64.682 226.790, 73.258 230.908 C 108.592 247.874, 148.202 246.767, 182.248 227.862 C 193.301 221.725, 197.181 218.812, 207.322 209.039 C 225.280 191.730, 237.728 167.397, 241.531 142.167 C 247.935 99.686, 229.833 56.074, 195.079 30.247 C 174.870 15.230, 149.190 6.859, 124.074 7.103 C 118.258 7.159, 110.050 7.786, 105.834 8.495 M 105.235 14.497 C 90.260 17.212, 73.766 23.814, 61.888 31.850 C 37.120 48.604, 19.585 75.956, 14.073 106.434 C 12.518 115.032, 12.750 136.515, 14.496 145.641 C 22.583 187.912, 52.997 221.107, 94.574 233.044 C 108.740 237.111, 128.343 238.163, 143.054 235.647 C 223.840 221.826, 263.289 130.856, 218.140 62.500 C 205.701 43.668, 185.418 27.715, 163.351 19.408 C 147.570 13.467, 122.570 11.355, 105.235 14.497 M 116.706 33.194 C 115.342 35.012, 109.828 43.475, 104.454 52 C 99.079 60.525, 93.243 69.750, 91.483 72.500 C 89.724 75.250, 83.887 84.475, 78.513 93 C 73.139 101.525, 67.225 110.862, 65.371 113.750 C 63.517 116.638, 60.504 121.362, 58.677 124.250 C 53.499 132.430, 46.112 143.923, 41.867 150.406 C 37.920 156.435, 37.201 159.639, 39.030 163.055 C 40.299 165.427, 45.958 168.476, 46.973 167.335 C 47.381 166.876, 49.628 162.900, 51.965 158.500 C 64.253 135.370, 82.540 115.268, 96.664 109.367 C 106.728 105.162, 120.645 106.091, 134.982 111.926 C 142.777 115.098, 145.931 117.591, 150.898 124.508 C 154.338 129.297, 154.495 129.054, 147 130.549 C 142 131.546, 134.383 135.590, 132.518 138.239 C 131.643 139.483, 129.822 142.075, 128.471 144 C 121.526 153.900, 121.130 161.832, 127.310 167.250 C 128.408 168.213, 129.705 169, 130.193 169 C 130.680 169, 136.799 174.738, 143.790 181.750 C 151.357 189.341, 158.913 195.916, 162.464 198 C 168.369 201.466, 168.541 201.499, 179.964 201.447 C 189.609 201.403, 192.483 201.010, 197.500 199.050 C 215.256 192.112, 219.007 183.703, 210.103 170.799 C 206.965 166.252, 206.186 164.320, 206.618 162.158 C 207.270 158.899, 206.743 157.890, 194.007 138 C 175.454 109.028, 176.169 110, 173.413 110 C 169.385 110, 167.580 111.470, 163.028 118.458 C 160.683 122.056, 158.421 125, 158.001 125 C 157.581 125, 156.003 123.313, 154.494 121.250 C 150.374 115.619, 145.001 110.924, 140.250 108.803 C 137.912 107.760, 136 106.721, 136 106.495 C 136 106.269, 139.454 100.778, 143.675 94.292 C 150.119 84.391, 151.415 81.698, 151.756 77.500 C 152.175 72.344, 151.026 69.939, 140.046 53 C 138.798 51.075, 135.008 45.225, 131.623 40 C 126.221 31.661, 125.085 30.463, 122.328 30.194 C 119.761 29.943, 118.735 30.491, 116.706 33.194 M 83.629 127.750 C 83.329 129.813, 82.815 134.200, 82.487 137.500 L 81.891 143.500 87.641 148 C 90.803 150.475, 94.765 153.449, 96.445 154.609 L 99.500 156.717 107.500 150.777 C 120.347 141.237, 120 141.715, 120 133.525 L 120 126.398 105.250 125.192 C 83.369 123.402, 84.279 123.295, 83.629 127.750 M 85.595 129.250 C 85.323 131.037, 84.840 134.840, 84.522 137.701 L 83.944 142.901 91.565 148.044 L 99.185 153.186 103.093 150.093 C 105.242 148.392, 108.912 145.537, 111.250 143.750 C 113.588 141.963, 115.831 140.050, 116.235 139.500 C 117.526 137.743, 117.122 129.001, 115.750 128.989 C 115.063 128.983, 108.200 128.309, 100.500 127.491 C 92.800 126.673, 86.408 126.003, 86.295 126.002 C 86.183 126.001, 85.868 127.463, 85.595 129.250 M 150.500 132.401 C 140.718 134.810, 135.781 138.222, 133.148 144.392 L 131.914 147.284 136.379 146.672 C 139.991 146.177, 141.786 145.119, 145.760 141.145 C 148.836 138.069, 151.951 135.956, 154.087 135.498 C 158.732 134.500, 159.289 134.053, 157.926 132.411 C 156.583 130.793, 157.031 130.793, 150.500 132.401 M 99 136.773 L 95.500 138.500 100.720 138.801 C 106.480 139.134, 111.288 137.430, 108.885 135.908 C 106.727 134.541, 102.831 134.882, 99 136.773 M 154.500 138.490 C 152.300 139.262, 148.925 141.644, 147 143.783 C 142.927 148.311, 140.112 150, 136.642 150 C 135.274 150, 132.745 151.185, 131.024 152.633 C 128.418 154.826, 127.946 155.868, 128.198 158.870 C 128.438 161.740, 129.186 162.884, 131.869 164.487 C 133.722 165.594, 138.447 169.828, 142.369 173.895 C 153.980 185.935, 157.768 189.292, 164.302 193.336 L 170.500 197.171 181 196.740 C 189.505 196.391, 192.735 195.794, 198 193.598 C 205.322 190.545, 210 186.197, 210 182.444 C 210 175.585, 201.950 166.781, 192.166 162.939 C 189.050 161.715, 181.715 157.779, 175.866 154.193 C 165.825 148.035, 165.108 147.374, 163.020 142.336 C 160.613 136.527, 160.388 136.426, 154.500 138.490 M 202.020 180.476 C 201.231 181.426, 201.155 182, 201.819 182 C 203.027 182, 204.436 180.103, 203.743 179.409 C 203.491 179.158, 202.716 179.638, 202.020 180.476 M 181 188.094 C 181 188.592, 181.900 189, 183 189 C 184.100 189, 185 188.827, 185 188.617 C 185 188.406, 184.100 187.998, 183 187.710 C 181.900 187.423, 181 187.595, 181 188.094" stroke="none" fill="#000000" fill-rule="evenodd"/><path fill-opacity=".355" d="M 111.768 4.010 C 106.966 4.462, 98.077 6.215, 92.017 7.907 C 47.415 20.358, 13.899 57.318, 4.879 104 C 2.837 114.564, 3.373 139.825, 5.857 150.158 C 17.881 200.168, 53.861 235.232, 102.790 244.622 C 114.330 246.837, 136.627 246.787, 147.500 244.523 C 195.016 234.628, 230.148 201.655, 242.806 155.074 C 245.213 146.219, 245.408 143.961, 245.408 125 C 245.408 105.993, 245.217 103.796, 242.782 94.830 C 236.634 72.192, 227.248 55.909, 210.714 39.198 C 197.892 26.239, 180.215 15.126, 163.500 9.519 C 149.205 4.723, 128.099 2.475, 111.768 4.010 M 101.283 9.078 C 53.614 19.091, 17.632 55.724, 8.397 103.646 C 5.936 116.417, 6.137 135.694, 8.867 148.673 C 18.274 193.404, 51.332 227.949, 96 239.728 C 107.596 242.786, 129.318 243.891, 142.188 242.077 C 189.093 235.467, 227.867 200.011, 240.149 152.500 C 242.174 144.664, 242.476 141.107, 242.481 125 C 242.486 108.875, 242.189 105.350, 240.166 97.544 C 228.065 50.844, 191.805 16.712, 145.500 8.433 C 133.962 6.370, 112.698 6.680, 101.283 9.078 M 109.500 14.039 C 84.136 17.994, 60.153 30.300, 43.859 47.720 C 12.880 80.838, 4.404 129.562, 22.576 170.054 C 33.143 193.601, 49.937 211.665, 72.268 223.503 C 90.238 233.030, 103.739 236.355, 124.500 236.364 C 141.306 236.372, 151.346 234.591, 165.701 229.055 C 192.764 218.618, 216.260 195.792, 227.589 168.930 C 245.633 126.147, 236.089 77.438, 203.391 45.435 C 182.813 25.293, 156.951 14.253, 128.500 13.464 C 121.350 13.266, 112.800 13.525, 109.500 14.039 M 119.225 29.671 C 117.745 30.266, 116.927 31.511, 85.822 80.500 C 43.523 147.120, 38.301 155.474, 37.616 157.635 C 36.637 160.718, 38.798 164.683, 42.715 166.994 C 44.585 168.097, 46.273 169, 46.468 169 C 46.663 169, 49.165 164.613, 52.029 159.250 C 60.241 143.875, 68.407 132.757, 78.507 123.198 C 94.629 107.940, 106.040 104.354, 124.060 108.882 C 137.098 112.158, 143.817 115.890, 149.230 122.861 L 153.823 128.775 148.161 129.912 C 140.465 131.458, 132.879 135.741, 130.929 139.642 C 130.065 141.371, 128.165 144.204, 126.706 145.938 C 123.416 149.847, 121.705 155.909, 122.577 160.559 C 123.050 163.078, 124.416 165.005, 127.349 167.294 C 129.610 169.057, 135.756 174.799, 141.009 180.052 C 151.682 190.729, 159.369 197.096, 165.431 200.283 C 170.326 202.857, 183.212 203.237, 192 201.066 C 204.264 198.036, 214.100 191.250, 215.360 184.950 C 216.136 181.072, 212.898 172.366, 209.096 168.108 C 206.743 165.472, 206.288 164.189, 206.641 161.186 C 207.034 157.842, 205.742 155.418, 192.699 135.042 C 184.793 122.690, 177.206 111.749, 175.839 110.729 C 171.650 107.602, 168.449 109.243, 163.344 117.135 C 160.901 120.911, 158.587 124, 158.202 123.999 C 157.816 123.999, 154.926 121.121, 151.781 117.604 C 148.527 113.964, 144.110 110.263, 141.531 109.015 C 139.039 107.809, 137 106.516, 137 106.143 C 137 105.770, 138.161 103.756, 139.580 101.667 C 140.999 99.579, 144.374 94.225, 147.080 89.770 C 151.298 82.825, 152 80.931, 152 76.487 C 152 71.917, 151.337 70.255, 146.385 62.403 C 143.297 57.506, 137.578 48.391, 133.677 42.146 C 126.201 30.179, 123.582 27.918, 119.225 29.671 M 83.713 123.671 C 83.436 124.127, 82.887 128.846, 82.493 134.159 L 81.776 143.818 90.111 150.409 C 94.696 154.034, 98.909 156.993, 99.473 156.984 C 100.038 156.975, 104.775 153.622, 110 149.533 L 119.500 142.097 120 134.451 C 120.275 130.246, 120.202 126.622, 119.838 126.398 C 119.474 126.174, 113.399 125.545, 106.338 125.001 C 99.277 124.457, 91.411 123.749, 88.858 123.427 C 86.305 123.105, 83.989 123.215, 83.713 123.671 M 85.654 131.507 C 84.143 142.528, 84.344 143.041, 92.043 147.833 C 95.871 150.216, 99.354 152.016, 99.783 151.833 C 100.212 151.650, 104.034 148.800, 108.276 145.500 L 115.989 139.500 115.994 134.394 L 116 129.289 108.250 128.625 C 103.987 128.261, 97.307 127.686, 93.404 127.348 L 86.308 126.735 85.654 131.507 M 146.996 133.869 C 139.533 136.258, 136.178 138.639, 134.452 142.768 C 133.654 144.680, 133 146.386, 133 146.559 C 133 146.733, 134.688 146.610, 136.750 146.288 C 139.463 145.863, 141.745 144.421, 145 141.073 C 147.860 138.132, 151.049 135.985, 153.750 135.182 C 156.088 134.488, 158 133.488, 158 132.960 C 158 131.502, 153.135 131.904, 146.996 133.869 M 100.502 135.604 C 98.304 136.408, 95.829 137.791, 95.002 138.675 C 93.654 140.119, 93.688 140.218, 95.332 139.642 C 96.339 139.289, 99.489 138.993, 102.332 138.985 C 105.174 138.976, 108.175 138.518, 109 137.966 C 110.298 137.097, 110.239 136.763, 108.559 135.481 C 106.235 133.708, 105.659 133.717, 100.502 135.604 M 155.377 138.676 C 152.894 139.523, 149.386 142.055, 146.558 145.041 C 142.723 149.092, 141.241 150, 138.466 150 C 136.093 150, 134.005 150.935, 131.535 153.104 C 126.459 157.560, 126.822 160.052, 133.250 164.881 C 136.137 167.050, 142.912 173.366, 148.304 178.916 C 153.697 184.467, 160.672 190.694, 163.804 192.754 C 169.336 196.392, 169.759 196.499, 178.500 196.468 C 189.581 196.429, 200.334 193.402, 205.497 188.869 C 209.695 185.182, 210.185 180.456, 206.923 175.105 C 203.556 169.582, 200.420 167.198, 190.999 163 C 187.913 161.625, 180.815 157.818, 175.225 154.540 C 165.562 148.873, 164.955 148.318, 162.908 143.273 C 161.723 140.354, 160.472 137.809, 160.127 137.618 C 159.782 137.426, 157.645 137.903, 155.377 138.676 M 201.571 180.571 C 200.707 181.436, 200 182.582, 200 183.118 C 200 184.232, 204.921 180.896, 204.969 179.750 C 205.022 178.482, 203.226 178.917, 201.571 180.571 M 180 188 C 180 188.550, 180.863 189, 181.918 189 C 182.973 189, 184.661 189.262, 185.668 189.582 C 187.344 190.114, 187.335 190.029, 185.559 188.582 C 183.391 186.815, 180 186.460, 180 188" stroke="none" fill="#000000" fill-rule="evenodd"/><path fill-opacity=".208" d="M 108 4.661 C 76.726 9.517, 46.604 27.224, 28.320 51.500 C 11.103 74.360, 1.359 107.595, 4.058 134.250 C 8.504 178.137, 32.156 213.632, 69.697 232.753 C 87.240 241.689, 99.525 244.887, 119.500 245.718 C 134.474 246.342, 146.124 245.058, 158.775 241.392 C 196.198 230.548, 227.359 200.583, 239.778 163.500 C 244.461 149.516, 245.502 142.257, 245.445 124 C 245.394 107.655, 245.185 105.736, 242.278 94.920 C 235.279 68.880, 220.028 45.494, 199.701 29.633 C 184.262 17.586, 163.530 8.396, 145.010 5.389 C 137.324 4.141, 114.267 3.687, 108 4.661 M 110.500 7.092 C 57.106 13.443, 14.727 55.389, 7.035 109.500 C 1.979 145.061, 14.778 182.725, 40.689 208.540 C 53.432 221.235, 68.234 230.775, 84 236.453 C 124.672 251.103, 170.239 242.723, 202.566 214.648 C 251.574 172.087, 257.463 97.465, 215.668 48.620 C 189.067 17.532, 150.561 2.327, 110.500 7.092 M 112.058 14.122 C 62.264 19.891, 21.851 59.270, 14.555 109.128 C 13.700 114.974, 13 122.116, 13 125 C 13 133.296, 15.911 150.766, 18.749 159.500 C 30.225 194.826, 60.696 223.434, 97 232.966 C 109.060 236.133, 133.283 236.934, 145.024 234.555 C 166.195 230.266, 185.485 220.515, 200.833 206.346 C 208.448 199.315, 218.451 186.539, 217.520 185.033 C 217.152 184.437, 217.407 184.074, 218.086 184.225 C 219.797 184.606, 227.395 169.366, 230.912 158.500 C 235.116 145.510, 236.387 135.032, 235.693 119.070 C 234.457 90.653, 224.017 66.977, 203.693 46.499 C 185.797 28.467, 164.298 17.772, 139.386 14.506 C 126.888 12.868, 123.316 12.817, 112.058 14.122 M 117.250 30.833 C 116.287 31.841, 114.316 34.653, 112.869 37.083 C 111.422 39.512, 107.795 45.325, 104.809 50 C 83.307 83.665, 57.849 123.803, 45.639 143.287 C 36.354 158.106, 35.426 161.217, 39.250 164.701 C 42.197 167.385, 45.827 169.225, 46.884 168.572 C 47.348 168.285, 50.576 162.876, 54.057 156.552 C 63.816 138.826, 74.470 125.937, 87.655 115.906 C 99.306 107.043, 111.353 105.425, 128.360 110.442 C 138.256 113.361, 144.251 116.997, 148.536 122.679 C 150.121 124.781, 151.773 126.650, 152.209 126.833 C 153.780 127.495, 152.955 129, 151.021 129 C 149.933 129, 146.186 129.937, 142.696 131.083 C 136.183 133.221, 130.647 137.386, 129.495 141.015 C 129.138 142.142, 127.792 144.117, 126.505 145.404 C 124.049 147.860, 122.015 153.639, 122.006 158.185 C 121.996 162.788, 123.723 165.713, 128.313 168.871 C 130.749 170.547, 138.313 177.487, 145.121 184.292 C 155.186 194.353, 158.795 197.283, 164.427 199.969 C 171.159 203.178, 171.625 203.256, 180.927 202.713 C 201.131 201.536, 216.008 192.959, 215.986 182.500 C 215.979 178.788, 212.017 170.153, 209.153 167.605 C 207.464 166.103, 207.137 164.963, 207.575 162.105 C 208.083 158.790, 206.947 156.651, 193.448 135.500 C 185.374 122.850, 178.075 111.713, 177.229 110.750 C 176.374 109.778, 174.287 109, 172.532 109 C 168.892 109, 165.812 111.893, 161.621 119.250 C 160.133 121.862, 158.597 123.963, 158.208 123.917 C 157.819 123.871, 155.232 121.073, 152.459 117.698 C 149.313 113.868, 145.513 110.566, 142.347 108.913 L 137.275 106.263 141.589 99.382 C 153.939 79.681, 154.844 76.684, 150.754 69 C 147.197 62.317, 129.052 33.848, 126.694 31.250 C 124.202 28.504, 119.664 28.304, 117.250 30.833 M 82.648 128.250 C 82.301 131.137, 82.013 136.031, 82.009 139.125 L 82 144.750 90.051 150.978 C 95.411 155.125, 98.730 157.042, 99.979 156.716 C 101.012 156.446, 105.892 153.137, 110.824 149.362 C 120.536 141.930, 121 141.112, 121 131.420 C 121 125.170, 122.645 125.775, 101 124.064 C 81.636 122.534, 83.382 122.135, 82.648 128.250 M 86.672 127.750 C 86.427 128.162, 85.914 131.672, 85.532 135.549 L 84.837 142.598 91.945 147.325 L 99.053 152.051 107.276 145.707 C 115.262 139.547, 115.509 139.231, 115.801 134.778 L 116.102 130.193 112.301 129.573 C 109.234 129.072, 90.532 127.127, 87.809 127.026 C 87.429 127.012, 86.918 127.338, 86.672 127.750 M 149.230 133.550 C 140.246 135.969, 136.029 138.899, 134.551 143.750 C 133.945 145.737, 134.217 146, 136.877 146 C 139.159 146, 141.055 144.816, 144.699 141.114 C 147.760 138.004, 151.040 135.769, 153.722 134.965 C 156.039 134.271, 157.698 133.320, 157.408 132.852 C 156.723 131.743, 155.578 131.841, 149.230 133.550 M 98.250 136.464 C 95.362 137.808, 93 139.150, 93 139.446 C 93 140.167, 107.033 139.317, 109.250 138.461 C 111.536 137.579, 111.469 136.321, 109.066 135.035 C 106.173 133.487, 104.038 133.769, 98.250 136.464 M 154.500 139.501 C 152.061 140.363, 148.996 142.687, 146.646 145.457 C 143.585 149.065, 142.144 150.001, 139.646 150.004 C 135.948 150.008, 130.596 153.017, 129.008 155.984 C 127.362 159.061, 128.547 161.437, 133.282 164.548 C 135.602 166.073, 142.225 172.124, 148 177.996 C 164.848 195.125, 170.456 197.909, 184.229 195.980 C 193.929 194.622, 197.589 193.406, 203.281 189.653 C 210.292 185.029, 210.716 181.049, 205.031 173.202 C 202.600 169.846, 199.698 167.869, 190.253 163.137 C 169.568 152.772, 165.888 150.168, 162.760 143.682 C 161.253 140.557, 159.678 138.020, 159.260 138.044 C 158.842 138.068, 156.700 138.724, 154.500 139.501 M 201.073 180.635 C 199.933 182.084, 199 183.717, 199 184.263 C 199 185.480, 205.237 180.788, 205.779 179.164 C 206.516 176.953, 203.139 178.008, 201.073 180.635 M 179 187.893 C 179 189.150, 181.616 190.006, 185.332 189.965 L 188.500 189.929 186 188.500 C 183.192 186.895, 179 186.531, 179 187.893" stroke="none" fill="#000000" fill-rule="evenodd"/><path fill-opacity=".11" d="M 109.500 4.621 C 91.662 7.287, 72.065 14.817, 58 24.410 C 50.573 29.475, 37.806 40, 39.089 40 C 39.401 40, 37.232 42.523, 34.269 45.607 C 31.306 48.691, 29.171 51.504, 29.526 51.857 C 29.880 52.211, 31.303 51.150, 32.687 49.500 C 34.072 47.850, 35.975 45.600, 36.917 44.500 C 38.444 42.716, 50.953 31.192, 53.500 29.223 C 56.644 26.791, 68.410 19.916, 74 17.244 C 90.157 9.520, 104.298 6.546, 125 6.520 C 146.944 6.492, 159.653 9.384, 178.552 18.706 C 195.166 26.901, 208.278 37.916, 219.969 53.500 C 226.347 62.003, 235 77.191, 235 79.885 C 235 80.563, 235.450 80.840, 236 80.500 C 236.579 80.142, 237 81.101, 237 82.774 C 237 84.365, 237.312 85.978, 237.692 86.359 C 238.073 86.740, 238.531 88.011, 238.710 89.183 C 238.889 90.355, 239.683 93.606, 240.475 96.407 C 244.014 108.931, 245.041 128.596, 242.859 142.041 C 242.282 145.594, 241.687 149.400, 241.536 150.500 C 241.386 151.600, 240.753 153.767, 240.131 155.315 C 239.509 156.863, 238.988 158.888, 238.973 159.815 C 238.958 160.742, 237.608 164.637, 235.973 168.471 C 234.338 172.305, 233 176.018, 233 176.721 C 233 177.425, 232.550 178, 232 178 C 231.450 178, 230.991 178.563, 230.981 179.250 C 230.971 179.938, 229.508 182.707, 227.731 185.403 C 225.954 188.100, 224.050 191.032, 223.500 191.919 C 221.618 194.953, 216.501 201.500, 215.750 201.833 C 215.337 202.017, 215 202.767, 215 203.500 C 215 204.233, 214.580 204.983, 214.067 205.167 C 213.554 205.350, 210.516 207.988, 207.317 211.029 C 200.405 217.598, 193.597 223, 192.229 223 C 191.688 223, 190.627 223.752, 189.872 224.671 C 187.824 227.164, 167.270 236.776, 159.208 239.010 C 135.159 245.674, 113.003 245.609, 90.500 238.809 C 85 237.146, 78.025 234.612, 75 233.177 C 69.473 230.554, 54.933 222.176, 54 221.077 C 53.725 220.753, 50.589 218.015, 47.031 214.994 C 40.932 209.815, 32.792 201.871, 32.257 200.577 C 31.419 198.549, 21.673 185.993, 21.259 186.408 C 20.980 186.687, 21.901 188.282, 23.306 189.952 C 24.712 191.623, 26.148 193.892, 26.498 194.995 C 26.848 196.098, 27.524 197, 28 197 C 28.476 197, 29.129 197.787, 29.452 198.750 C 30.324 201.351, 41.852 213.286, 49.051 219.041 C 64.867 231.684, 81.488 239.467, 101.185 243.456 C 145.591 252.447, 191.819 235.562, 218.791 200.500 C 221.330 197.200, 223.691 194.275, 224.039 194 C 226.452 192.091, 236.022 173.227, 239.258 164 C 243.090 153.072, 246.228 134.389, 245.937 124.229 C 245.630 113.535, 242.807 96.310, 240.325 90 C 240.001 89.175, 239.596 87.441, 239.425 86.147 C 239.034 83.181, 226.907 59, 225.812 59 C 225.365 59, 225 58.516, 225 57.924 C 225 54.813, 207.447 35.945, 197.500 28.364 C 184.996 18.834, 168.219 11.075, 151 6.859 C 142.707 4.828, 117.288 3.457, 109.500 4.621 M 111 14.489 C 110.175 14.700, 107.354 15.155, 104.731 15.501 C 102.108 15.846, 100.196 16.508, 100.482 16.971 C 100.768 17.434, 100.198 17.603, 99.213 17.346 C 95.392 16.346, 63.525 29.859, 65.365 31.699 C 65.649 31.982, 68.383 30.783, 71.441 29.034 C 77.451 25.595, 79.048 25.492, 73.750 28.885 C 69.811 31.408, 71.592 31.707, 75.921 29.250 C 77.616 28.288, 78.792 26.938, 78.533 26.250 C 78.274 25.563, 78.499 25, 79.031 25 C 79.564 25, 80 25.413, 80 25.917 C 80 26.421, 81.144 27.215, 82.543 27.681 L 85.087 28.529 82.119 29.649 C 79.525 30.628, 79.228 30.563, 79.763 29.135 C 80.293 27.719, 80.150 27.683, 78.698 28.863 C 77.776 29.613, 77.246 30.590, 77.521 31.034 C 77.795 31.477, 76.014 31.705, 73.564 31.540 C 69.734 31.282, 69.065 31.525, 68.804 33.268 C 68.637 34.383, 67.619 35.792, 66.542 36.398 C 62.176 38.856, 60.758 41.390, 63.250 42.280 C 63.977 42.539, 64.129 43.097, 63.613 43.613 C 63.097 44.129, 62.539 43.977, 62.280 43.250 C 61.751 41.770, 58 41.551, 58 43 C 58 43.550, 57.339 44, 56.531 44 C 55.607 44, 55.286 44.583, 55.665 45.571 C 56.051 46.575, 54.886 48.557, 52.431 51.071 C 47.835 55.777, 46.928 55.951, 47.384 52.038 C 47.574 50.409, 47.227 48.905, 46.614 48.697 C 46.001 48.488, 47.012 47.039, 48.860 45.477 C 50.708 43.915, 52.810 42.048, 53.530 41.327 C 54.250 40.607, 55.027 40.351, 55.256 40.759 C 55.485 41.167, 55.524 40.908, 55.342 40.185 C 55.114 39.275, 55.642 39.069, 57.055 39.518 C 59.982 40.446, 63.750 37.671, 63.750 34.586 L 63.750 32.055 59.242 35.278 C 48.558 42.915, 35.690 56.847, 30.405 66.500 C 29.803 67.600, 28.091 70.655, 26.601 73.288 C 22.476 80.581, 16.780 96.066, 17.273 98.646 C 17.514 99.908, 17.355 100.719, 16.920 100.450 C 15.416 99.521, 14.500 109.561, 14.543 126.500 C 14.578 140.743, 14.938 144.798, 16.759 151.500 C 25.318 182.995, 43.858 207.079, 71.403 222.483 C 86.110 230.708, 107.310 236.138, 123.498 235.827 L 132.500 235.654 121.500 234.982 C 115.450 234.613, 109.037 233.959, 107.250 233.530 C 104.379 232.841, 104 232.356, 104 229.375 C 104 226.667, 104.395 226, 106 226 C 107.251 226, 108 225.333, 108 224.221 C 108 223.242, 108.900 221.793, 110 221 C 111.100 220.207, 112 218.758, 112 217.779 C 112 216.801, 112.605 216, 113.345 216 C 114.085 216, 115.468 215.140, 116.419 214.090 C 117.369 213.039, 119.232 211.908, 120.558 211.575 C 122.020 211.208, 123.215 209.991, 123.593 208.485 C 123.936 207.118, 124.618 206, 125.108 206 C 125.599 206, 126 204.650, 126 203 C 126 201.350, 126.450 200, 127 200 C 127.550 200, 128 200.900, 128 202 C 128 204.718, 128.516 204.551, 132.533 200.533 C 134.664 198.402, 136 196.091, 136 194.533 C 136 192.374, 135.548 192, 132.941 192 C 129.404 192, 129.777 190.467, 133.485 189.758 C 135.175 189.435, 136 189.724, 136 190.639 C 136 191.387, 136.675 192, 137.500 192 C 138.325 192, 139 191.550, 139 191 C 139 190.450, 139.675 190, 140.500 190 C 141.500 190, 142 189, 142 187 C 142 185.350, 142.254 184, 142.565 184 C 143.555 184, 148.511 190.371, 148.225 191.277 C 148.074 191.756, 148.448 191.841, 149.057 191.465 C 150.202 190.757, 149.608 190.003, 139 178.698 C 132.706 171.990, 125.363 166.657, 123.774 167.640 C 123.168 168.014, 122.976 167.847, 123.339 167.261 C 123.695 166.684, 123.363 164.702, 122.600 162.856 C 120.424 157.590, 122.659 147.496, 126.663 144.500 C 127.398 143.950, 128.833 141.925, 129.852 140 C 132.209 135.545, 136.884 132.360, 143.937 130.405 C 146.997 129.557, 150.069 128.681, 150.763 128.458 C 152.360 127.946, 146.049 119.488, 141.647 116.239 C 139.931 114.973, 134.957 112.810, 130.595 111.432 C 107.461 104.124, 95.616 107.268, 77.306 125.577 C 67.031 135.853, 59.194 146.621, 52.981 158.999 C 47.277 170.366, 47.578 170.098, 42.988 167.880 C 38.529 165.726, 36.543 162.768, 36.835 158.718 C 36.949 157.152, 41.398 149.157, 47.018 140.422 C 52.508 131.890, 57 124.682, 57 124.405 C 57 124.129, 58.729 121.337, 60.841 118.201 C 75.927 95.811, 86.120 79.003, 85.359 77.772 C 84.986 77.169, 85.153 76.977, 85.736 77.337 C 86.320 77.698, 88.623 75.009, 90.957 71.241 C 93.254 67.534, 97.016 61.544, 99.317 57.931 C 101.618 54.318, 106.143 47.118, 109.372 41.931 C 117.150 29.440, 117.584 29, 122.134 29 C 126.278 29, 125.425 27.983, 138.493 48.500 C 140.245 51.250, 143.776 56.758, 146.340 60.740 C 155.249 74.574, 155.029 78.381, 144.325 95.595 C 139.103 103.993, 138.014 106.395, 139.112 107.090 C 139.875 107.574, 140.908 107.976, 141.406 107.985 C 141.904 107.993, 143.846 109.170, 145.721 110.601 C 149.008 113.108, 149.186 113.135, 150.621 111.351 C 152.023 109.609, 152.049 109.628, 151.063 111.670 C 150.174 113.512, 150.632 114.620, 154.091 118.996 C 157.888 123.800, 158.262 124.028, 159.552 122.327 C 160.313 121.322, 160.981 120.050, 161.035 119.500 C 161.263 117.176, 167.780 109.571, 170.041 108.990 C 174.666 107.802, 177.341 109.331, 181 115.251 C 192.046 133.123, 202.386 149.121, 203.230 149.642 C 204.261 150.279, 203.353 148.647, 197.106 138.634 C 195.512 136.080, 195.076 134.571, 195.803 134.122 C 196.508 133.686, 196.564 132.925, 195.963 131.974 C 195.184 130.743, 195.028 130.795, 195.015 132.289 C 195.003 133.758, 194.755 133.850, 193.633 132.802 C 192.482 131.726, 192.521 131.340, 193.880 130.345 C 196.028 128.775, 197.978 130.417, 198.070 133.872 C 198.133 136.208, 198.230 136.278, 198.945 134.500 C 199.766 132.457, 198.606 129.117, 196.600 127.750 C 195.878 127.258, 195.844 126.742, 196.500 126.250 C 197.486 125.510, 200 121.443, 200 120.587 C 200 120.345, 199.255 120.001, 198.344 119.823 C 196.803 119.522, 196.803 119.405, 198.344 118.128 C 199.769 116.947, 200 116.982, 200 118.378 C 200 119.441, 200.861 120, 202.500 120 C 203.875 120, 205 119.562, 205 119.026 C 205 118.491, 207.025 116.028, 209.500 113.553 C 212.458 110.594, 214 108.187, 214 106.526 C 214 103.431, 215.738 103.160, 216.180 106.187 C 216.490 108.307, 216.556 108.318, 218.324 106.542 C 219.783 105.076, 219.883 104.539, 218.824 103.855 C 217.962 103.298, 217.856 102.738, 218.520 102.250 C 219.082 101.838, 220.084 100.263, 220.749 98.750 C 221.413 97.237, 222.417 96, 222.979 96 C 223.540 96, 224.030 94.763, 224.068 93.250 L 224.135 90.500 225.298 92.923 C 226.198 94.799, 226.182 95.439, 225.230 95.757 C 223.762 96.246, 223.545 104, 225 104 C 225.550 104, 226 102.200, 226 100 C 226 97.800, 226.450 96, 227 96 C 227.550 96, 228 96.900, 228 98 C 228 99.100, 228.450 100, 229 100 C 229.550 100, 230 99.100, 230 98 C 230 96.900, 230.450 96, 231 96 C 231.550 96, 232 95.500, 232 94.888 C 232 92.811, 223.729 73, 222.862 73 C 222.388 73, 222.103 72.662, 222.229 72.250 C 222.560 71.169, 218.727 65, 217.725 65 C 217.262 65, 217.105 64.639, 217.378 64.198 C 218.605 62.213, 199.480 40.602, 197.252 41.457 C 196.506 41.743, 196.163 41.545, 196.490 41.017 C 197.871 38.782, 177.715 26.098, 165.500 21.515 C 150.680 15.954, 144.390 14.765, 128 14.426 C 119.475 14.250, 111.825 14.278, 111 14.489 M 93.118 19.906 C 92.038 20.590, 92.218 20.934, 93.943 21.482 C 95.157 21.867, 96.417 21.917, 96.742 21.591 C 97.067 21.266, 96.471 20.941, 95.417 20.868 C 94.362 20.796, 95.075 20.405, 97 20 C 100.460 19.272, 100.466 19.262, 97.500 19.147 C 95.850 19.083, 93.878 19.425, 93.118 19.906 M 85.500 22.384 C 82.617 23.628, 82.586 23.706, 84.712 24.394 C 85.929 24.788, 87.858 24.611, 89 24 C 90.142 23.389, 92.071 23.161, 93.288 23.492 C 95.228 24.021, 95.283 23.959, 93.730 22.987 C 92.756 22.377, 91.012 22.179, 89.855 22.546 C 88.441 22.995, 87.974 22.851, 88.434 22.107 C 89.263 20.766, 89.248 20.767, 85.500 22.384 M 98.083 22.359 C 98.313 22.557, 99.850 23.021, 101.500 23.390 C 103.691 23.880, 104.095 23.787, 103 23.046 C 101.650 22.132, 97.080 21.494, 98.083 22.359 M 117.813 25.683 C 118.534 25.972, 119.397 25.936, 119.729 25.604 C 120.061 25.272, 119.471 25.036, 118.417 25.079 C 117.252 25.127, 117.015 25.364, 117.813 25.683 M 112.338 29.750 C 112.599 30.988, 112.378 32, 111.847 32 C 111.316 32, 111.196 32.508, 111.579 33.128 C 112.056 33.900, 112.565 33.742, 113.188 32.628 C 113.765 31.597, 113.690 30.359, 112.981 29.250 C 111.996 27.708, 111.919 27.768, 112.338 29.750 M 115 29.059 C 115 29.641, 115.450 29.840, 116 29.500 C 116.550 29.160, 117 28.684, 117 28.441 C 117 28.198, 116.550 28, 116 28 C 115.450 28, 115 28.477, 115 29.059 M 59.573 36.521 C 58.513 37.323, 57.887 38.220, 58.181 38.515 C 58.476 38.809, 59.793 38.154, 61.108 37.058 C 63.843 34.781, 62.496 34.310, 59.573 36.521 M 107.290 39 C 107.577 40.100, 107.405 41, 106.906 41 C 106.408 41, 106 41.540, 106 42.200 C 106 43.125, 106.272 43.128, 107.184 42.216 C 108.637 40.763, 109.021 37, 107.716 37 C 107.194 37, 107.002 37.900, 107.290 39 M 50.924 45.750 L 48.500 48.500 51.250 46.076 C 53.820 43.810, 54.459 43, 53.674 43 C 53.495 43, 52.258 44.237, 50.924 45.750 M 52.500 47 C 52.160 47.550, 52.332 48, 52.882 48 C 53.432 48, 54.160 47.550, 54.500 47 C 54.840 46.450, 54.668 46, 54.118 46 C 53.568 46, 52.840 46.450, 52.500 47 M 58 47 C 58 47.550, 59.350 48, 61 48 C 62.650 48, 64 47.550, 64 47 C 64 46.450, 62.650 46, 61 46 C 59.350 46, 58 46.450, 58 47 M 41.966 52.825 C 40.060 54.993, 37.600 58.019, 36.500 59.549 C 35.400 61.078, 33.935 62.901, 33.244 63.599 C 32.554 64.298, 31.895 66.002, 31.780 67.387 C 31.665 68.772, 31.364 69.698, 31.111 69.444 C 30.539 68.873, 27.004 74.130, 27.038 75.500 C 27.052 76.050, 27.771 75.600, 28.635 74.500 C 30.162 72.557, 30.187 72.571, 29.496 75 C 29.105 76.375, 28.134 78.175, 27.339 79 C 26.062 80.324, 25.968 80.265, 26.540 78.500 C 27.030 76.988, 26.944 76.844, 26.187 77.909 C 24.838 79.806, 25.865 82.173, 27.868 81.787 C 28.926 81.583, 29.785 79.836, 30.351 76.738 C 30.893 73.771, 31.737 72, 32.608 72 C 33.374 72, 34 71.377, 34 70.617 C 34 69.856, 34.900 68.998, 36 68.710 C 37.100 68.423, 38 67.459, 38 66.569 C 38 65.563, 39.159 64.718, 41.063 64.338 C 43.224 63.905, 43.813 63.412, 43.063 62.663 C 41.536 61.136, 41.746 59.651, 43.800 57.439 C 46.192 54.863, 46.860 52.884, 46.078 50.692 C 45.523 49.135, 44.951 49.432, 41.966 52.825 M 43.459 53.067 C 43.096 53.653, 43.014 54.348, 43.276 54.610 C 43.538 54.872, 44.019 54.392, 44.345 53.543 C 45.021 51.781, 44.445 51.471, 43.459 53.067 M 99.079 54.309 C 99.036 55.304, 98.625 55.886, 98.167 55.603 C 97.708 55.320, 97.333 55.765, 97.333 56.592 C 97.333 57.905, 97.517 57.912, 98.783 56.646 C 99.580 55.849, 99.990 54.590, 99.695 53.848 C 99.337 52.948, 99.132 53.102, 99.079 54.309 M 26 55.929 C 26 56.439, 25.375 57.482, 24.612 58.245 C 22.945 59.912, 16.597 71, 17.310 71 C 17.585 71, 19.051 68.862, 20.568 66.250 C 22.086 63.638, 23.601 61.275, 23.937 61 C 25.507 59.712, 27.931 55, 27.023 55 C 26.460 55, 26 55.418, 26 55.929 M 38.524 58.925 C 38.162 60.066, 37.494 61, 37.040 61 C 36.586 61, 35.985 61.597, 35.705 62.326 C 35.142 63.793, 38.429 63.957, 39.730 62.527 C 40.153 62.061, 39.938 62.003, 39.250 62.399 C 37.715 63.282, 37.663 62.499, 39.081 59.849 C 39.676 58.738, 39.942 57.608, 39.672 57.339 C 39.403 57.070, 38.886 57.783, 38.524 58.925 M 216.079 71.583 C 216.127 72.748, 216.364 72.985, 216.683 72.188 C 216.972 71.466, 216.936 70.603, 216.604 70.271 C 216.272 69.939, 216.036 70.529, 216.079 71.583 M 83.564 73.293 C 83.940 74.279, 84.499 74.834, 84.807 74.526 C 85.115 74.219, 84.808 73.412, 84.124 72.733 C 83.136 71.753, 83.022 71.868, 83.564 73.293 M 86.429 74 C 86.429 75.295, 86.767 75.633, 87.414 74.986 C 88.062 74.338, 88.062 73.662, 87.414 73.014 C 86.767 72.367, 86.429 72.705, 86.429 74 M 14.583 75.643 C 13.631 78.126, 14.681 78.465, 15.954 76.086 C 16.568 74.938, 16.653 74, 16.142 74 C 15.632 74, 14.930 74.739, 14.583 75.643 M 220 78 C 220 78.550, 220.477 79, 221.059 79 C 221.641 79, 221.840 78.550, 221.500 78 C 221.160 77.450, 220.684 77, 220.441 77 C 220.198 77, 220 77.450, 220 78 M 81.254 81.280 C 81.173 82.350, 81.210 83.063, 81.337 82.863 C 81.463 82.663, 82.106 81.787, 82.767 80.917 C 83.712 79.671, 83.695 79.333, 82.684 79.333 C 81.978 79.333, 81.335 80.209, 81.254 81.280 M 11.571 83.571 C 11.204 85.037, 11.096 86.429, 11.331 86.665 C 11.567 86.900, 12.061 85.894, 12.429 84.429 C 12.796 82.963, 12.904 81.571, 12.669 81.335 C 12.433 81.100, 11.939 82.106, 11.571 83.571 M 224 84.059 C 224 84.641, 224.516 84.799, 225.146 84.410 C 225.952 83.912, 226.095 84.485, 225.629 86.342 C 224.369 91.360, 229.238 98.787, 230.771 94.187 C 231.006 93.482, 230.564 93.230, 229.685 93.567 C 227.961 94.229, 227.495 93.597, 226.679 89.500 L 226.082 86.500 227.496 89.500 C 228.446 91.515, 228.925 91.909, 228.955 90.700 C 229.013 88.371, 226.237 83, 224.974 83 C 224.438 83, 224 83.477, 224 84.059 M 22.564 85.707 C 22.022 87.132, 22.136 87.247, 23.124 86.267 C 23.808 85.588, 24.115 84.781, 23.807 84.474 C 23.499 84.166, 22.940 84.721, 22.564 85.707 M 30.574 86.297 C 30.126 87.835, 30.039 89.372, 30.380 89.713 C 31.499 90.833, 32.158 89.235, 31.770 86.341 L 31.389 83.500 30.574 86.297 M 222.500 87 C 222.160 87.550, 222.359 88, 222.941 88 C 223.523 88, 224 87.550, 224 87 C 224 86.450, 223.802 86, 223.559 86 C 223.316 86, 222.840 86.450, 222.500 87 M 21.350 91 C 21.020 92.650, 20.260 94, 19.661 94 C 19.062 94, 19.332 94.761, 20.262 95.690 C 22.272 97.701, 22.649 97.440, 23.434 93.498 C 23.930 91.005, 23.857 90.837, 22.996 92.500 C 22.137 94.161, 22.046 93.949, 22.456 91.250 C 23.077 87.164, 22.159 86.956, 21.350 91 M 24 89 C 24 89.550, 24.450 90, 25 90 C 25.550 90, 26 89.550, 26 89 C 26 88.450, 25.550 88, 25 88 C 24.450 88, 24 88.450, 24 89 M 9.079 90.583 C 9.127 91.748, 9.364 91.985, 9.683 91.188 C 9.972 90.466, 9.936 89.603, 9.604 89.271 C 9.272 88.939, 9.036 89.529, 9.079 90.583 M 75.143 91.143 C 74.438 92.271, 74.081 93.414, 74.350 93.683 C 74.618 93.952, 75.361 93.194, 76 92 C 77.511 89.176, 76.809 88.474, 75.143 91.143 M 26 95 C 26 95.550, 26.450 96, 27 96 C 27.550 96, 28 95.550, 28 95 C 28 94.450, 27.550 94, 27 94 C 26.450 94, 26 94.450, 26 95 M 8.079 97.583 C 8.127 98.748, 8.364 98.985, 8.683 98.188 C 8.972 97.466, 8.936 96.603, 8.604 96.271 C 8.272 95.939, 8.036 96.529, 8.079 97.583 M 68 98.059 C 68 98.641, 68.450 98.840, 69 98.500 C 69.550 98.160, 70 97.684, 70 97.441 C 70 97.198, 69.550 97, 69 97 C 68.450 97, 68 97.477, 68 98.059 M 232.195 98.500 C 232.172 99.600, 232.745 103.875, 233.468 108 C 234.192 112.125, 234.812 114.150, 234.846 112.500 C 234.879 110.850, 234.306 106.575, 233.573 103 C 232.839 99.425, 232.219 97.400, 232.195 98.500 M 20.638 102.500 C 20.955 103.325, 21.391 104, 21.607 104 C 21.823 104, 22 103.325, 22 102.500 C 22 101.675, 21.564 101, 21.031 101 C 20.499 101, 20.322 101.675, 20.638 102.500 M 172.750 106.662 C 173.438 106.940, 174.563 106.940, 175.250 106.662 C 175.938 106.385, 175.375 106.158, 174 106.158 C 172.625 106.158, 172.063 106.385, 172.750 106.662 M 58.459 113.067 C 58.096 113.653, 58.014 114.348, 58.276 114.610 C 58.538 114.872, 59.019 114.392, 59.345 113.543 C 60.021 111.781, 59.445 111.471, 58.459 113.067 M 157.327 113.514 C 157.972 114.210, 158.730 114.491, 159.012 114.139 C 159.293 113.788, 159.874 113.219, 160.303 112.875 C 160.732 112.531, 159.974 112.250, 158.619 112.250 C 156.681 112.250, 156.405 112.520, 157.327 113.514 M 213.813 112.683 C 214.534 112.972, 215.397 112.936, 215.729 112.604 C 216.061 112.272, 215.471 112.036, 214.417 112.079 C 213.252 112.127, 213.015 112.364, 213.813 112.683 M 182.031 113.500 C 182.031 114.050, 182.467 115.175, 183 116 C 183.533 116.825, 183.969 117.050, 183.969 116.500 C 183.969 115.950, 183.533 114.825, 183 114 C 182.467 113.175, 182.031 112.950, 182.031 113.500 M 155 114.378 C 155 114.585, 155.787 115.373, 156.750 116.128 C 158.336 117.371, 158.371 117.336, 157.128 115.750 C 155.821 114.084, 155 113.555, 155 114.378 M 208.079 118.583 C 208.127 119.748, 208.364 119.985, 208.683 119.188 C 208.972 118.466, 208.936 117.603, 208.604 117.271 C 208.272 116.939, 208.036 117.529, 208.079 118.583 M 235.349 125 C 235.349 129.675, 235.522 131.588, 235.732 129.250 C 235.943 126.912, 235.943 123.087, 235.732 120.750 C 235.522 118.412, 235.349 120.325, 235.349 125 M 188.797 124.994 C 189.733 126.640, 190.864 127.990, 191.309 127.994 C 191.754 127.997, 191.797 128.520, 191.405 129.155 C 190.962 129.871, 191.130 130.038, 191.849 129.593 C 192.654 129.096, 192.206 127.826, 190.385 125.439 C 187.156 121.205, 186.543 121.033, 188.797 124.994 M 83 123.539 C 83 123.836, 82.522 128.368, 81.937 133.611 C 81.093 141.179, 81.141 143.465, 82.168 144.703 C 83.531 146.345, 98.566 158, 99.322 158 C 100.263 158, 119.545 142.771, 120.294 141.436 C 120.731 140.657, 120.956 136.753, 120.794 132.760 L 120.500 125.500 107.500 124.356 C 92.833 123.066, 83 122.738, 83 123.539 M 78.564 126.707 C 78.022 128.132, 78.136 128.247, 79.124 127.267 C 79.808 126.588, 80.115 125.781, 79.807 125.474 C 79.499 125.166, 78.940 125.721, 78.564 126.707 M 86.566 130.151 C 86.257 131.993, 85.795 135.525, 85.540 138 L 85.075 142.500 92.169 147.150 L 99.262 151.800 107.104 145.673 C 114.249 140.090, 115.003 139.162, 115.593 135.227 C 115.949 132.851, 116.032 130.699, 115.777 130.443 C 115.521 130.188, 110.404 129.523, 104.406 128.966 C 98.408 128.410, 92.066 127.695, 90.314 127.378 C 87.326 126.837, 87.093 127.009, 86.566 130.151 M 151.230 133.170 C 148.881 133.696, 147.194 134.505, 147.481 134.970 C 147.768 135.434, 147.215 135.611, 146.251 135.363 C 143.494 134.653, 135.358 140.344, 134.776 143.391 C 133.924 147.850, 138.356 146.818, 143.973 141.250 C 149.591 135.680, 151.058 134.535, 152.750 134.400 C 156.423 134.106, 157 133.916, 157 133 C 157 131.870, 157.045 131.868, 151.230 133.170 M 98.373 135.918 C 91.123 139.210, 91.781 140.267, 100.827 139.856 C 109.519 139.462, 112.233 138.190, 110.035 135.542 C 108.317 133.473, 103.410 133.631, 98.373 135.918 M 42.624 137.539 C 41.659 140.053, 41.943 140.702, 43.122 138.675 C 43.706 137.671, 43.973 136.639, 43.715 136.382 C 43.458 136.124, 42.966 136.645, 42.624 137.539 M 234.079 138.583 C 234.127 139.748, 234.364 139.985, 234.683 139.188 C 234.972 138.466, 234.936 137.603, 234.604 137.271 C 234.272 136.939, 234.036 137.529, 234.079 138.583 M 155.660 139.371 C 152.165 140.398, 146 145.301, 146 147.053 C 146 148.267, 138.950 151.195, 137.429 150.611 C 135.326 149.804, 129 155.751, 129 158.535 C 129 161.237, 134.294 165.525, 136.243 164.403 C 136.934 164.005, 137.153 164.061, 136.730 164.527 C 135.695 165.665, 143.030 173.085, 144.413 172.298 C 145.011 171.958, 145.173 172.041, 144.773 172.484 C 144.373 172.926, 145.456 174.911, 147.179 176.894 C 152.810 183.374, 167.866 195.828, 165.562 192.100 C 165.188 191.495, 165.310 191, 165.834 191 C 166.358 191, 167.008 190.421, 167.279 189.714 C 167.567 188.965, 167.034 188.429, 166 188.429 C 164.966 188.429, 164.433 188.965, 164.721 189.714 C 165.681 192.216, 163.404 190.979, 158.987 186.599 C 157.932 185.553, 157.302 184.320, 157.587 183.860 C 157.871 183.400, 157.451 183.273, 156.653 183.580 C 154.110 184.556, 153.690 181.910, 155.912 178.905 C 157.093 177.307, 157.619 176, 157.080 176 C 156.540 176, 155.686 176.738, 155.181 177.640 C 154.636 178.615, 153.761 178.970, 153.025 178.515 C 152.057 177.917, 152.083 177.538, 153.143 176.781 C 154.193 176.031, 154.119 175.933, 152.819 176.348 C 151.484 176.774, 151.155 176.258, 151.223 173.847 C 151.271 172.176, 150.742 170.459, 150.048 170.030 C 149.259 169.542, 149.162 169.018, 149.788 168.631 C 150.340 168.290, 151.048 168.684, 151.364 169.506 C 151.679 170.328, 152.851 171, 153.969 171 C 155.108 171, 156 171.659, 156 172.500 C 156 173.333, 156.889 174, 158 174 C 159.166 174, 160 173.333, 160 172.401 C 160 171.522, 161.350 169.541, 163 168 C 166.287 164.929, 167.175 160, 164.441 160 C 163.584 160, 163.133 159.594, 163.440 159.097 C 163.747 158.601, 166.238 158.295, 168.975 158.418 C 171.713 158.541, 174.090 158.230, 174.257 157.728 C 174.425 157.225, 179.187 159.155, 184.839 162.016 C 190.491 164.876, 195.314 167.020, 195.555 166.778 C 195.797 166.537, 193.633 165.257, 190.747 163.934 C 184.928 161.266, 175.953 156.273, 168.845 151.749 C 165.270 149.473, 163.790 147.710, 162.464 144.143 C 161.514 141.589, 160.459 139.217, 160.119 138.871 C 159.778 138.526, 157.772 138.751, 155.660 139.371 M 156 141 C 154.667 141.862, 154.667 141.969, 156 141.969 C 156.825 141.969, 158.175 141.533, 159 141 C 160.333 140.138, 160.333 140.031, 159 140.031 C 158.175 140.031, 156.825 140.467, 156 141 M 150.543 142.931 C 150.226 143.443, 150.494 144.187, 151.138 144.585 C 151.836 145.017, 152.042 144.877, 151.648 144.240 C 151.285 143.652, 151.553 142.943, 152.244 142.664 C 153.143 142.302, 153.161 142.135, 152.309 142.079 C 151.654 142.036, 150.859 142.419, 150.543 142.931 M 160 146.811 C 160 147.258, 161.012 148.710, 162.250 150.038 C 163.488 151.366, 164.502 152.914, 164.504 153.477 C 164.506 154.039, 165.406 154.525, 166.504 154.556 C 167.602 154.587, 169.483 155.150, 170.684 155.806 C 175.628 158.508, 174.070 156.683, 168.250 152.955 C 164.813 150.753, 162 148.287, 162 147.476 C 162 146.664, 161.550 146, 161 146 C 160.450 146, 160 146.365, 160 146.811 M 148.500 150 C 148.160 150.550, 148.359 151, 148.941 151 C 149.523 151, 150 150.550, 150 150 C 150 149.450, 149.802 149, 149.559 149 C 149.316 149, 148.840 149.450, 148.500 150 M 205.100 152.705 C 205.829 153.917, 206.640 154.694, 206.903 154.431 C 207.166 154.168, 206.570 153.176, 205.579 152.226 C 203.857 150.577, 203.835 150.598, 205.100 152.705 M 134 153.059 C 134 153.641, 134.450 153.840, 135 153.500 C 135.550 153.160, 136 152.684, 136 152.441 C 136 152.198, 135.550 152, 135 152 C 134.450 152, 134 152.477, 134 153.059 M 229.564 159.707 C 229.022 161.132, 229.136 161.247, 230.124 160.267 C 230.808 159.588, 231.115 158.781, 230.807 158.474 C 230.499 158.166, 229.940 158.721, 229.564 159.707 M 169.029 159.961 C 168.220 160.473, 167.771 161.104, 168.031 161.364 C 168.290 161.624, 169.376 161.198, 170.443 160.418 C 172.576 158.858, 171.383 158.472, 169.029 159.961 M 10.846 164.445 C 11.725 166.889, 12.601 168.733, 12.791 168.542 C 13.371 167.963, 10.736 160, 9.966 160 C 9.571 160, 9.967 162, 10.846 164.445 M 228.079 163.583 C 228.127 164.748, 228.364 164.985, 228.683 164.188 C 228.972 163.466, 228.936 162.603, 228.604 162.271 C 228.272 161.939, 228.036 162.529, 228.079 163.583 M 120.564 166.707 C 120.022 168.132, 120.136 168.247, 121.124 167.267 C 121.808 166.588, 122.115 165.781, 121.807 165.474 C 121.499 165.166, 120.940 165.721, 120.564 166.707 M 139.818 166.218 C 140.351 166.751, 141.623 167.011, 142.644 166.794 C 144.019 166.503, 143.767 166.251, 141.674 165.825 C 139.849 165.452, 139.192 165.592, 139.818 166.218 M 143.333 169.447 C 143.333 170.196, 143.849 170.611, 144.480 170.369 C 145.110 170.127, 146.455 170.845, 147.468 171.965 C 148.481 173.084, 149.745 174, 150.277 174 C 151.736 174, 149.579 171.749, 146.244 169.792 C 143.956 168.449, 143.333 168.375, 143.333 169.447 M 200.031 169.750 C 200.049 170.162, 201.286 171.364, 202.781 172.420 L 205.500 174.339 203.076 171.670 C 200.528 168.864, 199.980 168.519, 200.031 169.750 M 126.946 172.070 C 125.707 172.867, 125.702 173.130, 126.909 173.907 C 127.684 174.407, 128.996 174.555, 129.823 174.238 C 130.796 173.864, 131.075 174.070, 130.612 174.819 C 130.145 175.575, 130.433 175.771, 131.442 175.384 C 133.199 174.709, 132.702 173.446, 130.140 172.075 C 129.061 171.498, 127.839 171.496, 126.946 172.070 M 146 174 C 146 174.550, 146.477 175, 147.059 175 C 147.641 175, 147.840 174.550, 147.500 174 C 147.160 173.450, 146.684 173, 146.441 173 C 146.198 173, 146 173.450, 146 174 M 148.651 175.682 C 147.842 176.491, 151.906 181.006, 153.424 180.985 C 154.176 180.974, 154.181 180.748, 153.442 180.235 C 152.860 179.831, 151.695 178.490, 150.852 177.256 C 150.010 176.022, 149.019 175.314, 148.651 175.682 M 135.128 177.662 C 135.882 178.576, 136.500 180.251, 136.500 181.386 C 136.500 182.915, 137.209 183.504, 139.244 183.664 L 141.989 183.879 138.999 180.690 C 137.355 178.935, 136.007 177.162, 136.005 176.750 C 136.002 176.338, 135.495 176, 134.878 176 C 134.148 176, 134.235 176.582, 135.128 177.662 M 128 179.441 C 128 180.234, 128.450 181.160, 129 181.500 C 129.550 181.840, 130 181.191, 130 180.059 C 130 178.927, 129.550 178, 129 178 C 128.450 178, 128 178.648, 128 179.441 M 18.548 182.093 C 19.428 183.794, 20.335 184.999, 20.563 184.770 C 21.172 184.162, 18.637 179.017, 17.724 179.008 C 17.298 179.004, 17.668 180.392, 18.548 182.093 M 199.564 180.707 C 199.022 182.132, 199.136 182.247, 200.124 181.267 C 200.808 180.588, 201.115 179.781, 200.807 179.474 C 200.499 179.166, 199.940 179.721, 199.564 180.707 M 137 182 C 137 182.550, 137.450 183, 138 183 C 138.550 183, 139 182.550, 139 182 C 139 181.450, 138.550 181, 138 181 C 137.450 181, 137 181.450, 137 182 M 208.158 183 C 208.158 184.375, 208.385 184.938, 208.662 184.250 C 208.940 183.563, 208.940 182.438, 208.662 181.750 C 208.385 181.063, 208.158 181.625, 208.158 183 M 134 186 C 134 187.100, 134.450 188, 135 188 C 135.550 188, 136 187.100, 136 186 C 136 184.900, 135.550 184, 135 184 C 134.450 184, 134 184.900, 134 186 M 144.869 189.342 C 145.481 190.080, 145.649 191.052, 145.241 191.502 C 144.834 191.952, 145.084 191.983, 145.799 191.571 C 146.799 190.994, 146.828 190.498, 145.926 189.411 C 145.282 188.635, 144.530 188, 144.255 188 C 143.980 188, 144.256 188.604, 144.869 189.342 M 180.813 190.683 C 181.534 190.972, 182.397 190.936, 182.729 190.604 C 183.061 190.272, 182.471 190.036, 181.417 190.079 C 180.252 190.127, 180.015 190.364, 180.813 190.683 M 151.836 192.215 C 152.571 193.148, 152.901 194.351, 152.570 194.887 C 152.238 195.423, 152.494 196.187, 153.138 196.585 C 153.869 197.037, 154.041 196.876, 153.595 196.155 C 152.480 194.349, 154.463 194.800, 156.888 196.903 C 158.451 198.258, 158.711 198.948, 157.791 199.301 C 157.081 199.573, 157.512 199.746, 158.750 199.685 C 159.988 199.624, 161 199.487, 161 199.380 C 161 199.274, 158.637 197.236, 155.750 194.852 C 152.863 192.468, 151.101 191.281, 151.836 192.215 M 210.924 193.750 L 208.500 196.500 211.250 194.076 C 212.762 192.742, 214 191.505, 214 191.326 C 214 190.541, 213.190 191.180, 210.924 193.750 M 170.813 194.683 C 171.534 194.972, 172.397 194.936, 172.729 194.604 C 173.061 194.272, 172.471 194.036, 171.417 194.079 C 170.252 194.127, 170.015 194.364, 170.813 194.683 M 180.813 195.683 C 181.534 195.972, 182.397 195.936, 182.729 195.604 C 183.061 195.272, 182.471 195.036, 181.417 195.079 C 180.252 195.127, 180.015 195.364, 180.813 195.683 M 170.750 203.662 C 171.438 203.940, 172.563 203.940, 173.250 203.662 C 173.938 203.385, 173.375 203.158, 172 203.158 C 170.625 203.158, 170.063 203.385, 170.750 203.662 M 84 225.922 C 84 227.050, 90.896 229.437, 91.734 228.600 C 92.063 228.270, 91.471 227.986, 90.417 227.968 C 88.538 227.937, 88.539 227.907, 90.441 226.468 C 92.659 224.791, 91.785 224.510, 88.995 226.003 C 87.743 226.673, 86.916 226.673, 86.502 226.003 C 85.724 224.745, 84 224.689, 84 225.922 M 100 227 C 100 227.550, 100.450 228, 101 228 C 101.550 228, 102 227.550, 102 227 C 102 226.450, 101.550 226, 101 226 C 100.450 226, 100 226.450, 100 227 M 93.727 229.064 C 94.002 230.116, 94.626 230.731, 95.114 230.430 C 96.430 229.616, 96.188 228.286, 94.613 227.682 C 93.642 227.309, 93.376 227.724, 93.727 229.064 M 112 231 C 112 231.550, 112.450 232, 113 232 C 113.550 232, 114 231.550, 114 231 C 114 230.450, 113.550 230, 113 230 C 112.450 230, 112 230.450, 112 231 M 138.750 234.662 C 139.438 234.940, 140.563 234.940, 141.250 234.662 C 141.938 234.385, 141.375 234.158, 140 234.158 C 138.625 234.158, 138.063 234.385, 138.750 234.662" stroke="none" fill="#000000" fill-rule="evenodd"/></svg>