<svg xmlns="http://www.w3.org/2000/svg" width="200" height="200" fill="#000000"><path fill-opacity=".267" fill-rule="evenodd" d="M0 100.005V200.01l100.25-.255 100.25-.255.255-99.75L201.01 0H0zm.481.495c0 55 .121 77.647.269 50.326.148-27.32.148-72.32 0-100C.602 23.147.481 45.5.481 100.5m94.934-77.079c-9.484 4.13-10.725 16.707-2.258 22.89 2.519 1.84 3.494 1.952 13.843 1.598 4.107-.141 5-1.664 5-8.531V33h-12v3c0 2.693.32 3 3.122 3 2.663 0 2.939.221 1.878 1.5-1.736 2.091-7.333 1.895-9.345-.329-2.197-2.427-2.105-7.454.174-9.516 2.027-1.834 6.343-2.168 9.082-.703 1.253.671 2.432.496 3.982-.59 1.855-1.299 1.998-1.789.905-3.107-1.538-1.854-6.994-4.271-9.516-4.216-.98.022-3.17.644-4.867 1.382m30.706.235c-6.703 3.409-9.182 12.452-5.202 18.979 2.49 4.084 9.726 7.033 13.784 5.618 1.544-.538 4.289-.761 6.099-.495l3.29.483-.296-7.371-.296-7.37h-6c-5.733 0-6 .111-6 2.5 0 1.984.568 2.565 2.75 2.816 3.038.35 3.621 1.636 1.168 2.577-3.022 1.16-6.429.596-8.418-1.393-4.27-4.27-1.027-11 5.3-11 1.815 0 3.808.508 4.429 1.129.838.838 1.797.603 3.725-.914l2.597-2.043-3.072-2.187c-4.142-2.949-9.635-3.476-13.858-1.329M30 35.5V48h3c2.667 0 3-.333 3-3 0-2.919.13-3 4.826-3 6.503 0 9.674-3.169 9.674-9.667 0-3.697-.504-4.939-2.806-6.92C45.272 23.33 43.872 23 37.444 23H30zm27-4.649c0 13.268 2.985 17.527 12.288 17.531 4.044.002 5.281-.489 7.953-3.161 3.028-3.029 3.182-3.574 3.581-12.693L81.239 23H74v8.3c0 9.008-.79 10.7-5 10.7s-5-1.692-5-10.7V23h-7zm91-7.237c0 .338 2.025 3.863 4.5 7.834 3.659 5.87 4.5 8.092 4.5 11.886C157 48 157 48 160.5 48h3.5v-4.99c0-4.207.706-6.091 4.5-12.01 2.475-3.861 4.5-7.241 4.5-7.51s-1.574-.49-3.498-.49c-3.074 0-3.844.556-6.354 4.588l-2.855 4.587-2.689-4.587C155.232 23.54 154.508 23 151.458 23c-1.902 0-3.458.276-3.458.614M36 32.471c0 4.12 1.44 5.073 5.394 3.569 2.208-.839 2.677-1.573 2.422-3.79-.274-2.387-.81-2.791-4.066-3.06-3.695-.306-3.75-.258-3.75 3.281m56.885 23.304c1.059 2.076 2.458 6.481 3.109 9.788l1.183 6.015 3.393-.396c3.236-.378 3.324-.495 1.912-2.512-.815-1.163-1.482-3.874-1.482-6.024C101 57.014 97.655 52 93.898 52h-2.939zm12.354-.025c1.981 3.421 3.851 5.494 4.431 4.913.125-.125-.254-2.126-.843-4.445-.876-3.454-1.495-4.218-3.415-4.218h-2.345zM79.3 54.646c-.88.357-.927 1.203-.176 3.171.563 1.475 1.394 5.974 1.846 9.996s1.046 7.537 1.319 7.809c.969.97 7.711-2.547 7.711-4.022 0-2.925-2.263-12.139-3.647-14.85-1.346-2.635-3.884-3.393-7.053-2.104m39.704 1.125c.003.951 1.312 3.7 2.911 6.11 1.91 2.879 2.786 5.328 2.556 7.145-.294 2.325.077 2.846 2.34 3.281 1.479.284 2.846.361 3.038.172.973-.959-1.313-8.794-3.592-12.308-3.015-4.65-7.26-7.225-7.253-4.4m-52.343 3.847c-2.383 1.292-2.731 1.967-2.168 4.208.368 1.469.745 2.698.838 2.733l4.551 1.723 4.382 1.661-.633-4.621c-.593-4.325-2.06-7.374-3.503-7.282-.346.022-1.905.732-3.467 1.578m66.408 2.804c1.012 2.29 2.145 6.066 2.517 8.393.928 5.8 1.933 5.974 3.44.594 1.61-5.752-.21-10.33-4.784-12.029l-3.015-1.12zM51.89 73.25c-1.175 2.238-1.17 2.24.964.345C55.238 71.479 55.456 71 54.035 71c-.53 0-1.496 1.013-2.145 2.25m-5.743 12.326c-1.012 2.222-.947 2.531.47 2.25.904-.179 2.315-1.339 3.135-2.576 1.376-2.076 1.34-2.25-.47-2.25-1.137 0-2.454 1.082-3.135 2.576m-9.502 26.617C35.671 115.83 35.798 116 39.5 116c3.067 0 3.5-.31 3.5-2.5 0-1.491-.572-2.5-1.418-2.5-.78 0-2.071-.25-2.869-.557-.933-.358-1.67.266-2.068 1.75m-2.978 13.474c-1.443 1.443-.625 4.333 1.226 4.333 1.735 0 3.107-1.803 3.107-4.082 0-1.055-3.336-1.249-4.333-.251m-3.194 14.377c-.904 1.462 1.397 3.956 3.649 3.956 1.337 0 1.878-.721 1.878-2.5 0-1.984-.504-2.5-2.441-2.5-1.343 0-2.731.47-3.086 1.044m13.302 1.153c-1.027 2.787.423 3.803 5.43 3.803 4.999 0 5.027-.018 3.553-2.25-1.716-2.599-8.186-3.717-8.983-1.553"/><path fill-opacity=".411" fill-rule="evenodd" d="M0 100v100h46.75l46.75.001V186.5l5.302-.304c3.703-.212 5.485-.78 5.907-1.881.432-1.126.918-.61 1.698 1.804.844 2.609 1.721 3.453 3.843 3.697 2.257.26 2.75-.075 2.75-1.866 0-1.776.42-2.071 2.25-1.58 1.237.331 2.806.609 3.487.616 1.585.018 4.263 6.391 4.263 10.148v2.889l38.75-.261 38.75-.262.255-99.75L201.01 0H0zm.481.5c0 55 .121 77.647.269 50.326.148-27.32.148-72.32 0-100C.602 23.147.481 45.5.481 100.5M94.5 23.861c-4.613 2.849-6.62 5.616-7.198 9.922-.677 5.047 1.962 10.797 6.118 13.331 3.466 2.114 10.559 2.507 12.38.686.933-.933 1.2-.933 1.2 0 0 1.667 1.559 1.498 3.429-.371 1.102-1.103 1.571-3.49 1.571-8V33h-12v3c0 2.559.38 3 2.583 3 3.681 0 2.515 2.425-1.351 2.809-6.262.621-9.484-6.345-4.918-10.635 2.574-2.417 4.797-2.72 7.877-1.072 1.542.826 2.664.778 4.471-.189 3.185-1.704 2.626-3.758-1.646-6.046-4.418-2.367-8.691-2.369-12.516-.006m32-.458c-9.233 4.075-10.748 15.66-2.943 22.513 3.404 2.988 3.822 3.089 11.736 2.841l8.207-.257.292-7.75.292-7.75H131v3c0 2.693.32 3 3.122 3 2.708 0 2.952.206 1.836 1.551-1.965 2.368-6.907 1.424-9.283-1.772-1.701-2.289-1.838-3.126-.863-5.265 1.764-3.872 5.727-5.315 9.172-3.338 2.612 1.499 2.931 1.467 5.477-.563 2.603-2.076 2.635-2.216.869-3.814-4.115-3.724-9.757-4.636-14.83-2.396M29.22 35.75l.28 12.75 3.25.313c3.028.292 3.25.104 3.25-2.75 0-2.958.152-3.063 4.444-3.063 6.149 0 9.58-3.036 10.261-9.079.435-3.858.118-4.978-2.187-7.717C45.877 23.065 45.652 23 37.381 23H28.94zm27.936-2.666c.339 9.947.388 10.123 3.61 13C63.404 48.44 64.946 49 68.793 49 77.718 49 81 44.17 81 31.032V23h-7v8.3c0 9.008-.79 10.7-5 10.7s-5-1.692-5-10.7V23h-7.187zm91.971-6.334a931 931 0 0 0 5.082 8.196c2.064 3.287 2.791 5.714 2.791 9.313v4.868l3.25-.314c3.159-.304 3.265-.467 3.785-5.813.422-4.336 1.531-7.034 5.244-12.75l4.708-7.25h-4.309c-3.987 0-4.478.3-6.558 4-1.236 2.2-2.439 4-2.671 4-.233 0-1.56-1.8-2.949-4-2.271-3.598-2.934-4-6.594-4h-4.069zM36.713 29.621c-.392.392-.713 1.987-.713 3.546 0 2.576.32 2.833 3.531 2.833 3.876 0 5.511-2.115 3.777-4.886-1.071-1.712-5.398-2.691-6.595-1.493m54.94 22.246c-1.618.637-1.661.881-.35 1.969 1.309 1.087 3.358 7.592 5.17 16.414.613 2.981 2.057 3.377 5.914 1.62l2.48-1.131-2.069-2.798c-1.294-1.751-1.855-3.614-1.499-4.977.708-2.706-.768-6.755-3.54-9.714-2.217-2.367-3.098-2.566-6.106-1.383m12.95 3.539c2.451 4.384 5.315 6.636 5.487 4.313.05-.671.529.305 1.064 2.167 1.389 4.831 3.005 2.554 2.225-3.137-.575-4.197-.783-4.488-2.193-3.078s-1.639 1.336-2.421-.779c-.983-2.656-2.511-3.855-4.945-3.877-1.452-.013-1.347.58.783 4.391M81 53.658c-.825.275-2.048.67-2.717.877-.927.287-.864 1.224.262 3.919.814 1.948 1.767 6.94 2.118 11.093.536 6.333.897 7.46 2.238 6.989.879-.309.474.334-.901 1.429-2.09 1.664-2.205 1.994-.7 2.013 2.411.03 7.7-2.767 7.7-4.071 0-.579-1-.794-2.25-.485-1.237.307-.78-.117 1.017-.942 2.574-1.182 3.169-1.974 2.807-3.74-1.998-9.745-3.026-13.045-4.744-15.228-2.04-2.594-2.305-2.696-4.83-1.854m33.079 1.925c.048 1.165.285 1.402.604.605.289-.722.253-1.585-.079-1.917s-.568.258-.525 1.312m4.921.84c0 1.333 1.181 3.827 2.624 5.542 2.074 2.465 2.51 3.822 2.079 6.475-.521 3.214-.377 3.399 3.376 4.352 4.586 1.164 4.642.999 2.324-6.808C127.865 60.806 122.582 54 120.1 54c-.605 0-1.1 1.09-1.1 2.423m-52.5 3.249c-1.65.876-3.105 1.675-3.233 1.776s.294 1.577.936 3.28c.778 2.061 2.027 3.27 3.733 3.614 1.41.285 3.351.823 4.314 1.195 1.465.567 1.75.1 1.75-2.865 0-4.484-1.569-8.684-3.225-8.632-.701.022-2.625.756-4.275 1.632m64.5-1.299c0 .205.855 2.342 1.901 4.75 1.045 2.407 2.191 6.181 2.547 8.386.497 3.083 1.361 4.419 3.741 5.785l3.095 1.776-.66-5.609c-.909-7.737-2.924-12.048-6.496-13.895-3.04-1.572-4.128-1.886-4.128-1.193m13.395 11.057c.909 3.921 1.342 4.474 3.081 3.941 3.171-.971 3.14-1.222-.608-4.969l-3.532-3.532zm-91.723 2.041c-2.572 2.572-2.063 3.204 3.078 3.819 2.612.312 5.538.873 6.5 1.246 1.386.537 1.75.148 1.75-1.87 0-3.036-.489-3.401-5.674-4.23-3.01-.481-4.391-.229-5.654 1.035m55.412 1.477c-1.032.638-.723 1.242 1.313 2.577 2.159 1.414 3.741 1.602 8.382.993 3.147-.413 6.958-.691 8.471-.618 3.855.185 3.445-1.704-.5-2.301-7.243-1.097-16.399-1.434-17.666-.651M94.5 77c-1.771 1.957-1.747 2 1.095 1.986 1.598-.007 3.927-.287 5.176-.622 1.796-.481 2.032-.897 1.128-1.986-1.658-1.997-5.307-1.69-7.399.622m-28 2.361c-2.2.709-5.125 1.91-6.5 2.668-1.459.804-4.684 1.27-7.745 1.117-4.777-.237-5.35-.031-6.413 2.301-1.454 3.192-.68 4.072 2.217 2.522 1.242-.665 3.968-.96 6.158-.667 3.812.512 11.858-1.467 14.545-3.576.694-.545 2.699-1.158 4.454-1.363 3.059-.356 5.629-1.858 4.717-2.757-1.247-1.231-7.933-1.374-11.433-.245m44.75.328c.963.252 2.537.252 3.5 0 .963-.251.175-.457-1.75-.457s-2.713.206-1.75.457m16.5.973c.688.278 1.813.278 2.5 0 .688-.277.125-.504-1.25-.504s-1.937.227-1.25.504m-37.994 1.87c-5.332 1.714-14.829 9.989-21.728 18.932-3.56 4.615-4.294 6.374-4.749 11.397-.639 7.043.225 12.5 2.307 14.582 1.706 1.706 9.588 4.293 16.665 5.469 3.53.587 5.037.445 5.863-.549.851-1.026.675-1.478-.751-1.933-4.985-1.587-6.148-2.562-8.531-7.156-3.207-6.181-2.724-11.519 1.315-14.534 2.707-2.022 3.513-2.065 25.853-1.378 4.32.132 4.512.016 4.799-2.913.411-4.209-2.668-6.751-9.132-7.538l-5.167-.629 4.3-.141c7.73-.253 12.2 3.461 12.2 10.137 0 2.863-.803 4.086-5.016 7.638-2.759 2.327-6.56 6.643-8.447 9.593s-4.355 5.858-5.484 6.463c-2.055 1.1-2.813 3.028-1.191 3.028 1.467 0 8.107-5.685 11.232-9.618 5.752-7.238 11.561-9.293 19.509-6.901 2.642.795 4.956 1.293 5.143 1.107.186-.187-.973-1.443-2.577-2.792-6.049-5.091-6.599-9.097-1.972-14.367 3.127-3.562 3.317-3.628 8.75-3.042 12.501 1.35 11.567 1.57 11.434-2.696-.16-5.112-4.245-9.32-10.853-11.179-7.892-2.221-37.828-2.892-43.772-.98m25.274 4.777c-.016 1.545-.461 2.543-.988 2.217-.527-.325-.304.66.494 2.191.903 1.73 1.454 5.715 1.458 10.533.004 5.14.391 7.75 1.148 7.75 1.353 0 .298-21.436-1.178-23.958-.691-1.18-.91-.883-.934 1.267M151 89.893c0 .491.675 1.152 1.5 1.469.914.35 1.5.001 1.5-.893 0-.808-.675-1.469-1.5-1.469s-1.5.402-1.5.893m-24.6 9.824c-1.941 1.381-3.529 5.301-2.922 7.213.531 1.675 1.696 1.84 12.052 1.712 6.305-.078 11.465-.298 11.467-.488.015-1.619-3.892-6.269-5.938-7.065-3.597-1.399-13.34-2.311-14.659-1.372m-89.793 11.865C34.827 116.22 35.676 117 42.5 117c5.77 0 6.5-.218 6.5-1.943 0-1.069-1-2.644-2.223-3.5-2.964-2.076-9.37-2.061-10.17.025m56.475 6.171c1.054 1.694 1.13 2.688.304 4-2.29 3.635-6.636 2.185-6.636-2.214 0-1.91-.31-2.379-1.07-1.619-.721.721-.756 1.967-.106 3.825C87.316 126.728 95 125.713 95 120.5c0-1.24-.747-2.873-1.661-3.628-1.52-1.256-1.542-1.182-.257.881m45.083 4.939c-.772 1.441-.826 2.399-.161 2.811 1.172.724 2.384-1.838 1.758-3.717-.276-.829-.84-.509-1.597.906m-97.706 1.375c-.363.586-.445 1.281-.183 1.543s.743-.218 1.069-1.067c.676-1.762.1-2.072-.886-.476m106.606 1.311c-2.004 3.745-.885 5.442 1.81 2.747 2.231-2.231 2.431-4.19.494-4.835-.554-.185-1.59.755-2.304 2.088m-114.268 1.553c-.621 4.233 2.693 4.955 4.723 1.03 1.977-3.823 1.928-3.961-1.407-3.961-2.427 0-2.954.466-3.316 2.931m14.225-1.181c.012.412.809 1.771 1.769 3.02 1.265 1.642 3.193 2.441 6.978 2.889l5.231.62v-3.004c0-2.815-.291-3.043-4.64-3.639-6.147-.843-9.365-.803-9.338.114M45 127.378c0 .207.788.995 1.75 1.75 1.586 1.243 1.621 1.208.378-.378-1.307-1.666-2.128-2.195-2.128-1.372m111 4.122c0 2.111.467 2.5 3 2.5 1.65 0 3-.413 3-.918 0-2.45-1.442-4.082-3.607-4.082-1.886 0-2.393.53-2.393 2.5m7 1.5c0 .55.477 1 1.059 1s.781-.45.441-1-.816-1-1.059-1-.441.45-.441 1m10 1.059c0 .582.45.781 1 .441s1-.816 1-1.059-.45-.441-1-.441-1 .477-1 1.059m-79.921 1.691c.048 1.056.28 1.252.585.494.279-.691.988-.959 1.576-.596.632.391.777.189.355-.493-1.078-1.745-2.605-1.384-2.516.595M36 138.079c0 .68-1.113.836-3 .421-2.714-.596-3-.419-3 1.862 0 2.967.34 3.236 5.258 4.159 3.065.575 3.742.41 3.742-.91 0-.886-.675-1.611-1.5-1.611s-1.5-.675-1.5-1.5.675-1.5 1.5-1.5 1.5-.45 1.5-1-.675-1-1.5-1-1.5.486-1.5 1.079m5.25.313c2.145 1.628 2.282 3.608.25 3.608-2.354 0-1.753 2.699.75 3.37 1.237.331 4.638.609 7.557.616l5.306.014-1.706-2.888c-1.308-2.215-2.658-3.016-5.785-3.436-2.244-.301-4.239-1.026-4.434-1.611-.195-.586-1.105-1.051-2.021-1.033-1.516.029-1.508.152.083 1.36M57 140.55c0 .353.931 1.948 2.068 3.546 1.595 2.24 2.853 2.904 5.5 2.904 3.868 0 4.133-.58 1.66-3.633C64.64 141.406 57 139.075 57 140.55m102.17 2.179c-2.474.304-3.182.799-2.75 1.922.319.832.58 1.926.58 2.431s1.298.918 2.883.918c2.145 0 3.038-.576 3.487-2.25.803-2.999.777-3.781-.12-3.59-.412.088-2.249.344-4.08.569M65 151.364c0 .75-1.105 2.469-2.456 3.82-2.895 2.894-4.544 6.823-4.544 10.824 0 1.841-.801 3.44-2.223 4.435-1.222.856-1.842 1.557-1.377 1.557s.227.761-.528 1.692c-1.183 1.459-1.165 1.573.128.828q1.497-.861-.33 1.226c-2.22 2.533-1.852 6.475.637 6.833.993.143 1.635-.253 1.426-.881-.429-1.286 3.614-5.698 5.222-5.698.575 0 1.045-.724 1.045-1.608 0-1.203.611-1.455 2.423-1.001 1.735.436 3.268-.102 5.395-1.891 1.634-1.375 3.416-2.5 3.961-2.5s1.728-1.125 2.629-2.5c1.601-2.444 1.58-2.5-.944-2.5-1.42 0-2.336-.399-2.035-.886s3.479-.65 7.062-.363l6.514.523-.646-3.387c-.356-1.863-.838-3.606-1.072-3.873s-4.2-.492-8.813-.5-7.62-.303-6.681-.657c1.596-.601 1.594-.689-.043-1.357-.963-.393-1.75-1.341-1.75-2.107S67.325 150 66.5 150s-1.5.614-1.5 1.364m93.321 1.796c-.593.74-.743 2.236-.336 3.34.406 1.1.527 2.563.27 3.25-.312.831.656 1.294 2.888 1.382l3.357.131-3.272.619c-2.15.406-3.737 1.52-4.628 3.248-1.321 2.56-1.255 2.664 2.489 3.899 4.689 1.548 6.37.51 8.003-4.942 1.729-5.771.943-8.526-2.545-8.923-1.624-.185-3.447-1.013-4.052-1.84-.912-1.247-1.284-1.275-2.174-.164M72 159l-2.5.801 2.75.099c1.513.055 2.75-.35 2.75-.9s-.112-.955-.25-.9-1.375.46-2.75.9m-37 3.583c0 1.766 2.153 1.459 2.771-.395.218-.654-.317-1.188-1.188-1.188S35 161.713 35 162.583m4-.583c0 .55.675 1 1.5 1s1.5-.45 1.5-1-.675-1-1.5-1-1.5.45-1.5 1m-4.2 4.2c.933.933 1.467.933 2.4 0s.667-1.2-1.2-1.2-2.133.267-1.2 1.2m4.2-.2c0 .55.675 1 1.5 1s1.5-.45 1.5-1-.675-1-1.5-1-1.5.45-1.5 1m120.813-.317c.721.289 1.584.253 1.916-.079s-.258-.568-1.312-.525c-1.165.048-1.402.285-.604.604M96 167c.825.533 2.175.945 3 .914.989-.036.819-.347-.5-.914-2.749-1.181-4.328-1.181-2.5 0m-6.101 2.322c-.992 2.177-1.409 2.274-6.701 1.556-3.104-.421-5.743-.667-5.864-.546s.669 1.624 1.755 3.339c1.38 2.18 3.048 3.32 5.545 3.788 1.964.369 3.668.528 3.788.355C89.789 175.837 92.65 167 91.923 167c-.531 0-1.442 1.045-2.024 2.322M94 170.393c0 .766-.787 1.703-1.75 2.082-1.329.524-.547 1.151 3.25 2.607 2.75 1.054 5.739 1.917 6.643 1.917.904.001 1.924.734 2.268 1.63.516 1.344.118 1.527-2.276 1.048-7.708-1.542-8.485-1.58-4.635-.232 5.811 2.036 8.03 1.871 9.368-.695 1.141-2.187 1.159-2.176.659.398-.283 1.457.155 3.932.973 5.5 1.331 2.552 1.488 2.622 1.494.661.003-1.205-.401-2.443-.899-2.75-.497-.308-.667-2.331-.377-4.495l.528-3.937-3.873.317c-2.13.175-3.31.109-2.623-.147 1.266-.47 1.789-3.297.61-3.297-.352 0-1.157.707-1.789 1.572-.821 1.123-1.944 1.373-3.933.873-1.983-.497-2.476-1.007-1.711-1.772 1.516-1.516 1.331-2.673-.427-2.673-.825 0-1.5.627-1.5 1.393m51.324-.032c.519 1.382.322 1.717-.762 1.301-1.029-.395-1.277-.084-.841 1.053.351.914.202 1.355-.343 1.018-.53-.327-1.032.322-1.116 1.442-.143 1.89-.025 1.921 1.623.429 2.405-2.176 3.448-.878 1.218 1.516-1.01 1.084-1.844 3.647-1.934 5.94-.189 4.809.494 4.577 6.748-2.294 4.981-5.473 4.946-7.843-.106-7.169l-3.311.442 2.5-1.484c2.223-1.32 2.06-2.072-.355-1.638-.471.084-1.567-.425-2.437-1.132-1.358-1.102-1.483-1.021-.884.576m-105.245 2.222c.048 1.165.285 1.402.604.605.289-.722.253-1.585-.079-1.917s-.568.258-.525 1.312m90.776-.877c-2.037.313-2.744 1.083-3.077 3.35l-.432 2.944h6.327c4.388 0 6.331-.383 6.341-1.25.007-.687.285-2.262.616-3.5.554-2.065.286-2.238-3.263-2.1-2.127.082-5.057.333-6.512.556M107 172.829c0 .457 1.013.794 2.25.75 1.895-.066 2.299.512 2.56 3.671.335 4.048 1.637 4.974 2.477 1.762.657-2.514-2.781-7.012-5.36-7.012-1.06 0-1.927.373-1.927.829m9.75 1.945c-2.09.445-2.356 2.226-.332 2.226 2.02 0 4.582-1.085 4.582-1.94 0-.782-1.458-.88-4.25-.286m-26.017 2.35c.679.684 1.486.991 1.793.683.308-.308-.247-.867-1.233-1.243-1.425-.542-1.54-.428-.56.56M115.5 180c-.34.55.11 1 1 1s1.34-.45 1-1-.79-1-1-1-.66.45-1 1m-26.271 9.428c1.236 1.886 2.312 3.349 2.391 3.25.078-.098-.08-1.641-.352-3.428-.358-2.35-1.02-3.25-2.391-3.25-1.792 0-1.773.187.352 3.428M125 190c0 3.997.003 4 3.98 4 3.636 0 4.155-.345 6.02-4l2.041-4H125zm-42 2.5c0 .862.902 1.5 2.122 1.5 1.774 0 1.918-.247.878-1.5-.685-.825-1.64-1.5-2.122-1.5-.483 0-.878.675-.878 1.5"/><path fill-opacity=".064" fill-rule="evenodd" d="M0 100v100h38.878c33.337 0 39.054-.214 40.122-1.5 1.597-1.925 3.9-1.925 4.638 0 .388 1.01 1.974 1.5 4.852 1.5 5.483 0 6.314-2.314 2.758-7.682-3.488-5.267-3.819-5.56-3.819-3.377 0 1.052.423 1.651.94 1.331s.614-.054.216.59c-1.005 1.627-2.628.413-1.919-1.435.364-.948.069-1.401-.793-1.218-.832.176-1.256-.405-1.076-1.475.173-1.024-.247-1.654-1-1.5-.752.154-1.172-.476-1-1.5.173-1.024-.247-1.654-1-1.5-.752.154-1.172-.476-1-1.5.164-.971-.128-1.646-.65-1.5-.521.146-.992-.072-1.047-.484-.406-3.043.375-2.562 3.653 2.25 2.97 4.36 4.31 5.508 6.463 5.537 2.385.032 2.641-.26 2.102-2.405-.547-2.181-.356-2.378 1.785-1.837 2.312.584 2.326.555.397-.811-1.1-.779-2.544-1.881-3.208-2.45S87.265 178 85.042 178s-4.052-.338-4.064-.75-.943-1.875-2.067-3.25c-1.754-2.144-1.893-2.189-.975-.311.588 1.204.681 2.43.206 2.723-1.301.804-2.082-.405-1.403-2.174.413-1.076.212-1.326-.643-.797-.933.576-.915.242.071-1.336 1.105-1.769 2.295-2.105 7.467-2.105 4.66 0 6.298-.38 6.753-1.565.461-1.202.137-1.419-1.393-.933-1.553.493-1.994.176-1.994-1.435 0-1.617-.635-2.067-2.918-2.067-1.605 0-3.597-.261-4.427-.579-1.114-.427-1.375-.065-.996 1.383.318 1.217-.201 2.481-1.366 3.329-5.041 3.667-10.664 11.169-11.877 15.846-1.641 6.325-7.149 13.929-10.127 13.982-2.945.052-5.948-3.33-6.749-7.601-.826-4.399 1.545-12.742 5.097-17.938 1.474-2.157 3.277-5.882 4.006-8.278s2.232-5.824 3.341-7.618c2.341-3.788 2.49-4.621.766-4.276-.702.14-1.12-.524-.953-1.516.164-.971-.061-1.646-.5-1.5Q59 149.668 59 146.768c0-.678 1.141.447 2.536 2.5S64.307 153 64.595 153s.243-.453-.099-1.007c-1.438-2.326 2.676-2.026 5.566.406 2.627 2.211 4.055 2.601 9.515 2.601 6.185 0 6.423.093 6.423 2.5 0 1.375.408 2.5.906 2.5s.652-.976.34-2.169c-.477-1.822-.262-2.045 1.343-1.397 1.051.424 3.261 1.248 4.911 1.831 4.33 1.531 9.615 5.279 8.745 6.201-.41.434.626.598 2.302.365 2.841-.396 3.019-.237 2.638 2.36-.436 2.973 1.642 4.652 3.975 3.21 1.895-1.171 5.823-1.39 5.965-.333.069.513.181 1.457.25 2.099.179 1.672 2.602 2.26 2.743.666.066-.733.066-1.671 0-2.083-.065-.412.557-.75 1.382-.75s1.5.498 1.5 1.107c0 .623.73.827 1.67.466.921-.353 2.036-.065 2.485.643.634 1 .818 1.007.83.034.01-.881 2.102-1.25 7.074-1.25 3.882 0 6.827.375 6.544.833-.283.459.063.834.77.834.788 0 1.122-.858.862-2.216-.579-3.033 1.703-4.246 3.487-1.854.781 1.047 1.774 1.812 2.207 1.7.433-.111 2.033 1.098 3.557 2.688l2.769 2.89-2.187 8.849c-2.978 12.054-2.962 12.036-7.915 8.758-4.539-3.003-6.445-8.183-4.286-11.641.633-1.013.728-1.841.211-1.841-.569 0-.597-1.19-.072-3.019.531-1.852.504-2.796-.07-2.441-.515.318-.936 1.191-.936 1.94 0 1.603-4.447 2.745-9.74 2.5-5.418-.251-6.446-.091-5.83.907.302.488-.009.867-.691.843-3.303-.119-5.739.352-5.739 1.109 0 .462 1.368.758 3.039.659 3.153-.188 5.018 1.231 3.142 2.39-.692.428-.743 1.191-.144 2.138.817 1.292.934 1.289.946-.026.011-1.201 1.194-1.433 5.938-1.165l5.925.335-1.767 4.165c-1.584 3.734-2.194 4.223-5.901 4.729-2.504.342-4.31.145-4.578-.5-.243-.585-.478.404-.521 2.198l-.079 3.262 38.25-.262 38.25-.262.255-99.75L201.01 0H0zm.481.5c0 55 .121 77.647.269 50.326.148-27.32.148-72.32 0-100C.602 23.147.481 45.5.481 100.5m28.954-77.192c-.276.72-.374 6.682-.218 13.25L29.5 48.5H33c3.075 0 3.538-.334 3.816-2.75.287-2.49.696-2.75 4.327-2.75 7.957 0 12.332-8.314 8.387-15.941-.822-1.59-2.87-3.331-4.649-3.951-4.522-1.576-14.815-1.443-15.446.2m28.278-.687c-1.116 1.115-.835 16.731.362 20.164 3.063 8.788 17.115 8.865 21.679.119.801-1.535 1.163-5.658 1-11.404l-.254-9-3.25-.313-3.25-.314v8.129c0 4.471-.466 9-1.035 10.064-1.184 2.212-6.367 2.675-7.656.684-.445-.687-1.034-5.075-1.309-9.75-.483-8.203-.589-8.51-3.037-8.796-1.396-.163-2.859.025-3.25.417m36.543 1.024c-10.05 4.954-9.39 19.592 1.116 24.739 3.195 1.566 4.445 1.701 7.39.797 2.334-.716 4.163-.757 5.357-.118C110.73 50.461 113 45.572 113 38.55V33h-13v3.5c0 3.135.287 3.507 2.75 3.568 2.653.065 2.673.105.564 1.124-5.311 2.567-10.866-2.49-8.483-7.721 1.559-3.421 4.895-4.561 8.735-2.985 2.686 1.102 3.401 1.013 5.783-.722 2.214-1.613 2.493-2.249 1.507-3.438-3.541-4.267-10.955-5.464-16.6-2.681m31.048.311c-6.618 4.036-8.588 10.353-5.444 17.461 1.683 3.805 2.905 5.034 6.65 6.691 3.308 1.463 5.482 1.823 7.789 1.291 1.761-.406 4.664-.627 6.451-.492l3.25.246V33h-13v3.5c0 3.088.301 3.5 2.559 3.5 1.451 0 2.292.433 1.941 1-1.043 1.688-6.091 1.11-7.915-.906-2.666-2.946-1.763-8.257 1.684-9.901 2.322-1.107 3.231-1.09 5.625.104 2.511 1.253 3.174 1.232 5.486-.171 3.193-1.937 2.958-2.954-1.355-5.876-4.108-2.784-9.45-2.898-13.721-.294M147 22.967c0 .532 2.25 4.511 5 8.842 4.157 6.548 5 8.661 5 12.533 0 4.657.001 4.658 3.5 4.658h3.5v-4.979c0-4.254.718-6.105 4.93-12.708 2.712-4.251 4.711-8.085 4.441-8.521-.269-.436-1.984-.792-3.812-.792-2.847 0-3.749.657-6.306 4.586l-2.983 4.587-2.332-3.837c-1.283-2.11-2.806-4.167-3.385-4.571-1.553-1.083-7.553-.923-7.553.202M37 33c0 2.925.209 3.107 3.25 2.813 2.716-.262 3.25-.723 3.25-2.813s-.534-2.551-3.25-2.813C37.209 29.893 37 30.075 37 33m78 12.059c0 .582.45.781 1 .441s1-.816 1-1.059-.45-.441-1-.441-1 .477-1 1.059m-5 5.818c0 .483-2.138.644-4.75.359-4.583-.501-4.693-.453-3.128 1.372.891 1.041 2.168 2.947 2.836 4.237 1.051 2.031.934 2.542-.872 3.807-1.147.804-2.086 2.197-2.086 3.096 0 1.435.152 1.453 1.25.144.688-.82 2.15-2.128 3.25-2.908s1.665-1.023 1.256-.54.246 1.371 1.457 1.975c1.21.603 2.513 2.218 2.894 3.589s.738 1.779.793.909c.111-1.761 3.023-2.211 3.234-.5.073.596.45-1.167.836-3.917.733-5.209-.371-11.5-2.017-11.5-.524 0-.967.563-.983 1.25-.017.694-.484.471-1.05-.5-1.066-1.83-2.92-2.384-2.92-.873M90 52c-.825.533-1.01.976-.411.985.6.008 1.589 1.11 2.199 2.449 1.702 3.735-.695 3.881-4.508.276-3.101-2.931-3.373-2.999-7.322-1.816-2.982.894-3.832 1.553-3.115 2.418.732.882-.188 1.265-3.575 1.488-4.725.311-10.175 2.526-10.393 4.226-.069.536-.181 1.44-.25 2.01-.069.571-.8 1.464-1.625 1.985-1.227.776-1.121.951.578.964 2.235.016 13.737 3.881 16.767 5.633 1.222.708 1.879 2.3 1.948 4.725.114 4.041.849 4.353 5.071 2.151C88.763 77.722 89 77.691 89 79.025c0 .563-1.013 1.443-2.25 1.955-1.237.511-3.375 1.884-4.75 3.05-2.101 1.783-1.783 1.719 2-.398 7.005-3.921 12.586-4.743 26.792-3.947 9.616.54 11.735.882 8.708 1.409-2.2.383-6.406.31-9.346-.162-6.792-1.091-18.933.404-23.911 2.944-4.391 2.24-19.308 17.414-21.737 22.112-.911 1.763-2.168 6.953-2.793 11.533l-1.135 8.327-6.789-.569c-3.734-.313-6.789-.236-6.789.172 0 .407.931 2.047 2.068 3.645 1.826 2.563 2.676 2.905 7.25 2.912 4.973.007 5.272.165 7.407 3.904 1.678 2.939 3.798 4.663 8.625 7.015 6.808 3.317 9.623 3.221 12.653-.431 1.246-1.501 1.187-1.884-.482-3.104-1.047-.766-2.547-1.392-3.335-1.392-1.158 0-1.194-.285-.186-1.5 1.821-2.194 3.89-1.835 5.132.89 1.985 4.358 10.919 6.997 18.334 5.415 4.98-1.062 6.664-2.618 7.105-6.567.482-4.312-4.431-8.997-7.999-7.627-2.391.917-1.898-.472 1.588-4.479 4.753-5.462 7.771-7.118 12.984-7.125 5.077-.008 5.507.302 15.663 11.265 2.918 3.15 5.731 5.728 6.25 5.728.518 0 .943.45.943 1s.585 1 1.3 1c2.431 0 3.664 2.084 2.416 4.083-.627 1.004-.815 2.151-.418 2.549.728.727 1.956-.41 6.892-6.386 1.478-1.789 2.966-2.802 3.308-2.25s2.198 1.004 4.127 1.004c3.237 0 3.483-.213 3.191-2.75-.272-2.365-.821-2.792-3.922-3.052l-3.605-.302-1.147-8.198c-1.314-9.392-7.069-27.784-9.866-31.53-2.518-3.372-7.595-5.898-14.287-7.108l-5.489-.992 6 .38 6 .38-4-1.337c-2.2-.736-5.013-1.372-6.25-1.414s-2.25-.46-2.25-.928 1.237-.792 2.75-.719c1.513.072 3.613-.276 4.668-.774 1.822-.861 1.796-.977-.5-2.323l-2.418-1.416 2.396.655c2.331.638 2.377.537 1.698-3.708-.383-2.4-1.806-6.256-3.161-8.568-3.731-6.368-9.433-9.638-9.433-5.411 0 2.57 2.464 8.247 3.588 8.266.502.009 1.137.275 1.412.593s.05.351-.5.075-1.787.327-2.75 1.34c-2.023 2.129-.031 2.67 2.179.591 1.094-1.029 1.208-.737.642 1.655q-.686 2.904.621 3.792c.814.551-.014.666-2.192.302-1.925-.321-6.352-.677-9.837-.791-5.573-.183-6.628-.546-8.75-3.014-2.598-3.02-3.066-5.641-1.32-7.387 1.259-1.259-.066-4.405-3.392-8.057C96.566 50.906 92.579 50.334 90 52m41.545 9.25c1.336 2.337 2.717 6.376 3.068 8.975.546 4.044 1.146 5.025 4.153 6.8l3.516 2.074-.51-6.345c-.677-8.436-2.689-12.104-7.754-14.13-2.232-.893-4.248-1.624-4.48-1.624s.671 1.913 2.007 4.25m-23.234 3.501c1.394 1.571 1.509 2.162.5 2.566-.856.343-.704.552.439.604 2.503.113 2.163-2.634-.5-4.031-2.206-1.158-2.215-1.141-.439.861m35.137 2.467c.854 2.045 1.552 4.623 1.552 5.728 0 1.782.285 1.881 2.5.872 1.375-.626 2.5-1.425 2.5-1.776 0-.35-1.823-2.415-4.052-4.589l-4.051-3.953zm-89.219 2.536c-.699.235-1.947 1.733-2.772 3.33l-1.502 2.903 3.773-.124C57.193 75.748 66 77.596 66 78.438c0 .198-1.814 1.306-4.031 2.461C59.212 82.336 56.087 83 52.078 83c-5.561 0-5.896.141-6.548 2.75-.377 1.513-1.396 3.537-2.263 4.5-.973 1.08-1.135 1.75-.422 1.75.635 0 1.155.914 1.155 2.031 0 2.759 2.422 3.488 5.176 1.558 1.248-.874 3.406-1.587 4.797-1.584s4.69-.77 7.333-1.718c3.471-1.244 5.001-1.408 5.507-.59.519.84 1.1.831 2.247-.032C70.827 90.334 79 79.651 79 78.671c0-.356-1.813-.937-4.029-1.292-2.216-.354-5.653-1.934-7.638-3.511-1.984-1.578-3.884-2.879-4.221-2.892-.336-.013-2.187-.389-4.112-.836s-4.072-.62-4.771-.386M110 70c0 .55.477 1 1.059 1s.781-.45.441-1-.816-1-1.059-1-.441.45-.441 1m-9.461 2.73c-1.698.431-1.564.664 1 1.745 3.391 1.428 4.62 1.103 3.81-1.007-.574-1.498-1.349-1.617-4.81-.738M106 76.932c0 .89 6.081 2.089 10 1.971l2.5-.075-2.5-.751c-4.448-1.337-10-1.973-10-1.145m41 11.835c0 2.476 6.891 8.009 8.264 6.635.285-.285.034-1.802-.559-3.372-.83-2.2-1.837-2.943-4.391-3.242-1.823-.212-3.314-.222-3.314-.021M112.158 106c0 1.375.227 1.938.504 1.25.278-.687.278-1.812 0-2.5-.277-.687-.504-.125-.504 1.25m10.002 1.025c-.135 2.971.533 4.177 4.254 7.679 2.428 2.285 6.273 7.336 8.544 11.225 4.125 7.062 6.244 8.469 8.842 5.871.66-.66 1.2-2.028 1.2-3.04s.9-3.604 2-5.76c2.416-4.735 2.596-10.26.394-12.088-2.381-1.976-15.103-1.815-19.102.243-3.796 1.952-4.914 1.114-5.55-4.159l-.422-3.496zm-85.009 3.846C35.968 113.621 35 117.7 35 119.935S34.59 124 34.088 124s-1.2 1.912-1.552 4.25-1.153 6.391-1.78 9.009c-1.408 5.885-.548 6.986 5.733 7.341 2.5.141 6.06.756 7.912 1.367 3.401 1.123 10.599 1.136 10.599.02 0-.333-.661-1.478-1.468-2.546-2.063-2.728-1.878-3.696.468-2.441 1.1.589 2 .817 2 .507s-2.957-4.667-6.572-9.682-6.189-9.389-5.721-9.721.79-1.553.716-2.712c-.1-1.55.422-2.079 1.97-2 1.431.073 2.204-.574 2.41-2.017.414-2.898-2.321-5.375-5.933-5.375-1.644 0-2.766-.359-2.495-.798s.141-1.368-.29-2.064c-.52-.842-1.506.413-2.934 3.733m46.898-2.91c-4.983 1.254-6.29 3.528-5.485 9.539 1.138 8.49 3.52 11.39 10.609 12.922 3.357.725 7.575-2.61 11.266-8.908 1.434-2.447 4.622-5.836 7.084-7.53 2.463-1.694 4.477-3.564 4.477-4.154 0-.744-.416-.73-1.349.045-1.005.834-2.601.741-6.25-.365-6.335-1.92-15.967-2.654-20.352-1.549m2.201 8.701c-1.768.714-1.553 5.892.321 7.767 1.909 1.908 1.696 1.904 5.961.122 2.293-.958 3.468-2.116 3.468-3.418 0-3.322-1.121-5.133-3.178-5.133-1.786 0-1.822.143-.393 1.571 1.973 1.974 1.973 2.884.002 4.856-1.185 1.184-2.043 1.316-3.5.536-2.177-1.165-2.532-3.962-.731-5.763 1.216-1.216.333-1.459-1.95-.538m55.251 1.304c.486.806 1.196 3.056 1.577 5l.692 3.534.115-3.628c.073-2.31-.499-4.125-1.577-5-1.453-1.179-1.567-1.165-.807.094m-4.05 4.037c-.032 2.684.389 3.997 1.282 3.997 1.971 0 2.683-2.791 1.42-5.564-1.626-3.567-2.646-2.975-2.702 1.567M157 119.5c-1.02 1.229-.951 1.5.378 1.5.892 0 1.622-.675 1.622-1.5s-.17-1.5-.378-1.5c-.207 0-.937.675-1.622 1.5m-75 1.941c0 1.343.369 2.669.819 2.947.451.279.624-.82.387-2.441-.525-3.574-1.206-3.86-1.206-.506m-41.773 1.809c-.56.688-1.706 2.911-2.547 4.941-1.32 3.186-1.334 3.851-.104 4.872.783.65 1.424 1.802 1.424 2.559 0 1.993.783 1.715 3.533-1.252l2.437-2.629 1.987 2.379c1.093 1.309 2.245 3.138 2.561 4.064.317.927 1.424 1.621 2.462 1.543 1.685-.127 1.562-.577-1.143-4.185-1.667-2.223-4.175-5.733-5.572-7.8-2.004-2.963-2.829-3.519-3.903-2.627-1.624 1.347-1.851 4.305-.255 3.319.759-.469.881.064.388 1.691-1.004 3.314-2.483 4.678-1.919 1.769.417-2.149.368-2.189-.485-.394-.944 1.987-.951 1.987-1.021-.039-.038-1.121.781-3.708 1.822-5.75 1.969-3.861 2.068-4.589.335-2.461m123.801 6.176c-1.266 3.331-1.332 6.574-.133 6.574.832 0 2.162-8.027 1.472-8.889-.171-.213-.774.828-1.339 2.315m6.76.049c2.89 2.432 3.508 5.619 1.667 8.598-.462.747-.22 1.018.656.73 2.567-.844 2.26-6.523-.503-9.286-1.385-1.385-3.022-2.517-3.639-2.517s.201 1.114 1.819 2.475m-33.092 6.785c-1.096.82-1.362 1.71-.785 2.625.695 1.101 1.118.929 2.063-.836 1.454-2.718.936-3.444-1.278-1.789m-7.469 1.913c.513 1.531 4.778 1.817 4.812.323.013-.548-1.165-1.143-2.617-1.323-1.845-.228-2.506.073-2.195 1m-93.56 1.494C35.172 141.161 36.191 142 39.5 142c2.444 0 3.5-.452 3.5-1.5 0-1.529-4.982-2.185-6.333-.833m20.609 1.611c.464 1.207.086 1.491-1.584 1.192-1.905-.342-1.983-.235-.593.818.88.667 1.667 1.55 1.75 1.962.202 1.004 1.164 1.088 1.984.173.367-.409.035-.377-.738.071-.973.565-1.173.44-.65-.405.57-.922 1.192-.823 2.552.408 1.202 1.089 3.157 1.524 5.897 1.315l4.098-.312-2.252-2.812c-1.637-2.046-3.454-2.974-6.662-3.404-3.754-.504-4.32-.356-3.802.994m108.967.972c-.551.688-1.758 3.887-2.682 7.109-1.488 5.187-1.828 5.657-2.969 4.098-2.089-2.857-3.831-.833-3.085 3.582.45 2.668.127 4.93-1.064 7.439-1.588 3.348-1.592 3.692-.059 4.814 1.515 1.108 1.361 2.326-1.857 14.708-3.802 14.629-3.939 15.373-2.696 14.605.457-.283 1.419-3.122 2.138-6.309 1.059-4.695 1.47-5.416 2.167-3.796.66 1.538.751 1.306.392-1-.257-1.65.386-6.375 1.429-10.5 1.597-6.316 1.907-6.903 1.969-3.719.101 5.183 2.384 5.871 6.344 1.911 2.884-2.885 3.079-3.533 2.908-9.711-.196-7.129-1.384-10.481-3.713-10.481-1.881 0-1.849-.588.43-7.911 1.973-6.34 2.015-6.919.348-4.839m-10.493.466c-2.086.316-2.75.975-2.75 2.725 0 1.764.706 2.45 2.989 2.907 4.821.964 7.963-.843 7.996-4.598.015-1.787-1.776-2.012-8.235-1.034M59.5 155c.34.55.816 1 1.059 1s.441-.45.441-1-.477-1-1.059-1-.781.45-.441 1m83.498 3.332c-.824.642-2.116 1.955-2.87 2.918-1.232 1.57-1.105 1.75 1.231 1.75 1.955 0 2.762-.634 3.242-2.547.779-3.105.364-3.655-1.603-2.121M35 162.418c0 .78-.263 2.103-.583 2.939-.466 1.212.243 1.509 3.5 1.464 3.82-.053 4.083-.242 4.083-2.939 0-2.627-.31-2.882-3.5-2.882-2.355 0-3.5.464-3.5 1.418m57.667 6.249c-.367.366-.667 1.131-.667 1.7 0 .626.466.567 1.183-.15.651-.651.951-1.416.667-1.7s-.817-.217-1.183.15m5.353 2.321c-1.242.767-1.196 1.007.301 1.582 2.087.8 3.449-.2 2.104-1.545-.568-.568-1.522-.583-2.405-.037m-62.34 2.262c.397 1.808.283 1.955-.578.75-1.284-1.797-1.338 2.361-.144 11l.76 5.5.152-6c.084-3.3.431-7.687.772-9.75.384-2.321.225-3.75-.418-3.75-.57 0-.815 1.012-.544 2.25m3.42-.5c.055.963.46 2.875.9 4.25.68 2.124.816 1.86.9-1.75.055-2.338-.35-4.25-.9-4.25s-.955.787-.9 1.75m69.586 4.974c.103 2.627.215 4.944.25 5.148.035.205.762-.206 1.615-.914 2.002-1.662 1.582-8.321-.551-8.726-1.184-.224-1.461.723-1.314 4.492M91.357 175.5c.825.825 2.657 1.5 4.072 1.5 1.414 0 2.571.432 2.571.96s1.306.865 2.903.75c1.596-.116 2.683-.566 2.415-1.001s-1.311-.529-2.318-.209-2.121.113-2.475-.459S96.81 176 95.5 176s-2.66-.45-3-1-1.074-1-1.63-1c-.557 0-.338.675.487 1.5m32.643-.538c-.825.4-2.531 1.262-3.791 1.916-1.26.655-2.691.942-3.181.64-.489-.303-1.113-.189-1.387.254-.273.442.596.894 1.931 1.005s2.428-.297 2.428-.905.883-.874 1.963-.592 2.494-.126 3.143-.907c1.438-1.733.92-2.394-1.106-1.411M38.192 180c-.024 1.925.317 5.525.757 8l.801 4.5.007-5c.003-2.75-.337-6.35-.757-8l-.763-3zM161 182.969c0 2.228.374 2.825 1.5 2.393.825-.317 1.5-1.653 1.5-2.969 0-1.46-.585-2.393-1.5-2.393-.996 0-1.5.997-1.5 2.969m-49.191-.058c-.852.994-1.797 2.433-2.1 3.198-.363.916-.588.708-.66-.609-.102-1.848-.188-1.866-1.134-.242-1.29 2.217-.387 3.742 2.217 3.742 1.392 0 1.901-.541 1.646-1.75-.202-.963.462-2.497 1.477-3.41 1.014-.913 1.452-1.903.973-2.199s-1.568.275-2.419 1.27m4.191.3c0 .801.269 1.725.598 2.053.862.862 3.402-.286 3.402-1.538 0-.582-.296-.763-.658-.401s-1.262.156-2-.456c-1.018-.845-1.342-.763-1.342.342m-15.5.789c.34.55 1.068 1 1.618 1s.722-.45.382-1-1.068-1-1.618-1-.722.45-.382 1m-19.768 2.624c-1.113 1.801 2.103 7.376 4.255 7.376 1.701 0 1.899-.321 1.077-1.75-2.089-3.63-4.798-6.489-5.332-5.626m8.283 5.126c-.028 2.281.177 2.752 1.085 2.5.846-.235 1.316 1.22.994 3.074-.079.454.319.539.884.19 1.007-.623.599-1.79-1.929-5.514-.685-1.009-1.023-1.091-1.034-.25m66.064.833c.048 1.165.285 1.402.604.605.289-.722.253-1.585-.079-1.917s-.568.258-.525 1.312"/><path fill-opacity=".835" fill-rule="evenodd" d="M0 100v100h36.5c20.075 0 36.502-.338 36.505-.75.002-.412 1.579-2.465 3.504-4.56 2.705-2.945 3.36-4.364 2.887-6.25-.683-2.721 1.225-3.364 3.527-1.19.728.688-.375-1.344-2.451-4.515s-4.008-5.532-4.292-5.248c-.285.285-1.342-.228-2.349-1.14-1.708-1.545-1.966-1.535-3.831.153-1.483 1.342-2 3.08-2 6.721 0 5.621-.993 7.962-5.316 12.529-4.606 4.866-10.138 4.14-13.174-1.73-2.833-5.48-1.422-13.446 3.865-21.822 1.4-2.217 3.416-6.611 4.48-9.765 1.823-5.398 1.839-5.908.275-8.707-1.768-3.165-8.612-6.502-14.209-6.929-1.69-.129-3.304-.608-3.586-1.064s-1.182-.275-2 .404c-.91.755-1.749.863-2.161.278-.371-.525-1.912-1.499-3.424-2.164-1.923-.845-2.75-1.945-2.75-3.658 0-3.2 5.426-26.591 7.746-33.391l1.807-5.297 2.427 3.297c1.334 1.814 3.46 4.118 4.723 5.121 1.672 1.326 2.297 2.854 2.297 5.615 0 5.585 3.097 9.062 8.073 9.062H61l.012-4.25c.014-5.093 2.317-14.222 4.162-16.498 1.128-1.391 1.101-1.513-.174-.818-.825.45.842-1.28 3.704-3.845 2.874-2.576 4.981-5.247 4.705-5.966-.444-1.155 2.365-4.508 3.245-3.873.19.138.373-.088.407-.5s.948-1.695 2.033-2.85c1.77-1.884 1.813-2.233.415-3.392-.856-.711-1.7-1.116-1.875-.901s-2.152 2.912-4.395 5.991c-4.937 6.778-12.481 14.128-13.24 12.9-.323-.523-1.153-.521-2.003.004-1.605.992-8.201.46-14.746-1.19-3.732-.941-4.25-1.413-4.25-3.869 0-1.754.886-3.495 2.374-4.665 1.305-1.027 4.118-5.888 6.25-10.804 5.085-11.723 10.448-17.251 21.849-22.518C80.174 53.012 88.902 51 99.645 51c6.395 0 8.407-.312 8.063-1.25-.252-.687-1.077-1.065-1.833-.84-10.203 3.043-18.88-2.948-18.871-13.028.004-5.371 2.762-10.193 7.117-12.445 4.439-2.295 12.117-1.502 15.412 1.594 3.095 2.908 3.079 3.338-.203 5.488-2.097 1.374-3.06 1.506-4.486.615-3.954-2.469-9.013-.764-10.261 3.459C93.748 37.42 97.415 42 100.514 42c3.132 0 4.147-1.767 1.251-2.179-1.779-.252-2.265-.965-2.265-3.321v-3l6.75-.296 6.75-.295v5.952c0 5.459.165 5.908 2 5.429 1.118-.293 2-.031 2 .593 0 .615-1.125 1.117-2.5 1.117-3.453 0-3.205 2.584.429 4.463 2.686 1.39 2.966 1.371 3.384-.224.294-1.124.496-.822.571.853.102 2.289.846 2.806 6.366 4.426 11.304 3.318 21.775 9.924 24.856 15.679.838 1.568.53 2.034-1.91 2.884-1.6.558-3.484 2.089-4.187 3.402-1.18 2.205-1.448 2.275-3.518.919-2.067-1.354-2.285-1.3-2.808.702-.387 1.478.131 2.78 1.625 4.089l2.192 1.92-2.336-1.138c-1.284-.625-2.556-.917-2.825-.647-.269.269.416.777 1.524 1.129 5.413 1.718 9.855 10.791 14.707 30.043.693 2.75 1.298 4.213 1.345 3.25.056-1.161.899-1.75 2.506-1.75 1.935 0 2.546.651 3.047 3.25 1.726 8.942 2.904 13.104 3.326 11.75.925-2.97 3.244-4.715 5.652-4.255 6.872 1.314 8.993 11.192 3.054 14.224-1.65.842-3.166 1.622-3.368 1.733-.466.255-4.227 11.595-3.885 11.712 5.311 1.81 6.812 9.198 4.285 21.086-2.171 10.21-4.43 15.208-8.656 19.147-3.921 3.654-10.606 5.696-9.538 2.913.352-.915.269-1.435-.182-1.156-.452.279-2.448-.598-4.436-1.948S141.641 192 141.072 192c-1.096 0-2.353-3.79-2.028-6.116.583-4.182-.362-3.749-2.434 1.116a1152 1152 0 0 1-3.995 9.263l-1.653 3.763 34.769-.263 34.769-.263.255-99.75L201.01 0H0zm.481.5c0 55 .121 77.647.269 50.326.148-27.32.148-72.32 0-100C.602 23.147.481 45.5.481 100.5M29 35.5V49h4c3.6 0 4-.25 4-2.5 0-1.958.51-2.5 2.351-2.5C46.542 44 51 39.779 51 32.969 51 24.876 47.08 22 36.05 22H29zm28-4.065c0 5.189.439 10.589.975 11.999 2.118 5.571 10.977 8.193 17.058 5.049C79.692 46.074 81 42.361 81 31.55V22h-7v7.889c0 9.354-1.854 12.867-6.212 11.773-3.108-.78-3.756-2.914-3.774-12.412L64 22h-7zm67.346-7.381c-11.579 7.418-5.227 27.284 8.154 25.498 2.2-.294 5.688-.52 7.75-.503l3.75.032V33h-13v3.434c0 2.988.356 3.481 2.75 3.805l2.75.372-2.757.805c-3.866 1.128-7.743-1.518-7.743-5.284 0-5.008 5.42-7.76 9.844-4.998 1.426.891 2.389.759 4.486-.615 3.541-2.32 3.367-3.925-.698-6.437-4.381-2.708-11.084-2.72-15.286-.028M147 23.158c0 .636 2.25 4.701 5 9.033 4.078 6.424 5 8.699 5 12.342 0 4.438.022 4.467 3.5 4.467 3.499 0 3.5-.001 3.5-4.658 0-3.872.843-5.985 5-12.533 2.75-4.331 5-8.31 5-8.842S172.19 22 169.978 22c-3.681 0-4.266.384-6.891 4.524l-2.869 4.524-2.651-4.524c-2.436-4.157-2.973-4.524-6.609-4.524-2.331 0-3.958.476-3.958 1.158M37 33c0 2.492.402 3 2.378 3 1.307 0 2.89-.618 3.517-1.373C44.71 32.44 43.127 30 39.893 30 37.345 30 37 30.358 37 33m80.658 28.449q-.557 1.45.887.895c.794-.304 1.195-.956.89-1.449-.766-1.24-1.132-1.126-1.777.554m-11.845 1.234c.721.289 1.584.253 1.916-.079s-.258-.568-1.312-.525c-1.165.048-1.402.285-.604.604M117.29 66c-.532 2.034-1.333 2.384-4.651 2.034-1.14-.121-1.691.309-1.425 1.109.511 1.532 11.786 2.308 11.786.812 0-.525-1.125-.955-2.5-.955s-2.5-.45-2.5-1 .6-1 1.333-1c.734 0 1.334-.675 1.334-1.5 0-2.228-2.771-1.817-3.377.5m-12.79 0c.34.55 1.518 1 2.618 1s1.722-.45 1.382-1-1.518-1-2.618-1-1.722.45-1.382 1m2.5 3c-2.327.745-2.349.808-.309.9 1.205.055 2.469-.35 2.809-.9s.479-.955.309-.9zm-43.01 1.488C67.167 74.316 78 78.608 78 76.039 78 73.806 69.415 69 65.427 69c-2.252 0-2.478.234-1.437 1.488m32.279 10.205c.973.254 2.323.237 3-.037s-.119-.481-1.769-.461-2.204.244-1.231.498m15 0c.973.254 2.323.237 3-.037s-.119-.481-1.769-.461-2.204.244-1.231.498m16.544.99c.721.289 1.584.253 1.916-.079s-.258-.568-1.312-.525c-1.165.048-1.402.285-.604.604m5 1c.721.289 1.584.253 1.916-.079s-.258-.568-1.312-.525c-1.165.048-1.402.285-.604.604M81.405 86.25 79.5 88.5l2.25-1.905c1.237-1.048 2.25-2.06 2.25-2.25 0-.8-.805-.209-2.595 1.905M144 85.059c0 .582-.562.721-1.25.308-.699-.42-.589.037.25 1.038.825.983 2.85 4.533 4.5 7.888s3.625 6.295 4.389 6.533c.885.276 1.118-.006.641-.778-.412-.666 1.142-.017 3.454 1.442 4.371 2.759 7.016 2.738 7.016-.057 0-1.675-5.505-7.433-7.106-7.433-.492 0-.894-.421-.894-.935s-.457-2.138-1.017-3.609c-.821-2.161-1.288-2.448-2.436-1.495-1.748 1.45-5.547-.259-5.547-2.496 0-.806-.45-1.465-1-1.465s-1 .477-1 1.059m-56.687 24.043c-4.582 1.326-7.313 5.26-7.313 10.533 0 2.401.436 4.365.969 4.365s.72-.648.416-1.439c-.304-.792-.078-2.254.501-3.25.957-1.646 1.056-1.6 1.084.505.016 1.273.496 3.186 1.065 4.25.84 1.569.706 1.934-.714 1.934-3.501 0 1.182 3.124 5.564 3.711 3.214.431 4.633.13 6.241-1.325 3.216-2.911 7.133-10.197 7.464-13.885.262-2.913-.117-3.523-3.047-4.913-3.68-1.747-7.365-1.893-12.23-.486M88.5 111c-.362.585.676 1 2.5 1s2.862-.415 2.5-1c-.34-.55-1.465-1-2.5-1s-2.16.45-2.5 1m42.808.139c-3.578 1.82-3.421 3.42.994 10.145 2.309 3.516 4.764 7.365 5.456 8.554 1.761 3.025 5.058 2.775 6.295-.477.552-1.451.765-2.876.475-3.166s-.528-.003-.528.638c0 .642-.62 1.167-1.377 1.167-1.031 0-1.256-1.079-.894-4.289.362-3.207.064-4.638-1.178-5.669-1.515-1.257-1.557-1.15-.479 1.216.65 1.427.889 3.763.53 5.19-.565 2.253-.921 2.452-2.691 1.504-1.622-.868-1.799-1.382-.864-2.509.647-.78.894-2.155.548-3.057-.64-1.666.928-4.386 2.527-4.386 1.832 0 4.883 4.112 5.009 6.75.072 1.513.485.05.918-3.25.599-4.567.46-6.338-.581-7.414-1.727-1.786-11.257-2.424-14.16-.947m-44.299 5.151c-3.139 1.588-3.648 4.086-1.499 7.366 1.391 2.123 2.195 2.453 4.737 1.945 5.266-1.054 7.022-4.131 5.146-9.019-.73-1.902-4.915-2.047-8.384-.292m9.321.042c.369 1.007.67 2.975.67 4.372 0 2.145.234 2.347 1.5 1.296 2.074-1.721 1.878-3.358-.67-5.595-2.049-1.8-2.132-1.804-1.5-.073m-8.968 2.168c-.972 2.531.453 4.665 2.884 4.32 1.615-.229 2.344-1.099 2.57-3.07.274-2.375-.037-2.75-2.281-2.75-1.429 0-2.857.675-3.173 1.5m29.438-.3c.66.66 1.2 2.085 1.2 3.167 0 2.514.539 1.882 1.378-1.617.569-2.372.355-2.75-1.559-2.75-1.726 0-1.952.267-1.019 1.2m4.2.193c0 .216.698.661 1.552.989.89.341 1.291.173.941-.393-.587-.951-2.493-1.406-2.493-.596m-11.73 3.334c-.723.251.592 2.085 3.193 4.452 7.582 6.9 7.076 11.994-1.63 16.406-6.014 3.047-13.424 3.464-19.12 1.075-2.509-1.053-3.524-1.179-3.007-.374.429.667 1.277 3.126 1.883 5.464.955 3.685.89 4.25-.494 4.247-2.013-.005-15.968-5.657-17.977-7.282-1.187-.96-1.344-.953-.751.035.489.814.12 1.258-1.058 1.272-3.867.048 3.175 3.838 11.168 6.011 12.694 3.452 20.454 6.046 21.071 7.045.314.507 1.467.922 2.563.922s3.882.977 6.191 2.171c7.034 3.638 7.568 3.829 10.716 3.829 1.977 0 3.281.614 3.717 1.75.57 1.481.78 1.366 1.369-.75.661-2.373.702-2.386.796-.25.119 2.686 1.814 2.842 8.612.796 2.656-.799 5.164-1.246 5.573-.993s.918-.062 1.131-.7c.465-1.397 4.736 1.072 9.502 5.492 2.991 2.775 3.266 2.85 3.904 1.07.378-1.053.875-2.264 1.107-2.69s-.15-.651-.845-.5c-1.826.397-2.165-2.419-.701-5.804.696-1.606 1.276-4.946 1.291-7.421.023-3.993.275-4.492 2.239-4.425 1.601.055 2.507-.769 3.277-2.977.841-2.412.807-2.795-.163-1.825-1.329 1.329-8.025 1.527-14.165.419l-3.838-.692 2.838-2.085c1.561-1.147 4.076-2.394 5.588-2.77 2.217-.551 2.75-1.25 2.75-3.605 0-3.781-1.755-4.865-2.576-1.592-.801 3.191-6.816 8.552-9.595 8.552-1.929 0-2.048-.386-1.455-4.71.61-4.453-.731-5.24-1.527-.896-.544 2.967-5.243 5.974-8.183 5.237-3.292-.827-8.664-5.39-8.664-7.36 0-.853-.73-2.084-1.623-2.737-1.18-.863-1.405-1.846-.823-3.61l.799-2.424.734 2.5c.711 2.418.757 2.43 1.408.374.37-1.169 1.744-2.699 3.051-3.399l2.378-1.272-1.998-2.807c-1.211-1.7-2.575-2.584-3.462-2.244-.805.309-1.464.037-1.464-.604s-.45-.888-1-.548-1.007 1.604-1.015 2.809c-.013 1.781-.197 1.91-.985.691q-.969-1.5-.985-.25c-.027 2.226-1.78 1.323-2.426-1.25-.603-2.405-2.589-3.556-2.589-1.5 0 1.215-2.699 1.343-3.167.15-.183-.467-.886-.658-1.563-.423m44.73 2.714c0 3.746 1.703 5.636 3.096 3.437 1.404-2.215 1.036-5.613-.678-6.271-2.379-.913-2.418-.868-2.418 2.834m-111-2.063c0 .207.788.995 1.75 1.75 1.586 1.243 1.621 1.208.378-.378-1.307-1.666-2.128-2.195-2.128-1.372m-1 7.539c0 1.604-.562 3.117-1.25 3.363-.687.245-1.012.708-.721 1.029s1.008.269 1.593-.113c1.427-.934 2.605-7.196 1.353-7.196-.536 0-.975 1.313-.975 2.917m124.074-.055c-.591 1.103-1.074 3.071-1.074 4.372s-.464 2.83-1.03 3.396c-.624.624-.701 1.923-.196 3.288.748 2.023.972 2.092 2.153.67.725-.873 1.868-1.588 2.54-1.588.673 0 2.014-.874 2.981-1.942 2.143-2.368 1.088-6.626-2.179-8.795-1.898-1.261-2.234-1.198-3.195.599M82.5 137c-.34.55.11 1 1 1s1.34-.45 1-1-.79-1-1-1-.66.45-1 1M36 150.5c0 .825.177 1.5.393 1.5s.652-.675.969-1.5.139-1.5-.393-1.5c-.533 0-.969.675-.969 1.5m4 5.559c0 .582.45.781 1 .441s1-.816 1-1.059-.45-.441-1-.441-1 .477-1 1.059m97.297.99c-5.764 1.139-8.297 2.661-8.297 4.986 0 1.775.711 1.965 7.348 1.965h7.349l1.571-4 1.571-4-2.669.11c-1.469.06-4.562.483-6.873.939M34.536 161.25c-.305 1.787-.501 4.825-.435 6.75s-.224 9.463-.645 16.75c-.548 9.496-.451 13.25.344 13.25.61 0 1.337-1.463 1.616-3.25.928-5.952 1.99-21.206 1.707-24.5-.155-1.801.194-3.25.782-3.25.666 0 .907 1.953.646 5.25-1.522 19.231-1.655 24.567-.629 25.202.601.371 1.293.084 1.538-.639.786-2.312 2.57-36.956 1.954-37.951-.367-.594-1.095-.542-1.914.138-.914.759-1.522.774-1.97.049-1.211-1.96-2.438-1.058-2.994 2.201m73.681 5.174c-.852 1.87-.799 2.678.233 3.535 2.086 1.731 4.88-1.473 3.513-4.028-1.376-2.571-2.413-2.434-3.746.493m14.862 3.159c.048 1.165.285 1.402.604.605.289-.722.253-1.585-.079-1.917s-.568.258-.525 1.312m-48.416 1.237c-1.448 1.6-1.472 2.053-.205 3.75 1.374 1.838 1.413 1.815.832-.489-.513-2.029-.321-2.307 1.191-1.727 1.44.553 1.575.418.669-.673-.623-.751-.837-1.661-.475-2.023s.428-.658.147-.658-1.253.819-2.159 1.82M117.5 172c-.34.55.057 1 .882 1s1.778-.45 2.118-1-.057-1-.882-1-1.778.45-2.118 1m-18.687.683c.721.289 1.584.253 1.916-.079s-.258-.568-1.312-.525c-1.165.048-1.402.285-.604.604M158 176.882c0 .55.45 1.278 1 1.618s1 .168 1-.382-.45-1.278-1-1.618-1-.168-1 .382m-71 16.829c0 .574.787 1.662 1.75 2.417 1.619 1.269 1.64 1.222.283-.628-.807-1.1-1.594-2.187-1.75-2.417s-.283.054-.283.628M83.5 197c.853 1.65 1.776 3 2.051 3s-.198-1.35-1.051-3-1.776-3-2.051-3 .198 1.35 1.051 3"/></svg>