<svg xmlns="http://www.w3.org/2000/svg" width="100" height="100" fill="#000000"><path fill-opacity=".086" fill-rule="evenodd" d="M22.209 13.668C17.503 15.987 15 19.601 15 24.078c0 2.807.592 4.231 2.25 5.416l2.25 1.607-3 2.616c-1.65 1.44-3.019 2.879-3.042 3.2s-.864 2.126-1.868 4.012c-1.461 2.743-1.736 4.979-1.377 11.185 1.058 18.285 14.693 33.447 31.894 35.469l5.59.657 1.676-6.675c1.848-7.358 1.511-8.98-1.656-7.975-1.934.614-1.884.398.584-2.536 3.394-4.034 3.386-5.502-.051-8.741-2.407-2.269-2.463-2.441-.444-1.387 1.269.663 2.555 1.85 2.857 2.639S52.224 65 53.458 65s3.623.481 5.309 1.069c2.413.841 3.713.734 6.1-.5 4.154-2.148 6.869-1.978 7.649.48.978 3.084-1.964 6.705-6.571 8.086-4.335 1.298-5.305 2.476-6.279 7.615-.502 2.651-.298 3.248 1.109 3.24 3.795-.021 12.719-5.298 18.743-11.083 5.865-5.631 6.491-6.649 7.902-12.853 2.137-9.397 2.174-15.751.126-21.915-1.729-5.206-1.724-5.321.349-7.527 3.123-3.324 2.761-7.883-.87-10.937-4.447-3.742-9.109-4.999-13.83-3.728-3.138.845-4.705.738-7.744-.532-2.112-.882-5.401-1.401-7.381-1.164-1.963.235-5.055.022-6.869-.473-2.1-.572-5.243-.496-8.645.21-4.785.994-5.698.896-8.701-.935-4.026-2.455-7.233-2.561-11.646-.385m15.093 15.833c-1.179.826-2.46 2.963-2.846 4.75s-2.397 5.097-4.468 7.357C19.489 53.057 27.3 66.947 40.314 59.972c2.082-1.116 4.258-1.737 4.835-1.38.636.393.583-.224-.134-1.564-.652-1.218-.943-3.185-.647-4.371.48-1.924.122-2.162-3.316-2.202C36.46 50.401 34 48.63 34 45.378c0-3.338 1.9-2.962 3.15.622 1.455 4.174 5.213 4.133 7.392-.081 1.028-1.988 2.112-2.882 3.056-2.52 2.112.811 3.785-3.541 2.99-7.779-1.192-6.355-8.285-9.622-13.286-6.119m28.814 4.079c-2.314 2.941-2.65 5.884-1.13 9.882.935 2.461.872 2.534-1.25 1.43-1.23-.64-1.863-.767-1.407-.282.456.484 2.678 1.783 4.939 2.885 5.972 2.912 8.359 6.554 7.064 10.775-.991 3.23-.943 3.318 1.75 3.131 1.524-.105 3.299-.519 3.946-.918C81.948 59.296 84 53.359 84 48.989c0-3.389-.715-4.867-4.25-8.782-2.338-2.589-4.745-5.607-5.351-6.707-1.721-3.127-5.791-3.088-8.283.08M39.2 44.2c-1.633 1.633-1.508 2.8.3 2.8.825 0 1.5-.188 1.5-.418s.273-1.13.607-2c.716-1.867-.698-2.091-2.407-.382m34.354 1.713c-.37.598-.083 1.132.637 1.187s.184.436-1.191.847l-2.5.748 2.828 1.348c1.989.949 3.305 1.047 4.44.331C80.153 48.87 80.439 47 78.283 47c-1.035 0-2.372-.489-2.97-1.087-.783-.783-1.275-.783-1.759 0m-14.203 4.09c-2.832.415-5.644 1.06-6.25 1.434-2.029 1.254-1.129 3.519 1.649 4.149 1.513.343 3.715 1.762 4.895 3.154 2.858 3.371 6.434 2.485 9.252-2.29C70.054 54.489 71 52.505 71 52.041c0-.668-6.005-3.405-6.399-2.916-.056.068-2.418.464-5.25.878"/><path fill-opacity=".129" fill-rule="evenodd" d="M24.914 12.956c-1.423.431-3.716 1.523-5.096 2.428-5.041 3.303-6.498 11.305-2.568 14.107l2.25 1.604-3.266 2.953C14.438 35.671 13.201 37 13.486 37s-.383 1.681-1.484 3.735c-3.75 6.997-1.919 19.893 4.192 29.517 6.464 10.181 16.092 16.171 27.269 16.966l3.962.282 1.768-6.469c1.894-6.927 1.329-8.916-2.02-7.124-1.123.601-2.859 1.092-3.857 1.091-1.119-.001-.478-.672 1.67-1.75 3.685-1.848 6.361-5.857 5.204-7.797-.38-.636-1.9-2.574-3.378-4.306l-2.688-3.151-3.564 2.103c-3.92 2.313-9.817 2.765-12.036.923-2.175-1.805-3.816-7.835-3.186-11.713.347-2.141 2.119-5.164 4.613-7.87C32.178 39.021 34 36.16 34 35.078s1.05-3.187 2.333-4.679c5.063-5.885 14.686-1.047 14.652 7.367-.019 4.566-1.124 6.502-3.247 5.687-1.109-.426-2.079.306-3.149 2.376-.851 1.644-2.119 3.195-2.818 3.446-2.01.719-4.771-1.162-4.771-3.251 0-2.229-1.579-3.514-2.495-2.031-1.384 2.238.708 4.991 4.704 6.188 4.027 1.206 4.134 1.172 7.05-2.228 1.632-1.904 2.46-2.469 1.845-1.259-.613 1.207-1.562 2.471-2.109 2.809s-.983 2.276-.968 4.306c.021 2.789.855 4.581 3.414 7.333 2.942 3.162 4.193 3.735 9.499 4.351 4.166.484 6.561.336 7.525-.464.778-.645 2.679-1.028 4.225-.851 2.157.247 2.879.911 3.105 2.855.368 3.147-2.977 6.467-7.742 7.685-3.045.779-3.588 1.431-4.647 5.582-1.462 5.73-.84 5.901 7.406 2.03 3.456-1.622 8.101-5.116 11.836-8.904 5.579-5.658 6.294-6.874 7.718-13.135 1.98-8.709 1.877-15.524-.324-21.375-1.708-4.543-1.703-4.609.617-7.306 2.857-3.322 2.98-6.528.375-9.84-2.97-3.775-7.214-5.122-14.155-4.493-3.837.348-7.209.08-9.215-.731-3.73-1.509-20.896-1.913-25.476-.6-2.039.585-3.188.561-3.188-.067 0-.95-6.137-3.967-7.718-3.793-.43.047-1.946.439-3.368.87m38.692 17.892L61.712 33.5l2.338-2.222c1.287-1.222 2.139-2.416 1.894-2.652s-1.296.763-2.338 2.222m4.868.414c-3.568 1.975-4.549 4.06-4.164 8.853.337 4.202.192 4.568-1.626 4.092-1.346-.352-1.763-.145-1.281.635.401.649.14 1.171-.594 1.188-.808.019-.639.421.441 1.05 2.738 1.595 2.061 2.919-1.5 2.934-5.589.023-7.887 1.03-7.552 3.307.199 1.362 1.382 2.339 3.488 2.882 1.829.471 3.456 1.669 3.818 2.809C59.933 60.365 61.019 61 62.9 61c3.737 0 9.914-7.314 8.062-9.546-.664-.8-2.002-1.454-2.974-1.454-2.026 0-7.159-3.916-5.198-3.967 1.86-.048 8.615 3.545 10.156 5.402.841 1.014 1.135 3.154.818 5.964-.483 4.292-.435 4.379 2.326 4.188 4.036-.28 6.644-3.097 7.775-8.402 1.159-5.436-.115-9.316-4.331-13.185-1.498-1.375-3.361-3.724-4.139-5.22-1.887-3.626-4.409-4.908-6.921-3.518m-12.033 1.183c1.068.855 2.643 1.519 3.5 1.476 1.347-.068 1.355-.155.059-.635-.825-.306-2.4-.97-3.5-1.476-1.968-.906-1.969-.895-.059.635M39.729 43.604c-.401.401-.729 1.419-.729 2.263 0 1.125.296 1.237 1.112.42.612-.611.941-1.63.73-2.262s-.712-.822-1.113-.421m13.437.272c-1.057.67-.976.983.393 1.508.95.365 1.963.427 2.251.14.288-.288-.114-.556-.893-.594-.837-.042-.598-.422.583-.93 1.319-.567 1.489-.878.5-.914-.825-.031-2.1.325-2.834.79m21.584 3.84c-1.513.229-2.75.807-2.75 1.283 0 1.225 3.419 2.161 5.282 1.446 1.919-.736 3.125-3.503 1.437-3.295-.671.082-2.456.337-3.969.566"/><path fill-opacity=".168" fill-rule="evenodd" d="M22.418 13.969C19.056 15.329 15 20.861 15 24.087c0 1.695.844 3.655 2 4.645 2.536 2.171 2.541 3.908.017 5.259C14.463 35.358 10 44.776 10 48.797 10 68.268 26.361 87 43.366 87h4.291l1.171-5.076c1.803-7.811 1.752-7.935-3.078-7.524-2.337.198-3.5.163-2.583-.078 2.883-.76 6.834-5.129 6.804-7.524-.016-1.264-1.37-3.771-3.008-5.572l-2.978-3.275-2.776 2.052c-4.529 3.349-9.349 3.641-12.688.769-2.315-1.992-2.912-3.443-3.29-8-.445-5.368-.319-5.722 3.549-9.919 2.316-2.515 4.498-6.165 5.164-8.643 1.498-5.566 6.163-8.237 10.936-6.26 7.685 3.183 8.465 11.913 1.87 20.928-2.885 3.943-2.24 7.799 2 11.95 2.063 2.02 4.2 3.695 4.75 3.724s2.738.426 4.861.882c2.836.61 4.734.414 7.145-.736C70.059 62.527 73 63.461 73 67.078c0 3.257-3.213 6.73-6.98 7.544-1.386.3-3.019.694-3.628.876-1.134.338-2.849 8.378-1.974 9.253.266.266 3.479-.918 7.14-2.631 9.48-4.437 17.68-13.085 19.251-20.303 1.74-8 1.676-18.668-.142-23.566-1.546-4.164-1.529-4.298.878-6.705 3.004-3.004 3.104-5.451.367-8.931-3.919-4.982-12.05-7.217-16.87-4.638-1.282.687-2.702.54-4.772-.492C62.082 15.396 57 14.5 57 15.85c0 .768-.775.806-2.565.125-3.279-1.247-9.99-1.25-14.324-.007-2.794.802-3.808.629-5.879-1-2.61-2.054-8.066-2.515-11.814-.999m26.047 12.975c1.153 1.865 9.691 7.066 11.481 6.993.936-.039.64-.43-.746-.987-1.265-.507-4.372-2.348-6.904-4.09-2.533-1.743-4.256-2.605-3.831-1.916m15.392 3.306c-1.617 2.306-1.766 2.838-.513 1.832C65.126 30.651 67.468 27 66.603 27c-.257 0-1.492 1.462-2.746 3.25m3.382 1.295c-2.684 1.88-4.183 6.979-3.145 10.702.686 2.466.574 2.646-1.099 1.75-2.721-1.456-8.316-1.218-10.554.449-1.76 1.311-1.449 1.406 3.327 1.02 6.093-.492 15.305 2.933 17.147 6.376 1.342 2.507 1.4 6.701.126 9.082-.874 1.633-.602 1.727 3.048 1.06 4.446-.813 6.372-2.763 7.885-7.984 1.743-6.011 1.23-7.754-3.974-13.5-2.75-3.037-5-6.176-5-6.975C75 32.151 72.125 30 70.288 30c-.464 0-1.835.695-3.049 1.545M15.345 43.543c-.82 2.137.426 3.106 1.922 1.494.991-1.069.954-1.171-.187-.52-1.055.602-1.256.383-.781-.853.351-.915.413-1.664.138-1.664s-.766.694-1.092 1.543M34 44.777C34 46.023 37.031 50 37.98 50c.477 0 .193-1.35-.63-3-1.376-2.758-3.35-4.068-3.35-2.223m5.667-.11c-.367.366-.667 1.131-.667 1.7 0 .626.466.567 1.183-.15.651-.651.951-1.416.667-1.7s-.817-.217-1.183.15M44.158 47c-1.632 2.208-1.844 3-.803 3C44.595 50 48 45.994 48 44.535c0-1.419-1.847-.234-3.842 2.465M60 47c1.958 1.266 3.282 1.266 2.5 0-.34-.55-1.379-.993-2.309-.985-1.457.014-1.484.15-.191.985m14.733.718C71.182 48.255 72.197 50 76.059 50 78.007 50 79 49.493 79 48.5c0-.825-.338-1.433-.75-1.35s-1.995.338-3.517.568m-16.602 1.814c-2.953.718-5.836 1.773-6.407 2.344-1.466 1.466.72 3.843 4.243 4.617 1.624.356 3.046 1.449 3.338 2.564.361 1.381 1.378 1.943 3.517 1.943 2.304 0 3.735-.915 6.1-3.902 3.337-4.212 3.259-6.604-.239-7.366-1.201-.261-2.858-.707-3.683-.99s-3.916.072-6.869.79"/><path fill-opacity=".112" fill-rule="evenodd" d="M21.299 14.96C17.902 17.031 15 21.6 15 24.878c0 1.087 1.237 2.954 2.75 4.149L20.5 31.2l-3.044 2.65c-5.385 4.688-7.874 12.935-6.484 21.478 2.726 16.751 16.668 30.638 31.153 31.03l5.245.142 1.434-5.797c.789-3.189 1.179-6.053.866-6.366-.312-.313-2.025-.06-3.806.561-2.186.762-3.567.799-4.251.115S41.177 74 42.377 74C44.628 74 50 68.699 50 66.478c0-.922-1.387-2.971-3.082-4.555l-3.083-2.879-3.878 1.978c-7.626 3.89-12.831 1.872-14.89-5.774-1.382-5.132-.002-9.686 4.302-14.191 1.868-1.956 3.934-5.243 4.591-7.304 2.954-9.275 13.894-8.785 17.045.763 1.345 4.075.182 8.645-3.627 14.26-3.353 4.94-3.056 7.834 1.207 11.738 5.104 4.675 12.937 6.08 19.151 3.436 3.86-1.644 5.514-.545 5.514 3.665 0 3.175-3.2 6.225-7.416 7.068-3.478.696-4.398 1.842-5.243 6.537l-.67 3.719 3.925-1.385c10.157-3.583 20.543-13.56 22.733-21.836 2.041-7.715 1.979-18.363-.138-23.61-1.567-3.883-1.598-4.521-.27-5.5 8.821-6.505-2.335-18.349-13.93-14.79-2.81.862-4.134.772-6.484-.444-1.624-.84-4.597-1.407-6.605-1.26s-5.795-.096-8.415-.539c-2.989-.506-6.455-.38-9.306.338-4.064 1.023-4.815.93-7.122-.884-3.286-2.586-8.836-2.615-13.01-.069M58 17.882c0 .55.45 1.278 1 1.618s1 .168 1-.382-.45-1.278-1-1.618-1-.168-1 .382m-11 7.913c0 .572 2.739 2.868 6.086 5.104 5.863 3.915 6.191 4.009 8.97 2.572C65.522 31.679 68.496 27 66.169 27c-.457 0-1.42 1.101-2.141 2.447-.72 1.346-1.98 2.704-2.799 3.019-1.357.52-6.172-1.93-11.979-6.096-1.237-.888-2.25-1.146-2.25-.575m18.924 6.786c-1.837 1.956-2.401 3.624-2.331 6.885.091 4.214.037 4.288-2.606 3.53-3.361-.964-7.558-.217-9.079 1.615-1.257 1.514-.628 1.737 4.092 1.448 1.375-.084 3.364.481 4.42 1.255 1.776 1.302 1.577 1.459-2.668 2.096-7.216 1.082-9.164 5.528-3.083 7.033 1.557.385 3.739 1.828 4.849 3.206 2.615 3.248 6.88 2.415 9.043-1.766.82-1.586 1.929-2.883 2.465-2.883s.974-.702.974-1.559c0-.875.48-1.262 1.096-.882 1.113.688.814 5.55-.532 8.642-.645 1.482-.245 1.631 3.098 1.149 4.936-.71 8.028-4.102 8.873-9.733.852-5.686.067-7.984-4.446-13.013-2.027-2.257-4.461-5.341-5.41-6.854-2.197-3.503-5.562-3.568-8.755-.169M15.459 43.245c-.978 2.551-.132 4.271 1.27 2.581.719-.866.82-1.938.268-2.832-.75-1.213-.991-1.174-1.538.251M34 44.809c0 .445.661 1.682 1.468 2.75 1.499 1.982 2.018.872.925-1.977-.627-1.634-2.393-2.205-2.393-.773m5.459.258c-.363.586-.445 1.281-.183 1.543s.743-.218 1.069-1.067c.676-1.762.1-2.072-.886-.476M44.5 47c-.853 1.65-1.187 3-.741 3 .445 0 1.607-1.35 2.582-3s1.308-3 .741-3-1.729 1.35-2.582 3m19.5.284c.825.826 2.625 1.831 4 2.233 3.177.93 2.461.214-2-1.999-2.7-1.339-3.157-1.392-2-.234m11.75.51c-1.513.187-2.75.759-2.75 1.272 0 1.292 4.731 1.179 5.541-.133.863-1.395.5-1.543-2.791-1.139"/></svg>