<svg width="424" height="500" viewBox="0 0 424 500" fill="#000000" xmlns="http://www.w3.org/2000/svg">
<path fill-rule="evenodd" clip-rule="evenodd" d="M231.087 4.69305C231.087 25.0407 196.434 64.9402 155.3 91.9595C69.4641 148.339 19.7887 193.42 4.52663 228.781C-8.44615 258.842 7.37737 301.813 40.3271 325.998C56.3796 337.783 54.9978 337.963 62.1628 323.164C78.1935 290.045 99.1325 274.399 184.339 231.858C306.94 170.649 349.682 133.134 337.205 97.6801C332.713 84.9199 326.475 80.9463 326.475 90.8448C326.475 116.425 293.185 140.174 225.636 162.784C203.901 170.061 168.346 184.832 146.625 195.608C124.904 206.387 106.723 214.798 106.224 214.299C102.932 211.007 117.739 193.927 144.853 169.739C231.891 92.0958 250.628 61.3045 239.375 14.3981C236.183 1.09284 231.087 -4.87301 231.087 4.69305ZM359.725 180.15C346.531 208.295 317.484 233.153 274.374 253.198C128.588 320.981 69.1016 370.891 87.0809 410.346C91.447 419.928 93.4147 419.092 97.342 405.985C104.692 381.449 139.435 357.926 191.569 342.192C221.447 333.174 278.141 309 300.129 295.902C331.629 277.138 320.324 294.67 273.298 337.513C192.343 411.267 174.996 438.262 181.973 479.628C185.778 502.186 188.214 505.083 193.125 492.881C205.766 461.485 227.89 437.112 265.855 412.755C356.825 354.394 413.657 299.723 422.307 262.257C428.418 235.778 411.335 199.105 382.882 177.621C365.137 164.223 367.301 163.988 359.725 180.15Z" fill="#000000"/>
</svg>
