<svg xmlns="http://www.w3.org/2000/svg" width="32" height="32" fill="#000000"><g clip-path="url(#a)"><path fill="#1F1F1F" d="M16 32c8.837 0 16-7.163 16-16S24.837 0 16 0 0 7.163 0 16s7.163 16 16 16"/><path fill="#616161" d="M3.295 10.715c.129-.351.296-.685.466-1.015q.456-.884 1.034-1.695c.205-.287.414-.568.642-.836.27-.316.547-.628.846-.92q.64-.622 1.34-1.172A13.5 13.5 0 0 1 9.5 3.864c.86-.468 1.767-.824 2.708-1.096q.955-.277 1.937-.406c.257-.034.517-.055.776-.072.465-.033.928-.069 1.394-.046.485.024.968.05 1.452.11q1.206.153 2.364.517 1.854.585 3.473 1.659a13.84 13.84 0 0 1 4.945 5.817q.006.019.014.04c-.2.008-.4-.021-.597.018l-.035-.063a13.3 13.3 0 0 0-5.486-5.862 13.2 13.2 0 0 0-6.614-1.674 15 15 0 0 0-2.61.29c-.812.17-1.6.424-2.365.746A13.1 13.1 0 0 0 7 6.342 13 13 0 0 0 4.98 8.73c-.42.64-.78 1.31-1.095 2.007q-.17 0-.337-.003c-.085-.004-.17.02-.252-.023z"/><path fill="#575757" d="M25.767 25.695c-.394.414-.826.786-1.273 1.14q-.436.345-.9.649c-.642.421-1.308.8-2.011 1.104-1.187.513-2.416.881-3.7 1.052q-1.485.198-2.979.08a13.5 13.5 0 0 1-5.827-1.82 13.7 13.7 0 0 1-3.833-3.308q-.023-.03-.041-.06c.034-.052.089-.042.139-.043.174-.01.35.024.521-.021.02.022.045.043.064.067a12.9 12.9 0 0 0 2.28 2.12c2.661 1.92 5.632 2.74 8.903 2.5a12.928 12.928 0 0 0 2.782-.54 13.1 13.1 0 0 0 4.106-2.115c.344-.262.668-.547.995-.831.256.043.514.01.772.022z"/><path fill="#5C5C5C" d="M27.964 10.405c.198-.04.399-.01.597-.019.14.27.244.556.35.84q.291.776.48 1.581a13.8 13.8 0 0 1 .335 4.191q-.063.93-.255 1.842c-.022.107-.052.214-.077.32h-.566l.008-.061a13.3 13.3 0 0 0 .31-4.26 13.2 13.2 0 0 0-.683-3.183c-.146-.425-.325-.836-.503-1.249zM3.295 10.715c.08.043.167.019.25.022q.17.006.338.004a1 1 0 0 1-.04.106 13.2 13.2 0 0 0-1.003 6.239q.082 1.071.343 2.114c-.19.04-.38.017-.57.022a13 13 0 0 1-.318-1.897 14 14 0 0 1-.06-1.581q.026-1.38.32-2.732c.091-.422.218-.833.34-1.244.102-.344.243-.673.367-1.01.005-.016.019-.028.03-.041z"/><path fill="#616161" d="M28.83 19.159h.565c-.065.33-.16.654-.261.974a13.7 13.7 0 0 1-1.113 2.58 13.8 13.8 0 0 1-2.161 2.894q-.045.044-.091.084c-.258-.012-.516.02-.773-.022.188-.19.379-.373.563-.566a13.1 13.1 0 0 0 2.904-4.736c.14-.398.247-.806.368-1.21zM2.617 19.222c.189-.005.38.018.57-.022a13.234 13.234 0 0 0 1.927 4.27c.235.344.495.673.75 1.002-.171.043-.347.01-.52.02-.05.004-.105-.009-.14.043-.311-.354-.566-.75-.82-1.146a13.6 13.6 0 0 1-1.747-4.063q-.01-.05-.02-.102z"/><path fill="#FFFFFF" d="M20.387 21.655c-.487-.478-.965-.945-1.438-1.414-.078-.076-.136-.093-.232-.031a5.3 5.3 0 0 1-2.424.83c-.444.04-.885.011-1.318-.077-1.284-.26-2.33-.901-3.132-1.94a4.8 4.8 0 0 1-.889-1.869c-.207-.903-.19-1.808.093-2.69a5 5 0 0 1 1.78-2.512 5 5 0 0 1 1.533-.809 5 5 0 0 1 1.583-.236 5.2 5.2 0 0 1 2.135.49c.436.204.842.464 1.19.797.243.234.484.479.694.744.446.56.75 1.197.895 1.902.065.32.132.644.143.967a4.8 4.8 0 0 1-.298 1.867c-.196.516-.425 1.02-.8 1.442-.096.108-.091.154.003.25q.68.668 1.353 1.34l1.304 1.302 1.679 1.674q.274.272.547.547.078.083.155.17l-.01.034h-.164c-.463 0-.926-.005-1.388.004a.47.47 0 0 1-.386-.162c-.432-.447-.88-.88-1.323-1.32a6 6 0 0 1-.258-.263c-.064-.07-.113-.072-.196-.015-.332.232-.657.477-1.008.674-.372.212-.766.386-1.156.56-.666.297-1.373.442-2.09.548a7.6 7.6 0 0 1-1.852.033 8.2 8.2 0 0 1-2.352-.566 8.9 8.9 0 0 1-2.217-1.297 8.8 8.8 0 0 1-1.968-2.24 9 9 0 0 1-.637-1.27 7.1 7.1 0 0 1-.542-2.166c-.034-.402-.053-.81-.046-1.215.01-.588.08-1.168.22-1.747a8.6 8.6 0 0 1 .745-1.979c.196-.375.44-.728.685-1.075a7.2 7.2 0 0 1 1.139-1.265c.375-.328.779-.624 1.19-.905a6.4 6.4 0 0 1 .963-.537c.386-.173.773-.349 1.193-.438.29-.062.573-.176.865-.222a9.5 9.5 0 0 1 2.53-.078 8 8 0 0 1 1.917.448 8.6 8.6 0 0 1 3.436 2.298c.427.463.805.964 1.111 1.51.338.605.616 1.234.81 1.904.163.566.233 1.142.292 1.723.063.628 0 1.251-.074 1.874a6.3 6.3 0 0 1-.384 1.517c-.153.4-.334.788-.513 1.177-.08.177-.186.346-.28.518-.031.057-.069.11-.11.177-.054-.046-.098-.08-.138-.119-.246-.245-.488-.497-.738-.737-.067-.066-.072-.121-.024-.192.342-.517.55-1.095.72-1.684.097-.344.156-.702.192-1.058.043-.427.067-.857.051-1.285a6.4 6.4 0 0 0-.146-1.142 7.3 7.3 0 0 0-1.056-2.45c-.425-.644-.955-1.187-1.543-1.674a6.6 6.6 0 0 0-1.63-.969 6.7 6.7 0 0 0-1.424-.445 8 8 0 0 0-1.526-.138c-.809.01-1.6.129-2.359.404-.826.298-1.591.712-2.242 1.311-.349.322-.693.65-1 1.01-.238.277-.426.6-.619.915a6.3 6.3 0 0 0-.736 1.8 9 9 0 0 0-.2 1.183 6.2 6.2 0 0 0 .071 1.812c.193 1.062.554 2.061 1.21 2.933.252.336.512.673.805.973.265.271.574.498.87.736.458.365.959.659 1.513.853.435.152.872.303 1.32.406.729.167 1.47.155 2.212.097.712-.056 1.383-.262 2.043-.523.592-.234 1.117-.579 1.63-.945q.02-.02.044-.048zm-4.483-1.908c2.174-.048 3.767-1.633 3.781-3.778.014-2.114-1.684-3.763-3.814-3.76-2.016.004-3.757 1.68-3.74 3.776.017 2.114 1.65 3.731 3.773 3.762"/></g><defs><clipPath id="a"><path fill="#FFFFFF" d="M0 0h32v32H0z"/></clipPath></defs></svg>