<!-- Generated by IcoMoon.io -->
<svg version="1.1" xmlns="http://www.w3.org/2000/svg" width="32" height="32" viewBox="0 0 32 32" fill="#000000">
<title>qtum</title>
<path d="M28.984 25.1c0.401 0 0.749 0.142 1.041 0.425s0.439 0.633 0.439 1.050c0 0.4-0.146 0.746-0.439 1.038s-0.64 0.438-1.041 0.438c-0.418 0-0.769-0.146-1.053-0.438s-0.426-0.637-0.426-1.038c0-0.133 0.017-0.267 0.050-0.4s0.083-0.25 0.15-0.35l-2.584-2.225-5.293 3.8c0.033 0.066 0.054 0.129 0.063 0.188s0.013 0.121 0.013 0.188c0 0.283-0.1 0.525-0.301 0.725s-0.435 0.3-0.702 0.3c-0.251 0-0.468-0.071-0.652-0.213s-0.301-0.329-0.351-0.563h-5.619c-0.050 0.233-0.167 0.421-0.351 0.563s-0.393 0.213-0.627 0.213c-0.284 0-0.527-0.1-0.728-0.3s-0.301-0.442-0.301-0.725c0-0.067 0.008-0.129 0.025-0.188s0.033-0.121 0.050-0.188l-4.641-3.325c-0.087 0.069-0.184 0.124-0.288 0.163-0.109 0.042-0.23 0.063-0.364 0.063-0.284 0-0.527-0.1-0.728-0.3s-0.301-0.442-0.301-0.725c0-0.183 0.046-0.35 0.138-0.5 0.089-0.146 0.214-0.267 0.364-0.35l-1.781-5.425h-0.050c-0.284 0-0.527-0.1-0.728-0.3s-0.301-0.441-0.301-0.725c0-0.283 0.1-0.525 0.301-0.725s0.443-0.3 0.728-0.3h0.075l1.756-5.375h-0.025c-0.134-0.083-0.246-0.2-0.339-0.35s-0.138-0.317-0.138-0.5c0-0.283 0.1-0.525 0.301-0.725s0.443-0.3 0.728-0.3c0.134 0 0.255 0.021 0.364 0.063s0.205 0.104 0.289 0.187l4.641-3.35c-0.017-0.050-0.034-0.108-0.050-0.175-0.017-0.065-0.025-0.133-0.025-0.2 0-0.283 0.1-0.525 0.301-0.725s0.443-0.3 0.727-0.3c0.234 0 0.443 0.075 0.627 0.225s0.301 0.333 0.351 0.55h5.619c0.050-0.233 0.167-0.421 0.351-0.563s0.401-0.213 0.652-0.213c0.268 0 0.502 0.1 0.702 0.3s0.301 0.442 0.301 0.725c0 0.067-0.004 0.133-0.013 0.2-0.007 0.063-0.028 0.123-0.063 0.175l4.641 3.35c0.085-0.084 0.188-0.148 0.301-0.187 0.113-0.041 0.231-0.062 0.351-0.063 0.285 0 0.527 0.1 0.728 0.3s0.301 0.442 0.301 0.725c0 0.183-0.046 0.35-0.138 0.5s-0.205 0.267-0.339 0.35l1.756 5.4h0.075c0.268 0 0.502 0.1 0.702 0.3s0.301 0.441 0.301 0.725-0.1 0.525-0.301 0.725c-0.201 0.2-0.435 0.3-0.702 0.3h-0.075l-2.007 6.175 2.609 2.25c0.129-0.114 0.278-0.202 0.439-0.262 0.159-0.058 0.33-0.088 0.514-0.088zM25.296 10.025l-0.326 4.975c0.167 0.067 0.313 0.162 0.439 0.287s0.205 0.279 0.238 0.463h0.853c0.033-0.133 0.088-0.25 0.163-0.35s0.172-0.183 0.288-0.25l-1.656-5.125zM24.819 9.7l-0.025-0.025c-0.084-0.017-0.167-0.059-0.251-0.125-0.079-0.062-0.154-0.129-0.226-0.2l-1.706 0.725c0 0.034 0.004 0.067 0.013 0.1s0.012 0.058 0.012 0.075c0.001 0.147-0.034 0.293-0.1 0.425-0.067 0.133-0.15 0.242-0.251 0.325l2.107 4c0.017-0.017 0.029-0.025 0.038-0.025h0.037l0.351-5.275zM19.075 15l1.881-3.975c-0.099-0.081-0.184-0.179-0.251-0.287-0.067-0.11-0.11-0.234-0.125-0.363l-4.541-0.575c-0.034 0.067-0.071 0.13-0.113 0.188s-0.088 0.113-0.138 0.163l2.81 4.875c0.050-0.017 0.101-0.029 0.151-0.037s0.1-0.013 0.15-0.013c0.034 0 0.067 0.004 0.1 0.013s0.059 0.012 0.076 0.012zM21.408 11.25l-1.856 3.975c0.082 0.065 0.15 0.146 0.201 0.238s0.092 0.188 0.125 0.287h3.788c0.017-0.1 0.050-0.196 0.1-0.287s0.119-0.173 0.201-0.238l-2.107-4c-0.050 0.017-0.096 0.029-0.138 0.037s-0.079 0.013-0.113 0.013c-0.034 0-0.067-0.004-0.1-0.013s-0.066-0.012-0.1-0.012zM18.171 15.275l-2.81-4.875c-0.050 0-0.096 0.004-0.138 0.012-0.046 0.009-0.092 0.013-0.138 0.012-0.050 0-0.096-0.004-0.138-0.012-0.037-0.008-0.075-0.012-0.113-0.012l-2.835 4.875c0.067 0.066 0.125 0.137 0.175 0.213s0.084 0.162 0.101 0.262h5.619c0.034-0.1 0.071-0.188 0.113-0.262 0.044-0.078 0.099-0.15 0.163-0.213zM11.573 15.025l2.81-4.875c-0.050-0.050-0.096-0.104-0.138-0.163-0.046-0.066-0.084-0.137-0.113-0.212l-4.541 0.6c-0.015 0.129-0.058 0.252-0.125 0.363-0.067 0.109-0.152 0.206-0.251 0.287l1.882 3.975c0.034 0 0.067-0.004 0.1-0.012s0.067-0.013 0.101-0.013c0.050 0 0.096 0.004 0.138 0.013 0.047 0.009 0.093 0.022 0.138 0.037zM10.645 15.225l-1.856-3.975c-0.034 0-0.067 0.004-0.1 0.012s-0.067 0.013-0.101 0.013c-0.050 0-0.096-0.004-0.138-0.013-0.037-0.008-0.075-0.012-0.113-0.012l-2.107 4c0.080 0.063 0.148 0.139 0.201 0.225 0.050 0.083 0.092 0.175 0.125 0.275h3.763c0.017-0.117 0.054-0.217 0.113-0.3 0.060-0.085 0.132-0.16 0.213-0.225zM6.556 16.25c-0.032 0.096-0.074 0.188-0.125 0.275-0.053 0.086-0.121 0.162-0.201 0.225l2.107 4.025c0.035-0.017 0.074-0.026 0.113-0.025h0.313l1.882-3.975c-0.081-0.064-0.153-0.14-0.213-0.225-0.059-0.083-0.104-0.183-0.138-0.3zM11.097 17l-1.882 3.975c0.099 0.081 0.184 0.179 0.251 0.287s0.109 0.229 0.125 0.363l4.541 0.575c0.033-0.066 0.071-0.133 0.113-0.2 0.039-0.063 0.086-0.122 0.138-0.175l-2.81-4.85c-0.034 0.017-0.076 0.029-0.126 0.037s-0.1 0.013-0.15 0.013c-0.034 0-0.067-0.004-0.101-0.013s-0.066-0.012-0.1-0.012zM12 16.725l2.81 4.85v0.025c0.050-0.017 0.096-0.029 0.138-0.037 0.046-0.009 0.092-0.013 0.138-0.013 0.050 0 0.1 0.004 0.15 0.013s0.092 0.013 0.126 0.013l2.81-4.85c-0.065-0.065-0.124-0.136-0.175-0.213-0.050-0.075-0.084-0.162-0.101-0.262h-5.619c-0.017 0.1-0.050 0.188-0.1 0.262s-0.109 0.146-0.175 0.213zM19.075 17.001c-0.025 0.002-0.051 0.006-0.076 0.012-0.041 0.009-0.083 0.013-0.126 0.013-0.050 0-0.096-0.004-0.138-0.013-0.047-0.009-0.093-0.022-0.138-0.037l-2.784 4.85c0.050 0.050 0.092 0.108 0.125 0.175l0.101 0.2 4.566-0.575c0.017-0.133 0.054-0.254 0.113-0.363 0.060-0.11 0.141-0.208 0.238-0.287zM19.526 16.775l1.881 3.975h0.314c0.042 0 0.079 0.008 0.113 0.025l2.158-4.050c-0.082-0.049-0.151-0.118-0.201-0.2-0.052-0.087-0.094-0.179-0.125-0.275h-3.788c-0.034 0.117-0.079 0.217-0.138 0.3-0.060 0.085-0.132 0.16-0.213 0.225zM24.116 8.875c-0.001-0.021-0.005-0.042-0.012-0.063-0.009-0.028-0.013-0.058-0.013-0.088 0-0.067 0.009-0.134 0.025-0.2 0.017-0.067 0.034-0.125 0.050-0.175l-4.616-3.35c-0.017 0-0.025 0.004-0.025 0.012v0.013l1.902 4.215c0.025-0.010 0.052-0.015 0.079-0.016h0.1c0.167 0 0.318 0.037 0.452 0.113s0.252 0.172 0.351 0.287zM18.497 5.175l-2.609 3.6c0.050 0.066 0.096 0.142 0.138 0.225s0.063 0.175 0.063 0.275l4.566 0.6c0.034-0.083 0.075-0.163 0.125-0.238 0.052-0.076 0.121-0.141 0.201-0.188l-1.907-4.225c-0.034 0-0.067 0.004-0.101 0.013s-0.066 0.012-0.1 0.012c-0.063 0-0.127-0.008-0.188-0.025-0.059-0.017-0.121-0.033-0.188-0.050zM12.276 4.475c-0.017 0.083-0.042 0.154-0.075 0.213s-0.075 0.121-0.125 0.188l2.634 3.575v0.025c0.050-0.033 0.109-0.054 0.175-0.063s0.134-0.012 0.201-0.012 0.13 0.004 0.188 0.012c0.055 0.008 0.11 0.020 0.163 0.038l2.659-3.575c-0.048-0.063-0.090-0.13-0.125-0.2-0.033-0.063-0.058-0.131-0.076-0.2zM11.298 5.25c-0.034 0-0.067-0.004-0.101-0.012-0.024-0.007-0.050-0.011-0.075-0.013l-1.907 4.225c0.067 0.050 0.126 0.113 0.176 0.188s0.092 0.154 0.125 0.238l4.566-0.6c0.015-0.094 0.040-0.186 0.076-0.275 0.034-0.084 0.085-0.161 0.15-0.225l-2.634-3.6c-0.050 0.017-0.109 0.033-0.176 0.050-0.065 0.017-0.133 0.025-0.201 0.025zM10.645 5l-4.641 3.35c0.017 0.050 0.034 0.104 0.050 0.162s0.025 0.121 0.025 0.188v0.1c0 0.033-0.008 0.058-0.025 0.075l1.731 0.75c0.084-0.117 0.197-0.212 0.339-0.287s0.302-0.114 0.464-0.113h0.088c0.025 0 0.054 0.008 0.088 0.025l1.907-4.225c-0.017 0-0.025-0.004-0.025-0.013zM5.854 9.35c-0.050 0.067-0.117 0.129-0.201 0.188s-0.178 0.105-0.276 0.138l0.376 5.325h0.050l2.107-4c-0.116-0.082-0.207-0.195-0.263-0.325-0.059-0.133-0.088-0.267-0.088-0.4v-0.1c0-0.034 0.008-0.067 0.025-0.1zM4.9 21.975l0.351-5h-0.025c-0.152-0.068-0.288-0.165-0.401-0.287-0.117-0.124-0.202-0.274-0.251-0.438h-0.903c-0.033 0.133-0.088 0.25-0.163 0.35s-0.171 0.183-0.288 0.25l1.681 5.125zM4.574 15.75c0.048-0.163 0.134-0.313 0.251-0.438s0.259-0.221 0.426-0.287l-0.351-5-1.656 5.1c0.101 0.066 0.192 0.154 0.276 0.262 0.082 0.105 0.134 0.23 0.15 0.363h0.903zM5.377 22.325c0.101 0.034 0.188 0.075 0.264 0.125s0.146 0.117 0.213 0.2l1.731-0.725c-0.017-0.034-0.025-0.063-0.025-0.088v-0.088c-0.001-0.146 0.029-0.291 0.088-0.425 0.056-0.131 0.147-0.243 0.263-0.325l-2.107-4h-0.050zM6.063 23.121c0.010 0.026 0.016 0.053 0.016 0.079v0.1c0 0.067-0.008 0.134-0.025 0.2-0.017 0.067-0.034 0.125-0.050 0.175l4.641 3.325 0.025-0.025-1.906-4.225c-0.034 0.017-0.067 0.025-0.101 0.025h-0.1c-0.167 0-0.318-0.037-0.451-0.113s-0.252-0.172-0.351-0.287zM11.121 26.774c0.025-0.002 0.050-0.006 0.076-0.012 0.034-0.008 0.067-0.012 0.1-0.012 0.067 0 0.134 0.008 0.201 0.025s0.125 0.033 0.175 0.050l2.183-3 0.451-0.6c-0.067-0.083-0.117-0.167-0.15-0.25-0.035-0.089-0.060-0.181-0.075-0.275l-4.566-0.575c-0.034 0.083-0.076 0.163-0.126 0.238-0.047 0.072-0.107 0.135-0.175 0.188zM15.468 23.509c-0.061 0.028-0.122 0.046-0.182 0.053-0.133 0.017-0.268 0.017-0.401 0-0.063-0.007-0.123-0.028-0.176-0.063l-2.634 3.625c0.053 0.054 0.096 0.118 0.126 0.188 0.033 0.075 0.058 0.146 0.075 0.213h5.619c0.017-0.067 0.042-0.133 0.075-0.2s0.075-0.133 0.126-0.2zM19.074 26.775l0.050-0.15 1.832-4.075c-0.063-0.063-0.122-0.13-0.176-0.2-0.051-0.069-0.094-0.145-0.125-0.225l-4.566 0.575c0 0.1-0.021 0.192-0.063 0.275-0.046 0.089-0.1 0.173-0.163 0.25l2.634 3.6c0.067-0.017 0.13-0.033 0.188-0.050s0.121-0.025 0.188-0.025c0.033 0 0.067 0.004 0.1 0.012s0.067 0.013 0.1 0.013zM19.551 27l5.067-3.675-2.208-0.95v0.025c-0.097 0.114-0.217 0.208-0.351 0.275s-0.284 0.1-0.451 0.1h-0.1c-0.034 0-0.059-0.008-0.075-0.025l-1.856 4.1-0.050 0.125v0.025zM22.612 21.925l2.233 0.975-0.376-5.925h-0.050l-2.133 4.025c0.1 0.1 0.184 0.213 0.251 0.338s0.1 0.262 0.1 0.412c0 0.033-0.004 0.063-0.013 0.088-0.009 0.028-0.013 0.058-0.012 0.088zM24.97 16.95l0.326 5.025 1.656-5.125c-0.113-0.063-0.211-0.148-0.289-0.25-0.075-0.1-0.13-0.216-0.163-0.35h-0.878c-0.034 0.167-0.109 0.308-0.226 0.425s-0.259 0.209-0.426 0.275z"/>
</svg>
