<!-- Generated by IcoMoon.io -->
<svg version="1.1" xmlns="http://www.w3.org/2000/svg" width="32" height="32" viewBox="0 0 32 32" fill="#000000">
<title>quick</title>
<path d="M22.798 0.2c-0.008 0.116-0.049 0.401-0.092 0.632s-0.211 0.684-0.374 1.006c-0.162 0.321-0.471 0.783-0.685 1.025s-0.271 0.372-0.125 0.287c0.145-0.085 0.067 0.128-0.174 0.473s-0.515 0.68-0.608 0.744c-0.093 0.064-0.107 0.217-0.032 0.34 0.106 0.172 0.172 0.168 0.288-0.020 0.082-0.134 0.203-0.19 0.268-0.125s-0.381 0.615-0.991 1.221c-0.61 0.607-1.562 1.324-2.114 1.595s-0.97 0.547-0.928 0.615c0.042 0.068-0.094 0.406-0.302 0.75s-0.492 0.693-0.631 0.773c-0.139 0.080-0.252 0.227-0.252 0.325s0.236 0.056 0.525-0.093c0.289-0.15 0.577-0.22 0.64-0.157s0.115 0.027 0.115-0.079 0.345-0.331 0.766-0.5c0.421-0.169 0.861-0.437 0.978-0.596 0.168-0.23 0.435-0.269 1.291-0.189 0.594 0.055 1.614 0.284 2.268 0.508s1.744 0.695 2.423 1.047c0.679 0.352 1.234 0.712 1.234 0.8s0.112 0.16 0.25 0.16c0.137 0 0.467 0.171 0.733 0.38s0.571 0.544 0.678 0.744c0.192 0.358 0.186 0.359-0.321 0.036-0.284-0.181-0.577-0.413-0.651-0.516-0.087-0.121-0.136-0.123-0.14-0.004-0.004 0.122-0.050 0.122-0.14 0-0.074-0.101-0.319-0.286-0.546-0.413-0.352-0.197-0.411-0.187-0.411 0.067 0 0.217-0.112 0.269-0.411 0.195-0.226-0.056-1.070-0.271-1.874-0.477s-1.71-0.366-2.011-0.355c-0.364 0.013-0.426 0.047-0.183 0.101 0.201 0.044 0.489 0.131 0.64 0.191s0.336 0.128 0.411 0.149c0.075 0.021 0.302 0.049 0.503 0.061s0.366 0.139 0.366 0.281c0 0.143 0.143 0.236 0.32 0.208 0.176-0.027 0.704 0.15 1.173 0.393s0.901 0.566 0.959 0.718c0.058 0.151 0.174 0.232 0.257 0.181s0.283 0.060 0.443 0.247c0.161 0.187 0.237 0.402 0.17 0.477s-0.032 0.085 0.079 0.022c0.11-0.063 0.38 0.052 0.598 0.256s0.342 0.46 0.274 0.57c-0.069 0.111-0.040 0.149 0.063 0.085s0.315 0.027 0.472 0.2c0.157 0.174 0.291 0.398 0.297 0.498s0.135 0.327 0.285 0.503 0.213 0.321 0.139 0.323c-0.074 0.002-0.044 0.063 0.068 0.137s0.341 0.404 0.51 0.734c0.169 0.33 0.262 0.673 0.207 0.762s-0.020 0.189 0.079 0.223c0.098 0.034 0.204 0.226 0.235 0.427s0.115 0.46 0.188 0.576c0.072 0.116 0.128 0.404 0.124 0.64s0.069 0.759 0.162 1.161 0.186 0.69 0.206 0.64c0.020-0.050 0.061-0.256 0.091-0.457s0.151-1.113 0.269-2.026c0.154-1.193 0.162-2.080 0.027-3.155-0.103-0.822-0.361-2.092-0.573-2.82s-0.599-1.736-0.859-2.239c-0.26-0.503-0.658-1.191-0.885-1.53s-0.363-0.744-0.303-0.9c0.080-0.209 0.028-0.253-0.197-0.167-0.168 0.065-0.306 0.041-0.306-0.053s-0.346-0.502-0.768-0.909c-0.423-0.406-0.707-0.738-0.633-0.738s0.029-0.116-0.1-0.257c-0.13-0.141-0.277-0.245-0.327-0.23s-0.297-0.118-0.549-0.295c-0.251-0.177-0.433-0.382-0.404-0.456s-0.115-0.16-0.32-0.192c-0.205-0.032-0.373-0.126-0.373-0.209s-0.191-0.198-0.424-0.257c-0.233-0.059-0.598-0.257-0.81-0.442-0.366-0.317-0.377-0.415-0.2-1.788 0.109-0.845 0.297-1.538 0.449-1.658 0.22-0.173 0.203-0.222-0.108-0.303-0.211-0.055-0.376-0.006-0.383 0.115zM15.314 2.172c-1.157 0.063-2.37 0.202-2.697 0.307s-0.594 0.163-0.594 0.127c0-0.036-0.494 0.128-1.097 0.365s-1.098 0.374-1.1 0.306c-0.002-0.068-0.063-0.037-0.137 0.069s-0.422 0.327-0.774 0.491c-0.352 0.164-1.082 0.63-1.623 1.034s-1.034 0.759-1.097 0.789c-0.063 0.029-0.505 0.482-0.983 1.006s-0.869 0.895-0.869 0.826-0.174 0.201-0.388 0.602c-0.213 0.401-0.46 0.756-0.549 0.79s-0.161 0.171-0.161 0.305-0.064 0.271-0.142 0.305c-0.078 0.033-0.37 0.574-0.649 1.201s-0.64 1.573-0.803 2.103c-0.163 0.529-0.324 1.086-0.358 1.237s-0.127 1.138-0.207 2.194c-0.103 1.353-0.078 2.25 0.084 3.036 0.127 0.614 0.268 1.313 0.314 1.554s0.171 0.665 0.278 0.941c0.107 0.277 0.14 0.503 0.072 0.503s-0.025 0.099 0.096 0.219 0.219 0.368 0.219 0.549c0 0.181 0.087 0.329 0.194 0.329s0.143 0.082 0.081 0.183c-0.062 0.101-0.039 0.183 0.051 0.183s0.274 0.226 0.409 0.503 0.23 0.565 0.212 0.64c-0.018 0.075 0.055 0.137 0.162 0.137s0.143 0.082 0.081 0.183c-0.062 0.101-0.023 0.183 0.086 0.183s0.246 0.122 0.304 0.271 0.426 0.622 0.818 1.051c0.393 0.429 0.675 0.882 0.628 1.006s-0.027 0.21 0.044 0.19c0.072-0.020 0.329 0.073 0.571 0.207s0.622 0.44 0.844 0.679c0.222 0.239 0.502 0.435 0.622 0.435s0.168 0.082 0.105 0.183c-0.062 0.101 0.052 0.183 0.254 0.183s0.441 0.131 0.53 0.291c0.089 0.16 0.221 0.275 0.291 0.255s0.372 0.065 0.669 0.189c0.297 0.123 0.541 0.296 0.541 0.385s0.062 0.147 0.137 0.131 0.363 0.034 0.64 0.111c0.277 0.078 0.503 0.21 0.503 0.293s0.144 0.147 0.32 0.141c0.176-0.006 0.855 0.121 1.509 0.283 0.756 0.187 1.992 0.295 3.395 0.297 1.662 0.002 2.542-0.089 3.566-0.37 0.747-0.205 1.459-0.395 1.582-0.421s0.28-0.105 0.351-0.175c0.070-0.070 0.262-0.127 0.428-0.127s0.477-0.165 0.693-0.366c0.216-0.201 0.435-0.366 0.488-0.366s0.556-0.473 1.12-1.051c0.564-0.578 1.194-1.381 1.4-1.783s0.467-0.792 0.579-0.866c0.112-0.074 0.148-0.136 0.080-0.137s-0.043-0.27 0.056-0.597c0.099-0.327 0.219-0.759 0.268-0.96s0.092-0.942 0.097-1.646c0.005-0.704-0.125-1.815-0.289-2.469s-0.33-1.312-0.368-1.463-0.075-0.33-0.082-0.398c-0.008-0.068-0.131-0.241-0.274-0.384s-0.287-0.416-0.32-0.607c-0.033-0.191-0.225-0.489-0.426-0.661s-0.293-0.317-0.204-0.32c0.089-0.003-0.386-0.541-1.056-1.195s-1.28-1.189-1.356-1.189-0.398-0.238-0.716-0.529c-0.318-0.291-0.622-0.485-0.675-0.432s-0.302-0.039-0.554-0.204c-0.252-0.165-0.933-0.428-1.514-0.584s-1.303-0.322-1.605-0.369-1.063-0.096-1.691-0.109c-0.628-0.013-1.143 0.050-1.143 0.142s0.061 0.169 0.137 0.172c0.075 0.004 0.343 0.12 0.594 0.259s0.721 0.5 1.042 0.802c0.322 0.303 0.548 0.611 0.503 0.684s-0.268 0.093-0.494 0.043-0.535-0.135-0.686-0.189c-0.151-0.054-0.48-0.127-0.731-0.161s-1.198-0.062-2.103-0.062c-0.905 0-1.954 0.071-2.331 0.158s-0.686 0.128-0.686 0.092c0-0.036-0.37 0.093-0.823 0.287s-0.824 0.294-0.826 0.222c-0.002-0.072-0.063-0.048-0.137 0.052s-0.422 0.337-0.774 0.526c-0.352 0.189-0.947 0.582-1.322 0.874s-0.637 0.413-0.582 0.27c0.055-0.144 0.013-0.316-0.095-0.382s-0.193-0.589-0.191-1.161c0.002-0.63 0.143-1.348 0.357-1.818 0.194-0.428 0.453-0.777 0.575-0.777s0.172-0.050 0.111-0.111c-0.061-0.061 0.069-0.292 0.289-0.512s0.533-0.5 0.696-0.622c0.253-0.19 0.283-0.161 0.214 0.203-0.049 0.254 0.040 0.525 0.222 0.676 0.25 0.208 0.453 0.212 1.157 0.025 0.47-0.125 1.043-0.428 1.273-0.674 0.325-0.347 0.611-0.45 1.28-0.459 0.63-0.009 0.763-0.052 0.496-0.161-0.201-0.082-0.52-0.321-0.707-0.53-0.238-0.264-0.306-0.523-0.224-0.849 0.065-0.258 0.29-0.641 0.5-0.852s0.862-0.577 1.448-0.816c0.586-0.238 1.378-0.607 1.761-0.82s0.826-0.502 0.985-0.643c0.159-0.141 0.369-0.256 0.467-0.256s0.35-0.3 0.559-0.667c0.354-0.62 0.394-0.641 0.574-0.306 0.106 0.198 0.224 0.594 0.262 0.88 0.042 0.312 0.193 0.537 0.377 0.564 0.169 0.025 0.267-0.021 0.216-0.103s0.052-0.21 0.228-0.287c0.175-0.077 0.387-0.125 0.47-0.106s0.099-0.051 0.035-0.154c-0.064-0.103-0.046-0.187 0.038-0.187s0.661-0.498 1.281-1.107c0.62-0.609 1.089-1.208 1.041-1.332s-0.296-0.242-0.552-0.264c-0.256-0.021-1.056-0.183-1.778-0.36-1.049-0.256-1.735-0.298-3.416-0.206zM26.651 6.445c0 0.050 0.041 0.091 0.091 0.091s0.091-0.041 0.091-0.091c0-0.050-0.041-0.091-0.091-0.091s-0.091 0.041-0.091 0.091zM15.339 7.831c-0.237 0.193-0.577 0.352-0.754 0.352s-0.724 0.221-1.214 0.492c-0.49 0.271-0.952 0.579-1.026 0.686s-0.136 0.328-0.137 0.491c-0.002 0.246 0.147 0.282 0.866 0.204 0.478-0.051 1.033-0.182 1.234-0.29s0.448-0.182 0.549-0.164c0.101 0.018 0.376-0.374 0.611-0.871s0.4-0.982 0.366-1.078c-0.035-0.096-0.257-0.016-0.494 0.178zM6.784 12.657c-0.115 0.123-0.341 0.479-0.502 0.791s-0.294 0.613-0.294 0.669c0 0.055 0.082 0.101 0.183 0.101s0.183-0.118 0.183-0.262c0-0.144 0.165-0.314 0.366-0.378s0.518-0.068 0.704-0.009c0.274 0.087 0.335 0.015 0.32-0.378-0.012-0.308-0.152-0.535-0.385-0.621-0.219-0.081-0.45-0.046-0.575 0.088zM1.417 21.805c0 0.050 0.041 0.091 0.091 0.091s0.091-0.041 0.091-0.091c0-0.050-0.041-0.091-0.091-0.091s-0.091 0.041-0.091 0.091z"/>
</svg>
