<svg xmlns="http://www.w3.org/2000/svg" width="200" height="200" fill="#000000"><path fill-opacity=".09" fill-rule="evenodd" d="M54.692 35.25c-1.548 1.145-1.711 6.226-1.941 60.75l-.251 59.5-3.27 1.439c-6.008 2.644-3.214 3.561 10.853 3.561 11.205 0 13.417-.245 13.417-1.486 0-.818-.9-1.643-2-1.835-3.803-.662-4.5-3.011-4.5-15.174 0-10.527.245-12.104 2.623-16.876 3.679-7.383 8.586-10.462 17.47-10.964 5.695-.322 7.397-.025 10.361 1.806 1.95 1.206 3.546 2.519 3.546 2.918s1.089 2.05 2.42 3.668 7.989 10.143 14.796 18.943c7.329 9.475 13.573 16.577 15.31 17.415 1.614.778 6.206 1.625 10.204 1.881 6.224.4 7.27.234 7.27-1.151 0-.89-1.474-2.234-3.276-2.987-4.333-1.81-20.7-21.343-32.602-38.908l-3.218-4.75h8.093c7.26 0 8.347-.253 10.548-2.455 2.895-2.894 3.019-3.838.796-6.062-1.29-1.289-2.684-1.514-6.25-1.009-2.525.358-8.536.88-13.357 1.16-11.287.655-13.6-.673-21.154-12.142-8.288-12.585-11.631-13.898-18.976-7.449l-3.433 3.014-.649-2.956c-.848-3.861 1.61-8.603 5.773-11.134 5.257-3.197 7.119-2.069 17.986 10.897 7.876 9.398 13.892 13.739 20.391 14.714 5.699.855 13.328-1.813 13.328-4.661 0-1.17-.692-1.917-1.777-1.917-.978 0-2.825-.733-4.105-1.63-1.279-.896-4.131-2.035-6.337-2.53-4.661-1.048-11.439-5.457-15.127-9.84-6.163-7.324-6.318-24.253-.233-25.46 1.144-.227 5.679-.647 10.079-.933 10.598-.69 14.145-1.987 14.816-5.418 1.2-6.14-5.321-12.169-13.214-12.217-4.352-.026-4.885.287-9.799 5.75-4.957 5.511-5.28 5.697-6.965 4.028-1.619-1.604-1.626-1.75-.087-1.75 2.847 0 4.153-3.734 2.297-6.567C92.956 34.003 92.935 34 74.668 34c-13.061 0-18.769.357-19.976 1.25M125 39.3c0 2.792 1.742 4.7 4.292 4.7 1.041 0 3.037.9 4.435 2 3.188 2.508 4.273 2.526 4.273.071 0-3.293-6.286-9.071-9.868-9.071-2.602 0-3.132.39-3.132 2.3m13.607 11.282c-1.14 2.971-.608 5.55 1.802 8.735 1.324 1.751 3.423 6.545 4.664 10.654 2.203 7.294 2.216 7.626.583 14-2.597 10.136-2.027 13.257 1.735 9.495 2.521-2.521 3.598-8.358 3.603-19.538.007-11.691-1.576-18.106-5.516-22.357-2.682-2.895-5.959-3.366-6.871-.989m-22.468 5.389c-1.906 1.638-3.768 2.029-9.672 2.029h-7.312l-1.174 3.559c-.909 2.753-.899 4.225.045 6.504 2.353 5.68 13.293 13.325 20.782 14.522 3.804.609 4.37.45 4.842-1.355.579-2.213 3.03-3.195 8.027-3.216 3.429-.015 6.863-3.333 7.956-7.687.855-3.409-7.006-15.327-10.111-15.327-1.234 0-4.218-.238-6.632-.529-3.476-.419-4.881-.107-6.751 1.5m22.418 20.252c-.856 1.222-1.557 3.316-1.557 4.653 0 1.554-1.443 3.763-4 6.124-4.231 3.906-4.909 6.001-2.572 7.94 1.995 1.656 7.084-1.089 9.556-5.155 2.896-4.762 4.514-12.48 2.998-14.306-1.674-2.018-2.6-1.863-4.425.744"/><path fill-opacity=".168" fill-rule="evenodd" d="M54.2 36.2c-.906.906-1.2 15.73-1.2 60.587v59.387l-3 1.132c-1.65.623-3 1.484-3 1.913s5.85.781 13 .781c8 0 13-.385 13-1 0-.55-.605-1-1.345-1s-2.09-.823-3-1.829c-2.623-2.898-2.39-25.81.316-31.114 4.15-8.136 14.55-13.163 23.714-11.465 4.948.917 7.581 3.703 24.675 26.116 10.246 13.435 14.652 18.449 16.899 19.232 3.616 1.261 16.741 1.427 16.741.212 0-.467-1.829-1.673-4.064-2.681-3.111-1.403-6.519-4.947-14.521-15.102-5.751-7.298-12.723-16.555-15.492-20.569l-5.035-7.3 7.806-.557c9.265-.66 11.125-1.372 11.926-4.566.932-3.711-1.306-5.68-5.564-4.896-1.956.359-8.334.887-14.174 1.171l-10.619.518-3.577-3.141c-1.968-1.727-5.421-6.059-7.674-9.627C84.48 83.643 82.674 82 78.571 82c-2.521 0-4.376.894-7.011 3.379l-3.583 3.379-.597-2.379c-.84-3.349.204-6.731 3.164-10.248 5.405-6.424 9.763-5.087 18.63 5.719 7.914 9.644 11.231 12.806 15.971 15.224 6.338 3.233 18.308 2.12 19.609-1.823.227-.688-.413-1.529-1.421-1.871s-3.663-1.467-5.899-2.5c-2.236-1.034-4.616-1.88-5.29-1.88-4.461 0-16.003-9.774-18.086-15.315C93.476 72.137 93 67.799 93 64.046c0-9.705 1.603-11.474 10.661-11.769 12.427-.404 16.679-1.46 17.712-4.396 1.367-3.887-.034-7.701-3.65-9.933-7.736-4.775-13.149-3.86-18.248 3.086-3.508 4.78-6.559 6.257-8.024 3.886-.367-.594.281-1.744 1.441-2.557 2.343-1.641 2.739-4.332.908-6.163-1.692-1.692-37.908-1.692-39.6 0m71.467 1.467c-1.31 1.309-.636 4.406 1.083 4.985.963.324 3.686 1.486 6.052 2.583 4.76 2.206 5.893 1.932 4.302-1.041-2.498-4.668-9.373-8.591-11.437-6.527m13.368 13.267c-1.522 2.844-1.302 4.074 1.438 8.027 3.105 4.48 6.527 14.291 6.527 18.711 0 1.847-.749 6.052-1.665 9.345-1.732 6.231-1.491 7.64 1.137 6.632 2.847-1.092 3.876-5.948 3.953-18.649.081-13.568-.91-18.047-5.1-23.025-2.901-3.448-4.831-3.767-6.29-1.041m-21.928 4.973c-2.845 2.468-7.824 3.528-13.185 2.809-3.158-.423-4.149-.16-4.937 1.311-1.338 2.502-1.181 6.992.341 9.733 1.408 2.535 10.931 9.999 14.489 11.357 3.106 1.185 9.185 1.125 9.185-.091 0-1.536 5.906-4.19 7.909-3.555 2.885.916 5.034-.439 7.09-4.469 1.873-3.672 1.874-3.828.043-7.419-3.772-7.399-6.783-10.444-10.289-10.406-1.789.02-4.385-.269-5.767-.642-1.803-.486-3.185-.097-4.879 1.372m22.191 20.343c-.522.688-1.504 3.194-2.184 5.57-.912 3.188-2.137 4.851-4.675 6.349-3.572 2.107-3.844 2.611-2.832 5.249 1.667 4.343 9.898-1.242 12.259-8.317 2.358-7.069.62-13.058-2.568-8.851"/><path fill-opacity=".114" fill-rule="evenodd" d="M54.667 35.667c-.367.366-.673 26.804-.681 58.75-.007 31.946-.291 59.118-.63 60.384-.403 1.507-1.607 2.499-3.486 2.875C43.352 158.98 47.8 160 60 160c8 0 13-.385 13-1 0-.55-.874-1-1.943-1C67.24 158 66 154.326 66 143.021c0-5.794.44-12.067.977-13.941 2.888-10.069 12.425-16.653 23.014-15.887 4.574.331 6.598 1.006 8.599 2.87 1.44 1.34 9.121 10.88 17.069 21.2s15.588 19.508 16.98 20.42c1.663 1.09 5.327 1.789 10.695 2.042 8.698.409 8.887.026 1.891-3.842-3.684-2.037-29.021-33.726-32.789-41.009l-1.359-2.626 8.43.126c7.368.11 8.7-.143 10.566-2.006 4.224-4.217-.312-8.749-6.427-6.423-1.527.58-7.359 1.053-12.961 1.05-10.035-.004-10.234-.051-13.532-3.141-1.841-1.726-5.294-6.174-7.673-9.884-7.028-10.966-10.821-12.367-17.393-6.43-4.124 3.726-4.906 3.554-5.237-1.152C66.426 78.358 71.823 72 77.365 72c3.114 0 6.461 3.035 17.854 16.189C101.651 95.615 107.484 99 113.848 99c4.927 0 11.582-2.495 10.656-3.994-.759-1.227-6.193-3.639-12.602-5.592-6.226-1.897-13.267-7.475-16.585-13.137-2.301-3.925-2.745-5.855-2.778-12.061-.036-6.755.186-7.581 2.582-9.643 2.205-1.897 4.26-2.363 12.941-2.932C119.164 50.914 122 49.648 122 45.422c0-5.441-9.493-11.575-15.299-9.885-1.211.352-4.575 3.16-7.477 6.24-5.003 5.311-5.365 5.51-7 3.864-1.633-1.645-1.594-1.835.729-3.596 2.176-1.65 2.319-2.152 1.271-4.452L93.043 35H74.188c-10.37 0-19.155.3-19.521.667m71.437 2.247c-2.001 1.268-.626 3.948 2.62 5.108 1.527.545 4.045 1.707 5.595 2.582 1.551.875 3.062 1.348 3.359 1.051.744-.744-3.311-6.285-5.956-8.137-2.472-1.732-3.638-1.857-5.618-.604m14.097 11.962c-2.025 1.252-1.714 5.594.637 8.897 4.986 7.002 7.614 20.277 5.247 26.503-1.808 4.755-2.011 8.724-.447 8.724 2.845 0 4.431-6.607 4.636-19.31.182-11.3.004-12.604-2.444-17.854-2.68-5.749-5.47-8.294-7.629-6.96m-24.062 7.181C114.31 58.562 112.234 59 106.924 59c-5.753 0-7.02.311-7.889 1.934-2.236 4.18-1.227 7.284 3.949 12.144 5.593 5.25 10.52 7.912 16.012 8.648 3.081.414 3.799.165 4.225-1.462.509-1.949 4.305-3.264 9.419-3.264 2.483 0 6.349-4.92 6.356-8.091.002-.876-1.683-4.2-3.746-7.388l-3.75-5.796-6.5-.305c-5.258-.247-6.951.066-8.861 1.637m23.014 19.693c-.504.963-1.232 3.222-1.619 5.02-.447 2.082-2.111 4.403-4.58 6.387-3.204 2.575-3.705 3.44-2.881 4.98C133.312 99.189 143 87.712 143 77.822c0-3.214-2.377-3.876-3.847-1.072"/><path fill-opacity=".106" fill-rule="evenodd" d="M55.2 36.2c-.906.906-1.204 15.562-1.215 59.75-.009 32.679-.411 59.174-.91 59.963-.492.777-2.173 1.949-3.735 2.605-2.506 1.051-1.743 1.212 6.487 1.366 7.345.138 9.164-.097 8.558-1.104-.583-.971-.421-1.021.673-.207 1.908 1.419 8.293 1.804 7.455.448-.347-.561-1.21-1.021-1.917-1.021s-2.031-.823-2.941-1.829c-1.347-1.489-1.655-4.07-1.655-13.886 0-11.255.186-12.412 2.793-17.404 4.084-7.816 9.369-11.212 18.228-11.712 5.733-.324 7.56-.024 10.534 1.731 1.979 1.168 4.126 1.827 4.772 1.465.897-.503.897-.36.002.61-.914.988-.067 2.674 3.841 7.646 5.297 6.741 6.101 7.454 5.223 4.629-.514-1.655-.483-1.654.586.008.621.967.918 2.099.66 2.516-.258.418.872 2.327 2.51 4.243 2.381 2.783 2.754 2.981 1.86.983-1.031-2.302-1.002-2.354.367-.653.818 1.016 1.255 2.451.972 3.189-.284.739.422 1.928 1.568 2.644s2.084 1.813 2.084 2.438.787 1.755 1.75 2.51c1.566 1.227 1.613 1.197.451-.289-1.064-1.362-1.064-1.796 0-2.41.715-.412.961-.377.547.08-.414.456.036 1.73 1 2.832s1.19 1.674.502 1.272c-2.576-1.506-1.107 1.263 3 5.654 3.817 4.082 4.847 4.618 10.111 5.268 4.502.555 6.064.403 6.735-.656.632-.998.878-1.034.889-.129.008.688.69 1.25 1.515 1.25s1.5-.406 1.5-.902c0-1.161-5.942-3.252-7.14-2.512-.5.31-.798.192-.662-.262.457-1.524-3.403-6.315-4.557-5.655-.628.358-.819.295-.424-.142.929-1.029-5.233-9.635-6.389-8.921-.482.298-.754-.053-.603-.782.151-.728-.321-1.2-1.049-1.049-.729.151-1.038-.189-.688-.755.852-1.379-8.468-13.151-9.773-12.344-.579.358-.721.143-.328-.493.917-1.484-2.303-6.353-3.651-5.52-.611.378-.747.163-.327-.515.394-.639-.211-2.466-1.346-4.059-1.135-1.594-2.063-3.174-2.063-3.512s3.263-.534 7.25-.437c8.474.206 11.352-.528 12.82-3.272 1.82-3.4-.596-5.162-6.013-4.386-2.506.36-8.906.877-14.222 1.15l-9.665.497-4.835-4.748c-2.659-2.611-5.206-4.654-5.659-4.54-.454.115-.54-.252-.192-.814.785-1.272-1.896-5.281-2.877-4.301-.392.392-.438-.002-.103-.875C88.292 88.796 81.98 82 79.282 82 76.998 82 69 87.496 69 89.065c0 2.406-1.825-.316-2.451-3.657-.558-2.973-.184-4.35 2.107-7.761 1.533-2.281 2.799-4.566 2.815-5.079.025-.803 2.543-1.014 7.903-.659 1.613.107 8.732 7.364 14.63 14.915 7.526 9.634 17.801 14.044 25.708 11.035 1.996-.76 3.839-2.011 4.095-2.78.336-1.009-.05-1.2-1.39-.685-1.021.391-1.55.405-1.176.031.856-.855-6.02-4.425-8.524-4.425-2.111 0-9.935-4.352-11.745-6.534-.659-.794-1.71-1.152-2.335-.795s-.812.29-.415-.149c.397-.44-.373-2.101-1.711-3.692-4.381-5.206-6.157-18.272-3.043-22.389 2.019-2.669 1.9-3.964-.218-2.362-1.47 1.112-1.556 1.107-.541-.036.664-.748 2.464-1.47 4-1.605 1.535-.134 6.759-.539 11.61-.899 10.55-.783 11.57-1.118 12.733-4.175 2.252-5.923-4.139-11.592-12.552-11.135-3.52.191-4.919.663-4.725 1.595.151.729-.115 1.084-.591.79-1.172-.724-5.436 5.169-4.655 6.432.341.552.024.88-.705.729-.728-.151-1.234.221-1.123.827.339 1.863-4.678.309-5.806-1.798-.861-1.609-.68-2.047 1.03-2.495 1.141-.298 2.128-1.052 2.193-1.676.235-2.243-.339-4.147-1.468-4.868-2.037-1.301-36.11-.905-37.45.435m36.057 3.037c-.132 1.759.033 1.919.772.75 1.156-1.828 1.227-2.987.184-2.987-.433 0-.863 1.007-.956 2.237M111 37.378c0 .207.787.995 1.75 1.75 1.586 1.243 1.621 1.208.378-.378-1.307-1.666-2.128-2.195-2.128-1.372m15.201.821c-1.703 1.703-.27 3.625 3.637 4.879 2.014.646 4.502 1.905 5.528 2.798 1.745 1.519 1.839 1.494 1.441-.376-.234-1.1-.909-1.905-1.499-1.789s-1.013-.511-.94-1.393c.072-.881-.431-1.801-1.119-2.044-.798-.282-1.031.132-.643 1.142.335.871.168 1.584-.369 1.584s-.923-.959-.857-2.13c.138-2.451-3.515-4.335-5.179-2.671m-7.637 9.508c-.542 1.425-.428 1.54.56.56.684-.679.991-1.486.683-1.793-.308-.308-.867.247-1.243 1.233m20.826 3.72c-.964 2.511.057 6.096 1.634 5.74.812-.184 1.137.005.722.42-.414.414-.116 1.725.662 2.913s2.329 5.048 3.447 8.58 2.058 5.782 2.089 5.003.302-1.17.603-.869-.407 4.425-1.574 9.164c-2.553 10.371-2.358 13.556.561 9.167 1.593-2.396 2.033-5.096 2.324-14.265.379-11.961-.342-18.717-1.897-17.756-.516.319-.684-.083-.373-.894 1.003-2.612-3.315-8.63-6.191-8.63-.803 0-1.706.642-2.007 1.427m1.112.57c-.603.976.117 1.398 1.853 1.086.471-.084 1.57.425 2.442 1.132 1.198.97 1.404.98.839.04-1.199-1.996-4.42-3.413-5.134-2.258M116.5 57.189l-2 2.07 2-1.096c1.1-.603 2.675-1.554 3.5-2.114 1.333-.905 1.333-1.013 0-.974-.825.024-2.4.975-3.5 2.114M98.98 61.25c-.925 1.909-.892 2.009.215.662.718-.873 1.98-1.85 2.805-2.171 1.216-.473 1.175-.598-.215-.662-.943-.043-2.205.934-2.805 2.171m6.833-1.567c.721.289 1.584.253 1.916-.079s-.258-.568-1.312-.525c-1.165.048-1.402.285-.604.604m6 0c.721.289 1.584.253 1.916-.079s-.258-.568-1.312-.525c-1.165.048-1.402.285-.604.604m21.646 2.384c-.363.586-.389 1.336-.059 1.666s.6.049.6-.625.52-.905 1.155-.513c.715.443.883.275.44-.44-.884-1.431-1.296-1.448-2.136-.088m-43.343 2.101c-.064.918-.375 2.493-.692 3.5-.545 1.736-.515 1.739.568.051.628-.98.939-2.555.691-3.5-.406-1.549-.462-1.554-.567-.051m56.343.899c-1.026 1.66-.105 1.89 1.33.332.71-.769.849-1.399.309-1.399-.539 0-1.277.48-1.639 1.067M148.158 69c0 1.375.227 1.938.504 1.25.278-.687.278-1.812 0-2.5-.277-.687-.504-.125-.504 1.25m-10.534.539c-.965 2.514-.681 3.163.498 1.136.584-1.004.851-2.036.593-2.293-.257-.258-.749.263-1.091 1.157M101 71.378c0 .207.787.995 1.75 1.75 1.586 1.243 1.621 1.208.378-.378-1.307-1.666-2.128-2.195-2.128-1.372m-18 1.015c0 .216.698.661 1.552.989.89.341 1.291.173.941-.393-.587-.951-2.493-1.406-2.493-.596m-16.457 2.538c-.317.512-.193 1.167.274 1.456s.85-.13.85-.931c0-1.686-.316-1.833-1.124-.525m64.225 1.237c.582.582 1.647.86 2.369.62.749-.25.295-.703-1.057-1.057-1.663-.435-2.054-.305-1.312.437m8.951.256c-.793.793-1.738 3.292-2.099 5.554-.529 3.304-1.342 4.516-4.139 6.166-3.355 1.979-4.576 5.061-2.51 6.338 1.822 1.126 7.006-2.516 8.899-6.253 3.767-7.432 3.662-15.618-.151-11.805m-75.166 1.491a1.116 1.116 0 0 0 .362 1.532c.521.322 1.21.159 1.532-.362a1.116 1.116 0 0 0-.362-1.532 1.116 1.116 0 0 0-1.532.362m28.526.668c.048 1.165.285 1.402.604.605.289-.722.253-1.585-.079-1.917s-.568.258-.525 1.312m46.658-.833c-.884 1.743-.661 6.321.281 5.739.552-.341.903-1.941.78-3.555-.233-3.054-.422-3.443-1.061-2.184M120 81c-2.327.745-2.349.808-.309.9 1.205.055 2.469-.35 2.809-.9s.479-.955.309-.9zm28.079 1.668c-.043.643-.338 1.993-.655 3-.547 1.741-.518 1.744.571.044.631-.983.925-2.333.655-3-.355-.875-.514-.887-.571-.044m-54.514 1.227c-.305.493.096 1.145.89 1.449q1.444.555.887-.895c-.645-1.68-1.011-1.794-1.777-.554m3.415 2.629c-1.361 1.64-.808 2.737 1.554 3.084.811.119 1.217-.201.902-.712a1.096 1.096 0 0 0-1.505-.353c-1.347.832-1.145-.929.269-2.343.66-.66.94-1.2.622-1.2s-1.146.686-1.842 1.524M74 87c-.901.582-1.025.975-.309.985.655.008 1.469-.435 1.809-.985.767-1.242.421-1.242-1.5 0m8-.622c0 .207.787.995 1.75 1.75 1.586 1.243 1.621 1.208.378-.378C82.821 86.084 82 85.555 82 86.378m20.254 4.342c.081 1.071.724 1.947 1.43 1.947 1.011 0 1.028-.338.083-1.584-.661-.87-1.304-1.746-1.43-1.946-.127-.2-.164.513-.083 1.583M132 93.059c0 .582.45.781 1 .441s1-.816 1-1.059-.45-.441-1-.441-1 .477-1 1.059M114.5 97c-.34.55-.168 1 .382 1s1.278-.45 1.618-1 .168-1-.382-1-1.278.45-1.618 1m-24.393 3.8c-.801 1.497-.566 1.8 1.4 1.8 1.3 0 2.137-.367 1.859-.816-.277-.449-1-.51-1.605-.136-.708.438-.873.087-.462-.984.852-2.222.019-2.127-1.192.136m10.706 6.883c.721.289 1.584.253 1.916-.079s-.258-.568-1.312-.525c-1.165.048-1.402.285-.604.604M76 113.107c0 .609-.6.877-1.333.595-.734-.281-1.334.096-1.334.839 0 1 .477 1.096 1.834.37 1.651-.884 2.579-2.911 1.333-2.911-.275 0-.5.498-.5 1.107m34.564 7.186c.376.986.935 1.541 1.243 1.233s.001-1.114-.683-1.793c-.988-.98-1.102-.865-.56.56m-44.831.831c.679.684 1.486.991 1.793.683.308-.308-.247-.867-1.233-1.243-1.425-.542-1.54-.428-.56.56m50.88 8.059c.289.467.944.591 1.456.274 1.308-.808 1.161-1.124-.525-1.124-.801 0-1.22.383-.931.85m-52.534 16.4c.048 1.165.285 1.402.604.605.289-.722.253-1.585-.079-1.917s-.568.258-.525 1.312m67.921.358c0 .518.445 1.216.989 1.552.566.35.734-.051.393-.941-.665-1.732-1.382-2.049-1.382-.611m5.531 7.009c-.323.522.438 1.447 1.691 2.055 2.039.989 2.096.958.544-.299-.954-.772-1.442-1.697-1.084-2.055s.378-.651.044-.651c-.335 0-.872.427-1.195.95m-5.358 2.759c.59.71 1.579 1.284 2.199 1.276.662-.009.564-.373-.235-.879-1.151-.729-1.151-.945 0-1.383.75-.286.373-.471-.836-.412-1.678.082-1.945.413-1.128 1.398m4.428 1.127c-.254.412.406.814 1.468.894 2.297.173 2.499-.298.463-1.079-.807-.31-1.676-.227-1.931.185"/></svg>