<svg width="471" height="500" viewBox="0 0 471 500" fill="#000000" xmlns="http://www.w3.org/2000/svg">
<path fill-rule="evenodd" clip-rule="evenodd" d="M200.98 4.13077C189.337 6.8474 170.712 12.2701 159.588 16.1792C148.464 20.0848 128.619 30.2457 115.487 38.7554C102.355 47.2652 83.0709 62.8417 72.6348 73.366C62.1988 83.8938 47.6419 101.682 40.2858 112.898C32.9297 124.114 21.9821 145.124 15.9632 159.585C7.90148 178.948 4.1229 195.258 1.62854 221.426C-0.654134 245.378 -0.537699 265.82 1.98136 284.109C4.03823 299.033 10.4452 323.155 16.2172 337.708C21.9927 352.261 30.4424 369.852 35.0007 376.799C41.2278 386.293 48.411 391.296 63.9205 396.945C75.2668 401.076 95.6662 407.127 109.249 410.39C126.706 414.585 150.496 416.413 190.395 416.614C243.458 416.885 248.538 416.31 275.069 407.063C290.593 401.651 310.079 393.272 318.37 388.438C326.661 383.608 343.409 370.332 355.588 358.936C368.726 346.648 381.812 330.165 387.753 318.42C393.264 307.529 397.949 292.725 398.161 285.528C398.528 273.222 397.498 271.913 380.912 263.618C367.901 257.112 357.708 254.812 342.064 254.854C326.107 254.893 315.893 257.338 300.782 264.729C286.892 271.528 276.992 279.664 268.659 291.137C262.033 300.257 254.631 313.84 252.215 321.324C249.794 328.807 248.471 343.984 249.272 355.052C250.098 366.494 254.151 381.753 258.667 390.411L266.606 405.645L236.515 404.064C210.311 402.692 202.966 400.734 179.719 388.936C161.67 379.773 147.31 369.133 135.382 356.079C125.676 345.463 114.813 331.033 111.236 324.012C107.662 316.991 102.179 302.625 99.0532 292.083C95.9308 281.544 93.3906 262.493 93.4153 249.746C93.4365 237.002 95.6345 218.399 98.2946 208.404C100.955 198.412 107.549 182.119 112.947 172.202C118.345 162.284 130.965 146.412 140.992 136.928C151.022 127.445 167.826 115.308 178.34 109.963C188.85 104.618 203.008 98.6941 209.8 96.7995C216.591 94.9049 239.09 93.1656 259.793 92.9292C291.838 92.5694 298.926 91.4227 307.422 85.2204C312.915 81.216 320.441 71.8242 324.152 64.3482C330.277 52.0034 330.439 49.4491 325.916 36.4904C322.505 26.7211 316.161 18.8747 305.806 11.6174C291.835 1.82693 288.053 0.944906 256.413 0.101693C236.141 -0.438105 213.504 1.20951 200.98 4.13077ZM303.294 142.471C297.473 143.314 282.701 147.258 270.469 151.241C258.237 155.221 241.129 163.897 232.454 170.519C223.775 177.145 211.941 187.704 206.155 193.984C200.369 200.264 190.91 215.103 185.135 226.961C179.356 238.816 173.196 258.661 171.439 271.062C169.53 284.557 169.541 302.106 171.464 314.775C173.231 326.418 179.441 345.738 185.262 357.705C191.083 369.676 200.415 384.36 206.004 390.34C214.164 399.079 219.008 401.214 230.679 401.214H245.201L235.798 382.691C229.494 370.272 225.87 356.611 224.805 341.236C223.556 323.268 224.925 313.766 231.124 297.343C236.306 283.615 244.643 270.798 255.287 260.196C264.228 251.295 277.892 241.014 285.654 237.352C293.557 233.622 310.82 229.985 324.89 229.082C342.654 227.939 355.231 229.202 367.837 233.389C377.642 236.642 387.566 241.603 389.891 244.408C392.22 247.213 395.518 249.506 397.219 249.506C398.923 249.506 400.317 241.857 400.317 232.507C400.317 223.154 397.759 206.883 394.636 196.345C391.51 185.803 386.028 171.433 382.45 164.408C377.225 154.152 372.963 150.906 360.788 147.911C352.451 145.865 338.487 143.455 329.755 142.562C321.023 141.67 309.116 141.627 303.294 142.471ZM393.264 165.714C393.264 166.201 396.771 175.328 401.058 186C407.606 202.307 408.872 212.443 408.992 249.506C409.13 291.843 408.689 294.549 397.97 317.175C391.832 330.133 379.928 348.204 371.517 357.328C363.106 366.451 346.93 380.228 335.569 387.944C324.205 395.66 301.978 406.943 286.169 413.019C257.718 423.956 256.773 424.065 192.159 424.107C139.792 424.139 121.661 422.83 100.429 417.489C85.8758 413.827 71.0543 409.332 67.4909 407.501C63.9311 405.67 60.1595 405.024 59.1152 406.072C58.0709 407.116 61.4896 413.054 66.7182 419.267C71.9469 425.48 83.6531 436.477 92.7379 443.702C101.819 450.928 119.569 462.496 132.182 469.408C144.795 476.319 170.769 486.032 189.898 490.989C210.382 496.296 234.405 500 248.323 500C261.324 500 285.361 496.677 301.742 492.612C318.119 488.551 343.426 479.421 357.98 472.326C377.186 462.962 391.719 452.173 410.993 432.966C430.143 413.879 440.826 399.622 449.329 381.809C455.81 368.226 463.6 344.595 466.645 329.297C471.263 306.086 471.496 296.803 468.052 273.193C465.787 257.631 460.626 238.075 456.586 229.731C452.546 221.387 442.932 206.636 435.223 196.951C427.515 187.27 415.921 176.079 409.461 172.089C403.005 168.099 396.718 164.832 395.49 164.832C394.262 164.832 393.26 165.227 393.264 165.714Z" fill="#000000"/>
</svg>
