<svg xmlns="http://www.w3.org/2000/svg" width="20" height="20" fill="#000000"><g clip-path="url(#a)"><path fill="#000000" d="m8.304 2.37-.283-.18-.457.016-1.184.465h-.156l-.797.431.356.47 1.532-.587z"/><path fill="#2e2e2e" d="M15.186 4.025c.15.146.304.287.446.44.165.179.327.361.475.554q.294.383.56.788c.111.172.196.363.29.547.097.193.195.385.283.582.062.14.11.284.157.429.06.187.12.375.17.566q.07.277.123.559c.03.158.048.318.08.476.01.039.056.07.086.105.03.017.06.039.093.051.376.146.718.344.982.657.06.07.104.155.155.234-.005.015-.017.035-.011.047q.038.082.081.162c.196.367.309.758.313 1.175.002.182.001.366-.02.547a1.6 1.6 0 0 1-.199.637l-.073.13-.123.004c-.02-.014-.04-.037-.062-.04a.36.36 0 0 0-.272.076c-.156.114-.32.218-.485.32-.182.11-.387.145-.595.152-.213.006-.412-.06-.61-.133a.4.4 0 0 0-.21-.003c-.044.008-.067.055-.022.098q.1.094.2.188.145.143.288.287c-.073.179-.138.362-.221.536-.107.222-.226.437-.343.653q-.14.26-.288.514c-.033.057-.079.107-.118.161-.05.071-.098.146-.153.214q-.097.119-.202.232c-.218.238-.426.488-.66.71q-.38.356-.798.665c-.272.203-.561.384-.85.562-.16.098-.335.173-.507.252-.19.087-.382.173-.578.248-.323.124-.648.243-.99.305-.158.03-.314.075-.471.11-.065.014-.132.018-.197.034-.123.029-.247.057-.366.098-.028.01-.054.069-.056.107-.005.084.005.17.01.255l-.123.02c-.01-.132-.025-.264-.028-.396-.002-.092.052-.193-.052-.264.003-.088-.062-.135-.12-.18-.18-.138-.38-.112-.582-.057a.44.44 0 0 0-.308.26c-.031.076-.05.156-.074.234q-.37-.049-.74-.101-.247-.038-.493-.078c.027-.022.053-.047.083-.066.157-.1.266-.233.272-.428q.01-.447.02-.894c.001-.085.01-.17.015-.255.051.003.103.003.155.008.223.022.446.057.67.066a6.2 6.2 0 0 0 1.248-.057 10 10 0 0 0 1.14-.24c.424-.119.836-.278 1.254-.42q.272-.09.544-.182.028.126.053.25c.051.264.302.436.506.421.276-.02.538-.298.542-.553q.007-.389.017-.777.114-.19.224-.38.333-.593.419-1.267.03-.236.037-.472c.005-.2.01-.401-.009-.6-.018-.199-.102-.389-.086-.593q.003-.243.004-.485c0-.979-.244-1.898-.679-2.77l.035-.171c.04-.218.072-.438.121-.653.042-.183.07-.358-.042-.526a.1.1 0 0 1-.017-.068c.073-.397.146-.793.227-1.188a.2.2 0 0 1 .096-.125c.426-.225.54-.76.403-1.15-.065-.183-.169-.344-.393-.357-.09-.005-.182.01-.273.01-.024-.001-.047-.026-.07-.04 0-.068.042-.1.102-.12.154-.055.303-.128.397-.262.081-.117.13-.256.193-.385m1.477 6.669c-.025.008-.054.012-.074.027a.5.5 0 0 0-.2.326c-.042.277-.04.554.056.82.044.125.123.239.271.272.033.003.066.014.098.009.096-.014.17.016.244.082.093.083.2.15.302.223-.03.055.003.08.049.092.304.086.586.05.835-.159.124-.103.232-.223.41-.25.126-.018.205-.113.21-.251.043-.065.104-.125.125-.196.081-.268-.017-.441-.291-.54-.005-.052-.016-.103-.015-.154 0-.374-.13-.691-.411-.94a.87.87 0 0 0-.796-.214c-.392.09-.622.361-.744.733-.008.026.003.058.005.087zm-.351-.846a.45.45 0 0 0 .34-.112.735.735 0 0 0-.035-1.167.6.6 0 0 0-.727.06.71.71 0 0 0-.217.605c.024.307.293.636.639.614m-.79-1.945a.3.3 0 0 0 .297-.294c0-.156-.12-.292-.258-.293-.165 0-.29.132-.293.303-.004.139.125.313.254.284m1.104 5.165c.013-.156-.082-.27-.253-.282-.128-.008-.26.148-.26.3 0 .173.102.3.242.297.159-.002.271-.133.271-.315M1.752 13.703c-.01-.032-.011-.069-.029-.096-.13-.2-.165-.427-.2-.656q.036.004.073.005c.166.003.335.029.497.004.325-.05.604-.204.821-.456.02-.024.018-.067.026-.101-.035 0-.075-.012-.105 0-.14.06-.272.136-.414.189a1.3 1.3 0 0 1-1.045-.06c-.456-.218-.716-.598-.84-1.076a2.52 2.52 0 0 1 .592-2.353c.174-.189.395-.313.633-.408l.15-.06L1.9 8.6c-.04.003-.08.003-.12.01l-.33.061c.044-.238.084-.476.135-.713.084-.386.227-.753.364-1.122.007-.02.02-.037.03-.055.01.016.03.036.027.049q-.037.126-.079.25l-.09.274-.058.169q-.027.078-.051.157c-.006.02-.001.043-.007.063-.038.13-.084.257-.114.388-.021.096-.021.196-.031.295.027-.016.037-.04.049-.06q.046-.082.09-.163c.024-.049.044-.1.068-.15.009-.015.025-.027.038-.04.015.029.027.061.047.088.06.084.162.082.219-.005a.4.4 0 0 0 .04-.092c.086-.27.163-.542.257-.809a6.3 6.3 0 0 1 .552-1.152 7.1 7.1 0 0 1 1.213-1.49q.049-.05.095-.106c.084.06.16.147.254.173.18.048.243.158.25.326v.018c-.039.003-.078.013-.114.007-.194-.035-.377.046-.435.216a1.4 1.4 0 0 0-.082.39c-.01.3.114.543.378.7.084.05.12.122.133.216.022.158.054.316.081.474l.121.717-.023.034c-.028.034-.06.065-.084.101-.029.041-.075.088-.073.13.01.177.016.359.06.53.04.158.127.305.193.457-.127.31-.269.614-.38.929a6 6 0 0 0-.331 2.414c.015.24.07.477.107.715l.011.028.012.04q.003.16.011.319c.006.11.01.22.025.327.03.213.056.428.106.637q.117.488.264.966c.051.171.135.332.193.501.084.25.226.383.506.364.083-.006.143.028.21.073.354.237.746.398 1.149.532.143.047.296.063.445.094.007.118.018.237.02.355.002.26-.009.52.002.779.006.125.038.252.075.373.03.097.085.187.129.28-.048-.003-.099.003-.143-.011-.277-.09-.555-.177-.827-.282-.184-.07-.357-.169-.535-.256q-.158-.08-.316-.163a5 5 0 0 1-.842-.556c-.323-.258-.628-.538-.94-.808q-.036-.029-.074-.055l.025-.026c.308-.26.482-.584.471-.994-.003-.112-.027-.223-.034-.335a.67.67 0 0 0-.281-.53.4.4 0 0 1-.151-.21.8.8 0 0 0-.244-.368c-.293-.244-.647-.198-.945-.051-.06.029-.077.08-.01.127-.08.07-.168.13-.237.209-.092.104-.201.208-.163.373-.08.039-.087.109-.077.185l.02.116c-.002.085-.01.17-.003.255a.46.46 0 0 0 .218.363c.086.05.168.11.258.147.25.107.514.066.775.053.014 0 .027-.012.041-.017.119-.044.163-.15.208-.254a.36.36 0 0 1 .407-.204c0 .11.008.22-.003.33a.8.8 0 0 1-.202.456c-.139.159-.324.217-.513.277-.011-.012-.021-.031-.034-.034q-.45-.083-.903-.163c-.106-.018-.199.004-.256.107a1.12 1.12 0 0 1-.655-.647c-.11-.263-.132-.543-.115-.828.028-.489.263-.863.627-1.169q.1-.08.2-.16l-.014-.026c-.032.01-.065.016-.095.03q-.173.077-.344.159m1.756-3.433c-.09.013-.083.087-.07.14.067.255.073.513.033.772-.005.036-.01.073-.023.106q-.099.248-.2.493c-.02.048-.03.09.039.104.052.076.081.078.128.002.073-.119.158-.232.213-.359.182-.414.147-.828-.04-1.233-.007-.017-.052-.017-.08-.025m-2.074 1.32c.004.194.112.365.308.374.12.007.244.02.362.003.25-.037.273-.146.248-.34.09-.089.175-.181.205-.31.032-.002.064-.01.095-.007.11.011.228-.06.247-.168.022-.124.027-.25.04-.377.004-.02.013-.042.011-.062-.009-.096-.01-.194-.035-.286-.027-.09-.161-.118-.298-.072-.072.024-.126.033-.122-.07.001-.04-.01-.079-.015-.118-.038-.311-.269-.516-.57-.488a.6.6 0 0 0-.506.355c-.17.345-.17.714-.142 1.084q.014.181.065.357c.014.048.07.084.107.126m2.074-2.897c-.002-.182-.125-.267-.27-.274-.115-.006-.243.133-.244.251a.256.256 0 0 0 .268.26c.119 0 .246-.123.246-.237m.569-2.225c0-.147-.139-.295-.274-.285-.206.016-.293.161-.294.31-.002.138.138.27.28.272.173.002.288-.117.288-.297m-.389 1.344c.13.002.22-.08.224-.209a.204.204 0 0 0-.2-.213c-.117-.002-.22.093-.222.206a.21.21 0 0 0 .198.216"/><path fill="#0a0a0a" d="M4.748 4.965v-.018c-.006-.168-.07-.278-.249-.326-.093-.026-.17-.113-.254-.173l-.158-.221-.1-.216c-.006-.202 0-.401.065-.597.115-.348.37-.522.712-.598.346-.077.646.02.912.238.06.048.095.125.141.19q.038.054.075.112c.026.112.064.224.075.337a.97.97 0 0 1-.208.702q-.075.066-.148.134c-.04.036-.042.079.002.109.125.085.257.15.416.112.065-.013.135-.015.194-.04.327-.138.615-.342.876-.575a6.2 6.2 0 0 0 1.336-1.703c.055-.101.103-.206.154-.309l.037-.076c.115-.13.15-.236.045-.41-.185-.31-.257-.645-.096-.987.215-.457.618-.733 1.164-.628.179.035.347.098.495.206.192.139.296.337.35.561.072.3.048.585-.12.852-.085.135-.06.245.083.414q.064.125.133.249.155.273.312.544c.06.094.118.19.183.281.216.3.452.583.725.833l.522.427.425.25c.186.113.38.167.592.08.197-.08.213-.14.078-.3-.306-.359-.346-.749-.114-1.16.05-.088.11-.168.166-.252.215-.115.434-.213.687-.212.525.003.912.428.97.899.013.107-.025.22-.04.33-.063.13-.111.27-.193.386-.093.134-.243.207-.397.261-.06.021-.102.053-.102.122-.006.016-.015.033-.018.05q-.08.41-.155.82-.11.626-.218 1.253a.5.5 0 0 0 .07.35c.082.136.155.277.237.413.053.086.033.148-.044.203-.131.093-.26.191-.395.28-.057.036-.067.065-.032.122q.236.387.469.776c.434.872.68 1.791.679 2.77q-.001.243-.005.485-.008.03-.013.061a3 3 0 0 1-.176.799 3.6 3.6 0 0 1-.414.8l-.022.035-.166.2-.019.018-.196.184-.421.333-.02.019-.353.22c-.18.08-.36.164-.542.242-.422.18-.86.31-1.306.412l-.02.007-.053.01-.024.007-.049.008-.042.011-.05.008-.057.01-.053.008-.11.02-.041.01-.068.007-.059.008-.07.01-.063.01q-.006-.005-.01.001l-.02.003-.035.002-.095.01-.108.01-.094.01-.052.005h-.02l-.054.002-.168.011-.125.005-.497-.002-.126-.003-.443-.033-.052-.003-.72-.112-.196-.045-.381-.081-.26-.065-.043-.014a5.3 5.3 0 0 1-1.666-.815q-.1-.071-.2-.137c-.022-.027-.04-.057-.064-.08q-.066-.058-.134-.112c-.233-.223-.402-.492-.55-.775-.084-.161-.16-.327-.24-.49l-.01-.041-.012-.028c-.037-.238-.092-.475-.107-.715a6 6 0 0 1 .33-2.414c.112-.315.254-.62.381-.929q.175-.283.348-.567c.103-.171.1-.136-.05-.253-.13-.103-.254-.216-.38-.325l.01-.108v.001c.082-.152.16-.307.247-.457a.4.4 0 0 0 .05-.323c-.026-.098-.039-.198-.058-.297zm.615 2.257-.002.005-.022.025q-.006 0-.005.007-.01.005-.007.015l-.156.304-.016.028c-.018.028-.048.054-.052.083-.005.03.005.08.027.094q.212.138.43.268l.157.122-.027.042-.034.005-.022.013q-.012.007-.02.016-.248.385-.493.771a5.7 5.7 0 0 0-.484 1.191 5.4 5.4 0 0 0-.211 1.253l-.005.602.01.168.008.088.008.096.01.088.01.077.01.07.016.089v.006c.076.21.13.434.234.631.376.713.935 1.231 1.696 1.518l.034.023v-.002q.028.023.059.041c.357.175.723.328 1.113.413a9.5 9.5 0 0 0 3.35.139 5.8 5.8 0 0 0 2.295-.813c.255-.16.488-.355.73-.534l.308-.408.023-.052q.02-.017.04-.036c.232-.254.344-.564.416-.892a4.4 4.4 0 0 0 .046-1.547c-.026-.192-.068-.383-.103-.574l-.01-.033-.009-.04-.008-.036c0-.003.004-.006.003-.008l-.01-.013-.006-.034-.008-.025a.01.01 0 0 0-.003-.012l-.021-.09v-.001l-.022-.086-.01-.026-.095-.311q-.016-.049-.033-.098a6.1 6.1 0 0 0-.828-1.535l-.118-.127.096-.07c.153-.102.309-.2.458-.309.078-.056.07-.086-.01-.142l-.025-.051-.137-.278-.064-.125-.008-.036v-.036l.02-.294.034-.267v-.001q.007-.013.01-.026.01-.082.018-.164l.036-.148q.02-.074.035-.148c.078-.433.158-.865.231-1.298.04-.236.07-.208-.177-.266-.11-.026-.15.014-.192.094a.58.58 0 0 1-.27.263.9.9 0 0 1-.688.026c-.462-.15-.843-.435-1.194-.761-.403-.375-.718-.821-1.014-1.282q-.184-.294-.364-.591l-.147-.301q-.052-.104-.105-.206l-.011-.027q.033-.038.068-.074c.262-.254.322-.545.182-.885-.101-.332-.396-.559-.721-.553a.8.8 0 0 0-.807.449c-.153.292-.14.574.052.845l.191.2.008.053c-.055.092-.112.183-.162.277q-.211.397-.42.796l-.22.28-.675.854-.002.002-.013.015c-.416.482-.922.823-1.544.983q-.045-.005-.09-.012l-.314-.062c-.095-.084-.197-.162-.284-.253-.054-.057-.092-.126-.176-.143q.075-.038.151-.07a.73.73 0 0 0 .435-.7.68.68 0 0 0-.197-.478.64.64 0 0 0-.373-.218c-.052-.011-.104-.027-.157-.032-.3-.032-.642.183-.75.47l-.019.053a.7.7 0 0 0 .153.72.8.8 0 0 0 .414.237q.063.017.125.038c-.009.042-.031.086-.024.125q.08.44.168.88.072.36.145.717l.05.174.05.253.015.068.013.315.002.088.004.041zM15 3.736c.017-.349-.301-.684-.686-.722-.256-.033-.569.103-.68.297a.71.71 0 0 0 .035.932c.198.249.602.336.898.195.284-.136.46-.421.433-.702"/><path fill="#4c4c4c" d="M17.286 13.66q-.143-.144-.288-.287c-.066-.064-.134-.124-.2-.188-.045-.043-.023-.09.022-.098a.4.4 0 0 1 .21.003c.198.074.397.14.61.133.208-.007.413-.042.595-.153q.25-.149.485-.32a.36.36 0 0 1 .272-.075c.022.003.041.026.062.04-.075.075-.145.156-.226.224-.323.267-.66.503-1.109.49-.021-.001-.043.029-.065.045.023.014.046.04.07.04.118-.001.238 0 .354-.016.373-.051.71-.18.959-.477.075-.091.12-.207.18-.311s.137-.201.179-.312c.131-.347.147-.71.132-1.077a2.4 2.4 0 0 0-.214-.916c-.063-.137-.151-.262-.228-.392-.051-.079-.095-.163-.155-.234-.264-.313-.606-.51-.983-.657-.032-.012-.061-.034-.092-.051.312.046.61.12.88.303.271.185.465.43.623.706.136.239.244.492.303.762.127.592.107 1.172-.118 1.744-.128.323-.311.6-.571.825-.2.172-.439.265-.695.327-.295.072-.575.002-.858-.054q-.067-.013-.134-.024M1.752 13.703q.171-.081.344-.16c.03-.013.063-.02.095-.03q.006.015.014.027l-.2.16c-.364.306-.599.68-.627 1.17-.017.284.005.564.115.827.127.303.339.53.655.647.205.156.443.214.693.214.174 0 .343-.045.5-.124.189-.06.374-.118.513-.277a.8.8 0 0 0 .202-.456c.01-.11.003-.22.003-.33.003-.057.004-.114.011-.17.03-.24.008-.442-.274-.548-.036-.013-.071-.056-.087-.094-.13-.301-.335-.51-.676-.54-.123-.01-.256-.007-.354.099l-.066.027c-.068-.047-.05-.098.009-.127.298-.147.652-.193.945.05a.8.8 0 0 1 .244.37.4.4 0 0 0 .15.21c.18.127.268.309.282.529.007.112.03.223.034.335.011.41-.163.735-.471.994q-.014.013-.025.026-.113.052-.222.106c-.352.181-.72.206-1.104.135a1.5 1.5 0 0 1-.763-.401c-.312-.296-.468-.664-.531-1.077-.07-.456.07-.861.324-1.233.084-.123.178-.24.267-.36M1.45 8.672q.165-.032.33-.06c.04-.008.08-.008.12-.011l.01.033-.15.061a1.7 1.7 0 0 0-.633.408c-.357.387-.58.84-.65 1.369q-.068.5.058.984c.125.478.385.858.84 1.077.338.161.69.19 1.046.059.142-.053.275-.129.414-.188.03-.013.07-.002.105-.001-.008.034-.006.077-.026.1a1.32 1.32 0 0 1-.82.457c-.163.024-.332 0-.498-.004q-.037-.001-.073-.005c-.042-.03-.083-.064-.128-.088a2.1 2.1 0 0 1-.564-.446 2.1 2.1 0 0 1-.475-.867 2.5 2.5 0 0 1-.09-.834c.027-.39.124-.762.316-1.108.193-.348.444-.64.78-.855.034-.021.06-.054.088-.08"/><path fill="#2e2e2e" d="M13.57 3.007c-.056.084-.118.164-.167.251-.232.412-.193.802.114 1.162.135.158.12.22-.078.3-.213.086-.406.032-.592-.082.046-.043.09-.089.14-.13.16-.133.187-.231.114-.422a.332.332 0 0 0-.475-.158c-.175.11-.2.279-.204.46l-.522-.426c.012-.003.027-.002.035-.01.152-.138.307-.274.453-.42.13-.128.24-.273.458-.239.057.01.128-.029.183-.06.149-.087.188-.244.24-.392z"/><path fill="#3b3b3b" d="M13.269 2.84c-.052.149-.09.306-.24.392-.055.032-.126.07-.183.061-.218-.034-.328.111-.457.24-.146.145-.301.28-.453.42-.008.007-.023.006-.035.009a5.4 5.4 0 0 1-.726-.833c-.065-.09-.122-.187-.183-.281q.01-.058.02-.115l.147-.61c.037-.03.078-.057.11-.092a.85.85 0 0 1 .812-.272.78.78 0 0 1 .598.45c.043.092.107.16.207.192.13.041.221.121.273.25.027.068.072.127.11.19m-1.47-.948a.56.56 0 0 0-.455.253c-.187.097-.22.425-.176.624.071.32.475.554.795.477.112-.026.22-.066.331-.1.03.022.065.04.09.065.037.038.076.074.125.034.096-.077.205-.074.318-.08a.35.35 0 0 0 .177-.072c.092-.07.084-.173.061-.274a.37.37 0 0 0-.284-.348.22.22 0 0 1-.159-.136c-.029-.067-.058-.135-.097-.195-.087-.133-.204-.234-.364-.252-.12-.013-.242.001-.362.004"/><path fill="#737373" d="m7.219 15.487.26.065q-.094.01-.082.104c.008.07.011.139.017.208l-.014.682-.005.201q-.009.58-.015 1.163c-.001.19.029.37.17.515.145.148.34.158.488.015.048-.047.077-.114.115-.171.017-.06.047-.12.048-.18.004-.323 0-.646.003-.97.002-.274.025-.549.012-.822-.009-.176-.066-.35-.1-.524l-.01-.056q0-.01-.01-.01l-.04-.03.72.113c-.014.004-.027.012-.04.011a9 9 0 0 1-.29-.028q-.081-.01-.083.069c0 .063.006.125.006.188l-.001 1.081c-.005.085-.013.17-.015.255q-.01.447-.02.894c-.006.195-.114.327-.272.428-.03.019-.055.044-.083.066-.185.036-.352-.033-.52-.09-.044-.094-.1-.184-.13-.28a1.5 1.5 0 0 1-.074-.374c-.01-.26 0-.52-.003-.779-.001-.118-.013-.237-.02-.355 0-.14.003-.28.001-.42q-.006-.485-.013-.969"/><path fill="#2b2b2b" d="m3.988 4.011.1.216c-.046.035-.097.066-.136.108-.23.244-.466.483-.683.737a6.6 6.6 0 0 0-.897 1.404 7 7 0 0 0-.55 1.537c-.012.014-.03.026-.037.042-.025.049-.045.1-.07.149q-.044.082-.09.162c-.01.022-.02.045-.048.06.01-.098.01-.198.032-.294.03-.131.076-.258.113-.388.006-.02.001-.043.007-.063q.024-.08.052-.157l.058-.169.09-.274q.042-.124.078-.25c.003-.013-.017-.033-.026-.05l.034-.072c.072-.023.137-.136.113-.199-.001-.004-.02-.001-.032-.001l.02-.054c.019 0 .049.008.056-.001.046-.063.092-.127.13-.195q.206-.378.404-.76c.016-.031.006-.075.008-.113.057-.085.11-.172.173-.253.127-.166.25-.338.392-.49.189-.202.393-.389.595-.579.028-.027.075-.036.114-.053"/><path fill="#4c4c4c" d="M9.211 18.933c.025-.078.043-.158.075-.233a.44.44 0 0 1 .308-.261c.202-.055.402-.081.582.057.058.045.123.091.12.18q-.035-.021-.069-.044c-.135-.095-.278-.161-.451-.145-.162.015-.416.153-.422.366a1 1 0 0 0 .024.278c.021.09.015.153-.06.218-.1.087-.095.184-.001.282q.04.044.085.083c.204.17.43.172.663.08.205-.082.295-.246.31-.458l.123-.02c.013.14 0 .276-.087.392-.13.173-.321.248-.525.282-.257.043-.472-.06-.653-.236a.32.32 0 0 1-.081-.344c.013-.04.023-.085.047-.119.083-.118.053-.237.012-.358M6.81.794c.19.208.253.582 0 .855a.54.54 0 0 1-.559.164.51.51 0 0 1-.398-.419c-.021-.114-.01-.234-.013-.352l.017-.018c.018.072.03.146.056.215.02.049.056.09.085.136l.005.033c-.002.098.06.156.133.203.107.068.224.065.35.059.22-.01.383-.285.361-.452-.018-.14-.025-.283-.038-.424"/><path fill="#2b2b2b" d="M6.81.794c.012.141.019.284.037.424.022.167-.14.441-.362.452-.125.006-.242.009-.348-.06-.073-.046-.136-.104-.134-.202.023.006.046.016.07.018a.69.69 0 0 0 .655-.3c.025-.034.011-.106 0-.156C6.715.918 6.684.87 6.662.822c.007-.038-.02-.097.056-.093z"/><path fill="#262626" d="m11.159 2.122-.147.61q-.01.058-.02.116-.157-.271-.312-.544-.069-.124-.133-.249zM6.72.73c-.077-.005-.05.054-.057.092a.43.43 0 0 0-.31-.084c-.202.031-.333.141-.385.34q-.027-.028-.05-.06c-.026-.044-.043-.028-.06.006l-.017.018c.01-.147.13-.216.222-.3.065-.06.115-.16.228-.146.15.019.306.022.428.133"/><path fill="#2e2e2e" d="M2.713 5.386c-.002.038.008.082-.008.113q-.198.382-.404.76a2 2 0 0 1-.13.195c-.006.009-.037 0-.056 0 .049-.096.094-.195.147-.29q.2-.36.406-.72l.014-.017zM2.096 6.509c.01 0 .03-.003.031.001.024.063-.04.176-.112.199z"/><path fill="#2b2b2b" d="m8.186 2.087-.128.025-.054.015-.038.004c-.388.051-.759.167-1.127.295-.06.02-.113.06-.172.082-.133.05-.269.093-.403.138-.055.019-.075.067-.052.109.017.031.067.06.103.062.045.002.094-.021.138-.04.101-.043.197-.101.3-.134.189-.06.38-.108.572-.156.183-.047.367-.088.55-.132.114.07.117.19-.005.245-.101.046-.214.066-.322.097l-.227.081-.034.004-.038.018-.109.022-.422.145-.475.22-.352.169c.026.112.065.224.075.337a.97.97 0 0 1-.207.702c.077.073.16.141.23.221.028.032.027.089.04.134.065-.013.134-.015.194-.04.326-.138.614-.342.876-.575a6.2 6.2 0 0 0 1.336-1.703c.054-.101.102-.206.154-.309l.037-.076z"/><path fill="#4f4f4f" d="M8.368 17.111v-1.08c0-.064-.005-.127-.005-.19q.002-.078.083-.068.146.017.29.028c.013.001.027-.007.04-.011l.052.003c.04.01.079.027.119.029.108.005.216.003.324.004l.126.003c.028.006.056.019.084.018q.207-.006.413-.016l.125-.005.168-.01.053-.003h.021l.052-.006.094-.009.108-.01c.035.03.068.04.095-.01l.034-.002q.01 0 .02-.003.005-.006.011-.001l.063-.01.07-.01.06-.008.067-.008.04-.009.082-.014.03-.006.052-.008.057-.01.05-.008.042-.011.05-.008.023-.007.052-.01.021-.007a8 8 0 0 0 1.306-.412c.182-.078.361-.162.542-.243l.093.01c.034.435.033.864.005 1.293l-.545.183c-.418.141-.83.3-1.254.42-.373.104-.757.177-1.14.238a6.2 6.2 0 0 1-1.248.058c-.224-.01-.447-.044-.67-.066q-.077-.006-.155-.008"/><path fill="#ebebeb" d="M17.361 12.453c-.102-.074-.21-.14-.302-.223-.074-.066-.148-.097-.245-.082-.031.005-.065-.006-.097-.01-.011-.04-.018-.083-.035-.12-.04-.093-.1-.178-.125-.273-.066-.249-.053-.5.014-.748.028-.102.062-.202.093-.303l.074-.033c.03-.034.07-.064.086-.103a.92.92 0 0 1 .498-.545c.3-.132.582-.065.785.157.207.225.313.501.3.811-.007.173.068.213.238.18l.054-.013c.274.1.372.273.29.54-.02.072-.081.132-.124.197a.67.67 0 0 1-.416.066c-.14-.026-.15-.022-.216.101q-.018.037-.039.073c-.136.217-.314.363-.588.347q-.123-.008-.245-.02m.477-1.936c.017-.22-.15-.384-.411-.304-.215.066-.373.368-.297.603a.28.28 0 0 0 .263.188c.24.002.444-.223.445-.487"/><path fill="#4f4f4f" d="M14.408 9.06q-.233-.39-.469-.776c-.035-.057-.024-.086.032-.123.136-.088.264-.186.396-.28.076-.054.096-.116.044-.202-.083-.136-.155-.277-.238-.413a.5.5 0 0 1-.07-.35q.108-.627.219-1.254.075-.41.154-.819c.003-.017.012-.034.018-.05.024.013.047.038.07.038.092.001.184-.014.274-.009.224.013.328.174.393.358.137.389.023.924-.403 1.15a.2.2 0 0 0-.097.124q-.118.592-.226 1.188a.1.1 0 0 0 .017.068c.112.168.084.343.042.526-.049.215-.081.435-.121.653q-.016.086-.035.17"/><path fill="#ebebeb" d="M10.375 19.336c-.016.212-.106.376-.31.457-.234.093-.46.09-.663-.079q-.045-.038-.085-.083c-.094-.098-.1-.195.001-.282.075-.065.08-.128.06-.218a1 1 0 0 1-.024-.279c.006-.212.26-.35.422-.365.173-.016.315.05.45.145l.07.044c.103.071.05.172.051.264.003.132.018.264.028.396"/><path fill="#4f4f4f" d="m14.456 14.01.022-.034.017-.025c.16-.244.3-.499.397-.777.091-.259.159-.523.177-.798q.003-.03.013-.061c-.016.204.068.394.086.593s.014.4.009.6a5 5 0 0 1-.037.472 3.4 3.4 0 0 1-.419 1.266c-.072.129-.15.255-.224.381-.006-.058-.015-.115-.016-.174q-.01-.657-.02-1.314-.001-.064-.005-.129"/><path fill="#737373" d="M14.457 14.01q.004.065.005.129.01.657.02 1.315c0 .058.01.115.016.173q-.01.39-.017.777c-.004.255-.266.533-.543.553-.203.015-.454-.157-.505-.42q-.025-.126-.053-.25a9 9 0 0 0-.005-1.294l-.093-.01.352-.22c-.012.115-.028.229-.033.344-.01.216-.012.432-.022.648-.006.143-.027.285-.032.427a.57.57 0 0 0 .212.492c.073.058.16.084.257.056a.38.38 0 0 0 .265-.242.85.85 0 0 0 .033-.494c.006-.14.015-.28.016-.42q.005-.636.002-1.272c0-.031-.027-.062-.041-.093z"/><path fill="#4c4c4c" d="M16.313 9.848c-.346.022-.615-.307-.64-.614a.71.71 0 0 1 .218-.605.6.6 0 0 1 .726-.06c.382.264.42.86.035 1.167a.45.45 0 0 1-.34.112m-.44-.973-.008.036c-.087.156-.068.31.008.462.118.21.354.321.579.239.24-.089.39-.425.287-.628-.023-.085-.039-.174-.126-.222-.094-.143-.235-.176-.39-.157a.4.4 0 0 0-.335.247z"/><path fill="#4c4c4c" d="M18.698 11.148q-.027.007-.053.012c-.17.034-.245-.006-.238-.179a1.1 1.1 0 0 0-.3-.811c-.203-.222-.486-.289-.786-.157a.92.92 0 0 0-.498.545c-.015.04-.056.069-.085.103-.003-.03-.014-.061-.005-.087.121-.372.352-.643.744-.733a.87.87 0 0 1 .795.214c.282.249.412.566.41.94 0 .05.01.102.016.153"/><path fill="#4c4c4c" d="M17.36 12.453q.123.01.246.02c.273.015.452-.13.588-.348q.02-.036.038-.073c.066-.123.077-.127.217-.1a.67.67 0 0 0 .416-.067c-.006.138-.085.233-.21.251-.179.027-.287.147-.41.25-.25.209-.532.245-.836.16-.046-.013-.08-.038-.049-.093"/><path fill="#ebebeb" d="M19.217 12.71c-.06.104-.104.22-.18.31-.248.297-.586.427-.958.478-.117.016-.237.015-.355.016-.023 0-.047-.026-.07-.04.022-.016.044-.046.066-.046.448.014.786-.222 1.108-.49.081-.067.151-.148.226-.223l.123-.004z"/><path fill="#3b3b3b" d="M15.523 7.903c-.13.03-.258-.145-.255-.284.003-.17.129-.303.293-.303.138 0 .258.137.258.293a.3.3 0 0 1-.296.294M16.626 13.068c0 .182-.112.313-.271.315-.14.003-.243-.124-.243-.297 0-.152.133-.308.261-.3.17.011.266.126.253.282"/><path fill="#050505" d="M16.663 10.694c-.03.1-.064.201-.092.303a1.4 1.4 0 0 0-.014.748c.025.095.085.18.125.272.017.038.024.081.035.122-.148-.033-.227-.147-.272-.272a1.66 1.66 0 0 1-.056-.82.5.5 0 0 1 .2-.326c.02-.015.05-.019.074-.027"/><path fill="#2e2e2e" d="m19.217 12.71-.04.001.073-.13c.119-.196.171-.415.198-.638.023-.18.023-.364.02-.546a2.5 2.5 0 0 0-.311-1.175q-.045-.08-.082-.162c-.006-.012.006-.032.01-.047.078.13.166.255.229.392.134.29.202.595.214.916.015.368 0 .73-.132 1.077-.042.11-.118.208-.179.312"/><path fill="#4f4f4f" d="M7.219 15.487q.007.485.013.968.002.21 0 .42c-.15-.03-.303-.046-.445-.093-.403-.134-.795-.295-1.15-.532-.066-.045-.126-.079-.209-.073-.28.02-.422-.114-.507-.364-.057-.17-.14-.33-.193-.5q-.146-.48-.263-.967c-.05-.209-.076-.424-.106-.637-.016-.108-.02-.218-.025-.327q-.008-.159-.012-.318c.08.163.155.329.24.49.148.283.316.552.55.775-.046.034-.067.066-.05.134.018.079.006.166.007.249 0 .288-.005.577 0 .865.001.074.022.15.048.22a.27.27 0 0 0 .27.18c.143-.004.247-.072.286-.2.02-.065.025-.136.036-.204a.44.44 0 0 0-.175-.426.46.46 0 0 1-.171-.312c-.011-.107.015-.218-.054-.314.067.045.135.088.2.137a5.3 5.3 0 0 0 1.666.815z"/><path fill="#262626" d="M2.68 14.118c.097-.106.23-.109.353-.098.341.029.546.238.676.539.016.037.051.08.087.094.282.106.304.308.275.547-.007.057-.008.114-.012.17a.36.36 0 0 0-.407.205c-.044.105-.09.21-.208.254-.014.005-.027.016-.04.017-.261.012-.525.053-.776-.053-.09-.038-.172-.097-.257-.147.004-.011.013-.023.012-.034a1.3 1.3 0 0 0-.162-.552c-.01-.017-.043-.021-.066-.032l-.02-.116c-.01-.076-.003-.146.078-.185.02.021.043.04.06.064.09.128.254.166.372.07.096-.078.192-.163.26-.264.087-.13.108-.235-.019-.35-.06-.053-.137-.087-.206-.13"/><path fill="#ebebeb" d="M1.91 9.67c.302-.03.533.176.57.487.006.04.016.078.015.117-.003.104.05.095.122.07.137-.045.272-.017.298.073.026.091.026.19.035.286.002.02-.007.042-.01.062h-.12c-.15.001-.288-.019-.415-.124-.153-.128-.271-.107-.395.057-.122.162-.115.394.119.475.072.025.155.02.232.034s.17.003.196.11c-.03.129-.115.221-.205.31-.162.035-.326.068-.493.037-.123-.022-.246-.05-.37-.076-.005-.054.003-.115-.02-.16-.18-.365-.117-.736-.027-1.105.01-.043.074-.098.119-.104.206-.027.35-.176.35-.385z"/><path fill="#4f4f4f" d="m4.748 4.965.323 1.643c.019.1.032.2.058.297.03.117.01.22-.05.323-.087.15-.166.305-.248.457l-.12-.717c-.028-.158-.06-.316-.082-.474-.014-.094-.049-.165-.133-.215a.74.74 0 0 1-.378-.701c.004-.131.04-.265.082-.39.058-.17.241-.25.435-.216.036.006.075-.004.113-.007"/><path fill="#050505" d="M1.822 8.013a7 7 0 0 1 .55-1.537c.245-.502.533-.978.897-1.404.217-.254.453-.494.683-.737.04-.042.09-.073.135-.108l.158.221c-.032.035-.06.073-.095.105-.468.445-.88.937-1.213 1.49a6.3 6.3 0 0 0-.552 1.153c-.094.267-.17.54-.256.81a.4.4 0 0 1-.041.09c-.057.088-.159.09-.22.006-.019-.027-.03-.06-.046-.089"/><path fill="#262626" d="M2.557 11.317c-.026-.106-.12-.095-.196-.11s-.16-.009-.232-.034c-.234-.08-.241-.313-.119-.475.123-.164.242-.185.395-.057.127.105.264.126.415.125h.12c-.013.125-.019.252-.04.376-.02.109-.137.179-.247.168-.032-.003-.064.005-.096.007"/><path fill="#3d3d3d" d="M4.82 7.792c.127.109.25.222.382.325.15.117.152.082.05.253q-.173.284-.348.567c-.067-.152-.154-.299-.194-.457-.044-.171-.05-.353-.06-.53-.002-.042.045-.089.073-.13.025-.036.056-.067.085-.101z"/><path fill="#050505" d="M2.68 14.118c.069.042.146.076.205.13.127.114.107.22.02.349-.068.1-.165.186-.26.264-.119.096-.283.058-.373-.07-.017-.024-.04-.043-.06-.064-.038-.165.07-.269.163-.373.07-.078.158-.14.237-.208q.034-.015.067-.028M1.91 9.67l.001.164c0 .209-.144.358-.35.385-.045.006-.109.06-.12.104-.09.37-.153.74.028 1.104.023.046.014.107.02.161l-.055.003c-.037-.042-.093-.078-.107-.126a1.8 1.8 0 0 1-.066-.357c-.027-.37-.027-.74.143-1.084a.6.6 0 0 1 .505-.355"/><path fill="#4c4c4c" d="M3.508 10.27c.028.008.073.008.08.025.187.405.222.819.04 1.233-.055.127-.14.24-.213.358-.047.077-.076.075-.128-.001l.11-.256c.135-.313.2-.637.15-.979-.02-.126-.026-.253-.039-.38"/><path fill="#3b3b3b" d="m1.435 11.59.055-.002q.184.04.369.077c.167.03.33-.002.493-.037.026.193.002.302-.248.34-.118.017-.242.003-.362-.004-.196-.01-.304-.18-.307-.373"/><path fill="#ebebeb" d="M3.342 16.434a1.1 1.1 0 0 1-.5.124 1.1 1.1 0 0 1-.694-.214c.057-.103.15-.125.257-.107q.45.08.902.163c.013.003.023.022.035.034"/><path fill="#3b3b3b" d="M3.508 8.693c0 .114-.127.237-.246.238a.256.256 0 0 1-.268-.26c.002-.12.13-.258.245-.252.144.007.267.092.269.274"/><path fill="#4c4c4c" d="M4.077 6.468c0 .18-.115.299-.287.297-.143-.001-.282-.134-.281-.272.001-.149.089-.294.294-.31.135-.01.274.138.274.285m-.29.134c.083 0 .162-.079.158-.155-.004-.085-.077-.158-.157-.158a.167.167 0 0 0-.168.168c-.001.074.083.147.167.145"/><path fill="#3b3b3b" d="M3.688 7.812a.21.21 0 0 1-.199-.216c.003-.113.105-.208.222-.206a.204.204 0 0 1 .2.213c-.004.129-.093.211-.223.209"/><path fill="#2e2e2e" d="M3.509 10.27c.012.127.019.255.037.38.05.342-.013.666-.149.98l-.11.255c-.07-.013-.058-.056-.039-.104q.102-.246.2-.493c.013-.033.018-.07.023-.106.04-.26.034-.517-.032-.773-.013-.052-.02-.126.07-.139"/><path fill="#050505" d="M2.155 15.028c.022.01.055.015.065.032q.144.258.162.552c0 .011-.008.023-.012.034a.46.46 0 0 1-.219-.364c-.007-.084.002-.169.004-.254"/><path fill="#4f4f4f" d="m4.821 7.792-.012-.073.023-.035z"/><path fill="#3d3d3d" d="M6.423 14.897c-.762-.287-1.32-.805-1.697-1.518-.104-.197-.157-.42-.234-.631q.112-.013.226-.019c.14-.005.205-.068.202-.21-.003-.145-.012-.29-.018-.435-.003-.05.003-.094.07-.088l.003.072.003.074c.006.06 0 .125.02.18.029.084.061.175.12.237a.37.37 0 0 1 .098.187c.012.052.047.1.071.15l.026.123q-.027.004-.054.01c-.24.052-.329.313-.13.492.233.21.46.426.734.582.194.11.386.23.589.324s.414.17.626.24q.37.115.746.208c.229.058.462.1.691.158q.4.102.812.099c.16-.002.204-.044.196-.203-.005-.103.045-.149.132-.163q.166-.024.334-.037c.24-.02.479-.036.718-.058.024-.002.046-.036.068-.055.104-.008.211-.004.311-.028q.464-.113.923-.247c.191-.057.377-.133.565-.2.043.044.095.082.127.133.065.105.16.14.242.072.157-.134.322-.263.464-.412.184-.193.338-.414.524-.605.245-.252.349-.569.43-.89.06-.23.06-.474.08-.713q.013-.148.004-.297c-.007-.157-.006-.316-.036-.468a5 5 0 0 0-.17-.64c-.072-.212-.168-.415-.257-.62-.011-.025-.044-.04-.067-.059-.019.039-.022.066-.015.09.057.179.128.354.17.537.05.22.092.446.112.671.019.213.01.429.002.643-.005.139-.028.277-.046.415-.007.054-.007.127-.04.153-.036.027-.108 0-.161.011-.07.015-.16-.005-.192.092l-.164-.132c.013-.043.03-.084.038-.128.02-.125.05-.251.053-.377.006-.314.03-.631-.011-.94-.042-.31-.15-.611-.236-.915-.039-.138-.103-.158-.234-.096-.07.034-.14.078-.215.09-.206.035-.404.078-.583.196-.106.07-.193.023-.222-.106q-.07-.302-.132-.605c-.031-.153-.092-.204-.245-.181-.183.027-.364.073-.548.09-.308.027-.618.039-.928.055-.03.001-.061-.013-.102-.022.037-.043.125-.049.043-.107.046-.012.092-.028.139-.034.307-.038.615-.067.921-.11a10.5 10.5 0 0 0 2.172-.568c.06-.022.122-.038.182-.057.344.475.632.98.829 1.535q.016.049.033.098l.095.311.01.026.021.086.022.091a1.58 1.58 0 0 0 .01.037l.007.034q-.002.005-.002.008l.008.013.009.035.008.04.01.034.015.185c.037.359.096.717.107 1.077a3.5 3.5 0 0 1-.123.992c-.034.128-.08.257-.142.374-.065.122-.157.229-.234.344-.014.02-.015.051-.022.077l-.022.052-.272.22c-.063.047-.124.098-.19.142-.24.164-.47.352-.727.483-.338.171-.695.307-1.05.44-.337.126-.69.193-1.042.263a7 7 0 0 1-1.278.117 6 6 0 0 1-.819-.053 18 18 0 0 1-1.087-.17c-.352-.067-.7-.152-1.051-.226-.112-.023-.227-.036-.34-.053z"/><path fill="#212121" d="M8.478 2.844q.21-.398.42-.796c.05-.094.108-.185.162-.277.013.012.025.028.04.036.204.1.42.157.644.104.123-.028.237-.097.354-.148q.053.103.105.206l.148.3c0 .032-.009.068.003.094.05.117.107.23.161.346q.164.356.404.668c.07.09.099.174.068.292a.64.64 0 0 0 .098.546.52.52 0 0 0 .552.19c.126-.03.28.037.258.201-.012.087-.004.177-.002.266.002.073-.017.11-.102.084a.34.34 0 0 0-.33.07c-.078.067-.13.233-.09.326.065.155.216.136.37.033.031-.02.068-.03.102-.045q.017.052.03.107c.004.017 0 .036-.003.054l-.089.64c-.125 0-.25.004-.376 0-.126-.006-.242-.045-.316-.157q-.297-.45-.589-.904l-.796-1.238c-.077-.12-.141-.12-.22 0q-.154.237-.308.476-.267.404-.534.808-.286.436-.567.875c-.064.098-.159.135-.267.139-.142.005-.285 0-.427 0-.033-.234.107-.464.021-.7-.002-.007.007-.017.008-.026.02-.155.053-.313-.05-.455-.051-.073-.07-.144-.002-.22.033-.038.041-.085-.023-.11l.19-.25.039-.052.035-.039.09-.094.037-.053.04-.052.254-.296c.018-.01.041-.016.051-.031.136-.206.28-.408.398-.623.044-.078.152-.187.01-.286-.002 0 0-.006 0-.009m-.2 1.15c0 .038-.002.066 0 .093.01.094.068.149.153.175a.2.2 0 0 0 .217-.062c.095-.104.093-.23.047-.352-.049-.129-.205-.168-.302-.086-.075.063-.14.132-.115.232m-.495 1c0 .101.113.213.214.211A.2.2 0 0 0 8.204 5a.205.205 0 0 0-.21-.215.225.225 0 0 0-.211.21m1.659-2.283c-.063 0-.15.076-.152.133-.002.059.086.142.148.14.076-.001.14-.059.142-.125a.14.14 0 0 0-.138-.148"/><path fill="#3b3b3b" d="m11.781 6.14.09-.639c.002-.018.006-.037.002-.054q-.013-.054-.03-.107c-.034.015-.071.025-.101.045-.155.103-.307.122-.371-.033-.04-.093.012-.26.09-.325a.33.33 0 0 1 .33-.07c.085.025.104-.012.102-.085-.003-.089-.01-.179.002-.266.022-.163-.132-.232-.258-.2a.52.52 0 0 1-.552-.19.64.64 0 0 1-.099-.547c.032-.118.003-.203-.067-.292a3.5 3.5 0 0 1-.404-.668q-.083-.172-.161-.346c-.012-.026-.003-.062-.003-.093q.178.297.364.59c.295.462.61.908 1.014 1.283.35.326.732.61 1.193.761a.9.9 0 0 0 .688-.026.58.58 0 0 0 .27-.263c.042-.08.083-.12.192-.094.248.058.218.03.178.266q-.113.649-.231 1.298-.016.075-.036.148z"/><path fill="#3d3d3d" d="M5.56 8.052c-.144-.09-.29-.176-.43-.27-.022-.013-.032-.062-.027-.093.004-.03.033-.055.051-.083q-.007.11.099.129c.29.05.578.108.87.147q.508.069 1.02.113.53.044 1.063.072c.19.01.384-.018.57.043l-.04.052-.098-.006c-.057-.004-.1.013-.112.076q-.059.034.005.058c.033.03.066.082.1.084.064.003.103-.053.12-.114.007-.02.006-.041.008-.062.306.005.612.02.918.013.175-.004.348-.044.522-.07.004 0 .004-.022.005-.033.136-.002.273.004.408-.006.366-.025.732-.057 1.098-.087.038.04.07.089.115.12.104.072.125.165.087.278l-.09.265-.017.005-.042.005-.035.003-1.083.152c-.002-.009-.007-.021-.004-.024.062-.05.033-.101.005-.154a.14.14 0 0 0-.15-.082c-.236.019-.472.048-.709.05-.363.005-.726-.008-1.089-.015a3 3 0 0 1-.282-.02q-.533-.07-1.064-.145c-.469-.067-.921-.2-1.366-.358-.14-.05-.274-.124-.426-.043M13.867 7.17l.007.035c-.052.019-.103.043-.156.055-.065.015-.132.02-.197.031-.218.038-.435.087-.654.115-.264.034-.53.056-.797.076-.372.028-.745.049-1.118.073l-.218.014.095-.471.124-.006.04-.01c.047-.013.095-.023.14-.041.154-.063.188-.155.118-.304q-.028-.057-.057-.112c.046-.002.092-.007.137-.006q.788.016 1.573.037c.25.007.499.023.748.037.072.004.143.017.213.026l.022.12-.02.294z"/><path fill="#5c5c5c" d="m10.734 7.569.218-.014c.372-.024.745-.045 1.118-.073.266-.02.532-.042.797-.076.219-.028.435-.076.653-.115.065-.011.133-.016.197-.03.053-.013.104-.037.156-.056l.064.125a6.6 6.6 0 0 1-1.315.21l-.236.017c-.556.036-1.111.075-1.667.107-.21.012-.42.01-.63.014q-.04-.006-.081-.008c-.76-.02-1.518-.034-2.277-.058-.338-.01-.676-.039-1.013-.06q-.053-.009-.104-.016l-.502-.052a1.7 1.7 0 0 0-.623-.092c-.016-.03-.095-.046-.02-.095.127-.002.143-.016.13-.137a6 6 0 0 0-.049-.344c-.028-.168-.03-.168-.205-.15-.013-.08.03-.1.1-.103q.452-.017.903-.035.757-.029 1.516-.055c.283-.01.566-.014.85-.022.02 0 .04-.01.06-.015h.44l.256.001h1.212c.095.011.19.03.287.032q.52.015 1.04.016c.114 0 .227-.023.34-.035l.39-.001.051.003.04.001h.015l.334.023h.05l.094-.019c.01.01.018.029.028.03.069.01.138.012.206.023q.181.029.363.062l-.034.267-.021-.12c-.07-.009-.142-.022-.214-.026-.249-.014-.498-.03-.747-.037q-.787-.022-1.573-.037c-.046-.001-.092.004-.137.006l-.198.02c-.13-.021-.26-.057-.39-.06q-.556-.012-1.114-.003c-.6.008-1.2.024-1.801.037l-.652.007-.614.013-.794.05c.009.036.008.047.013.053a.38.38 0 0 1 .056.45c-.028.054.01.078.057.086q.153.026.305.05.286.046.573.094c.135.013.27.03.406.04.083.005.167.001.25.002l.162-.001c.06.018.121.047.183.053.213.017.426.033.639.037.338.007.676.001 1.014.003q.722.005 1.445.013"/><path fill="#262626" d="M4.973 11.996c-.068-.006-.073.038-.07.088q.01.218.017.435c.003.142-.062.205-.202.21q-.113.007-.225.019v-.006q-.007-.045-.017-.09l-.009-.069-.01-.076-.01-.09-.008-.095-.008-.088-.01-.168.005-.602.003-.057c.018-.408.1-.804.208-1.196q.175-.623.484-1.19h.183q-.07.26-.137.521a6.6 6.6 0 0 0-.191 1.546q-.003.455-.003.908"/><path fill="#2e2e2e" d="M6.456 14.919c.113.017.228.03.34.053.35.074.7.16 1.051.225q.54.103 1.087.171c.271.034.546.057.819.053a7 7 0 0 0 1.278-.117c.353-.07.706-.137 1.042-.263.355-.133.712-.269 1.05-.44.258-.131.487-.319.728-.483.065-.044.126-.095.189-.143.035.039.039.072-.006.111-.018.016-.02.052-.03.078-.243.179-.475.375-.73.534a5.8 5.8 0 0 1-2.295.813 9.5 9.5 0 0 1-3.35-.14 5 5 0 0 1-1.113-.412c-.022-.01-.04-.027-.06-.04"/><path fill="#5c5c5c" d="M8.776 8.11c-.186-.061-.38-.032-.57-.043-.355-.02-.71-.041-1.063-.072q-.512-.045-1.021-.113c-.291-.04-.58-.096-.87-.147q-.105-.02-.098-.129l.025.002q.09.007.18.02l.956.137.586.083.018.009.055.01q.027.007.055.012l.037.007.132.005q.357.065.72.036c.263-.021.528-.016.792-.025.034-.001.067-.014.101-.021.049-.003.097-.009.146-.009l.898.008h.02l.055.002c.06.006.119.018.178.018.341.001.683.013 1.024-.005.364-.019.727-.067 1.09-.102h.185c.356.013.705-.054 1.056-.104q.306-.042.611-.081l.026.051c-.047.02-.092.052-.14.06-.321.054-.642.108-.964.15-.428.055-.857.098-1.286.146-.366.03-.732.062-1.098.087-.136.01-.272.004-.408.006z"/><path fill="#707070" d="m11.763 8.688.041-.005.018-.006c.44-.069.87-.177 1.289-.335q.223-.082.445-.162l.117.127c-.06.019-.122.035-.182.057-.705.262-1.426.461-2.172.567-.306.044-.614.073-.921.11-.047.007-.093.023-.14.035-.169.013-.338.033-.507.036-.204.003-.407-.009-.611-.015-.175-.03-.35-.065-.526-.091-.357-.054-.717-.095-1.073-.154a7 7 0 0 1-1.782-.564c-.028-.013-.047-.048-.07-.073l.027-.042c.033.007.066.01.098.021.352.119.702.246 1.057.356a8 8 0 0 0 1.362.269c.69.085 1.383.094 2.076.056.112-.006.224-.021.335-.032l1.084-.152z"/><path fill="#212121" d="M8.862 1.518c-.192-.271-.206-.553-.053-.846.03.09.036.177.16.222.111.04.2.038.304.008A2 2 0 0 1 9.517.84c.093-.015.165-.059.187-.149a.5.5 0 0 0 .01-.222C9.694.384 9.65.305 9.616.223c.324-.005.62.222.72.554-.016.046-.03.093-.05.137-.06.133-.113.27-.184.396-.08.142-.214.22-.37.263-.158.044-.305-.022-.458-.04-.136-.018-.275-.011-.413-.015"/><path fill="#5c5c5c" d="m11.782 6.14 2.202.093-.035.148q-.054-.009-.108-.015-.216-.017-.433-.033l-1.334-.081-.07-.002h-.074c-.014-.004-.028-.012-.042-.013l-.692-.02-.148-.111-.016-.02c-.034-.061-.064-.124-.102-.183q-.417-.65-.839-1.298-.202-.31-.407-.617l-.066-.12c-.035.03-.08.053-.104.09q-.299.45-.595.901l-.79 1.21a.26.26 0 0 1-.227.129c-.247.008-.493.027-.74.042-.04 0-.08-.005-.118-.002q-.58.045-1.157.088c-.176.013-.353.022-.529.04-.026.002-.05.038-.075.058l-.05-.174q.054.002.11.003c.072.002.113-.017.095-.107-.04-.212-.072-.425-.108-.638q-.063-.364-.125-.728c-.003-.019.014-.041.02-.062.024.01.05.018.069.032.01.007.01.028.012.042l.221 1.332c.01.062.03.098.105.093.167-.012.334-.017.501-.025l.531-.03.494-.021.223-.001c.143 0 .285.005.427 0 .109-.004.204-.04.267-.139q.282-.438.567-.875c.177-.27.358-.539.535-.808q.154-.239.308-.477c.079-.118.143-.118.22 0l.796 1.24q.291.453.59.903c.073.112.189.15.315.156.125.005.25 0 .376 0M10.645 8.843c-.112.01-.224.026-.336.032-.693.038-1.386.029-2.075-.056A8 8 0 0 1 6.87 8.55c-.355-.11-.705-.237-1.057-.356-.031-.01-.065-.014-.098-.02L5.56 8.05c.151-.08.286-.006.426.044.445.158.897.29 1.366.358q.531.076 1.064.145.14.017.282.02c.363.007.726.02 1.09.016.236-.003.472-.032.708-.051a.14.14 0 0 1 .15.082c.028.053.057.104-.005.154-.003.002.002.015.004.024"/><path fill="#2e2e2e" d="m8.056 15.678.04.029a.02.02 0 0 0 .01.01l.01.056c-.004.028-.011.056-.008.083.018.175.051.349.057.524.007.203-.013.408-.015.611-.002.334.002.667-.002 1-.001.093-.023.186-.035.278-.067.022-.134.039-.199.065-.12.048-.233.03-.296-.08a.6.6 0 0 1-.068-.268c-.005-.21.01-.42.016-.63q.03-.002.063.003c.16.034.219.004.247-.154.022-.127.026-.259.034-.389q.02-.318.036-.637c.004-.08.006-.152-.08-.206a.76.76 0 0 0-.452-.109q-.007-.105-.017-.208-.012-.095.082-.104l.38.081q.1.022.197.045"/><path fill="#242424" d="M6.133 6.192c-.168.008-.335.013-.502.025-.074.006-.094-.031-.105-.093q-.11-.666-.22-1.332c-.003-.014-.003-.035-.013-.042q-.032-.019-.068-.032c-.007.021-.023.043-.02.062q.061.364.124.728c.037.213.067.426.109.638.017.09-.023.109-.096.107q-.056 0-.11-.003-.075-.358-.146-.716a51 51 0 0 1-.168-.881c-.007-.04.016-.083.025-.125l.217-.02c.084.017.123.086.177.143.087.091.188.17.284.253-.117.093-.127.194-.025.287.027.025.07.034.104.052.1.05.237.035.264.205.04.25.111.496.169.744"/><path fill="#4f4f4f" d="M14.314 15.994a.85.85 0 0 1-.033.494.38.38 0 0 1-.265.242.28.28 0 0 1-.257-.056.57.57 0 0 1-.213-.492c.006-.142.027-.284.033-.427.01-.216.011-.432.021-.648.006-.115.022-.23.034-.343l.02-.019.422-.333c0 .08.011.161-.004.237a4.2 4.2 0 0 0-.066.954c.003.116.007.238.087.338.045.08.093.09.221.053"/><path fill="#3d3d3d" d="M14.315 3.014c.384.038.703.373.686.722-.108.056-.219.1-.28.226a.43.43 0 0 1-.3.235c-.188.04-.374.025-.556-.036-.104-.035-.142-.018-.195.082a.71.71 0 0 1-.034-.932q.026.087.054.174c.037.11.09.142.2.122l.286-.055c.14-.027.211-.143.18-.286-.018-.083-.028-.168-.041-.252"/><path fill="#242424" d="M13.556 8.18q-.223.08-.445.162a6.5 6.5 0 0 1-1.29.336l.09-.265c.038-.113.017-.206-.086-.278-.044-.031-.077-.08-.115-.12.429-.048.858-.091 1.286-.146.322-.042.643-.096.963-.15.05-.008.094-.04.141-.06.08.056.087.086.01.142-.15.108-.306.207-.459.31q-.048.034-.095.069"/><path fill="#3b3b3b" d="M5.69 8.215c.023.025.041.06.07.073.57.263 1.162.46 1.781.564.357.06.716.1 1.074.154.176.026.35.06.526.091-.048.024-.093.058-.144.07a1.7 1.7 0 0 1-.67.02c-.382-.062-.766-.121-1.145-.2-.327-.069-.648-.162-.971-.248-.064-.017-.111-.011-.13.057-.02.076-.065.067-.118.043q-.006-.04-.016-.08c-.067-.218-.28-.277-.427-.104-.09.107-.146.243-.216.366H5.12l.492-.772q.009-.009.022-.016l.021-.013z"/><path fill="#3b3b3b" d="M4.404 4.253a.7.7 0 0 1-.153-.72l.029.003c.019.145.043.167.18.166q.055-.001.11-.004.428.056.857.107c.034.003.09-.011.1-.033.013-.03.002-.084-.02-.111a1 1 0 0 0-.174-.175c-.054-.043-.054-.091-.037-.146q.028-.09.126-.08c.042.004.085 0 .128 0 .135.13.187.295.197.478-.02.01-.045.018-.062.034l-.39.371a.2.2 0 0 1-.083.052c-.192.044-.388.053-.572-.025-.119-.05-.173.012-.236.083"/><path fill="#191919" d="M5.282 6.424c.025-.02.05-.056.076-.059.176-.017.352-.026.529-.039l1.156-.088c.04-.003.08.001.119.002.009.01.017.029.028.03.216.024.431.06.648.066.152.004.304-.033.458.005.157.04.318.064.477.095-.02.005-.04.014-.06.015-.283.008-.566.012-.85.022q-.757.026-1.514.055-.451.018-.904.035c-.07.003-.113.023-.1.103l.003.007a.03.03 0 0 0-.016.004zM6.133 6.192c-.057-.248-.128-.494-.168-.744-.028-.17-.164-.154-.264-.205-.035-.018-.077-.027-.105-.052-.102-.093-.091-.194.026-.287l.314.062q.045.008.09.012c-.009.127.022.193.12.234.095.039.194.07.298.03 0 .033-.008.067 0 .097q.11.412.22.822z"/><path fill="#0a0a0a" d="M6.444 5.243c-.104.038-.202.008-.297-.031-.099-.041-.13-.108-.121-.234.621-.16 1.127-.5 1.543-.983l.014-.015.002-.002c.075-.03.152-.053.223-.089.06-.03.11-.075.166-.11.01-.006.031.009.047.014l-.255.296-.04.052-.037.053-.09.094-.035.04-.039.052-.189.25c-.021.01-.047.017-.065.032l-.534.452z"/><path fill="#191919" d="M9.617.224c.033.081.078.16.096.245a.5.5 0 0 1-.008.222c-.023.09-.094.134-.187.15a2 2 0 0 0-.245.061.45.45 0 0 1-.304-.008C8.845.85 8.84.762 8.81.673a.8.8 0 0 1 .808-.45"/><path fill="#5c5c5c" d="M8.862 1.518c.138.004.278-.003.414.014.152.02.3.085.458.041.155-.043.29-.12.37-.263.07-.126.124-.263.183-.396.02-.044.034-.09.051-.137.14.34.08.63-.182.885q-.035.036-.068.074c-.056.009-.114.013-.17.028-.208.056-.417.103-.631.026q-.117-.039-.233-.073z"/><path fill="#3d3d3d" d="M5.069 14.712c-.001-.083.011-.17-.008-.25-.016-.066.005-.1.05-.133q.07.054.134.112c.025.023.043.053.064.08.07.096.043.207.054.314a.46.46 0 0 0 .171.312.44.44 0 0 1 .175.426q-.106.09-.21.184c-.084.075-.229.058-.255-.047a1.7 1.7 0 0 1-.051-.437c.002-.15.068-.296.023-.45-.023-.08-.059-.127-.147-.111"/><path fill="#3d3d3d" d="M14.075 7.608q-.306.04-.611.08c-.351.05-.7.118-1.057.106q-.09-.001-.183 0l.332-.14c.049-.021.08-.054.067-.113a6.6 6.6 0 0 0 1.315-.21z"/><path fill="#3d3d3d" d="M12.422 4.389c.004-.182.029-.352.204-.461a.332.332 0 0 1 .475.158c.073.19.046.289-.115.423q-.071.062-.139.13z"/><path fill="#262626" d="M14.093 15.94c-.08-.099-.084-.221-.087-.338a4.2 4.2 0 0 1 .066-.953c.016-.076.004-.158.004-.237l.196-.184.006.722q.001.197-.001.393c0 .163-.005.326 0 .489.004.089-.04.136-.13.116q-.027-.005-.054-.008"/><path fill="#5c5c5c" d="M13.67 4.243c.053-.1.092-.117.195-.082.182.06.368.075.556.036a.43.43 0 0 0 .3-.235c.061-.126.172-.17.28-.226.027.28-.15.566-.433.702-.296.141-.7.054-.898-.195M4.404 4.253c.063-.071.118-.133.237-.083.183.078.38.07.572.025a.2.2 0 0 0 .082-.052l.39-.371c.017-.016.042-.023.062-.035a.73.73 0 0 1-.435.7q-.076.034-.151.07l-.218.021q-.062-.021-.125-.038a.8.8 0 0 1-.414-.237"/><path fill="#191919" d="M4.57 3.698q-.054.003-.109.004c-.137.001-.162-.021-.18-.166L4.27 3.48c.109-.287.45-.502.75-.47.053.005.105.021.157.032q.02.056.038.11c.02.066.062.132.007.198-.064.078-.128.155-.25.133a.3.3 0 0 0-.144.001.5.5 0 0 0-.17.091c-.037.03-.059.081-.088.123m.296-.384c.002-.096-.078-.182-.166-.18-.07.003-.144.098-.146.186-.002.086.063.143.162.143.107 0 .149-.04.15-.15"/><path fill="#242424" d="m6.901 7.848-.586-.083-.955-.138q-.09-.01-.18-.02l-.01-.029.169-.326.026-.02.105.065c-.075.049.004.065.02.095-.01.068.016.13.076.15.122.037.25.07.376.08.077.005.162-.033.17-.138l.502.052q.053.007.104.017c.01.03.014.066.032.092.047.07.1.136.151.203"/><path fill="#191919" d="M14.315 3.014c.013.084.023.169.041.252.031.143-.039.259-.18.286l-.286.055c-.11.02-.163-.012-.2-.123q-.028-.086-.054-.173c.11-.194.422-.33.679-.297"/><path fill="#242424" d="M4.57 3.698c.03-.042.05-.092.088-.123a.5.5 0 0 1 .17-.09.3.3 0 0 1 .145-.002c.12.022.185-.055.25-.133.054-.066.012-.132-.008-.197q-.018-.056-.038-.11c.15.026.273.103.374.217-.043 0-.086.004-.129 0q-.097-.01-.126.08c-.016.055-.016.103.038.146q.097.076.174.175c.022.027.033.081.02.11-.01.023-.067.037-.1.034q-.429-.05-.858-.107"/><path fill="#191919" d="M8.02 3.793c-.016-.005-.037-.02-.047-.014-.056.035-.107.08-.165.11-.072.036-.15.06-.224.09l.674-.855.22-.28v.01c.143.098.035.207-.009.285-.119.215-.262.417-.398.623-.01.015-.033.02-.05.03"/><path fill="#0a0a0a" d="m5.47 7.297-.105-.064-.004-.006.002-.005.003-.033-.003-.041-.003-.088-.013-.315.002-.072-.003-.007c.174-.018.176-.018.205.15q.03.172.048.344c.013.12-.003.135-.13.137"/><path fill="#2e2e2e" d="M14.093 15.94q.027.003.053.008c.09.02.134-.027.131-.116-.006-.163-.001-.326 0-.49q.001-.195 0-.392-.001-.36-.005-.721l.019-.02c.014.031.04.062.04.093q.003.636-.001 1.272c-.001.14-.01.28-.016.42-.129.038-.177.026-.221-.053"/><path fill="#707070" d="M14.335 13.704c.007-.026.007-.056.021-.077.078-.116.17-.223.235-.344.062-.117.108-.246.142-.374.085-.325.134-.659.123-.992-.012-.36-.07-.718-.107-1.077q-.009-.093-.015-.185c.035.191.077.382.103.574.069.518.066 1.034-.046 1.547-.071.328-.184.638-.416.892q-.02.019-.04.036"/><path fill="#050505" d="M5.76 4.395c.077.073.16.141.23.221.028.032.027.089.04.134-.16.038-.292-.027-.417-.113-.044-.03-.041-.072-.002-.108z"/><path fill="#3d3d3d" d="M13.407 6.333q.218.015.434.033.053.006.107.015l-.018.164-.01.026v.001c-.12-.02-.242-.044-.363-.062-.068-.011-.137-.013-.206-.023-.01-.001-.019-.02-.028-.03.04-.033.116-.042.084-.124"/><path fill="#858585" d="M9.054 1.717q.117.034.233.073c.214.077.423.03.632-.026.055-.015.113-.02.17-.028l.01.027c-.118.051-.231.12-.354.148-.224.053-.44-.003-.644-.104-.015-.008-.027-.024-.04-.036z"/><path fill="#3b3b3b" d="M14.004 14.164c.01-.026.012-.061.03-.078.045-.038.04-.072.006-.11l.272-.22z"/><path fill="#737373" d="M9.271 15.826q-.162 0-.324-.004c-.04-.002-.08-.019-.119-.029zM9.894 15.831q-.207.01-.413.016c-.028 0-.056-.012-.085-.018zM10.61 15.778c-.027.05-.06.04-.095.01z"/><path fill="#242424" d="m4.27 3.48.01.056q-.015 0-.029-.003z"/><path fill="#4c4c4c" d="m5.348 6.673-.002.072-.014-.068a.03.03 0 0 1 .016-.004M5.36 7.227l.005.006-.026.02q.01-.014.022-.026"/><path fill="#707070" d="m14.706 10.546-.008-.013.002-.008.01.013z"/><path fill="#3d3d3d" d="m5.17 7.578.009.03-.025-.002z"/><path fill="#4c4c4c" d="m5.334 7.26-.007.014q-.003-.01.007-.015"/><path fill="#ebebeb" d="M12.294 3.147c-.11.033-.22.073-.332.1-.32.076-.723-.158-.795-.478-.044-.2-.01-.527.176-.624.043.04.23.054.283.018.019-.013.03-.04.044-.06q.011-.015.023-.034l.105-.177c.12-.003.243-.017.362-.004.16.018.278.119.364.252.04.06.069.128.098.195.031.073.08.117.159.136a.37.37 0 0 1 .284.348c-.154.04-.31.05-.467.02-.124-.023-.21.063-.22.173-.005.066-.046.096-.084.135"/><path fill="#262626" d="M12.294 3.147c.038-.039.08-.069.085-.135.009-.11.095-.196.22-.173.157.03.312.02.466-.02.022.101.031.204-.062.274a.35.35 0 0 1-.176.073c-.113.005-.223.002-.318.08-.05.039-.088.003-.125-.035-.026-.025-.06-.043-.09-.064"/><path fill="#0a0a0a" d="M11.67 2.104c-.014.02-.024.046-.044.06-.052.035-.239.02-.282-.02a.56.56 0 0 1 .455-.252l-.106.177c-.017-.019-.034-.052-.052-.053-.083-.006-.13.046-.169.114.082.074.136-.01.199-.026"/><path fill="#ebebeb" d="M7.414 15.864a.76.76 0 0 1 .452.11c.086.053.085.125.08.205q-.016.32-.035.637c-.009.13-.013.262-.035.39-.028.157-.087.187-.247.153q-.03-.004-.063-.004 0-.215-.004-.43a2 2 0 0 0-.023-.253c-.013-.072-.046-.136-.139-.126z"/><path fill="#050505" d="M7.4 16.546c.092-.01.126.054.139.126q.02.125.022.253.004.215.004.43c-.006.21-.02.421-.015.631a.6.6 0 0 0 .068.268c.062.11.176.128.296.08.064-.026.132-.043.198-.065h.04c-.037.057-.066.124-.115.17-.148.144-.342.134-.487-.014-.142-.144-.171-.326-.17-.515q.006-.582.015-1.163.001-.1.005-.201"/><path fill="#2e2e2e" d="M8.153 18.269h-.04c.013-.092.034-.185.035-.278.005-.333 0-.666.003-1 .002-.203.021-.408.014-.611-.005-.175-.038-.35-.057-.524-.003-.027.005-.055.008-.083.035.175.092.348.1.524.014.273-.009.548-.012.822-.003.323.002.647-.003.97 0 .06-.031.12-.048.18M8.106 15.717a.02.02 0 0 1-.01-.01q.01 0 .01.01"/><path fill="#ebebeb" d="M5.968 1.078C6.02.88 6.15.77 6.352.738a.43.43 0 0 1 .31.084c.023.05.054.096.065.148.012.05.026.122.001.156a.69.69 0 0 1-.655.3c-.024-.002-.047-.012-.07-.018l-.004-.033L6 1.28l-.017-.055z"/><path fill="#2b2b2b" d="M6 1.28q0 .047-.002.095c-.029-.045-.066-.087-.085-.136-.026-.07-.038-.143-.057-.215.018-.034.036-.05.062-.006q.023.032.05.06l.016.147z"/><path fill="#050505" d="M17.837 10.517c0 .264-.205.489-.444.487a.28.28 0 0 1-.263-.188c-.076-.235.081-.537.296-.603.262-.08.428.083.411.304"/><path fill="#ebebeb" d="M15.874 9.373c-.077-.153-.096-.306-.009-.462.044.009.093.008.13.028.14.075.232.05.31-.094.028-.052.056-.091.134-.067.052.016.116-.01.174-.016.087.048.104.137.127.222-.115.01-.162.11-.238.172-.047.037-.094.083-.148.099-.158.046-.32.08-.48.118"/><path fill="#262626" d="M15.873 9.373c.16-.039.323-.072.48-.118.055-.016.102-.062.148-.099.077-.061.124-.162.238-.172.103.203-.047.539-.287.628-.225.082-.461-.03-.579-.24"/><path fill="#050505" d="M16.612 8.762c-.058.007-.122.032-.173.016-.079-.024-.107.015-.135.067-.078.143-.17.17-.31.094-.037-.02-.086-.019-.13-.028l.01-.036.013-.023a.4.4 0 0 1 .335-.247c.155-.02.297.014.39.157"/><path fill="#2e2e2e" d="M5.069 14.712c.088-.015.124.031.147.11.045.155-.021.301-.023.45a1.7 1.7 0 0 0 .05.438c.027.105.172.122.255.047q.105-.094.21-.184c-.01.068-.015.139-.035.205-.04.127-.143.195-.286.198a.27.27 0 0 1-.27-.178.7.7 0 0 1-.048-.221c-.005-.288-.001-.577 0-.865"/><path fill="#ebebeb" d="M3.787 6.602c-.085.002-.168-.071-.167-.145a.167.167 0 0 1 .168-.168c.08 0 .153.073.157.157.004.077-.075.155-.158.156"/><path fill="#262626" d="M5.962 8.84c.054.023.1.032.12-.044.017-.068.064-.074.128-.057.323.086.644.18.971.247.38.08.763.139 1.146.201.223.037.448.034.67-.02.05-.012.095-.046.143-.07.204.006.407.018.61.015.17-.003.34-.023.509-.036.082.058-.006.064-.043.107.04.009.072.023.102.022.31-.016.62-.028.928-.056.184-.016.365-.062.548-.09.153-.022.214.03.245.182q.062.303.132.605c.03.129.116.176.223.106.178-.118.376-.161.582-.195.074-.013.144-.057.215-.09.131-.063.195-.043.234.095.086.304.194.606.236.916.04.308.017.625.011.939-.003.126-.032.252-.053.377-.007.044-.025.085-.038.128a.52.52 0 0 0-.333-.072c-.235.02-.44.111-.563.314-.222.363-.126.764.25 1.005.022.014.039.036.058.055-.076.174-.244.2-.356.056l-.088-.117q-.099-.132-.201-.26c-.054-.066-.15-.086-.205-.045-.071.054-.057.12-.02.187q.024.045.05.087.075.127.146.253a.1.1 0 0 1 0 .067c-.003.008-.038.008-.057.003-.041-.01-.081-.027-.122-.04-.068-.02-.125-.002-.15.065-.027.066.019.099.073.126.108.055.219.107.321.172.07.044.127.108.19.163-.188.067-.374.143-.565.2q-.46.134-.923.247c-.1.024-.207.02-.31.028-.043-.106-.114-.136-.261-.125-.207.016-.413.033-.62.034-.311.001-.623 0-.933-.019-.258-.015-.513-.057-.77-.083-.049-.005-.12-.004-.145.025-.083.097-.18.072-.277.052-.526-.108-1.01-.323-1.47-.591a2.3 2.3 0 0 1-.593-.48c.107 0 .214.003.32-.004.248-.016.458-.097.555-.352.085-.223.116-.45-.01-.667-.118-.207-.296-.336-.546-.336-.1 0-.2.012-.3.018-.036-.329-.082-.657-.104-.986-.014-.21.001-.421.017-.63.012-.151.045-.3.072-.45.01-.057.033-.087.107-.07q.35.084.704.143c.182.03.365.011.536-.068.118-.056.165-.17.118-.28-.04-.095-.129-.134-.217-.17-.284-.12-.57-.234-.851-.357-.224-.097-.24-.145-.152-.374q.002-.004.006-.007m3.654 5.007c.31-.011.54-.103.74-.276.247-.214.377-.497.465-.804.024-.085.047-.17.06-.258q.021-.149-.114-.085-.062.03-.122.064c-.453.256-.936.315-1.443.217-.255-.049-.485-.161-.719-.268-.028-.012-.062-.01-.093-.016-.003.032-.013.064-.008.095q.06.419.288.775c.23.363.563.546.946.556m-3.41-2.526c.004.247.059.446.185.625.268.38.74.394 1.03.03.31-.388.273-1.003-.08-1.34a.586.586 0 0 0-.756-.062c-.266.189-.364.463-.378.747m6.86.038a1 1 0 0 0-.18-.587c-.244-.347-.68-.407-.958-.13a1.036 1.036 0 0 0-.12 1.29c.274.404.756.372.994.11.175-.191.258-.417.264-.683"/><path fill="#050505" d="M5.963 8.84q-.005.002-.007.006c-.088.23-.072.277.152.374.282.123.568.238.851.356.088.037.176.076.217.17.048.11 0 .225-.118.28a.9.9 0 0 1-.536.069q-.354-.059-.703-.143c-.075-.018-.098.013-.108.07-.027.15-.06.299-.071.45-.017.209-.032.42-.018.63.022.33.069.657.105.986-.081.078-.165.152-.242.233-.097.102-.182.212-.183.364 0 .07-.01.14-.015.21-.024-.05-.059-.097-.07-.15a.37.37 0 0 0-.1-.186.7.7 0 0 1-.12-.237c-.019-.055-.013-.12-.019-.18l-.002-.074-.003-.072q0-.454.002-.908a6.6 6.6 0 0 1 .191-1.546q.067-.26.137-.52c.071-.124.126-.26.216-.367.148-.173.361-.114.428.104.008.026.01.053.016.08"/><path fill="#4c4c4c" d="M5.707 13.43c.168.195.373.35.593.479.46.268.944.483 1.47.591.096.02.193.045.277-.053.024-.028.096-.029.145-.024.257.026.512.068.77.083.31.018.622.02.933.019.207-.002.413-.018.62-.034.146-.011.218.019.26.125-.023.02-.044.053-.069.055-.238.022-.478.038-.717.058q-.167.013-.334.037c-.087.014-.137.06-.132.163.008.159-.037.201-.196.203a3.2 3.2 0 0 1-.812-.1c-.229-.057-.462-.1-.691-.157q-.376-.093-.746-.209a5 5 0 0 1-.626-.24c-.203-.094-.395-.212-.59-.323-.274-.156-.5-.373-.733-.582-.199-.18-.11-.44.13-.493l.054-.009q.063.072.129.14.131.136.265.27M12.575 14.14c-.063-.054-.12-.118-.19-.162-.102-.065-.213-.117-.322-.172-.054-.027-.099-.06-.073-.126.026-.067.083-.085.15-.064.042.012.081.029.123.039.018.005.054.005.057-.003a.1.1 0 0 0 0-.066q-.07-.129-.146-.254l-.05-.087c-.038-.067-.052-.133.02-.187.055-.041.151-.02.205.045q.102.128.2.26l.088.117c.113.144.281.118.357-.056.107 0 .214.003.32.001a.55.55 0 0 0 .404-.17c.241-.255.321-.684.027-1 .032-.098.123-.078.193-.093.053-.011.125.016.16-.01.033-.027.034-.1.04-.154.019-.138.042-.276.047-.415.007-.214.016-.43-.002-.643a5 5 0 0 0-.113-.671c-.042-.183-.113-.358-.169-.537-.007-.024-.004-.051.015-.09.022.02.056.034.066.059.09.205.186.408.258.62q.107.314.17.64c.03.152.029.311.036.468q.008.15-.004.297c-.02.239-.02.484-.08.713-.082.321-.186.638-.43.89-.186.191-.34.412-.525.605-.142.15-.306.278-.464.412-.081.069-.177.033-.241-.072-.032-.051-.084-.09-.127-.133"/><path fill="#262626" d="M13.745 12.254c.294.317.214.746-.028 1.002a.55.55 0 0 1-.403.169q-.16.002-.32-.001c-.02-.019-.037-.041-.06-.055-.374-.241-.47-.642-.249-1.005.124-.203.328-.293.563-.314.119-.01.23.007.333.072zM5.707 13.43l-.265-.27q-.066-.07-.13-.14l-.025-.125c.005-.07.015-.14.015-.21 0-.152.086-.262.183-.364.077-.081.16-.155.242-.233.1-.006.2-.019.3-.018.249 0 .427.129.546.336.125.217.094.444.01.667-.098.255-.308.336-.556.352-.106.007-.213.003-.32.004"/><path fill="#3b3b3b" d="m6.736 5.114.535-.452c.018-.015.043-.022.065-.032.063.024.055.07.022.108-.067.077-.049.148.003.22.102.143.069.3.049.456-.001.01-.01.02-.008.026.086.236-.054.466-.021.7h-.223c.037-.068.003-.098-.058-.132a.25.25 0 0 1-.11-.12c-.05-.148-.086-.301-.126-.452-.028-.105.01-.236-.125-.295-.004-.002-.002-.018-.003-.027M8.279 3.994c-.025-.1.04-.169.114-.232.097-.082.254-.043.303.086.046.122.048.248-.048.352a.2.2 0 0 1-.217.062c-.084-.026-.143-.08-.152-.175-.002-.027 0-.055 0-.093M7.783 4.995c0-.107.105-.21.211-.21.123 0 .212.09.21.214a.2.2 0 0 1-.207.206c-.1.002-.214-.11-.214-.21M9.442 2.71a.14.14 0 0 1 .138.149c-.001.066-.066.124-.142.125-.062.002-.15-.081-.148-.14.002-.057.089-.133.152-.133"/><path fill="#242424" d="m8.777 8.11 1.428-.002c-.002.011-.002.032-.005.033-.174.026-.348.066-.522.07-.306.007-.613-.008-.919-.013l-.022-.036z"/><path fill="#0a0a0a" d="m8.737 8.162.022.036c-.002.02-.001.042-.007.062-.018.061-.057.117-.12.114-.035-.002-.068-.055-.101-.084l-.005-.058c.012-.063.055-.08.113-.076z"/><path fill="#242424" d="m8.526 8.232.005.058q-.064-.024-.005-.058M10.734 7.569q-.722-.008-1.444-.013c-.338-.002-.677.003-1.015-.003a10 10 0 0 1-.638-.037c-.062-.006-.123-.035-.184-.053.007-.109.046-.135.152-.119.115.018.235.026.334-.049.168-.127.16-.378-.013-.512-.075-.058-.156-.11-.235-.164.6-.013 1.201-.029 1.802-.037q.557-.009 1.114.003c.13.003.26.039.39.06-.034.028-.063.06-.1.083-.213.135-.219.157-.071.361l.003.009zm-.745-.143c.198 0 .366-.127.39-.268.028-.162-.075-.381-.23-.434-.033-.012-.1.003-.118.029a6 6 0 0 0-.29.46c-.016.026.013.104.043.123.073.045.16.07.205.09m-1.032-.202q-.082-.18-.17-.357c-.007-.016-.048-.026-.07-.023a.29.29 0 0 0-.255.27c-.004.126.08.217.23.252.108.024.245-.05.265-.142"/><path fill="#050505" d="m10.829 7.098-.003-.009c-.148-.204-.142-.226.071-.361.037-.023.066-.055.1-.084l.197-.02.056.113c.071.149.036.24-.117.304-.045.018-.093.028-.14.041l-.04.01z"/><path fill="#0a0a0a" d="M8.774 6.436c-.16-.03-.32-.056-.477-.095-.155-.038-.306 0-.459-.005-.216-.007-.432-.042-.648-.066-.01-.001-.019-.02-.028-.03.247-.015.493-.034.74-.042a.26.26 0 0 0 .226-.129l.791-1.21q.296-.452.595-.9c.025-.038.069-.062.104-.092l.066.121q-.035.038-.064.078-.287.423-.571.847-.186.276-.368.553-.189.28-.372.563c-.055.087-.043.106.051.132.012.076.072.053.116.053q.96.004 1.922.004c.122 0 .244.004.366-.001.026-.002.05-.036.076-.055l.192-.077.016.02.148.112c-.04.03-.074.07-.117.087-.13.05-.264.09-.397.134l-.624-.001H8.774M6.9 7.848c-.05-.067-.104-.133-.151-.203-.018-.026-.021-.061-.031-.092.337.02.675.049 1.013.06.758.023 1.518.038 2.277.057q.04.002.081.008c-.018.095-.038.189-.16.204l-.054-.001-.02-.001-.898-.008c-.049 0-.097.006-.146.009q-.054-.006-.108-.01c-.148-.009-.299-.003-.444-.029-.231-.041-.462-.078-.696-.043-.124.018-.243.06-.365.092l-.132-.005-.037-.007-.055-.011-.055-.011z"/><path fill="#3d3d3d" d="M7.69 6.62c.08.054.16.105.236.163.173.134.18.385.012.512-.099.075-.218.067-.334.05-.105-.017-.144.01-.151.118h-.161c-.004-.02-.005-.042-.012-.062l-.24-.775z"/><path fill="#191919" d="M9.93 7.882c.122-.015.142-.11.16-.204.21-.004.42-.002.63-.014q.834-.05 1.667-.107l.236-.016c.014.06-.018.092-.068.113l-.331.14c-.364.034-.727.082-1.091.101-.34.018-.683.006-1.025.005-.059 0-.118-.012-.177-.018"/><path fill="#3d3d3d" d="m6.635 7.422-.572-.095q-.153-.023-.305-.049c-.049-.008-.085-.032-.058-.087a.38.38 0 0 0-.056-.45c-.005-.005-.004-.016-.013-.052l.794-.05q.006.045.016.089z"/><path fill="#050505" d="m6.635 7.422-.194-.694c-.008-.03-.01-.06-.015-.09l.614-.012.24.775c.007.02.008.042.012.062-.084 0-.168.004-.251-.002-.135-.01-.27-.026-.406-.04"/><path fill="#191919" d="M10.682 6.438c.132-.044.266-.084.396-.134.044-.017.078-.057.117-.087l.692.02c.014 0 .028.009.042.013q.031.175.223.186l.198.014c-.114.012-.227.035-.34.035q-.52-.001-1.041-.016c-.096-.003-.192-.02-.287-.031"/><path fill="#0a0a0a" d="m12.35 6.45-.198-.014q-.19-.01-.222-.186h.074l.07.002 1.334.08c.032.083-.045.092-.084.125l-.094.018h-.05l-.335-.021a.02.02 0 0 0-.014 0l-.04-.002-.052-.003zM6.113 7.484c-.01.106-.095.143-.171.137a1.7 1.7 0 0 1-.376-.08c-.06-.018-.087-.08-.076-.15.214-.014.42.029.623.093"/><path fill="#191919" d="M12.831 6.453a.02.02 0 0 1 .014 0z"/><path fill="#3d3d3d" d="M7.198 7.891c.122-.031.242-.074.365-.092.234-.035.465.002.696.043.146.026.296.02.444.029q.054.003.108.01c-.034.007-.067.02-.101.021-.264.009-.529.004-.791.025q-.365.03-.72-.036"/><path fill="#191919" d="M8.36 6.16c-.095-.025-.107-.044-.051-.131.12-.19.247-.376.371-.563q.184-.278.368-.553l.571-.847q.03-.04.064-.078.206.308.408.617l.839 1.298c.037.059.068.122.102.182l-.193.077q-.03-.035-.057-.07L9.684 4.5c-.076-.11-.11-.112-.185 0-.172.248-.34.499-.512.748q-.313.457-.627.913"/><path fill="#212121" d="M6.737 5.114c0 .01-.002.025.002.027.135.059.098.19.125.295.04.15.076.304.126.452a.25.25 0 0 0 .111.12c.06.034.095.064.057.133l-.493.02q-.112-.41-.221-.822c-.008-.03 0-.064 0-.096z"/><path fill="#0a0a0a" d="M4.866 3.314c-.002.108-.043.15-.15.15-.1 0-.164-.058-.162-.144.001-.089.076-.183.146-.185.088-.003.168.083.166.179"/><path fill="#191919" d="M11.67 2.104c-.063.016-.117.1-.198.026.038-.068.086-.12.168-.114.019 0 .035.034.053.053z"/><path fill="#0a0a0a" d="M9.616 13.847c-.383-.01-.715-.193-.946-.556a2 2 0 0 1-.288-.775c-.004-.03.005-.063.008-.095.031.005.066.004.094.016.233.107.463.22.718.268.507.098.99.039 1.443-.217q.06-.034.122-.064.136-.065.114.085a2 2 0 0 1-.06.258c-.088.307-.218.59-.465.804-.199.173-.43.264-.74.276m.073-.937a2.5 2.5 0 0 1-1.013-.199c-.014-.006-.033 0-.058 0 .066.308.21.557.443.755a.89.89 0 0 0 .87.151c.394-.126.563-.455.701-.805.03-.077-.015-.115-.102-.079a2.6 2.6 0 0 1-.784.168zM6.207 11.32c.014-.283.112-.558.378-.747a.586.586 0 0 1 .756.063c.353.337.39.952.081 1.34-.29.364-.763.35-1.031-.03a1.06 1.06 0 0 1-.184-.625m.278-.424c-.02.034-.047.067-.06.105-.088.253-.103.5.018.752a.54.54 0 0 0 .671.296c.035-.011.072-.023.098-.045.192-.16.253-.388.293-.618.03-.172-.099-.313-.123-.478-.003-.021-.049-.037-.09-.065a.6.6 0 0 1-.144.382c-.082.103-.187.148-.276.086a.55.55 0 0 1-.2-.225.3.3 0 0 0-.187-.19m.644-.005-.001-.128c-.004-.104-.074-.174-.172-.176-.11-.003-.19.066-.194.176a3 3 0 0 0 0 .256c.006.114.08.181.19.18q.171-.006.177-.188zM13.066 11.359c-.006.266-.09.492-.265.684-.237.26-.719.293-.992-.112a1.036 1.036 0 0 1 .12-1.29c.277-.276.713-.216.957.131.127.18.177.38.18.587m-1.136-.502c-.013.023-.04.058-.054.096-.08.231-.09.467-.04.705.051.234.185.381.43.423.167.029.453-.07.522-.214.118-.246.185-.505.088-.776-.034-.096-.092-.183-.14-.275l-.024.009q-.005.03-.012.057c-.03.095-.04.203-.094.28-.13.184-.28.256-.45.055-.088-.106-.149-.236-.226-.36m.643.041c-.032-.087-.052-.175-.095-.248-.06-.104-.173-.106-.252-.016-.113.127-.107.396.012.516.077.078.184.074.24-.02.041-.069.062-.15.095-.232"/><path fill="#3b3b3b" d="M9.99 7.426c-.046-.02-.133-.045-.206-.09-.03-.02-.058-.097-.044-.123q.134-.237.291-.46c.018-.026.085-.04.118-.03.155.054.258.273.23.435-.023.14-.192.268-.39.268M8.956 7.224c-.019.092-.156.166-.264.142-.15-.035-.234-.126-.23-.251a.29.29 0 0 1 .254-.27c.023-.004.063.006.072.022.06.117.113.238.168.357"/><path fill="#858585" d="M8.36 6.16q.316-.454.628-.912l.511-.749c.076-.11.11-.109.186.001l1.097 1.591q.028.037.058.07c-.025.02-.05.054-.076.056-.122.005-.244 0-.366 0q-.96 0-1.922-.002c-.044 0-.104.022-.116-.054m.56-.038 1.248.002c.158-.003.318.012.496-.02L9.62 4.534c-.1.064-1.078 1.52-1.079 1.61z"/><path fill="#262626" d="M9.746 12.901c.268-.021.532-.065.784-.168.087-.036.133.002.102.079-.139.35-.307.679-.7.805a.89.89 0 0 1-.871-.152c.193-.087.388-.172.579-.264.069-.033.097-.096.073-.176q-.014-.057-.023-.115z"/><path fill="#4c4c4c" d="M9.69 12.91c.008.038.013.078.024.115.024.08-.005.143-.074.176-.19.092-.385.177-.579.264a1.3 1.3 0 0 1-.443-.754c.026 0 .044-.006.058 0 .324.141.663.201 1.014.199"/><path fill="#ebebeb" d="M6.485 10.896c.1.037.149.095.186.19.035.089.12.168.2.225.09.062.195.017.277-.086a.6.6 0 0 0 .145-.382c.04.028.086.044.089.065.024.165.153.306.123.478-.04.23-.1.457-.293.618a.539.539 0 0 1-.77-.25c-.12-.252-.105-.5-.017-.753.013-.038.04-.071.06-.105"/><path fill="#2e2e2e" d="m7.13 10.892-.001.119q-.005.183-.177.187c-.11.002-.184-.065-.19-.179a3 3 0 0 1 0-.256c.005-.11.084-.179.194-.176.099.002.168.072.172.176q.002.064.001.129"/><path fill="#ebebeb" d="M11.93 10.857c.078.125.138.254.227.36.169.2.32.13.449-.055.054-.077.064-.185.094-.28q.007-.028.012-.057l.025-.009c.047.092.105.18.14.275.097.27.03.53-.089.776-.07.144-.355.243-.523.214-.244-.042-.377-.19-.428-.423a1.3 1.3 0 0 1 .04-.705c.013-.038.04-.073.053-.096"/><path fill="#2e2e2e" d="M12.574 10.898c-.033.083-.054.163-.095.231-.056.095-.163.099-.24.021-.119-.12-.126-.39-.013-.516.08-.09.192-.088.253.016.043.073.063.16.095.248"/><path fill="#242424" d="m8.92 6.122-.379.022c0-.09.979-1.546 1.079-1.61l1.044 1.57c-.178.032-.338.017-.496.02-.012-.027-.02-.056-.036-.082-.054-.092-.115-.18-.163-.274-.114-.229-.22-.461-.334-.69-.015-.03-.053-.068-.08-.068s-.066.037-.082.067c-.139.27-.272.543-.41.813-.042.08-.095.155-.142.232"/><path fill="#3b3b3b" d="M8.92 6.122c.047-.077.1-.152.142-.232q.205-.407.41-.813c.016-.03.054-.068.082-.067.027 0 .065.037.08.068.114.229.22.461.334.69.048.095.11.182.163.274q.02.04.037.082z"/></g><defs><clipPath id="a"><path fill="#000000" d="M0 0h20v20H0z"/></clipPath></defs></svg>