<svg xmlns="http://www.w3.org/2000/svg" width="20" height="20" fill="#000000"><g clip-path="url(#a)"><circle cx="10" cy="10" r="10" fill="#545454"/><mask id="b" width="20" height="20" x="0" y="0" maskUnits="userSpaceOnUse" style="mask-type:alpha"><circle cx="10" cy="10" r="10" fill="#545454"/></mask><g filter="url(#c)" mask="url(#b)"><circle cx="4.375" cy="4.688" r="10" fill="url(#d)"/></g><path fill="#ffffff" fill-rule="evenodd" d="M13.977 8.774c0 .773-.438 1.158-.93 1.291.59.183 1.015.68 1.015 1.47v1.449h-2.247v-1.377c0-.42-.24-.59-.651-.59H8.498v1.967H6.25V7.188h5.34c1.34 0 2.387.299 2.387 1.586ZM8.5 8.807H11.55c.209 0 .378.177.378.395a.387.387 0 0 1-.392.395H8.5v-.79Z" clip-rule="evenodd"/></g><defs><radialGradient id="d" cx="0" cy="0" r="1" gradientTransform="matrix(0 10 -10 0 4.375 4.688)" gradientUnits="userSpaceOnUse"><stop stop-color="#545454"/><stop offset="1" stop-color="#949494"/></radialGradient><clipPath id="a"><path fill="#ffffff" d="M0 0h20v20H0z"/></clipPath><filter id="c" width="28" height="28" x="-9.625" y="-9.313" color-interpolation-filters="sRGB" filterUnits="userSpaceOnUse"><feFlood flood-opacity="0" result="BackgroundImageFix"/><feBlend in="SourceGraphic" in2="BackgroundImageFix" result="shape"/><feGaussianBlur result="effect1_foregroundBlur_4017_53694" stdDeviation="2"/></filter></defs></svg>