<svg xmlns="http://www.w3.org/2000/svg" width="250" height="250" version="1.1" fill="#000000"><path fill-opacity=".173" d="M 136 20.747 C 116.859 33.596, 96.751 54.984, 85.464 74.500 C 66.310 107.620, 59.009 146.339, 65.067 182.667 C 67.337 196.279, 71.125 210.208, 72.700 210.733 C 73.285 210.928, 73.985 207.731, 74.371 203.108 C 75.148 193.782, 78.809 176.643, 82.299 165.992 C 87.958 148.717, 98.334 130.240, 111.354 114.250 C 118.053 106.023, 118.064 106, 115.171 106 C 112.414 106, 112.702 105.567, 120.998 97.250 C 128.994 89.232, 135.860 79.951, 140.414 71 C 143.663 64.616, 147.784 51.604, 148.965 44 C 150.314 35.326, 149.987 13.818, 148.500 13.345 C 147.950 13.171, 142.325 16.502, 136 20.747 M 124.377 112.689 C 114.365 124.174, 105.623 136.581, 106.520 138.032 C 106.849 138.565, 109.341 139, 112.059 139 C 122.345 139, 143.480 148.242, 150.214 155.684 C 151.118 156.683, 152.848 161.324, 154.059 165.997 C 155.887 173.048, 156.173 176.243, 155.738 184.760 C 155.059 198.069, 154.255 199.327, 145.087 201.412 C 137.052 203.240, 123.942 203.476, 115.650 201.943 C 108.595 200.639, 98.220 196.064, 91.709 191.387 C 89.011 189.448, 86.629 188.038, 86.415 188.251 C 85.248 189.418, 82.988 205.912, 82.761 214.907 L 82.500 225.314 88 228.619 C 91.025 230.437, 96.967 233.066, 101.204 234.462 C 107.842 236.649, 110.690 237, 121.779 237 C 136.147 237, 143.724 235.132, 154.810 228.858 C 162.121 224.720, 174.720 212.121, 178.858 204.810 C 185.171 193.656, 187 186.173, 187 171.500 C 187 160.304, 186.649 157.318, 184.637 151.403 C 178.039 132.004, 163.866 116.961, 145.556 109.923 C 141.675 108.431, 136.658 106.911, 134.407 106.544 C 130.337 105.881, 130.283 105.914, 124.377 112.689 M 131.607 163.582 C 130 167.770, 132.937 173.265, 137.763 175.100 C 144.949 177.832, 146.117 171.294, 139.701 164.250 C 137.315 161.631, 132.508 161.234, 131.607 163.582" stroke="none" fill="#000000" fill-rule="evenodd"/><path fill-opacity=".113" d="M 136.803 20.921 C 97.981 46.999, 72.352 87.167, 65.490 132.694 C 63.607 145.184, 63.590 169.719, 65.454 182 C 67.237 193.744, 71.264 209.119, 72.546 209.077 C 73.071 209.061, 73.833 205.149, 74.240 200.386 C 76.770 170.767, 92.159 135.046, 111.954 112.840 C 114.729 109.727, 117 106.914, 117 106.590 C 117 106.265, 115.623 106, 113.939 106 L 110.878 106 115.689 101.860 C 130.679 88.961, 141.801 71.048, 146.957 51.500 C 150.302 38.819, 150.998 14, 148.008 14 C 147.512 14, 142.470 17.114, 136.803 20.921 M 124.315 113.577 C 118.228 120.461, 107 135.661, 107 137.016 C 107 137.449, 109.813 138.115, 113.250 138.497 C 125.129 139.814, 139.556 145.916, 148.131 153.250 C 154.122 158.375, 156.430 167.863, 155.823 184.881 C 155.507 193.754, 154.994 197.434, 153.928 198.501 C 151.553 200.876, 137.390 204, 129 204 C 116.147 204, 102.657 199.637, 91.180 191.769 C 88.804 190.140, 86.650 189.017, 86.394 189.273 C 85.381 190.286, 82.921 213.320, 83.202 219.164 L 83.500 225.376 90.777 229.286 C 101.256 234.915, 106.299 235.978, 122.500 235.967 C 134.735 235.959, 137.364 235.653, 143.349 233.541 C 162.356 226.834, 178.433 210.366, 184.120 191.780 C 185.908 185.939, 186.132 182.993, 185.832 169.280 C 185.505 154.332, 185.332 153.157, 182.547 147 C 174.081 128.281, 161.275 116.160, 142.996 109.567 C 132.175 105.663, 131.109 105.892, 124.315 113.577 M 132.035 163.935 C 130.789 166.262, 132.001 170.001, 134.960 172.960 C 137.306 175.306, 142.792 175.706, 143.604 173.590 C 144.778 170.530, 138.005 162, 134.400 162 C 133.669 162, 132.604 162.871, 132.035 163.935" stroke="none" fill="#000000" fill-rule="evenodd"/><path fill-opacity=".444" d="M 137.491 20.956 C 79.928 59.091, 52.672 128.329, 68.617 195.915 C 69.991 201.737, 71.483 206.871, 71.933 207.325 C 72.383 207.779, 73.058 205.529, 73.434 202.325 C 77.349 168.927, 88.953 140.626, 108.955 115.697 C 112.830 110.867, 116 106.788, 116 106.631 C 116 106.475, 114.537 106.532, 112.750 106.758 C 109.601 107.157, 109.723 106.965, 116.668 100.576 C 135.459 83.290, 146.005 62.415, 149.038 36.500 C 150.198 26.584, 149.436 15, 147.624 15 C 146.996 15, 142.436 17.680, 137.491 20.956 M 124.754 113.948 C 118.130 121.103, 108 134.988, 108 136.913 C 108 137.511, 109.688 138.007, 111.750 138.015 C 122.287 138.056, 139.977 145.447, 148.558 153.394 C 152.130 156.701, 153.291 158.667, 154.527 163.500 C 156.841 172.544, 157.422 183.567, 156.024 191.860 C 154.860 198.757, 154.592 199.273, 151.485 200.571 C 141.193 204.871, 122.883 205.505, 111.500 201.955 C 103.552 199.477, 95.983 195.889, 91.317 192.388 C 89.566 191.075, 87.711 190, 87.195 190 C 85.961 190, 85.088 195.742, 84.006 210.987 C 83.264 221.425, 83.358 223.739, 84.579 225.088 C 86.548 227.263, 97.242 232.402, 103.932 234.388 C 110.771 236.418, 131.307 236.560, 138.565 234.627 C 156.145 229.946, 172.205 216.606, 180.177 200.065 C 184.892 190.282, 185.976 184.846, 185.975 171 C 185.973 159.790, 185.674 157.640, 183.072 150.166 C 177.660 134.616, 166.591 121.647, 152.474 114.314 C 146.131 111.020, 134.714 107, 131.699 107 C 131.418 107, 128.293 110.127, 124.754 113.948 M 132.485 164.024 C 131.316 165.916, 133.130 170.957, 135.712 172.988 C 140.790 176.983, 144.353 174.682, 141.976 168.942 C 140.002 164.178, 134.237 161.190, 132.485 164.024" stroke="none" fill="#000000" fill-rule="evenodd"/><path fill-opacity=".192" d="M 141.123 19.144 C 127.456 27.478, 110.650 42.470, 99.808 56 C 88.921 69.586, 77.543 90.999, 72.178 108 C 64.151 133.436, 62.473 161.602, 67.447 187.434 C 68.922 195.098, 70.757 202.523, 71.525 203.934 C 72.912 206.485, 72.920 206.475, 72.960 202.419 C 73.023 195.958, 77.463 175.348, 80.912 165.500 C 87.318 147.212, 99.489 125.820, 112.060 110.757 L 115.183 107.013 112.092 107.632 C 110.391 107.972, 109 107.969, 109 107.625 C 109 107.281, 113.431 102.612, 118.848 97.250 C 134.139 82.110, 142.467 67.476, 146.589 48.500 C 148.496 39.720, 149.511 22.510, 148.366 18.377 L 147.500 15.255 141.123 19.144 M 124.898 114.117 C 121.984 117.482, 116.989 123.892, 113.800 128.363 L 108.001 136.492 115.250 137.661 C 125.168 139.261, 133.049 142.200, 141.428 147.424 C 150.868 153.310, 152.423 155.193, 155.119 164 C 157.801 172.759, 158.271 187.580, 156.108 195.186 C 154.963 199.216, 154.231 200.090, 150.892 201.427 C 141.263 205.279, 123.298 205.831, 111.500 202.636 C 105.490 201.008, 97.819 197.369, 91.717 193.251 L 87.231 190.224 86.054 195.862 C 85.406 198.963, 84.615 206.734, 84.296 213.131 L 83.717 224.763 92.108 228.876 C 104.378 234.891, 111.206 236.337, 124.481 235.732 C 142.539 234.909, 154.362 229.716, 167.039 217.039 C 175.036 209.042, 178.626 203.527, 182.687 193 C 184.697 187.790, 185.298 184.071, 185.718 174.258 C 186.201 162.945, 186.036 161.359, 183.538 153.347 C 179.814 141.403, 175.820 134.779, 167.022 125.957 C 159.130 118.042, 152.121 113.721, 141.282 110.085 C 131.845 106.921, 130.940 107.143, 124.898 114.117 M 133.667 163.667 C 130.885 166.449, 135.377 174, 139.814 174 C 143.101 174, 142.693 169.540, 139.077 165.923 C 136.123 162.969, 134.882 162.452, 133.667 163.667" stroke="none" fill="#000000" fill-rule="evenodd"/></svg>