<svg xmlns="http://www.w3.org/2000/svg" width="200" height="200" fill="#000000"><path fill-opacity=".22" fill-rule="evenodd" d="M79.5 2.969C59.543 7.555 45.176 15.6 30.5 30.41 15.825 45.217 7.706 60.289 3.54 80.46c-1.999 9.678-1.989 28.45.02 38.177 7.192 34.817 31.624 62.673 64.94 74.039 50.782 17.325 106.653-9.645 124.408-60.055 3.326-9.443 6.092-23.124 6.092-30.13 0-4.936-2.143-7.519-4.834-5.827-1.26.792-1.841 3.3-2.386 10.302-1.8 23.157-11.241 42.696-28.589 59.174-10.382 9.86-21.493 16.504-35.191 21.045-8.488 2.814-11.067 3.196-24.215 3.59-17.037.511-25.031-.823-38.785-6.473C38.062 173.237 17.35 148.901 10.276 120c-2.417-9.877-2.116-33.188.559-43.198 5.873-21.982 19.598-41.275 38.228-53.737C62.359 14.172 74.359 9.932 92.5 7.72c9.675-1.18 10-1.301 10-3.72 0-2.428-.216-2.505-7.5-2.685-4.382-.108-10.826.579-15.5 1.654M87 13.636c-16.39 3.191-29.883 9.196-41.623 18.526C10.381 59.972 2.834 111.754 28.348 149c11.538 16.842 31.411 30.374 51.276 34.915 29.727 6.794 60.347-1.817 81.431-22.901 17.2-17.2 25.414-37.362 25.267-62.014-.057-9.426-.601-14.467-2.215-20.5-6.665-24.926-23.158-45.398-45.8-56.849-10.455-5.288-21.657-7.85-35.807-8.19-7.15-.171-14.125-.092-15.5.175"/><path fill-opacity=".568" fill-rule="evenodd" d="M84.66 2.027C46.343 8.618 15.137 37.002 4.982 74.5c-2.768 10.223-3.734 29.505-2.017 40.261 6.114 38.298 34.448 69.519 72.535 79.926 8.881 2.426 11.679 2.727 25 2.685 12.077-.037 16.509-.459 22.742-2.166 18.43-5.047 31.571-12.308 44.414-24.542 14.278-13.6 23.178-28.644 27.832-47.045 3.015-11.92 4.185-24.104 2.508-26.124-2.918-3.516-5.994-.019-6.004 6.826-.031 21.227-11.339 45.978-28.345 62.04-11.349 10.718-28.178 19.63-43.647 23.112-10.796 2.43-31.078 2.255-41.146-.356-33.717-8.741-58.44-32.991-68.024-66.722C8.924 115.684 8.597 112.176 8.652 99c.057-13.779.358-16.477 2.715-24.296 5.08-16.856 13.123-30.148 25.271-41.765 8.534-8.161 14.24-12.079 24.689-16.954C72.078 10.969 78.225 9.288 91.5 7.737c10.692-1.25 11-1.355 11-3.761 0-2.365-.291-2.483-6.5-2.629-3.575-.083-8.678.223-11.34.68m1 12.021c-18.061 3.031-33.874 11.277-47.22 24.624C27.345 49.766 20.428 61.857 15.94 78c-3.306 11.891-3.338 30.712-.074 43 6.388 24.045 22.029 43.737 43.895 55.264 14.141 7.454 21.89 9.231 40.239 9.228 13.282-.003 16.645-.338 23.5-2.338 16.554-4.829 32.832-15.591 43.381-28.68C200.687 112.53 189.468 51.5 143 24.562c-16.726-9.696-38.465-13.682-57.34-10.514"/><path fill-opacity=".418" fill-rule="evenodd" d="M82.698 2.569C63.739 6.046 45.545 15.573 31.783 29.231 18.555 42.357 10.94 55.117 5.363 73.5c-2.513 8.286-2.73 10.349-2.73 26 0 15.549.229 17.768 2.687 26 5.584 18.705 17.57 37.447 31.166 48.732 19.573 16.247 46.14 25.14 69.771 23.356 48.484-3.66 85.827-39.45 91.743-87.927 1.124-9.213.814-12.135-1.379-12.976-2.931-1.125-3.908 1.207-4.768 11.384-1.041 12.31-1.902 15.818-6.607 26.931-13.187 31.146-41.204 52.199-74.612 56.063C56.353 197.343 8.182 154.511 8.02 99.822c-.045-15.121 2.947-27.648 10.018-41.949 4.687-9.479 8.349-14.6 16.267-22.747C49.622 19.367 67.872 10.485 90.152 7.947c13.051-1.487 13.052-1.488 12.668-4.193-.288-2.028-.92-2.272-6.32-2.435-3.3-.1-9.511.463-13.802 1.25M84.5 14.425C56.873 19.879 35.271 36.058 22.983 60.5c-11.169 22.216-12.656 44.54-4.561 68.468 6.803 20.107 23.826 38.88 43.908 48.422 13.974 6.64 20.71 8.11 37.17 8.11 16.472 0 24.743-1.691 37.184-7.604 40.294-19.149 59.256-64.412 44.838-107.028-6.833-20.198-23.283-38.747-43.225-48.741-15.376-7.705-37.636-10.892-53.797-7.702"/><path fill-opacity=".96" fill-rule="evenodd" d="M83.957 2.524c-30.32 5.579-55.864 24.003-70.303 50.708-21.515 39.79-12.185 90.461 22.111 120.085 12.099 10.451 24.979 17.171 40.814 21.295 8.133 2.118 12.264 2.592 22.921 2.627 27.687.091 50.112-9.016 69.534-28.239 17.242-17.065 26.419-36.319 28.985-60.812 1.004-9.583.639-11.188-2.541-11.188-2.153 0-2.353.518-2.983 7.75-2.11 24.187-10.702 43.449-26.467 59.337-9.149 9.22-17.761 15.153-29.028 19.996-14.188 6.1-20.496 7.316-37.5 7.232-13.169-.064-16.073-.394-23.796-2.703-26.868-8.033-48.118-26.111-59.379-50.518-6.397-13.865-7.767-20.676-7.762-38.594.004-17.801.989-23.051 6.873-36.629C29.21 31.088 58.404 10.296 93.5 7.275c8.727-.751 9-.851 9-3.275 0-2.342-.348-2.512-5.5-2.682-3.025-.1-8.894.443-13.043 1.206M75 37q0 2 2 2t2-2-2-2-2 2m8 4.5c0 2.111.467 2.5 3 2.5s3-.389 3-2.5-.467-2.5-3-2.5-3 .389-3 2.5m-8 6c0 3.333.167 3.5 3.5 3.5s3.5-.167 3.5-3.5-.167-3.5-3.5-3.5-3.5.167-3.5 3.5m9 6c0 3.417.095 3.5 4 3.5s4-.083 4-3.5-.095-3.5-4-3.5-4 .083-4 3.5m-20.758 6.559c-17.583 3.467-32.67 15.58-36.709 29.474C25.348 93.611 25 100.161 25 118.404V142h28l.006-20.75c.005-21.903.722-26.969 4.293-30.344C62.229 86.247 66.379 85 76.96 85c5.522 0 10.04.145 10.04.322s-.731 2.466-1.623 5.086c-1.164 3.416-1.495 6.987-1.17 12.614 1.105 19.083 15.668 33.91 37.887 38.576 10.062 2.112 35.021 1.626 39.406-.769 6.822-3.724 13.332-12.667 14.981-20.579l.678-3.25-23.83-.006c-14.368-.003-25.416-.446-27.826-1.115-2.375-.659-5.722-2.835-8.25-5.363-3.983-3.983-4.253-4.605-4.253-9.808 0-4.58.475-6.119 2.709-8.774 4.829-5.739 8.982-6.887 25.006-6.912 15.381-.024 21.112-1.215 26.932-5.597C171.644 76.416 176 67.747 176 62.804V59l-54.25.11c-29.838.06-56.166.487-58.508.949"/></svg>