<svg xmlns="http://www.w3.org/2000/svg" width="200" height="200" fill="#000000"><path fill-opacity=".086" fill-rule="evenodd" d="M82.66 1.985C45.436 8.716 14.704 36.464 3.365 73.579.858 81.784.634 83.904.573 100c-.074 19.19 1.03 25.127 7.501 40.333 8.952 21.036 29.522 41.9 50.426 51.147 13.03 5.763 22.017 7.738 37.606 8.265 16.529.559 25.28-.738 39.216-5.813 9.151-3.333 21.178-9.95 21.178-11.653 0-.612.41-1.487.91-1.946.529-.484.609-.309.191.417-1.072 1.863.943 1.511 2.527-.442 1.183-1.459 1.166-1.57-.128-.808s-1.311.651-.128-.808c1.486-1.832 2.634-2.32 1.628-.692-1.303 2.108 1.265.873 3.576-1.72 1.817-2.039 1.923-2.359.424-1.278-1.683 1.213 8.543-10.231 13.405-15.002 3.041-2.984-2.452 3.629-7.368 8.87-2.771 2.953-4.362 5.17-3.537 4.926s4.311-3.786 7.747-7.87c6.022-7.159 7.632-9.838 5.003-8.325-.726.418-.901.338-.417-.191.459-.5 1.321-.91 1.917-.91s1.292-.625 1.546-1.389q.463-1.39-.821-.596c-.848.525-1.038.397-.56-.377.398-.644 1.124-.923 1.614-.62 2.298 1.42 11.559-19.988 14.717-34.018 1.905-8.465 2.874-32.5 1.31-32.5-.581 0-1.056-1.075-1.056-2.388 0-3.359-4.436-18.279-7.482-25.167-8.704-19.682-26.955-38.379-47.297-48.455C130.103 3.997 120.722 1.824 103 1.443c-8.525-.183-17.678.06-20.34.542m2.84 7.692C74.241 12.18 66.167 14.8 59.146 18.23 18.461 38.107-1.617 85.046 12.192 128c2.25 7.001 7.631 18.257 10.276 21.5.898 1.1.285-.448-1.362-3.44l-2.994-5.44 6.866-7.06c3.776-3.883 8.53-8.972 10.564-11.31 2.582-2.967 4.492-4.255 6.328-4.265 1.447-.009 3.282-.428 4.078-.932.96-.607.117-.753-2.5-.432-8.39 1.028-13.669-6.213-11.521-15.803 1.33-5.939 5.197-9.199 10.126-8.538 2.031.273 4.312.095 5.07-.395 1.034-.669.879-.838-.623-.678-2.533.269-11.5-1.259-11.5-1.96 0-.29.788-1.113 1.75-1.83 1.477-1.101.543-1.244-6-.923-5.977.294-7.75.076-7.75-.951C23 83.374 28.629 78 30.901 78c2.658 0 2.71-1.602.099-3-2.148-1.15-2.75-4-.845-4 .691 0 .49-.735-.5-1.829-2.123-2.345-2.095-3.823.095-5.059 1.402-.791 1.501-1.239.5-2.25-1.782-1.799-1.562-6.528.338-7.257.961-.369 2.263.225 3.299 1.504 1.696 2.094 1.712 2.082 1.663-1.218-.039-2.569.514-3.613 2.414-4.561 2.124-1.058 2.228-1.319.75-1.886-.943-.362-1.714-1.285-1.714-2.051C37 45.388 38.393 45 42 45c3.687 0 5-.378 5-1.441 0-.793-.45-1.719-1-2.059-1.535-.949-1.187-5.17.571-6.929.865-.864 2.906-1.571 4.536-1.571 2.692 0 2.861-.19 1.849-2.082-1.423-2.659-.531-3.359 12.544-9.86 20.175-10.03 43.509-10.81 65.5-2.188 3.161 1.24 4.73 1.554 3.69.739-1.294-1.013-1.473-1.625-.63-2.146.649-.401 4.839 1.119 9.31 3.378 4.472 2.26 7.23 3.408 6.13 2.552-6.309-4.91-22.689-11.35-33.934-13.342-5.759-1.02-26.026-1.272-30.066-.374m8.755 7.182c.135.788-.317 1.63-1.005 1.871-.687.24-1.295-.163-1.35-.897-.055-.733-.41-.217-.79 1.146-.486 1.747-1.762 2.781-4.318 3.5-5.235 1.473-5.614 2.411-.582 1.438 7.044-1.362 22.418-1.025 29.797.653 3.796.863 11.31 3.791 16.697 6.506l9.796 4.937 2.245-2.757c1.234-1.516 2.11-3.206 1.945-3.756-.548-1.831-18.515-10.234-26.476-12.382-9.963-2.688-20.708-2.88-21.664-.387-.366.952-.189 1.889.393 2.083 1.828.61 1.148 2.186-.943 2.186-1.448 0-2-.667-2-2.417 0-1.329.563-2.633 1.25-2.898s.24-.431-.995-.371c-1.359.067-2.148.677-2 1.545M102 18.5c0 1.375.45 2.5 1 2.5s1-1.125 1-2.5-.45-2.5-1-2.5-1 1.125-1 2.5m5-1.582c0 .505-.251 1.573-.558 2.373-.374.975.261 1.61 1.929 1.929 2.191.419 2.477.137 2.406-2.372-.059-2.074-.584-2.848-1.929-2.848-1.016 0-1.848.413-1.848.918m6 2.582c0 1.375.45 2.5 1 2.5s1.299.008 1.663.017.785-1.115.932-2.5c.204-1.913-.195-2.517-1.663-2.517-1.394 0-1.932.696-1.932 2.5M85 20c0 1.1.408 2 .906 2s.671-.9.384-2-.696-2-.907-2c-.21 0-.383.9-.383 2m37.38 1.452c-.739 1.927.348 3.548 2.379 3.548 1.276 0 1.374-.267.441-1.2-1.666-1.666-1.501-2.853.3-2.162.825.317 1.5.078 1.5-.531 0-1.64-3.972-1.344-4.62.345m6.287 1.215c-1.167 1.166-.718 4.099.711 4.648 1.541.591 3.622-1.08 3.622-2.908 0-.656-.712-1.466-1.582-1.8-1.958-.752-1.94-.752-2.751.06M101.459 26.5c.24 1.65.736 6.317 1.102 10.371.666 7.364.667 7.368 2.141 4.324 1.594-3.291 5.002-6.824 5.807-6.019.273.273-.36 3.093-1.407 6.266l-1.903 5.77 3.859-3.769c2.123-2.072 3.654-4.1 3.404-4.505-.251-.405 1.165-2.16 3.146-3.899s3.325-3.439 2.986-3.778-3.591-1.617-7.228-2.841c-4.561-1.535-6.032-2.395-4.74-2.772 1.031-.3-.035-.445-2.367-.321-2.333.123-4.465-.237-4.739-.801-.273-.564-.3.324-.061 1.974M86.5 26.019c-8.619 1.724-25.306 9.24-27.154 12.23-.423.685-.158.76.749.214 1.197-.721 1.201-.596.033.845-1.562 1.926-2.613 2.286-1.523.522.493-.798.168-.957-1.023-.5-.96.369-3.171.706-4.914.749s-2.493.32-1.668.615c1.686.602 4 3.237 4 4.554 0 1.981-6.741 6.845-10.272 7.41-2.075.333-4.026 1.015-4.336 1.517-1.044 1.688 2.445 5.542 5.585 6.17 3.039.608 3.771 1.646 6.414 9.086.613 1.727 1.022 1.523 3.863-1.923 1.747-2.12 3.193-4.789 3.212-5.931.031-1.883 1.014-2.2 10.534-3.392 5.775-.723 11.625-1.548 13-1.833l2.5-.519-3-1.311c-1.65-.721-3.9-2.065-5-2.986-1.912-1.602-1.78-1.653 3-1.177 2.75.275 5.899.847 6.997 1.272 1.655.64 1.554.33-.585-1.81C82.564 45.473 77 38.359 77 37.147c0-1.99 1.429-1.285 7.8 3.849 3.41 2.748 6.2 4.802 6.2 4.565s-.384-1.473-.854-2.746c-3.169-8.595-1.727-10.377 2.721-3.363l2.824 4.452.915-9.452.915-9.452-3.511.11c-1.93.06-5.31.469-7.51.909m47.976 1.056c-.603 1.9.008 3.83.9 2.842 1.059-1.175 1.637-4.917.759-4.917-.55 0-1.297.934-1.659 2.075M98.573 33.15c-.48 4.068-.4 7.336.205 8.418.861 1.538 1.066 1.389 1.578-1.15.323-1.605.231-5.393-.205-8.418l-.794-5.5zm39.569-4.005c-1.162 1.859-1.136 2.067.194 1.556.844-.324 1.755-.051 2.023.605.349.853.792.766 1.55-.306 1.346-1.903 1.397-3.307.091-2.5-.55.34-1 .141-1-.441 0-1.745-1.43-1.201-2.858 1.086m-71.701 5.41c-1.864 1.494-1.852 1.512.309.465 1.237-.6 2.25-1.3 2.25-1.555 0-.765-.519-.544-2.559 1.09M54.4 35.5c.576 1.605.47 1.753-.541.75C52.168 34.571 51 34.673 51 36.5c0 1.013 1.014 1.5 3.122 1.5 2.818 0 2.992-.171 1.783-1.75-2.142-2.799-2.263-2.86-1.505-.75m63.808.643c-1.81 1.158-3.072 2.327-2.803 2.596s1.699-.462 3.177-1.625c3.02-2.376 4.418-2.674 4.418-.942 0 1.173-9.124 12.246-11.985 14.546-1.332 1.071-1.304 1.222.235 1.25.963.018 1.75-.376 1.75-.874 0-.499.787-.788 1.75-.644s1.188.07.5-.167c-1.861-.64-1.681-.979 3.779-7.105 6.627-7.435 6.153-11.499-.821-7.035M145 35.5c-1.037 1.25-.905 1.5.796 1.5 1.122 0 2.865.267 3.872.594 1.53.497 1.585.414.332-.5-1.333-.972-1.333-1.203 0-2.079 1.185-.778.948-.988-1.128-1-1.445-.008-3.187.66-3.872 1.485m-31.83 7.966c-2.11 1.906-3.837 4.172-3.837 5.034 0 1.704 6.026-3.522 7.784-6.75 1.426-2.618.316-2.136-3.947 1.716M82 41.756c0 1.676 7.367 8.644 7.791 7.37.233-.698-.637-2.403-1.934-3.789C85.172 42.466 82 40.527 82 41.756m23.162 1.787c-1.396 3.066-1.427 3.457-.27 3.457.916 0 2.511-4.93 1.819-5.622-.212-.213-.909.762-1.549 2.165m-12.66.955c.798 3.623 1.245 4.156 2.461 2.935.573-.575.153-1.891-1.096-3.433l-2.025-2.5zm54.952-1.424c-.723 1.17 3.244 5.926 4.943 5.926.576 0 .009-.728-1.261-1.617-1.487-1.042-2.133-2.287-1.816-3.5.529-2.02-.769-2.583-1.866-.809m-95.915.989c.361.585-.175 2.047-1.191 3.25L48.5 49.5l2.25-1.905C53.095 45.61 53.771 43 51.941 43c-.582 0-.763.478-.402 1.063m69.274 5.62c.721.289 1.584.253 1.916-.079s-.258-.568-1.312-.525c-1.165.048-1.402.285-.604.604M84.866 53.62c1.852.815 3.614 1.233 3.917.93.831-.831.057-1.207-3.783-1.836l-3.5-.574zM112 54c0 1.174.769 1.174 3.5 0 1.772-.762 1.687-.867-.75-.93-1.513-.038-2.75.38-2.75.93m-14.8 1.2c-1.543 1.543-1.543 5.057 0 6.6s5.057 1.543 6.6 0c2.805-2.805.692-7.8-3.3-7.8-1.155 0-2.64.54-3.3 1.2M79.5 59l-8 .633 8.25.184c4.956.11 8.25-.216 8.25-.817 0-.55-.112-.917-.25-.817s-3.85.469-8.25.817m36.963.06c-.345.558 2.766.94 7.645.94 4.524 0 8.038-.163 7.809-.362-1.042-.904-14.932-1.423-15.454-.578m36.04 3.19c-.239.688-1.378 3.827-2.532 6.976-1.454 3.972-1.808 6.242-1.155 7.41.838 1.497 1.085 1.417 2.227-.726 1.173-2.2 1.14-2.29-.379-1.038-2.245 1.852-2.111-.033.212-2.987C152.831 69.399 153 68.971 153 66.5c0-.825.9-2.4 2-3.5l2-2h-2.031c-1.118 0-2.227.563-2.466 1.25M46.529 64.403c.93 1.42 1.431 3.26 1.112 4.089S47.462 70 47.95 70c.923 0 5.05 6.147 5.05 7.523 0 .433-1.013-.058-2.25-1.091-1.237-1.034-1.687-1.238-1-.455 1.57 1.788 1.633 3.378.095 2.428-.721-.446-.882-.274-.43.457.398.644 1.065.959 1.484.701.418-.259.687.521.598 1.733s-.912 2.349-1.829 2.527c-.918.178-1.668.793-1.668 1.367s1.125.828 2.5.565c3.663-.7 3.053 1.028-.75 2.126l-3.25.939 4.05.09c2.228.049 4.651.653 5.386 1.34 1.099 1.028 1.226.806.714-1.25-.343-1.375-.629-3.062-.636-3.75A1.28 1.28 0 0 0 54.733 84c-.828 0-1.207-1.293-1.092-3.728.096-2.05-.534-5.087-1.401-6.75-.867-1.662-2.112-4.822-2.767-7.022-.7-2.352-1.901-4.14-2.913-4.339-1.623-.319-1.625-.189-.031 2.242M72 62.401c0 .221 1.494 1.283 3.321 2.361l3.321 1.959 4.414-2.36L87.469 62h-7.734c-4.254 0-7.735.181-7.735.401m13 2.702c-1.925 1.111-2.6 1.716-1.5 1.345s2.787-.901 3.75-1.178S89 64.369 89 63.883c0-1.123.13-1.163-4 1.22m26-1.188c0 .468.787 1.078 1.75 1.355s2.65.835 3.75 1.24l2 .736-2-1.457c-2.696-1.964-5.5-2.919-5.5-1.874m15.25 2.305c-2.464 1.189-3.008 2.78-.95 2.78 1.921 0 3.621 2.043 3.015 3.622-.291.758-1.156 1.378-1.922 1.378S125 74.45 125 75c0 1.486 2.252 1.212 4.818-.585 1.616-1.132 2.078-2.168 1.615-3.625-.472-1.488-.306-1.829.614-1.261.82.507 1.012.376.548-.374-.392-.635-1.635-1.155-2.761-1.155-1.41 0-1.869-.468-1.472-1.5.316-.825.477-1.47.357-1.432-.121.037-1.232.556-2.469 1.152M84.5 67.693c-8.966 3.359-8.794 3.248-7.479 4.832.966 1.165.962 1.791-.021 2.975-.86 1.036-.898 1.5-.122 1.5.617 0 1.122-.45 1.122-1s.623-1 1.385-1 2.132-1.139 3.044-2.532c.912-1.392 2.04-2.296 2.506-2.008s1.581-.598 2.479-1.969 1.509-2.447 1.359-2.394c-.15.054-2.073.772-4.273 1.596M62 68c0 .55.423 1 .941 1s1.219-.45 1.559-1-.084-1-.941-1S62 67.45 62 68m9.75.299c-3.426 1.354-3.556 4.127-.294 6.264 3.322 2.177 5.618.756 2.536-1.569C71.472 71.093 72.031 69 75.059 69 76.127 69 77 68.55 77 68c0-1.225-1.628-1.132-5.25.299m16.624 1.451c-4.52 6.208-4.217 6.807 1.088 2.149 1.942-1.705 3.281-3.505 2.976-4-.929-1.502-1.967-1.029-4.064 1.851m20.224-1.908c-.286.462 1.037 2.351 2.941 4.196 3.965 3.843 4.49 3.098 1.211-1.719-2.309-3.392-3.243-3.949-4.152-2.477m-68.372 2.732c.95.994 2.001 1.533 2.336 1.197s-.442-1.148-1.726-1.807c-2.233-1.145-2.26-1.118-.61.61m64.806-.515c-.018.857.629 2.432 1.436 3.5 1.174 1.552 1.475 1.628 1.5.382.018-.857-.629-2.432-1.436-3.5-1.174-1.552-1.475-1.628-1.5-.382m-11.556 2.016c-.964 3.037.01 3.349 1.34.429.628-1.377.731-2.504.23-2.504s-1.208.934-1.57 2.075m92.635-1.575c-.049.55.575 3.19 1.387 5.867l1.477 4.868-7.488 8.247c-6.888 7.587-7.487 8.593-7.487 12.567 0 8.585-5.752 16.047-13.5 17.512l-3 .568v7.392c0 5.848-.362 7.663-1.732 8.686-1.55 1.156-1.58 1.558-.29 3.793 2.696 4.67 2.788 5.134 1.498 7.545-1.399 2.614-6.493 4.765-14.476 6.112-4.113.693-5.057 1.242-5.32 3.093-.175 1.238.193 2.25.818 2.25.701 0 .88-.808.468-2.108-.642-2.02-.448-2.078 4.682-1.385 2.944.397 5.69.922 6.102 1.166 1.449.86.728 4.037-1.34 5.909-2.006 1.815-2.144 1.819-3.404.095-1.438-1.966-1.653-1.783-4.488 3.823-1.099 2.171-3.657 4.039-9.263 6.761-10.218 4.963-17.064 6.684-29.755 7.48-5.775.363-9.663.837-8.639 1.054 1.602.339 1.346.921-1.848 4.191-3.312 3.392-4.151 3.759-7.86 3.436-2.287-.199-1.008.271 2.847 1.047 23.035 4.634 50.57-2.202 70.866-17.595 24.776-18.79 38.812-52.405 34.72-83.151-1.009-7.587-4.731-21.966-4.975-19.223M82.535 73.587c-.932 1.422-1.467 2.814-1.189 3.093.279.278 1.226-.886 2.106-2.587 1.944-3.76 1.409-4.056-.917-.506M67 73.385c0 1.463 5.91 7.039 6.662 6.286.318-.318-1.05-2.115-3.042-3.993S67 72.768 67 73.385m32.47-.167c-.903 2.353-.109 10.282 1.03 10.282 1.358 0 1.881-9.519.593-10.807-.703-.703-1.215-.538-1.623.525m31.228 2.115c-1.542 1.593-2.634 3.065-2.427 3.271s1.659-.965 3.229-2.604 2.662-3.11 2.427-3.271c-.235-.16-1.688 1.012-3.229 2.604M60 73.642c0 .537.7 1.849 1.555 2.917 1.467 1.83 1.487 1.798.365-.559-1.458-3.061-1.92-3.628-1.92-2.358M169 75.5c-.685.825-.933 1.5-.551 1.5s1.369-.675 2.194-1.5 1.073-1.5.551-1.5-1.509.675-2.194 1.5m-80.47 2.636c.641 2.92.526 3.095-1.671 2.548C82.183 79.518 76 78.757 76 79.347c0 .331 1.445 1.349 3.211 2.262 2.77 1.432 3.875 1.491 8.032.425 2.651-.679 5.931-.956 7.289-.615 2.216.556 2.468.311 2.468-2.4 0-3.526-2.34-4.122-4-1.019-1.477 2.76-3 2.506-3-.5 0-1.375-.486-2.5-1.079-2.5-.69 0-.831 1.133-.391 3.136m49.445-.98c-.605 1.327-3.187 3.521-5.739 4.875-2.937 1.558-4.037 2.576-2.999 2.776.902.174 2.605-.649 3.785-1.829 2.655-2.655 3.983-1.746 1.484 1.016-.999 1.103-1.489 2.006-1.09 2.006 1.22 0 3.584-2.774 3.584-4.206 0-.742.721-2.378 1.602-3.636s1.348-2.541 1.037-2.852c-.31-.31-1.059.522-1.664 1.85m-8.475 3.228-3 2.884 4.25-2.154c2.338-1.185 4.25-2.397 4.25-2.693s-.412-.285-.915.026-1.065.225-1.25-.191c-.184-.416-1.685.542-3.335 2.128m21.591-2.461c-.775.49-2.084.633-2.909.317-1.217-.468-1.376.039-.844 2.698.531 2.655.372 3.165-.842 2.699-1.002-.385-1.496.048-1.496 1.313 0 1.037-.293 2.651-.652 3.585-.571 1.488-.37 1.547 1.623.481 1.25-.67 3.551-.962 5.112-.649 1.562.312 3.108.132 3.437-.4.343-.554-.923-.967-2.961-.967-1.957 0-3.559-.45-3.559-1s1.602-1 3.559-1c2.156 0 3.311-.401 2.931-1.016-.346-.559-1.067-.746-1.603-.414-.536.331-1.645.046-2.464-.634-1.3-1.079-1.209-1.535.718-3.586 2.319-2.469 2.303-2.917-.05-1.427m23.965 2.3c4.472 4.895 3.939 5.642-4.306 6.034l-7.25.346 7.281.198c5.702.156 7.408-.129 7.861-1.311.593-1.544-4.019-8.49-5.637-8.49-.491 0 .432 1.45 2.051 3.223M67.553 78.915c-.311.503 0 1.116.691 1.363s.933.796.537 1.221c-.395.424-1.773.081-3.062-.763-2.293-1.503-2.334-1.472-1.911 1.41.238 1.621.671 2.708.963 2.416s1.186.25 1.986 1.204c.957 1.141.897.794-.175-1.016-1.68-2.837-.718-3.824 1.326-1.361.634.764 2.368 1.622 3.854 1.906 2.529.483 2.578.427.778-.89C71.483 83.632 70.227 83 69.75 83s-.585-.457-.24-1.016c.346-.559 1.16-.707 1.809-.328.65.378.324-.29-.724-1.484-2.164-2.467-2.268-2.51-3.042-1.257m-22.118.98c.372.602 1.606 1.592 2.741 2.199 1.48.792 1.874.795 1.389.011-.372-.602-1.606-1.592-2.741-2.199-1.48-.792-1.874-.795-1.389-.011m15.644 1.688c.048 1.165.285 1.402.604.605.289-.722.253-1.585-.079-1.917s-.568.258-.525 1.312m78 0c.048 1.165.285 1.402.604.605.289-.722.253-1.585-.079-1.917s-.568.258-.525 1.312m-34.098 1.94c-1.106 1.333-.648 1.502 3.661 1.349 2.709-.095 5.932.365 7.162 1.023 2.14 1.145 4.196.789 4.196-.727 0-.737-9.328-3.168-12.157-3.168-.879 0-2.167.686-2.862 1.523m-20.071.809c-2.105.684-3.416 1.685-3.167 2.418.588 1.734-1.234 1.568-2.743-.25-1.697-2.045-3.082-1.894-2.292.25 1.122 3.041 2.561 3.176 6.876.648 2.98-1.746 5.373-2.378 8.258-2.179 2.234.155 4.196-.169 4.36-.719.428-1.435-7.059-1.546-11.292-.168m37.396 2.136c-2.802 2.465-1.53 3.615 1.694 1.532.825-.533 1.107-.976.628-.985-.48-.008-.313-.69.372-1.515 1.92-2.314.426-1.777-2.694.968m-52.493 1.215c.721.289 1.584.253 1.916-.079s-.258-.568-1.312-.525c-1.165.048-1.402.285-.604.604m24.437-.032c-2.019.833-1.432 3.349.781 3.349 2.5 0 3.663 2.66 2.192 5.014-.858 1.374-.663 2.21.908 3.896 1.1 1.181 1.858 3.147 1.685 4.369-.273 1.921-1.059 2.282-5.816 2.67l-5.5.448 6 .552 6 .551.593 5c.576 4.861 1.057 4.117 1.292-2 .11-2.88.335-3.023 5.615-3.587l5.5-.587-5.05-.163c-5.795-.187-7.45-1.392-7.45-5.422 0-1.572-.428-2.594-.952-2.271-.552.342-1.076-2.039-1.25-5.681-.299-6.297-1.204-7.518-4.548-6.138M103 96v9l2.75-.015c1.513-.009 3.425-.452 4.25-.985 1.126-.728.628-.973-2-.984l-3.5-.015v-5.998c0-5.644.14-5.998 2.372-6 1.872-.002 2.138-.287 1.259-1.345-.612-.738-.818-1.638-.456-2s-.542-.658-2.008-.658H103zM.389 100.5c.001 7.15.161 9.944.353 6.208.193-3.735.192-9.585-.003-13-.194-3.414-.352-.358-.35 6.792M71.5 90c-1.514.651-1.609.876-.389.93 1.055.046 1.534.847 1.388 2.32-.123 1.237-.029 1.463.208.5.238-.963.851-1.75 1.363-1.75.511 0 .959.787.993 1.75.046 1.258.336 1.069 1.032-.672.702-1.756.615-2.645-.314-3.234-1.518-.963-1.691-.957-4.281.156m52.885.439c-.304.792-.078 2.254.501 3.25.981 1.687 1.055 1.691 1.084.061.048-2.814 1.728-2.012 2.355 1.124.316 1.58 1.385 3.18 2.375 3.554 1.673.632 1.684.562.152-.986-1.22-1.234-1.438-2.397-.841-4.479.443-1.547.547-3.071.231-3.388-1.152-1.152-5.319-.537-5.857.864M64 90.969c0 .532.675.709 1.5.393.825-.317 1.5-.753 1.5-.969S66.325 90 65.5 90s-1.5.436-1.5.969m14.079 1.551c-.113 2.892 3.548 15.646 6.556 22.843C87.586 122.42 96.013 137 97.142 137c.418 0-1.149-3.262-3.482-7.25-5.72-9.776-9.033-17.501-12.118-28.25-3.147-10.966-3.363-11.528-3.463-8.98M133 92.293a48 48 0 0 1 2.872 2.753c1.175 1.244 1.215 1.147.278-.678-.602-1.173-1.894-2.412-2.872-2.753-1.548-.54-1.584-.452-.278.678m-78 .501c0 .529.727 1.564 1.615 2.302 1.398 1.16 1.566 1.086 1.25-.545C57.489 92.607 55 91.082 55 92.794m9.872 1.956c-1.243 1.586-1.208 1.621.378.378C66.916 93.821 67.445 93 66.622 93c-.207 0-.995.787-1.75 1.75m28.207-.167c.048 1.165.285 1.402.604.605.289-.722.253-1.585-.079-1.917s-.568.258-.525 1.312m15.936.167c.009.999.336 1.321.762.75.41-.55 1.154-1.338 1.651-1.75s.155-.75-.761-.75c-.927 0-1.66.777-1.652 1.75m58.809 2.204c.922 2.174 1.816 3.555 1.987 3.068.315-.9-2.529-7.022-3.262-7.022-.22 0 .354 1.779 1.275 3.954M48 95.173c0 .455.44.827.977.827s.875 1.754.75 3.898-.504 3.73-.843 3.524-1.414.506-2.388 1.583c-1.529 1.689-1.581 2.189-.384 3.645 1.266 1.539 1.098 1.63-1.912 1.034-2.345-.465-3.096-.324-2.595.486.39.632.264.867-.284.529-1.146-.709-.52-6.633.887-8.401.527-.661.665-2.124.307-3.25-.421-1.329-.205-2.048.618-2.048.94 0 .976-.291.14-1.127-.629-.629-2.245-.846-3.663-.49-3.113.781-5.193 6.693-4.207 11.954.547 2.911 1.277 3.732 4.168 4.686 2.92.964 3.924.883 6.012-.485 1.378-.904 2.965-2.857 3.525-4.34.561-1.484 2.143-3.877 3.517-5.317 2.196-2.302 2.296-2.697.824-3.262-1.292-.496-1.414-.956-.536-2.014.913-1.1.541-1.458-1.888-1.815-1.664-.244-3.025-.072-3.025.383m61.584 4.186c.75 1.954 2.023 2.119 3.017.391.396-.687.351-.916-.099-.509s-1.432.232-2.183-.391c-1.079-.895-1.233-.789-.735.509m18.093.423c.627 2.496 3.738 4.631 5.628 3.862.657-.267.295-.529-.805-.58-1.692-.08-1.769-.258-.5-1.155 1.298-.918 1.301-1.007.02-.658-.814.221-2.253-.532-3.198-1.674l-1.718-2.077zm-56.706 1.257c-.809.512-1.021.944-.471.961s.325.467-.5 1-.993.976-.372.985c1.259.017 3.894-2.796 3.236-3.455-.232-.232-1.084-.003-1.893.509m22.634.211c.421 1.21.095 1.75-1.057 1.75-.916 0-1.388.45-1.048 1s2.166 1 4.059 1S99 104.55 99 104s-.738-1-1.64-1-2.253-.787-3.002-1.75c-1.298-1.667-1.334-1.667-.753 0m71.531 2.777c-.075 1.391-.837 3.528-1.693 4.75-.91 1.301-1.108 2.223-.475 2.223 1.451 0 3.224-4.858 2.714-7.434-.337-1.7-.434-1.618-.546.461m-117.677 2.04c-.363.586-.445 1.281-.183 1.543s.743-.218 1.069-1.067c.676-1.762.1-2.072-.886-.476M72 105.393c0 .216.698.661 1.552.989.89.341 1.291.173.941-.393-.587-.951-2.493-1.406-2.493-.596m57.75 1.296c-2.536.663-2.172 4.41.862 8.881 3.24 4.774 2.343 6.702-3.488 7.5-2.29.313-4.717 1.159-5.394 1.88-1.006 1.072-.503 1.198 2.77.691 2.2-.34 5.35-.656 7-.7 2.317-.063 2.58-.247 1.153-.808-1.677-.66-1.7-.849-.25-2.053 2.099-1.742 2.018-2.68-.544-6.279-2.982-4.187-2.938-7.042.13-8.47 2.478-1.153 1.163-1.531-2.239-.642m-59.5 1c2.329.609 2.203 3.056-.374 7.284-1.29 2.114-1.526 2.981-.604 2.216 2.093-1.736 4.077-6.837 3.373-8.671-.32-.835-1.384-1.466-2.364-1.402-1.669.109-1.671.145-.031.573m98.75.755c0 3.03-4.59 6.865-9.087 7.592l-4.413.714 3.85.125c3.135.102 4.482-.507 7.25-3.275 2.909-2.909 4.531-6.6 2.9-6.6-.275 0-.5.65-.5 1.444m-75.343 2.818c-1.521 1.112-1.348 1.26 1.463 1.25 1.755-.007 3.383.552 3.619 1.241.278.809-.396 1.164-1.901 1-1.752-.19-2.412.307-2.654 1.997-.178 1.237.144 2.25.715 2.25s.779-.675.463-1.5c-.397-1.032.062-1.5 1.472-1.5 2.553 0 3.231-1.037 2.501-3.826-.635-2.429-3.069-2.82-5.678-.912m9.343.345c0 1.055.544 1.398 1.582 1 .87-.334 2.246-.607 3.059-.607.812 0 1.199-.45.859-1-1.039-1.681-5.5-1.189-5.5.607m30-.229c0 .207.787.995 1.75 1.75 1.586 1.243 1.621 1.208.378-.378-1.307-1.666-2.128-2.195-2.128-1.372m-71 3.987c0 .751-.944 2.663-2.098 4.25l-2.097 2.885 2.597-2.806C62.7 117.212 63.883 114 62.5 114c-.275 0-.5.614-.5 1.365m44 1.135c0 1.375.338 2.5.75 2.5s.75-1.125.75-2.5-.338-2.5-.75-2.5-.75 1.125-.75 2.5m-57.5-.5c.34.55.816 1 1.059 1s.441-.45.441-1-.477-1-1.059-1-.781.45-.441 1m41.5 2.5c0 .825.436 1.5.969 1.5s.709-.675.393-1.5c-.317-.825-.753-1.5-.969-1.5s-.393.675-.393 1.5m8.638 1c-.316.825-1.473 1.5-2.571 1.5-1.99 0-1.99.014.032 4.75 3.265 7.646 4.026 7.544 3.749-.501-.137-3.987-.336-7.249-.441-7.249-.106 0-.452.675-.769 1.5m3.862 5.955c0 3.494.325 6.153.722 5.908.64-.396 4.778-9.047 4.778-9.99 0-.205-.81-.373-1.8-.373s-2.227-.427-2.75-.95c-.6-.6-.95 1.391-.95 5.405m-56.43-2.085c-.697 1.302-1.05 3.214-.785 4.249.362 1.411.512 1.244.599-.669.064-1.403.648-3.082 1.299-3.733s.952-1.415.669-1.699c-.284-.283-1.086.55-1.782 1.852m22.802-.062c.755.931.98 1.768.5 1.86-.479.093 1.81.43 5.088.75 4.985.487 6.048.93 6.5 2.708.44 1.732.956 1.969 2.79 1.282 2.441-.915 3.008-2.778 1-3.288-.687-.174-2.825-.895-4.75-1.602s-4.928-1.402-6.673-1.545-3.771-.62-4.5-1.059c-1.046-.629-1.036-.439.045.894m75.878 1.837c2.53 2.793 2.816 3.855 1.038 3.855-.667 0-3.127 1.879-5.467 4.176-3.936 3.863-4.452 4.085-6.89 2.975-2.193-1-2.426-1.452-1.39-2.7.684-.825 1.05-1.693.814-1.93s-.974.44-1.639 1.504c-1.026 1.644-.87 2.152 1.038 3.381 2.915 1.877 9.066 2.982 12.21 2.192 2.157-.541 2.357-.939 1.545-3.074-.632-1.662-.573-2.676.184-3.143.725-.448.832-.231.307.619-.535.866-.418 1.068.345.595.635-.392 1.141-2.149 1.124-3.904-.023-2.314-.779-3.719-2.75-5.111l-2.719-1.919zm-27.646.773c-1.925 1.214-.616 4.082 1.865 4.082 2.336 0 2.554-.918.781-3.29q-1.25-1.672-2.646-.792m7.081 4.298c1.248 3.708 2.653 5.784 3.916 5.784.471 0 .344-1.125-.283-2.5-.626-1.375-1.517-2.5-1.979-2.5-.461 0-.839-.648-.839-1.441s-.432-1.708-.96-2.034c-.553-.342-.491.799.145 2.691m-47.971-.466c-.881 1.21-1.44 1.382-1.809.556-.577-1.288-3.405-.649-3.405.77 0 .473.675.602 1.5.286 1.846-.709 2.074 2.664.3 4.438-.66.66-.772 1.198-.25 1.195 1.346-.007 9.174-4.926 7.9-4.964-.578-.017-1.59.509-2.25 1.169-.933.933-1.2.756-1.2-.8 0-1.1.54-2.54 1.2-3.2s.77-1.2.245-1.2-1.529.787-2.231 1.75m51.358 0c.497.412 1.241 1.2 1.651 1.75.426.571.753.249.762-.75.008-.973-.725-1.75-1.652-1.75-.916 0-1.259.338-.761.75m-16.239 2.009c-.641.416-1.358 2.103-1.591 3.749-.234 1.645-.781 3.81-1.216 4.809-1.105 2.537.666 3.924 3.955 3.098 2.303-.578 2.496-.848 1.145-1.605-.894-.5-1.626-1.562-1.626-2.36s-.477-1.45-1.059-1.45-.807-.408-.499-.906c.633-1.025 2.607-.264 13.496 5.202 4.159 2.087 6.848 3.212 5.974 2.5s-1.401-1.971-1.174-2.796c.368-1.333.299-1.333-.626 0-.924 1.333-1.206 1.333-2.54 0-1.022-1.023-1.203-1.977-.566-3 .788-1.267 1.263-1.295 3.061-.181 1.17.726 2.296 1.152 2.501.946.665-.665-11.977-7.491-15.068-8.136-1.65-.344-3.525-.285-4.167.13m-31.083 2.916c-2.338 1.361-4.25 2.918-4.25 3.459s-.47.694-1.044.339c-1.196-.739-3.956 1.243-3.956 2.841 0 .587.666.195 1.481-.873 1.264-1.657 1.622-1.726 2.446-.47.998 1.523 2.573.733 2.573-1.291 0-.634.787-1.304 1.75-1.49 1.068-.205 1.75.277 1.75 1.237 0 .865-.575 1.573-1.278 1.573s-2.08.938-3.061 2.083c-.999 1.167-2.44 1.832-3.275 1.512-.96-.369-1.235-.16-.774.586.483.781.157.944-1 .5-1.019-.391-1.468-.257-1.105.33.336.544.059.989-.615.989s-.954.271-.623.603c.332.331 4.119-1.202 8.417-3.407 12.966-6.654 13.189-6.734 14.584-5.229.987 1.066.928 1.222-.301.796-2.116-.735-4.487 4.101-2.402 4.901 2.724 1.045 4.532-.471 4.052-3.397-.25-1.522-.56-2.992-.689-3.267-.337-.718-.681-2.303-.815-3.75-.193-2.098-7.277-1.247-11.865 1.425m3.306-.765c-.863 1.396.488 4.09 2.051 4.09 1.512 0 1.732-.954.786-3.418-.674-1.757-1.976-2.066-2.837-.672m30.051.672c-.876 2.284-.805 2.418 1.286 2.418 1.899 0 3.491-2.283 2.371-3.402-1.12-1.121-3.049-.602-3.657.984m6.063 2.835c-.422 1.101 1.127 2.583 2.699 2.583.113 0 .273-.9.356-2 .172-2.276-2.229-2.734-3.055-.583m-32.356 8.513c1.548.512 3.471 1.477 4.274 2.143.803.667 1.757.915 2.119.553 1.194-1.193-1.312-2.691-5.293-3.163-3.47-.411-3.595-.358-1.1.467m22.129.488c-1.067.78-1.606 1.753-1.198 2.161s1.533.032 2.499-.835 3.106-1.772 4.756-2.011c2.854-.412 2.826-.441-.559-.583-1.957-.083-4.432.488-5.498 1.268m-4.843.981c.295.769.048 1.7-.548 2.069s-.805 1.123-.463 1.676c.341.553 1.249-.205 2.016-1.684 1.733-3.339 1.73-3.46-.074-3.46-.847 0-1.241.592-.931 1.399m9.4.601c0 .55.477 1 1.059 1s.781-.45.441-1-.816-1-1.059-1-.441.45-.441 1m3 1c0 .55.45 1 1 1s1-.45 1-1-.45-1-1-1-1 .45-1 1m68 1c-.589 1.1-.845 2-.57 2s.981-.9 1.57-2 .845-2 .57-2-.981.9-1.57 2m-86 0c0 .55.477 1 1.059 1s.781-.45.441-1-.816-1-1.059-1-.441.45-.441 1m11.427-.235c-2.929 2.006-2.176 3.959 2.38 6.172l4.625 2.247 1.784-2.203c2.252-2.78 2.262-3.979.034-3.987-.963-.004-3.039-.679-4.614-1.5-3.324-1.733-2.859-1.653-4.209-.729m10.635.399c.859.735 1.85 2.105 2.203 3.045.714 1.905 6.751 3.947 8.098 2.739 1.313-1.177-.221-2.948-2.554-2.948-1.14 0-3.701-.939-5.691-2.086s-2.915-1.485-2.056-.75m12.688 1.525c-1.874.49-2.438 2.311-.715 2.311.701 0 .713.603.035 1.869-.985 1.841-.534 3.131 1.097 3.131.458 0 .833-.874.833-1.943s.897-2.572 1.994-3.34c3.025-2.119 1.281-3.21-3.244-2.028M26 155c1.175 1.65 2.361 3 2.636 3s-.461-1.35-1.636-3-2.361-3-2.636-3 .461 1.35 1.636 3m35.5-2.281c2.876.701 5.5 3.294 5.5 5.436 0 1.015.423 1.845.941 1.845 1.628 0 2.278-2.031 1.103-3.447-.843-1.016-.82-1.461.091-1.765 2.826-.942-.575-2.78-4.944-2.672-2.58.064-3.791.335-2.691.603m50.11.708c.71 1.849 3.753 2.162 3.14.323-.228-.687-1.164-1.395-2.079-1.573-1.16-.225-1.481.154-1.061 1.25m-34.046 3.28c-.542 1.425-.428 1.54.56.56.684-.679.991-1.486.683-1.793-.308-.308-.867.247-1.243 1.233m63.126 1.214c.453 1.732.086 2.079-2.199 2.079-1.509 0-6.624 1.543-11.367 3.429-9.737 3.872-17.334 5.426-27.824 5.69-4.603.116-7.128.578-7 1.281.11.605-.813.959-2.05.787s-2.25.151-2.25.719c0 .567.675.772 1.5.456.966-.371 1.5.021 1.5 1.101 0 1.166-.684 1.579-2.25 1.357-3.235-.46-3.638-4.533-.57-5.763 1.276-.512 1.645-.952.82-.978-2.796-.09-4.291 1.618-3.776 4.315.572 2.99.704 2.909-2.659 1.631-1.504-.572-2.565-.598-2.565-.062 0 1.55 8.897 2.539 22.5 2.501 11.434-.032 14.036-.372 21.601-2.82 10.527-3.408 14.899-5.94 14.899-8.629 0-1.108.9-2.915 2-4.015 2.38-2.38 5.488-2.715 4.638-.5-.691 1.801.496 1.966 2.162.3 1.823-1.823 1.465-2.528-1.55-3.045-1.512-.26-3.505-.796-4.427-1.193-1.336-.573-1.566-.297-1.133 1.359m-47.818 1.829c-1.243 1.586-1.208 1.621.378.378 1.666-1.307 2.195-2.128 1.372-2.128-.207 0-.995.787-1.75 1.75M120 158.43c0 .275.9.981 2 1.57s2 .845 2 .57-.9-.981-2-1.57-2-.845-2-.57m-41.493 1.559c-.35.566.051.734.941.393 1.732-.665 2.049-1.382.611-1.382-.518 0-1.216.445-1.552.989m27.037.94c-.375.607-1.101.845-1.613.528-1.573-.972-1.031.217.761 1.671 1.442 1.169 1.566 1.164.844-.036-.649-1.075-.367-1.281 1.197-.872 1.125.294 2.658.098 3.406-.437 1.069-.763 1.012-.861-.267-.455-.896.283-2.082.062-2.637-.493-.679-.679-1.233-.648-1.691.094m-8.034 1.087c.346.559 1.047.758 1.559.441 1.387-.857 1.129-1.457-.628-1.457-.857 0-1.276.457-.931 1.016m14.987-.012c-.343.556-1.978 1.71-3.632 2.566-2.501 1.293-3.282 1.334-4.629.243-1.191-.966-1.421-.982-.869-.063.515.857.025 1.245-1.558 1.235-1.858-.013-2.016-.205-.809-.985.825-.533 1.027-.976.45-.985-.578-.008-1.567.502-2.199 1.134-.865.865-1.84.698-3.95-.675-1.979-1.288-2.437-1.378-1.56-.307.683.835.988 1.771.677 2.081s2.897.6 7.126.644c8.138.083 21.456-2.402 21.456-4.004 0-1.579-2.929-2.192-4.449-.93-1.036.859-1.969.889-3.426.109q-2.004-1.073-2.628-.063M110 165c-.901.582-1.025.975-.309.985.655.008 1.469-.435 1.809-.985.767-1.242.421-1.242-1.5 0m17 .74c0 .59-.9.837-2 .55-1.118-.293-2-.031-2 .593 0 .615.45 1.117 1 1.117s.947.338.882.75c-.317 2.005.221 3.304 1.134 2.74.559-.346.728-1.095.375-1.666-.414-.669.144-.789 1.57-.337 2.051.652 2.122.533.989-1.642-1.57-3.014-1.95-3.425-1.95-2.105m-6.985 3.01c.019 2.18 1.668 4.9 2.479 4.089.849-.848-.521-5.839-1.602-5.839-.491 0-.885.787-.877 1.75m-5.765-.019c-1.677.584-1.589 3.743.144 5.181 1.075.892 1.752.799 2.958-.406 2.455-2.456.2-5.927-3.102-4.775m-6.657 1.577c-1.017.744-1.447 1.908-1.07 2.891.927 2.416 3.14 2.917 4.654 1.054 1.141-1.404 1.082-1.537-.427-.972-1.189.446-1.75.167-1.75-.871 0-.841.45-1.25 1-.91s1 .168 1-.382c0-1.719-1.633-2.107-3.407-.81m-14.807 2.478c-1.559 2.638-1.548 2.785.211 2.785 1.021 0 1.578-.466 1.238-1.035-.341-.57.142-.418 1.073.336 1.451 1.177 1.692 1.153 1.692-.168 0-2.076-1.057-4.704-1.891-4.704-.373 0-1.418 1.254-2.323 2.786m6.214.284c0 2.581.345 3.018 2.172 2.75 1.194-.176 2.357-.883 2.583-1.571.27-.82-.172-1.026-1.287-.598-1.377.528-1.57.245-1.016-1.5.501-1.577.264-2.151-.885-2.151-1.082 0-1.567.949-1.567 3.07m16.079-1.487c.048 1.165.285 1.402.604.605.289-.722.253-1.585-.079-1.917s-.568.258-.525 1.312m34.362 13.972c-1.864 1.494-1.852 1.512.309.465 1.238-.6 2.25-1.3 2.25-1.555 0-.765-.519-.544-2.559 1.09"/><path fill-opacity=".159" fill-rule="evenodd" d="M83.393 2.024C44.567 9.008 13.566 37.5 2.898 76 .872 83.311.545 86.737.558 100.5c.013 13.504.373 17.326 2.306 24.5 7.75 28.756 26.913 52.006 53.636 65.074 14.13 6.91 23.007 9.049 40 9.634 14.807.511 28.602-1.418 36.5-5.104 1.925-.898 2.6-1.363 1.5-1.033-12.681 3.805-17.959 4.632-31.5 4.935l-14.5.325 13.925-.77c13.679-.756 13.971-.821 16.516-3.665 1.615-1.806 4.844-3.595 8.575-4.753 23.96-7.435 45.071-25.487 56.301-48.143 3.783-7.633 8.183-20.081 8.183-23.153 0-.794 1.237-2.509 2.75-3.812l2.75-2.369-.013-14.807c-.007-8.792.274-13.193.693-10.833 2.241 12.631.114 34.064-4.696 47.314-1.315 3.623-2.231 6.747-2.035 6.942.66.66 4.664-11.135 6.191-18.236.833-3.875 1.93-8.428 2.438-10.117C201.34 108.227 201.275 88 200 88c-.55 0-1-1.053-1-2.34 0-6.914-9.09-32.341-11.114-31.089-.475.293-.567-.239-.205-1.183.483-1.256.304-1.497-.666-.898q-1.32.816-.613-.331c1.044-1.69-5.849-11.558-14.19-20.311-12.465-13.083-28.067-22.437-45.88-27.505-7.133-2.03-11.621-2.583-23.332-2.876-7.975-.199-16.798.051-19.607.557M89 9.063c-31.971 3.821-59.406 23.86-72.999 53.318-6.258 13.564-7.502 19.89-7.493 38.119.009 17.544 1.419 24.766 7.417 37.994 5.252 11.585 15.861 25.476 23.434 30.686l3.141 2.161-2.666-2.921-2.666-2.92 5.407-5.5c2.974-3.025 5.411-5.846 5.416-6.269s1.246-.513 2.759-.201c2.58.534 2.554.478-.425-.901-3.619-1.675-6.86-6.002-5.896-7.871a103 103 0 0 1 1.934-3.471c.949-1.635 1.066-4.038.449-9.207-.734-6.143-.591-7.394 1.173-10.287 1.104-1.811 2.009-4.321 2.011-5.578.004-1.989-.26-2.144-2.032-1.196-1.12.6-3.87 1.163-6.112 1.252-3.436.137-4.528-.344-6.964-3.07-7.175-8.03-.291-24.439 8.561-20.406 1.949.888 2.68.72 4.202-.962 1.451-1.604 2.712-1.94 5.919-1.578l4.076.459-1.014-3.798c-.558-2.089-1.33-3.603-1.717-3.364-.386.239-.686-.575-.665-1.809s-.216-3.913-.526-5.954c-.469-3.086-.036-4.433 2.57-8 1.723-2.359 3.15-4.964 3.17-5.789.053-2.192 8.006-2.577 11.118-.538C73.304 63.245 73.759 65 71.5 65c-.825 0-1.5.45-1.5 1s.787 1.007 1.75 1.015c1.473.013 1.516.164.273.95-1.001.633-2.009.452-3.127-.559-1.466-1.327-1.718-1.312-2.272.133-.925 2.409-.729 3.171.376 1.461.582-.901.975-1.025.985-.309.008.655-.435 1.469-.985 1.809-1.616.999-1.186 2.218 2.104 5.965 3.451 3.931 5.403 4.581 4.606 1.535-.287-1.1-.115-2 .384-2 .834 0 1.301 1.461 1.032 3.228-.061.401 1.235 1.425 2.881 2.276S81 83.453 81 83.944s.306 1.69.68 2.664c.447 1.166-1.476.26-5.619-2.646-3.465-2.43-6.519-4.991-6.787-5.69S68.358 77 67.834 77s-.677.445-.341.989c.358.579-.135.747-1.191.406-1.249-.403-1.035.054.698 1.49 1.375 1.139 1.934 2.081 1.242 2.093-1.737.03.616 3.802 2.729 4.375 1.19.323 1.141.441-.221.531-.963.064-1.75.552-1.75 1.085 0 1.17 3.208.11 4.224-1.396.398-.59-.277-1.85-1.5-2.801-1.223-.95-1.685-1.738-1.026-1.75 1.744-.032 6.065 4.283 5.609 5.601-.733 2.117 3.912 2.35 6.486.325 1.59-1.251 3.95-1.925 6.592-1.885 3.476.054 3.765.204 1.865.968C87.918 88.37 88.361 91 91.918 91c1.605 0 3.63.273 4.5.607 1.791.687 2.098 3.477.553 5.022-.705.705-.337 1.907 1.168 3.82l2.196 2.792-2.418-.727c-1.329-.4-3.216-1.692-4.193-2.87L91.949 97.5l.634 2.75c.57 2.471.363 2.75-2.034 2.75-3.482 0-2.294 1.971 1.26 2.09 2.492.084 2.432.172-.809 1.186-3.259 1.021-3.328 1.124-1 1.495 2.595.414 5.297 2.229 3.317 2.229-.596 0-1.326.926-1.622 2.057-.439 1.68-.279 1.843.871.888 1.559-1.294 6.434-.48 6.434 1.074 0 .54-.45.981-1 .981s-1-.436-1-.969-.675-.709-1.5-.393c-1.681.646-2.045 4.907-.5 5.862.55.34 1-.213 1-1.228 0-1.112.773-1.905 1.943-1.993 3.143-.237.971 4.145-2.247 4.532l-2.588.311 2.569 4.689c3.972 7.247 4.323 7.194 4.323-.65 0-5.9.241-7.015 1.301-6.024.886.827 1.167 3.075.88 7.039-.232 3.203-.011 5.824.49 5.824.502 0 2.126-2.475 3.61-5.5 2.462-5.02 2.537-5.5.863-5.5-1.921 0-5.144-2.929-5.144-4.674 0-1.72 3.537-4.326 5.873-4.326 1.554 0 2.127-.522 1.921-1.75-.211-1.258.48-1.839 2.456-2.066 1.684-.194 2.75.161 2.75.916 0 .678.236.998.524.71.287-.288.239-1.263-.107-2.167-.479-1.246-2.114-1.688-6.774-1.828l-6.143-.185 5.25-.367c2.888-.202 5.25-.794 5.25-1.315 0-.869-1.057-1.1-6.364-1.393-1.572-.087-1.885-.998-2-5.83l-.136-5.726h4.75L114 91l-2-2c-1.238-1.238-3.333-2-5.5-2-2.867 0-3.5.373-3.5 2.059 0 1.256-.434 1.791-1.112 1.372-.611-.378-1.504-.067-1.984.691-.621.98-.878.584-.889-1.372-.012-2.176-.485-2.753-2.265-2.765-1.67-.012-1.895-.241-.872-.889.803-.508 1.052-1.401.596-2.139-.476-.769-.379-1.016.246-.63 1.304.806 1.392-4.184.116-6.605-.515-.978-1.422-1.478-2.016-1.111-.637.394-.872.098-.575-.722.278-.764 1.066-1.258 1.753-1.098.78.182 1.014-.317.625-1.332-.343-.892-.623-2.036-.623-2.541 0-1.911-2.281-.793-5.269 2.582-1.705 1.925-3.558 3.5-4.118 3.5s.621-1.687 2.626-3.75l3.646-3.75-2.693-3.205c-2.028-2.415-3.679-3.299-6.692-3.582l-4-.377 4.25-.168c5.567-.22 5.952-2.869.5-3.44l-3.75-.392 3.731-.168c3.062-.138 3.842-.609 4.348-2.627.34-1.352 1.259-2.992 2.044-3.643 1.225-1.017 1.176-1.483-.348-3.291-1.749-2.077-1.745-2.082.281-.377 1.85 1.556 2.273 1.578 4.203.226 1.721-1.205 2.217-2.737 2.501-7.73l.355-6.226.192 6.25c.145 4.705.552 6.25 1.643 6.25 1.057 0 1.548-1.559 1.811-5.75l.361-5.75.189 5.775c.169 5.162.455 5.876 2.696 6.728 2.18.828 2.979.466 6.127-2.775l3.62-3.728-3.204 3.873c-2.265 2.737-2.892 4.185-2.14 4.937s1.874.35 3.827-1.37l2.763-2.433-2.645 2.997c-2.061 2.333-2.457 3.487-1.794 5.216 1.001 2.608 2.382 2.96 14.777 3.761 5.136.332 10.761.814 12.5 1.071s2.557.186 1.817-.157c-.963-.447-.133-1.861 2.915-4.967 2.344-2.388 4.741-4.045 5.327-3.682.587.362.062-.618-1.165-2.179-2.735-3.476-2.755-4.044-.232-6.567l2-2h-2.014c-1.107 0-2.84.517-3.851 1.148-1.499.936-2.236.751-3.987-1-1.181-1.181-2.148-2.625-2.148-3.207s-.52-.738-1.155-.346c-.656.406-.885.278-.529-.297.648-1.049-12.145-7.439-18.316-9.148-1.925-.533-2.723-1.01-1.773-1.06 2.425-.126 12.901 3.936 21.773 8.443 4.125 2.095 9.038 4.072 10.918 4.392 4.005.682 5.222 2.775 1.89 3.248-3.796.538-3.583 4.384.376 6.798 3.617 2.205 6.337 2.681 5.247.917-.378-.611-.067-1.504.691-1.984 1.112-.705 1.064-.876-.25-.889-2.748-.026-4.453-2.855-3.062-5.083 1.523-2.438 1.519-5.203-.01-6.732-1.799-1.799-6.549-1.46-7.72.55-.561.963-1.023 1.3-1.027.75s.864-2.125 1.931-3.5c1.93-2.488 1.929-2.509-.272-4.373l-2.212-1.873 2.5 1.519c1.375.835 2.368 2.24 2.206 3.122-.203 1.107.447 1.605 2.095 1.605 4.486 0 6.951 4.792 4.664 9.066-.714 1.333-.714 1.934 0 1.934.569 0 1.035-.64 1.035-1.423s1.112-2.746 2.472-4.361c1.36-1.616 2.147-3.303 1.75-3.749s1.078.44 3.278 1.968c3.182 2.21 2.773 1.615-2-2.911C143.103 15.079 114.933 5.963 89 9.063m-7 6.43c-3.575.718-8.525 2.097-11 3.066-4.78 1.871-17.718 9.176-18.504 10.447-.257.416.659 2.416 2.035 4.444s2.243 4.107 1.927 4.619c-1.04 1.682.611.98 5.334-2.27 2.558-1.76 8.039-4.679 12.18-6.487 4.14-1.808 6.919-3.293 6.175-3.3-1.853-.017-18.164 7.694-20.23 9.563-1.493 1.351-1.735 1.342-2.282-.084-.355-.924-.196-1.338.376-.984.544.336.989.187.989-.331 0-.519.9-1.178 2-1.466 1.247-.326 2.03-1.405 2.079-2.866.043-1.289.306-1.781.583-1.094.859 2.128 3.553 1.502 2.865-.666-.335-1.054-.14-2.205.432-2.559s1.041.059 1.041.916c0 2.487 2.986 1.825 3.118-.691.066-1.238.066-2.587 0-3-.265-1.684 1.794-.603 2.382 1.25.691 2.178 1.322 2.4 3.284 1.155.706-.448 1.009-1.532.673-2.408-.526-1.37 2.49-5.688 4.033-5.774.269-.015 1.056-.227 1.75-.471.693-.244 3.51-.857 6.26-1.361 3.223-.591 3.934-.924 2-.935-1.65-.01-5.925.569-9.5 1.287m5.667 1.174c-.915.914-.845 5.337.083 5.318 1.946-.04 3.124-1.751 2.596-3.771-.588-2.246-1.471-2.756-2.679-1.547M96 18.5c0 2.512 2.273 3.486 3.5 1.5.34-.55.141-1-.441-1S98 18.325 98 17.5s-.45-1.5-1-1.5-1 1.125-1 2.5m6 0c0 1.375.45 2.5 1 2.5s1-1.125 1-2.5-.45-2.5-1-2.5-1 1.125-1 2.5m5 0c0 1.824.535 2.5 1.979 2.5 1.747 0 1.845-.292.839-2.5-.626-1.375-1.517-2.5-1.979-2.5-.461 0-.839 1.125-.839 2.5m-23.857-.61c-.851.54-1.106 1.652-.683 2.985C83.451 23.996 85 23.463 85 20c0-3.341.031-3.306-1.857-2.11m30.524-.223c-1.604 1.604-.604 4.333 1.583 4.318 1.643-.011 1.884-.247.893-.875-.961-.609-1.029-1.062-.233-1.554.617-.382.864-1.113.547-1.625-.675-1.092-1.851-1.204-2.79-.264m8.713 3.785c-.613 1.599.258 3.548 1.585 3.548.466 0 .611-.907.321-2.015-.422-1.612-.17-1.878 1.258-1.33 1.224.47 1.557.317 1.061-.485-1.009-1.632-3.556-1.462-4.225.282m6 2c-.717 1.868.33 3.548 2.21 3.548 2.044 0 3.005-3.009 1.306-4.086-1.989-1.259-2.879-1.122-3.516.538m-32.13.237c1.074.281 1.795 1.492 1.866 3.134.074 1.716.281 2.044.576.915.253-.969.875-1.505 1.384-1.191s.924-.356.924-1.488c0-1.68-.598-2.038-3.25-1.943-1.787.064-2.463.322-1.5.573m6.5-.027c.688.278 1.813.278 2.5 0 .688-.277.125-.504-1.25-.504s-1.937.227-1.25.504m35.333-.297c.23.2 1.542.9 2.917 1.555 2.357 1.122 2.389 1.102.559-.365-1.593-1.276-4.848-2.391-3.476-1.19M129.5 25c-.34.55-.141 1 .441 1S131 25.55 131 25s-.198-1-.441-1-.719.45-1.059 1m5.083 1.643c-.837 2.182.275 3.196 1.456 1.328 1.183-1.87 1.208-2.971.068-2.971-.491 0-1.177.739-1.524 1.643m4.127 2.358c-.288 1.101-.154 1.773.298 1.494s1.05.058 1.33.749c.393.968.735.933 1.495-.156.679-.972.569-1.829-.352-2.75-1.785-1.785-2.154-1.696-2.771.663M47.2 34.2c-1.53 1.53-1.564 7.457-.049 8.394 1.859 1.148-2.129 3.45-4.81 2.777-1.285-.323-3.122-.285-4.082.083-1.565.601-1.499.856.634 2.465l2.38 1.796-2.674.671c-1.47.369-2.604 1.221-2.518 1.892.086.672.088 2.347.004 3.722l-.152 2.5-1.972-2.368c-1.62-1.945-2.239-2.146-3.467-1.127-1.971 1.636-1.898 4.891.161 7.166 1.54 1.702 1.54 1.829 0 1.829-2.259 0-2.185 4.592.095 5.92 1.667.971 1.667 1.021 0 1.05-2.605.045-2.115 2.906.719 4.198C34.242 76.431 33.918 78 30.885 78c-2.173 0-8.104 5.842-7.567 7.453.192.576 3.873.905 8.756.783 6.103-.153 7.806.052 6.176.744-1.237.526-2.25 1.42-2.25 1.988 0 .567 1.013 1.038 2.25 1.046 1.237.007 3.375.237 4.75.511 2.151.428 2.1.339-.363-.635-3.501-1.384-1.929-2.787 3.363-3.001l3.5-.142-3.75-1.05c-4.005-1.121-4.222-1.402-2.811-3.633.782-1.235 1.163-1.239 2.735-.03 1.004.773.701.126-.674-1.438l-2.5-2.844 2.5.731c1.375.402 3.175 1.375 4 2.16 1.333 1.271 1.333 1.545 0 2.469-1.333.925-1.333.995 0 .631 2.412-.658 1.736-3.003-1.5-5.203-2.32-1.577-2.928-2.664-2.684-4.79.422-3.662 1.425-3.471 5.233 1l3.194 3.75-1.872-3.345c-1.029-1.84-3.05-4.192-4.491-5.226s-2.967-3.354-3.39-5.155c-1.012-4.306-.825-3.807-2.856-7.617-.98-1.839-1.636-3.433-1.458-3.542.178-.11 2.574-.765 5.324-1.456s6.125-2.401 7.5-3.798l2.5-2.541-3.89 2.59C48.471 49.834 46.123 51 45.392 51c-1.642 0-.801-2.71 1.711-5.515 1.257-1.404 1.52-2.466.866-3.5-1.427-2.258-1.153-5.125.686-7.156 1.81-2.001.488-2.572-1.455-.629m41.568 1.414c-.873 1.494.776 4.702 2.553 4.963 2.137.313 2.091-.483-.2-3.463-1.009-1.312-2.068-1.987-2.353-1.5m18.868 1.582c-1.333 2.001-1.535 3.162-.786 4.5.906 1.619 1.123 1.505 2.12-1.117 1.716-4.514.862-6.681-1.334-3.383m10.277.894c-2.495 2.198-2.775 2.699-1.042 1.859 2.591-1.255 2.413-.436-.773 3.551l-1.598 2 2.358-2c3.347-2.839 6.333-7.264 5.323-7.888-.471-.291-2.392.824-4.268 2.478M77 36.949c0 .561 1.409 2.489 3.13 4.285 1.722 1.796 2.558 2.468 1.858 1.492-2.085-2.906-.477-2.994 3.136-.172 2.508 1.957 2.347 1.688-.624-1.047-4.719-4.343-7.5-6.034-7.5-4.558m-28.457 2.982c-.317.512-.118 1.213.441 1.559S50 41.416 50 40.559c0-1.757-.6-2.015-1.457-.628m123.897 5.766c2.3 3.384 2.38 3.845.942 5.433-.863.954-2.208 1.49-2.989 1.191-.78-.3-2.017-.048-2.748.558s-1.529.904-1.773.66-.443.477-.443 1.603c0 2.001.04 1.997 1.791-.165 1.469-1.814 2.061-1.989 3.286-.972 1.662 1.379 1.939 4.743.569 6.907-.58.916-.399 1.907.516 2.822 1.926 1.926 1.78 2.841-.841 5.289-1.666 1.555-1.795 1.927-.5 1.432 2.502-.956 2.293 2.189-.25 3.777-1.1.687-2 1.891-2 2.675 0 .785.263 1.163.585.841.322-.321 1.835-.149 3.362.383 2.376.829 3.391 2.062 5.854 7.119.201.412-3.159.786-7.468.829-4.308.043-7.27.306-6.583.583.688.278 1.25.872 1.25 1.322 0 1.03-9.893 3.456-10.721 2.629-.337-.337-.117-.613.489-.613s2.369-.496 3.917-1.103l2.815-1.103-2.395-.918c-1.317-.505-3.23-.654-4.25-.33s-1.855.165-1.855-.354c0-.518 1.313-1.205 2.917-1.525 2.353-.471 2.813-.985 2.375-2.658-.506-1.934-.702-1.97-2.882-.542-2.519 1.651-5.41 2.038-5.41.724 0-1.476 2.46-3.956 5.5-5.544 1.65-.862 2.385-1.585 1.633-1.607-.912-.027-1.207-.87-.888-2.54.629-3.293-.74-3.159-4.322.423-1.608 1.608-2.923 2.529-2.923 2.048s1.524-2.359 3.387-4.173 4.06-4.913 4.882-6.887l1.494-3.588-2.631.473c-3.191.573-5.132 1.996-5.132 3.761 0 .722-.464 2.534-1.032 4.026-.994 2.617-1.085 2.646-2.555.815-1.48-1.844-1.497-1.841-.586.102.516 1.1.816 3.575.668 5.5s-.32 4.764-.382 6.309c-.064 1.596-.545 2.542-1.113 2.191-.55-.34-1 .272-1 1.359 0 1.088-.272 2.687-.605 3.555-.501 1.305-.057 1.468 2.567.944 2.328-.466 3.891-.104 5.873 1.362 1.963 1.451 3.312 1.77 4.942 1.167 2.953-1.093 6.457.323 9.092 3.673 3.175 4.037 3.02 13.188-.284 16.754-3.057 3.299-6.92 4.277-11.775 2.981-3.258-.87-3.809-.784-3.804.594.004.886.746 2.961 1.65 4.611 1.112 2.03 1.676 5.633 1.744 11.144.081 6.603.472 8.556 2.067 10.318 1.806 1.997 1.844 2.394.464 4.856-1.898 3.386-4.976 4.825-11.931 5.579-3.733.404-4.858.298-3.5-.33 3.008-1.393-5-1.372-8.929.024-3.279 1.164-9.205-.257-8.155-1.955.695-1.124-2.25-3.696-5.298-4.627-1.748-.534-2.031-.944-1.065-1.542.914-.565.297-1.078-2.017-1.678-1.995-.517-3.654-1.727-4.129-3.012-.781-2.109-.722-2.123 3.208-.736 2.201.776 7.014 2.96 10.694 4.853s7.725 3.741 8.989 4.106c2.288.662 5.202-.847 5.202-2.694 0-.522-.707-.242-1.571.623-2.015 2.014-3.429 2.005-3.429-.023 0-.876.941-1.839 2.091-2.14 1.754-.459 1.391-.85-2.25-2.431-2.472-1.073-4.842-2.958-5.505-4.376l-1.163-2.491 2.99 2.516c1.645 1.384 3.518 2.55 4.164 2.593.645.042 2.073.248 3.173.459 2.643.506 9.5-1.352 9.5-2.575 0-.528-.466-.961-1.035-.961-.66 0-.711-.634-.141-1.75.492-.963 1.151-3.11 1.465-4.772.486-2.58.141-3.269-2.36-4.704-1.611-.924-2.929-2.307-2.929-3.073 0-.765-.965-2.248-2.145-3.296-2.142-1.901-2.145-1.9-1.635.869.405 2.192-.105 3.293-2.431 5.25-1.618 1.362-3.812 2.476-4.874 2.476-1.673 0-1.767.264-.699 1.975.918 1.47.944 2.265.102 3.107s-1.091.656-.975-.725c.117-1.383-.482-1.827-2.343-1.74-2.315.108-3.948-1.067-3.985-2.867-.008-.412 1.531-.75 3.42-.75 3.871 0 8.693-1.589 9.682-3.19 1.041-1.684-.209-9.196-1.734-10.42-1.97-1.582-1.71-2.288.617-1.68 2.393.626 2.609-.958.429-3.139-1.814-1.813-4.72-2.021-7.495-.536-2.646 1.417-2.444 2.853 1.173 8.312 2.557 3.862 2.886 4.957 1.859 6.194-.742.894-2.033 1.255-3.181.891-1.698-.539-7.785 1.175-7.785 2.193 0 .21.889 2.041 1.976 4.069 1.911 3.566 1.886 6.259-.03 3.277-.831-1.292-1.063-1.29-1.904.021-.764 1.188-1.212 1.238-2.2.25-1.732-1.732-7.339-1.553-8.862.282-.696.838-.98 1.81-.631 2.158.348.349.231 1.125-.26 1.726-1.527 1.866-1.65 5.211-.253 6.895 1.83 2.204.609 4.005-1.831 2.7-2.745-1.469-8.332-1.223-10.564.465-1.886 1.427-1.795 1.645.795 1.907.68.069 1.399.966 1.596 1.993.224 1.161-.055 1.612-.736 1.191-.603-.372-1.096-.254-1.096.264s1.912.967 4.25.998 6.725 1.175 9.75 2.544 6.4 2.776 7.5 3.128c1.871.6 1.886.706.229 1.636-1.351.758-3.039.268-7.122-2.068-3.121-1.785-6.758-3.052-8.729-3.039-3.714.024-9.867 2.697-14.108 6.129-2.423 1.962-3.007 2.06-5.215.878-2.036-1.089-2.769-1.096-4.045-.037-.857.711-1.814 1.037-2.127.724s.935-1.349 2.774-2.303c2.018-1.048 2.813-1.914 2.005-2.187-.735-.248-1.838.05-2.449.661-.612.612-1.811 1.099-2.663 1.081-1.304-.027-1.273-.242.2-1.36 2.812-2.135 2.12-3.971-.719-1.905-5.322 3.874-1.505 7.188 11.193 9.715 4.05.806 5.569 1.39 3.776 1.451-2.763.093-12.253-1.809-17-3.408-1.1-.371-.572.246 1.173 1.371 2.403 1.549 3.038 2.558 2.618 4.163-.349 1.335-1.09 1.912-2.004 1.562-.798-.307-1.913-.557-2.477-.557-.595 0-.782-1.158-.445-2.75.549-2.596.519-2.624-.544-.5-.62 1.238-2.07 2.268-3.224 2.291-4.315.085 9.59 4.992 18.596 6.563 15.116 2.637 31.52.479 44.768-5.889 3.004-1.444 5.663-2.425 5.908-2.179.727.727-11.964 6.164-18.927 8.109-10.095 2.819-31.557 2.563-44.138-.526-5.333-1.31-10.923-3.123-12.421-4.029-2.692-1.629-2.766-1.602-6.431 2.327l-3.707 3.974-2.872-1.755-2.873-1.755 2.5 2.173c1.375 1.195 5.444 3.655 9.042 5.467 29.346 14.779 65.165 12.604 92.095-5.593 26.088-17.627 40.946-45.062 40.946-75.607 0-20.478-5.1-36.634-16.753-53.071-4.719-6.656-7.118-8.775-2.89-2.553M83 45.313c0 .172 1.463 1.635 3.25 3.25L89.5 51.5l-2.937-3.25C83.825 45.221 83 44.54 83 45.313m-6 5.473c0 1.554 2.988 2.324 4.836 1.246 1.551-.905 1.551-.973-.004-1.002-.918-.016-2.38-.303-3.25-.637S77 50.236 77 50.786m41.5.214c-1.65.42-2.186.817-1.191.882s1.531.568 1.191 1.118c-.793 1.284.125 1.271 2.566-.035 1.064-.57 1.934-1.47 1.934-2 0-1.065-.182-1.064-4.5.035m-23.045 2.455c-3 2.999-3.132 6.415-.382 9.91C99.242 68.666 108 65.248 108 58.32c0-3.18-4.242-7.32-7.5-7.32-1.425 0-3.695 1.105-5.045 2.455M113 58.864c0 1.827 15.689 2.74 21 1.222 1.867-.533.727-.886-4.5-1.393-9.623-.933-16.5-.862-16.5.171m28.862 2.662c-.392 1.426.212 2.59 2.04 3.931 2.564 1.881 2.576 1.88.951-.026-.905-1.062-1.824-2.831-2.04-3.931-.391-1.986-.398-1.985-.951.026m-29.646 1.319c-.79.502-1.004 1.553-.556 2.735.83 2.193 7.289 11.42 7.993 11.42.256 0 .187-.45-.153-1-.529-.856.579-1.371 2.551-1.185.303.029 1.081-.797 1.729-1.835 1.069-1.711.621-2.091-4.8-4.068-3.289-1.199-5.98-2.333-5.98-2.521s1.463-.102 3.25.189l3.25.531-2.75-1.587c-4.189-2.418-3.278-2.834 1.201-.549l3.951 2.016 3.549-2.095c1.952-1.151 3.549-2.274 3.549-2.495 0-.773-15.513-.362-16.784.444m13.536 2.996c-1.512.913-2.749 1.997-2.75 2.409-.002.713.341.833 3.234 1.125 2.267.229 1.966 3.339-.381 3.953-2.064.539-2.118.729-.679 2.379.86.986 1.76 2.432 2 3.213.314 1.018 1.482.406 4.131-2.167 3.846-3.734 4.44-5.173 2.606-6.307-.598-.369-.848-1.586-.556-2.703.399-1.525.246-1.746-.613-.887-.629.629-1.841 1.13-2.694 1.112-1.292-.026-1.254-.256.229-1.382 1.599-1.212 1.616-1.412.169-1.968-.887-.34-1.687-.577-1.78-.527-.092.051-1.405.838-2.916 1.75m-63.186 1.112c-1.428.519-1.601.907-.662 1.487.698.432 1.764.292 2.366-.31 1.476-1.476.664-2.036-1.704-1.177M77 68.194l-3.5 1.962 3.5-.695c4.016-.797 4.339-.988 3.854-2.282-.195-.521-1.929-.064-3.854 1.015m31.347-.657c-.324.846.253 2.498 1.282 3.672s1.239 1.763.466 1.308c-.976-.574-1.174-.454-.649.395.415.672 1.011.965 1.324.651s1.619.117 2.9.957c3.155 2.067 2.929.607-.676-4.37-3.326-4.591-3.788-4.851-4.647-2.613m27.841-.474c.24.721 1.028 1.509 1.75 1.75.75.25 1.125-.125.875-.875-.241-.722-1.029-1.51-1.75-1.75-.75-.25-1.125.125-.875.875M39.921 70.36c1.331 1.448 2.614 2.439 2.85 2.203.717-.718-.756-2.487-3.077-3.693-2.092-1.088-2.081-1.019.227 1.49M134 68.734c0 .3.787 1.149 1.75 1.887 1.432 1.097 1.502 1.504.387 2.239-1.149.757-1.149.969-.003 1.351.911.304.535.885-1.137 1.757-1.373.717-3.229 2.03-4.124 2.918-5.417 5.373-14.464 10.941-11.004 6.771 1.035-1.246-2.444-2.522-11.561-4.238-.655-.124-2.005.398-3 1.159-1.514 1.159-1.578 1.535-.394 2.313.778.512 2.896.69 4.706.396 2.257-.366 4.596.145 7.436 1.625 2.446 1.275 4.952 1.903 6.119 1.533 1.087-.345 1.723-.881 1.413-1.19-.309-.31.818-1.882 2.506-3.495 1.687-1.612 3.342-2.658 3.676-2.323s-.397 1.314-1.628 2.176c-1.774 1.243-1.995 1.859-1.067 2.977 1.71 2.061 5.213 1.723 7.29-.703 1.795-2.096 3.18-7.948 1.835-7.752-2.574.374-2.785-.459-.655-2.59 3.107-3.106 3.093-4.742-.053-6.201-1.371-.636-2.492-.91-2.492-.61m25.872 1.016c-1.243 1.586-1.208 1.621.378.378.963-.755 1.75-1.543 1.75-1.75 0-.823-.821-.294-2.128 1.372m-55.111 1.72c-.26 1.358-.11 2.245.333 1.972s1.27.37 1.838 1.432c.884 1.65.746 1.854-.949 1.411-1.662-.434-1.983-.017-1.983 2.577 0 2.892.156 3.024 2.366 2.017 2.041-.93 2.325-1.677 2.072-5.456-.161-2.408-.577-4.838-.924-5.401-1.081-1.749-2.26-1.128-2.753 1.448M62 71.277c0 1.862 2.915 5.726 4.307 5.708.72-.01.598-.4-.307-.985-.825-.533-1.107-.976-.628-.985.48-.008.329-.67-.336-1.471-.664-.801-.918-1.926-.563-2.5S64.416 70 63.559 70 62 70.575 62 71.277m21.533 3.459c-2.322 3.418-2.389 3.795-.786 4.43.964.381 2.751.725 3.972.764 1.689.053 2.063-.336 1.566-1.629-.408-1.063-.802-1.251-1.052-.5-.22.659-1.127 1.199-2.016 1.199-1.195 0-1.324-.293-.495-1.122.617-.617.882-1.748.588-2.513s.022-2.06.701-2.878.97-1.487.647-1.487-1.728 1.681-3.125 3.736m15.288-2.034c-.24.989-.251 3.959-.024 6.601.326 3.795.758 4.737 2.058 4.486 2.391-.46 2.413-12.114.024-12.574-.906-.174-1.813.481-2.058 1.487M73 72.383c0 .211.9.619 2 .907 1.1.287 2 .115 2-.384 0-.498-.9-.906-2-.906s-2 .173-2 .383m18.398.781C90.316 74.916 90.106 80 91.116 80c.968 0 .981-.045 1.377-4.75.292-3.476.05-3.937-1.095-2.086m47.943 1.031c-.567 1.268-.837 3.905-.599 5.861.296 2.44-.066 3.968-1.155 4.872-2.002 1.661-2.012 2.695-.035 3.454.964.37 1.298.185.882-.489-.629-1.017-.069-2.681 3.025-8.991.991-2.022 1.012-3.088.093-4.805l-1.181-2.207zm-79.952.551c-.761 1.205-.695 2.383.234 4.213.71 1.398 1.87 4.004 2.578 5.791S63.855 88 64.303 88s.556-.419.24-.931a1.086 1.086 0 0 1 .336-1.494c.501-.31 1.18.137 1.509.994s1.08 1.26 1.67.895c.711-.439.511-1.283-.591-2.5-.915-1.011-1.384-2.289-1.044-2.84.341-.55.029-1.366-.692-1.813s-2.206-2.257-3.299-4.024c-1.746-2.823-2.117-3.01-3.043-1.541m135.69.837c.048 1.165.285 1.402.604.605.289-.722.253-1.585-.079-1.917s-.568.258-.525 1.312M110.638 77.5c.317.825.753 1.5.969 1.5s.393-.675.393-1.5-.436-1.5-.969-1.5-.709.675-.393 1.5m42.223 2.467c-1.299 1.081-1.848 1.981-1.222 2s2.202-.852 3.5-1.934 1.848-1.981 1.222-2-2.202.852-3.5 1.934m43.297.033c0 1.375.227 1.938.504 1.25.278-.687.278-1.812 0-2.5-.277-.687-.504-.125-.504 1.25M62 81.274c0 1.435.387 2.847.859 3.139.473.292.733-.621.579-2.029-.385-3.508-1.438-4.32-1.438-1.11m71.356-1.042c-1.014 1.641-1.208 4.768-.296 4.768.399 0 .985-.675 1.302-1.5.316-.825.053-1.5-.585-1.5-.637 0-.286-.661.782-1.468 1.067-.808 1.405-1.483.75-1.5-.655-.018-1.534.523-1.953 1.2m-8.106 8.481c-2.002.726-1.259 7.287.826 7.287.473 0 .602-.675.286-1.5-.317-.825-.078-1.5.531-1.5s1.107.896 1.107 1.992c0 1.095.9 2.553 2 3.24s2 1.643 2 2.124-1.125.137-2.5-.764c-2.8-1.835-3.214-1.057-1.069 2.007.788 1.124 3.255 2.59 5.484 3.257 4.339 1.3 5.427 2.664 6.46 8.096.592 3.118 4.024 8.048 5.602 8.048.345 0 .042-3.937-.675-8.75-1.315-8.839-1.206-13.903.206-9.511.396 1.231 1.075 2.018 1.511 1.75.435-.269.572 1.198.306 3.261-.267 2.062-.055 4.875.471 6.25.742 1.939.903 1.058.716-3.922-.184-4.905-.727-6.927-2.301-8.563-1.326-1.377-1.764-2.621-1.228-3.487.457-.741.631-1.87.386-2.509-.246-.64.765-1.714 2.244-2.389 1.871-.852 2.373-1.544 1.646-2.271-.726-.726-1.701-.693-3.2.109-2.443 1.308-4.778 6.292-3.194 6.82 1.136.379-.576 6.212-1.823 6.212-.419 0-.635-1.774-.481-3.943.179-2.509-.244-4.379-1.163-5.141-1.192-.99-1.329-.869-.787.693.405 1.166-.449.649-2.227-1.35-2.993-3.362-8.959-6.335-11.134-5.546M.382 100.5c.002 6.6.164 9.17.359 5.711.196-3.459.195-8.859-.003-12S.38 93.9.382 100.5m63.225-9.918c-.941 2.453-.734 2.769.917 1.398 2.433-2.019 2.886-.336.577 2.142C63.945 95.363 63 96.742 63 97.189c0 .446-.466.811-1.035.811-.665 0-.607-.804.164-2.25 1.111-2.085 1.069-2.143-.572-.789-1.357 1.12-1.657 2.456-1.288 5.732.496 4.404-.728 4.934-2.208.955-.607-1.632-.976-.631-1.535 4.163-.405 3.472-.464 6.584-.131 6.917s.605-.407.605-1.645c0-1.367.491-2.078 1.25-1.811 1.816.636 1.014 5.725-1.453 9.228l-2.114 3 2.589-2.359c1.528-1.392 2.858-3.952 3.246-6.246.694-4.109 4.312-7.895 7.544-7.895 1.801 0 5.938-4.383 5.938-6.29 0-.561-.903-.203-2.006.796-1.104.998-2.231 1.59-2.506 1.315s.402-1.317 1.506-2.315C72.097 97.507 73 95.86 73 94.845S73.48 93 74.067 93c.613 0 .797.853.433 2-.954 3.007.385 2.404 1.668-.75 1.09-2.682 1.147-2.613 2.298 2.75 2.719 12.667 8.736 26.313 17.251 39.118 4.615 6.94 6.543 8.252 7.699 5.241.527-1.373.38-1.435-.893-.378-2.79 2.316-1.569-.563 1.477-3.481 1.65-1.581 3-3.247 3-3.703s-1.301.628-2.892 2.408l-2.892 3.237-2.858-3.084c-5.337-5.758-14.569-26.427-18.31-40.989-1.257-4.894-5.331-7.358-8.957-5.418-1.465.784-2.67.809-4.025.084-2.531-1.354-2.742-1.321-3.459.547M134 89.686c0 .458.938 1.419 2.085 2.135 1.839 1.148 2.044 1.09 1.739-.498-.341-1.771-3.824-3.262-3.824-1.637M51 91.64c0 .352.788 1.231 1.75 1.954 1.512 1.136 1.218 1.232-2.167.702-3.886-.607-3.905-.594-2.361 1.611 1.802 2.573 1.302 5.707-1.388 8.688-1.106 1.225-1.627 2.781-1.255 3.75.734 1.914.066 2.071-2.645.62-2.192-1.174-2.553-4.207-.684-5.758.688-.57 1.209-2.538 1.16-4.372-.077-2.818-.494-3.383-2.693-3.646-2.04-.244-2.939.34-4.16 2.7-2.23 4.314-2.016 10.652.443 13.111 3.672 3.672 11.135 1.581 12.405-3.476.327-1.303 1.731-3.721 3.121-5.372 1.52-1.807 2.117-3.254 1.5-3.636-1.439-.889-1.276-2.206.35-2.83.851-.327 1.327.109 1.25 1.143-.069.919.549 1.671 1.374 1.671 2.023 0 1.5-4.598-.71-6.25-1.748-1.306-5.29-1.715-5.29-.61m58.598 1.096c-.329.328-.598 1.252-.598 2.053 0 1.181.283 1.221 1.5.211 1.271-1.055 1.5-.827 1.5 1.5s-.229 2.555-1.5 1.5c-1.256-1.042-1.5-.888-1.5.951 0 1.551.514 2.098 1.75 1.864 2.297-.435 3.057-7.291.901-8.119-.801-.307-1.724-.289-2.053.04M92.638 94.5c-.316.825-.139 1.5.393 1.5.533 0 .969-.675.969-1.5s-.177-1.5-.393-1.5-.652.675-.969 1.5m55.279-.25c-.818 2.454-.139 5.808 1.737 8.572 1.29 1.901 2.346 4.018 2.346 4.703 0 1.785 4.487 4.475 7.465 4.475 5.701 0 8.418-7.459 5.072-13.928-1.719-3.325-4.05-4.46-6.373-3.104-1.011.59-1.166.983-.395 1.002.853.02 1.062.854.638 2.543-.36 1.434-.105 3.146.593 3.987 1.827 2.202.421 6.5-2.126 6.5-1.524 0-1.918-.443-1.459-1.64.392-1.02-.105-2.155-1.313-3.001-2.48-1.737-3.69-6.945-2.068-8.9 1.009-1.216.773-1.459-1.412-1.459-1.442 0-2.659.112-2.705.25m-72.465 5c-.375 1.237-1.554 3.204-2.619 4.37-1.921 2.102-1.919 2.124.255 2.693 1.891.494 2.113 1.063 1.613 4.14-.318 1.961-1.555 4.938-2.749 6.614-2.497 3.507-2.066 4.34 2.367 4.567 4.166.213 6.915-1.297 6.271-3.445-.279-.929-.744-4.316-1.034-7.527C79.035 104.88 77.289 97 76.529 97c-.217 0-.701 1.013-1.077 2.25M126 102.378c0 .207.787.995 1.75 1.75 1.586 1.243 1.621 1.208.378-.378-1.307-1.666-2.128-2.195-2.128-1.372m-.8 3.822c-.66.66-1.2 1.596-1.2 2.079 0 1.776-5.336 14.244-6.401 14.956-.648.433-.278.728.901.718 1.1-.009 2.874-.677 3.941-1.485 1.068-.807 3.179-1.468 4.691-1.468 3.711 0 4.507-1.689 2.039-4.324-3.035-3.24-4.38-7.418-3.136-9.741 1.185-2.214.897-2.467-.835-.735m-59.297 1.161c-1.312.654-2.543 2.009-2.736 3.011-.288 1.496.066 1.689 1.983 1.08 2.105-.668 2.197-.574.932.949-.771.93-2.005 1.459-2.742 1.176s-1.34.124-1.34.904c0 2.068-5.812 10.348-8.138 11.593-1.609.861-1.86 1.675-1.311 4.246.374 1.749 1.094 3.695 1.6 4.325.505.629.791 1.754.634 2.5-.206.978 1.2 1.44 5.058 1.66 3.035.174 5.101-.087 4.781-.604-.67-1.085 3.754-5.49 4.632-4.611.335.334.375-.286.089-1.378-.286-1.093-.03-2.289.568-2.658.656-.406 1.087.193 1.087 1.509 0 1.911.204 2.013 1.644.817 1.472-1.221 1.564-1.103.878 1.128-.422 1.371-1.274 3.139-1.894 3.929-.91 1.159-.789 1.31.622.782 2.436-.913 2.191-.026-.371 1.346-1.648.882-1.951.861-1.36-.095.495-.801.276-1.054-.63-.725-.764.278-1.279 1.003-1.145 1.612s-.921 1.4-2.345 1.758c-1.925.483-2.244.872-1.244 1.517 1.108.715 1.081 1.042-.155 1.853-.825.541-.993.991-.372 1 .62.008 1.687-.66 2.372-1.485 1.423-1.714 3-1.977 3-.5 0 .55-.675 1-1.5 1s-1.5.465-1.5 1.032c0 .568-1.013 1.439-2.25 1.937l-2.25.904 2.201.064c1.211.034 6.477-2.187 11.702-4.937 9.2-4.841 14.186-6.266 13.37-3.819-.217.65-1.942 1.74-3.833 2.424-2.328.841-2.793 1.275-1.44 1.341 1.371.067.742.67-2 1.917-2.2 1.001-4.675 2.645-5.5 3.653-1.444 1.765-1.403 1.77 1.127.124 4.798-3.121 8.848-3.768 11.986-1.914 3.034 1.792 5.434.885 2.799-1.058-1.44-1.062-1.432-1.328.095-2.928 1.452-1.522 1.521-2.38.51-6.362-1.424-5.609-3.247-6.823-8.197-5.456-2.326.642-4.108.669-4.827.072-.732-.607-1.562-.525-2.317.23-2.11 2.11-1.312-.848.908-3.363 1.562-1.77 1.942-1.914 1.517-.573-.781 2.461 2.134 3.405 4.184 1.356 1.849-1.85.628-3.863-2.5-4.12-.982-.081-2.768-.682-3.969-1.335-1.202-.654-3.741-1.189-5.643-1.189-4.723 0-5.418-2.317-2.121-7.075 1.436-2.072 2.46-4.762 2.278-5.986-.424-2.855-3.829-4.123-6.927-2.578m127.349 4.139c.011 2.2.216 2.982.455 1.738s.23-3.044-.02-4-.446.062-.435 2.262M86.568 111c1.043 3.711 5.238 13 5.871 13 1.366 0-.624-5.441-4.208-11.5-1.547-2.615-2.122-3.135-1.663-1.5m27.148 2.207c-.293.711-1.692 3.881-3.111 7.043s-2.332 5.75-2.03 5.75c.771 0 6.64-13.118 6.107-13.651-.239-.239-.674.147-.966.858m-3.716.533c0 .59-.9.837-2 .55-1.624-.425-2-.031-2 2.093 0 3.472 2.73 3.457 4.053-.022.552-1.451.765-2.876.475-3.166s-.528-.045-.528.545m-47.424 5.509c-.797 4.988.488 6.483 7.527 8.751 2.419.779 4.637 1.755 4.931 2.168s1.061-.09 1.704-1.12c1.072-1.717.736-1.93-4.034-2.556-7.83-1.027-9.642-2.532-8.982-7.456.722-5.384-.281-5.198-1.146.213M78 122.393c0 .216.698.661 1.552.989.89.341 1.291.173.941-.393-.587-.951-2.493-1.406-2.493-.596m38.126 3.955c-1.812 2.183 1.898 4.969 4.977 3.737 1.318-.527 1.887-.987 1.264-1.022-.624-.034-1.369-.963-1.657-2.063-.6-2.296-2.943-2.629-4.584-.652M127.5 132c.34.55.816 1 1.059 1s.441-.45.441-1-.477-1-1.059-1-.781.45-.441 1m-13.5 3c0 1.111.667 2 1.5 2s1.5-.889 1.5-2-.667-2-1.5-2-1.5.889-1.5 2m-44.128.75c-1.243 1.586-1.208 1.621.378.378.963-.755 1.75-1.543 1.75-1.75 0-.823-.821-.294-2.128 1.372m13.143-1c.009.412.44 1.421.959 2.242.713 1.127 1.225 1.209 2.097.337.635-.635.852-1.644.483-2.242-.757-1.225-3.562-1.492-3.539-.337m37.454 2.3c-.95 1.538.351 2.53 1.635 1.246.718-.718.735-1.277.052-1.699-.56-.346-1.319-.142-1.687.453m-42.319.9c.22.66.726 1.166 1.125 1.125 1.196-.124.964-1.495-.325-1.925-.66-.22-1.02.14-.8.8m47.424 1.717c-.973 2.536 1.044 3.915 2.298 1.572 1.011-1.889.623-3.239-.932-3.239-.399 0-1.014.75-1.366 1.667m-52.467.267c-1.012.625-1.074 1.285-.254 2.697.627 1.079 1.099 1.316 1.117.56.016-.72.48-1.031 1.03-.691 1.177.727 1.292-.492.208-2.197-.454-.714-1.302-.863-2.101-.369m57.587 2.705c-.799.799.104 2.361 1.365 2.361.518 0 .941-.675.941-1.5 0-1.546-1.18-1.987-2.306-.861m58.87 1.068c-.542 1.425-.428 1.54.56.56.684-.679.991-1.486.683-1.793-.308-.308-.867.247-1.243 1.233m-66.596.793c1.995 2.783 4.179 4.5 5.723 4.5 2.15 0 1.482-1.813-.941-2.551-1.237-.377-3.142-1.42-4.233-2.317-1.898-1.562-1.921-1.546-.549.368M93.5 145c-.34.55-.168 1 .382 1s1.278-.45 1.618-1 .168-1-.382-1-1.278.45-1.618 1m18.703 1.854c-1.034.656-.979 1.087.274 2.127.864.717 1.86 1.015 2.214.662.353-.354.069-.643-.631-.643-.722 0-1.024-.651-.698-1.5.661-1.724.597-1.76-1.159-.646m8.356 1.614c1.067.808 2.391 1.468 2.941 1.468s.126-.66-.941-1.468c-1.068-.807-2.391-1.468-2.941-1.468s-.127.661.941 1.468m-40.577 1.891c-1.915 1.297-4.568 2.701-5.895 3.119-2.227.702-2.272.839-.589 1.781 1.391.778 2.121.614 3.076-.691.688-.941 3.319-2.333 5.846-3.094s5.379-1.84 6.337-2.398c1.42-.827 1.09-1.021-1.775-1.046-2.087-.018-4.934.929-7 2.329m102.488 5.253c-6.084 9.319-20.869 23.643-29.301 28.388-8.063 4.538-10.915 6.694-5.169 3.908 13.407-6.5 32.141-24.635 38.902-37.658 2.224-4.283.516-2.217-4.432 5.362M101 150.5c0 .825.45 1.5 1 1.5s1-.675 1-1.5-.45-1.5-1-1.5-1 .675-1 1.5m4.431-.388c-.378.611-.067 1.504.691 1.984 2.043 1.295 2.449 1.113 2.449-1.096 0-2.147-2.01-2.716-3.14-.888M93.71 152c-.287 1.1-.115 2 .384 2 .498 0 .906-.9.906-2s-.173-2-.383-2-.619.9-.907 2m-33.21 1.122c4.221.973 6.69 3.219 5.874 5.346-.269.701.229 1.549 1.106 1.886 1.783.684 3.054-1.521 2.183-3.789-.303-.79-.013-1.656.643-1.924 2.658-1.088-2.039-2.607-7.806-2.525-5.951.084-5.967.092-2 1.006m51.5-.181c0 .518.45 1.219 1 1.559s1-.084 1-.941-.45-1.559-1-1.559-1 .423-1 .941m8.622 1.514c-2.013 3.071-2.027 3.03 1.378 4.033 2.044.602 2.272.497 1.25-.576-2.074-2.177-1.52-4.182.576-2.086 2.397 2.397 3.439 5.174 1.943 5.174-.889 0-.888.281.004 1.173 1.718 1.718 6.227-.555 6.227-3.14 0-1.562-.867-2.148-3.897-2.632-2.552-.409-4.208-1.321-4.798-2.644-.867-1.942-.972-1.914-2.683.698m-68.115 3.534c-.35.566.051.734.941.393 1.732-.665 2.049-1.382.611-1.382-.518 0-1.216.445-1.552.989m42.743.986c-2.881 2.363-2.846 3.796.124 5.149 1.726.787 2.958.769 4.52-.067 1.181-.632 2.701-.87 3.377-.529s.509.024-.37-.704c-.88-.728-1.555-1.719-1.5-2.202s-.801-1.466-1.901-2.185c-1.704-1.114-2.333-1.035-4.25.538m1.293 1.956c-.317.512-.118 1.213.441 1.559 1.193.737 3.016-.199 3.016-1.549 0-1.217-2.707-1.225-3.457-.01m25.19.193c.679.684 1.486.991 1.793.683.308-.308-.247-.867-1.233-1.243-1.425-.542-1.54-.428-.56.56m19.467.076c-.66.66-1.2 1.646-1.2 2.191s.563.268 1.25-.616c.688-.883 2.15-1.817 3.25-2.075 1.957-.458 1.956-.47-.05-.584-1.128-.064-2.59.424-3.25 1.084m5.307.789c-.35.566.051.734.941.393 1.732-.665 2.049-1.382.611-1.382-.518 0-1.216.445-1.552.989M124 166.839c0 .462 1.125 1.353 2.5 1.979 2.938 1.339 3.44-.244.566-1.783-2.345-1.254-3.066-1.301-3.066-.196m-44 3.554c0 1.316.739 2.677 1.643 3.024 2.158.827 3.21-.272 1.356-1.418-1.216-.751-1.172-.995.279-1.552 2.553-.98 2.086-2.447-.778-2.447-1.97 0-2.5.507-2.5 2.393m40.393-.811c.334.87.607 2.021.607 2.559 0 .537.408.725.906.417 1.149-.71.195-4.558-1.13-4.558-.544 0-.717.712-.383 1.582m-33.726.085c-1.264 1.263-.663 4.12 1 4.759 1.834.703 4.138-.954 2.962-2.13-.406-.406-1.187-.076-1.737.733-.803 1.181-.928 1.077-.636-.529.199-1.1.932-1.876 1.628-1.725s.98-.187.631-.75c-.717-1.161-2.848-1.359-3.848-.358m26.697.826c-.346.903-.15 2.121.436 2.707 1.524 1.524 4.41.131 4.012-1.935-.443-2.302-3.647-2.858-4.448-.772m-19.349.757c.021 1.673 1.744 4.324 2.391 3.677.775-.774-.508-4.927-1.523-4.927-.485 0-.876.563-.868 1.25M99 172.393c0 2.575 2.495 4.234 3.622 2.409.416-.673.232-.83-.467-.397-.758.468-1.155-.166-1.155-1.846 0-1.407-.45-2.559-1-2.559s-1 1.077-1 2.393m7.754-1.143c-.707 1.923.244 3.75 1.952 3.75 1.216 0 1.291-.298.361-1.419s-.799-1.64.628-2.47c1.666-.97 1.641-1.053-.338-1.081-1.179-.016-2.35.533-2.603 1.22m8.246.309c0 .857.457 1.276 1.016.931.559-.346.758-1.047.441-1.559-.857-1.387-1.457-1.129-1.457.628M92.5 174c-.34.55-.141 1 .441 1S94 174.55 94 174s-.198-1-.441-1-.719.45-1.059 1m46.5 17.5c-1.375.786-2.05 1.429-1.5 1.429s2.125-.643 3.5-1.429 2.05-1.429 1.5-1.429-2.125.643-3.5 1.429m-22.25 1.162c.688.278 1.813.278 2.5 0 .688-.277.125-.504-1.25-.504s-1.937.227-1.25.504m-4.937 1.021c.721.289 1.584.253 1.916-.079s-.258-.568-1.312-.525c-1.165.048-1.402.285-.604.604m-38 2c.721.289 1.584.253 1.916-.079s-.258-.568-1.312-.525c-1.165.048-1.402.285-.604.604m9.456 2.01c.973.254 2.323.237 3-.037s-.119-.481-1.769-.461-2.204.244-1.231.498"/><path fill-opacity=".199" fill-rule="evenodd" d="M85.539 2.042C49.847 7.663 20.244 31.096 7.179 64.069 2.164 76.724.517 85.94.579 101c.062 15.177 2.109 25.668 7.465 38.274 3.739 8.799 11.679 21.773 13.132 21.456.582-.126 1.203.638 1.379 1.698s3.356 4.886 7.066 8.5c3.71 3.615 6.158 5.785 5.44 4.822-1.879-2.519.269-2.161 2.534.422 1.191 1.357 1.342 1.848.405 1.308-1.293-.745-1.311-.631-.128.828 1.545 1.904 2.618 2.294 1.548.562-.424-.685-.152-.947.691-.666.764.254 1.389.965 1.389 1.579 0 .615.629 1.702 1.397 2.417 1.16 1.08 1.249 1.046.528-.2-1.378-2.379-1.339-3.826.135-5.05 1.049-.871 2.021-.678 4.155.822 3.337 2.347 9.285 5.453 9.285 4.849 0-.237-1.976-1.589-4.39-3.004-6.886-4.035-17.607-13.152-23.434-19.927-16.151-18.777-24.255-45.078-21.285-69.081 3.162-25.558 15.721-47.922 35.333-62.923 32.666-24.984 77.098-25.908 110.179-2.29 8.01 5.718 20.242 18.608 25.047 26.392 2.109 3.417 4.038 6.212 4.287 6.212.591 0-4.384-8.644-7.193-12.5-3.305-4.536-3.481-4.984-2.554-6.483.709-1.148 1.13-1.162 2.434-.08.867.719 1.576.958 1.576.53s1.012.08 2.25 1.128l2.25 1.905-1.911-2.256c-1.05-1.241-2.142-2.024-2.425-1.741-.672.671-5.164-3.549-5.164-4.852 0-.55 1.125.057 2.5 1.349s2.5 2.144 2.5 1.893-2.809-3.142-6.243-6.424c-3.738-3.575-4.842-4.355-2.75-1.947 1.921 2.213.568 1.082-3.007-2.513-10.167-10.222-23.912-17.525-41.5-22.049-9.248-2.379-28.772-3.365-37.961-1.918M96 17.941c0 1.068.45 2.219 1 2.559.567.351 1-.49 1-1.941C98 17.152 97.55 16 97 16s-1 .873-1 1.941m6 .059c0 1.1.45 2 1 2s1-.9 1-2-.45-2-1-2-1 .9-1 2m5 .228c0 1.63.611 2.392 2.002 2.497 1.663.125 1.832-.167.995-1.731-1.591-2.972-2.997-3.331-2.997-.766m-36.24.718C64.216 21.504 53 28.18 53 29.517c0 .605.676 1.974 1.502 3.042.884 1.142 1.3 1.323 1.011.441-.271-.825-.043-2.175.505-3 .851-1.28 1.255-1.167 2.763.776 1.386 1.785 2.029 2.014 2.981 1.062s.658-1.578-1.361-2.903l-2.575-1.689 5.368-3.071c2.951-1.689 7.378-3.962 9.836-5.052 5.659-2.509 4.022-2.636-2.27-.177M87 18.393c0 .766.739 1.677 1.643 2.024 2.079.797 2.571.305 1.774-1.774-.767-1.998-3.417-2.192-3.417-.25m26.667-.726c-1.201 1.2-.699 4.333.694 4.333.913 0 1.204-.824.884-2.5-.522-2.729-.596-2.815-1.578-1.833m-31.274 1.915c.334.87.607 2.085.607 2.7 0 .769.322.796 1.033.085 1.176-1.176.265-4.367-1.247-4.367-.55 0-.727.712-.393 1.582m-9.057 1.985c-.811 2.114 1.111 3.859 3.319 3.012 1.419-.545 1.51-.859.439-1.521-.743-.459-1.041-1.335-.663-1.946.394-.638.009-1.112-.903-1.112-.875 0-1.861.705-2.192 1.567m49.331-.9c-.97.97-.817 3.333.216 3.333.486 0 1.119-.9 1.407-2 .514-1.966-.312-2.644-1.623-1.333m-54.52 2.221c-1.062.673-1.105 1.321-.2 3.013C69.358 28.537 71 27.752 71 24.441c0-2.587-.657-2.945-2.853-1.553m60.52-.221c-.367.366-.653 1.379-.635 2.25.025 1.277.339 1.197 1.625-.417 1.572-1.973 1.586-1.97 1.062.25-.293 1.238-.15 2.25.316 2.25 1.592 0 2.139-2.086.929-3.544-1.321-1.591-2.269-1.818-3.297-.789M160 22.378c0 .207.787.995 1.75 1.75 1.586 1.243 1.621 1.208.378-.378-1.307-1.666-2.128-2.195-2.128-1.372m-97 3.188c0 1.574 2.223 4.414 3.053 3.901 1.132-.699-.629-4.467-2.088-4.467-.531 0-.965.255-.965.566m71.583 1.077c-.837 2.182.275 3.196 1.456 1.328 1.183-1.87 1.208-2.971.068-2.971-.491 0-1.177.739-1.524 1.643m4.974 2.607c.843 2.744 1.265 3.261 2.034 2.492.862-.862-.55-4.742-1.726-4.742-.575 0-.706.956-.308 2.25M169 37.5c1.292 1.375 2.574 2.5 2.849 2.5s-.557-1.125-1.849-2.5-2.574-2.5-2.849-2.5.557 1.125 1.849 2.5m-80-.618c0 .55.45 1.278 1 1.618s1 .168 1-.382-.45-1.278-1-1.618-1-.168-1 .382m19.459.185c-.363.586-.445 1.281-.183 1.543s.743-.218 1.069-1.067c.676-1.762.1-2.072-.886-.476m11.081.28c-1.097.803-1.431 1.602-.825 1.977.56.346 1.823-.261 2.806-1.348 2.037-2.25.782-2.649-1.981-.629m-41.549 1.142c.68.819 1.683 1.213 2.229.875.604-.373.461-.951-.363-1.474-2.157-1.366-3.216-1.027-1.866.599m64.777-.321c.582.582 1.647.86 2.369.62.749-.25.295-.703-1.057-1.057-1.663-.435-2.054-.305-1.312.437M150 40.059c0 .582.45.781 1 .441s1-.816 1-1.059-.45-.441-1-.441-1 .477-1 1.059m3.11 1.308c-1.353 1.631.028 3.033 3.89 3.951 1.856.441 2.5 1.25 2.5 3.138 0 2.144-.471 2.555-3 2.614-2.58.061-2.72.191-1 .93 1.1.473 3.238.891 4.75.93 1.512.038 2.75.549 2.75 1.135 0 1.745-4.219 11.297-5.823 13.185-1.039 1.222-1.121 1.75-.273 1.75.674 0 .892.522.489 1.173-.399.645.35.42 1.664-.5 3.699-2.591 4.806-1.904 1.443.896-1.65 1.373-2.213 2.208-1.25 1.857 2.516-.92 2.195 1.393-.496 3.572l-2.246 1.819 2.91-.557c2.453-.468 2.806-.285 2.249 1.166-.391 1.017.002 2.386.958 3.342 1.493 1.493 1.473 1.671-.252 2.278-1.037.364 1.698.894 6.127 1.188 4.4.292 8.339.331 8.754.087 1.493-.879-4.401-7.202-7-7.512-3.528-.419-3.871-2.207-.701-3.651 2.909-1.326 2.792-3.834-.157-3.341-1.611.27-1.55.068.411-1.346 2.492-1.798 2.703-6.201.272-5.672-1.061.231-.999-.272.274-2.215 2.013-3.073 2.111-5.954.255-7.495-1.103-.915-1.825-.576-3.469 1.628l-2.076 2.783-.184-2.5c-.101-1.375-.231-3.101-.288-3.836-.058-.735-.921-1.932-1.918-2.661-1.75-1.279-1.749-1.363.007-2.396 1.58-.929 1.622-1.203.32-2.073-.825-.552-3.113-1.01-5.083-1.019-4.202-.018-5.329-.813-3.786-2.673.613-.738.889-1.342.614-1.342s-1.011.615-1.635 1.367m-55.994 3.167c-.065 1.137-1.484 2.843-3.215 3.865C90.771 50.248 88 55.218 88 58.981 88 62.338 92.676 69 95.031 69c.568 0 1.288.667 1.6 1.482.438 1.141 1.02 1.24 2.533.43 1.387-.742 2.351-.729 3.283.044.99.822 1.476.688 1.945-.534.37-.966 1.254-1.388 2.168-1.037.849.326 1.288.178.975-.328s.227-1.513 1.198-2.239c.972-.725 1.904-1.993 2.072-2.818s.979-2.017 1.803-2.649c1.187-.911 1.228-1.274.195-1.75-.959-.442-.992-.749-.127-1.16 1.678-.797-4.282-9.341-7.321-10.496-1.325-.504-2.818-1.935-3.318-3.18-.694-1.726-.925-1.848-.974-.515-.034.962-.705 1.75-1.49 1.75-.784 0-1.632-.788-1.884-1.75-.379-1.45-.477-1.402-.573.284m-58.322 3.034C41.302 49.325 40.885 51 37.941 51 36.873 51 36 51.45 36 52s1.095 1 2.433 1c2.432 0 4.323-2.968 3.125-4.906-.314-.508-.005-1.151.686-1.43s-.307-.542-2.217-.585c-3.433-.078-3.447-.062-1.233 1.489M148.5 48c.995 1.1 2.035 2 2.31 2s-.315-.9-1.31-2-2.035-2-2.31-2 .315.9 1.31 2m-52.75 2.08C93.427 51.433 91 56.26 91 59.527 91 63.545 95.995 68 100.5 68c5.081 0 9.5-4.419 9.5-9.5 0-6.979-8.302-11.884-14.25-8.42m-18.017 1.044c.679.684 1.486.991 1.793.683.308-.308-.247-.867-1.233-1.243-1.425-.542-1.54-.428-.56.56m43.08.559c.721.289 1.584.253 1.916-.079s-.258-.568-1.312-.525c-1.165.048-1.402.285-.604.604M30.25 55.15c-1.66 1.66-1.58 4.032.218 6.409 1.9 2.511 1.911 3.524.032 2.803-2.477-.951-1.846 4.141.75 6.044l2.25 1.649-2.25-.595c-3.148-.832-2.961 1.822.25 3.54 3.375 1.806 3.147 2.656-.919 3.419-2.489.467-3.976 1.585-5.466 4.111L23.067 86h7.329c7.224 0 7.325-.036 7.055-2.5-.192-1.746.211-2.5 1.337-2.5 1.254 0 1.345-.267.412-1.2-2.017-2.017-1.344-3.05 1.55-2.383l2.75.634-2.386-1.882c-2.401-1.895-1.505-3.99 1.136-2.656.688.348.013-.43-1.5-1.728-2.653-2.277-3.857-4.587-1.693-3.25.582.36 2.172.776 3.534.926 2.269.249 2.348.129.943-1.424-.844-.932-1.537-2.109-1.54-2.616-.004-.506-.695-2.241-1.536-3.855s-1.294-3.55-1.006-4.302c.328-.854.09-1.099-.633-.652q-1.16.718-.52-.948c.351-.915.16-1.664-.424-1.664s-1.298.9-1.585 2c-.656 2.507-1.064 2.501-3.13-.05-1.328-1.64-1.91-1.8-2.91-.8M62 60.981c2.469.81 2.472.821.191.919-1.27.055-2.031.55-1.691 1.1s.172 1-.373 1-2.007 1.427-3.249 3.171c-1.761 2.473-2.286 4.654-2.384 9.898-.085 4.481.237 6.588.961 6.31 1.537-.59 3.809-4.449 3.06-5.197-.343-.343-1.042.038-1.554.847-.8 1.265-.933 1.248-.946-.124-.008-.877.885-2.41 1.985-3.405s2-3.046 2-4.556c0-2.063.845-3.245 3.395-4.75 1.868-1.102 3.78-1.643 4.25-1.203s1.902.399 3.181-.091c2.076-.796 2.163-1.054.812-2.405-.832-.832-3.904-1.698-6.826-1.923-3.655-.283-4.532-.155-2.812.409m67.706 1.111c-2.332 1.947-2.252 2.002 3.491 2.415 3.321.238 7.803 3.058 7.803 4.909 0 .754.675 1.629 1.5 1.946s1.5 1.35 1.5 2.298c0 1.53-.163 1.506-1.468-.219-.808-1.067-1.483-1.448-1.5-.846-.018.602.868 1.91 1.968 2.905 2.047 1.853 2.801 4.113 1 3-.55-.34-1-.115-1 .5s-.387.879-.859.587c-1.364-.843-3.693 6.485-3.599 11.325.081 4.162.004 4.29-1.35 2.25-.79-1.189-1.845-2.162-2.344-2.162s.091 1.351 1.312 3.002c1.602 2.168 2.445 2.654 3.03 1.75.64-.989.994-.967 1.685.105q1.667 2.587 2.504-3.968c.624-4.892 1.738-8.888 2.479-8.893.353-.003.729-1.671.835-3.706.107-2.036.431-4.647.721-5.803.356-1.421-.511-3.363-2.676-5.989-1.762-2.137-3.211-4.551-3.221-5.362-.027-2.34-9.02-2.373-11.811-.044m5.373 5.491c.048 1.165.285 1.402.604.605.289-.722.253-1.585-.079-1.917s-.568.258-.525 1.312m-70.495 1.058c-.527 1.373-.38 1.435.893.378 1.735-1.44 1.916-2.019.63-2.019-.491 0-1.176.739-1.523 1.641M78 68c-1.293.835-1.266.971.191.985.93.008 1.969-.435 2.309-.985.782-1.266-.542-1.266-2.5 0m42 .031c0 .533.675.969 1.5.969s1.5-.177 1.5-.393-.675-.652-1.5-.969-1.5-.139-1.5.393m-58.921 4.552c.048 1.165.285 1.402.604.605.289-.722.253-1.585-.079-1.917s-.568.258-.525 1.312m3.486-.688c-.305.493.096 1.145.89 1.449q1.444.555.887-.895c-.645-1.68-1.011-1.794-1.777-.554m70.019.746c-.527 1.373-.38 1.435.893.378 1.735-1.44 1.916-2.019.63-2.019-.491 0-1.176.739-1.523 1.641M57 73.5c0 .825.177 1.5.393 1.5s.652-.675.969-1.5.139-1.5-.393-1.5c-.533 0-.969.675-.969 1.5m54 .893c0 .216.698.661 1.552.989.89.341 1.291.173.941-.393-.587-.951-2.493-1.406-2.493-.596m26.2.807c-.66.66-1.2 1.623-1.2 2.14s-.787 1.553-1.75 2.302c-1.66 1.292-1.658 1.331.037.739.983-.343 2.457-1.919 3.276-3.502 1.61-3.115 1.515-3.557-.363-1.679m-72.2.193c0 .216.698.661 1.552.989.89.341 1.291.173.941-.393-.587-.951-2.493-1.406-2.493-.596m17.216 1.632c-1.325 2.123-.624 2.519 1.776 1.001 1.01-.639 1.164-1.27.475-1.959s-1.415-.38-2.251.958M63 76.687c0 1.113 3.838 4.874 4.31 4.224.164-.226-.739-1.495-2.006-2.819C64.037 76.767 63 76.135 63 76.687m53.287 1.402c.736 1.177 1.854 1.684 2.949 1.336 3.039-.965 1.922.603-1.486 2.084-3.118 1.355-3.145 1.414-.667 1.452 3.257.049 4.214.976 2.786 2.697-.613.738-.8 1.342-.415 1.342.958 0 12.546-8.971 12.546-9.713 0-.329-.883.202-1.963 1.179-2.167 1.962-5.037 1.443-5.037-.91 0-1.207-.514-1.311-2.584-.524-1.421.54-3.109.654-3.75.253-2.51-1.569-3.625-1.193-2.379.804m-7.649.411c.317.825.753 1.5.969 1.5s.393-.675.393-1.5-.436-1.5-.969-1.5-.709.675-.393 1.5M70 78.908c0 .415 1.125 1.356 2.5 2.092s2.5 1.712 2.5 2.169.436.831.969.831.713-.664.402-1.475C75.76 80.932 70 77.662 70 78.908m42 .627c0 .741.52 1.668 1.155 2.06.686.425.884.277.487-.365-.366-.593.127-1.243 1.096-1.445 1.445-.3 1.357-.477-.488-.982-1.525-.417-2.25-.181-2.25.732m-49.921 1.048c.048 1.165.285 1.402.604.605.289-.722.253-1.585-.079-1.917s-.568.258-.525 1.312m76.079.417c0 1.375.227 1.938.504 1.25.278-.687.278-1.812 0-2.5-.277-.687-.504-.125-.504 1.25M57.97 82.579c-.97 2.552-.516 11.729.677 13.658.303.491 1.483.076 2.622-.922 1.922-1.685 2.024-1.69 1.432-.065-.922 2.528-.385 2.175 2.281-1.5 1.801-2.483 1.899-2.849.416-1.552-1.864 1.631-1.984 1.563-3.007-1.709-.645-2.059-.684-3.17-.099-2.809.532.329.74-.027.463-.791-.278-.764-.945-1.299-1.482-1.188s-.776-.85-.531-2.133c.652-3.41-1.553-4.197-2.772-.989m85.03-.713c0 1.246-.466 3.136-1.035 4.2-.57 1.064-.806 1.934-.526 1.934s1.234-1.402 2.12-3.115c1.158-2.239 1.306-3.42.526-4.2S143 80.237 143 81.866M123.5 82c-.34.55-.141 1 .441 1S125 82.55 125 82s-.198-1-.441-1-.719.45-1.059 1m-56.862 1.5c.317.825 1.033 1.5 1.591 1.5.586 0 .489-.635-.229-1.5-.685-.825-1.401-1.5-1.591-1.5s-.087.675.229 1.5M71 83c0 .55.477 1 1.059 1s.781-.45.441-1-.816-1-1.059-1-.441.45-.441 1m7.358.193C78.662 85.196 80 87 81.181 87c.627 0 .5-.679-.309-1.654-.754-.909-1.226-1.91-1.047-2.225.179-.314-.123-.72-.67-.903-.547-.182-.906.257-.797.975M127.5 83c-.34.55-.168 1 .382 1s1.278-.45 1.618-1 .168-1-.382-1-1.278.45-1.618 1m-27.165.807c-1.741.169-3.367.844-3.614 1.5-.32.85 1.872 1.268 7.626 1.454 4.441.143 8.46.646 8.932 1.118s1.196 3.347 1.608 6.389c.596 4.392.479 5.426-.568 5.024-.725-.278-1.319-.008-1.319.601s-.9 1.107-2 1.107c-1.372 0-2-.667-2-2.122 0-1.774.247-1.918 1.5-.878 1.271 1.055 1.5.827 1.5-1.5s-.229-2.555-1.5-1.5c-1.253 1.04-1.5.896-1.5-.878 0-2.333 1.923-2.799 3.8-.922.933.933 1.2.822 1.2-.5 0-1.339-.922-1.7-4.346-1.7h-4.345l-.176 5.383c-.175 5.358-.161 5.386 3.095 5.881 1.8.273 4.059.085 5.022-.419 2.023-1.058 2.161-.564.694 2.471-1.049 2.168-1.043 2.168.912-.069 1.083-1.239 2.278-4.082 2.656-6.317s.904-3.847 1.17-3.581c.866.866-2.841 16.995-5.321 23.151-1.329 3.3-3.343 7.125-4.476 8.5-1.132 1.375-1.755 1.825-1.385 1s-.255-.375-1.391 1c-1.135 1.375-2.075 2.838-2.087 3.25s-.472.75-1.022.75-1.036-1.687-1.079-3.75c-.082-3.874-.316-3.701-1.353 1-.757 3.435-1.905 3.5-3.412.194-.706-1.55-1.624-2.273-2.33-1.836-.756.467-.964.194-.591-.777.342-.892.006-1.498-.829-1.498-.992 0-.428 1.78 1.929 6.084 4.656 8.5 6.41 8.522 11.7.145 2.279-3.609 4.304-6.562 4.499-6.562.498 0-4.506 10.825-6.817 14.75-1.053 1.787-2.684 3.25-3.625 3.25s-2.481.563-3.423 1.25c-1.426 1.041-.747 1.185 4.059.865 3.175-.212 5.21-.587 4.522-.834-.687-.246-1.25-1.112-1.25-1.923 0-.812.406-1.225.903-.918.97.6 3.097-4.578 3.097-7.54 0-.99.599-2.16 1.331-2.6 2.291-1.377 10.356-21.94 12.178-31.05.579-2.895 2.491-4.681 2.491-2.327 0 .508 1.092 2.221 2.426 3.806 2.358 2.803 2.372 2.916.5 4.085-1.059.662-1.896 1.987-1.858 2.944.053 1.378.294 1.272 1.152-.508.597-1.237 1.995-2.25 3.107-2.25 1.959 0 1.951-.075-.254-2.423-3.688-3.925-7.32-12.575-5.965-14.207.625-.754 1.869-1.377 2.764-1.385 1.305-.013 1.357-.187.26-.882-.898-.569-2.008-.227-3.232.997-1.818 1.818-1.979 1.802-6.62-.666-3.663-1.948-5.601-2.387-8.428-1.909-2.522.426-3.934.206-4.512-.702-.487-.768-2.169-1.194-4.005-1.016m39.229 1.9c-.542 1.425-.428 1.54.56.56.684-.679.991-1.486.683-1.793-.308-.308-.867.247-1.243 1.233M58.031 85.5c0 .55.436 1.675.969 2.5s.969 1.05.969.5-.436-1.675-.969-2.5-.969-1.05-.969-.5m77.048 1.083c.048 1.165.285 1.402.604.605.289-.722.253-1.585-.079-1.917s-.568.258-.525 1.312m21.734-.9c.721.289 1.584.253 1.916-.079s-.258-.568-1.312-.525c-1.165.048-1.402.285-.604.604m-91.734 1.9c.048 1.165.285 1.402.604.605.289-.722.253-1.585-.079-1.917s-.568.258-.525 1.312M73 87.5c-1.375.786-3.314 1.445-4.309 1.465-.995.019-1.541.468-1.214.997.616.997 4.276-.224 7.996-2.667 2.666-1.751.658-1.585-2.473.205m10.256.602c-4.817 2.385-4.789 1.606-.549 15.242 2.543 8.178 3.852 9.988 2.262 3.128-1.339-5.773-1.102-7.459.522-3.722.777 1.787 1.939 3.25 2.583 3.25.892 0 .893-.334.005-1.405-.731-.881-1.057-4.317-.873-9.208.277-7.361.435-7.842 2.794-8.495l2.5-.693L90 86.1c-1.375-.054-4.41.847-6.744 2.002m78.376-.316c-.267.432.349.785 1.368.785s1.635-.353 1.368-.785C164.1 87.354 163.485 87 163 87s-1.1.354-1.368.786M129 88.383c0 .211.901.619 2.001.907 1.101.288 1.75.115 1.441-.383-.538-.871-3.442-1.313-3.442-.524m-81.494 3.834c-1.097.635-3.805 1.044-6.018.908-3.242-.199-4.507.266-6.506 2.394-2.118 2.254-2.482 3.597-2.482 9.148 0 5.889.266 6.735 2.806 8.92 3.006 2.585 6.873 3.056 11.296 1.374 2.059-.783 2.933-.721 3.55.25.489.772.824-.643.833-3.527.008-2.648.481-5.686 1.05-6.75s.804-1.934.521-1.934-1.43 1.793-2.549 3.985c-3.594 7.047-9.283 8.683-13.6 3.912-4.143-4.578-.791-16.397 4.65-16.397 2.044 0 2.378.541 2.626 4.25.157 2.338-.158 4.25-.699 4.25S42 104.35 42 106c0 2.317.448 3 1.969 3 1.323 0 1.783-.483 1.402-1.474-.311-.811.153-2.193 1.032-3.072.878-.878 1.583-2.127 1.567-2.775s-.565-.279-1.218.821c-1.12 1.886-1.222 1.83-1.791-1-.401-1.994-.076-3.645.968-4.922 1.151-1.408 1.196-1.701.166-1.095-.947.557-1.172.451-.69-.328.392-.635 1.924-1.191 3.404-1.234s2.126-.307 1.435-.585c-.691-.279-1.002-.918-.691-1.421.72-1.166.406-1.12-2.047.302M88.5 96.814c0 5.394.154 5.784 2.132 5.406 1.572-.301 2.018-.973 1.7-2.564-.43-2.146-.425-2.146 1.24.094.92 1.237 2.543 2.25 3.607 2.25 1.772 0 1.81-.178.447-2.124-1.142-1.631-1.228-2.541-.367-3.919C98.926 93.288 96.558 91 92.128 91H88.5zm62.138-4.314c-.432 1.126.165 1.5 2.393 1.5 3.068 0 3.425.703 2.99 5.886-.11 1.312.403 2.768 1.14 3.234.803.509.888.856.211.865-.62.008-1.687-.66-2.372-1.485s-1.718-1.5-2.297-1.5c-.578 0-.06 1.055 1.151 2.345 1.42 1.511 1.963 2.968 1.528 4.101-.517 1.349-.234 1.673 1.222 1.397 1.311-.248 1.993-1.36 2.209-3.601.173-1.783-.139-3.242-.693-3.242s-.9-1.687-.77-3.75c.185-2.947.683-3.815 2.327-4.054 3.336-.486 6.323 4.176 6.323 9.866 0 3.987-.443 5.141-2.635 6.865-1.449 1.14-3.615 2.073-4.813 2.073-2.204 0-7.552-4.721-7.552-6.667 0-.582-1.35-2.757-3-4.833s-3-3.405-3-2.952 1.012 1.901 2.25 3.218c1.873 1.994 2.281 3.646 2.433 9.863.137 5.596.697 8.271 2.233 10.67 1.128 1.761 2.058 2.725 2.067 2.142.009-.582-.644-1.932-1.451-3-1.556-2.057-2.12-11.441-.687-11.441 1.338 0 4.231 3.59 3.491 4.331-.368.368 1.391.669 3.908.669 6.132 0 9.756-3.947 9.756-10.626 0-8.512-4.218-13.075-11.073-11.978-2.158.345-4.075.174-4.426-.394-.899-1.455-2.2-1.228-2.863.498M92 94c0 1.1.45 2 1 2s1-.9 1-2-.45-2-1-2-1 .9-1 2m-16 .378c0 .208-.681 2.008-1.513 4-2.031 4.861-1.186 4.612 1.283-.378 1.089-2.2 1.586-4 1.105-4s-.875.17-.875.378m-3 1.384c0 .602-.707 1.802-1.571 2.667-.865.864-1.106 1.571-.536 1.571 1.266 0 3.497-3.944 2.688-4.752-.32-.32-.581-.088-.581.514m54 0c0 1.146 2.719 4.238 3.726 4.238.321 0-.268-1.013-1.31-2.25s-2.012-2.437-2.155-2.667c-.144-.229-.261.077-.261.679m25 .297c0 .582.45.781 1 .441s1-.816 1-1.059-.45-.441-1-.441-1 .477-1 1.059M48.158 98c0 1.375.227 1.938.504 1.25.278-.687.278-1.812 0-2.5-.277-.687-.504-.125-.504 1.25m10.447 1.586c-.334.872-.171 2.335.363 3.25.773 1.324.977.999 1.002-1.586q.048-5.34-1.365-1.664m82.41 1.164c.011 2.001.258 2.366.908 1.341.49-.775.66-2.013.377-2.75-.811-2.115-1.301-1.577-1.285 1.409m-86.385 4.5c-.796 2.97-.798 7.251-.003 6.456.988-.987 2.189-8.706 1.355-8.706-.412 0-1.02 1.013-1.352 2.25m90.44 1.941c-.038 2.03.38 3.969.93 4.309 1.207.746 1.207-3.192 0-6-.693-1.612-.873-1.284-.93 1.691m-9.293-.634c2.666 1.867 3.121 5.725.559 4.742-1.119-.43-1.427-.256-.941.531.398.644 1.323 1.17 2.056 1.17s1.59 1.028 1.906 2.285c.315 1.256 2.659 4.461 5.208 7.122 4.76 4.967 5.01 6.02 2.87 12.093l-.704 2 1.603-2c2.392-2.985 2.116-8.071-.538-9.93-3.104-2.175-7.796-9.448-7.796-12.086 0-2.489-3.534-7.484-5.295-7.484-.633 0-.15.701 1.072 1.557m-73.22 1.666c-.856 1.222-1.557 3.184-1.557 4.36 0 2.598-4.157 9.083-7.819 12.197l-2.681 2.28 2.5-.884c1.375-.487 2.99-1.847 3.589-3.023s1.783-2.93 2.632-3.896c.848-.966 1.848-2.76 2.222-3.987.373-1.226.989-2.185 1.368-2.131 1.793.255 3.189-.23 3.189-1.108 0-.532-.675-.709-1.5-.393-2.011.772-1.918-1.519.155-3.809.91-1.006 1.161-1.829.557-1.829s-1.799 1-2.655 2.223m9.693-1.143c.963.561 1.786 1.785 1.829 2.72.051 1.095.262 1.243.594.416.599-1.49-1.395-4.23-3.045-4.186-.621.017-.341.489.622 1.05m15.932 4.42c.626 1.375 1.517 2.5 1.979 2.5.461 0 .839 1.07.839 2.378 0 3.176 2.371 4.997 5.487 4.215C99.178 119.917 100 117 97.5 117c-.825 0-1.5.702-1.5 1.559s-.45 1.281-1 .941c-1.401-.866-1.247-4.834.25-6.447 1.027-1.107.893-1.219-.75-.626-3.513 1.267-4.002 1.12-3.921-1.177.054-1.533-.496-2.25-1.728-2.25-1.566 0-1.655.335-.669 2.5m23.157 1.756-.16 4.244 1.868-3.5c2.348-4.396 2.372-5.001.203-4.994-1.366.004-1.785.938-1.911 4.25m-64.319-.78c-.789.95-.865 1.524-.201 1.524 1.208 0 2.617-1.897 1.924-2.591-.252-.251-1.027.229-1.723 1.067m24.174 3.286-2.306 3.738 2.556-2.806c1.406-1.543 2.556-3.23 2.556-3.75 0-1.507-.361-1.144-2.806 2.818m32.172-1.197c-1.603 2.445-1.583 2.663.429 4.674 1.779 1.779 2.469 1.928 4.407.951 1.787-.901 1.882-1.107.431-.924-2.678.336-4.39-2.649-2.692-4.695 1.01-1.217 1.648-1.327 2.692-.461.847.703 1.367.749 1.367.119 0-.988-2.258-2.229-4.059-2.229-.492 0-1.651 1.154-2.575 2.565m23.634-1.7c0 .476.943 2.064 2.096 3.53 1.195 1.519 1.83 3.357 1.477 4.276-.509 1.326-.356 1.394.861.384 1.286-1.067 1.14-1.742-1.11-5.142-2.626-3.968-3.324-4.608-3.324-3.048m-43.974 2.302c-.014.367.874 2.767 1.974 5.333 2.251 5.252 2.381 5.854 1.093 5.058-.503-.311-.632.442-.29 1.691.525 1.919.672 1.982.994.429.365-1.762.421-1.762 1.716 0 1.145 1.559 1.097 1.92-.337 2.502-1.376.558-1.295.692.452.75 2.628.087 3.635 1.376 5.371 6.876 1.004 3.183 1.576 3.918 2.193 2.816.558-.997-.226-3.249-2.37-6.806-1.762-2.924-4.906-8.466-6.987-12.316-2.08-3.85-3.794-6.7-3.809-6.333m-34.413 6.443c-1.505 3.647-1.774 6.079-1.327 11.988.428 5.66.224 7.749-.863 8.836-3.922 3.922.486 10.38 6.12 8.966 1.867-.469 2.54-.343 2.087.39-.471.761.297.805 2.594.146 4.726-1.356 10.102-1.149 12.321.473 1.375 1.006 2.456 1.126 3.776.419 1.018-.545 1.594-1.247 1.28-1.56-.313-.314.211-1.201 1.165-1.971 1.573-1.271 1.503-1.34-.766-.745-2.416.633-2.433.604-.506-.863 1.312-.999 2.215-1.16 2.641-.471.762 1.233 4.664-1.134 4.481-2.718-.064-.55 1.347-1.473 3.135-2.051s3.813-1.65 4.5-2.382c2.407-2.566-4.441-.376-12.22 3.908C64.871 150.672 57 151.421 57 145.883c0-2.032.495-2.883 1.678-2.883 1.066 0 .246-1.084-2.25-2.972-2.16-1.635-4.941-2.985-6.178-3-2.082-.026-2.25-.479-2.25-6.078 0-3.526.651-7.308 1.561-9.067.858-1.66 1.421-3.43 1.25-3.933s-1.16 1.144-2.198 3.66M68 120.409c0 .19.675.906 1.5 1.591.865.718 1.5.815 1.5.229 0-.558-.675-1.274-1.5-1.591s-1.5-.419-1.5-.229m-16.956 10.219c-.024 1.72.631 3.687 1.456 4.372 1.824 1.514 1.824 1.483.029-3.5-1.438-3.991-1.441-3.993-1.485-.872m27.1.122c-1.091 2.55-1.066 2.609.34.809.834-1.068 1.516-2.305 1.516-2.75 0-1.52-.678-.81-1.856 1.941m5.904.199c-.799.506-1.881.654-2.405.331-.524-.324-.63-.068-.237.568.511.827 1.27.861 2.655.12 1.066-.571 1.939-1.248 1.939-1.503 0-.643-.281-.573-1.952.484m30.591 2.745c-1.195 1.195-.645 3.306.861 3.306.825 0 1.5-.648 1.5-1.441 0-1.671-1.427-2.798-2.361-1.865m-30.624 1.056c.037 1.778 1.747 3.444 2.419 2.357.376-.609.181-1.107-.434-1.107s-.84-.45-.5-1 .141-1-.441-1-1.052.338-1.044.75m61.602 4.171-3.884 2.579 2.884.632c1.585.347 2.272.685 1.526.75-.827.072-1.113.754-.733 1.745.99 2.578-1.308 4.363-5.782 4.492-3.831.111-3.669.21 2.252 1.384 6.625 1.313 12.005.626 13.857-1.77 1.868-2.418 2.157-4.696.77-6.083-.775-.775-1.676-2.475-2.004-3.779-.804-3.202-4.017-3.184-8.886.05M78.5 138c-.34.55.11 1 1 1s1.34-.45 1-1-.79-1-1-1-.66.45-1 1m42 0c-.34.55-.141 1 .441 1s1.059-.45 1.059-1-.198-1-.441-1-.719.45-1.059 1m-8.243 1.272c.217.651 1.261 1.23 2.319 1.285 4.293.225 5.419.478 5.306 1.193-.354 2.242.492 3.509 4.084 6.111 2.182 1.58 3.739 3.101 3.461 3.379-1.162 1.162 3.622 1.445 5.179.306 2.503-1.83.911-3.693-2.159-2.526-2.118.805-3.06.421-6.434-2.628-2.175-1.964-3.854-4.053-3.733-4.643s-1.723-1.655-4.099-2.367c-3.236-.97-4.22-.998-3.924-.11m-38.827 1.049c-.81 2.113-.303 2.836 1.296 1.848.743-.459.843-1.248.275-2.167-.751-1.215-1.002-1.164-1.571.319m53.017-.406c.311.503 0 1.142-.691 1.421-.758.305-.562.537.494.585.963.043 1.75-.596 1.75-1.421s-.477-1.5-1.059-1.5-.805.412-.494.915M97 140.882c0 .55.45 1.278 1 1.618s1 .168 1-.382-.45-1.278-1-1.618-1-.168-1 .382m25 1.567c0 .275 1.35 1.198 3 2.051s3 1.326 3 1.051-1.35-1.198-3-2.051-3-1.326-3-1.051m9 1.11c0 .857.45 1.281 1 .941s1-1.041 1-1.559-.45-.941-1-.941-1 .702-1 1.559m-67.64.945c-.873 2.276 1.247 4.289 2.84 2.696.933-.933.767-1.203-.75-1.215-1.475-.012-1.62-.225-.593-.875.952-.604 1.025-1.065.243-1.548-.613-.379-1.396.045-1.74.942M68 144c0 .55.45 1 1 1s1-.45 1-1-.45-1-1-1-1 .45-1 1m67.607.582c-.928 2.418-.769 2.575 1.421 1.403 1.115-.597 1.764-1.513 1.441-2.035-.884-1.43-2.181-1.144-2.862.632m5.393.918c0 .825.675 1.5 1.5 1.5s1.5-.675 1.5-1.5-.675-1.5-1.5-1.5-1.5.675-1.5 1.5m-83 .5c0 .55.45 1 1 1s1-.45 1-1-.45-1-1-1-1 .45-1 1m93 1.5c-1.72.983-1.992 1.44-.872 1.465.895.019 2.187-.64 2.872-1.465 1.523-1.835 1.209-1.835-2 0m-61.165 1.437c-.184.522-2.585 1.518-5.335 2.214-2.75.695-5.129 1.338-5.287 1.427-.608.345 2.152 5.422 2.948 5.422.461 0 .839.702.839 1.559s.45 1.281 1 .941 1-.172 1 .373c0 .546 2.271-.536 5.046-2.404s6.713-3.667 8.75-3.999c6.287-1.024 6.819-1.234 3.429-1.354-1.801-.064-5.626.71-8.5 1.719l-5.225 1.836-.2-2.705c-.141-1.918.424-2.983 1.94-3.66 1.335-.596 1.724-1.21 1.035-1.636-.607-.375-1.255-.255-1.44.267M95 150.651c0 .673.9 1.157 2 1.074s2-.702 2-1.376-.9-1.157-2-1.074-2 .702-2 1.376m6-.651c0 .55.45 1 1 1s1-.45 1-1-.45-1-1-1-1 .45-1 1m4.702.333c-.281.734.101 1.334.85 1.334s1.592-.6 1.874-1.334c.281-.733-.102-1.333-.85-1.333-.749 0-1.592.6-1.874 1.333M89.5 153c-.34.55.084 1 .941 1S92 153.55 92 153s-.423-1-.941-1-1.219.45-1.559 1m22.5 0c0 .55.477 1 1.059 1s.781-.45.441-1-.816-1-1.059-1-.441.45-.441 1m-47.436 3.293c.376.986.935 1.541 1.243 1.233s.001-1.114-.683-1.793c-.988-.98-1.102-.865-.56.56M109 155.49c0 .685 6.123 3.72 6.58 3.263.217-.217-1.174-1.143-3.093-2.058-1.918-.914-3.487-1.456-3.487-1.205m9.667 1.677c-1.009 1.1-1.567 2.267-1.24 2.593.606.607 3.484-2.652 3.541-4.01.044-1.029-.194-.882-2.301 1.417m-59.133-.222c-.359.58-1.664 1.055-2.902 1.055-3.47 0-5.992 2.289-5.216 4.734 1.096 3.455 6.584 4.03 6.584.69 0-2.493 2.59-.41 3.552 2.857.713 2.422 2.062 3.755 5.448 5.385 2.475 1.191 5.625 2.438 7 2.77 1.375.333-.493-.794-4.151-2.504-6.025-2.818-6.688-3.426-7.042-6.459-.489-4.193 1.443-4.904 7.978-2.937 2.542.765 4.789 1.223 4.994 1.019.204-.205-.584-.676-1.752-1.047s-2.051-1.424-1.961-2.341c.308-3.127-.065-3.389-1.816-1.277-1.341 1.619-2.335 1.937-4.25 1.361-1.375-.413-2.5-1.42-2.5-2.237 0-1.765-3.031-2.582-3.966-1.069M128.5 159.5c0 1.729.483 2.457 1.5 2.261.825-.158 1.5-1.176 1.5-2.261s-.675-2.103-1.5-2.261c-1.017-.196-1.5.532-1.5 2.261m-34.006.506c-1.99 2.199-1.987 2.206 1.256 3.894 2.389 1.243 3.026.276 1.092-1.658-.876-.876-.847-1.531.123-2.7 1.903-2.293-.36-1.868-2.471.464m-65.536 9.244c4.144 4.415 5.042 5.209 5.042 4.458 0-.16-2.137-2.298-4.75-4.75L24.5 164.5zM74 166.918c0 .505-.25 1.571-.557 2.369-.347.906.215 1.652 1.5 1.988 1.132.296 2.057.167 2.057-.287s.301-1.61.67-2.57c.457-1.191.298-1.516-.5-1.023-.644.398-1.17.246-1.17-.336S75.55 166 75 166s-1 .413-1 .918m50-.079c0 .462 1.125 1.353 2.5 1.979 2.938 1.339 3.44-.244.566-1.783-2.345-1.254-3.066-1.301-3.066-.196m-43.361 2.659c-.885 2.307-.799 3.502.254 3.502 1.311 0 2.042-2.487 1.154-3.925-.573-.926-.932-.818-1.408.423m39.754.084c.334.87.607 1.77.607 2s.408.418.906.418.671-.9.384-2-.969-2-1.514-2c-.544 0-.717.712-.383 1.582m-33.428.96c-.877 1.056-.956 1.867-.253 2.57.704.704 1.183.217 1.519-1.542.573-2.997.451-3.097-1.266-1.028m29.05-.851c.009.445.452 1.484.985 2.309.835 1.293.971 1.266.985-.191.008-.93-.435-1.969-.985-2.309s-.993-.254-.985.191m-8.679 1.876c-.331.862-.137 2.032.432 2.601.711.711.986.222.882-1.567-.173-2.996-.471-3.231-1.314-1.034m5.664-.126c0 .793.45 1.719 1 2.059s1-.309 1-1.441-.45-2.059-1-2.059-1 .648-1 1.441m-18.985.309c.028 1.369 1.867 3.702 2.454 3.114.788-.788-.467-3.864-1.576-3.864-.491 0-.886.338-.878.75M99 173c0 1.1.45 2 1 2s1-.9 1-2-.45-2-1-2-1 .9-1 2m-10 0c0 .55.45 1 1 1s1-.45 1-1-.45-1-1-1-1 .45-1 1m-10.5 3c1.1.473 2.675.859 3.5.859.945 0 .761-.317-.5-.859-1.1-.473-2.675-.859-3.5-.859-.945 0-.761.317.5.859M58 183.393c0 .216.698.661 1.552.989.89.341 1.291.173.941-.393-.587-.951-2.493-1.406-2.493-.596M63 186c.825.533 1.95.969 2.5.969s.325-.436-.5-.969-1.95-.969-2.5-.969-.325.436.5.969m-12.267 1.124c.679.684 1.486.991 1.793.683.308-.308-.247-.867-1.233-1.243-1.425-.542-1.54-.428-.56.56M68 188c.825.533 1.95.969 2.5.969s.325-.436-.5-.969-1.95-.969-2.5-.969-.325.436.5.969"/><path fill-opacity=".541" fill-rule="evenodd" d="M88.678 2.058C42.244 7.164 5.447 44.468 1.119 90.824c-.974 10.43.232 29.157 1.945 30.216.552.341.687 1.445.3 2.454-.454 1.183-.326 1.601.359 1.177.605-.374 1.343.456 1.712 1.924.538 2.147.897 2.374 2.13 1.351 1.797-1.491 1.577-1.759 4.398 5.34 1.264 3.182 2.476 5.608 2.693 5.391s-.452-2.37-1.486-4.785c-4.402-10.279-5.656-17.778-5.583-33.392.083-17.757 1.877-25.889 8.824-40 9.791-19.886 24.624-34.456 44.817-44.023C80.607 7.296 100.987 5.746 127 11.475c1.375.302.274-.274-2.448-1.281-3.036-1.124-4.485-2.118-3.75-2.572C122.503 6.571 122.286 5 120.441 5c-.885 0-1.263-.478-.875-1.107.463-.749-.019-.884-1.489-.418-1.195.38-2.714.257-3.375-.273-1.803-1.446-17.143-2.12-26.024-1.144M131 13c.825.533 1.95.969 2.5.969s.325-.436-.5-.969-1.95-.969-2.5-.969-.325.436.5.969m5 2c.825.533 1.95.969 2.5.969s.325-.436-.5-.969-1.95-.969-2.5-.969-.325.436.5.969m-39.375 1.798c-.271.439-.08 1.451.426 2.25.717 1.134.922.959.934-.798.015-2.313-.493-2.856-1.36-1.452m5.906.495c-.428.986-.497 2.074-.155 2.417 1.016 1.015 1.835-.411 1.367-2.382-.414-1.747-.468-1.748-1.212-.035m4.469 1.54c0 1.009.675 1.834 1.5 1.834 1.715 0 1.704.027.893-2.085-.83-2.162-2.393-1.998-2.393.251M83 20c0 1.1.408 2 .906 2s.671-.9.384-2-.696-2-.907-2c-.21 0-.383.9-.383 2m5-.5c.685.825 1.695 1.5 2.245 1.5.558 0 .449-.663-.245-1.5-.685-.825-1.695-1.5-2.245-1.5-.558 0-.449.663.245 1.5m25.638 0c-.316.825-.139 1.5.393 1.5.533 0 .969-.675.969-1.5s-.177-1.5-.393-1.5-.652.675-.969 1.5m-39.422 1.345c-.708.449-.996 1.564-.643 2.485.976 2.542 2.431 1.992 2.198-.83-.114-1.375-.222-2.493-.239-2.485-.018.009-.61.382-1.316.83m48.23.242c-.369.598-.171 1.588.441 2.2.817.817 1.113.528 1.113-1.087q0-3.623-1.554-1.113m-54.798 2.674c-.259.419.164 1.63.941 2.691C69.932 28.29 70 28.253 70 25.691c0-2.534-1.313-3.611-2.352-1.93m60.811.306c-.363.586-.445 1.281-.183 1.543s.743-.218 1.069-1.067c.676-1.762.1-2.072-.886-.476m2.179 1.433c-.316.825-.187 1.5.286 1.5.474 0 1.121-.675 1.438-1.5s.187-1.5-.286-1.5c-.474 0-1.121.675-1.438 1.5m-66.924.154c-.295.478.098 1.737.875 2.798.997 1.364 1.407 1.507 1.396.489-.022-2.016-1.624-4.334-2.271-3.287m71.332 1.26c-.614 1.148-.699 2.086-.188 2.086 1.028 0 2.446-3.029 1.747-3.729-.244-.243-.945.496-1.559 1.643m4.781.592c-.843.843.205 4.494 1.29 4.494 1.02 0 1.027-.778.031-3.302-.391-.991-.985-1.528-1.321-1.192M58 28.878c0 .482.694 1.453 1.542 2.157 1.255 1.041 1.768 1.037 2.75-.024.948-1.024.937-1.151-.049-.594-.726.41-1.51.05-1.857-.854C59.749 27.903 58 27.4 58 28.878m34.766 21.04c-2.961 2.645-3.266 3.448-3.266 8.587 0 5.977-.386 5.362 7.25 11.559.852.692 1.25.677 1.25-.046 0-.583-1.159-1.589-2.575-2.234-4.883-2.225-6.802-9.22-4.01-14.619 1.588-3.071 4.633-4.908 9.085-5.48 2.656-.341 2.572-.403-.734-.535-2.843-.114-4.514.546-7 2.768m11.317-1.657c.23.143 1.542 1.156 2.917 2.25l2.5 1.989-1.905-2.25c-1.048-1.237-2.36-2.25-2.917-2.25s-.824.117-.595.261m58.65 2.863c.679.684 1.486.991 1.793.683.308-.308-.247-.867-1.233-1.243-1.425-.542-1.54-.428-.56.56M36.5 52c-.34.55-.168 1 .382 1s1.278-.45 1.618-1 .168-1-.382-1-1.278.45-1.618 1m-6.443 3.431c-1.055 1.271-.925 2.259.742 5.628 1.542 3.117 1.678 3.954.574 3.53-2.939-1.127-2.786 2.667.209 5.176 2.627 2.201 2.694 2.394.669 1.934-3.146-.715-3.727.854-1.018 2.752 2.083 1.459 2.367 1.449 3.517-.123.687-.941 1.25-2.551 1.25-3.578s.361-1.645.803-1.372.828-.488.858-1.691c.121-4.78.38-5.78 1.347-5.182.59.364.529-.427-.147-1.91-.634-1.393-1.612-2.249-2.173-1.902-.56.346-1.994-.593-3.185-2.087-1.909-2.394-2.318-2.534-3.446-1.175m137.124.65c-.716 1.148-1.913 1.852-2.659 1.566-1.896-.728-2.657 1.868-1.466 5 .55 1.447.778 2.852.507 3.123s-.109 1.221.359 2.111c.469.891 1.113 3.419 1.431 5.619s1.006 5.438 1.527 7.195c.676 2.276.614 3.332-.216 3.671-.64.262 1.424.512 4.586.555s5.75-.305 5.75-.775c0-1.924-5.062-6.146-7.369-6.146-3.123 0-3.923-2.167-1.291-3.492 2.881-1.45 3.51-3.912.778-3.046-2.963.941-2.655-.896.382-2.28 2.735-1.246 3.495-5.182 1-5.182-1.76 0-1.942-1.158-.422-2.678 1.287-1.287.848-6.528-.586-6.997-.554-.182-1.594.609-2.311 1.756M62.733 61.718c-1.522.23-2.534.795-2.249 1.256s2.128.344 4.095-.26c2.787-.855 4.057-.799 5.749.255 1.98 1.233 2.051 1.205.8-.308-1.343-1.625-2.799-1.789-8.395-.943m67.188 1.032c-1.127 1.489-1.115 1.563.077.5 1.689-1.506 5.439-1.622 8.007-.247 1.054.564 2.112.617 2.418.121.53-.857-3.899-2.124-7.426-2.124-.963 0-2.348.788-3.076 1.75m-73.296 5.47c-1.385 1.77-2.318 3.42-2.072 3.666s.561.26.7.031c.14-.229 1.278-1.88 2.53-3.667 2.939-4.195 2.118-4.216-1.158-.03m87.045.234c1.516 1.899 2.934 3.275 3.152 3.057.62-.62-3.843-6.511-4.933-6.511-.536 0 .266 1.554 1.781 3.454m-40.211.613c-.363.586-.445 1.281-.183 1.543s.743-.218 1.069-1.067c.676-1.762.1-2.072-.886-.476m-49 5c-.363.586-.445 1.281-.183 1.543s.743-.218 1.069-1.067c.676-1.762.1-2.072-.886-.476m91.62.516c.048 1.165.285 1.402.604.605.289-.722.253-1.585-.079-1.917s-.568.258-.525 1.312M34.362 77.5c-.324.844-1.812 1.5-3.401 1.5-1.977 0-3.446.872-4.893 2.904-2.69 3.778-2.624 4.096.85 4.096C31.155 86 33 85.047 33 82.858c0-1.061.727-3.038 1.615-4.393.888-1.356 1.324-2.465.969-2.465s-.906.675-1.222 1.5M79 84.441c0 .793.354 1.659.786 1.927.432.267.785-.382.785-1.441S80.218 83 79.786 83 79 83.648 79 84.441m41.429.559c0 1.295.338 1.633.985.986.648-.648.648-1.324 0-1.972-.647-.647-.985-.309-.985.986m-62.777 4c1.113 5.993 1.697 7.027 3.355 5.94 1.3-.852 1.267-1.151-.257-2.319-.962-.738-1.757-1.967-1.765-2.731-.009-.765-.458-2.065-.999-2.89-.691-1.054-.79-.46-.334 2m57.125-1.443c1.223.856 2.275 2.543 2.339 3.75.089 1.692.221 1.793.573.443.655-2.505 2.297-2.162 2.39.5.045 1.298.308 1.673.621.886.39-.979 1.202-.555 2.879 1.5l2.335 2.864-1.706-3.548c-1.096-2.279-3.222-4.335-5.946-5.75-4.93-2.561-6.683-2.885-3.485-.645m27.622 1.193c-.351 1.513-1.265 3.253-2.03 3.868-1.181.95-1.159 1.311.144 2.393 1.976 1.64 2.122 1.412 2.731-4.261.565-5.256.143-6.253-.845-2m-60.895.624c-1.734 1.267-1.78 1.814-.602 7.077 1.543 6.896 2.471 6.87 1.182-.033-.647-3.46-.578-5.323.231-6.298.945-1.138 1.27-.96 1.818.997.647 2.308.671 2.297.767-.367.112-3.079-.647-3.387-3.396-1.376M88.5 96.5c0 4.966.209 5.5 2.156 5.5 1.705 0 2.061-.471 1.7-2.25L91.9 97.5l1.672 2.25c.92 1.237 2.527 2.25 3.573 2.25 1.799 0 1.813-.135.26-2.505-1.378-2.103-1.428-2.762-.311-4.108 1.129-1.36 1.042-1.815-.573-2.995-2.665-1.949-3.774-1.733-2.577.503.753 1.407.633 2.211-.465 3.122-1.252 1.039-1.479.748-1.479-1.895C92 91.815 91.543 91 90.25 91c-1.455 0-1.75.929-1.75 5.5m17-.003v5.497l4.143.003c3.027.002 4.322-.468 4.809-1.747.534-1.403.417-1.502-.593-.5-1.973 1.959-4.859 1.533-4.859-.719 0-1.229.5-1.776 1.333-1.457.734.282 1.334-.139 1.334-.936 0-.796-.6-1.217-1.334-.936-.864.332-1.333-.268-1.333-1.703 0-1.883.388-2.118 2.584-1.567 1.675.42 2.358.283 1.941-.392-.354-.572-2.304-1.04-4.334-1.04H105.5zM36.061 94.75c-4.647 3.763-4.645 16.797.002 19.284 1.981 1.06 1.981 1.04-.034-2.718-1.116-2.083-2.029-5.045-2.029-6.583 0-4.246 2.635-9.654 5.206-10.685 1.543-.62 1.758-.942.655-.985-.902-.034-2.612.724-3.8 1.687m126.65-.95c1.522.967 4.289 7.486 4.289 10.103 0 1.082-.523 3.234-1.161 4.782-.639 1.548-1.071 3.208-.96 3.688.112.48-.603.565-1.588.19-1.481-.563-1.562-.455-.47.628 1.09 1.08 1.658.896 3.25-1.052 2.775-3.396 2.693-12.898-.144-16.504-1.139-1.449-2.602-2.628-3.25-2.62-.874.012-.866.213.034.785m-49.632 16.783c.048 1.165.285 1.402.604.605.289-.722.253-1.585-.079-1.917s-.568.258-.525 1.312m-21.039 3.869c-1.366 1.646-.598 5.12 1.293 5.846.88.337 1.243-.682 1.212-3.405-.048-4.18-.609-4.726-2.505-2.441m11.627-.785c-1.087 1.086-.761 4.839.533 6.133 1.732 1.732 3.277 1.48 1.805-.294-.682-.822-1.025-2.622-.761-4 .464-2.427-.207-3.209-1.577-1.839m24.897 1.626c.376.986.935 1.541 1.243 1.233s.001-1.114-.683-1.793c-.988-.98-1.102-.865-.56.56M96.333 118.5c0 .825.327 1.5.727 1.5s.985-.675 1.302-1.5c.33-.86.02-1.5-.727-1.5-.716 0-1.302.675-1.302 1.5M144 122.378c0 .207.787.995 1.75 1.75 1.586 1.243 1.621 1.208.378-.378-1.307-1.666-2.128-2.195-2.128-1.372m-42.864 8.372c-.163 2.698-.457 2.741-3.8.551l-2.594-1.7 1.563 3.022c.86 1.663 2.319 3.65 3.244 4.417 1.477 1.226 1.969 1.059 4.066-1.378C106.14 132.726 106.653 131 105 131c-.55 0-1 .45-1 1 0 1.972-1.87.953-2.294-1.25l-.434-2.25zm49.426 8.985c.896 1.368 1.431 3.52 1.19 4.784-.311 1.626-.047 2.148.904 1.783 1.921-.737 1.661.738-.406 2.3-1.588 1.199-1.525 1.281.677.883 4.002-.723 5.494-5.061 2.573-7.485-.825-.685-1.5-2.034-1.5-2.997 0-1.209-.786-1.753-2.533-1.753-2.468 0-2.491.064-.905 2.485M48 139.878c0 1.032-.675 2.437-1.5 3.122-1.902 1.579-1.898 3.109.016 5.559 1.406 1.799 1.431 1.74.338-.813-1.495-3.493-.302-4.831 1.726-1.936.843 1.205 2.013 2.19 2.599 2.19.672 0 .603-.557-.186-1.508-.761-.918-1.03-2.877-.685-5 .427-2.632.212-3.492-.871-3.492-.79 0-1.437.845-1.437 1.878m4.729 3.726c-1.124 1.124-.87 2.128.688 2.726.78.299 1.675-.126 1.989-.945s.165-1.238-.332-.931-1.063.078-1.259-.51-.685-.741-1.086-.34m22.021 1.968c-3.738 2.028-3.511 2.873.25.928 1.65-.853 3-1.765 3-2.026 0-.643-.107-.607-3.25 1.098M148 146c-.901.582-1.025.975-.309.985.655.008 1.469-.435 1.809-.985.767-1.242.421-1.242-1.5 0m-79.414 2.75c-.411.412-3.749 1.034-7.417 1.382l-6.669.631 6.585-.042c3.622-.023 7.059.25 7.637.607s1.285-.245 1.571-1.339c.524-2.006-.327-2.624-1.707-1.239m62.747 1.75c0 .856.409 1.419.909 1.253.499-.167.908-.731.908-1.253s-.409-1.086-.908-1.253-.909.397-.909 1.253m-51.298 2.463c.02.295.714 1.662 1.542 3.037 1.504 2.496 1.505 2.496.858.125-.413-1.511-.16-2.677.695-3.206.939-.58.669-.78-.893-.662-1.23.093-2.221.41-2.202.706M130 159.5c0 .825.177 1.5.393 1.5s.652-.675.969-1.5.139-1.5-.393-1.5c-.533 0-.969.675-.969 1.5m-77.541.567c-1.026 1.66-.105 1.89 1.33.332.71-.769.849-1.399.309-1.399-.539 0-1.277.48-1.639 1.067m41.084.864c-.317.512-.118 1.213.441 1.559s1.016-.074 1.016-.931c0-1.757-.6-2.015-1.457-.628m-18.919 6.608c-.965 2.514-.681 3.163.498 1.136.584-1.004.851-2.036.593-2.293-.257-.258-.749.263-1.091 1.157m2 1c-.965 2.514-.681 3.163.498 1.136.584-1.004.851-2.036.593-2.293-.257-.258-.749.263-1.091 1.157M125.5 168c2.749 1.181 4.328 1.181 2.5 0-.825-.533-2.175-.945-3-.914-.989.036-.819.347.5.914m-44.421.668c-.043.643-.338 1.993-.655 3-.547 1.741-.518 1.744.571.044.631-.983.925-2.333.655-3-.355-.875-.514-.887-.571-.044m39.652 1.412c.354 1.352.807 1.806 1.057 1.057.24-.722-.038-1.787-.62-2.369-.742-.742-.872-.351-.437 1.312m-4 1c.354 1.352.807 1.806 1.057 1.057.24-.722-.038-1.787-.62-2.369-.742-.742-.872-.351-.437 1.312m-30.272-.013c-.363.586-.445 1.281-.183 1.543s.743-.218 1.069-1.067c.676-1.762.1-2.072-.886-.476m26.541-.126c0 .518.445 1.216.989 1.552.566.35.734-.051.393-.941-.665-1.732-1.382-2.049-1.382-.611m-18.985.809c.009.412.452 1.425.985 2.25.784 1.213.972 1.069.985-.75.008-1.238-.435-2.25-.985-2.25s-.993.338-.985.75m6.143 1.25c0 1.375.227 1.938.504 1.25.278-.687.278-1.812 0-2.5-.277-.687-.504-.125-.504 1.25m6.921-.417c.048 1.165.285 1.402.604.605.289-.722.253-1.585-.079-1.917s-.568.258-.525 1.312"/></svg>