<!-- Generated by IcoMoon.io -->
<svg version="1.1" xmlns="http://www.w3.org/2000/svg" width="32" height="32" viewBox="0 0 32 32" fill="#000000">
<title>rep</title>
<path d="M29.305 22.972l-12.585-22.553c0.191-0.343 0.11-0.773-0.191-1.024s-0.74-0.251-1.042 0c-0.302 0.251-0.382 0.681-0.191 1.024l-12.585 22.553c-0.212 0.38-0.088 0.86 0.281 1.090l12.585 7.83c0.264 0.164 0.598 0.164 0.862 0l12.585-7.83c0.369-0.23 0.494-0.71 0.281-1.090zM19.887 16.423c0.28 0.425 0.465 1.217 0.628 1.915 0.159 0.677 0.308 1.317 0.569 1.791 0.565 1.029 1.42 1.535 1.516 1.589 0.026 0.015 0.052 0.028 0.079 0.040l4.022 1.826-9.713 6.043v-3.449c0-0.014-0.001-0.034-0.001-0.049-0.012-0.276 0.049-0.645 0.107-0.729 0.1-0.090 0.488-0.33 0.799-0.524 0.904-0.561 2.142-1.33 2.923-2.22 0.116-0.131 0.217-0.27 0.318-0.41-0.386-0.344-0.835-0.836-1.194-1.49-0.031-0.057-0.055-0.119-0.083-0.178-0.136 0.286-0.302 0.547-0.512 0.786-0.59 0.672-1.685 1.352-2.485 1.849-0.491 0.305-0.845 0.525-1.073 0.729-0.771 0.691-0.771 1.943-0.757 2.258v3.428l-9.717-6.046 3.125-1.418c0.010-0.004 0.026-0.012 0.036-0.017 0.124-0.062 0.525-0.222 0.878-0.222 0.318 0 1.236 0.417 1.899 0.935 1.005 0.785 1.896 1.332 2.692 1.666 0.171-0.542 0.467-1.104 0.973-1.557 0.042-0.038 0.091-0.074 0.136-0.111-0.526-0.163-1.355-0.572-2.597-1.541-0.598-0.467-2.016-1.349-3.104-1.349-0.833 0-1.577 0.341-1.739 0.421l-2.138 0.97 9.552-17.117v6.699c0 0.014 0.001 0.034 0.001 0.049 0.012 0.276-0.049 0.645-0.107 0.728-0.1 0.090-0.488 0.331-0.799 0.524-0.904 0.561-2.142 1.33-2.923 2.22-1.017 1.158-1.37 2.479-1.466 4.224 0.677 0.074 1.355 0.328 1.936 0.615 0.049-1.838 0.324-2.776 1.001-3.547 0.59-0.672 1.685-1.352 2.485-1.849 0.491-0.305 0.845-0.525 1.073-0.729 0.771-0.691 0.77-1.942 0.757-2.258v-6.676l9.552 17.117-2.991-1.358c-0.108-0.072-0.49-0.349-0.748-0.817-0.131-0.239-0.262-0.799-0.378-1.294-0.201-0.857-0.428-1.829-0.899-2.545-0.624-0.949-1.621-2.152-3.447-2.766-0.17 0.547-0.466 1.113-0.976 1.57-0.053 0.048-0.113 0.094-0.171 0.14 1.58 0.352 2.383 1.258 2.959 2.132z"/>
</svg>
