<svg xmlns="http://www.w3.org/2000/svg" width="64" height="64" fill="#000000"><path fill="#000000" d="M32 64c17.673 0 32-14.327 32-32C64 14.327 49.673 0 32 0 14.327 0 0 14.327 0 32c0 17.673 14.327 32 32 32Z"/><path fill="#4c4c4c" d="M23.977 26.18c0-.863-.083-1.62.02-2.35.142-1.007.829-1.626 1.85-1.637 2.933-.03 5.87-.076 8.8.05 2.37.101 4.232 1.703 4.84 3.85.709 2.5-.081 5.266-1.912 6.648-.396.3-.829.553-1.356.902 1.135 1.525 2.284 2.992 3.333 4.523.344.5.578 1.172.589 1.77.017.81-.514 1.53-1.337 1.6-.678.058-1.688-.055-2.043-.495-2.1-2.604-4.1-5.29-6.028-8.024-.905-1.285.05-2.925 1.645-3.04.505-.037 1.015.006 1.52-.015 1.149-.05 1.838-.735 1.857-1.822.02-1.153-.65-1.924-1.841-1.941-2.824-.042-5.65-.02-8.476-.022-.433.002-.866.002-1.461.002Z"/><path fill="#000000" d="m33.344 11.001 1.118 1.341c-2.207.461-3.417.054-4.165-1.341h3.047ZM13.237 32.305c.379 11.573 9.753 18.788 19.295 18.54 11.48-.298 18.745-10.34 18.451-19.192-.339-10.292-8.919-18.756-19.028-18.548-10.63.22-19.057 8.789-18.718 19.2Zm2.955-.875c.02-8.347 7.36-15.457 15.942-15.442 8.767.015 15.829 7.294 15.783 16.27-.044 8.572-7.253 15.637-15.953 15.63-8.893-.006-15.794-7.205-15.772-16.458Zm-3.22-3.821c-1.614.528-2.184 1.785-1.9 4.098 1.9-.86 1.63-2.554 1.9-4.098Zm-.498 4.09c-2.261 1.066-1.059 2.712-.965 4.315 1.665-1.27 1.022-2.803.965-4.315Zm36.694-11.647c-.967 1.645.37 2.788.92 4.296.948-1.612.64-2.862-.92-4.296Zm-35.966 3.066c1.96.01 2.218-1.764 3.261-2.977-1.868-.06-2.714.758-3.26 2.977ZM33.768 52.76c-.905-1.742-2.554-1.107-3.99-1.354.493 1.544 1.252 1.89 3.99 1.354ZM52.372 36.71c-1.994.357-1.841 2.18-2.624 3.635 1.962-.537 2.408-1.213 2.624-3.635Zm-38.321 2.926c-1.008 1.547-.903 2.05.864 4.331.986-1.755-.291-2.911-.864-4.33Zm32.366-22.833c-.648 1.82.914 2.645 1.771 4.031.51-1.934.092-2.796-1.771-4.031ZM14.278 23.75c-1.72.154-2.047.613-2.576 3.573 1.912-.52 1.968-2.195 2.576-3.573Zm34.429 20.791c-1.86-.41-2.49 1.214-3.694 2.158 1.548.685 2.123.33 3.694-2.158Zm-35.804-8.806c-1.33 1.174-1.348 1.653-.048 4.387 1.334-1.471.24-2.88.048-4.387Zm34.815 8c1.835.148 2.555-.533 3.257-2.922-2-.009-2.253 1.768-3.257 2.922ZM18.521 16.196c1.746.819 2.673-.687 4.097-1.354-1.669-.83-2.684-.46-4.096 1.354Zm32.847 11.928c1.19-1.243 1.227-1.451-.07-4.326-.973 1.428-.962 2.086.07 4.326Zm-21.145-15.74c-.781-1.325-1.317-1.39-4.11-.397 1.133 1.085 1.409 1.111 4.11.396Zm21.532 19.841c1.418-.994 1.549-1.707.78-4.192-1.298 1.06-1.164 1.512-.78 4.192Zm-.638 4.13c1.712-.553 2.047-1.33 1.767-3.989-1.826.871-1.362 2.565-1.767 3.988Zm-5.553 11.37c-1.748-.857-2.62.774-4.064 1.357 1.651.79 3.217.18 4.064-1.356ZM22.078 13.714c1.527 1.203 2.769-.125 4.285-.444-1.435-1.17-2.542-1.014-4.285.444ZM18.75 46.268c-.33 1.772-.092 2.067 2.55 3.56.147-1.9-1.426-2.48-2.55-3.56Zm15.028 5.208c1.188 1.43 1.597 1.467 4.318.477-1.35-1.487-2.802-.57-4.318-.477Zm11.64-33.95c.532-2.149-1.323-2.552-2.609-3.615.19 1.925.547 2.393 2.61 3.615ZM16.01 43.205c-.63 1.72-.136 2.749 1.74 3.953.602-1.835-.907-2.654-1.74-3.953Zm26.038-28.062c.137-1.644-.254-2.028-3.124-2.877.232 1.92 1.908 2.097 3.124 2.877Zm-23.053 1.993c-1.654-.411-2.31-.006-3.55 2.188 1.496.319 1.741 0 3.55-2.188ZM42.02 50.22c-1.353-.725-1.65-.69-4.136.54 1.328 1.064 2.57.884 4.136-.54Zm-16.263.447c.374 2.142 2.222 1.674 3.764 2.134-.831-1.608-1.778-2.108-3.764-2.134Zm12.646-37.258c-.518-1.755-1.183-2.112-3.69-2.106.58 1.83 2.246 1.64 3.69 2.106ZM22.084 48.777c-.096 1.683.239 2.06 3.108 2.879-.153-1.909-1.88-2.06-3.108-2.88Zm1.89-9.095c.037 1.265 1.297 2.134 2.603 2.084 1.24-.047 2.242-1.079 2.263-2.43.042-2.507.035-5.016.047-7.522.002-.598 0-1.198 0-1.822h-4.944c0 3.267-.063 6.482.031 9.69Z"/></svg>