<svg xmlns="http://www.w3.org/2000/svg" width="192" height="192" version="1.1" fill="#000000"><path fill-opacity=".039" d="M 79.740 1.583 C 58.490 5.425, 41.357 14.577, 26.703 29.916 C -4.250 62.313, -8.694 111.921, 16.043 148.903 C 45.571 193.048, 105.229 205.170, 148.970 175.913 C 159.790 168.675, 171.845 156.076, 178.370 145.185 C 183.915 135.931, 189.643 120.276, 190.609 111.738 C 190.969 108.558, 191.654 105.714, 192.132 105.419 C 192.609 105.123, 193 100.382, 193 94.882 C 193 88.470, 192.641 85.104, 192 85.500 C 191.421 85.858, 191 84.897, 191 83.219 C 191 73.570, 183.295 53.608, 175.029 41.843 C 153.112 10.647, 116.100 -4.991, 79.740 1.583 M 77.516 5.594 C 42.757 13.369, 16.157 38.548, 6.835 72.500 C 3.591 84.317, 3.575 108.160, 6.804 119.395 C 16.230 152.187, 40.353 176.338, 72.500 185.165 C 84.317 188.409, 108.160 188.425, 119.395 185.196 C 151.658 175.923, 174.994 153.074, 184.657 121.297 C 187.055 113.410, 187.340 110.845, 187.416 96.500 C 187.489 82.639, 187.194 79.444, 185.213 72.605 C 175.837 40.233, 152.822 16.758, 121.297 7.410 C 109.915 4.035, 88.463 3.145, 77.516 5.594 M 103 96.500 L 103 114 106.500 114 L 110 114 110 96.500 L 110 79 106.500 79 L 103 79 103 96.500 M 115.409 80.378 C 114.533 82.659, 115.299 85.159, 117.250 86.388 C 119.815 88.003, 122.500 85.959, 122.500 82.391 C 122.500 79.859, 122.096 79.461, 119.243 79.186 C 117.047 78.974, 115.798 79.363, 115.409 80.378 M 0.370 96 C 0.370 101.775, 0.535 104.138, 0.737 101.250 C 0.939 98.362, 0.939 93.638, 0.737 90.750 C 0.535 87.862, 0.370 90.225, 0.370 96 M 37.750 89.673 C 36.675 90.751, 36 90.960, 36 90.214 C 36 89.532, 34.686 89, 33 89 L 30 89 30 101.500 L 30 114 33 114 L 36 114 36 106.723 C 36 97.717, 37.534 95, 42.620 95 C 45.974 95, 46.113 94.858, 45.813 91.750 C 45.544 88.954, 45.081 88.459, 42.500 88.208 C 40.651 88.028, 38.829 88.590, 37.750 89.673 M 52.763 89.565 C 48.934 91.643, 47 95.962, 47 102.435 C 47 107.059, 47.452 108.474, 49.750 111.046 C 52.701 114.348, 58.513 115.841, 63.525 114.583 C 66.462 113.846, 71 109.457, 71 107.354 C 71 105.271, 66.284 105.730, 63.040 108.129 C 59.488 110.755, 55.817 110.089, 54.193 106.524 L 53.043 104 62.649 104 L 72.256 104 71.596 99.875 C 70.711 94.339, 69.472 92.259, 65.686 89.950 C 61.920 87.654, 56.579 87.495, 52.763 89.565 M 79.775 89.501 C 77.097 91.011, 75 93.836, 75 95.934 C 75 97.777, 79.954 97.094, 83.017 94.829 C 85.500 92.994, 86.344 92.836, 88.477 93.808 C 92.847 95.798, 91.566 97.699, 85.330 98.478 C 75.498 99.706, 70.901 106.992, 76.455 112.545 C 79.373 115.464, 86.233 115.926, 89.777 113.443 C 91.023 112.571, 92 112.351, 92 112.943 C 92 113.524, 93.391 114, 95.091 114 L 98.182 114 97.841 103.525 C 97.542 94.339, 97.231 92.782, 95.309 90.863 C 92.468 88.025, 83.750 87.261, 79.775 89.501 M 133.190 90.026 C 127.083 93.749, 125.183 103.009, 129.280 109.088 C 136.804 120.252, 153.010 114.930, 152.996 101.300 C 152.986 90.990, 141.931 84.697, 133.190 90.026 M 116 101.500 L 116 114 119 114 L 122 114 122 101.500 L 122 89 119 89 L 116 89 116 101.500 M 56.762 94.081 C 55.807 94.634, 54.553 95.966, 53.977 97.043 C 52.991 98.885, 53.284 99, 58.965 99 C 65.183 99, 65.896 98.522, 63.750 95.792 C 62.058 93.640, 58.875 92.860, 56.762 94.081 M 136.635 95.073 C 131.633 99.007, 133.971 110, 139.809 110 C 146.668 110, 148.859 96.418, 142.396 93.960 C 139.210 92.749, 139.712 92.652, 136.635 95.073 M 83.180 104.057 C 80.078 105.301, 80.520 109.361, 83.808 109.827 C 86.855 110.259, 91 107.463, 91 104.977 C 91 103.472, 90.344 103.015, 88.250 103.063 C 86.737 103.098, 84.456 103.545, 83.180 104.057 M 156.750 106.080 C 155.615 106.741, 155 108.320, 155 110.571 C 155 114.913, 158.443 117.030, 162.500 115.182 C 164.471 114.284, 165 113.305, 165 110.557 C 165 105.764, 161.010 103.599, 156.750 106.080 M 156.485 109.048 C 156.127 110.174, 156.377 111.749, 157.040 112.548 C 159.703 115.757, 164.774 113.016, 163.515 109.048 C 163.059 107.612, 162.009 107, 160 107 C 157.991 107, 156.941 107.612, 156.485 109.048 M 158 110.500 C 158 112.333, 158.533 113, 160 113 C 161.467 113, 162 112.333, 162 110.500 C 162 108.667, 161.467 108, 160 108 C 158.533 108, 158 108.667, 158 110.500" stroke="none" fill="#000000" fill-rule="evenodd"/><path fill-opacity=".351" d="M 103 96.500 L 103 114 106 114 L 109 114 109 96.500 L 109 79 106 79 L 103 79 103 96.500 M 116.200 80.200 C 113.013 83.387, 116.963 88.161, 121 86 C 124.406 84.177, 122.927 79, 119 79 C 118.120 79, 116.860 79.540, 116.200 80.200 M 38.223 89.557 C 36.977 90.429, 36 90.649, 36 90.057 C 36 89.476, 34.650 89, 33 89 L 30 89 30 101.500 L 30 114 33 114 L 36 114 36 106.191 C 36 97.046, 37.144 94.859, 42.057 94.612 C 45.798 94.424, 47.126 92.062, 44.960 89.452 C 43.400 87.572, 41.003 87.609, 38.223 89.557 M 54.418 88.969 C 53.274 89.432, 51.136 91.238, 49.668 92.982 C 44.670 98.923, 46.590 110.185, 53.183 113.594 C 58.042 116.108, 64.725 114.991, 68.218 111.083 C 69.748 109.370, 71 107.526, 71 106.984 C 71 105.189, 65.478 105.961, 63.732 108 C 62.790 109.100, 60.890 110, 59.510 110 C 56.737 110, 53 106.842, 53 104.500 C 53 103.272, 54.719 103, 62.475 103 L 71.950 103 71.332 99.750 C 70.321 94.432, 68.295 91.368, 64.643 89.635 C 60.903 87.860, 57.678 87.650, 54.418 88.969 M 82.500 88.850 C 78.162 90.260, 74.094 94.760, 75.702 96.369 C 77.011 97.678, 80.619 96.926, 82.268 95 C 84.982 91.830, 89.906 92.494, 91.277 96.213 C 91.778 97.572, 91.193 98.038, 88.455 98.463 C 86.555 98.758, 83.487 99.234, 81.637 99.520 C 77.790 100.114, 75.455 102.300, 74.476 106.225 C 73.925 108.430, 74.372 109.526, 76.821 111.975 C 80.265 115.419, 84.326 115.917, 89.050 113.474 C 90.741 112.600, 92 112.386, 92 112.974 C 92 113.538, 93.350 114, 95 114 L 98 114 98 105.649 C 98 101.056, 97.489 95.833, 96.865 94.042 C 95.197 89.259, 88.588 86.870, 82.500 88.850 M 134.299 89.624 C 125.693 93.867, 124.877 107.322, 132.898 112.715 C 144.279 120.367, 157.681 107.358, 151.165 94.984 C 149.181 91.217, 144.006 87.990, 140 88.024 C 138.625 88.036, 136.059 88.756, 134.299 89.624 M 116 101.500 L 116 114 119 114 L 122 114 122 101.500 L 122 89 119 89 L 116 89 116 101.500 M 55 95 C 51.799 98.201, 52.598 99, 59 99 C 65.594 99, 66.911 97.452, 62.777 94.557 C 59.786 92.462, 57.403 92.597, 55 95 M 136.789 94.058 C 131.937 96.887, 133.147 108.246, 138.441 109.575 C 144.445 111.081, 148.861 103.500, 145.625 97.243 C 143.501 93.134, 140.333 91.992, 136.789 94.058 M 82.582 104.316 C 78.707 107.150, 82.152 110.932, 87.408 109.613 C 89.235 109.154, 92 105.446, 92 103.453 C 92 102.399, 84.230 103.111, 82.582 104.316 M 156.655 106.829 C 154.484 109.228, 154.555 112.287, 156.829 114.345 C 159.206 116.496, 161.291 116.440, 163.345 114.171 C 165.516 111.772, 165.445 108.713, 163.171 106.655 C 160.794 104.504, 158.709 104.560, 156.655 106.829 M 157.750 107.080 C 153.387 109.621, 157.542 116.386, 162 114 C 164.579 112.620, 164.619 108.402, 162.066 107.035 C 159.764 105.803, 159.946 105.801, 157.750 107.080 M 158.667 108.667 C 157.175 110.159, 158.049 113, 160 113 C 161.467 113, 162 112.333, 162 110.500 C 162 108.147, 160.185 107.149, 158.667 108.667" stroke="none" fill="#000000" fill-rule="evenodd"/><path fill-opacity=".598" d="M 104 96.500 L 104 114 106.500 114 L 109 114 109 96.500 L 109 79 106.500 79 L 104 79 104 96.500 M 115.930 80.584 C 114.176 82.697, 115.926 85.500, 119 85.500 C 122.074 85.500, 123.824 82.697, 122.070 80.584 C 121.347 79.713, 119.965 79, 119 79 C 118.035 79, 116.653 79.713, 115.930 80.584 M 31 101.500 L 31 114 33.500 114 C 35.952 114, 36 113.852, 36 106.223 C 36 97.048, 37.511 94, 42.057 94 C 44.530 94, 45 93.600, 45 91.500 C 45 89.457, 44.511 89, 42.329 89 C 40.860 89, 38.835 89.745, 37.829 90.655 C 36.127 92.195, 36 92.195, 36 90.655 C 36 89.556, 35.160 89, 33.500 89 L 31 89 31 101.500 M 52.217 90.561 C 46.791 94.361, 45.368 103.283, 49.266 109.067 C 54.015 116.113, 64.913 116.462, 69.047 109.699 L 71.002 106.500 68.399 106.174 C 66.642 105.953, 65.322 106.522, 64.341 107.924 C 61.459 112.038, 53 109.612, 53 104.671 C 53 103.233, 54.257 103, 62 103 C 70.980 103, 71 102.994, 71 100.450 C 71 97.111, 68.577 92.517, 65.783 90.561 C 62.912 88.549, 55.088 88.549, 52.217 90.561 M 78.635 91.073 C 75.367 93.643, 75.262 95.626, 78.362 96.218 C 79.925 96.517, 81.113 96.049, 81.871 94.835 C 82.606 93.659, 84.199 93, 86.308 93 C 89.924 93, 92 94.488, 92 97.080 C 92 98.418, 90.781 98.848, 86.014 99.193 C 81.486 99.520, 79.415 100.201, 77.514 101.987 C 74.328 104.980, 74.138 109.910, 77.105 112.595 C 79.859 115.087, 87.202 115.032, 90.001 112.499 C 91.799 110.872, 92 110.856, 92 112.345 C 92 113.444, 92.840 114, 94.500 114 L 97 114 97 103.955 C 97 94.622, 96.826 93.735, 94.545 91.455 C 91.247 88.156, 82.606 87.949, 78.635 91.073 M 116 101.500 L 116 114 119 114 L 122 114 122 101.500 L 122 89 119 89 L 116 89 116 101.500 M 131.400 92.400 C 128.348 95.452, 128 96.369, 128 101.365 C 128 106.126, 128.435 107.426, 131.007 110.355 C 134.646 114.500, 139.419 115.687, 144.279 113.657 C 149.654 111.411, 152 107.646, 152 101.265 C 152 96.383, 151.637 95.437, 148.600 92.400 C 145.605 89.405, 144.580 89, 140 89 C 135.420 89, 134.395 89.405, 131.400 92.400 M 54.557 95.223 C 53.701 96.445, 53 97.795, 53 98.223 C 53 98.650, 55.941 99, 59.535 99 C 65.997 99, 66.057 98.975, 64.885 96.750 C 63.336 93.808, 62.076 93.034, 58.807 93.015 C 57.145 93.006, 55.517 93.851, 54.557 95.223 M 135.667 94.816 C 131.692 99.208, 132.914 108.438, 137.627 109.621 C 143.188 111.017, 147 107.546, 147 101.088 C 147 94.637, 139.556 90.518, 135.667 94.816 M 81.571 104.571 C 78.242 107.901, 81.275 111.244, 86.688 110.209 C 89.128 109.742, 92 106.536, 92 104.277 C 92 102.376, 83.528 102.615, 81.571 104.571 M 156.200 107.200 C 155.540 107.860, 155.052 109.323, 155.116 110.450 C 155.230 112.458, 155.242 112.459, 155.724 110.500 C 155.994 109.400, 156.672 107.938, 157.230 107.250 C 158.525 105.655, 157.781 105.619, 156.200 107.200 M 159.600 108.674 C 160.205 109.128, 160.985 110.175, 161.332 111 C 161.777 112.054, 161.896 111.930, 161.732 110.583 C 161.605 109.528, 160.825 108.482, 160 108.257 C 159.035 107.994, 158.893 108.143, 159.600 108.674 M 164.116 110.550 C 164.052 111.677, 163.552 113.142, 163.004 113.804 C 162.456 114.466, 162.724 114.384, 163.600 113.622 C 164.476 112.860, 164.976 111.396, 164.712 110.368 C 164.279 108.684, 164.221 108.702, 164.116 110.550" stroke="none" fill="#000000" fill-rule="evenodd"/><path fill-opacity=".984" d="M 104 96.500 L 104 114 106.500 114 L 109 114 109 96.500 L 109 79 106.500 79 L 104 79 104 96.500 M 117.163 79.878 C 116.427 80.345, 115.977 81.800, 116.163 83.113 C 116.416 84.902, 117.126 85.500, 119 85.500 C 120.874 85.500, 121.584 84.902, 121.837 83.113 C 122.126 81.072, 120.707 79.031, 119 79.031 C 118.725 79.031, 117.898 79.412, 117.163 79.878 M 31 101.500 L 31 114 33.500 114 C 35.967 114, 36 113.890, 36 105.655 C 36 96.387, 37.296 94, 42.329 94 C 44.511 94, 45 93.543, 45 91.500 C 45 89.413, 44.525 89, 42.122 89 C 40.540 89, 38.661 89.703, 37.948 90.563 C 36.771 91.981, 36.569 91.981, 35.775 90.563 C 35.294 89.703, 34.023 89, 32.950 89 C 31.121 89, 31 89.773, 31 101.500 M 53.241 90.325 C 46.201 94.235, 45.272 106.923, 51.659 111.946 C 55.577 115.028, 62.931 114.770, 66.923 111.411 C 68.615 109.987, 70 108.187, 70 107.411 C 70 105.497, 65.373 105.587, 64.633 107.515 C 64.313 108.348, 62.913 109.463, 61.522 109.992 C 58.074 111.302, 54.364 109.483, 53.102 105.862 L 52.104 103 61.683 103 L 71.262 103 70.677 99.394 C 69.537 92.375, 65.583 88.959, 58.685 89.035 C 56.933 89.055, 54.484 89.635, 53.241 90.325 M 80.500 90.155 C 78.296 91.360, 76 93.930, 76 95.191 C 76 96.604, 80.704 96.062, 82 94.500 C 83.490 92.705, 89.113 92.513, 90.800 94.200 C 91.460 94.860, 92 96.210, 92 97.200 C 92 98.636, 91.184 99, 87.968 99 C 77.705 99, 71.434 106.434, 77 112 C 79.424 114.424, 86.652 114.730, 89.559 112.532 C 92.057 110.642, 93 110.634, 93 112.500 C 93 113.333, 93.889 114, 95 114 C 96.867 114, 97 113.333, 97 103.955 C 97 94.622, 96.826 93.735, 94.545 91.455 C 92.609 89.518, 91.078 89.006, 87.295 89.030 C 84.658 89.047, 81.600 89.553, 80.500 90.155 M 117 101.500 C 117 113.333, 117.107 114, 119 114 C 120.893 114, 121 113.333, 121 101.500 C 121 89.667, 120.893 89, 119 89 C 117.107 89, 117 89.667, 117 101.500 M 134.256 90.029 C 128.915 92.176, 126.340 101.889, 129.494 107.989 C 131.696 112.247, 134.821 114, 140.207 114 C 144.022 114, 145.598 113.437, 148.138 111.168 C 154.272 105.687, 152.616 92.705, 145.434 89.975 C 142.310 88.787, 137.284 88.811, 134.256 90.029 M 54.655 94.829 C 51.639 98.161, 52.613 99, 59.500 99 C 63.075 99, 66 98.650, 66 98.223 C 66 97.795, 65.299 96.445, 64.443 95.223 C 62.481 92.421, 57.033 92.201, 54.655 94.829 M 136.400 93.765 C 134.473 95.052, 133 98.759, 133 102.323 C 133 107.088, 135.836 110.333, 140 110.333 C 144.485 110.333, 147 107.120, 147 101.389 C 147 98.333, 146.392 96.392, 145 95 C 143.011 93.011, 138.500 92.363, 136.400 93.765 M 84.607 102.868 C 79.153 104.059, 78.430 109.317, 83.544 110.600 C 86.959 111.458, 91.384 108.276, 91.816 104.651 C 92.158 101.792, 90.929 101.488, 84.607 102.868" stroke="none" fill="#000000" fill-rule="evenodd"/></svg>