<svg xmlns="http://www.w3.org/2000/svg" width="40" height="40" fill="#000000"><path fill="url(#a)" d="M5.301 6.975a19.805 19.805 0 0 1 33.103 5.56 19.956 19.956 0 0 1 1.213 10.957 19.762 19.762 0 0 1-13.57 15.506c-1.71-8.268-3.406-16.54-5.089-24.813 3.66 2.837 7.288 5.714 10.935 8.578.309-.31.618-.622.93-.928-4.245-5.378-8.456-10.8-12.722-16.168A8185.436 8185.436 0 0 1 7.399 21.835c.312.306.621.619.934.928a9639.69 9639.69 0 0 1 10.934-8.595c-1.687 8.276-3.382 16.55-5.085 24.824a19.005 19.005 0 0 1-6.474-3.439 19.795 19.795 0 0 1-7.009-11.54 21.23 21.23 0 0 1-.336-5.26A19.731 19.731 0 0 1 5.301 6.975Z"/><defs><linearGradient id="a" x1="40" x2=".336" y1="19.496" y2="19.496" gradientUnits="userSpaceOnUse"><stop stop-color="#999999"/><stop offset="1"/></linearGradient></defs></svg>