<svg xmlns="http://www.w3.org/2000/svg" width="24" height="24" fill="#000000"><path fill="#878787" fill-rule="evenodd" d="M22.677 9.782c-.146 0-.29.027-.426.08-3.678-1.668-7.319-1.119-10.337 1.415C8.9 8.743 5.253 8.194 1.582 9.863a1.161 1.161 0 0 0-.426-.08c-.3.002-.587.12-.802.327a1.158 1.158 0 0 0-.354.787 1.158 1.158 0 0 0 2.295.23c3.018-1.559 6.012-1.047 8.658 1.231-.323.432-.616.886-.877 1.359-1.876 4.076-.839 7.43 1.83 10.282 2.875-3.293 3.73-6.958 1.184-11.15-.025-.04-.906 1.125-.876 1.18 1.523 2.818 1.15 5.433-.308 7.816-2.24-2.59-1.608-6.979.965-9.482 2.643-2.278 5.64-2.791 8.658-1.231.05.287.207.545.44.722a1.162 1.162 0 0 0 1.57-.158c.194-.219.296-.503.287-.794a1.166 1.166 0 0 0-.352-.786 1.18 1.18 0 0 0-.797-.334Z" clip-rule="evenodd"/><path fill="#878787" fill-rule="evenodd" d="M21.624 6.885a1.145 1.145 0 0 0-.775-1.084 1.163 1.163 0 0 0-1.286.369 11.856 11.856 0 0 0-7.646 1.628A11.86 11.86 0 0 0 4.264 6.17a1.155 1.155 0 0 0-.847-.434 1.163 1.163 0 0 0-.887.345 1.149 1.149 0 0 0-.188 1.353c.079.144.187.269.318.367l-.023.034.05-.015a1.16 1.16 0 0 0 1.662-.339 10.19 10.19 0 0 1 7.565 1.922 10.186 10.186 0 0 1 7.564-1.917 1.154 1.154 0 0 0 .757.53 1.165 1.165 0 0 0 .906-.192l.05.015-.024-.034a1.149 1.149 0 0 0 .457-.92Z" clip-rule="evenodd"/><path fill="#878787" fill-rule="evenodd" d="M16.566 2.563a1.163 1.163 0 0 0-1.014.595 12.119 12.119 0 0 0-3.636 1.452v.008-.008A12.125 12.125 0 0 0 8.28 3.158a1.155 1.155 0 0 0-1.247-.572 1.16 1.16 0 0 0-.92 1.013 1.145 1.145 0 0 0 .7 1.174 1.165 1.165 0 0 0 1.336-.316c1.363.324 2.646.922 3.769 1.756a10.306 10.306 0 0 1 3.768-1.755 1.158 1.158 0 0 0 1.038.4 1.161 1.161 0 0 0 .897-.656 1.144 1.144 0 0 0-.494-1.495 1.163 1.163 0 0 0-.557-.141l-.004-.003Z" clip-rule="evenodd"/><path fill="#878787" d="M11.914 2.988c.83 0 1.503-.67 1.503-1.494C13.417.669 12.744 0 11.914 0c-.83 0-1.503.669-1.503 1.494s.673 1.494 1.503 1.494Z"/></svg>