<svg xmlns="http://www.w3.org/2000/svg" width="200" height="200" fill="#000000"><path fill-opacity=".431" fill-rule="evenodd" d="M17.054 1.728c-2.531.893-6.445 3.568-9.083 6.206C-.384 16.289 0 11.849 0 100c0 88.129-.381 83.714 7.952 92.048C16.286 200.381 11.871 200 100 200c88.163 0 83.709.386 92.076-7.98 2.586-2.587 5.204-6.392 5.906-8.583.693-2.165 1.655-4.364 2.139-4.887 1.134-1.225 1.161-158.843.027-158.142-.468.29-1.403-1.315-2.077-3.566-1.685-5.624-9.281-13.044-15.534-15.175C178.125.164 169.957.008 99.572.079c-68.25.069-78.631.276-82.518 1.649M.476 100c0 43.725.123 61.612.274 39.75.15-21.863.15-57.638 0-79.5C.599 38.387.476 56.275.476 100"/><path fill-opacity=".159" fill-rule="evenodd" d="M18.027 1.737c-2.681.946-6.516 3.622-9.574 6.679C-.454 17.324 0 12.401 0 100c0 87.578-.451 82.679 8.435 91.565S12.422 200 100 200c85.684 0 81.98.29 90.361-7.086 2.459-2.165 5.441-6.069 6.627-8.675s2.573-5.52 3.084-6.475c1.177-2.202 1.253-157.083.076-156.356-.468.29-1.406-1.326-2.085-3.591-.779-2.602-3.138-6.022-6.407-9.291C182.651-.479 187.75-.011 99.572.079 32.048.148 21.946.353 18.027 1.737M.476 100c0 43.175.123 60.838.274 39.25.15-21.587.15-56.912 0-78.5C.599 39.163.476 56.825.476 100M48 42.815v14.071l12.502.307 12.502.307-.002-7.833c-.001-4.309.403-7.684.899-7.5 1.928.713 49.071 30.364 49.085 30.872.008.296-2.571 2.096-5.73 4A8801 8801 0 0 0 93.058 91.75C82.908 97.938 74.243 103 73.802 103S73 99.4 73 95v-8H48v84h28.966l.267-25.75.267-25.75 5-.269 5-.269 20.5 25.979 20.5 25.98 18.424.04 18.425.039-2.047-2.25c-4.97-5.462-45.3-54.159-45.282-54.676.011-.316 3.115-2.028 6.898-3.804 9.424-4.427 17.219-11.771 21.308-20.077 3.099-6.296 3.274-7.239 3.274-17.693 0-10.437-.178-11.404-3.25-17.644-4.068-8.262-10.258-14.067-19.597-18.376-12.16-5.611-18.919-6.575-50.403-7.187L48 28.743z"/><path fill-opacity=".557" fill-rule="evenodd" d="M19.205 1.882C11.908 4.419 7.038 8.651 3.5 15.527l-3 5.83-.274 76.482c-.304 84.658-.427 82.809 6.076 91.334 2.044 2.68 5.507 5.443 9.17 7.317l5.887 3.01H178.5l5.73-2.814c6.574-3.228 11.096-8.192 13.367-14.674.869-2.481 1.99-5.293 2.492-6.248 1.133-2.16 1.235-153.082.103-152.382-.445.274-1.328-1.442-1.963-3.814-1.744-6.523-6.92-12.589-13.7-16.058L178.643.5 101.572.27C28.955.054 24.194.147 19.205 1.882M.476 100c0 42.075.123 59.288.274 38.25.15-21.037.15-55.462 0-76.5C.599 40.713.476 57.925.476 100M48 43.412V58h25.916l.292-7.531.292-7.531L98 57.595c12.925 8.061 23.721 14.859 23.992 15.106.27.247-.18.859-1 1.36L98 88.11c-11.825 7.227-22.062 13.356-22.75 13.622-.937.361-1.25-1.549-1.25-7.625V86H48v85h30v-51h9.597l6.928 8.75a17087 17087 0 0 0 20.261 25.5L128.118 171h18.441c10.143 0 18.441-.233 18.441-.517s-10.35-12.857-23-27.94-22.991-27.787-22.98-28.233c.011-.445 3.273-2.337 7.25-4.203 9.634-4.521 18.615-13.521 21.707-21.752 4.823-12.838 3.386-27.861-3.645-38.132-4.274-6.243-8.661-9.881-16.832-13.96-11.896-5.938-16.091-6.535-49.25-7.007L48 28.824z"/><path fill-opacity=".112" fill-rule="evenodd" d="M39.667.667c-.367.366-.667 45.366-.667 100V200h110v-25l-5.25-.079c-8.215-.123-4.313-.876 9.3-1.794l12.45-.84-18.5-.143-18.5-.144-3.322-3.75c-1.828-2.062-3.039-3.187-2.691-2.5.904 1.791-.006 1.542-1.615-.442-1.164-1.436-1.163-1.566.008-.861 2.534 1.527.758-.937-16.38-22.728l-17-21.615-4.75-.052L78 120v52H47V84.942l13.25.279 13.25.279.29 8.25c.282 7.988.756 9.252 2.76 7.347.929-.884 15.995-10.214 29.95-18.549 3.85-2.299 8.969-5.43 11.376-6.957l4.377-2.776-5.159-2.946c-2.838-1.621-5.606-2.671-6.151-2.334-.546.338-.869.115-.718-.494S102.4 60.86 92.5 54.659l-18-11.274-.289 7.157-.29 7.157-12.525.67c-6.888.368-12.946.409-13.46.091S47 51.101 47 42.814V27.746l28.75.546c21.426.407 30.634.967 36.144 2.198 8.685 1.941 16.317 4.812 20.267 7.625 1.554 1.106 3.317 1.708 3.917 1.337 1.253-.774 11.952 9.848 11.863 11.777-.034.736-.56.489-1.25-.587-2.707-4.224-4.951-6.686-7.984-8.762-2.633-1.802-2.368-1.317 1.478 2.712 7.701 8.066 10.168 14.1 10.594 25.908.405 11.202-1.535 18.869-6.379 25.221-1.431 1.875-2.372 3.641-2.09 3.922s1.677-1.202 3.101-3.297S148 93.056 148 93.691c0 1.49-5.085 7.557-5.764 6.878-.792-.792-8.317 5.491-7.724 6.45.286.463-.006 1.168-.65 1.566-.731.452-.903.291-.457-.43 1.084-1.755.299-1.47-7.29 2.648l-7.009 3.803 4.015 4.447c2.207 2.446 3.681 3.772 3.274 2.947-.496-1.006-.024-.873 1.433.405 2.426 2.128 3.024 3.547.672 1.595-4.011-3.329-.034 1.854 16.25 21.175a90880 90880 0 0 1 19.964 23.693c1.218 1.448 2.23 2.31 2.25 1.915.02-.394-1.876-2.916-4.214-5.604-6.65-7.648-20.689-24.769-26.676-32.533-1.334-1.73-.209-.68 2.5 2.335s6.162 6.84 7.673 8.5l2.747 3.019-.083-28.016c-.073-25.002.116-28.499 1.754-32.5 2.554-6.24 2.536-22.058-.031-26.847-1.622-3.027-1.79-6.149-1.681-31.25L149.075 0H94.704C64.8 0 40.033.3 39.667.667M44.18 44.25c.185 14.571.583 12.871 1.055-4.502.146-5.364-.072-9.751-.485-9.75s-.669 6.414-.57 14.252m8.07 39.489c3.162.198 8.337.198 11.5 0 3.162-.198.575-.361-5.75-.361s-8.913.163-5.75.361M44.458 129c0 23.375.131 32.938.291 21.25.16-11.687.16-30.812 0-42.5s-.291-2.125-.291 21.25m93.466-24.322-2.424 2.677 3.25-2.246c3.28-2.266 3.937-3.109 2.424-3.109-.454 0-1.916 1.205-3.25 2.678"/></svg>