<svg xmlns="http://www.w3.org/2000/svg" width="200" height="200" fill="#000000"><path fill-opacity=".471" fill-rule="evenodd" d="M22.695 5.385C19.458 8.351 19 9.341 19 13.385 19 16.737 18.606 18 17.559 18c-.793 0-1.733.473-2.09 1.05-.702 1.136 1.966 7.482 3.558 8.467 1.275.788 1.246 5.104-.05 7.527-.563 1.051-2.159 3.047-3.546 4.434-2.523 2.523-4.057 3.344-2.974 1.591.958-1.55-.864-1.976-2.701-.632-.947.692-1.895 2.34-2.107 3.661-.237 1.479-.968 2.299-1.903 2.134-1.638-.289-3.119 2.355-2.175 3.883.318.514.207.87-.247.791C.005 50.33 0 50.405 0 100.107c0 43.24.179 49.038 1.5 48.531 1.931-.741 1.931.788 0 2.719C.252 152.606 0 156.81 0 176.432v23.574l100.25-.253 100.25-.253.256-74.706.256-74.705-2.195-2.045C196.489 45.875 194 45.335 194 47c0 1.999-4.183 1.015-4.74-1.115-.527-2.012-.974-2.084-9.157-1.479-14.86 1.1-24.539 2.21-26.353 3.023-2.279 1.022-2.249 2.571.05 2.571.99 0 2.233.433 2.762.962.53.53 5.677 1.092 11.439 1.25 9.332.257 10.515.493 10.836 2.168.198 1.034-.247 2.265-.989 2.735-1.906 1.208-17.6 1.096-18.358-.131-.346-.559-1.028-.77-1.517-.468s-7.32.722-15.181.934c-7.86.211-18.454.699-23.542 1.084-6.821.517-9.25.392-9.25-.476 0-.647-.448-.899-.996-.56-1.513.934-5.018 1.513-10.004 1.65-2.475.068-6.719.738-9.432 1.488S83.174 62 81.386 62c-2.373 0-3.423.54-3.886 2-.651 2.052-2.5 2.792-2.5 1 0-.55-.675-1-1.5-1s-1.5-.439-1.5-.975c0-1.415-5.038.675-7.75 3.216C63.013 67.4 62 67.82 62 67.174S61.325 66 60.5 66c-.895 0-1.5-.92-1.5-2.281 0-1.616.875-2.611 3-3.413 6.368-2.404 1.227-6.523-7.399-5.929-4.75.327-5.022.189-10.934-5.542-4.883-4.734-6.229-5.582-6.915-4.357-1.23 2.199-4.033 1.872-7.187-.838l-2.746-2.359 2.323-.608c1.278-.334 2.759-.172 3.291.36 1.493 1.493 2.849 1.144 2.193-.565-.381-.993.197-1.832 1.643-2.385 3.165-1.211 5.434-4.095 5.965-7.583.251-1.65.268-2.437.038-1.75C41.776 30.232 39 30.444 39 29c0-.55-1-2-2.222-3.222-1.223-1.223-2.341-3.135-2.486-4.25-.252-1.933-.175-1.922 1.632.222 2.347 2.784 5.446 2.88 8.076.25 3.805-3.805 2.581-4.909-6.151-5.551-3.403-.25-6.382-.648-6.619-.886-.237-.237.473-3.045 1.579-6.239s1.799-6.15 1.541-6.566C34.093 2.341 32.196 2 30.136 2c-2.861 0-4.617.799-7.441 3.385m139.09 24.374c-.931 1.121-.609 1.251 1.79.723 2.293-.505 2.601-.402 1.425.474-1.206.898-.926 1.062 1.423.831 4.269-.419 4.326-2.481.082-2.976-2.26-.264-4.005.086-4.72.948m-125.46.945c1.734.448 1.739.568.095 2.384C35.469 34.14 35.194 35 35.81 35c1.372 0 3.362-3.494 2.488-4.369-.347-.347-1.344-.579-2.215-.515-1.197.088-1.138.231.242.588M.463 100c0 27.225.129 38.363.286 24.75s.157-35.888 0-49.5S.463 72.775.463 100m52.723-32c-.025.825.341 2.4.814 3.5.686 1.596.874 1.663.93.333.038-.916.407-1.855.82-2.086s.216-.293-.437-.139c-.653.155-1.389-.481-1.634-1.413-.322-1.222-.46-1.276-.493-.195M11 74.922c0 1.185 2.028 2.516 3.888 2.552.763.014 1.888.926 2.5 2.026 2.47 4.442 4.848 4.612 4.425.316-.321-3.267-.289-3.247-8.063-5.173-1.563-.387-2.75-.267-2.75.279m5.015 7.828c.009.412.396 1.35.861 2.084.689 1.087.951 1.059 1.416-.152.314-.818.301-1.755-.028-2.084-.84-.841-2.267-.745-2.249.152m38.77.608c-.851.851-1.898 1.231-2.326.844-.429-.386-.456-.139-.06.548.851 1.479 12.33 1.707 14.572.289 2.102-1.329 1.251-1.757-5.055-2.537-4.382-.542-5.917-.358-7.131.856M71 83c-1.169.755-.893.973 1.25.985C73.763 83.993 75 83.55 75 83c0-1.264-2.043-1.264-4 0m-58 5.418c0 1.355-.45 2.742-1 3.082-1.619 1-1.181 3.507.5 2.862.825-.317 1.5-1.428 1.5-2.469 0-2.651 1.414-2.357 3.011.627 1.019 1.905 1.067 2.802.194 3.675s-.32 1.722 2.267 3.48c1.882 1.279 4.008 2.335 4.725 2.347s2.428.902 3.803 1.978c1.879 1.47 3.991 1.939 8.5 1.888 5.712-.065 5.832-.116 2.5-1.068-1.925-.55-3.95-1.358-4.5-1.795s-2.575-1.123-4.5-1.525c-4.158-.868-6.224-2.329-5.333-3.771.407-.658-.152-.835-1.512-.48-1.285.336-1.912.167-1.55-.419.334-.541-.34-1.866-1.499-2.946C18.948 92.805 18 91.316 18 90.576s-1.125-2.083-2.5-2.984c-2.433-1.595-2.5-1.573-2.5.826m151.767 1.642c-23.36.562-40.543 2.44-51.767 5.659-6.61 1.896-4.828 2.983 2.386 1.456 6.767-1.432 12.968-1.949 45.614-3.801 28.019-1.59 34.147-1.717 37.25-.772 1.118.34 1.75-.001 1.75-.946 0-2.002-6.371-2.291-35.233-1.596M52.035 97.628c-.019 1.17.64 2.687 1.465 3.372 1.872 1.554 1.872.275 0-3-1.346-2.355-1.431-2.377-1.465-.372m5.109 5.006c-2.396 2.401-4.984 4.366-5.75 4.366-.906 0-1.394 1.139-1.394 3.255 0 2.837.444 3.395 3.456 4.337 2.483.778 3.573.776 3.873-.005.362-.943 2.942-1.153 8.68-.705.831.065 2.1 1.063 2.821 2.218 1.271 2.035 1.179 2.083-3.009 1.552-2.377-.301-3.58-.322-2.674-.046s1.893 1.437 2.192 2.581c.515 1.97.248 2.05-5.003 1.508-3.051-.315-5.282-.307-4.958.017s-.528 1.625-1.894 2.891c-2.112 1.957-2.322 2.658-1.403 4.675l1.081 2.373 3.025-2.825c1.663-1.555 3.369-2.826 3.791-2.826s4.986-2.539 10.144-5.642 10.728-6.268 12.378-7.032 4.35-2.271 6-3.347 4.125-2.468 5.5-3.091 4.136-1.977 6.136-3.01 4.631-1.878 5.846-1.878c2.162 0 13.018-2.86 13.018-3.43 0-.158-3.598-.239-7.996-.179s-7.998.429-8 .82-2.258 1.381-5.013 2.199c-4.953 1.471-6.34 2.078-14.848 6.506-3.162 1.645-5.265 2.096-7.672 1.645-1.892-.355-3.588-.18-3.952.408-.355.575.237 1.031 1.34 1.031 2.418 0 5.143.985 5.135 1.857-.003.354-1.803.711-4 .793S70 113.343 70 112.783c0-.559-.9-.781-2-.493-1.25.327-2 .03-2-.79 0-.837.816-1.139 2.25-.833 1.237.264.342-.429-1.989-1.54-2.345-1.117-4.094-2.602-3.914-3.323.179-.717.136-.966-.094-.554-.741 1.325-2.253.8-2.253-.781 0-.843.675-1.791 1.5-2.107 1.567-.602 2.044-2.936.75-3.669-.413-.234-2.71 1.54-5.106 3.941M12 103.465c0 .805.853 1.921 1.896 2.48 1.737.929 1.8.806.75-1.457C13.372 101.74 12 101.21 12 103.465m11.5 3.31c.55.55 2.125 1.326 3.5 1.725q2.5.724 1.5-.275c-.55-.55-2.125-1.326-3.5-1.725q-2.5-.724-1.5.275M45.71 108c.518 1.981-1.086 2.818-2.139 1.115-1.139-1.842-6.293-1.79-7.458.076-1.008 1.614-.758 1.809 2.313 1.809 1.894 0 4.568.428 5.943.95 2.066.786 2.487.655 2.432-.75-.038-.935.265-2.487.672-3.45.518-1.222.284-1.75-.772-1.75-1.021 0-1.344.651-.991 2M.432 176c0 13.475.142 18.988.315 12.25s.173-17.762 0-24.5S.432 162.525.432 176M170 157c0 1.1.822 2.822 1.826 3.826s2.116 2.58 2.469 3.5c.353.921 1.331 1.674 2.174 1.674 2.516 0 1.962-6.246-.783-8.826-2.931-2.752-5.686-2.837-5.686-.174m-57.036 18.399c-.805.769-4.164 2.8-7.464 4.513-6.413 3.328-7.907 4.254-12.843 7.954l-3.157 2.367 5.5-.541c3.025-.297 6.951-1.277 8.723-2.176C108.129 185.28 117.749 174 115.249 174c-.451 0-1.479.629-2.285 1.399M153 178.406c0 .2 1.125 1.101 2.5 2.002s2.5 1.25 2.5.776c0-.475-1.125-1.376-2.5-2.002-1.375-.627-2.5-.976-2.5-.776m-26.333 8.261c-.367.366-.667 1.131-.667 1.7 0 .626.466.567 1.183-.15.651-.651.951-1.416.667-1.7s-.817-.217-1.183.15m-3.238 5.801c-.889 1.357-1.462 2.889-1.273 3.404s1.122-.596 2.073-2.468c2.013-3.963 1.543-4.512-.8-.936"/><path fill-opacity=".244" fill-rule="evenodd" d="M23.748 5.265c-3.227 2.783-3.787 3.891-4 7.929-.185 3.494-.695 4.812-1.998 5.156-2.419.64-2.191 2.722.779 7.098 3.934 5.797 2.827 8.874-6.372 17.702-4.211 4.043-8.272 8.7-9.024 10.35s-1.764 3.781-2.25 4.736C-.234 60.433-.281 75.708.827 76.393c.455.281.545 2.708.2 5.393-.344 2.685-.3 6.101.099 7.591.398 1.49 1.031 5.579 1.407 9.087.557 5.2 1.228 6.935 3.639 9.401 1.842 1.883 3.592 2.82 4.642 2.485 1.087-.347 1.272-.236.522.312-.64.467-1.34 2.945-1.555 5.506s-.904 5.276-1.533 6.033c-1.407 1.695-3.191 9.175-3.224 13.518-.018 2.444-.385 3.08-1.524 2.643-.825-.317-1.5-.051-1.5.59s-.45.888-1 .548-1 .32-1 1.466c0 1.491.811 2.246 2.85 2.654 2.545.509 2.955 1.148 3.83 5.975.783 4.321.713 5.405-.35 5.405-.732 0-1.33.401-1.33.892 0 .49-1.125 1.174-2.5 1.519l-2.5.627V200h29.514c16.243 0 30.294-.417 31.25-.928s3.761-1.783 6.236-2.827c10.134-4.276 19-8.68 19-9.438 0-.444.41-.807.91-.807.501 0 2.801-1.237 5.111-2.75s4.488-2.787 4.84-2.832c2.721-.347 6.139-1.813 6.139-2.633 0-.55.59-.772 1.312-.495 1.597.612 11.412-4.755 15.616-8.54 1.68-1.512 3.486-2.75 4.014-2.75.527 0 1.318-.595 1.758-1.321.735-1.215 7.072-4.507 11.747-6.103 2.543-.868 16.57-.89 18.813-.03 3.488 1.339 1.593 2.281-4.686 2.329-7.867.061-10.782.666-16.574 3.44-8.901 4.264-18.551 13.166-21.045 19.416-.532 1.332-1.456 2.014-2.294 1.692-1.405-.539-3.878 1.355-5.46 4.183-.909 1.623-7.438 4.278-10.701 4.351-1.1.024-4.373.946-7.272 2.048s-8.975 2.392-13.5 2.867c-6.518.683-2.597.89 18.864.995l27.091.133 1.268-4.231c2.158-7.203 12.806-18.683 16.261-17.532.583.195-.238 1.179-1.825 2.188-5.246 3.333-8.54 7.004-11.481 12.796-1.599 3.147-2.906 5.918-2.906 6.159s7.019.496 15.598.569c11.023.094 16.032-.227 17.076-1.094 1.151-.955 1.643-.959 2.224-.02.553.894 6.277 1.136 22.174.935l21.428-.27.005-46c.003-25.3-.174-49.102-.393-52.893l-.399-6.894-19.106.735c-10.509.405-26.532.901-35.607 1.103s-18.975.779-22 1.283l-5.5.916 5.5.24c6.115.267 5.942.343-7 3.105-5.453 1.164-17.193 6.48-17.833 8.075-.184.457-1.196.83-2.25.83s-1.917.403-1.917.895c0 .493-2.812 2.314-6.25 4.046-3.437 1.733-8.95 4.714-12.25 6.625s-6.787 3.742-7.75 4.07-1.75.94-1.75 1.359-1.297 1.3-2.883 1.956c-3.59 1.487-8.475 6.476-7.932 8.103.304.913.768.871 1.871-.17 2.427-2.289 15.13-10.509 19.944-12.905 2.475-1.232 5.737-3.112 7.25-4.178 3.217-2.266 3.614-1.103.75 2.199-1.1 1.268-2 2.63-2 3.026 0 .626 6.35 1.753 12.5 2.218 1.1.084 2.535.85 3.189 1.704.984 1.284 1.542 1.336 3.237.302 2.428-1.483 3.074-1.558 3.074-.357 0 1.61-3.353 2.306-13.339 2.768-5.411.251-10.953.88-12.315 1.397-1.362.518-3.631.942-5.043.942-3.918 0-9.497 3.812-8.799 6.012.502 1.583-.174 1.849-5.467 2.147l-6.041.341.002-3.8c.001-2.089-.648-5.056-1.442-6.592-1.841-3.56-1.021-14.739.96-13.095C55.108 120.335 64 121.251 64 120.094c0-1.33-3.154-2.409-6.305-2.156-2.937.235-7.306-3.136-7.716-5.954-.506-3.474.116-5.984 1.483-5.984.804 0 3.525-2.006 6.047-4.457 4.841-4.705 5.203-4.593 5.808 1.799.383 4.04 1.859 5.638 5.183 5.611 1.973-.016 1.974-.036.059-1.485-2.912-2.202.042-1.84 5.148.632 3.876 1.877 4.576 1.946 6.566.656 1.225-.795 5.152-2.72 8.727-4.278 3.575-1.559 7.258-3.472 8.185-4.252s4.977-2.498 9-3.818c4.351-1.427 5.98-2.266 4.021-2.07-1.812.181-3.526-.046-3.809-.505-.283-.458-1.051-.826-1.706-.818-.73.01-.623.375.275.943 3.186 2.015-4.447 3.391-21.172 3.817l-16.705.426-.653-2.598c-.358-1.429-.381-3.304-.05-4.166.517-1.346-.433-1.537-6.746-1.353-4.041.118-7.863-.104-8.494-.494-1.646-1.017-1.413-6.466.352-8.231 2.256-2.256 2.931-6.283 1.648-9.831-.63-1.743-1.146-4.546-1.146-6.227 0-3.467-2.443-9.887-4.574-12.018-.784-.784-1.426-1.844-1.426-2.354 0-.511-.485-.929-1.077-.929s-2.485-1.408-4.207-3.13c-1.736-1.736-3.297-2.627-3.506-2-.643 1.93-5.569 1.174-8.624-1.324l-2.914-2.382 3.786-1.582c2.083-.87 4.744-1.607 5.914-1.637s3.193-1.403 4.495-3.05c2.799-3.541 2.394-4.719-.648-1.884-2.529 2.356-6.182 2.854-4.3.586.894-1.077.865-1.526-.127-1.935-.923-.381-.638-1.106.999-2.541 2.278-1.997 2.28-2.013.25-3.099-1.418-.759-2.031-2.073-2.009-4.307.029-2.921.155-3.052 1.388-1.426 1.603 2.113 8.501 2.081 9.316-.044.794-2.068-.19-2.472-6.827-2.803-3.396-.169-6.546-.679-7-1.133-1.058-1.058-1.283-7.991-.375-11.559.987-3.881-1.946-3.659-6.786.515M195 60.166c-1.925 1.113-4.429 2.882-5.564 3.929-1.136 1.048-2.486 1.905-3 1.905-1.789 0-6.569 7.045-6.252 9.212.411 2.803 3.488 3.539 12.528 2.998l7.213-.431-.012-9.89c-.006-5.439-.327-9.857-.712-9.818-.386.039-2.276.982-4.201 2.095m-59.539 1.897c-.756 1.224.643 3.937 2.031 3.937.703 0 1.995-1.095 2.872-2.433 1.569-2.394 1.546-2.431-1.421-2.346-1.658.047-3.225.426-3.482.842M79.75 73.689c-2.282.597-2.327 5.152-.06 6.022.944.362 1.864.128 2.083-.531.217-.649.983-1.18 1.703-1.18 1.497 0 2.81-2.729 1.968-4.09-.58-.939-2.641-1.018-5.694-.221m19.26.799c-1.004 1.21-.915 1.611.478 2.146 1.573.604 3.457-.95 3.497-2.884.026-1.312-2.693-.807-3.975.738M9 76c0 1.1.351 2 .781 2 1.235 0 2.761 5.228 2.408 8.25-.354 3.028-2.189 3.825-2.189.95 0-1.855-1.787-4.2-3.2-4.2-1.502 0-.859 6.764.7 7.362 1.029.395 1.5 2.003 1.5 5.126 0 3.106.777 5.783 2.446 8.427 2.081 3.296 3.09 3.953 6.75 4.399 6.546.797 10.858 1.593 14.238 2.63 1.686.516 5.617 1.332 8.735 1.813 5.274.812 5.7.729 6.121-1.192.249-1.136.784-2.852 1.188-3.815.547-1.301.259-1.753-1.121-1.763-2.785-.02-16.47-4.558-17.211-5.707-.355-.551-2.179-1.787-4.052-2.747s-4.319-2.597-5.436-3.637c-1.954-1.82-1.967-2.025-.344-5.428.927-1.945 1.686-5.492 1.686-7.883 0-4.31-.039-4.357-4.443-5.466C10.968 73.46 9 73.662 9 76m186.2 11.2c-1.945 1.945-1.396 2.8 1.8 2.8 2.333 0 3-.444 3-2 0-2.255-2.867-2.733-4.8-.8M139 89c-1.908.611-1.197.808 3 .83 3.932.021 4.93-.216 3.5-.83-2.414-1.037-3.261-1.037-6.5 0m-37.75.662C98.535 90.758 100.231 92 104.441 92c5.287 0 6.812-1.499 2.418-2.378-3.444-.689-3.808-.686-5.609.04M134 90c0 .55.477 1 1.059 1s.781-.45.441-1-.816-1-1.059-1-.441.45-.441 1m-82.304 4.637c-1.486 1.487-.669 6.307 1.243 7.331 1.067.57 2.182.646 2.478.167.729-1.18-2.842-8.376-3.721-7.498m-38.015 5.999c1.911 2.916 6.856 5.364 10.837 5.364 1.42 0 3.951.708 5.625 1.574 1.673.865 3.326 1.291 3.671.945.809-.809-1.828-2.484-3.942-2.504-.895-.008-2.167-.665-2.826-1.46s-3.64-1.952-6.623-2.571c-3.509-.728-5.423-1.63-5.423-2.555 0-.786-.685-1.429-1.523-1.429-1.312 0-1.284.365.204 2.636M1.079 106.75c-.081 4.38.817 5.285 2.833 2.856.886-1.067.835-1.716-.217-2.768-.755-.756-1.635-2.041-1.955-2.856s-.618.43-.661 2.768M60 104.5c0 .825.45 1.5 1 1.5s1-.675 1-1.5-.45-1.5-1-1.5-1 .675-1 1.5m84.079 4.083c.048 1.165.285 1.402.604.605.289-.722.253-1.585-.079-1.917s-.568.258-.525 1.312M70 112c0 .55.702 1 1.559 1s1.281-.45.941-1-1.041-1-1.559-1-.941.45-.941 1m-8 3.5c0 1.682.184 1.75 2.412.895 1.831-.702 1.145-2.395-.971-2.395-.793 0-1.441.675-1.441 1.5m76.115.893c-1.312.727-1.935 1.6-1.384 1.941s1.807-.271 2.79-1.358c2.08-2.297 1.855-2.39-1.406-.583m-2.635 5.372c-1.408 1.014-3.621 6.235-2.644 6.235.437 0 1.545-1.575 2.463-3.5 1.771-3.715 1.783-3.888.181-2.735M116 127c0 .55.45 1 1 1s1-.45 1-1-.45-1-1-1-1 .45-1 1m10 2c0 1.174.769 1.174 3.5 0 1.772-.762 1.687-.867-.75-.93-1.513-.038-2.75.38-2.75.93m58.667 2.667c-.367.366-.667 1.131-.667 1.7 0 .626.466.567 1.183-.15.651-.651.951-1.416.667-1.7s-.817-.217-1.183.15M.158 141c0 1.375.227 1.938.504 1.25.278-.687.278-1.812 0-2.5-.277-.687-.504-.125-.504 1.25m53.666 10.044-.378 3.966 6.527-.603c3.59-.332 9.902-.948 14.027-1.369 7.011-.715 10.096-.582 6.893.297-3.534.97-9.581 2.871-11.393 3.582-1.1.431-3.575 1.349-5.5 2.04-8.3 2.979-10.128 3.771-11.215 4.858-2.075 2.075.035 2.447 2.907.513 2.551-1.717 7.36-3.437 21.808-7.8 5.221-1.577 23.041-5.178 32.5-6.567 3.563-.523.569-.632-8.5-.309-7.7.274-17.825.039-22.5-.522-4.675-.562-12.167-1.254-16.649-1.537l-8.148-.515zM120.5 148l-5 .686 5.5.142c3.025.078 6.175-.295 7-.828 1.738-1.123.689-1.123-7.5 0m49.02 6.968c-.907 1.467.389 5.208 2.502 7.226.976.932 1.932 2.128 2.126 2.658.194.531 1.252 1.119 2.352 1.306 1.753.3 1.97-.148 1.755-3.626-.136-2.202-1.026-4.713-2-5.645-2.31-2.209-5.92-3.237-6.735-1.919M.425 179c0 11.825.144 16.662.321 10.75s.177-15.588 0-21.5S.425 167.175.425 179M84 159.059c0 .582.45.781 1 .441s1-.816 1-1.059-.45-.441-1-.441-1 .477-1 1.059m2.985.987c-1.367 1.05-2.035 1.905-1.485 1.9 1.323-.013 4.978-2.802 4.412-3.367-.243-.243-1.56.417-2.927 1.467m101.549.917c-.977 1.079-1.511 2.654-1.187 3.5.757 1.973 2.653 1.999 2.653.037 0-.825.873-1.5 1.941-1.5 2.783 0 3.455-1.718 1.153-2.95-2.55-1.364-2.489-1.376-4.56.913M79.02 164.476c-.789.95-.865 1.524-.201 1.524 1.208 0 2.617-1.897 1.924-2.591-.252-.251-1.027.229-1.723 1.067m-5.436 3.165c-.527 1.373-.38 1.435.893.378 1.735-1.44 1.916-2.019.63-2.019-.491 0-1.176.739-1.523 1.641m110.666-.873c-3.442.567-2.808 3.114.75 3.013 1.737-.049 3-.628 3-1.374 0-1.67-.974-2.096-3.75-1.639m-7.25 3.986c0 1.247 3.92 6.093 3.967 4.904.018-.464-.867-1.987-1.967-3.385-1.1-1.399-2-2.082-2-1.519m15.31 1.564c-.282.45-1.165.568-1.963.262-.798-.307-1.208-.164-.911.317.298.481-.579 1.088-1.948 1.35-1.387.265-2.488.006-2.488-.586q-.001-1.059-1.133.072c-1.397 1.397-.308 4.657 1.238 3.702.615-.38 4.106-.746 7.757-.813 6.422-.118 6.648-.209 6.948-2.805.289-2.505.067-2.671-3.339-2.5-2.006.101-3.879.551-4.161 1.001m-50.163 4.57c-.868.55.8 1.012 4.662 1.292 5.164.373 6.676.976 10.686 4.263 5.853 4.796 6.301 5.989 3.61 9.629-2.848 3.851-1.672 3.747 1.994-.178l2.901-3.105-2.573-3.058c-4.071-4.838-7.111-6.828-12.711-8.319-6.1-1.623-6.769-1.664-8.569-.524m-85.572 3.171c-1.495 1.507-1.595 1.941-.45 1.941 1.585 0 3.875-1.891 3.875-3.2 0-1.312-1.376-.806-3.425 1.259m80.504 8.524c.048 1.165.285 1.402.604.605.289-.722.253-1.585-.079-1.917s-.568.258-.525 1.312M156.5 189c.34.55.816 1 1.059 1s.441-.45.441-1-.477-1-1.059-1-.781.45-.441 1m9.526 3.5c.02 2.141 3.914 7.832 3.952 5.774.012-.674-.876-2.699-1.974-4.5-1.561-2.56-1.992-2.838-1.978-1.274m-46.443 1.143c-.918 2.394-.202 2.578 1.213.312.672-1.075.815-1.955.319-1.955s-1.185.739-1.532 1.643"/><path fill-opacity=".569" fill-rule="evenodd" d="M25.174 5.005c-1.367 1.14-2.021 2.433-1.586 3.137.505.818.213.996-.924.559-1.299-.498-1.667-.042-1.678 2.08C20.965 14.959 19.904 18 18.467 18c-3.086 0-1.546 7.523 1.753 8.57.979.311 1.78 1.405 1.78 2.432 0 4.036-2.409 7.785-9.317 14.498C3.943 51.995 2 54.441 2 56.952c0 1.062-.45 2.208-1 2.548-1.549.958-1.305 15.832.25 15.232.96-.371 1.175 1.74.927 9.095-.486 14.388 2.17 23.446 7.434 25.349 3.51 1.27 4.165 2.226 2.308 3.374-.595.368-.811 1.744-.481 3.059.339 1.35.156 2.391-.419 2.391-.56 0-1.019.691-1.019 1.535 0 .845-.787 2.738-1.75 4.208-2.544 3.887-2.509 24.182.051 29.352 1.813 3.661 2.208 6.058 1.883 11.405-.18 2.96-.25 2.995-5.183 2.653L0 166.807v3.596C0 172.382.501 174 1.113 174c.739 0 .869 1.094.388 3.25-.4 1.787-.931 7.637-1.18 13L-.133 200h46.937l.688-5.927c.431-3.721 1.222-6.133 2.122-6.478.979-.376 1.234-1.352.802-3.073-.472-1.883-.24-2.522.917-2.522 2.001 0 3.059 1.694 1.423 2.278-.691.246-.94.788-.554 1.204.387.416 1.37.089 2.186-.727 1.039-1.039 1.168-1.799.43-2.537s-.42-1.45 1.064-2.376c1.165-.728 2.121-1.777 2.126-2.333.004-.555 1.87-2.134 4.146-3.509 2.277-1.375 5.311-3.283 6.743-4.239 1.431-.957 3.728-2.289 5.103-2.961s3.573-2.026 4.885-3.01c2.925-2.195.753-2.371-3.284-.266-1.594.831-3.063 1.348-3.263 1.147-.201-.201 3.353-2.262 7.898-4.581s7.364-3.927 6.264-3.573c-1.1.353-4.25 1.033-7 1.51-6.907 1.199-20.475 5.805-22.21 7.541-.788.787-1.851 1.432-2.361 1.432s-.929.637-.929 1.417c0 .779-.563 1.648-1.25 1.932s.212.265 2-.042c1.788-.306 3.25-.336 3.25-.065s-1.8 1.683-4 3.139l-4 2.647.017-2.264c.01-1.245.694-5.414 1.52-9.264s1.416-9.056 1.312-11.57c-.237-5.71.447-6.837 3.905-6.429 11.033 1.303 51.034 1.636 64.457.538 15.577-1.274 19.968-1.02 37.211 2.153 5.532 1.017 7.007 1.022 7.34.023.229-.688.94-1.805 1.579-2.483 1.925-2.04 6.659-9.619 6.659-10.661 0-.534.614-1.331 1.365-1.771.75-.44 2.213-2.321 3.25-4.181 3.521-6.314 4.203-7.389 5.079-8.004.774-.544 7.116-9.586 9.806-13.981.55-.899 1.367-1.904 1.816-2.234.448-.329 1.445-1.812 2.214-3.295 1.065-2.052 1.109-2.782.184-3.057-.668-.199-9.539-.872-19.714-1.496s-21.762-1.402-25.75-1.728c-5.088-.416-7.25-.254-7.25.542 0 .758 2.871 1.134 8.667 1.134 15.42 0 8.133 1.051-10.783 1.554-10.169.271-19.501.987-20.884 1.602-7.68 3.415-7.241 2.971-5.005 5.054 1.103 1.028 2.005 2.252 2.005 2.721 0 .468 1.184 1.149 2.632 1.513s3.365 1.565 4.26 2.671c2.133 2.634 8.966 3.558 13.025 1.761 2.655-1.175 3.083-1.886 3.083-5.12 0-3.366.267-3.756 2.567-3.756 2.198 0 2.47.324 1.885 2.25-.375 1.237-1.53 3.179-2.567 4.314S142 115.107 142 115.692s-.653 1.605-1.45 2.267c-.798.662-2.827 3.642-4.509 6.622-2.268 4.018-3.638 5.423-5.3 5.436-1.232.01-5.391.713-9.241 1.562-19.213 4.238-30.294 6.382-33.091 6.4-1.7.012-5.3.714-8 1.561-6.731 2.113-13.824 3.454-20.659 3.907-5.746.38-6.442-.058-5.869-3.695.065-.411-.823-3.466-1.973-6.788-1.407-4.066-1.77-6.436-1.111-7.252.538-.667.854-2.714.7-4.55-.247-2.96-.039-3.276 1.834-2.786 1.712.448 1.549.093-.859-1.876-2.264-1.85-4.189-2.437-8.082-2.464-7.734-.054-14.39-1.175-14.39-2.422 0-.641-2.23-1.236-5.25-1.401-6.97-.381-11.413-1.894-13.247-4.512-.961-1.372-1.503-1.633-1.503-.724 0 .88-.343 1.06-.898.473-1.078-1.141-1.969-7.063-2.738-18.208-.504-7.304-.385-8.187 1.033-7.643.882.338 1.603.154 1.603-.409s-.523-1.198-1.163-1.411c-.639-.213-1.274-1.151-1.411-2.083-.2-1.364.565-1.694 3.912-1.685 2.289.006 5.85.29 7.912.631l3.75.62v6.146c0 3.843-.562 6.949-1.499 8.287-1.41 2.013-1.269 2.32 2.394 5.222C25.036 96.613 27.138 98 27.565 98c.428 0 1.488.64 2.356 1.423 2.684 2.42 19.449 7.354 21.902 6.447 2.524-.934 2.832-2.405.677-3.232-1.07-.41-1.502-2.088-1.506-5.857-.003-2.904-.472-6.961-1.042-9.014-.897-3.232-.747-4.125 1.12-6.651 1.752-2.37 2.037-3.733 1.519-7.267-.351-2.392-.65-5.474-.664-6.849-.06-5.749-5.681-17-8.492-17-.715 0-1.573-.858-1.906-1.908-.73-2.301-3.357-3.478-4.906-2.198-3.637 3.007-14.636-5.473-14.608-11.262.012-2.39.245-2.777.985-1.632.533.825.976 2.239.985 3.143.021 2.294 2.136 2.867 8.013 2.171 5.297-.628 7.936-2.314 3.62-2.314-1.375 0-2.778-.45-3.118-1s.084-1 .941-1c1.625 0 2.056-1.169.87-2.356-.379-.379-.612-3.604-.518-7.166S33.552 18 33.047 18c-.504 0-2.12-.457-3.591-1.017-2.129-.809-2.439-1.298-1.523-2.402.783-.944.813-1.499.093-1.739-.713-.238-.768-1.898-.171-5.097.984-5.263.697-5.555-2.681-2.74m-1.432 11.983c-2.343 2.737-2.259 6.713.159 7.48 1.045.332 2.178 1.713 2.519 3.068.736 2.934 2.131 3.171 3.51.595 1.15-2.149.503-3.131-2.061-3.131-2.594 0-4.222-3.472-2.839-6.055 1.607-3.004.739-4.324-1.288-1.957m12.651 2.594c.334.87.607 1.77.607 2 0 .936 3.617.265 5.25-.974C44.915 18.585 44.387 18 39.893 18c-3.334 0-3.993.298-3.5 1.582M10.158 84c0 1.375.227 1.938.504 1.25.278-.687.278-1.812 0-2.5-.277-.687-.504-.125-.504 1.25m10.682 20.161c2.387 1.096 4.566 1.766 4.843 1.49.746-.746-5.296-3.664-7.383-3.567-.998.047.134.972 2.54 2.077M128 104c-2.301 1.8-2.34 1.957-.491 1.978 1.106.012 2.572-.878 3.259-1.978 1.576-2.524.459-2.524-2.768 0m-64 2.393c0 .216.698.661 1.552.989.89.341 1.291.173.941-.393-.587-.951-2.493-1.406-2.493-.596m-15.921 5.19c.048 1.165.285 1.402.604.605.289-.722.253-1.585-.079-1.917s-.568.258-.525 1.312m148.671 4.864c-3.034 3.802-3.694 5.639-1.09 3.035 1.514-1.513 1.74-1.518 2.555-.063 1.278 2.285.004 3.749-2.951 3.39-2.234-.271-2.97.513-6.01 6.406-1.905 3.693-3.949 6.618-4.542 6.5s-1.741 1.135-2.55 2.785-1.774 3.225-2.145 3.5c-.637.473-4.017 6.913-4.017 7.654 0 .19 2.25.346 5 .346 3.314 0 5.012.421 5.036 1.25.069 2.391 4.7 7.065 6.367 6.426.878-.337 1.597-.177 1.597.355 0 .533 1.35.969 3 .969h3v-6.5c0-5.961-.939-8.026-2.5-5.5-.34.55-2.338 1-4.44 1-3.672 0-3.884-.187-5.38-4.729-.856-2.6-1.376-4.908-1.156-5.128s2.439.114 4.931.741c3.521.887 4.979.862 6.538-.112 1.832-1.144 2.007-2.322 2.007-13.513 0-6.742-.113-12.259-.25-12.259s-1.488 1.551-3 3.447M62 115c0 .55.45 1 1 1s1-.45 1-1-.45-1-1-1-1 .45-1 1m-4 4.047c0 .684.826.97 1.952.676 1.074-.281 2.165-.097 2.425.408.26.506.359.345.22-.356-.324-1.631-4.597-2.308-4.597-.728m40.073 34.74c-1.334.219-3.395 1.033-4.579 1.809-1.185.776-2.455 1.109-2.824.741-.952-.952-.803.905.2 2.487.676 1.066 1.691.925 5.234-.729 2.418-1.129 6.196-2.691 8.396-3.472l4-1.419-4 .092c-2.2.05-5.092.271-6.427.491m-38.323 1.518c-2.612.567-4.75 1.405-4.75 1.863 0 1.565 9.494.782 13.5-1.113l4-1.893-4 .057c-2.2.031-6.138.52-8.75 1.086m79.25 8.101a332 332 0 0 0-6.22 2.42c-6.511 2.637-22.756 22.314-22.786 27.602-.004.589-.652 2.31-1.441 3.822l-1.434 2.75h3.832c3.336 0 3.921-.352 4.514-2.718 1.409-5.611 6.06-13.929 10.36-18.526 2.447-2.616 4.879-4.756 5.404-4.756s2.1-.9 3.498-2c2.076-1.633 4.032-1.995 10.658-1.975 7.675.023 8.373.214 12.867 3.511 4.577 3.358 11.252 11.294 10.3 12.245-.649.649-6.552-5.392-6.552-6.704 0-.592-.787-1.08-1.75-1.084-.963-.003-3.1-.9-4.75-1.993s-4.575-2.025-6.5-2.072-2.937-.313-2.25-.59c.688-.278 1.25-.919 1.25-1.425 0-1.458-8.911.001-13.12 2.148-4.559 2.326-10.88 8.41-10.88 10.472 0 .807-.398 1.467-.883 1.467-1.057 0-2.13 4.874-1.201 5.448.357.221 1.756-1.252 3.109-3.273 3.176-4.745 7.578-8.718 11.975-10.807 1.925-.915 3.831-2.16 4.235-2.766.516-.774.739-.78.75-.019.008.596 1.253 1.097 2.765 1.113 7.128.076 14.048 3.577 18.788 9.506 2.334 2.921 6.462 11.175 6.462 12.924 0 1.624.802 1.874 6.019 1.874h6.019l-.577-2.75c-3.586-17.078-10.969-27.839-22.519-32.822-6.198-2.674-14.435-3.096-19.942-1.022m-57.493 1.583c-.35.566.051.734.941.393 1.732-.665 2.049-1.382.611-1.382-.518 0-1.216.445-1.552.989M75.5 168c-.995 1.1-2.603 2-3.572 2s-1.911.348-2.095.773c-.183.425-2.473 2.176-5.089 3.89-3.061 2.007-4.267 3.306-3.383 3.645.756.29 4.401-1.46 8.1-3.89S76.594 170 77.093 170s.907-.637.907-1.417c0-.779.563-1.643 1.25-1.921.81-.327.689-.532-.345-.583-.877-.043-2.41.821-3.405 1.921m-70.866 3.852C2.257 174.479 2.5 178 5.059 178c1.132 0 1.8-.419 1.484-.931s-.118-1.213.441-1.559c1.24-.767 1.345-4.189.15-4.927-.477-.295-1.602.276-2.5 1.269m4.561.648c.02 1.65.244 2.204.498 1.231s.237-2.323-.037-3-.481.119-.461 1.769m29.429 3.039c-.343.893-.578 2.6-.522 3.793.065 1.37.405.883.924-1.325.873-3.717.636-5.174-.402-2.468m-29.545 2.044c.048 1.165.285 1.402.604.605.289-.722.253-1.585-.079-1.917s-.568.258-.525 1.312m131.417 1.424c-.62 1.003.198 1.476 4.004 2.318 1.223.271.737.488-1.25.559-1.787.064-3.25-.334-3.25-.884 0-1.635-3.011-1.135-3.681.611-.34.887.063 2.799.895 4.25 1.878 3.274 3.093 7.777 3.072 11.389-.016 2.716.064 2.75 6.393 2.75 6.995 0 8.162-.701 13.644-8.201l2.705-3.702-2.785-2.848c-5.4-5.525-17.773-9.436-19.747-6.242m-103.36 4.661c-.075 1.193-.395 2.993-.712 4-.544 1.734-.514 1.737.566.053.628-.978.948-2.778.712-4-.429-2.219-.43-2.219-.566-.053m92.773 2.582c-2.365 2.582-2.651 3.319-1.39 3.584 1.326.278 1.373.593.284 1.912-1.03 1.249-1.041 1.667-.053 2 .688.231 1.25 1.193 1.25 2.137 0 2.519 2.019 4.117 5.2 4.117 2.333 0 2.8-.424 2.8-2.543 0-3.407-3.291-14.454-4.306-14.456-.444 0-2.147 1.462-3.785 3.249M151 184.393c0 .216.698.661 1.552.989.89.341 1.291.173.941-.393-.587-.951-2.493-1.406-2.493-.596m4.229 3.795c.618 1.854 2.771 2.161 2.771.395 0-.87-.713-1.583-1.583-1.583-.871 0-1.406.534-1.188 1.188m-12.159 1.593c.039.396.413 1.595.832 2.665.734 1.875.783 1.868 1.319-.185.345-1.318.027-2.335-.832-2.665-.764-.293-1.357-.21-1.319.185m7.43.219c.34.55 1.068 1 1.618 1s.722-.45.382-1-1.068-1-1.618-1-.722.45-.382 1m12.307 2.816c-.719.999-2.094 2.109-3.057 2.468-2.72 1.015-2.253 4.716.595 4.716 3.03 0 5.655-2.937 5.655-6.329 0-3.097-1.325-3.452-3.193-.855m-38.342 1.241c-1.232 1.993.478 5.943 2.573 5.943 1.675 0 1.893-.448 1.343-2.75-1.061-4.437-2.448-5.568-3.916-3.193M120 196.892c0 .674-.403.977-.895.673-.493-.305-1.153.119-1.469.941-.336.875-.009 1.494.788 1.494 1.418 0 3.013-2.896 2.1-3.81-.288-.288-.524.028-.524.702m45.667.775c-1.262 1.261-.663 2.333 1.302 2.333 1.339 0 1.784-.48 1.393-1.5-.616-1.604-1.615-1.913-2.695-.833"/><path fill-opacity=".886" fill-rule="evenodd" d="M25.607 19.582C24.688 21.976 24.721 22 28.883 22c3.043 0 3.997-.433 4.407-2 .455-1.741.03-2-3.277-2-2.542 0-4 .523-4.406 1.582M37 19.5c0 1.614.916 1.853 3.418.893C42.853 19.459 42.293 18 39.5 18c-1.556 0-2.5.567-2.5 1.5M23.706 29.927c.869 4.842 3.978 8.08 7.724 8.041l3.07-.031-2.616-2.219-4.5-3.815c-1.036-.879-2.426-2.454-3.088-3.5-1.032-1.631-1.116-1.412-.59 1.524m7.166-1.177c-1.243 1.586-1.208 1.621.378.378.962-.755 1.75-1.543 1.75-1.75 0-.823-.821-.294-2.128 1.372M10.25 46.581C3.768 53.26 2 55.704 2 57.982c0 1.595-.45 3.178-1 3.518s-.997 3.179-.994 6.309L.012 73.5l10.6.189c5.829.104 10.889.481 11.244.838 1.109 1.118.52 13.315-.715 14.803-2.191 2.641-.861 3.992 9.804 9.956 3.18 1.779 11.437 4.678 13.393 4.703 1.145.015-.149-7.75-1.954-11.731-.922-2.033-2.45-3.488-4.099-3.901l-2.629-.66 2.172-1.759C39.023 84.971 40 83.689 40 83.09c0-.64 2.049-1.09 4.965-1.09 4.127 0 5.167-.38 6.164-2.25 1.036-1.946.999-2.085-.28-1.031-.813.67-3.25 1.068-5.414.884-3.192-.272-4.351-.975-6.135-3.719-1.209-1.861-3.122-4.468-4.25-5.792-1.127-1.325-2.05-2.788-2.05-3.25S32.487 66 31.86 66s-1.768-.787-2.535-1.75c-1.325-1.661-1.458-1.655-2.61.119-.668 1.027-1.988 2.827-2.932 4L22.067 70.5l-.034-2.561C22.015 66.53 21.1 64.411 20 63.23s-2-3.494-2-5.141C18 54.761 16.14 50 14.839 50c-.461 0-.839-.408-.839-.906s.9-.671 2-.384c1.728.452 2 .031 2-3.093 0-4.831 1.983-4.693 5.5.383 2.957 4.267 6.386 5.256 9.036 2.607 1.191-1.191.98-1.565-1.456-2.574-1.568-.649-4.533-2.722-6.591-4.607-2.057-1.884-4.246-3.408-4.865-3.387-.618.022-4.837 3.866-9.374 8.542m17.563 1.102c.721.289 1.584.253 1.916-.079s-.258-.568-1.312-.525c-1.165.048-1.402.285-.604.604m21.266 47.9c.048 1.165.285 1.402.604.605.289-.722.253-1.585-.079-1.917s-.568.258-.525 1.312m-45 1c.048 1.165.285 1.402.604.605.289-.722.253-1.585-.079-1.917s-.568.258-.525 1.312m175.778 4.307c.961.609 1.029 1.062.233 1.554-.617.382-.834 1.161-.481 1.732.394.637-.083.824-1.234.484-3.076-.908-24.986-1.796-27.675-1.121-2.235.561-2.435 1.014-1.974 4.455.467 3.481.237 3.974-2.525 5.402-1.831.947-4.84 4.461-7.571 8.844l-4.533 7.272-8.298 2.173C110.191 135.773 100.073 138 97.108 138c-1.631 0-3.734.769-4.673 1.708-1.612 1.611-1.544 1.753 1.178 2.495 3.642.993 9.652 1.089 15.137.243 4.217-.651 4.972-.132 3.404 2.339-.642 1.013-5.779 1.17-24.235.742-12.88-.299-24.544-.766-25.919-1.038s-3.85-.119-5.5.339c-5.375 1.494 18.969 2.218 55.105 1.64 34.041-.544 36.431-.407 51.706 2.976 1.051.232 2.071-.301 2.43-1.272.986-2.663 5.619-9.596 6.999-10.472.693-.44 1.26-1.237 1.26-1.771 0-.897 4.788-8.789 6.023-9.929.299-.275 2.088-2.975 3.976-6s4.011-5.86 4.717-6.3 1.284-1.246 1.284-1.792c0-.545.9-1.958 2-3.138 1.1-1.181 2-3.109 2-4.286 0-1.838-.895-2.303-6.365-3.311-7.82-1.441-9.715-1.51-7.778-.283M5.764 103.545c.261 1.367.806 2.689 1.211 2.94s.522-.664.261-2.03c-.261-1.367-.806-2.689-1.211-2.94s-.522.664-.261 2.03m41.532-.647c-.998 1.597-.878 1.978.759 2.406 1.529.4 1.945-.006 1.945-1.898 0-2.891-1.088-3.096-2.704-.508M143 104.383c0 .211.9.619 2 .907 1.1.287 2 .115 2-.384 0-.498-.9-.906-2-.906s-2 .173-2 .383m-133 3.493c0 .544.9 1.275 2 1.624 2.2.698 2.596 2.014.919 3.05-.595.368-.823 1.697-.507 2.955.379 1.51.067 2.481-.919 2.859-.821.315-1.493 1.387-1.493 2.382s-.701 2.809-1.557 4.031c-.856 1.223-1.306 2.279-1 2.348s1.082.181 1.724.25 1.375.75 1.629 1.514c.262.784.01 1.109-.576.747-.572-.353-1.755-.368-2.63-.032-1.2.46-1.581 1.994-1.554 6.253.04 6.345 2.208 16.528 3.972 18.653.64.771.874 1.872.519 2.446s-.221 1.044.297 1.044c1.278 0 2.208 5.246 1.157 6.519-.463.56-.964 6.572-1.113 13.361-.168 7.658-.763 13.292-1.569 14.845C8.584 194.102 8 196.302 8 197.614V200h12.393c14.08 0 13.607.298 13.607-8.582 0-2.98.4-5.418.889-5.418s.84-.562.78-1.25.478-3.275 1.195-5.75c4.065-14.021 3.967-13.403 2.315-14.611-1.354-.99-1.274-1.224.634-1.83 1.753-.556 2.187-1.462 2.187-4.567 0-2.131.468-4.163 1.041-4.517.572-.354.76-1.527.417-2.608-.351-1.105.069-3.023.959-4.381 1.908-2.911 1.983-5.236.34-10.502-1.185-3.795-2.757-5.37-2.757-2.762 0 .688-.909.313-2.08-.858-2.576-2.575-2.497-8.776.08-6.303.825.791 3.075 1.461 5 1.487 3.192.044 3.554.352 4.118 3.5.618 3.447.619 3.446.75-.798.075-2.407-.327-4.25-.927-4.25-.582 0-.776-.457-.431-1.016a1.2 1.2 0 0 1 1.645-.388c.653.403.888-1.112.656-4.234l-.36-4.862-5.976-.076c-14.945-.191-21.244-1.6-31.725-7.095-1.512-.793-2.75-.997-2.75-.453m127.526 3.943c-.368.375-2.1 1.209-3.848 1.855l-3.178 1.174 3.559.076c4.161.089 8.247-2.209 5.679-3.194-.848-.326-1.844-.286-2.212.089m20.634 2.708c-.088 1.116-.881 3.057-1.762 4.315-1.906 2.722-1.013 4.202 1.2 1.989 1.001-1.002 1.403-2.749 1.136-4.941-.228-1.864-.486-2.478-.574-1.363m-131.91 4.196c-2.179.271-3.25.943-3.25 2.04 0 1.236.282 1.355 1.153.484.685-.685 1.802-.822 2.75-.337.878.449 3.579 1.119 6.002 1.489s4.897.982 5.5 1.359 1.545.764 2.095.86 2.243.496 3.761.889c2.2.57 2.646.415 2.195-.76-.802-2.091-12.82-7.044-15.956-6.576-.55.082-2.462.331-4.25.552m.016 9.237c.031 3.277.433 5.726.895 5.441 1.13-.699 1.077-11.401-.056-11.401-.493 0-.87 2.682-.839 5.96m7.765.04c0 2.475.451 5.175 1.003 6 .731 1.092.948.211.798-3.243-.272-6.279-1.801-8.62-1.801-2.757M41 130.057c0 1.005 4.95 1.832 5.514.921.256-.415-.88-.951-2.524-1.193-1.645-.241-2.99-.119-2.99.272m107 2.002c0 .582.45.781 1 .441s1-.816 1-1.059-.45-.441-1-.441-1 .477-1 1.059m-11.75 2.647c-3.108.598-2.904 3.294.25 3.294 1.833 0 2.5-.533 2.5-2 0-1.1-.113-1.939-.25-1.864s-1.262.331-2.5.57m29.25.294c.34.55.816 1 1.059 1s.441-.45.441-1-.477-1-1.059-1-.781.45-.441 1m-116.957 1.931c-.317.512-.118 1.213.441 1.559s1.016-.074 1.016-.931c0-1.757-.6-2.015-1.457-.628m134.124.736c-1.426 1.425-.609 3.131 1.264 2.641 1.148-.3 1.713-1.073 1.393-1.907-.581-1.514-1.597-1.795-2.657-.734m-134.062 4.921c-.333.866-.605 2.445-.605 3.507s-.401 2.714-.89 3.669c-1.679 3.274-5.006 15.737-5.669 21.236-.365 3.025-1.288 7.017-2.052 8.872s-1.392 4.78-1.395 6.5-.609 4.283-1.346 5.695c-.736 1.411-1.642 3.774-2.013 5.25L33.962 200h11.842l.694-6.25c.382-3.437 1.341-9.625 2.131-13.75 1.867-9.742 3.037-37.47 1.619-38.347-.571-.353-1.311.068-1.643.935m93.395-.529c0 .582.45.781 1 .441s1-.816 1-1.059-.45-.441-1-.441-1 .477-1 1.059m-20.388 1.51c-.451 1.174-.057 1.489 1.565 1.25 1.191-.175 2.352-.881 2.578-1.569.609-1.848-3.431-1.537-4.143.319m57.971.074c-.952 2.483.098 2.822 1.371.443.614-1.148.699-2.086.188-2.086s-1.212.739-1.559 1.643m18.932 3.694c-.728 1.681-1.674 1.776-11.155 1.13-7.743-.528-10.36-.405-10.36.485 0 .655 1.012 1.109 2.25 1.009s4.938-.133 8.223-.072c5.654.105 5.856.192 3.791 1.638-1.199.84-1.945 2.141-1.657 2.891 1.156 3.012 10.901-3.923 10.115-7.199-.379-1.577-.478-1.568-1.207.118M35.5 159c.34.55.816 1 1.059 1s.441-.45.441-1-.477-1-1.059-1-.781.45-.441 1m105 4.704-5 1.641 4.831.756c6.561 1.027 14.726 3.918 17.233 6.101 1.136.989 2.353 1.798 2.705 1.798.941 0 5.731 4.951 5.731 5.923 0 .458.664 1.383 1.476 2.057 1.744 1.448 6.524 11.247 6.524 13.376 0 3.204 1.28 4.644 4.126 4.644 3.224 0 3.202.669.347-10.5-2.755-10.776-9.926-19.91-18.809-23.961-7.168-3.268-13.076-3.834-19.164-1.835M68 168.5c-1.72.983-1.992 1.44-.872 1.465.895.019 2.187-.64 2.872-1.465 1.523-1.835 1.209-1.835-2 0m62 2.5c0 .55.702 1 1.559 1s1.281-.45.941-1-1.041-1-1.559-1-.941.45-.941 1m-4.63 1.477c-.321.838-1.098 1.537-1.727 1.554-2.55.069-10.786 13.081-14.064 22.219l-1.345 3.75h3.05c1.677 0 2.784-.266 2.459-.59-.325-.325.016-2.309.757-4.41s1.048-4.119.682-4.485.118-1.104 1.076-1.64S118 187.023 118 185.95s.399-1.95.886-1.95 1.634-1.575 2.547-3.5 2.315-3.5 3.114-3.5 1.453-.644 1.453-1.43c0-.787.918-1.575 2.039-1.75l2.039-.32-2.062-1.273c-1.723-1.064-2.157-1.023-2.646.25M58 174c0 .55.477 1 1.059 1s.781-.45.441-1-.816-1-1.059-1-.441.45-.441 1m69.131 6.342c-1.533 1.848-.221 2.89 1.488 1.182.76-.76 1.381-1.638 1.381-1.953 0-1.053-1.744-.585-2.869.771m18.873.528c3.028.969 7.471 3.186 9.875 4.928s4.822 2.887 5.374 2.545c.57-.352.192-1.069-.875-1.659-1.033-.571-2.365-1.693-2.961-2.493-1.468-1.972-10.219-5.202-13.917-5.136-2.451.043-1.993.375 2.504 1.815M50 181c0 .55.9 1 2 1s2-.45 2-1-.9-1-2-1-2 .45-2 1m87 2.5c0 1.375.437 2.5.972 2.5s1.689 2.467 2.566 5.482c1.444 4.967 2.95 7.363 3.981 6.332.424-.424-2.02-8.421-4.144-13.564-1.595-3.862-3.375-4.257-3.375-.75m-118.02.024c-.696.838-1.04 1.749-.766 2.024.906.905 3.786-.734 3.786-2.155 0-1.835-1.441-1.772-3.02.131M142 184c0 1.1.9 2.9 2 4 1.473 1.473 2 3.333 2 7.06v5.061l3.66-.311c2.667-.226 3.733-.815 3.928-2.168.147-1.022 1.199-2.851 2.339-4.065 2.436-2.593 2.612-3.577.64-3.577-.788 0-1.697-.787-2.02-1.75-.613-1.829-8.421-6.25-11.036-6.25-.844 0-1.511.882-1.511 2m-10.75 1.662c-1.567.632-1.651 6.972-.105 7.928.792.489.987-.121.631-1.981-.331-1.73-.115-2.55.605-2.301.638.221 1.101 2.6 1.076 5.539-.039 4.718.151 5.153 2.25 5.153 1.463 0 2.293-.597 2.293-1.647 0-2.213-4.106-13.374-4.884-13.274-.339.043-1.178.306-1.866.583M149 189c0 .55.441 1 .981 1 .539 0 1.263 1.125 1.608 2.5s1.029 2.5 1.519 2.5c1.591 0 .942-4.241-.858-5.608-2.111-1.602-3.25-1.74-3.25-.392m19.031 1.5c0 .55.436 1.675.969 2.5s.969 1.05.969.5-.436-1.675-.969-2.5-.969-1.05-.969-.5m-4.781 2.239c-.687.235-1.25 1.013-1.25 1.728s-.9 1.535-2 1.823c-2.516.658-2.644 3.71-.155 3.71 1.015 0 2.626-.863 3.58-1.918 1.921-2.122 1.793-6.017-.175-5.343m-38.164 2.761c-.031 1.1.381 2.675.914 3.5.862 1.333.963 1.333.914 0-.03-.825-.441-2.4-.914-3.5l-.859-2zM165.5 199c-.34.55.084 1 .941 1s1.559-.45 1.559-1-.423-1-.941-1-1.219.45-1.559 1"/></svg>