<svg xmlns="http://www.w3.org/2000/svg" width="250" height="250" version="1.1" fill="#000000"><path fill-opacity=".063" d="M 102.974 1.474 C 85.251 4.461, 65.665 12.723, 51.500 23.186 C 47.650 26.030, 40.417 32.476, 35.426 37.510 C 11.830 61.309, -0 90.327, -0 124.404 C -0 159.628, 11.592 188.451, 35.426 212.490 C 60.829 238.112, 89.203 249.992, 125 249.992 C 146.721 249.992, 165.613 245.558, 183.036 236.372 C 194.812 230.163, 203.802 223.355, 214.574 212.490 C 232.520 194.389, 244.335 171.809, 248.070 148.475 C 248.773 144.089, 249.719 140.072, 250.174 139.550 C 250.628 139.028, 250.993 131.603, 250.985 123.050 C 250.976 114.498, 250.623 108.045, 250.199 108.712 C 249.762 109.400, 248.885 106.465, 248.169 101.911 C 244.404 77.988, 232.428 55.356, 213.536 36.464 C 194.320 17.248, 172.055 5.613, 146.597 1.484 C 135.666 -0.289, 113.463 -0.294, 102.974 1.474 M 74 73 L 74 89 64 89 L 54 89 54 100 L 54 111 64 111 L 74 111 74 117.500 L 74 124 64 124 L 54 124 54 137 L 54 150 63.977 150 L 73.955 150 74.227 168.250 L 74.500 186.500 93.733 186.772 L 112.966 187.043 113.233 161.272 L 113.500 135.500 120.177 135.576 C 125.722 135.638, 127.417 136.082, 130.177 138.194 C 133.432 140.685, 139.720 151.109, 152.683 175.500 L 158.529 186.500 181.264 186.769 C 193.769 186.917, 204 186.825, 204 186.566 C 204 184.937, 174.206 138.895, 171.447 136.262 C 169.268 134.181, 165.901 132.425, 162.028 131.348 C 158.712 130.426, 156 129.367, 156 128.995 C 156 128.623, 158.388 127.784, 161.306 127.131 C 174.031 124.283, 183.773 117.167, 188.181 107.500 C 190.064 103.370, 190.463 100.761, 190.475 92.500 C 190.487 83.826, 190.147 81.770, 187.912 76.994 C 183.543 67.662, 175.668 61.168, 165.540 58.544 C 160.618 57.269, 152.127 57, 116.790 57 L 74 57 74 73 M 113 95.500 L 113 108 127.750 107.965 C 143.782 107.926, 145.773 107.409, 149.054 102.433 C 152.824 96.713, 150.688 87.615, 144.810 84.353 C 143.233 83.478, 137.818 83.060, 127.750 83.035 L 113 83 113 95.500 M 0.405 124.500 C 0.406 133.300, 0.559 136.766, 0.745 132.203 C 0.930 127.639, 0.929 120.439, 0.742 116.203 C 0.555 111.966, 0.404 115.700, 0.405 124.500" stroke="none" fill="#000000" fill-rule="evenodd"/><path fill-opacity=".322" d="M 105 1.527 C 85.449 4.593, 64.687 13.456, 49.500 25.221 C 2.480 61.645, -12.964 123.887, 11.628 177.851 C 21.166 198.780, 40.498 220.260, 60.687 232.360 C 106.704 259.940, 166.744 254.662, 206.736 219.520 C 228.996 199.960, 243.688 174.007, 248.072 146.500 C 248.773 142.100, 249.719 138.072, 250.174 137.550 C 251.230 136.335, 251.266 110.718, 250.210 111.370 C 249.775 111.639, 248.846 108.178, 248.146 103.679 C 244.436 79.858, 231.302 54.456, 213.836 37.323 C 203.631 27.313, 201.457 25.528, 192.160 19.526 C 167.196 3.408, 135.174 -3.205, 105 1.527 M 73.775 72.185 L 73.500 88.500 63.750 88.786 L 54 89.072 54 100.536 L 54 112 64.050 112 L 74.100 112 73.800 117.750 L 73.500 123.500 63.750 123.786 L 54 124.072 54 137 L 54 149.928 63.750 150.214 L 73.500 150.500 73.773 168.750 L 74.045 187 93.523 187 L 113 187 113 161.500 L 113 136 119.250 136.004 C 130.410 136.010, 131.871 137.649, 148.457 168.750 L 158.189 187 181.201 187 C 200.235 187, 204.123 186.764, 203.690 185.635 C 202.080 181.438, 173.390 136.665, 171.214 134.954 C 169.788 133.832, 166.007 132.146, 162.812 131.207 C 159.617 130.268, 157.002 129.269, 157.001 128.987 C 157.001 128.704, 159.300 127.927, 162.111 127.259 C 174.796 124.246, 184.199 117.537, 188.064 108.742 C 191.449 101.040, 191.960 86.549, 189.114 79 C 185.509 69.438, 178.093 62.388, 167.500 58.454 C 162.968 56.770, 158.357 56.562, 118.275 56.233 L 74.050 55.869 73.775 72.185 M 113 95.500 L 113 108 126.532 108 C 141.249 108, 145.458 107.002, 148.164 102.872 C 152.304 96.555, 150.826 88.693, 144.810 85.026 C 141.900 83.251, 139.779 83.007, 127.250 83.004 L 113 83 113 95.500 M 0.392 125 C 0.392 132.425, 0.549 135.463, 0.742 131.750 C 0.934 128.037, 0.934 121.963, 0.742 118.250 C 0.549 114.537, 0.392 117.575, 0.392 125" stroke="none" fill="#000000" fill-rule="evenodd"/><path fill-opacity=".086" d="M 110 1.055 C 55.578 7.842, 11.638 49.683, 1.888 104 C 0.226 113.263, 0.212 137.251, 1.864 146 C 11.655 197.840, 50.770 237.655, 101.725 247.647 C 113.618 249.979, 136.418 249.972, 148.354 247.632 C 173.926 242.620, 199.503 228.354, 216.841 209.432 C 233.168 191.614, 245.177 166.332, 248.160 143.500 C 248.735 139.100, 249.609 134.719, 250.103 133.764 C 251.365 131.321, 251.272 114.714, 250 115.500 C 249.404 115.868, 249 114.663, 249 112.517 C 249 110.536, 248.286 105.460, 247.414 101.237 C 238.314 57.182, 208.311 22.369, 166.595 7.458 C 161.475 5.628, 153.524 3.418, 148.927 2.546 C 138.393 0.547, 119.783 -0.166, 110 1.055 M 73.713 56.620 C 73.321 57.012, 73 64.217, 73 72.630 L 73 87.928 63.250 88.214 L 53.500 88.500 53.500 100 L 53.500 111.500 63.250 111.786 L 73 112.072 73 117.500 L 73 122.928 63.250 123.214 L 53.500 123.500 53.500 137 L 53.500 150.500 63.250 150.786 L 73 151.072 73 168.336 C 73 180.430, 73.359 185.959, 74.200 186.800 C 75.048 187.648, 80.911 188, 94.200 188 L 113 188 113 162.611 L 113 137.223 116.584 136.550 C 120.567 135.803, 125.141 136.547, 129.147 138.593 C 132.367 140.238, 135.206 144.776, 147.721 168.285 C 153.055 178.303, 157.887 186.831, 158.459 187.235 C 159.032 187.639, 169.786 187.976, 182.357 187.985 C 201.715 187.998, 205.130 187.782, 204.668 186.577 C 203.283 182.968, 176.154 140.078, 173.152 136.751 C 170.710 134.045, 168.061 132.470, 163.634 131.092 C 160.252 130.040, 158.173 128.953, 159 128.669 C 159.825 128.387, 162.975 127.384, 166 126.442 C 173.675 124.052, 176.560 122.447, 181.699 117.710 C 187.139 112.695, 189.426 108.407, 191.044 100.184 C 193.790 86.225, 189.271 72.382, 179.453 64.675 C 168.869 56.369, 170.307 56.572, 119.463 56.219 C 94.693 56.047, 74.106 56.228, 73.713 56.620 M 113.750 83.580 C 113.338 83.994, 113 89.433, 113 95.667 L 113 107 128.100 107 L 143.200 107 146.600 103.600 C 149.484 100.716, 150 99.500, 150 95.585 C 150 91.726, 149.440 90.359, 146.578 87.235 L 143.156 83.500 128.828 83.163 C 120.948 82.978, 114.162 83.166, 113.750 83.580 M 0.360 125 C 0.360 130.225, 0.529 132.363, 0.735 129.750 C 0.941 127.138, 0.941 122.862, 0.735 120.250 C 0.529 117.638, 0.360 119.775, 0.360 125" stroke="none" fill="#000000" fill-rule="evenodd"/><path fill-opacity=".25" d="M 118 0.662 C 94.496 2.388, 74.479 9.260, 55.008 22.290 C 39.372 32.753, 22.196 52.581, 13.246 70.500 C -1.219 99.464, -3.339 135.659, 7.641 166.234 C 22.592 207.871, 60.104 239.874, 103 247.589 C 113.408 249.461, 133.717 249.677, 144.500 248.030 C 187.971 241.393, 227.121 208.669, 242.359 166.234 C 245.625 157.139, 249 140.806, 249 134.093 C 249 131.292, 249.450 129, 250 129 C 250.550 129, 250.993 126.638, 250.985 123.750 C 250.974 119.992, 250.694 118.926, 250 120 C 249.307 121.072, 249.026 119.976, 249.015 116.157 C 248.995 109.193, 245.658 92.952, 242.359 83.766 C 229.278 47.338, 198.814 17.939, 162 6.216 C 149.030 2.086, 130.486 -0.254, 118 0.662 M 73.731 55.602 C 73.329 56.004, 73 63.458, 73 72.167 L 73 88 62.969 88 L 52.938 88 53.219 100.250 L 53.500 112.500 63.250 112.786 L 73 113.072 73 118.036 L 73 123 63 123 L 53 123 53 137 L 53 151 63 151 L 73 151 73 169.521 L 73 188.041 93.250 187.771 L 113.500 187.500 113.767 162.250 L 114.034 137 120.440 137 C 125.854 137, 127.318 137.396, 129.888 139.559 C 132.490 141.749, 143.609 160.816, 154.637 182 L 157.500 187.500 181.371 187.768 C 203.929 188.022, 205.217 187.938, 204.773 186.239 C 203.930 183.018, 176.599 139.761, 172.953 135.878 C 170.585 133.357, 167.842 131.683, 164.703 130.843 C 162.116 130.151, 160.010 129.341, 160.022 129.043 C 160.034 128.744, 163.221 127.484, 167.104 126.242 C 184.279 120.748, 192 110.084, 192 91.856 C 192 75.576, 183.264 63.309, 167.500 57.454 C 162.970 55.771, 158.364 55.562, 118.481 55.234 C 94.270 55.034, 74.133 55.200, 73.731 55.602 M 114 95.500 L 114 107 127.750 106.996 C 139.438 106.993, 141.962 106.711, 144.580 105.115 C 150.819 101.310, 151.516 92.362, 146.003 86.850 L 143.154 84 128.577 84 L 114 84 114 95.500 M 0.300 125 C 0.300 128.025, 0.487 129.262, 0.716 127.750 C 0.945 126.237, 0.945 123.763, 0.716 122.250 C 0.487 120.737, 0.300 121.975, 0.300 125" stroke="none" fill="#000000" fill-rule="evenodd"/></svg>