<!-- Generated by IcoMoon.io -->
<svg version="1.1" xmlns="http://www.w3.org/2000/svg" width="32" height="32" viewBox="0 0 32 32" fill="#000000">
<title>roobee</title>
<path d="M10.695 0.44c-0.692 0.24-1.752 0.706-2.356 1.036s-1.494 0.895-1.978 1.255-1.33 1.085-1.88 1.61c-0.55 0.525-1 1.024-1 1.109s0.126 0.058 0.28-0.060c0.154-0.118 0.105-0.019-0.108 0.22s-0.42 0.435-0.46 0.435c-0.039 0 0.026-0.126 0.145-0.28 0.177-0.228 0.15-0.223-0.14 0.025-0.196 0.168-0.357 0.37-0.357 0.449s0.090 0.091 0.2 0.024c0.136-0.082 0.13-0.033-0.020 0.151-0.121 0.149-0.251 0.271-0.289 0.271s-0.016-0.090 0.050-0.2c0.082-0.136 0.033-0.13-0.151 0.020-0.149 0.121-0.271 0.287-0.271 0.369s0.090 0.098 0.2 0.035c0.116-0.067 0.144-0.054 0.067 0.031-0.073 0.080-0.207 0.146-0.297 0.146s-0.449 0.518-0.797 1.152c-0.348 0.634-0.836 1.75-1.083 2.48-0.445 1.313-0.45 1.371-0.449 5.248 0.001 3.689 0.023 3.989 0.38 5.084 0.208 0.64 0.598 1.597 0.865 2.126s0.55 0.922 0.629 0.874c0.079-0.049 0.196-0.004 0.259 0.099 0.072 0.117 0.047 0.144-0.069 0.073-0.102-0.063-0.185-0.069-0.185-0.014s0.076 0.241 0.168 0.414c0.092 0.173 0.232 0.275 0.309 0.227s0.193-0.003 0.257 0.1c0.072 0.117 0.047 0.144-0.069 0.073-0.102-0.063-0.185-0.047-0.185 0.036s0.122 0.249 0.271 0.369c0.184 0.149 0.232 0.155 0.151 0.020-0.066-0.11-0.089-0.2-0.050-0.2s0.169 0.122 0.289 0.271c0.149 0.184 0.155 0.232 0.020 0.151-0.11-0.066-0.2-0.055-0.2 0.024s0.161 0.282 0.357 0.449c0.354 0.302 0.355 0.302 0.125-0.015-0.173-0.239-0.122-0.221 0.203 0.068 0.239 0.213 0.435 0.42 0.435 0.46s-0.108-0.018-0.24-0.128-0.24-0.13-0.24-0.045c0 0.085 0.45 0.584 1 1.109s1.396 1.251 1.88 1.612c0.484 0.362 1.42 0.947 2.080 1.301s1.74 0.821 2.4 1.038c1.144 0.376 1.384 0.395 5.12 0.395s3.976-0.019 5.12-0.395c0.66-0.217 1.74-0.684 2.4-1.038s1.596-0.939 2.080-1.301c0.484-0.362 1.33-1.087 1.88-1.612s1-1.024 1-1.109-0.126-0.058-0.28 0.060c-0.154 0.118-0.105 0.019 0.108-0.22s0.42-0.435 0.46-0.435c0.039 0-0.026 0.126-0.145 0.28-0.177 0.228-0.15 0.223 0.14-0.025 0.196-0.168 0.357-0.37 0.357-0.449s-0.090-0.091-0.2-0.024c-0.136 0.082-0.13 0.033 0.020-0.151 0.121-0.149 0.251-0.271 0.289-0.271s0.016 0.090-0.050 0.2c-0.082 0.136-0.033 0.13 0.151-0.020 0.149-0.121 0.271-0.287 0.271-0.369s-0.090-0.098-0.2-0.035c-0.116 0.067-0.144 0.054-0.067-0.031 0.073-0.080 0.207-0.146 0.297-0.146s0.449-0.518 0.797-1.152c0.348-0.634 0.836-1.75 1.083-2.48 0.445-1.313 0.45-1.371 0.449-5.248-0.001-3.689-0.023-3.989-0.38-5.084-0.208-0.64-0.598-1.597-0.865-2.126s-0.55-0.922-0.629-0.874c-0.079 0.049-0.196 0.004-0.259-0.099-0.072-0.117-0.047-0.144 0.069-0.073 0.102 0.063 0.185 0.069 0.185 0.014s-0.076-0.241-0.168-0.414c-0.092-0.173-0.232-0.275-0.309-0.227s-0.193 0.003-0.257-0.1c-0.072-0.117-0.047-0.144 0.069-0.073 0.102 0.063 0.185 0.047 0.185-0.036s-0.122-0.249-0.271-0.369c-0.184-0.149-0.232-0.155-0.151-0.020 0.066 0.11 0.089 0.2 0.050 0.2s-0.169-0.122-0.289-0.271c-0.149-0.184-0.155-0.232-0.020-0.151 0.11 0.066 0.2 0.055 0.2-0.024s-0.161-0.282-0.357-0.449c-0.354-0.302-0.355-0.302-0.125 0.015 0.173 0.239 0.122 0.221-0.203-0.068-0.239-0.213-0.435-0.42-0.435-0.46s0.108 0.018 0.24 0.128 0.24 0.13 0.24 0.045c0-0.085-0.45-0.584-1-1.109s-1.396-1.251-1.88-1.612c-0.484-0.362-1.42-0.947-2.080-1.301s-1.74-0.82-2.4-1.037c-1.146-0.376-1.378-0.394-5.164-0.39-3.895 0.004-3.985 0.011-5.222 0.439zM11.56 0.461c-0.616 0.172-1.84 0.669-2.721 1.103s-2.068 1.163-2.64 1.619-0.859 0.632-0.639 0.392c0.22-0.24 0.868-0.747 1.44-1.125s1.413-0.874 1.868-1.103c0.456-0.229 1.356-0.595 2-0.815s1.316-0.396 1.492-0.392-0.184 0.148-0.8 0.321zM21.72 0.776c0.66 0.255 1.74 0.78 2.4 1.167s1.524 1.004 1.92 1.371c0.624 0.577 0.582 0.558-0.319-0.147-0.572-0.447-1.76-1.168-2.64-1.603s-2.105-0.936-2.721-1.116c-0.66-0.192-0.857-0.287-0.48-0.231 0.352 0.052 1.18 0.304 1.84 0.558zM5.080 4.013c0 0.027-0.27 0.297-0.6 0.6l-0.6 0.551 0.551-0.6c0.303-0.33 0.573-0.6 0.6-0.6s0.049 0.022 0.049 0.049zM27.48 4.525c0.299 0.308 0.507 0.56 0.463 0.56s-0.324-0.252-0.623-0.56c-0.299-0.308-0.507-0.56-0.463-0.56s0.324 0.252 0.623 0.56zM18.286 6.768c0.524 0.134 1.388 0.455 1.919 0.713s1.251 0.728 1.6 1.043l0.635 0.574-0.8-0.591c-0.44-0.325-1.16-0.757-1.6-0.959s-1.229-0.479-1.754-0.616-1.571-0.248-2.326-0.248c-0.755 0-1.802 0.111-2.326 0.248s-1.314 0.413-1.754 0.616c-0.44 0.202-1.16 0.634-1.6 0.959l-0.8 0.591 0.635-0.574c0.349-0.316 1.069-0.785 1.6-1.044s1.361-0.575 1.845-0.702 1.531-0.237 2.326-0.243c0.807-0.006 1.868 0.097 2.4 0.233zM18.286 7.088c0.524 0.134 1.402 0.461 1.949 0.728s1.384 0.839 1.858 1.272c0.474 0.433 0.896 0.753 0.939 0.711s0.214 0.080 0.382 0.272c0.168 0.192 0.206 0.29 0.085 0.219-0.152-0.089-0.197-0.060-0.147 0.092 0.041 0.122 0.152 0.222 0.247 0.222s0.233 0.066 0.307 0.146c0.079 0.086 0.043 0.093-0.088 0.018-0.121-0.070-0.19-0.064-0.152 0.014s0.26 0.538 0.493 1.022c0.234 0.484 0.536 1.309 0.672 1.834s0.248 1.571 0.248 2.326c0 0.755-0.111 1.802-0.248 2.326s-0.439 1.35-0.672 1.834c-0.234 0.484-0.456 0.944-0.493 1.022s0.031 0.085 0.152 0.014c0.13-0.076 0.166-0.068 0.088 0.018-0.073 0.080-0.211 0.146-0.307 0.146s-0.207 0.1-0.247 0.222c-0.051 0.153-0.005 0.182 0.147 0.092 0.121-0.071 0.083 0.027-0.085 0.219s-0.34 0.314-0.382 0.272c-0.042-0.042-0.464 0.278-0.939 0.711s-1.31 1.006-1.858 1.272c-0.548 0.266-1.425 0.594-1.949 0.728s-1.571 0.244-2.326 0.244c-0.755 0-1.802-0.11-2.326-0.244s-1.402-0.461-1.949-0.728c-0.548-0.267-1.384-0.839-1.858-1.272s-0.896-0.753-0.939-0.711c-0.042 0.042-0.214-0.080-0.382-0.272s-0.206-0.29-0.085-0.219c0.152 0.089 0.197 0.060 0.147-0.092-0.041-0.122-0.152-0.222-0.247-0.222s-0.233-0.066-0.307-0.146c-0.079-0.086-0.043-0.093 0.088-0.018 0.121 0.070 0.19 0.064 0.152-0.014s-0.26-0.538-0.493-1.022c-0.234-0.484-0.536-1.309-0.672-1.834s-0.248-1.571-0.248-2.326c0-0.755 0.111-1.802 0.248-2.326s0.439-1.35 0.672-1.834c0.234-0.484 0.456-0.944 0.493-1.022s-0.031-0.085-0.152-0.014c-0.13 0.076-0.166 0.068-0.088-0.018 0.073-0.080 0.211-0.146 0.307-0.146s0.207-0.1 0.247-0.222c0.051-0.153 0.005-0.182-0.147-0.092-0.121 0.071-0.083-0.027 0.085-0.219s0.34-0.314 0.382-0.272c0.042 0.042 0.464-0.278 0.939-0.711s1.31-1.006 1.858-1.273 1.392-0.59 1.876-0.717c0.484-0.128 1.531-0.237 2.326-0.243 0.807-0.006 1.868 0.097 2.4 0.233zM2.2 7.645c-0.094 0.176-0.207 0.32-0.251 0.32s-0.003-0.144 0.091-0.32c0.094-0.176 0.207-0.32 0.251-0.32s0.003 0.144-0.091 0.32zM29.72 7.405c0 0.044-0.036 0.080-0.080 0.080s-0.080-0.036-0.080-0.080c0-0.044 0.036-0.080 0.080-0.080s0.080 0.036 0.080 0.080zM1.88 8.205c0 0.044-0.036 0.080-0.080 0.080s-0.080-0.036-0.080-0.080c0-0.044 0.036-0.080 0.080-0.080s0.080 0.036 0.080 0.080zM30.2 8.205c0 0.044-0.036 0.080-0.080 0.080s-0.080-0.036-0.080-0.080c0-0.044 0.036-0.080 0.080-0.080s0.080 0.036 0.080 0.080zM1.72 8.525c0 0.044-0.036 0.080-0.080 0.080s-0.080-0.036-0.080-0.080c0-0.044 0.036-0.080 0.080-0.080s0.080 0.036 0.080 0.080zM30.36 8.525c0 0.044-0.036 0.080-0.080 0.080s-0.080-0.036-0.080-0.080c0-0.044 0.036-0.080 0.080-0.080s0.080 0.036 0.080 0.080zM1.56 8.845c0 0.044-0.036 0.080-0.080 0.080s-0.080-0.036-0.080-0.080c0-0.044 0.036-0.080 0.080-0.080s0.080 0.036 0.080 0.080zM30.52 8.845c0 0.044-0.036 0.080-0.080 0.080s-0.080-0.036-0.080-0.080c0-0.044 0.036-0.080 0.080-0.080s0.080 0.036 0.080 0.080zM1.4 9.165c0 0.044-0.036 0.080-0.080 0.080s-0.080-0.036-0.080-0.080c0-0.044 0.036-0.080 0.080-0.080s0.080 0.036 0.080 0.080zM9.4 9.155c0 0.039-0.083 0.122-0.185 0.185-0.114 0.071-0.141 0.044-0.070-0.070 0.063-0.102 0.146-0.185 0.185-0.185s0.071 0.032 0.071 0.071zM22.76 9.245c0.054 0.088 0.063 0.16 0.019 0.16s-0.124-0.072-0.179-0.16c-0.054-0.088-0.063-0.16-0.019-0.16s0.124 0.072 0.179 0.16zM30.68 9.165c0 0.044-0.036 0.080-0.080 0.080s-0.080-0.036-0.080-0.080c0-0.044 0.036-0.080 0.080-0.080s0.080 0.036 0.080 0.080zM1.24 9.485c0 0.044-0.036 0.080-0.080 0.080s-0.080-0.036-0.080-0.080c0-0.044 0.036-0.080 0.080-0.080s0.080 0.036 0.080 0.080zM30.84 9.485c0 0.044-0.036 0.080-0.080 0.080s-0.080-0.036-0.080-0.080c0-0.044 0.036-0.080 0.080-0.080s0.080 0.036 0.080 0.080zM0.94 10.153c-0.093 0.161-0.172 0.244-0.175 0.185s0.040-0.224 0.095-0.367c0.055-0.143 0.133-0.226 0.175-0.185s-0.001 0.206-0.095 0.367zM31.155 10.285c0 0.088-0.070 0.052-0.155-0.080s-0.155-0.312-0.155-0.4c0-0.088 0.070-0.052 0.155 0.080s0.155 0.312 0.155 0.4zM8.665 10.069c-0.071 0.114-0.044 0.141 0.070 0.070 0.102-0.063 0.185-0.146 0.185-0.185s-0.032-0.071-0.071-0.071c-0.039 0-0.122 0.083-0.185 0.185zM13.12 10.002c0.418 0.033 1.102 0.033 1.52 0s0.076-0.060-0.76-0.060c-0.836 0-1.178 0.027-0.76 0.060zM23.080 10.045c0.054 0.088 0.135 0.16 0.179 0.16s0.036-0.072-0.019-0.16c-0.054-0.088-0.135-0.16-0.179-0.16s-0.036 0.072 0.019 0.16zM17.683 11.116c-1.032 0.587-1.852 1.093-1.822 1.123s0.695-0.316 1.477-0.77c0.782-0.454 1.71-0.959 2.062-1.122s0.532-0.296 0.4-0.297c-0.132-0.001-1.085 0.479-2.117 1.066zM12.28 15.965v5.76h3.040l0.036-2.68 0.036-2.68 0.080 2.64 0.080 2.64 0.168-5.424 2.672-1.603c1.47-0.882 2.649-1.626 2.62-1.655s-1.267 0.679-2.752 1.572c-1.485 0.893-2.754 1.656-2.82 1.696s-0.12 0.037-0.12-0.007c0-0.044 1.264-0.84 2.81-1.769s2.913-1.69 3.040-1.69c0.127 0 0.23-0.076 0.23-0.168s-0.111-0.383-0.247-0.645c-0.136-0.263-0.311-0.438-0.389-0.389s-0.194 0.004-0.258-0.1c-0.072-0.117-0.047-0.144 0.069-0.073 0.102 0.063 0.185 0.069 0.185 0.014s-0.076-0.241-0.168-0.414c-0.092-0.173-0.232-0.275-0.309-0.227s-0.193 0.003-0.257-0.1c-0.072-0.117-0.047-0.144 0.069-0.073 0.102 0.063 0.185 0.038 0.185-0.055s-0.162-0.169-0.36-0.168c-0.198 0.001-0.936 0.33-1.64 0.732s-1.66 0.948-2.125 1.213c-0.465 0.266-0.834 0.422-0.821 0.348s0.015-0.657 0.005-1.295l-0.019-1.16h-3.040v5.76zM12.032 15.965c0 3.124 0.021 4.402 0.048 2.84s0.026-4.118 0-5.68c-0.026-1.562-0.048-0.284-0.048 2.84zM15.502 11.365c-0.012 0.594 0.033 1.080 0.099 1.080s0.1-0.342 0.073-0.76-0.071-0.904-0.099-1.080c-0.028-0.176-0.061 0.166-0.073 0.76zM0.614 11.021c-0.084 0.211-0.158 0.299-0.164 0.196s0.035-0.304 0.090-0.447c0.055-0.143 0.128-0.231 0.163-0.196s-0.005 0.236-0.090 0.447zM31.466 11.165c-0.006 0.158-0.056 0.131-0.146-0.080-0.076-0.176-0.141-0.392-0.146-0.48s0.061-0.052 0.146 0.080 0.151 0.348 0.146 0.48zM7.8 11.325c-0.094 0.176-0.207 0.32-0.251 0.32s-0.003-0.144 0.091-0.32c0.094-0.176 0.207-0.32 0.251-0.32s0.003 0.144-0.091 0.32zM20.44 11.085c0 0.044-0.036 0.080-0.080 0.080s-0.080-0.036-0.080-0.080c0-0.044 0.036-0.080 0.080-0.080s0.080 0.036 0.080 0.080zM24.28 11.325c0.094 0.176 0.135 0.32 0.091 0.32s-0.157-0.144-0.251-0.32c-0.094-0.176-0.135-0.32-0.091-0.32s0.157 0.144 0.251 0.32zM0.34 12.105c-0.056 0.281-0.136 0.478-0.176 0.437s-0.024-0.3 0.036-0.577c0.061-0.277 0.14-0.473 0.176-0.437s0.020 0.296-0.036 0.577zM31.773 12.365c-0.004 0.257-0.030 0.242-0.133-0.080-0.070-0.22-0.13-0.508-0.133-0.64-0.003-0.147 0.048-0.116 0.133 0.080 0.076 0.176 0.135 0.464 0.133 0.64zM7.48 11.885c0 0.044-0.036 0.080-0.080 0.080s-0.080-0.036-0.080-0.080c0-0.044 0.036-0.080 0.080-0.080s0.080 0.036 0.080 0.080zM20.92 11.885c0 0.044-0.036 0.080-0.080 0.080s-0.080-0.036-0.080-0.080c0-0.044 0.036-0.080 0.080-0.080s0.080 0.036 0.080 0.080zM24.6 11.885c0 0.044-0.036 0.080-0.080 0.080s-0.080-0.036-0.080-0.080c0-0.044 0.036-0.080 0.080-0.080s0.080 0.036 0.080 0.080zM7.081 13.036c-0.161 0.45-0.309 1.465-0.357 2.451-0.060 1.245-0.016 1.931 0.173 2.64 0.14 0.527 0.294 1.138 0.342 1.358s-0.070 0.004-0.262-0.48c-0.29-0.73-0.352-1.22-0.363-2.88-0.010-1.542 0.057-2.229 0.292-3.001 0.168-0.551 0.338-0.968 0.378-0.929s-0.052 0.418-0.203 0.841zM21.16 12.285c0.054 0.088 0.063 0.16 0.019 0.16s-0.124-0.072-0.179-0.16c-0.054-0.088-0.063-0.16-0.019-0.16s0.124 0.072 0.179 0.16zM25.301 15.965c0 1.855-0.050 2.284-0.353 3.040-0.194 0.484-0.314 0.7-0.267 0.48s0.193-0.793 0.323-1.274c0.13-0.48 0.236-1.491 0.236-2.246s-0.106-1.766-0.236-2.246c-0.13-0.48-0.275-1.054-0.323-1.274s0.072-0.004 0.267 0.48c0.303 0.756 0.353 1.185 0.353 3.040zM0.413 20.285c0.003 0.147-0.048 0.116-0.133-0.080-0.076-0.176-0.135-0.464-0.133-0.64 0.004-0.257 0.030-0.242 0.133 0.080 0.070 0.22 0.13 0.508 0.133 0.64zM31.72 19.965c-0.061 0.277-0.14 0.473-0.176 0.437s-0.020-0.296 0.036-0.577 0.136-0.478 0.176-0.437c0.041 0.041 0.024 0.3-0.036 0.577zM7.48 20.045c0 0.044-0.036 0.080-0.080 0.080s-0.080-0.036-0.080-0.080c0-0.044 0.036-0.080 0.080-0.080s0.080 0.036 0.080 0.080zM24.6 20.045c0 0.044-0.036 0.080-0.080 0.080s-0.080-0.036-0.080-0.080c0-0.044 0.036-0.080 0.080-0.080s0.080 0.036 0.080 0.080zM7.8 20.605c0.094 0.176 0.135 0.32 0.091 0.32s-0.157-0.144-0.251-0.32c-0.094-0.176-0.135-0.32-0.091-0.32s0.157 0.144 0.251 0.32zM24.28 20.605c-0.094 0.176-0.207 0.32-0.251 0.32s-0.003-0.144 0.091-0.32c0.094-0.176 0.207-0.32 0.251-0.32s0.003 0.144-0.091 0.32zM0.746 21.325c0.005 0.088-0.061 0.052-0.146-0.080s-0.151-0.348-0.146-0.48c0.006-0.158 0.056-0.131 0.146 0.080 0.076 0.176 0.141 0.392 0.146 0.48zM31.319 21.199c-0.174 0.272-0.179 0.272-0.091-0.007 0.051-0.161 0.098-0.377 0.105-0.48 0.009-0.135 0.035-0.133 0.091 0.007 0.043 0.107-0.004 0.323-0.105 0.48zM1.075 22.125c0 0.088-0.070 0.052-0.155-0.080s-0.155-0.312-0.155-0.4c0-0.088 0.070-0.052 0.155 0.080s0.155 0.312 0.155 0.4zM31.020 21.993c-0.093 0.161-0.172 0.244-0.175 0.185s0.040-0.224 0.095-0.367c0.055-0.143 0.133-0.226 0.175-0.185s-0.001 0.206-0.095 0.367zM8.68 21.885c0.054 0.088 0.135 0.16 0.179 0.16s0.036-0.072-0.019-0.16c-0.054-0.088-0.135-0.16-0.179-0.16s-0.036 0.072 0.019 0.16zM23.065 21.909c-0.071 0.114-0.044 0.141 0.070 0.070 0.102-0.063 0.185-0.146 0.185-0.185s-0.032-0.071-0.071-0.071c-0.039 0-0.122 0.083-0.185 0.185zM13.12 22.002c0.418 0.033 1.102 0.033 1.52 0s0.076-0.060-0.76-0.060c-0.836 0-1.178 0.027-0.76 0.060zM1.24 22.445c0 0.044-0.036 0.080-0.080 0.080s-0.080-0.036-0.080-0.080c0-0.044 0.036-0.080 0.080-0.080s0.080 0.036 0.080 0.080zM30.84 22.445c0 0.044-0.036 0.080-0.080 0.080s-0.080-0.036-0.080-0.080c0-0.044 0.036-0.080 0.080-0.080s0.080 0.036 0.080 0.080zM9.32 22.685c0.054 0.088 0.063 0.16 0.019 0.16s-0.124-0.072-0.179-0.16c-0.054-0.088-0.063-0.16-0.019-0.16s0.124 0.072 0.179 0.16zM22.84 22.595c0 0.039-0.083 0.122-0.185 0.185-0.114 0.071-0.141 0.044-0.070-0.070 0.063-0.102 0.146-0.185 0.185-0.185s0.071 0.032 0.071 0.071zM1.4 22.765c0 0.044-0.036 0.080-0.080 0.080s-0.080-0.036-0.080-0.080c0-0.044 0.036-0.080 0.080-0.080s0.080 0.036 0.080 0.080zM30.68 22.765c0 0.044-0.036 0.080-0.080 0.080s-0.080-0.036-0.080-0.080c0-0.044 0.036-0.080 0.080-0.080s0.080 0.036 0.080 0.080zM11.88 24.382c0.44 0.202 1.229 0.479 1.754 0.616s1.571 0.248 2.326 0.248c0.755 0 1.802-0.111 2.326-0.248s1.314-0.413 1.754-0.616c0.44-0.202 1.16-0.634 1.6-0.959l0.8-0.591-0.635 0.574c-0.349 0.316-1.069 0.785-1.6 1.043s-1.394 0.579-1.919 0.713-1.571 0.244-2.326 0.244c-0.755 0-1.802-0.11-2.326-0.244s-1.388-0.455-1.919-0.713c-0.531-0.258-1.251-0.728-1.6-1.043l-0.635-0.574 0.8 0.591c0.44 0.325 1.16 0.757 1.6 0.959zM1.56 23.085c0 0.044-0.036 0.080-0.080 0.080s-0.080-0.036-0.080-0.080c0-0.044 0.036-0.080 0.080-0.080s0.080 0.036 0.080 0.080zM30.52 23.085c0 0.044-0.036 0.080-0.080 0.080s-0.080-0.036-0.080-0.080c0-0.044 0.036-0.080 0.080-0.080s0.080 0.036 0.080 0.080zM1.72 23.405c0 0.044-0.036 0.080-0.080 0.080s-0.080-0.036-0.080-0.080c0-0.044 0.036-0.080 0.080-0.080s0.080 0.036 0.080 0.080zM30.36 23.405c0 0.044-0.036 0.080-0.080 0.080s-0.080-0.036-0.080-0.080c0-0.044 0.036-0.080 0.080-0.080s0.080 0.036 0.080 0.080zM1.88 23.725c0 0.044-0.036 0.080-0.080 0.080s-0.080-0.036-0.080-0.080c0-0.044 0.036-0.080 0.080-0.080s0.080 0.036 0.080 0.080zM30.2 23.725c0 0.044-0.036 0.080-0.080 0.080s-0.080-0.036-0.080-0.080c0-0.044 0.036-0.080 0.080-0.080s0.080 0.036 0.080 0.080zM29.88 24.285c-0.094 0.176-0.207 0.32-0.251 0.32s-0.003-0.144 0.091-0.32c0.094-0.176 0.207-0.32 0.251-0.32s0.003 0.144-0.091 0.32zM2.36 24.525c0 0.044-0.036 0.080-0.080 0.080s-0.080-0.036-0.080-0.080c0-0.044 0.036-0.080 0.080-0.080s0.080 0.036 0.080 0.080zM4.6 27.405c0.299 0.308 0.507 0.56 0.463 0.56s-0.324-0.252-0.623-0.56c-0.299-0.308-0.507-0.56-0.463-0.56s0.324 0.252 0.623 0.56zM27.96 26.893c0 0.027-0.27 0.297-0.6 0.6l-0.6 0.551 0.551-0.6c0.303-0.33 0.573-0.6 0.6-0.6s0.049 0.022 0.049 0.049zM8.839 30.365c0.88 0.434 2.105 0.936 2.721 1.116 0.66 0.192 0.857 0.287 0.48 0.231-0.352-0.052-1.18-0.304-1.84-0.558s-1.74-0.78-2.4-1.167c-0.66-0.387-1.524-1.004-1.92-1.371-0.624-0.577-0.582-0.558 0.319 0.147 0.572 0.447 1.76 1.168 2.64 1.603zM26.040 28.63c-0.396 0.359-1.26 0.969-1.92 1.356s-1.74 0.913-2.4 1.167-1.488 0.506-1.84 0.558c-0.377 0.056-0.18-0.039 0.48-0.231 0.616-0.179 1.84-0.681 2.721-1.116s2.032-1.146 2.56-1.583c0.528-0.436 0.995-0.796 1.039-0.799s-0.244 0.288-0.64 0.646z"/>
</svg>
