<svg xmlns="http://www.w3.org/2000/svg" width="20" height="20" fill="#000000"><path fill="#363636" d="M10 20c5.523 0 10-4.477 10-10S15.523 0 10 0 0 4.477 0 10s4.477 10 10 10Z"/><path fill="url(#a)" d="M8.955 12.306c-.089 0-.177 0-.266-.09L7.27 10.799c-.088-.089-.088-.177-.088-.266 0-.089 0-.177.088-.266l3.547-3.458c.089-.089.178-.089.266-.089.089 0 .178 0 .266.089l1.508 1.419c.088 0 .088.177.088.266 0 .088 0 .177-.088.266L9.22 12.217c-.089.088-.177.088-.266.088Z"/><path fill="url(#b)" d="M12.857 5.389 9.931 2.552c-.444-.355-.976-.621-1.596-.621-.62 0-1.242.266-1.685.71-.177.088-.177.177-.177.265 0 .089 0 .178.088.266l3.99 3.813.178.178c.887.975 1.037 2.417.24 3.392l1.888-1.796c.443-.355.71-1.064.71-1.685 0-.62-.267-1.242-.71-1.685Z"/><path fill="url(#c)" d="M9.4 11.773c-.887-.975-1.067-2.434-.18-3.41l-1.951 1.863c-.444.443-.619 1.104-.619 1.725 0 .62.266 1.241.71 1.684l4.256 4.345c.089.09.177.09.266.09.089 0 .177 0 .266-.09.443-.443.71-1.064.71-1.684 0-.621-.267-1.242-.71-1.685l-2.66-2.66a.662.662 0 0 1-.089-.178Z"/><defs><linearGradient id="b" x1="6.473" x2="13.566" y1="6.243" y2="6.243" gradientUnits="userSpaceOnUse"><stop stop-color="#7a7a7a"/><stop offset=".514" stop-color="#7a7a7a"/><stop offset="1" stop-color="#ababab"/></linearGradient><linearGradient id="c" x1="6.58" x2="12.847" y1="13.216" y2="13.216" gradientUnits="userSpaceOnUse"><stop stop-color="#7a7a7a"/><stop offset=".514" stop-color="#7a7a7a"/><stop offset="1" stop-color="#ababab"/></linearGradient><radialGradient id="a" cx="0" cy="0" r="1" gradientTransform="translate(10.079 9.502) scale(2.8516)" gradientUnits="userSpaceOnUse"><stop stop-color="#6b6b6b"/><stop offset="1" stop-color="#595959"/></radialGradient></defs></svg>