<!-- Generated by IcoMoon.io -->
<svg version="1.1" xmlns="http://www.w3.org/2000/svg" width="32" height="32" viewBox="0 0 32 32" fill="#000000">
<title>rpl</title>
<path fill="#000000fff" d="M16 32c8.836 0 16-7.164 16-16s-7.164-16-16-16c-8.837 0-16 7.163-16 16s7.163 16 16 16z"/>
<path fill="#000000" d="M25.15 8.092c-0.228 2.381-2.068 8.026-7.603 11.554l-0.823 3.098-2.898 1.97-0.861-3.195c-0.263 0.036-0.972 0.006-1.701-0.403l-1.167 0.987-1.026-1.214 1.167-0.987c-0.196-0.421-0.461-1.435 0.047-2.122-0.666-0.333-2.23-0.996-2.929-1.286l2.424-2.53 3.073-0.437c1.866-2.085 6.938-6.091 12.297-5.435zM16.981 15.201c0.556 0.658 1.541 0.74 2.199 0.184s0.74-1.541 0.184-2.199-1.541-0.74-2.199-0.184c-0.658 0.556-0.74 1.541-0.184 2.199z"/>
<path fill="#000000" d="M3.188 25.368l3.875-3.045 0.988 1.258-3.875 3.045-0.988-1.258z"/>
<path fill="#000000" d="M2.425 22.323l3.875-3.045 0.988 1.258-3.875 3.045-0.988-1.258z"/>
<path fill="#000000" d="M6.3 27.306l3.875-3.045 0.988 1.258-3.875 3.045-0.988-1.258z"/>
</svg>
