<svg xmlns="http://www.w3.org/2000/svg" width="200" height="200" fill="#000000"><path fill-opacity=".157" fill-rule="evenodd" d="M74.5 2.151c-4.4 1.095-8.427 2.408-8.95 2.919S63.916 6 63.08 6C61.768 6 45.394 15.392 44 16.944c-.275.306-1.229 1.006-2.121 1.556-4.082 2.519-12.876 9.657-14.166 11.5-.787 1.123-2.957 3.727-4.822 5.786C16.326 43.035 6 60.869 6 64.96c0 .902-.403 2.067-.895 2.59-.863.917-2.074 5.447-4.262 15.95-.6 2.88-.856 12.208-.604 22 .409 15.886.646 17.612 3.623 26.338 4.952 14.511 12.476 27.324 22.029 37.51 5.811 6.197 21.228 17.169 30.256 21.533 16.466 7.961 19.705 8.604 43.353 8.612 22.303.007 21.388.149 38.134-5.908 7.702-2.786 20.299-10.481 25.806-15.765 1.617-1.551 3.374-2.82 3.905-2.82.908 0 5.661-4.718 10.171-10.096 3.688-4.399 11.225-16.343 13.191-20.904 5.481-12.718 8.263-21.653 8.363-26.865.057-2.943.234-3.254.93-1.635.522 1.214.841-4.68.811-15-.026-9.35-.364-15.65-.75-14-.669 2.86-.728 2.79-1.267-1.5-.596-4.746-2.404-12.141-3.789-15.5-1.59-3.857-10.97-23.02-12.231-24.989-2.836-4.427-4.774-6.719-4.774-5.646 0 2.468-2.687.808-6.323-3.908-2.103-2.726-4.27-4.957-4.817-4.957-.546 0-2.651-1.582-4.677-3.515s-6.522-5.378-9.991-7.655c-4.416-2.899-5.917-4.382-5.005-4.946 1.007-.622.849-1.148-.692-2.313-1.097-.829-2.58-1.522-3.295-1.539-.714-.018-2.739-.791-4.5-1.719-1.76-.927-5.675-1.768-8.7-1.867-6.575-.216-18-2.484-18-3.573 0-.425.787-1.232 1.75-1.793C114.987.36 110.665.076 99 .111c-12.995.04-18.2.474-24.5 2.04M118 2c-1.165.753-.872.973 1.309.985 1.621.009 2.548-.408 2.191-.985-.767-1.242-1.579-1.242-3.5 0m-11.403 9.844c-.401.648 1.917 1.283 6.251 1.71l6.889.678-.845 3.634c-1.282 5.517-.996 5.999 1.15 1.935 1.074-2.035 2.676-4.103 3.558-4.597 1.213-.679.298-1.199-3.747-2.13-8.533-1.964-12.571-2.339-13.256-1.23m43.072 1.883c-.409.661.206 1.416 1.482 1.821 1.199.38 3.222 1.65 4.496 2.822 1.274 1.171 4.857 4.155 7.963 6.63s7.237 6.188 9.182 8.25 3.923 3.75 4.396 3.75-.613-1.615-2.414-3.589-3.641-4.237-4.09-5.029-2.474-2.554-4.5-3.916-5.709-4.019-8.184-5.905c-2.475-1.885-5.025-3.458-5.667-3.495s-1.346-.606-1.567-1.267c-.291-.874-.589-.894-1.097-.072M99.956 22.89c-2.049 2.192-6.916 9.459-6.938 10.36-.01.413.432.75.982.75s1-.645 1-1.433c0-1.897 3.326-2.874 7.022-2.062 2.559.562 2.978.361 2.978-1.426 0-1.216.647-2.079 1.559-2.079.857 0 1.3.419.984.931a1.106 1.106 0 0 0 .372 1.516c.521.322 1.229.128 1.575-.431 1.184-1.916 2.647-1.025 2.028 1.234-.539 1.963-.293 1.868 1.927-.75 1.4-1.65 2.547-3.285 2.55-3.633.006-.821-3.804-1.834-6.995-1.86-1.375-.01-3.645-.617-5.044-1.347-2.174-1.135-2.754-1.101-4 .23m.294 1.772c-1.758.71-1.562 3.338.25 3.338.833 0 1.5-.889 1.5-2 0-1.1-.112-1.964-.25-1.921s-.812.306-1.5.583m-11.5 13c.688.278 1.813.278 2.5 0 .688-.277.125-.504-1.25-.504s-1.937.227-1.25.504m12.018.063c1.797.222 4.497.218 6-.01 1.503-.229.032-.411-3.268-.405s-4.529.192-2.732.415M93.247 49.5c-.078 6.515.182 9.252.746 7.852.477-1.181 1.348-2.445 1.937-2.809.595-.368 1.07-3.767 1.07-7.661 0-4.045-.391-6.758-.927-6.427-.51.315-.754 2.701-.542 5.301s.067 5.857-.323 7.236c-.493 1.747-.88.082-1.275-5.492l-.566-8zM65.689 87c-.939 7.523-3.117 12.356-6.347 14.084-1.25.67-2.055 1.572-1.787 2.005.268.434-.31 1.252-1.284 1.819s-1.44 1.045-1.036 1.062c.404.016-.348 1.942-1.672 4.28-1.657 2.926-2.976 4.159-4.235 3.958-1.537-.245-1.589-.128-.328.735 2.673 1.829 3.717 1.155 7.64-4.934 2.123-3.295 4.197-5.995 4.61-6s.75-.547.75-1.204c0-.658 1.145-2.391 2.545-3.852 2.352-2.455 2.522-3.252 2.25-10.554L66.5 80.5zM.409 101.5c-.001 9.35.149 13.31.334 8.799.185-4.51.186-12.16.002-17C.562 88.46.41 92.15.409 101.5m50.101 8.516c.346.559 1.047.758 1.559.441 1.387-.857 1.129-1.457-.628-1.457-.857 0-1.276.457-.931 1.016m-17.838 7.234c-3.175 3.676-3.594 4.736-3.109 7.85.552 3.538.474 3.638-4.592 5.817-4.721 2.031-5.099 2.437-4.499 4.826.896 3.572 7.518 13.381 8.587 12.721.956-.591-.818-5.213-2.797-7.285-2.51-2.629-1.426-5.579 2.756-7.508 4.278-1.972 5.742-1.419 7.331 2.773.664 1.751.936 1.616 2.754-1.373 1.109-1.824 1.77-3.96 1.468-4.746-.301-.786-.126-1.168.39-.849s1.412-.305 1.992-1.387c.736-1.376.736-2.163.001-2.617-.728-.45-.71-1.061.057-1.985 1.418-1.708.27-8.154-1.452-8.154-.705 0-1.231.713-1.17 1.584.061.87-.564 1.583-1.389 1.583-1.015 0-1.439-.889-1.312-2.75.258-3.761-.726-3.467-5.016 1.5M14 142.573c0 3.113 8.447 15.313 9.721 14.04.265-.266-1.363-3.06-3.619-6.211-2.256-3.15-4.102-6.303-4.102-7.006s-.45-1.556-1-1.896-1 .143-1 1.073m26 30.215c0 2.496 21.502 14.127 31.088 16.817 7.75 2.174 9.526 1.338 2.226-1.048-11.458-3.744-17.222-6.489-26.678-12.703-6.256-4.111-6.636-4.287-6.636-3.066"/><path fill-opacity=".06" fill-rule="evenodd" d="M85.098.431c.783.783 23.725 1.08 24.488.316C109.997.336 104.558 0 97.5 0S84.861.194 85.098.431M79.25 2.689c.963.252 2.537.252 3.5 0 .963-.251.175-.457-1.75-.457s-2.713.206-1.75.457M64.623 5.987c-3.782 1.614-7.156 3.213-7.498 3.555-.945.945 4.998-.595 8.226-2.132 1.568-.746 4.385-1.645 6.261-1.997 1.875-.352 3.657-1.039 3.958-1.526 1.103-1.784-4.245-.758-10.947 2.1M86.5 3.964c-19.616 2.66-35.641 10.56-54.201 26.72C23.33 38.493 14.249 52.609 9.258 66.5 4.933 78.537 3.703 87.22 4.32 101.367c.684 15.692 3.419 26.678 9.27 37.238C20.467 151.016 31.5 166 33.763 166c.589 0 1.22.406 1.404.903.489 1.327 16.445 11.871 22.878 15.119 7.831 3.954 20.091 7.916 29.455 9.52l8 1.371-9-.526C65.738 191.173 46.781 181.61 28.25 163c-10.652-10.696-15.927-19.549-20.858-35-5.203-16.303-6.364-37.21-2.848-51.25.379-1.512.288-2.75-.202-2.75S2.618 77.799 1.6 82.441C.092 89.32-.158 93.624.25 105.691c.275 8.145.959 16.159 1.521 17.809s2.029 6.142 3.264 9.983c5.051 15.718 15.922 31.74 28.532 42.051 14.196 11.608 23.454 16.493 41.933 22.127 8.666 2.642 40.256 2.655 49 .021 8.162-2.459 19.948-7.471 26-11.058 4.452-2.638 13.171-9.05 14.5-10.663.275-.334 1.25-.883 2.166-1.22 2.535-.934 13.818-14.638 18.42-22.373 6.602-11.095 13.263-29.988 13.484-38.245.064-2.363.156-2.425.93-.623.527 1.227.841-3.794.811-13-.028-8.951-.355-13.79-.811-12-.611 2.403-.787 2.555-.882.764-.151-2.858-2.124-11.297-3.109-13.297-.415-.843-1.08-3.012-1.477-4.82-.491-2.238-1.168-3.117-2.117-2.753-1.612.619-3.032-3.586-1.855-5.492.437-.706.33-.952-.255-.591-.552.342-1.468-.376-2.036-1.595-3.382-7.262-5.86-11.716-6.517-11.716-.414 0-.757-.562-.764-1.25-.013-1.376-12.775-16.75-13.904-16.75-.387 0-2.027-1.284-3.644-2.853-4.728-4.587-19.016-14.082-25.738-17.104-12.787-5.748-36.669-9.05-51.202-7.079M82 11.986c-10.496 2.589-12.762 3.33-18.851 6.167-9.451 4.403-16.517 9.309-24.605 17.083-3.869 3.718-7.319 6.874-7.666 7.013-.939.374-9.353 13.719-11.192 17.751-11.337 24.853-10.41 55.496 2.436 80.5 1.957 3.809 9.552 13.652 11.044 14.312.387.171 2.91 2.421 5.606 5 11.217 10.73 16.087 13.873 29.728 19.184 5.611 2.184 10.24 3.237 15.5 3.526 4.125.226 6.6.171 5.5-.123s-3.378-1.161-5.063-1.925c-1.685-.765-4.986-1.698-7.336-2.074-5.13-.82-5.872-2.256-3.62-7.001 1.4-2.95 2.083-3.468 3.86-2.924 1.187.363 3.657 1.04 5.488 1.505 4.381 1.112 4.655 1.478 4.364 5.824-.233 3.48-.158 3.583 1.28 1.755 1.484-1.887 1.53-1.873 1.645.5.067 1.387.546.391 1.108-2.309l.99-4.75 7.142-.193 7.142-.192-6.25-.355c-3.437-.196-6.25-.697-6.25-1.113s1.013-2.094 2.25-3.725c5.093-6.716 7.129-8.423 10.18-8.534 2.278-.083 1.652-.411-2.43-1.271l-5.5-1.158-.273-17.73c-.26-16.853-.179-17.729 1.629-17.729 1.849 0 3.219 2.362 4.64 8 .758 3.01 1.561 5.052 4.368 11.11 1.25 2.696 2.189 6.846 2.263 10l.128 5.39.969-6.318c1.008-6.575 2.592-8.409 5.312-6.152 1.257 1.043 1.404.978.88-.389-.347-.902-.92-1.641-1.275-1.641-1.245 0-5.163-8.595-8.195-17.977-3.337-10.323-6.067-15.482-9.035-17.071-1.514-.81-1.911-2.129-1.911-6.351v-5.329l4.508-.618C111.311 90.447 115 85.543 115 75.049c0-9.954-3.499-14.516-12.001-15.643l-5.068-.673.284-9.616.285-9.617h12l.299 5.144c.272 4.689.537 5.191 3 5.685 12.791 2.565 16.845 4.23 22.062 9.059C139.798 63.033 143 69.794 143 74.461c0 10.659-10.085 20.492-22.805 22.236l-4.311.591 3.072 1.487c3.813 1.847 9.284 7.398 11.685 11.857 1.985 3.687 3.359 4.348 3.359 1.618 0-.963 3.381-6.925 7.512-13.25s7.812-12.146 8.179-12.937c.366-.79 3.76-6.089 7.542-11.775 6.27-9.427 8.767-11.628 8.767-7.729 0 .793.42 1.441.933 1.441s1.229.934 1.591 2.075.918 1.816 1.235 1.499c.648-.647-1.593-5.37-3.509-7.395-2.081-2.2-1.416-4.225 1.75-5.329 1.65-.575 3-1.399 3-1.831s1.063-.989 2.361-1.237c1.332-.255 2.326.021 2.28.633-.164 2.191 6.704 15.104 7.103 13.355.217-.952-1.974-6.547-4.871-12.433-4.499-9.144-6.51-11.956-13.819-19.323-10.909-10.994-18.303-15.963-32.312-21.716L120.5 11.683l-17.5-.28c-9.625-.155-19.075.108-21 .583m3.5 1.906c-3.419.52-4.045 1.001-4.312 3.309-.712 6.175 2.385 7.757 12.062 6.157 3.735-.617 3.75-.639 3.75-5.489V13l-3.75.142c-2.062.078-5.55.415-7.75.75m17.5 3.549c0 2.443.338 4.636.75 4.875s3.339.748 6.504 1.132c5.046.611 5.823.473 6.323-1.126.313-1.002.945-2.537 1.404-3.411 1.386-2.638-.21-3.743-7.004-4.845-3.562-.578-6.815-1.054-7.227-1.058s-.75 1.99-.75 4.433m-32.452.482c-.314.508-1.803 1.204-3.309 1.547-1.507.344-3.611 1.277-4.676 2.074-1.85 1.385-1.862 1.606-.266 4.953 1.878 3.937 4.317 4.474 9.067 1.997C72.94 27.672 74.826 27 75.555 27c2.209 0 2.555-1.679 1.225-5.942C75.803 17.929 75.01 17 73.316 17c-1.209 0-2.455.415-2.768.923m52.561 1.327c-2.229 5.959-2.275 6.75-.428 7.362 1 .331 3.237 1.229 4.97 1.995 4.554 2.013 6.902 1.725 8.734-1.072 2.412-3.681 2.001-5.034-2.135-7.025-2.062-.992-4.531-2.188-5.486-2.657-2.906-1.427-4.771-.966-5.655 1.397m-70.276 7.5c-.183.413-2.246 2.049-4.583 3.636-5.041 3.423-5.42 6.105-1.318 9.338l2.822 2.224 2.373-2.062c1.305-1.134 3.61-2.795 5.123-3.69 3.181-1.882 3.324-2.738 1.177-7.042-1.441-2.889-4.747-4.309-5.594-2.404m88.203 2.913-2.161 3.663 2.813 2.306c1.546 1.268 3.599 2.575 4.562 2.904.963.33 1.75 1.018 1.75 1.531 0 1.89 2.708.847 5.563-2.141 2.888-3.023 2.904-3.099.937-4.519a88 88 0 0 1-3.5-2.676c-1.987-1.63-6.815-4.731-7.366-4.731-.24 0-1.409 1.648-2.598 3.663m-60.159 9.413c-.634.392-.939 2.795-.732 5.769l.355 5.097-11.5.279-11.5.279-.325 2.835c-.362 3.161 1.966 5.581 5.42 5.633 1.152.018 2.84.855 3.75 1.861C67.818 62.456 68 66.459 68 97.174c0 32.169-.124 34.629-1.829 36.171-1.006.91-2.693 1.669-3.75 1.687-3.105.051-5.421 2.462-5.421 5.643v2.954l11.446-.438 11.447-.439.303 5.874.304 5.874h11l.693-41.5c.382-22.825.382-48.7 0-57.5l-.693-16-4.768-.548c-2.622-.301-5.257-.246-5.855.124M33 45.039c-2.475 2.735-4.5 5.533-4.5 6.217s1.462 1.675 3.25 2.201S35 54.771 35 55.207c0 1.684 2.987.685 4.085-1.366.636-1.188 2.227-3.152 3.536-4.365 2.904-2.692 3.013-4.842.379-7.476-3.029-3.029-5.071-2.409-10 3.039m123.25-2.319c-2.592 2.991-2.758 3.869-.945 4.98.718.44 2.568 2.483 4.112 4.541 2.69 3.586 2.915 3.682 5.445 2.328 1.451-.777 3.425-1.658 4.388-1.959s1.75-.944 1.75-1.43c0-1.524-9.65-11.183-11.109-11.119-.765.034-2.403 1.23-3.641 2.659m15.388 10.78c-.35.914-.001 1.5.893 1.5.808 0 1.469-.675 1.469-1.5s-.402-1.5-.893-1.5-1.152.675-1.469 1.5M24.245 57.25c-.55.688-1.341 2.375-1.757 3.75-.417 1.375-1.372 3.388-2.123 4.473-2.359 3.409-1.649 5.125 2.656 6.415 4.77 1.429 5.614 1.052 6.482-2.899.361-1.644 1.07-2.989 1.576-2.989.507 0 .921-.675.921-1.5s.45-1.5 1-1.5 1-.9 1-2c0-1.29-.667-2-1.878-2-1.032 0-2.437-.675-3.122-1.5-1.516-1.827-3.414-1.927-4.755-.25M9 58.059c0 .582.45.781 1 .441s1-.816 1-1.059S10.55 57 10 57s-1 .477-1 1.059m-.921 3.524c.048 1.165.285 1.402.604.605.289-.722.253-1.585-.079-1.917s-.568.258-.525 1.312m183 4c.048 1.165.285 1.402.604.605.289-.722.253-1.585-.079-1.917s-.568.258-.525 1.312m-186 5c.048 1.165.285 1.402.604.605.289-.722.253-1.585-.079-1.917s-.568.258-.525 1.312m187.607 3.003c.97 6.197 2.376 8.628 1.685 2.914-.333-2.75-.986-5.411-1.452-5.914s-.571.846-.233 3m-16.873-.903c.721.289 1.584.253 1.916-.079s-.258-.568-1.312-.525c-1.165.048-1.402.285-.604.604m2 3c.721.289 1.584.253 1.916-.079s-.258-.568-1.312-.525c-1.165.048-1.402.285-.604.604M16.583 77.25c-.195.688-.862 3.672-1.482 6.632-1.37 6.545-.438 8.118 4.814 8.118 3.507 0 3.724-.201 4.878-4.514.664-2.483 1.207-5.802 1.207-7.375 0-2.404-.499-2.961-3.125-3.486-4.553-.911-5.895-.777-6.292.625m168.167 1.321c-.412.419-.75 2.127-.75 3.796 0 2.169.307 2.726 1.078 1.955.593-.593.931-2.301.75-3.796-.18-1.495-.666-2.375-1.078-1.955m-12.671 2.012c.048 1.165.285 1.402.604.605.289-.722.253-1.585-.079-1.917s-.568.258-.525 1.312M173.232 86c0 1.925.206 2.713.457 1.75.252-.963.252-2.537 0-3.5-.251-.963-.457-.175-.457 1.75M.4 101.5c.001 8.25.156 11.492.344 7.204.188-4.287.187-11.037-.002-15C.552 89.742.399 93.25.4 101.5m14.314-4.88c-1.057 1.056-.866 9.85.279 12.862.901 2.369 1.341 2.549 4.75 1.943 2.066-.367 4.079-.957 4.472-1.311.393-.355.393-3.562 0-7.129L23.5 96.5l-4.036-.297c-2.22-.163-4.358.024-4.75.417m171.365 2.963c.048 1.165.285 1.402.604.605.289-.722.253-1.585-.079-1.917s-.568.258-.525 1.312M20.75 115.728c-3.072.322-3.75.788-3.749 2.582.001 2.922 3.503 12.025 4.791 12.454 1.852.617 8.445-2.703 7.958-4.009-.634-1.701-2.954-8.956-3.36-10.505-.18-.687-.679-1.174-1.109-1.082-.429.093-2.468.345-4.531.56m113.391.272c0 .825.386 2.4.859 3.5.542 1.261.859 1.445.859.5 0-.825-.386-2.4-.859-3.5-.542-1.261-.859-1.445-.859-.5m3 7c0 .825.386 2.4.859 3.5.542 1.261.859 1.445.859.5 0-.825-.386-2.4-.859-3.5-.542-1.261-.859-1.445-.859-.5m2.859 6.378c0 .207.787.995 1.75 1.75 1.586 1.243 1.621 1.208.378-.378-1.307-1.666-2.128-2.195-2.128-1.372M153.158 132c0 1.375.227 1.938.504 1.25.278-.687.278-1.812 0-2.5-.277-.687-.504-.125-.504 1.25M27.25 135.22c-2.916 1.407-2.845 2.109.75 7.435 1.65 2.445 3 4.887 3 5.427 0 2.365 3.285 2.019 6.06-.639 3.706-3.551 3.68-4.64-.227-9.502-3.285-4.087-5.466-4.706-9.583-2.721m102 10.496c1.512.229 3.988.229 5.5 0s.275-.416-2.75-.416-4.263.187-2.75.416m-88.5 4.652c-1.513 1.3-2.75 2.961-2.75 3.69 0 1.877 7.819 8.942 9.896 8.942.95 0 2.74-1.369 3.977-3.042l2.249-3.041-4.72-4.459c-2.596-2.452-4.986-4.457-5.311-4.457-.325.001-1.828 1.066-3.341 2.367m14.528 13.469c-1.153 1.561-1.8 3.252-1.438 3.758.795 1.109 10.572 6.409 11.795 6.395.476-.006 1.617-1.8 2.535-3.988l1.671-3.977-5.003-2.512c-6.305-3.167-6.996-3.144-9.56.324m65.535 3.846c.721.289 1.584.253 1.916-.079s-.258-.568-1.312-.525c-1.165.048-1.402.285-.604.604m-6.063 1.979c.688.278 1.813.278 2.5 0 .688-.277.125-.504-1.25-.504s-1.937.227-1.25.504m-3.498 5.838c.011 2.2.216 2.982.455 1.738s.23-3.044-.02-4-.446.062-.435 2.262M124.5 179c.34.55 1.068 1 1.618 1s.722-.45.382-1-1.068-1-1.618-1-.722.45-.382 1m-5.75 1.662c.688.278 1.813.278 2.5 0 .688-.277.125-.504-1.25-.504s-1.937.227-1.25.504M112.5 182c-1.772.762-1.687.867.75.93 1.513.038 2.75-.38 2.75-.93 0-1.174-.769-1.174-3.5 0M92 183c0 .579 2.84.952 6.75.885 6.251-.107 6.454-.176 2.75-.942-5.563-1.151-9.5-1.127-9.5.057m45.507 1.989c-.35.566.051.734.941.393 1.732-.665 2.049-1.382.611-1.382-.518 0-1.216.445-1.552.989M129 188c-1.828 1.181-.249 1.181 2.5 0 1.319-.567 1.489-.878.5-.914-.825-.031-2.175.381-3 .914m-12 3c-1.98.634-2.084.801-.5.801 1.1 0 3.125-.361 4.5-.801 1.98-.634 2.084-.801.5-.801-1.1 0-3.125.361-4.5.801m-9.731 1.693c.973.254 2.323.237 3-.037s-.119-.481-1.769-.461-2.204.244-1.231.498"/><path fill-opacity=".193" fill-rule="evenodd" d="M81.633 5.497C67.82 8.353 56.298 13.398 44.462 21.774 20.374 38.819 6.772 63.246 5.309 92.083c-1.225 24.144 3.716 40.718 18.327 61.473C33.691 167.84 54.361 181.745 75 188.109c6.596 2.033 9.61 2.317 25 2.352 20.209.045 24.298-.804 40.5-8.41 17.863-8.386 34.061-23.358 43.333-40.051 12.743-22.942 14.298-56.557 3.723-80.469-6.007-13.582-12.608-22.547-23.82-32.346-13.553-11.846-24.063-17.662-39.382-21.797-12.165-3.283-31.786-4.151-42.721-1.891M90 10.017c-19.949 2.501-35.359 9.586-50.678 23.301-10.036 8.983-14.615 15.027-19.84 26.182-6.981 14.903-7.986 19.701-7.957 38 .02 12.757.41 17.299 1.927 22.41 4.642 15.649 9.878 25.297 18.812 34.666 9.701 10.174 19.468 17.494 29.738 22.289 11.906 5.559 18.624 7.15 33.03 7.821 13.79.642 23.601-.771 35.609-5.13 18.666-6.775 39.303-24.672 47.812-41.463 6.915-13.647 9.513-24.791 9.532-40.896.031-25.557-7.621-44.121-25.159-61.039-10.961-10.572-18.629-15.63-30.925-20.4-14.023-5.439-28.496-7.422-41.901-5.741m-4 4.714c-4.812.566-5.374 1.438-3.624 5.626 1.5 3.589 1.553 3.615 6.318 3.047 7.162-.855 7.306-.961 7.306-5.373 0-4.427-.106-4.462-10-3.3m17.409.645c-.312.813-.419 2.524-.238 3.801.275 1.942 1.232 2.505 5.829 3.432 6.142 1.237 7.329.699 8.38-3.798.769-3.296.619-3.385-7.142-4.231-5.048-.55-6.372-.396-6.829.796M66.75 20.16c-5.212 2.299-5.799 3.917-2.826 7.786l1.88 2.446 4.348-1.875c5.94-2.561 6.726-3.492 6.132-7.267-.619-3.938-2.569-4.161-9.534-1.09M124 18.257c0 .141-.424 1.733-.941 3.538-.939 3.274-.928 3.288 4.624 5.744 6.42 2.839 7.317 2.972 7.317 1.083 0-.757.675-1.937 1.5-2.622 2.43-2.017 1.795-2.955-3.75-5.536-4.44-2.067-8.75-3.155-8.75-2.207m-75 12.37c-2.475 1.939-4.62 3.849-4.766 4.246s1.01 1.944 2.569 3.438l2.834 2.716 4.682-3.647c5.134-4.001 5.2-4.147 3.52-7.833-1.54-3.381-3.44-3.148-8.839 1.08m92.43-.491c-1.593 3.081-1.572 3.176 1.224 5.438 5.802 4.695 7.093 5.012 9.85 2.423 1.373-1.29 2.496-2.679 2.496-3.086 0-1-9.486-7.911-10.858-7.911-.6 0-1.82 1.411-2.712 3.136M33.776 45.164c-2.598 2.811-4.492 5.487-4.208 5.947.633 1.024 7.395 4.3 7.782 3.77.153-.21 1.898-2.406 3.879-4.881l3.6-4.5-2.367-2.75c-1.301-1.513-2.725-2.738-3.164-2.723s-2.924 2.327-5.522 5.137M81 45.448V51H58v2.921c0 2.486.483 3.023 3.25 3.611C68.284 59.027 68 57.364 68 97c0 39.671.293 37.971-6.808 39.481-2.852.606-3.265 1.069-3 3.361l.308 2.658 11.25.283 11.25.283v11.039l5.25-.303 5.25-.302v-113l-5.25-.302-5.25-.303zm17 3.42v8.869l3.882.52c5.256.705 9.025 2.685 11.515 6.049 1.683 2.273 2.077 4.277 2.077 10.564 0 11.24-2.789 15.153-12.224 17.157L98 93.142v4.394c0 3.347.469 4.645 1.969 5.447 2.955 1.582 6.857 8.916 9.692 18.217 5.057 16.587 9.814 21.845 20.46 22.615 7.654.554 13.649-1.17 18.224-5.24 2.75-2.447 3.655-4.034 3.655-6.413 0-3.681-1.8-4.146-4.5-1.162-3.952 4.367-7.207 2.083-11.404-8-3.335-8.014-8.574-17.174-11.259-19.688-1.285-1.203-4.274-3.054-6.64-4.114l-4.304-1.925 4.043-.647c11.378-1.819 21.05-8.314 23.037-15.469 2.196-7.905.963-13.812-4.078-19.539-4.713-5.355-11.2-8.53-20.134-9.856L110 50.758V40H98zm59.174-6.554c-1.196 1.273-2.155 2.736-2.131 3.25.023.515 1.717 2.842 3.764 5.171l3.722 4.235 3.735-1.693c2.055-.932 3.736-2.082 3.736-2.557 0-.96-9.165-10.706-10.076-10.715-.316-.003-1.554 1.037-2.75 2.309M22.529 62.53c-3.114 6.809-3.114 6.882.018 8.309 4.22 1.923 5.125 1.397 7.452-4.336l2.231-5.496-2.365-1.97c-3.59-2.991-4.587-2.516-7.336 3.493m146.744-3.71c-2.99 1.556-4.469 4.18-2.356 4.18.505 0 1.691 2.025 2.636 4.5 1.795 4.7 2.645 5.136 6.882 3.525 3.147-1.197 3.205-2.846.321-9.133-2.467-5.376-2.796-5.512-7.483-3.072M17.655 76.75c-.901 1.462-2.622 12.495-2.083 13.366.663 1.074 7.126 1.185 7.769.134.253-.412.774-3.278 1.158-6.368l.698-5.618-3.248-1.132c-3.851-1.343-3.709-1.33-4.294-.382m158.999.444c-2.719.99-2.817 1.244-2.193 5.671 1.129 8.01 1.31 8.279 5.366 7.94 4.368-.364 4.779-1.568 3.174-9.299-1.188-5.725-1.634-6.028-6.347-4.312m20.482 19.991c-.235 21.873-5.288 38.374-17.056 55.694-12.484 18.375-35.998 33.863-59.58 39.244-10.116 2.308-29.825 2.48-41 .357-14.035-2.667-28.505-9.33-40.133-18.48-23.369-18.39-34.734-39.923-37.398-70.858C1.373 96.217.637 90.315.334 90.026S.01 95.8.286 103.5c.561 15.645 2.484 24.553 8.098 37.509C23.532 175.962 60.628 200 99.424 200c22.425 0 42.45-6.992 61.902-21.613 14.259-10.718 24.402-24.052 31.175-40.982 2.818-7.045 6.361-21.733 6.609-27.405l.153-3.5.737 3.5c.462 2.193.733-1.169.726-9-.006-7.553-.274-10.917-.678-8.5l-.668 4-.67-3.5a204 204 0 0 1-1.054-6c-.211-1.375-.445 3.208-.52 10.185M.385 102c0 6.875.16 9.688.355 6.25.196-3.437.196-9.062 0-12.5-.195-3.437-.355-.625-.355 6.25m14.867 1.556c.29 3.606.78 6.81 1.091 7.12s2.16.265 4.11-.101c3.486-.654 3.547-.749 3.547-5.539 0-7.15-.578-8.036-5.244-8.036h-4.03zm160.386-.368c-.725 6.933-.175 7.772 5.112 7.797 3.001.014 3.251-.234 3.261-3.235.006-1.787.29-4.937.631-7l.62-3.75h-8.977zM20.25 116.696c-2.688.529-2.759 1.499-.598 8.189 1.77 5.481 3.988 6.561 7.779 3.789 1.748-1.278 1.745-1.519-.095-6.743-1.907-5.416-2.804-6.079-7.086-5.235m151.444 4.727c-.993 3.073-1.565 5.976-1.271 6.452.294.475 1.935 1.445 3.648 2.154 2.569 1.065 3.258 1.056 3.941-.048 1.38-2.233 4.246-12.057 3.681-12.621-.29-.291-2.252-.752-4.36-1.026l-3.833-.497zM98.226 136.75l.274 16.75 5.75.3 5.75.3v-5.926c0-4.05-.749-7.626-2.366-11.3-1.301-2.956-3.114-7.962-4.028-11.124-1.308-4.525-2.087-5.75-3.658-5.75-1.927 0-1.987.586-1.722 16.75m64.343 1.5-3.562 5.25 2.983 2.724c1.66 1.515 3.633 2.474 4.449 2.161 1.549-.594 7.561-9.371 7.561-11.037 0-.804-6.088-4.348-7.469-4.348-.221 0-2.004 2.363-3.962 5.25M28.25 135.22c-1.238.597-2.25 1.615-2.25 2.261 0 2.238 6.195 10.519 7.844 10.486 1.619-.033 6.156-3.237 6.156-4.348 0-.308-1.437-2.599-3.193-5.09-3.28-4.654-4.661-5.188-8.557-3.309m12.404 16.4-2.826 2.62 4.836 4.335c2.66 2.385 5.089 4.356 5.398 4.38s1.607-1.369 2.885-3.097l2.323-3.142-4.179-3.858c-2.298-2.122-4.5-3.858-4.895-3.858s-1.988 1.179-3.542 2.62m109.423 1.263-4.423 3.823 2.241 3.147c1.233 1.731 2.756 3.147 3.385 3.147 1.346 0 9.72-8.011 9.72-9.298 0-1.117-4.17-4.634-5.5-4.639-.55-.002-2.99 1.717-5.423 3.82M56.01 163.985l-2.125 2.986 4.753 3.014c5.405 3.428 7.905 3.794 8.632 1.265.277-.963.807-2.484 1.178-3.38.504-1.22-.508-2.291-4.013-4.25-2.578-1.441-5.05-2.62-5.493-2.62s-1.762 1.343-2.932 2.985m78.767-.584c-2.048 1.217-3.967 2.455-4.264 2.752-.604.605 2.211 7.847 3.05 7.847.899 0 6.772-3.153 9.674-5.193l2.736-1.924-2.174-2.942c-2.549-3.446-3.987-3.532-9.022-.54M118 169.91c-5.391 1.68-5.493 1.782-5.169 5.152.183 1.891.633 3.753 1.001 4.139.893.935 13.168-2.194 13.168-3.356 0-1.131-2.787-7.881-3.199-7.747-.166.054-2.776.869-5.801 1.812m-44.35 2.298c-.765 1.811-1.082 3.636-.706 4.056.832.93 11.833 3.316 12.379 2.686.215-.248.671-1.927 1.015-3.732.69-3.624-.18-4.27-7.568-5.62-3.52-.643-3.809-.496-5.12 2.61m18.921 3.266c-.367 1.958-.395 4.002-.06 4.543.334.541 3.756.983 7.606.983h6.998l-.308-4.25-.307-4.25-6.631-.293-6.63-.293z"/><path fill-opacity=".522" fill-rule="evenodd" d="M83.164 6.056C71.782 8.088 54.986 14.966 47 20.866 29.84 33.545 22.902 41.372 15.416 56.5c-11.489 23.216-12.693 51.053-3.244 75 5.32 13.481 12.987 24.725 22.62 33.173 17.235 15.114 31.666 21.761 54.002 24.876 26.417 3.683 50.564-3.815 73.706-22.889 23.359-19.253 35.28-52.374 30.069-83.539-2.059-12.312-4.302-19.095-9.509-28.748-5.245-9.724-10.731-16.808-17.757-22.93-15.706-13.687-25.878-19.379-42.803-23.952-7.175-1.939-31.535-2.828-39.336-1.435M81.5 10.427c-17.544 4.049-29.178 10.212-43.435 23.009C19.374 50.211 10 71.755 10 97.937c0 17.96 6.082 37.137 16.061 50.646 4.756 6.437 5.204 6.906 13.784 14.417 11.912 10.428 23.558 16.719 38.353 20.718 8.926 2.413 33.776 2.384 42.802-.049 8.915-2.403 20.353-7.469 27.353-12.115 7.647-5.076 19.168-15.653 23.965-22.001 5.012-6.634 12.28-21.513 14.191-29.053 7.912-31.222-.785-63.881-22.407-84.147-14.48-13.571-22.218-18.431-37.546-23.582-8.18-2.749-10.507-3.076-24.056-3.386-10.346-.237-16.862.087-21 1.042m2.249 5.262c-1.335.349-1.601 1.092-1.121 3.134.874 3.713 1.205 3.874 7.023 3.409 5.019-.401 5.161-.499 5.549-3.822l.398-3.41-5.049.116c-2.777.064-5.837.322-6.8.573m20.438 2.561c.298 3.095.552 3.279 5.313 3.866 5.603.691 6.092.465 7.003-3.23.747-3.023-1.027-3.849-8.316-3.872-4.267-.014-4.31.021-4 3.236M68 20.393c-3.025 1.213-5.5 2.634-5.5 3.156s.728 1.979 1.619 3.236l1.618 2.285 4.882-1.918c2.684-1.054 4.836-2.42 4.781-3.035-.055-.614-.167-2.242-.25-3.617-.177-2.942-.085-2.941-7.15-.107m56.678-1.613c-.221.396-.683 1.9-1.027 3.342-.573 2.405-.194 2.801 4.581 4.786l5.206 2.163 1.759-2.285c2.825-3.672 2.876-3.604-4.958-6.692-2.837-1.118-5.339-1.709-5.561-1.314M50 30.627c-2.475 1.939-4.621 3.854-4.769 4.256s.778 1.717 2.059 2.92l2.329 2.188 4.19-3.082C56.114 35.214 58 33.437 58 32.961c0-1.377-2.261-5.966-2.911-5.91-.324.029-2.614 1.638-5.089 3.576m92.604-1.146c-.882 1.347-1.586 2.802-1.565 3.234s2.064 2.275 4.54 4.097l4.501 3.311 1.926-2.311c2.523-3.027 2.521-3.036-1.225-5.874-6.963-5.274-6.435-5.115-8.177-2.457M81.802 45.695 81.5 51.5l-10.5.265c-5.775.146-11.082.477-11.793.735-1.906.693.373 4.5 2.693 4.5 1.007 0 3.016.933 4.465 2.073L69 61.145v35.773c0 39.547.318 37.601-6.5 39.78-1.922.614-3.115 1.739-3.32 3.13-.312 2.123-.055 2.172 11.25 2.172H82l-.001 5.75-.001 5.75 4.251-.114 4.251-.114V40.5l-4.198-.305-4.199-.305zm18.448-5.033c-.85.343-1.25 3.002-1.25 8.314 0 8.268.444 9.019 5.332 9.028 3.325.005 8.378 3.539 10.298 7.202 2.519 4.806 2.45 15.309-.13 19.689-2.727 4.63-6.378 7.145-11.337 7.81-4.145.556-4.163.576-4.163 4.82 0 2.81.496 4.451 1.457 4.82 2.632 1.01 6.745 8.849 10.279 19.592 5.516 16.767 9.901 21.053 21.546 21.059 10.396.006 18.718-4.64 18.718-10.451 0-3.063-1.07-3.23-3.5-.545-3.948 4.363-7.691 1.418-12.772-10.048-7.248-16.358-11.14-21.02-19.254-23.063-2.461-.619-4.474-1.459-4.474-1.865 0-.407 2.813-1.022 6.25-1.367 4.115-.413 8.447-1.743 12.681-3.892C137.853 87.743 141 82.779 141 74.303c0-12.452-8.999-19.982-26.5-22.176l-5-.627-.3-5.75-.3-5.75-3.7.079c-2.035.043-4.262.306-4.95.583m-66 4.819C31.913 47.889 30 50.095 30 50.383c0 .675 6.984 4.002 7.343 3.498a520 520 0 0 1 3.433-4.486l3.162-4.105-2.283-2.145c-1.256-1.18-2.48-2.122-2.719-2.094-.24.028-2.349 2.021-4.686 4.43m123.405-2.652c-2.243 2.478-2.103 3.059 1.838 7.666 2.726 3.186 3.669 3.743 4.662 2.75C164.84 52.56 166.21 52 167.2 52s1.8-.493 1.8-1.095c0-1.176-7.97-9.905-9.044-9.905-.355 0-1.391.823-2.301 1.829M23.199 62.527c-2.77 5.702-2.761 7.089.051 7.843 3.485.934 3.584.877 5.73-3.33 2.471-4.845 2.51-5.947.27-7.648-2.809-2.132-3.721-1.66-6.051 3.135m146.375-3.006c-1.891 1.43-1.883 1.549.439 6.506 2.242 4.788 2.523 5.015 5.426 4.394 1.683-.36 3.193-.771 3.353-.914.161-.142-.827-2.789-2.195-5.883-2.587-5.85-3.787-6.551-7.023-4.103M17.202 82.75c-.547 3.162-.791 6.088-.54 6.5s1.722.75 3.269.75c2.498 0 2.883-.438 3.439-3.913.344-2.151.879-4.573 1.189-5.38.383-.999-.463-1.826-2.647-2.588C20.146 77.504 18.588 77 18.45 77s-.7 2.588-1.248 5.75m159.926-4.674c-2.011.805-2.278 1.425-1.75 4.062.342 1.712.622 4.181.622 5.487 0 2.057.479 2.375 3.572 2.375h3.572l-.697-5.75c-.959-7.912-.964-7.917-5.319-6.174m2.708 19.699c-2.378.305-2.739.886-3.361 5.406-.75 5.451.058 6.774 4.151 6.804 1.865.013 2.189-.691 2.636-5.735.28-3.162.223-5.99-.127-6.283-.349-.293-1.834-.38-3.299-.192m-163.634 5.651c.254 3.064.742 5.851 1.084 6.193.341.342 1.801.325 3.244-.037 2.47-.62 2.605-.965 2.297-5.87-.321-5.115-.39-5.218-3.707-5.535l-3.38-.323zM.272 105c0 2.475.195 3.487.434 2.25.238-1.237.238-3.263 0-4.5-.239-1.237-.434-.225-.434 2.25m196.886 8c0 1.375.227 1.938.504 1.25.278-.687.278-1.812 0-2.5-.277-.687-.504-.125-.504 1.25m-195 5c0 1.375.227 1.938.504 1.25.278-.687.278-1.812 0-2.5-.277-.687-.504-.125-.504 1.25m18.177-.305-2.164.422 2.006 5.941c1.104 3.268 2.169 5.942 2.368 5.942 1.038 0 5.455-2.415 5.455-2.982 0-2.283-3.39-9.994-4.344-9.882-.636.075-2.13.326-3.321.559m152.293 3.884c-.895 2.627-1.628 5.075-1.628 5.439 0 1.129 5.264 3.123 6.019 2.28.909-1.014 4.083-10.53 3.655-10.957-.176-.176-1.692-.595-3.369-.93-2.91-.582-3.123-.392-4.677 4.168m23.53-.579c0 1.375.227 1.938.504 1.25.278-.687.278-1.812 0-2.5-.277-.687-.504-.125-.504 1.25M99 137c0 8.8.338 16.023.75 16.05s2.662.216 5 .418l4.25.368v-6.458c0-4.284-.624-7.707-1.852-10.168-1.019-2.04-2.679-6.522-3.689-9.96-1.045-3.553-2.403-6.25-3.148-6.25-1.027 0-1.311 3.471-1.311 16M3.158 124c0 1.375.227 1.938.504 1.25.278-.687.278-1.812 0-2.5-.277-.687-.504-.125-.504 1.25M194 126.6c0 5.46-11.505 26.011-19.902 35.552-5.988 6.802-23.009 19.272-32.473 23.788-14.542 6.941-22.537 8.562-42.125 8.544-14.545-.014-18.215-.346-25.412-2.299-22.081-5.992-45.644-22.765-57.251-40.753-3.195-4.952-8.639-15.64-10.402-20.421-.712-1.931-1.326-2.74-1.365-1.798-.154 3.757 6.325 17.904 12.268 26.787 4.325 6.465 14.649 18 16.11 18 .683 0 2.099.955 3.147 2.122 4.835 5.387 25.243 16.605 34.405 18.913 2.475.623 6.975 1.571 10 2.107s7.812 1.458 10.639 2.049 7.551.822 10.5.513c25.392-2.66 40.49-8.272 58.327-21.679 13.953-10.487 21.57-19.785 28.689-35.019 1.672-3.578 3.438-7.274 3.924-8.212 1.16-2.241 2.355-9.794 1.549-9.794-.345 0-.628.72-.628 1.6m-30.927 12.099-3.312 4.699 2.773 2.211c1.525 1.216 3.267 2.021 3.872 1.789 1.09-.419 6.594-8.538 6.594-9.727 0-.546-5.328-3.671-6.258-3.671-.196 0-1.847 2.114-3.669 4.699m-134.323-3.01c-2.306.603-2.208 2.42.364 6.78 3.055 5.177 5.108 5.988 7.828 3.092l2.219-2.361-2.714-4.1c-2.592-3.917-3.767-4.438-7.697-3.411m12.471 16.32-2.157 2.009 4.33 3.991c2.381 2.195 4.565 3.991 4.853 3.991s1.292-1.173 2.231-2.607c1.676-2.558 1.647-2.669-1.581-6-3.821-3.942-4.751-4.109-7.676-1.384m109.385 1.399-3.894 3.334 1.894 2.597c1.042 1.429 2.249 2.612 2.683 2.63s2.676-1.73 4.983-3.882c4.155-3.875 4.177-3.933 2.307-6-2.499-2.761-3.372-2.617-7.973 1.321m-93.958 10.611c-1.898 3.213-2.528 2.402 5.817 7.481 1.355.825 2.651 1.5 2.878 1.5.598 0 3-6.008 2.542-6.354-.212-.16-2.442-1.467-4.956-2.905l-4.572-2.616zm79.852-.46c-2.2 1.337-4.397 2.565-4.882 2.73-.485.164-.135 1.744.778 3.511l1.661 3.211 3.722-1.927c7.051-3.652 7.424-4.204 4.917-7.269l-2.196-2.686zm-62.092 8.62c-.856 1.654-1.41 3.144-1.232 3.311.614.578 11.165 3.503 11.484 3.184.175-.176.586-1.652.911-3.28.566-2.829.366-3.032-4.508-4.591l-5.101-1.631zm48.092-2.586c-.55.164-2.899.787-5.219 1.383-4.064 1.045-4.196 1.203-3.606 4.304.337 1.771.724 3.359.861 3.529.65.808 11.46-3.099 11.429-4.13-.06-1.969-2.4-5.405-3.465-5.086m-28.592 3.657c-.05.137-.3 1.713-.555 3.5l-.464 3.25H106v-7h-6c-3.3 0-6.041.113-6.092.25"/></svg>