<svg xmlns="http://www.w3.org/2000/svg" width="200" height="200" fill="#000000"><path fill-opacity=".176" fill-rule="evenodd" d="M62.432 63.316c-.297.774-.403 4.058-.236 7.296L62.5 76.5l7 .5 7 .5.5 7 .5 7 7 .5 7 .5.294 7.25.294 7.25H78.244c-9.434 0-14.226.382-15.044 1.2-1.625 1.625-1.559 12.257.085 13.621.706.587 3.969 1.204 7.25 1.373l5.965.306.306 5.965c.169 3.281.786 6.544 1.373 7.25.623.751 3.271 1.285 6.372 1.285 8.108 0 8.449-.669 8.449-16.571V108h14v5.929c0 4.056.496 6.424 1.571 7.5 1.076 1.075 3.444 1.571 7.5 1.571H122v5.929c0 7.584 1.372 9.071 8.371 9.071 2.876 0 5.769-.54 6.429-1.2 1.558-1.558 1.558-12.042 0-13.6-.679-.679-3.933-1.2-7.5-1.2H123v-14h5.929c9.211 0 9.071.36 9.071-23.371 0-14.4-.346-20.575-1.2-21.429-.858-.858-7.262-1.2-22.481-1.2-24.235 0-22.012-.936-22.558 9.5l-.261 5h-14l-.5-7-.5-7-6.764-.296c-5.099-.223-6.896.05-7.304 1.112m31.224 14.431c-.273.442-.617 3.717-.764 7.278l-.268 6.475 6.4.303c3.52.167 6.979.785 7.688 1.373.804.667 1.288 3.463 1.288 7.446V107h14.053l-.276-14.75-.277-14.75-13.674-.278c-7.52-.152-13.897.084-14.17.525"/><path fill-opacity=".124" fill-rule="evenodd" d="M62.432 63.316c-.297.774-.403 4.058-.236 7.296L62.5 76.5l7 .5 7 .5.261 5c.495 9.463.42 9.372 7.997 9.704l6.742.296.294 7.25.294 7.25H78.244c-9.434 0-14.226.382-15.044 1.2-1.612 1.612-1.572 12.442.05 13.487.688.443 3.95 1.032 7.25 1.309l6 .504.306 5.965c.169 3.281.694 6.433 1.168 7.004.516.621 3.406.836 7.194.535l6.332-.504.5-14 .5-14 7.25-.294 7.25-.294v5.973c0 7.817 1.292 9.115 9.071 9.115H122l.015 5.75c.022 8.033.416 8.403 8.575 8.049l6.91-.299v-13l-7-.5-7-.5-.294-7.25-.294-7.25h5.973c9.261 0 9.115.375 9.115-23.371 0-14.4-.346-20.575-1.2-21.429-.858-.858-7.243-1.2-22.393-1.2C90.316 62 92 61.314 92 71.126v5.962l-7.25-.294-7.25-.294-.5-7-.5-7-6.764-.296c-5.099-.223-6.896.05-7.304 1.112m30.766 14.525c-.903.583-1.209 2.805-1 7.25L92.5 91.5l7 .5 7 .5.261 5c.505 9.648.375 9.5 8.285 9.5h7.007l-.276-14.75-.277-14.75-13.5-.25c-7.425-.138-14.086.128-14.802.591"/><path fill-opacity=".087" fill-rule="evenodd" d="M137.422 85c0 11.275.146 15.888.324 10.25s.178-14.862 0-20.5-.324-1.025-.324 10.25m-15.033 7.5c.001 7.15.161 9.944.353 6.208.193-3.735.192-9.585-.003-13-.194-3.414-.352-.358-.35 6.792m-25.621 15.225c1.797.222 4.497.218 6-.01 1.503-.229.032-.411-3.268-.405s-4.529.192-2.732.415m30 0c1.797.222 4.497.218 6-.01 1.503-.229.032-.411-3.268-.405s-4.529.192-2.732.415M107.3 114c0 3.025.187 4.263.416 2.75s.229-3.987 0-5.5-.416-.275-.416 2.75m-40.05 8.716c1.513.229 3.987.229 5.5 0s.275-.416-2.75-.416-4.263.187-2.75.416m45.518.009c1.797.222 4.497.218 6-.01 1.503-.229.032-.411-3.268-.405s-4.529.192-2.732.415m9.542 6.775c.005 3.3.192 4.529.415 2.732s.218-4.497-.01-6c-.229-1.503-.411-.032-.405 3.268m14.99.5c0 3.025.187 4.262.416 2.75s.229-3.988 0-5.5-.416-.275-.416 2.75"/><path fill-opacity=".334" fill-rule="evenodd" d="M107.3 114c0 3.025.187 4.263.416 2.75s.229-3.987 0-5.5-.416-.275-.416 2.75m-40.036 8.718c1.52.229 3.77.223 5-.014s-.014-.425-2.764-.418-3.756.202-2.236.432m45.504.007c1.797.222 4.497.218 6-.01 1.503-.229.032-.411-3.268-.405s-4.529.192-2.732.415"/></svg>