<svg xmlns="http://www.w3.org/2000/svg" width="250" height="250" version="1.1" fill="#000000"><path fill-opacity=".027" d="M 110 0.966 C 106.425 1.420, 101.250 2.322, 98.500 2.971 C 95.750 3.620, 92.033 4.392, 90.241 4.686 C 88.448 4.980, 86.734 5.621, 86.432 6.110 C 86.129 6.600, 85.229 7, 84.430 7 C 83.028 7, 78.436 8.881, 69 13.321 C 45.024 24.602, 19.733 51.771, 9.724 77 C 9.179 78.375, 8.282 80.625, 7.732 82 C 7.182 83.375, 6.377 85.400, 5.942 86.500 C 5.507 87.600, 4.926 89.625, 4.651 91 C 4.376 92.375, 3.387 96.650, 2.451 100.500 C 0.056 110.361, 0.056 139.639, 2.451 149.500 C 3.387 153.350, 4.376 157.625, 4.651 159 C 4.926 160.375, 5.507 162.400, 5.942 163.500 C 6.890 165.898, 8.365 169.588, 9.740 173 C 11.878 178.307, 15.534 185.515, 16.250 185.833 C 16.663 186.017, 17 186.599, 17 187.128 C 17 189.683, 28.415 204.512, 36.945 213.039 C 49.145 225.235, 64.371 235.616, 76.500 240.008 C 77.600 240.407, 79.737 241.243, 81.250 241.866 C 82.763 242.490, 85.013 243.416, 86.250 243.925 C 87.487 244.433, 89.625 245.074, 91 245.349 C 92.375 245.624, 96.650 246.619, 100.500 247.562 C 110.377 249.979, 139.623 249.979, 149.500 247.562 C 153.350 246.619, 157.625 245.624, 159 245.349 C 160.375 245.074, 162.512 244.433, 163.750 243.925 C 164.988 243.416, 167.012 242.610, 168.250 242.134 C 172.436 240.522, 176.491 238.772, 178.500 237.708 C 179.600 237.126, 182.848 235.410, 185.717 233.896 C 193.461 229.808, 199.638 225.402, 207.907 218.069 C 215.570 211.274, 229 195.478, 229 193.261 C 229 192.567, 229.367 192, 229.814 192 C 230.536 192, 231.378 190.645, 235.716 182.500 C 236.302 181.400, 237.780 178.250, 239 175.500 C 240.220 172.750, 241.620 169.719, 242.109 168.764 C 242.599 167.809, 243 166.340, 243 165.500 C 243 164.660, 243.406 163.191, 243.903 162.236 C 244.791 160.527, 245.726 157.136, 247.899 147.736 C 248.504 145.115, 249 140.476, 249 137.427 C 249 133.985, 249.379 132.116, 250 132.500 C 250.641 132.896, 250.975 129.777, 250.930 123.809 C 250.883 117.677, 250.566 115.183, 250 116.500 C 249.381 117.940, 249.121 116.893, 249.070 112.764 C 249.032 109.610, 248.504 104.885, 247.899 102.264 C 245.726 92.864, 244.791 89.473, 243.903 87.764 C 243.406 86.809, 243 85.340, 243 84.500 C 243 83.660, 242.599 82.191, 242.109 81.236 C 241.620 80.281, 240.220 77.250, 239 74.500 C 232.151 59.066, 225.274 49.155, 212.852 36.815 C 204.121 28.142, 189.657 17, 187.128 17 C 186.599 17, 186.017 16.663, 185.833 16.250 C 185.514 15.531, 177.949 11.697, 173.250 9.873 C 170.437 8.782, 166.681 7.280, 163.750 6.075 C 162.512 5.567, 160.375 4.926, 159 4.651 C 157.625 4.376, 153.350 3.438, 149.500 2.566 C 141.221 0.690, 119.200 -0.202, 110 0.966 M 115.500 7.580 C 101.811 9.475, 96.319 10.610, 88.528 13.155 C 47.113 26.685, 16.482 62.027, 8.926 105 C 7.232 114.634, 7.232 135.366, 8.926 145 C 11.867 161.727, 19.863 180.809, 29.306 193.635 C 34.943 201.292, 47.635 214.379, 53 218.066 C 54.925 219.389, 57.300 221.153, 58.279 221.986 C 59.257 222.819, 62.182 224.737, 64.779 226.248 C 102.451 248.174, 146.598 248.107, 185.500 226.067 C 198.865 218.494, 216.825 200.888, 224.451 187.882 C 237.074 166.354, 242.379 147.748, 242.379 125 C 242.379 103.597, 236.171 80.185, 226.819 66.320 C 225.269 64.021, 224 61.812, 224 61.412 C 224 58.257, 204.671 37.523, 195 30.305 C 181.527 20.248, 164.210 12.666, 147.345 9.439 C 139.690 7.974, 120.672 6.864, 115.500 7.580 M 82.750 83.093 C 60.338 105.600, 42 124.337, 42 124.729 C 42 125.862, 123.353 207, 124.488 207 C 125.809 207, 207 125.812, 207 124.491 C 207 123.132, 125.749 41.978, 124.495 42.085 C 123.948 42.131, 105.163 60.585, 82.750 83.093 M 97.243 95.257 C 82.809 109.698, 71 121.848, 71 122.257 C 71 122.666, 77.826 123, 86.169 123 L 101.338 123 113.128 111.250 L 124.918 99.500 125.209 84.249 C 125.395 74.483, 125.138 68.998, 124.493 68.999 C 123.939 68.999, 111.677 80.816, 97.243 95.257 M 0.360 125 C 0.360 130.225, 0.529 132.363, 0.735 129.750 C 0.941 127.138, 0.941 122.862, 0.735 120.250 C 0.529 117.638, 0.360 119.775, 0.360 125" stroke="none" fill="#000000" fill-rule="evenodd"/><path fill-opacity=".105" d="M 111 1.623 C 69.426 6.915, 35.789 29.955, 15.088 67.317 C 10.845 74.975, 5.675 89.420, 3.390 100 C 0.670 112.592, 0.874 139.124, 3.789 151.783 C 14.624 198.849, 51.068 235.299, 98.217 246.225 C 105.933 248.014, 110.539 248.371, 125.500 248.344 C 142.362 248.312, 144.245 248.115, 155.287 245.214 C 190.470 235.974, 219.741 212.338, 235.966 180.069 C 245.127 161.847, 248.352 147.509, 248.352 125 C 248.352 102.603, 245.119 88.136, 236.106 70.211 C 227.745 53.582, 211.909 34.483, 199.450 26.001 C 196.727 24.148, 194.275 22.329, 194 21.958 C 192.816 20.361, 178.272 12.810, 170.036 9.514 C 156.508 4.102, 145.740 2.017, 129 1.567 C 121.025 1.353, 112.925 1.378, 111 1.623 M 110 7.480 C 82.535 11.342, 60.658 22.164, 41.411 41.411 C 21.237 61.585, 10.516 84.263, 6.974 114.250 C 4.584 134.489, 9.064 157.827, 19.306 178.500 C 32.716 205.566, 62.691 230.990, 89.500 238.038 C 91.150 238.472, 94.975 239.482, 98 240.284 C 109.509 243.333, 124.164 244.395, 135.750 243.018 C 141.663 242.316, 148.975 241.085, 152 240.284 C 155.025 239.482, 158.850 238.468, 160.500 238.029 C 164.803 236.884, 166.500 236.191, 176 231.705 C 199.753 220.489, 219.773 200.665, 231.247 177 C 240.626 157.659, 245.168 133.869, 243.028 115.299 C 240.983 97.556, 238.462 88.367, 231.695 74 C 225.845 61.579, 218.816 51.682, 208.567 41.433 C 198.329 31.195, 188.442 24.170, 176 18.295 C 164.892 13.049, 165.622 13.317, 153.500 10.027 C 147.360 8.360, 129.095 6.001, 123.500 6.151 C 120.750 6.225, 114.675 6.823, 110 7.480 M 83.242 83.905 L 42.985 124.482 83.979 165.476 L 124.973 206.470 165.486 166.001 C 187.769 143.744, 206 125.074, 206 124.512 C 206 123.088, 125.720 42.962, 124.495 43.164 C 123.948 43.254, 105.384 61.588, 83.242 83.905 M 96.243 95.257 C 81.259 110.248, 69 122.848, 69 123.257 C 69 123.666, 76.271 124, 85.157 124 L 101.315 124 113.176 112.285 L 125.038 100.569 136.784 112.285 L 148.530 124 164.265 124 C 172.919 124, 180 123.659, 180 123.243 C 180 122.098, 125.637 68, 124.486 68 C 123.936 68, 111.227 80.266, 96.243 95.257" stroke="none" fill="#000000" fill-rule="evenodd"/><path fill-opacity=".104" d="M 107.500 2.967 C 106.400 3.458, 104.182 3.891, 102.571 3.930 C 100.960 3.968, 98.260 4.417, 96.571 4.928 C 81.861 9.370, 77.474 10.960, 70.500 14.376 C 66.100 16.531, 62.275 18.611, 62 18.997 C 61.725 19.384, 60.375 20.289, 59 21.009 C 54.447 23.391, 41.580 33.723, 36.403 39.153 C 30.895 44.931, 23.101 54.975, 21.004 59 C 20.287 60.375, 19.409 61.725, 19.052 62 C 17.736 63.014, 9.641 80.552, 7.802 86.372 C 3.828 98.953, 2.602 108.058, 2.602 125 C 2.602 141.942, 3.828 151.047, 7.802 163.628 C 9.374 168.602, 17.514 186.257, 19.270 188.500 C 19.700 189.050, 21.375 191.550, 22.991 194.055 C 30.492 205.681, 44.319 219.508, 55.945 227.009 C 58.450 228.625, 60.950 230.300, 61.500 230.730 C 63.743 232.486, 81.398 240.626, 86.372 242.198 C 98.953 246.172, 108.058 247.398, 125 247.398 C 141.942 247.398, 151.047 246.172, 163.628 242.198 C 168.581 240.633, 186.901 232.205, 188 230.986 C 188.275 230.680, 191.159 228.687, 194.409 226.556 C 197.659 224.426, 201.075 221.966, 202.001 221.091 C 202.927 220.216, 205.777 217.793, 208.334 215.707 C 213.226 211.716, 222.523 200.637, 227.375 193.016 C 228.956 190.532, 230.540 188.275, 230.895 188 C 231.606 187.449, 236.699 177.055, 239.715 170 C 241.583 165.631, 242.775 161.783, 244.825 153.500 C 250.579 130.261, 248.516 100.587, 239.715 80 C 236.973 73.585, 231.641 62.590, 230.986 62 C 230.680 61.725, 228.687 58.841, 226.556 55.591 C 224.426 52.341, 221.966 48.925, 221.091 47.999 C 220.216 47.073, 217.807 44.240, 215.739 41.704 C 213.670 39.167, 208.270 34.155, 203.739 30.566 C 199.207 26.976, 195.022 23.641, 194.437 23.155 C 193.852 22.669, 192.277 21.692, 190.937 20.986 C 189.597 20.279, 188.275 19.421, 188 19.080 C 187.498 18.457, 177.865 13.701, 170.628 10.502 C 164.605 7.840, 159.139 6.263, 147.500 3.829 C 141.014 2.473, 110.099 1.807, 107.500 2.967 M 106.500 7.116 C 67.506 14.074, 35.656 37.428, 18.693 71.500 C 9.630 89.704, 6 105.003, 6 125 C 6 145.019, 9.595 160.137, 18.723 178.500 C 38.648 218.584, 79.883 243.997, 125 243.997 C 155.592 243.997, 185.277 232.044, 207.859 210.633 C 215.246 203.629, 225.503 189.608, 230.769 179.315 C 250.911 139.944, 248.104 95.202, 223.128 57.517 C 217.438 48.931, 202.799 34.048, 193.795 27.694 C 180.148 18.065, 162.073 10.643, 144.500 7.454 C 135.757 5.868, 114.553 5.679, 106.500 7.116 M 83.801 84.409 L 44.102 124.500 84.432 164.846 L 124.762 205.191 164.881 165.144 C 186.946 143.118, 205 124.735, 205 124.294 C 205 123.017, 125.600 43.982, 124.495 44.159 C 123.948 44.246, 105.635 62.359, 83.801 84.409 M 95.205 95.295 C 79.650 110.857, 67.240 123.907, 67.628 124.295 C 68.016 124.683, 75.754 125, 84.824 125 L 101.315 125 113.176 113.285 L 125.038 101.569 136.784 113.285 L 148.530 125 164.598 125 C 173.436 125, 180.984 124.683, 181.372 124.295 C 182.165 123.502, 126.081 67, 124.500 67 C 123.943 67, 110.760 79.733, 95.205 95.295" stroke="none" fill="#000000" fill-rule="evenodd"/><path fill-opacity=".115" d="M 107.500 3.967 C 106.400 4.458, 104.182 4.891, 102.571 4.930 C 100.960 4.968, 98.260 5.417, 96.571 5.928 C 81.927 10.350, 78.422 11.541, 77.908 12.268 C 77.583 12.729, 76.908 13.009, 76.408 12.891 C 75.125 12.589, 70.314 14.683, 69.586 15.861 C 69.251 16.403, 67.632 17.142, 65.989 17.503 C 64.345 17.864, 63 18.583, 63 19.101 C 63 19.619, 61.769 20.596, 60.264 21.271 C 57.429 22.544, 57.205 22.708, 50.379 28.502 C 48.112 30.426, 45.849 32, 45.350 32 C 44.205 32, 32 44.256, 32 45.406 C 32 46.145, 30.167 48.484, 23.502 56.250 C 22.676 57.212, 22 58.450, 22 59 C 22 59.550, 21.203 60.797, 20.230 61.770 C 18.414 63.586, 12.601 74.707, 12.530 76.500 C 12.508 77.050, 11.992 78.400, 11.383 79.500 C 9.814 82.334, 5.974 95.960, 4.337 104.500 C 3.342 109.689, 3.342 140.311, 4.337 145.500 C 5.974 154.040, 9.814 167.666, 11.383 170.500 C 11.992 171.600, 12.535 172.950, 12.589 173.500 C 12.774 175.368, 14.872 179.803, 15.861 180.414 C 16.403 180.749, 17.142 182.368, 17.503 184.011 C 17.864 185.655, 18.583 187, 19.101 187 C 19.619 187, 20.596 188.231, 21.271 189.736 C 21.947 191.241, 23.095 193.154, 23.821 193.986 C 24.548 194.819, 28.086 199.245, 31.684 203.822 C 35.282 208.399, 41.100 214.402, 44.613 217.163 C 48.126 219.924, 51 222.591, 51 223.091 C 51 223.591, 51.675 224, 52.500 224 C 53.325 224, 54.794 224.788, 55.764 225.750 C 56.734 226.713, 58.759 228.053, 60.264 228.729 C 61.769 229.404, 63 230.417, 63 230.979 C 63 231.540, 63.661 232, 64.469 232 C 66.226 232, 73.773 235.824, 74.574 237.120 C 74.884 237.622, 75.544 237.782, 76.041 237.475 C 76.537 237.168, 77.969 237.557, 79.222 238.340 C 82.045 240.104, 94.853 243.814, 104.500 245.663 C 106.700 246.085, 115.925 246.430, 125 246.430 C 134.075 246.430, 143.300 246.085, 145.500 245.663 C 155.147 243.814, 167.955 240.104, 170.778 238.340 C 172.031 237.557, 173.443 237.156, 173.915 237.447 C 174.387 237.739, 175.329 237.308, 176.009 236.489 C 176.689 235.670, 177.684 235, 178.221 235 C 179.552 235, 186.373 231.786, 187.030 230.849 C 187.768 229.797, 196.343 224.040, 197.204 224.018 C 199.198 223.967, 223.967 199.198, 224.018 197.204 C 224.040 196.343, 229.797 187.768, 230.849 187.030 C 231.966 186.246, 235 179.432, 235 177.706 C 235 176.885, 235.704 175.944, 236.563 175.614 C 237.423 175.284, 237.858 174.579, 237.530 174.048 C 237.201 173.516, 237.345 172.276, 237.849 171.291 C 240.217 166.669, 241.709 162.237, 243.840 153.500 C 249.777 129.157, 247.199 96.962, 237.849 78.709 C 237.345 77.724, 237.201 76.484, 237.530 75.952 C 237.858 75.421, 237.423 74.716, 236.563 74.386 C 235.704 74.056, 234.986 73.047, 234.968 72.143 C 234.951 71.239, 234.276 69.626, 233.468 68.559 C 232.661 67.491, 232 65.804, 232 64.809 C 232 63.814, 231.626 63, 231.168 63 C 230.368 63, 224 53.811, 224 52.656 C 224 51.380, 209.013 35.767, 202.157 29.899 C 199.843 27.918, 196.836 25.790, 195.475 25.170 C 194.114 24.550, 193 23.583, 193 23.021 C 193 22.460, 192.325 22, 191.500 22 C 190.675 22, 189.100 21.100, 188 20 C 186.900 18.900, 185.750 18, 185.445 18 C 184.165 18, 176.070 13.922, 175.492 12.986 C 175.145 12.426, 174.423 12.238, 173.887 12.570 C 173.351 12.901, 172.278 12.646, 171.503 12.002 C 169.337 10.205, 160.313 7.508, 147.500 4.829 C 141.014 3.473, 110.099 2.807, 107.500 3.967 M 106 6.531 C 60.872 13.493, 22.127 47.984, 9.470 92.461 C -2.403 134.184, 9.296 178.431, 40.433 209.567 C 59.320 228.454, 83.350 240.446, 109.322 243.946 C 180.369 253.520, 244.793 196.929, 244.793 124.947 C 244.793 105.985, 241.470 91.366, 233.214 74 C 226.831 60.575, 220.060 50.983, 209.538 40.462 C 199.124 30.047, 189.679 23.365, 175.840 16.619 C 154.619 6.275, 130.364 2.772, 106 6.531 M 84.658 84.842 L 44.825 124.685 48.162 125.943 C 49.998 126.635, 52.400 127.592, 53.500 128.068 C 54.600 128.544, 62.925 131.439, 72 134.500 C 81.075 137.561, 89.400 140.479, 90.500 140.983 C 91.600 141.487, 98.125 143.793, 105 146.108 C 111.875 148.422, 117.972 150.675, 118.550 151.114 C 119.127 151.553, 121.377 152.168, 123.550 152.481 C 126.621 152.924, 130.058 152.136, 139 148.939 C 145.325 146.678, 155.675 143.044, 162 140.865 C 168.325 138.686, 174.512 136.474, 175.750 135.951 C 176.988 135.428, 179.012 134.565, 180.250 134.033 C 181.488 133.501, 186.644 131.727, 191.709 130.090 C 196.774 128.454, 201.898 126.590, 203.096 125.949 C 205.142 124.853, 202.867 122.375, 165.392 84.892 C 143.456 62.951, 125.280 45, 125 45 C 124.720 45, 106.566 62.929, 84.658 84.842 M 94.538 94.962 C 78.617 110.890, 65.888 124.221, 66.253 124.586 C 66.617 124.951, 74.922 125.174, 84.708 125.082 L 102.500 124.915 113.731 113.742 L 124.963 102.570 136.944 114.403 L 148.925 126.237 165.409 125.839 C 174.475 125.620, 182.234 125.099, 182.651 124.682 C 183.480 123.853, 126.150 66, 124.500 66 C 123.943 66, 110.460 79.033, 94.538 94.962" stroke="none" fill="#000000" fill-rule="evenodd"/></svg>