<svg xmlns="http://www.w3.org/2000/svg" width="64" height="64" version="1.1" fill="#000000"><path fill-opacity=".157" d="M 18.250 8.695 L 5 16.164 5.003 32.332 L 5.007 48.500 18.253 56 C 25.539 60.125, 31.950 63.500, 32.500 63.500 C 33.050 63.500, 39.451 60.125, 46.724 56 L 59.948 48.500 59.974 32.401 L 60 16.301 46.145 8.651 C 38.525 4.443, 32.113 1.051, 31.895 1.113 C 31.678 1.175, 25.538 4.587, 18.250 8.695" stroke="none" fill="#000000" fill-rule="evenodd"/><path fill-opacity=".312" d="M 11.258 12.852 L 5.016 16.500 5.258 32.457 L 5.500 48.414 18.961 56.125 L 32.422 63.837 36.461 61.495 C 38.682 60.206, 44.775 56.692, 50 53.686 L 59.500 48.219 59.500 32.414 L 59.500 16.608 53.085 12.899 C 49.421 10.780, 45.990 9.446, 45.085 9.788 C 44.213 10.117, 38.247 13.450, 31.827 17.193 C 25.407 20.937, 19.894 24, 19.577 24 C 19.260 24, 19 20.625, 19 16.500 C 19 12.375, 18.663 9.046, 18.250 9.102 C 17.837 9.158, 14.691 10.846, 11.258 12.852" stroke="none" fill="#000000" fill-rule="evenodd"/><path fill-opacity=".385" d="M 11.250 13.587 L 5 17.116 5 32.498 L 5 47.879 18.298 55.440 C 25.611 59.598, 31.957 63, 32.400 63 C 32.843 63, 38.997 59.737, 46.076 55.750 L 58.948 48.500 58.962 32.500 L 58.976 16.500 53.059 13.250 C 49.804 11.462, 46.885 10, 46.571 10 C 46.257 10, 46 16.711, 46 24.914 L 46 39.827 39.023 43.849 L 32.047 47.872 25.656 44.186 L 19.266 40.500 18.383 25.279 L 17.500 10.058 11.250 13.587" stroke="none" fill="#000000" fill-rule="evenodd"/><path fill-opacity=".208" d="M 39.446 44.195 L 32.500 48.244 25.410 44.466 L 18.320 40.689 12.180 44.064 C 8.803 45.921, 6.368 47.750, 6.770 48.130 C 7.899 49.196, 31.874 63, 32.598 63 C 32.950 63, 35.772 61.486, 38.869 59.635 C 41.966 57.785, 47.802 54.367, 51.837 52.040 C 60.005 47.331, 60.067 47.984, 50.946 42.756 L 46.392 40.145 39.446 44.195" stroke="none" fill="#000000" fill-rule="evenodd"/></svg>