<svg xmlns="http://www.w3.org/2000/svg" width="20" height="20" fill="#000000"><circle cx="10" cy="10" r="10" fill="#000000"/><path fill="#fafafa" d="M20 10.036c-.043 5.552-4.543 10.005-10.07 9.963C4.398 19.96-.044 15.44 0 9.897.046 4.41 4.558-.036 10.046 0 15.573.037 20.04 4.542 20 10.037v-.001ZM.724 10.004c.01 5.109 4.143 9.233 9.262 9.245 5.125.01 9.306-4.143 9.288-9.258-.019-5.327-4.431-9.345-9.51-9.258C4.853.817.714 4.99.724 10.003Zm11.713-4.342-.37 1.184c-.689-.114-1.327-.25-1.973-.313-.384-.037-.782.063-.93.494-.153.443-.171.915.195 1.257.377.35.818.627 1.231.938.38.285.796.534 1.127.868.897.906 1.057 2.004.688 3.187-.218.702-.738 1.146-1.403 1.415-1.018.413-2.752.209-3.726-.446l.428-1.24c.62.164 1.187.36 1.77.453.557.088 1.14.003 1.425-.565.287-.573.197-1.176-.253-1.636-.348-.354-.783-.624-1.19-.92-.27-.196-.573-.35-.837-.556a2.852 2.852 0 0 1-.868-3.436 1.888 1.888 0 0 1 1.336-1.12c1.141-.27 2.248-.148 3.35.437v-.001ZM5.092 9.835a1.155 1.155 0 0 1-1.143 1.154 1.183 1.183 0 0 1-1.165-1.185A1.177 1.177 0 0 1 3.96 8.673c.637.009 1.137.523 1.133 1.162h-.001Zm10.993-1.13c.635-.001 1.107.467 1.116 1.105a1.151 1.151 0 0 1-1.16 1.18 1.157 1.157 0 0 1-1.138-1.163c0-.665.481-1.122 1.182-1.122Z"/></svg>