<svg xmlns="http://www.w3.org/2000/svg" width="200" height="200" fill="#000000"><path fill-opacity=".173" fill-rule="evenodd" d="M88.25.716c1.513.229 3.987.229 5.5 0S94.025.3 91 .3s-4.263.187-2.75.416M104.083.36c.23.199 3.567.6 7.417.893 4.069.309 5.953.2 4.5-.261-2.473-.784-12.721-1.327-11.917-.632M81.75 1.662c.688.278 1.813.278 2.5 0 .688-.277.125-.504-1.25-.504s-1.937.227-1.25.504m-4.937 1.021c.721.289 1.584.253 1.916-.079s-.258-.568-1.312-.525c-1.165.048-1.402.285-.604.604M121.5 3c1.1.473 2.9.859 4 .859h2l-2-.859c-1.1-.473-2.9-.859-4-.859h-2zM68.188 4.683c-2.372.839-4.136 1.702-3.92 1.918s2.831-.473 5.812-1.531S74.825 3.149 74 3.152s-3.441.692-5.812 1.531M81.5 4.472c-14.234 2.266-24.947 6.707-39 16.166-6.419 4.321-7.21 4.673-4 1.784 2.2-1.98 7.581-5.81 11.958-8.511S57.965 9 57.412 9c-1.487 0-15.262 8.649-20.174 12.667-2.344 1.917-3.962 3.971-3.595 4.564.386.624.2.79-.442.393-1.374-.849-10.067 8.198-15.424 16.053C-16.942 93.588.854 162.362 55.754 189.44c37.823 18.655 82.923 11.385 113.561-18.305 6.801-6.59 14.064-16.181 18.655-24.635 4.668-8.595 9.963-25.496 10.77-34.38.582-6.404.797-7.062 1.345-4.12.358 1.925.658-2.125.665-9s-.292-11.15-.664-9.5c-.567 2.509-.795 1.94-1.39-3.475-3.134-28.49-22.556-57.612-48.704-73.03-6.42-3.785-19.794-9.229-21.37-8.699-.617.208.678.962 2.878 1.677 7.885 2.562 24.421 11.472 25.984 14 .358.58-1.636-.294-4.432-1.943C139.742 10.183 122.965 5 110.871 5c-4.264 0-8.031-.45-8.371-1-.824-1.334-11.112-1.103-21 .472M93 6.014c-1.055.692-.462.793 2 .341 4.313-.791 5.126-1.36 1.917-1.34-1.329.009-3.092.458-3.917.999M89.5 7c.34.55.816 1 1.059 1S91 7.55 91 7s-.477-1-1.059-1-.781.45-.441 1M60 8c-.825.533-1.05.969-.5.969S61.175 8.533 62 8s1.05-.969.5-.969-1.675.436-2.5.969m21.813.683c.721.289 1.584.253 1.916-.079s-.258-.568-1.312-.525c-1.165.048-1.402.285-.604.604M159 21.378c0 .207.787.995 1.75 1.75 1.586 1.243 1.621 1.208.378-.378-1.307-1.666-2.128-2.195-2.128-1.372M91.734 35.03c-9.705 2.437-16.684 8.339-19.363 16.376-1.377 4.13-1.525 7.452-.936 21 .603 13.865 1.028 16.819 3.069 21.326 3.658 8.08 12.928 13.25 23.778 13.262 5.739.007 11.157 2.089 12.638 4.856.631 1.179 1.08 8.042 1.08 16.513 0 16.292-.196 16.805-7.158 18.679-4.909 1.323-11.025.44-14.077-2.031-1.918-1.553-2.294-2.983-2.609-9.913L87.788 127H73l.022 9.25c.026 11.001 1.678 15.458 7.762 20.944 12.987 11.709 37.983 7.47 45.088-7.645 1.89-4.022 2.128-6.295 2.128-20.357 0-17.891-1.144-23.518-5.97-29.352-4.456-5.388-10.672-7.991-21.401-8.963-8.024-.727-9.401-1.14-11.379-3.408C87.147 85.057 87 83.976 87 70.878c0-7.705.441-14.833.979-15.839 1.238-2.314 6.124-4.04 11.42-4.035 4.516.004 10.528 3.076 10.726 5.481.069.833.237 1.965.375 2.515s.306 3.7.375 7l.125 6 5.25-.1c10.115-.192 10.077-.152 9.832-10.362-.242-10.032-1.699-14.504-6.264-19.222-5.942-6.139-19.079-9.548-28.084-7.286m-38.862 6.72c-1.243 1.586-1.208 1.621.378.378.962-.755 1.75-1.543 1.75-1.75 0-.823-.821-.294-2.128 1.372M.385 100c0 6.875.16 9.688.355 6.25.196-3.437.196-9.062 0-12.5-.195-3.437-.355-.625-.355 6.25m3.731 15.356c-.064 1.57.586 5.62 1.444 9C8.214 134.811 18 153.431 18 148.026c0-.536-1.323-4.305-2.941-8.377-2.587-6.514-4.304-12.318-6.465-21.864-.404-1.785-1.094-2.53-2.017-2.176-.819.314-1.598-.221-1.874-1.286-.301-1.167-.513-.796-.587 1.033"/><path fill-opacity=".199" fill-rule="evenodd" d="M78 5.487c-5.289 1.232-20.156 8.64-26.716 13.311-1.734 1.235-3.604 2.123-4.155 1.974-.991-.269-15.321 10.034-15.962 11.478-.184.412-.84.75-1.458.75-.619 0-2.932 1.688-5.141 3.75-5 4.667-2.1.855 5.894-7.75l6.038-6.5-6.822 6.5C5.14 52.379-5.361 89.783 3.008 124c4.4 17.988 17.083 38.852 30.704 50.51 19.957 17.081 40.61 24.765 66.288 24.661 37.535-.151 70.105-19.865 87.844-53.171 8.606-16.158 11.716-30.815 10.865-51.215-.837-20.084-5.466-34.641-16.089-50.593-5.19-7.793-15.264-19.194-16.954-19.187-.641.003-.024 1.015 1.371 2.25 3.374 2.985 7.474 7.745 6.672 7.745-.352 0-1.981-1.237-3.62-2.75-6.145-5.672-16.346-11.979-16.864-10.426-.195.585-1.034.803-1.864.484-1.746-.67-8.502 1.17-12.861 3.502-3.589 1.921-10.538 2.368-15.877 1.022q-3.879-.978-4.894.039c-.689.689-.276.823 1.283.416 1.696-.444 2.095-.269 1.519.663-.582.942-.207 1.082 1.469.55 1.635-.519 2.045-.382 1.5.5s-.135 1.019 1.5.5c1.358-.431 2.015-.333 1.657.247-.327.528.545 1.48 1.938 2.114 1.444.658 2.268.726 1.917.158-.355-.575.039-.745.93-.403.851.327 1.25 1.073.888 1.659-.408.661-.046.83.955.446 1.187-.456 1.45-.193.994.994-.409 1.067-.227 1.371.54.897.734-.454.958-.195.613.706-.639 1.665-14.266 3.014-16.024 1.586-2.618-2.127-2.084.7.74 3.917 4.61 5.251 6.007 9.567 6.604 20.402l.539 9.777H110v-7.961c0-6.775-.31-8.25-2.079-9.898-4.091-3.811-14.608-3.544-19.059.484C87.224 56.107 87 57.908 87 69.59c0 13.936.719 17.654 3.727 19.264 1.002.536 5.401 1.27 9.775 1.631 10.08.83 16.504 3.578 21.419 9.163 5.183 5.887 6.083 10.279 6.057 29.545-.018 13.666-.319 16.955-1.857 20.307-4.14 9.025-11.803 13.636-23.754 14.292-9.553.525-15.987-1.206-21.559-5.799-5.552-4.576-7.768-10.16-8.482-21.372L71.714 127l5.393-.069c2.966-.038 6.574-.226 8.018-.418 2.429-.324 2.672-.009 3.25 4.208.344 2.507.632 6.183.64 8.169.009 1.985.346 4.105.75 4.71 3.001 4.494 15.641 4.88 20.485.627 1.494-1.313 1.75-3.395 1.75-14.257 0-20.92-.381-21.516-14.604-22.832-12.516-1.158-19.079-4.934-23.705-13.638-1.868-3.516-2.172-6.04-2.511-20.847-.259-11.337.014-18.274.836-21.208 1.464-5.229 6.736-11.685 10.976-13.442 1.69-.7 2.888-1.456 2.664-1.68-.517-.517-7.655 2.851-7.657 3.612-.001.311-3.039.704-6.75.874-3.712.17-8.099.527-9.749.793-1.65.265-3.797.491-4.772.501-.974.01-1.503.452-1.175.982.327.531.225.857-.229.725-1.266-.368-8.516 4.618-11.381 7.827-3.632 4.068-7.296 9.221-9.855 13.863-1.213 2.2-1.932 3.1-1.598 2 1.105-3.64 6.939-12.569 11.724-17.944 2.592-2.912 4.487-5.521 4.211-5.798-.277-.276 1.733-2.513 4.467-4.971l4.97-4.468-3.419-.129c-1.881-.07-4.486-.827-5.79-1.682-1.371-.898-3.133-1.261-4.176-.861-1.234.474-1.578.326-1.089-.466.808-1.307-1.88-.581-4.388 1.186-.825.581-.173-.395 1.45-2.168C43.979 26.34 55.519 18.257 62.577 14.7c5.993-3.02 18.652-7.227 27.571-9.163L96.5 4.159l-6.5.023c-3.575.013-8.975.6-12 1.305m82 14.891c0 .207.787.995 1.75 1.75 1.586 1.243 1.621 1.208.378-.378-1.307-1.666-2.128-2.195-2.128-1.372m-70.187 4.305c.721.289 1.584.253 1.916-.079s-.258-.568-1.312-.525c-1.165.048-1.402.285-.604.604M105 25c-1.236.799-1.148.955.5.885 1.1-.046 3.125-.445 4.5-.885 2.45-.785 2.44-.802-.5-.885-1.65-.046-3.675.352-4.5.885m7.5 1c-.782 1.266.542 1.266 2.5 0 1.293-.835 1.266-.971-.191-.985-.93-.008-1.969.435-2.309.985m15.5 2.393c0 .216.698.661 1.552.989.89.341 1.291.173.941-.393-.587-.951-2.493-1.406-2.493-.596M51.962 41.072 48.5 44.144l3.75-2.691C55.564 39.076 56.642 38 55.712 38c-.158 0-1.846 1.382-3.75 3.072M7.184 69.159C4.193 78.57 2.193 88.053 3.451 86.852c.373-.357 1.336-3.507 2.139-7 .803-3.494 2.395-9.193 3.538-12.666s1.841-6.551 1.551-6.841c-.29-.289-1.863 3.677-3.495 8.814m.895 12.424c.048 1.165.285 1.402.604.605.289-.722.253-1.585-.079-1.917s-.568.258-.525 1.312m-1.506 5.621C4.998 94.978 4.83 97 5.761 97c.54 0 1.291-2.747 1.671-6.105.753-6.651.211-8.976-.859-3.691M173.18 98.792c-.464 13.632-5.927 30.547-13.589 42.071-4.652 6.998-18.92 21.127-21.341 21.134-.687.001-1.25.478-1.25 1.06 0 3.676 18.746-12.954 24.681-21.896 8.373-12.615 13.094-29.32 12.063-42.686l-.384-4.975zM25.272 108c0 2.475.195 3.487.434 2.25.238-1.237.238-3.263 0-4.5-.239-1.237-.434-.225-.434 2.25m-21.022.662c-4.582 1.849 4.817 31.931 13.071 41.838 3.605 4.327 4.237 2.534 1.21-3.438-1.431-2.825-2.335-5.57-2.008-6.099.327-.53.006-.97-.714-.978-.962-.012-.911-.297.191-1.076 1.072-.758 1.159-1.201.306-1.55-.656-.268-.917-1.208-.58-2.088.338-.879.2-1.344-.306-1.032-.506.311-1.007-.643-1.113-2.121s-.73-4.022-1.386-5.653c-.657-1.631-1.381-4.54-1.61-6.465s-.842-3.927-1.363-4.45c-.522-.523-.948-2.237-.948-3.809 0-1.651-.422-2.598-1-2.241-.55.34-1 .141-1-.441 0-1.12-.705-1.222-2.75-.397m21.829 5.662c-.123 2.845 4.768 16.687 7.66 21.676 4.697 8.102 10.651 15.268 17.133 20.62 6.36 5.25 17.395 11.611 22.128 12.756 1.375.332.209-.476-2.592-1.797-15.88-7.489-29.852-20.525-36.211-33.787-2.215-4.62-4.785-10.85-5.711-13.846a1135 1135 0 0 0-2.006-6.446c-.177-.55-.358-.179-.401.824m154.547 6.193c-.894.894-1.626 1.706-1.626 1.804s2.052.258 4.559.355c3.778.146 4.505-.111 4.242-1.5-.429-2.263-5.139-2.695-7.175-.659m2.374 4.389c0 .499.9.671 2 .384s2-.696 2-.907c0-.21-.9-.383-2-.383s-2 .408-2 .906m-5.584 27.788c-4.084 5.939-16.032 18.547-22.916 24.182-5.448 4.461-2.291 2.757 4.5-2.428 3.025-2.31 7.787-6.624 10.582-9.587 5.419-5.743 13.042-16.57 12.236-17.376-.267-.267-2.248 2.077-4.402 5.209M79.5 171.528c2.2.725 4.9 1.313 6 1.306s-.25-.639-3-1.404c-6.256-1.741-8.37-1.672-3 .098m10.75 2.161c.963.252 2.537.252 3.5 0 .963-.251.175-.457-1.75-.457s-2.713.206-1.75.457m16.563-.006c.721.289 1.584.253 1.916-.079s-.258-.568-1.312-.525c-1.165.048-1.402.285-.604.604"/><path fill-opacity=".041" fill-rule="evenodd" d="m86.5 5-2 .859 2-.029c1.1-.016 3.125-.39 4.5-.83l2.5-.801L91 4.17c-1.375-.016-3.4.357-4.5.83M43 25.786c-1.375.924-2.77 2.055-3.1 2.514s-1.23.933-2 1.056c-3.604.573-14.848 9.515-18.977 15.091C17.315 46.618 16 47.945 16 47.397s.337-1.434.75-1.968c.412-.534-.057-.1-1.043.964-1.412 1.524-1.518 2.11-.5 2.756.979.621.896.824-.34.836-2.775.026-9.397 15.167-12.472 28.515C-.024 89-.064 111.481 2.32 121.237c9.598 39.296 39.116 68.141 78.146 76.363 10.19 2.147 29.281 1.913 40.196-.492 30.882-6.805 57.606-28.56 69.841-56.856 5.715-13.217 7.703-22.244 8.237-37.402.556-15.775-.902-25.035-6.139-38.993-3.293-8.777-10.457-21.677-13.357-24.052-1.242-1.017-1.184-.643.263 1.695 1.705 2.757 1.496 2.673-2.576-1.034-8.785-7.999-7.577-7.573-15.37-5.412-3.81 1.057-7.183 2.333-7.494 2.836-.77 1.243-7.241 1.722-9.081.672-.817-.466 1.295 1.902 4.693 5.263 3.399 3.36 7.485 8.036 9.08 10.392 3.276 4.837 5.29 8.62 2.546 4.783-4.089-5.719-11.538-12.848-12.884-12.331-.775.297-1.147.966-.826 1.486.486.785-16.348.437-20.933-.434-.644-.123-1.026.67-.858 1.779.168 1.1.564 6.612.882 12.25l.576 10.25H110v-7.845c0-6.478-.336-8.149-1.928-9.59-4.615-4.176-15.829-3.81-19.439.636-1.678 2.065-1.818 3.672-1.382 15.799.268 7.425.803 14.246 1.19 15.158.963 2.272 4.83 3.572 12.743 4.283 15.236 1.37 24.22 8.152 26.371 19.908.49 2.675.965 3.438 1.56 2.5.47-.742.861-.971.87-.51.013.721 1.747-.481 7.723-5.354.664-.542 1.864-.985 2.666-.985.803 0 1.609-.418 1.793-.929s6.971-1.044 15.083-1.185l14.75-.257v-8.604c0-7.467-1.057-13.96-3.504-21.525-.544-1.682-.479-1.741.409-.374 2.014 3.103 4.294 13.42 4.943 22.374.53 7.315.933 8.924 2.152 8.596 4.077-1.099 14.252-1.244 15.279-.217.616.616 1.931 1.121 2.921 1.121s1.817.112 1.838.25c1.503 9.948-.468 19.485-6.768 32.75-2.482 5.225-4.366 9.5-4.187 9.5s-.554 1.027-1.629 2.282-1.971 2.606-1.991 3c-.037.714-2.958 4.32-7.168 8.847-1.212 1.304-1.965 2.371-1.673 2.371s-.966 1.233-2.795 2.739c-1.83 1.507-4.902 4.206-6.827 5.999s-4.287 3.515-5.25 3.828-1.75.988-1.75 1.501-.493.933-1.096.933c-.602 0-2.29.831-3.75 1.847s-4.103 2.338-5.873 2.937c-3.013 1.021-3.145.971-2.051-.78.642-1.029 1.625-1.789 2.183-1.688s1.473-.824 2.033-2.056c.561-1.233 1.478-2.174 2.037-2.093 1.646.24 4.517-1.295 4.517-2.414 0-.568.787-1.63 1.75-2.361 1.553-1.179 1.567-1.332.122-1.36-.895-.018-2.187.643-2.872 1.468-1.323 1.594-4.759 1.898-9.875.875-2.447-.489-3.125-1.14-3.125-3 0-1.306-.402-2.375-.893-2.375s-1.143-.652-1.449-1.449q-.56-1.452.893-.893c.895.343 1.449-.059 1.449-1.051 0-.884.506-1.495 1.125-1.357.619.137 1.328-.425 1.576-1.25.358-1.19.258-1.224-.487-.165-.516.735-1.227 1.292-1.582 1.239-.354-.053-3.32 1.254-6.591 2.905-16.823 8.493-37.958 10.612-55.363 5.553-21.133-6.144-35.619-17.999-46.27-37.868-2.284-4.259-3.298-5.393-3.757-4.198-.431 1.123-.239 1.414.61.926.724-.416.886-.334.39.198-.466.5-2.941.91-5.5.91-3.468 0-4.651.382-4.651 1.5 0 .825-.595 1.967-1.321 2.539-1.069.84-.842 1.891 1.184 5.5 1.379 2.453 3.141 5.811 3.917 7.461s2.15 3.613 3.054 4.363 1.416 1.732 1.138 2.182.399 1.452 1.505 2.226c1.106.775 1.713 1.706 1.35 2.069s-.208.66.346.66 1.566 1.229 2.25 2.731c1.233 2.705 1.225 2.713-.792.888-1.12-1.014-4.377-5.28-7.239-9.481-6.716-9.86-7.705-10.834-4.509-4.441 1.428 2.859 2.203 5.441 1.72 5.739-1.353.837-8.725-9.324-11.971-16.501-3.64-8.046-6.752-18.722-7.597-26.057-.549-4.768-.385-5.721 1.076-6.282.948-.364 2.193-.192 2.766.381.723.723 1.427.35 2.297-1.217 1.198-2.157 1.257-2.1 1.291 1.274.028 2.822.621 3.881 2.939 5.25 3.298 1.948 6.356 2.182 9.129.699 1.633-.874 2.039-.557 2.877 2.25.775 2.592.834 2.13.284-2.233-2.423-19.211 2.199-40.537 11.815-54.513C38.707 56.019 39.8 54 39.437 54c-.362 0 .2-.788 1.249-1.75s1.231-1.3.404-.75-.247-.669 1.29-2.709l2.795-3.709-2.838-.622c-1.56-.343-3.962-.999-5.337-1.46-3.324-1.112-6.176-.974-7.961.386-3.094 2.359 3.522-5.857 10.032-12.458 3.758-3.811 6.742-6.904 6.631-6.876-.111.029-1.327.809-2.702 1.734m21 24.265c-2.475.44-7.425.836-11 .88-5.892.071-6.828.382-10.004 3.324-10.95 10.142-18.326 32.37-16.483 49.675.63 5.914 2.275 12.243 2.424 9.32.098-1.943 2.061-1.471 2.078.5.011 1.254.241 1.394.812.496.438-.69 1.894-1.217 3.235-1.171s5.588-.431 9.438-1.06c7.26-1.186 17.717-1.399 25.5-.519 2.475.28 8.775.691 14 .914 11.914.508 23.598 4.051 23.326 7.074-.095 1.063.262 2.746.793 3.739.532.993.61 1.706.174 1.585-.436-.122-3.147.58-6.023 1.559s-6.139 1.492-7.25 1.139c-1.111-.352-2.92-.355-4.02-.006-1.761.559-2 1.513-2 7.995 0 6.76.215 7.529 2.635 9.432 3.228 2.54 11.989 2.836 16.4.555 3.869-2.001 4.397-4.666 3.116-15.739-.588-5.084-.813-11.084-.5-13.334.823-5.912-2.025-7.902-12.562-8.781-9.338-.779-15.405-3.098-19.921-7.614-6.463-6.463-6.668-7.392-6.668-30.264 0-17.833-.211-20.732-1.5-20.625-.825.069-3.525.486-6 .926M9.685 61.657C5.74 69.325 1.189 90.632 2.436 95.599 3.026 97.953 7 99.172 7 97c0-.55.501-.887 1.113-.75 1.654.371 2.138-4.404.717-7.065-.764-1.428-.872-2.577-.284-3 .525-.377 1.016-2.485 1.092-4.685s1.274-7.375 2.661-11.5c2.928-8.705 2.782-10.327-.302-3.347C8.385 74.827 7.265 77.439 6.7 79c-.327.906-.573 1.005-.621.25-.043-.687 1.253-5.393 2.882-10.456 3.036-9.441 3.312-12.168.724-7.137M164 64c.589 1.1 1.295 2 1.57 2s.019-.9-.57-2-1.295-2-1.57-2-.019.9.57 2m2.564 5.293c.376.986.935 1.541 1.243 1.233s.001-1.114-.683-1.793c-.988-.98-1.102-.865-.56.56M26.121 120c-.017.825.587 2.85 1.343 4.5 1.768 3.862 1.794 2.066.036-2.5-.741-1.925-1.362-2.825-1.379-2m50.629 3.662c.688.278 1.813.278 2.5 0 .688-.277.125-.504-1.25-.504s-1.937.227-1.25.504m51.492 11.088c.211 9.517-.029 11.295-2.092 15.501-4.504 9.186-13.641 13.966-26.594 13.916-11.719-.046-21.562-5.553-25.323-14.167-2.046-4.687-3.227-23-1.483-23 .687 0 1.25-.502 1.25-1.117 0-.679-.88-.867-2.25-.48-10.43 2.949-16.858 3.724-26 3.134-6.519-.42-9.75-.282-9.75.417 0 .575-.477 1.046-1.059 1.046s-.81-.403-.506-.895c.305-.493-.119-1.154-.941-1.469-1.31-.503-1.303-.114.055 3.145 4.423 10.61 15.239 23.089 26.451 30.518 20.487 13.574 48.707 15.45 70.086 4.657 6.236-3.148 6.275-3.193 3.857-4.532-1.344-.744-1.895-1.369-1.225-1.389.814-.023 1.178-1.776 1.097-5.285-.156-6.787.801-10.916 4.18-18.041l2.747-5.791-3.121-1.601c-1.717-.88-4.194-2.436-5.506-3.458S129.342 124 128.867 124s-.756 4.838-.625 10.75M44 145.114c1.925 1.824 3.417 3.58 3.316 3.902-.422 1.346 3.39 2.781 4.773 1.798 1.093-.777.992-.866-.45-.397-1.46.475-1.718.232-1.197-1.125.365-.952.344-1.411-.047-1.02-.391.39-2.777-.906-5.303-2.882-4.547-3.558-4.558-3.56-1.092-.276m9.333 8.342c0 .801.383 1.22.85.931s.591-.944.274-1.456c-.808-1.308-1.124-1.161-1.124.525m-16.319 14.96c4.79 5.619 13.463 13.779 16.085 15.135 3.637 1.881 4.541.559.986-1.441-4.845-2.726-11.02-8.401-10.376-9.535.337-.591.23-.728-.236-.305-.466.424-2.669-.926-4.896-3-2.719-2.531-3.233-2.812-1.563-.854"/><path fill-opacity=".222" fill-rule="evenodd" d="M24.78 39.544c-6.726 5.239-15.392 22.779-10.288 20.821 1.319-.506 1.317-.074-.019 3.71-1.207 3.423-1.256 4.445-.242 5.089.905.575.737.81-.588.821q-1.856.016-1.281 1.515c.316.825.084 1.5-.516 1.5-.747 0-.72.447.087 1.419.93 1.121.799 1.64-.628 2.47-.993.578-1.237 1.064-.543 1.081.919.022 1.08 1.165.593 4.214-1.518 9.493-1.661 9.257 5.939 9.816 6.609.486 6.81.431 7.339-2 2.185-10.034 3.986-15.645 8.146-25.375L37.535 53.5l-3.018-.079c-1.659-.043-4.766-.354-6.904-.691-3.206-.506-4.227-.229-5.826 1.578-3.285 3.713.45-2.392 9.978-16.308 1.511-2.206 1.519-2.348.071-1.208-1.126.886-1.756.948-2.006.197-.201-.603-2.474.547-5.05 2.555m149.553 4.523c-1.898 1.898-10.891 4.572-14.945 4.443l-4.112-.13 3.222 4.56c5.816 8.232 8.814 14.206 12.526 24.958 3.141 9.101 3.93 10.533 5.568 10.115 3.04-.777 12.609-.589 16.158.316 2.948.753 3.25.621 3.25-1.416 0-1.236.235-2.011.523-1.723s.9 5.425 1.359 11.417l.836 10.893.141-9.066c.078-4.987-.329-11.737-.904-15-1.492-8.468-6.023-22.51-7.058-21.871-.481.298-.608-.154-.282-1.003.352-.915-.072-1.798-1.041-2.17-1.106-.424-1.441-1.316-1.038-2.758q.595-2.133-.302-.845c-.681.976-1.362.644-2.816-1.376-6.003-8.334-9.309-11.12-11.085-9.344m-75.329 8.675c-1.923.232-3.981.824-4.574 1.316-.645.536-1.503.469-2.137-.165-.746-.746-1.719-.369-3.289 1.274-2.144 2.242-2.209 2.857-1.682 15.833.301 7.425.834 14.246 1.185 15.158.899 2.342 4.826 3.586 13.493 4.276 4.843.385 9.195 1.429 12.287 2.946 4.759 2.337 4.8 2.339 7.25.413 1.354-1.066 2.477-1.568 2.495-1.116.017.453.58.107 1.25-.769 2.202-2.877 14.122-4.76 30.218-4.773 17.183-.014 16.647.324 13.987-8.828C166.755 68.909 157 51.721 157 56.306c0 .932-.787 1.746-1.75 1.809-10.663.698-16.25.71-16.25.035 0-.449-.562-.875-1.25-.947s-3.387-.429-6-.796L127 55.74V72h-17v-7.277c0-8.816-1.687-12.091-5.709-11.081-1.815.455-2.378.307-1.881-.496.389-.63.569-1.074.399-.986s-1.882.35-3.805.582M62 58.141c-3.822 1.116-9.385 1.872-13.5 1.834-3.85-.035-7.862.105-8.915.313-3.802.75-10.329 15.392-12.014 26.954-.591 4.053-.465 4.654.869 4.143.858-.33 1.56-.172 1.56.349 0 .573 1.883.645 4.75.182 2.612-.421 9.25-.672 14.75-.556 8.062.169 11.037.671 15.351 2.592 2.943 1.31 5.981 2.381 6.75 2.381s1.399.675 1.399 1.5.296 1.204.658.842 1.362-.099 2.223.584.63.025-.515-1.462c-3.165-4.113-4.23-9.937-4.684-25.613-.228-7.874-.812-14.682-1.298-15.129-.486-.448-3.809.041-7.384 1.086M5.062 69.466C1.914 79.293-.081 92.509.151 102c.105 4.296.297 3.527.876-3.508.925-11.217 3.499-24.063 6.461-32.242C8.733 62.813 9.379 60 8.923 60s-2.194 4.26-3.861 9.466M122 98c.589 1.1 1.295 2 1.57 2s.019-.9-.57-2-1.295-2-1.57-2-.019.9.57 2m-116.826.716c-1.574.3-2.14.929-1.75 1.945.317.827.576 2.141.576 2.921C4 104.428 5.009 105 6.5 105c2.19 0 2.5-.433 2.5-3.5 0-1.925-.338-3.439-.75-3.364s-1.797.336-3.076.58m73.39 3.577c.376.986.935 1.541 1.243 1.233s.001-1.114-.683-1.793c-.988-.98-1.102-.865-.56.56m119.515 7.29c.048 1.165.285 1.402.604.605.289-.722.253-1.585-.079-1.917s-.568.258-.525 1.312m-197 5c.048 1.165.285 1.402.604.605.289-.722.253-1.585-.079-1.917s-.568.258-.525 1.312m1 5c.048 1.165.285 1.402.604.605.289-.722.253-1.585-.079-1.917s-.568.258-.525 1.312M5.573 132c.368 1.375 1.086 3.175 1.596 4 .644 1.042.723.737.258-1-.368-1.375-1.086-3.175-1.596-4-.644-1.042-.723-.737-.258 1M90 140c0 .55.45 1 1 1s1-.45 1-1-.45-1-1-1-1 .45-1 1m3.03 2.167c-.016.916-.592 1.854-1.28 2.084-.687.23-.042.65 1.435.932s3.277.14 4-.319c1.001-.634.908-.837-.385-.849-.935-.008-2.159-.802-2.72-1.765-.919-1.579-1.022-1.587-1.05-.083m13.22 1.329c-1.839 2.089-1.524 2.721.75 1.504 1.1-.589 2-1.505 2-2.035 0-1.376-1.291-1.127-2.75.531m-7.474 1.645c-.436 1.136.029 1.507 1.769 1.414 1.297-.069 2.718-.52 3.157-1.001.442-.484.24-.554-.452-.155-.728.419-1.256.173-1.265-.59-.012-1.038-.194-1.027-.879.054-.702 1.108-.946 1.117-1.301.051-.331-.992-.582-.937-1.029.227m-86.668 2.109c9.258 17.682 30.136 36.495 49.395 44.511 14.937 6.216 38.514 8.964 54.182 6.314 13.41-2.267 27.757-7.929 38.588-15.228 7.378-4.971 18.727-14.693 18.727-16.042 0-.984-1.05-.193-12.521 9.432-3.761 3.156-7.061 5.514-7.334 5.241s-1.43.334-2.571 1.348c-4.787 4.256-24.051 10.384-28.574 9.089-1.375-.394-1.937-.76-1.25-.815.706-.057 1.25-1.431 1.25-3.157 0-2.824-.534-3.293-7-6.149-4.89-2.16-7-3.629-7-4.873 0-1.078.889-1.92 2.25-2.131 1.238-.193-3.375-.361-10.25-.374-9.809-.019-14.177-.499-20.291-2.228-9.934-2.811-20.072-7.918-27.133-13.67-5.912-4.814-8.622-6.144-4.232-2.075 3.022 2.801 2.627 5.557-.796 5.557-2.215 0-5.548 2.77-5.548 4.611 0 1.399 8.865 10.179 13.5 13.372 2.2 1.515 7.825 4.7 12.5 7.077 5.691 2.894 7.888 4.455 6.648 4.724-2.467.535-9.455-1.281-15.907-4.135-2.883-1.275-5.466-2.282-5.741-2.237s-1.919-.931-3.654-2.166S45.736 181 45.179 181s-1.162-.356-1.346-.791c-.183-.436-2.132-2.123-4.332-3.75-6.71-4.965-15.568-13.842-15.08-15.113.47-1.227-2.382-4.251-3.156-3.346-.597.699-8.265-10.191-8.265-11.737 0-.695-.466-1.263-1.035-1.263-.671 0-.621.791.143 2.25M42 149.5c1.292 1.375 2.574 2.5 2.849 2.5s-.557-1.125-1.849-2.5-2.574-2.5-2.849-2.5.557 1.125 1.849 2.5m7 2.878c0 .207.788.995 1.75 1.75 1.586 1.243 1.621 1.208.378-.378-1.307-1.666-2.128-2.195-2.128-1.372m132.02 2.098c-.789.95-.865 1.524-.201 1.524 1.208 0 2.617-1.897 1.924-2.591-.252-.251-1.027.229-1.723 1.067M74 154.378c0 .207.685.946 1.523 1.641 1.273 1.057 1.42.995.893-.378-.538-1.401-2.416-2.384-2.416-1.263m-17.5 4.05c4.499 3.853 15.062 9.102 23.5 11.678 5.886 1.797 9.975 2.301 19 2.342 11.771.053 22.494-1.885 19.818-3.582-.999-.633-1.015-.839-.068-.851 1.966-.024 1.463-2.739-.919-4.958-1.358-1.265-2.574-1.686-3.25-1.127-1.986 1.644-13.821 3.224-18.987 2.537-5.67-.755-13.917-3.946-15.676-6.066-.629-.758-1.565-1.119-2.08-.801-.563.348-.513 1.087.127 1.858.584.704.865 2.351.623 3.661s-.473 2.719-.514 3.131c-.24 2.43-11.124-1.558-19.796-7.253-3.758-2.469-4.137-2.59-1.778-.569m119.616 2.677c-1.861 2.164-2.672 3.662-1.803 3.328 1.729-.663 7.288-7.486 5.988-7.348-.441.046-2.324 1.855-4.185 4.02M25.752 159.84c-.435 1.662.647 3.238 4.872 7.1C36.737 172.526 42 176.471 42 175.467c0-.368-1.986-2.761-4.414-5.318s-5.958-6.403-7.845-8.547c-3.19-3.626-3.469-3.749-3.989-1.762m35.507 10.691c-1.83 1.282-2.026 1.951-1.204 4.113.931 2.45.84 2.553-1.787 2.01-2.534-.523-2.493-.447.482.89 1.788.804 3.25 1.937 3.25 2.518s.498.748 1.107.372c.771-.477.696-.944-.25-1.544-1.584-1.003-1.728-.964 4.394-1.204 2.613-.102 4.75.152 4.75.564-.001.412-1.014.802-2.251.866-1.585.082-1.752.247-.567.56.925.245 3.057-.266 4.736-1.134 2.245-1.161 5.109-1.48 10.817-1.205 4.429.214 6.69.05 5.264-.382-1.375-.415-4.161-.8-6.191-.855s-3.969-.55-4.309-1.1-1.491-1-2.559-1-1.941-.344-1.941-.765c0-.734-8.814-4.235-10.662-4.235-.491 0-1.877.689-3.079 1.531M115 173c-2.01.644-2.108.806-.5.83 1.1.016 2.9-.357 4-.83 2.548-1.095-.081-1.095-3.5 0m-49 1c0 .55.787 1.006 1.75 1.014.963.007 2.875.257 4.25.555 1.818.393 1.582.117-.865-1.014C67.22 172.746 66 172.614 66 174"/></svg>