<svg xmlns="http://www.w3.org/2000/svg" width="64" height="64" fill="#000000"><path fill-opacity=".282" fill-rule="evenodd" d="M21.882 1.321C8.756 6.227 1.015 16.482.236 30c-.542 9.422 2.146 17.281 8.149 23.82C23.635 70.429 51.468 66.263 60.636 46c1.368-3.025 2.91-6.281 3.426-7.236C65.348 36.382 65.293 23.701 64 24.5c-.55.34-1.004-.196-1.009-1.191-.015-2.878-5.502-11.673-9.441-15.131C47.219 2.619 42.298.689 33.5.312c-5.08-.217-9.32.151-11.618 1.009M.336 32c0 4.125.177 5.813.392 3.75s.216-5.437 0-7.5C.513 26.188.336 27.875.336 32m16.929-4.25c-2.718 2.785-5.015 7.086-5.647 10.571l-.47 2.591 5.176-2.062 6.5-2.591c1.597-.639.812-4.586-1.646-8.279L19.5 25.46zm24.918.48c-3.484 5.683-3.221 6.961 1.817 8.823 5.459 2.018 10.896 3.3 9.443 2.227-.581-.429-1.654-2.257-2.384-4.062s-2.575-4.851-4.1-6.769l-2.772-3.488z"/><path fill-opacity=".224" fill-rule="evenodd" d="M22.396 1.358C8.02 6.068-1.698 21.188.449 35.507c.846 5.641 2.145 5.729 3.604.243 2.077-7.813 6.535-13.719 13.697-18.147L22 14.975v3.012C22 19.644 21.55 21 21 21c-1.695 0-1.108 3.271 1.514 8.44 1.451 2.859 2.134 5.312 1.623 5.823-.486.486-5.103 2.772-10.26 5.081C2.068 45.63 1.676 46.807 9.212 54.342c12.284 12.284 31.205 12.965 44.129 1.589 5.443-4.791 6.194-6.714 4.35-11.129-1.191-2.851-2.268-3.608-7.294-5.132-10.996-3.332-11.446-3.606-10.758-6.537.34-1.448 1.505-4.108 2.588-5.911 1.374-2.285 1.665-3.649.961-4.5-.556-.672-.784-2.404-.506-3.849.485-2.529.61-2.574 3.353-1.206 5.295 2.642 10.243 8.706 12.56 15.391C60.802 39.429 63 41.965 63 38.142c0-1.113.45-2.302 1-2.642s1-2.643 1-5.118c0-2.745-.39-4.259-1-3.882-.55.34-1-.313-1-1.452 0-6.651-8.886-17.878-17.421-22.01C39.642.164 28.505-.643 22.396 1.358M.286 31.5c.008 2.75.202 3.756.432 2.236s.223-3.77-.014-5-.425.014-.418 2.764"/><path fill-opacity=".296" fill-rule="evenodd" d="M24.734 1.03c-6.339 1.592-11.249 4.637-16.005 9.926C4.45 15.716.029 25 2.042 25c.506 0 1.202-1.125 1.547-2.5S4.64 20 5.158 20s2.491-1.506 4.386-3.346c3.252-3.158 6.864-5.05 14.086-7.38l3.13-1.01-2.38 3.508C23.071 13.701 22 16.476 22 17.94c0 1.463-.506 3.166-1.125 3.785-.834.834-.599 2.246.907 5.45 3.964 8.434 4.227 7.9-6.259 12.71-12.091 5.546-12.501 6.039-9.184 11.052C11.326 58.472 22.185 64 32 64c9.236 0 20.208-5.271 25.01-12.014 2.11-2.963 2.115-3.068.317-6.693-1.636-3.296-2.659-3.957-9.765-6.301-4.366-1.441-8.117-3.157-8.336-3.813s.514-3.103 1.628-5.436c2.667-5.587 2.164-14.853-1.044-19.243-1.206-1.65-1.544-2.504-.751-1.898.792.606 3.857 1.952 6.81 2.99 3.112 1.095 7.293 3.68 9.944 6.148 2.516 2.343 4.913 4.26 5.328 4.26s.278-1.369-.306-3.043C59.125 14.05 50.619 5.513 45.058 3.12 39.251.622 30.104-.319 24.734 1.03"/><path fill-opacity=".98" fill-rule="evenodd" d="M28.357 8.945C25.252 10.265 23 13.956 23 17.723 23 19.525 22.55 21 22 21c-1.494 0-1.207 5.108.389 6.921.763.869 1.701 3.049 2.083 4.845.654 3.079.474 3.357-3.139 4.844-9.263 3.812-16.164 7.508-16.72 8.956-.934 2.433 8.561 11.823 14.685 14.522C23.21 62.812 26.36 63.381 32 63.381c9.313 0 15.882-2.648 21.976-8.856 3.928-4.003 4.222-4.658 3.591-8.018-.736-3.926-2.613-5.128-12.697-8.133-6.667-1.987-7.184-3.025-4.32-8.675 2.141-4.223 2.32-5.444 1.588-10.796-.52-3.807-1.551-6.76-2.791-8.001-2.278-2.277-7.887-3.276-10.99-1.957"/></svg>