<svg xmlns="http://www.w3.org/2000/svg" width="64" height="64" version="1.1" fill="#000000"><path fill-opacity=".235" d="M 18.500 2.882 C 6.619 8.586, 0.026 18.969, 0.011 32 C 0.003 38.220, 0.493 40.524, 2.882 45.500 C 8.589 57.388, 18.977 63.980, 32 63.980 C 45.359 63.980, 55.259 57.494, 61.602 44.585 C 64.549 38.586, 65 36.675, 65 30.168 C 65 26.042, 64.714 22.952, 64.365 23.302 C 64.016 23.651, 62.494 21.363, 60.984 18.218 C 55.415 6.624, 44.912 0.026, 32 0.011 C 25.780 0.003, 23.476 0.493, 18.500 2.882 M 0.349 32 C 0.349 36.675, 0.522 38.587, 0.732 36.250 C 0.943 33.912, 0.943 30.087, 0.732 27.750 C 0.522 25.412, 0.349 27.325, 0.349 32" stroke="none" fill="#000000" fill-rule="evenodd"/><path fill-opacity=".385" d="M 22.173 1.484 C 4.440 7.018, -4.848 27.992, 2.790 45.258 C 5.401 51.160, 12.757 58.539, 18.804 61.320 C 25.480 64.391, 38.553 64.375, 45.268 61.289 C 51.689 58.336, 59.386 50.269, 61.494 44.280 C 62.420 41.651, 63.587 38.719, 64.089 37.764 C 65.264 35.525, 65.282 24.708, 64.110 25.432 C 63.620 25.735, 62.937 24.476, 62.591 22.635 C 61.698 17.873, 56.503 10.476, 51.218 6.441 C 43.332 0.419, 31.860 -1.539, 22.173 1.484 M 22.750 16.296 L 14 21.482 14 27.014 C 14 32.310, 14.149 32.625, 17.500 34.430 C 19.425 35.467, 21 36.611, 21 36.972 C 21 37.334, 19.425 38.381, 17.500 39.299 C 15.575 40.217, 14.013 41.312, 14.028 41.734 C 14.063 42.703, 30.337 52, 31.997 52 C 32.676 52, 37.001 49.862, 41.609 47.250 L 49.987 42.500 49.993 36.734 C 50 31.126, 49.904 30.922, 46.500 29.299 C 44.575 28.381, 43 27.334, 43 26.972 C 43 26.611, 44.575 25.467, 46.500 24.430 C 48.425 23.393, 50 22.278, 50 21.952 C 50 21.472, 34.048 12.010, 32.052 11.305 C 31.748 11.198, 27.563 13.444, 22.750 16.296 M 23.257 17.843 C 19.823 19.854, 17.011 21.754, 17.007 22.065 C 17.003 22.375, 18.498 23.344, 20.328 24.217 C 23.465 25.712, 23.868 25.683, 27.328 23.705 C 30.546 21.866, 31 21.136, 31 17.803 C 31 15.712, 30.663 14.042, 30.250 14.093 C 29.837 14.143, 26.691 15.831, 23.257 17.843 M 33 17.720 C 33 21.149, 33.432 21.854, 36.672 23.705 C 40.132 25.683, 40.535 25.712, 43.672 24.217 C 45.502 23.344, 47 22.367, 47 22.046 C 47 21.573, 36.696 15.437, 33.768 14.167 C 33.346 13.983, 33 15.582, 33 17.720 M 28.750 24.572 C 25.272 26.459, 25.307 27.099, 29.006 29.203 C 31.826 30.808, 32.174 30.808, 34.994 29.203 C 38.732 27.076, 38.740 26.434, 35.050 24.526 C 31.567 22.725, 32.163 22.720, 28.750 24.572 M 16 27.035 C 16 29.863, 16.154 29.990, 18.250 28.900 C 21.512 27.203, 21.541 27.120, 19.427 25.521 C 16.606 23.387, 16 23.655, 16 27.035 M 0.320 32 C 0.320 35.575, 0.502 37.038, 0.723 35.250 C 0.945 33.462, 0.945 30.538, 0.723 28.750 C 0.502 26.962, 0.320 28.425, 0.320 32 M 19.752 29.841 C 18.240 30.754, 17.003 31.754, 17.002 32.065 C 17.001 32.375, 18.501 33.345, 20.336 34.220 C 23.482 35.721, 23.857 35.693, 26.945 33.738 L 30.219 31.665 26.860 29.874 C 22.878 27.752, 23.211 27.754, 19.752 29.841 M 36.603 29.998 L 33.706 31.851 36.986 33.845 C 40.076 35.724, 40.463 35.747, 43.633 34.235 C 45.485 33.352, 46.997 32.375, 46.994 32.065 C 46.986 31.392, 41.131 27.968, 40.169 28.073 C 39.801 28.113, 38.196 28.980, 36.603 29.998 M 28.750 34.572 C 25.272 36.459, 25.307 37.099, 29.006 39.203 C 31.826 40.808, 32.174 40.808, 34.994 39.203 C 38.732 37.076, 38.740 36.434, 35.050 34.526 C 31.567 32.725, 32.163 32.720, 28.750 34.572 M 44.573 35.521 C 42.459 37.120, 42.488 37.203, 45.750 38.900 C 47.846 39.990, 48 39.863, 48 37.035 C 48 33.655, 47.394 33.387, 44.573 35.521 M 19.711 39.852 C 16.501 41.969, 16.541 42.019, 25.250 46.915 L 31 50.147 31 46.172 C 31 42.678, 30.570 41.944, 27.443 40.099 C 23.138 37.559, 23.187 37.560, 19.711 39.852 M 36.250 40.175 C 33.476 41.890, 33 42.760, 33 46.111 L 33 50.037 39.983 46.269 C 43.824 44.196, 46.974 42.260, 46.983 41.966 C 47.006 41.249, 41.415 37.978, 40.346 38.083 C 39.881 38.128, 38.038 39.070, 36.250 40.175" stroke="none" fill="#000000" fill-rule="evenodd"/><path fill-opacity=".308" d="M 22.300 1.862 C 11.528 5.584, 4.524 12.949, 1.339 23.905 C -2.808 38.171, 4.814 54.363, 18.661 60.702 C 36.140 68.704, 57.103 59.480, 62.189 41.548 C 62.821 39.321, 63.711 37.072, 64.169 36.550 C 65.143 35.437, 65.315 25.352, 64.343 26.324 C 63.982 26.685, 62.933 24.757, 62.014 22.040 C 58.538 11.772, 51.049 4.577, 40.614 1.478 C 34.095 -0.458, 28.686 -0.344, 22.300 1.862 M 22 16.309 L 13.500 21.500 13.198 26.753 C 12.905 31.833, 13.012 32.075, 16.448 34.102 C 18.401 35.254, 19.997 36.491, 19.994 36.849 C 19.990 37.207, 18.640 38.267, 16.994 39.203 C 15.347 40.140, 14 41.344, 14 41.878 C 14 42.413, 18.060 45.173, 23.022 48.013 L 32.044 53.176 41.272 47.816 L 50.500 42.457 50.500 36.999 C 50.500 31.941, 50.265 31.393, 47.289 29.521 C 45.522 28.409, 44.060 27.174, 44.039 26.776 C 44.017 26.377, 45.350 25.353, 47 24.500 C 48.650 23.647, 50 22.536, 50 22.032 C 50 20.945, 33.331 10.974, 31.656 11.059 C 31.020 11.091, 26.675 13.454, 22 16.309 M 24.250 17.818 C 20.813 19.805, 18 21.730, 18 22.094 C 18 22.459, 19.304 23.297, 20.897 23.957 C 23.289 24.948, 24.345 24.873, 26.949 23.526 C 30.496 21.692, 31.295 20.283, 30.825 16.687 L 30.500 14.204 24.250 17.818 M 33.182 17.578 C 33.440 20.684, 34.116 21.760, 36.779 23.310 C 39.591 24.946, 40.482 25.043, 43.029 23.988 C 46.790 22.430, 46.754 21.862, 42.750 19.576 C 40.962 18.556, 38.007 16.828, 36.182 15.737 L 32.865 13.753 33.182 17.578 M 16 26.973 C 16 29.767, 16.164 29.914, 18 28.768 C 19.100 28.081, 20 27.193, 20 26.795 C 20 26.396, 19.100 25.589, 18 25 C 16.204 24.039, 16 24.240, 16 26.973 M 28.166 25.365 L 25.832 26.660 28.381 28.330 C 29.783 29.249, 31.411 30, 32 30 C 32.589 30, 34.217 29.249, 35.619 28.330 L 38.168 26.660 35.834 25.365 C 34.550 24.653, 32.825 24.071, 32 24.071 C 31.175 24.071, 29.450 24.653, 28.166 25.365 M 0.300 32 C 0.300 35.025, 0.487 36.263, 0.716 34.750 C 0.945 33.237, 0.945 30.762, 0.716 29.250 C 0.487 27.738, 0.300 28.975, 0.300 32 M 20.688 29.832 C 17.271 31.905, 17.313 32.473, 20.994 33.998 C 23.533 35.049, 24.383 34.979, 26.581 33.539 C 28.007 32.605, 29.022 31.740, 28.837 31.617 C 23.692 28.214, 23.444 28.160, 20.688 29.832 M 37.727 29.809 C 34.296 31.890, 34.312 32.472, 37.836 33.932 C 40.024 34.838, 41.281 34.829, 43.336 33.893 C 46.684 32.367, 46.670 31.827, 43.227 29.793 C 40.655 28.274, 40.255 28.275, 37.727 29.809 M 28.166 35.365 L 25.832 36.660 28.381 38.330 C 29.783 39.249, 31.411 40, 32 40 C 32.589 40, 34.217 39.249, 35.619 38.330 L 38.168 36.660 35.834 35.365 C 34.550 34.653, 32.825 34.071, 32 34.071 C 31.175 34.071, 29.450 34.653, 28.166 35.365 M 45.441 35.481 C 43.761 36.763, 43.702 37.097, 45 37.966 C 47.335 39.528, 48 39.203, 48 36.500 C 48 33.568, 47.966 33.554, 45.441 35.481 M 20.630 39.686 C 19.183 40.444, 18.005 41.387, 18.012 41.782 C 18.023 42.471, 29.255 49, 30.429 49 C 30.743 49, 30.996 47.538, 30.992 45.750 C 30.985 43.010, 30.378 42.171, 27.121 40.404 C 23.686 38.540, 22.969 38.460, 20.630 39.686 M 36.760 40.347 C 33.654 42.135, 33.018 43.051, 33.010 45.750 C 33.004 47.538, 33.257 49, 33.571 49 C 34.552 49, 45.976 42.529, 45.988 41.966 C 45.995 41.672, 44.763 40.703, 43.250 39.813 C 40.659 38.288, 40.284 38.319, 36.760 40.347" stroke="none" fill="#000000" fill-rule="evenodd"/><path fill-opacity=".976" d="M 24.081 1.537 C 17.074 3.488, 12.992 6.066, 8.083 11.643 C 0.873 19.834, -1.294 31.912, 2.460 42.990 C 5.028 50.569, 13.431 58.972, 21.010 61.540 C 33.323 65.712, 45.123 63.037, 54.129 54.031 C 58.666 49.494, 60.116 47.214, 61.497 42.441 C 62.443 39.174, 63.618 35.719, 64.109 34.764 C 65.327 32.390, 65.246 27.730, 64 28.500 C 63.450 28.840, 63 28.272, 63 27.237 C 63 18.644, 52.746 5.731, 43.490 2.669 C 36.004 0.193, 30.141 -0.149, 24.081 1.537 M 21.750 16.157 L 13 21.259 13 26.933 C 13 32.428, 13.117 32.674, 16.698 34.720 L 20.396 36.834 16.698 39.016 C 14.664 40.216, 13.006 41.491, 13.013 41.849 C 13.029 42.610, 30.720 53, 32 53 C 32.476 53, 36.940 50.637, 41.919 47.750 L 50.973 42.500 50.987 36.849 C 51 31.397, 50.871 31.121, 47.338 29.037 L 43.675 26.876 46.728 25.019 C 48.408 23.998, 50.052 22.724, 50.383 22.189 C 51.006 21.181, 33.982 10.979, 31.758 11.027 C 31.066 11.043, 26.563 13.351, 21.750 16.157 M 23.629 18.428 L 17.758 21.796 20.446 23.556 C 23.034 25.253, 23.265 25.242, 26.725 23.265 C 29.583 21.631, 30.335 20.578, 30.408 18.106 C 30.459 16.398, 30.275 15.014, 30 15.030 C 29.725 15.047, 26.858 16.576, 23.629 18.428 M 33.783 18.025 C 33.409 20.571, 33.848 21.303, 36.784 23.035 C 40.242 25.075, 42.956 24.963, 44.832 22.703 C 45.579 21.802, 44.323 20.640, 40.032 18.263 L 34.221 15.044 33.783 18.025 M 28.573 25.521 C 26.459 27.120, 26.488 27.203, 29.750 28.900 C 31.806 29.969, 34.644 29.358, 36.927 27.354 C 37.628 26.739, 33.622 24.064, 32 24.064 C 31.175 24.064, 29.633 24.720, 28.573 25.521 M 16 27 C 16 29.325, 17.263 29.593, 18.903 27.617 C 19.792 26.546, 19.688 26.094, 18.444 25.617 C 16.121 24.725, 16 24.794, 16 27 M 0.232 32 C 0.232 33.925, 0.438 34.712, 0.689 33.750 C 0.941 32.788, 0.941 31.212, 0.689 30.250 C 0.438 29.288, 0.232 30.075, 0.232 32 M 20.089 30.407 L 17.678 31.743 20.263 33.436 C 22.687 35.025, 23.049 35.026, 26.104 33.446 L 29.359 31.763 26.930 30.417 C 23.903 28.740, 23.099 28.739, 20.089 30.407 M 37.166 30.365 L 34.832 31.660 37.381 33.330 C 40.536 35.398, 40.985 35.399, 43.905 33.354 L 46.256 31.707 43.878 30.389 C 40.918 28.748, 40.087 28.745, 37.166 30.365 M 28.573 35.521 C 26.459 37.120, 26.488 37.203, 29.750 38.900 C 31.806 39.969, 34.644 39.358, 36.927 37.354 C 37.628 36.739, 33.622 34.064, 32 34.064 C 31.175 34.064, 29.633 34.720, 28.573 35.521 M 45.739 35.436 C 44.166 36.598, 44.142 36.873, 45.513 38.011 C 47.385 39.564, 48.273 38.852, 47.831 36.153 C 47.545 34.411, 47.259 34.313, 45.739 35.436 M 20.125 40.387 C 17.780 41.687, 17.826 41.749, 23.756 45.352 C 27.059 47.358, 29.928 49, 30.131 49 C 30.334 49, 30.459 47.616, 30.409 45.924 C 30.343 43.692, 29.521 42.323, 27.409 40.931 C 24.001 38.684, 23.293 38.632, 20.125 40.387 M 36.595 40.775 C 34.403 42.106, 33.668 43.330, 33.595 45.769 C 33.543 47.546, 33.666 49, 33.869 49 C 34.072 49, 36.941 47.358, 40.244 45.352 C 46.174 41.749, 46.220 41.687, 43.875 40.387 C 40.743 38.651, 40.029 38.689, 36.595 40.775" stroke="none" fill="#000000" fill-rule="evenodd"/></svg>