<svg xmlns="http://www.w3.org/2000/svg" width="32" height="32" version="1.1" fill="#000000"><path fill-opacity=".569" d="M 7.922 2.274 C -2.718 9.444, -2.718 22.556, 7.922 29.726 C 17.962 36.492, 32.880 27.473, 32.967 14.583 C 32.985 11.879, 32.718 9.949, 32.373 10.293 C 32.029 10.638, 30.781 9.486, 29.600 7.734 C 24.419 0.046, 14.816 -2.373, 7.922 2.274 M 0.300 16 C 0.300 19.025, 0.487 20.263, 0.716 18.750 C 0.945 17.238, 0.945 14.763, 0.716 13.250 C 0.487 11.738, 0.300 12.975, 0.300 16" stroke="none" fill="#000000" fill-rule="evenodd"/><path fill-opacity=".245" d="M 9.180 1.625 C 7.353 2.556, 4.653 4.899, 3.180 6.831 C -0.653 11.856, -0.647 20.152, 3.194 25.187 C 10.872 35.254, 24.552 33.691, 30.750 22.040 C 32.867 18.061, 33.929 10.308, 32.212 11.369 C 31.779 11.637, 30.837 10.529, 30.120 8.908 C 26.931 1.703, 16.287 -1.998, 9.180 1.625 M 0.272 16 C 0.272 18.475, 0.467 19.488, 0.706 18.250 C 0.944 17.012, 0.944 14.988, 0.706 13.750 C 0.467 12.512, 0.272 13.525, 0.272 16" stroke="none" fill="#000000" fill-rule="evenodd"/><path fill-opacity=".385" d="M 8.962 2.250 C 4.159 4.672, 0 11.053, -0 16 C -0 20.947, 4.159 27.328, 8.962 29.750 C 14.573 32.580, 17.427 32.580, 23.038 29.750 C 26.364 28.073, 28.180 26.227, 30.169 22.500 C 32.485 18.161, 34.133 10.534, 32.375 12.292 C 32.031 12.635, 30.794 11.023, 29.625 8.708 C 27.330 4.163, 20.816 -0, 16 -0 C 14.583 -0, 11.416 1.012, 8.962 2.250 M 8.667 8.667 C 8.300 9.033, 8 10.383, 8 11.667 C 8 13.811, 8.419 14, 13.191 14 C 17.970 14, 18.228 13.883, 16.441 12.532 C 14.645 11.174, 14.856 11.061, 19.250 11.032 C 22.791 11.008, 24 10.618, 24 9.500 C 24 8.303, 22.519 8, 16.667 8 C 12.633 8, 9.033 8.300, 8.667 8.667 M 0.232 16 C 0.232 17.925, 0.438 18.712, 0.689 17.750 C 0.941 16.788, 0.941 15.213, 0.689 14.250 C 0.438 13.287, 0.232 14.075, 0.232 16 M 15.559 19.468 C 17.355 20.826, 17.144 20.939, 12.750 20.968 C 9.151 20.992, 8 21.374, 8 22.542 C 8 23.824, 9.308 24.035, 15.750 23.792 C 23.379 23.505, 23.505 23.457, 23.816 20.750 C 24.126 18.059, 24.021 18, 18.875 18 C 14.038 18, 13.773 18.117, 15.559 19.468" stroke="none" fill="#000000" fill-rule="evenodd"/><path fill-opacity=".588" d="M 11.880 1.174 C 9.888 1.704, 6.816 3.626, 5.052 5.447 C -5.675 16.514, 4.981 34.584, 19.989 30.775 C 24.756 29.565, 31 23.203, 31 19.556 C 31 18.215, 31.450 16.840, 32 16.500 C 32.550 16.160, 33 15.432, 33 14.882 C 33 14.332, 32.599 14.130, 32.110 14.432 C 31.620 14.735, 30.932 13.452, 30.581 11.582 C 29.858 7.727, 23.181 1, 20.079 1 C 19.025 1, 17.564 0.822, 16.832 0.605 C 16.099 0.388, 13.871 0.644, 11.880 1.174 M 8.238 8.162 C 6.492 9.908, 6.699 13.671, 8.582 14.393 C 10.684 15.200, 19 15.174, 19 14.360 C 19 14.008, 18.212 13.123, 17.250 12.392 C 15.717 11.228, 16.098 11.060, 20.323 11.032 C 24.368 11.005, 25.093 10.718, 24.812 9.250 C 24.536 7.801, 23.190 7.451, 16.977 7.212 C 12.001 7.021, 9.059 7.341, 8.238 8.162 M 13 17.640 C 13 17.992, 13.787 18.877, 14.750 19.608 C 16.283 20.772, 15.902 20.940, 11.677 20.968 C 7.632 20.995, 6.907 21.282, 7.187 22.750 C 7.463 24.193, 8.806 24.552, 14.853 24.796 C 19.398 24.979, 22.720 24.647, 23.592 23.923 C 25.490 22.349, 25.379 18.360, 23.418 17.607 C 21.316 16.800, 13 16.826, 13 17.640" stroke="none" fill="#000000" fill-rule="evenodd"/></svg>