<svg xmlns="http://www.w3.org/2000/svg" width="200" height="200" fill="#000000"><path fill-opacity=".22" fill-rule="evenodd" d="M39.223 39.557c-2 1.4-2.223 2.407-2.223 10.031 0 6.924.299 8.59 1.636 9.103 3.131 1.201 4.848-1.103 5.16-6.928l.297-5.529 6.033-.437c7.357-.532 9.691-2.837 6.303-6.226-2.164-2.164-14.123-2.174-17.206-.014m105.027-.895c-1.95.787-1.476 5.146.684 6.303 1.064.569 3.967 1.035 6.45 1.035h4.516l.3 5.646c.316 5.944 2.01 8.255 5.164 7.045 1.337-.513 1.636-2.179 1.636-9.103 0-7.624-.223-8.631-2.223-10.031-2.146-1.504-13.495-2.118-16.527-.895m-41.861 6.623c-1.161.668-4.457 3.915-7.325 7.215-5.688 6.547-6.368 6.828-19.308 7.98-11.606 1.033-11.597 1.021-13.38 19.533C61.035 93.932 60.662 95.652 58.692 97c-1.206.825-4.126 3.264-6.489 5.421-4.494 4.1-5.156 6.964-2.059 8.905 1.305.817 2.648.147 6.5-3.245 2.671-2.352 5.658-4.706 6.639-5.232 1.917-1.026 1.913-1.467.161 18.177-.58 6.501.878 9.224 4.936 9.224 1.499 0 3.825-1.033 5.169-2.296s2.557-2.106 2.697-1.875c.14.232 1.651 3.217 3.357 6.634l3.104 6.214-2.354 2.211c-2.585 2.429-3.132 6.971-1.047 8.701 2.279 1.891 19.044 7.882 20.784 7.427 2.64-.69 49.91-48.728 49.91-50.72 0-2.311-6.785-13.494-8.322-13.717-.648-.094-2.207-.207-3.464-.25-1.438-.05-3.051-1.285-4.348-3.329L131.804 86h6.975c5.145 0 7.321-.416 8.291-1.584 2.43-2.929-.127-4.827-7.971-5.916l-7.205-1L121.423 62c-5.759-8.525-11.222-16.062-12.138-16.75-2.068-1.551-4.158-1.54-6.896.035m11.83 41.734c-12.104 1.765-11.915 1.677-12.581 5.842-1.67 10.442-15.449 14.218-24.401 6.685-1.569-1.321-3.324-2.096-3.899-1.724s-1.356 5.281-1.736 10.907l-.691 10.229 2.92-1.676c2.738-1.571 3.083-1.568 5.544.044 1.444.946 2.625 2.322 2.625 3.058 0 1.071.794 1.126 3.978.276 4.8-1.281 9.333.002 9.871 2.795.439 2.278-2.245 4.516-4.66 3.884-.945-.247-2.713-.081-3.929.369-2.171.803-2.178.868-.413 3.559l1.799 2.742 12.427-10.649c10.436-8.942 12.454-11.128 12.596-13.645.092-1.648 1.06-3.888 2.149-4.978 1.975-1.974 1.985-1.974 3.14.185 1.143 2.136 1.228 2.108 6.101-1.971 2.717-2.276 4.941-4.509 4.941-4.964s-1.463-3.329-3.25-6.388c-3.506-5.997-3.306-5.924-12.531-4.58m.816 2.915c-2.232 4.172-.182 8.827 3.3 7.491 2.439-.936 3.019-4.237 1.225-6.974-1.936-2.955-3.146-3.093-4.525-.517M83.5 93.956c-1.832.746-1.765.876.797 1.55 3.036.797 4.284.244 3.244-1.439-.756-1.224-1.275-1.238-4.041-.111m20.5 6.045c-1.496 3.612.071 6.275 3.412 5.797 3.829-.547 2.973-8.798-.913-8.798-.691 0-1.816 1.35-2.499 3.001m-65.75 44.661c-1.971.796-1.698 16.747.321 18.767 2.406 2.405 16.999 2.242 18.309-.205 1.872-3.498-.417-5.224-6.93-5.224H44v-5.8c0-7.079-1.621-9.204-5.75-7.538m118.988.5c-.699.699-1.238 3.761-1.238 7.038v5.8h-5.965c-6.51 0-8.851 1.79-6.901 5.276.785 1.401 2.419 1.724 8.725 1.724 10.888 0 11.294-.428 10.933-11.518-.264-8.122-.485-9.01-2.304-9.27-1.106-.159-2.569.269-3.25.95"/><path fill-opacity=".432" fill-rule="evenodd" d="M39.223 39.557c-2 1.4-2.223 2.407-2.223 10.031 0 6.924.299 8.59 1.636 9.103 3.243 1.244 4.849-1.089 5.161-7.498l.296-6.1 6.193-.296c5.029-.241 6.258-.635 6.537-2.095.188-.989-.2-2.451-.863-3.25-1.707-2.057-13.759-1.981-16.737.105m104.817-.105c-.663.799-1.051 2.261-.863 3.25.279 1.46 1.508 1.854 6.537 2.095l6.193.296.296 6.1c.312 6.409 1.918 8.742 5.161 7.498 1.337-.513 1.636-2.179 1.636-9.103 0-7.624-.223-8.631-2.223-10.031-2.978-2.086-15.03-2.162-16.737-.105M96.382 51.533l-7.118 7.539-9.382.984c-12.49 1.311-13.639 1.621-14.926 4.026-.606 1.133-1.756 8.665-2.556 16.739-1.393 14.066-1.568 14.762-4.177 16.678-9.594 7.041-12.244 11.349-8.286 13.467 1.603.858 2.736.346 6.553-2.957 8.688-7.52 8.679-7.524 8.005 3.184-.323 5.119-.766 10.479-.987 11.912-.957 6.227 6.371 9.407 10.267 4.454l1.919-2.44L79.225 132l3.53 6.881-2.377 2.234c-2.577 2.421-3.177 7.009-1.128 8.627C81.405 151.445 96.817 157 99.384 157c1.884 0 7.836-5.55 25.783-24.042 12.833-13.224 23.722-24.885 24.197-25.914 1.063-2.301-5.754-13.985-8.256-14.15-.884-.059-2.457-.171-3.494-.25s-2.969-1.852-4.293-3.94l-2.408-3.795 7.323.663c6.203.562 7.539.404 8.736-1.038 1.579-1.903.391-4.888-2.079-5.222-.766-.104-3.977-.474-7.135-.821l-5.741-.633-10.759-15.86c-9.794-14.439-13.061-17.992-16.555-18.001-.662-.002-4.406 3.389-8.321 7.536m14.282 35.989c-4.309.724-7.941 1.465-8.069 1.647s-.774 2.21-1.433 4.507c-1.384 4.824-6.053 9.253-9.989 9.475-7.03.396-10.781-.684-14.688-4.23-1.109-1.006-2.522-1.512-3.141-1.125-.645.404-1.428 5.396-1.834 11.704-.622 9.644-.533 10.769.718 9.125 2.447-3.214 9.772-1.796 9.772 1.891 0 .984.897 1.044 3.974.263 4.605-1.169 8.555-.448 9.384 1.712 1.097 2.859-.439 4.508-4.215 4.524-5.523.024-6.732 1.156-4.641 4.348 1.046 1.597 2.184 2.328 2.921 1.876.664-.406 6.465-5.211 12.892-10.678C112.708 113.722 114 112.27 114 109.434c0-4.267 2.379-6.306 4.799-4.116 1.633 1.478 2.107 1.3 6.481-2.439 2.596-2.219 4.72-4.492 4.72-5.051 0-.558-1.455-3.448-3.234-6.422-3.653-6.108-3.331-6.03-16.102-3.884m4.308 2.53c-1.628 3.042-.824 6.398 1.616 6.746 3.473.497 4.817-2.114 2.949-5.726-1.857-3.592-3.046-3.857-4.565-1.02m-31.421 3.851c-1.702.666-1.526.91 1.399 1.93 4.326 1.508 4.306 1.514 3.05-.833-1.158-2.164-1.504-2.249-4.449-1.097m20.901 5.53c-2.073 3.164-.419 6.845 2.866 6.378 2.542-.362 3.575-5.03 1.632-7.371-1.678-2.023-2.665-1.805-4.498.993M38.2 145.2c-.724.724-1.2 4.232-1.2 8.845 0 9.909 1.017 10.961 10.579 10.94 7.992-.018 9.727-.786 9.258-4.098-.309-2.187-.861-2.412-6.587-2.685l-6.25-.297v-5.753c0-5.509-1.135-8.152-3.5-8.152-.605 0-1.64.54-2.3 1.2m119 0c-.66.66-1.2 3.789-1.2 6.952v5.753l-6.25.297c-5.726.273-6.278.498-6.587 2.685-.472 3.332 1.266 4.08 9.516 4.098 9.538.02 10.321-.804 10.321-10.856 0-7.461-.922-10.129-3.5-10.129-.605 0-1.64.54-2.3 1.2"/><path fill-opacity=".743" fill-rule="evenodd" d="M38.235 40.165c-1.927 1.927-1.649 16.247.349 17.905 2.952 2.45 4.883-.097 5.213-6.877l.296-6.1 6.204-.296c5.871-.281 6.203-.431 6.203-2.797 0-2.449-.175-2.506-8.515-2.785-5.766-.194-8.913.113-9.75.95m105.127.335c-1.289 3.359.386 4.5 6.607 4.5H156v5.309c0 6.409 1.946 9.763 4.691 8.086 1.447-.884 1.868-2.656 2.103-8.845.184-4.844-.143-8.265-.873-9.145-1.72-2.073-17.759-1.991-18.559.095M104 44.741c-.825.246-4.65 3.73-8.5 7.742l-7 7.295-9.808.709C64.472 61.514 64.451 61.539 62.54 80.5l-1.513 15-3.263 2.495c-9.398 7.184-12.074 12.102-6.981 12.827 1.556.222 3.848-1.103 7.348-4.25 2.797-2.514 5.494-4.572 5.993-4.572.531 0 .631 5.178.241 12.466-.713 13.35-.158 15.534 3.953 15.534 1.14 0 3.285-1.162 4.767-2.581l2.694-2.581 2.585 5.331c1.422 2.932 3.14 6.092 3.819 7.023 1.042 1.429.804 2.03-1.529 3.866-2.149 1.69-2.696 2.869-2.459 5.303.285 2.925.891 3.371 9.305 6.849 4.95 2.046 10 3.736 11.223 3.755 1.6.025 8.885-6.715 26-24.056 13.077-13.25 24.131-24.715 24.564-25.478.876-1.542-1.155-6.104-5.005-11.246-1.979-2.642-3.077-3.252-5.409-3.008-2.522.265-3.285-.293-5.516-4.035l-2.589-4.342 7.737.35c6.379.289 7.925.058 8.808-1.316 2.021-3.143-.829-4.832-8.185-4.85l-6.628-.016-10.493-15.549C109.7 45.183 108.098 43.521 104 44.741m5.791 42.647c-3.69.658-6.871 1.402-7.07 1.654s-.884 2.285-1.524 4.518-2.332 5.158-3.761 6.5c-2.223 2.089-3.568 2.44-9.344 2.44-5.77 0-7.255-.387-10.245-2.667-1.94-1.481-4.019-2.345-4.67-1.943-.71.44-1.429 5.038-1.823 11.668-.644 10.845-.632 10.926 1.327 9.192 2.911-2.577 7.126-2.267 8.442.621.985 2.161 1.428 2.293 5.008 1.488 4.652-1.045 8.494-.278 9.314 1.858.889 2.318-1.311 4.281-4.817 4.298-5.019.025-6.164 1.237-4.118 4.359.946 1.444 1.936 2.626 2.2 2.626s6.227-4.935 13.252-10.968c10.587-9.09 12.7-11.358 12.347-13.25-.234-1.255.235-3.176 1.042-4.269 1.39-1.881 1.569-1.895 3.359-.276 1.803 1.632 2.118 1.523 6.84-2.364 2.722-2.242 5.078-4.196 5.235-4.343s-1.358-3.027-3.366-6.399c-4.148-6.962-4.56-7.073-17.628-4.743m5.844 2.463c-2.59 2.862-1.813 6.649 1.365 6.649 1.922 0 2.568-.578 2.792-2.501.161-1.375-.305-3.318-1.035-4.316-1.275-1.745-1.397-1.738-3.122.168m-32.601 4.107c-1.174.742-.912 1.138 1.315 1.985 3.911 1.486 4.537 1.337 3.941-.943-.555-2.123-2.833-2.575-5.256-1.042M105.2 98.2c-1.458 1.458-1.589 6.442-.191 7.306 1.799 1.111 4.991-.577 4.991-2.639 0-2.314-1.717-5.867-2.835-5.867-.421 0-1.305.54-1.965 1.2m-67 47c-.727.727-1.2 4.254-1.2 8.943 0 9.663 1.216 10.865 10.973 10.842 7.598-.018 9.328-.818 8.864-4.098-.309-2.187-.861-2.412-6.587-2.685l-6.25-.297v-5.381c0-6.831-2.781-10.343-5.8-7.324m119.371.371c-1.039 1.04-1.571 3.394-1.571 6.953v5.381l-6.24.297c-5.073.242-6.304.634-6.583 2.096-.655 3.439 1.688 4.702 8.723 4.702 9.901 0 11.1-1.173 11.1-10.857 0-9.394-1.786-12.214-5.429-8.572"/><path fill-rule="evenodd" d="M38.012 40.977c-.604 1.13-.967 5.262-.805 9.184.23 5.598.682 7.367 2.102 8.234C42.045 60.067 44 56.718 44 50.357v-5.262l6.25-.297c5.921-.282 6.25-.43 6.25-2.798 0-2.453-.164-2.505-8.694-2.788-7.906-.262-8.795-.102-9.794 1.765m105.35-.477c-1.318 3.433.367 4.5 7.107 4.5H157v6.393c0 4.982.359 6.531 1.627 7.017 3.103 1.191 4.373-1.305 4.373-8.598C163 39.419 162.59 39 152.433 39c-6.629 0-8.622.33-9.071 1.5M95.697 52.39l-6.64 7.39-10.105.723c-14.568 1.043-14.462.909-16.335 20.475-.815 8.512-1.943 15.631-2.505 15.818s-3.268 2.129-6.013 4.314c-4.93 3.926-6.818 6.917-5.605 8.881.779 1.259 5.506 1.34 5.506.094 0-.947 9.235-8.085 10.461-8.085.381 0 .372 5.618-.019 12.485-.767 13.459-.236 15.515 4.006 15.515 1.212 0 3.26-1.125 4.552-2.5 3.02-3.214 3.699-3.147 4.487.442.356 1.618 1.924 4.705 3.485 6.861l2.838 3.918-2.905 2.549c-2.848 2.5-3.601 5.096-2.14 7.376.846 1.32 17.844 8.354 20.187 8.354.86 0 12.472-10.916 25.806-24.258C143.501 113.987 149 107.917 149 105.981c0-1.377-1.472-4.749-3.271-7.492-2.823-4.307-3.729-4.997-6.624-5.044-2.873-.047-3.721-.678-5.925-4.409l-2.571-4.354 7.701.582c6.825.516 7.815.372 8.694-1.271 1.721-3.216-1.266-4.993-8.394-4.993h-6.247l-8.594-12.75C109.466 45.033 109.438 45 105.662 45c-2.867 0-4.238 1.016-9.965 7.39m13.383 34.982-6.42 1.128-1.58 4.969c-3.349 10.532-16.042 12.902-25.354 4.734-2.948-2.586-3.894-.163-4.469 11.45-.532 10.734-.517 10.829 1.431 9.097 3.215-2.857 8.108-1.727 9.473 2.188.213.611 1.783.646 4.222.093 5.212-1.182 8.864.213 8.436 3.221-.262 1.85-1.102 2.337-4.741 2.748-5.147.582-5.893 1.773-3.196 5.099l1.948 2.401 2.335-2.072c1.284-1.139 7.114-6.182 12.955-11.207 8.743-7.521 10.544-9.54 10.191-11.428-.235-1.261.233-3.187 1.04-4.28 1.437-1.944 1.513-1.946 3.537-.114 2.226 2.014 1.676 2.323 11.483-6.46.478-.429-.792-3.516-2.823-6.86-3.607-5.937-3.79-6.076-7.87-5.957-2.298.067-7.067.63-10.598 1.25m5.767 4.064c-1.51 3.315-.411 5.783 2.399 5.384 2.599-.369 3.599-4.097 1.708-6.375-1.714-2.066-2.838-1.795-4.107.991m-31.732 2.472c-1.111.703-.976 1.096.684 1.985 3.093 1.655 5.533 1.414 4.808-.475-.334-.87-.607-1.77-.607-2 0-.754-3.469-.407-4.885.49m21.953 4.965c-1.57 2.934-1.302 5.823.61 6.557 2.721 1.044 4.898-1.891 3.771-5.083-1.209-3.419-3.015-4.027-4.381-1.474M38.75 145.08c-1.433.835-1.75 2.45-1.75 8.913C37 163.828 38.173 165 48.023 165c6.736 0 8.977-1.022 8.977-4.093 0-2.186-2.005-2.907-8.082-2.907H44v-5.429c0-3.601-.529-5.957-1.571-7-.865-.864-1.652-1.557-1.75-1.541s-.967.489-1.929 1.05M157 151.386v6.519l-6.146.297c-4.641.225-6.416.741-7.25 2.107-1.766 2.892 1.675 4.691 8.976 4.691 9.352 0 10.594-1.398 10.218-11.5-.294-7.9-.332-8.004-3.048-8.316l-2.75-.317z"/></svg>