<svg xmlns="http://www.w3.org/2000/svg" width="200" height="200" fill="#000000"><path fill-opacity=".227" fill-rule="evenodd" d="M0 100.005V200.01l100.25-.255 100.25-.255.255-99.75L201.01 0H0zm.481.495c0 55 .121 77.647.269 50.326.148-27.32.148-72.32 0-100C.602 23.147.481 45.5.481 100.5M141 68.195c0 4.276.476 5.692 2.687 8 3.204 3.345 5.149 3.509 8.678.732 2.194-1.725 2.635-2.877 2.635-6.881v-4.809l-4.443-1.118c-2.443-.616-5.593-1.119-7-1.119-2.415 0-2.557.289-2.557 5.195m-46.534-.35c.874 3.981-.972 9.696-3.765 11.652-2.021 1.416-1.828 1.503 3.326 1.499 7.313-.005 11.454-2.533 13.09-7.991 1.615-5.39.113-6.919-7.571-7.712l-5.771-.596zM135 66c0 .55.45 1 1 1s1-.45 1-1-.45-1-1-1-1 .45-1 1m-9.842 2c0 1.375.227 1.938.504 1.25.278-.687.278-1.812 0-2.5-.277-.687-.504-.125-.504 1.25M76 71.845c0 3.693 1.175 5.51 4.982 7.705.814.47.477-.422-.75-1.983C78.927 75.909 78 73.332 78 71.365 78 69.514 77.55 68 77 68s-1 1.73-1 3.845M87 69c0 .55.45 1 1 1s1-.45 1-1-.45-1-1-1-1 .45-1 1m86.75 48.689c-1.321.346-1.742 1.481-1.718 4.634l.031 4.177 2.469-2.806c1.357-1.543 2.468-3.68 2.468-4.75 0-1.982-.188-2.055-3.25-1.255M148 123.5c0 4.15 1.312 4.479 3.648.915 1.442-2.201 1.483-2.719.273-3.485-2.763-1.749-3.921-.99-3.921 2.57"/><path fill-opacity=".406" fill-rule="evenodd" d="M0 100v100h64l.019-8.75c.024-10.822 2-25.054 5.031-36.246 2.006-7.402 2.955-9.19 7.376-13.893 6.594-7.013 11.132-9.065 20.074-9.075 3.85-.005 8.026.266 9.281.602 6.832 1.831 14.744 28.942 15.945 54.638.465 9.953 1.374 14.2 2.691 12.574.481-.595-1.145-24.114-1.961-28.35-.697-3.623-.616-3.873.858-2.652.895.742 1.528 2.315 1.407 3.497-.274 2.669 3.942 3.697 4.902 1.195.389-1.014 1.289-1.385 2.458-1.014 3.138.996 6.094-1.299 5.761-4.472-.162-1.542.273-3.488.966-4.323 1.024-1.233.983-1.797-.214-2.994-.841-.841-1.237-2.387-.921-3.594.646-2.469-2.139-4.077-3.94-2.276-.623.623-2.548 1.133-4.278 1.133-3.734 0-6.595 2.753-6.221 5.986.527 4.545-1.992 3.116-2.688-1.526-.381-2.545-1.318-6.397-2.082-8.561s-1.17-4.489-.904-5.167c.678-1.726 6.913-5.635 11.659-7.309 3.652-1.289 4.191-1.246 6.431.516 1.344 1.057 3.885 2.229 5.647 2.603 3.908.83 6.179 2.73 9.514 7.958 2.669 4.185 5.627 14.5 4.158 14.5-.468 0-1.129-.45-1.469-1s-1.491-1-2.559-1c-2.424 0-2.579 3.097-.326 6.535 1.51 2.305 1.498 2.465-.186 2.465-.99 0-2.842-.978-4.115-2.174-2.323-2.183-3.363-1.275-1.114.974.933.933.6 1.2-1.5 1.2-2.006 0-2.7.499-2.7 1.941 0 1.068.451 2.219 1.001 2.56 1.394.861-2.155 5.377-3.746 4.767-.69-.265-1.255.008-1.255.606s1.073 1.357 2.386 1.687c1.816.456 2.256 1.092 1.844 2.668-.645 2.465 2.028 4.771 5.529 4.771h2.377L147 194c-1.58 2.219-1.772 3-.737 3 .769 0 2.02-1.16 2.778-2.577.759-1.418 2.185-3.009 3.169-3.536 1.61-.861 1.79-.449 1.79 4.096v5.054l23.25-.269 23.25-.268.255-99.75L201.01 0H0zm.481.5c0 55 .121 77.647.269 50.326.148-27.32.148-72.32 0-100C.602 23.147.481 45.5.481 100.5m43.554-46.566c-2.317 4.33.041 12.02 5.146 16.782C51.45 72.833 58.844 76 61.516 76c.696 0 1.493-1.463 1.77-3.25.278-1.787.81-4.185 1.181-5.328.487-1.497-.267-3.315-2.692-6.495-5.818-7.627-15.382-11.398-17.74-6.993m96.599 14.533c.118 4.77.519 5.791 3.145 8 4.563 3.84 8.28 3.254 10.846-1.71a9.88 9.88 0 0 0 .935-6.291c-.709-3.777-4.094-5.466-10.959-5.467H140.5zm-46.666-1.052c1.28 3.368-.535 9.269-3.799 12.349L87.5 82.283l5.682-.562c10.466-1.036 15.466-5.243 14.645-12.324-.373-3.215-2.533-4.139-10.052-4.297-4.597-.097-4.7-.034-3.807 2.315m31.032.526c0 1.618.356 3.161.791 3.43s.611-1.055.391-2.941c-.491-4.203-1.182-4.489-1.182-.489M135 66c0 .55.45 1 1 1s1-.45 1-1-.45-1-1-1-1 .45-1 1m-57.75 1.662c-.734.296-1.25 2.319-1.25 4.898 0 4.66 1.568 6.432 7 7.913 2.141.584 2.037.388-.723-1.365-3.407-2.163-4.813-5.522-4.029-9.626.261-1.365.425-2.446.363-2.403-.061.043-.673.306-1.361.583M87 69c0 .55.675 1 1.5 1s1.5-.45 1.5-1-.675-1-1.5-1-1.5.45-1.5 1m3.599 26.179c-4.2 3.462-8.574 11.671-8.589 16.121-.016 4.603 2.762 8.693 7.306 10.757 4.376 1.986 10.279 2.568 10.851 1.068.183-.481 3.146-2.288 6.583-4.014s6.25-3.501 6.25-3.941c0-.441-2.362-1.798-5.25-3.016-5.874-2.478-9.398-4.84-8.524-5.713.319-.319 2.433.365 4.698 1.52C114.297 113.253 139.958 122 145.109 122c2.395 0 .386-4.004-3.859-7.692-2.613-2.269-5.016-4.395-5.341-4.724s-3.806-1.003-7.735-1.496c-5.676-.713-7.949-1.534-11.053-3.993-2.376-1.881-5.068-3.095-6.866-3.095-1.626 0-5.049-1.112-7.606-2.472-4.458-2.37-4.649-2.391-4.649-.5 0 1.085-.45 1.972-1 1.972-1.305 0-1.284-3.601.035-6.066 1.682-3.143-1.97-2.436-6.436 1.245m72.935 23.022c-1.081.627-3.297 1.412-4.925 1.745s-3.165 1.223-3.417 1.979c-.363 1.087.424 1.232 3.773.697 5.371-.859 11.035-3.205 11.035-4.571 0-1.384-3.979-1.292-6.466.15M172 121.5c0 6.544 2.055 5.745 4.974-1.933.913-2.4.782-2.567-1.999-2.567-2.859 0-2.975.175-2.975 4.5m-24 2.139c0 4.827 1.087 5.503 3.443 2.138 2.286-3.263 1.94-5.471-.943-6.022-2.358-.45-2.5-.229-2.5 3.884m-10.495 8.337c-.849 3.865-.221 4.729 4.448 6.128 3.452 1.034 4.201.922 6.958-1.041 3.683-2.622 4.025-4.336.698-3.501-1.315.33-2.691.114-3.059-.481-.367-.595-1.556-1.081-2.64-1.081s-2.232-.675-2.548-1.5c-.966-2.516-3.165-1.675-3.857 1.476"/><path fill-opacity=".505" fill-rule="evenodd" d="M105.077 35.589c-2.627 2.21-3.076 3.27-3.073 7.25.004 4.979 2.567 10.391 6.314 13.334 2.09 1.642 2.095 1.713.25 3.752l-1.881 2.078-2.292-3.372C101.868 54.912 95.849 52 90.69 52c-5.132 0-14.951 2.897-17.301 5.104l-2.135 2.006-2.532-4.305c-4.333-7.368-11.733-12.46-19.647-13.522-5.927-.795-8.484.256-11.614 4.773-5.386 7.773-3.294 20.37 4.942 29.75 3.936 4.483 9.816 7.144 15.847 7.172 5.449.025 5.781.847 3.25 8.022-1.98 5.611-1.928 19.224.107 28.171 1.571 6.908 1.56 7.124-.5 9.697-5.246 6.555-11.433 18.5-14.532 28.062l-3.382 10.43-1.157-3.93c-.636-2.162-1.587-11.099-2.114-19.861-.638-10.626-1.467-16.953-2.49-19-.844-1.688-1.79-5.094-2.103-7.569-.312-2.475-1.134-5.411-1.824-6.525s-1.589-4.939-1.995-8.5-1.197-7.344-1.756-8.405c-.961-1.823-1.088-1.833-2.296-.181-1.199 1.639-1.321 1.619-1.936-.32-1.076-3.389-3.244-2.365-5.06 2.391-.937 2.453-2.207 4.365-2.823 4.25-1.848-.347-5.392 7.898-6.697 15.583-.946 5.569-.965 10.048-.082 19.707 1.692 18.528 3.556 26.202 9.133 37.605 4.049 8.28 6.128 11.214 11.511 16.25 3.613 3.38 7.003 6.145 7.533 6.145.529 0 .963 1.125.963 2.5s.414 2.5.92 2.5c.507 0 1.179-3.038 1.495-6.75 1.714-20.133 2.602-25.326 6.112-35.75 3.792-11.261 8.233-19.8 14.123-27.155l3.328-4.155-1.579-4.345c-2.19-6.024-3.044-24.365-1.369-29.425.713-2.156 1.486-3.357 1.717-2.67S65.568 91 66.059 91c.49 0 .417-1.238-.164-2.75-.58-1.513-1.059-5.766-1.063-9.453-.015-12.025 6.54-20.397 18.339-23.419 5.164-1.323 7.157-1.399 11.463-.435 2.866.641 5.809 1.901 6.539 2.799 1.164 1.432 1.082 1.537-.673.853-5.019-1.958-13.112-1.86-17.801.214-10.984 4.859-11.916 19.832-1.433 23.034 9.207 2.814 19.113 2.007 24.166-1.968l2.553-2.008-.846 2.285c-1.633 4.415-5.674 6.363-12.831 6.188-7.674-.189-7.368 1.689.383 2.357 6.164.53 11.186-1.95 13.557-6.697 1.905-3.812 2.305-11.414.81-15.348-.769-2.022-.447-3.127 1.75-6.006 4.447-5.828 11.321-8.962 20.68-9.43 5.01-.251 9.136.064 11.012.842l3 1.243-4.112.774c-8.624 1.623-12.076 2.99-14.844 5.879-2.342 2.444-2.88 3.916-2.967 8.114-.094 4.562-.418 5.293-2.93 6.609-4.275 2.24-2.51 2.646 3.277.753 9.082-2.971 16.429-.922 21.514 6 2.02 2.749 2.023 2.83.15 3.938-2.854 1.689-5.588 4.488-5.588 5.721 0 .599 1.385-.076 3.077-1.5s4.28-2.852 5.75-3.173 3.284-.775 4.03-1.009c2.562-.805 8.74 1.563 11.445 4.386l2.706 2.825-2.769 2.047c-1.523 1.126-3.616 3.619-4.65 5.541-4.83 8.967 3.904 13.495 17.182 8.908l5.271-1.821-.639 2.104c-1.408 4.632-3.532 5.84-9.401 5.347-4.12-.347-6.377.004-8.987 1.396-4.412 2.354-12.174 2.432-15.8.158-1.493-.936-4.601-3.396-6.906-5.466-4.369-3.924-5.699-4.429-13.575-5.152-3.56-.327-5.962-1.369-9.485-4.114-3.081-2.4-5.401-3.498-6.683-3.163-2.25.589-10.566-2.787-10.566-4.288 0-.548.45-1.275 1-1.615 1.917-1.185 1.069-2.607-.92-1.543-2.007 1.075-4.747 7.709-3.64 8.816.352.352.899-.353 1.216-1.567.318-1.213.637-2.204.711-2.202s2.354 1.131 5.069 2.509c2.741 1.39 5.749 2.246 6.765 1.923 1.166-.37 3.22.522 5.67 2.462 4.85 3.841 8.163 5.1 13.444 5.109 4.55.007 7.345 1.507 13.613 7.306 5.737 5.308 5.485 7.132-.869 6.289-6.61-.877-24.183-6.764-33.789-11.319a2487 2487 0 0 0-8.77-4.147c-.55-.253-.415.248.3 1.114s4.202 2.84 7.75 4.385c3.547 1.546 6.45 3.077 6.45 3.404s-2.925 2.109-6.5 3.961-6.5 3.712-6.5 4.132c0 .421 1.087 1.938 2.416 3.372 9.848 10.626 18.421 38.345 18.642 60.276.031 3.146.467 7.52.968 9.72.648 2.847.776.542.442-8-.449-11.52-2.974-28.176-5.663-37.357-1.252-4.279-1.222-4.399 1.71-6.748 3.53-2.829 10.805-6.395 13.046-6.395.87 0 2.271.689 3.113 1.531.842.843 3.588 2.08 6.102 2.75 6.626 1.767 12.061 9.518 13.715 19.56l.715 4.34-2.654-1.739c-2.055-1.346-2.924-1.47-3.847-.547-.922.922-.798 1.878.552 4.229 3.202 5.58 1.305 6.706-3.582 2.126-2.606-2.443-2.804-2.498-1.769-.5 1.026 1.983.919 2.25-.902 2.25-3.185 0-3.711 2.952-.91 5.106l2.406 1.85-2.25.022c-1.274.012-2.25.642-2.25 1.452 0 .787-1.012 1.626-2.25 1.864-1.393.269-.821.486 1.5.57 3.476.126 5.593 2.136 2.25 2.136-.825 0-1.5.882-1.5 1.96 0 1.421 1.103 2.29 4.009 3.161 3.957 1.185 3.989 1.233 2.421 3.627-.875 1.334-1.347 2.668-1.051 2.965s1.502-1.093 2.679-3.087c3.11-5.271 4.942-4.762 4.942 1.374 0 2.75.45 5 1 5s1-2.452 1-5.448c0-4.413.471-5.957 2.478-8.122 4.026-4.344 4.608-13.413 1.114-17.364-.761-.861-1.932-4.266-2.602-7.566-1.333-6.564-2.965-10.315-6.608-15.183-2.9-3.876-3.013-5.909-.405-7.305 3.023-1.617 4.427-4.821 2.912-6.645-.687-.829-2.068-1.292-3.068-1.03-1.001.261-2.071.067-2.379-.431s-1.448-.906-2.532-.906-2.232-.675-2.548-1.5c-1.181-3.076-6.362-1.004-6.362 2.545 0 2.355-2.979 4.729-8.146 6.489l-4.481 1.527-6.772-3.764c-6.399-3.557-13.189-10.536-12.048-12.383.267-.431 3.018-2.156 6.115-3.834l5.63-3.049 8.694 2.913c4.782 1.602 11.425 3.477 14.763 4.166 5.449 1.126 6.125 1.541 6.631 4.072.703 3.515 2.954 3.633 6.026.318 1.407-1.518 3.451-2.517 5.203-2.544 1.587-.024 4.685-.692 6.885-1.485 5.311-1.913 5.5-1.877 5.5 1.06 0 5.779 7.157 2.585 8.564-3.821.367-1.671 1.753-5.081 3.081-7.578 1.327-2.496 2.174-5.162 1.881-5.924s.37-2.531 1.471-3.932c2.79-3.546 2.561-7.809-.588-10.958-2.425-2.424-3.015-2.551-9.22-1.971-6.317.59-6.772.484-9.659-2.245-3.668-3.467-9.511-5.485-13.407-4.629-2.088.459-3.032.208-3.465-.921-.38-.99-.036-1.552.95-1.552.85 0 2.861-1.315 4.469-2.923 2.388-2.388 2.923-3.769 2.923-7.55 0-5.911-2.029-9.869-8.042-15.687-4.912-4.752-5.812-5.222-11.973-6.254-2.728-.457-4.071-1.491-6-4.62-6.04-9.799-19.172-14.045-25.908-8.377m1.558 1.484c-3.362 2.644-3.602 8.626-.546 13.572 3.365 5.444 5.088 5.833 10.541 2.375 2.668-1.692 6.828-3.277 9.549-3.638 2.652-.352 4.821-.927 4.821-1.279 0-2.393-5.684-8.265-10.159-10.495-6.314-3.146-10.678-3.311-14.206-.535m-66.184 8.574c-5.082 5.484-5.429 13.553-.958 22.298C43.978 76.717 50.457 81 59.243 81c5.582 0 4.686-2.306-1.463-3.767-6.387-1.517-11.217-5.284-14.386-11.218-3.026-5.667-3.136-11.273-.278-14.131 4.306-4.306 15.134.003 20.541 8.174 2.348 3.547 2.852 3.861 4.138 2.576 3.635-3.636-4.42-14.227-13.365-17.574-7.51-2.81-10.965-2.665-13.979.587m3.799 7.471c-2.244 2.301-1.441 9.018 1.671 13.972 2.983 4.749 7.501 7.636 13.38 8.55 3.092.48 3.251.328 4.775-4.569 1.564-5.031 1.557-5.094-1.13-9.152-1.488-2.248-4.284-5.21-6.214-6.583-4.135-2.942-10.647-4.099-12.482-2.218m91.605 4.341c-2.554.704-5.532 1.901-6.616 2.661-1.721 1.204-.348 1.38 10.795 1.38 11.538 0 12.682-.158 11.888-1.645-.982-1.835-6.099-3.903-9.321-3.766-1.156.05-4.191.666-6.746 1.37m-51.436 2.616c-1.695.492-3.939 1.842-4.986 2.999l-1.905 2.105 3.986-.839c2.192-.462 8.331-.84 13.641-.84 5.309 0 9.453-.326 9.207-.724-.729-1.18-10.473-3.783-13.794-3.686-1.687.05-4.455.493-6.149.985m56.133 7.968c.132 5.146.572 6.477 2.967 8.977 2.17 2.265 3.402 2.803 5.397 2.358 5.729-1.278 9.163-9.294 5.834-13.62-.973-1.265-10.085-3.758-13.735-3.758-.34 0-.548 2.719-.463 6.043m-46.737-3.525c-.285.285-.316 2.648-.068 5.25C94.338 75.989 91.504 80 86.516 80c-4.713 0-8.939-5.009-8.178-9.695.578-3.564-.325-4.23-2.38-1.755-2.174 2.62-.063 8.499 3.873 10.79 5.168 3.008 15.671 3.416 21.503.837 5.031-2.226 6.666-4.836 6.666-10.639 0-3.31-.043-3.34-6.332-4.435-7.322-1.275-7.173-1.264-7.853-.585M125 68.274c0 1.985.423 3.87.941 4.189.561.347.705-.941.358-3.191-.775-5.021-1.299-5.424-1.299-.998M135 66c0 .55.702 1 1.559 1s1.281-.45.941-1-1.041-1-1.559-1-.941.45-.941 1m-48 3.583c0 1.766 2.153 1.459 2.771-.395.218-.654-.317-1.188-1.188-1.188-.87 0-1.583.713-1.583 1.583m76.016 48.454c-1.917 1.08-4.504 1.963-5.75 1.963-1.431 0-2.266.603-2.266 1.636 0 1.358.747 1.533 4.396 1.033 5.309-.727 11.774-3.654 11.294-5.113-.588-1.791-4.022-1.576-7.674.481m11.734-1.221c-2.547.294-2.75.65-2.75 4.834 0 5.457 1.641 5.473 4.333.044 2.229-4.496 1.973-5.287-1.583-4.878M148 123.5c0 4.83.809 5.526 3.193 2.75 2.887-3.361 2.954-5.244.223-6.282-1.4-.532-2.742-.968-2.981-.968s-.435 2.025-.435 4.5m-10.333 6.167c-1.534 1.533-.585 6.277 1.556 7.776 3.552 2.489 9.755 1.537 12.012-1.843 1.312-1.965.833-2.363-3.653-3.035-2.43-.365-4.96-1.316-5.623-2.114-1.277-1.539-3.188-1.889-4.292-.784M112 135.278c0 .257.92 2.548 2.045 5.091l2.045 4.624 2.943-2.175c1.618-1.197 2.835-2.255 2.705-2.351-1.719-1.263-9.738-5.536-9.738-5.189m-84.614 4.438c-2.009 2.56-2.232 2.615-4.52 1.115-2.277-1.491-2.587-1.427-5.715 1.184-3.16 2.638-3.276 2.977-2.598 7.623 2.227 15.27 8.846 28.665 18.816 38.077l7.131 6.731.668-9.473c.367-5.21.76-10.823.873-12.473s-.569-5.025-1.514-7.5c-1.071-2.802-1.925-8.745-2.263-15.75-.385-7.97-.903-11.25-1.778-11.25-.68 0-2.53-.22-4.111-.488-2.262-.384-3.326.086-4.989 2.204m34.287 12.034c-.875 3.162-2.059 9.563-2.632 14.224-1.26 10.259-1.382 34.026-.174 34.026.477 0 1.119-8.213 1.428-18.25.491-15.99 1.747-26.005 4.249-33.89.325-1.023.17-1.86-.345-1.86-.514 0-1.651 2.588-2.526 5.75m71.956 3.775c-.403 1.049-1.343 1.334-3.014.915-1.336-.336-3.422-.078-4.637.572-1.805.966-2.11 1.789-1.669 4.507.397 2.445.127 3.484-1.021 3.924-1.366.524-1.326.858.326 2.686 1.037 1.147 1.745 2.941 1.572 3.986-.417 2.519 2.754 3.743 3.987 1.539.521-.931 2.163-1.654 3.754-1.654 3.263 0 5.574-2.253 4.685-4.567-.336-.877-2.411-2.301-4.611-3.165-2.201-.864-4.001-1.965-4.001-2.445 0-.481 1.328-.188 2.95.651 3.802 1.966 7.05 1.964 7.05-.005 0-.843-.595-1.76-1.321-2.039-.834-.32-1.161-1.6-.887-3.468.318-2.164.029-2.962-1.072-2.962-.828 0-1.769.686-2.091 1.525m.406 1.933c-.768.925-2.203 1.258-3.928.913-1.821-.364-3.169-.001-4.081 1.097-1.173 1.414-1.062 1.912.801 3.592 1.189 1.073 1.714 1.409 1.167.746-2.978-3.612.76-5.019 6.056-2.28 1.691.874 2.95 1.088 2.95.5 0-.564-.502-1.026-1.117-1.026-.651 0-.917-1.041-.638-2.5.555-2.903.426-3.014-1.21-1.042M151 165.794c0 .453.661 1.697 1.468 2.765 1.863 2.463 1.933 5.073.155 5.755-.757.291-3.301.271-5.653-.045-5.373-.72-4.676 1.14 1.072 2.862 5.26 1.576 5.016 2.869-.542 2.869-2.475 0-4.5.422-4.5.939s2.025 1.242 4.5 1.613 4.5 1.022 4.5 1.445c0 .913-3.586 1.97-6.75 1.989-2.589.016-3.004 1.511-.668 2.407 5.765 2.212 13.358-1.714 14.844-7.677 1.447-5.801-.222-10.577-4.676-13.383-2.062-1.299-3.75-1.992-3.75-1.539m-25.049 2.052c2.091 1.677 2.256 2.2 1.127 3.56-.918 1.106-.97 1.594-.169 1.594.635 0 1.413-.675 1.729-1.5.359-.934 1.884-1.5 4.042-1.5 2.755 0 3.398-.357 3.132-1.739-.184-.956-1.116-1.888-2.07-2.072-1.228-.237-1.559.125-1.132 1.238.789 2.055-1.71 2.06-5.91.013l-3.2-1.56z"/><path fill-opacity=".914" fill-rule="evenodd" d="M107.242 34.448c-3.349 1.503-5.242 4.809-5.242 9.157 0 3.409 3.412 9.793 6.434 12.036l2.504 1.859-1.959 2.5-1.958 2.5-3.261-3.726c-3.892-4.448-7.132-5.776-14.075-5.768-6.265.006-12.255 1.56-15.839 4.107-3.408 2.423-3.379 2.43-4.857-1.139-2.126-5.132-10.127-11.469-16.872-13.361-7.417-2.081-10.418-1.396-13.906 3.177-2.4 3.146-2.711 4.429-2.711 11.171 0 6.927.315 8.136 3.472 13.346 4.522 7.461 9.467 10.838 17.901 12.226l6.627 1.09.579-6.062C65.47 62.986 75.558 54 90.529 54c4.337 0 11.133 2.677 11.905 4.689.446 1.163.163 1.349-1.173.769-3.317-1.441-15.195-1.728-18.299-.442C80.063 60.217 75 65.283 75 66.983c0 .456.839.61 1.864.342 1.603-.419 1.863.109 1.863 3.778 0 3.391.552 4.74 2.692 6.581 6.438 5.538 13.212.572 12.187-8.934-.484-4.491-.381-4.75 1.892-4.75 4.263 0 12.37 2.105 12.787 3.32.223.649.224-.012.003-1.47-.554-3.643 4.345-9.034 11.3-12.437 6.363-3.113 17.656-3.865 23.162-1.542 4.26 1.798 4.129 3.129-.307 3.129-5.362 0-11.764 1.884-14.9 4.384-2.301 1.835-2.842 3.112-3.035 7.174-.134 2.804-.053 3.319.186 1.192.581-5.17 1.975-4.72 2.056.665.056 3.717-.274 4.5-2.092 4.956-1.187.298-3.058 1.235-4.158 2.081-1.708 1.314-1.416 1.301 2-.088 6.472-2.631 13.519-2.279 18.347.916 3.745 2.478 8.32 8.72 6.391 8.72-.447 0-2.372 1.361-4.276 3.024l-3.462 3.025 3.851-2.498c7.292-4.731 15.38-4.562 20.943.436l3.206 2.881-3.69 3.816c-5.012 5.182-6.339 8.86-4.314 11.951 1.377 2.101 2.306 2.365 8.316 2.365 4.662 0 7.919-.588 10.477-1.892 3.551-1.811 3.711-1.815 3.711-.082 0 5.397-4.485 8.28-11.405 7.332-3.354-.46-5.201-.191-7.061 1.028-3.24 2.123-10.316 3.065-13.569 1.807-1.395-.539-5.262-3.258-8.594-6.043-5.566-4.651-6.604-5.118-12.758-5.749-5.46-.559-7.512-1.307-11.096-4.043-2.824-2.157-5.516-3.358-7.523-3.358-4.962 0-11.684-4.233-10.24-6.449.41-.63-.041-.287-1.004.763-.963 1.049-1.714 2.42-1.671 3.047.052.752.248.72.578-.094.352-.871 1.572-.504 4.153 1.25 2.427 1.649 5.035 2.483 7.767 2.483 2.91 0 4.67.615 6.016 2.102 2.947 3.257 6.818 4.867 13.342 5.549 5.379.562 6.621 1.165 12.275 5.958 3.459 2.932 7.64 5.627 9.29 5.987s3.331 1.161 3.735 1.78c.521.797.739.761.75-.126.008-.687.82-1.25 1.804-1.25.983 0 3.553-.9 5.711-2 4.66-2.376 8.5-2.613 8.5-.526 0 2.238-5.638 4.683-12.162 5.274-3.211.292-5.838.885-5.838 1.319 0 1.094-2.939 3.933-4.071 3.933-.511 0-.929-1.277-.929-2.838 0-2.548-.355-2.851-3.475-2.969-6.922-.26-33.38-9.224-42.525-14.407l-3.5-1.984 2.5 2.066c1.375 1.137 4.862 3.033 7.75 4.215s5.25 2.541 5.25 3.019-2.812 2.279-6.25 4.002c-3.437 1.723-6.442 3.309-6.677 3.525s.747 1.625 2.183 3.131c4.002 4.201 9.653 14.149 11.356 19.99.841 2.887 1.753 5.25 2.026 5.25s.252-.787-.048-1.75c-.789-2.535.251-3.698 6.869-7.683 6.79-4.089 9.188-4.363 13.767-1.571 1.801 1.098 3.949 1.981 4.774 1.961.825-.019-.062-.713-1.97-1.54-1.909-.828-4.159-2.127-5-2.887-1.306-1.179-2.273-1.119-6.609.41l-5.079 1.791-5.921-3.402c-7.151-4.109-14.842-12.117-13.356-13.908.551-.663 2.449-1.786 4.218-2.496s4.215-2.049 5.434-2.976c2.106-1.6 2.611-1.546 10 1.064 4.281 1.512 11.271 3.523 15.533 4.468 6.969 1.547 7.75 1.955 7.75 4.06 0 3.682 1.806 3.878 4.929.535 2.142-2.293 3.758-3.076 6.346-3.076 1.911 0 5.387-.675 7.725-1.5s4.42-1.5 4.626-1.5.374 1.575.374 3.5.47 3.5 1.045 3.5c2.138 0 5.846-4.902 6.534-8.638.391-2.124 1.546-4.935 2.566-6.247s1.855-3.307 1.855-4.434.922-3.954 2.049-6.281c1.871-3.866 1.923-4.53.607-7.681-1.741-4.166-4.277-4.983-11.712-3.775-5.344.869-5.505.823-8.78-2.5-3.216-3.264-5.593-4.115-13.087-4.684-4.453-.338-4.966-2.149-1.068-3.764 3.681-1.524 6.047-5.655 5.841-10.196l-.15-3.3-.39 3c-.746 5.73-2.388 8.371-5.931 9.54-3.122 1.03-3.694.884-6.693-1.707-3.061-2.644-3.281-3.258-3.295-9.187l-.016-6.354 5.063.664c2.784.366 6.3 1.278 7.812 2.028 1.512.749 2.75 1.154 2.75.9 0-1.394-4.192-8.384-5.027-8.384-.542 0-1.996-1.184-3.23-2.63-2.594-3.042-7.463-5.346-11.461-5.424-2.183-.043-3.446-1.067-5.865-4.75-5.533-8.427-16.159-12.897-23.175-9.748m-1.787 3.007c-3.957 3.956-2.627 11.356 2.968 16.519l2.682 2.473 4.844-2.723c2.665-1.498 7.388-3.301 10.496-4.007l5.652-1.284-3.007-4.149c-6.338-8.75-18.268-12.197-23.635-6.829M40.299 45.25c-5.059 5.554-5.749 13.103-1.944 21.25 4.621 9.896 9.518 13.681 19.395 14.991 4.796.636 5.25.526 5.25-1.278 0-1.522-1.09-2.25-4.75-3.17-6.835-1.718-10.721-4.465-13.835-9.778C39.792 59.377 41.298 50 47.187 50 52.59 50 61.51 56.327 64.7 62.423l1.53 2.923 1.772-2.349c2.361-3.13 1.185-6.401-4.399-12.228-7.014-7.321-19.064-10.174-23.304-5.519m5.092 6.542c-4.008 2.6-3.914 8.835.234 15.406 2.893 4.583 6.126 6.792 12.224 8.35l4.651 1.19 1.132-4.119c.623-2.266 1.401-4.794 1.73-5.619.886-2.227-5.744-10.65-10.104-12.834-4.771-2.39-8.47-3.28-9.867-2.374m88.532 5.757c-2.517.776-5.442 2.396-6.5 3.6-1.899 2.163-1.899 2.181.031 1.473 3.648-1.337 17.025-1.818 21.519-.774 2.46.572 4.652.86 4.872.641.219-.22-.972-1.769-2.646-3.444-2.583-2.583-3.777-3.034-7.872-2.975-2.655.038-6.886.704-9.404 1.479m-51.594 2.909c-3.368 1.465-7.12 6.443-3.935 5.221 4.381-1.681 15.497-2.864 21.316-2.268 7.42.761 7.674-.411.611-2.817-5.691-1.939-13.708-2-17.992-.136m52.78 4.911c-.891 1.074-.91 1.636-.07 2.155 1.63 1.008 3.654-1.231 2.319-2.566-.724-.724-1.412-.598-2.249.411m-48.663 2.718c-1.03 1.668 1.287 3.58 2.667 2.2C90.267 69.133 89.545 67 88 67c-.485 0-1.184.489-1.554 1.087M74.47 72.99c.628 6.985 5.955 9.993 17.715 10.004 6.47.007 10.32-1.196 13.565-4.235 1.997-1.871 2.25-1.912 2.25-.368 0 5.717-5.806 9.07-14.436 8.34-3.614-.306-5.256-.182-4.064.307 1.1.452 4.407.853 7.35.892 4.795.063 5.702-.282 8.75-3.33 3.042-3.042 3.394-3.963 3.344-8.75l-.057-5.35-1.193 3.406c-1.809 5.16-5.605 7.43-13.244 7.916-7.433.474-14.551-1.171-17.058-3.941-.939-1.038-2.072-3.574-2.517-5.634-.786-3.642-.798-3.622-.405.743M62.413 89.54c-2.549 6.608-2.59 22.481-.079 30.775l1.76 5.814-2.864 3.262c-4.761 5.423-10.308 16.326-14.258 28.029l-3.74 11.08-1.624-5.533c-.903-3.077-2.021-12.399-2.518-21C38.201 126.58 37.597 123 35.893 123c-.491 0-.893-1.519-.893-3.375 0-5.431-1.144-9.625-2.625-9.625-1.012 0-1.375-1.566-1.375-5.935 0-7.24-1.509-11.956-3.263-10.202-.919.919-1.58.671-2.907-1.087L23.111 90.5l-2.102 4.75c-1.157 2.612-2.688 4.75-3.404 4.75-1.526 0-4.079 5.501-5.72 12.324-1.623 6.75-.507 29.843 2.011 41.596 3.542 16.537 11.521 30.412 22.153 38.519 2.655 2.025 5.019 4.667 5.253 5.872.234 1.204.487-.416.562-3.6.593-25.226 8.648-50.689 20.431-64.584 2.217-2.614 2.709-3.964 2.189-6-2.795-10.931-3.624-17.277-3.104-23.75.694-8.628 2.277-13.533 3.662-11.343 1.102 1.743 1.132.271.051-2.494-.638-1.632-1.088-1.128-2.68 3m108.773 3.174c-1.272.243-4.31 2.355-6.75 4.692-9 8.625-3.805 13.982 10.15 10.468 6.236-1.57 10.414-5.679 10.414-10.24 0-5.148-4.403-6.717-13.814-4.92M21.711 96.77C20.77 99.119 20 101.931 20 103.02c0 2.448-1.699 2.619-2.276.23-.306-1.265-.894-.686-2.124 2.088-2.952 6.663-3.866 14.489-3.177 27.213 1.407 26.004 7.346 42.571 19.563 54.572 3.851 3.783 7.37 6.877 7.821 6.877.452 0 1.319-5.298 1.928-11.773 1.009-10.717.937-12.279-.8-17.426-1.5-4.44-3.823-26.694-3.931-37.658-.002-.196-.679-.098-1.504.219-1.207.463-1.523-.444-1.618-4.643-.065-2.871-.42-6.569-.789-8.219l-.67-3-.851 2.5c-.633 1.859-1.04-.141-1.586-7.792-.762-10.663-1.337-12.829-2.462-9.283-.948 2.985-2.095 2.559-3.169-1.175l-.934-3.25zm152.539 19.936c-1.986.382-2.25 1.037-2.25 5.591v5.158l2.476-2.478c2.429-2.43 4.619-9.109 2.899-8.841-.481.075-1.887.331-3.125.57m-36.018 11.13c-1.591 1.009-3.468 7.329-2.472 8.32.407.406.841-.674.965-2.398.123-1.725.936-3.838 1.806-4.697 1.435-1.415 1.675-1.398 2.575.189.546.963 1.844 1.75 2.885 1.75s2.169.45 2.509 1 1.716 1 3.059 1c3.435 0 3.118 2.709-.561 4.797-1.65.936-2.79 2.266-2.531 2.953.259.688-.251 1.25-1.133 1.25-1.154 0-.885.565.96 2.016 3.007 2.366 6.504 7.77 8.325 12.866.711 1.99 1.313 2.813 1.337 1.828.057-2.314-3.177-8.63-6.346-12.397-3.017-3.586-2.855-5.546.691-8.335 3.025-2.38 3.639-5.978 1.02-5.978-2.662 0-8.743-2.367-9.621-3.745-.923-1.45-1.697-1.544-3.468-.419M111 134.409c0 .329.9 2.277 2 4.33s2 4.301 2 4.996c0 1.746.724 1.598 4.173-.858 1.639-1.168 2.609-2.458 2.154-2.867-1.637-1.473-10.327-6.186-10.327-5.601m28.441 4.017c1.068.866 2.868 1.535 4 1.488 1.652-.069 1.531-.245-.613-.893-1.469-.443-3.269-1.113-4-1.488s-.454.027.613.893m-77.232 12.318c-2.124 7.179-3.185 16.851-3.65 33.256l-.466 16.5 1.349-19.5c.743-10.725 2.081-22.604 2.974-26.397 1.749-7.432 1.612-10.006-.207-3.859m71.729 4.831c-.826.994-2.216 1.36-3.864 1.016-2.506-.524-2.515-.508-.322.589 1.819.911 2.618.795 4.162-.602 1.813-1.641 1.934-1.636 2.382.097.404 1.563.489 1.582.588.134.165-2.399-1.427-3.065-2.946-1.234m-15.813-.075c-.001.55.638 3.925 1.419 7.5 1.4 6.404 1.414 6.422.903 1.241-.447-4.535-2.317-11.575-2.322-8.741m7.075 2.7c-1.536 1.536-1.536 4.064 0 5.6.933.933.767 1.212-.75 1.256-1.093.031.029.863 2.55 1.891 5.62 2.292 7.6 1.417 2.599-1.148-4.269-2.191-5.402-4.284-3.748-6.931 1.338-2.144 1.085-2.404-.651-.668m11.227 2.235c2.922 2.342 1.008 3.143-2.973 1.244-1.937-.923-4.069-1.669-4.738-1.657s.781.928 3.221 2.035c4.358 1.977 7.063 1.98 7.063.01 0-.548-1.012-1.487-2.25-2.087-2.152-1.043-2.166-1.023-.323.455m19.723 2.841c-.149 2.755-.172 2.764-3.15 1.224-1.65-.853-2.99-1.202-2.977-.776.012.427 1.446 1.477 3.185 2.334 4.447 2.191 7.025 6.063 7.148 10.735.128 4.888-1.622 8.342-5.339 10.538-3.067 1.812-9.63 2.199-11.988.708-2.045-1.293-.887-2.114 3.888-2.755 4.684-.628 5.528-2.284 1.165-2.284-6.023 0-8.737-2.943-2.832-3.07 1.787-.039 4.143-.419 5.233-.845 1.667-.651 1.415-.882-1.576-1.443-1.958-.367-4.425-1.322-5.483-2.123-1.758-1.33-1.432-1.458 3.767-1.487 3.13-.018 5.978-.496 6.328-1.063.351-.568-.29-2.48-1.424-4.25s-2.069-2.743-2.078-2.16.644 1.932 1.451 3c2.277 3.01 1.923 3.298-4.063 3.298-3.078 0-5.89.298-6.25.661s.695 1.744 2.345 3.067c2.79 2.237 2.846 2.405.8 2.41-1.21.003-2.56.614-3 1.358s-1.475 1.609-2.3 1.921-.064.604 1.691.647c3.103.077 5.922 2.079 2.927 2.079-.825 0-1.79.47-2.145 1.044-1.05 1.698 1.556 3.956 4.566 3.956 1.537 0 3.021.563 3.299 1.25.403 1 .52 1 .583 0 .143-2.257 3.912-1.395 4.373 1 .396 2.056.445 2.028.57-.326.075-1.416 1.266-3.637 2.647-4.935 4.659-4.376 5.163-14.217.973-18.989-.724-.825-1.512-2.85-1.751-4.5l-.433-3zm-28.15-.391c0 .897 3.005 2.443 3.598 1.851.171-.172-.568-.861-1.643-1.532-1.075-.672-1.955-.815-1.955-.319m5 2.498c0 .211.901.619 2.001.907 1.101.288 1.75.115 1.441-.383-.538-.871-3.442-1.313-3.442-.524m-8.798 2.887c1.074.871 1.528 2.275 1.23 3.805-.421 2.16-.369 2.206.477.425 1.402-2.951 1.307-3.325-1.159-4.52-1.994-.966-2.057-.934-.548.29m-2.97 4.73c0 1.925.206 2.713.457 1.75.252-.963.252-2.537 0-3.5-.251-.963-.457-.175-.457 1.75m8.237-1.95c-.187.302 1.172.652 3.02.776 1.848.125 3.576-.123 3.84-.55s-1.095-.776-3.02-.776-3.653.247-3.84.55m-7.197 9.95c0 2.475.195 3.488.434 2.25.238-1.238.238-3.262 0-4.5-.239-1.238-.434-.225-.434 2.25m1.056 12.5c.005 3.85.185 5.302.402 3.228.216-2.075.213-5.225-.008-7s-.398-.078-.394 3.772M147 195c-.589 1.1-.845 2-.57 2s.981-.9 1.57-2 .845-2 .57-2-.981.9-1.57 2m8.079 3.583c.048 1.165.285 1.402.604.605.289-.722.253-1.585-.079-1.917s-.568.258-.525 1.312"/></svg>