<svg xmlns="http://www.w3.org/2000/svg" width="24" height="24" fill="#000000"><rect width="24" height="24" fill="#000000" rx="2"/><path fill="#000000" stroke="#000000" stroke-linecap="round" stroke-linejoin="round" stroke-miterlimit="10" stroke-width=".092" d="M16.638 17.641a.035.035 0 0 0 .017-.03l-.014-4.763 1.39-.73.057 6.311-5.48 3.114-.004-1.528 4.034-2.374Z"/><path fill="#000000" stroke="#000000" stroke-linecap="round" stroke-linejoin="round" stroke-miterlimit="10" stroke-width=".092" d="M18.099 12.058a.035.035 0 0 0-.019-.03l-4.252-2.25 1.585-.897 4.035 2.526.022 7.628-1.313-.61-.058-6.367ZM12.554 2.646 12.547 1l6.882 3.918.005 1.57-6.88-3.842ZM6.87 5.786a.035.035 0 0 0-.017.03l-.022 6.257-1.186.876-.023-7.952L12.478 1l.006 1.645-5.613 3.141Z"/><path fill="#000000" stroke="#000000" stroke-linecap="round" stroke-linejoin="round" stroke-miterlimit="10" stroke-width=".092" d="m12.59 21.634 5.534-3.145 1.306.607-6.891 4.076-6.841-3.881 5.456-3.2a.035.035 0 0 0 .017-.03.035.035 0 0 0-.018-.03l-1.447-.797-4.032-2.218 1.193-.881 6.917 3.952L9.682 18.4l-1.392.775a.035.035 0 0 0 0 .06l4.266 2.4c.01.005.024.005.035 0ZM12.519 2.707l6.88 3.84-4.001 2.265-1.659.939a.035.035 0 0 0 0 .061l4.251 2.248-1.383.728-5.461-3.084 5.46-3.2a.035.035 0 0 0-.001-.06l-1.315-.75-2.75-1.57a.035.035 0 0 0-.034 0L8.427 6.46l-1.462-.645 5.554-3.107Z"/><path fill="#000000" stroke="#000000" stroke-linecap="round" stroke-linejoin="round" stroke-miterlimit="10" stroke-width=".092" d="m12.535 20.017.004 1.528-4.16-2.34 1.321-.734 2.835 1.546ZM9.69 15.303l1.376.757-5.403 3.169-.005-1.647 4.032-2.28ZM15.272 5.764l1.246.71-5.407 3.17.016-1.565 4.145-2.315ZM8.409 11.418c0 .013.007.024.018.03l5.389 2.972.005 1.602-6.92-3.954.02-6.2 1.474.649.014 4.901Z"/></svg>