<svg xmlns="http://www.w3.org/2000/svg" width="25" height="24" fill="#000000"><rect width="24" height="24" x=".318" fill="#000000" rx="4"/><path fill="#000000" d="M7.999 12a4.32 4.32 0 1 1 8.64-.001 4.32 4.32 0 0 1-8.64 0Zm12.96 0a4.32 4.32 0 0 0-4.32-4.32v8.64a4.32 4.32 0 0 0 4.32-4.32Zm-4.32-4.32h4.32a4.32 4.32 0 0 0-4.32-4.32v4.32a4.32 4.32 0 0 0-8.64 0h8.64Zm-8.64 0V3.36a4.32 4.32 0 0 0-4.32 4.32h4.32Zm8.64 8.64H3.717a4.32 4.32 0 0 0 4.32 4.32v-3.75a4.32 4.32 0 0 0 8.602-.57v4.32a4.32 4.32 0 0 0 4.32-4.32h-4.32Zm-8.64-8.64a4.32 4.32 0 0 0 0 8.64V7.68Z"/></svg>