<svg xmlns="http://www.w3.org/2000/svg" width="64" height="64" fill="#000000"><path fill="#000000" d="M32 64c17.673 0 32-14.327 32-32C64 14.327 49.673 0 32 0 14.327 0 0 14.327 0 32c0 17.673 14.327 32 32 32Z"/><path fill="#000000" d="M45.613 31.243c.048.19.048.414.16.557 1.59 2.148 2.402 4.55 2.274 7.223-.143 2.816-1.256 5.219-3.197 7.24-2.435 2.545-5.474 3.961-8.895 4.614-4.613.89-8.973.174-13.046-2.149-3.182-1.813-5.457-4.407-6.269-8.066-.604-2.737-.064-5.314 1.464-7.669-.08.175-.143.366-.223.541-.954 2.084-1.32 4.264-.843 6.54.573 2.847 2.164 5.059 4.487 6.73 3.802 2.72 8.05 3.611 12.648 2.959 3.167-.446 6.047-1.607 8.48-3.723 3.899-3.39 4.854-8.56 2.387-12.904-.11-.19-.286-.334-.43-.493-.063-.143-.079-.318-.174-.43a13.219 13.219 0 0 0-5.028-4.184c-3.405-1.639-7-1.973-10.692-1.416-.477.064-.938.19-1.495.302.222.318.366.589.557.796.827.859 1.893 1.273 2.99 1.575 1.608.445 3.23.78 4.837 1.21 1.846.508 3.564 1.272 4.917 2.688.509.54.907 1.162 1.416 1.83.795-.7 1.607-1.4 2.418-2.1-.509.525-.97 1.113-1.543 1.543-.668.493-.812.907-.589 1.782.828 3.134-.222 5.791-2.673 7.812-3.086 2.545-6.682 3.055-10.469 2.164-2.912-.684-5.187-2.355-6.555-5.076-.795-1.575-.923-3.245-.286-4.932-.048.493-.16.986-.16 1.496 0 2.927 1.48 5.011 3.915 6.46 2.275 1.352 4.773 1.75 7.366 1.415 2.291-.286 4.36-1.145 5.982-2.864 1.591-1.686 2.244-3.643 1.75-5.95-.063-.27-.174-.541-.254-.843-.636.286-1.177.572-1.75.811-.557.239-1.146.446-1.703.668.175 1.782-.43 3.182-1.893 4.105-2.164 1.368-4.407 1.432-6.635.191-1.368-.764-2.227-1.941-2.195-3.627 0-.128-.175-.303-.318-.366a149.92 149.92 0 0 0-3.708-1.496c-.111-.048-.27.016-.413.016-.096-.16-.175-.366-.319-.446a14.68 14.68 0 0 1-3.261-2.848c-.096-.111-.255-.159-.398-.238-.048-.143-.064-.319-.159-.446-1.56-2.1-2.403-4.455-2.291-7.08.127-3.246 1.495-5.934 3.882-8.066 3.596-3.215 7.908-4.471 12.649-4.28 4.423.175 8.385 1.638 11.615 4.74 2.116 2.037 3.357 4.535 3.484 7.495.096 2.259-.525 4.343-1.83 6.205.032-.08.048-.143.096-.223 1.082-2.068 1.59-4.248 1.225-6.571-.525-3.42-2.45-5.935-5.298-7.748-3.453-2.196-7.255-3.007-11.329-2.53-3.102.35-5.998 1.32-8.464 3.293-3.119 2.498-4.773 5.696-4.28 9.785.175 1.496.748 2.864 1.591 4.137.111-.095.191-.175.286-.255-.174.255-.174.446.032.716 1.687 2.26 3.883 3.803 6.508 4.758 2.338.859 4.757 1.13 7.223.986 1.13-.063 2.244-.27 3.373-.414.032-.08.064-.159.08-.238-.366-.366-.7-.812-1.13-1.098-1.273-.875-2.768-1.21-4.248-1.575-1.496-.382-3.007-.748-4.487-1.225-1.56-.51-2.927-1.369-3.93-2.721-.302-.414-.572-.86-.89-1.336-.637.493-1.242.954-1.83 1.431.477-.46.938-.938 1.448-1.368.254-.207.286-.366.19-.684-.222-.827-.477-1.687-.477-2.53-.016-2.514 1.177-4.47 3.055-6.03 1.718-1.432 3.755-2.164 5.966-2.37 2.96-.271 5.728.222 8.178 2.02 1.734 1.273 2.992 2.912 3.421 5.076.239 1.177.111 2.338-.302 3.5 1.4.875 2.657 1.91 3.707 3.182.063.064.207.016.302.016Zm-4.041-3.341c.27-.875.334-1.83.159-2.785-.461-2.72-2.164-4.502-4.55-5.632-3.373-1.591-6.842-1.623-10.215.016-2.37 1.145-3.993 2.975-4.375 5.68-.143 1.002.016 1.989.382 2.896 1.082-.446 2.084-.891 3.118-1.289.302-.111.398-.239.382-.557-.08-1.432.493-2.577 1.623-3.437 1.416-1.082 3.023-1.4 4.757-1.145 2.482.382 4.455 2.211 4.328 4.487 1.48.604 2.927 1.177 4.39 1.766Zm-.812 7.716c-.35-.493-.62-.938-.954-1.336-1.194-1.432-2.8-2.164-4.519-2.705-1.686-.54-3.42-.986-5.091-1.575-1.512-.541-2.991-1.21-3.644-2.991-1.177.461-2.322.89-3.468 1.336-.016.064-.048.143-.064.207.573.652 1.082 1.384 1.719 1.973 1.288 1.193 2.943 1.718 4.582 2.212 1.336.397 2.705.747 4.025 1.225 1.607.572 3.198 1.225 3.914 3.038.891-.334 1.734-.636 2.594-.97.302-.095.556-.255.907-.414Zm-14 2.196a3.584 3.584 0 0 0 .906 2.498c1.893 2.212 5.426 2.339 7.605.7 1.082-.812 1.64-1.957 1.464-3.437-3.31.891-6.603 1.003-9.976.239Zm10.293-11.758c.016-.684-.286-1.527-.811-2.164-1.432-1.75-4.09-2.354-6.348-1.495-1.305.493-2.228 1.336-2.641 2.673-.128.43-.128.89-.176 1.24 1.735-.206 3.358-.524 4.996-.556 1.64-.048 3.294.19 4.98.302Z"/><path fill="#000000" fill-opacity=".08" d="M32 63C14.88 63 1 49.12 1 32h-2c0 18.225 14.775 33 33 33v-2Zm31-31c0 17.12-13.88 31-31 31v2c18.225 0 33-14.775 33-33h-2ZM32 1c17.12 0 31 13.88 31 31h2C65 13.775 50.225-1 32-1v2Zm0-2C13.775-1-1 13.775-1 32h2C1 14.88 14.88 1 32 1v-2Z"/></svg>