<svg xmlns="http://www.w3.org/2000/svg" width="64" height="64" version="1.1" fill="#000000"><path fill-opacity=".129" d="M 22.005 1.668 C -0.571 9.567, -7.261 37.787, 9.476 54.524 C 26.013 71.061, 54.657 64.511, 62.063 42.500 C 62.803 40.300, 63.766 38.072, 64.204 37.550 C 65.170 36.397, 65.283 24.383, 64.319 25.347 C 63.945 25.722, 62.991 24.112, 62.199 21.769 C 56.644 5.335, 38.071 -3.953, 22.005 1.668 M 21.907 13.327 C 15.138 16.901, 11.639 22.610, 11.203 30.793 C 10.905 36.393, 11.243 38.243, 13.250 42 C 19.590 53.869, 36.315 56.809, 46.521 47.848 C 53.797 41.459, 55.197 28, 49.436 19.822 C 43.397 11.248, 31.265 8.386, 21.907 13.327 M 23.062 14.827 C 19.591 16.689, 16 22.006, 16 25.284 C 16 28.938, 19.162 33.035, 25.087 37.059 C 28.424 39.325, 30.971 41.362, 30.748 41.586 C 30.524 41.809, 27.811 40.622, 24.718 38.947 C 19.246 35.983, 14.065 31.046, 13.937 28.673 C 13.902 28.028, 13.448 28.562, 12.928 29.861 C 11.683 32.970, 13.434 39.508, 16.650 43.759 C 21.937 50.748, 32.943 53.110, 41.019 48.990 C 48.171 45.341, 50.191 36.942, 45.386 30.827 L 42.773 27.500 45.886 30.766 C 47.599 32.562, 49 34.924, 49 36.016 C 49 37.107, 49.450 38, 50 38 C 50.550 38, 51 35.507, 51 32.460 C 51 24.997, 48.207 19.721, 42.258 15.948 C 36.597 12.359, 28.542 11.888, 23.062 14.827 M 28.325 16.413 C 23.774 18.459, 21.620 22.164, 22.441 26.536 C 23.008 29.560, 24.127 30.736, 30.053 34.534 C 36.351 38.571, 37 39.296, 37 42.293 C 37 44.112, 36.460 46.140, 35.800 46.800 C 32.863 49.737, 24.974 46.643, 23.492 41.974 C 22.475 38.771, 21.369 39.717, 21.801 43.420 C 22.322 47.884, 26.109 49.619, 34.327 49.158 C 38.321 48.935, 43 44, 43 40.011 C 43 35.352, 41.603 33.492, 35.466 29.980 C 28.728 26.125, 26.378 23.032, 27.952 20.090 C 30.586 15.169, 35.996 15.520, 39.288 20.826 L 40.947 23.500 40.973 20.309 C 40.988 18.554, 40.620 16.883, 40.155 16.596 C 37.904 15.205, 31.242 15.102, 28.325 16.413 M 0.320 32 C 0.320 35.575, 0.502 37.038, 0.723 35.250 C 0.945 33.462, 0.945 30.538, 0.723 28.750 C 0.502 26.962, 0.320 28.425, 0.320 32" stroke="none" fill="#000000" fill-rule="evenodd"/><path fill-opacity=".28" d="M 23.951 1.303 C 14.895 3.863, 6.679 11.040, 2.687 19.878 C -0.216 26.304, -0.205 37.720, 2.710 44.176 C 5.683 50.759, 12.247 57.484, 18.853 60.716 C 26.180 64.301, 36.966 64.546, 44.176 61.290 C 53.171 57.227, 63 45.257, 63 38.363 C 63 37.128, 63.450 35.840, 64 35.500 C 64.550 35.160, 65 33.082, 65 30.882 C 65 28.470, 64.603 27.127, 64 27.500 C 63.441 27.845, 63 27.076, 63 25.755 C 63 18.856, 53.208 6.749, 44.519 2.905 C 38.845 0.395, 29.684 -0.318, 23.951 1.303 M 25.558 11.248 C 19.567 12.831, 12.610 20.289, 11.047 26.806 C 7.845 40.153, 18.610 54, 32.188 54 C 36.822 54, 43.670 50.923, 47.291 47.213 C 56.135 38.151, 56.018 25.983, 47 16.925 C 40.759 10.657, 34.285 8.943, 25.558 11.248 M 24.415 14.421 C 19.735 16.459, 17 20.552, 17 25.518 C 17 29.998, 18.341 31.625, 28.353 39.293 C 30.359 40.829, 32 42.586, 32 43.198 C 32 43.866, 31.302 43.712, 30.250 42.810 C 29.288 41.985, 25.949 39.878, 22.831 38.128 C 19.713 36.378, 16.233 33.496, 15.098 31.723 L 13.034 28.500 13.017 32.282 C 12.994 37.331, 15.041 41.818, 19.131 45.689 C 23.182 49.523, 26.788 51, 32.097 51 C 42.991 51, 50.940 41.701, 46.899 33.684 C 46.294 32.483, 44.381 30.234, 42.649 28.686 C 40.917 27.138, 40.400 26.314, 41.500 26.854 C 44.554 28.354, 47.995 31.896, 49.265 34.846 L 50.407 37.500 50.781 34.067 C 51.382 28.536, 50.117 24.202, 46.795 20.420 C 40.835 13.631, 31.795 11.208, 24.415 14.421 M 26.775 16.559 C 23.495 18.339, 22 20.891, 22 24.712 C 22 28.394, 24.087 31.291, 28.749 34.080 C 36.984 39.006, 39.008 42.872, 35.171 46.345 C 32.311 48.933, 30.005 48.331, 25.784 43.894 C 23.636 41.636, 21.678 39.989, 21.432 40.234 C 21.187 40.480, 21.281 42.153, 21.641 43.953 C 22.135 46.424, 23.108 47.565, 25.615 48.613 C 31.465 51.057, 35.781 50.226, 40.750 45.701 C 42.409 44.190, 43 42.535, 43 39.402 C 43 34.744, 41.962 33.584, 32.750 27.949 C 28.843 25.560, 28 24.529, 28 22.144 C 28 16.071, 34.852 15.143, 38.591 20.710 C 41.147 24.516, 41.746 24.266, 41.204 19.621 C 40.914 17.137, 40.205 16.021, 38.651 15.604 C 34.910 14.601, 29.597 15.028, 26.775 16.559 M 0.272 32 C 0.272 34.475, 0.467 35.487, 0.706 34.250 C 0.944 33.013, 0.944 30.988, 0.706 29.750 C 0.467 28.512, 0.272 29.525, 0.272 32" stroke="none" fill="#000000" fill-rule="evenodd"/><path fill-opacity=".587" d="M 26.223 1.051 C 11.520 3.986, 0.706 17.162, 0.706 32.141 C 0.706 37.777, 1.255 40.077, 3.873 45.395 C 13.336 64.617, 37.085 69.278, 53.249 55.086 C 57.429 51.416, 63 41.026, 63 36.899 C 63 35.370, 63.450 33.840, 64 33.500 C 64.550 33.160, 65 31.982, 65 30.882 C 65 29.782, 64.550 29.160, 64 29.500 C 63.421 29.858, 63 28.897, 63 27.219 C 63 22.991, 57.480 12.629, 53.249 8.914 C 45.904 2.465, 35.014 -0.703, 26.223 1.051 M 22.015 12.706 C 6.933 20.633, 6.021 41.554, 20.372 50.426 C 34.702 59.286, 52.601 50.043, 53.780 33.173 C 54.613 21.262, 45.471 11.080, 33.173 10.220 C 28.394 9.886, 26.636 10.278, 22.015 12.706 M 26.942 13.897 C 20.326 16.037, 17 19.995, 17 25.728 C 17 29.491, 19.116 32.312, 24.794 36.122 C 30.129 39.700, 32 41.715, 32 43.882 C 32 45.140, 31.798 45.117, 30.750 43.741 C 30.063 42.838, 26.808 40.599, 23.518 38.767 C 20.227 36.934, 16.515 33.920, 15.268 32.069 L 13 28.704 13 31.884 C 13 35.855, 15.405 41.733, 18.298 44.831 C 20.853 47.568, 25.924 50.410, 26.760 49.574 C 27.075 49.258, 26.808 49, 26.167 49 C 23.953 49, 21 45, 21 42 C 21 38.083, 21.984 38.229, 24.790 42.559 C 28.306 47.987, 33.808 49.096, 36.087 44.837 C 37.768 41.696, 36.141 39.065, 30.160 35.253 C 23.072 30.735, 22.071 29.433, 22.032 24.673 C 22.008 21.751, 22.691 20.155, 24.923 17.923 C 27.428 15.418, 28.608 15.002, 33.173 15.015 C 39.804 15.034, 40.920 15.733, 41.666 20.331 C 42.398 24.841, 40.695 25.244, 38.537 21.071 C 35.136 14.495, 26.260 16.943, 28.453 23.852 C 28.776 24.871, 31.169 26.866, 33.770 28.285 C 42.787 33.205, 45.343 37.344, 42.943 43.138 C 42.237 44.842, 40.274 47.082, 38.580 48.115 C 36.886 49.147, 36.175 49.993, 37 49.993 C 39.693 49.993, 44.867 46.158, 46.540 42.923 C 49.071 38.029, 47.785 33.867, 42.215 28.924 C 37.723 24.937, 37.666 24.822, 41 26.490 C 45.599 28.791, 47.985 30.943, 49.327 34 C 50.390 36.422, 50.436 36.380, 50.778 32.666 C 51.267 27.353, 47.570 20.250, 42.500 16.760 C 38.195 13.797, 31.219 12.513, 26.942 13.897 M 0.158 32 C 0.158 33.375, 0.385 33.938, 0.662 33.250 C 0.940 32.563, 0.940 31.438, 0.662 30.750 C 0.385 30.063, 0.158 30.625, 0.158 32 M 30.250 50.689 C 31.212 50.941, 32.788 50.941, 33.750 50.689 C 34.712 50.438, 33.925 50.232, 32 50.232 C 30.075 50.232, 29.288 50.438, 30.250 50.689" stroke="none" fill="#000000" fill-rule="evenodd"/><path fill-opacity=".531" d="M 25.500 1.615 C 13.539 4.464, 4.408 13.693, 1.622 25.750 C 0.364 31.194, 0.363 32.806, 1.618 38.250 C 4.428 50.434, 13.547 59.558, 25.728 62.373 C 31.168 63.630, 32.769 63.627, 38.388 62.345 C 50.161 59.660, 59.725 50.304, 62.111 39.140 C 62.774 36.038, 63.695 33.072, 64.158 32.550 C 65.234 31.335, 65.257 29.723, 64.188 30.384 C 63.742 30.660, 62.840 28.288, 62.184 25.113 C 60.731 18.075, 55.961 11.043, 49.549 6.484 C 45.570 3.656, 42.381 2.504, 33 0.506 C 32.175 0.330, 28.800 0.829, 25.500 1.615 M 22.252 12.104 C 5.422 20.435, 6.016 45.261, 23.218 52.447 C 27.978 54.435, 36.022 54.435, 40.782 52.447 C 58.418 45.080, 58.418 18.920, 40.782 11.553 C 35.458 9.329, 27.373 9.569, 22.252 12.104 M 25 14.704 C 22.132 15.747, 18.093 20.299, 17.455 23.207 C 16.432 27.865, 18.748 31.754, 25.123 36.084 C 30.612 39.811, 33.828 43.505, 32.629 44.705 C 32.335 44.998, 31.356 44.499, 30.453 43.596 C 29.550 42.692, 27.457 41.253, 25.802 40.398 L 22.794 38.842 24.647 42.009 C 26.897 45.855, 29.222 47.225, 32.799 46.812 C 35.102 46.546, 35.544 45.974, 35.799 42.935 C 36.085 39.531, 35.793 39.170, 29.311 34.935 C 24.037 31.488, 22.316 29.753, 21.589 27.150 C 20.309 22.566, 22.995 17.636, 27.877 15.608 C 30.993 14.314, 31.150 14.107, 29 14.130 C 27.625 14.146, 25.825 14.404, 25 14.704 M 35.813 14.683 C 36.534 14.972, 37.397 14.936, 37.729 14.604 C 38.061 14.272, 37.471 14.036, 36.417 14.079 C 35.252 14.127, 35.015 14.364, 35.813 14.683 M 41.841 20.132 C 42.120 23.055, 41.847 24, 40.722 24 C 39.903 24, 39.010 23.146, 38.737 22.102 C 38.464 21.058, 37.061 19.431, 35.620 18.487 C 33.185 16.891, 32.824 16.885, 30.500 18.408 C 25.837 21.463, 27.297 24.263, 36.204 29.346 C 38.791 30.822, 41.604 33.024, 42.454 34.238 C 44.849 37.657, 44.381 42.394, 41.284 46.074 C 39.187 48.566, 39.016 49.060, 40.534 48.242 C 49.503 43.412, 49.521 34.146, 40.575 27.840 C 38.076 26.078, 36.205 24.462, 36.418 24.248 C 37.281 23.386, 44.919 28.116, 47.374 31.033 L 50 34.153 50 30.463 C 50 26.299, 46.667 19.667, 43.547 17.623 C 41.555 16.318, 41.487 16.418, 41.841 20.132 M 13.006 31.367 C 13.029 36.163, 18.533 47, 20.946 47 C 21.410 47, 21.442 45.460, 21.017 43.577 C 20.593 41.695, 20.536 39.782, 20.892 39.327 C 21.247 38.872, 19.617 36.640, 17.269 34.367 C 14.921 32.094, 13.003 30.744, 13.006 31.367" stroke="none" fill="#000000" fill-rule="evenodd"/></svg>