<svg xmlns="http://www.w3.org/2000/svg" width="64" height="64" version="1.1" fill="#000000"><path fill-opacity=".263" d="M 25.316 9.554 L 19.762 15.107 15.203 13.554 C 12.695 12.699, 9.160 12, 7.348 12 C 4.642 12, 3.751 12.581, 2.375 15.242 C 1.453 17.025, 0.486 21.446, 0.227 25.067 C -0.751 38.745, 5.445 49.883, 17.437 56 C 23.520 59.103, 25.172 59.500, 32 59.500 C 38.828 59.500, 40.480 59.103, 46.563 56 C 54.514 51.945, 59.646 45.978, 62.929 36.974 C 65.086 31.060, 65.846 19.359, 64 20.500 C 63.450 20.840, 63 20.394, 63 19.509 C 63 18.625, 62.313 16.573, 61.474 14.950 C 59.671 11.463, 56.090 11.068, 48.797 13.554 L 44.238 15.107 38.684 9.554 C 35.630 6.499, 32.622 4, 32 4 C 31.378 4, 28.370 6.499, 25.316 9.554 M 0.328 27.500 C 0.333 31.350, 0.513 32.802, 0.730 30.728 C 0.946 28.653, 0.943 25.503, 0.722 23.728 C 0.501 21.952, 0.324 23.650, 0.328 27.500" stroke="none" fill="#000000" fill-rule="evenodd"/><path fill-opacity=".111" d="M 26.893 8.250 C 24.969 10.038, 22.677 12.548, 21.799 13.828 C 20.235 16.109, 20.135 16.121, 16.905 14.451 C 15.092 13.513, 11.373 12.691, 8.641 12.623 L 3.673 12.500 1.732 18 C -4.420 35.438, 7.559 55.363, 26.302 58.864 C 28.886 59.347, 31 59.574, 31 59.368 C 31 59.163, 29.175 57.346, 26.945 55.331 C 22.226 51.068, 18.479 44.970, 17.523 40 C 17.153 38.075, 16.629 35.712, 16.358 34.750 C 15.486 31.652, 18.008 32.875, 22.946 37.944 L 27.762 42.889 28.897 37.194 C 29.522 34.062, 30.475 30.825, 31.016 30 C 31.891 28.667, 32.110 28.667, 32.991 30 C 33.537 30.825, 34.515 34.031, 35.165 37.124 L 36.348 42.747 41.222 37.874 C 43.902 35.193, 46.496 33, 46.985 33 C 47.474 33, 47.620 34.688, 47.308 36.750 C 46.299 43.434, 42.925 49.796, 37.892 54.504 C 35.202 57.021, 33 59.229, 33 59.411 C 33 60.065, 41.927 58.057, 45.317 56.641 C 49.575 54.862, 56.262 48.931, 58.995 44.509 C 62.019 39.615, 64.947 30.103, 64.975 25.083 C 64.989 22.654, 64.698 20.969, 64.328 21.338 C 63.959 21.708, 62.946 19.870, 62.078 17.255 L 60.500 12.500 55.446 12.623 C 52.666 12.691, 48.908 13.513, 47.095 14.451 C 43.865 16.121, 43.765 16.109, 42.201 13.828 C 39.646 10.102, 33.751 5, 32 5 C 31.115 5, 28.817 6.462, 26.893 8.250 M 0.300 27 C 0.300 30.025, 0.487 31.263, 0.716 29.750 C 0.945 28.238, 0.945 25.763, 0.716 24.250 C 0.487 22.738, 0.300 23.975, 0.300 27" stroke="none" fill="#000000" fill-rule="evenodd"/><path fill-opacity=".156" d="M 25.403 10.379 L 20.193 15.758 14.847 13.912 C 6.483 11.023, 4.485 11.326, 2.728 15.750 C -3.179 30.630, 2.863 47.709, 16.698 55.239 C 19.402 56.711, 23.468 58.211, 25.735 58.574 L 29.857 59.233 25.048 54.244 C 19.741 48.738, 15.685 39.700, 16.222 34.578 L 16.544 31.500 22.272 37.229 C 27.849 42.806, 28 42.884, 28 40.157 C 28 36.742, 30.876 28, 32 28 C 33.150 28, 36 36.777, 36 40.319 L 36 43.282 40.102 38.621 C 42.358 36.058, 45.127 33.467, 46.255 32.863 C 48.231 31.806, 48.284 31.955, 47.696 36.919 C 46.933 43.361, 42.838 51.010, 37.637 55.709 L 33.649 59.312 38.018 58.613 C 51.074 56.525, 63 43.469, 63 31.263 C 63 29.264, 63.409 28.135, 64 28.500 C 64.583 28.861, 65 27.844, 65 26.059 C 65 24.377, 64.550 23, 64 23 C 63.450 23, 63 22.334, 63 21.520 C 63 20.706, 62.276 18.231, 61.391 16.020 C 59.507 11.311, 57.638 10.981, 49.249 13.879 L 43.998 15.693 38.651 10.347 C 35.710 7.406, 32.699 5, 31.959 5 C 31.219 5, 28.269 7.421, 25.403 10.379 M 0.232 27 C 0.232 28.925, 0.438 29.712, 0.689 28.750 C 0.941 27.788, 0.941 26.212, 0.689 25.250 C 0.438 24.288, 0.232 25.075, 0.232 27" stroke="none" fill="#000000" fill-rule="evenodd"/><path fill-opacity=".255" d="M 27.168 8.588 C 20.314 14.455, 20.287 14.983, 26.530 21.226 L 32 26.696 37.470 21.226 C 41.790 16.906, 42.747 15.396, 42.022 14.042 C 40.914 11.970, 33.324 5, 32.177 5 C 31.728 5, 29.474 6.615, 27.168 8.588 M 3.266 14.316 C 2.638 15.694, 1.832 18.549, 1.475 20.661 C 1.118 22.772, 0.630 25.224, 0.390 26.108 C 0.047 27.377, 1.003 27.840, 4.924 28.305 C 7.657 28.628, 11.267 29.604, 12.946 30.472 C 15.995 32.049, 16 32.047, 16.044 29.276 C 16.083 26.828, 17.179 23.129, 19.422 17.881 C 19.947 16.651, 19.144 15.875, 16.072 14.646 C 13.849 13.756, 10.316 12.754, 8.219 12.419 C 4.836 11.878, 4.280 12.091, 3.266 14.316 M 50.230 13.886 C 47.332 14.887, 44.711 15.955, 44.407 16.260 C 44.102 16.565, 44.568 18.198, 45.443 19.890 C 46.318 21.581, 47.306 24.952, 47.639 27.381 L 48.244 31.796 51.779 30.319 C 53.723 29.507, 57.153 28.528, 59.401 28.144 C 63.453 27.453, 63.485 27.412, 63.149 23.505 C 62.962 21.337, 62.128 17.862, 61.296 15.782 C 59.536 11.383, 58.159 11.147, 50.230 13.886" stroke="none" fill="#000000" fill-rule="evenodd"/></svg>