<svg width="329" height="500" viewBox="0 0 329 500" fill="#000000" xmlns="http://www.w3.org/2000/svg">
<path fill-rule="evenodd" clip-rule="evenodd" d="M109.136 61.4763C11.3863 162.686 2.86166 175.466 0.286906 224.654C-3.17062 290.765 24.4955 338.049 90.1591 378.26C90.6035 378.533 93.6402 388.403 96.9065 400.194C110.569 449.491 152.627 510.784 164.28 498.379C167.119 495.356 181.879 479.608 197.078 463.382C212.276 447.16 241.057 416.704 261.035 395.703C318.4 335.407 331.192 308.968 328.446 256.393C325.607 202.096 300.677 160.95 252.03 130.277C237.806 121.308 236.299 119.263 232.907 104.32C225.73 72.7288 182.453 0 170.827 0C169.553 0 141.793 27.6632 109.136 61.4763ZM175.806 83.1278C201.595 139.92 195.209 174.892 148.64 231.931C124.146 261.928 108.686 285.945 100.935 306.028C93.596 325.043 93.343 325.09 77.8915 310.283C56.0282 289.335 48.1568 269.514 48.1568 235.406C48.1568 198.512 54.3509 187.222 101.362 138.422C120.912 118.124 143.329 94.5686 151.173 86.0704C168.376 67.4351 168.664 67.3997 175.806 83.1278ZM259.29 198.624C282.301 223.271 288.559 278.418 271.793 308.762C263.654 323.492 166.622 429.616 161.293 429.616C160.06 429.616 154.625 419.353 149.214 406.811C128.61 359.05 137.482 319.502 180.352 267.989C203.169 240.576 218.314 217.115 226.336 196.761C229.696 188.243 233.165 180.103 234.048 178.673C235.546 176.252 246.448 184.87 259.29 198.624Z" fill="#000000"/>
</svg>
