<svg xmlns="http://www.w3.org/2000/svg" width="200" height="200" fill="#000000"><path fill-opacity=".337" fill-rule="evenodd" d="M0 100.005V200.01l100.25-.255 100.25-.255.255-99.75L201.01 0H0zm.481.495c0 55 .121 77.647.269 50.326.148-27.32.148-72.32 0-100C.602 23.147.481 45.5.481 100.5m119.481-45.69c-2.527.78-4.962 3.425-4.962 5.39 0 1.04 1.101 2.992 2.446 4.337 2.291 2.291 2.914 2.407 9.82 1.823 4.849-.41 8.12-.224 9.554.544 1.636.875 2.18.879 2.18.015 0-1.515-7.887-8.919-9.501-8.919-.69 0-1.773-.625-2.407-1.389-1.299-1.565-4.926-2.481-7.13-1.801M58.5 60.666c-1.65.872-4.33 2.919-5.957 4.55l-2.956 2.964 2.322 1.752c2.076 1.565 2.905 1.616 7.803.478C66.011 68.945 69 66.683 69 63.38c0-4.178-5.192-5.52-10.5-2.714M40.414 73.289c-2.153 1.078-5.417 7.392-5.41 10.468.002.959.895 3.206 1.985 4.993C38.55 91.309 39.64 92 42.121 92c8.337 0 12.189-14.72 4.845-18.517-3.206-1.659-3.601-1.67-6.552-.194m85.372-.002c-1.76.696-3.276 2.481-4.317 5.081-1.478 3.696-1.474 4.295.058 7.691 1.248 2.769 2.604 3.994 5.468 4.939 11.584 3.823 18.421-12.873 7.192-17.564-3.896-1.628-4.627-1.641-8.401-.147M75.73 92.427c-2.074 1.231-4.636 3.168-5.694 4.304s-2.287 2.223-2.73 2.417C65.419 99.972 54 115.258 54 116.96c0 2.295-2.37.697-9.636-6.499-8.567-8.484-12.619-11.124-14.093-9.185-8.785 11.559-2.894 30.582 14.729 47.56 9.149 8.815 19.024 12.272 35.5 12.43 11.918.114 27.482-2.179 36.339-5.353 2.936-1.052 6.086-1.923 7-1.935s2.786-.902 4.161-1.978 3.072-1.966 3.771-1.978c1.313-.023 8.715-4.558 11.05-6.77.727-.689 1.659-1.252 2.071-1.252 1.292 0 13.011-12.12 13.642-14.108.331-1.041.968-1.892 1.417-1.892s1.042-.864 1.318-1.919c.576-2.202-1.688-4.408-8.173-7.966-3.761-2.063-5.239-2.309-10.971-1.825-3.644.308-7.975 1.266-9.625 2.129s-3.787 1.571-4.75 1.575c-.963.003-1.75.384-1.75.845 0 .697-4.25 3.161-5.45 3.161-.196 0-2.014-3.263-4.039-7.25-3.436-6.764-8.959-14.529-12.488-17.556-.838-.718-3.524-2.631-5.969-4.25-3.92-2.596-5.279-2.933-11.5-2.85-5.397.072-7.94.62-10.824 2.333m-4.491 6.194c-4.493 1.971-2.795 9.078 2.714 11.359 1.676.695 3.081 1.546 3.124 1.891.273 2.245.849 4.389 1.301 4.841 1.241 1.24 5.785-.975 6.865-3.347 1.069-2.346 1.562-2.526 5.443-1.995 5.844.802 7.314.04 7.314-3.79 0-2.271-.893-4.062-3.063-6.143-2.916-2.795-3.531-2.947-12.75-3.153-5.328-.119-10.255.033-10.948.337M84.5 130.118c-6.6.339-13.958.384-16.352.1-3.876-.461-4.312-.31-3.985 1.382.348 1.798 1.549 1.9 22.352 1.9 12.092 0 22.456.308 23.033.684 1.597 1.043 3.599-.638 2.907-2.44-.757-1.973-10.361-2.532-27.955-1.626"/><path fill-opacity=".142" fill-rule="evenodd" d="M0 100.005V200.01l100.25-.255 100.25-.255.255-99.75L201.01 0H0zm.481.495c0 55 .121 77.647.269 50.326.148-27.32.148-72.32 0-100C.602 23.147.481 45.5.481 100.5M138.75 18.48c-2.613 2.49-4.75 4.96-4.75 5.488s-.9 1.443-2 2.032-2 1.505-2 2.035-.935 1.9-2.077 3.042c-1.143 1.143-1.823 2.741-1.512 3.552s.202 1.25-.244.974c-.981-.606-4.158 2.926-4.189 4.658-.012.682-.808 2.26-1.768 3.507l-1.746 2.269-7.892-2.019C104.526 42.472 99.449 42 88.867 42c-12.509 0-14.18.213-17.693 2.25-6.341 3.677-9.454 6.578-8.823 8.221.317.828.256 1.457-.137 1.399-1.961-.293-2.984.329-3.919 2.38-.565 1.237-2.688 4.425-4.718 7.083l-3.69 4.833 2.481 2.299c1.365 1.265 3.047 4.187 3.738 6.494 1.074 3.584.99 5.311-.575 11.867-1.007 4.221-2.687 9.202-3.732 11.069-1.046 1.866-1.659 4.027-1.362 4.801.297.775.097 1.134-.444.8-.541-.335-2.05.542-3.353 1.948-2.954 3.186-3.672 3.213-3.417.128.111-1.335.53-2.225.932-1.976.841.519 5.119-8.655 4.381-9.394-.269-.268-.741.168-1.049.971-.435 1.133-1.613 1.309-5.273.785-2.593-.37-5.523-1.019-6.512-1.441-2.193-.937-3.827.906-7.373 8.316-5.061 10.577-1.532 23.322 10.501 37.92 6.098 7.398 15.02 13.944 22.383 16.423 16.461 5.541 53.425.872 70.787-8.942a666 666 0 0 1 6.509-3.639c7.287-3.971 16.536-12.444 20.757-19.015 2.958-4.604 3.152-5.469 3.033-13.5-.101-6.865-.723-10.179-3.114-16.58-5.106-13.675-5.651-14.964-6.869-16.256-.652-.691-1.483-2.195-1.848-3.344-.926-2.917-6.017-10.296-9.526-13.804-4.086-4.086-3.8-5.481.735-3.587 2.85 1.191 3.847 1.261 4.434.312.416-.674.535-1.584.264-2.023s-.071-.798.445-.798c2.16 0 6.217-17.053 6.1-25.643-.044-3.221-.832-8.557-1.75-11.857-1.532-5.505-1.918-6.023-4.67-6.274-2.387-.217-3.971.652-7.75 4.254m-7.26 1.536c-.346.559-.972.804-1.392.544-.421-.259-.765.185-.765.988 0 1.208.317 1.174 1.834-.199 1.821-1.648 2.237-2.349 1.392-2.349-.243 0-.724.457-1.069 1.016m-89.452 9.373C43.055 37.882 48.735 58 50.115 58c.434 0 .125-2.138-.687-4.75-2.73-8.782-4.659-16.728-4.794-19.75-.123-2.75.165-3.025 3.458-3.301 3.07-.257 3.951.18 6.053 3 3.973 5.33 6.922 10.884 6.308 11.878-.314.508-.094.923.488.923S62 45.54 62 44.979c0-.562 1.125-1.534 2.5-2.161 1.375-.626 2.5-1.543 2.5-2.038s-.52-.577-1.155-.185c-.745.461-.881.273-.385-.531 1.888-3.055-10.953-12.364-20.497-14.86l-3.538-.925zm95.092 2.269c-3.704 3.779-7.035 7.651-7.401 8.606S128.599 42 128.031 42c-.567 0-1.031 1.184-1.031 2.632 0 2.94 3.583 9.368 5.221 9.368.582 0 1.591.728 2.242 1.618.65.89 2.95 2.233 5.11 2.985 4.711 1.64 5.747 1.723 4.927.397-.34-.55-.194-1 .324-1 1.056 0 2.487-3.775 2.218-5.85-.097-.743.192-1.124.641-.846.856.529.994-.672 1.3-11.304.199-6.935-1.635-14.069-3.8-14.779-.725-.238-4.349 2.659-8.053 6.437M122.5 67.995c-7.471 3.724-10.386 13.336-7.43 24.505 1.892 7.151 5.556 13.5 7.79 13.5 1.529 0 1.474-.311-.988-5.549-1.968-4.188-1.879-7.698.114-4.474.563.912 3.227 1.569 7.446 1.838l6.568.418V114h11.758l.99-6.75c.976-6.656-.382-23.019-2.427-29.25-1.093-3.33-4.562-9-5.505-9-.414 0-.5-.787-.19-1.75.438-1.362.344-1.443-.424-.365-.791 1.11-1.634 1.16-4.244.25-4.763-1.66-8.936-1.393-13.458.86m-82.059 5.14c-3.35 1.627-5.794 7.197-5.177 11.799.9 6.704 5.534 9.48 10.716 6.419 5.754-3.4 6.73-15.797 1.433-18.211-2.961-1.349-4.205-1.35-6.972-.007m84.726.347C122.617 74.887 120 79.201 120 82c0 2.434 2.385 6.819 4.635 8.524 4.022 3.046 12.043 1.117 14.179-3.409 2.122-4.498 1.465-8.682-1.891-12.038-3.364-3.364-7.522-3.928-11.756-1.595m20.912 10.101c.048 1.165.285 1.402.604.605.289-.722.253-1.585-.079-1.917s-.568.258-.525 1.312M72.252 98.706c-2.346.451-3.921 4.108-2.908 6.749.308.803 2.382 2.609 4.608 4.015 2.961 1.869 4.048 3.223 4.048 5.043 0 3.52 3.365 3.265 6.122-.464 2.761-3.735 4.083-4.222 7.871-2.902 8.323 2.902 7.733-7.559-.677-11.995-2.072-1.092-14.233-1.377-19.064-.446m114.827 17.877c.048 1.165.285 1.402.604.605.289-.722.253-1.585-.079-1.917s-.568.258-.525 1.312M64.346 131.25c-.255.412-.146 1.264.242 1.892.508.822 3.82.925 11.809.369 14.854-1.035 16.669-1.039 26.954-.061 8.385.797 8.832.742 8.483-1.054s-1.593-1.896-23.697-1.896c-12.83 0-23.536.338-23.791.75m111.526 15.5c-1.243 1.586-1.208 1.621.378.378 1.666-1.307 2.195-2.128 1.372-2.128-.207 0-.995.787-1.75 1.75m-82.059 23.933c.721.289 1.584.253 1.916-.079s-.258-.568-1.312-.525c-1.165.048-1.402.285-.604.604"/><path fill-opacity=".511" fill-rule="evenodd" d="M0 100.005V200.01l100.25-.255 100.25-.255.255-99.75L201.01 0H0zm.481.495c0 55 .121 77.647.269 50.326.148-27.32.148-72.32 0-100C.602 23.147.481 45.5.481 100.5M80 13.087c-4.675 1.049-9.694 2.583-11.154 3.41s-3.485 1.513-4.5 1.525S61.375 18.924 60 20s-3.062 1.966-3.75 1.978c-2.329.041-1.266 1.786 2.044 3.357C62.046 27.116 70 34.779 70 36.614c0 1.851 1.784 2.089 8.43 1.124 3.338-.485 13.325-.587 22.191-.227 18.384.748 16.191 1.575 25.365-9.564 2.468-2.996 4.718-5.672 5-5.947 3.105-3.021 3.083-3.819-.148-5.431-10.591-5.283-35.27-6.974-50.838-3.482m64 .628c-1.473.528-14 12.872-14 13.796 0 .259-1.562 2.519-3.472 5.02-1.91 2.502-4.231 6.147-5.158 8.101-.927 1.953-2.299 3.787-3.05 4.076s-4.261-.204-7.798-1.092C106.041 42.49 99.595 42 89.28 42c-12.899 0-15.291.258-18.541 2-4.156 2.227-12.725 10.807-12.733 12.75-.003.688-.427 1.25-.942 1.25s-1.948 1.8-3.184 4-2.615 4-3.064 4-.816.9-.816 2 .603 2 1.339 2c1.381 0 3.252 3.311 4.758 8.418.973 3.301-1.098 13.223-4.296 20.582-2.336 5.377-7.332 11.567-8.201 10.162-.34-.55-.034-1.6.681-2.331 1.465-1.5 5.688-10.152 5.204-10.662-.172-.182-1.223.155-2.334.75-2.83 1.515-8.29 1.291-10.569-.434-2.545-1.926-3.93-.719-7.664 6.677-4.434 8.784-4.141 15.729 1.111 26.28 7.845 15.762 20.113 26.781 33.971 30.512 7.401 1.992 10.051 2.218 20.5 1.747 12.7-.573 29.779-3.552 36.169-6.309 10.367-4.474 17.331-7.941 17.331-8.629 0-.42.484-.763 1.075-.763 2.366 0 14.418-10.198 18.497-15.653 4.862-6.499 6.161-12.148 4.948-21.516-.949-7.328-6.221-22.831-7.764-22.831-.416 0-.756-.839-.756-1.865s-.9-3.009-2-4.408c-1.1-1.398-2-3.259-2-4.135S149.58 74 149.067 74s-1.218-.899-1.566-1.998-2.639-4.09-5.088-6.647c-2.45-2.556-4.234-4.867-3.965-5.136.268-.269 1.867.083 3.552.781s3.186 1.096 3.335.885C149.67 55.722 153 43.044 153 32.698c0-5.663-1.838-15.483-3.43-18.324-.338-.603-4.388-1.082-5.57-.659M41.541 28.25c.632 4.755 3.725 17.556 6.14 25.417 1.719 5.596 2.931 5.935 5.548 1.552 2.064-3.456 7.324-9.059 11.544-12.295l3.273-2.511-3.635-4.246c-3.652-4.266-9.553-7.834-17.587-10.632-5.931-2.066-5.919-2.072-5.283 2.715M157 37.991c0 6.307-3.206 21.765-5.165 24.901-.838 1.342-.348 2.866 2.3 7.157 4.662 7.552 6.407 10.669 9.212 16.451 4.653 9.589 5.753 12.813 7.195 21.081 1.293 7.415 1.28 9.064-.122 15.11-.866 3.732-1.927 7.016-2.358 7.298-.43.281-1.555 2.018-2.499 3.859-5.786 11.29-32.156 28.872-48.239 32.163A721 721 0 0 0 106 168.464c-4.005.903-11.874 1.471-20.5 1.48-15.815.016-27.725-2.396-35-7.086-4.777-3.08-16.5-14.21-16.5-15.665 0-.564-.356-1.176-.791-1.36-1.225-.516-7.209-9.781-7.209-11.161 0-.675-.671-2.185-1.491-3.355-2.085-2.978-3.456-13.938-2.618-20.938.642-5.363 5.121-15.28 7.322-16.212.433-.184.787-4.06.787-8.615 0-6.768.366-8.747 2-10.825 1.1-1.398 2-3.034 2-3.635 0-.6.62-1.092 1.378-1.092s1.937-.675 2.622-1.5 1.977-1.507 2.872-1.515c3.753-.036 4.556-1.562 2.786-5.293C42.746 59.77 42 57.495 42 56.636s-.9-3.845-2-6.636-2-6.606-2-8.478c0-6.597-2.068-5.446-10.667 5.939C23.06 53.12 14 70.477 14 73.006c0 .651-.941 4.283-2.092 8.071-1.816 5.978-2.043 8.838-1.717 21.655.268 10.554.897 16.48 2.204 20.768 1.942 6.372 5.132 14.69 6.903 18 .588 1.1 1.671 3.19 2.407 4.645.735 1.454 2.002 3.197 2.816 3.872.813.675 1.481 1.735 1.483 2.355.003.621 2.529 3.957 5.613 7.415 4.898 5.49 8.847 9.008 18.548 16.521 3.768 2.918 16.646 8.733 25.309 11.429 7.175 2.232 9.775 2.499 24.526 2.518 14.36.018 17.274-.257 22.465-2.117 3.281-1.176 6.567-2.138 7.302-2.138 1.981 0 17.406-7.853 19.797-10.079 1.136-1.056 2.393-1.921 2.794-1.921 1.035 0 8.399-6.697 13.133-11.943 2.205-2.443 4.909-5.419 6.009-6.613s2.655-3.245 3.455-4.558C177.896 146.064 186 129.06 186 127.711c0-.765.9-4.91 2-9.211 4.205-16.441 1.033-41.208-7.299-57C175.16 51 172.254 46.878 165 39.234c-7.982-8.412-8-8.415-8-1.243m-34.174 30.264c-2.021 1.235-4.721 3.59-6 5.233-2.055 2.641-2.303 3.955-2.13 11.288.121 5.14.787 9.486 1.75 11.416.855 1.713 1.554 3.516 1.554 4.005 0 .49 1.125 2.104 2.5 3.586 3.08 3.322 3.26 1.49.46-4.682-2.29-5.048-1.897-6.258 1.142-3.512 2.88 2.604 13.752 2.7 16.308.144.953-.953 2.038-1.736 2.411-1.74s1.746-1.573 3.05-3.488c1.995-2.93 2.304-4.403 1.951-9.289-.503-6.957-2.635-10.211-8.599-13.126-5.501-2.689-9.807-2.639-14.397.165m-82.314 4.958c-6.915 4.009-8.073 12.964-2.321 17.953 2.774 2.406 5.238 2.316 8.804-.32 3.373-2.494 4.468-6.272 3.565-12.296-.487-3.246-1.239-4.538-3.147-5.408-3.099-1.412-4.365-1.399-6.901.071m82.565 1.864C116.495 81.659 120.818 92 130.152 92c4.488 0 7.537-1.983 9.4-6.115 1.669-3.702 1.669-4.068 0-7.77-3.096-6.864-11.161-8.352-16.475-3.038M72.798 98.712c-5.466.833-4.774 7.015 1.207 10.791 2.196 1.387 3.986 3.375 4.171 4.634.516 3.51 2.593 3.317 6.025-.56 3.038-3.432 3.4-3.566 7.974-2.959 3.907.518 4.907.332 5.422-1.009 1.067-2.781-1.521-7.198-5.542-9.458-3.742-2.103-11.231-2.663-19.257-1.439m-7.796 33.689c-.002 1.798.554 1.857 10.248 1.08 13.716-1.1 19.772-1.121 29-.102 6.702.74 7.75.646 7.75-.694 0-2.561-3.172-2.874-25.56-2.522-20.278.319-21.436.44-21.438 2.238"/><path fill-opacity=".591" fill-rule="evenodd" d="M0 100.005V200.01l100.25-.255 100.25-.255.255-99.75L201.01 0H0zm.481.495c0 55 .121 77.647.269 50.326.148-27.32.148-72.32 0-100C.602 23.147.481 45.5.481 100.5M86.5 11.415c-3.3.744-8.025 1.778-10.5 2.298-2.475.519-6.3 1.734-8.5 2.698-9.652 4.229-13.47 6.131-13.484 6.718-.009.345 1.283 1.166 2.87 1.824C59.655 26.1 68.417 34.007 70.5 37.238c.847 1.314 2.456 1.437 10.5.802 5.225-.412 15.35-.405 22.5.015l13 .763 4.5-4.674c6.268-6.512 13-14.735 13-15.881 0-.528-1.687-1.65-3.75-2.495-11.318-4.634-32.954-6.786-43.75-4.353m53.261 5.335c-2.406 2.063-5.7 5.467-7.318 7.566-1.619 2.099-3.73 4.561-4.693 5.472S126 32.019 126 32.722s-.338 1.279-.75 1.28-2.043 2.477-3.623 5.5S118.442 45 118.059 45s-3.14-.734-6.127-1.631c-3.984-1.196-9.854-1.663-22.014-1.75L73.335 41.5l-4.07 2.819C64.718 47.467 58 54.378 58 55.907c0 .546-.567 1.353-1.26 1.793C54.956 58.833 50 66.679 50 68.372c0 .778.661 1.668 1.468 1.978C53.327 71.063 56 77.369 56 81.041c0 4.024-2.914 14.866-5.096 18.959-2.038 3.824-6.891 9.965-6.899 8.73-.003-.423 1.102-2.523 2.455-4.667s2.763-5.101 3.132-6.574l.672-2.677-3.082 1.594c-4.054 2.096-5.993 2.007-10.045-.464-1.849-1.127-3.464-1.913-3.588-1.746s-1.929 3.103-4.011 6.524c-3.775 6.202-3.784 6.246-3.296 15 .308 5.532 1.142 10.075 2.253 12.28 3.569 7.081 10.569 16.614 15.223 20.73 8.655 7.656 10.699 8.883 18.699 11.219 7.228 2.111 9.189 2.26 22.5 1.72 15.401-.625 28.058-2.862 37.583-6.645 2.541-1.008 14.355-6.809 17.016-8.354 7.142-4.147 18.849-15.093 19.991-18.693.345-1.087.986-1.977 1.424-1.977s1.347-2.597 2.02-5.77c1.029-4.85.966-7.021-.395-13.611-.89-4.312-2.28-9.118-3.088-10.68-.807-1.562-1.468-3.331-1.468-3.931 0-1.137-5.112-12.04-7.264-15.492-4.325-6.939-7.101-10.729-9.97-13.615-2.237-2.251-2.636-3.019-1.266-2.44 1.1.464 3.052.888 4.337.942 7.204.3 12.602-29.211 7.75-42.362-2.699-7.313-5.364-7.83-11.826-2.291m-99.314 8.836c.411 1.603 1.105 5.4 1.542 8.438s1.519 7.255 2.403 9.372 1.641 5.031 1.682 6.476.855 4.397 1.81 6.56l1.736 3.932 5.673-6.932c3.12-3.813 7.243-8.057 9.162-9.432s3.502-3.006 3.517-3.624c.043-1.722-5.996-7.815-10.472-10.568-2.2-1.353-6.275-3.194-9.055-4.09-2.78-.897-5.884-1.949-6.899-2.339-1.622-.622-1.755-.355-1.099 2.207m116.247 8.915c.725 4.467-2.44 21.841-4.872 26.744l-1.857 3.745 2.758 4.255c1.517 2.34 3.04 4.48 3.385 4.755 1.016.81 9.389 17.989 11.931 24.48 1.881 4.8 2.354 7.957 2.402 16 .066 11.212-1.085 14.317-8.848 23.866-3.759 4.624-16.599 15.629-18.29 15.676-.441.012-1.928.902-3.303 1.978s-3.287 1.966-4.25 1.978-1.75.417-1.75.901c0 .483-1.463 1.42-3.25 2.083a161 161 0 0 0-6.616 2.66c-1.851.801-9.051 2.603-16 4.005-25.154 5.075-51.787 1.242-62.757-9.033-.642-.602-2.565-2.214-4.272-3.583S38 151.955 38 151.261 37.541 150 36.98 150c-1.49 0-9.328-12.5-12.364-19.72-3.581-8.515-3.752-21.419-.366-27.644 1.238-2.275 2.525-4.361 2.86-4.636 2.394-1.96 3.733-7.117 3.198-12.306C29.751 80.298 31.203 74 33.005 74c.419 0 .997-.9 1.285-2s1.24-2 2.116-2S38 69.555 38 69.012c0-.544 1.8-1.276 4-1.628s4-1.05 4-1.552c0-.501-.9-2.676-2-4.832s-2.011-4.726-2.025-5.71c-.013-.985-.913-4.447-2-7.695S38 40.409 38 38.845c0-3.865-1.187-3.58-5.146 1.233-1.845 2.243-4.142 4.818-5.104 5.722S26 47.95 26 48.567c0 .618-.9 1.938-2 2.933s-2 2.346-2 3.002-.9 2.23-2 3.498-2 3.037-2 3.931c0 .893-.602 2.512-1.337 3.596s-2.535 5.864-4 10.619c-2.408 7.817-2.663 10.168-2.666 24.5-.003 13.093.364 17.16 2.105 23.354 4.721 16.798 12.454 29.941 24.538 41.707C43.068 171.965 51.024 178 52.847 178c.542 0 1.136.379 1.32.842.559 1.413 10.877 6.189 19.333 8.951 7.397 2.415 9.357 2.614 26 2.648 19.07.039 23.266-.724 36.5-6.633 4.214-1.882 5.382-2.466 10.5-5.251 7.055-3.839 15.688-11.436 22.842-20.099 7.767-9.408 7.353-8.833 9.082-12.606.845-1.843 1.94-4.027 2.435-4.852 2.144-3.579 4.525-10.122 6.732-18.5 2.939-11.154 3.342-30.642.818-39.5-.863-3.025-1.912-7.075-2.332-9-1.236-5.657-8.51-20.047-13.467-26.642C167.829 40.997 158.223 31 156.893 31c-.422 0-.512 1.575-.199 3.501m-32.822 33.717c-5.528 2.596-9.396 8.687-9.234 14.539.185 6.662 2.384 14.877 5.106 19.075 3.374 5.204 4.128 4.601 1.37-1.096-2.502-5.17-2.645-6.736-.614-6.736.825 0 1.5.378 1.5.839 0 1.24 4.699 3.161 7.731 3.161 1.451 0 4.586-.943 6.967-2.096C141.755 93.456 146 87.11 146 82c0-5.233-4.21-11.408-9.458-13.875-5.603-2.634-6.883-2.624-12.67.093m-82.575 3.796c-1.212.488-3.408 2.708-4.881 4.934-2.135 3.226-2.558 4.787-2.087 7.693 1.178 7.258 8.238 10.776 13.198 6.576 5.315-4.501 4.91-15.905-.667-18.79-1.519-.785-2.896-1.398-3.06-1.364-.165.035-1.291.463-2.503.951m84.095.664c-7.087 3.535-7.172 14.616-.143 18.65 3.665 2.103 6.196 2.113 9.711.036 7.898-4.665 7.836-14.387-.117-18.444-4.441-2.266-5.347-2.289-9.451-.242M77 98.666c-5.458.86-6.803 1.378-7.362 2.834-1.021 2.662 1.085 6.14 4.779 7.894 2.675 1.269 3.583 2.322 3.583 4.153 0 3.544 3.344 3.183 6.078-.656 2.071-2.909 2.512-3.071 6.818-2.515 5.74.741 7.594-.289 6.727-3.741-1.567-6.246-10.253-9.602-20.623-7.969m-11.524 32.372c-1.492 2.414.931 3.199 7.91 2.561 19.009-1.737 22.086-1.801 29.052-.61 7.93 1.357 11.206.686 8.022-1.642-2.218-1.622-22.35-1.83-32.67-.337-4.264.617-7.624.624-9.215.019-1.594-.607-2.72-.603-3.099.009"/></svg>