<svg width="500" height="500" viewBox="0 0 500 500" fill="#000000" xmlns="http://www.w3.org/2000/svg">
<path fill-rule="evenodd" clip-rule="evenodd" d="M231.923 0.6884C228.053 0.964659 221.275 1.67037 216.86 2.25622C212.445 2.84206 205.228 4.02722 200.821 4.88996C196.415 5.75271 189.57 7.32437 185.61 8.38262C181.651 9.44086 175.305 11.3311 171.509 12.5835C167.712 13.836 160.712 16.439 155.953 18.3677C151.194 20.2963 143.038 24.0159 137.828 26.6323C132.618 29.2488 124.974 33.4394 120.842 35.9443C116.71 38.4499 110.268 42.647 106.527 45.2718C102.786 47.8959 96.5847 52.5416 92.7459 55.5946C88.9077 58.6475 80.2643 66.6411 73.5385 73.3578C66.8128 80.0739 58.4437 89.175 54.9401 93.5817C51.4366 97.9884 45.9505 105.488 42.7482 110.247C39.5466 115.006 35.1886 121.929 33.0638 125.63C30.939 129.332 27.7457 135.265 25.9676 138.816C24.1896 142.367 21.1661 149.001 19.2483 153.558C17.3312 158.116 14.4263 165.827 12.7931 170.695C11.1599 175.562 8.67938 184.215 7.28079 189.924C5.88219 195.633 4.27079 203.043 3.70032 206.393C3.12922 209.742 2.24917 215.655 1.74472 219.532C1.23964 223.41 0.64097 231.847 0.413426 238.281L0 249.979H19.6483H39.2966V245.94C39.2966 243.719 39.6043 238.023 39.9805 233.281C40.3568 228.539 41.3503 220.594 42.188 215.623C43.0264 210.653 44.4673 203.586 45.3903 199.919C46.3133 196.253 47.8023 190.801 48.6997 187.804C49.5964 184.808 51.9205 178.318 53.864 173.383C55.808 168.447 59.2763 160.659 61.5716 156.076C63.8669 151.493 67.482 144.859 69.6043 141.334C71.7272 137.809 75.5025 132.041 77.9939 128.517C80.4854 124.992 85.3061 118.791 88.7071 114.736C92.1075 110.68 98.905 103.469 103.812 98.7095C108.719 93.9503 116.04 87.4861 120.082 84.3453C124.123 81.2039 130.603 76.5402 134.481 73.9808C138.359 71.4221 145.281 67.284 149.864 64.7848C154.447 62.2863 162.235 58.5366 167.17 56.4535C172.106 54.3697 179.172 51.6411 182.874 50.3899C186.576 49.1387 193.498 47.121 198.257 45.9057C203.017 44.691 210.516 43.1014 214.923 42.3733C219.329 41.6451 225.675 40.71 229.024 40.2959C233.447 39.7485 271.277 39.4742 367.313 39.2928L499.513 39.0422V19.5214V0L369.236 0.0929386C297.583 0.143575 235.793 0.411501 231.923 0.6884ZM235.492 67.9954C231.822 68.2768 225.765 68.98 222.032 69.5575C218.298 70.1356 212.214 71.3125 208.513 72.1726C204.811 73.0328 198.898 74.6231 195.373 75.7063C191.848 76.7896 185.813 78.9624 181.963 80.5341C178.113 82.1058 171.331 85.2382 166.892 87.495C162.453 89.7525 155.914 93.4426 152.359 95.6963C148.806 97.9493 143.04 101.959 139.548 104.604C136.056 107.251 130.17 112.164 126.469 115.522C122.767 118.88 117.84 123.754 115.52 126.353C113.199 128.952 109.323 133.53 106.905 136.527C104.487 139.523 99.9626 145.852 96.85 150.59C93.7381 155.327 88.9097 163.836 86.1202 169.498C83.3307 175.16 79.7489 183.414 78.1606 187.842C76.5723 192.269 74.3866 199.305 73.3027 203.478C72.2194 207.651 70.7657 214.413 70.0735 218.504C69.3806 222.595 68.5178 228.929 68.1563 232.58C67.7948 236.231 67.4993 241.639 67.4993 244.598V249.979H86.9291H106.359L107.129 240.204C107.554 234.828 108.629 226.845 109.52 222.465C110.411 218.085 112.317 210.874 113.754 206.441C115.191 202.008 117.764 195.251 119.472 191.425C121.179 187.6 124.501 181.254 126.855 177.324C129.209 173.393 133.185 167.439 135.692 164.093C138.198 160.746 143.134 155.004 146.659 151.331C150.185 147.659 155.665 142.483 158.838 139.828C162.01 137.175 167.987 132.789 172.12 130.082C176.252 127.376 182.886 123.566 186.862 121.616C190.838 119.666 196.934 117.015 200.409 115.725C203.884 114.435 210.518 112.412 215.151 111.229C219.785 110.046 227.136 108.62 231.487 108.06C238.486 107.159 254.376 107.042 369.455 107.042H499.513V87.172V67.3019L370.839 67.3929C300.067 67.4436 239.161 67.7147 235.492 67.9954ZM232.549 134.978C229.376 135.468 223.927 136.601 220.439 137.497C216.951 138.392 211.182 140.272 207.619 141.674C204.057 143.076 198.336 145.736 194.907 147.586C191.478 149.435 186.104 152.763 182.964 154.979C179.825 157.195 175.057 161.014 172.368 163.466C169.679 165.917 165.433 170.16 162.933 172.896C160.433 175.631 156.167 181.186 153.453 185.241C150.739 189.295 147.048 195.64 145.251 199.342C143.454 203.043 141.114 208.546 140.051 211.571C138.989 214.595 137.386 220.364 136.49 224.39C135.593 228.416 134.558 234.698 134.189 238.349C133.821 242 133.519 246.11 133.519 247.483V249.979H153C170.173 249.979 172.527 249.859 172.87 248.964C173.084 248.407 173.261 246.604 173.265 244.958C173.267 243.313 173.558 240.187 173.911 238.013C174.264 235.839 175.283 231.512 176.176 228.398C177.069 225.284 179.209 219.834 180.932 216.285C182.654 212.736 185.769 207.544 187.854 204.748C189.939 201.951 194.081 197.335 197.058 194.491C200.035 191.646 204.311 188.07 206.56 186.543C208.808 185.016 213.124 182.542 216.151 181.045C219.177 179.549 224.103 177.555 227.098 176.615C230.094 175.675 235.286 174.493 238.636 173.988C243.767 173.215 264.816 173.069 372.121 173.066L499.513 173.062V153.512V133.963L368.916 134.025C260.858 134.076 237.323 134.241 232.549 134.978ZM242.979 220.715C240.607 221.523 237.038 223.306 235.048 224.677C233.057 226.048 230.324 228.633 228.973 230.422C227.622 232.211 225.711 235.396 224.726 237.5C223.064 241.049 222.935 241.906 222.935 249.338C222.935 257.261 222.961 257.405 225.316 262.336C226.895 265.643 228.887 268.513 231.226 270.852C233.565 273.191 236.435 275.183 239.741 276.761C244.672 279.116 244.817 279.143 252.74 279.143C260.171 279.143 261.029 279.013 264.577 277.351C266.682 276.366 269.891 274.437 271.709 273.064C273.528 271.691 276.203 268.79 277.652 266.619C279.103 264.446 280.869 260.793 281.578 258.5C282.361 255.963 282.865 252.526 282.865 249.725C282.865 247.192 282.421 243.401 281.877 241.3C281.333 239.199 279.963 235.942 278.832 234.062C277.701 232.182 275.334 229.279 273.571 227.611C271.809 225.942 269.068 223.817 267.482 222.889C265.896 221.961 262.879 220.754 260.778 220.207C258.676 219.659 254.783 219.22 252.124 219.229C248.803 219.24 245.943 219.705 242.979 220.715ZM326.84 250.993C326.626 251.55 326.449 253.353 326.446 254.999C326.444 256.644 326.153 259.77 325.8 261.944C325.447 264.118 324.428 268.445 323.535 271.559C322.642 274.673 320.502 280.123 318.779 283.672C317.057 287.221 313.942 292.413 311.856 295.209C309.772 298.006 305.63 302.622 302.653 305.466C299.675 308.311 295.4 311.887 293.151 313.414C290.902 314.941 286.587 317.415 283.56 318.912C280.534 320.408 275.608 322.402 272.612 323.342C269.617 324.282 264.425 325.464 261.075 325.969C255.944 326.742 234.895 326.888 127.59 326.891L0.19742 326.895V346.455V366.015L132.718 365.844L265.239 365.674L272.212 364.192C276.047 363.378 282.248 361.72 285.993 360.509C289.737 359.298 296.839 356.283 301.774 353.809C306.709 351.335 313.344 347.449 316.516 345.174C319.689 342.899 324.496 339.043 327.198 336.603C329.9 334.164 334.183 329.9 336.717 327.128C339.25 324.355 343.544 318.771 346.258 314.717C348.972 310.662 352.663 304.317 354.46 300.615C356.257 296.914 358.597 291.411 359.659 288.386C360.722 285.362 362.325 279.593 363.221 275.567C364.118 271.541 365.153 265.259 365.522 261.608C365.89 257.957 366.192 253.847 366.192 252.474V249.979H346.711C329.538 249.979 327.183 250.098 326.84 250.993ZM392.825 257.51C392.571 261.652 391.821 268.358 391.16 272.413C390.499 276.467 389.242 282.536 388.367 285.9C387.492 289.264 385.745 294.889 384.484 298.399C383.224 301.909 380.353 308.531 378.104 313.114C375.856 317.697 371.831 324.711 369.162 328.7C366.493 332.689 362.459 338.17 360.199 340.878C357.938 343.587 352.665 349.124 348.481 353.182C344.297 357.24 337.845 362.755 334.143 365.437C330.441 368.12 324.384 372.069 320.683 374.214C316.981 376.359 310.606 379.548 306.515 381.301C302.425 383.053 296.223 385.368 292.734 386.444C289.246 387.521 283.939 388.974 280.942 389.675C277.946 390.375 272.09 391.39 267.93 391.931C261.346 392.787 243.505 392.915 130.282 392.915H0.19742V412.806V432.696L133.039 432.483C255.429 432.287 266.46 432.182 273.251 431.153C277.305 430.539 283.506 429.441 287.032 428.715C290.557 427.989 296.903 426.402 301.133 425.189C305.363 423.976 312.142 421.665 316.196 420.053C320.25 418.441 327.461 415.153 332.22 412.746C336.979 410.339 343.785 406.524 347.343 404.267C350.902 402.01 356.671 397.998 360.163 395.353C363.655 392.706 369.541 387.793 373.242 384.435C376.944 381.077 381.871 376.203 384.191 373.604C386.512 371.005 390.388 366.427 392.806 363.43C395.224 360.434 399.748 354.105 402.861 349.367C405.973 344.63 410.801 336.121 413.591 330.459C416.38 324.797 419.962 316.543 421.55 312.116C423.139 307.688 425.324 300.652 426.408 296.479C427.491 292.306 428.945 285.544 429.637 281.453C430.33 277.362 431.193 271.028 431.555 267.377C431.916 263.726 432.212 258.318 432.212 255.359V249.979H412.749H393.287L392.825 257.51ZM460.408 254.305C460.404 256.684 460.113 262.093 459.761 266.323C459.409 270.554 458.672 277.044 458.124 280.745C457.575 284.447 456.395 290.792 455.5 294.846C454.605 298.901 452.869 305.679 451.643 309.909C450.417 314.14 447.819 321.639 445.871 326.575C443.922 331.51 440.213 339.73 437.628 344.842C435.044 349.954 431.124 357.021 428.918 360.546C426.711 364.071 423.167 369.407 421.043 372.404C418.919 375.4 414.4 381.169 411.001 385.223C407.601 389.277 400.806 396.488 395.899 401.248C390.992 406.007 383.671 412.471 379.629 415.612C375.588 418.753 369.108 423.417 365.23 425.976C361.352 428.535 354.43 432.673 349.847 435.172C345.264 437.671 337.476 441.422 332.541 443.509C327.605 445.596 320.394 448.358 316.516 449.649C312.638 450.939 305.716 452.954 301.133 454.127C296.55 455.3 289.195 456.856 284.788 457.584C280.382 458.312 274.036 459.247 270.687 459.661C266.264 460.209 228.434 460.483 132.398 460.664L0.19742 460.915V480.457V500L134.961 499.778C257.081 499.576 270.477 499.454 277.738 498.473C282.144 497.877 289.211 496.804 293.441 496.088C297.672 495.372 305.279 493.757 310.346 492.498C315.414 491.239 323.057 489.06 327.332 487.655C331.607 486.249 338.71 483.646 343.117 481.87C347.523 480.093 355.682 476.373 361.246 473.601C366.811 470.829 374.743 466.513 378.873 464.01C383.003 461.506 389.443 457.31 393.184 454.685C396.925 452.061 403.126 447.415 406.965 444.362C410.803 441.31 419.447 433.316 426.172 426.599C432.898 419.883 441.267 410.782 444.771 406.375C448.274 401.969 453.76 394.469 456.963 389.71C460.164 384.951 464.522 378.028 466.647 374.327C468.772 370.625 471.968 364.685 473.751 361.126C475.533 357.567 478.499 351.077 480.343 346.704C482.185 342.331 485.1 334.571 486.819 329.459C488.538 324.347 491.076 315.55 492.459 309.909C493.841 304.269 495.44 296.914 496.011 293.565C496.582 290.215 497.462 284.303 497.966 280.425C498.471 276.547 499.07 268.11 499.297 261.676L499.711 249.979H480.063H460.414L460.408 254.305Z" fill="#000000"/>
</svg>
