<svg xmlns="http://www.w3.org/2000/svg" width="200" height="200" fill="#000000"><path fill-opacity=".231" fill-rule="evenodd" d="M35.772 42.75 35.5 61.5l-2.25-.313c-1.829-.254-2.25.166-2.25 2.25C31 65.504 30.516 66 28.5 66H26v49h2.5c1.803 0 2.5.538 2.5 1.93 0 1.241.804 2.045 2.25 2.25 1.92.273 2.295 1.017 2.555 5.07.248 3.87.652 4.75 2.18 4.75 1.184 0 1.994.83 2.195 2.25.206 1.446 1.124 2.364 2.57 2.57 1.629.231 2.25.99 2.25 2.75 0 2.342.253 2.43 7 2.43 6.333 0 7 .19 7 2 0 1.467.667 2 2.5 2H64v29h2.5c2 0 2.5.5 2.5 2.5s.5 2.5 2.5 2.5c1.803 0 2.5.538 2.5 1.93 0 1.241.804 2.045 2.25 2.25 1.477.21 2.25 1.007 2.25 2.32s.773 2.11 2.25 2.32c1.446.205 2.25 1.009 2.25 2.25 0 1.831.871 1.93 17 1.93 16.333 0 17-.078 17-2 0-1.467.667-2 2.5-2 2 0 2.5-.5 2.5-2.5s.5-2.5 2.5-2.5c1.803 0 2.5-.538 2.5-1.93 0-1.241.804-2.045 2.25-2.25s2.364-1.124 2.57-2.57 1.009-2.25 2.25-2.25c1.818 0 1.93-.841 1.93-14.5V143h2.5c1.833 0 2.5-.533 2.5-2 0-1.81.667-2 7-2 6.8 0 7-.071 7-2.5 0-2 .5-2.5 2.5-2.5s2.5-.5 2.5-2.5.5-2.5 2.5-2.5c2.333 0 2.5-.333 2.5-5s.167-5 2.5-5c1.833 0 2.5-.533 2.5-2q0-2 2-2c1.946 0 2-.667 2-24.5 0-23.539-.076-24.5-1.93-24.5-1.241 0-2.045-.804-2.25-2.25-.228-1.603-.967-2.227-2.57-2.171l-2.25.08V24h-17c-16.333 0-17 .078-17 2 0 1.733-.667 2-5 2-4.667 0-5 .167-5 2.5 0 1.803-.538 2.5-1.93 2.5-1.241 0-2.045.804-2.25 2.25-.21 1.477-1.007 2.25-2.32 2.25s-2.11-.773-2.32-2.25c-.311-2.19-.639-2.25-12.25-2.25H88v2.5c0 1.833-.533 2.5-2 2.5s-2-.667-2-2.5c0-2-.5-2.5-2.5-2.5s-2.5-.5-2.5-2.5c0-2.333-.333-2.5-5-2.5-4.333 0-5-.267-5-2 0-1.919-.667-2-16.478-2H36.044z"/><path fill-opacity=".225" fill-rule="evenodd" d="M36 43v19h-2.43c-1.76 0-2.519.621-2.75 2.25-.21 1.476-1.008 2.25-2.32 2.251-1.936.001-2.009.757-2.268 23.75L25.964 114h2.518c2.019 0 2.518.495 2.518 2.5 0 2 .5 2.5 2.5 2.5 2.29 0 2.5.371 2.5 4.43 0 3.834.303 4.474 2.25 4.75 1.424.203 2.364 1.124 2.561 2.509.195 1.363 1.137 2.305 2.5 2.5 1.385.197 2.306 1.137 2.509 2.561.296 2.086.824 2.25 7.25 2.25 6.771 0 6.93.059 6.93 2.563 0 2.084.421 2.504 2.25 2.25 2.232-.31 2.252-.198 2.527 13.937.262 13.423.392 14.25 2.25 14.25 1.438 0 1.973.678 1.973 2.5 0 2 .5 2.5 2.5 2.5 2.016 0 2.5.496 2.5 2.563 0 2.084.421 2.504 2.25 2.25 1.815-.252 2.312.229 2.571 2.488.256 2.228.767 2.739 2.5 2.5 1.613-.223 2.262.284 2.499 1.949.316 2.229.474 2.25 16.68 2.25s16.364-.021 16.68-2.25c.208-1.461.91-2.152 2.001-1.972 1.181.195 1.776-.548 2-2.5.253-2.203.769-2.716 2.493-2.478 1.619.223 2.257-.287 2.5-2 .209-1.473 1.113-2.412 2.515-2.611 1.363-.195 2.305-1.137 2.5-2.5.197-1.385 1.137-2.306 2.561-2.509 2.21-.313 2.25-.565 2.25-14.25 0-13.096.116-13.93 1.93-13.93 1.241 0 2.045-.804 2.25-2.25.294-2.065.917-2.274 7.57-2.544 6.952-.282 7.25-.394 7.25-2.75 0-1.76.547-2.456 1.93-2.456 1.241 0 2.045-.804 2.25-2.25.203-1.427 1.124-2.364 2.518-2.563 1.854-.263 2.245-1.046 2.5-5 .268-4.163.545-4.653 2.476-4.387 1.619.223 2.257-.287 2.5-2 .213-1.502 1.113-2.412 2.594-2.622l2.268-.322-.268-23.677c-.259-22.921-.332-23.677-2.268-23.678-1.296-.001-2.11-.772-2.311-2.19-.195-1.363-1.137-2.305-2.5-2.5-2.152-.306-2.194-.631-2.461-19.061L163.956 24h-15.909c-15.671 0-15.913.033-16.227 2.22-.286 1.982-.822 2.189-4.997 1.929-4.469-.278-4.691-.166-5 2.53-.261 2.279-.755 2.761-2.573 2.508-1.829-.254-2.25.166-2.25 2.25 0 2.067-.484 2.563-2.5 2.563-2.008 0-2.5-.498-2.5-2.532v-2.531l-11.75.281c-10.989.264-11.75.411-11.75 2.282 0 1.438-.772 2.089-2.75 2.316-2.35.271-2.75-.046-2.75-2.18 0-1.828-.603-2.583-2.25-2.816-1.474-.21-2.252-1.009-2.255-2.32-.005-1.692-.698-2.011-4.5-2.072-3.826-.061-4.543-.396-4.815-2.25C68.867 24.042 68.544 24 52.43 24H36zm14.819 61.502c-.309 9.196-.249 9.502 1.861 9.5 1.501-.001 2.281.699 2.5 2.248.206 1.446 1.124 2.364 2.57 2.57 1.646.233 2.25.988 2.25 2.812 0 2.012.435 2.433 2.25 2.181 1.691-.235 2.329.246 2.57 1.937.276 1.947.916 2.25 4.75 2.25 4.059 0 4.43.21 4.43 2.5 0 1.833.533 2.5 2 2.5 1.704 0 2-.667 2-4.5V124h-9v-7c0-6.8-.071-7-2.5-7-2 0-2.5-.5-2.5-2.5s-.5-2.5-2.5-2.5-2.5-.5-2.5-2.5c0-1.833-.533-2.5-2-2.5s-2-.667-2-2.5c0-1.804-.538-2.5-1.931-2.5-1.751 0-1.962.889-2.25 9.502M146 97.5c0 2-.5 2.5-2.5 2.5s-2.5.5-2.5 2.5-.5 2.5-2.5 2.5-2.5.5-2.5 2.5c0 1.833-.533 2.5-2 2.5-1.81 0-2 .667-2 7v7h-10v4.5c0 3.833.296 4.5 2 4.5 1.467 0 2-.667 2-2.5 0-2.327.34-2.5 4.906-2.5 4.414 0 4.854-.201 4.384-2-.425-1.624-.031-2 2.093-2s2.617-.47 2.617-2.5c0-2 .5-2.5 2.5-2.5s2.5-.5 2.5-2.5.5-2.5 2.5-2.5c2.491 0 2.5-.033 2.5-9.5 0-8.833-.14-9.5-2-9.5-1.467 0-2 .667-2 2.5m-77 4.383c0 1.036.874 2.112 1.942 2.392 2.32.606 3.058.017 3.058-2.442 0-1.289-.742-1.833-2.5-1.833-1.782 0-2.5.541-2.5 1.883m58 .403c0 1.619.583 2.285 2 2.285s2-.666 2-2.285-.583-2.286-2-2.286-2 .667-2 2.286M74 107q0 2 2 2t2-2-2-2-2 2m48 0q0 2 2 2t2-2-2-2-2 2m-43 5q0 2 2 2t2-2-2-2-2 2m38 0q0 2 2 2t2-2-2-2-2 2m-33 7.5c0 3.833.296 4.5 2 4.5s2-.667 2-4.5-.296-4.5-2-4.5-2 .667-2 4.5m28.193-.25c.255 3.533.687 4.304 2.557 4.57 2.052.291 2.25-.084 2.25-4.25 0-4.235-.187-4.57-2.557-4.57-2.391 0-2.538.278-2.25 4.25"/><path fill-opacity=".414" fill-rule="evenodd" d="M40 44.906c0 16.414-.058 16.892-2 16.384-1.624-.425-2-.031-2 2.093S35.53 66 33.5 66H31v49h2.5c1.803 0 2.5.538 2.5 1.93 0 1.219.803 2.049 2.178 2.25 1.855.273 2.189.989 2.25 4.82.061 3.841.393 4.546 2.261 4.811 1.363.195 2.305 1.137 2.5 2.5.279 1.967.988 2.219 6.997 2.483 6.026.265 6.717.512 7 2.5.222 1.559.974 2.183 2.564 2.127 1.712-.061 2.25.477 2.25 2.25 0 1.818.549 2.329 2.5 2.329H69v29h2.5c2 0 2.5.5 2.5 2.5s.5 2.5 2.5 2.5c1.833 0 2.5.533 2.5 2q0 2 2 2c1.467 0 2 .667 2 2.5v2.5h34v-2.5c0-2 .5-2.5 2.5-2.5 1.803 0 2.5-.538 2.5-1.93 0-1.241.804-2.045 2.25-2.25 1.424-.203 2.364-1.124 2.561-2.509.195-1.363 1.137-2.305 2.5-2.5 2.135-.303 2.189-.663 2.189-14.562 0-13.978.042-14.251 2.18-14.25 1.501.001 2.281-.701 2.5-2.249.21-1.477 1.007-2.25 2.32-2.25s2.11-.773 2.32-2.25c.296-2.086.824-2.25 7.25-2.25 6.672 0 6.93-.09 6.93-2.43 0-1.76.621-2.519 2.25-2.75 1.92-.273 2.295-1.017 2.555-5.07.275-4.289.542-4.75 2.75-4.75 1.749 0 2.445-.55 2.445-1.93 0-1.241.804-2.045 2.25-2.25l2.25-.32v-24c0-23.928-.007-24.001-2.189-24.311-1.363-.195-2.305-1.137-2.5-2.5-.219-1.542-.977-2.166-2.561-2.11-2.247.08-2.25.06-2.25-16.75V28h-29v2.5c0 2.333-.333 2.5-5 2.5s-5 .167-5 2.5c0 1.833-.533 2.5-2 2.5-1.86 0-2 .667-2 9.5 0 9.467-.009 9.5-2.5 9.5s-2.5-.033-2.5-9.5V38H88v9.5c0 8.833-.14 9.5-2 9.5s-2-.667-2-9.5c0-9.467-.009-9.5-2.5-9.5-2 0-2.5-.5-2.5-2.5 0-2.333-.333-2.5-5-2.5s-5-.167-5-2.5V28H40zM41 64q0 2 2 2t2-2-2-2-2 2m114 0q0 2 2 2t2-2-2-2-2 2M45.45 66.883c-.247.248-.45 1.275-.45 2.284 0 1.289.742 1.833 2.5 1.833 1.983 0 2.5-.504 2.5-2.438 0-1.841-.502-2.4-2.05-2.283-1.127.085-2.252.357-2.5.604m105.118-.118c-.312.313-.568 1.393-.568 2.402 0 1.302.745 1.833 2.57 1.833 2.064 0 2.506-.424 2.25-2.159-.3-2.025-2.99-3.338-4.252-2.076M50.214 104.75c.264 8.988.442 9.75 2.286 9.75 1.313 0 2.11.773 2.32 2.25.231 1.629.99 2.25 2.75 2.25 1.907 0 2.43.523 2.43 2.43 0 1.76.621 2.519 2.25 2.75 1.431.204 2.25 1.011 2.25 2.219 0 1.569.782 1.917 4.5 2 3.869.087 4.545.417 4.82 2.351.231 1.629.99 2.25 2.75 2.25 2.213 0 2.43-.401 2.43-4.5V124H69v-7.617c0-7.124-.129-7.582-2-7.093-1.591.416-2 .03-2-1.884 0-1.9-.526-2.406-2.5-2.406-2 0-2.5-.5-2.5-2.5s-.5-2.5-2.5-2.5-2.5-.5-2.5-2.5c0-2.01-.498-2.5-2.536-2.5h-2.536zM145 97.5c0 1.803-.538 2.5-1.93 2.5-1.241 0-2.045.804-2.25 2.25-.203 1.424-1.124 2.364-2.509 2.561-1.363.195-2.305 1.137-2.5 2.5-.201 1.419-1.015 2.189-2.311 2.189-1.789 0-2.031.765-2.294 7.25l-.294 7.25H122v4.5c0 3.779.309 4.5 1.93 4.5 1.241 0 2.045-.804 2.25-2.25.275-1.936.949-2.263 4.82-2.344 3.808-.079 4.549-.425 4.82-2.25.226-1.529 1.026-2.156 2.75-2.156 1.925 0 2.43-.519 2.43-2.5 0-1.803.538-2.5 1.93-2.5 1.24 0 2.046-.805 2.254-2.25.238-1.661.911-2.188 2.569-2.012 2.195.233 2.247.008 2.247-9.75 0-9.987 0-9.988-2.5-9.988-2 0-2.5.5-2.5 2.5m-76 5c0 2 .5 2.5 2.5 2.5s2.5.5 2.5 2.5.5 2.5 2.5 2.5 2.5.5 2.5 2.5c0 1.833.533 2.5 2 2.5s2-.667 2-2.5-.533-2.5-2-2.5-2-.667-2-2.5c0-2-.5-2.5-2.5-2.5s-2.5-.5-2.5-2.5-.5-2.5-2.5-2.5-2.5.5-2.5 2.5m57 0c0 1.997-.501 2.5-2.488 2.5-1.984 0-2.44.456-2.25 2.247.176 1.658-.351 2.331-2.012 2.569-1.647.237-2.25.993-2.25 2.823 0 2.021.431 2.439 2.25 2.181 1.424-.203 2.364-1.124 2.561-2.509.195-1.363 1.137-2.305 2.5-2.5 1.364-.194 2.306-1.136 2.5-2.5.189-1.322 1.141-2.311 2.406-2.5 1.278-.19 2.225-1.187 2.432-2.561.287-1.908-.117-2.25-2.655-2.25-2.527 0-2.994.39-2.994 2.5m-41.25 12.189c-1.334.349-1.75 1.509-1.75 4.884 0 4.055.21 4.427 2.5 4.427 2.333 0 2.5-.333 2.5-5 0-2.75-.338-4.948-.75-4.884s-1.537.322-2.5.573m27.808.086c-.307.307-.558 2.508-.558 4.892 0 3.955.218 4.333 2.5 4.333 2.286 0 2.5-.374 2.5-4.383 0-3.499-.392-4.486-1.942-4.892-1.068-.279-2.193-.256-2.5.05"/><path fill-opacity=".528" fill-rule="evenodd" d="M41 44.43c0 16.278.021 16.434 2.25 16.75 1.603.228 2.227.967 2.171 2.57-.061 1.712.477 2.25 2.25 2.25 1.818 0 2.329.549 2.329 2.5 0 2-.5 2.5-2.5 2.5-1.803 0-2.5-.538-2.5-1.93 0-1.241-.804-2.045-2.25-2.25s-2.364-1.124-2.57-2.57c-.468-3.295-4.18-3.073-4.18.25 0 2-.5 2.5-2.5 2.5H31v47h2.5c2 0 2.5.5 2.5 2.5s.5 2.5 2.5 2.5c2.29 0 2.5.371 2.5 4.43 0 3.834.303 4.474 2.25 4.75 1.603.228 2.227.967 2.171 2.57-.076 2.136.292 2.25 7.25 2.25 7.151 0 7.329.061 7.329 2.5 0 2 .5 2.5 2.5 2.5s2.5.5 2.5 2.5c0 1.833.533 2.5 2 2.5 1.905 0 2 .667 2 14v14h2.5c2 0 2.5.5 2.5 2.5s.5 2.5 2.5 2.5 2.5.5 2.5 2.5.5 2.5 2.5 2.5c2.007 0 2.5.498 2.5 2.525v2.525l16.25-.275c15.995-.271 16.255-.31 16.57-2.525.205-1.446 1.009-2.25 2.25-2.25 1.392 0 1.93-.697 1.93-2.5 0-2 .5-2.5 2.5-2.5s2.5-.5 2.5-2.5.5-2.5 2.5-2.5h2.5v-13.93c0-13.685.04-13.937 2.25-14.25 1.446-.206 2.364-1.124 2.57-2.57.223-1.575.997-2.25 2.579-2.25 1.7 0 2.24-.557 2.18-2.25-.074-2.108.379-2.269 7.171-2.544 6.952-.282 7.25-.394 7.25-2.75 0-1.789.543-2.456 2-2.456 1.704 0 2-.667 2-4.5 0-4.133.204-4.5 2.5-4.5 2 0 2.5-.5 2.5-2.5s.5-2.5 2.5-2.5h2.5V66.341l-2.25.08c-1.603.056-2.342-.568-2.57-2.171-.432-3.042-3.928-3.042-4.36 0-.206 1.446-1.124 2.364-2.57 2.57S155 67.829 155 69.07c0 1.392-.697 1.93-2.5 1.93-2 0-2.5-.5-2.5-2.5s.5-2.5 2.5-2.5 2.5-.5 2.5-2.5c0-1.833.533-2.5 2-2.5 1.919 0 2-.667 2-16.528V27.944l-13.75.278c-13.616.275-13.747.3-13.437 2.528.289 2.078-.074 2.25-4.75 2.25-4.734 0-5.063.163-5.063 2.5 0 2-.5 2.5-2.5 2.5-2.491 0-2.5.033-2.5 9.5s-.009 9.5-2.5 9.5-2.5-.031-2.5-9.532v-9.531l-11.614.281-11.614.282-.136 9-.136 9-2.75.316-2.75.317v-9.567C83 38.782 82.842 38 81.07 38c-1.241 0-2.045-.804-2.25-2.25-.273-1.92-1.017-2.295-5.07-2.555-4.289-.275-4.75-.542-4.75-2.75V28H41zm9-1.93c0 4.133.204 4.5 2.5 4.5 2 0 2.5.5 2.5 2.5s.5 2.5 2.5 2.5 2.5.5 2.5 2.5c0 2.296.367 2.5 4.5 2.5H69v-5c0-4.699-.154-5-2.563-5-2.084 0-2.504-.421-2.25-2.25.252-1.811-.175-2.256-2.187-2.279-2.003-.024-2.438-.471-2.187-2.25.288-2.043-.092-2.221-4.75-2.221H50zm90.82-2.25c-.241 1.691-.879 2.172-2.57 1.937-1.815-.252-2.25.169-2.25 2.181 0 1.824-.604 2.579-2.25 2.812-1.92.273-2.295 1.017-2.555 5.07L130.89 57h5.055c4.725 0 5.055-.163 5.055-2.5 0-1.803.538-2.5 1.93-2.5 1.241 0 2.045-.804 2.25-2.25s1.124-2.364 2.57-2.57c1.947-.276 2.25-.916 2.25-4.75V38h-4.43c-3.834 0-4.474.303-4.75 2.25M50 105v10h2.5c1.833 0 2.5.533 2.5 2q0 2 2 2c1.467 0 2 .667 2 2.5 0 2 .5 2.5 2.5 2.5s2.5.5 2.5 2.5c0 2.333.333 2.5 5 2.5s5 .167 5 2.5c0 2 .5 2.5 2.5 2.5 2.491 0 2.5-.033 2.5-9.5 0-8.833.14-9.5 2-9.5 1.704 0 2 .667 2 4.5 0 4.351.101 4.5 3.055 4.5 3.02 0 3.051-.053 2.75-4.75-.258-4.011-.646-4.798-2.494-5.061-1.363-.195-2.305-1.137-2.5-2.5-.197-1.385-1.137-2.306-2.561-2.509-1.629-.231-2.25-.99-2.25-2.75 0-1.907-.523-2.43-2.43-2.43-1.759 0-2.519-.622-2.75-2.249-.305-2.142-.749-2.25-9.32-2.25-8.572-.001-9.015-.108-9.32-2.251-.231-1.629-.99-2.25-2.75-2.25-2.411 0-2.43.076-2.43 10m95-7.644c0 2.312-.171 2.353-9.25 2.25-8.792-.101-9.265.002-9.561 2.083-.195 1.363-1.137 2.305-2.5 2.5-1.385.197-2.306 1.137-2.509 2.561-.205 1.446-1.009 2.25-2.25 2.25-1.392 0-1.93.697-1.93 2.5 0 2-.5 2.5-2.5 2.5-2.333 0-2.5.333-2.5 5s.167 5 2.5 5c2.296 0 2.5-.367 2.5-4.5 0-4.162.193-4.5 2.56-4.5h2.561l-.698 9.5-.697 9.5h3.137c2.679 0 3.137-.365 3.137-2.5 0-2.296.367-2.5 4.5-2.5s4.5-.204 4.5-2.5c0-2 .5-2.5 2.5-2.5s2.5-.5 2.5-2.5.5-2.5 2.5-2.5c1.803 0 2.5-.538 2.5-1.93 0-1.241.804-2.045 2.25-2.25 2.134-.304 2.265-.821 2.536-10.07l.286-9.75h-3.036c-2.522 0-3.036.399-3.036 2.356M88 169.5c0 2-.5 2.5-2.5 2.5-1.833 0-2.5.533-2.5 2s.667 2 2.5 2c2 0 2.5.5 2.5 2.5v2.5h24v-2.5c0-2 .5-2.5 2.5-2.5 1.833 0 2.5-.533 2.5-2s-.667-2-2.5-2c-2 0-2.5-.5-2.5-2.5V167H88z"/></svg>