<svg xmlns="http://www.w3.org/2000/svg" width="200" height="200" fill="#000000"><path fill-opacity=".282" fill-rule="evenodd" d="M81.113 10.545c-12.942 2.807-28.604 9.286-33.19 13.729-1.333 1.291-3.998 3.402-5.923 4.691-4.606 3.084-13 11.173-13 12.527 0 .588-1.563 2.543-3.474 4.345C19.394 51.62 9.078 76.559 9.015 85.75 9.007 86.987 8.55 88 8 88c-.613 0-1 4.833-1 12.5 0 6.875.347 12.5.772 12.5s1.335 2.97 2.024 6.599c2.244 11.83 9.593 28.582 15.312 34.901C35.132 165.577 41.556 172 42.612 172c.701 0 1.863.836 2.581 1.859 3.565 5.07 24.266 14.151 37.057 16.256 4.263.701 7.75 1.637 7.75 2.08s5.175.805 11.5.805c7 0 11.5-.391 11.5-1 0-.55 1.097-1 2.438-1 6.886 0 25.088-5.889 34.111-11.037 9.926-5.662 24.59-19.334 30.726-28.648 4.2-6.376 10.725-20.458 10.725-23.148 0-.55.412-1.15.917-1.334 1.749-.636 4.083-15.805 4.084-26.541.001-10.451-2.486-27.292-4.029-27.292-.416 0-1.055-1.196-1.422-2.658-1.371-5.462-9.708-21.367-13.067-24.929-1.916-2.031-3.483-4.04-3.483-4.464 0-1.247-13.291-13.09-15.75-14.035-1.238-.476-2.25-1.231-2.25-1.678 0-3-21.974-12.351-34.838-14.825-9.264-1.781-31.564-1.707-40.049.134M91 11.986c-8.828 1.159-17.543 3.498-23.234 6.236-4.431 2.132-6.862 4.804-3.016 3.314 18.943-7.337 43.239-8.961 61.25-4.094 6.474 1.75 16.991 5.991 17.879 7.21.788 1.084 12.078 8.624 14.262 9.525.902.373 4.432 3.973 7.845 8s7.196 8.448 8.408 9.823c7.754 8.8 14.464 30.21 14.886 47.5.201 8.201.835 10.441 2.97 10.485.412.008.75-4.485.75-9.985 0-6-.4-10-1-10-.55 0-1-1.097-1-2.438 0-10.45-9.396-33.853-16.687-41.562-1.3-1.375-4.49-4.919-7.089-7.876-2.598-2.957-7.199-6.952-10.224-8.878s-5.828-4.062-6.228-4.746c-1.067-1.823-16.692-8.305-25.367-10.524-8.806-2.252-25.192-3.2-34.405-1.99m1.975 27.991c2.833 2.646 3.582 4.868 3.172 9.406C95.966 51.38 97.655 54 99.122 54c.483 0 .878-1.125.878-2.5 0-3.199 1.715-3.22 3.165-.038 1.747 3.836-.835 7.879-7.985 12.5-10.097 6.526-8.036 8.721 6.63 7.06 10.293-1.167 13.245-2.077 16.15-4.982 5.177-5.177-.34-16.228-10.71-21.454-1.787-.9-3.243-2.188-3.235-2.862.011-.854.238-.891.75-.124.404.605 1.86 1.688 3.235 2.406s4.525 2.914 7 4.88c2.475 1.967 3.674 2.606 2.664 1.421s-3.709-3.426-6-4.98-4.74-3.37-5.443-4.035c-.703-.664-2.015-.925-2.914-.58-1.086.417-1.395.239-.919-.531.482-.78.156-.943-1-.5-1.096.421-1.476.27-1.051-.418.428-.692-.137-.9-1.586-.583-1.364.299-1.794.163-1.092-.346.702-.508-.593-.908-3.275-1.012l-4.434-.171zm-62.411 2.73c-.542 1.425-.428 1.54.56.56.684-.679.991-1.486.683-1.793-.308-.308-.867.247-1.243 1.233m-7.057 8.282c-.35.566.051.734.941.393 1.732-.665 2.049-1.382.611-1.382-.518 0-1.216.445-1.552.989m63.572 1.594c.048 1.165.285 1.402.604.605.289-.722.253-1.585-.079-1.917s-.568.258-.525 1.312M21 55c-.589 1.1-.845 2-.57 2s.981-.9 1.57-2 .845-2 .57-2-.981.9-1.57 2m-5.541 12.067c-.363.586-.445 1.281-.183 1.543s.743-.218 1.069-1.067c.676-1.762.1-2.072-.886-.476m106.715 5.247c-1.196 1.273-2.174 2.684-2.174 3.135 0 .452.933-.365 2.073-1.814S124.542 71 125.027 71s-.335 1.228-1.822 2.73c-1.488 1.501-3.313 2.596-4.055 2.433-.867-.191-1.078.175-.59 1.02.418.724.404.995-.031.602s-1.745-.185-2.91.463c-1.166.647-2.457 1.081-2.869.964s-.75.218-.75.744C112 81.097 96.951 86 93.448 86 92.102 86 91 86.466 91 87.035c0 .674-.786.626-2.25-.136l-2.25-1.17 2.25 2.45C89.987 89.526 91 90.97 91 91.386s.697 1.454 1.549 2.306c1.4 1.399 1.49 1.271.932-1.321-.56-2.604-.484-2.708.811-1.121 1.74 2.132 12.178 2.529 13.125.5.455-.976.717-.958 1.194.082.422.921 1.18.396 2.452-1.695 1.013-1.666 3.048-3.819 4.523-4.785 2.576-1.688 2.913-1.676 8.582.31l5.9 2.067 1.966-2.5c2.489-3.164 2.47-4.678-.116-8.861-2.401-3.885-1.927-4.365 1.105-1.118 1.522 1.63 1.919 1.774 1.44.52-.752-1.965-6.459-5.77-8.657-5.77-.801 0-2.436 1.042-3.632 2.314m-51.942 1.585c-.678 1.87-1.195 4.345-1.15 5.5.063 1.626.414 1.338 1.553-1.273.809-1.855 1.327-4.33 1.15-5.5-.265-1.755-.536-1.534-1.553 1.273m-57.153.684c.048 1.165.285 1.402.604.605.289-.722.253-1.585-.079-1.917s-.568.258-.525 1.312m-1 4c.048 1.165.285 1.402.604.605.289-.722.253-1.585-.079-1.917s-.568.258-.525 1.312m-1 4c.048 1.165.285 1.402.604.605.289-.722.253-1.585-.079-1.917s-.568.258-.525 1.312M10.158 88c0 1.375.227 1.938.504 1.25.278-.687.278-1.812 0-2.5-.277-.687-.504-.125-.504 1.25m70.497-.25c-.255.412.716.821 2.157.908 3.286.197 5.95 3.423 7.445 9.015C91.531 102.435 93 103.414 93 99.5c0-1.375-.414-2.5-.921-2.5-.506 0-1.215-1.345-1.576-2.988-1.008-4.589-8.098-9.097-9.848-6.262m36.707.015C115.564 88.927 113 95.914 113 99.654c0 6.688 4.616 13.381 8.305 12.042.657-.239.032-.981-1.39-1.65s-3.334-2.485-4.25-4.036c-3.252-5.506-1.276-15.542 3.298-16.747 5.838-1.538 9.167.873 11.16 8.082.632 2.285 1.339 3.626 1.571 2.979.76-2.112-1.719-9.269-3.92-11.32-2.162-2.014-8.114-2.722-10.412-1.239m19.271 3.214c-1.869 2.824-2.633 5.29-2.633 8.5 0 2.486.276 4.521.614 4.521 1.633 0 8.423-4.545 8.856-5.928.859-2.745-.161-9.262-1.592-10.169-2.132-1.35-2.434-1.173-5.245 3.076m-78.404 3.69c-1.895.763-4.238 5.844-4.165 9.031l.064 2.8 1.684-3.5c.926-1.925 1.962-3.725 2.301-4 .667-.54 2.229-5.052 1.704-4.921-.174.043-.889.309-1.588.59M9.158 99c0 1.375.227 1.938.504 1.25.278-.687.278-1.812 0-2.5-.277-.687-.504-.125-.504 1.25m64.351 2.777c.194 3.294.967 4.961 3.362 7.25 1.711 1.635 3.902 2.955 4.87 2.933 1.263-.029.984-.46-.991-1.532-1.513-.821-2.75-1.843-2.75-2.271 0-.429-.867-1.711-1.928-2.849s-2.127-3.36-2.371-4.939c-.244-1.578-.33-.944-.192 1.408M103 103.782c-3.059 1.104-3.908 1.748-2.65 2.013 3.214.678 8.65-.793 8.65-2.34 0-1.753-.278-1.738-6 .327m44.487 4.468c-2.221 5.062-23.085 9.563-47.987 10.353-18.512.588-25.5 1.264-25.5 2.469 0 1.27 62.482 1.2 67.074-.076 5.416-1.504 8.421-5.266 8.45-10.576.027-4.914-.559-5.538-2.037-2.17m4.644 14.203c-1.89 3.783-8.624 10.547-10.501 10.547-.32 0-2.055.948-3.856 2.106-1.801 1.159-2.443 1.831-1.426 1.494 1.016-.337 5.066-1.098 9-1.692 7.377-1.113 13.541-4.208 13.76-6.908.245-3.014-.341-5.517-1.461-6.235-.788-.504-.695-.739.294-.75 1.033-.011.892-.43-.5-1.483-2.745-2.077-2.841-2.024-5.31 2.921m-106.398.297c-.867.963-1.886 2.987-2.263 4.5-.378 1.512-1.088 2.75-1.578 2.75-.491 0-.892.713-.892 1.583 0 2.212 1.895 1.343 3.514-1.609 4.325-7.893 4.902-11.311 1.219-7.224m40.866 11.271c2.444 2.471 9.425 4.355 10.85 2.93.601-.601.05-.959-1.499-.973-1.348-.012-4.475-.934-6.95-2.05l-4.5-2.028zm-48.073 21.928c1.086 1.347 3.447 3.96 5.248 5.807 1.8 1.847 3.043 3.731 2.761 4.188s.243 1.443 1.168 2.193c1.423 1.154 1.553 1.151.85-.017-.575-.954-.403-1.237.558-.916.764.254 1.399 1.1 1.411 1.879.013.816.798 1.283 1.851 1.1 1.083-.188 1.562.113 1.175.739-.41.663-.014.81 1.064.397 1.115-.428 1.478-.273 1.036.442-.374.605-.154 1.426.49 1.824.764.472.902.289.398-.527-.535-.865-.197-1.132 1.096-.868 1.166.239 1.785 1.121 1.647 2.346-.121 1.08.029 1.402.333.714.78-1.757 2.724-1.568 2.046.199-.391 1.018-.076 1.265 1.057.83 1.161-.445 1.384-.248.795.706q-.821 1.325.344.605c1.636-1.011 5.316.326 4.506 1.637-.375.607-.207.797.383.432.578-.358 2.539-.353 4.357.011 2.869.574 3.048.774 1.353 1.511-1.529.665-1.377.739.699.34 3.116-.599 9.458.484 8.025 1.37-.945.585 5.992.601 19.823.048 4.884-.196 3.392-.442-6-.992-12.243-.717-28.396-4.372-29.895-6.764-.333-.531-3.334-2.285-6.669-3.898-7.715-3.732-13.75-7.906-19.41-13.423-2.46-2.399-3.585-3.26-2.5-1.913m-3.073 1.004c1.77 2.876 5.036 6.225 7.047 7.228 1.183.589.865.041-.78-1.342-1.528-1.287-3.778-3.485-5-4.886s-1.791-1.851-1.267-1m52.36 27.73c.721.289 1.584.253 1.916-.079s-.258-.568-1.312-.525c-1.165.048-1.402.285-.604.604"/><path fill-opacity=".35" fill-rule="evenodd" d="M82 10.557c-12.27 2.64-28.979 9.422-32.92 13.363-1.106 1.106-3.715 3.091-5.796 4.409-5 3.167-11.558 9.617-14.875 14.629C26.938 45.181 25.383 47 24.953 47c-1.265 0-6.347 8.913-9.694 17C12.167 71.47 9 83.225 9 87.229c0 3.21.877 1.631 1.549-2.787 1.264-8.319 4.533-17.745 10.056-28.996.825-1.68 3.275-5.055 5.446-7.5s3.947-4.913 3.948-5.484C30 41.173 38.531 32.95 42.25 30.653c4.408-2.723 3.169-1.037-1.699 2.312-2.507 1.725-6.709 6.33-9.625 10.548C28.079 47.631 25.395 51 24.961 51c-1.598 0-9.249 17.786-11.615 27-1.342 5.225-2.821 14.45-3.287 20.5l-.848 11 .145-9.752c.106-7.213-.181-9.752-1.106-9.75C7.333 89.999 7 92.668 7 100c0 7.871.296 10 1.39 10 1.012 0 1.262.952.919 3.5-.26 1.925-.062 3.5.439 3.5s.907.787.903 1.75c-.026 5.89.395 7.728 1.43 6.25.828-1.183.92-1.038.436.69-1.009 3.601 9.713 27.287 12.366 27.317.339.004 1.715 1.691 3.056 3.75 3.64 5.586 8.991 10.983 14.222 14.343 2.564 1.647 4.888 3.585 5.165 4.306C48.874 179.442 80.228 191 89.628 191c1.855 0 3.372.45 3.372 1 0 .593 3.667 1 9 1 4.95 0 9-.351 9-.779s3.562-1.34 7.915-2.025c12.981-2.042 31.261-9.441 36.207-14.655 1.308-1.378 2.846-2.514 3.417-2.524 1.262-.021 15.461-12.853 15.461-13.972 0-.437 1.603-2.538 3.563-4.669 3.568-3.881 10.354-16.938 12.684-24.402.682-2.186 1.539-3.974 1.904-3.974 1.764 0 4.104-19.558 3.573-29.853-.506-9.813-2.354-20.95-3.674-22.147-.303-.275-2.062-4.325-3.909-9-3.536-8.95-7.604-15.861-13.244-22.496-5.104-6.005-13.048-13.426-16.147-15.084-1.512-.809-2.75-1.867-2.75-2.351 0-1.098-16.763-9.361-23.5-11.584-13.402-4.422-37.154-5.799-50.5-2.928m10.435 1.071c-4.914.62-11.86 1.895-15.435 2.832-6.852 1.797-22.97 8.988-23.043 10.281-.023.417-2.852 2.735-6.287 5.149-4.464 3.138-7.803 6.671-11.708 12.388C28.486 53.225 26.726 56 27.26 56c.456 0 6.858-9.059 9.792-13.857.854-1.396 2.693-3.237 4.086-4.091 1.394-.853 5.358-3.69 8.808-6.302 3.451-2.613 6.867-4.75 7.593-4.75.725 0 1.941-.623 2.702-1.384 8.208-8.208 39.348-12.991 59.329-9.112 8.03 1.559 23.155 6.821 24.43 8.499.275.362 4.669 3.476 9.764 6.92 7.128 4.819 10.548 7.969 14.838 13.669 3.066 4.075 5.911 7.408 6.321 7.408 1.302 0 8.911 17.188 11.289 25.5 1.961 6.857 2.278 10.215 2.221 23.5-.059 13.714-.359 16.422-2.604 23.5-1.396 4.4-2.896 8.84-3.335 9.866-.694 1.624-.538 1.728 1.198.799 2.161-1.157 5.969-11.411 6.982-18.801.329-2.4.987-4.364 1.462-4.364s.864-5.625.864-12.5-.352-12.5-.783-12.5-1.372-3.263-2.091-7.25c-1.73-9.59-9.514-27.843-13.884-32.556-1.883-2.032-4.697-5.523-6.253-7.758C167.129 36.328 158.952 29 157.228 29c-.515 0-2.077-1.058-3.472-2.351-4.069-3.77-8.781-6.35-18.348-10.045-14.051-5.426-27.276-6.958-42.973-4.976m2.065 9.467c-8.818.656-17.5 2.652-17.5 4.024 0 .484-.787.883-1.75.885-2.169.004-8.693 3.886-7.887 4.692.324.324 1.275.02 2.113-.676 1.211-1.005 1.829-1.011 3.013-.029.819.68 1.312 1.522 1.097 1.872s1.701.708 4.261.794 5.328.356 6.153.599c3.312.976 4.963 1.995 4.485 2.769-.277.448.963 1.965 2.755 3.37 3.059 2.397 3.253 2.921 3.152 8.507-.101 5.54.063 5.995 2.368 6.574 1.362.342 2.582.487 2.711.323.129-.165.737-1.199 1.351-2.299 1.081-1.936 1.118-1.927 1.148.285.051 3.898-3.052 7.256-9.54 10.322-6.44 3.042-10.029 6.889-8.98 9.623.514 1.339 2.095 1.48 10.826.965 12.453-.734 20.082-2.899 23.991-6.808 2.448-2.448 2.876-3.588 2.567-6.829-.204-2.139-.025-3.676.398-3.415.422.261.768 1.15.768 1.975s.45 1.222 1 .882 1 .035 1 .834c0 1.75 2.41 2.849 3.628 1.655.485-.475 1.734-.218 2.813.578 1.922 1.419 1.922 1.434 0 1.551-1.067.066-2.503.046-3.191-.043-.687-.09-1.25.564-1.25 1.453 0 1.523-2.687 4.942-3.929 4.998-1.862.085-6.093 3.974-5.631 5.177.729 1.902-5.907 4.632-9.332 3.839-1.684-.389-2.137-.288-1.278.286C107.354 80.847 96.135 84 90.985 84c-1.814 0-2.846.415-2.485 1 .34.55-.149 1-1.087 1-1.415 0-1.298.409.691 2.406 3.124 3.136 4.173 4.562 5.591 7.594.686 1.466 1.198 1.865 1.237.964.038-.844.855-1.577 1.818-1.629l7.029-.374c4.917-.261 5.39-.514 6.899-3.696 2.398-5.053 5.425-6.66 11.084-5.884 2.603.357 5.577 1.514 6.65 2.587 1.922 1.922 1.965 1.91 4.265-1.208 1.278-1.732 2.323-4.213 2.323-5.513 0-1.551.403-2.116 1.17-1.642.827.511.936.162.371-1.191-.44-1.053-.908-2.814-1.041-3.914s-.75-1.887-1.371-1.75c-.621.138-1.017-.312-.879-1s-.553-1.185-1.535-1.105c-1.425.115-1.55-.139-.617-1.263.841-1.013 1.525-1.11 2.446-.346.911.757 1.491.716 2.021-.142.445-.72.322-.942-.306-.554-.577.357-1.333-.091-1.68-.996-.553-1.44-.969-1.346-3.355.756-1.498 1.32-2.39 1.991-1.983 1.492s.183-1.598-.5-2.442c-.99-1.224-.988-1.382.009-.783.719.432 1.25.248 1.25-.433 0-.817 1.007-.96 3.25-.462 1.787.397 3.77.754 4.405.792s.921.678.635 1.422c-.382.996.34 1.282 2.737 1.083 1.917-.158 3.437.245 3.698.982.282.798-.13 1.031-1.141.643-.871-.335-1.584-.11-1.584.499 0 1.504 5.075 1.883 9.885.738 1.312-.313 2.062-.245 1.667.15-.395.396-1.131.775-1.635.844-.505.069-1.367.181-1.917.25s-1 .8-1 1.625c0 1.8 1.983 2.043 2.04.25.022-.687.679-.075 1.46 1.362s2.787 3.179 4.46 3.871c1.672.693 3.069 1.993 3.103 2.888.041 1.045.405.776 1.016-.75.669-1.672.576-2.843-.314-3.942-.981-1.212-.986-1.395-.02-.815.684.411 1.742 1.677 2.349 2.812.8 1.494.801 1.877.006 1.386-.605-.374-1.1-.235-1.1.309 0 .545 1.012 1.144 2.25 1.333s2.153.849 2.034 1.468c-.128.665 1.007 1.039 2.779.917 2.38-.165 3.113.265 3.572 2.095.346 1.377 1.038 2.027 1.722 1.617.629-.377.542.057-.193.963-1.583 1.952-.757 3.736 1.728 3.736 1.663 0 2.063.962 2.183 5.25.048 1.697 1.925 2.591 1.925.917 0-.459.675-.834 1.5-.834 1.813 0 2.004 2.297.25 3.005-.901.363-.918.526-.059.583 2.045.136 2.725-2.175 2.471-8.405-.321-7.898-.643-10.33-1.475-11.162-.378-.378-.687-1.936-.687-3.462s-.395-3.018-.877-3.316-1.38-2.54-1.995-4.983-1.754-5.076-2.531-5.853c-.776-.777-2.691-3.803-4.255-6.725-3.558-6.65-14.942-18.454-22.842-23.683-3.3-2.184-9.15-5.275-13-6.868-3.85-1.594-7.225-3.177-7.5-3.519-2.054-2.552-21.269-4.76-33.5-3.85M76 30.008c-2.375.606-2.335.663.794 1.148 1.812.281 3.569.066 3.905-.477.335-.544.129-.691-.459-.327s-1.22.291-1.405-.16c-.184-.452-1.46-.534-2.835-.184M85 35c0 .55.477 1 1.059 1s.781-.45.441-1-.816-1-1.059-1-.441.45-.441 1m4 9.8c0 1.21-.477 2.2-1.059 2.2s-.781.45-.441 1 .19 1-.333 1c-1.255 0-2.328 4.417-1.559 6.421.836 2.178 2.392 1.986 2.392-.295 0-1.031.684-3.812 1.519-6.181 1.033-2.925 1.193-4.633.5-5.326C89.327 42.927 89 43.305 89 44.8M25.385 58.351c-1.899 2.172-3.576 5.791-2.966 6.401.32.32.581.125.581-.432 0-.558.9-2.052 2-3.32s2-2.687 2-3.153c0-1.113-.276-1.027-1.615.504M133.5 64c-.34.55-.141 1 .441 1S135 64.55 135 64s-.198-1-.441-1-.719.45-1.059 1M18.568 73.083c-.862 2.904-1.527 5.761-1.477 6.349.05.587.932-1.613 1.959-4.89s1.692-6.133 1.477-6.348-1.097 1.985-1.959 4.889M70.74 71.54c-2.76 2.56-3.297 5.274-1.772 8.96.745 1.8.976 1.651 2.316-1.5 1.519-3.573 3.149-10 2.535-10-.187 0-1.572 1.143-3.079 2.54m40.76 5.995c-2.501 1.205-2.584 1.343-.5.834 2.834-.692 6.018-2.316 4.5-2.293-.55.008-2.35.664-4 1.459m-9.687 3.148c.721.289 1.584.253 1.916-.079s-.258-.568-1.312-.525c-1.165.048-1.402.285-.604.604M16.158 83c0 1.375.227 1.938.504 1.25.278-.687.278-1.812 0-2.5-.277-.687-.504-.125-.504 1.25m80.655-1.317c.721.289 1.584.253 1.916-.079s-.258-.568-1.312-.525c-1.165.048-1.402.285-.604.604m64.8 3.5c.289.467.944.591 1.456.274 1.308-.808 1.161-1.124-.525-1.124-.801 0-1.22.383-.931.85M15.252 89.5c.011 2.2.216 2.982.455 1.738s.23-3.044-.02-4-.446.062-.435 2.262m102.091-2.36c-2.905 1.458-5.719 9.075-5.063 13.705 1.249 8.815 4.518 11.978 11.102 10.743 5.473-1.027 8.08-5.437 8.276-13.998.1-4.384-.168-6.395-.735-5.5-.724 1.144-.895 1.084-.908-.317-.032-3.604-8.53-6.711-12.672-4.633m19.507 1.753c-3.292 3.392-4.676 5.711-2.755 4.615 1.05-.599 1.128-.5.31.39-.98 1.067-.809 9.934.213 11.026.748.8 9.184-3.965 9.783-5.526.329-.859.606-2.762.614-4.23.013-2.151.219-2.377 1.066-1.168.802 1.146.889.91.366-1-1.656-6.055-5.93-7.884-9.597-4.107m-59.552.357c-6.489 4.601-6.676 17.323-.31 21.084 3.177 1.876 7.012 2.209 7.012.607 0-.582-.434-.791-.964-.464-.961.595-2.539-.756-6.786-5.813C74.037 102.029 73.146 97 74.892 97c.49 0 1.201-1.235 1.58-2.744.989-3.94 2.387-5.256 5.582-5.256 5.923 0 9.912 11.105 6.497 18.084L86.88 110.5l2.038-2.5c1.12-1.375 2.048-3.062 2.06-3.75.012-.687.472-1.25 1.022-1.25s1-1.575 1-3.5-.45-3.5-1-3.5-1-.64-1-1.423-1.165-2.808-2.589-4.5c-3.143-3.735-6.643-3.996-11.113-.827m90.574-.558c-.932 1.15-.971 1.451-.122.941.688-.413 1.748-.443 2.357-.067.803.496.793.878-.034 1.389-.671.415-.837 1.495-.403 2.625.67 1.742.795 1.688 1.352-.58.687-2.797.144-6-1.016-6-.419 0-1.379.761-2.134 1.692m-50.21.965C116.168 91.159 114 97.176 114 99.818c0 1.416 1.186 4.286 2.636 6.378 2.104 3.037 3.264 3.801 5.75 3.789 4.119-.021 5.078-.774 6.678-5.245 1.102-3.081 1.117-4.618.082-8.5-.695-2.607-1.632-5.113-2.083-5.569-1.206-1.218-8.425-1.996-9.401-1.014m-57.293 2.512c-8.054 7.616-7.983 7.475-6.458 12.831l.712 2.5 1.338-2.5c.736-1.375 1.609-2.725 1.939-3 .642-.535 5.1-9.736 5.1-10.527 0-.807-1.445-.425-2.631.696M166 91.941c0 .518.445 1.216.989 1.552.566.35.734-.051.393-.941-.665-1.732-1.382-2.049-1.382-.611M18.158 96c0 1.375.227 1.938.504 1.25.278-.687.278-1.812 0-2.5-.277-.687-.504-.125-.504 1.25m-3.872 3.5c.008 2.75.202 3.756.432 2.236s.223-3.77-.014-5-.425.014-.418 2.764m86.214 3.987c-7.951 2.99-8.671 5.513-1.573 5.513 2.79 0 5.073-.45 5.073-1s1.398-1 3.107-1c2.422 0 2.973-.349 2.5-1.582-.334-.87-.607-2.22-.607-3 0-1.826-1.203-1.674-8.5 1.069M18.272 109c0 2.475.195 3.487.434 2.25.238-1.237.238-3.263 0-4.5-.239-1.237-.434-.225-.434 2.25m129.186-1.868c-.532 1.675-.864 1.836-1.552.75-.728-1.149-.898-1.13-1.009.118-.074.825-.069 1.871.009 2.324.079.454-.322.537-.89.186-1.507-.932-5.158.452-4.405 1.669.413.668-.158.782-1.611.321-1.676-.532-2.051-.392-1.469.55.567.917.202 1.113-1.327.714-1.159-.304-2.242-.168-2.406.302-.662 1.896-20.37 4.009-43.057 4.615-25.292.677-27.159 1.075-24.558 5.241 1.023 1.638 2.32 2.078 6.123 2.078 2.654 0 5.696.466 6.76 1.035 1.688.904 1.934.695 1.934-1.644v-2.679l27.75.544c30.747.601 34.633.137 39.792-4.756 3.567-3.383 5.349-9.721 3.395-12.076-1.651-1.989-2.69-1.778-3.479.708M15.272 111c0 2.475.195 3.487.434 2.25.238-1.237.238-3.263 0-4.5-.239-1.237-.434-.225-.434 2.25m58.461 1.124c.679.684 1.486.991 1.793.683.308-.308-.247-.867-1.233-1.243-1.425-.542-1.54-.428-.56.56m45.08 2.559c.721.289 1.584.253 1.916-.079s-.258-.568-1.312-.525c-1.165.048-1.402.285-.604.604M19.199 116.5c0 1.1.361 3.125.801 4.5.634 1.98.801 2.084.801.5 0-1.1-.361-3.125-.801-4.5-.634-1.98-.801-2.084-.801-.5m-3.041 1.5c0 1.375.227 1.938.504 1.25.278-.687.278-1.812 0-2.5-.277-.687-.504-.125-.504 1.25M154 117.971c0 .573-1.125 2.02-2.5 3.216-1.375 1.195-2.5 2.733-2.5 3.417 0 1.452-4.804 7.396-5.978 7.396-.44 0-3.88 1.8-7.645 4s-6.627 3.996-6.361 3.992 5.809-1.116 12.318-2.47c16.012-3.332 20.528-6.24 19.019-12.251-.451-1.799-.301-2.357.501-1.861 1.807 1.117 1.335-.935-.604-2.627-2.813-2.454-6.25-4-6.25-2.812m-107.75 3.613c-1.788 1.408-3.25 3.203-3.25 3.988S42.55 127 42 127s-1 1.575-1 3.5c0 4.212 1.198 4.449 3.796.75 2.451-3.489 6.316-12.254 5.398-12.239-.382.006-2.156 1.164-3.944 2.573m-29.165-.084c-.243 3.31 6.102 19.699 8.644 22.328.706.73 1.754 2.205 2.328 3.278s1.44 1.705 1.924 1.406 1.206-.018 1.604.626c.478.774.288.902-.56.377q-1.284-.793-.821.596c.254.764.95 1.389 1.546 1.389s1.458.41 1.917.91c.484.529.309.609-.417.191-.687-.395-1.25-.294-1.25.226 0 1.904 11.711 13.03 17.98 17.082 3.547 2.292 6.691 4.509 6.985 4.926 1.066 1.509 13.666 6.347 21.509 8.258 4.758 1.16 12.708 2.1 19.526 2.31 9.274.285 10.145.207 4.5-.401-5.986-.645-5.334-.72 4.5-.514 6.325.132 10.375-.086 9-.486-2.997-.871-2.219-1.259 7-3.49 7.307-1.768 13.846-4.349 15.821-6.244.727-.698 1.938-1.268 2.691-1.268.754 0 1.654-.459 2.001-1.021.788-1.276-7.579 1.989-9.209 3.593-1.71 1.683-17.635 5.364-25.304 5.849-6.003.379-19.802-.657-24.5-1.84-7.917-1.993-14.077-3.874-14.5-4.427-.275-.36-3.425-1.988-7-3.62-3.575-1.631-8.75-4.414-11.5-6.186-7.778-5.01-17.975-16.353-22.115-24.599-2.002-3.987-3.98-7.474-4.397-7.749-.416-.275-1.462-2.525-2.324-5-.863-2.475-1.59-3.698-1.616-2.718-.053 1.952 2.604 8.828 3.741 9.683.923.694 4.059 7.096 4.427 9.035.156.825.734 1.831 1.284 2.235.612.449.495.74-.301.75-.716.008-1.959-1.56-2.763-3.485-.805-1.925-1.867-3.5-2.361-3.5-.798 0-4.21-8.112-6.941-16.5-.537-1.65-1.009-2.55-1.049-2M82 125c0 .633 7.333 1 20 1s20-.367 20-1-7.333-1-20-1-20 .367-20 1m16 5.441c0 .793-.52 1.762-1.155 2.154-.715.443-.883.275-.44-.44.392-.635.203-1.155-.419-1.155-.623 0-.983.787-.799 1.75.531 2.783 12.441 2.99 17.698.309 6.754-3.446 6.025-4.059-4.826-4.059-8.092 0-10.059.282-10.059 1.441m-15 .404c0 .465.787 1.532 1.75 2.372 5.009 4.369 13.275 6.122 20.058 4.254l4.692-1.292-7-.133c-7.377-.141-13.456-1.791-16.395-4.451-1.948-1.763-3.105-2.042-3.105-.75m65.25 37.27c-3.409 2.183-4.512 3.649-1.5 1.993 2.294-1.261 5.889-4.04 5.25-4.059-.275-.009-1.963.921-3.75 2.066m-23.5 14.547c.688.278 1.813.278 2.5 0 .688-.277.125-.504-1.25-.504s-1.937.227-1.25.504m-3.937 1.021c.721.289 1.584.253 1.916-.079s-.258-.568-1.312-.525c-1.165.048-1.402.285-.604.604"/><path fill-opacity=".227" fill-rule="evenodd" d="M88.5 9.626c-1.1.216-4.475.869-7.5 1.451-7.857 1.51-15 3.921-15 5.062 0 .539-.438.708-.974.377-1.053-.651-15.695 6.139-16.682 7.737-.33.534-.055 1.308.612 1.72.883.546.768.919-.424 1.376-.956.367-1.382.217-1.025-.36.973-1.574-1.133-1.144-2.507.511-.685.825-1.791 1.5-2.458 1.5-1.027 0-8.681 7.757-16.679 16.902-2.88 3.294-7.865 11.256-7.854 12.544.006.58 1.365-1.308 3.021-4.196S24.392 49 24.821 49s2.008-1.942 3.508-4.316C31.448 39.75 39.591 31.6 42.378 30.623c1.033-.362-.401 1.391-3.187 3.895s-6.968 7.349-9.296 10.767-4.819 6.665-5.534 7.215c-2.293 1.762-8.463 16.458-11.076 26.381-2.073 7.874-2.585 12.385-2.82 24.865-.158 8.385.095 15.482.562 15.771s.679 1.416.469 2.504.091 1.979.668 1.979.808.631.512 1.402-.232 1.709.143 2.084c.375.374.688.981.697 1.347.036 1.461 4.985 13.894 6.932 17.415 2.773 5.013 6.571 9.512 15.552 18.426 9.09 9.021 10.997 10.668 16.051 13.858 9.414 5.943 30.659 12.448 40.699 12.461 2.888.004 5.25.457 5.25 1.007s1.575 1 3.5 1 3.5-.45 3.5-1 2.221-1 4.935-1c6.66 0 16.875-2.243 26.68-5.858 7.588-2.798 17.618-8.175 19.885-10.66.55-.603 2.575-2.269 4.5-3.703 6.385-4.754 13.51-12.264 19.239-20.279 3.806-5.324 10.761-21.068 10.761-24.36 0-1.085.482-2.134 1.072-2.331 1.801-.6 4.173-19.502 3.54-28.218-.679-9.363-2.568-19.591-3.617-19.591-.41 0-1.02-1.376-1.356-3.057-.934-4.666-7.302-18.593-10.884-23.801-4.599-6.686-17.13-19.49-21.241-21.704-1.933-1.041-3.514-2.207-3.514-2.592 0-1.273-10.395-6.673-18.831-9.784-11.95-4.406-12.43-3.739-.719.998 10.153 4.106 16.55 7.522 16.55 8.837 0 .404 1.912 1.778 4.25 3.054 4.689 2.559 14.75 11.835 14.75 13.6 0 .615 1.342 2.314 2.982 3.776s4.152 4.509 5.581 6.772c3.324 5.266 8.85 19.659 10.519 27.401.712 3.3 1.707 6.281 2.212 6.624 1.196.815 1.307 27.857.117 28.718-.501.362-1.876 4.483-3.056 9.158-2.566 10.168-8.321 22.682-12.479 27.133-1.656 1.772-3.95 4.38-5.099 5.795-1.15 1.414-1.841 1.869-1.537 1.01.304-.86-1.895.828-4.888 3.75-2.993 2.921-5.826 5.312-6.296 5.312-1.043 0-10.943 6.397-13.14 8.491-.871.83-1.901 1.509-2.289 1.509-1.397 0 2.974-3.702 7.758-6.571 2.687-1.611 6.062-3.637 7.5-4.502 2.306-1.387 5.708-5.135 16.461-18.131 3.734-4.514 9.199-17.022 11.392-26.074 2.434-10.045 2.374-30.563-.118-40.722-2.143-8.736-8.97-24.39-12.212-28-1.235-1.375-4.961-5.692-8.281-9.594-3.946-4.638-8.907-8.96-14.331-12.485-4.563-2.965-8.521-5.641-8.796-5.945-1.624-1.802-14.223-6.303-22.655-8.095-16.749-3.559-38.989-1.392-54.592 5.321-2.614 1.124-4.753 2.384-4.753 2.8s-1.449 1.356-3.221 2.089c-6.914 2.864-18.231 12.594-24.053 20.68-3.158 4.386-6.232 9.382-6.831 11.102S25.454 62 25.025 62c-1.073 0-4.91 9.14-6.677 15.909-2.677 10.25-3.478 20.546-2.41 30.956 1.42 13.84 3.036 17.271 2.417 5.135-.266-5.225-.661-10.05-.878-10.723-1.497-4.651 4.599-32.48 7.829-35.735.657-.662 2.994-4.499 5.194-8.526 3.987-7.298 12.763-17.313 19.6-22.364 1.98-1.463 7.38-4.525 12-6.803 4.62-2.279 8.625-4.475 8.9-4.88 1.389-2.047 14.488-4.293 27.5-4.716 11.888-.386 15.352-.133 22.96 1.677 4.928 1.173 9.203 2.474 9.5 2.891s3.465 2.038 7.04 3.602c7.874 3.446 17.556 10.152 22.9 15.861 5.239 5.597 11.1 13.335 11.1 14.656 0 .583.89 1.95 1.977 3.037 3.414 3.414 8.363 16.816 9.979 27.023 2.328 14.704.28 32.627-5.348 46.805-1.377 3.468-2.271 6.911-1.987 7.651.326.848-.156 1.289-1.302 1.194-1.301-.107-1.721.419-1.474 1.85.19 1.1.001 1.662-.419 1.248-.851-.838-4.426 2.013-4.426 3.529 0 .533.787.35 1.75-.405 1.584-1.242 1.62-1.207.387.367-.75.956-1.733 1.511-2.185 1.231s-2.538 1.585-4.637 4.143c-3.732 4.55-20.241 16.387-22.853 16.387-.726 0-2.045.725-2.931 1.612s-3.68 2.397-6.208 3.357c-3.191 1.211-4.19 1.995-3.269 2.565.783.484 1.481.36 1.702-.301.205-.616 1.019-.873 1.809-.57.789.303 1.435.149 1.435-.342s.787-.924 1.75-.962c.963-.039 2.65-.386 3.75-.773s.299.241-1.779 1.394c-11.413 6.335-38.588 8.84-55.95 5.158-9.82-2.082-24.771-7.613-24.771-9.164 0-.462-.829-1.102-1.843-1.424-1.698-.539-8.802-5.405-15.378-10.532-1.496-1.167-5.321-6.036-8.5-10.82-3.178-4.784-6.308-9.26-6.956-9.946C19.924 137.585 14 113.185 14 99.731c0-12.739 6.349-36.756 10.664-40.341.735-.611 1.336-1.554 1.336-2.095s1.884-3.867 4.187-7.39c2.302-3.523 5.115-8.201 6.25-10.395 1.294-2.503 4.297-5.545 8.056-8.16 3.447-2.398 5.996-4.914 6-5.923.004-.965.57-1.944 1.258-2.174.823-.277 1.027.163.596 1.285-.583 1.519-.419 1.504 1.499-.138 2.61-2.235 2.67-2.499.404-1.787-1.494.47-1.466.319.191-1.031 1.068-.87 2.643-1.575 3.5-1.567 1.372.014 1.379.132.059.985-2.674 1.728-.171 1.057 4.473-1.199 2.49-1.21 4.527-2.586 4.527-3.059s.45-.582 1-.242 1.001.254 1.002-.191 1.46-.912 3.243-1.038 3.378-.64 3.546-1.144 1.183-.685 2.257-.404S80 13.773 80 13.21c0-.562.9-.787 2-.5s2 .099 2-.42 1.35-.745 3-.503 3 .03 3-.47c0-.501 5.175-.889 11.5-.864s11.5-.291 11.5-.703c0-.754-20.766-.859-24.5-.124m25.5.757c0 .211 1.125.599 2.5.862s2.5.09 2.5-.384c0-.473-1.125-.861-2.5-.861s-2.5.173-2.5.383m7.813 1.3c.721.289 1.584.253 1.916-.079s-.258-.568-1.312-.525c-1.165.048-1.402.285-.604.604m-31 6c.721.289 1.584.253 1.916-.079s-.258-.568-1.312-.525c-1.165.048-1.402.285-.604.604M44.5 29c-.34.55-.168 1 .382 1s1.278-.45 1.618-1 .168-1-.382-1-1.278.45-1.618 1m42.65 11c.575 1.65 1.728 3 2.561 3 1.678 0 1.537 1.891-.78 10.5-1.638 6.085-1.798 6.325-2.97 4.471-.697-1.102-.942-.718-.976 1.529-.041 2.646-.721 3.326-5.766 5.764-3.145 1.521-4.982 2.567-4.082 2.325 1.207-.324 1.504.066 1.133 1.486-.277 1.059-.901 1.925-1.387 1.925-.485 0-.883.922-.883 2.05 0 1.671-2.305 7.365-3.563 8.802-.991 1.133-4.09-2.706-3.917-4.852.271-3.349-.478-5.114-1.875-4.418-.63.314-.181-.284.997-1.329 1.933-1.713 1.983-2 .507-2.931-1.397-.881-1.436-1.271-.27-2.677.795-.958.925-1.645.311-1.645-.58 0-1.341.9-1.69 2-.642 2.024-2.055 2.663-2.667 1.205-.515-1.229-8.561-5.144-9.218-4.486-.321.321.197 1.176 1.151 1.9.953.725 1.227 1.332.606 1.349-2.911.082-4.067-5.416-1.882-8.952.566-.915.109-1.113-2.24-.971-.413.025-.609.925-.437 2S49.647 60 49.063 60c-.585 0-.951.544-.813 1.209.137.666-.763 1.279-2 1.364-2.223.152-2.87-.619-1.592-1.898.362-.362 1.149-.25 1.75.249.744.617 1.092.031 1.092-1.842 0-1.512-.45-2.796-1-2.854a747 747 0 0 1-5.611-.663c-4.506-.546-4.599-.501-4.125 1.98.267 1.396.091 2.466-.389 2.378-1.779-.325-3.689.096-3.102.683.334.334-.266 1.544-1.333 2.689S30 66.206 30 67.22s-.663 2.097-1.473 2.408-1.76 2.097-2.111 3.969-1.151 3.41-1.777 3.418c-.627.009-.464.452.361.985 1.303.842 1.285.971-.137.985-1.535.014-1.835.801-3.243 8.515-.2 1.1-.459 2-.574 2-.359 0-.959 5.82-1.031 10-.17 9.888 3.229 30.5 5.029 30.5.367 0 2.587 3.805 4.934 8.456C33.903 146.233 39.542 154 41.264 154c1.241 0 4.736 3.395 4.736 4.601 0 .636 1.35 1.716 3 2.399s3 1.713 3 2.288.302.744.67.375c.369-.368 1.606-.063 2.75.68 4.446 2.885 26.213 10.002 27.729 9.065.4-.248 1.192.347 1.759 1.321.806 1.384 1.041 1.443 1.077.271.041-1.333.151-1.333.994 0 .761 1.204 3.433 1.5 13.521 1.5s12.76-.296 13.521-1.5c.843-1.333.952-1.333.979 0 .021 1.016.268 1.13.765.354.604-.942 11.799-2.813 14.495-2.423.419.06 2.091-.578 3.717-1.419s4.209-1.618 5.74-1.728c1.53-.109 3.511-1.006 4.4-1.992.89-.985 1.932-1.792 2.317-1.792s2.174-1.125 3.977-2.5 3.767-2.5 4.366-2.5 1.374-.9 1.723-2 1.054-2 1.567-2c1.256 0 1.189 1.706-.092 2.342-.564.279-.451.392.25.25s1.434-1.12 1.628-2.175c.443-2.401 3.148-5.534 4.212-4.877.438.271 1.122-.034 1.52-.678.452-.731.291-.903-.43-.457-1.891 1.168-1.315-.932 1.095-3.995 2.147-2.728 3.419-11.41 1.672-11.41-1.181 0-1.902 2.894-.878 3.527.526.325.949 1.352.941 2.282-.014 1.457-.15 1.484-.985.191-.533-.825-.976-1.028-.985-.45-.008.577.465 1.53 1.052 2.117.757.757.547 1.267-.719 1.753-.983.377-1.516.414-1.184.083.331-.332.253-2.156-.175-4.053-.428-1.898-.438-3.45-.022-3.45.74 0 .696-.823-.436-8.083-.635-4.071-3.531-5.108-3.531-1.265 0 4.054-6.272 7.151-20.041 9.896-6.763 1.349-13.008 2.446-13.878 2.438-.869-.008 2.363-2.145 7.183-4.75 7.053-3.811 9.676-5.908 13.432-10.736 2.567-3.3 5.035-6.15 5.486-6.333.45-.184.818-1.871.818-3.75 0-2.371-.459-3.417-1.5-3.417-.844 0-1.5.894-1.5 2.045 0 2.671-4.058 6.665-8.76 8.622-2.057.857-3.965 1.91-4.24 2.341s-3.496 1.104-7.158 1.495c-6.128.654-6.747.543-7.785-1.396-1.09-2.037-1.807-2.107-21.533-2.107-13.257 0-20.635.37-21.059 1.057-.359.581-.381 2.143-.047 3.471.532 2.121.915 2.296 3.159 1.443 2.975-1.131 35.425-1.333 35.418-.221-.008 1.361-6.768 8.143-7.443 7.469-.363-.364-1.07.001-1.57.81-.688 1.113-2.927 1.455-9.196 1.404-8.714-.071-11.3-.916-16.248-5.305-1.629-1.445-2.529-1.932-2-1.081s-.011.444-1.199-.905c-1.853-2.103-3.361-2.548-10.558-3.12-9.583-.761-10.781-1.253-10.781-4.426 0-5.172 1.643-5.511 27.035-5.589 12.906-.039 26.615-.492 30.465-1.007s7.862-.949 8.917-.967 1.606-.344 1.226-.723c-.379-.38-2.817-.602-5.416-.495-4.741.196-6.427-.591-9.227-4.304-.962-1.276-.297-.999 1.853.772 2.83 2.33 4.19 2.734 8.714 2.586 2.949-.096 5.145-.525 4.881-.953s.046-1.103.69-1.501c.731-.452.903-.291.457.43-1.882 3.046 12.75-1.407 16.722-5.088 2.289-2.122 2.754-3.304 2.498-6.354-.392-4.665-2.015-5.36-3.476-1.49-.773 2.047-2.529 3.579-5.82 5.078-2.593 1.181-4.908 1.954-5.145 1.716-.237-.237-.819-2.405-1.293-4.819-.854-4.346-.863-4.354-1.019-.888-.265 5.884-3.072 10.331-7.42 11.755-3.086 1.011-4.362 1.011-6.492.001-3.606-1.712-6.15-7.209-6.134-13.256.016-5.931 1.607-9.497 5.004-11.216 1.364-.69 1.87-1.261 1.124-1.269-1.624-.018-7.254 4.542-6.517 5.279 1.231 1.231-3.263 4.707-6.099 4.717-6.123.022-10.526 1.211-10.628 2.87-.056.915-.448.532-.9-.881-.68-2.124-.816-1.86-.9 1.75-.055 2.338-.506 4.25-1.002 4.25s-1.361 1.315-1.921 2.923c-2.657 7.62-14.243 6.726-17.135-1.322-3.334-9.279 1.397-18.468 9.612-18.671 2.456-.061 2.572-.182.846-.881-1.706-.691-1.485-.899 1.5-1.415 1.925-.333 4.85-.77 6.5-.97 1.763-.214.731-.473-2.5-.629l-5.5-.264 8-1.267c11.821-1.871 23.5-5.154 23.5-6.606 0-.88 7.236-5.341 8.25-5.086.412.103.75-.674.75-1.729 0-1.054.563-2.179 1.25-2.5 1-.466 1-.7 0-1.166-.687-.321-1.25-1.221-1.25-2 0-2.408-1.505-1.566-2.658 1.487-1.551 4.11-7.925 7.959-15.44 9.323-3.521.639-6.627 1.457-6.902 1.817-.728.954-11.083 1.854-14.285 1.242-3.54-.677-4.573-4.328-2.235-7.896.935-1.427 4.427-3.833 7.76-5.346 4.972-2.257 6.11-3.225 6.341-5.397.213-1.997-.165-2.647-1.539-2.647-1.598 0-1.804-.841-1.681-6.882.125-6.205-.107-7.086-2.361-8.966-3.729-3.11-5.123-2.803-3.85.848M40 53.5c0 .867.595 1.209 1.5.862.825-.317 1.5-.705 1.5-.862s-.675-.545-1.5-.862c-.905-.347-1.5-.005-1.5.862m-1.65 4.55c.279 1.537 2.027 1.377 2.451-.225.277-1.046.15-1.038-.604.038-.673.961-1.116 1.028-1.501.225-.353-.736-.475-.749-.346-.038M44 58c0 .55.45 1 1 1s1-.45 1-1-.45-1-1-1-1 .45-1 1m-28.321 5.546c-2.349 4.927-2.018 5.765.437 1.11 1.116-2.115 1.852-4.022 1.636-4.238s-1.149 1.192-2.073 3.128M55.5 61c.34.55.816 1 1.059 1s.441-.45.441-1-.477-1-1.059-1-.781.45-.441 1m3.5 7c0 .55.477 1 1.059 1s.781-.45.441-1-.816-1-1.059-1-.441.45-.441 1m-47.921 9.583c.048 1.165.285 1.402.604.605.289-.722.253-1.585-.079-1.917s-.568.258-.525 1.312m124.37 5.667c-.377 1.237-1.386 3.047-2.242 4.022-1.259 1.432-2.462 6.728-1.529 6.728.484 0 4.564-4.549 6.009-6.701C139.155 85.113 138.706 81 137 81c-.476 0-1.174 1.013-1.551 2.25m-39.699-.588c.688.278 1.813.278 2.5 0 .688-.277.125-.504-1.25-.504s-1.937.227-1.25.504M9.158 87c0 1.375.227 1.938.504 1.25.278-.687.278-1.812 0-2.5-.277-.687-.504-.125-.504 1.25m52.693.976c-.906.838-2.789 2.555-4.182 3.814-1.394 1.26-3.298 4.291-4.233 6.737-1.524 3.992-1.546 4.762-.212 7.517l1.487 3.069 1.266-3.057c.696-1.681 1.684-3.056 2.195-3.056.512 0 1.593-1.687 2.404-3.75s1.913-4.531 2.449-5.486c1.494-2.662 1.175-4.048-.775-3.369-1.611.561-1.618.51-.087-.643a48 48 0 0 1 3.384-2.288c1.589-.956 1.576-1.035-.163-1.024-1.036.007-2.626.698-3.533 1.536M127 87.378c0 .207.787.995 1.75 1.75 1.586 1.243 1.621 1.208.378-.378-1.307-1.666-2.128-2.195-2.128-1.372m-48.932 4.526C76.931 93.502 76 95.527 76 96.404c0 .878-.45 1.596-1 1.596s-1 .9-1 2 .45 2 1 2 1 .567 1 1.26c0 2.208 4.993 6.74 7.425 6.74 4.87 0 7.645-7.91 5.107-14.555-2.651-6.942-6.995-8.412-10.464-3.541m39.733-1.654c-2.207 1.746-4.081 8.219-3.33 11.503 1.013 4.432 4.249 7.589 8.087 7.892 2.866.225 3.66-.178 4.798-2.438 2.461-4.887 2.722-7.971 1.032-12.194-2.265-5.663-6.844-7.722-10.587-4.763m-46.859 2.401c-.554 1.459-.861 3.092-.682 3.629s.827-.656 1.439-2.652c1.287-4.192.736-4.903-.757-.977M100 103.388c-4.124 1.651-5.582 2.77-5.828 4.473-.322 2.229-.174 2.265 8.191 1.955 7.11-.264 8.596-.606 8.985-2.067.256-.964.094-1.522-.36-1.242-.454.281-1.123-.843-1.486-2.498-.786-3.578-1.928-3.652-9.502-.621m-28.973 3.928c-.11 3.365 5.839 7.789 10.173 7.566 2.252-.116 2.248-.134-.2-.848-5.567-1.623-6.687-2.28-8.282-4.851-.916-1.475-1.677-2.316-1.691-1.867m-21.586 10.186c-1.912 1.481-1.911 1.494.059.906 1.569-.468 1.687-.375.548.432-.799.565-1.855.78-2.346.476s-2.255.938-3.919 2.76c-3.246 3.555-4.612 9.371-2.8 11.924.902 1.271 1.447 1.041 3.571-1.5 3.04-3.638 8.441-14.5 7.21-14.5-.485 0-.604-.45-.264-1 .87-1.408.198-1.244-2.059.502M81 125c0 .634 7.5 1 20.5 1s20.5-.366 20.5-1-7.5-1-20.5-1-20.5.366-20.5 1m100.624 6.539c-.965 2.514-.681 3.163.498 1.136.584-1.004.851-2.036.593-2.293-.257-.258-.749.263-1.091 1.157m-13.458 1.337c-1.057.67-.976.983.393 1.508.95.365 1.963.427 2.251.14.288-.288-.028-.524-.702-.524s-.948-.45-.608-1c.748-1.21.427-1.24-1.334-.124M125 181c1.958 1.266 3.282 1.266 2.5 0-.34-.55-1.379-.993-2.309-.985-1.457.014-1.484.15-.191.985m5.964 3.444c-6.833 2.518-17.53 3.575-32.464 3.209-8.25-.203-16.575-.646-18.5-.986s-1.025.057 2 .881c9.664 2.632 26.081 2.913 37.508.643 5.505-1.093 11.58-2.672 13.5-3.508 4.277-1.862 2.821-2.032-2.044-.239M71.5 185c1.1.473 2.675.859 3.5.859.945 0 .761-.317-.5-.859-1.1-.473-2.675-.859-3.5-.859-.945 0-.761.317.5.859"/><path fill-opacity=".304" fill-rule="evenodd" d="M85.813 10.683c.721.289 1.584.253 1.916-.079s-.258-.568-1.312-.525c-1.165.048-1.402.285-.604.604M80.5 12c.34.55.816 1 1.059 1s.441-.45.441-1-.477-1-1.059-1-.781.45-.441 1m9.75 3.999C79.115 17.566 63.934 22.373 62 24.944c-.275.365-2.394 1.635-4.709 2.823C52.354 30.298 38 40.747 38 41.809c0 .402-2.021 3.421-4.491 6.711-2.47 3.289-5.236 7.555-6.148 9.48s-1.99 3.725-2.396 4c-2.104 1.422-8.97 22.328-7.738 23.56.249.249 1.022-2.138 1.718-5.304 1.257-5.72 4.854-15.3 6.103-16.256.359-.275 1.193-1.525 1.852-2.778.66-1.253 1.586-2.04 2.057-1.749.471.292.644-.282.385-1.274-.827-3.163 15.809-23.291 19.141-23.158.559.022-.541 1.372-2.445 3S42.937 41 43.379 41s2.647-1.578 4.901-3.507 7.95-5.405 12.659-7.725c4.708-2.319 8.794-4.535 9.079-4.925.284-.39 4.334-1.751 9-3.026 11.807-3.225 33.616-3.214 45.429.024 4.371 1.198 8.213 2.609 8.538 3.135.326.527 3.5 2.289 7.054 3.916 3.553 1.628 9.26 4.946 12.68 7.374 6.832 4.85 17.473 16.865 19.738 22.284.792 1.898 1.863 3.45 2.379 3.45 1.363 0 5.864 11.241 8.173 20.41 1.411 5.607 2.025 11.576 2.109 20.5.065 6.924.438 13.94.829 15.59.635 2.682.808 2.363 1.632-3 1.521-9.907.874-25.07-1.492-34.947-3.16-13.195-11.479-29.665-14.15-28.014-.322.199-3.223-2.749-6.447-6.551s-8.265-8.567-11.203-10.59-5.138-3.881-4.89-4.128c.941-.942 11.333 7.892 16.591 14.104 3.019 3.566 5.676 6.296 5.904 6.067.722-.721-11.269-14.71-14.024-16.363C149.366 29.981 143 25.605 143 24.858c0-.472-.621-.858-1.379-.858-.759 0-3.8-1.108-6.759-2.463-10.687-4.892-31.151-7.433-44.612-5.538m2.75.614c-10.734 1.309-29 6.525-29 8.281 0 .412-2.138 1.724-4.75 2.915s-6.1 3.296-7.75 4.678c-2.084 1.745-.253 1.08 6-2.178 4.95-2.579 9.147-5.045 9.327-5.48.35-.847 10.478-4.022 18.673-5.854 7.096-1.587 26.726-1.353 35 .417 7.969 1.704 15.661 4.272 16.459 5.495.752 1.151 11.363 6.124 11.907 5.58.244-.243-1.764-1.412-4.461-2.597s-5.146-2.523-5.44-2.973c-1.044-1.599-9.785-4.887-17.073-6.422-7.7-1.622-22.852-2.598-28.892-1.862m50 1.78c0 .216.698.661 1.552.989.89.341 1.291.173.941-.393-.587-.951-2.493-1.406-2.493-.596m4 2.056c0 .275 1.35 1.198 3 2.051s3 1.326 3 1.051-1.35-1.198-3-2.051-3-1.326-3-1.051m7 4.492c0 .518.445 1.216.989 1.552.566.35.734-.051.393-.941-.665-1.732-1.382-2.049-1.382-.611m3.008 2.809c.004.413 1.184 1.296 2.622 1.963 2.556 1.187 2.574 1.17.837-.75-1.803-1.992-3.473-2.578-3.459-1.213M163 31.105c0 .296 2.025 2.651 4.5 5.234s4.5 5.044 4.5 5.47 1.533 2.399 3.406 4.386c4.526 4.798 11.297 19.261 13.952 29.802 1.178 4.677 2.571 8.811 3.095 9.188 1.37.983 1.33 29.702-.042 30.601-.6.393-1.648 3.596-2.331 7.118s-2.37 8.922-3.749 12c-3.322 7.413-4.36 10.096-3.908 10.096.736 0 6.243-11.586 7.605-16 .763-2.475 1.857-4.831 2.43-5.235.64-.451.463-.746-.458-.765-1.129-.023-1.19-.228-.247-.826 1.897-1.205 2.755-8.335 2.668-22.174-.087-13.912-.863-21.037-2.393-21.983-.56-.346-1.119-1.841-1.241-3.323S190.137 72 189.615 72s-.652-.296-.29-.658.156-1.262-.456-2c-.613-.738-.818-1.342-.456-1.342s.096-1.013-.59-2.25-1.152-2.587-1.035-3-.265-.75-.847-.75-.8-.419-.484-.931.118-1.213-.441-1.559S184 58.009 184 56.941 183.599 55 183.108 55c-.49 0-1.146-1.017-1.458-2.259-.312-1.243-2.161-4-4.109-6.126S174 42.452 174 42.09s-2.475-3.103-5.5-6.09-5.5-5.19-5.5-4.895M36.872 33.75c-1.243 1.586-1.208 1.621.378.378.962-.755 1.75-1.543 1.75-1.75 0-.823-.821-.294-2.128 1.372m50.668 4.186c-.893 1.445.771 3.46 2.407 2.915.78-.26.701-.95-.26-2.264-1.026-1.403-1.579-1.571-2.147-.651M41 42c0 .55.45 1 1 1s1-.45 1-1-.45-1-1-1-1 .45-1 1m49.627 6.75c-.279.962-1.002 3.663-1.606 6-1.092 4.225-2.395 5.389-3.359 3-.277-.687-.54-.237-.583 1-.046 1.297.451 2.144 1.171 2 .688-.137 1.137.313 1 1-.138.688-.077 1.25.135 1.25.896 0 7.034-2.925 6.212-2.961C93.1 60.018 93.732 59.1 95 58l2.306-2h-3.153C91.316 56 91 55.699 91 53c0-1.65.45-3 1-3s1-.675 1-1.5c0-2.073-1.752-1.889-2.373.25M174 57.893c0 .491.652 1.143 1.449 1.449q1.452.56.893-.893c-.607-1.582-2.342-1.994-2.342-.556M17.772 66.767C12.614 79.515 10.836 88.449 10.761 102c-.038 6.875.231 13.85.597 15.5.367 1.65.931 4.575 1.254 6.5.324 1.925 1.009 4.287 1.523 5.25.515.963.684 1.75.377 1.75s.179 1.125 1.08 2.5 1.336 2.5.966 2.5c-.369 0 .029 1 .885 2.223S19 141.044 19 141.776c0 2.548 7.153 12.083 15.5 20.661 3.835 3.94 4.053 4.08.937.601-5.475-6.115-9.944-13.17-7.827-12.357 1.401.537 1.382.203-.163-2.785-.965-1.868-2.308-3.846-2.985-4.396s-2.595-4.6-4.261-9c-8.106-21.398-8.212-45.459-.298-67.965 2.396-6.817 2.339-6.539 1.347-6.523-.413.007-1.978 3.047-3.478 6.755m63.621-2.61C79.084 65.276 76 70.924 76 74.034c0 1.081-.367 1.966-.816 1.966-1.171 0-5.339 7.705-4.99 9.225.161.701-.072 1.364-.516 1.473-1.516.372-4.738 5.19-7.212 10.783-1.358 3.071-3.112 5.83-3.898 6.131-.785.302-1.948 1.975-2.583 3.718-1.118 3.069-1.183 3.098-2.038.92-1.459-3.719-2.259-2.546-1.591 2.333.817 5.956 1.857 7.622 2.752 4.407l.693-2.49.059 2.5c.033 1.391-1.255 4.037-2.901 5.962-1.627 1.904-2.959 3.897-2.959 4.427 0 .531-1.607 3.298-3.571 6.15-3.079 4.47-3.477 5.688-2.887 8.834.377 2.007 1.074 3.89 1.551 4.184.86.532 4.95-1.229 5.907-2.543 1.582-2.171 29.162-6.689 33.788-5.535 2.346.586 2.153.272-1.428-2.328-3.626-2.631-5.293-3.092-13.43-3.712-13.511-1.03-14.37-1.362-14.737-5.695-.255-3.01.151-3.923 2.393-5.393 2.375-1.555 5.183-1.758 23.307-1.677 16.508.074 19.115-.083 13.107-.786-4.125-.483-11.55-1.058-16.5-1.278-9.921-.44-17.585-2.429-9.815-2.547 2.302-.034 5.452.39 7 .943l2.815 1.006-2.684-2.042c-2.525-1.919-5.616-8.504-4.511-9.609.278-.277.813.898 1.189 2.612.864 3.933 6.499 7.762 12.006 8.158 5.715.411 22.875-1.123 24.57-2.196.921-.582-1.506-.91-6.82-.92L93 111v-3c0-2.185.476-3.004 1.75-3.015.963-.009 2.425-.488 3.25-1.066 1.173-.821 1.008-.912-.757-.415-1.75.493-2.465.115-3.186-1.685-.914-2.278-.931-2.27-.994.431-.034 1.513-.469 2.75-.965 2.75s-1.363 1.322-1.926 2.938c-.784 2.249-2.012 3.233-5.235 4.199-3.789 1.135-4.566 1.055-7.775-.807-2.978-1.726-3.834-3.035-5.191-7.936l-1.626-5.869-.722 3.487-.722 3.488-1.974-2.389c-1.997-2.418-1.944-3.757.362-9.261 1.264-3.015 9.541-7.169 12.428-6.237 1.496.483 1.541.402.283-.503-1.206-.868-.923-1.082 1.45-1.095 3.163-.016 2.525-1.516-.95-2.234-1.1-.227 1.375-.969 5.5-1.649 11.329-1.868 12.853-2.984 4.184-3.064C80.999 77.983 79 76.995 79 72.538c0-2.7.761-4.019 3.728-6.465 3.623-2.987 2.929-3.983-1.335-1.916m40.607-.12c0 .635-.975 2.524-2.167 4.198-1.334 1.872-1.622 2.797-.75 2.405a50 50 0 0 1 3.167-1.256c1.882-.664 2.416-4.854.75-5.884-.55-.34-1-.098-1 .537M67.015 82.75c.009.412.452 1.425.985 2.25.784 1.213.972 1.069.985-.75C68.993 83.013 68.55 82 68 82s-.993.338-.985.75m67.196 3.999c-1.259 1.928-2.077 3.718-1.818 3.977.885.885 5.544-3.223 5.576-4.917.056-3.015-1.417-2.646-3.758.94M16.252 91.5c.011 2.2.216 2.982.455 1.738s.23-3.044-.02-4-.446.062-.435 2.262m63.977-1.831c-3.922 1.578-5.535 11.978-2.537 16.358 3.262 4.767 5.121 5.069 8.763 1.428 2.977-2.977 3.388-8.192 1.082-13.712-1.737-4.157-3.985-5.411-7.308-4.074m39 0c-2.042.822-4.229 5.93-4.229 9.877 0 6.709 5.786 12.715 8.61 8.938.611-.816 1.608-1.484 2.215-1.484 1.699 0 3.175-3.478 3.175-7.484 0-7.204-4.662-11.902-9.771-9.847m-48.15 5.914c.048 1.165.285 1.402.604.605.289-.722.253-1.585-.079-1.917s-.568.258-.525 1.312m36.895 2.336c-.811.968-2.374 2.316-3.474 2.996l-2 1.236 2-.687c3.881-1.332 4.941-.929 6.664 2.536 1.914 3.85 2.344 6.432.924 5.554-.502-.31-.8.201-.663 1.135.275 1.873 6.596 6.36 7.886 5.598.446-.264-.653-1.224-2.441-2.134s-3.463-2.328-3.723-3.153c-.399-1.268-.223-1.294 1.138-.171 1.277 1.054 1.19.461-.421-2.874-1.116-2.311-2.278-5.732-2.582-7.602-.677-4.177-1.403-4.711-3.308-2.434M96 99.406c0 .912.7 1.224 1.989.887 1.094-.286 1.742-.919 1.441-1.407-.873-1.412-3.43-1.025-3.43.52m50 .021c0 .786-1.22 2.388-2.711 3.561-2.231 1.754-2.453 2.296-1.25 3.057 2.114 1.337 3.606 1.167 5.39-.616 2.054-2.055 2.105-7.429.071-7.429-.825 0-1.5.642-1.5 1.427m-16.514 8.917c-1.425 2.234-3.324 3.523-6.5 4.411l-4.486 1.256 4-.588c2.2-.324 4.9-.7 6-.836 2.454-.303 5.411-5.095 3.985-6.458-.629-.601-1.712.198-2.999 2.215M16.158 111c0 1.375.227 1.938.504 1.25.278-.687.278-1.812 0-2.5-.277-.687-.504-.125-.504 1.25m134.68 6c-3.125 5.284-2.811 6.427.78 2.836 1.658-1.658 2.439-3.397 2.22-4.947-.305-2.152-.601-1.944-3 2.111m35.241-2.417c.048 1.165.285 1.402.604.605.289-.722.253-1.585-.079-1.917s-.568.258-.525 1.312m-63.829 1.106c.963.252 2.537.252 3.5 0 .963-.251.175-.457-1.75-.457s-2.713.206-1.75.457M185.158 124c0 1.375.227 1.938.504 1.25.278-.687.278-1.812 0-2.5-.277-.687-.504-.125-.504 1.25m-103.846 3.115c1.11.646 8.759 1.006 19.75.93 9.866-.069 17.924.231 17.906.665-.017.435-.678 1.644-1.468 2.687-.79 1.044-1.193 2.291-.896 2.771.634 1.026-5.521 3.78-8.822 3.948-1.706.087-1.839.232-.524.575 3.152.823 8.535-1.719 12.176-5.75 6.295-6.967 6.354-6.945-18.184-6.911-15.735.022-21.249.322-19.938 1.085m79.482 4.666c-1.806 3.762-1.592 5.219.765 5.219 1.815 0 1.802.401-.13 4.138-2.06 3.982-10.405 7.808-20.071 9.2-5.373.774-10.652.735-19.605-.148-6.739-.663-14.728-1.21-17.753-1.214-3.025-.003-6.175-.443-7-.976-1.146-.741-.768-.973 1.605-.985 6.469-.032 29.111-2.088 34.145-3.101 2.887-.58 5.25-1.474 5.25-1.985 0-1.165-7.713-1.237-8.167-.076-.183.469-2.808 1.107-5.833 1.417s-4.713.343-3.75.074c.963-.27 1.75-.847 1.75-1.283s2.588-1.738 5.75-2.892 7.325-3.481 9.25-5.17l3.5-3.072-5.5 2.974c-3.025 1.635-9.55 4.014-14.5 5.286s-9.225 2.6-9.5 2.95-6.125 1.4-13 2.333-17.225 2.559-23 3.612c-14.606 2.664-22.75 2.557-27.102-.357-1.869-1.251-3.842-3.276-4.385-4.5S42.182 141 41.763 141 41 139.452 41 137.559s-.45-3.719-1-4.059c-1.275-.788-1.303 3.958-.048 8.333.524 1.826 2.436 4.634 4.25 6.24 5.935 5.257 13.192 6.083 29.048 3.308 8.093-1.416 11.25-1.465 25.25-.388 8.8.677 16.9 1.414 18 1.638 5.282 1.072 27.321.318 32.086-1.099 6.29-1.87 13.156-6.724 14.495-10.246 3.274-8.611 1.274-16.924-2.287-9.505m-62.044 7.925c1.237.238 3.263.238 4.5 0 1.237-.239.225-.434-2.25-.434s-3.487.195-2.25.434m17.063 4.977c.721.289 1.584.253 1.916-.079s-.258-.568-1.312-.525c-1.165.048-1.402.285-.604.604m57.694 3.306c-.35.566.051.734.941.393 1.732-.665 2.049-1.382.611-1.382-.518 0-1.216.445-1.552.989m-2.635 3.761c-1.243 1.586-1.208 1.621.378.378 1.666-1.307 2.195-2.128 1.372-2.128-.207 0-.995.787-1.75 1.75m-4.859 6.232c-1.168 1.64-2.601 2.877-3.185 2.75-.584-.128-1.2.594-1.369 1.604-.298 1.782-.247 1.782 1.725 0 2.307-2.085 6.21-7.336 5.452-7.336-.275 0-1.455 1.342-2.623 2.982m-8.807 5.586c-1.232.863-1.977 1.994-1.656 2.513.815 1.319 3.743-.472 4.036-2.469.289-1.967.364-1.966-2.38-.044m-.699 1.421c-.35.566.051.734.941.393 1.732-.665 2.049-1.382.611-1.382-.518 0-1.216.445-1.552.989m-4.433 2.422c-.801.965-.839 1.616-.123 2.059.577.356 1.083.509 1.126.339.448-1.813.688-3.809.457-3.809-.159 0-.816.635-1.46 1.411m-2.741 3.045c0 .801.383 1.22.85.931s.591-.944.274-1.456c-.808-1.308-1.124-1.161-1.124.525m-7.122 3.943c.709.77 1.447 1.25 1.639 1.067.593-.564-.91-2.466-1.948-2.466-.54 0-.401.63.309 1.399m-3.211.542c0 .518.445 1.216.989 1.552.566.35.734-.051.393-.941-.665-1.732-1.382-2.049-1.382-.611m-68 11.476c0 .229 3.993 1.354 8.874 2.5 6.515 1.529 12.212 2.083 21.434 2.083 12.647 0 26.195-2.011 28.178-4.183.706-.773.642-.901-.208-.422-2.753 1.551-18.405 3.602-27.493 3.604-5.615 0-14.054-.842-20-1.996C70.126 185.739 71 185.868 71 186.417"/></svg>