<svg xmlns="http://www.w3.org/2000/svg" width="200" height="200" fill="#000000"><path fill-opacity=".306" fill-rule="evenodd" d="M84.267 1.585C74.324 3.254 66.01 5.927 56 10.672c-9.747 4.621-15.735 8.935-25.312 18.239C14.056 45.068 5.63 61.536 1.478 86c-1.82 10.719-1.82 17.281 0 28 2.246 13.231 3.503 17.3 9.248 29.939 7.538 16.583 24.553 34.742 40.322 43.03l3.548 1.865 3.365-10.657c2.967-9.397 3.376-12.02 3.452-22.168.084-11.137.198-11.714 3.517-17.835 4.972-9.17 14.007-17.135 22.197-19.567 9.026-2.68 14.029-3.059 20.962-1.588 12.571 2.668 24.445 12.774 28.854 24.558 2.96 7.911 2.97 19.909.023 27.784-7.109 19.001-28.583 29.906-47.557 24.15-2.7-.819-4.989-1.494-5.086-1.5s-.382.776-.634 1.739c-.388 1.486-.481 1.448-.615-.25-.094-1.187-2.64-3.829-6.267-6.5-4.206-3.098-7.267-6.437-9.829-10.718l-3.72-6.218-3.629 8.756c-1.996 4.815-3.629 9.242-3.629 9.837 0 1.849 11.261 6.076 23.647 8.875 10.437 2.359 13.287 2.617 23.853 2.161 37.631-1.628 69.389-22.118 86.081-55.541 4.537-9.085 6.242-14.526 9.45-30.152 2.003-9.759 2.64-23 1.107-23-.475 0-1.165-2.57-1.534-5.712-2.833-24.107-17.452-48.949-37.91-64.42C138.767 4.285 110.57-2.829 84.267 1.585M111.5 22c-.34.55-.168 1 .382 1s1.278-.45 1.618-1 .168-1-.382-1-1.278.45-1.618 1M66 26c-1.282.828-1.246.972.25.985.963.008 1.75-.435 1.75-.985 0-1.22-.113-1.22-2 0m4 1.43c0 .275.9.981 2 1.57s2 .845 2 .57-.9-.981-2-1.57-2-.845-2-.57m-5.046 11.707c-5.044 3.012-9.86 7.84-12.042 12.073-2.985 5.791-2.261 6.461 1.804 1.67 2.044-2.409 6.188-6.724 9.208-9.589 6.006-5.699 6.421-7.374 1.03-4.154m83.589 2.794c-.317.512-.118 1.213.441 1.559s1.016-.074 1.016-.931c0-1.757-.6-2.015-1.457-.628M91.402 83.746c1.459 1.724 2.215 1.987 3.25 1.128.741-.615 1.348-1.379 1.348-1.696 0-.318-.534-.044-1.186.608-.915.915-1.658.79-3.25-.55-2.059-1.732-2.059-1.73-.162.51M.349 100c0 4.675.173 6.587.383 4.25.211-2.338.211-6.163 0-8.5-.21-2.338-.383-.425-.383 4.25M87 111c-.589 1.1-.845 2-.57 2s.981-.9 1.57-2 .845-2 .57-2-.981.9-1.57 2m9 23.196c0 1.645-.335 2.329-1.618 3.304C92.723 138.761 81 159.052 81 160.663c0 .657.707 1.901 1.571 2.766 1.267 1.266 4.081 1.571 14.5 1.571H110v11.127l3.25-.314 3.25-.313.292-7.137c.41-10.057-.014-10.363-14.363-10.363-6.802 0-11.429-.397-11.429-.981 0-.539 1.575-3.442 3.5-6.452s3.5-5.702 3.5-5.984 1.35-2.642 3-5.244 3-5.111 3-5.575-1.8-.739-4-.609-4 .598-4 1.041"/><path fill-opacity=".265" fill-rule="evenodd" d="M88.5 1.1C62.47 5.663 46.144 13.695 29.92 29.92 12.958 46.881 4.487 65.039 1.003 91.9c-1.096 8.442-1.054 9.492.41 10.311.896.502 1.364 1.341 1.04 1.865-.341.552 1.229.919 3.729.872 6.317-.118 7.818.224 7.818 1.778 0 .797-.493 1.087-1.155.679-.699-.433-.883-.276-.467.397.913 1.477 3.622.373 3.622-1.476 0-1.061.616-1.264 2.25-.744 1.238.395 2.925.763 3.75.818s1.862.667 2.305 1.36c.443.692 1.905 1.06 3.25.816 1.381-.251 2.445.035 2.445.657 0 .605.293.807.651.449s1.265.13 2.015 1.084c.749.953 1.303 1.284 1.23.734-.362-2.727.308-2.727 2.216 0 1.154 1.65 1.832 2.189 1.505 1.198-.419-1.27-.228-1.572.644-1.025.682.427 2.139.656 3.239.507 1.651-.222 1.739-.09.5.76-1.233.846-1.099 1.032.75 1.045 1.237.008 2.257.578 2.265 1.265.011.846.317.774.947-.222.78-1.234 1.048-1.153 1.656.5 1.355 3.68 8.172 12.953 12.847 17.472 4.398 4.252 4.713 4.39 5.722 2.5.587-1.1 4.498-5.419 8.69-9.598 7.569-7.545 17.109-21.26 17.138-24.639.013-1.481.165-1.527.95-.286.616.975.499 1.995-.346 3-.705.838-2.565 3.773-4.134 6.523s-3.446 5.595-4.17 6.321c-2.42 2.432-1.352 2.958 2.935 1.444 20.498-7.241 44.101 4.554 50.403 25.188 4.171 13.657.716 29.553-8.529 39.238-3.383 3.544-11.067 8.48-16.291 10.464-6.088 2.314-19.025 2.498-24.179.345-4.44-1.855-4.654-1.855-4.654 0 0 2.624-1.764 1.615-2.907-1.662-1.269-3.642-2.385-3.462-1.31.212 1.637 5.592 2.523 6.148 11.585 7.271 6.504.806 11.191.759 18.891-.189 14.814-1.823 22.402-4.016 34.207-9.887 25.72-12.791 44.46-35.636 51.88-63.245 2.648-9.854 4.93-28.896 3.815-31.84-.555-1.463-1.491-6.158-2.082-10.434-4.216-30.518-25.943-59.815-54.079-72.921-12.347-5.752-15.05-6.563-31-9.308C103.636-.114 96.12-.236 88.5 1.1M113 8.947c1.159.878.478.996-3 .52-3.111-.425-6.964.046-12.484 1.527-4.392 1.178-8.175 2.332-8.408 2.565s-1.112-.135-1.953-.818c-1.269-1.03-1.427-.966-.926.373.442 1.182-.582 2.207-3.824 3.827-2.436 1.216-4.167 2.634-3.848 3.151.614.993 1.306.713 5.633-2.281 2.638-1.826 2.687-1.824 2.542.095-.081 1.075-.391 1.809-.69 1.63s-1.122.302-1.831 1.069c-.71.767-1.16 1.429-1 1.472 2.965.784 4.03.471 4.787-1.406.481-1.194.904-1.599.939-.9.041.838 2.107.208 6.06-1.85 3.299-1.716 5.817-3.413 5.596-3.771-.221-.357.568-.712 1.752-.787 3.558-.226 17.329-4.134 14.987-4.253-1.193-.061-2.993-.377-4-.704-1.546-.502-1.598-.417-.332.541m-20.82 5.337c-.739.889-.747 1.733-.028 2.75.876 1.238.957 1.213.52-.162-.283-.896-.011-2.133.606-2.75S94.14 13 93.822 13s-1.056.578-1.642 1.284m19.004 7.861c-2.374 1.681-4.075 3.297-3.781 3.591.544.544 3.099-1.026 7.597-4.667 3.891-3.151 1.004-2.337-3.816 1.076m-40.543 1.228c-5.672 2.958-5.775 3.082-3.243 3.926 1.438.48 2.386 1.241 2.107 1.693s.326.604 1.345.337 2.502.113 3.296.843c.794.731 2.728 2.453 4.297 3.828l2.853 2.5-.698-2.5c-.384-1.375-.801-2.95-.926-3.5-.126-.55-.587-1.574-1.024-2.275s-.426-1.151.028-1c1.749.583.471-5.479-1.364-6.469-.447-.24-3.448.937-6.671 2.617m-5.618 9.323c-2.193 1.536-8.605 7.92-11.776 11.723-3.005 3.604-7.219 11.857-9.544 18.69-3.104 9.123-4.122 17.743-3.19 27.016.691 6.886.766 7.04 2.539 5.235 2.26-2.301 9.822-16.631 13.383-25.36 4.438-10.882 7.39-16.325 11.12-20.506 5.572-6.246 8.732-11.305 8.095-12.964-.517-1.347-6.309-5.517-7.677-5.526-.291-.002-1.618.759-2.95 1.692m25.155 7.877c-2.502 2.833-.611 3.704 2.365 1.088 2.592-2.277 2.71-2.597.957-2.591-1.1.003-2.595.68-3.322 1.503M148 42.465c0 .805.853 1.921 1.896 2.48 1.737.929 1.8.806.75-1.457C149.372 40.74 148 40.21 148 42.465M97.872 79.75c-1.243 1.586-1.208 1.621.378.378C99.916 78.821 100.445 78 99.622 78c-.207 0-.995.787-1.75 1.75M91.232 84c1.531 2.452 2.138 2.491 3.896.25 1.241-1.583 1.207-1.62-.366-.387-1.489 1.167-1.827 1.131-2.357-.25-.341-.887-1.025-1.613-1.52-1.613s-.34.9.347 2m-.648 4.641c-.527 1.373-.38 1.435.893.378 1.735-1.44 1.916-2.019.63-2.019-.491 0-1.176.739-1.523 1.641m4.975 5.827c1.067.808 2.365 1.483 2.882 1.5.518.018.068-.629-1-1.436-1.067-.808-2.365-1.483-2.882-1.5-.518-.018-.068.629 1 1.436M.232 99c0 1.925.206 2.713.457 1.75.252-.963.252-2.537 0-3.5-.251-.963-.457-.175-.457 1.75M8 105.393c0 .216.698.661 1.552.989.89.341 1.291.173.941-.393-.587-.951-2.493-1.406-2.493-.596m91.292 28.857c.114.55-.417 1.227-1.181 1.505-.965.35-1.136.083-.562-.875.455-.759-.351-.262-1.791 1.104-1.616 1.533-2.211 2.736-1.553 3.143.646.399.248 1.096-1.013 1.77-1.812.97-9.546 13.364-11.467 18.376-.437 1.139.044 2.496 1.346 3.798 1.651 1.651 3.082 1.971 7.727 1.727 5.69-.297 5.702-.305 5.766-3.548.06-3.047-.15-3.25-3.365-3.25-3.323 0-3.384-.07-1.967-2.25a81 81 0 0 0 2.559-4.25c.603-1.1 3.147-5.48 5.653-9.733s4.556-7.909 4.556-8.125-1.106-.392-2.458-.392-2.365.45-2.25 1m3.538 25.5c.495.963.698 2.313.452 3-.247.688.264 1.25 1.135 1.25.87 0 1.583-.638 1.583-1.418 0-2.533-1.181-4.582-2.642-4.582-1.037 0-1.181.48-.528 1.75m3.987 1.812c.295 2.522.821 3.407 1.8 3.032.805-.31 1.383.107 1.383.996 0 .932.488 1.253 1.25.822 1-.564 1-.436 0 .641-.687.741-1.25 2.832-1.25 4.647 0 3.119.197 3.3 3.58 3.3h3.581l-.629-7.721c-.347-4.259-1.168-8.063-1.83-8.485-.661-.42-2.799-.77-4.751-.779-3.482-.015-3.541.053-3.134 3.547m-55.317 9.07c-9.974 1.997-16.5 3.736-16.5 4.397 0 .952 12.183 9.763 16.659 12.049 3.127 1.597 3.164 1.587 3.668-.982.528-2.695 1.779-7.259 3.52-12.846 1.001-3.209.974-3.249-2.167-3.134-1.749.064-4.08.296-5.18.516m8.649 7.343c-3.711 8.299-4.94 12.632-3.295 11.615.63-.389 1.146-.338 1.146.115 0 1.415 17.675 8.078 18.589 7.008.101-.117.486-2.051.857-4.298.63-3.82.449-4.258-2.787-6.726-1.903-1.451-5.255-5.327-7.449-8.612l-3.989-5.973z"/><path fill-opacity=".147" fill-rule="evenodd" d="M87.39 1.536c-4.461.696-11.564 2.214-15.786 3.372-9.494 2.604-23.963 9.702-22.989 11.278.432.699.242.844-.505.382-1.115-.689-7.387 3.501-14.36 9.593-2.652 2.317-3.846 4.634-1.706 3.312.574-.355 2.037-.028 3.25.728 4.534 2.821 7.599 3.781 8.325 2.607.395-.639.241-.839-.36-.468-.577.357-1.311-.034-1.632-.869-.495-1.29-.248-1.332 1.646-.284 1.225.678 2.717 1.135 3.316 1.016s1.906.686 2.905 1.79S51.915 36 52.655 36 54 36.45 54 37s.477 1 1.059 1 .781-.45.441-1-.216-1 .274-1c1.941 0 2.145 1.439.485 3.419-1.275 1.521-1.008 1.43.994-.34 1.507-1.331 2.519-2.641 2.249-2.91s.519-.993 1.752-1.608 2.286-1.78 2.341-2.589c.055-.81.221-1.922.368-2.472s.328-1.556.402-2.235 2.835-2.577 6.135-4.218 5.138-2.998 4.083-3.016c-2.667-.043-1.669-.745 1.917-1.346 1.65-.276 4.549-1.295 6.443-2.263l3.442-1.761-3.192-1.512C81.327 12.266 80 10.881 80 9.819c0-2.432 1.289-2.293 5.936.641l3.896 2.459 6.834-1.856C106.993 8.258 120.02 6.679 123 7.872c1.375.551 1.911 1.03 1.191 1.065S123.16 9.45 123.5 10s.021 1-.709 1-2.982 1.125-5.006 2.5-4.102 2.5-4.619 2.5c-2.045 0-10.971 6.686-13.015 9.75-1.193 1.787-1.715 3.25-1.16 3.25S100 28.55 100 28s.505-1 1.122-1c.826 0 .828.355.009 1.342-.612.738-.794 1.662-.403 2.053s-.063.414-1.008.051c-1.202-.461-1.72-.159-1.72 1.006 0 1.005.458 1.383 1.155.953.721-.446.882-.274.429.458-.513.831-1.543.511-3.532-1.095-2.436-1.968-2.625-2.477-1.43-3.847.758-.868 1.378-1.93 1.378-2.361 0-.43-.832.246-1.849 1.502l-1.849 2.283-4.771-3.219c-5.474-3.695-7.101-3.379-3.271.634l2.614 2.74-2.807 3.429-2.808 3.43-3.842-3.167c-2.593-2.137-4.171-2.838-4.854-2.155-.684.684-.076 1.818 1.868 3.488C76.015 35.886 77.643 37 78.049 37c2.199 0 1.761 3.739-.871 7.432C73.558 49.512 66 62.846 66 64.152c0 1.624-13.014 28.135-15.389 31.348-5.618 7.603-6.393 9.791-5.065 14.291 1.725 5.843 9.433 17.845 14.865 23.147 2.501 2.44 4.709 4.24 4.906 4s1.743-2.487 3.434-4.992 4.874-5.8 7.072-7.323c3.864-2.678 12.643-15.458 15.153-22.06.763-2.007 1.417-2.57 2.142-1.845.726.726-.451 3.446-3.855 8.913-2.695 4.328-5.193 8.367-5.551 8.975-.364.617 1.877.252 5.068-.825 11.545-3.896 27.553-.642 36.776 7.477 14.131 12.438 18.062 31.438 9.93 47.982-6.629 13.484-19.454 21.455-35.068 21.798-4.355.095-8.593-.086-9.418-.403-7.239-2.779-7.272-2.782-6.716-.657.947 3.623-2.065 2.215-3.306-1.545-.648-1.962-1.376-3.368-1.62-3.125-.243.243.281 2.248 1.164 4.455 1.268 3.169 2.258 4.143 4.71 4.633 16.89 3.378 38.777.313 56.391-7.896 21.472-10.009 37.148-25.151 47.622-46 5.328-10.606 7.007-16.433 10.181-35.343l.561-3.343-4.993.687c-2.747.378-4.994.427-4.994.11 0-.318 2.25-1.717 5-3.111 4.76-2.412 5-2.728 5-6.583v-4.049l-7.607 4.126c-4.184 2.269-7.857 3.875-8.164 3.569s-.487-2.335-.402-4.507-.291-4.225-.836-4.562c-1.914-1.182-.958-5.507 2.37-10.725 1.848-2.898 3.686-6.305 4.084-7.572.592-1.885.988-2.082 2.185-1.089.803.667 1.249 1.764.99 2.439-.306.797.203 1.05 1.455.723 2.332-.61 2.347-.937.325-6.985-8.812-26.352-28.409-47.565-54.9-59.426-8.148-3.648-17.308-6.028-30.192-7.845-8.56-1.207-11.253-1.143-21.918.522m29.879 9.157c.973.254 2.323.237 3-.037s-.119-.481-1.769-.461-2.204.244-1.231.498m-4.456.99c.721.289 1.584.253 1.916-.079s-.258-.568-1.312-.525c-1.165.048-1.402.285-.604.604M101 15c-.825.533-1.05.969-.5.969s1.675-.436 2.5-.969 1.05-.969.5-.969-1.675.436-2.5.969m10.604 6.226c-2.868 2.883-4.108 3.577-4.696 2.625-.44-.711-1.094-.999-1.454-.639-.98.98.254 2.478 2.532 3.074 1.285.336 1.775.137 1.351-.549-.42-.68-.056-.843.987-.443.909.349 1.545.255 1.414-.208s1.28-2.177 3.136-3.809c2.365-2.081 2.963-3.118 2-3.469-.756-.276-3.127 1.262-5.27 3.418M69 21.5c-.685.825-.933 1.5-.551 1.5s1.369-.675 2.194-1.5 1.073-1.5.551-1.5-1.509.675-2.194 1.5m-4.322 8.897c-.326.849.598 1.222 2.908 1.174 4.408-.092 5.146-2.019.86-2.245-1.847-.097-3.5.373-3.768 1.071m20.91 2.353C81.251 37.346 80.14 41.393 82.5 44c3.012 3.329 4.723 1.408 4.129-4.637-.29-2.95-.129-5.363.356-5.363s.679 1.125.429 2.5c-.257 1.421.02 2.5.642 2.5.602 0 1.013-1.237.913-2.75s-.099-2.975.002-3.25c.474-1.3.814-4 .503-4-.191 0-1.94 1.688-3.886 3.75M56 31c0 .55.45 1 1 1s1-.45 1-1-.45-1-1-1-1 .45-1 1m35.209 8.566C89.054 41.075 88.156 44 89.847 44c.466 0 1.896-.91 3.178-2.022 2.99-2.593 1.42-4.678-1.816-2.412m57.438 1.272c-1.554 1.717-1.543 1.946.174 3.5 2.085 1.887 4.219 2.302 2.379.462-.66-.66-1.2-2.061-1.2-3.113 0-1.55.56-1.832 2.947-1.481 1.621.237 2.72.064 2.441-.387-.915-1.48-5.045-.856-6.741 1.019M155.5 45c-.34.55-.141 1 .441 1S157 45.55 157 45s-.198-1-.441-1-.719.45-1.059 1m-49.576 25.75L103.5 73.5l2.75-2.424c2.57-2.266 3.209-3.076 2.424-3.076-.179 0-1.416 1.237-2.75 2.75m-8.727 9.763c-2.98 3.386-4.118 4.136-4.553 3-.32-.832-1.061-1.513-1.648-1.513-.744 0-.754.584-.031 1.934 1.303 2.434 1.319 3.36.046 2.573-.552-.341-.742.03-.431.84.306.798.076 1.748-.512 2.111-1.517.937-1.323 2.209.337 2.209.836 0 1.172-.606.83-1.498-.405-1.054-.183-1.255.75-.679.845.523 1.084.431.66-.255-.365-.591-.097-1.673.596-2.406C95.838 84.083 102.115 76 101.652 76c-.265 0-2.27 2.031-4.455 4.513m96.126-3.817c-1.198.233-2.773 1.146-3.5 2.028-1.195 1.449-1.082 1.475 1.177.271 1.375-.733 2.543-1.369 2.596-1.414s.841.537 1.75 1.291c1.45 1.204 1.654 1.111 1.654-.75 0-1.167-.338-2.061-.75-1.986s-1.73.327-2.927.56M103.5 78c-.34.55-.141 1 .441 1S105 78.55 105 78s-.198-1-.441-1-.719.45-1.059 1m-1.608 11.058c1.315 1.096 2.632 1.751 2.927 1.457.637-.638-2.886-3.452-4.319-3.45-.55.001.076.898 1.392 1.993m-2.142 1.94c1.493 1.675 1.663 3.375.25 2.502-.55-.34-1-.09-1 .556 0 .775-.85.617-2.5-.464-1.375-.901-2.5-1.194-2.5-.65 0 1.885 3.853 3.207 6 2.058 2.46-1.316 2.524-2.359.25-4.079-1.489-1.127-1.563-1.115-.5.077M142 114.059c0 .582.45.781 1 .441s1-.816 1-1.059-.45-.441-1-.441-1 .477-1 1.059m-43.984 21.759c-3.016 1.39-4.923 2.713-4.237 2.942.788.262.138 1.449-1.772 3.233-2.091 1.954-2.81 3.358-2.342 4.577.458 1.193.303 1.528-.484 1.042-.78-.482-.943-.156-.5 1 .453 1.181.286 1.486-.536.978-.657-.406-1.072-.368-.923.086s-.965 2.441-2.475 4.418C79.589 160.845 81.808 165 90.571 165H96v-3.437c0-3.05-.325-3.472-2.889-3.75l-2.888-.313 4.014-7c2.207-3.85 4.905-8.575 5.995-10.5s2.447-4.073 3.017-4.774c1.769-2.176.454-2.027-5.233.592m-9.144 18.932c-1.243 1.586-1.208 1.621.378.378.963-.755 1.75-1.543 1.75-1.75 0-.823-.821-.294-2.128 1.372m-4.467 5.5L82.5 162.5l2.25-1.905c2.114-1.79 2.705-2.595 1.905-2.595-.19 0-1.202 1.012-2.25 2.25m22.595.691c0 1.618.45 3.219 1 3.559.595.368 1-.823 1-2.941 0-1.957-.45-3.559-1-3.559s-1 1.323-1 2.941m4.323 1.4c.382 2.785.162 4.8-.614 5.622-.98 1.039-.777 1.059 1.069.109 1.253-.645 2.017-1.595 1.698-2.111s.118-.67.972-.343c1.22.469 1.552-.152 1.552-2.904 0-2.269-.556-3.714-1.582-4.107-3.225-1.238-3.698-.667-3.095 3.734M110.5 171c.34.55.816 1 1.059 1s.441-.45.441-1-.477-1-1.059-1-.781.45-.441 1m2.723.557c-3.071 2.151-2.78 3.443.777 3.443 2.533 0 3-.389 3-2.5 0-2.906-.719-3.085-3.777-.943m-53.592 7.971c-2.06 4.745-3.547 9.154-3.303 9.799s.956.048 1.581-1.327l1.137-2.5-.487 2.53c-.414 2.153.067 2.771 3.227 4.142 2.707 1.175 3.913 1.302 4.449.47.526-.818.739-.78.75.133.015 1.276 2.221 2.378 7.135 3.565 2.443.59 2.657.36 3.161-3.395.509-3.796.242-4.329-4.621-9.22-2.838-2.855-5.498-5.086-5.91-4.958s-.766-.554-.785-1.517-.61-2.784-1.312-4.049c-1.209-2.178-1.472-1.847-5.022 6.327m4.993 2.011c-.965 2.514-.681 3.163.498 1.136.584-1.004.851-2.036.593-2.293-.257-.258-.749.263-1.091 1.157m-3.258 7.127c.173 3.008 1.272 3.008 1.847.001.269-1.408-.036-2.334-.767-2.334-.668 0-1.153 1.05-1.08 2.333"/><path fill-opacity=".685" fill-rule="evenodd" d="M130.871 11.963c3.107 2.973 3.244 3.351 1.75 4.845-.917.917-1.621 1.129-1.621.49 0-.622.338-1.32.75-1.551s.155-.27-.572-.087c-.728.183-2.303-.178-3.5-.803-1.66-.866-1.498-.495.683 1.559 2.726 2.567 3.085 5.029.41 2.809-.91-.755-1.983-.682-3.732.254-1.557.833-3.248 1.012-4.625.488-4.628-1.759-7.723 3.545-4.403 7.546.716.863.744 1.52.081 1.93-.552.342-.757 1.394-.454 2.339.468 1.459.388 1.492-.528.218-.594-.825-1.12-1.275-1.169-1s-.271 1.466-.493 2.646c-.437 2.325.903 3.856 4.052 4.63 1.524.375 1.345.52-.75.608-1.513.064-2.75-.361-2.75-.943s-.457-.776-1.016-.431-.798.981-.532 1.413c.267.431-.635 1.295-2.005 1.919-2.276 1.037-3.105.619-9.63-4.859-3.926-3.297-7.4-5.733-7.72-5.414-.319.32.181 1.007 1.112 1.528s2.277 1.506 2.992 2.189c.714.684 3.24 2.759 5.612 4.612l4.313 3.37-4.313 2.497c-2.372 1.374-4.856 2.513-5.519 2.533-.663.019-.988.388-.722.818.266.431-.429 1.272-1.544 1.869-2.615 1.4-2.636 3.407-.028 2.725 1.1-.287 2-.115 2 .384 0 2.124-3.647.597-8.526-3.572l-5.241-4.478-4.103 7.087C73.323 62.161 63.172 83.441 61.543 89c-.403 1.375-2.898 6.775-5.544 12-3.938 7.777-4.776 10.349-4.618 14.178.124 3.003-.176 4.449-.839 4.039-1.482-.916 5.601 8.781 9.582 13.12 1.849 2.015 3.815 3.649 4.369 3.632s2.559-2.09 4.456-4.608 4.533-5.286 5.858-6.154c2.42-1.585 9.82-12.099 14.293-20.304 1.32-2.421 2.85-4.741 3.4-5.153.638-.478.523-1.058-.316-1.6-.725-.468-1.459-1.705-1.633-2.75s-.803-1.793-1.397-1.662q-1.08.236-.213-2c.477-1.231 1.46-2.092 2.185-1.914.782.192.516-.589-.654-1.92-1.729-1.966-1.756-2.164-.222-1.605 2.009.733 2.303-.346.567-2.082-1.944-1.944-.179-2.5 2.455-.774 2.266 1.484 2.548 1.472 3.837-.17 1.265-1.612 1.232-1.648-.359-.401-3.95 3.098-1.319-.822 5.001-7.449 6.037-6.331 6.3-6.272.923.208-1.674 2.017-1.677 2.224-.046 3.854 1.382 1.382 1.493 2.091.564 3.58-1.248 1.998-.562 5.282.913 4.37.492-.304.895.374.895 1.506 0 2.314-1.023 2.636-2.783.876-1.626-1.626-2.79-.213-1.302 1.58 1.574 1.898-.578 5.67-2.757 4.833-1.032-.396-1.241-.173-.683.73.54.873.347 1.147-.586.836-.764-.254-1.389-.95-1.389-1.546s-.41-1.458-.91-1.917c-.54-.494-.575-.255-.086.587.614 1.058.4 1.257-.84.781-2.288-.878-2.084.223.562 3.04 1.943 2.068 1.986 2.278.336 1.645-1.338-.514-1.673-.375-1.149.474.432.698-1.31 4.427-4.166 8.92-2.699 4.246-5.198 8.222-5.553 8.835s1.978.164 5.185-1c5.553-2.014 14.598-8.804 13.368-10.035-.319-.319-.168-.548.336-.508 1.366.108 6.795 6.928 5.515 6.928-.604 0-1.098.39-1.098.867 0 1.247 9.805 5.145 11.401 4.533.738-.283 1.61.186 1.939 1.043.328.856 1.113 1.557 1.744 1.557 1.395 0 7.055 6.002 10.984 11.646 4.677 6.722 6.35 12.776 6.314 22.854-.028 7.958-.39 9.752-3.128 15.5-3.226 6.773-7.309 11.758-13.254 16.178-3.806 2.83-17.411 8.078-18.393 7.095-.334-.333-.607.428-.607 1.692 0 2.122-.322 2.255-4.198 1.735-2.732-.366-3.692-.243-2.75.353 1.674 1.059 9.294 1.267 10.281.281.366-.366 3.433-.817 6.815-1.001 3.383-.185 6.687-.781 7.343-1.326.656-.544 1.437-.746 1.734-.448.763.762 11.51-2.979 20.533-7.147 16.888-7.8 34.253-24.092 43.076-40.412 6.273-11.602 9.345-20.859 11.541-34.765l1.304-8.265-3.589.572c-1.975.315-4.602.781-5.84 1.035-3.616.741-2.65-.222 3.75-3.74 5.437-2.989 6-3.605 6-6.568 0-3.92-.624-4.013-5.36-.799-2.002 1.358-3.64 2.266-3.64 2.017s-1.575.432-3.5 1.513c-3.745 2.104-3.622 2.224-4.125-4-.155-1.925-.578-5.192-.94-7.261-.544-3.119-.208-4.347 1.97-7.204C188.32 76.403 191 69.404 191 64.312c0-11.392-17.417-34.522-34.623-45.979-8.489-5.652-11.623-6.89-12.782-5.052-.79 1.252-1.396 1.179-4.258-.51-2.295-1.354-3.337-1.577-3.337-.715 0 .858-.578.731-1.831-.403-1.007-.912-2.121-1.367-2.476-1.013s-1.443.072-2.419-.628-.257.178 1.597 1.951m-9.788-.68c.23.156 1.317.943 2.417 1.75 1.85 1.357 1.897 1.336.628-.283-.755-.963-1.843-1.75-2.417-1.75s-.857.127-.628.283m-12.591 9.065c-6.028 3.457-6.789 4.39-5.305 6.508 1.014 1.449 1.815 1.745 2.861 1.06 1.233-.809 1.18-1.113-.353-2.015-1.419-.835-1.556-1.364-.637-2.471 1.351-1.627 3.305-.873 2.304.889-.369.65.748-.141 2.483-1.756S113 19.485 113 19.313c0-.661-2.588-.066-4.508 1.035m40.432 1.261c-1.333 1.436-3.324 2.982-4.424 3.437-1.405.581-1.537.846-.446.891.854.034 3.08-1.512 4.946-3.437s3.157-3.5 2.87-3.5-1.612 1.174-2.946 2.609M72 21c-.825.533-1.05.969-.5.969s1.675-.436 2.5-.969 1.05-.969.5-.969-1.675.436-2.5.969m42 7c0 .55.477 1 1.059 1s.781-.45.441-1-.816-1-1.059-1-.441.45-.441 1m-3.541 6.067c-1.026 1.66-.105 1.89 1.33.332.71-.769.849-1.399.309-1.399-.539 0-1.277.48-1.639 1.067m36.041 5.345c-1.1.839-2.9 1.574-4 1.635-1.462.081-1.599.268-.51.695.82.322 2.782 1.876 4.359 3.453 2.2 2.2 3.181 2.61 4.206 1.76.964-.801 1.076-1.795.402-3.568-1.107-2.913 1.118-4.4 3.556-2.376 2.102 1.744 1.847 3.502-.763 5.261l-2.25 1.515 2.75-.51c2.18-.404 2.747-1.056 2.735-3.144-.022-3.749-1.013-4.861-4.987-5.597-2.421-.448-4.114-.178-5.498.876m-39.75 5.703c-2.033 1.517-2.75 2.915-2.75 5.361 0 1.976.587 3.535 1.457 3.869 1.18.453 1.275.082.503-1.95-.704-1.851-.648-2.32.213-1.788.791.489.954.167.507-.998-.43-1.121.192-2.572 1.785-4.165 2.964-2.963 2.051-3.139-1.715-.329m7.022-1.076c2.981 1.198 3.863 3.713 2.225 6.343-1.198 1.925-1.167 1.993.342.746.914-.755 1.661-2.654 1.661-4.219 0-2.283.346-2.722 1.75-2.218.982.352 1.397.242.947-.251-.442-.484-2.692-.977-5-1.097-3.399-.175-3.765-.043-1.925.696m-10.331 34.493c2.527 1.911 4.155 1.891 2.559-.032-.685-.825-1.977-1.486-2.872-1.468-1.368.027-1.318.266.313 1.5m-4.569 1.218c-1.243 1.586-1.208 1.621.378.378 1.666-1.307 2.195-2.128 1.372-2.128-.207 0-.995.787-1.75 1.75M107 81.378c0 .207.787.995 1.75 1.75 1.586 1.243 1.621 1.208.378-.378-1.307-1.666-2.128-2.195-2.128-1.372m5.004 6.372C105.212 93.274 97.553 101 99.5 100.364c1.1-.359 3.38-1.946 5.066-3.526s3.411-2.528 3.833-2.106.618.113.434-.687c-.183-.8.236-1.475.931-1.5 1.675-.06 8.498-7.545 6.878-7.545-.691 0-2.778 1.237-4.638 2.75M99 87.059c0 .582.45.781 1 .441s1-.816 1-1.059-.45-.441-1-.441-1 .477-1 1.059m12.443 2.359c-1.067.78-1.675 1.683-1.352 2.006.323.324 1.405-.314 2.403-1.418 2.125-2.347 1.689-2.591-1.051-.588M93 91.678c-1.375 1.454-1.864 2.435-1.086 2.178 1.249-.411 4.906-4.883 3.958-4.839-.205.01-1.497 1.207-2.872 2.661m11 10.231c-6.325 5.987-11.275 11.045-11 11.238.275.194 5.675-4.699 12-10.873s11.275-11.232 11-11.238-5.675 4.886-12 10.873m-8.312 2.643c-.997 1.369-2.211 2.243-2.698 1.942s-.712.355-.499 1.458-.036 2.267-.552 2.586c-.517.319-.939.028-.939-.646s-.27-.955-.6-.625-.286 1.109.099 1.732c.777 1.256 4.501-1.507 4.501-3.34 0-.566.978-2.072 2.174-3.345 1.196-1.272 1.759-2.3 1.25-2.283-.508.018-1.739 1.152-2.736 2.521m9.14 1.959c2.394 4.88 7.172 6.793 7.172 2.871 0-.825.39-1.259.866-.965.477.295 1.604-.279 2.505-1.274 1.351-1.493 1.384-1.81.189-1.81-.797 0-1.361.488-1.254 1.084s-.593.951-1.556.789c-1.192-.2-1.75.358-1.75 1.75 0 2.796-.747 2.581-4.197-1.206-1.641-1.801-2.521-2.353-1.975-1.239m-2.266 3.388c-.374.606-.316 1.108.129 1.116s.134.452-.691.985c-1.157.748-1.19.973-.143.985.793.009 1.118.638.781 1.515-.763 1.99 1.744 1.95 3.407-.055 1.077-1.297.951-1.893-.756-3.6-1.354-1.354-2.276-1.674-2.727-.946M169 110.5c-1.375.786-2.024 1.445-1.441 1.465.582.019 1.932-.626 3-1.433 2.469-1.868 1.68-1.884-1.559-.032m-79.25 3.333c.963 1.009 1.927 1.695 2.143 1.524.59-.465-2.007-3.357-3.015-3.357-.483 0-.091.825.872 1.833m9.004 0c-.272 1.042.05 1.834.746 1.834s1.018-.792.746-1.834c-.264-1.008-.599-1.833-.746-1.833s-.482.825-.746 1.833m5.705-.766c-.363.586-.445 1.281-.183 1.543s.743-.218 1.069-1.067c.676-1.762.1-2.072-.886-.476m38.072 2.34c1.809 2.761 1.824 2.747-6.097 5.683-5.553 2.059-10.842 4.91-9.107 4.91.425 0 2.177-.726 3.894-1.614 2.902-1.501 3.333-1.49 6.116.154 2.92 1.725 3.038 1.715 4.739-.386.96-1.185 2.122-2.155 2.584-2.156s.889-1.378.949-3.06c.061-1.681.689-3.593 1.397-4.247 1.013-.937 1.117-.892.486.214q-.806 1.41.353.69c2.329-1.439 1.052-2.595-2.868-2.595-4.02 0-4.022.002-2.446 2.407m17.976-.418c-.35.566.051.734.941.393 1.732-.665 2.049-1.382.611-1.382-.518 0-1.216.445-1.552.989m-33.116 4.319c.284 2.251.032 2.686-1.269 2.191s-1.374-.367-.372.642c1.803 1.816 3.116-.133 2.117-3.141-.806-2.43-.82-2.421-.476.308m12.222 4.875c.289.467.944.591 1.456.274 1.308-.808 1.161-1.124-.525-1.124-.801 0-1.22.383-.931.85m-39.065 10.74c-.314.508-1.911 1.217-3.548 1.577s-3.274 1.135-3.638 1.723c-.442.715.298.855 2.239.423 2.766-.616 2.732-.544-.746 1.572-2.005 1.219-4.204 3.111-4.886 4.204-1.226 1.963-1.207 1.965 1.645.127l2.886-1.859-2 2.263c-1.1 1.244-1.899 3.227-1.775 4.405.123 1.178-.033 1.561-.348.85-.713-1.611-3.377.293-3.377 2.414 0 .758-.398 1.378-.885 1.378-1.664 0-4.289 5.172-3.738 7.365.481 1.918 1.326 2.212 7.085 2.471l6.538.294v-3.065c0-2.485-.414-3.065-2.186-3.065-1.202 0-3.336 1.012-4.742 2.25-2.027 1.783-2.221 1.835-.932.25.894-1.1 4-6.275 6.903-11.5s6.136-10.738 7.186-12.25c1.578-2.276 1.647-2.75.398-2.75-.83 0-1.766.415-2.079.923m-11.845 19.608c-.988 1.358-1.438 2.455-1 2.438.438-.018 1.606-1.143 2.594-2.5.988-1.358 1.438-2.455 1-2.438-.438.018-1.606 1.143-2.594 2.5m-3.213 4.485c-.346.559-.972.804-1.392.544-.421-.259-.765.185-.765.988 0 1.208.317 1.174 1.834-.199 1.821-1.648 2.237-2.349 1.392-2.349-.243 0-.724.457-1.069 1.016m21.51 1.817c0 1.742.459 3.167 1.019 3.167.605 0 .751-1.117.359-2.75-.941-3.926-1.378-4.058-1.378-.417m4.158-.833c0 1.375.227 1.938.504 1.25.278-.687.278-1.812 0-2.5-.277-.687-.504-.125-.504 1.25m2.912-.309c.039.445.457 1.709.93 2.809.829 1.928.862 1.921.93-.191.038-1.205-.38-2.469-.93-2.809s-.968-.254-.93.191m-1.991 5.892c.048 1.165.285 1.402.604.605.289-.722.253-1.585-.079-1.917s-.568.258-.525 1.312m-49.596 7.494c-.419 1.333-1.777 4.673-3.017 7.423-2.916 6.465-3.645 8.728-2.603 8.085.462-.286 1.638-2.608 2.613-5.161 1.157-3.031 2.041-4.206 2.547-3.387.604.977.873.946 1.221-.142.245-.767.274-.045.063 1.605l-.382 3 1.502-2.5c2.018-3.359 1.939-2.376-.344 4.26-1.055 3.064-1.655 5.835-1.334 6.156 1.697 1.696 3.278-.044 5.07-5.58 1.629-5.029 1.759-6.4.708-7.452-.709-.709-1.567-1.01-1.908-.67-.34.341-.635-.243-.654-1.297-.02-1.055-.64-3.007-1.378-4.34l-1.342-2.423zm50.267-.685c-2.414 1.833-2.191 2.608.75 2.608 1.833 0 2.5-.533 2.5-2 0-2.315-.803-2.466-3.25-.608M60.5 183.558c-1.305 4.723-1.329 5.103-.407 6.558.63.995.881.634.892-1.283.008-1.466.489-2.824 1.069-3.018.687-.229.741-1.194.156-2.775l-.897-2.425zm8.149 4.171c-.892 3.134-1.29 6.027-.885 6.428s2.648 1.156 4.986 1.679c4.22.945 4.251.931 4.417-1.942.091-1.592.204-3.484.25-4.205s-1.544-2.739-3.532-4.485l-3.615-3.174z"/></svg>