<svg xmlns="http://www.w3.org/2000/svg" width="200" height="200" fill="#000000"><path fill-opacity=".149" fill-rule="evenodd" d="M85.446 16.779c-1.68 1.497-6.95 5.871-11.713 9.721l-8.659 7-.037 9.191L65 51.883l-5.5 4.295-5.5 4.296.047 20.013.048 20.013 5.452 4.363L65 109.225l.031 9.138.03 9.137 12.014 9.834 12.013 9.834 5.456-4.661 5.456-4.662 5.466 4.67 5.466 4.669 7.652-6.342c4.209-3.488 9.624-7.903 12.034-9.812l4.382-3.469v-18.15l5.451-4.455 5.452-4.456.048-20.013.049-20.013-5.5-4.296-5.5-4.295V33.37l-9.161-7.435a6271 6271 0 0 1-12.003-9.76l-2.842-2.325-5.471 4.675-5.471 4.674-5.384-4.6c-2.961-2.529-5.56-4.586-5.776-4.57s-1.766 1.254-3.446 2.75m-1.361 6.471-4.279 3.25.347 12.5c.325 11.716.228 12.5-1.544 12.5-3.042 0-4.239-2.87-2.826-6.777.669-1.851 1.217-6.177 1.217-9.614V28.86l-4.467 3.82-4.467 3.82-.033 7.538L68 51.576l4.44 3.712c2.443 2.042 5.03 3.693 5.75 3.67.721-.023 3.051-1.579 5.179-3.458l3.869-3.418-.369-11.177c-.322-9.739-.147-11.318 1.353-12.269 3.114-1.973 3.64.367 3.054 13.58l-.564 12.715-6.106 4.773C75.522 66.804 70 72.08 70 73.659c0 1.986-2.746 2.796-4.513 1.33C62.632 72.62 64.263 67 67.806 67c.773 0 2.657-1.053 4.186-2.34l2.782-2.34-3.137-2.473c-1.725-1.359-3.639-2.771-4.253-3.136s-3.202.961-5.75 2.946L57 63.268l.018 7.616.018 7.616 3.915 3.25C63.104 83.537 65.81 85 66.965 85c2.465 0 4.124 3.548 3.04 6.5-1.042 2.84-4.065 2.476-5.924-.713-.869-1.492-2.818-3.662-4.331-4.822L57 83.855v13.734l4.991 3.806 4.991 3.806 5.009-4.193L77 96.814v-6.348c0-3.491-.45-6.626-1-6.966-2.914-1.801.286-8.372 3.48-7.146 1.26.484 1.408 2.249.909 10.862L79.793 97.5l5.455 4.193 5.456 4.193.568 12.807c.59 13.302.07 15.638-3.05 13.682-2.063-1.293-2.821-5.176-1.307-6.69.597-.597 1.085-4.483 1.085-8.635l-.001-7.55-4.82-4.151-4.82-4.15-5.179 4.036-5.18 4.036.018 7.614.018 7.615 3.915 3.25c2.153 1.787 4.17 3.25 4.482 3.25 1.012 0 .598-13.863-.433-14.5-2.88-1.78.275-8.376 3.428-7.166 1.201.461 1.369 2.701.965 12.862l-.489 12.304 4.156 3.25c2.286 1.787 4.509 3.25 4.94 3.25s2.609-1.463 4.84-3.25l4.057-3.25.051-17.5.051-17.5L93 95.195l-5-4.306.05-10.694.05-10.695 4.936-4 4.936-4 .014-17.536L98 26.428l-4.182-3.214C91.518 21.446 89.35 20 89 20s-2.562 1.462-4.915 3.25m22.097-.036L102 26.428l.007 17.536.007 17.536L107.5 66l5.486 4.5-.041 10-.042 10-5.452 4.456L102 99.411l.031 17.545.031 17.544 4.317 3.25c2.374 1.788 4.723 3.238 5.219 3.223s2.655-1.656 4.797-3.647l3.896-3.619-.599-11.903c-.499-9.922-.354-11.996.868-12.465 3.162-1.214 6.328 5.376 3.44 7.161-1.026.634-1.448 14.5-.441 14.5.307 0 2.332-1.425 4.5-3.167l3.941-3.168v-15.394l-5.18-4.036-5.179-4.036-4.868 4.15-4.868 4.151.494 7.5c.271 4.125.63 9.019.797 10.876.211 2.344-.223 3.713-1.418 4.478-3.117 1.992-3.64-.353-3.05-13.661l.568-12.807 5.456-4.193 5.455-4.193-.596-10.284c-.499-8.613-.351-10.378.909-10.862 3.194-1.226 6.394 5.345 3.48 7.146-.55.34-1 3.475-1 6.966v6.348l5.009 4.194 5.009 4.193 4.991-3.806L143 97.589V83.855l-2.75 2.11c-1.512 1.16-3.462 3.33-4.331 4.822-1.859 3.189-4.882 3.553-5.924.713-1.084-2.952.575-6.5 3.04-6.5 1.155 0 3.861-1.463 6.014-3.25l3.915-3.25.018-7.616.018-7.616-4.634-3.611c-2.548-1.985-5.136-3.311-5.75-2.946s-2.528 1.777-4.253 3.136l-3.137 2.473 2.782 2.34c1.529 1.287 3.72 2.34 4.867 2.34 1.424 0 2.298.843 2.753 2.655 1.25 4.981-3.769 8.735-5.52 4.129-.979-2.575-5.261-6.67-14.714-14.072l-6.106-4.781-.564-12.715c-.586-13.213-.06-15.553 3.054-13.58 1.498.95 1.675 2.526 1.359 12.111l-.362 11.02 3.862 3.589c2.125 1.975 4.452 3.602 5.173 3.617.72.015 3.307-1.643 5.75-3.685l4.44-3.712-.033-7.538-.033-7.538-4.467-3.82L123 28.86v6.249c0 3.437.548 7.763 1.217 9.614 1.413 3.907.216 6.777-2.826 6.777-1.772 0-1.869-.784-1.544-12.5l.347-12.5-4.279-3.25C113.562 21.462 111.35 20 111 20s-2.518 1.446-4.818 3.214M88 32.5c0 .825.45 1.5 1 1.5s1-.675 1-1.5-.45-1.5-1-1.5-1 .675-1 1.5m22 0c0 .825.45 1.5 1 1.5s1-.675 1-1.5-.45-1.5-1-1.5-1 .675-1 1.5M77 46.941c0 .518.45 1.219 1 1.559s1-.084 1-.941S78.55 46 78 46s-1 .423-1 .941m44 .618c0 .857.45 1.281 1 .941s1-1.041 1-1.559-.45-.941-1-.941-1 .702-1 1.559M95.25 68.927 91 72.772l.031 7.864.031 7.864 4.469 3.367L100 95.234l4.469-3.367 4.469-3.367.031-7.864.031-7.864-4.25-3.845c-2.338-2.115-4.475-3.845-4.75-3.845s-2.412 1.73-4.75 3.845m-28.707 2.004c-.317.512-.118 1.213.441 1.559S68 72.416 68 71.559c0-1.757-.6-2.015-1.457-.628m65.457.628c0 .857.457 1.276 1.016.931.559-.346.758-1.047.441-1.559-.857-1.387-1.457-1.129-1.457.628m-55 8.382c0 .518.45 1.219 1 1.559s1-.084 1-.941S78.55 79 78 79s-1 .423-1 .941m44 .618c0 .857.45 1.281 1 .941s1-1.041 1-1.559-.45-.941-1-.941-1 .702-1 1.559m-54.457 8.372c-.317.512-.118 1.213.441 1.559S68 90.416 68 89.559c0-1.757-.6-2.015-1.457-.628m65.457.51c0 .857.45 1.559 1 1.559s1-.423 1-.941-.45-1.219-1-1.559-1 .084-1 .941m-54.417 23.425c-.431.697-.513 1.537-.183 1.867.895.895 1.871-.421 1.387-1.871-.338-1.016-.574-1.016-1.204.004m43.417.575c0 .857.45 1.559 1 1.559s1-.423 1-.941-.45-1.219-1-1.559-1 .084-1 .941m-33 14.5c0 .518.45 1.219 1 1.559s1-.084 1-.941S89.55 127 89 127s-1 .423-1 .941m22 .618c0 .857.45 1.281 1 .941s1-1.041 1-1.559-.45-.941-1-.941-1 .702-1 1.559"/><path fill-opacity=".249" fill-rule="evenodd" d="m105.524 18.61-5.57 4.538-4.958-4.151c-2.727-2.283-5.598-4.004-6.38-3.824-.783.18-6.389 4.377-12.459 9.327l-11.035 9-.061 9.059-.061 9.06-5.5 4.748-5.5 4.748.056 19.693.056 19.692 5.444 4.297L65 109.095v9.264c0 9.145.039 9.294 3.014 11.493 1.658 1.226 7.069 5.631 12.025 9.789l9.01 7.56 5.502-4.7 5.501-4.7 5.475 4.678 5.476 4.678 8.984-7.538c4.941-4.146 10.341-8.541 11.999-9.767 2.975-2.199 3.014-2.348 3.014-11.493v-9.264l5.444-4.298 5.444-4.297.056-20.013.056-20.013-5.5-4.296-5.5-4.295v-8.972c0-10.264 1.499-8.121-15.203-21.741l-8.702-7.098zm-21.426 4.451-4.401 3.98.598 11.893c.515 10.256.381 11.976-.975 12.497-.866.332-2.191.091-2.947-.536-1.593-1.323-1.837-5.49-.373-6.395.55-.34 1-3.997 1-8.126v-7.508l-4.5 3.688-4.5 3.687v15.518l4.418 3.621C74.848 57.371 77.36 59 78 59s3.152-1.629 5.582-3.62L88 51.759v-7.82c0-4.302-.45-8.099-1-8.439-1.464-.905-1.22-5.072.373-6.395.756-.627 2.16-.838 3.121-.469 1.468.563 1.65 1.489 1.136 5.767-.337 2.804-.617 8.479-.621 12.612L91 54.531l-10.45 8.381c-6.331 5.078-10.568 9.211-10.75 10.485-.447 3.13-4.033 2.725-5.198-.587-1.045-2.971.483-5.81 3.126-5.81.816 0 2.722-1.043 4.237-2.317l2.753-2.316-3.861-3.242c-4.143-3.478-4.195-3.471-10.107 1.229L57 63.335v15.428l3.728 2.868c2.05 1.578 4.862 3.098 6.25 3.379 2.19.442 2.522 1.036 2.522 4.5 0 3.267-.348 3.99-1.919 3.99-1.055 0-2.63-1.221-3.5-2.713-.869-1.492-2.818-3.662-4.331-4.822L57 83.855v13.734l4.991 3.806 4.991 3.806 5.009-4.193L77 96.814v-6.348c0-3.491-.45-6.626-1-6.966-2.914-1.801.286-8.372 3.48-7.146 1.26.484 1.408 2.25.911 10.862L79.796 97.5l5.602 4.399 5.602 4.4v7.711c0 4.241.244 9.686.543 12.1.662 5.349-.663 7.9-3.265 6.288-2.109-1.307-2.895-5.181-1.363-6.713.597-.597 1.085-4.553 1.085-8.792v-7.707l-4.794-4.014-4.795-4.014-5.205 4.056L68 109.271v15.394l3.941 3.168c2.168 1.742 4.193 3.167 4.5 3.167 1.007 0 .585-13.866-.441-14.5-2.888-1.785.278-8.375 3.44-7.161 1.222.469 1.367 2.543.868 12.465l-.599 11.903 3.896 3.619c2.142 1.991 4.57 3.62 5.395 3.62s3.188-1.569 5.25-3.487l3.75-3.486V99.186L93 95l-5-4.186.04-10.657.04-10.657 4.96-3.914L98 61.672v-34.9l-4.25-3.845c-2.338-2.115-4.475-3.845-4.75-3.845s-2.481 1.791-4.902 3.979m22.514-.287-4.604 3.726.01 17.5.01 17.5 4.936 4 4.936 4 .05 10.69.05 10.691-5 4.216-5 4.216v34.66l3.75 3.486c2.063 1.918 4.425 3.48 5.25 3.472s3.256-1.565 5.403-3.461l3.903-3.447-.606-12.061c-.506-10.065-.364-12.154.86-12.623 3.162-1.214 6.328 5.376 3.44 7.161-1.026.634-1.448 14.5-.441 14.5.307 0 2.332-1.425 4.5-3.167l3.941-3.168v-15.394l-5.206-4.057-5.205-4.056-4.795 4.014-4.794 4.014v7.707c0 4.239.488 8.195 1.085 8.792 1.532 1.532.746 5.406-1.363 6.713-2.602 1.612-3.927-.939-3.265-6.288.299-2.414.543-7.859.543-12.1v-7.711l5.602-4.4 5.602-4.399-.595-10.284c-.497-8.612-.349-10.378.911-10.862 3.194-1.226 6.394 5.345 3.48 7.146-.55.34-1 3.475-1 6.966v6.348l4.977 4.166c5.351 4.481 5.285 4.484 11.255-.417 3.641-2.988 3.732-3.23 3.75-9.886l.018-6.822-2.75 2.11c-1.512 1.16-3.462 3.33-4.331 4.822s-2.445 2.713-3.5 2.713c-1.571 0-1.919-.723-1.919-3.99 0-3.464.332-4.058 2.522-4.5 1.388-.281 4.2-1.801 6.25-3.379L143 78.763V63.268l-4.634-3.611c-2.548-1.985-5.136-3.311-5.75-2.946s-2.528 1.777-4.253 3.136l-3.137 2.473 2.782 2.34c1.529 1.287 3.413 2.34 4.186 2.34 3.543 0 5.174 5.62 2.319 7.989-1.93 1.602-4.513.588-4.513-1.77 0-1.141-4.007-5.058-10.5-10.266L109 54.531l-.009-7.516c-.004-4.133-.284-9.808-.621-12.612-.514-4.278-.332-5.204 1.136-5.767 3.605-1.383 4.254.81 3.74 12.626l-.488 11.238 4.062 3.25c2.235 1.788 4.576 3.25 5.203 3.25s3.129-1.629 5.559-3.62L132 51.759V36.424l-4.583-3.832-4.583-3.831.486 7.37c.268 4.053.793 8.745 1.168 10.426.766 3.434-1.148 5.894-3.796 4.878-1.336-.512-1.489-2.355-1.062-12.767l.5-12.168-4.457-3.726-4.457-3.726zM88 32.5c0 .825.45 1.5 1 1.5s1-.675 1-1.5-.45-1.5-1-1.5-1 .675-1 1.5m22 0c0 .825.45 1.5 1 1.5s1-.675 1-1.5-.45-1.5-1-1.5-1 .675-1 1.5m-33 15c0 .825.45 1.5 1 1.5s1-.675 1-1.5-.45-1.5-1-1.5-1 .675-1 1.5m44 0c0 .825.45 1.5 1 1.5s1-.675 1-1.5-.45-1.5-1-1.5-1 .675-1 1.5M95.25 68.927 91 72.772v7.6c0 7.497.051 7.649 3.75 11.087 2.063 1.918 4.425 3.487 5.25 3.487s3.188-1.569 5.25-3.487c3.699-3.438 3.75-3.59 3.75-11.087v-7.6l-4.25-3.845c-2.338-2.115-4.475-3.845-4.75-3.845s-2.412 1.73-4.75 3.845M66 71.5c0 .825.45 1.5 1 1.5s1-.675 1-1.5-.45-1.5-1-1.5-1 .675-1 1.5m66 0c0 .825.45 1.5 1 1.5s1-.675 1-1.5-.45-1.5-1-1.5-1 .675-1 1.5m-55 9c0 .825.45 1.5 1 1.5s1-.675 1-1.5-.45-1.5-1-1.5-1 .675-1 1.5m44 0c0 .825.45 1.5 1 1.5s1-.675 1-1.5-.45-1.5-1-1.5-1 .675-1 1.5m-55 9c0 .825.45 1.5 1 1.5s1-.675 1-1.5-.45-1.5-1-1.5-1 .675-1 1.5m66 0c0 .825.45 1.5 1 1.5s1-.675 1-1.5-.45-1.5-1-1.5-1 .675-1 1.5m-54.417 23.366c-.431.697-.513 1.537-.183 1.867.895.895 1.871-.421 1.387-1.871-.338-1.016-.574-1.016-1.204.004M121 113.5c0 .825.45 1.5 1 1.5s1-.675 1-1.5-.45-1.5-1-1.5-1 .675-1 1.5m-33 14.441c0 .518.45 1.219 1 1.559s1-.084 1-.941S89.55 127 89 127s-1 .423-1 .941m22 .618c0 .857.45 1.281 1 .941s1-1.041 1-1.559-.45-.941-1-.941-1 .702-1 1.559"/><path fill-opacity=".294" fill-rule="evenodd" d="m103.666 19.915-5.834 4.848.122 18.515.123 18.515-4.996 3.854-4.996 3.853-.042 10.657L88 90.814 93 95l5 4.186v35.479l-3.941 3.168C91.891 139.575 89.615 141 89 141s-2.948-1.462-5.185-3.25l-4.068-3.25.526-11.604c.564-12.473-.034-15.129-2.995-13.294-2.109 1.307-2.895 5.181-1.363 6.713 1.088 1.088 1.575 14.685.526 14.685-.307 0-2.332-1.425-4.5-3.167L68 124.665v-15.394l5.206-4.057 5.205-4.056 4.795 4.014L88 109.186v7.707c0 4.239-.488 8.195-1.085 8.792-1.532 1.532-.746 5.406 1.363 6.713 2.602 1.612 3.927-.939 3.265-6.288-.299-2.414-.546-7.814-.55-12l-.007-7.61-5.583-4.5-5.584-4.5.538-10.302c.441-8.459.276-10.402-.923-10.862-3.158-1.211-6.318 5.382-3.434 7.164.55.34 1 3.475 1 6.966v6.348l-4.889 4.093c-2.689 2.251-5.276 4.075-5.75 4.052-.473-.023-2.773-1.771-5.111-3.886C57.051 97.275 57 97.147 57 90.492v-6.736l2.25 1.474c1.237.811 3.293 3.004 4.569 4.872 3.269 4.791 5.681 4.535 5.681-.602 0-3.582-.277-4.032-2.646-4.306-1.455-.169-3.438-1.181-4.405-2.25-2.498-2.76-3.987-2.427-6.367 1.424C54.573 86.809 54 89.402 54 93.791v6.054l5.5 4.699 5.5 4.699v17.642l5.25 4.444c2.888 2.444 8.301 6.993 12.03 10.109l6.78 5.664 5.203-4.551C97.124 140.048 99.706 138 100 138s2.876 2.048 5.737 4.551l5.203 4.551 6.304-5.301c3.467-2.915 8.86-7.326 11.983-9.801l5.678-4.5.048-9.203.047-9.202 5.444-4.298 5.444-4.297.056-19.692.056-19.693-5.5-4.748-5.5-4.748-.061-9.06-.061-9.059-11.037-9c-6.071-4.95-11.781-9.097-12.689-9.216-.909-.119-4.277 1.965-7.486 4.631m2.584 2.905L102 26.555v35.299l4.957 3.823 4.958 3.823.042 10.657.043 10.657L107 95l-5 4.186v35.479l3.941 3.168c2.168 1.742 4.444 3.167 5.059 3.167s2.948-1.463 5.185-3.25l4.068-3.25-.526-11.604c-.564-12.473.034-15.129 2.995-13.294 2.109 1.307 2.895 5.181 1.363 6.713-1.088 1.088-1.575 14.685-.526 14.685.307 0 2.332-1.425 4.5-3.167l3.941-3.168v-15.394l-5.206-4.057-5.205-4.056-4.795 4.014-4.794 4.014v7.848c0 4.316.45 8.126 1 8.466 1.536.949 1.187 5.1-.55 6.542-1.271 1.054-1.794 1.031-2.9-.128-1.044-1.094-1.229-4.149-.819-13.502l.53-12.089 5.46-4.411 5.46-4.412-.538-10.302c-.441-8.459-.276-10.402.923-10.862 3.158-1.211 6.318 5.382 3.434 7.164-.55.34-1 3.475-1 6.966v6.348l4.889 4.093c2.689 2.251 5.276 4.075 5.75 4.052.473-.023 2.773-1.771 5.111-3.886 4.193-3.793 4.25-3.935 4.25-10.531v-6.687l-2.75 2.11c-1.512 1.16-3.462 3.33-4.331 4.822s-2.445 2.713-3.5 2.713c-1.571 0-1.919-.723-1.919-3.99 0-3.464.332-4.058 2.522-4.5 1.388-.281 4.2-1.801 6.25-3.379L143 78.763V63.335l-3.75-2.981c-5.912-4.7-5.964-4.707-10.107-1.229l-3.861 3.242 2.753 2.316c1.515 1.274 3.386 2.317 4.159 2.317 3.426 0 4.86 4.176 2.53 7.363-1.541 2.107-4.724 1.225-4.724-1.309 0-.965-3.65-4.671-8.25-8.374-4.537-3.654-9.197-7.458-10.354-8.454-1.864-1.604-2.162-3.202-2.607-14.015-.393-9.533-.206-12.45.854-13.33 1.013-.84 1.738-.81 2.857.119 1.696 1.408 2.016 5.563.5 6.5-.55.34-1 4.137-1 8.439v7.82l4.418 3.621C118.848 57.371 121.36 59 122 59s3.152-1.629 5.582-3.62L132 51.759V36.241l-4.5-3.687-4.5-3.688v7.508c0 4.129.45 7.786 1 8.126 1.516.937 1.196 5.092-.5 6.5-1.146.951-1.831.97-2.904.08-1.115-.926-1.298-3.569-.89-12.873l.513-11.707-4.55-3.75c-2.502-2.062-4.689-3.731-4.859-3.707-.171.023-2.222 1.723-4.56 3.777M110 32.5c0 .825.45 1.5 1 1.5s1-.675 1-1.5-.45-1.5-1-1.5-1 .675-1 1.5m-20.385 3.965C88.555 38.083 88 41.121 88 45.308v6.379l-4.808 4.054c-3.846 3.243-5.165 3.854-6.596 3.053-2.438-1.365-4.411.519-2.701 2.579 1.001 1.206.388 2.024-3.54 4.727-2.613 1.797-4.211 3.448-3.553 3.667 1.396.466 1.636 3.233.281 3.233-.504 0-1.096-.54-1.317-1.201q-.399-1.204-1.051-.147c-.358.579-.091 1.819.593 2.755C66.803 76.451 70 75.57 70 73.115c0-.919 4.688-5.483 10.417-10.143L90.834 54.5l.333-10.252c.183-5.639.272-10.251.198-10.25s-.862 1.111-1.75 2.467M121 47.5c0 .825.45 1.5 1 1.5s1-.675 1-1.5-.45-1.5-1-1.5-1 .675-1 1.5M95.235 68.78l-4.266 3.72.034 8 .033 8 3.915 3.25C97.104 93.537 99.376 95 100 95s2.896-1.463 5.049-3.25l3.915-3.25.018-8.13.018-8.129-4.418-3.621c-2.43-1.991-4.568-3.607-4.75-3.59-.183.016-2.251 1.704-4.597 3.75M132 71.5c0 .825.45 1.5 1 1.5s1-.675 1-1.5-.45-1.5-1-1.5-1 .675-1 1.5m-55 9c0 .825.45 1.5 1 1.5s1-.675 1-1.5-.45-1.5-1-1.5-1 .675-1 1.5m44 0c0 .825.45 1.5 1 1.5s1-.675 1-1.5-.45-1.5-1-1.5-1 .675-1 1.5m-55 9c0 .825.45 1.5 1 1.5s1-.675 1-1.5-.45-1.5-1-1.5-1 .675-1 1.5m66 0c0 .825.45 1.5 1 1.5s1-.675 1-1.5-.45-1.5-1-1.5-1 .675-1 1.5m-55 24c0 .825.45 1.5 1 1.5s1-.675 1-1.5-.45-1.5-1-1.5-1 .675-1 1.5m44 0c0 .825.45 1.5 1 1.5s1-.675 1-1.5-.45-1.5-1-1.5-1 .675-1 1.5m-33 14.441c0 .518.45 1.219 1 1.559s1-.084 1-.941S89.55 127 89 127s-1 .423-1 .941m22 .559c0 .825.45 1.5 1 1.5s1-.675 1-1.5-.45-1.5-1-1.5-1 .675-1 1.5"/><path fill-opacity=".148" fill-rule="evenodd" d="M124.656 28.455c-.348.907.928 2.632 3.393 4.584L132 36.168v15.519l-4.9 4.132-4.9 4.132-5.1-4.061c-3.79-3.017-5.1-4.73-5.1-6.666 0-2.506-.056-2.532-1.468-.665-2.899 3.832-1.748 5.67 9.027 14.418C125.301 67.639 130 72.203 130 73.12c0 2.481 3.202 3.324 4.724 1.243 2.377-3.252.888-7.357-2.674-7.368-.853-.003-2.823-1.024-4.379-2.269l-2.829-2.264 4.02-3.231c2.211-1.777 4.299-3.231 4.639-3.231s2.616 1.67 5.059 3.712l4.44 3.712v15.339l-3.728 2.868c-2.05 1.578-4.862 3.096-6.25 3.373-2.061.413-2.577 1.167-2.825 4.123-.355 4.247 2.536 6.397 4.303 3.199.55-.996 2.575-3.355 4.5-5.243l3.5-3.433.302 6.925.301 6.925-4.301 3.72c-2.366 2.046-4.69 3.734-5.163 3.75-.474.017-3.061-1.812-5.75-4.063L123 96.814v-6.348c0-3.491.45-6.626 1-6.966 1.464-.905 1.22-5.072-.373-6.395-.756-.627-2.078-.869-2.939-.539-1.335.512-1.481 2.116-.986 10.849l.58 10.247-5.509 4.303-5.509 4.303-.532 12.116c-.411 9.378-.226 12.436.818 13.53 1.106 1.159 1.629 1.182 2.9.128 1.737-1.442 2.086-5.593.55-6.542-.55-.34-1-4.15-1-8.466v-7.848l4.978-4.167 4.978-4.168 5.021 4.324 5.022 4.325.001 7.538v7.538l-4.5 3.762-4.5 3.762v-7.35c0-4.043.488-7.838 1.085-8.435 1.532-1.532.746-5.406-1.363-6.713-2.961-1.835-3.559.821-2.995 13.294l.526 11.604-4.068 3.25c-2.237 1.788-4.57 3.25-5.185 3.25s-2.891-1.425-5.059-3.167L102 134.665V99.186L107 95l5-4.186-.056-10.657-.056-10.657-5.211-4.109-5.212-4.109-1.903 2.524c-1.047 1.388-1.374 2.196-.727 1.796.678-.419 3.079.832 5.671 2.956L109 72.241v16.424l-3.941 3.168C102.891 93.575 100.615 95 100 95s-2.891-1.425-5.059-3.167c-3.799-3.054-3.942-3.386-3.973-9.25-.029-5.566-.156-5.918-1.5-4.142C88.615 79.569 88 82.557 88 85.57c0 5.046.148 5.314 5.453 9.846l5.454 4.659-.57 17.212-.57 17.213-3.634 3.212c-1.998 1.767-4.222 3.23-4.942 3.25s-3.139-1.425-5.376-3.212l-4.068-3.25.526-11.604c.564-12.473-.034-15.129-2.995-13.294-2.109 1.307-2.895 5.181-1.363 6.713.597.597 1.085 4.392 1.085 8.435v7.35l-4.5-3.762-4.5-3.762-.032-7.538c-.029-6.846-.166-7.36-1.5-5.597-.956 1.264-1.468 4.308-1.468 8.724v6.782l11.443 9.527c6.293 5.239 11.95 9.526 12.57 9.526s3.326-1.853 6.011-4.118l4.884-4.117 5.694 4.517 5.695 4.518 6.601-5.514c3.631-3.032 8.964-7.513 11.852-9.957l5.25-4.444v-17.642l5.5-4.699 5.5-4.699v-38.73l-5.5-4.748-5.5-4.748-.031-9.06-.031-9.059-4.317-3.25c-4.917-3.702-5.201-3.787-5.965-1.795m-3.328 4.628c-.645 1.329-1.43 5.626-1.746 9.548-.468 5.81-.277 7.378 1.03 8.462 1.361 1.13 1.815 1.043 2.996-.572 1.615-2.208 1.798-4.714.445-6.071-.521-.523-1.084-3.838-1.25-7.367-.27-5.719-.431-6.155-1.475-4M121 47.5c0 .825.45 1.5 1 1.5s1-.675 1-1.5-.45-1.5-1-1.5-1 .675-1 1.5m11 24c0 .825.45 1.5 1 1.5s1-.675 1-1.5-.45-1.5-1-1.5-1 .675-1 1.5m-11 9c0 .825.45 1.5 1 1.5s1-.675 1-1.5-.45-1.5-1-1.5-1 .675-1 1.5m11 9c0 .825.45 1.5 1 1.5s1-.675 1-1.5-.45-1.5-1-1.5-1 .675-1 1.5M77.077 96c-1.333 1.925-4.011 5.75-5.952 8.5-3.665 5.193-2.993 4.969 4.073-1.358l2.697-2.416 5.053 4.23 5.052 4.23v7.848c0 4.316-.45 8.126-1 8.466-1.536.949-1.187 5.1.55 6.542 1.271 1.054 1.794 1.031 2.9-.128 1.044-1.094 1.229-4.152.818-13.53l-.532-12.116-5.302-4.141c-3.731-2.914-5.396-4.955-5.618-6.884L79.5 92.5zM77 113.5c0 .825.45 1.5 1 1.5s1-.675 1-1.5-.45-1.5-1-1.5-1 .675-1 1.5m44 0c0 .825.45 1.5 1 1.5s1-.675 1-1.5-.45-1.5-1-1.5-1 .675-1 1.5m-33 15c0 .825.45 1.5 1 1.5s1-.675 1-1.5-.45-1.5-1-1.5-1 .675-1 1.5m22 0c0 .825.45 1.5 1 1.5s1-.675 1-1.5-.45-1.5-1-1.5-1 .675-1 1.5"/></svg>