<svg xmlns="http://www.w3.org/2000/svg" width="64" height="64" fill="#000000"><path fill="#1c1c1c" d="M32 64c17.673 0 32-14.327 32-32C64 14.327 49.673 0 32 0 14.327 0 0 14.327 0 32c0 17.673 14.327 32 32 32Z"/><path fill="#737373" d="m39.518 34.541-3.108 3.045-.669-2.125c.65-.801 1.04-1.813 1.04-2.915 0-2.586-2.141-4.683-4.781-4.683-2.64 0-4.78 2.097-4.78 4.683 0 1.104.39 2.12 1.043 2.921l-.668 2.125-3.115-3.05a2.781 2.781 0 0 1 0-3.992l5.48-5.367a2.925 2.925 0 0 1 4.075 0l5.48 5.367a2.78 2.78 0 0 1 .003 3.991Zm6.68-4.818-11.316-11.08A4.11 4.11 0 0 0 32 17.473a4.11 4.11 0 0 0-2.882 1.17l-11.313 11.08a3.934 3.934 0 0 0 0 5.645l8.02 7.856 1.025-3.26-6.87-6.727a.96.96 0 0 1 0-1.382l11.314-11.081c.255-.25.552-.286.706-.286.154 0 .45.036.706.286l11.313 11.083a.961.961 0 0 1 0 1.382l-6.864 6.723 1.024 3.26 8.017-7.852a3.934 3.934 0 0 0 .002-5.647Zm5.827-1.847L36.768 12.933A6.793 6.793 0 0 0 32 11a6.793 6.793 0 0 0-4.768 1.933L11.975 27.876a6.508 6.508 0 0 0 0 9.34L24.008 49l1.024-3.26-10.88-10.656a3.542 3.542 0 0 1 0-5.077l15.256-14.942A3.68 3.68 0 0 1 32 14.014c.978 0 1.9.372 2.592 1.05l15.257 14.944a3.542 3.542 0 0 1 0 5.076L38.972 45.736l1.025 3.26 12.028-11.78a6.508 6.508 0 0 0 0-9.34Z"/></svg>