<!-- Generated by IcoMoon.io -->
<svg version="1.1" xmlns="http://www.w3.org/2000/svg" width="32" height="32" viewBox="0 0 32 32" fill="#000000">
<title>skill</title>
<path d="M28.923 0.275c-0.396 0.213-0.896 0.755-1.166 1.264-0.591 1.117-1.71 2.507-3.132 3.888-1.127 1.095-1.717 1.324-3.422 1.329-1.032 0.003-1.393 0.455-0.803 1.005 0.589 0.549 0.221 1.182-0.906 1.557-0.861 0.287-1.098 0.612-1.818 2.497-0.424 1.109-0.498 1.189-1.008 1.079-1.304-0.281-1.554-0.575-2.154-2.537-0.185-0.604-0.388-0.887-0.637-0.887-0.202 0-0.367-0.094-0.367-0.209s-0.141-0.209-0.313-0.209c-0.178 0-0.313-0.187-0.313-0.432 0-0.812-2.55-1.828-3.348-1.335-0.358 0.222-0.209 0.468 0.374 0.614 1.274 0.32 1.46 0.945 0.281 0.945-0.856 0-0.815 0.034-2.418-1.997-0.344-0.436-0.931-1.139-1.304-1.561s-0.678-0.834-0.678-0.914-0.422-0.664-0.939-1.298c-0.516-0.634-0.939-1.251-0.939-1.371 0-0.36-0.691-0.772-1.304-0.78-0.316-0.004-0.574-0.101-0.574-0.215 0-0.276-0.564-0.269-0.736 0.009-0.074 0.12-0.036 0.336 0.083 0.48s0.166 0.462 0.102 0.706c-0.142 0.543 0.482 1.658 1.004 1.795 0.209 0.055 0.381 0.249 0.381 0.432s0.098 0.333 0.218 0.333c0.249 0 2.169 1.943 3.299 3.338 0.418 0.516 0.831 0.97 0.917 1.008s0.156 0.191 0.156 0.34c0 0.809-2.167-0.598-2.639-1.714-0.511-1.207-0.969-0.738-0.653 0.67 0.231 1.031 0.501 1.364 1.105 1.364 0.482 0 0.727 0.352 0.727 1.044 0 0.211 0.281 0.666 0.626 1.010s0.575 0.756 0.514 0.916c-0.218 0.569 1.711 1.609 2.999 1.617 0.268 0.002 0.664 0.214 0.88 0.473 0.473 0.567 0.503 0.782 0.11 0.782-0.163 0-0.335 0.117-0.383 0.261-0.069 0.205-0.16 0.202-0.424-0.016-0.185-0.152-0.74-0.261-1.233-0.241s-0.945 0.019-1.002-0.001c-0.574-0.202-1.113-0.094-1.2 0.239-0.129 0.494-0.392 0.494-0.521 0-0.101-0.387-0.663-0.469-1.151-0.167-0.141 0.087-0.328 0.115-0.414 0.062-0.744-0.46-2.031-0.205-1.975 0.39l0.058 0.621-0.441-0.574c-0.319-0.416-0.626-0.574-1.112-0.574-1.025 0-1.172 0.292-1.172 2.332 0 2.174 0.51 2.87 1.641 2.239 0.739-0.413 0.933-1.859 0.249-1.859-0.291 0-0.43 0.135-0.43 0.417 0 0.232-0.139 0.417-0.313 0.417-0.243 0-0.313-0.278-0.313-1.252s0.069-1.252 0.313-1.252c0.172 0 0.313 0.135 0.313 0.301 0 0.496 0.417 0.599 0.848 0.209 0.397-0.359 0.404-0.333 0.404 1.454 0 1.768 0.013 1.818 0.469 1.753 0.394-0.056 0.459-0.176 0.402-0.745-0.091-0.911 0.299-0.868 0.471 0.052 0.114 0.606 0.227 0.73 0.666 0.73 0.491 0 0.517-0.048 0.364-0.678-0.090-0.373-0.151-0.936-0.136-1.252s0.048-0.955 0.072-1.421c0.024-0.466 0.11-0.771 0.192-0.678 0.385 0.439 0.837 2.055 0.837 2.99 0 0.9 0.056 1.039 0.417 1.039 0.385 0 0.585-0.709 0.433-1.538-0.067-0.364 0.858-2.843 1.060-2.843 0.114 0 0.191 0.305 0.17 0.678-0.144 2.627-0.004 3.733 0.462 3.665 0.38-0.055 0.459-0.207 0.469-0.901 0.010-0.701 0.087-0.845 0.48-0.901 0.561-0.080 1.097-0.784 1.097-1.441 0-0.283 0.126-0.475 0.313-0.475 0.256 0 0.313 0.361 0.313 1.996 0 1.938 0.013 1.992 0.442 1.856 0.32-0.101 0.416-0.062 0.346 0.142-0.053 0.155-0.351 0.283-0.663 0.283-0.573 0-1.366 0.732-2.597 2.399-0.297 0.402-0.806 1.045-1.133 1.43s-0.54 0.753-0.474 0.819c0.065 0.066 0.245-0.052 0.398-0.262 0.432-0.59 0.633-0.012 0.217 0.623-0.583 0.889-1.219 1.126-1.036 0.385 0.17-0.689 0.166-0.685-1.343 1.274-1.946 2.525-2.87 4.701-1.996 4.701 0.268 0 3.666-3.306 3.666-3.567 0-0.084 0.076-0.185 0.168-0.223 0.282-0.116 5.936-6.281 6.716-7.322 0.998-1.333 1.177-1.273 3.052 1.015 0.903 1.101 1.814 2.205 2.025 2.451s0.627 0.754 0.924 1.126c0.511 0.64 1.092 0.902 1.092 0.492 0-0.203 0.633-0.502 0.77-0.365 0.046 0.047-0.068 0.236-0.253 0.422-0.311 0.311-0.297 0.353 0.178 0.534 0.284 0.108 0.577 0.296 0.653 0.417s0.314 0.221 0.531 0.221c0.217 0 0.483 0.157 0.59 0.35 0.199 0.356 0.685 0.501 1.807 0.54 1.109 0.038 2.117 2.134 1.149 2.387-0.228 0.060-0.371 0.179-0.318 0.266 0.143 0.232 2.675 0.124 2.755-0.117 0.071-0.214-2.49-3.431-3.943-4.953-0.458-0.479-1.12-1.218-1.472-1.642-0.538-0.647-0.735-0.751-1.231-0.652-0.413 0.083-0.601 0.032-0.623-0.169-0.085-0.771-0.381-1.901-0.607-2.318-0.366-0.677-0.237-0.927 0.43-0.83 0.559 0.082 0.626 0.034 0.626-0.454 0-0.345 0.114-0.545 0.313-0.545 0.195 0 0.313 0.197 0.313 0.522 0 0.424 0.102 0.522 0.549 0.522 0.519 0 0.542-0.042 0.413-0.782-0.075-0.43-0.242-1.51-0.373-2.399l-0.237-1.617h-1.335l-0.27 1.885c-0.296 2.068-0.317 2.107-0.977 1.858-0.537-0.203-0.901-1.308-0.797-2.422 0.039-0.418-0.009-0.969-0.106-1.225-0.215-0.566 0.288-1.076 1.633-1.658 1.017-0.44 1.288-0.818 1.299-1.813 0.011-1.026 0.913-2.087 1.311-1.543 0.504 0.69 0.768 0.185 0.768-1.471 0-0.971 0.099-1.67 0.261-1.836 1.534-1.581 3.897-4.355 4.614-5.415 0.944-1.395 0.578-2.095-0.728-1.394zM24.359 17.71v2.399h0.702c0.394 0 0.943-0.189 1.252-0.432l0.55-0.432v0.432c0 0.385 0.126 0.432 1.147 0.432 1.085 0 1.147-0.028 1.147-0.522 0-0.44-0.097-0.522-0.626-0.522s-0.626-0.081-0.626-0.522c0-0.382 0.111-0.522 0.417-0.522 0.278 0 0.417-0.139 0.417-0.417s-0.139-0.417-0.417-0.417c-0.306 0-0.417-0.139-0.417-0.522 0-0.44 0.097-0.522 0.626-0.522 0.487 0 0.626-0.093 0.626-0.417 0-0.367-0.139-0.417-1.147-0.417-0.929 0-1.147 0.066-1.147 0.345 0 0.321-0.026 0.321-0.382 0-0.227-0.205-0.735-0.345-1.252-0.345h-0.87v2.399zM29.582 15.714c-0.373 0.698-0.239 1.238 0.514 2.072 0.402 0.445 0.73 0.914 0.73 1.044 0 0.345-0.41 0.287-0.55-0.077-0.066-0.172-0.298-0.313-0.515-0.313-0.53 0-0.517 0.712 0.022 1.252 1.055 1.055 2.554-0.184 1.846-1.526-0.132-0.25-0.461-0.662-0.73-0.915-0.668-0.627-0.615-0.86 0.188-0.823 0.571 0.026 0.666-0.035 0.605-0.387-0.144-0.822-1.715-1.065-2.11-0.327z"/>
</svg>
