<svg xmlns="http://www.w3.org/2000/svg" width="200" height="200" fill="#000000"><path fill-opacity=".078" fill-rule="evenodd" d="M83.507 33.615C65.239 38.031 47.219 52.405 39.145 69c-5.48 11.265-7.42 19.37-7.42 31 0 11.641 1.943 19.748 7.43 31 5.868 12.032 17.82 23.983 29.845 29.84 11.397 5.551 18.493 7.254 30.5 7.317 12.047.064 19.789-1.746 31.463-7.354 6.859-3.296 10.093-5.699 17.069-12.684 14.831-14.851 20.666-30.081 19.718-51.467-.836-18.839-6.434-31.325-20.25-45.167-13.55-13.575-28.337-19.563-47.91-19.402-5.549.046-12.787.736-16.083 1.532M88 46.086c-8.125 1.566-19.954 8.228-26.804 15.095-7.176 7.193-13.322 18.294-15.239 27.525-1.643 7.912-.691 22.26 1.976 29.794 5.904 16.676 21.057 30.397 38.619 34.972 6.454 1.681 21.097 2.035 23.419.567 1.942-1.228 1.545-1.439-5.256-2.795-19.116-3.811-35.422-20.17-40.166-40.297-1.899-8.058-1.908-12.575-.042-21.447 4.21-20.017 20.736-36.58 40.588-40.681 3.248-.67 5.905-1.527 5.905-1.902 0-1.961-14.433-2.482-23-.831m18.746 16c-10.945 2.579-20.957 10.918-26.072 21.713-2.907 6.138-3.174 7.542-3.174 16.701 0 8.894.305 10.622 2.761 15.621 4.248 8.65 9.836 14.323 18.162 18.439 7.72 3.815 16.188 5.298 22.978 4.025 4.751-.892 4.546-1.993-.651-3.503-20.565-5.972-31.487-30.965-22.153-50.696 4.418-9.339 14.157-17.476 23.653-19.762 1.513-.364 2.75-1.051 2.75-1.526 0-2.094-11.064-2.707-18.254-1.012m20.34 16.091c-5.96 1.046-11.444 4.871-14.527 10.132-9.129 15.578 1.703 34.282 19.733 34.074 5.655-.065 9.923-2.008 6.861-3.124-2.731-.994-8.327-6.68-10.212-10.374-2.388-4.682-2.546-12.808-.338-17.46 1.597-3.366 7.86-9.719 10.505-10.658 4.399-1.56-5.607-3.716-12.022-2.59M144.2 96.2c-.66.66-1.2 2.37-1.2 3.8 0 5.272 5.691 6.928 8.592 2.5 1.517-2.316 1.517-2.684 0-5-1.755-2.679-5.376-3.316-7.392-1.3"/><path fill-opacity=".26" fill-rule="evenodd" d="M83.23 34.015c-22.244 5.828-40.824 23.001-47.897 44.27-2.419 7.274-2.738 9.761-2.782 21.715-.046 12.267.206 14.248 2.762 21.692 9.253 26.949 32.803 44.636 61.322 46.056 13.04.649 22.41-1.37 34.54-7.443 22.328-11.177 36.79-34.883 36.79-60.305 0-26.065-14.996-49.913-38.465-61.168-14.346-6.88-31.559-8.672-46.27-4.817M84.5 46.85c-17.816 5.169-32.6 20.022-37.905 38.082-2.302 7.839-2.122 23.153.369 31.213 5.472 17.71 20.22 32.123 38.171 37.304 3.923 1.132 8.609 1.539 15.419 1.339 11.491-.338 13.474-1.932 4.581-3.682-9.344-1.838-17.756-6.587-25.744-14.534-10.732-10.676-15.745-22.374-15.688-36.607.058-14.376 5.001-25.896 15.688-36.557 7.776-7.758 15.858-12.276 25.887-14.473 8.658-1.897 6.641-3.404-4.859-3.63-6.962-.138-11.707.323-15.919 1.545m19.786 15.601C94.038 65.653 84.872 73.774 80.16 83.825c-2.352 5.018-2.66 6.893-2.66 16.196 0 9.843.209 10.945 3.241 17.105 6.347 12.892 18.262 20.858 32.424 21.677 12.207.707 16.849-1.311 8.585-3.731-9.97-2.92-18.878-10.818-23.572-20.897-3.756-8.064-3.741-20.135.035-28.35 4.651-10.12 13.828-18.222 23.537-20.782 7.777-2.05 4.364-4.053-6.75-3.962-3.575.029-8.396.645-10.714 1.37m21.708 15.483c-13.086 3.981-19.625 16.05-15.922 29.387 2.536 9.131 13.774 16.388 23.781 15.355 2.987-.309 5.805-.934 6.262-1.391s-1.295-2.395-3.893-4.307c-8.156-6.007-11.059-15.08-7.773-24.294 1.661-4.657 3.823-7.163 9.051-10.487l4-2.544-3-1.281c-3.323-1.42-8.664-1.606-12.506-.438m17.661 18.895c-2.151 2.377-2.095 4.462.174 6.516 2.304 2.086 5.562 2.122 7.6.084 2.087-2.088 1.987-4.743-.258-6.774-2.399-2.171-5.458-2.1-7.516.174"/><path fill-opacity=".345" fill-rule="evenodd" d="M88.757 32.965c-37.669 6.884-62.777 43.221-55.313 80.054 5.019 24.771 21.892 43.71 46.056 51.696 6.8 2.247 9.799 2.652 20 2.696 20.268.089 33.265-5.211 47.584-19.403 9.499-9.414 13.414-15.563 17.516-27.508 2.361-6.874 2.752-9.619 2.78-19.5.023-7.89-.515-13.541-1.714-18-5.891-21.918-23.213-40.204-44.978-47.48-8.656-2.893-23.554-4.085-31.931-2.555m1.771 12.044c-16.682 2.982-33.103 15.235-40.44 30.177-3.402 6.926-6.053 17.797-6.053 24.814 0 7.003 2.649 17.883 6.032 24.773 6.07 12.359 19.811 24.256 32.569 28.196 10.934 3.377 28.424 3.701 28.486.528.011-.549-3.021-1.803-6.736-2.787C80.206 144.303 64 123.712 64 99.395c0-22.898 17.372-44.539 39.988-49.815 6.357-1.483 8.958-2.877 7.29-3.908-1.757-1.086-15.863-1.537-20.75-.663m18.657 16.109C88.247 64.6 73.008 85.807 76.798 106.187c3.255 17.504 15.854 29.949 33.202 32.796 6.845 1.123 15.078.284 15.706-1.601.2-.599-2.284-2.054-5.519-3.233-16.337-5.957-24.94-19.048-23.978-36.487.508-9.228 3.26-15.855 9.41-22.662 3.562-3.942 14.151-10 17.482-10 2.097 0 3.497-1.834 2.262-2.963-1.458-1.333-10.575-1.85-16.178-.919M122.5 78.879c-8.668 3.976-13.5 11.626-13.5 21.375 0 8.868 4.226 15.975 11.864 19.953 5.684 2.96 12.667 3.682 17.571 1.818 3.473-1.321 3.233-2.135-1.405-4.783-2.368-1.352-5.068-4.157-6.726-6.986-5.542-9.456-2.61-21.616 6.572-27.256 4.777-2.934 5.017-3.71 1.559-5.025-4.029-1.531-11.557-1.105-15.935.904m22.78 16.209c-4.353 1.618-3.811 8.974.768 10.427 3.128.993 6.952-1.986 6.952-5.416 0-4.162-3.643-6.526-7.72-5.011"/><path fill-opacity=".175" fill-rule="evenodd" d="M94.5 32.63c-10.065 1.281-16.06 3.01-24.433 7.045-7.81 3.765-10.844 5.959-17.638 12.754-6.827 6.826-8.966 9.792-12.721 17.638-6.613 13.816-8.624 25.11-6.804 38.201 3.252 23.378 16.879 42.326 37.552 52.213 11.613 5.555 17.716 6.952 30.044 6.877 18.524-.112 33.558-6.364 46.5-19.339 11.848-11.878 18.156-24.586 19.888-40.061 4.349-38.876-23.779-72.536-62.888-75.257-3.575-.249-7.85-.281-9.5-.071m-5 12.33C62.938 50.632 44.03 73.52 44.03 100c0 18.446 9.485 36.209 24.748 46.349 11.284 7.497 26.248 11.074 38.585 9.224 5.257-.789 6.331-3.153 1.887-4.154-8.437-1.9-11.381-2.935-17.565-6.17-20.629-10.792-31.76-34.96-26.155-56.789 2.622-10.207 6.281-16.435 14.39-24.485 8.26-8.2 14.94-12.032 25.107-14.404 7.002-1.634 7.815-2.129 6.178-3.766-1.433-1.433-16.249-2.01-21.705-.845m16.751 16.585c-14.86 4.002-25.174 14.186-28.834 28.472-6.89 26.894 15.663 52.952 42.886 49.551 4.446-.556 5.697-1.09 5.697-2.433 0-1.201-1.396-2.094-4.625-2.957-5.773-1.544-13.984-6.959-17.698-11.672-5.559-7.054-7.175-12.124-7.176-22.506-.001-8.372.33-10.174 2.787-15.178 4.028-8.201 13.114-16.327 20.774-18.578 7.567-2.224 8.134-4.671 1.298-5.608-6.424-.881-9.05-.723-15.109.909m14.678 18.205c-21.2 10.738-13.567 43.296 10.137 43.236 9.833-.024 12.953-2.357 7.184-5.371-1.512-.79-3.959-2.714-5.436-4.276-8.44-8.92-5.576-25.231 5.436-30.96 3.331-1.732 3.562-3.928.5-4.749-5.412-1.45-12.418-.617-17.821 2.12m23.294 15.807C140.248 98.34 142.364 106 147.106 106c2.894 0 5.894-3.054 5.894-6 0-2.772-2.959-6-5.5-6-.58 0-2.055.701-3.277 1.557"/></svg>