<svg xmlns="http://www.w3.org/2000/svg" width="64" height="64" fill="#000000"><path fill="#000000" d="M32 64c17.673 0 32-14.327 32-32C64 14.327 49.673 0 32 0 14.327 0 0 14.327 0 32c0 17.673 14.327 32 32 32Z"/><path fill="#787878" d="M32 28.215A8.607 8.607 0 1 0 32 11a8.607 8.607 0 0 0 0 17.215Z"/><path fill="#787878" d="M44.393 40.607a8.607 8.607 0 1 0 0-17.214 8.607 8.607 0 0 0 0 17.214ZM19.607 40.607a8.607 8.607 0 1 0 0-17.214 8.607 8.607 0 0 0 0 17.214Z"/><path fill="#787878" d="M32 53a8.607 8.607 0 1 0 0-17.215A8.607 8.607 0 0 0 32 53Z"/></svg>