<svg xmlns="http://www.w3.org/2000/svg" width="64" height="64" version="1.1" fill="#000000"><path fill-opacity=".165" d="M 26 14.599 C 22.975 16.491, 18.964 18.958, 17.088 20.082 L 13.675 22.124 17.088 24.201 C 20.213 26.103, 20.345 26.372, 18.663 27.389 C 13.433 30.553, 13.337 30.741, 16.260 32.073 C 19.696 33.638, 19.709 34.565, 16.319 36.341 L 13.637 37.746 18.069 40.487 C 20.506 41.994, 24.615 44.559, 27.201 46.186 L 31.902 49.145 40.927 43.823 C 45.891 40.895, 49.963 38.239, 49.976 37.919 C 49.989 37.599, 48.833 36.713, 47.406 35.950 L 44.812 34.562 47.486 32.430 L 50.160 30.298 46.964 28.274 L 43.768 26.250 46.884 24.410 C 48.598 23.397, 49.989 22.328, 49.976 22.034 C 49.952 21.501, 32.434 10.929, 31.823 11.079 C 31.645 11.123, 29.025 12.707, 26 14.599 M 20.535 29.351 C 18.836 30.593, 19.232 31.028, 25.451 34.753 L 32.215 38.803 39.039 34.698 C 45.610 30.745, 45.786 30.538, 43.776 29.131 C 41.887 27.807, 41.232 27.926, 36.858 30.385 L 32.027 33.100 27.676 30.550 C 22.587 27.568, 22.901 27.621, 20.535 29.351" stroke="none" fill="#000000" fill-rule="evenodd"/><path fill-opacity=".324" d="M 22.773 16.837 C 18.523 19.402, 15.036 21.740, 15.023 22.034 C 15.010 22.328, 16.402 23.397, 18.116 24.410 L 21.232 26.250 18.036 28.274 L 14.840 30.298 17.514 32.430 L 20.188 34.562 17.594 35.950 C 16.167 36.713, 15.006 37.599, 15.012 37.919 C 15.026 38.579, 29.778 47.330, 31.699 47.819 C 33.088 48.172, 49 38.951, 49 37.793 C 49 37.392, 47.827 36.449, 46.393 35.698 L 43.786 34.332 46.879 32.373 L 49.972 30.415 46.986 28.651 C 43.348 26.502, 43.257 25.660, 46.500 24.182 C 47.875 23.555, 49 22.691, 49 22.261 C 49 21.175, 33.492 11.980, 31.842 12.087 C 31.104 12.135, 27.023 14.272, 22.773 16.837 M 36.810 30.010 L 32.269 32.836 28.384 30.449 C 23.917 27.704, 22.105 27.472, 19.578 29.319 C 17.941 30.516, 18.437 31.031, 24.946 34.898 L 32.117 39.159 39.058 35.035 C 42.876 32.766, 46 30.758, 46 30.570 C 46 30.383, 44.954 29.545, 43.675 28.707 C 41.514 27.291, 41.031 27.383, 36.810 30.010" stroke="none" fill="#000000" fill-rule="evenodd"/><path fill-opacity=".597" d="M 23.016 17.170 L 14.616 22.339 17.808 23.851 C 21.759 25.722, 21.780 26.310, 17.975 28.719 L 14.949 30.635 17.475 31.986 C 20.687 33.705, 20.655 34.593, 17.319 36.341 L 14.637 37.746 18.651 40.279 C 20.858 41.673, 24.877 44.037, 27.582 45.534 L 32.500 48.254 40.725 43.377 C 45.249 40.695, 48.962 38.235, 48.975 37.911 C 48.989 37.586, 47.875 36.808, 46.500 36.182 C 43.277 34.713, 43.341 33.621, 46.740 32.073 C 49.663 30.741, 49.567 30.553, 44.337 27.389 C 42.653 26.371, 42.781 26.107, 45.870 24.227 L 49.239 22.176 45.120 19.588 C 42.854 18.165, 39.209 15.875, 37.020 14.500 C 34.831 13.125, 32.674 12, 32.228 12 C 31.782 12, 27.636 14.326, 23.016 17.170 M 20.206 28.568 C 18.974 29.431, 18.190 30.498, 18.462 30.939 C 19.159 32.067, 30.929 39, 32.147 39 C 33.210 39, 47 31.026, 47 30.412 C 47 30.214, 45.646 29.351, 43.991 28.496 C 41.133 27.017, 40.797 27.066, 37.259 29.470 C 32.647 32.604, 31.920 32.606, 27 29.500 C 22.312 26.540, 22.972 26.631, 20.206 28.568" stroke="none" fill="#000000" fill-rule="evenodd"/><path fill-opacity=".397" d="M 23.750 16.780 C 19.487 19.370, 16 21.838, 16 22.266 C 16 22.693, 17.125 23.555, 18.500 24.182 C 21.726 25.652, 21.649 26.392, 18.033 28.682 L 15.066 30.561 23.033 35.335 C 27.415 37.961, 31 40.337, 31 40.614 C 31 41.156, 30.552 40.918, 24.614 37.222 C 21.418 35.233, 20.308 34.994, 18.364 35.880 C 17.064 36.472, 16 37.309, 16 37.739 C 16 38.169, 19.615 40.688, 24.034 43.336 L 32.068 48.150 40.033 43.480 C 44.415 40.912, 48.210 38.469, 48.468 38.051 C 48.726 37.634, 47.826 36.786, 46.469 36.168 C 43.285 34.717, 43.348 33.618, 46.702 32.090 L 49.404 30.859 46.202 28.831 C 42.237 26.321, 42.204 25.572, 45.987 24.005 C 47.630 23.325, 48.755 22.413, 48.487 21.979 C 47.986 21.168, 32.653 11.971, 31.912 12.036 C 31.685 12.056, 28.012 14.191, 23.750 16.780 M 30.405 14.155 C 29.967 14.862, 30.130 15.038, 30.825 14.608 C 31.448 14.223, 32.980 14.403, 34.229 15.009 C 36.406 16.065, 36.420 16.046, 34.559 14.555 C 32.242 12.699, 31.357 12.613, 30.405 14.155 M 26.441 16.555 C 24.577 18.049, 24.589 18.067, 26.750 17.020 C 27.988 16.420, 29 15.720, 29 15.465 C 29 14.700, 28.481 14.921, 26.441 16.555 M 37 16.430 C 37 16.705, 37.900 17.411, 39 18 C 40.100 18.589, 41 18.845, 41 18.570 C 41 18.295, 40.100 17.589, 39 17 C 37.900 16.411, 37 16.155, 37 16.430 M 20.156 20.175 C 17.279 22.017, 17.045 22.446, 18.481 23.249 C 19.399 23.763, 20.416 23.917, 20.742 23.592 C 21.067 23.266, 20.696 22.984, 19.917 22.964 C 19.100 22.943, 19.771 21.886, 21.500 20.469 C 25.186 17.447, 24.612 17.321, 20.156 20.175 M 43.350 20.378 C 44.368 21.197, 44.907 22.342, 44.548 22.922 C 44.152 23.562, 44.504 23.744, 45.442 23.384 C 47.310 22.667, 46.656 21.382, 43.694 19.950 C 41.635 18.955, 41.614 18.981, 43.350 20.378 M 22.083 25.365 C 22.313 25.565, 23.625 26.265, 25 26.920 C 27.357 28.042, 27.389 28.022, 25.559 26.555 C 23.966 25.279, 20.711 24.164, 22.083 25.365 M 39.875 25.500 C 39.806 25.775, 39.694 26.474, 39.625 27.053 C 39.556 27.633, 37.852 29.049, 35.838 30.200 L 32.175 32.293 27.603 29.613 C 23.251 27.063, 22.884 27.009, 20.015 28.492 C 18.357 29.350, 17 30.222, 17 30.431 C 17 30.639, 20.600 32.921, 25 35.500 C 29.400 38.080, 32.720 40.644, 32.377 41.199 C 32.034 41.754, 32.934 41.434, 34.377 40.489 C 37.461 38.468, 37.884 37.456, 35 39 C 33.900 39.589, 33 39.881, 33 39.649 C 33 39.417, 36.217 37.317, 40.149 34.981 L 47.298 30.734 44.899 28.889 C 43.580 27.875, 41.825 27.028, 41 27.007 C 39.667 26.974, 39.667 26.862, 41 26 C 42 25.354, 42.083 25.026, 41.250 25.015 C 40.563 25.007, 39.944 25.225, 39.875 25.500 M 35.441 28.555 C 33.577 30.049, 33.589 30.067, 35.750 29.020 C 36.987 28.420, 38 27.720, 38 27.465 C 38 26.700, 37.481 26.921, 35.441 28.555 M 29.441 29.445 C 30.509 30.300, 31.821 31, 32.358 31 C 33.628 31, 33.061 30.538, 30 29.080 C 27.643 27.958, 27.611 27.978, 29.441 29.445 M 39.441 36.555 C 37.577 38.049, 37.589 38.067, 39.750 37.020 C 40.987 36.420, 42 35.720, 42 35.465 C 42 34.700, 41.481 34.921, 39.441 36.555 M 43.898 36.371 C 45.115 37.842, 45.049 38.261, 43.398 39.586 C 41.589 41.039, 41.603 41.060, 43.694 40.050 C 46.905 38.498, 47.135 37.565, 44.685 36.039 C 42.679 34.790, 42.615 34.817, 43.898 36.371 M 18.143 36.890 C 17.309 37.419, 17.172 37.988, 17.788 38.369 C 18.340 38.710, 19.048 38.316, 19.364 37.494 C 20.026 35.767, 19.964 35.737, 18.143 36.890 M 20 39.430 C 20 39.705, 20.900 40.411, 22 41 C 23.100 41.589, 24 41.845, 24 41.570 C 24 41.295, 23.100 40.589, 22 40 C 20.900 39.411, 20 39.155, 20 39.430 M 38.441 42.555 C 36.577 44.049, 36.589 44.067, 38.750 43.020 C 39.987 42.420, 41 41.720, 41 41.465 C 41 40.700, 40.481 40.921, 38.441 42.555 M 25 42.430 C 25 42.705, 25.900 43.411, 27 44 C 28.100 44.589, 29 44.845, 29 44.570 C 29 44.295, 28.100 43.589, 27 43 C 25.900 42.411, 25 42.155, 25 42.430 M 33.742 45.085 C 32.775 45.648, 31.468 45.789, 30.838 45.400 C 30.130 44.962, 29.964 45.133, 30.405 45.845 C 31.345 47.368, 32.219 47.302, 34.559 45.532 C 36.795 43.840, 36.323 43.582, 33.742 45.085" stroke="none" fill="#000000" fill-rule="evenodd"/></svg>