<svg xmlns="http://www.w3.org/2000/svg" width="64" height="64" version="1.1" fill="#000000"><path fill-opacity=".145" d="M 22.396 1.418 C 12.518 4.510, 3.417 14.211, 0.921 24.309 C -4.753 47.272, 16.728 68.753, 39.691 63.079 C 49.830 60.573, 60.835 50.079, 62.604 41.229 C 62.964 39.430, 63.650 37.716, 64.129 37.420 C 64.608 37.124, 65 34.182, 65 30.882 C 65 27.582, 64.605 25.126, 64.122 25.425 C 63.639 25.723, 62.953 24.512, 62.597 22.734 C 61.607 17.782, 55.608 9.515, 50.411 5.939 C 42.120 0.235, 31.601 -1.463, 22.396 1.418 M 24.197 19.483 C 17.314 24.869, 17.137 25.124, 14.166 33.983 C 12.503 38.942, 11.313 43, 11.523 43 C 11.733 43, 14.801 40.975, 18.341 38.500 C 21.882 36.025, 25.199 34, 25.713 34 C 26.227 34, 27.715 37.403, 29.019 41.562 C 30.324 45.721, 31.680 49.302, 32.032 49.520 C 32.385 49.738, 33.735 46.533, 35.032 42.397 C 36.330 38.260, 37.759 34.649, 38.209 34.371 C 38.659 34.092, 41.968 35.920, 45.562 38.432 C 49.156 40.945, 52.248 43, 52.433 43 C 53.096 43, 47.741 26.473, 46.632 25.095 C 45.137 23.240, 32.913 14, 31.953 14 C 31.541 14, 28.051 16.467, 24.197 19.483 M 23.500 22.176 C 19.593 25.338, 18.095 27.415, 16.646 31.674 C 15.626 34.672, 15.019 37.353, 15.298 37.631 C 15.576 37.910, 17.999 36.561, 20.681 34.634 C 24.565 31.844, 25.941 30.047, 27.438 25.815 C 28.472 22.892, 29.520 19.938, 29.766 19.250 C 30.531 17.114, 28.693 17.973, 23.500 22.176 M 34.247 19.250 C 34.501 19.938, 35.478 22.841, 36.419 25.703 C 37.812 29.941, 39.062 31.576, 43.163 34.521 C 45.931 36.510, 48.412 37.921, 48.677 37.657 C 48.941 37.392, 48.383 34.717, 47.436 31.713 C 46.015 27.207, 44.788 25.527, 40.432 22.125 C 34.923 17.822, 33.471 17.148, 34.247 19.250 M 29.735 24.884 C 28.781 27.571, 28 30.046, 28 30.384 C 28 30.723, 29.848 31, 32.107 31 C 35.211 31, 36.083 30.659, 35.678 29.604 C 35.384 28.836, 34.589 26.361, 33.913 24.104 C 33.237 21.847, 32.410 20, 32.076 20 C 31.743 20, 30.689 22.198, 29.735 24.884 M 0.320 32 C 0.320 35.575, 0.502 37.038, 0.723 35.250 C 0.945 33.462, 0.945 30.538, 0.723 28.750 C 0.502 26.962, 0.320 28.425, 0.320 32 M 28.322 34.396 C 28.616 35.164, 29.411 37.639, 30.087 39.896 C 30.763 42.153, 31.624 44, 32 44 C 32.376 44, 33.237 42.153, 33.913 39.896 C 34.589 37.639, 35.384 35.164, 35.678 34.396 C 36.084 33.337, 35.195 33, 32 33 C 28.805 33, 27.916 33.337, 28.322 34.396" stroke="none" fill="#000000" fill-rule="evenodd"/><path fill-opacity=".326" d="M 24.734 1.030 C 15.471 3.356, 6.826 10.651, 2.847 19.500 C -0.285 26.464, -0.285 37.533, 2.846 44.500 C 5.786 51.042, 13.038 58.326, 19.408 61.135 C 26.510 64.267, 37.557 64.275, 44.500 61.153 C 53.467 57.121, 62.959 45.394, 62.990 38.309 C 62.996 37.104, 63.450 35.840, 64 35.500 C 64.550 35.160, 65 33.082, 65 30.882 C 65 28.470, 64.603 27.127, 64 27.500 C 63.444 27.843, 62.996 27.092, 62.990 25.809 C 62.960 18.721, 53.509 6.864, 44.843 3.042 C 39.366 0.627, 30.050 -0.305, 24.734 1.030 M 24.583 18.811 L 17.052 24.500 14.026 33.502 C 12.362 38.454, 11 42.853, 11 43.279 C 11 43.704, 14.208 41.799, 18.128 39.046 C 22.049 36.293, 25.561 34.228, 25.933 34.458 C 26.305 34.688, 27.676 38.279, 28.981 42.438 C 30.285 46.597, 31.645 50, 32.003 50 C 32.361 50, 33.907 46.400, 35.439 42 C 36.970 37.600, 38.397 34, 38.608 34 C 38.820 34, 42.144 36.249, 45.996 38.997 C 49.848 41.746, 52.991 43.659, 52.980 43.247 C 52.969 42.836, 51.716 38.545, 50.197 33.711 L 47.435 24.922 39.775 19.022 L 32.114 13.122 24.583 18.811 M 23.953 22.357 C 19.465 25.879, 18.192 27.593, 16.778 32.015 C 15.832 34.972, 15.176 37.509, 15.319 37.653 C 15.463 37.796, 17.683 36.471, 20.254 34.707 C 24.099 32.069, 25.375 30.359, 27.449 25.068 C 28.835 21.531, 29.844 18.510, 29.689 18.356 C 29.535 18.201, 26.953 20.002, 23.953 22.357 M 35 19.662 C 35 20.026, 35.754 22.715, 36.675 25.636 C 38.126 30.240, 39.079 31.433, 43.823 34.583 C 46.946 36.656, 49.050 37.571, 48.720 36.713 C 48.403 35.885, 47.582 33.338, 46.897 31.051 C 46.032 28.164, 44.213 25.690, 40.937 22.947 C 36.304 19.069, 35 18.347, 35 19.662 M 30.060 24.750 C 29.321 26.813, 28.508 29.063, 28.252 29.750 C 27.925 30.626, 29.047 31, 32 31 C 34.953 31, 36.075 30.626, 35.748 29.750 C 35.492 29.063, 34.679 26.813, 33.940 24.750 C 33.202 22.688, 32.329 21, 32 21 C 31.671 21, 30.798 22.688, 30.060 24.750 M 0.272 32 C 0.272 34.475, 0.467 35.487, 0.706 34.250 C 0.944 33.013, 0.944 30.988, 0.706 29.750 C 0.467 28.512, 0.272 29.525, 0.272 32 M 29 34.134 C 29 36.193, 31.303 43, 32 43 C 32.697 43, 35 36.193, 35 34.134 C 35 33.510, 33.650 33, 32 33 C 30.350 33, 29 33.510, 29 34.134" stroke="none" fill="#000000" fill-rule="evenodd"/><path fill-opacity=".313" d="M 24.271 1.540 C -2.593 8.775, -8.096 43.691, 15.272 58.640 C 21.404 62.563, 30.314 64.414, 36.798 63.112 C 50.248 60.410, 60.737 50.517, 62.651 38.728 C 62.987 36.653, 63.654 34.714, 64.131 34.419 C 64.609 34.124, 65 32.532, 65 30.882 C 65 29.232, 64.606 28.125, 64.125 28.423 C 63.644 28.720, 62.977 27.284, 62.644 25.232 C 60.861 14.248, 51.417 4.646, 39.289 1.487 C 32.457 -0.292, 31.056 -0.287, 24.271 1.540 M 23.978 18.928 L 16.457 24.748 13.545 33.858 C 11.944 38.868, 10.844 43.177, 11.100 43.434 C 11.356 43.690, 14.783 41.662, 18.714 38.928 L 25.862 33.956 28.637 42.478 C 30.163 47.165, 31.677 51, 32 51 C 32.323 51, 33.836 47.167, 35.362 42.483 C 37.263 36.643, 38.507 34.194, 39.318 34.694 C 39.968 35.094, 43.263 37.352, 46.639 39.711 C 50.016 42.070, 53.022 44, 53.318 44 C 53.615 44, 52.401 39.655, 50.621 34.344 L 47.384 24.689 39.942 18.861 C 35.849 15.656, 32.275 13.051, 32 13.071 C 31.725 13.091, 28.115 15.727, 23.978 18.928 M 23.745 22.780 C 20.184 25.526, 18.623 27.620, 17.408 31.277 C 16.522 33.946, 15.997 36.330, 16.241 36.575 C 16.486 36.819, 18.670 35.499, 21.093 33.640 C 24.382 31.117, 25.963 28.935, 27.324 25.037 C 28.327 22.165, 28.995 19.662, 28.809 19.476 C 28.622 19.289, 26.344 20.776, 23.745 22.780 M 35.530 21.107 C 38.148 29.397, 38.941 30.674, 43.510 33.959 L 48.322 37.418 47.593 34.515 C 46.045 28.348, 44.116 25.378, 39.530 22.107 C 34.987 18.865, 34.808 18.821, 35.530 21.107 M 30.158 24.866 C 28.491 30.431, 28.662 31, 32 31 C 33.650 31, 35 30.490, 35 29.866 C 35 27.807, 32.697 21, 32 21 C 31.624 21, 30.795 22.740, 30.158 24.866 M 0.232 32 C 0.232 33.925, 0.438 34.712, 0.689 33.750 C 0.941 32.788, 0.941 31.212, 0.689 30.250 C 0.438 29.288, 0.232 30.075, 0.232 32 M 29 33.634 C 29 35.310, 31.399 42, 32 42 C 32.601 42, 35 35.310, 35 33.634 C 35 33.285, 33.650 33, 32 33 C 30.350 33, 29 33.285, 29 33.634" stroke="none" fill="#000000" fill-rule="evenodd"/><path fill-opacity=".98" d="M 25.230 1.528 C 17.806 3.558, 14.384 5.528, 9.436 10.619 C -2.273 22.667, -2.002 41.903, 10.048 53.952 C 22.388 66.293, 41.612 66.293, 53.952 53.952 C 58.660 49.245, 63 40.643, 63 36.022 C 63 34.975, 63.450 33.840, 64 33.500 C 64.550 33.160, 65 31.982, 65 30.882 C 65 29.782, 64.550 29.160, 64 29.500 C 63.450 29.840, 63 29.208, 63 28.097 C 63 26.985, 62.061 23.566, 60.914 20.499 C 55.735 6.657, 39.003 -2.238, 25.230 1.528 M 23.741 18.872 C 16.375 24.726, 16.153 25.035, 13.460 33.178 C 11.945 37.755, 10.500 42.063, 10.246 42.750 C 9.408 45.025, 11.826 44.054, 18.341 39.500 C 21.882 37.025, 25.017 35, 25.307 35 C 25.598 35, 27.035 38.600, 28.500 43 C 29.965 47.400, 31.540 51, 32 51 C 32.460 51, 34.035 47.400, 35.500 43 C 36.965 38.600, 38.434 35, 38.763 35 C 39.092 35, 42.655 37.277, 46.681 40.060 C 50.706 42.843, 54 44.778, 54 44.361 C 54 43.944, 52.590 39.301, 50.867 34.043 C 47.754 24.547, 47.688 24.448, 40.943 19.240 C 37.209 16.356, 33.505 13.747, 32.712 13.443 C 31.871 13.120, 28.129 15.386, 23.741 18.872 M 23.870 22.885 C 20.727 25.339, 18.858 27.738, 18.049 30.354 C 17.394 32.474, 16.583 34.923, 16.248 35.796 C 15.873 36.774, 17.395 36.122, 20.212 34.099 C 23.801 31.522, 25.231 29.606, 26.853 25.201 C 27.991 22.114, 28.826 19.517, 28.711 19.429 C 28.595 19.342, 26.417 20.897, 23.870 22.885 M 35.412 20.524 C 35.852 21.611, 36.856 24.338, 37.643 26.584 C 38.650 29.457, 40.438 31.628, 43.673 33.909 C 46.202 35.692, 48.018 36.488, 47.707 35.679 C 47.397 34.870, 46.614 32.474, 45.967 30.354 C 45.139 27.639, 43.288 25.325, 39.702 22.524 C 36.019 19.647, 34.834 19.094, 35.412 20.524 M 30.613 24.407 C 30.280 25.731, 29.733 27.531, 29.397 28.407 C 28.916 29.661, 29.471 30, 32 30 C 34.529 30, 35.084 29.661, 34.603 28.407 C 34.267 27.531, 33.720 25.731, 33.387 24.407 C 32.614 21.328, 31.386 21.328, 30.613 24.407 M 0.158 32 C 0.158 33.375, 0.385 33.938, 0.662 33.250 C 0.940 32.563, 0.940 31.438, 0.662 30.750 C 0.385 30.063, 0.158 30.625, 0.158 32 M 30.054 36.750 C 30.607 38.263, 31.322 40.175, 31.643 41 C 32.043 42.029, 32.639 41.400, 33.537 39 C 35.374 34.094, 35.346 34, 32.025 34 C 29.202 34, 29.101 34.141, 30.054 36.750" stroke="none" fill="#000000" fill-rule="evenodd"/></svg>