<svg xmlns="http://www.w3.org/2000/svg" width="32" height="32" version="1.1" fill="#000000"><path fill-opacity=".125" d="M 8.218 1.607 C 2.700 4.421, 0.500 8.523, 0.500 16 C 0.500 23.654, 2.776 27.717, 8.618 30.489 C 13.361 32.740, 21.566 32.158, 25.601 29.284 C 29.718 26.353, 33 19.726, 33 14.346 C 33 11.891, 32.645 10.101, 32.212 10.369 C 31.779 10.637, 30.844 9.544, 30.134 7.940 C 27.139 1.174, 15.603 -2.159, 8.218 1.607 M 0.300 16 C 0.300 19.025, 0.487 20.263, 0.716 18.750 C 0.945 17.238, 0.945 14.763, 0.716 13.250 C 0.487 11.738, 0.300 12.975, 0.300 16 M 14.736 14.598 C 13.676 15.658, 15.121 17.891, 16.520 17.354 C 17.264 17.068, 17.629 16.197, 17.330 15.417 C 16.756 13.923, 15.733 13.600, 14.736 14.598" stroke="none" fill="#000000" fill-rule="evenodd"/><path fill-opacity=".287" d="M 7.922 2.274 C -2.718 9.444, -2.718 22.556, 7.922 29.726 C 17.962 36.492, 32.880 27.473, 32.967 14.583 C 32.985 11.879, 32.718 9.949, 32.373 10.293 C 32.029 10.638, 30.781 9.486, 29.600 7.734 C 24.419 0.046, 14.816 -2.373, 7.922 2.274 M 12.139 7.033 C 10.719 8.217, 10.324 9, 11.149 9 C 11.902 9, 13.081 8.100, 13.768 7 C 15.302 4.543, 15.124 4.546, 12.139 7.033 M 18.455 7.241 C 19.425 8.749, 20.649 9.717, 21.176 9.391 C 21.702 9.066, 21.991 8.727, 21.817 8.639 C 21.642 8.551, 20.418 7.583, 19.095 6.489 L 16.690 4.500 18.455 7.241 M 15.009 10.489 C 14.319 11.320, 13.162 12, 12.437 12 C 10.563 12, 10.115 13.187, 11.117 15.500 L 11.983 17.500 11.722 15.500 C 11.348 12.629, 15.252 10.726, 18.269 12.309 C 19.682 13.050, 20.402 14.201, 20.176 15.356 C 19.976 16.377, 20.192 17.592, 20.656 18.056 C 21.120 18.521, 21.457 17.484, 21.405 15.752 C 21.352 13.978, 20.697 12.422, 19.905 12.187 C 19.132 11.958, 17.997 11.142, 17.382 10.374 C 16.430 9.185, 16.077 9.202, 15.009 10.489 M 0.300 16 C 0.300 19.025, 0.487 20.263, 0.716 18.750 C 0.945 17.238, 0.945 14.763, 0.716 13.250 C 0.487 11.738, 0.300 12.975, 0.300 16 M 6.333 16 C 6.333 17.925, 6.522 18.935, 6.752 18.244 C 6.982 17.553, 7.486 17.182, 7.871 17.420 C 8.256 17.658, 8.571 17.019, 8.571 16 C 8.571 14.981, 8.256 14.342, 7.871 14.580 C 7.486 14.818, 6.982 14.447, 6.752 13.756 C 6.522 13.065, 6.333 14.075, 6.333 16 M 14.446 15.087 C 13.416 16.755, 15.733 18.667, 17.113 17.287 C 18.267 16.133, 17.545 14, 16 14 C 15.515 14, 14.816 14.489, 14.446 15.087 M 23.429 16 C 23.429 17.295, 23.767 17.633, 24.414 16.986 C 25.062 16.338, 25.062 15.662, 24.414 15.014 C 23.767 14.367, 23.429 14.705, 23.429 16 M 13.750 20.811 C 15.352 22.468, 15.681 22.490, 17.652 21.061 C 18.836 20.202, 19.634 19.323, 19.426 19.107 C 19.218 18.892, 18.343 19.300, 17.482 20.015 C 16.295 21, 15.634 21.034, 14.758 20.158 C 14.121 19.521, 13.240 19, 12.800 19 C 12.360 19, 12.787 19.815, 13.750 20.811 M 10.662 22.750 C 10.411 23.163, 11.332 24.345, 12.709 25.377 L 15.212 27.253 13.491 24.627 C 11.632 21.790, 11.357 21.607, 10.662 22.750 M 18.455 24.759 L 16.690 27.500 19.095 25.511 C 20.418 24.417, 21.642 23.449, 21.817 23.361 C 21.991 23.273, 21.702 22.934, 21.176 22.609 C 20.649 22.283, 19.425 23.251, 18.455 24.759" stroke="none" fill="#000000" fill-rule="evenodd"/><path fill-opacity=".397" d="M 9.450 1.407 C -0.639 5.801, -3.022 19.213, 4.882 27.118 C 13.138 35.373, 25.681 32.772, 31.033 21.695 C 33.092 17.434, 33.758 10.414, 32 11.500 C 31.450 11.840, 31 11.451, 31 10.636 C 31 8.299, 25.916 2.863, 22.329 1.364 C 18.254 -0.338, 13.420 -0.322, 9.450 1.407 M 13.491 6.015 C 13.146 6.573, 11.364 7.657, 9.532 8.422 C 6.265 9.787, 6.200 9.935, 6.200 16 C 6.200 22.065, 6.265 22.213, 9.532 23.578 C 11.364 24.343, 13.146 25.427, 13.491 25.985 C 13.836 26.543, 14.808 27, 15.651 27 C 17.336 27, 22.811 23.071, 21.385 22.885 C 20.898 22.821, 19.943 22.709, 19.261 22.635 C 17.244 22.415, 17.479 20.530, 19.571 20.147 C 20.632 19.952, 22.287 19.095, 23.250 18.242 C 24.865 16.809, 25 16.888, 25 19.262 C 25 20.676, 24.539 22.062, 23.975 22.342 C 23.411 22.621, 23.524 22.734, 24.225 22.593 C 25.069 22.423, 25.565 20.225, 25.693 16.093 C 25.886 9.883, 25.869 9.843, 22.512 8.440 C 20.655 7.665, 18.854 6.573, 18.509 6.015 C 18.164 5.457, 17.373 5, 16.750 5 C 16.127 5, 16.491 5.643, 17.559 6.429 C 19.368 7.760, 19.381 7.903, 17.750 8.536 C 16.787 8.909, 15.274 8.936, 14.387 8.595 C 13.081 8.094, 13.010 7.693, 14.010 6.488 C 14.689 5.670, 14.991 5, 14.681 5 C 14.372 5, 13.836 5.457, 13.491 6.015 M 8.314 9.824 C 6.834 10.765, 6.856 21.731, 8.339 22.300 C 10.315 23.058, 14.012 22.559, 14.263 21.500 C 14.393 20.950, 13.520 20.360, 12.323 20.190 C 11.125 20.019, 9.599 19.222, 8.931 18.417 C 7.936 17.218, 8.013 17.068, 9.359 17.584 C 10.576 18.051, 11 17.642, 11 16 C 11 14.358, 10.576 13.949, 9.359 14.416 C 8.013 14.932, 7.936 14.782, 8.931 13.583 C 9.599 12.778, 11.125 11.981, 12.323 11.810 C 13.520 11.640, 14.500 11.060, 14.500 10.521 C 14.500 9.369, 9.854 8.846, 8.314 9.824 M 17.626 9.707 C 16.667 10.666, 18.010 12, 19.937 12 C 20.937 12, 22.324 12.685, 23.019 13.523 C 24.069 14.788, 24.019 14.944, 22.721 14.446 C 21.641 14.032, 21.007 14.565, 20.666 16.174 C 20.202 18.360, 20.182 18.350, 20.336 16 C 20.557 12.624, 16.962 10.609, 13.750 12.309 C 10.759 13.892, 10.741 18.098, 13.719 19.674 C 15.524 20.630, 16.665 20.497, 19.848 18.959 C 21.999 17.920, 24.038 16.342, 24.380 15.453 C 25.233 13.228, 25.159 10.024, 24.250 9.886 C 20.315 9.288, 18.105 9.228, 17.626 9.707 M 0.272 16 C 0.272 18.475, 0.467 19.488, 0.706 18.250 C 0.944 17.012, 0.944 14.988, 0.706 13.750 C 0.467 12.512, 0.272 13.525, 0.272 16 M 14.446 15.087 C 13.416 16.755, 15.733 18.667, 17.113 17.287 C 18.267 16.133, 17.545 14, 16 14 C 15.515 14, 14.816 14.489, 14.446 15.087 M 13.496 24.007 C 12.701 25.292, 15.510 26.402, 17.563 25.614 C 18.423 25.284, 18.847 24.561, 18.504 24.007 C 17.699 22.704, 14.301 22.704, 13.496 24.007" stroke="none" fill="#000000" fill-rule="evenodd"/><path fill-opacity="1" d="M 8.962 2.250 C 4.159 4.672, 0 11.053, -0 16 C -0 20.947, 4.159 27.328, 8.962 29.750 C 14.573 32.580, 17.427 32.580, 23.038 29.750 C 26.364 28.073, 28.180 26.227, 30.169 22.500 C 32.485 18.161, 34.133 10.534, 32.375 12.292 C 32.031 12.635, 30.794 11.023, 29.625 8.708 C 27.330 4.163, 20.816 -0, 16 -0 C 14.583 -0, 11.416 1.012, 8.962 2.250 M 13.439 5.757 C 12.372 6.724, 10.262 8.064, 8.750 8.736 C 6.205 9.866, 6 10.391, 6 15.779 C 6 21.527, 7.125 24, 9.742 24 C 10.480 24, 12.029 24.881, 13.186 25.958 C 14.890 27.546, 15.686 27.707, 17.394 26.809 C 18.552 26.199, 19.725 25.421, 20 25.080 C 20.275 24.739, 21.738 23.916, 23.250 23.251 C 25.813 22.125, 26 21.633, 26 16 C 26 10.371, 25.812 9.874, 23.250 8.736 C 21.738 8.064, 19.628 6.724, 18.561 5.757 C 17.495 4.791, 16.343 4, 16 4 C 15.657 4, 14.505 4.791, 13.439 5.757 M 13.496 7.007 C 12.701 8.292, 15.510 9.402, 17.563 8.614 C 19.567 7.845, 18.464 6, 16 6 C 14.965 6, 13.838 6.453, 13.496 7.007 M 8.250 9.662 C 6.678 10.297, 6.585 14.305, 8.154 13.782 C 9.431 13.356, 11.363 8.953, 10.218 9.079 C 9.823 9.122, 8.938 9.385, 8.250 9.662 M 11.585 10.639 C 11.118 11.856, 11.443 12.117, 12.937 11.727 C 14.019 11.444, 15.151 11.727, 15.452 12.356 C 15.863 13.215, 16.137 13.215, 16.548 12.356 C 16.849 11.727, 17.981 11.444, 19.063 11.727 C 20.564 12.119, 20.883 11.858, 20.408 10.621 C 19.680 8.725, 18.821 8.579, 17.307 10.093 C 16.525 10.875, 15.644 10.880, 14.207 10.111 C 12.618 9.260, 12.072 9.370, 11.585 10.639 M 22 10.831 C 22 11.804, 22.563 13.167, 23.250 13.859 C 24.252 14.869, 24.153 14.986, 22.750 14.452 C 21.410 13.942, 21 14.304, 21 16 C 21 17.696, 21.410 18.058, 22.750 17.548 C 24.153 17.014, 24.252 17.131, 23.250 18.141 C 21.516 19.888, 21.628 23.080, 23.400 22.400 C 25.365 21.646, 25.365 10.354, 23.400 9.600 C 22.525 9.264, 22 9.726, 22 10.831 M 0.232 16 C 0.232 17.925, 0.438 18.712, 0.689 17.750 C 0.941 16.788, 0.941 15.213, 0.689 14.250 C 0.438 13.287, 0.232 14.075, 0.232 16 M 12 16 C 12 18, 12.500 19, 13.500 19 C 15.318 19, 15.484 17.393, 13.750 16.583 C 12.750 16.117, 12.750 15.883, 13.750 15.417 C 15.484 14.607, 15.318 13, 13.500 13 C 12.500 13, 12 14, 12 16 M 17 13.917 C 17 14.421, 17.563 15.096, 18.250 15.417 C 19.250 15.883, 19.250 16.117, 18.250 16.583 C 16.516 17.393, 16.682 19, 18.500 19 C 19.500 19, 20 18, 20 16 C 20 14, 19.500 13, 18.500 13 C 17.675 13, 17 13.412, 17 13.917 M 8.571 15.571 C 6.577 17.566, 6.535 21.607, 8.500 22.362 C 10.367 23.078, 10.546 19.989, 8.750 18.053 C 7.730 16.953, 7.821 16.819, 9.250 17.321 C 10.533 17.773, 11 17.411, 11 15.969 C 11 13.589, 10.616 13.527, 8.571 15.571 M 15 19.906 C 15 20.405, 14.093 20.576, 12.985 20.286 C 11.436 19.881, 11.114 20.133, 11.592 21.379 C 12.320 23.275, 13.179 23.421, 14.693 21.907 C 15.475 21.125, 16.356 21.120, 17.793 21.889 C 19.382 22.740, 19.928 22.630, 20.415 21.361 C 20.885 20.135, 20.556 19.883, 19.015 20.286 C 17.907 20.576, 17 20.405, 17 19.906 C 17 19.408, 16.550 19, 16 19 C 15.450 19, 15 19.408, 15 19.906 M 13.496 24.007 C 12.701 25.292, 15.510 26.402, 17.563 25.614 C 18.423 25.284, 18.847 24.561, 18.504 24.007 C 17.699 22.704, 14.301 22.704, 13.496 24.007" stroke="none" fill="#000000" fill-rule="evenodd"/></svg>