<!-- Generated by IcoMoon.io -->
<svg version="1.1" xmlns="http://www.w3.org/2000/svg" width="32" height="32" viewBox="0 0 32 32" fill="#000000">
<title>snt</title>
<path d="M10.726 14.057c-0.534 0-1.079 0.028-1.636 0.084s-1.101 0.116-1.635 0.183c0.222-2.021 0.79-3.908 1.702-5.663s2.075-3.27 3.488-4.547c1.413-1.277 3.032-2.282 4.857-3.015 1.802-0.733 3.727-1.099 5.775-1.099 1.246 0 2.381 0.156 3.405 0.466 1.046 0.311 1.936 0.772 2.67 1.382s1.302 1.394 1.703 2.349c0.401 0.933 0.601 2.021 0.601 3.264s-0.245 2.332-0.735 3.265c-0.49 0.933-1.179 1.71-2.069 2.332s-1.947 1.088-3.171 1.399-2.582 0.466-4.072 0.466c-2.181 0-3.994-0.145-5.441-0.433s-3.26-0.433-5.441-0.433zM10.392 17.055c-1.491 0-2.86 0.156-4.106 0.466-1.224 0.311-2.275 0.772-3.154 1.383s-1.563 1.393-2.053 2.348c-0.49 0.933-0.735 2.021-0.735 3.265s0.2 2.332 0.601 3.264c0.401 0.933 0.968 1.71 1.703 2.332s1.625 1.088 2.67 1.399c1.024 0.311 2.159 0.466 3.405 0.466 2.047 0 3.972-0.366 5.775-1.099 1.825-0.733 3.444-1.738 4.857-3.015s2.576-2.793 3.488-4.547c0.912-1.754 1.48-3.642 1.702-5.663-0.534 0.089-1.079 0.155-1.635 0.2s-1.102 0.067-1.636 0.067c-2.181 0-3.995-0.145-5.441-0.433s-3.26-0.433-5.441-0.433z"/>
</svg>
