<svg width="500" height="500" viewBox="0 0 500 500" fill="#000000" xmlns="http://www.w3.org/2000/svg">
<path d="M85.8905 55.484C81.2343 57.5777 0.68742 138.468 0.12492 141.625C-0.421955 144.64 1.28117 148.203 4.17179 150.125L6.31242 151.546L410.953 151.218L413.781 149.75C418.406 147.343 498.406 67.1246 499.25 64.0621C500.109 60.9214 498.297 56.5933 495.531 55.1558C492.125 53.3902 89.8124 53.7027 85.8905 55.4683V55.484ZM5.10929 200.812C1.23429 202.5 -0.859455 206.937 0.40617 210.765C1.43742 213.875 82.0624 294.265 85.8905 295.984C88.703 297.25 89.2812 297.25 291.359 297.265L494 297.281L496.141 295.843C498.891 294 500.219 290.359 499.281 287.234C498.391 284.234 417.281 203.062 413.484 201.359C410.109 199.843 8.57804 199.312 5.14054 200.812H5.10929ZM86.5155 349.234C83.3124 350.343 2.62492 430.078 0.78117 433.984C-0.984455 437.718 0.34367 442.203 3.8593 444.359C6.99992 446.281 410.359 445.89 413.875 443.968C417.578 441.937 497.094 362.859 498.641 359.671C500.609 355.609 499.203 351.062 495.375 349.093C492.609 347.671 90.6874 347.828 86.5155 349.25V349.234Z" fill="#000000"/>
</svg>
