<svg width="500" height="478" viewBox="0 0 500 478" fill="#000000" xmlns="http://www.w3.org/2000/svg">
<path fill-rule="evenodd" clip-rule="evenodd" d="M156.173 5.78787C145.651 9.18038 133.216 13.742 128.54 15.9186C123.863 18.0953 112.865 23.031 104.095 26.8869C95.3288 30.7428 88.1526 35.721 88.1526 37.9487C88.1526 40.1763 86.112 42.0001 83.6165 42.0001C77.8348 42.0001 45.8186 68.426 45.7166 73.2852C45.674 75.296 41.6779 81.0522 36.8357 86.0857C0.899755 123.425 -12.1516 235.224 13.1051 289.364C19.3077 302.658 24.3837 314.914 24.3837 316.598C24.3837 318.277 29.1664 325.925 35.0119 333.59C40.8574 341.255 45.64 349.337 45.64 351.551C45.64 358.124 101.451 413.127 122.409 427.211C308.325 552.122 534.301 431.016 495.636 227.185C489.914 197.01 475.213 160.415 470.086 163.582C468.122 164.794 466.515 162.77 466.515 159.084C466.515 134.423 413.451 71.2233 379.245 55.145C369.225 50.4346 356.139 42.0511 350.166 36.516C319.723 8.30037 204.803 -9.90354 156.173 5.78787ZM332.6 32.0054C348.755 39.6322 350.796 41.5027 341.103 39.8107C304.64 33.4423 255.474 32.6473 227.271 37.9699L196.998 43.6836L218.037 49.4951C229.605 52.692 246.725 57.4322 256.077 60.0297C274.834 65.2333 310.485 85.5458 324.761 99.1583C329.803 103.962 336.499 110.263 339.64 113.158C404.608 172.981 410.407 312.015 350.013 361.814C342.391 368.097 342.149 369.173 348.343 369.254C360.701 369.415 406.997 348.593 406.997 342.875C406.997 341.068 409.136 339.588 411.75 339.588C439.383 339.588 471.663 271.492 471.646 213.22C471.638 168.199 471.744 167.706 477.815 184.417C516.438 290.754 428.964 403.357 307.735 403.357C93.0586 403.357 -6.26786 122.74 177.132 34.3649C217.421 14.9536 294.011 13.7887 332.6 32.0054Z" fill="#000000"/>
</svg>
