<svg xmlns="http://www.w3.org/2000/svg" width="32" height="32" fill="#000000"><path fill="#fafafa" d="M15.932 31.864c8.799 0 15.932-7.133 15.932-15.932S24.73 0 15.932 0 0 7.133 0 15.932s7.133 15.932 15.932 15.932Z"/><path fill="#fafafa" d="M12.12 14.706c-1.09-1.634-2.316-3.131-3.405-4.63-.272-.272-.409-.544-.681-.953-.136-.136-.136-.408-.136-.544.136-.273.408-.273.545-.273H23.83c.272 0 .545 0 .68.273.137.272 0 .408-.136.68-.544 1.09-1.497 1.635-2.723 1.498-1.77-.136-3.54 0-5.31 0-2.588 0-3.95 1.226-4.222 3.813v.136Z"/><path fill="#fafafa" d="M6.809 8.715c.272 0 .408.272.408.408l9.396 13.073c.272.408.544.953.817 1.225.544.545.408 1.09 0 1.634-.273.409-.545.954-.817 1.498-.136.273-.273.409-.545.409s-.408-.273-.545-.409c-1.634-3.404-3.404-6.672-5.038-10.076-1.09-2.452-2.451-5.039-3.676-7.762ZM18.791 16.749c.137-1.362-.272-1.906-1.634-1.906h-4.493c-.272 0-.409 0-.272-.409.272-1.498 1.089-2.587 2.587-2.86.272 0 .408-.136.408.137.136.408.545.544.953.544h5.72c-1.09 1.498-2.18 2.996-3.268 4.494ZM18.383 23.694c-.545-.817-.953-1.498-1.498-2.18-.272-.271 0-.408.136-.68 2.451-3.404 4.902-6.672 7.217-10.077.409-.68.954-1.225 1.362-1.906 0 0 .136 0 .136.136-2.45 4.902-4.902 9.668-7.353 14.707Z"/><path fill="#fafafa" d="M13.48 16.477h3.133c.68 0 .953-.273.953-.954 0-.272.136-.136.136-.136.272.136.545.273.681.681.136.68.136 1.226-.272 1.906-.409.681-.954 1.226-1.362 1.907-.272.272-.545.408-.817.136-.817-1.362-1.634-2.451-2.451-3.54Z"/></svg>