<svg width="500" height="500" viewBox="0 0 500 500" fill="#000000" xmlns="http://www.w3.org/2000/svg">
<path fill-rule="evenodd" clip-rule="evenodd" d="M220.338 1.41382C214.428 2.12916 203.848 3.91602 196.827 5.38372C189.806 6.85143 178.149 10.0249 170.923 12.4351C163.697 14.8453 153.205 18.8482 147.607 21.3294C142.01 23.8116 133.289 28.1717 128.23 31.019C123.17 33.8654 115.204 38.7097 110.528 41.7842C105.85 44.8577 97.7464 50.8175 92.5189 55.0285C87.2904 59.2396 77.3776 68.48 70.4923 75.5614C63.606 82.6438 54.5747 92.9588 50.4227 98.4834C46.2707 104.008 40.2338 112.787 37.0063 117.993C33.7787 123.198 28.093 133.76 24.3722 141.464C20.6504 149.168 15.3609 162.224 12.6175 170.478C9.87423 178.732 6.51362 190.888 5.14997 197.491C3.78531 204.094 2.06248 213.549 1.32113 218.501C0.457713 224.263 -0.0175149 236.514 0.000493778 252.517C0.0255058 274.103 0.343659 279.288 2.32161 290.369C3.58221 297.43 6.14844 308.807 8.02434 315.652C9.90025 322.496 13.463 333.284 15.9421 339.625C18.4213 345.965 23.1906 356.528 26.5402 363.097C29.8888 369.667 36.6191 381.015 41.4954 388.316C46.3717 395.616 54.1995 406.146 58.8918 411.717C63.583 417.286 72.0551 426.227 77.7188 431.583C83.3815 436.941 92.9751 445.059 99.038 449.625C105.101 454.191 113.694 460.18 118.135 462.934C122.575 465.688 131.232 470.461 137.373 473.54C143.513 476.62 153.035 480.931 158.532 483.121C164.028 485.311 173.046 488.446 178.569 490.086C184.094 491.728 194.342 494.176 201.344 495.529C208.346 496.881 219.472 498.533 226.068 499.2C233.703 499.972 245.154 500.198 257.583 499.822C268.32 499.498 281.608 498.53 287.11 497.674C292.613 496.817 302.682 494.737 309.485 493.05C316.289 491.364 326.419 488.399 331.996 486.461C337.574 484.522 347.339 480.587 353.698 477.715C360.057 474.843 370.637 469.306 377.21 465.412C383.782 461.516 393.661 454.962 399.164 450.847C404.667 446.733 413.446 439.535 418.673 434.855C423.901 430.174 431.134 423.025 434.747 418.968C438.36 414.912 444.091 408.087 447.482 403.801C450.873 399.516 456.648 391.459 460.314 385.897C463.982 380.336 469.771 370.324 473.18 363.649C476.588 356.972 481.26 346.692 483.565 340.801C485.868 334.91 489.286 324.492 491.161 317.65C493.036 310.807 495.607 299.431 496.873 292.369C498.9 281.066 499.176 276.299 499.184 252.517C499.19 231.524 498.794 222.94 497.407 213.999C496.425 207.671 494.457 197.541 493.034 191.488C491.611 185.435 488.444 174.63 485.995 167.477C483.547 160.323 478.244 147.717 474.211 139.463C470.178 131.209 463.315 119.053 458.959 112.45C454.603 105.847 448.337 97.0607 445.036 92.9257C441.735 88.7908 435.015 81.1851 430.104 76.0246C425.193 70.8632 416.672 62.8663 411.17 58.2521C405.667 53.6379 396.213 46.5395 390.16 42.4785C384.107 38.4166 375.328 32.993 370.65 30.4247C365.973 27.8565 357.168 23.5454 351.083 20.8431C344.998 18.1408 334.636 14.1619 328.055 12.0009C321.475 9.84086 310.523 6.89745 303.717 5.45976C296.912 4.02307 285.667 2.18319 278.728 1.3718C271.646 0.543399 258.431 -0.0558882 248.598 0.0041406C238.965 0.0641694 226.248 0.698474 220.338 1.41382ZM277.606 35.3881C281.182 36.3296 288.161 39.0499 293.113 41.435C298.066 43.8192 304.803 47.9492 308.085 50.6124C311.368 53.2747 316.702 58.5983 319.938 62.4421C323.562 66.7452 327.887 73.6565 331.198 80.4347C334.155 86.4877 339.009 98.8726 341.986 107.958C344.962 117.042 348.015 127.172 348.769 130.469C349.877 135.31 350.141 154.049 350.141 228.006C350.141 312.407 350.003 320.033 348.379 325.741C347.409 329.146 343.75 338.601 340.249 346.752C336.746 354.901 327.047 376.652 318.694 395.086C310.341 413.52 301.291 433.234 298.582 438.895C295.874 444.556 292.275 451.197 290.586 453.652C288.896 456.107 287.121 458.116 286.641 458.116C286.156 458.116 285.575 425.774 285.333 385.331C284.983 326.759 284.574 309.518 283.238 297.039C282.326 288.51 280.688 276.025 279.599 269.294C278.51 262.565 276.699 252.886 275.576 247.784C274.452 242.684 273.313 237.782 273.043 236.893C272.662 235.636 275.742 233.811 286.835 228.723C294.69 225.119 304.665 220.763 309.001 219.044C313.336 217.324 318.838 214.573 321.227 212.929C323.615 211.287 326.699 208.46 328.08 206.649C329.462 204.838 331.297 201.362 332.158 198.923C333.019 196.484 333.816 190.814 333.929 186.322C334.041 181.829 333.873 177.894 333.556 177.573C333.237 177.254 325.284 180.315 315.88 184.375C306.476 188.434 293.229 193.91 286.443 196.544C278.178 199.751 273.065 202.365 270.956 204.461C269.224 206.182 267.316 209.37 266.715 211.545C265.84 214.709 266.131 219.698 268.174 236.51C269.579 248.065 270.76 260.671 270.8 264.523C270.857 269.903 270.328 272.686 268.519 276.529C267.224 279.28 264.067 283.635 261.505 286.206C258.696 289.025 255.229 291.365 252.771 292.101C249.539 293.07 248.069 293.063 245.667 292.068C244.002 291.378 240.787 288.804 238.523 286.348C236.258 283.891 233.266 279.393 231.875 276.353C229.936 272.119 229.359 269.265 229.411 264.172C229.448 260.513 230.627 249.963 232.032 240.728C233.436 231.491 234.585 221.204 234.585 217.868C234.585 214.53 233.908 210.381 233.079 208.647C232.252 206.913 230.11 204.499 228.321 203.282C226.531 202.064 220.343 199.313 214.568 197.167C208.795 195.021 196.417 189.789 187.062 185.54C177.708 181.292 169.301 177.584 168.379 177.301C167.038 176.89 166.565 177.715 166.006 181.44C165.623 183.999 165.616 188.415 165.993 191.251C166.369 194.088 167.6 198.555 168.728 201.179C169.858 203.803 172.787 207.799 175.241 210.06C177.693 212.32 182.482 215.435 185.882 216.98C189.282 218.527 198.444 222.589 206.24 226.009C214.036 229.428 221.883 233.451 223.677 234.949L226.938 237.672L224.298 249.597C222.845 256.155 220.972 265.799 220.132 271.026C219.294 276.254 217.906 286.834 217.05 294.538C216.192 302.241 215.108 319.387 214.639 332.64C214.171 345.892 214.158 371.104 214.611 388.667C215.065 406.229 215.759 429.489 216.154 440.357C216.86 459.73 216.835 460.117 214.861 460.117C213.662 460.117 211.797 458.598 210.252 456.365C208.826 454.302 203.768 444.059 199.012 433.604C194.257 423.149 181.633 394.925 170.958 370.882C160.282 346.84 150.985 324.779 150.297 321.859C149.344 317.82 149.044 295.713 149.044 229.506C149.044 161.61 149.336 140.814 150.372 134.961C151.102 130.834 153.015 122.328 154.623 116.06C156.23 109.791 159.857 98.8736 162.683 91.8002C165.507 84.7268 169.742 75.6735 172.093 71.6825C174.444 67.6926 178.023 62.5121 180.046 60.171C182.069 57.8299 186.358 53.888 189.576 51.4108C192.795 48.9336 198.499 45.3629 202.251 43.476C206.003 41.5881 211.999 39.1209 215.576 37.9934C219.153 36.8648 225.681 35.2761 230.083 34.4617C235.729 33.4172 242.951 33.083 254.595 33.3291C265.98 33.5692 273.121 34.2086 277.606 35.3881Z" fill="#000000"/>
</svg>
