<svg xmlns="http://www.w3.org/2000/svg" width="250" height="250" version="1.1" fill="#000000"><path fill-opacity=".118" d="M 204.985 36.544 C 193.597 43.003, 185.344 46.368, 179.849 46.791 C 174.995 47.165, 172.172 46.519, 159.822 42.213 C 135.584 33.762, 118.272 33.182, 96.475 40.090 C 74.550 47.038, 53.946 64.765, 43.695 85.500 C 32.476 108.196, 30.908 134.831, 39.458 157.499 C 40.910 161.348, 42.467 164.867, 42.917 165.317 C 43.578 165.978, 51.259 162.102, 62.899 155.235 C 64.068 154.545, 63.952 153.487, 62.186 148.769 C 50.869 118.520, 64.886 82.511, 93.732 67.727 C 104.616 62.149, 113.128 59.996, 124.606 59.919 C 133.604 59.859, 139.611 60.797, 148.250 63.613 C 153.569 65.346, 153.990 66.016, 150.742 67.580 C 141.391 72.084, 95.838 99.028, 93.250 101.587 C 90.536 104.270, 90 105.546, 90 109.323 C 90 117.207, 97.401 123.179, 104.610 121.112 C 106.308 120.625, 129.928 107.496, 157.098 91.937 C 184.269 76.378, 209.325 62.062, 212.778 60.123 C 220.863 55.582, 222.671 53.832, 224.058 49.200 C 225.555 44.204, 223.416 38.834, 218.810 36.026 C 214.385 33.328, 210.390 33.478, 204.985 36.544 M 198.500 93.325 C 193.550 96.183, 188.985 98.851, 188.354 99.255 C 187.528 99.784, 187.904 102.151, 189.702 107.744 C 192.509 116.473, 193.186 131.689, 191.146 140.185 C 182.769 175.069, 148.865 198.058, 114.596 192.090 C 106.618 190.701, 99.528 188.068, 100.685 186.924 C 101.133 186.481, 114.100 178.947, 129.500 170.183 C 158.841 153.484, 162 151.017, 162 144.802 C 162 141.146, 159.679 136.589, 156.783 134.561 C 155.558 133.702, 152.572 133, 150.149 133 C 145.440 133, 145.564 132.940, 120.500 147.282 C 32.403 197.690, 29.984 199.130, 28.452 202.092 C 24.163 210.387, 29.839 220, 39.027 220 C 40.955 220, 46.054 217.841, 52.327 214.368 C 70.052 204.554, 73.964 204.026, 88.206 209.526 C 103.194 215.315, 109.701 216.506, 126 216.449 C 137.781 216.407, 142.071 215.975, 148.877 214.145 C 174.842 207.163, 197.496 188.126, 208.723 163.854 C 218.246 143.268, 219.385 118.269, 211.792 96.500 C 208.605 87.362, 208.763 87.399, 198.500 93.325" stroke="none" fill="#000000" fill-rule="evenodd"/><path fill-opacity=".364" d="M 199.691 39.904 C 193.200 43.178, 185.682 46.331, 182.983 46.910 C 177.648 48.054, 170.061 47.093, 165.251 44.663 C 160.910 42.470, 147.073 38.203, 140.566 37.051 C 125.803 34.437, 106.678 36.391, 92.216 41.992 C 54.422 56.628, 29.775 97.341, 34.944 136.598 C 36.784 150.569, 41.698 165.483, 44.246 164.824 C 44.936 164.646, 49.470 162.259, 54.323 159.521 C 61.605 155.411, 63.064 154.189, 62.679 152.521 C 62.422 151.409, 61.264 146.941, 60.106 142.590 C 54.242 120.566, 60.792 96.227, 76.972 79.908 C 95.822 60.897, 120.857 54.617, 146.057 62.578 C 150.455 63.967, 153.837 65.455, 153.572 65.883 C 153.307 66.312, 139.740 74.276, 123.422 83.581 C 92.547 101.188, 90.012 103.139, 90.004 109.300 C 89.995 115.808, 95.412 121, 102.210 121 C 104.710 121, 116.654 114.613, 151.010 94.903 C 176.030 80.549, 202.001 65.680, 208.724 61.859 C 215.447 58.039, 221.634 53.933, 222.474 52.734 C 225.507 48.403, 223.902 39.476, 219.581 36.645 C 214.428 33.269, 212.079 33.653, 199.691 39.904 M 198.144 93.961 C 193.549 96.628, 189.401 99.199, 188.927 99.673 C 188.444 100.156, 189.009 103.388, 190.210 107.018 C 191.933 112.227, 192.360 115.955, 192.383 126 C 192.408 137.126, 192.106 139.379, 189.632 146.500 C 185.509 158.367, 181.576 164.592, 172.473 173.653 C 163.449 182.635, 153.373 188.361, 141 191.537 C 129.587 194.466, 104.480 192.314, 99.677 187.994 C 99.224 187.586, 100.799 186.152, 103.177 184.807 C 136.431 165.995, 156.010 154.299, 158.250 151.906 C 160.423 149.585, 161 148.006, 161 144.384 C 161 140.504, 160.478 139.278, 157.600 136.400 C 151.145 129.945, 153.005 129.151, 89.387 165.529 C 58.099 183.421, 31.454 199.102, 30.175 200.377 C 24.406 206.130, 27.431 216.060, 35.846 218.991 C 40.060 220.459, 40.221 220.430, 46.313 217.128 C 67.302 205.753, 66.687 206, 73.978 206 C 79.308 206, 82.560 206.685, 88.476 209.054 C 105.073 215.700, 120.286 217.968, 135.685 216.093 C 185.532 210.024, 220.856 166.491, 215.867 117.275 C 214.673 105.496, 209.583 88.876, 207.224 89.055 C 206.826 89.085, 202.740 91.293, 198.144 93.961" stroke="none" fill="#000000" fill-rule="evenodd"/><path fill-opacity=".734" d="M 200.180 39.940 C 183.845 49.423, 177.776 49.897, 159.868 43.085 C 145.682 37.688, 133.410 35.593, 120.500 36.363 C 77.228 38.942, 43.301 69.427, 35.936 112.348 C 34.445 121.032, 35.240 140.517, 37.410 148.500 C 39.141 154.870, 42.962 165, 43.633 165 C 44.486 165, 61.967 154.863, 62.443 154.092 C 62.720 153.644, 62.056 150.746, 60.968 147.651 C 55.042 130.788, 57.871 106.287, 67.513 90.965 C 85.068 63.073, 119.890 51.569, 150.137 63.671 C 152.262 64.522, 154 65.518, 154 65.887 C 154 66.255, 140.777 74.110, 124.614 83.342 C 108.452 92.574, 94.336 101.111, 93.246 102.314 C 90.427 105.421, 89.730 109.426, 91.345 113.242 C 93.202 117.629, 96.030 119.968, 100.321 120.665 C 104.047 121.269, 102.978 121.781, 131 105.990 C 134.575 103.975, 151.225 94.449, 168 84.821 C 184.775 75.193, 203 64.745, 208.500 61.603 C 214 58.461, 219.738 54.558, 221.250 52.929 C 225.771 48.061, 224.605 40.559, 218.775 37.004 C 213.625 33.865, 209.533 34.511, 200.180 39.940 M 197.863 94.636 L 188.227 100.055 190.324 106.278 C 192.059 111.426, 192.419 114.916, 192.413 126.500 C 192.406 139.233, 192.159 141.178, 189.680 147.988 C 188.182 152.107, 185.503 157.942, 183.728 160.955 C 179.531 168.078, 167.962 179.598, 160.708 183.877 C 147.634 191.589, 131.432 195.062, 117.357 193.168 C 109.599 192.123, 100.335 189.588, 98.714 188.066 C 98.281 187.660, 111.274 179.716, 127.587 170.414 C 158.453 152.812, 160.988 150.861, 160.996 144.700 C 161.005 137.964, 154.195 132.139, 147.921 133.517 C 146.279 133.878, 128.413 143.641, 108.218 155.212 C 88.023 166.784, 62.500 181.406, 51.500 187.706 C 40.500 194.005, 30.723 200.136, 29.772 201.330 C 27.191 204.572, 27.458 211.811, 30.289 215.349 C 32.037 217.533, 33.666 218.321, 37.276 218.728 C 41.622 219.217, 42.810 218.795, 52.742 213.234 C 69.606 203.792, 74.835 203.191, 89.403 209.025 C 106.744 215.969, 128.104 218.047, 144.290 214.366 C 177.913 206.718, 203.785 182.490, 213.021 150 C 215.778 140.304, 216.712 122.717, 215.027 112.261 C 213.872 105.099, 209.651 91.358, 208.145 89.858 C 207.790 89.505, 203.164 91.655, 197.863 94.636" stroke="none" fill="#000000" fill-rule="evenodd"/><path fill-opacity=".947" d="M 205 37.986 C 192.488 45.005, 186.650 47.235, 179.500 47.726 C 173.108 48.164, 171.544 47.845, 161.500 44.048 C 146.547 38.395, 138.659 36.836, 125 36.834 C 101.783 36.829, 80.946 44.949, 64.192 60.528 C 37.160 85.666, 28.115 123.833, 41.018 158.318 C 42.187 161.443, 43.482 164, 43.896 164 C 44.310 164, 48.696 161.743, 53.644 158.984 L 62.639 153.968 60.170 146.734 C 56.920 137.209, 56.513 117.915, 59.365 108.500 C 69.313 75.652, 100.582 54.826, 133.658 59.020 C 141.568 60.023, 154.143 63.911, 154.663 65.515 C 154.838 66.057, 143.174 73.233, 128.741 81.463 C 96.288 99.969, 93.853 101.494, 92.311 104.268 C 89.639 109.078, 91.624 116.509, 96.165 118.695 C 102.702 121.841, 102.358 121.972, 131 105.482 C 142.275 98.990, 155.016 91.714, 159.314 89.312 C 163.611 86.910, 168.890 83.832, 171.044 82.472 C 173.198 81.113, 175.179 80, 175.446 80 C 175.916 80, 192.754 70.282, 207.785 61.336 C 211.792 58.951, 215.420 57, 215.846 57 C 217.551 57, 222.903 50.718, 223.495 48.021 C 224.665 42.696, 219.783 36.296, 213.874 35.407 C 211.327 35.025, 209.152 35.656, 205 37.986 M 197.667 95.153 C 190.051 99.554, 188.918 100.549, 189.445 102.378 C 192.877 114.287, 193.379 117.394, 193.340 126.500 C 193.291 138.180, 191.397 146.377, 186.384 156.608 C 175.340 179.151, 150.930 194, 124.916 194 C 117.354 194, 101.420 190.758, 98.505 188.627 C 97.005 187.530, 100.504 185.249, 125.641 170.934 C 141.514 161.895, 155.850 153.299, 157.500 151.832 C 160.023 149.588, 160.500 148.423, 160.500 144.500 C 160.500 140.496, 160.038 139.423, 157.234 136.918 C 154.857 134.794, 152.953 134.002, 150.234 134.006 C 146.547 134.012, 145.357 134.477, 137.500 138.978 C 135.300 140.238, 130.125 143.152, 126 145.452 C 121.875 147.753, 112.425 153.167, 105 157.483 C 97.575 161.799, 89.025 166.674, 86 168.317 C 82.975 169.961, 79.375 172.050, 78 172.961 C 76.625 173.871, 65.645 180.215, 53.599 187.058 C 31.233 199.764, 28.013 202.374, 28.004 207.800 C 27.995 213.360, 33.611 219, 39.156 219 C 40.397 219, 46.832 215.963, 53.456 212.250 L 65.500 205.500 73.500 205.500 C 79.899 205.500, 82.837 206.044, 88.181 208.218 C 132.339 226.184, 179.207 211.238, 203.322 171.500 C 216.963 149.022, 219.469 117.514, 209.512 93.683 C 208.666 91.657, 207.642 90.011, 207.237 90.024 C 206.831 90.038, 202.525 92.346, 197.667 95.153" stroke="none" fill="#000000" fill-rule="evenodd"/></svg>