<svg xmlns="http://www.w3.org/2000/svg" width="64" height="64" version="1.1" fill="#000000"><path fill-opacity=".424" d="M 22.300 1.862 C 11.528 5.584, 4.524 12.949, 1.339 23.905 C -2.808 38.171, 4.814 54.363, 18.661 60.702 C 36.140 68.704, 57.103 59.480, 62.189 41.548 C 62.821 39.321, 63.711 37.072, 64.169 36.550 C 65.143 35.437, 65.315 25.352, 64.343 26.324 C 63.982 26.685, 62.933 24.757, 62.014 22.040 C 58.538 11.772, 51.049 4.577, 40.614 1.478 C 34.095 -0.458, 28.686 -0.344, 22.300 1.862 M 0.300 32 C 0.300 35.025, 0.487 36.263, 0.716 34.750 C 0.945 33.237, 0.945 30.762, 0.716 29.250 C 0.487 27.738, 0.300 28.975, 0.300 32" stroke="none" fill="#000000" fill-rule="evenodd"/><path fill-opacity=".489" d="M 24.081 1.537 C 17.074 3.488, 12.992 6.066, 8.083 11.643 C 0.873 19.834, -1.294 31.912, 2.460 42.990 C 5.028 50.569, 13.431 58.972, 21.010 61.540 C 33.323 65.712, 45.123 63.037, 54.129 54.031 C 58.666 49.494, 60.116 47.214, 61.497 42.441 C 62.443 39.174, 63.618 35.719, 64.109 34.764 C 65.327 32.390, 65.246 27.730, 64 28.500 C 63.450 28.840, 63 28.272, 63 27.237 C 63 18.644, 52.746 5.731, 43.490 2.669 C 36.004 0.193, 30.141 -0.149, 24.081 1.537 M 6.200 27.200 C 4.305 29.095, 4.789 30.947, 7.500 32.182 C 8.875 32.808, 10 33.976, 10 34.777 C 10 35.791, 9.241 36.088, 7.500 35.755 C 6.125 35.492, 5 35.665, 5 36.139 C 5 37.433, 9.426 37.174, 10.800 35.800 C 12.725 33.875, 12.196 32.025, 9.419 30.969 C 6.662 29.921, 6.616 27.407, 9.358 27.639 C 10.261 27.715, 11 27.378, 11 26.889 C 11 25.585, 7.595 25.805, 6.200 27.200 M 52 31.500 L 52 37 55.750 36.840 C 59.442 36.682, 59.450 36.674, 56.250 36.277 C 53.067 35.882, 51.872 33.815, 54.049 32.470 C 54.762 32.029, 54.711 31.357, 53.891 30.369 C 52.532 28.731, 53.448 27.447, 56.500 26.713 C 57.795 26.402, 57.354 26.191, 55.250 26.116 L 52 26 52 31.500 M 13 31.500 C 13 33.425, 13.176 35, 13.391 35 C 13.605 35, 13.965 33.425, 14.190 31.500 C 14.415 29.575, 14.239 28, 13.799 28 C 13.360 28, 13 29.575, 13 31.500 M 16.429 30 C 16.429 31.295, 16.767 31.633, 17.414 30.986 C 18.062 30.338, 18.062 29.662, 17.414 29.014 C 16.767 28.367, 16.429 28.705, 16.429 30 M 19 31.500 C 19 33.425, 19.391 35, 19.869 35 C 20.347 35, 20.584 33.681, 20.396 32.068 C 20.149 29.948, 20.532 29.011, 21.777 28.684 C 23.040 28.353, 22.900 28.201, 21.250 28.116 C 19.323 28.017, 19 28.503, 19 31.500 M 25 31.500 C 25 33.425, 25.360 35, 25.799 35 C 26.239 35, 26.415 33.425, 26.190 31.500 C 25.965 29.575, 25.605 28, 25.391 28 C 25.176 28, 25 29.575, 25 31.500 M 31.252 31.500 C 31.263 33.700, 31.468 34.482, 31.707 33.238 C 31.946 31.994, 31.937 30.194, 31.687 29.238 C 31.437 28.282, 31.241 29.300, 31.252 31.500 M 37 31.667 C 37 35.994, 37.843 35.686, 38.369 31.167 C 38.572 29.425, 38.347 28, 37.869 28 C 37.391 28, 37 29.650, 37 31.667 M 42 31.500 C 42 33.425, 42.360 35, 42.799 35 C 43.239 35, 43.415 33.425, 43.190 31.500 C 42.965 29.575, 42.605 28, 42.391 28 C 42.176 28, 42 29.575, 42 31.500 M 45.232 31.500 C 45.232 33.700, 45.444 34.679, 45.704 33.675 C 46.161 31.907, 46.244 31.907, 48.321 33.675 C 50.214 35.286, 50.306 35.295, 49.110 33.750 C 48.066 32.402, 48.024 31.676, 48.926 30.589 C 49.727 29.624, 49.765 28.973, 49.049 28.530 C 48.472 28.174, 48 28.584, 48 29.441 C 48 31.564, 46.256 31.420, 45.689 29.250 C 45.438 28.288, 45.232 29.300, 45.232 31.500 M 0.232 32 C 0.232 33.925, 0.438 34.712, 0.689 33.750 C 0.941 32.788, 0.941 31.212, 0.689 30.250 C 0.438 29.288, 0.232 30.075, 0.232 32" stroke="none" fill="#000000" fill-rule="evenodd"/><path fill-opacity=".214" d="M 25.384 1.412 C 8.753 5.448, -2.161 21.567, 1.119 37.250 C 3.981 50.936, 13.003 59.953, 26.750 62.866 C 42.466 66.197, 60.044 54.085, 62.589 38.171 C 62.959 35.853, 63.654 33.714, 64.131 33.419 C 64.609 33.124, 65 31.982, 65 30.882 C 65 29.782, 64.606 29.125, 64.125 29.423 C 63.644 29.720, 62.957 28.131, 62.598 25.890 C 60.693 13.976, 51.175 4.427, 38.147 1.360 C 31.563 -0.189, 31.988 -0.191, 25.384 1.412 M 32.269 6.693 C 33.242 6.947, 34.592 6.930, 35.269 6.656 C 35.946 6.382, 35.150 6.175, 33.500 6.195 C 31.850 6.215, 31.296 6.439, 32.269 6.693 M 19.441 9.555 C 17.611 11.022, 17.643 11.042, 20 9.920 C 23.061 8.462, 23.628 8, 22.358 8 C 21.821 8, 20.509 8.700, 19.441 9.555 M 41.083 8.365 C 41.313 8.565, 42.625 9.265, 44 9.920 C 46.357 11.042, 46.389 11.022, 44.559 9.555 C 42.966 8.279, 39.711 7.164, 41.083 8.365 M 13.924 13.750 L 11.500 16.500 14.250 14.076 C 15.762 12.742, 17 11.505, 17 11.326 C 17 10.541, 16.190 11.180, 13.924 13.750 M 28.153 13.066 C 26.489 14.853, 26.376 15.632, 27.324 18.816 C 28.457 22.626, 29.599 23.958, 31.752 23.985 C 32.621 23.995, 32.401 22.875, 31.030 20.318 C 29.556 17.567, 29.336 16.300, 30.161 15.306 C 30.994 14.302, 31.601 14.254, 32.633 15.110 C 33.694 15.991, 34 15.881, 34 14.622 C 34 13.730, 34.450 13, 35 13 C 35.550 13, 36 13.402, 36 13.893 C 36 14.384, 36.675 15.045, 37.500 15.362 C 40.109 16.363, 39.122 14.503, 36.096 12.716 C 32.297 10.472, 30.496 10.551, 28.153 13.066 M 49 13.500 C 50.292 14.875, 51.574 16, 51.849 16 C 52.124 16, 51.292 14.875, 50 13.500 C 48.708 12.125, 47.426 11, 47.151 11 C 46.876 11, 47.708 12.125, 49 13.500 M 15.437 15.250 L 12.500 18.500 15.750 15.563 C 17.538 13.948, 19 12.485, 19 12.313 C 19 11.540, 18.175 12.221, 15.437 15.250 M 17.453 16.250 C 14.798 18.587, 12.383 20.354, 12.088 20.175 C 11.792 19.996, 11.392 20.446, 11.199 21.175 C 10.911 22.262, 11.016 22.261, 11.785 21.166 C 12.545 20.083, 12.836 20.130, 13.329 21.416 C 13.785 22.604, 15.358 23, 19.624 23 C 25.069 23, 25.240 22.923, 23.655 21.171 C 21.817 19.140, 21.455 15.455, 23 14.500 C 24.224 13.743, 24.322 12, 23.141 12 C 22.668 12, 20.109 13.912, 17.453 16.250 M 40 12.941 C 40 13.459, 40.450 14.160, 41 14.500 C 42.545 15.455, 42.183 19.140, 40.345 21.171 C 38.759 22.924, 38.946 23, 44.845 23 C 50.034 23, 51.002 22.725, 51.015 21.250 C 51.029 19.740, 51.176 19.706, 52.091 21 C 52.794 21.993, 53.034 22.053, 52.801 21.175 C 52.608 20.446, 52.105 19.905, 51.683 19.973 C 51.261 20.040, 48.846 18.274, 46.317 16.048 C 41.730 12.010, 40 11.159, 40 12.941 M 45 12.313 C 45 12.485, 46.462 13.948, 48.250 15.563 L 51.500 18.500 48.563 15.250 C 45.825 12.221, 45 11.540, 45 12.313 M 7.500 23 C 7.160 23.550, 7.610 24, 8.500 24 C 9.390 24, 9.840 23.550, 9.500 23 C 9.160 22.450, 8.710 22, 8.500 22 C 8.290 22, 7.840 22.450, 7.500 23 M 54.473 23.044 C 54.148 23.570, 54.809 24, 55.941 24 C 58.356 24, 58.599 23.444, 56.532 22.651 C 55.725 22.341, 54.798 22.518, 54.473 23.044 M 6.200 27.200 C 4.151 29.249, 4.814 31.915, 7.544 32.600 C 10.564 33.358, 10.224 35.605, 7.140 35.262 C 4.660 34.986, 4.256 36.501, 6.572 37.389 C 9.036 38.335, 12 36.202, 12 33.484 C 12 31.709, 11.314 30.866, 9.500 30.411 C 6.240 29.592, 6.279 28, 9.559 28 C 11.010 28, 11.851 27.567, 11.500 27 C 10.653 25.629, 7.658 25.742, 6.200 27.200 M 51.200 31.750 L 51.500 37.500 54.917 37.500 C 56.796 37.500, 58.501 36.996, 58.706 36.381 C 58.942 35.674, 58.144 35.441, 56.540 35.748 C 54.600 36.118, 54 35.818, 54 34.477 C 54 33.511, 54.788 32.123, 55.750 31.392 C 57.417 30.127, 57.417 30.062, 55.750 30.032 C 53.302 29.987, 53.547 28, 56 28 C 57.100 28, 58 27.550, 58 27 C 58 26.450, 56.403 26, 54.450 26 L 50.900 26 51.200 31.750 M 13 32.146 L 13 36.292 15.500 33.595 C 16.875 32.111, 18 30.245, 18 29.448 C 18 28.570, 17.016 28, 15.500 28 C 13.235 28, 13 28.390, 13 32.146 M 19 32 C 19 35.293, 19.343 36, 20.941 36 C 22.009 36, 23.160 35.550, 23.500 35 C 23.840 34.450, 23.444 34, 22.621 34 C 20.914 34, 20.783 29.935, 22.452 28.765 C 23.032 28.359, 22.496 28.024, 21.250 28.015 C 19.289 28.002, 19 28.514, 19 32 M 25 32 C 25 35.293, 25.343 36, 26.941 36 C 28.009 36, 29.160 35.550, 29.500 35 C 29.840 34.450, 29.416 34, 28.559 34 C 27.493 34, 27 33.050, 27 31 C 27 29.350, 26.550 28, 26 28 C 25.450 28, 25 29.800, 25 32 M 31 32 C 31 35.293, 31.343 36, 32.941 36 C 34.009 36, 35.160 35.550, 35.500 35 C 35.840 34.450, 35.416 34, 34.559 34 C 33.493 34, 33 33.050, 33 31 C 33 29.350, 32.550 28, 32 28 C 31.450 28, 31 29.800, 31 32 M 37 32.059 C 37 34.387, 37.408 35.866, 37.956 35.527 C 38.482 35.202, 38.659 34.275, 38.349 33.468 C 38.040 32.661, 38.339 32, 39.015 32 C 39.963 32, 39.975 31.675, 39.069 30.584 C 38.136 29.459, 38.266 29.071, 39.697 28.700 C 41.119 28.331, 41.024 28.207, 39.250 28.116 C 37.267 28.014, 37 28.482, 37 32.059 M 42 32 C 42 34.200, 42.450 36, 43 36 C 43.550 36, 44 34.200, 44 32 C 44 29.800, 43.550 28, 43 28 C 42.450 28, 42 29.800, 42 32 M 45.015 31.680 C 45.027 34.651, 45.266 35.167, 46.091 34 C 46.890 32.871, 47.278 32.809, 47.659 33.750 C 48.587 36.035, 49.500 35.043, 49.500 31.750 C 49.500 29.141, 49.056 28.437, 47.250 28.180 C 45.252 27.897, 45.002 28.288, 45.015 31.680 M 46 30 C 46 30.550, 46.450 31, 47 31 C 47.550 31, 48 30.550, 48 30 C 48 29.450, 47.550 29, 47 29 C 46.450 29, 46 29.450, 46 30 M 0.158 32 C 0.158 33.375, 0.385 33.938, 0.662 33.250 C 0.940 32.563, 0.940 31.438, 0.662 30.750 C 0.385 30.063, 0.158 30.625, 0.158 32 M 19.762 38.707 C 21.006 38.946, 22.806 38.937, 23.762 38.687 C 24.718 38.437, 23.700 38.241, 21.500 38.252 C 19.300 38.263, 18.518 38.468, 19.762 38.707 M 40.762 38.707 C 42.006 38.946, 43.806 38.937, 44.762 38.687 C 45.718 38.437, 44.700 38.241, 42.500 38.252 C 40.300 38.263, 39.518 38.468, 40.762 38.707 M 8.558 39.907 C 8.249 40.405, 8.898 40.578, 9.999 40.290 C 12.334 39.679, 12.629 39, 10.559 39 C 9.766 39, 8.866 39.408, 8.558 39.907 M 53.250 39.631 C 55.299 40.235, 55.337 40.434, 53.945 43.316 C 52.920 45.437, 52.935 45.443, 54.458 43.540 C 56.370 41.152, 55.979 39.565, 53.417 39.307 C 51.822 39.147, 51.794 39.202, 53.250 39.631 M 14.750 40.728 C 10.615 41.161, 10.299 41.691, 12.468 44.559 C 14.487 47.229, 14.368 48.524, 12.250 46.916 C 11.287 46.185, 12.051 47.255, 13.946 49.294 C 15.842 51.332, 17.599 53, 17.851 53 C 18.104 53, 17.490 52.094, 16.488 50.987 C 14.435 48.718, 13.754 45.016, 15.015 42.976 C 15.678 41.904, 16.386 41.855, 18.344 42.747 C 20.367 43.669, 20.940 43.598, 21.411 42.371 C 21.790 41.384, 22.683 41.082, 23.995 41.498 C 25.147 41.864, 26 41.681, 26 41.067 C 26 40.027, 22.471 39.921, 14.750 40.728 M 31.443 42.223 C 33.928 45.770, 33.374 46.753, 28.954 46.638 C 23.087 46.484, 20.568 51.125, 25.500 53 C 28.316 54.071, 33 52.761, 33 50.902 C 33 50.061, 32.616 50.074, 31.560 50.950 C 29.593 52.582, 24.500 51.897, 24.500 50 C 24.500 47.501, 31.123 47.522, 34.313 50.031 C 35.801 51.202, 36.804 52.508, 36.542 52.933 C 36.279 53.358, 36.710 54.559, 37.500 55.603 C 38.879 57.424, 38.938 57.405, 38.968 55.132 C 38.987 53.711, 37.699 51.568, 35.750 49.776 C 33.962 48.133, 33.243 47.030, 34.151 47.325 C 35.262 47.686, 35.994 47.147, 36.388 45.681 C 37.664 40.923, 37.185 40, 33.443 40 C 29.968 40, 29.922 40.051, 31.443 42.223 M 38.384 40.813 C 38.758 41.418, 39.721 41.661, 40.524 41.353 C 41.327 41.044, 42.249 41.487, 42.576 42.337 C 43.060 43.599, 43.622 43.674, 45.656 42.747 C 47.614 41.855, 48.322 41.904, 48.985 42.976 C 50.252 45.027, 49.565 48.698, 47.438 51.237 C 46.396 52.482, 47.221 51.949, 49.271 50.054 C 52.904 46.696, 54.499 44.511, 51.500 47 C 49.537 48.629, 49.594 47.549, 51.635 44.434 C 52.535 43.061, 53.097 41.765, 52.885 41.553 C 52.673 41.342, 49.171 40.841, 45.102 40.441 C 39.813 39.920, 37.898 40.026, 38.384 40.813 M 9 42.941 C 9 43.459, 9.445 44.157, 9.989 44.493 C 10.555 44.843, 10.723 44.442, 10.382 43.552 C 9.717 41.820, 9 41.503, 9 42.941 M 26.750 56.662 C 27.438 56.940, 28.563 56.940, 29.250 56.662 C 29.938 56.385, 29.375 56.158, 28 56.158 C 26.625 56.158, 26.063 56.385, 26.750 56.662" stroke="none" fill="#000000" fill-rule="evenodd"/><path fill-opacity=".966" d="M 25.500 1.630 C 13.377 4.488, 4.501 13.465, 1.630 25.773 C 0.360 31.218, 0.360 32.782, 1.630 38.227 C 4.532 50.669, 13.381 59.530, 25.750 62.382 C 31.192 63.636, 32.808 63.636, 38.250 62.382 C 50.142 59.640, 59.467 50.655, 61.998 39.500 C 62.622 36.750, 63.553 33.719, 64.066 32.764 C 65.214 30.630, 65.262 29.720, 64.194 30.380 C 63.750 30.654, 62.863 28.377, 62.222 25.320 C 59.979 14.628, 50.560 4.587, 40.500 2.164 C 32.662 0.276, 31.429 0.232, 25.500 1.630 M 23.173 7.269 C 18.937 8.624, 10.638 16.045, 9.039 19.907 C 8.260 21.786, 7.300 22.669, 6.407 22.326 C 5.633 22.029, 5 22.252, 5 22.821 C 5 24.468, 15.253 25.476, 32 25.476 C 48.249 25.476, 59 24.474, 59 22.959 C 59 22.466, 58.389 22.297, 57.643 22.584 C 56.803 22.906, 55.800 21.931, 55.011 20.026 C 52.217 13.282, 41.206 6, 33.801 6 C 30.336 6, 29.712 7.014, 31.748 9.338 C 33.231 11.032, 33.256 11.251, 31.909 10.762 C 30.137 10.119, 27.568 11.367, 27.375 12.964 C 27.306 13.534, 27.156 14.113, 27.042 14.250 C 26.281 15.163, 26.425 19.720, 27.247 20.750 C 27.922 21.595, 27.893 22, 27.158 22 C 25.289 22, 23.759 17.874, 24.327 14.370 L 24.872 11.015 21.936 12.533 C 20.321 13.368, 19 13.793, 19 13.477 C 19 13.161, 20.861 12.069, 23.136 11.051 C 26.348 9.612, 26.850 9.091, 25.386 8.715 C 23.761 8.299, 23.804 8.216, 25.691 8.116 C 26.896 8.052, 28.160 7.550, 28.500 7 C 29.256 5.777, 27.567 5.863, 23.173 7.269 M 34.750 10.927 C 39.416 15.148, 40.056 16.510, 37 15.710 C 35.672 15.363, 35 15.680, 35 16.653 C 35 17.459, 35.445 17.843, 35.989 17.507 C 36.573 17.146, 36.712 17.588, 36.328 18.588 C 35.728 20.150, 35.575 20.139, 34.339 18.449 C 33.603 17.442, 33 16.254, 33 15.809 C 33 14.390, 31.237 14.941, 30.618 16.552 C 29.889 18.452, 32.708 23, 34.615 23 C 35.377 23, 36.952 22.048, 38.116 20.884 C 39.784 19.216, 40.123 17.950, 39.715 14.909 L 39.197 11.051 42.099 12.551 C 43.694 13.376, 45 13.793, 45 13.477 C 45 13.161, 43.087 12.034, 40.750 10.973 C 37.868 9.665, 37.144 9.005, 38.500 8.922 C 40.171 8.821, 40.089 8.669, 38 8 C 36.625 7.560, 34.375 7.173, 33 7.141 C 30.652 7.086, 30.759 7.316, 34.750 10.927 M 17.337 12.250 C 16.159 14.136, 16.046 16.090, 17.154 15.405 C 17.693 15.072, 17.882 14.549, 17.575 14.242 C 17.268 13.935, 17.519 13.080, 18.131 12.342 C 18.744 11.604, 18.991 11, 18.681 11 C 18.372 11, 17.767 11.563, 17.337 12.250 M 45.588 12 C 46.073 12.825, 46.476 13.800, 46.485 14.167 C 46.493 14.533, 46.804 15.137, 47.175 15.508 C 47.546 15.880, 47.744 15.462, 47.615 14.582 C 47.486 13.701, 46.778 12.422, 46.043 11.740 C 44.960 10.735, 44.874 10.784, 45.588 12 M 11.872 17.750 C 10.629 19.336, 10.664 19.371, 12.250 18.128 C 13.916 16.821, 14.445 16, 13.622 16 C 13.415 16, 12.627 16.788, 11.872 17.750 M 50 16.378 C 50 16.585, 50.788 17.373, 51.750 18.128 C 53.336 19.371, 53.371 19.336, 52.128 17.750 C 50.821 16.084, 50 15.555, 50 16.378 M 14.250 23.689 C 15.213 23.941, 16.788 23.941, 17.750 23.689 C 18.712 23.438, 17.925 23.232, 16 23.232 C 14.075 23.232, 13.287 23.438, 14.250 23.689 M 46.250 23.689 C 47.212 23.941, 48.788 23.941, 49.750 23.689 C 50.712 23.438, 49.925 23.232, 48 23.232 C 46.075 23.232, 45.288 23.438, 46.250 23.689 M 29.768 24.725 C 31.565 24.947, 34.265 24.943, 35.768 24.715 C 37.271 24.486, 35.800 24.304, 32.500 24.310 C 29.200 24.315, 27.971 24.502, 29.768 24.725 M 5.384 27.442 C 4.381 30.055, 5.483 32.495, 7.818 32.827 C 10.759 33.246, 10.022 35.585, 7.055 35.247 C 4.236 34.926, 4.822 37.376, 7.666 37.798 C 10.236 38.180, 12.247 35.767, 11.827 32.805 C 11.614 31.304, 10.715 30.388, 9.250 30.180 C 6.189 29.746, 6.389 28, 9.500 28 C 10.875 28, 12 27.550, 12 27 C 12 25.422, 6.005 25.823, 5.384 27.442 M 51.200 31.750 L 51.500 37.500 55.250 37.810 C 58.131 38.049, 59 37.755, 59 36.541 C 59 35.356, 58.376 35.118, 56.500 35.589 C 54.425 36.110, 54 35.858, 54 34.108 C 54 32.901, 54.641 32, 55.500 32 C 56.325 32, 57 31.550, 57 31 C 57 30.450, 56.325 30, 55.500 30 C 54.675 30, 54 29.550, 54 29 C 54 28.450, 54.900 28, 56 28 C 57.100 28, 58 27.550, 58 27 C 58 26.450, 56.403 26, 54.450 26 L 50.900 26 51.200 31.750 M 45.667 27.667 C 44.556 28.777, 44.887 36.188, 46.016 35.490 C 46.575 35.144, 46.723 34.330, 46.344 33.681 C 45.966 33.031, 46.590 33.318, 47.731 34.317 C 49.787 36.118, 49.805 36.099, 49.721 32.317 C 49.626 28.006, 47.624 25.710, 45.667 27.667 M 13 32 C 13 34.200, 13.450 36, 14 36 C 14.550 36, 15 35.433, 15 34.741 C 15 34.048, 15.900 32.919, 17 32.232 C 18.800 31.108, 19 31.233, 19 33.492 C 19 35.501, 19.498 36, 21.500 36 C 22.875 36, 24 35.550, 24 35 C 24 34.450, 23.325 34, 22.500 34 C 20.684 34, 20.509 32.365, 22.250 31.662 C 23.250 31.259, 23.250 31.142, 22.250 31.079 C 20.378 30.961, 20.744 29.214, 22.750 28.689 C 23.861 28.399, 23.527 28.190, 21.833 28.116 C 20.367 28.052, 18.940 28.563, 18.662 29.250 C 18.259 30.250, 18.142 30.250, 18.079 29.250 C 18.036 28.563, 16.875 28, 15.500 28 C 13.250 28, 13 28.400, 13 32 M 25 32 C 25 35.600, 25.250 36, 27.500 36 C 28.875 36, 30 35.550, 30 35 C 30 34.450, 29.325 34, 28.500 34 C 27.500 34, 27 33, 27 31 C 27 29.350, 26.550 28, 26 28 C 25.450 28, 25 29.800, 25 32 M 30.829 32 C 31.157 35.447, 31.541 36, 33.605 36 C 34.922 36, 36 35.550, 36 35 C 36 34.450, 35.325 34, 34.500 34 C 33.500 34, 33 33, 33 31 C 33 29.234, 32.475 28, 31.724 28 C 30.838 28, 30.564 29.223, 30.829 32 M 36.785 29.750 C 36.270 32.238, 37.072 36, 38.117 36 C 38.602 36, 39.068 35.100, 39.150 34 C 39.232 32.900, 39.345 31.438, 39.400 30.750 C 39.455 30.063, 39.950 29.169, 40.500 28.765 C 41.050 28.361, 40.520 28.024, 39.323 28.015 C 38.047 28.006, 36.997 28.724, 36.785 29.750 M 42 32 C 42 34.200, 42.450 36, 43 36 C 43.550 36, 44 34.200, 44 32 C 44 29.800, 43.550 28, 43 28 C 42.450 28, 42 29.800, 42 32 M 10 38.678 C 6.442 39.150, 3.300 40.998, 6.050 41.002 C 6.847 41.003, 8.817 43.088, 10.427 45.636 C 12.036 48.184, 15.355 51.538, 17.801 53.089 C 23.223 56.527, 31.620 58.476, 35.071 57.097 C 37.088 56.291, 36.545 56.116, 31.864 56.063 C 24.109 55.976, 15.836 51.755, 15.280 47.600 C 15.068 46.016, 15.147 44.058, 15.457 43.251 C 15.947 41.975, 16.333 41.988, 18.418 43.354 C 20.562 44.759, 20.877 44.763, 21.403 43.393 C 21.774 42.425, 22.683 42.082, 23.877 42.461 C 25.052 42.834, 25.977 42.502, 26.331 41.580 C 26.777 40.417, 25.790 40.023, 21.699 39.735 C 18.840 39.534, 23.475 39.373, 32 39.376 C 45.557 39.382, 46.309 39.460, 38 40 C 32.775 40.339, 29.018 40.703, 29.652 40.809 C 30.286 40.914, 31.248 42.273, 31.790 43.828 C 32.768 46.632, 32.742 46.655, 28.769 46.578 C 25.987 46.524, 24.419 47.035, 23.636 48.250 C 20.962 52.405, 27.750 55.705, 32.529 52.573 C 35.441 50.665, 36.375 50.580, 35.722 52.283 C 35.199 53.644, 38.593 58.542, 39.167 57.256 C 39.352 56.840, 41.753 55.336, 44.502 53.913 C 47.905 52.151, 50.617 49.689, 53 46.199 C 54.925 43.379, 57.152 41.056, 57.950 41.036 C 59.106 41.007, 59.148 40.748, 58.156 39.756 C 57.250 38.850, 51.014 38.471, 35.206 38.363 C 23.268 38.281, 11.925 38.423, 10 38.678 M 9.750 40.662 C 10.438 40.940, 11.563 40.940, 12.250 40.662 C 12.938 40.385, 12.375 40.158, 11 40.158 C 9.625 40.158, 9.063 40.385, 9.750 40.662 M 51.750 40.662 C 52.438 40.940, 53.563 40.940, 54.250 40.662 C 54.938 40.385, 54.375 40.158, 53 40.158 C 51.625 40.158, 51.063 40.385, 51.750 40.662 M 37.015 43.691 C 37.007 45.446, 36.528 47.174, 35.951 47.530 C 35.234 47.974, 35.269 48.620, 36.065 49.578 C 36.704 50.348, 37.612 50.740, 38.084 50.448 C 38.556 50.157, 39.232 51.076, 39.587 52.492 L 40.233 55.065 44.298 52.665 C 48.360 50.266, 49.913 46.821, 48.543 43.251 C 48.053 41.975, 47.667 41.988, 45.582 43.354 C 43.407 44.779, 43.129 44.780, 42.584 43.359 C 42.211 42.386, 41.353 42.034, 40.322 42.430 C 39.408 42.781, 38.293 42.490, 37.845 41.784 C 37.327 40.966, 37.025 41.659, 37.015 43.691 M 25.500 49 C 24.596 50.462, 25.845 52, 27.937 52 C 29.977 52, 32.338 49.671, 31.325 48.658 C 30.306 47.640, 26.191 47.881, 25.500 49" stroke="none" fill="#000000" fill-rule="evenodd"/></svg>