<svg xmlns="http://www.w3.org/2000/svg" width="64" height="64" version="1.1" fill="#000000"><path fill-opacity=".243" d="M 21.332 1.851 C -1.232 9.649, -7.476 39.593, 10.143 55.510 C 17.331 62.004, 21.411 63.494, 32 63.494 C 39.985 63.494, 42.185 63.129, 45.795 61.204 C 52.440 57.660, 57.502 52.525, 60.545 46.239 C 62.073 43.083, 63.701 39.719, 64.162 38.764 C 65.376 36.249, 65.234 23.738, 64 24.500 C 63.450 24.840, 62.996 24.304, 62.991 23.309 C 62.975 20.215, 57.295 11.409, 52.877 7.627 C 44.429 0.396, 32.084 -1.865, 21.332 1.851 M 25.813 2.683 C 26.534 2.972, 27.397 2.936, 27.729 2.604 C 28.061 2.272, 27.471 2.036, 26.417 2.079 C 25.252 2.127, 25.015 2.364, 25.813 2.683 M 36.813 2.683 C 37.534 2.972, 38.397 2.936, 38.729 2.604 C 39.061 2.272, 38.471 2.036, 37.417 2.079 C 36.252 2.127, 36.015 2.364, 36.813 2.683 M 17.815 5.035 C 15.788 6.105, 13.789 7.548, 13.373 8.241 C 12.774 9.237, 12.929 9.247, 14.116 8.287 C 14.940 7.620, 17.614 6.168, 20.058 5.059 C 22.501 3.951, 23.825 3.054, 23 3.066 C 22.175 3.078, 19.842 3.964, 17.815 5.035 M 6.872 14.750 C 5.629 16.336, 5.664 16.371, 7.250 15.128 C 8.916 13.821, 9.445 13, 8.622 13 C 8.415 13, 7.627 13.787, 6.872 14.750 M 56.511 15.377 C 57.457 16.820, 58.419 18, 58.650 18 C 59.374 18, 57.045 14.146, 55.891 13.433 C 55.287 13.059, 55.566 13.934, 56.511 15.377 M 59.031 19.500 C 59.031 20.050, 59.467 21.175, 60 22 C 60.533 22.825, 60.969 23.050, 60.969 22.500 C 60.969 21.950, 60.533 20.825, 60 20 C 59.467 19.175, 59.031 18.950, 59.031 19.500 M 16 25.768 C 16 31.464, 16.097 31.658, 23.750 41.213 C 28.013 46.535, 31.725 50.890, 32 50.890 C 32.275 50.890, 35.987 46.535, 40.250 41.213 C 47.903 31.658, 48 31.464, 48 25.768 L 48 20 32 20 L 16 20 16 25.768 M 17 25.500 L 17 30 32 30 L 47 30 47 25.500 L 47 21 32 21 L 17 21 17 25.500 M 26.094 25.500 C 26.059 27.150, 26.361 28.017, 26.765 27.427 C 27.169 26.837, 28.288 26.064, 29.250 25.708 C 30.212 25.353, 30.964 24.486, 30.921 23.781 C 30.859 22.778, 30.733 22.771, 30.338 23.750 C 30.060 24.438, 29.233 25, 28.500 25 C 27.767 25, 26.940 24.438, 26.662 23.750 C 26.385 23.063, 26.129 23.850, 26.094 25.500 M 33.094 25.500 C 33.059 27.150, 33.361 28.005, 33.765 27.400 C 34.169 26.795, 35.175 26.043, 36 25.729 C 37.237 25.258, 37.208 25.144, 35.833 25.079 C 34.917 25.036, 33.940 24.438, 33.662 23.750 C 33.385 23.063, 33.129 23.850, 33.094 25.500 M 2.158 26 C 2.158 27.375, 2.385 27.938, 2.662 27.250 C 2.940 26.563, 2.940 25.438, 2.662 24.750 C 2.385 24.063, 2.158 24.625, 2.158 26 M 61.079 25.583 C 61.127 26.748, 61.364 26.985, 61.683 26.188 C 61.972 25.466, 61.936 24.603, 61.604 24.271 C 61.272 23.939, 61.036 24.529, 61.079 25.583 M 0.336 32 C 0.336 36.125, 0.513 37.813, 0.728 35.750 C 0.944 33.688, 0.944 30.313, 0.728 28.250 C 0.513 26.188, 0.336 27.875, 0.336 32 M 23 25.927 C 23 26.436, 22.212 27.059, 21.250 27.311 C 19.933 27.655, 20.057 27.797, 21.750 27.884 C 23.135 27.955, 24 27.423, 24 26.500 C 24 25.675, 23.775 25, 23.500 25 C 23.225 25, 23 25.417, 23 25.927 M 40.750 27.662 C 41.438 27.940, 42.563 27.940, 43.250 27.662 C 43.938 27.385, 43.375 27.158, 42 27.158 C 40.625 27.158, 40.063 27.385, 40.750 27.662 M 21.523 36.926 C 24.083 40.185, 27.038 43.630, 28.089 44.581 C 29.954 46.269, 30 46.128, 30 38.655 L 30 31 23.434 31 L 16.867 31 21.523 36.926 M 34 38.500 C 34 42.625, 34.337 45.981, 34.750 45.957 C 35.404 45.920, 38.971 41.684, 45.333 33.390 L 47.167 31 40.583 31 L 34 31 34 38.500 M 2.079 38.583 C 2.127 39.748, 2.364 39.985, 2.683 39.188 C 2.972 38.466, 2.936 37.603, 2.604 37.271 C 2.272 36.939, 2.036 37.529, 2.079 38.583 M 61.079 38.583 C 61.127 39.748, 61.364 39.985, 61.683 39.188 C 61.972 38.466, 61.936 37.603, 61.604 37.271 C 61.272 36.939, 61.036 37.529, 61.079 38.583 M 10 53.500 C 11.292 54.875, 12.574 56, 12.849 56 C 13.124 56, 12.292 54.875, 11 53.500 C 9.708 52.125, 8.426 51, 8.151 51 C 7.876 51, 8.708 52.125, 10 53.500 M 52.924 53.750 L 50.500 56.500 53.250 54.076 C 55.820 51.810, 56.459 51, 55.674 51 C 55.495 51, 54.258 52.237, 52.924 53.750 M 45 59 C 44.099 59.582, 43.975 59.975, 44.691 59.985 C 45.346 59.993, 46.160 59.550, 46.500 59 C 47.267 57.758, 46.921 57.758, 45 59 M 24.813 61.683 C 25.534 61.972, 26.397 61.936, 26.729 61.604 C 27.061 61.272, 26.471 61.036, 25.417 61.079 C 24.252 61.127, 24.015 61.364, 24.813 61.683 M 37.813 61.683 C 38.534 61.972, 39.397 61.936, 39.729 61.604 C 40.061 61.272, 39.471 61.036, 38.417 61.079 C 37.252 61.127, 37.015 61.364, 37.813 61.683 M 30.250 62.689 C 31.212 62.941, 32.788 62.941, 33.750 62.689 C 34.712 62.438, 33.925 62.232, 32 62.232 C 30.075 62.232, 29.288 62.438, 30.250 62.689" stroke="none" fill="#000000" fill-rule="evenodd"/><path fill-opacity=".363" d="M 23.500 1.338 C 14.213 4.416, 7.635 9.977, 3.198 18.500 C 1.009 22.706, 0.588 24.849, 0.548 32 C 0.504 39.842, 0.767 40.993, 3.954 46.872 C 6.342 51.276, 8.967 54.393, 12.454 56.964 C 18.142 61.157, 23.265 63.454, 25.199 62.679 C 26.024 62.349, 25.848 62.129, 24.717 62.079 C 21.553 61.939, 13.603 57.279, 9.799 53.336 C 4.055 47.382, 1.541 40.886, 1.541 32 C 1.541 23.232, 3.707 17.544, 9.477 11.157 C 21.199 -1.818, 42.801 -1.818, 54.523 11.157 C 60.293 17.544, 62.459 23.232, 62.459 32 C 62.459 48.796, 51.080 61.019, 33.546 63.060 L 26.500 63.880 33.588 63.585 C 45.654 63.083, 55.042 56.787, 60.867 45.290 C 62.040 42.974, 63 40.162, 63 39.040 C 63 37.918, 63.450 37, 64 37 C 64.550 37, 65 34.498, 65 31.441 C 65 27.990, 64.621 26.116, 64 26.500 C 63.450 26.840, 62.996 26.304, 62.990 25.309 C 62.973 22.029, 58.332 13.568, 54.382 9.613 C 46.667 1.888, 32.941 -1.790, 23.500 1.338 M 21.591 4.573 C 1.898 11.789, -3.712 38.099, 11.308 52.801 C 28.465 69.595, 57.219 60.352, 60.935 36.849 C 63.113 23.071, 54.878 8.872, 42.205 4.554 C 36.601 2.645, 26.830 2.654, 21.591 4.573 M 16 25.619 L 16 32.238 23.623 41.619 C 27.815 46.779, 31.558 51, 31.939 51 C 32.321 51, 36.091 46.755, 40.317 41.566 L 48 32.132 48 25.566 L 48 19 32 19 L 16 19 16 25.619 M 17.193 25.250 L 17.500 29.500 32 29.500 L 46.500 29.500 46.807 25.250 L 47.115 21 32 21 L 16.885 21 17.193 25.250 M 19 24.094 C 19 24.695, 20.012 25.457, 21.250 25.787 C 23.494 26.386, 23.494 26.389, 21 27.094 L 18.500 27.801 21.250 27.900 C 23.072 27.966, 24 27.494, 24 26.500 C 24 25.652, 23.105 25, 21.941 25 C 20.809 25, 20.160 24.550, 20.500 24 C 20.840 23.450, 20.641 23, 20.059 23 C 19.477 23, 19 23.492, 19 24.094 M 26.158 25.500 C 26.158 27.150, 26.385 27.938, 26.662 27.250 C 26.940 26.563, 28.029 26, 29.083 26 C 30.272 26, 30.970 25.335, 30.921 24.250 C 30.874 23.205, 30.639 23.003, 30.338 23.750 C 30.060 24.438, 29.233 25, 28.500 25 C 27.767 25, 26.940 24.438, 26.662 23.750 C 26.385 23.063, 26.158 23.850, 26.158 25.500 M 33.094 25.500 C 33.059 27.150, 33.361 28.005, 33.765 27.400 C 34.169 26.795, 35.175 26.043, 36 25.729 C 37.237 25.258, 37.208 25.144, 35.833 25.079 C 34.917 25.036, 33.940 24.438, 33.662 23.750 C 33.385 23.063, 33.129 23.850, 33.094 25.500 M 40.136 25.250 C 40.024 27.506, 40.404 27.979, 42.250 27.884 C 43.844 27.802, 44.008 27.638, 42.811 27.323 C 41.883 27.078, 40.932 25.892, 40.698 24.689 C 40.348 22.887, 40.248 22.986, 40.136 25.250 M 0.310 32.500 C 0.315 35.800, 0.502 37.029, 0.725 35.232 C 0.947 33.435, 0.943 30.735, 0.715 29.232 C 0.486 27.729, 0.304 29.200, 0.310 32.500 M 18 31.494 C 18 32.359, 28.118 44.437, 29.189 44.849 C 29.694 45.044, 29.964 42.167, 29.798 38.349 L 29.500 31.500 23.750 31.200 C 20.587 31.035, 18 31.167, 18 31.494 M 34 38.500 C 34 42.625, 34.174 46, 34.387 46 C 34.931 46, 46 32.229, 46 31.553 C 46 31.249, 43.300 31, 40 31 L 34 31 34 38.500" stroke="none" fill="#000000" fill-rule="evenodd"/><path fill-opacity=".317" d="M 30.750 0.662 C 31.438 0.940, 32.563 0.940, 33.250 0.662 C 33.938 0.385, 33.375 0.158, 32 0.158 C 30.625 0.158, 30.063 0.385, 30.750 0.662 M 21.781 4.877 C 14.962 7.631, 9.818 12.094, 6.449 18.176 C 3.833 22.900, 3.500 24.458, 3.500 32 C 3.500 39.554, 3.830 41.096, 6.468 45.859 C 12.066 55.965, 20.720 61.009, 32.428 60.990 C 42.968 60.973, 52.881 54.965, 57.785 45.620 C 60.088 41.232, 60.472 39.285, 60.474 32 C 60.476 22.310, 58.669 17.735, 52.333 11.399 C 44.850 3.916, 31.311 1.026, 21.781 4.877 M 44.083 3.365 C 44.313 3.565, 45.625 4.265, 47 4.920 C 49.357 6.042, 49.389 6.022, 47.559 4.555 C 45.966 3.279, 42.711 2.164, 44.083 3.365 M 9.453 10.250 L 5.500 14.500 9.750 10.547 C 13.702 6.871, 14.460 6, 13.703 6 C 13.540 6, 11.627 7.912, 9.453 10.250 M 53.500 10 C 55.648 12.200, 57.631 14, 57.906 14 C 58.181 14, 56.648 12.200, 54.500 10 C 52.352 7.800, 50.369 6, 50.094 6 C 49.819 6, 51.352 7.800, 53.500 10 M 15 25.252 L 15 31.504 23.250 41.704 C 27.788 47.314, 31.725 51.904, 32 51.904 C 32.275 51.904, 36.212 47.314, 40.750 41.704 L 49 31.504 49 25.252 L 49 19 32 19 L 15 19 15 25.252 M 18 25 L 18 29 32 29 L 46 29 46 25 L 46 21 32 21 L 18 21 18 25 M 19.667 22.667 C 18.233 24.100, 19.112 26.005, 21.250 26.100 C 23.409 26.195, 23.398 26.232, 21 27 L 18.500 27.801 21.250 27.900 C 24.346 28.013, 25.145 25.446, 22.250 24.689 C 20.583 24.254, 20.583 24.226, 22.250 24.116 C 23.212 24.052, 24 23.550, 24 23 C 24 21.883, 20.704 21.629, 19.667 22.667 M 26.079 25.250 C 26.122 27.038, 26.385 27.938, 26.662 27.250 C 26.940 26.563, 28.029 26, 29.083 26 C 30.333 26, 31 25.304, 31 24 C 31 22.533, 30.333 22, 28.500 22 C 26.330 22, 26.010 22.429, 26.079 25.250 M 33.079 25.250 C 33.122 27.038, 33.385 27.938, 33.662 27.250 C 33.940 26.563, 34.917 25.968, 35.833 25.930 C 37.163 25.874, 37.096 25.686, 35.500 25 C 33.592 24.180, 33.603 24.137, 35.750 24.070 C 38.846 23.974, 38.607 22, 35.500 22 C 33.330 22, 33.010 22.429, 33.079 25.250 M 40 25 C 40 27.533, 40.389 28, 42.500 28 C 43.875 28, 45 27.520, 45 26.933 C 45 26.320, 44.147 26.136, 43 26.500 C 41.581 26.950, 41 26.680, 41 25.567 C 41 24.652, 41.856 24, 43.059 24 C 44.191 24, 44.840 23.550, 44.500 23 C 44.160 22.450, 43.009 22, 41.941 22 C 40.451 22, 40 22.697, 40 25 M 27.813 24.683 C 28.534 24.972, 29.397 24.936, 29.729 24.604 C 30.061 24.272, 29.471 24.036, 28.417 24.079 C 27.252 24.127, 27.015 24.364, 27.813 24.683 M 0.232 32 C 0.232 33.925, 0.438 34.712, 0.689 33.750 C 0.941 32.788, 0.941 31.212, 0.689 30.250 C 0.438 29.288, 0.232 30.075, 0.232 32 M 63.232 32 C 63.232 33.925, 63.438 34.712, 63.689 33.750 C 63.941 32.788, 63.941 31.212, 63.689 30.250 C 63.438 29.288, 63.232 30.075, 63.232 32 M 35 38.052 L 35 45.104 39.805 39.302 C 46.938 30.690, 46.909 31, 40.559 31 L 35 31 35 38.052 M 19.943 33.750 C 20.500 34.712, 22.753 37.525, 24.948 40 L 28.940 44.500 28.970 38.250 L 29 32 23.965 32 C 19.450 32, 19.034 32.181, 19.943 33.750 M 57.511 49.623 C 56.566 51.066, 56.287 51.941, 56.891 51.567 C 58.045 50.854, 60.374 47, 59.650 47 C 59.419 47, 58.457 48.180, 57.511 49.623 M 12 56.378 C 12 56.585, 12.787 57.373, 13.750 58.128 C 15.336 59.371, 15.371 59.336, 14.128 57.750 C 12.821 56.084, 12 55.555, 12 56.378 M 30.250 63.689 C 31.212 63.941, 32.788 63.941, 33.750 63.689 C 34.712 63.438, 33.925 63.232, 32 63.232 C 30.075 63.232, 29.288 63.438, 30.250 63.689" stroke="none" fill="#000000" fill-rule="evenodd"/><path fill-opacity=".798" d="M 18 25 L 18 29 28.760 29 L 39.519 29 39.510 25.750 C 39.501 22.945, 39.877 22.457, 42.250 22.184 C 44.257 21.953, 45 22.309, 45 23.501 C 45 24.710, 44.449 24.960, 42.882 24.462 C 41.346 23.975, 40.893 24.163, 41.235 25.145 C 41.495 25.890, 42.509 26.354, 43.490 26.175 C 44.761 25.943, 45.098 26.302, 44.667 27.425 C 44.335 28.291, 44.499 29, 45.031 29 C 45.564 29, 46 27.200, 46 25 L 46 21 32 21 L 18 21 18 25 M 19 24 C 19 25.211, 19.690 26.028, 20.750 26.070 C 22.246 26.130, 22.210 26.265, 20.500 27 C 18.843 27.712, 19.077 27.871, 21.867 27.930 C 24.883 27.993, 25.170 27.766, 24.630 25.750 C 24.299 24.512, 24.021 23.163, 24.014 22.750 C 24.006 22.337, 22.875 22, 21.500 22 C 19.667 22, 19 22.533, 19 24 M 26 25 C 26 26.650, 26.450 28, 27 28 C 27.550 28, 28 27.550, 28 27 C 28 26.450, 28.675 26, 29.500 26 C 30.333 26, 31 25.111, 31 24 C 31 22.533, 30.333 22, 28.500 22 C 26.389 22, 26 22.467, 26 25 M 33.079 25.250 C 33.122 27.038, 33.385 27.938, 33.662 27.250 C 33.940 26.563, 34.917 25.968, 35.833 25.930 C 37.163 25.874, 37.096 25.686, 35.500 25 C 33.592 24.180, 33.603 24.137, 35.750 24.070 C 38.846 23.974, 38.607 22, 35.500 22 C 33.330 22, 33.010 22.429, 33.079 25.250 M 35.030 38.250 L 35.060 44.500 39.052 40 C 45.821 32.369, 45.867 32, 40.035 32 L 35 32 35.030 38.250" stroke="none" fill="#000000" fill-rule="evenodd"/></svg>