<svg xmlns="http://www.w3.org/2000/svg" width="200" height="200" fill="#000000"><path fill-opacity=".071" fill-rule="evenodd" d="M112.695 36.912c-1.747 2.524-4.081 6.242-5.186 8.264s-3.696 5.489-5.759 7.706C99.688 55.099 98 57.465 98 58.141c0 .675-.732 3.835-1.626 7.022-1.509 5.378-1.873 5.84-5.081 6.442-4.453.835-10.18 3.621-9.962 4.846.093.523-1.578 1.871-3.712 2.995l-3.882 2.044-1.618-2.495c-7.095-10.935-19.601-14.371-26.651-7.32-1.15 1.15-3.053 1.617-5.975 1.465-5.838-.302-9.4 2.747-10.203 8.733-.525 3.916-1.012 4.573-4.688 6.319C13.397 93.515 10 96.54 10 101.191c0 2.172-.468 2.809-2.066 2.809-1.665 0-2.005.535-1.75 2.75.274 2.388.81 2.791 4.066 3.06 2.264.188 3.75.829 3.75 1.619 0 .777 1.681 1.533 4.144 1.864 2.279.305 4.491 1.116 4.914 1.801.528.854 4.977 1.388 14.161 1.7 11.428.387 13.629.216 15.014-1.17.893-.893 2.53-1.624 3.637-1.624 1.106 0 2.29-.45 2.63-1 1.531-2.476 2.091-.418 1.893 6.95-.117 4.373-.494 8.404-.837 8.959-1.059 1.713 1.759 5.04 5.242 6.189 2.934.969 3.779.786 7.381-1.598 2.237-1.48 4.56-3.998 5.163-5.596S78.79 125 79.219 125s.781-.691.781-1.535c0-1.225.404-1.319 2-.465 1.357.727 2.004 2.103 2.014 4.285.03 7.156.58 7.715 7.589 7.715h6.37l1.514-3.622c.832-1.992 1.513-5.044 1.513-6.782 0-6.752 7.855-3.084 9.508 4.439.355 1.618 1.1 3.223 1.656 3.566 1.188.734 8.836-2.514 8.836-3.753 0-.466.375-.848.832-.848.458 0 1.246 2.137 1.75 4.75.858 4.438 1.138 4.771 4.262 5.07 5.188.497 14.781-6.735 12.371-9.325-.393-.423-.04-.558.785-.299.978.306 1.779 2.529 2.301 6.387 1.009 7.45.458 32.429-.758 34.369-1.142 1.822-1.589 9.902-.582 10.524.412.254 1.792-.649 3.068-2.007s2.979-2.469 3.785-2.469c1.703 0 3.442-2.02 6.212-7.217 2.333-4.378 5.471-6.445 7.38-4.861 1.485 1.232 2.594.435 2.594-1.865 0-1.285.838-1.53 4.149-1.214l4.149.395-.656-3.28c-.361-1.805-1.292-4.554-2.068-6.111-.806-1.615-1.018-3.073-.493-3.397 1.717-1.061.928-6.148-1.331-8.586-2.068-2.231-2.241-3.321-2.134-13.396.135-12.584 1.226-23.468 2.352-23.468.425 0 1.357-2.138 2.072-4.75.714-2.612 2.161-5.872 3.215-7.243 1.576-2.051 1.797-3.433 1.251-7.805-.512-4.096-.285-5.891.991-7.838.91-1.389 1.415-3.15 1.123-3.913s-.102-1.653.424-1.978c1.767-1.092.985-4.329-1.216-5.027-1.194-.38-5.807-.606-10.25-.504-4.443.103-10.328.241-13.078.308l-5 .121v-8.099c0-4.454-.338-8.438-.75-8.852s-.75-2.028-.75-3.587c0-3.198.047-3.18-4.884-1.878-1.989.525-4.854 1.208-6.366 1.519S133 43.705 133 44.519c0 .815-.434 1.481-.965 1.481s-2.539 1.382-4.463 3.071l-3.498 3.071-.664-2.645c-.365-1.454-.173-3.723.428-5.041.881-1.933.783-2.569-.509-3.292-.88-.492-1.878-2.606-2.218-4.697-.496-3.054-1.073-3.835-2.928-3.972-1.711-.126-3.135 1.02-5.488 4.417M115 37.5c-.685.825-.933 1.5-.551 1.5s1.369-.675 2.194-1.5 1.073-1.5.551-1.5-1.509.675-2.194 1.5m-3.292 7.301c-.922 2.09-3.259 5.578-5.192 7.75-4.291 4.822-4.658 6.917-.516 2.949 1.65-1.581 3-2.549 3-2.152 0 1.226-3.238 6.032-5.701 8.463-3.021 2.979-2.194 4.161 3.01 4.305 2.305.064 3.359.33 2.342.592-1.627.419-1.545.635.683 1.79 1.392.722 4.024 1.603 5.849 1.957l3.317.644-3.25-1.675c-1.787-.92-3.25-2.041-3.25-2.49 0-1.49 2.157-2.177 3.287-1.047.612.612 1.89 1.113 2.84 1.113.949 0 1.932.787 2.184 1.75.274 1.05.503.623.573-1.067.102-2.475-.158-2.735-2.134-2.138-1.836.555-2.02.438-1-.633 1.687-1.771 1.588-3.979-.149-3.312-.769.295-1.667.103-1.994-.427-.328-.53.077-1.221.899-1.537 2.304-.884 1.958-6.702-.437-7.328-1.156-.303-1.713-1.072-1.388-1.918.375-.979.048-1.223-1.07-.794-1.077.413-1.611.075-1.611-1.02 0-.902.675-1.898 1.5-2.214 1.535-.589 2.152-5.362.692-5.362-.444 0-1.562 1.71-2.484 3.801m27.672 3.651c-.306.799-.219 2 .195 2.67.517.836.242 1.022-.879.592-.898-.345-1.898-.196-2.223.33s-1.495.956-2.599.956c-1.554 0-1.865-.453-1.374-2 .944-2.975-.95-2.419-2.555.75-.766 1.513-2.192 3.823-3.169 5.135-2.334 3.134-2.243 5.382.31 7.693 2.836 2.566 11.334 6.407 11.747 5.308.184-.487.773-.886 1.309-.886.537 0 .662.508.278 1.13-.424.685-.152.948.691.667 1.691-.563 2.329-8.625 1.389-17.547-.628-5.958-1.915-7.937-3.12-4.798m-9.713 6.215c-.97.97-.817 3.333.216 3.333.486 0 1.119-.9 1.407-2 .514-1.966-.312-2.644-1.623-1.333M141.158 56c0 1.375.227 1.938.504 1.25.278-.687.278-1.812 0-2.5-.277-.687-.504-.125-.504 1.25m-8.561.844c-.346.56-.142 1.319.453 1.687 1.538.95 2.53-.351 1.246-1.635-.718-.718-1.277-.735-1.699-.052M127 59c0 .55.45 1 1 1s1-.45 1-1-.45-1-1-1-1 .45-1 1m9 1c0 1.867.267 2.133 1.2 1.2s.933-1.467 0-2.4-1.2-.667-1.2 1.2m-6.541.067c-.363.586-.454 1.272-.202 1.523.697.698 3.743-.683 3.743-1.697 0-1.252-2.743-1.117-3.541.174M107.5 63c.34.55.816 1 1.059 1s.441-.45.441-1-.477-1-1.059-1-.781.45-.441 1m3 0c-.34.55.309 1 1.441 1S114 63.55 114 63s-.648-1-1.441-1-1.719.45-2.059 1m59.75 2.992c.963.609 1.749 1.648 1.749 2.308-.002 1.101-8.939 5.7-11.077 5.7-2.753 0 1.467-3.917 5.387-5 2.065-.571 2.434-2.252.627-2.855-.749-.249-.921.07-.45.832.567.918.023 1.081-2.111.632-1.581-.333-3.55-.163-4.375.377-1.284.842-1.248.986.25.999 2.773.024 2.032 1.917-1 2.556-1.512.319-3.531 1.003-4.486 1.519-2.649 1.434-3.507 1.06-1.337-.581 2.427-1.836 1.588-2.772-1.737-1.937-4.37 1.096-3.837 3.066 2.405 8.886 3.287 3.064 5.759 5.572 5.492 5.572-.997 0 2.702 7.519 4.742 9.638 2.586 2.686 3.671 2.185 3.671-1.697 0-1.618.407-2.941.903-2.941s1.109-2.138 1.36-4.75 1.066-7.358 1.812-10.546c1.411-6.024.804-8.693-2.146-9.453-.829-.213-.694.098.321.741M122 71.059c0 .582.45.781 1 .441s1-.816 1-1.059-.45-.441-1-.441-1 .477-1 1.059m3-.059c0 .55.423 1 .941 1s1.219-.45 1.559-1-.084-1-.941-1-1.559.45-1.559 1m41.612 5.469c-1.391 2.123-1.423 2.531-.202 2.531.8 0 1.752-.934 2.114-2.075.981-3.092-.027-3.333-1.912-.456m-35.362 2.758c-2.78 2.967-2.826 3.773-.219 3.773 2.183 0 3.343-1.874 2.804-4.529-.281-1.381-.697-1.26-2.585.756m8.364-.79c.303.79 1.227 1.178 2.053.861 1.221-.469 1.252-.734.167-1.422-1.994-1.264-2.838-1.051-2.22.561m19.142-.773c.691.279 1.002.918.691 1.421s-.088.915.494.915S161 79.325 161 78.5s-.787-1.464-1.75-1.421c-1.056.048-1.252.28-.494.585M94.5 79c-.34.55-.168 1 .382 1s1.278-.45 1.618-1 .168-1-.382-1-1.278.45-1.618 1m-4.767 1.124c.679.684 1.486.991 1.793.683.308-.308-.247-.867-1.233-1.243-1.425-.542-1.54-.428-.56.56M85 81.941c0 .518.45 1.219 1 1.559s1-.084 1-.941S86.55 81 86 81s-1 .423-1 .941m77.75.748c-1.917.501-2.42 2.311-.643 2.311.638 0 .826.732.444 1.726-.481 1.255.036 1.071 1.893-.674 2.101-1.973 2.556-2.103 2.556-.726 0 .921.45 1.674 1 1.674 1.603 0 1.154-2.163-.75-3.608-.963-.731-1.975-1.291-2.25-1.244s-1.287.29-2.25.541m-16.316 2.061c-1.206 2.708-1.418 6.25-.374 6.25.517 0 .94-.653.94-1.45 0-.798.745-1.867 1.654-2.377.996-.557 1.407-1.572 1.032-2.549-.815-2.124-2.275-2.067-3.252.126M86 88c0 1.253 1.061 1.253 3 0 1.213-.784 1.069-.972-.75-.985-1.237-.008-2.25.435-2.25.985m48 1.5c-1.02 1.229-.951 1.5.378 1.5.892 0 1.622-.675 1.622-1.5s-.17-1.5-.378-1.5c-.207 0-.937.675-1.622 1.5M27.352 92.993c-2.408.972-4.04 3.007-2.411 3.007.582 0 1.059-.45 1.059-1s.648-1 1.441-1 1.719-.45 2.059-1c.714-1.155.699-1.155-2.148-.007m121.255 1.589c-.876 2.283-.805 2.418 1.276 2.418 1.043 0 2.117-.893 2.407-2 .646-2.47-2.748-2.855-3.683-.418M18.5 96c-.34.55.084 1 .941 1S21 97.675 21 98.5s.402 1.5.893 1.5 1.152-.675 1.469-1.5c.35-.914.001-1.5-.893-1.5-.808 0-1.469-.45-1.469-1s-.423-1-.941-1-1.219.45-1.559 1m120.053-.085a1.116 1.116 0 0 0 .362 1.532c.521.322 1.21.159 1.532-.362a1.116 1.116 0 0 0-.362-1.532 1.116 1.116 0 0 0-1.532.362m-45.443 7.452c-.863 1.04-.773 1.668.378 2.623 1.284 1.066 1.512.86 1.512-1.368 0-2.985-.293-3.179-1.89-1.255m-44.11.362c-1.695.645-2.977 2.283-2.953 3.771.009.55.636.183 1.394-.817.757-.999 1.744-1.752 2.193-1.675.449.078.977-.342 1.174-.933.392-1.174.375-1.177-1.808-.346m19.853.941c-.906.24-1.875 1.305-2.152 2.366-.443 1.694-.245 1.79 1.627.789 1.172-.628 2.735-1.745 3.473-2.483 1.438-1.438.628-1.622-2.948-.672m79.147.83c0 .825.177 1.5.393 1.5s.652-.675.969-1.5.139-1.5-.393-1.5c-.533 0-.969.675-.969 1.5m-115.416 4.141c-.527 1.373-.38 1.435.893.378 1.735-1.44 1.916-2.019.63-2.019-.491 0-1.176.739-1.523 1.641m112.123 3.37c-.286 1.094-.16 1.989.28 1.989 1.175 0 2.067-2.848 1.083-3.457-.463-.286-1.077.374-1.363 1.468m-109.2-.022c-.35.566.051.734.941.393 1.732-.665 2.049-1.382.611-1.382-.518 0-1.216.445-1.552.989m123.16 1.678c-1.038 1.037-.784 4.333.333 4.333.55 0 1-1.125 1-2.5 0-2.618-.231-2.936-1.333-1.833M71 117c0 .55.675 1 1.5 1s1.5-.45 1.5-1-.675-1-1.5-1-1.5.45-1.5 1m59 15.962c-2.248.686-2.313.842-.649 1.546 1.045.442 2.134.35 2.5-.212.357-.548 1.324-1.253 2.149-1.567 2.375-.904-.898-.713-4 .233m25.183 4.255c-1.4 1.4-1.545 2.783-.29 2.783.916 0 2.425-3.016 1.814-3.626-.187-.188-.873.192-1.524.843m11.005 4.673c.15 1.966.654 2.724 1.574 2.371.744-.285 1.102-1.173.795-1.972-.306-.799-.557-1.866-.557-2.371s-.457-.918-1.016-.918-.917 1.301-.796 2.89m-11.681.099c-.35.566.051.734.941.393 1.732-.665 2.049-1.382.611-1.382-.518 0-1.216.445-1.552.989m4.306.694c.721.289 1.584.253 1.916-.079s-.258-.568-1.312-.525c-1.165.048-1.402.285-.604.604m6.614 5.686c-2.086 2.27-2.228 5.274-.306 6.474 3.176 1.984 3.716 1.376 2.718-3.064-1.122-4.993-1.05-4.892-2.412-3.41m-9.76 1.298c-.367.366-.667 1.131-.667 1.7 0 .626.466.567 1.183-.15.651-.651.951-1.416.667-1.7s-.817-.217-1.183.15"/><path fill-opacity=".299" fill-rule="evenodd" d="M113.176 36.815c-1.589 2.027-3.71 5.436-4.713 7.576s-3.717 5.894-6.031 8.343c-2.827 2.993-4.403 5.685-4.807 8.208C96.685 66.822 94.178 72 92.27 72c-2.979 0-10.352 3.254-9.966 4.399.462 1.37-2.239 3.527-4.471 3.569-.916.018-1.888.595-2.159 1.282-.304.771-2.346-.715-5.333-3.883-9.765-10.355-17.289-11.872-25.04-5.05-1.292 1.137-2.883 1.674-3.857 1.3-.912-.35-3.43-.159-5.595.424-4.156 1.119-5.523 3.122-6.74 9.877-.53 2.938-1.213 3.617-4.863 4.833C21.911 89.53 20 90.579 20 91.083c0 .505-.52.917-1.156.917-2.667 0-7.778 5.129-8.396 8.427-.404 2.154-1.331 3.571-2.542 3.887-1.075.282-1.906 1.373-1.906 2.504 0 1.567.891 2.157 4.07 2.694 2.238.378 4.291 1.264 4.561 1.97.271.705 2.265 1.566 4.431 1.912S23 114.438 23 114.945c0 1.137 2.46 1.351 16.832 1.465 9.265.074 11.544-.199 12.5-1.498.642-.873 1.745-1.393 2.45-1.156s2.393-.296 3.75-1.185c2.289-1.5 2.92-1.315 2.563.75-.792 4.57-.841 17.679-.068 17.679.535 0 .973.666.973 1.481 0 1.802 4.096 2.963 7.47 2.116 2.65-.665 7.53-5.34 7.53-7.214 0-.626.695-1.715 1.546-2.421.85-.705 1.29-1.946.979-2.758-.493-1.284-.271-1.28 1.704.031 1.576 1.046 2.473 2.908 2.931 6.086.363 2.518.932 5.019 1.265 5.557.921 1.492 11.261 1.205 12.55-.347 1.462-1.763 2.334-5.317 2.25-9.179-.057-2.631.371-3.241 2.603-3.708 2.095-.438 3.272.091 5.451 2.447 1.529 1.653 2.52 3.425 2.204 3.937-.923 1.492 1.424 4.972 3.353 4.972 2.682 0 7.147-2.34 7.156-3.75.004-.687.406-1.25.891-1.25 1.058 0 2.084 3.486 2.103 7.143.008 1.454.592 2.865 1.299 3.136 4.17 1.6 13.268-2.856 14.349-7.029.595-2.297 2.77-3.024 3.845-1.284 1.114 1.802.949 37.812-.18 39.209-1.322 1.637-1.575 10.825-.298 10.825.511 0 1.383-.848 1.937-1.885.555-1.037 2.046-2.145 3.313-2.463 1.298-.326 3.602-2.64 5.276-5.299 3.88-6.161 6.559-8.667 7.867-7.359 1.574 1.574 2.606 1.188 2.606-.975 0-1.779.469-1.916 4.613-1.348l4.612.632-.694-3.162c-.382-1.738-1.391-4.557-2.241-6.262-1.204-2.413-1.273-3.271-.312-3.865 1.866-1.154.343-6.375-2.609-8.941-1.816-1.579-2.303-2.68-1.719-3.888.447-.927.853-5.96.902-11.185.175-18.885.407-22.009 1.619-21.75.644.138 1.817-2 2.607-4.75s2.176-5.835 3.079-6.855c1.204-1.36 1.58-3.453 1.408-7.828-.146-3.688.317-7.042 1.21-8.768.795-1.538 1.174-3.067.843-3.398-.332-.331-.025-1.299.682-2.151s.996-1.837.643-2.191c-.354-.353-.643-.065-.643.641 0 .791-.767 1.083-2 .76-2.054-.537-2.569 1.088-2.242 7.063.069 1.25-.242 2.046-.69 1.769s-1.28 3.149-1.85 7.612c-.57 4.464-1.585 8.455-2.255 8.869-.671.414-.898 1.273-.505 1.909s.168 1.814-.5 2.619c-1.044 1.257-1.55 1.103-3.587-1.095-1.304-1.408-2.371-2.786-2.371-3.062 0-2.553-4.923-10.038-9.03-13.731-4.447-3.998-4.95-4.832-3.994-6.619.602-1.124 1.754-2.1 2.559-2.169 2.347-.2 2.889-.357 4.282-1.24 2.654-1.683 2.33.337-.452 2.818l-2.865 2.555 3-1.498c1.65-.824 3.563-1.5 4.25-1.504.688-.003 1.25-.456 1.25-1.006s-.562-1.007-1.25-1.015c-.836-.011-.753-.341.25-.999.825-.54 2.85-.759 4.5-.487 2.317.383 2.545.296 1-.382-1.744-.765-1.547-.966 1.536-1.569 1.945-.38 3.97-.605 4.5-.501 2.419.476 5.526-.138 5-.989-.335-.542-6.511-.803-14.559-.615-9.95.233-13.977 0-13.978-.808-.01-7.108-.906-21.875-1.355-22.324-.319-.319-2.057.037-3.862.792s-3.666 1.25-4.136 1.1c-1.797-.573-4.452.946-4.944 2.83-.298 1.139-1.367 1.967-2.54 1.967-1.114 0-2.991 1.355-4.17 3.012-2.918 4.097-4.372 2.847-3.662-3.147.316-2.676.197-4.865-.267-4.865-.463 0-1.413-1.935-2.112-4.299-1.624-5.503-3.948-5.768-7.775-.886m1.896-.401c-.685.824-.973 1.937-.642 2.473.332.536.137 1.263-.433 1.615-.569.352-2.116 2.773-3.438 5.382s-3.143 5.356-4.047 6.106c-1.788 1.484-4.926 7.01-3.981 7.01.32 0 1.972-1.462 3.672-3.25l3.09-3.25-2.361 3.5c-1.298 1.925-2.716 3.651-3.152 3.835s-.531.759-.212 1.275c.319.517-.005.816-.72.665s-1.455.738-1.644 1.975c-.219 1.436.169 2.25 1.073 2.25.779 0 2.947.774 4.819 1.721l3.404 1.721-2.918.529c-1.604.291-3.14 1.204-3.412 2.029-.438 1.327-.288 1.329 1.298.019 1.203-.993 3.805-1.435 7.9-1.341 6.022.139 6.061.122 2.869-1.22-1.896-.798-3.237-2.086-3.237-3.11 0-1.359.267-1.481 1.2-.548.66.66 2.235 1.2 3.5 1.2 1.424 0 2.3.598 2.3 1.571 0 2.486 2.498 4.531 3.864 3.165.848-.848 1.136-.823 1.136.099 0 .97.483.963 2.25-.034 2.15-1.213 2.072-1.292-1.75-1.785-2.568-.331-4.048-1.053-4.135-2.016l-.25-2.809c-.063-.72-.565-1.031-1.115-.691s-1-.357-1-1.548c0-1.514-.451-1.993-1.5-1.59-.825.316-1.5.139-1.5-.393 0-.533.45-.969 1-.969s1-2.305 1-5.122c0-4.156-.252-4.914-1.333-4.016-1.06.879-1.334.503-1.334-1.834 0-1.617.375-2.708.834-2.425s.833.065.833-.485-.477-1.295-1.06-1.655c-.669-.413-.396-1.14.739-1.97.989-.724 2.141-1.104 2.56-.845.419.258.761-.301.761-1.244 0-1.597-.125-1.601-1.829-.059-3.23 2.924-4.626 1.253-1.535-1.838 1.066-1.066 1.295-1.976.657-2.614s-1.411-.456-2.221.521M143 42.941c0 .518.45 1.219 1 1.559s1-.084 1-.941S144.55 42 144 42s-1 .423-1 .941m-6.333 1.726c-.998.997-.805 4.536.212 3.908 1.147-.709 2.155-4.575 1.194-4.575-.407 0-1.04.3-1.406.667m-18.588 1.916c.048 1.165.285 1.402.604.605.289-.722.253-1.585-.079-1.917s-.568.258-.525 1.312m-5.548.71c-.428.986-.497 2.074-.155 2.417 1.016 1.015 1.835-.411 1.367-2.382-.414-1.747-.468-1.748-1.212-.035m25.598 2.217c-4.483 4.753-6.78 4.443-4.106-.553 2.059-3.847-2.008-.839-5.291 3.913-4.101 5.938-4.523 9.295-1.528 12.172 2.844 2.733 10.405 6.237 13.934 6.458l2.639.165-.453-12.082c-.249-6.646-.779-12.416-1.178-12.823s-2.207.831-4.017 2.75m-9.448 7.763-1.82 3.227 2.188-2.146c1.203-1.18 2.021-2.632 1.819-3.227s-1.187.371-2.187 2.146m-9.666-1.582c.009.445.452 1.484.985 2.309.835 1.293.971 1.266.985-.191.008-.93-.435-1.969-.985-2.309s-.993-.254-.985.191m22.064.892c.048 1.165.285 1.402.604.605.289-.722.253-1.585-.079-1.917s-.568.258-.525 1.312M133 58.059c0 .582.45.781 1 .441s1-.816 1-1.059-.45-.441-1-.441-1 .477-1 1.059M130 60c-.793.49-1.11 1.223-.704 1.629.405.406 1.262.213 1.904-.429 1.511-1.511.668-2.354-1.2-1.2m6 0c0 .55.477 1 1.059 1s.781-.45.441-1-.816-1-1.059-1-.441.45-.441 1m-25 3c-1.282.828-1.246.972.25.985.963.008 1.75-.435 1.75-.985 0-1.22-.113-1.22-2 0m49.5 2c-.731 1.183.248 1.183 3 0 1.928-.829 1.921-.862-.191-.93-1.205-.038-2.469.38-2.809.93m-53.75 1.662c.688.278 1.813.278 2.5 0 .688-.277.125-.504-1.25-.504s-1.937.227-1.25.504m62.063.021c.721.289 1.584.253 1.916-.079s-.258-.568-1.312-.525c-1.165.048-1.402.285-.604.604m-.765 2.266c-.799.506-1.806.701-2.238.433s-2.024.663-3.538 2.066c-1.513 1.404-2.35 2.552-1.858 2.552C161.639 74 172 69.055 172 68.471c0-.789-2.411-.497-3.952.478m-68.019 4.012c-.809.512-1.211 1.191-.893 1.509s1.148-.108 1.844-.946c1.443-1.738 1.166-1.902-.951-.563M167.5 75c-.34.55-.141 1 .441 1S169 75.55 169 75s-.198-1-.441-1-.719.45-1.059 1m-36.929 4.496c-3.167 4.152-2.975 4.988.816 3.547 3.096-1.177 4.162-3.24 2.868-5.552-.774-1.384-1.33-1.081-3.684 2.005M139 76.918c0 .505.265 1.609.589 2.453.469 1.223.962 1.302 2.426.388 1.707-1.066 1.718-1.237.161-2.421-2.001-1.521-3.176-1.677-3.176-.42m-44.886 1.715c-1.924 1.348-2.478 1.396-3.168.279-1.04-1.682-2.392-.516-1.649 1.42.444 1.157 1.207 1.212 4.124.299C95.389 80.015 97 78.946 97 78.255c0-1.595-.086-1.583-2.886.378m65.45.074c-.542 1.425-.428 1.54.56.56.684-.679.991-1.486.683-1.793-.308-.308-.867.247-1.243 1.233m-75.335 3.481c.618 1.854 2.771 2.161 2.771.395 0-.87-.713-1.583-1.583-1.583-.871 0-1.406.534-1.188 1.188m62.493 1.823c-.947 1.107-1.706 3.469-1.686 5.25l.036 3.239 2.459-3c2.326-2.837 3.377-7.5 1.691-7.5-.428 0-1.553.905-2.5 2.011m14.975-.136c.429.344 1.05.984 1.38 1.422.33.439 1.131.158 1.78-.625.968-1.166.72-1.422-1.38-1.422-1.408 0-2.209.281-1.78.625m6.382 1.708c.048 1.165.285 1.402.604.605.289-.722.253-1.585-.079-1.917s-.568.258-.525 1.312M85 87.393C85 88.44 85.87 89 87.5 89c1.375 0 2.5-.45 2.5-1s-.413-1-.918-1-1.63-.273-2.5-.607c-1.038-.398-1.582-.055-1.582 1m-7.02 2.131c-.696.838-1.071 1.718-.835 1.955.237.236.98-.449 1.651-1.524 1.452-2.325.968-2.58-.816-.431m55.696-.122c-.296.771-.3 1.64-.009 1.931.918.919 3.333-.487 3.333-1.94 0-1.815-2.627-1.808-3.324.009m-62.018 1.047q-.557 1.45.887.895c.794-.304 1.195-.956.89-1.449-.766-1.24-1.132-1.126-1.777.554M97.5 90c-.34.55-.141 1 .441 1S99 90.55 99 90s-.198-1-.441-1-.719.45-1.059 1m6 1c-.34.55-.141 1 .441 1S105 91.55 105 91s-.198-1-.441-1-.719.45-1.059 1m-79.181 3.59c-2.021 2.021-2.774 2.295-3.426 1.25-1.117-1.791-4.318.141-4.586 2.767-.176 1.737-.148 1.742.338.07.325-1.117 1.109-1.602 2.024-1.25.822.315 1.683.573 1.913.573S21 99 21 100.223c0 2.199.018 2.196 1.709-.25 2.333-3.376 3.489-4.471 5.541-5.248.962-.364 1.75-1.126 1.75-1.694 0-1.898-3.064-1.058-5.681 1.559m15.853-.755c-2.086 1.605-2.164 1.927-.75 3.1C40.744 98.032 41 97.993 41 96.694c0-.853.707-2.258 1.571-3.123 2.134-2.133.481-1.951-2.399.264m108.417.629c-.772 2.954 1.616 3.879 3.661 1.419 2.331-2.803 2.211-3.383-.699-3.383-1.593 0-2.628.687-2.962 1.964M80 93.833c0 .459.655.834 1.456.834s1.224-.375.941-.834S81.459 93 80.941 93s-.941.375-.941.833m58.605 1.755c-.855 2.228-.787 2.412.895 2.412.825 0 1.5-.648 1.5-1.441 0-2.116-1.693-2.802-2.395-.971m-70.624.424c-1.995 1.232-.51 2.383 1.572 1.218.937-.524 1.287-1.211.778-1.526-.51-.314-1.567-.176-2.35.308M147 100c0 .55.45 1 1 1s1-.45 1-1-.45-1-1-1-1 .45-1 1m-128.842 3c0 1.375.227 1.938.504 1.25.278-.687.278-1.812 0-2.5-.277-.687-.504-.125-.504 1.25M65 102.059c0 .582.45.781 1 .441s1-.816 1-1.059-.45-.441-1-.441-1 .477-1 1.059m-7.128 1.691c-1.243 1.586-1.208 1.621.378.378 1.666-1.307 2.195-2.128 1.372-2.128-.207 0-.995.787-1.75 1.75m34.641-.771c-.581.94 1.063 5.021 2.022 5.021.256 0 .465-1.35.465-3 0-2.933-1.281-3.973-2.487-2.021m-44.434 1.286c-2.535 1.293-3.985 3.735-2.218 3.735.565 0 2.29-1.111 3.833-2.468 3.028-2.664 2.278-3.253-1.615-1.267m22.406-.207c-2.931.853-7.764 6.942-5.51 6.942.598 0 1.347-.675 1.663-1.5s1.025-1.5 1.575-1.5c.549 0 2.335-1.125 3.969-2.5 3.174-2.67 3.007-2.811-1.697-1.442M99 105.059c0 .582.45.781 1 .441s1-.816 1-1.059-.45-.441-1-.441-1 .477-1 1.059m49.015 1.191c.013 1.819.201 1.963.985.75 1.253-1.939 1.253-3 0-3-.55 0-.993 1.013-.985 2.25m-67.578 1.88c-2.097 2.234-2.362 2.833-.926 2.092 2.506-1.292 6.142-5.222 4.831-5.222-.532 0-2.29 1.408-3.905 3.13m-39.799-.63c-.316.825-.187 1.5.286 1.5.474 0 1.121-.675 1.438-1.5s.187-1.5-.286-1.5c-.474 0-1.121.675-1.438 1.5m84.362-.441c0 .582.45.781 1 .441s1-.816 1-1.059-.45-.441-1-.441-1 .477-1 1.059m-92.988 2.918c-.849 1.587-.772 1.868.388 1.423 1.682-.645 2.981-3.4 1.604-3.4-.514 0-1.41.89-1.992 1.977m68.988-.418c0 .857.457 1.276 1.016.931.559-.346.758-1.047.441-1.559-.857-1.387-1.457-1.129-1.457.628m-53 .941c-.707.852-1.06 1.773-.785 2.048s1.078-.196 1.785-1.048 1.06-1.773.785-2.048-1.078.196-1.785 1.048m58.015.75c.013 1.819.201 1.963.985.75 1.253-1.939 1.253-3 0-3-.55 0-.993 1.013-.985 2.25m38.235 1.25c0 1.469.485 2.422 1.125 2.208.619-.206 1.125-1.2 1.125-2.208s-.506-2.002-1.125-2.208c-.64-.214-1.125.739-1.125 2.208m-110.378 1.164c-1.255 1.522-1.159 1.553 1.128.364 3.352-1.742 3.605-2.028 1.789-2.028-.849 0-2.162.749-2.917 1.664m6.207-.081c.048 1.165.285 1.402.604.605.289-.722.253-1.585-.079-1.917s-.568.258-.525 1.312M85.5 114c-1.002 1.107-1.596 2.237-1.321 2.512s1.319-.405 2.321-1.512 1.596-2.237 1.321-2.512-1.319.405-2.321 1.512m72.515 1.191c-.008 2.03.435 3.969.985 4.309 1.29.797 1.29-4.504 0-6.5-.723-1.118-.973-.56-.985 2.191M139.5 115c-.34.55-.141 1 .441 1s1.059-.45 1.059-1-.198-1-.441-1-.719.45-1.059 1M71 116.594c0 1.545 2.557 1.932 3.43.52.301-.488-.347-1.121-1.441-1.407-1.289-.337-1.989-.025-1.989.887m18.667-.927c-.367.366-.667 1.131-.667 1.7 0 .626.466.567 1.183-.15.651-.651.951-1.416.667-1.7s-.817-.217-1.183.15M141 118c0 .55.423 1 .941 1s1.219-.45 1.559-1-.084-1-.941-1-1.559.45-1.559 1m-73.5 2c-.34.55-.141 1 .441 1S69 120.55 69 120s-.198-1-.441-1-.719.45-1.059 1m44.106 6.416c.335.871 1.047 1.584 1.584 1.584 1.315 0 .492-2.273-1.003-2.771-.731-.244-.954.214-.581 1.187M156.232 128c0 1.925.206 2.713.457 1.75.252-.963.252-2.537 0-3.5-.251-.963-.457-.175-.457 1.75m-88.594-.5c-.316.825-.139 1.5.393 1.5.533 0 .969-.675.969-1.5s-.177-1.5-.393-1.5-.652.675-.969 1.5M116 129c0 .55.45 1 1 1s1-.45 1-1-.45-1-1-1-1 .45-1 1m-27.417.866c-.431.697-.513 1.537-.183 1.867.895.895 1.871-.421 1.387-1.871-.338-1.016-.574-1.016-1.204.004m42.716 2.318c-4.841 1.282-5.499 3.272-.831 2.515 4.133-.671 4.922-1.115 4.386-2.468-.203-.513-1.718-.533-3.555-.047m23.806 5.189c-.627.756-.859 2.106-.515 3s.198 1.627-.322 1.627c-1.041 0-3.291 4.388-3.229 6.297.022.662.675-.26 1.452-2.047 1.261-2.903 1.872-3.265 5.711-3.386 2.364-.075 3.318-.327 2.121-.56-3.272-.637-4.867-2.943-3.323-4.804.694-.837.803-1.5.245-1.5-.55 0-1.513.618-2.14 1.373m10.634 3.516c-.272 1.039-.118 2.498.342 3.242 1.263 2.044 3.273-.44 2.451-3.03-.829-2.611-2.139-2.71-2.793-.212m-.484 7.303c-.602.726-1.377 2.447-1.723 3.826-.532 2.118-.17 2.68 2.337 3.627l2.967 1.119-.554-3.632c-.796-5.221-1.644-6.606-3.027-4.94m-10.579 2.21c-.625 1.629.215 2.784 1.463 2.012 1.136-.702 1.111-3.414-.032-3.414-.491 0-1.135.631-1.431 1.402M150 156c-.589 1.1-.845 2-.57 2s.981-.9 1.57-2 .845-2 .57-2-.981.9-1.57 2"/><path fill-opacity=".121" fill-rule="evenodd" d="M113.227 37.464c-1.542 2.22-3.616 5.611-4.608 7.536-.993 1.925-3.788 5.722-6.212 8.437C99.412 56.792 98 59.276 98 61.187c0 3.797 1.858 3.456 5.499-1.009 1.649-2.023 2.2-3.051 1.225-2.285-.975.765-1.988 1.176-2.253.912-.703-.703 2.44-6.652 3.985-7.543 1.52-.876 7.634-11.839 6.971-12.501-.241-.242.361-1.164 1.34-2.05 1.197-1.083 2.26-1.312 3.251-.7 1.247.771 1.167 1.133-.521 2.368-1.127.824-1.609 1.819-1.109 2.289.487.458 1.087.27 1.332-.418.609-1.706 2.28-1.584 2.28.167 0 .779-1.237 1.85-2.75 2.38l-2.75.965 2.75 1.094c1.892.753 2.74 1.804 2.718 3.369-.029 2.054-.155 2.113-1.306.599-1.181-1.553-1.361-1.536-2.468.237-1.706 2.732-1.476 3.68.335 1.38 1.411-1.79 1.508-1.455 1.25 4.311-.207 4.647.059 6.251 1.038 6.25.889-.001 1.098.69.643 2.123-.454 1.43-.312 1.902.433 1.441 1.026-.634 1.577.699 1.173 2.842-.294 1.557 2.216 2.486 5.137 1.901 2.145-.429 2.797-.18 2.797 1.066 0 .894-.338 1.674-.75 1.735-5.961.871-7.29.579-7.869-1.727-.374-1.492-1.327-2.383-2.548-2.383-1.073 0-1.668.457-1.323 1.016.346.559 1.047.758 1.559.441.512-.316.931.179.931 1.101 0 1.299-.505 1.502-2.25.903-3.353-1.151-9.602-.828-11.303.583-1.654 1.373-3.024.699-1.988-.977.362-.587 2.095-1.087 3.85-1.111l3.191-.044-3.677-1.942c-2.022-1.069-5.156-2.061-6.965-2.206-2.939-.236-3.346.052-3.828 2.705-.465 2.562-1.124 3.085-4.805 3.813-2.346.464-4.036 1.215-3.756 1.668s-.048.804-.73.78c-3.62-.131-4.916.366-4.409 1.687.299.78-.15 1.684-.997 2.009-.937.359-1.295 1.23-.914 2.224.54 1.407.401 1.446-1.004.279-1.398-1.16-1.84-1.073-3.087.609-1.418 1.912-1.52 1.885-3.986-1.038-6.142-7.279-8.687-9.581-10.028-9.067-.78.299-1.17.143-.867-.347s-.686-1.279-2.198-1.754c-3.646-1.143-9.496-.541-8.613.887.417.676.206.801-.556.331-.711-.44-2.143.079-3.404 1.235-1.469 1.347-3.546 1.986-6.393 1.969-5.22-.033-9.68 2.619-8.971 5.332.276 1.054.141 1.694-.299 1.422-.946-.584-2.311 4.2-1.55 5.432.288.466-1.235 1.552-3.384 2.412s-6.421 3.171-9.493 5.136C11.343 96.842 11 97.305 11 101.031c0 3.597-.241 3.969-2.573 3.969-4.215 0-2.661 3.254 2.08 4.358 2.196.512 4.317 1.428 4.712 2.036s1.52 1.156 2.5 1.217c2.677.166 6.281 1.524 6.281 2.365 0 .707 7.842 1.269 20.145 1.444 4.169.059 6.179-.403 7.687-1.768 1.123-1.016 2.524-1.55 3.113-1.186s1.774-.042 2.634-.902c2.456-2.456 4.088-1.883 4.088 1.436 0 1.65-.263 3.002-.584 3.004s-.646 3.152-.722 7c-.077 3.848.26 6.996.75 6.996.489 0 .889.619.889 1.375 0 1.591 5.15 2.874 7.739 1.927 2.438-.892 7.261-5.987 7.261-7.67 0-.763.67-1.943 1.489-2.623s1.246-1.629.948-2.111c-.647-1.047 2.517-.011 4.377 1.433.776.603 1.075 1.976.729 3.353-.322 1.283.097 3.653.931 5.266 1.419 2.744 1.839 2.91 6.503 2.562 2.742-.204 5.393-.623 5.891-.93 1.093-.676 2.532-7.25 2.235-10.21-.348-3.455 4.498-4.109 7.786-1.051 1.436 1.336 3.173 2.223 3.86 1.971.688-.252 1.531.274 1.874 1.168.834 2.173-.485 3.372-1.662 1.511-.709-1.121-.934-.83-.946 1.22-.008 1.48.444 2.975 1.005 3.321 1.584.98 7.98-1.497 7.98-3.09 0-.782.9-1.422 2-1.422s1.916.338 1.812.75.162 2.662.588 5c.725 3.973.988 4.25 4.038 4.25 4.091 0 11.562-5.173 11.562-8.006 0-2.539 2.669-2.611 3.468-.094 1.07 3.372 1.355 32.969.355 36.845-.533 2.065-1.119 5.932-1.303 8.592l-.333 4.836 2.156-1.961c1.186-1.079 3.19-2.495 4.453-3.147s3.668-3.415 5.346-6.141c3.21-5.217 6.271-7.683 7.356-5.927 1.136 1.838 2.502 1.034 2.502-1.472 0-2.244.24-2.384 2.565-1.5 5.841 2.221 6.936-.081 3.579-7.525-1.518-3.364-1.585-4.163-.423-5.024.989-.733 1.129-1.708.493-3.426l-.889-2.403-.596 2.282c-.782 2.989-3.316 2.096-2.95-1.039.154-1.315.713-2.539 1.242-2.72.528-.182.264-1.028-.587-1.879-.852-.852-1.277-2.258-.944-3.125 1.353-3.526 1.716-9.92.603-10.608q-1.142-.706-.477-5.723c.947-7.14 1.113-8.861 1.256-13.085.085-2.472.601-3.75 1.517-3.75.816 0 1.671-1.546 2.073-3.75.377-2.062 1.603-5.325 2.726-7.25 2.231-3.825 3.074-8 1.614-8-1.077 0-.52-3.58 1.596-10.25 1.466-4.621 1.45-4.75-.562-4.75-1.668 0-1.976.485-1.591 2.5.263 1.375.132 2.5-.29 2.5s-.532.9-.245 2c.293 1.118.031 2-.593 2-.615 0-1.031.338-.927.75.105.412-.092 2.1-.437 3.75-.346 1.65-.907 5.475-1.247 8.5s-1.275 6.381-2.075 7.459c-1.42 1.908-1.527 1.881-4.216-1.062-1.517-1.661-3.623-5.117-4.68-7.679-1.664-4.037-2.229-4.582-4.228-4.08-1.804.453-2.29.174-2.228-1.28.045-1.052.298-1.316.583-.608.278.688 1.011 1.25 1.63 1.25.618 0-.769-1.93-3.084-4.288-6.835-6.964-6.19-7.838 8.719-11.819 9.907-2.645 11.529-4.246 3.573-3.527-8.714.787-8.927.832-9.768 2.035-.517.74-1.11.52-1.812-.672-.573-.974-1.513-1.48-2.088-1.125-.683.422-.575.972.311 1.587.945.655.675.748-.893.307-1.376-.387-2.25-.195-2.25.494 0 .619-.45.848-1 .508s-1-1.293-1-2.118.369-1.272.819-.994c.451.279.694-.707.541-2.191-1.006-9.766-1.068-12.346-.268-11.082.655 1.033.881.813.893-.865.008-1.237-.435-2.25-.985-2.25s-1-1.587-1-3.526v-3.525l-3.09 1.598c-1.7.879-3.725 1.354-4.5 1.057-.776-.298-2.085-.282-2.91.034-1.667.64-2.072 3.362-.5 3.362.55 0 1-.45 1-1s1.084-1 2.41-1h2.41l-2.614 2.979c-1.578 1.797-2.875 2.557-3.271 1.915-.369-.596-.921-.056-1.257 1.228-.947 3.622.028 3.47 3.872-.606 2.059-2.184 3.944-3.415 4.444-2.903.478.488 1.095 6.714 1.37 13.836.275 7.123.158 12.395-.262 11.717-.419-.679-1.467-.963-2.328-.633-2.103.807-13.365-4.97-15.18-7.787-1.472-2.284-1.117-7.746.502-7.746.475 0 1.76-1.758 2.857-3.908 1.096-2.149 2.568-4.138 3.27-4.421.837-.336.71-.54-.369-.592-.906-.043-3.022 1.487-4.703 3.402-3.302 3.76-3.557 3.69-4.622-1.272-.463-2.159-.262-3.826.585-4.847 1.074-1.293 1.005-1.716-.407-2.506-.934-.523-1.968-2.633-2.296-4.689-.813-5.08-3.526-4.968-7.184.297M143 42.941c0 .518.45 1.219 1 1.559s1-.084 1-.941S144.55 42 144 42s-1 .423-1 .941m-23.985 12.75c-.008 1.205.435 2.469.985 2.809 1.273.787 1.273-1.53 0-3.5-.788-1.219-.972-1.09-.985.691m9.496 1.932c-.945 1.443-1.224 2.318-.62 1.944 1.154-.713 3.483-4.567 2.759-4.567-.231 0-1.193 1.18-2.139 2.623m1.948 2.444c-.363.586-.445 1.281-.183 1.543s.743-.218 1.069-1.067c.676-1.762.1-2.072-.886-.476M160 65c0 1.174.769 1.174 3.5 0 1.772-.762 1.687-.867-.75-.93-1.512-.038-2.75.38-2.75.93m11.813-.317c.721.289 1.584.253 1.916-.079s-.258-.568-1.312-.525c-1.165.048-1.402.285-.604.604M113.5 67c.34.55.816 1 1.059 1s.441-.45.441-1-.477-1-1.059-1-.781.45-.441 1m53.5 3c-.901.582-1.025.975-.309.985.655.008 1.469-.435 1.809-.985.767-1.242.421-1.242-1.5 0m-11 1c-1.828 1.181-.249 1.181 2.5 0 1.319-.567 1.489-.878.5-.914-.825-.031-2.175.381-3 .914m5.441 1.555c-1.83 1.467-1.798 1.487.559.365 3.061-1.458 3.628-1.92 2.358-1.92-.537 0-1.849.7-2.917 1.555m-62.012.874c-1.059.774-1.701 1.632-1.426 1.907s1.367-.133 2.426-.907c1.059-.775 1.7-1.633 1.425-1.908s-1.366.133-2.425.908m30.443 2.321c-1.243 1.586-1.208 1.621.378.378.963-.755 1.75-1.543 1.75-1.75 0-.823-.821-.294-2.128 1.372m-26.431.805c-1.864 1.494-1.852 1.512.309.465 1.237-.6 2.25-1.3 2.25-1.555 0-.765-.519-.544-2.559 1.09m3.559.504c0 .582.45.781 1 .441s1-.816 1-1.059-.45-.441-1-.441-1 .477-1 1.059m23.687 1.746c-3.538 3.692-3.514 5.431.063 4.576 4.011-.959 4.25-1.209 4.25-4.44 0-3.669-.901-3.697-4.313-.136m8.313-.364c0 1.343.45 2.719 1 3.059s1 .172 1-.374c0-.545.931-1.287 2.069-1.648 1.98-.628 1.991-.716.25-2.035-2.746-2.082-4.319-1.719-4.319.998m-45.75.233c-1.397.975-2.25 1.145-2.25.448 0-.617-.45-1.122-1-1.122s-1 .9-1 2c0 2.305.54 2.405 4.851.902 1.732-.604 3.149-1.729 3.149-2.5 0-1.772-.914-1.706-3.75.272m-8.571 2.572c-1.596 1.169-1.574 1.341.327 2.527 1.716 1.07 2.136 1.02 2.649-.318.9-2.343-.933-3.704-2.976-2.209m29.571-.026c-1.237.597-2.25 1.478-2.25 1.958 0 .481 1.35.175 3-.678 4.522-2.339 3.844-3.495-.75-1.28M146 84.281c-.825 1.221-1.357 3.705-1.183 5.522l.318 3.303 2.969-3.737c1.633-2.055 2.728-4.365 2.433-5.134S150 82.648 150 82.418c0-1.296-2.72-.029-4 1.863m26-.84c0 .857.45 1.559 1 1.559s1-.423 1-.941-.45-1.219-1-1.559-1 .084-1 .941m-7.971.52c-.809.512-1.211 1.191-.893 1.509s1.148-.108 1.844-.946c1.443-1.738 1.166-1.902-.951-.563m-60.216.722c.721.289 1.584.253 1.916-.079s-.258-.568-1.312-.525c-1.165.048-1.402.285-.604.604M130 86c0 .55.45 1 1 1s1-.45 1-1-.45-1-1-1-1 .45-1 1m-45.01 1.981c1.247 2.33 1.464 2.381 4.104.969 2.591-1.387 1.788-2.457-2.064-2.751-2.846-.217-3.026-.06-2.04 1.782m26.553-1.05c-.683 1.105.894 2.299 1.818 1.375.95-.951.773-2.306-.302-2.306-.518 0-1.2.419-1.516.931M126 86.819c0 1.208 1.897 2.617 2.591 1.924.251-.252-.229-1.027-1.067-1.723-.95-.789-1.524-.865-1.524-.201m-46.5.946C77.592 89.167 75.76 92 76.763 92c.554 0 1.744-1.125 2.645-2.5 1.72-2.625 1.737-2.943.092-1.735m-7.773 2.171c-.351 1.34-.085 1.755.886 1.382 1.575-.604 1.817-1.934.501-2.748-.488-.301-1.112.314-1.387 1.366m61.618-.393c-.326.849-.331 1.804-.012 2.124 1.009 1.009 3.667-.539 3.667-2.136 0-1.996-2.888-1.986-3.655.012M97.5 90c-.34.55-.141 1 .441 1S99 90.55 99 90s-.198-1-.441-1-.719.45-1.059 1m5.81.431c-.654.746-.917 1.629-.583 1.962 1.119 1.12 2.036.622 2.563-1.393.6-2.295-.25-2.539-1.98-.569m20.357-.764c-1.215 1.214-.691 2.28.833 1.695.825-.317 1.5-.978 1.5-1.469 0-1.048-1.378-1.182-2.333-.226M28 91.706c-.825.302-2.465 1.425-3.645 2.496-1.397 1.27-2.376 1.574-2.809.873-.957-1.549-1.883-1.341-4.38.985-1.216 1.132-1.932 2.509-1.592 3.059.362.587 1.146.279 1.893-.744 1.175-1.606 1.39-1.526 2.723 1.018l1.447 2.761 2.431-3.57c1.338-1.963 2.882-3.421 3.432-3.239.997.329 3.408-2.17 3.468-3.595.036-.84-.757-.852-2.968-.044M85.5 92c-.34.55-.168 1 .382 1s1.278-.45 1.618-1 .168-1-.382-1-1.278.45-1.618 1m-45.639 1.98c-2.005 1.681-2.136 2.127-.868 2.959 1.109.727 1.671.497 2.186-.894.381-1.031 1.51-2.349 2.507-2.929 1.565-.91 1.589-1.059.175-1.086-.902-.016-2.702.861-4 1.95m40.469-.793c-.561.722-1.298 2.094-1.638 3.048-.543 1.526-.351 1.587 1.595.5a194 194 0 0 1 2.555-1.41c.188-.096-.071-.912-.575-1.813-.742-1.325-1.112-1.387-1.937-.325m67.78 1.472c-.885 1.94-.8 2.523.433 2.996 1.683.646 5.457-2.248 5.457-4.185 0-2.303-4.735-1.347-5.89 1.189m-10.074.797c-1.605 1.934-.529 3.486 1.965 2.833 2.247-.587 2.223-.541 1.392-2.707-.756-1.97-1.794-2.009-3.357-.126m20.043.127c.048 1.165.285 1.402.604.605.289-.722.253-1.585-.079-1.917s-.568.258-.525 1.312m-90.638.946c-1.88 1.481-1.864 1.521.481 1.25 1.332-.153 2.607-.841 2.833-1.529.56-1.701-.963-1.573-3.314.279M101 99.059c0 .582.45.781 1 .441s1-.816 1-1.059-.45-.441-1-.441-1 .477-1 1.059m27-.594c0 .255.9.946 2 1.535 1.596.854 2 .76 2-.465 0-.868-.869-1.535-2-1.535-1.1 0-2 .209-2 .465m18 .3c0 1.063 2.148 3.235 3.2 3.235 1.552 0 .775-1.943-1.2-3-1.1-.589-2-.695-2-.235m-87 2.685c0 .798-.788 1.909-1.75 2.47-1.441.839-1.476 1.025-.2 1.05.853.016 2.09-.51 2.75-1.17 1.456-1.456 1.58-3.8.2-3.8-.55 0-1 .653-1 1.45m5.638.05c-.336.876-.015 1.5.771 1.5.74 0 1.906-.675 2.591-1.5 1.037-1.249.908-1.5-.771-1.5-1.108 0-2.274.675-2.591 1.5m43.362 0c0 .825.73 1.5 1.622 1.5 1.329 0 1.398-.271.378-1.5-.685-.825-1.415-1.5-1.622-1.5s-.378.675-.378 1.5m8.079.083c.048 1.165.285 1.402.604.605.289-.722.253-1.585-.079-1.917s-.568.258-.525 1.312m-98.064 1.167c-.008 1.237.435 2.25.985 2.25 1.253 0 1.253-1.061 0-3-.784-1.213-.972-1.069-.985.75m74.643-.265c-1.319 1.319-1.391 1.97-.394 3.567 1.528 2.446 3.133 1.998 3.571-.996.47-3.214-1.19-4.558-3.177-2.571m-43.331 1.068c-3.328 1.458-4.939 3.169-3.931 4.176.986.986 5.403-1.485 6.577-3.679.604-1.128.969-2.013.812-1.968s-1.713.707-3.458 1.471M127 103c0 .55.702 1 1.559 1s1.281-.45.941-1-1.041-1-1.559-1-.941.45-.941 1m7 0c0 .55.45 1 1 1s1-.45 1-1-.45-1-1-1-1 .45-1 1m-64.339.868c-1.956.436-3.262 1.642-4.202 3.882-.749 1.787-1.107 3.25-.795 3.25.74 0 10.336-7.043 10.336-7.585 0-.511-1.626-.373-5.339.453M99 105.622c0 1.329.271 1.398 1.5.378.825-.685 1.5-1.415 1.5-1.622s-.675-.378-1.5-.378-1.5.73-1.5 1.622m48.763.92c.542 2.832.509 2.837 2.137-.292 1.016-1.954.921-2.25-.726-2.25-1.492 0-1.793.542-1.411 2.542M41.75 106.08c-1.879 1.094-2.37 2.92-.785 2.92.53 0 1.446-.9 2.035-2 1.217-2.274 1.154-2.32-1.25-.92m38.886 1.556c-3.779 3.78-3.262 5.303.614 1.809 1.787-1.611 3.677-3.27 4.2-3.687.534-.426.265-.758-.614-.758-.86 0-2.75 1.186-4.2 2.636M125 106.622c0 1.329.271 1.398 1.5.378.825-.685 1.5-1.415 1.5-1.622s-.675-.378-1.5-.378-1.5.73-1.5 1.622m-24.163.875c-.747.746.331 7.517 1.118 7.031 1.007-.623 1.103-6.374.117-6.983-.436-.27-.992-.292-1.235-.048m-68.857 2.027c-.696.838-.987 1.803-.647 2.143.727.726 3.667-1.511 3.667-2.789 0-1.378-1.63-1.029-3.02.646m73.974.562c-1.178 2.201-.732 3.513.859 2.53 1.283-.793 2.218-4.616 1.129-4.616-.48 0-1.374.939-1.988 2.086M48.2 110.2c-.66.66-1.2 1.56-1.2 2 0 1.473 1.506.82 2.768-1.2 1.367-2.19.344-2.712-1.568-.8m96.244-.397c-1.04.723-1.143 4.832-.146 5.829.951.95 2.703-.642 2.687-2.441-.022-2.414-1.365-4.205-2.541-3.388m-117.861 1.063c-.431.697-.513 1.537-.183 1.867.895.895 1.871-.421 1.387-1.871-.338-1.016-.574-1.016-1.204.004M42.5 111c-.34.55-.168 1 .382 1s1.278-.45 1.618-1 .168-1-.382-1-1.278.45-1.618 1m94.579.583c.048 1.165.285 1.402.604.605.289-.722.253-1.585-.079-1.917s-.568.258-.525 1.312M34.405 113.17c-1.879 2.14-1.878 2.159.095 1.386 4.268-1.671 5.824-1.889 5.097-.714-.393.637-.238 1.158.344 1.158S41 114.1 41 113c0-2.76-4.115-2.654-6.595.17m51.13.417c-1.874 2.86-1.379 4.358.833 2.523 1.622-1.347 2.84-5.11 1.653-5.11-.435 0-1.554 1.164-2.486 2.587M158 115.693c0 2.352.532 4.297 1.25 4.573 1.614.621 1.527-5.889-.101-7.517-.865-.865-1.149-.138-1.149 2.944m-79.98-1.217c-.789.95-.865 1.524-.201 1.524 1.208 0 2.617-1.897 1.924-2.591-.252-.251-1.027.229-1.723 1.067m20.059 1.107c.048 1.165.285 1.402.604.605.289-.722.253-1.585-.079-1.917s-.568.258-.525 1.312M139 115c0 .55.498 1 1.107 1s.848.675.531 1.5c-.344.896-.008 1.5.834 1.5 2.332 0 2.548-1.539.465-3.322-2.253-1.929-2.937-2.087-2.937-.678m-68.476.81c-.288.288-.524.898-.524 1.357 0 1.116 4.735 1.07 5.429-.053.588-.95-4.031-2.178-4.905-1.304m19.059.056c-.431.697-.513 1.537-.183 1.867.895.895 1.871-.421 1.387-1.871-.338-1.016-.574-1.016-1.204.004m-22 3c-.431.697-.513 1.537-.183 1.867.895.895 1.871-.421 1.387-1.871-.338-1.016-.574-1.016-1.204.004m84.417.193c0 .582.45.781 1 .441s1-.816 1-1.059-.45-.441-1-.441-1 .477-1 1.059m-83.849 7.33c-1.296 3.103-.791 4.651.95 2.91.588-.588.886-2.133.662-3.434-.398-2.317-.43-2.306-1.612.524m88.101 2.111c.011 2.2.216 2.982.455 1.738s.23-3.044-.02-4-.446.062-.435 2.262m-10.173.083c.048 1.165.285 1.402.604.605.289-.722.253-1.585-.079-1.917s-.568.258-.525 1.312m-57.412.084C87.629 129.704 87.883 133 89 133c.55 0 1-1.125 1-2.5 0-2.618-.231-2.936-1.333-1.833M116 129c0 .55.423 1 .941 1s1.219-.45 1.559-1-.084-1-.941-1-1.559.45-1.559 1m15.079 2.882c-3.757.679-5.5 3.118-2.227 3.118 2.892 0 7.148-1.771 7.148-2.975 0-.564-.338-.966-.75-.893s-2.289.41-4.171.75m23.803 5.868a203 203 0 0 1-2.382 5.75c-.719 1.65-1.576 3.9-1.906 5-.59 1.97-.576 1.971.904.059.826-1.068 1.502-2.332 1.502-2.809s.419-.609.931-.293c.512.317 1.256.049 1.654-.595.489-.791.268-.911-.68-.37-1.193.68-1.197.59-.03-.595.955-.97 1.503-1.05 1.795-.262.313.846 1.042.846 2.867 0 2.899-1.345 3.277-2.661.559-1.95-2.14.56-3.564-2.301-2.512-5.044.355-.924.137-1.641-.498-1.641-.621 0-1.613 1.238-2.204 2.75m4.99 1c-1.243 1.586-1.208 1.621.378.378 1.666-1.307 2.195-2.128 1.372-2.128-.207 0-.995.787-1.75 1.75m4.291 11.174c-1.19 2.116-2.163 4.081-2.163 4.364 0 .51 5.665 2.712 6.976 2.712.965 0-.02-5.857-1.448-8.608-1.195-2.305-1.213-2.296-3.365 1.532m-8.564-.62c-1.452 1.061-1.647 1.788-.86 3.195.959 1.713 1.089 1.69 2.205-.395 1.632-3.048.946-4.475-1.345-2.8M149.71 156c-.287 1.1-.167 2 .267 2s1.025-.9 1.313-2c.287-1.1.167-2-.267-2s-1.025.9-1.313 2m3.325.934c-1.267 2.367-1.326 3.364-.156 2.641.883-.546 2.259-4.575 1.563-4.575-.205 0-.837.87-1.407 1.934m-.411 7.605c-.965 2.514-.681 3.163.498 1.136.584-1.004.851-2.036.593-2.293-.257-.258-.749.263-1.091 1.157M148 167.5c0 .825.177 1.5.393 1.5s.652-.675.969-1.5.139-1.5-.393-1.5c-.533 0-.969.675-.969 1.5"/><path fill-opacity=".986" fill-rule="evenodd" d="M48.75 74.056c-2.495 1.487-2.364 7.545.193 8.913 4.328 2.317 9.958-3.711 7.353-7.874-1.206-1.928-5.144-2.47-7.546-1.039m-15.143 3.526c-1.756 4.577.268 8.171 3.832 6.803 1.605-.616 3.059-5.77 2.076-7.361-.99-1.601-5.233-1.201-5.908.558M60.45 93.819c-1.044.901-13.102 5.62-18.524 7.25-9.629 2.894-20.275 4.559-27.32 4.273-6.945-.283-7.606-.143-7.606 1.613 0 2.741 6.448 3.495 18.104 2.117 11.544-1.365 25.522-5.422 39.146-11.361C67.972 96.088 67.939 93 64.2 93c-1.54 0-3.228.369-3.75.819"/></svg>