<svg xmlns="http://www.w3.org/2000/svg" width="200" height="200" fill="#000000"><path fill-rule="evenodd" d="m94.25 12.735 4.75.375v4.375c0 3.743-.325 4.439-2.25 4.809-1.929.372-1.858.453.5.57 2.683.133 2.75.002 2.75-5.364V12l-5.25.18-5.25.18zM101 17.5c0 5.071.175 5.491 2.25 5.384 1.693-.087 1.817-.229.5-.573-1.33-.348-1.75-1.507-1.75-4.827v-4.369l4.25-.383 4.25-.383-4.75-.174L101 12zm-20-3.442c-2.487.739-2.486.743.363.842 2.597.091 2.823.379 2.424 3.1-.267 1.818.003 3 .685 3 1.172 0 .868-6.726-.332-7.352-.352-.183-1.765.001-3.14.41m5.044-.308c.024.412.414 2.665.866 5.006.804 4.155.75 4.279-2.293 5.247l-3.117.99 3.427-.507c1.885-.279 3.533-.615 3.663-.746.13-.132-.134-2.263-.588-4.736-.573-3.129-.471-4.721.337-5.235.755-.48.548-.744-.589-.754-.963-.008-1.73.323-1.706.735m24.472 2.178c-.52 2.367-1.215 3.072-3.026 3.072-1.643 0-2.481-.678-2.784-2.25-.372-1.929-.453-1.858-.57.5-.123 2.484.191 2.75 3.239 2.75 2.988 0 3.447-.362 4.007-3.16.82-4.099.019-4.942-.866-.912m3.151-2.261c-.367.366-.614 2.054-.549 3.75l.119 3.083.657-3c.589-2.686 1.021-2.979 4.132-2.801 3.098.178 3.204.107.974-.65-3.258-1.107-4.518-1.198-5.333-.382m-39.09 2.208c-.297.481.168 2.956 1.035 5.5 1.236 3.628 2.041 4.611 3.732 4.562l2.156-.064-2.107-.851c-2.887-1.167-4.924-8.716-2.524-9.356 1.456-.387 1.45-.446-.06-.55-.93-.064-1.934.278-2.232.759M106 15.393c0 .216.675.652 1.5.969s1.5.139 1.5-.393c0-.533-.675-.969-1.5-.969s-1.5.177-1.5.393m17.25.296c2.053.537 2.13 1.31.629 6.32-.908 3.031-1.524 3.666-3.25 3.345-2.041-.379-2.046-.358-.129.512 2.495 1.131 2.869.737 4.781-5.042 1.369-4.138 1.375-4.742.051-5.25-.822-.316-2.021-.522-2.664-.458-.642.064-.381.322.582.573m-43.5 1c-.963.252-1.75.838-1.75 1.303 0 2.115 1.358 4.005 2.857 3.978 1.457-.027 1.445-.146-.107-1.05-2.144-1.249-2.287-2.92-.25-2.92.825 0 1.5-.45 1.5-1s-.112-.948-.25-.884-1.037.322-2 .573m9.643.893c.334.87.607 2.67.607 4 0 1.642.562 2.413 1.75 2.403 1.08-.01 1.329-.297.649-.75-.606-.404-1.326-1.949-1.601-3.433-.446-2.401-.16-2.741 2.601-3.09 2.789-.352 2.713-.408-.756-.552-3.142-.13-3.744.133-3.25 1.422m37.68 2.569c-.669 2.231-1.443 4.649-1.72 5.373C124.9 26.703 132.579 31 135.14 31c.487 0 1.848-1.979 3.023-4.398l2.137-4.399 4.82 2.966 4.819 2.965-2.585 3.907c-2.691 4.067-3.169 4.113-7.682.739-1.77-1.324-1.77-1.438 0-3.619 1.659-2.045 2.013-2.116 3.828-.774 1.637 1.21 1.766 1.716.708 2.787-1.063 1.078-1.474 1.046-2.326-.182-.915-1.32-.987-1.319-.625.008.596 2.188 3.378 2.393 4.178.308.464-1.208-.019-2.362-1.485-3.549-2.975-2.409-3.649-2.241-5.519 1.374-1.761 3.406-1.761 3.406 3.743 6.39 2.596 1.408 2.761 1.33 5.716-2.687 1.673-2.276 2.828-4.484 2.566-4.907-.261-.423-2.716-2.148-5.454-3.833l-4.978-3.063-2.135 4.234c-1.174 2.328-2.283 4.399-2.464 4.602s-2.369-.472-4.863-1.5c-3.744-1.543-4.425-2.217-3.914-3.869 2.228-7.197 2.607-7.454 7.375-4.988 2.642 1.366 2.814 1.751 1.79 4-1.306 2.865-1.752 2.984-4.275 1.14-1.062-.777-1.529-1.858-1.102-2.549.568-.919 1.073-.926 2.153-.029.853.708 1.411.769 1.411.155 0-1.627-3.261-2.422-4.155-1.013-1.392 2.194-.94 3.42 1.702 4.623 3.357 1.53 3.177 1.595 4.927-1.789 1.845-3.567 1.853-3.701.276-4.352a636 636 0 0 1-4.856-2.06l-3.605-1.544zm-62.036-1.082c-2.455 1.113-4.624 2.185-4.82 2.381s.575 2.182 1.713 4.413S64 30.103 64 30.327s-1.761 1.573-3.914 2.997l-3.914 2.59-2.586-3.39c-1.422-1.865-2.583-3.758-2.58-4.207s1.448-1.638 3.21-2.641c3.057-1.74 3.262-1.743 4.494-.059 1.658 2.268 1.624 2.861-.252 4.418-1.096.91-1.853.97-2.613.21-1.311-1.311-.131-3.54 1.379-2.607.648.401.797.205.37-.486-.509-.824-1.271-.86-2.645-.125-1.633.874-1.74 1.334-.698 3.003 1.491 2.388 2.117 2.43 5.276.36 2.403-1.574 2.419-1.673.749-4.5-2.09-3.538-2.812-3.569-7.58-.329l-3.768 2.56 3.229 4.19c1.776 2.304 3.313 4.323 3.417 4.486.356.565 9.426-5.285 9.426-6.08 0-.438-.917-2.593-2.037-4.789l-2.037-3.993 4.287-1.945c2.358-1.071 4.807-1.956 5.443-1.968s1.833 1.964 2.66 4.392c1.503 4.41 1.502 4.415-1.024 5.049-1.39.349-2.312.85-2.049 1.114.264.263 1.633.04 3.043-.496l2.564-.975-1.616-5.053c-1.83-5.724-2.604-5.975-9.197-2.984m50.362.478c-.352 1.4-.36 2.825-.019 3.166s.62-.265.62-1.346c0-1.082.54-2.507 1.2-3.167.912-.912.916-1.2.019-1.2-.649 0-1.469 1.146-1.82 2.547M96 19.117c0 .624-.882.886-2.001.593-1.101-.288-1.75-.115-1.441.383C93.481 21.587 97 21.117 97 19.5c0-.825-.225-1.5-.5-1.5s-.5.502-.5 1.117m23.75-.455c.688.278 1.25 1.19 1.25 2.028 0 .944-.571 1.305-1.5.948-.825-.316-1.5-.139-1.5.393 0 .533.9.969 2 .969 1.467 0 2-.667 2-2.5 0-1.744-.529-2.476-1.75-2.421-1.045.047-1.247.282-.5.583M67.037 22.11c-1.355.541-2.626 1.146-2.824 1.344-.734.733 2.882 6.545 4.063 6.531.854-.011.891-.238.124-.75-.605-.404-1.638-1.755-2.294-3.001-1.051-1.996-.92-2.368 1.1-3.124 1.459-.546 2.543-.467 2.978.218.87 1.369-.024 2.889-1.253 2.129-.512-.316-.931-.098-.931.484 0 1.241 1.013 1.338 2.712.258.683-.434.96-1.738.634-2.985-.644-2.46-.807-2.502-4.309-1.104M112 21.934c0 .513-1.237 1.121-2.75 1.35-2.56.387-2.525.427.5.566 2.289.106 3.25-.294 3.25-1.35 0-.825-.225-1.5-.5-1.5s-.5.42-.5.934m3.813 2.749c.721.289 1.584.253 1.916-.079s-.258-.568-1.312-.525c-1.165.048-1.402.285-.604.604m-73.467 8.736L37.5 37.836l3.756 3.88 3.756 3.88-3.42 3.315c-3.573 3.462-4.253 3.446-8.308-.203l-2.217-1.994 2.035-2.857c2.374-3.335 2.653-3.386 5.703-1.039 2.222 1.71 2.239 1.832.477 3.427-2.568 2.324-5.279.735-3.272-1.919 1.321-1.747 1.298-1.75-.529-.076-1.806 1.655-1.816 1.843-.189 3.471 1.628 1.627 1.857 1.585 4.235-.793l2.514-2.514-2.875-2.755-2.875-2.754-3.146 3.582c-1.73 1.97-3.145 3.995-3.145 4.5s1.916 2.235 4.258 3.847l4.258 2.929 3.875-4.453 3.874-4.454-3.7-3.789-3.7-3.789 4.27-3.547 4.269-3.546 2.735 3.658 2.736 3.657-2.624 2.749-2.624 2.749-2.356-2.213-2.355-2.213 2.276-1.717c2.518-1.899 4.554-.458 2.628 1.861-.762.919-.737 1.284.089 1.284 1.903 0 2.472-3.047.869-4.651-1.328-1.328-1.8-1.234-4.2.83l-2.704 2.326 2.813 2.665 2.813 2.664 3.414-2.876 3.414-2.877-2.83-4.084c-1.557-2.247-3.163-4.29-3.568-4.54-.406-.251-2.918 1.532-5.584 3.962m106.901.081-3.252 4.423 4.252 3.982 4.253 3.981 3.813-3.693 3.814-3.693 3.436 3.735c1.89 2.055 3.437 4.139 3.437 4.632s-1.514 2.05-3.364 3.461l-3.363 2.566-2.647-2.763-2.647-2.763 2.36-2.217c2.084-1.957 2.509-2.039 3.623-.697.694.836.954 2.314.578 3.283-.639 1.651-.774 1.639-2.111-.178-1.52-2.065-1.983-.981-.548 1.283.71 1.12 1.205 1.121 2.985.01 2.667-1.666 2.658-2.014-.116-4.604l-2.25-2.1-2.878 2.488-2.878 2.488 2.878 3.183c1.583 1.751 2.963 3.345 3.067 3.544s2.226-1.102 4.715-2.89l4.526-3.25-1.867-2.606c-1.027-1.433-3.042-3.701-4.477-5.04l-2.609-2.435-3.488 3.381-3.488 3.38-2.673-1.996c-4.509-3.366-4.886-4.722-2.286-8.238 1.284-1.736 2.674-3.157 3.09-3.157s2.019 1.098 3.562 2.441l2.806 2.441-2.041 2.072c-1.823 1.851-2.25 1.918-4 .626-1.604-1.183-1.725-1.683-.667-2.754 1.063-1.078 1.451-1.051 2.195.153.497.805 1.233 1.134 1.636.732.402-.403-.125-1.358-1.171-2.122-1.672-1.223-2.069-1.154-3.277.571-1.19 1.7-1.139 2.222.38 3.901 2.292 2.533 3.62 2.446 6.306-.413l2.209-2.352-4.038-3.648c-2.221-2.006-4.149-3.63-4.285-3.609s-1.711 2.029-3.5 4.461M97 31c0 .55.45 1 1 1s1 1.575 1 3.5c0 2.444.452 3.5 1.5 3.5s1.5-1.056 1.5-3.5.452-3.5 1.5-3.5c.825 0 1.5-.45 1.5-1s-1.8-1-4-1-4 .45-4 1m12.518 1.625c-2.277 2.277-1.513 5.531 1.723 7.342 3.474 1.942 6.118.532 6.595-3.519.558-4.741-4.894-7.247-8.318-3.823M81 33.375c0 6.481 2.031 8.702 6.418 7.018 2.359-.905 1.911-2.566-.595-2.206-1.722.248-2.354-.365-3.028-2.937C82.951 32.033 81 30.723 81 33.375m31.25.328c-2.066.766-1.498 4.297.691 4.297 1.068 0 2.246-.493 2.618-1.096.86-1.39-1.649-3.816-3.309-3.201m10.255 4.287c-1.905 4.223-1.311 6.924 1.084 4.936 1.109-.92 1.411-.847 1.411.345 0 .833.711 1.788 1.579 2.121 1.3.499 1.464.079.924-2.38-.562-2.556-.282-3.156 1.949-4.172 1.878-.856 2.248-1.411 1.326-1.991-.703-.442-2.122-.54-3.153-.219-1.122.349-1.626.181-1.256-.418.341-.551 0-1.24-.757-1.531-.886-.34-1.995.841-3.107 3.309M69.2 37.2c-1.31 1.31-1.542 3.744-.593 6.218.726 1.893 6.417 2.158 8.193.382.66-.66 1.2-2.145 1.2-3.3 0-2.83-1.856-4.5-5-4.5-1.43 0-3.14.54-3.8 1.2m1.39 1.654c-.993 1.607.553 4.265 2.286 3.931 2.13-.41 2.104-4.165-.033-4.577-.911-.175-1.925.116-2.253.646m62.782 4.724-2.761 3.62 2.445 1.879c2.611 2.007 4.944 2.493 4.944 1.03 0-.491-.675-1.152-1.5-1.469-.825-.316-1.5-1.094-1.5-1.729 0-.813.459-.773 1.555.136 1.296 1.076 1.892.953 3.59-.745l2.035-2.036-3.023-2.152-3.024-2.153zm-75.273.298-2.402 1.861 2.763 3.622c2.508 3.288 5.257 4.134 4.223 1.299-.232-.637.288-1.972 1.155-2.967 1.185-1.358 1.313-2.229.513-3.5-1.498-2.378-3.462-2.477-6.252-.315M137.5 45c.34.55 1.068 1 1.618 1s.722-.45.382-1-1.068-1-1.618-1-.722.45-.382 1M60 46.559c0 .857.45 1.281 1 .941s1-1.041 1-1.559S61.55 45 61 45s-1 .702-1 1.559m37.25-.843c1.513.229 3.987.229 5.5 0s.275-.416-2.75-.416-4.263.187-2.75.416m-6.981.977c.973.254 2.323.237 3-.037s-.119-.481-1.769-.461-2.204.244-1.231.498m17 0c.973.254 2.323.237 3-.037s-.119-.481-1.769-.461-2.204.244-1.231.498m-21.456.99c.721.289 1.584.253 1.916-.079s-.258-.568-1.312-.525c-1.165.048-1.402.285-.604.604m27 0c.721.289 1.584.253 1.916-.079s-.258-.568-1.312-.525c-1.165.048-1.402.285-.604.604M74.5 51.779C65.866 56.368 56.559 65.49 52.339 73.5c-3.869 7.342-6.618 16.528-6.056 20.238.413 2.733.419 2.73.567-.306.083-1.688.868-5.513 1.745-8.5 4.192-14.272 14.24-26.222 27.717-32.968 4.356-2.18 7.305-3.951 6.554-3.935s-4.516 1.703-8.366 3.75m68.093-.876c-3.231 3.372-2.675 6.375.631 3.412 1.998-1.79 2.016-1.771 1.342 1.34-.969 4.474.597 4.804 4.362.919 2.331-2.404 2.897-3.564 2.007-4.114-.741-.458-1.81-.001-2.662 1.137-1.316 1.757-1.4 1.643-1.099-1.498.425-4.435-1.097-4.832-4.581-1.196m-116.905 1.82c-5.058 8.053-5.043 7.813-.603 9.816 2.207.994 4.223 2.151 4.482 2.569.52.842-2.475 8.892-3.31 8.892C24.651 74 18 71.576 18 70.991 18 69.114 20.314 64 21.164 64c.532 0 1.797.444 2.812.987C26.001 66.071 25.668 70 23.55 70c-1.968 0-2.616-1.215-1.419-2.658.7-.844.737-1.342.098-1.342-1.627 0-2.422 3.261-1.013 4.155 2.298 1.458 3.814.895 4.837-1.794.552-1.451.878-2.744.725-2.873-.153-.128-1.706-.959-3.451-1.847l-3.172-1.612-1.731 4.532c-1.015 2.655-1.357 4.87-.828 5.349 1.056.954 7.176 3.09 8.856 3.09.95 0 4.57-8.029 4.553-10.098-.003-.329-1.805-1.41-4.005-2.402s-4-2.251-4-2.797 1.212-2.909 2.694-5.251l2.694-4.258 3.556 2.612c1.956 1.437 3.704 2.705 3.886 2.817s-.47 1.48-1.447 3.04a637 637 0 0 0-1.951 3.124c-.297.492-5.434-2.074-5.4-2.698.017-.324.606-1.344 1.307-2.267.922-1.212 1.677-1.399 2.719-.674 1.104.769 1.148 1.124.186 1.514-.691.28-.985.947-.654 1.483.338.547 1.175.192 1.907-.81 1.116-1.526 1.011-1.992-.729-3.21-1.835-1.285-2.214-1.19-3.879.975-1.014 1.32-1.855 2.726-1.867 3.124-.02.651 5.22 3.776 6.33 3.776.454 0 4.648-6.775 4.648-7.509 0-.217-2.012-1.779-4.47-3.47l-4.47-3.076zm99.298-.183c11.657 6.28 21.283 17.625 25.828 30.437 1.418 3.997 2.096 5.168 1.749 3.023-1.073-6.655-7.379-17.681-13.856-24.227-5.322-5.379-16.617-12.822-19.347-12.75-.473.012 2.059 1.595 5.626 3.517m42.264-.441c-2.338 1.656-4.25 3.221-4.25 3.477 0 .366 4.172 7.183 5.73 9.363.173.241 2.349-.551 4.837-1.759l4.523-2.198 1.933 4.259c1.063 2.343 1.943 4.75 1.955 5.351.018.881-6.097 3.408-8.246 3.408-.817 0-2.774-6.123-2.236-6.994 1.104-1.786 4.558-1.774 5.517.018C178.4 69.617 178.27 70 176 70c-1.1 0-2-.525-2-1.167 0-.641-.236-.931-.524-.643-.287.288-.258 1.213.065 2.056.589 1.534 3.982 1.335 4.987-.292.66-1.068-1.6-5.954-2.754-5.954-.783 0-4.666 1.762-5.593 2.538-.176.147.245 2.151.934 4.453 1.122 3.744 1.524 4.131 3.82 3.67 4.402-.884 8.065-2.565 8.065-3.701 0-1.868-4.203-10.96-5.066-10.96-.451 0-2.481.98-4.51 2.178-3.63 2.141-3.715 2.145-5.134.25-.793-1.061-2.03-3.053-2.749-4.428-1.228-2.351-1.077-2.661 2.524-5.203l3.83-2.703 2.168 3.508c2.105 3.406 2.114 3.549.303 4.921-2.393 1.812-2.849 1.805-4.408-.073-1.062-1.281-.997-1.84.378-3.214 1.552-1.553 1.664-1.549 1.664.05 0 .943.466 1.714 1.035 1.714.7 0 .686-.652-.042-2.013-.869-1.625-1.454-1.811-3.035-.965-2.302 1.232-2.435 2.764-.465 5.366 1.261 1.665 1.786 1.739 4.468.628 1.671-.692 3.039-1.775 3.039-2.405 0-1.01-4.734-8.681-5.286-8.566-.118.024-2.126 1.399-4.464 3.054m-117.521-.967C47.527 52.364 47.399 57 49.566 57c.861 0 2.436-.466 3.5-1.035 1.35-.723 1.934-.713 1.934.031 0 .587-.675 1.326-1.5 1.642-1.914.735-1.953 2.362-.057 2.362s4.552-3.849 3.875-5.615c-.654-1.702-4.485-1.818-6.118-.185-.66.66-1.2.822-1.2.36s.743-1.383 1.651-2.047c2.068-1.512.423-2.693-1.922-1.381M78.5 82l-20.982 21h21.948l10.267 10.232L100 123.464l10.342-10.307c9.311-9.279 10.661-10.275 13.527-9.982 3.163.323 3.093.416-10.34 13.81l-13.526 13.484-10.768-10.734C78.757 109.289 78.347 109 73.988 109h-4.48l15.247 15.246 15.246 15.247 21.247-21.247L142.494 97h-21.96l-10.267-10.232L100 76.536 89.658 86.843c-9.311 9.279-10.661 10.275-13.527 9.982-3.163-.323-3.093-.416 10.34-13.81l13.526-13.484 10.768 10.734C121.237 90.705 121.655 91 126.004 91h4.471L115.5 76c-8.236-8.25-15.21-15-15.496-15-.287 0-9.964 9.45-21.504 21m-63.114-6.563c-.348.907-.352 1.93-.01 2.273.343.343.624-.127.624-1.043 0-1.982.162-1.998 5.134-.509 2.841.851 3.885 1.713 3.936 3.25.069 2.051.087 2.052.881.092.652-1.607.273-2.235-1.93-3.196-5.433-2.37-7.961-2.624-8.635-.867M178 75.585c-3.352 1.372-1.581 1.287 3.686-.177 1.892-.526 2.279-.11 2.882 3.102.501 2.671.309 3.958-.686 4.598-2.201 1.417-4.355.561-4.702-1.868-.385-2.703 2.437-3.145 3.131-.49.344 1.317.486 1.193.573-.5.091-1.764-.424-2.25-2.384-2.25-1.93 0-2.497.513-2.485 2.25.027 3.923 1.422 5.078 5.264 4.357l3.497-.656-.929-4.138c-1.476-6.568-1.759-6.72-7.847-4.228m-4.269 3.495c.354 1.352.807 1.806 1.057 1.057.24-.722-.038-1.787-.62-2.369-.742-.742-.872-.351-.437 1.312m-155.716.67c.009.999.336 1.321.762.75.41-.55 1.154-1.338 1.651-1.75s.155-.75-.761-.75c-.927 0-1.66.777-1.652 1.75m17.686-1.118c-1.182 1.182-.779 4.124.64 4.668 2.015.774 3.903-.796 3.496-2.908-.371-1.926-2.895-3-4.136-1.76m125 0c-1.182 1.182-.779 4.124.64 4.668 2.015.774 3.903-.796 3.496-2.908-.371-1.926-2.895-3-4.136-1.76M14.079 80.583c.048 1.165.285 1.402.604.605.289-.722.253-1.585-.079-1.917s-.568.258-.525 1.312M21.71 81c-.287 1.1-.115 2 .384 2 .498 0 .906-.9.906-2s-.173-2-.383-2-.619.9-.907 2m-4.695 2.25c-.01 1.176.723 1.724 2.235 1.671q2.254-.078.75-.65c-.825-.314-1.831-1.066-2.235-1.671-.453-.678-.74-.429-.75.65m6.985.167c0 .779-.562 1.643-1.25 1.921-.747.301-.545.536.5.583 1.11.05 1.75-.653 1.75-1.921 0-1.1-.225-2-.5-2s-.5.638-.5 1.417M175.158 84c0 1.375.227 1.938.504 1.25.278-.687.278-1.812 0-2.5-.277-.687-.504-.125-.504 1.25m-162.042.656c-.099 1.849.588 2.253 4.827 2.836 4.622.636 4.969.886 5.34 3.844.391 3.118.399 3.111.557-.457.16-3.613.148-3.623-4.772-4.276-3.466-.459-5.066-1.166-5.384-2.378-.346-1.322-.479-1.221-.568.431M94 91.5 88.568 97h22.864L106 91.5c-2.987-3.025-5.687-5.5-6-5.5s-3.013 2.475-6 5.5m85-4.42c-2.843.663-2.532.728 1.659.346 3.608-.329 5.313-.088 5.671.802.317.786.542.604.591-.478.086-1.916-1.872-2.081-7.921-.67M12 94v5h5.5c4.602 0 5.487-.286 5.421-1.75-.047-1.045-.282-1.247-.583-.5-.297.735-2.324 1.25-4.921 1.25H13v-4c0-3.778.167-4 3-4 2.51 0 3 .397 3 2.43 0 1.726-.653 2.557-2.25 2.864-1.929.372-1.858.453.5.57 2.502.124 2.75-.179 2.75-3.364 0-3.417-.095-3.5-4-3.5h-4zm168.75-4.294c2.716.523 3.296 5.294.643 5.294-1.018 0-1.396-.55-1.031-1.5.316-.825.139-1.5-.393-1.5-.533 0-.969.9-.969 2 0 1.467.667 2 2.5 2 2.19 0 2.5-.433 2.5-3.5 0-3.185-.248-3.488-2.75-3.364-2.358.117-2.429.198-.5.57m-27.542 9.439c-.508 23.583-12.64 41.68-33.765 50.364-3.268 1.344-5.216 2.454-4.327 2.467 4.017.059 16.626-7.569 22.999-13.914 11.23-11.18 16.184-23.603 15.632-39.202l-.332-9.36zM176 92.5c0 1.375.173 2.5.383 2.5s.599-1.125.862-2.5.09-2.5-.384-2.5c-.473 0-.861 1.125-.861 2.5m11 1.448v3.947l-5.25.368-5.25.367 5.75.185L188 99v-4.5c0-2.475-.225-4.5-.5-4.5s-.5 1.776-.5 3.948m-172-.889c0 .582.45.781 1 .441s1-.816 1-1.059S16.55 92 16 92s-1 .477-1 1.059m161.999 7.691c0 .412 2.25.594 5 .403l5.001-.346v4.663c0 4.497-.098 4.652-2.75 4.346-2.373-.273-2.749-.761-2.74-3.566.005-1.787-.333-3.25-.75-3.25-.418 0-.76 1.566-.76 3.481 0 2.878.433 3.589 2.498 4.108 4.365 1.095 5.502-.053 5.502-5.558V100h-5.5c-3.025 0-5.5.338-5.501.75m-164.824 5 .174 4.75.383-4.25.383-4.25h4.359c2.552 0 4.568.518 4.864 1.25.301.747.536.545.583-.5.066-1.464-.819-1.75-5.421-1.75H12zm34.077.75c.011 2.2.216 2.982.455 1.738s.23-3.044-.02-4-.446.062-.435 2.262m48.009 2.239 5.739 5.739 5.739-5.739 5.739-5.739H88.522zM16 107.625c0 3.527.085 3.608 3.125 3 1.719-.344 3.519-.625 4-.625s.823-1.013.759-2.25c-.079-1.525-.257-1.719-.554-.603-.376 1.417-3.082 2.794-5.58 2.839-.413.008-.75-1.111-.75-2.486 0-1.63.56-2.5 1.607-2.5 1.018 0 1.396.55 1.031 1.5-.316.825-.139 1.5.393 1.5.533 0 .969-.9.969-2 0-1.467-.667-2-2.5-2-2.207 0-2.5.425-2.5 3.625M183.429 106c0 1.1.353 2 .785 2s.786-.9.786-2-.354-2-.786-2-.785.9-.785 2m-7.177 2.5c.011 2.2.216 2.982.455 1.738s.23-3.044-.02-4-.446.062-.435 2.262m-143.437-1.636c.723.459 2.41.624 3.75.368 1.96-.374 2.435-.052 2.435 1.651 0 2.159-2.42 2.95-3.342 1.092-.279-.564-.392-.451-.25.25s1.121 1.275 2.175 1.275c1.348 0 2.011-.817 2.233-2.75.303-2.626.122-2.749-4-2.735-2.693.01-3.822.329-3.001.849m127.335 1.886c-.122 2.633.23 3.25 1.85 3.25 1.268 0 1.971-.64 1.921-1.75-.047-1.045-.282-1.247-.583-.5-.862 2.135-2.186 1.378-2.622-1.5-.387-2.56-.427-2.525-.566.5m6.966.417c-.064 1.466-.678 2.893-1.366 3.171-.979.395-.972.521.031.583 1.587.098 2.544-2.203 1.92-4.613-.316-1.219-.507-.939-.585.859M13.079 112.25c-.088 1.957 1.371 2.1 7.421.727 3.792-.86 3.732-.882-1.159-.42-3.621.342-5.312.108-5.671-.785-.317-.786-.542-.604-.591.478m34 .333c.048 1.165.285 1.402.604.605.289-.722.253-1.585-.079-1.917s-.568.258-.525 1.312m134.275.392c2.12.409 4.251 1.37 4.735 2.135.715 1.128.883 1.081.896-.253.018-1.988-2.073-2.896-6.317-2.742-3.059.111-3.036.141.686.86m-156.713 5.13.543 4.605-4.31 1.094c-2.37.602-4.442.961-4.604.8-.162-.162-.401-2.052-.532-4.199-.217-3.562-.018-3.905 2.262-3.905 1.831 0 2.585.602 2.82 2.25.385 2.711-2.435 3.162-3.131.5-.334-1.278-.488-1.125-.573.57-.093 1.859.331 2.256 2.134 2 2.418-.344 3.398-3.338 1.865-5.702-.631-.973-1.932-1.187-4.396-.725l-3.499.656 1.23 4.726c1.065 4.088 1.56 4.704 3.673 4.566 1.344-.087 3.816-.762 5.494-1.5l3.05-1.341-1.284-4.5-1.285-4.5zm149.697.258-.998 4.364 5.051 1.615c2.778.889 5.367 1.288 5.752.887.386-.401.952-2.529 1.259-4.729l.558-4-1.23 4.077c-1.219 4.04-1.262 4.069-4.73 3.172-4.689-1.213-5.322-2.005-4.522-5.65.679-3.088 2.638-3.948 5.234-2.298 1.722 1.094.472 5.207-1.368 4.501-.802-.308-1.222-1.177-.933-1.931s.09-1.371-.442-1.371c-1.996 0-.919 3.78 1.237 4.344 2.632.688 2.401.899 3.228-2.964.576-2.689.35-3.205-1.633-3.736-4.629-1.24-5.434-.777-6.463 3.719M36 116c-2.01.644-2.108.806-.5.83 1.1.016 2.9-.357 4-.83 2.548-1.095-.081-1.095-3.5 0m12.055-.123c-.03.758 1.391 4.358 3.158 8 4.58 9.44 15.235 19.978 24.867 24.594 4.05 1.941 8.051 3.518 8.892 3.505s-1.045-1.082-4.191-2.375c-14.64-6.022-25.029-16.281-30.75-30.368-1.057-2.603-1.946-4.113-1.976-3.356m110.617-.216c-.369.37-.665 1.385-.657 2.256.012 1.249.194 1.302.862.248.64-1.009 1.485-.523 3.473 2 1.445 1.834 2.615 2.885 2.598 2.335-.047-1.599-5.535-7.58-6.276-6.839m6.407 2.922c.048 1.165.285 1.402.604.605.289-.722.253-1.585-.079-1.917s-.568.258-.525 1.312M34 119.441c0 .793.408 1.693.907 2.001.498.309.671-.34.383-1.441-.611-2.335-1.29-2.63-1.29-.56m124.865 6.098c1.85.804 3.65 1.445 4 1.426 1.301-.073-4.424-2.894-5.865-2.89-.825.002.014.661 1.865 1.464m11.806 3.81-2.372 5.151 3.6 2.245c1.981 1.234 4.051 2.408 4.601 2.608 1.058.384-1.979 6.97-3.98 8.63q-1.148.955-4.786-1.518l-3.637-2.471 1.701-2.991c1.868-3.282 2.421-3.492 5.238-1.984 1.613.864 1.732 1.397.777 3.492-.88 1.931-1.424 2.227-2.482 1.349-1.024-.85-1.078-1.46-.221-2.493.848-1.022.844-1.367-.019-1.367-2.134 0-2.498 3.229-.527 4.67 1.668 1.22 2.093 1.116 3.64-.894 2.482-3.225 2.239-4.194-1.498-5.976l-3.293-1.571-2.262 3.93-2.262 3.93 2.305 1.897c1.268 1.044 3.324 2.452 4.568 3.131 2.52 1.374 3.186.791 7.218-6.326l2.102-3.709-4.291-2.164c-2.36-1.19-4.457-2.312-4.66-2.493s.453-2.317 1.458-4.746l1.827-4.416 4.292 1.462c2.36.805 4.292 1.85 4.292 2.322 0 .685-1.821 5.456-2.573 6.74-.301.515-5.427-2.089-5.427-2.756 0-.357.563-1.401 1.25-2.321.899-1.203 1.671-1.397 2.75-.691 1.244.813 1.268 1.13.143 1.856-.835.538-.971 1.113-.355 1.494 1.86 1.149 2.408-2.753.575-4.093-2.423-1.772-2.879-1.634-4.202 1.271-1.615 3.544-1.502 3.977 1.386 5.292 3.769 1.718 4.283 1.505 5.94-2.461 2.225-5.327 1.989-5.844-3.466-7.588l-4.978-1.592zm-149.349-3.023c-1.748.646-3.495 1.495-3.881 1.888-.663.674 3.311 11.786 4.215 11.786.233 0 2.188-.9 4.344-2s4.276-1.997 4.71-1.992c.815.008 5.708 8.006 5.12 8.369-.182.112-1.95 1.395-3.931 2.851l-3.601 2.647-2.21-3.932-2.209-3.931 2.577-1.174c2.204-1.004 2.78-.897 3.976.738 1.039 1.421 1.099 2.101.233 2.652-1.809 1.151-2.489.919-2.865-.978-.191-.963-.634-1.295-.985-.739s-.078 1.776.606 2.712c1.112 1.52 1.467 1.544 3.355.221 2.023-1.417 2.042-1.6.449-4.374-1.624-2.831-1.729-2.861-4.693-1.356-1.668.847-3.199 1.688-3.403 1.868s.83 2.379 2.3 4.886l2.671 4.559 4.45-3.061c2.448-1.684 4.45-3.265 4.45-3.514s-1.231-2.655-2.735-5.349l-2.735-4.899-4.788 2.427-4.789 2.426-1.976-4.611C18.89 131.909 18 129.493 18 129.075c0-.766 7.96-3.486 8.47-2.894.152.175.975 1.695 1.829 3.377 1.529 3.01 1.509 3.076-1.269 4.125-2.5.943-2.943.803-3.867-1.225-.822-1.803-.72-2.414.479-2.874 2.292-.88 2.627-.726 1.996.916-.316.825-.139 1.5.393 1.5 1.264 0 1.256-2.705-.01-3.487-.539-.333-1.875-.126-2.97.46-1.738.93-1.842 1.412-.818 3.796.644 1.502 1.237 2.849 1.316 2.994s1.757-.411 3.73-1.235l3.585-1.498-1.682-4.005c-1.784-4.247-2.761-4.582-7.86-2.699m16.714.71c1.121 1.121 1.726 2.583 1.346 3.25-.38.668.728-.108 2.463-1.723S45 125.485 45 125.313 42.975 125 40.5 125H36zm1.602.464c.317.825.698 1.5.847 1.5.148 0 .83-.675 1.515-1.5 1.039-1.252.899-1.5-.846-1.5-1.448 0-1.914.461-1.516 1.5M46 132c0 .55-.866 1.866-1.925 2.925-1.9 1.9-1.877 1.918 1.75 1.358 4.333-.667 5.423-1.283 2.274-1.283-1.779 0-2.104-.407-1.599-2 .349-1.1.379-2 .067-2s-.567.45-.567 1m108.767 1.126c2.64 1.69 3.55 1.855 4.75.86.815-.677 1.483-1.712 1.483-2.3s-.609-.235-1.353.782c-1.272 1.74-1.496 1.751-3.723.192-1.303-.913-2.831-1.652-3.397-1.643s.443.958 2.24 2.109m-6.767 4.2c0 .86 4.136 7.674 4.658 7.674.253 0 .17-.47-.185-1.044s.079-2.149.964-3.5c1.189-1.816 1.277-2.46.336-2.47-.7-.007-2.285-.285-3.523-.616-1.238-.332-2.25-.352-2.25-.044m2.207 2.634c.859 1.375 1.443 1.607 1.956.777.402-.652.193-1.527-.466-1.945-2.113-1.344-2.748-.846-1.49 1.168m-101.015 3.115c.197.591.785 1.075 1.308 1.075s1.111-.484 1.308-1.075S51.417 142 50.5 142s-1.505.484-1.308 1.075m93.808.357c0 .237 1.463 1.442 3.25 2.677l3.25 2.246-2.424-2.677c-2.162-2.388-4.076-3.443-4.076-2.246M33.289 149.19l-4.211 3.111 1.863 2.599c1.025 1.43 3.038 3.696 4.473 5.035l2.609 2.435 3.286-3.185c1.807-1.752 3.743-3.185 4.302-3.185 1.278 0 6.401 5.285 6.353 6.555-.02.52-1.099 2.245-2.399 3.835l-2.363 2.89-3.101-2.208c-3.653-2.602-3.761-3.165-1.07-5.6 1.9-1.72 2.139-1.73 3.707-.162 1.391 1.391 1.45 1.89.344 2.933-1.064 1.004-1.424 1.005-1.79.007-.252-.687-.941-1.25-1.53-1.25s-.257.9.738 2.001c1.81 1.999 1.812 1.999 3.255-.062 1.279-1.825 1.243-2.283-.31-4-2.296-2.537-3.62-2.446-6.327.435l-2.23 2.374 4.194 3.59 4.193 3.589 3.442-4.507 3.442-4.508-4.33-3.876-4.329-3.877-3.813 3.67-3.814 3.671-3.436-3.735c-1.89-2.055-3.437-4.139-3.437-4.632s1.514-2.05 3.364-3.461l3.363-2.566 2.647 2.763 2.647 2.763-2.36 2.217c-2.084 1.957-2.509 2.039-3.623.697-.694-.836-.954-2.314-.578-3.283.636-1.642.787-1.625 2.201.237 1.453 1.913 1.504 1.916 1.179.083-.448-2.529-1.972-2.938-4.38-1.177-1.927 1.409-1.919 1.476.474 4.024l2.434 2.591 2.781-2.664 2.78-2.663-2.714-3.275c-1.493-1.801-2.94-3.289-3.215-3.307s-2.395 1.367-4.711 3.078m23.461-2.11c-.962.561-1.75 1.479-1.75 2.041s.707.315 1.571-.55c1.966-1.965 2.344-1.958 4.6.084 2.232 2.02 2.449 1.108.258-1.084-1.822-1.821-2.308-1.872-4.679-.491m81.821.491c-.864.865-1.571 2.183-1.571 2.929 0 1.293 2.592 4.5 3.637 4.5 1.292 0 4.363-2.186 4.363-3.107 0-.57-.727-.309-1.616.58-1.873 1.874-3.305 1.622-4.813-.845-.856-1.401-.597-2.142 1.29-3.691 1.298-1.065 1.893-1.937 1.321-1.937-.571 0-1.746.707-2.611 1.571m19.22 2.775-3.633 4.346 3.671 3.683 3.671 3.684-4 3.377c-4.328 3.654-4.951 3.549-8.504-1.441l-1.91-2.683 3.033-2.242c2.899-2.143 3.119-2.165 4.965-.494 1.806 1.634 1.824 1.868.272 3.583-1.254 1.386-1.986 1.563-2.997.724-1.536-1.274-.772-3.257.865-2.245.663.41.796.203.341-.532-1.327-2.148-3.728.722-2.509 2.999 1.277 2.386 2.135 2.378 5.083-.046l2.361-1.942-2.65-2.686-2.65-2.685-3.585 2.734-3.585 2.735 3.154 4.392c1.735 2.416 3.416 4.39 3.736 4.387.319-.004 2.749-1.866 5.399-4.137l4.819-4.131-3.764-3.855-3.764-3.855 2.945-3.253c1.62-1.789 3.037-3.422 3.149-3.628.112-.207 1.977.928 4.144 2.522l3.94 2.897-2.735 3.061c-2.72 3.044-2.748 3.05-5.062 1.177-2.127-1.723-2.19-2.021-.737-3.475.99-.99 2.281-1.323 3.418-.882 1.749.677 1.744.769-.113 2.136-1.068.786-1.46 1.429-.873 1.429.588 0 1.573-.607 2.188-1.348.854-1.029.644-1.778-.884-3.161-1.101-.997-2.117-1.627-2.257-1.402s-1.111 1.428-2.158 2.671c-1.882 2.235-1.877 2.289.435 4.75 1.286 1.37 2.672 2.49 3.08 2.49s2.134-1.758 3.836-3.906l3.094-3.907-4.207-3.093c-2.314-1.702-4.473-3.094-4.798-3.094s-2.226 1.956-4.224 4.346M55 151.902c0 1.038 1.902 2.541 2.466 1.948.183-.192-.297-.93-1.067-1.639-.769-.71-1.399-.849-1.399-.309m10.369.368c-.399.677-1.424 2.355-2.279 3.73-1.471 2.364-1.458 2.423.228 1.086 1.583-1.256 1.844-1.182 2.326.66.507 1.94.666 1.969 2.449.442 2.447-2.095 2.429-4.381-.047-5.927-1.539-.961-2.107-.959-2.677.009m.214 1.375c-.596 1.552.802 3.302 2.667 3.34 1.269.026.83-2.674-.633-3.888-1.075-.892-1.529-.77-2.034.548m23.417-.58c2.405.708 20.542 1.134 18.5.435-.55-.189-5.5-.529-11-.757s-8.875-.083-7.5.322m20.75-.403c.688.278 1.813.278 2.5 0 .688-.277.125-.504-1.25-.504s-1.937.227-1.25.504m19.5 1c-1.591.642-1.623 4.565-.05 6.138 3.202 3.202 7.861-.177 5.968-4.33-1.062-2.331-3.087-2.95-5.918-1.808m.112 1.838c-.885 2.305.358 4.5 2.548 4.5 2.475 0 3.403-1.438 2.587-4.009-.74-2.33-4.299-2.671-5.135-.491m-56.201 3.047c-1.694 3.717-1.436 5.148 1.045 5.797 2.851.745 3.593.044.869-.82-1.141-.362-2.075-1.289-2.075-2.06 0-.882.648-1.193 1.75-.838 1.355.436 1.439.341.372-.42-1.816-1.295-.538-3.272 1.66-2.568 1.459.468 1.492.388.218-.528-2.155-1.55-2.545-1.404-3.839 1.437m47.089-.885c-.687.278-1.25 1.367-1.25 2.421 0 1.356.659 1.883 2.25 1.801 1.693-.087 1.817-.229.5-.573-2.426-.634-2.187-2.2.5-3.28 1.237-.497 1.575-.897.75-.889s-2.062.243-2.75.52m-36.39 4.088c-2.877 3.473-4.095 5.25-3.601 5.25.277 0 1.705-1.575 3.173-3.5 2.725-3.572 3.055-4.921.428-1.75m7.809.024c.642.409 1.358 2.315 1.59 4.235l.421 3.491.16-3.677c.112-2.573.685-3.814 1.91-4.134.963-.251.175-.502-1.75-.558-1.925-.055-2.974.234-2.331.643m8.998-.107c-.367.366-.615 2.279-.551 4.25.064 1.97.317 2.823.562 1.893s1.655-1.874 3.134-2.1l2.688-.41-2.75-.15c-1.651-.09-2.75-.723-2.75-1.584 0-.796 1.223-1.618 2.75-1.85l2.75-.416-2.583-.15c-1.421-.083-2.884.15-3.25.517m23.902.445c.378.611.067 1.546-.691 2.076-1.133.793-1.111.891.122.555 1.774-.483 2.657-3.743 1.014-3.743-.622 0-.823.5-.445 1.112M86 163.417c0 .779-.454 1.568-1.01 1.753-.555.185-.19.848.811 1.474 1.627 1.016 1.775.83 1.396-1.754-.441-3.007-1.197-3.937-1.197-1.473m25.639-.723c-1.126 1.126-.685 2.306.861 2.306.825 0 1.5-.423 1.5-.941 0-1.261-1.562-2.164-2.361-1.365m28.503 2.325c-2.397 1.575-4.565 3.071-4.82 3.325s.47 2.288 1.608 4.519 2.07 4.316 2.07 4.633c0 1.062-9.321 4.584-10.028 3.789-1.224-1.375-2.969-7.481-2.401-8.4.301-.487.07-.885-.512-.885-1.412 0-1.343.809.535 6.322.877 2.573 1.989 4.678 2.471 4.678.483 0 3.352-1.094 6.375-2.431l5.496-2.431-2.582-4.621c-1.421-2.542-2.419-4.745-2.219-4.895.201-.151 2.065-1.297 4.143-2.547 4.169-2.508 5.063-2.203 7.944 2.706l1.723 2.934-3.543 1.892c-3.487 1.863-3.566 1.862-4.973-.048-1.904-2.587-1.805-3.305.562-4.056 3.02-.959 4.709.512 2.469 2.15-1.997 1.46-.816 1.859 1.382.466 1.12-.71 1.121-1.205.01-2.985-1.603-2.567-1.723-2.574-4.712-.275-2.288 1.76-2.31 1.911-.719 4.988 1.58 3.055 1.741 3.12 4.36 1.739 6.834-3.603 6.906-3.803 3.214-8.943-1.834-2.554-3.37-4.608-3.415-4.565s-2.041 1.366-4.438 2.941m-87.444 1.231c-4.094 5.536-4.093 5.544.946 8.739 2.611 1.656 5.266 3.011 5.9 3.011s1.964-1.8 2.956-4 2.176-4 2.632-4c1.662 0 8.868 3.239 8.868 3.986 0 1.025-2.934 8.014-3.364 8.014-.186 0-1.755-.494-3.487-1.098-3.095-1.079-3.942-3.105-2.348-5.614.945-1.487 5.199-.536 5.199 1.162 0 1.968-1.215 2.616-2.658 1.419-.844-.7-1.342-.737-1.342-.098 0 1.627 3.261 2.422 4.155 1.013 1.448-2.283.901-3.812-1.72-4.809-1.411-.536-2.749-.975-2.974-.975-.433 0-3.461 5.571-3.461 6.368 0 .89 8.851 3.842 9.786 3.264 1-.618 3.757-9.489 3.102-9.98-.213-.16-2.702-1.228-5.531-2.372l-5.143-2.08-1.781 3.948c-.979 2.172-2.146 4.175-2.593 4.451-.446.276-2.828-.679-5.291-2.123l-4.479-2.625 2.598-3.925c1.429-2.16 2.875-3.924 3.215-3.921s1.895 1.028 3.457 2.278c2.793 2.235 2.81 2.309 1 4.464-1.661 1.978-2.029 2.048-3.786.718-1.547-1.17-1.692-1.727-.709-2.71.984-.984 1.409-.962 2.072.11.458.742 1.085.941 1.393.442s-.297-1.442-1.345-2.097c-1.609-1.005-2.086-.852-3.068.983-.988 1.846-.826 2.446 1.081 3.99 1.234.999 2.632 1.817 3.107 1.817.754 0 3.915-5.129 3.915-6.352 0-.453-6.774-4.648-7.506-4.648-.216 0-1.474 1.463-2.796 3.25m50.052 2.412c.688.278 1.813.278 2.5 0 .688-.277.125-.504-1.25-.504s-1.937.227-1.25.504M130 170.5c-2.764 1.58-1.931 2.068.924.541 1.439-.77 2.027-.443 2.985 1.659.948 2.08.926 2.789-.108 3.444-1.981 1.257-3.525 1.018-4.163-.644-.367-.956.017-1.5 1.06-1.5.899 0 1.355-.281 1.012-.624s-1.315-.358-2.161-.033c-1.239.475-1.324 1.056-.44 2.997.988 2.169 1.386 2.299 3.994 1.315 1.593-.601 2.897-1.467 2.897-1.924 0-.865-2.883-6.758-3.276-6.696-.123.02-1.349.679-2.724 1.465m-53.685 4.121c-.309.806-.281 1.746.061 2.089.343.343.624-.085.624-.95 0-1.08.626-1.409 2-1.05 1.1.288 2 .298 2 .023 0-1.337-4.176-1.438-4.685-.112m41.185-.094-5 1.123.182 4.908c.106 2.874-.308 5.22-1 5.66-.777.494-.558.757.64.767 1.62.013 1.748-.578 1.153-5.338l-.669-5.354 3.847-.635c2.116-.35 4.338-.641 4.939-.647 1.082-.011 3.928 7.802 3.132 8.598-.228.228-2.156.522-4.285.653-3.56.219-3.923-.002-4.536-2.762-.603-2.714-.676-2.762-.769-.5-.184 4.457 1.162 5.436 6.025 4.381 3.784-.821 4.321-1.263 4.182-3.444-.087-1.377-.762-3.859-1.5-5.518l-1.341-3.014zm-34.249 1.162c1.343.352 1.598 1.08 1.096 3.134-.36 1.473-1.148 3.008-1.751 3.412-.674.451-.422.74.654.75 1.001.008 1.756-.734 1.764-1.735.007-.963.285-2.762.616-4 .506-1.887.222-2.231-1.763-2.134-1.696.083-1.871.246-.616.573m3.245 5.338-.691 5.027-3.653-.505c-2.96-.41-3.179-.339-1.152.373 5.051 1.775 5.702 1.383 6.397-3.861.617-4.646.846-4.962 3.879-5.34 3.222-.401 3.221-.401-.432-.561l-3.656-.16zM107 176.729c.825.314 1.831 1.066 2.235 1.671.453.678.74.429.75-.65.01-1.176-.723-1.724-2.235-1.671q-2.254.078-.75.65m-28.333.938c-1.391 1.39-.641 4.332 1.083 4.254 1.045-.047 1.247-.282.5-.583-2.166-.874-1.487-3.633.75-3.048 1.1.287 2 .115 2-.384 0-1.046-3.342-1.231-4.333-.239m19.18 4.332.346 5.001h-4.096c-3.886 0-4.097-.155-4.097-3 0-2.533.389-3 2.5-3 1.63 0 2.5.56 2.5 1.607 0 1.018-.55 1.396-1.5 1.031-.825-.316-1.5-.139-1.5.393 0 .533.9.969 2 .969 1.467 0 2-.667 2-2.5 0-2.175-.441-2.5-3.391-2.5-3.125 0-3.422.272-3.795 3.471-.462 3.95.339 4.529 6.268 4.529H99v-5.5c0-3.025-.338-5.5-.75-5.501-.412 0-.594 2.25-.403 5m3.153.501v5.5l4.25-.168 4.25-.168-3.842-.398-3.842-.398.342-4.934c.188-2.715.004-4.935-.408-4.935-.412.001-.75 2.476-.75 5.501m-26.422-1.954c-.771 3.072-.04 4.494 2.231 4.338 1.463-.1 1.446-.179-.12-.585-1.429-.37-1.676-1.084-1.17-3.384.786-3.579-.053-3.908-.941-.369m44.172-1.89c2.665.572 2.997 3.002.5 3.655-1.278.334-1.125.488.57.573 1.859.093 2.256-.331 2-2.134-.226-1.591-1.052-2.298-2.82-2.414-2.203-.144-2.233-.106-.25.32M104 181.5c0 2.19.433 2.5 3.5 2.5 2.997 0 3.483-.323 3.384-2.25-.087-1.693-.229-1.817-.573-.5-.596 2.281-5.311 2.408-5.311.143 0-1.018.55-1.396 1.5-1.031.825.316 1.5.139 1.5-.393 0-.533-.9-.969-2-.969-1.467 0-2 .667-2 2.5"/></svg>