<svg xmlns="http://www.w3.org/2000/svg" width="40" height="40" fill="#000000"><path fill="#000000" fill-rule="evenodd" d="M22.614 7.795c-1.504 3.318-3.535 7.55-4.05 8.436-.296.51-.306.505-2.776-1.427-3.482-2.722-5.267-3.98-5.403-3.81l-.494.605c-2.125 2.597-3.034 3.882-2.857 4.037.03.026.583.36 1.227.742 2.61 1.546 4.336 2.671 6.508 4.245l.787.57-.029.256c-.054.49-.524 1.358-4.61 8.53-2.871 5.042-3.166 5.542-4.328 7.34-1.1 1.701-1.641 2.613-1.585 2.67.054.055.661-.098 1.272-.32 1.338-.486 3.04-1.727 4.666-3.403.951-.98 1.195-1.281 3.746-4.634 1.915-2.516 4.672-6.301 4.935-6.622l.183-.223.935.627c.7.47 6.996 5.302 11.54 7.944 1.91 1.112 3.483 1.892 3.592 1.782.04-.04-.223-.975-.532-1.895-.604-1.801-3.435-5.36-6.01-7.554-.53-.452-2.334-1.983-4.009-3.401-3.412-2.891-3.22-2.667-2.873-3.363.647-1.298 8.261-13.868 10.027-16.552.499-.76.916-1.398.927-1.42.01-.022-.215-.074-.501-.115-.287-.042-1.53-.23-2.762-.42-1.233-.19-2.603-.362-3.045-.382L26.29 0l-1.015 2.08a286.963 286.963 0 0 0-2.662 5.715Z" clip-rule="evenodd"/></svg>