<svg xmlns="http://www.w3.org/2000/svg" width="200" height="200" fill="#000000"><path fill-opacity=".122" fill-rule="evenodd" d="M83.74 1.515C44.179 9.012 13.511 37.857 3.776 76.726 2.017 83.749 1.579 88.394 1.579 100c0 18.202 2.182 27.82 9.897 43.626 13.514 27.685 36.194 46.056 66.149 53.582 7.295 1.833 11.546 2.219 23.875 2.172 12.923-.05 16.367-.423 24.872-2.692 35.177-9.388 62.405-36.702 71.219-71.447 2.04-8.042 2.408-11.892 2.402-25.119-.009-19.594-1.863-28.155-9.48-43.766-13.257-27.169-36.718-46.239-65.719-53.419C113.736.2 94.244-.476 83.74 1.515"/><path fill-opacity=".442" fill-rule="evenodd" d="M84.343 60.379C71.736 75.217 72.251 75 49.614 75H31v38h100v11.979l-43.25.26-43.25.261v24l32.634.264 32.634.263 8.697-10.044c4.784-5.524 9.876-10.817 11.317-11.763 2.167-1.422 5.916-1.807 21.669-2.22l19.049-.5v-37l-49.75-.259-49.75-.26V76.022l41.25-.261 41.25-.261v-25l-30.157-.265-30.157-.264z"/><path fill-opacity=".576" fill-rule="evenodd" d="M84.102 61.037c-5.168 6.085-10.658 11.717-12.2 12.514C69.752 74.663 64.811 75 50.681 75H32.262l-.62 3.75c-.341 2.063-.625 10.612-.631 19L31 113h100.095l-.297 6.25-.298 6.25-42.487.063-42.488.064-.804 4.796c-.442 2.638-.673 8.01-.513 11.937l.292 7.14 32.51.263 32.51.264 8.982-10.613c4.94-5.837 10.201-11.243 11.691-12.014 2.034-1.052 7.295-1.4 21.15-1.4 15.895 0 18.527-.219 19.05-1.582.334-.87.607-9.122.607-18.339V89.322l-28.663-.661C126.573 88.297 104.051 88 92.29 88H70.905l.297-6.25.298-6.25 41-.5 41-.5v-24l-30-.264-30-.263z"/><path fill-opacity=".471" fill-rule="evenodd" d="M83.468 61.794c-7.027 8.199-11.071 12.086-13.5 12.973-2.541.928-8.037 1.116-20.559.705l-17.09-.562-.66 18.211c-.363 10.017-.43 18.441-.15 18.721s18.167.463 39.75.406 43.966.202 49.741.574l10.5.678.32 3.905c.175 2.147.054 4.96-.269 6.25l-.589 2.345H44.937l.281 11.75.282 11.75 31.5.243c17.325.133 31.961-.092 32.525-.5s5.208-5.581 10.32-11.493a8629 8629 0 0 1 9.475-10.946c.099-.108 9.18-.446 20.18-.75l20-.554.795-16.911c.438-9.301.564-17.514.282-18.25-.42-1.093-9.473-1.339-49.346-1.339-36.646 0-49.13-.299-50.031-1.2-.66-.66-1.2-3.098-1.2-5.418C70 74.375 66.447 75 111.971 75h40.757l.636-4.64c.35-2.551.636-7.903.636-11.893 0-5.691-.341-7.384-1.582-7.86-.87-.334-14.482-.587-30.25-.563l-28.668.044z"/></svg>