<svg width="283" height="301" viewBox="0 0 283 301" fill="#000000" xmlns="http://www.w3.org/2000/svg">
<path d="M103.595 229.069L68.1856 296.445L66.3105 300.004H141.313L103.812 228.66L103.595 229.069Z" fill="#000000"/>
<path d="M30.2342 188.925L28.8091 184.559L27.0007 190.117L0 273.253C5.12656 281.444 12.2529 288.197 20.7086 292.875C29.1642 297.554 38.6711 300.004 48.3347 299.995H66.3352L65.5018 297.37L30.2342 188.925Z" fill="#000000"/>
<path d="M179.03 229.061L178.814 228.645L141.312 299.988H216.315L214.439 296.43L179.03 229.061Z" fill="#000000"/>
<path d="M253.807 184.559L252.382 188.925L217.156 297.37L216.323 299.995H234.323C243.987 300.004 253.494 297.554 261.949 292.875C270.405 288.197 277.531 281.444 282.658 273.253L255.649 190.109L253.807 184.559Z" fill="#000000"/>
<path d="M103.595 70.9353L103.812 71.352L141.313 0H66.3105L68.1856 3.55843L103.595 70.9353Z" fill="#000000"/>
<path d="M179.03 70.9353L214.439 3.55843L216.315 0H141.312L178.814 71.3436L179.03 70.9353Z" fill="#000000"/>
<path d="M28.8091 115.437L30.2342 111.07L65.4601 2.6251L66.3102 2.26311e-05H48.3347C38.6711 -0.0085906 29.1642 2.44153 20.7086 7.11983C12.2529 11.7981 5.12656 18.5508 0 26.7424L27.0091 109.886L28.8091 115.437Z" fill="#000000"/>
<path d="M252.382 111.07L253.807 115.437L255.616 109.878L282.625 26.7341C277.499 18.5464 270.374 11.7969 261.922 7.12022C253.47 2.44354 243.967 -0.00665545 234.307 1.35776e-05H216.306L217.14 2.62509L252.382 111.07Z" fill="#000000"/>
</svg>
