<svg xmlns="http://www.w3.org/2000/svg" width="200" height="200" fill="#000000"><path fill-opacity=".086" fill-rule="evenodd" d="M81.928 6.498c-6.364 1.261-15.06 3.689-19.323 5.396C35.698 22.669 14.424 47.495 6.388 77.5c-2.633 9.831-2.618 34.974.028 45 9.683 36.7 37.649 63.416 75.025 71.673 11.697 2.585 30.061 2.133 42.059-1.035 10.06-2.655 26.017-10.473 34.5-16.902 17.78-13.475 30.747-33.648 35.816-55.719 2.55-11.102 2.22-32.785-.661-43.517-2.537-9.449-9.244-24.362-14.187-31.547-14.201-20.639-36.827-34.935-63.218-39.941-10.707-2.031-19.958-1.761-33.822.986M77.5 24.487C58.65 29.599 40.303 44.338 31.117 61.75c-1.022 1.937-.939 2.249.598 2.244 1.08-.003 4.223-3.331 7.956-8.423 9.47-12.918 23.614-22.968 38.944-27.672 5.061-1.553 7.05-2.61 6.687-3.554-.621-1.619-1.357-1.605-7.802.142M45.5 28c-2.438 2.694.056 2.694 3.5 0 2.377-1.859 2.397-1.957.405-1.978-1.152-.012-2.91.878-3.905 1.978m28.733 5.386c-14.363 5.826-25.802 14.917-33.518 26.64-2.724 4.139-3.766 6.959-4.27 11.56l-.666 6.086 5.019 4.94 5.019 4.941 1.204-4.027c3.253-10.877 10.903-21.313 21.056-28.72 6.873-5.015 6.906-5.062 6.288-8.924-.437-2.735-.259-3.882.605-3.882 1.269 0 10.981-9.922 11.012-11.25.035-1.481-3.619-.661-11.749 2.636m10.55 2.364c-.839.962-2.108 2.875-2.818 4.25-1.105 2.137-1.087 2.33.121 1.327C83.559 40.104 87.413 34 86.712 34c-.221 0-1.089.788-1.929 1.75m44.554 2c2.639 4.191 4.319 8.897 5.182 14.516.411 2.681 2.169 5.551 6.1 9.956 7.29 8.17 12.83 19.839 14.279 30.078 3.623 25.587-11.137 50.473-35.398 59.683-7.398 2.809-23.233 3.837-31.774 2.064-15.062-3.127-30.133-14.997-37.203-29.304l-3.761-7.609-6.184-.663c-3.401-.364-7.156-.506-8.345-.316l-2.161.345 2.392 6.821c8.735 24.903 30.212 42.994 56.036 47.2 36.761 5.987 71.474-16.985 81.181-53.724 2.231-8.442 2.213-25.197-.035-33.797-3.793-14.509-13.042-29.184-23.961-38.019C140.379 40.688 129.363 34 127.597 34c-.342 0 .441 1.688 1.74 3.75m48.76 20.44c1.175 2.304 3.187 6.916 4.471 10.25l2.334 6.06.049-4.282c.056-4.903-2.078-10.66-5.173-13.954-3.302-3.515-4.031-2.681-1.681 1.926M74.624 56.539c-.965 2.514-.681 3.163.498 1.136.584-1.004.851-2.036.593-2.293-.257-.258-.749.263-1.091 1.157M48.813 92.683c.721.289 1.584.253 1.916-.079s-.258-.568-1.312-.525c-1.165.048-1.402.285-.604.604m4.437 1.006c.962.252 2.538.252 3.5 0 .962-.251.175-.457-1.75-.457s-2.712.206-1.75.457m-30.817 22.807c1.054 5.619 3.316 12.078 6.655 19.004 3.283 6.81 9.424 15.5 10.953 15.5 2.396 0 1.866-3.105-1.222-7.16-3.855-5.061-9.577-17.079-11.245-23.618-.708-2.775-2.072-5.141-3.518-6.101l-2.363-1.568zM54 115c-1.959.627-2.067.797-.5.782 1.1-.01 3.35-.362 5-.782 2.695-.686 2.746-.765.5-.782-1.375-.01-3.625.342-5 .782m-29.436 18.293c.376.986.935 1.541 1.243 1.233s.001-1.114-.683-1.793c-.988-.98-1.102-.865-.56.56m-2.012 11.457c4.644 8.047 8.963 13.46 16.606 20.815 8.692 8.364 15.269 13.009 22.818 16.115 8.894 3.659 8.938 2.662.078-1.773-9.885-4.948-22.082-14.034-27.636-20.589-2.246-2.65-6.249-8.08-8.897-12.068-5.475-8.245-7.051-9.572-2.969-2.5m8.412.086c.659 1.284 1.472 2.061 1.807 1.726.336-.335-.203-1.386-1.197-2.336-1.728-1.65-1.755-1.623-.61.61m30.961 2.754c-.632.762-.896 2.042-.588 2.846.363.945.084 1.279-.787.945-2.07-.794-2.978 1.619-1.258 3.34.841.841 2.613 1.529 3.937 1.529 1.84 0 2.803.913 4.086 3.875.924 2.131 1.993 3.875 2.377 3.875s1.961-1.209 3.503-2.687L76 158.626v2.58c0 4.635 7.17 5.475 8.918 1.044 1.013-2.567 1.049-2.501.538 1-.474 3.253-.285 3.75 1.429 3.75 1.254 0 2.134-.822 2.409-2.25.372-1.929.453-1.858.57.5.125 2.522.47 2.75 4.161 2.75 3.4 0 4.176-.398 5-2.565 1.716-4.513-1.277-7.237-8.025-7.303-2.188-.022-4.318-.574-5.817-1.51-1.52-.949-1.401-1.045-3.605 2.878l-1.687 3 .479-3.672c.533-4.09-1.573-6.021-3.313-3.036-.872 1.495-1 1.425-1.027-.563-.04-3.044-4.36-5.129-7.091-3.423-2.65 1.655-3.743 1.503-1.418-.198 1.556-1.138 1.676-1.665.658-2.892-1.798-2.167-4.923-2.73-6.254-1.126m74.957-.84a6 6 0 0 0-.04 1.382c.044.348-.69.573-1.631.5-1.072-.083-1.657.535-1.566 1.653.108 1.33-.178 1.518-1.118.738-.904-.751-1.617-.619-2.517.465-.69.831-2.074 1.512-3.076 1.512-1.001 0-2.485.949-3.297 2.108s-1.974 1.802-2.581 1.426c-.608-.375-2.444-.388-4.08-.029-2.129.468-3.009 1.272-3.092 2.824-.09 1.692-.217 1.785-.573.421-.576-2.201-4.61-2.308-6.74-.179-3.414 3.415-.82 8.811 3.974 8.265 2.377-.271 3.051-.915 3.494-3.336l.549-3 .725 2.75c.833 3.158 2.139 3.52 3.607 1 .566-.971 1.033-1.194 1.05-.5.035 1.47.978 1.569 2.966.311 1.19-.753 1.211-1.178.127-2.485-.797-.96-.892-1.576-.244-1.576.584 0 1.341.45 1.681 1 1.886 3.051 9.107-.57 8.183-4.103-.432-1.653-.282-1.681 1.782-.328 1.897 1.243 2.432 1.261 3.385.112.623-.751.867-1.631.542-1.955s.304-.357 1.396-.071c2.933.767 3.451-1.018 1.622-5.589-1.41-3.523-4.176-5.549-4.528-3.316M34 148.721C34 150.135 45.958 163 47.273 163c.602 0-1.135-2.137-3.86-4.75s-5.957-6.048-7.184-7.635c-1.226-1.587-2.229-2.439-2.229-1.894m36 7.779c0 .825.402 1.5.893 1.5s1.152-.675 1.469-1.5c.35-.914.001-1.5-.893-1.5-.808 0-1.469.675-1.469 1.5m56.679.211c-.301.486-.183 1.474.262 2.194.615.994.986 1.022 1.547.115.406-.657.288-1.644-.262-2.194-.56-.56-1.241-.61-1.547-.115m-77.246 8.18c.713 1.154 4.567 3.483 4.567 2.759 0-.231-1.18-1.193-2.623-2.139s-2.318-1.224-1.944-.62m103.71 6.049c-7.94 5.742-8.135 6.06-3.725 6.06 3.101 0 4.546-.728 7.7-3.882 6.929-6.93 4.462-8.281-3.975-2.178M58 170.43c0 .275.9.981 2 1.57s2 .845 2 .57-.9-.981-2-1.57-2-.845-2-.57"/><path fill-opacity=".425" fill-rule="evenodd" d="M92 5.118c-2.239.396.103.712 6.5.878 5.5.143 10.9.37 12 .506 1.1.135 4.7.511 8 .835l6 .589-5.5-1.445c-5.987-1.573-21.406-2.351-27-1.363m-7.187 1.565c.721.289 1.584.253 1.916-.079s-.258-.568-1.312-.525c-1.165.048-1.402.285-.604.604M81 13.635c-4.125.876-11.325 1.707-16 1.847-9.514.285-11.628.939-19.667 6.082C17.95 39.081.863 76.399 4.813 110.062c5.243 44.689 39.579 79.302 84.321 85.004 28.15 3.587 57.95-7.08 78.907-28.246 34.406-34.749 36.811-88.068 5.759-127.695-7.293-9.308-22.628-21.337-28.954-22.713-1.29-.281-5.159-.494-8.597-.473-3.438.02-9.063-.654-12.5-1.499-9.438-2.32-33.482-2.773-42.749-.805m6.5 2.788c-.55.207-4.322 1.141-8.382 2.075-9.241 2.126-24.738 9.885-32.618 16.331-11.784 9.639-22.413 25.704-27.137 41.015-3.066 9.934-3.045 10.393.387 8.603 1.512-.789 3.361-1.437 4.107-1.441.889-.004 1.118-.61.665-1.756-.381-.963-.926-3.143-1.213-4.845C22.404 71.021 27.528 64 32.362 64c1.055 0 2.554-.788 3.333-1.75 1.296-1.602 1.33-1.573.407.347-.695 1.446-.67 2.435.082 3.187.781.781.789 2.282.027 5.282-1.361 5.364-.545 7.29 5.615 13.242 4.802 4.64 5.306 4.862 14.454 6.384C66.989 92.472 73 91.92 73 89.155c0-.965.537-2.292 1.193-2.948.925-.925.615-1.815-1.377-3.95-6.75-7.237-6.397-13.67 1.743-31.757.788-1.75.953-3.139.396-3.333-1.972-.689-.913-4.233 1.545-5.167 1.375-.523 2.5-1.326 2.5-1.785s2.075-3.283 4.612-6.275c5.434-6.409 10.867-8.839 19.888-8.893 7.959-.048 13.032 1.462 18.596 5.534 5.498 4.023 10.167 12.234 11.896 20.919.948 4.761 2.052 6.928 5.351 10.495 3.978 4.302 3.995 4.347.398 1.046l-3.759-3.451.619 4.516c.962 7.019-1.21 15.456-5.083 19.742l-3.299 3.652 2.713 3.25c1.822 2.182 3.594 3.25 5.391 3.25 1.494 0 3.45.926 4.427 2.096.963 1.152 4.438 4.727 7.723 7.944s5.647 6.173 5.25 6.571-.723.171-.723-.503-.338-1.017-.75-.762c-.413.255-2.101-.641-3.75-1.992-9.087-7.438-10.142-7.855-3.19-1.262l7.81 7.408-1.736 4.992c-5.032 14.466-16.304 25.988-31.615 32.316-9.15 3.783-25.942 4.352-35.712 1.21-8.092-2.602-7.564-1.253-9.188-23.472-.605-8.275-1.425-15.4-1.822-15.833s-1.807-.386-3.134.103c-4.972 1.836-8.11 2.311-7.372 1.117.47-.76.077-.972-1.166-.627-1.031.285-3.674.825-5.873 1.198-2.198.374-4.248 1.085-4.554 1.58-.681 1.102-22.26-.805-26.275-2.322-3.288-1.243-5.954-4.844-5.514-7.449.169-.997-.52-2.938-1.529-4.313-1.825-2.484-1.833-2.449-1.296 5.5 1.987 29.401 21.478 56.957 49.166 69.513 20.83 9.446 48.296 9.447 69.123.004 23.935-10.853 41.287-31.829 47.391-57.291 2.681-11.181 2.709-28.621.063-38.816-6.855-26.415-21.775-44.897-45.577-56.461-12.902-6.268-18.806-7.646-34.5-8.053-7.425-.193-13.95-.181-14.5.027M45.048 26.449C42.754 28.891 42.797 32 45.124 32c.653 0 2.714-1.165 4.581-2.588 2.725-2.079 3.163-2.867 2.222-4-1.743-2.1-4.293-1.716-6.879 1.037M92.5 29.393C87.999 31.365 78.693 42 81.468 42c.258 0 2.265-2.432 4.461-5.403 2.959-4.006 5.101-5.796 8.281-6.921 2.36-.835 3.615-1.536 2.79-1.558s-2.85.552-4.5 1.275M54.872 40.75c-1.243 1.586-1.208 1.621.378.378.962-.755 1.75-1.543 1.75-1.75 0-.823-.821-.294-2.128 1.372m-7.443 6.5c-4.816 5.054-10.484 11.829-7.321 8.75 3.56-3.466 13.162-14 12.76-14-.24 0-2.687 2.362-5.439 5.25M74.12 58.482c-1.709 4.724-3.336 10.485-3.614 12.803-.447 3.713-.336 3.56.928-1.285.79-3.025 2.608-8.595 4.04-12.377 1.433-3.783 2.413-7.069 2.179-7.303s-1.824 3.439-3.533 8.162M173 52.515c0 .283 1.306 2.871 2.901 5.75 1.596 2.879 4.159 8.509 5.697 12.51 2.18 5.675 2.997 6.914 3.713 5.635 1.408-2.517.287-11.632-1.967-16C181.031 55.928 173 49.799 173 52.515M60.946 61.75 57.5 65.5l3.75-3.446C64.74 58.846 65.46 58 64.696 58c-.167 0-1.854 1.688-3.75 3.75m86.618 12.543c.376.986.935 1.541 1.243 1.233s.001-1.114-.683-1.793c-.988-.98-1.102-.865-.56.56M48.595 92.944c.498.469 4.159 1.026 8.137 1.236 3.977.211 6.902.089 6.5-.271-1.107-.99-15.681-1.951-14.637-.965m-32.131 37.293c1.866 17.879 29.191 47.47 49.274 53.361 5.564 1.632 12.69 1.589 8.762-.053-16.948-7.085-25.265-12.31-35.073-22.033-8.267-8.195-14.034-16.414-19.517-27.817l-3.941-8.195zM60 137.5c1.292 1.375 2.574 2.5 2.849 2.5s-.557-1.125-1.849-2.5-2.574-2.5-2.849-2.5.557 1.125 1.849 2.5m77.51 9.484c-.345.559-.32 1.514.056 2.123.461.745-.011.887-1.441.433-1.572-.499-2.125-.252-2.125.952 0 .894-.45 1.348-1 1.008s-1.487-.317-2.082.051c-1.287.795 3.771 6.449 5.769 6.449.722 0 1.313-.955 1.313-2.122 0-1.714.272-1.897 1.411-.952 2.146 1.782 2.923-.385 1.587-4.432-1.257-3.807-2.519-5.078-3.488-3.51m-75.773 1.21c-.257.718-.039 2.136.484 3.151.821 1.592.649 1.749-1.253 1.145-1.568-.498-2.081-.329-1.777.584.667 1.999 3.359 3.313 5.279 2.576 1.327-.509 1.582-1.322 1.07-3.409-.624-2.547-.554-2.625.992-1.108 1.219 1.198 1.407 2.132.705 3.5-.654 1.275-.525 2.898.405 5.117 1.251 2.981 3.358 4.466 3.358 2.367 0-.486.88-1.114 1.954-1.395 2.438-.637 3.722-5.203 2.035-7.235-.679-.818-2.422-1.487-3.874-1.487-1.779 0-2.963-.734-3.628-2.25-1.103-2.515-5.028-3.577-5.75-1.556m63.013 5.886c-2.347 1.367-2.216 5.188.254 7.424 2.886 2.611 6.996.683 6.996-3.283 0-4.646-3.223-6.487-7.25-4.141m-54.341 1.296c-.847 2.208.28 3.335 1.808 1.807.902-.902.905-1.461.016-2.35-.89-.89-1.324-.761-1.824.543m6.566 2.189c-1.429 3.759-1.207 5.24.959 6.4 3.36 1.798 5.12 1.151 6.617-2.433 1.798-4.302 1.796-4.532-.032-4.532-.814 0-1.763 1.125-2.108 2.5s-1.274 2.5-2.065 2.5c-1.1 0-1.283-.819-.78-3.5.784-4.18-1.099-4.859-2.591-.935m40.525-.783c-3.263.673-3.783 1.829-2.53 5.626 1.039 3.149 4.03 5.142 4.03 2.686 0-.499.976-.652 2.169-.34 1.753.459 2.04.234 1.5-1.175-.368-.958-.669-2.783-.669-4.054 0-2.525-1.405-3.382-4.5-2.743m8.677.885c.486 2.509 2.823 2.853 2.823.416 0-1.228-.646-2.083-1.573-2.083-.932 0-1.442.68-1.25 1.667m-39.63 2.583c-1.036 4.749-1.008 6.056.139 6.458.989.347 3.288-5.182 3.308-7.958.014-1.834-3.006-.52-3.447 1.5m21.842-1.267c-2.948 1.187-3.711 3.876-1.889 6.658 2.417 3.688 7.5 2.842 7.5-1.248 0-1.767-.551-2.393-2.107-2.393-1.511 0-1.935.448-1.499 1.584.385 1.005.151 1.431-.643 1.166-2.125-.708-1.379-3.232 1.057-3.577 1.269-.18 2.141-.827 1.937-1.438-.508-1.523-1.858-1.757-4.356-.752m-17.721 3.673c-.737 4.546-.261 5.344 3.191 5.344 3.276 0 5.141-1.632 5.141-4.5 0-2.849-1.86-4.5-5.069-4.5-2.297 0-2.752.509-3.263 3.656m3.332.285c0 1.132.45 2.059 1 2.059s1-.648 1-1.441-.45-1.719-1-2.059-1 .309-1 1.441m57.612 6.701c-4.226 3.102-7.521 6.139-7.321 6.749.525 1.603 5.468 1.952 8.699.613 5.726-2.372 10.407-9.6 7.681-11.862-1.079-.896-3.019.068-9.059 4.5"/><path fill-opacity=".246" fill-rule="evenodd" d="M97.287 5.74c3.182.199 8.132.197 11-.004 2.867-.201.263-.364-5.787-.362s-8.396.167-5.213.366m17.982.953c.973.254 2.323.237 3-.037s-.119-.481-1.769-.461-2.204.244-1.231.498m37.863 15.935c1.997 2.129 4.1 4.79 4.673 5.912.963 1.887.784 2.01-2.382 1.641-1.883-.22-3.423-.224-3.423-.009s3.938 4.502 8.75 9.528c6.8 7.101 9.34 9.127 11.396 9.094 1.456-.024 4.116.689 5.913 1.585 1.796.896 3.427 1.468 3.624 1.271.882-.882-8.157-12.769-14.356-18.88-9.847-9.707-21.79-18.24-14.195-10.142M37.642 27.75C14.061 48.043 2.416 77.933 5.455 110.367c.609 6.492.95 7.542 2.135 6.558.775-.643 1.41-1.837 1.41-2.653s1.125-2.82 2.5-4.454c1.96-2.33 2.501-4.089 2.504-8.145.006-7.049 2.517-21.981 4.823-28.677 4.164-12.087 12.259-25.042 20.992-33.591 4.146-4.059 4.165-4.11 2.182-5.905-2.553-2.31-2.533-4.554.072-7.865 3.012-3.829 1.81-3.256-4.431 2.115m56.639-1.114c-4.429 1.36-6.088 2.645-10.951 8.484-3.152 3.784-6.268 6.88-6.924 6.88-1.686 0-2.639 3.015-1.417 4.486.723.872.021 3.719-2.399 9.721C66.969 70.15 66.948 76.15 72.499 82c2.17 2.286 2.272 2.82 1.192 6.25L72.511 92h-5.668c-3.117 0-8.969-.633-13.005-1.406-6.817-1.305-7.754-1.808-13.202-7.087-5.591-5.418-5.835-5.861-5.252-9.507.336-2.104.848-4.44 1.136-5.191.288-.752-.091-2.207-.842-3.235-1.756-2.402-5.834-1.509-9.401 2.059-2.384 2.383-2.514 3.004-1.973 9.459.555 6.616.487 6.909-1.612 6.923-1.206.009-2.763.378-3.46.821-3.221 2.044-3.914 14.642-.984 17.893.877.974 1.743 3.296 1.924 5.16.496 5.128 4.436 6.764 18.388 7.636 8.068.504 11.852.378 12.822-.427.757-.628 4.918-1.306 9.247-1.507s9.068-.84 10.532-1.42l2.661-1.054.637 9.692c.913 13.912 2.528 27.59 3.342 28.308 2.043 1.803 11.727 4.118 19.199 4.591 15.553.985 30.02-4.512 41.079-15.607 6.277-6.298 11.906-15.579 13.448-22.176.673-2.88-1.044-5.027-10.527-13.16-7.762-6.656-4.814-5.94 3.385.822 3.725 3.073 6.97 5.392 7.21 5.152s-1.821-2.548-4.58-5.128c-2.758-2.58-5.015-5.276-5.015-5.991 0-1.6-4.228-3.62-7.578-3.62-1.463 0-2.74-.719-3.105-1.75-.342-.963-1.294-2.534-2.117-3.492-1.356-1.58-1.178-2.067 1.902-5.215 1.869-1.91 3.691-4.501 4.048-5.758 1.307-4.59.758-16.504-1.159-25.175-2.891-13.076-7.477-19.847-16.643-24.57-5.603-2.887-16.147-3.529-23.067-1.404M95 28.365c-5.579 1.84-7.863 3.463-11.031 7.837C80.827 40.539 80.341 42 82.041 42c.573 0 2.411-2.204 4.086-4.897 2.279-3.667 4.098-5.299 7.242-6.5C95.678 29.721 98.088 29 98.724 29s1.436-.45 1.776-1c.77-1.245-.971-1.13-5.5.365M76.548 51.487c-5.322 12.035-7.637 22.249-5.725 25.261.456.719.811-.765.837-3.5.028-3.016 1.539-8.75 4.141-15.716 4.425-11.849 4.856-15.336.747-6.045M188.852 73c-.272 3.025-1.304 7.19-2.291 9.256-1.46 3.057-1.669 5.106-1.117 11 2.016 21.556-6.136 45.826-21.16 62.997-3.549 4.055-4.098 5.747-1.867 5.747.779 0 2.292 1.202 3.362 2.671l1.946 2.671 6.703-8.421c7.732-9.714 14.557-22.943 17.757-34.421 1.908-6.845 2.229-10.455 2.222-25-.008-15.517-.229-17.654-2.534-24.5l-2.524-7.5zM47.291 92.373c.776 2.329 16.342 3.345 25.709 1.678 3.658-.651 2.441-.832-6.5-.969-6.05-.093-12.931-.542-15.291-.999-3.043-.588-4.183-.504-3.918.29m90.319 54.45c-.339.548-.324 1.825.034 2.837.532 1.506.406 1.613-.697.59-2.196-2.038-3.21-1.435-2.48 1.473.667 2.658.636 2.68-1.293.935-3.181-2.879-3.388-.238-.22 2.798 3.092 2.962 5.527 2.635 4.499-.603-.563-1.776-.419-1.849 1.414-.704 2.84 1.774 3.635.505 2.107-3.367-1.622-4.112-2.576-5.235-3.364-3.959m-75.145 1.234c-.359.581-.358 2.235.004 3.674.579 2.307.468 2.462-.93 1.301-.873-.724-1.913-.991-2.312-.593-.855.855 2.561 3.561 4.496 3.561 2.001 0 2.69-2.797 1.147-4.657-1.2-1.446-1.099-1.55.888-.92 2.779.882 3.014-.939.308-2.388-2.416-1.293-2.79-1.291-3.601.022m5.493 5.493c-1.578 1.902-.189 8.558 1.931 9.254.842.276 1.114.01.691-.674-.392-.635-.083-1.13.706-1.13 1.845 0 4.714-3.221 4.714-5.294 0-3.26-5.828-4.823-8.042-2.156m56.939 1.333c-2.052 1.661-2.185 2.189-1.132 4.5 1.921 4.217 8.235 3.058 8.235-1.512 0-1.781-2.512-4.871-3.961-4.871-.449 0-1.864.847-3.142 1.883m-55.324.787c-.654 1.704 1.186 3.597 2.629 2.705.439-.271.798-1.366.798-2.434 0-2.375-2.542-2.576-3.427-.271m7.567 2.358c-1.239 3.556-.644 5.677 1.812 6.457 2.576.817 4.768-.313 5.436-2.804 1.425-5.314-.239-6.564-2.116-1.59-1.547 4.097-3.541 2.859-2.691-1.669.805-4.294-.981-4.582-2.441-.394M126 158c0 1.506.522 2.046 1.75 1.81.963-.186 1.75-1 1.75-1.81s-.787-1.624-1.75-1.81c-1.228-.236-1.75.304-1.75 1.81m-10.721-.218c-1.596 1.046.461 8.218 2.357 8.218.746 0 1.055-.64.726-1.5-.687-1.79.759-1.979 2.421-.317 1.736 1.736 2.155.751 1.355-3.19-.557-2.743-1.238-3.549-3.174-3.752-1.355-.143-3.013.101-3.685.541m-28.737 3.848c-.825 4.395.887 6.847 1.879 2.693.371-1.553.908-3.61 1.194-4.573.328-1.103-.018-1.75-.936-1.75-.883 0-1.725 1.43-2.137 3.63m4.291 1.319c-.323 3.39-.066 4.027 1.816 4.499 3.191.801 5.28-.317 6.007-3.214.731-2.912-1.594-5.234-5.242-5.234-1.836 0-2.267.659-2.581 3.949m15.557-2.522c-.302.785-.4 2.473-.219 3.75.273 1.925.928 2.323 3.829 2.323 2.868 0 3.558-.406 3.82-2.25.243-1.711-.176-2.25-1.75-2.25-2.278 0-2.792 1.506-.82 2.399.688.311.387.461-.667.333-2.949-.357-3.049-2.604-.164-3.701 3.423-1.302 3.262-2.031-.45-2.031-1.704 0-3.272.625-3.579 1.427M117 160c0 .55.675 1 1.5 1s1.5-.45 1.5-1-.675-1-1.5-1-1.5.45-1.5 1m-23.333 1.667c-.367.366-.667 1.529-.667 2.583 0 2.593 2.415 1.67 2.82-1.078.309-2.103-.789-2.87-2.153-1.505m38.833 17.489c-11.404 4.48-20.809 6.232-33.5 6.24-6.325.004-11.725.32-12 .703s-2.638 1.832-5.252 3.22l-4.752 2.525 3.752 1.328c2.521.892 9 1.328 19.752 1.328 17.545 0 15.01.622 32.196-7.895 6.227-3.086 8.538-5.783 7.411-8.652-.524-1.336-1.562-1.172-7.607 1.203"/><path fill-opacity=".96" fill-rule="evenodd" d="M107.75 5.662c.688.278 1.813.278 2.5 0 .688-.277.125-.504-1.25-.504s-1.937.227-1.25.504m47.883 18.41c2.716 3.091 4.934 7.534 5.823 11.666.934 4.335 4.835 7.262 9.679 7.262 2.126 0 3.865-.459 3.865-1.02 0-1.394-13.673-15.044-18-17.969l-3.5-2.366zM99 26.033c-7.175 1.184-10.486 3.099-15.399 8.907C81.071 37.932 79 40.745 79 41.19s-.648.81-1.441.81-1.661.356-1.93.791 1.026.614 2.876.398c4.417-.515 12.61 2.262 16.034 5.435 2.649 2.455 2.705 2.733 2.04 10.2l-.683 7.676 2.881-4.5c1.585-2.475 3.587-5.079 4.449-5.787.862-.707 1.354-2.104 1.092-3.103-.394-1.507.329-1.927 4.243-2.463C116.748 49.525 117 49.61 117 53.5c0 3.207-.246 3.5-2.943 3.5-2.347 0-3.411.779-5.25 3.841-1.422 2.368-2.882 3.681-3.807 3.424-1.246-.347-1.264-.252-.107.557.787.549 1.162 1.86.861 3.011-.555 2.122.854 3.167 4.271 3.167 2.391 0 4.975-3.688 4.975-7.1 0-3.245 2.227-5.28 4.862-4.444 2.438.774 4.663 3.353 3.712 4.303-.391.391-1.538-.385-2.548-1.725-1.568-2.079-2.071-2.242-3.432-1.112-.877.727-1.594 2.557-1.594 4.066 0 3.639-3.382 7.783-6.772 8.298-1.5.228.508.482 4.463.564 3.955.083 7.427.532 7.715.998s-3.51.804-8.441.75-8.965-.04-8.965.032c0 .071 2.475 1.998 5.5 4.282s5.5 4.667 5.5 5.295-1.013.243-2.25-.854c-1.237-1.098-4.526-3.589-7.309-5.536l-5.059-3.539-2.191 6.111c-3.47 9.676-2.695 13.521 2.759 13.69 1.403.043 1.968.312 1.257.598-2.506 1.005-6.278-.733-7.274-3.352-.718-1.89-.595-3.902.442-7.223 2.902-9.294 3.151-9.048-5.03-4.962C86.305 82.158 83 83.433 83 82.973s2.583-2.114 5.741-3.677C95.937 75.734 96.958 73 91.094 73c-3.723 0-12.676-2.752-11.8-3.627.207-.207 2.588.294 5.291 1.114 7.499 2.275 8.849 2.038 5.793-1.018-2.376-2.376-2.487-2.935-1.822-9.151.688-6.42.645-6.604-1.423-6.063-1.173.307-2.133.15-2.133-.349 0-1.635 3.908-.947 4.874.858.519.97.628 3.558.243 5.75-.935 5.32-.369 7.486 1.956 7.486 1.434 0 1.928-.703 1.933-2.75.003-1.513.488-4.49 1.079-6.616 1.53-5.513.506-8.299-3.851-10.474-6.118-3.055-13.086-4.451-14.61-2.927-.707.707-1.126 1.761-.932 2.344.195.583-1.232 4.991-3.169 9.797-4.764 11.816-4.82 17.665-.227 23.648 3.223 4.199 3.262 4.366 1.75 7.603-1.534 3.284-1.6 3.31-8.546 3.307-3.85-.001-9.741-.591-13.091-1.31-5.307-1.139-6.83-2.041-11.827-6.997l-5.734-5.689.692-6.468c.629-5.871.521-6.479-1.174-6.586-3.729-.237-4.917.272-7.73 3.31-2.511 2.713-2.802 3.66-2.371 7.701.271 2.534.82 5.394 1.221 6.357.597 1.436.198 1.75-2.224 1.75-4.628 0-6.267 2.651-6.23 10.079.02 4.054.573 7.137 1.5 8.362.807 1.068 1.468 3.136 1.468 4.595 0 2.904 2.126 5.303 6.002 6.771C30.025 115.332 51 116.424 51 115.109c0-.61-1.35-1.109-3-1.109s-3-.211-3-.469.942-2.277 2.093-4.486c2.153-4.13 2.358-12.117.422-16.456-.746-1.673-.551-1.819 1.566-1.18 1.331.402 9.154.989 17.386 1.304 14.224.544 15.198.715 19.611 3.43 5.354 3.295 7.585 3.749 3.922.799C86.546 94.16 78.411 90 76.426 90c-1.085 0-1.434-.536-1.033-1.582.334-.87.607-1.756.607-1.968 0-.213.787-.142 1.75.157 1.649.513 1.65.48.023-.569-.951-.612-3.146-3.173-4.878-5.691-2.838-4.124-3.096-5.107-2.602-9.892.301-2.923 2.326-9.733 4.499-15.134 3.233-8.037 4.292-9.758 5.83-9.476 1.033.19 1.947.415 2.032.5s-1.167 3.98-2.781 8.655c-3.866 11.199-3.679 19.09.652 27.551 4.095 7.998 12.479 13.851 21.138 14.756 3.301.345 6.85.953 7.886 1.35 1.678.644 1.581.846-.891 1.857-4.415 1.804 13.608.769 20.502-1.178 3.113-.879 6.714-1.334 8.002-1.01 1.288.323 4.928 2.893 8.09 5.711s5.748 4.684 5.748 4.147-1.687-2.42-3.75-4.184c-2.062-1.763-4.444-4.366-5.293-5.784s-2.199-2.773-3-3.012-.557.273.543 1.136c1.896 1.487 1.808 1.539-1.677.995-2.226-.347-5.551.066-8.428 1.046-6.331 2.157-12.794 2.042-19.433-.345-3.004-1.08-4.506-1.98-3.338-2s4.038.639 6.376 1.464c5.505 1.942 9.206 1.874 16.156-.296l5.657-1.766-2.157-2.18c-5.784-5.847-5.694-5.413-1.936-9.378 5.695-6.007 6.609-14.384 3.25-29.776-3.209-14.701-7.413-21.28-16.266-25.457-5.953-2.809-12.215-3.684-18.704-2.614M32.495 33.25c-6.504 6.673-13.739 16.696-16.056 22.243-1.246 2.982-1.229 3.574.144 4.947 2.08 2.081 2.028 2.104 4.902-2.19 5.541-8.277 7.507-10.917 10.935-14.682 1.969-2.162 3.59-4.862 3.602-6s.89-3.981 1.951-6.318S39.606 27 39.244 27s-3.399 2.813-6.749 6.25M93 28.664c-4.109 1.763-9.594 6.736-11.554 10.475-1.316 2.512-1.254 2.665 1.279 3.149 1.585.303 4.099-.262 6.216-1.396 1.955-1.048 3.675-1.544 3.822-1.102s3.128.621 6.623.398c7.281-.463 11.042.918 17.467 6.418 6.313 5.404 14.069 23.851 12.897 30.674-.276 1.605-.587 1.112-1.123-1.78-1.677-9.041-1.865-9.366-2.733-4.723-1.385 7.411-6.573 15.52-13.739 21.474q-3.314 2.753-1.983 3.221c.73.258 2.572.923 4.092 1.479 2.158.789 3.964.562 8.231-1.035 6.448-2.413 7.283-3.399 5.004-5.917-1.334-1.474-2.223-1.674-4.163-.937-4.677 1.779-4.824.839-.243-1.548 8.987-4.682 13.229-12.68 11.571-21.819-4.01-22.115-5.841-27.009-12.188-32.582-6.407-5.625-21.443-7.894-29.476-4.449m2.5 5.406c3.3.514 8.458 1.144 11.461 1.4 3.31.283 6.544 1.267 8.21 2.498 3.511 2.596 4.662 2.61 2.325.028-2.397-2.649-6.998-3.731-18.496-4.349-8.387-.45-8.797-.401-3.5.423m27.25 14.676c1.787 1.681 3.286 3.888 3.329 4.905.047 1.107.286 1.335.594.567.682-1.697-2.102-5.846-4.923-7.338-1.571-.831-1.269-.268 1 1.866m4.257 7.48c-.004.399.891 2.199 1.989 4s1.995 2.824 1.994 2.274-.897-2.35-1.99-4-1.99-2.673-1.993-2.274m-51.662 3.317c-.326.849-.369 1.767-.096 2.04.274.273.737-.422 1.03-1.543.624-2.383-.069-2.751-.934-.497M74.158 65c0 1.375.227 1.938.504 1.25.278-.687.278-1.812 0-2.5-.277-.687-.504-.125-.504 1.25m57.037 1.5c.02 1.65.244 2.204.498 1.231s.237-2.323-.037-3-.481.119-.461 1.769M31.189 67.917c-.104.779-.49 1.115-.858.747-.368-.367-1.493.077-2.5.989C25.025 72.193 25.532 81 28.485 81c2.56 0 3.621-2.821 3.257-8.666-.2-3.209-.449-5.196-.553-4.417m41.89 3.666c.048 1.165.285 1.402.604.605.289-.722.253-1.585-.079-1.917s-.568.258-.525 1.312m1 3.217c-.088 1.445 2.687 7.2 3.472 7.2.275 0-.124-1.237-.888-2.75s-1.64-3.425-1.947-4.25c-.375-1.008-.584-1.073-.637-.2m116.827 13.529c-1.157 1.577-1.762 5.563-2.208 14.564-.582 11.757-.526 12.296 1.102 10.5 4.96-5.472 5.501-7.32 4.892-16.711-.319-4.934-.943-9.32-1.386-9.748s-1.523.2-2.4 1.395M21.33 87.775c-.643.409-1.318 1.386-1.5 2.171-.252 1.089.652 1.367 3.818 1.171 2.282-.14 4.446.226 4.809.814S30.666 93 32.559 93c3.879 0 4.725-2.305 1.691-4.608-1.87-1.42-10.975-1.855-12.92-.617M127 95.598l-2.5 1.527 2.5-.549c1.375-.302 2.838-.555 3.25-.562S131 95.55 131 95c0-1.363-1.045-1.207-4 .598M21.394 97.417c-.353.918-.473 1.813-.268 1.988.981.836 14.874 1.371 14.874.572 0-1.482-3.319-2.818-8.81-3.546-4.297-.57-5.262-.406-5.796.986m1.149 8.514c-.818 1.323.632 1.994 5.86 2.711 3.2.438 5.07.211 6.239-.758 1.514-1.254 1.399-1.443-1.236-2.016-4.563-.992-10.232-.959-10.863.063m52.062 1.953c-.938 1.036-3.708 2.445-6.155 3.13S64 112.651 64 113.13c0 1.13.016 1.128 5.03-.641 2.355-.831 4.432-1.361 4.615-1.178s1.036 8.401 1.895 18.261c1.146 13.145 1.97 18.328 3.089 19.428 1.365 1.342 1.463 1.026.928-3-2.077-15.637-3.464-32.731-2.928-36.083.707-4.418.407-4.719-2.024-2.033m49.895 11.578c1.1.894 2.881 2.21 3.958 2.925 1.806 1.2 1.864 1.707.75 6.533-.665 2.878-1.208 7.929-1.208 11.224v5.992l3.036-2.162c2.712-1.931 10.964-16.18 10.964-18.933 0-.551-1.238-1.266-2.75-1.587s-5-1.393-7.75-2.382-5.9-2.122-7-2.517l-2-.718zm-62.108 28.96c-.3.782-.046 2.357.566 3.5 1.115 2.083-.225 3.073-1.458 1.078-.34-.55-1.141-1-1.781-1s-.188.975 1.004 2.168c1.799 1.798 2.429 1.951 3.701.895 1.122-.931 1.271-1.764.555-3.102C63.534 149.26 63.77 148.807 66 150c2.464 1.319 2.638.205.25-1.608-2.27-1.723-3.188-1.716-3.858.03m76.054 1.051c.68 2.872.639 2.914-1.2 1.25-2.679-2.425-3.385-2.15-2.636 1.027.533 2.261.412 2.528-.681 1.5-.731-.687-2.01-1.25-2.841-1.25-.901 0-.113 1.171 1.95 2.898 3.819 3.197 5.06 3.194 4.222-.012-.486-1.857-.308-1.982 1.462-1.035 2.693 1.441 3.385.517 2.021-2.701-1.741-4.108-3.11-5.108-2.297-1.677m-70.435 4.506c-1.281 2.394-.402 6.464 1.779 8.23 1.207.978 1.412.988.843.041-.471-.783-.178-1.25.785-1.25.845 0 2.281-1.137 3.191-2.526 1.549-2.365 1.541-2.651-.132-4.5-2.287-2.526-5.112-2.524-6.466.005m1.325 1.588c-.331.862-.089 2.08.538 2.707 1.408 1.408 4.742-1.468 3.685-3.178-.998-1.615-3.531-1.332-4.223.471m54.849.123c-.562 1.073-.592 2.754-.074 4.127.664 1.761 1.511 2.241 3.531 2 3.413-.407 5.264-3.153 3.752-5.567-1.551-2.477-6.021-2.824-7.209-.56m-46.734 2.717c-.8 4.265-.056 5.593 3.133 5.593 1.747 0 2.759-.772 3.474-2.651 1.546-4.067.48-5.265-1.422-1.599-2.266 4.364-4.058 4.24-3.333-.232.741-4.565-1.007-5.613-1.852-1.111m48.803-2.261c-1.533 1.533-.418 3.854 1.853 3.854 2.182 0 2.513-2.241.569-3.854-.961-.798-1.624-.798-2.422 0m-10.353 1.497c-1.357.378-1.439 1.046-.544 4.401 1.04 3.896 2.643 5.386 2.643 2.456 0-1.795 1.164-1.936 2.766-.334.888.888 1.115.232.95-2.75-.221-4.014-1.643-4.936-5.815-3.773m-29.239 4.054c-.582 3.585-.233 5.207.881 4.094 1.092-1.092 1.71-7.791.719-7.791-.55 0-1.27 1.664-1.6 3.697M91 163c0 3.767.173 4 2.965 4 2.565 0 5.035-2.14 5.035-4.363 0-1.39-3.441-3.637-5.571-3.637-2.167 0-2.429.431-2.429 4m16.011-2.513c-.721.869-.966 2.557-.588 4.061.546 2.178 1.128 2.526 3.784 2.263 3.424-.339 4.278-1.491 2.818-3.803-.75-1.188-1.195-1.238-2.183-.25-.989.989-.957 1.242.158 1.242 1.028 0 1.104.296.287 1.113-.612.612-1.602.81-2.2.441-1.859-1.149-1.195-4.196 1.163-5.334 2.223-1.071 2.224-1.085.122-1.152-1.17-.038-2.682.601-3.361 1.419M117 160c0 .55.675 1 1.5 1s1.5-.45 1.5-1-.675-1-1.5-1-1.5.45-1.5 1m-24 3.5c0 2.796 2.423 3.446 3.396.91.759-1.978-.062-3.41-1.955-3.41-.87 0-1.441.99-1.441 2.5"/></svg>