<svg xmlns="http://www.w3.org/2000/svg" width="200" height="200" fill="#000000"><path fill-opacity=".157" fill-rule="evenodd" d="M88.5 10.946c-15.342 2.024-32.671 8.431-45.192 16.71-7.887 5.215-20.371 17.276-25.898 25.022C8.995 64.47 2.954 80.605 1.376 95.5c-.892 8.42-.893 8.231.037 17 1.732 16.337 9.367 34.586 19.856 47.462 7.084 8.697 19.509 18.986 29.117 24.114 7.348 3.922 8.195 4.148 12.425 3.316 5.304-1.042 6.547-3.024 2.51-4-1.552-.375-6.109-2.41-10.127-4.522-26.042-13.686-43.666-38.973-46.242-66.35-3.41-36.25 14.834-68.085 48.643-84.88 14.481-7.194 22.834-8.971 42.405-9.024 14.02-.037 17.778.294 25 2.206 17.554 4.647 32.623 13.632 44.886 26.762 8.501 9.104 14.082 18.264 18.408 30.214 3.07 8.481 3.15 9.135 3.145 25.702-.005 16.479-.1 17.262-3.092 25.535-4.142 11.453-6.226 15.347-13.168 24.608-4.336 5.785-6.034 8.978-6.439 12.107-.334 2.582-.149 4.25.47 4.25 2.823 0 15.336-16.145 20.538-26.5 6.937-13.806 8.453-20.05 9-37.059.427-13.243.221-16.075-1.702-23.5-8.895-34.335-35.828-60.152-72.442-69.44-10.306-2.614-26.805-3.782-36.104-2.555m7.847 18.184c-4.008 5.005-7.317 15.68-7.335 23.66-.026 11.363 6.831 18.778 27.488 29.727 14.858 7.876 19.588 11.277 28.694 20.631 9.937 10.209 17.374 22.067 20.974 33.445 1.283 4.054 2.8 7.379 3.371 7.389 1.253.022 7.574-12.505 9.842-19.503 3.842-11.853 3.504-29.716-.802-42.444-7.621-22.525-27.202-41.512-51.079-49.529-8.369-2.811-12.274-3.582-21.028-4.155-6.996-.458-9.275-.283-10.125.779m-36.446 8.997c-27.004 14.489-43.418 42.367-41.564 70.59 2.113 32.176 27.314 60.872 60.87 69.315 4.32 1.086 5.02.992 8.5-1.149 16.491-10.143 23.609-26.354 18.752-42.709-2.191-7.378-10.704-16.14-23.404-24.09-18.868-11.811-26.016-23.595-26.043-42.94-.014-9.829 2.013-18.543 6.062-26.065 1.605-2.981 2.801-5.537 2.658-5.681-.144-.143-2.768 1.085-5.831 2.729"/><path fill-opacity=".521" fill-rule="evenodd" d="M83.758 12.072c-7.348 1.093-21.913 5.969-29.981 10.037-14.94 7.533-28.932 19.939-37.79 33.508C.139 79.895-2.894 110.395 7.903 136.926c7.822 19.222 26.692 39.281 45.701 48.581 5.17 2.529 5.844 2.627 10.024 1.457 4.855-1.359 4.722-2.216-.652-4.188-21.54-7.907-42.233-28.595-49.788-49.776-4.049-11.352-4.688-15.391-4.671-29.5.015-11.566.415-15.385 2.306-21.965 5.263-18.316 18.472-36.505 34.403-47.374 9.123-6.224 22.936-12.149 33.323-14.293 13.981-2.885 36.947-2.25 49.504 1.369 46.379 13.369 73.575 58.677 61.985 103.263-2.65 10.195-8.72 22.464-14.916 30.154-3.72 4.616-5.013 7.153-5.571 10.929l-.727 4.917 3.225-3c5.139-4.781 14.127-17.372 18.208-25.51 11.2-22.327 11.501-52.425.75-74.831-12.781-26.636-35.991-45.467-65.623-53.241-8.852-2.322-31.633-3.332-41.626-1.846m11.695 19.359c-2.777 4.239-5.537 12.664-6.128 18.705-.489 5.004-.187 6.626 2.108 11.317 3.671 7.503 8.885 11.727 25.81 20.91 25.678 13.932 39.846 29.088 48.771 52.173 3.778 9.772 4.025 9.771 8.774-.036 5.107-10.545 6.675-17.787 6.603-30.5-.117-20.53-6.252-35.031-21.425-50.641C145.169 38.135 124.156 29 103.935 29c-6.193 0-7.05.246-8.482 2.431m-37.205 8.024C27.317 57.14 12.249 91.599 21.497 123.5c7.067 24.377 24.883 42.388 51.313 51.876 9.868 3.542 11.659 3.377 18.425-1.703C102.633 165.115 107 156.904 107 144.034c0-14.252-5.801-22.011-25.893-34.633-14.823-9.313-21.893-19.422-24.269-34.702-1.793-11.533-.051-20.834 6.826-36.449.811-1.844-.654-1.518-5.416 1.205"/><path fill-opacity=".417" fill-rule="evenodd" d="M90 11.647c-25.787 3.862-43.763 12.194-59.859 27.744C16.755 52.322 9.158 65.333 4.381 83.509c-9.679 36.827 8.111 77.116 43.431 98.359 9.15 5.503 10.927 6.022 15.688 4.579l4-1.212-4.833-2.117c-2.658-1.165-5.188-2.118-5.622-2.118-.433 0-4.313-2.301-8.621-5.113-21.263-13.881-34.897-33.439-39.446-56.585-1.591-8.098-.763-29.823 1.441-37.802 8.259-29.892 35.57-54.937 67.757-62.134 11.323-2.532 34.915-2.336 45.872.381 16.761 4.156 32.427 12.993 44.182 24.923 8.805 8.936 11.032 12.046 16.351 22.83 6.369 12.915 8.767 24.64 8.077 39.5-.914 19.673-6.714 35.169-18.507 49.44-2.505 3.031-4.126 6.127-4.413 8.426-.25 1.999-.29 3.825-.089 4.058.467.542 6.412-5.976 11.329-12.424 5.515-7.231 11.595-19.649 14.689-30 3.637-12.168 3.855-31.655.492-44-8.66-31.788-33.784-57.186-66.225-66.948C118.53 12.12 99.358 10.245 90 11.647m4.045 23.461c-3.314 7.103-4.652 15.356-3.613 22.286.539 3.596 1.763 5.753 5.728 10.09 4.861 5.319 8.109 7.401 31.182 19.985 9.085 4.955 23.761 19.436 30.942 30.531 3.025 4.675 6.826 12.274 8.447 16.886l2.946 8.386 2.743-4.886c3.877-6.906 7.549-18.681 8.385-26.886 2.539-24.915-9.532-51.276-30.187-65.927-13.781-9.775-27.909-14.919-44.392-16.163l-9.198-.695zM57.011 40.75C41.987 49.494 27.752 67.035 22.318 83.5c-4.723 14.311-3.624 34.289 2.699 49.04 8.64 20.156 29.002 37.356 51.543 43.54l7.659 2.101 5.399-3.718c6.929-4.772 11.03-9.486 14.281-16.417 2.171-4.63 2.597-6.95 2.579-14.046-.036-14.109-4.526-20.249-24.507-33.519-11.144-7.401-13.335-9.325-17.405-15.282-2.561-3.747-5.536-9.641-6.611-13.096-3.626-11.65-2.044-28.941 3.691-40.353 1.313-2.612 2.257-4.75 2.098-4.75s-3.189 1.688-6.733 3.75"/><path fill-opacity=".667" fill-rule="evenodd" d="M84 12.663C44.27 20.651 15.718 45.336 5.525 80.509c-11.05 38.133 6.428 79.805 42.374 101.029 8.621 5.09 11.672 5.956 15.653 4.442l2.9-1.102-5.531-2.248c-13.127-5.335-27.636-16.393-36.052-27.476-2.779-3.659-7.233-11.154-9.896-16.654-3.891-8.033-5.151-11.991-6.408-20.119C6.644 105.958 6.627 100.913 8.471 90c1.884-11.148 2.476-12.96 7.492-22.931 5.492-10.917 10.149-17.134 18.912-25.247C45.788 31.719 61.85 22.929 76 19.317c9.137-2.332 31.949-2.814 42.894-.905 10.194 1.777 25.23 7.539 33.517 12.844 17.181 10.998 31.851 29.396 37.209 46.668 4.909 15.824 4.822 36.286-.219 51.83-2.268 6.992-8.37 18.351-13.287 24.736-2.57 3.337-5.12 7.988-5.757 10.5l-1.143 4.51 6.277-6.827c7.795-8.478 14.563-20.267 18.756-32.673 3.12-9.228 3.212-9.987 3.201-26.5-.011-16.48-.108-17.281-3.184-26.2-6.909-20.035-19.11-36.329-35.648-47.607-7.747-5.283-21.693-11.752-30.906-14.337-7.801-2.189-11.657-2.631-25.21-2.89-8.8-.168-17.125-.08-18.5.197"/></svg>