<svg width="500" height="500" viewBox="0 0 500 500" fill="#000000" xmlns="http://www.w3.org/2000/svg">
<path fill-rule="evenodd" clip-rule="evenodd" d="M212.677 2.43282C202.258 4.19125 186.918 7.61672 178.589 10.046C170.26 12.4775 156.22 17.7193 147.388 21.6975C138.555 25.6779 122.805 34.3875 112.386 41.0557C101.684 47.9022 84.597 62.0231 73.1104 73.5074C61.9291 84.6909 47.2623 102.364 40.5161 112.783C33.7721 123.202 25.2207 138.747 21.5122 147.328C17.8037 155.908 13.2237 167.555 11.3338 173.212C9.44391 178.868 6.10758 191.906 3.91903 202.184C1.23348 214.799 -0.0413242 230.292 0.00102061 249.847C0.038908 268.804 1.4296 285.369 4.02155 297.763C6.20119 308.182 9.97433 322.724 12.4058 330.079C14.8373 337.434 20.8837 351.467 25.8447 361.265C30.8057 371.062 39.8586 386.302 45.9629 395.132C52.0673 403.964 65.4906 419.279 75.7915 429.17C86.0946 439.061 102.114 452.108 111.392 458.165C120.672 464.223 133.969 471.876 140.94 475.177C147.911 478.475 160.136 483.445 168.103 486.222C176.071 488.999 190.111 492.805 199.305 494.677C208.498 496.552 224.544 498.756 234.963 499.576C245.783 500.427 262.987 499.962 275.079 498.491C286.724 497.076 302.269 494.412 309.624 492.574C316.978 490.735 332.022 485.783 343.054 481.571C354.086 477.358 372.258 467.998 383.435 460.768C394.614 453.541 411.45 440.32 420.85 431.39C430.251 422.462 442.477 409.121 448.022 401.744C453.569 394.367 462.219 381.289 467.244 372.682C472.27 364.077 479.654 347.882 483.652 336.696C487.65 325.51 492.444 308.913 494.305 299.818C496.166 290.721 498.359 274.752 499.179 264.333C500.03 253.495 499.565 236.33 498.089 224.217C496.67 212.572 493.554 195.369 491.165 185.986C488.773 176.606 483.295 160.698 478.987 150.635C474.682 140.575 465.673 123.929 458.972 113.648C452.27 103.365 438.526 86.349 428.43 75.8319C418.272 65.2502 401.369 50.8908 390.578 43.6722C379.854 36.5003 364.775 27.6347 357.068 23.9729C349.361 20.3135 337.036 15.3123 329.682 12.8608C322.327 10.4115 308.353 6.77205 298.63 4.77516C288.906 2.77604 269.851 0.714519 256.285 0.190781C240.756 -0.408732 224.604 0.422562 212.677 2.43282ZM278.944 96.6277C291.489 103.675 301.768 109.942 301.786 110.555C301.803 111.168 296.564 114.678 290.139 118.355C283.716 122.032 277.798 125.342 276.987 125.712C276.178 126.08 270.542 123.323 264.464 119.583C258.387 115.843 251.761 112.783 249.742 112.783C247.722 112.783 227.274 123.557 204.301 136.724C181.328 149.891 161.816 161.674 160.94 162.911C160.067 164.145 160.568 166.305 162.054 167.707C163.543 169.111 188.83 184.021 218.248 200.84C247.667 217.66 272.991 232.432 274.522 233.664C276.639 235.367 277.308 251.904 277.308 302.492C277.308 360.614 277.738 369.081 280.698 369.081C282.563 369.081 287.83 366.705 292.398 363.799C296.969 360.895 314.723 350.641 331.853 341.013C348.982 331.385 364.779 321.726 366.954 319.551C369.9 316.604 370.912 312.033 370.915 301.663L370.917 287.734L382.597 281.048C389.02 277.371 395.035 274.028 395.967 273.62C396.896 273.21 397.652 284.743 397.647 299.25C397.641 321.178 396.93 326.785 393.426 332.53C390.242 337.754 373.435 348.486 324.496 376.547C288.899 396.955 257.453 413.904 254.613 414.211L249.45 414.768L248.335 331.588L247.221 248.407L177.018 208.157C138.406 186.02 106.369 167.511 105.825 167.027C105.279 166.543 106.783 164.219 109.168 161.863C111.551 159.507 130.049 148.152 150.274 136.63C170.499 125.108 197.076 109.862 209.334 102.75C221.591 95.6404 234.629 88.5086 238.306 86.904C241.984 85.2971 247.5 83.9465 250.564 83.8997C253.628 83.8529 266.399 89.5806 278.944 96.6277ZM353.132 139.325C372.105 150.245 389.633 161.85 392.085 165.11C396.119 170.479 396.607 175.124 397.228 214.105L397.917 257.17L385.815 264.095C379.158 267.903 373.083 271.019 372.312 271.019C371.543 271.019 370.91 253.219 370.908 231.46C370.906 198.264 370.279 190.646 367.008 184.101C363.794 177.669 356.972 172.784 328.082 156.242C308.815 145.211 293.034 135.181 293.011 133.956C292.991 132.73 297.723 129.03 303.526 125.734C309.332 122.436 315.106 119.679 316.359 119.605C317.611 119.53 334.159 128.404 353.132 139.325ZM116.81 188.75L127.987 195.628V255.184C127.987 299.395 128.705 315.682 130.773 318.396C132.306 320.406 155.48 334.605 182.273 349.95C209.066 365.294 232.385 379.009 234.09 380.425C236.147 382.132 237.192 387.788 237.192 397.211C237.192 405.029 236.813 411.425 236.35 411.425C235.888 411.425 209.561 396.574 177.847 378.421C146.135 360.266 117.292 343.516 113.755 341.191C110.216 338.869 105.954 333.696 104.283 329.696C101.934 324.075 101.243 306.446 101.243 252.147C101.243 207.497 102.043 181.872 103.438 181.872C104.646 181.872 110.664 184.968 116.81 188.75Z" fill="#000000"/>
</svg>
