<svg xmlns="http://www.w3.org/2000/svg" width="200" height="200" fill="#000000"><path fill-opacity=".616" fill-rule="evenodd" d="M0 100.005V200.01l100.25-.255 100.25-.255.255-99.75L201.01 0H0zm.481.495c0 55 .121 77.647.269 50.326.148-27.32.148-72.32 0-100C.602 23.147.481 45.5.481 100.5m78.557-55.028C60.081 56.489 56.24 59.64 58.731 62.131c.755.755 6.959-2.338 21.248-10.594 19.507-11.271 20.262-11.609 22.568-10.098 1.312.86 4.314 2.656 6.67 3.992A8702 8702 0 0 1 128.5 56.446c9.863 5.647 15.856 8.496 17.5 8.321 5.787-.618 2.519-3.44-16.5-14.244-2.2-1.25-9.554-5.479-16.343-9.398s-12.863-7.089-13.5-7.044c-.636.044-9.915 5.17-20.619 11.391m9.23 21.424c-2.878 1.068-6.521 2.86-8.096 3.982C76.723 73.333 70 80.638 70 81.93c0 .508-.766 1.071-1.701 1.251-1.127.217-.119 1.167 2.988 2.815l4.69 2.488 3.066-3.72 3.066-3.72 3.696 2.311c9.843 6.155 18.527 6.167 28.328.039l3.633-2.272 2.055 2.189c5.617 5.984 7.809 17.853 4.679 25.343-.825 1.975-1.5 3.751-1.5 3.948 0 .196 1.77 1.26 3.933 2.364l3.934 2.007 2.066-5.524c1.137-3.038 2.067-5.85 2.067-6.249s1.012-1.17 2.25-1.713c2.037-.893 2.278-1.778 2.542-9.334.329-9.399-.468-11.153-5.069-11.153-2.432 0-4.095-1.175-8.409-5.942-7.288-8.054-14.107-11.284-24.814-11.753-6.117-.269-9.232.106-13.232 1.591m-3.164 28.018c-1.073.68-.647 1.271 1.843 2.559 3.87 2.001 5.073 1.311 2.559-1.467-2.036-2.25-2.422-2.345-4.402-1.092m25.467.657c-3.715 3.715-.106 11.856 4.228 9.536 3.651-1.953 4.199-6.109 1.201-9.107-2.411-2.411-3.37-2.487-5.429-.429"/><path fill-opacity=".306" fill-rule="evenodd" d="M0 100.005V200.01l100.25-.255 100.25-.255.255-99.75L201.01 0H0zm.481.495c0 55 .121 77.647.269 50.326.148-27.32.148-72.32 0-100C.602 23.147.481 45.5.481 100.5m119.632-80.25c.245.137 4.257 3.85 8.916 8.25l8.471 8-7.977-8.25c-4.387-4.538-8.399-8.25-8.916-8.25s-.74.113-.494.25m-29.3 8.433c.721.289 1.584.253 1.916-.079s-.258-.568-1.312-.525c-1.165.048-1.402.285-.604.604M140 31.941c0 .518.445 1.216.989 1.552.566.35.734-.051.393-.941-.665-1.732-1.382-2.049-1.382-.611m-68.187 1.742c.721.289 1.584.253 1.916-.079s-.258-.568-1.312-.525c-1.165.048-1.402.285-.604.604m24.2 1.765c-1.369.757-2.944 1.119-3.5.804-.557-.315-.678-.203-.269.248.797.88-5.062 4.648-17.81 11.455-4.364 2.329-8.609 4.797-9.434 5.484C62.576 55.457 45.365 65 44.15 65c-1.949 0-2.546 4.723-2.306 18.25L42 92h6V70.163l3.25-1.983A248 248 0 0 1 58 64.242c1.925-1.076 9.575-5.46 17-9.743s15.525-8.908 18-10.277 4.995-2.878 5.599-3.353c.686-.539 6.698 2.374 16 7.752 8.196 4.739 16.251 9.365 17.901 10.281s6.713 3.827 11.25 6.469l8.25 4.804v21.479l3.03-.445 3.03-.445-.28-12.082-.28-12.082-28.327-16.3c-15.579-8.965-28.854-16.284-29.5-16.265-.645.02-2.292.655-3.66 1.413M143 37c.589 1.1 1.295 2 1.57 2s.019-.9-.57-2-1.295-2-1.57-2-.019.9.57 2m-87 .383c0 .211.901.619 2.001.907 1.101.288 1.75.115 1.441-.383-.538-.871-3.442-1.313-3.442-.524m88.469 6.374c3.282 3.434 6.081 6.243 6.218 6.243.138 0-.009-.675-.325-1.5-.317-.825-1.004-1.5-1.528-1.5s-.715-.384-.425-.853-.135-1.706-.943-2.75c-1.431-1.846-1.453-1.843-.821.103.465 1.432-.599.866-3.748-1.993-2.768-2.514-2.186-1.68 1.572 2.25m-103.01-1.69c-.363.586-.445 1.281-.183 1.543s.743-.218 1.069-1.067c.676-1.762.1-2.072-.886-.476M40.5 49c-1.65 1.093-2.55 1.98-2 1.971 1.003-.016 6.44-3.913 5.5-3.942-.275-.009-1.85.878-3.5 1.971m114 8c.853 1.65 1.776 3 2.051 3s-.198-1.35-1.051-3-1.776-3-2.051-3 .198 1.35 1.051 3m-126.75-.92c-1.63.949-1.734 3.985-1.511 44.22l.239 43.2.272-42.898c.249-39.39.414-43.005 2.011-44.218 2.063-1.566 1.465-1.746-1.011-.304M158 63c.589 1.1 1.295 2 1.57 2s.019-.9-.57-2-1.295-2-1.57-2-.019.9.57 2m-69.858 3.94c-6.427 2.384-10.826 5.605-15.834 11.596C69.333 82.095 67.935 83 65.411 83c-4.742 0-5.534 1.697-5.203 11.153.259 7.396.534 8.453 2.412 9.278 1.439.632 2.474 2.463 3.22 5.698 1.359 5.887 4.384 12.409 7.592 16.371l2.43 3-1.946-5.95c-2.918-8.925-3.328-15.096-1.516-22.84 1.789-7.641 3.366-11.09 7.099-15.527l2.572-3.056 5.126 3.186C91.798 87.174 93.11 87.5 100 87.5c6.874 0 8.207-.33 12.753-3.156l5.076-3.155 2.023 2.155c9.46 10.077 7.541 28.645-3.695 35.771-4.361 2.766-5.046 2.886-16.603 2.9l-12.054.015-4 3.408-4 3.409 6 2.826c5.213 2.456 7.181 2.824 15 2.808 7.901-.017 9.671-.365 14.5-2.854 3.025-1.558 7.227-4.475 9.338-6.48 4.004-3.805 8.945-12.478 10.068-17.673.379-1.753 1.588-3.435 2.874-4 2-.878 2.249-1.801 2.512-9.321.329-9.399-.468-11.153-5.069-11.153-2.432 0-4.095-1.175-8.409-5.942-7.288-8.054-14.107-11.284-24.814-11.753-6.168-.271-9.227.104-13.358 1.635M166 77c.589 1.1 1.295 2 1.57 2s.019-.9-.57-2-1.295-2-1.57-2-.019.9.57 2m-125.921.583c.048 1.165.285 1.402.604.605.289-.722.253-1.585-.079-1.917s-.568.258-.525 1.312m-1 4c.048 1.165.285 1.402.604.605.289-.722.253-1.585-.079-1.917s-.568.258-.525 1.312m-3 11c.048 1.165.285 1.402.604.605.289-.722.253-1.585-.079-1.917s-.568.258-.525 1.312m47.576 3.246c-2.225 2.459-2.087 5.739.345 8.171 2.411 2.411 3.37 2.487 5.429.429 2.021-2.021 2.021-6.837 0-8.858-2.061-2.06-3.745-1.985-5.774.258m27.745-1.064c-2.448 1.635-3.519 5.143-2.285 7.485 1.203 2.285 2.777 3.707 4.135 3.735 1.516.031 4.75-4.044 4.75-5.985s-3.234-6.016-4.75-5.985c-.412.009-1.245.346-1.85.75M42.045 126.5c-.009 5.826.112 6.101 4.168 9.47 2.298 1.909 3.847 2.936 3.444 2.283-.404-.653 7.165 3.366 16.82 8.931s17.833 9.839 18.174 9.498c.801-.801-2.289-5.678-5.026-7.933-1.169-.963-7.075-4.513-13.125-7.89-13.69-7.641-18.492-10.815-18.527-12.245-.015-.613-1.353-2.689-2.973-4.614l-2.946-3.5zM33 122.378c0 .207.788.995 1.75 1.75 1.586 1.243 1.621 1.208.378-.378-1.307-1.666-2.128-2.195-2.128-1.372m136.437 2.872-2.937 3.25 3.25-2.937c3.029-2.738 3.71-3.563 2.937-3.563-.172 0-1.635 1.463-3.25 3.25m-14.687 1.992c-1.512.508-2.75 1.276-2.75 1.705 0 .428-4.387 3.398-9.75 6.598-12.146 7.249-17.825 11.732-19.868 15.683l-1.586 3.068 6.352-3.534c11.181-6.22 29.325-16.861 30.175-17.698.452-.445.677-2.146.5-3.779-.3-2.761-.515-2.904-3.073-2.043m9.833 2.508c-.412.412-1.162.75-1.666.75-.505 0-.946.45-.982 1s-7.349 8.34-16.25 17.31c-8.902 8.971-16.4 16.621-16.663 17-.262.38 6.263-5.835 14.5-13.81 14.7-14.231 23.192-23 22.275-23-.255 0-.801.338-1.214.75M52.5 142c.995 1.1 2.035 2 2.31 2s-.315-.9-1.31-2-2.035-2-2.31-2 .315.9 1.31 2m3.5 3.378c0 .207.788.995 1.75 1.75 1.586 1.243 1.621 1.208.378-.378-1.307-1.666-2.128-2.195-2.128-1.372m23.733 18.746c.679.684 1.486.991 1.793.683.308-.308-.247-.867-1.233-1.243-1.425-.542-1.54-.428-.56.56M83.5 166c.34.55.816 1 1.059 1s.441-.45.441-1-.477-1-1.059-1-.781.45-.441 1m30.941.555c-1.864 1.494-1.852 1.512.309.465 1.237-.6 2.25-1.3 2.25-1.555 0-.765-.519-.544-2.559 1.09m-27.934.434c-.35.566.051.734.941.393 1.732-.665 2.049-1.382.611-1.382-.518 0-1.216.445-1.552.989M106.5 171c-.34.55-.141 1 .441 1s1.059-.45 1.059-1-.198-1-.441-1-.719.45-1.059 1m-13.5.43c0 .275.9.981 2 1.57s2 .845 2 .57-.9-.981-2-1.57-2-.845-2-.57m27.872 2.32c-1.243 1.586-1.208 1.621.378.378.963-.755 1.75-1.543 1.75-1.75 0-.823-.821-.294-2.128 1.372"/><path fill-opacity=".676" fill-rule="evenodd" d="M0 100.005V200.01l100.25-.255 100.25-.255.255-99.75L201.01 0H0zm.481.495c0 55 .121 77.647.269 50.326.148-27.32.148-72.32 0-100C.602 23.147.481 45.5.481 100.5M104 17.43c0 .275.9.981 2 1.57s2 .845 2 .57-.9-.981-2-1.57-2-.845-2-.57m22.99 9.131c3.826 3.694 6.672 7.216 6.323 7.827-.348.612-.286.799.139.416.425-.382 2.168.609 3.874 2.203s3.259 2.742 3.45 2.55c.409-.408-18.525-18.901-19.848-19.385-.492-.18 2.236 2.695 6.062 6.389m-40.549-4.006c-1.864 1.494-1.852 1.512.309.465 1.237-.6 2.25-1.3 2.25-1.555 0-.765-.519-.544-2.559 1.09M111 21.558c0 .205.9.853 2 1.442 1.105.591 2 .659 2 .152 0-.505-.9-1.154-2-1.442-1.1-.287-2-.356-2-.152M81.31 24.85c-1.204.357-3.772 2.057-5.707 3.776-1.934 1.72-3.799 2.845-4.143 2.5-.345-.344-.477-.007-.293.749.183.756-.292 1.602-1.056 1.88q-1.39.505-.602-.769c.437-.708-.629-.437-2.398.608-1.774 1.047-2.637 2.064-1.948 2.294.68.226 1.41-.108 1.622-.744s.831-.881 1.376-.545c.57.353.008 1.733-1.326 3.256q-2.32 2.65 1.222-.605c1.946-1.788 4.106-3.25 4.8-3.25.693 0 1.023-.385.733-.855-.677-1.095 2.978-4.44 7.16-6.554 1.787-.903 3.25-1.856 3.25-2.117s-.112-.429-.25-.374-1.235.392-2.44.75m14.137 1.814c-1.621.698-4.297 1.057-5.947.798-2.948-.464-2.957-.453-.5.651l2.5 1.122-3.5 1.462c-1.925.803-7.775 3.329-13 5.613s-10.062 4.029-10.75 3.878c-.687-.152-1.25.269-1.25.935s-.284.926-.631.579c-1.024-1.023-4.489 1.295-3.742 2.503.411.666.224.821-.472.39-.635-.392-1.155-.236-1.155.346s-.563.947-1.25.809-1.187.538-1.111 1.5c.154 1.936-1.254 2.406-1.85.617-.744-2.231-4.85.187-5.455 3.213-.321 1.606-.912 2.92-1.313 2.92s-1.943 1.125-3.426 2.5c-3.007 2.787-4.241 3.103-4.878 1.25-.237-.687-.312-.462-.167.5.144.963-.145 1.75-.644 1.75-.498 0-.906.707-.906 1.571 0 1.429.143 1.429 1.571 0 2.432-2.431 2.718-1.869.748 1.466-.987 1.671-1.951 2.568-2.142 1.994-.644-1.932-2.177.062-2.177 2.832 0 1.824-1.174 3.883-3.5 6.137L27 77.392v-9.836c0-8.161.298-10.076 1.75-11.251 1.579-1.277 1.531-1.309-.5-.325-2.547 1.235-2.513.56-2.373 47.02l.071 23.5-2.974-3.266c-1.636-1.796-2.974-2.893-2.974-2.437s1.35 2.122 3 3.703c2.83 2.712 3 3.314 3 10.661v7.788l3.25 1.574c2.871 1.39 3.023 1.393 1.309.025-1.068-.851-2.305-1.548-2.75-1.548S27 139.762 27 135.804v-7.196L30.5 132c1.925 1.866 3.5 4.006 3.5 4.755 0 .75.403 1.114.895.81.493-.305 1.153.119 1.469.941.315.822 1.116 1.494 1.779 1.494s.227-1.042-.969-2.314c-1.428-1.52-2.139-3.494-2.072-5.75l.103-3.436.724 3.021c.399 1.661 1.479 4.172 2.401 5.58.923 1.407 1.44 2.796 1.149 3.086s.159 1.097.997 1.793 1.531 2.222 1.539 3.392c.012 1.683.208 1.824.934.676.506-.799.637-1.924.293-2.5s.131-.435 1.055.315c.925.75 1.466 1.712 1.203 2.137s.222 1.354 1.077 2.064 2.219 2.575 3.032 4.146c.812 1.57 1.856 2.621 2.32 2.334.465-.287 1.454.213 2.2 1.111 1.21 1.458 1.088 1.551-1.137.863C48.733 155.2 45 153 45 151.808c0-.628-.284-.857-.631-.51s-1.585.173-2.75-.388c-2.091-1.007-2.093-1-.119.554 1.1.866 2.793 2.24 3.761 3.055.969.815 2.371 1.481 3.116 1.481.744 0 2.497.9 3.896 2 2.818 2.217 4.218 2.604 3.147.87-.428-.692-.16-.934.691-.625.764.278 1.251 1.087 1.083 1.799-.234.986.11.957 1.442-.125 1.342-1.09 1.56-1.108.94-.077-.954 1.585 5.637 7.471 8.61 7.69 2.068.152 1.181-1.196-1.126-1.711-.792-.176-2.73-1.431-4.308-2.788-2.558-2.2-2.672-2.536-1.06-3.108 1.425-.506 1.138-.791-1.354-1.344-1.968-.436-5.083-2.732-8.25-6.081-5.794-6.126-6.628-8.001-1.838-4.129 1.788 1.444 6.025 4.531 9.417 6.858s5.966 4.556 5.722 4.951c-.245.395 1.196 1.027 3.2 1.403s5.28 2.086 7.278 3.8 3.015 2.33 2.261 1.367c-1.705-2.174-1.708-2.174 4.372.223l5 1.971-14.156-.222c-7.785-.122-13.946.116-13.691.528.256.412 2.368.75 4.694.75 3.751 0 4.784.565 9.153 5 2.709 2.75 5.246 5 5.638 5s-1.616-2.24-4.462-4.978c-3.749-3.606-4.675-4.985-3.36-5 .998-.012 2.74.473 3.87 1.078 1.238.662 1.807.698 1.432.091-.396-.641 2.016-1.034 6.615-1.077 6.153-.058 7.816.315 11.094 2.484 2.121 1.403 4.08 2.328 4.353 2.055s-.644-1.094-2.039-1.825c-2.391-1.252-2.225-1.328 2.908-1.328 2.995 0 5.446.124 5.448.275s-1.184.726-2.636 1.278c-1.451.552-2.42 1.221-2.153 1.488s2.058-.172 3.981-.975c1.923-.804 4.579-1.204 5.903-.889 2.27.54 2.301.49.541-.874-1.679-1.302-1.083-1.467 5.95-1.649 7.691-.198 7.785-.171 5.867 1.694-1.073 1.043-2.221 1.743-2.553 1.556s-1.448.278-2.481 1.034c-1.741 1.273-1.684 1.336.774.866 1.459-.279 3.666-1.586 4.905-2.905 1.977-2.105 3.144-2.399 9.52-2.399 3.997 0 7.476-.338 7.731-.75s-5.805-.697-13.467-.631l-13.931.118 7.776-3.197c4.277-1.759 9.351-4.003 11.276-4.986l3.5-1.788-3.327 3.494c-1.831 1.923-4.756 3.97-6.5 4.549-2.957.983-2.988 1.039-.461.827 1.492-.125 3.029-.544 3.417-.932 1.092-1.092 2.567-.83 1.85.33-.351.569.859.12 2.691-.996s4.144-2.032 5.139-2.034 1.532-.452 1.193-1c-.387-.626-1.735-.418-3.627.56-5.364 2.774-5.167 1.002.483-4.341 3.346-3.165 6.432-5.229 7.832-5.238 1.298-.009 1.838-.337 1.233-.75-.658-.449.643-2.022 3.337-4.037l4.415-3.302-1.803 3.052c-.992 1.679-2.494 3.088-3.338 3.131-1.037.053-1.127.243-.278.585.691.279.962 1.031.603 1.671s.258.23 1.372-.912c1.113-1.142 2.365-3.15 2.781-4.462.899-2.832 7.996-10.12 8.938-9.178.36.361.359-.118-.004-1.063-.379-.988-.189-1.72.447-1.72.609 0 1.114.787 1.122 1.75.013 1.493.156 1.529.968.25.607-.955.601-1.621-.015-1.833-.532-.184-.961-1.084-.953-2 .013-1.383.17-1.423.921-.236.672 1.062 1.078.51 1.576-2.142.402-2.145 2.032-4.894 4.079-6.877l3.409-3.304v10.362c0 5.7.252 10.111.561 9.803.308-.309.582-16.008.607-34.888l.048-34.327 2.892 3.237c1.591 1.78 2.892 2.864 2.892 2.408s-1.35-2.122-3-3.703c-2.807-2.689-3.012-3.392-3.18-10.937l-.18-8.063-.57 7.472-.57 7.472-5-5.709c-2.75-3.141-5.437-5.715-5.971-5.722s1.825 2.808 5.242 6.256l6.214 6.27-.177 24.729c-.174 24.453-.202 24.753-2.492 26.905-1.872 1.759-2.316 1.871-2.316.585 0-.875-.562-1.818-1.25-2.096-.84-.339-.748-.53.281-.583 1.782-.092 4.254-5.785 2.881-6.634-.502-.31-.912.364-.912 1.496s-.436 2.059-.969 2.059c-1.231 0-.093-16.26 1.198-17.107.557-.365.466-2.31-.227-4.884-.633-2.353-.873-5.385-.534-6.739.34-1.354.207-2.981-.295-3.616s-1.234-2.954-1.627-5.154c-.707-3.954-.694-3.977 1.185-2.012 1.054 1.102 1.722 2.921 1.5 4.083-.265 1.389.116 2.096 1.13 2.096 1.175 0 1.303-.427.55-1.834-.54-1.008-.701-1.833-.357-1.833s-.529-1.37-1.938-3.045c-1.41-1.675-3.062-4.937-3.673-7.25s-1.861-5.745-2.777-7.627-1.666-3.757-1.666-4.166c0-.92-1.432-2.407-2.333-2.425-.639-.013-12.134-8.236-13.167-9.42-.275-.315-2.431-1.883-4.792-3.485-3.167-2.149-3.953-3.148-3-3.813.849-.591.521-.683-.958-.267-1.242.349-2.25.19-2.25-.355s-1.425-1.301-3.167-1.684c-1.742-.382-5.454-2.77-8.25-5.306-3.43-3.11-4.107-3.51-2.083-1.229 2.384 2.686 2.589 3.225 1 2.62-1.1-.418-4.025-1.46-6.5-2.316s-5.4-2.107-6.5-2.781-4.813-1.162-8.25-1.087-6.25.045-6.25-.067c.001-1.003 7.624-2.034 9.12-1.233 1.462.783 1.716.671 1.248-.548-.686-1.788-4.574-1.723-8.921.148M119 26.393c0 .216.698.661 1.552.989.89.341 1.291.173.941-.393-.587-.951-2.493-1.406-2.493-.596m4 2.037c0 .275.9.981 2 1.57s2 .845 2 .57-.9-.981-2-1.57-2-.845-2-.57m-36.187 1.253c.721.289 1.584.253 1.916-.079s-.258-.568-1.312-.525c-1.165.048-1.402.285-.604.604m28 1c.721.289 1.584.253 1.916-.079s-.258-.568-1.312-.525c-1.165.048-1.402.285-.604.604m-56.249 2.024c-.542 1.425-.428 1.54.56.56.684-.679.991-1.486.683-1.793-.308-.308-.867.247-1.243 1.233M76.5 32c-1.261.542-1.445.859-.5.859.825 0 2.4-.386 3.5-.859 1.261-.542 1.445-.859.5-.859-.825 0-2.4.386-3.5.859m63.5-.059c0 .518.445 1.216.989 1.552.566.35.734-.051.393-.941-.665-1.732-1.382-2.049-1.382-.611m-83.7 4.412c-.44.745-1.475 1.607-2.3 1.916s.479.399 2.897.2C61.199 38.114 65.311 36 61.7 36c-.935 0-1.7.436-1.7.969s-.672.71-1.494.395c-.822-.316-1.246-.976-.941-1.469.304-.492.324-.895.044-.895s-.869.609-1.309 1.353M143 37c.589 1.1 1.295 2 1.57 2s.019-.9-.57-2-1.295-2-1.57-2-.019.9.57 2m-93.187 2.683c.721.289 1.584.253 1.916-.079s-.258-.568-1.312-.525c-1.165.048-1.402.285-.604.604m90.746.849c-1.92 1.452-1.919 1.468.018 1.468 1.122 0 5.111 3.223 9.324 7.534 4.051 4.144 7.642 7.232 7.982 6.863s.102-.856-.527-1.082-.957-1.402-.729-2.613c.341-1.812.271-1.881-.391-.392-.711 1.6-1.205 1.365-4.27-2.037-4.849-5.381-5.172-7.524-.78-5.173 1.131.605 1.786.663 1.456.13-.329-.533-1.959-1.533-3.621-2.221S146 41.362 146 40.879c0-.484-.477-.879-1.059-.879s-.745.508-.361 1.13c.428.692.16.934-.691.625-.764-.278-1.276-1.011-1.139-1.63.314-1.413.182-1.388-2.191.407m-87.281.718C52.262 42.563 50.862 46 51.343 46c.155 0 1.279-1.35 2.499-3 2.076-2.808 1.54-4.47-.564-1.75M73.75 55.205 48 70.19v59.615l26 15.005 26 15.005 26-15.005 26-15.005V70.171l-25.692-14.835c-14.13-8.16-25.942-14.899-26.25-14.976S87.912 46.963 73.75 55.205M41.015 42.75c.009.999.336 1.321.762.75.41-.55 1.154-1.337 1.651-1.75s.155-.75-.761-.75c-.927 0-1.66.777-1.652 1.75M145 42.878c0 .482.749 1.495 1.664 2.25 1.508 1.244 1.552 1.162.465-.878-1.24-2.327-2.129-2.9-2.129-1.372m-97.25 1.694c-3.738 2.028-3.511 2.873.25.928 1.65-.853 3-1.765 3-2.026 0-.643-.107-.607-3.25 1.098m106.32 1.188c.155 1.628 1.794 4.653 1.86 3.431.038-.72.52-1.031 1.07-.691 1.678 1.037 1.116.044-1-1.768-1.1-.942-1.968-1.379-1.93-.972M40.72 48.588c-1.528.829-2.498 1.963-2.154 2.519.399.645 1.045.537 1.78-.297.635-.721 1.806-1.872 2.604-2.56 1.889-1.629 1.205-1.525-2.23.338m9.918.912c.317.825.753 1.5.969 1.5s.393-.675.393-1.5-.436-1.5-.969-1.5-.709.675-.393 1.5m-16.197 3.055c-1.864 1.494-1.852 1.512.309.465 1.237-.6 2.25-1.3 2.25-1.555 0-.765-.519-.544-2.559 1.09m53.891 14.237c-6.198 2.213-10.997 5.73-16.024 11.744C69.333 82.095 67.935 83 65.411 83c-4.742 0-5.534 1.697-5.203 11.153.255 7.3.549 8.46 2.341 9.248 1.381.607 2.443 2.563 3.258 6 1.519 6.408 5.326 14.056 9.259 18.599l3.029 3.5-2.588-5.679c-3.059-6.711-4.692-15.617-3.899-21.27 1.005-7.168 4.329-16.019 7.427-19.778l3.016-3.659 5.136 3.193C91.799 87.174 93.107 87.5 100 87.5c6.874 0 8.207-.33 12.753-3.156l5.076-3.155 1.968 2.155c4.204 4.603 5.663 8.898 5.683 16.734.018 6.697-.329 8.143-2.98 12.423-4.826 7.792-9.131 9.499-23.961 9.499H86.392l-3.302 3.407-3.303 3.408 2.357 1.513c8.562 5.502 22.959 6.076 32.982 1.316 9.256-4.396 17.087-14.229 19.279-24.21.375-1.709 1.604-3.402 2.875-3.96 2-.878 2.249-1.801 2.512-9.321.329-9.399-.468-11.153-5.069-11.153-2.432 0-4.095-1.175-8.408-5.942-7.384-8.158-14.027-11.324-24.707-11.771-6.03-.253-9.432.133-13.276 1.505M29.52 75.979c-2.896 3.023-3.021 4.869-1.048 15.521.406 2.193.326 2.469-.299 1.028-.555-1.28-.925 1.796-1.054 8.773-.148 7.974.17 11.273 1.234 12.792 1.047 1.496 1.576 1.692 1.961.727.291-.726.564.053.607 1.73s.642 3.691 1.329 4.473c.688.783.248.588-.976-.433-1.225-1.022-2.052-2.14-1.839-2.485s-.247-1.496-1.024-2.557c-1.264-1.73-1.411-1.203-1.411 5.065 0 6.729.137 7.125 3.606 10.441l3.606 3.446-.636-10.48c-.35-5.764-1.005-10.849-1.456-11.3-1.174-1.174.074-28.93 1.507-33.505.435-1.391.212-1.337-1.18.285-1.525 1.778-1.646 1.796-1.082.168.349-1.007.635-2.496.635-3.309 0-.812.45-1.199 1-.859s1 .168 1-.382c0-2.238-1.851-1.883-4.48.861m.023 6.952c-.317.512-.118 1.213.441 1.559S31 84.416 31 83.559c0-1.757-.6-2.015-1.457-.628m-.812 4.149c.354 1.352.807 1.806 1.057 1.057.24-.722-.038-1.787-.62-2.369-.742-.742-.872-.351-.437 1.312M175 93.042c0 .573.952 2.035 2.115 3.25l2.116 2.208-1.641-3.25c-1.668-3.303-2.59-4.089-2.59-2.208m-91.345 2.787c-3.489 3.855-.393 11.175 4.122 9.742 2.858-.907 4.515-5.148 3.078-7.878-2.144-4.074-4.62-4.715-7.2-1.864m27.53-1.145c-.723.289-1.724 1.604-2.225 2.921-2.144 5.641 3.673 10.801 7.228 6.411 3.932-4.855.378-11.485-5.003-9.332M20 100.441c0 .793.408 1.693.907 2.001.498.309.671-.34.383-1.441-.611-2.335-1.29-2.63-1.29-.56m10.079.142c.048 1.165.285 1.402.604.605.289-.722.253-1.585-.079-1.917s-.568.258-.525 1.312m140 4c.048 1.165.285 1.402.604.605.289-.722.253-1.585-.079-1.917s-.568.258-.525 1.312M176 106c-.589 1.1-.845 2-.57 2s.981-.9 1.57-2 .845-2 .57-2-.981.9-1.57 2m-152.457-.069c-.317.512-.118 1.213.441 1.559s1.016-.074 1.016-.931c0-1.757-.6-2.015-1.457-.628m147.536 2.652c.048 1.165.285 1.402.604.605.289-.722.253-1.585-.079-1.917s-.568.258-.525 1.312M170 112.441c0 .793.408 1.693.907 2.001.498.309.671-.34.383-1.441-.611-2.335-1.29-2.63-1.29-.56m-147.921 1.142c.048 1.165.285 1.402.604.605.289-.722.253-1.585-.079-1.917s-.568.258-.525 1.312m140 29c.048 1.165.285 1.402.604.605.289-.722.253-1.585-.079-1.917s-.568.258-.525 1.312m7.362 1.972c-1.864 1.494-1.852 1.512.309.465 1.238-.6 2.25-1.3 2.25-1.555 0-.765-.519-.544-2.559 1.09M159.5 150c-.34.55-.168 1 .382 1s1.278-.45 1.618-1 .168-1-.382-1-1.278.45-1.618 1m-4.059 2.555c-1.864 1.494-1.852 1.512.309.465 1.238-.6 2.25-1.3 2.25-1.555 0-.765-.519-.544-2.559 1.09m-9.935 5.439c-.999 1.103-1.351 2.006-.783 2.006 1.258 0 3.752-2.858 3.08-3.53-.265-.265-1.299.42-2.297 1.524M157.5 158c-.34.55-.141 1 .441 1s1.059-.45 1.059-1-.198-1-.441-1-.719.45-1.059 1m-16.993 2.989c-.35.566.051.734.941.393 1.732-.665 2.049-1.382.611-1.382-.518 0-1.216.445-1.552.989m2.993.776c-.55.404-1.119 1.41-1.264 2.235-.217 1.229-.032 1.205 1.024-.133.71-.899 2.179-1.859 3.265-2.134 1.946-.494 1.946-.502-.025-.602-1.1-.055-2.45.23-3 .634M57 165c.589 1.1 1.295 2 1.57 2s.019-.9-.57-2-1.295-2-1.57-2-.019.9.57 2m21 7.449c0 .275 1.35 1.198 3 2.051s3 1.326 3 1.051-1.35-1.198-3-2.051-3-1.326-3-1.051m7 3.981c0 .275.9.981 2 1.57s2 .845 2 .57-.9-.981-2-1.57-2-.845-2-.57m4.813.253c.721.289 1.584.253 1.916-.079s-.258-.568-1.312-.525c-1.165.048-1.402.285-.604.604M92 180.43c0 .275.9.981 2 1.57s2 .845 2 .57-.9-.981-2-1.57-2-.845-2-.57"/><path fill-opacity=".909" fill-rule="evenodd" d="M0 100.005V200.01l100.25-.255 100.25-.255.255-99.75L201.01 0H0zm.481.495c0 55 .121 77.647.269 50.326.148-27.32.148-72.32 0-100C.602 23.147.481 45.5.481 100.5m97.077-84.593c-.309.498.34.671 1.441.383 2.335-.611 2.63-1.29.56-1.29-.793 0-1.693.408-2.001.907m4.154.714c-.222.223-3.061.64-6.308.928-10.052.891-20.584 3.516-28.269 7.045-7.368 3.384-9.135 3.548-9.135.847 0-.793-.477-1.441-1.059-1.441s-.801.418-.485.928c.555.899-2.399 2.272-5.456 2.535-2.5.215-2.828 3.005-.46 3.914 1.071.411 1.452.062 1.25-1.143-.214-1.281.494-1.803 2.71-1.999l3-.265-2.5 1.479c-1.375.814-2.137 1.496-1.694 1.516.443.019-.457 1.122-2 2.45s-2.998 2.223-3.233 1.99c-.235-.234.44-1.133 1.5-1.997 1.734-1.414 1.747-1.514.125-1.001-.991.314-1.546.156-1.234-.349.313-.506.111-1.202-.448-1.548-.567-.351-1.067.392-1.132 1.681-.076 1.513-.266 1.743-.553.666-.282-1.06-1.123-1.463-2.372-1.136-1.065.279-1.685.913-1.379 1.409s.977.644 1.489.327c.512-.316.886.914.831 2.734-.093 3.111-.147 3.159-.9.809l-.801-2.5-.099 2.809c-.055 1.545-.49 2.568-.966 2.274s-.639-1.72-.363-3.168c.452-2.362.301-2.524-1.466-1.578-2.648 1.417-4.039 3.298-4.002 5.413.017.963.228 1.552.47 1.31s1.02.096 1.73.75c1.05.969 1.029 1.468-.118 2.69-.774.825-2.281 2.625-3.349 4l-1.942 2.5.472-2.75c.573-3.33-.598-3.522-3.161-.517q-1.913 2.24-.271.973c1.431-1.102 1.62-.893 1.514 1.681-.066 1.617-.464 2.727-.884 2.467-.719-.444-1.176 1.139-.858 2.97.079.454-.278.564-.792.246-1.065-.658-.95-2.441.285-4.42.685-1.098.442-1.135-1.306-.2-1.182.633-1.866 1.608-1.521 2.167.355.574-.132.879-1.118.7-.961-.174-1.943.246-2.184.933-.24.688.276 1.25 1.147 1.25 2.385 0 2.01 5.782-.786 12.126C19.843 77.717 17.83 88.429 17.83 100s2.013 22.283 5.801 30.874c1.303 2.956 2.369 6.882 2.369 8.725 0 2.662.578 3.649 2.816 4.806 1.548.801 4.096 3.303 5.661 5.561 6.355 9.17 20.523 20.406 32.301 25.614 8.319 3.679 24.96 7.534 32.222 7.464 1.979-.019 2.187.179 1 .951-2.344 1.523.205 1.103 3-.495 1.375-.786 4-1.445 5.833-1.465 5.759-.061 19.346-4.039 27.667-8.1 9.56-4.665 20.177-13.047 27.067-21.367 5.028-6.073 7.314-7.719 7.065-5.087-.072.771.318 1.428.868 1.46s1-.503 1-1.191c0-.687.9-1.844 2-2.569l2-1.319-2 .571c-1.894.542-1.905.498-.197-.83 1.072-.833 1.353-1.551.693-1.771-.611-.204-.813-1.146-.448-2.095s1.059-1.48 1.545-1.179.616-.152.289-1.006c-.329-.856-.073-1.552.57-1.552.641 0 .934-.375.651-.833-.283-.459.116-.834.887-.834 1.031 0 1.151.468.456 1.768-1.837 3.432-.915 3.132 1.554-.506 1.375-2.026 2.493-4.226 2.485-4.889-.01-.745-.386-.633-.985.294-.828 1.282-.972 1.246-.985-.25-.008-.963-.465-1.75-1.015-1.75s-1-1.575-1-3.5.402-3.5.894-3.5.886-1.013.875-2.25.516-6.075 1.172-10.75c1.72-12.274-.448-27.961-5.557-40.22-1.311-3.146-2.384-7.072-2.384-8.724 0-2.327-.677-3.355-3-4.556-1.65-.853-3-1.905-3-2.338s-3.179-4.237-7.065-8.454c-12.141-13.177-28.154-22.229-44.704-25.273-4.802-.883-9.942-1.968-11.423-2.411s-2.874-.625-3.096-.403M38.023 37.472c-.977 1.177-.901 1.793.378 3.072.879.879 1.632 1.229 1.673.777.041-.451.263-1.834.494-3.071.479-2.57-.747-2.945-2.545-.778m-5.246 5.377c-.353 1.292-.379 2.086-.058 1.765s1.078.093 1.682.918c.95 1.298 1.277 1.216 2.412-.602 1.19-1.907 1.127-2.046-.669-1.476-1.414.449-2.088.117-2.353-1.162-.303-1.462-.49-1.359-1.014.557m138.235 15.174c1.241 2.318 1.988 2.537 1.988.584 0-.766-.685-1.656-1.523-1.978-1.243-.476-1.328-.22-.465 1.394M27 59.5c0 .825.177 1.5.393 1.5s.652-.675.969-1.5.139-1.5-.393-1.5c-.533 0-.969.675-.969 1.5m153.079 67.083c.048 1.165.285 1.402.604.605.289-.722.253-1.585-.079-1.917s-.568.258-.525 1.312M27 140.726c0 1.133.685 2.323 1.523 2.645 1.28.491 1.338.229.365-1.644-1.659-3.188-1.888-3.309-1.888-1.001"/></svg>