<!-- Generated by IcoMoon.io -->
<svg version="1.1" xmlns="http://www.w3.org/2000/svg" width="32" height="32" viewBox="0 0 32 32" fill="#000000">
<title>stc</title>
<path d="M11.047 6.726c-1.089 0.245-2.499 0.455-3.134 0.465-1.65 0.025-7.257 1.198-7.661 1.602-1.126 1.126 1.752 3.027 4.581 3.027 0.307 0 1.534 0.291 2.727 0.646 7.19 2.142 7.434 2.18 9.851 1.518 1.217-0.334 2.91-0.724 3.761-0.867s2.336-0.481 3.299-0.749c0.963-0.269 2.79-0.737 4.060-1.041 5.053-1.21 4.328-2.733-1.705-3.583-2.147-0.302-5.388-0.771-7.202-1.042-3.909-0.584-5.901-0.578-8.577 0.026zM29.088 12.442c-0.792 0.489-0.382 9.11 0.433 9.11 0.622 0 0.665-0.25 0.752-4.323 0.093-4.402-0.159-5.421-1.185-4.787zM5.804 13.845c-1.721 5.62-1.804 6.878-0.521 7.827 4.792 3.543 21.368 2.169 20.64-1.71-0.235-1.249-1.314-5.992-1.391-6.109-0.088-0.134-3.206 0.477-5.754 1.128-3.094 0.79-6.054 0.457-12.098-1.363-0.49-0.148-0.784-0.071-0.876 0.228zM28.928 23.575c-0.45 0.45-0.236 2.12 0.297 2.324 0.664 0.255 1.153-0.467 1.042-1.54-0.083-0.796-0.867-1.256-1.339-0.784z"/>
</svg>
