<svg xmlns="http://www.w3.org/2000/svg" width="64" height="64" version="1.1" fill="#000000"><path fill-opacity=".404" d="M 19 2.569 C 12.196 5.722, 6.650 10.952, 3.168 17.500 C -0.738 24.847, -0.738 39.153, 3.168 46.500 C 6.355 52.492, 11.868 57.934, 18 61.141 C 21.807 63.132, 23.964 63.494, 32 63.492 C 40.348 63.491, 42.111 63.168, 46.540 60.835 C 52.742 57.567, 58.907 50.980, 61.360 45 C 62.375 42.525, 63.609 39.719, 64.103 38.764 C 65.360 36.331, 65.269 23.716, 64 24.500 C 63.450 24.840, 63 24.402, 63 23.526 C 63 20.647, 58.245 12.570, 54.336 8.809 C 48.195 2.900, 40.875 0.020, 32 0.020 C 26.067 0.020, 23.351 0.552, 19 2.569 M 0.336 32 C 0.336 36.125, 0.513 37.813, 0.728 35.750 C 0.944 33.688, 0.944 30.313, 0.728 28.250 C 0.513 26.188, 0.336 27.875, 0.336 32" stroke="none" fill="#000000" fill-rule="evenodd"/><path fill-opacity=".329" d="M 21.404 1.827 C -0.615 9.438, -7.075 37.977, 9.474 54.526 C 20.344 65.397, 36.750 66.991, 49.744 58.439 C 55.465 54.674, 61.543 46.540, 62.604 41.229 C 62.964 39.430, 63.650 37.716, 64.129 37.420 C 64.608 37.124, 65 34.182, 65 30.882 C 65 27.582, 64.605 25.126, 64.122 25.425 C 63.639 25.723, 62.959 24.544, 62.611 22.804 C 61.657 18.036, 56.261 10.291, 51.201 6.427 C 42.990 0.157, 31.407 -1.631, 21.404 1.827 M 21.250 8.973 C 18.913 10.034, 17 11.284, 17 11.750 C 17 12.216, 19.452 15.050, 22.449 18.049 C 27.023 22.625, 28.616 23.586, 32.377 24.038 C 34.840 24.334, 36.625 24.202, 36.342 23.744 C 36.059 23.287, 36.376 22.252, 37.047 21.444 C 38.033 20.255, 38.574 20.213, 39.883 21.220 C 41.153 22.199, 41.125 22.024, 39.750 20.404 C 37.262 17.474, 37.523 17.015, 41.750 16.884 C 43.813 16.820, 44.658 16.552, 43.628 16.287 C 41.909 15.846, 41.941 15.712, 44.016 14.653 C 47.401 12.926, 46.965 11.734, 42.038 9.250 C 36.296 6.354, 27.284 6.234, 21.250 8.973 M 11.257 17.190 C 10.589 17.995, 9.322 20.379, 8.441 22.487 L 6.839 26.322 13.976 33.411 C 17.902 37.310, 21.016 40.050, 20.898 39.500 C 20.562 37.943, 22.119 34.956, 22.987 35.492 C 23.415 35.756, 23.788 34.249, 23.817 32.143 C 23.863 28.854, 23.066 27.426, 18.171 22.020 C 13.364 16.712, 12.281 15.956, 11.257 17.190 M 0.320 32 C 0.320 35.575, 0.502 37.038, 0.723 35.250 C 0.945 33.462, 0.945 30.538, 0.723 28.750 C 0.502 26.962, 0.320 28.425, 0.320 32" stroke="none" fill="#000000" fill-rule="evenodd"/><path fill-opacity=".108" d="M 22.300 1.862 C 11.528 5.584, 4.524 12.949, 1.339 23.905 C -2.808 38.171, 4.814 54.363, 18.661 60.702 C 36.140 68.704, 57.103 59.480, 62.189 41.548 C 62.821 39.321, 63.711 37.072, 64.169 36.550 C 65.143 35.437, 65.315 25.352, 64.343 26.324 C 63.982 26.685, 62.933 24.757, 62.014 22.040 C 58.538 11.772, 51.049 4.577, 40.614 1.478 C 34.095 -0.458, 28.686 -0.344, 22.300 1.862 M 24 7.523 C 21.525 8.344, 18.619 9.694, 17.541 10.521 C 15.657 11.969, 15.824 12.269, 21.955 18.455 C 27.486 24.035, 28.697 24.811, 31.124 24.325 C 35.144 23.521, 40.404 28.797, 39.785 33.013 C 39.456 35.254, 39.970 36.515, 41.926 38.259 L 44.500 40.556 48.180 36.746 L 51.859 32.935 45.441 25.718 L 39.022 18.500 41.761 17.868 C 43.268 17.521, 46.272 17.183, 48.437 17.118 L 52.374 17 49.437 13.908 C 43.140 7.280, 32.656 4.648, 24 7.523 M 9.089 20.316 C 7.940 22.689, 7 25.269, 7 26.048 C 7 26.827, 11.379 31.860, 16.731 37.232 L 26.462 47 18.576 47 L 10.690 47 12.594 49.104 C 16.465 53.381, 29.589 59.103, 28.779 56.160 C 28.428 54.887, 38.792 45.153, 39.672 45.929 C 40.029 46.243, 39.955 45.825, 39.508 45 C 37.566 41.415, 35.527 40, 32.300 40 C 27.392 40, 23.579 35.980, 24.296 31.563 C 24.781 28.576, 24.260 27.709, 18.638 22.137 C 15.233 18.762, 12.161 16, 11.812 16 C 11.464 16, 10.238 17.942, 9.089 20.316 M 0.300 32 C 0.300 35.025, 0.487 36.263, 0.716 34.750 C 0.945 33.237, 0.945 30.762, 0.716 29.250 C 0.487 27.738, 0.300 28.975, 0.300 32" stroke="none" fill="#000000" fill-rule="evenodd"/><path fill-opacity=".978" d="M 24.407 1.407 C 15.106 3.664, 6.832 10.701, 2.687 19.878 C -0.216 26.304, -0.205 37.720, 2.710 44.176 C 5.683 50.759, 12.247 57.484, 18.853 60.716 C 26.180 64.301, 36.966 64.546, 44.176 61.290 C 53.171 57.227, 63 45.257, 63 38.363 C 63 37.128, 63.450 35.840, 64 35.500 C 64.550 35.160, 65 33.082, 65 30.882 C 65 28.470, 64.603 27.127, 64 27.500 C 63.445 27.843, 62.990 27.090, 62.978 25.809 C 62.919 19.629, 55.141 8.885, 47.584 4.544 C 43.697 2.311, 34.847 -0.097, 31.201 0.085 C 30.265 0.132, 27.208 0.726, 24.407 1.407 M 24.994 6.874 C 21.161 8.132, 16 10.961, 16 11.805 C 16 12.219, 18.825 15.357, 22.277 18.779 C 27.365 23.822, 29.164 25, 31.777 25 C 36.201 25, 39 28.014, 39 32.779 C 39 36.094, 39.781 37.332, 45.365 42.866 L 51.729 49.174 53.787 45.837 C 58.156 38.750, 58.009 38.293, 47.965 27.680 L 38.804 18 45.902 18 C 49.806 18, 53 17.597, 53 17.104 C 53 15.831, 46.569 10.345, 42.782 8.387 C 39.170 6.520, 28.770 5.635, 24.994 6.874 M 10.670 17.104 C 9.808 18.422, 8.429 21.115, 7.606 23.088 L 6.109 26.676 11.633 32.088 C 14.672 35.065, 18.872 39.525, 20.967 42 L 24.776 46.500 17.888 46.168 C 13.754 45.969, 11 46.235, 11 46.833 C 11 48.717, 19.885 55.649, 23.807 56.824 C 30.150 58.724, 36.915 58.253, 42.833 55.498 L 48.165 53.016 41.978 46.054 C 36.616 40.021, 35.435 39.163, 33.129 39.624 C 29.011 40.448, 25.012 36.805, 24.954 32.177 C 24.915 29.083, 23.903 27.406, 18.573 21.604 L 12.238 14.708 10.670 17.104 M 0.272 32 C 0.272 34.475, 0.467 35.487, 0.706 34.250 C 0.944 33.013, 0.944 30.988, 0.706 29.750 C 0.467 28.512, 0.272 29.525, 0.272 32" stroke="none" fill="#000000" fill-rule="evenodd"/></svg>