<!-- Generated by IcoMoon.io -->
<svg version="1.1" xmlns="http://www.w3.org/2000/svg" width="32" height="32" viewBox="0 0 32 32" fill="#000000">
<title>steem</title>
<path d="M5.23 3.454c-0.324-0.155-4.327 3.158-4.327 5.596 0 3.327 4.68 10.883 5.469 13.801 0.677 2.509-1.156 5.512-0.648 5.653 0.465 0.296 4.835-4.13 5.005-6.019 0.226-3.003-5.103-11.771-5.526-14.027-0.508-2.636 0.381-4.948 0.028-5.004zM15.239 0c-0.409-0.197-5.526 4.018-5.526 7.133 0 4.257 5.963 13.885 6.978 17.607 0.86 3.2-1.466 7.034-0.832 7.203 0.592 0.381 6.16-5.258 6.372-7.669 0.282-3.834-6.513-14.999-7.049-17.889-0.62-3.355 0.508-6.301 0.056-6.386zM25.572 3.454c-0.31-0.155-4.328 3.158-4.328 5.596 0 3.327 4.68 10.883 5.469 13.801 0.677 2.509-1.156 5.512-0.648 5.653 0.465 0.296 4.835-4.13 5.005-6.019 0.226-3.003-5.103-11.771-5.526-14.027-0.494-2.636 0.381-4.948 0.028-5.004z"/>
</svg>
