<!-- Generated by IcoMoon.io -->
<svg version="1.1" xmlns="http://www.w3.org/2000/svg" width="32" height="32" viewBox="0 0 32 32" fill="#000000">
<title>steth</title>
<path d="M15.334 0.999c-0.383 0.549-1.872 2.825-3.31 5.058s-2.951 4.556-3.363 5.162l-0.749 1.102 0.88 0.53c0.484 0.291 0.894 0.53 0.911 0.53s0.922 0.513 2.010 1.139c1.088 0.627 2.46 1.415 3.049 1.751s1.142 0.612 1.23 0.612c0.088 0 1.111-0.547 2.274-1.217s2.364-1.358 2.671-1.532c0.306-0.173 1.113-0.635 1.791-1.026s1.234-0.778 1.234-0.86c0-0.082-0.249-0.523-0.553-0.981s-0.716-1.063-0.915-1.346-1.007-1.52-1.795-2.751c-0.788-1.231-2.161-3.347-3.050-4.704l-1.617-2.466-0.696 0.999zM6.32 14.773c-0.17 0.241-0.487 0.832-0.704 1.313s-0.495 1.162-0.617 1.512c-0.153 0.439-0.222 1.404-0.222 3.104 0 2.204 0.041 2.578 0.379 3.503 0.209 0.569 0.556 1.357 0.772 1.751s0.69 1.105 1.054 1.58c0.364 0.475 1.111 1.236 1.661 1.69s1.446 1.051 1.99 1.326c0.544 0.275 1.24 0.577 1.547 0.67s0.951 0.269 1.433 0.391c0.482 0.122 1.556 0.223 2.388 0.226s1.799-0.069 2.149-0.158c0.35-0.090 1.028-0.28 1.507-0.423s1.296-0.491 1.817-0.774c0.521-0.283 1.322-0.814 1.782-1.18s1.131-1.018 1.494-1.447c0.362-0.43 0.9-1.209 1.196-1.731s0.704-1.401 0.909-1.953c0.33-0.892 0.371-1.278 0.371-3.471-0-1.945-0.059-2.628-0.277-3.225-0.152-0.416-0.526-1.253-0.832-1.859s-0.626-1.146-0.712-1.199c-0.087-0.053-0.679 0.201-1.317 0.565s-1.411 0.809-1.717 0.988c-0.306 0.179-0.844 0.484-1.194 0.677s-1.102 0.62-1.672 0.948c-0.569 0.328-1.286 0.743-1.592 0.922s-0.862 0.499-1.234 0.711l-0.677 0.385-0.677-0.385c-0.372-0.212-0.927-0.531-1.234-0.711s-1.023-0.594-1.592-0.922-1.321-0.757-1.672-0.952c-0.35-0.196-1.404-0.796-2.343-1.334s-1.739-0.978-1.78-0.978c-0.041 0-0.214 0.197-0.383 0.438z"/>
</svg>
