<svg xmlns="http://www.w3.org/2000/svg" width="24" height="24" fill="#000000"><g clip-path="url(#a)"><path fill="#858585" d="M12 24c6.627 0 12-5.373 12-12S18.627 0 12 0 0 5.373 0 12s5.373 12 12 12Z"/><path fill="#ffffffFFF" d="M17.425 10.571c.154.012.226.135.3.24.14.194.172.428.213.656.045.25.084.499.14.747.023.097.019.21.04.314.033.17.049.343.087.514.05.219.076.443.112.664.023.143.044.286.073.427a.67.67 0 0 1-.238.688c-.245.206-.495.405-.745.603-.445.356-.87.737-1.31 1.097-.244.199-.494.39-.73.595-.228.195-.464.383-.692.576-.688.583-1.391 1.149-2.087 1.722-.73.602-1.459 1.205-2.187 1.809a8.64 8.64 0 0 1-.173.14c-.085.065-.12.054-.156-.054-.109-.322-.22-.643-.32-.967-.087-.277-.18-.554-.268-.83-.04-.124-.074-.253-.122-.377-.1-.252-.169-.517-.267-.771-.048-.126-.063-.262-.133-.379-.047-.078.004-.13.057-.163.187-.111.32-.283.489-.414.25-.193.48-.41.735-.599.18-.134.346-.288.52-.43.199-.163.39-.334.598-.486.093-.068.18-.147.265-.225.19-.174.404-.317.6-.483.342-.291.696-.567 1.043-.851.278-.229.552-.462.83-.691.35-.288.703-.573 1.053-.86.063-.051.121-.106.181-.16.022-.014.046-.024.065-.04l1.018-.838c.308-.254.62-.505.928-.76.136-.113.15-.187.094-.351-.008-.02-.008-.043-.012-.066v.003ZM7.194 13.33c-.218-.118-.447-.223-.573-.456a2.666 2.666 0 0 1-.194-.456c-.082-.26-.178-.516-.263-.775-.074-.227-.14-.456-.214-.684-.066-.203-.146-.401-.205-.607-.053-.181-.135-.354-.15-.545-.021-.272.11-.46.306-.631.117-.102.24-.199.35-.309.11-.107.237-.197.36-.29.134-.1.26-.21.39-.315.315-.255.635-.503.95-.76.194-.158.388-.316.585-.47.287-.225.562-.463.845-.692l.661-.536c.133-.106.268-.213.398-.326.194-.17.412-.312.603-.482.174-.155.37-.281.542-.439.124-.114.256-.222.398-.318.155-.104.29-.236.437-.353.156-.126.316-.249.473-.375.13-.105.252-.22.377-.332.098-.088.228-.137.317-.239.015-.017.044.002.056.022a.387.387 0 0 1 .03.071 851.891 851.891 0 0 1 .961 2.951c.046.142.084.287.133.427.022.065-.011.096-.053.13l-.84.679c-.59.477-1.178.955-1.768 1.43-.614.496-1.232.987-1.845 1.482-.4.323-.795.65-1.192.974a.666.666 0 0 0-.147.098l-.705.577c-.357.289-.717.574-1.071.867-.194.16-.197.367-.025.551.035.037.08.069.073.13Z"/><path fill="#bfbfbf" d="M7.194 13.33c.006-.06-.04-.093-.073-.13-.172-.184-.169-.39.025-.55.354-.293.714-.579 1.07-.868.236-.191.471-.384.706-.576a.633.633 0 0 1 .147-.099c0 .046.03.055.067.072.3.138.596.285.881.454.139.081.29.138.434.212.52.267 1.038.537 1.555.808.185.096.359.214.556.29.093.036.097.08.019.145-.29.238-.581.473-.872.71-.443.358-.887.714-1.328 1.076-.062.05-.117.069-.19.03-.33-.182-.662-.364-.994-.543-.207-.112-.417-.22-.628-.329-.254-.13-.509-.257-.763-.387l-.612-.314ZM17.425 10.57c.004.022.005.045.012.066.057.165.042.239-.094.35-.308.256-.62.507-.928.761l-1.017.838c-.02.016-.044.027-.066.04-.271-.142-.54-.289-.814-.427-.566-.285-1.134-.567-1.701-.85a1.047 1.047 0 0 1-.068-.037c-.044-.026-.058-.05-.01-.09.429-.348.855-.696 1.28-1.045.272-.223.54-.45.812-.672.054-.045.112-.085.168-.127.024-.018.052-.038.082-.016.09.066.21.074.29.153.042.04.095.04.142.056.21.072.39.2.591.288.195.085.38.188.571.279.238.112.474.232.697.373.023.014.06.02.053.062v-.001Z"/></g><defs><clipPath id="a"><path fill="#ffffff" d="M0 0h24v24H0z"/></clipPath></defs></svg>