<svg xmlns="http://www.w3.org/2000/svg" width="32" height="32" fill="#000000"><path fill="#000000" d="M16 32c8.837 0 16-7.163 16-16S24.837 0 16 0 0 7.163 0 16s7.163 16 16 16Z"/><path fill="#a3a3a3" d="M13.143 12.571c.143.143.286.286.428.286 3 1.429 5.858 2.857 8.858 4.286.285.143.428.286.428.714v2.857c0 .143 0 .286-.143.429-1.285-.572-2.571-1.286-3.857-1.857-.143-.143-.428-.286-.571-.286-2.857-1.429-5.857-2.857-8.715-4.286-.285-.143-.428-.285-.428-.714v-2.857c0-.143-.143-.286.143-.429.285.286.571.429.857.572 1 .428 2 1 3 1.285Z"/><path fill="#a3a3a3" d="M16.143 7.429c.143 0 .286.142.428.142l6 3c.286.143.429.286.429.572v3c0 .286 0 .428-.429.286-2.142-1-4.285-2.143-6.428-3.143V7.429Z"/><path fill="#a3a3a3" d="M16.143 24.429c-1-.286-2-.858-2.857-1.429-1.143-.571-2.429-1.143-3.572-1.714-.285-.143-.428-.286-.428-.572v-2.857c0-.428.143-.428.428-.286 2 1 3.857 1.858 5.857 2.858.143.142.429.142.572.285v3.715Z"/><path fill="#dedede" d="M16.143 7.429v3.714c-1 .428-2 1-2.857 1.428-1-.285-2-1-3-1.428-.429 0-.715-.143-1-.429 2.143-1 4.285-2.143 6.428-3.143.143 0 .286-.142.429-.142ZM16.143 24.429v-3.715c1-.428 1.857-.857 2.857-1.428 1.286.571 2.571 1.143 3.857 1.857-1.286.714-2.714 1.286-4 2-.857.428-1.857 1-2.714 1.286Z"/></svg>