<svg xmlns="http://www.w3.org/2000/svg" width="24" height="24" fill="#000000"><g clip-path="url(#a)"><path fill="#171717" d="M0 0h24v24H0z"/><g filter="url(#b)"><circle cx="21.58" cy="25.58" r="14.58" fill="#262626"/></g><g filter="url(#c)"><path fill="#333333" d="M4.318 17.201C.743 29.818-4.807 39.295-8.078 38.368c-3.27-.927-3.023-11.906.552-24.523S1.6-8.25 4.87-7.322s3.024 11.906-.552 24.523"/></g><path fill="#FFFFFF" fill-rule="evenodd" d="M12.435 3.78c.066.03 1.968 1.236 4.23 2.676 3.057 1.95 4.125 2.646 4.176 2.72a.53.53 0 0 1 0 .607c-.06.09-1.554 1.05-6.186 3.966l-.609.385-.798.505c-.477.3-.909.562-.954.577l-.059.02c-.18.05-.415-.098-3.943-2.317l-.408-.257-4.059-2.556-.009.774c-.009.825.003.922.147 1.101.033.043.96.649 2.061 1.348L9.66 15.64h.001l.354.226c1.095.692 2.004 1.262 2.022 1.262s1.857-1.164 4.086-2.586c2.793-1.781 4.092-2.594 4.18-2.615a.515.515 0 0 1 .581.293c.051.111.057.213.057 1.024 0 .957-.015 1.104-.153 1.37-.15.294-.189.322-4.353 2.998-2.208 1.419-4.059 2.598-4.116 2.622a.5.5 0 0 1-.363.015c-.066-.027-8.394-5.37-8.454-5.43-.039-.037.315-.574.37-.562.026.007 1.886 1.198 4.136 2.646 2.25 1.45 4.107 2.634 4.125 2.634.04 0 7.833-5 7.93-5.087a.7.7 0 0 0 .128-.187c.057-.116.06-.173.054-.819l-.009-.693-3.96 2.523c-2.178 1.39-4.02 2.545-4.092 2.568a.37.37 0 0 1-.26.012c-.187-.05-8.236-5.177-8.419-5.363a1.5 1.5 0 0 1-.216-.283c-.153-.281-.168-.407-.168-1.496 0-.954.003-1.011.063-1.131l.015-.037c.036-.088.134-.152 2.802-1.888l2.415-1.573c2.4-1.566 3.582-2.331 3.63-2.343a.6.6 0 0 1 .39.039M8.708 6.722h-.001c-.81.53-1.278.836-2.482 1.62-.693.45-1.407.919-1.584 1.036l-.324.213 2.334 1.473c.531.335 1.144.72 1.74 1.097l.007.004 2.16 1.362c.92.579 1.59.98 1.61.969.168-.097 7.93-5.004 7.932-5.016 0-.015-7.842-5.02-7.887-5.031-.009-.003-.876.555-1.923 1.239z" clip-rule="evenodd"/></g><defs><filter id="b" width="45.16" height="45.16" x="-1" y="3" color-interpolation-filters="sRGB" filterUnits="userSpaceOnUse"><feFlood flood-opacity="0" result="BackgroundImageFix"/><feBlend in="SourceGraphic" in2="BackgroundImageFix" result="shape"/><feGaussianBlur result="effect1_foregroundBlur_3808_1981" stdDeviation="4"/></filter><filter id="c" width="33.548" height="61.815" x="-18.378" y="-15.385" color-interpolation-filters="sRGB" filterUnits="userSpaceOnUse"><feFlood flood-opacity="0" result="BackgroundImageFix"/><feBlend in="SourceGraphic" in2="BackgroundImageFix" result="shape"/><feGaussianBlur result="effect1_foregroundBlur_3808_1981" stdDeviation="4"/></filter><clipPath id="a"><path fill="#FFFFFF" d="M0 0h24v24H0z"/></clipPath></defs></svg>