<svg xmlns="http://www.w3.org/2000/svg" width="24" height="24" fill="#000000"><linearGradient id="a" x1="21.141" x2="-10.075" y1="8.28" y2="24.521" gradientUnits="userSpaceOnUse"><stop offset="0" stop-color="#9c9c9c"/><stop offset="1" stop-color="#9e9e9e"/></linearGradient><g fill-rule="evenodd" clip-rule="evenodd"><path fill="#141414" d="M0 12c0 6.628 5.373 12 12 12 6.628 0 12-5.372 12-12 0-6.627-5.373-12-12-12S0 5.373 0 12z"/><path fill="#fafafa" d="m6.707 9.172.297-.915a.598.598 0 0 1 .393-.388l.92-.283c.127-.039.128-.218.002-.26l-.915-.295a.6.6 0 0 1-.388-.394l-.283-.92c-.039-.127-.218-.128-.26-.002l-.296.916a.6.6 0 0 1-.394.388l-.92.282a.136.136 0 0 0-.001.26l.915.296a.6.6 0 0 1 .388.394l.283.92a.136.136 0 0 0 .26.001z"/><path fill="url(#a)" d="M21.243 8.64c-.38-.423-.971-.662-1.546-.76a5.313 5.313 0 0 0-1.76.016c-1.159.196-2.211.676-3.129 1.267-.476.29-.883.627-1.304.969-.203.173-.388.357-.58.539l-.527.524a20.275 20.275 0 0 1-1.68 1.593c-.549.45-1.06.79-1.565 1.03-.504.239-1.044.38-1.747.402-.697.025-1.522-.101-2.404-.309-.887-.206-1.819-.501-2.86-.755.364 1.008.91 1.898 1.613 2.712.71.8 1.597 1.529 2.737 2.008a6.627 6.627 0 0 0 3.854.4c1.323-.254 2.484-.866 3.422-1.574.941-.716 1.703-1.53 2.344-2.378.177-.234.271-.365.4-.548l.354-.525c.246-.324.47-.694.714-1.016.478-.673.949-1.346 1.496-1.966.276-.315.566-.616.91-.905.17-.14.355-.279.56-.403a2.66 2.66 0 0 1 .698-.32z"/><path fill="#fafafa" d="M21.244 8.64c-.408-1.027-1.165-1.892-2.181-2.53-1.01-.632-2.413-.954-3.804-.68a6.23 6.23 0 0 0-1.936.73 8.096 8.096 0 0 0-1.553 1.185c-.225.22-.43.45-.632.68l-.527.67-.812 1.08c-1.036 1.39-2.152 3.018-3.983 3.5-1.797.474-2.576.055-3.673-.118.2.517.449 1.02.785 1.463.331.451.721.875 1.207 1.238.245.175.504.347.792.493.286.142.595.266.925.36.655.179 1.393.242 2.108.145a6.34 6.34 0 0 0 1.996-.623 8.403 8.403 0 0 0 1.594-1.044c.93-.773 1.654-1.626 2.265-2.49.308-.43.587-.87.845-1.31l.304-.524c.093-.153.187-.307.282-.45.385-.576.762-1.038 1.22-1.385.45-.356 1.078-.619 1.917-.68.836-.062 1.801.053 2.86.29z"/><path fill="#9c9c9c" d="M16.722 17.18a1.367 1.367 0 1 0 2.734 0 1.367 1.367 0 0 0-2.734 0z"/></g></svg>