<svg xmlns="http://www.w3.org/2000/svg" width="200" height="200" fill="#000000"><path fill-opacity=".137" fill-rule="evenodd" d="M80 1.948c-11.511 2.446-22.815 6.97-33.009 13.208-11.228 6.871-25.769 21.527-32.383 32.641C-9.147 87.709-3.528 136.95 28.5 169.532c18.934 19.261 40.463 28.951 67 30.155 29.196 1.325 54.18-8.407 74.98-29.207 14.826-14.826 24.604-32.924 27.544-50.98.626-3.85 1.552-7.781 2.058-8.736 1.071-2.026 1.265-23.444.202-22.381-.394.393-1.294-2.705-2-6.885-5.451-32.277-30.493-62.532-61.775-74.638C118.892.043 97.649-1.804 80 1.948M67.269 40.693c.973.254 2.323.237 3-.037s-.119-.481-1.769-.461-2.204.244-1.231.498m-12.784 2.399c-2.192 1.15-5.11 3.225-6.485 4.611-1.796 1.809-1.091 1.527 2.5-1.002 2.75-1.936 6.575-3.971 8.5-4.521 2.088-.596 2.687-1.036 1.485-1.09-1.108-.049-3.808.851-6 2.002m19.784-1.399c.973.254 2.323.237 3-.037s-.119-.481-1.769-.461-2.204.244-1.231.498m53.481-.031c.688.278 1.813.278 2.5 0 .688-.277.125-.504-1.25-.504s-1.937.227-1.25.504m8 0c.688.278 1.813.278 2.5 0 .688-.277.125-.504-1.25-.504s-1.937.227-1.25.504m-56.07 1.332c1.405 1.508 6.32 2.222 6.32.918 0-.502-.562-.918-1.25-.926-.687-.007-2.375-.293-3.75-.636-1.987-.494-2.258-.362-1.32.644m32.82 2.354c-3.3 1.234-6.9 2.82-8 3.524l-2 1.279 2-.716c6.986-2.5 15.036-5.638 15.402-6.004.9-.899-1.607-.25-7.402 1.917m31.666-1.472c-1.054.669-.967.986.417 1.518.963.369 2.239.18 2.834-.42.781-.788.55-.889-.831-.363-1.336.509-1.696.375-1.191-.441.852-1.378.583-1.443-1.229-.294M116.5 47.539c-11.114 3.128-13.781 4.139-12.358 4.685.8.307 4.679-.523 8.619-1.844 10.101-3.388 17.599-3.999 24.492-1.995 10.913 3.173 16.237 10.467 16.141 22.115-.059 7.221-2.946 19.5-4.585 19.5-.51 0-.649.45-.309 1s.115 1-.5 1-.885.378-.599.84c.605.979-3.125 8.316-4.776 9.395-.619.404-.781.741-.361.75 1.059.021-4.324 8.015-5.397 8.015-.477 0-.867.644-.867 1.432s-1.35 2.393-3 3.568-3 2.687-3 3.36c0 1.152-8.21 9.852-9.297 9.852-.277 0-2.912 2.264-5.854 5.031l-5.349 5.032 5.5-3.372c8.249-5.059 20.421-17.228 26.862-26.857 8.347-12.479 12.513-25.241 12.584-38.546.047-8.73-.263-10.635-2.446-15-2.178-4.356-3.209-5.286-8-7.219-6.544-2.641-19.511-2.991-27.5-.742m-73.041 5.528c-.363.586-.445 1.281-.183 1.543s.743-.218 1.069-1.067c.676-1.762.1-2.072-.886-.476m57.921 1.183c5.874 3.904 14.407 10.429 18.402 14.071 4.983 4.544 4.823 3.565-.499-3.065-1.874-2.335-5.292-5.349-7.595-6.698-4.541-2.66-13.398-6.361-10.308-4.308M93 58.58c-6.965 5.511-7.038 5.945-.295 1.766 3.412-2.115 6.225-4.183 6.25-4.596.087-1.45-1.498-.697-5.955 2.83m-9.595 7.67L81.5 68.5l2.25-1.905C85.864 64.805 86.455 64 85.655 64c-.19 0-1.202 1.013-2.25 2.25m15.75 1.874C98.52 69.141 98 70.809 98 71.831c0 1.023-.9 2.674-2 3.669-1.706 1.544-2 3.08-2 10.436v8.627l6 5.937 6 5.937v7.171c0 8.639-1.776 11.647-6.324 10.711-3.41-.701-4.676-3.538-4.676-10.474 0-3.988-.464-5.412-2.25-6.901-2.933-2.448-4.548-2.483-2.348-.052 1.156 1.277 1.834 4.092 2.086 8.658.318 5.764.771 7.15 3.058 9.358 1.819 1.756 2.835 2.189 3.153 1.342.257-.687.935-1.25 1.507-1.25.642 0 .579.554-.166 1.452-.666.802-.908 2.389-.54 3.547.659 2.076.705 2.071 5.332-.607 2.568-1.486 6.356-4.02 8.418-5.631 3.621-2.828 3.75-3.144 3.75-9.182v-6.253l-10.25-6.92-10.25-6.921v-8.968c0-8.895.023-8.977 2.766-9.941 4.133-1.454 5.838.856 6.473 8.767.406 5.056 1.038 7.038 2.758 8.654l2.231 2.096 3.717-2.193 3.717-2.193-.641-6.104c-.715-6.8-2.776-9.354-12.344-15.302-4.62-2.872-4.926-2.932-6.022-1.177M76.437 72.25 73.5 75.5l3.25-2.937c1.787-1.615 3.25-3.078 3.25-3.25 0-.773-.825-.092-3.563 2.937m-6.984 2L65.5 78.5l4.25-3.953C73.702 70.871 74.46 70 73.703 70c-.163 0-2.076 1.912-4.25 4.25m-2.048 7L65.5 83.5l2.25-1.905c1.237-1.048 2.25-2.06 2.25-2.25 0-.8-.805-.209-2.595 1.905M.378 100c0 6.325.163 8.912.361 5.75s.198-8.338 0-11.5-.361-.575-.361 5.75M64 112.378c0 .207.787.995 1.75 1.75 1.586 1.243 1.621 1.208.378-.378-1.307-1.666-2.128-2.195-2.128-1.372m88.605 3.122c2.189 11.459 2.441 15.138 1.348 19.694-.634 2.643-1.558 4.806-2.053 4.806s-.787.348-.65.773c.329 1.016-7.665 8.227-9.121 8.227-.621 0-1.129.477-1.129 1.059s-.45.781-1 .441-1.498-.31-2.106.066c-1.553.96-15.976 1.11-16.556.173-.262-.425-.915-.501-1.451-.169s-1.699.001-2.584-.734c-.886-.735-1.766-1.223-1.957-1.086-.19.137-.458.217-.596.176s-1.355-.278-2.707-.526-2.751-.928-3.111-1.511-.962-.975-1.337-.871c-1.547.429-6.52-2.33-5.928-3.289.383-.619.153-.736-.57-.289-1.268.784-6.328-2.165-14.097-8.216-2.475-1.928-1.125-.319 3 3.576 12.677 11.969 27.692 18.395 43.176 18.48 10.073.055 12.07-.871 16.839-7.801 6.363-9.249 7.543-19.721 3.546-31.479-.841-2.475-1.272-3.15-.956-1.5M74.5 124c3.266 3.3 6.162 6 6.437 6s-2.171-2.7-5.437-6-6.162-6-6.437-6 2.171 2.7 5.437 6m-29.421 10.583c.048 1.165.285 1.402.604.605.289-.722.253-1.585-.079-1.917s-.568.258-.525 1.312M47 140.941c0 .518.445 1.216.989 1.552.566.35.734-.051.393-.941-.665-1.732-1.382-2.049-1.382-.611m4 5.559c1.292 1.375 2.574 2.5 2.849 2.5s-.557-1.125-1.849-2.5-2.574-2.5-2.849-2.5.557 1.125 1.849 2.5m96.872-.75c-1.243 1.586-1.208 1.621.378.378.963-.755 1.75-1.543 1.75-1.75 0-.823-.821-.294-2.128 1.372m-69.059 5.933c.721.289 1.584.253 1.916-.079s-.258-.568-1.312-.525c-1.165.048-1.402.285-.604.604m-10.563 1.033c1.513.229 3.987.229 5.5 0s.275-.416-2.75-.416-4.263.187-2.75.416"/><path fill-opacity=".332" fill-rule="evenodd" d="M85 .934C44.148 8.476 14.107 35.571 3.278 74.642.843 83.427.545 86.187.545 100s.298 16.573 2.733 25.358c9.846 35.524 36.39 61.972 71.672 71.414 8.211 2.198 11.724 2.566 25.05 2.625 13.974.062 16.484-.203 25.5-2.696 35.176-9.724 61.713-36.225 71.005-70.907 1.37-5.112 2.491-10.505 2.492-11.985.002-1.48.453-2.969 1.003-3.309.569-.351 1-5.363 1-11.618 0-7.079-.356-10.78-1-10.382-.576.356-1.001-.573-1.003-2.191-.001-1.545-1.122-6.991-2.492-12.103C187.267 39.725 160.584 12.951 126 3.462c-7.463-2.048-12.395-2.688-23-2.983C95.575.272 87.475.477 85 .934m-27.521 40.8c-7.359 2.644-10.988 5.639-13.893 11.469-2.16 4.335-2.561 6.434-2.435 12.743l.151 7.554.663-7.5c1.423-16.091 9.99-24.021 25.911-23.985 7.443.018 12.45 1.867 5.624 2.078-3.234.1-2.565.381 3.5 1.471 4.125.741 8.975 1.615 10.778 1.942 2.038.37 3.02 1.012 2.595 1.699-.433.701-.219.818.584.321.697-.43 1.554-.334 1.905.215.351.548 2.888 2.133 5.638 3.521 7.392 3.732 16.657 10.856 27.429 21.091 5.264 5.001 7.967 7.306 6.007 5.12s-6.01-6.895-9-10.467l-5.436-6.494 7.271 6.408c6.539 5.763 15.066 15.375 19.564 22.053.916 1.359 1.665 2.065 1.665 1.569 0-.497-2.517-4.191-5.594-8.208-6.442-8.41-19.15-20.674-27.591-26.627C109.617 55.452 107 53.333 107 53s3.263-1.682 7.25-2.996c5.131-1.691 9.442-2.377 14.75-2.347 7.523.041 15 2.181 15 4.292 0 .578.346.938.769.801.423-.138 1.886.829 3.25 2.147s1.806 2.073.981 1.676-.667-.043.35.786c1.078.879 1.535 2.017 1.096 2.729-.515.833-.338.963.557.41.977-.604 1.168-.26.748 1.347-.358 1.368-.18 1.92.487 1.508.676-.418.871.296.546 1.998-.279 1.457-.119 2.649.355 2.649.473 0 .854 1.237.846 2.75-.013 2.219-.221 2.46-1.08 1.25-.797-1.123-.943-.432-.58 2.75.322 2.821.132 4.032-.565 3.602-.673-.416-.87.292-.549 1.969.275 1.44.115 2.381-.355 2.09-.471-.291-.856.309-.856 1.334 0 3.121-5.053 12.338-6.341 11.566-.783-.47-.76-.202.07.825 3.063 3.785-20.123 31.301-34.449 40.883-4.096 2.739-7.972 4.983-8.614 4.985-.641.003-4.804-2.464-9.251-5.481-9.414-6.388-24.015-21.079-30.865-31.056-2.63-3.832-4.516-6.171-4.19-5.197 1.753 5.234 10.534 15.86 24.004 29.047 14.129 13.83 15.801 15.139 25.136 19.67 15.235 7.395 27.146 9.495 37.096 6.54 6.213-1.845 10.524-6.274 13.163-13.527 3.344-9.186 3.707-13.498 1.451-17.242-1.079-1.792-2.935-6.183-4.123-9.758-2.419-7.277-4.996-12.365-5.052-9.973-.019.841.6 2.435 1.377 3.544 6.93 9.894 4.583 32.081-4.034 38.131-7.665 5.381-20.093 5.598-33.812.59-7.219-2.635-10.595-4.925-7.344-4.981 3.014-.052 14.785-8.233 22.492-15.632 17.526-16.826 26.129-32.444 29.291-53.179.587-3.85 1.364-7.9 1.726-9 .575-1.746.757-1.619 1.43 1 .54 2.102.627 1.503.29-2-.525-5.46-4.257-14-6.118-14-1.485 0-2.826-1.329-2.857-2.833-.013-.642-.796-1.105-1.739-1.03-.972.078-1.432-.321-1.062-.92.411-.665.017-.813-1.063-.398-.965.37-1.463.249-1.138-.276.86-1.393-6.149-3.031-12.994-3.037-6.678-.007-17.403 2.659-26.001 6.461l-5.63 2.49-4.675-2.365c-12.846-6.498-29.778-9.062-38.695-5.858m63.65 2.334c-3.504 1.012-6.654 2.158-7 2.546s.063.459.91.158c.846-.301 5.796-1.094 11-1.763 12.091-1.554 15.616-2.89 7.461-2.828-3.3.025-8.867.874-12.371 1.887M151.5 48c.34.55.816 1 1.059 1s.441-.45.441-1-.477-1-1.059-1-.781.45-.441 1m-52.008 2.987c.907 1.468 4.508 3.232 4.508 2.209 0-.481-1.154-1.401-2.564-2.043-1.464-.667-2.298-.738-1.944-.166M87 59.022c-3.575 2.692-6.376 5.397-6.225 6.011s-.207.818-.795.455c-.588-.364-4.762 3.043-9.275 7.571-7.463 7.488-6.793 7.41 2.683-.309 6.07-4.944 5.198-2.895-1.915 4.5L64.5 84.5l7.75-7.475c7.639-7.367 8.959-8.87 6.5-7.392-.849.51-.81.209.122-.941 1.53-1.885 2.622-2.301 1.569-.596-.417.673.011.963 1.108.75.982-.19 1.993-.971 2.248-1.735.32-.961.037-1.133-.917-.558-1.155.696-1.165.565-.057-.802.728-.897 2.011-1.368 2.851-1.046s1.916-.042 2.39-.809c.475-.768 1.249-1.396 1.721-1.396s1.656-.798 2.631-1.773c.975-.976 3.19-2.506 4.922-3.402 2.886-1.492 2.982-1.693 1.155-2.406-3.511-1.371-4.866-.888-11.493 4.103M50 57c-.589 1.1-.845 2-.57 2s.981-.9 1.57-2 .845-2 .57-2-.981.9-1.57 2m107.079 3.583c.048 1.165.285 1.402.604.605.289-.722.253-1.585-.079-1.917s-.568.258-.525 1.312M48 61.059c0 .582.45.781 1 .441s1-.816 1-1.059S49.55 60 49 60s-1 .477-1 1.059m-.921 3.524c.048 1.165.285 1.402.604.605.289-.722.253-1.585-.079-1.917s-.568.258-.525 1.312M95 68.055c-2.475 1.61-4.393 3.365-4.262 3.9s-.325.757-1.013.493c-1.395-.535-8.734 6.135-8.71 7.916.01.725.281.774.75.136.404-.55 1.635-1.569 2.735-2.264 1.1-.696 3.35-2.157 5-3.247s3.312-1.983 3.694-1.985.424 4.755.095 10.572l-.599 10.576 6.39 6.081 6.391 6.081-.291 8.065c-.16 4.436-.491 8.265-.734 8.508-.827.828-5.102.944-6.349.173-1.839-1.137-3.104-7.912-2.012-10.783.792-2.084.461-2.899-2.181-5.367-3.819-3.568-5.281-3.622-9.56-.359-2.983 2.275-3.336 3.059-3.274 7.25.039 2.584.435 5.599.88 6.699.467 1.156.595-.791.303-4.614l-.505-6.614 3.28-1.636c1.803-.9 3.625-1.636 4.048-1.636 1.069 0 3.196 6.751 2.488 7.897-.318.515-.103 3.154.478 5.865.765 3.567 2.1 5.947 4.83 8.613l3.772 3.683 4.486-2.507c2.468-1.379 6.108-3.98 8.089-5.779 3.198-2.905 3.665-3.963 4.168-9.441l.565-6.169-10.35-7.046c-6.56-4.466-10.574-7.882-10.962-9.331-.337-1.257-.619-5.107-.626-8.556-.013-5.682.215-6.376 2.422-7.382 2.679-1.22 5.384-.6 6.016 1.38.223.7.695 4.198 1.047 7.773.526 5.324 1.086 6.829 3.097 8.316 2.39 1.767 2.548 1.758 5.979-.362 3.479-2.15 3.521-2.258 3.318-8.529-.175-5.397-.595-6.716-2.799-8.784-3.008-2.821-14.148-10.672-15.01-10.577-.321.035-2.609 1.381-5.084 2.991M46.598 73.5c.297 2.75 1.779 8.634 3.292 13.077 2.467 7.239 2.603 8.301 1.309 10.25-.794 1.195-1.227 2.173-.963 2.173s2.142-2.588 4.172-5.75 2.597-4.46 1.26-2.883l-2.43 2.867-1.8-5.367c-.99-2.952-2.606-8.517-3.59-12.367-1.637-6.398-1.744-6.57-1.25-2m26.274-1.75c-1.243 1.586-1.208 1.621.378.378C74.916 70.821 75.445 70 74.622 70c-.207 0-.995.787-1.75 1.75m13 4c-1.243 1.586-1.208 1.621.378.378C87.916 74.821 88.445 74 87.622 74c-.207 0-.995.787-1.75 1.75m-25.948 9L57.5 87.5l2.75-2.424C62.82 82.81 63.459 82 62.674 82c-.179 0-1.416 1.237-2.75 2.75M135 84.378c0 .207.787.995 1.75 1.75 1.586 1.243 1.621 1.208.378-.378-1.307-1.666-2.128-2.195-2.128-1.372M61.872 87.75c-1.243 1.586-1.208 1.621.378.378C63.916 86.821 64.445 86 63.622 86c-.207 0-.995.787-1.75 1.75M.378 100c0 6.325.163 8.912.361 5.75s.198-8.338 0-11.5-.361-.575-.361 5.75m45.685 6.25c-1.546 3.438-3.095 7.375-3.442 8.75l-.632 2.5 1.19-2.5c3.352-7.046 6.637-15 6.196-15-.275 0-1.765 2.813-3.312 6.25m105.632-2.763c.915 1.919 1.841 3.31 2.058 3.093.457-.457-2.578-6.58-3.263-6.58-.251 0 .291 1.569 1.205 3.487M55 105.409c0 .925 8.69 12.282 10.033 13.112.542.334-1.324-2.459-4.145-6.207-6.056-8.047-5.888-7.85-5.888-6.905M154.101 108c-.037.275 1.065 3.425 2.45 7s2.243 5.15 1.907 3.5c-.575-2.821-4.211-11.583-4.357-10.5M40.079 122.583c.048 1.165.285 1.402.604.605.289-.722.253-1.585-.079-1.917s-.568.258-.525 1.312m119 1c.048 1.165.285 1.402.604.605.289-.722.253-1.585-.079-1.917s-.568.258-.525 1.312M45.328 129.5c.005 3.85.185 5.302.402 3.228.216-2.075.213-5.225-.008-7s-.398-.078-.394 3.772m-6.17.5c0 1.375.227 1.938.504 1.25.278-.687.278-1.812 0-2.5-.277-.687-.504-.125-.504 1.25m121 0c0 1.375.227 1.938.504 1.25.278-.687.278-1.812 0-2.5-.277-.687-.504-.125-.504 1.25m-121.143 7.75c-.008 1.238.435 2.25.985 2.25 1.253 0 1.253-1.061 0-3-.784-1.213-.972-1.069-.985.75m7.004.05c-.071 4.831 9.021 13.983 13.231 13.318.413-.065.75.269.75.743 0 1.455 9.605 2.092 16.006 1.061 6.797-1.095 15.617-4.151 18.554-6.428 1.299-1.007.354-.847-2.858.486-15.115 6.27-28.898 6.563-37.025.787-1.552-1.104-4.131-4.09-5.731-6.637s-2.917-4.045-2.927-3.33M40 143c0 .55.477 1 1.059 1s.781-.45.441-1-.816-1-1.059-1-.441.45-.441 1m1.638 3.5c.317.825 1.033 1.5 1.591 1.5.586 0 .489-.635-.229-1.5-.685-.825-1.401-1.5-1.591-1.5s-.087.675.229 1.5M44 150.393c0 .216.698.661 1.552.989.89.341 1.291.173.941-.393-.587-.951-2.493-1.406-2.493-.596"/><path fill-opacity=".279" fill-rule="evenodd" d="M88 .599c-18.705 3.448-29.925 7.619-42.43 15.77C24.208 30.293 9.108 51.667 2.736 77c-2.891 11.493-3.075 32.878-.383 44.5 5.57 24.047 21.143 47.264 40.524 60.419 9.276 6.296 23.436 12.704 33.683 15.244 12.659 3.138 34.295 3.192 46.44.116 38.169-9.667 67.609-39.995 74.55-76.799.932-4.939 2.089-9.761 2.572-10.716 1.251-2.474 1.139-21.043-.122-20.264-.576.356-1.003-.574-1.007-2.191-.004-1.545-.873-6.409-1.931-10.809-8.654-35.977-37.199-64.544-73.562-73.619C115.754.947 93.773-.465 88 .599M60.5 40.672C47.64 43.502 40.579 52.664 40.595 66.5c.008 7.572 2.89 18.576 6.976 26.641l2.378 4.691-3.943 8.414c-6.742 14.387-8.737 27.195-5.784 37.138 1.608 5.412 8.982 12.786 14.394 14.394 5.055 1.501 17.662 1.595 22.391.167 1.921-.58 4.288-1.231 5.259-1.445.971-.215 5.631-2.051 10.355-4.081 8.46-3.633 8.642-3.664 12.053-2.037 1.905.908 3.952 1.349 4.549.98.623-.385.801-.209.417.411-.81 1.311 2.87 2.648 4.506 1.637q1.16-.717.352.593c-.604.977-.26 1.168 1.347.748 1.187-.311 1.933-.201 1.659.243-.866 1.401 9.689 3.41 17.496 3.33 4.587-.047 9.048-.726 11.486-1.748 4.414-1.85 8.717-5.438 7.972-6.645-.833-1.346 3.65-7.981 4.89-7.238.634.38.534-.07-.22-1.001-1.034-1.274-1.067-1.692-.134-1.692.747 0 1.031-.795.716-2-.287-1.1-.05-2 .527-2 1.569 0 .153-12.553-2.18-19.334C155.194 108.345 150.86 99 149.863 99c-1.137 0-1.11 1.729.039 2.439.495.307 1.389 2.021 1.985 3.809l1.084 3.252-1.986-2.361c-1.092-1.298-1.999-3.098-2.015-4-.027-1.411-.178-1.386-1.089.18-.799 1.374-.553 3.086 1.006 7 6.989 17.554 4.862 32.228-5.559 38.334-7.856 4.605-23.324 4.02-33.55-1.268l-2.811-1.453 7.767-5.891c6.779-5.142 26.145-23.857 20.7-20.003-1.137.804-.237-.299 2-2.452s3.192-3.277 2.125-2.5c-1.589 1.157-1.509.824.438-1.836 2.355-3.217 3.79-4.412 2.402-2-.418.726-.338.901.191.417.5-.459.91-1.171.91-1.583 0-1.584 5.675-11.084 6.621-11.084.549 0 .719-.45.379-1s-.115-1 .5-1 .84-.45.5-1-.156-1 .41-1c.565 0 .74-.749.389-1.664-.464-1.208-.276-1.44.686-.846q1.325.821.605-.344c-.902-1.46.26-5.357 1.389-4.659.459.284.581-.455.27-1.642-.384-1.468-.198-1.931.582-1.449.749.462.935.157.536-.881-.335-.874.148-2.426 1.073-3.449 1.301-1.437 1.385-1.959.371-2.3-1.076-.362-1.072-.731.025-2.06.735-.89 1.003-2.158.596-2.817-.501-.809-.315-.935.572-.387 1.057.653 1.195-.585.712-6.354-1.017-12.128-6.751-19.887-17.124-23.17-8.3-2.628-26.883.467-38.321 6.382-2.995 1.549-3.35 1.498-9.442-1.352-11.511-5.387-26.266-8.11-34.329-6.336m-2.875 2.797c-6.151 2.193-6.389 3.392-.445 2.238 2.926-.568 5.549-1.373 5.829-1.788s2.08-.946 4-1.178c3.091-.373 2.975-.434-1.009-.537-2.475-.064-6.244.505-8.375 1.265m11.644 2.224c.973.254 2.323.237 3-.037s-.119-.481-1.769-.461-2.204.244-1.231.498m-10.217 1.611c-4.056 1.293-14.562 11.278-16.087 15.289-1.245 3.274-.462 11.845 1.708 18.701.834 2.636 1.622 5.336 1.751 6 .445 2.297 3.95 8.706 4.761 8.706 1.347 0 .932-2.089-2.185-11-2.876-8.221-4.145-20.522-2.308-22.359.381-.381.839-1.653 1.019-2.826.59-3.87 10.265-11.292 16.789-12.88 2.653-.646 2.711-.73.5-.731-1.375 0-4.052.495-5.948 1.1m18.761-.621c.721.289 1.584.253 1.916-.079s-.258-.568-1.312-.525c-1.165.048-1.402.285-.604.604M60.5 49.896C52.602 53.552 48 60.982 48 70.074c0 5.234 1.942 14.18 4.291 19.766l1.302 3.098 4.327-5.941c5.723-7.859 20.778-22.331 29.872-28.716 6.222-4.369 6.99-5.215 5.235-5.772-1.134-.36-1.756-1.138-1.387-1.736.394-.637.203-.794-.463-.382-.623.385-3.474.004-6.336-.846-7.28-2.162-19.288-1.989-24.341.351m61.263-.91c-2.605.464-6.99 1.593-9.746 2.508l-5.009 1.664 8.746 6.791c9.558 7.421 19.524 17.42 26.058 26.142C146.171 91.911 146.674 93 145 93c-.55 0-1-.675-1-1.5s-.45-1.5-1-1.5-1-.623-1-1.385-1.139-2.132-2.532-3.044c-1.392-.912-2.401-1.977-2.241-2.365s-2.589-3.631-6.108-7.206-4.873-4.637-3.009-2.359c3.909 4.776 11.804 15.548 14.435 19.696l1.799 2.837 2.298-3.807c3.176-5.262 5.58-16.559 5.186-24.367-.18-3.575-.556-6.725-.834-7s-1.804-2.241-3.391-4.369c-4.824-6.466-15.212-9.54-25.84-7.645M91.334 62.204c-4.309 2.863-12.729 10.063-18.713 16-14.708 14.597-15.944 14.528-2.159-.121l6.038-6.416-7.788 6.916c-18.006 15.991-29.478 39.082-28.095 56.548.261 3.288.934 7.189 1.497 8.669 1.235 3.247 5.895 9.524 6.57 8.849.266-.265 1.305.34 2.31 1.345 3.061 3.061 12.329 4.465 21.151 3.204 8.255-1.179 22.362-6.154 26.065-9.191l2.29-1.879-3.5.857c-1.925.471-6.635 1.992-10.467 3.38-24.32 8.806-41.533.009-41.533-21.228 0-8.952 1.269-8.826 1.472.146.452 20.055 17.684 27.815 41.685 18.774 3.112-1.172 5.919-2.813 6.239-3.646.335-.875.156-1.252-.425-.893-2.762 1.707-29.18-22.802-36.971-34.301-1.925-2.841-3.864-5.177-4.309-5.191s-.531.424-.191.974.141 1-.441 1c-1.405 0-1.341-.554.467-4.05.839-1.622 2.093-2.95 2.788-2.95s3.168 2.899 5.497 6.441c7.902 12.02 25.129 28.421 36.86 35.093l3.171 1.804 6.829-4.413c8.857-5.723 25.569-22.435 31.705-31.706l4.819-7.281-4.348-6.698c-8.18-12.604-33.18-35.24-38.92-35.24-.968 0-5.285 2.342-9.593 5.204m1.981 6.827c-3.393 2.216-7.552 5.322-9.242 6.901C81.295 78.527 81 79.386 81 84.871v6.068l11 7.606 11 7.605v7.803c0 5.715-.401 8.135-1.5 9.047-2.805 2.328-4.5-.525-4.5-7.572 0-5.999-.173-6.458-3.344-8.877-4.166-3.177-5.146-3.177-9.312 0C81.248 108.913 81 109.52 81 114.75c0 5.465.158 5.796 4.859 10.199 2.673 2.503 6.836 5.584 9.25 6.847 2.622 1.37 3.389 1.572 1.905.5-6.776-4.895-12.64-10.164-13.749-12.356-.68-1.342-1.242-4.298-1.25-6.569-.013-3.66.329-4.271 3.017-5.384 3.288-1.362 5.054-.673 3.151 1.23-3.399 3.399.056 12.349 7.548 19.548l5.507 5.291 5.122-3.278c6.824-4.367 11.762-8.771 11.078-9.879-.306-.494-.057-.899.553-.899.718 0 1.003-2.021.809-5.729l-.3-5.729-10.75-7.446L97 93.649v-8.218c0-6.666.307-8.335 1.627-8.841 3.017-1.158 4.373 1.316 4.373 7.982 0 5.999.173 6.458 3.344 8.877 4.121 3.143 4.32 3.143 8.924.015 3.599-2.445 3.732-2.746 3.732-8.415 0-5.753-.101-5.969-4.75-10.107-4.493-4-12.983-9.942-14.204-9.942-.31 0-3.339 1.814-6.731 4.031m10.821 15.66c-.075 3.405.202 6.4.614 6.655s.618-1.631.458-4.191c-.499-7.936-.93-8.927-1.072-2.464M82 85.268v5.267l10.75 7.483 10.75 7.482.564 8.5.563 8.5.187-8.207.186-8.208-3.659-2.792c-9.883-7.543-12.142-10.211-12.82-15.138-.834-6.069-2.102-8.294-3.506-6.155-.843 1.284-.987 1.248-1-.25C84.007 80.787 83.55 80 83 80s-1 2.37-1 5.268M.37 100c0 5.775.165 8.138.367 5.25s.202-7.612 0-10.5S.37 94.225.37 100m57.193-6.307C54.739 97.849 55.114 99.826 58 96c1.025-1.359 1.676-2.657 1.447-2.886s.365-1.009 1.319-1.733c1.005-.764 1.224-1.331.52-1.349-.668-.018-2.343 1.63-3.723 3.661m-3.158 7.152c.399.647.137 1.162-.596 1.17-.804.01-.921.299-.304.75.553.404 3.666 4.335 6.919 8.735 6.282 8.499 17.156 19.756 24.58 25.445 4.378 3.354 4.43 3.367 1.996.5-1.375-1.62-7.025-7.67-12.557-13.445-5.531-5.775-11.941-13.285-14.245-16.688s-4.71-6.51-5.348-6.904c-.72-.446-.889-.28-.445.437M48 112c0 .55.45 1 1 1s1-.45 1-1-.45-1-1-1-1 .45-1 1m-1 3c0 .55.45 1 1 1s1-.45 1-1-.45-1-1-1-1 .45-1 1m-1 3.941c0 2.415.556 2.658 1.349.591.31-.807.133-1.734-.393-2.059s-.956.336-.956 1.468m44 21.437c0 .207.787.995 1.75 1.75 1.586 1.243 1.621 1.208.378-.378-1.307-1.666-2.128-2.195-2.128-1.372m16.441 2.177c-1.864 1.494-1.852 1.512.309.465 1.237-.6 2.25-1.3 2.25-1.555 0-.765-.519-.544-2.559 1.09M151 152c-1.375 1.076-2.007 1.966-1.405 1.978s1.91-.878 2.905-1.978c2.28-2.52 1.721-2.52-1.5 0"/><path fill-opacity=".981" fill-rule="evenodd" d="M85.5 1.1C72.668 2.932 55.198 9.75 44 17.296 14.044 37.483-3.239 74.635.744 110.277c5.288 47.33 41.676 83.61 89.152 88.889 40.546 4.509 80.615-17.36 99.045-54.056 4.71-9.378 8.919-22.473 9.736-30.291.338-3.234.999-6.119 1.469-6.409s.854-4.578.854-9.528-.387-8.761-.86-8.468c-.474.292-1.135-2.089-1.469-5.292-1.437-13.746-9.368-32.289-19.644-45.925C157.723 10.924 121.123-3.984 85.5 1.1M57 41.537C39.468 46.98 35.542 66.963 46.992 92.482l2.743 6.113-2.857 5.65c-1.571 3.107-4.035 9.16-5.476 13.451-2.256 6.722-2.561 9.049-2.199 16.803.451 9.66 1.69 13.098 6.454 17.919 9.439 9.549 29.051 9.321 48.638-.567l5.866-2.961 8.183 3.514c17.187 7.382 30.753 8.39 40.624 3.017 14.09-7.669 15.818-25.411 4.83-49.609l-3.037-6.687 3.109-7.468c6.006-14.425 7.406-24.997 4.575-34.531-4.99-16.803-26.847-21.125-51.135-10.113l-6.305 2.859-7.421-3.428C80.252 40.283 66.832 38.484 57 41.537m3.491 8.328C51.722 53.849 47.268 62.551 48.395 73.5c.54 5.243 4.191 18.5 5.095 18.5.18 0 2.661-2.97 5.514-6.6 6.907-8.789 17.748-19.191 27.242-26.139 4.261-3.118 7.411-5.985 7-6.371s-3.831-1.645-7.601-2.796c-8.74-2.669-19.565-2.768-25.154-.229m53.357 1.275-6.653 2.1 7.653 5.767c8.978 6.767 23.32 21.352 28.372 28.853l3.551 5.274 2.174-6.317c1.196-3.474 2.433-9.52 2.749-13.434.503-6.228.257-7.811-1.971-12.677-1.833-4.004-3.739-6.35-6.808-8.383-3.793-2.512-5.262-2.848-13.339-3.053-6.93-.176-10.649.266-15.728 1.87m-20.356 9.776c-13.195 8.623-30.003 25.247-35.153 34.767l-1.722 3.183 4.572 6.817c8.55 12.752 23.13 26.731 35.344 33.889l4.438 2.601 7.171-4.767c9.507-6.321 24.151-21.016 30.639-30.745l5.226-7.84-1.753-2.994c-3.841-6.558-14.953-19.364-22.075-25.441C111.661 63.118 102.814 57 100.822 57c-.736 0-4.035 1.762-7.33 3.916m-1.814 9.158c-9.73 6.388-10.87 8.079-10.481 15.549l.303 5.812 8.923 6.209c13.58 9.448 12.704 8.235 12.369 17.132-.283 7.495-.366 7.724-2.792 7.724-2.389 0-2.513-.298-2.795-6.714-.279-6.351-.491-6.876-3.914-9.698-3.931-3.24-5.341-3.07-10.041 1.211-1.824 1.662-2.25 3.115-2.25 7.679 0 5.05.335 5.948 3.25 8.724 1.787 1.702 5.907 4.937 9.155 7.189l5.906 4.095 5.04-2.91c2.772-1.601 7.223-4.79 9.89-7.088l4.85-4.177-.296-6.141-.295-6.14-7.5-5.293c-15.07-10.635-14-9.246-14-18.173 0-6.327.316-7.971 1.627-8.474 3.058-1.174 4.373 1.312 4.38 8.282.006 6.377.132 6.713 3.312 8.878 4.198 2.858 5.062 2.824 9.248-.369 3.231-2.465 3.433-2.967 3.433-8.556 0-5.417-.285-6.201-3.25-8.939C112.284 72.685 101.229 65 100.09 65c-.376 0-4.161 2.283-8.412 5.074M.36 100c0 5.225.169 7.362.375 4.75s.206-6.888 0-9.5S.36 94.775.36 100m50.147 10.701c-3.339 8.268-4.583 22.244-2.449 27.512 3.252 8.029 8.905 12.11 18.442 13.316 5.608.709 16.441-1.256 23.397-4.244l4.397-1.889-8.397-6.57c-9.862-7.716-24.086-22.215-29.105-29.669l-3.54-5.256zm90.744 2.049c-5.629 7.561-21.258 23.025-28.501 28.197-2.612 1.866-4.75 3.729-4.75 4.141s2.813 1.683 6.25 2.824c14.616 4.853 26.457 3.475 33.073-3.847 4.488-4.968 6.08-10.663 5.311-18.998-.62-6.725-4.231-19.067-5.578-19.067-.43 0-3.042 3.037-5.805 6.75"/></svg>