<!-- Generated by IcoMoon.io -->
<svg version="1.1" xmlns="http://www.w3.org/2000/svg" width="32" height="32" viewBox="0 0 32 32" fill="#000000">
<title>sun</title>
<path fill="none" stroke="#000000" stroke-linejoin="miter" stroke-linecap="butt" stroke-miterlimit="4" stroke-width="0.5316" d="M31.633 16.013c0 8.66-7.021 15.681-15.681 15.681s-15.681-7.021-15.681-15.681c0-8.66 7.021-15.681 15.681-15.681s15.681 7.021 15.681 15.681z"/>
<path fill="none" stroke="#000000" stroke-linejoin="miter" stroke-linecap="butt" stroke-miterlimit="4" stroke-width="0.5316" d="M26.849 16.013c0 6.018-4.879 10.897-10.897 10.897s-10.897-4.879-10.897-10.897c0-6.018 4.879-10.897 10.897-10.897s10.897 4.879 10.897 10.897z"/>
<path fill="none" stroke="#000000" stroke-linejoin="miter" stroke-linecap="butt" stroke-miterlimit="4" stroke-width="0.5316" d="M15.429 18.5l-0.049 0.307h3.048c-0.003 0.008-0.005 0.017-0.008 0.026-0.074 0.236-0.18 0.573-0.307 0.978-0.255 0.809-0.597 1.888-0.942 2.967s-0.696 2.157-0.968 2.965c-0.136 0.404-0.252 0.739-0.338 0.971-0.029 0.079-0.054 0.145-0.075 0.196-6.005-0.086-10.735-4.93-10.735-10.896 0-6.018 4.76-10.823 10.902-10.823 0.46 0 0.919 0.034 1.264 0.067 0.116 0.011 0.218 0.023 0.304 0.033l-2.096 13.208z"/>
<path d="M9.032 11.918c0.738 0 4.053 0.226 6.653 0.227 2.629 0.001 6.728-0.227 6.728-0.227s1.207-0.262 1.55 0.567c0.299 0.724-0.441 1.647-0.792 2.703s-0.395 2.503-1.005 2.703c-0.61 0.2-4.364 0-4.711 0-0.537 0-0.85-3.733-1.354-3.742s-0.895 3.742-1.429 3.742c-0.265 0-4.139 0.174-4.777 0-0.489-0.133-0.599-1.626-0.957-2.703-0.345-1.039-1.127-1.919-0.85-2.703 0.143-0.406 0.514-0.567 0.944-0.567z"/>
<path fill="none" stroke="#000000" stroke-linejoin="miter" stroke-linecap="butt" stroke-miterlimit="4" stroke-width="0.5316" d="M11.912 20.53c0 0 1.322 1.375 4.114 1.375 2.866 0 3.904-1.346 3.904-1.346"/>
</svg>
