<!-- Generated by IcoMoon.io -->
<svg version="1.1" xmlns="http://www.w3.org/2000/svg" width="32" height="32" viewBox="0 0 32 32" fill="#000000">
<title>super</title>
<path d="M17.304 12.098c1.971 0.633 3.308 1.406 4.505 2.25 1.619-1.899 1.689-4.29 1.548-5.907-1.337 1.617-3.378 2.883-6.053 3.657z"/>
<path d="M7.732 29.115c1.408-1.899 3.167-2.321 6.405-3.094 1.197-0.281 2.604-0.633 4.293-1.125 3.941-1.125 4.927-3.375 5.138-4.571 0.352-1.617-0.211-3.305-1.478-4.29-2.675-2.18-5.279-3.024-9.15-3.868l-0.845-0.141 0.845-0.070c4.716-0.563 8.024-2.11 9.783-4.571 1.337-1.828 1.408-3.657 1.408-4.5-1.056 1.617-3.097 2.11-6.405 2.883-1.337 0.352-2.886 0.703-4.645 1.195-3.941 1.125-4.927 3.375-5.138 4.571-0.352 1.617 0.211 3.305 1.478 4.29 2.675 2.18 5.279 3.024 9.15 3.868l0.845 0.211-0.845 0.070c-2.393 0.281-4.716 0.844-6.475 1.477-2.252 0.774-3.66 1.758-4.223 2.883-0.915 1.477-0.422 3.938-0.141 4.782z"/>
</svg>
