<svg xmlns="http://www.w3.org/2000/svg" width="480" height="480" fill="#000000"><path fill="#000000" fill-rule="evenodd" d="M424 240c0 101.62-82.38 184-184 184S56 341.62 56 240 138.38 56 240 56s184 82.38 184 184Zm-212.72 77.76c7.04 2.88 14.56 4.64 22.56 5.28v24.48h17.52V322.8c7.52-.8 14.48-2.56 20.88-5.28 6.56-2.88 12.16-6.48 16.8-10.8 4.8-4.48 8.48-9.6 11.04-15.36 2.72-5.92 4.08-12.48 4.08-19.68 0-6.72-1.2-12.72-3.6-18-2.24-5.44-5.44-10.08-9.6-13.92-4-3.84-8.72-6.96-14.16-9.36-5.44-2.4-11.2-4.08-17.28-5.04l-8.16-1.2v-43.92c6.08 1.6 11.04 4.56 14.88 8.88 4 4.16 6.16 9.12 6.48 14.88h29.52c-.32-6.4-1.84-12.4-4.56-18-2.56-5.6-6.08-10.56-10.56-14.88s-9.76-7.84-15.84-10.56c-6.08-2.88-12.72-4.8-19.92-5.76V132h-17.52v22.32a69.37 69.37 0 0 0-20.4 5.04c-6.4 2.72-12.08 6.32-17.04 10.8-4.96 4.32-8.88 9.36-11.76 15.12-2.88 5.6-4.32 11.6-4.32 18 0 12.32 3.76 22.48 11.28 30.48 7.68 8 18 12.88 30.96 14.64l11.28 1.68v47.52c-8.16-.8-14.88-3.76-20.16-8.88-5.12-5.28-7.84-11.84-8.16-19.68H176c.16 7.36 1.76 14.16 4.8 20.4 3.04 6.24 7.12 11.76 12.24 16.56 5.12 4.8 11.2 8.72 18.24 11.76Zm57.6-28.56c-4.16 4.16-10 6.88-17.52 8.16v-44.64l4.08.72c5.12.96 9.68 2.96 13.68 6 4 2.88 6 7.36 6 13.44 0 6.56-2.08 12-6.24 16.32Zm-52.32-102.24c4.8-4 10.56-6.48 17.28-7.44v42.24l-7.2-1.2c-5.12-.8-9.28-2.56-12.48-5.28-3.04-2.88-4.56-7.12-4.56-12.72 0-6.56 2.32-11.76 6.96-15.6Z" clip-rule="evenodd"/><path fill="#000000" fill-rule="evenodd" d="M480 240c0 132.548-107.452 240-240 240S0 372.548 0 240 107.452 0 240 0s240 107.452 240 240Zm-32 0c0 114.875-93.125 208-208 208S32 354.875 32 240 125.125 32 240 32s208 93.125 208 208Z" clip-rule="evenodd"/></svg>