<!-- Generated by IcoMoon.io -->
<svg version="1.1" xmlns="http://www.w3.org/2000/svg" width="32" height="32" viewBox="0 0 32 32" fill="#000000">
<title>swftc</title>
<path d="M12.948 10.492c0-0.292 0.842-2.704 2.988-3.28 2.988-0.802 4.956 1.458 4.956 1.458s-0.74 0.366-1.093 0.729c-0.369 0.379-0.583 0.729-0.875 1.385-0.127 0.286-0.040 7.1-0.010 9.521v0c0.006 0.458 0.010 0.759 0.010 0.828 0 0.656-0.583 2.915-2.915 3.644-2.868 0.896-4.81-1.020-4.81-1.020s0.884-0.554 1.239-1.093c0.346-0.526 0.51-0.9 0.51-1.53v-10.641zM6.972 9.982c0 0-1.263 1.714-1.312 3.061-0.002 0.055-0.004 0.108-0.006 0.16-0.046 1.237-0.066 1.769 0.953 2.674 0.117 0.104 0.23 0.201 0.341 0.293-0.654-0.643-0.885-1.281-0.851-2.398 0.041-1.344 0.665-2.371 1.895-2.915 1.458-0.645 3.134 0.219 3.134 0.219s-1.775 0.030-2.551 0.729c-0.729 0.656-1.27 1.847-0.802 2.842s1.488 1.757 2.551 2.041c0.243 0.065 0.511 0.043 0.774-0.026 0.691-0.297 1.264-0.66 1.415-0.758 0.046-0.058 0.070-0.090 0.070-0.090s-0.002 0.023-0.006 0.064c0.030-0.024 0.047-0.037 0.047-0.037s-0.017 0.020-0.049 0.057c-0.052 0.51-0.374 3.204-1.523 4.434-1.335 1.429-2.929 1.833-4.883 1.749-2.229-0.095-3.514-0.903-4.737-2.769-1.165-1.777-1.101-3.91-0.365-5.903 0.607-1.643 2.915-2.915 2.915-2.915s-1.59 2.601-1.312 4.227c0.085 0.497 0.208 0.94 0.378 1.338-0.306-1.524 0.134-3.375 1.152-4.472 0.947-1.020 2.769-1.603 2.769-1.603zM26.334 13.115c-0.048-1.347-1.313-3.061-1.313-3.061s1.824 0.583 2.773 1.603c1.019 1.097 1.46 2.947 1.154 4.472 0.171-0.398 0.294-0.84 0.379-1.338 0.278-1.626-1.313-4.227-1.313-4.227s2.311 1.272 2.919 2.915c0.737 1.994 0.802 4.126-0.365 5.903-1.225 1.866-2.511 2.674-4.742 2.769-1.956 0.083-3.552-0.32-4.889-1.749-1.15-1.23-1.473-3.925-1.524-4.434-0.032-0.036-0.049-0.057-0.049-0.057s0.016 0.013 0.047 0.037c-0.004-0.042-0.006-0.064-0.006-0.064s0.025 0.032 0.071 0.090c0.151 0.098 0.725 0.461 1.416 0.758 0.264 0.069 0.532 0.091 0.775 0.026 1.064-0.284 2.085-1.045 2.554-2.041s-0.073-2.186-0.803-2.842c-0.777-0.699-2.554-0.729-2.554-0.729s1.678-0.864 3.137-0.219c1.231 0.544 1.856 1.571 1.897 2.915 0.034 1.117-0.197 1.755-0.852 2.398 0.111-0.091 0.224-0.189 0.341-0.293 1.020-0.904 1.001-1.436 0.954-2.674l-0-0.004c-0.002-0.051-0.004-0.103-0.006-0.157z"/>
</svg>
