<svg xmlns="http://www.w3.org/2000/svg" width="200" height="200" version="1.1" fill="#000000"><path fill-opacity=".157" d="M 82.894 4.489 C 52.434 10.274, 27.154 29.802, 13.559 58.050 C 6.288 73.157, 4.660 80.668, 4.573 99.500 C 4.510 113.276, 4.823 116.681, 6.820 124 C 16.203 158.369, 42.064 184.629, 75.290 193.526 C 125.473 206.963, 177.186 177.028, 192.055 125.933 C 195.142 115.323, 195.895 92.524, 193.542 80.909 C 188.821 57.610, 175.427 36.500, 156.020 21.770 C 147.742 15.488, 133.797 8.716, 123.500 5.980 C 112.994 3.188, 93.512 2.472, 82.894 4.489 M 88.250 5.066 C 66.410 7.906, 47.179 17.717, 31.703 33.916 C -0.167 67.273, -3.623 118.542, 23.440 156.469 C 29.428 164.860, 42.152 176.577, 50.944 181.796 C 66.798 191.208, 81.426 195.140, 100.500 195.118 C 142.992 195.067, 179.642 166.445, 191.198 124.284 C 194.341 112.816, 194.332 86.953, 191.181 75.500 C 180.646 37.213, 148.733 9.428, 110.223 5.016 C 100.425 3.893, 97.215 3.901, 88.250 5.066 M 84.734 14.584 C 52.311 20.445, 25.502 45.269, 17.097 77.211 C 14.198 88.230, 13.699 92.947, 15.365 93.587 C 16.133 93.881, 20.678 91.877, 25.464 89.133 C 42.281 79.490, 61.463 73.339, 82.251 70.922 C 102.364 68.584, 113.340 71.100, 121.257 79.863 C 127.389 86.651, 128.422 89.464, 128.463 99.500 C 128.511 111.091, 126.927 114.175, 114.041 127.582 C 100.117 142.069, 90.720 156.835, 84.625 173.810 C 80.928 184.105, 81.037 184.713, 86.750 185.689 C 89.362 186.135, 96.225 186.416, 102 186.314 C 133.486 185.757, 161.855 167.447, 176.081 138.500 C 182.731 124.966, 184.168 119.053, 184.705 103 C 185.082 91.737, 184.815 88.051, 183.089 80.756 C 180.380 69.301, 177.262 61.801, 171.520 52.925 C 152.456 23.455, 118.541 8.471, 84.734 14.584 M 76.546 80.534 C 62.505 82.796, 48.828 87.150, 36.500 93.282 C 28.518 97.252, 15.306 105.760, 14.709 107.315 C 13.280 111.039, 17.861 127.814, 23.198 138.399 C 32.088 156.032, 48.499 172.141, 64.606 179.045 C 71.915 182.178, 72.548 181.887, 75.036 174.250 C 81.182 155.384, 93.099 136.185, 108.357 120.566 C 118.331 110.357, 120 107.364, 120 99.689 C 120 92.771, 116.917 86.826, 111.168 82.662 C 107.025 79.661, 106.381 79.517, 96.170 79.309 C 90.301 79.189, 81.471 79.740, 76.546 80.534" stroke="none" fill="#000000" fill-rule="evenodd"/><path fill-opacity=".181" d="M 82 15.375 C 64.694 19.386, 50.526 27.440, 38.443 40.136 C 30.984 47.973, 26.916 53.858, 22.464 63.256 C 17.132 74.510, 13.291 91.826, 15.785 93.367 C 16.216 93.634, 20.274 91.694, 24.802 89.057 C 35.878 82.606, 51.725 76.422, 65.309 73.252 C 74.796 71.037, 78.936 70.629, 92.500 70.570 C 108.464 70.500, 108.512 70.507, 113.922 73.500 C 120.270 77.012, 126.464 84.349, 128.117 90.312 C 128.755 92.616, 129.249 97.311, 129.214 100.747 C 129.120 109.887, 126.019 115.826, 116.123 125.815 C 101.397 140.680, 90.853 157.157, 84.455 175.302 C 82.391 181.155, 81.989 183.389, 82.847 184.247 C 84.870 186.270, 106.614 186.462, 116.113 184.540 C 142.697 179.162, 166.704 160.008, 177.524 135.543 C 188.658 110.366, 186.933 79.336, 173.106 56.062 C 162.098 37.533, 146.473 24.889, 125.865 17.832 C 117.254 14.884, 115.333 14.605, 102 14.363 C 92.858 14.197, 85.468 14.571, 82 15.375 M 83.265 80.032 C 61.755 82.293, 35.606 91.997, 19.619 103.652 L 14.737 107.210 15.339 112.969 C 16.837 127.298, 25.940 146.034, 37.623 158.835 C 46.934 169.038, 67.363 182.226, 71.435 180.663 C 72.180 180.378, 73.791 177.074, 75.016 173.322 C 78.083 163.929, 85.941 148.367, 92.243 139.204 C 95.134 135, 101.884 126.997, 107.243 121.419 C 112.602 115.841, 117.664 109.655, 118.493 107.671 C 123.015 96.848, 116.832 83.809, 105.596 80.473 C 100.328 78.908, 94.963 78.802, 83.265 80.032" stroke="none" fill="#000000" fill-rule="evenodd"/><path fill-opacity=".438" d="M 85.831 15.023 C 66.321 18.315, 46.482 29.881, 34.062 45.204 C 26.908 54.030, 20.319 67.288, 17.432 78.668 C 14.768 89.171, 14.414 93, 16.106 93 C 16.714 93, 20.666 91.058, 24.887 88.684 C 43.515 78.208, 63.244 72.058, 84.929 69.966 C 103.600 68.166, 111.415 69.863, 119.950 77.574 C 126.653 83.630, 129.383 89.938, 129.437 99.500 C 129.501 110.566, 127.436 114.604, 115.197 127.343 C 100.592 142.547, 90.373 158.733, 84.525 175.927 C 82.592 181.611, 82.399 183.086, 83.474 183.979 C 85.922 186.010, 103.720 186.369, 113.889 184.592 C 132.028 181.423, 145.956 174.058, 159.500 160.472 C 181.337 138.567, 189.293 109.782, 181.977 79.151 C 172.857 40.966, 138.062 13.599, 99.292 14.118 C 94.456 14.182, 88.399 14.590, 85.831 15.023 M 74.500 81.542 C 57.066 84.680, 37.223 92.584, 21.905 102.493 C 13.979 107.620, 14.036 107.419, 17.008 119.818 C 23.090 145.188, 41 167.150, 64.622 178.204 C 68.184 179.871, 71.351 180.983, 71.659 180.675 C 71.967 180.367, 73.453 176.601, 74.961 172.307 C 78.308 162.779, 84.887 149.561, 90.295 141.500 C 95.587 133.611, 107.690 119.287, 111.320 116.616 C 122.310 108.530, 122.036 90.690, 110.808 83.251 C 106.910 80.669, 105.915 80.488, 94.578 80.301 C 87.518 80.185, 79.176 80.700, 74.500 81.542" stroke="none" fill="#000000" fill-rule="evenodd"/><path fill-opacity=".464" d="M 88.430 14.987 C 70.563 17.495, 55.193 25.017, 41.811 37.803 C 32.795 46.417, 26.399 55.504, 21.884 66.113 C 18.384 74.339, 14.591 90.991, 15.916 92.316 C 16.388 92.788, 18.527 92.061, 20.701 90.689 C 27.680 86.283, 40.276 80.310, 49.312 77.122 C 64.360 71.812, 76.678 69.688, 93 69.588 C 109.698 69.487, 113.664 70.664, 120.858 77.858 C 127.710 84.710, 129.463 89.108, 129.483 99.500 C 129.505 111.271, 127.837 114.594, 115.456 127.438 C 104.790 138.503, 95.943 151.027, 90.102 163.330 C 85.715 172.570, 82.325 182.658, 83.284 183.617 C 84.648 184.981, 99.921 185.762, 108.363 184.899 C 159.673 179.654, 193.860 130.207, 181.486 79.135 C 172.598 42.448, 141.551 16.652, 103.857 14.636 C 98.710 14.360, 91.769 14.519, 88.430 14.987 M 80.430 81.046 C 59.142 83.827, 33.174 93.989, 18.896 105.125 L 15.293 107.936 16.175 113.718 C 19.177 133.403, 30.720 153.301, 46.859 166.614 C 53.856 172.385, 68.129 180.330, 70.579 179.817 C 71.463 179.632, 73.263 176.167, 74.898 171.500 C 81.194 153.538, 92.061 136.241, 106.610 121.027 C 117.228 109.923, 119 106.917, 119 100.010 C 119 91.656, 114.422 84.746, 106.768 81.548 C 102.756 79.871, 91.121 79.650, 80.430 81.046" stroke="none" fill="#000000" fill-rule="evenodd"/></svg>