<svg xmlns="http://www.w3.org/2000/svg" width="200" height="200" fill="#000000"><path fill-opacity=".384" fill-rule="evenodd" d="M0 100.005V200.01l100.25-.255 100.25-.255.255-99.75L201.01 0H0zm.481.495c0 55 .121 77.647.269 50.326.148-27.32.148-72.32 0-100C.602 23.147.481 45.5.481 100.5M85.25 24.126c-2.888.565-5.25 1.462-5.25 1.994s-.562.895-1.25.805c-5.702-.74-6.204 1.275-.764 3.07 2.192.724 4.736 2.146 5.655 3.16C84.559 34.17 85.915 35 86.655 35S88 35.45 88 36s.338.897.75.771c1.044-.32 7.25 3.485 7.25 4.445 0 .431.675.784 1.5.784s1.5.42 1.5.934c0 1.202 5.256.27 6.091-1.08.348-.564.807-.905 1.021-.759.213.145 4.273-.55 9.02-1.547 11.364-2.384 23.666-1.836 29.368 1.309 2.316 1.278 2.973 1.929 1.56 1.547-4.251-1.149-22.379-.728-27.06.629-2.475.717-4.95 1.411-5.5 1.542s-2.517.893-4.372 1.693l-3.372 1.454 2.543.638c1.398.351 3.212.381 4.031.067.94-.361 1.732.193 2.147 1.501.575 1.812 2.264 2.587 4.773 2.19.412-.065.75.332.75.882s.845 1 1.878 1 2.415.648 3.073 1.441c.657.792 1.843 1.192 2.635.888s2.063-.035 2.825.597c1.462 1.213 2.102 1.413 10.138 3.161 8.562 1.863 15.922-1.029 17.034-6.693.502-2.557.035-3.76-2.645-6.812-7.052-8.031-22.289-16.975-35.109-20.608-8.588-2.434-26.644-3.399-34.579-1.848m14.829 16.565c-.114 1.721 1.656 2.548 2.506 1.171.432-.698.292-.904-.345-.51-.588.363-1.297.095-1.576-.596-.362-.899-.529-.917-.585-.065m-7.536 4.24c-.317.512-.193 1.167.274 1.456s.85-.13.85-.931c0-1.686-.316-1.833-1.124-.525M142.5 72.464c-8.693 1.593-15.5 3.614-15.5 4.601 0 .411-.9.512-2 .225-1.162-.304-2-.031-2 .652 0 .647-.402.927-.894.624-.491-.304-2.629.202-4.75 1.125-2.121.922-4.464 1.564-5.206 1.426-.844-.157-1.064.214-.586.986.528.855.266 1.046-.849.618-1.131-.434-1.447-.187-1.059.824.304.794.918 1.218 1.363.943.446-.275 1.038.065 1.317.756.322.8.535.66.585-.387.129-2.681 2.561-2.892 2.723-.236.079 1.301-.228 2.136-.681 1.856s-1.083-.092-1.399.419c-.658 1.065 1.336.923 3.175-.226.873-.546 1.044-.268.58.942-.447 1.164-.283 1.484.511.993.644-.398 1.17-.246 1.17.336S119.477 90 120.059 90s.781-.45.441-1-.194-1 .324-1c.519 0 1.19.945 1.492 2.101.302 1.155.999 1.823 1.548 1.483s1.268-.179 1.599.356 1.204.741 1.94.459c.737-.283 1.972.119 2.746.893 1.837 1.837 8.525 4.028 9.831 3.22.561-.346 1.02-.191 1.02.346s1.238 1.417 2.75 1.956c2.374.847 2.059.95-2.31.76-2.783-.122-5.708-.625-6.5-1.119-2.416-1.508-3.526-1.307-3.674.663-.078 1.035.393 1.889 1.046 1.897.71.009.584.406-.312.985-1.165.753-.872.973 1.309.985 1.545.008 2.552.431 2.238.939-.314.507.777 1.882 2.423 3.055 1.646 1.172 2.889 2.444 2.762 2.826-.128.382.083.831.469.998 1.632.705 7.303 6.559 7.344 7.582.025.613.475 1.077 1 1.031 1.003-.087 5.975 4.722 5.773 5.584-.065.275.259.397.721.27.461-.126.667.662.457 1.75-.264 1.373.163 1.98 1.395 1.98.977 0 2.089.313 2.471.696 1.075 1.074 3.721 1.247 3.074.2-.316-.511-1.063-.627-1.66-.258-.648.401-.797.205-.37-.486.511-.827 1.27-.861 2.655-.12 1.335.715 1.939.716 1.939.003 0-.569.575-1.035 1.277-1.035.703 0 2.547-1.447 4.099-3.215 3.979-4.535 5.994-14.609 5.257-26.285-1.532-24.256-9.73-30.51-34.133-26.036M116.5 93c-.34.55-.141 1 .441 1S118 93.55 118 93s-.198-1-.441-1-.719.45-1.059 1m5.103 1.833c-.283.459.12.834.897.834s1.18-.375.897-.834S122.71 94 122.5 94s-.614.375-.897.833m6.667 3.236c-.08 1.062.276 1.931.792 1.931 1.139 0 1.254-2.686.146-3.372-.436-.269-.858.379-.938 1.441"/><path fill-opacity=".032" fill-rule="evenodd" d="M0 100.005V200.01l100.25-.255 100.25-.255.255-99.75L201.01 0H0zm.481.495c0 55 .121 77.647.269 50.326.148-27.32.148-72.32 0-100C.602 23.147.481 45.5.481 100.5M84 24.363c-8.073 1.889-12.794 3.558-19.374 6.852-7.733 3.869-17.274 10.426-18.027 12.387-.87 2.267-.75 2.601.651 1.81.966-.545.961-.395-.021.662-.699.753-2.23 1.381-3.401 1.397-1.214.017-2.237.752-2.38 1.71-.162 1.083.247 1.489 1.151 1.143.856-.329 1.401.11 1.401 1.128 0 .916-.419 1.407-.931 1.091s-1.196-.146-1.52.378c-.34.549.484.759 1.939.495C46.09 52.945 52 55.375 52 56.917c0 .477 1.237 1.213 2.75 1.637l2.75.77-3 .804c-2.416.648-2.222.699 1 .265 2.2-.297 4.582-.582 5.293-.633s1.096-.608.854-1.237c-.295-.769.857-1.041 3.518-.83 2.432.192 3.721-.069 3.344-.679-.339-.549.017-.749.799-.449.777.298 5.638-1.314 10.802-3.581 29.631-13.01 38.088-15.415 51.89-14.753 6.346.304 9.514.968 12.5 2.62 2.429 1.343 3.018 1.942 1.5 1.524-7.854-2.165-29.15.003-37.526 3.819-2.273 1.035-2.329 1.218-.72 2.334 3.239 2.246 24.699 10.296 30.615 11.485 10.696 2.148 18.019-.374 19.224-6.619.492-2.551.018-3.768-2.655-6.812-7.027-8.003-22.213-16.93-35.109-20.639-9.168-2.636-27.804-3.458-35.829-1.58M42.118 55.927c-1.004.621-.946.925.266 1.39.854.328 1.799.196 2.1-.292.789-1.275-.849-2.036-2.366-1.098M46 58c-.819 1.531-.76 2 .251 2 .726 0 1.32-.9 1.32-2s-.112-2-.25-2-.732.9-1.321 2m-6.8 14.075C39.583 73.832 41.575 76 42.806 76c.522 0 1.567.761 2.322 1.692 1.168 1.441 1.164 1.566-.033.845-.953-.574-1.175-.475-.69.308.392.635 1.388 1.155 2.213 1.155s1.222.45.882 1 .005 1 .767 1c.761 0 2.475 1.198 3.809 2.661 1.333 1.464 1.792 2.294 1.019 1.846-.945-.549-1.171-.438-.69.338.392.635 1.189 1.155 1.771 1.155 1.33 0 9.405 8.235 9.071 9.25-.136.412.35.75 1.079.75s2.416 1.198 3.75 2.661c1.333 1.464 1.749 2.287.924 1.828q-1.5-.833.348 1.276c1.016 1.16 1.552 2.587 1.191 3.172-.586.947 1.475 1.567 3.816 1.146.471-.084 1.57.425 2.442 1.132s1.295.798.939.202.027-1.084.851-1.084 1.288.551 1.029 1.224c-.374.975 5.637 3.508 9.384 3.954.275.033 1.57.653 2.877 1.378 1.814 1.005 2.551 1.036 3.111.13.522-.845.916-.712 1.366.461.347.906 1.085 1.367 1.639 1.024s1.014-.033 1.022.687c.011.951.281.899.985-.191.838-1.297.971-1.273.985.171.009 1.07 1.183 1.92 3.265 2.365 1.787.382 3.899 1.205 4.692 1.829 1.107.871 1.267.845.691-.115-.413-.687-.312-1.25.225-1.25.536 0 1.125.416 1.309.925s1.008 1.071 1.833 1.25 1.76.675 2.077 1.104c.317.428 1.892.878 3.5 1 1.608.121 3.189.582 3.514 1.022s1.694.919 3.042 1.063 2.883.525 3.409.847c3.546 2.17 16.715 4.295 26.458 4.269 6.069-.016 8.313-.481 11.759-2.439 5.329-3.027 6.87-5.367 8.731-13.264 2.794-11.849 1.12-29.817-3.469-37.242-5.842-9.453-21.603-9.642-50.021-.6-18.887 6.009-18.838 5.685-1.859 12.245 7.898 3.051 16.751 6.33 19.674 7.286s5.148 1.904 4.944 2.108c-1.161 1.162-25.91-6.363-47.594-14.47-4.585-1.714-8.817-2.819-9.405-2.456-.681.421-.772.18-.25-.663.594-.962.362-1.15-.846-.686-.95.364-1.664.151-1.664-.497 0-.624-.296-.839-.658-.477s-1.149.277-1.75-.189c-.601-.465-2.555-1.338-4.342-1.939-2.466-.829-3.254-.804-3.265.105q-.016 1.196-.889-.18c-.48-.758-1.373-1.069-1.984-.691-.612.378-1.112.282-1.112-.214 0-1.259-7.143-3.267-9.802-2.755-1.209.233-2.198-.049-2.198-.626 0-.578-.752-.762-1.67-.409-.919.352-1.957.177-2.307-.39-.35-.566-4.121-1.324-8.38-1.684-6.298-.533-7.688-.398-7.443.722m-4.95.956c-2.679 1.077-2.954 1.906-.5 1.509.962-.156 2.323.173 3.024.731s1.563.725 1.917.372c.353-.354.131-.643-.493-.643s-.876-.675-.56-1.5c.646-1.683-.107-1.788-3.388-.469m-9.017 5.968c-.928 1.486-.92 2.065.037 2.615.677.389.896.338.489-.112s-.231-1.433.392-2.184c.624-.752.94-1.56.704-1.797-.237-.236-.967.429-1.622 1.478M72 106c0 .55.477 1 1.059 1s.781-.45.441-1-.816-1-1.059-1-.441.45-.441 1m-14.493.989c-.35.566.051.734.941.393 1.732-.665 2.049-1.382.611-1.382-.518 0-1.216.445-1.552.989m7.057 2.718c-.542 1.425-.428 1.54.56.56.684-.679.991-1.486.683-1.793-.308-.308-.867.247-1.243 1.233m6.67 1.587c.954.772 1.404 1.769 1 2.215s-.168.486.523.088c.734-.423 1.507-.074 1.857.84.33.859 1.028 1.563 1.552 1.563s.674-.45.334-1c-.88-1.424.858-1.24 2.359.25 1.01 1.002 1.121.888.562-.581-.445-1.169-1.369-1.654-2.558-1.343-1.024.267-2.112.081-2.418-.415-.306-.495-1.544-1.377-2.751-1.961-1.979-.956-2.024-.923-.46.344m12.904 5.621c-.684.422-1.167 1.177-1.072 1.677.41 2.176-.153 3.473-1.221 2.813-.715-.443-.883-.275-.44.44 1.063 1.721 2.006 1.409 3.108-1.03 1.271-2.814 3.464-3.52 3.566-1.148.043 1.008.297 1.296.565.639.267-.656 1.244-.922 2.171-.59 2.455.878 1.162-.219-2.374-2.016-1.683-.855-3.619-1.208-4.303-.785m1.405 3.016c-.317.512-.193 1.167.274 1.456s.85-.13.85-.931c0-1.686-.316-1.833-1.124-.525M71 124.833c0 .459.655.834 1.456.834s1.224-.375.941-.834-.938-.833-1.456-.833-.941.375-.941.833m70.5 17.658c-.55.184-2.256.612-3.791.951s-2.54 1.022-2.234 1.518.089 1.191-.483 1.545c-.573.354-.918.273-.767-.181.151-.453-.063-.937-.475-1.074-1.842-.614-2.751-.121-2.765 1.5-.013 1.444-.175 1.497-.929.307-.781-1.235-1.319-1.246-3.734-.076-1.552.753-3.16 1.289-3.572 1.194-.412-.096-.75.452-.75 1.218s-.675 1.652-1.5 1.969c-.825.316-1.5.139-1.5-.393 0-.533-.675-.969-1.5-.969s-1.5.477-1.5 1.059-.45.781-1 .441-1-.141-1 .441-.338.97-.75.861c-1.283-.339-5.25 1.289-5.25 2.154 0 .452-.777.759-1.726.683s-1.793.424-1.875 1.111c-.284 2.383-.405 2.49-1.652 1.455-.888-.737-1.834-.594-3.25.493-1.923 1.476-1.894 1.515.777 1.052 1.525-.265 3.028-.07 3.339.433.322.521 1.177.406 1.988-.267 1.158-.961 1.188-1.484.161-2.799-1.123-1.439-1.068-1.465.5-.234 1.178.924 1.446 1.764.808 2.533-1.449 1.745-.029 3.223 4.933 5.137 2.473.953 4.991 2.337 5.596 3.075.604.737 1.392 1.048 1.75.69s.651-.126.651.515c0 .642.541 1.054 1.201.917.661-.138 1.761 1.325 2.444 3.25s1.268 2.952 1.299 2.281c.033-.716.777-.97 1.806-.615 1.457.502 1.423.349-.198-.913-1.83-1.424-1.709-1.508 2-1.384 3.22.107 3.921-.198 3.803-1.654-.113-1.392.154-1.538 1.208-.662 1.029.853 2.323.577 5.395-1.15 2.223-1.249 4.042-2.665 4.042-3.146s-.419-.616-.931-.3c-.512.317-1.235.084-1.606-.518-.454-.734.328-.934 2.386-.61 3.2.504 5.864-1.367 4.678-3.285-.355-.574.083-1.044.973-1.044.975 0 1.359.497.967 1.25-.358.688 1.234-.693 3.54-3.067 2.89-2.977 4.034-4.918 3.685-6.252-.278-1.063-.097-1.682.401-1.373.499.308.907.107.907-.447 0-1.011-4.061-5.817-5-5.917-.275-.029-1.767-.535-3.315-1.124-2.717-1.033-6.106-1.272-8.185-.579m-14.993 5.498c-.35.566.051.734.941.393 1.732-.665 2.049-1.382.611-1.382-.518 0-1.216.445-1.552.989m-42 6c-.35.566.051.734.941.393 1.732-.665 2.049-1.382.611-1.382-.518 0-1.216.445-1.552.989m26.699.636c-1.052 1.126-1.017 1.375.196 1.375.814 0 1.788-.498 2.164-1.107.478-.773.97-.698 1.635.25.788 1.124.886 1.115.571-.056-.513-1.904-2.985-2.155-4.566-.462m-25.663 1.306c-.665 1.076 1.292 2.567 2.19 1.669.33-.33.049-.6-.625-.6s-.948-.45-.608-1 .393-1 .118-1-.759.419-1.075.931M152 157.059c0 .582.45.781 1 .441s1-.816 1-1.059-.45-.441-1-.441-1 .477-1 1.059m-13 1.324c0 .211.9.619 2 .907 1.1.287 2 .115 2-.384 0-.498-.9-.906-2-.906s-2 .173-2 .383m-45 3.176c0 .857.45 1.281 1 .941s1-1.041 1-1.559-.45-.941-1-.941-1 .702-1 1.559m-15.387 3.624c.289.467.944.591 1.456.274 1.308-.808 1.161-1.124-.525-1.124-.801 0-1.22.383-.931.85M115 176.892c0 .674-.52.905-1.155.513-.744-.46-.881-.273-.387.528.546.882 1.078.931 1.838.171.589-.589.763-1.378.387-1.754-.375-.376-.683-.132-.683.542m3.558.015c-.309.498.34.671 1.441.383 2.335-.611 2.63-1.29.56-1.29-.793 0-1.693.408-2.001.907"/><path fill-opacity=".645" fill-rule="evenodd" d="M0 100.005V200.01l100.25-.255 100.25-.255.255-99.75L201.01 0H0zm.481.495c0 55 .121 77.647.269 50.326.148-27.32.148-72.32 0-100C.602 23.147.481 45.5.481 100.5m83.005-76.096c-15.041 3.437-30.973 11.977-39.4 21.119-5 5.424-5.304 9.502-.95 12.738 6.313 4.692 19.609 2.558 39.782-6.383 6.37-2.824 15.407-6.609 20.082-8.411 15.504-5.978 31.76-7.013 41.033-2.612 2.457 1.166 3.567 1.933 2.467 1.705-6.593-1.37-15.26-1.582-22.133-.54-9.276 1.406-18.976 4.771-17.631 6.116 1.825 1.825 22.916 9.866 30.049 11.456 8.941 1.994 15.456 1.258 18.841-2.127 4.092-4.092 3.2-7.138-4.149-14.168-7.218-6.905-22.202-15.029-32.977-17.879-8.307-2.196-27.416-2.75-35.014-1.014M36.34 71.958c-5.692 1.356-9.759 4.413-12.09 9.088-5.747 11.528-4.285 37.625 2.538 45.309 2.967 3.341 9.304 5.6 15.778 5.623 8.997.033 16.143-1.474 34.344-7.239l16.41-5.198-5.91-2.674c-3.251-1.471-11.933-4.835-19.295-7.475-7.362-2.641-12.867-4.975-12.232-5.186 1.833-.611 20.614 5.235 41.205 12.826 40.403 14.896 58.905 18.026 69.993 11.84 6.752-3.767 9.919-12.333 9.919-26.825 0-14.498-3.359-24.242-9.719-28.196-3.347-2.081-4.929-2.34-13.781-2.258-10.952.102-18.085 1.671-37.5 8.249l-11.5 3.897 5.933 2.656c3.262 1.461 11.736 4.782 18.83 7.381 7.094 2.598 12.27 4.854 11.501 5.012-2.099.433-22.412-5.937-40.674-12.754-33.127-12.368-52.744-16.699-63.75-14.076m10.869 70.997c-7.007 1.722-9.432 7.949-5.195 13.336 2.993 3.805 13.595 11.487 20.986 15.207 20.484 10.309 45.02 11.331 65.438 2.727C141.816 168.588 158 155.732 158 150.743c0-2.924-5.249-7.511-9.509-8.311-7.444-1.396-20.375 2.63-48.125 14.984-12.815 5.705-22.909 7.881-34.27 7.387-7.575-.33-10.439-.892-13.596-2.669-2.2-1.238-3.121-1.979-2.046-1.646s5.381.87 9.569 1.193c8.652.667 18.438-.755 26.803-3.897l5.674-2.13-7.5-3.42c-16.371-7.466-30.776-11.003-37.791-9.279"/><path fill-opacity=".518" fill-rule="evenodd" d="M0 100.005V200.01l100.25-.255 100.25-.255.255-99.75L201.01 0H0zm.481.495c0 55 .121 77.647.269 50.326.148-27.32.148-72.32 0-100C.602 23.147.481 45.5.481 100.5m80.326-75.464c-13.396 3.295-25.553 9.737-34.637 18.356-7.379 7-8.168 10.624-3.273 15.027 2.964 2.666 11.218 3.18 19.012 1.183 6.516-1.67 19.516-6.689 33.853-13.072 10.849-4.83 19.99-7.379 29.221-8.149 8.006-.667 17.427.736 20.621 3.071 1.628 1.191 1.294 1.255-2.618.5-9.727-1.876-24.524-.19-34.128 3.889l-4.148 1.762 7.395 3.327c10.987 4.943 23.668 9.056 29.996 9.729 9.363.994 15.899-2.46 15.899-8.404 0-5.242-15.399-17.689-28.833-23.307-14.4-6.021-33.498-7.566-48.36-3.912M34.759 72.354C25.658 75.77 23.42 78.749 21.37 90.179c-2.385 13.294-.052 29.836 5.023 35.616 4.152 4.728 8.176 6.208 16.825 6.188 9.346-.023 17.809-1.843 35.732-7.685l14.451-4.711-5.377-2.439c-2.957-1.342-11.71-4.831-19.45-7.752-7.741-2.922-13.562-5.331-12.936-5.354 3.219-.119 22.591 6.122 45.145 14.542 41.189 15.378 63.244 17.297 71.513 6.222 6.287-8.421 6.035-37.915-.401-46.954-6.635-9.318-22.548-9.086-52.395.762-7.7 2.541-14.182 4.786-14.404 4.99-.59.541 9.568 4.927 24.404 10.535 7.15 2.703 11.425 4.621 9.5 4.263-5.723-1.065-20.397-5.789-38.5-12.394-28.635-10.447-41.176-13.835-54-14.588-5.462-.321-9.187-.024-11.741.934m11.884 70.619c-7.027 2.241-8.781 8.333-4.027 13.983 6.878 8.174 26.001 18.557 39.714 21.564 11.707 2.566 29.482 1.721 40.17-1.912 11.064-3.76 21.702-10.004 29.18-17.127 7.196-6.853 7.932-9.596 3.708-13.82-6.438-6.438-20.742-3.883-47.785 8.536-17.619 8.092-29.25 11.074-41.103 10.538-5.102-.231-10.516-1.081-12.5-1.963-3.413-1.517-3.275-1.543 5.535-1.03 9.947.579 23.164-1.514 29.238-4.63l3.424-1.756-7.304-3.266c-17.008-7.605-31.878-11.149-38.25-9.117"/></svg>