<svg xmlns="http://www.w3.org/2000/svg" width="160" height="160" fill="#000000"><path fill-opacity=".439" fill-rule="evenodd" d="M65.075 1.026C35.197 7.305 12.064 28.483 2.843 58 .838 64.417.5 67.593.5 80s.338 15.583 2.343 22C11.32 129.135 30.865 148.68 58 157.157c6.417 2.005 9.593 2.343 22 2.343s15.583-.338 22-2.343c9.53-2.977 20.887-8.869 28.222-14.64 12.341-9.71 23.869-27.801 27.412-43.017.896-3.85 2.02-7.781 2.498-8.736 1.245-2.491 1.124-23.04-.132-22.264-.563.348-1-.455-1-1.836 0-4.097-3.973-15.726-8.084-23.664C141.05 23.952 123.861 9.746 102.5 2.984 94.611.487 73.016-.643 65.075 1.026M.378 80c0 6.325.163 8.912.361 5.75s.198-8.338 0-11.5S.378 73.675.378 80"/><path fill-opacity=".462" fill-rule="evenodd" d="M67.047 1.138C39.118 5.768 14.763 26.085 4.968 52.924c-17.488 47.92 14.55 99.842 65.586 106.288 40.661 5.135 80.137-23.423 87.477-63.282.651-3.536 1.586-7.211 2.077-8.166 1.146-2.231 1.172-17.055.028-16.348-.475.293-1.123-1.659-1.44-4.338-.873-7.367-5.323-19.745-9.915-27.578-5.327-9.085-19.196-22.954-28.281-28.281C104.673 1.94 84.806-1.807 67.047 1.138M.349 80c0 4.675.173 6.587.383 4.25.211-2.338.211-6.163 0-8.5-.21-2.338-.383-.425-.383 4.25"/><path fill-opacity=".636" fill-rule="evenodd" d="M70.061 1.046C29.935 6.492 1.036 39.174.689 79.5.305 124.092 35.26 159.232 80 159.232c36.999 0 67.834-23.891 76.977-59.642C158.09 95.24 159 89.952 159 87.84s.45-3.84 1-3.84.993-2.362.985-5.25c-.011-3.758-.291-4.824-.985-3.75-.713 1.104-.973.419-.985-2.59-.021-5.731-3.504-18.72-7.052-26.303-7.733-16.524-21.605-30.365-38.233-38.146-12.604-5.898-30.399-8.716-43.669-6.915m3.034 27.704c-1.907 1.785-5.257 8.145-9.552 18.131-5.456 12.685-6.565 16.175-6.329 19.915.275 4.354.158 4.569-2.945 5.393-3.164.841-7.283 5.707-21.694 25.631-4.333 5.991-5.039 11.017-2.163 15.406 3.28 5.005 5.988 5.332 25.745 3.109 16.94-1.906 18.055-2.164 20.816-4.809l2.918-2.796 3.132 2.635c1.722 1.45 4.109 2.839 5.304 3.087 3.935.816 29.297 3.548 32.945 3.548 6.718 0 12.276-7.547 10.253-13.923-.753-2.37-16.344-24.106-20.339-28.353-1.436-1.528-3.978-3.136-5.648-3.575-2.931-.77-3.027-.972-2.715-5.763.279-4.287-.561-7.007-6.157-19.926C89.032 28.836 86.784 26 80.453 26c-3.445 0-5.07.607-7.358 2.75m5.209 6.457c-.557.711-3.767 7.56-7.134 15.22-4.625 10.523-5.853 14.25-5.023 15.25 1.621 1.953 27.696 1.896 28.447-.062.759-1.978-12.021-31.053-13.806-31.408-.809-.161-1.928.289-2.484 1M.3 80c0 3.025.187 4.263.416 2.75s.229-3.987 0-5.5S.3 76.975.3 80m68.691-3.489c-1.099 1.324-.936 2.253 1.018 5.783 5.399 9.758 9.099 14.831 10.591 14.523.846-.174 3.841-4.297 6.654-9.162 6.71-11.604 6.456-12.058-6.96-12.438-8.124-.231-10.239.012-11.303 1.294M46.607 92.856c-9.121 12.206-10.756 15.316-8.717 16.576 1.47.909 31.092-2.698 32.877-4.003 1.432-1.047 1.479-1.594.353-4.069C67.975 94.449 58.813 80 57.575 80c-.748 0-5.683 5.785-10.968 12.856m54.179-11.106c-3.061 3.516-12.864 21.605-12.385 22.854.589 1.534 3.054 2.007 20.099 3.855 18.119 1.964 18.142 1.924 7.489-12.633C107.185 83.796 104.065 80 102.981 80c-.369 0-1.357.787-2.195 1.75"/><path fill-opacity=".215" fill-rule="evenodd" d="M31.159 17.531C17.281 27.982 6.549 44.887 2.38 62.862.158 72.441.441 89.62 2.983 99.5c5.712 22.197 21.111 41.287 41.517 51.467 11.543 5.758 21.646 8.102 35.067 8.135 17.047.041 29.642-3.62 43.683-12.698 7.023-4.54 8.667-7.404 4.25-7.404-2.19 0-2.5-.433-2.5-3.5 0-1.925-.45-3.5-1-3.5s-1-.675-1-1.5-.675-1.5-1.5-1.5-1.5-.675-1.5-1.5c0-.933-.944-1.5-2.5-1.5-2.128 0-2.5-.46-2.5-3.097 0-3.088.013-3.095 4.906-2.75 2.821.2 4.664-.044 4.336-.573-.325-.525.238-.61 1.313-.197 1.036.397 1.633.471 1.325.164-.307-.308 1.063-2.264 3.046-4.348 2.287-2.405 3.664-4.869 3.768-6.744l.163-2.955-1.178 3c-4.134 10.522-5.856 11.052-27.762 8.548-16.689-1.908-17.66-2.176-23.418-6.455-.807-.6-2.401-.007-4.706 1.752-3.157 2.407-5.132 2.838-20.89 4.558-14.388 1.571-17.923 1.681-20.403.637-4.923-2.074-7.001-5.163-6.992-10.395.007-4.27.724-5.614 8.872-16.645 10.83-14.66 13.223-17.286 17.321-19.01 3.003-1.264 3.143-1.546 2.277-4.566-1.013-3.534.072-6.775 9.015-26.924 5.041-11.359 8.368-14.858 14.405-15.15 2.741-.132 2.805-.196.543-.548-1.407-.219-3.882.146-5.5.812-1.617.665-3.312 1.125-3.765 1.023s-.571.224-.261.725c.744 1.204-1.865 3.333-2.916 2.379-.45-.407-.54.033-.201.98s-.039 2.377-.84 3.179c-.802.801-1.458 2.164-1.458 3.029S65.523 38 64.941 38s-.81.402-.507.894c.544.879-2.042 8.106-2.901 8.106-.241 0-1.187-1.575-2.1-3.5-1.016-2.142-2.379-3.5-3.512-3.5-1.467 0-1.99-1.039-2.515-5-.585-4.408-.945-5-3.035-5C48.93 30 48 29.412 48 28.5c0-.825-.675-1.5-1.5-1.5-1.048 0-1.5-1.056-1.5-3.5s-.452-3.5-1.5-3.5c-.825 0-1.5-.675-1.5-1.5s-.869-1.5-1.93-1.5c-1.201 0-2.052-.803-2.25-2.122-.294-1.949-.835-1.734-6.661 2.653m55.193 9.531c1.442 1.135 3.303 3.035 4.135 4.223S92 32.948 92 32.341C92 31.007 86.006 25 84.675 25c-.519 0 .235.928 1.677 2.062m5.69 7.688c.056 1.002 3.862 7.925 3.916 7.122.069-1.035-2.946-7.872-3.471-7.872-.268 0-.468.337-.445.75M72.25 49.235C68.813 57.103 66 64.046 66 64.664c0 .617.591 1.349 1.312 1.626 1.042.399 22.863.244 25.938-.185 1.628-.227.427-4.157-5.23-17.105-4.151-9.5-6.435-13.585-7.709-13.786-1.452-.229-3.05 2.551-8.061 14.021m4.873-8.3C75.955 43.65 75 46.875 75 48.102s-.291 1.94-.647 1.585c-.355-.356-1.712 1.653-3.014 4.463-2.428 5.24-2.001 7.85 1.283 7.85.758 0 1.378.653 1.378 1.45 0 1.163 1.784 1.442 8.998 1.408 4.949-.024 9.242-.438 9.541-.921.737-1.193-3.572-11.035-4.563-10.422-.434.268-.536-.483-.225-1.67.371-1.418.188-1.925-.533-1.48-.646.4-1.06-.049-1.007-1.093C86.33 46.92 81.366 36 80.178 36c-.512 0-1.887 2.221-3.055 4.935m-16.559 1.358c.376.986.935 1.541 1.243 1.233s.001-1.114-.683-1.793c-.988-.98-1.102-.865-.56.56M96.38 44c.819 2.982 5.913 14.041 6.293 13.661.214-.215-1.207-3.713-3.157-7.775-1.951-4.062-3.362-6.711-3.136-5.886m-39.035 8.543c-.326.849-.311 1.824.031 2.167.343.343.624-.089.624-.96s.563-1.81 1.25-2.088c.979-.395.972-.521-.031-.583-.705-.043-1.548.615-1.874 1.464m17.386 2.377c-.435 1.663-.305 2.054.437 1.312.582-.582.86-1.647.62-2.369-.25-.749-.703-.295-1.057 1.057M72 55.059c0 .582.45.781 1 .441s1-.816 1-1.059S73.55 54 73 54s-1 .477-1 1.059M68 62.5c0 .825.436 1.5.969 1.5s.709-.675.393-1.5c-.317-.825-.753-1.5-.969-1.5S68 61.675 68 62.5m35.986 1.75c-.007 1.237-.285 3.263-.616 4.5-.332 1.237-.213 2.25.263 2.249.477 0 .998-2.025 1.157-4.5s.047-4.499-.25-4.499-.546 1.013-.554 2.25m2.187 5.745c.18.822 1.452 2.219 2.827 3.104s6.979 7.733 12.453 15.218c5.475 7.486 10.118 13.445 10.32 13.244s-4.104-6.373-9.568-13.714c-9.759-13.113-16.682-20.821-16.032-17.852m-36.805 7.489c-.314.817 1.592 5.336 4.234 10.043 3.737 6.658 5.235 8.494 6.745 8.266 2.241-.338 12.219-17.068 11.181-18.748C91.145 76.426 86.616 76 80.41 76c-8.338 0-10.589.303-11.042 1.484M84 78c2.475.385 3.713.767 2.75.85-1.916.164-2.158.959-.896 2.947.651 1.028 1.107.955 2.19-.351 2.865-3.451 2.075-4.455-3.382-4.296l-5.162.15zm-29.213 4.713C51.635 86.257 37 106.437 37 107.24c0 1.871 3.867 1.918 18.634.229 9.679-1.107 15.721-2.231 16.007-2.977.64-1.667-11.932-22.924-13.768-23.278-.823-.158-2.211.516-3.086 1.499m40.318 9.007c-3.392 5.896-6.036 11.408-5.876 12.25.217 1.14 2.679 1.826 9.654 2.691 20.38 2.527 23.062 2.647 23.671 1.059.759-1.977-17.417-26.72-19.628-26.72-1.052 0-3.898 3.9-7.821 10.72m-12.026-8.137c.048 1.165.285 1.402.604.605.289-.722.253-1.585-.079-1.917s-.568.258-.525 1.312m17.547.865c-.882 1.346-1.353 3.1-1.047 3.898.307.799.007 1.792-.665 2.207-.834.515-.965.339-.414-.553.524-.848.418-1.067-.302-.622-.611.377-.857 1.347-.547 2.154.348.908-.038 1.468-1.013 1.468-.949 0-1.359.564-1.031 1.419.3.781-.18 2.526-1.067 3.879-1.427 2.179-1.438 2.527-.095 3.043 1.103.423 1.455-.011 1.286-1.589-.147-1.383.404-2.302 1.519-2.534 1.08-.225 1.75.238 1.75 1.209 0 .865.675 1.573 1.5 1.573s1.5.45 1.5 1-.675 1-1.5 1c-1.99 0-1.896.979.25 2.608 2.192 1.664 5.25 1.781 5.25.201 0-.655.602-.368 1.337.637.967 1.322 2.214 1.7 4.5 1.365 1.74-.256 3.163-.093 3.163.362s1.575.827 3.5.827c4.012 0 4.311-.752 1.5-3.77-1.1-1.18-2-2.401-2-2.713C118 100.498 103.777 82 102.993 82c-.42 0-1.485 1.101-2.367 2.448m.779.802L99.5 87.5l2.25-1.905c1.237-1.048 2.25-2.06 2.25-2.25 0-.8-.805-.209-2.595 1.905m.262 2.417c-.367.366-.667 1.131-.667 1.7 0 .626.466.567 1.183-.15.651-.651.951-1.416.667-1.7s-.817-.217-1.183.15m-18.208 1.4c-.363.586-.445 1.281-.183 1.543s.743-.218 1.069-1.067c.676-1.762.1-2.072-.886-.476M101.5 92c.34.55.816 1 1.059 1s.441-.45.441-1-.477-1-1.059-1-.781.45-.441 1m-2.421 1.583c.048 1.165.285 1.402.604.605.289-.722.253-1.585-.079-1.917s-.568.258-.525 1.312m10.431 5.433c.346.559 1.047.758 1.559.441 1.387-.857 1.129-1.457-.628-1.457-.857 0-1.276.457-.931 1.016m22.949 4.051c-.363.586-.445 1.281-.183 1.543s.743-.218 1.069-1.067c.676-1.762.1-2.072-.886-.476M92.5 104c-.34.55-.168 1 .382 1s1.278-.45 1.618-1 .168-1-.382-1-1.278.45-1.618 1m40 12c-.34.55-.141 1 .441 1s1.059-.45 1.059-1-.198-1-.441-1-.719.45-1.059 1m-21.75 3.662c.688.278 1.813.278 2.5 0 .688-.277.125-.504-1.25-.504s-1.937.227-1.25.504"/></svg>