<svg xmlns="http://www.w3.org/2000/svg" width="200" height="200" fill="#000000"><path fill-opacity=".208" fill-rule="evenodd" d="M101.977 7.333c-9.843 3.494-19.828 9.468-26.129 15.635-4.899 4.796-5.83 6.33-6.994 11.532-.738 3.3-1.345 11.083-1.348 17.296L67.5 63.092l-2.335-.586c-3.886-.976-5.951.367-7.73 5.026-2.21 5.786-1.389 10.861 3.158 19.513C63.957 93.446 66.836 96 70.687 96c2.423 0 1.133 10.499-1.655 13.465-1.147 1.222-3.429 5.78-5.07 10.128C57.167 137.6 57.48 137.254 39 147.253c-11.371 6.153-15.832 10.191-22.854 20.689-6.003 8.976-9.577 17.697-11.038 26.936L4.299 200h81.85c48.911 0 81.851-.369 81.851-.916 0-.504-2.352-4.442-5.226-8.75-5.934-8.895-19.26-23.16-28.524-30.532-4.227-3.364-6.247-5.675-6.24-7.138.015-3.429 4.455-12.066 8.508-16.552 3.607-3.993 3.693-4.266 3.023-9.626-.65-5.207-.495-5.782 2.756-10.251 5.184-7.127 6.753-10.742 8.742-20.153.999-4.72 2.727-11.098 3.841-14.173 1.209-3.337 2.145-8.765 2.323-13.468.289-7.674.228-7.91-2.378-9.177-2.71-1.318-3.128-2.418-4.288-11.289-.709-5.417-6.581-22.867-8.872-26.364-2.247-3.428-13.722-11.45-19.44-13.59-8.285-3.1-13.001-3.26-20.248-.688"/><path fill-opacity=".307" fill-rule="evenodd" d="M102 7.241c-17.548 7.764-27.414 14.804-30.847 22.011-2.682 5.628-4.569 19.361-3.799 27.643l.618 6.655-3.864-.368C58.917 62.687 57 65.372 57 73.14c0 9.547 6.329 21.42 11.75 22.044 2.545.292 2.772.69 3.043 5.316.236 4.045-.184 5.645-2.199 8.374-1.37 1.856-4.615 8.749-7.211 15.318-5.356 13.552-4.75 12.945-23.261 23.274-5.708 3.185-12.069 7.481-14.134 9.546-10.115 10.115-19.931 29.889-19.976 40.238L5 200h81.5c44.825 0 81.5-.218 81.5-.485 0-1.314-7.034-11.812-12.144-18.125-6.062-7.489-17.754-18.78-24.066-23.241-2.909-2.056-3.747-3.32-3.747-5.649.001-4.323 3.186-10.708 7.881-15.802 4.303-4.668 4.759-6.441 2.971-11.569-1.02-2.927-.803-3.569 2.843-8.399 5.216-6.909 7.76-12.881 9.307-21.849.701-4.059 1.877-8.596 2.614-10.081 1.542-3.106 1.887-6.21.436-3.919-1.361 2.149-2.124-5.346-1.302-12.801.407-3.694 1.238-6.595 1.957-6.833.688-.228 1.25.299 1.25 1.17S156.45 64 157 64c1.272 0 1.26-.647-.061-3.114-.67-1.252-1.698-1.78-2.792-1.433-1.369.435-1.984-.396-2.939-3.966-.664-2.484-1.21-5.972-1.212-7.751-.005-3.533-6.215-22.894-8.424-26.267-1.95-2.976-14.475-11.244-20.503-13.535-5.612-2.132-15.041-2.475-19.069-.693m3.5 1.821c-4.871 2.593-12.847 10.106-16.102 15.168C87.652 26.947 87 29.375 87 33.168c0 6.94 2.569 10.518 10.651 14.836 3.518 1.88 7.353 4.436 8.522 5.681 2.159 2.297 2.111 2.387-1.864 3.486-.655.181 1.932 1.286 5.75 2.455L117 61.751v-4.875c0-5.409 1.417-6.54 2.35-1.876.893 4.463 2.433 3.633 3.239-1.746.556-3.708.883-4.31 1.491-2.75.429 1.098.811 3.684.85 5.746.06 3.206.396 3.748 2.32 3.735 1.238-.008 4.05-.664 6.25-1.456 6.098-2.197 9.794-1.91 12.5.971l2.349 2.5h-8.818l3.485 1.857c7.368 3.927 7.624 10.724.514 13.695-6.615 2.764-13.326 1.529-18.816-3.463-2.206-2.005-3.142-2.309-4.493-1.457-2.645 1.669-3.709 6.796-2.35 11.331 1.403 4.684 4.125 5.925 7.765 3.54 2.832-1.855 3.247-1.708 3.838 1.362.287 1.488-.092 2.135-1.25 2.135-1.08 0 .339 2.021 4.057 5.779 5.349 5.405 6.677 7.93 5.035 9.572-.377.376-2.249-.786-4.161-2.583l-3.477-3.268 2.747 3.707c3.065 4.136 2.858 5.254-1.156 6.262-1.512.379-2.978.999-3.259 1.376-.28.378-2.023 1.931-3.872 3.451-2.593 2.131-3.672 2.505-4.719 1.637-1.027-.852-2.28-.677-5.138.72-2.08 1.016-3.66 2.297-3.512 2.847.473 1.759 5.549 2.591 11.957 1.96 5.305-.523 6.599-1.058 8.75-3.614 1.388-1.65 2.524-3.475 2.524-4.057 0-.581 2.395-3.231 5.321-5.887 2.927-2.657 6.617-7.209 8.199-10.116 2.76-5.071 2.888-5.897 3.144-20.286.396-22.362-2.144-37.479-8.993-53.514-2.208-5.17-11.81-12.348-20.781-15.535-7.429-2.64-10.992-2.73-15.39-.389m8.25 130.327c-6.427 3.898-6.75 4.276-6.75 7.886 0 4.526 5.155 15.449 5.77 12.225.5-2.622 4.681-14.954 6.733-19.858.888-2.122 1.475-3.968 1.306-4.103s-3.346 1.598-7.059 3.85"/><path fill-opacity=".457" fill-rule="evenodd" d="M102.497 7.328c-14.328 4.707-29.912 16.44-32.264 24.29-2.077 6.93-3.436 19.644-2.768 25.882l.643 6h-4.265c-3.542 0-4.48.423-5.539 2.5-2.362 4.633-1.599 11.941 2.039 19.528 3.691 7.699 4.965 9.116 8.657 9.626 2.251.312 2.53.859 2.799 5.497.254 4.375-.156 5.808-2.713 9.5-1.656 2.392-4.873 9.216-7.148 15.165-4.708 12.309-5.119 12.726-20.905 21.184-5.132 2.75-11.727 7.172-14.656 9.827-9.992 9.056-19.314 26.176-20.944 38.463L4.742 200h163.383l-2.651-4.871c-5.832-10.714-23.609-29.891-35.226-37.998-2.698-1.883-3.15-2.726-2.655-4.95 1.121-5.042 5.423-12.916 8.906-16.3 3.76-3.653 4.151-5.441 2.307-10.54-1.107-3.061-.958-3.609 2.055-7.571 4.921-6.47 8.756-15.433 10.17-23.77.7-4.125 1.655-7.927 2.121-8.45 1.176-1.317 1.066-2.803-.152-2.05-1.508.932-1.313-19.787.2-21.3 1.663-1.663 2.575-1.501 3.111.55.36 1.38.481 1.297.573-.393.134-2.477-2.119-3.722-3.762-2.079-.829.829-1.126.613-1.137-.828-.009-1.073-.346-2.47-.75-3.105s-.735 7.691-.735 18.5V94.5l-2.992 5.403c-1.646 2.972-5.133 7.247-7.75 9.5s-4.757 4.428-4.758 4.834c0 .405-1.238 2.525-2.75 4.712l-2.75 3.975-9.062.038c-10.01.042-9.732.209-15.938-9.572-1.1-1.734-4.969-6.819-8.597-11.301-9.29-11.475-9.719-12.419-7.507-16.526C90.593 81.483 93.643 80 99.836 80c2.659 0 6.354-.822 8.414-1.872 2.019-1.03 3.915-1.63 4.211-1.334 1.229 1.23.403 5.436-1.461 7.436-2.752 2.955-2.513 4.488 1.039 6.647l3.038 1.848-2.788 1.178c-4.718 1.992-9.022 6.383-9.65 9.847-.324 1.787-.384 3.25-.133 3.25.25 0 2.826-1.499 5.725-3.33 6.691-4.229 8.362-4.887 13.247-5.217 4.415-.298 8.619 1.463 12.772 5.348l2.75 2.573v-2.318c0-2.262-9.211-11.976-11.49-12.119-.556-.035.003-.471 1.24-.968 2.258-.908 3.022-3.374 1.363-4.399-.487-.301-1.442.122-2.122.941-1.859 2.24-6.34 1.811-8.836-.846-2.043-2.175-2.127-2.803-1.227-9.158.531-3.753 1.552-7.195 2.269-7.65 2.707-1.717 5.684-.867 7.453 2.127 3.938 6.666 14.73 8.329 20.515 3.16 3.023-2.702 3.127-3.024 1.918-5.944-.809-1.953-2.757-3.819-5.299-5.077l-4.019-1.988 3.711-.696c3.672-.689 3.69-.717 1.772-2.635-1.832-1.832-2.263-1.859-7.843-.476-12.316 3.052-11.393 3.097-11.505-.559-.055-1.798-.48-4.394-.945-5.769-.579-1.712-.784-.056-.65 5.252.193 7.655.164 7.753-2.305 7.752-2.414 0-2.495-.215-2.368-6.252.077-3.638-.055-4.58-.316-2.252-.247 2.2-.828 4.386-1.29 4.857-.464.473-3.358-.086-6.47-1.25-8.212-3.073-16.486-2.878-20.479.482C87.196 63.013 87 63.05 87 61.178c0-1.1 1.35-3.136 3-4.525 3.746-3.151 3.748-3.653.02-3.653-5.536 0-10.946-2.935-13.064-7.086-2.467-4.837-2.497-12.126-.071-17.466C80.733 19.975 98.55 8.23 109.091 7.217c5.012-.481 12.828 1.582 18.909 4.992 2.628 1.474 3.002 1.54 1.5.264-6.169-5.239-19.174-7.717-27.003-5.145m30.003 7.409c.55.54 3.025 2.713 5.5 4.83l4.5 3.849-3.5-3.79c-1.925-2.085-4.4-4.258-5.5-4.83-1.137-.592-1.569-.617-1-.059m9.531 9.763c0 .55.436 1.675.969 2.5s.969 1.05.969.5-.436-1.675-.969-2.5-.969-1.05-.969-.5m4.662 13.5c.37 1.375 1.274 4.525 2.009 7 1.174 3.957 1.285 4.077.919.994-.229-1.928-1.133-5.078-2.008-7-.877-1.924-1.29-2.371-.92-.994m-34.589 47.914c-.767.486-1.119 1.605-.781 2.485.654 1.706 2.677 2.222 2.677.683 0-.505.273-1.63.607-2.5.671-1.749-.36-2.024-2.503-.668m-7.826 8.336c-2.398 3.101-2.367 4.037.061 1.826 1.463-1.334 2.661-2.571 2.661-2.75 0-.827-1.855-.197-2.722.924M120.5 94c.34.55.816 1 1.059 1s.441-.45.441-1-.477-1-1.059-1-.781.45-.441 1m-10.77 10.911-4.193 3.911 3.723.699c2.047.384 3.475 1.099 3.172 1.589-.302.489.377.89 1.509.89s2.059.44 2.059.977 1.106 1.701 2.457 2.587c2.246 1.471 2.652 1.473 4.722.023 2.238-1.568 2.217-1.589-1.706-1.737-3.25-.122-3.427-.218-.973-.524 5.105-.637 7.5-1.331 7.5-2.172 0-.444-1.347-.61-2.993-.368-4.392.644-10.007-.638-10.007-2.286 0-2.908 14.253-3.195 17.673-.356 2.124 1.762 2.58.395.497-1.49-1.088-.985-4.871-2.048-9.235-2.596-4.065-.51-7.551-1.407-7.747-1.993-.617-1.851-2.144-1.178-6.458 2.846m2.427 30.084c-4.819 1.139-5.298 1.994-5.4 9.631-.069 5.126.466 8.071 2.104 11.583 1.208 2.589 2.573 4.941 3.035 5.227.461.285 1.501-2.059 2.311-5.209.811-3.15 2.864-9.44 4.563-13.977l3.09-8.25-3.18.102c-1.749.057-4.684.458-6.523.893"/><path fill-opacity=".842" fill-rule="evenodd" d="M107.813 6.683c.721.289 1.584.253 1.916-.079s-.258-.568-1.312-.525c-1.165.048-1.402.285-.604.604m4 0c.721.289 1.584.253 1.916-.079s-.258-.568-1.312-.525c-1.165.048-1.402.285-.604.604M117.5 8c1.1.473 2.675.859 3.5.859.945 0 .761-.317-.5-.859-1.1-.473-2.675-.859-3.5-.859-.945 0-.761.317.5.859m-26.059 4.555c-1.83 1.467-1.798 1.487.559.365 3.061-1.458 3.628-1.92 2.358-1.92-.537 0-1.849.7-2.917 1.555m-7.58 4.501c-2.237 1.949-2.246 2.001-.167.995 1.207-.584 2.471-1.509 2.809-2.056.983-1.591-.094-1.158-2.642 1.061M77.5 21.558c-1.864 1.583-2.212 2.17-.918 1.549 1.859-.891 5.23-4.115 4.29-4.102-.204.003-1.722 1.151-3.372 2.553m-5.006 5.448c-.998 1.104-1.63 2.184-1.405 2.402.226.218 1.22-.685 2.208-2.006 2.182-2.918 1.697-3.157-.803-.396M68.632 38.09c-.348 1.738-.56 7.716-.471 13.285l.16 10.125.696-13c.383-7.15.595-13.128.472-13.285-.124-.156-.509 1.137-.857 2.875m54.486 17.595c-.065 2.852.345 6.402.91 7.889s.903 2.804.75 2.927-2.169.465-4.479.76l-4.201.536 1.525-3.814c.84-2.097 1.335-5.089 1.101-6.648-.372-2.488-.443-2.394-.574.76-.091 2.187-.94 4.31-2.167 5.421-1.967 1.779-2.094 1.752-5.061-1.091-2.733-2.618-3.828-2.95-10.733-3.247-7.147-.309-7.918-.14-10.939 2.39-2.055 1.721-3.25 3.63-3.25 5.192 0 2.395.074 2.421 2.465.855 3.322-2.177 3.532-2.068 2.301 1.195-3.23 8.557 13.076 13.7 20.785 6.555 2.133-1.976 2.557-3.077 2.088-5.422-.554-2.766.568-4.035 1.802-2.038.694 1.123 8.586.199 10.372-1.215 1.035-.819 1.182-.517.693 1.429-.768 3.06 2.162 7.086 6.446 8.861 6.866 2.844 16.726-1.67 15.328-7.016-.629-2.405-4.692-5.778-7.942-6.594-1.286-.323-2.338-.992-2.338-1.487s-2.363-.65-5.25-.345-5.84.154-6.561-.338c-.721-.491-1.681-3.1-2.132-5.797l-.822-4.903zm29.132 4.966c-.924.381-1.25 4.574-1.25 16.099 0 8.571.263 15.321.584 15s.537-6.637.48-14.034.179-14.185.523-15.083c.699-1.821 2.971-2.189 3.755-.608.279.564.392.451.25-.25-.282-1.394-2.374-1.936-4.342-1.124m-83.171 2.178c-.057.952-1.003 1.156-3.329.72l-3.25-.611 3.043 1.396c1.674.768 3.833 2.185 4.798 3.15 2.22 2.22 3.506 1.132 1.45-1.228-.842-.966-1.778-2.431-2.082-3.256-.389-1.059-.574-1.11-.63-.171m29.563 3.351c-2.7 1.512-1.948 3.112 1.108 2.358 1.513-.374 3.117-1.037 3.566-1.475 1.22-1.189-2.778-1.944-4.674-.883m21.108-.518c.688.278 1.813.278 2.5 0 .688-.277.125-.504-1.25-.504s-1.937.227-1.25.504M60.5 68c-2.04 2.255-1.421 2.592 1.458.794C64.909 66.951 68 70.205 68 75.155c0 4.016 1.406 5.224 2.264 1.945.951-3.639-.488-7.266-3.649-9.193-3.858-2.352-3.903-2.352-6.115.093m71.996-.993c-.755 1.221 1.988 2.43 3.456 1.523.576-.357 1.048-1.071 1.048-1.589 0-1.261-3.718-1.207-4.504.066m-75.417 3.576c.048 1.165.285 1.402.604.605.289-.722.253-1.585-.079-1.917s-.568.258-.525 1.312m6.941 4.941c.696.838 1.471 1.318 1.723 1.067.693-.694-.716-2.591-1.924-2.591-.664 0-.588.574.201 1.524M57.158 77c0 1.375.227 1.938.504 1.25.278-.687.278-1.812 0-2.5-.277-.687-.504-.125-.504 1.25m14.254.369c-.289.754.347 4.776 1.413 8.939 1.385 5.405 1.613 7.694.799 8.006-.64.246-1.277 3.236-1.452 6.812-.216 4.42-.867 6.987-2.125 8.374-2.405 2.653-4.183 6.288-8.069 16.5-4.452 11.701-4.669 11.904-23.775 22.247-11.886 6.434-20.188 15.455-27.167 29.522-2.822 5.687-5.987 16.455-6.021 20.481-.014 1.652 4.526 1.75 81.459 1.75h81.474l-3.071-5.25c-6.677-11.414-19.448-25.54-32.08-35.482-5.227-4.115-5.656-4.751-5.14-7.629.896-5.003 4.115-11.099 8.481-16.058l4.043-4.594-1.23-4.801-1.23-4.801 4.639-6.302c2.552-3.467 4.626-6.816 4.61-7.443s-.546-.24-1.176.86c-2.553 4.46-15.088 20.587-16.652 21.424-.924.494-3.37 1.216-5.436 1.603-2.746.515-3.492 1.025-2.772 1.893.672.811-.101 4.192-2.431 10.634-1.879 5.195-3.913 11.392-4.518 13.77-1.394 5.47-2.867 4.514-6.014-3.901-1.867-4.993-2.142-7.174-1.617-12.826l.633-6.811-6.968-.648c-15.524-1.442-30.433-10.869-28.619-18.095.782-3.116 1.968-2.698 10.339 3.638 7.892 5.973 9.935 7.036 20.958 10.906 13.812 4.849 15.756 4.656 5.621-.557-5.05-2.598-9.975-5.599-10.944-6.67-1.33-1.469-1.868-4.203-2.193-11.153l-.43-9.207-7.177-7.531c-3.947-4.142-8.884-10.104-10.972-13.25C74.514 78.574 72.61 76 72.371 76s-.67.616-.959 1.369M59 82.383C59 83.456 61.975 89 62.551 89c.275 0-.243-1.463-1.152-3.25C59.542 82.1 59 81.339 59 82.383M69.695 85c-1.431 4.151-1.452 6-.07 6 2.009 0 2.826-2.693 1.609-5.305-.793-1.701-1.139-1.858-1.539-.695m44.899 2.617C113.79 89.71 114.708 91 117 91c2.855 0 3.054-1.305.494-3.224-2.054-1.539-2.365-1.556-2.9-.159m10.393.935-2.487 1.377 2.691.036c1.48.019 2.95-.384 3.266-.896 1.018-1.647-.909-1.934-3.47-.517m-61.423 2.741c.376.986.935 1.541 1.243 1.233s.001-1.114-.683-1.793c-.988-.98-1.102-.865-.56.56m51.692 13.763c-2.334.461-5.034 1.345-6 1.966-1.58 1.016-1.555 1.061.244.455 1.1-.37 5.25-1.09 9.223-1.6 5.811-.745 7.942-.626 10.904.611 2.024.846 3.855 1.364 4.068 1.15.213-.213-1.44-1.119-3.674-2.013-4.369-1.748-8.065-1.89-14.765-.569m.744 6.989c3.39 1.025 9.223 1.1 10.736.14.679-.432-2.021-.81-6-.84-4.726-.036-6.369.207-4.736.7"/></svg>