<svg xmlns="http://www.w3.org/2000/svg" width="24" height="24" fill="#000000"><g clip-path="url(#a)"><path fill="#000000" fill-rule="evenodd" d="M5.76 0A5.76 5.76 0 0 0 0 5.76v12.48A5.76 5.76 0 0 0 5.76 24h12.48A5.76 5.76 0 0 0 24 18.24V5.76A5.76 5.76 0 0 0 18.24 0H5.76Zm12 1.92c-8.748 0-15.84 7.092-15.84 15.84v.96a3.36 3.36 0 0 0 3.36 3.36h.96c8.748 0 15.84-7.092 15.84-15.84v-.96a3.36 3.36 0 0 0-3.36-3.36h-.96Z" clip-rule="evenodd"/></g><defs><clipPath id="a"><path fill="#000000" d="M0 0h24v24H0z"/></clipPath></defs></svg>