<!-- Generated by IcoMoon.io -->
<svg version="1.1" xmlns="http://www.w3.org/2000/svg" width="32" height="32" viewBox="0 0 32 32" fill="#000000">
<title>tct</title>
<path d="M12.709 0.188c-0.437 0.096-1.232 0.321-1.766 0.5s-1.386 0.528-1.893 0.774c-0.507 0.247-1.194 0.606-1.526 0.799s-1.13 0.783-1.773 1.311c-0.643 0.528-1.61 1.494-2.148 2.146s-1.136 1.459-1.329 1.792c-0.193 0.333-0.553 1.021-0.799 1.528s-0.592 1.352-0.768 1.877-0.407 1.367-0.513 1.87c-0.13 0.618-0.193 1.658-0.193 3.203s0.062 2.584 0.193 3.203c0.106 0.504 0.337 1.345 0.513 1.87s0.522 1.37 0.768 1.877c0.247 0.507 0.606 1.194 0.799 1.526s0.783 1.13 1.311 1.773c0.528 0.643 1.494 1.61 2.146 2.148s1.459 1.136 1.792 1.329c0.333 0.193 1.021 0.553 1.528 0.799s1.352 0.592 1.877 0.768 1.367 0.407 1.87 0.513c0.618 0.13 1.657 0.193 3.203 0.193s2.584-0.063 3.203-0.193c0.504-0.106 1.345-0.337 1.87-0.513s1.37-0.522 1.877-0.768c0.507-0.247 1.195-0.606 1.528-0.799s1.139-0.791 1.792-1.329c0.653-0.538 1.618-1.505 2.146-2.148s1.118-1.441 1.311-1.773c0.193-0.332 0.552-1.019 0.799-1.526s0.592-1.352 0.768-1.877 0.407-1.367 0.513-1.87c0.13-0.619 0.193-1.657 0.193-3.203s-0.062-2.584-0.193-3.203c-0.106-0.504-0.337-1.345-0.513-1.87s-0.522-1.37-0.768-1.877c-0.247-0.507-0.606-1.195-0.799-1.528s-0.791-1.139-1.329-1.792c-0.538-0.653-1.505-1.618-2.148-2.146s-1.441-1.118-1.773-1.311c-0.332-0.193-1.019-0.552-1.526-0.799s-1.352-0.592-1.877-0.768-1.367-0.407-1.87-0.513c-0.644-0.136-1.625-0.189-3.307-0.18-1.495 0.008-2.69 0.078-3.187 0.187zM17.396 6.651c0.451 0.073 1.265 0.305 1.81 0.515s1.357 0.616 1.804 0.902c0.448 0.286 1.123 0.817 1.501 1.18s0.965 1.080 1.305 1.593c0.339 0.513 0.792 1.386 1.005 1.94s0.454 1.43 0.535 1.947c0.081 0.52 0.116 1.483 0.077 2.156-0.041 0.705-0.188 1.592-0.351 2.111-0.154 0.492-0.411 1.155-0.569 1.472s-0.392 0.778-0.519 1.025c-0.127 0.246-0.782 0.995-1.457 1.664-1.004 0.996-1.423 1.312-2.314 1.746-0.598 0.291-1.405 0.617-1.792 0.723s-1.169 0.259-1.738 0.338c-0.847 0.118-1.26 0.108-2.283-0.056-0.687-0.111-1.618-0.34-2.068-0.509s-1.094-0.467-1.429-0.661c-0.335-0.194-0.947-0.623-1.359-0.953s-1.020-0.938-1.35-1.35c-0.33-0.412-0.759-1.024-0.953-1.359s-0.491-0.978-0.661-1.429c-0.17-0.451-0.399-1.381-0.509-2.068-0.165-1.023-0.175-1.436-0.056-2.283 0.080-0.569 0.232-1.351 0.338-1.738s0.432-1.194 0.723-1.792c0.442-0.908 0.745-1.305 1.834-2.4 0.717-0.722 1.371-1.312 1.452-1.312s0.301-0.107 0.488-0.238 0.738-0.395 1.224-0.588c0.486-0.193 1.235-0.427 1.664-0.52s1.241-0.174 1.804-0.179 1.393 0.051 1.844 0.124zM14.272 7.662c-0.352 0.059-0.928 0.205-1.28 0.325s-0.964 0.39-1.361 0.6c-0.397 0.21-1.075 0.679-1.507 1.043s-1.042 1.007-1.355 1.429c-0.313 0.422-0.693 1.027-0.845 1.344s-0.32 0.692-0.374 0.833c-0.053 0.141-0.176 0.515-0.272 0.832-0.107 0.354-0.175 1.192-0.175 2.176s0.067 1.822 0.175 2.176c0.096 0.317 0.226 0.706 0.288 0.864s0.185 0.446 0.272 0.64c0.087 0.194 0.357 0.668 0.599 1.054s0.697 0.977 1.011 1.312 0.951 0.856 1.416 1.156c0.466 0.301 0.991 0.61 1.167 0.687s0.464 0.199 0.64 0.27 0.579 0.209 0.896 0.305c0.354 0.107 1.192 0.175 2.176 0.175s1.822-0.067 2.176-0.175c0.317-0.096 0.691-0.218 0.832-0.272s0.516-0.222 0.833-0.374c0.317-0.152 0.922-0.532 1.344-0.845s1.065-0.922 1.429-1.355 0.834-1.111 1.045-1.508c0.211-0.397 0.516-1.124 0.678-1.617 0.245-0.746 0.294-1.165 0.292-2.496-0.003-1.312-0.056-1.761-0.295-2.496-0.16-0.493-0.472-1.242-0.692-1.664-0.254-0.488-0.821-1.189-1.557-1.925-0.738-0.738-1.436-1.302-1.925-1.556-0.422-0.219-1.133-0.518-1.579-0.663-0.511-0.166-1.293-0.286-2.112-0.324-0.716-0.033-1.589-0.012-1.941 0.047zM20.992 11.508c0.141 0.141 0.256 0.352 0.256 0.47s-0.095 0.319-0.212 0.448c-0.169 0.187-0.406 0.235-1.184 0.236-0.535 0.001-1.047 0.050-1.139 0.108-0.114 0.073-0.155 0.344-0.128 0.862l0.039 0.756 1.131 0.064c0.926 0.052 1.164 0.109 1.312 0.312 0.1 0.137 0.181 0.346 0.181 0.464s-0.095 0.295-0.211 0.391c-0.126 0.105-0.654 0.201-1.312 0.24l-1.101 0.064-0.037 1.261c-0.024 0.82 0.015 1.324 0.112 1.44 0.102 0.123 0.436 0.179 1.064 0.179 0.622 0 1.007 0.064 1.2 0.199 0.157 0.11 0.285 0.301 0.285 0.426s-0.13 0.349-0.29 0.499c-0.237 0.222-0.478 0.279-1.312 0.31l-1.022 0.038-0.041 0.512c-0.023 0.282-0.132 0.613-0.244 0.736s-0.318 0.224-0.46 0.224-0.363-0.095-0.492-0.212c-0.159-0.144-0.234-0.392-0.234-0.774v-0.562l-1.728 0.076-0.041 0.512c-0.023 0.282-0.132 0.613-0.244 0.736s-0.318 0.224-0.46 0.224-0.363-0.095-0.492-0.212c-0.158-0.143-0.234-0.392-0.234-0.768v-0.556h-0.593c-0.326 0-0.83-0.070-1.12-0.156-0.317-0.094-0.758-0.388-1.106-0.736s-0.642-0.79-0.736-1.106c-0.086-0.29-0.156-0.697-0.156-0.905s0.088-0.633 0.195-0.945c0.107-0.312 0.36-0.754 0.561-0.983s0.589-0.514 0.861-0.634c0.272-0.12 0.84-0.249 1.263-0.288l0.768-0.070 0.039-0.756c0.027-0.518-0.014-0.79-0.128-0.862-0.092-0.058-0.71-0.107-1.373-0.108-0.941-0.002-1.257-0.049-1.44-0.214-0.129-0.116-0.234-0.318-0.234-0.448s0.115-0.351 0.256-0.492c0.247-0.247 0.427-0.256 4.992-0.256s4.745 0.009 4.992 0.256zM15.513 12.77c-0.114 0.073-0.155 0.344-0.128 0.862l0.039 0.756h1.664l0.039-0.756c0.027-0.518-0.014-0.79-0.128-0.862-0.092-0.058-0.426-0.106-0.743-0.106s-0.651 0.048-0.743 0.106zM12.338 16.059c-0.219 0.11-0.477 0.347-0.573 0.527s-0.169 0.555-0.162 0.833c0.010 0.367 0.111 0.608 0.369 0.876 0.237 0.247 0.537 0.398 0.9 0.452 0.299 0.045 0.667 0.043 0.817-0.005 0.259-0.082 0.271-0.155 0.237-1.453l-0.036-1.366-0.576-0.032c-0.329-0.018-0.747 0.053-0.974 0.167zM15.451 15.94c-0.050 0.050-0.091 0.646-0.091 1.324 0 0.788 0.055 1.289 0.154 1.387 0.084 0.084 0.416 0.153 0.736 0.152s0.657-0.049 0.747-0.107c0.121-0.077 0.155-0.457 0.128-1.438l-0.037-1.334-0.773-0.037c-0.425-0.021-0.814 0.003-0.864 0.053z"/>
</svg>
