<svg xmlns="http://www.w3.org/2000/svg" width="24" height="24" fill="#000000"><path fill="#000000" d="M24 12c0-6.627-5.373-12-12-12S0 5.373 0 12s5.373 12 12 12 12-5.373 12-12Z"/><path fill="#000000" d="M18.5 7.871a2.193 2.193 0 0 0-1.916-1.102h-4.412A2.592 2.592 0 0 0 12 6.762c-.057 0-.114.004-.171.007H7.417c-.8 0-1.517.413-1.917 1.102-.4.69-.4 1.512 0 2.201l4.584 7.89c.4.689 1.116 1.102 1.916 1.102.8 0 1.517-.413 1.917-1.102l4.583-7.89c.4-.686.4-1.511 0-2.2Zm-5.643 9.485a.984.984 0 0 1-.857.492.984.984 0 0 1-.857-.492l-2.58-4.44 2.58-4.442a.97.97 0 0 1 .743-.485h.229a.98.98 0 0 1 .742.485l2.58 4.439-2.58 4.443Z"/></svg>