<svg xmlns="http://www.w3.org/2000/svg" width="200" height="200" fill="#000000"><path fill-opacity=".153" fill-rule="evenodd" d="M124.199 37.25c-1.081 1.788-9.06 15.625-17.732 30.75-8.673 15.125-16.344 28.4-17.047 29.5-1.096 1.715-.912 2.615 1.289 6.312 1.412 2.371 2.912 3.946 3.333 3.5.872-.925 41.958-72.335 41.958-72.927 0-.212-2.213-.385-4.918-.385-4.48 0-5.094.29-6.883 3.25m20.417.5c-1.326 2.063-12.192 20.818-24.146 41.678l-21.734 37.928 2.361 4.322c1.299 2.377 2.636 4.322 2.972 4.322s1.108-1.093 1.717-2.429c.931-2.045 42.348-74.312 49.184-85.821l2.228-3.75h-5.085c-4.78 0-5.229.225-7.497 3.75m-6.487 46.869-29.18 50.618 2.633 4.492 2.632 4.493 2.221-3.861 31.393-54.526C163.873 57.97 177 34.907 177 34.585S174.819 34 172.154 34h-4.845zm43.637-39.882c-3.446 5.905-18.912 32.743-34.368 59.639l-28.102 48.901 2.478 4.435c1.364 2.439 2.799 4.064 3.19 3.611.39-.452 9.848-16.798 21.018-36.323a22517 22517 0 0 1 35.026-61c8.095-14.025 15.246-26.513 15.891-27.75 1.14-2.19 1.038-2.25-3.848-2.25h-5.019zM1 91.513c0 .282 5.224 9.62 11.609 20.75s16.567 28.899 22.629 39.487L46.259 171h11.636l-7.566-13.25A8940 8940 0 0 0 31.487 125a10841 10841 0 0 1-15.425-26.75L11.912 91H6.456C3.455 91 1 91.231 1 91.513m22.039 3.237c1.231 2.063 8.19 14.1 15.467 26.75 7.276 12.65 16.608 28.85 20.737 36l7.509 13 5.624.3c3.093.165 5.624.065 5.624-.222s-4.986-9.197-11.079-19.8-16.315-28.39-22.714-39.528L32.573 91H20.802zM42 91.565c0 .31 3.091 5.823 6.869 12.25 3.779 6.427 12.278 21.135 18.888 32.685s13.756 24.024 15.881 27.72l3.862 6.721 5.835.029 5.836.03-2.409-4.25c-8.047-14.193-34.818-60.575-38.961-67.5L52.866 91h-5.433c-2.988 0-5.433.254-5.433.565m21 .001c0 1.053-.34.454 36.755 64.684l8.519 14.75h11.889l-2.321-3.75c-2.37-3.828-9.756-16.563-31.741-54.727L73.703 91h-5.352c-2.943 0-5.351.255-5.351.566"/><path fill-opacity=".148" fill-rule="evenodd" d="M2.372 93.75c.783 1.513 8.588 15.125 17.343 30.25s18.365 31.878 21.352 37.228l5.433 9.728 5.25.022c2.888.012 5.25-.236 5.25-.551s-8.489-15.277-18.864-33.25S17.54 101.463 15.423 97.75L11.574 91H.949zM22 91.534c0 .294 10.193 18.294 22.652 40L67.304 171h5.407c2.974 0 5.212-.338 4.973-.75s-8.424-14.7-18.19-31.75-19.978-34.713-22.693-39.25L31.866 91h-4.933c-2.713 0-4.933.24-4.933.534m22.035 3.216c1.228 2.063 9.095 15.675 17.481 30.25a20959 20959 0 0 0 20.751 36l5.503 9.5 5.628.3 5.627.301-4.622-7.801c-2.542-4.29-12.953-22.312-23.135-40.05L52.754 91H41.802zM63 91.478c0 .263 5.917 10.726 13.149 23.25a25143 25143 0 0 1 22.75 39.491l9.601 16.719 5.333.031c2.934.017 5.184-.331 5-.773-.183-.441-10.458-18.434-22.833-39.983L73.5 91.032l-5.25-.016c-2.888-.009-5.25.199-5.25.462"/><path fill-opacity=".397" fill-rule="evenodd" d="M2 91.88c0 .545 4.662 9.007 10.359 18.805 5.698 9.798 15.86 27.378 22.582 39.065L47.164 171h9.877l-2.001-3.75c-1.1-2.062-11.356-19.95-22.79-39.75l-20.789-36-4.73-.305C4.071 91.024 2 91.324 2 91.88m21.532 2.182c.871 1.685 7.098 12.597 13.837 24.25 6.74 11.654 16.276 28.26 21.192 36.903L67.5 170.93l5.169.035 5.169.035-14.247-24.75a29158 29158 0 0 0-23.065-40L31.707 91h-9.758zM43 91.574c0 .316 10.198 18.316 22.662 40L88.324 171h4.838c2.661 0 4.838-.147 4.838-.326 0-.566-44.131-77.112-45.214-78.424C51.783 91.034 43 90.427 43 91.574m21 .407c0 .827 13.269 24.151 39.265 69.019l5.504 9.5 5.232.306 5.232.307-1.982-3.307c-1.09-1.818-9.755-16.806-19.256-33.306s-19.031-33.037-21.179-36.75c-3.898-6.739-3.911-6.75-8.36-6.75-2.451 0-4.456.441-4.456.981"/><path fill-opacity=".45" fill-rule="evenodd" d="M3.318 94.362c1.318 2.012 17.235 29.589 38.601 66.878l5.581 9.739 4.724.011 4.724.01-3.123-5.25c-3.476-5.844-31.858-55.184-38.24-66.478L11.5 92.043l-4.865-.021L1.77 92zM23 92.401c0 .281 1.414 2.893 3.142 5.805 3.004 5.06 34.567 59.679 39.611 68.544 2.272 3.993 2.685 4.25 6.832 4.25 2.428 0 4.415-.151 4.415-.335s-6.603-11.771-14.673-25.75S44.185 113.425 39.945 106l-7.709-13.5-4.618-.305c-2.54-.167-4.618-.075-4.618.206m21.378 1.14c.325.848 4.95 9.061 10.277 18.25A8101 8101 0 0 1 75.768 148.5c6.285 11 11.889 20.563 12.452 21.25s2.965 1.25 5.336 1.25h4.312l-9.27-16.25a17998 17998 0 0 0-22.633-39.5L52.603 92h-4.408c-3.561 0-4.295.296-3.817 1.541m22.009 2.709c2.919 5.021 16.456 28.609 31.851 55.5L109.259 171h4.37c2.404 0 4.371-.233 4.371-.518 0-.58-32.52-57.396-40.199-70.232L72.866 92h-8.95z"/></svg>