<svg xmlns="http://www.w3.org/2000/svg" width="32" height="32" version="1.1" fill="#000000"><path fill-opacity=".38" d="M 7.922 2.274 C -2.718 9.444, -2.718 22.556, 7.922 29.726 C 17.962 36.492, 32.880 27.473, 32.967 14.583 C 32.985 11.879, 32.718 9.949, 32.373 10.293 C 32.029 10.638, 30.781 9.486, 29.600 7.734 C 24.419 0.046, 14.816 -2.373, 7.922 2.274 M 0.300 16 C 0.300 19.025, 0.487 20.263, 0.716 18.750 C 0.945 17.238, 0.945 14.763, 0.716 13.250 C 0.487 11.738, 0.300 12.975, 0.300 16 M 6.681 11.782 C 7.331 12.195, 8.040 14.550, 8.256 17.016 L 8.651 21.500 8.825 16.823 C 8.957 13.303, 9.433 12.034, 10.750 11.689 C 11.713 11.438, 10.925 11.187, 9 11.131 C 7.075 11.076, 6.031 11.369, 6.681 11.782 M 13 16 C 13 18.933, 13.278 21.055, 13.619 20.715 C 14.382 19.951, 14.334 12.001, 13.561 11.228 C 13.253 10.919, 13 13.067, 13 16 M 17.821 13.763 C 17.598 15.283, 17.728 17.645, 18.108 19.013 C 18.609 20.811, 18.828 20.045, 18.900 16.250 C 19.008 10.567, 18.472 9.331, 17.821 13.763 M 21 16.167 C 21 19.008, 21.253 21.081, 21.561 20.772 C 21.870 20.463, 22.148 18.388, 22.178 16.160 C 22.224 12.845, 22.622 12.032, 24.367 11.690 C 26.054 11.360, 25.925 11.244, 23.750 11.136 C 21.087 11.004, 21 11.164, 21 16.167" stroke="none" fill="#000000" fill-rule="evenodd"/><path fill-opacity=".488" d="M 9.450 1.407 C -0.639 5.801, -3.022 19.213, 4.882 27.118 C 13.138 35.373, 25.681 32.772, 31.033 21.695 C 33.092 17.434, 33.758 10.414, 32 11.500 C 31.450 11.840, 31 11.451, 31 10.636 C 31 8.299, 25.916 2.863, 22.329 1.364 C 18.254 -0.338, 13.420 -0.322, 9.450 1.407 M 6.250 11.689 C 7.622 12.048, 8 13.225, 8 17.132 C 8 20.201, 8.384 21.880, 9 21.500 C 9.550 21.160, 10 18.921, 10 16.524 C 10 13.974, 10.518 11.957, 11.250 11.662 C 11.938 11.385, 10.700 11.175, 8.500 11.195 C 6.300 11.215, 5.287 11.438, 6.250 11.689 M 13 16.559 C 13 20.010, 13.379 21.884, 14 21.500 C 14.550 21.160, 15 20.009, 15 18.941 C 15 17.873, 15.450 17, 16 17 C 16.550 17, 17 17.873, 17 18.941 C 17 20.009, 17.450 21.160, 18 21.500 C 18.621 21.884, 19 20.010, 19 16.559 C 19 13.502, 18.550 11, 18 11 C 17.450 11, 17 12.125, 17 13.500 C 17 14.875, 16.550 16, 16 16 C 15.450 16, 15 14.875, 15 13.500 C 15 12.125, 14.550 11, 14 11 C 13.450 11, 13 13.502, 13 16.559 M 21 16.500 C 21 21.849, 21.076 21.998, 23.750 21.937 C 26.393 21.876, 26.413 21.838, 24.250 20.969 C 21.732 19.957, 21.174 17, 23.500 17 C 24.325 17, 25 16.550, 25 16 C 25 15.450, 24.325 15, 23.500 15 C 21.120 15, 21.760 12.185, 24.250 11.706 C 26.179 11.334, 26.108 11.253, 23.750 11.136 C 21.067 11.003, 21 11.134, 21 16.500 M 0.272 16 C 0.272 18.475, 0.467 19.488, 0.706 18.250 C 0.944 17.012, 0.944 14.988, 0.706 13.750 C 0.467 12.512, 0.272 13.525, 0.272 16" stroke="none" fill="#000000" fill-rule="evenodd"/><path fill-opacity=".321" d="M 8.962 2.250 C 4.159 4.672, 0 11.053, -0 16 C -0 20.947, 4.159 27.328, 8.962 29.750 C 14.573 32.580, 17.427 32.580, 23.038 29.750 C 26.364 28.073, 28.180 26.227, 30.169 22.500 C 32.485 18.161, 34.133 10.534, 32.375 12.292 C 32.031 12.635, 30.794 11.023, 29.625 8.708 C 27.330 4.163, 20.816 -0, 16 -0 C 14.583 -0, 11.416 1.012, 8.962 2.250 M 6.250 11.689 C 7.618 12.047, 8 13.222, 8 17.073 C 8 19.783, 8.450 22, 9 22 C 9.550 22, 10 19.750, 10 17 C 10 13.222, 10.367 12, 11.500 12 C 12.633 12, 13 13.222, 13 17 C 13 19.750, 13.450 22, 14 22 C 14.550 22, 15 20.875, 15 19.500 C 15 18.125, 15.450 17, 16 17 C 16.550 17, 17 18.125, 17 19.500 C 17 20.875, 17.450 22, 18 22 C 18.550 22, 19 19.525, 19 16.500 C 19 13.475, 18.550 11, 18 11 C 17.450 11, 17 11.900, 17 13 C 17 14.100, 16.550 15, 16 15 C 15.450 15, 15 14.100, 15 13 C 15 11.239, 14.372 11.014, 9.750 11.116 C 6.862 11.180, 5.287 11.438, 6.250 11.689 M 20.198 16.250 C 20.480 21.147, 20.685 21.521, 23.250 21.816 C 24.762 21.990, 26 21.653, 26 21.066 C 26 20.480, 25.325 20, 24.500 20 C 23.675 20, 23 19.325, 23 18.500 C 23 17.675, 23.675 17, 24.500 17 C 25.325 17, 26 16.550, 26 16 C 26 15.450, 25.325 15, 24.500 15 C 22.408 15, 22.616 12.247, 24.750 11.689 C 25.712 11.438, 25.014 11.180, 23.198 11.116 L 19.895 11 20.198 16.250 M 0.232 16 C 0.232 17.925, 0.438 18.712, 0.689 17.750 C 0.941 16.788, 0.941 15.213, 0.689 14.250 C 0.438 13.287, 0.232 14.075, 0.232 16" stroke="none" fill="#000000" fill-rule="evenodd"/><path fill-opacity=".509" d="M 11.594 1.041 C 7.391 2.299, 2.123 7.830, 0.938 12.230 C -1.992 23.113, 8.958 33.973, 19.892 31.029 C 24.257 29.854, 31 23.192, 31 20.056 C 31 18.990, 31.450 17.840, 32 17.500 C 32.550 17.160, 33 15.982, 33 14.882 C 33 13.782, 32.550 13.160, 32 13.500 C 31.450 13.840, 31 13.193, 31 12.062 C 31 8.955, 24.353 2.192, 20.152 1.025 C 15.963 -0.138, 15.534 -0.137, 11.594 1.041 M 5 10.922 C 5 11.515, 5.425 12, 5.945 12 C 6.465 12, 7.028 14.102, 7.195 16.672 C 7.630 23.344, 10 23.691, 10 17.083 C 10 10.704, 11.784 10.369, 12.195 16.672 C 12.518 21.619, 15 24.195, 15 19.583 C 15 18.163, 15.450 17, 16 17 C 16.550 17, 17 18.125, 17 19.500 C 17 21.837, 17.329 22, 22.059 22 C 25.177 22, 26.881 21.616, 26.500 21 C 26.160 20.450, 25.234 20, 24.441 20 C 23.648 20, 23 19.325, 23 18.500 C 23 17.675, 23.675 17, 24.500 17 C 25.325 17, 26 16.550, 26 16 C 26 15.450, 25.325 15, 24.500 15 C 23.675 15, 23 14.325, 23 13.500 C 23 12.652, 23.895 12, 25.059 12 C 26.191 12, 26.846 11.561, 26.515 11.024 C 26.183 10.487, 23.906 10.134, 21.456 10.241 C 17.539 10.411, 17 10.711, 17 12.717 C 17 15.659, 15.239 15.697, 14.820 12.764 C 14.548 10.868, 13.779 10.477, 9.750 10.187 C 6.810 9.975, 5 10.255, 5 10.922 M 0.158 16 C 0.158 17.375, 0.385 17.938, 0.662 17.250 C 0.940 16.563, 0.940 15.438, 0.662 14.750 C 0.385 14.063, 0.158 14.625, 0.158 16" stroke="none" fill="#000000" fill-rule="evenodd"/></svg>