<svg xmlns="http://www.w3.org/2000/svg" width="24" height="24" fill="#000000"><g clip-path="url(#a)"><path fill="#595959" d="M12 24c6.627 0 12-5.373 12-12S18.627 0 12 0 0 5.373 0 12s5.373 12 12 12Z"/><path fill="#ffffff" fill-rule="evenodd" d="M21.168 12.273c-.002.062-.086.078-.11.02a7.885 7.885 0 0 0-.032-.073.137.137 0 0 1 .015-.138l.033-.044c.04-.052.098-.044.098.014 0 .076-.002.142-.004.22Zm-.444-1.213a.186.186 0 0 1-.32.01 10.864 10.864 0 0 0-.976-1.288.153.153 0 0 1 .116-.253h.003c.822 0 1.253.203 1.384.451.11.207.076.57-.207 1.08Zm-.183 4.298c-.044.112-.09.223-.14.333l-.022.046c-.302.582-.81 1.04-1.488 1.36a.196.196 0 0 1-.273-.23c.225-.806.396-1.68.506-2.596a.692.692 0 0 1 .235-.44c.279-.242.54-.483.779-.722l.003-.003a.22.22 0 0 1 .367.093c.236.787.25 1.52.033 2.159Zm-1.844 2.91a8.85 8.85 0 0 1-.595.58c-.082.074-.207-.018-.16-.118a11.687 11.687 0 0 0 .199-.459.102.102 0 0 1 .07-.06c.13-.033.256-.07.38-.11.1-.032.178.09.106.166Zm-1.354-.728c-.273.04-.561.065-.863.076a10.737 10.737 0 0 1-2.31-.185.103.103 0 0 1-.027-.194 28.222 28.222 0 0 0 3.88-2.351.104.104 0 0 1 .163.101c-.138.832-.33 1.614-.57 2.325a.34.34 0 0 1-.273.228Zm-.282 1.108c-.655 1.288-1.461 2.01-2.243 1.996-.85-.015-1.697-.9-2.324-2.427v-.002a.193.193 0 0 1 .101-.25l.02-.008a.195.195 0 0 1 .13-.01c1.174.33 2.33.502 3.414.502a10.174 10.174 0 0 0 .751-.029.157.157 0 0 1 .151.228Zm-3.878 2.449c-.389.05-.784.075-1.183.075a9.11 9.11 0 0 1-4.952-1.448c-.101-.065-.058-.22.062-.226l.068-.004c.372-.024.78-.079 1.222-.164.94-.18 1.986-.491 3.08-.909a.194.194 0 0 1 .247.108l.001.002c.424 1.033.946 1.813 1.533 2.31a.146.146 0 0 1-.078.256ZM7.88 14.67a23.888 23.888 0 0 1 2.794-1.937 18.79 18.79 0 0 0 .426 3.757c-.385-.164-.77-.345-1.15-.543a16.292 16.292 0 0 1-2.07-1.277Zm-2.514 3.56c-.192-.364.057-1.206 1.323-2.487a.315.315 0 0 0-.028-.47l-.15-.12a.317.317 0 0 0-.424.022 5.767 5.767 0 0 0-.049.05c-.633.65-1.076 1.25-1.324 1.791a.216.216 0 0 1-.376.03A9.107 9.107 0 0 1 2.827 12c0-.651.068-1.292.2-1.914.02-.094.152-.1.18-.008.19.628.5 1.278.928 1.935.577.885 1.336 1.735 2.237 2.516.307.266.632.523.97.772.686.504 1.432.968 2.225 1.38.352.183.694.357 1.045.515a.795.795 0 0 0 .617.017c.165-.065.332-.132.5-.202a.4.4 0 0 0 .232-.466 5.157 5.157 0 0 1-.013-.055c-.277-1.162-.43-2.47-.448-3.841l-.001-.05c0-.074 0-.15-.002-.224V12.258h.001l.003-.258c.004-.235.013-.468.025-.7.084-1.653.365-3.207.81-4.514a.231.231 0 0 0-.143-.294 14.5 14.5 0 0 0-.354-.115.23.23 0 0 0-.286.144c-.484 1.42-.782 3.104-.862 4.887a.67.67 0 0 1-.327.547A25.286 25.286 0 0 0 7.5 13.912a.463.463 0 0 1-.592-.012c-.84-.728-1.546-1.518-2.08-2.339-1.05-1.611-1.299-3.13-.702-4.273l.004-.009c.077-.126.156-.25.238-.373.686-.908 1.962-1.434 3.655-1.493.107-.004.215-.006.324-.006 1.038 0 2.152.171 3.286.498l.074.022c.02.006.039.01.058.017.262.078.524.165.787.26l.019.006a15.926 15.926 0 0 1 .27.1l.061.024c.553.214 1.106.464 1.652.747a15.816 15.816 0 0 1 2.867 1.9c-1.607.368-3.475 1.078-5.353 2.035a.274.274 0 0 0-.149.229c-.006.116-.015.35-.021.536a.152.152 0 0 0 .223.14h.001c1.86-.977 3.715-1.707 5.309-2.093a.595.595 0 0 0 .448-.661 16.31 16.31 0 0 0-.098-.626 1.042 1.042 0 0 0-.395-.646 17.28 17.28 0 0 0-4.248-2.357.227.227 0 0 1-.118-.322c.622-1.112 1.361-1.735 2.081-1.735h.023c.85.015 1.697.9 2.324 2.427.318.773.564 1.665.732 2.634l-.003-.002c.072.413.13.84.173 1.279l-.011.007.015.015a20.53 20.53 0 0 1 .01 3.743c-1.137.918-2.543 1.833-4.088 2.651a29.71 29.71 0 0 1-1.518.75l-.023.011-.115.053h-.001c-.417.188-.83.362-1.235.521l-.068.027-.086.033a26.05 26.05 0 0 1-.203.078l-.056.02-.245.09-.03.01h-.001c-.87.31-1.698.544-2.452.69-1.824.35-2.683.081-2.879-.288Zm1.31-13.7A9.103 9.103 0 0 1 12 2.827c.511 0 1.016.041 1.51.123.132.022.177.19.071.274-.479.375-.924.93-1.318 1.652a.429.429 0 0 1-.493.207c-1.305-.367-2.589-.54-3.775-.499a8.5 8.5 0 0 0-1.241.132c-.11.02-.169-.123-.079-.188Zm12.591 6.684a.106.106 0 0 1 .193-.064 8.937 8.937 0 0 1 .474.738.231.231 0 0 1-.03.27 10.743 10.743 0 0 1-.49.503.092.092 0 0 1-.156-.069 21.167 21.167 0 0 0 .01-1.378Zm-.951-5.867a9.152 9.152 0 0 1 2.191 3.208.154.154 0 0 1-.171.211 4.614 4.614 0 0 0-.888-.063.462.462 0 0 1-.465-.38 13.45 13.45 0 0 0-.825-2.866c-.042-.098.08-.183.158-.11Zm3.469 4.573a9.931 9.931 0 0 0-2.713-4.991A9.934 9.934 0 0 0 12 2a9.935 9.935 0 0 0-7.071 2.929c-.46.46-.868.956-1.224 1.482-.106.14-.201.29-.285.446A9.938 9.938 0 0 0 2 12a9.934 9.934 0 0 0 2.929 7.071A9.935 9.935 0 0 0 12 22a9.935 9.935 0 0 0 7.071-2.929 9.993 9.993 0 0 0 2.087-3.042c.06-.124.113-.25.158-.38a10.1 10.1 0 0 0 .474-5.703l-.006-.026Z" clip-rule="evenodd"/></g><defs><clipPath id="a"><path fill="#ffffff" d="M0 0h24v24H0z"/></clipPath></defs></svg>