<svg xmlns="http://www.w3.org/2000/svg" width="24" height="24" fill="#000000"><rect width="24" height="24" fill="#000000" rx="4"/><path fill="#000000" fill-rule="evenodd" d="M13.307 8.447a.331.331 0 0 0 .332-.331V4.183c0-.654-.53-1.184-1.184-1.184h-.944a.331.331 0 1 0 0 .663h.944a.52.52 0 0 1 .521.521v3.933c0 .183.148.331.331.331Z" clip-rule="evenodd"/><path fill="#000000" fill-rule="evenodd" d="M14.44 6.984a.331.331 0 0 0-.47 0l-.663.663-.664-.663a.331.331 0 1 0-.468.468l.898.898a.331.331 0 0 0 .468 0l.898-.898c.13-.13.13-.339 0-.468ZM11.547 8.116a.331.331 0 0 0-.331-.331h-.944a.52.52 0 0 1-.521-.522V3.331a.331.331 0 0 0-.663 0v3.932c0 .655.53 1.184 1.184 1.184h.944a.331.331 0 0 0 .33-.331Z" clip-rule="evenodd"/><path fill="#000000" fill-rule="evenodd" d="M10.551 4.464c.13-.13.13-.34 0-.469l-.898-.898a.331.331 0 0 0-.468 0l-.898.898a.331.331 0 0 0 .469.469l.663-.664.664.664c.13.129.339.129.468 0Z" clip-rule="evenodd"/><path fill="#000000" d="m3.05 19.39.42-1.12a3.29 3.29 0 0 1-.463-1.688 3.315 3.315 0 0 1 3.31-3.313 3.315 3.315 0 0 1 3.309 3.313 3.315 3.315 0 0 1-3.31 3.313c-.482 0-.961-.107-1.392-.31l-1.522.304a.317.317 0 0 1-.064.006H3.33a.33.33 0 0 1-.282-.505Zm1.097-1.041-.29.774 1.048-.209a.332.332 0 0 1 .216.03 2.61 2.61 0 0 0 1.195.289 2.652 2.652 0 0 0 2.648-2.65 2.652 2.652 0 0 0-2.648-2.65 2.652 2.652 0 0 0-2.204 4.115c.06.089.073.2.035.3Z"/><path fill="#000000" fill-rule="evenodd" d="M5.121 18.945a.332.332 0 0 0-.216-.03l-1.048.208.29-.774a.331.331 0 0 0-.035-.3 2.652 2.652 0 0 1 2.204-4.116 2.652 2.652 0 0 1 2.648 2.65 2.652 2.652 0 0 1-2.648 2.65c-.418 0-.83-.1-1.195-.288ZM3.47 18.27l-.42 1.12a.333.333 0 0 0 .281.505h.007a.317.317 0 0 0 .064-.006l1.522-.303c.43.202.91.31 1.392.31a3.315 3.315 0 0 0 3.31-3.314 3.315 3.315 0 0 0-3.31-3.313 3.315 3.315 0 0 0-3.31 3.313c0 .598.16 1.178.464 1.688ZM15.884 13.971c-.833 0-1.51.678-1.51 1.518 0 1.048.483 1.89 1.099 2.52.619.633 1.35 1.03 1.784 1.177l.003.001a.34.34 0 0 0 .095.011.34.34 0 0 0 .095-.01l.003-.002c.433-.148 1.165-.544 1.785-1.177.615-.63 1.099-1.472 1.099-2.52 0-.84-.678-1.518-1.511-1.518-.49 0-.93.238-1.205.608a.331.331 0 0 1-.532 0 1.496 1.496 0 0 0-1.205-.608Zm-2.173 1.518c0-1.204.972-2.18 2.173-2.18.57 0 1.085.22 1.471.578a2.159 2.159 0 0 1 1.47-.578c1.202 0 2.174.976 2.174 2.18 0 1.269-.59 2.268-1.288 2.983-.693.71-1.514 1.16-2.042 1.34a.974.974 0 0 1-.314.049.974.974 0 0 1-.314-.048c-.528-.18-1.349-.631-2.042-1.341-.699-.715-1.288-1.714-1.288-2.983Z" clip-rule="evenodd"/><path fill="#262626" d="m9.262 9.215.482.209-.209.482-.482-.209.209-.482Z"/><path fill="#000000" fill-rule="evenodd" d="m9.262 9.215-.21.482.483.21.21-.483-.483-.21Z" clip-rule="evenodd"/><path fill="#262626" d="m8.843 10.18.482.209-.209.482-.482-.209.209-.482Z"/><path fill="#000000" fill-rule="evenodd" d="m8.843 10.18-.21.482.483.21.21-.483-.483-.21Z" clip-rule="evenodd"/><path fill="#262626" d="m8.425 11.146.482.21-.209.482-.482-.21.209-.482Z"/><path fill="#000000" fill-rule="evenodd" d="m8.425 11.146-.21.483.483.21.21-.483-.483-.21Z" clip-rule="evenodd"/><path fill="#262626" d="m8.007 12.111.482.21-.209.482-.482-.21.209-.482Z"/><path fill="#000000" fill-rule="evenodd" d="m8.007 12.111-.21.483.483.209.21-.483-.483-.209Z" clip-rule="evenodd"/><path fill="#262626" d="M12.992 16.217v.526h-.526v-.526h.526Z"/><path fill="#000000" fill-rule="evenodd" d="M12.992 16.217h-.526v.526h.526v-.526Z" clip-rule="evenodd"/><path fill="#262626" d="M11.94 16.217v.526h-.525v-.526h.525Z"/><path fill="#000000" fill-rule="evenodd" d="M11.94 16.217h-.525v.526h.525v-.526Z" clip-rule="evenodd"/><path fill="#262626" d="M10.889 16.217v.526h-.526v-.526h.526Z"/><path fill="#000000" fill-rule="evenodd" d="M10.889 16.217h-.526v.526h.526v-.526Z" clip-rule="evenodd"/><path fill="#262626" d="m14.157 9.215-.482.209.209.482.482-.209-.209-.482Z"/><path fill="#000000" fill-rule="evenodd" d="m14.157 9.215.21.482-.483.21-.21-.483.483-.21Z" clip-rule="evenodd"/><path fill="#262626" d="m14.576 10.18-.482.209.209.482.482-.209-.209-.482Z"/><path fill="#000000" fill-rule="evenodd" d="m14.576 10.18.21.482-.483.21-.21-.483.483-.21Z" clip-rule="evenodd"/><path fill="#262626" d="m14.994 11.146-.482.21.209.482.482-.21-.209-.482Z"/><path fill="#000000" fill-rule="evenodd" d="m14.994 11.146.21.483-.483.21-.21-.483.483-.21Z" clip-rule="evenodd"/><path fill="#262626" d="m15.412 12.111-.482.21.209.482.482-.21-.209-.482Z"/><path fill="#000000" fill-rule="evenodd" d="m15.412 12.111.21.483-.483.209-.21-.483.483-.209Z" clip-rule="evenodd"/></svg>