<svg xmlns="http://www.w3.org/2000/svg" width="200" height="200" fill="#000000"><path fill-opacity=".09" fill-rule="evenodd" d="M84.5 25.499c-22.597 5.048-41.421 19.534-51.608 39.716C31.301 68.365 30 71.181 30 71.471s4.398.529 9.774.529h9.774l4.456-6.118c7.167-9.842 18.633-17.647 31.539-21.47 8.279-2.453 23.827-2.268 32.171.382C123.99 46.788 133 51.495 133 52.781c0 .384-7.53 8.237-16.733 17.452L99.534 86.988l-7.265-7.217-7.265-7.217-6.505 6.447-6.504 6.447 7.227 7.276L86.45 100l-7.228 7.276-7.227 7.276 6.504 6.447 6.505 6.447 7.265-7.217 7.265-7.217 16.839 16.861 16.838 16.86-5.356 3.044c-17.653 10.037-40.046 10.221-56.84.468-12.867-7.473-24.058-23.17-27.445-38.495l-.608-2.75H61V89.955l-18.25.272-18.25.273.105 10.5c.329 32.842 20.953 60.757 52.895 71.595 7.113 2.413 9.552 2.725 22 2.81 12.051.082 15.044-.231 21.5-2.247 34.932-10.907 56.996-42.657 54.668-78.664-2.575-39.828-36.393-70.803-76.876-70.415-4.561.044-10.992.683-14.292 1.42m45.75 56.955c-8.937 9.059-16.249 16.826-16.247 17.259.004 1.227 31.482 33.287 32.683 33.287 1.438 0 7.691-12.288 9.413-18.5 1.791-6.458 1.782-22.589-.015-29-.772-2.75-2.644-7.475-4.162-10.5-5.229-10.421-3.427-11.041-21.672 7.454"/><path fill-opacity=".237" fill-rule="evenodd" d="M86.986 24.936c-23.864 4.39-46.712 22.236-55.457 43.314L29.973 72h19.69l3.272-5.05c6.124-9.45 19.321-18.578 32.617-22.561 7.895-2.364 22.83-2.349 30.905.031 7.148 2.107 15.453 6.182 16.115 7.907.263.685-7.071 8.756-16.297 17.936L99.5 86.953l-7.248-7.2-7.248-7.199-6.505 6.447-6.504 6.447 7.227 7.276L86.45 100l-7.228 7.276-7.227 7.276 6.504 6.447 6.505 6.447 7.265-7.217 7.265-7.217 16.839 16.861 16.838 16.86-5.356 3.034c-18.821 10.663-41.572 10.422-58.427-.621-7.872-5.158-11.784-9.166-17.59-18.023C47.816 124.988 43 113.42 43 109.895c0-.492 4.05-.895 9-.895h9V89.955l-18.25.272-18.25.273.148 10.5c.177 12.499 2.05 20.514 7.39 31.633C41.686 152.721 59.617 167.742 81 173.65c10.106 2.792 30.192 2.535 39.965-.511 26.844-8.368 46.101-28.718 53.124-56.14 2.268-8.854 1.793-27.83-.938-37.454-7.238-25.509-28.115-46.15-53.651-53.044-6.923-1.869-25.896-2.782-32.514-1.565m43.236 57.49C121.3 91.523 114 99.464 114 100.072c0 1.429 31.402 32.928 32.826 32.928.592 0 2.91-3.713 5.15-8.25 7.604-15.406 7.834-33.264.619-48.25-5.941-12.341-3.934-12.873-22.373 5.926"/><path fill-opacity=".13" fill-rule="evenodd" d="M84.5 25.656c-23.263 4.961-44.331 21.942-53.017 42.731L29.973 72h19.69l3.272-5.05c6.124-9.45 19.321-18.578 32.617-22.561 7.895-2.364 22.83-2.349 30.905.031 7.209 2.125 15.455 6.187 16.13 7.945.278.727-6.789 8.499-16.297 17.924L99.5 86.93l-7.248-7.188-7.248-7.188-6.505 6.447-6.504 6.447 7.227 7.276L86.45 100l-7.228 7.276-7.227 7.276 6.504 6.447 6.505 6.447 7.265-7.217 7.265-7.217 16.839 16.861 16.838 16.86-5.356 3.034c-31.069 17.603-68.281 4.468-81.469-28.759-1.203-3.029-2.492-6.971-2.866-8.758l-.679-3.25H61V89.955l-18.25.272-18.25.273.148 10.5c.165 11.609 1.951 19.954 6.346 29.648 20.412 45.016 75.526 59.371 114.749 29.886 21.469-16.138 33.432-45.3 29.337-71.511-6.756-43.234-48.395-72.364-90.58-63.367m45.717 56.716C121.298 91.418 114 99.322 114 99.937c0 .614 7.347 8.594 16.326 17.733l16.327 16.616 3.161-5.138c11.096-18.034 10.366-45.103-1.645-60.936l-1.735-2.289z"/><path fill-opacity=".195" fill-rule="evenodd" d="M85 25.49c-13.261 3-23.635 8.164-34.843 17.345-6.653 5.451-16.099 18.534-19.071 26.415L30.05 72h19.613l3.272-5.05c6.125-9.452 19.329-18.584 32.617-22.558 11.991-3.586 29.419-1.961 40.918 3.816 8.906 4.475 9.462 3.189-9.559 22.083L99.818 87.269l-7.407-7.358-7.407-7.357-6.505 6.447-6.504 6.447 7.002 7.049C82.849 96.375 86 99.863 86 100.249s-2.925 3.699-6.5 7.363-6.5 6.952-6.5 7.307c0 .354 2.701 3.317 6.003 6.584l6.003 5.941 7.264-7.216 7.264-7.216 16.857 16.879 16.857 16.879-4.641 2.72c-13.59 7.965-31.893 10.26-46.149 5.788-7.96-2.497-17.301-8.156-22.786-13.804-7.319-7.536-14.234-20.049-16.152-29.224l-.679-3.25H61V89.955l-18.25.272-18.25.273-.32 5.5c-.175 3.025.201 9.1.837 13.5 4.597 31.818 26.854 56.612 57.984 64.59 3.415.876 10.236 1.378 17.999 1.325 10.285-.07 13.938-.524 20.618-2.562 22.467-6.854 41.371-24.741 49.401-46.741 15.491-42.448-8.131-87.329-52.519-99.783-7.621-2.138-25.747-2.592-33.5-.839m45.243 56.767C121.309 91.203 114 99.092 114 99.788s7.347 8.743 16.326 17.882l16.327 16.616 3.161-5.138c11.085-18.015 10.365-45.105-1.619-60.902l-1.71-2.254z"/></svg>