<svg xmlns="http://www.w3.org/2000/svg" width="200" height="200" fill="#000000"><path fill-opacity=".098" fill-rule="evenodd" d="M80.113 2.494C66.162 5.631 52.412 11.674 41.5 19.465c-7.416 5.294-19.719 18.092-24.843 25.843-5.608 8.481-10.489 19.633-13.382 30.573-3.353 12.68-3.762 33.34-.903 45.619 4.435 19.053 12.879 34.574 26.128 48.028 19.091 19.386 40.523 29.04 67 30.178 49.176 2.114 91.811-30.9 102.05-79.021.797-3.749 1.45-8.388 1.45-10.309 0-2.075.406-3.243 1-2.876.638.394.994-2.569.985-8.191-.011-6.057-.318-8.34-.985-7.309-.734 1.136-.973.701-.985-1.792-.027-5.877-3.079-18.512-6.529-27.031-6.564-16.211-18.816-32.194-32.802-42.793-7.845-5.945-24.028-13.75-34.271-16.529-10.285-2.79-35.566-3.55-45.3-1.361m.387 5.029C44.268 15.51 16.521 42.847 7.304 79.637c-2.663 10.632-2.363 33.27.589 44.363 5.951 22.364 18.671 41.077 37.063 54.53 5.326 3.895 7.901 6.399 7.543 7.334-.467 1.216-.3 1.22 1.165.027 1.496-1.216 1.633-1.184 1.092.261-.469 1.254.507 2.14 4.051 3.674 2.775 1.201 4.911 1.63 5.265 1.058.358-.58 4.545.113 10.512 1.74 8.66 2.362 11.815 2.71 24.916 2.75 10.998.034 16.831-.413 21.863-1.675 37.968-9.528 64.987-37.84 72.718-76.199 2.008-9.962 1.492-27.579-1.128-38.5-1.253-5.225-2.343-11.075-2.423-13-.185-4.49-2.222-10.499-4.081-12.042-.898-.745-1.449-.807-1.449-.164 0 .572.563 1.24 1.25 1.486.688.245.962.759.609 1.14-.352.382-3.209-2.95-6.347-7.404-9.915-14.069-24.335-26.866-38.012-33.733-5.669-2.846-15.558-6.112-23.677-7.82-8.59-1.807-30.004-1.773-38.323.06m50.5.536c0 .582.412.805.915.494s1.121 0 1.375.691c.358.977.766.945 1.835-.141.869-.882.915-1.137.125-.691-.687.388-1.25.229-1.25-.353S133.325 7 132.5 7s-1.5.477-1.5 1.059m2.2 10.141c-1.539 1.539-1.563 5.8-.033 5.8.641 0 .882-.284.535-.631-.794-.794 1.058-4.369 2.262-4.369 1.783 0 3.846 3.011 3.353 4.895-.404 1.544-1.183 1.847-3.888 1.511-4.444-.551-9.765 3.932-8.42 7.094.834 1.962.852 1.96.921-.095.112-3.344 3.43-5.704 6.938-4.934 5.358 1.177 9.311-5.149 5.561-8.9-1.865-1.865-5.546-2.054-7.229-.371M86.39 29.471c-7.782 1.413-17.474 5.306-24.212 9.724-2.377 1.559-4.809 2.533-5.404 2.165-.596-.368-.802-.214-.458.342C57.319 43.325 49.478 49 46.233 49c-1.771 0-3.776.949-5.196 2.46-1.879 2.001-2.211 3.206-1.775 6.455.565 4.217-1.118 10.428-4.224 15.585-.994 1.65-2.076 5.7-2.403 9l-.596 6 2.806-8.5c3.817-11.565 6.824-17.21 8.949-16.801 2.309.444 5.348 13.806 5.569 24.484.094 4.501.44 8.453.77 8.783s-.915 2.116-2.766 3.967C44.54 103.26 44 104.523 44 108.311c0 3.858.469 4.905 3.238 7.236l3.238 2.724.026 13.115c.015 7.213.419 14.239.898 15.614.772 2.214.371 2.042-3.5-1.5-3.247-2.97-3.74-3.228-1.916-1 10.409 12.71 26.43 21.898 42.935 24.624 8.743 1.444 10.075 3.032 6.438 7.679-1.491 1.905-3.41 3.197-4.749 3.197-2.867 0-6.608 4.262-6.608 7.529 0 2.981 3.616 5.035 7.255 4.122 2.795-.702 4.852-4.527 4.061-7.552-.668-2.551 4.087-9.265 6.032-8.519 2.234.857 6.622-1.419 7.825-4.06.711-1.56 1.97-2.52 3.306-2.52 1.187 0 4.602-.721 7.589-1.603 14.981-4.422 30.822-15.652 38.432-27.247 2.2-3.352 4.506-6.107 5.125-6.122.619-.016 1.407 1.382 1.752 3.106.506 2.531.145 3.579-1.875 5.452-3.309 3.067-3.329 7.678-.047 10.959 2.835 2.836 6.128 3.136 9.386.854 5.075-3.555 4.689-10.04-.785-13.182-3.517-2.018-5.007-7.721-2.9-11.096 1.024-1.638 1.049-2.74.119-5.204-.955-2.531-.867-4.296.466-9.271 2.013-7.518 2.219-24.994.381-32.35-1.133-4.539-1.096-5.495.289-7.473 2.001-2.857 2.037-6.863.083-9.382-1.4-1.805-1.433-1.738-.474.941 1.123 3.14.537 6.212-1.667 8.728-1.144 1.307-1.183 2.154-.206 4.5 2.585 6.202.197 37.071-3.15 40.723-1.407 1.535-3.178-1.718-12.975-23.833-8.636-19.494-9.594-22.22-8.412-23.934 1.076-1.557 2.459-1.914 7.113-1.835l5.777.099-6.379-1.02c-6.198-.99-6.44-.946-8.5 1.544-3.003 3.629-6.596 4.24-9.855 1.676-3.516-2.765-4.191-5.308-2.352-8.863 1.917-3.707 5.602-4.695 9.845-2.639l3.241 1.571-2.361-2.05C138.841 60.922 136.677 60 135.33 60s-2.226-.36-1.954-.8-1.211-5.605-3.297-11.477c-2.085-5.872-3.585-10.884-3.332-11.136 1.447-1.448 14.131 6.348 21.416 13.162 4.419 4.134 8.813 6.639 7.273 4.147-.316-.511-.922-.714-1.347-.451s-2.306-1.13-4.181-3.095c-7.636-8.004-21.888-16.77-23.935-14.723-.702.702.096 4.252 2.523 11.223 2.755 7.916 3.316 10.632 2.507 12.144-1.002 1.874-1.276 1.819-7.272-1.445-7.345-3.998-12.69-5.544-22.231-6.428l-7-.649 12.426-6.469c7.513-3.912 13.443-6.38 15-6.245l2.574.224-2.472-1.041c-1.599-.673-3.189-.706-4.5-.092-1.116.522-3.603 1.514-5.528 2.205-1.925.69-6.97 2.971-11.211 5.068-5.042 2.493-7.943 3.438-8.381 2.73-.389-.63-2.419-.885-4.852-.611-3.854.434-4.611.096-9.62-4.299-2.99-2.624-5.162-5.046-4.826-5.382.335-.337 3.26-1.56 6.5-2.718 6.854-2.45 27.16-3.665 34.14-2.042 2.338.543 4.25.659 4.25.257 0-.768-19.06-4.131-22.5-3.97-1.1.051-5.199.674-9.11 1.384m34.139 1.143c-1.772 1.772-1.941 3.013-.529 3.886.55.34 1-.277 1-1.371 0-1.3.781-2.104 2.25-2.318 1.908-.279 1.988-.435.529-1.028-1.029-.417-2.336-.083-3.25.831m-57.948 11.54c-2.619 1.735-4.994 3.757-5.276 4.494s-.852 1.132-1.264.877-1.683.535-2.824 1.756c-1.659 1.775-1.838 2.529-.895 3.771.992 1.308 3.33 1.487 14.833 1.137 13.453-.409 13.662-.45 14.111-2.801.373-1.95-.658-3.298-5.651-7.387C72.257 41.251 69.021 39 68.426 39c-.596 0-3.226 1.419-5.845 3.154M85.75 49.08c-1.843 1.073-2.294 4.513-.885 6.736 1.235 1.948 4.391 2.148 6.385.404 2.282-1.995 2.211-3.759-.25-6.22-2.26-2.26-2.79-2.353-5.25-.92m-43.786 4.987c-.86 1.608-.752 2.608.488 4.5C45.058 62.545 50 61.191 50 56.5c0-4.487-5.969-6.295-8.036-2.433m52.353 2.392c-.998 2.24-.866 3.191.843 6.088 1.114 1.888 3.221 4.006 4.683 4.706 2.118 1.016 2.657 1.975 2.657 4.731 0 4.27-3.332 6.505-7.124 4.778-2.909-1.326-3.725-3.715-2.43-7.121.793-2.086.574-3.34-1.073-6.132C90.689 61.503 89.008 60 87.948 60c-1.02 0-2.972-.509-4.338-1.132-2.097-.955-3.158-.737-6.811 1.404-5.445 3.191-13.921 12.088-16.693 17.521C58.111 81.704 55 91.969 55 94.643c0 .672.877 1.501 1.949 1.841s3.322 1.901 5 3.468c4.293 4.01 4.278 9.581-.04 14.498l-3.09 3.521 2.161 3.496c1.188 1.923 1.834 4.024 1.436 4.669-.438.708-.293.906.364.5.601-.372 2.309.926 3.81 2.893 3.922 5.143 5.91 5.971 8.387 3.494 2.13-2.13 5.497-2.683 6.496-1.067.325.526 1.233.71 2.017.409.935-.358 1.65.346 2.077 2.044.773 3.083-.189 7.591-1.621 7.591-.655 0-.618-.744.104-2.093.616-1.151.864-3.112.552-4.358-.486-1.934-1.192-2.249-4.835-2.157-4.008.101-4.285.295-4.568 3.193-.329 3.374 1.381 5.432 4.721 5.684 1.144.086 2.08.422 2.08.746 0 .889 6.228 1.326 19.135 1.343 9.594.012 11.931-.282 13.322-1.672.927-.927 2.177-1.686 2.777-1.686 1.63 0 10.802-5.962 14.536-9.447 2.869-2.679 3.197-3.499 2.679-6.699-.481-2.977-.165-4.041 1.726-5.802 1.273-1.186 3.041-1.967 3.929-1.735 2.452.641 5.094-8.945 5.163-18.738.044-6.307-.473-9.395-2.355-14.079-2.25-5.598-2.647-6.019-5.912-6.286-8.489-.693-11.613-4.084-10.757-11.674l.516-4.581-7.477-3.596c-6.15-2.958-8.924-3.682-15.63-4.078-8.054-.476-8.166-.449-9.335 2.174m60.546.78c.75.956 1.74 1.506 2.2 1.222s1.346.434 1.968 1.597c.622 1.162 1.371 1.873 1.664 1.58s-.418-1.742-1.581-3.22S157 56.296 157 56.988c0 .965-.406.939-1.75-.116-1.584-1.242-1.62-1.207-.387.367m-98.535.643c-1.747.34-4.141 1.857-5.33 3.377l-2.157 2.759 1.796 15.428c1.67 14.34 1.888 15.211 3.09 12.351.712-1.692 1.578-4.926 1.926-7.187.348-2.26 1.536-6.063 2.641-8.449 2.024-4.369 11.065-14.4 15.706-17.426 2.412-1.573 2.2-1.627-6-1.551-4.675.044-9.927.358-11.672.698m87.273 7.784c.92 3.832 1.399 4.194 1.399 1.06 0-1.435-.468-2.897-1.04-3.251-.682-.421-.806.333-.359 2.191M159 66c-2.201 2.201-2.667 6.47-.83 7.605.788.487.96.177.528-.95-1.719-4.478 4.28-9.578 7.815-6.644.863.716 1.487.808 1.487.218 0-2.738-6.33-2.899-9-.229m-63.091 4.61c-.996 1.2-.931 1.796.331 3.059 1.833 1.833 3.76 1.002 3.76-1.621 0-2.426-2.532-3.317-4.091-1.438m-82.945 6.426c-3.251 3.251-1.14 7.914 3.599 7.949 3.338.024 7.854 5.51 8.001 9.718.091 2.646.85 4.215 2.781 5.755 2.078 1.657 2.655 2.986 2.655 6.119 0 9.902 5.208 22.664 12.618 30.923l4.486 5-4.019-6.354c-5.791-9.156-11.001-24.59-11.068-32.788-.026-3.2 4.326-3.962 7.938-1.39 3.402 2.422 4.179 2.544 3.407.532-.317-.825-1.176-1.5-1.91-1.5-1.811 0-2.781-1.783-3.417-6.287-.294-2.083-.862-3.792-1.261-3.797s-1.938-.638-3.419-1.407c-1.875-.973-3.247-1.102-4.513-.424-2.624 1.404-8.014-4.542-7.329-8.085.615-3.182-.322-4.523-3.748-5.361-2.04-.499-3.26-.144-4.801 1.397m146.35.214c1.049.963 3.095 1.709 4.547 1.66 2.357-.081 2.265-.197-.861-1.09-1.925-.55-3.971-1.297-4.547-1.66s-.189.127.861 1.09m-144.67.44c-1.205 1.204-.649 4.371.869 4.953 1.885.724 4.487-1.334 4.487-3.547 0-1.657-4.044-2.719-5.356-1.406m112.627 11.3c-2.488 1.114-4.493 2.963-5.559 5.126l-1.666 3.384-.023-4.75c-.022-4.589-.123-4.75-2.975-4.75-2.916 0-2.956.076-3.25 6.116l-.298 6.117-4.333-5.992c-5.809-8.032-7.503-7.982-13.662.406l-4.697 6.397-4.938-6.522L80.933 88H61v3c0 2.667.333 3 3 3h3v8.393c0 8.681.848 10.37 4.5 8.969 1.168-.449 1.5-2.431 1.5-8.969V94h5.922l.289 8.75.289 8.75h2.99c2.534 0 3.069-.453 3.505-2.972l.515-2.972 2.246 2.972c1.86 2.461 2.406 2.714 3.176 1.472.512-.825 1.537-2.313 2.277-3.306 1.249-1.675 1.361-1.615 1.564.84.328 3.953.859 4.334 5.485 3.934 2.333-.202 5.029-.39 5.992-.418 1.293-.037 1.75-.889 1.75-3.262v-3.212l2.75 3.162c1.513 1.74 3.875 3.298 5.25 3.462 2.332.28 2.521-.029 2.81-4.585l.311-4.884 1.689 3.384c2.156 4.318 8 7.331 12.558 6.476 4.583-.86 8.668-5.441 9.344-10.479.631-4.707.463-4.772-7.761-3.008-4.917 1.054-5.128 1.234-4.722 4 .254 1.733-.028 2.896-.702 2.896-2.058 0-3.527-2.359-3.527-5.665 0-3.933 2.405-5.55 7.626-5.127 2.542.206 3.93-.215 4.715-1.43 2.543-3.934-5.856-6.57-12.07-3.788m-99.159 2.375c-.696.838-1.118 2.516-.939 3.728.824 5.551 9.073 4.956 9.628-.694.192-1.96-.169-3.111-1-3.192-.716-.07-2.453-.406-3.862-.747-1.693-.41-2.99-.104-3.827.905M.355 100.5c-.003 4.95.166 7.101.376 4.78.209-2.321.212-6.371.005-9-.206-2.629-.378-.73-.381 4.22M148 101.744c0 2.793-.868 7.865-1.928 11.273s-1.716 6.748-1.456 7.424c.509 1.327 12.893 3.98 14.356 3.076.697-.431-9.039-24.727-10.593-26.434-.208-.229-.379 1.869-.379 4.661m-99.545-.289c-4.41 4.409-2.196 12.758 3.808 14.356 3.793 1.01 8.737-.353 8.737-2.409 0-.771.45-1.402 1-1.402s1-1.61 1-3.577c0-7.807-9.267-12.247-14.545-6.968M53 131.583c0 10.46.287 13.472 1.25 13.096.688-.268 5.157-1.717 9.931-3.219l8.681-2.733-5.386-4.923c-6.189-5.656-9.933-11.171-9.085-13.381.334-.87.161-1.264-.402-.916-.544.336-.989.134-.989-.448S56.1 118 55 118c-1.902 0-2 .667-2 13.583m52.655-11.754c-2.528 2.793-2.114 7.665.849 9.995 2.231 1.756 2.467 2.578 2.167 7.573-.425 7.081.907 7.335 1.851.353.558-4.123 1.356-5.794 3.719-7.786 3.484-2.937 3.979-6.959 1.229-9.997-2.273-2.511-7.599-2.586-9.815-.138m1.977 2.286c-1.697 2.423-1.198 4.512 1.413 5.909 4.092 2.19 7.547-2.608 4.39-6.096-2.257-2.494-3.963-2.439-5.803.187m30.035-1.448c-2.125 2.124.207 5.606 3.083 4.602 1.784-.622 1.547-3.941-.332-4.662-1.958-.752-1.94-.752-2.751.06m24 4c-1.462 1.461-.609 5.217 1.324 5.83 2.494.792 4.009-.098 4.009-2.356 0-3.011-3.51-5.298-5.333-3.474m-17.999 1.755c-.3.783-1.433 1.57-2.518 1.75-2.166.36-32.298 37.78-31.483 39.098.63 1.02 7.047-.14 10.533-1.904 1.486-.751 3.585-1.366 4.667-1.366 2.328 0 14.663-8.074 21.416-14.018 2.624-2.31 6.78-7.015 9.235-10.455 4.381-6.139 4.436-6.313 2.937-9.316-1.242-2.491-2.459-3.261-6.54-4.136-6.541-1.403-7.592-1.358-8.247.347M7 133c0 2.109 1.455 2.691 2.5 1 .34-.55.115-1-.5-1s-.84-.45-.5-1 .141-1-.441-1S7 131.9 7 133m115 8.435c-2.475 1.288-6.404 2.911-8.731 3.606-4.58 1.369-4.524 1.268-6.294 11.209-.661 3.713-1.553 6.75-1.983 6.75s-.39-1.687.089-3.75.882-5.662.895-8L106 147l-5.75-.024c-3.162-.013-7.537-.438-9.722-.945s-4.078-.815-4.207-.686 1.521 2.467 3.668 5.195c2.146 2.728 5.152 6.782 6.68 9.01 2.313 3.372 3.337 4.05 6.122 4.05 1.839 0 3.672.53 4.072 1.179.85 1.374 3.143-.956 5.581-5.671.85-1.643 2.402-3.587 3.451-4.322s2.94-3.124 4.203-5.311 3.386-5.438 4.718-7.225 2.255-3.229 2.053-3.203c-.203.025-2.394 1.1-4.869 2.388m-58.715 3.113c-11.506 4.109-11.712 4.233-10.141 6.125 1.864 2.247 9.632 7.399 11.777 7.812 1.036.199 3.165 1.025 4.731 1.835 7.526 3.89 26.921 8.291 27.648 6.273.217-.601-3.385-5.931-8.003-11.843-6.199-7.937-8.979-10.75-10.624-10.75-1.225 0-3.116-.617-4.2-1.372-1.73-1.202-3.11-.966-11.188 1.92m102.929-.723c-2.224 1.448-2.382 5.713-.281 7.614 2.331 2.11 4.873 1.748 6.66-.948 2.61-3.939-2.448-9.224-6.379-6.666M100.2 166.2c-3.033 3.033-.02 7.474 4.33 6.382 3.628-.911 4.892-4.703 2.099-6.297-2.74-1.563-4.922-1.592-6.429-.085m-13.589 18.372c-1.478 3.852 3.649 7.229 6.238 4.11.807-.972.693-1.891-.434-3.5-1.782-2.543-4.935-2.875-5.804-.61"/><path fill-opacity=".365" fill-rule="evenodd" d="M81 2.485C49.332 9.57 24.654 28.325 11.113 55.598.135 77.709-2.414 101.517 3.625 125.557c1.52 6.052 1.627 6.191 3.397 4.421 1.737-1.737 1.746-2.115.184-7.653-2.584-9.159-2.252-35.366.579-45.609 9.301-33.66 35.572-59.834 68.419-68.166 18.018-4.571 37.464-4.057 53.21 1.404 3.253 1.128 6.109 1.856 6.347 1.618s-1.407-.985-3.656-1.659c-3.289-.985-3.868-1.494-2.955-2.593 1.48-1.784 1.382-1.85-5.65-3.802C115.009 1.161 89.669.545 81 2.485m59.398 7.659c2.841 1.498 3.533 2.281 2.554 2.886-.74.457-2.126.412-3.082-.1-.956-.511-2.106-.916-2.554-.898-.449.017 2.451 1.705 6.444 3.75 10.486 5.37 19.027 12.049 28.387 22.198 4.52 4.902 8.616 8.666 9.102 8.366s1.577.286 2.423 1.304c3.593 4.32-2.305-4.566-6.868-10.346-8.43-10.68-19.546-19.623-32.525-26.167-6.835-3.446-10.133-4.29-3.881-.993M132.89 20.25c-1.169 2.227-1.159 2.231.927.379 1.175-1.043 2.812-1.602 3.698-1.262.919.353 1.331.193.978-.378-1.1-1.78-4.397-1.038-5.603 1.261m7.826.772c.46 1.761-.089 2.878-2.306 4.692l-2.91 2.381 2.774-1.219c2.991-1.314 4.648-5.354 2.909-7.093-.761-.761-.896-.403-.467 1.239M129 28.089c-2.154 1.762-2.196 1.897-.306.973 1.207-.59 2.471-1.52 2.809-2.067.903-1.461.297-1.196-2.503 1.094m-40.5 1.977c-12.172 1.38-25.756 7.749-35.711 16.744-2.697 2.436-4.405 3.262-5.924 2.865-1.499-.392-2.989.295-5 2.306-3.128 3.129-3.587 5.265-1.541 7.176 1.088 1.018.648 2.752-2.485 9.79-2.094 4.704-3.783 9.228-3.753 10.053s.64-.088 1.356-2.029c.715-1.941 2.505-5.907 3.978-8.813 2.129-4.201 3.115-5.22 4.812-4.971 2.217.325 3.077 2.279 4.756 10.813.712 3.62.781 3.025.351-3.036-.51-7.197-.407-7.681 2.286-10.75L54.445 57H77.3l-3.953 2.864c-6.37 4.614-13.002 12.924-15.263 19.125-2.988 8.194-2.583 8.278 1.411.293 4.009-8.012 11.23-15.726 18.35-19.601 4.303-2.342 5.07-2.489 6.157-1.178.684.823 2.306 1.497 3.606 1.497 1.637 0 3.084 1.139 4.711 3.71 1.972 3.117 2.178 4.162 1.286 6.526-1.361 3.605.108 6.146 3.806 6.586 3.577.426 5.589-1.386 5.589-5.031 0-2.358-.598-3.19-2.923-4.068-1.643-.62-3.822-2.704-4.978-4.76-1.756-3.125-1.877-4.042-.827-6.302 1.13-2.433 1.714-2.646 7.296-2.653 7.002-.009 14.988 2.092 21.432 5.64 2.475 1.363 3.6 1.724 2.5.801-5.102-4.276-14.787-7.796-22.713-8.255-4.801-.278-7.732-.859-7.521-1.492.19-.57 5.608-3.811 12.04-7.203S119.333 37 119.74 36.594c.625-.626-11.24 4.724-22.385 10.093-2.053.989-3.962 1.236-5.5.713-3.309-1.127-4.115-1.149-6.122-.172-1.365.665-3.127-.337-7.75-4.406C74.692 39.925 72 37.269 72 36.918c0-1.203 13.504-5.113 19.5-5.646 3.3-.293 6.675-.911 7.5-1.372 1.815-1.016-.395-.981-10.5.166m17.262.641c1.244.239 3.044.23 4-.02s-.062-.446-2.262-.435-2.982.216-1.738.455m8.051.976c.721.289 1.584.253 1.916-.079s-.258-.568-1.312-.525c-1.165.048-1.402.285-.604.604M61.407 42.868c-9.334 6.579-10.771 8.252-9.08 10.564 1.196 1.636 2.495 1.729 14.905 1.064 12.721-.681 13.633-.865 14.187-2.862.469-1.696-.693-3.308-5.664-7.851-3.44-3.144-6.522-5.731-6.848-5.75-.326-.018-3.701 2.158-7.5 4.835M85.05 49.44c-2.123 2.558-.873 6.91 2.305 8.021 2.454.859 3.12.67 4.75-1.342 2.382-2.941 2.37-3.644-.105-6.119-2.349-2.349-5.27-2.585-6.95-.56m-41.935 3.192c-2.495 1.747-2.694 4.097-.6 7.085C45 63.266 51 60.991 51 56.5c0-3.91-4.602-6.167-7.885-3.868M190.031 59.5c0 .55.436 1.675.969 2.5s.969 1.05.969.5-.436-1.675-.969-2.5-.969-1.05-.969-.5m-58.666 1.669c-5.2 2.518-6.322 10.751-1.976 14.489 2.676 2.302 8.922 3.266 9.987 1.542.272-.44-1.109-.8-3.07-.8-2.651 0-4.173-.707-5.936-2.756-4.129-4.801-2.269-10.746 3.925-12.537 1.883-.544 2.38-.936 1.205-.949-1.1-.013-2.961.443-4.135 1.011M162 64.383c0 .211 1.111.596 2.47.856 1.358.26 2.232.087 1.941-.383-.512-.829-4.411-1.246-4.411-.473m30.442.994c.326 1.032.191 2.382-.299 3-.539.679-.155 4.088.97 8.623 5.804 23.386 1.996 50.123-10.198 71.59-5.116 9.008-18.401 23.515-27.441 29.966-8.191 5.845-21.192 11.951-30.974 14.547-12.316 3.268-33.158 3.717-45.285.976-5.412-1.224-10.406-1.818-11.972-1.425-2.486.624-2.279.813 2.785 2.541 7.03 2.397 21.781 4.797 29.472 4.795 9.962-.003 24.932-2.737 34.345-6.273 15.137-5.686 23.504-11.077 35.255-22.717 15.968-15.817 24.167-30.812 28.476-52.08 3.074-15.167.362-46.118-4.721-53.883-.824-1.259-.899-1.198-.413.34m-48.363 1.206c.048 1.165.285 1.402.604.605.289-.722.253-1.585-.079-1.917s-.568.258-.525 1.312m14.793.167c-1.243 1.586-1.208 1.621.378.378.963-.755 1.75-1.543 1.75-1.75 0-.823-.821-.294-2.128 1.372m-62.767 3.623C94.559 72.237 95.773 75 98.138 75c2.427 0 3.475-2.556 1.851-4.513-1.532-1.846-2.424-1.872-3.884-.114m74.895.404c0 .978-.711 2.891-1.58 4.25l-1.58 2.473 2.08-2.361c1.851-2.101 2.891-6.139 1.58-6.139-.275 0-.5.8-.5 1.777M142.659 73c-.975 1.65-1.552 3-1.284 3 .269 0 1.45-1.35 2.625-3s1.753-3 1.284-3-1.65 1.35-2.625 3m7.103-1.293c1.244.239 3.044.23 4-.02s-.062-.446-2.262-.435-2.982.216-1.738.455M14.25 76.662c-.687.278-1.214 1.48-1.171 2.671q.08 2.165.615.667c.295-.825 1.245-2.062 2.112-2.75 1.575-1.249.804-1.54-1.556-.588m146.603 1.591c.504.504 1.981.749 3.282.544 2.001-.315 1.861-.455-.916-.916-1.988-.329-2.921-.183-2.366.372m-18.235 2.299c-.327.854-.177 1.294.333.978.51-.315.922.224.914 1.198-.008.975.508 3.797 1.147 6.272.667 2.586.957 8.115.682 13-.571 10.131-2.911 16-6.379 16-3.286 0-6.088 4.532-4.437 7.176.987 1.58.979 2.319-.041 3.652-3.128 4.094-9.878 9.357-16.19 12.625-8.543 4.422-6.51 4.713 2.353.335 8.847-4.369 8.72-4.329 6.778-2.137-.946 1.069-3.421 4.478-5.5 7.575-2.078 3.097-5.963 8.391-8.634 11.764-2.67 3.373-4.69 6.297-4.488 6.499s7.038-8.15 15.191-18.561S139.752 128 140.463 128s1.852-.675 2.537-1.5c1.472-1.773 3.239-1.857 9.746-.461 4.078.875 5.029 1.528 6.01 4.126 1.47 3.893.508 5.854-7.532 15.359-7.672 9.071-18.754 16.609-29.331 19.95-4.398 1.389-8.986 2.529-10.195 2.532-1.391.004-2.823 1.105-3.901 3-1.367 2.402-2.375 2.994-5.097 2.994-2.567 0-4.332.912-7.246 3.742-2.12 2.058-4.581 3.619-5.47 3.468-2.195-.371-5.27 3.214-4.688 5.466.384 1.485.494 1.413.588-.391.123-2.354 2.331-3.852 5.616-3.81 1.518.019 2.075.807 2.313 3.268.398 4.132-3.094 6.244-6.937 4.196-2.166-1.155-2.255-1.12-1.004.397q2.586 3.133 6.941.082c1.78-1.246 2.209-2.41 2.028-5.491-.185-3.129.345-4.512 2.651-6.919 1.72-1.795 3.915-3.014 5.445-3.023 3.022-.018 4.361-.802 5.769-3.379.685-1.254 3.531-2.519 8.414-3.742 16.731-4.188 33.897-16.131 42.566-29.614 1.856-2.887 3.791-5.25 4.299-5.25s1.225 1.6 1.591 3.556c.543 2.892.241 4.01-1.621 5.992-3.256 3.466-3.04 8.122.519 11.183 6.096 5.244 13.914-1.343 10.905-9.186-.342-.891-1.857-2.258-3.368-3.039-3.616-1.87-5.385-8.057-3.231-11.301 1.188-1.789 1.239-2.746.27-5.083-.908-2.194-.919-3.894-.046-7.139 1.577-5.853 2.794-17.983 1.805-17.983-.445 0-.828 1.463-.851 3.25s-.853 6.625-1.844 10.75c-1.401 5.832-2.225 7.563-3.708 7.784-1.594.237-3.453-3.242-11.353-21.25C147.857 88.69 143.517 79 143.41 79s-.464.698-.792 1.552M50.232 83c0 1.925.206 2.713.457 1.75.252-.963.252-2.537 0-3.5-.251-.963-.457-.175-.457 1.75m-17.153-.417c.048 1.165.285 1.402.604.605.289-.722.253-1.585-.079-1.917s-.568.258-.525 1.312m-20.207.667c.757.965 2.552 1.689 4 1.614l2.628-.136-2.5-.46c-1.375-.253-3.175-.979-4-1.614-1.305-1.004-1.322-.927-.128.596m156.207 1.333c.048 1.165.285 1.402.604.605.289-.722.253-1.585-.079-1.917s-.568.258-.525 1.312M55.158 89c0 1.375.227 1.938.504 1.25.278-.687.278-1.812 0-2.5-.277-.687-.504-.125-.504 1.25m6.23.432C60.406 91.99 61.762 94 64.469 94c2.51 0 2.531.072 2.531 8.5v8.5h6V94.227l3-.44 3-.441V111h3c2.795 0 3-.254 3-3.712v-3.712l2.953 3.462 2.953 3.462 2.511-3 2.511-3 .036 3.25c.032 2.928.33 3.25 3.001 3.25h2.965l.324-10.25.324-10.25.211 10.25L103 111h3c2.712 0 3.003-.312 3.027-3.25l.027-3.25 2.723 3.259c1.869 2.236 3.586 3.256 5.473 3.25L120 111V88h-2.952c-2.922 0-2.956.064-3.25 6.235l-.298 6.235-4.5-6.206c-4.462-6.153-5.986-7.423-6.015-5.014-.011.908-.254.874-.886-.124-.652-1.029-2.178.29-6.076 5.25-2.863 3.643-5.32 6.624-5.459 6.624-.14 0-2.34-2.841-4.89-6.314l-4.635-6.313-9.525-.254c-7.884-.211-9.628.016-10.126 1.313m63.137 1.843c-2.994 2.994-3.525 4.206-3.525 8.048 0 10.185 11.752 15.736 19.146 9.044 2.329-2.107 4.543-9.09 3.272-10.32-.536-.519-3.103-.45-6.168.165-4.902.983-5.25 1.248-5.25 3.988 0 2.546.298 2.859 2.25 2.362 2.215-.564 2.213-.554-.085.624-2.775 1.421-4.951.373-7.106-3.42-1.282-2.258-1.246-2.831.328-5.234 1.563-2.385 2.298-2.66 6.326-2.365 3.472.254 4.817-.077 5.649-1.389 1.616-2.547-.358-3.975-6.278-4.544-4.711-.453-5.261-.257-8.559 3.041M170.232 91c0 1.925.206 2.713.457 1.75.252-.963.252-2.537 0-3.5-.251-.963-.457-.175-.457 1.75M27.75 90.08c-1.148.668-1.703 2.121-1.614 4.22.117 2.74.202 2.841.596.7.6-3.265 1.914-4.783 4.591-5.304 1.951-.38 1.969-.435.177-.529-1.1-.059-2.788.352-3.75.913M51.232 92c0 1.925.206 2.713.457 1.75.252-.963.252-2.537 0-3.5-.251-.963-.457-.175-.457 1.75m-14.037 2.5c.02 1.65.244 2.204.498 1.231s.237-2.323-.037-3-.481.119-.461 1.769m16.963-.5c0 1.375.227 1.938.504 1.25.278-.687.278-1.812 0-2.5-.277-.687-.504-.125-.504 1.25m93.888 6.5c-.038 2.75-.787 7.475-1.664 10.5-2.926 10.091-2.859 10.252 5.118 12.224 3.85.952 7.539 1.539 8.198 1.305 1.141-.406-1.208-6.514-9.048-23.529l-2.535-5.5zM51 98.395c0 .217 1.762.563 3.916.768s3.702.028 3.441-.395C57.882 97.999 51 97.65 51 98.395M27 100c.825.533 1.95.969 2.5.969s.325-.436-.5-.969-1.95-.969-2.5-.969-.325.436.5.969m5.558.334c-1.605 1.174-1.748 2.307-1.192 9.433.721 9.234 1.363 11.313 5.186 16.799 1.508 2.164 2.377 3.034 1.931 1.934-3.073-7.583-5.443-15.886-6.027-21.113-.672-6.016-.641-6.124 1.976-6.781 1.463-.367 3.159-.359 3.768.018.671.414.827.229.395-.469-.955-1.546-3.794-1.461-6.037.179m14.481.855c-1.356 1.455-1.985 3.381-1.879 5.75l.16 3.561.415-3.5c.228-1.925 1.359-4.513 2.514-5.75S50.063 99 49.713 99c-.349 0-1.553.985-2.674 2.189M64 107.577c0 2.653-.787 4.364-3.045 6.622-1.675 1.674-2.859 3.23-2.633 3.456.227.227 1.822-1.194 3.545-3.156 2.221-2.53 3.133-4.577 3.133-7.034 0-1.906-.225-3.465-.5-3.465s-.5 1.61-.5 3.577m-16.774 8.002c.95.991 1.942 1.587 2.205 1.324s-.514-1.074-1.726-1.803c-2.107-1.265-2.128-1.243-.479.479m5.441 2.088c-.367.366-.678 2.954-.691 5.75s-.446 6.883-.961 9.083c-.516 2.2-.658 5.784-.315 7.964 1.059 6.728 2.152 1.267 2.23-11.141.061-9.768.291-11.234 1.82-11.634 1.402-.366 1.435-.48.167-.573-.871-.064-1.884.184-2.25.551m56.833 1.057c-3.517.864-4.587 2.431-4.236 6.202.39 4.176 1.352 6.087 3.045 6.042.762-.02.651-.47-.309-1.25-1.321-1.073-1.721-3.599-1.171-7.401.259-1.788 3.833-2.568 6.133-1.337 3.663 1.96 1.929 8.937-2.045 8.234-.321-.056-.592.435-.603 1.092-.01.657-.273 3.669-.584 6.694l-.565 5.5 1.079-5.75c.594-3.162 1.612-5.75 2.263-5.75 4.317 0 6.06-8.789 2.27-11.443-1.222-.856-2.459-1.505-2.75-1.441s-1.427.337-2.527.608m27.89 2.702c-.91 2.371.377 4.765 2.357 4.384 1.107-.213 1.753-1.249 1.753-2.81 0-2.851-3.156-4.059-4.11-1.574m23.661 4.013c-1.548 1.865-.834 4.072 1.767 5.463 2.67 1.429 6.133-2.165 4.538-4.711-1.416-2.259-4.727-2.654-6.305-.752M66 132.378c0 .207.787.995 1.75 1.75 1.586 1.243 1.621 1.208.378-.378-1.307-1.666-2.128-2.195-2.128-1.372m9.2.822c-.66.66-1.2 1.646-1.2 2.191s.563.262 1.25-.629 2.375-1.816 3.75-2.055l2.5-.435-2.55-.136c-1.403-.075-3.09.404-3.75 1.064m9.936 3.468c-.075 1.193-.395 2.993-.712 4-.544 1.734-.514 1.737.566.053.628-.978.948-2.778.712-4-.429-2.219-.43-2.219-.566-.053M7.031 136.5c0 .55.436 1.675.969 2.5s.969 1.05.969.5-.436-1.675-.969-2.5-.969-1.05-.969-.5m60.969 5c-1.925.741-4.37 1.382-5.434 1.424-2.117.083-10.9 4.075-10.296 4.679.515.515 19.002-5.652 20.18-6.732 1.325-1.215-.234-.995-4.45.629m-54.652.652c.713 2.29-.365 3.074-2.185 1.589-3.075-2.51 5.191 11.278 11.455 19.107 6.228 7.784 18.633 18.695 25.548 22.473l3.334 1.821-2.75-2.154c-1.513-1.185-2.75-2.725-2.75-3.421 0-.697-2.794-3.697-6.209-6.667-10.995-9.562-17.453-17.315-23.542-28.261-1.878-3.376-3.183-5.395-2.901-4.487m62.505 1.101c.504.504 1.981.749 3.282.544 2.001-.315 1.861-.455-.916-.916-1.988-.329-2.921-.183-2.366.372m89.182 1.681c-2.491 4.655-.259 8.453 4.636 7.888 3.864-.446 5.49-4.882 2.856-7.792-2.324-2.568-6.142-2.617-7.492-.096m-79.222-.251c.721.289 1.584.253 1.916-.079s-.258-.568-1.312-.525c-1.165.048-1.402.285-.604.604m4.456 1.01c.973.254 2.323.237 3-.037s-.119-.481-1.769-.461-2.204.244-1.231.498M100 146l-5.5.674 5.191.163c2.855.09 5.469-.287 5.809-.837s.479-.927.309-.837-2.784.466-5.809.837m6.995 4.523c-.63 3.038-.953 6.075-.717 6.75s.764-1.147 1.173-4.049 1.407-5.939 2.218-6.75c1.299-1.299 1.295-1.474-.027-1.474-1.014 0-1.872 1.789-2.647 5.523M105.158 161c0 1.375.227 1.938.504 1.25.278-.687.278-1.812 0-2.5-.277-.687-.504-.125-.504 1.25m-32.503 3.069c6.934 3.211 24.097 6.957 22.884 4.995-.361-.585-1.902-1.064-3.423-1.064s-5.882-1.053-9.691-2.34-8.5-2.604-10.425-2.927l-3.5-.588zM99.2 165.2c-.66.66-1.147 2.348-1.082 3.75.11 2.373.163 2.342.759-.442.49-2.292 1.339-3.141 3.631-3.631 2.784-.596 2.815-.649.442-.759-1.403-.065-3.09.422-3.75 1.082"/><path fill-opacity=".247" fill-rule="evenodd" d="M85.5 2.008c-32.637 4.953-60.487 25.5-74.999 55.332-7.525 15.469-8.917 22.2-8.962 43.327-.021 9.992.234 18.44.568 18.774s1.25.359 2.036.058c1.168-.448 1.355-2.941 1.022-13.622-.477-15.307.832-24.862 5.05-36.86C20.963 38.445 45.855 15.855 77.5 7.953c9.704-2.423 27.093-3.183 37.482-1.638 3.015.449 5.159.493 4.765.099s.025-1.258.93-1.92C124.252 1.88 98.39.052 85.5 2.008m65.606 15.365c-.883 1.063-.215 1.944 3.136 4.139 2.342 1.534 6.422 4.585 9.066 6.78 3.214 2.669 5.141 3.659 5.811 2.989s-.977-2.789-4.97-6.392c-8.074-7.286-11.565-9.297-13.043-7.516m-12.234 8.377c-1.243 1.586-1.208 1.621.378.378 1.666-1.307 2.195-2.128 1.372-2.128-.207 0-.995.788-1.75 1.75M90.25 30.689c.963.252 2.537.252 3.5 0 .963-.251.175-.457-1.75-.457s-2.713.206-1.75.457m16.5-.027c.688.278 1.813.278 2.5 0 .688-.277.125-.504-1.25-.504s-1.937.227-1.25.504m-21.937 1.021c.721.289 1.584.253 1.916-.079s-.258-.568-1.312-.525c-1.165.048-1.402.285-.604.604M77.5 33.464c-3.862 1.768-2.066 1.794 2.5.036 1.925-.741 2.825-1.362 2-1.379s-2.85.587-4.5 1.343m92.826-.703c-1.705 1.108 4.885 8.345 6.621 7.272.965-.597.438-1.718-2.077-4.418-2.056-2.207-3.828-3.32-4.544-2.854m-98.819 3.228c-.35.566.051.734.941.393 1.732-.665 2.049-1.382.611-1.382-.518 0-1.216.445-1.552.989M62 39.992c-3.891 2.58-12 10.533-12 11.77 0 .233 2.329-1.671 5.176-4.23s7.145-5.808 9.552-7.218l4.376-2.565 2.698 2.376L74.5 42.5l-2.424-2.75c-3.069-3.481-4.514-3.446-10.076.242m50.507-.003c-.35.566.051.734.941.393 1.732-.665 2.049-1.382.611-1.382-.518 0-1.216.445-1.552.989m-5.066 2.566c-1.83 1.467-1.798 1.487.559.365 3.061-1.458 3.628-1.92 2.358-1.92-.537 0-1.849.7-2.917 1.555M96.25 48.22c-1.237.597-2.25 1.477-2.25 1.956s1.125.133 2.5-.768c3.668-2.403 3.539-3.015-.25-1.188m-13.544 2.717c-2.365 2.811-3.002 2.986-14.829 4.074-6.797.626-12.588 1.376-12.868 1.668s4.778.368 11.241.169S78 56.729 78 57.027s-1.237 1.291-2.75 2.208c-5.195 3.146-12.053 10.627-15.14 16.515-2.023 3.856-.59 2.471 2.708-2.618 3.426-5.287 9.423-10.649 15.634-13.978 3.494-1.873 4.122-1.944 5.572-.632.898.813 2.723 1.481 4.055 1.486 2.997.009 7.83 7.483 6.013 9.3-.601.601-1.092 2.072-1.092 3.27 0 5.155 7.702 6.099 9.43 1.155.815-2.331.628-3.004-1.188-4.276-1.185-.83-4.274-3.748-6.864-6.483C91.788 60.238 88.854 58 87.857 58s-2.548-1.125-3.449-2.5c-1.517-2.316-1.517-2.684 0-5 2.219-3.387 1.322-3.156-1.702.437M41.872 52.75c-1.269 1.619-1.222 1.64.628.283 1.1-.807 2.188-1.594 2.417-1.75S44.863 51 44.289 51s-1.662.788-2.417 1.75m51.605 3.5c-1.39 2.871-1.393 3.023-.025 1.309.851-1.068 1.548-2.285 1.548-2.704s3.037-.921 6.75-1.113l6.75-.35-6.724-.196c-6.67-.194-6.737-.169-8.299 3.054m-44.072 5L47.5 63.5l2.25-1.905c1.237-1.048 2.25-2.06 2.25-2.25 0-.8-.805-.209-2.595 1.905m80.089 1.756c-2.556 2.825-1.468 3.087 1.22.295 1.218-1.266 1.85-2.301 1.405-2.301s-1.626.903-2.625 2.006m-88.93.701c-.542 1.425-.428 1.54.56.56.684-.679.991-1.486.683-1.793-.308-.308-.867.247-1.243 1.233M48.158 66c0 1.375.227 1.938.504 1.25.278-.687.278-1.812 0-2.5-.277-.687-.504-.125-.504 1.25m114.655-1.317c.721.289 1.584.253 1.916-.079s-.258-.568-1.312-.525c-1.165.048-1.402.285-.604.604m-3.941 2.067c-1.243 1.586-1.208 1.621.378.378.963-.755 1.75-1.543 1.75-1.75 0-.823-.821-.294-2.128 1.372m-63.51 3.75c-.317.825-.305 2.207.027 3.07.825 2.152 4.996 1.425 5.449-.95.602-3.155-4.344-5.07-5.476-2.12m55.388 1.162c.688.278 1.813.278 2.5 0 .688-.277.125-.504-1.25-.504s-1.937.227-1.25.504m42.976 1.384c-.909 3.495.404 8.14 1.856 6.569.777-.841.762-2.292-.055-5.143-1.075-3.751-1.175-3.83-1.801-1.426m-24.854 2.704c-1.243 1.586-1.208 1.621.378.378.963-.755 1.75-1.543 1.75-1.75 0-.823-.821-.294-2.128 1.372m-35.622 1.939c.963.252 2.537.252 3.5 0 .963-.251.175-.457-1.75-.457s-2.713.206-1.75.457m29.563.994c.721.289 1.584.253 1.916-.079s-.258-.568-1.312-.525c-1.165.048-1.402.285-.604.604M57.624 80.539c-.965 2.514-.681 3.163.498 1.136.584-1.004.851-2.036.593-2.293-.257-.258-.749.263-1.091 1.157m-41.811 4.144c.721.289 1.584.253 1.916-.079s-.258-.568-1.312-.525c-1.165.048-1.402.285-.604.604M70 88.999c-6.838.457-7.528.7-7.82 2.751-.273 1.924.136 2.25 2.824 2.25h3.143l-.324 8.502-.323 8.503 2.75-.003L73 111V94.25l3-.6c2.113-.423 3-1.182 3-2.566 0-2.602-.281-2.667-9-2.085m-40.187.684c.721.289 1.584.253 1.916-.079s-.258-.568-1.312-.525c-1.165.048-1.402.285-.604.604m50.137 2.162c-.303 19.091-.362 18.631 2.444 18.971 2.404.292 2.608.021 2.633-3.5l.027-3.816 2.881 3.475 2.88 3.475 2.059-2.475c1.133-1.361 2.074-2.813 2.093-3.225.018-.412.532-.75 1.142-.75.679 0 .951 1.358.701 3.5-.381 3.264-.219 3.5 2.391 3.5H102v-11c0-6.05-.138-11-.307-11s-2.455 2.925-5.08 6.5-5.074 6.499-5.443 6.498-2.192-2.235-4.053-4.965-4.223-5.724-5.25-6.653c-1.785-1.616-1.869-1.551-1.917 1.465M104 98.418c0 5.18-.273 10.13-.607 11-.473 1.233.078 1.582 2.5 1.582 2.922 0 3.107-.223 3.107-3.738v-3.738l2.66 3.738c2.003 2.816 3.36 3.738 5.5 3.738H120V89h-2.5c-2.252 0-2.514.421-2.641 4.25-.078 2.338-.099 5.263-.047 6.5.051 1.237-.023 2.25-.166 2.25s-2.408-2.925-5.033-6.5-4.962-6.5-5.193-6.5-.42 4.238-.42 9.418m22.784-7.68c-3.19 1.978-4.938 5.701-5.083 10.829-.226 7.988 11.443 12.707 17.761 7.183 2.722-2.38 4.775-7.749 3.655-9.56-.837-1.355-9.212.361-10.327 2.116-1.535 2.415-.763 3.344 2.46 2.963 3.087-.366 3.153-.307 1.309 1.173-2.817 2.261-5.496 1.918-8.25-1.054-3.066-3.308-2.718-7.014.912-9.713 2.241-1.666 3.15-1.827 5.154-.914 2.032.926 2.731.779 4.239-.887 1.551-1.713 1.6-2.127.346-2.92-2.349-1.485-9.231-1.043-12.176.784m-72.705 3.845c.048 1.165.285 1.402.604.605.289-.722.253-1.585-.079-1.917s-.568.258-.525 1.312m143.171 1.15c-.687 1.466-1.256 5.389-1.263 8.716-.029 13.392-5.878 32.485-14.156 46.21-8.913 14.778-23.564 28.105-39.331 35.776-11.391 5.542-21.001 8.199-35.798 9.897-6.441.739-12.047 1.698-12.457 2.13-.41.433 4.88.552 11.755.266 19.614-.816 37.196-7.054 53.165-18.862 24.808-18.345 40.947-50.733 39.658-79.582-.297-6.641-.423-7.004-1.573-4.551M147.3 101c0 3.025.187 4.263.416 2.75s.229-3.987 0-5.5-.416-.275-.416 2.75m-95.031-2.307c.973.254 2.323.237 3-.037s-.119-.481-1.769-.461-2.204.244-1.231.498m-4.864 2.557L45.5 103.5l2.25-1.905c1.237-1.048 2.25-2.06 2.25-2.25 0-.8-.805-.209-2.595 1.905m-16.326 1.333c.048 1.165.285 1.402.604.605.289-.722.253-1.585-.079-1.917s-.568.258-.525 1.312m33.116 4.917c.02 1.65.244 2.204.498 1.231s.237-2.323-.037-3-.481.119-.461 1.769m105.963-.5c0 1.375.227 1.938.504 1.25.278-.687.278-1.812 0-2.5-.277-.687-.504-.125-.504 1.25m-24.079 1.219c-.043.946-.997 3.481-2.119 5.633-1.467 2.815-2.864 4.079-4.973 4.501-3.327.665-5.032 4.744-3.205 7.67.772 1.236.76 2.035-.044 2.839-.615.615-1.21 1.747-1.323 2.516s-2.543 4.373-5.401 8.01S124.035 146 124.3 146s3.682-4.05 7.592-9 7.714-9 8.453-9c.74 0 2.117-.853 3.061-1.896 1.595-1.762 2.115-1.8 7.405-.535 7.197 1.72 8.143 1.711 5.807-.057-1.034-.784-4.297-1.926-7.25-2.539-6.078-1.262-6.314-1.841-3.779-9.279.873-2.564 1.359-5.232 1.079-5.928-.317-.787-.54-.616-.589.453M169.158 113c0 1.375.227 1.938.504 1.25.278-.687.278-1.812 0-2.5-.277-.687-.504-.125-.504 1.25m-108.286 1.75c-1.243 1.586-1.208 1.621.378.378 1.666-1.307 2.195-2.128 1.372-2.128-.207 0-.995.787-1.75 1.75m106.699 3.821c-.367 1.466-.475 2.858-.24 3.094.236.235.73-.771 1.098-2.236.367-1.466.475-2.858.24-3.094-.236-.235-.73.771-1.098 2.236m-57.758 1.112c.721.289 1.584.253 1.916-.079s-.258-.568-1.312-.525c-1.165.048-1.402.285-.604.604m27.549 1.817c-.878 2.287.351 4.5 2.5 4.5 2.365 0 3.579-2.763 2.033-4.627-1.505-1.813-3.814-1.748-4.533.127m-21.377 2.75c-.019 2.731-.855 4.064-3.485 5.555-1.1.624-1.437 1.148-.75 1.165 2.104.051 5.25-3.826 5.25-6.47 0-1.375-.225-2.5-.5-2.5s-.507 1.013-.515 2.25M52.336 130c0 4.125.177 5.813.392 3.75s.216-5.437 0-7.5c-.215-2.062-.392-.375-.392 3.75m108.536-5.25c-1.192 1.521-1.175 1.604.128.634.825-.613 2.175-1.365 3-1.671 1.255-.464 1.234-.568-.128-.634-.895-.043-2.245.708-3 1.671m-2.294 3.124c-.445.719-.081 2.017.854 3.051 1.523 1.682 1.294 2.294-3.534 9.44-4.906 7.261-8.651 11.26-15.398 16.442-1.952 1.499-2.213 1.922-.748 1.212 3.885-1.883 15.299-13.203 19.397-19.238 2.159-3.179 4.471-5.811 5.138-5.849.667-.037.248-.534-.931-1.105s-2.563-1.976-3.074-3.122c-.674-1.51-1.143-1.739-1.704-.831m8.986 2.833c-.542 1.425-.428 1.54.56.56.684-.679.991-1.486.683-1.793-.308-.308-.867.247-1.243 1.233m-92.692 3.043c-1.269 1.619-1.222 1.64.628.283 1.1-.807 2.188-1.594 2.417-1.75s-.054-.283-.628-.283-1.662.787-2.417 1.75m35.207.833c.048 1.165.285 1.402.604.605.289-.722.253-1.585-.079-1.917s-.568.258-.525 1.312m56.246 3.29c.443 2.216.014 3.4-1.875 5.174-2.897 2.722-3.193 6.859-.7 9.786 4.116 4.831 12.25 1.738 12.25-4.659 0-2.797-3.499-7.174-5.735-7.174-.608 0-1.403-1.35-1.765-3-.852-3.88-2.951-4.003-2.175-.127m-43.825 2.169c-2.75 1.618-4.59 2.945-4.088 2.95 1.104.01 9.588-4.887 9.588-5.534 0-.653.01-.657-5.5 2.584m-63.312 4.641c-2.372.839-4.136 1.702-3.92 1.918.456.457 9.732-2.589 9.732-3.195 0-.626-1.138-.376-5.812 1.277m18.562-1.021c.688.278 1.813.278 2.5 0 .688-.277.125-.504-1.25-.504s-1.937.227-1.25.504m87.45.538c-1.872 1.872-1.412 6.298.868 8.362 1.888 1.708 2.303 1.741 4.75.373 3.186-1.78 4.022-5.952 1.665-8.309-1.912-1.913-5.582-2.127-7.283-.426m-66.95 2.489c.963.252 2.537.252 3.5 0 .963-.251.175-.457-1.75-.457s-2.713.206-1.75.457m23.622 2.061c-1.243 1.586-1.208 1.621.378.378.963-.755 1.75-1.543 1.75-1.75 0-.823-.821-.294-2.128 1.372m-14.793 1.833c.048 1.165.285 1.402.604.605.289-.722.253-1.585-.079-1.917s-.568.258-.525 1.312m-90.834.572c-1.689 1.689 4.988 10.755 14.908 20.247 6.032 5.771 8.338 7.427 8.961 6.434.927-1.476-5.515-7.732-8.031-7.798-.779-.021-1.141-.313-.805-.649s-1.528-3.18-4.142-6.321c-2.613-3.14-5.775-7.365-7.025-9.389-2.597-4.201-2.35-4.04-3.866-2.524m101.627 2.595c-1.243 1.586-1.208 1.621.378.378 1.666-1.307 2.195-2.128 1.372-2.128-.207 0-.995.787-1.75 1.75m-3 4c-1.243 1.586-1.208 1.621.378.378 1.666-1.307 2.195-2.128 1.372-2.128-.207 0-.995.787-1.75 1.75m19.569 2.805c-1.864 1.494-1.852 1.512.309.465 1.238-.6 2.25-1.3 2.25-1.555 0-.765-.519-.544-2.559 1.09m-23.569 2.195c-1.243 1.586-1.208 1.621.378.378.963-.755 1.75-1.543 1.75-1.75 0-.823-.821-.294-2.128 1.372m-9.059 1.933c.721.289 1.584.253 1.916-.079s-.258-.568-1.312-.525c-1.165.048-1.402.285-.604.604m-18 3c.721.289 1.584.253 1.916-.079s-.258-.568-1.312-.525c-1.165.048-1.402.285-.604.604m5 1c.721.289 1.584.253 1.916-.079s-.258-.568-1.312-.525c-1.165.048-1.402.285-.604.604m17.326 4.35c-1.298 1.082-1.93 1.967-1.405 1.967.526 0 1.771-.9 2.766-2 2.287-2.527 1.695-2.513-1.361.033m-10.734 6.217L93.5 181.5l2.25-1.905c2.114-1.79 2.705-2.595 1.905-2.595-.19 0-1.202 1.012-2.25 2.25M93.1 189.295c-1.265 2.107-1.243 2.128.479.479.991-.95 1.587-1.942 1.324-2.205s-1.074.514-1.803 1.726m-20.639 4.768c-.82 1.326-.615 1.499 2.728 2.3 2.249.539 4.897-.755 3.661-1.789-1.242-1.038-5.836-1.406-6.389-.511"/><path fill-opacity=".4" fill-rule="evenodd" d="M68.159 6.552c-24.186 8.238-45.167 26.446-56.45 48.99C8.155 62.643 4 74.093 4 76.788c0 1.182.283 1.222 1.5.212.825-.685 1.512-.852 1.526-.372.014.479 1.148-2.423 2.519-6.45C14.781 54.807 21.701 44.005 34.001 32c9.713-9.48 20.852-16.63 32.554-20.896 4.142-1.51 8.512-3.726 9.71-4.925 2.884-2.884 1.231-2.808-8.106.373m19.654-.869c.721.289 1.584.253 1.916-.079s-.258-.568-1.312-.525c-1.165.048-1.402.285-.604.604M62.422 40.712 58.5 44.09l5.25-3.195c2.888-1.756 5.25-3.277 5.25-3.378 0-1.17-3.462.512-6.578 3.195m-8.476 7.038L50.5 51.5l3.75-3.446c2.063-1.896 3.75-3.583 3.75-3.75 0-.764-.846-.044-4.054 3.446m28.077 5.5c-.017 1.327-.93 1.783-3.773 1.886-2.321.084-2.893.301-1.5.57 2.045.394 3.281 2.287 1.5 2.299-.412.003-2.1 1.136-3.75 2.518-2.469 2.069-2.084 1.961 2.18-.611 4.901-2.955 5.303-3.037 7.472-1.518 1.261.883 3.205 1.57 4.321 1.527 1.665-.065 1.554-.252-.622-1.05-1.457-.534-3.359-2.411-4.227-4.171-.972-1.97-1.587-2.527-1.601-1.45M63.25 56.716c1.513.229 3.987.229 5.5 0s.275-.416-2.75-.416-4.263.187-2.75.416m31.676 9.695c.801.965.839 1.616.123 2.059-.577.356-.988 1.859-.913 3.339.128 2.52.165 2.541.585.325.247-1.301 1.27-2.58 2.274-2.843 1.698-.444 1.712-.611.193-2.384C96.29 65.858 95.15 65 94.655 65s-.373.635.271 1.411m6.206 7.198c-.862 1.892-1.731 2.468-3.16 2.094-1.085-.284-1.972-.108-1.972.391 0 1.485 3.736 1.028 5.429-.665.864-.865 1.571-2.215 1.571-3 0-2.093-.529-1.759-1.868 1.18M101 99.43c0 10.022-.088 10.448-2.25 10.864-1.929.372-1.858.453.5.57L102 111v-11c0-6.05-.225-11-.5-11s-.5 4.694-.5 10.43m18 0c0 10.022-.088 10.448-2.25 10.864-1.929.372-1.858.453.5.57L120 111v-11c0-6.05-.225-11-.5-11s-.5 4.694-.5 10.43m-42-8.5c0 .512-1.013 1.075-2.25 1.25-2.11.3-2.268.861-2.538 9.005-.267 8.058-.448 8.717-2.5 9.114-1.85.359-1.762.451.538.565L73 111v-9c0-8.933.019-9 2.5-9 1.556 0 2.5-.567 2.5-1.5 0-.825-.225-1.5-.5-1.5s-.5.419-.5.93m60.872 1.82c-1.243 1.586-1.208 1.621.378.378.963-.755 1.75-1.543 1.75-1.75 0-.823-.821-.294-2.128 1.372m-74.122-.088c.688.278 1.813.278 2.5 0 .688-.277.125-.504-1.25-.504s-1.937.227-1.25.504m68.063.021c.721.289 1.584.253 1.916-.079s-.258-.568-1.312-.525c-1.165.048-1.402.285-.604.604m-5.256 2.54c-.856 1.222-1.518 3.134-1.471 4.25.061 1.429.35 1.142.98-.972.492-1.649 1.664-3.562 2.605-4.25s1.201-1.251.577-1.251-1.835 1-2.691 2.223M142 101.444c0 3.941-4.059 7.779-9.087 8.592l-4.413.714 3.85.125c3.135.102 4.482-.507 7.25-3.275 2.123-2.123 3.4-4.376 3.4-6 0-1.43-.225-2.6-.5-2.6s-.5 1.1-.5 2.444m-33.84 4.236c-.133 3.478-.538 4.254-2.41 4.614l-2.25.434 2.281.136c2.707.161 3.507-1.472 2.949-6.019-.376-3.067-.423-2.998-.57.835m-24.16.75c0 2.763-.438 3.515-2.25 3.864-1.929.372-1.858.453.5.57 2.564.127 2.75-.134 2.75-3.864 0-2.2-.225-4-.5-4s-.5 1.544-.5 3.43m8.437.241c-1.54 2.019-2.289 3.356-1.665 2.97 1.28-.791 5.609-6.641 4.915-6.641-.247 0-1.71 1.652-3.25 3.671m41.313-3.009c.688.278 1.813.278 2.5 0 .688-.277.125-.504-1.25-.504s-1.937.227-1.25.504m61.684 11.088c-5.121 23.324-12.23 37.823-25.271 51.535-14.214 14.947-35.551 26.41-54.413 29.231-6.784 1.015-6.143 2.923.712 2.117 12.636-1.485 29.992-8.734 41.805-17.461 7.298-5.391 18.115-16.459 22.839-23.368 7.882-11.527 14.736-28.43 16.241-40.054.661-5.105-.878-6.714-1.913-2m-52.252 1.75c-.633 1.389-1.983 2.5-3.038 2.5-1.045 0-2.517.747-3.272 1.661-1.256 1.52-1.181 1.542.878.259 1.791-1.115 2.645-1.155 4.185-.192 1.637 1.022 1.919.943 1.829-.51-.059-.945.226-2.731.632-3.968.993-3.024.204-2.862-1.214.25m.191 7.97c-.358.934-1.601 2.081-2.762 2.55-1.625.657-1.721.868-.418.917.932.034 2.331-.847 3.109-1.958 1.362-1.944 1.66-1.965 7.807-.551 5.548 1.276 6.135 1.279 4.45.021-1.068-.797-3.093-1.455-4.5-1.463-1.408-.007-3.566-.283-4.797-.613-1.564-.419-2.434-.089-2.889 1.097m16.515 6.888c1.211 1.465.986 2.345-1.768 6.911-2.72 4.507-2.801 4.816-.586 2.231 1.414-1.65 3.189-4.15 3.944-5.556 1.249-2.326 1.177-2.678-.803-3.911-1.99-1.239-2.057-1.212-.787.325m7.326 7.156c.142 1.108-.748 3.02-1.978 4.25S163 145.55 163 146.223c0 .672.701.222 1.557-1 1.626-2.322 6.774-3.114 7.943-1.223.34.55 1.154.997 1.809.993.655-.003-.129-.876-1.742-1.939s-3.535-2.973-4.272-4.244c-1.201-2.07-1.313-2.101-1.081-.296m-15.777 8.736-2.937 3.25 3.25-2.937c3.029-2.738 3.71-3.563 2.937-3.563-.172 0-1.635 1.463-3.25 3.25M175 148.427c0 1.432-1.081 3.278-2.635 4.5-1.449 1.14-2.142 2.073-1.539 2.073 1.876 0 5.174-4.263 5.174-6.689 0-1.271-.225-2.311-.5-2.311s-.5 1.092-.5 2.427"/></svg>