<svg xmlns="http://www.w3.org/2000/svg" width="200" height="200" fill="#000000"><path fill-opacity=".29" fill-rule="evenodd" d="M0 100.005V200.01l100.25-.255 100.25-.255.255-99.75L201.01 0H0zm.481.495c0 55 .121 77.647.269 50.326.148-27.32.148-72.32 0-100C.602 23.147.481 45.5.481 100.5M34 40.5V45h10v23h12V45h10v-9H34zm43.415-3.079c-8.6 3.745-11.08 17.597-4.586 25.616l1.807 2.232 4.156-2.75c3.635-2.406 4.019-3.003 3.07-4.778-1.283-2.396-.657-12.346.873-13.876 2.234-2.234 5.13.054 5.811 4.593l.653 4.357 3.369-1.408C94.42 50.633 97.039 50 98.387 50c2.348 0 2.408-.159 1.433-3.75-.56-2.062-1.762-4.6-2.669-5.638-3.821-4.37-13.451-5.927-19.736-3.191m31.237 6.719-1.632 8.139 3.49 3.863c1.919 2.125 3.49 4.312 3.49 4.861 0 1.514 2.712 1.191 3.32-.395.404-1.052 2.5-1.349 8.573-1.213 7.605.171 8.016.071 7.612-1.857-.234-1.121-.928-4.738-1.542-8.038s-1.549-7.687-2.078-9.75l-.962-3.75h-18.638zM139 49.958c0 7.858.461 15.035 1.035 16.108.879 1.642 2.126 1.93 8.25 1.91 9.836-.032 14.488-1.287 18.078-4.877 2.632-2.633 3.094-3.913 3.455-9.579.496-7.796-.882-11.716-5.2-14.795-2.682-1.912-4.689-2.273-14.368-2.582L139 35.784zm-20.448-5.708c-.213.688-.616 3.837-.897 7-.494 5.561-.431 5.75 1.917 5.75 2.075 0 2.426-.473 2.417-3.25-.026-7.694-2.168-13.614-3.437-9.5M151 52.125v7.125l3.25-.638c3.974-.781 5.75-2.989 5.75-7.148 0-3.777-2.631-6.464-6.329-6.464-2.645 0-2.671.07-2.671 7.125m-53.238 1.582c1.244.239 3.044.23 4-.02s-.062-.446-2.262-.435-2.982.216-1.738.455m-.515 4.446c-1.644 1.644.051 4.313 3.697 5.824 1.661.688 3.703.989 4.538.668 2.572-.987 1.757-4.47-1.432-6.119-3.529-1.825-5.256-1.92-6.803-.373m33.503 4.509c.688.278 1.813.278 2.5 0 .688-.277.125-.504-1.25-.504s-1.937.227-1.25.504m1.25 4.281c0 1.727 3.362 5.057 5.106 5.057.363 0 .873-1.111 1.133-2.47.26-1.358.138-2.263-.27-2.011-.408.253-1.298-.211-1.978-1.03-1.746-2.104-3.991-1.848-3.991.454m-4.805 3.557c.02 1.65.244 2.204.498 1.231s.237-2.323-.037-3-.481.119-.461 1.769m-42.116.083c.048 1.165.285 1.402.604.605.289-.722.253-1.585-.079-1.917s-.568.258-.525 1.312m-29.956 6.828c-.12 2.977.14 5.632.579 5.901s.798-2.166.798-5.412c0-7.399-1.082-7.783-1.377-.489m3.877.648c0 .582.45.781 1 .441s1-.816 1-1.059S60.55 77 60 77s-1 .477-1 1.059m87 .382c0 .793.526 1.766 1.17 2.164q1.167.719.556-.876c-.337-.88-.076-1.818.58-2.085.657-.268.407-.522-.556-.565s-1.75.569-1.75 1.362m-71.75.221c-3.685 1.487 2.043 15.744 8.64 21.504 7.006 6.118 15.164 11.333 17.902 11.444 1.489.061 4.283.431 6.208.822l3.5.711-4.021-1.92C102.856 109.493 93 99.862 93 98.052 93 97.247 88.502 95 86.889 95c-.559 0 .024 1.852 1.296 4.115 2.184 3.886 6.14 7.905 10.411 10.576 1.047.655 1.39 1.218.762 1.25s-3.414-1.984-6.192-4.482c-5.455-4.904-10.789-14.25-11.823-20.714-.43-2.692-1.027-3.696-1.98-3.331-.813.312-1.363-.146-1.363-1.137 0-1.426-.22-1.386-1.566.282-1.502 1.863-1.548 1.831-1.138-.809.235-1.513.377-2.714.315-2.671-.061.043-.673.306-1.361.583m78.773 7.606-3.477 4.232 3.539-3c1.946-1.65 3.548-3.562 3.56-4.25.012-.687-.016-1.242-.062-1.232s-1.648 1.922-3.56 4.25m-7.944.315c.048 1.165.285 1.402.604.605.289-.722.253-1.585-.079-1.917s-.568.258-.525 1.312m-18.23 17.135c-3.492 2.595-6.725 5.323-7.184 6.064s-1.81 1.769-3 2.287c-1.694.736-1.403.818 1.335.375 2.75-.444 3.179-.322 2 .571-1.333 1.011-1.333 1.092 0 .728.825-.225 1.5-1.01 1.5-1.743s.625-1.542 1.389-1.796c.961-.321 1.133-.038.558.916-.703 1.168-.573 1.171.85.017.925-.75 1.484-1.682 1.243-2.072-.24-.389 1.58-2.813 4.046-5.386S133.874 99 133.634 99s-3.293 2.123-6.785 4.718M75.5 103c.995 1.1 2.035 2 2.31 2s-.315-.9-1.31-2-2.035-2-2.31-2 .315.9 1.31 2m1.623 7.935c-2.855 6.636-2.668 8.628 1.403 15.019 1.911 2.999 3.474 6.273 3.474 7.274 0 3.864 12.929 5.953 20.755 3.353 6.927-2.3 8.284-4.133 8.872-11.983l.495-6.598-3.811-.021c-5.253-.029-16.521-4.171-22.939-8.432-2.937-1.951-5.518-3.547-5.733-3.547-.216 0-1.348 2.221-2.516 4.935M102 113c.825.533 1.95.969 2.5.969s.325-.436-.5-.969-1.95-.969-2.5-.969-.325.436.5.969m-47.965 4.934c-2.698 5.042-.881 10.131 7.204 20.166 4.181 5.19 3.282 2.959-1.262-3.131-5.456-7.313-6.911-12.276-4.72-16.095.908-1.581 1.237-2.874.732-2.874s-1.384.87-1.954 1.934M68 121.378c0 .207.787.995 1.75 1.75 1.586 1.243 1.621 1.208.378-.378-1.307-1.666-2.128-2.195-2.128-1.372m5 2.122c1.292 1.375 2.574 2.5 2.849 2.5s-.557-1.125-1.849-2.5-2.574-2.5-2.849-2.5.557 1.125 1.849 2.5m49.5 1.486c-2.2.333-4.9 1.181-6 1.885l-2 1.28 2-.706c1.1-.388 4.255-.919 7.011-1.18 3.943-.372 5.518-.062 7.394 1.457 3.795 3.073 2.313 7.987-4.189 13.887-4.282 3.886-4.609 4.39-1.824 2.812 6.967-3.946 11.585-14.121 7.825-17.241-2.39-1.983-6.202-2.802-10.217-2.194m-9.91 26.869c-.291.47.763.808 2.342.75s2.664-.443 2.411-.855c-.63-1.026-4.102-.949-4.753.105m-52.026 1.852c-.542 1.425-.428 1.54.56.56.684-.679.991-1.486.683-1.793-.308-.308-.867.247-1.243 1.233m127.756.352c-.451.439-2.395.943-4.32 1.12-1.925.176-3.349.721-3.165 1.209s-.188 1.212-.828 1.607c-.64.396 1.909.562 5.665.369 13.164-.675 13.786-.79 14.139-2.619.184-.96-.035-1.784-.488-1.831-5.374-.564-10.343-.498-11.003.145m-115.241 1.524c.048 1.165.285 1.402.604.605.289-.722.253-1.585-.079-1.917s-.568.258-.525 1.312M121.5 156c.34.55.816 1 1.059 1s.441-.45.441-1-.477-1-1.059-1-.781.45-.441 1m4.579.583c.048 1.165.285 1.402.604.605.289-.722.253-1.585-.079-1.917s-.568.258-.525 1.312m55.734.1c.721.289 1.584.253 1.916-.079s-.258-.568-1.312-.525c-1.165.048-1.402.285-.604.604M108.5 159c-.34.55-.141 1 .441 1s1.059-.45 1.059-1-.198-1-.441-1-.719.45-1.059 1m6.5 2c0 .55.477 1 1.059 1s.781-.45.441-1-.816-1-1.059-1-.441.45-.441 1m76 3.173c-1.925.532-8.406 1.132-14.401 1.333-5.996.201-11.171.785-11.5 1.297-.647 1.006-10.742 2.534-15.561 2.354-1.629-.06-4.027.589-5.33 1.443-1.303.853-3.008 1.307-3.789 1.007-.78-.299-1.419-.158-1.419.313 0 .472 1.688 1.156 3.75 1.522s4.549.9 5.525 1.187 1.651.083 1.5-.454c-.295-1.046.07-1.175 3.332-1.175 1.275 0 1.918.494 1.627 1.25-.519 1.354 1.445 1.758 10.016 2.063 2.888.103 5.25.514 5.25.914s1.148 1.479 2.551 2.399c2.018 1.322 2.803 1.413 3.75.439.936-.962.87-1.188-.301-1.03-3.472.468-4.307.04-3-1.535 1.787-2.153 5.739-1.897 6.474.419.865 2.724 7.993 3.874 10.417 1.679 1.031-.932 3.523-1.598 5.982-1.598h4.215l-.294-7.169c-.28-6.831-.412-7.18-2.794-7.397-1.375-.126-4.075.207-6 .739M182 175c-1.207.78-1.049.972.809.985 1.288.008 2.036-.427 1.691-.985-.743-1.202-.639-1.202-2.5 0m4.5 10c-.34.55-.168 1 .382 1s1.278-.45 1.618-1 .168-1-.382-1-1.278.45-1.618 1m-6.5 2.5c0 .993.993 1.5 2.941 1.5 1.618 0 3.182.39 3.476.866s1.719.64 3.166.363c1.519-.29 2.953.021 3.396.737.563.912 1.29.96 2.741.184 1.431-.766 2.317-.726 3.224.147.987.95 1.173.782.886-.797-.324-1.778-1.036-1.969-6.422-1.718-3.973.184-7.065-.244-8.983-1.244-3.667-1.913-4.425-1.919-4.425-.038m-13.457 2.431c-.317.512-.118 1.213.441 1.559 1.193.737 3.016-.199 3.016-1.549 0-1.217-2.707-1.225-3.457-.01"/><path fill-opacity=".464" fill-rule="evenodd" d="M0 100v100h83.393c76.398 0 83.446-.138 84.023-1.641.53-1.381.385-1.438-.912-.362-1.267 1.051-1.861.99-3.336-.345-1.385-1.253-2.067-1.353-2.982-.438s-1.186.797-1.186-.514c0-.935.45-1.7 1-1.7s1-.9 1-2c0-1.244-.662-1.994-1.75-1.985-1.363.012-1.45.206-.393.875 1.73 1.096.547 1.707-3.805 1.967-4.594.273-5.085.986-1.212 1.761 2.817.563 4.637 3.382 2.184 3.382-1.732 0-6.514-3.466-6.842-4.958-.374-1.704-4.037-4.48-6.182-4.686-.825-.079-1.725-.226-2-.326-4.826-1.765-6.003 1.121-1.36 3.335 1.929.92 3.177 2.122 2.814 2.709-.428.694-1.247.519-2.382-.509-1.969-1.782-4.072-2.061-4.072-.54 0 1.461-4.927 3.218-8.75 3.12-1.787-.046-3.25.352-3.25.885 0 .534-1.8.97-4 .97-2.889 0-4-.417-4-1.5 0-1.739-.493-1.842-2.83-.591-1.127.603-2.316.457-3.534-.433-1.995-1.459-1.425-3.476.982-3.476.825 0 1.222-.45.882-1s-1.293-1-2.118-1-1.222.45-.882 1 .179 1-.358 1-1.125-.403-1.309-.895c-.183-.493-1.986-1.114-4.005-1.38-2.713-.358-3.545-.15-3.182.794.769 2.004-1.437 2.741-3.622 1.21-1.934-1.354-1.916-1.433.768-3.417 1.511-1.117 3.638-2.306 4.727-2.643 3.724-1.151 10.481-1.652 10.481-.776 0 .48.945 1.121 2.101 1.423 1.155.302 1.835.979 1.511 1.503-.325.525.08 1.51.899 2.19 1.177.977 1.489.978 1.489.004q0-1.231 3.531-.82c2.608.305 3.401.072 3.032-.89-.804-2.095 4.174-1.566 6.422.682 1.979 1.979 1.986 1.979 2.55-.25.706-2.792 7.715-6.085 9.388-4.412.605.605 2.895.97 5.089.812 2.359-.17 3.988.152 3.988.789a1.07 1.07 0 0 0 1.059 1.076c.582 0 .781-.45.441-1s.084-1 .941-1 1.559.398 1.559.883c0 .486 1.125 1.099 2.5 1.362s2.5.143 2.5-.267c0-1.071 3.905-1.942 4.486-1 .851 1.376 7.043.506 6.716-.945-.232-1.027.913-1.177 5.167-.677 3.496.411 5.592.262 5.816-.412.194-.58 2.005-1.142 4.025-1.249 4.854-.258 3.47-1.451-2.218-1.912-2.48-.202-5.044-.697-5.698-1.101-.805-.498-1.063-.081-.799 1.291.4 2.076-.907 2.787-1.968 1.071-.325-.526-1.325-.675-2.223-.33q-1.635.628-.909-.544c.513-.829-.635-1.17-3.943-1.17-3.584 0-4.542-.324-4.13-1.397.346-.903-.323-1.561-1.893-1.861-1.336-.256-2.429-.022-2.429.519 0 .557-.613.475-1.411-.187-.777-.645-3.47-1.293-5.985-1.441s-4.874-.569-5.24-.936c-.366-.366-1.213.082-1.882.996-1.117 1.528-1.439 1.486-3.99-.52-1.928-1.517-3.141-1.879-3.976-1.186-.861.714-1.541.253-2.396-1.624-.657-1.442-1.066-2.7-.907-2.796.158-.096 1.412-.7 2.787-1.344l2.5-1.17-2.79.592c-1.885.4-3.4.041-4.667-1.106-1.517-1.373-2.288-1.478-4.026-.548-1.183.633-3.671 1.02-5.53.86s-3.7.029-4.091.42c-.392.391-1.324.204-2.072-.417-1.247-1.035-2.73-1.373-7.574-1.726-2.101-.154-2.375-2.128-.295-2.128.871 0 1.718-1.407 2.113-3.511.362-1.931 1.029-3.74 1.481-4.019.452-.28.454.775.004 2.345-.996 3.473.332 6.185 3.028 6.185 2.597 0 3.512-2.591 2.169-6.147-.604-1.602-.676-2.853-.163-2.853.502 0 .913.434.913.965 0 1.851 4.003 3.277 5.564 1.982 2.249-1.866 1.7-3.89-1.558-5.744-5.592-3.181-3.995-4.574 6.494-5.661 3.3-.343 7.238-.865 8.75-1.162 3.481-.682 3.879 2.209.5 3.632-1.946.82-1.777.917 1.25.718 2.177-.143 3.405-.703 3.25-1.48-.138-.688.087-1.197.5-1.132.412.066 1.564.066 2.559 0 2.937-.192.838-2.118-2.309-2.118-4.572 0-4.424-1.738.242-2.843l6.758-1.603c2.131-.507 2.205-.455.5.355-3.08 1.464-.484 1.231 4.103-.368 5.266-1.835 14.013-2.908 10.647-1.306-1.238.589-2.25 1.5-2.25 2.025s-.675.695-1.5.378-1.5-.193-1.5.275c0 1.218-6.932 6.338-8.87 6.55-2.737.3-5.15 1.696-4.565 2.642.597.966-1.468 1.32-5.766.988-1.486-.114-3.961.507-5.5 1.381l-2.799 1.589 4.25-.308c2.338-.169 4.25.042 4.25.469s.927.776 2.059.776c1.357 0 1.818-.426 1.353-1.25-.564-1-.436-1 .641 0 1.479 1.373 10.947 1.746 10.947.432 0-.45 1.238-.859 2.75-.908 9.244-.301 11.932-.707 13.463-2.033.942-.816 2.349-1.239 3.128-.94.778.298 1.938.02 2.576-.618.694-.694 5.171-1.246 11.122-1.372l9.961-.212v23.328c0 25.492.098 25.071-6.004 25.864-2.339.304-1.842.413 1.504.331l5-.122.255-99.75L201.01 0H0zm0 .5c0 54.908.23 99.603.511 99.322.661-.66.648-197.997-.012-198.657C.224.891 0 45.592 0 100.5m34-60V45h10v23h11.934l.283-11.25.283-11.25 4.75-.305L66 44.89V36H34zm42.192-2.824c-8.002 3.943-9.789 20.439-2.838 26.204 1.445 1.198 2.171 1.028 5.514-1.288 3.646-2.527 3.812-2.871 3.147-6.512-1.423-7.78.647-13.866 4.09-12.024 1.42.76 1.895 2.119 1.895 5.42v4.405l2.75-1.45c1.513-.797 4.471-1.733 6.573-2.08 3.522-.58 3.773-.836 3.183-3.241C98.761 40.007 93.153 35.998 85 36.027c-3.026.01-6.988.752-8.808 1.649M110 36.393c0 .216-.711 3.829-1.579 8.028l-1.579 7.635 3.062 3.722c6.377 7.753 6.536 7.89 6.903 5.985.334-1.735.498-1.758 13.549-1.906 3.633-.041 3.826-.198 3.327-2.7-.291-1.462-1.326-6.82-2.3-11.907L129.612 36h-9.806c-5.393 0-9.806.177-9.806.393m28.804 14.318c.175 8.504.755 15.257 1.372 16.001.724.872 3.856 1.281 9.696 1.266 15.114-.038 20.502-4.363 20.586-16.522.048-6.904-1.714-10.422-6.762-13.5-2.655-1.619-5.059-1.949-14.196-1.954l-11-.005zm-20.166-4.648c-.351 1.753-.638 4.931-.638 7.062 0 3.269.328 3.875 2.098 3.875 1.982 0 2.06-.347 1.399-6.25-.818-7.311-1.96-9.183-2.859-4.687M151 51.5V58h2.943c3.313 0 6.057-3.045 6.057-6.723 0-3.014-3.379-6.277-6.5-6.277-2.41 0-2.5.233-2.5 6.5m-56.555 1.568c-4.829 1.404-7.366 5.028-11.494 16.42l-1.083 2.989-1.773-2.351-1.773-2.351-2.092 2.66c-1.15 1.462-2.384 3.988-2.74 5.612S72.228 79 71.48 79c-2.299 0-2.707 1.886-1.498 6.926 4.439 18.502 29.645 33.915 47.4 28.985 4.377-1.215 12.455-8.275 15.633-13.662l2.096-3.552-2.708 1.774c-4.257 2.79-10.696 7.822-13.156 10.282-5.328 5.328-16.354 1.319-23.629-8.592-2.764-3.766-4.79-5.432-7.645-6.287-3.356-1.006-4.094-1.78-5.428-5.697-.85-2.493-1.545-5.408-1.545-6.478 0-1.614-.254-1.733-1.5-.699-1.067.885-1.5.915-1.5.101 0-.629 1.088-1.64 2.418-2.246 2.029-.924 3.462-.593 8.905 2.059 3.667 1.786 10.115 3.796 14.832 4.623 24.402 4.276 31.443 5.823 32.499 7.142.651.813 1.409 1.028 1.739.494.322-.52-.085-1.502-.904-2.182S136 89.91 136 88.878 135.337 87 134.526 87c-3.536 0-7.469-14.612-5.522-20.512.832-2.52 1.754-3.506 3.324-3.551 2.171-.064 2.171-.064-.088-.972-2.679-1.076-6.297.092-9.164 2.959-1.865 1.865-2.249 1.902-5.54.527L114 63.973l-.132 3.264-.131 3.263L113 67l-.737-3.5-.153 3.5c-.53 12.068-11.2 18.779-20.212 12.713-7.013-4.721-7.536-12.787-1.28-19.712 6.676-7.39 12.409-7.432 18.423-.135 3.48 4.222 3.947 3.206.709-1.54-1.237-1.814-3.947-3.98-6.02-4.812-4.195-1.684-4.906-1.719-9.285-.446m1.856 5.59c-.418 1.089.297 2.46 2.087 4 3.09 2.657 6.789 3.039 8.577.884.979-1.18.725-1.943-1.332-4-2.986-2.986-8.331-3.493-9.332-.884m35.244 7.27c-1.004 1.623 3.95 6.48 5.861 5.747.946-.364 1.441-1.114 1.098-1.668S138.148 69 138.473 69s.998 1.013 1.496 2.25q.904 2.251.968.635c.103-2.645-3.869-6.885-6.451-6.885-1.302 0-2.626.417-2.941.928M55 77.5c0 5.732-.226 6.5-1.911 6.5-1.275 0-2.635-1.497-4.089-4.5-1.198-2.475-2.513-4.5-2.923-4.5-2.067 0-1.739 1.62.946 4.679C51.378 84.639 50.6 89 45.359 89c-1.233 0-2.516.446-2.853.99-.393.636 1.485.771 5.253.377 6.728-.703 9.902.525 16.301 6.307 7.634 6.896 14.039 17.729 9.44 15.964-2.736-1.049-1.74 4.785 1.515 8.881 4.097 5.156 7.321 10.479 6.713 11.086-.275.275-1.454-1.044-2.621-2.931C74.599 122.378 64.504 115 59.032 115c-3.348 0-6.032 3.531-6.032 7.936 0 3.066.997 5.331 4.511 10.25 2.481 3.473 5.708 8.789 7.172 11.814 1.853 3.83 2.786 4.951 3.074 3.692.272-1.196 1.146-1.704 2.578-1.5 1.859.264 2.208 1.049 2.467 5.558.167 2.887.677 5.25 1.135 5.25 1.305 0-.001-13.244-1.549-15.715-.764-1.218-1.398-3.468-1.41-5s-.91-4.743-1.996-7.136-1.744-4.725-1.462-5.181-.014-1.155-.658-1.553q-1.177-.73-.352.601c.451.729-.366.461-1.814-.595-3.534-2.578-3.368-3.474.44-2.382 3.74 1.073 3.366.731 7.25 6.624 7.566 11.479 24.559 15.734 33.652 8.426 2.703-2.172 3.984-2.667 4.798-1.853s2.422.397 6.023-1.563c6.951-3.783 7.848-3.326 3.097 1.577-5.068 5.231-7.254 9.236-6.44 11.8 1.955 6.159 18.185-3.74 20.923-12.762.899-2.962-.827-5.92-4.59-7.866-3.54-1.831-7.879-1.348-14.673 1.634l-4.325 1.897.664-3.226c.365-1.775.897-4.24 1.183-5.477.46-1.997.133-2.25-2.908-2.25-8.619 0-24.704-7.283-32.025-14.5-2.421-2.387-5.478-6.368-6.793-8.847-1.824-3.438-3.535-5.043-7.213-6.766-6.496-3.043-7.249-4.202-7.156-11.027.044-3.223-.299-5.86-.762-5.86-.462 0-.841 2.925-.841 6.5m34.823-4.531c2.095 5.858 11.992 8.744 15.914 4.641 1.695-1.773 1.679-1.801-.421-.727-4.696 2.401-10.05.985-14.096-3.727L88.94 70.5zm-31.112 5.762c-.488 2.554-.431 2.607.884.809 1.606-2.198 1.804-3.54.522-3.54-.486 0-1.119 1.229-1.406 2.731m87.972-2.081c-.375.376-.69 2.071-.698 3.767-.022 4.42-1.428 6.379-2.838 3.953-.944-1.626-1.09-1.445-1.117 1.38-.016 1.787-.48 3.25-1.03 3.25s-1 1.427-1 3.171-.733 3.982-1.629 4.972c-1.457 1.609-1.182 1.584 2.579-.233 4.497-2.172 8.594-1.952 12.765.688 2.577 1.631 3.285 1.741 3.285.51 0-.49-1.118-1.172-2.485-1.515-2.602-.653-4.218-4.319-3.14-7.127.325-.847 1.945-2.31 3.601-3.253 2.917-1.66 3.471-3.231 1.384-3.926-.559-.187-1.536.804-2.173 2.202-1.431 3.141-5.744 5.354-7.335 3.763-.792-.792-.645-2.412.533-5.867 1.462-4.292 1.069-7.506-.702-5.735m-70.016 1.017c-.367.366-.653 1.379-.637 2.25.025 1.3.221 1.257 1.092-.242 1.077-1.852.765-3.228-.455-2.008M121 82c0 .55.45 1 1 1s1-.45 1-1-.45-1-1-1-1 .45-1 1m11.5 2c.34.55 1.604.968 2.809.93 2.112-.068 2.119-.101.191-.93-2.752-1.183-3.731-1.183-3 0M85 95.941c0 .518.445 1.216.989 1.552.566.35.734-.051.393-.941C85.717 94.82 85 94.503 85 95.941m9 .837c0 1.645 9.032 11.187 12.08 12.764 3.413 1.764 10.067 1.911 11.72.258 1.793-1.793 1.45-5.264-.716-7.224C113.553 99.38 94 94.469 94 96.778m-5 5.6c0 .207.787.995 1.75 1.75 1.586 1.243 1.621 1.208.378-.378-1.307-1.666-2.128-2.195-2.128-1.372m39.872 2.372c-1.243 1.586-1.208 1.621.378.378.963-.755 1.75-1.543 1.75-1.75 0-.823-.821-.294-2.128 1.372M9.031 112.583c.017 1.055.465 5.266.997 9.36.742 5.717.677 7.626-.281 8.235-.686.435-.785.798-.22.807.566.008 2.083-.724 3.372-1.627 2.01-1.408 2.121-1.767.782-2.517-1.412-.79-2.284-4.22-3.075-12.093-.321-3.206-1.621-4.991-1.575-2.165M175 116.762c0 2.252-.618 4.713-1.374 5.469-.846.846-1.259 2.985-1.075 5.567.215 3.013-.173 4.547-1.376 5.448-.921.69-1.828 2.13-2.014 3.2-.29 1.668-.113 1.759 1.238.638 3.893-3.231 5.554-7.678 5.753-15.407.109-4.213-.106-7.964-.477-8.335s-.675 1.168-.675 3.42m10.818 5.456c.533.533 1.805.793 2.826.576 1.375-.291 1.123-.543-.97-.969-1.825-.373-2.482-.233-1.856.393M14 130.5c0 .825-.648 1.5-1.441 1.5s-1.683.391-1.978.869c-.296.478.874.581 2.599.228 3.149-.644 5.03-4.097 2.232-4.097-.777 0-1.412.675-1.412 1.5m145.195 2c.02 1.65.244 2.204.498 1.231s.237-2.323-.037-3-.481.119-.461 1.769m-6 2c.02 1.65.244 2.204.498 1.231s.237-2.323-.037-3-.481.119-.461 1.769m2.884.083c.048 1.165.285 1.402.604.605.289-.722.253-1.585-.079-1.917s-.568.258-.525 1.312M139.158 139c0 1.375.227 1.938.504 1.25.278-.687.278-1.812 0-2.5-.277-.687-.504-.125-.504 1.25m-59.52 2.5c.317.825.705 1.5.862 1.5s.545-.675.862-1.5c.347-.905.005-1.5-.862-1.5s-1.209.595-.862 1.5m-76.128.516c.346.559 1.047.758 1.559.441C6.456 141.6 6.198 141 4.441 141c-.857 0-1.276.457-.931 1.016m96.74-.354c-2.007.81-1.438 3.338.75 3.338q2 0 2-2c0-2.021-.479-2.254-2.75-1.338m3.829 1.588q.078 2.254.65.75c.314-.825 1.066-1.831 1.671-2.235.678-.453.429-.74-.65-.75-1.176-.01-1.724.723-1.671 2.235m37.734-1.567c.721.289 1.584.253 1.916-.079s-.258-.568-1.312-.525c-1.165.048-1.402.285-.604.604M82 143c0 .55.45 1 1 1s1-.45 1-1-.45-1-1-1-1 .45-1 1m6 .786c0 1.119.747 1.785 2 1.785s2-.666 2-1.785S91.253 142 90 142s-2 .667-2 1.786m6.158.214c0 1.375.227 1.938.504 1.25.278-.687.278-1.812 0-2.5-.277-.687-.504-.125-.504 1.25m2.921-.417c.048 1.165.285 1.402.604.605.289-.722.253-1.585-.079-1.917s-.568.258-.525 1.312M83 147.031c0 .533.675.969 1.5.969s1.5-.177 1.5-.393-.675-.652-1.5-.969-1.5-.139-1.5.393m67.813-.348c.721.289 1.584.253 1.916-.079s-.258-.568-1.312-.525c-1.165.048-1.402.285-.604.604M60 148.177c-1.646.692-2.04 1.223-1.152 1.553.742.276 2.076-.225 2.965-1.114 1.846-1.846 1.65-1.894-1.813-.439m43 .883c-1.925 1.014-2.762 1.866-1.861 1.892.902.026 2.702-.837 4-1.919 2.866-2.387 2.433-2.381-2.139.027m5.209-.024c-1.015 1.626-.9 2.273.686 3.859 1.385 1.385 2.205 1.605 3.005.805s1.421-.779 2.276.076c.859.859 1.534.88 2.5.078 2.04-1.693 1.577-2.854-1.137-2.854-1.354 0-3.282-.881-4.286-1.958-1.809-1.943-1.834-1.943-3.044-.006M85.71 151c-.589 2.252.298 2.592 2.09.8 1.597-1.597 1.519-2.8-.183-2.8-.761 0-1.619.9-1.907 2m7.817-.044c-.325.526-1.194.725-1.931.442-.973-.373-1.207.187-.852 2.044.269 1.407 1.096 2.558 1.837 2.558.742 0 1.8.844 2.352 1.875s1.901 2.11 2.999 2.397c2.259.591 4.838-1.678 3.117-2.742-.577-.356-1.049-1.521-1.049-2.589 0-1.805-1.482-2.437-4.734-2.019-.724.093-.99-.479-.643-1.382.648-1.687-.151-2.113-1.096-.584m34.223-.294c.688.278 1.813.278 2.5 0 .688-.277.125-.504-1.25-.504s-1.937.227-1.25.504m-67.008 1.463c-.958.536-1.742 1.402-1.742 1.925 0 1.563 3.015 1.073 3.655-.593.797-2.077.183-2.505-1.913-1.332M102.5 154c-.816 1.32.38 3.192 1.569 2.457 1.215-.75 1.207-3.457-.01-3.457-.518 0-1.219.45-1.559 1m-36.833.667c-.367.366-.667 1.529-.667 2.583 0 2.593 2.415 1.67 2.82-1.078.309-2.103-.789-2.87-2.153-1.505M97 155c0 .55.45 1 1 1s1-.45 1-1-.45-1-1-1-1 .45-1 1m23.974.952c.62 1.157 1.554 1.84 2.076 1.517 1.38-.853 1.194-1.268-1.126-2.51-1.905-1.019-1.983-.937-.95.993m-15.02 1.134c-.614 1.147-.928 2.274-.697 2.504.23.23.932-.708 1.559-2.086 1.378-3.024.707-3.35-.862-.418m2.775.518c-.401.401-.729 1.419-.729 2.263 0 1.125.296 1.237 1.112.421.612-.612.94-1.631.73-2.263-.211-.632-.712-.822-1.113-.421m6.271 3.337c0 1.132.45 2.059 1 2.059s1-.648 1-1.441-.45-1.719-1-2.059-1 .309-1 1.441M114 169c0 .55.45 1 1 1s1-.45 1-1-.45-1-1-1-1 .45-1 1m11 1.167c0 .778 1.524 1.224 3.25.951.412-.065.75.332.75.882s.375 1 .833 1c.93 0 1.17-2.952.25-3.083-3.627-.518-5.083-.447-5.083.25M120.71 174c.288 1.1 1.033 2.051 1.657 2.114.623.063 2.381.262 3.906.442 1.556.184 2.518-.086 2.191-.614-.32-.518-1.47-.942-2.554-.942-1.085 0-2.232-.675-2.548-1.5-.884-2.303-3.267-1.854-2.652.5m31.29 4.892c0 .674-.52.905-1.155.513-.744-.46-.881-.273-.387.528.546.882 1.078.931 1.838.171.589-.589.763-1.378.387-1.754-.375-.376-.683-.132-.683.542m4.5.108c-.34.55-.141 1 .441 1s1.059-.45 1.059-1-.198-1-.441-1-.719.45-1.059 1m-72.897 2.592c-.246.641.081 1.697.725 2.348.9.909.592 1.105-1.328.846-1.375-.185-3.05-.681-3.722-1.103s-2.318-.048-3.657.83c-1.615 1.058-2.656 1.24-3.087.541-.359-.58-1.131-1.054-1.715-1.054-.704 0-.67.475.1 1.403.894 1.077.865 1.523-.127 1.924-1.006.405-.96.755.208 1.582 2.108 1.491 3.311 1.344 2.67-.326-.3-.781.205-1.705 1.124-2.057.917-.352 1.826-.165 2.02.417.194.581 1.115 1.057 2.047 1.057s2.501.942 3.486 2.092c1.649 1.926 1.931 1.966 3.553.498.969-.877 2.063-1.293 2.431-.926.368.368.669.107.669-.581s.558-1.064 1.241-.836c1.562.521 4.086-1.909 3.302-3.178-.322-.52.212-1.458 1.186-2.083 1.671-1.073 1.667-1.104-.061-.562-1.007.317-2.293.576-2.857.576s-.766.675-.449 1.5c.316.825.116 1.5-.445 1.5-.562 0-1.458-1.254-1.992-2.786-.995-2.853-4.446-3.905-5.322-1.622m-39.103.451c-1.1.422-3.08.519-4.399.216-1.667-.382-2.18-.196-1.681.611.395.64 1.106.923 1.58.63s1.144-.075 1.49.484c.345.559 2.151 1.016 4.012 1.016s4.945.921 6.853 2.047 3.725 1.633 4.037 1.128c.558-.903-6.556-4.108-9.425-4.245-.944-.046-.78-.34.46-.825 1.479-.58 1.595-.88.5-1.292-.785-.295-2.327-.191-3.427.23m83.69 2.096c.985.624.875.834-.44.846-2.639.023-2.099 1.715.72 2.254 1.505.288 2.226.079 1.847-.535-.342-.554.168-1.585 1.134-2.292 1.562-1.142 1.406-1.274-1.407-1.194-2.088.059-2.718.372-1.854.921M31.5 185c-.34.55.084 1 .941 1S34 185.55 34 185s-.423-1-.941-1-1.219.45-1.559 1m64 0c.34.55.816 1 1.059 1s.441-.45.441-1-.477-1-1.059-1-.781.45-.441 1m-69.186 4.288c-1.181 1.89-1.239 3.712-.119 3.712.561 0 .76-.675.443-1.5-.35-.914-.001-1.5.893-1.5.808 0 1.469.661 1.469 1.469 0 .894.586 1.243 1.5.893 2.169-.833 1.849-1.882-.964-3.164-1.869-.851-2.648-.829-3.222.09M12 190.059c0 .582-.45.781-1 .441s-1-.19-1 .334c0 1.169 2.579 2.253 3.402 1.43.968-.967.684-3.264-.402-3.264-.55 0-1 .477-1 1.059m35.733 2.065c.679.684 1.486.991 1.793.683.308-.308-.247-.867-1.233-1.243-1.425-.542-1.54-.428-.56.56m31.417-.174c.22.66.726 1.166 1.125 1.125 1.196-.124.964-1.495-.325-1.925-.66-.22-1.02.14-.8.8m108.63 2.17c-1.254 1.717-2.156 3.55-2.005 4.075.151.524-.167.681-.707.347-.539-.333-.727-1.267-.417-2.074.42-1.097-.223-1.468-2.544-1.468-3.109 0-4.211 1.388-1.857 2.338.77.31.6.534-.441.583-.93.043-1.969.529-2.309 1.079-.386.625 1.676 1 5.5 1 3.443 0 5.871-.4 5.553-.915-.311-.503 0-1.142.691-1.421.998-.402.999-.522.006-.585-2.02-.128-1.435-2.706 1-4.405 1.238-.863 1.701-1.593 1.03-1.622-.671-.028-2.246 1.352-3.5 3.068m-99.03-1.458c.688.278 1.813.278 2.5 0 .688-.277.125-.504-1.25-.504s-1.937.227-1.25.504M10 196.059c0 .582.45.781 1 .441s1-.816 1-1.059-.45-.441-1-.441-1 .477-1 1.059m57.774.849c3.82 2.441 6.429 2.851 4.19.658-.805-.789-2.814-1.731-4.464-2.093l-3-.658z"/><path fill-opacity=".062" fill-rule="evenodd" d="M8.75.662c.688.278 1.813.278 2.5 0 .688-.277.125-.504-1.25-.504S8.063.385 8.75.662m8.859.761c.858 2.237 2.962 2.566 2.962.463C20.571.755 19.87 0 18.817 0c-1.106 0-1.553.526-1.208 1.423M25 .535c0 .295.778 1.722 1.728 3.173l1.728 2.637-2.648-1.735c-2.563-1.679-2.773-1.657-6.478.682-2.107 1.33-4.28 2.536-4.83 2.681-2.059.543-4.698 2.898-4.182 3.733.294.476-.299.865-1.318.865s-1.654-.322-1.41-.716c.243-.394-.015-.999-.574-1.345-.559-.345-1.016-.151-1.016.431 0 1.496-1.298 1.315-3.559-.496C.614 8.981.647 8.961 3 10.109c2.279 1.111 2.379 1.072 1.128-.445C2.925 8.206 3.011 8 4.819 8c2.546 0 3.34-1.135 2.13-3.048-.63-.996-.923-1.06-.934-.202C6.007 5.438 4.848 6 3.441 6s-2.337-.359-2.066-.798.08-1.451-.426-2.25C.386 2.062.025 28.867.015 72.258 0 142.769.007 143.013 2 141.768c1.1-.687 2-2.041 2-3.009 0-.967.498-1.759 1.107-1.759s.848.675.531 1.5-.252 1.5.143 1.5c.396 0 .719 1.125.719 2.5 0 2.589-1.951 3.448-2.838 1.25-.403-1-.52-1-.583 0-.043.688-.754 1.25-1.579 1.25-1.277 0-1.488 2.493-1.421 16.75.043 9.213.306 16.188.583 15.5.785-1.945 2.629-1.47 1.943.5-.529 1.518-.444 1.551.643.25 1.66-1.989 4.555-2.408 6.349-.919 1.182.98 1.333.9.819-.44-.887-2.312.504-2.039 2.739.537 1.449 1.672 2.163 1.904 3.067 1s.885-1.178-.081-1.178c-.692 0-.976-.458-.63-1.018.385-.623 1.623-.235 3.194 1 2.773 2.182 5.8 2.627 6.805 1.002.874-1.414 2.676-.12 1.859 1.335-.365.65.281.281 1.436-.819 4.893-4.662 5.39-4.81 13.066-3.874 2.945.359 5.148 1.371 6.75 3.1 1.696 1.83 2.379 2.124 2.379 1.027 0-1.462 1.964-2.753 4.189-2.753.564 0 .725.787.359 1.75-.513 1.347-.393 1.479.521.572.9-.894 1.634-.9 3.034-.025 1.41.88 2.137.863 3.072-.072.967-.967.874-1.225-.44-1.225-1.73 0-4.335-3.734-3.316-4.752.32-.32.581-.111.581.464 0 2.594 9.462 4.216 11.138 1.91 1.215-1.672 2.811.478 2.479 3.336-.261 2.235.002 2.742 1.188 2.287.838-.322 1.269-.171.958.335s.955.953 2.813.994c2.723.06 3.16-.187 2.258-1.274-1.46-1.76-.405-2.757 1.873-1.77.986.428 2.864.957 4.173 1.175 1.96.328 2.289.049 1.863-1.579-.69-2.639 1.946-1.681 2.803 1.019.496 1.562.91 1.721 2.038.785 1.086-.901 1.416-.898 1.416.015 0 .735.765.947 2 .555 1.147-.364 2-.18 2 .433 0 1.72 2.506 1.23 5.067-.991 1.417-1.229 3.593-1.993 5.403-1.898 1.666.087 5.73.079 9.03-.019l6-.177-3.445-1.245c-2.217-.801-3.013-1.511-2.233-1.993 1.665-1.029.491-2.61-1.94-2.61-1.257 0-1.735-.429-1.287-1.155.445-.718.275-.882-.449-.435-1.295.8-5.161-.142-5.007-1.221.289-2.033-.302-3.189-1.631-3.189-.82 0-2.053-.9-2.74-2s-1.669-2-2.183-2 .157 1.168 1.491 2.595l2.424 2.596-2.5-.369c-1.375-.203-2.383-.934-2.241-1.624.143-.689-.417-1.513-1.244-1.831-.827-.317-1.255-.979-.95-1.472.304-.492-.374-.951-1.506-1.02s-2.397-.207-2.809-.306c-.412-.1-2.213-.53-4-.955S88 158.427 88 157.921c0-1.239 2.724-1.177 3.5.079.764 1.236 2.5 1.317 2.5.117 0-.486-.958-1.134-2.13-1.441-1.341-.35-1.924-1.092-1.575-2.003.382-.994.022-1.307-1.149-1.001-2.154.563-7.146-1.286-7.146-2.647 0-.564.648-1.025 1.441-1.025s1.762-.52 2.154-1.155c.452-.73.274-.882-.484-.413-1.23.76-4.111-1.008-4.111-2.523 0-.465.787-.58 1.75-.255 1.187.402 1.029.054-.492-1.082-1.234-.921-2.708-2.545-3.278-3.609-.933-1.744-.801-1.845 1.342-1.031 3.909 1.487 17.945 2.339 20.729 1.259 1.402-.545 3.721-.766 5.152-.493 2.291.438 2.506.814 1.803 3.15-1.489 4.95-2.188 6.075-4.159 6.701-2.975.944-4.588 5.139-2.702 7.025 1.841 1.841 4.248 1.041 5.661-1.882.819-1.696 1.074-1.81 1.126-.501.038.93-.382 1.969-.932 2.309-1.538.951-1.185 4.492.513 5.143 2.102.807 4.487-1.429 4.487-4.206 0-1.276.461-2.604 1.024-2.952.668-.413.808.711.404 3.24-.764 4.777 1.131 7.049 4.081 4.892 1.644-1.202 1.702-1.694.533-4.515-1.589-3.836-.588-5.327 1.538-2.292 1.672 2.388 4.987 2.934 5.702.94.625-1.745-1.08-4.75-2.695-4.75-.738 0-1.86-.625-2.494-1.388-.925-1.114-.298-1.888 3.185-3.929C129.171 144.23 136 136.667 136 133.596c0-1.722.891-2.894 3-3.946 1.65-.823 3-1.095 3-.605 0 .491.675.633 1.5.317.825-.317 1.5-.105 1.5.47 0 .657 1.678.475 4.5-.487 2.475-.843 4.5-2.053 4.501-2.689 0-.648 1.537-1.17 3.5-1.187 1.924-.017 3.499.327 3.499.764 0 .438 1.809-.402 4.02-1.865 2.212-1.463 4.296-2.386 4.632-2.05s1.452.162 2.479-.388c1.519-.813 1.867-2.164 1.86-7.215-.004-3.418-.292-8.577-.639-11.465-.561-4.673-.89-5.25-2.991-5.25-1.299 0-2.361-.45-2.361-1s.418-1 .929-1c.51 0 1.604-.676 2.43-1.502 1.156-1.156 2.112-1.269 4.155-.493 1.46.555 3.066.755 3.57.443.504-.311.916-.164.916.326 0 .926 1.555 1.281 6.25 1.427 2.013.063 2.75.599 2.75 2.002 0 1.053-.375 1.683-.833 1.4-.459-.283-.834.14-.834.941s.6 1.456 1.334 1.456c.733 0 1.333.641 1.333 1.423 0 1.211.453 1.198 3.037-.091 2.415-1.205 3.339-1.265 4.511-.292 1.288 1.069 1.251 1.407-.287 2.673-1.666 1.372-1.667 1.421-.011.9 2.228-.701 2.261.727.058 2.515-.988.801-1.395.877-.978.183.463-.772.021-1.138-1.257-1.042-1.491.113-1.71.463-.9 1.44.979 1.179.468 1.7-1.393 1.419-.396-.059-1.2.787-1.785 1.882-1.167 2.179-.744 2.441 1.821 1.128 3.54-1.811 7.184-2.226 7.184-.818 0 1.416-4.029 3.68-6.547 3.68-.799 0-1.341.541-1.203 1.203s-.425 1.269-1.25 1.348c-3.163.304-3.33.487-1.601 1.752 1.62 1.184 1.637 1.422.191 2.622-.874.726-1.59.89-1.59.364s-.675-.956-1.5-.956-1.507.488-1.515 1.084-.436.418-.95-.394c-.64-1.013-.422-2.043.692-3.274 1.246-1.377 1.351-2.071.449-2.973s-1.18-.604-1.191 1.274c-.011 1.724-.266 2.055-.862 1.115-.643-1.014-.976-.834-1.391.75-.299 1.147-.233 2.085.149 2.085 1.041 0 1.127 3.877.099 4.512-.491.304-.619 1.265-.285 2.135.479 1.249.153 1.439-1.544.901-1.657-.526-2.159-.266-2.186 1.135-.02.999-.721 2.942-1.557 4.317l-1.522 2.5.597-2.834c.387-1.837.231-2.608-.443-2.191-.572.354-1.04 1.565-1.04 2.691 0 1.41-.468 1.869-1.5 1.472-.88-.337-1.5-.013-1.5.785 0 .748-1.122 1.642-2.494 1.986s-2.384 1.156-2.25 1.803-1.106 1.486-2.756 1.864-2.437.797-1.75.931c.688.134 1.7.356 2.25.493s1.303.306 1.674.375c1.198.222-3.975 5.125-5.407 5.125-.762 0-1.119.43-.794.956s1.252.703 2.059.393 1.468-.01 1.468.666c0 .916.425.879 1.663-.143 1.296-1.07 1.755-1.097 2.083-.122.583 1.733 4.916 1.573 5.599-.207.456-1.189.062-1.28-2.143-.495l-2.702.963 2.299-1.955c1.264-1.076 2.839-1.827 3.5-1.67.66.158.863.097.451-.133-.413-.231-.75-1.048-.75-1.817 0-1.536 5.726-1.372 6.868.197.942 1.293 3.242.968 6.911-.977 1.804-.956 3.717-1.468 4.25-1.138.534.33.971.123.971-.459 0-1.222 4.907-1.405 6.724-.251.859.546 1.311 5.522 1.518 16.735.162 8.776.286-23.868.276-72.543L200.5.5l-6.75-.296C188.084-.044 187 .168 187 1.522q.001 1.615-1.75 1.068c-.963-.299-2.415-.127-3.227.382-1.007.632-2.047.411-3.266-.692-1.655-1.498-1.894-1.475-3.192.301-.772 1.055-1.89 1.975-2.484 2.044s-1.531.181-2.081.25-1 .827-1 1.684-.409 1.306-.91.997c-1.465-.906-4.09.522-4.09 2.225 0 1.278-.416 1.187-2.25-.492-4.415-4.04-12.064-5.106-14.25-1.985-.8 1.141-1.753 1.776-2.119 1.41s-.097-1.352.599-2.19C148.012 5.28 147.983 5 146.822 5c-.782 0-1.956.534-2.609 1.187-.915.915-1.703.721-3.45-.851-1.245-1.121-3.052-2.316-4.016-2.657-1.668-.589-1.669-.486-.018 2.101 1.47 2.303 1.49 2.526.13 1.453-.907-.716-2.422-.961-3.482-.563-1.717.644-1.749.544-.377-1.175.825-1.033.988-1.572.363-1.198s-1.668.04-2.319-.744c-.981-1.183-.534-1.49 2.637-1.814 2.1-.214.292-.426-4.018-.47l-7.838-.081-3.648 4.038c-3.639 4.028-13.201 11.083-13.974 10.311-.606-.606 1.966-4.009 7.237-9.577 2.583-2.728 4.103-4.965 3.378-4.972s-4.701 3.648-8.836 8.121c-6.486 7.016-8.024 8.173-11.208 8.426l-3.691.292 1.948-2.091c1.071-1.15 1.723-2.315 1.448-2.59s-1.441.509-2.59 1.743c-1.15 1.234-2.296 2.037-2.548 1.785-.821-.821 2.557-7.758 5.729-11.762L98.168 0h-4.632c-5.287 0-7.029 1.484-13.179 11.229-1.988 3.151-3.976 5.506-4.417 5.234s-1.084-.038-1.43.521S73.459 18 72.941 18c-1.52 0-1.08-3.189.714-5.171.99-1.094 1.191-1.829.5-1.829-.635 0-1.155.465-1.155 1.034 0 1.063-4.434.866-5.546-.246-.341-.342.316-2.741 1.462-5.332S71 1.353 71 .873 69.214 0 67.032 0c-3.301 0-4.219.463-5.46 2.75L60.08 5.5l-.04-2.75L60 0h-8.883c-8.325 0-8.92.139-9.462 2.211l-.578 2.21-2.353-2.21C36.866.465 35.175 0 30.686 0 27.558 0 25 .241 25 .535m131.269.158c.973.254 2.323.237 3-.037S159.15.175 157.5.195s-2.204.244-1.231.498m-37.386 5.252c-2.41 2.554-5.958 5.824-7.883 7.266l-3.5 2.623 4.893-.252c2.895-.149 5.345-.855 6-1.729.609-.812 1.894-1.772 2.857-2.134S123 10.422 123 9.64s1.125-1.706 2.5-2.051 2.5-1.095 2.5-1.667.495-.734 1.1-.36c.793.49.803.124.035-1.31-.586-1.094-.895-2.161-.687-2.371s-.874-.426-2.402-.481c-2.08-.074-3.882 1.069-7.163 4.545m70.811-4.301c.656.267 1.068 1.019.914 1.671s-.091.847.139.435c.231-.413 1.084-.75 1.895-.75.812 0 1.198-.45.858-1s-1.604-.964-2.809-.921-1.654.297-.997.565M.435 72.5c-.001 39.05.238 62.675.532 52.5l.533-18.5 4.304-.137c2.367-.076 4.05.116 3.741.426-.31.309.419 1.609 1.62 2.887S12.847 112 12.233 112s-1.393-.45-1.733-1-1.041-1-1.559-1c-1.171 0-1.194 11.207-.033 16.205.593 2.552.511 3.822-.264 4.08-.718.24-.497 1.005.607 2.109.954.953 2.187 1.453 2.741 1.111s1.015-.034 1.023.686c.013 1.059.178 1.053.862-.026.466-.735 1.246-1.41 1.735-1.5.488-.091.892-.746.897-1.457.005-.71.543-1.622 1.197-2.026 1.866-1.153-.159-3.49-2.407-2.777-1.676.532-2.118-.109-3.148-4.57-.956-4.145-.941-5.351.076-5.996.999-.635 1.004-.812.023-.824-.687-.008-1.25-.481-1.25-1.05 0-.707.602-.713 1.9-.018 1.46.781 2.041.649 2.508-.569.335-.872 1.195-1.36 1.912-1.085s2.401-.361 3.742-1.413l2.438-1.913-2.741.988c-2.541.916-2.654.849-1.55-.919.655-1.048 1.524-1.701 1.93-1.45s1.25-.341 1.875-1.315c1.063-1.655 1.101-1.656.593-.021-.299.962-.082 1.75.483 1.75.566 0 .723.493.351 1.096-.419.677.021.962 1.151.744 1.132-.218 2.079-1.579 2.487-3.574.363-1.772.268-2.981-.21-2.685-1.943 1.201-2.97-.811-1.336-2.617.915-1.011 1.367-2.316 1.006-2.901-.371-.6.131-1.07 1.152-1.078 1.505-.013 1.562-.172.337-.947-1.261-.797-1.225-1.025.25-1.591 1.919-.737 2.509-7.447.655-7.447-.613 0-.797-.853-.433-2s.18-2-.433-2C28.48 83 28 82.55 28 82s.9-1 2-1c1.294 0 2-.667 2-1.889 0-1.185-.652-1.837-1.75-1.75-1.251.099-1.682-.503-1.512-2.111.131-1.237-.206-2.25-.75-2.25A.997.997 0 0 1 27 72c0-.55 1.125-1 2.5-1s2.5-.408 2.5-.906-.9-.671-2-.384c-1.608.421-2 .031-2-1.986 0-2.633 2.465-4.398 3.593-2.574.719 1.163 2.365-.768 2.392-2.806.028-2.123-4.343-.139-12.485 5.666-4.4 3.137-9.012 6.234-10.25 6.882-1.261.661-2.25 2.115-2.25 3.31 0 1.172-.279 1.852-.62 1.511-.934-.934.449-7.102 2.083-9.289 1.36-1.821 1.404-1.79.814.576-1.084 4.344 2.218.629 3.63-4.085.678-2.261 1.418-3.924 1.645-3.696s-.006 1.876-.518 3.663l-.932 3.25 3.029-1.918c6.268-3.969 13.111-10.751 15.086-14.952 1.961-4.173 1.971-4.404.243-5.668-1.576-1.152-2.5-.789-7.381 2.906-3.068 2.322-7.041 4.971-8.829 5.887-1.787.915-3.255 1.99-3.261 2.389s-1.786 2.581-3.957 4.85-3.695 4.378-3.387 4.685c.307.308-.162 1.589-1.043 2.847-1.796 2.563-2.212 7.337-.55 6.31.708-.438 1.032 2.4.993 8.691-.033 5.138.121 10.498.34 11.912.325 2.089-.144 2.777-2.493 3.664L1 102.826v-7.34c0-6.149.284-7.414 1.75-7.797 1.667-.435 1.667-.463 0-.573-1.6-.106-1.747-1.683-1.718-18.366.025-14.67.273-17.933 1.263-16.632 1.087 1.427 1.599 1.131 4.332-2.5 1.705-2.265 4.293-6.195 5.752-8.733 2.286-3.977 2.451-4.781 1.196-5.823-.801-.664-1.201-1.873-.889-2.686.454-1.183-.004-1.334-2.292-.76-1.572.394-3.429.717-4.126.717S5 32.933 5 33.667C5 34.4 4.325 35 3.5 35c-.981 0-1.575 1.125-1.718 3.25C1.662 40.038 1.31 32.5 1 21.5s-.565 11.95-.565 51m178.987-55.672-2.078 2.497 2.078 4.087c1.143 2.249 2.329 4.313 2.636 4.588s1.362 1.625 2.344 3l1.786 2.5-.413-5.591c-.358-4.85-.148-5.711 1.591-6.5 3.266-1.481 2.904-2.911-1.101-4.344-2.071-.741-3.99-1.659-4.265-2.041s-1.435.43-2.578 1.804m11.319 4.922c-2.419 3.584-4.453 14.25-2.717 14.25 1.132 0 5.168-10.015 5.733-14.228.279-2.074.283-3.772.011-3.772-.273 0-1.635 1.688-3.027 3.75m-57.728.221c-1.179.745-1.037.907.68.777 1.193-.09 1.948-.52 1.679-.956-.599-.969-.537-.973-2.359.179m33.022 3.72c-.019 1.205.445 2.488 1.032 2.85 1.724 1.066 1.867.132.387-2.543-1.334-2.409-1.384-2.42-1.419-.307m-13.403.095c-.267.432.349.785 1.368.785s1.635-.353 1.368-.785C155.1 25.354 154.485 25 154 25s-1.1.354-1.368.786m45.282 7.964c-.571 1.513-2.634 5.076-4.586 7.919-3.504 5.104-4.359 9.219-1.274 6.135.805-.806 2.022-1.279 2.705-1.051s1.241-.299 1.241-1.17c0-.916.842-1.583 2-1.583 1.795 0 2-.667 2-6.5 0-3.575-.236-6.5-.525-6.5-.288 0-.991 1.237-1.561 2.75M34 39.945v4.945l4.75.305 4.75.305.283 11.25.283 11.25H57V45h9V35H34zm46.275-3.959C72.598 37.774 69 42.894 69 52.034c0 5.391.979 8.069 4.269 11.684l2.019 2.217 2.933-2.467c1.613-1.358 3.235-2.468 3.606-2.467.37.001.673-3.712.673-8.25 0-8.134.035-8.251 2.5-8.251 2.273 0 2.528.431 2.805 4.747l.304 4.748 2.896-1.498C92.598 51.674 95.498 51 97.45 51c2.939 0 3.55-.361 3.55-2.099 0-3.587-3.07-8.784-6.356-10.758-3.765-2.261-9.938-3.188-14.369-2.157m28.894 3.729c-2.589 12.237-2.635 11.655 1.359 16.911 4.208 5.538 6.472 7.271 6.472 4.955 0-1.259 1.504-1.481 8.821-1.3l8.82.219-2.57-12.5-2.571-12.5-9.66-.285-9.659-.285zm29.498-4.048c-.367.366-.667 7.047-.667 14.845 0 17.701-.153 17.489 12.579 17.486 13.148-.002 18.894-3.65 20.117-12.771 1.337-9.964-3.182-17.308-11.783-19.152-5.525-1.185-19.194-1.461-20.246-.408M18.06 42.542c-1.27 3.598-2.11 6.741-1.866 6.985s1.911-1.072 3.706-2.924c2.915-3.008 3.124-3.591 1.957-5.46-1.134-1.816-1.045-2.292.668-3.586 1.957-1.48 1.957-1.494-.09-1.525-1.65-.026-2.529 1.282-4.375 6.51m100.582 5.208c-1.18 7.136-.841 9.25 1.483 9.25 1.847 0 2.043-.409 1.5-3.125-.344-1.719-.625-4.644-.625-6.5 0-4.545-1.587-4.293-2.358.375m33.025-2.083c-.367.366-.667 3.291-.667 6.5 0 5.759.036 5.833 2.878 5.833 3.563 0 5.455-2.153 5.455-6.209 0-4.26-5.298-8.493-7.666-6.124m-58.048 7.367C90.365 54.009 86 57.739 86 59.546c0 .659-1.082 3.618-2.405 6.576-1.854 4.146-2.566 4.977-3.107 3.628-.943-2.351-3.17-2.214-4.503.278-.597 1.115-1.508 1.767-2.024 1.448-.53-.328-.652.167-.28 1.136.404 1.053.263 1.471-.367 1.082-.638-.394-.843.32-.541 1.896.375 1.962.005 2.655-1.645 3.087-3.241.847-2.722 5.866 1.474 14.254 9.65 19.289 37.595 29.334 51.683 18.577 2.444-1.866 6.083-5.781 8.087-8.7 2.004-2.92 4.376-6.33 5.272-7.579 1.504-2.099 1.504-2.408-.008-4.079-.9-.994-1.636-2.15-1.636-2.568s-.809-1.509-1.797-2.422c-.989-.913-1.233-1.284-.544-.824s1.75.529 2.358.154c.655-.406-.23-1.355-2.177-2.337-3.718-1.872-4.596-4.148-4.74-12.281-.112-6.285 1.381-8.489 4.977-7.347 1.387.44 1.943.316 1.537-.341-1.903-3.079-12.547-1.914-14.506 1.588-.833 1.488-1.226 1.477-4.758-.133-2.333-1.063-4.473-3.012-5.432-4.947-3.14-6.336-9.805-8.901-17.299-6.658m2.739 2.624C89.855 59.032 87 63.575 87 70.549c0 3.87.5 5.115 2.983 7.435q6.376 5.956 14.502 2.023c4.966-2.404 6.515-5.514 6.515-13.079 0-3.96-.506-5.28-2.968-7.742-4.216-4.216-8.091-5.387-11.674-3.528m-.057 3c-.893 2.326 4.037 6.342 7.786 6.342 4.23 0 4.959-2.704 1.525-5.658-3.21-2.761-8.369-3.14-9.311-.684M131 66.326c0 2.278 4.724 5.979 6.904 5.409 1.1-.287 2.211-.008 2.469.621s.505.417.548-.471c.145-2.955-3.847-6.885-6.994-6.885-1.764 0-2.927.527-2.927 1.326M88.596 70.5c.374 1.65 1.082 3.783 1.572 4.74 1.256 2.451 6.135 4.76 10.06 4.76 3.399 0 7.772-2.315 7.772-4.113 0-.55-1-.3-2.223.556-4.608 3.228-11.903.609-15.828-5.684L87.916 67.5zM54.86 71.667c-.077.458-.189 3.308-.25 6.333-.142 7.089-2.197 7.342-5.501.677-2.152-4.34-2.546-4.669-3.93-3.285s-1.275 1.744 1.083 3.599C51.41 83.041 50.588 89 44.881 89c-2.007 0-2.897.427-2.607 1.25.243.688 1.293 1.095 2.334.905 7.258-1.323 13.238 1.719 22.189 11.287 7.293 7.796 9.087 10.602 6.315 9.877-1.367-.357-2.029.214-2.522 2.177-.558 2.225.007 3.337 3.444 6.773 2.261 2.262 4.799 5.441 5.639 7.065 1.005 1.944-.561.721-4.588-3.584-10.913-11.666-20.204-13.164-22.58-3.642-.851 3.411 1.195 8.115 6.358 14.62 5.238 6.6 8.557 14.619 7.144 17.26-1.495 2.792-1.23 6.012.493 6.012 1.153 0 1.5-1.281 1.5-5.531 0-4.15.4-5.685 1.601-6.146 2.197-.843 3.365 1.377 3.384 6.427.008 2.338.487 4.25 1.065 4.25.687 0 .835-2.159.43-6.25-1.946-19.636-3.186-24.601-6.914-27.695-.861-.715-1.566-1.75-1.566-2.3 0-3.095 7.179 6.715 8.331 11.385.748 3.031 1.764 3.552 10.669 5.464 11.079 2.38 17 1.605 21.75-2.845 2.594-2.43 3.064-1.316.595 1.412-3.093 3.418 1.437 2.171 5.857-1.612 2.211-1.892 5.432-3.898 7.159-4.457 2.576-.833 2.797-.799 1.235.191-5.296 3.356-9.145 7.745-11.609 13.237-1.514 3.373-3.891 6.832-5.355 7.791-1.447.949-2.632 2.39-2.632 3.202 0 2.291 1.632 1.751 3.85-1.273 1.594-2.174 2.275-2.494 3.256-1.527.963.949.978 1.798.067 3.797-1.411 3.097-1.489 4.48-.252 4.48.506 0 1.21-1.319 1.564-2.931.764-3.481 2.987-5.733 4.015-4.069.481.778 1.12.731 2.197-.163 1.267-1.052 1.846-.812 3.494 1.451 2.185 3 3.809 3.516 3.809 1.212 0-.825-.415-1.5-.923-1.5s-2.214-1.086-3.792-2.413c-1.577-1.328-4.199-2.61-5.827-2.851-2.805-.414-2.776-.444.557-.586 8.304-.354 20.985-11.036 20.985-17.677 0-.895-1.315-2.942-2.923-4.55-3.362-3.361-7.214-3.734-13.577-1.313-7.268 2.765-7.895 2.862-7.227 1.122.335-.875.893-3.1 1.239-4.945l.63-3.356-7.286-1.249c-14.282-2.449-29.276-12.157-34.402-22.274-1.883-3.715-3.408-5.236-6.716-6.7-6.833-3.022-7.955-4.656-7.57-11.027.227-3.768-.063-5.643-.918-5.929-.687-.23-1.313-.044-1.39.415m114.733.952c-.848 2.21-.811 2.251 1.496 1.648 1.838-.481 2.066-.14 1.898 2.843-.292 5.218-.104 5.872 1.513 5.252.825-.317 1.5-.078 1.5.531s-.562 1.121-1.25 1.137-.419.514.596 1.104c1.324.769 2.159.761 2.95-.03.805-.805.734-1.104-.263-1.104-.751 0-1.106-.261-.787-.579 1.139-1.139-2.432-9.313-4.724-10.815-2.101-1.376-2.397-1.375-2.929.013m27.599 3.85c-2.038 1.125-2.106 1.35-.58 1.936 1.585.608 3.334-.769 3.373-2.655.018-.874.165-.912-2.793.719M58.56 78.618c-.607 2.419-.123 4.278.859 3.297 1.053-1.054 1.709-5.915.798-5.915-.55 0-1.296 1.178-1.657 2.618m87.425 1.132c-.009 2.063-.433 4.41-.943 5.216-.744 1.177-1.131.93-1.96-1.25-1.443-3.796-2.065-3.383-1.368.91.437 2.689.186 3.85-.97 4.497-.948.531-1.351 1.663-1.03 2.892.322 1.232-.534 3.626-2.194 6.134l-2.722 4.113 5.473-3.131c3.01-1.722 6.409-3.131 7.554-3.131 2.637 0 7.175 2.036 7.175 3.22 0 .494.45.62 1 .28 1.725-1.066 1.097-2.513-1.526-3.51-1.389-.528-2.798-1.67-3.131-2.539-.912-2.377 1.309-6.368 4.145-7.446 1.381-.526 2.512-1.567 2.512-2.314 0-2.906-1.423-2.471-4.959 1.513-4.71 5.307-7.368 4.906-5.881-.888 2.14-8.341 2.139-8.316.457-8.316-1.199 0-1.621.969-1.632 3.75m-65.235.034c-.963.199-1.75.806-1.75 1.348s.45.708 1 .368 1 .002 1 .759c0 .758.681 3.671 1.513 6.474 1.444 4.861 1.709 5.131 5.75 5.869 2.33.425 4.582.687 5.003.58.422-.106 4.247.523 8.5 1.398 9.256 1.904 16.366 5.208 17.727 8.237.546 1.216 1.513 2.011 2.148 1.767 2.641-1.013 15.295-11.181 15.325-12.315.019-.677-1.204-1.49-2.716-1.808-1.512-.317-4.55-.973-6.75-1.459-2.2-.485-10.075-1.853-17.5-3.04-9.686-1.548-15.478-3.059-20.5-5.349-3.85-1.756-7.787-3.029-8.75-2.829M164 80.5c-.86 1.036-.898 1.5-.122 1.5.617 0 1.122-.54 1.122-1.2 0-.887.293-.907 1.122-.078 1.208 1.208 3.878.637 3.878-.829 0-1.477-4.662-1.005-6 .607m-4.288 2.505c.414 1.587.012 2.738-1.306 3.734-1.861 1.407-1.859 1.432.094 1.091 2.223-.39 3.309-4.421 1.641-6.089-.705-.705-.84-.307-.429 1.264m25.404 2.745c-.064.688-.736 1.25-1.494 1.25-.757 0-1.885.612-2.506 1.36-1.216 1.466-6.467 1.017-5.545-.474.711-1.151-.669-1.11-2.542.075-.809.512-1.171 1.231-.803 1.598 1.367 1.368 14.004 5.29 15.363 4.768 2.638-1.012 1.424-2.327-2.148-2.327-2.308 0-3.323-.382-2.887-1.087.369-.598 1.492-.873 2.494-.611 1.005.263 2.062-.146 2.356-.913.293-.764.13-1.389-.362-1.389s-1.101-.787-1.353-1.75c-.251-.963-.509-1.187-.573-.5M154.2 89.2c-2.165 2.165-1.3 4.279 2.199 5.375 2.724.852 3.299.802 2.893-.256-.278-.725-1.583-1.319-2.899-1.319-2.567 0-3.147-1.846-1.193-3.8.66-.66.975-1.2.7-1.2s-1.04.54-1.7 1.2m12.3 1.8c-.34.55-.141 1 .441 1S168 91.55 168 91s-.198-1-.441-1-.719.45-1.059 1m25.053 1.915a1.116 1.116 0 0 0 .362 1.532c.521.322 1.21.159 1.532-.362a1.116 1.116 0 0 0-.362-1.532 1.116 1.116 0 0 0-1.532.362m-15.988 4.98c-.305.493.119 1.153.941 1.469 1.775.681 4.494-.209 4.494-1.471 0-1.165-4.715-1.163-5.435.002m-31.954 1.75c-1.933 1.047-2.493 1.81-1.692 2.305.767.474.943 1.752.489 3.559-.603 2.405-.453 2.722 1.024 2.155.952-.365 1.906-.664 2.118-.664.213 0 .169-.569-.098-1.266-.271-.704 1.302-2.425 3.545-3.879 3.773-2.446 3.887-2.653 1.767-3.221-3.189-.854-3.893-.755-7.153 1.011m37.056 3.022C179.233 104.1 180.133 105 183 105c3.206 0 4.03-1.391 1.418-2.393-2.033-.78-2.926-.766-3.751.06M2 105c0 .55.675 1 1.5 1s1.5-.45 1.5-1-.675-1-1.5-1-1.5.45-1.5 1m191.459.067c-1.076 1.741.149 2.11 1.521.457.789-.95.865-1.524.201-1.524-.584 0-1.36.48-1.722 1.067m-6.565.372c-.241.242-1.74.675-3.33.964s-3.38 1.049-3.977 1.691c-.823.883-.115.986 2.913.423 2.2-.409 5.012-.74 6.25-.736 2.595.009 2.991-1.283.668-2.174-1.888-.725-1.962-.73-2.524-.168m-173.728 1.437c-1.111.704-1.11.932.005 1.36.737.282 1.917-.105 2.624-.861 1.045-1.12 1.044-1.372-.006-1.36-.709.009-1.889.396-2.623.861m54.503.966c.312 1.193.052 2.789-.576 3.547-.88 1.059-.794 1.512.371 1.959 2.263.868 3.247-4.066 1.217-6.096-1.439-1.438-1.529-1.386-1.012.59m81.743-.154c-.987.722-2.721 1.316-3.853 1.32-1.214.004-2.534 1.031-3.215 2.501-.637 1.371-.755 2.245-.264 1.942s.733.821.538 2.498c-.356 3.056.14 3.465 3.741 3.085 1.256-.133 1.638.236 1.176 1.135-.376.732-.087.618.641-.253.728-.872 2.674-1.933 4.324-2.358 2.897-.747 2.923-.803.749-1.634-1.238-.473-3.038-.562-4-.198-1.648.624-1.647.559.021-1.123.973-.982 2.391-1.877 3.149-1.988.759-.112 1.987-.685 2.73-1.275s2.026-1.321 2.851-1.627c1.16-.429 1.09-.573-.309-.634-.995-.043-1.562-.479-1.26-.967.91-1.472-5.09-1.834-7.019-.424M3.063 121.691c-.037 7.825.346 13.443.941 13.812.64.395.793-.711.422-3.049-.415-2.607-.254-3.466.555-2.966.839.519.954-1.629.437-8.142-1.131-14.246-2.285-14.076-2.355.345m178.295-10.46c-.825 1.333.484 2.263 3.259 2.316 1.631.031 2.356-.443 2.167-1.418-.315-1.622-4.546-2.323-5.426-.898m-56.438 2.547c-1.97 1.497-4.22 3.397-5 4.222-1.878 1.984-2.059 5-.3 5 2.122 0 7.38-5.456 7.38-7.658 0-1.068.54-2.482 1.2-3.142 2.026-2.026.484-1.284-3.28 1.578m35.539-1.711c-.363.586-.445 1.281-.183 1.543s.743-.218 1.069-1.067c.676-1.762.1-2.072-.886-.476M188.5 112c.34.55.816 1 1.059 1s.441-.45.441-1-.477-1-1.059-1-.781.45-.441 1m-4.5 4c1.976 1.277 5.289 1.277 4.5 0-.34-.55-1.829-.993-3.309-.985-2.105.012-2.364.227-1.191.985m-44.737 9.312c-1.78 1.203-3.243 2.548-3.25 2.989s1.562-.401 3.487-1.869 3.5-2.841 3.5-3.051c0-.562-.203-.457-3.737 1.931M156 124c0 .55.45 1 1 1s1-.45 1-1-.45-1-1-1-1 .45-1 1m13.813 2.683c.721.289 1.584.253 1.916-.079s-.258-.568-1.312-.525c-1.165.048-1.402.285-.604.604M185 128c0 .55.702 1 1.559 1s1.281-.45.941-1-1.041-1-1.559-1-.941.45-.941 1m-1 3.583c0 1.766 2.153 1.459 2.771-.395.218-.654-.317-1.188-1.188-1.188-.87 0-1.583.713-1.583 1.583M.409 161.5c-.001 9.35.149 13.31.334 8.799.185-4.51.186-12.16.002-17C.562 148.46.41 152.15.409 161.5m59.032-13.032c-1.631 1.234-1.681 1.473-.313 1.5.895.018 2.187-.643 2.872-1.468 1.596-1.923-.032-1.943-2.559-.032m98.577-.672c-.815.289-2.085 1.128-2.822 1.865-1.119 1.119-.998 1.339.733 1.339 1.139 0 2.071-.417 2.071-.927 0-.509.787-1.082 1.75-1.273s1.3-.613.75-.939-1.667-.355-2.482-.065m-96.795 3.761c-2.6 1.821-2.943 3.732-.586 3.266.901-.178 2.011-1.335 2.468-2.573.988-2.675.961-2.685-1.882-.693M79 153.974c0 1.256 5.548 4.145 6.373 3.319.941-.94.755-2.49-.226-1.884-.469.29-1.706-.119-2.75-.909-2.238-1.695-3.397-1.874-3.397-.526m36 5.467c0 .857-.034 1.885-.075 2.284s.409.886 1 1.083c1.357.453 1.425-3.474.075-4.308-.55-.34-1 .084-1 .941m-47.845 8.725 2.958 3.166 2.103-2.104 2.104-2.103-3.358.095c-1.846.053-3.53-.425-3.743-1.062-.212-.637-.979-1.158-1.704-1.158-.745 0-.032 1.376 1.64 3.166m34.476 1.354c-.465 1.211-.11 1.538 1.414 1.299 2.329-.365 2.767-2.171.634-2.618-.785-.165-1.707.429-2.048 1.319M74.5 170c.34.55.816 1 1.059 1s.441-.45.441-1-.477-1-1.059-1-.781.45-.441 1m-25.5.393c0 .216.675.652 1.5.969s1.5.139 1.5-.393c0-.533-.675-.969-1.5-.969s-1.5.177-1.5.393M94.5 172c.34.55 1.041 1 1.559 1s.941-.45.941-1-.702-1-1.559-1-1.281.45-.941 1M20 173c0 .55.702 1 1.559 1s1.281-.45.941-1-1.041-1-1.559-1-.941.45-.941 1m48 .059c0 .582.45.781 1 .441s1-.816 1-1.059-.45-.441-1-.441-1 .477-1 1.059M18.5 175c.34.55 1.604.968 2.809.93 2.112-.068 2.119-.101.191-.93-2.752-1.183-3.731-1.183-3 0m57.5.059c0 .582.45.781 1 .441s1-.816 1-1.059-.45-.441-1-.441-1 .477-1 1.059M37 177c-.825.533-1.05.969-.5.969s1.675-.436 2.5-.969 1.05-.969.5-.969-1.675.436-2.5.969m-15.187.683c.721.289 1.584.253 1.916-.079s-.258-.568-1.312-.525c-1.165.048-1.402.285-.604.604m11.398.716c.709.77 1.447 1.25 1.639 1.067.593-.564-.91-2.466-1.948-2.466-.54 0-.401.63.309 1.399M68.5 178c-.34.55-.168 1 .382 1s1.278-.45 1.618-1 .168-1-.382-1-1.278.45-1.618 1M41 179.059c0 .582.45.781 1 .441s1-.816 1-1.059-.45-.441-1-.441-1 .477-1 1.059m-23.493 1.93c-.35.566.051.734.941.393 1.732-.665 2.049-1.382.611-1.382-.518 0-1.216.445-1.552.989M68 182c.825.533 2.175.969 3 .969 1.333 0 1.333-.107 0-.969-.825-.533-2.175-.969-3-.969-1.333 0-1.333.107 0 .969M.3 187c0 3.025.187 4.262.416 2.75s.229-3.988 0-5.5S.3 183.975.3 187m153.7-3-2.5.801 2.75.099c1.512.055 2.75-.35 2.75-.9s-.113-.955-.25-.9-1.375.46-2.75.9m-94.5.765C56.128 187.243 49.031 200 51.025 200c.536 0 .975-.647.975-1.437s2.022-4.39 4.493-8 4.384-6.556 4.25-6.548c-.133.009-.693.346-1.243.75M34.5 188c-1.938 2.141-1.884 2.176 3.71 2.441 2.477.117 2.579-.017 1.189-1.553-1.212-1.339-1.255-1.787-.21-2.205.74-.296.398-.56-.784-.604-1.152-.043-2.91.821-3.905 1.921m102.5 1.839c0 .462 1.125 1.353 2.5 1.979 2.005.914 2.5.868 2.5-.232 0-.755-.712-1.645-1.582-1.979-2.193-.842-3.418-.758-3.418.232m7.612 4.037c-1.15 1.271-1.377 2.151-.668 2.589 1.748 1.08 5.197-.493 4.863-2.218-.461-2.374-2.24-2.531-4.195-.371m-8.678 1.247c-1.363 2.547-1.035 2.871 1.816 1.793 2.584-.978 2.926-2.443.765-3.272-.883-.339-1.928.26-2.581 1.479M.158 196c0 1.375.227 1.938.504 1.25.278-.687.278-1.812 0-2.5-.277-.687-.504-.125-.504 1.25m180.342 0c-.34.55.084 1 .941 1s1.559-.45 1.559-1-.423-1-.941-1-1.219.45-1.559 1M6.813 197.683c.721.289 1.584.253 1.916-.079s-.258-.568-1.312-.525c-1.165.048-1.402.285-.604.604m19.925-.021c-3.62 1.006-.407 2.337 5.571 2.308 4.039-.02 5.67-.336 4.691-.909-2.015-1.18-8.078-2.007-10.262-1.399m113.868.754c.335.871 1.047 1.584 1.584 1.584 1.315 0 .492-2.273-1.003-2.771-.731-.244-.954.214-.581 1.187m7.103-.792c-1.486 1.486-.597 2.376 2.374 2.376 2.02 0 2.942-.431 2.672-1.25-.467-1.418-3.972-2.2-5.046-1.126M179.5 199c-1.597.686-1.233.874 1.809.93 2.3.042 3.564-.326 3.191-.93-.73-1.181-2.252-1.181-5 0m-161.75.706c1.238.238 3.262.238 4.5 0 1.238-.239.225-.434-2.25-.434s-3.488.195-2.25.434m140.5-.017c.963.252 2.537.252 3.5 0 .963-.251.175-.457-1.75-.457s-2.713.206-1.75.457"/><path fill-opacity=".659" fill-rule="evenodd" d="M26.373 2.25c.89 1.238 2.347 3.6 3.239 5.25s2.439 3.9 3.437 5c1.257 1.385 2.005 4.321 2.433 9.551.545 6.655.376 7.86-1.432 10.158C32.923 33.642 32 36.16 32 37.804c0 2.169-.969 3.84-3.535 6.092-1.944 1.707-4.081 3.09-4.75 3.072s-.315-.712.785-1.543c1.1-.832 2.9-2.19 4-3.019 1.967-1.481 1.963-1.498-.25-1.05-1.238.251-2.306.049-2.375-.45A22 22 0 0 0 25.5 39c-.137-.55-.306-1.28-.375-1.622s-.795-.067-1.614.613c-1.556 1.291-1.063 3.468.558 2.466.512-.316.931-.294.931.05 0 1.68-2.363 4.612-6.102 7.573l-4.135 3.276.679-3.428c.527-2.661.427-3.092-.447-1.928-.897 1.195-.988.991-.448-1 .373-1.375 1.104-2.95 1.625-3.5.606-.64.747-.28.392 1-.305 1.1.432-.151 1.638-2.781 1.207-2.63 2.708-4.584 3.337-4.343 1.807.694 3.811-1.022 3.163-2.71-.349-.91-1.738-1.503-3.412-1.455-2.424.069-3.384 1.075-6.806 7.138-2.191 3.882-5.489 9.051-7.329 11.487-2.39 3.165-2.998 4.643-2.132 5.179.882.544.624 1.338-.941 2.903-1.185 1.185-2.589 1.887-3.118 1.559-.603-.372-.889 4.201-.763 12.214L.402 84.5 1 72.5l.598-12L2 69l.402 8.5.341-7.75c.313-7.11 1.324-9.639 2.598-6.5.385.95.749.901 1.517-.202.555-.799.788-1.811.517-2.25s-.185-1.296.191-1.905c.49-.793.894-.767 1.425.093.504.815 1.447.208 2.943-1.894 1.211-1.7 2.873-3.092 3.693-3.092s1.213.45.873 1c-.896 1.45.582 1.226 2.421-.367.869-.753 4.001-3.048 6.961-5.101 4.704-3.262 5.692-3.592 7.834-2.615 2.393 1.09 2.434 1.301 1.736 8.85-.394 4.253-1.319 8.603-2.057 9.667-.744 1.072-1.076 2.987-.747 4.299.537 2.14.344 2.303-2.027 1.708-1.647-.413-2.621-.246-2.621.451 0 .609.505 1.108 1.122 1.108.76 0 .706.502-.164 1.551-1.087 1.309-.951 1.638.878 2.116 2.075.543 2.922 3.242 1.472 4.692-1.154 1.154-1.345 4.5-.294 5.15C32.308 87.308 32.295 94 31 94c-.55 0-1 .675-1 1.5s-.436 1.5-.969 1.5-.731.617-.442 1.371-.175 1.64-1.032 1.969c-2.018.774-2.017 2.66.003 2.66 1.165 0 1.443.745 1.097 2.939-.656 4.165-1.425 5.061-4.338 5.061-2.18 0-2.375.228-1.303 1.519 1.031 1.243.934 1.878-.533 3.5-1.8 1.989-1.475 2.363 1.767 2.033 2.067-.21 2.244.634.476 2.269-1.729 1.601-3.726 1.919-3.726.596 0-1.728-2.299-.486-2.575 1.39-.157 1.075.638 1.922 2.163 2.304 2.292.576 3.49 3.389 1.443 3.389-.532 0-.709.675-.393 1.5.398 1.036-.065 1.5-1.496 1.5-1.139 0-2.56.913-3.157 2.028s-1.474 1.788-1.95 1.494c-.475-.294-1.128.031-1.45.722-.447.959-.719.972-1.152.056-.387-.821-1.302-.92-2.897-.314-1.282.488-2.505.711-2.719.498-.214-.214-.388.49-.388 1.564s.803 2.208 1.785 2.52S10 140.603 10 141.174s-.661.786-1.468.477c-1.959-.752-3.162 1.336-1.41 2.445 1.082.686 1.096.877.069.889-.72.008-1.031.465-.691 1.015s.168 1-.382 1-1.278-.45-1.618-1-1.547-1-2.681-1c-1.663 0-1.837.274-.893 1.411.801.965.839 1.616.123 2.059-.613.378-1.049 4.6-1.049 10.148 0 6.079.36 9.277 1 8.882.55-.34 1-.184 1 .347s.9.73 2 .443c1.266-.331 2.023-.021 2.063.843.035.752.499.278 1.031-1.053.738-1.846 1.244-2.142 2.136-1.25 1.618 1.618 4.619 1.463 6.413-.33.825-.825 2.341-1.5 3.369-1.5 2.185 0 3.894 2.198 2.159 2.776-.651.217-.916.828-.588 1.358.374.606 1.066.572 1.864-.09 1.701-1.412 12.553-2.206 12.553-.918 0 .545-.45.714-1 .374s-1 .084-1 .941c0 1.746 1.552 2.093 2.5.559.92-1.488 2.5-1.209 2.5.441 0 1.934 1.933 3.026 3.169 1.79 1.208-1.208-4.694-7.643-6.172-6.729-.536.331-.754-.096-.486-.95l.971-3.087c.832-2.648 5.396 1.039 5.062 4.088-.173 1.574.238 2.447 1.153 2.447.781 0 1.209.342.951.761s.164 1.63.941 2.691c1.393 1.906 1.413 1.906 1.548-.011.075-1.067.134-2.728.13-3.691-.004-1.017.743-1.75 1.781-1.75.984 0 2.527-.283 3.43-.63 1.136-.436 1.813.025 2.198 1.5.624 2.384 3.311 2.779 6.282.924 1.558-.973 2.278-.906 3.736.348C64.52 169.714 68 171.28 68 170.53c0-1.37-6.042-6.678-7.152-6.283-1.482.526-6.459-1.715-8.63-3.886-.758-.759-1.746-1.153-2.194-.876s-1.074-.173-1.391-1c-.318-.827-.927-1.429-1.355-1.338s-1.903-.326-3.278-.927c-1.799-.787-2.009-1.111-.75-1.157.962-.034 1.637-.594 1.5-1.242-.224-1.059 1.123-1.278 5.731-.932.814.061 1.762 1.123 2.107 2.361.344 1.238 2.265 3.588 4.269 5.223s2.855 2.049 1.891.919-1.482-2.324-1.152-2.654c.835-.836 3.404.265 3.404 1.459 0 .54.994 1.787 2.209 2.771 1.659 1.344 2.624 1.529 3.881.744 1.276-.797 2.317-.537 4.398 1.1 2.056 1.617 3.175 1.904 4.553 1.166 1.005-.538 2.87-.994 4.143-1.013l2.316-.036-2.5-1.506-2.5-1.506 2.5.578c2.447.566 2.441.545-.25-.99-2.858-1.631-2.942-1.975-3.278-13.505-.072-2.475-.475-5.713-.896-7.196-.75-2.64-.698-2.678 2.579-1.866 10.458 2.592 17.922 3.356 21.707 2.222 5.34-1.6 9.138-1.486 9.138.275 0 3.102-2.257 7.075-5.72 10.069-2.514 2.173-3.433 3.655-2.987 4.817.884 2.304 4.419 2.113 5.939-.321 1.974-3.16 2.988-2.327 1.253 1.029-1.772 3.426-1.275 4.971 1.599 4.971 1.387 0 2.144-.889 2.57-3.021.944-4.718 2.43-4.607 2.123.158-.226 3.503.063 4.358 1.579 4.669 3.043.625 4.103-1.285 2.654-4.782-1.622-3.916-.63-5.012 1.809-1.999 1.2 1.481 2.463 2.081 3.525 1.673 2.617-1.004 1.922-4.039-1.35-5.901-3.74-2.128-3.756-2.972-.086-4.596 4.291-1.899 11.643-8.702 13.033-12.059 4.013-9.687-6.774-16.452-18.452-11.573-3.467 1.449-3.707 1.442-3.123-.082.349-.908.634-2.519.634-3.581 0-1.37 1.537-2.611 5.285-4.268 2.906-1.286 6.459-3.733 7.894-5.439s6.09-5.373 10.344-8.15c8.13-5.308 13.076-6.442 15.477-3.549 1.764 2.126 4.751 1.859 5.497-.491.8-2.521-.103-4.009-2.434-4.009-2.968 0-4.412-2.468-2.88-4.922.714-1.143 1.64-2.078 2.058-2.078s1.669-.91 2.782-2.023c1.607-1.607 1.805-2.43.965-4-1.535-2.868-3.086-2.454-6.645 1.773-1.736 2.062-3.428 3.483-3.76 3.157s.187-2.727 1.153-5.334c1.698-4.581 1.694-4.785-.128-6.117-2.806-2.052-5.294-.234-5.845 4.269-.575 4.701.233 7.532 1.342 4.702.415-1.06.786-3.39.825-5.177.043-2.007.58-3.25 1.403-3.25 2.294 0 2.544 1.051 1.082 4.549-1.854 4.437-1.836 8.451.038 8.451.799 0 2.889-1.787 4.643-3.97s3.576-3.732 4.048-3.441c1.368.845.988 4.411-.47 4.411-1.75 0-5.674 4.228-5.674 6.114 0 2.021 2.016 3.886 4.2 3.886 1.133 0 1.8.741 1.8 2 0 2.347-1.266 2.589-2.947.564-2.624-3.162-6.766-2.905-13.586.843l-6.5 3.573 1.704-2.74c.937-1.507 2.348-3.509 3.135-4.45.863-1.03 1.188-2.677.82-4.145-.418-1.664-.138-2.618.881-3.009.821-.315 1.464-1.6 1.43-2.855-.063-2.248-.079-2.245-1.114.219q-1.052 2.503-1.558 1.137c-.279-.749.492-3.14 1.713-5.312 1.551-2.76 2.107-5.136 1.845-7.887L142.447 70l7.527-.006c9.651-.007 14.062-1.274 18.197-5.226 1.831-1.75 3.65-3.095 4.042-2.988.608.167.352-14.785-.319-18.564-.417-2.352-7.728-8.095-11.587-9.102-2.094-.547-6.957-.851-10.807-.677s-8.463.372-10.25.44L136 34l-.107 10.75-.106 10.75-2.144-10c-1.178-5.5-2.436-10.45-2.795-11-.39-.599-5.063-.875-11.65-.689l-10.998.31-.678 3.69C105.785 47.257 104.762 51 103.917 51c-.504 0-.917-.983-.917-2.184s-.9-4.044-2-6.316c-5.136-10.61-21.718-12.099-30.512-2.741-1.416 1.508-2.31 2.027-1.987 1.154s3.747-4.186 7.608-7.362c4.336-3.567 6.817-6.301 6.491-7.151-.29-.757-.035-1.269.568-1.138s1.737-1.282 2.519-3.14c1.298-3.081 1.277-3.322-.243-2.739-1.198.46-1.507.223-1.099-.84.312-.813.139-1.744-.385-2.068-1.093-.675 1.059-5.35 4.709-10.225 2.663-3.557 2.169-4.24-1.09-1.507-1.589 1.332-1.52 1.109.294-.946 1.305-1.478 3.555-2.888 5-3.133 1.778-.302 1.5-.4-.861-.305-3.293.133-3.889.756-10.669 11.141C73.968 22.797 67.691 30 65.222 30c-1.082 0-1.323-1.364-1.061-6.002.187-3.301.205-6.001.041-6s-1.458 1.24-2.876 2.752l-2.578 2.75 2.65-3.5c2.821-3.724 3.002-4.082 6.976-13.75L70.943 0h-3.388c-2.532 0-3.907.695-5.44 2.75L60.063 5.5l-.031-2.75L60 0h-9.107C43.69 0 41.894.28 42.3 1.341c.283.737.175 1.891-.241 2.563-.549.89-1.585.525-3.801-1.341C35.838.528 34.135 0 29.984 0h-5.228zm94.499-.5c-1.269 1.619-1.222 1.64.628.283 1.1-.807 2.188-1.594 2.417-1.75S123.863 0 123.289 0s-1.662.788-2.417 1.75m-3.948 5L114.5 9.5l2.75-2.424C119.82 4.81 120.459 4 119.674 4c-.179 0-1.416 1.237-2.75 2.75m76.201 8.58c-2.244 3.039-4.541 5.809-5.103 6.156-.562.348-.95 2.743-.862 5.323.136 3.984.223 4.171.578 1.246.23-1.895 1.845-5.44 3.59-7.877 2.751-3.845 3.215-4.147 3.495-2.28.383 2.552-3.195 13.76-5.394 16.9-1.975 2.82-3.775 2.868-2.889.077.401-1.265.285-1.885-.286-1.532-.529.327-3.148-3.142-5.822-7.708-4.274-7.301-5.201-8.302-7.689-8.302-1.947 0-2.669.416-2.317 1.334.281.733.02 1.333-.58 1.333-.753 0-.773.388-.066 1.25 1.046 1.275 1.578 4.059 1.29 6.75-.088.825-.784.15-1.545-1.5l-1.386-3 .582 3.5c.321 1.925 1.245 4.4 2.054 5.5 1.31 1.782 1.402 1.797.837.139-.465-1.365-.245-1.712.826-1.301.963.369 1.277.083.922-.841-.4-1.042.509-.895 3.551.574C181.015 33.054 182.738 37 179.5 37c-.825 0-1.5.477-1.5 1.059s-.52.738-1.155.346c-.726-.45-.882-.274-.42.473 1.293 2.093 2.493 7.189 1.556 6.61-.49-.303-.741 1.116-.559 3.154.239 2.657 1.109 4.269 3.077 5.703l2.745 2-.663-2.089c-.369-1.165-.173-2.39.446-2.772.637-.395 1.341.206 1.657 1.415.302 1.156 1.284 2.108 2.183 2.116 1.421.014 1.438.143.133 1-1.253.823-1.274 1.131-.13 1.868 1.13.729 1.088 1.041-.242 1.785-1.448.811-1.42 1.04.28 2.266 1.855 1.336 1.854 1.428-.008 4.745-2.228 3.965-2.303 4.405-.699 4.071.791-.165 1.113.95.944 3.261-.141 1.932.154 4.624.657 5.984l.915 2.472.709-2.233c.39-1.229 1.102-2.234 1.582-2.234s.228 1.237-.561 2.75c-1.609 3.085-1.908 5.653-.56 4.82.487-.301 1.442.122 2.122.941 1.025 1.235.892 1.489-.78 1.489-2.296 0-3.881 2.979-2.152 4.047.629.39 1.944.499 2.921.243 2.091-.547 3.191.785 2.103 2.547-.564.912-1.471.973-3.425.23-2.542-.967-2.604-.914-1.417 1.211.683 1.222 1.632 2.507 2.111 2.855.478.348.028 1.116-1 1.707-1.52.873-1.122 1.013 2.13.75 2.2-.177 4.573.131 5.274.686 2.074 1.642 2.573.063 1.423-4.497-3.962-15.71-5.301-22.224-5.053-24.585.155-1.482.005-3.145-.333-3.695-1.213-1.967-2.001-10.263-1.033-10.862.569-.351.009-2.495-1.353-5.187-2.605-5.145-2.22-7.528 2.034-12.584 1.322-1.57 2.712-3.87 3.09-5.111s1.372-3.035 2.209-3.988c1.214-1.383 1.417-3.57 1.003-10.829-.286-5.003-.977-9.554-1.537-10.114-.69-.69-2.33.759-5.099 4.506m-92.324.298c-.895.895-3.455 1.73-5.689 1.856-3.857.218-7.773 2.188-6.627 3.334.293.294-.449 1.58-1.65 2.858C85.252 25.36 85.049 26 86.095 26c2.849 0 12.237-5.614 14.675-8.776 2.667-3.459 2.683-4.248.031-1.596m-44.005 3.666C54.508 21.217 51 26.781 51 28.489c0 .324 2.062-1.942 4.581-5.036 4.94-6.064 5.413-7.686 1.215-4.159M.107 39.05l.107 5.45.975-4.368c.676-3.025.643-4.7-.107-5.45-.776-.776-1.052.459-.975 4.368m33.608-3.324c-.238.426-.384 2.799-.324 5.274l.109 4.5 4.75.305 4.75.305V68h14V46.11l4.75-.305 4.75-.305v-10l-16.176-.274c-8.897-.151-16.371.074-16.609.5m43.27 1.524c-5.924 3.002-8.482 7.541-8.382 14.87.076 5.629 2.919 12.221 5.665 13.136.656.219 2.789-.74 4.741-2.129l3.549-2.527-.029-8.026c-.026-7.068.195-8.069 1.851-8.398 2.448-.485 3.586 1.431 3.605 6.074.017 4.306-.118 4.222 3.651 2.256 1.575-.821 4.327-1.496 6.114-1.5 2.878-.005 3.25-.321 3.246-2.756-.006-4.289-3.569-9.154-8.267-11.286-5.596-2.541-10.338-2.454-15.744.286m32.53 0c-3.036 13.063-3.297 15.796-1.593 16.708.929.497 2.548 2.499 3.597 4.448 2.176 4.041 4.479 5.349 5.67 3.22.625-1.116 2.787-1.416 9.301-1.29 7.117.138 8.417-.078 8.056-1.336-.237-.825-1.419-6.562-2.628-12.75L129.72 35h-9.841c-9.384 0-9.865.105-10.364 2.25m28.517 12.392c.023 10.768.397 15.34 1.36 16.608 1.109 1.461 2.977 1.75 11.32 1.75 8.724 0 10.424-.288 13.39-2.27 9.371-6.26 9.246-22.651-.215-28.225-2.708-1.595-5.644-2.068-14.637-2.358L138 34.784zM175 41.441c0 .793.408 1.693.907 2.001.498.309.671-.34.383-1.441-.611-2.335-1.29-2.63-1.29-.56m-56.011 4.609c-.006 1.348-.29 4.138-.631 6.2-.533 3.224-.356 3.75 1.261 3.751 1.646 0 1.838-.656 1.539-5.25-.35-5.371-2.148-9.268-2.169-4.701m-34.974 6.2c.011 4.404.302 5.807.985 4.75 1.281-1.982 1.281-11 0-11-.562 0-.993 2.74-.985 6.25M152 52c0 6.383.853 7.219 5.066 4.965 1.386-.742 1.934-2.101 1.934-4.8 0-4.316-1.41-6.165-4.7-6.165-2.144 0-2.3.406-2.3 6m-87.518.299c-.364 2.914-.509 6.176-.322 7.25.202 1.158-.168 1.849-.91 1.701-.687-.138-1.25.2-1.25.75s-.45 1-1 1-1-1.35-1-3 .45-3 1-3 1-1.18 1-2.622c0-2.218-.232-2.431-1.5-1.378-1.039.863-1.5 3.156-1.5 7.467 0 5.18.371 6.542 2.211 8.128l2.211 1.905-1.659-2.635C60.066 65.168 60.329 64 62.635 64c.747 0 1.057.64.727 1.5-.317.825-.051 1.5.59 1.5s.919-.399.618-.887c-.798-1.29 2.155-3.432 3.841-2.786 1.247.479 1.248.102.013-2.856C67.641 58.597 67 54.8 67 52.032c0-6.635-1.678-6.457-2.518.267M.116 52c-.039 3.219.209 4.049.872 2.915.547-.935.569-2.782.056-4.5C.239 47.724.168 47.846.116 52M59 50c0 1.1.173 2 .383 2s.619-.9.907-2c.287-1.1.115-2-.384-2-.498 0-.906.9-.906 2m95-1.512c0 .36.724 1.378 1.608 2.263 1.477 1.477 1.579 1.457 1.25-.239-.331-1.708-2.858-3.497-2.858-2.024m-.077 3.191c-.042.451-.227 1.609-.411 2.571-.186.969.268 1.75 1.017 1.75 2.18 0 2.726-1.888 1.035-3.579-.86-.86-1.598-1.194-1.641-.742m-61.614 1.787c-1.755.763-4.469 3.108-6.031 5.211-1.563 2.103-3.502 3.968-4.31 4.145-2.239.491-6.911 5.172-10.102 10.124-3.951 6.129-3.891 11.898.205 19.702 3.866 7.366 5.772 9.424 14.336 15.473 7.99 5.644 7.674 6.597-.43 1.295-7.506-4.911-10.598-8.016-14.135-14.195-2.359-4.12-4.154-5.849-8.182-7.881-2.838-1.431-5.51-3.106-5.939-3.721-.428-.616-.653-3.594-.5-6.619.221-4.346-.036-5.5-1.221-5.5-1.168 0-1.442 1.106-1.238 5 .464 8.856-2.428 9.769-5.922 1.871-2.033-4.596-3.482-5.468-4.534-2.727-.419 1.093.261 2.294 2.032 3.583C50.863 82.524 49.513 89 44.3 89c-1.365 0-2.3.602-2.3 1.481 0 1.172.907 1.356 4.354.884 6.011-.824 10.653 1.551 18.736 9.585 5.914 5.878 10.804 12.339 8.052 10.638-.581-.359-1.728.645-2.549 2.232-1.447 2.799-1.386 2.988 2.044 6.283 1.946 1.868 4.463 4.747 5.594 6.397 1.159 1.69.138.944-2.337-1.707-9.218-9.873-17.539-12.603-21.821-7.158-1.14 1.449-2.073 3.488-2.073 4.532 0 3.121 2.817 8.903 6.565 13.477 4.602 5.617 7.773 12.858 7.103 16.219-1.193 5.974-1.147 6.565.53 6.912 1.418.294 1.748-.609 2-5.462.227-4.366.675-5.813 1.802-5.813 1.074 0 1.648 1.475 2.022 5.189.287 2.853.82 5.486 1.183 5.85 1.315 1.315 2.869-.73 2.184-2.873-.381-1.191-.828-4.641-.994-7.666-.342-6.214-1.83-15.503-2.964-18.5-.416-1.1-1.678-3.35-2.805-5-1.696-2.485-1.741-2.754-.264-1.567 2.079 1.67 5.638 8.301 5.638 10.504 0 2.51 4.042 4.36 12.817 5.865 8.939 1.534 16.017.808 18.238-1.869.655-.788 1.64-1.433 2.19-1.433.558 0 .449.663-.245 1.5-2.304 2.776 3.42 1.747 6.076-1.092 1.333-1.425 3.324-3.069 4.424-3.652 1.1-.582.141.756-2.131 2.976-2.621 2.56-4.753 5.908-5.833 9.161-.937 2.819-2.53 5.569-3.542 6.11-2.852 1.527-5.072 4.062-4.444 5.078.998 1.615 3.294.987 3.95-1.081.678-2.137 2.962-2.679 4.027-.956.355.574-.045 2.098-.889 3.385-1.457 2.225-1.269 3.571.5 3.571.443 0 1.184-1.462 1.647-3.248.488-1.884 1.59-3.393 2.623-3.592 1.524-.294 1.732.271 1.437 3.907-.235 2.89.08 4.395.983 4.701 1.039.353 1.177-.55.636-4.159-.577-3.851-.427-4.609.914-4.609.883 0 2.167.9 2.854 2 1.474 2.361 3.768 2.65 3.768.475 0-.838-1.137-1.957-2.526-2.485s-2.787-1.642-3.107-2.475c-.331-.864-1.931-1.569-3.724-1.64-2.87-.114-2.796-.184.857-.805 4.978-.846 7.595-2.258 12.653-6.827 7.408-6.693 8.59-11.599 3.77-15.654-3.769-3.172-7.941-3.334-15.162-.59-2.894 1.1-5.342 2-5.441 2-.099.001.238-1.459.75-3.242 1.674-5.838 1.337-6.473-3.82-7.196-5.256-.737-14.612-3.532-13.971-4.174.225-.224 2.392.316 4.815 1.2 6.04 2.206 16.521 2.245 20.643.078 4.695-2.47 9.861-7.261 12.384-11.485 1.208-2.024 3.313-4.895 4.676-6.379 2.434-2.649 2.448-2.764.794-6.25-.927-1.953-2.226-3.58-2.888-3.614-.662-.035-.191-.471 1.047-.968 1.238-.498 2.25-1.396 2.25-1.996s-.416-.834-.925-.519-2.082.044-3.497-.6c-5.925-2.7-6.197-19.854-.315-19.854.615 0 .264.626-.782 1.39-1.626 1.189-1.731 1.766-.725 3.973 1.14 2.502 5.648 4.566 7.007 3.208.368-.368 1.2 1.04 1.848 3.13 1.043 3.361 1.191 3.489 1.284 1.114.151-3.857-1.227-6.795-5.187-11.065-4.109-4.431-8.018-4.906-14.245-1.731-4.929 2.513-8.427 1.402-11.388-3.616-3.909-6.625-11.594-9.056-18.766-5.937m2.148 3.397c-1.673 1.021-3.801 3.014-4.729 4.429-1.536 2.344-1.552 2.956-.181 6.841 1.9 5.385 3.816 7.502 8.058 8.902 3.993 1.317 6.364.704 10.4-2.693 2.325-1.956 2.994-3.34 2.991-6.181-.004-4.575-2.982-9.586-6.902-11.612-3.896-2.015-5.926-1.949-9.637.314m3.293.217c-2.356 1.372-2.203 3.42.439 5.881 2.303 2.146 8.223 2.8 9.317 1.03 1.186-1.92-.593-4.804-3.944-6.395-3.91-1.855-3.566-1.824-5.812-.516m-85.878 2.67c-1.243 1.586-1.208 1.621.378.378C13.916 58.821 14.445 58 13.622 58c-.207 0-.995.788-1.75 1.75m165.91 3.38c-.54 5.242.048 7.744 1.342 5.704 1.1-1.736 1.087-6.953-.023-8.704-.591-.933-1.012.024-1.319 3M70 65.786c0 .668.477 1.214 1.059 1.214s.793.43.468.956-1.252.703-2.059.393S68 68.337 68 69.01c0 .742-.809 1.012-2.057.685-1.656-.433-1.835-.27-.918.836.633.762.833 2.34.45 3.546-.462 1.456-.328 1.95.404 1.498.754-.466.837.039.267 1.624-.455 1.266-1.799 2.745-2.987 3.288-2.314 1.058-3.059 3.072-.818 2.213.737-.283 1.975-.113 2.75.377.997.632 1.044.897.159.908-1.804.022-1.536 1.355.533 2.647 1.633 1.02 1.78.636 1.75-4.579-.027-4.614.506-6.506 2.811-9.993 2.602-3.936 2.708-4.436 1.25-5.895C70.552 65.124 70 64.992 70 65.786M87.272 70c0 2.475.195 3.487.434 2.25.238-1.237.238-3.263 0-4.5-.239-1.237-.434-.225-.434 2.25M90 77.5c1.292 1.375 2.574 2.5 2.849 2.5s-.557-1.125-1.849-2.5-2.574-2.5-2.849-2.5.557 1.125 1.849 2.5m-31.333-.833c-1.025 1.025-.79 5.139.333 5.833.55.34 1.006.029 1.014-.691.007-.72.285-2.322.616-3.559.573-2.136-.525-3.021-1.963-1.583m48.205 1.083c-1.243 1.586-1.208 1.621.378.378 1.666-1.307 2.195-2.128 1.372-2.128-.207 0-.995.787-1.75 1.75m-25.635 5.67c.701 2.283 2.18 4.027 4.453 5.25 1.872 1.006 4.025 2.777 4.784 3.934 1.015 1.547 2.858 2.277 6.962 2.76 7.335.862 18.067 4.429 20.107 6.683 1.518 1.678 1.745 1.686 3.555.123 1.063-.919 4.704-2.795 8.091-4.17 10.798-4.383 9.895-4.847-18.689-9.592-10.604-1.761-16.865-3.358-21.362-5.449-8.427-3.919-9.231-3.872-7.901.461M.232 91c0 1.925.206 2.713.457 1.75.252-.963.252-2.537 0-3.5-.251-.963-.457-.175-.457 1.75M60 102.117c0 2.755-.28 3.063-2.413 2.655-1.928-.369-2.505.021-2.872 1.938-.374 1.956-.067 2.369 1.663 2.234 1.167-.091 2.572-.068 3.122.051s2.237.135 3.75.036c3.511-.232 3.589 1.542.105 2.416-2.855.716-2.404 1.515 1.883 3.336 2.539 1.079 2.853.942 4.313-1.882 1.762-3.406 1.677-3.599-4.45-10.151-1.929-2.062-3.866-3.75-4.304-3.75S60 100.402 60 102.117M182 104c.825.533 1.95.969 2.5.969s.325-.436-.5-.969-1.95-.969-2.5-.969-.325.436.5.969m.51 4.016c.346.559 1.047.758 1.559.441 1.387-.857 1.129-1.457-.628-1.457-.857 0-1.276.457-.931 1.016m16.033.915c-.317.512-.118 1.213.441 1.559s1.016-.074 1.016-.931c0-1.757-.6-2.015-1.457-.628m-145.876 3.736c-.367.366-.667 1.131-.667 1.7 0 .626.466.567 1.183-.15.651-.651.951-1.416.667-1.7s-.817-.217-1.183.15M196 117c0 .55-.675 1-1.5 1q-1.5 0-1.5 3c0 3.761 1.967 3.996 2.09.25.086-2.605.149-2.566 1.2.75l1.11 3.5.418-3c.368-2.637.517-2.758 1.23-1 .731 1.803.818 1.749.882-.55.068-2.473-1.499-4.95-3.13-4.95-.44 0-.8.45-.8 1m-149 3c0 .55.638 1 1.417 1s1.643.563 1.921 1.25c.277.688.54.237.583-1 .057-1.61-.49-2.25-1.921-2.25-1.1 0-2 .45-2 1m143.211 1.399c.709.77 1.447 1.25 1.639 1.067.593-.564-.91-2.466-1.948-2.466-.54 0-.401.63.309 1.399m-141.473 6.293c-2.239.584-1.252 2.308 1.321 2.308 1.068 0 1.941.42 1.941.934 0 .513-1.096.735-2.436.492s-2.685-.04-2.988.452c-.842 1.361 4.273 2.009 5.376.68.989-1.192.319-5.65-.819-5.442-.348.064-1.426.323-2.395.576m5.262 6.19c0 .55.45 1.278 1 1.618s1 .168 1-.382-.45-1.278-1-1.618-1-.168-1 .382m-.863 4.012c-1.151.729-1.151.949 0 1.409.926.37 1.022.81.301 1.371-.742.578-.699 1.533.144 3.178 1.058 2.068 1.316 2.153 2.126.705.759-1.356 1.422-1.458 3.746-.575 1.553.591 2.973.925 3.155.742.182-.182-.852-1.995-2.298-4.028-2.619-3.68-4.579-4.446-7.174-2.802m-26.647 1.122c-.334.541.454.984 1.751.984s2.899.54 3.559 1.2c.933.933 1.2.933 1.2 0 0-.66.009-1.534.02-1.943.03-1.141-5.84-1.357-6.53-.241m147.382 2.734c-1.243 1.586-1.208 1.621.378.378 1.666-1.307 2.195-2.128 1.372-2.128-.207 0-.995.787-1.75 1.75M60.75 147.368c-2.814 1.042-3.444 2.085-1.854 3.068.962.594 5.939-2.989 5.104-3.675-.275-.227-1.737.047-3.25.607m.646 3.968c-1.592 1.369-2.415 2.825-1.987 3.517.972 1.572 2.282.646 4.124-2.916 1.834-3.548 1.423-3.663-2.137-.601M70.272 153c0 2.475.195 3.488.434 2.25.238-1.238.238-3.262 0-4.5-.239-1.238-.434-.225-.434 2.25m2.228 11c.34.55.816 1 1.059 1s.441-.45.441-1-.477-1-1.059-1-.781.45-.441 1m-.628 6.75c-1.243 1.586-1.208 1.621.378.378.963-.755 1.75-1.543 1.75-1.75 0-.823-.821-.294-2.128 1.372M48.5 172c-.34.55.11 1 1 1s1.34-.45 1-1-.79-1-1-1-.66.45-1 1"/></svg>