<svg xmlns="http://www.w3.org/2000/svg" width="64" height="64" fill="#000000"><g clip-path="url(#a)"><path fill="#000000" d="M32-2c18.778 0 34 15.222 34 34S50.778 66 32 66-2 50.778-2 32 13.222-2 32-2Z"/><path fill="#000000" d="M21.107 27.355h21.795c-.03.429-.058.854-.092 1.28-.047.588-.1 1.175-.152 1.764-.061.688-.125 1.374-.188 2.06l-.21 2.29-.188 2.062c-.056.618-.113 1.235-.171 1.853l-.187 2.051c-.055.608-.11 1.216-.169 1.823a.24.24 0 0 1-.079.139c-1.032.914-2.066 1.827-3.1 2.74l-4.177 3.687-2.1 1.854c-.065.058-.116.056-.18-.001l-4.678-4.13c-1.57-1.386-3.14-2.771-4.707-4.158a.233.233 0 0 1-.07-.141c-.08-.834-.157-1.666-.233-2.5-.07-.76-.137-1.52-.206-2.28l-.213-2.29c-.07-.757-.137-1.513-.206-2.271-.07-.757-.143-1.513-.21-2.27-.078-.912-.152-1.822-.226-2.732-.02-.235-.035-.472-.053-.708-.002-.039 0-.078 0-.122Zm8.79 18.164V30.773h-5.835c.015.172.03.338.043.502.056.654.11 1.309.167 1.963l.15 1.734c.058.664.114 1.329.171 1.993l.168 1.942c.056.661.112 1.322.172 1.982a.256.256 0 0 0 .076.15c1.427 1.31 2.855 2.618 4.284 3.927l.603.553Zm4.38-14.747v14.581c.034-.026.057-.044.078-.064 1.551-1.42 3.102-2.842 4.65-4.265a.236.236 0 0 0 .062-.136c.033-.345.061-.69.09-1.035l.17-1.953.187-2.191c.056-.658.115-1.316.171-1.973l.171-2.002.083-.961c-1.89-.002-3.772-.002-5.661-.002ZM44.002 17h-.122c-1.014.004-2.029.008-3.043.014-.232 0-.465.006-.696.005-.066 0-.088.019-.102.086-.155.797-.316 1.593-.473 2.39l-.162.803c-.031.003-.054.006-.077.006l-4.536.001c-.068 0-.088-.025-.1-.089-.157-.8-.317-1.6-.477-2.399-.052-.264-.105-.527-.159-.791H30.12c-.008.03-.018.056-.022.082a845.302 845.302 0 0 0-.614 3.094c-.017.087-.052.103-.13.102-.776-.003-1.552-.002-2.327-.002-.534 0-1.068 0-1.602.002-.06 0-.093-.008-.107-.08-.168-.864-.34-1.724-.512-2.586l-.122-.61h-4.682l.846 8.649h22.3c.283-2.888.566-5.777.853-8.677Z"/></g><defs><clipPath id="a"><path fill="#000000" d="M0 32C0 14.327 14.327 0 32 0c17.673 0 32 14.327 32 32 0 17.673-14.327 32-32 32C14.327 64 0 49.673 0 32Z"/></clipPath></defs></svg>