<svg xmlns="http://www.w3.org/2000/svg" width="24" height="24" fill="#000000"><g clip-path="url(#a)"><path fill="#a6a6a6" fill-rule="evenodd" d="M7.681.719C.974 3.533-1.883 10.988 1.303 17.358c6.43 12.852 25.611 5.445 22.105-8.536-.434-1.731-.431-1.927.041-2.647.28-.428.441-.846.358-.929-.116-.116-4.878 1.796-5.246 2.107-.043.036.214.726.572 1.534 2.272 5.124-1.47 10.87-7.095 10.89-8.329.03-10.62-11.515-2.977-15 1.014-.462 2.017-.546 6.57-.552 5.375-.006 5.375-.006 4.23-1.18C17.123.244 11.413-.846 7.68.72ZM14 10.54c-2.609 1.836-3.012 2.364-2.383 3.122 1.366 1.646 5.376-1.537 5.376-4.269 0-.93-.09-.896-2.993 1.147Zm-7.783-.33c0 2.234 1.671 4.013 3.14 3.343 1.055-.48.969-.713-.922-2.508-2.07-1.964-2.218-2.02-2.218-.835Z" clip-rule="evenodd"/></g><defs><clipPath id="a"><path fill="#ffffff" d="M0 0h24v24H0z"/></clipPath></defs></svg>