<svg xmlns="http://www.w3.org/2000/svg" width="24" height="24" fill="#000000"><rect width="24" height="24" fill="#292929" rx="12"/><path fill="#ffffff" fill-rule="evenodd" d="M11.162 7.333v-1.04A.293.293 0 0 0 10.865 6h-.032l-5.003.878a.313.313 0 0 0-.23.293v1.268c0 .163.131.293.296.293h.033l4.805-.846a.371.371 0 0 1 .428.293v1.105c0 .163.131.293.296.293h.033l6.845-1.203a.338.338 0 0 0 .136-.066.248.248 0 0 0 .095-.194V6.845a.293.293 0 0 0-.297-.292h-.032l-6.616 1.17a.371.371 0 0 1-.428-.324c-.032-.033-.032-.033-.032-.066Zm-.33 2.342-5.002.878a.313.313 0 0 0-.23.293v1.268c0 .163.131.293.296.293h.033l3.06-.52c.165-.033.297.097.33.26v5.56c0 .163.131.293.296.293h1.25c.165 0 .297-.13.297-.293v-7.674c0-.228-.132-.358-.33-.358Zm2.436 1.43 5.002-.877s.033 0 .033-.033c.165-.032.297.097.297.26v1.268c0 .163-.1.26-.23.293l-3.26.586a.313.313 0 0 0-.23.292v4.78a.293.293 0 0 1-.296.294h-1.25a.293.293 0 0 1-.296-.293v-6.277c0-.162.098-.26.23-.293Z" clip-rule="evenodd"/></svg>