<svg xmlns="http://www.w3.org/2000/svg" width="200" height="200" fill="#000000"><path fill-opacity=".027" fill-rule="evenodd" d="M0 100.005V200.01l100.25-.255 100.25-.255.255-99.75L201.01 0H0zm.481.495c0 55 .121 77.647.269 50.326.148-27.32.148-72.32 0-100C.602 23.147.481 45.5.481 100.5m73.92-59.697c-.576.383-1.352 1.522-1.724 2.53-.373 1.008-1.24 1.621-1.928 1.362-1.5-.567-15.907 7.006-17.06 8.967-.447.759-1.234 1.119-1.75.8-.517-.319-.939-.103-.939.479S50.357 56 49.571 56c-.785 0-2.034.563-2.773 1.25s-1.93 1.373-2.643 1.524c-2.356.497-6.148 3.428-5.594 4.324.298.483-.155.611-1.009.284-1.349-.518-1.562 1.023-1.629 11.761-.042 6.796-.228 13.155-.414 14.13-.237 1.239.916 2.409 3.826 3.884 2.291 1.162 4.39 2.389 4.665 2.727 1.107 1.363 5.236 3.214 5.834 2.616.351-.352.529-5.221.394-10.82-.363-15.161.046-16.235 7.785-20.399 3.568-1.92 9.054-5.233 12.192-7.363s5.943-3.487 6.235-3.016c.291.471 1.436 1.094 2.546 1.384s1.765.119 1.456-.379c-.308-.499-.083-.907.499-.907S82 57.9 82 59s.45 2.056 1 2.125l2.25.283c.688.088 1.63-.306 2.094-.875.497-.608.609-.302.272.743-.816 2.528 6.013 5.909 7.446 3.687.712-1.104.882-.849.691 1.037-.207 2.048.138 2.446 1.908 2.202 1.189-.164 2.496.243 2.905.905.502.812.319.94-.566.393-.807-.499-1.066-.416-.676.215.348.564 1.993 1.588 3.655 2.276S106 73.586 106 74.005c0 .699 3.238 2.127 5.412 2.386.501.06 2.286 1.393 3.966 2.962 1.687 1.576 3.218 2.359 3.421 1.75.562-1.687 3.201-1.311 3.201.456 0 .857.412 1.305.915.994s1.093-.028 1.312.628c.258.774 1.168.424 2.586-.993 1.203-1.204 2.409-2.194 2.681-2.201.271-.007 2.08-.77 4.018-1.694 3.495-1.667 4.09-3.259 1.536-4.11-.863-.288-1.077.039-.613.937.392.759-.042.48-.964-.62-1.659-1.978-1.67-1.975-1.007.25 1.008 3.381-.409 2.707-1.621-.771-1.223-3.507-4.673-5.872-5.831-3.998q-.734 1.19-1.28-.896c-.299-1.147-1.239-2.085-2.087-2.085s-2.726-1.097-4.173-2.438c-1.567-1.453-3.271-2.192-4.215-1.83-.978.375-1.333.2-.927-.457.889-1.438-1.82-2.385-3.115-1.09-.705.705-.979.444-.872-.828.114-1.349-.474-1.823-2.152-1.732-1.577.085-2.142-.311-1.781-1.25.29-.756.091-1.431-.441-1.5l-1.937-.25c-.532-.069-1.887-.913-3.011-1.875S96.345 52 95.572 52s-1.595-.562-1.826-1.25c-.33-.981-.77-.962-2.043.089-1.411 1.164-1.572 1.078-1.237-.66.278-1.447-.285-2.168-2.041-2.608C87.091 47.236 86 46.52 86 45.981a.98.98 0 0 0-.969-.981c-.532 0-.709.675-.393 1.5.317.825.176 1.5-.312 1.5s-1.397-1.35-2.02-3c-.98-2.597-2.153-3.288-4.944-2.915-.351.047-.926-.379-1.277-.947s-1.109-.719-1.684-.335m51.414.447c-.861.688-2.059 2.15-2.66 3.25-.602 1.1-1.108 1.438-1.125.75s-.403-1.25-.859-1.25c-.457 0-.794.967-.75 2.149.043 1.182-.596 2.341-1.421 2.576-1.31.373-1.314.298-.029-.594 1.965-1.365.976-2.192-1.765-1.475-3.225.844-2.733 1.951 2.132 4.802 4.737 2.776 6.167 3.168 5.067 1.387-.456-.737-.273-.882.507-.399.672.415.985.99.697 1.278s1.078 1.61 3.035 2.938c2.978 2.021 3.818 2.205 5.149 1.127 1.209-.979 1.41-.989.84-.039-.422.702-.261 1.25.367 1.25.615 0 .84.45.5 1-.348.562.451 1 1.824 1 1.649 0 2.623.69 2.998 2.124.447 1.708 1.056 1.998 3.117 1.481 1.562-.392 2.561-.223 2.561.435 0 .593-.562.763-1.25.378s-.485.112.449 1.105c.935.992 2.735 1.897 4 2.011 1.452.131 2.136.717 1.854 1.587-.245.758-.623 3.976-.84 7.15-.34 5-.748 5.972-3.053 7.28a135 135 0 0 0-5.66 3.457c-1.65 1.072-4.659 2.67-6.687 3.553-2.447 1.066-3.502 2.086-3.138 3.034q.547 1.427-.913.867c-1.286-.493-12.452 4.8-13.762 6.526-.275.362-1.319.96-2.319 1.33-1.324.489-1.646 1.286-1.184 2.927.445 1.583.352 1.848-.313.888-1.334-1.927-8.33.323-7.525 2.421.303.789 1.023 1.143 1.6.786.64-.395.75-.164.283.593-.553.894-1.072.937-1.855.154-.598-.598-1.785-1.08-2.637-1.072-1.086.011-1.193.242-.359.773.657.418-.55.757-2.691.757s-3.348-.339-2.691-.757c.763-.485.455-.763-.859-.773-1.127-.008-2.702.547-3.5 1.235-1.217 1.049-1.249 1.017-.2-.2 1.242-1.441 1.814-3.948.631-2.764-.341.34-1.273-.035-2.071-.834-2.69-2.689-3.31-1.486-3.31 6.426 0 6.181.363 8.173 1.687 9.25 1.499 1.219 1.605 1.148.949-.628-.463-1.255.305-.773 2.063 1.294 2.059 2.421 3.791 3.385 6.542 3.64 2.058.19 3.494-.054 3.191-.544-.302-.489.178-.89 1.068-.89s1.366-.408 1.058-.907c-.309-.498.301-.681 1.355-.406 1.254.329 2.296-.209 3.017-1.556.655-1.225 1.701-1.826 2.585-1.487.817.314 1.485.124 1.485-.42 0-.545.945-1.238 2.101-1.54 1.155-.302 1.823-.999 1.483-1.548s-.09-1.323.554-1.721c.731-.452.903-.291.457.43-1.046 1.693.156 1.423 4.478-1.006 2.115-1.189 3.569-2.609 3.232-3.155-.339-.548-.11-.682.511-.298 1.312.811 7.184-1.977 7.184-3.412 0-.536.675-.974 1.5-.974s1.5-.45 1.5-1 .338-.947.75-.882c2.039.322 3.299-.229 2.709-1.185-.365-.59-.055-.928.694-.756.744.171 2.702-.649 4.35-1.823s3.447-2.21 3.997-2.303.947-.759.882-1.481c-.07-.793.595-1.127 1.682-.843.989.259 2.94-.362 4.336-1.378 2.575-1.877 3.64-4.054 1.35-2.761-.79.446-.744.191.125-.691 1.041-1.058 1.484-1.1 1.825-.173.336.914 1.063.822 2.875-.365C163.955 90.8 164 90.503 164 76.467c0-14.361-.444-17.929-2.105-16.902-.492.304-.895.116-.895-.417 0-.534-.787-.851-1.75-.704-.963.146-3.056-1.002-4.653-2.553s-3.283-2.585-3.746-2.299-1.996-.725-3.407-2.247c-1.985-2.142-2.753-2.464-3.395-1.424-.641 1.037-.974.891-1.459-.637-.346-1.089-1.766-2.499-3.156-3.132-3.179-1.449-3.735-1.448-2.839.003.446.721.274.882-.457.43-.644-.398-.916-1.135-.605-1.639.577-.933-5.167-4.935-7.092-4.942-.582-.002-1.764.559-2.626 1.246M127 42.938c0 .516.9.87 2 .787s2-.505 2-.938-.9-.787-2-.787-2 .422-2 .938M48.603 57.833c-.283.459.12.834.897.834s1.18-.375.897-.834S49.71 57 49.5 57s-.614.375-.897.833m24.968 14.738c-.864.865-1.571 1.308-1.571.986 0-.732-8.234 4.559-9.235 5.934-.88 1.209-1.029 55.658-.158 57.927.334.87 1.035 1.582 1.559 1.582s.674-.45.334-1c-.908-1.469.425-1.218 2.024.381.759.759 1.102 1.659.762 2s.34.619 1.512.619 2.594.863 3.158 1.919c.565 1.055 2.344 2.208 3.952 2.561s3.184 1.318 3.501 2.144 1.03 1.223 1.584.88c.554-.342 1.007-.145 1.007.437S82.927 150 84.059 150s1.801.418 1.485.928c-.739 1.197 3.075 2.426 4.602 1.482.697-.431.894-.284.492.366-.369.597-.21 1.37.353 1.718s1.264.004 1.559-.764 1.251-1.397 2.125-1.397c1.377 0 1.358.17-.143 1.267-2.176 1.591-1.196 3.386 1.469 2.689 1.162-.303 1.999-.03 1.999.653 0 .658-.551.859-1.25.457-.726-.418-.901-.338-.417.191.459.5 1.134.917 1.5.925s1.23.373 1.917.809c.728.463 1.25.327 1.25-.324 0-.615.403-.869.895-.565.493.305 1.153-.119 1.469-.941.315-.822 1.487-1.494 2.605-1.494s2.031-.45 2.031-1 .675-1 1.5-1 1.5-.45 1.5-1 .563-.887 1.25-.75c.688.138 1.256-.506 1.263-1.429.007-.924.416-2.049.91-2.5.508-.465.604-.308.221.36-1.064 1.857 1.03 2.503 2.7.832.828-.828 2.552-1.976 3.831-2.552 3.684-1.659 6.896-3.623 8.159-4.992.895-.969.876-1.098-.084-.557-.687.388-1.25.199-1.25-.42 0-.672.808-.87 2-.492 1.1.349 2 .185 2-.365s1.012-1.316 2.25-1.702c3.185-.994 3.719-2.206 3.719-8.433 0-7.533-.828-8.642-4.888-6.542-1.751.906-3.433 2.295-3.737 3.089-.305.793-.888 1.235-1.297.982s-1.814.537-3.122 1.756-2.501 2.102-2.652 1.965c-.15-.137-.934-.25-1.742-.25-.981 0-1.251.58-.812 1.75.594 1.586.482 1.61-1.205.25-1.73-1.394-1.817-1.331-1.243.894.463 1.797.332 2.109-.527 1.25-1.476-1.476-3.074-1.487-2.164-.014.423.684.154.948-.682.669-1.597-.532-3.891 1.449-3.913 3.38-.011.917-.24.977-.75.197-.916-1.401-5.055-.009-5.807 1.952-.337.877-1.47 1.195-3.127.879-1.993-.381-2.43-.172-1.875.898.397.767.044.562-.785-.455s-1.983-1.557-2.563-1.198c-.663.41-.81.014-.397-1.064.423-1.102.271-1.476-.426-1.046-.596.369-1.289.105-1.539-.586-.359-.992-.956-.968-2.835.112-1.862 1.069-2.108 1.08-1.131.05.688-.725 1.25-1.606 1.25-1.957 0-.775-5.195-3.381-6.25-3.136-.412.096-.75-.323-.75-.932s-.675-.848-1.5-.531c-.972.373-1.505-.029-1.515-1.143-.013-1.414-.176-1.465-.921-.288-1.488 2.351-2.037-3.717-2.311-25.555-.165-13.089.097-20.003.747-19.778 1.348.466 4.829-2.255 4.198-3.281-.276-.45.838-.867 2.475-.927s3.73-.901 4.652-1.867c1.582-1.659 1.551-1.693-.552-.617-1.867.955-2.133.893-1.644-.383.322-.838.119-1.523-.451-1.523-.569 0-1.63-.568-2.357-1.263C81.848 73.851 77.205 71 76.107 71c-.53 0-1.671.707-2.536 1.571m.429.807c0 .207.6.875 1.333 1.484 1.01.837 1.334.746 1.334-.378 0-.816-.6-1.484-1.334-1.484-.733 0-1.333.17-1.333.378M145.5 87c-.34.55-.168 1 .382 1s1.278-.45 1.618-1 .168-1-.382-1-1.278.45-1.618 1m-3.936 3.293c.376.986.935 1.541 1.243 1.233s.001-1.114-.683-1.793c-.988-.98-1.102-.865-.56.56M133 93.902c0 1.038 1.902 2.541 2.466 1.948.183-.192-.297-.93-1.067-1.639-.769-.71-1.399-.849-1.399-.309m7 6.476c0 .207.787.995 1.75 1.75 1.586 1.243 1.621 1.208.378-.378-1.307-1.666-2.128-2.195-2.128-1.372m-19.457 12.553c-.317.512-.193 1.167.274 1.456s.85-.13.85-.931c0-1.686-.316-1.833-1.124-.525m10.124 12.736c-.367.366-.667 1.131-.667 1.7 0 .626.466.567 1.183-.15.651-.651.951-1.416.667-1.7s-.817-.217-1.183.15m-24.208 16.4c-.363.586-.445 1.281-.183 1.543s.743-.218 1.069-1.067c.676-1.762.1-2.072-.886-.476"/><path fill-opacity=".484" fill-rule="evenodd" d="M0 100.005V200.01l100.25-.255 100.25-.255.255-99.75L201.01 0H0zm.481.495c0 55 .121 77.647.269 50.326.148-27.32.148-72.32 0-100C.602 23.147.481 45.5.481 100.5m120.586-56.703-7.199 4.505 18.047 10.599L149.963 69.5l.013 6.5.012 6.5-24.134 14c-13.274 7.7-24.708 14.138-25.409 14.307-.7.169-3.787-1.112-6.859-2.846L88 104.809l.012 8.846.012 8.845 5.981 3.285 5.982 3.286 31.99-18.786L163.968 91.5l.016-15.626.016-15.626-17.867-10.478-17.867-10.479zM55.29 51.764 35.081 63.5l-.041 13.726L35 90.951l7.75 4.539 7.75 4.54.5-14.204.5-14.203 12.274-7.39 12.274-7.39 23.763 13.882 23.763 13.882 6.684-4.053c3.676-2.23 6.697-4.325 6.713-4.656.027-.565-60.1-35.914-61.037-35.884-.239.008-9.528 5.295-20.644 11.75M68.5 74.903l-6 3.762-.265 29.574-.264 29.574 19.005 11.147 19.005 11.146 18.98-11.303L137.94 137.5l.03-8.25c.017-4.537-.162-8.25-.396-8.25s-8.55 4.725-18.48 10.5-18.561 10.5-19.18 10.5-6.028-2.954-12.02-6.564L77 128.872l.001-21.186.002-21.186L83.5 83c3.574-1.925 6.489-3.725 6.48-4-.031-.865-12.781-8.003-14.163-7.93-.724.039-4.017 1.764-7.317 3.833"/><path fill-opacity=".5" fill-rule="evenodd" d="M0 100.005V200.01l100.25-.255 100.25-.255.255-99.75L201.01 0H0zm.481.495c0 55 .121 77.647.269 50.326.148-27.32.148-72.32 0-100C.602 23.147.481 45.5.481 100.5M121.07 43.795l-7.196 4.503 17.605 10.427 17.606 10.427-.293 7.028-.292 7.028-23.815 13.896C111.587 104.747 100.443 111 99.92 111s-3.418-1.393-6.435-3.095L88 104.809l.012 8.846.012 8.845 6 3.296 6.001 3.296 31.986-18.796L163.996 91.5l.002-15.655.002-15.654-17.867-10.45-17.868-10.449zm-65.82 7.972L34.999 63.5l.251 13.919.25 13.92 7.335 4.33c4.034 2.382 7.51 4.331 7.723 4.331s.512-6.384.665-14.188l.277-14.187 12.278-7.394 12.279-7.393L99.769 70.74l23.713 13.903 6.759-4.066c3.717-2.237 6.759-4.352 6.759-4.701 0-.586-60.152-35.897-61.084-35.859-.229.01-9.529 5.297-20.666 11.75M68.5 74.903l-6 3.763v59.535l18.73 10.932 18.729 10.931 19.019-11.282 19.018-11.282.002-8.25c.001-4.537-.243-8.25-.542-8.25s-8.605 4.725-18.456 10.5S100.56 142 99.913 142s-6.066-2.981-12.044-6.625L77 128.751l.001-21.126.002-21.125L83.5 83c3.574-1.925 6.489-3.725 6.48-4-.031-.865-12.781-8.003-14.163-7.93-.724.039-4.017 1.764-7.317 3.833"/><path fill-opacity=".11" fill-rule="evenodd" d="M0 100.005V200.01l100.25-.255 100.25-.255.255-99.75L201.01 0H0zm.481.495c0 55 .121 77.647.269 50.326.148-27.32.148-72.32 0-100C.602 23.147.481 45.5.481 100.5m124.106-58.865c-2.081 1.414-4.327 2.651-4.991 2.748s-2.263 1.161-3.553 2.363-2.797 1.906-3.349 1.565c-.553-.342-.695-.122-.316.491.377.611 1.42.829 2.318.484q1.627-.622.916.533c-.45.728-.199.96.676.624.765-.294 1.969.161 2.674 1.011.706.851 1.855 1.546 2.553 1.546.699 0 1.541.704 1.871 1.563.33.86 1.037 1.294 1.57.964s1.812.204 2.841 1.187c1.028.982 2.507 1.931 3.286 2.107.78.177 1.867.806 2.417 1.397.699.752.549.823-.5.237-1.306-.73-1.317-.614-.088.9.789.972 1.674 1.315 2.007.776 1.002-1.622 11.082 5.08 11.78 7.833.518 2.039.73 2.164 1.234.726.335-.955.552 1.486.481 5.425l-.128 7.162-3.893 2.356c-2.141 1.296-4.695 2.359-5.674 2.362s-2.04.677-2.355 1.499c-.316.822-.984 1.241-1.485.931s-.61-1.052-.241-1.649c.391-.632.208-.799-.44-.398-.611.377-.869 1.316-.573 2.086.61 1.59-5.073 4.995-6.679 4.003-.548-.339-.872-.02-.721.709.156.751-.511 1.259-1.542 1.174-.999-.083-1.568.098-1.265.401.809.809-2.631 3.18-4.668 3.217-.963.018-1.75.406-1.75.863 0 1.354-5.132 3.693-7.402 3.374-1.712-.24-1.822-.105-.598.735 1.011.694 1.093 1.034.25 1.045-.687.008-1.395-.097-1.571-.235-.177-.138-1.113.542-2.081 1.509-.968.968-2.184 1.497-2.703 1.176-.52-.321-.821.012-.67.741.36 1.733-4.87 1.411-7.096-.438-.896-.743-2.866-1.879-4.379-2.523L88 105.043v8.978c0 4.939.413 8.979.917 8.979s1.368 1.237 1.921 2.75c.633 1.733 1.033 2.103 1.083 1 .043-.963.417-1.736.829-1.718 1.706.072 3.925 2.586 3.69 4.18-.248 1.689 3.126 3.555 4.302 2.379.325-.325-.159-.591-1.075-.591-.917 0-1.667-.702-1.667-1.559s.429-1.294.954-.969c1.376.85 6.136-.518 5.482-1.576-.303-.489.663-.429 2.146.135s2.951.77 3.263.457c.312-.312-.441-.831-1.673-1.153-2.224-.582-2.221-.597.408-1.961 3.029-1.571 4.664-1.824 2.42-.374-1.139.736-1.177.973-.156.985.739.008 1.577-.88 1.863-1.974s.919-1.742 1.407-1.441c.487.302.886.071.886-.511s.482-1.059 1.071-1.059c.59 0 1.747-.675 2.572-1.5 1.638-1.638 3.826-2.068 2.9-.569-.317.512-.142 1.199.388 1.527.537.331.792-.301.575-1.427-.243-1.261.342-2.414 1.552-3.062 1.373-.735 1.942-.719 1.942.055 0 .602.457.811 1.016.466s.71-1.124.336-1.729c-.438-.708-.087-.873.984-.462 1.104.424 1.664.125 1.664-.889 0-.841.45-1.25 1-.91s1 .151 1-.421c0-1.544 7.768-5.263 8.505-4.072.813 1.316 2.495 1.272 2.495-.066 0-.582-.45-.781-1-.441s-1 .193-1-.326c0-1.519 4.814-4.284 5.507-3.163.336.544 1.09.989 1.674.989.741 0 .735-.397-.021-1.307-.827-.997-.382-1.721 1.878-3.056 1.629-.963 2.962-1.43 2.962-1.039 0 .392.922-.122 2.048-1.141s2.655-1.943 3.396-2.052 2.295-1.144 3.452-2.301c1.958-1.958 2.104-3.182 2.104-17.635 0-12.857-.257-15.631-1.494-16.105-.822-.316-1.203-1.046-.846-1.623.371-.6.171-.755-.465-.362-1.392.861-5.195-1.423-5.195-3.12 0-.692-.477-1.259-1.059-1.259s-.76.483-.395 1.074c.366.593-.251.503-1.377-.2-1.122-.701-1.77-1.711-1.44-2.244.338-.548-.082-.709-.965-.37-1.602.615-7.571-3.164-8.983-5.687-.43-.769-1.638-1.162-2.709-.882-1.236.324-2.382-.214-3.18-1.493-.724-1.158-1.873-1.759-2.734-1.428-1.043.4-1.242.175-.668-.755.556-.898.434-1.086-.379-.583-.659.407-1.77.266-2.469-.314-.927-.77-2.294-.36-5.055 1.517m-55.885.032c.282.733.641 1.333.798 1.333s.516-.6.798-1.333c.281-.734-.078-1.334-.798-1.334s-1.079.6-.798 1.334m2.546.895c-2.338 1.405-4.771 2.233-5.404 1.841-.714-.441-.881-.272-.439.442.427.693.06 1.155-.917 1.155-.897 0-2.31.679-3.14 1.509s-1.934 1.247-2.453.926c-.52-.321-.88-.213-.801.241.351 2.021-.207 2.697-1.094 1.324-.828-1.282-.972-1.246-.985.25C56.006 51.328 55.232 52 54 52c-1.1 0-2 .438-2 .974 0 1.351-5.567 4.108-6.534 3.236-.432-.39-.463-.147-.067.54.395.688.242 1.25-.34 1.25-1.78 0-2.572-.46-2.284-1.324.151-.454-.167-.552-.707-.218-.539.333-.749 1.209-.467 1.945.435 1.134-1.339 2.563-3.147 2.534-.289-.005-1.16.626-1.936 1.402-1.047 1.047-1.488 5.025-1.714 15.455-.167 7.725-.136 13.876.07 13.668.206-.207 1.253.616 2.326 1.831s1.67 1.65 1.324.968c-.413-.814-.098-1.035.918-.645.851.327 1.25 1.073.888 1.659-.413.668-.038.827 1.006.426 1.087-.417 1.664-.129 1.664.83 0 .808-.405 1.357-.9 1.219-.833-.231-1.1.232-1.1 1.905 0 .36.868-.13 1.928-1.09 1.923-1.74 4.732-1.225 5.101.935.094.55.576.887 1.071.75 1.265-.351 1.12 1.13-.244 2.494-.859.859-.672 1.021.75.65 1.757-.459 1.894-1.628 1.894-16.194 0-15.417.039-15.699 2.149-15.631 1.502.047 1.978-.378 1.58-1.414-.34-.888-.145-1.221.488-.83.581.359 1.629-.038 2.33-.882.7-.843 1.871-1.305 2.601-1.024.731.28 1.221.019 1.09-.581-.131-.599 3.081-3.125 7.138-5.613 6.474-3.971 7.49-4.323 8.3-2.875.508.908 1.769 1.65 2.802 1.65s2.586.707 3.451 1.571c.864.865 1.571 1.283 1.571.929 0-1.283 2.797 2.192 3.276 4.071.418 1.639.509 1.666.608.179.166-2.504 1.298-2.174 4.308 1.256 1.555 1.771 2.801 2.515 3.035 1.812.608-1.824 4.531 1.301 4.222 3.363-.138.924.328 1.903 1.036 2.175.869.333 1.123-.141.779-1.455-.497-1.9-.431-1.904 2.607-.175 1.714.976 3.119 2.138 3.123 2.583.003.445.456.531 1.006.191s1 .11 1 1 .45 1.34 1 1 1-.122 1 .485c0 .606.563.984 1.25.84 1.893-.399 6.74 3.183 6.82 5.04.056 1.287.232 1.223.828-.299.526-1.342.983-1.568 1.495-.739.556.9 1.27.822 2.895-.316 2.31-1.618 4.142-2.015 3.344-.725-.267.432.382.785 1.441.785s1.927-.353 1.927-.785-.505-.786-1.122-.786c-.776 0-.738-.464.122-1.5.685-.825 1.865-1.5 2.622-1.5.758 0 1.378-.477 1.378-1.059s.403-.81.895-.506c.493.305 1.193-.223 1.557-1.172.365-.949.184-1.884-.401-2.079s-.809-.766-.498-1.269.088-.915-.494-.915-1.059.481-1.059 1.068-1.307.138-2.904-1c-1.598-1.137-3.424-2.068-4.059-2.068s-.858-.48-.496-1.067c.365-.59.055-.928-.694-.756-2.423.557-9.109-4.066-8.617-5.957.346-1.327-.235-1.746-2.538-1.834l-2.986-.114 2.397 1.329c1.318.73 2.027 1.344 1.575 1.364-1.9.081-9.627-5.239-9.024-6.215.369-.596.183-.767-.425-.392-1.371.848-6.345-1.362-5.639-2.504.291-.47-.298-.854-1.308-.854-2.318 0-6.487-2.859-5.797-3.975.285-.461-.453-.585-1.64-.274-1.538.402-1.941.213-1.401-.66.511-.827.155-1.122-1.094-.908-1.068.183-1.744-.211-1.6-.933.138-.688-.087-1.176-.5-1.086-1.388.304-6.25-1.373-6.25-2.156 0-.426-.787-1.001-1.75-1.278A40 40 0 0 1 77 40.618c-.825-.335-3.413.54-5.752 1.944m51.565-1.879c.721.289 1.584.253 1.916-.079s-.258-.568-1.312-.525c-1.165.048-1.402.285-.604.604m-10.354 4.384c-.363.586-.445 1.281-.183 1.543s.743-.218 1.069-1.067c.676-1.762.1-2.072-.886-.476M96.566 49.69c-.409 1.064-.095 1.128 1.457.298 2.355-1.261 2.479-1.655.52-1.655-.801 0-1.691.611-1.977 1.357M147.5 49c.34.55.816 1 1.059 1s.441-.45.441-1-.477-1-1.059-1-.781.45-.441 1m-99 4c-.34.55-.168 1 .382 1s1.278-.45 1.618-1 .168-1-.382-1-1.278.45-1.618 1m61 4c.34.55.816 1 1.059 1s.441-.45.441-1-.477-1-1.059-1-.781.45-.441 1m-76.957 3.931c-.317.512-.193 1.167.274 1.456s.85-.13.85-.931c0-1.686-.316-1.833-1.124-.525M80 62.969c0 .532.675.709 1.5.393.825-.317 1.5-.753 1.5-.969S82.325 62 81.5 62s-1.5.436-1.5.969m-6.115 5.781a54 54 0 0 0-.25 2.019C73.491 72.124 65 77.627 65 76.366c0-.412-.708.125-1.574 1.193-.866 1.067-1.289 1.379-.941.691.348-.687.269-1.25-.176-1.25s-.809 13.689-.809 30.42v30.42l5.247 2.83c2.885 1.556 5.248 3.119 5.25 3.472s1.143.927 2.537 1.277 3.039 1.745 3.657 3.101c.815 1.788 1.459 2.185 2.349 1.447.869-.722 1.404-.555 1.836.571.336.874 1.063 1.309 1.617.966s1.043.192 1.086 1.187.297 1.272.565.615c.65-1.598 3.356-.482 3.356 1.384 0 .812.563 1.285 1.25 1.051.688-.235 2.89.603 4.894 1.862 3.439 2.16 7.856 2.853 7.856 1.233 0-.406 3.037-2.412 6.75-4.459s7.926-4.53 9.363-5.519c1.437-.99 2.899-1.512 3.25-1.162.35.351.637.06.637-.646 0-.774.764-1.084 1.925-.78 1.273.333 1.762.077 1.443-.754-.576-1.5 1.169-2.272 4.73-2.093 2.026.101 2.496-.261 2.133-1.647-.418-1.599 1.15-2.249 4.769-1.975.275.021.352-3.55.172-7.935-.198-4.816.108-8.498.772-9.299.855-1.03.545-1.432-1.392-1.802-1.37-.262-2.254-.091-1.963.379.291.471-.173.856-1.03.856s-1.559.441-1.559.981c0 .539-1.125 1.263-2.5 1.608s-2.5.999-2.5 1.452-1.013 1.133-2.25 1.51-3.009 1.351-3.937 2.165-2.235 1.141-2.904.727c-.686-.423-.96-.335-.628.202.324.525-.281 1.499-1.346 2.163-1.528.955-1.942.944-1.968-.05-.019-.692-.878-.246-1.911.992s-2.367 2.25-2.966 2.25-1.09.402-1.09.893-.725 1.171-1.611 1.511c-1.153.443-1.447.189-1.032-.893.367-.954 0-1.511-.995-1.511-.954 0-1.36.563-1.028 1.427.301.785.011 1.845-.643 2.355-1.683 1.313-5.808 2.217-5.133 1.125.308-.499-.111-.907-.932-.907-.82 0-1.753-.825-2.073-1.833s-1.231-1.834-2.024-1.834-1.212.37-.933.822-.188.555-1.038.229-1.298-.996-.993-1.489c.304-.492.091-.895-.475-.895-.565 0-.756-.787-.424-1.75.499-1.448.307-1.405-1.113.25-1.311 1.528-1.595 1.609-1.203.346.394-1.268-.055-1.593-1.918-1.388-1.338.147-2.432-.121-2.432-.596 0-.474-.589-.862-1.309-.862s-2.182-.708-3.25-1.574c-1.067-.866-1.266-1.25-.441-.853 1.217.585 1.264.467.25-.626-.914-.985-1.25-6.768-1.25-21.526V86.243l3.25-1.359c1.787-.748 3.588-1.253 4-1.122s.75-.196.75-.727.856-1.423 1.902-1.982c1.646-.882 1.837-.719 1.417 1.214-.449 2.067-.378 2.048.95-.267 1.194-2.08 1.21-2.684.098-3.599-.735-.604-1.019-1.416-.632-1.803s-.144-.378-1.18.019c-1.31.503-1.663.367-1.16-.447.459-.743-.002-1.17-1.265-1.17-1.093 0-2.582-.588-3.309-1.306-.726-.718-2.137-1.615-3.134-1.993-1.121-.425-1.525-1.167-1.058-1.944.521-.867.23-.832-.937.115-1.54 1.25-2.127.885-1.81-1.122.065-.412-.107-.75-.382-.75s-.552.338-.615.75M85 73c-.901.582-1.025.975-.309.985.655.008 1.469-.435 1.809-.985.767-1.242.421-1.242-1.5 0m55.813 11.683c.721.289 1.584.253 1.916-.079s-.258-.568-1.312-.525c-1.165.048-1.402.285-.604.604m-14.354 1.384c-.363.586-.445 1.281-.183 1.543s.743-.218 1.069-1.067c.676-1.762.1-2.072-.886-.476m-6.126 11.389c0 .801.383 1.22.85.931s.591-.944.274-1.456c-.808-1.308-1.124-1.161-1.124.525m35.746 1.294c.048 1.056.28 1.252.585.494.279-.691.988-.959 1.576-.596.632.391.777.189.355-.493-1.078-1.745-2.605-1.384-2.516.595m-64.065 6.664c.648.648 1.324.648 1.972 0 .647-.647.309-.985-.986-.985s-1.633.338-.986.985m42.015 4.547c-.809.512-1.211 1.191-.893 1.509s1.148-.108 1.844-.946c1.443-1.738 1.166-1.902-.951-.563M80 128.849c0 .399.9.793 2 .876s2-.176 2-.574c0-.399-.9-.793-2-.876s-2 .176-2 .574M66.5 143c-.34.55-.141 1 .441 1S68 143.55 68 143s-.198-1-.441-1-.719.45-1.059 1m5.5 4.167c0 .458.423.833.941.833s1.173-.375 1.456-.833c.283-.459-.14-.834-.941-.834s-1.456.375-1.456.834m47.543 2.764c-.317.512-.118 1.213.441 1.559s1.016.125 1.016-.49.52-.797 1.155-.405c.715.443.883.275.44-.44-.86-1.393-2.266-1.496-3.052-.224m-19.464 12.819c.048 1.056.28 1.252.585.494.279-.691.988-.959 1.576-.596.632.391.777.189.355-.493-1.078-1.745-2.605-1.384-2.516.595"/></svg>