<svg xmlns="http://www.w3.org/2000/svg" width="200" height="200" fill="#000000"><path fill-opacity=".122" fill-rule="evenodd" d="M83.45 1.461C43.564 8.707 13.655 36.121 3.221 75 1.032 83.158.661 86.689.597 100c-.064 13.196.266 16.753 2.218 23.932C12.103 158.087 36.772 184.5 69 194.795c11.734 3.749 18.175 4.663 32 4.544 10.955-.095 15.313-.592 23.119-2.637 29.105-7.626 52.51-26.667 65.483-53.273 4.646-9.531 9.349-25.825 9.468-32.807.055-3.219.259-3.684.93-2.122.545 1.269.843-2.02.814-9-.025-6.05-.284-10.1-.574-9s-1.303-2.5-2.25-8c-5.49-31.877-26.843-59.634-56.49-73.432C124.105.971 102.052-1.918 83.45 1.461m4.815 41.081c-20.661 5.564-35.295 23.954-35.25 44.297.04 17.905 10.92 40.746 27.485 57.699 13.606 13.925 18.388 15.838 26.554 10.624 10.991-7.017 24.564-23.907 32.413-40.331 8.646-18.093 9.397-33.362 2.353-47.831-3.683-7.566-11.979-16.194-19.447-20.223-9.945-5.368-23.606-7.064-34.108-4.235m.118 23.86c-7.713 3.591-13.23 12.063-13.339 20.482-.131 10.074 8.122 20.757 17.835 23.087 21.359 5.124 38.385-16.194 27.613-34.575-6.068-10.355-20.503-14.398-32.109-8.994M.374 100.5c.002 6.05.167 8.396.366 5.213.199-3.182.197-8.132-.004-11-.201-2.867-.364-.263-.362 5.787"/><path fill-opacity=".093" fill-rule="evenodd" d="M92.5 9.772c-5.839.43-21.58 3.159-22.882 3.968-.615.381-3.908 1.67-7.318 2.863-8.383 2.933-17.88 8.366-25.987 14.866-3.699 2.967-7.195 5.128-7.769 4.802-.574-.325-.719-.232-.322.207.841.931-3.984 7-5.618 7.067-.607.025-1.025.486-.929 1.025s-.731 2.092-1.837 3.454-1.678 1.844-1.27 1.071q.739-1.402-.43-.68c-.644.398-.964 1.058-.711 1.466.716 1.159-2.974 6.229-3.913 5.377-.459-.417-.511-.196-.116.49.868 1.509-1.736 5.549-2.898 4.496-.451-.409-.522-.222-.157.416.819 1.431-.258 4.511-1.343 3.84-.998-.617-2.199 2.369-1.444 3.59.309.501.037.91-.604.91-.643 0-.899.696-.57 1.552.389 1.014.193 1.304-.563.836q-1.158-.716-.525.936c.364.949.174 1.551-.447 1.414-.595-.131-1.236.437-1.425 1.262s-.806 3.3-1.371 5.5C.206 87.678-.353 104.158.947 113.048c9.633 65.882 77.156 104.16 138.301 78.403 31.755-13.377 56.518-46.468 59.456-79.451.486-5.459.862-6.82 1.382-5 .403 1.409.707-1.865.696-7.5-.011-5.837-.301-8.751-.698-7-.543 2.402-.804 1.604-1.309-4-.705-7.833-1.553-10.756-2.88-9.935-.492.304-.895.076-.895-.506S195.45 77 196 77c1.511 0 1.205-1.4-.779-3.561-.978-1.067-1.628-2.685-1.444-3.596s-.136-1.947-.71-2.302c-.64-.395-.83.053-.492 1.157.304.991-.171.554-1.056-.972-.884-1.525-1.293-3.282-.909-3.904.46-.744.246-.851-.625-.312-.97.599-1.149.358-.666-.898.363-.946.247-1.462-.258-1.149-.883.545-2.666-3.175-2.259-4.713.109-.413-.215-.75-.72-.75-1.073 0-5.685-7.145-5.326-8.25.134-.412-.094-.653-.506-.535-.413.119-4.125-3.299-8.25-7.594C151.969 18.76 122.208 7.587 92.5 9.772m-3.802 32.324c-12.52 2.946-25.386 13.447-31.411 25.637-3.284 6.645-3.75 8.539-4.106 16.677-.278 6.352.099 11.169 1.225 15.635 1.968 7.808 8.942 22.605 14.694 31.175 5.875 8.754 20.866 23.435 26.453 25.907l4.539 2.007 4.627-2.24c5.511-2.668 18.112-14.992 24.506-23.968 5.537-7.772 12.969-22.406 15.199-29.926 8.02-27.05-5.587-52.446-32.356-60.388-5.819-1.727-17.161-1.977-23.37-.516m.721 23.801c-6.119 2.779-11.208 8.569-13.024 14.818-6.616 22.755 20.917 39.394 39.399 23.811 10.003-8.435 10.264-24.515.548-33.717-6.878-6.514-18.662-8.663-26.923-4.912M.365 100.5c.003 5.5.171 7.622.373 4.716.203-2.905.201-7.405-.004-10S.363 95 .365 100.5"/><path fill-opacity=".114" fill-rule="evenodd" d="M98.25 40.716c1.513.229 3.987.229 5.5 0s.275-.416-2.75-.416-4.263.187-2.75.416m-21.887 4.877c-1.725.851-4.039 2.388-5.143 3.417s-2.28 1.597-2.614 1.263c-.333-.333-.606-.055-.606.619s-.443.952-.985.618c-.541-.335-1.838.795-2.882 2.512-1.044 1.716-2.288 3.201-2.766 3.299-.477.099-.755.516-.617.929.137.412-.227.75-.809.75s-.781.45-.441 1-.132 1-1.048 1c-1.07 0-1.46.537-1.09 1.5.35.914.001 1.5-.893 1.5-.808 0-1.469.863-1.469 1.918C55 68.934 53.916 71 52.334 71c-.895 0-1.164-.479-.701-1.25.559-.93.382-.985-.691-.215-1.683 1.207-8.854 1.275-10.736.1-.731-.456-1.921-.287-2.737.391-.832.69-2.19.876-3.206.437-1.608-.694-4.904-.98-5.513-.48-.137.113-3.85.276-8.25.361l-8 .156L9.259 77c-1.783 3.575-3.246 7.314-3.25 8.309s-.431 1.548-.946 1.23c-.532-.329-.734.545-.466 2.021.296 1.634.087 2.363-.563 1.961-.569-.351-1.043-.275-1.054.17S2.479 94.65 1.89 98.5C.312 108.813.312 108.867 1.756 117c10.216 57.527 66.13 93.636 122.966 79.411 39.631-9.919 71.655-47.189 73.838-85.934.464-8.218-2.276-24.428-3.86-22.844-.385.385-.7-.046-.7-.958 0-1.929-5.972-15.622-6.884-15.785-.339-.06-1.966-.269-3.616-.465-1.65-.195-4.248-.535-5.774-.755s-3.016-.01-3.311.468c-.299.483-1.309.454-2.28-.066-1.013-.542-2.337-.565-3.162-.055-.882.545-1.686.448-2.12-.255-.52-.841-1.062-.833-2.101.029-.77.639-2.492.924-3.826.634s-3.461-.742-4.725-1.005c-1.265-.262-2.84-.14-3.5.273-1.995 1.245-4.885 1.414-4.162.243.392-.634-.038-.941-1.056-.753-1.901.351-3.064-1.26-3.953-5.474-.324-1.535-1.026-2.52-1.561-2.19s-1.424-.585-1.975-2.034c-1.006-2.646-3.318-5.485-4.466-5.485-.339 0-1.829-1.125-3.311-2.5-1.483-1.375-3.264-2.5-3.957-2.5s-1.26-.398-1.26-.883c0-.486-1.013-1.129-2.25-1.43-2.138-.518-2.125-.462.25 1.12 5.285 3.521 13.797 12.403 16.309 17.019 7.811 14.351 7.31 32.994-1.351 50.318-8.647 17.297-25.258 36.955-35.321 41.802l-4.864 2.342-4.319-2.098c-10.477-5.09-27.021-24.325-34.999-40.69-6.167-12.649-7.757-19.64-7.267-31.94.351-8.79.803-10.892 3.581-16.649 3.811-7.898 11.736-16.441 19.247-20.747 5.66-3.246 5.895-4.308.347-1.571m14.156 20.005c-12.303 4.503-18.377 19.8-12.601 31.733 4.186 8.647 11.121 12.674 21.8 12.66 5.701-.008 7.618-.489 12.031-3.02 17.063-9.786 14.999-34.058-3.485-40.973-6.204-2.322-12.13-2.455-17.745-.4m1.924 1.82c-1.067.78-1.606 1.753-1.197 2.161.984.985 6.754 1.131 6.754.171 0-1.187 2.369-.397 3.749 1.25 1.109 1.325 1.193 1.318.72-.06-.414-1.203.126-1.513 2.364-1.358 1.596.11 3.523-.194 4.284-.676 1.042-.659.828-.91-.867-1.016-3.102-.193-3.571-.307-5-1.214-.713-.453-1.25-.339-1.25.265 0 .582-.477 1.059-1.059 1.059s-.805-.41-.495-.912c.826-1.336-1.977-.722-3.868.847-1.398 1.16-1.536 1.119-.994-.294.774-2.017-.558-2.112-3.141-.223m-4.987 1.653c-.375.607-.241 1.544.298 2.083.64.64 1.185.448 1.57-.555.699-1.823-.885-3.119-1.868-1.528m22.098 1.841c-.31.502.101.815.912.696 2.142-.314 3.155-1.608 1.26-1.608-.885 0-1.862.41-2.172.912M98.5 72c-.34.55-.141 1 .441 1S100 72.55 100 72s-.198-1-.441-1-.719.45-1.059 1"/><path fill-opacity=".105" fill-rule="evenodd" d="M193.385 116.75c-.833 2.063-2.677 6.101-4.1 8.974l-2.585 5.223-4.824-.294c-3.341-.204-4.55.034-3.935.776.589.709.102 1.071-1.441 1.071-1.774 0-2.078-.304-1.272-1.274.581-.701.768-1.563.415-1.917-.354-.353-.643-.131-.643.493 0 .648-.714.861-1.664.497-1.042-.4-1.418-.241-1.007.424.449.727-.444.815-2.829.277-2.096-.473-3.257-.417-2.913.141.319.516-.545.724-1.949.47-1.397-.253-2.736.066-3.001.716-.352.862-.5.848-.558-.052-.057-.884-.761-.966-2.531-.293-2.085.793-2.363.677-1.853-.775.489-1.392.351-1.476-.748-.457-1.601 1.486-4.333 1.684-3.447.25.34-.55.141-1-.441-1s-1.059.675-1.059 1.5-.424 1.5-.943 1.5-.756-1.012-.528-2.25c.406-2.202.373-2.197-1.55.25-1.625 2.068-2.127 2.249-2.906 1.048-.517-.799-.676-1.881-.353-2.405s.069-.631-.565-.238c-.635.392-1.155 1.447-1.155 2.345 0 1.48-.116 1.475-1.25-.055-1.121-1.512-1.538-1.537-4.033-.233-1.531.799-2.536 1.054-2.234.565.782-1.264-1.01-2.146-2.893-1.423-.874.335-1.597 1.574-1.605 2.753-.013 1.789-.191 1.895-1.079.643-.83-1.172-.966-.896-.621 1.259.31 1.941.111 2.489-.672 1.85-1.102-.899-4.005 1.166-3.022 2.149.259.259-.682 1.227-2.092 2.15-1.506.988-2.277 2.177-1.871 2.886.381.663.331.879-.11.48-.442-.399-3.474 1.747-6.739 4.77-6.041 5.593-12.333 9.456-15.402 9.456-2.236 0-10.165-5.126-13.804-8.923-1.583-1.653-3.33-2.727-3.881-2.387s-.724.171-.385-.377c.802-1.298-5.678-7.585-6.783-6.581-.465.423-.55.253-.19-.377s-.022-1.405-.849-1.722c-.827-.318-1.387-1.152-1.244-1.855.154-.759-.507-1.146-1.627-.953-1.453.251-1.728-.086-1.197-1.47.379-.986.368-1.473-.025-1.08-.392.392-1.217-.297-1.832-1.531-1.202-2.411-6.56-3.333-6.56-1.129 0 1.325 1.727 1.311 3.88-.032.96-.6 1.24-.444.921.513-.635 1.906-5.801 2.213-5.801.344 0-.792-.45-1.44-1-1.44s-1 .45-1 1-.498 1-1.107 1-.848-.675-.531-1.5.139-1.5-.393-1.5c-.533 0-.969.498-.969 1.107s-.725.829-1.611.489c-1.09-.418-1.445-.183-1.096.726.284.74-.096 1.345-.844 1.345-.749 0-1.148-.344-.889-.765.26-.42.046-1.027-.475-1.349s-1.229-.128-1.575.431-1.164 1.009-1.819 1.001c-.727-.01-.618-.378.28-.946.809-.512 1.219-1.183.91-1.491-.308-.308-1.605.345-2.881 1.452s-2.586 1.723-2.91 1.369c-.325-.353-.027-.844.66-1.089.688-.246 1.25-.914 1.25-1.486 0-.682-.462-.656-1.342.075-.738.612-1.71.78-2.16.372-.45-.407-.435-.066.034.759.734 1.293.619 1.311-.84.128-1.357-1.101-1.989-1.126-3.192-.128-.825.685-1.5.91-1.5.5s-.685-.176-1.523.519c-1.293 1.073-1.416.978-.813-.628.598-1.591.471-1.697-.801-.665-1.158.94-1.785.952-2.687.05s-1.176-.89-1.176.047c0 .84-.861.68-2.75-.511l-2.75-1.734 2 2.444c1.239 1.514 1.382 1.968.377 1.194-.893-.688-2.468-.975-3.5-.639-1.549.505-1.615.423-.377-.467.825-.594 1.085-1.086.579-1.095-.507-.008-1.744.73-2.75 1.64-1.457 1.319-1.835 1.369-1.861.25-.023-1.028-.396-.925-1.388.384-1.259 1.658-1.434 1.567-2.417-1.25-.582-1.672-1.532-3.039-2.111-3.039S10 127.319 10 126.486c0-.832-.439-2.295-.975-3.25s-1.638-3.423-2.449-5.486-2.059-3.714-2.775-3.671c-.973.059-.992.204-.077.575.916.371.819 1.113-.385 2.952-.886 1.351-1.324 2.742-.974 3.092.349.349.642-.002.65-.781.013-1.167.187-1.152.985.083 1.266 1.958 1.266 3.282 0 2.5-.55-.34-1 .335-1 1.5s.337 1.911.75 1.657c.412-.253.795.733.851 2.191.139 3.65 4.289 13.594 9.525 22.822 5.761 10.154 19.725 24.773 30.534 31.965 24.788 16.493 54.512 21.041 83.216 12.73 26.32-7.62 48.907-26.494 60.989-50.963 4.567-9.247 7.545-17.929 6.649-19.38-.348-.562-.207-1.022.313-1.022.521 0 1.137-1.303 1.371-2.896.279-1.902.032-2.746-.72-2.457-.759.291-.994-.584-.698-2.604.612-4.17-.568-3.822-2.395.707m3.694-1.167c.048 1.165.285 1.402.604.605.289-.722.253-1.585-.079-1.917s-.568.258-.525 1.312M158 130.059c0 .582.45.781 1 .441s1-.816 1-1.059-.45-.441-1-.441-1 .477-1 1.059"/></svg>