<svg xmlns="http://www.w3.org/2000/svg" width="32" height="32" fill="#000000"><path fill-opacity=".176" fill-rule="evenodd" d="M7.859 2.158C-6.78 10.646.507 33.201 17.434 31.797c6.384-.529 10.293-3.108 13.325-8.788 2.143-4.014 3.249-13.75 1.435-12.629-.443.274-1.605-.988-2.583-2.804C25.819.535 15.213-2.107 7.859 2.158m6.891 3.504c.688.278 1.813.278 2.5 0 .688-.277.125-.504-1.25-.504s-1.937.227-1.25.504M10 6.969c0 .532.675.709 1.5.393.825-.317 1.5-.753 1.5-.969S12.325 6 11.5 6s-1.5.436-1.5.969M.3 16c0 3.025.187 4.263.416 2.75s.229-3.987 0-5.5S.3 12.975.3 16"/><path fill-opacity=".362" fill-rule="evenodd" d="M9.45 1.407c-12.363 5.385-12.222 24.03.221 29.229 8.771 3.665 17.075.012 21.686-9.54 1.806-3.741 2.266-10.599.643-9.596-.55.34-1-.049-1-.864 0-2.337-5.084-7.773-8.671-9.272C18.254-.338 13.42-.322 9.45 1.407m.093 4.524c-.772 1.249 1.141 2.347 2.707 1.554.688-.348.463.012-.5.801S10 10.368 10 11.16s-.479 1.919-1.064 2.504C7.674 14.926 10.28 18 12.611 18c.808 0 3.228.898 5.378 1.994 3.016 1.539 4.493 1.773 6.46 1.025C25.852 20.486 27 19.747 27 19.378s-1.594-3.072-3.542-6.007c-2.439-3.675-4.54-5.65-6.75-6.345Q13.491 6.015 16 6.38c1.375.199 3.4.682 4.5 1.073 1.972.7 1.972.688.059-.871-2.102-1.713-10.069-2.184-11.016-.651M.272 16c0 2.475.195 3.488.434 2.25.238-1.238.238-3.262 0-4.5C.467 12.512.272 13.525.272 16m17.187-2.933c-.92 1.489.147 2.298 2.061 1.564.884-.339 1.327-1.07.984-1.624-.81-1.311-2.215-1.284-3.045.06m8 10c-.363.586-.445 1.281-.183 1.543s.743-.218 1.069-1.067c.676-1.762.1-2.072-.886-.476"/><path fill-opacity=".545" fill-rule="evenodd" d="M10.5 1.47C.555 5.07-2.745 17.698 4.014 26.291c2.671 3.395 9.952 6.127 14.193 5.325 5.179-.978 9.675-4.267 11.428-8.359.885-2.066 2.004-4.538 2.487-5.493 1.189-2.352 1.112-5.027-.122-4.264-.55.34-1.002-.196-1.004-1.191s-.882-3.25-1.956-5.01C25.526 1.534 17.39-1.023 10.5 1.47M9.293 7.011c.289 1.105.031 3.319-.573 4.919-1.437 3.808-.038 5.501 5.751 6.958 2.426.611 4.689 1.561 5.029 2.111s1.604 1.008 2.809 1.016c1.676.012 1.859.226.779.91-1.209.765-1.198 1.108.074 2.38 1.316 1.316 1.622 1.27 2.662-.396 1.47-2.353 1.527-4.244.102-3.363-.59.365-.493-.266.217-1.403 1.11-1.778.981-2.484-.926-5.064C23.997 13.43 23 11.233 23 10.195 23 6.874 19.774 5 14.055 5c-4.805 0-5.24.184-4.762 2.011M.158 16c0 1.375.227 1.938.504 1.25.278-.687.278-1.812 0-2.5-.277-.687-.504-.125-.504 1.25"/><path fill-opacity=".77" fill-rule="evenodd" d="M27.221 19.929c-.046 1.612-.723 4.151-1.505 5.643l-1.422 2.714-1.364-3.081c-.75-1.695-2.504-3.657-3.897-4.361-3.464-1.75-4.899-2.192-2.804-.864 1.587 1.006 1.485 1.432-1.25 5.208-3.51 4.845-3.613 5.476-1.028 6.296 3.624 1.151 9.675-1.327 13.454-5.51 3.506-3.882 3.569-4.085 1.992-6.49-.895-1.366-1.732-2.484-1.86-2.484s-.27 1.318-.316 2.929"/></svg>