<svg width="317" height="500" viewBox="0 0 317 500" fill="#000000" xmlns="http://www.w3.org/2000/svg">
<path fill-rule="evenodd" clip-rule="evenodd" d="M186.836 2.10788C186.776 5.68284 224.47 104.551 225.893 104.551C227.432 104.551 261.666 74.5953 262.396 72.6088C262.946 71.1148 190.295 0 188.219 0C187.479 0 186.855 0.949389 186.836 2.10788ZM170.778 11.3623C167.108 15.745 158.474 26.5542 151.591 35.382C144.707 44.2098 127.585 65.8501 113.541 83.472C87.3748 116.304 68.1307 140.599 24.3897 196.026C9.16068 215.324 -0.336564 228.791 0.00912813 230.595C0.506588 233.194 5.5992 234.008 41.8699 237.297C64.581 239.356 103.273 242.957 127.851 245.303C152.429 247.647 179.093 250.052 187.106 250.647L201.672 251.728L202.637 245.17C203.166 241.563 207.2 210.243 211.6 175.569L219.6 112.527L216.048 103.058C214.095 97.8511 207.799 81.069 202.057 65.7658C196.313 50.4626 188.98 30.7329 185.76 21.9219C178.349 1.64752 178.703 1.89709 170.778 11.3623ZM245.614 96.9911C233.098 108.057 227.353 114.314 226.714 117.574C223.404 134.479 209.713 251.055 210.898 252.241C211.52 252.861 231.979 255.139 256.363 257.305C280.747 259.47 303.353 261.627 306.599 262.099C319.258 263.938 319.26 262.466 306.614 219.219C302.953 206.699 293.072 171.792 284.654 141.649C276.236 111.507 268.953 85.5158 268.467 83.8936C266.99 78.9392 264.271 80.4957 245.614 96.9911ZM0.70726 242.549C-0.488329 244.485 8.58903 250.72 63.7716 285.855C80.9298 296.781 101.039 309.639 108.459 314.43C115.878 319.221 135.674 332.008 152.448 342.847C184.339 363.456 185.315 363.933 188.314 360.319C190.538 357.641 202.408 261.018 200.705 259.461C200.054 258.866 180.169 256.719 156.518 254.691C132.868 252.662 93.4084 249.131 68.8305 246.843C44.2527 244.554 19.1284 242.234 12.9987 241.688C5.68523 241.033 1.46104 241.33 0.70726 242.549ZM207.107 260.468C207.107 260.895 204.843 280.815 202.075 304.734C194.238 372.479 192.491 368.144 219.092 346.952C229.857 338.375 244.543 326.806 251.729 321.241C294.947 287.768 313.415 272.55 312.857 270.878C311.936 268.112 207.107 257.794 207.107 260.468ZM255.751 426.913C236.581 438.027 243.994 459.56 269.58 467.082C284.217 471.384 287.205 473.642 285.78 479.321C283.038 490.247 261.15 489.07 258.334 477.844C257.331 473.846 256.661 473.546 250.582 474.362C242.078 475.502 241.806 475.854 244.086 482.765C253.315 510.729 303.915 502.525 301.127 473.517C300.023 462.015 295.495 457.841 278.318 452.486C259 446.462 255.283 442.223 264.674 436.926C270.742 433.505 280.263 435.655 282.698 440.997C285.775 447.751 300.749 447.339 299.08 440.547C295.2 424.765 272.028 417.473 255.751 426.913ZM9.80992 430.85V436.752H20.7709H31.7319V467.106V497.459H39.3202H46.9086V467.106V436.752H57.8696H68.8305V430.85V424.948H39.3202H9.80992V430.85ZM75.5757 461.079V497.459H83.1641H90.7525V482.283C90.7525 460.297 98.5719 460.651 113.497 483.315L122.812 497.459H131.234C135.866 497.459 139.655 496.819 139.655 496.034C139.655 494.1 126.629 473.9 122.443 469.345L119.079 465.683L124.205 463.032C135.91 456.98 138.613 441.305 129.681 431.299L124.764 425.792L100.17 425.245L75.5757 424.699V461.079ZM148.087 461.204V497.459H155.675H163.264V461.204V424.948H155.675H148.087V461.204ZM195.157 429.493C189.062 445.327 170.009 496.373 170.009 496.866C170.009 497.193 173.67 497.459 178.143 497.459H186.28L188.767 489.449L191.254 481.44H204.578H217.901L220.389 489.449L222.876 497.459H231.012C241.061 497.459 241.587 501.186 225.78 460.337L212.412 425.792L204.694 425.277C197.592 424.803 196.831 425.139 195.157 429.493ZM116.77 439.402C124.757 447.39 117.079 455.302 101.337 455.302H90.7525V446.027V436.752H102.437C110.809 436.752 114.87 437.503 116.77 439.402ZM208.639 455.629C213.232 469.229 213.367 468.792 204.578 468.792C195.15 468.792 195.14 468.666 202.866 447.292C204.175 443.671 205.006 444.87 208.639 455.629Z" fill="#000000"/>
</svg>
