<svg xmlns="http://www.w3.org/2000/svg" width="20" height="20" fill="#000000"><circle cx="10" cy="10" r="10" fill="#696969"/><path fill="#ffffff" fill-rule="evenodd" d="M4.087 4.148a.395.395 0 0 1 .37-.143l10.039 1.593a.395.395 0 0 1 .224.118l2.426 2.546a.393.393 0 0 1 .024.525L9.88 17.75a.395.395 0 0 1-.674-.104L4.028 4.54a.395.395 0 0 1 .059-.392Zm11.96 4.106L14.451 6.58l-2.555 2.26 4.151-.586ZM13.621 6.26 5.752 5.01 10.66 8.88l2.962-2.62Zm-2.624 3.505 4.925-.694-5.744 7.062.82-6.368ZM9.4 15.986 5.329 5.682l4.9 3.864-.83 6.44Z" clip-rule="evenodd"/><circle cx="15" cy="15" r="5" fill="#141414"/><path fill="#b8b8b8" fill-rule="evenodd" d="m13.41 14.348 1.59-1.59 1.59 1.59.925-.924L15 10.909l-2.515 2.515.925.924Zm-1.577-.27-.924.924.924.923.923-.923-.923-.924ZM15 17.244l-1.59-1.59-.925.925L15 19.093l2.515-2.514-.925-.925-1.59 1.59Zm3.168-3.166-.924.924.924.923.923-.923-.924-.924ZM15 14.064l.937.937-.938.938-.937-.938.162-.168.084-.077.692-.692Z" clip-rule="evenodd"/></svg>