<svg xmlns="http://www.w3.org/2000/svg" width="267" height="267" fill="#000000"><path fill="#000000" d="M102.8 12.667c-32.8 8.4-58.667 27.733-76.4 57.2-11.867 19.6-17.067 38.933-17.067 63.466 0 24.534 5.2 43.734 17.067 63.6C37.333 215.2 50.533 228.4 68.533 239.6c32.134 19.733 73.067 23.333 110.134 9.6C208.933 238 238 208.933 249.2 178.667c11.067-29.867 11.067-60.8 0-90.667-10.8-29.067-35.2-54.8-65.067-68.4-23.6-10.667-55.733-13.333-81.333-6.933ZM148.667 18c28.8 4.533 47.2 13.733 66.8 33.2 15.6 15.733 24.666 31.067 30.933 52.8 3.067 10.267 3.067 48.4 0 58.667-6 20.533-15.067 36.533-29.067 51.066l-8.666 9.067-4.667-4.133c-2.533-2.267-6.533-5.867-8.8-8-2.133-2.267-4.4-4-4.933-4-.534 0-2.8-2.134-5.067-4.667-2.267-2.533-4.933-4.667-5.867-4.667-1.466 0-6-5.466-6-7.2 0-.4 2-1.6 4.534-2.8 5.866-2.8 12-8.933 14.8-14.8 1.2-2.666 3.466-6 4.933-7.466 4.267-4.267 12.667-18 15.067-24.8 1.733-4.934 3.333-6.934 6.533-8.267 6.933-2.933 8.8-5.333 8.8-10.933 0-3.067.533-4.934 1.333-4.4.667.4.4-1.734-.666-4.8-1.2-3.067-1.867-5.867-1.6-6.134.266-.133 3.066 2.8 6.266 6.667 6.4 7.733 6.267 5.333-.133-6.933-2.133-4-3.6-7.6-3.067-8 .4-.4 2.8 1.6 5.334 4.533 4 4.667 4.533 4.933 3.733 2-1.067-4.133-6-13.333-7.2-13.333-.533 0-1.6-1.467-2.4-3.334-2-4.266-1.2-4.133 4.8.267l4.8 3.733-3.2-4.666c-4.4-6.4-13.067-14.267-18.4-16.8-2.533-1.2-4.133-2.4-3.733-2.934.4-.4 2.133-.133 3.866.667 1.6.8 4.8 2.133 6.934 3.067l4 1.6-3.2-3.067c-1.867-1.733-6.934-5.067-11.334-7.6-6.266-3.467-7.2-4.267-4.133-3.733 2.267.266 5.2 1.066 6.667 1.6 2.266.933 2.4.8.933-1.067-.933-1.2-6.4-4.4-12.267-7.2-8.4-4.133-10.133-5.333-7.866-5.867 2.4-.533 1.333-1.466-5.6-4.8-4.667-2.4-10.534-4.666-12.934-5.2-2.4-.4-4-1.333-3.6-2 .667-1.066-1.333-1.6-11.6-3.466-3.333-.534-3.866-.4-2.4.666 1.6 1.2 1.467 1.467-.933 1.467-1.733 0-3.067-.533-3.067-1.067 0-.666 1.334-1.866 3.067-2.666 2.533-1.334 2-1.467-3.067-.8-3.333.4-8 2-10.533 3.466-4.133 2.4-4.4 2.4-2.667.134 1.067-1.334 3.067-3.467 4.534-4.8 2.133-1.867 1.6-1.867-2.667.4-2.933 1.6-6 3.733-6.8 4.8-1.2 1.6-2.4 1.333-7.2-.934-5.733-2.8-6-2.8-15.867-.4-6.933 1.6-9.2 2.534-7.466 3.2 1.866.667.933 1.067-3.467 1.734-3.2.4-8 1.733-10.533 2.8l-4.667 2L94 40c3.333.133 2.8.667-3.733 2.8-4.134 1.467-9.6 3.867-12 5.333-2.267 1.6-3.2 2.534-2 2.134 1.2-.4 4.533-1.2 7.333-1.6 4.667-.667 4.533-.534-1.733 1.733-8.8 3.333-19.334 9.6-18.534 10.933.267.534-1.733 2.667-4.8 4.534C55.467 68 53.6 70 54.133 70.933c.534.934.4 1.067-.666.534-.8-.534-2.4 0-3.467 1.066-1.2 1.067-4.267 2.534-7.067 3.067L38 76.667l6 .8c5.333.666 4.8.8-3.6.933-5.333.133-9.733 0-9.733-.533 0-1.867 12-18 18.533-25.067C66.8 34.267 89.733 22.4 116.667 18c14.133-2.267 17.733-2.267 32 0ZM124 30.667c0 .666-.267 1.333-.533 1.333-.4 0-1.067-.667-1.467-1.333-.4-.8-.133-1.334.533-1.334.8 0 1.467.534 1.467 1.334Zm-5.733 3.466c-.4.4-1.6.534-2.534.134-1.066-.4-.666-.8.8-.8 1.467-.134 2.267.266 1.734.666Zm54.666 1.334c-.4.4-1.6.533-2.533.133-1.067-.4-.667-.8.8-.8 1.467-.133 2.267.267 1.733.667Zm-101.6 23.866C69.2 60.4 66.4 61.2 65.333 61.2c-1.066 0 .134-.933 2.667-1.867 6.133-2.4 8.533-2.266 3.333 0Zm-35.866 24.8c.4.8 3.6 3.2 6.933 5.334 6.533 4.133 6.667 5.2.267 1.866-2.267-1.2-4-1.733-4-1.333 0 .533 4.4 2.933 9.733 5.467l9.6 4.666-7.333-.8c-4-.4-9.067-1.733-11.334-2.8l-3.866-2 3.6 3.867c3.733 3.867 4.8 6.533 2 4.8-.934-.667 3.6 4.8 10.133 12 6.533 7.067 13.067 13.6 14.4 14.267 1.333.666 2.4 2 2.4 2.933 0 .933-.533.8-1.333-.4-.667-1.067-1.334-1.467-1.334-.8 0 .533-1.066 0-2.266-1.467-1.334-1.333-2-1.866-1.467-1.066.533.933.667 1.866.267 2.266-.4.4 2 2.934 5.333 5.734 3.333 2.666 5.867 5.6 5.733 6.266-.133.8.667 1.734 1.734 2 1.733.534 1.733.4 0-.8-1.2-.933-1.467-1.466-.4-1.466.933 0 2.133.8 2.666 1.733.534.933 2.534 2.4 4.4 3.2 3.2 1.467 3.067 1.6-2 1.6-4 .133-6.933 1.333-12.266 5.333-4.8 3.734-8.8 5.6-13.334 6.134-3.466.533-8.533 1.333-11.066 2-2.534.533-8.4 1.466-12.934 1.866l-8.133.934-1.333-4.4c-6.534-20.934-3.867-51.6 6.533-74.934 2.267-5.333 3.067-6 5.2-4.8 1.333.8 2.933 2 3.467 2.8Zm56.133 3.6c2.933 1.867 4.4 8.534 4.533 21.334.134 7.066.534 11.2.8 9.066.534-2.933.934-3.466 1.867-2 .8 1.334 1.2.4 1.2-2.933 0-8.4 5.2-19.6 8.133-17.733.534.266 2.134-.934 3.334-2.8 2.666-4.134 4-4.267 5.333-.4l1.067 3.066L118.8 92c.933-3.333.933-3.333 2.533.933.8 2.4 2.134 4.134 2.667 3.734.533-.4 1.333.133 1.733 1.2.534 1.466-.4 1.866-3.866 1.466-5.734-.4-7.334 1.6-2.267 2.8 2 .534 5.467 2 7.467 3.2l3.733 2.267-5.467.933c-2.933.4-5.333 1.467-5.333 2.134 0 .8.667 1.333 1.467 1.333s1.066 1.333.666 2.933l-.8 3.067 1.467-2.933c2-3.867 5.2-4.934 7.467-2.667 2.933 2.933.8 8.533-3.734 10.133-2.133.8-3.6.8-3.2.267.267-.667-.266-1.867-1.333-2.8-1.6-1.333-2-1.2-2 .933 0 2.667 3.867 8.8 4 6.4 0-.8.4-.666 1.067.134.533.933 2 1.066 3.866.4 3.2-1.2 6.4-10 4.934-13.734-1.2-3.333.266-2.666 8.533 3.867 8 6.267 13.067 8.4 6.267 2.533-5.867-4.933-8.667-7.6-15.067-14.266-4.533-4.667-5.733-6.8-5.333-9.734l.4-3.866 3.333 5.6c3.467 6 5.333 7.2 5.333 3.6 0-1.067.534-1.734 1.334-1.2.666.4.8 1.733.4 2.933-.534 1.467-.4 1.867.666 1.2 1.067-.667 1.867.4 2.4 3.067 1.2 5.6 3.2 5.2 3.2-.534 0-3.466.534-4.4 1.867-3.866 1.2.4 1.6 1.733 1.2 2.933-.533 1.2-.267 1.733.267 1.2.666-.533 2.533 1.467 4.133 4.533l2.8 5.6 1.467-4.133c1.866-5.467 3.066-5.467 2.133 0-.533 3.333-.4 3.867.667 2.4 1.2-1.6 1.466-1.2 1.466 1.867 0 3.733.134 3.866 2.667 1.466 1.467-1.333 2.933-3.333 3.333-4.666.4-1.2 1.6-2.267 2.667-2.267 2.4 0 2.533 1.467.533 5.2-1.333 2.4-1.2 2.667.934 1.867 1.466-.667 3.2-1.2 4.133-1.334.933-.133 2.133-.8 2.667-1.466.533-.534.133-.667-.934-.134-1.2.667-1.066.267.267-.933 1.333-1.067 1.867-2.4 1.333-2.933-.533-.667-.133-.667.8-.134.8.534 1.6 2.267 1.6 3.867.134 2.667.667 2.4 4.934-2.267l4.8-5.2-.667 3.867c-.4 3.467-.133 3.867 2.667 3.733 1.866 0 4.8-1.6 6.666-3.333l3.334-3.2-.667 3.733c-.533 2.934-.4 3.334 1.067 2.134 1.6-1.2 1.866-.534 1.866 4.133 0 4-1.066 7.333-4 11.6-2.266 3.333-3.866 6.267-3.466 6.667.266.266 2.133-2 4-5.2 3.2-5.2 3.466-5.334 2.666-1.734-.933 4.667-10 21.2-14.666 26.8-2.4 2.934-3.067 3.2-2.534 1.2.4-1.466-.933.934-3.2 5.334-4.933 10.133-10.533 15.466-21.866 20.8-4.934 2.266-8.8 4.4-8.4 4.8.266.266 2.4-.4 4.666-1.6 4-2 4.134-2 5.734 1.2.8 1.866 1.866 3.066 2.4 2.8.533-.267 3.6 1.733 6.666 4.666 3.2 2.934 6 5.334 6.4 5.334.267 0 2.267 1.6 4.4 3.6 6.134 5.866 4.8 7.333-3.066 3.733-6.667-3.067-18.134-4.533-20.134-2.533-.4.533-.133 2.133.534 3.6 2.8 5.066 3.066 22.533.666 30-2.133 6.266-2.666 6.933-6.4 6.933-3.333 0-3.866-.4-3.066-2.267 2-4.933 3.2-12 3.066-17.733 0-3.333-.4-4.533-.666-2.8-.534 2.933-1.067 3.067-7.067 2.4-8.533-1.067-18.933-6.4-26.133-13.6-3.2-3.333-5.867-5.733-5.867-5.6 0 .933 14.8 20.267 22.533 29.6 5.467 6.667 7.6 10 6 9.6a143.84 143.84 0 0 0-5.333-1.467c-1.6-.533-6-4.266-10-8.533-9.2-9.733-28.267-33.6-27.467-34.4.267-.4 2.667.933 5.067 2.933 3.467 2.667 3.2 2.267-.8-1.333-9.333-8.667-14.667-8-33.333 4.4-6.667 4.267-12.134 7.733-12.4 7.467-.667-.667 2.533-49.067 3.466-53.6 1.334-6 9.734-12.4 16.4-12.4 2.934 0 5.2.4 5.2.8s-1.733 2.4-4 4.533c-3.6 3.333-3.733 3.867-1.866 6.133 1.866 2.267 1.866 2.267.8.134-.8-1.867-.134-3.467 3.066-6.934 3.6-3.733 8.8-16 7.2-17.066-.266-.267-2-1.334-3.866-2.534-4.534-2.8-8.267-14.933-8.4-27.066 0-10.134 2.266-16.267 7.333-19.867 3.333-2.4 3.733-2.533 6-1.067Zm-45.067 18c0 1.2-.266 1.067-.8-.133-.266-.8-1.333-1.2-2-.8-.933.533-1.066.267-.533-.667 1.2-1.733 3.467-.666 3.333 1.6ZM196.4 114.8c-1.067 1.067-1.733.933-2.4-.267-.667-1.066-.533-1.333.4-.666.933.533 1.6.266 1.6-.667s.4-1.2.933-.8c.534.533.267 1.6-.533 2.4Zm-65.733 10.533c0 .667-.534 1.334-1.334 1.334-.666 0-1.333-.667-1.333-1.334 0-.8.667-1.333 1.333-1.333.8 0 1.334.533 1.334 1.333Zm-69.334 39.734c0 3.866 0 3.866-12.533 5.333-17.6 2.267-25.6 2.133-26.667-.4-.8-2.133-.666-2.267 15.2-4.667 5.467-.8 12.134-2 14.667-2.666 8.4-1.867 9.333-1.734 9.333 2.4Zm113.6 48c14.534 8.933 25.467 16.266 24.4 16.266-.533 0-6.266-2.8-12.533-6.266-6.267-3.467-14.267-7.734-17.733-9.467-6.267-2.933-8.267-5.6-4.4-5.6 1.066 0 5.733 2.267 10.266 5.067Zm22.667 3.6c.4-.4 1.467.4 2.533 1.6 1.734 2.133 1.6 2.266-.4.533-1.333-.933-2.4-1.2-2.4-.4 0 .667 2 2.533 4.267 4 3.467 2.267 3.867 2.933 2.133 3.6-1.333.533-4.933-.933-9.333-3.733-3.867-2.534-8.8-5.6-11.067-6.934-6.133-3.866-1.733-3.866 5.334 0 3.6 1.867 6.666 3.067 7.066 2.667.267-.267-.933-1.333-2.933-2.133-1.867-.934-3.467-2.534-3.467-3.6 0-1.467 1.067-1.067 3.734 1.466 2.133 2 4.133 3.334 4.533 2.934Z"/><path fill="#000000" d="M166.4 28.933c.933.4 2.133.267 2.533-.133.534-.4-.266-.8-1.733-.667-1.467 0-1.867.4-.8.8ZM84.267 97.6c-.934.933-1.6 2.267-1.6 2.933 0 .8.666.4 1.466-.933 1.734-2.8 3.334-2.933 4.4-.133.534 1.333-.133 2.933-1.466 3.866-1.334 1.067-2 2.267-1.334 2.8.534.534.934.267.934-.8 0-1.333.4-1.333 2 0 1.733 1.467 2 1.067 2-1.733 0-6.933-2.8-9.6-6.4-6ZM149.333 110c0 .667.667 2.267 1.334 3.333.666 1.067 1.333 1.334 1.333.667 0-.8-.667-2.267-1.333-3.333-.667-1.067-1.334-1.467-1.334-.667ZM188.667 121.6c-1.467.933-6 2.933-10 4.667-6.134 2.533-7.2 4.133-2.134 3.2.667-.134.667.8.134 2.133-2.134 5.733-2.267 10.533 0 12.4 1.866 1.6 2.533 1.333 5.466-1.6 2.134-2 3.734-5.467 4.134-8.8.533-3.467 1.466-5.6 2.533-5.6s1.867.933 1.867 2.133.666 1.6 1.6 1.067c1.066-.667.666-1.733-1.334-3.333C186.8 124.533 187.2 124 194.4 124h6.267l-3.867-2c-4.533-2.4-4.667-2.4-8.133-.4Zm-4.934 12.133c-.4 4.8-.8 5.734-3.066 5.6-4.934-.4-3.467-11.333 1.466-11.333 1.467 0 1.867 1.333 1.6 5.733ZM191.333 148.133c-.533.8-.666 1.6-.266 2 .266.4.933-.266 1.333-1.466.933-2.267.133-2.667-1.067-.534ZM133.6 152.4c-4 4.267-3.867 7.467.267 6.667 4.133-.8 13.866 5.333 14.666 9.333.4 1.6.934 4.133 1.067 5.6.4 2 1.2 1.2 4-3.733l3.6-6.267h-4c-6.133 0-18.533-7.333-18.533-10.933 0-.667 1.333-1.734 3.066-2.4 1.867-.667 2.134-1.2.8-1.2-1.066-.134-3.333 1.2-4.933 2.933ZM142.8 149.733c.267.134 2 1.467 3.867 2.934l3.333 2.666-2.533-3.066c-1.467-1.6-3.2-2.934-3.867-2.934-.8 0-1.067.134-.8.4ZM158.667 152c-1.067.667-1.334 1.333-.667 1.333.8 0 2.267-.666 3.333-1.333 1.067-.667 1.467-1.333.667-1.333-.667 0-2.267.666-3.333 1.333ZM188.933 152.933c-.533.4-.933 1.467-.933 2.267 0 .8.667.667 1.6-.267.8-.8 1.2-1.866.933-2.266-.4-.4-1.2-.267-1.6.266ZM130.8 165.6c-.133 2.533 1.067 4.533 4.267 6.933 2.533 2 5.333 3.467 6.4 3.467 1.066-.133-.4-1.333-3.067-2.8-3.467-1.733-5.333-3.867-6.267-6.933-1.2-4.134-1.2-4.134-1.333-.667ZM82.667 168c.8 1.467 1.733 2.667 2.133 2.667.267 0 0-1.2-.8-2.667-.8-1.467-1.733-2.667-2.133-2.667-.267 0 0 1.2.8 2.667ZM112.667 170.533C123.467 182.933 140 197.6 140 194.8c0-.8-.533-1.467-1.067-1.467-1.333 0-4.4-2.666-18.933-16.533-6.133-6-9.467-8.8-7.333-6.267ZM65.333 170.667c.8 1.466 1.734 2.666 2.134 2.666.266 0 0-1.2-.8-2.666-.8-1.467-1.734-2.667-2.134-2.667-.266 0 0 1.2.8 2.667ZM87.333 174.667c1.334 1.466 2.667 2.666 2.934 2.666.266 0-.267-1.2-1.2-2.666C88.133 173.2 86.8 172 86.133 172c-.666 0-.133 1.2 1.2 2.667ZM64 175.333c0 .667.667 2.267 1.333 3.334.667 1.066 1.334 1.333 1.334.666 0-.8-.667-2.266-1.334-3.333-.666-1.067-1.333-1.467-1.333-.667ZM94.133 182.933c2.134 2.267 6 6.4 8.534 8.934 2.533 2.666 6.666 7.2 9.066 10.133 2.4 2.933 3.867 4.267 3.2 2.933-1.6-3.466-22-26-23.466-26.133-.8-.133.4 1.733 2.666 4.133ZM64 185.2c0 .8.533 1.733 1.333 2.133.8.4.934-.133.534-1.2-.934-2.4-1.867-2.8-1.867-.933ZM148.133 191.867c-2.533 1.6-1.2 11.066 2.934 20.8 2 4.4 3.6 7.2 3.6 6.266 0-.933-1.467-5.2-3.334-9.6-4-9.333-4.266-15.333-.933-17.2 1.2-.8 1.733-1.333.933-1.466-.666 0-2.133.533-3.2 1.2ZM64 193.2c0 .8.533 1.733 1.333 2.133.8.4.934-.133.534-1.2-.934-2.4-1.867-2.8-1.867-.933ZM142.4 194.267c.933.4 2.133.266 2.533-.134.534-.4-.266-.8-1.733-.666-1.467 0-1.867.4-.8.8ZM64 201.2c0 .8.533 1.733 1.333 2.133.8.4.934-.133.534-1.2-.934-2.4-1.867-2.8-1.867-.933Z"/></svg>