<svg xmlns="http://www.w3.org/2000/svg" width="40" height="40" fill="#000000"><g clip-path="url(#a)"><path fill="url(#b)" d="M8.236 18.785a.897.897 0 0 0 .295 1.236c.134.081.288.124.444.124h9.985a.414.414 0 0 1 .367.218.43.43 0 0 1-.01.432l-9.8 15.922a.352.352 0 0 1-.363.166.346.346 0 0 1-.13-.053 19.967 19.967 0 0 1-7.735-9.7 20.302 20.302 0 0 1-.573-12.465A20.043 20.043 0 0 1 7.53 4.277 19.556 19.556 0 0 1 19.08 0a.343.343 0 0 1 .307.179.356.356 0 0 1-.006.359zM30.753 3.423a.342.342 0 0 0-.493.107l-9.65 15.687a.43.43 0 0 0 .143.591.414.414 0 0 0 .212.06h9.985a.865.865 0 0 1 .764.458.898.898 0 0 1-.025.901L20.4 39.572a.284.284 0 0 0-.004.29.279.279 0 0 0 .25.138 19.56 19.56 0 0 0 11.342-4.342 20.042 20.042 0 0 0 6.7-10.253 20.3 20.3 0 0 0-.474-12.292 19.978 19.978 0 0 0-7.467-9.69z"/></g><defs><linearGradient id="b" x1="17.021" x2="24.146" y1="8.255" y2="38.424" gradientUnits="userSpaceOnUse"><stop offset=".18" stop-color="#757575"/><stop offset=".23" stop-color="#454545"/><stop offset=".31" stop-color="#454545"/><stop offset=".4" stop-color="#363636"/><stop offset=".51" stop-color="#242424"/><stop offset=".62" stop-color="#141414"/><stop offset=".74" stop-color="#0d0d0d"/><stop offset=".78"/></linearGradient><clipPath id="a"><path fill="#ffffff" d="M0 0h40v40H0z"/></clipPath></defs></svg>