<svg xmlns="http://www.w3.org/2000/svg" width="200" height="200" fill="#000000"><path fill-opacity=".098" fill-rule="evenodd" d="M61.666 59.074c-7.51 2.583-12.065 5.556-17.74 11.574-5.794 6.146-7.346 8.692-9.88 16.215-2.638 7.833-2.677 17.931-.1 26.21C35.909 119.382 42.38 130 44.261 130c.559 0 3.923-2.588 7.475-5.75s8.006-7.1 9.899-8.75l3.441-3-2.038-3.961c-3.415-6.638-2.453-15.259 2.279-20.421 5.002-5.457 8.275-6.07 32.683-6.121l22.5-.046 10.75-9.622C137.162 67.036 142 62.115 142 61.392s-2.332-2.007-5.182-2.853c-4.205-1.249-11.224-1.533-37.25-1.506-29.448.031-32.545.198-37.902 2.041m83.364 19.8-9.471 8.823 1.971 4.37c3.831 8.498 1.395 17.967-5.86 22.772l-4.018 2.661-23.705.3-23.705.299-11.14 10.075c-8.401 7.597-10.883 10.385-10.091 11.339C61.354 142.336 69.22 143 100.337 143c28.508 0 32.047-.185 37.808-1.975 24.799-7.707 37.144-35.239 26.361-58.793-3.016-6.588-7.096-12.243-8.807-12.207-.659.014-5.461 3.996-10.669 8.849"/><path fill-opacity=".27" fill-rule="evenodd" d="M64.618 58.082c-11.465 2.781-23.356 12.921-28.917 24.659-2.984 6.302-3.198 7.469-3.153 17.259.037 8.3.493 11.611 2.174 15.803 2.19 5.462 8.092 14.111 9.666 14.166.877.031 5.134-3.63 15.322-13.173l5.21-4.88-1.956-3.208c-2.35-3.853-2.64-12.514-.553-16.508 1.894-3.625 6.455-7.833 9.904-9.136C74 82.427 84.164 82 97.631 82h22.5l10.935-9.693C137.08 66.976 142 62.07 142 61.405c0-3.203-6.187-3.829-40-4.048-18.425-.119-35.247.207-37.382.725m80.443 20.795-9.439 8.806 1.864 3.908c4.012 8.414 1.516 18.392-5.816 23.248-4.003 2.652-4.097 2.663-27.839 3.161l-23.823.5-10.542 9.433c-6.328 5.662-10.423 10.059-10.245 11 .596 3.146 8.375 3.904 40.924 3.987 29.011.073 32.186-.087 38.154-1.931 7.298-2.254 16.713-8.671 21.013-14.322 11.738-15.427 11.794-37.862.131-53.152-1.474-1.933-3.189-3.499-3.812-3.479s-5.379 3.998-10.57 8.841"/><path fill-opacity=".416" fill-rule="evenodd" d="M145.518 78.613C140.283 83.35 136 87.64 136 88.148c0 .507.78 2.113 1.733 3.568 2.853 4.353 2.343 13.06-1.066 18.211-4.884 7.38-7.576 8.024-33.667 8.06l-22.5.032-10.5 9.559c-5.775 5.258-10.5 10.316-10.5 11.241 0 3.26 7.492 4.016 40.645 4.101 29.011.073 32.186-.087 38.154-1.931 12.851-3.969 24.578-15.877 28.323-28.761 2.43-8.357 1.568-22.023-1.858-29.463-2.81-6.106-7.435-12.765-8.865-12.765-.475 0-5.146 3.876-10.381 8.613"/><path fill-opacity=".235" fill-rule="evenodd" d="M145.625 78.619c-5.294 4.74-9.611 9.127-9.593 9.75.017.622.66 1.96 1.427 2.973 3.498 4.617 2.684 14.664-1.634 20.153-4.534 5.764-8.031 6.457-32.825 6.502l-22.5.04-10.5 9.62c-5.775 5.291-10.5 10.316-10.5 11.166 0 3.264 8.571 4.139 40.5 4.133 16.975-.003 32.445-.453 34.885-1.016 12.173-2.806 23.726-12.187 29.311-23.8 2.691-5.595 3.259-8.073 3.612-15.746.295-6.422-.048-10.708-1.164-14.546C165.039 82.328 157.789 70 156.147 70c-.494 0-5.228 3.878-10.522 8.619"/></svg>