<svg xmlns="http://www.w3.org/2000/svg" width="64" height="64" version="1.1" fill="#000000"><path fill-opacity=".125" d="M 22.396 1.418 C 8.608 5.734, -0.932 19.892, 0.238 34.304 C 2.223 58.757, 29.205 71.955, 49.674 58.485 C 55.302 54.782, 59.947 48.788, 62.063 42.500 C 62.803 40.300, 63.766 38.072, 64.204 37.550 C 65.170 36.397, 65.283 24.383, 64.319 25.347 C 63.945 25.722, 62.991 24.112, 62.199 21.769 C 56.722 5.566, 38.656 -3.671, 22.396 1.418 M 18.321 17.189 C 17.123 17.768, 15.580 19.599, 14.893 21.258 C 13.370 24.936, 15.020 28.595, 19.275 30.975 C 21.717 32.342, 22.283 32.342, 24.725 30.975 C 28.976 28.598, 30.630 24.935, 29.111 21.267 C 27.934 18.426, 24.360 15.918, 21.703 16.068 C 21.041 16.105, 19.520 16.609, 18.321 17.189 M 34.472 29.128 C 19.476 47.072, 18.739 48.009, 19.678 47.938 C 20.795 47.854, 47.323 16, 46.275 16 C 45.818 16, 40.506 21.908, 34.472 29.128 M 0.320 32 C 0.320 35.575, 0.502 37.038, 0.723 35.250 C 0.945 33.462, 0.945 30.538, 0.723 28.750 C 0.502 26.962, 0.320 28.425, 0.320 32 M 42.500 32.915 C 44.038 33.511, 44.636 34.939, 45.087 39.095 L 45.674 44.500 45.837 38.820 C 45.981 33.786, 46.256 33.090, 48.250 32.706 C 49.487 32.467, 48.250 32.243, 45.500 32.206 C 42.137 32.162, 41.155 32.394, 42.500 32.915" stroke="none" fill="#000000" fill-rule="evenodd"/><path fill-opacity=".247" d="M 23.951 1.303 C 14.895 3.863, 6.679 11.040, 2.687 19.878 C -0.216 26.304, -0.205 37.720, 2.710 44.176 C 5.683 50.759, 12.247 57.484, 18.853 60.716 C 26.180 64.301, 36.966 64.546, 44.176 61.290 C 53.171 57.227, 63 45.257, 63 38.363 C 63 37.128, 63.450 35.840, 64 35.500 C 64.550 35.160, 65 33.082, 65 30.882 C 65 28.470, 64.603 27.127, 64 27.500 C 63.441 27.845, 63 27.076, 63 25.755 C 63 18.856, 53.208 6.749, 44.519 2.905 C 38.845 0.395, 29.684 -0.318, 23.951 1.303 M 16.455 18.455 C 11.494 23.415, 15.009 32, 22 32 C 28.991 32, 32.506 23.415, 27.545 18.455 C 24.298 15.207, 19.702 15.207, 16.455 18.455 M 32.806 30.750 C 19.448 46.606, 18.396 48, 19.794 48 C 20.295 48, 25.835 41.836, 32.103 34.302 C 47.017 16.377, 47.307 16, 46.189 16 C 45.663 16, 39.641 22.637, 32.806 30.750 M 0.272 32 C 0.272 34.475, 0.467 35.487, 0.706 34.250 C 0.944 33.013, 0.944 30.988, 0.706 29.750 C 0.467 28.512, 0.272 29.525, 0.272 32 M 40.500 33 C 40.840 33.550, 41.766 34, 42.559 34 C 43.639 34, 44 35.378, 44 39.500 C 44 42.525, 44.450 45, 45 45 C 45.550 45, 46 42.525, 46 39.500 C 46 34.667, 46.242 34, 48 34 C 49.100 34, 50 33.550, 50 33 C 50 32.450, 47.723 32, 44.941 32 C 41.823 32, 40.119 32.384, 40.500 33" stroke="none" fill="#000000" fill-rule="evenodd"/><path fill-opacity=".304" d="M 26.223 1.051 C 11.520 3.986, 0.706 17.162, 0.706 32.141 C 0.706 37.777, 1.255 40.077, 3.873 45.395 C 13.336 64.617, 37.085 69.278, 53.249 55.086 C 57.429 51.416, 63 41.026, 63 36.899 C 63 35.370, 63.450 33.840, 64 33.500 C 64.550 33.160, 65 31.982, 65 30.882 C 65 29.782, 64.550 29.160, 64 29.500 C 63.421 29.858, 63 28.897, 63 27.219 C 63 22.991, 57.480 12.629, 53.249 8.914 C 45.904 2.465, 35.014 -0.703, 26.223 1.051 M 16.174 18.314 C 11.323 23.478, 14.864 32, 21.860 32 C 28.934 32, 32.753 22.935, 27.686 18.174 C 24.514 15.195, 19.043 15.261, 16.174 18.314 M 31.253 32.013 C 23.967 40.743, 18.415 48.138, 18.914 48.447 C 19.414 48.756, 22.247 46.194, 25.210 42.754 C 37.380 28.627, 47 17.054, 47 16.543 C 47 14.095, 42.600 18.416, 31.253 32.013 M 0.158 32 C 0.158 33.375, 0.385 33.938, 0.662 33.250 C 0.940 32.563, 0.940 31.438, 0.662 30.750 C 0.385 30.063, 0.158 30.625, 0.158 32 M 40 33 C 40 33.550, 40.900 34, 42 34 C 43.758 34, 44 34.667, 44 39.500 C 44 42.525, 44.450 45, 45 45 C 45.550 45, 46 42.525, 46 39.500 C 46 34.667, 46.242 34, 48 34 C 49.100 34, 50 33.550, 50 33 C 50 32.450, 47.750 32, 45 32 C 42.250 32, 40 32.450, 40 33" stroke="none" fill="#000000" fill-rule="evenodd"/><path fill-opacity=".572" d="M 25.500 1.615 C 13.539 4.464, 4.408 13.693, 1.622 25.750 C 0.364 31.194, 0.363 32.806, 1.618 38.250 C 4.428 50.434, 13.547 59.558, 25.728 62.373 C 31.168 63.630, 32.769 63.627, 38.388 62.345 C 50.161 59.660, 59.725 50.304, 62.111 39.140 C 62.774 36.038, 63.695 33.072, 64.158 32.550 C 65.234 31.335, 65.257 29.723, 64.188 30.384 C 63.742 30.660, 62.840 28.288, 62.184 25.113 C 60.731 18.075, 55.961 11.043, 49.549 6.484 C 45.570 3.656, 42.381 2.504, 33 0.506 C 32.175 0.330, 28.800 0.829, 25.500 1.615 M 17.888 16.500 C 11.630 19.901, 12.063 28.875, 18.616 31.613 C 22.099 33.068, 24.355 32.677, 27.365 30.098 C 31.872 26.235, 31.133 19.154, 25.941 16.470 C 22.467 14.673, 21.240 14.678, 17.888 16.500 M 31.915 31.022 C 24.537 39.833, 18.336 47.526, 18.135 48.117 C 17.934 48.708, 18.457 49.036, 19.297 48.846 C 20.687 48.531, 48 16.854, 48 15.557 C 48 12.899, 43.329 17.391, 31.915 31.022 M 40 32.448 C 40 33.333, 40.859 34, 42 34 C 43.758 34, 44 34.667, 44 39.500 C 44 43.722, 44.348 45, 45.500 45 C 46.652 45, 47 43.722, 47 39.500 C 47 34.593, 47.225 34, 49.083 34 C 50.303 34, 50.996 33.482, 50.755 32.750 C 50.515 32.021, 48.186 31.374, 45.171 31.198 C 41.034 30.956, 40 31.206, 40 32.448" stroke="none" fill="#000000" fill-rule="evenodd"/></svg>