<svg xmlns="http://www.w3.org/2000/svg" width="200" height="200" fill="#000000"><path fill-opacity=".031" fill-rule="evenodd" d="M87.75 58.695 42 86.331v55.532l11.467-6.324 11.468-6.324.282 10.642.283 10.643 11.75.282 11.75.281v-18.138c0-14.596-.257-18.04-1.318-17.633-.724.278-5.899 3.226-11.5 6.551L66 127.89v-26.693l34.477-21.349L134.954 58.5l.023-13.75c.013-7.562-.315-13.736-.727-13.72s-21.338 12.466-46.5 27.665M133 86.865l-22.5 13.764-.263 34.686c-.145 19.077.111 34.685.568 34.685s5.975-3.051 12.262-6.781l11.433-6.781.27-20.621.27-20.621 11.48-7.166 11.48-7.166V86.932c0-10.506-.307-13.92-1.25-13.882-.687.028-11.375 6.244-23.75 13.815"/><path fill-opacity=".093" fill-rule="evenodd" d="M87.761 58.837 42.022 86.5l-.011 27.25c-.006 14.988.246 27.25.559 27.25s5.457-2.7 11.43-6 11.116-6 11.43-6c.313 0 .57 4.965.57 11.033v11.033l11.25-.283 11.25-.283.273-17.75c.15-9.763.074-17.75-.17-17.75s-5.317 2.879-11.273 6.398l-10.83 6.398-.28-13.068c-.159-7.404.135-13.483.677-14.025.527-.527 15.953-10.268 34.281-21.648l33.322-20.69.278-13.682c.153-7.526-.072-13.644-.5-13.596s-21.361 12.535-46.517 27.75m45.996 27.898L111.013 100.5l-.006 34.865L111 170.23l2.25-1.454c1.237-.8 6.628-4.023 11.98-7.162l9.73-5.707.27-20.657.27-20.656 9.786-6.133c5.382-3.373 10.233-6.58 10.779-7.126.59-.59.88-6.557.714-14.68l-.279-13.686z"/><path fill-opacity=".13" fill-rule="evenodd" d="m87.5 59.397-45 27.253-.266 27.265-.266 27.265 8.766-4.723c4.821-2.597 10.228-5.599 12.016-6.671l3.25-1.949.009-13.669.01-13.668 33.976-21 33.976-21 .015-13.25c.007-7.288-.324-13.218-.736-13.179-.412.04-21 12.336-45.75 27.326M134 86.865l-22.5 13.764-.263 34.186c-.145 18.802.08 34.184.5 34.182s5.488-2.838 11.263-6.304l10.5-6.303.27-20.597.27-20.597 11.48-7.166 11.48-7.166V86.932c0-7.663-.113-13.909-.25-13.882S146.375 79.294 134 86.865m-57.75 35.42L66 128.425V150h22v-17c0-9.35-.338-16.967-.75-16.928-.412.04-5.362 2.836-11 6.213"/><path fill-opacity=".102" fill-rule="evenodd" d="M87.75 59.636 42 87.231v53.701l7.25-4.019c3.987-2.21 9.151-4.979 11.474-6.152l4.223-2.134.277-14.017.276-14.017 33.385-20.731c18.361-11.402 33.788-21.135 34.281-21.628s.77-6.588.615-13.544l-.281-12.649zm45.5 27.994L111 101.184v33.908c0 18.649.178 33.908.395 33.908s5.382-2.951 11.479-6.558l11.086-6.559.27-20.644.27-20.645 11.248-7.047 11.247-7.047.003-13.25c.001-7.287-.336-13.233-.748-13.212s-10.762 6.138-23 13.592m-56.481 34.647L66.037 128.5l-.018 10.75L66 150h22v-17c0-9.35-.112-16.988-.25-16.973-.138.014-5.079 2.827-10.981 6.25"/></svg>