<svg xmlns="http://www.w3.org/2000/svg" width="200" height="200" fill="#000000"><path fill-opacity=".086" fill-rule="evenodd" d="M73 2.591C39.298 12.443 13.746 37.787 3.31 71.712.79 79.904.606 81.754.591 99c-.018 21.135 1.202 27.362 8.356 42.627 13.248 28.271 38.296 48.591 69.113 56.068 11.108 2.695 34.574 2.464 45.659-.451C162.032 187.173 188.9 159.5 198.717 120c1.795-7.225 2.951-34.944 1.497-35.908-.491-.326-1.43-3.365-2.086-6.754-.657-3.389-2.717-10.042-4.579-14.785-11.282-28.738-37.308-52.169-66.687-60.04C118.459.262 115.656.01 99.5.056 83.366.101 80.619.364 73 2.591m14.549-.447c-28.484 3.651-55.021 22.482-67.826 48.13C2.914 83.942 8.579 124.228 33.921 151.235c12.299 13.106 25.203 20.951 42.684 25.949 10.469 2.993 33.342 3.275 43.395.535 27.32-7.446 47.151-23.15 58.998-46.719 22.307-44.378 4.635-98.062-39.498-119.99-10.255-5.096-23.708-8.99-31.098-9.003L104.303 2l-.208 7.122-.208 7.122 4.807-.8c2.643-.44 6.156-.832 7.806-.872 2.935-.07 3.007.045 3.307 5.321l.307 5.393-7.557-.685-7.557-.684v15.916c0 8.754.276 17.299.614 18.988l.614 3.071 4.136-1.617c6.611-2.586 12.342-6.972 16.765-12.83 3.056-4.047 3.841-5.777 3.052-6.726-.783-.944.037-3.167 3.129-8.484 2.305-3.962 4.528-7.211 4.94-7.22s.75 4.987.75 11.102c0 10.461-.113 11.087-1.916 10.615-1.53-.4-2.933 1.164-6.97 7.769-5.749 9.408-8.972 12.461-17.694 16.762-6.009 2.963-6.21 3.194-8.433 9.636-1.252 3.631-2.587 6.954-2.967 7.386s-2.04-2.27-3.69-6.004l-2.999-6.79-8.491-4.208c-10.003-4.956-13.031-7.738-17.014-15.627-2.784-5.515-3.056-5.758-4.75-4.225-1.699 1.538-1.831 1.373-2.436-3.042-.877-6.395-.807-17.399.11-17.343.413.026 2.876 3.002 5.474 6.614 3.74 5.199 4.522 6.946 3.754 8.38-.797 1.491-.039 2.636 4.276 6.455 6.067 5.369 10.707 7.955 15.996 8.915l3.75.681V23.962l-2.75.616A261 261 0 0 0 86 26.091c-6.83 1.752-7 1.613-7-5.719v-6.628l4 .628 8 1.256 4 .628V8.628c0-4.195-.112-7.571-.25-7.502-.138.07-3.378.528-7.201 1.018M134 76.099c0 8.811-5.458 12.996-18.14 13.911-7.897.57-9.009.914-12.306 3.808-1.993 1.75-3.971 3.182-4.396 3.182s-2.134-1.931-3.798-4.292C92.041 87.999 87.503 86 80.134 86c-4.571 0-5.198.854-2.064 2.812 1.139.711 3.151 3.624 4.471 6.473l2.4 5.18-7.721 1.638c-19.355 4.105-27.574 5.334-27.959 4.179-.995-2.984-6.724-9.599-11.009-12.711C33.573 90.173 26 87.392 26 89.073c0 .473 1.815 3.667 4.032 7.099 2.218 3.431 4.297 7.292 4.62 8.579 1.275 5.078-.327 12.814-4.483 21.657-2.303 4.899-3.953 9.141-3.667 9.428 1.557 1.556 17.132-9.332 22.204-15.522 4.116-5.023 4.917-5.113 16.044-1.8 5.733 1.707 6.497 3.247 3.154 6.361l-2.096 1.952 2.03 1.087c3.06 1.637 8.155 1.272 13.013-.932 2.393-1.086 4.716-1.749 5.162-1.474 3.445 2.129 26.002 6.665 35.737 7.187 10.212.547 11.25.779 11.25 2.519 0 2.431-1.782 5.819-4.157 7.903-2.442 2.144-2.324 2.883.461 2.883 6.081 0 17.696-8.583 17.696-13.077 0-1.058.475-1.923 1.055-1.923s2.943-.853 5.25-1.896a340 340 0 0 1 8.193-3.553c2.199-.911 6.924-3.306 10.5-5.322l6.502-3.667-5-1.145-5-1.145 3-1.163c7.682-2.977 8.56-3.447 7.806-4.177-1.923-1.86-16.973-9.358-23.033-11.476l-6.624-2.314-2.575-6.908c-2.723-7.307-5.005-10.718-9.047-13.52-3.43-2.378-4.027-2.173-4.027 1.385M.4 99.5c.001 8.25.156 11.492.344 7.204.188-4.287.187-11.037-.002-15C.552 87.742.399 91.25.4 99.5"/><path fill-opacity=".159" fill-rule="evenodd" d="M74.165 2.564c-34.498 9.124-62.078 37.085-71.304 72.29C.311 84.586-.651 103.926.915 114c5.263 33.869 26.662 62.308 57.658 76.629C71.697 196.693 82.996 199 99.563 199c16.015 0 24.252-1.358 36.18-5.966 32.882-12.704 56.327-41.044 63.339-76.568 1.575-7.977 2.287-27.336 1.101-29.909-.522-1.131-1.742-5.657-2.71-10.057-3.919-17.801-12.581-33.476-25.973-46.997C158.955 16.837 146.564 9.028 131 3.981 120.985.732 115.059 0 99.201.048c-13.408.04-17.064.408-25.036 2.516M85 2.168C54.137 6.54 25.343 30.669 14.818 60.978c-4.996 14.387-6.261 33.027-3.246 47.814 7.064 34.644 34.861 62.433 69.636 69.616 9.608 1.984 27.044 2.034 36.161.102 43.525-9.222 73.678-48.344 71.299-92.51-1.262-23.439-10.176-43.002-27.11-59.5-14.319-13.949-32.273-22.508-52.308-24.933L104 .931v15.856l3.75-.788a258 258 0 0 1 7.5-1.439l3.75-.651v11.065l-7.658-.647-7.659-.647.65 5.41c.357 2.975.654 11.598.658 19.16.007 10.334.32 13.748 1.259 13.74.688-.005 3.588-1.098 6.445-2.428 9.007-4.194 19.899-15.937 17.482-18.849-.733-.883.265-3.286 3.533-8.507 2.504-4.002 4.764-7.065 5.022-6.807s.145 5.234-.252 11.057c-.557 8.164-1.001 10.356-1.943 9.575-.905-.752-2.615 1.349-6.629 8.145-5.739 9.718-9.488 13.25-18.544 17.472-4.781 2.229-5.293 2.824-7.405 8.623-1.249 3.426-2.597 6.604-2.998 7.062-.4.458-2.197-2.354-3.992-6.25C95.173 77.187 93.284 74 92.771 74c-1.945 0-15.387-7.27-17.972-9.72-1.485-1.408-3.96-5.084-5.5-8.17-1.539-3.085-2.919-5.805-3.066-6.043s-.799.099-1.45.75c-2.267 2.267-2.652 1.12-2.967-8.819-.174-5.502-.001-9.889.385-9.75s2.714 2.947 5.174 6.241c3.527 4.724 4.229 6.283 3.322 7.376-.919 1.107-.026 2.434 4.421 6.574 5.995 5.58 10.951 8.373 16.433 9.263l3.449.56V43.131c0-10.522-.338-19.115-.75-19.096s-3.675.679-7.25 1.465-6.838 1.446-7.25 1.465S79 24.075 79 20.5s.338-6.499.75-6.499c.412.001 4.013.624 8 1.384L95 16.768V8.884c0-8.907.952-8.268-10-6.716m48.996 74.547c-.008 8.562-6.463 13.378-18.428 13.751-7.526.235-9.917 1.053-12.984 4.441-2.742 3.03-4.865 2.583-7.056-1.484-1.059-1.968-3.26-4.267-4.889-5.11C86.948 86.405 76 85.268 76 86.794c0 .589.878 1.35 1.952 1.691 1.866.592 7.821 11.075 6.845 12.051-.258.258-8.081 2.021-17.383 3.916L50.5 107.899l-1.491-2.2C43.313 97.3 32.892 89 28.04 89c-2.676 0-2.634.169 1.457 5.862 4.719 6.569 6.791 12.638 6.02 17.628-.34 2.195-2.625 8.228-5.078 13.407-2.453 5.178-4.257 9.618-4.009 9.866.528.528 9.681-4.615 14.164-7.957 5.309-3.958 11.67-11.942 10.471-13.141-.586-.586-1.065-1.578-1.065-2.205 0-2.044 13.099-3.437 29.5-3.137 15.656.286 16.091.353 20.242 3.112 4.77 3.171 8.676 4.078 22.008 5.108 8.367.647 9.25.55 9.25-1.01 0-.948.769-3.027 1.71-4.619 2.353-3.984.927-5.108-7.427-5.854-6.44-.576-6.581-.641-2.783-1.292 2.2-.378 6.98-.986 10.622-1.352l6.621-.666.467 9.375c.305 6.132.09 9.638-.622 10.134-1.161.81-14.041.212-29.588-1.373-18.773-1.914-29.862-2.246-31.435-.94-.915.759-2.648.975-4.525.563-2.415-.531-3.176-.291-3.693 1.161-.358 1.007-1.352 2.645-2.209 3.641-1.357 1.577-1.37 1.93-.098 2.735 2.402 1.519 7.384 1.083 12.657-1.109l4.964-2.063 11.419 3.127c8.843 2.421 14.297 3.258 24.17 3.707 7.012.318 12.747.852 12.744 1.186-.023 2.509-2.362 8.129-4 9.611-4.93 4.462-.902 4.629 7.221.3 6.199-3.304 8.78-6.082 9.056-9.749.104-1.382 1.047-2.337 2.694-2.729 4.119-.98 4.2-1.316 1.07-4.445-4.766-4.767-6.099-13.862-2.933-20.012 1.249-2.425 6.636-1.033 8.207 2.121 1.61 3.231 4.028 3.637 6.413 1.077 1.847-1.982 2.139-1.998 9.745-.543 4.313.825 8.032 1.309 8.266 1.075.624-.624-21.037-11.311-25.845-12.752-2.468-.739-4.425-2.051-4.908-3.289-.443-1.132-1.773-4.591-2.958-7.685-2.134-5.576-5.434-9.555-9.772-11.787-2.141-1.101-2.25-.973-2.254 2.628M.382 99.5c.002 6.6.164 9.17.359 5.711.196-3.459.195-8.859-.003-12S.38 92.9.382 99.5"/><path fill-opacity=".286" fill-rule="evenodd" d="M83 .643C43.314 8.256 12.586 37.392 2.796 76.693c-3.258 13.077-3.061 34.122.442 47.318 7.753 29.198 26.395 51.963 53.262 65.041 16.725 8.141 22.905 9.458 44 9.38 16.583-.062 18.691-.279 26.782-2.754 17.832-5.457 32.361-14.327 44.72-27.302 14.486-15.209 22.522-30.908 26.687-52.137 2.052-10.463 2.833-25.117 1.414-26.536-.607-.607-1.106-2.25-1.11-3.653-.015-5.474-4.273-19.909-8.512-28.858C177.848 30.522 155.528 11.464 127 2.988c-6.209-1.845-10.426-2.28-24.5-2.526C93.15.298 84.375.379 83 .643m-2.5 2.013c-31.183 6.65-57.381 30.558-66.877 61.032C10.369 74.132 8.685 87.553 9.508 96.5c3.123 33.991 21.708 61.184 51.564 75.448 12.773 6.102 22.977 8.357 37.928 8.381 27.023.044 51.015-10.679 67.975-30.38C181.773 132.757 189 113.25 189 90.5c0-23.636-7.833-43.515-23.921-60.711-15.22-16.267-34.645-26.311-55.001-28.439L104 .715v8.259c0 8.08.049 8.246 2.25 7.646 1.237-.338 4.612-.902 7.5-1.255l5.25-.64v9.795l-7.25-.585c-3.987-.321-7.415-.461-7.617-.309-.203.152-.038 8.848.365 19.325C105.06 57.55 105.535 62 106.533 62c2.392 0 9.925-3.726 13.763-6.807 5.25-4.215 12.473-13.437 10.929-13.951-.674-.225-1.225-.866-1.225-1.425C130 38.761 137.013 27 137.642 27c.197 0 .358 4.555.358 10.122 0 8.583-.214 9.945-1.406 8.956-1.149-.953-2.276.297-6.174 6.851-5.826 9.793-8.914 12.869-17.845 17.77-6.805 3.736-6.968 3.92-9.456 10.738l-2.532 6.937-2.94-6.696-2.94-6.695-9.444-4.625c-10.041-4.917-12.966-7.791-16.736-16.45-1.056-2.424-2.054-4.593-2.217-4.819s-1.2.407-2.304 1.405C62.01 52.301 62 52.257 62 41.967V31.625l4.577 6.158c3.148 4.237 4.388 6.753 3.972 8.062-.831 2.62 7.413 10.726 13.951 13.717 5.23 2.392 10.375 3.469 10.454 2.188.025-.413.046-9.242.046-19.622V23.257l-7.75 1.837c-4.263 1.011-7.862 1.853-8 1.872S79 24.238 79 20.862v-6.137l5.708.671c3.14.369 6.74.929 8 1.246 2.248.564 2.292.42 2.292-7.534V1l-3.75.082c-2.062.044-6.9.753-10.75 1.574m53.793 74.978c-.222 7.85-6.539 12.305-18.798 13.259-7.192.559-8.817 1.033-11.204 3.268-4.427 4.146-6.528 4.302-8.349.619-2.394-4.84-6.222-7.137-12.97-7.783-6.387-.61-7.188-.237-3.899 1.817 2.107 1.315 5.865 8.443 5.905 11.198.033 2.238-34.812 8.859-36.081 6.856-.476-.752-.873-1.657-.882-2.01-.008-.353-2.143-3.009-4.745-5.902-4.262-4.741-12.591-9.919-15.998-9.946-.676-.006.538 2.722 2.696 6.062 7.588 11.74 7.678 16.612.581 31.593l-4.454 9.401 6.203-3.247c3.551-1.859 9.091-6.149 12.96-10.035 6.111-6.137 6.637-6.981 5.5-8.816-1.029-1.659-1.003-2.187.14-2.899 2.825-1.758 15.98-2.826 30.102-2.443 12.056.326 14.921.7 17 2.22 4.935 3.61 7.438 4.393 18.389 5.754 13.373 1.663 14.917 1.703 14.091.367-.351-.568.297-2.619 1.441-4.557 1.143-1.938 2.079-3.702 2.079-3.92 0-.985-8.1-2.49-14-2.602l-6.5-.123 5-.861c9.813-1.688 19.78-2.734 21.129-2.216 1.026.393 1.371 2.875 1.371 9.854 0 13.713 2.59 19.194 8.152 17.255l2.988-1.041-2.448-2.628c-3.619-3.886-4.692-6.495-4.692-11.413 0-5.821 1.761-10.719 3.848-10.701 3.589.029 6.054 1.287 6.346 3.236.168 1.125 1.139 2.542 2.157 3.148 1.528.91 2.198.647 3.839-1.505 1.982-2.6 2.007-2.604 8.149-1.286 3.388.728 6.836 1.316 7.661 1.308 2.253-.023-14.588-8.499-21.734-10.939-6.125-2.091-6.26-2.217-7.738-7.194-2.113-7.116-6.094-13.506-9.517-15.276-3.786-1.958-3.599-2.065-3.718 2.128M.355 99.5c-.003 4.95.166 7.101.376 4.78.209-2.321.212-6.371.005-9-.206-2.629-.378-.73-.381 4.22m68.919 24.175-2.227 3.392 2.542.967c3.616 1.375 5.319 1.191 10.411-1.122 5.064-2.301 4.757-2.755-3.5-5.168l-5-1.461zm67.976 8.048c-2.45.304-3.25.896-3.25 2.406 0 2.459-1.588 5.644-4.296 8.617-2.824 3.101-1.855 3.525 3.715 1.627 5.597-1.907 12.581-8.134 12.581-11.218 0-2.26-.895-2.406-8.75-1.432"/><path fill-opacity=".185" fill-rule="evenodd" d="M88.25.689c.963.252 2.537.252 3.5 0 .963-.251.175-.457-1.75-.457s-2.713.206-1.75.457m7.577 7.948.328 8.641-5.218-.692c-2.869-.381-6.504-.949-8.077-1.264L80 14.75v5.625c0 6.351-.267 6.222 8.5 4.105 3.3-.797 6.338-1.456 6.75-1.464S96 32.05 96 43.111v20.112l-3.75-.691c-6.43-1.183-11.623-4.035-17.773-9.76-4.871-4.534-5.716-5.779-4.729-6.969.975-1.174.402-2.543-3.023-7.221L62.5 32.81l-.33 3.845c-.181 2.115-.033 6.233.329 9.152.556 4.478.885 5.119 2.104 4.107 1.757-1.458 1.49-1.746 5.178 5.586 3.849 7.651 6.311 9.888 16.46 14.955 7.999 3.994 8.357 4.325 11.357 10.508l3.097 6.384 2.403-6.746 2.402-6.746 7.759-4.043c8.745-4.558 11.029-6.912 17.481-18.016 3.635-6.256 4.809-7.585 5.899-6.681 1.132.94 1.361-.524 1.361-8.715 0-10.834.145-10.797-5.331-1.336-1.915 3.309-2.34 4.865-1.545 5.66 1.375 1.375-3.326 8.49-8.768 13.268-4.229 3.713-16.08 9.616-17.155 8.544-.386-.384-.84-9.458-1.011-20.164l-.31-19.466 7.56.685c7.496.679 7.56.665 7.546-1.703-.03-5.25-1.084-7.021-3.866-6.492-1.441.273-4.532.786-6.87 1.138l-4.25.642V0l-4.25-.002-4.25-.003zm11.935-7.93c1.244.239 3.044.23 4-.02S111.7.241 109.5.252s-2.982.216-1.738.455m-26.012.955c.688.278 1.813.278 2.5 0 .688-.277.125-.504-1.25-.504s-1.937.227-1.25.504m33.519.031c.973.254 2.323.237 3-.037s-.119-.481-1.769-.461-2.204.244-1.231.498m-38.456.99c.721.289 1.584.253 1.916-.079s-.258-.568-1.312-.525c-1.165.048-1.402.285-.604.604m50.764 2.179C158.021 15.281 179.633 39.115 187.548 71c2.643 10.648 2.421 30.534-.464 41.5-2.328 8.85-8.287 22.028-13.172 29.128-7.704 11.197-22.371 24.04-34.412 30.132-23.329 11.804-54.387 12.079-78.411.697C24.413 155.08 3.447 114.964 10.415 75.5c5.12-28.992 23.357-53.108 50.012-66.137 10.5-5.131 9.779-5.905-.903-.97C37.15 18.731 20.21 35.472 9.934 57.399c-12.739 27.184-12.515 57.933.62 85.261C21.319 165.056 39.577 182.131 63 191.709c13.399 5.478 19.945 6.664 37 6.702 17.34.039 24.686-1.393 39.772-7.755 27.284-11.508 49.337-37.298 56.707-66.318 3.869-15.236 4.615-25.882 2.618-37.338-4.281-24.554-12.281-40.943-27.597-56.541-9.335-9.506-16.705-15.02-27.045-20.233-6.368-3.211-20.834-8.26-23.427-8.177-.841.027 2.107 1.292 6.549 2.813m7.14 73.209c-1.141 8.509-7.395 12.868-18.517 12.907-6.199.022-10.702 1.512-13.024 4.31-1.005 1.211-.406 1.203 4.073-.051 5.788-1.621 29.381-2.251 36.501-.975 4.947.887 4.984.774 2.172-6.74-2.136-5.709-5.791-10.847-8.903-12.512-1.52-.813-1.839-.389-2.302 3.061M79.591 88.734c.954.953 2.835 4.14 4.182 7.081 2.651 5.791 3.134 5.926 10.334 2.881l2.828-1.196-1.657-3.384c-1.947-3.975-7.862-7.061-13.599-7.094-3.626-.021-3.733.067-2.088 1.712M30 94.5c1.821 2.646 4.141 6.998 5.156 9.67 2.293 6.033 1.542 10.119-4.107 22.345l-3.949 8.549 6.189-3.282c7.541-3.999 18.136-14.306 17.139-16.673-.373-.885-1.012-3.298-1.42-5.362C47.503 102.12 37.4 91.83 29.957 90.341l-3.268-.653zm-29.714 5c.008 2.75.202 3.756.432 2.236s.223-3.77-.014-5-.425.014-.418 2.764m156.258 3.844c-2.762 2.02-1.364 6.656 2.007 6.656 3.304 0 4.906-3.731 2.683-6.25-1.856-2.103-2.314-2.143-4.69-.406m-58.799 3.35-3.754.427 2.754 2.299c4.65 3.88 8.412 5.296 17.164 6.461 14.26 1.898 15.29 1.72 17.475-3.015 2.267-4.913 1.448-5.808-5.384-5.888-2.475-.029-9-.201-14.5-.381-5.5-.181-11.69-.137-13.755.097M70.182 123.5c-.627 1.375-1.711 2.507-2.411 2.515-.876.011-.805.317.229.985 2.342 1.514 8.774 1.169 12.3-.66l3.2-1.659-5-1.763c-6.649-2.345-6.996-2.32-8.318.582M143 131.769c-7.917.856-9 1.294-9 3.637 0 1.273-1.149 4.007-2.552 6.076l-2.553 3.761 2.803-.69c4.817-1.186 11.224-5.501 12.857-8.66 1.928-3.727 1.647-4.47-1.555-4.124"/></svg>