<svg xmlns="http://www.w3.org/2000/svg" width="24" height="24" fill="#000000"><g clip-path="url(#a)"><path fill="#595959" d="M12 24.001c6.628 0 12.001-5.373 12.001-12 0-6.628-5.373-12.001-12-12.001C5.373 0 0 5.373 0 12c0 6.628 5.373 12.001 12 12.001"/><path fill="#ffffff" d="M13.998 18.739v-.742l.033-6.686c0-.78.006-.78.8-.777l3.223.015.02-4.059c-1.466-.007-2.892-.02-4.318-.018a3.195 3.195 0 0 0-.821.082c-1.888.52-3.06 2.054-3.076 4.034-.022 2.507-.028 5.014-.037 7.516 0 .192.02.384.033.608zm-8.041-8.293c2.129.38 4.466-2.175 3.965-3.951l-3.946-.018z"/><path fill="#ffffff" d="m13.998 18.74-4.14-.02c-.012-.224-.034-.416-.033-.608.01-2.508.016-5.015.037-7.516.017-1.98 1.188-3.514 3.076-4.034.269-.063.545-.09.821-.082 1.426 0 2.853.01 4.319.018l-.02 4.06-3.224-.016c-.794 0-.795 0-.8.777l-.032 6.686zM5.957 10.445l.02-3.968 3.945.017c.5 1.782-1.836 4.331-3.965 3.951"/></g><defs><clipPath id="a"><path fill="#ffffff" d="M0 0h24v24H0z"/></clipPath></defs></svg>