<svg xmlns="http://www.w3.org/2000/svg" width="200" height="200" fill="#000000"><path fill-opacity=".231" fill-rule="evenodd" d="M89.5 46.326c-1.65.646-4.428 2.636-6.173 4.424-1.946 1.994-4.163 3.25-5.733 3.25-1.659 0-4.161 1.535-7.114 4.364-4.468 4.281-4.598 4.331-6.791 2.606C60.618 58.554 48.587 52 47.224 52c-.625 0-.901.982-.633 2.25 1.891 8.927 2.116 11.697 1.355 16.662-.471 3.073-1.532 8.032-2.358 11.019s-1.807 8.525-2.18 12.305l-.677 6.874-5.116-.56c-2.813-.309-6.69-.195-8.615.252-3.141.73-2.548.945 5.771 2.096 8.622 1.194 9.375 1.484 10.75 4.143 1.964 3.797 1.92 3.936-1.271 4.101-2.152.111-1.88.3 1.25.867 2.351.426-.947.606-8 .435-6.6-.16-10.425-.017-8.5.316l3.5.607-4 .729c-2.2.401 1.918.514 9.15.251 7.512-.274 13.395-.084 13.72.442.313.507-.919 2.674-2.737 4.816-5.79 6.821-9.633 12.637-9.633 14.58 0 1.575.329 1.709 2 .815 2.333-1.249 2.691.182.5 2-2.195 1.821-1.997 5.407.25 4.534 4.357-1.692 13.283-2.69 18.944-2.117 3.407.345 12.407 2.354 20 4.464 28.679 7.971 30.039 8.017 41.806 1.397 1.1-.619 9.826-4.848 19.392-9.398 14.547-6.919 18.392-8.342 23.5-8.695 6.655-.46 9.825-1.925 7.264-3.358-.888-.497-1.255-1.644-.927-2.898.397-1.52-.622-3.263-3.801-6.503L163.584 110l3.958-.15 3.958-.15-4.5-.7-4.5-.7 4.5-.318c4.252-.301 4.304-.339.956-.698l-3.545-.38.388-6.702c.248-4.295.912-7.115 1.847-7.851 1.166-.917 1.197-1.271.157-1.756-.717-.334.047-.373 1.697-.087 2.451.424 2.676.323 1.23-.555-.974-.591-2.555-.826-3.514-.522-1.445.459-2.126-.781-3.98-7.248-2.62-9.139-2.798-14.604-.736-22.522.825-3.167 1.5-6.139 1.5-6.603 0-1.999-15.95 3.346-21.251 7.121l-2.914 2.075-4.168-3.972c-6.168-5.88-20.778-12.264-23.292-10.178-1.012.84-2.34.595-5.39-.995-4.506-2.348-11.62-2.686-16.485-.783m-2.811 42.983c-4.672 2.128-4.798 2.298-4.35 5.904.573 4.616 3.672 11.025 5.628 11.638 1.273.399 1.268.142-.036-1.945-.953-1.526-1.307-3.687-.967-5.906.73-4.763 4.766-5.43 7.998-1.322l2.193 2.789-.728-2.983c-.401-1.641-1.317-3.333-2.036-3.76s-1.092-1.34-.827-2.029c.264-.689-.092-2.001-.792-2.915-1.176-1.537-1.634-1.497-6.083.529M24.25 99.689c.962.252 2.538.252 3.5 0 .962-.251.175-.457-1.75-.457s-2.712.206-1.75.457m10.019 2.004c.973.254 2.323.237 3-.037s-.119-.481-1.769-.461-2.204.244-1.231.498m81.304 3.828c-1.06.802-1.686 1.699-1.392 1.994s1.612-.361 2.927-1.457c2.735-2.277 1.388-2.748-1.535-.537m-8.527 2.034c1.23 1.482 1.043 1.963-1.575 4.058-3.592 2.874-3.184 2.859-7.429.272-3.286-2.004-3.363-2.177-1.559-3.497 1.828-1.336 1.815-1.388-.342-1.388-2.724 0-8.141 2.679-8.141 4.026 0 .536-.505.974-1.122.974-.826 0-.829-.355-.008-1.343.865-1.042.556-1.597-1.378-2.479-2.044-.931-2.492-.87-2.492.343 0 .814.563 1.508 1.25 1.542s.125.566-1.25 1.18c-2.442 1.09-2.407 1.132 1.5 1.795 2.737.464 3.211.736 1.5.86l-2.5.182 2.995 1.62c1.647.891 5.022 1.583 7.5 1.538s7.466-.105 11.085-.132c5.258-.04 7.153-.501 9.437-2.298l2.857-2.248-2.437-.68-2.437-.681 2.691-.099c2.907-.108 4.318-1.467 3.275-3.154-.433-.701-1.446-.534-3.023.5-1.305.855-2.951 1.547-3.658 1.539-.993-.012-.977-.211.072-.875 1.558-.988.833-1.548-3.282-2.535-2.657-.637-2.797-.547-1.529.98m-3.313.569c.679.684 1.486.991 1.793.683.308-.308-.247-.867-1.233-1.243-1.425-.542-1.54-.428-.56.56m28.535 3.11c-7.028 1.999-7.249 2.159-7.821 5.661-1.596 9.77-4.678 17.571-8.422 21.315-3.424 3.424-4.297 3.79-9.039 3.79-8.828 0-12.6-3.386-21.272-19.097-4.641-8.41-5.165-8.772-10.658-7.384-2.859.723-3.991 1.403-3.174 1.908.698.431 5.446 6.029 10.552 12.439s10.095 12.325 11.088 13.144c1.699 1.402 1.728 1.345.491-.976l-1.314-2.465 3.121 2.626c1.717 1.445 5.43 3.122 8.252 3.727 8.678 1.861 14.364-.748 18.355-8.422l1.561-3 .006 2.75c.003 1.512.409 2.75.902 2.75 1.522 0 6.801-9.108 10.07-17.378 1.713-4.333 3.783-9.17 4.6-10.75 1.722-3.33 2.06-3.3-7.298-.638m-114.455 2.449c.721.289 1.584.253 1.916-.079s-.258-.568-1.312-.525c-1.165.048-1.402.285-.604.604"/><path fill-opacity=".245" fill-rule="evenodd" d="M87.25 50.242c-1.237.585-2.25 1.535-2.25 2.111 0 .644.461.586 1.2-.153 1.532-1.532 3.8-1.552 3.8-.033 0 .641-.284.882-.631.535s-1.573.028-2.723.833c-1.15.806-2.865 1.465-3.812 1.465s-2.532 1.373-3.524 3.052c-1.208 2.046-2.382 2.901-3.558 2.593-.965-.252-1.522-.082-1.237.379s.08 1.108-.455 1.439-.74 1.208-.455 1.95c.33.861-.68 1.752-2.794 2.464-3.266 1.101-3.281 1.093-1.087-.63 2.405-1.889 1.802-4.808-.676-3.276-.954.589-3.176-.339-6.974-2.912-6.46-4.378-14.072-8.395-14.706-7.761-.24.241.017 2.41.573 4.82 1.528 6.627 1.268 10.446-1.453 21.38C45.12 83.996 44 91.353 44 94.846v6.35l-6.25-.539-6.25-.539 6.269 1.191c5.745 1.092 6.471 1.525 8.686 5.191l2.418 4-3.186.618c-3.04.59-2.997.625.941.75 5.965.191 6.863 1.884 3.257 6.14C46.404 122.116 39 132.634 39 133.471c0 .319 1.35-.118 3-.971 3.655-1.89 3.788-.957.5 3.5-1.375 1.864-2.5 3.523-2.5 3.688 0 .301 4.282-.365 4.75-.739 1.579-1.259 21.508-1.159 24.25.122.275.129.95.32 1.5.425.55.106 2.253.707 3.785 1.337 1.531.629 3.106 1.096 3.5 1.037.393-.059 1.053.003 1.465.137.412.133 1.088.337 1.5.452s2.025.737 3.584 1.382 3.215.938 3.681.65 1.148-.036 1.517.561c.369.596 1.285.848 2.037.56.752-.289 1.655-.058 2.008.513.353.57 1.69.774 2.971.452 1.281-.321 2.613-.125 2.96.436s1.018.78 1.492.487 1.144-.075 1.49.484c.345.559 2.825 1.016 5.51 1.016s5.165-.457 5.51-1.016c.346-.559 1.009-.781 1.474-.494s2.234-.644 3.931-2.072c1.696-1.427 3.647-2.68 4.334-2.785.688-.104 1.814-.541 2.501-.97.687-.43 1.25-.493 1.25-.141s6.013-2.534 13.362-6.413c7.349-3.878 13.649-6.765 14-6.414s.638.113.638-.528c0-.642.338-1.114.75-1.049s.975.031 1.25-.076c2.25-.877 6.927-1.523 13.75-1.898l3.75-.206-4-2.464c-3.873-2.385-3.924-2.9-.25-2.526 2.784.283 2.102-1.029-3.466-6.667L161.568 108l4.466-.168 4.466-.168-3.832-.397c-3.142-.326-3.702-.701-3.111-2.082 2.07-4.838 1.653-13.267-1.086-21.929-3.162-9.998-3.528-18.022-1.183-25.879l1.529-5.123-3.852.865c-7.281 1.636-14.987 5.153-20.829 9.504-.2.15.601 1.498 1.78 2.997 1.655 2.104 1.852 2.91.864 3.537-.955.606-.971.816-.061.828.67.008.959.69.643 1.515-1.197 3.119 1.247 1.323 3.888-2.857 5.524-8.744 17.891-18.38 13.815-10.764-1.995 3.728-1.261 16.195 1.418 24.07 1.365 4.014 2.238 7.693 1.941 8.175-1.108 1.791-3.569.783-5.221-2.137-.965-1.707-3.176-3.549-5.1-4.25l-3.398-1.237 2.758-.5 2.758-.5-2.343-2c-2.156-1.84-2.225-1.847-.861-.084 1.386 1.791 1.32 1.875-1.017 1.298-1.375-.34-4.412-.922-6.75-1.294S139 78.366 139 77.904c0-.463.749-.554 1.664-.203 1.075.413 1.422.247.98-.467-.376-.609-1.462-1.139-2.414-1.179-6.251-.259-12.37-1.023-13.426-1.676-2.099-1.297-23.137-1.329-24.741-.037-1.167.94-1.314.829-.782-.592.482-1.285.148-1.75-1.253-1.75-1.051 0-2.188.45-2.528 1s-1.69 1-3 1-2.66.45-3 1-1.491 1-2.559 1S86 76.45 86 77s-.725 1-1.611 1c-1.227 0-1.048-.469.75-1.967 2.929-2.44 1.013-2.68-2.254-.283-1.312.963-3.96 2.621-5.885 3.686-2.957 1.636-3.287 1.675-2.128.25C76.055 78.234 76.02 78 74.622 78 73.73 78 73 78.603 73 79.339c0 1.931-4.079 3.439-7 2.588-1.375-.4-2.05-.807-1.5-.904 3.836-.676 4.87-1.036 7.017-2.442 1.327-.87 3.216-1.591 4.198-1.603S78.625 76.076 80 75s4.075-1.977 6-2.002c1.925-.026 5.469-.501 7.875-1.055 2.406-.555 7.535-1.196 11.397-1.424s7.52-.954 8.126-1.614c.816-.887.778-1.015-.148-.493-.687.388-1.25.229-1.25-.353s.787-1.066 1.75-1.074c1.496-.013 1.532-.157.25-.985-1.08-.698-1.135-.974-.198-.985.716-.008 1.773 1.335 2.348 2.985.757 2.171 1.687 3 3.366 3 1.276 0 3.145.309 4.152.687 1.613.605 1.668.485.46-1-1.223-1.503-1.086-1.687 1.25-1.687 1.574 0 2.622.556 2.622 1.393 0 2.064 2.318 2.579 4.483.996 1.638-1.198 1.671-1.389.24-1.389-1.138 0-1.459-.524-1.022-1.664.463-1.207.276-1.44-.683-.847-.836.516-1.796.168-2.612-.948-.709-.97-2.759-1.88-4.554-2.021s-3.414-.707-3.598-1.257c-.189-.569.872-.824 2.456-.591 2.09.306 1.803.036-1.144-1.077-2.164-.817-4.259-1.284-4.658-1.038-.398.246-1.777.025-3.066-.492-2.1-.841-2.135-.948-.342-1.033 1.867-.089 1.885-.183.266-1.413-.954-.724-1.483-1.569-1.175-1.877.878-.878-3.774-2.126-7.091-1.902l-3 .202 2.412-1.392c2.394-1.384 2.384-1.397-1.5-1.871-4.786-.584-6.457-.059-5.742 1.804.299.779.083 1.417-.481 1.417s-1.85.259-2.857.576c-1.711.537-1.716.501-.082-.55 2.461-1.583 2.177-2.928-.5-2.37l-2.25.469 2.342-1.397c2.326-1.388 2.32-1.398-1-1.473-1.838-.042-4.355.402-5.592.987M113 50c1.114.72 1.159.973.174.985-1.762.02 2.834 5.884 4.672 5.96 1.249.051 7.02 2.921 8.154 4.055.275.275 1.355.648 2.4.828 1.774.307 1.789.218.23-1.341-.919-.919-2.252-1.755-2.964-1.86-.712-.104-2.569-1.118-4.126-2.252l-2.831-2.062 3.123-.089c1.903-.054 3.034.373 2.895 1.094-.125.65.386 1.053 1.135.895.75-.159 1.994.516 2.765 1.5.938 1.195 1.314 1.318 1.137.37-.448-2.404-3.384-4.824-7.413-6.11-2.118-.676-4.885-1.621-6.148-2.101-3.117-1.183-5.109-1.104-3.203.128m-4.5 1c-.34.55.084 1 .941 1S111 51.55 111 51s-.423-1-.941-1-1.219.45-1.559 1m10.313 1.683c.721.289 1.584.253 1.916-.079s-.258-.568-1.312-.525c-1.165.048-1.402.285-.604.604m-43.927 4.365L71.5 60.096l4.25-2.149c2.338-1.182 4.25-2.553 4.25-3.048 0-1.643-1.692-.932-5.114 2.149m-24.591 6.684c-.04 4.272-1.022 11.655-2.184 16.405-2.075 8.487-2.835 20.319-1.361 21.186.413.243 2.102.731 3.754 1.085l3.003.643-.223-5.026c-.17-3.803.125-5.025 1.211-5.025 1.489 0 4.12-3.844 3.677-5.373-.14-.48.44-.606 1.287-.281.848.325 1.541.107 1.541-.484 0-.592.725-.798 1.611-.458 1.153.443 1.447.189 1.032-.893-.407-1.06.082-1.53 1.638-1.574l2.219-.064-2.239-.9c-1.895-.762-2.094-1.282-1.296-3.38.518-1.363.787-3.292.598-4.286-.202-1.056.722-2.609 2.222-3.736 2.132-1.603 2.461-1.654 1.942-.301-.44 1.146-.197 1.464.818 1.074.794-.304 1.218-.918.943-1.363-.275-.446.065-1.038.756-1.317s-.158-.542-1.887-.585c-2.002-.05-3.364.497-3.752 1.508-.467 1.217-1.514.458-4.485-3.25-2.132-2.66-5.423-6.308-7.314-8.105l-3.439-3.268zM104.5 57c-.34.55-.168 1 .382 1s1.278-.45 1.618-1 .168-1-.382-1-1.278.45-1.618 1M94 58c-.825.533-1.05.969-.5.969s1.675-.436 2.5-.969 1.05-.969.5-.969-1.675.436-2.5.969m8.624 5.2c.272.44 1.116.8 1.876.8s1.604-.36 1.876-.8-.572-.8-1.876-.8-2.148.36-1.876.8M113.5 63c-.789 1.277 2.524 1.277 4.5 0 1.173-.758.914-.973-1.191-.985-1.48-.008-2.969.435-3.309.985m-21.828 1.412c-.339.884.25 1.134 1.919.815 2.882-.551 3.182-1.743.49-1.946-1.056-.079-2.14.43-2.409 1.131m41.74 1.088c1.275 1.375 2.682 2.5 3.127 2.5s-.247-1.125-1.539-2.5-2.699-2.5-3.127-2.5.265 1.125 1.539 2.5m-51.007 1.655L80.5 69.31l2.75-1.77c2.836-1.825 3.372-2.54 1.905-2.54-.465 0-1.702.97-2.75 2.155m19.251-1.405c-.253.412.861.846 2.477.963 1.675.121 2.683-.202 2.344-.75-.703-1.138-4.157-1.29-4.821-.213m21.253.327c-.775.491-1.184.933-.909.982s1.513.278 2.75.509 2.25.02 2.25-.467c0-1.381-2.528-2.013-4.091-1.024m-47.034.423c-.069.275-.188.838-.265 1.25s-.518 1.346-.98 2.074c-.696 1.098-.478 1.098 1.275.003 1.163-.726 1.657-1.473 1.099-1.659-.559-.186-.762-.75-.451-1.253s.313-.915.006-.915-.615.225-.684.5m15.585.905c-1.796 1.314-1.743 1.372.824.881 1.51-.289 2.99-.921 3.29-1.405.859-1.39-1.993-1.026-4.114.524m12.047.606c.336.544.059.989-.615.989s-.959.266-.634.592c.326.325 1.35.167 2.276-.351 1.564-.876 1.566-.989.024-1.581-.977-.374-1.41-.229-1.051.351M83.5 69.535c-2.512 1.21-2.594 1.347-.5.843 1.375-.332 2.927-1.002 3.45-1.49 1.296-1.211.584-1.055-2.95.647m8.5.434c0 .532.675.709 1.5.393.825-.317 1.5-.753 1.5-.969S94.325 69 93.5 69s-1.5.436-1.5.969M89.5 71c-.34.55-.141 1 .441 1S91 71.55 91 71s-.198-1-.441-1-.719.45-1.059 1m22.5 1.031c0 .533.675.969 1.5.969s1.5-.177 1.5-.393-.675-.652-1.5-.969-1.5-.139-1.5.393m-12 15.624c0 3.595-.033 3.625-2.006 1.839-2.47-2.235-3.559-1.417-1.997 1.5.637 1.191 1.723 5.167 2.413 8.836 1.328 7.061 1.332 7.065 7.308 5.826 1.53-.317 2.22-.332 1.534-.034-.719.313-1.017 1.465-.703 2.717.411 1.637-.145 2.582-2.252 3.826-2.477 1.464-3.112 1.488-5.547.212-3.183-1.668-3.461-2.864-1-4.297 1.491-.868 1.335-1.024-1.05-1.05-3.186-.034-8.244 2.304-9.081 4.199-.308.699-.461.431-.34-.595.135-1.142-.652-2.197-2.029-2.718-1.66-.628-2.25-.488-2.25.533 0 .761.563 1.611 1.25 1.889.77.31.6.534-.441.583-3.823.179-2.632 2.271 2.676 4.701 4.407 2.017 6.54 2.443 9.822 1.962 2.306-.339 6.531-.584 9.388-.546 7.326.1 14.757-4.047 9.555-5.331-.963-.237-.702-.324.579-.193 2.399.246 3.846-1.613 2.699-3.469-.431-.698-1.258-.725-2.46-.081-1.224.655-2.661.574-4.432-.248-2.411-1.119-2.621-1.709-2.628-7.383-.005-3.991-.449-6.344-1.258-6.671-1-.403-1-.52 0-.583 1.46-.092 1.605-1.969.311-4.015-.75-1.185-1.182-1.209-2.473-.137-1.611 1.337-1.682 1.255-3.153-3.677-.798-2.678-2.435-1.062-2.435 2.405m-13.75 1.608c-3.631 1.82-4.25 2.584-4.25 5.238C82 97.961 86.608 108 88.196 108c.56 0 .743-.717.407-1.593C86.026 99.693 86.821 95 90.534 95c1.722 0 3.14 1.007 4.576 3.25l2.081 3.25-.612-3.457c-.733-4.141-3.683-10.339-5.079-10.673-.55-.131-2.912.72-5.25 1.893m80.563.42c.721.289 1.584.253 1.916-.079s-.258-.568-1.312-.525c-1.165.048-1.402.285-.604.604m-6.003 2.101c-.968.195-1.822 1.473-2 2.995-.195 1.672-1.515 3.465-3.561 4.84l-3.25 2.183 3.75 2.333c2.063 1.283 4.027 2.47 4.364 2.637.673.333 2.411-3.817 3.274-7.818.812-3.769-.556-7.576-2.577-7.17M25.269 99.693c.973.254 2.323.237 3-.037s-.119-.481-1.769-.461-2.204.244-1.231.498m22.297 4.493c2.992 5.157 4.762 6.812 7.252 6.782 2.552-.03 6.182-1.977 6.182-3.315 0-.913-5.895-3.226-10.348-4.06-3.037-.569-3.688-.443-3.086.593m67.295 1.781c-1.299 1.081-1.848 1.981-1.222 2s2.202-.852 3.5-1.934 1.848-1.981 1.222-2-2.202.852-3.5 1.934m-11.128 2.157c.679.684 1.486.991 1.793.683.308-.308-.247-.867-1.233-1.243-1.425-.542-1.54-.428-.56.56m30.767 2.367c-2.2.734-5.206 1.599-6.679 1.923-2.342.514-2.823 1.313-3.815 6.337-2.07 10.483-4.193 15.63-8.041 19.499-3.22 3.238-4.351 3.75-8.282 3.75-2.504 0-5.609-.401-6.899-.892-3.874-1.473-9.377-7.92-13.843-16.218-5.576-10.36-6.176-10.814-12.43-9.408-3.131.703-4.395 1.349-3.393 1.733.877.337 5.862 5.939 11.077 12.449C92.201 142.154 95 145.083 95 143.063c0-.649.457-.898 1.016-.553.559.346.817.951.574 1.345-.244.394.311.782 1.233.862s3.927.636 6.677 1.235 6.248.817 7.774.484c3.638-.794 8.633-5.062 10.399-8.886l1.409-3.05-.359 3.188c-.314 2.796-.139 3.07 1.428 2.231 2.449-1.31 6.411-8.317 10.288-18.194 1.786-4.549 3.784-9.273 4.439-10.498 1.417-2.647.665-2.75-5.378-.736m-105.25 2.237c2.063.216 5.438.216 7.5 0 2.063-.215.375-.392-3.75-.392s-5.812.177-3.75.392m55.5.934c.688.278 1.813.278 2.5 0 .688-.277.125-.504-1.25-.504s-1.937.227-1.25.504"/><path fill-opacity=".52" fill-rule="evenodd" d="M98 52.917c0 1.054-.562 2.143-1.25 2.421-.747.301-.545.536.5.583 2.662.12 2.09 1.788-1 2.917-1.513.552-2.019 1.04-1.125 1.083 1.046.051 1.625.97 1.625 2.579 0 1.375-.296 2.5-.658 2.5-1.24 0-.424 5.389.882 5.825.772.257 1.019-.027.606-.695-.45-.728.3-1.178 2.111-1.266 2.358-.115 2.448-.206.559-.57-1.237-.238-2.25-1.035-2.25-1.77 0-.859.805-1.169 2.25-.868 2.215.462 2.213.448-.135-.951-1.574-.937-1.994-1.662-1.234-2.132.633-.391.893-1.13.576-1.642-.316-.512.127-.931.984-.931S102 59.347 102 58.55c0-.798.787-1.957 1.75-2.576 1.637-1.052 1.632-1.088-.074-.552-2.057.645-5.136-1.869-4.181-3.414.343-.555.146-1.008-.436-1.008S98 51.862 98 52.917M47.383 54.18c2.022 7.189 1.789 14.465-.778 24.275C45.143 84.043 44 91.142 44 94.638c0 6.028-.089 6.243-2.75 6.646-2.56.387-2.525.427.5.566 2.074.096 3.25.665 3.25 1.573 0 .783 1.136 2.773 2.523 4.422 2.272 2.701 2.347 3.045.75 3.461-1.171.305-.881.501.855.578 4.573.202 5.245 2.389 1.752 5.696C47.765 120.529 39 132.204 39 133.403c0 .356 1.328-.038 2.95-.877 3.542-1.832 4.891-1.967 3.25-.326-1.532 1.532-1.566 3.144-.045 2.205.721-.446.882-.274.43.457-.398.644-1.093.942-1.545.663s-1.499.527-2.328 1.792l-1.507 2.3 6.647-1.4c9.145-1.927 17.074-1.072 33.648 3.625 25.211 7.146 32.741 7.645 39.555 2.618 1.833-1.353 3.748-2.46 4.254-2.46.507 0 8.63-3.704 18.051-8.231 15.3-7.352 17.855-8.272 23.913-8.615 5.694-.321 6.595-.609 5.613-1.791-.685-.826-2.041-1.165-3.277-.82-1.472.41-1.706.308-.776-.338.992-.689.354-1.348-2.5-2.583l-3.833-1.657 3.5.592c1.925.326 4.287.814 5.25 1.085 2.902.817 2.015-.811-3.466-6.361L161.568 108l3.466-.15c3.144-.136 3.203-.189.637-.574-2.197-.329-2.668-.798-2.111-2.1 2.052-4.793 1.622-12.973-1.145-21.768-3.159-10.039-3.537-18.865-1.137-26.527l1.448-4.619-5.55 1.449c-6.367 1.662-16.176 6.379-18.108 8.707-1.769 2.132-.466 1.997 2.778-.287C144.78 60.064 152.551 56 153.568 56c.356 0-1.876 2.726-4.96 6.057S143 68.831 143 69.707c0 .923 1.21-.048 2.876-2.307 1.582-2.145 4.489-5.434 6.461-7.308 1.972-1.875 3.308-3.857 2.97-4.405-.339-.548-.128-.694.469-.325s1.368.213 1.714-.346S158.744 54 159.508 54c1.175 0 1.166.536-.059 3.468-2.725 6.523-1.432 18.99 3.232 31.143.849 2.213-3.816 3.49-5.931 1.623-.963-.849-1.75-2.149-1.75-2.889S154.433 86 153.74 86s-2.451-1.104-3.906-2.453-3.701-2.598-4.99-2.776-2.866-.649-3.504-1.05c-1.396-.876-4.34.109-4.34 1.453 0 .544-.976.647-2.25.236-1.238-.398-2.812-.729-3.5-.734-.687-.005-1.25-.42-1.25-.921s1.645-.764 3.656-.583c2.101.188 3.82-.153 4.043-.802.462-1.347-5.541-2.435-6.336-1.149-.301.488-1.671.152-3.042-.747-1.372-.898-2.711-1.418-2.975-1.153s-2.088.037-4.052-.505c-2.697-.745-3.765-.671-4.367.303-.65 1.05-1.249 1.046-3.242-.02-1.631-.873-4.231-1.105-7.815-.697-2.953.336-6.72.612-8.37.612-5.399.002-23.5 5.533-23.5 7.181 0 .523-.787.773-1.75.555-1.974-.448-7.25 1.848-7.25 3.154 0 .47-1.367 1.42-3.038 2.112s-3.487 2.097-4.035 3.121C57.378 92.162 56.27 93 55.465 93S54 93.727 54 94.617c0 1.16.605 1.458 2.144 1.056 1.662-.435 1.875-.292.95.633-.657.657-1.622 1.194-2.144 1.194-1.186 0-1.26.528-.391 2.793.994 2.591.041 3.047-4.255 2.035l-3.804-.896-.3-6.31c-.186-3.912.511-9.822 1.835-15.55 1.475-6.383 2.031-11.595 1.8-16.858l-.335-7.618 2.915 2.702c4.092 3.792 8.775 9.022 10.828 12.094 1.246 1.864 1.746 2.135 1.75.95.004-.912-2.111-4.259-4.7-7.438-4.689-5.755-4.495-6.066 1.207-1.936 4.398 3.187 5.5 3.748 5.5 2.803 0-1.115-11.898-8.913-16.592-10.874-3.664-1.531-3.675-1.528-3.025.783m43.492-1.739a21 21 0 0 0-.25 1.616c-.069.582-1.25 1.96-2.625 3.063-2.404 1.928-2.414 1.981-.256 1.377 1.764-.494 2.114-.292 1.639.946-.332.866-1.722 1.855-3.088 2.198-1.529.384-2.043.897-1.337 1.333 1.889 1.167 2.166 6.857.382 7.855-1.288.721-1.315.967-.158 1.411 1.793.688 5.351-1.793 3.878-2.703-.583-.36-1.06-1.105-1.06-1.655s.563-.662 1.25-.249c.86.517.825.227-.113-.929-1.164-1.436-1.129-1.77.245-2.297.883-.339 1.361-1.014 1.061-1.5s.611-2.126 2.025-3.645c1.951-2.095 2.218-2.838 1.107-3.075-.805-.172-1.233-.914-.951-1.648.282-.735.032-1.634-.556-1.997-.587-.363-1.124-.408-1.193-.101m-9.139 3.157c-.329.329-.374 1.183-.099 1.899.275.715.011 1.602-.585 1.971-.597.369-.835 1.074-.53 1.568.306.494-.339 1.457-1.432 2.14-1.502.938-1.72 1.564-.892 2.562.827.996.507 1.961-1.301 3.928-1.559 1.697-1.98 2.758-1.203 3.036.656.235.946 1.073.643 1.863-.334.871.066 1.435 1.017 1.435 1.391 0 3.214-4.34 4.202-10 .615-3.529 1.752-6 2.761-6 .755 0 .743-.34-.039-1.122-.617-.617-.884-1.742-.593-2.5.528-1.375-.817-1.913-1.949-.78m25.085 2.084c-.326.699-.286 6.986.07 11.068.06.688.533 1.25 1.052 1.25.518 0 .751-.991.518-2.202-.233-1.212.13-2.555.807-2.985.97-.616.966-.786-.018-.798-.687-.008-1.25-.403-1.25-.876 0-.474 1.125-.647 2.5-.384 1.459.279 2.5.013 2.5-.638 0-.615-1.125-1.117-2.5-1.117s-2.5-.498-2.5-1.107.661-.853 1.468-.544c.807.31 1.734.133 2.059-.393s.151-.956-.386-.956c-.538 0-1.644-.256-2.458-.568-.814-.313-1.652-.2-1.862.25m9.549 8.568c.331 1.237.609 2.539.616 2.893s.712.911 1.566 1.239c.89.341 1.291.173.941-.393-.336-.544-.048-.989.639-.989.707 0 .449-.586-.594-1.348-1.014-.742-1.523-1.867-1.132-2.5.429-.694.046-1.152-.964-1.152-1.249 0-1.522.572-1.072 2.25m-42.929.218c-1.647 1.246-1.693 1.473-.298 1.5.904.018 1.902-.643 2.219-1.468.715-1.863.505-1.867-1.921-.032M128 69c0 .55.477 1 1.059 1s.781-.45.441-1-.816-1-1.059-1-.441.45-.441 1m-56.821 2.972c-2.636 3.566-2.711 4.153-.429 3.349 1.429-.502 1.52-.368.5.732-1.784 1.923-1.549 3.44.296 1.909.85-.705 1.301-1.918 1.003-2.695s-.057-2.318.536-3.425c1.707-3.19.487-3.106-1.906.13M66 77.5c0 .825.177 1.5.393 1.5s.652-.675.969-1.5.139-1.5-.393-1.5c-.533 0-.969.675-.969 1.5m53.441-.318c-.419.725-.418 1.009.001.632.42-.378 1.842-.276 3.161.225 1.514.576 2.397.552 2.397-.064 0-.536-.413-.975-.918-.975s-1.585-.256-2.399-.568c-.814-.313-1.823.025-2.242.75m-13.691.48c.688.278 1.813.278 2.5 0 .688-.277.125-.504-1.25-.504s-1.937.227-1.25.504M142 82.977c0 .434 1.111 1.002 2.47 1.262 1.358.26 2.265.141 2.015-.263-.664-1.075-4.485-1.926-4.485-.999m-37.143.692c-1.083.288-1.464 1.119-1.118 2.44.336 1.287 1.066 1.796 2.037 1.423.832-.319 2.316.146 3.297 1.034 1.663 1.505 1.888 1.409 3.355-1.427.865-1.672 1.572-3.287 1.572-3.589 0-.627-6.664-.54-9.143.119m8.653 4.317c-1.956 2.666-3.51 5.971-3.51 7.469 0 2.444.143 2.545 1.571 1.116 2.485-2.484 3.018-1.827.603.743-2.072 2.206-2.89 4.686-1.545 4.686.346 0 2.372-1.575 4.503-3.5 4.183-3.779 6.891-4.382 8.887-1.977 1.05 1.266 1 1.421-.299.923-1.681-.645-6.272 1.336-5.314 2.293.317.317.075 1.181-.537 1.919-1.685 2.03.489 1.704 4.357-.654 4.352-2.654 6.184-2.553 2.024.111-6.056 3.878-3.291 3.56 8.16-.938 6.53-2.566 11.221-4.952 10.968-5.58-1.065-2.647-8.588-6.546-17.118-8.872l-9.24-2.52zM100 87.008c0 2.735-.178 2.898-1.955 1.788-2.634-1.645-3.328-.668-1.997 2.815.607 1.589 1.664 5.589 2.349 8.889 1.117 5.381 1.485 5.973 3.558 5.738 2.507-.284 5.045 1.31 5.045 3.169 0 .639-1.238 1.893-2.75 2.786-2.431 1.436-3.07 1.457-5.5.184-3.183-1.668-3.461-2.864-1-4.297 1.491-.868 1.335-1.024-1.05-1.05-2.751-.029-8.109 2.185-8.946 3.699-.234.424-.273.167-.086-.572.187-.738-.557-1.577-1.653-1.863s-1.784-.859-1.529-1.272c.255-.412-.425-2.589-1.511-4.838S81 96.711 81 95.018V91.94l-4.132 2.28C72.004 96.904 66 102.513 66 104.374c0 .761 2.196 1.802 5.25 2.489 2.888.649 6.263 1.449 7.5 1.776 1.872.494 2.25.192 2.25-1.8 0-1.317-.707-3.507-1.572-4.866-1.082-1.702-.693-1.487 1.25.69 1.552 1.739 2.822 4.284 2.822 5.654s-.29 2.313-.645 2.093c-.355-.219-.914.301-1.242 1.155-.979 2.552 9.381 6.798 14.694 6.022 2.306-.336 6.756-.58 9.888-.54 7.456.093 14.177-3.921 9.055-5.409-1.011-.294-.695-.43.75-.323 2.228.165 2.516-.22 2.649-3.53.117-2.893-.285-3.852-1.819-4.339-1.894-.601-1.899-.68-.149-2.098 1.919-1.555 1.756-1.521-3.485.719-2.356 1.007-3.172 1.917-2.844 3.173.254.968.053 1.76-.446 1.76-.756 0-1.419-9.695-1.025-15 .061-.825-.303-2.146-.809-2.936-.759-1.185-1.193-1.209-2.484-.137-1.611 1.337-1.682 1.255-3.153-3.677-.726-2.438-2.435-1.205-2.435 1.758m-5.851-1.121c-.959.607-.45.989 1.75 1.311 2.139.314 3.101.044 3.101-.871 0-1.49-2.794-1.744-4.851-.44m-8.399 3.266c-3.113 1.696-3.748 2.578-3.74 5.195.011 3.47 4.052 12.954 6.045 14.186.942.582 1.081.172.55-1.628-1.722-5.839-1.809-9.492-.257-10.78 2.119-1.759 5.33-.56 7.211 2.693l1.552 2.681-.572-3.457C95.746 93.251 92.8 87.539 91 87.304c-.825-.107-3.187.725-5.25 1.849m65.25-1.26c0 .491.739 1.176 1.641 1.523 1.373.527 1.435.38.378-.893-1.44-1.735-2.019-1.916-2.019-.63m15.813 1.79c.721.289 1.584.253 1.916-.079s-.258-.568-1.312-.525c-1.165.048-1.402.285-.604.604m-6.563 2.395c-1.238.472-2.25 1.702-2.25 2.735 0 2.017-2.071 4.19-5.871 6.158-1.904.987-2.216.979-1.586-.041.561-.908.295-1.082-.931-.611-.944.362-1.472.264-1.175-.217.298-.482-.113-1.418-.912-2.081-1.145-.951-2.57-.838-6.739.533-17.614 5.792-23.197 8.838-19.917 10.865.479.296 5.991.07 12.25-.502 6.26-.571 14.3-1.284 17.868-1.583l6.487-.544-2.987-2.505c-3.188-2.673-1.762-2.186 2.756.942 1.509 1.045 3.166 1.638 3.682 1.319.517-.319 1.49-3.043 2.164-6.054 1.512-6.755.52-9.694-2.839-8.414m-71.583 4.589c-1.101 1.1-.687 5.669.748 8.26 1.308 2.36 1.341 2.321 1.215-1.397-.169-4.978 1.93-5.709 3.931-1.367l1.538 3.337-.627-3c-.994-4.75-4.706-7.933-6.805-5.833M144 98.393c0 .216.675.652 1.5.969s1.5.139 1.5-.393c0-.533-.675-.969-1.5-.969s-1.5.177-1.5.393M24.75 99.662c.688.278 1.813.278 2.5 0 .688-.277.125-.504-1.25-.504s-1.937.227-1.25.504m8.519 1.031c.973.254 2.323.237 3-.037s-.119-.481-1.769-.461-2.204.244-1.231.498m14.336 3.557c4.088 7.068 7.472 8.486 12.257 5.134 2.953-2.068 2.012-2.923-5.322-4.832-7.206-1.876-7.862-1.905-6.935-.302m66.206-.567c1.03.412.963.91-.315 2.321-1.23 1.36-1.329 1.981-.407 2.551.752.465.962.337.549-.332-.369-.597.256-1.736 1.39-2.53 1.803-1.263 1.858-1.523.435-2.069-.894-.343-1.927-.588-2.295-.545s-.078.315.643.604M62.4 109.25l-2.871 2.25 9.486.537c6.416.363 9.913.166 10.809-.61 1.035-.896-.101-1.505-5.205-2.787-8.36-2.1-8.79-2.078-12.219.61m39.1-1.182c-1.1.435-1.775.857-1.5.938 2.229.655 3.917.663 4.95.025 1.855-1.147-.983-1.939-3.45-.963m48.827.675-8.173.335-3.172 7.711c-5.657 13.751-8.215 19.16-9.612 20.319-1.927 1.599-1.722.778 1.057-4.232 1.335-2.407 3.844-7.976 5.575-12.376s3.564-8.427 4.073-8.95c1.834-1.884.862-2.694-2.325-1.938-1.787.423-5.126.668-7.42.544s-4.407.159-4.697.628c-.29.47.911.717 2.67.55l3.197-.305-3.186.998c-3.392 1.061-3.459 1.195-5.309 10.542-2.466 12.458-8.286 19.431-16.219 19.431-7.307 0-12.828-4.704-19.366-16.5-6.795-12.26-6.202-11.783-12.54-10.079-2.959.796-4.855 1.477-4.213 1.513.641.036 4.651 4.454 8.911 9.816s9.134 11.249 10.833 13.082c3.241 3.496 7.465 6.394 6.1 4.185-.402-.65.781-.394 2.629.57 2.035 1.061 5.726 1.782 9.36 1.829 6.915.089 9.678-1.399 13.314-7.169 2.217-3.516 2.334-3.576 1.908-.969-.445 2.713-.4 2.741 1.911 1.227 1.302-.853 2.367-1.312 2.367-1.019s4.613-1.794 10.25-4.637c5.637-2.844 13.175-6.213 16.75-7.489 6.059-2.16 6.262-2.328 3-2.467-2.775-.119-2.273-.359 2.426-1.161l5.927-1.011-4.427-2.408-4.426-2.407 5.808.563c4.689.454 5.653.304 5-.776-.995-1.648-8.906-8.77-9.429-8.489-.209.111-4.057.354-8.552.539M29.25 112.716c1.512.229 3.987.229 5.5 0s.275-.416-2.75-.416-4.262.187-2.75.416m24.122 4.534c-2.224 2.338-5.803 6.456-7.954 9.153l-3.909 4.902 3.245-1.678c2.756-1.425 3.246-1.457 3.246-.212 0 .807-.45 1.745-1 2.085-1.445.893-1.232 2.801.25 2.244 4.57-1.717 5.853-1.59 2.5.248-2.062 1.131-3.75 2.248-3.75 2.483s3.73.164 8.29-.157c7.481-.528 9.565-.231 21.364 3.048C82.845 141.365 89.009 143 89.351 143c.911 0-11.781-17.15-16.93-22.877l-4.413-4.908 4.746-.989c4.398-.917 4.009-.998-5.296-1.108L57.416 113z"/><path fill-opacity=".972" fill-rule="evenodd" d="M47.471 54.18c2 6.267 1.679 15.365-.89 25.179-4.318 16.496-3.161 25.149 4.305 32.195l2.974 2.808-4.18 4.651c-5.356 5.96-10.138 12.862-9.414 13.586.309.31 1.54.04 2.734-.599 3.289-1.76 3.28-.774-.035 3.733-2.646 3.598-2.765 4.027-.987 3.562 1.829-.478 2.453-1.494 2.152-3.509-.058-.393.518-.475 1.281-.182s1.681.057 2.04-.524c.406-.657.028-.817-1-.423-1.52.584-1.516.37.049-2.657 1.27-2.456 1.359-3.152.351-2.742-5.567 2.266-5.409 2.339-2.853-1.325 1.317-1.888 5.793-6.999 9.948-11.358 4.53-4.753 6.227-7.009 4.24-5.636l-3.315 2.289-2.53-2.364c-1.392-1.3-3.158-3.569-3.925-5.043-1.248-2.398-1.211-2.726.345-3.134 1.376-.36 1.298-.479-.375-.571-3.917-.215-3.898-8.12.06-24.862 1.068-4.518 1.588-10.03 1.383-14.643l-.329-7.399 2.661 1.899c1.463 1.044 4.584 4.258 6.936 7.143C65.184 71.722 65 71.535 65 70.257c0-.629-2.523-3.869-5.608-7.2S54.21 57 54.729 57s3.494 1.825 6.608 4.055C64.452 63.285 67 64.731 67 64.267c0-1.112-11.907-8.912-16.592-10.87-3.67-1.533-3.676-1.532-2.937.783m106.017.751c-6.232 2.22-13.148 5.71-13.979 7.055-.984 1.592.002 1.229 5.175-1.902 2.649-1.603 5.941-3.228 7.316-3.61 2.243-.623 2.078-.246-1.602 3.666-4.417 4.694-7.398 8.788-7.398 10.159 0 .47 1.643-1.318 3.652-3.972C151.594 59.796 156 54.77 156 55.665c0 .404.54.195 1.2-.465 2.568-2.568 3.622-1.361 2.226 2.55-2.088 5.85-1.649 14.822 1.113 22.75 2.542 7.297 2.49 6.287-.222-4.26-1.577-6.136-1.187-12.66 1.256-20.99.82-2.795-.939-2.864-8.085-.319m-55.821 3.736c-.367.366-.667 1.131-.667 1.7 0 .626.466.567 1.183-.15.651-.651.951-1.416.667-1.7s-.817-.217-1.183.15M86 81.059c0 .582.45.781 1 .441s1-.816 1-1.059S87.55 80 87 80s-1 .477-1 1.059M103.5 81c-.34.55-.141 1 .441 1S105 81.55 105 81s-.198-1-.441-1-.719.45-1.059 1m10.849.756c.257.415-.387 2.553-1.43 4.75l-1.898 3.994 2.88-3.454c2.689-3.224 3.124-6.046.933-6.046-.524 0-.742.34-.485.756M99.558 83.25c-1.117 3.676-1.274 5.808-.464 6.308.498.308.906-.79.906-2.44 0-4.079 1.58-4.762 2.816-1.217.776 2.226 1.588 2.864 3.501 2.749 1.37-.083 2.271-.506 2.003-.941-.269-.435-1.252-.548-2.186-.252-1.213.385-2.02-.316-2.829-2.459-1.161-3.078-3.073-3.969-3.747-1.748M124.5 84c-.34.55.11 1 1 1s1.34-.45 1-1-.79-1-1-1-.66.45-1 1m-43.222 1.25c-.532.688-1.295 1.925-1.696 2.75-.649 1.333-.578 1.333.64 0a46 46 0 0 1 2.774-2.75c.776-.691.922-1.25.326-1.25-.592 0-1.512.563-2.044 1.25M89 84.977C89 86.033 81.411 90 79.389 90c-.68 0-2.558 1.112-4.173 2.472s-3.298 2.147-3.738 1.75-.475-.159-.079.528c.468.813.058 1.25-1.173 1.25-1.041 0-1.893.65-1.893 1.444 0 1.09 1.125.805 4.584-1.164 2.521-1.435 5.01-2.985 5.533-3.445 1.704-1.498 2.416-.89 2.827 2.415l.403 3.25.16-3.651c.134-3.047.749-3.999 3.717-5.75C87.514 87.944 89.962 87 90.998 87s2.209-.526 2.607-1.17c.486-.787.178-.961-.941-.531-.915.351-1.664.202-1.664-.33 0-.533-.45-.969-1-.969s-1 .439-1 .977M72.5 88c-.34.55-.141 1 .441 1S74 88.55 74 88s-.198-1-.441-1-.719.45-1.059 1m21.825-.363c-.842.344-.636 1.667.728 4.671 1.047 2.306 1.913 5.291 1.925 6.633.021 2.361-.026 2.377-1.448.5-1.331-1.757-1.358-1.636-.291 1.281.827 2.262 1.442 2.857 2.064 2q.881-1.213.291.61c-.327 1.007-.594 2.02-.594 2.25s-.419.418-.93.418-1.075-.967-1.25-2.148c-.355-2.382-3.301-4.704-4.477-3.528-.414.414-.235 2.124.398 3.8.98 2.596.928 2.963-.347 2.474-.824-.316-1.242-.161-.93.344.313.506.142 1.183-.379 1.505s-1.229.128-1.575-.431-1.164-1.002-1.819-.986-.394.495.58 1.062 1.472 1.514 1.107 2.105.724.048 2.42-1.206c2.54-1.878 3.93-2.185 7.893-1.745 2.645.294 4.06.334 3.145.088-1.151-.31-1.881-2.047-2.369-5.641-.387-2.856-1.393-6.925-2.234-9.042-1.303-3.279-1.322-3.981-.131-4.735 1.457-.923.262-1.111-1.777-.279M138.5 89.54c1.1.811 2.714 2.331 3.587 3.377 1.094 1.311 2.027 1.619 3 .993 1.13-.728.986-1.027-.721-1.496-1.562-.429-2.008-1.166-1.663-2.75.392-1.805.277-1.915-.692-.664-.879 1.133-1.287 1.194-1.67.25-.279-.687-1.258-1.236-2.174-1.218-1.412.027-1.361.257.333 1.508m25.076 2.985c.631 5.099-.822 12.891-2.61 13.996-.539.333-2.439-.362-4.223-1.545-2.691-1.783-2.867-1.815-1.036-.187 1.215 1.08 1.927 2.244 1.584 2.587s.089.624.962.624c.872 0 4.21 2.336 7.416 5.191l5.831 5.191-4.605-4.941-4.605-4.941 1.379-4.5c1.466-4.782 1.537-13.114.13-15.229-.479-.72-.576.906-.223 3.754m-54.658-.942c-.236 5.529.314 14.011.952 14.666.4.412.544-.832.318-2.764-.24-2.054.155-4.21.951-5.191 1.104-1.361 1.109-1.526.025-.874-1.034.623-1.267 0-1.03-2.754.169-1.957-.018-3.883-.414-4.279s-.757.142-.802 1.196m50.895.1c.721.289 1.584.253 1.916-.079s-.258-.568-1.312-.525c-1.165.048-1.402.285-.604.604M150 93.93c-3.025.932-6.85 2.234-8.5 2.894s-6.72 2.612-11.267 4.338-8.093 3.311-7.88 3.524 2.808-.584 5.767-1.771 11.005-4.094 17.88-6.46c12.244-4.214 14.873-5.873 4-2.525M88.2 96.2c-1.372 1.372-1.567 5.673-.345 7.6.501.79.79-.388.735-3-.087-4.177-.004-4.294 2.91-4.081 2.235.163 2.617-.025 1.5-.735-2.017-1.282-3.362-1.222-4.8.216m29.3.661c-1.65 1.019-3.9 2.869-5 4.11-1.729 1.952-1.115 1.802 4.533-1.106 3.657-1.884 6.078-3.688 5.5-4.1-1.449-1.03-1.67-.982-5.033 1.096m28.643 1.029c-.834.529-.971 1.098-.355 1.479.552.341 1.26-.053 1.576-.875.662-1.727.6-1.757-1.221-.604M58.5 99c-.34.55-.141 1 .441 1S60 99.55 60 99s-.198-1-.441-1-.719.45-1.059 1m6.394.211c-.059.709-.171 2.189-.25 3.289-.156 2.165-.826 2.255-9.144 1.236l-5-.612 5.5 1.445c5.103 1.341 15.653 2.96 11.75 1.803-1.87-.554-2.345-3.355-.834-4.922.56-.58.365-1.452-.5-2.239-1.156-1.053-1.436-1.053-1.522 0m17.137.289c0 .55.436 1.675.969 2.5s.969 1.05.969.5-.436-1.675-.969-2.5-.969-1.05-.969-.5m40.696 1.5c-1.398 1.1-2.966 2-3.485 2s-.761 1.811-.54 4.024c.344 3.432-.045 4.473-2.638 7.066-2.768 2.768-3.603 3.033-9.302 2.952-3.444-.049-7.917.192-9.941.536-5.924 1.005-16.288-3.199-15.156-6.148.3-.78.835-1.239 1.19-1.02 1.842 1.139.291-4.97-1.855-7.302-1.375-1.495-1.973-2.018-1.328-1.163s1.481 2.792 1.858 4.305c.564 2.257.354 2.753-1.172 2.765-1.574.013-1.629.169-.358 1.019 2.29 1.532-1.269 3.8-7.197 4.586l-4.844.643 4.792 5.119c2.635 2.815 6.545 7.593 8.689 10.618 2.143 3.025 5.509 7.254 7.478 9.397 1.99 2.165 2.832 3.635 1.895 3.306-4.084-1.433-10.053-2.797-10.459-2.39-.399.399 6.371 2.283 19.91 5.541 8.563 2.06 13.996 1.121 21.736-3.757.825-.519 9.375-4.59 19-9.045 15.35-7.105 24.05-9.973 30.5-10.053.55-.007-.35-.906-2-1.999s-3.45-1.974-4-1.958.1.638 1.444 1.382c2.36 1.307 2.24 1.395-3.5 2.553-3.269.66-12.031 4.085-19.47 7.611-7.44 3.527-13.852 6.412-14.25 6.412s.41-2.137 1.796-4.75c3.884-7.324 10.579-23.782 9.021-22.178-.762.785-3.064 5.703-5.114 10.928-4.178 10.647-7.492 16.429-10.265 17.914-1.644.879-1.817.674-1.44-1.707.38-2.405.169-2.272-1.897 1.189-3.304 5.535-7.992 7.865-14.577 7.244-2.889-.273-6.609-1.173-8.267-2s-2.756-1.084-2.439-.572.207.932-.243.932c-1.408 0-5.995-4.721-11.907-12.254-3.128-3.985-7.662-9.303-10.075-11.816l-4.387-4.57 5.212-1.203c2.866-.662 5.556-.855 5.978-.43s3.083 4.823 5.914 9.773c7.771 13.586 12.174 17.504 19.666 17.496 8.064-.008 13.82-7.059 16.324-19.996.586-3.025 1.485-6.513 1.999-7.75.618-1.488.583-2.25-.103-2.25-.571 0-.76-.45-.42-1 .351-.568-.495-1-1.957-1-2.263 0-2.546-.375-2.339-3.1.159-2.084 1.23-3.883 3.266-5.489 1.667-1.314 2.753-2.394 2.415-2.4s-1.759.889-3.158 1.989m-88.914-.317c.721.289 1.584.253 1.916-.079s-.258-.568-1.312-.525c-1.165.048-1.402.285-.604.604m7 1c.721.289 1.584.253 1.916-.079s-.258-.568-1.312-.525c-1.165.048-1.402.285-.604.604m30 6c.721.289 1.584.253 1.916-.079s-.258-.568-1.312-.525c-1.165.048-1.402.285-.604.604m25.729 1.249c-1.813 2.933 4.463 4.95 8.064 2.591 1.317-.863 2.394-2.064 2.394-2.668 0-.799-.362-.8-1.324-.001-1.298 1.077-3.541.967-6.825-.336-.907-.36-1.946-.174-2.309.414M131 109c-4.67.572-4.972.722-2 .995 1.925.176 4.175.204 5 .062.825-.141 6-.587 11.5-.989l10-.733-9.5-.004c-5.225-.003-11.975.298-15 .669m-2.187 2.683c.721.289 1.584.253 1.916-.079s-.258-.568-1.312-.525c-1.165.048-1.402.285-.604.604m-99.051 1.024c1.244.239 3.044.23 4-.02s-.062-.446-2.262-.435-2.982.216-1.738.455m38.006.018c1.797.222 4.497.218 6-.01 1.503-.229.032-.411-3.268-.405s-4.529.192-2.732.415M158 117.383c0 .91 3.898 1.296 5.139.51.925-.586.321-.867-1.889-.878-1.787-.008-3.25.158-3.25.368m7.75 1.279c.688.278 1.813.278 2.5 0 .688-.277.125-.504-1.25-.504s-1.937.227-1.25.504m-57.045 14.776c-1.048 1.048-1.667 1.175-1.927.395-.611-1.832-5.562-.088-6.294 2.217-.996 3.14 1.228 4.95 6.083 4.95 5.55 0 10.582-3.812 8.831-6.689-1.448-2.378-4.756-2.81-6.693-.873M58.5 136.947c4.4.448 9.35 1.104 11 1.457 2.884.617 2.903.599.5-.476-1.375-.615-6.325-1.271-11-1.458l-8.5-.339zm-12.231.746c.973.254 2.323.237 3-.037s-.119-.481-1.769-.461-2.204.244-1.231.498m30.544 2.99c.721.289 1.584.253 1.916-.079s-.258-.568-1.312-.525c-1.165.048-1.402.285-.604.604"/></svg>