<svg xmlns="http://www.w3.org/2000/svg" width="64" height="64" fill="#000000"><path fill="#ffffff" d="M32 64c17.673 0 32-14.327 32-32C64 14.327 49.673 0 32 0 14.327 0 0 14.327 0 32c0 17.673 14.327 32 32 32Z"/><path fill="#949494" d="M45.082 27.316c-2.098-.002-4.197-.01-6.295 0-.262 0-.413-.067-.547-.301-1.018-1.778-2.05-3.546-3.078-5.318-.023-.04-.035-.084-.052-.13.123-.084.248-.046.363-.046 4.196-.002 8.392.001 12.588-.01.284 0 .434.086.573.327 1.007 1.755 2.03 3.502 3.046 5.252.041.07.107.137.079.233l-6.677-.007ZM27.308 46.43c-.71 1.263-1.451 2.507-2.18 3.758-.025.04-.06.074-.091.111.072.063.16.047.244.047 2.06.001 4.12-.002 6.181.006.223 0 .322-.102.42-.273.626-1.093 1.26-2.18 1.892-3.27 1.485-2.555 2.97-5.11 4.453-7.665.193-.333.19-.337-.196-.337-2.012-.001-4.023.002-6.035-.004-.194 0-.304.057-.403.23-.747 1.304-1.5 2.603-2.262 3.897-.318.54-.579 1.112-.98 1.601-.267.677-.689 1.27-1.043 1.9Zm-9.134-30.37c-1.01 1.739-2.012 3.48-3.035 5.21-.141.24-.076.398.038.593a4853.61 4853.61 0 0 1 6.33 10.901c.166.287.232.218.365-.012.993-1.72 1.99-3.437 2.994-5.151.121-.208.136-.373.003-.597-1.009-1.71-2-3.431-2.996-5.149-.06-.103-.15-.197-.1-.333-.142-.066-.208-.195-.281-.322-.875-1.518-1.745-3.04-2.636-4.55-.153-.26-.235-.583-.536-.742-.08.022-.11.09-.146.152Z"/><path fill="#5c5c5c" d="M18.32 15.908c0-.048 0-.095-.002-.143h13.396c1.065 1.83 2.124 3.662 3.197 5.486.18.307-.003.274-.203.274l-12.934-.003c-.142-.066-.208-.195-.281-.322-.875-1.519-1.745-3.04-2.636-4.55-.153-.259-.236-.583-.536-.742Zm3.38 17.166c-.061.09-.09.124-.112.163-1.041 1.79-2.079 3.582-3.127 5.367-.116.197-.052.331.044.495 1.45 2.49 2.894 4.985 4.345 7.476.724 1.244 1.458 2.483 2.187 3.724.031-.037.067-.07.091-.111.73-1.251 1.472-2.495 2.181-3.758.354-.63.776-1.222 1.044-1.899L21.7 33.074Zm23.228-5.47C42.82 31.237 40.71 34.868 38.6 38.5c-.052.09-.138.17-.108.294.039.005.075.015.11.015 2.085 0 4.17-.002 6.255.007.224 0 .316-.105.414-.276 1.284-2.222 2.576-4.438 3.862-6.659.879-1.517 1.75-3.038 2.626-4.558l-6.676-.007c-.052.097-.1.195-.155.29Z"/></svg>