<svg xmlns="http://www.w3.org/2000/svg" width="200" height="200" fill="#000000"><path fill-opacity=".482" fill-rule="evenodd" d="M0 100.005V200.01l100.25-.255 100.25-.255.255-99.75L201.01 0H0zm.481.495c0 55 .121 77.647.269 50.326.148-27.32.148-72.32 0-100C.602 23.147.481 45.5.481 100.5m111.368-76.634c3.084 3.334 14.499 25.881 22.85 45.134 4.985 11.493 5.737 13 6.493 13 .445 0 .808-.239.808-.53 0-1.376-5.942-14.339-15.017-32.761C117.903 30.278 112.225 21 110.026 21c-.456 0 .365 1.29 1.823 2.866m-26.471.666c-2.626 2.625-8.88 15.299-7.989 16.19.278.278 1.916-2.48 3.641-6.129 1.724-3.649 4.263-7.976 5.641-9.614 3.058-3.635 2.193-3.934-1.293-.447M73.237 45.885c-2.995 7.205-2.798 8.808.332 2.711 1.385-2.697 2.38-5.621 2.211-6.498s-1.313.827-2.543 3.787m36.017.828c-2.363 5.587-2.976 7.572-3.753 12.154-.554 3.267-.488 3.347 2.214 2.682 3.992-.981 7.207-3.284 8.477-6.07.874-1.919.692-3.49-.887-7.644-1.092-2.876-2.446-5.382-3.007-5.569s-1.931 1.814-3.044 4.447M66.739 60c-1.424 3.3-2.222 6-1.773 6s1.634-1.912 2.633-4.25c.998-2.337 2.158-5.038 2.576-6s.399-1.75-.044-1.75c-.442 0-1.969 2.7-3.392 6m-4.932 12.75c-2.493 2.903-2.898 4.076-1.669 4.835.731.452.903.291.457-.43-.392-.635-.309-1.155.185-1.155.495 0 1.412-1.125 2.038-2.5 1.341-2.944 1.055-3.156-1.011-.75m38.856 2c-.251.412-.121 6.375.289 13.25l.745 12.5.151-13.25c.142-12.397-.046-14.377-1.185-12.5M51.624 98.539c-.343.893-.595 2.15-.561 2.793.035.642.495.09 1.022-1.227s.779-2.574.56-2.793-.679.333-1.021 1.227m51.306 10.045c-2.768 3.336 3.056 6.969 9.202 5.74 3.639-.728 3.604-1.527-.209-4.735-3.491-2.937-7.058-3.336-8.993-1.005m-7.275 4.245c-2.263 2.5-2.084 3.171.845 3.171 2 0 2.5-.5 2.5-2.5 0-2.963-1.075-3.179-3.345-.671M98 122c0 .55.45 1 1 1s1-.45 1-1-.45-1-1-1-1 .45-1 1m-31.527 15.044c-.65 1.051.66 3.348 4.538 7.956l2.104 2.5-.655-3.5c-1.119-5.971-4.307-9.675-5.987-6.956m71.399 10.706c-1.192 1.521-1.175 1.604.128.634.825-.613 2.175-1.365 3-1.671 1.255-.464 1.234-.568-.128-.634-.895-.043-2.245.708-3 1.671"/><path fill-opacity=".409" fill-rule="evenodd" d="M0 100.007V200.01l100.25-.255 100.25-.255.255-99.743.255-99.743L100.505.01 0 .005zm.481.493c0 55 .121 77.647.269 50.326.148-27.32.148-72.32 0-100C.602 23.147.481 45.5.481 100.5m95.332-80.817c.721.289 1.584.253 1.916-.079s-.258-.568-1.312-.525c-1.165.048-1.402.285-.604.604m-10.238 4.682c-3.102 2.925-7.89 11.355-7.529 13.256.069.36-.34.943-.908 1.294s-.69 1.191-.272 1.868c.482.78 2.315-1.877 4.999-7.245 2.332-4.661 5.401-9.389 6.822-10.506C90.107 21.914 90.791 21 90.206 21s-2.669 1.514-4.631 3.365m26.174.002c3.645 4.151 12.521 21.535 22.728 44.513 6.161 13.868 7.449 17.571 6.372 18.326-1.089.764-1.063.868.138.541 1.028-.28 2.301 1.527 4.132 5.867 1.456 3.45 3.628 7.52 4.828 9.046 1.784 2.268 1.936 2.961.831 3.806-1.452 1.111-1.214 4.232.481 6.319 1.27 1.563 1.872 17.215.663 17.215-.472 0-.638.575-.369 1.279.27.703-.227 2.165-1.105 3.25s-1.252 1.296-.83.471c.659-1.291.531-1.309-.926-.128-1.832 1.486-2.32 2.634-.692 1.628 1.789-1.106 1.054 1.141-.974 2.977-1.086.983-2.244 2.634-2.572 3.669-.352 1.107-1.083 1.592-1.776 1.177-.648-.389-.537.083.247 1.048 1.297 1.598 1.208 1.702-1 1.16-1.992-.488-4.096.839-11.782 7.43-5.147 4.413-9.829 7.733-10.405 7.377-.593-.366-.751-.169-.366.455.394.637-1.67 2.877-4.894 5.312-9.933 7.499-9.492 10.963.527 4.143 8.842-6.019 27.276-19.433 29.995-21.827 9.339-8.222 14.373-13.242 15.537-15.492 1.207-2.335.955-3.76-2.485-14.024-2.105-6.283-6.146-16.562-8.979-22.841-2.833-6.28-4.914-12.036-4.624-12.793s.141-1.136-.332-.843c-.474.292-1.656-1.597-2.628-4.198-3.615-9.675-25.504-52.972-28.085-55.553-3.85-3.851-5.161-3.304-1.655.69m-18.123 2.462C90.688 30.831 76 58.914 76 60.529c0 .269-1.976 5.116-4.391 10.77-4.387 10.271-11.838 30.839-12.991 35.858a108 108 0 0 1-1.137 4.5c-.29 1.014.334.043 1.386-2.157l1.912-4-.139 5-.14 5 5-.229c6.013-.276 28.341-4.187 30.616-5.363 2.963-1.531 3.361-10.205 2.422-52.751-.229-10.354-.637-13.685-1.826-14.873-1.374-1.375-1.791-1.119-4.081 2.508-1.402 2.222-3.118 4.391-3.813 4.821s-.234-.771 1.024-2.666 4.038-6.981 6.177-11.301c3.64-7.348 3.936-7.675 4.585-5.088.382 1.521.445 15.237.141 30.48-.306 15.368-.127 31.221.402 35.588.526 4.331.949 9.78.941 12.109-.011 3.144.474 4.495 1.883 5.25 2.364 1.265 8.039 1.295 10.003.052 1.252-.792 1.148-1.278-.69-3.235l-2.164-2.303 2.957-2.749c3.725-3.463 4.514-3.442 6.382.172 1.162 2.245 1.225 3.037.276 3.421-.699.282-.45.533.574.578.995.043 1.55.498 1.234 1.01a1.1 1.1 0 0 0 .361 1.51c1.474.911 17.547 5.441 17.934 5.054.191-.191-.37-2.812-1.245-5.825S138 105.249 138 104.096s-.436-2.096-.969-2.096-.745-.583-.471-1.295c.618-1.611-7.194-24.59-12.375-36.404-2.124-4.84-4.353-9.926-4.955-11.301l-1.095-2.5-.067 2.542C117.959 57.117 109.314 65 104.953 65c-.524 0-.946-1.237-.938-2.75.011-1.966.266-2.355.893-1.365 1.148 1.813 5.177.808 8.597-2.142 2.264-1.953 5.522-10.496 3.534-9.267-.41.254-1.266-.678-1.9-2.071-.815-1.789-.829-2.331-.047-1.848 1.308.808.425-.922-6.152-12.057-2.599-4.4-5.614-8.804-6.701-9.786-1.925-1.74-1.962-1.717-1.462.899.355 1.857.16 2.466-.632 1.977-.63-.39-1.145-1.581-1.145-2.649 0-3.124-1.587-2.271-5.374 2.888M69.608 53.567A2370 2370 0 0 1 58.765 77c-7.15 15.161-16.355 38.412-18.332 46.305-1.442 5.759-1.502 7.22-.39 9.5.723 1.482 1.346 3.145 1.386 3.695s.614 1 1.278 1 1.887.9 2.718 2c1.4 1.854 1.44 1.745.543-1.493-1.373-4.955-1.174-12.525.512-19.507.797-3.3 1.465-7.688 1.484-9.75.021-2.16.495-3.644 1.118-3.5.594.137 2.314-3.125 3.822-7.25 4.077-11.158 11.581-28.99 17.769-42.227 3.015-6.45 5.335-12.495 5.154-13.433s-2.979 4.113-6.219 11.227m-3.285-.317c-1.114 1.237-2.384 2.925-2.822 3.75s.62-.044 2.351-1.93C67.583 53.183 69 51.496 69 51.32c0-.743-.771-.187-2.677 1.93m55.857 1.034c-.739.889-.747 1.733-.028 2.75.876 1.238.957 1.213.52-.162-.283-.896-.011-2.133.606-2.75s.862-1.122.544-1.122-1.056.578-1.642 1.284m-50.621 5.591c.487 1.764.331 2.175-.606 1.596-.852-.527-1.013-.376-.495.462.507.82 1.104.905 1.758.251.655-.655.6-1.618-.16-2.838-1.019-1.634-1.076-1.574-.497.529m7.261 1.902c-2.358 2.61-5.02 8.009-8.616 17.473C67.342 86.782 65 93.29 65 93.71s3.076-5.534 6.836-13.233c3.76-7.698 8.041-15.905 9.513-18.237 3.318-5.258 2.018-5.496-2.529-.463m-10.246 2.89c-.352.917-.148 2.155.452 2.75.788.781.889.55.363-.831-.505-1.327-.374-1.695.43-1.198.756.468.952.178.563-.836-.754-1.964-1.016-1.947-1.808.115m-36.335 3.205c4.36 5.54 4.019 5.426 13.952 4.67 5.12-.391 9.467-.867 9.659-1.059.822-.821-1.125-2.483-2.909-2.483-1.068 0-1.941-.375-1.941-.832 0-.458-2.154-.645-4.787-.416s-7.137-.011-10.01-.533c-4.725-.859-5.104-.797-3.964.653m25.358.972c-.346.56-.142 1.319.453 1.687 1.538.95 2.53-.351 1.246-1.635-.718-.718-1.277-.735-1.699-.052m-6.333 4.874c1.52.229 3.77.223 5-.014s-.014-.425-2.764-.418-3.756.202-2.236.432m-2.19 5.138c.041 2.004.378 5.623.75 8.041l.676 4.398 1.88-3.898c1.034-2.143 2.481-5.309 3.216-7.034l1.336-3.137-3.966-1.007L49 75.213zm-10.312-.31c1.214.85 3.382 3.55 4.818 6S46.597 89 47.095 89c1.013 0 1.24-7.962.298-10.418-.444-1.157-1.98-1.582-5.722-1.582-4.901 0-5.023.065-2.909 1.546M155 78c-1.293.835-1.266.971.191.985.93.008 1.969-.435 2.309-.985.782-1.266-.542-1.266-2.5 0M45.733 93.271C43.756 95.707 43.523 97 45.059 97c.597 0 .718.545.278 1.25-1.057 1.692-1.34 3.936-.64 5.069.616.997 3.041-4.089 3.711-7.783.642-3.543-.71-4.687-2.675-2.265m17.891 3.268c-.965 2.514-.681 3.163.498 1.136.584-1.004.851-2.036.593-2.293-.257-.258-.749.263-1.091 1.157M43 106.5c0 .825.177 1.5.393 1.5s.652-.675.969-1.5.139-1.5-.393-1.5c-.533 0-.969.675-.969 1.5m52.2 5.7c-1.647 1.647-1.505 3.746.3 4.438.825.317 1.5 1.232 1.5 2.035 0 .802.521 2.431 1.157 3.62 1.131 2.113 1.175 2.118 1.93.185 1.979-5.067.535-11.478-2.587-11.478-.605 0-1.64.54-2.3 1.2m-39.662 6.043c-.957 4.726-.24 7.472 2.939 11.257l2.519 3-1.492-3c-2.004-4.03-1.897-8.159.246-9.475 1.615-.992 1.601-1.054-.184-.8-1.338.19-2.139-.495-2.602-2.225-.62-2.321-.722-2.233-1.426 1.243m47.898-1.139c-.368.596-.811 7.904-.984 16.24l-.314 15.156 1.003-13.5c.635-8.553 1.491-14.05 2.337-15 1.114-1.251 1.111-1.705-.019-2.74-.948-.869-1.554-.916-2.023-.156m-87.675 3.366c-.26 1.358-.141 2.265.263 2.015 1.075-.664 1.926-4.485.999-4.485-.434 0-1.002 1.111-1.262 2.47m50.462 16.78c-.742.908.046 2.483 2.875 5.75 3.233 3.734 3.897 4.138 3.899 2.372.004-3.262-2.856-9.372-4.388-9.372-.75 0-1.824.563-2.386 1.25m59.085 9.711c-5.605 5.952-10.378 10.635-10.607 10.407-.229-.229-.956.234-1.616 1.029-.991 1.195-.85 1.354.812.92 3.102-.812 24.916-23.981 21.888-23.248-.157.038-4.871 4.939-10.477 10.892m33.74-8.512c-2.455 2.613-2.188 5.852.414 5.034 5.187-1.629 4.953-1.367 3.076-3.441-.954-1.054-1.438-2.394-1.077-2.979 1.127-1.824-.013-1.169-2.413 1.386M60 147.5c1.866 1.925 3.617 3.5 3.892 3.5s-1.026-1.575-2.892-3.5-3.617-3.5-3.892-3.5 1.026 1.575 2.892 3.5m100.5-.5c.34.55.816 1 1.059 1s.441-.45.441-1-.477-1-1.059-1-.781.45-.441 1m-110.948 3.084c.685 1.109 6.487 4.21 6.972 3.726.185-.186-1.437-1.31-3.605-2.497-2.168-1.188-3.683-1.741-3.367-1.229M144.5 152c-3.145 3.283-3.06 4.221.305 3.341 1.241-.325 2.485-1.648 2.826-3.007.899-3.58.064-3.669-3.131-.334m-77.5-.622c0 .207.787.995 1.75 1.75 1.586 1.243 1.621 1.208.378-.378-1.307-1.666-2.128-2.195-2.128-1.372M80.5 154c.995 1.1 2.035 2 2.31 2s-.315-.9-1.31-2-2.035-2-2.31-2 .315.9 1.31 2m-9.5.378c0 .207.787.995 1.75 1.75 1.586 1.243 1.621 1.208.378-.378-1.307-1.666-2.128-2.195-2.128-1.372m66.696 2.882c-1.096.82-1.362 1.71-.785 2.625.695 1.101 1.118.929 2.063-.836 1.454-2.718.936-3.444-1.278-1.789m-5.196 3.406-2 1.603 2-.694c1.604-.556 1.753-.444.75.566-.687.692-1.247 1.956-1.243 2.809.003.919.815.328 1.993-1.45 3.074-4.641 2.383-5.946-1.5-2.834m-52.897.167c-.283.459.12.834.897.834s1.18-.375.897-.834S80.71 160 80.5 160s-.614.375-.897.833m9.397-.256c0 .675 5.195 2.562 5.69 2.067.227-.227-.961-.891-2.639-1.476S89 160.317 89 160.577m12.98 14.947c-.696.838-1.071 1.718-.835 1.955.237.236.98-.449 1.651-1.524 1.452-2.325.968-2.58-.816-.431"/><path fill-opacity=".078" fill-rule="evenodd" d="M0 24.691c0 22.241.15 24.499 1.514 22.75 1.049-1.343 1.434-1.479 1.25-.441-.193 1.098.849 1.581 3.891 1.803 4.773.348 5.964 2.553 4.373 8.099-.51 1.778-.558 4.215-.106 5.416.937 2.49.279 8.44-1.022 9.244-.479.296-.619-.722-.312-2.262s.002-4.15-.677-5.8-1.15-3.372-1.047-3.826-.95-2.176-2.339-3.826C4.136 54.197 3 52.479 3 52.03s-.675-1.075-1.5-1.392C.184 50.133 0 54.411 0 85.5c0 31.014.186 35.366 1.493 34.864.981-.376 1.298-1.35.923-2.841-.459-1.831-.066-2.394 2.038-2.922 1.863-.468 2.776-1.502 3.201-3.628.327-1.635.989-2.973 1.47-2.973s.875-2.7.875-6c0-4.557-.346-6-1.441-6-.793 0-1.719.45-2.059 1-.802 1.298-3.5 1.298-3.5 0 0-.55.338-.947.75-.882 1.908.302 2.62-.231 1.368-1.024C3.526 94.086 4.39 87 6.104 87c.558 0 .755.419.439.931-.317.512-.118 1.213.441 1.559.607.375 1.016-.651 1.016-2.548 0-2.895.233-3.131 2.65-2.669 1.963.376 3.258-.15 5-2.029 1.747-1.886 2.35-2.129 2.35-.949 0 .873-.39 1.828-.867 2.123-.941.582-.843 6.923.376 24.242.771 10.937.733 11.251-1.861 15.677-3.444 5.877-7.105 8.702-11.033 8.513-3.022-.145-3.033-.162-.365-.566 1.513-.229 2.75-.823 2.75-1.319s.749-.615 1.664-.264c1.144.439 1.43.261.917-.57-.411-.666-.748-3.251-.748-5.745 0-3.831-.259-4.433-1.666-3.875-.917.364-2.456.822-3.421 1.018C.388 121.213 0 122.164 0 129.714c0 7.296.072 7.531 1.829 5.941 2.005-1.815 7.689-2.244 8.671-.655.34.55 1.971 1 3.625 1s3.867.461 4.92 1.024c1.837.983 1.79 1.273-1.197 7.33-3.224 6.538-5.811 8.501-12.245 9.29C.016 154.33 0 154.401 0 178.122V200h47.75l.552-2.758c.303-1.516 1.885-3.744 3.516-4.949 2.597-1.921 3.442-2.061 6.823-1.131 2.123.583 5.761 2.81 8.087 4.949S71.42 200 71.988 200s-1.451-2.25-4.488-5l-5.521-5h12.445c15.772 0 17.576.613 17.576 5.975 0 2.553.457 4.025 1.25 4.026 1.257 0 1.552-7.758.419-11.001-.446-1.276-.344-6.012.174-8.143.087-.354.855-.911 1.709-1.239.89-.341 1.291-.173.941.393-.385.623 2.098.93 6.698.829 4.02-.088 5.786-.346 3.924-.573l-3.386-.414 2.845-1.476c7.757-4.024 40.838-28.76 48.305-36.119 4.608-4.542 8.967-8.258 9.686-8.258.727 0 1.488 1.445 1.712 3.25l.403 3.25.16-3.25c.127-2.573.593-3.25 2.239-3.25 1.83 0 1.992.391 1.35 3.25-.402 1.787-.738 3.845-.747 4.573-.009.77-.754 1.13-1.784.861-.973-.255-1.989.111-2.259.813-.557 1.453 2.987.9 5.161-.806.924-.724 1.787-.532 2.983.664 1.378 1.378 1.459 1.996.444 3.414-.682.952-1.54 2.372-1.907 3.155s-1.377 2.213-2.244 3.178-2.2 2.508-2.962 3.43c-1.251 1.511-1.677 1.171-4.363-3.482-1.638-2.836-3.141-4.993-3.341-4.794-.199.2.538 2.732 1.638 5.627 1.188 3.128 1.515 4.965.806 4.527-.814-.503-.991-.208-.555.926.351.915.169 1.664-.404 1.664s-.887.787-.699 1.75c.58 2.963-4.001 4.548-14.947 5.169-5.639.319-10.251.439-10.25.265.003-.91 2.5-4.958 4.233-6.863 1.09-1.198 1.763-2.773 1.494-3.5-.307-.832-.864-.378-1.505 1.226-.559 1.401-2.18 3.651-3.602 5s-2.592 3.033-2.602 3.743c-.03 2.296-3.885 8.945-5.556 9.587-.894.342-3.163.623-5.043.623s-3.418.509-3.418 1.13c0 .743 1.497.961 4.368.638 4.326-.488 4.387-.451 6.5 3.897 1.172 2.413 2.132 4.593 2.132 4.842 0 .464-15.568.841-29 .703-5.425-.056-6.644.137-4.406.698 1.702.427 9.489.816 17.305.866 18.373.118 19.366.359 21.714 5.276l1.887 3.951 30.5-.251 30.5-.25.245-99.75.246-99.75h-40.937c-26.212 0-41.158.36-41.554 1-.34.55-1.293 1-2.118 1-.934 0-1.217-.472-.749-1.25.438-.729-.035-.624-1.133.25s-1.571.979-1.133.25c.582-.969-1.339-1.207-8.558-1.057-7.763.16-8.242.252-2.883.552 6.048.338 6.276.438 3.87 1.686-1.407.73-5.641 2.353-9.409 3.607-5.824 1.938-7.981 3.38-14.37 9.607-4.134 4.031-7.967 7.325-8.517 7.322s-3.25-.588-6-1.3l-5-1.294-.285-10.186C62.048 4.218 61.514 0 60.925 0c-.552 0-2.895.965-5.206 2.144-2.877 1.467-3.806 1.665-2.945.628 1.069-1.288.786-1.61-1.883-2.144C49.163.283 37.006 0 23.875 0H0zM63.677.638c.869.354.902 1.271.126 3.497-.756 2.169-.736 3.332.073 4.141.832.832 1.157.747 1.252-.326.384-4.362.653-5.786 1.288-6.814.45-.729-.125-1.108-1.607-1.057-1.27.043-1.779.295-1.132.559M.432 25c0 13.475.142 18.987.315 12.25.173-6.738.173-17.763 0-24.5C.574 6.012.432 11.525.432 25M45.449 4.875c-2.228 2.104-4.703 4.056-5.5 4.338s-1.133.853-.747 1.269c.387.416 1.35.109 2.14-.681.791-.791 2.745-2.537 4.342-3.881 2.601-2.189 4.937-4.961 4.125-4.895-.17.014-2.132 1.746-4.36 3.85m76.423-2.125c-1.243 1.586-1.208 1.621.378.378.963-.755 1.75-1.543 1.75-1.75 0-.823-.821-.294-2.128 1.372m-12.906.292c-.806.51-5.066 2.118-9.466 3.573-7.329 2.424-8.671 3.314-16 10.607l-8 7.961-5-.461c-2.75-.254-5.787-.793-6.75-1.198-1.578-.665-1.75.01-1.75 6.869V38l3.75.157c2.063.086 4.984.243 6.492.35 2.431.173 3.183-.609 6.64-6.906 2.145-3.906 4.737-7.851 5.759-8.767 2.764-2.478 9.766-5.01 14.328-5.182 2.211-.084 4.029-.602 4.041-1.152.012-.576.332-.532.755.105.753 1.132 6.937 3.461 8.735 3.29.55-.052.887-.5.75-.995-.138-.495.087-.811.5-.702.412.109 1.763-.146 3-.567 1.608-.547 2.25-1.557 2.25-3.538 0-2.246-.756-3.133-3.989-4.682-2.193-1.051-3.993-2.473-4-3.161-.013-1.506-1.176-1.61-2.815-.254-.662.548-.541.241.269-.683 1.368-1.56 1.602-1.563 3.294-.031 1.705 1.543 1.831 1.515 1.977-.43.086-1.143-.115-1.806-.448-1.474-.332.333-1.11.184-1.73-.329-.692-.575-1.689-.578-2.592-.007M55.75 4.08C54.788 4.641 54 5.752 54 6.55 54 7.347 53.55 8 53 8s-1 .45-1 1 .675 1 1.5 1c2.457 0 1.701 1.911-1.027 2.596-1.929.484-2.272.941-1.451 1.93 1.228 1.48-.342 3.012-2.022 1.974-.55-.34-1-.179-1 .358s.563 1.212 1.25 1.501c.894.375.748.842-.51 1.638-1.948 1.232-5.01 7.757-4.232 9.016.272.44-.444.555-1.591.255-1.586-.415-1.766-.748-.752-1.391 1.103-.699 1.096-.849-.037-.862-1.102-.012-1.129-.308-.137-1.504.68-.819 1.522-1.312 1.872-1.096s.57-1.702.488-4.261c-.222-6.918-.213-6.888-2.101-7.606-1.403-.534-1.502-.417-.5.593.688.692 1.25 3.408 1.25 6.035 0 4.451-.239 4.899-3.503 6.573-3.401 1.745-3.456 1.865-1.881 4.113 2.313 3.302 7.175 2.188 15.634-3.583 6.867-4.685 7.63-5.617 5.617-6.861-.759-.469-.954-3.05-.59-7.809.323-4.232.203-6.299-.297-5.109-.812 1.934-.842 1.929-.91-.167-.038-1.191.493-2.393 1.18-2.671.688-.277.8-.526.25-.553-.55-.026-1.788.41-2.75.971m60.833 1.786c-.431.697-.513 1.537-.183 1.867.895.895 1.871-.421 1.387-1.871-.338-1.016-.574-1.016-1.204.004M32.5 8c.995 1.1 2.035 2 2.31 2s-.315-.9-1.31-2-2.035-2-2.31-2 .315.9 1.31 2M12 9.378c0 .207.787.995 1.75 1.75 1.586 1.243 1.621 1.208.378-.378C12.821 9.084 12 8.555 12 9.378M56.158 12c0 1.375.227 1.938.504 1.25.278-.687.278-1.812 0-2.5-.277-.687-.504-.125-.504 1.25m7.037.5c.02 1.65.244 2.204.498 1.231s.237-2.323-.037-3-.481.119-.461 1.769m58.117 9.476.202 12.062 2.985 2.379c2.516 2.006 3.77 2.301 7.992 1.876 5.771-.58 7.759-2.046 7.759-5.722 0-1.434.394-2.851.875-3.148s.875-.991.875-1.541-.562-.662-1.25-.249c-.849.51-.81.209.122-.941 1.12-1.38 1.137-1.977.093-3.234-1.006-1.212-1.019-1.802-.063-2.75.953-.946 1.072-.829.55.542-.386 1.014-.2 1.75.441 1.75 1.554 0 1.377-2.26-.358-4.559-1.423-1.886-1.532-1.858-3.854.996l-2.39 2.936-1.706-2.602c-2.065-3.152-4.637-4.3-5.727-2.555-.441.706-.535-.516-.21-2.716.564-3.809.515-3.905-1.029-2-1.612 1.99-1.63 1.989-3.565-.293-1.944-2.293-1.945-2.288-1.742 9.769M36 11.713c.825.306 2.175 1.058 3 1.671 1.303.97 1.32.887.128-.634-.755-.963-2.105-1.714-3-1.671-1.362.066-1.383.17-.128.634m-19.119 3.506c.461 2.777.601 2.917.916.916.205-1.301-.04-2.778-.544-3.282-.555-.555-.701.378-.372 2.366M37 18.059c0 .582-.52.738-1.155.346-.689-.426-.884-.276-.483.371.369.597.213 1.368-.346 1.714s-1.014 1.164-1.011 1.819 1.053-.119 2.334-1.72q2.33-2.912 3.65-2.096 1.316.812.606-.338c-.894-1.448-3.595-1.52-3.595-.096m56 1.955c-1.055.692-.462.793 2 .341 4.313-.791 5.126-1.36 1.917-1.34-1.329.009-3.092.458-3.917.999m9.813-.331c.721.289 1.584.253 1.916-.079s-.258-.568-1.312-.525c-1.165.048-1.402.285-.604.604m13.457 1.244c-1.934 1.615-2.034 2.024-.75 3.09.814.675 1.462 1.96 1.44 2.855-.026 1.039-.578.637-1.525-1.109-1.48-2.728-6.165-5.82-8.635-5.7-.715.035-.335.453.845.929s3.279 2.36 4.666 4.187c4.204 5.538 10.923 18.769 10.324 20.331-.322.839-.044 1.364.651 1.228.672-.132 1.181.743 1.14 1.962-.041 1.21.213 2.023.563 1.807.63-.39 7.056 11.851 6.962 13.262-.026.402-1.579-2.194-3.451-5.769-4.711-8.999-4.333-7.027.896 4.668A1272 1272 0 0 1 138.221 83c2.436 5.775 4.912 10.403 5.503 10.284s2.141 2.671 3.446 6.2c1.808 4.891 2.7 6.214 3.751 5.565 1.11-.686.464-2.942-3.315-11.573-2.583-5.896-4.509-10.906-4.281-11.134.417-.417 11.059 22.633 12.977 28.107.925 2.642 1.112 2.746 1.795 1 .419-1.072.794-4.087.833-6.699.043-2.912.521-4.75 1.237-4.75.641 0 .884-.282.539-.627s1.311-3.158 3.68-6.25c5.665-7.396 7.254-10.41 5.751-10.911-.632-.21-.903-.781-.602-1.268s-.484-1.096-1.744-1.354-3.641-.764-5.291-1.126c-4.345-.952-7.391-1.003-12.704-.214-3.756.558-5.05.353-6.419-1.016-1.619-1.619-1.679-1.548-1.072 1.276.744 3.467 1.057 4.058-5.435-10.26-4.173-9.204-4.343-11.115-.267-3 1.451 2.888 2.809 5.438 3.019 5.668.346.38 2.919-.646 7.614-3.035.955-.486 3.286-.883 5.179-.883s4.117-.675 4.942-1.5 2.365-1.5 3.422-1.5c1.723 0 1.932-.803 2.013-7.75.076-6.419-.285-8.307-2.1-10.993-1.206-1.783-2.642-3.085-3.192-2.893s-2.012-.025-3.25-.483c-1.309-.484-2.25-.445-2.25.092 0 .543-1.203.504-2.919-.094-1.605-.56-4.401-.874-6.214-.698-3.031.293-3.493.823-5.744 6.581l-2.448 6.263 2.27 2.416c1.248 1.329 2.032 3.011 1.741 3.738-.408 1.019-.546.991-.607-.124-.043-.795-1.259-2.677-2.701-4.182-2.363-2.467-2.511-3.054-1.5-5.954 1.544-4.429 1.408-5.401-.533-3.791-1.537 1.275-1.539 1.15-.029-1.772l1.626-3.144-3.721-.455c-6.217-.761-6.33-.266-2.038 8.893 2.194 4.681 3.738 8.763 3.431 9.069s-.967-.517-1.467-1.83C129.808 53.371 119.034 31.746 118 30.5c-.843-1.015-.094-5.907 1.492-9.75.93-2.253-.397-2.18-3.222.177m-30.027 2.522c-3.175 2.671-9.599 13.861-8.557 14.904.356.356.197.647-.354.647-.992 0-2.528 3.09-16.405 33-12.981 27.98-21.878 51.196-21.912 57.173-.008 1.471 1.15 4.058 2.574 5.75S43.814 138 43.37 138c-1.128 0 10.685 11.904 13.13 13.23 1.1.597-.592-1.317-3.76-4.254-4.385-4.066-5.612-5.803-5.143-7.283.388-1.22.229-1.703-.426-1.299-1.838 1.136-2.571-8.406-1.221-15.894.694-3.85 1.496-9.138 1.783-11.75.341-3.107.996-4.75 1.894-4.75.755 0 1.38-.787 1.388-1.75s.488-2.425 1.066-3.25c.815-1.164.923-.941.483 1-.583 2.569-.18 1.725 8.68-18.173 2.859-6.419 5.483-11.496 5.831-11.281 1.077.666 2.908-4.426 2.228-6.198-.381-.993-.238-1.426.352-1.061.547.338 1.973-1.4 3.17-3.863C75.5 55.918 75.623 54.209 73 59c-1.054 1.925-1.935 3.275-1.958 3-.067-.816 3.95-11.084 5.539-14.158.809-1.563 1.105-2.842.659-2.842s-.811-.875-.811-1.945c0-1.413.332-1.668 1.216-.935 1.582 1.313 3.62-2.267 2.681-4.712-.45-1.174-.291-1.504.493-1.02.78.482.943.156.5-1-.483-1.256-.304-1.497.666-.898.888.55 1.085.433.599-.354-.905-1.464 2.816-7.89 6.3-10.881 1.439-1.235 2.088-2.247 1.443-2.25-.646-.003-2.483 1.097-4.084 2.444m9.163.801c-8.053 9.329-22.262 39.89-32.986 70.947-5.374 15.562-6.477 19.842-4.33 16.803.789-1.117.901-.543.441 2.242-.594 3.596-.509 3.738 2.175 3.631 1.537-.062 5.768-.779 9.402-1.593 3.634-.815 7.459-1.292 8.5-1.06 1.062.236-.656.974-3.914 1.683-3.563.774-5.655 1.713-5.417 2.429.215.643.824 1.168 1.354 1.168s3.49 2.157 6.576 4.794l5.611 4.793-4.909 4.909c-2.7 2.7-4.927 5.493-4.948 6.206s-.675-.165-1.452-1.952S69.4 136 68.548 136 67 135.646 67 135.212c0-.433-1.337-2.346-2.971-4.25l-2.971-3.462.307 3.241c.194 2.049 1.86 5.083 4.53 8.25 2.409 2.856 3.917 5.504 3.51 6.163-.426.69-.277.885.371.484.597-.369 1.369-.212 1.716.348.424.687 1.243.691 2.508.014 1.255-.672 2.084-.673 2.498-.003.624 1.009-.143 1.409-1.998 1.043-.55-.109-.228.625.714 1.631.943 1.006 3.068 3.404 4.721 5.329s3.02 2.964 3.036 2.309-.428-1.474-.987-1.819c-.559-.346-.715-1.117-.346-1.714.375-.605.211-.801-.37-.442-.573.354-1.613-.045-2.312-.887-1.005-1.211-1.014-1.784-.042-2.739.963-.947 1.159-.883.907.292-.238 1.115.776 1.579 3.952 1.809 2.35.169 4.079.619 3.843 1-.236.38 1.955.54 4.869.355 5.003-.318 5.333-.506 5.907-3.375.335-1.672.687-6.02.783-9.664.124-4.704.262-5.32.476-2.125.8 11.957 2.808 28 3.505 28 .429 0 4.134-2.925 8.233-6.5s7.664-6.5 7.922-6.5c.259 0-2.518 2.917-6.171 6.482-3.652 3.565-6.145 6.49-5.54 6.5 1.523.025 17.118-13.886 21.476-19.157 1.966-2.379 4.383-5.675 5.369-7.325l1.793-3-3.119 3.266c-1.715 1.796-3.119 2.964-3.119 2.595s-.889.134-1.976 1.118c-1.087.983-1.773 2.118-1.524 2.521.578.935-2.97 4.197-3.734 3.433-.314-.314.504-2.453 1.819-4.752 2.811-4.915 3.005-8.623.81-15.422-1.362-4.216-2.445-5.523-7.14-8.615-3.732-2.457-6.682-3.644-9.061-3.644-1.94 0-3.275-.253-2.966-.562.309-.308 4.322-.603 8.917-.653 6.13-.067 7.423-.282 4.855-.807l-3.5-.715 3.645-.131c4.239-.153 16.63 3.425 18.934 5.468 1.919 1.702 3.561 1.791 4.516.245.428-.692.276-.883-.38-.478-1.078.667-1.231.039-1.363-5.617-.035-1.513-.37-2.75-.745-2.75s-.754-.97-.844-2.155c-.214-2.842-9.488-28.932-13.323-37.479-1.659-3.698-2.78-7.341-2.49-8.097s.125-1.125-.366-.821-1.942-1.978-3.223-5.071c-2.095-5.053-2.406-5.382-3.071-3.25-.604 1.932-.685 1.769-.439-.877.167-1.788-.096-3.25-.583-3.25s-.608-.45-.268-1 .066-1-.608-1-.927-.298-.563-.662c.68-.68-4.075-9.777-9.977-19.088-3.757-5.929-6.661-6.805-9.946-3m3.609-.559c.009.445.452 1.484.985 2.309.835 1.293.971 1.266.985-.191.008-.93-.435-1.969-.985-2.309s-.993-.254-.985.191m-44.042 2.962c-1.36.91-3.614 2.702-5.01 3.983-1.59 1.46-4.134 2.473-6.818 2.715-4.62.416-7.173 2.043-5.595 3.565 1.136 1.095 13.454 1.894 13.452.873-.001-.392-1.915-1.257-4.252-1.923-2.5-.712-3.551-1.371-2.552-1.601.933-.215 2.591.087 3.684.672S52.178 36 55.002 36c4.761 0 5.084-.152 4.465-2.103-.367-1.156-.667-3.631-.667-5.5 0-3.866-.389-4.043-3.827-1.744m43.256 4.978c-.639 2.131-2.756 6.572-4.705 9.871-3.314 5.607-3.354 5.77-.611 2.504 1.613-1.921 3.132-3.271 3.375-3 1.836 2.054 2.726 5.908 2.811 12.178.054 4.024.444 9.791.865 12.816.518 3.719.778-.978.802-14.5.038-21.596-.577-26.411-2.537-19.869m-74.216-1.66c-1.169.739-1.009.904.75.772 1.23-.093 2.237-.523 2.237-.956 0-1.043-1.159-.972-2.987.184m3.987.194c0 .426 1.504.718 3.343.648s3.858.193 4.488.583c.748.462.935.157.538-.878-.435-1.131-1.719-1.519-4.489-1.356-2.134.126-3.88.577-3.88 1.003m22.733 3.959c.679.684 1.486.991 1.793.683.308-.308-.247-.867-1.233-1.243-1.425-.542-1.54-.428-.56.56m13.493 1.45c.95.994 2.001 1.533 2.336 1.197s-.442-1.148-1.726-1.807c-2.233-1.145-2.26-1.118-.61.61m76.384.999c-.42 1.096-.099 1.475 1.061 1.25.915-.178 1.851-.885 2.079-1.573.613-1.839-2.43-1.526-3.14.323m-12.61.26c0 .459.675.834 1.5.834s1.5-.375 1.5-.834-.675-.833-1.5-.833-1.5.375-1.5.833m18.25-.171c-2.112.852-1.386 2.135 1.122 1.982 1.45-.088 2.186-.63 1.893-1.394-.504-1.316-.98-1.409-3.015-.588M72 41.113c0 .669-1.199.938-3 .674-2.143-.315-3-.031-3 .993 0 .864-.596 1.205-1.5.858-1.243-.477-1.5.596-1.5 6.271 0 4.258-.473 7.237-1.25 7.881-.946.784-1.302.319-1.463-1.913-.148-2.06.153-2.743 1-2.266.89.5.88.324-.037-.664-.687-.741-1.25-3.227-1.25-5.525 0-2.297-.565-4.646-1.256-5.22-1.555-1.29-11.976-1.358-16.884-.11-3.168.806-3.732 1.411-4.342 4.667-.899 4.795-3.253 8.761-6.107 10.289C29.178 58.242 24 68.254 24 71.375c0 1.759.567 1.908 6.26 1.645 4.548-.211 9.74.833 9.74 1.958 0 .45-3.263 1.113-7.25 1.473-13.02 1.174-12.33.749-13.544 8.348-1.13 7.07-.477 44.915.788 45.697.384.238 4.367.738 8.852 1.112 7.571.631 8.155.544 8.169-1.214.023-2.92 4.248-15.592 9.801-29.394 4.764-11.844 7.459-17.884 17.802-39.9 2.429-5.169 4.19-9.625 3.915-9.901s.102-.996.839-1.6C71.184 48.114 74.244 40 72.992 40c-.546 0-.992.501-.992 1.113m-47.822 1.398c.281.281 2.269 1.389 4.417 2.46 3.117 1.556 3.451 1.957 1.655 1.989-1.238.022-2.25.66-2.25 1.418 0 2.797-2.688 3.853-7.21 2.834-2.36-.532-5.077-1.296-6.04-1.697-1.551-.646-1.749-.063-1.739 5.128.014 7.456.982 13.357 2.191 13.357 1.532 0 3.492 2.419 3.045 3.759-.238.713.44 1.241 1.592 1.241 1.436 0 2.351-1.066 3.219-3.75 1.998-6.178 4.963-11.397 7.859-13.834 1.502-1.264 3.292-4.171 3.978-6.461s1.489-4.791 1.783-5.559c.426-1.11-.852-1.396-6.238-1.396-3.725 0-6.543.23-6.262.511M157 43.924c0 .657-.562.909-1.25.561s-.35.094.75.984c1.1.889 2 2.123 2 2.741s.563 1.311 1.25 1.54c1.879.626 1.504-1.611-.75-4.477-1.1-1.399-2-2.005-2-1.349m-36.571 7.149c0 1.06.38 1.927.844 1.927.465 0 .569.446.232.992s-.105 1.783.516 2.75c1.069 1.662 1.1 1.663.586.008-.299-.962-.27-1.75.064-1.75.335 0 1.241.788 2.014 1.75s.491-.132-.626-2.432c-2.35-4.84-3.63-5.985-3.63-3.245M.451 85.5c0 19.8.134 28.042.297 18.315.164-9.727.164-25.927.001-36S.452 65.7.451 85.5m71.173-31.961c-.965 2.514-.681 3.163.498 1.136.584-1.004.851-2.036.593-2.293-.257-.258-.749.263-1.091 1.157m43.321 4.027c-1.998 2.408-6.964 4.662-9.062 4.114-1.358-.355-1.883.039-1.883 1.414 0 2.622 1.427 2.396 6.377-1.01 3.981-2.738 7.482-6.084 6.368-6.084-.275 0-1.085.705-1.8 1.566m-47.321 3.973c-.965 2.514-.681 3.163.498 1.136.584-1.004.851-2.036.593-2.293-.257-.258-.749.263-1.091 1.157m-2.06 5.168c-.542 1.425-.428 1.54.56.56.684-.679.991-1.486.683-1.793-.308-.308-.867.247-1.243 1.233m66.501-1.466c-.099 1.126 6.17 14.858 6.59 14.437.203-.202-1.183-3.7-3.078-7.773-1.896-4.073-3.476-7.071-3.512-6.664m19.435 4.594-10 2.665 9.425.29c5.184.159 10.021.061 10.75-.219 1.37-.526 1.906-5.637.575-5.486-.412.047-5.25 1.285-10.75 2.75m-84.041-.768c-.363.586-.445 1.281-.183 1.543s.743-.218 1.069-1.067c.676-1.762.1-2.072-.886-.476m-3.835 2.472c-.965 2.514-.681 3.163.498 1.136.584-1.004.851-2.036.593-2.293-.257-.258-.749.263-1.091 1.157m-2.462 6.004c-1.675 3.677-1.355 4.462.456 1.119.846-1.562 1.351-3.026 1.123-3.255-.229-.228-.939.733-1.579 2.136M199.158 79c0 1.375.227 1.938.504 1.25.278-.687.278-1.812 0-2.5-.277-.687-.504-.125-.504 1.25m-29.983-.491c.305.304 1.576.75 2.825.991s1.973.14 1.61-.224c-.364-.363-1.635-.809-2.825-.991s-1.914-.081-1.61.224m1.414 8.784c-1.862 2.912-4.14 5.919-5.061 6.683-3.69 3.063-6.718 13.165-6.666 22.245.016 2.974 4.353 13.78 5.522 13.759 1.114-.019 7.616-10.316 7.616-12.06 0-.506.422-.92.938-.92s.87-.9.787-2-.553-2-1.045-2-.635.675-.318 1.5c.316.825.139 1.5-.393 1.5-1.212 0-1.288-3.713-.086-4.167.491-.185.592-4.766.228-10.301-.518-7.873-.316-10.973.963-14.75.89-2.63 1.457-4.782 1.26-4.782s-1.883 2.382-3.745 5.293M140.114 83.5c.019.55.9 2.8 1.958 5s1.643 2.875 1.301 1.5c-.705-2.831-3.311-8.03-3.259-6.5m-82.55 2.207c-.542 1.425-.428 1.54.56.56.684-.679.991-1.486.683-1.793-.308-.308-.867.247-1.243 1.233m-1.94 4.832c-.965 2.514-.681 3.163.498 1.136.584-1.004.851-2.036.593-2.293-.257-.258-.749.263-1.091 1.157m-2 5c-.343.893-.595 2.15-.561 2.793.035.642.495.09 1.022-1.227s.779-2.574.56-2.793-.679.333-1.021 1.227m127.965 9.538c-2.717 3.229-3.63 6.038-1.339 4.122 1.436-1.201 5.098-7.199 4.395-7.199-.257 0-1.632 1.385-3.056 3.077m-31.387 1.398c-1.687.752-2.133 1.557-1.678 3.025 1.627 5.246 1.677 16.084.092 19.878-1.381 3.304-1.397 3.685-.112 2.619.827-.687 1.951-2.654 2.497-4.373l.992-3.124-.505 3.416c-.277 1.88-1.537 4.805-2.799 6.5-4.574 6.148-6.554 10.319-5.43 11.443.758.758-.042.888-2.751.449-2.87-.466-3.631-.316-3.063.603.508.822.157 1.119-1.072.906-1.006-.174-1.838.243-1.851.927-.029 1.611-12.422 12.436-13.486 11.778-.445-.275-1.423.283-2.173 1.239-1.26 1.608-1.212 1.627.637.256 1.98-1.468 1.981-1.46.095.75-2.023 2.371-4.205 3.087-2.994.983.418-.726.338-.901-.191-.417-.5.459-.91 1.319-.91 1.912 0 .592-2.07 2.467-4.601 4.166-3.127 2.1-4.608 3.799-4.625 5.307-.021 1.947.237 2.082 2.101 1.105 2.706-1.418 9.432-6.07 17.112-11.838 3.307-2.483 8.653-6.306 11.879-8.496 7.586-5.149 22.307-18.926 23.271-21.778 1.02-3.021.686-4.814-2.827-15.211-4.193-12.405-4.757-13.297-7.608-12.025m-3.123 6.108c.048 1.165.285 1.402.604.605.289-.722.253-1.585-.079-1.917s-.568.258-.525 1.312M83.5 114c-2.89.735-2.853.767 1 .866 2.2.057 4.675-.333 5.5-.866 1.177-.761.962-.947-1-.866-1.375.056-3.85.446-5.5.866m17.836 1c.254 1.375-.095 4.074-.775 5.998l-1.238 3.497-1.621-2.997c-.892-1.649-1.64-2.435-1.662-1.748s-.913 1.25-1.981 1.25c-1.869 0-3.717 1.675-2.829 2.564.237.237 1.745.525 3.351.641 3.367.243 4.353 1.299 4.476 4.795.048 1.375.955-1.028 2.014-5.341 1.414-5.753 1.644-8.282.865-9.5-.876-1.368-.981-1.221-.6.841m49.936 2c0 2.475.195 3.487.434 2.25.238-1.237.238-3.263 0-4.5-.239-1.237-.434-.225-.434 2.25m-95.687 1.264c-.913 5.327.29 9.427 3.643 12.414 2.044 1.82 2.044 1.819.409-1.378-2.057-4.022-2.077-6.717-.066-8.729C61 119.143 60.961 119 59.138 119c-1.432 0-2.11-.786-2.371-2.75-.292-2.197-.53-1.793-1.182 2.014M92 115.059c0 .582.45.781 1 .441s1-.816 1-1.059-.45-.441-1-.441-1 .477-1 1.059m34.813.624c.721.289 1.584.253 1.916-.079s-.258-.568-1.312-.525c-1.165.048-1.402.285-.604.604M148.232 118c0 1.925.206 2.713.457 1.75.252-.963.252-2.537 0-3.5-.251-.963-.457-.175-.457 1.75m-19.732-1.287c-3.325.8-3.572 1.781-.476 1.892 1.68.06 2.657-.312 2.306-.88-.335-.541.017-.757.781-.48.764.278 1.29.969 1.17 1.537-.237 1.119 2.326 1.049 3.19-.086.291-.383.25-.492-.09-.244-.341.249-1.273-.201-2.071-1s-1.758-1.4-2.131-1.336c-.374.064-1.579.332-2.679.597m47.959 2.354c-.363.586-.445 1.281-.183 1.543s.743-.218 1.069-1.067c.676-1.762.1-2.072-.886-.476m-113.38 1.198c-1.332.679-2.595 1.91-2.808 2.735-.262 1.014-.028.933.721-.25.609-.963 1.873-1.757 2.808-1.765s2.375-.452 3.2-.985c2.334-1.509-.869-1.292-3.921.265m-14.977 2.544c-.056 1.27-.552 2.031-1.102 1.691-.594-.367-.971.725-.93 2.691.055 2.594.235 2.888.833 1.36.673-1.719.893-1.575 1.871 1.231.843 2.419.824 3.124-.083 2.948-.655-.126-1.522-.68-1.926-1.23s-.741-.014-.75 1.191c-.008 1.205.446 2.476 1.01 2.824.563.349.901.058.75-.645-.435-2.024 2.498-1.699 5.095.564 2.327 2.028 2.319 1.964-.412-3.434-1.53-3.025-3.113-6.85-3.518-8.5-.607-2.475-.753-2.596-.838-.691m89.036-.476c-.827.997-.773 1.334.211 1.334.725 0 1.318-.6 1.318-1.334 0-.733-.095-1.333-.211-1.333s-.709.6-1.318 1.333M0 129.5c0 4.308.241 7.592.536 7.297.735-.735.782-13.813.052-14.543C.264 121.931 0 125.192 0 129.5m173.624-3.961c-.965 2.514-.681 3.163.498 1.136.584-1.004.851-2.036.593-2.293-.257-.258-.749.263-1.091 1.157M15.25 127.963c-2.835 3.595-2.814 3.867.25 3.282 1.978-.378 2.5-1.08 2.5-3.362 0-1.585-.113-2.858-.25-2.828s-1.262 1.339-2.5 2.908m3.25 7.44c1.65.722 3.212 1.128 3.471.901.795-.696-2.352-2.275-4.471-2.244-1.516.023-1.274.348 1 1.343m9.947-.488c.311.503 0 1.142-.691 1.421-.691.278-.78.542-.197.585.582.043 1.932-.582 3-1.389 1.888-1.428 1.878-1.469-.368-1.5-1.27-.018-2.055.38-1.744.883m4.202.556c-.31.809.092 2.127.893 2.929.802.801 1.458 2.029 1.458 2.729 0 .964.28.991 1.16.111s.579-1.673-1.25-3.284c-1.683-1.483-1.882-1.947-.66-1.54 2.766.923 4.317 1.293 3.5.837-.413-.231-.75-1.057-.75-1.836 0-1.875-3.628-1.829-4.351.054m140.824 1.277c.379 1.511.846 2.904 1.037 3.095.659.659 6.49-1.004 6.49-1.851 0-1.728-3.221-3.992-5.68-3.992-2.268 0-2.464.292-1.847 2.748M52.44 138.256c1.469 2.066 2.351 4.273 1.961 4.904-.439.71-.269.876.444.435.635-.392 1.155-.204 1.155.417 0 1.525 2.606 4.049 3.381 3.274.34-.341.619.083.619.94 0 1.317 1.912 2.774 3.641 2.774.262 0-1.774-2.588-4.525-5.75s-5.979-6.875-7.174-8.25-.97-.81.498 1.256m-50.773-.589c-.367.366-.667 3.982-.667 8.034v7.367l2.75-.452c1.513-.248 3.534-.489 4.492-.534 1.519-.072 1.68-.906 1.262-6.539-.4-5.4-.194-6.624 1.259-7.47 1.101-.642 1.253-1.023.416-1.043-2.112-.048-4.428 2.865-3.774 4.746.486 1.397.315 1.356-.903-.217-.826-1.068-1.502-2.53-1.502-3.25 0-1.37-2.185-1.791-3.333-.642M29.5 138c-.34.55-.141 1 .441 1S31 138.55 31 138s-.198-1-.441-1-.719.45-1.059 1m-4.897 1.834c-.319.516.34 1.179 1.465 1.474 1.246.325 1.902.101 1.677-.574-.502-1.504-2.428-2.056-3.142-.9m12.888 1.176c-1.767 1.952-1.752 2.083.519 4.5 2.962 3.153 3.797 3.127 5.046-.157.826-2.172.649-2.979-.983-4.5-2.455-2.287-2.368-2.29-4.582.157m140.265.654c.691.279 1.074.806.852 1.171-.223.366 1.687.748 4.244.848l4.648.184-3-1.388c-1.65-.764-4.125-1.374-5.5-1.355s-1.935.262-1.244.54m-49.884 2.086c-1.243 1.586-1.208 1.621.378.378.963-.755 1.75-1.543 1.75-1.75 0-.823-.821-.294-2.128 1.372m-94.831.531c.052 1.567 5.959 8.517 5.959 7.012 0-1.743-3.348-7.203-4.75-7.746-.687-.266-1.232.064-1.209.734m11.083 3.268c-2.745 2.31-3.127 3.16-2.568 5.708.499 2.268.352 2.804-.604 2.214q-1.265-.784-.506.441c.415.672 1.016.96 1.335.64.6-.6 4.915 6.305 7.779 12.448.897 1.925 2.506 4.447 3.574 5.605l1.943 2.105 10.133-3.326c10.01-3.287 13.502-5.186 11.138-6.06-2.211-.817-22.873-16.241-25.924-19.352l-3.075-3.136zm79.748-.799c-1.243 1.586-1.208 1.621.378.378.963-.755 1.75-1.543 1.75-1.75 0-.823-.821-.294-2.128 1.372M47 146.378c0 .207.788.995 1.75 1.75 1.586 1.243 1.621 1.208.378-.378-1.307-1.666-2.128-2.195-2.128-1.372m128.116 1.474c-.465.906-.62 2.323-.344 3.148s.13 1.152-.325.726-1.347.475-1.981 2c-1.201 2.889-.45 4.227 2.392 4.259.948.01 1.196-.816.818-2.735l-.54-2.75 1.125 2.75c1.091 2.667 1.36 2.75 8.873 2.75 4.261 0 8.026-.45 8.366-1s.176-1-.364-1c-1.541 0-7.136-5.988-7.136-7.636 0-.815-.421-1.222-.936-.904-.515.319-2.773.166-5.019-.339-3.392-.762-4.227-.638-4.929.731M11.5 149c-.34.55-.141 1 .441 1S13 149.55 13 149s-.198-1-.441-1-.719.45-1.059 1m55.833 1.532c0 .825 1.91 3.065 4.244 4.978s4.152 2.851 4.04 2.085c-.241-1.64-2.523-4.569-3.463-4.445-1.886.25-3.208-.254-2.724-1.037.301-.487-.047-1.38-.774-1.984-.997-.827-1.323-.728-1.323.403m-55.919 2.89c-1.117.783-3.579 1.57-5.472 1.75-3.367.321-3.593.675-3.067 4.811.18 1.414 10.007 6.208 11.206 5.467.554-.342 1.708-.04 2.565.671 1.395 1.158 1.482.568.833-5.664-.399-3.826-.921-7.295-1.161-7.707-.676-1.164-2.674-.89-4.904.672M83 152.941c0 .518.445 1.216.989 1.552.566.35.734-.051.393-.941-.665-1.732-1.382-2.049-1.382-.611m-21.457.99c-.683 1.105.894 2.299 1.818 1.375.95-.951.773-2.306-.302-2.306-.518 0-1.2.419-1.516.931m4.543 1.569c-.031 1.1.381 2.675.914 3.5.862 1.333.963 1.333.914 0-.03-.825-.441-2.4-.914-3.5l-.859-2zM72 154.378c0 .207.787.995 1.75 1.75 1.586 1.243 1.621 1.208.378-.378-1.307-1.666-2.128-2.195-2.128-1.372M.428 178c0 12.375.143 17.438.319 11.25.175-6.187.175-16.312 0-22.5-.176-6.187-.319-1.125-.319 11.25m5.112-20.653c-1.2.878-1.463 1.583-.753 2.021.6.371 1.53-.112 2.068-1.073.864-1.545 1.191-1.374 2.812 1.472 1.008 1.771 2.175 3.223 2.592 3.227.418.003-.257-1.563-1.5-3.482-2.562-3.954-2.696-4.01-5.219-2.165m72.846 2.077c.323 2.198 2.237 3.996 2.978 2.797.324-.525-.266-1.728-1.312-2.674-1.672-1.513-1.872-1.528-1.666-.123m8.406-.175c2.214 2.668 6.804 4.097 8.884 2.766 1.736-1.11 1.737-1.139.016-.6-.994.312-3.69-.394-5.991-1.568-2.939-1.499-3.805-1.677-2.909-.598m-3.797 5.529c.952 1.961 3.005 2.301 3.005.496 0-.334-.293-.314-.651.044s-1.283-.13-2.055-1.084c-1.257-1.552-1.288-1.495-.299.544M74 172.239c-2.475 1.139-6.75 2.885-9.5 3.88l-5 1.809 4.191.036c2.305.02 4.498.532 4.872 1.139.467.754 4.513.933 12.809.567 6.671-.294 12.314-.565 12.542-.602.84-.138-13.45-9.023-14.414-8.962-.55.034-3.025.994-5.5 2.133m19-.809c0 .275.9.981 2 1.57s2 .845 2 .57-.9-.981-2-1.57-2-.845-2-.57m5.507 2.559c-.35.566.051.734.941.393 1.732-.665 2.049-1.382.611-1.382-.518 0-1.216.445-1.552.989m3.073 2.201c-.844 1.204-1.315 2.409-1.046 2.677.498.498 4.466-3.344 4.466-4.325 0-1.323-2.022-.349-3.42 1.648M60 179.707c-2.542.442-5 2.786-5 4.769 0 .601 1.307 1.865 2.904 2.808 2.41 1.424 5.562 1.716 18.5 1.716H92v-3.378c0-1.857-.562-3.805-1.25-4.328-.725-.551-5.764-.708-11.99-.373-8.108.437-10.858.273-11.219-.671-.472-1.234-2.66-1.392-7.541-.543m51 .901c0 1.253.608 1.459 2.75.93 4.516-1.116 5.049-2.538.95-2.538-2.733 0-3.7.42-3.7 1.608m-48.25.054c.688.278 1.813.278 2.5 0 .688-.277.125-.504-1.25-.504s-1.937.227-1.25.504m-10.483 4.393c-1.308 3.518-.929 5.007.828 3.25.584-.584.914-2.299.733-3.813l-.328-2.751zM55 188c0 .55.477 1 1.059 1s.781-.45.441-1-.816-1-1.059-1-.441.45-.441 1m75.25 4.662c-.687.278-1.25 1.119-1.25 1.87 0 .778-2.361 2.11-5.488 3.096-3.018.951-5.293 1.925-5.054 2.163.975.975 9.937-2.925 12.11-5.27 2.283-2.464 2.212-2.88-.318-1.859"/><path fill-opacity=".972" fill-rule="evenodd" d="M2 17.5C2 28.5 1.629 35 1 35c-.55 0-1 1.35-1 3 0 2.022.497 3 1.526 3 1.343 0 1.329.388-.117 3.25L-.234 47.5l3.414-3.25c3.789-3.606 5.311-4.019 6.206-1.687.33.86 1.053 1.284 1.607.941.609-.376 1.066 1.081 1.157 3.687l.15 4.309.6-4.41c.459-3.375 1.069-4.489 2.6-4.745 1.1-.184 11.268-.617 22.595-.964 19.075-.583 20.646-.499 21.271 1.131.597 1.555.877 1.591 2.405.311.951-.798 3.192-1.421 4.979-1.386 1.787.034 3.25-.274 3.25-.687s.93-.75 2.067-.75c2.438 0 2.124 1.619-1.843 9.5-2.27 4.511-11.251 24.035-14.833 32.25-.78 1.787-1.208 3.25-.953 3.25.546 0 7.853-15.31 10.688-22.394 1.077-2.692 5.33-11.692 9.451-20 7.139-14.394 12.41-21.656 15.658-21.574.696.017.068 1.085-1.394 2.373-2.813 2.478-6.429 8.574-5.117 8.625.427.017-.011.489-.974 1.05s-1.743 1.56-1.735 2.22c.01.734.392.618.985-.3 1.629-2.521 1.112-.608-1.04 3.847-1.122 2.322-2.425 3.984-2.895 3.693s-1.102.115-1.404.901-.067 1.59.522 1.787c.662.22.245 1.973-1.094 4.598-1.191 2.333-2.586 5.464-3.102 6.958-.8 2.317-.757 2.442.288.847.674-1.027 2.036-2.827 3.028-4l1.803-2.131-.59 2.5c-.324 1.375 2.625-3.719 6.554-11.32s8.884-15.65 11.013-17.888c3.659-3.846 3.993-3.987 6.143-2.581 3.729 2.439 16.33 24.081 15.141 26.005-.405.655-.214.807.478.379.647-.399 1.162-.137 1.17.596.012.964.261.921.948-.165.613-.969.522-1.765-.266-2.326-.841-.599-.751-.731.303-.443 1.699.464 2.06 2.654.732 4.441-.533.717-.462 1.921.176 3 .947 1.6 1.04 1.534.829-.588-.351-3.535 1.572-3.568 3.127-.054.745 1.682 1.567 2.847 1.826 2.587s-.049-1.445-.686-2.635c-.637-1.191-.904-2.827-.592-3.638.363-.946.15-1.218-.593-.758-.781.483-.944.157-.5-1 .362-.944.26-1.47-.226-1.17s-1.15-.149-1.477-1c-.336-.875-.169-1.284.384-.942s.72-.067.384-.942c-.327-.851-.991-1.301-1.477-1s-.588-.226-.226-1.17c.444-1.157.281-1.483-.5-1-.78.482-.943.156-.5-1 .444-1.157.281-1.483-.5-1-.78.482-.943.156-.5-1 .444-1.157.281-1.483-.5-1-.706.437-.969.208-.674-.586.714-1.918-5.102-11.491-8.224-13.536-1.994-1.307-4.916-1.798-11.239-1.89-12.158-.177-13.745 1.01-21.561 16.124-.851 1.647-2.222 2.052-7.758 2.296L62 39.091v-8.162c0-7.996.046-8.149 2.25-7.494 4.621 1.374 9.75 1.813 9.75.836 0-.546-2.328-1.268-5.173-1.605s-5.511-.962-5.923-1.389c-.413-.428-1.171-5.502-1.685-11.277-.515-5.78-1-8.394-1.077-5.815-.078 2.577-.551 5.76-1.05 7.073-.576 1.514-.501 3.916.204 6.556.991 3.712.899 4.332-.842 5.679-1.683 1.302-1.706 1.425-.164.887 1.502-.524 1.769-.083 1.666 2.748-.068 1.855.203 5.092.603 7.194l.726 3.822-3.787-.71c-2.723-.511-3.59-.391-3.084.428.517.836-4.494 1.138-18.89 1.138-18.983 0-19.562-.06-18.571-1.912.563-1.051 2.874-3.496 5.136-5.432s3.817-4 3.455-4.585c-.46-.745.131-.765 1.964-.068 3.528 1.341 6.216 1.321 4.858-.037C31.205 25.805 21 23.958 21 24.909c0 .335.941 1.198 2.092 1.916 2.012 1.257 1.888 1.46-3.25 5.318-7.628 5.728-8.501 6.11-10.969 4.789-1.649-.883-2.31-.843-2.94.176-.447.724-.727-6.205-.623-15.397C5.415 12.52 5.11 4.999 4.633 5c-.476 0-.651-1.125-.388-2.5.32-1.676.029-2.5-.884-2.5C2.265 0 2 3.403 2 17.5M8 3c1.175 1.65 2.342 3 2.594 3S10.353 4.65 9.5 3 7.48 0 6.906 0 6.825 1.35 8 3m110.518.25c-.315 1.788-.18 5.275.301 7.75.857 4.418.88 4.358 1.277-3.252.408-7.833-.523-10.487-1.578-4.498M143.19.726l6.69.363-1.468 4.161c-.808 2.288-1.256 4.714-.996 5.391.259.676-.06 1.407-.71 1.624-.679.226-1.135 2.147-1.073 4.521.067 2.555-.319 4.049-1.012 3.921-.617-.114-1.151.918-1.187 2.293s-.614 3.806-1.283 5.401c-.669 1.596-1.041 3.396-.827 4 .215.605 1.125-.634 2.024-2.751s3.372-5.943 5.496-8.5c2.718-3.272 4.031-5.945 4.43-9.021.677-5.208 5.288-10.574 9.379-10.912 1.477-.123 2.871-.408 3.098-.635.226-.226-6.262-.368-14.42-.315-8.157.053-11.82.259-8.141.459m33.06.009 4.75.375v15.898c0 9.935-.435 16.853-1.161 18.445-1.15 2.525-1.273 2.549-14.25 2.737-33.46.486-42.089.312-41.871-.845.12-.635-.443-1.409-1.251-1.719-1.04-.399-.704.96 1.152 4.655 3.686 7.339 4.438 7.741 1.644.881-.431-1.06.571-1.211 4.846-.728 2.965.335 6.516.577 7.891.538s6.399-.109 11.165-.154l8.664-.082 3.336 3.799c3.206 3.651 3.335 4.12 3.335 12.077 0 6.881-.281 8.352-1.666 8.717-.916.242-2.153-.048-2.75-.645-.779-.779-1.084-.605-1.084.616 0 .935-.75 1.7-1.667 1.7-.916 0-1.389.277-1.051.616s1.924.159 3.523-.398c3.769-1.314 5.436-.202 5.025 3.351-.237 2.047-1.035 3.047-2.83 3.542-1.375.379-1.851.734-1.059.789 1.072.074.943.5-.5 1.658-1.779 1.429-1.106 1.509 8.059.965 5.5-.326 11.125-.497 12.5-.378 1.375.118 4.386.236 6.692.26 5.137.056 7.167 2.923 4.632 6.543-.841 1.2-1.294 2.416-1.007 2.702s1.07-.505 1.741-1.759c1.179-2.202 1.283-2.12 3.06 2.404 1.386 3.526 1.598 5.321.861 7.26-1.335 3.512-1.237 15.675.155 19.13.624 1.548 1.477 5.74 1.897 9.315.498 4.249.772-2.677.791-20 .015-14.575.339-27.513.719-28.75.628-2.041.362-2.25-2.865-2.25-1.957 0-3.851-.474-4.21-1.054-.433-.701-1.446-.534-3.023.5-3.101 2.031-11.773 2.066-13.443.054-1.561-1.881-3-1.933-3-.109 0 .84-1.363 1.549-3.447 1.793-3.277.382-3.477.225-4.053-3.183-.333-1.972-.494-5.469-.358-7.772.232-3.945.349-4.094 2.025-2.578 2.012 1.821 5.821 1.398 11.449-1.273 5.156-2.447 3.402-2.75-2.486-.429-2.821 1.112-5.13 1.578-5.13 1.036s-.81-.985-1.8-.985c-3.196 0-4.2-2.174-4.2-9.093 0-4.968.379-6.839 1.471-7.257.809-.311 6.829-.553 13.379-.539 13.797.029 19.15-.737 19.15-2.741 0-.951-.73-1.235-2.25-.876-1.238.293-4.225.674-6.638.848-3.56.257-4.478-.027-4.864-1.502-.261-.999-.842-1.591-1.29-1.314-1.384.856-2.102-3.208-1.902-10.777.105-3.987-.151-10.922-.569-15.412-.752-8.072-.734-8.167 1.627-8.613 1.312-.249-.989-.432-5.114-.408-4.751.028-5.759.182-2.75.419m21.563-.052c.721.289 1.584.253 1.916-.079s-.258-.568-1.312-.525c-1.165.048-1.402.285-.604.604M44.606 4.848 42.712 7.5l2.338-2.222c1.287-1.222 2.139-2.416 1.894-2.652s-1.296.763-2.338 2.222M28 5.912l2.5.713-2.374 1.437c-1.306.791-3.193 3.229-4.193 5.418-1.436 3.142-1.959 3.616-2.484 2.248-.887-2.311.162-6.196 2.232-8.266 1.57-1.57 1.554-1.654-.252-1.306-1.061.204-1.949 1.04-1.974 1.858-.025.817-.588 1.374-1.25 1.236-.663-.137-1.205.705-1.205 1.872 0 1.871-.207 1.962-1.75.768-1.667-1.291-1.667-1.257 0 .706.962 1.134 1.779 3.601 1.813 5.483.058 3.121.145 3.218.992 1.107.51-1.273 1.412-2.015 2.004-1.65.604.374 1.331-.311 1.658-1.562l.583-2.228 1.863 2.377q1.866 2.38 1.229.59c-.38-1.071.093-2.591 1.181-3.793 1.614-1.784 1.627-1.934.121-1.356-.932.357-1.694 1.127-1.694 1.71 0 .582-.261.798-.581.478-1.111-1.111 1.704-4.919 3.21-4.341.863.331 1.21.138.837-.466-.351-.568-.094-1.688.57-2.489 1.02-1.228.681-1.44-2.164-1.356-3.068.09-3.147.164-.872.812m9.522 5.215c4.801 4.425 5.513 5.841 2.728 5.423-.962-.145-1.187-.07-.5.167.688.236 1.25.847 1.25 1.356s-.562.941-1.25.957c-.694.017-.471.484.5 1.05.962.561 1.743 1.56 1.735 2.22-.011.841-.236.871-.75.103-.473-.706-1.566-.081-3.061 1.75-2.723 3.332-1.576 3.738 2.191.774C42.388 23.336 43 21.97 43 19.043c0-3.17-.714-4.506-4.24-7.928C36.428 8.852 34.188 7 33.783 7s1.277 1.857 3.739 4.127m146.594.623c-.146 2.84 2.998 2.925 10.884.291 6.599-2.203 4.398-2.672-2.591-.552-6.298 1.911-7.165 1.884-7.72-.239-.344-1.317-.486-1.193-.573.5M33 12.43c0 .275.9.981 2 1.57s2 .845 2 .57-.9-.981-2-1.57-2-.845-2-.57M79.5 19c-2.684 2.725-4.654 5.179-4.379 5.454S77.816 22.725 80.5 20s4.654-5.179 4.379-5.454S82.184 16.275 79.5 19m67.043-4.069c-.317.512-.118 1.213.441 1.559s1.016-.074 1.016-.931c0-1.757-.6-2.015-1.457-.628m-114.81 2.193c.679.684 1.486.991 1.793.683.308-.308-.247-.867-1.233-1.243-1.425-.542-1.54-.428-.56.56m84.216 1.63-3.083 2.755 2.653 4.745c1.458 2.61 2.877 4.746 3.152 4.746s-.63-2.023-2.012-4.495c-2.318-4.147-2.383-4.592-.836-5.75 2.068-1.548 4.641-4.755 3.815-4.755-.333 0-1.994 1.239-3.689 2.754m-18.699-.038c1.513.229 3.987.229 5.5 0s.275-.416-2.75-.416-4.263.187-2.75.416M27 20.059c0 .582.45.781 1 .441s1-.816 1-1.059S28.55 19 28 19s-1 .477-1 1.059m80-.345c.825.306 2.4.97 3.5 1.476 1.968.906 1.969.895.059-.635-1.068-.855-2.643-1.519-3.5-1.476-1.347.068-1.355.155-.059.635m-79.267 3.41c.679.684 1.486.991 1.793.683.308-.308-.247-.867-1.233-1.243-1.425-.542-1.54-.428-.56.56M36 29.5c1.292 1.375 2.574 2.5 2.849 2.5s-.557-1.125-1.849-2.5-2.574-2.5-2.849-2.5.557 1.125 1.849 2.5m14.872-.75c-1.243 1.586-1.208 1.621.378.378.962-.755 1.75-1.543 1.75-1.75 0-.823-.821-.294-2.128 1.372m48.23.605c-.056 1.02-1.208 4.057-2.561 6.75C94.658 39.854 94.416 41 95.506 41 97.516 41 99 44.228 99 48.601c0 2.053.245 3.487.545 3.187.858-.857 1.152-17.955.367-21.288-.389-1.65-.753-2.165-.81-1.145m20.685.978c-.26 1.359.038 2.334.713 2.334s.973-.975.713-2.334c-.245-1.283-.566-2.333-.713-2.333s-.468 1.05-.713 2.333M162 43.378c0 .757.675 1.937 1.5 2.622 1.268 1.053 1.5.84 1.5-1.378 0-1.664-.548-2.622-1.5-2.622-.825 0-1.5.62-1.5 1.378M127.094 47.5c0 .55 1.308 3.475 2.906 6.5s2.906 5.05 2.906 4.5-1.308-3.475-2.906-6.5-2.906-5.05-2.906-4.5m-9.936 5.5c0 1.375.227 1.938.504 1.25.278-.687.278-1.812 0-2.5-.277-.687-.504-.125-.504 1.25m-3.753 6.25L111.5 61.5l2.25-1.905c1.237-1.048 2.25-2.06 2.25-2.25 0-.8-.805-.209-2.595 1.905m13.666.25c0 .55.643 2.125 1.429 3.5s1.429 2.05 1.429 1.5-.643-2.125-1.429-3.5-1.429-2.05-1.429-1.5m-22.992 2.691c-.115 2.465 1.353 2.967 3.524 1.203 1.834-1.491 1.824-1.527-.305-1.074-1.211.257-2.413-.047-2.671-.676s-.505-.383-.548.547m-3.827 4.309c.011 2.2.216 2.982.455 1.738s.23-3.044-.02-4-.446.062-.435 2.262m-88.184 1.75c-.064 3.547-.244 3.751-3.318 3.764-10.791.045-10.279 3.403.769 5.046l8.519 1.268-.459 12.086-.458 12.086.861-10c1.19-13.819 1.832-15.2 7.457-16.043C32.059 75.464 29.986 74 21.96 74c-6.741 0-6.937-.072-7.512-2.75-.325-1.513-.978-3.65-1.452-4.75-.691-1.605-.874-1.259-.928 1.75m114.1-.199c.585 1.678 1.249 2.866 1.476 2.639.495-.495-1.392-5.69-2.067-5.69-.26 0 .006 1.373.591 3.051M130.359 67c.423 1.308 3.279 8.279 12.697 31 1.254 3.025 2.654 5.928 3.112 6.45s.864 2.098.902 3.5.478 3.45.977 4.55c.646 1.426.737.923.318-1.75-.356-2.275-.185-3.75.437-3.75.678 0 .646-1.001-.094-2.962-.615-1.629-1.34-2.74-1.611-2.468-.696.695-5.571-9.291-10.258-21.011-3.439-8.599-7.892-17.918-6.48-13.559m-62.9 2.067c-.363.586-.445 1.281-.183 1.543s.743-.218 1.069-1.067c.676-1.762.1-2.072-.886-.476m1.165 6.472c-.965 2.514-.681 3.163.498 1.136.584-1.004.851-2.036.593-2.293-.257-.258-.749.263-1.091 1.157m60.407-1.039c0 .55.436 1.675.969 2.5s.969 1.05.969.5-.436-1.675-.969-2.5-.969-1.05-.969-.5m-64.869 3.043c-1.675 3.677-1.355 4.462.456 1.119.846-1.562 1.351-3.026 1.123-3.255-.229-.228-.939.733-1.579 2.136M194 77.8c0 .44.406 1.227.903 1.75s1.114 1.85 1.373 2.95.455.313.435-1.75c-.023-2.447-.5-3.75-1.373-3.75-.736 0-1.338.36-1.338.8m-63 1.468c0 .331.494 1.869 1.098 3.417 2.329 5.969 8.832 25.073 10.32 30.315 1.04 3.665 1.285 6.501.734 8.5-.777 2.818-.87 2.867-1.541.8-.393-1.211-2.207-3.123-4.031-4.25-4.536-2.804-5.678-2.597-1.478.267 2.883 1.966 3.381 2.874 3.284 5.995-.066 2.147-1.216 5.344-2.764 7.683-1.458 2.203-2.182 4.005-1.611 4.005 1.401 0-1.228 4.981-3.909 7.407-1.156 1.047-2.102 2.285-2.102 2.751s1.485-.841 3.3-2.905c10.555-12.007 14.255-19.19 13.335-25.898C144.968 112.49 131 76.139 131 79.268m-70.838 7.275c-1.675 3.677-1.355 4.462.456 1.119.846-1.562 1.351-3.026 1.123-3.255-.229-.228-.939.733-1.579 2.136m84.402-.25c.376.986.935 1.541 1.243 1.233s.001-1.114-.683-1.793c-.988-.98-1.102-.865-.56.56m-94.431 6.84c-1.184 2.85-1.988 5.346-1.786 5.547.202.202 1.336-1.964 2.52-4.813 1.184-2.85 1.988-5.346 1.786-5.547-.202-.202-1.336 1.964-2.52 4.813m139.946-2.456c-.082 3.28-5.802 15.263-8.981 18.813-2.92 3.26-3.71 5.246-1.217 3.058 6.464-5.675 12.618-19.196 10.802-23.735-.289-.722-.561.117-.604 1.864M56.251 95.72c-1.112 2.629-2.319 5.762-2.682 6.962s-1.877 2.627-3.365 3.171c-1.86.68-2.136 1.014-.883 1.068 1.69.073 1.703.198.178 1.723a4.11 4.11 0 0 0-1.073 3.917c.314 1.25.193 2.423-.269 2.606-1.174.465-2.307 6.833-1.215 6.833.49 0 1.118-.562 1.396-1.25s.54-.084.583 1.34c.085 2.786 5.731 14.932 7.504 16.145.746.509.722.739-.078.75-.634.008-2.585-1.672-4.336-3.735l-3.183-3.75 2.331 3.5c1.282 1.925 4.921 6.593 8.086 10.372 3.657 4.367 5.781 7.831 5.825 9.5.063 2.343.159 2.411.886.628.746-1.832.876-1.765 1.55.797.404 1.538.559 2.972.344 3.186-.626.627-13.783-9.726-20.708-16.294-4.096-3.885-6.087-6.47-5.595-7.264.46-.745.349-.979-.279-.591-1.14.705-2.24-2.405-2.241-6.334-.001-2.914 2.977-12.795 6.584-21.846 1.391-3.491 2.35-6.526 2.131-6.745-.603-.603-7.378 17.395-9.389 24.945L36.582 132H19l-.178-14.75c-.169-13.931-.21-14.218-.75-5.165-.509 8.534-.889 10.013-3.471 13.5C10.455 131.184 9.145 132 4.309 132c-2.37 0-4.309.45-4.309 1s.505 1 1.122 1c.742 0 .663.594-.232 1.75-1.291 1.667-1.257 1.667.706 0 2.231-1.894 7.902-2.372 8.904-.75.34.55 1.604.955 2.809.9 2.044-.093 2.023-.154-.309-.919-1.815-.596-.779-.801 3.783-.75 4.112.046 6.148.45 5.892 1.17-.214.604-1.145 1.034-2.068.954-1.276-.11-1.417.169-.587 1.169.815.982.326 2.828-1.931 7.301-1.663 3.292-3.6 6.218-4.306 6.502s-.083.551 1.385.594c2.125.063 3.04-.684 4.5-3.671 1.557-3.188 2.252-3.701 4.635-3.421 1.542.18 3.424-.187 4.183-.817 1.091-.906 1.742-.555 3.103 1.671C36.61 153.891 38.11 156 38.931 156c.497 0 1.69 2.137 2.652 4.75 2.312 6.283 2.983 6.919 2.782 2.635-.099-2.091-1.067-4.503-2.36-5.88-1.551-1.651-2.006-3.019-1.552-4.67.558-2.029.495-2.1-.478-.543-.993 1.587-1.548 1.128-4.849-4-5.899-9.163-5.7-8.675-3.282-8.043 1.186.31 2.156.103 2.156-.459s-1.115-.81-2.479-.549c-1.794.343-2.884-.146-3.947-1.769-.809-1.234-1.193-2.519-.855-2.857 1.004-1.005 11.281-.698 11.281.337 0 1.949 15.491 15.784 27.295 24.378 6.713 4.887 12.43 9.175 12.705 9.528s1.175.79 2 .971 2.955 1.435 4.734 2.788 5.521 3.52 8.318 4.815 4.603 2.516 4.016 2.712.919.356 3.349.356c2.429 0 4.251-.165 4.05-.367s2.986-2.554 7.083-5.229c4.098-2.675 7.45-5.082 7.45-5.35s-3.487 1.749-7.75 4.48c-13.218 8.469-15.37 5.338-2.34-3.404 3.862-2.591 7.279-5.127 7.593-5.635.518-.838-12.63 6.819-15.003 8.737-.55.445-1.675.794-2.5.777-2.36-.05-8.002-3.43-7.985-4.785.01-.782.366-.682.985.276.533.825.983 1.05 1 .5.018-.595.328-.56.765.085.404.597 1.619 1.57 2.701 2.161 2.224 1.216 6.048-.415 15.534-6.625 3.025-1.98 6.175-3.626 7-3.657s1.389-.594 1.254-1.249 1.252-1.817 3.082-2.582c1.831-.765 4.345-2.683 5.587-4.262s2.373-2.646 2.514-2.371.995-.113 1.898-.863c.904-.75 1.41-1.74 1.126-2.2-.85-1.376 3.553-3.162 6.667-2.705l2.899.426-2.264-2.49c-1.244-1.37-1.735-2.188-1.09-1.818.688.395 2.589-1.09 4.595-3.588 4.582-5.707 5.21-6.883 3.284-6.144-1.915.735-1.918.502-.052-3.964.825-1.974 1.438-5.967 1.363-8.872l-.137-5.282-.7 6c-1.261 10.81-8.652 21.867-21.006 31.423-4.32 3.342-8.213 6.077-8.65 6.077s1.437-2.363 4.165-5.25l4.961-5.25-5.998 5.558c-10.313 9.556-14.655 13.118-15.258 12.516-.319-.32.283-1.613 1.339-2.874s-.21-.134-2.815 2.504c-5.472 5.542-8.453 6.515-6.264 2.046 1.043-2.131 1.172-5.453.573-14.75-.691-10.701-.797-11.188-.98-4.5-.113 4.125-.749 9.075-1.413 11-1.054 3.056-1.586 3.467-4.194 3.238-5.557-.488-6.34-.665-5.924-1.339.229-.37-.34-1.286-1.265-2.036-1.445-1.172-1.562-1.153-.833.137.466.825-3.367-2.55-8.518-7.5s-9.383-9.363-9.406-9.807c-.022-.444-1.165-1.721-2.54-2.837s-1.858-1.69-1.074-1.275c.785.415-.903-2.044-3.75-5.465-5.846-7.025-6.363-9.754-3.608-19.033.862-2.904 1.344-5.504 1.07-5.778-.696-.696-4.638 12.366-4.638 15.366 0 1.353.524 3.443 1.164 4.645 1.807 3.393 11.593 15.4 13.824 16.963 1.099.77 1.665 1.77 1.256 2.221s-.229.526.401.166 1.369-.073 1.641.638c.273.711 2.721 4.196 5.44 7.744s4.734 7.077 4.479 7.841c-.28.838-.02 1.115.657.696.617-.381 2.26.446 3.652 1.838s2.847 2.508 3.234 2.479c.386-.028.883.491 1.104 1.155.711 2.131-5.783-2.341-11.7-8.057-3.131-3.025-4.559-4.602-3.173-3.504 2.154 1.706 2.093 1.524-.416-1.25-2.889-3.193-4.277-4.211-3.063-2.246.34.55.197 1-.319 1-1.066 0-3.767-3-3.514-3.904.091-.328-.093-.821-.411-1.096s-.21.132.238.905c.553.952.438 1.171-.356.68-.644-.398-.925-1.121-.624-1.607.71-1.149-2.61-5.037-3.717-4.352-.466.287-.744.152-.619-.302.126-.453-2.1-4.349-4.945-8.657s-5.464-9.379-5.818-11.27c-1.252-6.675.141-15.621 3.871-24.861 1.991-4.93 3.477-9.107 3.303-9.281s-1.226 1.835-2.338 4.465m90.825-4.597c-.071.578 1.545 4.481 5.952 14.377 2.422 5.438 8.972 24.391 8.972 25.959 0 3.545-13.033 15.898-28 26.54-5.225 3.716-10.625 7.762-12 8.993-2.142 1.918-1.999 1.887 1-.215 17.712-12.414 25.039-18.134 32.149-25.103l8.288-8.123 7.296-.086c5.652-.066 7.72.309 9.176 1.664 1.033.963 2.212 1.44 2.62 1.061.408-.38.24.275-.373 1.455-1.566 3.016.246 4.232 8.298 5.566 7.478 1.239 8.61 3.513 1.458 2.929l-4.406-.36 2.494 2.019c1.372 1.111 2.72 1.681 2.997 1.268s1.966-.642 3.753-.509c2.804.209 3.25-.076 3.25-2.081 0-1.278-1.159-3.701-2.576-5.385-2.996-3.561-2.855-6.456.336-6.912 1.232-.175 2.24-.948 2.24-1.716 0-1.139-2.258-1.33-12.25-1.036-6.738.198-13.262.686-14.5 1.083-1.651.53-2.25.325-2.25-.77 0-1.454 4.031-11.489 6.022-14.991.547-.963.798-1.75.557-1.75-.57 0-6.164 8.296-8.042 11.928-.828 1.602-2.53 3.029-3.932 3.297-2.348.448-2.673-.112-6.461-11.126-3.544-10.307-11.869-29.606-12.068-27.976m-97.997 20.46c.048 1.165.285 1.402.604.605.289-.722.253-1.585-.079-1.917s-.568.258-.525 1.312m71.671 2.079c.688.278 1.813.278 2.5 0 .688-.277.125-.504-1.25-.504s-1.937.227-1.25.504m-63.614 2.588c-.117 2.36.25 2.75 2.587 2.75h2.722l-2.222 1.557c-2.402 1.682-2.819 4.059-1.129 6.443.832 1.174.968.908.628-1.225-.537-3.361 1.542-5.418 7.447-7.369l4.331-1.432-4 .601c-7.608 1.143-9.283.831-9.794-1.825-.372-1.929-.453-1.858-.57.5m42.275 7.136c-.598.651-.784 2.052-.412 3.112.588 1.676.77 1.557 1.388-.902.821-3.274.556-3.876-.976-2.21m-84.726 4.635L11.87 132h3.065c2.909 0 3.065-.203 3.065-4 0-2.2-.113-3.99-.25-3.979s-1.517 1.812-3.065 4M45.272 130c0 2.475.195 3.488.434 2.25.238-1.238.238-3.262 0-4.5-.239-1.237-.434-.225-.434 2.25m138.201 4.956c.325.526 1.252.703 2.059.393 2.067-.793 1.824-1.349-.591-1.349-1.132 0-1.793.43-1.468.956m8.527-.015c0 .518.45 1.219 1 1.559s1-.084 1-.941-.45-1.559-1-1.559-1 .423-1 .941m-161.457.99c-.317.512-.193 1.167.274 1.456s.85-.13.85-.931c0-1.686-.316-1.833-1.124-.525m140.536.652c.048 1.165.285 1.402.604.605.289-.722.253-1.585-.079-1.917s-.568.258-.525 1.312m17.941-.059c.696.838 1.471 1.318 1.723 1.067.693-.694-.716-2.591-1.924-2.591-.664 0-.588.574.201 1.524m-142.941 1.059c.048 1.165.285 1.402.604.605.289-.722.253-1.585-.079-1.917s-.568.258-.525 1.312M184 138.5c0 .917.484 1.505 1.075 1.308s1.075-.786 1.075-1.308-.484-1.111-1.075-1.308-1.075.391-1.075 1.308m-159.603.907c-.831 2.165-.103 2.835 2.634 2.424l2.203-.331-2.096-1.886c-1.925-1.732-2.149-1.749-2.741-.207m32.265.343c-.251.412.67 1.595 2.047 2.627l2.503 1.876-1.721-2.626c-1.859-2.837-2.134-3.02-2.829-1.877M173 140.845c0 .903 2.538 3.296 5 4.715.825.476.375-.556-1-2.292-2.478-3.129-4-4.051-4-2.423m17 .155c0 .55.702 1 1.559 1s1.281-.45.941-1-1.041-1-1.559-1-.941.45-.941 1m-169.856 2.75c-1.091 2.55-1.066 2.609.34.809.834-1.068 1.516-2.305 1.516-2.75 0-1.52-.678-.81-1.856 1.941m15.315-1.683c-.363.586-.445 1.281-.183 1.543s.743-.218 1.069-1.067c.676-1.762.1-2.072-.886-.476m-10.646 1.616c.721.289 1.584.253 1.916-.079s-.258-.568-1.312-.525c-1.165.048-1.402.285-.604.604m162.456 1.01c.973.254 2.323.237 3-.037s-.119-.481-1.769-.461-2.204.244-1.231.498M38 147.5c1.292 1.375 2.574 2.5 2.849 2.5s-.557-1.125-1.849-2.5-2.574-2.5-2.849-2.5.557 1.125 1.849 2.5m143.269-.807c.973.254 2.323.237 3-.037s-.119-.481-1.769-.461-2.204.244-1.231.498m-170.552 5.923c-.338.339-2.101.968-3.916 1.398-2.871.679-2.968.795-.742.884 1.407.056 3.432-.559 4.5-1.366 1.067-.808 1.679-1.483 1.358-1.5-.321-.018-.861.245-1.2.584M17.158 155c0 1.375.227 1.938.504 1.25.278-.687.278-1.812 0-2.5-.277-.687-.504-.125-.504 1.25m97.247 1.25-1.905 2.25 2.25-1.905c2.114-1.79 2.705-2.595 1.905-2.595-.19 0-1.202 1.012-2.25 2.25m-113.749-.5c-.254.412-.524 7.426-.601 15.585-.112 11.869.119 14.689 1.153 14.103 1.037-.587 1.045-.466.042.615-.727.783-1.25 3.999-1.25 7.68v6.333l21-.106c11.55-.059 21-.465 21-.903 0-1.319-8.125-11.098-8.85-10.65-.369.229-1.541-.219-2.602-.996-1.062-.776-1.484-1.411-.939-1.411s1.471.48 2.058 1.067c.757.757 1.248.596 1.689-.552.341-.89.227-1.375-.254-1.078-.932.576-3.392-1.814-2.641-2.565.245-.244-2.231-3.803-5.501-7.908-5.105-6.408-5.972-8.101-6.128-11.964l-.181-4.5-.376 4.106-.376 4.107-3.699-.688c-7.7-1.431-14.423-6.847-12.049-9.707.757-.912.766-1.318.03-1.318-.584 0-1.271.338-1.525.75m196.82.869c.891.891 1.922 1.316 2.293.946.37-.371.011-1.092-.798-1.604-2.362-1.494-3.254-1.101-1.495.658M69.07 158.691c-.038 1.205.38 2.469.93 2.809 1.183.731 1.183-.248 0-3-.829-1.928-.862-1.921-.93.191m98.505-.813c-.334.541-.15 1.266.409 1.612 1.63 1.008 1.186 2.112-1.306 3.247-1.365.622-3.902 4.09-6.154 8.411-2.107 4.043-6.023 10.64-8.702 14.658s-4.565 7.8-4.192 8.404.26.84-.252.523c-.513-.316-1.672.713-2.576 2.289l-1.643 2.864 28.42.084 28.421.084v-40.708l-3.101.456c-2.2.322-2.709.704-1.75 1.311 1.058.671.985.86-.34.872-.93.008-2.001-.487-2.381-1.101-.48-.777-4.011-.921-11.609-.473-9.87.582-10.89.483-10.619-1.03.336-1.874-1.681-3.029-2.625-1.503m5.238.805c.721.289 1.584.253 1.916-.079s-.258-.568-1.312-.525c-1.165.048-1.402.285-.604.604M78 159.378c0 .207.787.995 1.75 1.75 1.586 1.243 1.621 1.208.378-.378-1.307-1.666-2.128-2.195-2.128-1.372M72.158 162c0 1.375.227 1.938.504 1.25.278-.687.278-1.812 0-2.5-.277-.687-.504-.125-.504 1.25m-23.079 7.562c-.043.584.821 2.925 1.921 5.202s2 4.81 2 5.629c0 2.851-1.925 2.652-3.483-.36-2.286-4.42-2.672-3.709-.771 1.419 1.562 4.215 1.547 4.76-.282 10.25-2.703 8.111-2.738 8.298-1.537 8.298.59 0 1.073-1.093 1.073-2.429 0-2.352 2.291-5.571 3.964-5.571.452 0 1.115-.762 1.472-1.694.551-1.435.311-1.396-1.563.25-1.589 1.397-2.068 1.522-1.702.444 4.263-12.525 4.067-12.223 7.57-11.655 2.853.463 3.092.346 1.841-.906-.792-.792-2.341-1.439-3.442-1.439-1.867 0-5.122-3.55-6.418-7-.31-.825-.6-1.022-.643-.438m81.406 4.803c-1.538 2.392-2.959 3.27-6 3.705l-3.985.57 3.993.43c3.598.387 4.204.875 6.124 4.93l2.132 4.5-7.125.57-7.124.57 7.677.18c6.998.164 7.861.413 9.75 2.815 3.308 4.205 2.399 1.302-1.461-4.669-4.534-7.012-4.999-9.035-2.974-12.951 2.179-4.214 1.546-4.623-1.007-.65M67.168 179c.384 1.167 2.36 1.516 8.912 1.574l8.42.073-7.455-.371c-4.101-.205-8.111-.913-8.913-1.574-1.173-.968-1.361-.91-.964.298m23.632 1.2c.66.66 1.226 3.698 1.258 6.75.031 3.052.45 7.35.93 9.55.677 3.104.832 1.761.692-6-.099-5.5-.63-10.331-1.18-10.735-1.643-1.207-2.996-.861-1.7.435m-84.545 1.763c-1.025 1.642-.983 1.87.26 1.393.817-.313 1.485-1.197 1.485-1.963 0-1.855-.289-1.76-1.745.57M55 181.059c0 .582.45.781 1 .441s1-.816 1-1.059-.45-.441-1-.441-1 .477-1 1.059M21.5 189c-1.319.567-1.489.878-.5.914.825.031 2.175-.381 3-.914 1.828-1.181.249-1.181-2.5 0m78.313.683c.721.289 1.584.253 1.916-.079s-.258-.568-1.312-.525c-1.165.048-1.402.285-.604.604m13.437.006c.963.252 2.537.252 3.5 0 .963-.251.175-.457-1.75-.457s-2.713.206-1.75.457M14.5 191c-1.261.542-1.445.859-.5.859.825 0 2.4-.386 3.5-.859 1.261-.542 1.445-.859.5-.859-.825 0-2.4.386-3.5.859m43.313-.317c.721.289 1.584.253 1.916-.079s-.258-.568-1.312-.525c-1.165.048-1.402.285-.604.604m46.937-.021c.688.278 1.813.278 2.5 0 .688-.277.125-.504-1.25-.504s-1.937.227-1.25.504M62.5 192.16c1.1.605 3.594 2.504 5.542 4.22 2.389 2.105 2.164 1.737-.692-1.13-2.328-2.338-4.822-4.236-5.542-4.22s-.408.526.692 1.13M37 195.378c0 .207.788.995 1.75 1.75 1.586 1.243 1.621 1.208.378-.378-1.307-1.666-2.128-2.195-2.128-1.372m104.25 1.872c.137.688-.346 1.126-1.074.975s-1.026.208-.661.799c.466.754 1.08.727 2.063-.089.77-.639 1.153-1.561.852-2.048-.798-1.292-1.47-1.085-1.18.363"/></svg>