<svg xmlns="http://www.w3.org/2000/svg" width="200" height="200" fill="#000000"><path fill-opacity=".043" fill-rule="evenodd" d="M.291 59.25c.214 32.588.696 60.375 1.07 61.75.537 1.973.492 2.078-.214.5C.6 120.277.194 135.14.1 159.75L-.053 200h23.166c20.878 0 23.301-.173 24.529-1.75 1.229-1.578 1.305-1.583.775-.055-.551 1.585 4.373 1.683 75.747 1.5l76.336-.195.156-40.249c.09-23.157-.229-40.487-.75-40.809-1.234-.763-1.153-5.442.094-5.442.616 0 1-5.02 1-13.059 0-7.182-.354-12.84-.786-12.573-.84.519-3.593-12.322-2.809-13.106.256-.257.77 1.155 1.142 3.136 1.778 9.479 2.379.353 2.43-36.913l.056-40.515-43.766.133c-24.072.074-42.642.486-41.267.916l2.5.782-2.75.099c-1.513.055-2.75-.237-2.75-.65S107.193.5 100.095.5s-12.695.338-12.44.75c.254.413-1.026.705-2.846.65-3.111-.093-3.159-.147-.809-.9 1.684-.539-.402-.833-6.39-.9-7.353-.083-9.127.202-10.264 1.65-1.054 1.341-1.313 1.399-1.11.25.193-1.099-.852-1.581-3.909-1.804-3.677-.267-4.226-.029-4.614 2L57.272 4.5l-.136-2.25C56.988-.2 55.103-.703 53.2 1.2c-.933.933-1.2.933-1.2 0C52 .297 45.545 0 25.951 0H-.099zM.16 38.083c.088 20.579.342 35.946.565 34.148s.824-3.01 1.337-2.693c.568.351.562-.397-.015-1.915-.521-1.37-.979-16.78-1.019-34.245S.741 1.408.478 1.145.072 17.504.16 38.083M60.333 2.544c0 .801.375 1.456.834 1.456S62 3.577 62 3.059s-.375-1.173-.833-1.456c-.459-.283-.834.14-.834.941m17.14-.5c-.325.526.336.956 1.468.956 2.415 0 2.658-.556.591-1.349-.807-.31-1.734-.133-2.059.393m56.193-.313c-.694 1.123.452 2.687 2.253 3.075 1.215.263 1.219.046.033-1.5-.762-.993-1.468-1.948-1.569-2.123-.1-.174-.423.073-.717.548m-13.916.931c.688.278 1.813.278 2.5 0 .688-.277.125-.504-1.25-.504s-1.937.227-1.25.504M73.813 3.683c.721.289 1.584.253 1.916-.079s-.258-.568-1.312-.525c-1.165.048-1.402.285-.604.604m51.687.163c3.092 1.324 8.276 2.347 6.5 1.283-.825-.495-3.075-1.178-5-1.519-2.361-.418-2.849-.341-1.5.236M146.5 5c-.34.55-.36 1.418-.044 1.928.768 1.243-3.105 2.409-4.697 1.415-.692-.433-1.709-.889-2.259-1.015s-2.125-.506-3.5-.846c-1.375-.341 1.289 1.22 5.921 3.469 4.631 2.248 8.927 4.416 9.547 4.818.619.402.396.047-.498-.789-.893-.836-1.416-2.142-1.163-2.902.329-.987-.148-1.222-1.672-.824-1.173.307-2.385.15-2.693-.348s-.196-.94.249-.983c4.28-.404 7.024-1.923 3.476-1.923C147.975 7 147 6.498 147 5.883c0-.624.882-.886 2.001-.593 1.101.288 1.75.115 1.441-.383-.749-1.212-3.171-1.155-3.942.093M49.267 7.888c.091 1.22.66 1.693 1.602 1.332 1.018-.391 1.212-.16.641.765q-.817 1.322.335.61c1.703-1.052 1.409-2.389-.783-3.562-1.611-.862-1.914-.718-1.795.855M63 7c-.825.533-1.05.969-.5.969S64.175 7.533 65 7s1.05-.969.5-.969-1.675.436-2.5.969m-13.933 6.657c-3.539 2.329-6.871 3.964-7.405 3.634-.536-.331-.651-.083-.257.554.637 1.031-.558 1.604-2.655 1.273-.413-.065-.638.253-.5.705.137.453-1.781 2.591-4.264 4.75-2.482 2.16-6.238 5.727-8.345 7.927s-3.574 3.202-3.259 2.227c.474-1.466.253-1.602-1.273-.785-1.015.543-2.219.666-2.675.273s-.114.431.759 1.832c1.513 2.429 1.454 2.707-1.276 6-1.575 1.899-2.875 3.852-2.89 4.339s1.505-1.088 3.377-3.5c2.067-2.664 3.049-4.759 2.5-5.336-1.409-1.481-1.062-2.926.409-1.705 1.01.838 2.687-.31 7.25-4.964 6.815-6.95 15.962-13.774 24.804-18.505C56.74 10.571 58.6 9.168 57.5 9.259c-1.1.09-4.895 2.069-8.433 4.398M89 12c-2.172.457-2.678.787-1.332.868 1.193.073 2.954.433 3.914.802q1.742.667 1.049-.457c-.488-.79 1.635-1.23 7.086-1.469l7.783-.342-7.5-.069c-4.125-.038-9.075.262-11 .667m20.762.707c1.244.239 3.044.23 4-.02s-.062-.446-2.262-.435-2.982.216-1.738.455M78 14c-1.959.627-2.067.797-.5.782 1.1-.01 3.35-.362 5-.782 2.695-.686 2.746-.765.5-.782-1.375-.01-3.625.342-5 .782m42.5.57c2.75.765 5.45 1.353 6 1.306 1.692-.145-6.871-2.723-9-2.71-1.1.007.25.639 3 1.404M71 16c-1.828 1.181-.249 1.181 2.5 0 1.319-.567 1.489-.878.5-.914-.825-.031-2.175.381-3 .914m83.5.683c.55.51 2.8 2.178 5 3.707 3.588 2.494 3.723 2.525 1.314.298-1.478-1.365-2.603-2.641-2.5-2.835.102-.194.014-.256-.195-.138s-1.335-.275-2.5-.873-1.669-.669-1.119-.159M32.543 17.931c-.317.512-.193 1.167.274 1.456s.85-.13.85-.931c0-1.686-.316-1.833-1.124-.525m26.823 3.039c-4.326 2.183-9.216 5.092-10.866 6.464-2.608 2.168-2.739 2.497-1 2.515 1.1.011 2.675-.416 3.5-.949 1.333-.862 1.333-.974 0-1.007-1.011-.025-.694-.656.972-1.937 1.36-1.045 2.822-1.683 3.25-1.419.428.265.778-.026.778-.645 0-.655.802-.872 1.915-.519 1.294.411 2.403-.089 3.42-1.541.918-1.31 1.987-1.851 2.74-1.386.842.521.979.35.43-.537-.616-.997-.127-1.159 2.096-.695 1.594.334 2.286.345 1.536.025-1.151-.491-1.151-.716 0-1.445 3.782-2.396-1.826-.429-8.771 3.076M132 18c.825.533 1.95.969 2.5.969s.325-.436-.5-.969-1.95-.969-2.5-.969-.325.436.5.969m-61.5 2c-.34.55-1.518 1-2.618 1-1.208 0-1.729.439-1.316 1.107q.684 1.107-1.357.459c-1.122-.356-2.272-.272-2.556.186-.283.458.804.934 2.416 1.056 1.612.123 2.931-.233 2.931-.792s.787-1.009 1.75-1.001c1.51.014 1.544.161.25 1.076-1.164.824-1.185.976-.092.682.775-.208 1.56-1.367 1.744-2.576.357-2.335-.134-2.845-1.152-1.197m64.901-.235c-.604.404-1.092 1.442-1.083 2.306.016 1.623 2.284 1.911 4.459.567 1.601-.99 5.435.209 4.663 1.459-.324.524-.218.888.236.809 1.851-.321 3.412.143 2.956.88-.267.432.412.785 1.509.785 1.905 0 1.913-.06.176-1.365-1.704-1.281-10.914-6.224-11.534-6.191-.156.009-.777.346-1.382.75m-56.538 1.038c.961.673 1.028 1.116.225 1.501-.736.353-.749.475-.038.346 1.537-.279 1.377-2.027-.225-2.451-1.046-.277-1.038-.15.038.604m56.542.352c-.443.715-.275.883.44.44.635-.392 1.155-.21 1.155.405s.457.835 1.016.49c1.119-.691.384-2.49-1.016-2.49-.485 0-1.203.52-1.595 1.155M59 22c-.901.582-1.025.975-.309.985.655.008 1.469-.435 1.809-.985.767-1.242.421-1.242-1.5 0m111.943 8.5c4.094 4.4 8.119 8.675 8.945 9.5 1.336 1.334 1.357 1.306.185-.25-1.514-2.011-.159-2.362 1.929-.5 1.196 1.067 1.203.988.05-.533-.744-.981-1.809-1.631-2.367-1.445-.559.186-2.485-1.262-4.281-3.217l-3.266-3.555 2.006-2.145c1.335-1.426 1.638-2.372.906-2.824-.605-.374-.976-.125-.825.554.492 2.209-5.055 1.417-7.948-1.135-1.527-1.348.572 1.15 4.666 5.55M26.741 25.092c1.426 1.829.503 3.356-1.183 1.957-.703-.584-1.675-.546-2.592.103-1.238.876-1.213.957.162.52.896-.283 2.062-.082 2.593.449.619.619 1.383.459 2.134-.446.916-1.104.788-1.709-.593-2.792-1.562-1.226-1.621-1.202-.521.209M58 27c0 .55.45 1 1 1s1-.45 1-1-.45-1-1-1-1 .45-1 1m8 0c0 .55 1.013.993 2.25.985 1.819-.013 1.963-.201.75-.985-1.939-1.253-3-1.253-3 0m62.014 1.414c.648.648 1.324.648 1.972 0 .647-.647.309-.985-.986-.985s-1.633.338-.986.985m42.496.602c.346.559 1.047.758 1.559.441 1.387-.857 1.129-1.457-.628-1.457-.857 0-1.276.457-.931 1.016m-26.02 1c-.346.559-1.16.712-1.809.34-.65-.372-.83-.291-.402.179 1.141 1.254 3.843 1.471 3.087.247-.365-.59-.043-.837.745-.568.784.267 1.442 1.956 1.511 3.879.261 7.302.407 7.907 1.912 7.907 1.267 0 1.422-.916.886-5.25-.748-6.049-4.042-9.789-5.93-6.734m8.51-.739c0 .191 1.463 1.418 3.25 2.726 2.011 1.472 2.71 1.714 1.832.634-1.331-1.64-5.082-4.12-5.082-3.36M40.583 33.542C38.429 35.444 37.218 37 37.892 37c.715 0 .913.521.475 1.25-.497.827-.17.779.965-.143.944-.765 1.474-1.634 1.178-1.93s.677-1.807 2.163-3.358c3.665-3.825 2.672-3.482-2.09.723m90.825-2.317c.333 1.643 3.796 1.663 4.342.025.229-.687-.097-1.25-.726-1.25-.628 0-.864.45-.524 1s-.046 1-.858 1-1.704-.461-1.984-1.025c-.279-.564-.392-.451-.25.25M155 33.893c0 .491.739 1.176 1.641 1.523 1.373.527 1.435.38.378-.893-1.44-1.735-2.019-1.916-2.019-.63M45.872 35.75c-1.243 1.586-1.208 1.621.378.378.962-.755 1.75-1.543 1.75-1.75 0-.823-.821-.294-2.128 1.372M42 36.5c0 .825.177 1.5.393 1.5s.652-.675.969-1.5.139-1.5-.393-1.5c-.533 0-.969.675-.969 1.5m118.393-.029c.119.809.601 1.822 1.072 2.25.47.428.532.217.136-.471-1.431-2.487.483-1.163 4.152 2.871 3.982 4.379 5.371 6.692 3.222 5.364-.848-.525-1.038-.397-.56.377.398.644 1.091.943 1.541.665 1.053-.651 3.238 1.945 2.369 2.815-.362.362-.107.658.567.658s.905.52.513 1.155c-.443.715-.275.883.44.44 1.049-.647 1.619.599 1.249 2.729-.079.454.337.527.925.164 1.349-.833-.758-4.224-8.382-13.492-5.67-6.892-7.668-8.416-7.244-5.525m-127.93 5.297c-6.587 8.171-7.067 8.858-5.085 7.276 1.003-.801 2.495-1.555 3.315-1.675s1.787-.549 2.149-.953-.13-.452-1.092-.107c-2.585.928-2.142-.31 1.432-3.996 1.75-1.806 2.97-3.494 2.713-3.752s-1.802 1.186-3.432 3.207m149.174.01c-.264.428.328 1.85 1.316 3.16l1.797 2.382v-2.767c0-1.929-.26-2.356-.86-1.41-.78 1.231-1.308.502-1.008-1.393.155-.981-.632-.964-1.245.028M34.632 42.786c-.267.432.382.785 1.441.785S38 43.218 38 42.786 37.352 42 36.559 42s-1.659.354-1.927.786m109.546 3.964c.285 2.43.031 2.707-2.178 2.379-1.375-.204-15.775-.461-32-.571l-29.5-.199 29.5.57c28.015.542 29.752.687 34.5 2.869 2.75 1.264 6.912 4.17 9.25 6.458 3.161 3.094 4.25 3.707 4.25 2.393 0-.972-.405-1.517-.899-1.211-.495.305-2.281-1.018-3.97-2.941-1.688-1.923-3.56-3.497-4.159-3.497-.6 0-.81-.453-.468-1.007.343-.554-.081-1.277-.941-1.607-.919-.353-1.563-1.792-1.563-3.493 0-1.591-.482-2.893-1.072-2.893-.589 0-.926 1.237-.75 2.75m-137.032.387c-1.574 2.522-.636 3.782 1.342 1.803.792-.792 1.103-1.985.691-2.65-.533-.863-1.117-.619-2.033.847M38 45.941c0 .518.445 1.216.989 1.552.566.35.734-.051.393-.941C38.717 44.82 38 44.503 38 45.941m-24.796 1.735c.415 1.346-4.454 9.287-5.354 8.731-.455-.281-.593.099-.307.844s-.196 3.067-1.07 5.16c-3.03 7.25-.952 4.294 3.582-5.098 2.506-5.19 4.182-9.666 3.726-9.949s-.716-.142-.577.312m172.339.255c-.317.512-.193 1.167.274 1.456s.85-.13.85-.931c0-1.686-.316-1.833-1.124-.525m-154.972 1.64c-2.16 2.161-1.969 2.694.429 1.197 1.1-.687 2-1.591 2-2.009 0-1.153-.696-.92-2.429.812m47.24 34.661c.196 22.756-.052 36.409-.674 37.031-.614.614-.633 1.408-.049 2.111.515.619 2.281 2.875 3.924 5.014 1.643 2.138 2.988 3.553 2.988 3.144s-1.125-2.08-2.5-3.714l-2.5-2.971-.015-37.174c-.009-20.445-.346-37.694-.75-38.33s-.595 15.064-.424 34.889M22.604 55.413c-3.458 5.9-6.792 13.732-6.129 14.395.289.289.525-.026.525-.7s.52-.905 1.155-.513c.733.454.882.274.408-.493-.41-.664.477-3.706 1.971-6.761 2.008-4.105 2.957-5.199 3.636-4.197.696 1.026.881.869.76-.644-.278-3.475.038-4.638 1.086-3.99.559.346.777 1.016.484 1.49s-.106 1.125.415 1.447c1.854 1.147 2.005-1.209.183-2.858-1.765-1.598-1.983-1.462-4.494 2.824m167.041-1.93c-.313.815.535 3.853 1.883 6.75 1.349 2.897 2.457 4.687 2.462 3.977.006-.709-.886-3.046-1.981-5.192s-1.722-4.603-1.393-5.46.373-1.558.098-1.558-.756.667-1.069 1.483m-9.95 8.004c.915 1.919 1.841 3.31 2.058 3.093.457-.457-2.578-6.58-3.263-6.58-.251 0 .291 1.569 1.205 3.487m-20.556 3.763c.666 1.237 1.776 4.05 2.469 6.25s1.278 3.1 1.303 2c.049-2.165-3.442-10.5-4.397-10.5-.322 0-.04 1.013.625 2.25m-126.201.032C31.47 66.427 29.593 70 30.46 70c.218 0 1.104-.707 1.969-1.571 1.428-1.429 1.572-1.406 1.586.25.013 1.455.195 1.538.908.412.49-.775.632-2.087.315-2.914-.407-1.061-.187-1.263.747-.687q1.322.817.61-.335c-.892-1.444-1.677-1.417-3.657.127M59.5 65c-.34.55-.141 1 .441 1S61 65.55 61 65s-.198-1-.441-1-.719.45-1.059 1m1.81 1.498c-.654.709-.917 1.562-.583 1.895.875.876-1.148.749-2.277-.143-.522-.412-5.225-.484-10.45-.16l-9.5.591 10 .021 10 .021.253 28.889c.14 15.888.548 29.563.908 30.388s.581 1.988.491 2.583.49 1.084 1.288 1.084c1.068 0 1.206-.459.524-1.734-.666-1.245-.51-1.893.554-2.302.815-.312 1.482-1.064 1.482-1.671s-.788-.315-1.75.648c-1.667 1.667-1.763.374-2.016-27.173-.174-18.928.086-29.042.75-29.263.559-.186 1.016-.939 1.016-1.672s.54-1.513 1.201-1.734c.686-.228.793-.648.25-.978-.523-.318-1.486.002-2.141.71M3.564 68.293c.376.986.935 1.541 1.243 1.233s.001-1.114-.683-1.793c-.988-.98-1.102-.865-.56.56m194 .414c-.542 1.425-.428 1.54.56.56.684-.679.991-1.486.683-1.793-.308-.308-.867.247-1.243 1.233m-176.939.091c-.271.439-.08 1.451.426 2.25.771 1.218.921 1.182.934-.225.008-.922.803-1.882 1.765-2.134 1.351-.353 1.251-.483-.441-.573-1.205-.064-2.413.243-2.684.682m15.813.502c-.274.716-.371 7.353-.214 14.75l.285 13.45.496-14.752c.272-8.113.368-14.75.214-14.75-.155.001-.506.587-.781 1.302M180 69.059c0 .582.45.781 1 .441s1-.816 1-1.059-.45-.441-1-.441-1 .477-1 1.059m-80 27.928c0 29.435-.33 31.476-5.472 33.818-1.442.657-3.838 1.224-5.325 1.258l-2.703.064 2.42.967c1.602.64 2.767.619 3.45-.064.566-.566 1.503-1.023 2.08-1.015s.388.434-.421.946-1.168 1.233-.798 1.604c.371.37 1.366-.019 2.212-.866.848-.847 1.09-1.688.538-1.872-.55-.183-.057-.923 1.097-1.643 1.897-1.186 2.037-1.122 1.469.669-.346 1.088-.165 2.265.401 2.615.614.379.787.005.429-.927-.451-1.177-.139-1.414 1.262-.958 1.408.458 1.526.366.483-.377-.758-.54-1.056-1.503-.663-2.139.393-.637.657-13.962.587-29.612L100.918 71h15.041c12.156 0 15.041.266 15.041 1.387 0 .77 1.309 1.578 2.947 1.819 1.621.237 2.72.064 2.441-.387-.278-.45-.056-.819.494-.819 2.035 0 2.363 2.349.521 3.729-1.857 1.391-1.854 1.418.097 1.099 1.461-.24 2.09.308 2.334 2.033.211 1.488-.062 2.116-.738 1.698-.667-.412-.842-.061-.463.926.335.874-.008 2.382-.762 3.351s-.359.702.879-.593c3.043-3.184 2.974-8.289-.161-11.937l-2.412-2.806-18.088-.313L100 69.874zM14.091 75.091c-.676 2.257-1.046 4.288-.821 4.513s.963-1.438 1.639-3.695 1.046-4.288.821-4.513-.963 1.438-1.639 3.695M132 71.787c0 .433 1.007.863 2.237.956 1.759.132 1.919-.033.75-.772-1.828-1.156-2.987-1.227-2.987-.184m52.1-.618c-.055.368.601 3.406 1.458 6.752s1.281 6.531.941 7.08-.166.999.384.999c.551 0 1.194 1.688 1.429 3.75s.279 1.275.097-1.75c-.274-4.55-3.981-19.029-4.309-16.831M2 75.392c0 .949-.45 1.448-1 1.108-.585-.362-1 .676-1 2.5 0 1.715.415 2.861.923 2.548 1.154-.714 2.477-6.481 1.672-7.286-.327-.328-.595.181-.595 1.13m109.331 1.213c.002 1.177 14.053 1.344 15.216.181.346-.345-2.937-.776-7.295-.957-5.318-.221-7.923.034-7.921.776m53.669.836c0 1.343.369 2.669.819 2.947.451.279.624-.82.387-2.441-.525-3.574-1.206-3.86-1.206-.506M102 77c0 .55.927 1 2.059 1s1.781-.45 1.441-1-1.266-1-2.059-1-1.441.45-1.441 1m61.232 2c0 1.925.206 2.713.457 1.75.252-.963.252-2.537 0-3.5-.251-.963-.457-.175-.457 1.75M11.5 86c-.384 2.274-.489 4.345-.232 4.601.256.256.766-1.409 1.132-3.701s.471-4.362.232-4.601S11.884 83.726 11.5 86m151.674-1.25c-1.065 2.078-2.557 7.966-1.835 7.245.672-.672 3.521-8.995 3.079-8.995-.191 0-.751.787-1.244 1.75M178 84.559c0 .857.45 1.281 1 .941s1-1.041 1-1.559-.45-.941-1-.941-1 .702-1 1.559m-6 .309c0 .542-.787 1.191-1.75 1.443-1.077.281-.692.502 1 .573 2.722.115 3.681-1.191 1.75-2.384-.55-.34-1-.174-1 .368M.392 101c0 7.425.157 10.463.35 6.75s.192-9.787 0-13.5c-.193-3.713-.35-.675-.35 6.75m123.336-12.278c1.775.221 4.925.224 7 .008 2.074-.217.622-.397-3.228-.402-3.85-.004-5.548.173-3.772.394m-4.503 19.497c-.208 18.271-.353 19.677-1.975 19.155-1.067-.343-1.321-.233-.65.282.605.464 1.335 1.519 1.622 2.344 1.19 3.421 1.847-6.557 1.547-23.5l-.318-18zm38.952-12.09c-1.278 1.575-1.719 2.632-.979 2.348 1.35-.517 4.22-4.435 3.621-4.943-.175-.149-1.365 1.019-2.642 2.595m31.075 4.371c.011 2.2.216 2.982.455 1.738s.23-3.044-.02-4-.446.062-.435 2.262m-178.966 2c.008 2.75.202 3.756.432 2.236s.223-3.77-.014-5-.425.014-.418 2.764m25.909-1c.02 1.65.244 2.204.498 1.231s.237-2.323-.037-3-.481.119-.461 1.769M154 100.393c0 .216.698.661 1.552.989.89.341 1.291.173.941-.393-.587-.951-2.493-1.406-2.493-.596m3.702 2.238c-.347.348.017 1.557.809 2.688 1.689 2.411 4.632 3.217 3.796 1.039-.305-.794-.795-1.204-1.089-.91-.819.819-3.271-1.553-2.648-2.561.631-1.022.065-1.189-.868-.256M35.8 106.2c.66.66 1.236 2.347 1.279 3.75s.312 1.968.598 1.257c.771-1.922-.538-6.207-1.896-6.207-.897 0-.893.288.019 1.2m152.279 3.383c.048 1.165.285 1.402.604.605.289-.722.253-1.585-.079-1.917s-.568.258-.525 1.312M11.252 112.5c.011 2.2.216 2.982.455 1.738s.23-3.044-.02-4-.446.062-.435 2.262m149.834-3c.104 1.894 1.77 5.084 1.828 3.5.031-.825-.381-2.175-.914-3s-.945-1.05-.914-.5m27.072 4.5c0 1.375.227 1.938.504 1.25.278-.687.278-1.812 0-2.5-.277-.687-.504-.125-.504 1.25m-150.079.583c.048 1.165.285 1.402.604.605.289-.722.253-1.585-.079-1.917s-.568.258-.525 1.312m147 0c.048 1.165.285 1.402.604.605.289-.722.253-1.585-.079-1.917s-.568.258-.525 1.312M163.3 120c0 3.025.187 4.263.416 2.75s.229-3.987 0-5.5-.416-.275-.416 2.75m-151.221-1.417c.048 1.165.285 1.402.604.605.289-.722.253-1.585-.079-1.917s-.568.258-.525 1.312m26.6-.188c-.389 1.014-.254 1.46.332 1.098.902-.557 1.375 1.037 1.259 4.246-.024.682.289 1.033.697.782 1.095-.678 2.798 3.646 2.412 6.125-.184 1.18.325 2.694 1.132 3.363.807.67 1.177 1.686.823 2.259-.382.619-.156.74.56.297.845-.521.893-1.116.163-1.996-1.472-1.773-.053-2.802 1.808-1.31.852.682.344-.36-1.129-2.316s-3.741-5.964-5.04-8.907c-1.759-3.986-2.529-4.915-3.017-3.641m147.871 2.308c-.89 5.27-1.874 6.547-5.043 6.547-1.722 0-2.256.287-1.454.782.696.431 1.83.567 2.519.302s1.424.34 1.633 1.343c.208 1.002 1.216-1.221 2.239-4.941 1.023-3.721 1.612-7.014 1.308-7.318s-.845 1.174-1.202 3.285M166 120.5c0 .825.375 1.5.833 1.5.459 0 .834-.675.834-1.5s-.375-1.5-.834-1.5-.833.675-.833 1.5M0 126c0 3.483.311 6.023.69 5.643.709-.708.467-10.812-.276-11.56C.186 119.854 0 122.517 0 126m196.369 1.75c-1.163 4.262-2.428 8.65-2.811 9.75-.46 1.322-.176 1.153.837-.5.844-1.375 1.55-3.287 1.57-4.25.019-.963.457-1.75.973-1.75s.901-.787.856-1.75.258-3.437.673-5.5c1.28-6.352.128-4.157-2.098 4m-183.266-5.675C12.879 125.499 20.97 146 22.546 146c.278 0-.2-1.363-1.061-3.029-.862-1.667-1.254-3.536-.871-4.155.399-.646.248-.849-.355-.476-1.188.734-2.564-2.037-1.703-3.43.309-.501.085-.91-.497-.91s-1.052-.787-1.044-1.75c.012-1.34.214-1.438.861-.416.687 1.083.955 1.049 1.427-.182.426-1.108.036-1.41-1.452-1.123-1.459.281-1.876-.021-1.474-1.069.308-.803.169-1.46-.309-1.46s-1.318-1.687-1.865-3.75c-.548-2.062-1.043-3.041-1.1-2.175m23.976.508c.048 1.165.285 1.402.604.605.289-.722.253-1.585-.079-1.917s-.568.258-.525 1.312m-34.788 6.359c.036 3.327-.398 5.594-1.116 5.833-.646.215-1.168 1.817-1.16 3.558.011 2.246.275 2.757.908 1.758.49-.775.66-2.013.377-2.75-.533-1.389 1.211-1.917 1.953-.591.23.412.303.242.161-.378-.142-.621.138-1.524.622-2.008.507-.507.311-2.998-.462-5.872L2.231 123.5zm97.376-2.275c-.367.366-.667 1.131-.667 1.7 0 .626.466.567 1.183-.15.651-.651.951-1.416.667-1.7s-.817-.217-1.183.15m62.449.501c-.064.918-.375 2.493-.692 3.5-.545 1.736-.515 1.739.568.051.628-.98.939-2.555.691-3.5-.406-1.549-.462-1.554-.567-.051m-127.303.515c.721.289 1.584.253 1.916-.079s-.258-.568-1.312-.525c-1.165.048-1.402.285-.604.604m32.937-.021c.688.278 1.813.278 2.5 0 .688-.277.125-.504-1.25-.504s-1.937.227-1.25.504m-26.819.588c-.496 1.799-.676 5.828-.241 5.393.685-.684 1.319-5.643.722-5.643-.227 0-.443.113-.481.25m-6.911 2.226c-.789.95-.865 1.524-.201 1.524 1.208 0 2.617-1.897 1.924-2.591-.252-.251-1.027.229-1.723 1.067M28 131c0 .55.45 1 1 1s1-.45 1-1-.45-1-1-1-1 .45-1 1m16 1.059c0 .582.45.781 1 .441s1-.816 1-1.059-.45-.441-1-.441-1 .477-1 1.059m72.366-.384c.837 1.491-1.361 6.446-2.537 5.719-.483-.298-.755.053-.604.782.151.728-.287 1.211-.975 1.074s-1.197.088-1.132.5c.335 2.121-.459 3.21-4.097 5.617-3.853 2.55-6.651 3.462-5.649 1.841.269-.436-.335-.855-1.343-.931-1.196-.09-1.738.445-1.561 1.543.72 4.458 12.139-2.396 16.946-10.172 2.383-3.855 2.677-4.94 1.605-5.933-.931-.862-1.121-.873-.653-.04M23 134c.589 1.1 1.5 2 2.025 2 .526 0 .185-.9-.757-2s-1.853-2-2.025-2c-.173 0 .168.9.757 2m14.079-.417c.048 1.165.285 1.402.604.605.289-.722.253-1.585-.079-1.917s-.568.258-.525 1.312m145.545-.044c-.965 2.514-.681 3.163.498 1.136.584-1.004.851-2.036.593-2.293-.257-.258-.749.263-1.091 1.157m-121.594-.223c-.069 1.867 2.154 4.688 3.19 4.048.712-.44.905-.131.529.847-.597 1.556 5.868 8.821 7.793 8.757.527-.017.058-.712-1.042-1.543s-2.056-1.942-2.125-2.468-.181-1.427-.25-2.001-.77-.911-1.559-.75-1.464-.044-1.5-.456c-.197-2.251.033-2.807.934-2.25.55.34 1 .093 1-.548s-.675-.907-1.5-.59c-.972.373-1.505-.029-1.515-1.143-.012-1.359-.198-1.432-.883-.349-.701 1.106-1.078 1.01-1.955-.5-.597-1.029-1.1-1.503-1.117-1.054M5.031 135.5c0 .55.436 1.675.969 2.5s.969 1.05.969.5-.436-1.675-.969-2.5-.969-1.05-.969-.5M51 137.359c1.375 1.541 2.388 2.991 2.25 3.222s-.138.343 0 .25 1.292.388 2.565 1.07c1.964 1.051 2.123 1.493 1.048 2.919-1.043 1.384-1.033 1.473.057.508 1.551-1.373 4.37-.605 3.42.931-.406.657-.16.748.656.243.97-.599.559-1.346-1.595-2.903-1.596-1.153-4.701-3.659-6.901-5.569-3.042-2.642-3.401-2.803-1.5-.671M93.5 137c-.34.55.084 1 .941 1S96 137.55 96 137s-.423-1-.941-1-1.219.45-1.559 1m79.179-.25c-.241.412 1.031 2.278 2.828 4.146l3.266 3.397 1.206-2.254q1.206-2.253.207-3.253-.999-.999-.843.75c.286 3.187-2.327 2.792-2.976-.45-.566-2.831-2.632-4.14-3.688-2.336m4.4.833c.048 1.165.285 1.402.604.605.289-.722.253-1.585-.079-1.917s-.568.258-.525 1.312m-77.522.325c-.308.499-.139 1.961.378 3.25.878 2.191.942 2.132 1.002-.908.064-3.286-.356-3.999-1.38-2.342m55.098 3.601c-2.073 2.48-5.544 5.414-7.712 6.52S143 150.266 143 150.541s1.912-.5 4.25-1.723c2.338-1.222 4.621-2.12 5.074-1.995.454.124.589-.154.302-.62-.589-.953 2.882-4.27 3.789-3.621.322.23.358.116.081-.252-.276-.369.184-1.719 1.024-3 2.357-3.598 1.277-2.776-2.865 2.179M2 141.684c0 1.335.267 1.449 1.2.516 1.732-1.732 3.119-1.475 2.384.441-.498 1.298-.344 1.405.736.508 1.073-.891 1.617-.583 2.536 1.434.643 1.412.958 2.908.701 3.325-.258.417.144.759.893.759 1.045 0 .896-.96-.644-4.129-1.6-3.295-2.591-4.172-4.906-4.349-2.159-.164-2.9.218-2.9 1.495m47.543-.753c-.317.512-.193 1.167.274 1.456s.85-.13.85-.931c0-1.686-.316-1.833-1.124-.525m26.457.128c0 .582.45.781 1 .441s1-.816 1-1.059-.45-.441-1-.441-1 .477-1 1.059m114.584 2.858c-1.342 2.957-1.361 3.244-.105 1.642.836-1.068 1.521-2.332 1.521-2.809s.403-.619.895-.315c.493.305 1.125-.044 1.405-.774 1.185-3.087-2.231-1.014-3.716 2.256M.441 171.5c.001 15.95.139 22.335.307 14.189s.168-21.196-.001-29C.579 148.885.441 155.55.441 171.5m48.638-25.917c.048 1.165.285 1.402.604.605.289-.722.253-1.585-.079-1.917s-.568.258-.525 1.312m15.396 2.1c1.087 1.059 2.825 1.989 3.863 2.068 2.307.173 2.094-.031-2.338-2.245-3.458-1.728-3.476-1.726-1.525.177m-40.511 1.153c.659 1.284 1.472 2.061 1.807 1.726.336-.335-.203-1.386-1.197-2.336-1.728-1.65-1.755-1.623-.61.61m32.6-.543c.376.986.935 1.541 1.243 1.233s.001-1.114-.683-1.793c-.988-.98-1.102-.865-.56.56m17.437-.518c-.001.386 3.967 1.803 7.333 2.619 1.86.45 2.613.329 2.191-.354-.354-.572-1.768-1.04-3.143-1.04s-2.251-.402-1.948-.894c.304-.491-.569-.829-1.94-.75s-2.493.268-2.493.419m100.295 1.975c-.962 1.512-2.21 3.081-2.773 3.485-.669.48-.624.74.128.75.633.008 2.081-1.56 3.216-3.485 2.436-4.128 1.969-4.741-.571-.75m13.268-.043c-.542 1.425-.428 1.54.56.56.684-.679.991-1.486.683-1.793-.308-.308-.867.247-1.243 1.233m-97.367-.177c.975.975 6.847 1.349 6.259.399-.316-.511-1.972-.929-3.682-.929s-2.869.239-2.577.53M71.5 151c.34.55.816 1 1.059 1s.441-.45.441-1-.477-1-1.059-1-.781.45-.441 1m-58.071 2.808c0 1.127.409 1.969.91 1.871s1.138.446 1.416 1.21c.347.956.074 1.14-.875.59-.815-.472-1.039-.427-.547.111.459.5 1.359.914 2 .918.642.004 1.167 1.315 1.167 2.912 0 1.732.606 3.072 1.5 3.319 1.311.361 1.314.284.029-.608-.809-.562-1.112-1.381-.673-1.82 1.186-1.187 6.346 5.625 6.117 8.075-.143 1.525-.074 1.603.245.282.419-1.735.544-1.741 2.339-.117 1.043.944 1.609 2.219 1.259 2.833s-.26.774.199.357c.88-.799 5.485 2.973 5.485 4.492 0 .487-.355.666-.788.398s-.876.583-.985 1.892c-.216 2.619 1.244 4.142 2.314 2.411.435-.705 1.713-.107 3.569 1.671 1.639 1.571 2.89 2.202 2.89 1.46 0-1.043.302-1.059 1.479-.082 1.108.919 1.221 1.71.45 3.15-.566 1.058-1.464 1.654-1.995 1.326s-.708-1.016-.391-1.528.098-.931-.484-.931c-1.529 0-1.301 1.554.441 3 1.073.89 1.866.941 2.784.18.813-.676 1.82-.726 2.75-.138 1.907 1.206 4.249 1.224 3.509.027-.317-.512-.049-1.256.595-1.654q1.176-.729.352.6c-.571.926-.377 1.156.646.763.806-.309 2.567.048 3.914.795 1.348.746 2.889 1.372 3.426 1.392.536.019-2.551-1.975-6.861-4.431-4.311-2.456-9.332-5.606-11.159-7-1.828-1.394-3.54-2.534-3.806-2.534-1.629 0-16.65-17.251-21.686-24.906-1.455-2.211-1.535-2.226-1.535-.286m15.464 2.058c1.789 2.258 3.783 4.41 4.43 4.781.647.372.164-.439-1.073-1.8-1.238-1.362-2.25-2.901-2.25-3.421s-.981-1.557-2.18-2.306c-1.679-1.049-1.433-.419 1.073 2.746M78 152.393c0 .216.675.652 1.5.969s1.5.139 1.5-.393c0-.533-.675-.969-1.5-.969s-1.5.177-1.5.393m35.5.607c-12.1.307-21.55.691-21 .851 2.399.702 42.9-.07 44.845-.855 1.983-.8 1.996-.857.155-.712-1.1.086-11.9.409-24 .716m68.974 4.75c-3.903 5.89-17.728 20.367-22.814 23.89-2.705 1.873-2.752 2.035-1 3.413 1.687 1.327 1.726 1.302.468-.303-.755-.963-.958-1.75-.45-1.75.507 0 3.573-2.363 6.813-5.25s6.03-5.137 6.2-5 .872.243 1.559.235c.925-.012.947-.208.084-.758-1.762-1.12 4.736-7.82 7.206-7.429 1.63.257 1.708.132.46-.744-.943-.662-1.128-1.333-.5-1.804.55-.412 1.776-2.1 2.725-3.75.948-1.65 2.089-2.92 2.535-2.821s.811-.69.811-1.75-.064-1.929-.144-1.929-1.858 2.588-3.953 5.75M82 155c0 .55.45 1 1 1s1-.45 1-1-.45-1-1-1-1 .45-1 1m-6.187.683c.721.289 1.584.253 1.916-.079s-.258-.568-1.312-.525c-1.165.048-1.402.285-.604.604m93.287 1.612c-1.265 2.107-1.243 2.128.479.479.991-.95 1.587-1.942 1.324-2.205s-1.074.514-1.803 1.726m-71.1.098c0 .949 2.993 1.427 3.527.563.325-.526-.336-.956-1.468-.956s-2.059.177-2.059.393m39.813 1.29c.721.289 1.584.253 1.916-.079s-.258-.568-1.312-.525c-1.165.048-1.402.285-.604.604m26.889 2.984c.282.733.641 1.333.798 1.333s.516-.6.798-1.333c.281-.734-.078-1.334-.798-1.334s-1.079.6-.798 1.334m-128.796 2.157c.607 1.135 1.597 2.369 2.199 2.741.784.485.781.091-.011-1.389-.607-1.135-1.597-2.369-2.199-2.741-.784-.485-.781-.091.011 1.389M160.5 166c.34.55.816 1 1.059 1s.441-.45.441-1-.477-1-1.059-1-.781.45-.441 1m-10.221 1.464c-.859.978-.893 1.498-.116 1.757.689.23.463 1.01-.6 2.074-1.283 1.282-1.366 1.705-.334 1.705.754 0 1.903-.532 2.554-1.183s1.451-.916 1.778-.589c.884.883-6.731 5.785-7.883 5.073-.557-.344-.672-.1-.264.56.827 1.338 3.878-.197 9.47-4.764 2.171-1.774 2.814-2.764 1.794-2.764-.875 0-1.358.375-1.075.834.693 1.121-.329 1.05-2.632-.182-1.103-.591-1.658-1.636-1.327-2.5.704-1.834.236-1.841-1.365-.021m-100.923 1.163c-.629.258-.914 1.347-.633 2.421.72 2.752 1.777 2.426 1.777-.548v-2.421c0 .043-.515.29-1.144.548m-7.356.751c0 .207.788.995 1.75 1.75 1.586 1.243 1.621 1.208.378-.378-1.307-1.666-2.128-2.195-2.128-1.372m7.433 5.513c1.294 2.094 4.391 3.21 5.167 1.862.396-.689.347-.914-.11-.499-.457.414-1.934.03-3.283-.854s-2.148-1.113-1.774-.509M139 177c0 .55.477 1 1.059 1s.781-.45.441-1-.816-1-1.059-1-.441.45-.441 1m3.875.349c.886 1.068.283 1.727-2.888 3.157-2.204.994-3.821 1.993-3.594 2.22s2.29-.544 4.584-1.714c3.436-1.753 3.96-2.383 2.975-3.57-.658-.793-1.422-1.442-1.697-1.442s.004.607.62 1.349m-87.351.613c-.725 1.172 7.155 5.355 8.51 4.517.531-.328.966-.157.966.38 0 1.239 12.58 5.478 14.253 4.802.686-.277.208-.539-1.062-.582-1.479-.051-2.053-.494-1.596-1.234.432-.698.276-.883-.395-.469-1.945 1.203-6.2-.462-6.2-2.425 0-1.008-.408-2.085-.907-2.393-.498-.309-.671.34-.383 1.441s.214 2.001-.165 2.001C67.46 184 65 181.257 65 180.047c0-1.212-4.966-3.414-5.805-2.575-.291.29.023.528.697.528s.974.408.666.906-1.454.672-2.548.386c-1.093-.285-1.741-.918-1.44-1.406s.323-.886.048-.886-.767.433-1.094.962m66.226-.3c.688.278 1.813.278 2.5 0 .688-.277.125-.504-1.25-.504s-1.937.227-1.25.504M104 179.5c0 .825.375 1.5.833 1.5.459 0 .834-.675.834-1.5s-.375-1.5-.834-1.5-.833.675-.833 1.5m-42.834.376c-1.057.67-.976.983.393 1.508.95.365 1.963.427 2.251.14.288-.288-.114-.531-.893-.539-1.167-.013-1.152-.187.083-.985.825-.533 1.05-.969.5-.969s-1.6.38-2.334.845m38.28.211c-.369.598-.171 1.588.441 2.2.817.817 1.113.528 1.113-1.087q0-3.623-1.554-1.113m-65.905.98c.363.586.915.81 1.228.497.313-.312 1.353.142 2.312 1.009.959.868 2.413 1.676 3.23 1.796s2.219.826 3.112 1.567c.894.742 1.833 1.142 2.086.888.82-.82-8.503-6.824-10.597-6.824-1.183 0-1.755.445-1.371 1.067m98.67 2.538c-1.429 1.546-.464 1.842 1.646.505.746-.473.971-1.094.5-1.38s-1.437.108-2.146.875m-5.653 1.488c.308.499-.254.943-1.249.986s-1.32.281-.723.529c.597.247 2.139.059 3.426-.417l2.341-.866-2.178-.569c-1.198-.313-1.926-.161-1.617.337m27.892-.161c-.522.512-4.725 2.944-9.34 5.403-5.552 2.959-7.529 4.419-5.846 4.318 1.399-.084 2.376-.425 2.171-.757-.596-.966 4.605-2.989 5.794-2.254.692.427.786.191.261-.657-.599-.97-.358-1.149.898-.666 1.156.443 1.482.28 1-.5q-.715-1.158.936-.525c.909.349 1.545.26 1.414-.198-.131-.457.887-1.776 2.262-2.931 1.375-1.154 2.252-2.113 1.95-2.132-.302-.018-.978.386-1.5.899M32 188.417c0 .87.712 1.583 1.583 1.583 1.766 0 1.459-2.153-.395-2.771-.654-.218-1.188.317-1.188 1.188m49-.517c0 1.992 20.338 3.696 28.47 2.385 3.802-.613 1.687-.82-9-.881-7.963-.046-15.152-.569-16.72-1.217-1.513-.626-2.75-.755-2.75-.287m18 .069c0 .532.675.709 1.5.393.825-.317 1.5-.753 1.5-.969s-.675-.393-1.5-.393-1.5.436-1.5.969m18.5.031c-2.722.693-2.768.768-.5.811 1.375.027 3.4-.338 4.5-.811 2.466-1.06.164-1.06-4 0m-73.5.465c0 .255 1.013 1.004 2.25 1.664 2.04 1.087 2.122 1.043.878-.465-1.278-1.549-3.128-2.258-3.128-1.199m114.923-.215c-.539 1.764-.633 3.793-.152 3.313.729-.73 1.239-3.563.641-3.563-.227 0-.446.113-.489.25M50.638 193.5c-.409 1.067.066 1.477 1.643 1.421 1.221-.043 1.654-.307.963-.585-.691-.279-1.002-.918-.691-1.421s.137-.915-.387-.915-1.211.675-1.528 1.5m10.095.624c.679.684 1.486.991 1.793.683.308-.308-.247-.867-1.233-1.243-1.425-.542-1.54-.428-.56.56M128.5 197c-2.75 1.015-4.325 1.845-3.5 1.845s3.75-.83 6.5-1.845 4.325-1.845 3.5-1.845-3.75.83-6.5 1.845m-72.5.5c0 .825.177 1.5.393 1.5s.652-.675.969-1.5.139-1.5-.393-1.5c-.533 0-.969.675-.969 1.5m13.66.25c-.252.412 1.184.818 3.191.901 2.79.116 3.178-.044 1.649-.68-2.598-1.079-4.269-1.155-4.84-.221"/><path fill-opacity=".066" fill-rule="evenodd" d="M84.713 2.021C63.466 5.386 41.126 17.266 26.931 32.747 15.947 44.726 7.163 60.77 2.783 76.854 1.086 83.083.695 87.465.673 100.5c-.024 14.173.272 17.116 2.597 25.768 6.362 23.684 21.624 44.89 41.74 57.999 10.515 6.853 17.869 10.17 29.49 13.302 7.814 2.106 11.175 2.426 25.5 2.426 14.492 0 17.648-.308 25.934-2.527 28.325-7.589 53.629-29.2 65.544-55.978 3.217-7.23 7.516-22.769 7.519-27.181.002-1.755.453-3.469 1.003-3.809.558-.345 1-5.01 1-10.559 0-5.961-.4-9.941-1-9.941-.55 0-1-1.278-1-2.84s-.87-6.24-1.933-10.396c-8.959-35.031-36.26-62.756-71.188-72.295C115.337 1.59 95.048.383 84.713 2.021m-.379 10.391C55.622 17.897 32.62 35.078 19.955 60.5c-7.443 14.941-9.274 22.938-9.274 40.5 0 17.287 1.819 25.461 8.838 39.721 8.868 18.014 22.746 31.892 40.76 40.76 14.26 7.019 22.434 8.838 39.721 8.838 17.265 0 25.531-1.834 39.5-8.765 18.49-9.173 31.6-22.135 40.51-40.054 7.487-15.055 9.309-22.985 9.309-40.5 0-17.287-1.819-25.461-8.838-39.721-11.456-23.272-33.12-40.966-57.981-47.355-10.337-2.656-28.425-3.373-38.166-1.512m-4.667 37.255C79.3 50.033 79 66.473 79 86.199c0 39.702.219 41.312 6.043 44.323 4.355 2.252 9.142 1.236 12.397-2.633l2.56-3.042V69.874l18.089.313 18.088.313 2.412 2.806c3.187 3.709 3.187 8.679 0 12.388-2.166 2.522-3.205 2.857-10.25 3.306l-7.839.5-.5 20.5c-.462 18.947-.678 20.858-2.846 25.221-3.853 7.75-14.39 15.693-20.904 15.757-1.237.012-2.25.516-2.25 1.12 0 .775 6.405.992 21.75.739 21.033-.348 21.936-.447 27.398-2.996 11.917-5.564 19.168-16.629 19.191-29.287.014-7.782-1.875-13.415-5.913-17.63l-2.467-2.577 2.166-1.923c3.65-3.243 6.041-9.975 6.129-17.264.194-16-9.06-27.95-24.053-31.061-5.706-1.183-57.401-1.565-58.534-.432M37.006 85.75c.006 18.806.897 26.112 4.214 34.555 6.039 15.375 22.272 28.871 37.472 31.155 4.149.623 4.006.52-4.595-3.316-4.827-2.152-9.933-7.596-12.702-13.542-2.335-5.015-2.376-5.616-2.385-35.352L59 69H37zM.37 101c0 5.775.165 8.138.367 5.25s.202-7.612 0-10.5S.37 95.225.37 101"/><path fill-opacity=".162" fill-rule="evenodd" d="M84.835 2.543C68.7 5.057 52.484 11.892 40.176 21.367c-7.455 5.739-18.708 17.673-23.518 24.942-18.615 28.134-21.404 65.564-7.179 96.351 9.494 20.549 28.367 39.393 49.004 48.928C72.959 198.276 79.382 199.5 100 199.5c16.305 0 19.437-.271 26.395-2.287 34.654-10.037 61.456-37.517 70.196-71.972 1.325-5.224 2.409-11.438 2.409-13.81s.45-4.591 1-4.931 1-3.291 1-6.559c0-3.294-.446-5.941-1-5.941-.55 0-1-1.742-1-3.872 0-5.873-4.39-21.938-8.317-30.439-4.785-10.356-9.906-17.839-18.183-26.569-16.613-17.524-34.837-27.109-58.248-30.638C102.617.728 96.406.741 84.835 2.543M82 12.501c-17.846 3.607-31.795 11.273-45.5 25.008C18.369 55.679 10 75.607 10 100.608c0 41.369 26.327 76.044 66.5 87.588 6.805 1.955 10.315 2.299 23.5 2.299 13.114 0 16.699-.347 23.289-2.255 25.173-7.288 44.462-22.751 56.654-45.416 11.319-21.043 13.242-49.37 4.915-72.397-10.98-30.366-37.556-52.755-69.292-58.376-7.949-1.408-25.538-1.172-33.566.45M80 87.37v37.477l2.589 3.076c2.092 2.486 3.353 3.077 6.566 3.077C99.282 131 100 128.686 100 96.032V70h17.864c17.791 0 17.874.01 20.401 2.537 3.387 3.388 4.078 6.706 2.288 10.991-1.928 4.615-6.996 6.849-14.186 6.253l-5.191-.431-.339 19.575c-.327 18.875-.435 19.772-3.027 25.075-4.164 8.519-10.181 14.047-18.032 16.568-3.865 1.241-2.155 1.352 17.722 1.153 21.71-.218 22.066-.256 27-2.885 10.64-5.668 16.565-14.883 17.282-26.88.375-6.271.071-8.428-1.804-12.786-1.241-2.884-3.297-6.063-4.571-7.064l-2.314-1.821 2.936-2.812c4.592-4.4 6.309-10.118 5.766-19.206-.702-11.751-5.969-20.112-16.072-25.51-4.079-2.18-5.269-2.267-34.973-2.56L80 49.893zm-41.976 1.38c.027 21.694.598 25.569 5.192 35.222 5.618 11.805 20.619 24.154 32.284 26.576 2.468.512 2.094.086-2.112-2.404-5.96-3.529-9.872-7.853-12.796-14.144-1.952-4.198-2.113-6.531-2.408-34.75L57.868 69H38zM.32 101c0 3.575.182 5.037.403 3.25s.222-4.713 0-6.5C.502 95.963.32 97.425.32 101"/><path fill-opacity=".173" fill-rule="evenodd" d="M78.82 3.913C49.777 10.234 24.715 29.814 11.511 56.5 4.314 71.046 1.943 80.254 1.27 96.273c-.608 14.454.601 24.115 4.462 35.674 5.187 15.53 12.629 27.566 24.192 39.129C42.522 183.674 57.17 192.138 75 197.124c7.489 2.093 10.523 2.368 25.5 2.307 14.165-.057 18.298-.427 24.784-2.218 37.974-10.483 66.552-42.105 72.745-80.493 1.748-10.834.766-31.005-2.007-41.22-4.565-16.822-13.442-32.072-25.946-44.576-12.473-12.473-28.19-21.623-44.792-26.077-11.374-3.051-34.593-3.518-46.464-.934m8.798 7.224c-8.724 1.119-23.316 5.976-31.229 10.394C24.584 39.286 5.87 74.954 9.875 110.18c4.097 36.024 27.683 65.358 61.702 76.737 47.266 15.809 98.422-9.905 114.332-57.471 6.332-18.932 6.332-37.96 0-56.892-11.137-33.296-40.215-57.176-74.883-61.498-9.581-1.194-13.587-1.18-23.408.081M80 86.484c0 38.982.225 40.961 4.945 43.486 3.273 1.752 7.777 1.173 10.749-1.382l2.806-2.412.5-28.338.5-28.338 17-.259c15.538-.237 17.282-.087 20.275 1.75 5.844 3.587 6.85 10.158 2.329 15.219-2.702 3.024-3.404 3.266-10.5 3.625l-7.604.384v18.353c0 15.929-.265 19.062-2.008 23.72-2.81 7.51-8.199 13.408-15.434 16.891L97.5 152.1l20.5-.316c20.05-.31 20.624-.378 26.161-3.081 9.835-4.802 16.138-13.891 17.466-25.183.879-7.481-1.137-14.972-5.257-19.532l-3.36-3.719 3.423-3.629c8.167-8.66 6.79-27.537-2.734-37.479-1.76-1.837-5.449-4.537-8.199-6l-5-2.661-30.25-.316L80 49.868zM38.241 90.75c.482 22.576 1.279 26.623 7.256 36.847C50.794 136.659 63.65 146.88 73 149.464c2.247.621 2.193.495-.539-1.244-5.215-3.319-11.37-11.175-12.966-16.548C58.322 127.721 58 120.54 58 98.318V70H37.798z"/></svg>