<svg xmlns="http://www.w3.org/2000/svg" width="250" height="250" version="1.1" fill="#000000"><path fill-opacity=".424" d="M 169.128 8.275 C 167.273 12.799, 165.107 17.850, 164.313 19.500 C 163.520 21.150, 161.292 26.298, 159.362 30.939 L 155.853 39.378 156.579 113.689 C 157.094 166.417, 157.623 188.034, 158.402 188.118 C 160.835 188.381, 162.597 187.680, 167.695 184.419 C 178.588 177.450, 185.349 167.947, 187.912 156 C 188.758 152.058, 189.048 132.726, 188.937 87.755 L 188.782 25.010 182.141 12.522 C 178.147 5.013, 174.902 0.038, 174 0.043 C 173.064 0.047, 171.231 3.145, 169.128 8.275 M 18.054 9.900 C 17.419 11.085, 17 19.582, 17 31.243 C 17 46.730, 17.295 51.007, 18.468 52.559 C 20.499 55.244, 20.522 66.322, 18.500 68 C 17.215 69.066, 17.007 74.494, 17.049 105.872 C 17.075 126.018, 17.481 146.775, 17.949 152 C 19.017 163.903, 21.775 179.442, 23.606 183.872 C 24.373 185.727, 25 187.914, 25 188.733 C 25 190.604, 31.718 207.318, 34.352 212 C 43.152 227.642, 55.325 240.372, 67.175 246.326 C 75.334 250.426, 80.213 250.925, 80.820 247.723 C 81.032 246.605, 78.375 242.989, 73.652 237.968 C 56.820 220.076, 46.565 199.117, 42.354 174 C 40.817 164.836, 40.523 153.639, 40.046 86 L 39.500 8.500 29.304 8.216 C 20.024 7.957, 19.012 8.108, 18.054 9.900 M 214.123 14.780 C 213.490 18, 211.965 22.623, 210.736 25.053 C 208.465 29.540, 201.978 34.905, 198.750 34.967 C 195.293 35.032, 196.987 37.742, 200.873 38.364 C 208.037 39.509, 212.458 46.417, 214.586 59.789 C 214.961 62.147, 215.745 63.918, 216.328 63.724 C 216.911 63.530, 217.946 60.058, 218.628 56.009 C 220.111 47.208, 223.635 41.580, 229.794 38.175 C 232.107 36.896, 234 35.411, 234 34.874 C 234 34.337, 232.313 33.203, 230.250 32.353 C 222.815 29.290, 219.355 24.391, 218.211 15.306 C 217.257 7.733, 215.553 7.514, 214.123 14.780 M 68.021 25.932 C 61.840 33.045, 56.130 39.798, 55.330 40.939 C 53.161 44.036, 53.956 164.575, 56.204 173.500 C 66.715 215.223, 91.048 239.200, 127.858 244.106 C 138.771 245.561, 161.469 244.708, 169.500 242.542 C 199.731 234.386, 222.483 207.798, 229.673 172.223 C 231.749 161.952, 232.873 73.756, 230.957 71.448 C 229.378 69.546, 203.073 69.327, 201.200 71.200 C 200.305 72.095, 200 83.034, 200 114.254 C 200 156.102, 200 156.110, 197.445 165.196 C 190.628 189.441, 177.573 203.230, 157.385 207.507 C 148.627 209.362, 144.077 209.362, 134.338 207.507 C 111.160 203.091, 93.571 184.466, 87.084 157.470 C 85.899 152.536, 84.495 147.719, 83.964 146.764 C 82.749 144.575, 82.692 131.308, 83.895 130.565 C 84.785 130.015, 84.334 19.687, 83.423 15.250 C 82.492 10.710, 79.363 12.880, 68.021 25.932" stroke="none" fill="#000000" fill-rule="evenodd"/><path fill-opacity=".251" d="M 171.019 5.250 C 169.794 8.138, 168.195 11.850, 167.466 13.500 C 166.737 15.150, 163.861 21.799, 161.076 28.276 L 156.013 40.052 156.990 105.276 C 157.527 141.149, 157.975 174.438, 157.984 179.250 C 158.003 189.821, 158.303 189.947, 168.029 183.481 C 175.645 178.418, 179.987 173.906, 183.081 167.841 C 188.458 157.302, 188.344 158.746, 188.745 96.045 C 189.026 51.974, 188.824 37.040, 187.922 35.354 C 187.185 33.977, 186.979 31.534, 187.385 28.996 C 187.984 25.245, 187.448 23.749, 181.447 12.436 C 177.818 5.596, 174.489 0, 174.048 0 C 173.607 0, 172.244 2.362, 171.019 5.250 M 19.670 9.252 C 18.133 10.376, 17.986 12.637, 18.229 31.394 C 18.468 49.794, 18.703 52.412, 20.202 53.357 C 21.138 53.947, 22.263 54.071, 22.702 53.634 C 23.141 53.196, 23.639 44.099, 23.809 33.419 L 24.119 14 29.559 14 L 35 14 35.018 89.250 C 35.038 169.277, 35.414 176.925, 39.994 190.405 C 41.097 193.653, 42 196.715, 42 197.210 C 42 200.825, 52.906 221.301, 59.804 230.638 L 66.107 239.170 61.804 236.175 C 45.350 224.724, 33.716 203.073, 26.513 170.500 C 23.867 158.532, 23.859 158.380, 23.801 113.851 C 23.769 89.294, 23.364 68.594, 22.900 67.851 C 22.258 66.822, 21.633 66.764, 20.278 67.610 C 18.617 68.647, 18.500 71.647, 18.500 113.110 C 18.500 160.232, 18.708 162.991, 23.688 182 C 30.200 206.852, 42.152 227.636, 56.262 238.641 C 62.434 243.456, 74.820 250, 77.760 250 C 82.120 250, 81.141 246.893, 74.594 239.953 C 58.148 222.518, 48.391 204.212, 42.909 180.500 C 40.612 170.568, 40.594 169.950, 40.243 90.025 C 39.976 29.033, 39.601 9.366, 38.695 8.790 C 36.684 7.512, 21.547 7.879, 19.670 9.252 M 165.733 23.806 C 161.611 34.211, 160.304 38.570, 161.149 39.092 C 162.622 40.002, 171.027 41.306, 171.618 40.716 C 171.857 40.477, 171.928 33.299, 171.776 24.766 L 171.500 9.251 165.733 23.806 M 214.651 14.530 C 213.627 21.998, 210.194 28.684, 205.677 32.006 C 203.438 33.653, 200.795 35, 199.803 35 C 198.811 35, 198 35.675, 198 36.500 C 198 37.496, 198.996 38, 200.965 38 C 207.434 38, 213.325 46.407, 214.629 57.498 C 214.984 60.524, 215.636 63, 216.076 63 C 216.517 63, 217.194 60.862, 217.581 58.250 C 219.145 47.689, 222.863 41.131, 229.084 37.957 C 231.238 36.858, 233 35.540, 233 35.026 C 233 34.513, 231.088 33.238, 228.750 32.192 C 221.998 29.171, 218.923 24.411, 217.482 14.750 C 216.588 8.764, 215.453 8.675, 214.651 14.530 M 69.806 24.750 C 64.534 30.663, 58.933 37.048, 57.360 38.941 L 54.500 42.382 54.190 95.941 C 53.854 154.192, 54.464 165.705, 58.672 180.500 C 70.444 221.886, 101.449 245.092, 144.822 244.980 C 187.862 244.869, 217.027 220.380, 228.758 174.500 C 230.001 169.639, 230.372 159.246, 230.714 119.750 L 231.136 71 216.142 71 L 201.148 71 200.745 114.750 C 200.323 160.555, 200.397 159.745, 195.367 173.202 C 191.058 184.728, 182.363 196.140, 173.313 202.144 C 158.482 211.983, 133.793 211.611, 116.063 201.282 C 101.351 192.710, 87.944 171.461, 85.362 152.623 C 85.002 149.998, 84.132 147.275, 83.428 146.571 C 81.733 144.875, 81.218 131.761, 82.826 131.225 C 84.159 130.780, 84.491 67.970, 83.342 33.661 C 82.762 16.346, 82.487 14, 81.038 14 C 80.133 14, 75.079 18.837, 69.806 24.750" stroke="none" fill="#000000" fill-rule="evenodd"/><path fill-opacity=".227" d="M 172.313 2.750 C 171.667 4.263, 167.914 13.071, 163.974 22.324 L 156.810 39.149 157.548 113.104 C 157.954 153.779, 158.585 187.243, 158.950 187.469 C 161.709 189.174, 178.215 175.933, 182.472 168.600 C 187.829 159.372, 188 157.048, 188 93.606 C 188 51.183, 187.692 35, 186.885 35 C 186.272 35, 183.570 36.198, 180.880 37.662 C 178.191 39.126, 175.756 40.089, 175.470 39.803 C 175.183 39.517, 175.073 31.975, 175.225 23.044 L 175.500 6.805 181 17.341 C 184.292 23.646, 186.866 27.515, 187.412 26.976 C 187.959 26.437, 186.488 22.558, 183.737 17.288 C 176.850 4.092, 174.553 0.017, 173.994 0.008 C 173.716 0.004, 172.959 1.237, 172.313 2.750 M 165.565 23.044 C 161.978 32.100, 159.999 38.365, 160.565 38.878 C 161.739 39.943, 171.779 41.887, 172.481 41.186 C 173.307 40.360, 173.082 7.997, 172.250 8.029 C 171.838 8.045, 168.829 14.802, 165.565 23.044 M 18.917 12.715 C 18.695 22.745, 19.123 52.456, 19.494 52.827 C 19.725 53.058, 20.608 52.981, 21.457 52.655 C 22.775 52.149, 23 49.213, 23 32.531 L 23 13 28.940 13 L 34.880 13 35.274 91.750 L 35.668 170.500 38.282 181.590 C 43.321 202.963, 51.021 219.128, 63.409 234.336 C 66.023 237.545, 67.965 240.368, 67.724 240.610 C 66.993 241.341, 55.743 232.611, 51.892 228.325 C 39.585 214.626, 31.566 196.760, 25.262 169 C 24.116 163.956, 23.679 151.919, 23.309 115.250 C 22.860 70.774, 22.727 68, 21.050 68 C 19.448 68, 19.195 69.571, 18.546 83.538 C 17.662 102.552, 18.708 154.912, 20.164 164.500 C 26.123 203.753, 43.901 233.814, 68.304 245.903 C 72.853 248.156, 77.345 250, 78.287 250 C 81.935 250, 79.905 245.678, 72.619 237.933 C 57.384 221.738, 48.232 204.087, 42.313 179.480 C 40.838 173.350, 40.565 162.572, 40.067 91 L 39.500 9.500 29.250 9.215 L 19 8.930 18.917 12.715 M 215 12.841 C 215 17.379, 212.396 24.791, 209.443 28.664 C 207.944 30.629, 204.643 33.168, 202.108 34.305 L 197.500 36.373 201.279 37.293 C 208.510 39.052, 213.556 46.458, 214.649 56.915 C 214.999 60.262, 215.608 63, 216.003 63 C 216.398 63, 216.988 60.750, 217.313 58.001 C 218.447 48.430, 223.850 39.547, 230.117 36.951 C 233.637 35.494, 233.785 34.414, 230.577 33.609 C 224.208 32.010, 217.030 21.504, 217.010 13.750 C 217.004 11.688, 216.550 10, 216 10 C 215.450 10, 215 11.278, 215 12.841 M 68 27.024 C 61.675 34.202, 55.958 41.295, 55.295 42.787 C 53.800 46.152, 53.551 138.146, 54.987 156.598 C 58.065 196.166, 77.720 226.461, 108 238.307 C 124.975 244.948, 150.177 246.546, 167.470 242.078 C 196.985 234.452, 217.006 213.869, 226.439 181.454 C 230.435 167.723, 231.102 157.150, 230.788 112.500 L 230.500 71.500 216 71.500 L 201.500 71.500 200.916 115.500 C 200.588 140.153, 199.887 161.050, 199.322 163.025 C 195.337 176.936, 189.658 187.313, 181.536 195.517 C 171.776 205.377, 161.516 209.308, 145.500 209.322 C 136.100 209.331, 133.424 208.946, 127.102 206.675 C 117.097 203.082, 111.218 199.113, 103.415 190.685 C 94.072 180.594, 85 161.039, 85 150.990 C 85 148.189, 83.377 146, 81.300 146 C 79.526 146, 79.626 151.715, 81.534 159.356 C 83.313 166.477, 83.379 166.645, 89.011 178.435 C 95.019 191.010, 105.905 202.032, 118 207.786 C 129.482 213.248, 135.253 214.344, 149.792 213.826 C 161.578 213.406, 162.056 213.298, 170.181 209.231 C 188.348 200.137, 200.438 182.653, 204.570 159.500 C 205.640 153.503, 205.998 142.047, 205.999 113.750 L 206 76 216.072 76 L 226.144 76 225.776 121.250 L 225.409 166.500 222.589 177 C 219.544 188.339, 213.904 200.970, 208.480 208.598 C 188.441 236.784, 153.732 246.514, 113 235.363 C 108.002 233.995, 95.548 226.857, 90.228 222.312 C 77.723 211.628, 67.287 193.965, 62.275 175 L 59.500 164.500 59.500 104.445 L 59.500 44.390 68.500 34.165 L 77.500 23.940 78.264 70.220 C 79.196 126.684, 79.467 131, 82.085 131 C 83.926 131, 83.995 129.999, 83.863 105.250 C 83.787 91.088, 83.450 64.881, 83.113 47.012 C 82.589 19.249, 82.282 14.485, 81 14.250 C 80.134 14.091, 74.641 19.488, 68 27.024 M 214.107 26.123 C 213.508 27.841, 211.415 30.759, 209.455 32.607 L 205.893 35.967 209.406 39.052 C 211.339 40.749, 213.478 43.681, 214.161 45.569 C 214.843 47.456, 215.650 49, 215.953 49 C 216.256 49, 217.606 46.921, 218.954 44.380 C 220.302 41.839, 222.628 38.857, 224.122 37.752 L 226.839 35.743 221.919 30.824 C 219.214 28.118, 217 25.251, 217 24.452 C 217 21.882, 215.229 22.905, 214.107 26.123 M 179.753 41.942 L 175.114 44.884 175.685 89.192 C 176.313 137.968, 175.281 161.705, 172.085 171.973 C 171.054 175.288, 170.560 178, 170.988 178 C 172.780 178, 179.480 169.237, 182.379 163.105 L 185.500 156.500 185.815 97.750 C 185.990 64.924, 185.746 39, 185.260 39 C 184.783 39, 182.304 40.324, 179.753 41.942 M 159.705 112.652 C 160.016 151.618, 160.456 183.709, 160.683 183.965 C 161.672 185.078, 164.683 182.021, 166.853 177.699 C 171.350 168.744, 171.985 159.059, 171.993 99.386 L 172 44.272 167.750 43.649 C 165.412 43.307, 162.519 42.752, 161.320 42.415 L 159.139 41.803 159.705 112.652" stroke="none" fill="#000000" fill-rule="evenodd"/><path fill-opacity=".976" d="M 173.458 1.067 C 173.050 1.728, 172.806 11.208, 172.916 22.134 C 173.142 44.643, 173.842 43.105, 164.500 40.645 C 158.496 39.064, 158.491 39.547, 164.670 24.500 C 167.154 18.450, 169.404 12.600, 169.670 11.500 C 170.291 8.925, 159.302 33.526, 158.056 37.500 C 156.913 41.145, 158.120 185.456, 159.303 186.638 C 160.522 187.855, 168.112 183.435, 174.351 177.875 C 181.205 171.766, 185.580 163.316, 186.969 153.500 C 188.032 145.994, 188.420 36.754, 187.388 35.721 C 187.051 35.385, 184.331 36.489, 181.342 38.176 C 178.354 39.862, 175.694 41.027, 175.430 40.764 C 175.167 40.500, 175.075 32.458, 175.226 22.892 L 175.500 5.500 180.794 15.750 C 183.706 21.388, 186.514 26, 187.034 26 C 187.717 26, 176.451 2.917, 174.434 0.183 C 174.305 0.009, 173.866 0.407, 173.458 1.067 M 19.230 30.632 C 19.430 46.705, 19.819 52.441, 20.729 52.744 C 21.667 53.056, 22.021 48.462, 22.229 33.326 L 22.500 13.500 29.250 13.204 L 36 12.909 36 89.001 C 36 161.603, 36.095 165.625, 38.074 176.676 C 42.023 198.737, 50.413 217.523, 63.451 233.500 C 70.663 242.338, 70.539 242.141, 68.391 241.346 C 53.743 235.926, 37.264 213.135, 29.543 187.618 C 23.087 166.281, 22.723 162.575, 22.255 113.250 C 21.894 75.135, 21.603 68, 20.413 68 C 19.217 68, 19.001 74.860, 19.008 112.750 L 19.016 157.500 21.952 171.500 C 23.566 179.200, 26.020 188.789, 27.404 192.810 C 33.663 210.985, 45.791 229.878, 56.653 238.372 C 62.410 242.874, 77.518 250.416, 78.976 249.515 C 80.877 248.340, 80.022 246.874, 72.767 238.879 C 56.624 221.087, 47.567 203.693, 41.851 179.500 C 41.019 175.981, 40.496 150.072, 40.085 92 L 39.500 9.500 29.230 9.215 L 18.961 8.930 19.230 30.632 M 214.593 16.884 C 213.672 25.020, 209.544 31.099, 202.686 34.417 C 197.705 36.828, 197.625 36.928, 200.673 36.963 C 207.359 37.040, 213.558 45.474, 214.657 55.988 C 215.382 62.926, 217 64.080, 217 57.660 C 217 50.706, 222.008 41.785, 228.146 37.808 C 233.004 34.661, 233.084 34.533, 230.625 33.875 C 223.578 31.990, 217 22.893, 217 15.033 C 217 8.934, 215.348 10.203, 214.593 16.884 M 72.359 22.750 C 68.003 27.563, 62.315 34.024, 59.719 37.108 L 55 42.716 55.008 101.608 C 55.016 159.977, 55.037 160.602, 57.426 172 C 63.441 200.702, 79.600 224.016, 100.651 234.366 C 104.968 236.488, 109.235 238.595, 110.133 239.048 C 112.626 240.304, 125.397 242.731, 136.067 243.975 C 151.042 245.721, 169.666 242.602, 183.399 236.048 C 205.266 225.612, 219.818 205.713, 227.677 175.500 C 230.254 165.592, 230.282 165.076, 230.748 119.463 C 231.158 79.385, 231.025 73.266, 229.720 72.183 C 228.654 71.298, 224.507 71.020, 215.361 71.219 L 202.500 71.500 201.944 113 C 201.345 157.713, 200.876 162.226, 195.502 174.996 C 184.804 200.413, 163.901 212.759, 137.538 209.232 C 117.193 206.510, 101.884 194.696, 91.731 173.883 C 89.135 168.563, 86.648 161.686, 85.987 158 C 84.656 150.582, 82.956 146.440, 81.500 147.068 C 78.645 148.301, 83.158 165.347, 89.822 178.500 C 93.303 185.370, 96.171 189.290, 101.941 195.063 C 114.816 207.945, 127.322 213.197, 145.500 213.356 C 165.011 213.527, 176.874 207.949, 189.210 192.803 C 194.757 185.992, 197.974 179.794, 201.685 168.762 L 204.464 160.500 204.982 118 L 205.500 75.500 216 75.500 L 226.500 75.500 226.483 118.500 C 226.464 164.455, 226.059 169.579, 221.300 184 C 216.561 198.358, 210.385 208.612, 200.500 218.532 C 187.144 231.935, 174.240 237.996, 154.884 239.957 C 145.100 240.948, 129.149 240.217, 121.279 238.417 C 89.912 231.242, 65.608 203.295, 60.040 168 C 59.426 164.106, 59.012 137.954, 59.008 102.766 L 59 44.033 68.079 33.516 C 73.073 27.732, 77.573 23, 78.079 23 C 78.612 23, 79.058 33.628, 79.137 48.250 C 79.213 62.138, 79.550 86.325, 79.887 102 C 80.408 126.220, 80.722 130.500, 81.980 130.500 C 83.268 130.500, 83.428 124.853, 83.210 87 C 82.941 40.141, 82.150 14, 81 14 C 80.604 14, 76.716 17.938, 72.359 22.750 M 214.087 24.635 C 213.378 26.597, 211.036 29.964, 208.882 32.118 L 204.967 36.033 208.395 39.042 C 210.281 40.698, 212.651 44.064, 213.662 46.522 C 214.673 48.981, 215.769 50.994, 216.098 50.996 C 216.427 50.998, 217.533 49.087, 218.556 46.750 C 219.578 44.413, 222.234 40.753, 224.458 38.617 C 227.478 35.716, 228.121 34.605, 227 34.223 C 224.840 33.488, 218 26.160, 218 24.580 C 218 23.846, 217.410 22.755, 216.689 22.157 C 215.670 21.311, 215.089 21.865, 214.087 24.635 M 180.500 40.807 L 175.500 43.506 174.921 102.003 C 174.328 162, 174.065 166.025, 170.060 176.389 C 168.263 181.041, 169.689 180.704, 174.965 175.230 C 186.158 163.618, 186.174 163.502, 185.805 94.803 L 185.500 38.107 180.500 40.807 M 159.001 73.143 C 159.004 124.744, 160.221 185, 161.261 185 C 163.140 185, 167.659 179.081, 168.872 175.031 C 172.425 163.174, 173 152.429, 173 97.908 L 173 44.142 167.276 42.953 C 164.127 42.300, 160.977 41.545, 160.276 41.276 C 159.258 40.885, 159 47.321, 159.001 73.143" stroke="none" fill="#000000" fill-rule="evenodd"/></svg>