<svg xmlns="http://www.w3.org/2000/svg" width="64" height="64" fill="#000000"><path fill="#000000" d="M32 64c17.673 0 32-14.327 32-32C64 14.327 49.673 0 32 0 14.327 0 0 14.327 0 32c0 17.673 14.327 32 32 32Z"/><path fill="#000000" d="M45.687 30.686a4.336 4.336 0 0 0-3.66 1.987c-1.87-.786-3.787-1.622-5.73-2.39a2.025 2.025 0 0 1-.492-.265 5.69 5.69 0 0 0-.536-4.662c1.868-1.385 3.865-2.895 5.914-4.342.57.48 1.31.77 2.119.77 1.795 0 3.25-1.42 3.25-3.173 0-1.753-1.455-3.173-3.25-3.173-1.796 0-3.25 1.42-3.25 3.173 0 .506.122.98.338 1.405-.04.04-.081.077-.121.11-1.776 1.374-3.625 2.657-5.446 3.976a2.105 2.105 0 0 1-.352.21 5.995 5.995 0 0 0-4.635-1.836c.038-1.14-.635-2.328-.256-3.46a2.694 2.694 0 0 0 1.33-2.309C30.911 15.212 29.67 14 28.135 14c-1.533 0-2.775 1.213-2.775 2.71 0 1.464 1.19 2.654 2.677 2.705.213.396.257.868.3 1.385.043.543.07 1.099.21 1.62.025.09.039.17.048.247-2.542.66-4.414 2.921-4.414 5.611 0 .582.09 1.143.25 1.672-.062.029-.13.055-.203.081-.881.296-1.787.556-2.607.972-.19.096-.361.158-.518.186a4.392 4.392 0 0 0-3.728-2.042C14.959 29.147 13 31.06 13 33.42c0 2.36 1.96 4.272 4.376 4.272 2.416 0 4.376-1.912 4.376-4.272 0-.376-.056-.74-.148-1.087.12-.086.267-.156.446-.217.915-.304 1.789-.729 2.71-1.013.045-.014.099-.024.153-.033a5.97 5.97 0 0 0 5.651 2.998c.007.02.018.04.023.057.363 1.403.567 2.847.939 4.248.123.46.125.803-.016 1.092-2.107.777-3.605 2.764-3.605 5.093 0 3.007 2.498 5.443 5.576 5.443 3.08 0 5.575-2.438 5.575-5.443 0-3.007-2.497-5.443-5.575-5.443-.146 0-.287.007-.43.018-.149-.136-.245-.327-.299-.607-.282-1.462-.6-2.915-.877-4.377a2.233 2.233 0 0 1-.038-.306 5.938 5.938 0 0 0 3.448-2.668c1.99.812 3.966 1.654 5.925 2.536a.854.854 0 0 1 .278.224c-.074.31-.119.632-.119.965 0 2.326 1.933 4.213 4.316 4.213S50 37.225 50 34.899c0-2.327-1.93-4.213-4.313-4.213Z"/></svg>