<svg xmlns="http://www.w3.org/2000/svg" width="64" height="64" version="1.1" fill="#000000"><path fill-opacity=".404" d="M 22.300 1.862 C 11.528 5.584, 4.524 12.949, 1.339 23.905 C -2.808 38.171, 4.814 54.363, 18.661 60.702 C 36.140 68.704, 57.103 59.480, 62.189 41.548 C 62.821 39.321, 63.711 37.072, 64.169 36.550 C 65.143 35.437, 65.315 25.352, 64.343 26.324 C 63.982 26.685, 62.933 24.757, 62.014 22.040 C 58.538 11.772, 51.049 4.577, 40.614 1.478 C 34.095 -0.458, 28.686 -0.344, 22.300 1.862 M 0.300 32 C 0.300 35.025, 0.487 36.263, 0.716 34.750 C 0.945 33.237, 0.945 30.762, 0.716 29.250 C 0.487 27.738, 0.300 28.975, 0.300 32" stroke="none" fill="#000000" fill-rule="evenodd"/><path fill-opacity=".434" d="M 24.081 1.537 C 17.074 3.488, 12.992 6.066, 8.083 11.643 C -2.086 23.196, -1.863 41.263, 8.593 52.892 C 13.529 58.382, 18.853 61.359, 26.750 63.045 C 40.919 66.070, 57.569 56.092, 61.583 42.171 C 62.482 39.052, 63.618 35.719, 64.109 34.764 C 65.327 32.390, 65.246 27.730, 64 28.500 C 63.450 28.840, 63 28.272, 63 27.237 C 63 18.644, 52.746 5.731, 43.490 2.669 C 36.004 0.193, 30.141 -0.149, 24.081 1.537 M 22.551 20.957 C 16.232 25.123, 14.364 33.316, 18.184 40.114 C 20.530 44.288, 23 45.256, 23 42 C 23 40.900, 22.397 40, 21.661 40 C 18.311 40, 16.927 30.976, 19.510 25.980 C 21.624 21.893, 26 19.546, 26 22.500 C 26 23.325, 25.325 24, 24.500 24 C 23.675 24, 23 24.450, 23 25 C 23 25.550, 23.399 26, 23.886 26 C 25.281 26, 26.330 35.070, 25.079 36.321 C 23.248 38.152, 23.881 39.256, 26.478 38.759 C 28.302 38.411, 29.118 38.796, 29.569 40.218 C 30.226 42.287, 31.466 41.784, 31.487 39.441 C 31.516 36.275, 33.584 38.142, 34.813 42.444 L 36.127 47.038 39.202 45.269 C 42.749 43.228, 45.742 38.836, 46.570 34.453 C 47.772 28.097, 40.999 18.139, 36.244 19.270 C 34.871 19.597, 35.085 19.926, 37.250 20.818 C 40.687 22.233, 43.991 27.516, 43.996 31.602 C 44.001 35.157, 40.132 41.500, 37.960 41.500 C 35.909 41.500, 35.544 37.313, 37.430 35.427 C 39.539 33.318, 39.412 30.403, 37.141 28.807 C 36.119 28.088, 35.332 26.415, 35.391 25.089 C 35.475 23.226, 34.828 22.495, 32.540 21.870 C 30.526 21.319, 29.328 21.450, 28.790 22.280 C 28.244 23.123, 27.810 22.805, 27.383 21.250 C 26.634 18.515, 26.288 18.494, 22.551 20.957 M 28.446 25.087 C 27.416 26.755, 29.733 28.667, 31.113 27.287 C 32.267 26.133, 31.545 24, 30 24 C 29.515 24, 28.816 24.489, 28.446 25.087 M 0.232 32 C 0.232 33.925, 0.438 34.712, 0.689 33.750 C 0.941 32.788, 0.941 31.212, 0.689 30.250 C 0.438 29.288, 0.232 30.075, 0.232 32 M 30 32.500 C 30 35.291, 30.307 35.441, 33.029 33.985 C 35.341 32.747, 34.558 30, 31.893 30 C 30.540 30, 30 30.714, 30 32.500" stroke="none" fill="#000000" fill-rule="evenodd"/><path fill-opacity=".465" d="M 25.384 1.412 C 12.340 4.577, 3.877 13.496, 1.101 27 C -0.878 36.626, 3.825 49.411, 11.749 55.947 C 24.168 66.190, 42.739 65.357, 54.048 54.048 C 58.556 49.539, 63 40.591, 63 36.022 C 63 34.975, 63.450 33.840, 64 33.500 C 64.550 33.160, 65 31.982, 65 30.882 C 65 29.782, 64.606 29.125, 64.125 29.423 C 63.644 29.720, 62.957 28.131, 62.598 25.890 C 60.693 13.976, 51.175 4.427, 38.147 1.360 C 31.563 -0.189, 31.988 -0.191, 25.384 1.412 M 31 17.885 C 31 18.433, 31.450 19.160, 32 19.500 C 32.550 19.840, 33 20.597, 33 21.181 C 33 21.809, 32.318 21.682, 31.337 20.872 C 29.926 19.707, 29.604 19.712, 29.204 20.901 C 28.861 21.921, 28.414 21.708, 27.563 20.118 L 26.394 17.934 23.039 20.217 C 17.651 23.883, 15.615 27.355, 15.615 32.878 C 15.615 35.830, 16.302 38.812, 17.349 40.410 C 18.303 41.866, 18.813 43.494, 18.483 44.028 C 17.810 45.116, 20.003 45.320, 22.418 44.393 C 24.670 43.529, 24.380 41.702, 21.500 38.595 C 18.754 35.632, 18.207 30.834, 20.133 26.608 C 21.177 24.316, 21.391 24.249, 22.883 25.744 C 24.059 26.924, 24.474 29.109, 24.405 33.753 C 24.313 39.971, 24.372 40.123, 26.655 39.550 C 28.344 39.127, 29 39.387, 29 40.481 C 29 42.881, 31.818 42.248, 32.252 39.750 C 32.545 38.065, 32.969 38.693, 33.940 42.250 C 35.522 48.041, 37.400 48.375, 42.316 43.738 C 49.276 37.174, 49.141 28.070, 41.988 21.608 C 37.331 17.400, 34.469 16.817, 35.333 20.250 C 35.853 22.317, 35.700 22.272, 33.450 19.694 C 32.102 18.151, 31 17.337, 31 17.885 M 37.258 22.715 C 36.390 23.027, 36.304 23.700, 36.973 24.949 C 37.499 25.933, 37.710 26.957, 37.441 27.226 C 37.172 27.495, 37.638 28.284, 38.476 28.980 C 40.550 30.702, 40.393 33.683, 38.124 35.626 C 36.373 37.125, 36.256 41, 37.962 41 C 39.363 41, 42.069 37.247, 42.994 34.020 C 44.438 28.986, 40.640 21.500, 37.258 22.715 M 29 26 C 29 26.550, 29.423 27, 29.941 27 C 30.459 27, 31.160 26.550, 31.500 26 C 31.840 25.450, 31.416 25, 30.559 25 C 29.702 25, 29 25.450, 29 26 M 0.158 32 C 0.158 33.375, 0.385 33.938, 0.662 33.250 C 0.940 32.563, 0.940 31.438, 0.662 30.750 C 0.385 30.063, 0.158 30.625, 0.158 32 M 30.625 30.798 C 30.354 31.237, 30.534 32.245, 31.024 33.039 C 31.699 34.131, 32.199 34.201, 33.071 33.329 C 33.706 32.694, 33.923 31.685, 33.554 31.087 C 32.764 29.809, 31.324 29.667, 30.625 30.798" stroke="none" fill="#000000" fill-rule="evenodd"/><path fill-opacity=".326" d="M 26.500 1.426 C 18.663 3.317, 14.370 5.814, 9.163 11.512 C -1.905 23.622, -1.905 40.378, 9.163 52.488 C 14.428 58.248, 18.694 60.699, 26.750 62.588 C 36.308 64.830, 47.457 60.735, 55.180 52.145 C 59.362 47.494, 63 39.491, 63 34.944 C 63 33.940, 63.450 32.840, 64 32.500 C 64.550 32.160, 65 31.432, 65 30.882 C 65 30.332, 64.606 30.125, 64.125 30.423 C 63.644 30.720, 62.959 29.147, 62.604 26.927 C 60.918 16.382, 51.737 5.684, 41.856 2.750 C 33.529 0.278, 31.855 0.133, 26.500 1.426 M 26.590 11.855 C 26.288 12.342, 24.795 12.996, 23.271 13.306 C 19.827 14.007, 12 21.410, 12 23.966 C 12 25.006, 11.438 26.452, 10.750 27.179 C 9.989 27.983, 9.596 30.651, 9.747 34 C 10.127 42.480, 10.512 44.147, 12.323 45.161 C 13.245 45.677, 14 46.642, 14 47.306 C 14 49.702, 23.708 53.077, 32.358 53.687 C 39.410 54.185, 41.214 53.986, 43.861 52.423 C 45.587 51.403, 47 50.216, 47 49.784 C 47 49.353, 47.675 49, 48.500 49 C 49.325 49, 50 48.395, 50 47.655 C 50 46.915, 50.889 45.505, 51.976 44.521 C 53.063 43.538, 53.731 42.374, 53.460 41.935 C 53.189 41.497, 53.379 40.884, 53.881 40.574 C 54.738 40.044, 54.691 28.440, 53.818 24.874 C 53.111 21.992, 47.984 16.358, 44.190 14.294 C 41.892 13.043, 38.244 12.201, 34.520 12.060 C 31.231 11.936, 28.225 11.639, 27.839 11.401 C 27.454 11.162, 26.891 11.367, 26.590 11.855" stroke="none" fill="#000000" fill-rule="evenodd"/></svg>