<!-- Generated by IcoMoon.io -->
<svg version="1.1" xmlns="http://www.w3.org/2000/svg" width="32" height="32" viewBox="0 0 32 32" fill="#000000">
<title>uft</title>
<path d="M10.903 4.783c-0.306 0.11-0.762 0.347-1.014 0.527s-0.581 0.483-0.733 0.673c-0.152 0.19-2.191 3.812-4.533 8.049s-4.347 7.966-4.457 8.287c-0.151 0.439-0.189 0.786-0.154 1.396 0.035 0.612 0.121 0.964 0.352 1.433 0.168 0.342 0.524 0.839 0.792 1.105s0.706 0.59 0.974 0.719c0.268 0.129 0.753 0.283 1.077 0.343 0.381 0.070 3.844 0.098 9.759 0.080l9.169-0.029 0.712-0.349c0.432-0.212 0.872-0.532 1.118-0.813 0.223-0.255 2.122-3.45 4.221-7.101 2.404-4.184 3.815-6.743 3.815-6.922 0-0.156-0.073-0.424-0.161-0.595s-0.269-0.372-0.4-0.446c-0.175-0.1-1.173-0.15-3.727-0.189l-3.488-0.053 1.35-2.337c1.148-1.988 1.351-2.406 1.354-2.797 0.004-0.398-0.049-0.509-0.394-0.823l-0.399-0.364-7.338 0.004c-6.904 0.004-7.37 0.016-7.894 0.203z"/>
</svg>
