<svg xmlns="http://www.w3.org/2000/svg" width="200" height="200" fill="#000000"><path fill-opacity=".161" fill-rule="evenodd" d="M121.5 8.055c-7.15.394-29.194.768-48.986.831L36.529 9l-5.477 2.75c-3.012 1.512-8.203 5.293-11.536 8.401-8.687 8.102-10.563 14.271-11.281 37.09l-.531 16.871 3.761 3.852 3.761 3.851-2.623 7.875c-3.823 11.481-4.74 21.869-4.403 49.929l.3 25.041 4.227 8.526c5.056 10.198 10.476 16.08 18.118 19.663L36.5 195.5l51.5.332c52.965.342 70.652-.432 80.353-3.518 3.4-1.081 6.898-3.472 11.689-7.993 12.16-11.471 12.415-13.586 11.226-93.321-.786-52.757-.828-53.562-3.055-58-3.016-6.01-4.586-8.637-6.421-10.743-.842-.966-1.722-2.378-1.955-3.137-.258-.84-5.851 4.343-14.299 13.25-7.632 8.046-14.362 14.597-14.957 14.556-.594-.041-2.732-.828-4.75-1.75-3.317-1.515-3.514-1.817-2.059-3.143 1.438-1.312 1.535-1.259.914.5-.488 1.38.104 1.071 1.981-1.033 1.472-1.65 3.386-2.881 4.254-2.736.869.146.328-.438-1.2-1.297-2.594-1.458-2.994-1.42-6 .568l-3.221 2.13 3-2.569c1.65-1.414 10.298-7.638 19.219-13.833 8.92-6.195 16.225-11.488 16.234-11.763s-.384-1.132-.873-1.905c-1.726-2.726-27.359-3.651-56.58-2.04m2.495 11.537C115.732 25.757 107 33.88 107 35.401c0 .537.927-.019 2.06-1.235 1.132-1.216 2.552-1.906 3.154-1.534.602.373.83.249.506-.275-.798-1.292.053-2.342 5.03-6.217 4.882-3.8 5.342-3.674 1.656.454-3.19 3.574-7.383 12.134-7.396 15.101-.006 1.302-1.844 3.914-4.521 6.423-14.823 13.893-13.344 36.85 2.991 46.423 3.167 1.856 6.812 2.816 13.553 3.569 11.543 1.288 15.481 3.625 19.815 11.756 3.624 6.799 5.711 8.858 10.836 10.685 2.099.749 3.178 1.381 2.399 1.405s-1.14.32-.802.658 2.167-.346 4.066-1.519c5.787-3.577 8.219-12.522 5.267-19.377-.762-1.77-8.625-13.118-17.473-25.218-10.898-14.904-16.928-24.112-18.693-28.548l-2.605-6.548 2.174-6.452C130.907 29.344 133.01 14 131.889 14c-.219 0-3.772 2.516-7.894 5.592m18.877 5.158c-1.269 1.619-1.222 1.64.628.283 1.1-.807 2.188-1.594 2.417-1.75s-.054-.283-.628-.283-1.662.788-2.417 1.75m-59.53 4.729c-23.696 4.3-45.33 18.022-57.554 36.504L22.8 70.5l3.1-3.386c1.705-1.862 3.1-3.805 3.1-4.318s1.237-.066 2.75.993 3.397 1.699 4.188 1.422 4.935-3.524 9.208-7.217c4.272-3.692 10.893-8.6 14.711-10.908C67.486 42.477 82.86 36.64 90.169 35.58c3.742-.544 5.191-1.363 7.301-4.129L100.102 28l-4.801.09c-2.641.05-8.022.675-11.959 1.389m20.518 9.271c-2.877 3.473-4.095 5.25-3.601 5.25.277 0 1.705-1.575 3.173-3.5 2.725-3.572 3.055-4.921.428-1.75m63.593 5.5L163.5 48.5l4.25-3.953c2.338-2.174 4.25-4.087 4.25-4.25 0-.757-.871.001-4.547 3.953m-58.028-2.121c-.509.868-1.6 1.833-2.425 2.145-1.333.505-1.333.575 0 .632 2.275.096 4.299-1.51 3.797-3.015-.349-1.047-.649-.995-1.372.238M98 47c-.589 1.1-.845 2-.57 2s.981-.9 1.57-2 .845-2 .57-2-.981.9-1.57 2m-3.528 6.721c-2.273 5.441-3.727 11.806-3.181 13.927.328 1.273.513.998.593-.877.187-4.389 4.27-15.794 5.404-15.093.585.362.716.138.307-.523-1.084-1.756-1.439-1.464-3.123 2.566m-63.413 13.39c.524.978 1.512 2.114 2.196 2.525.878.527.851.262-.091-.9-.735-.907-1.092-2.043-.794-2.526s-.089-.877-.86-.877c-1.034 0-1.152.467-.451 1.778m91.134 2.107c.25 3.433.83 4.504 3.115 5.75 2.691 1.468 2.91 1.416 5.214-1.231 3.802-4.369 1.451-8.737-4.702-8.737h-3.935zM154 67.378c0 .207.787.995 1.75 1.75 1.586 1.243 1.621 1.208.378-.378-1.307-1.666-2.128-2.195-2.128-1.372M91.158 79c0 1.375.227 1.938.504 1.25.278-.687.278-1.812 0-2.5-.277-.687-.504-.125-.504 1.25m-8.11 18.093c-.032 5.022.609 9.504 1.892 13.234 2.138 6.212 7.135 14.078 10.134 15.951 4.958 3.097-1.489 3.824-7.36.831l-3.709-1.891 3.183 4.019c6.037 7.623 15.627 13.234 32.878 19.237 5.739 1.997 12.459 4.764 14.934 6.149l4.5 2.518-4.5-4.071c-2.475-2.239-6.975-5.715-10-7.725-15.708-10.436-21.772-17.495-24.144-28.105-1.075-4.808-2.123-6.559-6.452-10.788-2.842-2.776-6.549-7.726-8.238-11l-3.07-5.952zM96 93.378c0 .207.787.995 1.75 1.75 1.586 1.243 1.621 1.208.378-.378C96.821 93.084 96 92.555 96 93.378m57.571 11.193c-1.842 1.843-1.942 2.867-.536 5.495 2.005 3.747 7.965 1.827 7.965-2.566 0-4.211-4.408-5.949-7.429-2.929m-32.803 2.154c1.797.222 4.497.218 6-.01 1.503-.229.032-.411-3.268-.405s-4.529.192-2.732.415m10.732 1.445c1.1.611 2.697 1.609 3.549 2.22.852.61.489.097-.806-1.14s-2.892-2.236-3.549-2.22-.294.53.806 1.14m8.594 7.83c2.897 4.49 2.907 4.501 2.901 3.417-.003-.505-1.165-2.267-2.583-3.917l-2.577-3z"/><path fill-opacity=".416" fill-rule="evenodd" d="M127.113 8.107c-11.212.439-21.112 1.019-22 1.287-.887.269 2.325.403 7.137.297 4.813-.105 8.75-.133 8.75-.061 0 .071-2.362 1.913-5.25 4.092l-5.25 3.962-12 .585c-18.783.916-34.147 5.118-48.623 13.3-15.626 8.833-31.487 25.059-39.238 40.142-1.645 3.201-1.639 3.222 1.79 6.651l3.44 3.44 4.798-8.549c5.374-9.574 15.357-20.846 24.648-27.831C58.421 35.57 75.293 29.383 92 28.302l9.5-.615-4.236 4.62c-2.331 2.54-5.632 6.886-7.336 9.656S86.292 47 85.636 47s-4.33 1.53-8.164 3.399c-10.728 5.231-25.069 16.16-31.915 24.323-5.576 6.648-6.316 7.189-9.321 6.81-2.448-.308-3.924.201-5.907 2.039-1.453 1.347-2.877 2.215-3.163 1.929-.286-.287.294-1.116 1.289-1.844 1.647-1.204 1.657-1.323.107-1.323-1.149 0-3.017 2.74-5.744 8.429-3.619 7.546-4.292 8.381-6.424 7.973-1.335-.255-2.895.163-3.549.952-.946 1.14-1.326 1.161-1.997.11C9.736 98.056 9.731 98.212 9.606 135L9.5 166.5l3.185 6.5c5.126 10.461 14.711 20 20.095 20 1.001 0 2.305.485 2.898 1.078.756.756 20.054.98 64.45.75l63.372-.328 6.655-3.256c9.131-4.467 16.128-12.183 18.753-20.68 1.993-6.455 2.615-21.824 2.231-55.183L191 103.263l-5.675 1.319c-3.122.725-6.047 1.09-6.5.81-.454-.281-.863.529-.91 1.799s-.641.059-1.321-2.691c-1.66-6.72-2.885-8.879-13.616-24-5.075-7.15-10.088-14.219-11.141-15.709l-1.915-2.71L167 44.087l17.079-17.995-2.29-3.534c-1.259-1.943-2.522-3.539-2.807-3.546s-6.585 6.4-14 14.238c-12.054 12.74-25.25 25.5-18.061 17.464 1.331-1.488 2.231-2.827 2-2.974-.232-.147-3.072-1.525-6.312-3.062s-5.491-3.15-5-3.585c.49-.434 9.778-7.008 20.641-14.608C169.113 18.886 178 12.076 178 11.353s-1.012-1.51-2.25-1.749c-4.129-.797-23.216-2.618-25.75-2.456-1.375.088-11.674.519-22.887.959M57.25 9.746c5.362.179 14.138.179 19.5 0 5.362-.18.975-.327-9.75-.327s-15.112.147-9.75.327m84.176 8.657c.047 5.324.44 8.179 1.074 7.793 1.901-1.16 21.003-14.527 21.95-15.36.523-.46-4.461-.836-11.074-.836h-12.024zm-15.222-.854c-11.622 7.827-25.207 22.578-30.589 33.216-8.465 16.731-6.922 35.141 3.952 47.177 5.557 6.152 10.313 8.204 20.904 9.02 10.812.833 14.359 2.478 18.582 8.615 3.943 5.731 8.261 8.414 13.549 8.419 8.071.008 14.399-7.027 14.39-15.996-.006-5.853-.598-6.895-15.8-27.789-17.764-24.414-19.773-27.474-22.081-33.643l-2.019-5.398 2.094-5.835C130.977 30.349 133.029 14 131.865 14c-.215 0-2.763 1.597-5.661 3.549M9.195 46.5c.02 1.65.244 2.204.498 1.231s.237-2.323-.037-3-.481.119-.461 1.769m.091 14c.008 2.75.202 3.756.432 2.236s.223-3.77-.014-5-.425.014-.418 2.764M77 61.778C59.697 71.44 47.115 91.46 45.508 111.884c-.585 7.431-.018 7.217 1.012-.382l.677-4.998 1.32 2.998c.847 1.924 1.35 2.371 1.402 1.248.044-.963.531-1.75 1.081-1.75s1-.775 1-1.723c0-1.415.277-1.326 1.557.5 2.124 3.033 4.443 2.861 4.443-.33 0-9.9 6.607-26.204 14.593-36.008 3.193-3.92 4.259-5.913 3.434-6.422-1.301-.804 1.506-2.482 3.609-2.157.996.154 2.857-2.781 2.138-3.37-.151-.124-2.299.906-4.774 2.288M77.5 64c-.34.55-.141 1 .441 1S79 64.55 79 64s-.198-1-.441-1-.719.45-1.059 1m44.5 4.309c0 5.628 4.053 8.743 7.885 6.059 4.541-3.18 1.597-9.368-4.456-9.368-3.214 0-3.429.207-3.429 3.309M72.642 82.863C68.47 92.159 66.579 106.253 69 110c.788 1.219.972 1.09.985-.691.008-1.205.494-2.487 1.079-2.848.72-.446.846.503.388 2.941-.446 2.377-.298 3.598.437 3.598.611 0 1.118-.787 1.126-1.75.014-1.513.162-1.547 1.095-.25.862 1.199.929 1.098.334-.5-1.619-4.352-1.673-20.903-.086-26.957.858-3.277 1.419-6.099 1.247-6.271-.172-.173-1.506 2.343-2.963 5.591m-34.183-3.796c-.363.586-.445 1.281-.183 1.543s.743-.218 1.069-1.067c.676-1.762.1-2.072-.886-.476m44.188 10.62c-.966.966-.781 8.333.361 14.353 1.366 7.203 5.018 14.876 9.377 19.701 1.988 2.201 3.615 4.284 3.615 4.63 0 1.333-3.859.529-8.331-1.735-2.568-1.3-4.669-2.173-4.669-1.94 0 .232 1.688 2.454 3.75 4.937 5.852 7.043 15.172 12.551 31.75 18.761 8.25 3.09 16.273 6.556 17.829 7.7 1.555 1.145 3.035 1.875 3.289 1.622.812-.813-9.154-9.165-17.803-14.92-12.697-8.449-18.229-15.436-20.913-26.412-.914-3.739-2.569-6.332-7.059-11.059-3.226-3.397-6.92-8.45-8.208-11.23s-2.633-4.764-2.988-4.408m71.399 14.758c-2.845 3.427 1.078 9.221 4.704 6.948 3.568-2.237 2.285-8.393-1.75-8.393-.965 0-2.295.65-2.954 1.445M75 115.5c0 .825.436 1.5.969 1.5s.709-.675.393-1.5c-.317-.825-.753-1.5-.969-1.5s-.393.675-.393 1.5m36 1.761c0 1.003 3.891 7.739 4.47 7.739.169 0 .245-.735.169-1.633-.146-1.718 2.031-2.583 6.611-2.628 1.513-.014 2.75-.411 2.75-.883 0-1.424 2.221-.964 4.317.894 1.916 1.698 1.939 1.683.793-.5-1.11-2.116-2.885-2.66-7.61-2.333-1.1.076-4.138-.266-6.75-.76-3.106-.588-4.75-.552-4.75.104m-33.03 2.683c.573 1.07 1.535 2.25 2.139 2.623s.325-.501-.62-1.944c-2.002-3.055-3.038-3.518-1.519-.679"/><path fill-opacity=".2" fill-rule="evenodd" d="M131.566 8.747c-8.91.335-8.951.349-15.5 5.175L109.5 18.76l-13.5.516c-15.038.574-24.446 2.617-36.963 8.029-16.389 7.086-33.214 21.244-42.929 36.127-6.767 10.366-6.954 11.183-3.385 14.753l2.937 2.936 4.547-7.81c12.016-20.638 32.035-36.3 54.065-42.297 7.152-1.946 25.6-4.475 26.45-3.625.242.242-1.701 3.066-4.318 6.275s-5.617 7.288-6.666 9.063c-1.418 2.397-4.264 4.363-11.073 7.647-14.446 6.968-24.714 16.401-32.618 29.966-1.602 2.75-3.012 4.265-3.264 3.509-1.093-3.28-9.425 9.012-13.806 20.369-1.637 4.244-2.977 8.214-2.977 8.821s-.707.397-1.571-.468c-2.645-2.644-6.429-1.821-7.721 1.679-.355.962-1.334 1.806-2.177 1.875-.842.069-2.093.188-2.781.265-.687.078-1.543-.766-1.9-1.875-.358-1.108-.681 9.235-.718 22.985-.074 27.805.288 29.948 6.924 40.997 4.208 7.005 10.06 11.987 17.104 14.562 5.016 1.833 8.322 1.94 59.326 1.924 29.708-.01 58.259-.465 63.448-1.011 11.976-1.261 18.051-3.995 25.24-11.358 7.297-7.473 9.342-13.824 9.219-28.614-.129-15.333.908-13.975-10.81-14.157-5.546-.086-11.208-.321-12.583-.522-1.375-.202-4.525-.551-7-.776-4.263-.388-4.315-.363-1 .475 3.063.774 2.847.834-1.728.482-3.578-.276-5.666.035-6.615.983q-1.386 1.386-2.386.386t-2.536.537c-1.259 1.258-1.734 1.299-2.627.222-.6-.723-.757-1.682-.349-2.132.407-.45.066-.42-.759.067s-2.4.742-3.5.568c-1.721-.273-1.581.135 1 2.924 2.315 2.5 1.515 2.108-3.5-1.718-3.575-2.727-8.88-6.452-11.789-8.278-5.598-3.514-11.425-9.863-13.104-14.281l-1.01-2.656 7.201.501c10.858.755 11.338.968 15.78 6.981 6.807 9.214 18.137 12.831 27.704 8.845 4.905-2.043 11.002-7.974 13.315-12.951 2.134-4.592 2.517-14.362.768-19.601-.624-1.869-6.314-10.802-12.644-19.85-6.331-9.048-11.558-16.97-11.616-17.605-.058-.634 7.42-9.141 16.617-18.903l16.721-17.749-2.515-3.297-2.515-3.297-9.706 10.138a38949 38949 0 0 0-17.13 17.901c-4.083 4.27-7.699 7.763-8.036 7.763-.549 0-7.041-12.419-7.041-13.47 0-.237 8.722-6.53 19.381-13.985 18.942-13.247 22.446-16.052 21.38-17.117-.288-.289-3.84-.764-7.893-1.057-4.67-.337-6.887-.192-6.054.397.963.681-1.766 3.106-10.221 9.081C147.249 23.332 141.831 27 141.554 27s-.474-3.118-.439-6.928c.036-3.811-.226-7.846-.581-8.966-.62-1.951-.191-2.051 10.16-2.359l10.806-.322-10.5-.007c-5.775-.004-14.52.144-19.434.329m-8.052 10.478C109.48 29.582 97.702 43.611 92.837 55.764c-1.91 4.773-2.294 7.583-2.287 16.736.01 13.42 1.925 18.582 9.753 26.291 6.561 6.462 10.73 8.18 21.549 8.881 6.477.419 9.462 1.096 11.891 2.694 1.784 1.174 3.246 2.408 3.25 2.743.022 1.953 8.582 9.956 11.515 10.766 6.711 1.853 13.669-1.504 17.202-8.298 1.846-3.548 1.985-11.393.261-14.677-.693-1.32-7.123-10.5-14.29-20.4-18.596-25.69-19.104-26.45-21.508-32.185-2.575-6.146-2.654-7.701-.671-13.32 3.084-8.742 4.074-21.082 1.681-20.96-.376.019-3.827 2.354-7.669 5.19M74.5 62.829C61.457 71.111 49.052 89.204 45.929 104.5c-1.98 9.699-1.493 23.296 1.116 31.136 2.729 8.199 5.785 13.587 7.207 12.708.588-.363.765-.181.399.411-.361.586-.352 1.86.021 2.832.583 1.52.758 1.55 1.253.214.436-1.176 1.147-1.338 2.939-.666 1.828.684 2.113 1.188 1.256 2.22-.871 1.05-.628 1.309 1.136 1.211 1.234-.069 2.857-.507 3.606-.974.763-.475 1.642-.45 2 .058.885 1.256 12.157 3.452 13.523 2.634.702-.421.671-.119-.084.815-1.004 1.241-.758 1.484 1.5 1.486 2.505.003 2.159-.538-4.821-7.541-4.137-4.149-8.762-9.88-10.28-12.734-3.042-5.721-6.022-14.627-4.602-13.749.496.306.902.129.902-.395s.652-1.202 1.449-1.508c.947-.363 1.265-.076.917.831-.399 1.038.226 1.29 2.488 1.004 2.649-.335 3.327.134 5.512 3.812 2.704 4.553 10.827 13.247 15.937 17.058 7.773 5.796 13.95 8.25 40.697 16.17 2.475.732 4.147 1.362 3.715 1.4-.431.037.919 1.529 3 3.315s4.145 3.812 4.585 4.5c1.266 1.982 2.697 1.459 2.731-.998.026-1.891.438-1.612 2.576 1.75 4.018 6.317 1.875.155-2.621-7.536-4.632-7.924-10.542-13.597-22.634-21.727-5.031-3.383-10.803-8.171-12.825-10.639-3.876-4.729-7.527-12.984-7.527-17.016 0-1.603-2.084-4.496-6.295-8.739-4.132-4.165-7.138-8.312-8.75-12.076-1.35-3.153-2.793-5.741-3.205-5.75-1.586-.036-.719 14.872 1.232 21.19C85.894 115.397 93.115 127 95.055 127c.52 0 .945.39.945.866 0 1.375-7.176-.343-10.833-2.594-3.962-2.438-7.149-6.936-9.758-13.772-1.468-3.843-1.89-7.429-1.826-15.5.071-8.958.486-11.528 2.826-17.5 1.509-3.85 3.146-8.919 3.639-11.264.493-2.346 1.375-5.158 1.96-6.25 1.644-3.073-.656-2.508-7.508 1.843m47.5 4.948c0 5.614 5.467 9.356 8.8 6.023s-.409-8.8-6.023-8.8c-2.369 0-2.777.408-2.777 2.777m-77.363 8.842c-1.486 2.04-1.608 2.79-.603 3.718.971.897 1.087.86.508-.161-.456-.803.145-2.279 1.528-3.75 1.253-1.334 1.863-2.412 1.354-2.395-.508.018-1.762 1.182-2.787 2.588M154.75 104.08c-3.799 2.213-1.024 8.776 3.151 7.451 2.862-.908 3.644-4.272 1.534-6.603-1.988-2.196-2.279-2.249-4.685-.848m-86.207 21.851c-.317.512-.118 1.213.441 1.559s1.016-.074 1.016-.931c0-1.757-.6-2.015-1.457-.628M132 154.43c0 .275.9.981 2 1.57s2 .845 2 .57-.9-.981-2-1.57-2-.845-2-.57"/><path fill-opacity=".98" fill-rule="evenodd" d="M127 9.747c-5.359.67-6.974 1.374-11.673 5.088l-4.865 3.846-13.481.6c-14.813.659-24.146 2.648-36.447 7.769-19.523 8.128-39.686 26.351-48.504 43.839l-2.213 4.39 2.907 2.907 2.908 2.907 2.833-5.296c15.054-28.139 42.671-45.884 75.407-48.454l8.373-.657-5.201 6.407c-2.86 3.524-6.038 8.023-7.061 9.998-1.412 2.723-3.024 4.021-6.672 5.371-17.86 6.61-34.761 24.111-41.024 42.48-2.854 8.374-3.102 21.399-.543 28.63l1.744 4.928.614-9c.703-10.289 2.848-18.384 7.155-27 3.597-7.194 11.444-17.31 16.545-21.327 5.047-3.974 14.193-9.511 14.766-8.939.652.653-2.5 12.692-4.181 15.965-6.459 12.58-5.875 33.666 1.246 44.996 2.534 4.031 9.73 8.805 13.272 8.805 2.103 0 2.029-.244-1.311-4.32-6.498-7.93-8.969-14.861-9.42-26.43-.26-6.649-.038-10.25.633-10.25.569 0 1.326 1.328 1.682 2.951.977 4.447 7.68 14.223 12.215 17.815 3.315 2.625 4.125 3.971 4.636 7.701.769 5.606 4.431 12.905 8.824 17.589 1.835 1.955 7.596 6.455 12.803 10s11.809 8.819 14.67 11.722c6.982 7.085 13.787 20.914 15.503 31.507l1.262 7.786 3.049-.661c1.677-.364 3.31-1.07 3.629-1.569.909-1.423-.843-12.202-3.046-18.741-4.244-12.596-14.114-25.604-25.496-33.6-12.834-9.016-15.766-11.416-18.513-15.151-1.582-2.152-3.175-5.098-3.538-6.545-.653-2.603-.617-2.622 3.176-1.742 2.11.49 6.234.901 9.163.914 4.285.019 5.691.464 7.194 2.274 7.136 8.591 8.95 10.291 12.786 11.988 5.254 2.324 13.342 2.457 18.467.302 12.591-5.293 18.241-21.781 11.871-34.642-1.199-2.419-7.062-11.216-13.03-19.55l-10.851-15.152 2.606-2.848c1.433-1.566 9.06-9.694 16.947-18.061l14.341-15.212-1.794-3.038c-.987-1.67-2.097-3.037-2.468-3.037-.654 0-27.041 27.478-32.17 33.5-1.405 1.65-2.765 2.775-3.023 2.5-.257-.275-2.066-3.693-4.019-7.595l-3.552-7.095 9.142-6.336c8.911-6.174 9.074-6.358 6.435-7.238-1.489-.496-2.708-1.289-2.708-1.762 0-1.07 3.78-.401 5.418.958.87.722 4.438-1.307 12.614-7.175 10.373-7.444 11.179-8.245 8.935-8.87-6.924-1.93-9.006-1.168-22.214 8.135C146.742 23.96 140.845 28 140.65 28s-.143-2.225.119-4.944c.261-2.72.164-7.017-.216-9.549l-.69-4.604-5.182.266c-2.849.146-6.306.406-7.681.578m-4.145 9.74c-14.908 11.189-25.49 24.1-30.517 37.233-5.175 13.52-2.897 30.241 5.478 40.207 5.988 7.127 12.561 10.183 23.712 11.026 9.923.751 13.022 2.036 16.164 6.702 6.47 9.61 13.194 12.218 21.059 8.17 6.241-3.211 9.638-9.342 8.884-16.03-.624-5.539-.683-5.638-15.709-26.295-16.505-22.691-20.227-28.339-22.347-33.912-1.853-4.873-1.85-4.967.335-11.752 2.456-7.628 3.886-20.224 2.399-21.142-.524-.324-4.78 2.283-9.458 5.793m11.744-.09c.638 1.662 4.18 3.157 5.16 2.178.823-.823-.774-2.204-3.503-3.028-1.753-.53-2.115-.344-1.657.85m-12.06 49.71c.74 5.851 4.519 7.696 7.965 3.889 1.498-1.656 1.616-2.438.676-4.5-.933-2.048-1.846-2.496-5.086-2.496-3.835 0-3.937.089-3.555 3.107m31.024 36.694c-1.016 3.203.4 5.341 3.315 5.003 2.179-.253 2.622-.811 2.622-3.304 0-2.506-.439-3.051-2.664-3.308-1.915-.222-2.835.231-3.273 1.609m-125.486 8.607c-1.778 2.142-3.25 12.311-2.901 20.038.298 6.602.166 7.176-1.619 7.042-1.068-.08-2.125-.691-2.347-1.358-.511-1.533-3.21.465-3.21 2.376 0 1.5-4.357 2.86-4.821 1.505-.183-.535-1.151-.421-2.25.266C9.282 145.305 9 146.664 9 153.584c0 18.821 11.563 36.062 26.903 40.113 6.108 1.614 110.648 1.838 111.636.24.955-1.546-2.431-4.94-7.039-7.056-3.363-1.545-6.641-1.841-20.59-1.859-22.67-.03-32.186-2.529-46.559-12.226-5.486-3.702-18.081-16.37-18.928-19.038-.307-.967-1.126-1.758-1.821-1.758s-1.891-1.238-2.658-2.75c-2.114-4.171-5.63-8.225-6.457-7.445-.405.382-.465-.205-.134-1.305s.132-2.675-.441-3.5c-.813-1.17-.904-1.004-.41.75.861 3.06-.843 2.849-2.536-.314-.887-1.657-1.984-2.403-3.104-2.11-2.247.588-2.862-1.192-2.862-8.283 0-7.89-.837-11.46-3.003-12.813-1.403-.876-2.08-.835-2.92.178"/></svg>