<svg xmlns="http://www.w3.org/2000/svg" width="160" height="160" fill="#000000"><path fill-opacity=".161" fill-rule="evenodd" d="M60.92 2.01C36.801 7.944 16.381 25.061 6.343 47.759c-8.426 19.053-8.426 45.429 0 64.482 7.873 17.803 23.529 33.506 41.196 41.318 19.377 8.57 45.545 8.57 64.922 0 22.572-9.982 40.673-31.845 45.586-55.059.698-3.3 1.648-6.428 2.111-6.95 1.133-1.279 1.088-24.82-.046-24.119-.488.302-1.179-1.359-1.534-3.691-3.466-22.758-23.06-47.103-46.117-57.299C97.829-.031 76.622-1.854 60.92 2.01M81.5 29.065l-12 .565-12.62 6.097c-8.481 4.097-14.447 6.325-18.192 6.793-3.203.4-6.222 1.413-7.099 2.381-1.411 1.56-.477 1.991 12.532 5.785 12.73 3.713 14.009 3.921 13.561 2.207-.276-1.057.02-1.893.67-1.893 1.677 0 31.718 8.737 32.406 9.424.866.867-1.135.69-14.508-1.282-11.867-1.75-12.25-1.749-12.25.026 0 1.007-.28 1.832-.622 1.832-.869 0-27.463-5.932-29.752-6.637-1.733-.533-1.704-.275.377 3.428 2.21 3.933 2.476 4.068 14.874 7.551 6.942 1.951 16.673 4.324 21.623 5.274 6.064 1.163 12.099 3.231 18.5 6.339 5.225 2.537 11.862 5.622 14.75 6.857 2.888 1.234 5.25 2.67 5.25 3.191 0 .568-.902.607-2.25.098-1.237-.467-10.234-2.991-19.992-5.608l-17.743-4.759-13.757 4.887L41.5 86.508l-.279 12.681-.28 12.682 11.28 3.5C76.543 122.92 106.611 132 107.287 132c.392 0 .713-2.454.713-5.453v-5.454l-11.813-7.063-11.814-7.064-12.436 1.017c-6.841.559-13.899 1.263-15.687 1.562-1.787.3-3.25.156-3.25-.321s5.513-2.047 12.25-3.49c16.733-3.584 60.96-13.638 62.5-14.208.926-.343 1.25-4.48 1.25-15.981V60.027l-18.25-12.153c-10.037-6.685-18.365-12.243-18.505-12.352-.139-.109.25-1.644.866-3.411s.956-3.303.755-3.412-5.766.055-12.366.366M.385 80c0 6.875.16 9.688.355 6.25.196-3.437.196-9.062 0-12.5C.545 70.313.385 73.125.385 80"/><path fill-opacity=".369" fill-rule="evenodd" d="M64 1.452C39.31 6.739 19.541 22.058 8.45 44.5 1.945 57.663.533 63.995.533 80s1.412 22.337 7.917 35.5c8.104 16.398 19.652 27.946 36.05 36.05 13.163 6.505 19.495 7.917 35.5 7.917s22.337-1.412 35.5-7.917c16.401-8.106 27.954-19.66 36.045-36.05 4.289-8.687 7.455-18.52 7.455-23.151 0-1.227.45-2.509 1-2.849.559-.345 1-5.03 1-10.618 0-6.412-.359-9.778-1-9.382-.558.345-1-.42-1-1.731 0-8.644-8.675-28.316-16.974-38.494-2.792-3.424-7.877-8.509-11.301-11.301-7.19-5.863-21.537-13.248-30.225-15.557C92.227.217 72.235-.311 64 1.452m13 27.503c-6.375.53-9.45 1.536-20.5 6.708-7.957 3.724-14.858 6.281-17.791 6.592-4.048.43-9.496 3.291-8.384 4.403.186.186 5.568 1.877 11.96 3.758s12.543 3.712 13.668 4.069c1.634.519 2.047.211 2.047-1.525 0-1.311.496-1.997 1.25-1.728.688.246 7.438 2.19 15 4.32S88 59.702 88 60.041s-3.713.042-8.25-.661C62.667 56.737 64 56.768 64 59.007c0 1.595-.483 1.918-2.25 1.506-15.061-3.518-29.139-6.458-29.446-6.15-.212.212.573 2.01 1.745 3.995 1.847 3.132 3.08 3.886 9.291 5.688 3.938 1.142 8.51 2.492 10.16 3 1.65.507 8.175 2.003 14.5 3.323 8.808 1.839 14.66 3.866 25 8.658 12.666 5.871 18.28 9.033 13.467 7.587-9.078-2.728-35.712-9.612-37.155-9.603-.997.005-7.81 2.143-15.141 4.75L40.842 86.5l-.171 12.794-.171 12.795 8.5 2.583c4.675 1.421 19.883 6.07 33.794 10.331l25.295 7.747-.295-6.03-.294-6.031-11-6.891-11-6.891-9 .573c-4.95.315-11.925.789-15.5 1.053-9.815.725-5.479-.464 33.25-9.112l34.75-7.76-.027-16.081-.026-16.08-18.433-12.225-18.432-12.226 1.472-3.524L95.027 28l-5.264.166c-2.894.091-8.638.446-12.763.789M.37 80c0 5.775.165 8.138.367 5.25s.202-7.612 0-10.5S.37 74.225.37 80"/><path fill-opacity=".304" fill-rule="evenodd" d="M65.5 1.477C24.394 9.093-4.414 48.254.788 89.446c4.64 36.735 33.031 65.126 69.766 69.766 36.29 4.583 71.761-17.293 84.46-52.089 1.634-4.475 3.262-10.622 3.619-13.658.357-3.037 1.036-5.76 1.508-6.052s.859-4.131.859-8.531-.389-7.759-.865-7.465-1.155-1.926-1.508-4.934c-.354-3.008-1.979-9.131-3.613-13.606-13.361-36.61-51.411-58.459-89.514-51.4M72 28.966c-1.925.404-9.3 3.502-16.388 6.885C45.476 40.687 41.718 42 38.017 42c-3.455 0-5.194.538-6.538 2.024-1.079 1.192-1.451 2.352-.905 2.824C31.531 47.675 55.99 55 57.795 55c.56 0 .767-.96.46-2.134-.406-1.551-.176-1.991.843-1.611.771.288 7.359 2.229 14.64 4.313s13.056 3.971 12.834 4.193-4.883-.308-10.357-1.179c-12.332-1.96-12.009-1.967-12.395.252-.3 1.718-1.339 1.604-16.57-1.827C38.313 54.994 31 53.525 31 53.743s1.298 2.278 2.885 4.577c2.76 4 3.374 4.317 14.25 7.373C54.386 67.449 64 69.834 69.5 70.994c7.101 1.497 13.83 3.891 23.213 8.26 7.268 3.384 13.054 6.312 12.86 6.506-.194.195-3.665-.575-7.713-1.71a3757 3757 0 0 0-17.968-4.968l-10.609-2.905-13.792 4.862c-7.585 2.674-14.188 5.258-14.673 5.743s-.755 6.433-.6 13.216l.282 12.335 33.494 10.256c18.422 5.641 33.572 10.178 33.666 10.084.095-.095.295-2.818.444-6.051l.272-5.877-11.438-6.947-11.438-6.946-11.363.621c-6.249.342-12.774.837-14.5 1.099-8.85 1.346 3.115-1.877 24.363-6.562 12.925-2.85 28.338-6.306 34.25-7.68L129 91.832V59.295l-18.029-11.897C92.185 35 92.245 35.064 94.478 29.75c.674-1.602-.096-1.74-9.121-1.635-5.421.063-11.432.446-13.357.851M.349 80c0 4.675.173 6.587.383 4.25.211-2.338.211-6.163 0-8.5-.21-2.338-.383-.425-.383 4.25"/><path fill-opacity=".851" fill-rule="evenodd" d="M69.5 1.051C28.67 7.337.239 40.369.687 81c.485 44.001 35.189 78.232 79.313 78.232 36.999 0 67.834-23.891 76.977-59.642C158.09 95.24 159 90.204 159 88.399s.45-3.559 1-3.899 1-2.868 1-5.618c0-3.079-.384-4.763-1-4.382-.592.366-1-.77-1-2.781 0-5.088-3.651-18.375-7.037-25.612-7.733-16.524-21.605-30.365-38.233-38.146-12.778-5.979-31.391-8.887-44.23-6.91M58 34.521c-9.33 4.409-15.258 6.588-19.191 7.052-4.104.485-6.306 1.327-7.9 3.023-1.71 1.821-1.893 2.458-.809 2.821.77.258 6.8 2.04 13.4 3.96s12.855 3.82 13.9 4.222c1.635.628 1.812.382 1.271-1.773l-.628-2.503 13.151 3.844c7.233 2.115 13.411 4.123 13.728 4.463s-.322.355-1.422.032c-3.17-.929-14.72-2.646-17.857-2.654-2.13-.006-2.711.374-2.281 1.492.775 2.021.34 1.97-16.836-1.96-8.235-1.884-15.142-3.258-15.347-3.052s.768 2.29 2.165 4.632c2.402 4.029 3.04 4.409 11.847 7.051 5.12 1.537 14.709 3.944 21.309 5.351 8.684 1.85 15.454 4.116 24.5 8.2 6.875 3.104 12.95 6.077 13.5 6.608q.996.96-.039.388c-.571-.316-8.798-2.643-18.281-5.17l-17.242-4.595-11.719 4.155c-6.446 2.285-12.956 4.589-14.469 5.121l-2.75.967v26.329l33.75 10.245c18.563 5.634 34.109 10.241 34.548 10.237.438-.004.663-2.791.5-6.195l-.298-6.187-12-7.304c-10.245-6.236-12.512-7.237-15.5-6.846-5.339.699-21.846 1.462-19 .879 2.561-.526 61.67-13.881 65.775-14.861 2.264-.541 2.273-.614 2-16.768L129.5 59.5l-18-12.065c-10.064-6.746-17.956-12.698-17.9-13.5.055-.789.423-2.447.818-3.685.717-2.249.714-2.25-11.101-2.18l-11.817.071zM.3 80c0 3.025.187 4.263.416 2.75s.229-3.987 0-5.5S.3 76.975.3 80"/></svg>