<!-- Generated by IcoMoon.io -->
<svg version="1.1" xmlns="http://www.w3.org/2000/svg" width="32" height="32" viewBox="0 0 32 32" fill="#000000">
<title>uni</title>
<path d="M13.005 7.277c-0.347-0.050-0.363-0.066-0.198-0.083 0.313-0.050 1.039 0.016 1.551 0.132 1.188 0.281 2.26 1.007 3.399 2.277l0.297 0.347 0.429-0.066c1.831-0.297 3.712-0.066 5.28 0.66 0.429 0.198 1.105 0.594 1.188 0.693 0.033 0.033 0.083 0.248 0.116 0.462 0.116 0.776 0.066 1.353-0.181 1.799-0.132 0.248-0.132 0.314-0.050 0.528 0.066 0.165 0.264 0.281 0.446 0.281 0.396 0 0.808-0.627 1.006-1.502l0.083-0.347 0.148 0.165c0.842 0.941 1.501 2.244 1.601 3.168l0.033 0.248-0.148-0.215c-0.248-0.38-0.479-0.627-0.792-0.842-0.561-0.38-1.155-0.495-2.722-0.578-1.419-0.082-2.227-0.198-3.020-0.462-1.353-0.446-2.046-1.023-3.646-3.152-0.709-0.941-1.155-1.452-1.6-1.881-0.973-0.941-1.947-1.436-3.217-1.634z"/>
<path d="M25.298 9.373c0.033-0.627 0.116-1.040 0.297-1.419 0.066-0.149 0.132-0.281 0.148-0.281s-0.016 0.116-0.066 0.248c-0.132 0.363-0.148 0.875-0.066 1.452 0.116 0.743 0.165 0.842 0.957 1.65 0.363 0.38 0.792 0.858 0.957 1.056l0.281 0.363-0.281-0.264c-0.346-0.33-1.138-0.957-1.32-1.040-0.116-0.066-0.132-0.066-0.215 0.017-0.066 0.066-0.083 0.165-0.083 0.644-0.016 0.743-0.116 1.205-0.363 1.683-0.132 0.248-0.149 0.198-0.033-0.082 0.083-0.215 0.099-0.314 0.099-1.023 0-1.436-0.165-1.782-1.172-2.36-0.247-0.149-0.676-0.363-0.924-0.479-0.264-0.116-0.462-0.215-0.445-0.215 0.033-0.033 1.006 0.248 1.386 0.413 0.578 0.231 0.676 0.248 0.743 0.231 0.049-0.050 0.082-0.182 0.099-0.594z"/>
<path d="M13.682 11.832c-0.693-0.957-1.138-2.442-1.039-3.548l0.033-0.347 0.165 0.033c0.297 0.050 0.808 0.248 1.056 0.396 0.66 0.396 0.957 0.941 1.237 2.294 0.082 0.396 0.198 0.858 0.248 1.007 0.082 0.248 0.396 0.825 0.66 1.188 0.181 0.264 0.066 0.396-0.347 0.363-0.627-0.066-1.468-0.644-2.013-1.386z"/>
<path d="M24.456 19.010c-3.267-1.32-4.422-2.459-4.422-4.39 0-0.281 0.017-0.512 0.017-0.512 0.017 0 0.132 0.099 0.28 0.215 0.66 0.528 1.403 0.759 3.465 1.056 1.205 0.182 1.898 0.314 2.525 0.528 1.996 0.66 3.234 2.013 3.531 3.845 0.083 0.528 0.033 1.535-0.099 2.063-0.116 0.413-0.445 1.172-0.528 1.188-0.016 0-0.050-0.083-0.050-0.214-0.033-0.693-0.379-1.353-0.957-1.865-0.693-0.594-1.584-1.040-3.762-1.914z"/>
<path d="M22.146 19.555c-0.033-0.248-0.116-0.561-0.165-0.693l-0.083-0.248 0.148 0.182c0.215 0.248 0.38 0.544 0.528 0.957 0.116 0.314 0.116 0.413 0.116 0.924 0 0.495-0.017 0.61-0.116 0.891-0.165 0.446-0.363 0.759-0.693 1.106-0.594 0.611-1.37 0.941-2.475 1.089-0.198 0.017-0.759 0.066-1.254 0.099-1.237 0.066-2.062 0.198-2.805 0.462-0.099 0.033-0.198 0.066-0.214 0.050-0.033-0.033 0.478-0.33 0.891-0.528 0.578-0.281 1.171-0.429 2.475-0.66 0.643-0.099 1.303-0.231 1.468-0.297 1.633-0.512 2.442-1.782 2.178-3.333z"/>
<path d="M23.648 22.212c-0.429-0.941-0.528-1.832-0.297-2.673 0.033-0.083 0.066-0.165 0.099-0.165s0.132 0.049 0.231 0.116c0.198 0.132 0.61 0.363 1.667 0.941 1.336 0.726 2.095 1.287 2.623 1.931 0.462 0.561 0.742 1.205 0.874 1.997 0.083 0.446 0.033 1.518-0.083 1.964-0.363 1.403-1.188 2.525-2.392 3.168-0.181 0.099-0.33 0.165-0.346 0.165s0.050-0.165 0.148-0.363c0.396-0.842 0.446-1.65 0.149-2.558-0.182-0.561-0.561-1.238-1.32-2.376-0.908-1.32-1.122-1.667-1.353-2.145z"/>
<path d="M11.355 27.261c1.221-1.023 2.722-1.749 4.108-1.98 0.594-0.099 1.584-0.066 2.128 0.083 0.874 0.231 1.666 0.726 2.079 1.337 0.396 0.594 0.578 1.106 0.759 2.244 0.066 0.446 0.148 0.908 0.165 1.007 0.132 0.594 0.396 1.056 0.726 1.304 0.512 0.38 1.403 0.396 2.277 0.066 0.148-0.050 0.281-0.099 0.281-0.083 0.033 0.033-0.412 0.33-0.71 0.479-0.412 0.214-0.742 0.28-1.188 0.28-0.792 0-1.468-0.412-2.013-1.238-0.116-0.165-0.346-0.644-0.544-1.089-0.578-1.337-0.874-1.733-1.551-2.178-0.594-0.379-1.353-0.462-1.93-0.181-0.759 0.363-0.957 1.337-0.429 1.931 0.214 0.248 0.61 0.446 0.94 0.495 0.611 0.083 1.139-0.396 1.139-1.006 0-0.396-0.148-0.627-0.544-0.809-0.528-0.231-1.105 0.033-1.089 0.545 0 0.214 0.099 0.346 0.314 0.445 0.132 0.066 0.132 0.066 0.033 0.050-0.479-0.099-0.594-0.693-0.215-1.073 0.462-0.462 1.435-0.264 1.765 0.379 0.132 0.264 0.148 0.792 0.033 1.122-0.28 0.726-1.073 1.106-1.881 0.891-0.544-0.149-0.775-0.297-1.435-0.974-1.155-1.188-1.6-1.419-3.25-1.667l-0.313-0.049 0.347-0.33z"/>
<path d="M2.677 0.71c3.844 4.67 9.768 11.931 10.065 12.327 0.248 0.33 0.149 0.644-0.264 0.875-0.231 0.132-0.71 0.264-0.94 0.264-0.264 0-0.578-0.132-0.792-0.347-0.149-0.149-0.792-1.089-2.244-3.35-1.105-1.733-2.046-3.168-2.062-3.185-0.066-0.033-0.066-0.033 1.947 3.564 1.271 2.261 1.683 3.069 1.683 3.168 0 0.215-0.066 0.33-0.33 0.627-0.445 0.495-0.643 1.056-0.792 2.228-0.165 1.304-0.611 2.228-1.881 3.796-0.742 0.924-0.858 1.089-1.039 1.469-0.231 0.462-0.297 0.726-0.33 1.32-0.033 0.627 0.033 1.023 0.215 1.617 0.165 0.528 0.346 0.875 0.792 1.551 0.38 0.594 0.611 1.040 0.611 1.205 0 0.132 0.033 0.132 0.627 0 1.419-0.33 2.59-0.891 3.234-1.584 0.396-0.429 0.495-0.66 0.495-1.254 0-0.38-0.017-0.462-0.116-0.693-0.165-0.363-0.479-0.66-1.155-1.122-0.891-0.611-1.27-1.106-1.369-1.766-0.082-0.561 0.017-0.941 0.511-1.98 0.511-1.073 0.643-1.518 0.726-2.607 0.050-0.693 0.132-0.974 0.33-1.188 0.214-0.231 0.396-0.314 0.908-0.38 0.841-0.116 1.386-0.33 1.815-0.743 0.379-0.347 0.544-0.693 0.561-1.205l0.017-0.38-0.214-0.231c-0.775-0.891-11.517-12.707-11.566-12.707-0.017 0 0.248 0.314 0.561 0.71zM7.742 24.176c0.181-0.314 0.082-0.71-0.215-0.908-0.28-0.182-0.71-0.099-0.71 0.148 0 0.066 0.033 0.132 0.132 0.165 0.149 0.083 0.165 0.165 0.050 0.346s-0.115 0.346 0.033 0.462c0.231 0.182 0.544 0.083 0.71-0.214z"/>
<path d="M14.424 15.495c0.264-0.082 0.775-0.033 1.023 0.099 0.479 0.248 0.825 0.792 0.742 1.188-0.082 0.479-0.858 0.875-1.765 0.875-0.462 0-0.627-0.066-0.808-0.297-0.116-0.148-0.149-0.627-0.082-0.891 0.116-0.429 0.495-0.858 0.891-0.974zM15.48 16.321c0.132-0.198 0.082-0.413-0.165-0.561-0.446-0.281-1.122-0.050-1.122 0.38 0 0.215 0.347 0.446 0.676 0.446 0.214 0 0.511-0.132 0.611-0.264z"/>
</svg>
