<svg xmlns="http://www.w3.org/2000/svg" width="200" height="200" fill="#000000"><path fill-opacity=".18" fill-rule="evenodd" d="M24.19 52.026C18.361 55.579 18 57.755 18 89.286c0 31.444.475 34.731 6.259 43.338 6.895 10.258 17.927 15.903 30.84 15.779 16.995-.163 31.134-12.036 34.777-29.202.618-2.915 1.124-13.173 1.124-22.796 0-17.243.036-17.531 2.455-19.95 3.991-3.992 10.591-3.17 14.719 1.834.096.116.433 11.609.75 25.54l.576 25.329 3.669 3.361c4.917 4.502 9.51 5.3 15.048 2.614 7.187-3.487 7.222-3.626 7.783-31.305.495-24.416.525-24.699 2.924-27.25 3.001-3.191 8.711-3.503 12.215-.668l2.361 1.909.5 30.388c.553 33.599.579 33.737 7.304 37.837 6.07 3.701 14.259 1.606 18.392-4.703 1.638-2.501 1.804-5.525 1.804-32.798 0-29.109-.072-30.222-2.321-35.79-3.073-7.61-10.489-15.597-17.842-19.216-10.647-5.24-26.284-4.455-35.473 1.78l-3.479 2.362-3.443-2.374c-5.518-3.804-13.233-5.603-21.882-5.102-16.446.952-29.881 13.034-33.045 29.718C63.457 82.865 63 93.047 63 102.548v17.274l-3.077 2.589c-3.306 2.782-5.345 3.139-9.31 1.632-5.234-1.99-5.613-4.398-5.617-35.743-.003-26.8-.139-29.022-1.956-32.001-3.78-6.201-12.461-8.169-18.85-4.273"/><path fill-opacity=".488" fill-rule="evenodd" d="M26.02 51.752c-1.914.961-4.502 3.277-5.75 5.146C18.044 60.23 18 60.844 18 88.466c0 31.078.537 34.877 6.191 43.781 12.166 19.162 40.515 21.535 56.254 4.708 8.281-8.852 8.947-11.333 9.539-35.503.442-18.031.774-21.442 2.318-23.795 2.454-3.74 6.102-5.009 10.359-3.604 5.865 1.936 6.339 4.1 6.339 28.929 0 24.715.569 27.566 6.19 30.992 4.414 2.692 11.1 2.668 14.921-.053 5.552-3.954 5.889-5.692 5.889-30.421 0-25.499.438-27.499 6.454-29.485 4.598-1.517 8.429.252 10.794 4.986 1.54 3.08 1.75 6.849 1.754 31.499.005 25.629.164 28.261 1.884 31.08 1.99 3.264 7.453 6.42 11.114 6.42 3.65 0 9.119-3.151 11.144-6.42 1.787-2.886 1.89-5.06 1.632-34.58l-.276-31.5-2.811-5.338c-3.764-7.145-10.55-13.738-17.493-16.992-4.86-2.278-7.027-2.67-14.759-2.67-8.379 0-9.606.269-16.239 3.562-3.946 1.958-7.518 3.228-7.936 2.821s-3.237-2.004-6.262-3.548c-4.876-2.489-6.577-2.809-15-2.821-8.488-.013-10.133.297-15.446 2.905-7.258 3.564-13.506 9.637-17.225 16.743-2.738 5.233-2.804 5.759-3.358 26.838-.31 11.825-.936 22.304-1.389 23.287-1.058 2.294-5.734 4.713-9.109 4.713-1.57 0-3.803-1.176-5.55-2.923L45 119.154l-.004-29.327c-.003-27.5-.127-29.53-1.991-32.586-2.346-3.849-7.493-7.233-11.005-7.236-1.375-.001-4.066.785-5.98 1.747"/><path fill-opacity=".309" fill-rule="evenodd" d="M90.5 51.337c-7.399 2.466-12.21 5.539-16.275 10.395l-4.042 4.826 2.159 2.008c1.187 1.104 5.592 6.596 9.789 12.204l7.631 10.196.444-6.132c.391-5.411.832-6.479 3.756-9.091 2.785-2.488 3.888-2.869 6.925-2.385 2.12.337 4.543 1.644 5.863 3.164 2.124 2.445 2.25 3.451 2.25 18.034 0 13.115.228 15.444 1.512 15.444 1.191 0 1.382.808.903 3.808-.609 3.808-.609 3.808 6.949 9.033 4.158 2.874 7.816 5.641 8.13 6.149.313.507 1.283.649 2.153.315 1.235-.474 1.439-.152.928 1.46-.361 1.136-.188 2.356.384 2.71s1.041.107 1.041-.549c0-.655 1.012-2.069 2.25-3.141 2.197-1.904 2.256-2.491 2.506-25.117.14-12.743.49-24.194.777-25.449.599-2.622 5.91-6.21 9.201-6.215 1.229-.002 3.649 1.26 5.379 2.805 2.605 2.328 3.229 3.742 3.642 8.25.274 2.993.946 6.004 1.494 6.691.676.849.636 1.25-.127 1.25-.797 0-1.122 6.686-1.122 23.096 0 19.585.249 23.516 1.636 25.864 3.489 5.908 11.659 8.007 18.133 4.659 6.191-3.201 6.37-4.345 6.034-38.422-.348-35.247-.447-35.711-9.704-45.499-11.459-12.116-27.744-14.933-42.416-7.337l-6.182 3.2-6.508-3.339c-7.665-3.933-18.627-5.174-25.493-2.885M21.872 54.75c-1.243 1.586-1.208 1.621.378.378C23.916 53.821 24.445 53 23.622 53c-.207 0-.995.788-1.75 1.75M18.224 91.5l.276 29 3.155 6.659c3.788 7.996 9.89 14.231 17.345 17.723 11.06 5.181 29.312 3.375 35.283-3.492 1.143-1.315 2.602-2.39 3.242-2.39s1.98-.9 2.975-2c1.123-1.241 1.349-2 .596-2-.668 0-.936-.45-.596-1s.147-1-.428-1c-.576 0-2.118-1.687-3.427-3.75s-3.507-4.875-4.884-6.25-3.687-4.25-5.132-6.39c-2.187-3.235-2.629-3.521-2.629-1.7 0 3.013-2.622 7.817-4.945 9.06-3.642 1.95-8.036 1.203-11.132-1.893-2.45-2.45-2.923-3.731-2.923-7.915 0-4.699-.279-5.239-4.75-9.196-2.612-2.313-6.223-4.915-8.024-5.782-2.61-1.257-2.965-1.751-1.75-2.43 1.922-1.076 1.937-2.64.047-4.729-.812-.897-1.6-2.733-1.75-4.078s-.634-2.713-1.074-3.038-.947-1.675-1.125-3C26.12 78.521 21.91 69 20.867 69c-.477 0-.874-.787-.882-1.75s-.47-2.425-1.026-3.25c-.689-1.023-.922 7.731-.735 27.5"/><path fill-opacity=".257" fill-rule="evenodd" d="M100.029 51.465c-1.306 1.574.456 4.853 5.882 10.94 1.424 1.597 2.032 2.586 1.35 2.198-.831-.475-1.043-.199-.645.839.327.851 1 1.296 1.496.989s1.204.258 1.572 1.256c.369.997 1.058 2.075 1.532 2.396.476.322.434 1.706-.093 3.093-.524 1.38-1.163 4.52-1.419 6.978-.456 4.375-.332 4.602 5.915 10.811 3.51 3.488 6.381 6.665 6.381 7.059s1.572 1.789 3.493 3.097c4.054 2.761 4.412 3.87 1.257 3.901-1.237.012-4.275.961-6.75 2.109l-4.5 2.087 4.5 1.965c2.475 1.08 5.287 2.027 6.25 2.104s1.75.402 1.75.725 1.546 1.145 3.435 1.828 3.636 2.011 3.884 2.951.501-7.663.565-19.118L136 78.846l2.923-2.923c3.839-3.839 7.977-3.878 12.19-.114 2.573 2.299 3.236 3.772 3.653 8.104.42 4.375 1.123 5.909 4.047 8.833 3.654 3.655 13.235 8.505 18.937 9.587l3.25.617v-9.926C181 82.712 179.505 73 177.917 73c-.504 0-.917-.655-.917-1.455s-1.098-2.552-2.439-3.893c-1.342-1.342-2.143-2.736-1.781-3.099.363-.362-.187-.334-1.221.063-1.55.594-1.784.353-1.333-1.373q.549-2.094-.674-1.624c-.672.257-2.309-.485-3.637-1.651s-1.74-1.784-.915-1.372c.982.489.831-.015-.437-1.459-1.065-1.214-2.551-1.972-3.302-1.684s-1.09.079-.754-.464c.336-.544-.091-.989-.948-.989S158 53.627 158 53.172c0-1.041-9.049-3.172-13.471-3.172-4.59 0-15.708 3.567-18.869 6.053l-2.616 2.057-4.508-2.642c-4.01-2.35-13.117-5.424-16.164-5.456-.62-.007-1.674.647-2.343 1.453M83.5 60c-4.526.645-7.154 1.945-5.81 2.875.497.344 3.118 3.55 5.825 7.125 7.051 9.311 7.114 9.363 8.672 7.167 3.478-4.901 9.678-5.456 13.89-1.244 3.548 3.549 3.685 2.257.489-4.609C102.678 62.963 93.677 58.548 83.5 60M18 110.867c0 4.689 2.042 13.228 4.167 17.428 3.901 7.712 15.101 17.584 18.478 16.288.817-.314 1.19-.125.848.428-.336.544-.172.989.365.989s1.202-.562 1.48-1.25c.301-.747.536-.545.583.5.043.963.481 1.75.972 1.75 1.117 0 2.243-2.758 1.301-3.185-.98-.445-7.206-8.391-11.215-14.315-1.861-2.75-3.855-5.507-4.431-6.127S28.825 121.235 28 120s-2.043-2.813-2.706-3.507-2.034-2.746-3.048-4.56c-2.483-4.445-4.246-4.888-4.246-1.066m137.711.474c-.399 1.066-.153 5.829.331 6.409.114.138.276.588.359 1 .224 1.109 9.747 15.585 11.019 16.75 3.346 3.063 6.423 7.746 5.931 9.027-.311.81-.04 1.473.601 1.473s.888-.45.548-1-.162-1 .396-1c.557 0 2.159-1.145 3.559-2.545 2.411-2.411 2.545-3.113 2.545-13.278 0-9.577-.22-10.921-2.047-12.485-1.125-.964-2.475-1.487-3-1.163s-.953.225-.953-.22-2.347-.938-5.214-1.097c-2.868-.158-5.543-.82-5.946-1.471-.402-.65-1.015-.9-1.361-.553-.346.346-1.913.261-3.482-.189-1.92-.55-2.994-.439-3.286.342M45.507 122.5c1.803 11.59 8.344 17.7 19.632 18.338 4.554.257 6.861.018 6.861-.711 0-1.767-11.146-15.155-12.117-14.555-.486.3-.883.179-.883-.27s-1.913-.693-4.25-.542c-4.365.281-6.467-.757-8.63-4.26-1.064-1.724-1.149-1.448-.613 2"/></svg>