<!-- Generated by IcoMoon.io -->
<svg version="1.1" xmlns="http://www.w3.org/2000/svg" width="32" height="32" viewBox="0 0 32 32" fill="#000000">
<title>urus</title>
<path d="M32 7.2c-1.238 2.517-3.091 3.904-5.558 4.16l-0.152 0.014c-1.835 0.154-3.244 0.587-4.229 1.297 0.866 1.006 0.885 2.236 0.503 2.967l-0.036 0.065-4.484 7.843c-0.201 0.347-0.488 0.636-0.833 0.84s-0.736 0.315-1.136 0.323c-0.4 0.008-0.795-0.087-1.148-0.277s-0.651-0.467-0.866-0.806l-0.048-0.079-4.493-7.842c-0.411-0.708-0.345-1.948 0.498-2.974-0.952-0.72-2.322-1.167-4.11-1.34l-0.2-0.018c-2.543-0.214-4.446-1.605-5.71-4.174 1.493 1.366 3.049 2.255 4.668 2.668 2.158 0.551 4.647-0.367 7.753 1.407 2.371-0.734 4.657-0.737 7.167-0.005 3.102-1.768 5.589-0.852 7.744-1.402 1.618-0.413 3.174-1.302 4.668-2.668z"/>
</svg>
