<svg xmlns="http://www.w3.org/2000/svg" fill="#000000"><symbol id="a" fill="#000000" viewBox="0 0 32 32"><path d="M14.816 8.621V7.434a1.19 1.19 0 0 1 2.367-.261v.005a1.019 1.019 0 0 1-.001.261v-.005 1.171a4.487 4.487 0 0 1 4.032 3.351l.007.031a.64.64 0 0 1-.453.811l-.004.001a7.725 7.725 0 0 1-.878.025h.01-.001c-.533 0-.993-.312-1.208-.763l-.003-.008a2.86 2.86 0 0 0-2.694-1.436l.009-.001c-1.699 0-2.714 1.043-2.714 1.997s.8 1.427 2.499 1.92l1.683.368c2.854.64 4.16 1.872 4.16 4.013a4.44 4.44 0 0 1-4.384 4.378h-.003v1.427a1.21 1.21 0 0 1-1.166 1.255h-.076a1.197 1.197 0 0 1-1.184-1.197V23.36a4.625 4.625 0 0 1-4.419-3.488l-.007-.032a.568.568 0 0 1 .435-.678l.004-.001h.032a5.536 5.536 0 0 1 1.024.001l-.022-.002c.447.003.834.26 1.024.633l.003.007a3.22 3.22 0 0 0 3.127 1.431l-.016.002c1.699 0 2.998-1.011 2.998-2.038s-.742-1.642-2.56-2.07l-1.869-.387c-2.653-.557-3.907-1.898-3.907-3.939a4.38 4.38 0 0 1 4.143-4.179z"/><path d="M1.085 16c.006-6.542 4.231-12.096 10.1-14.088l.105-.031c.32-.138.781-.026.858.32.009.038.017.084.022.132v.005a5.327 5.327 0 0 1-.001.602l.001-.014a1.572 1.572 0 0 1-.959 1.433l-.01.004C6.599 6.27 3.42 10.726 3.42 15.925s3.179 9.655 7.698 11.531l.083.03c.569.241.965.785.986 1.425v.358a.858.858 0 0 1-.827.829h-.001a1.277 1.277 0 0 1-.182-.044l.009.002C5.273 28.008 1.1 22.492 1.087 16v-.002zM30.915 16c-.001 6.526-4.199 12.072-10.043 14.084l-.105.031a.7.7 0 0 1-.927-.392l-.002-.005a1.345 1.345 0 0 1-.039-.327l.001-.05v.002-.259c.019-.669.418-1.24.988-1.506l.011-.004c4.6-1.902 7.777-6.353 7.777-11.547S25.398 6.382 20.881 4.51l-.083-.03a1.69 1.69 0 0 1-1.027-1.512V2.71a.81.81 0 0 1 .703-.86h.004l.049-.001a.95.95 0 0 1 .307.051l-.007-.002c5.915 2.048 10.086 7.571 10.086 14.068v.036V16z"/></symbol><use href="#a"/></svg>