<svg xmlns="http://www.w3.org/2000/svg" width="24" height="24" fill="#000000"><g clip-path="url(#a)"><mask id="b" width="19" height="15" x="5" y="9" maskUnits="userSpaceOnUse" style="mask-type:alpha"><path fill="#000000" d="M5.463 9.9h18.47v13.38H5.463z"/></mask><g mask="url(#b)"><path fill="#8f8f8f" fill-rule="evenodd" d="M22.847 9.9c1.976 2.994 1.225 5.8-1.995 7.253-1.888.852-3.52 2.048-5.03 3.439-.053.05-.112.094-.162.147-3.29 3.544-6.481 3.303-10.197-.231l.117-.13c1.09-.195 2.178.027 3.264.05 3.43.07 6.274-1.186 8.677-3.564 2.03-1.62 3.434-3.714 4.576-6.013.177-.357.183-.887.75-.95" clip-rule="evenodd"/></g><path fill="#474747" fill-rule="evenodd" d="M5.463 20.507c-.993-.246-1.997-.447-2.924-.914C.566 18.601-.314 16.877.1 14.702c.116-.607.26-1.224.5-1.79.817-1.93 1.307-3.94 1.725-5.987.744-3.64 1.692-4.406 5.384-4.63.145-.01.289-.045.433-.068.402-.176.807-.371 1.127.134-.022.07-.05.17-.104.18-2.106.332-2.993 2.07-3.98 3.595-1.838 2.837-2.74 5.933-2.067 9.35.092.467.234.917.502 1.316.488 1.293 1.421 2.353 1.92 3.642z" clip-rule="evenodd"/><path fill="#2e2e2e" fill-rule="evenodd" d="M9.247 2.426c-.33-.28-.738-.126-1.105-.2 1.708-1.63 3.6-2.06 5.445-.887 2.092 1.33 4.35 1.936 6.744 2.322 2.465.398 3.182 1.403 2.994 3.914-.051.689-.144 1.373-.511 1.983-.68-.088-.857-.723-1.22-1.145-1.585-1.85-3.41-3.34-5.82-3.976-.267-.074-.524-.176-.781-.275-1.488-.688-3.07-1.032-4.67-1.33-.376-.07-.809-.031-1.076-.406" clip-rule="evenodd"/><path fill="#a6a6a6" fill-rule="evenodd" d="M15.784 4.213c2.5.487 4.24 2.126 5.885 3.899.417.449.765.962 1.145 1.445l.034.342c-1.092 2.346-2.354 4.579-4.239 6.397-.253.244-.433.597-.84.647-.258-.753.378-1.204.623-1.777 1.347-3.153 1.286-6.16-.817-8.993-.31-.417-.708-.728-1.104-1.053-.295-.242-.716-.411-.687-.907" clip-rule="evenodd"/><path fill="#cccccc" fill-rule="evenodd" d="M15.783 4.214c4.692 2.958 4.606 8.905 2.14 12.326-.081.113-.104.268-.153.404-2.02 2.243-4.545 3.503-7.543 3.736-1.563.12-3.138.1-4.688-.236-.998-.956-1.473-2.22-2.036-3.434-1.121-3.504-.623-6.776 1.79-9.543 2.576-2.95 5.793-4.483 9.837-3.477z" clip-rule="evenodd"/><path fill="#737373" fill-rule="evenodd" d="M15.13 3.99c-3.537-.36-6.637.553-9.168 3.138-2.427 2.478-2.996 5.497-2.59 8.805l.131 1.078c-1.219-1.64-1.026-3.545-.776-5.348.438-3.147 2.009-5.8 4.061-8.198.682-.797 1.442-1.159 2.46-1.038 2.041.217 4.052.55 5.883 1.564" clip-rule="evenodd"/><path fill="#000000" fill-rule="evenodd" d="M17.558 12.154c0 3.473-2.646 6.123-6.096 6.105-3.419-.018-6.225-2.826-6.201-6.206.024-3.506 3.116-6.55 6.63-6.526 3.316.023 5.667 2.772 5.667 6.627" clip-rule="evenodd"/></g><defs><clipPath id="a"><path fill="#000000" d="M0 0h24v24H0z"/></clipPath></defs></svg>