<svg xmlns="http://www.w3.org/2000/svg" fill="#000000"><symbol id="a" fill="#000000" viewBox="0 0 32 32"><path d="M32.014 15.196c0-2.004-5.474-3.683-12.741-4.078V7.915h9.072v-6.66H3.541v6.66h9.072v3.217C5.474 11.541.14 13.206.14 15.195s5.333 3.64 12.473 4.064v11.499h6.66V19.273c7.266-.395 12.741-2.074 12.741-4.078zm-15.943 1.975c-7.802 0-14.123-1.213-14.123-2.695 0-1.256 4.529-2.328 10.667-2.61v3.88c1.101.056 2.272.099 3.471.099 1.101 0 2.173-.028 3.203-.085v-3.908c6.265.282 10.921 1.34 10.921 2.624-.014 1.481-6.335 2.695-14.138 2.695z"/></symbol><use href="#a"/></svg>