<svg xmlns="http://www.w3.org/2000/svg" width="200" height="200" fill="#000000"><path fill-opacity=".306" fill-rule="evenodd" d="M0 13.351c0 .193 7.785 13.805 17.3 30.25 9.515 16.444 31.89 55.216 49.722 86.158 17.832 30.943 32.762 56.143 33.177 56 .414-.142 22.399-37.834 48.855-83.759s48.966-84.719 50.023-86.21S201 12.878 201 12.629c0-.624-10.528 1.912-16 3.853-7.194 2.553-17.55 9.165-24.421 15.593-7.885 7.376-13.681 16.152-18.098 27.402-4.29 10.927-6.288 14.133-12.332 19.787-13.635 12.754-34.169 15.382-51.444 6.582-8.72-4.441-16.137-13.417-20.317-24.586-4.377-11.698-9.259-19.311-17.8-27.763-9.304-9.206-17.797-14.504-28.89-18.023C4.668 13.245 0 12.397 0 13.351"/><path fill-opacity=".384" fill-rule="evenodd" d="M1.385 14.56c.299.781 6.569 11.887 13.931 24.68L53.162 105c13.453 23.375 29.382 51.145 35.399 61.712S99.725 185.928 100 185.934c.275.005 2.551-3.69 5.058-8.212s13.045-22.847 23.419-40.722 30.669-53.068 45.101-78.207c25.708-44.779 26.176-45.694 23.081-45.103-4.374.836-16.792 5.041-17.754 6.012-.435.439-1.528 4.398-2.428 8.798C170.768 56.397 151.79 77.612 124 87.163c-8.925 3.067-10.347 3.267-23.5 3.301-11.883.031-15.106-.311-21.312-2.262-20.665-6.493-35.651-17.834-46.103-34.888C29.36 47.235 24.526 34.411 23.544 28c-.38-2.475-.923-5.321-1.208-6.325-.606-2.135-7.394-5.245-15.657-7.173-5.026-1.172-5.763-1.164-5.294.058"/><path fill-opacity=".055" fill-rule="evenodd" d="M24.297 44.81c-3.753.363-3.815.053 2.727 13.505 4.104 8.437 4.272 8.622 9.328 10.277 2.831.926 7.398 2.791 10.148 4.144l5 2.46-7.206-7.348c-3.964-4.041-9.364-10.948-12-15.348-4.542-7.58-4.962-7.984-7.997-7.69m147.139 1.391c-1.294 4.077-10.824 17.167-16.602 22.803-16.799 16.387-41.459 24.964-63.387 22.046-8.48-1.129-16.503-3.308-23.665-6.43-3.335-1.453-2.871-.787 4.5 6.469 4.52 4.449 7.619 7.774 6.886 7.39-1.333-.699-26.279-.701-26.978-.002-.204.204.88 3.217 2.408 6.697C57.955 112.817 99.073 185 100.07 185c.387 0 1.304-3.037 2.038-6.75 1.761-8.903 1.553-27.074-.403-35.25-1.474-6.162-1.45-6.812.458-12.5 2.123-6.329 8.674-19.454 11.602-23.246 1.658-2.147 1.722-1.105 1.451 23.43l-.283 25.676 3.021-3.93c1.662-2.162 3.477-4.474 4.034-5.138s1.012-1.616 1.012-2.115.842-1.98 1.871-3.292c2.377-3.03 39.953-67.663 44.894-77.219 2.037-3.941 4.087-7.441 4.555-7.778s.866-1.011.885-1.5c.044-1.134 1.562-5.169 3.155-8.388 1.21-2.446 1.155-2.5-2.573-2.5-2.71 0-3.967.492-4.351 1.701"/><path fill-opacity=".223" fill-rule="evenodd" d="M159.123 69.979c-4.058 1.6-10.022 4.765-13.255 7.033-12.877 9.032-30.785 14.922-45.511 14.966-8.079.025-20.45-2.271-27.797-5.158l-4.941-1.941 7.527 7.879c9.098 9.522 16.691 21.552 20.838 33.011 1.692 4.677 2.879 8.701 2.638 8.943s-.736-.495-1.098-1.637c-.623-1.964-1.375-2.075-14.03-2.075H70.122l3.689 7.827c5.419 11.499 25.571 46.196 26.355 45.376 2.88-3.013 3.662-26.615 1.295-39.093-1.807-9.527-1.305-12.274 4.527-24.783 4.51-9.675 8.362-15.546 15.894-24.228 4.927-5.68 12.36-12.096 14.018-12.101.33-.001.375 8.56.1 19.023-.404 15.374-.26 18.696.75 17.311.688-.943 1.25-2.204 1.25-2.802 0-.599.876-1.72 1.946-2.491 1.071-.772 1.762-1.703 1.535-2.07s.379-1.522 1.344-2.568C144.593 108.488 168 68.679 168 67.586c0-.964-1.157-.652-8.877 2.393"/></svg>