<svg xmlns="http://www.w3.org/2000/svg" width="64" height="64" version="1.1" fill="#000000"><path fill-opacity=".035" d="M 24.750 1.080 C 21.732 2.838, 22.798 5.358, 29.277 11.779 C 35.602 18.048, 37.599 19.001, 39.800 16.800 C 42.031 14.569, 41.020 12.462, 34.723 6.221 C 28.157 -0.286, 27.594 -0.577, 24.750 1.080 M 45.067 6.874 C 44.480 7.971, 44 12.248, 44 16.378 C 44 22.933, 44.274 24.078, 46.155 25.396 C 47.726 26.496, 48.819 26.632, 50.190 25.898 C 51.866 25.002, 52.040 23.832, 51.786 15.196 C 51.500 5.503, 51.499 5.500, 48.817 5.190 C 46.951 4.974, 45.810 5.487, 45.067 6.874 M 5.012 13.977 C 4.172 15.547, 4.370 16.370, 5.977 17.977 C 8.783 20.783, 21.640 20.922, 25.022 18.183 C 26.933 16.636, 27.093 16.042, 26.098 14.183 C 25.024 12.176, 24.170 12, 15.500 12 C 7.130 12, 5.951 12.222, 5.012 13.977 M 5.632 28.867 C 1.249 33.296, -0.091 35.318, 0.163 37.117 C 0.401 38.801, 1.233 39.584, 3 39.788 C 4.936 40.011, 6.932 38.629, 11.850 33.660 C 17.513 27.939, 18.078 27.014, 17.065 25.122 C 15.121 21.490, 11.882 22.550, 5.632 28.867 M 52.151 29.421 C 46.699 35.099, 46.035 36.197, 46.983 37.968 C 48.876 41.505, 52.172 40.394, 58.368 34.133 C 62.751 29.704, 64.091 27.682, 63.837 25.883 C 63.597 24.186, 62.766 23.415, 60.953 23.203 C 58.940 22.969, 57.096 24.271, 52.151 29.421 M 12.557 39.223 C 9.062 44.212, 11.263 59, 15.500 59 C 16.263 59, 17.587 58, 18.443 56.777 C 20.619 53.671, 20.609 40.752, 18.429 38.571 C 16.256 36.399, 14.390 36.606, 12.557 39.223 M 38.571 45.571 C 36.554 47.589, 36.594 48.322, 38.829 50.345 C 41.381 52.655, 56.139 52.718, 58.429 50.429 C 59.293 49.564, 60 48.471, 60 48 C 60 47.529, 59.293 46.436, 58.429 45.571 C 57.251 44.394, 54.764 44, 48.500 44 C 42.236 44, 39.749 44.394, 38.571 45.571 M 24.200 47.200 C 21.927 49.473, 23.018 51.701, 29.413 57.841 C 35.942 64.110, 37.666 64.934, 39.800 62.800 C 42.031 60.569, 41.020 58.462, 34.723 52.221 C 28.398 45.952, 26.401 44.999, 24.200 47.200" stroke="none" fill="#000000" fill-rule="evenodd"/><path fill-opacity=".082" d="M 24.571 1.571 C 23.707 2.436, 23 3.636, 23 4.238 C 23 5.666, 35.334 18, 36.762 18 C 38.178 18, 41 15.178, 41 13.762 C 41 12.334, 28.666 0, 27.238 0 C 26.636 0, 25.436 0.707, 24.571 1.571 M 46.210 5.849 C 45.271 6.445, 44.999 9.224, 45.210 16.084 L 45.500 25.500 48.500 25.500 L 51.500 25.500 51.790 16.651 C 52.135 6.155, 50.553 3.094, 46.210 5.849 M 6.163 12.878 C 5.427 13.345, 4.977 14.800, 5.163 16.113 C 5.493 18.447, 5.721 18.500, 15.500 18.500 C 25.279 18.500, 25.507 18.447, 25.837 16.113 C 26.023 14.800, 25.573 13.345, 24.837 12.878 C 23.098 11.776, 7.902 11.776, 6.163 12.878 M 6.151 28.805 C 1.077 33.391, -0.129 35.042, 0.151 37.022 C 0.393 38.743, 1.229 39.603, 2.883 39.837 C 4.682 40.091, 6.704 38.751, 11.133 34.368 C 17.067 28.496, 18.537 24.804, 15.418 23.607 C 12.971 22.668, 12.892 22.712, 6.151 28.805 M 52.878 28.697 C 48.188 33.172, 46.969 34.943, 47.203 36.947 C 47.747 41.621, 51.329 40.782, 58.001 34.417 C 64 28.695, 65.053 26.453, 62.800 24.200 C 60.695 22.095, 58.989 22.868, 52.878 28.697 M 13.200 38.200 C 12.450 38.950, 12 42.678, 12 48.150 C 12 55.394, 12.297 57.067, 13.724 57.866 C 14.818 58.478, 16.098 58.483, 17.224 57.880 C 18.718 57.081, 19 55.537, 19 48.165 C 19 39.670, 18.163 37, 15.500 37 C 14.895 37, 13.860 37.540, 13.200 38.200 M 39.200 45.200 C 37.398 47.002, 37.754 49.798, 39.934 50.965 C 40.998 51.534, 44.853 52, 48.500 52 C 55.825 52, 59 50.840, 59 48.165 C 59 44.858, 56.836 44, 48.500 44 C 43.533 44, 39.936 44.464, 39.200 45.200 M 24.571 47.571 C 23.707 48.436, 23 49.654, 23 50.278 C 23 51.650, 35.491 64, 36.878 64 C 38.201 64, 41 61.122, 41 59.762 C 41 59.160, 38.150 55.817, 34.667 52.333 C 31.183 48.850, 27.840 46, 27.238 46 C 26.636 46, 25.436 46.707, 24.571 47.571" stroke="none" fill="#000000" fill-rule="evenodd"/><path fill-opacity=".172" d="M 24.667 1.667 C 23.003 3.330, 24.429 5.987, 29.877 11.378 C 35.890 17.329, 39.111 18.376, 39.836 14.616 C 40.070 13.400, 38.177 10.715, 34.378 6.877 C 28.987 1.429, 26.330 0.003, 24.667 1.667 M 46.080 6.403 C 44.203 8.665, 45.084 24.028, 47.166 25.337 C 48.373 26.095, 49.269 26.021, 50.416 25.070 C 51.630 24.062, 52 21.804, 52 15.413 C 52 8.188, 51.741 6.932, 50.066 6.035 C 47.596 4.713, 47.473 4.725, 46.080 6.403 M 5.930 13.584 C 4.977 14.733, 4.904 15.625, 5.667 16.834 C 7.209 19.279, 23.791 19.279, 25.333 16.834 C 26.096 15.625, 26.023 14.733, 25.070 13.584 C 23.180 11.307, 7.820 11.307, 5.930 13.584 M 6.377 29.193 C -0.094 35.408, -0.920 37.391, 2.156 39.329 C 3.492 40.170, 4.944 39.346, 9.656 35.073 C 16.494 28.872, 17.813 26.685, 16.020 24.524 C 15.324 23.686, 14.321 23, 13.791 23 C 13.261 23, 9.925 25.787, 6.377 29.193 M 53.432 29.141 C 46.866 35.446, 46.071 37.386, 49.235 39.378 C 50.690 40.294, 52.026 39.425, 57.485 34.015 C 61.068 30.463, 64 26.998, 64 26.314 C 64 25.630, 63.086 24.581, 61.968 23.983 C 60.197 23.035, 59.100 23.698, 53.432 29.141 M 12.628 39.528 C 11.824 41.622, 11.809 54.337, 12.607 56.418 C 12.941 57.288, 14.282 58, 15.588 58 C 18.599 58, 19.189 55.790, 18.799 45.988 C 18.510 38.740, 18.416 38.490, 15.878 38.196 C 14.169 37.998, 13.037 38.462, 12.628 39.528 M 38.376 46.464 C 38.051 47.309, 38.051 48.691, 38.376 49.536 C 38.861 50.802, 40.690 51.022, 48.733 50.786 C 58.408 50.503, 58.500 50.476, 58.500 48 C 58.500 45.524, 58.408 45.497, 48.733 45.214 C 40.690 44.978, 38.861 45.198, 38.376 46.464 M 24.667 47.667 C 23.003 49.330, 24.429 51.987, 29.877 57.378 C 35.890 63.329, 39.111 64.376, 39.836 60.616 C 40.070 59.400, 38.177 56.715, 34.378 52.877 C 28.987 47.429, 26.330 46.003, 24.667 47.667" stroke="none" fill="#000000" fill-rule="evenodd"/><path fill-opacity=".113" d="M 24.617 1.717 C 23.610 2.723, 25.505 5.697, 30.532 11 C 36.096 16.869, 39 18.148, 39 14.729 C 39 10.793, 26.683 -0.350, 24.617 1.717 M 47.750 6.716 C 45.014 7.131, 45 7.173, 45 15.138 C 45 21.036, 45.408 23.551, 46.551 24.693 C 47.951 26.094, 48.241 26.063, 49.547 24.372 C 50.568 23.049, 50.953 20.083, 50.860 14.250 C 50.787 9.713, 50.677 6.067, 50.614 6.150 C 50.551 6.232, 49.263 6.487, 47.750 6.716 M 5.495 15.008 C 3.987 17.448, 7.878 19, 15.500 19 C 22.989 19, 26 17.873, 26 15.071 C 26 13.673, 6.358 13.611, 5.495 15.008 M 5.601 30.365 C 2.796 33.591, 0.693 36.516, 0.929 36.865 C 2.982 39.908, 3.825 39.580, 10.424 33.172 C 14.162 29.543, 16.718 26.406, 16.104 26.201 C 15.490 25.997, 15.172 25.530, 15.398 25.165 C 15.624 24.799, 14.660 24.500, 13.256 24.500 C 11.388 24.500, 9.333 26.075, 5.601 30.365 M 52.750 30.396 C 49.587 33.639, 47 36.514, 47 36.786 C 47 37.057, 47.762 37.837, 48.693 38.518 C 49.952 39.438, 50.685 39.466, 51.548 38.628 C 52.186 38.008, 55.317 35.048, 58.505 32.050 C 61.694 29.053, 63.782 26.427, 63.145 26.215 C 62.508 26.003, 62.172 25.530, 62.398 25.165 C 62.624 24.799, 61.839 24.500, 60.655 24.500 C 59.342 24.500, 56.252 26.805, 52.750 30.396 M 13.250 39.662 C 12.407 40.003, 12 42.594, 12 47.626 C 12 56.130, 13.155 58.342, 16.740 56.709 C 18.803 55.769, 19 55.005, 19 47.946 C 19 41.818, 18.672 40.088, 17.418 39.607 C 15.647 38.927, 15.052 38.935, 13.250 39.662 M 48.329 45.925 C 38.984 46.511, 36.400 47.376, 39.029 49.039 C 41.053 50.319, 56.152 50.215, 58 48.909 C 59.135 48.106, 59.194 47.724, 58.244 47.338 C 57.553 47.058, 57.242 46.418, 57.553 45.915 C 57.864 45.412, 57.979 45.079, 57.809 45.175 C 57.639 45.272, 53.373 45.609, 48.329 45.925 M 24.885 47.861 C 24.408 50.499, 25.125 51.753, 29.966 56.755 C 35.721 62.702, 39 64.124, 39 60.673 C 39 56.908, 25.469 44.626, 24.885 47.861" stroke="none" fill="#000000" fill-rule="evenodd"/></svg>