<svg xmlns="http://www.w3.org/2000/svg" width="64" height="64" fill="#000000"><path fill-opacity=".165" fill-rule="evenodd" d="M22.396 1.418C16.515 3.259 9.526 8.375 6.111 13.339c-14.238 20.694-1.366 48.426 23.4 50.414 14.424 1.158 27.992-7.701 32.552-21.253.74-2.2 1.703-4.428 2.141-4.95.966-1.153 1.079-13.167.115-12.203-.374.375-1.328-1.235-2.12-3.578C56.722 5.566 38.656-3.671 22.396 1.418M.32 32c0 3.575.182 5.038.403 3.25s.222-4.712 0-6.5C.502 26.962.32 28.425.32 32"/><path fill-opacity=".502" fill-rule="evenodd" d="M14.849 23.25a5271 5271 0 0 1 9.943 17.58l6.946 12.331 1.997-3.331C37.961 42.784 51 19.215 51 18.623c0-.343-2.613-.623-5.807-.623h-5.807L36 25c-1.863 3.85-3.74 7-4.173 7S30.122 30.2 29 28c-1.343-2.632-2.717-4-4.02-4-1.089 0-1.967.337-1.95.75.016.413 1.99 4.288 4.386 8.612l4.357 7.862 4.553-8.362c2.505-4.599 4.854-9.15 5.221-10.112.587-1.54 3.453-2.572 3.453-1.243 0 .916-12.153 23.47-12.893 23.927C31.49 45.815 19 23.981 19 22.52c0-.286 2.26-.52 5.021-.52 4.386 0 5.166.316 6.161 2.5.626 1.375 1.469 2.5 1.872 2.5 1.619 0 1.844-3.297.413-6.063L30.949 18H11.853z"/><path fill-opacity=".538" fill-rule="evenodd" d="M16.434 25.211a2510 2510 0 0 1 9.33 16.557c5.031 9.006 5.89 10.057 6.99 8.553C34.463 47.985 50 20.279 50 19.568c0-.312-2.388-.568-5.307-.568h-5.307L36 26c-1.863 3.85-3.667 7-4.009 7s-1.634-1.8-2.871-4c-1.236-2.2-2.894-4-3.684-4-2.049 0-1.843.701 2.442 8.331l3.837 6.83 2.518-4.33c1.385-2.382 3.706-6.693 5.159-9.581C41.25 22.558 42.625 21 44.026 21c1.757 0 1.313 1.275-3.767 10.822-9.316 17.505-7.697 17.195-15.388 2.953L18.241 22.5l5.611-.307c3.085-.169 5.738.056 5.895.5s.704 1.469 1.215 2.278c1.454 2.301 2.517.295 1.453-2.741-.94-2.678-1.135-2.735-10.266-3.019l-9.308-.288z"/><path fill-opacity=".918" fill-rule="evenodd" d="M15.658 23.505c1.385 2.477 2.901 4.267 3.37 3.978.468-.289.792.271.72 1.245-.182 2.45 7.209 15.417 8.375 14.696.52-.322-1.544-5.228-4.588-10.903S18 21.932 18 21.601 20.461 21 23.468 21c4.946 0 5.607.263 6.923 2.75 1.209 2.286 1.565 2.468 2.109 1.078.36-.919.154-2.607-.458-3.75C31.044 19.213 30.018 19 22.035 19h-8.894zM36 26c-1.863 3.85-3.74 7-4.173 7S30.122 31.2 29 29s-2.707-4-3.52-4c-1.986 0-2.023-.126 2.425 8.072l3.905 7.196 1.718-3.384c.946-1.861 3.32-6.274 5.277-9.805 1.958-3.532 3.027-6.093 2.377-5.691-.65.401-1.182.253-1.182-.329 0-.59 2.017-1.059 4.559-1.059 2.833 0 4.321.385 3.931 1.016-.346.559-1.032.767-1.525.462-1.175-.726-6.83 10.605-6.194 12.411.291.827.045 1.115-.608.712-.663-.41-2.34 1.805-4.248 5.611-3.887 7.755-3.657 7.523-5.273 5.314-2.113-2.891-2.635-.38-.699 3.363l1.752 3.388 3.349-5.854c1.842-3.219 3.288-6.666 3.213-7.66s.247-1.569.716-1.28C39.639 37.895 50 20.869 50 19.363c0-.2-2.388-.363-5.307-.363h-5.307zm-19.305-2.513c.915 1.919 1.844 3.307 2.065 3.086s-.105-1.35-.725-2.508-.855-2.547-.522-3.086-.089-.979-.938-.979c-1.367 0-1.354.396.12 3.487m13.509-1.532c.671 1.075 1.36 1.814 1.532 1.643.592-.593-.954-3.598-1.851-3.598-.496 0-.353.88.319 1.955m5.847 5.944C34.357 31.254 32.521 34 31.971 34c-.893 0-4.376-4.902-5.33-7.5-.202-.55-.566-.775-.81-.5-.243.275.981 3.134 2.721 6.352l3.164 5.853 4.173-7.738c2.296-4.255 3.964-7.947 3.708-8.203-.256-.257-1.852 2.279-3.546 5.635m8.151-1.377C43.005 28.985 42.236 31 42.493 31c.677 0 4.718-8.123 4.265-8.575-.209-.21-1.36 1.634-2.556 4.097M22.5 34c.853 1.65 1.776 3 2.051 3s-.198-1.35-1.051-3-1.776-3-2.051-3 .198 1.35 1.051 3m8.156 14.545c.304.794.956 1.195 1.449.89 1.24-.766 1.126-1.132-.554-1.777q-1.45-.557-.895.887"/></svg>