<svg width="301" height="500" viewBox="0 0 301 500" fill="#000000" xmlns="http://www.w3.org/2000/svg">
<path fill-rule="evenodd" clip-rule="evenodd" d="M142.124 1.89126C130.331 7.20639 126.194 20.7756 132.976 31.8999C136.341 37.4192 136.415 38.6837 134.575 59.3506C131.472 94.2232 131.695 93.5592 121.715 97.6493C116.997 99.5812 110.704 102.227 107.73 103.527C104.757 104.828 101.405 105.891 100.283 105.891C96.4722 105.891 55.334 127.052 54.3973 129.495C53.8843 130.832 55.3477 133.809 57.6519 136.111L61.8381 140.297L69.4728 136.329C76.1279 132.868 82.0555 130.159 107.989 118.719C110.82 117.472 115.453 115.897 118.283 115.223C121.114 114.549 124.202 113.411 125.146 112.697C126.09 111.982 132.024 109.813 138.334 107.876L149.807 104.354L163.212 108.7C170.584 111.09 177.35 113.751 178.246 114.616C179.143 115.479 181.384 116.185 183.226 116.185C185.069 116.185 191.481 118.502 197.472 121.332C203.463 124.163 208.943 126.49 209.648 126.502C210.353 126.514 216.958 129.602 224.327 133.364C241.276 142.018 246.1 141.057 246.1 129.032C246.1 127.128 209.26 107.607 205.664 107.607C205.237 107.607 201.615 106.161 197.614 104.394C193.615 102.625 187.238 100.331 183.446 99.2964C171.627 96.0675 171.006 94.9918 167.966 72.4359C166.439 61.1126 164.78 48.9142 164.28 45.3284C163.632 40.6773 164.188 37.9082 166.216 35.6658C181.262 19.0393 162.486 -7.28583 142.124 1.89126ZM109.705 156.776C104.043 159.072 95.4068 162.845 90.512 165.161C85.6172 167.475 81.1496 169.371 80.5834 169.371C79.7376 169.371 62.9876 178.67 40.2207 191.779C18.4575 204.309 2.43667 216.109 1.34551 220.41C-0.751032 228.678 -0.275799 296.581 1.92883 304.051C3.04401 307.825 4.87463 316.704 5.99667 323.781C7.12043 330.858 9.01109 338.578 10.1983 340.937C11.3856 343.296 12.9262 347.929 13.6228 351.231C14.3194 354.534 17.1142 362.03 19.8335 367.887C22.5545 373.746 24.7798 379.015 24.7798 379.598C24.7798 382.695 43.4136 411.654 53.4451 424.147C71.6946 446.874 104.785 475.137 126.862 486.851C129.693 488.354 136.26 491.926 141.457 494.791L150.903 500L166.337 491.24C180.114 483.42 190.564 476.754 207.357 465.078C230.531 448.962 266.537 403.219 278.741 374.393C280.738 369.675 283.426 363.498 284.715 360.667C291.795 345.115 296.678 323.302 299.506 294.599C301.825 271.051 300.736 221.75 297.776 216.313C296.611 214.174 268.632 195.106 266.658 195.106C265.985 195.106 263.405 193.509 260.922 191.556C254.27 186.323 204.945 161.439 196.175 158.892C192.023 157.686 186.848 155.575 184.678 154.201C182.171 152.617 180.131 152.302 179.092 153.342C177.409 155.025 179.258 211.003 182.538 257.728C188.296 339.714 187.948 356.735 180.2 371.819C156.918 417.14 152.257 425.689 150.505 426.274C148.858 426.823 136.554 404.185 117.858 366.211L113.83 358.029L116.492 291.579C117.957 255.032 119.93 213.549 120.878 199.395C122.916 168.906 123.062 152.141 121.286 152.408C120.579 152.516 115.367 154.481 109.705 156.776Z" fill="#000000"/>
</svg>
