<svg width="489" height="500" viewBox="0 0 489 500" fill="#000000" xmlns="http://www.w3.org/2000/svg">
<path fill-rule="evenodd" clip-rule="evenodd" d="M173.127 3.49025C132.46 14.7802 96.9936 38.3084 71.4662 70.9328C61.8675 83.2008 43.4507 116.876 43.4507 122.16C43.4507 124.087 39.1957 132.726 33.9978 141.361C3.37255 192.218 -8.64683 269.757 6.59286 318.161C10.0968 329.286 14.522 346.901 16.4267 357.302C19.7685 375.556 33.1522 406.587 42.8212 418.496C58.404 437.69 84.9121 459.025 97.4826 462.491C101.197 463.515 106.668 465.33 109.64 466.524C119.382 470.439 140.605 474.821 149.823 474.821C154.791 474.821 168.008 479.049 179.19 484.214C226.794 506.211 277.447 505.211 328.928 481.264C339.58 476.307 353.561 471.482 359.996 470.542C419.934 461.77 461.155 425.193 481.528 362.705C488.565 341.122 490.697 270.294 484.78 254.641C483.094 250.184 479.55 238.634 476.905 228.976C474.258 219.318 471.08 210.262 469.846 208.849C468.611 207.439 467.601 201.209 467.601 195.009C467.601 127.177 413.877 61.8204 350.082 52.046C342.247 50.8465 335.19 46.6914 324.416 36.9441C316.244 29.5498 299.248 18.4328 286.651 12.238L263.744 0.980473L225.865 0.172694C198.093 -0.418955 184.023 0.46717 173.127 3.49025ZM255.212 10.4442C276.528 16.1931 298.965 26.9671 310.989 37.2332C323.239 47.6856 320.629 48.642 303.479 39.9861C271.238 23.7117 257.271 20.205 224.222 20.0888C180.227 19.9321 142.507 35.5528 109.64 67.5396C96.0156 80.7963 68.0082 100.445 65.8334 98.2676C65.1877 97.6219 68.0919 91.8161 72.2902 85.3647C96.4776 48.1881 133.246 23.4929 183.934 10.3793C197.485 6.87265 242.123 6.91317 255.212 10.4442ZM265.27 36.2552C275.512 38.7271 283.893 41.8961 283.893 43.2982C283.893 44.7463 281.85 44.9138 279.165 43.6873C257.668 33.8724 182.861 41.9934 150.839 57.6194C130.974 67.3127 126.598 66.1645 142.734 55.4959C177.569 32.4621 221.183 25.6136 265.27 36.2552ZM291.997 59.8563C313.286 66.794 338.362 78.5864 346.859 85.6565C378.886 112.319 388.074 122.047 401.849 143.876C409.56 156.101 415.074 167.396 423.978 189.225C432.948 211.208 433.455 293.587 424.7 305.971C423.649 307.457 420.509 315.359 417.727 323.532C412.172 339.833 391.159 372.82 377.611 386.503C364.654 399.59 340.415 418.088 336.22 418.088C334.185 418.088 332.508 419.001 332.491 420.114C332.462 421.908 319.934 428.221 304.154 434.394C232.127 462.577 149.893 444.198 94.0569 387.438C54.2084 346.93 38.0259 306.876 38.0394 248.781C38.0718 115.379 167.311 19.2351 291.997 59.8563ZM385.481 74.2099C406.675 86.051 440.585 125.3 440.585 137.984C440.585 139.888 441.674 142.601 443.003 144.011C444.332 145.421 446.25 150.527 447.269 155.355C449.554 166.199 444.027 165.289 437.173 153.691C432.453 145.697 388.182 101.269 374.396 90.6896C364.116 82.7982 351.432 69.1255 351.432 65.9322C351.432 61.6231 371.827 66.5806 385.481 74.2099ZM75.2944 113.483C70.1613 119.797 61.3136 132.259 55.6295 141.174C44.9528 157.924 40.641 157.87 46.1901 141.055C49.4915 131.057 75.6591 102.001 81.3649 102.001C83.1587 102.001 80.4274 107.169 75.2944 113.483ZM431.645 158.059C452.437 183.835 458.391 203.208 452.399 225.569C450.157 233.933 445.988 230.462 445.988 220.228C445.988 210.781 443.278 201.414 432.294 172.918C424.721 153.267 424.546 149.257 431.645 158.059ZM29.9427 191.667C29.9427 207.015 25.2933 235.808 21.665 242.932C20.4061 245.41 17.9774 255.444 16.2727 265.234C11.1964 294.382 7.23313 290.632 9.09453 258.445C10.6696 231.259 16.5374 200.182 21.9244 190.516C23.3643 187.936 24.5395 183.984 24.5395 181.736C24.5395 179.486 25.7553 177.646 27.2411 177.646C28.727 177.646 29.9427 183.954 29.9427 191.667ZM83.9746 193.631C83.9746 194.993 84.8904 196.511 86.0116 197.008C87.1328 197.502 100.473 216.751 115.659 239.782C130.845 262.813 144.342 282.938 145.652 284.502C146.96 286.066 151.55 292.753 155.848 299.361C164.239 312.261 170.25 319.379 171.393 317.775C171.782 317.226 176.245 310.091 181.308 301.919C186.368 293.747 191.187 286.452 192.014 285.709C192.841 284.967 201.926 271.753 212.206 256.343C238.227 217.332 230.709 220.871 287.596 220.871C339.483 220.871 343.328 221.728 343.328 233.28C343.328 241.682 339.327 242.484 297.39 242.484H260L250.333 253.777C234.878 271.834 235.45 272.202 279.165 272.207L317.662 272.212L325.735 285.039C344.087 314.198 349.125 318.129 368.152 318.129C387.301 318.129 387.285 318.623 368.993 292.342C351.697 267.493 352.267 269.797 360.92 259.79C378.229 239.774 373.55 209.311 351.243 196.776C341.958 191.556 337.003 191.154 282.174 191.156C212.427 191.162 219.673 187.915 190.679 232.153C168.335 266.25 170.588 265.31 157.798 245.861C152.179 237.319 146.338 228.979 144.82 227.331C143.302 225.685 138.412 218.156 133.954 210.605C129.496 203.052 123.056 195.584 119.644 194.012C112.036 190.508 83.9746 190.208 83.9746 193.631ZM476.719 252.947C490.059 313.463 475.792 384.083 443.427 417.726C423.43 438.509 394.95 455.91 380.926 455.91C373.969 455.91 372.94 457.377 398.035 431.552C412.68 416.486 422.971 403.064 428.041 392.417C444.105 358.696 446.053 351.288 447.936 316.778C449.049 296.394 450.991 284.499 454.125 278.91C456.64 274.428 460.995 261.414 463.808 249.986C469.738 225.885 470.805 226.131 476.719 252.947ZM34.4139 314.076C38.8985 329.135 53.0549 359.679 57.9204 364.793C63.1777 370.318 78.3742 394.87 77.2395 396.005C73.6005 399.647 29.9427 356.353 29.9427 349.1C29.9427 346.925 29.0242 345.145 27.9003 345.145C22.1027 345.145 18.461 326.785 18.7122 298.82C19.0391 262.562 21.7353 256.754 26.663 281.7C28.7135 292.077 32.2013 306.647 34.4139 314.076ZM437.705 337.98C427.985 384.08 402.344 421.14 358.421 452.582L342.447 464.015H310.627C279.451 464.015 267.075 460.811 284.544 457.263C320.113 450.039 364.116 424.571 390.338 396.029C402.203 383.113 427.077 347.549 427.077 343.499C427.077 342.624 428.771 338.077 430.84 333.395C432.91 328.713 435.482 322.451 436.557 319.479C440.453 308.711 441.233 321.26 437.705 337.98ZM73.895 405.609C82.4698 410.988 90.372 415.435 91.4553 415.494C92.5414 415.553 98.293 421.77 104.237 429.305C110.18 436.842 119.563 446.214 125.087 450.134C130.615 454.054 135.783 458.887 136.577 460.875C139.914 469.234 96.1021 455.191 80.6111 442.937C67.195 432.322 43.4507 406.941 43.4507 403.21C43.4507 400.992 42.5403 399.163 41.4245 399.147C39.5523 399.117 35.1028 390.196 27.5626 371.358C22.7025 359.209 23.6669 359.687 41.4245 378.215C50.7126 387.905 65.3228 400.233 73.895 405.609ZM134.889 436.591C142.875 442.153 175.099 454.548 188.661 457.274C203.682 460.295 198.314 464.015 178.936 464.015C159.708 464.015 153.241 461.013 131.258 441.902C119.933 432.055 122.656 428.07 134.889 436.591ZM252.281 472.295C259.413 473.684 275.156 474.821 287.267 474.821C312.394 474.821 312.746 477.931 288.345 484.287C265.273 490.296 229.771 489.531 207.648 482.55C185.306 475.499 184.86 473.497 204.871 470.08C220.656 467.384 229.096 467.778 252.281 472.295Z" fill="#000000"/>
</svg>
