<svg width="305" height="500" viewBox="0 0 305 500" fill="#000000" xmlns="http://www.w3.org/2000/svg">
<path fill-rule="evenodd" clip-rule="evenodd" d="M103.255 5.66231C102.022 8.77784 80.6615 63.9841 55.7901 128.346C30.9187 192.707 8.19148 251.311 5.28483 258.579L0 271.791H51.5547C91.1154 271.791 103.107 272.523 103.112 274.937C103.114 276.668 98.6274 288.841 93.1412 301.99C66.9436 364.784 12.7364 499.348 13.3807 499.994C13.7808 500.392 32.3003 479.504 54.5394 453.574C76.7759 427.643 139.278 354.901 193.435 291.923L291.901 177.419L234.623 176.161C203.121 175.469 177.605 174.034 177.922 172.975C178.239 171.915 206.833 133.313 241.466 87.192C276.097 41.0706 304.433 2.58453 304.433 1.66849C304.433 0.749941 259.673 0 204.966 0H105.498L103.255 5.66231Z" fill="#000000"/>
</svg>
