<svg xmlns="http://www.w3.org/2000/svg" width="24" height="24" fill="#000000"><circle cx="12" cy="12" r="12" fill="#F7F7F7"/><path fill="#000000" fill-rule="evenodd" d="M10.333 1.118C1.286 2.546-2.192 13.725 4.455 20.008c6.469 6.112 17.216 2.323 18.444-6.503.274-1.97-.04-4.475-.562-4.475-.247 0-.09-.252-3.066 4.906-2.084 3.61-2.37 3.836-4.864 3.836h-1.46l-.048-3.347-.049-3.347-1.457 2.556c-2.2 3.858-2.508 4.113-5.025 4.171l-1.436.034V7.618l2.016.026 2.016.027.049 3.363.048 3.363 1.7-2.961a270 270 0 0 1 1.967-3.39l.266-.428 2.017.026 2.017.027.049 3.367.048 3.368 2.162-3.765c2.392-4.166 2.329-3.992 1.76-4.874-2.133-3.302-6.7-5.283-10.714-4.65" clip-rule="evenodd"/></svg>