<svg xmlns="http://www.w3.org/2000/svg" width="64" height="64" version="1.1" fill="#000000"><path fill-opacity=".239" d="M 22.005 1.668 C -0.571 9.567, -7.261 37.787, 9.476 54.524 C 26.013 71.061, 54.657 64.511, 62.063 42.500 C 62.803 40.300, 63.766 38.072, 64.204 37.550 C 65.170 36.397, 65.283 24.383, 64.319 25.347 C 63.945 25.722, 62.991 24.112, 62.199 21.769 C 56.644 5.335, 38.071 -3.953, 22.005 1.668 M 27 15 C 25.856 17.137, 26.893 17.707, 28.678 15.922 C 29.271 15.329, 31.049 14.991, 32.628 15.172 C 35.045 15.448, 35.549 16.008, 35.810 18.708 L 36.120 21.916 40.437 19.818 C 45.534 17.342, 49.222 17.883, 51.558 21.449 C 53.524 24.448, 52.164 27.607, 48.271 29.087 C 44.840 30.392, 41.812 29.277, 32.762 23.380 C 23.624 17.425, 19.617 15.964, 15.577 17.116 C 9.776 18.769, 8.082 24.849, 12.314 28.826 C 15.256 31.589, 19.851 31.627, 25.137 28.930 C 30.711 26.087, 29.479 25.547, 23.337 28.142 C 18.870 30.029, 18.011 30.110, 15.509 28.881 C 11.275 26.800, 10.463 23.446, 13.466 20.443 C 16.800 17.109, 19.588 17.367, 26.559 21.653 C 43.286 31.936, 47.635 33.147, 51.826 28.686 C 57.853 22.270, 50.741 14.384, 41.724 17.484 C 38.191 18.699, 38.077 18.659, 37.103 15.865 C 36.227 13.353, 35.609 13, 32.087 13 C 29.094 13, 27.798 13.510, 27 15 M 0.320 32 C 0.320 35.575, 0.502 37.038, 0.723 35.250 C 0.945 33.462, 0.945 30.538, 0.723 28.750 C 0.502 26.962, 0.320 28.425, 0.320 32 M 25.203 32.131 C 20.848 33.387, 20.347 35.148, 23.169 39.280 C 26.066 43.521, 32.022 50.333, 32.416 49.855 C 39.126 41.710, 43 36.244, 43 34.919 C 43 31.818, 32.171 30.122, 25.203 32.131 M 27 33.599 C 26.175 33.907, 24.918 34.341, 24.207 34.564 C 23.276 34.857, 23.189 35.485, 23.896 36.806 C 25.272 39.377, 38.650 39.377, 40.089 36.806 C 40.692 35.729, 40.655 34.905, 39.987 34.492 C 38.530 33.591, 28.811 32.923, 27 33.599 M 28.290 40.799 C 27.411 41.358, 27.753 42.379, 29.540 44.534 L 32 47.500 34.460 44.534 C 37.158 41.280, 36.476 40.031, 32 40.031 C 30.625 40.031, 28.956 40.377, 28.290 40.799" stroke="none" fill="#000000" fill-rule="evenodd"/><path fill-opacity=".242" d="M 23.951 1.303 C 14.895 3.863, 6.679 11.040, 2.687 19.878 C -0.216 26.304, -0.205 37.720, 2.710 44.176 C 5.683 50.759, 12.247 57.484, 18.853 60.716 C 26.180 64.301, 36.966 64.546, 44.176 61.290 C 53.171 57.227, 63 45.257, 63 38.363 C 63 37.128, 63.450 35.840, 64 35.500 C 64.550 35.160, 65 33.082, 65 30.882 C 65 28.470, 64.603 27.127, 64 27.500 C 63.441 27.845, 63 27.076, 63 25.755 C 63 18.856, 53.208 6.749, 44.519 2.905 C 38.845 0.395, 29.684 -0.318, 23.951 1.303 M 26.604 14.590 C 25.725 16.881, 26.895 18.332, 28.529 16.976 C 29.271 16.360, 31.144 16.001, 32.690 16.178 C 34.914 16.433, 35.566 17.073, 35.816 19.250 C 35.990 20.762, 36.243 22, 36.379 22 C 36.514 22, 38.534 21.078, 40.867 19.950 C 46.733 17.116, 52 18.820, 52 23.551 C 52 29.752, 45.186 30.666, 37 25.563 C 33.975 23.677, 29.475 20.879, 27 19.343 C 21.518 15.943, 15.261 15.549, 12.105 18.405 C 9.108 21.118, 9.191 27.444, 12.250 29.373 C 16.761 32.217, 18.837 32.224, 24.758 29.415 C 28.434 27.671, 29.895 26.545, 28.817 26.285 C 27.892 26.062, 25.776 26.581, 24.117 27.440 C 16.304 31.480, 8.868 26.666, 13.383 20.491 C 15.911 17.033, 20.672 18.094, 30.403 24.283 C 41.946 31.625, 44.741 32.553, 49.421 30.598 C 53.862 28.742, 55.588 24.999, 53.760 21.187 C 51.542 16.561, 45.950 15.066, 39.873 17.475 C 38.696 17.941, 38.069 17.413, 37.604 15.560 C 37.025 13.251, 36.483 13, 32.088 13 C 28.555 13, 27.046 13.438, 26.604 14.590 M 0.272 32 C 0.272 34.475, 0.467 35.487, 0.706 34.250 C 0.944 33.013, 0.944 30.988, 0.706 29.750 C 0.467 28.512, 0.272 29.525, 0.272 32 M 24.828 31.979 C 23.359 32.422, 21.673 33.084, 21.082 33.449 C 19.588 34.373, 22.209 39.186, 27.085 44.476 C 29.238 46.812, 31 49.236, 31 49.862 C 31 50.488, 31.450 51, 32 51 C 32.550 51, 33 50.577, 33 50.061 C 33 49.544, 34.806 47.034, 37.014 44.483 C 39.222 41.932, 41.716 38.515, 42.557 36.889 C 44.078 33.949, 44.068 33.926, 40.575 32.467 C 36.817 30.897, 29.195 30.660, 24.828 31.979 M 28 41.845 C 28 42.310, 28.900 43.505, 30 44.500 C 31.930 46.247, 32.070 46.247, 34 44.500 C 36.946 41.834, 36.469 41, 32 41 C 29.800 41, 28 41.380, 28 41.845" stroke="none" fill="#000000" fill-rule="evenodd"/><path fill-opacity=".782" d="M 26.223 1.051 C 11.520 3.986, 0.706 17.162, 0.706 32.141 C 0.706 37.777, 1.255 40.077, 3.873 45.395 C 13.336 64.617, 37.085 69.278, 53.249 55.086 C 57.429 51.416, 63 41.026, 63 36.899 C 63 35.370, 63.450 33.840, 64 33.500 C 64.550 33.160, 65 31.982, 65 30.882 C 65 29.782, 64.550 29.160, 64 29.500 C 63.421 29.858, 63 28.897, 63 27.219 C 63 22.991, 57.480 12.629, 53.249 8.914 C 45.904 2.465, 35.014 -0.703, 26.223 1.051 M 26.356 14.515 C 26.014 15.405, 26.300 16.667, 26.992 17.317 C 27.962 18.229, 28.355 18.214, 28.708 17.250 C 28.960 16.563, 30.479 16, 32.083 16 C 34.619 16, 35 16.370, 35 18.833 C 35 22.788, 35.726 23.138, 39.344 20.932 C 43.336 18.498, 48.194 18.452, 50.345 20.829 C 52.496 23.206, 52.440 25.291, 50.171 27.345 C 47.390 29.862, 44.311 29.362, 37.280 25.250 C 33.753 23.188, 28.759 20.273, 26.184 18.773 C 19.918 15.126, 15.676 15.170, 11.923 18.923 C 10.315 20.531, 9 22.815, 9 24 C 9 27.162, 14.265 32.005, 17.673 31.978 C 20.755 31.954, 28.367 28.833, 29.393 27.173 C 30.675 25.099, 28.006 24.993, 24.314 26.972 C 19.618 29.489, 15.817 29.560, 13.655 27.171 C 11.504 24.794, 11.560 22.709, 13.829 20.655 C 17.124 17.673, 21.029 18.668, 31.238 25.090 C 43.437 32.763, 47.570 33.584, 51.952 29.202 C 55.798 25.356, 55.804 22.650, 51.974 18.820 C 49.434 16.280, 48.351 15.866, 45.224 16.236 C 43.176 16.478, 40.748 17.009, 39.830 17.415 C 38.570 17.971, 38.078 17.581, 37.830 15.826 C 37.539 13.775, 36.879 13.464, 32.239 13.197 C 28.123 12.961, 26.842 13.247, 26.356 14.515 M 0.158 32 C 0.158 33.375, 0.385 33.938, 0.662 33.250 C 0.940 32.563, 0.940 31.438, 0.662 30.750 C 0.385 30.063, 0.158 30.625, 0.158 32 M 22.750 32.162 C 21.238 32.715, 20 33.609, 20 34.149 C 20 35.927, 22.207 39.423, 26.636 44.659 C 29.036 47.497, 31 50.310, 31 50.909 C 31 52.620, 32.426 52.187, 33.513 50.147 C 34.056 49.128, 36.638 45.478, 39.250 42.037 C 41.862 38.596, 44 35.199, 44 34.488 C 44 31.427, 29.199 29.807, 22.750 32.162 M 28 41.845 C 28 42.310, 28.900 43.505, 30 44.500 C 31.930 46.247, 32.070 46.247, 34 44.500 C 36.946 41.834, 36.469 41, 32 41 C 29.800 41, 28 41.380, 28 41.845" stroke="none" fill="#000000" fill-rule="evenodd"/><path fill-opacity=".938" d="M 25 1.847 C 12.611 5.057, 4.533 13.327, 1.630 25.773 C -2.164 42.039, 8.620 58.404, 25.750 62.374 C 31.210 63.640, 32.787 63.639, 38.227 62.370 C 50.528 59.500, 59.668 50.585, 62.130 39.055 C 62.783 36, 63.695 33.072, 64.158 32.550 C 65.234 31.335, 65.257 29.723, 64.188 30.384 C 63.742 30.660, 62.847 28.324, 62.199 25.193 C 59.977 14.445, 50.805 4.720, 40.500 2.185 C 32.494 0.215, 31.391 0.191, 25 1.847 M 28.750 12.716 C 26.605 13.041, 26 13.676, 26 15.602 C 26 17.733, 25.735 17.929, 24.066 17.035 C 20.410 15.079, 14.123 15.786, 11.455 18.455 C 6.288 23.622, 10.019 32, 17.488 32 C 21.550 32, 31.384 27.431, 30.478 25.964 C 29.599 24.542, 28.108 24.769, 23.411 27.043 C 20.630 28.389, 18.297 28.862, 16.569 28.428 C 9.928 26.761, 11.839 19, 18.891 19 C 19.840 19, 23.291 20.644, 26.559 22.653 C 38.985 30.292, 42.522 31.964, 46.295 31.982 C 53.970 32.019, 57.806 23.716, 52.545 18.455 C 49.877 15.786, 43.590 15.079, 39.934 17.035 C 38.349 17.884, 38 17.740, 38 16.235 C 38 12.478, 35.813 11.646, 28.750 12.716 M 28.328 17.413 C 27.387 18.485, 28.572 19.634, 34.328 23.226 C 42.941 28.603, 44.430 29.181, 47.606 28.384 C 50.836 27.573, 52.407 24.629, 51.006 22.012 C 49.319 18.858, 45.353 18.430, 40.350 20.861 C 37.928 22.037, 35.734 23, 35.473 23 C 35.213 23, 35 21.425, 35 19.500 C 35 16.339, 34.733 16.004, 32.250 16.038 C 30.738 16.059, 28.972 16.678, 28.328 17.413 M 24.500 31.529 C 22.300 32.321, 20.387 32.977, 20.250 32.985 C 20.113 32.993, 20 33.718, 20 34.596 C 20 36.433, 22.916 40.856, 27.684 46.253 C 29.508 48.317, 31 50.679, 31 51.503 C 31 52.326, 31.450 53, 32 53 C 32.550 53, 33 52.352, 33 51.561 C 33 50.769, 34.845 47.990, 37.101 45.384 C 39.356 42.778, 41.927 39.124, 42.814 37.264 C 44.659 33.395, 44.179 32.771, 38 31.009 C 33.256 29.657, 29.271 29.810, 24.500 31.529 M 29 41.878 C 29 42.360, 29.675 43.315, 30.500 44 C 31.697 44.993, 32.303 44.993, 33.500 44 C 35.823 42.072, 35.287 41, 32 41 C 30.350 41, 29 41.395, 29 41.878" stroke="none" fill="#000000" fill-rule="evenodd"/></svg>