<svg xmlns="http://www.w3.org/2000/svg" width="25" height="24" fill="#000000"><g clip-path="url(#a)"><path fill="#000000" d="M12.32 23.395c6.292 0 11.393-5.101 11.393-11.394S18.612.607 12.319.607C6.027.607.926 5.708.926 12.001s5.1 11.394 11.393 11.394Z"/><path fill="#636363" d="M12.32 24a11.959 11.959 0 0 1-8.485-3.515A11.953 11.953 0 0 1 .318 12a11.959 11.959 0 0 1 3.515-8.485A11.963 11.963 0 0 1 12.32 0a11.958 11.958 0 0 1 8.485 3.515A11.955 11.955 0 0 1 24.319 12a11.96 11.96 0 0 1-3.514 8.485A11.954 11.954 0 0 1 12.319 24Zm0-22.787c-2.882 0-5.59 1.122-7.628 3.16A10.717 10.717 0 0 0 1.532 12c0 2.882 1.122 5.59 3.16 7.628a10.717 10.717 0 0 0 7.627 3.16c2.882 0 5.59-1.123 7.628-3.16A10.716 10.716 0 0 0 23.107 12c0-2.881-1.122-5.59-3.16-7.627a10.717 10.717 0 0 0-7.627-3.16Z"/><path fill="#a1a1a1" d="M4.775 7.094h15.09c.15 0 .273.123.273.274v.195a.274.274 0 0 1-.274.274H10.81a.274.274 0 0 0-.194.08l-.43.43a.273.273 0 0 1-.194.08H4.775a.274.274 0 0 1-.274-.273v-.787c0-.15.123-.273.274-.273Z"/><path fill="#000000" d="M5.022 9.414h1.191a.26.26 0 0 1 .237.152l2.363 5.178a.26.26 0 0 0 .473.001l2.384-5.18a.26.26 0 0 1 .236-.15h.757a.26.26 0 0 1 .236.15l2.389 5.189a.26.26 0 0 0 .471.002l2.452-5.193a.26.26 0 0 1 .235-.149h1.027a.26.26 0 0 1 .236.37l-3.515 7.507a.26.26 0 0 1-.235.15h-.872a.26.26 0 0 1-.238-.154L12.553 12.1a.26.26 0 0 0-.475-.003l-2.38 5.193a.26.26 0 0 1-.237.151H8.449a.26.26 0 0 1-.236-.152L4.785 9.783a.26.26 0 0 1 .236-.369h.001Z"/></g><defs><clipPath id="a"><path fill="#000000" d="M.32 0h24v24h-24z"/></clipPath></defs></svg>