<svg xmlns="http://www.w3.org/2000/svg" width="200" height="200" fill="#000000"><path fill-opacity=".314" fill-rule="evenodd" d="M0 100.005V200.01l100.25-.255 100.25-.255.255-99.75L201.01 0H0zm.481.495c0 55 .121 77.647.269 50.326.148-27.32.148-72.32 0-100C.602 23.147.481 45.5.481 100.5M42 19c0 .55.45 1 1 1s1-.45 1-1-.45-1-1-1-1 .45-1 1m-9.866 13.158c-.972 1.556-1.012 2.362-.157 3.21.853.845.981.711.509-.531-.402-1.057-.069-1.785.914-2 .93-.202 1.245-.819.789-1.547-.541-.864-1.129-.615-2.055.868M44 32.441c0 3.235 1.968 4.324 3.652 2.021C49.705 31.653 49.278 30 46.5 30c-1.984 0-2.5.504-2.5 2.441m1 1c0 .857.45 1.559 1 1.559s1-.423 1-.941-.45-1.219-1-1.559-1 .084-1 .941m43.75 35.248c-2.473.647-2.24 1.237 2.071 5.258 3.71 3.46 3.783 3.658 2.497 6.808C92.59 82.54 91.546 84 90.997 84c-.548 0-.997.675-.997 1.5s-.787 1.5-1.75 1.5c-1.496 0-1.75.991-1.75 6.821 0 5.654.226 6.596 1.321 5.5.727-.726 1.965-1.321 2.75-1.321.786 0 1.429-.516 1.429-1.146s1.212.157 2.694 1.75 3.057 2.784 3.5 2.646.806.425.806 1.25c0 .933.944 1.5 2.5 1.5 1.375 0 2.5-.401 2.5-.892 0-1.273 4.581-2.251 7.322-1.563 1.277.32 3.158 1.998 4.18 3.728 1.249 2.114 2.013 2.683 2.328 1.736.259-.775 0-1.566-.574-1.757s-.822-1.195-.551-2.231 1.077-1.658 1.792-1.384c1.923.738 2.616-1.018 3.042-7.699.406-6.382.927-7.938 2.66-7.938 3.963 0 5.126-9.394 1.551-12.528-1.945-1.705-3.728-1.972-13.167-1.972-7.845 0-11.034.352-11.333 1.25-.229.688-1.467 1.25-2.75 1.25s-2.562-.562-2.841-1.25c-.383-.944-.793-.883-1.677.25-1.005 1.288-1.091 1.252-.608-.25.31-.963.127-1.75-.405-1.75-.533 0-.969-.675-.969-1.5 0-1.539-.238-1.598-3.25-.811m6.329 21.894c.048 1.165.285 1.402.604.605.289-.722.253-1.585-.079-1.917s-.568.258-.525 1.312m33.734 2.1c.721.289 1.584.253 1.916-.079s-.258-.568-1.312-.525c-1.165.048-1.402.285-.604.604M109.5 96c-.399.646-.276 1.624.274 2.174q1 1 1.726-.174c.399-.646.276-1.624-.274-2.174q-1-1-1.726.174m15.472 4.052c-.604 1.129-.958 2.661-.785 3.405s1.091-.18 2.042-2.052c1.824-3.592.629-4.877-1.257-1.353m-32.281 1.736c.656.417 1.89 2.097 2.744 3.735 1.078 2.067 1.555 2.422 1.559 1.161.009-2.834-1.892-5.686-3.779-5.669-1.162.011-1.331.26-.524.773m7.157 5.962c-.084.412-.232 1.2-.33 1.75-.607 3.427-2.71 9.5-3.447 9.956-.481.297-1.345 1.891-1.921 3.542-.929 2.667-.828 3.002.902 3.002 1.257 0 1.948-.684 1.948-1.929 0-1.06.763-2.691 1.695-3.623 1.636-1.636 3.327-13.448 1.925-13.448-.341 0-.689.338-.772.75m-17.095 19.491c-.512 1.536 1.598 3.759 3.569 3.759 1.642 0 2.607-1.858 1.947-3.75-.565-1.62-4.977-1.627-5.516-.009m-5.484 4.452c.973.254 2.323.237 3-.037s-.119-.481-1.769-.461-2.204.244-1.231.498"/><path fill-opacity=".051" fill-rule="evenodd" d="M60.809 1.073c-.232.695-7.566 1.25-20.821 1.576-11.255.277-20.694.85-20.976 1.275S16.558 5 14.184 5.371c-2.374.37-4.849 1.123-5.5 1.671-.651.549-2.515 2.095-4.141 3.437S1.944 13.275 2.38 13.71c1.28 1.272 33.798.62 34.611-.695.383-.62 3.348-1.401 6.588-1.735s6.493-1.21 7.228-1.944C51.921 8.221 51.882 8 50.571 8 49.707 8 49 7.55 49 7c0-.904 1.785-1.106 12.866-1.454 1.898-.06 3.58.452 3.857 1.174C66.436 8.579 69 8.291 69 6.351c0-1.452 1.038-1.575 8.739-1.031 4.807.339 8.895 1.081 9.084 1.648.424 1.273 4.177 1.381 4.177.12 0-.502 1.8-1.216 4-1.588 6.14-1.037 4.779-2.192-3.5-2.968C87.375 2.146 84 1.418 84 .915S83.325 0 82.5 0 81 .642 81 1.428c0 1.138-1.165 1.31-5.75.849-3.162-.318-5.9-.96-6.083-1.427-.487-1.241-7.937-1.041-8.358.223M164 .892c0 .49-1.125 1.174-2.5 1.519C158.517 3.159 158.162 5 161 5c1.1 0 2-.392 2-.872s1.8-1.16 4-1.512c4.928-.788 5.278-2.616.5-2.616-1.925 0-3.5.401-3.5.892M0 8.5C0 9.875.45 11 1 11s1-.401 1-.892c0-.49 1.125-1.174 2.5-1.519C8.183 7.665 7.54 6 3.5 6 .433 6 0 6.31 0 8.5m45.638-1c-.316.825-.139 1.5.393 1.5.533 0 .969-.675.969-1.5S46.823 6 46.607 6s-.652.675-.969 1.5M73 9.5c0 .825.627 1.5 1.393 1.5s1.652-.675 1.969-1.5c.391-1.02-.054-1.5-1.393-1.5C73.885 8 73 8.675 73 9.5m126 0c0 1.042-1.048 1.5-3.429 1.5-1.885 0-4.103.675-4.928 1.5s-1.982 1.5-2.572 1.5c-.589 0-1.071.675-1.071 1.5s.45 1.5 1 1.5 1-.418 1-.928 2.475-1.237 5.5-1.615c5.237-.655 5.5-.825 5.5-3.572 0-1.587-.225-2.885-.5-2.885s-.5.675-.5 1.5M55.211 10.538c-1.103 1.25-.777 1.462 2.25 1.462 1.946 0 3.539.399 3.539.886 0 1.431 9.075 2.439 10.362 1.152 1.669-1.669-1.033-3.004-6.112-3.023C62.913 11.007 61 10.55 61 10c0-1.522-4.327-1.12-5.789.538M123 9.883c0 .486-.9 1.119-2 1.407-2.671.698-2.538 2.333.25 3.078 2.534.677 4.953-1.677 4.074-3.965-.591-1.541-2.324-1.928-2.324-.52m-19 2.818c0 .818 1.296 1.299 3.5 1.299 1.925 0 3.5-.401 3.5-.891 0-.489-1.575-1.074-3.5-1.299-2.414-.282-3.5-.005-3.5.891m23.638-.201c.317.825 1.203 1.5 1.969 1.5S131 13.325 131 12.5s-.885-1.5-1.969-1.5c-1.339 0-1.784.48-1.393 1.5M78.25 14.736c2.063.212 3.75.75 3.75 1.197s2.343 1.038 5.208 1.313c2.864.275 5.376 1.007 5.583 1.627.55 1.65 3.899 1.376 4.571-.373.316-.825 1.752-1.5 3.19-1.5 1.647 0 2.461-.463 2.199-1.25-.304-.915-4.142-1.27-14.333-1.324-7.655-.041-12.23.099-10.168.31M52 16c0 .55.45 1 1 1s1 .619 1 1.375C54 19.746 49.88 21 45.375 21c-1.306 0-2.375.392-2.375.871s-2.25 1.17-5 1.535c-3.269.433-5 1.142-5 2.045 0 .76.354 1.532.786 1.716 1.261.534 5.481 6.899 4.936 7.444-.273.273-1.447.568-2.609.655S34 36.005 34 36.713c0 1.647-1.653 1.673-2.417.037-.466-1-.7-1-1.166 0-.321.688-1.446 1.25-2.5 1.25S26 38.675 26 39.5c0 1.685-1.649 2.052-2.172.484-.193-.579-4.127-1.044-9.143-1.081-8.785-.065-8.8-.069-6.592-1.984L10.306 35H6.153C3.869 35 2 34.55 2 34s-.45-1-1-1-.964 1.237-.921 2.75.306 2.188.583 1.5C1.245 35.805 4 35.543 4 36.933c0 .513-.9 1.218-2 1.567-1.556.494-2 1.513-2 4.592 0 3.598.273 4.013 3 4.558C6.88 48.426 6.88 50 3 50c-1.969 0-3 .504-3 1.466 0 1.003 1.576 1.674 5 2.128 2.75.365 5 1.056 5 1.535s.878.871 1.95.871c2.652 0 4.238 2.955 2.512 4.681C12.884 62.258 7 62.454 7 60.929 7 59.164 4.285 57 2.071 57 .327 57 0 57.621 0 60.934c0 3.523.287 3.977 2.75 4.35l2.75.416-2.75.15C.166 65.991 0 66.28 0 70.651v4.651l9.682-.636c5.325-.35 9.945-1.062 10.266-1.583.322-.52 5.64-1.266 11.819-1.657C37.945 71.035 43 70.329 43 69.858S43.675 69 44.5 69s1.5.45 1.5 1 .675 1 1.5 1 1.5-.45 1.5-1 2.241-1 4.981-1c4.479 0 5.044.252 5.608 2.5.614 2.444.836 2.5 10.008 2.5 7.431 0 9.798-.358 11.392-1.722C83.563 70.073 83.569 68 81 68c-2.457 0-2.682-1.941-.25-2.152.963-.084 2.2-.257 2.75-.385s2.013-.284 3.25-.348c4.155-.213 2.301-2.039-2.75-2.709-2.75-.365-5-1.026-5-1.468 0-.443-1.237-1.03-2.75-1.305s.368-.314 4.178-.088c3.81.227 7.2.854 7.533 1.393.333.538 4.293 1.287 8.799 1.662 7.076.591 8.28.46 8.824-.958.688-1.792 3.049-2.23 3.583-.665.183.538 1.795 1.269 3.583 1.625 2.599.518 3.25.323 3.25-.977 0-.958.821-1.625 2-1.625 1.1 0 2 .45 2 1s1.116 1 2.481 1c1.812 0 2.65-.674 3.108-2.5.619-2.464 1.927-3.304 2.578-1.655.183.465 1.589 1.153 3.125 1.53 2.491.61 2.912.338 3.911-2.527 1.115-3.2 1.122-3.203 2.012-.797.592 1.602.524 2.536-.202 2.778-.607.202-.109 1.22 1.115 2.282 1.699 1.474 3.03 1.762 5.766 1.249 1.956-.367 4.162-1.273 4.902-2.013 1.801-1.801 3.281-1.712 2.566.153-.365.95.013 1.5 1.031 1.5.884 0 1.607-.414 1.607-.921 0-.506 1.35-1.217 3-1.579s3-1.073 3-1.579c0-.507 1.109-.921 2.465-.921 1.429 0 2.908-.828 3.52-1.971.846-1.581 1.692-1.844 4.28-1.326 3.102.62 3.157.576 1.433-1.148-2.581-2.581-14.398-3.501-15.284-1.19-.346.899-1.494 1.635-2.552 1.635s-2.173.648-2.477 1.439-1.864 1.727-3.469 2.079S145 57.573 145 58.079c0 .507-.675.921-1.5.921s-1.5-.45-1.5-1-.9-1-2-1c-3.139 0-2.338-2.682 1-3.35 3.759-.752 3.925-2.604.25-2.786-2.358-.117-2.429-.198-.5-.57 4.915-.946 1.825-2.3-5.5-2.409-25.389-.378-27.625-.511-28.011-1.669-.289-.865-.814-.784-1.891.293-2.051 2.051-8.497 2.043-7.71-.009.365-.95-.013-1.5-1.031-1.5-.884 0-1.614.563-1.622 1.25-.011.863-.299.802-.93-.194-.65-1.029-.214-2.046 1.516-3.532C96.907 41.376 98 39.921 98 39.29c0-1.478 11.194-.461 12.214 1.11 1.008 1.554 11.011 1.424 11.536-.15.229-.687 1.237-1.25 2.24-1.25 1.293 0 1.68-.547 1.33-1.884-.334-1.276-1.11-1.722-2.406-1.383-1.053.275-1.914.898-1.914 1.384 0 1.838-4.189.782-6.412-1.617-2.528-2.727-8.999-3.542-9.929-1.25-.368.908-.733.943-1.333.126-.454-.619-2.289-1.442-4.076-1.83-4.552-.987-4.045-2.2 1.25-2.994 2.475-.371 4.5-1.097 4.5-1.613 0-.517.707-.939 1.571-.939 1.397 0 1.405-.167.072-1.5-.825-.825-2.868-1.5-4.54-1.5-2.292 0-2.898-.369-2.465-1.5.374-.974-.025-1.5-1.138-1.5-.995 0-1.505.545-1.215 1.3.349.909-.521 1.3-2.893 1.3-2.117 0-3.392-.489-3.392-1.3 0-2.207-7.458-1.985-9.733.29-1.82 1.82-3.745 1.789-5.624-.09C73.946 20.803 71 20.486 71 22c0 .55-.45 1-1 1s-1-1.125-1-2.5c0-2.256-.414-2.511-4.25-2.616-2.337-.064-3.462-.322-2.5-.573C66.078 16.31 63.667 15 58 15c-3.333 0-6 .444-6 1m74-.063c0 .515-1.428 1.077-3.173 1.25-3.158.311-5.364 2.813-2.482 2.813.832 0 2.176.663 2.986 1.474 1.3 1.299 1.545 1.291 2.068-.072.347-.904 1.529-1.426 2.847-1.258 2.141.274 6.754-2.708 6.754-4.366 0-.428-2.025-.778-4.5-.778s-4.5.421-4.5.937M165 19c0 .55.675 1 1.5 1s1.5-.45 1.5-1-.675-1-1.5-1-1.5.45-1.5 1m-61.25 1.662c.688.278 1.813.278 2.5 0 .688-.277.125-.504-1.25-.504s-1.937.227-1.25.504M26 22c0 .55-1.589 1-3.531 1-2.217 0-3.746.559-4.107 1.5-.317.825-1.428 1.5-2.469 1.5-2.53 0-2.442 3.044.107 3.71 1.1.288 2 .921 2 1.407 0 .485.936.883 2.079.883 1.791 0 1.988.417 1.421 3-.599 2.728-.425 3 1.921 3 2.591 0 3.443-1.348 1.579-2.5-.55-.34-1-1.041-1-1.559 0-1.367 2.762-1.156 3.229.247C27.669 35.507 32 31.705 32 30c0-.55-2.282-1-5.071-1-3.285 0-5.627-.556-6.649-1.577-1.435-1.435-1.027-1.554 4.565-1.326 3.377.138 6.406-.015 6.731-.34C32.292 25.041 28.405 21 27 21c-.55 0-1 .45-1 1m95 2.441c0 .857.45 1.559 1 1.559s1-.423 1-.941-.45-1.219-1-1.559-1 .084-1 .941M114 25c0 .55.45 1 1 1s1-.45 1-1-.45-1-1-1-1 .45-1 1m36 .5c0 .825.45 1.5 1 1.5s1-.675 1-1.5-.45-1.5-1-1.5-1 .675-1 1.5M43.438 31.25c.051 3.496.425 4.302 2.109 4.543 2.157.309 6.453-2.764 6.453-4.615 0-.598-1.575-1.383-3.5-1.744S45 28.377 45 27.889c0-.489-.366-.889-.812-.889s-.785 1.913-.75 4.25M72.5 29.536c-2.314 2.827-4.029 3.134-4.895.876-.487-1.268-1.452-1.445-4.799-.879-2.304.389-4.865 1.383-5.69 2.208-1.333 1.333-.823 1.421 4.594.793 5.3-.616 6.236-.469 7.192 1.129 1.039 1.738 1.154 1.743 2.148.087.675-1.126 2.28-1.75 4.5-1.75 1.897 0 3.45-.45 3.45-1s1.157-1 2.571-1c2.286 0 2.405-.167 1.072-1.5-2.367-2.367-7.813-1.811-10.143 1.036M116 28c0 .55-.707 1-1.571 1-1.397 0-1.405.167-.072 1.5.825.825 1.945 1.5 2.488 1.5 1.232 0 2.012-2.088 1.401-3.75-.548-1.489-2.246-1.678-2.246-.25m27 0c0 .55.9 1 2 1s2-.45 2-1-.9-1-2-1-2 .45-2 1m-20 2.5c0 .933.944 1.5 2.5 1.5 1.375 0 2.5-.417 2.5-.927 0-.509.787-1.132 1.75-1.384.963-.251-.162-.509-2.5-.573-3.163-.086-4.25.268-4.25 1.384m26 .441c0 .518.45 1.219 1 1.559s1-.084 1-.941S150.55 30 150 30s-1 .423-1 .941M7.813 32.683c.721.289 1.584.253 1.916-.079s-.258-.568-1.312-.525c-1.165.048-1.402.285-.604.604m83.643.916c.879.879 3.274 1.72 5.321 1.868 2.048.149 2.486.076.973-.162-1.523-.239-2.75-1.072-2.75-1.868C95 32.56 93.997 32 92.429 32c-2.357 0-2.438.134-.973 1.599m50.794-.893c-1.238.238-2.25.852-2.25 1.364 0 .511-1.103.93-2.45.93s-2.81.632-3.25 1.404-1.89 1.559-3.222 1.75c-1.332.19-2.607.909-2.833 1.596-.301.915 1.352 1.25 6.172 1.25 3.722 0 6.583-.435 6.583-1 0-.55 1.238-1.004 2.75-1.008 3.236-.009 6.285-4.716 3.997-6.17-1.298-.824-1.772-.834-5.497-.116M131 34c0 .55.9 1 2 1s2-.45 2-1-.9-1-2-1-2 .45-2 1m-68.416 3.25.333 3c.045.413.533.75 1.083.75s1-1.35 1-3c0-1.833-.519-3-1.333-3-.789 0-1.231.917-1.083 2.25m47.054-.75c.317.825.753 1.5.969 1.5s.393-.675.393-1.5-.436-1.5-.969-1.5-.709.675-.393 1.5m-51.447 2.382c-.881 2.528-.786 2.825.777 2.416 1.089-.285 1.782-1.405 1.782-2.882 0-3.288-1.335-3.044-2.559.466M50 40.5c0 .825.45 1.5 1 1.5s1-.675 1-1.5-.45-1.5-1-1.5-1 .675-1 1.5m27.638 0c-.347.905-.005 1.5.862 1.5s1.209-.595.862-1.5c-.317-.825-.705-1.5-.862-1.5s-.545.675-.862 1.5M162 40c0 .55.45 1 1 1s1-.45 1-1-.45-1-1-1-1 .45-1 1m-94.424 2.337c.452 1.179 7.256 3.164 8.067 2.353.871-.871-1.711-2.506-4.878-3.088-3-.552-3.627-.407-3.189.735M82 43.5c0 .825.885 1.5 1.969 1.5 1.339 0 1.784-.48 1.393-1.5-.317-.825-1.203-1.5-1.969-1.5S82 42.675 82 43.5m72-.5c0 .55.45 1 1 1s1-.45 1-1-.45-1-1-1-1 .45-1 1m-13.731 1.693c.973.254 2.323.237 3-.037s-.119-.481-1.769-.461-2.204.244-1.231.498M75 49c0 .55-.932 1-2.071 1-1.842 0-1.905.167-.572 1.5 1.54 1.54 7.643 2.117 7.643.722C80 51.416 76.35 48 75.489 48c-.269 0-.489.45-.489 1m16 0c0 .55.45 1 1 1s1-.45 1-1-.45-1-1-1-1 .45-1 1m-7.731 1.693c.973.254 2.323.237 3-.037s-.119-.481-1.769-.461-2.204.244-1.231.498m-18.611 1.756q-.56 1.452.893.893c.797-.306 1.449-.958 1.449-1.449 0-1.438-1.735-1.026-2.342.556M116 55c0 .55 1.8 1 4 1s4-.45 4-1-1.8-1-4-1-4 .45-4 1m68 .5c0 .825.45 1.5 1 1.5s1 .45 1 1c0 1.447-3.74 1.231-4.338-.25-.403-1-.52-1-.583 0-.093 1.473-3.079 1.716-3.079.25 0-.55-2.475-1-5.5-1s-5.5.398-5.5.883c0 .486-.9 1.119-2 1.407-2.944.77-2.433 2.692.75 2.826 1.692.071 2.077.292 1 .573-.963.252-1.75.843-1.75 1.315 0 .471-1.012 1.068-2.25 1.326-1.238.259.338.382 3.5.275 4.141-.141 5.75.167 5.75 1.1 0 1.503 3.671 1.775 4.167.309.183-.543 2.583-1.287 5.333-1.654s5.331-1.161 5.735-1.764c.506-.755.739-.707.75.154.019 1.553 2.711 1.661 3.222.129.205-.616 2.268-1.094 4.583-1.062 4.004.055 4.21-.086 4.21-2.88 0-2.345-.454-2.96-2.25-3.053-1.693-.087-1.817-.229-.5-.573.963-.252 1.75-.875 1.75-1.384 0-1.16-3.713-1.232-4.167-.082-.183.465-1.571 1.149-3.083 1.519-2.089.512-2.75.309-2.75-.845 0-.954-.931-1.519-2.5-1.519-1.556 0-2.5.567-2.5 1.5M17.715 58.301c-.44 1.145-.151 1.699.888 1.699.847 0 2.215.675 3.04 1.5 1.333 1.333 1.325 1.5-.072 1.5-.864 0-1.571.45-1.571 1 0 .564 2.833 1 6.5 1 3.575 0 6.5-.419 6.5-.93s1.013-1.126 2.25-1.364c1.393-.269.821-.486-1.5-.57-3.868-.14-5.092-1.639-2-2.447.962-.251-1.475-.509-5.417-.573-4.592-.074-7.31-.547-7.566-1.315-.25-.751-.644-.563-1.052.5M109 58c0 .55.9 1 2 1s2-.45 2-1-.9-1-2-1-2 .45-2 1m-64.25 1.662c.688.278 1.813.278 2.5 0 .688-.277.125-.504-1.25-.504s-1.937.227-1.25.504M169 61c0 .55.45 1 1 1s1-.45 1-1-.45-1-1-1-1 .45-1 1m-24 2.893c0 .491.712 1.166 1.582 1.5 2.235.858 2.418.79 2.418-.893 0-.833-.889-1.5-2-1.5-1.1 0-2 .402-2 .893m13.079-.143c-.043.688-.979 1.25-2.079 1.25-1.111 0-2 .667-2 1.5 0 .825.482 1.5 1.071 1.5 1.7 0 4.139-2.895 3.588-4.259-.396-.982-.518-.98-.58.009M92.25 65.745c-3.326.583-2.732 2.255.802 2.255 2.513 0 3.243.547 4.131 3.096.66 1.893 1.357 2.649 1.792 1.944.392-.634 3.258-1.415 6.369-1.736C109.16 70.91 111 70.278 111 69.36c0-.836-1.124-1.36-2.917-1.36-1.604 0-3.066-.381-3.25-.847-.388-.987-9.295-1.984-12.583-1.408m36.838 2.981c-1.327.251-3.047 1.09-3.822 1.865-1.212 1.212-.712 1.409 3.579 1.409 3.013 0 5.219.495 5.572 1.25.466 1 .7 1 1.166 0 .713-1.528 3.117-1.649 3.606-.183.198.594 3.415 1.149 7.251 1.25 4.49.119 7.041.619 7.311 1.433.229.688-.311 1.25-1.199 1.25s-1.874.675-2.19 1.5c-.317.825-1.414 1.5-2.438 1.5-1.244 0-1.67.498-1.286 1.5.436 1.135-.18 1.5-2.531 1.5-3.349 0-3.902 1.369-1.715 4.25C143.84 89.158 152 89.795 152 88c0-.55 1.129-1 2.51-1s3.28-.9 4.222-2 2.475-2 3.407-2 1.85-.468 2.041-1.04 3.266-1.291 6.833-1.597 6.712-.883 6.987-1.282c.275-.4 1.287-1.017 2.25-1.373 2.704-.997 2.073-2.693-1.25-3.358-1.65-.33-3-.994-3-1.475s-.661-.875-1.469-.875c-.894 0-1.243-.586-.893-1.5.691-1.799-1.25-2.045-1.979-.25-.382.944-.789.883-1.659-.25s-1.277-1.194-1.659-.25c-.6 1.478-6.341 1.705-6.341.25s-5.741-1.228-6.341.25c-.36.889-.745.933-1.333.15-.861-1.146-20.97-2.48-25.238-1.674M62 70c0 .55.45 1 1 1s1-.45 1-1-.45-1-1-1-1 .45-1 1m-9.2 6.1c-.214.643-2.95 1.1-6.581 1.1-3.641 0-5.972.391-5.63.944.321.519.056 1.579-.589 2.356s-.882 1.882-.527 2.456c.426.69-1.885 1.044-6.807 1.044-5.702 0-7.587.352-8.028 1.5-.423 1.104-2.168 1.5-6.607 1.5-3.354 0-6.031.444-6.031 1 0 .55-2.25 1-5 1-6.467 0-6.467-1.737 0-2.594 2.75-.365 5-.996 5-1.403s1.865-.99 4.144-1.296c2.279-.305 4.417-.977 4.75-1.492.333-.516 2.743-1.252 5.356-1.637C32.934 79.592 32.162 78 25 78c-3.3 0-6 .396-6 .881s-4.275 1.202-9.5 1.593l-9.5.713v14.478c0 12.991.157 14.321 1.529 12.949 1.525-1.525 4.471-1.2 4.471.493 0 .491.675.893 1.5.893s1.5-.45 1.5-1c0-1.345 5.738-1.285 6.188.065.195.585 2.258 1.319 4.584 1.631s4.228.958 4.228 1.436c0 .477 1.125.868 2.5.868s2.5-.388 2.5-.861c0-1.139 10.915-2.094 16.052-1.405 2.988.401 3.91.922 3.504 1.981-.428 1.115.245 1.369 2.995 1.132 1.951-.168 3.872.219 4.268.86.396.64 2.961 1.337 5.7 1.549l4.981.384-5.167.18c-3.104.108-5.333.679-5.583 1.43-.584 1.75-29.932 1.704-30.516-.048C24.753 116.759 18 116.57 18 118c0 1.439-2.739 1.234-3.338-.25-.301-.747-.536-.545-.583.5-.067 1.481.843 1.75 5.921 1.75 3.333 0 6 .444 6 1 0 .55 1.462 1.061 3.25 1.136 2.35.099 2.627.256 1 .57-2.992.576-2.86 2.103.25 2.883 3.458.868 3.138 2.411-.5 2.411-1.65 0-3-.408-3-.906s-2.25-1.216-5-1.594-5-1.095-5-1.594c0-.498-1.173-.906-2.607-.906-1.916 0-2.453.401-2.027 1.512.462 1.202.042 1.378-2.042.855-1.892-.475-2.418-.327-1.887.531.404.654.182 1.856-.493 2.67-.676.814-.94 1.769-.587 2.123.354.353.643.085.643-.596 0-.842.502-.736 1.571.334.956.955 3.308 1.571 6 1.571 2.436 0 4.429.408 4.429.906s2.25 1.216 5 1.594 5 1.068 5 1.533 3.15 1.156 7 1.536c3.85.379 7 1.081 7 1.56s1.575.871 3.5.871c2.444 0 3.5.452 3.5 1.5 0 2.838 2.997 1.621 3.079-1.25.043-1.512.306-2.187.583-1.5.278.688 1.705 1.302 3.171 1.366 1.694.074 2.028.283.917.573-3.224.843-1.794 2.311 2.25 2.311 2.2 0 4-.45 4-1s1.575-1 3.5-1c2.444 0 3.5-.452 3.5-1.5 0-.942 1.024-1.543 2.75-1.616 1.692-.071 2.077-.292 1-.573-.963-.252-1.75-.875-1.75-1.384 0-.51-1.237-.979-2.75-1.043-1.692-.071-2.077-.292-1-.573C73.79 133.385 72.169 131 68 131c-2.2 0-4-.482-4-1.071C64 127.8 66.929 126 70.393 126c2.513 0 3.846-.579 4.607-2 .902-1.685.76-2-.897-2-2.298 0-3.095-2.03-3.632-9.251-.285-3.817-.109-4.831.646-3.743.779 1.125 1.161 1.185 1.542.244.714-1.76 3.01-1.556 3.734.332 1.094 2.852.636 6.469-.893 7.056-1.627.625-2.089 3.362-.567 3.362.513 0 1.248 1.012 1.634 2.25 1.081 3.462 4.433 5.163 4.433 2.25 0-.825.45-1.5 1-1.5s1 .45 1 1 .9 1 2 1c3.074 0 2.371-1.76-1-2.5-1.65-.362-3-1.021-3-1.463s-.9-1.039-2-1.327c-1.1-.287-2-1.015-2-1.616S77.9 117 79 117s2 .45 2 1 .623 1 1.383 1c1.941 0 2.659-3.582 1.426-7.119-.572-1.641-.739-3.285-.37-3.653.859-.86 2.588 1.81 2.442 3.772-.31 4.171.294 6.811 1.968 8.607 1.016 1.091 2.274 3.261 2.794 4.822l.946 2.837 1.91-4.633c1.051-2.548 2.269-4.633 2.706-4.633 1.3 0 .906-6.263-.744-11.818-1.164-3.921-2.008-5.182-3.468-5.182-1.305 0-1.744-.486-1.355-1.5.699-1.82 3.003-1.976 3.7-.25.363.901.526.918.583.059.239-3.598-5.639-2.598-8.228 1.4l-1.807 2.791.622-5.693.622-5.693-6.065-.686C76.729 92.05 74 91.35 74 90.871c0-1.414-11.757-1.053-12.359.379-.376.895-.839.753-1.633-.5-.646-1.021-2.337-1.75-4.058-1.75-1.622 0-2.95-.419-2.95-.93s-1.013-1.126-2.25-1.364c-1.428-.275-.911-.483 1.417-.57 2.016-.075 3.893-.698 4.171-1.386.403-1 .52-1 .583 0C57.014 86.223 60 86.466 60 85c0-.588 3.5-1 8.5-1s8.5.412 8.5 1c0 1.584 7.972 1.17 9.643-.5.825-.825 2.368-1.5 3.428-1.5S92 82.608 92 82.129s-3.6-1.185-8-1.569-8-1.072-8-1.531-2.7-1.146-6-1.529-6-1.102-6-1.598c0-1.309-10.761-1.118-11.2.198m-7.897 5.7c-1.439 1.681-1.322 1.8 1.778 1.8 2.529 0 3.319-.428 3.319-1.8 0-1.058-.733-1.8-1.778-1.8-.978 0-2.471.81-3.319 1.8m113.91-1.117c.721.289 1.584.253 1.916-.079s-.258-.568-1.312-.525c-1.165.048-1.402.285-.604.604M129.85 83.5c-.299 2.566-.82 3.045-3.6 3.313-3.017.291-3.252.578-3.274 4-.014 2.028-.466 5.599-1.005 7.937-.625 2.707-.639 5.793-.039 8.5.845 3.81.794 4.049-.495 2.309-1.696-2.29-1.93-.349-.321 2.658.956 1.786.872 1.992-.581 1.435-.934-.359-1.887-.652-2.117-.652s-.418-.515-.418-1.145-1.237-3.104-2.75-5.498c-2.336-3.698-3.246-4.354-6.042-4.355-1.941-.001-4.198.842-5.5 2.054-1.918 1.787-2.226 3.178-2.349 10.612-.163 9.905-1.516 13.326-5.278 13.346-6.573.034-8.888 3.017-9.517 12.263-.159 2.323-.404 4.673-.545 5.223-.549 2.142.049 4.425 1.552 5.929C89 152.857 88.994 153 87.5 153c-.904 0-2.318.675-3.143 1.5-1.333 1.333-1.17 1.5 1.465 1.5 1.712 0 3.207.633 3.54 1.5.316.825 1.489 1.5 2.607 1.5 1.117 0 2.031.398 2.031.883 0 1.07-3.498 2.085-7.25 2.103-1.518.008-2.757.574-2.765 1.264-.011.871-.29.817-.921-.18-.563-.89-3.203-1.597-6.985-1.871-3.343-.241-6.079-.835-6.079-1.319s.45-.88 1-.88 1-.675 1-1.5-.45-1.5-1-1.5-1 .45-1 1-.675 1-1.5 1-1.5-.45-1.5-1-.675-1-1.5-1-1.5.45-1.5 1-1.25 1-2.778 1c-1.54 0-3.54.891-4.49 2-.942 1.1-2.392 2-3.222 2s-1.51.45-1.51 1 2.438 1 5.418 1 6.13.273 7 .607c2.266.87 1.955 3.393-.418 3.393-1.1 0-2 .45-2 1s2.475 1 5.5 1 5.5-.386 5.5-.858c0-.471 2.813-1.151 6.25-1.509 3.438-.359 6.4-1.098 6.583-1.643.184-.544 2.514-.99 5.179-.99 5.777 0 8.573-2.039 6.951-5.069-.864-1.614-.699-1.931 1.002-1.931 1.119 0 2.071-.562 2.114-1.25s.524-.033 1.068 1.454c.544 1.488 1.898 2.993 3.008 3.345 2.551.81 8.845-.325 8.845-1.594 0-.525.643-.955 1.429-.955.785 0 2.135-.707 3-1.571 1.396-1.397 1.738-1.405 3.071-.072.825.825 1.5 2.193 1.5 3.04 0 .984.563 1.324 1.56.942q1.56-.602 2.116 1.531c.307 1.172.955 2.13 1.441 2.13 1.21 0 1.118-2.736-.117-3.5-1.544-.954-1.186-2.492.75-3.225.963-.365 2.345-1.251 3.071-1.969.727-.718 2.251-1.306 3.386-1.306 3.186 0 6.793-4.541 6.793-8.552 0-2.308.468-3.448 1.417-3.448.779 0 1.566-.441 1.75-.981.183-.539 4.946-1.281 10.583-1.65 5.637-.368 10.25-1.012 10.25-1.431s1.8-1.066 4-1.438 4-1.022 4-1.445 2.813-1.064 6.25-1.422c3.438-.359 6.4-1.098 6.583-1.643.184-.544 2.209-.996 4.5-1.004 6.969-.022 8.667-.838 8.667-4.164 0-2.944 0-2.945-4.75-2.244-2.613.385-4.975 1.027-5.25 1.428s-3.65 1.06-7.5 1.465-7.249 1.137-7.554 1.625c-.305.489-2.78 1.186-5.5 1.55s-5.196 1.04-5.502 1.503-3.343 1.132-6.75 1.489c-3.407.356-6.194 1.033-6.194 1.504s-.9.858-2 .858c-2.463 0-2.646-1.685-.25-2.311 1.375-.359 1.288-.482-.402-.573-1.396-.075-2.491-1.087-3.116-2.88-1.191-3.418.337-5.13 5.298-5.935 1.996-.324 3.47-1.144 3.47-1.932 0-1.857 3.918-1.746 4.638.131.317.825 1.428 1.5 2.469 1.5s1.893-.675 1.893-1.5c0-.833-.889-1.5-2-1.5-3.799 0-1.986-1.775 2.5-2.448 2.475-.371 4.5-1.088 4.5-1.594s1.125-1.202 2.5-1.547 2.5-.97 2.5-1.388 1.769-.997 3.93-1.287c4.018-.539 4.816-1.023 10.266-6.227 2.542-2.428 3.998-2.993 7.718-3 3.406-.007 4.586-.395 4.586-1.509 0-.825-.675-1.561-1.5-1.635s-2.1-.186-2.833-.25c-2.35-.203-.607-2.571 1.909-2.593 2.008-.018 2.479-.591 2.742-3.333l.318-3.31-11.569.31c-9.749.262-11.57.075-11.583-1.189q-.015-1.5-.749-.37c-.404.622-4.448 1.457-8.985 1.855S159 93.611 159 94.104s-3.361.896-7.469.896c-6.228 0-7.373.249-6.893 1.5.702 1.827-1.301 1.98-3.049.232-.697-.697-1.713-2.61-2.257-4.25-.609-1.838-1.79-3.1-3.077-3.291-1.318-.194-2.82-1.853-4.072-4.5l-1.984-4.191zm-4.279 10.071c-.864.865-1.571 1.765-1.571 2 0 .977 1.964.322 3.429-1.142.864-.865 1.571-1.09 1.571-.5 0 .589.868 1.071 1.929 1.071s2.635.707 3.5 1.571c2.331 2.332 1.906.166-.468-2.382-2.389-2.565-6.164-2.843-8.39-.618M171 96.5c0 1.809-3.623 2.017-4.341.25-.402-.993-.692-.987-1.408.026-.496.702-3.23 1.553-6.076 1.89-7.683.91-6.265 2.334 2.325 2.334 4.333 0 7.5-.422 7.5-1 0-.55 1.543-1 3.429-1s4.031-.603 4.767-1.339c.737-.737 2.007-1.601 2.822-1.921s-.881-.618-3.768-.661c-4.035-.061-5.25.268-5.25 1.421m-45.25 1.393c-2.238 2.27-2.419 7.301-.232 6.462.834-.32 1.456-1.094 1.381-1.719-.304-2.541.178-3.636 1.601-3.636.825 0 1.5-.675 1.5-1.5 0-1.997-2.083-1.804-4.25.393M69 105.5c0 .825.45 1.5 1 1.5s1-.675 1-1.5-.45-1.5-1-1.5-1 .675-1 1.5m28-.059c0 .857.45 1.559 1 1.559s1-.423 1-.941-.45-1.219-1-1.559-1 .084-1 .941m9 0c0 2.391 1.827 2.75 2.985.587.925-1.729.785-2.028-.95-2.028-1.119 0-2.035.648-2.035 1.441m66 3.451c0 .49-1.179 1.187-2.621 1.549s-3.273 1.311-4.071 2.108c-1.979 1.979-3.362 1.826-2.701-.299.518-1.667.49-1.667-.581 0-.619.963-1.81 1.75-2.647 1.75-2.019 0-4.144 2.204-3.626 3.759.482 1.446 4.247 1.7 4.247.286 0-.525 1.575-1.25 3.5-1.611s3.5-1.021 3.5-1.466 1.35-1.106 3-1.468 3-1.024 3-1.471 1.125-1.095 2.5-1.44c3.468-.87 3.136-2.589-.5-2.589-1.65 0-3 .401-3 .892m-91 5.639c0 .808.675 1.469 1.5 1.469s1.5-.402 1.5-.893-.675-1.152-1.5-1.469c-.914-.35-1.5-.001-1.5.893M71 115c0 .55.45 1 1 1s1-.45 1-1-.45-1-1-1-1 .45-1 1m102.409 3.325c-.796.912-.728 1.587.25 2.502.792.739 1.341.826 1.341.212 0-.571.675-1.039 1.5-1.039s1.5-.675 1.5-1.5c0-1.806-3.065-1.922-4.591-.175m-130.663 4.404c-3.382.353-3.695.627-3.159 2.761.524 2.09.2 2.418-2.746 2.78l-3.341.41 3.25.16c1.788.088 3.25.579 3.25 1.091s3.6 1.246 8 1.629c4.4.384 8 1.09 8 1.569s2.025.871 4.5.871 4.5-.45 4.5-1-1.553-1-3.45-1-3.81-.607-4.25-1.349-2.965-1.637-5.611-1.989c-5.524-.735-9.729-3.662-5.26-3.662 1.414 0 2.571-.417 2.571-.927 0-.509.788-1.132 1.75-1.384 2.071-.541-2.675-.517-8.004.04M13 136.5c0 .825.45 1.5 1 1.5s1-.675 1-1.5-.45-1.5-1-1.5-1 .675-1 1.5m178 2.386c0 .488-2.025 1.191-4.5 1.562s-4.5 1.053-4.5 1.515-5.147 1.161-11.438 1.554c-8.307.519-11.582 1.094-11.968 2.099-.292.761-1.445 1.384-2.563 1.384-1.117 0-2.031.45-2.031 1s-1.056 1-2.347 1c-3.41 0-7.153 3.64-7.153 6.957 0 1.833.432 2.623 1.261 2.304.801-.307 1.048.072.678 1.037-.375.977.159 1.757 1.489 2.179 2.164.687 2.429 1.389 2.086 5.523-.233 2.81-2.593 5.414-5.841 6.445-1.195.379-2.173 1.334-2.173 2.122s-.374 1.433-.831 1.433-1.42 1.101-2.141 2.447c-.864 1.616-2.34 2.55-4.342 2.75-2.363.236-3.247.965-4.009 3.303-.537 1.65-1.417 3.287-1.955 3.638-2.103 1.372.632 2.862 5.254 2.862 2.671 0 5.019.486 5.217 1.079.579 1.737 16.667 1.742 17.748.006.711-1.142 4.071-1.371 17.477-1.187 13.836.189 16.691-.018 17.162-1.246.311-.809 1.657-1.746 2.992-2.081 1.336-.335 2.428-1.324 2.428-2.197 0-1.001.555-1.375 1.5-1.012.914.35 1.5.001 1.5-.893 0-1.006-1.08-1.469-3.429-1.469-1.885 0-4.103-.675-4.928-1.5-1.62-1.62-11.227-2.142-11.81-.642-.183.472-5.908 1.178-12.723 1.568-10.809.62-12.205.526-10.943-.736.795-.795 2.958-1.778 4.806-2.184s3.847-1.144 4.443-1.641c.596-.496 2.165-1.794 3.487-2.884s3.459-1.981 4.75-1.981 2.347-.399 2.347-.886c0-.488 2.025-1.191 4.5-1.562s4.5-1.055 4.5-1.519c0-.465 2.25-1.155 5-1.533s5-1.095 5-1.594c0-.498 1.125-.906 2.5-.906h2.5v-27h-4.5c-2.475 0-4.5.399-4.5.886M19.638 142.5c-.347.905-.005 1.5.862 1.5s1.209-.595.862-1.5c-.317-.825-.705-1.5-.862-1.5s-.545.675-.862 1.5M37 141.937c0 .515-1.462 1.127-3.25 1.361s.764.375 5.669.313c6.165-.077 9.047-.497 9.334-1.361.301-.908-1.249-1.25-5.67-1.25-3.346 0-6.083.421-6.083.937m20 8.078c1.333.876 1.333 1.094 0 1.97-1.29.847-1.26.987.215 1 .943.008 2.196-.885 2.785-1.985.952-1.779.762-1.998-1.715-1.985-2.179.012-2.459.23-1.285 1m10.25-.348c-2.183.873-1.348 2.333 1.333 2.333 1.55 0 2.425-.475 2.188-1.187-.469-1.407-1.792-1.838-3.521-1.146M52.695 170.7c-.993.257-1.619.993-1.391 1.634.471 1.324 5.725 1.209 6.613-.145.321-.489 1.258-1.146 2.083-1.46 1.783-.679-4.699-.705-7.305-.029m-8.882 2.983c.721.289 1.584.253 1.916-.079s-.258-.568-1.312-.525c-1.165.048-1.402.285-.604.604m75.398 4.855c-1.062 1.204-1.033 1.462.166 1.462.801 0 1.667.563 1.925 1.25.325.866.955.636 2.051-.75.871-1.1 1.598-2.338 1.615-2.75.057-1.333-4.428-.719-5.757.788M122 190c0 .55.9 1 2 1s2-.45 2-1-.9-1-2-1-2 .45-2 1"/><path fill-opacity=".181" fill-rule="evenodd" d="M15.114 5.724c-3.832.724-8.252 4.754-7.465 6.805C8.08 13.652 10.082 14 16.107 14c4.341 0 7.893-.391 7.893-.868 0-.478 3.467-1.091 7.704-1.363 4.452-.286 7.865-.975 8.084-1.632.208-.625 1-1.137 1.76-1.137S43.411 8.1 44 7c1.048-1.958.78-1.997-12.715-1.864-7.582.075-14.859.339-16.171.588m36.399 15.019c-2.193.223-4.289.895-4.658 1.492s-3.187 1.294-6.263 1.549c-3.856.32-5.592.891-5.592 1.84 0 1.923 7.419 1.814 9.371-.137.832-.833 2.889-1.789 4.571-2.125C51.349 22.88 52 23.096 52 24.375c0 .958-.821 1.625-2 1.625-1.111 0-2 .667-2 1.5 0 1.64 2.629 2.089 3.167.54.183-.528 4.041-1.037 8.572-1.131l8.239-.172-.239-3.367-.239-3.366-6 .166c-3.3.091-7.794.349-9.987.573m34.502.896c-.008.626-1.59 1.434-3.515 1.795s-3.5 1.027-3.5 1.48c0 .969 5.915 2.059 11.25 2.075C92.313 26.995 94 27.45 94 28c0 1.662 7.709 1.201 8.362-.5.432-1.126-.165-1.5-2.393-1.5-1.633 0-2.969-.391-2.969-.87 0-.478-2.081-1.104-4.624-1.391s-5.011-1.133-5.484-1.88c-.52-.82-.867-.907-.877-.22M73 24.015c1.333.876 1.333 1.107 0 2.079-1.253.914-1.198.997.332.5 1.007-.327 2.02-.594 2.25-.594s.418-.675.418-1.5c0-.893-.91-1.494-2.25-1.485-1.827.013-1.968.201-.75 1M24 25c0 .55.45 1 1 1s1-.45 1-1-.45-1-1-1-1 .45-1 1m-5.187 4.683c.721.289 1.584.253 1.916-.079s-.258-.568-1.312-.525c-1.165.048-1.402.285-.604.604M22 31c0 .55.9 1 2 1s2-.45 2-1-.9-1-2-1-2 .45-2 1m6 0c0 .55.9 1 2 1s2-.45 2-1-.9-1-2-1-2 .45-2 1m12 0c0 .55.675 1 1.5 1s1.5-.45 1.5-1-.675-1-1.5-1-1.5.45-1.5 1m41.25 1.689c2.688.703 2.081 1.995-1.25 2.661-2.701.54-4.35 2.65-2.071 2.65.51 0 1.635.707 2.5 1.571.864.865 1.571 1.09 1.571.5 0-1.7 5.154-1.242 6.484.576C89.799 42.446 95 41.857 95 39.91c0-2.188-3.272-4.224-6.587-4.099-3.87.145-4.031-.05-1.842-2.24 1.429-1.428 1.179-1.56-2.75-1.455-2.376.064-3.534.322-2.571.573M77 34c0 .55.45 1 1 1s1-.45 1-1-.45-1-1-1-1 .45-1 1m29 0c0 .55.675 1 1.5 1s1.5-.45 1.5-1-.675-1-1.5-1-1.5.45-1.5 1m36 0c0 .55-.886 1-1.969 1-1.261 0-1.778.495-1.44 1.377.365.95-.576 1.585-3.031 2.046-3.787.71-4.917 2.577-1.56 2.577 1.1 0 2-.391 2-.869s1.528-1.117 3.395-1.42c3.281-.533 7.605-3.338 7.605-4.933 0-.428-1.125-.778-2.5-.778s-2.5.45-2.5 1M38 36.434C38 37.507 37.057 38 35 38q-3 0-3 1.5c0 .851.897 1.5 2.071 1.5 1.842 0 1.905.167.572 1.5-1.725 1.725-3.327 1.941-3.81.515-.183-.542-3.931-1.257-8.329-1.589s-8.328-1.126-8.735-1.765c-.406-.638-.745-.725-.754-.193C12.994 40.814 18.019 45 19.656 45c.739 0 1.344.417 1.344.927 0 .509.787 1.132 1.75 1.384 1.667.435 1.667.463 0 .573-.962.064-1.75.566-1.75 1.116s-2.587 1.061-5.75 1.136-4.738.331-3.5.57c1.237.238 2.25.821 2.25 1.294s-1.012 1.046-2.25 1.272c-1.238.227-.311.386 2.058.355 2.442-.032 4.646.489 5.087 1.203.443.717 3.863 1.518 7.942 1.86 3.939.33 7.163.985 7.163 1.455S35.8 59 38 59s4-.45 4-1 2.25-1 5-1 5 .45 5 1 2.009 1 4.465 1c3.441 0 4.71.458 5.535 2 .907 1.695.76 2-.965 2-1.119 0-2.035.45-2.035 1 0 .564-2.833 1-6.5 1-5.111 0-6.5.321-6.5 1.5 0 .962.986 1.511 2.75 1.53 1.513.017 9.275.239 17.25.493 7.975.255 13.938.204 13.25-.113-.687-.317-1.25-1.214-1.25-1.993C78 65.404 79.284 65 82.5 65c2.475 0 4.5-.45 4.5-1 0-.601-4.69-1.064-11.75-1.16-6.463-.088-10.251-.344-8.42-.569 2.384-.293 3.175-.816 2.782-1.84-.411-1.072.322-1.431 2.919-1.431C74.439 59 76 58.55 76 58c0-1.382 6.745-1.266 7.208.123.224.672 3.034 1.149 6.981 1.186 5.029.047 6.485.376 6.101 1.377-.337.878.36 1.314 2.103 1.314 1.434 0 2.607-.417 2.607-.927 0-.509.788-1.132 1.75-1.384 1.667-.435 1.667-.463 0-.573C99.579 58.906 100.745 56 104 56c1.65 0 3-.45 3-1s1.8-1 4-1c2.802 0 4-.428 4-1.43 0-.787 1.012-1.626 2.25-1.864s-1.237-.495-5.5-.57c-4.409-.077-7.75-.567-7.75-1.136 0-.55-.675-1-1.5-1s-1.5.397-1.5.883c0 .485-3.487 1.208-7.75 1.605-4.263.398-8.035 1.18-8.383 1.737-.356.571-6.247 1.151-13.5 1.327-7.077.173-11.854.088-10.617-.189 1.237-.276 2.25-.921 2.25-1.433 0-.511 1.575-.93 3.5-.93 4.146 0 4.862-2.441 1-3.411-1.375-.345-2.5-1.069-2.5-1.608 0-1.366 4.748-1.236 5.208.142.205.617 2.081 1.258 4.167 1.423 2.169.172 4.338 1.047 5.067 2.043 1.143 1.564 1.364 1.581 2.166.163.49-.868 2.118-1.73 3.616-1.915 2.156-.267 2.521-.65 1.75-1.837-.81-1.248-1.122-1.271-1.853-.137-.742 1.151-.976 1.151-1.5 0-.481-1.055-.753-1.081-1.204-.113-.658 1.41-6.417 1.736-6.417.364 0-.488-2.095-1.201-4.656-1.585s-5.294-1.336-6.072-2.115c-1.455-1.454-6.445-.934-7.105.741-.184.465-.795.845-1.359.845-.953 0-.633-2.686.748-6.285.409-1.065-.428-1.656-3.04-2.146-4.229-.793-7.108-.075-7.892 1.969-.399 1.039.152 1.462 1.907 1.462C50.059 39 51 38.428 51 37.5c0-1.475 1.987-2.215 2.014-.75.007.413.285 1.763.616 3 .533 1.989.233 2.25-2.585 2.25-1.753 0-3.863.675-4.688 1.5-1.931 1.931-3.46 1.931-2.719 0 .562-1.463-.479-1.914-3.638-1.577-1.241.133-1.262 0-.122-.769.758-.512 1.069-1.431.691-2.042-.422-.684.138-1.112 1.455-1.112 3.068 0 1.901-2.431-1.351-2.816-1.894-.225-2.673.139-2.673 1.25m28.475-.393c-.762 1.232 1.113 2.917 3.275 2.944.688.008 1.25.465 1.25 1.015s1.38 1 3.067 1c2.72 0 2.989-.255 2.376-2.25-.858-2.793-.245-2.406-5.09-3.206-2.78-.459-4.389-.295-4.878.497M102 37c0 .55.9 1 2 1s2-.45 2-1-.9-1-2-1-2 .45-2 1m14.25 1.662c-2.151.868-1.365 2.338 1.25 2.338 1.375 0 2.5-.417 2.5-.927 0-.509.787-1.132 1.75-1.384.963-.251.4-.474-1.25-.494s-3.562.19-4.25.467M2.409 40.325C1.27 41.63 2.868 44 4.886 44c.534 0 1.662.691 2.507 1.536 1.381 1.381 1.753 1.318 3.689-.618 1.737-1.737 1.889-2.322.786-3.021-.752-.476-2.155-.873-3.118-.882C7.787 41.007 7 40.55 7 40c0-1.408-3.28-1.175-4.591.325M21 42.883c0 .486.9 1.119 2 1.407 1.3.34 2 .03 2-.884 0-.773-.9-1.406-2-1.406s-2 .398-2 .883m55.25.367c.63 1.892 3.75 2.161 3.75.323 0-.927-.855-1.573-2.083-1.573-1.222 0-1.912.517-1.667 1.25M.682 45.613C.975 46.376 1.841 47 2.607 47c2.078 0 1.682-1.691-.532-2.27-1.351-.353-1.767-.09-1.393.883M26 49c0 .55.675 1 1.5 1s1.5-.45 1.5-1-.675-1-1.5-1-1.5.45-1.5 1m6.192.075c.197.591.785 1.075 1.308 1.075s1.111-.484 1.308-1.075S34.417 48 33.5 48s-1.505.484-1.308 1.075M49 49c0 .55.45 1 1 1s1-.45 1-1-.45-1-1-1-1 .45-1 1m72 0c0 .55 1.35 1 3 1s3-.45 3-1-1.35-1-3-1-3 .45-3 1m-78 3.469c0 .894.586 1.243 1.5.893.825-.317 1.5-.978 1.5-1.469S45.325 51 44.5 51s-1.5.661-1.5 1.469m83.264.012c-.99 1.125-.926 1.714.322 2.962 1.979 1.979 4.414 2.011 4.414.057 0-1.023 1.034-1.504 3.25-1.514 4.198-.017 7.75-.981 7.75-2.103 0-.485-1.575-.883-3.5-.883s-3.5.45-3.5 1-1.35 1-3 1-3-.45-3-1c0-1.403-1.275-1.179-2.736.481M161 52c0 .55-1.506 1-3.347 1-1.912 0-4.336.858-5.653 2-1.268 1.1-2.944 2-3.724 2s-2.17.752-3.089 1.67c-1.56 1.56-1.408 1.627 2.314 1.024 2.191-.356 4.137-1.107 4.324-1.67.479-1.435 2.906-1.279 3.513.226.403 1 .52 1 .583 0 .043-.687.983-1.25 2.089-1.25s2.78-.9 3.722-2 2.512-2 3.49-2S167 52.55 167 52s-1.35-1-3-1-3 .45-3 1M28 55c0 .55.45 1 1 1s1-.45 1-1-.45-1-1-1-1 .45-1 1m4 0c0 .55 1.125 1 2.5 1s2.5-.45 2.5-1-1.125-1-2.5-1-2.5.45-2.5 1m90.813 1.683c.721.289 1.584.253 1.916-.079s-.258-.568-1.312-.525c-1.165.048-1.402.285-.604.604M115 57.927c0 .509-.562 1.12-1.25 1.356-.687.237-.35.276.75.087 1.1-.188 3.013-.349 4.25-.356S121 58.55 121 58s-1.35-1-3-1-3 .417-3 .927M.812 59.683c.722.289 1.585.253 1.917-.079s-.258-.568-1.312-.525c-1.165.048-1.402.285-.605.604m138.001 0c.721.289 1.584.253 1.916-.079s-.258-.568-1.312-.525c-1.165.048-1.402.285-.604.604m27.937-.021c.688.278 1.813.278 2.5 0 .688-.277.125-.504-1.25-.504s-1.937.227-1.25.504m7.917.005c-.956.955-.822 2.333.226 2.333.491 0 1.152-.675 1.469-1.5.585-1.524-.481-2.048-1.695-.833M39 61c0 .55.9 1 2 1s2-.45 2-1-.9-1-2-1-2 .45-2 1m14 0c0 .55-1.687 1.052-3.75 1.116s-2.918.33-1.9.593c2.542.654 8.65-.584 8.65-1.754 0-.525-.675-.955-1.5-.955s-1.5.45-1.5 1m128.638.5c-.316.825-1.264 1.5-2.107 1.5-.842 0-1.531.45-1.531 1s.445 1 .989 1c1.24 0 5.011-3.177 5.011-4.222 0-1.371-1.766-.831-2.362.722M188 61c0 .55.9 1 2 1s2-.45 2-1-.9-1-2-1-2 .45-2 1M14.25 62.689c.963.252 2.538.252 3.5 0 .962-.251.175-.457-1.75-.457s-2.713.206-1.75.457m-1.5 3.017c4.098.789 2.337 2.026-3.887 2.73C2.994 69.1 0 70.617 0 72.929 0 73.518 1.8 74 4 74c2.525 0 4.006-.461 4.015-1.25q.015-1.254 1 .25c.676 1.03 1.22 1.156 1.735.404.412-.603 2.095-1.426 3.74-1.829 1.644-.404 3.27-1.187 3.612-1.741.343-.553 4.172-1.249 8.51-1.545 4.339-.296 8.038-.932 8.221-1.413C35.296 65.66 39 65.771 39 67c0 .55 1.35 1 3 1q3 0 3-1.5c0-1.281-2.523-1.48-17.25-1.364-9.488.075-16.238.331-15 .57M73 67c0 .55.675 1 1.5 1s1.5-.45 1.5-1-.675-1-1.5-1-1.5.45-1.5 1m19-.14c0 .473 2.545 1.123 5.656 1.444s6.012 1.158 6.446 1.861c.434.702 1.084.983 1.444.623 1.179-1.18-.613-2.788-3.105-2.788-1.343 0-2.441-.45-2.441-1s-1.8-1-4-1-4 .387-4 .86M131 70c0 .55 1.575 1 3.5 1s3.5-.45 3.5-1-1.575-1-3.5-1-3.5.45-3.5 1m10.211.538c-1.066 1.208-1.022 1.462.25 1.462.846 0 1.539.45 1.539 1s.675 1 1.5 1 1.5-.42 1.5-.934c0-.513 1.238-1.121 2.75-1.35 2.212-.335 2.016-.446-1-.566-2.062-.083-3.75-.6-3.75-1.15 0-1.42-1.28-1.173-2.789.538m18.539 1.124c.688.278 1.25 1.142 1.25 1.921S161.627 75 162.393 75s1.652.675 1.969 1.5c.316.825.139 1.5-.393 1.5-.533 0-.969.45-.969 1s1.125 1 2.5 1 2.5-.41 2.5-.912 1.823-1.22 4.051-1.597c6.121-1.034 4.313-2.943-3.121-3.295-4.3-.204-6.677-.78-7.22-1.75-.445-.795-1.35-1.41-2.01-1.367-.881.058-.867.213.05.583M55 76c0 .55.9 1 2 1s2-.45 2-1-.9-1-2-1-2 .45-2 1m2.75 1.667c-2.883.488-3.627 1.813-1.5 2.671 1 .403 1 .52 0 .583-.687.043-1.25.529-1.25 1.079 0 1.439 2.739 1.234 3.338-.25.403-1 .52-1 .583 0C58.964 82.438 59.9 83 61 83c2.343 0 2.667-1.53.5-2.362-.825-.316-1.5-1.039-1.5-1.607 0-1.791 2.011-1.122 4.412 1.469C66.698 82.966 71 83.945 71 82c0-.55 1.35-1 3-1s3 .45 3 1 2.025 1 4.5 1c6.63 0 5.471-1.632-1.738-2.447C76.331 80.164 73.288 79.466 73 79c-.638-1.032-11.448-1.977-15.25-1.333M153 79.406c0 .914.7 1.224 2 .884 1.1-.288 2-.921 2-1.407 0-.485-.9-.883-2-.883s-2 .633-2 1.406M9.75 80.735c-2.612.206-4.75.8-4.75 1.32S3.875 83 2.5 83C.944 83 0 83.567 0 84.5c0 .825.675 1.5 1.5 1.5s1.5-.392 1.5-.871 2.7-1.176 6-1.549c3.3-.374 6-1.082 6-1.575s2.137-1.064 4.75-1.27l4.75-.375h-5c-2.75 0-7.137.169-9.75.375m132.254 3.793c-.002.565.896 1.798 1.996 2.74s2 1.282 2 .757c0-.526 2.223-1.251 4.939-1.611s5.171-1.259 5.455-1.997c.406-1.059-1.054-1.297-6.936-1.129-4.294.122-7.452.647-7.454 1.24M25.75 86.742c-3.712.192-6.75.779-6.75 1.304S17.491 89 15.647 89s-6.12.289-9.5.642L0 90.285v7.357C0 103.583.295 105 1.531 105c.843 0 1.791-.675 2.107-1.5.888-2.314 2.362-1.775 2.362.863 0 2.196.475 2.401 6.717 2.902 3.695.297 6.883 1.034 7.084 1.637.488 1.466 14.906 1.476 15.395.011.389-1.168 14.141-2.237 17.054-1.326 2.139.67 2.32 2.413.25 2.413-.825 0-1.5.675-1.5 1.5s.45 1.5 1 1.5 1-.45 1-1 2.073-1 4.607-1c3.684 0 4.492.3 4.031 1.5-.459 1.196.336 1.5 3.928 1.5h4.503l-.663-5c-.577-4.344-.435-5 1.082-5 1.28 0 1.599.559 1.196 2.099-.45 1.723-.185 2.004 1.48 1.568 3.242-.847 4.836.322 4.836 3.547 0 2.325.356 2.863 1.582 2.393.87-.334 2.003-.607 2.519-.607.515 0 .655-1.125.31-2.5-.521-2.075-.269-2.5 1.481-2.5s2.108.606 2.108 3.562C86 114.52 90.36 126 91.483 126c.546 0 4.243-8.287 4.832-10.829.395-1.708.17-2.187-.845-1.798-1.104.424-1.185.008-.402-2.053 1.446-3.802-.902-9.32-3.965-9.32-.572 0-.781-.675-.465-1.5.317-.825 1.278-1.5 2.136-1.5.857 0 1.28-.279.939-.62-1.443-1.443-5.553.802-7.059 3.856-1.357 2.753-1.612 2.917-1.631 1.045-.016-1.556-.471-2.046-1.523-1.643-.95.365-1.5-.013-1.5-1.031 0-.884.675-1.607 1.5-1.607s1.486-.562 1.468-1.25c-.073-2.877-2.739-4.578-8.256-5.267C73.57 92.091 71 91.371 71 90.885c0-.487-1.35-.885-3-.885s-3 .45-3 1c0 1.275-5.721 1.32-6.167.049-.183-.524-3.483-1.266-7.333-1.649-3.85-.384-7.331-1.193-7.735-1.799-.509-.763-.739-.717-.75.149C43.007 88.438 42.55 89 42 89s-1-.675-1-1.5c0-1.568.189-1.559-15.25-.758m103.955.696c-.938.938-1.705 1.223-1.705.633 0-.589-.891-1.071-1.981-1.071-2.331 0-3.434 3.316-2.829 8.503.225 1.923.098 3.497-.282 3.497-1.286 0-1.963 5.029-.935 6.949 1.184 2.214 1.774 11.637.79 12.621-.367.368-1.343-.007-2.168-.832s-1.293-1.706-1.041-1.958c.435-.436-2.673-6.795-5.654-11.568-1.406-2.251-6.9-3.216-6.9-1.212 0 .55.675 1 1.5 1 1.78 0 2.007 2.569.319 3.612-.689.426-1.78-.174-2.622-1.441-.792-1.194-1.787-2.171-2.211-2.171-1.311 0-2.179 5.189-2.081 12.44.101 7.448-1.513 12.686-3.79 12.299-.774-.131-1.604.324-1.845 1.011-.24.688.074 1.25.698 1.25 1.532 0 4.032 6.208 4.032 10.012 0 2.308-.411 3.002-1.646 2.782-.906-.162-1.843.269-2.084.956-.24.688.26 1.25 1.111 1.25 1.886 0 3.619 3.011 3.619 6.285 0 1.329.494 3.834 1.098 5.566 1.007 2.889 1.461 3.149 5.5 3.149 2.421 0 4.402-.45 4.402-1s.659-1 1.465-1c.805 0 1.946-.9 2.535-2 1.255-2.346 4.809-2.661 5.638-.5.611 1.592 4.362 2.118 4.362.611 0-.488 1.575-1.184 3.5-1.545s3.5-1.037 3.5-1.503 1.08-1.117 2.4-1.449c2.471-.62 4.6-4.844 4.6-9.127 0-1.877.708-2.312 4.64-2.851 2.551-.35 6.376-.636 8.5-.636s3.86-.386 3.86-.858c0-.471 2.787-1.148 6.194-1.504s6.444-1.041 6.75-1.522 2.919-1.196 5.806-1.589S182 133.447 182 133s2.25-1.122 5-1.5 5-1.095 5-1.594c0-.498 1.088-.906 2.418-.906 3.062 0 5.582-.951 5.582-2.107 0-.491-1.125-.893-2.5-.893s-2.5.392-2.5.871-3.121 1.178-6.935 1.554-7.087 1.142-7.275 1.704c-.187.561-3.141 1.274-6.565 1.584s-6.225.92-6.225 1.354-2.588 1.107-5.75 1.496-5.975 1.038-6.25 1.441c-.275.404-4.1 1.039-8.5 1.412-5.066.43-7.495.336-6.622-.257.758-.514 1.091-1.399.741-1.967-.351-.567.064-1.732.921-2.589s1.483-2.131 1.391-2.831c-.378-2.869.234-3.58 3.625-4.216 3.589-.674 8.152-4.181 6.973-5.36-.351-.351-1.039.011-1.529.804s-1.253 1.081-1.694.639-.016-1.378.946-2.081c2.406-1.759 2.19-2.558-.693-2.558-2.33 0-4.306-1.586-3.269-2.623.269-.269 2.857-.508 5.752-.531 2.974-.023 4.709-.382 3.992-.825-.964-.596-.759-1.296.848-2.903 1.584-1.584 3.36-2.118 7.047-2.118 2.973 0 5.504-.576 6.379-1.451.798-.797 2.742-1.767 4.321-2.154 1.579-.386 3.202-1.196 3.606-1.799.493-.735.739-.654.75.248.008.739-.885 1.579-1.985 1.866-2.661.696-2.56 2.29.146 2.29 2.059 0 2.038.1-.5 2.452-1.455 1.349-2.646 2.699-2.646 3 0 .934 3.02.603 4.292-.471 4.46-3.76 6.094-4.981 6.669-4.981.638 0 4.039-7.018 4.039-8.336 0-.365-.675-.664-1.5-.664-2.613 0-1.618-1.853 1.173-2.184 1.47-.174 2.857-.878 3.083-1.566.634-1.929-8.376-1.682-9.118.25-.35.914-.001 1.5.893 1.5.808 0 1.469.392 1.469.871s-2.354 1.184-5.231 1.565c-2.877.382-5.51 1.145-5.85 1.695-.34.551-6.549 1.265-13.796 1.587-11.75.523-13.111.415-12.57-.995.422-1.101 2.554-1.789 7.027-2.268 3.531-.379 6.42-1.046 6.42-1.484s1.886-1.114 4.192-1.503c2.305-.39 4.807-1.325 5.56-2.077 1.159-1.159.63-1.271-3.441-.726-2.646.353-5.036.957-5.311 1.342-.275.384-3.376.953-6.89 1.264-3.515.311-6.671 1.018-7.013 1.572-.616.997-4.032 1.613-7.275 1.313-.922-.086-2.471-1.956-3.442-4.156-1.053-2.387-2.445-4-3.45-4-.928 0-2.324-.96-3.103-2.134-1.335-2.011-1.515-2.035-3.122-.428M36 88c0 .55.675 1 1.5 1s1.5-.45 1.5-1-.675-1-1.5-1-1.5.45-1.5 1m92 2.933c0 .513-.912 1.222-2.026 1.575-1.538.488-1.98 1.409-1.832 3.818.107 1.746-.134 4.177-.535 5.404-.401 1.226-.265 3.026.302 4 .974 1.673 1.032 1.674 1.061.02.016-.963.48-1.75 1.03-1.75s1-1.125 1-2.5c0-1.82.535-2.5 1.969-2.5 1.339 0 1.784-.48 1.393-1.5-.698-1.819-3.024-1.979-3.642-.25-.245.688-.778.942-1.183.567-.406-.376-.41-1.213-.01-1.861 1.036-1.675 7.381-.449 9.048 1.748 1.282 1.691 1.363 1.669 1.393-.383.03-2.035-.582-2.881-4.391-6.071-1.76-1.474-3.577-1.635-3.577-.317m67 3.536c0 .894.586 1.243 1.5.893.825-.317 1.5-.978 1.5-1.469s-.675-.893-1.5-.893-1.5.661-1.5 1.469m-53.495 8.95c.34 1.605 1.265 3.842 2.056 4.972 2.074 2.961 1.708.776-.651-3.891-1.72-3.402-1.93-3.563-1.405-1.081m22.745 13.243c-1.741.703-1.566 2.338.25 2.338.825 0 1.5-.417 1.5-.927 0-.509.787-1.132 1.75-1.384 1.447-.378 1.403-.463-.25-.494-1.1-.02-2.562.19-3.25.467M68 117.809c0 .787-2.004 1.191-5.906 1.191-5.16 0-5.848.224-5.444 1.771.368 1.405 1.28 1.693 4.416 1.394 3.303-.315 3.851-.113 3.336 1.229-1.023 2.666 2.118 1.871 3.608-.913.98-1.831 1.569-2.172 2.154-1.25.443.698.798.819.789.269s-.677-1.874-1.485-2.941c-.807-1.068-1.468-1.405-1.468-.75m56 .132c0 .518.445 1.216.989 1.552.566.35.734-.051.393-.941-.665-1.732-1.382-2.049-1.382-.611M33 121c0 .55 2.25 1 5 1s5-.45 5-1-2.25-1-5-1-5 .45-5 1m-16.75 4.665c.962.265 1.75.878 1.75 1.363s1.575 1.177 3.5 1.538 3.5 1.057 3.5 1.545c0 .489 1.111.889 2.469.889 1.783 0 2.308.416 1.893 1.5-.317.825-.078 1.5.531 1.5S31 133.55 31 133s.948-1 2.107-1c1.509 0 1.935.448 1.501 1.579-.499 1.302-.078 1.464 2.393.921 2.344-.515 2.999-.314 2.999.921 0 .868.45 1.579 1 1.579s1-.45 1-1c0-1.295 4.729-1.309 5.167-.015.183.542 2.808 1.256 5.833 1.587s5.65 1.013 5.833 1.515c.573 1.568 5.167 1.046 5.167-.587 0-1.048 1.056-1.5 3.5-1.5 1.925 0 3.5-.412 3.5-.916 0-.503-4.95-1.236-11-1.628s-11-1.061-11-1.486-2.7-1.087-6-1.47-6-1.044-6-1.469-2.807-1.09-6.238-1.478c-3.431-.389-6.469-1.053-6.75-1.478-.282-.424-2.537-1.024-5.012-1.332s-3.713-.343-2.75-.078M60 127c0 .55.675 1 1.5 1s1.5-.45 1.5-1-.675-1-1.5-1-1.5.45-1.5 1m50 3.083c0 2.437 2.337 2.093 2.823-.416.192-.987-.318-1.667-1.25-1.667-.927 0-1.573.855-1.573 2.083m-19.394.501c-.373.973-.15 1.431.581 1.187 1.495-.498 2.318-2.771 1.003-2.771-.537 0-1.249.713-1.584 1.584m14.623-.396c.218.653.931 1.365 1.584 1.583.731.244.954-.214.581-1.187-.698-1.818-2.765-2.196-2.165-.396m-15.237 4.786c1.188.751 1.238 1.196.25 2.184C88.57 138.83 88.676 140 90.5 140c.825 0 1.5-.643 1.5-1.429 0-.785.707-2.135 1.571-3 1.429-1.428 1.27-1.57-1.75-1.556-2.471.012-2.939.257-1.829.959M96 136.5c0 .825.675 1.5 1.5 1.5s1.5-.675 1.5-1.5-.675-1.5-1.5-1.5-1.5.675-1.5 1.5m-3.379 3.045c-.307.8-1.374 1.455-2.37 1.455-1.886 0-4.234 4.551-3.494 6.77.225.677 1.736 1.23 3.358 1.23 1.698 0 3.192.636 3.523 1.5 1.228 3.199 2.133 1.243 2.017-4.356-.12-5.806-1.874-9.621-3.034-6.599m14.624 2.705c.226.688 1.387 1.394 2.578 1.569 1.622.239 2.016-.076 1.565-1.25-.712-1.856-4.752-2.167-4.143-.319M127 145c0 .55.675 1 1.5 1s1.5-.45 1.5-1-.675-1-1.5-1-1.5.45-1.5 1m-1.93 7.25c-.038 1.512.38 2.75.93 2.75 1.174 0 1.174-.769 0-3.5-.762-1.772-.867-1.687-.93.75m-35.316 2c-.596 1.622.158 3.75 1.329 3.75.955 0 4.917-3.626 4.917-4.5 0-1.11-5.819-.411-6.246.75M95 157c0 .55.45 1 1 1s1-.45 1-1-.45-1-1-1-1 .45-1 1"/><path fill-opacity=".573" fill-rule="evenodd" d="M124 90.969c0 1.291.489 1.78 1.423 1.422 2.365-.907 2.765-3.391.546-3.391-1.292 0-1.969.677-1.969 1.969m3.813 4.714c.721.289 1.584.253 1.916-.079s-.258-.568-1.312-.525c-1.165.048-1.402.285-.604.604m10.076.817c-.669 2.619.96 10.5 2.17 10.5 1.252 0 1.068-3.581-.436-8.5-.953-3.115-1.336-3.558-1.734-2m-6.569.75c.453 1.283.092 1.75-1.351 1.75-1.798 0-2.461 1.088-2.05 3.362.086.475-.56 1.387-1.436 2.027-2.748 2.009-2.533 8.155.593 16.958 1.595 4.491 2.228 7.281 1.41 6.212-.838-1.095-1.486-1.391-1.486-.679 0 1.938-2.336-.728-4.056-4.63-1.024-2.323-2.095-3.25-3.755-3.25-1.776 0-2.19-.421-1.757-1.787.312-.983-.22-4.245-1.182-7.25-1.35-4.213-2.208-5.463-3.75-5.463-1.615 0-2.116.867-2.6 4.5-.33 2.475-.667 3.905-.75 3.179-.115-1.011-.519-.952-1.721.25-2.296 2.295-2.454 2.034-1.774-2.929.648-4.728.136-5.434-2.226-3.071-1.686 1.685-1.867 7.288-.365 11.24 1.497 3.937-.587 11.331-3.194 11.331-2.853 0-2.227 1.875.88 2.635 1.513.37 3.087 1.166 3.499 1.769s.468-.367.125-2.154c-.546-2.843-.358-3.25 1.501-3.25 1.169 0 2.132-.562 2.14-1.25q.016-1.25.985.25t.985.25c.024-1.947 2.397-1.47 3.79.762.717 1.148.979 3.121.609 4.593-.579 2.308-1.055 2.541-4.516 2.211-2.127-.203-3.868-.268-3.868-.144s1.012 1.314 2.25 2.646c2.883 3.101 8.503 4.489 9.341 2.306.51-1.33.856-1.286 2.59.33 1.998 1.862 1.998 1.867-.278 4.143-1.452 1.452-2.421 1.848-2.674 1.091-.479-1.438-3.229-1.597-3.229-.188 0 .55-1.35 1-3 1s-3-.45-3-1c0-1.393-1.908-1.25-3.321.25-1.886 2-2.102 11.308-.322 13.849l1.533 2.189.687-2.739c.378-1.507.97-2.282 1.315-1.723.346.558 1.81 1.312 3.255 1.675 3.152.791 6.853-2.546 6.853-6.178 0-2.778 2.833-6.323 5.053-6.323.885 0 2.196-1.096 2.913-2.436 1.133-2.118 1.492-2.249 2.74-1 .79.79 1.892 1.436 2.449 1.436 1.542 0 .374 2.481-1.241 2.635l-2.664.25c-1.474.136-1.714 3.115-.25 3.115.55 0 1 .675 1 1.5 0 1.038 1.043 1.5 3.385 1.5 2.509 0 3.81-.648 5.026-2.504 2.568-3.92 3.031-8.027 1.199-10.643-2.017-2.88-2.062-4.853-.11-4.853.825 0 1.5-.675 1.5-1.5s.691-1.5 1.535-1.5c1.138 0 1.303-.452.635-1.75-.495-.963-.704-2.296-.464-2.963s-.72-1.503-2.135-1.859c-1.995-.5-2.545-1.237-2.455-3.286.074-1.694.28-2.014.573-.892.252.963 1.163 1.75 2.024 1.75.862 0 2.087.712 2.724 1.583.878 1.201 2.052 1.416 4.86.889 3.076-.577 3.703-1.11 3.703-3.149 0-3.254-1.716-6.323-3.535-6.323-.961 0-1.465 1.032-1.465 3 0 1.65-.353 3-.784 3-1.126 0-4.216-5.497-4.216-7.5 0-4.108-3.317-12.487-6.176-15.601-1.716-1.869-2.843-2.612-2.504-1.649m-43.691 4.801c-2.182 3.694-1.527 10.826 1.668 18.171 1.805 4.15 2.198 4.514 3.244 3 2.117-3.064 2.766-6.414 1.406-7.254-1.015-.628-1.019-1.379-.025-3.781.683-1.648 1.093-4.017.91-5.264-.38-2.596-2.832-3.9-2.832-1.506 0 .87-.45 1.583-1 1.583s-1-.423-1-.941.45-1.219 1-1.559c1.499-.926 1.204-2.5-.469-2.5-.894 0-1.243-.586-.893-1.5.96-2.501-.098-1.685-2.009 1.551M163 136c0 .55.9 1 2 1s2-.45 2-1-.9-1-2-1-2 .45-2 1m-7.25 1.662c.688.278 1.813.278 2.5 0 .688-.277.125-.504-1.25-.504s-1.937.227-1.25.504M146 139c0 .55.45 1 1 1s1-.45 1-1-.45-1-1-1-1 .45-1 1"/></svg>