<svg xmlns="http://www.w3.org/2000/svg" width="64" height="64" fill="#000000"><path fill="#000000" d="M32 64c17.673 0 32-14.327 32-32C64 14.327 49.673 0 32 0 14.327 0 0 14.327 0 32c0 17.673 14.327 32 32 32Z"/><path fill="#292929" d="M12.16 24.53c.1.314.166.496.249.695 2.254 5.884 4.525 11.769 6.779 17.67.149.38.348.48.73.48 2.303-.017 4.623-.017 6.927 0 .465 0 .663-.166.813-.58 1.375-3.614 2.751-7.21 4.143-10.807.05-.15.116-.282.232-.53.116.265.166.397.216.547 1.392 3.613 2.784 7.243 4.16 10.856.133.348.299.514.696.514 1.74-.017 3.481-.017 5.221-.017.166 0 .332-.033.547-.05-.066-.215-.116-.38-.182-.53-2.254-5.9-4.525-11.801-6.78-17.718-.148-.381-.347-.514-.745-.514-2.088.016-4.177.016-6.265 0-.448 0-.663.149-.829.563-1.193 3.183-2.42 6.349-3.63 9.514-.332.862-.663 1.724-1.06 2.719-.117-.299-.2-.465-.266-.63-1.475-3.846-2.967-7.69-4.409-11.536-.166-.448-.381-.647-.878-.63-1.674.033-3.348.016-5.022.016-.166-.033-.348-.033-.647-.033Zm33.398 16.127h.133c2.039-5.337 4.094-10.658 6.15-16.028-.166-.033-.25-.067-.332-.067-1.873 0-3.763-.016-5.636 0-.165 0-.414.232-.48.415a383.11 383.11 0 0 0-2.768 7.243 1.253 1.253 0 0 0 0 .779c.547 1.508 1.143 3 1.707 4.492.414 1.06.829 2.121 1.226 3.166Z"/><path fill="#000000" fill-opacity=".08" d="M32 63C14.88 63 1 49.12 1 32h-2c0 18.225 14.775 33 33 33v-2Zm31-31c0 17.12-13.88 31-31 31v2c18.225 0 33-14.775 33-33h-2ZM32 1c17.12 0 31 13.88 31 31h2C65 13.775 50.225-1 32-1v2Zm0-2C13.775-1-1 13.775-1 32h2C1 14.88 14.88 1 32 1v-2Z"/></svg>