<svg xmlns="http://www.w3.org/2000/svg" width="20" height="20" fill="#000000"><circle cx="10" cy="10" r="10" fill="#000000"/><path fill="#000000" d="M8.816 10.835c.114-.109.204-.239.265-.381a1.137 1.137 0 0 0-.265-1.283L4.237 4.783 2.5 6.448l3.71 3.555-3.71 3.556 1.737 1.664 4.579-4.388ZM10.872 8.865l4.578-4.388-1.736-1.665-3.71 3.556-3.71-3.556-1.738 1.665 4.579 4.388c.24.23.554.345.868.345.315 0 .629-.115.869-.345ZM17.5 13.552l-3.71-3.555 3.71-3.556-1.737-1.664-4.579 4.388a1.136 1.136 0 0 0 0 1.665l4.579 4.387 1.737-1.665ZM9.997 13.632l3.71 3.556 1.737-1.665-4.579-4.388a1.258 1.258 0 0 0-.868-.345c-.326 0-.638.124-.869.345L4.55 15.523l1.737 1.665 3.71-3.556Z"/></svg>