<svg width="500" height="500" viewBox="0 0 500 500" fill="#000000" xmlns="http://www.w3.org/2000/svg">
<path fill-rule="evenodd" clip-rule="evenodd" d="M172.306 76.707L95.6167 153.414L123.996 181.794L152.376 210.173L200.749 161.828L249.124 113.484L296.83 161.344C323.07 187.665 345.235 209.201 346.09 209.201C346.943 209.201 360.27 196.507 375.705 180.991L403.768 152.782L327.395 76.3902C285.392 34.3767 250.567 0 250.009 0C249.451 0 214.485 34.5181 172.306 76.707ZM220.115 220.167L191.267 249.067L220.639 278.436L250.009 307.808L279.379 278.436L308.751 249.067L279.903 220.167C264.037 204.274 250.585 191.269 250.009 191.269C249.433 191.269 235.981 204.274 220.115 220.167ZM27.8476 221.165L0 249.067L28.3736 277.44L56.7472 305.814L85.1208 277.44L113.494 249.067L85.6468 221.165C70.3293 205.818 57.325 193.262 56.7472 193.262C56.1694 193.262 43.1651 205.818 27.8476 221.165ZM412.393 221.223L384.684 249.186L412.456 277.01C427.732 292.313 441.149 304.836 442.275 304.836C443.4 304.836 456.849 292.283 472.16 276.942L500 249.049L472.16 221.155C456.849 205.814 443.37 193.262 442.209 193.262C441.049 193.262 427.63 205.844 412.393 221.223ZM123.48 316.802L95.6287 344.707L172.82 421.896L250.009 499.087L327.047 422.048L404.086 345.01L375.625 316.953C359.971 301.522 346.574 288.896 345.851 288.896C345.128 288.896 323.07 310.432 296.83 336.754L249.124 384.613L201.237 336.754C174.898 310.432 152.894 288.896 152.34 288.896C151.786 288.896 138.8 301.454 123.48 316.802Z" fill="#000000"/>
</svg>
