<svg xmlns="http://www.w3.org/2000/svg" width="24" height="24" fill="#000000"><clipPath id="a"><path d="M0 0h24v24H0z"/></clipPath><g fill="#000000" clip-path="url(#a)"><path d="m19.57 5.037-.66.659a9.33 9.33 0 0 1 0 12.59l.66.66a10.271 10.271 0 0 0 0-13.925zM5.711 5.093a9.329 9.329 0 0 1 12.591 0l.66-.659a10.271 10.271 0 0 0-13.925 0zM5.094 18.294a9.33 9.33 0 0 1 0-12.584l-.659-.66a10.271 10.271 0 0 0 0 13.925zM18.294 18.902a9.329 9.329 0 0 1-12.591 0l-.66.66a10.271 10.271 0 0 0 13.925 0zM16.16 9.802c-.131-1.375-1.317-1.836-2.818-1.977V5.932h-1.16V7.79h-.927V5.932h-1.15v1.906H7.751V9.08s.857-.015.843 0a.6.6 0 0 1 .66.51v5.22a.406.406 0 0 1-.141.282.401.401 0 0 1-.299.101c.015.014-.843 0-.843 0l-.22 1.386h2.33v1.938h1.16v-1.909h.927v1.9h1.162v-1.915c1.96-.119 3.326-.602 3.497-2.436.139-1.476-.556-2.135-1.665-2.401.675-.332 1.092-.947.997-1.953zm-1.625 4.125c0 1.441-2.469 1.276-3.255 1.276v-2.556c.786.002 3.255-.224 3.255 1.28zm-.538-3.602c0 1.318-2.06 1.157-2.715 1.157V9.158c.654 0 2.715-.206 2.715 1.167z"/><path d="M11.998 24A12 12 0 1 1 12.002.001 12 12 0 0 1 11.998 24zm0-23.064a11.058 11.058 0 1 0 .017 22.115A11.058 11.058 0 0 0 11.998.936z"/></g></svg>