<svg xmlns="http://www.w3.org/2000/svg" width="250" height="250" version="1.1" fill="#000000"><path fill-opacity=".122" d="M 94.281 1.750 C 93.233 4.542, 90.969 5.766, 83.500 7.576 C 79.650 8.509, 74.025 10.692, 71 12.427 C 67.975 14.163, 63.869 16.464, 61.875 17.541 C 45.519 26.379, 26.379 45.519, 17.541 61.875 C 16.464 63.869, 14.163 67.975, 12.427 71 C 10.692 74.025, 8.509 79.650, 7.576 83.500 C 5.766 90.969, 4.542 93.233, 1.750 94.281 C 0.137 94.886, -0 97.286, -0 125 C -0 152.714, 0.137 155.114, 1.750 155.719 C 4.542 156.767, 5.766 159.031, 7.576 166.500 C 8.509 170.350, 10.692 175.975, 12.427 179 C 14.163 182.025, 16.464 186.131, 17.541 188.125 C 26.379 204.481, 45.519 223.621, 61.875 232.459 C 63.869 233.536, 67.975 235.837, 71 237.573 C 74.025 239.308, 79.650 241.491, 83.500 242.424 C 90.969 244.234, 93.233 245.458, 94.281 248.250 C 94.886 249.863, 97.286 250, 125 250 C 152.714 250, 155.114 249.863, 155.719 248.250 C 156.767 245.458, 159.031 244.234, 166.500 242.424 C 170.350 241.491, 175.975 239.308, 179 237.573 C 182.025 235.837, 186.131 233.536, 188.125 232.459 C 204.481 223.621, 223.621 204.481, 232.459 188.125 C 233.536 186.131, 235.837 182.025, 237.573 179 C 239.308 175.975, 241.491 170.350, 242.424 166.500 C 244.204 159.155, 245.269 157.216, 248.523 155.391 C 250.414 154.331, 250.511 152.981, 250.764 124.355 C 251.028 94.516, 251.022 94.427, 248.915 94.269 C 245.900 94.041, 244.360 91.485, 242.424 83.500 C 241.491 79.650, 239.308 74.025, 237.573 71 C 235.837 67.975, 233.536 63.869, 232.459 61.875 C 223.621 45.519, 204.481 26.379, 188.125 17.541 C 186.131 16.464, 182.025 14.163, 179 12.427 C 175.975 10.692, 170.350 8.509, 166.500 7.576 C 159.031 5.766, 156.767 4.542, 155.719 1.750 C 155.114 0.137, 152.714 0, 125 0 C 97.286 0, 94.886 0.137, 94.281 1.750 M 0.444 125 C 0.444 141.775, 0.581 148.637, 0.748 140.250 C 0.915 131.862, 0.915 118.137, 0.748 109.750 C 0.581 101.362, 0.444 108.225, 0.444 125" stroke="none" fill="#000000" fill-rule="evenodd"/><path fill-opacity=".142" d="M 116.217 54.047 C 113.311 54.567, 109.259 55.848, 107.211 56.892 C 105.164 57.937, 101.620 59.295, 99.336 59.910 C 93.162 61.572, 78.172 73.767, 75.296 79.469 C 74.454 81.136, 72.862 83.490, 71.756 84.699 C 69.848 86.788, 65.579 97.609, 62.367 108.500 C 61.250 112.288, 60.982 117.500, 61.262 130 C 61.603 145.211, 61.838 146.969, 64.271 152.500 C 65.722 155.800, 67.369 160.300, 67.930 162.500 C 69.893 170.199, 83.312 185.983, 91.756 190.523 C 94.365 191.926, 97.850 193.932, 99.500 194.980 C 101.387 196.178, 106.893 197.516, 114.343 198.586 C 124.498 200.044, 127.635 200.115, 136.343 199.084 C 149.322 197.548, 153.609 196.400, 157.526 193.413 C 159.265 192.086, 161.172 191, 161.763 191 C 164.642 191, 181 174.018, 181 171.029 C 181 168.979, 185.066 166, 187.865 166 C 189.441 166, 191.966 165.028, 193.475 163.841 C 195.841 161.980, 196.150 161.152, 195.707 157.855 C 195.425 155.751, 193.800 152.134, 192.097 149.817 C 189.164 145.829, 189 145.118, 189 136.414 C 189 125.161, 187.949 123.456, 180.114 122.001 C 174.229 120.908, 140.146 120.621, 135.139 121.622 C 133.428 121.964, 130.897 123.376, 129.514 124.759 C 127.408 126.865, 127 128.212, 127 133.060 C 127 137.773, 127.464 139.398, 129.500 141.818 C 132.599 145.500, 132.598 146.304, 129.496 152.419 C 128.123 155.125, 127 158.123, 127 159.081 C 127 161.972, 132.562 165.819, 137.755 166.518 C 144.610 167.442, 144.745 167.523, 141.997 169.082 C 138.778 170.910, 119.015 170.989, 113.881 169.196 C 111.760 168.455, 107.583 165.152, 103.790 161.216 C 97.792 154.993, 97.189 153.950, 95.567 147 C 92.091 132.113, 92.627 115.237, 97.002 101.755 C 99.934 92.719, 113.948 83.175, 125.665 82.235 C 131.102 81.798, 132.665 82.122, 138.672 84.925 C 146.584 88.617, 152.490 93.925, 154.094 98.784 C 155.621 103.410, 159.746 105, 170.218 104.998 C 182.776 104.996, 188.776 100.978, 185.539 94.738 C 184.822 93.356, 183.502 90.015, 182.604 87.314 C 181.138 82.900, 170.931 69, 169.156 69 C 168.775 69, 166.293 67.206, 163.639 65.014 C 160.986 62.821, 156.944 60.526, 154.658 59.914 C 152.371 59.302, 147.915 57.716, 144.755 56.390 C 138.126 53.608, 124.787 52.513, 116.217 54.047" stroke="none" fill="#000000" fill-rule="evenodd"/><path fill-opacity=".537" d="M 110.159 60.566 C 94.691 64.158, 84.605 71.609, 75.052 86.500 C 71.024 92.780, 70.345 94.736, 67.031 109.624 C 64.136 122.629, 64.379 132.775, 67.966 148.686 C 70.677 160.709, 71.387 162.511, 76.216 169.630 C 82.782 179.308, 88.403 184.604, 96.344 188.592 C 99.730 190.293, 104.075 192.543, 106 193.592 C 109.078 195.270, 111.670 195.499, 127.500 195.492 L 145.500 195.483 154.500 190.779 C 164.500 185.552, 174.802 176.028, 178.907 168.215 C 179.568 166.958, 182.221 164.928, 184.804 163.704 C 190.453 161.027, 191.044 158.887, 187.809 152.827 C 185.997 149.432, 185.392 146.368, 185 138.602 C 184.523 129.167, 184.368 128.607, 181.678 126.602 C 179.010 124.615, 177.651 124.500, 156.840 124.500 C 134.910 124.500, 134.817 124.509, 132.912 126.861 C 130.105 130.327, 130.367 136.458, 133.455 139.545 C 135.715 141.806, 136.657 142, 145.389 142 C 157.173 142, 160.253 142.993, 159.816 146.652 C 159.237 151.506, 155.020 153.482, 144.918 153.636 C 134.986 153.787, 133 154.705, 133 159.147 C 133 162.573, 135.756 164, 142.374 164 C 147.782 164, 150.962 166.124, 149.399 168.691 C 147.979 171.024, 133.785 175.875, 128.170 175.945 C 125.772 175.976, 119.971 174.639, 115.170 172.950 C 104.399 169.162, 97.018 162.630, 94.376 154.547 C 93.468 151.771, 91.807 147.700, 90.684 145.500 C 89.086 142.371, 88.547 138.995, 88.206 129.995 C 87.753 118.002, 87.960 116.798, 92.724 103.808 C 95.936 95.048, 102.206 87.553, 110.547 82.500 C 114.945 79.836, 116.557 79.460, 124.935 79.147 C 130.124 78.953, 135.996 79.282, 137.984 79.877 C 143.846 81.633, 152.850 89.026, 155.835 94.534 C 159.175 100.696, 161.693 101.967, 170.595 101.985 C 176.211 101.997, 178.035 101.619, 179.345 100.171 C 181.201 98.120, 181.497 93.437, 180.016 89.542 C 178.215 84.806, 168.980 73.634, 163.705 69.809 C 160.842 67.734, 157.572 65.356, 156.438 64.526 C 153.518 62.388, 132.780 57.984, 126.099 58.082 C 123.019 58.128, 115.847 59.245, 110.159 60.566" stroke="none" fill="#000000" fill-rule="evenodd"/><path fill-opacity=".472" d="M 110.751 63.899 C 105.589 64.481, 103.002 65.378, 99.751 67.712 C 97.413 69.391, 93.813 71.470, 91.750 72.331 C 89.688 73.193, 88 74.333, 88 74.864 C 88 75.396, 86.608 77.106, 84.907 78.665 C 83.206 80.224, 80.927 83.525, 79.843 86 C 78.759 88.475, 76.711 91.716, 75.294 93.203 C 72.913 95.700, 72.597 97.137, 71.163 112.018 C 69.746 126.721, 69.752 129.451, 71.231 143.227 C 72.522 155.255, 73.265 158.851, 74.886 160.912 C 76.004 162.336, 78.236 165.750, 79.846 168.500 C 83.665 175.025, 94.684 184.695, 100.221 186.380 C 102.575 187.097, 106.250 188.879, 108.390 190.341 C 112.164 192.921, 112.713 193, 126.890 192.998 C 139.446 192.997, 141.992 192.726, 145 191.067 C 151.505 187.480, 154.490 186.124, 157.064 185.589 C 160.193 184.938, 169.244 176.126, 174 169.100 C 175.925 166.256, 178.963 163.008, 180.750 161.883 C 184.609 159.454, 184.663 158.984, 181.762 153.066 C 179.877 149.219, 179.554 147.047, 179.715 139.273 C 179.977 126.577, 180.782 127, 156.349 127 C 140.222 127, 136.891 127.252, 135.571 128.571 C 133.589 130.553, 133.560 133.926, 135.500 136.696 C 136.873 138.657, 138.057 138.865, 149.582 139.168 C 163.737 139.541, 165.013 140.185, 164.985 146.941 C 164.956 153.893, 163.486 155.240, 151.283 159.488 C 150.517 159.755, 151.165 161.012, 153.033 162.879 C 158.112 167.958, 156.277 171.758, 147.616 174.100 C 145.479 174.677, 141.961 176.321, 139.798 177.752 C 136.429 179.982, 134.764 180.358, 128.183 180.376 C 121.413 180.395, 119.800 180.017, 114.609 177.199 C 111.369 175.439, 108.067 174, 107.270 174 C 104.619 174, 92.293 160.627, 91.521 156.915 C 91.131 155.037, 89.644 151.778, 88.217 149.673 C 82.476 141.208, 82.539 112.839, 88.318 104.089 C 89.621 102.115, 91.247 98.801, 91.930 96.725 C 92.613 94.648, 94.294 91.616, 95.666 89.985 C 99.271 85.701, 109.817 77.913, 113.409 76.883 C 117.731 75.643, 136.710 75.792, 141.431 77.103 C 146.673 78.558, 155.528 86.372, 158.555 92.214 C 161.284 97.481, 162.646 98.443, 168.682 99.364 C 178.794 100.907, 181.209 95.018, 174.038 86.311 C 171.858 83.665, 168.841 79.983, 167.333 78.129 C 165.826 76.275, 162.771 73.599, 160.546 72.181 C 158.321 70.764, 155.803 68.766, 154.950 67.742 C 154.098 66.718, 151.623 65.458, 149.450 64.943 C 143.997 63.650, 118.956 62.975, 110.751 63.899" stroke="none" fill="#000000" fill-rule="evenodd"/></svg>