<svg width="482" height="500" viewBox="0 0 482 500" fill="#000000" xmlns="http://www.w3.org/2000/svg">
<path fill-rule="evenodd" clip-rule="evenodd" d="M192.614 5.01814C79.5974 29.6912 -0.127802 132.218 0.0272961 252.687C0.0798292 293.48 -2.6619 290.508 34.9193 290.508C71.7725 290.508 69.4285 291.824 83.9002 262.991C89.0809 252.672 93.7038 245.355 94.1766 246.73C94.6469 248.106 100.073 271.183 106.232 298.013C117.749 348.187 121.099 355.549 132.416 355.549C143.102 355.549 146.872 345.9 153.927 300.514C164.058 235.343 164.361 235.706 173.782 324.279C182.262 403.987 181.999 402.566 189.079 407.204C209.837 420.805 210.743 417.371 229.009 255.964C247.281 94.5045 247.138 96.6259 239.976 92.7935C225.267 84.921 224.791 86.8322 211.263 207.693C204.471 268.377 198.307 318.025 197.567 318.025C196.826 318.025 192.739 286.295 188.484 247.513C180.356 173.437 178.83 167.931 166.407 167.931C154.039 167.931 151.268 175.388 141.354 235.338C136.108 267.058 131.112 293.01 130.254 293.01C129.394 293.01 124.528 274.868 119.443 252.697C108.978 207.078 107.85 204.899 95.2673 205.952C86.4518 206.693 86.0365 207.236 71.2872 237.29L56.2778 267.874L41.5159 267.934L26.7566 267.994L28.3101 242.353C39.8499 52.0803 250.615 -38.847 386.176 87.9629C411.884 112.011 438.594 155.698 446.156 186.067C447.787 192.616 448.588 192.947 462.879 192.947H477.888L476.245 186.067C446.561 61.854 315.496 -21.8088 192.614 5.01814ZM275.866 96.0105C268.006 104.556 234.52 401.03 240.714 407.224C245.532 412.042 256.339 410.116 258.675 404.025C259.541 401.768 265.382 353.635 271.656 297.06C283.013 194.638 284.179 186.117 286.52 188.459C287.198 189.134 291.128 219.236 295.256 255.346C304.196 333.548 307.644 341.835 326.175 329.69C332.762 325.375 332.73 325.508 344.094 252.984C352.98 196.266 352.082 197.044 361.388 238.005C378.378 312.79 387.949 317.075 414.031 261.567L427.469 232.972H441.373H455.279L455.247 253.61C455.112 337.58 405.575 415.935 329.978 451.752C216.581 505.479 77.6662 443.835 39.8999 323.029L35.5997 309.27L21.5484 308.519C4.58517 307.614 4.27497 308.752 14.0611 336.012C107.382 595.973 480.92 530.617 481.463 254.235L481.546 211.708L450.881 211.005C413.353 210.145 412.6 210.518 401.153 235.558C396.142 246.518 391.356 255.486 390.516 255.486C389.675 255.483 383.972 233.252 377.84 206.08C366.458 155.626 362.02 145.417 351.464 145.417C340.272 145.417 336.584 154.955 329.217 202.953C322.923 243.969 317.955 263.631 317.56 249.107C316.512 210.683 300.432 99.135 295.348 95.0199C287.769 88.8835 282.158 89.1687 275.866 96.0105Z" fill="#000000"/>
</svg>
