<svg xmlns="http://www.w3.org/2000/svg" width="32" height="32" version="1.1" fill="#000000"><path fill-opacity=".267" d="M 6 15.288 C 6 20.629, 6.320 25, 6.712 25 C 7.104 25, 9.355 23.105, 11.714 20.790 L 16.004 16.579 21.002 21.502 L 26 26.425 26 16 L 26 5.575 21 10.500 L 16 15.425 11 10.500 L 6 5.575 6 15.288" stroke="none" fill="#000000" fill-rule="evenodd"/><path fill-opacity=".353" d="M 20 11.500 L 15.584 16 20 20.500 C 22.429 22.975, 24.773 25, 25.208 25 C 25.644 25, 26 20.950, 26 16 C 26 11.050, 25.644 7, 25.208 7 C 24.773 7, 22.429 9.025, 20 11.500 M 7 16 L 7 24.471 11.235 20.235 L 15.471 16 11.235 11.765 L 7 7.529 7 16" stroke="none" fill="#000000" fill-rule="evenodd"/><path fill-opacity=".975" d="M 20.986 11.514 L 16.555 16.029 21.278 20.751 L 26 25.474 26 16.237 C 26 11.157, 25.869 7, 25.708 7 C 25.548 7, 23.423 9.032, 20.986 11.514" stroke="none" fill="#000000" fill-rule="evenodd"/><path fill-opacity=".338" d="M 20.484 12.016 L 16.562 16.033 20.781 20.252 L 25 24.471 25 16.235 C 25 11.706, 24.866 8, 24.703 8 C 24.540 8, 22.641 9.807, 20.484 12.016" stroke="none" fill="#000000" fill-rule="evenodd"/></svg>