<svg width="500" height="500" viewBox="0 0 500 500" fill="#000000" xmlns="http://www.w3.org/2000/svg">
<path fill-rule="evenodd" clip-rule="evenodd" d="M222.5 22.1125C222.5 40.36 223.3 44.9475 227.073 48.3625C230.523 51.485 236.538 52.5 251.595 52.5C263.418 52.5 280.147 54.625 292.65 57.7175C304.255 60.5875 318.813 65.185 325 67.935C331.187 70.6875 340.75 75.2825 346.25 78.15C351.75 81.0175 362.437 88.125 370 93.9475C377.563 99.7675 388.398 109.417 394.08 115.39C399.763 121.362 408.94 133 414.478 141.25C420.015 149.5 427.36 162.632 430.8 170.432C434.24 178.232 436.405 185.262 435.61 186.057C434.815 186.85 336.48 187.5 217.083 187.5H0V247.232C0 295.257 0.665 307.22 3.395 308.267C5.265 308.985 7.5025 313.888 8.37 319.16C9.2375 324.435 12.5075 334.937 15.635 342.5C18.7625 350.063 22.1725 357.587 23.215 359.222C24.255 360.857 28.52 368.683 32.69 376.613C36.86 384.54 46.5775 398.733 54.28 408.148C61.9825 417.563 75.14 431.233 83.5175 438.525C91.895 445.815 104.375 455.672 111.25 460.43C118.125 465.185 127.688 471.038 132.5 473.433C137.312 475.828 149.493 481.097 159.565 485.145C169.638 489.19 180.078 492.5 182.768 492.5C185.458 492.5 188.305 494.188 189.095 496.25C190.32 499.437 199.447 500 250 500C297.797 500 309.72 499.332 310.767 496.605C311.485 494.735 316.95 492.43 322.91 491.478C328.873 490.525 336.017 488.265 338.787 486.452C341.557 484.64 347.45 482.36 351.883 481.385C356.315 480.413 360.595 478.56 361.393 477.27C362.19 475.98 366.42 473.255 370.795 471.217C375.17 469.177 381.675 465.54 385.252 463.13C388.827 460.72 395.015 456.527 399.002 453.812C402.987 451.097 410.615 444.91 415.95 440.062C421.288 435.215 429.163 427.425 433.45 422.75C437.74 418.075 442.995 412.45 445.127 410.25C447.257 408.05 451.195 402.987 453.877 399.002C456.557 395.015 460.72 388.827 463.13 385.252C465.54 381.675 469.177 375.17 471.217 370.795C473.255 366.42 475.942 362.213 477.185 361.445C478.427 360.675 480.172 356.943 481.06 353.148C481.947 349.355 484.302 342.875 486.297 338.75C488.29 334.625 491.107 326.47 492.557 320.625C494.007 314.78 496.275 310 497.598 310C499.068 310 500 286.825 500 250.268C500 202.243 499.335 190.28 496.605 189.233C494.735 188.515 492.445 183.153 491.51 177.318C490.578 171.483 488.255 163.793 486.35 160.228C484.445 156.665 480.395 148.125 477.352 141.25C474.307 134.375 466.962 121.438 461.027 112.5C455.092 103.562 444.648 89.98 437.815 82.3175C430.98 74.655 417.657 62.06 408.21 54.33C398.76 46.6 384.54 36.86 376.613 32.69C368.683 28.52 360.857 24.255 359.222 23.215C357.587 22.1725 350.063 18.7625 342.5 15.635C334.937 12.5075 324.435 9.2375 319.16 8.37C313.888 7.5025 308.985 5.265 308.267 3.395C307.242 0.72 298.01 0 264.732 0H222.5V22.1125ZM78.935 245.3C79.8875 246.843 82.8225 260.542 85.455 275.745C88.0875 290.95 91.6925 306.283 93.465 309.82C95.2375 313.358 99.4025 321.832 102.72 328.657C106.035 335.482 113.805 347.295 119.983 354.907C126.16 362.52 134.49 371.562 138.492 375C142.495 378.438 151.605 385.335 158.735 390.33C165.867 395.325 174.412 400.222 177.725 401.215C181.04 402.207 186.12 404.51 189.015 406.333C191.91 408.153 200.348 410.885 207.765 412.402C215.183 413.92 229.767 416.423 240.177 417.965C250.587 419.505 262.085 420.017 265.73 419.105C269.375 418.19 273.632 415.057 275.19 412.142C276.75 409.23 278.027 398.93 278.027 389.258C278.027 373.733 277.335 371.138 272.138 367.14C268.065 364.008 261.855 362.595 251.998 362.555C244.16 362.525 231.785 361.237 224.498 359.692C217.213 358.147 207.097 354.783 202.02 352.215C196.945 349.648 189.06 345.005 184.5 341.898C179.94 338.793 173.405 333.447 169.98 330.02C166.552 326.595 161.462 320.408 158.667 316.27C155.87 312.135 151.078 303.91 148.013 297.992C144.95 292.075 141.445 280.195 140.227 271.593C139.007 262.99 138.593 252.915 139.3 249.205L140.59 242.463L293.42 243.105L446.25 243.75L446.152 263.75C446.1 274.952 444.087 290.897 441.577 300C439.115 308.938 434.94 320.825 432.3 326.415C429.66 332.005 427.5 337.265 427.5 338.105C427.5 338.945 421.93 348.045 415.12 358.327C408.31 368.61 396.952 382.807 389.88 389.88C382.807 396.952 368.61 408.31 358.327 415.12C348.045 421.93 338.945 427.5 338.105 427.5C337.265 427.5 332.005 429.57 326.415 432.098C320.825 434.628 307.555 439.128 296.928 442.098C282.548 446.118 270.718 447.493 250.678 447.47C229.993 447.445 218.822 446.058 202.5 441.483C190.812 438.205 175.675 433.098 168.86 430.13C162.045 427.165 149.67 420.16 141.36 414.57C133.05 408.978 121.938 400.318 116.665 395.325C111.393 390.335 101.732 379.5 95.1975 371.25C88.665 363 80.9825 351.75 78.1275 346.25C75.2725 340.75 70.605 331.147 67.755 324.912C64.905 318.677 61.475 307.99 60.1325 301.162C58.79 294.335 56.5225 284.82 55.095 280.018C53.6675 275.213 52.5 265.557 52.5 258.557C52.5 251.56 53.25 245.082 54.1675 244.167C55.0825 243.25 60.6425 242.5 66.52 242.5C72.3975 242.5 77.985 243.76 78.935 245.3ZM237.5 276.115C234.062 277.992 228.717 282.965 225.625 287.162C222.522 291.372 220 298.427 220 302.89C220 307.547 222.78 314.993 226.55 320.433C231.193 327.133 235.563 330.348 241.55 331.473C246.198 332.343 253.87 332.33 258.6 331.442C263.763 330.475 269.755 326.793 273.6 322.223C278.51 316.385 279.98 311.9 279.918 302.932C279.865 295.502 278.217 289.315 275.392 285.935C272.95 283.013 267.417 278.793 263.1 276.56C258.782 274.328 252.66 272.545 249.5 272.6C246.338 272.655 240.938 274.237 237.5 276.115Z" fill="#000000"/>
</svg>
