<svg xmlns="http://www.w3.org/2000/svg" width="200" height="200" fill="#000000"><path fill-opacity=".149" fill-rule="evenodd" d="M86.5.647c-34.317 5.47-62.375 25.19-76.445 53.728C1.731 71.258.502 77.127.502 100c0 17.343.254 20.385 2.294 27.5 9.783 34.108 36.373 59.748 71.713 69.151 8.771 2.334 11.883 2.659 25.491 2.659s16.72-.325 25.491-2.659c28.997-7.715 52.271-26.305 64.803-51.759 4.658-9.46 8.706-22.044 8.706-27.063 0-1.491.45-2.989 1-3.329.595-.368 1-6.697 1-15.618 0-9.745-.35-14.784-1-14.382-.577.356-1-.58-1-2.211 0-4.639-3.875-17.219-8.05-26.133-12.243-26.139-36.928-45.938-66.45-53.297C116.621.895 93.417-.456 86.5.647M47.135 26.43l-2.325 8.429-9.408 2.268c-5.174 1.247-9.068 2.553-8.655 2.902.414.348 4.509 1.497 9.1 2.552 4.826 1.11 8.667 2.552 9.107 3.419.419.825 1.567 4.538 2.552 8.25C48.491 57.963 49.613 61 50 61s1.509-3.038 2.494-6.75 2.138-7.436 2.562-8.274c.458-.903 4.266-2.322 9.358-3.486C69.136 41.411 73 40.234 73 39.876s-4.01-1.643-8.91-2.854l-8.91-2.201-2.321-8.411C51.583 21.785 50.296 18 50 18s-1.585 3.793-2.865 8.43M.402 100c0 8.525.154 12.013.341 7.75s.188-11.237 0-15.5C.556 87.987.402 91.475.402 100"/><path fill-opacity=".055" fill-rule="evenodd" d="M123.151 6.75c5.134 5.328 13.091 15.341 12.59 15.842-.18.18-3.741-.757-7.914-2.082-11.832-3.758-20.001-4.831-32.246-4.236-12.353.601-24.604 3.69-34.555 8.713-6.775 3.42-7.31 4.032-6.466 7.395.548 2.185 1.721 2.74 10.006 4.737 5.162 1.245 9.15 2.498 8.862 2.786-.287.288-4.439 1.473-9.225 2.633l-8.703 2.11-2.5 8.673c-1.375 4.771-2.725 8.674-3 8.674s-1.625-3.92-3-8.711c-2.432-8.472-2.596-8.731-6-9.469-3.136-.68-3.798-.423-6.358 2.463-7.37 8.306-14.427 22.894-16.688 34.493-1.523 7.812-.702 28.867 1.377 35.324 6.813 21.155 18.598 36.152 37.169 47.299l6 3.601-11.5-.009c-16.486-.012-18.267-.454-23.677-5.873C14.665 148.434 5.378 131.164 1.45 113l-1.406-6.5.584 7c2.778 33.327 27.283 65.045 60.838 78.747 23.159 9.457 51.101 9.699 75.534.654 22.143-8.197 42.388-26.393 52.9-47.548 4.226-8.503 9.1-23.642 9.1-28.265 0-1.478.436-3.124.97-3.658 1.592-1.592-.574-31.706-2.943-40.93-6.908-26.893-28.462-51.911-54.532-63.298C136.172 6.441 122.03 2 119.558 2c-.541 0 1.076 2.138 3.593 4.75M89 35.469l-9.5 5.346-.281 11.507-.281 11.508 9.405 5.085c5.172 2.797 10.249 5.078 11.281 5.069 1.032-.008 6.053-2.285 11.157-5.058l9.281-5.042-.281-11.584-.281-11.584-9.5-5.343c-5.225-2.938-9.95-5.321-10.5-5.296-.55.026-5.275 2.452-10.5 5.392m8.63-.322c-1.51.877-1.606 1.254-.5 1.955 1.777 1.125 3.023 1.095 4.87-.117 1.333-.876 1.333-1.094 0-1.97-1.855-1.218-2.057-1.211-4.37.132m-10.508 4.757c-.758.48-1.069 1.373-.691 1.984.846 1.369 3.56 1.416 5.569.097 1.333-.876 1.333-1.094 0-1.97-1.85-1.214-3.093-1.242-4.878-.111m9.878.111c-1.333.876-1.333 1.094 0 1.97.825.541 1.95.984 2.5.984s1.675-.443 2.5-.984c1.333-.876 1.333-1.094 0-1.97-.825-.541-1.95-.984-2.5-.984s-1.675.443-2.5.984m11.122-.111C106.354 41.023 107.553 43 110 43s3.646-1.977 1.878-3.096c-.758-.481-1.603-.873-1.878-.873s-1.12.392-1.878.873M97 45.015c-1.333.876-1.333 1.094 0 1.97.825.541 1.95.984 2.5.984 1.883 0 3.757-1.745 3.069-2.857-.846-1.369-3.56-1.416-5.569-.097m-3.75 5.049L99 53.032v5.484c0 3.016.45 5.484 1 5.484s1-2.438 1-5.417v-5.418l5.25-3.06c5.981-3.487 5.131-4.054-1.693-1.13-4.589 1.968-4.629 1.968-9.619 0-7.373-2.906-8.286-2.317-1.688 1.089M82 53.368c0 2.891 1.029 3.85 2.896 2.696 1.779-1.099.98-4.464-1.157-4.876-1.28-.246-1.739.33-1.739 2.18m28.667 1.299c-.367.366-.667 1.979-.667 3.583 0 3.981 2.405 3.061 2.813-1.077.294-2.972-.617-4.035-2.146-2.506m-24.14 1.289c-.955 1.545.44 5.222 1.808 4.766 1.511-.504 1.517-4.938.007-5.441-.637-.213-1.454.091-1.815.675m3.967 4.053c-.936 1.515.45 4.991 1.99 4.991 1.612 0 2.362-1.837 1.737-4.25-.495-1.908-2.73-2.353-3.727-.741M44.75 73.652c-1.513.265-2.75 1.091-2.75 1.837s1.733 8.703 3.852 17.683a4451 4451 0 0 1 7.196 31.087c1.84 8.117 3.657 15.264 4.039 15.882 2.116 3.424 23.813 2.638 28.913-1.047 1.607-1.162 4.463-6.322 7.998-14.451C97.021 117.69 99.741 112 100.043 112s2.98 5.664 5.955 12.587c5.052 11.76 8.294 16.413 11.435 16.413 1.758 0 9.203-7.501 14.277-14.384 9.58-12.995 16.506-30.884 17.896-46.223l.698-7.7-6.869.703c-3.778.387-6.958.794-7.068.904s-2.585 10.888-5.501 23.95c-2.916 13.063-5.573 23.75-5.905 23.75-.333 0-4.109-7.312-8.391-16.25-4.283-8.937-8.301-16.581-8.929-16.985-.627-.404-4.066-.734-7.641-.734s-7.001.33-7.612.734c-.612.404-4.619 8.048-8.906 16.985-4.286 8.938-8.06 16.249-8.387 16.248-.327-.002-2.947-10.641-5.822-23.644s-5.397-23.811-5.604-24.018c-.637-.638-16.005-1.193-18.919-.684M.252 110.5c.011 2.2.216 2.982.455 1.738s.23-3.044-.02-4-.446.062-.435 2.262"/><path fill-opacity=".239" fill-rule="evenodd" d="M82 17.979c-10.087 2.181-15.196 3.959-21.69 7.548-6.311 3.487-6.531 3.743-5.778 6.746.577 2.299 1.616 2.794 10.093 4.808 5.197 1.235 9.095 2.534 8.662 2.886s-3.037 1.2-5.787 1.883c-13.448 3.34-12.006 2.19-14.618 11.658C51.593 58.179 50.296 62 50 62s-1.605-3.863-2.907-8.584c-1.303-4.722-2.869-8.734-3.481-8.917-6.213-1.856-6.414-1.771-11.248 4.734C22.322 62.747 17 78.774 17 95.5c0 12.893 2.425 22.839 8.655 35.5 3.938 8.004 6.106 10.929 13.76 18.57 17.049 17.021 36.66 25.308 60.085 25.388 24.187.082 43.939-8.123 61.101-25.381 7.617-7.66 9.861-10.695 13.76-18.615 6.212-12.616 8.643-22.588 8.624-35.372-.032-22.171-8.46-41.362-25.026-56.99C138.241 19.999 109.162 12.105 82 17.979m11 15.178a1351 1351 0 0 0-9.75 5.498L79 41.084v22.834l9.25 5.025c5.088 2.764 10.206 5.033 11.374 5.041s4.318-1.195 7-2.674c2.682-1.48 6.676-3.686 8.876-4.903l4-2.211V40.525l-9.5-5.249c-5.225-2.887-9.95-5.235-10.5-5.219s-3.475 1.412-6.5 3.1m4.36 2.322c-1.619 1.183-1.598 1.311.312 1.917 2.199.698 5.328-.116 5.328-1.386 0-1.442-3.894-1.808-5.64-.531m-9.61 4.269c-.963.219-1.75.785-1.75 1.258 0 1.397 3.821 2.193 5.64 1.176 1.54-.862 1.521-1.019-.23-1.886-1.051-.521-2.697-.767-3.66-.548m9.61.731c-1.619 1.183-1.598 1.311.312 1.917 2.199.698 5.328-.116 5.328-1.386 0-1.442-3.894-1.808-5.64-.531m10.762-.575c-1.52.962-.694 3.105 1.187 3.081.655-.009 1.866-.459 2.691-1 1.333-.876 1.333-1.094 0-1.97-1.834-1.204-2.14-1.213-3.878-.111M97 45.015c-1.333.876-1.333 1.094 0 1.97.825.541 1.95.984 2.5.984s1.675-.443 2.5-.984c1.333-.876 1.333-1.094 0-1.97-.825-.541-1.95-.984-2.5-.984s-1.675.443-2.5.984m-7 3.039c.825.563 3.188 1.915 5.25 3.005 3.643 1.925 3.75 2.139 3.75 7.52 0 3.438.379 5.305 1 4.921.55-.34 1-2.804 1-5.476 0-4.806.057-4.892 5.25-7.919 6.164-3.594 5.789-3.88-1.38-1.054l-5.204 2.052-4.768-2.052c-5.126-2.204-7.324-2.652-4.898-.997m-7.312 3.592c-1.472 1.471-.698 4.503 1.062 4.164.963-.186 1.75-1.194 1.75-2.24 0-1.99-1.631-3.106-2.812-1.924m27.979 3.021c-.367.366-.667 1.979-.667 3.583 0 3.981 2.405 3.061 2.813-1.077.294-2.972-.617-4.035-2.146-2.506m-24.14 1.289c-.955 1.545.44 5.222 1.808 4.766 1.511-.504 1.517-4.938.007-5.441-.637-.213-1.454.091-1.815.675m4 4C89.521 61.583 90.948 65 92.634 65c1.037 0 1.401-.824 1.182-2.673-.334-2.824-2.184-4.158-3.289-2.371M44.25 73.643c-1.237.273-2.25 1.152-2.25 1.953s1.762 8.983 3.915 18.181c2.154 9.197 5.36 23.023 7.124 30.723 1.765 7.7 3.585 14.723 4.044 15.607 1.222 2.354 10.885 3.205 19.896 1.753 9.733-1.568 11.27-3.151 17.572-18.094 2.722-6.453 5.183-11.741 5.469-11.75s2.955 5.64 5.93 12.553c3.041 7.065 6.415 13.36 7.706 14.375 4.618 3.632 26.748 4.9 29.156 1.669.457-.612 2.318-7.638 4.137-15.613a7710 7710 0 0 1 7.179-31.102C156.257 84.766 158 76.581 158 75.709c0-1.119-1.358-1.79-4.614-2.278-4.137-.621-16.184.034-17.078.927-.194.195-2.706 10.993-5.581 23.996s-5.452 23.628-5.727 23.612-4.185-7.665-8.688-16.998L108.124 88h-6.98c-3.839 0-7.62.245-8.401.545s-4.948 7.96-9.26 17.022-8.154 16.129-8.539 15.705-2.96-11.04-5.723-23.59-5.266-23.06-5.562-23.357c-.739-.738-16.623-1.297-19.409-.682"/><path fill-opacity=".148" fill-rule="evenodd" d="M82.5 17.821c-9.653 2.17-16.224 4.565-23.324 8.502-4.805 2.664-5.26 3.206-4.669 5.562.914 3.642 1.064 3.69 5.252 1.693 27.172-12.957 55.844-12.705 81.241.715 19.028 10.055 34.377 29.49 40.046 50.707l2.005 7.5-.595-6.5c-1.094-11.974-6.711-25.82-14.883-36.692-9.325-12.404-21.562-21.595-36.98-27.772-12.736-5.103-34.454-6.78-48.093-3.715M97 40.883c0 1.076 3.029 1.95 4.75 1.371C104.122 41.456 102.992 40 100 40c-1.65 0-3 .398-3 .883m-64.519 8.354C24.254 60.182 18.641 73.995 17.544 86l-.595 6.5 2.005-7.5c3.082-11.535 10.063-24.502 17.69-32.858 3.63-3.977 6.432-7.373 6.228-7.546s-1.572-.602-3.039-.953c-2.382-.571-3.166.026-7.352 5.594M96.624 46.2c.272.44 1.817.8 3.435.8s2.941-.36 2.941-.8-1.546-.8-3.435-.8-3.213.36-2.941.8M93 48.981c0 2.829 9.079 4.034 12.25 1.627 2.901-2.202 1.974-2.683-1.75-.907-3.269 1.559-3.731 1.559-7 0-1.925-.918-3.5-1.242-3.5-.72m-10.312 2.665c-1.472 1.471-.698 4.503 1.062 4.164.963-.186 1.75-1.194 1.75-2.24 0-1.99-1.631-3.106-2.812-1.924m27.919 3.936c-1.041 2.713-.682 5.609.643 5.174 1.469-.482 2.324-6.756.92-6.756-.526 0-1.229.712-1.563 1.582m-24.271.985c-.834 2.172 1.282 4.215 2.797 2.7C90.413 57.987 89.62 55 88 55c-.585 0-1.333.705-1.664 1.567M99 57.5c0 .825.45 1.5 1 1.5s1-.675 1-1.5-.45-1.5-1-1.5-1 .675-1 1.5m-8.611 2.93c-.636 1.656 1.15 4.57 2.8 4.57 1.387 0 .528-5.275-.938-5.756-.688-.226-1.526.308-1.862 1.186M79 67.939v3.979l9.25 5.025c5.088 2.764 10.15 5.025 11.25 5.025s6.162-2.261 11.25-5.025c9.212-5.005 9.25-5.041 9.25-8.903v-3.877l-8.75 4.734C100.036 74.964 99.848 75.024 97 73.5c-1.32-.706-2.935-1.079-3.589-.827-.655.251-2.305-.658-3.667-2.019s-4.336-3.425-6.61-4.585L79 63.959zM42.03 83.277c-.016.977 1.735 9.302 3.891 18.5A4176 4176 0 0 1 53.101 133c1.792 7.975 3.655 15.03 4.141 15.677 2.965 3.957 26.268 1.637 30.342-3.02 1.147-1.311 4.297-7.612 7-14.004s5.15-11.628 5.436-11.637 2.935 5.595 5.887 12.453 6.14 13.168 7.085 14.023c4.374 3.959 27.117 5.627 29.803 2.185.505-.647 2.387-7.702 4.181-15.677a3387 3387 0 0 1 7.143-30.867c2.135-9.002 3.867-17.327 3.851-18.5-.057-3.944-1.562.401-4.286 12.367-1.439 6.325-4.251 18.7-6.249 27.5s-4.151 16.546-4.784 17.213c-3.393 3.574-24.515 2.081-29.206-2.064-1.338-1.182-4.869-7.72-7.846-14.529l-5.413-12.381-1.47 2.881c-.809 1.584-3.158 6.93-5.22 11.88-4.893 11.744-7.234 13.938-16.556 15.51-7.868 1.327-17.75.671-19.547-1.297-.609-.667-2.281-6.388-3.716-12.713-8.38-36.929-9.985-43.643-10.76-45-.718-1.258-.861-1.213-.887.277"/></svg>