<svg xmlns="http://www.w3.org/2000/svg" width="32" height="32" version="1.1" fill="#000000"><path fill-opacity=".09" d="M 8.218 1.607 C 2.700 4.421, 0.500 8.523, 0.500 16 C 0.500 23.654, 2.776 27.717, 8.618 30.489 C 13.361 32.740, 21.566 32.158, 25.601 29.284 C 29.718 26.353, 33 19.726, 33 14.346 C 33 11.891, 32.645 10.101, 32.212 10.369 C 31.779 10.637, 30.844 9.544, 30.134 7.940 C 27.139 1.174, 15.603 -2.159, 8.218 1.607 M 0.300 16 C 0.300 19.025, 0.487 20.263, 0.716 18.750 C 0.945 17.238, 0.945 14.763, 0.716 13.250 C 0.487 11.738, 0.300 12.975, 0.300 16 M 14.750 11.662 C 15.438 11.940, 16.563 11.940, 17.250 11.662 C 17.938 11.385, 17.375 11.158, 16 11.158 C 14.625 11.158, 14.063 11.385, 14.750 11.662 M 11.232 16 C 11.232 17.925, 11.438 18.712, 11.689 17.750 C 11.941 16.788, 11.941 15.213, 11.689 14.250 C 11.438 13.287, 11.232 14.075, 11.232 16 M 19.921 16.249 C 19.623 18.399, 19.776 19.624, 20.279 19.121 C 20.762 18.638, 20.995 16.951, 20.798 15.372 C 20.468 12.728, 20.399 12.798, 19.921 16.249 M 14.750 20.662 C 15.438 20.940, 16.563 20.940, 17.250 20.662 C 17.938 20.385, 17.375 20.158, 16 20.158 C 14.625 20.158, 14.063 20.385, 14.750 20.662" stroke="none" fill="#000000" fill-rule="evenodd"/><path fill-opacity=".401" d="M 7.922 2.274 C -2.718 9.444, -2.718 22.556, 7.922 29.726 C 17.962 36.492, 32.880 27.473, 32.967 14.583 C 32.985 11.879, 32.718 9.949, 32.373 10.293 C 32.029 10.638, 30.781 9.486, 29.600 7.734 C 24.419 0.046, 14.816 -2.373, 7.922 2.274 M 9.741 11.374 C 5.427 14.026, 3.439 15.823, 6.684 14.135 C 9.744 12.545, 10.879 12.777, 8.573 14.521 C 7.513 15.323, 6.838 16.115, 7.073 16.281 C 7.308 16.447, 9.427 17.818, 11.781 19.326 C 15.747 21.868, 16.224 21.957, 18.254 20.535 C 21.509 18.255, 22.892 18.719, 20 21.121 C 17.721 23.014, 17.854 22.998, 21.500 20.939 C 25.834 18.491, 28.885 16.043, 25.316 17.878 C 22.247 19.454, 21.128 19.218, 23.427 17.479 C 24.487 16.677, 25.162 15.852, 24.927 15.645 C 24.692 15.438, 22.573 14.068, 20.217 12.601 C 16.256 10.134, 15.769 10.049, 13.744 11.467 C 10.552 13.702, 9.056 13.302, 12 11 C 15.354 8.377, 14.343 8.544, 9.741 11.374 M 0.300 16 C 0.300 19.025, 0.487 20.263, 0.716 18.750 C 0.945 17.238, 0.945 14.763, 0.716 13.250 C 0.487 11.738, 0.300 12.975, 0.300 16 M 13.040 13.452 C 10.383 16.653, 14.285 21.570, 17.750 19.388 C 18.712 18.782, 19.650 17.525, 19.833 16.595 C 20.578 12.807, 15.518 10.466, 13.040 13.452 M 9 16 C 9 16.550, 9.450 17, 10 17 C 10.550 17, 11 16.550, 11 16 C 11 15.450, 10.550 15, 10 15 C 9.450 15, 9 15.450, 9 16 M 21 16.559 C 21 17.416, 21.450 17.840, 22 17.500 C 22.550 17.160, 23 16.459, 23 15.941 C 23 15.423, 22.550 15, 22 15 C 21.450 15, 21 15.702, 21 16.559" stroke="none" fill="#000000" fill-rule="evenodd"/><path fill-opacity=".338" d="M 8.962 2.250 C 4.159 4.672, 0 11.053, -0 16 C -0 20.947, 4.159 27.328, 8.962 29.750 C 14.573 32.580, 17.427 32.580, 23.038 29.750 C 26.364 28.073, 28.180 26.227, 30.169 22.500 C 32.485 18.161, 34.133 10.534, 32.375 12.292 C 32.031 12.635, 30.794 11.023, 29.625 8.708 C 27.330 4.163, 20.816 -0, 16 -0 C 14.583 -0, 11.416 1.012, 8.962 2.250 M 8 12.147 C 5.415 13.882, 4.401 14.973, 5.618 14.711 C 7.070 14.399, 7.698 14.731, 7.618 15.769 C 7.550 16.633, 9.857 18.575, 13 20.299 L 18.500 23.317 23.500 20.177 C 28.529 17.020, 28.282 15.634, 23.215 18.576 C 20.593 20.098, 20.577 20.094, 22.750 18.454 C 23.988 17.520, 25 16.370, 25 15.898 C 25 14.917, 15.014 8.991, 13.500 9.074 C 12.950 9.104, 10.475 10.487, 8 12.147 M 11 12.089 C 9.339 13.448, 9.172 13.787, 10.500 13.101 C 13.762 11.415, 15.570 10.030, 14.500 10.038 C 13.950 10.041, 12.375 10.965, 11 12.089 M 13.040 13.452 C 10.383 16.653, 14.285 21.570, 17.750 19.388 C 18.712 18.782, 19.650 17.525, 19.833 16.595 C 20.578 12.807, 15.518 10.466, 13.040 13.452 M 0.232 16 C 0.232 17.925, 0.438 18.712, 0.689 17.750 C 0.941 16.788, 0.941 15.213, 0.689 14.250 C 0.438 13.287, 0.232 14.075, 0.232 16 M 9.500 16 C 9.840 16.550, 10.316 17, 10.559 17 C 10.802 17, 11 16.550, 11 16 C 11 15.450, 10.523 15, 9.941 15 C 9.359 15, 9.160 15.450, 9.500 16 M 21 16 C 21 16.550, 21.450 17, 22 17 C 22.550 17, 23 16.550, 23 16 C 23 15.450, 22.550 15, 22 15 C 21.450 15, 21 15.450, 21 16 M 18 21 C 17.099 21.582, 16.975 21.975, 17.691 21.985 C 18.346 21.993, 19.160 21.550, 19.500 21 C 20.267 19.758, 19.921 19.758, 18 21" stroke="none" fill="#000000" fill-rule="evenodd"/><path fill-opacity=".261" d="M 11.594 1.041 C 7.391 2.299, 2.123 7.830, 0.938 12.230 C -1.992 23.113, 8.958 33.973, 19.892 31.029 C 24.257 29.854, 31 23.192, 31 20.056 C 31 18.990, 31.450 17.840, 32 17.500 C 32.550 17.160, 33 15.982, 33 14.882 C 33 13.782, 32.550 13.160, 32 13.500 C 31.450 13.840, 31 13.193, 31 12.062 C 31 8.955, 24.353 2.192, 20.152 1.025 C 15.963 -0.138, 15.534 -0.137, 11.594 1.041 M 8.269 11.605 C 3.654 14.415, 3.689 14.589, 9.706 18.820 C 15.894 23.170, 18.352 23.464, 23.466 20.467 L 28.052 17.780 25.821 15.845 C 18.298 9.320, 13.806 8.235, 8.269 11.605 M 13.571 13.571 C 12.707 14.436, 12 15.529, 12 16 C 12 17.111, 14.889 20, 16 20 C 17.111 20, 20 17.111, 20 16 C 20 14.889, 17.111 12, 16 12 C 15.529 12, 14.436 12.707, 13.571 13.571 M 0.158 16 C 0.158 17.375, 0.385 17.938, 0.662 17.250 C 0.940 16.563, 0.940 15.438, 0.662 14.750 C 0.385 14.063, 0.158 14.625, 0.158 16" stroke="none" fill="#000000" fill-rule="evenodd"/></svg>