<svg xmlns="http://www.w3.org/2000/svg" width="100" height="100" fill="#000000"><path fill-opacity=".063" fill-rule="evenodd" d="M37.5 11.348c-11.33 3.746-19.057 10.387-23.845 20.493C10.684 38.112 10.5 39.171 10.5 50c0 10.827.185 11.889 3.151 18.151 3.999 8.441 9.757 14.199 18.198 18.198C38.111 89.315 39.173 89.5 50 89.5c10.792 0 11.9-.191 18-3.097 8.445-4.025 14.426-9.973 18.345-18.244C89.316 61.888 89.5 60.829 89.5 50c0-10.792-.191-11.9-3.097-18-4.033-8.462-9.985-14.438-18.244-18.319-5.864-2.755-7.852-3.16-16.659-3.392-6.303-.166-11.479.225-14 1.059m13.017 12.819c-.266.733-.604 5.608-.75 10.833l-.267 9.5-12.256.5c-7.066.288-12.299.923-12.356 1.5-.155 1.544 23.441 30.38 24.911 30.444.994.043 1.258-2.304 1.126-9.987-.095-5.523.026-10.241.27-10.485.243-.243 5.715-.744 12.16-1.112 6.445-.368 11.902-.967 12.127-1.332.465-.752-22.121-30.348-23.552-30.861-.511-.183-1.147.267-1.413 1"/><path fill-opacity=".15" fill-rule="evenodd" d="M37 11.818c-11.228 3.724-20.111 11.817-24.185 22.035-1.834 4.6-2.252 7.595-2.252 16.147 0 13.98 2.299 20.037 10.849 28.588C29.963 87.138 36.02 89.437 50 89.437s20.037-2.299 28.588-10.849C87.138 70.037 89.437 63.98 89.437 50c0-8.713-.406-11.521-2.381-16.5-3.292-8.296-12.35-17.324-20.556-20.489C58.251 9.83 44.654 9.28 37 11.818M49.784 33.75L49.5 44.5l-12.75.28c-7.727.169-12.75.677-12.75 1.289C24 47.726 48.352 77 49.73 77c.946 0 1.27-2.68 1.27-10.5V56l7.25-.009C67.518 55.98 76 54.965 76 53.867 76 52.209 52.728 23 51.407 23c-1.019 0-1.407 2.574-1.623 10.75"/><path fill-opacity=".168" fill-rule="evenodd" d="M41.176 11.07C20.38 15.163 7.072 35.302 10.8 57.042c2.981 17.384 14.488 28.901 32.157 32.187 7.609 1.415 17.643.016 25.421-3.544 18.923-8.664 26.808-33.308 17.301-54.074C78.49 15.906 59.99 7.368 41.176 11.07m9.341 12.097c-.266.733-.604 5.608-.75 10.833l-.267 9.5-12.489.5c-10.041.402-12.542.794-12.764 2-.152.825 2.487 4.875 5.863 9 17.385 21.241 19.126 23.164 20.099 22.191.548-.548 1.063-5.428 1.144-10.844L51.5 56.5l11.989-.5c9.604-.401 12.041-.798 12.253-2 .253-1.44-21.999-31.148-23.844-31.833-.493-.183-1.115.267-1.381 1"/><path fill-opacity=".112" fill-rule="evenodd" d="M42.126 11.127C17.403 15.234 3.517 43.045 13.991 67.48 22.09 86.374 48.839 95.165 68.46 85.381 87.36 75.957 95.073 51.32 85.329 31.5c-5.248-10.675-16.24-18.444-29.066-20.545-6.493-1.063-6.723-1.06-14.137.172m7.516 14.623c-.341 2.063-.625 7.013-.631 11L49 44H36.607c-9.868 0-12.506.294-12.946 1.441C22.944 47.31 47.608 77.5 49.852 77.5c1.436 0 1.622-1.307 1.444-10.134l-.203-10.135 3.078-.615c1.694-.339 7.25-.616 12.347-.616 7.004 0 9.399-.341 9.803-1.394C76.947 52.975 53.366 22 51.499 22c-.68 0-1.516 1.688-1.857 3.75"/></svg>