<svg xmlns="http://www.w3.org/2000/svg" width="64" height="64" fill="#000000"><g clip-path="url(#a)"><path fill="#000000" d="M32 65c18.225 0 33-14.775 33-33S50.225-1 32-1-1 13.775-1 32s14.775 33 33 33Z"/><g clip-path="url(#b)"><path fill="#000000" d="M54 32.168c-.142 12.506-10.304 22.013-22.276 21.829-12.463-.191-21.858-10.275-21.72-22.227.14-12.44 10.297-21.97 22.37-21.768C44.613 10.21 54.121 20.274 54 32.168ZM16.206 44.136c1.34-.587 2.712-1.14 4.031-1.8.298-.147.562-.654.585-1.008.207-3.545.37-7.095.525-10.642.12-2.738.22-5.476.31-8.214.032-.949.303-1.494 1.434-1.42 1.496.099 3.001-.012 4.5.052.398.018.939.243 1.148.551 1.338 1.968 2.613 3.976 3.889 5.985 1.514 2.384 3.006 4.778 4.507 7.17l.326-.109c.127-4.832.261-9.664.375-14.499.016-.675.026-1.27.823-1.536.843-.28 1.677-.607 2.489-.97 1.012-.452 1.995-.961 3.048-1.476-8.512-6.249-20.031-5.243-27.139 2.526-6.124 6.692-6.99 17.59-.85 25.39ZM47.64 19.858c-1.175.543-2.383 1.063-3.548 1.67-.302.158-.636.577-.66.895a922 922 0 0 0-.768 12.816c-.116 2.18-.196 4.362-.25 6.544-.019.732-.231 1.104-1.038 1.083-1.63-.038-3.263.044-4.888-.046-.468-.026-1.086-.367-1.335-.755-2.292-3.573-4.515-7.19-6.763-10.792-.411-.657-.857-1.293-1.433-2.159-.13.546-.228.781-.238 1.019-.187 4.49-.401 8.982-.513 13.476-.026 1.02-.32 1.507-1.29 1.858-1.695.613-3.32 1.41-5.023 2.149 6.337 5.572 19.038 6.272 26.932-2.252 6.69-7.226 6.693-19.065.815-25.506Z"/></g></g><defs><clipPath id="a"><path fill="#000000" d="M0 32C0 14.327 14.327 0 32 0c17.673 0 32 14.327 32 32 0 17.673-14.327 32-32 32C14.327 64 0 49.673 0 32Z"/></clipPath><clipPath id="b"><path fill="#000000" d="M10 10h44v44H10z"/></clipPath></defs></svg>