<svg xmlns="http://www.w3.org/2000/svg" width="64" height="64" version="1.1" fill="#000000"><path fill-opacity=".259" d="M 22.300 1.801 C 12.804 5.194, 7.882 9.570, 2.921 19.031 C 0.996 22.701, 0.577 25.020, 0.579 32 C 0.581 39.289, 0.967 41.243, 3.290 45.717 C 6.734 52.347, 11.662 57.273, 18.283 60.702 C 22.723 63.002, 24.766 63.410, 32 63.445 C 39.379 63.481, 41.188 63.125, 45.717 60.743 C 48.586 59.235, 52.575 56.359, 54.581 54.352 C 58.250 50.683, 62.972 41.955, 62.990 38.809 C 62.996 37.879, 63.450 36.840, 64 36.500 C 64.550 36.160, 65 33.632, 65 30.882 C 65 27.803, 64.616 26.119, 64 26.500 C 63.450 26.840, 62.996 26.304, 62.990 25.309 C 62.971 21.839, 58.202 13.469, 53.867 9.298 C 45.356 1.108, 32.670 -1.905, 22.300 1.801 M 18.053 19.750 C 15.711 21.914, 9 35.831, 9 38.526 C 9 38.787, 12.556 39, 16.902 39 L 24.804 39 25.902 35.851 C 26.506 34.119, 27 32.570, 27 32.408 C 27 32.247, 25.199 31.977, 22.997 31.807 L 18.993 31.500 20.747 28 L 22.500 24.500 30.931 24 C 39.334 23.502, 39.367 23.489, 40.684 20.250 L 42.006 17 31.519 17 C 21.467 17, 20.908 17.114, 18.053 19.750 M 38.098 28.149 C 37.494 29.881, 37 31.430, 37 31.592 C 37 31.753, 38.801 32.023, 41.003 32.193 L 45.007 32.500 43.253 36 L 41.500 39.500 33.069 40 C 24.666 40.498, 24.633 40.511, 23.316 43.750 L 21.994 47 32.481 47 C 42.542 47, 43.088 46.888, 45.911 44.250 C 48.349 41.972, 55 28.448, 55 25.769 C 55 25.346, 51.444 25, 47.098 25 L 39.196 25 38.098 28.149 M 0.300 32 C 0.300 35.025, 0.487 36.263, 0.716 34.750 C 0.945 33.237, 0.945 30.762, 0.716 29.250 C 0.487 27.738, 0.300 28.975, 0.300 32" stroke="none" fill="#000000" fill-rule="evenodd"/><path fill-opacity=".37" d="M 26.355 1.039 C 7.146 4.841, -3.897 24.229, 2.460 42.990 C 5.028 50.569, 13.431 58.972, 21.010 61.540 C 33.323 65.712, 45.123 63.037, 54.129 54.031 C 58.666 49.494, 60.116 47.214, 61.497 42.441 C 62.443 39.174, 63.618 35.719, 64.109 34.764 C 64.599 33.809, 64.993 31.784, 64.985 30.264 C 64.973 28.112, 64.755 27.832, 64 29 C 63.213 30.217, 63.028 30.083, 63.015 28.288 C 62.961 20.460, 54.604 8.371, 46.363 4.201 C 42.949 2.474, 33.092 -0.186, 31.201 0.110 C 30.815 0.170, 28.635 0.588, 26.355 1.039 M 21.419 17.075 C 19.724 17.567, 17.628 18.764, 16.762 19.735 C 15.538 21.105, 8 38.278, 8 39.694 C 8 39.862, 11.652 40, 16.117 40 C 24.806 40, 24.703 39.915, 22.506 45.250 C 21.846 46.855, 22.704 47, 32.830 47 C 43.568 47, 43.948 46.924, 46.529 44.250 C 47.989 42.737, 50.498 38.351, 52.103 34.502 C 56.899 23.007, 57.290 24, 47.960 24 C 40.893 24, 39.869 23.784, 40.397 22.407 C 40.733 21.531, 41.280 19.731, 41.613 18.407 L 42.217 16 33.358 16.090 C 28.486 16.140, 23.113 16.583, 21.419 17.075 M 23.400 24.765 C 22.089 25.640, 20 29.431, 20 30.934 C 20 31.520, 21.812 32, 24.026 32 L 28.051 32 26.526 34.950 C 24.081 39.679, 24.447 40.001, 32.250 39.985 C 40.106 39.968, 41.111 39.620, 42.850 36.316 C 44.718 32.768, 44.220 32, 40.051 32 L 36.102 32 37.551 28.532 C 38.348 26.625, 39 24.825, 39 24.532 C 39 23.716, 24.650 23.931, 23.400 24.765 M 0.232 32 C 0.232 33.925, 0.438 34.712, 0.689 33.750 C 0.941 32.788, 0.941 31.212, 0.689 30.250 C 0.438 29.288, 0.232 30.075, 0.232 32" stroke="none" fill="#000000" fill-rule="evenodd"/><path fill-opacity=".588" d="M 24.438 2.001 C 19.363 3.111, 11.029 8.173, 8.063 11.949 C -0.601 22.979, -1.723 35.163, 4.805 47.319 C 12.600 61.834, 31.150 67.494, 46.116 59.925 C 54.763 55.552, 61.429 46.594, 62.619 37.750 C 62.970 35.138, 63.650 33, 64.129 33 C 64.608 33, 64.948 31.988, 64.884 30.750 C 64.791 28.946, 64.675 28.861, 64.297 30.323 C 64.005 31.449, 63.254 31.928, 62.331 31.573 C 61.509 31.258, 59.931 31, 58.825 31 C 57.631 31, 56.593 30.158, 56.271 28.928 C 55.860 27.355, 54.848 28.842, 52.069 35.104 C 47.022 46.480, 45.576 47.411, 32.295 47.845 L 21.731 48.190 22.237 45.845 C 22.515 44.555, 23.074 42.712, 23.478 41.750 C 24.144 40.167, 23.441 40, 16.107 40 C 11.648 40, 8 39.590, 8 39.089 C 8 36.803, 15.347 21.253, 17.417 19.157 C 18.957 17.598, 21.532 16.553, 25.116 16.032 C 28.077 15.602, 29.542 15.193, 28.371 15.125 C 27.016 15.045, 25.794 13.918, 25.009 12.022 C 23.934 9.425, 24.051 8.579, 25.929 5.396 C 27.113 3.390, 27.950 1.654, 27.791 1.540 C 27.631 1.426, 26.122 1.633, 24.438 2.001 M 21.526 27.950 C 19.447 31.971, 19.465 32, 24.013 32 L 28.027 32 26.500 35.654 C 25.661 37.663, 25.103 39.436, 25.260 39.594 C 25.418 39.751, 29.047 39.615, 33.324 39.292 C 40.571 38.744, 41.201 38.512, 42.551 35.901 C 44.547 32.041, 44.519 32, 39.893 32 C 36.374 32, 35.889 31.750, 36.506 30.250 C 38.691 24.943, 38.755 25, 30.642 25 C 23.248 25, 23.012 25.076, 21.526 27.950 M 0.158 32 C 0.158 33.375, 0.385 33.938, 0.662 33.250 C 0.940 32.563, 0.940 31.438, 0.662 30.750 C 0.385 30.063, 0.158 30.625, 0.158 32" stroke="none" fill="#000000" fill-rule="evenodd"/><path fill-opacity=".653" d="M 4.179 18.750 C 0.633 26.537, 0.013 31.286, 1.627 38.288 C 4.429 50.440, 13.563 59.562, 25.750 62.378 C 31.199 63.637, 32.801 63.637, 38.250 62.378 C 48.724 59.958, 59.024 51.129, 60.607 43.216 C 61.168 40.408, 61.020 40.266, 56.952 39.720 C 54.620 39.408, 52.386 38.625, 51.988 37.981 C 51.527 37.235, 51.048 37.671, 50.669 39.183 C 50.341 40.488, 48.679 42.893, 46.974 44.528 C 43.960 47.418, 43.558 47.509, 32.437 47.836 C 26.147 48.021, 21 47.963, 21 47.708 C 21 47.453, 21.681 45.614, 22.513 43.622 L 24.027 40 16.013 40 C 11.262 40, 8 39.587, 8 38.986 C 8 38.428, 9.527 34.185, 11.392 29.558 C 13.446 24.466, 14.275 21.341, 13.494 21.641 C 12.738 21.931, 11.258 20.453, 9.918 18.068 C 8.661 15.831, 7.342 14, 6.987 14 C 6.632 14, 5.369 16.137, 4.179 18.750 M 22.035 26.934 C 20.737 29.360, 20.710 31, 21.969 31 C 22.501 31, 22.700 30.383, 22.411 29.629 C 22.122 28.875, 22.618 27.525, 23.514 26.629 C 24.410 25.733, 24.677 25, 24.107 25 C 23.537 25, 22.605 25.870, 22.035 26.934 M 27.212 34.434 C 26.545 35.897, 26 37.542, 26 38.089 C 26 39.605, 41.243 38.793, 41.753 37.249 C 42.013 36.466, 41.590 36.220, 40.621 36.592 C 38.742 37.313, 29.267 34.301, 28.776 32.827 C 28.583 32.248, 27.879 32.970, 27.212 34.434" stroke="none" fill="#000000" fill-rule="evenodd"/></svg>