<!-- Generated by IcoMoon.io -->
<svg version="1.1" xmlns="http://www.w3.org/2000/svg" width="32" height="32" viewBox="0 0 32 32" fill="#000000">
<title>woo</title>
<path d="M0.012 5.142c-0.023 0.038-0.011 0.125 0.027 0.195s0.137 0.364 0.219 0.655 0.177 0.608 0.21 0.705c0.033 0.097 0.128 0.414 0.211 0.705s0.178 0.608 0.211 0.705c0.033 0.097 0.129 0.414 0.212 0.705s0.194 0.655 0.246 0.811 0.194 0.615 0.318 1.022c0.123 0.407 0.251 0.819 0.283 0.916s0.126 0.414 0.21 0.705c0.083 0.291 0.178 0.608 0.211 0.705s0.129 0.414 0.212 0.705c0.084 0.291 0.195 0.655 0.248 0.811s0.173 0.536 0.268 0.846 0.242 0.802 0.327 1.092c0.085 0.291 0.181 0.608 0.214 0.705s0.128 0.414 0.211 0.705c0.083 0.291 0.178 0.608 0.21 0.705s0.129 0.414 0.215 0.705c0.086 0.291 0.182 0.592 0.213 0.67s0.125 0.379 0.208 0.67c0.083 0.291 0.178 0.608 0.211 0.705s0.129 0.414 0.212 0.705c0.084 0.291 0.195 0.655 0.246 0.811s0.194 0.615 0.316 1.022 0.249 0.819 0.282 0.916c0.033 0.097 0.128 0.404 0.211 0.682 0.108 0.364 0.233 0.599 0.444 0.839 0.18 0.204 0.438 0.397 0.667 0.498 0.361 0.16 0.438 0.166 2.178 0.166 1.536 0 1.856-0.018 2.158-0.123 0.212-0.074 0.475-0.243 0.654-0.421 0.202-0.201 0.373-0.477 0.523-0.846 0.123-0.301 0.265-0.643 0.316-0.759s0.149-0.37 0.219-0.564c0.070-0.194 0.148-0.384 0.174-0.423s0.121-0.277 0.211-0.529 0.185-0.49 0.211-0.529 0.104-0.229 0.174-0.423c0.070-0.194 0.169-0.448 0.221-0.564s0.416-1.020 0.809-2.009 0.738-1.821 0.765-1.851c0.027-0.029 0.101 0.066 0.164 0.211s0.229 0.55 0.37 0.899 0.285 0.698 0.321 0.775c0.036 0.078 0.274 0.664 0.528 1.304s0.491 1.226 0.526 1.304c0.035 0.078 0.124 0.284 0.196 0.458s0.189 0.46 0.259 0.634 0.153 0.381 0.186 0.458c0.033 0.078 0.174 0.426 0.313 0.775s0.344 0.827 0.454 1.063c0.122 0.261 0.316 0.529 0.497 0.683 0.163 0.14 0.442 0.304 0.619 0.364 0.257 0.087 0.672 0.11 2.058 0.11s1.802-0.022 2.058-0.11c0.177-0.060 0.453-0.222 0.614-0.36s0.35-0.366 0.421-0.507c0.071-0.141 0.23-0.59 0.355-0.997s0.322-1.057 0.439-1.445 0.255-0.832 0.306-0.987c0.052-0.155 0.164-0.52 0.249-0.811s0.228-0.767 0.318-1.057c0.090-0.291 0.263-0.862 0.385-1.269s0.265-0.867 0.316-1.022c0.052-0.155 0.164-0.52 0.249-0.811s0.202-0.687 0.259-0.881c0.057-0.194 0.133-0.426 0.169-0.516s0.048-0.193 0.025-0.229c-0.024-0.038-1.122-0.065-2.636-0.065h-2.596l-0.19 0.617c-0.104 0.339-0.217 0.696-0.25 0.793s-0.128 0.414-0.212 0.705c-0.083 0.291-0.191 0.634-0.239 0.763l-0.087 0.234-0.131-0.304c-0.072-0.167-0.191-0.447-0.263-0.622s-0.161-0.381-0.196-0.458-0.226-0.537-0.423-1.022c-0.198-0.485-0.388-0.944-0.422-1.022s-0.129-0.3-0.211-0.493-0.177-0.416-0.212-0.493-0.242-0.569-0.459-1.092c-0.218-0.523-0.49-1.117-0.606-1.319s-0.343-0.504-0.506-0.671c-0.163-0.167-0.407-0.388-0.543-0.491s-0.437-0.281-0.67-0.396c-0.233-0.115-0.624-0.26-0.869-0.322s-0.632-0.113-0.859-0.113c-0.227 0-0.627 0.050-0.889 0.11s-0.668 0.206-0.903 0.322-0.538 0.295-0.674 0.397c-0.136 0.102-0.4 0.345-0.587 0.541-0.22 0.23-0.452 0.592-0.657 1.025-0.174 0.368-0.344 0.733-0.378 0.811s-0.129 0.3-0.212 0.493c-0.082 0.194-0.193 0.448-0.245 0.564s-0.497 1.147-0.989 2.291c-0.491 1.144-0.917 2.122-0.946 2.175-0.035 0.063-0.090-0.021-0.161-0.247-0.060-0.188-0.178-0.58-0.262-0.871s-0.181-0.608-0.214-0.705c-0.033-0.097-0.128-0.414-0.211-0.705s-0.178-0.608-0.211-0.705c-0.033-0.097-0.128-0.414-0.211-0.705s-0.178-0.608-0.211-0.705c-0.033-0.097-0.129-0.414-0.213-0.705s-0.243-0.83-0.354-1.198c-0.111-0.368-0.298-1.003-0.417-1.41s-0.26-0.883-0.314-1.057-0.193-0.634-0.309-1.022c-0.116-0.388-0.264-0.895-0.33-1.128s-0.146-0.502-0.179-0.599-0.129-0.414-0.214-0.705c-0.085-0.291-0.209-0.703-0.277-0.916l-0.122-0.388-2.614-0.018c-1.636-0.012-2.63 0.007-2.656 0.050zM26.513 5.33c-0.059 0.14-0.107 0.282-0.107 0.315s-0.044 0.195-0.098 0.361c-0.054 0.166-0.199 0.635-0.322 1.042s-0.32 1.057-0.438 1.445c-0.117 0.388-0.262 0.863-0.321 1.057s-0.149 0.479-0.198 0.634c-0.050 0.155-0.159 0.52-0.243 0.811s-0.179 0.608-0.212 0.705-0.125 0.398-0.203 0.67c-0.079 0.271-0.164 0.581-0.189 0.687l-0.046 0.194h5.285l0.264-0.828c0.145-0.456 0.311-0.987 0.37-1.181s0.178-0.574 0.266-0.846c0.088-0.271 0.207-0.652 0.266-0.846s0.224-0.733 0.367-1.198c0.143-0.465 0.334-1.068 0.422-1.339s0.23-0.731 0.314-1.022c0.084-0.291 0.184-0.585 0.222-0.655s0.050-0.157 0.027-0.194c-0.026-0.041-1.072-0.068-2.68-0.068h-2.638l-0.107 0.255z"/>
</svg>
