<svg xmlns="http://www.w3.org/2000/svg" width="24" height="24" fill="#000000"><path fill="#f5f5f5" d="M1.833 11.654C3.408 4.322 8.36 2.535 12.266 2.256c8.668.568 10.8 9.236 9.945 11.7-.602 1.734-1.988 4.203-2.84 5.636-1.69 2.84-2.784 4.032-7.01 4.37-5.28.423-7.2-2.665-8.992-6.483-1.245-2.652-1.456-2.59-1.596-5.006a3.078 3.078 0 0 1 .06-.819Z"/><path fill="#919191" d="M22.497.974c-.303-2.129-4.12.663-6.252 2.558l-.568.568c1.137 2.842 3.893 7.986 5.257 5.258 1.706-3.41 1.706-7.386 1.563-8.384ZM2.604.693c.715-2.028 3.63 1.936 5.348 4.211l.446.669c-1.671 2.564-4.849 4.883-5.652 1.94-1.004-3.678-.576-5.587-.142-6.82Z"/><path fill="#000000" d="M21.745 2.258c-.394-2.23-2.936.474-3.978 1.99l2.7 4.12c.71-1.09 1.705-3.696 1.278-6.11ZM2.704 1.972c.607-2.124 2.977.822 3.854 2.387L3.569 8.121c-.593-1.12-1.433-4.16-.865-6.15Z"/><mask id="a" width="22" height="22" x="1" y="2" maskUnits="userSpaceOnUse" style="mask-type:alpha"><path fill="#d9d9d9" d="M1.833 11.652C3.408 4.32 8.36 2.533 12.266 2.254c8.668.568 10.8 9.236 9.945 11.7-.602 1.734-1.988 4.203-2.84 5.636-1.69 2.84-2.784 4.032-7.01 4.37-5.28.423-7.2-2.665-8.992-6.483-1.245-2.652-1.456-2.59-1.596-5.006a3.078 3.078 0 0 1 .06-.819Z"/></mask><g mask="url(#a)"><path fill="#919191" d="M4.877 12.2c-1.364-1.136-3.031.095-3.694.853-.474-1.42-1.421-4.291-1.421-4.405 0-.142 2.273-7.531 2.273-7.815 0-.228 7.673-2.274 11.51-3.269 3.221 2.51 9.663 7.56 9.663 7.674 0 .113 1.989 3.552 2.984 5.257l-2.984 3.553-.71-.71c-.285-.995-1.337-2.53-3.269-.711-2.416 2.273-3.413 1.136-3.695 1.136-.325 0-.568-.71-4.12 0-3.553.71-4.832-.142-6.537-1.563Z"/></g><path fill="#000000" d="M10.661 8.934a2.274 2.274 0 1 1-4.547 0 2.274 2.274 0 0 1 4.547 0ZM18.051 9.274a2.274 2.274 0 1 1-4.547 0 2.274 2.274 0 0 1 4.547 0Z"/><path fill="#000000" d="M9.525 10.639a1.137 1.137 0 1 1-2.274 0 1.137 1.137 0 0 1 2.274 0ZM16.914 10.979a1.137 1.137 0 1 1-2.273 0 1.137 1.137 0 0 1 2.273 0Z"/><path fill="#000000" d="M8.388 10.213a.426.426 0 1 1-.853 0 .426.426 0 0 1 .853 0ZM15.777 10.551a.426.426 0 1 1-.852 0 .426.426 0 0 1 .852 0Z"/><path fill="#e3e3e3" d="M15.35 18.17c-3.297 4.206-5.827 1.752-6.68 0-.094 1.373.997 3.552 3.127 3.552 2.766 0 3.505-2.557 3.552-3.552Z"/><path fill="#000000" d="M10.712 14.901c.087.435.401.62.65.683.119.03.23.106.259.225.076.313.127.756-.056.94-.284.284-.995.852-1.706.994-.71.142-.994-.994-1.563-.994-.32 0-.189.47.016.915.1.213.519-.082.55.151a.557.557 0 0 1 .003.07c0 .427.852.142 1.279.284.426.143 1.278-.568 1.847-.71.568-.142 1.137.569 1.99.71.658.11 1.636-.655 2.086-1.092a.279.279 0 0 1 .105-.064.269.269 0 0 0 .125-.424l-.242-.302c-.054-.068-.14-.107-.208-.053-.102.082-.227.272-.304.657-.142.71-1.705.852-1.989.71-.284-.142-1.137-.71-1.421-.852-.187-.094-.13-.576-.052-.93.027-.124.141-.206.262-.245.274-.087.665-.346.927-.957.426-.994.142-1.421-1.421-1.563-1.563-.142-1.279 1.137-1.137 1.847Z"/><path fill="#292929" fill-rule="evenodd" d="M12.069 9.356a.811.811 0 0 0-.414.093.721.721 0 0 0-.36.633c-.033 2.265-1.457 3.17-2.61 3.62-.822.316-1.71.42-2.58.3-1.242-.167-2.31-.58-2.908-1.75a9.188 9.188 0 0 1-.706-2.488 1.805 1.805 0 0 0-.53-1.027.312.312 0 0 1-.11-.238v-.736c0-.13.079-.246.198-.293 1.534-.605 4.5-.513 4.5-.513 2.96.125 3.428.456 4.517 1.225l.287.201c.215.139.464.17.723.17.26 0 .519-.033.736-.177.103-.07.199-.138.29-.202 1.091-.763 1.562-1.092 4.514-1.225 0 0 2.966-.084 4.5.514.12.046.198.162.198.292v.739c0 .092-.04.179-.11.238-.289.273-.48.636-.543 1.032a9.193 9.193 0 0 1-.705 2.478c-.6 1.172-1.666 1.582-2.908 1.75-.871.12-1.759.016-2.581-.3-1.138-.44-2.567-1.348-2.597-3.61a.72.72 0 0 0-.365-.627.816.816 0 0 0-.414-.1h-.022Zm-1.26.713c-.237 3.489-3.86 3.402-3.86 3.402-1.098 0-1.876-.226-2.337-.495a2.923 2.923 0 0 1-1.01-1.127 6.6 6.6 0 0 1-.474-1.98s-.253-1.67.506-2.006a5.742 5.742 0 0 1 1.846-.354c.877-.08 1.76-.047 2.63.095a7.21 7.21 0 0 1 1.602.438c.582.245.993.785 1.077 1.419.026.201.033.405.02.608Zm6.405 3.402s-3.623.087-3.861-3.402a3.183 3.183 0 0 1-.002-.608c.042-.312.165-.608.356-.857.19-.25.443-.443.73-.562a7.21 7.21 0 0 1 1.604-.438c.869-.142 1.752-.174 2.63-.095.633.015 1.26.136 1.855.356.758.336.506 2.006.506 2.006a6.597 6.597 0 0 1-.47 1.978c-.234.46-.583.848-1.012 1.127-.46.269-1.239.495-2.336.495Z" clip-rule="evenodd"/></svg>