<!-- Generated by IcoMoon.io -->
<svg version="1.1" xmlns="http://www.w3.org/2000/svg" width="32" height="32" viewBox="0 0 32 32" fill="#000000">
<title>world</title>
<path fill="#000000fff" d="M16 32c8.837 0 16-7.163 16-16s-7.163-16-16-16c-8.837 0-16 7.163-16 16s7.163 16 16 16z"/>
<path fill="#000000" d="M11.812 4.325c-0.518 0.186-1.020 0.405-1.504 0.655l-5.331 5.331c-0.25 0.483-0.469 0.986-0.655 1.504l7.49-7.49zM3.6 15.736c0.006-0.303 0.023-0.603 0.051-0.9l11.182-11.182c0.297-0.028 0.597-0.045 0.9-0.051l-12.133 12.133zM3.864 18.572c-0.050-0.237-0.093-0.477-0.13-0.719l14.115-14.115c0.242 0.036 0.482 0.079 0.719 0.13l-14.705 14.705zM4.643 20.993c-0.087-0.198-0.169-0.399-0.246-0.602l15.991-15.991c0.203 0.077 0.404 0.159 0.602 0.246l-16.346 16.346zM5.663 22.856c-0.071-0.107-0.14-0.214-0.208-0.323l17.074-17.074c0.174 0.108 0.345 0.22 0.513 0.336l-17.22 17.22-0.159-0.159zM7.248 24.788c-0.142-0.141-0.28-0.286-0.415-0.434l17.518-17.518c0.148 0.135 0.292 0.273 0.433 0.415l-17.536 17.536zM8.939 26.197c-0.166-0.116-0.33-0.235-0.49-0.358l17.387-17.387c0.123 0.16 0.243 0.324 0.358 0.49l-17.255 17.255zM10.989 27.347c-0.195-0.086-0.387-0.177-0.576-0.273l16.659-16.659c0.096 0.189 0.187 0.381 0.273 0.576l-16.355 16.356zM13.162 28.075c-0.226-0.053-0.45-0.112-0.671-0.177l15.404-15.404c0.065 0.221 0.124 0.445 0.177 0.671l-14.91 14.91zM16.036 28.4c-0.013 0-0.026 0-0.039 0-0.264 0-0.526-0.008-0.786-0.024l13.161-13.161c0.016 0.26 0.025 0.522 0.025 0.785 0 0.013 0 0.026 0 0.039l-12.361 12.361zM20.147 27.689c-0.394 0.14-0.798 0.26-1.209 0.361l9.108-9.108c-0.1 0.412-0.221 0.815-0.361 1.209l-7.539 7.539z"/>
<path fill="#000000" d="M13.783 4.049c-0.388 0.080-0.769 0.178-1.142 0.294l-5.147 5.147c0.305-0.035 0.613-0.060 0.923-0.074l5.367-5.367zM26.91 21.773c-0.976 1.784-2.387 3.296-4.089 4.394 0.025-0.124 0.048-0.249 0.070-0.374l4.020-4.020zM28.356 16.928c-0.026 0.325-0.065 0.647-0.116 0.964l-5.15 5.15c-0.007-0.271-0.021-0.539-0.043-0.805l5.309-5.309zM28.217 13.867c0.042 0.245 0.077 0.493 0.105 0.744l-5.593 5.593c-0.053-0.227-0.111-0.451-0.175-0.673l5.664-5.664zM27.59 11.593c0.079 0.207 0.153 0.416 0.221 0.627l-5.791 5.791c-0.083-0.198-0.17-0.394-0.261-0.587l5.831-5.831zM26.52 9.463c0.11 0.174 0.216 0.351 0.317 0.531l-5.914 5.914c-0.109-0.172-0.223-0.342-0.339-0.509l5.936-5.935zM25.174 7.71c0.136 0.147 0.268 0.298 0.397 0.452l-5.977 5.977c-0.132-0.15-0.268-0.297-0.407-0.442l5.987-5.987zM23.489 6.194c0.162 0.12 0.32 0.245 0.476 0.373l-6 6c-0.156-0.128-0.314-0.252-0.475-0.373l6-6zM21.494 4.989c0.19 0.091 0.377 0.187 0.561 0.287l-5.983 5.983c-0.18-0.104-0.363-0.204-0.549-0.3l5.971-5.971zM19.138 4.146c0.224 0.055 0.446 0.116 0.666 0.183l-5.913 5.913c-0.209-0.076-0.421-0.148-0.634-0.214l5.882-5.882zM16.383 3.8c0.273 0.003 0.544 0.015 0.813 0.036l-5.759 5.758c-0.246-0.041-0.494-0.076-0.744-0.105l5.69-5.69z"/>
</svg>
