<svg xmlns="http://www.w3.org/2000/svg" width="96" height="96" version="1.1" fill="#000000"><path fill-opacity=".114" d="M 36.112 1.581 C 10.757 8.400, -4.930 34.653, 1.531 59.458 C 8.202 85.068, 34.440 100.985, 59.307 94.508 C 67.815 92.292, 74.697 88.431, 81.209 82.219 C 87.465 76.252, 93.553 65.647, 94.646 58.815 C 94.985 56.692, 95.654 54.714, 96.131 54.419 C 96.609 54.124, 97 50.732, 97 46.882 C 97 43.032, 96.606 40.125, 96.125 40.423 C 95.644 40.720, 94.975 39.245, 94.639 37.145 C 94.303 35.044, 92.453 30.177, 90.528 26.328 C 80.669 6.621, 57.146 -4.076, 36.112 1.581 M 0.336 48 C 0.336 52.125, 0.513 53.813, 0.728 51.750 C 0.944 49.688, 0.944 46.313, 0.728 44.250 C 0.513 42.188, 0.336 43.875, 0.336 48" stroke="none" fill="#000000" fill-rule="evenodd"/><path fill-opacity=".376" d="M 37.324 19.638 C 31.205 21.806, 24.589 28.133, 21.064 35.189 C 15.697 45.929, 17.272 58.484, 25.104 67.381 C 30.061 73.012, 39.729 78.031, 45.410 77.921 L 49.500 77.842 43.885 75.883 C 37.135 73.527, 30.671 68.236, 27.894 62.792 C 25.443 57.988, 25.203 49.843, 27.360 44.681 C 30.538 37.075, 42.361 28.077, 49.250 28.022 C 51.511 28.004, 52 27.555, 52 25.500 C 52 22.215, 53.656 22.337, 59.234 26.032 C 63.188 28.651, 66.932 32.590, 69.303 36.625 C 70.342 38.395, 64.418 45.748, 60.263 47.845 C 53.311 51.352, 52 51.467, 52 48.567 C 52 46.780, 51.468 46.007, 50.250 46.023 C 47.180 46.064, 38.767 51.372, 35.690 55.209 C 32.920 58.664, 32.820 59.075, 34.220 61.209 C 37.824 66.700, 47.378 74, 50.960 74 C 51.532 74, 52 72.875, 52 71.500 C 52 69.748, 52.545 69, 53.822 69 C 57.548 69, 64.892 65.784, 68.795 62.443 C 71.011 60.547, 73.988 56.658, 75.412 53.801 C 81.793 40.995, 75.813 27.477, 60.640 20.413 C 54.576 17.589, 44.089 17.241, 37.324 19.638" stroke="none" fill="#000000" fill-rule="evenodd"/><path fill-opacity=".433" d="M 39.173 19.484 C 27.678 23.072, 19.235 33.970, 18.268 46.471 C 17.119 61.314, 28.855 75.477, 44 77.522 L 48.500 78.130 42.853 75.719 C 36.264 72.905, 32.610 70.215, 29.323 65.760 C 22.385 56.356, 24.392 44.424, 34.476 35.129 C 39.476 30.520, 44.422 28, 48.468 28 C 50.486 28, 51 27.504, 51 25.559 C 51 24.216, 51.342 22.907, 51.760 22.648 C 54.005 21.261, 63.844 28.163, 68.059 34.082 C 69.906 36.677, 69.957 37.180, 68.633 39.715 C 66.583 43.641, 62.137 47.628, 57.782 49.447 C 52.762 51.544, 52 51.419, 52 48.500 C 52 45.447, 51.238 45.408, 45.381 48.161 C 40.025 50.679, 34 56.496, 34 59.151 C 34 62.833, 43.666 71.611, 49.750 73.453 C 51.644 74.027, 52 73.758, 52 71.756 C 52 69.741, 52.760 69.183, 56.979 68.102 C 66.653 65.623, 74.595 57.932, 77.104 48.614 C 82.017 30.368, 59.561 13.122, 39.173 19.484" stroke="none" fill="#000000" fill-rule="evenodd"/><path fill-opacity=".274" d="M 41.734 19.046 C 36.031 20.453, 30.903 23.412, 26.799 27.665 C 12.860 42.110, 17.283 65.972, 35.500 74.610 C 42.233 77.802, 45.612 77.679, 39.399 74.468 C 26.942 68.030, 21.746 55.353, 27.063 44.371 C 30.881 36.483, 39.748 29.270, 47.750 27.543 C 50.328 26.986, 51 26.341, 51 24.421 C 51 21.501, 51.939 21.418, 56.814 23.905 C 60.805 25.941, 70 35.135, 70 37.089 C 70 41.617, 60.957 49.646, 54.716 50.659 C 51.452 51.188, 51.128 51.019, 50.828 48.631 L 50.500 46.026 45.493 48.354 C 40.747 50.561, 34 56.871, 34 59.102 C 34 61.175, 39.615 67.429, 43.946 70.178 C 49.141 73.475, 51 73.724, 51 71.119 C 51 69.715, 52.178 68.941, 55.634 68.070 C 69.232 64.647, 77.362 55.261, 77.350 43 C 77.342 34.754, 70.141 25.125, 61 21.134 C 55.509 18.738, 46.808 17.795, 41.734 19.046" stroke="none" fill="#000000" fill-rule="evenodd"/></svg>