<svg xmlns="http://www.w3.org/2000/svg" width="64" height="64" version="1.1" fill="#000000"><path fill-opacity=".267" d="M 22.005 1.668 C 2.799 8.388, -5.460 29.518, 4.209 47.196 C 17.468 71.435, 53.307 68.526, 62.063 42.500 C 62.803 40.300, 63.766 38.072, 64.204 37.550 C 65.295 36.248, 65.217 24.748, 64.122 25.425 C 63.639 25.723, 62.978 24.737, 62.654 23.234 C 62.330 21.730, 60.676 18.111, 58.979 15.192 C 51.926 3.060, 35.354 -3.002, 22.005 1.668 M 24.511 16.988 L 18.585 22.977 21.989 26.488 C 25.977 30.603, 26.612 30.714, 29.686 27.826 L 32 25.651 34.314 27.826 C 37.388 30.714, 38.023 30.603, 42.011 26.488 L 45.415 22.977 39.489 16.988 C 36.229 13.695, 32.859 11, 32 11 C 31.141 11, 27.771 13.695, 24.511 16.988 M 0.320 32 C 0.320 35.575, 0.502 37.038, 0.723 35.250 C 0.945 33.462, 0.945 30.538, 0.723 28.750 C 0.502 26.962, 0.320 28.425, 0.320 32 M 12.211 29.189 C 11.545 29.855, 11 31.106, 11 31.969 C 11 33.970, 30.035 53, 32.037 53 C 34.056 53, 53 33.891, 53 31.855 C 53 30.969, 52.409 29.754, 51.687 29.155 C 50.677 28.317, 49.006 29.447, 44.468 34.032 C 41.220 37.315, 38.128 40, 37.596 40 C 37.064 40, 35.587 39.022, 34.314 37.826 L 32 35.651 29.686 37.826 C 28.413 39.022, 26.962 40, 26.462 40 C 25.963 40, 22.824 37.295, 19.488 33.989 C 14.739 29.281, 13.160 28.240, 12.211 29.189 M 30.190 41.750 C 30.376 42.712, 31.190 43.500, 32 43.500 C 32.810 43.500, 33.624 42.712, 33.810 41.750 C 34.046 40.522, 33.506 40, 32 40 C 30.494 40, 29.954 40.522, 30.190 41.750 M 30.190 47.750 C 30.376 48.712, 31.190 49.500, 32 49.500 C 32.810 49.500, 33.624 48.712, 33.810 47.750 C 34.046 46.522, 33.506 46, 32 46 C 30.494 46, 29.954 46.522, 30.190 47.750" stroke="none" fill="#000000" fill-rule="evenodd"/><path fill-opacity=".139" d="M 23.951 1.311 C 14.908 3.852, 6.681 11.034, 2.687 19.878 C -0.216 26.304, -0.205 37.720, 2.710 44.176 C 5.666 50.720, 12.236 57.479, 18.732 60.657 C 26.016 64.221, 37.088 64.497, 44.176 61.292 C 53.175 57.223, 63 45.255, 63 38.363 C 63 37.128, 63.450 35.840, 64 35.500 C 64.550 35.160, 65 33.082, 65 30.882 C 65 28.470, 64.603 27.127, 64 27.500 C 63.441 27.845, 63 27.076, 63 25.755 C 63 18.912, 53.206 6.740, 44.676 2.982 C 39.010 0.487, 29.588 -0.273, 23.951 1.311 M 23.895 16.681 L 17.939 22.362 22.172 26.675 L 26.404 30.987 29.202 28.307 L 32 25.626 34.798 28.307 L 37.596 30.987 41.828 26.675 L 46.061 22.362 40.105 16.681 C 36.648 13.384, 33.247 11, 32 11 C 30.753 11, 27.352 13.384, 23.895 16.681 M 0.272 32 C 0.272 34.475, 0.467 35.487, 0.706 34.250 C 0.944 33.013, 0.944 30.988, 0.706 29.750 C 0.467 28.512, 0.272 29.525, 0.272 32 M 11.500 30 C 10.425 33.387, 11.718 35.362, 20.886 44.333 C 26.725 50.047, 30.512 53, 32 53 C 34.461 53, 51.518 37.093, 52.553 33.833 C 53.314 31.436, 52.194 28, 50.651 28 C 49.984 28, 46.771 30.695, 43.511 33.988 L 37.585 39.977 34.793 37.301 L 32 34.626 29.207 37.301 L 26.415 39.977 20.489 33.988 C 14.143 27.576, 12.501 26.847, 11.500 30 M 30.688 40.646 C 29.383 41.950, 30.006 43, 32.083 43 C 33.247 43, 33.992 42.476, 33.771 41.813 C 33.284 40.351, 31.614 39.719, 30.688 40.646 M 30.688 46.646 C 29.383 47.950, 30.006 49, 32.083 49 C 33.247 49, 33.992 48.476, 33.771 47.813 C 33.284 46.351, 31.614 45.719, 30.688 46.646" stroke="none" fill="#000000" fill-rule="evenodd"/><path fill-opacity=".621" d="M 25.384 1.412 C 8.753 5.448, -2.161 21.567, 1.119 37.250 C 3.981 50.936, 13.003 59.953, 26.750 62.866 C 42.466 66.197, 60.044 54.085, 62.589 38.171 C 62.959 35.853, 63.654 33.714, 64.131 33.419 C 64.609 33.124, 65 31.982, 65 30.882 C 65 29.782, 64.606 29.125, 64.125 29.423 C 63.644 29.720, 62.957 28.131, 62.598 25.890 C 60.693 13.976, 51.175 4.427, 38.147 1.360 C 31.563 -0.189, 31.988 -0.191, 25.384 1.412 M 23.508 16.992 L 17.578 22.984 21.492 26.992 C 23.645 29.196, 25.848 31, 26.388 31 C 26.929 31, 28.413 30.022, 29.686 28.826 L 32 26.651 34.314 28.826 C 35.587 30.022, 37.071 31, 37.612 31 C 38.152 31, 40.355 29.196, 42.508 26.992 L 46.422 22.984 40.492 16.992 C 36.315 12.771, 33.805 11, 32 11 C 30.195 11, 27.685 12.771, 23.508 16.992 M 12.211 28.189 C 11.545 28.855, 11 30.556, 11 31.970 C 11 35.575, 28.432 53, 32.039 53 C 35.662 53, 53 35.509, 53 31.854 C 53 26.387, 50.734 26.701, 44.468 33.032 C 41.220 36.315, 38.128 39, 37.596 39 C 37.064 39, 35.587 38.022, 34.314 36.826 L 32 34.651 29.686 36.826 C 28.413 38.022, 26.962 39, 26.462 39 C 25.963 39, 22.824 36.295, 19.488 32.989 C 14.739 28.281, 13.160 27.240, 12.211 28.189 M 0.158 32 C 0.158 33.375, 0.385 33.938, 0.662 33.250 C 0.940 32.563, 0.940 31.438, 0.662 30.750 C 0.385 30.063, 0.158 30.625, 0.158 32 M 31 41.500 C 31 42.325, 31.450 43, 32 43 C 32.550 43, 33 42.325, 33 41.500 C 33 40.675, 32.550 40, 32 40 C 31.450 40, 31 40.675, 31 41.500 M 31 47.500 C 31 48.325, 31.450 49, 32 49 C 32.550 49, 33 48.325, 33 47.500 C 33 46.675, 32.550 46, 32 46 C 31.450 46, 31 46.675, 31 47.500" stroke="none" fill="#000000" fill-rule="evenodd"/><path fill-opacity=".311" d="M 26.500 1.433 C 19.012 3.252, 13.777 6.342, 8.796 11.882 C 3.991 17.226, 0.727 25.365, 0.727 32 C 0.727 50.341, 20.162 66.614, 37.250 62.580 C 44.944 60.764, 50.160 57.728, 55.180 52.145 C 59.362 47.494, 63 39.491, 63 34.944 C 63 33.940, 63.450 32.840, 64 32.500 C 64.550 32.160, 65 31.432, 65 30.882 C 65 30.332, 64.606 30.125, 64.125 30.423 C 63.644 30.720, 62.959 29.147, 62.604 26.927 C 60.918 16.382, 51.737 5.684, 41.856 2.750 C 33.525 0.276, 31.853 0.133, 26.500 1.433 M 24.009 16.491 L 17.576 22.982 21.491 26.991 C 23.644 29.196, 25.848 31, 26.388 31 C 26.929 31, 28.413 30.022, 29.686 28.826 L 32 26.651 34.314 28.826 C 35.587 30.022, 37.071 31, 37.612 31 C 38.152 31, 40.356 29.196, 42.509 26.991 L 46.424 22.982 39.991 16.491 C 36.453 12.921, 32.857 10, 32 10 C 31.143 10, 27.547 12.921, 24.009 16.491 M 11.655 28.829 C 10.745 29.835, 10 31.289, 10 32.062 C 10 33.976, 30.080 54, 32 54 C 34.025 54, 54 33.924, 54 31.888 C 54 31.020, 53.084 29.481, 51.965 28.468 C 49.963 26.656, 49.827 26.729, 43.403 33.063 L 36.877 39.500 35.028 37.250 C 32.737 34.461, 30.853 34.400, 28.468 37.036 C 26.635 39.061, 26.595 39.041, 20.536 33.036 C 17.187 29.716, 14.191 27, 13.878 27 C 13.566 27, 12.565 27.823, 11.655 28.829 M 31 42 C 31 42.550, 31.450 43, 32 43 C 32.550 43, 33 42.550, 33 42 C 33 41.450, 32.550 41, 32 41 C 31.450 41, 31 41.450, 31 42 M 31 48 C 31 48.550, 31.450 49, 32 49 C 32.550 49, 33 48.550, 33 48 C 33 47.450, 32.550 47, 32 47 C 31.450 47, 31 47.450, 31 48" stroke="none" fill="#000000" fill-rule="evenodd"/></svg>