<svg xmlns="http://www.w3.org/2000/svg" width="200" height="200" fill="#000000"><path fill-opacity=".243" fill-rule="evenodd" d="M0 100.005V200.01l100.25-.255 100.25-.255.255-99.75L201.01 0H0zm.481.495c0 55 .121 77.647.269 50.326.148-27.32.148-72.32 0-100C.602 23.147.481 45.5.481 100.5M124 35.088c-9.481 5.671-14.345 9.884-15.924 13.793-.581 1.441-4.43 15.894-8.552 32.119s-8.996 35.35-10.832 42.5l-3.338 13-17.479.272-17.479.273-2.748-9.273-5.198-17.537c-1.348-4.546-2.45-8.708-2.45-9.25 0-.615 7.897-.985 21.045-.985 21.012 0 21.05-.004 23.5-2.455 3.123-3.122 3.24-7.736.266-10.506-2.09-1.947-3.385-2.038-28.75-2.017-28.712.024-29.095.092-31.944 5.662-1.93 3.774-1.281 7.217 5.773 30.626 7.234 24.004 8.574 26.654 14.828 29.319 4.571 1.948 41.993 1.948 46.564 0 6.489-2.765 7.117-4.264 15.749-37.631 7.181-27.757 12.821-49.876 14.459-56.715.346-1.444 3.48-4.019 8.987-7.384 10.131-6.191 11.856-7.947 11.856-12.068 0-3.73-3.267-6.832-7.194-6.829-1.451.001-6.464 2.29-11.139 5.086"/><path fill-opacity=".181" fill-rule="evenodd" d="M0 100.005V200.01l100.25-.255 100.25-.255.255-99.75L201.01 0H0zm.481.495c0 55 .121 77.647.269 50.326.148-27.32.148-72.32 0-100C.602 23.147.481 45.5.481 100.5M123.5 35.073c-8.933 5.482-12.915 8.895-14.934 12.8-.75 1.45-5.716 19.735-11.035 40.632-5.32 20.897-10.347 40.358-11.172 43.245L84.858 137l-16.179-.015c-8.898-.009-16.685-.346-17.304-.75C50.198 135.466 40 103.515 40 100.596c0-.328 9.47-.596 21.045-.596 21.012 0 21.05-.004 23.5-2.455C87.576 94.515 87.78 89.78 85 87c-1.902-1.902-3.333-2-29.077-2H28.846l-2.923 2.923c-4.174 4.174-3.869 7.172 3.145 30.981 7.754 26.32 8.688 28.421 13.808 31.033C46.583 151.828 48.678 152 68 152c23.787 0 27.029-.767 30.298-7.167.937-1.833 5.347-17.733 9.801-35.333s8.167-32.066 8.25-32.147c.083-.082 11.851-1.719 26.151-3.64l26-3.492-25.111-.11L118.277 70l.468-2.444c.545-2.855 1.13-3.011 17.255-4.613 6.325-.628 11.688-1.322 11.917-1.542.229-.221-5.734-.401-13.25-.401C123.382 61 121 60.747 121 59.547c0-3.614 2.744-6.479 11.009-11.497 9.681-5.878 11.83-8.713 10.084-13.305-2.368-6.229-8.074-6.128-18.593.328M54.228 157.23c-4.277 2.061-4.299 7.887-.042 11.062 2.369 1.767 3.05 1.853 5.763.729 5.13-2.125 5.463-9.601.528-11.85-3.021-1.376-3.276-1.374-6.249.059m25.792.553C75.363 161.554 78.223 170 84.156 170c2.499 0 6.844-4.345 6.844-6.844 0-5.165-7.004-8.593-10.98-5.373"/><path fill-opacity=".488" fill-rule="evenodd" d="M0 100.005V200.01l100.25-.255 100.25-.255.255-99.75L201.01 0H0zm.481.495c0 55 .121 77.647.269 50.326.148-27.32.148-72.32 0-100C.602 23.147.481 45.5.481 100.5m121.285-64.463c-7.412 4.608-10.316 7.055-12.177 10.257-1.544 2.659-5.822 17.445-11.632 40.206-5.054 19.8-9.971 38.925-10.925 42.5l-1.735 6.5-17.464.272-17.463.273-5.185-17.398C42.333 109.078 40 100.968 40 100.624c0-.343 9.389-.624 20.865-.624 19.595 0 21.026-.126 23.5-2.073 3.222-2.534 3.552-7.572.725-11.066-1.899-2.347-2.053-2.363-26.25-2.678-15.595-.203-25.668.075-28.036.774C25.921 86.398 23 90.221 23 95.169c0 4.845 12.624 47.369 15.128 50.958C41.81 151.404 44.84 152 68 152c23.419 0 26.605-.657 29.966-6.184.951-1.564 5.491-17.617 10.089-35.674l8.359-32.831 27.043-3.545 27.043-3.545-26.111-.111-26.112-.11.459-2.399c.429-2.244 1.116-2.478 10.611-3.606 21.676-2.574 22.054-2.744 6.403-2.873-8.112-.067-14.75-.505-14.75-.973 0-4.106 2.672-6.996 11.274-12.195 7.549-4.561 9.343-6.123 10.11-8.799 1.353-4.717-1.659-8.561-6.984-8.913-3.265-.215-5.484.727-13.634 5.795M53 158c-4.13 4.13-1.179 12 4.5 12 1.375 0 3.4-.9 4.5-2 4.13-4.13 1.179-12-4.5-12-1.375 0-3.4.9-4.5 2m26.455.455C78.105 159.805 77 161.85 77 163c0 2.616 4.271 7 6.82 7 3.015 0 7.18-3.839 7.18-6.618 0-3.016-4.14-7.382-7-7.382-1.15 0-3.195 1.105-4.545 2.455"/><path fill-opacity=".975" fill-rule="evenodd" d="M0 100.005V200.01l100.25-.255 100.25-.255.255-99.75L201.01 0H0zm.481.495c0 55 .121 77.647.269 50.326.148-27.32.148-72.32 0-100C.602 23.147.481 45.5.481 100.5M130.5 30.967c-8.607 4.137-18.108 10.841-20.704 14.609-2.088 3.029-4.79 12.135-11.849 39.924-5.029 19.8-9.948 39.15-10.931 43l-1.787 7-17.364.263-17.365.264-4.923-16.764c-2.708-9.22-5.119-17.325-5.357-18.013-.338-.974 4.284-1.257 20.923-1.282 15.21-.022 21.814-.382 22.944-1.25 4.51-3.463 4.586-9.257.166-12.734C81.89 84.126 80.15 84 56.815 84c-26.354 0-28.02.254-32.234 4.911-1.283 1.417-1.893 3.512-1.85 6.352.071 4.64 12.507 46.834 14.895 50.535.815 1.263 2.921 3.174 4.678 4.246 2.918 1.779 5.154 1.949 25.696 1.949 25.788 0 27.387-.425 30.974-8.233 1.076-2.343 5.46-18.21 9.741-35.26l7.785-31 18-2.284c9.9-1.257 22.5-2.886 28-3.622l10-1.338-26.82-.128L118.861 70l.319-2.25c.302-2.127 1.225-2.368 16.82-4.396l16.5-2.147-15.858-.103L120.783 61l.644-2.75c.765-3.274 2.598-4.892 12.79-11.293 8.414-5.284 9.925-7.785 7.802-12.912-.74-1.785-2.392-3.328-4.263-3.98-1.68-.586-3.1-1.055-3.155-1.043-.056.012-1.901.887-4.101 1.945M52.944 157.844C48.203 161.683 51.32 170 57.5 170c1.253 0 3.303-.83 4.556-1.844C66.797 164.317 63.68 156 57.5 156c-1.253 0-3.303.83-4.556 1.844m26.23.47c-2.82 3.003-2.765 6.782.14 9.512C83.924 172.156 91 169.233 91 163c0-6.323-7.497-9.294-11.826-4.686"/></svg>