<svg width="500" height="321" viewBox="0 0 500 321" fill="#000000" xmlns="http://www.w3.org/2000/svg">
<path fill-rule="evenodd" clip-rule="evenodd" d="M195.493 3.23837C156.354 13.7804 145.69 42.6663 160.948 96.8117C165.402 112.625 174.539 145.259 181.25 169.333C187.959 193.406 195.201 219.072 197.339 226.367C199.477 233.662 205.257 253.706 210.184 270.909C219.678 304.053 223.89 311.128 237.589 316.927C258.575 325.811 267.077 320.545 308.853 272.79C327.358 251.634 343.835 233.996 345.466 233.596C347.098 233.193 362.378 244.236 379.421 258.134C427.863 297.631 435.848 295.198 459.702 233.686C467.758 212.907 480.338 180.416 487.657 161.481C509.311 105.449 502.968 80.9004 464.708 72.6636C432.23 65.6736 416.183 85.7948 409.23 142.232C403.782 186.483 404.681 185.817 386.902 158.738C356.568 112.535 325.143 112.58 294.08 158.876C280.153 179.633 281.094 178.49 279.341 176.734C278.548 175.943 275.537 145.681 272.651 109.487C265.958 25.5507 260.74 13.738 225.708 3.19593C211.534 -1.07236 211.489 -1.07236 195.493 3.23837ZM50.8723 73.7247C19.2356 81.2612 -2.96005 112.036 0.321409 143.816C8.94552 227.399 132.758 221.25 132.758 137.24C132.758 94.8566 92.6771 63.7689 50.8723 73.7247Z" fill="#000000"/>
</svg>
