<svg xmlns="http://www.w3.org/2000/svg" width="24" height="24" fill="#000000"><g clip-path="url(#a)"><circle cx="12" cy="12" r="11.357" fill="#858585"/><path fill="#858585" fill-rule="evenodd" d="M12 23.657c6.438 0 11.657-5.219 11.657-11.657S18.438.343 12 .343.343 5.562.343 12 5.562 23.657 12 23.657ZM12 24c6.627 0 12-5.373 12-12S18.627 0 12 0 0 5.373 0 12s5.373 12 12 12Z" clip-rule="evenodd"/><mask id="b" width="24" height="24" x="0" y="0" maskUnits="userSpaceOnUse" style="mask-type:alpha"><circle cx="12.001" cy="12" r="11.357" fill="#858585"/></mask><g mask="url(#b)"><path fill="#6b6b6b" d="M4.215 24.195c-1.731-1.748 1.075-3.613 2.694-4.328.381.19 1.139.633 1.123.878-1.535 5.127-3.185 4.436-3.817 3.45Z"/><mask id="c" width="6" height="6" x="3" y="19" maskUnits="userSpaceOnUse" style="mask-type:alpha"><path fill="#6b6b6b" d="M4.214 24.216c-1.731-1.747 1.075-3.613 2.694-4.327.381.19 1.139.632 1.123.877-1.535 5.128-3.185 4.437-3.817 3.45Z"/></mask><g mask="url(#c)"><path fill="#000000" fill-rule="evenodd" d="M7.98 21.5c-1.091-.384-1.693-1.23-1.867-1.635l.525-.226c.124.287.619 1 1.53 1.321l-.189.54Zm-3.317.972c-.447-.638-.543-1.336-.488-1.8l.568.067c-.04.339.03.893.388 1.406.352.503 1.002.991 2.17 1.177l-.09.564c-1.3-.206-2.095-.766-2.548-1.414Zm-1.251-.882c-.056.464.04 1.163.487 1.801.453.647 1.25 1.207 2.548 1.414l.09-.565c-1.168-.185-1.817-.673-2.17-1.177-.358-.512-.428-1.067-.388-1.406l-.567-.067Z" clip-rule="evenodd"/></g><path fill="#000000" fill-rule="evenodd" d="m6.91 19.82.026.013c.192.096.48.256.718.423.12.084.228.17.307.254.04.041.073.084.096.126a.246.246 0 0 1 .035.134v.007l-.002.006c-.385 1.285-.777 2.208-1.161 2.855-.383.646-.76 1.02-1.117 1.2a1.08 1.08 0 0 1-.976.031c-.28-.129-.508-.364-.67-.615-.44-.446-.597-.906-.55-1.358.047-.45.295-.88.643-1.272.696-.784 1.812-1.433 2.625-1.792l.026-.012ZM3.738 22.91c-.043.41.098.837.52 1.263l.004.005.004.005c.154.24.368.459.621.576a.959.959 0 0 0 .87-.03c.327-.164.69-.517 1.067-1.153.376-.633.764-1.544 1.146-2.82a.14.14 0 0 0-.02-.06.524.524 0 0 0-.078-.1 1.965 1.965 0 0 0-.288-.238 5.953 5.953 0 0 0-.677-.401c-.803.358-1.884.993-2.556 1.749-.34.382-.57.79-.613 1.204Z" clip-rule="evenodd"/><path fill="#6b6b6b" d="M19.79 24.154c1.73-1.748-1.076-3.613-2.695-4.328-.381.19-1.139.633-1.123.878 1.535 5.127 3.185 4.436 3.817 3.45Z"/><mask id="d" width="6" height="6" x="15" y="19" maskUnits="userSpaceOnUse" style="mask-type:alpha"><path fill="#6b6b6b" d="M19.79 24.175c1.73-1.747-1.076-3.613-2.695-4.327-.381.19-1.139.632-1.123.877 1.535 5.128 3.185 4.437 3.817 3.45Z"/></mask><g mask="url(#d)"><path fill="#000000" fill-rule="evenodd" d="M16.024 21.459c1.09-.384 1.692-1.23 1.866-1.635l-.525-.226c-.124.287-.619 1-1.531 1.321l.19.54Zm3.316.972c.447-.638.543-1.336.488-1.8l-.568.067c.04.339-.03.893-.388 1.406-.352.503-1.002.99-2.17 1.176l.09.565c1.3-.206 2.095-.766 2.548-1.414Zm1.251-.882c.055.464-.04 1.163-.487 1.801-.453.647-1.25 1.207-2.548 1.413l-.09-.564c1.168-.186 1.817-.673 2.17-1.177.358-.512.428-1.067.388-1.406l.567-.067Z" clip-rule="evenodd"/></g><path fill="#000000" fill-rule="evenodd" d="m17.094 19.78-.026.012c-.192.096-.48.256-.718.423-.12.084-.228.17-.307.254a.643.643 0 0 0-.096.126.246.246 0 0 0-.035.134v.007l.002.006c.385 1.285.777 2.208 1.16 2.855.384.646.762 1.02 1.118 1.2.359.181.692.162.976.031.28-.129.508-.364.67-.615.44-.446.596-.906.55-1.358-.047-.45-.295-.88-.643-1.272-.696-.784-1.812-1.433-2.625-1.792l-.026-.012Zm3.172 3.088c.042.41-.098.837-.52 1.263l-.004.005-.004.005c-.154.24-.368.459-.622.576a.959.959 0 0 1-.869-.03c-.327-.165-.69-.517-1.067-1.153-.376-.633-.764-1.544-1.146-2.82 0-.013.005-.033.02-.06a.528.528 0 0 1 .078-.1c.07-.075.172-.157.288-.238.222-.156.489-.306.677-.401.803.358 1.884.993 2.556 1.749.34.382.57.79.613 1.204Z" clip-rule="evenodd"/><path fill="#7f7f7f" d="M6.99 25.135c0 4.272 2.24 7.736 5.001 7.736V17.398c-2.762 0-5 3.464-5 7.737Z"/><path fill="#7f7f7f" d="M16.972 25.135c0 4.272-2.24 7.736-5.001 7.736V17.398c2.762 0 5 3.464 5 7.737Z"/><path fill="#000000" fill-rule="evenodd" d="M15.466 30.538c.89-1.377 1.445-3.287 1.445-5.403 0-2.117-.555-4.027-1.445-5.404-.892-1.379-2.108-2.21-3.434-2.21-1.325 0-2.542.831-3.433 2.21-.89 1.377-1.445 3.287-1.445 5.404 0 2.116.554 4.026 1.445 5.403.891 1.38 2.108 2.21 3.433 2.21 1.326 0 2.542-.83 3.434-2.21Zm-3.434 2.333c2.762 0 5.001-3.464 5.001-7.736 0-4.273-2.239-7.737-5-7.737-2.763 0-5.002 3.464-5.002 7.737 0 4.272 2.24 7.736 5.001 7.736Z" clip-rule="evenodd"/><path fill="#000000" d="M8.276 20.828c-1.47-.49-1.919-1.919-1.96-2.572l6.226-1.735c1.633-.109 4.915.085 4.98 1.735.066 1.65-1.197 2.402-1.836 2.572-.54 2.743-2.702 2.3-3.715 1.735-3.123 1.408-3.695-1.735-3.695-1.735Z"/><path fill="#000000" fill-rule="evenodd" d="M16.982 17.225c.354.256.584.593.602 1.03.065 1.657-1.18 2.43-1.846 2.622-.137.675-.374 1.16-.672 1.5a1.911 1.911 0 0 1-1.047.62c-.742.162-1.536-.085-2.052-.365-.776.345-1.401.413-1.903.315a2.04 2.04 0 0 1-1.158-.682 3.107 3.107 0 0 1-.55-.946 3.509 3.509 0 0 1-.133-.444c-1.477-.511-1.927-1.954-1.968-2.615l-.003-.05 6.28-1.75h.006c.82-.054 2.055-.033 3.096.21.52.121.997.3 1.348.555Zm-8.646 3.592v.002l.002.007a1.688 1.688 0 0 0 .028.12c.02.08.055.196.105.33.101.269.267.61.527.908.26.297.612.549 1.09.642.477.094 1.085.03 1.857-.318l.028-.013.027.015c.5.278 1.278.524 1.993.367a1.79 1.79 0 0 0 .981-.581c.286-.325.518-.801.651-1.48l.008-.037.037-.01c.624-.166 1.855-.9 1.791-2.51-.015-.389-.22-.695-.55-.935-.334-.242-.792-.415-1.305-.535-1.022-.238-2.24-.26-3.054-.207l-6.171 1.72c.059.66.514 2.002 1.914 2.468l.034.012.007.035Z" clip-rule="evenodd"/><path fill="#a1a1a1" d="M10.45 20.665c.109 1.046.985 1.964 1.466 2.34.027.02.064.001.064-.032L12 3.887a.04.04 0 0 0-.04-.041H8.24a.04.04 0 0 0-.038.054l.233.682a.041.041 0 0 1-.026.052c-2.252.732-3.754 2.762-4.259 3.747a.04.04 0 0 0 .037.057h.577c.032 0 .051.035.035.063-1.524 2.615-1.226 5.173-.865 6.2.01.029.049.034.069.01l.458-.569c.026-.032.078-.01.074.032-.25 2.756 1.851 4.758 3.002 5.459a.04.04 0 0 0 .06-.032l.054-.58c.001-.006.003-.006.007 0 .59 1.045 1.962 2.222 2.631 2.724a.04.04 0 0 0 .065-.029c.035-.39.092-1.084.095-1.05Z"/><mask id="e" width="10" height="21" x="3" y="3" maskUnits="userSpaceOnUse" style="mask-type:alpha"><path fill="#a1a1a1" d="M10.499 20.665c.11 1.046.986 1.964 1.467 2.34.026.02.064.001.064-.032l.02-19.086a.04.04 0 0 0-.04-.041H8.29a.04.04 0 0 0-.038.054l.233.682a.041.041 0 0 1-.026.052C6.207 5.366 4.705 7.396 4.2 8.381a.04.04 0 0 0 .037.057h.577c.032 0 .05.035.035.063-1.524 2.615-1.227 5.173-.865 6.2.01.029.049.034.069.01l.458-.569c.025-.032.078-.01.074.032-.25 2.756 1.851 4.758 3.002 5.459a.04.04 0 0 0 .06-.032l.054-.58c0-.006.003-.006.007 0 .59 1.045 1.962 2.222 2.631 2.724a.04.04 0 0 0 .064-.029c.036-.39.092-1.084.096-1.05Z"/></mask><g mask="url(#e)"><path fill="#666666" fill-rule="evenodd" d="M12.112 6.152 8.377 3.539l-.756.714 2.388 1.164 2.103.735ZM3.886 8.479C6.048 6.537 8.56 6.592 9.854 6.93c.086.023.07.135-.02.14-4.005.247-5.431 1.587-5.642 2.246-.109-.272-.322-.82-.306-.837Zm-.184 6.654c.128-.872.976-2.936 3.33-4.565.076-.053.161.042.101.113-1.294 1.548-3.344 4.273-3.329 5.391.017 1.225-.061-.115-.102-.939Zm4.266-4.43c-2.45 3.626-1.347 7.785-.49 9.41l.327-.163.163-3.898c.354-1.252.85-4.075 0-5.348Zm2.49 13.759c-.407-1.183-.968-3.975-.142-6.1.031-.08.157-.057.162.03a3525 3525 0 0 0 .123 2.17c.205.477.768 1.479 1.388 1.675v1.592l-1.53.633Z" clip-rule="evenodd"/></g><path fill="#000000" fill-rule="evenodd" d="M8.279 3.908h3.731v-.123H8.25c-.07 0-.12.069-.097.135l.227.663c-2.262.744-3.768 2.781-4.275 3.77-.036.071.019.147.092.147h.541c-1.515 2.623-1.217 5.184-.852 6.221.027.079.127.088.174.029l.418-.52c-.107 1.37.357 2.552.992 3.48.643.94 1.463 1.621 2.045 1.976.067.04.146-.007.153-.079l.037-.403c.303.484.752.985 1.206 1.427.502.49 1.015.911 1.351 1.164a.102.102 0 0 0 .162-.073 121.571 121.571 0 0 0 .056-.636c.116.404.329.777.564 1.093.315.423.673.751.91.925l.072-.1a4.524 4.524 0 0 1-.883-.898c-.307-.413-.568-.914-.623-1.446v-.003l-.001-.003a.063.063 0 0 0-.02-.035.061.061 0 0 0-.094.015.064.064 0 0 0-.007.017v.006a35.123 35.123 0 0 0-.056.61l-.037.407c-.332-.252-.825-.66-1.309-1.13-.5-.487-.985-1.038-1.275-1.552a.08.08 0 0 0-.011-.015.063.063 0 0 0-.104.018.076.076 0 0 0-.006.021l-.051.547c-.567-.351-1.357-1.014-1.978-1.923-.632-.924-1.09-2.1-.965-3.46a.103.103 0 0 0-.063-.105.101.101 0 0 0-.12.03l-.435.538c-.35-1.036-.622-3.545.874-6.11a.103.103 0 0 0-.088-.155H4.23c.516-.988 2-2.968 4.206-3.685a.102.102 0 0 0 .066-.13l-.224-.655Zm-.665 15.144Z" clip-rule="evenodd"/><path fill="#a1a1a1" d="M13.49 20.665c-.109 1.046-.986 1.964-1.467 2.34a.04.04 0 0 1-.064-.032l-.02-19.086a.04.04 0 0 1 .04-.041h3.72a.04.04 0 0 1 .039.054l-.234.682a.041.041 0 0 0 .027.052c2.251.732 3.754 2.762 4.258 3.747a.04.04 0 0 1-.037.057h-.577a.041.041 0 0 0-.035.063c1.525 2.615 1.227 5.173.866 6.2-.011.029-.05.034-.07.01l-.457-.569c-.026-.032-.078-.01-.075.032.25 2.756-1.85 4.758-3.002 5.459a.04.04 0 0 1-.06-.032 82.069 82.069 0 0 0-.054-.58c0-.006-.003-.006-.006 0-.59 1.045-1.963 2.222-2.632 2.724a.04.04 0 0 1-.064-.029c-.035-.39-.092-1.084-.096-1.05Z"/><mask id="f" width="10" height="21" x="11" y="3" maskUnits="userSpaceOnUse" style="mask-type:alpha"><path fill="#a1a1a1" d="M13.44 20.665c-.109 1.046-.986 1.964-1.467 2.34a.04.04 0 0 1-.064-.032l-.02-19.086a.04.04 0 0 1 .041-.041h3.72a.04.04 0 0 1 .038.054l-.234.682a.041.041 0 0 0 .027.052c2.251.732 3.754 2.762 4.258 3.747a.04.04 0 0 1-.036.057h-.578a.041.041 0 0 0-.035.063c1.525 2.615 1.227 5.173.866 6.2-.01.029-.05.034-.07.01l-.457-.569c-.026-.032-.078-.01-.074.032.25 2.756-1.852 4.758-3.003 5.459a.04.04 0 0 1-.06-.032 82.069 82.069 0 0 0-.054-.58c0-.006-.003-.006-.006 0-.59 1.045-1.962 2.222-2.632 2.724a.04.04 0 0 1-.064-.029c-.035-.39-.092-1.084-.095-1.05Z"/></mask><g mask="url(#f)"><path fill="#666666" fill-rule="evenodd" d="m11.828 6.152 3.735-2.613.755.714-2.388 1.164-2.102.735Zm8.226 2.327c-2.163-1.942-4.675-1.887-5.968-1.549-.086.023-.07.135.019.14 4.005.247 5.431 1.587 5.642 2.246.11-.272.323-.82.307-.837Zm.183 6.654c-.128-.872-.975-2.936-3.329-4.565-.077-.053-.162.042-.102.113 1.294 1.548 3.344 4.273 3.33 5.391-.017 1.225.06-.115.101-.939Zm-4.266-4.43c2.45 3.626 1.347 7.785.49 9.41l-.326-.163-.164-3.898c-.354-1.252-.849-4.075 0-5.348Zm-2.49 13.759c.407-1.183.969-3.975.143-6.1-.032-.08-.158-.057-.163.03l-.123 2.17c-.204.477-.768 1.479-1.388 1.675v1.592l1.53.633Z" clip-rule="evenodd"/></g><path fill="#000000" fill-rule="evenodd" d="M15.66 3.908h-3.73v-.123h3.76c.07 0 .119.069.096.135l-.227.663c2.263.744 3.768 2.781 4.275 3.77.036.071-.018.147-.091.147H19.2c1.515 2.623 1.218 5.184.853 6.221-.028.079-.127.088-.174.029l-.419-.52c.108 1.37-.357 2.552-.991 3.48-.643.94-1.463 1.621-2.045 1.976-.068.04-.147-.007-.153-.079l-.037-.403c-.303.484-.752.985-1.206 1.427-.503.49-1.015.911-1.351 1.164a.102.102 0 0 1-.163-.073l-.039-.444-.016-.192c-.117.404-.33.777-.565 1.093-.314.423-.673.751-.909.925l-.072-.1c.226-.166.576-.485.883-.898.307-.413.567-.914.623-1.446v-.006c.001-.002.002-.009.006-.016a.061.061 0 0 1 .108-.004.065.065 0 0 1 .007.017v.004l.001.002a35.123 35.123 0 0 1 .035.37l.021.24.036.407c.333-.252.826-.66 1.31-1.13.499-.487.984-1.038 1.275-1.552a.08.08 0 0 1 .01-.015c.004-.004.021-.023.051-.02.036.001.05.03.054.037.004.01.005.018.006.022l.05.547c.567-.351 1.357-1.014 1.979-1.923.632-.924 1.088-2.1.965-3.46a.103.103 0 0 1 .063-.105.101.101 0 0 1 .12.03l.434.538c.35-1.036.623-3.545-.873-6.11a.103.103 0 0 1 .088-.155h.543c-.516-.988-2-2.968-4.207-3.685a.102.102 0 0 1-.065-.13l.224-.655Zm.665 15.144Z" clip-rule="evenodd"/><path fill="#dbdbdb" d="M8.756 8.602c-.404.415-1.118.377-1.595-.086-.478-.463-.538-1.175-.134-1.591.403-.416 1.117-.378 1.594.085.478.463.538 1.176.135 1.592Z"/><path fill="#000000" fill-rule="evenodd" d="M7.246 8.428c.44.428 1.076.445 1.422.088.345-.356.309-.99-.132-1.418-.44-.427-1.076-.444-1.421-.088-.346.356-.31.99.131 1.418Zm-.085.088c.477.463 1.191.501 1.595.086.403-.416.343-1.129-.135-1.592-.477-.463-1.191-.501-1.594-.085-.404.416-.344 1.128.134 1.591Z" clip-rule="evenodd"/><path fill="#dbdbdb" d="M15.192 8.602c.403.415 1.117.377 1.594-.086.478-.463.538-1.175.135-1.591-.404-.416-1.118-.378-1.595.085-.478.463-.538 1.176-.134 1.592Z"/><path fill="#000000" fill-rule="evenodd" d="M16.701 8.428c-.44.428-1.076.445-1.421.088-.346-.356-.31-.99.131-1.418.44-.427 1.076-.444 1.422-.088.345.356.309.99-.132 1.418Zm.085.088c-.477.463-1.191.501-1.594.086-.404-.416-.344-1.129.134-1.592.477-.463 1.191-.501 1.595-.085.403.416.343 1.128-.135 1.591Z" clip-rule="evenodd"/><path fill="#a1a1a1" d="M8.582 8.52c-.227.233-.657.184-.96-.11-.304-.295-.367-.724-.14-.957.227-.234.657-.185.96.11.304.294.367.723.14.956Z"/><path fill="#000000" fill-rule="evenodd" d="M7.707 8.321c.278.27.627.278.787.113.16-.165.141-.514-.137-.783-.278-.27-.627-.278-.787-.113-.16.165-.141.514.137.783Zm-.086.088c.304.295.734.344.96.11.228-.233.165-.662-.138-.956-.304-.295-.734-.344-.961-.11-.227.233-.164.662.14.956Z" clip-rule="evenodd"/><path fill="#a1a1a1" d="M15.364 8.52c.227.233.657.184.96-.11.305-.295.367-.724.14-.957-.226-.234-.656-.185-.96.11-.304.294-.366.723-.14.956Z"/><path fill="#000000" fill-rule="evenodd" d="M16.24 8.321c-.278.27-.627.278-.788.113-.16-.165-.14-.514.137-.783.278-.27.627-.278.787-.113.16.165.141.514-.136.783Zm.085.088c-.304.295-.734.344-.96.11-.227-.233-.165-.662.139-.956.303-.295.734-.344.96-.11.227.233.165.662-.14.956Z" clip-rule="evenodd"/><path fill="#dbdbdb" d="M15.83 17.4H8.542c-2.84-.327-1.143-6.457.041-9.472 1.899-.367 6.308-.244 6.675.103 2.89 6.94 1.565 9.11.572 9.369Z"/><path fill="#000000" fill-rule="evenodd" d="M15.165 7.912c.055.02.103.044.135.075l.01.009.004.012c1.447 3.474 1.842 5.761 1.747 7.217-.095 1.455-.683 2.096-1.216 2.235l-.008.002H8.535a1.55 1.55 0 0 1-.897-.394c-.233-.213-.4-.501-.513-.842-.226-.68-.242-1.582-.133-2.56.218-1.958.941-4.25 1.534-5.76l.012-.03.033-.007c.956-.185 2.538-.246 3.925-.218.694.014 1.34.05 1.838.105.248.028.46.06.623.096.081.019.151.038.208.06Zm-6.537.071c-.589 1.505-1.299 3.767-1.514 5.696-.108.973-.09 1.853.127 2.508.11.327.266.595.48.791.212.195.483.321.825.361h7.275c.459-.124 1.025-.699 1.118-2.122.093-1.427-.293-3.69-1.732-7.149a.36.36 0 0 0-.085-.042 1.497 1.497 0 0 0-.192-.054 5.826 5.826 0 0 0-.61-.094 21.504 21.504 0 0 0-1.827-.105c-1.368-.027-2.92.032-3.865.21Z" clip-rule="evenodd"/><path fill="#000000" d="M9.89 10.564a.714.714 0 1 1-1.43 0 .714.714 0 0 1 1.43 0ZM15.402 10.564a.714.714 0 1 1-1.43 0 .714.714 0 0 1 1.43 0Z"/><path fill="#d6d6d6" d="M9.196 10.218a.163.163 0 1 1-.327 0 .163.163 0 0 1 .327 0ZM14.707 10.218a.163.163 0 1 1-.326 0 .163.163 0 0 1 .326 0Z"/><path fill="#ababab" d="M13.237 14.073h-2.592c-.85-4.474.558-7.852 1.368-8.981 1.927 3.38 1.619 7.396 1.224 8.981Z"/><path fill="#000000" fill-rule="evenodd" d="m12.018 4.979.048.083c1.937 3.398 1.627 7.431 1.23 9.026l-.011.046h-2.69l-.01-.05c-.853-4.49.558-7.885 1.378-9.028l.055-.077Zm-1.322 9.033c-.808-4.332.507-7.62 1.31-8.805 1.846 3.311 1.566 7.211 1.183 8.805h-2.493ZM12.02 15.707a.061.061 0 0 1 .053.068c-.028.245-.136.588-.375.811a.805.805 0 0 1-.465.217c-.191.022-.415-.015-.675-.134a.061.061 0 1 1 .051-.112c.245.112.446.144.61.125a.682.682 0 0 0 .396-.185c.209-.196.31-.507.337-.736a.061.061 0 0 1 .068-.054Z" clip-rule="evenodd"/><path fill="#000000" fill-rule="evenodd" d="M12.006 15.707a.061.061 0 0 0-.054.068c.028.245.136.588.375.811.12.113.274.195.466.217.19.022.414-.015.674-.134a.061.061 0 1 0-.05-.112c-.246.112-.447.144-.61.125a.682.682 0 0 1-.396-.185c-.21-.196-.31-.507-.337-.736a.061.061 0 0 0-.068-.054Z" clip-rule="evenodd"/><path fill="#696969" d="M13.728 14.114a1.735 1.735 0 1 1-3.47 0 1.735 1.735 0 0 1 3.47 0Z"/><path fill="#000000" fill-rule="evenodd" d="M11.993 15.726a1.613 1.613 0 1 0 0-3.225 1.613 1.613 0 0 0 0 3.226Zm0 .123a1.735 1.735 0 1 0 0-3.47 1.735 1.735 0 0 0 0 3.47Z" clip-rule="evenodd"/><path fill="#bababa" d="M12.87 13.441a.857.857 0 1 1-1.714 0 .857.857 0 0 1 1.715 0Z"/><path fill="#7f7f7f" d="M11.991 1.968C8.97.53 7.371 2.907 6.949 4.274c1.34-2.106 2.348-1.245 2.695-.347.424 1.757-.34 3.386-.776 3.98h3.123v-5.94Z"/><path fill="#7f7f7f" d="M11.97 1.968c3.02-1.437 4.62.939 5.042 2.306-1.34-2.106-2.348-1.245-2.695-.347-.424 1.757.34 3.386.776 3.98H11.97v-5.94Z"/><path fill="#000000" fill-rule="evenodd" d="M7.143 3.822c.263-.591.707-1.255 1.347-1.706.81-.572 1.942-.806 3.434-.096a.061.061 0 1 0 .052-.11c-1.53-.728-2.708-.493-3.557.106-.844.595-1.356 1.545-1.57 2.237l.11.05c.63-.99 1.158-1.32 1.565-1.314.405.005.73.344.948.793.051.105.087.218.11.334.329 1.665-.39 3.187-.805 3.752l-.07.098h6.366a.061.061 0 0 0 0-.123H8.944c.432-.646 1.078-2.13.758-3.75a1.49 1.49 0 0 0-.12-.364c-.223-.46-.578-.857-1.056-.863-.403-.005-.866.268-1.383.956Z" clip-rule="evenodd"/><path fill="#000000" fill-rule="evenodd" d="M16.777 3.822c-.263-.591-.707-1.255-1.347-1.706-.81-.572-1.942-.806-3.434-.096a.061.061 0 0 1-.052-.11c1.53-.728 2.708-.493 3.557.106.844.595 1.356 1.545 1.57 2.237l-.11.05c-.63-.99-1.158-1.32-1.565-1.314-.406.005-.73.344-.948.793a1.363 1.363 0 0 0-.11.334c-.329 1.665.39 3.187.805 3.752a.061.061 0 0 1-.1.072c-.426-.583-1.162-2.139-.825-3.848.024-.124.063-.248.12-.363.223-.46.578-.857 1.056-.863.403-.005.866.268 1.383.956Z" clip-rule="evenodd"/><path fill="#7f7f7f" d="M7.765 4.988a.98.98 0 1 1-1.96 0 .98.98 0 0 1 1.96 0Z"/><path fill="#000000" fill-rule="evenodd" d="M6.785 5.845a.857.857 0 1 0 0-1.715.857.857 0 0 0 0 1.715Zm0 .122a.98.98 0 1 0 0-1.96.98.98 0 0 0 0 1.96Z" clip-rule="evenodd"/><path fill="#7f7f7f" d="M18.134 4.988a.98.98 0 1 1-1.96 0 .98.98 0 0 1 1.96 0Z"/><path fill="#000000" fill-rule="evenodd" d="M17.155 5.845a.857.857 0 1 0 0-1.715.857.857 0 0 0 0 1.715Zm0 .122a.98.98 0 1 0 0-1.96.98.98 0 0 0 0 1.96Z" clip-rule="evenodd"/></g></g><defs><clipPath id="a"><path fill="#000000" d="M0 0h24v24H0z"/></clipPath></defs></svg>