<!-- Generated by IcoMoon.io -->
<svg version="1.1" xmlns="http://www.w3.org/2000/svg" width="32" height="32" viewBox="0 0 32 32" fill="#000000">
<title>xec</title>
<path d="M9.050 10.918c1.98-1.146 3.978-2.293 5.958-3.439 0.291-0.174 0.623-0.265 0.962-0.265s0.671 0.092 0.962 0.265l2.947 1.683c0.038 0.024 0.069 0.056 0.090 0.095s0.033 0.083 0.033 0.127-0.011 0.088-0.033 0.127c-0.022 0.039-0.053 0.072-0.090 0.095l-7.202 4.143c-0.091 0.052-0.166 0.128-0.218 0.219s-0.078 0.194-0.077 0.299v3.477c-0.001 0.102 0.026 0.202 0.078 0.29s0.127 0.16 0.217 0.208l3.015 1.739c0.086 0.055 0.185 0.084 0.287 0.084s0.202-0.029 0.287-0.084l12.43-7.158c2.11-1.22 2.11-4.735 0-5.955l-11.174-6.439c-0.466-0.282-1-0.431-1.544-0.431s-1.078 0.149-1.544 0.431l-11.174 6.439c-0.474 0.268-0.869 0.658-1.142 1.129s-0.415 1.007-0.411 1.552c0 4.299 0.018 8.602 0 12.892-0.004 0.545 0.138 1.081 0.411 1.553s0.667 0.862 1.142 1.131l11.174 6.456c0.469 0.272 1.002 0.416 1.544 0.416s1.075-0.143 1.544-0.416l11.174-6.456c0.474-0.267 0.867-0.658 1.138-1.131s0.408-1.009 0.398-1.554v-5.599l-13.299 7.691c-0.291 0.172-0.624 0.263-0.962 0.263s-0.671-0.091-0.962-0.263l-5.935-3.442c-0.296-0.165-0.542-0.407-0.711-0.7s-0.257-0.627-0.252-0.965v-6.863c-0.001-0.333 0.085-0.661 0.251-0.95s0.404-0.53 0.692-0.697h-0.003z"/>
</svg>
