<!-- Generated by IcoMoon.io -->
<svg version="1.1" xmlns="http://www.w3.org/2000/svg" width="32" height="32" viewBox="0 0 32 32" fill="#000000">
<title>xem</title>
<path d="M11.080 14.967c0.070-0.038 0.133-0.074 0.194-0.112 2.186-1.312 3.493-3.606 3.504-6.142l-0-0.019c0-3.491 1.823-6.606 4.751-8.302-1.178-0.128-2.363-0.192-3.548-0.193-5.448 0-10.868 1.354-15.676 3.913-0.226 0.12-0.242 0.147-0.259 0.177-0.038 0.065-0.049 0.089-0.045 0.207 0.058 1.908 0.28 3.807 0.662 5.677 0.087 0.421 0.182 0.841 0.286 1.258 1.106 2.656 3.771 4.438 6.641 4.438 1.222 0 2.429-0.313 3.49-0.903zM19.671 17.049c-0.056-0.034-0.112-0.067-0.169-0.099l-0.066-0.038c-1.034-0.572-2.236-0.881-3.452-0.881-1.222 0-2.425 0.31-3.478 0.896-0.072 0.045-0.168 0.101-0.264 0.152-1.412 0.785-3.022 1.201-4.652 1.201-1.648 0-3.282-0.439-4.723-1.256 2.672 5.983 7.1 11.139 12.593 14.625 0.132 0.084 0.222 0.12 0.543 0.12 0.29 0 0.361-0.029 0.503-0.119 1.494-0.95 2.911-2.017 4.236-3.191 0.324-0.288 0.642-0.583 0.954-0.883 0.951-1.251 1.474-2.796 1.474-4.356 0-2.514-1.341-4.878-3.499-6.17zM31.922 4.29c-0.017-0.029-0.033-0.056-0.259-0.177-1.603-0.853-3.273-1.575-4.994-2.156-0.395-0.133-0.793-0.259-1.194-0.377-0.364-0.056-0.731-0.084-1.099-0.085-3.933 0-7.139 3.176-7.187 7.099v0.092c0.001 2.536 1.298 4.836 3.47 6.15l0.032 0.020c0.066 0.036 0.15 0.084 0.228 0.131 2.847 1.704 4.627 4.816 4.66 8.136 3.929-5.414 6.187-11.973 6.387-18.627 0.003-0.117-0.006-0.138-0.045-0.205z"/>
</svg>
