<svg xmlns="http://www.w3.org/2000/svg" width="24" height="24" fill="#000000"><g clip-path="url(#a)"><path fill="#000000" d="M12 24c6.628 0 12-5.372 12-12 0-6.627-5.372-12-12-12C5.373 0 0 5.373 0 12c0 6.628 5.373 12 12 12Z"/><path fill="#000000" d="M19.204 3.341c-.195.247-.358.456-.523.663l-3.235 4.054c-1.014 1.27-2.027 2.543-3.045 3.81-.088.11-.086.177.003.287.718.89 1.43 1.787 2.142 2.681l2.631 3.296 1.91 2.394c.024.031.041.067.079.128-.201 0-.377.005-.552-.004-.036-.002-.075-.05-.103-.085l-3.613-4.539c-.94-1.179-1.883-2.356-2.824-3.534-.022-.028-.038-.06-.069-.108l-.511.638c-1.3 1.628-2.599 3.255-3.897 4.884a654.44 654.44 0 0 0-2.087 2.626c-.075.095-.152.14-.273.133-.13-.008-.263-.002-.437-.002.084-.114.14-.196.202-.273l3.167-3.97c1.143-1.43 2.284-2.862 3.428-4.293.062-.077.082-.136.01-.226-1.28-1.603-2.557-3.21-3.835-4.814L4.864 3.44c-.016-.019-.028-.041-.067-.1.162 0 .298.017.429-.003.173-.027.236.095.316.196.99 1.239 1.976 2.479 2.964 3.718.93 1.168 1.862 2.334 2.793 3.5l.585.735c.031.039.064.075.114.132.155-.191.3-.368.442-.547l3.518-4.418c.843-1.06 1.688-2.118 2.528-3.18.074-.094.148-.143.27-.134.131.01.264.002.448.002Z"/></g><defs><clipPath id="a"><path fill="#000000" d="M0 0h24v24H0z"/></clipPath></defs></svg>