<svg xmlns="http://www.w3.org/2000/svg" width="200" height="200" fill="#000000"><path fill-opacity=".153" fill-rule="evenodd" d="M22 35.829v24.828l11.25 9.416C59.817 92.307 90.33 118.158 101 127.47c6.325 5.521 17.35 14.832 24.5 20.692 7.15 5.861 21.325 17.665 31.5 26.232s18.838 15.583 19.25 15.591.75-11.133.75-24.759v-24.775l-21.567-18.475c-11.861-10.162-22.322-19.056-23.245-19.765-1.177-.905-1.336-1.502-.532-2 .631-.391 11.091-9.202 23.245-19.58L177 61.762V10.823l-9.25 7.874A5732 5732 0 0 1 149 34.571c-5.225 4.4-18.222 15.367-28.883 24.372C97.824 77.772 101.539 77.025 88 65.405 61.902 43.007 23.57 11 22.843 11 22.379 11 22 22.173 22 35.829m5.051 3.862.051 18.809 22.553 19c19.868 16.738 39.63 33.286 64.27 53.814 4.084 3.402 11.308 9.561 16.054 13.686 12.082 10.501 38.892 33.223 41.146 34.872 1.816 1.329 1.875.773 1.875-17.613v-18.985l-15.648-12.887c-8.606-7.088-17.799-14.687-20.428-16.887s-6.838-5.719-9.352-7.82-4.572-4.145-4.572-4.543 11.25-10.09 25-21.537l25-20.814V39.771c0-17.948-.098-18.939-1.745-17.643-6.695 5.265-61.694 52.053-65.525 55.742-3.528 3.398-5.125 4.339-6.131 3.612-.749-.54-16.828-14.054-35.73-30.03-18.903-15.976-34.931-29.39-35.619-29.809-.983-.599-1.239 3.251-1.199 18.048m26.681 75.059A3451 3451 0 0 1 32.186 133l-10.144 8.5-.021 25.25c-.012 14.652.364 25.25.896 25.25.504 0 1.066-.365 1.25-.811.342-.835 28.883-25.062 55.59-47.189 8.298-6.875 15.308-12.997 15.578-13.604s-2.958-3.964-7.172-7.46c-4.215-3.497-10.648-8.962-14.297-12.147-3.648-3.184-7.106-5.789-7.682-5.789s-6.18 4.388-12.452 9.75m-4.329 10.073a36164 36164 0 0 0-19.207 16.327l-3.111 2.649-.292 19.102c-.161 10.506-.183 19.101-.049 19.1s8.873-7.313 19.421-16.251c10.547-8.937 24.163-20.422 30.256-25.521s11.21-9.654 11.369-10.122c.267-.781-19.948-18.38-21.576-18.784-.393-.098-7.957 5.977-16.811 13.5"/><path fill-opacity=".282" fill-rule="evenodd" d="m22.066 35.667.065 24.833L46.708 81c13.517 11.275 32.872 27.603 43.012 36.284s25.039 21.3 33.108 28.042c8.07 6.742 23.337 19.552 33.928 28.466S176.235 190 176.506 190s.462-11.137.423-24.75l-.072-24.75-22.928-19.4C141.318 110.429 131 101.413 131 101.064c0-.537 40.601-35.589 44.666-38.562 1.109-.811 1.319-5.722 1.102-25.798l-.268-24.795-13.688 11.455c-11.88 9.943-56.3 47.36-60.96 51.351-1.473 1.26-5.728-2.038-39.861-30.902C40.974 26.041 23.379 11.35 22.889 11.167c-.505-.19-.861 10.389-.823 24.5M26 38.346v19.441l28.742 24.357c15.808 13.396 34.37 29.004 41.25 34.686 6.879 5.681 22.858 19.159 35.508 29.95s27.172 23.177 32.271 27.525l9.272 7.904-.272-19.849-.271-19.849-16.192-13.506c-8.906-7.428-19.803-16.43-24.216-20.005s-8.039-7.012-8.058-7.639c-.025-.846 35.323-31.297 47.561-40.971 1.121-.886 1.405-5.09 1.405-20.826V19.849l-6.75 5.905c-3.713 3.249-19.687 16.82-35.5 30.159S102 80.578 102 81.083c0 .504-.675.917-1.5.917s-1.5-.377-1.5-.837-9.113-8.485-20.25-17.833a21976 21976 0 0 1-36.5-30.71L26 18.906zm36 69.806a970 970 0 0 1-9.577 8.206l-18.25 15.444L22 142.104v50.042l3.357-2.823C69.37 152.314 95 130.438 95 129.882c0-.732-27.49-24.23-28.766-24.589-.404-.113-2.309 1.173-4.234 2.859m-1.035 6.634c-2.494 2.043-11.381 9.504-19.75 16.581L26 144.233v39.116l2.25-2.027c1.238-1.115 15.473-13.184 31.633-26.82 28.356-23.925 29.313-24.848 27.361-26.397-1.112-.883-6.138-5.092-11.167-9.355-5.03-4.263-9.467-7.734-9.861-7.714s-2.757 1.707-5.251 3.75"/><path fill-opacity=".342" fill-rule="evenodd" d="M22 35.845v23.844l27.241 22.906C64.224 95.193 85.972 113.6 97.569 123.5c24.171 20.632 73.445 62.107 77.024 64.833l2.407 1.834v-48.885l-23.25-19.759c-12.787-10.868-23.336-20.043-23.442-20.391-.105-.348 10.357-9.554 23.25-20.458L177 60.848V11.757l-5.25 4.45c-37.9 32.124-71.024 59.789-71.568 59.774-.375-.01-17.697-14.41-38.492-32C40.894 26.392 23.457 12 22.94 12c-.56 0-.94 9.63-.94 23.845m4.059 2.75.058 19.905 20.157 17c11.087 9.35 32.323 27.206 47.192 39.679a14288 14288 0 0 1 53.033 44.75c14.3 12.139 26.338 22.071 26.75 22.071.413 0 .751-8.71.751-19.355V143.29l-21.665-17.895c-29.321-24.218-29.213-24.116-27.255-25.654.869-.683 12.232-10.195 25.25-21.138L174 58.707V39.353c0-10.644-.338-19.347-.75-19.34-.853.015-62.744 52.218-68.526 57.799-2.781 2.685-4.141 3.387-5.162 2.666-1.047-.739-61.66-51.631-71.812-60.295-1.658-1.415-1.747-.45-1.691 18.412m27.73 76.984c-6.209 5.269-15.339 13-20.289 17.18s-9.562 8.281-10.25 9.112c-.923 1.116-1.25 7.746-1.25 25.32 0 21.802.466 26.1 2.478 22.844.51-.825 17.933-15.637 60.522-51.451 5.225-4.394 9.5-8.313 9.5-8.708C94.5 128.859 67.285 106 66.075 106c-.548 0-6.077 4.311-12.286 9.579m-7.654 11.153L26.1 143.5l-.05 19.75c-.027 10.863.121 19.75.33 19.75.685 0 62.112-52.083 62.407-52.914.158-.444-3.658-4.133-8.479-8.197s-9.975-8.409-11.452-9.657l-2.686-2.267z"/><path fill-opacity=".98" fill-rule="evenodd" d="M22.79 32.663c-.16 11.46-.123 22.412.081 24.337.329 3.091 1.775 4.667 12.391 13.5 6.611 5.5 24.668 20.724 40.129 33.831s36.209 30.63 46.109 38.941 26.18 22 36.178 30.42c9.998 8.419 18.435 15.308 18.75 15.308s.554-10.687.532-23.75l-.041-23.75-23.459-19.893C140.557 110.666 130 101.415 130 101.05c0-.591 14.086-12.799 38.75-33.583l8.25-6.952V36.758c0-13.067-.242-23.758-.538-23.758-.458 0-68.084 56.763-74.039 62.146-2.352 2.127 3.439 6.562-46.423-35.547a42354 42354 0 0 0-27.71-23.387l-5.21-4.387zm2.617 5.97c.368 17.443.62 19.826 2.254 21.366 2.106 1.984 36.64 31.164 71.839 60.702a14942 14942 0 0 1 49 41.342l25 21.202.272-19.343c.15-10.639.061-19.896-.199-20.572-.259-.675-10.057-9.196-21.772-18.935-11.716-9.738-22.76-18.969-24.543-20.513l-3.242-2.807 24.931-20.787L173.879 59.5l.06-20.372c.058-19.231-.037-20.296-1.681-19-5.473 4.311-66.227 55.768-68.585 58.089-2.866 2.821-4.236 3.395-4.84 2.028C97.991 78.337 27.478 19 26.052 19c-.723 0-.927 6.223-.645 19.633M49.5 119.63c-8.8 7.488-18.385 15.696-21.299 18.242l-5.299 4.628.299 23.763.299 23.764 35.703-30.111 35.703-30.11-9.703-8.085c-5.337-4.447-11.605-9.803-13.931-11.903s-4.575-3.814-5-3.809S58.3 112.143 49.5 119.63m13.424-7.348c-1.416 1.22-10.529 8.906-20.25 17.08L25 144.225v19.328c0 10.631.337 19.523.75 19.761.758.437 63.52-52.262 63.669-53.461.091-.727-22.459-19.871-23.348-19.821-.314.017-1.73 1.029-3.147 2.25"/></svg>