<!-- Generated by IcoMoon.io -->
<svg version="1.1" xmlns="http://www.w3.org/2000/svg" width="26" height="32" viewBox="0 0 26 32" fill="#000000">
<title>xlm</title>
<path d="M5.015 25.143c-0.070-0.050-0.157-0.080-0.251-0.080-0.145 0-0.273 0.071-0.352 0.181l-0.001 0.001-4.283 6.016c-0.050 0.070-0.080 0.157-0.080 0.251 0 0.239 0.194 0.433 0.433 0.433 0.145 0 0.273-0.071 0.352-0.181l0.001-0.001 4.283-6.015c0.050-0.070 0.080-0.157 0.080-0.251 0-0.145-0.071-0.273-0.181-0.352l-0.001-0.001zM6.051 27.117c-0.070-0.051-0.158-0.081-0.252-0.081-0.144 0-0.272 0.071-0.351 0.179l-0.001 0.001-2.382 3.321c-0.051 0.070-0.081 0.158-0.081 0.253 0 0.144 0.071 0.272 0.179 0.351l0.001 0.001c0.070 0.051 0.158 0.081 0.253 0.081 0.144 0 0.272-0.071 0.351-0.179l0.001-0.001 2.382-3.321c0.051-0.070 0.081-0.158 0.081-0.253 0-0.145-0.071-0.272-0.179-0.351l-0.001-0.001zM25.65 5.692c0-2.887-0.986-5.678-0.986-5.678s-3.682-0.253-6.761 1.407c-3.080 1.66-4.247 3.778-4.825 4.752s-1.781 3.056-1.781 3.056-2.635-0.048-4.716 1.107c-2.081 1.155-3.357 3.32-3.357 3.32s1.384-0.397 2.707-0.361c1.323 0.036 2.647 0.589 2.647 0.589s-0.313 0.469-0.253 1.155c0.027 0.301 0.429 0.73 0.983 1.197-0.065 0.083-0.149 0.196-0.231 0.31l-0.025 0.036c-1.976 2.792-2.428 5.869-1.008 6.874s4.172-0.444 6.148-3.236c0.037-0.050 0.097-0.137 0.157-0.225l0.027-0.043c0.503 0.317 0.934 0.526 1.202 0.513 0.71-0.036 1.323-0.782 1.323-0.782s1.354 1.715 1.696 2.581c0.343 0.866 0.469 2.418 0.469 2.418s1.516-1.787 1.994-4.426c0.479-2.639-0.695-4.507-0.695-4.507s1.335-1.636 2.707-3.296c1.372-1.661 2.575-3.874 2.575-6.762zM13.727 19.574c-1.309 1.772-3.175 2.613-4.169 1.879s-0.738-2.765 0.571-4.537c0.005-0.007 0.011-0.014 0.016-0.021 0.529 0.395 1.090 0.788 1.561 1.13 0.621 0.45 1.363 1.029 2.048 1.511-0.009 0.013-0.018 0.026-0.027 0.039zM18.732 10.493c-1.628 0-2.948-1.32-2.948-2.948s1.32-2.948 2.948-2.948c1.628 0 2.948 1.32 2.948 2.948s-1.32 2.948-2.947 2.948z"/>
</svg>
