<svg width="500" height="500" viewBox="0 0 500 500" fill="#000000" xmlns="http://www.w3.org/2000/svg">
<path d="M87.5 328.25V118.672L249.922 281.094L412.188 118.828V328.25H486.938C495.297 302.953 499.531 276.484 499.516 249.859C499.516 111.969 387.75 0.1875 249.859 0.1875C111.969 0.1875 0.1875 111.969 0.1875 249.859C0.1875 277.25 4.60937 303.594 12.7656 328.25H87.5Z" fill="#000000"/>
<path d="M358.016 379.031V246.547L249 355.563L140.75 247.312V379.047H36.1719C79.9219 451.266 159.25 499.531 249.859 499.531C340.469 499.531 419.797 451.266 463.547 379.047H358.031L358.016 379.031Z" fill="#000000"/>
</svg>
