<svg xmlns="http://www.w3.org/2000/svg" width="160" height="160" fill="#000000"><path fill-opacity=".478" fill-rule="evenodd" d="M68.5.647C48.709 3.831 29.825 14.701 17.808 29.823.111 52.093-4.614 80.749 5.042 107.261c4.052 11.127 9.208 19.081 18.405 28.395 17.458 17.681 36.517 25.213 61.001 24.106 25.624-1.158 48.101-14.071 62.476-35.89 5.68-8.623 9.667-18.804 12.976-33.136 1.304-5.649 1.466-19.932.241-21.286-.473-.523-1.356-3.528-1.962-6.679-.607-3.151-2.525-9.144-4.263-13.318C144.462 26.744 125.637 10.155 101 2.824 94.541.901 75.036-.405 68.5.647M.36 80c0 5.225.169 7.362.375 4.75s.206-6.888 0-9.5S.36 74.775.36 80"/><path fill-opacity=".346" fill-rule="evenodd" d="M70.061 1.087C33.612 5.804 5.498 34.171 1.063 70.706-.342 82.279.638 91.311 3.6 94.094l2.318 2.178-.472-3.886c-.26-2.137.426-.385 1.525 3.894C14.08 123.958 35.103 145.222 63 152.953c4.125 1.143 6.048 1.925 4.274 1.739-2.808-.295-3.067-.135-2 1.235 2.005 2.573 2.661 2.808 9.79 3.511 14.612 1.44 33.178-3.137 46.82-11.54 20.061-12.359 33.937-33.517 37.126-56.61 2.092-15.151 2.215-16.892 1.081-15.288-.807 1.141-1.065.303-1.079-3.5-.013-3.413-.722-6.111-2.232-8.5-2.099-3.32-2.231-3.379-2.578-1.155-.26 1.665-1.179-.003-3.168-5.746-8.854-25.57-29.937-44.498-56.392-50.626-5.717-1.324-5.804-1.384-1.264-.867 2.683.305 5.608.778 6.5 1.05 1.308.399 1.283.277-.128-.63C98.787 5.407 98 4.344 98 3.665s-.787-1.277-1.75-1.327-4.9-.587-8.75-1.194c-7.803-1.231-8.354-1.233-17.439-.057M98.63 45.733c4.545.322 5.791.956 10.929 5.565 3.19 2.861 6.224 5.071 6.743 4.911s.004 1.302-1.145 3.25c-2.918 4.946-1.858 4.421 1.795-.889 3.537-5.142 3.865-8.753 1.048-11.57-1.788-1.788-3.19-1.98-13.25-1.815-6.187.102-8.942.348-6.12.548M154.158 68c0 1.375.227 1.938.504 1.25.278-.687.278-1.812 0-2.5-.277-.687-.504-.125-.504 1.25M.252 79.5c.011 2.2.216 2.982.455 1.738s.23-3.044-.02-4S.241 77.3.252 79.5m43.893 20.409c-4.675 6.665-5.297 10.738-2.084 13.647 2.184 1.975 4.77 2.185 19.439 1.573 6.475-.27 7.368-.483 4.685-1.118-3.602-.853-8.446-4.779-7.595-6.156.29-.47-.597-.855-1.972-.855-3.155 0-4.182-1.587-2.454-3.794 1.172-1.497 1.142-1.555-.244-.474-1.314 1.024-2.047.745-4.34-1.649-2.333-2.434-2.585-3.205-1.634-4.981 2.053-3.837.397-2.179-3.801 3.807"/><path fill-opacity=".184" fill-rule="evenodd" d="M51.5 6c-.34.55-1.388 1-2.33 1-.941 0-5.253 2.073-9.581 4.606-9.526 5.576-21.776 17.455-27.021 26.201C8.623 44.386 5 53.208 5 56.236 5 57.206 4.564 58 4.031 58s-.709.675-.393 1.5c.914 2.382 3.084 1.744 3.802-1.118.362-1.44.844-2.431 1.072-2.203.228.227-.259 2.868-1.081 5.868-.891 3.25-1.509 9.896-1.53 16.453-.042 13.484 2.273 23.383 8.299 35.5 5.829 11.719 19.643 25.708 31.3 31.696 17.229 8.85 34.247 10.981 54.178 6.784 2.608-.549 2.67-.495.822.713-1.1.719-2.087 1.792-2.193 2.386-.207 1.159 3.203 1.244 4.339.108.378-.378 1.522-.687 2.543-.687 2.802 0 13.841-5.267 20.459-9.761 3.23-2.194 8.881-7.176 12.556-11.072 9.89-10.484 18.328-26.995 16.294-31.882-.597-1.435-1.217-.804-3.158 3.215-1.328 2.75-2.142 4.1-1.809 3 4.124-13.62 4.789-17.566 4.721-28-.337-51.83-48.366-86.041-99.752-71.054-1.1.321-.517-.108 1.296-.953 1.812-.845 3.023-1.976 2.691-2.515-.793-1.282-6.192-1.265-6.987.022M34.542 46.068c.363.588 1.313.818 2.111.512.798-.307 1.207-.162.909.32-.299.483 1.028 2.053 2.948 3.489l6.99 5.23c5.879 4.398 3.891 1.984-2.5-3.038-3.3-2.592-6-5.134-6-5.647 0-.514 1.666-.934 3.702-.934 2.801 0 4.545.791 7.161 3.25l3.459 3.25-2.78-3.75c-2.747-3.706-2.861-3.75-9.72-3.75-4.667 0-6.724.35-6.28 1.068m36.678-.141c5.768.492 7.318 1.068 10.951 4.073 2.328 1.925 4.637 3.372 5.133 3.216.496-.157-.088 1.418-1.298 3.5L83.807 60.5l2.945-3.402 2.944-3.402 8.389.222c4.613.122 8.55.384 8.748.582s-.967 2.304-2.589 4.68A221 221 0 0 0 98.588 68l-2.708 4.5 2.81-3.067 2.81-3.066 2.626 2.756 2.625 2.757-1.909 3.14c-4.146 6.818.137 1.523 7.564-9.351 8.224-12.04 9.245-15.188 6.064-18.702-1.692-1.869-3.075-1.958-27.875-1.79-14.352.097-23.071.434-19.375.75M54.5 55c.995 1.1 2.035 2 2.31 2s-.315-.9-1.31-2-2.035-2-2.31-2 .315.9 1.31 2m-6.312 38.75c-9.207 13.256-10.122 16.583-5.553 20.177 2.332 1.834 3.914 2.059 13.75 1.955 13.863-.147 39.708-1.473 33.615-1.725-3.944-.162-5.191-.837-10.095-5.461-5.394-5.086-5.543-5.365-4.142-7.736 1.137-1.923.886-1.805-1.149.54-1.432 1.65-2.606 3.338-2.609 3.75S67.95 106 63 106c-5.725 0-9-.389-9-1.07 0-.588 1.284-2.951 2.852-5.25A211 211 0 0 0 62.4 91c2.39-3.989 2.43-4.186.349-1.736l-2.347 2.765-2.791-2.913c-2.361-2.464-2.617-3.236-1.665-5.014 2.447-4.574.036-1.575-7.758 9.648"/><path fill-opacity=".817" fill-rule="evenodd" d="M65 7.49c-24.604 5.565-43.813 21.28-53.098 43.439-11.119 26.538-5.624 58.087 13.766 79.03 13.9 15.012 30.377 22.693 50.935 23.741 13.252.676 22.967-1.107 34.237-6.283 19.953-9.162 33.586-24.858 40.318-46.417 2-6.404 2.336-9.546 2.301-21.5-.036-12.639-.309-14.778-2.807-22-4.081-11.798-9.872-20.923-19.056-30.023-8.891-8.811-18.608-14.576-31.096-18.448C91.288 6.173 74.117 5.428 65 7.49M33.615 44.813c-.276.447 6.454 5.96 14.956 12.25S63.91 68.95 63.764 69.5c-.145.55-5.777 9.239-12.514 19.308-6.737 10.07-12.25 18.755-12.25 19.3 0 1.938 2.951 6.659 4.545 7.271 2.327.893 59.459.769 59.436-.129-.027-1.102-19.912-25.256-20.76-25.217-.396.018-3.153 3.618-6.126 8L70.689 106h-8.344c-4.59 0-8.345-.267-8.345-.593s4.297-7.125 9.548-15.108l9.548-14.516-12.243-15.142c-6.733-8.327-12.717-15.472-13.298-15.876-1.442-1.004-13.315-.963-13.94.048m24.025-.04C57.108 45.635 76.664 70 77.887 70c.426 0 3.204-3.6 6.175-8l5.401-8h8.376c6.323 0 8.257.309 7.892 1.26-.266.692-4.573 7.49-9.571 15.106l-9.088 13.847 12.714 15.843L112.5 115.9l7.25.05c3.987.027 7.234-.288 7.213-.7s-6.995-5.913-15.5-12.224S96 91.418 96 91.256c0-.163 5.425-8.416 12.056-18.339 6.63-9.924 12.306-18.698 12.613-19.498.885-2.304-1.569-7.052-4.284-8.289-2.847-1.298-57.957-1.632-58.745-.357"/></svg>