<svg xmlns="http://www.w3.org/2000/svg" width="200" height="200" fill="#000000"><path fill-opacity=".133" fill-rule="evenodd" d="M91 14.86c0 .473-2.362 1.122-5.25 1.443-7.807.867-23.972 6.295-27.32 9.175-1.612 1.386-3.306 2.52-3.767 2.521C50.472 28.005 28 50.53 28 54.725c0 .494-.945 1.912-2.1 3.152C22.208 61.84 16 80.454 16 87.562 16 88.903 15.55 90 15 90c-.6 0-1 4-1 10s.4 10 1 10c.55 0 1 1.097 1 2.438 0 7.108 6.208 25.722 9.9 29.685 1.155 1.24 2.1 2.651 2.1 3.135C28 149.64 50.36 172 54.742 172c.484 0 1.863.915 3.063 2.033C61.774 177.731 79.653 184 86.23 184c1.523 0 2.77.45 2.77 1 0 .606 4.333 1 11 1s11-.394 11-1c0-.55 1.247-1 2.77-1 6.577 0 24.456-6.269 28.425-9.967 1.2-1.118 2.579-2.033 3.063-2.033 4.311 0 26.742-22.417 26.742-26.725 0-.494.945-1.912 2.1-3.152 3.692-3.963 9.9-22.577 9.9-29.685 0-1.341.45-2.438 1-2.438.6 0 1-4 1-10s-.4-10-1-10c-.55 0-1-1.097-1-2.438 0-7.108-6.208-25.722-9.9-29.685-1.155-1.24-2.1-2.658-2.1-3.152 0-4.195-22.472-26.72-26.663-26.726-.461-.001-2.155-1.135-3.767-2.521-3.348-2.88-19.513-8.308-27.32-9.175-2.888-.321-5.25-.97-5.25-1.443s-4.05-.86-9-.86-9 .387-9 .86m-7.924 7.692c-3.533.766-6.683 1.786-7 2.267s-1.926 1.198-3.576 1.594c-9.496 2.283-21.729 10.333-30.449 20.038-1.953 2.173-4.451 4.899-5.551 6.057-2.45 2.58-6.635 10.36-9.007 16.742-.97 2.612-2.083 4.75-2.472 4.75s-1.515 4.291-2.502 9.536c-2.793 14.839-1.022 39.096 3.162 43.285.725.727 1.319 1.805 1.319 2.395s1.581 4.362 3.514 8.38c3.559 7.4 8.368 13.509 16.417 20.858 2.438 2.225 5.167 4.721 6.066 5.546 2.63 2.414 8.505 5.579 16.003 8.62 2.475 1.004 4.726 2.133 5.002 2.511C75.15 176.698 90.619 179 100 179c9.605 0 24.927-2.324 25.998-3.943.276-.418 3.161-1.747 6.412-2.954s7.145-3.074 8.654-4.149S144.048 166 144.34 166c.858 0 9.726-8.125 14.114-12.931 2.225-2.438 4.721-5.167 5.546-6.066 2.414-2.63 5.579-8.505 8.62-16.003 1.004-2.475 2.139-4.73 2.523-5.01.385-.281 1.467-4.301 2.406-8.934 2.804-13.84.88-39.501-3.29-43.877-.692-.727-1.259-1.805-1.259-2.395 0-2.014-7.054-15.747-9.28-18.068-1.221-1.272-3.818-4.092-5.771-6.265-8.72-9.705-20.953-17.755-30.449-20.038-1.65-.396-3.255-1.108-3.568-1.581-1.138-1.725-14.683-3.796-24.432-3.735-5.5.034-12.891.689-16.424 1.455M91.5 26.66c-8.952 1.075-25.893 6.252-27.5 8.404-.275.369-3.093 2.322-6.262 4.342s-7.765 5.673-10.212 8.12-6.101 7.043-8.12 10.212c-2.02 3.169-3.994 5.987-4.388 6.262-1.569 1.095-5.952 13.974-7.44 21.86-2.088 11.066-1.99 18.304.409 30.077 1.784 8.755 5.235 18.734 6.938 20.063.352.275 2.201 2.975 4.107 6 4.423 7.017 11.951 14.545 18.968 18.968 3.025 1.906 5.725 3.706 6 3.999 1.773 1.89 11.475 5.3 20.229 7.111 12.226 2.53 23.936 2.194 36.01-1.032 7.362-1.967 14.68-4.828 15.761-6.163.275-.339 3.093-2.269 6.262-4.289a60.3 60.3 0 0 0 18.332-18.332c2.02-3.169 3.959-5.987 4.309-6.262 2.425-1.902 6.625-15.832 8.159-27.057 1.739-12.73.058-24.995-5.34-38.943-1.171-3.025-2.668-6.051-3.327-6.723-.66-.673-2.218-2.923-3.463-5-3.289-5.486-12.586-14.788-18.932-18.942-3.025-1.981-5.725-3.906-6-4.28-.571-.775-9.776-4.407-15-5.918-8.558-2.475-20.893-3.511-29.5-2.477M48 61.066a109 109 0 0 1 4.641 3.967C53.818 66.115 55.06 67 55.4 67s2.481 1.35 4.759 3c2.277 1.65 4.636 3.008 5.241 3.017.605.01 2.188 1.164 3.518 2.566s4.161 3.437 6.291 4.524 4.655 2.745 5.609 3.684c.955.94 4.648 3.508 8.209 5.706 8.504 5.251 13.41 5.434 20.153.752 2.574-1.787 5.049-3.257 5.5-3.266.451-.01 1.791-1.043 2.978-2.296s4.266-3.362 6.842-4.687 5.655-3.434 6.842-4.687 2.527-2.286 2.978-2.296 2.782-1.367 5.18-3.017 4.819-3 5.38-3c.562 0 1.38-.604 1.82-1.343.44-.738 2.037-2.14 3.55-3.115 1.512-.974 2.75-2.17 2.75-2.657s-4.838-.881-10.75-.875c-9.29.008-11.463.341-16 2.454-2.888 1.344-5.25 2.819-5.25 3.277s-2.876 2.487-6.392 4.509c-3.515 2.022-7.003 4.261-7.75 4.976s-2.57 2.075-4.051 3.023c-2.551 1.631-2.863 1.631-5.881-.013-1.753-.955-4.275-2.707-5.604-3.895-1.329-1.187-3.969-2.895-5.867-3.796s-4.683-2.778-6.187-4.173c-5.444-5.044-10.159-6.375-22.463-6.339l-11.305.034zm48.263 40.35c-1.764.596-4.618 2.323-6.342 3.838-1.725 1.515-4.641 3.469-6.481 4.342s-4.515 2.671-5.944 3.995S74.664 116 74.379 116s-2.481 1.35-4.879 3-4.741 3-5.207 3-2.307 1.333-4.092 2.963-4.697 3.665-6.473 4.523c-5.671 2.739-8.376 5.258-7.061 6.577 1.419 1.424 22.072.896 23.136-.592.383-.536 2.047-1.635 3.697-2.442s4.881-2.719 7.18-4.248S85.094 126 85.379 126s1.642-1.042 3.016-2.315c1.375-1.274 4.494-3.342 6.933-4.597l4.435-2.28 5.868 3.206c3.228 1.764 6.369 3.832 6.979 4.596s1.397 1.39 1.748 1.39 2.83 1.575 5.509 3.5 5.348 3.5 5.931 3.5 1.846.787 2.808 1.748c1.41 1.411 3.958 1.819 13.166 2.111 10.692.34 11.395.245 11.059-1.496-.196-1.022-2.827-3.318-5.844-5.101-3.018-1.784-6.387-4.065-7.487-5.07s-4.925-3.597-8.5-5.76-7.62-4.944-8.989-6.182c-1.37-1.237-3.947-2.941-5.729-3.786-1.781-.846-4.654-2.83-6.385-4.411-4.006-3.659-9.351-5.085-13.634-3.637M76 142c0 1.797.667 2 6.573 2 5.721 0 6.53.227 6.241 1.75-.266 1.396-1.686 1.851-7.026 2.25-3.681.275-7.199 1.008-7.819 1.629s-1.376 2.983-1.68 5.25L71.737 159h10.024c8.219 0 10.134-.285 10.632-1.582 1.181-3.077.534-3.418-6.476-3.418-5.221 0-6.975-.329-6.671-1.25.262-.791 2.859-1.358 7.076-1.546 6.129-.271 6.712-.492 7.279-2.75.339-1.349 1.017-2.454 1.507-2.454 1.416 0 1.041-1.804-.83-3.989-1.468-1.714-2.944-2.011-10-2.011-7.611 0-8.278.161-8.278 2m32.266-.787c-.572.708-1.355 3.199-1.741 5.537-.385 2.338-1.111 4.25-1.613 4.25-1.628 0-.963 5.241.838 6.608 2.303 1.748 16.14 1.792 18.42.059 2.262-1.721 4.623-13.185 3.185-15.471-1.389-2.209-17.431-3.035-19.089-.983m3.187 7.25c-.504 3.361-.289 4.844.868 6 3.665 3.666 8.679-.156 8.679-6.616V144h-8.877zM96.755 156.5c-.419 2.196-.129 2.5 2.384 2.5 2.385 0 2.861-.416 2.861-2.5 0-1.967-.508-2.5-2.383-2.5-1.749 0-2.511.666-2.862 2.5"/><path fill-opacity=".254" fill-rule="evenodd" d="M81.105 17.546c-8.621 1.87-18.843 5.334-20.433 6.925-.713.713-3.069 2.206-5.235 3.316-8.713 4.467-23.602 19.382-27.636 27.686-1.21 2.49-2.528 4.527-2.928 4.527-2.114 0-7.803 19.7-8.592 29.75-.313 3.987-.955 7.25-1.425 7.25S14 98.35 14 100s.45 3 1 3 1 2.044 1 4.542c0 8.864 5.875 30.404 8.839 32.405.45.304 2.114 2.957 3.699 5.895s3.911 6.152 5.171 7.144c1.26.991 2.291 2.208 2.291 2.705 0 1.113 7.274 8.309 8.398 8.309.448 0 1.625 1.031 2.616 2.291s4.206 3.587 7.144 5.171 5.591 3.249 5.895 3.699C61.857 177.833 83.421 184 90.958 184c1.673 0 3.042.45 3.042 1 0 .556 2.667 1 6 1s6-.444 6-1c0-.55 1.369-1 3.042-1 7.537 0 29.101-6.167 30.905-8.839.304-.45 2.957-2.114 5.895-3.699s6.152-3.911 7.144-5.171c.991-1.26 2.208-2.291 2.705-2.291 1.113 0 8.309-7.274 8.309-8.398 0-.448 1.06-1.648 2.356-2.668 1.296-1.019 3.659-4.345 5.25-7.391s3.199-5.539 3.572-5.541c.775-.002 4.334-9.096 6.459-16.502 2.033-7.087 2.908-30.549 1.451-38.914-1.683-9.664-5.719-21.855-8.169-24.674-1.152-1.327-2.674-3.762-3.382-5.412-2.798-6.527-19.51-23.239-26.037-26.037-1.65-.708-4.056-2.204-5.346-3.325-8.377-7.28-41.095-11.487-59.049-7.592m10.368 3.49C82.484 21.958 73 24.075 73 25.159c0 .463-.463.841-1.028.841-2.089 0-15.611 6.959-18.493 9.518-1.638 1.455-4.667 3.793-6.73 5.197s-4.63 3.954-5.704 5.669-3.001 4.241-4.282 5.616c-3.116 3.345-6.063 8.338-8.854 15-1.267 3.025-2.624 5.726-3.015 6.002-1.688 1.193-4.137 17.174-4.137 26.998s2.449 25.805 4.137 26.998c.391.276 1.748 2.977 3.015 6.002 2.471 5.899 5.742 11.705 7.765 13.783.687.706 2.661 3.249 4.386 5.651 1.726 2.403 5.005 5.717 7.289 7.365s5.263 3.97 6.623 5.159c2.52 2.204 16.133 9.042 18 9.042.565 0 1.028.357 1.028.793 0 1.166 7.473 2.964 17.86 4.296 6.988.897 11.292.897 18.28 0 10.387-1.332 17.86-3.13 17.86-4.296 0-.436.463-.793 1.028-.793 1.867 0 15.48-6.838 18-9.042 1.36-1.189 4.34-3.51 6.623-5.159 2.284-1.648 5.5-4.864 7.148-7.148 1.649-2.283 3.97-5.263 5.159-6.623 2.204-2.52 9.042-16.133 9.042-18 0-.565.365-1.028.811-1.028 2.24 0 5.644-22.802 4.777-32-.826-8.758-3.674-22-4.733-22-.47 0-.855-.463-.855-1.028 0-2.089-6.959-15.611-9.518-18.493-1.455-1.638-3.793-4.667-5.197-6.73s-3.954-4.63-5.669-5.704-4.241-3.001-5.616-4.282c-3.345-3.116-8.338-6.063-15-8.854-3.025-1.267-5.73-2.629-6.01-3.027-.697-.989-15.132-3.658-22.49-4.159-3.3-.225-9.162-.084-13.027.313M87 27.628c-9.239 1.77-21 5.984-21 7.524 0 .466-.607.848-1.35.848-.742 0-3.214 1.35-5.491 3-2.278 1.65-4.371 3-4.65 3-.28 0-3.321 2.81-6.759 6.244-5.89 5.885-8.093 8.844-10.986 14.756-.673 1.375-1.503 2.725-1.844 3-1.168.941-2.955 4.934-5.019 11.217-2.904 8.837-3.686 29.474-1.507 39.736 1.538 7.24 5.372 18.013 6.787 19.069.895.668 5.819 7.908 5.819 8.557C41 145.219 54.781 159 55.421 159c.649 0 7.889 4.924 8.557 5.819 1.056 1.415 11.829 5.249 19.069 6.787 10.11 2.147 30.917 1.395 39.453-1.425 7.785-2.572 11.5-4.298 11.5-5.342 0-.461.607-.839 1.35-.839.742 0 3.214-1.35 5.491-3 2.278-1.65 4.371-3 4.65-3 .665 0 12.509-11.844 12.509-12.509 0-.279 1.35-2.372 3-4.65 1.65-2.277 3-4.749 3-5.491 0-.743.382-1.35.848-1.35 1.068 0 3.553-5.717 5.868-13.5 1.382-4.647 1.771-9.383 1.727-21-.052-13.563-.319-15.786-2.781-23.209-1.498-4.515-3.384-8.871-4.193-9.679S164 64.838 164 64.466s-1.35-2.676-3-5.121-3-4.648-3-4.895c0-.588-11.862-12.45-12.45-12.45-.247 0-2.45-1.35-4.895-3s-4.749-3-5.121-3-1.338-.661-2.146-1.469c-.808-.809-5.164-2.665-9.679-4.125-6.819-2.206-10.41-2.706-21.209-2.956-7.15-.165-14.125-.085-15.5.178M46.454 59.074c-.514.833.046 1.842 1.588 2.857 1.311.863 3.063 2.356 3.893 3.319S53.826 67 54.292 67s2.81 1.35 5.208 3 4.729 3.008 5.18 3.017c.451.01 1.791 1.043 2.978 2.296S71.924 78.675 74.5 80s5.655 3.434 6.842 4.687 2.527 2.286 2.978 2.296 2.926 1.48 5.5 3.267c3.896 2.705 5.602 3.25 10.18 3.25 4.704 0 6.296-.541 11-3.737 3.025-2.055 6.175-4.368 7-5.141s3.975-2.838 7-4.59 5.95-3.723 6.5-4.38 4.371-3.21 8.491-5.673 8.232-5.216 9.137-6.116c.906-.901 2.485-2.11 3.509-2.688 1.419-.8 1.586-1.33.699-2.226-.801-.81-4.537-1.051-12-.775-9.471.351-11.429.738-15.541 3.069-2.588 1.467-5.585 3.547-6.661 4.623-1.075 1.075-3.549 2.712-5.497 3.636-1.949.925-4.624 2.683-5.946 3.909-3.985 3.693-8.056 4.977-10.832 3.415-1.298-.729-2.594-1.636-2.881-2.016-.839-1.109-7.993-5.81-8.842-5.81-.427 0-2.319-1.378-4.206-3.063-6.126-5.471-11.314-7.203-23.055-7.7-7.979-.338-10.824-.129-11.421.837m48.003 42.33c-1.674.729-3.848 2.13-4.832 3.114C87.898 106.245 76.36 114 75.518 114c-.228 0-1.584 1.084-3.014 2.409s-4.143 3.141-6.03 4.036c-1.887.896-4.891 2.962-6.675 4.592-1.785 1.63-3.626 2.963-4.092 2.963-1.837 0-9.707 6.188-9.707 7.632 0 2.396 22.917 1.601 25.396-.882.961-.963 2.196-1.75 2.745-1.75s2.961-1.35 5.359-3 4.729-3.008 5.18-3.017c.451-.01 1.776-1.022 2.945-2.25s4.42-3.466 7.224-4.973l5.098-2.739 5.277 3.066c2.902 1.687 5.726 3.604 6.276 4.261s4.375 3.196 8.5 5.642 7.82 4.912 8.212 5.479c1.019 1.477 23.709 2.01 25.129.59 1.257-1.257-2.557-4.867-7.896-7.475-1.679-.821-4.268-2.617-5.751-3.992s-4.251-3.237-6.149-4.137c-1.898-.901-4.62-2.722-6.049-4.046S124.664 114 124.379 114s-2.481-1.35-4.879-3-4.741-3-5.207-3-2.366-1.387-4.222-3.083c-5.507-5.029-9.877-6.012-15.614-3.513M75.25 140.662c-.687.278-1.25 1.142-1.25 1.921 0 1.097 1.696 1.417 7.5 1.417 6 0 7.5.3 7.5 1.5 0 1.149-1.271 1.5-5.435 1.5-7.691 0-10.242 1.199-11.047 5.19-.367 1.821-.889 4.097-1.16 5.06-.448 1.591.513 1.75 10.575 1.75H93v-2.5c0-2.429-.2-2.5-7-2.5-4 0-7-.429-7-1 0-.555 2.649-1 5.948-1 4.869 0 6.412-.429 8.5-2.365 2.96-2.743 3.31-6.339.802-8.243-1.712-1.299-16.208-1.856-19-.73m31.785 1.272c-.569 1.064-1.035 3.089-1.035 4.5s-.45 2.566-1 2.566c-1.742 0-1.202 8.708.582 9.393 2.39.917 17.727.698 19.262-.276 1.999-1.266 4.41-13.775 3.12-16.185-.91-1.7-2.168-1.932-10.464-1.932-8.299 0-9.554.232-10.465 1.934m4.959 6.089c-1.351 5.016-.773 5.977 3.59 5.977 2.848 0 3.649-.483 4.496-2.711.567-1.491.772-3.741.456-5-.459-1.831-1.263-2.289-4.017-2.289-3.173 0-3.527.315-4.525 4.023M96 156.5c0 2.111.467 2.5 3 2.5 1.65 0 3-.413 3-.918s.273-1.63.607-2.5c.484-1.262-.122-1.582-3-1.582-3.181 0-3.607.295-3.607 2.5"/><path fill-opacity=".133" fill-rule="evenodd" d="M83.053 17.528C75.178 18.953 61 23.707 61 24.923c0 .396-2.362 1.788-5.25 3.092-6.981 3.154-24.366 20.434-27.652 27.485-1.281 2.75-2.664 5.225-3.072 5.5-1.401.944-5.097 10.417-6.811 17.456-2.554 10.489-2.248 35.521.551 45.044 3.137 10.672 5.379 16.5 6.347 16.5.482 0 1.867 2.137 3.078 4.75 2.618 5.648 20.549 24.032 25.841 26.494 1.942.903 4.556 2.532 5.809 3.618 2.894 2.51 16.141 6.805 25.474 8.26 9.949 1.55 29.432.564 38.185-1.933 10.282-2.933 16.5-5.308 16.5-6.302 0-.482 2.137-1.875 4.75-3.096 6.456-3.016 24.068-20.678 27.109-27.185 1.258-2.692 2.856-5.464 3.551-6.159 1.896-1.896 6.453-16.44 7.569-24.157 1.412-9.766 1.243-20.756-.47-30.577-1.48-8.487-6.123-22.713-7.414-22.713-.37 0-2.005-2.587-3.634-5.75-3.947-7.665-19.046-22.764-26.711-26.711-3.163-1.629-5.75-3.264-5.75-3.634s-3.187-1.855-7.082-3.298c-14.406-5.34-33.218-6.91-48.865-4.079M89 20.595c-8.063 1.458-17 3.811-17 4.477 0 .425-1.687 1.311-3.75 1.969s-5.894 2.494-8.515 4.078S54.824 34 54.645 34c-.747 0-9.358 7.798-12.618 11.427-1.94 2.16-4.54 4.993-5.777 6.295C35.013 53.025 34 54.289 34 54.53c0 .242-1.296 2.584-2.881 5.205s-3.419 6.453-4.078 8.515c-.658 2.063-1.544 3.75-1.969 3.75-2.057 0-4.571 15.842-4.523 28.5.046 12.181 2.247 25.923 4.405 27.5.376.275 1.47 2.525 2.43 5s2.842 6.178 4.181 8.229S34 145.155 34 145.397c0 1.165 9.214 10.972 16.049 17.082 4.242 3.792 18.055 11.469 20.701 11.504.688.009 1.25.38 1.25.824s3.263 1.682 7.25 2.75c5.485 1.47 10.537 1.943 20.75 1.943s15.265-.473 20.75-1.943c3.987-1.068 7.25-2.306 7.25-2.75s.515-.807 1.145-.807c2.748 0 16.458-7.537 20.622-11.337 11.78-10.747 16.671-16.65 20.646-24.916 1.973-4.101 3.587-7.935 3.587-8.519s.465-1.216 1.033-1.406c4.287-1.429 6.052-35.405 2.524-48.572-1.068-3.987-2.306-7.25-2.75-7.25s-.815-.562-.824-1.25-1.706-4.625-3.77-8.75c-4.314-8.618-9.421-14.788-20.262-24.479-4.242-3.792-18.055-11.469-20.701-11.504-.687-.009-1.25-.393-1.25-.853 0-2.633-30.164-6.166-39-4.569m-3 7.771c-10.365 2.039-19 5.123-19 6.786 0 .466-.562.848-1.25.849-2.22.001-13.121 7.396-17.708 12.012C43.578 52.506 36 63.217 36 65.034c0 .531-.418.966-.928.966-1.377 0-4.74 9.662-6.659 19.135-2.352 11.605-1.518 27.389 2.038 38.574 1.436 4.515 3.271 8.871 4.08 9.679.808.808 1.469 1.774 1.469 2.146s1.35 2.676 3 5.121 3 4.648 3 4.895c0 .588 11.862 12.45 12.45 12.45.247 0 2.45 1.35 4.895 3s4.749 3 5.121 3 1.338.661 2.146 1.469c.808.809 5.164 2.641 9.679 4.074 9.987 3.167 25.989 4.31 35.982 2.57 7.517-1.309 19.825-5.247 21.876-7 .743-.635 4.051-2.872 7.351-4.971s7.985-5.803 10.412-8.23c4.785-4.784 12.088-15.398 12.088-17.567 0-.74.378-1.345.839-1.345 2.184 0 5.673-11.343 7.289-23.691.953-7.288.962-11.335.041-18.255-1.352-10.154-4.527-21.269-6.695-23.437-.811-.811-1.474-1.804-1.474-2.208 0-1.967-7.039-11.569-12.44-16.969C145.667 42.546 136.512 36 134.162 36c-.639 0-1.162-.382-1.162-.848 0-1.255-6.607-3.929-14-5.667-9.057-2.128-25.105-2.673-33-1.119m-40 30.86c0 1.302 7.934 8.77 9.32 8.773.451 0 2.782 1.351 5.18 3.001s4.594 3 4.879 3 1.687 1.084 3.117 2.409 4.143 3.141 6.03 4.036c1.887.896 4.891 2.962 6.675 4.592C82.986 86.667 84.827 88 85.293 88s2.809 1.35 5.207 3 4.842 3 5.43 3 1.07.45 1.07 1 1.125 1 2.5 1 2.5-.45 2.5-1 .734-1 1.631-1c.896 0 3.822-1.575 6.502-3.5s5.254-3.5 5.721-3.5 2.214-1.304 3.882-2.898 4.664-3.672 6.657-4.618 4.633-2.784 5.866-4.085c1.232-1.3 2.61-2.372 3.061-2.382.451-.009 2.782-1.367 5.18-3.017s4.742-3 5.208-3 1.527-.787 2.357-1.75 2.582-2.456 3.893-3.319c4.304-2.834 1.682-3.931-9.393-3.931-8.812 0-11.135.362-15.934 2.484-3.089 1.367-6.601 3.617-7.804 5S116.3 68 115.886 68c-1.065 0-10.999 6.151-13.325 8.25-2.466 2.226-3.114 2.197-5.561-.25-1.1-1.1-2.256-2-2.57-2-.313 0-2.532-1.35-4.93-3s-4.729-3-5.18-3.001-2.477-1.475-4.502-3.278c-5.638-5.017-11.645-6.732-23.568-6.726-7.422.004-10.25.343-10.25 1.231m47.5 42.323c-1.65.846-3.45 2.118-4 2.828s-4.15 3.264-8 5.676-7.611 4.978-8.358 5.703-4.235 2.972-7.75 4.994c-3.516 2.022-6.392 3.971-6.392 4.331s-2.945 2.378-6.544 4.482c-5.093 2.979-6.479 4.283-6.25 5.882.249 1.741 1.135 2.105 5.794 2.38 7.456.441 17.741-.721 19.259-2.175.683-.654 4.616-3.196 8.741-5.648 4.125-2.453 7.95-4.997 8.5-5.654s3.28-2.519 6.066-4.137l5.067-2.942 4.842 2.717c2.664 1.495 5.848 3.685 7.075 4.866s2.537 2.148 2.911 2.148c.373 0 2.56 1.274 4.859 2.832s4.967 3.118 5.93 3.468 1.75 1.069 1.75 1.597c0 1.657 10.163 3.265 18.5 2.927 7.184-.291 8.03-.534 8.294-2.379.229-1.599-1.157-2.903-6.25-5.882-3.599-2.104-6.544-4.121-6.544-4.482s-2.876-2.309-6.392-4.331c-3.515-2.022-7.015-4.3-7.778-5.062s-4.636-3.325-8.608-5.694c-3.972-2.37-7.222-4.605-7.222-4.967s-1.749-1.642-3.886-2.843c-4.553-2.559-9.416-2.786-13.614-.635m-18.25 38.113c-.687.278-1.25 1.367-1.25 2.421 0 1.707.768 1.917 7 1.917 5.556 0 7 .31 7 1.5 0 1.164-1.321 1.5-5.889 1.5-7.442 0-9.684 1.748-10.579 8.25l-.655 4.75h10.586c10.444 0 10.6-.035 11.562-2.565.536-1.411.975-2.761.975-3S90.85 154 87 154c-4 0-7-.429-7-1 0-.55 2.588-1.015 5.75-1.033 7.228-.042 10.25-2.188 10.25-7.279 0-3.018-.428-3.641-3.149-4.59-3.14-1.095-15.227-1.394-17.601-.436m33 .83c-1.277.921-2.25 2.678-2.25 4.065 0 1.344-.42 2.443-.934 2.443-.513 0-1.076 1.238-1.25 2.75-.264 2.298-.891 2.832-3.816 3.25-2.68.383-3.575 1.027-3.82 2.75-.175 1.238-.85 2.257-1.5 2.265-2.469.032 1.926 1.955 4.503 1.97 1.867.01 2.888-.633 3.359-2.117.372-1.173.965-1.69 1.317-1.15 2.23 3.42 14.792 4.548 20.096 1.805 2.491-1.288 3.016-2.378 4.118-8.545 1.137-6.361 1.094-7.24-.434-8.768-2.462-2.461-16.26-2.972-19.389-.718m5.081 4.917c-.643.733-1.318 2.853-1.5 4.712-.326 3.325-.268 3.379 3.628 3.379 3.702 0 4.004-.221 4.657-3.411.383-1.877.466-4.014.184-4.75-.659-1.718-5.443-1.67-6.969.07"/><path fill-opacity=".112" fill-rule="evenodd" d="M97.75 16.706c1.237.238 3.263.238 4.5 0 1.237-.239.225-.434-2.25-.434s-3.487.195-2.25.434m-10.5.983c.963.252 2.537.252 3.5 0 .963-.251.175-.457-1.75-.457s-2.713.206-1.75.457m22 0c.963.252 2.537.252 3.5 0 .963-.251.175-.457-1.75-.457s-2.713.206-1.75.457m-28.5.973c.688.278 1.813.278 2.5 0 .688-.277.125-.504-1.25-.504s-1.937.227-1.25.504M69.256 21.5c-3.984 1.326-8.226 3.326-9.426 4.444s-3.116 2.316-4.256 2.661C52.668 29.484 47 33.872 47 35.242c0 .627.605.313 1.344-.697 1.298-1.775 1.339-1.773 1.204.059-.147 1.99-1.161 2.482-3.372 1.633C44.85 35.729 36 43.623 36 45.314c0 .494-1.03 1.709-2.289 2.699s-3.563 4.318-5.12 7.394S25.425 61 25.015 61c-.908 0-5.365 12.428-7.172 20-1.7 7.122-1.71 30.817-.016 38 1.73 7.335 6.203 20 7.063 20 .378 0 2.02 2.579 3.649 5.732 3.931 7.608 19.201 23.067 26.272 26.596 2.92 1.458 5.917 3.257 6.658 3.999 2.232 2.231 16.446 6.454 26.034 7.734 14.823 1.978 32.731-.029 45.635-5.116 2.778-1.094 5.739-2.679 6.581-3.521s3.431-2.424 5.753-3.516C149.532 169 164 156.615 164 155.048c0-.419-2.363 1.478-5.25 4.216-8.422 7.986-8.954 8.396-15.25 11.761-3.3 1.764-6.225 3.558-6.5 3.988-.676 1.057-14.971 5.35-15.627 4.693-.287-.287 1.987-1.25 5.053-2.141 3.066-.892 5.574-2.014 5.574-2.495s1.35-1.345 3-1.92 3-1.267 3-1.537c0-.271-2.025.198-4.5 1.042-2.475.843-4.5 1.892-4.5 2.331s-3.263 1.635-7.25 2.656c-14.854 3.806-46.409 1.842-51.453-3.202-.79-.791-2.643-1.735-4.117-2.098-1.474-.364-4.359-1.715-6.41-3.002S55.766 167 55.431 167s-2.321-1.622-4.412-3.604c-2.092-1.983-4.856-4.129-6.142-4.77s-2.862-2.217-3.503-3.503-2.717-3.977-4.614-5.98-5.168-7.243-7.27-11.643-4.156-8.226-4.564-8.502c-.409-.277-1.556-3.427-2.549-7-2.561-9.217-2.561-34.779 0-43.996.993-3.573 2.14-6.723 2.549-7 .408-.276 2.431-4.036 4.495-8.354 4.046-8.467 10.312-16.15 19.94-24.452 2.107-1.817 3.94-4.043 4.073-4.946.132-.903.876-1.813 1.653-2.022 1.105-.297 1.086-.149-.087.681-2.966 2.097.296 1.024 7.828-2.575 4.22-2.016 7.902-4.006 8.183-4.422s2.98-1.425 6-2.243 4.783-1.528 3.921-1.578C78.433 20.946 69 23.99 69 24.941c0 .475-1.463 1.398-3.25 2.05-8.782 3.208-11.35 3.392-5.5.395 1.788-.916 3.485-2.025 3.772-2.466.287-.44 3.887-1.924 8-3.298 4.113-1.373 6.803-2.505 5.978-2.515s-4.76 1.067-8.744 2.393m24.994-1.765c2.612.206 6.888.206 9.5 0s.475-.375-4.75-.375-7.362.169-4.75.375m-9.981.958c.973.254 2.323.237 3-.037s-.119-.481-1.769-.461-2.204.244-1.231.498m28.481-.031c.688.278 1.813.278 2.5 0 .688-.277.125-.504-1.25-.504s-1.937.227-1.25.504m-23 8.044c1.237.238 3.263.238 4.5 0 1.237-.239.225-.434-2.25-.434s-3.487.195-2.25.434m16 0c1.237.238 3.263.238 4.5 0 1.237-.239.225-.434-2.25-.434s-3.487.195-2.25.434m-22.481.987c.973.254 2.323.237 3-.037s-.119-.481-1.769-.461-2.204.244-1.231.498m-10.14 2.227c-2.955 1.02-5.657 2.243-6.007 2.717s-2.432 1.829-4.628 3.01-3.994 2.605-3.994 3.166-.41 1.395-.91 1.854c-.529.484-.609.309-.191-.417.395-.687.343-1.25-.117-1.25-1.516 0-5.283 3.089-5.252 4.307.017.656.489.405 1.05-.557S54.559 43 55.121 43c1.465 0-2.115 3.382-3.849 3.636-1.747.257-5.272 3.317-5.272 4.578 0 .497.563.593 1.25.214.688-.38.125.435-1.25 1.81s-2.724 2.299-2.998 2.05c-.275-.248.374-1.09 1.441-1.87 1.066-.78 1.414-1.418.772-1.418-1.292 0-9.161 11.768-9.194 13.75-.012.688-.403 1.25-.869 1.25-2.337 0-6.599 15.204-7.758 27.673-.648 6.965.678 20.283 2.72 27.327 1.6 5.519 4.11 11 5.038 11 .466 0 .848.605.848 1.345 0 2.169 7.303 12.783 12.088 17.567S63.486 164 65.655 164c.74 0 1.345.378 1.345.839 0 2.169 11.333 5.672 23.501 7.264 7.059.924 11.275.931 18.286.032 10.279-1.319 21.39-4.455 23.596-6.661.811-.811 1.804-1.474 2.208-1.474 2.896 0 23.409-17.214 23.409-19.644 0-.333-2.897 2.319-6.437 5.894-6.224 6.286-13.832 11.749-18.368 13.188-1.207.383-2.195 1.082-2.195 1.552 0 1.08-6.926 3.417-7.734 2.61-.329-.33.151-.6 1.067-.6.917 0 1.667-.675 1.667-1.5s-.398-1.5-.883-1.5c-.486 0-1.119-.9-1.407-2-.475-1.816.553-2.478 3.373-2.174.321.035.64-.475.709-1.132s.575-3.219 1.123-5.694c2.878-12.979.969-15.241-12.587-14.915-4.855.117-8.828-.183-8.828-.667 0-.483 1.984-.736 4.409-.56 4.108.296 4.296.204 2.75-1.341-2.153-2.154-2.114-4.251.091-4.828 1.101-.287.752-.5-.941-.573-2.824-.122-4.491-1.576-2.92-2.547 1.119-.692 8.497 3.135 11.618 6.026 4.373 4.051 9.799 5.418 20.763 5.23l10.23-.175-11.5-.642c-11.386-.635-15-1.385-15-3.115 0-.491-.481-.893-1.07-.893-.588 0-3.032-1.35-5.43-3s-4.78-3-5.294-3-2.007-1.072-3.32-2.383c-3.425-3.42-11.785-7.87-13.529-7.201-.816.314-1.253.944-.97 1.401s-.469.798-1.67.757c-1.2-.041-2.191.451-2.2 1.093s-.427 1.541-.927 2c-.538.492-.583.268-.111-.547.548-.946.363-1.228-.59-.896-.764.266-1.265 1.19-1.112 2.054s-.181 1.853-.739 2.199c-.597.368-.77-.013-.42-.925.328-.854.098-1.552-.511-1.552-1.003 0-1.517 1.336-1.237 3.214.058.393-.524.472-1.293.177-1.617-.62-9.785 4.463-9.059 5.638.267.431-.41.55-1.504.264-1.256-.328-2.215.068-2.601 1.074-.895 2.331-6.762 3.623-16.413 3.614-9.446-.009-13.009-.653-12.982-2.348.018-1.148 9.223-7.633 10.834-7.633.481 0 1.949-1.071 3.262-2.379s4.411-3.533 6.886-4.943 4.393-3.023 4.262-3.585.428-.766 1.242-.453c.838.321 1.746-.128 2.095-1.036.338-.882 1.041-1.604 1.561-1.604 1.262 0 8.317-4.824 8.426-5.762.229-1.956 1.754-4.238 2.831-4.238.662 0 2.574-1.34 4.249-2.978 1.675-1.637 3.333-2.69 3.684-2.338.352.351-.933 1.707-2.855 3.013S87 104.453 87 104.919s-1.013 1.156-2.25 1.532c-1.623.493-1.852.844-.824 1.258.784.316 2.134-.286 3-1.339 6.702-8.149 16.188-8.72 24.145-1.453 1.856 1.696 3.756 3.083 4.222 3.083s2.809 1.35 5.207 3 4.68 3 5.07 3 1.346.787 2.125 1.75c1.277 1.579 1.309 1.531.325-.5-.6-1.237-1.556-2.25-2.125-2.25s-2.997-1.35-5.395-3-4.729-3.012-5.18-3.028c-.451-.015-2.107-1.34-3.68-2.943-3.228-3.291-10.491-6.142-13.585-5.333-1.13.295-2.055.087-2.055-.463s-.9-1.235-2-1.523-1.993-1.127-1.985-1.866c.012-1.018.245-.981.964.156 1.568 2.48 10.95 2.005 14.021-.71a213 213 0 0 1 4.5-3.859c1.843-1.521 1.804-1.52-.5.004-1.375.91-3.737 2.183-5.25 2.829S103 94.79 103 95.219c0 1.038-6.739 1.01-7.167-.03C95.439 94.231 83.818 87 82.671 87c-.434 0-.468.52-.076 1.155.446.721.274.882-.457.43-.644-.398-.968-1.051-.72-1.452.247-.401.142-1.218-.234-1.816-1.145-1.822-11.26-7.388-12.279-6.758-.525.324-.831.05-.68-.61.151-.659-.35-1.426-1.114-1.704-.844-.306-1.118-.066-.698.614.447.724.115.897-.945.49-1.311-.503-1.371-.798-.302-1.488 1.092-.705 1.062-1.041-.166-1.85-.825-.545-2.057-.786-2.738-.536-.681.249-1.131-.066-1-.7.131-.635-1.787-2.306-4.262-3.714-2.475-1.409-5.803-3.798-7.396-5.311S46.099 61 45.354 61c-1.863 0-1.706-1.651.228-2.393.87-.334 6.382-.603 12.25-.597 9.172.008 11.396.349 15.862 2.428 2.857 1.33 6.2 3.576 7.43 4.99S83.723 68 84.165 68c.812 0 10.906 5.928 11.835 6.95.275.302 1.36 1.225 2.411 2.05 1.788 1.404 1.83 1.372.649-.5-.694-1.1-3.901-3.53-7.127-5.399s-5.646-3.756-5.377-4.191c.55-.891-3.429-4.91-4.861-4.91-.511 0-.693-.9-.405-2s.145-2-.316-2c-.966 0-2.393-3.915-1.684-4.623.259-.26 1.2.256 2.091 1.147 1.341 1.341 1.619 1.369 1.619.164 0-.8-.945-1.702-2.101-2.004s-1.804-1.029-1.441-1.617C79.821 50.48 79.615 50 79 50s-.838-.453-.496-1.007c.343-.554-.081-1.277-.941-1.607-.859-.33-1.563-1.189-1.563-1.91s-.562-1.536-1.25-1.814c-1-.403-1-.52 0-.583.688-.043 1.25-.577 1.25-1.186 0-.612-.728-.828-1.629-.482-1.362.523-1.526.113-1.001-2.509.571-2.857.428-3.091-1.622-2.642-1.236.27-3.976 1.246-6.089 2.167-2.112.922-3.548 1.203-3.191.624.358-.578 1.214-1.051 1.902-1.051.689 0 2.283-.96 3.542-2.132s4.831-2.932 7.938-3.909c3.108-.977 4.975-1.803 4.15-1.835s-3.917.776-6.871 1.796M68 43c0 .55.45 1 1 1s1 .661 1 1.469c0 .939-.631 1.272-1.75.924-1.495-.465-1.478-.37.12.648 1.513.965 1.609 1.358.5 2.061-1.077.682-.996.871.38.883 1.805.015 2.377-3.187 1.143-6.403C69.724 41.837 68 41.418 68 43m78.564 1.293c.376.986.935 1.541 1.243 1.233s.001-1.114-.683-1.793c-.988-.98-1.102-.865-.56.56M73.16 51.25c-.088.962-.722 1.757-1.41 1.765-.895.011-.854.266.143.898.799.505 1.166 1.755.86 2.925-.405 1.547.106 2.273 2.106 2.993 1.453.522 4.185 2.349 6.071 4.059 1.887 1.711 3.886 3.11 4.443 3.11s-.516-1.237-2.385-2.75c-7.151-5.789-8.832-7.84-9.248-11.282-.231-1.907-.492-2.68-.58-1.718M154 52.393c0 .216.698.661 1.552.989.89.341 1.291.173.941-.393-.587-.951-2.493-1.406-2.493-.596m-89.917 3.963c.23.196 1.992.646 3.917.999 2.462.452 3.055.351 2-.341-1.356-.889-6.908-1.506-5.917-.658m68.667 1.306c.688.278 1.813.278 2.5 0 .688-.277.125-.504-1.25-.504s-1.937.227-1.25.504m-14.291 6.405c-.363.586-.445 1.281-.183 1.543s.743-.218 1.069-1.067c.676-1.762.1-2.072-.886-.476m-7.759 5.436c-3.19 1.923-6.212 3.497-6.715 3.497s-1.405 1.013-2.005 2.25c-.984 2.031-.952 2.079.325.5.779-.963 1.671-1.75 1.984-1.75.788 0 12.711-7.145 12.711-7.617 0-.645-.315-.49-6.3 3.12m12.507 12.165c-1.811.893-3.79 2.57-4.397 3.728-.866 1.649-.503 1.51 1.679-.646 1.531-1.513 3.371-2.75 4.088-2.75s1.583-.45 1.923-1c.801-1.296.618-1.259-3.293.668M75.5 83.208c1.1.631 2.564 1.854 3.252 2.719 1.112 1.396 1.183 1.372.633-.205-.341-.978-1.438-2.215-2.437-2.75-2.561-1.37-3.876-1.156-1.448.236M115 88c-.901.582-1.025.975-.309.985.655.008 1.469-.435 1.809-.985.767-1.242.421-1.242-1.5 0m-26.486 4.763c.183.955.367 2.075.409 2.487.135 1.319 1.843.803 2.433-.735.33-.86-.218-1.906-1.303-2.487-1.524-.815-1.81-.678-1.539.735M99 120c0 .55.799 1 1.776 1 1.47 0 1.711.691 1.395 4-.236 2.484.038 4 .724 4 .608 0 1.105-1.35 1.105-3 0-3.173 2.566-4.294 3.609-1.577.3.782 1.163 1.659 1.917 1.949 3.404 1.306-.07-2.273-4.559-4.697C99.452 118.696 99 118.569 99 120m34.733.124c.679.684 1.486.991 1.793.683.308-.308-.247-.867-1.233-1.243-1.425-.542-1.54-.428-.56.56m6.831 4.169c.376.986.935 1.541 1.243 1.233s.001-1.114-.683-1.793c-.988-.98-1.102-.865-.56.56m27.515.29c.048 1.165.285 1.402.604.605.289-.722.253-1.585-.079-1.917s-.568.258-.525 1.312m-24.346 2.541c.679.684 1.486.991 1.793.683.308-.308-.247-.867-1.233-1.243-1.425-.542-1.54-.428-.56.56M106 132.5c0 .825.436 1.5.969 1.5s.709-.675.393-1.5c-.317-.825-.753-1.5-.969-1.5s-.393.675-.393 1.5m57.658-.051q-.56 1.452.893.893c.797-.306 1.449-.958 1.449-1.449 0-1.438-1.735-1.026-2.342.556m-89.973 8.647c-1.047 4.005.136 4.803 7.656 5.163l7.159.344-7.301.198-7.301.199-1.449 3.468c-.797 1.907-1.449 4.832-1.449 6.5V160h10.883c10.441 0 10.908-.091 11.487-2.25 1.215-4.535.938-4.742-6.62-4.939l-7.25-.189 6-.337c3.3-.185 6.675-.636 7.5-1.003s2.138-.695 2.918-.729 1.602-.735 1.826-1.557c.361-1.323.282-1.322-.682.004-.822 1.131-.936.476-.462-2.665.589-3.902.435-4.266-2.436-5.75-2.086-1.079-5.757-1.585-11.498-1.585-7.721 0-8.479.177-8.981 2.096m33.97-.267c-.91 1.006-1.655 2.581-1.655 3.5s-.45 1.671-1 1.671-1 .863-1 1.918c0 3.825-1.14 5.082-4.607 5.082-2.726 0-3.393.393-3.393 2 0 1.1-.45 2-1 2s-1 .675-1 1.5c0 2.165 7.837 2.089 8.671-.084.488-1.272.769-1.322 1.432-.25 1.028 1.664 16.253 2.438 19.952 1.015 2.007-.772 2.813-2.095 3.75-6.159 1.78-7.707 1.549-11.762-.739-12.987-1.064-.569-5.494-1.035-9.845-1.035-6.394 0-8.228.351-9.566 1.829m58.909 4.878c-.542 1.425-.428 1.54.56.56.684-.679.991-1.486.683-1.793-.308-.308-.867.247-1.243 1.233m-51.802 1c1.244.239 3.044.23 4-.02s-.062-.446-2.262-.435-2.982.216-1.738.455m-2.626 3.603c-.129 2.656.07 2.794 3.614 2.5 3.09-.255 3.773-.709 3.883-2.575.111-1.885.057-1.927-.319-.25-.677 3.011-6.02 2.821-6.608-.235-.364-1.888-.456-1.798-.57.56m1.864-.81c0 .833.889 1.5 2 1.5s2-.667 2-1.5-.889-1.5-2-1.5-2 .667-2 1.5m48.405.75-1.905 2.25 2.5-1.989c1.375-1.094 2.688-2.107 2.917-2.25.229-.144-.039-.261-.595-.261-.557 0-1.869 1.012-2.917 2.25m3.734.783c-1.298 1.082-1.93 1.967-1.405 1.967.526 0 1.771-.9 2.766-2 2.287-2.527 1.695-2.513-1.361.033m-10.58 7.499c-1.068.807-1.46 1.468-.873 1.468.588 0 1.629-.675 2.314-1.5 1.557-1.876 1.067-1.866-1.441.032m-5.555 3.964c-1.29 1.373-2.156 2.664-1.925 2.868.232.205 1.468-.918 2.747-2.496 2.863-3.53 2.359-3.758-.822-.372m-34.754-.78c1.513.229 3.987.229 5.5 0s.275-.416-2.75-.416-4.263.187-2.75.416m3 1.973c1.896.496 2.429 2.311.679 2.311-.59 0-.397.675.428 1.5 2.108 2.108 2.356 1.908 1.856-1.5-.339-2.309-.932-2.973-2.576-2.884-1.691.092-1.771.212-.387.573m24.5 4.379c-2.062 1.089-3.75 2.203-3.75 2.476s1.8-.422 4-1.544 4-2.257 4-2.52c0-.654-.007-.652-4.25 1.588m-25.937 12.615c.721.289 1.584.253 1.916-.079s-.258-.568-1.312-.525c-1.165.048-1.402.285-.604.604m-8.063.979c.688.278 1.813.278 2.5 0 .688-.277.125-.504-1.25-.504s-1.937.227-1.25.504"/></svg>