<svg xmlns="http://www.w3.org/2000/svg" width="96" height="96" fill="#000000"><path fill-opacity=".306" fill-rule="evenodd" d="M33.798 1.931C18.361 6.867 6.558 18.826 1.842 34.313c-2.704 8.877-2.234 22.37 1.076 30.93 4.626 11.963 15.894 23.218 27.89 27.858 8.507 3.291 22.026 3.753 30.879 1.057 14.977-4.561 27.492-16.573 31.834-30.553.872-2.808 2.012-5.886 2.532-6.841 1.071-1.965 1.32-19.471.262-18.413-.376.377-1.446-1.777-2.377-4.785C89.342 18.71 77.164 6.606 62.145 1.964 53.962-.565 41.648-.579 33.798 1.931M.36 48c0 5.225.169 7.362.375 4.75s.206-6.888 0-9.5S.36 42.775.36 48m29.199-5.532c1.067.808 2.784 1.483 3.813 1.5 1.552.027 1.66-.225.628-1.468-.685-.825-2.401-1.5-3.814-1.5-2.473 0-2.496.055-.627 1.468M34.5 47c-4.794 4.845-5.536 6-3.855 6 1.161 0 4.906-2.633 8.468-5.956 5.784-5.393 6.148-5.96 3.856-6-1.8-.031-4.248 1.69-8.469 5.956m4.5 4.5c.685.825 2.37 1.5 3.745 1.5 2.109 0 2.305-.235 1.255-1.5-.685-.825-2.37-1.5-3.745-1.5-2.109 0-2.305.235-1.255 1.5m-7.333 5.167c-1.009 1.008-.798 3.333.302 3.333.532 0 .724-.636.426-1.413-.319-.83.209-1.606 1.282-1.884 1.381-.357 1.439-.499.24-.587-.871-.064-1.884.184-2.25.551m8.412 3.083c.043 2.063.306 3.188.583 2.5.278-.687 1.087-1.25 1.799-1.25s1.883-.709 2.602-1.576c1.084-1.307 1.063-1.732-.127-2.485-3.27-2.069-4.939-1.102-4.857 2.811m10.19-3.057c.973.254 2.323.237 3-.037.677-.274-.119-.481-1.769-.461-1.65.02-2.204.244-1.231.498m7.771.759c-1.528 1.841-.999 4.757.96 5.291 1.206.329 1.236.224.152-.537-2.069-1.451-.955-4.718 1.579-4.632 1.193.041 1.94-.297 1.66-.75-.797-1.29-3.026-.968-4.351.628M65 56.383c0 .91 3.898 1.296 5.139.51.925-.586.321-.867-1.889-.878-1.787-.008-3.25.158-3.25.368m11.73.26c-.286.471.108 1.437.875 2.146 1.546 1.429 1.842.464.505-1.646-.473-.746-1.094-.971-1.38-.5m7.27.107c0 .413 1.082.75 2.405.75 1.322 0 2.195-.337 1.94-.75-.254-.413-1.336-.75-2.404-.75-1.068 0-1.941.337-1.941.75M41 58.5c0 1.03.655 1.52 1.75 1.31 2.108-.406 1.975-2.181-.197-2.633-.906-.189-1.553.362-1.553 1.323m8.116 2.75c.082 1.594.246 1.758.561.561.246-.928 1.206-1.888 2.134-2.134 1.197-.315 1.033-.479-.561-.561-1.732-.089-2.223.402-2.134 2.134m25.508-.711c-.965 2.514-.681 3.163.498 1.136.584-1.004.851-2.036.593-2.293-.257-.258-.749.263-1.091 1.157m11.652-.689l-2.224.65 2.26 1.055c1.901.887 2.259.768 2.259-.75 0-.993-.016-1.76-.035-1.705-.02.055-1.037.392-2.26.75M34.638 61.5c.317.825.753 1.5.969 1.5.216 0 .393-.675.393-1.5s-.436-1.5-.969-1.5c-.532 0-.709.675-.393 1.5"/><path fill-opacity=".328" fill-rule="evenodd" d="M36.112 1.581C10.757 8.4-4.93 34.653 1.531 59.458c6.671 25.61 32.909 41.527 57.776 35.05 8.508-2.216 15.39-6.077 21.902-12.289 6.256-5.967 12.344-16.572 13.437-23.404.339-2.123 1.008-4.101 1.485-4.396.478-.295.869-3.687.869-7.537s-.394-6.757-.875-6.459c-.481.297-1.15-1.178-1.486-3.278-.336-2.101-2.186-6.968-4.111-10.817C80.669 6.621 57.146-4.076 36.112 1.581M64 43.918c0 2.705-.262 5.743-.582 6.75-.516 1.627-.399 1.608 1.044-.168 2.129-2.62 2.905-5.903 2.127-9C65.532 37.288 64 38.719 64 43.918M.336 48c0 4.125.177 5.813.392 3.75.216-2.062.216-5.437 0-7.5C.513 42.188.336 43.875.336 48M29.5 43c.995 1.1 2.732 2 3.858 2 1.773 0 1.551.509-1.655 3.792-2.037 2.086-3.703 4.111-3.703 4.5 0 1.56 4.512.575 6.675-1.456 2.16-2.029 2.419-2.061 4.143-.5C39.83 52.251 41.69 53 42.951 53c1.926 0 2.094-.241 1.049-1.5-.685-.825-2.315-1.5-3.622-1.5-3.208 0-3.013-.765 1.325-5.208C45.236 41.174 45.297 41 43.032 41c-1.306 0-3.17.72-4.142 1.6-1.62 1.466-1.958 1.466-4.051 0-1.256-.88-3.379-1.6-4.716-1.6-2.37 0-2.386.052-.623 2m-20.767.75c-2.295 2.547-3 6.419-1.76 9.678 1.463 3.849 2.485 2.477 2.155-2.893-.149-2.42.227-5.33.836-6.467 1.353-2.529.873-2.652-1.231-.318m21.91 13.737c-.362.945.418 2.024 2.143 2.96L35.5 61.92l-2.95.04c-2.135.029-2.648.342-1.856 1.134 1.572 1.572 4.723.697 5.131-1.426.225-1.168-.391-2.003-1.738-2.356-2.745-.717-2.661-2.062.163-2.606 2.005-.387 1.963-.448-.393-.57-1.517-.078-2.886.497-3.214 1.351m9.473 2.697c.064 2.374.316 3.556.561 2.627.245-.928 1.431-1.828 2.634-2 3.378-.48 2.923-4.227-.561-4.627-2.639-.304-2.745-.142-2.634 4m10.153-3.491c.973.254 2.323.237 3-.037.677-.274-.119-.481-1.769-.461-1.65.02-2.204.244-1.231.498m7.981-.031c-1.726.697-1.571 4.827.237 6.327.872.724 2.217.917 3.25.468 1.616-.702 1.596-.803-.237-1.209-1.1-.243-2.408-.829-2.908-1.303-1.241-1.177 1.369-4.174 3.068-3.522.737.283 1.34.078 1.34-.454 0-1.01-2.593-1.177-4.75-.307m7.5 0c.688.278 1.25 1.791 1.25 3.362 0 1.572.45 3.136 1 3.476.593.367 1-.795 1-2.858 0-1.911.563-3.702 1.25-3.98.688-.277-.325-.504-2.25-.504s-2.937.227-2.25.504m9.237 2.37c-.691 1.668-1.012 3.277-.713 3.575.299.299.84-.39 1.202-1.532.885-2.788 1.958-2.613 3.401.554.659 1.446 1.425 2.402 1.703 2.124.638-.637-2.707-7.753-3.644-7.753-.381 0-1.259 1.364-1.949 3.032m8.013.346c0 1.927.45 3.782 1 4.122.55.34 1-.084 1-.941 0-2.047.97-1.975 2.582.191 1.218 1.638 1.301 1.622 1.296-.25-.003-1.1.136-2.9.308-4 .252-1.606-.326-2.062-2.936-2.313-3.108-.3-3.25-.161-3.25 3.191M41 58.5c0 1.03.655 1.52 1.75 1.31 2.108-.406 1.975-2.181-.197-2.633-.906-.189-1.553.362-1.553 1.323m44-.083c0 .871.713 1.583 1.583 1.583 1.766 0 1.459-2.153-.395-2.771-.654-.218-1.188.317-1.188 1.188M49 61.5c0 2 .5 2.5 2.5 2.5 1.375 0 2.5-.45 2.5-1s-.9-1-2-1c-2.728 0-2.537-1.757.25-2.294 1.929-.372 1.858-.453-.5-.57-2.303-.114-2.75.27-2.75 2.364"/><path fill-opacity=".336" fill-rule="evenodd" d="M41 .634C22.637 4.129 8.978 15.578 2.889 32.581-.105 40.939-.118 55.214 2.86 63.419 10.088 83.332 27.01 95.323 48 95.405c20.767.082 38.261-12.317 44.996-31.892C94.098 60.309 95 56.407 95 54.843 95 53.28 95.45 52 96 52s1-2.025 1-4.5-.45-4.5-1-4.5-1-1.055-1-2.343c0-1.289-.902-4.966-2.004-8.17C88.135 18.36 77.654 7.87 63.553 3.018 57.842 1.053 45.597-.241 41 .634m2.357 37.348c-6.061 5.38-6.904 5.833-8.377 4.5-.901-.815-2.909-1.482-4.464-1.482-2.763 0-2.785.045-1.016 2 .995 1.1 2.734 2 3.863 2 1.721 0 1.339.728-2.363 4.5-3.356 3.42-3.977 4.5-2.586 4.5 1.592 0 1.652.218.458 1.671-.754.919-3.397 2.988-5.872 4.597-2.881 1.874-3.601 2.665-2 2.198 3.289-.958 6.63-3.399 11.405-8.333l3.905-4.035 2.48 1.951C40.154 53.122 42.412 54 43.809 54h2.54L44 51.5c-1.292-1.375-3.283-2.519-4.424-2.543-1.73-.035-1.367-.665 2.174-3.777 4.552-4 5.165-5.18 2.691-5.18-2.267 0-1.055-1.405 4.232-4.907C51.241 33.392 52.612 32 51.719 32c-.893 0-4.656 2.692-8.362 5.982m17.691-.232c-.041.962-.055 3.443-.03 5.513.053 4.305-3.975 9.351-6.646 8.326-.961-.369-1.385-.121-1.128.66.226.688 2.07 1.391 4.099 1.562 2.992.253 4.251-.251 6.673-2.673C66.448 48.706 67 47.317 67 43.634c0-3.538-.483-4.859-2.223-6.077-2.859-2.003-3.635-1.963-3.729.193m-50.681 4.022c-4.441 3.598-5.701 9.878-2.81 14.005 1.859 2.655 4.404 2.92 4.542.473.054-.962.19-3.622.302-5.909.255-5.214 1.97-7.332 5.971-7.373 2.967-.03 3.028-.107 1.187-1.5-2.584-1.954-6.567-1.822-9.192.304M.286 48.5c.008 2.75.202 3.756.432 2.236.229-1.52.223-3.77-.014-5-.237-1.23-.425.014-.418 2.764m30.187 8.544c-.837 1.353 1.307 3.922 3.399 4.074.896.065.278.445-1.372.843-2.608.63-2.754.831-1.114 1.541 1.973.854 4.725-.287 4.829-2.002.033-.55-.899-1.49-2.071-2.089-2.279-1.165-1.894-2.636.454-1.735.771.296 1.402.04 1.402-.569 0-1.405-4.665-1.458-5.527-.063M39 59.378c0 1.927.45 3.782 1 4.122.55.34 1-.052 1-.871 0-.82 1.013-1.634 2.25-1.809 1.477-.21 2.25-1.007 2.25-2.32 0-1.525-.771-2.074-3.25-2.313-3.108-.3-3.25-.161-3.25 3.191m10.25-2.689c.962.252 2.538.252 3.5 0 .962-.251.175-.457-1.75-.457s-2.712.206-1.75.457m7.93.953c-1.246 2.228-.347 5.17 1.787 5.848 2.143.68 5.218-.381 4.495-1.551-.289-.468-1.232-.581-2.095-.25-1.974.758-3.61-1.691-2.237-3.346.559-.673 1.658-.978 2.443-.677.785.302 1.427.05 1.427-.559 0-1.736-4.796-1.295-5.82.535m8.62-.442c.66.66 1.2 2.46 1.2 4s.45 2.8 1 2.8 1-1.188 1-2.64c0-1.452.787-3.237 1.75-3.968 1.55-1.177 1.299-1.332-2.2-1.36-3.072-.025-3.683.235-2.75 1.168m8.842 2.424c-.95 1.993-1.422 3.905-1.048 4.25.374.344.859.127 1.079-.482.22-.61 1.021-1.959 1.782-2.999 1.314-1.797 1.416-1.755 2.072.858.379 1.512 1.091 2.749 1.581 2.749 1.196 0 1.137-.479-.557-4.532C78.754 57.561 77.712 56 77.236 56s-1.643 1.631-2.594 3.624m8.358.313c0 2.234.45 4.063 1 4.063s1-.745 1-1.655c0-1.54.127-1.54 1.829 0 2.521 2.281 2.671 2.164 2.671-2.095 0-3.5-.217-3.771-3.25-4.063-3.185-.307-3.25-.232-3.25 3.75m-41.447-2.022a1.116 1.116 0 0 0 .362 1.532c.521.322 1.21.159 1.532-.362a1.116 1.116 0 0 0-.362-1.532 1.116 1.116 0 0 0-1.532.362M85 59c0 .55.423 1 .941 1s1.219-.45 1.559-1c.34-.55-.084-1-.941-1S85 58.45 85 59m-37 2.5c0 2.216.42 2.5 3.7 2.5 3.768 0 3.649-1.361-.2-2.287-1.807-.435-1.783-.492.25-.597C55.141 60.941 54.453 59 51 59c-2.533 0-3 .389-3 2.5"/><path fill-opacity=".253" fill-rule="evenodd" d="M40.528 1.066C10.794 6.038-7.188 37.392 3.692 65.296c9.343 23.96 37.626 36.361 61.604 27.012 14.858-5.794 27.642-21.548 29.378-36.202.336-2.841.997-5.403 1.469-5.694.471-.292.857-1.88.857-3.53 0-1.745-.418-2.742-1-2.382-.584.361-1-.667-1-2.473 0-4.73-3.748-14.808-7.749-20.836C80.599 11.17 67.619 3.064 55 1.052c-7.24-1.155-7.479-1.155-14.472.014M49.5 32.507c-1.65.882-5.279 3.843-8.065 6.581-5.044 4.958-5.073 4.97-6.905 2.945-1.85-2.045-7.53-2.867-7.53-1.09C27 42.366 31.176 45 33.431 45c1.627 0 1.205.795-2.337 4.405-3.581 3.648-4.009 4.465-2.495 4.756 3.063.59-6.149 6.767-9.44 6.33a143.47 143.47 0 0 0-3.409-.422C13.767 59.887 15.309 58 17.441 58c1.343 0 2.719-.45 3.059-1 .34-.55-.208-1-1.218-1-5.401 0-8.34-6.828-4.453-10.345 2.158-1.953 7.219-2.179 9.089-.405 1.07 1.016 1.067.836-.015-.958-.732-1.214-2.76-2.977-4.506-3.917-2.736-1.474-3.609-1.53-6.32-.407-4.606 1.908-7.083 5.572-7.042 10.417.104 11.995 12.474 16.733 21.715 8.316 1.783-1.624 2.25-1.734 2.25-.528 0 .837 1.012 2.052 2.25 2.7l2.25 1.179-2.25-.432c-1.509-.29-2.25.051-2.25 1.037 0 1.055.914 1.381 3.242 1.156 4.029-.389 5.023-3.375 1.582-4.754-1.731-.694-1.878-.948-.574-.996C35.212 58.029 36 57.55 36 57c0-.994-1.362-1.385-3.75-1.075-2.01.261-1.463-.637 1.804-2.963 2.818-2.007 3.19-2.051 4.828-.568C40.73 54.066 46 54.629 46 53.155 46 51.688 42.421 49 40.468 49c-1.49 0-1.066-.827 2.072-4.041 3.004-3.076 3.625-4.239 2.601-4.872-1.011-.624-.462-1.503 2.214-3.544 2.032-1.55 4.072-2.397 4.756-1.974.813.502.935.314.379-.584-.602-.975-.356-1.148.928-.655.96.369 2.384.67 3.164.67.78 0 1.418.45 1.418 1s-.825 1-1.833 1c-3.246 0-3.199 1.237.11 2.89 2.822 1.41 3.223 2.105 3.223 5.597 0 3.369-.429 4.192-2.769 5.313-2.336 1.12-3.229 1.098-5.71-.14-2.93-1.461-2.935-1.459-1.467.783C51.178 52.921 55.037 55 58.012 55c2.736 0 8.664-5.524 9.257-8.626 1.876-9.814-9.192-18.451-17.769-13.867M.232 48c0 1.925.206 2.712.457 1.75.252-.962.252-2.538 0-3.5-.251-.962-.457-.175-.457 1.75m39.435 7.667c-.367.366-.667 2.391-.667 4.5 0 2.74.428 3.833 1.5 3.833.825 0 1.5-.675 1.5-1.5 0-.833.889-1.5 2-1.5 1.443 0 2-.667 2-2.393 0-2.923-4.337-4.937-6.333-2.94m9.046-.046c-1.584 1.583-.536 2.489 2.537 2.192 1.788-.172 3.151-.763 3.031-1.313-.264-1.205-4.564-1.884-5.568-.879m9.31 1.356c-2.376 2.376-2.463 3.038-.717 5.427 1.356 1.854 6.632 1.958 5.694.112-.275-.541-1.288-.85-2.25-.687-1.181.2-1.75-.352-1.75-1.7 0-1.433.776-2.087 2.75-2.32 2.745-.322 2.746-.325.523-1.589-1.917-1.09-2.508-.985-4.25.757m6.977-.54c0 .859.45 1.563 1 1.563s1 1.35 1 3 .45 3 1 3 1-1.35 1-3c0-2.07.491-3 1.583-3 2.934 0 .794-2.497-2.41-2.813-2.345-.232-3.173.094-3.173 1.25m11.578-.687c-1.157 1.15-3.662 7.499-3.158 8.004.787.786 2.58-.822 2.58-2.313 0-2.14 1.769-1.744 2.5.559.628 1.978 2.5 2.818 2.5 1.122C81 62.045 78.097 55 77.653 55c-.176 0-.659.337-1.075.75m7.089-.083C82.605 56.729 82.896 64 84 64c.55 0 1.014-.788 1.032-1.75.03-1.667.095-1.667 1.36 0 2.089 2.752 3.329 2.062 3.214-1.787-.126-4.2-3.672-7.064-5.939-4.796m2.146 3.016c.721.289 1.584.253 1.916-.079.332-.332-.258-.568-1.312-.525-1.165.048-1.402.285-.604.604M48 61.5c0 2.19.433 2.5 3.5 2.5 4.108 0 4.788-1.936.75-2.136-2.358-.117-2.429-.198-.5-.57C55.041 60.66 54.498 59 51 59c-2.533 0-3 .389-3 2.5"/></svg>