<svg xmlns="http://www.w3.org/2000/svg" width="200" height="200" fill="#000000"><path fill-opacity=".075" fill-rule="evenodd" d="M57.167 36.941c.183.517 7.308 8.228 15.833 17.136 16.994 17.757 17.694 18.629 16.171 20.152-.951.951-10.637-8.531-31.737-31.066l-4.998-5.337-2.468 2.001-2.468 2.001 7.46 7.836a4203 4203 0 0 0 18.319 19.069c9.934 10.274 11.983 13.422 8.395 12.895-1.159-.17-9.541-8.615-31.348-31.583-5.854-6.167-6.249-6.401-8.806-5.236-1.472.671-2.529 1.628-2.349 2.128.181.499 8.429 9.327 18.329 19.618s18.332 19.276 18.737 19.966c.406.691.126 1.762-.62 2.382-1.064.883-2.183.206-5.178-3.138C62.063 76.413 35.58 49 34.922 49c-.385 0-1.751.85-3.034 1.89l-2.334 1.89 17.973 18.862C70.652 95.91 69.575 94.602 68 96.5c-1.05 1.265-.974 1.872.427 3.419 1.634 1.806.895 2.745-18.112 23.018-10.898 11.625-19.939 21.492-20.091 21.927-.276.793 4.055 3.136 5.795 3.136.509 0 6-5.286 12.203-11.746 27.911-29.067 27.323-28.508 28.49-27.095.87 1.052-3.054 5.659-18.237 21.414l-19.344 20.073 2.79 1.648 2.79 1.648 11.946-12.221c6.571-6.722 15.095-15.526 18.944-19.566 5.639-5.919 7.216-7.08 8.128-5.982 1.18 1.422-1.83 4.83-26.022 29.471l-9.96 10.144 2.796 1.832 2.796 1.832 18.128-18.822c14.613-15.174 18.349-18.556 19.27-17.447 1.175 1.415.63 2.032-25.696 29.097-6.908 7.102-8.254 8.963-7.041 9.735 4.292 2.731 6.125 1.461 22.644-15.681 14.152-14.685 16.343-16.589 17.75-15.422 1.225 1.017 1.936 1.059 2.998.178 1.121-.931 3.534 1.044 12.379 10.127 6.043 6.206 13.141 13.668 15.774 16.583 4.265 4.722 5.171 5.268 8.294 5 1.929-.165 3.675-.815 3.882-1.444.206-.63-5.834-7.62-13.423-15.534-21.605-22.531-20.973-21.787-19.353-22.788 1.059-.654 4.246 2.108 12.451 10.793 23.861 25.254 24.02 25.396 26.971 24.052 1.448-.66 2.619-1.465 2.602-1.79-.034-.65-6.441-7.543-24.255-26.096-10.646-11.087-13.009-14.493-10.052-14.493.547 0 9.236 8.662 19.308 19.25 10.073 10.588 18.587 19.24 18.922 19.228.334-.012 1.597-.8 2.806-1.75l2.199-1.728-5.07-5.5c-2.788-3.025-10.078-10.678-16.198-17.007-17.063-17.642-17.206-17.816-15.78-19.242.981-.981 2.085-.31 5.357 3.257C144.083 129.314 162.494 148 163.668 148c.771 0 2.48-.706 3.798-1.569 2.25-1.475 2.293-1.676.715-3.314-1.795-1.863-25.418-27.091-33.581-35.862-4.594-4.936-4.798-5.378-3.271-7.067 1.508-1.665 1.503-1.927-.063-3.494-1.592-1.591-1.359-2.04 3.852-7.444 11.157-11.567 23.851-24.897 29.284-30.75l5.568-6-2.235-1.742c-1.229-.959-2.685-1.634-3.235-1.5s-9.497 9.13-19.882 19.992c-17.181 17.972-22.352 22.384-21.441 18.299.178-.798 6.904-8.336 14.948-16.75 22.942-23.999 22.953-24.013 21.02-25.484-.905-.688-2.158-1.266-2.786-1.283-.627-.018-9.363 8.531-19.413 18.997s-18.762 18.866-19.359 18.667c-2.72-.907-2.046-1.721 23.698-28.611l10.929-11.415-2.357-1.864-2.357-1.863-18.198 18.778c-14.628 15.096-18.445 18.532-19.458 17.521-1.381-1.379-.467-2.435 20.906-24.151C136.937 43.804 142 38.061 142 37.33c0-1.773-6.071-1.745-10.364.049-1.815.758-4.181 2.498-5.257 3.867-1.077 1.368-6.761 7.567-12.632 13.774-9.123 9.644-10.898 11.1-12.211 10.01-1.249-1.037-1.842-1.021-3.174.084-1.449 1.203-3.206-.272-15.25-12.804-7.486-7.789-14.595-14.646-15.796-15.236-2.69-1.323-10.608-1.426-10.149-.133M96.592 74.12c-1.543 1.859-5.794 6.545-9.448 10.414a1635 1635 0 0 0-9.843 10.5L74.102 98.5l12.783 13.461 12.782 13.46 12.417-12.823c6.829-7.053 12.517-13.335 12.64-13.961s-5.526-7.158-12.552-14.517L99.396 70.741zm-8.359 13.146L76.999 98.532l11.267 11.234 11.266 11.235 11.467-11.5 11.468-11.5L111.5 87c-6.031-6.05-11.206-11-11.499-11s-5.589 5.07-11.768 11.266"/><path fill-opacity=".356" fill-rule="evenodd" d="M57.754 36.567c-.41.417 3.664 5.297 9.054 10.845 23.856 24.556 24.584 25.41 23.143 27.147-1.181 1.423-3.442-.574-19.407-17.136-16.99-17.625-18.207-18.674-20.331-17.537-2.067 1.106-2.134 1.388-.788 3.311.81 1.156 6.317 7.097 12.237 13.202C85.908 81.401 84.588 79.84 82.909 81.52c-1.369 1.368-2.292.722-8.931-6.247-28.813-30.245-29.91-31.261-32.494-30.084l-2.431 1.108 3.097 3.601c2.843 3.306 12.032 12.996 28.777 30.348 5.835 6.045 6.352 6.903 4.985 8.27s-2.297.718-8.968-6.254C33.355 47.16 35.18 48.836 32.476 50.607l-2.468 1.618 5.246 5.835c2.885 3.21 11.959 12.855 20.164 21.434 13.854 14.486 14.8 15.716 13.27 17.246-1.519 1.519-1.521 1.787-.028 3.437 1.521 1.68.836 2.63-11.206 15.556-7.054 7.572-16.147 17.183-20.208 21.357l-7.382 7.591 2.533 1.659c1.393.913 2.958 1.66 3.479 1.66s9.648-9.181 20.285-20.402c16.743-17.663 19.535-20.214 20.798-19.005 1.662 1.591 3.712-.839-21.38 25.355-14.315 14.944-15.594 16.568-13.977 17.75.979.716 2.31 1.302 2.957 1.302s9.222-8.437 19.057-18.75c9.834-10.312 18.402-18.887 19.039-19.055s1.467.194 1.845.805c.731 1.183-2.173 4.476-23.151 26.243-11.78 12.222-13.037 13.854-11.363 14.75 3.344 1.789 4.573 1.126 11.561-6.243 25.26-26.638 27.695-28.937 29.127-27.505 1.19 1.191-1.089 3.981-15.681 19.204-9.39 9.796-16.908 18.315-16.706 18.931s1.608 1.266 3.125 1.445c2.977.35 2.138 1.109 24.805-22.469 8.836-9.191 10.92-10.896 11.892-9.725 1.015 1.223 1.408 1.211 2.836-.081 1.508-1.365 3.128.032 17.932 15.475 16.25 16.95 18.282 18.426 22.066 16.031 1.123-.71-2.479-5.003-16.246-19.365-15.584-16.256-17.5-18.61-16.094-19.776 1.385-1.15 2.401-.472 7.696 5.13 3.355 3.55 11.472 11.981 18.038 18.736 11.27 11.593 12.056 12.202 14.05 10.878 1.162-.772 2.113-1.638 2.113-1.924s-8.207-9.069-18.238-19.516c-15.825-16.482-18.032-19.165-16.686-20.282 1.748-1.451 1.614-1.575 23.928 22.063 7.009 7.425 13.412 13.887 14.229 14.361.904.524 2.41.365 3.851-.406 2.314-1.238 1.945-1.703-17.106-21.491-17.132-17.794-19.28-20.383-17.879-21.546 1.383-1.148 2.473-.403 8.248 5.63 3.659 3.824 12.364 12.915 19.343 20.202S163.306 148 163.828 148s1.901-.787 3.064-1.75c2.097-1.737 1.96-1.914-17.872-23.191-18.787-20.156-19.887-21.548-18.364-23.231 1.306-1.444 1.38-2.08.382-3.283-1.516-1.826-.127-3.498 22.774-27.403l16.311-17.027-2.949-1.525-2.948-1.525-7.795 8.218c-27.792 29.297-31.627 32.95-33.077 31.5-1.215-1.215 1.2-4.165 17.367-21.212 10.329-10.89 18.919-20.168 19.09-20.618s-.693-1.355-1.919-2.011c-2.461-1.317-.431-3.182-28.25 25.958-8.994 9.422-12.051 12.065-12.725 11-.487-.77-.893-1.708-.902-2.084-.008-.377 8.034-9.14 17.871-19.473 15.686-16.478 17.685-18.942 16.25-20.034-.9-.685-2.104-1.26-2.677-1.277-.573-.018-8.898 8.244-18.5 18.36-14.637 15.419-17.683 18.179-18.844 17.079-1.78-1.687-1.563-1.961 16.885-21.324 7.975-8.371 14.65-15.653 14.833-16.183.432-1.248-3.36-1.223-7.948.051-2.77.77-6.831 4.4-17.379 15.533-12.583 13.281-13.908 14.398-15.441 13.01-1.488-1.346-1.846-1.349-3.172-.023-1.325 1.326-2.898-.034-13.943-12.045-6.848-7.447-13.459-14.212-14.692-15.033-2.591-1.725-10.403-3.008-11.504-1.89m28.913 47.969-12.764 13.56 2.687 3.202c1.478 1.761 7.308 8.029 12.957 13.928l10.27 10.726 13.005-13.763 13.005-13.764-12.621-13.462c-6.942-7.405-12.881-13.581-13.198-13.724s-6.32 5.84-13.341 13.297m1.828 2.469L77.523 98.012l11.238 11.238L100 120.489l11.005-11.005 11.006-11.006-11.272-11.24-11.272-11.239z"/><path fill-opacity=".177" fill-rule="evenodd" d="M58.571 36.886c-.301.487 5.859 7.6 13.691 15.806C92.81 74.225 91.539 72.646 89.903 74.617c-1.253 1.51-3.182-.183-19.504-17.127C53.183 39.619 52.182 38.759 50.21 40.141c-2 1.401-1.423 2.141 15.857 20.346C75.93 70.879 84 79.69 84 80.068s-.623 1.204-1.383 1.835c-1.113.924-5.05-2.665-20.125-18.346-16.163-16.81-19-19.355-20.617-18.49-1.031.552-1.862 1.325-1.846 1.718s8.544 9.696 18.95 20.673C73.45 82.722 77.648 87.72 76.827 88.708 76.238 89.419 75.424 90 75.02 90s-5.411-4.83-11.127-10.732a86738 86738 0 0 1-19.555-20.201c-8.863-9.158-9.25-9.428-11.844-8.246l-2.682 1.222 13.344 14.03c26.665 28.036 27.089 28.548 25.636 31.004-1.027 1.736-1.035 2.277-.042 2.637.688.249 1.25 1.028 1.25 1.731s-8.809 10.669-19.575 22.147c-19.535 20.827-19.57 20.872-17.407 22.624 2.683 2.172 4.269 1.436 9.508-4.414 2.119-2.366 10.38-11.148 18.357-19.514 11.211-11.76 14.799-14.967 15.81-14.128.719.597 1.285 1.592 1.259 2.212s-8.535 9.89-18.908 20.599c-17.185 17.743-18.697 19.584-17.033 20.749 1.005.704 2.426 1.042 3.158.753s9.398-9.054 19.257-19.476c14.001-14.8 18.216-18.709 19.25-17.851.728.604 1.324 1.564 1.324 2.132s-4.634 5.8-10.297 11.627c-26.522 27.288-26.114 26.805-23.722 28.085 2.946 1.576 3.102 1.445 22.127-18.712 12.935-13.704 16.534-16.99 17.617-16.092.748.622 1.229 1.717 1.068 2.434s-4.808 5.933-10.326 11.592c-22.172 22.737-23.999 24.84-22.435 25.829.807.511 2.209.935 3.115.944 1.438.013 12.089-10.388 29.683-28.985 4.717-4.985 5.326-5.34 6.515-3.793 1.17 1.521 1.477 1.543 2.821.199s3.294.346 17.938 15.543C130.869 158.158 136.178 163 137.799 163c4.983 0 3.337-2.936-8.52-15.198-22.246-23.008-22.53-23.349-20.66-24.901 1.469-1.219 3.61.666 19.391 17.082 17.163 17.852 17.824 18.414 20.321 17.276l2.582-1.177-3.596-3.791a3992 3992 0 0 0-12.241-12.791c-21.641-22.53-21.436-22.282-19.797-23.922 1.624-1.624-.232-3.354 29.687 27.672 5.171 5.363 9.684 9.75 10.027 9.75.344 0 1.437-.594 2.43-1.32 1.653-1.208.719-2.45-11.087-14.75-26.627-27.738-25.758-26.716-24.243-28.542 1.227-1.478 3.485.537 21.44 19.134l20.068 20.785 2.765-1.811 2.764-1.811-5.88-6.093c-3.233-3.35-12.328-12.96-20.209-21.354-13.285-14.149-14.216-15.388-12.762-17 1.344-1.49 1.372-2.006.194-3.612-1.26-1.718.302-3.631 18.698-22.904l20.073-21.029-2.313-1.745c-2.31-1.743-2.325-1.732-16.39 12.904-7.743 8.056-16.636 17.348-19.762 20.648-5.365 5.663-5.78 5.904-7.403 4.292-1.624-1.612-.646-2.823 17.588-21.78 10.619-11.041 19.134-20.218 18.922-20.395s-1.254-.789-2.315-1.359c-1.978-1.064-3.299.197-33.773 32.242-5.386 5.663-5.803 5.904-7.424 4.292s-.704-2.763 16.454-20.64C142.823 50.739 151 41.961 151 41.645s-.898-1.055-1.996-1.643c-1.766-.945-3.42.407-14.334 11.715-6.786 7.031-14.86 15.483-17.944 18.783-5.288 5.66-5.704 5.904-7.331 4.3-1.628-1.606-.768-2.699 15.451-19.639 18.013-18.814 18.944-20.528 9.814-18.069-4.34 1.168-5.044 1.803-21.941 19.77-8.172 8.689-9.985 10.162-11.232 9.127-1.185-.983-1.815-.962-3.1.105-1.418 1.176-3.334-.456-15.75-13.419-10.58-11.044-15.016-14.999-17.63-15.716-4.335-1.19-5.736-1.206-6.436-.073m28.297 47.122c-6.802 7.202-12.519 13.525-12.703 14.05-.185.525 5.41 7.044 12.433 14.488l12.769 13.533 6.393-6.29c3.516-3.459 9.485-9.697 13.264-13.863l6.871-7.574-12.417-13.416c-6.83-7.379-12.828-13.553-13.33-13.72s-6.478 5.589-13.28 12.792m1.921 3.259L78.079 98.5l10.699 10.756 10.699 10.756 11.006-11.006L121.489 98l-10.995-10.983L99.5 76.034z"/><path fill-opacity=".128" fill-rule="evenodd" d="M63.613 43.25c3.312 3.438 10.942 11.336 16.955 17.552s10.803 11.777 10.646 12.357-.854 1.624-1.55 2.319c-1.018 1.019-1.691.919-3.464-.517-1.21-.98-2.2-2.242-2.2-2.804s-.934-1.319-2.075-1.681-1.808-.926-1.481-1.253-3.619-4.899-8.769-10.159S60.057 47.065 57.303 44.09c-4.667-5.044-5.146-5.313-7.063-3.971-1.973 1.383-1.365 2.155 15.136 19.21 9.456 9.773 17.587 17.41 18.068 16.97.494-.45.532-.204.088.563-.461.797-.267 1.683.468 2.138 1.648 1.018.424 2.888-2.657 4.06-1.355.515-2.216 1.336-1.914 1.825s-.112 1.437-.92 2.108c-1.808 1.5-1.643 5.996.194 5.291.707-.272 1.078-.829.825-1.238s.65-1.338 2.006-2.064S84 87.341 84 86.949c0-.393 1.912-2.635 4.25-4.983 2.338-2.349 4.137-4.652 4-5.118-.138-.466.296-.736.963-.598.668.137 1.65-.706 2.183-1.874.533-1.167 1.769-2.623 2.747-3.233 1.498-.936 2.592-.287 6.953 4.123 2.846 2.879 5.597 5.11 6.113 4.959.517-.151.721.079.454.511s.149 1.655.926 2.716c1.036 1.418 1.437 1.548 1.511.489.055-.792.41-.325.79 1.039s2.558 3.904 4.839 5.644 3.913 3.401 3.624 3.689.355.996 1.43 1.571 2.238.761 2.586.414.631-.268.631.175c0 .444-.69 1.311-1.534 1.929-1.349.985-1.359 1.363-.082 3.108.799 1.093 1.736 1.704 2.082 1.357.346-.346-.175-1.433-1.158-2.417-1.717-1.717-1.682-1.761.891-1.115 2.682.673 4.725-.646 2.823-1.822-.556-.343-1.509-1.554-2.116-2.689s-.681-1.803-.163-1.483c1.038.642 11.257-9.495 11.257-11.166 0-.572.9-1.326 2-1.675s2-1.098 2-1.665c0-.566 2.155-2.967 4.789-5.335s8.278-8.149 12.542-12.845c7.552-8.319 7.695-8.571 5.521-9.734-2.425-1.298.29-3.842-32.465 30.431-6.753 7.065-9.876 9.674-11.044 9.226-.896-.344-1.338-.916-.983-1.272.356-.355-.108-1.807-1.031-3.226-1.341-2.061-1.371-2.328-.15-1.329 1.288 1.054 2.353.38 6.767-4.288 3.071-3.246 5.015-6.123 4.697-6.95-.334-.871-.049-1.222.744-.918C134.683 73.092 159 48.691 159 46.892c0-.525-.748-1.242-1.662-1.593-1.23-.472-5.64 3.492-16.94 15.226-8.402 8.724-15.009 16.295-14.683 16.823.327.529.135.677-.427.33-1.039-.642-4.995 2.999-4.538 4.177.138.355-.163.645-.667.645s-1.251.335-1.66.744-1.386-.173-2.17-1.293c-1.544-2.204-.767-3.948 3.014-6.769.971-.726 1.464-1.808 1.095-2.405-.381-.617-.21-.801.396-.427 1.321.817 7.618-6.933 6.76-8.321-.348-.563-.006-.77.778-.469.875.336 5.425-3.684 12.145-10.73 10.118-10.611 10.616-11.325 8.541-12.251-2.316-1.034-3.349-.075-29.731 27.602-6.274 6.581-11.647 10.886-9.744 7.808.336-.544.134-.989-.448-.989-2.803 0 .153-3.806 14.691-18.909 8.662-9 16.11-16.977 16.55-17.727.992-1.693-3.788-1.89-7.903-.325-2.938 1.117-15.078 13.757-14.622 15.225.151.486-.137.631-.639.32-.502-.31-2.043.894-3.423 2.676s-3.567 4.354-4.861 5.717-2.352 2.899-2.352 3.415c0 1.311-5.214 1.88-5.972.653-.406-.656-1.265-.602-2.481.158-1.962 1.225-.777 2.331-22.533-21.04C69.624 38.837 66.436 37 61.345 37H57.59zm-22.075 2.316c-1.877 1.401-1.637 1.795 5.619 9.199 4.169 4.254 10.422 10.789 13.895 14.522 3.473 3.732 6.851 6.58 7.507 6.329s1.136.294 1.067 1.213c-.082 1.084.606 1.649 1.957 1.61 1.146-.034 2.084.508 2.084 1.206 0 .697-.488.984-1.084.639-1.211-.702 2.35 3.8 3.917 4.951 1.421 1.044 2.725.938 2.043-.166-.317-.512-.095-1.228.492-1.591 1.126-.695-7.934-11.154-9.285-10.719-.412.132-.637-.125-.5-.573.138-.448-5.6-6.95-12.75-14.449-12.196-12.791-13.121-13.543-14.962-12.171m-9.587 5.993c-1.111 1.339-.018 2.857 7.739 10.75 4.968 5.055 11.883 12.243 15.367 15.973s6.899 6.565 7.588 6.301c.725-.279 1.043.067.754.82-.275.716.662 2.062 2.083 2.993 1.42.931 2.345 2.075 2.056 2.543-.714 1.154 2.354 2.245 3.802 1.353.638-.393.326.561-.694 2.12-1.019 1.559-1.463 2.593-.986 2.298.476-.294.877 1.876.89 4.823.017 3.979-.278 5.108-1.147 4.387-1.677-1.392-3.049 1.908-2.528 6.08.069.55.63 1 1.247 1 .776 0 .738-.464-.122-1.5-.785-.946-.852-1.5-.181-1.5.584 0 1.346.457 1.691 1.016.346.559 1.054.753 1.575.431a1.116 1.116 0 0 0 .362-1.532c-.322-.521-.957-.718-1.411-.437s-1.093-.185-1.42-1.036c-.353-.921-.176-1.288.439-.908 1.689 1.044 4.16-1.57 2.909-3.078-1.722-2.074.273-2.244 4.036-.343l3.5 1.768-2.908-.191c-1.626-.106-3.1.377-3.345 1.097-.45 1.322 3.511 1.099 5.819-.327 1.468-.908-4.056-6.678-5.766-6.022-1.99.764-1.046-1.687 1.435-3.724 1.228-1.009 2.103-2.696 1.942-3.749C76.354 90.847 75 89.046 75 90.733c0 .587-1.575-.508-3.5-2.433S68 84.368 68 83.841s-.45-.681-1-.341-1 .135-1-.456c0-1.59-23.331-25.596-24.5-25.209-.55.182-.655-.014-.232-.436.9-.9-5.109-7.399-6.842-7.399-.649 0-1.763.702-2.475 1.559M91 86.019c-4.675 4.909-8.393 9.372-8.262 9.917.131.546-.374.757-1.121.471s-1.648.233-2.002 1.155c-.522 1.359-.166 1.585 1.879 1.194 1.96-.374 2.288-.198 1.466.792-1.644 1.981.382 2.506 3.476.901 3.696-1.918 24.556-2.087 24.579-.199.012.92.243.892.875-.107.6-.946 1.067-1.021 1.544-.25 1.011 1.636 2.346 1.346 2.957-.643.295-.963.39-.509.21 1.009-.263 2.222-.064 2.54 1.025 1.636.744-.617 1.135-1.473.869-1.904s.229-1.055 1.1-1.389c1.196-.459-.941-3.174-8.739-11.105-5.678-5.773-10.556-10.476-10.84-10.45-.284.025-4.341 4.063-9.016 8.972m39 .359c0 .207.787.995 1.75 1.75 1.586 1.243 1.621 1.208.378-.378-1.307-1.666-2.128-2.195-2.128-1.372m-5.978 15.301c-.012.648.541 1.773 1.228 2.5.688.726 1.25 1.996 1.25 2.821s.618 1.369 1.373 1.209c.89-.189 1.158.269.761 1.302-.336.876-.205 1.342.292 1.035s1.105.007 1.351.698c.247.691.425-.656.396-2.994s-.447-4.25-.93-4.25-.593.897-.245 1.994c.485 1.528.269 1.854-.927 1.395-.858-.329-1.372-.901-1.143-1.272.228-.37-.439-1.785-1.484-3.145s-1.91-1.942-1.922-1.293m-4.426 5.051c-.395 1.226-1.253 2.126-1.907 2-.654-.127-1.077.333-.939 1.02s-.227 1.25-.809 1.25-.762.48-.4 1.067c.379.613.007.932-.875.75-.844-.174-1.534.061-1.534.524.001.463-.816 1.461-1.815 2.218-1 .758-1.424 1.392-.945 1.409.48.018.255.819-.5 1.782-1.242 1.584-1.207 1.62.367.387.956-.75 1.445-1.839 1.086-2.42-.411-.665-.017-.813 1.063-.398.957.367 1.463.248 1.143-.269-.315-.51.224-1.375 1.198-1.922 1.352-.76 2.323-.478 4.103 1.188 1.519 1.422 2.217 1.676 2 .729-.182-.8.231-1.475.918-1.5s1.25-.495 1.25-1.045-.562-1.02-1.25-1.045-1.104-.688-.926-1.472c.23-1.012-.279-.881-1.75.45-1.141 1.032-2.074 1.388-2.074.79 0-1.068 4.056-4.309 7-5.592.857-.373.556-.48-.702-.248-1.211.222-2.378-.11-2.593-.739-.216-.629-.715-.141-1.109 1.086M80 108.5c-1.137 1.37-.706 1.927 1.25 1.618.412-.065.757.669.765 1.632.013 1.48.161 1.521.955.264.652-1.03.487-1.738-.536-2.311-.812-.454-1.215-1.248-.896-1.764.919-1.487-.167-1.091-1.538.561m51.778-.334c-.276.734-.145 2.234.29 3.334.671 1.695.802 1.733.862.25.038-.963.475-1.638.97-1.5s.945-.088 1-.5-.187-.712-.538-.665-.964-.44-1.361-1.083c-.532-.861-.855-.818-1.223.164m-70.472 4.415c-1.543 1.419-2.243 2.292-1.556 1.941.688-.352 1.25-.146 1.25.458 0 .707.499.639 1.401-.191.771-.709.972-1.447.447-1.64s-.143-.966.849-1.718 1.491-1.382 1.109-1.399-1.957 1.129-3.5 2.549m16.251.326c-.784 1.27 1.81 3.102 3.187 2.251.823-.508.601-1.086-.738-1.922-1.052-.657-2.154-.805-2.449-.329m40.996.008a1.116 1.116 0 0 0 .362 1.532c.521.322 1.21.159 1.532-.362a1.116 1.116 0 0 0-.362-1.532 1.116 1.116 0 0 0-1.532.362M84 114c-.901.582-1.025.975-.309.985.655.008 1.469-.435 1.809-.985.767-1.242.421-1.242-1.5 0m52.494.009c-.337.545-.36 1.047-.053 1.116s.897.197 1.309.285c.412.089 1.762.723 3 1.411 3.139 1.743 2.805.966-.697-1.624-1.736-1.283-3.198-1.771-3.559-1.188m-64.57 3.711c-1.333 1.496-1.708 2.174-.832 1.508s1.888-.99 2.25-.719c.362.27.437.195.167-.167-.271-.362.01-1.262.622-2 2.086-2.513.227-1.353-2.207 1.378M89 118.5c-.685.825-.91 1.5-.5 1.5s.189.67-.491 1.489-1.704 1.199-2.277.845c-.624-.385-.739-.155-.287.577.573.926 1.169.843 2.485-.348.953-.862 2.131-1.229 2.618-.815s.349.044-.307-.822c-.915-1.206-.919-1.848-.017-2.75.647-.647.916-1.176.598-1.176-.317 0-1.137.675-1.822 1.5m25.333.956c0 .801.383 1.22.85.931s.591-.944.274-1.456c-.808-1.308-1.124-1.161-1.124.525m-6 10c0 .801.383 1.22.85.931s.591-.944.274-1.456c-.808-1.308-1.124-1.161-1.124.525"/></svg>