<!-- Generated by IcoMoon.io -->
<svg version="1.1" xmlns="http://www.w3.org/2000/svg" width="32" height="32" viewBox="0 0 32 32" fill="#000000">
<title>xyo</title>
<path d="M7.554 3.032c-0.851 1.394-3.424 5.824-3.424 5.893 0 0.034-0.352 0.656-0.782 1.383s-1.359 2.306-2.065 3.508l-1.283 2.186 1.519 2.614c0.835 1.438 2.318 4.016 3.295 5.729s2.107 3.657 2.513 4.319l0.737 1.204h15.959l0.79-1.36c0.434-0.748 0.949-1.648 1.144-2s1.253-2.188 2.351-4.079c1.098-1.892 2.379-4.104 2.845-4.915l0.848-1.476-0.522-0.924c-0.645-1.142-0.792-1.396-2.239-3.883-0.64-1.1-1.285-2.216-1.434-2.48-0.945-1.675-2.397-4.191-3.072-5.319l-0.788-1.32h-15.83l-0.561 0.92zM20.679 4.162c-0.139 0.119-2.24 0.809-5.653 1.856l-1.342 0.412-0.6-0.542c-0.679-0.613-1.329-0.809-2.2-0.661-0.541 0.091-0.624 0.056-0.877-0.371-0.153-0.26-0.279-0.551-0.279-0.647 0-0.124 1.634-0.175 5.551-0.175 3.053 0 5.483 0.058 5.399 0.13zM23.017 5.072c0.211 0.931 1.099 5.317 1.28 6.319 0.072 0.396 0.176 0.936 0.232 1.2 0.089 0.418 0.044 0.506-0.35 0.68-0.249 0.11-0.632 0.316-0.852 0.458-0.392 0.253-0.469 0.218-3.919-1.776-1.936-1.118-3.971-2.295-4.524-2.614l-1.004-0.58 0.105-0.724c0.058-0.398 0.132-0.772 0.165-0.83 0.062-0.109 0.594-0.287 3.978-1.333 1.056-0.326 2.388-0.759 2.96-0.961 1.385-0.49 1.79-0.456 1.93 0.16zM9.303 5.246c0.266 0.558 0.264 0.59-0.090 1.16-0.296 0.475-0.359 0.789-0.337 1.666l0.027 1.081-1.854 1.639c-1.020 0.901-2.22 1.976-2.667 2.387s-0.835 0.686-0.863 0.61c-0.027-0.076 0.698-1.421 1.612-2.988s2.087-3.587 2.606-4.489c0.519-0.902 1.022-1.64 1.118-1.64s0.297 0.258 0.448 0.574zM12.39 6.395c1.297 1.051 0.65 3.076-0.984 3.076-0.975 0-1.668-0.717-1.674-1.732-0.005-0.979 0.645-1.629 1.624-1.624 0.413 0.002 0.83 0.115 1.033 0.28zM26.461 10.035c1.112 1.933 2.272 3.965 2.578 4.515l0.556 1h-0.575c-0.506 0-0.575-0.047-0.575-0.4 0-0.261-0.266-0.677-0.763-1.192-0.599-0.621-0.909-0.815-1.443-0.9-0.374-0.060-0.717-0.168-0.762-0.241-0.081-0.131-1.118-4.973-1.299-6.064-0.067-0.406-0.044-0.514 0.084-0.395 0.098 0.090 1.087 1.746 2.199 3.679zM16.451 11.158c1.422 0.832 2.622 1.513 2.666 1.513s0.271 0.134 0.505 0.297c0.234 0.164 0.857 0.535 1.384 0.825s1.068 0.595 1.2 0.676c0.184 0.114 0.24 0.477 0.24 1.561s-0.056 1.447-0.24 1.561c-0.132 0.081-0.636 0.368-1.12 0.637s-1.96 1.119-3.279 1.89c-4.809 2.807-4.4 2.617-4.74 2.205-0.121-0.146-0.525-0.402-0.899-0.567l-0.68-0.302 0.001-5.472 0.001-5.472 0.709-0.292c0.39-0.16 0.796-0.396 0.902-0.523 0.265-0.319 0.418-0.253 3.35 1.462zM10.249 10.089l0.6 0.373v5.583c0 5.010-0.026 5.583-0.256 5.583-0.141 0-0.504 0.118-0.807 0.261-0.523 0.248-0.569 0.245-0.904-0.053-0.194-0.173-1.289-1.13-2.433-2.127-2.926-2.55-3.919-3.479-3.919-3.666 0-0.146 0.58-0.734 1.555-1.577 1.617-1.398 3.935-3.452 4.598-4.073 0.443-0.416 0.842-0.739 0.886-0.717s0.35 0.207 0.68 0.412zM26.492 14.095c0.744 0.382 1.153 1.069 1.153 1.935s-0.409 1.553-1.153 1.935c-1.040 0.534-1.924 0.316-2.764-0.682-0.383-0.455-0.427-0.622-0.366-1.363 0.075-0.903 0.343-1.325 1.164-1.832 0.613-0.379 1.219-0.377 1.966 0.007zM29.263 17.109c-0.17 0.33-0.79 1.428-1.377 2.44s-1.656 2.865-2.374 4.118c-0.718 1.253-1.358 2.279-1.422 2.28-0.132 0.002-0.048-0.584 0.299-2.078 0.281-1.208 0.438-1.948 0.697-3.279 0.256-1.315 0.305-1.381 1.206-1.609 0.609-0.154 0.949-0.374 1.472-0.951 0.374-0.413 0.68-0.875 0.68-1.028 0-0.387 0.142-0.491 0.67-0.491h0.456l-0.309 0.6zM23.676 18.509c0.261 0.22 0.586 0.4 0.72 0.4 0.179 0 0.219 0.104 0.148 0.386-0.053 0.213-0.24 1.094-0.416 1.96s-0.424 2.041-0.552 2.613c-0.128 0.572-0.363 1.67-0.522 2.439-0.2 0.972-0.358 1.4-0.517 1.4-0.126 0-2.079-0.617-4.34-1.372l-4.112-1.372-0.107-0.806c-0.059-0.443-0.085-0.823-0.059-0.844 0.051-0.040 1.398-0.829 5.967-3.499 1.584-0.925 2.977-1.688 3.096-1.694s0.431 0.169 0.692 0.388zM5.94 20.295c1.16 1.026 2.243 1.991 2.408 2.143 0.274 0.254 0.281 0.346 0.088 1.099-0.262 1.022-0.021 2.108 0.615 2.773l0.423 0.443-0.348 0.348c-0.191 0.192-0.376 0.316-0.41 0.277s-0.692-1.151-1.462-2.471c-0.77-1.32-1.778-3.047-2.241-3.839-1.248-2.136-1.491-2.64-1.272-2.64 0.050 0 1.040 0.84 2.2 1.866zM12.043 22.656c0.652 0.272 1.045 0.962 1.045 1.833 0 0.503-0.113 0.756-0.539 1.208-0.469 0.497-0.636 0.571-1.288 0.571-1.053 0-1.611-0.335-1.924-1.156-0.228-0.598-0.233-0.763-0.040-1.323 0.399-1.159 1.548-1.633 2.746-1.132zM16.995 26.76c1.591 0.534 2.961 1.038 3.044 1.12 0.093 0.091-1.867 0.148-5.079 0.148-3.596 0-5.231-0.053-5.231-0.171 0-0.094 0.068-0.298 0.152-0.454 0.124-0.232 0.306-0.271 1.012-0.212 0.983 0.081 1.974-0.319 2.468-0.998 0.159-0.218 0.39-0.398 0.515-0.401s1.529 0.432 3.119 0.967z"/>
</svg>
