<svg xmlns="http://www.w3.org/2000/svg" width="64" height="64" fill="#000000"><path fill-opacity=".243" fill-rule="evenodd" d="M21.882 1.321C13.461 4.468 7.135 10.077 2.759 18.278.876 21.805.505 24.063.503 32 .5 40.644.765 41.978 3.438 46.804c3.338 6.025 8.498 11.056 14.767 14.4 3.61 1.925 5.81 2.29 13.795 2.29s10.185-.365 13.795-2.29c6.645-3.544 11.707-8.679 14.75-14.965l3.617-7.475C65.376 36.249 65.234 23.738 64 24.5c-.55.34-1.004-.196-1.009-1.191-.015-2.878-5.502-11.673-9.441-15.131C47.219 2.619 42.298.689 33.5.312c-5.08-.217-9.32.151-11.618 1.009m-6.433 20.23C4.565 26.923 8.564 44.012 20.7 43.996c6.193-.008 12.3-6.627 12.3-13.329 0-3.353 3.406-7.316 7.43-8.644 9.315-3.074 17.534 8.668 11.466 16.382-1.157 1.47-3.519 3.294-5.25 4.053s-2.561 1.416-1.846 1.46c2.536.16 7.188-2.994 8.683-5.885 5.941-11.489-6.814-22.794-17.373-15.397C33.473 24.482 31 29.718 31 33.452c0 1.384-1.313 3.986-2.918 5.782-2.505 2.804-3.578 3.266-7.582 3.266s-5.077-.462-7.582-3.266c-4.867-5.447-3.487-13.181 2.925-16.396 1.823-.915 3.58-1.927 3.903-2.25 1.073-1.074-1.204-.563-4.297.963M.336 32c0 4.125.177 5.813.392 3.75s.216-5.437 0-7.5C.513 26.188.336 27.875.336 32"/><path fill-opacity=".565" fill-rule="evenodd" d="M22.005 1.668C-.571 9.567-7.261 37.787 9.476 54.524 26.013 71.061 54.657 64.511 62.063 42.5c.74-2.2 1.703-4.428 2.141-4.95.966-1.153 1.079-13.167.115-12.203-.374.375-1.328-1.235-2.12-3.578C56.644 5.335 38.071-3.953 22.005 1.668M14.19 22.026c-4.574 2.788-6.744 8.183-5.27 13.102.614 2.049 2.493 4.883 4.175 6.298C20.346 47.528 33 41.944 33 32.643c0-9.321 10.274-13.944 17.211-7.745 2.616 2.337 3.244 3.657 3.244 6.828 0 5.045-2.711 9.175-6.521 9.937-3.78.756-4.842 2.337-1.57 2.337 1.366 0 3.837-1.14 5.493-2.533 8.772-7.381 4.743-20.126-6.712-21.227-4.514-.434-5.229-.19-8.651 2.946-3.054 2.799-3.884 4.406-4.579 8.866C29.847 38.903 26.732 42 20.909 42c-2.189 0-5.066-.712-6.394-1.582-2.903-1.902-4.85-7.235-3.95-10.82.78-3.107 5.811-7.598 8.512-7.598C20.135 22 21 21.55 21 21c0-1.629-3.262-1.138-6.81 1.026M.32 32c0 3.575.182 5.038.403 3.25s.222-4.712 0-6.5C.502 26.962.32 28.425.32 32"/><path fill-opacity=".631" fill-rule="evenodd" d="M24.734 1.03C15.471 3.356 6.826 10.651 2.847 19.5c-3.132 6.964-3.132 18.033-.001 25 2.94 6.542 10.192 13.826 16.562 16.635 7.102 3.132 18.149 3.14 25.092.018 8.967-4.032 18.459-15.759 18.49-22.844.006-1.205.46-2.469 1.01-2.809s1-2.418 1-4.618c0-2.412-.397-3.755-1-3.382-.556.343-1.004-.408-1.01-1.691-.03-7.088-9.481-18.945-18.147-22.767C39.366.627 30.05-.305 24.734 1.03M13.206 22.48c-6.117 5.147-6.631 12.941-1.21 18.362 5.346 5.346 14.615 4.733 18.519-1.225l1.671-2.55 2.471 2.937c4.632 5.505 12.294 5.891 17.312.873 5.39-5.39 5.151-12.808-.574-17.835-5.668-4.976-15.085-3.728-18.384 2.438-1.361 2.542-1.45 2.566-2.18.591-.693-1.872-6.268-6.058-8.081-6.067-1.807-.009-.442 1.619 2.511 2.996 4.386 2.045 6.218 5.632 5.321 10.416-1.532 8.167-10.188 11.311-16.505 5.995C11.483 37.228 11 36.118 11 32.334c0-3.627.561-5.049 2.923-7.411 1.608-1.608 3.858-2.923 5-2.923S21 21.55 21 21c0-1.91-4.863-.986-7.794 1.48m23.874 2.157c-8.141 7.275-2.144 20.249 8.013 17.336 5.3-1.52 7.907-4.682 7.907-9.592 0-5.726-3.071-9.313-8.61-10.055-3.527-.474-4.558-.147-7.31 2.311M.272 32c0 2.475.195 3.487.434 2.25.238-1.237.238-3.262 0-4.5C.467 28.512.272 29.525.272 32"/><path fill-opacity=".935" fill-rule="evenodd" d="M26.132 1.056C11.188 4.066.67 16.849.67 32c0 8.919 2.819 15.649 9.25 22.08 8.884 8.884 20.701 11.537 33.07 7.425C52.968 58.188 63 45.592 63 36.381c0-1.245.45-2.541 1-2.881s1-1.518 1-2.618-.45-1.722-1-1.382c-.56.346-1-.43-1-1.763C63 18.613 52.965 5.75 43.49 2.729 36.606.534 31.277.02 26.132 1.056m-9.319 17.627c.721.289 1.584.253 1.916-.079s-.258-.568-1.312-.525c-1.165.048-1.402.285-.604.604m23 0c.721.289 1.584.253 1.916-.079s-.258-.568-1.312-.525c-1.165.048-1.402.285-.604.604m.687 1.408c-5.937 2.257-5.812 2.24-4.887.659.402-.687-.216-.42-1.374.594-1.157 1.014-1.879 2.431-1.603 3.149.275.717.052 1.582-.496 1.92-.548.339-1.285-.295-1.639-1.409-1.237-3.899-8.841-6.3-14.381-4.542-1.78.565-2.176.438-1.591-.509.511-.827.376-1.012-.391-.538-.644.398-.949 1.082-.678 1.52.487.788-3.075 4.565-4.305 4.565-.681 0-.641 9.514.056 13.281.232 1.255 1.243 3.055 2.247 4s1.473 1.098 1.044.339c-.534-.943-.341-1.22.609-.875.764.278 1.306.924 1.203 1.437-.17.854 7.161.883 12.353.049 2.951-.474 5.323-2.592 4.705-4.203-.279-.729-.079-1.591.446-1.916s1.177.26 1.448 1.297c.829 3.171 5.597 5.535 11.339 5.623 2.896.045 5.183-.338 5.081-.85-.103-.513.439-1.159 1.203-1.437.96-.348 1.138-.078.578.875-.446.759.167.523 1.361-.525 2.321-2.035 2.906-3.166 1.042-2.015-.685.424-.947.152-.666-.691.254-.764 1.063-1.389 1.796-1.389s1.518-.675 1.743-1.5c.304-1.115.181-1.178-.479-.246-.55.777-.832-1.2-.742-5.194.094-4.157-.24-6.38-.938-6.255-.596.107-1.09-.561-1.097-1.484-.007-.924-.416-2.049-.91-2.5-.522-.477-.563-.243-.098.559.547.943.36 1.233-.59.916-.764-.254-1.389-.95-1.389-1.546s-.41-1.458-.91-1.917c-.54-.494-.575-.255-.086.587.622 1.072.396 1.256-.922.75-.96-.369-2.271-.702-2.914-.74-.642-.039-.268-.457.832-.93 3.968-1.705-1.041-.794-6 1.091m-24.143 2.901c-5.926 2.391-7.267 11.252-2.434 16.085C20.478 45.632 31 40.502 31 30.751c0-1.073-1.53-3.481-3.4-5.351-3.502-3.502-6.788-4.206-11.243-2.408m23.143-.093c-3.335 1.442-5.641 4.735-6.192 8.839-.455 3.394-.113 4.303 2.662 7.078C38.487 41.333 39.991 42 43.154 42c8.42 0 13.097-10.147 7.596-16.478-2.437-2.805-7.89-4.077-11.25-2.623m-20.687.784c.721.289 1.584.253 1.916-.079s-.258-.568-1.312-.525c-1.165.048-1.402.285-.604.604m23.456.01c.973.254 2.323.237 3-.037s-.119-.481-1.769-.461-2.204.244-1.231.498m-28.84 2.775c-.889 1.357-1.385 3.045-1.102 3.75.323.804.545.63.594-.468.043-.962.979-2.65 2.079-3.75s1.56-2 1.023-2-1.705 1.111-2.594 2.468m23.443-.718c-1.269 1.619-1.222 1.64.628.283 1.1-.807 2.188-1.594 2.417-1.75S39.863 24 39.289 24s-1.662.788-2.417 1.75m12.938.75c.506 1.1 1.17 2.675 1.476 3.5.48 1.296.567 1.288.635-.059.043-.857-.621-2.432-1.476-3.5-1.53-1.91-1.541-1.909-.635.059M6.232 32c0 1.925.206 2.712.457 1.75.252-.962.252-2.538 0-3.5-.251-.962-.457-.175-.457 1.75m22.926-1c0 1.375.227 1.938.504 1.25.278-.687.278-1.812 0-2.5-.277-.687-.504-.125-.504 1.25m28.074 1c0 1.925.206 2.712.457 1.75.252-.962.252-2.538 0-3.5-.251-.962-.457-.175-.457 1.75M.158 32c0 1.375.227 1.938.504 1.25.278-.687.278-1.812 0-2.5-.277-.687-.504-.125-.504 1.25m34 1c0 1.375.227 1.938.504 1.25.278-.687.278-1.812 0-2.5-.277-.687-.504-.125-.504 1.25m-22.079 1.583c.048 1.165.285 1.402.604.605.289-.722.253-1.585-.079-1.917s-.568.258-.525 1.312m39 0c.048 1.165.285 1.402.604.605.289-.722.253-1.585-.079-1.917s-.568.258-.525 1.312m-24.473 3.265L24.712 40.5l2.338-2.222c1.287-1.222 2.139-2.416 1.894-2.652s-1.296.763-2.338 2.222M7 36.941c0 .518.445 1.216.989 1.552.566.35.734-.051.393-.941C7.717 35.82 7 35.503 7 36.941m8.314 2.309c1.163 1.067 3.328 1.701 5.547 1.625l3.639-.125-4.163-.681c-2.29-.374-4.787-1.105-5.548-1.625-.761-.519-.525-.156.525.806m33.558-.5c-1.243 1.586-1.208 1.621.378.378.962-.755 1.75-1.543 1.75-1.75 0-.823-.821-.294-2.128 1.372m-20 3c-1.243 1.586-1.208 1.621.378.378.962-.755 1.75-1.543 1.75-1.75 0-.823-.821-.294-2.128 1.372m15.941-1.067c.721.289 1.584.253 1.916-.079s-.258-.568-1.312-.525c-1.165.048-1.402.285-.604.604M25 45c-.901.582-1.025.975-.309.985.655.008 1.469-.435 1.809-.985.767-1.242.421-1.242-1.5 0m-5.187 1.683c.721.289 1.584.253 1.916-.079s-.258-.568-1.312-.525c-1.165.048-1.402.285-.604.604"/></svg>