<svg width="327" height="500" viewBox="0 0 327 500" fill="#000000" xmlns="http://www.w3.org/2000/svg">
<path fill-rule="evenodd" clip-rule="evenodd" d="M138.861 1.46711C134.004 2.22229 127.253 3.59062 123.858 4.50684C120.462 5.42306 113.592 8.14171 108.591 10.5493C103.589 12.9559 95.2619 17.715 90.0866 21.1238C84.9104 24.5316 77.0175 30.9412 72.5464 35.3653C68.0753 39.7903 62.0669 47.011 59.1932 51.4121C56.3205 55.8132 51.5724 64.3652 48.6437 70.4167C45.714 76.4681 42.3952 84.184 41.2669 87.5628C40.1396 90.9416 38.6983 97.0181 38.0641 101.066C37.356 105.589 37.1319 113.822 37.484 122.429C37.7991 130.131 38.7873 140.463 39.6805 145.39C40.5737 150.317 42.6132 158.419 44.2126 163.394C45.812 168.37 49.1088 175.817 51.5394 179.943C53.971 184.069 58.8531 190.821 62.39 194.947C65.9268 199.073 73.0635 206.315 78.2488 211.041C83.434 215.768 91.59 222.811 96.3711 226.694C101.153 230.576 110.003 237.175 116.038 241.357C122.072 245.538 127.274 248.96 127.598 248.96C127.922 248.96 128.176 241.87 128.163 233.206C128.149 224.542 127.674 215.426 127.107 212.951C126.488 210.254 124.793 207.116 122.879 205.122C121.122 203.293 116.309 199.412 112.183 196.498C108.057 193.584 101.627 188.389 97.8955 184.952C94.1226 181.477 88.4842 174.719 85.1974 169.729C81.9457 164.792 77.9107 157.453 76.2313 153.418C74.5509 149.384 72.4544 142.786 71.5712 138.757C70.687 134.728 69.9578 126.93 69.9488 121.429C69.9388 115.078 70.696 107.776 72.0243 101.425C73.2626 95.5057 75.5711 88.479 77.6816 84.21C79.6421 80.242 83.8501 73.4904 87.0319 69.2054C90.2136 64.9203 96.0501 58.4258 100.002 54.7729C104.217 50.877 110.392 46.4829 114.937 44.1454C119.199 41.9528 125.611 39.2122 129.187 38.0549C132.763 36.8976 139.064 35.2392 143.19 34.371C147.316 33.5028 154.968 32.7866 160.194 32.7796C167.511 32.7696 171.767 33.3688 178.699 35.3843C183.65 36.8246 191.752 39.9754 196.703 42.3869C201.654 44.7985 209.372 49.7227 213.853 53.3296C218.334 56.9364 224.251 62.9319 227.001 66.6528C229.75 70.3737 233.622 76.3781 235.604 79.996C237.585 83.6138 240.096 90.0484 241.181 94.2944C242.267 98.5394 243.632 106.701 244.216 112.432C244.953 119.679 244.961 126.716 244.244 135.552C243.517 144.496 242.678 149.17 241.407 151.346C240.379 153.107 238.771 154.437 237.674 154.437C236.232 154.437 235.069 152.751 233.049 147.728C231.566 144.038 228.916 135.936 227.162 129.724C225.407 123.511 223.124 116.756 222.087 114.71C221.05 112.666 219.275 110.496 218.14 109.89C216.579 109.054 214.175 109.197 208.239 110.48C203.927 111.412 198.668 113.158 196.551 114.36C192.746 116.523 192.705 116.61 193.006 121.989C193.173 124.982 194.201 131.481 195.29 136.433C196.378 141.384 199.091 152.186 201.316 160.438C203.543 168.69 208.52 185.006 212.376 196.696C216.232 208.387 220.161 218.906 221.105 220.073L222.824 222.195L239.27 216.681C248.317 213.648 270.346 205.891 288.225 199.444C306.104 192.996 321.931 187.291 323.395 186.766L326.057 185.81L322.793 176.125C320.999 170.798 318.554 164.527 317.361 162.189C315.373 158.294 314.867 157.938 311.323 157.938C309.194 157.938 303.465 159.115 298.59 160.554C293.715 161.994 286.575 164.012 282.724 165.038C278.873 166.066 275.385 166.913 274.972 166.923C274.559 166.932 274.222 164.802 274.222 162.189C274.222 159.575 275.2 151.811 276.394 144.935C277.844 136.59 278.579 128.108 278.605 119.428C278.632 110.475 278.075 103.778 276.816 97.9263C275.811 93.2522 273.722 85.9884 272.172 81.7854C270.622 77.5824 267.327 70.1066 264.849 65.1724C262.37 60.2382 257.675 52.8725 254.414 48.8055C251.153 44.7375 244.487 37.5318 239.599 32.7926C234.71 28.0535 228.019 22.4602 224.729 20.3616C221.438 18.2631 214.168 14.3872 208.573 11.7476C202.978 9.10895 195.092 6.04321 191.05 4.93494C187.008 3.82768 179.199 2.2443 173.698 1.4161C168.196 0.588899 160.094 -0.0472537 155.693 0.00275834C151.292 0.0527704 143.717 0.711929 138.861 1.46711ZM143.557 137.183C143.901 161.527 144.468 232.142 144.817 294.108L145.451 406.774L150.072 407.343C152.614 407.655 159.981 408.217 166.446 408.59L178.199 409.27V251.096V92.9221H160.566H142.932L143.557 137.183ZM195.472 263.713C195.049 265.225 194.703 272.765 194.703 280.467C194.703 292.77 194.952 294.896 196.75 297.971C197.876 299.897 202.828 304.506 207.753 308.213C212.678 311.921 218.426 316.872 220.528 319.215C222.628 321.56 226.173 326.125 228.406 329.36C230.638 332.596 234.222 338.994 236.372 343.579C238.52 348.165 241.199 355.42 242.325 359.702C243.787 365.261 244.39 370.778 244.436 378.991C244.478 386.509 243.92 392.919 242.824 397.495C241.902 401.346 240.261 406.88 239.177 409.794C238.093 412.708 236.245 416.984 235.068 419.296C233.892 421.609 231.224 426.02 229.138 429.098C227.053 432.176 222.953 437.319 220.027 440.527C217.101 443.734 211.343 448.558 207.231 451.246C203.119 453.935 196.142 457.925 191.726 460.113C186.65 462.629 180.755 464.615 175.697 465.517C171.297 466.301 163.195 466.952 157.694 466.964C151.671 466.977 144.018 466.228 138.458 465.08C133.38 464.032 126.693 462.016 123.601 460.6C120.508 459.184 114.868 455.958 111.067 453.432C107.266 450.904 101.684 446.578 98.6637 443.817C95.6429 441.057 90.5037 435.258 87.2439 430.931C83.9842 426.605 79.7091 419.788 77.7447 415.782C75.7792 411.776 73.2446 404.897 72.1103 400.496C70.88 395.725 70.0398 389.263 70.0298 384.492C70.0198 380.091 70.75 372.889 71.6532 368.488C72.5554 364.087 74.5609 357.786 76.1093 354.485C77.6576 351.184 79.9202 347.448 81.1365 346.182C82.8449 344.404 83.6591 344.138 84.7123 345.013C85.4625 345.635 86.7698 349.372 87.619 353.316C88.4672 357.26 89.6315 364.537 90.2067 369.488C90.7818 374.44 91.728 381.284 92.3102 384.698C92.8923 388.113 93.9876 391.421 94.7437 392.048C95.775 392.904 98.3196 392.898 104.901 392.024C109.731 391.384 115.594 390.015 117.929 388.984C120.381 387.902 122.668 386.027 123.343 384.547C124.255 382.546 124.129 378.322 122.767 365.234C121.808 356.021 119.268 336.331 117.121 321.477C114.975 306.623 112.709 291.638 112.086 288.176C111.464 284.714 110.298 281.225 109.496 280.424C108.695 279.623 106.465 278.967 104.541 278.967C102.618 278.967 93.7595 280.566 84.8584 282.521C75.9562 284.475 55.0532 288.96 38.4062 292.487C21.7602 296.014 6.30851 299.393 4.06998 299.995L0 301.091L0.696166 305.283C1.07926 307.588 2.4946 313.298 3.84092 317.971C5.18824 322.644 7.00568 327.257 7.87989 328.224C8.91814 329.371 10.9356 329.979 13.7043 329.979C16.0338 329.979 21.7022 329.278 26.3023 328.421C30.9014 327.563 38.6333 325.944 43.4844 324.821C48.3346 323.697 52.5146 322.989 52.7717 323.246C53.0287 323.504 51.3823 327.937 49.1118 333.099C46.8422 338.259 43.8805 345.633 42.5312 349.484C41.1809 353.335 39.4245 360.761 38.6263 365.988C37.8291 371.214 37.1759 379.541 37.1749 384.492C37.1739 389.443 37.8431 397.624 38.6613 402.673C39.4805 407.722 41.528 415.659 43.2114 420.311C44.8948 424.963 48.5456 432.736 51.3253 437.584C54.105 442.431 58.7691 449.629 61.6888 453.577C64.6095 457.526 69.6257 463.331 72.8365 466.479C76.0472 469.626 83.306 475.305 88.9653 479.099C94.6257 482.892 102.953 487.759 107.47 489.914C111.988 492.069 118.481 494.775 121.901 495.925C125.321 497.076 131.172 498.459 134.904 499C138.636 499.539 146.771 499.989 152.982 500C159.193 500.011 168.589 499.539 173.864 498.951C179.137 498.362 187.236 496.785 191.86 495.445C196.484 494.104 203.967 491.162 208.488 488.904C213.009 486.648 220.534 482.271 225.21 479.178C229.886 476.085 237.24 470.185 241.552 466.066C246.183 461.642 252.217 454.352 256.296 448.252C260.092 442.574 264.956 434.232 267.102 429.715C269.25 425.197 272.279 417.675 273.837 412.999C276.637 404.587 276.667 404.239 276.655 379.991C276.643 356.11 276.573 355.255 273.889 346.483C272.373 341.532 268.763 332.755 265.866 326.978C262.968 321.202 258.483 313.269 255.899 309.349C253.315 305.429 247.666 298.846 243.346 294.719C239.026 290.592 231.942 284.385 227.601 280.925C223.261 277.465 215.053 271.559 209.361 267.799C203.67 264.039 198.39 260.962 197.627 260.962C196.865 260.962 195.895 262.201 195.472 263.713Z" fill="#000000"/>
</svg>
