<svg xmlns="http://www.w3.org/2000/svg" width="250" height="250" version="1.1" fill="#000000"><path fill-opacity=".208" d="M 136.750 42.166 L 123 50.207 123 65.603 C 123 74.071, 122.812 81, 122.583 81 C 122.354 81, 116.283 77.581, 109.092 73.403 L 96.019 65.806 81.514 74.153 L 67.009 82.500 67.004 116.173 L 67 149.847 80.750 157.713 L 94.500 165.579 94.786 182.040 L 95.073 198.500 109.430 206.750 C 117.326 211.287, 124.172 214.982, 124.643 214.960 C 125.115 214.938, 131.800 211.211, 139.500 206.678 L 153.500 198.436 154 165.658 L 154.500 132.880 168 125.146 L 181.500 117.412 181.763 83.931 L 182.026 50.450 167.712 42.225 C 159.840 37.701, 152.747 34.028, 151.949 34.063 C 151.152 34.097, 144.313 37.744, 136.750 42.166 M 139.250 43.091 C 132.512 46.978, 127 50.466, 127 50.842 C 127 51.218, 132.604 54.771, 139.454 58.736 L 151.907 65.947 164.204 58.899 C 170.967 55.023, 176.816 51.546, 177.202 51.173 C 177.816 50.581, 155.133 36.888, 152.500 36.262 C 151.950 36.132, 145.988 39.204, 139.250 43.091 M 83.330 75.371 C 76.637 79.292, 70.886 82.776, 70.551 83.113 C 69.488 84.181, 95.075 98.185, 96.847 97.505 C 99.951 96.314, 121 83.798, 120.988 83.150 C 120.977 82.531, 118.592 81.111, 102.500 72.143 L 95.500 68.242 83.330 75.371 M 125 131.988 C 125 139.786, 125.380 146.017, 125.845 145.833 C 128.419 144.819, 149 132.561, 149 132.042 C 149 131.466, 144.707 128.878, 130.750 121.039 L 125 117.809 125 131.988" stroke="none" fill="#000000" fill-rule="evenodd"/><path fill-opacity=".366" d="M 136.750 42.335 L 123 50.476 123 65.738 C 123 74.132, 122.738 81, 122.419 81 C 122.099 81, 116.022 77.619, 108.914 73.487 L 95.990 65.975 81.532 74.237 L 67.075 82.500 67.051 116 L 67.027 149.500 80.982 157.500 L 94.936 165.500 95.218 181.933 L 95.500 198.365 109.904 206.720 L 124.307 215.075 138.904 206.654 L 153.500 198.233 154 165.407 L 154.500 132.580 168.263 124.706 L 182.027 116.831 181.763 83.674 L 181.500 50.516 167.500 42.293 C 159.800 37.771, 152.825 34.099, 152 34.133 C 151.175 34.167, 144.313 37.858, 136.750 42.335 M 138.113 43.449 L 125.725 50.802 129.613 53.220 C 131.751 54.550, 137.646 58.017, 142.714 60.923 L 151.928 66.207 164.490 58.966 C 171.399 54.984, 177.242 51.418, 177.474 51.042 C 178.008 50.178, 153.802 35.983, 151.904 36.048 C 151.132 36.074, 144.926 39.405, 138.113 43.449 M 165.266 60.356 L 153.032 67.500 153.016 82.832 L 153 98.163 156.250 96.222 C 158.037 95.154, 163.887 91.727, 169.250 88.607 L 179 82.935 179 67.967 C 179 59.735, 178.662 53.048, 178.250 53.106 C 177.838 53.164, 171.995 56.427, 165.266 60.356 M 83 75.322 C 76.125 79.332, 70.500 82.979, 70.500 83.426 C 70.500 83.872, 76.159 87.491, 83.076 91.468 L 95.652 98.697 108.819 91.099 C 120.505 84.355, 121.790 83.353, 120.243 82.198 C 118.402 80.823, 96.271 67.989, 95.784 68.015 C 95.628 68.023, 89.875 71.311, 83 75.322 M 110 92.443 L 97.500 99.805 97.223 114.994 C 97.071 123.349, 97.334 130.030, 97.807 129.842 C 98.281 129.654, 104.138 126.350, 110.823 122.500 L 122.978 115.500 122.989 100.250 C 122.995 91.862, 122.888 85.019, 122.750 85.041 C 122.612 85.064, 116.875 88.395, 110 92.443 M 165.250 93.149 L 153 100.253 153 115.127 C 153 123.307, 153.251 130, 153.557 130 C 153.863 130, 159.713 126.746, 166.557 122.769 L 179 115.539 179 100.769 C 179 92.646, 178.662 86.010, 178.250 86.023 C 177.838 86.035, 171.988 89.242, 165.250 93.149 M 109.266 125.356 L 97.032 132.500 97.016 147.699 L 97 162.897 109.750 155.569 L 122.500 148.241 122.776 133.120 C 122.928 124.804, 122.703 118.048, 122.276 118.106 C 121.849 118.164, 115.995 121.427, 109.266 125.356 M 125 132.107 C 125 143.534, 125.256 146.116, 126.349 145.696 C 127.091 145.412, 132.755 142.249, 138.935 138.669 C 149.909 132.312, 150.118 132.125, 147.836 130.709 C 142.132 127.168, 126.058 118, 125.556 118 C 125.250 118, 125 124.348, 125 132.107 M 137.777 141.326 L 125.055 148.500 125.027 163.809 C 125.012 172.229, 125.338 178.925, 125.750 178.689 C 126.162 178.453, 131.824 175.218, 138.331 171.500 C 144.839 167.782, 150.364 164.215, 150.610 163.574 C 150.856 162.933, 150.932 156.051, 150.779 148.280 L 150.500 134.153 137.777 141.326 M 137.268 174.337 L 125.035 181.500 125.018 196.832 L 125 212.163 128.250 210.209 C 130.037 209.134, 135.887 205.696, 141.250 202.569 L 151 196.883 151 181.942 C 151 173.724, 150.662 167.039, 150.250 167.087 C 149.838 167.134, 143.995 170.397, 137.268 174.337" stroke="none" fill="#000000" fill-rule="evenodd"/><path fill-opacity=".305" d="M 137.267 42.271 L 123.034 50.500 123.002 66 C 122.984 74.525, 122.592 82.095, 122.132 82.821 C 121.671 83.548, 115.495 87.451, 108.408 91.495 L 95.523 98.847 89.511 95.402 C 86.205 93.507, 80.466 90.279, 76.757 88.228 C 73.048 86.178, 70.015 84.050, 70.018 83.500 C 70.021 82.709, 91.535 69.606, 95.226 68.147 C 95.717 67.953, 101.748 71.034, 108.628 74.995 C 115.508 78.956, 121.357 81.976, 121.627 81.707 C 122.280 81.053, 97.649 66.996, 95.881 67.014 C 95.121 67.021, 88.425 70.557, 81 74.872 L 67.500 82.716 67.500 116.108 L 67.500 149.500 81.250 157.384 L 95 165.267 95 181.555 L 95 197.843 106.750 204.603 C 113.213 208.321, 119.713 212.194, 121.196 213.211 L 123.892 215.059 137.953 206.922 C 145.687 202.446, 152.247 198.410, 152.530 197.951 C 152.813 197.493, 153.045 182.713, 153.045 165.107 L 153.045 133.095 166.541 125.422 C 173.964 121.202, 180.253 117.400, 180.517 116.973 C 180.781 116.546, 181.029 101.418, 181.070 83.355 L 181.143 50.512 167.054 42.256 C 159.306 37.715, 152.636 34.009, 152.233 34.021 C 151.830 34.032, 145.095 37.744, 137.267 42.271 M 139 42.608 C 132.125 46.684, 126.382 50.369, 126.237 50.798 C 126.022 51.434, 143.384 62.029, 150.148 65.389 C 151.509 66.065, 155.053 64.508, 164.945 58.889 C 172.099 54.825, 177.833 51.109, 177.686 50.630 C 177.438 49.819, 154.704 36.160, 152.500 35.498 C 151.950 35.333, 145.875 38.532, 139 42.608 M 165.250 60.175 L 153 67.281 153 82.641 C 153 91.088, 153.188 98, 153.417 98 C 153.646 98, 159.721 94.579, 166.917 90.398 L 180 82.795 180 67.898 C 180 56.628, 179.696 53.008, 178.750 53.034 C 178.063 53.053, 171.988 56.266, 165.250 60.175 M 108.750 92.698 L 96 100.188 96 115.094 C 96 125.614, 96.337 130, 97.144 130 C 97.773 130, 103.848 126.795, 110.644 122.878 L 123 115.755 123 100.378 C 123 91.920, 122.662 85.047, 122.250 85.104 C 121.838 85.161, 115.763 88.578, 108.750 92.698 M 166 92.520 L 153.500 99.812 153.224 114.906 C 153.072 123.208, 153.268 130, 153.660 130 C 154.552 130, 173.530 119.360, 177.250 116.775 L 180 114.864 180 100.491 C 180 92.586, 179.662 85.918, 179.250 85.673 C 178.838 85.429, 172.875 88.510, 166 92.520 M 124.799 131.973 L 125.099 146.858 137.541 139.679 C 144.385 135.731, 149.983 132.275, 149.981 132 C 149.979 131.544, 145.644 128.980, 130 120.181 L 124.500 117.087 124.799 131.973 M 109 125.406 L 96.500 132.732 96.221 147.038 C 96.068 154.906, 96.300 161.700, 96.736 162.136 C 97.172 162.572, 103.246 159.682, 110.233 155.714 L 122.937 148.500 122.969 133.250 C 122.986 124.862, 122.662 118.018, 122.250 118.040 C 121.838 118.061, 115.875 121.376, 109 125.406 M 137 141.391 L 124.500 148.668 124.221 163.005 C 124.068 170.891, 124.352 177.752, 124.853 178.253 C 125.399 178.799, 130.904 176.170, 138.631 171.674 L 151.500 164.187 151.500 149.427 C 151.500 140.438, 151.109 134.559, 150.500 134.390 C 149.950 134.238, 143.875 137.388, 137 141.391 M 137 174.350 L 124.500 181.596 124.221 195.970 C 124.068 203.875, 124.303 210.703, 124.743 211.143 C 125.183 211.583, 131.496 208.552, 138.772 204.406 L 152 196.868 152 181.934 C 152 170.626, 151.697 167.013, 150.750 167.052 C 150.063 167.081, 143.875 170.365, 137 174.350" stroke="none" fill="#000000" fill-rule="evenodd"/><path fill-opacity=".438" d="M 147.741 36.374 C 142.119 39.830, 141.785 40.766, 147.300 37.607 L 152.099 34.858 164.718 42.183 C 171.658 46.212, 177.487 49.962, 177.672 50.515 C 178.014 51.543, 153.924 66, 151.869 66 C 150.224 66, 126 51.998, 126 51.047 C 126 50.605, 127.013 49.486, 128.250 48.560 C 129.981 47.265, 129.693 47.307, 127 48.743 L 123.500 50.609 123.257 65.054 C 123.124 73, 122.786 80.478, 122.508 81.673 C 122.153 83.194, 118.080 86.120, 108.938 91.423 C 101.754 95.590, 95.707 99, 95.500 99 C 95.293 99, 89.228 95.580, 82.022 91.400 C 70.602 84.776, 69.086 83.600, 70.210 82.236 C 71.353 80.851, 71.242 80.810, 69.237 81.879 L 66.973 83.085 67.237 116.160 L 67.500 149.235 81 156.998 L 94.500 164.762 95 181.367 L 95.500 197.973 109.923 206.320 L 124.346 214.667 138.423 206.425 L 152.500 198.183 153 165.385 L 153.500 132.588 167 124.855 L 180.500 117.122 181 100.311 C 181.275 91.065, 181.368 76.049, 181.206 66.942 L 180.912 50.384 166.655 42.192 C 158.814 37.686, 152.197 34.014, 151.949 34.031 C 151.702 34.048, 149.808 35.103, 147.741 36.374 M 138.750 41.572 C 135.012 43.600, 135.239 44.445, 139 42.500 C 140.650 41.647, 142 40.735, 142 40.474 C 142 39.831, 141.893 39.867, 138.750 41.572 M 132.441 45.555 C 130.577 47.049, 130.589 47.067, 132.750 46.020 C 133.988 45.420, 135 44.720, 135 44.465 C 135 43.700, 134.481 43.921, 132.441 45.555 M 167.948 58.335 C 162.144 61.726, 156.181 65.298, 154.698 66.273 L 152 68.046 152 82.464 C 152 91.315, 152.399 97.129, 153.034 97.521 C 153.603 97.873, 159.790 94.839, 166.784 90.780 L 179.500 83.399 179.778 68.527 C 179.930 60.348, 179.705 53.321, 179.278 52.913 C 178.850 52.504, 173.751 54.944, 167.948 58.335 M 92.441 68.470 C 90.663 69.816, 90.752 69.849, 93.500 68.861 C 96.266 67.866, 97.464 68.338, 108.890 74.918 C 115.704 78.843, 121.423 81.910, 121.599 81.734 C 122.132 81.201, 97.216 67, 95.748 67 C 94.997 67, 93.509 67.661, 92.441 68.470 M 86.750 71.572 C 83.012 73.600, 83.239 74.445, 87 72.500 C 88.650 71.647, 90 70.735, 90 70.474 C 90 69.831, 89.893 69.867, 86.750 71.572 M 80.441 75.555 C 78.577 77.049, 78.589 77.067, 80.750 76.020 C 81.987 75.420, 83 74.720, 83 74.465 C 83 73.700, 82.481 73.921, 80.441 75.555 M 74.750 78.572 C 71.012 80.600, 71.239 81.445, 75 79.500 C 76.650 78.647, 78 77.735, 78 77.474 C 78 76.831, 77.893 76.867, 74.750 78.572 M 109 92.354 L 96.500 99.597 96.222 114.471 C 96.070 122.651, 96.295 129.682, 96.722 130.094 C 97.399 130.746, 119.070 118.847, 122.715 115.822 C 124.348 114.467, 124.146 85.843, 122.500 85.387 C 121.950 85.235, 115.875 88.370, 109 92.354 M 165.250 92.689 L 152 100.313 152 115.097 C 152 123.229, 152.356 130.102, 152.792 130.371 C 153.227 130.641, 159.527 127.434, 166.792 123.245 L 180 115.628 180 100.314 C 180 91.891, 179.662 85.014, 179.250 85.032 C 178.838 85.050, 172.537 88.495, 165.250 92.689 M 117.267 120.750 C 113.474 122.813, 107.141 126.300, 103.192 128.500 L 96.013 132.500 96.007 147.750 C 96.002 157.467, 96.371 163, 97.021 163 C 97.583 163, 103.546 159.769, 110.271 155.819 C 116.997 151.870, 128.575 145.117, 136 140.812 C 143.425 136.508, 149.615 132.644, 149.755 132.227 C 149.975 131.573, 125.937 117, 124.639 117 C 124.377 117, 121.060 118.688, 117.267 120.750 M 136.951 141.250 L 124.500 148.501 124.224 163.750 C 124.008 175.703, 124.228 179, 125.242 179 C 125.954 179, 132.153 175.728, 139.018 171.728 L 151.500 164.457 151.776 149.228 C 151.996 137.111, 151.781 134, 150.727 134 C 149.998 134, 143.798 137.263, 136.951 141.250 M 137.260 173.899 L 124.019 181.500 124.010 196.750 C 124.002 208.309, 124.303 211.990, 125.250 211.960 C 125.938 211.939, 132.125 208.624, 139 204.594 L 151.500 197.268 151.778 182.462 C 151.930 174.318, 151.705 167.350, 151.278 166.977 C 150.850 166.604, 144.542 169.719, 137.260 173.899" stroke="none" fill="#000000" fill-rule="evenodd"/></svg>