<svg xmlns="http://www.w3.org/2000/svg" width="250" height="250" version="1.1" fill="#000000"><path fill-opacity=".047" d="M 108.440 30.867 C 101.388 33.275, 92.458 38.471, 86.198 43.810 C 80.937 48.296, 71 59.487, 71 60.923 C 71 61.719, 80.935 76.814, 87.504 86 C 100.520 104.202, 121.259 128, 124.104 128 C 128.261 128, 159.185 84.199, 170.013 62.975 C 172.438 58.221, 172.109 57.373, 165.325 50.886 C 154.599 40.630, 143.477 33.568, 133.086 30.414 C 126.843 28.519, 114.665 28.743, 108.440 30.867 M 184.722 82.817 C 183.916 83.743, 182.680 85.625, 181.975 87 C 176.687 97.314, 157.080 124.949, 143.741 140.887 L 135.885 150.274 136.524 160.387 C 136.875 165.949, 137.479 181.180, 137.865 194.234 C 138.352 210.703, 138.940 218.340, 139.784 219.184 C 141.298 220.698, 150.176 219.049, 158.172 215.767 C 187.799 203.609, 203.974 177.872, 203.993 142.858 C 204.004 123.800, 200.513 108.014, 192.264 89.815 C 188.524 81.563, 187.026 80.173, 184.722 82.817 M 57.250 85.662 C 56.563 85.940, 56 86.939, 56 87.883 C 56 88.828, 55.607 90.027, 55.126 90.550 C 53.677 92.124, 50.274 103.853, 48.072 114.858 C 45.150 129.464, 45.165 151.703, 48.105 163.823 C 54.882 191.763, 73.766 211.703, 100.261 218.894 C 109.020 221.271, 115.616 221.624, 116.268 219.750 C 116.781 218.275, 116.387 205.050, 114.891 173.500 L 113.800 150.500 104.579 141 C 93.812 129.906, 85.122 119.912, 78.929 111.500 C 76.499 108.200, 74.268 105.275, 73.970 105 C 73.672 104.725, 70.310 100.112, 66.499 94.750 C 62.689 89.388, 59.330 85.036, 59.035 85.079 C 58.741 85.122, 57.938 85.385, 57.250 85.662" stroke="none" fill="#000000" fill-rule="evenodd"/><path fill-opacity=".189" d="M 114 30.621 C 108.889 31.591, 100.301 35.451, 93.821 39.690 C 86.468 44.500, 73 58.220, 73 60.901 C 73 62.438, 84.027 79.504, 91.480 89.503 C 98.810 99.336, 114.296 117.937, 118.894 122.432 C 123.879 127.306, 123.964 127.343, 126.008 125.493 C 134.632 117.688, 170 64.363, 170 59.165 C 170 54.652, 149.199 38.170, 137.065 33.070 C 131.701 30.815, 119.694 29.540, 114 30.621 M 183.735 86.750 C 174.491 102.523, 154.922 129.913, 143.548 143 L 137.898 149.500 138.569 177.500 C 139.413 212.684, 139.917 218.364, 142.241 218.809 C 145.058 219.349, 159.760 214.306, 166.726 210.411 C 179.771 203.116, 191.511 189.503, 197.266 175 C 206.543 151.619, 204.233 119.259, 191.251 90.750 C 189.310 86.487, 187.319 83, 186.827 83 C 186.335 83, 184.944 84.688, 183.735 86.750 M 54.197 96.250 C 48.636 113.083, 47.495 120.682, 47.553 140.500 C 47.612 160.730, 49.028 168.138, 55.252 180.772 C 65.765 202.113, 86.494 217.033, 109.197 219.602 L 115.307 220.293 114.525 193.897 C 114.095 179.378, 113.463 163.812, 113.121 159.305 L 112.500 151.109 104.437 142.805 C 91.038 129.003, 74.604 108.695, 63.122 91.750 C 61.352 89.138, 59.307 87, 58.578 87 C 57.793 87, 56.007 90.772, 54.197 96.250" stroke="none" fill="#000000" fill-rule="evenodd"/><path fill-opacity=".066" d="M 115 31.988 C 108.328 33.190, 102.632 35.376, 96.371 39.140 C 90.181 42.861, 75.497 56.860, 74.505 59.986 C 73.805 62.191, 80.167 72.236, 94.466 91.500 C 102.413 102.206, 120.894 124.199, 123.080 125.550 C 124.485 126.418, 127.849 122.484, 139.453 106.402 C 149.119 93.007, 161.477 73.613, 166.295 64.279 L 168.989 59.057 165.745 55.350 C 163.162 52.400, 152.479 43.470, 146.462 39.231 C 138.419 33.567, 124.294 30.315, 115 31.988 M 178.387 97.750 C 164.846 118.424, 156.446 129.769, 144.787 143.134 L 139 149.768 138.991 161.134 C 138.981 173.726, 141.028 217.241, 141.664 217.950 C 142.524 218.911, 155.852 214.686, 162.678 211.289 C 181.420 201.963, 193.401 186.825, 199.157 165.198 C 201.651 155.829, 202.137 135.377, 200.137 124 C 198.831 116.573, 195.637 104.359, 193.992 100.500 C 189.221 89.305, 187.606 86, 186.905 86 C 186.453 86, 182.620 91.287, 178.387 97.750 M 56.772 91.750 C 46.690 115.185, 44.939 152.831, 52.969 173.485 C 61.814 196.235, 78.415 211.096, 101.614 217.029 C 105.852 218.113, 110.651 219, 112.277 219 L 115.235 219 114.599 211.750 C 114.250 207.762, 113.528 192.589, 112.996 178.032 L 112.027 151.563 102.683 142.032 C 97.544 136.789, 90.853 129.575, 87.814 126 C 81.604 118.693, 63.684 94.964, 61.194 90.750 C 60.300 89.237, 59.302 88, 58.977 88 C 58.651 88, 57.659 89.688, 56.772 91.750" stroke="none" fill="#000000" fill-rule="evenodd"/><path fill-opacity=".12" d="M 56.303 97.231 C 51.909 110.473, 50.725 115.900, 48.928 131.031 C 46.890 148.184, 50.586 168.727, 58.277 183 C 63.163 192.068, 71.012 200.763, 79.705 206.736 C 88.335 212.667, 110.709 219.891, 112.841 217.436 C 113.288 216.921, 113.322 211.775, 112.917 206 C 112.512 200.225, 112.086 188.750, 111.971 180.500 C 111.856 172.250, 111.371 162.364, 110.893 158.531 L 110.025 151.562 101.202 142.531 C 91.322 132.418, 83.517 123.410, 76.931 114.519 C 74.494 111.230, 71.743 107.630, 70.818 106.519 C 69.893 105.409, 67.160 101.601, 64.744 98.058 C 62.328 94.516, 59.908 91.469, 59.367 91.289 C 58.826 91.109, 57.447 93.782, 56.303 97.231 M 141.514 177.606 C 141.761 181.948, 141.972 192.559, 141.982 201.187 L 142 216.874 145.750 216.298 C 147.813 215.982, 149.950 215.394, 150.500 214.992 C 151.050 214.590, 153.272 213.689, 155.438 212.991 C 160.115 211.482, 168.211 206.867, 168.688 205.437 C 168.873 204.881, 166.769 201.896, 164.012 198.803 C 161.256 195.710, 159 192.627, 159 191.953 C 159 191.278, 156.075 187.458, 152.500 183.463 C 148.925 179.469, 146 175.784, 146 175.275 C 146 174.765, 144.890 173.306, 143.533 172.031 L 141.065 169.713 141.514 177.606" stroke="none" fill="#000000" fill-rule="evenodd"/></svg>