<svg xmlns="http://www.w3.org/2000/svg" width="21" height="20" fill="#000000"><path fill="#171717" d="M14.97 4.735c-.992.114-1.844.486-2.548 1.112a.819.819 0 0 0-.153.16c.003.01-.013.03-.037.04-.021.014-.45.43-.951.925l-.912.905-.87-.868c-.72-.719-.89-.878-.988-.932-.389-.214-.83-.143-1.158.186a.948.948 0 0 0-.27.452c-.026.118-.023.339.008.458.063.244.098.288.711.903l.574.575H4.708l.051-.06c.027-.03.319-.378.646-.77.327-.39.628-.74.666-.774a.752.752 0 0 0 .128-.183.466.466 0 0 0 .06-.275c0-.138-.006-.168-.06-.275a.653.653 0 0 0-.34-.322c-.1-.036-.127-.036-2.455-.042L1.05 5.947l-.103.041a.71.71 0 0 0-.342.315c-.058.107-.062.125-.062.286 0 .15.006.184.049.273a.715.715 0 0 0 .376.344c.053.021.331.027 1.596.034l1.532.01-.568.681-.57.684H.95v1.158h.507c.278 0 .506.005.506.01 0 .019-1.324 1.59-1.422 1.685a.634.634 0 0 0 .183 1.05l.109.05H6.205l.12-.058a.65.65 0 0 0 .317-.31c.044-.09.051-.124.051-.265 0-.149-.005-.176-.06-.284a.611.611 0 0 0-.31-.302l-.1-.047-1.858-.006c-1.024-.002-1.86-.009-1.86-.012 0-.017 1.218-1.46 1.237-1.468.011-.003 1.068-.005 2.35-.003l2.329.005-.577.592c-.319.325-.6.627-.625.67a1.01 1.01 0 0 0-.137.652c.06.393.409.75.81.829a.967.967 0 0 0 .67-.127c.045-.029.47-.436.946-.904.474-.469.872-.853.881-.853.01 0 .404.391.876.87l.855.87.76.51c.418.278.77.517.782.53.047.046.425.171.756.25.973.232 2.093.098 3.012-.36.46-.23.78-.453 1.14-.8a4.51 4.51 0 0 0 1.395-3.561c-.089-1.17-.556-2.185-1.37-2.976a4.478 4.478 0 0 0-2.572-1.256 5.157 5.157 0 0 0-1.053-.02Zm.72 1.944a2.595 2.595 0 0 1 2.057 1.424 2.61 2.61 0 0 1-.259 2.746c-.14.183-.407.433-.608.566a2.578 2.578 0 0 1-2.09.375 2.924 2.924 0 0 1-.951-.452c-.06-.044-.365-.337-.678-.653-.313-.319-.757-.767-.986-.999l-.417-.42.607-.611c.332-.335.765-.77.958-.968.49-.5.748-.687 1.15-.843a2.597 2.597 0 0 1 1.217-.165Z"/><path fill="url(#a)" d="m12.281 9.536-.09.167-.016-.017-.416-.42 1.452-1.465-.301.562-.385.387-.16-.095.128.127-.48.484.268.27Z"/><path fill="url(#b)" d="M14.6 6.798 14.57 7l-.03.011h-.001c-.367.143-.603.31-1.085.802l-.543.549.3-.562.114-.114c.49-.5.747-.687 1.149-.843.042-.017.084-.032.127-.046Z"/><path fill="url(#c)" d="m17.485 7.685-.106.16A2.415 2.415 0 0 0 14.57 7l.032-.202a2.594 2.594 0 0 1 1.089-.119 2.589 2.589 0 0 1 1.795 1.006Z"/><path fill="url(#d)" d="m13.874 11.129.046.04-.031.203a2.552 2.552 0 0 1-.05-.034c-.06-.044-.365-.337-.678-.653-.306-.311-.735-.746-.97-.982l.09-.167.022.023c.23.231.674.68.987.999a24.789 24.789 0 0 0 .585.57Z"/><path fill="url(#e)" d="m14.834 11.614.042.01-.106.16c-.283-.072-.6-.22-.881-.412l.031-.202.003.002.002.002a1 1 0 0 0 .015.013l.005.004c.285.202.61.355.889.423Z"/><path fill="url(#f)" fill-rule="evenodd" d="M16.78 11.265a2.395 2.395 0 0 1-1.904.36l-.106.16.02.005a2.578 2.578 0 0 0 2.09-.374c.201-.134.469-.384.608-.567a2.61 2.61 0 0 0-.003-3.164l-.106.16c.077.107.146.22.206.34.374 1.06.09 1.913-.24 2.555-.127.166-.38.402-.565.525Z" clip-rule="evenodd"/><path fill="url(#g)" d="m13.543 13.593-.006-.005a87.535 87.535 0 0 0-.757-.511l-.775-.52-.869-.882 2.407 1.918Z"/><path fill="url(#h)" fill-rule="evenodd" d="m14.95 4.555-.105.195c-.938.13-1.748.498-2.422 1.097a.818.818 0 0 0-.154.16c.004.01-.013.03-.036.04-.022.014-.45.43-.952.925l-.912.905-.87-.868c-.72-.719-.89-.878-.988-.932-.388-.214-.83-.143-1.157.186a.948.948 0 0 0-.27.452c-.027.118-.023.339.007.458.064.244.098.288.711.903l.574.575H4.709l.05-.06c.01-.01.046-.053.103-.12l.543-.65c.328-.39.628-.74.666-.774a.752.752 0 0 0 .128-.183.466.466 0 0 0 .06-.275c0-.138-.005-.168-.06-.275a.654.654 0 0 0-.34-.322c-.099-.036-.126-.036-2.442-.042l-2.368-.003-.103.041a.71.71 0 0 0-.342.315c-.058.107-.062.125-.062.286 0 .15.006.184.05.273a.715.715 0 0 0 .376.344c.052.021.33.027 1.595.034l1.532.01-1.137 1.365H.949v1.158h.507a18.789 18.789 0 0 1 .326.003c.11.002.18.005.18.008a2.278 2.278 0 0 1-.139.173 73.477 73.477 0 0 1-1.282 1.511.634.634 0 0 0 .182 1.05l.109.05h5.373l.121-.058a.65.65 0 0 0 .317-.31c.043-.09.05-.124.05-.265 0-.149-.005-.176-.06-.284a.611.611 0 0 0-.31-.302l-.1-.047-1.858-.006c-.702-.001-1.316-.005-1.632-.008h-.047a4.259 4.259 0 0 1-.18-.005c0-.003.042-.056.111-.14l.031-.037a62.29 62.29 0 0 1 1.095-1.29c.01-.003 1.067-.005 2.35-.003l2.328.005-.577.592c-.318.325-.599.627-.624.67-.121.207-.17.44-.138.652.06.393.41.75.81.829a.967.967 0 0 0 .67-.127c.045-.029.47-.436.946-.904l.881-.853.836.831-.089.167a86.187 86.187 0 0 0-.748-.75l-.14.133a78 78 0 0 0-.613.6 64.308 64.308 0 0 1-.85.821c-.027.026-.05.047-.07.063a.528.528 0 0 1-.055.044 1.148 1.148 0 0 1-.8.152h-.001c-.475-.091-.884-.508-.956-.978a1.19 1.19 0 0 1 .16-.772l.001-.002.001-.001a.437.437 0 0 1 .037-.049l.046-.053a26.442 26.442 0 0 1 .567-.6l.278-.285-1.9-.004a577.023 577.023 0 0 0-2.27.002L3.82 10l-.142.164a94.188 94.188 0 0 0-.797.944l.171.002 1.313.005 1.899.006.136.064c.182.087.31.207.396.386a.682.682 0 0 1 .065.17c.012.06.013.122.013.194a.625.625 0 0 1-.068.344l-.001.002a.83.83 0 0 1-.402.393l-.157.075H.792l-.145-.068a.815.815 0 0 1-.234-1.342l.002-.002a105.53 105.53 0 0 0 1.176-1.383H.769v-1.52h2.104l.838-1.006-1.149-.007a96.617 96.617 0 0 1-1.255-.012 5.845 5.845 0 0 1-.258-.01.997.997 0 0 1-.076-.007.317.317 0 0 1-.074-.019.896.896 0 0 1-.47-.43v-.001a.58.58 0 0 1-.057-.162 1.119 1.119 0 0 1-.01-.191c0-.076 0-.14.013-.201a.89.89 0 0 1 .504-.567l.135-.055 2.39.003H3.423c1.152.003 1.738.004 2.049.01.304.005.367.013.45.043h.002c.187.07.348.226.438.411a.674.674 0 0 1 .066.17c.012.059.013.119.013.186a.866.866 0 0 1-.014.188.918.918 0 0 1-.233.404V7.18l-.015.016a289.14 289.14 0 0 1-1.08 1.274H7.94l-.266-.266c-.303-.304-.474-.478-.576-.607a.884.884 0 0 1-.182-.378c-.02-.08-.03-.18-.03-.272a1.2 1.2 0 0 1 .022-.272c.045-.198.157-.379.318-.54.38-.382.909-.471 1.373-.217.072.04.154.11.297.244.147.139.371.36.731.718l.743.742.784-.778a104.494 104.494 0 0 1 .93-.906 1.227 1.227 0 0 1 .03-.026l.002-.006a.749.749 0 0 1 .066-.08 2.44 2.44 0 0 1 .12-.114c.734-.652 1.621-1.04 2.647-1.157ZM3.866 9.948Z" clip-rule="evenodd"/><path fill="url(#i)" d="m13.543 13.593-2.407-1.918.09-.167.039.04.856.87.76.508.693.47-.03.197Z"/><path fill="url(#j)" d="m14.95 4.555-.03.185a5.38 5.38 0 0 0-.075.01l.104-.195Z"/><path fill="url(#k)" fill-rule="evenodd" d="M13.543 13.593a.333.333 0 0 0 .068.045 2.905 2.905 0 0 0 .266.104c.146.048.328.1.499.142 1.016.241 2.18.102 3.135-.374.476-.238.81-.473 1.185-.834.356-.343.622-.686.87-1.124a4.779 4.779 0 0 0 .58-2.58c-.093-1.213-.578-2.27-1.425-3.092a4.66 4.66 0 0 0-2.674-1.305l-.024.18.024-.18a5.327 5.327 0 0 0-1.097-.02l-.03.185a5.13 5.13 0 0 1 .05-.005c.651-.195 2.987.608 3.625 1.275.815.79 1.281 1.805 1.37 2.976a4.51 4.51 0 0 1-1.395 3.56c-.36.348-.68.572-1.14.802-.919.457-2.038.591-3.012.36-.33-.08-.709-.205-.756-.252l-.088-.06-.03.197Z" clip-rule="evenodd"/><path fill="#171717" d="M.226 13.12h.2c.11 0 .198.005.198.012 0 .006-.094.127-.208.268-.12.148-.208.273-.208.297 0 .038.005.038.299.038h.298v-.107l-.43-.01.206-.258c.14-.175.206-.271.206-.304v-.045h-.56v.109ZM1.076 13.735h.109v-.724h-.109v.724ZM1.529 13.735h.47v-.109h-.362v-.615H1.53v.724ZM2.252 13.735h.489v-.109h-.38v-.615h-.109v.724ZM2.994 13.735h.109v-.724h-.109v.724ZM3.6 13.046a.363.363 0 0 0 .013.662c.13.054.31.023.41-.07.143-.13.143-.4 0-.531a.411.411 0 0 0-.423-.061Zm.315.108c.047.025.11.15.11.219 0 .08-.065.194-.126.226a.337.337 0 0 1-.272 0c-.061-.033-.126-.146-.126-.226 0-.069.063-.194.112-.219a.319.319 0 0 1 .302 0ZM4.423 13.735h.109v-.244c0-.134.005-.245.014-.245.007 0 .098.11.203.245.16.206.197.242.24.244h.05v-.724h-.126l-.01.496-.198-.248c-.152-.19-.208-.248-.24-.248h-.042v.724ZM5.903 13.132l-.16.362-.106.24H5.7c.056 0 .061-.007.092-.09l.032-.09h.37l.038.09c.034.08.045.09.092.09.03 0 .054-.005.054-.01 0-.007-.07-.17-.156-.362-.152-.34-.157-.35-.21-.35-.046 0-.057.01-.108.12Zm.183.167c.03.072.056.139.056.148 0 .01-.062.016-.138.016-.076 0-.133-.007-.13-.014.004-.007.033-.082.067-.165.034-.081.067-.143.074-.134.01.008.04.075.07.149ZM6.744 13.27l-.157.362-.047.103h.06c.054 0 .061-.008.094-.09l.034-.091h.367l.038.09c.035.082.044.09.093.09.03 0 .056-.003.056-.008 0-.004-.071-.167-.156-.362-.156-.351-.156-.353-.213-.353-.055 0-.058.006-.169.259Zm.246.03c.031.075.056.142.056.149 0 .009-.061.014-.137.014-.103 0-.136-.005-.129-.023.066-.168.13-.3.14-.29a.94.94 0 0 1 .07.15ZM7.517 13.735h.126v-.096c.002-.078.011-.105.056-.157l.055-.064.058.065c.032.035.094.107.139.16.07.083.089.093.137.088l.058-.005-.152-.19a3.059 3.059 0 0 1-.152-.2c0-.005.066-.08.147-.168l.146-.157h-.061c-.052-.002-.081.02-.244.194l-.187.195v-.389h-.126v.724ZM8.526 13.132l-.16.362-.106.24h.062c.056 0 .061-.007.092-.09l.033-.09h.369l.038.09c.034.08.045.09.092.09.03 0 .054-.005.054-.01 0-.007-.07-.17-.155-.362-.152-.34-.158-.35-.21-.35-.047 0-.058.01-.109.12Zm.183.167c.03.072.056.139.056.148 0 .01-.061.016-.137.016-.076 0-.134-.007-.13-.014l.066-.165c.035-.081.067-.143.074-.134.01.008.04.075.071.149ZM9.235 13.735h.127v-.22l.208.012.07.105c.064.09.08.103.133.103h.058l-.084-.12c-.067-.096-.077-.123-.057-.135a.097.097 0 0 1 .04-.017c.032 0 .084-.123.084-.202a.186.186 0 0 0-.054-.149c-.067-.074-.166-.1-.38-.1h-.145v.723Zm.426-.57c.057.056.057.136.003.2-.036.042-.06.05-.172.059l-.13.009v-.313h.127c.112 0 .134.005.172.045ZM10.433 13.042c.014.018.072.098.127.177l.101.147-.123.17a2.397 2.397 0 0 0-.127.184c0 .01.027.015.06.015.053-.002.067-.015.156-.145l.1-.145c.003 0 .048.065.102.145.092.136.102.143.167.145h.067l-.12-.168-.136-.187c-.008-.01.035-.087.11-.193l.127-.176h-.061c-.056 0-.069.013-.148.127a.582.582 0 0 1-.102.126.714.714 0 0 1-.106-.126c-.084-.116-.098-.127-.156-.127-.06 0-.063.002-.038.03ZM11.46 13.038a.348.348 0 0 0-.22.335c0 .12.03.19.12.266a.354.354 0 0 0 .296.09.36.36 0 0 0 .168-.655.423.423 0 0 0-.363-.036Zm.22.082c.02 0 .065.027.103.061.065.062.067.065.067.192s-.002.13-.067.192c-.06.054-.08.061-.163.061-.12 0-.206-.049-.243-.135-.067-.163.008-.335.16-.371.032-.008.07-.011.083-.008.014.004.04.008.06.008Z"/><path fill="url(#l)" fill-rule="evenodd" d="M.19 13.156v-.181h.633v.081a.124.124 0 0 1-.016.053.637.637 0 0 1-.04.066c-.035.051-.087.12-.158.208l-.16.2.392.01v.178H.5c-.14 0-.217 0-.257-.005-.019-.002-.04-.007-.056-.022-.015-.017-.015-.038-.015-.046v-.001c0-.012.004-.022.007-.028a1.069 1.069 0 0 1 .059-.094c.037-.054.09-.123.15-.198a13.42 13.42 0 0 0 .172-.218 2.375 2.375 0 0 0-.135-.003H.19Zm.396-.031H.59c.022.002.035.005.035.007a.203.203 0 0 1-.02.03l-.001.001a9.759 9.759 0 0 1-.187.237c-.12.148-.208.273-.208.297 0 .038.006.038.299.038h.298v-.107l-.43-.01.206-.258c.14-.175.206-.271.206-.304v-.045h-.56v.109h.198c.067 0 .125.002.161.005Zm.454.646v-.796h.181v.796h-.18Zm.453 0v-.796h.18v.615h.362v.181h-.542Zm.506-.145v.109h-.47v-.724h.108v.615H2Zm.217.145v-.796h.181v.615h.38v.181h-.56Zm.525-.145v.109h-.489v-.724h.109v.615h.38Zm.217.145v-.796h.18v.796h-.18Zm.655-.063a.363.363 0 0 1-.013-.662.411.411 0 0 1 .423.061c.143.13.143.402 0 .532a.415.415 0 0 1-.41.069Zm.435-.628c.08.074.119.185.119.293 0 .108-.039.22-.12.293a.423.423 0 0 1-.212.098.434.434 0 0 1-.236-.023.4.4 0 0 1-.014-.728.447.447 0 0 1 .463.067Zm-.435.074c-.049.025-.112.15-.112.219 0 .08.065.194.126.226a.337.337 0 0 0 .272 0c.061-.033.126-.146.126-.226 0-.069-.063-.194-.11-.219a.319.319 0 0 0-.302 0Zm.285.032a.283.283 0 0 0-.268 0 .097.097 0 0 0-.027.026.326.326 0 0 0-.032.052.278.278 0 0 0-.034.109.25.25 0 0 0 .035.113c.023.04.05.07.072.081.03.016.074.024.119.024a.272.272 0 0 0 .119-.024.214.214 0 0 0 .072-.081.25.25 0 0 0 .035-.113.282.282 0 0 0-.034-.11.338.338 0 0 0-.032-.052.1.1 0 0 0-.025-.025Zm.49.585v-.796h.077a.09.09 0 0 1 .05.018c.015.01.032.026.051.046.039.04.092.103.168.197l.135.17.01-.431h.196v.796h-.087c-.035-.002-.064-.019-.1-.056a2.634 2.634 0 0 1-.168-.202 9.088 9.088 0 0 0-.149-.186c-.002.043-.003.1-.003.164v.28h-.18Zm.15-.483v-.006c.003-.023.005-.036.008-.036.002 0 .011.01.026.026l.003.004c.036.042.102.123.174.215.16.206.197.242.24.244h.05v-.724h-.125l-.011.496-.197-.248c-.152-.19-.209-.248-.241-.248h-.042v.724h.109v-.244c0-.084.002-.159.006-.203Zm1.332-.17a.474.474 0 0 1 .062-.112.089.089 0 0 1 .039-.026.133.133 0 0 1 .04-.005c.014 0 .034 0 .053.012.018.011.032.03.046.054.029.047.07.138.145.306a27.829 27.829 0 0 1 .156.363v.004h.001l.001.01a.039.039 0 0 1-.012.028.05.05 0 0 1-.013.009.092.092 0 0 1-.02.006.23.23 0 0 1-.045.004c-.026 0-.053-.003-.076-.026a.279.279 0 0 1-.05-.086l-.028-.069h-.32l-.024.067a.767.767 0 0 1-.02.052.128.128 0 0 1-.025.037c-.024.024-.055.025-.081.025h-.117l.127-.292.161-.361Zm-.046.436h.369l.038.09c.034.08.045.09.092.09.03 0 .054-.005.054-.01 0-.007-.07-.17-.155-.362-.152-.34-.158-.35-.21-.35-.047 0-.058.01-.109.12l-.16.362-.106.24H5.7c.056 0 .061-.007.092-.09l.033-.09Zm.228-.241a2.51 2.51 0 0 0-.04-.095c-.012.021-.024.05-.037.08l-.045.11-.004.01-.002.006a.933.933 0 0 0 .173-.001l-.005-.014a2.729 2.729 0 0 0-.04-.096Zm-.143.146a.207.207 0 0 1-.022-.004c-.01-.002-.014-.004-.013-.006l.02-.047.047-.118c.019-.043.036-.081.05-.106a.23.23 0 0 1 .01-.017c.007-.01.012-.013.014-.01a.128.128 0 0 1 .018.029c.014.028.033.072.053.119.03.072.056.14.056.148 0 .01-.062.016-.138.016a.882.882 0 0 1-.095-.004Zm-.018-.04Zm.696.213.062-.143.095-.22c.11-.252.114-.258.169-.258.057 0 .057.002.207.339l.006.014c.085.195.156.358.156.362 0 .004-.015.007-.035.008h-.021c-.05 0-.058-.008-.093-.09l-.038-.09h-.367l-.034.09c-.033.083-.04.09-.094.09h-.06l.047-.102Zm.166-.042-.025.067a.72.72 0 0 1-.023.053.132.132 0 0 1-.025.037c-.024.023-.054.024-.08.024h-.116l.07-.154.062-.143.095-.219c.055-.124.085-.193.108-.23a.109.109 0 0 1 .045-.042.109.109 0 0 1 .048-.008h.002c.013 0 .033 0 .052.01.02.01.034.029.048.052.027.045.065.132.137.293l.008.02a96.953 96.953 0 0 1 .156.36v.004l.002.002v.01c0 .016-.009.026-.014.03a.047.047 0 0 1-.013.007.302.302 0 0 1-.065.008c-.025 0-.053-.002-.076-.025a.144.144 0 0 1-.026-.036.712.712 0 0 1-.023-.052l-.029-.068h-.318Zm.143-.41a2.324 2.324 0 0 0-.115.26c-.008.018.025.023.128.023.076 0 .137-.005.137-.014a2.324 2.324 0 0 0-.109-.268.129.129 0 0 0-.017-.03c-.002-.003-.006 0-.012.01a.23.23 0 0 0-.011.017v.002Zm.02.04a2.785 2.785 0 0 0-.09.205A1.029 1.029 0 0 0 7 13.424a3.601 3.601 0 0 0-.084-.204Zm.565.551v-.796h.199v.335l.123-.13c.081-.086.131-.137.168-.166a.192.192 0 0 1 .054-.032.132.132 0 0 1 .05-.007h.144l-.204.218a3.964 3.964 0 0 0-.129.145l.03.039c.027.036.065.084.107.136l.19.239.12-.273.16-.361a.474.474 0 0 1 .062-.112.089.089 0 0 1 .039-.026.133.133 0 0 1 .04-.005c.015 0 .034 0 .053.012.018.011.032.03.047.054.028.047.068.138.144.306a27.829 27.829 0 0 1 .156.363l.001.004.001.01a.039.039 0 0 1-.012.028.05.05 0 0 1-.012.009.092.092 0 0 1-.02.006.23.23 0 0 1-.046.004c-.026 0-.053-.003-.076-.026a.278.278 0 0 1-.05-.086l-.028-.069h-.32l-.024.067a.761.761 0 0 1-.02.052.127.127 0 0 1-.025.037c-.024.024-.054.025-.081.025h-.117l.007-.015-.12.011a.119.119 0 0 1-.084-.016.438.438 0 0 1-.084-.085l-.027-.03c-.04-.048-.086-.1-.112-.128l-.03-.035-.028.032a.182.182 0 0 0-.038.058.248.248 0 0 0-.01.076v.132h-.198Zm.162-.132c.002-.078.011-.105.057-.157l.054-.064.058.065c.026.028.072.082.113.13.01.01.018.02.026.03.07.083.089.094.138.088l.057-.005-.152-.19a3.118 3.118 0 0 1-.152-.2c0-.005.066-.08.147-.168l.147-.157h-.062c-.052-.002-.081.02-.244.194l-.187.195v-.389h-.126v.724h.126v-.096Zm.804-.085h.369l.038.09c.034.08.045.09.092.09.03 0 .054-.005.054-.01 0-.007-.07-.17-.155-.362-.152-.34-.158-.35-.21-.35-.047 0-.058.01-.109.12l-.16.362-.106.24h.062c.056 0 .061-.007.092-.09l.033-.09Zm.229-.241a2.495 2.495 0 0 0-.042-.095l-.036.08-.045.11-.004.01-.002.006a.933.933 0 0 0 .173-.001 1.273 1.273 0 0 0-.044-.11Zm-.143.146a.207.207 0 0 1-.023-.004c-.009-.002-.014-.004-.013-.006l.02-.047.047-.118c.019-.043.037-.081.05-.106a.23.23 0 0 1 .01-.017c.007-.01.012-.013.014-.01a.128.128 0 0 1 .018.029c.014.028.034.072.053.119.03.072.056.14.056.148 0 .01-.061.016-.137.016a.882.882 0 0 1-.095-.004Zm-.019-.04Zm.685.352v-.796h.181c.214 0 .329.026.407.113.023.028.04.051.05.08.01.027.014.057.014.093a.403.403 0 0 1-.066.204.115.115 0 0 1-.02.022.059.059 0 0 1-.034.013c-.001 0-.003 0-.005.002l-.006.002a.67.67 0 0 0 .057.09l.123.177h-.127a.125.125 0 0 1-.084-.025.446.446 0 0 1-.078-.094l-.06-.09-.153-.008v.217H9.2Zm.163-.255.208.01.07.106c.064.09.08.103.133.103h.058l-.084-.12c-.066-.095-.077-.123-.057-.135a.096.096 0 0 1 .04-.017c.032 0 .084-.123.084-.202a.186.186 0 0 0-.054-.149c-.067-.074-.166-.1-.38-.1h-.145v.723h.127v-.22Zm.273-.326c-.017-.017-.026-.024-.042-.028a.463.463 0 0 0-.104-.006h-.09v.238l.09-.007a.493.493 0 0 0 .106-.014.085.085 0 0 0 .042-.03.124.124 0 0 0 .031-.08.1.1 0 0 0-.033-.072Zm.03.176c-.037.041-.06.049-.173.058l-.13.009v-.313h.127c.112 0 .134.005.172.045.058.056.058.136.003.2Zm.773-.318-.005-.006c-.022-.026-.022-.03.02-.03H10.471c.058 0 .072.01.156.126.05.069.1.126.106.126.01 0 .055-.057.102-.126.08-.114.092-.127.148-.127h.062l-.127.176c-.076.106-.12.182-.11.193.007.011.068.096.135.186l.12.169h-.067c-.065-.002-.074-.01-.167-.145a9.6 9.6 0 0 0-.101-.145.303.303 0 0 0-.022.03 9.6 9.6 0 0 0-.08.115c-.088.13-.102.143-.155.145-.01 0-.018 0-.026-.002-.02-.002-.034-.006-.034-.013.002-.007.058-.09.127-.184l.123-.17-.101-.147a4.992 4.992 0 0 0-.122-.171Zm.179.317-.087-.125a4.332 4.332 0 0 0-.142-.198.049.049 0 0 1-.006-.023.04.04 0 0 1 .016-.032.05.05 0 0 1 .02-.009.11.11 0 0 1 .016-.002l.037-.001c.015 0 .03 0 .046.005.017.004.031.011.045.023.026.02.053.057.094.114a1.83 1.83 0 0 0 .077.097l.008-.01c.018-.022.04-.053.064-.087a.66.66 0 0 1 .09-.113.113.113 0 0 1 .042-.024.163.163 0 0 1 .046-.005h.132l-.168.233a1.673 1.673 0 0 0-.102.163l.127.174.16.226h-.137a.207.207 0 0 1-.05-.006.116.116 0 0 1-.046-.025.737.737 0 0 1-.1-.13m0 0-.07-.101-.001-.002-.001.002-.07.101m-.04-.245-.108.15Zm-.172.37Zm1.001-.73a.42.42 0 0 1 .204-.026c.07.007.143.029.195.066a.396.396 0 0 1-.185.72.39.39 0 0 1-.324-.099.367.367 0 0 1-.103-.13.393.393 0 0 1-.03-.163c0-.083.021-.158.063-.22a.413.413 0 0 1 .18-.148Zm-.087.634a.354.354 0 0 0 .297.09.36.36 0 0 0 .168-.654.422.422 0 0 0-.363-.037.348.348 0 0 0-.221.335c0 .12.03.19.12.266Zm.26-.527a.248.248 0 0 0-.082.008c-.152.036-.227.208-.16.37.037.087.123.136.243.136.083 0 .103-.007.163-.061.065-.062.067-.065.067-.192s-.002-.13-.067-.192c-.038-.034-.083-.061-.103-.061a.278.278 0 0 1-.06-.008Zm.14.096a.346.346 0 0 0-.074-.05.032.032 0 0 0-.006-.002.316.316 0 0 1-.068-.008H11.589a.373.373 0 0 0-.044.007c-.126.03-.194.175-.134.322.029.07.1.113.209.113a.224.224 0 0 0 .077-.008.203.203 0 0 0 .061-.044c.034-.032.043-.042.049-.057a.384.384 0 0 0 .006-.108.383.383 0 0 0-.007-.108c-.005-.015-.014-.025-.048-.057Zm-10.683.527v-.724h.109v.724h-.109Zm1.918 0v-.724h.109v.724h-.109Z" clip-rule="evenodd"/><defs><linearGradient id="a" x1="20.55" x2=".214" y1="9.275" y2="9.275" gradientUnits="userSpaceOnUse"><stop stop-color="#9e9e9e"/><stop offset=".247" stop-color="#f0f0f0"/><stop offset=".451" stop-color="#b0b0b0"/><stop offset=".638" stop-color="#c7c7c7"/><stop offset=".7" stop-color="#f2f2f2"/><stop offset=".884" stop-color="#757575"/></linearGradient><linearGradient id="b" x1="20.55" x2=".214" y1="9.275" y2="9.275" gradientUnits="userSpaceOnUse"><stop stop-color="#9e9e9e"/><stop offset=".247" stop-color="#f0f0f0"/><stop offset=".451" stop-color="#b0b0b0"/><stop offset=".638" stop-color="#c7c7c7"/><stop offset=".7" stop-color="#f2f2f2"/><stop offset=".884" stop-color="#757575"/></linearGradient><linearGradient id="c" x1="20.55" x2=".214" y1="9.275" y2="9.275" gradientUnits="userSpaceOnUse"><stop stop-color="#9e9e9e"/><stop offset=".247" stop-color="#f0f0f0"/><stop offset=".451" stop-color="#b0b0b0"/><stop offset=".638" stop-color="#c7c7c7"/><stop offset=".7" stop-color="#f2f2f2"/><stop offset=".884" stop-color="#757575"/></linearGradient><linearGradient id="d" x1="20.55" x2=".214" y1="9.275" y2="9.275" gradientUnits="userSpaceOnUse"><stop stop-color="#9e9e9e"/><stop offset=".247" stop-color="#f0f0f0"/><stop offset=".451" stop-color="#b0b0b0"/><stop offset=".638" stop-color="#c7c7c7"/><stop offset=".7" stop-color="#f2f2f2"/><stop offset=".884" stop-color="#757575"/></linearGradient><linearGradient id="e" x1="20.55" x2=".214" y1="9.275" y2="9.275" gradientUnits="userSpaceOnUse"><stop stop-color="#9e9e9e"/><stop offset=".247" stop-color="#f0f0f0"/><stop offset=".451" stop-color="#b0b0b0"/><stop offset=".638" stop-color="#c7c7c7"/><stop offset=".7" stop-color="#f2f2f2"/><stop offset=".884" stop-color="#757575"/></linearGradient><linearGradient id="f" x1="20.55" x2=".214" y1="9.275" y2="9.275" gradientUnits="userSpaceOnUse"><stop stop-color="#9e9e9e"/><stop offset=".247" stop-color="#f0f0f0"/><stop offset=".451" stop-color="#b0b0b0"/><stop offset=".638" stop-color="#c7c7c7"/><stop offset=".7" stop-color="#f2f2f2"/><stop offset=".884" stop-color="#757575"/></linearGradient><linearGradient id="g" x1="20.55" x2=".214" y1="9.275" y2="9.275" gradientUnits="userSpaceOnUse"><stop stop-color="#9e9e9e"/><stop offset=".247" stop-color="#f0f0f0"/><stop offset=".451" stop-color="#b0b0b0"/><stop offset=".638" stop-color="#c7c7c7"/><stop offset=".7" stop-color="#f2f2f2"/><stop offset=".884" stop-color="#757575"/></linearGradient><linearGradient id="h" x1="20.55" x2=".214" y1="9.275" y2="9.275" gradientUnits="userSpaceOnUse"><stop stop-color="#9e9e9e"/><stop offset=".247" stop-color="#f0f0f0"/><stop offset=".451" stop-color="#b0b0b0"/><stop offset=".638" stop-color="#c7c7c7"/><stop offset=".7" stop-color="#f2f2f2"/><stop offset=".884" stop-color="#757575"/></linearGradient><linearGradient id="i" x1="20.55" x2=".214" y1="9.275" y2="9.275" gradientUnits="userSpaceOnUse"><stop stop-color="#9e9e9e"/><stop offset=".247" stop-color="#f0f0f0"/><stop offset=".451" stop-color="#b0b0b0"/><stop offset=".638" stop-color="#c7c7c7"/><stop offset=".7" stop-color="#f2f2f2"/><stop offset=".884" stop-color="#757575"/></linearGradient><linearGradient id="j" x1="20.55" x2=".214" y1="9.275" y2="9.275" gradientUnits="userSpaceOnUse"><stop stop-color="#9e9e9e"/><stop offset=".247" stop-color="#f0f0f0"/><stop offset=".451" stop-color="#b0b0b0"/><stop offset=".638" stop-color="#c7c7c7"/><stop offset=".7" stop-color="#f2f2f2"/><stop offset=".884" stop-color="#757575"/></linearGradient><linearGradient id="k" x1="20.55" x2=".214" y1="9.275" y2="9.275" gradientUnits="userSpaceOnUse"><stop stop-color="#9e9e9e"/><stop offset=".247" stop-color="#f0f0f0"/><stop offset=".451" stop-color="#b0b0b0"/><stop offset=".638" stop-color="#c7c7c7"/><stop offset=".7" stop-color="#f2f2f2"/><stop offset=".884" stop-color="#757575"/></linearGradient><linearGradient id="l" x1="12.249" x2=".206" y1="13.372" y2="13.372" gradientUnits="userSpaceOnUse"><stop stop-color="#9e9e9e"/><stop offset=".247" stop-color="#f0f0f0"/><stop offset=".451" stop-color="#b0b0b0"/><stop offset=".638" stop-color="#c7c7c7"/><stop offset=".7" stop-color="#f2f2f2"/><stop offset=".884" stop-color="#757575"/></linearGradient></defs></svg>