<svg xmlns="http://www.w3.org/2000/svg" width="32" height="32" version="1.1" fill="#000000"><path fill-opacity=".071" d="M 14.819 5.536 C 13.344 6.337, 11.851 7.894, 11.501 8.996 C 11.151 10.098, 10.446 11, 9.933 11 C 8.453 11, 5 14.850, 5 16.500 C 5 17.652, 6.278 18, 10.500 18 C 16.451 18, 16.885 17.635, 14.311 14.791 C 12.711 13.023, 12.775 12.781, 15.521 10.212 C 17.116 8.720, 17.650 8.437, 16.708 9.581 C 14.417 12.365, 15.338 13, 21.667 13 C 25.840 13, 27 12.660, 27 11.434 C 27 8.588, 25.086 6.226, 21.872 5.105 C 17.996 3.754, 18.114 3.747, 14.819 5.536 M 16 14.671 C 16 15.040, 16.760 16.183, 17.689 17.209 C 19.289 18.977, 19.225 19.219, 16.479 21.788 C 14.587 23.558, 14.227 23.718, 15.445 22.250 L 17.310 20 11.155 20 C 7.465 20, 5 20.427, 5 21.066 C 5 23.415, 7.121 25.846, 10.064 26.873 C 13.940 28.224, 19.481 26.210, 20.471 23.091 C 20.836 21.941, 21.754 21, 22.511 21 C 24.052 21, 27 17.243, 27 15.277 C 27 14.396, 25.296 14, 21.500 14 C 18.475 14, 16 14.302, 16 14.671" stroke="none" fill="#000000" fill-rule="evenodd"/><path fill-opacity=".194" d="M 10.221 10.547 C 7.349 13.597, 5 16.522, 5 17.047 C 5 17.571, 7.553 18, 10.674 18 L 16.349 18 14 15.500 L 11.651 13 14 10.500 C 16.929 7.383, 20.305 6.900, 17.500 10 C 15.710 11.978, 15.753 12, 21.345 12 C 24.455 12, 27 11.611, 27 11.135 C 27 10.659, 26.067 9.084, 24.927 7.635 C 23.354 5.635, 21.961 5, 19.148 5 C 15.946 5, 14.732 5.755, 10.221 10.547 M 18 16.500 L 20.349 19 18 21.500 C 15.071 24.617, 11.695 25.100, 14.500 22 C 16.290 20.022, 16.247 20, 10.655 20 C 4.370 20, 3.767 20.858, 7.455 24.545 C 11.455 28.546, 15.011 27.843, 21.453 21.779 C 24.504 18.908, 27 15.983, 27 15.279 C 27 14.391, 25.267 14, 21.326 14 L 15.651 14 18 16.500" stroke="none" fill="#000000" fill-rule="evenodd"/><path fill-opacity=".152" d="M 13.395 7.514 C 11.436 9.473, 10.949 10.853, 11.190 13.764 C 11.449 16.887, 11.911 17.557, 14 17.845 L 16.500 18.191 14.076 15.595 L 11.651 13 14 10.500 C 16.929 7.383, 20.305 6.900, 17.500 10 C 15.710 11.978, 15.753 12, 21.345 12 C 27.630 12, 28.233 11.142, 24.545 7.455 C 21.273 4.182, 16.703 4.206, 13.395 7.514 M 17 14.878 C 17 15.360, 17.695 16.332, 18.546 17.038 C 19.396 17.743, 19.860 18.923, 19.577 19.660 C 18.721 21.890, 21.918 21.173, 24.545 18.545 C 28.144 14.947, 27.613 14, 22 14 C 19.250 14, 17 14.395, 17 14.878" stroke="none" fill="#000000" fill-rule="evenodd"/><path fill-opacity=".197" d="M 14.869 6.510 C 11.897 8.124, 10.322 11, 12.409 11 C 13.149 11, 14.315 10.325, 15 9.500 C 15.685 8.675, 16.955 8, 17.822 8 C 19.049 8, 19.133 8.267, 18.200 9.200 C 16.047 11.353, 16.919 12, 21.979 12 C 26.865 12, 26.937 11.956, 25.868 9.610 C 24.812 7.292, 21.153 4.958, 18.703 5.040 C 18.041 5.062, 16.316 5.723, 14.869 6.510 M 20.393 15.582 C 20.727 16.452, 21 18.082, 21 19.204 C 21 21.070, 21.184 21.122, 23.158 19.811 C 24.345 19.023, 25.680 17.393, 26.126 16.189 C 26.864 14.194, 26.618 14, 23.361 14 C 20.512 14, 19.909 14.321, 20.393 15.582" stroke="none" fill="#000000" fill-rule="evenodd"/></svg>