<!-- Generated by IcoMoon.io -->
<svg version="1.1" xmlns="http://www.w3.org/2000/svg" width="32" height="32" viewBox="0 0 32 32" fill="#000000">
<title>zec</title>
<path d="M16.006 32.011c-8.826 0-16.006-7.18-16.006-16.006s7.18-16.006 16.006-16.006c8.825 0 16.006 7.18 16.006 16.006s-7.18 16.006-16.006 16.006zM16.006 1.561c-7.965 0-14.444 6.48-14.444 14.445s6.479 14.444 14.444 14.444c7.965 0 14.444-6.48 14.444-14.444s-6.48-14.445-14.444-14.445z"/>
<path d="M14.978 20.269h7.422v3.73h-4.567c0.076 1.066 0.114 2.056 0.19 3.121h-3.844v-3.083h-4.568c0-1.218-0.152-2.436 0.076-3.578 0.114-0.609 0.799-1.142 1.218-1.675 1.446-1.713 2.893-3.387 4.377-5.1 0.571-0.647 1.142-1.256 1.789-1.979h-7.117v-3.73h4.225v-3.121h3.692v3.045h4.606c0 1.256 0.152 2.474-0.076 3.616-0.114 0.609-0.799 1.142-1.256 1.675-1.446 1.713-2.893 3.387-4.377 5.101-0.571 0.685-1.142 1.294-1.789 1.979z"/>
</svg>
