<svg xmlns="http://www.w3.org/2000/svg" width="160" height="160" fill="#000000"><path fill-opacity=".318" fill-rule="evenodd" d="M60.787 2.041C37.163 7.85 16.408 25.256 6.503 47.566c-8.678 19.547-8.678 45.321 0 64.868 20.819 46.892 80.848 62.57 121.563 31.748 15.171-11.485 26.374-28.552 29.986-45.682.695-3.3 1.643-6.428 2.106-6.95 1.081-1.22 1.11-24.834.03-24.166-.446.276-1.385-2.285-2.087-5.691-5.808-28.203-30.17-52.705-59.358-59.703-10.865-2.605-27.244-2.583-37.956.051M.385 80c0 6.875.16 9.688.355 6.25.196-3.437.196-9.062 0-12.5C.545 70.313.385 73.125.385 80"/><path fill-opacity=".551" fill-rule="evenodd" d="M65 1.437C33.812 8.055 10.206 30.318 2.373 60.5c-2.501 9.637-2.501 29.363 0 39C11.516 134.729 43.941 160 80 160c30.229 0 58.924-18.081 71.905-45.31 3.738-7.839 7.095-18.933 7.095-23.445 0-1.17.45-2.405 1-2.745s1-4.668 1-9.618c0-5.745-.362-8.777-1-8.382-.553.342-1-.385-1-1.627 0-4.599-3.31-15.626-7.04-23.451-9.937-20.847-29.722-37.18-51.96-42.895C91.137.249 73.227-.309 65 1.437M43.03 79.75c.019 22.214.386 36.157.93 35.25.495-.825 7.425-11.85 15.402-24.5l14.502-23-10.932-.283L52 66.934V43h-9zM.36 80c0 5.225.169 7.362.375 4.75s.206-6.888 0-9.5S.36 74.775.36 80"/><path fill-opacity=".526" fill-rule="evenodd" d="M68.5 1.051C36.37 6.078 10.606 29.653 2.441 61.5c-2.437 9.503-2.437 27.497 0 37 9.345 36.449 40.327 60.694 77.559 60.694 31.927 0 59.177-17.445 72.406-46.354 3.618-7.906 6.594-18.556 6.594-23.595 0-1.72.45-3.405 1-3.745s1-3.318 1-6.618c0-3.745-.376-5.768-1-5.382-.588.364-1-.718-1-2.627 0-8.376-6.263-25.452-13.039-35.548-10.386-15.476-28.644-28.177-47.012-32.704C90.648.575 76.276-.166 68.5 1.051M42.667 42.667C42.3 43.033 42 60.005 42 80.381c0 31.774.199 36.839 1.399 35.583C44.858 114.437 74 68.235 74 67.449c0-.247-4.95-.449-11-.449H52V42h-4.333c-2.384 0-4.634.3-5 .667m58.65 25.604L86.133 92.5l10.903.282 10.903.283.28 12.217.281 12.218 4.25.307 4.25.308V81.057c0-20.381-.112-37.048-.25-37.036s-7.083 10.924-15.433 24.25M.32 80c0 3.575.182 5.037.403 3.25s.222-4.713 0-6.5C.502 74.963.32 76.425.32 80"/><path fill-opacity=".757" fill-rule="evenodd" d="M70.841 1.109C45.052 3.737 20.915 20.682 9.033 44.5 3.261 56.069.898 66.179.851 79.5c-.059 16.709 3.752 30.112 12.288 43.213l4.121 6.326 3.303-2.52c1.817-1.385 3.81-2.519 4.429-2.519s.861-.429.537-.953c-.667-1.079 7.168-7.538 12.765-10.524L42 110.545V42h10v24h10.833c5.959 0 11.087.253 11.397.563.309.31-4.989 9.412-11.774 20.226-6.785 10.815-12.251 19.741-12.146 19.834.104.094 3.565-.706 7.69-1.778 10.869-2.823 26.437-3.439 37.601-1.488 5.006.875 9.843 1.876 10.75 2.224 1.421.546 1.649-.211 1.649-5.474V94H97c-7.304 0-11-.368-11-1.095 0-1.284 29.785-48.654 31.105-49.47.52-.321.895 13.487.895 32.933v33.485l5.59 3.199c3.075 1.759 7.669 5.218 10.209 7.687s5.667 5.175 6.948 6.014c2.133 1.398 2.445 1.368 3.721-.363 7.472-10.138 13.393-25.507 14.264-37.026.309-4.085.945-7.665 1.415-7.955.469-.29.853-1.427.853-2.527s-.45-1.722-1-1.382c-.615.38-1-1.27-1-4.281 0-7.164-3.472-19.576-8.033-28.719-14.85-29.767-46.362-46.832-80.126-43.391M.158 80c0 1.375.227 1.938.504 1.25.278-.687.278-1.812 0-2.5-.277-.687-.504-.125-.504 1.25"/></svg>