<svg xmlns="http://www.w3.org/2000/svg" width="200" height="200" fill="#000000"><path fill-opacity=".376" fill-rule="evenodd" d="M15.581 2.014C9.045 4.566 4.434 9.225 1.998 15.736.063 20.907 0 23.555 0 100s.063 79.093 1.998 84.264c2.474 6.614 7.085 11.2 13.843 13.768 4.994 1.897 8.023 1.968 84.132 1.968 77.054 0 79.083-.049 84.412-2.043 6.334-2.37 11.761-7.782 13.615-13.576.683-2.135 1.637-4.308 2.121-4.831 1.134-1.225 1.161-160.843.027-160.142-.468.29-1.394-1.287-2.058-3.503-1.765-5.891-7.263-11.452-13.705-13.862C179.052.047 177.089.001 99.712.047 24.026.091 20.281.179 15.581 2.014M.477 100c0 44.275.123 62.388.273 40.25s.15-58.362 0-80.5S.477 55.725.477 100m88.502-29.808A1618 1618 0 0 1 68.75 81.699L59 87.129v47.501l3.25 1.674c1.787.921 7.75 4.345 13.25 7.61 5.5 3.264 13.221 7.777 17.157 10.029l7.156 4.094 12.844-7.648c7.064-4.206 15.093-9.014 17.843-10.684 2.75-1.671 6.009-3.525 7.242-4.121 2.229-1.078 2.242-1.223 2.25-24.785L140 87.098l-6.75-3.668c-3.713-2.017-9-5.026-11.75-6.685-2.75-1.66-6.575-3.9-8.5-4.978a2353 2353 0 0 1-8.521-4.806l-5.022-2.846zM94 77.641c-3.025 1.753-10.112 5.957-15.75 9.341L68 93.136v35.957l3.101 1.704c1.705.936 5.642 3.219 8.75 5.071 5.671 3.382 9.616 5.647 16.187 9.297l3.539 1.966 5.961-3.366c3.279-1.851 6.637-3.7 7.462-4.109s5.1-2.892 9.5-5.518l8-4.774.272-18.068.272-18.067-9.034-5.614c-4.968-3.088-9.261-5.615-9.54-5.615s-3.311-1.698-6.738-3.773L99.5 74.454z"/><path fill-opacity=".384" fill-rule="evenodd" d="M16.5 1.775C9.649 4.07 3.907 9.988 1.688 17.041.092 22.116-.025 28.92.227 102.029L.5 181.5l2.735 5.188c3.216 6.099 7.367 9.519 14.265 11.75 4.466 1.446 13.493 1.589 84.5 1.34l79.5-.278 5.151-2.717c5.849-3.084 8.142-5.625 10.738-11.897.999-2.412 2.22-5.167 2.714-6.122 1.037-2.008 1.252-159.453.216-158.417-.374.375-1.32-1.238-2.101-3.583-2.075-6.227-5.659-10.433-11.53-13.529L181.5.5l-80-.2C28.994.118 21.032.256 16.5 1.775M.476 100c0 43.725.123 61.612.274 39.75.15-21.863.15-57.638 0-79.5C.599 38.387.476 56.275.476 100m95.422-75.71c-1.869 1.266-6.998 4.304-11.398 6.752s-8.725 4.902-9.612 5.454c-.886.552-4.816 2.804-8.733 5.004l-7.121 4-.032 20.5c-.018 11.275-.363 20.991-.767 21.591-.404.599-4.335 3.029-8.735 5.398-4.4 2.37-9.125 5.073-10.5 6.008s-5.538 3.381-9.25 5.437L23 108.172v23.914c0 14.767.371 23.914.969 23.914.533 0 6.637 3.375 13.564 7.5s12.81 7.5 13.074 7.5 3.244 1.797 6.623 3.992c6 3.899 6.204 3.953 8.707 2.308 2.352-1.546 21.575-12.792 30.206-17.672l3.644-2.059 5.356 3.352c5.526 3.457 7.164 4.415 17.357 10.145 3.3 1.855 7.49 4.374 9.31 5.599 3.178 2.138 3.423 2.159 6.131.531 1.552-.933 7.038-4.117 12.19-7.076 5.153-2.96 12.624-7.347 16.602-9.75 3.978-2.404 7.691-4.37 8.25-4.37.661 0 1.017-8.371 1.017-23.914v-23.914l-6.75-3.738c-3.713-2.056-7.875-4.5-9.25-5.432s-5.65-3.393-9.5-5.468c-11.374-6.132-10.5-3.827-10.5-27.689C140 54.38 139.629 45 139.177 45c-.453 0-6.191-3.194-12.75-7.098S112.475 29.706 110 28.365s-5.896-3.325-7.602-4.408l-3.102-1.968zm-2.591 12.1c-2.832 1.865-5.521 3.552-5.978 3.75-4.332 1.88-18.587 10.369-18.936 11.278-.247.643-.324 7.788-.171 15.876L68.5 82l8.5-5.063c4.675-2.784 11.704-6.834 15.62-8.998l7.121-3.936 7.379 4.144c4.059 2.279 8.505 4.905 9.88 5.836 1.375.93 5.099 3.135 8.276 4.899l5.775 3.207-.275-15.748-.276-15.747-7-3.885c-3.85-2.136-10.656-6.095-15.124-8.796C103.908 35.211 99.848 33 99.354 33c-.495 0-3.216 1.526-6.047 3.39m4.143 39.474c-.523.475-4.044 2.539-7.825 4.586s-9.097 5.089-11.812 6.76l-4.938 3.038 7.678 4.376C84.775 97.031 88.435 99 88.686 99s1.15.694 1.998 1.541c1.388 1.388 1.775 1.388 3.893 0 2.987-1.957 6.843-1.967 9.805-.026 2.112 1.383 2.532 1.34 4.872-.5 1.409-1.108 2.778-2.015 3.043-2.015s3.464-1.743 7.11-3.873l6.628-3.874-2.767-1.816C119.253 85.804 99.762 75 99.025 75c-.344 0-1.052.389-1.575.864M56.5 99.359c-2.154 1.507-4.722 2.974-16.772 9.583l-7.771 4.263.271 18.635.272 18.635 10.109 5.512c5.56 3.032 10.735 6.007 11.5 6.611s3.248 2.118 5.517 3.364l4.127 2.267 4.688-2.864c7.118-4.349 7.562-4.61 14.841-8.732l6.782-3.841-4.586-2.908c-2.522-1.6-7.571-4.549-11.219-6.554-3.649-2.004-8.187-4.699-10.086-5.987S60.344 135 59.883 135c-.462 0-.961-8.334-1.111-18.52-.269-18.296-.296-18.504-2.272-17.121M68 113.438v15.478l4.75 2.724c2.612 1.498 8.398 4.892 12.856 7.542S94.002 144 94.356 144s.644-5.605.644-12.455c0-11.951-.101-12.555-2.5-14.954-1.375-1.375-2.5-3.317-2.5-4.315 0-1.17-2.04-2.952-5.75-5.021a906 906 0 0 1-11-6.251L68 97.96zm52.5-9.575c-8.122 4.662-10.334 6.443-11.778 9.481-.977 2.057-2.44 3.994-3.25 4.305-1.191.457-1.472 3.028-1.472 13.458 0 7.091.29 12.893.644 12.893s4.291-2.168 8.75-4.818 10.244-6.044 12.856-7.542l4.75-2.724v-15.458c0-8.502-.113-15.431-.25-15.397s-4.75 2.644-10.25 5.802m19.497 12.289-.002 18.348-3.471 2c-1.908 1.1-6.877 3.935-11.042 6.3-4.164 2.366-9.583 5.577-12.041 7.136l-4.47 2.834 8.145 4.615c4.48 2.538 8.499 4.615 8.932 4.615s.935.352 1.119.783c.734 1.725 7.929 5.119 9.585 4.522.962-.347 3.998-2.064 6.748-3.817 4.41-2.81 15.287-9.027 21-12.003 1.876-.977 2.017-2.203 2.272-19.697l.272-18.656-10.272-5.556c-5.65-3.056-11.735-6.505-13.522-7.664L140 97.804z"/><path fill-opacity=".367" fill-rule="evenodd" d="M19.5.961C11.076 3.168 6.291 6.844 2.863 13.744L.5 18.5v163l2.735 5.188c1.505 2.853 4.205 6.269 6 7.59 7.356 5.413 4.019 5.222 91.265 5.222h81l4.5-2.367c2.475-1.301 5.336-3.101 6.358-4 2.376-2.089 6.642-10.464 6.642-13.041 0-1.086.45-2.252 1-2.592.653-.403 1-27.697 1-78.618 0-51.745-.337-77.792-1-77.382-.55.34-1-.254-1-1.319 0-5.924-5.349-13.273-12.349-16.964L181.5.5 102 .338C58.275.249 21.15.529 19.5.961M.476 100c0 43.175.123 60.838.274 39.25.15-21.587.15-56.912 0-78.5C.599 39.163.476 56.825.476 100m94.47-75.185C92.501 26.364 86.45 29.822 81.5 32.5s-9.225 5.171-9.5 5.539-3.312 2.171-6.75 4.007L59 45.383v20.653c0 23.924 1.302 21.031-13 28.882-5.225 2.868-12.538 7.022-16.25 9.23L23 108.163l.017 23.669.017 23.668 6.733 3.732c11.229 6.223 25.666 14.63 26.827 15.621.602.514 2.439 1.63 4.084 2.481 2.794 1.444 3.214 1.405 6.406-.607C70.932 174.302 87.183 165 87.573 165c.139 0 2.644-1.575 5.567-3.5s5.785-3.5 6.36-3.5 3.305 1.488 6.066 3.306 9.013 5.483 13.893 8.143 10.419 5.886 12.308 7.168c3.281 2.226 3.575 2.258 6.584.717 1.732-.887 3.374-1.925 3.649-2.307s3.425-2.298 7-4.259c3.575-1.96 10.752-6.085 15.949-9.166s9.809-5.602 10.25-5.602c.44 0 .801-10.788.801-23.974v-23.974l-7.25-4.124c-13.771-7.832-23.374-13.434-26.057-15.201L140 86.954l-.001-20.727-.002-20.727L133.5 42c-3.574-1.925-6.498-3.837-6.499-4.25s-.393-.75-.873-.75c-1.044 0-19.251-10.24-23.175-13.033-1.519-1.082-2.942-1.967-3.162-1.967s-2.4 1.267-4.845 2.815M94 36.022c-2.475 1.576-8.775 5.228-14 8.115s-10.074 5.818-10.776 6.512c-.948.936-1.205 5.101-1 16.181l.276 14.921 6.5-3.804C89.325 69.563 98.551 64.5 99.5 64.5c1.095 0 18.692 9.48 19.5 10.505.275.349 3.088 2.022 6.25 3.719l5.75 3.084V66.832c0-10.659-.36-15.328-1.25-16.201-.687-.675-5.167-3.355-9.955-5.957s-11.077-6.292-13.977-8.202-5.733-3.437-6.295-3.393c-.563.043-3.048 1.368-5.523 2.943m-1.5 42.711c-3.3 1.959-9.094 5.349-12.876 7.534l-6.875 3.972 8.486 4.63c4.667 2.547 9.148 5.186 9.957 5.864 1.176.985 1.858.941 3.39-.218 2.461-1.862 7.375-1.862 9.836 0 1.532 1.159 2.214 1.203 3.39.218.809-.678 5.23-3.284 9.825-5.792l8.354-4.558-5.244-3.247c-7.578-4.692-20.986-12.15-21.664-12.051-.318.047-3.279 1.689-6.579 3.648M56 99.74c-1.375 1.058-6.834 4.251-12.131 7.096-5.296 2.844-10.145 5.791-10.773 6.549-.787.947-1.058 6.912-.87 19.128l.274 17.752 3 1.624c10.446 5.657 17.655 9.801 22.169 12.743 2.844 1.852 5.478 3.368 5.855 3.368s2.599-1.291 4.938-2.87c2.339-1.578 8.173-5.007 12.964-7.619l8.713-4.749-3.18-1.933c-1.75-1.064-7.293-4.24-12.32-7.057-5.026-2.818-9.364-5.382-9.639-5.699s-1.728-1.209-3.229-1.982l-2.728-1.406-.272-18.434-.271-18.435zm12.224 13.784.276 15.623 5.5 3.003c3.025 1.651 7.075 4.027 9 5.28 4.233 2.754 10.946 6.57 11.557 6.57.244 0 .443-5.605.443-12.455 0-11.951-.101-12.555-2.5-14.954-1.375-1.375-2.5-3.337-2.5-4.36 0-1.094-1.339-2.54-3.25-3.509-2.978-1.511-12.751-7.094-17.026-9.726-1.676-1.032-1.76-.217-1.5 14.528m59.618-13.616c-1.461 1.15-2.884 2.092-3.162 2.092-.277 0-3.695 1.84-7.595 4.088-4.719 2.721-7.286 4.864-7.673 6.405-.32 1.275-1.668 3.338-2.997 4.586-2.3 2.162-2.415 2.856-2.415 14.595 0 6.779.168 12.326.374 12.326.661 0 10.073-5.279 11.626-6.521.825-.659 4.2-2.649 7.5-4.421s6.35-3.558 6.777-3.967.652-7.614.5-16.01l-.277-15.266zM140 116.311c0 17.658-.096 18.585-1.994 19.187-1.097.348-2.559 1.195-3.25 1.881s-4.185 2.855-7.766 4.82c-3.58 1.964-9.149 5.162-12.376 7.106l-5.866 3.534 4.876 2.575c6.701 3.539 12.099 6.654 17.133 9.886l4.257 2.734 4.134-2.109c2.274-1.16 4.633-2.541 5.243-3.068s5.947-3.678 11.859-7l10.75-6.041v-17.753c0-20.617 1.179-18.262-13-25.969-5.225-2.84-10.512-5.878-11.75-6.751L140 97.756z"/><path fill-rule="evenodd" d="M18.146 1.557C8.541 4.168 4.026 8.834 1.476 18.785.148 23.971-.021 35.268.221 102.639L.5 180.5l2.629 5.607c3.229 6.886 7.575 10.346 15.567 12.394 5.302 1.358 16.084 1.522 83.943 1.278l77.861-.279 6-3c6.542-3.271 9.82-7.202 11.601-13.909.597-2.25 1.494-4.872 1.993-5.827 1.053-2.019 1.265-155.456.213-154.404-.381.381-1.294-1.656-2.029-4.527-1.828-7.144-5.495-11.573-12.171-14.704L180.5.5 102 .301C35.964.134 22.65.333 18.146 1.557M95 24.584c-1.925 1.367-7.678 4.744-12.785 7.505-5.107 2.76-10.949 6.148-12.984 7.529s-5.16 3.204-6.946 4.051l-3.246 1.54-.269 21.136-.27 21.136-5.22 3.01a3819 3819 0 0 0-17.75 10.361L23 108.205l.001 23.647.002 23.648L29.5 159c3.574 1.925 6.498 3.838 6.499 4.25s.411.75.913.75c1.108 0 13.61 7.024 20.856 11.718l5.267 3.412 4.233-2.484c2.327-1.366 8.507-4.849 13.732-7.74s9.725-5.548 10-5.906 2.327-1.663 4.561-2.902l4.061-2.254 3.939 2.283c2.166 1.256 4.164 2.582 4.439 2.947s2.75 1.845 5.5 3.289c6.713 3.526 12.127 6.643 17.261 9.94 4.142 2.659 4.353 2.69 7.5 1.096 1.782-.902 3.914-2.207 4.739-2.9.825-.692 4.425-2.856 8-4.809 3.575-1.952 10.325-5.83 15-8.619s8.838-5.07 9.25-5.07c.412-.001.75-10.779.75-23.953v-23.952l-6.054-3.548c-3.329-1.951-6.442-3.548-6.916-3.548s-1.013-.385-1.197-.856c-.183-.47-3.933-2.798-8.333-5.173s-9.238-5.17-10.75-6.212L140 86.864V45.21l-5.25-2.717c-2.887-1.494-5.925-3.268-6.75-3.941s-6.225-3.831-12-7.017-11.573-6.636-12.885-7.664c-3.04-2.385-3.855-2.313-8.115.713M.476 100c0 42.625.123 60.063.274 38.75.15-21.312.15-56.187 0-77.5C.599 39.938.476 57.375.476 100M94.5 35.83c-2.2 1.522-7.6 4.716-12 7.098-4.4 2.383-9.459 5.286-11.243 6.452l-3.243 2.12-.007 15.154L68 81.808l5.75-3.084c3.162-1.697 5.975-3.379 6.25-3.738s3.425-2.254 7-4.211 7.855-4.341 9.51-5.297l3.01-1.739 8.99 5.091c4.945 2.801 9.44 5.468 9.99 5.927s3.588 2.234 6.75 3.943l5.75 3.108V66.814c0-14.326-.1-15.077-2.25-16.87-1.237-1.033-2.548-1.892-2.912-1.911-.928-.046-14.299-7.666-20.507-11.686-2.844-1.841-5.544-3.333-6-3.315-.457.017-2.631 1.276-4.831 2.798m-6.038 45.396c-6.029 3.355-11.187 6.397-11.462 6.76s-1.365.98-2.421 1.371c-1.658.614-1.383.998 2 2.795 2.156 1.146 6.533 3.605 9.725 5.466 6.044 3.522 8.153 4.069 9.196 2.382.975-1.578 8.101-1.185 9.521.525 1.073 1.293 1.511 1.318 2.872.167 1.397-1.18 8.956-5.577 15.78-9.178 2.087-1.101 1.988-1.266-2.5-4.157-2.57-1.656-8.515-5.085-13.211-7.621l-8.539-4.61zM56 99.748c-1.375 1.063-6.55 4.1-11.5 6.749-13.614 7.285-12.5 5.009-12.5 25.546v17.734l11.75 6.706c6.463 3.689 13.521 7.756 15.685 9.038l3.936 2.33 3.564-1.971c1.961-1.085 6.94-3.989 11.065-6.455 4.125-2.465 8.606-4.944 9.958-5.508 2.45-1.022 2.451-1.029.352-2.221-14.521-8.246-22.901-13.141-23.31-13.617-.275-.32-1.728-1.215-3.229-1.988l-2.728-1.406-.272-18.434-.271-18.435zm12.225 13.825.275 15.574 5.5 3.003c3.025 1.651 7.075 4.027 9 5.28 4.233 2.754 10.946 6.57 11.557 6.57.244 0 .443-5.57.443-12.378 0-10.297-.278-12.608-1.655-13.75-.91-.754-2.255-2.808-2.989-4.564-1.036-2.478-3.291-4.255-10.095-7.952-4.819-2.618-9.356-5.344-10.082-6.058S68.653 98 68.403 98s-.33 7.008-.178 15.573m60.596-14.275c-.726.714-5.255 3.436-10.064 6.049-6.272 3.407-8.911 5.416-9.335 7.107-.325 1.296-1.678 3.377-3.007 4.625-2.3 2.162-2.415 2.856-2.415 14.595 0 6.779.234 12.326.52 12.326.48 0 5.344-2.787 10.018-5.74 1.079-.682 5.225-3.085 9.212-5.34l7.25-4.101V113.41c0-8.476-.193-15.41-.429-15.41-.235 0-1.023.584-1.75 1.298M140 116.323c0 18.561-.001 18.568-2.396 19.872-3.775 2.056-15.501 8.773-22.417 12.841l-6.313 3.714 8.382 4.533c4.611 2.492 10.548 5.905 13.194 7.583 4.652 2.95 4.913 2.999 7.93 1.472 1.716-.869 3.795-2.142 4.62-2.829s3.75-2.48 6.5-3.985a2060 2060 0 0 0 11.25-6.215l6.25-3.481v-17.759c0-15.666-.206-17.939-1.75-19.284-.963-.838-2.2-1.695-2.75-1.905-1.717-.653-17.884-9.861-20.25-11.534l-2.25-1.59z"/></svg>