<!-- Generated by IcoMoon.io -->
<svg version="1.1" xmlns="http://www.w3.org/2000/svg" width="32" height="32" viewBox="0 0 32 32" fill="#000000">
<title>zoon</title>
<path d="M22.938 2.13c-0.084 0.084-0.154 0.419-0.154 0.744 0 0.677 0.265 1 1.334 1.622 0.889 0.518 0.894 0.68 0.020 0.68-0.645 0-0.715 0.027-0.715 0.274 0 0.254-0.049 0.269-0.672 0.203-0.857-0.090-1.729-0.463-2.807-1.201-0.479-0.328-1.019-0.593-1.228-0.604-0.221-0.011-0.572-0.193-0.859-0.445-0.398-0.349-0.567-0.417-0.935-0.374-0.275 0.032-0.626-0.038-0.905-0.18-0.717-0.366-1.595-0.306-2.431 0.166-0.874 0.493-1.33 0.457-2.749-0.216-1.076-0.511-1.693-0.544-2.331-0.126-0.541 0.355-0.427 0.85 0.357 1.543 1.16 1.026 1.878 1.253 3.371 1.066 1.329-0.167 2.299-0.159 2.735 0.021 0.676 0.28 0.437 0.396-0.633 0.307-0.971-0.081-1.048-0.068-1.521 0.26l-0.499 0.346-0.771-0.2c-0.885-0.229-1.178-0.166-1.178 0.252 0 0.49 0.132 0.692 0.723 1.098 0.472 0.325 0.736 0.403 1.617 0.476l1.052 0.087 0.039 0.398c0.047 0.486-0.425 1.1-1.118 1.453-0.645 0.329-1.99 0.555-2.692 0.453-0.483-0.071-0.553-0.056-0.415 0.085 0.212 0.217 2.309 0.311 2.836 0.128 0.37-0.129 0.378-0.123 0.308 0.228-0.089 0.443 0.15 0.924 0.434 0.875 0.139-0.024 0.251 0.095 0.328 0.348 0.064 0.211 0.202 0.585 0.307 0.831l0.19 0.446 0.244-0.301c0.151-0.186 0.244-0.503 0.245-0.831 0.001-0.291 0.060-0.616 0.13-0.722 0.113-0.169 0.144-0.166 0.254 0.020 0.096 0.162 0.246 0.196 0.638 0.143 0.428-0.057 0.565-0.016 0.831 0.249l0.318 0.318-0.639-0.061c-0.351-0.034-0.638-0.011-0.638 0.051s0.115 0.415 0.256 0.786c0.328 0.862 0.323 0.927-0.071 0.927-0.545 0-1.482 0.281-1.553 0.465-0.037 0.095-0.116 0.143-0.177 0.105-0.355-0.219-1.52 0.876-1.785 1.677-0.156 0.472-0.114 1.978 0.072 2.585 0.133 0.436-0.157 0.354-0.398-0.113-0.118-0.228-0.182-0.572-0.149-0.799 0.032-0.219 0.011-0.561-0.046-0.762-0.169-0.59 0.064-1.487 0.489-1.885 0.207-0.193 0.481-0.371 0.611-0.396 0.206-0.040 0.516-0.43 0.787-0.992 0.108-0.223-0.285-0.525-0.683-0.525-0.198 0-0.42 0.173-0.68 0.531-0.39 0.539-0.489 0.877-0.257 0.877 0.252 0 0.121 0.196-0.235 0.354-0.511 0.226-0.729 0.711-0.703 1.568 0.023 0.78 0.053 0.742-1.014 1.253-0.053 0.025-0.096-0.066-0.096-0.202 0-0.454-0.556-0.898-1.232-0.984-1.056-0.134-1.559-0.317-1.836-0.67-0.314-0.399-0.286-0.559 0.135-0.773 0.288-0.147 0.269-0.158-0.289-0.16-0.935-0.003-1.186 0.422-0.63 1.067 0.303 0.352 0.841 0.595 1.318 0.596 0.634 0.001 1.315 0.224 1.581 0.519 0.324 0.358 0.295 1.452-0.057 2.141-0.263 0.517-0.82 1.053-1.087 1.048-0.213-0.004-1.107-0.467-1.595-0.825-0.235-0.173-0.752-0.435-1.147-0.583-0.602-0.225-0.873-0.255-1.66-0.181-0.791 0.074-0.971 0.136-1.136 0.388-0.433 0.662 0.495 2.048 1.621 2.422 0.385 0.128 1.372 0.246 2.558 0.307 2.445 0.125 2.314 0.041 3.776 2.4l0.384 0.62h0.899c1.052 0 1.448 0.199 1.777 0.892 0.457 0.964 0.066 1.14-2.258 1.020l-1.501-0.078-0.643 0.417c-0.386 0.25-0.643 0.51-0.643 0.651 0 0.347 0.826 1.198 1.444 1.487 1.167 0.546 2.082 0.485 3.178-0.209 1.435-0.91 1.951-0.848 2.413 0.29 0.34 0.839 0.55 0.896 1.513 0.413 1.054-0.528 1.574-0.644 2.736-0.611 1.164 0.033 5.065-0.568 6.134-0.946 1.884-0.665 4.093-3.315 4.106-4.924 0.006-0.771-0.094-1.105-0.488-1.631-0.252-0.336-0.284-0.463-0.172-0.674 0.195-0.364-0.179-0.493-0.524-0.18-0.2 0.181-0.307 0.203-0.475 0.094-0.166-0.107-0.208-0.293-0.181-0.795 0.027-0.493-0.008-0.654-0.144-0.654-0.122 0-0.199 0.206-0.241 0.645-0.057 0.591-0.125 0.704-0.813 1.344-0.413 0.385-0.764 0.699-0.779 0.699s0.093-0.273 0.241-0.607c0.436-0.986 0.61-1.822 0.611-2.945 0.001-0.581 0.030-1.056 0.065-1.056s0.404 0.264 0.819 0.587c1.296 1.006 2.141 0.864 3.044-0.511 0.224-0.341 0.585-0.803 0.802-1.028 0.48-0.495 0.647-1.032 0.647-2.079 0-0.555-0.075-0.921-0.248-1.217-0.137-0.233-0.343-0.841-0.459-1.352-0.282-1.245-0.911-2.161-2.755-4.014-1.476-1.482-1.715-1.829-2.471-3.584-0.17-0.396-0.522-0.954-0.781-1.241-0.756-0.837-1.951-1.292-2.349-0.894zM9.912 3.324c0.137 0.103 0.384 0.188 0.549 0.188 0.305 0 1.382 0.487 1.287 0.582-0.029 0.029-0.423-0.011-0.876-0.088s-1.098-0.136-1.432-0.132c-0.665 0.008-0.742-0.1-0.352-0.49 0.302-0.302 0.487-0.315 0.824-0.060zM4.82 6.946c-0.116 0.129-0.212 0.417-0.212 0.64 0 0.493 0.702 1.326 1.431 1.698 0.564 0.287 0.687 0.753 0.201 0.76-0.281 0.004-0.282 0.009-0.040 0.192 0.502 0.38 1.338 0.123 1.154-0.356-0.040-0.106-0.336-0.327-0.656-0.492-0.627-0.322-1.195-1.027-1.195-1.482 0-0.381 0.329-0.683 0.745-0.684l0.343-0.001-0.384-0.254c-0.482-0.319-1.11-0.329-1.388-0.022zM14.592 7.285c0 0.129-0.772 0.451-1.082 0.451-0.486 0-0.395-0.212 0.154-0.358 0.544-0.144 0.928-0.183 0.928-0.093zM6.486 7.564c-0.115 0.115 0.16 0.428 0.377 0.428s0.227-0.154 0.023-0.358c-0.174-0.174-0.278-0.192-0.4-0.069zM0.64 8.079c-0.438 0.17-0.64 0.475-0.64 0.963 0 0.868 0.563 1.602 1.646 2.145 0.647 0.324 2.218 0.683 2.318 0.529 0.037-0.058 0.372-0.133 0.743-0.168s0.708-0.097 0.749-0.137c0.041-0.041-0.162-0.32-0.451-0.62-0.669-0.696-0.728-1.169-0.084-0.683 0.325 0.246 0.664 0.239 0.762-0.015 0.11-0.287 0.101-0.309-0.119-0.309-0.108 0-0.334-0.090-0.501-0.2-0.279-0.183-0.315-0.181-0.428 0.020-0.114 0.204-0.133 0.202-0.257-0.030-0.116-0.217-0.257-0.247-1.067-0.225-0.79 0.021-0.968 0.069-1.161 0.308-0.261 0.322-0.291 0.667-0.091 1.042 0.223 0.416 0.052 0.407-0.376-0.020-0.514-0.514-0.733-1.281-0.503-1.762 0.128-0.269 0.285-0.366 0.678-0.422 0.508-0.072 0.509-0.073 0.173-0.216-0.453-0.192-1.153-0.293-1.39-0.201zM7.296 8.745c0 0.132 0.086 0.311 0.19 0.398 0.154 0.128 0.206 0.119 0.27-0.050 0.081-0.211-0.143-0.589-0.348-0.589-0.062 0-0.112 0.108-0.112 0.24zM22.6 9.67c0.479 0.506 1.702 1.344 2.435 1.669 0.514 0.228 0.559 0.283 0.484 0.596-0.305 1.272-1.144 1.751-2.504 1.431-1.487-0.35-2.538-1.163-2.532-1.959 0.006-0.857 0.915-2.134 1.519-2.134 0.122 0 0.391 0.179 0.598 0.397zM16.2 9.596c-0.137 0.103-0.309 0.186-0.384 0.184s-0.024-0.089 0.113-0.192c0.137-0.103 0.31-0.186 0.384-0.184s0.024 0.089-0.113 0.192zM13.541 10.648c-0.228 0.536-0.388 0.662-0.284 0.224 0.113-0.477 0.167-0.576 0.316-0.576 0.065 0 0.050 0.158-0.032 0.352zM7.566 10.541c-0.659 0.114-0.955 0.437-0.857 0.939l0.069 0.352-2.49 0.047 1.344 0.073c0.965 0.052 1.47 0.141 1.792 0.314 1.806 0.974 2.739 2.709 1.824 3.392l-0.352 0.263 0.399 0.004c0.529 0.005 1.073-0.431 1.073-0.861 0-0.513-0.472-1.373-1.031-1.879-0.54-0.488-0.622-0.622-0.308-0.501 0.187 0.072 1.211-0.851 1.211-1.092 0-0.056-0.187-0.311-0.416-0.568-0.351-0.394-0.516-0.476-1.056-0.523-0.352-0.031-0.893-0.013-1.202 0.041zM22.424 10.751c-0.627 0.448-0.611 1.243 0.033 1.665 0.886 0.58 1.935-0.645 1.255-1.465-0.308-0.371-0.916-0.466-1.288-0.2zM22.883 11.088c-0.079 0.237-0.355 0.277-0.355 0.051 0-0.111 0.091-0.203 0.203-0.203s0.18 0.068 0.152 0.152zM19.265 11.833c0.128 0.141 0.195 0.295 0.149 0.341-0.093 0.093-0.597-0.319-0.597-0.489 0-0.187 0.207-0.118 0.449 0.149zM10.399 12.43c-0.625 0.252-0.341 1.159 0.496 1.586 0.287 0.146 0.535 0.248 0.551 0.225s0.22-0.358 0.452-0.745c0.233-0.387 0.481-0.741 0.551-0.786s0.088-0.146 0.040-0.224c-0.088-0.142-1.767-0.188-2.090-0.057zM18.030 14.734c0.2 0.997 0.19 1.094-0.174 1.63-0.37 0.545-0.399 0.716-0.121 0.716 0.109 0 0.282-0.2 0.384-0.443 0.317-0.758 1.082-0.987 1.082-0.325 0 0.299 0.057 0.384 0.256 0.384 0.213 0 0.256-0.085 0.256-0.504 0-0.615 0.133-0.712 0.979-0.712 0.448 0 0.738-0.072 0.907-0.225 0.179-0.162 0.362-0.202 0.65-0.145 0.379 0.076 0.391 0.095 0.213 0.349-0.519 0.74 0.175 1.512 0.769 0.855 0.167-0.185 0.209-0.375 0.156-0.701-0.070-0.432-0.054-0.454 0.437-0.601l0.51-0.153 0.89 0.883c0.841 0.835 0.889 0.914 0.887 1.462-0.006 1.513-0.837 3.731-1.491 3.98-0.338 0.128-0.811 0.056-0.811-0.124 0-0.054 0.144-0.164 0.32-0.245 0.91-0.415 1.165-2.455 0.307-2.455-0.743 0-1.355 1.013-1.208 1.998l0.084 0.562h-0.405c-0.392 0-0.991 0.47-1.339 1.052-0.070 0.118-0.336 0.251-0.59 0.296-0.409 0.072-0.471 0.047-0.542-0.217-0.044-0.164-0.081-0.669-0.082-1.122-0.003-1.177-0.39-2.337-0.807-2.418-0.305-0.059-0.974 0.645-1.070 1.126-0.086 0.429-0.684 0.848-1.024 0.717-0.103-0.040-0.351 0.049-0.55 0.196-0.247 0.183-0.632 0.29-1.206 0.336-0.824 0.066-0.846 0.060-0.974-0.278-0.198-0.52-0.158-1.985 0.075-2.77 0.249-0.839 0.838-2.035 1.367-2.773 0.278-0.389 0.507-0.564 0.811-0.621 0.233-0.044 0.49-0.16 0.571-0.258 0.249-0.3 0.332-0.207 0.483 0.547zM13.696 15.2c0 0.092-0.083 0.279-0.183 0.416-0.152 0.206-0.212 0.219-0.352 0.079s-0.116-0.212 0.134-0.416c0.357-0.292 0.402-0.301 0.402-0.079zM16.377 16.501c-0.347 0.188-0.686 0.774-0.563 0.973 0.148 0.239 0.556 0.108 0.885-0.283 0.524-0.622 0.327-1.043-0.322-0.69zM9.984 16.548c0 0.16 0.502 0.585 0.588 0.498 0.153-0.153-0.101-0.606-0.341-0.606-0.136 0-0.247 0.049-0.247 0.108zM11.136 18.36c0 0.141-0.058 0.256-0.128 0.256s-0.128-0.115-0.128-0.256c0-0.141 0.058-0.256 0.128-0.256s0.128 0.115 0.128 0.256zM11.903 19.8c0 0.053-0.055 0.096-0.124 0.096-0.124 0-0.519-0.663-0.511-0.858 0.006-0.126 0.634 0.628 0.635 0.762zM22.734 19.587c-0.11 0.286-0.101 0.309 0.114 0.309 0.107 0 0.192-0.114 0.192-0.256 0-0.305-0.197-0.34-0.306-0.053zM13.652 22.344c0.376 0.29 0.684 0.548 0.684 0.573 0 0.146-0.86-0.158-0.999-0.354-0.092-0.129-0.25-0.235-0.352-0.235s-0.185-0.115-0.185-0.256c0-0.353 0.072-0.33 0.852 0.272z"/>
</svg>
