<svg fill="none" height="37" viewBox="0 0 231 37" width="231" xmlns="http://www.w3.org/2000/svg" xmlns:xlink="http://www.w3.org/1999/xlink"><filter id="a" color-interpolation-filters="sRGB" filterUnits="userSpaceOnUse" height="16.4339" width="230.079" x=".10407" y="4.49512"><feFlood flood-opacity="0" result="BackgroundImageFix"/><feColorMatrix in="SourceAlpha" result="hardAlpha" type="matrix" values="0 0 0 0 0 0 0 0 0 0 0 0 0 0 0 0 0 0 127 0"/><feOffset dy="2.37738"/><feGaussianBlur stdDeviation="1.18869"/><feComposite in2="hardAlpha" operator="out"/><feColorMatrix type="matrix" values="0 0 0 0 0 0 0 0 0 0 0 0 0 0 0 0 0 0 0.25 0"/><feBlend in2="BackgroundImageFix" mode="normal" result="effect1_dropShadow_3_153"/><feBlend in="SourceGraphic" in2="effect1_dropShadow_3_153" mode="normal" result="shape"/></filter><g filter="url(#a)"><path d="m12.7744 9.6499v6.3501h-1.7016c-.1384-.4704-.2906-.866-.4566-1.187-.70279.9075-1.74315 1.3613-3.12108 1.3613-1.46094 0-2.66179-.5091-3.60254-1.5273-.94076-1.0238-1.41113-2.4073-1.41113-4.1504 0-1.69338.45377-3.11558 1.36132-4.26662.91309-1.15658 2.26888-1.73486 4.06739-1.73486 1.35026 0 2.43764.3431 3.26224 1.02929.8245.6862 1.3585 1.66016 1.602 2.92188l-3.3701.33203c-.16602-1.17871-.68343-1.76807-1.55225-1.76807-1.13997 0-1.70996 1.08464-1.70996 3.25395 0 1.3115.18262 2.1775.54785 2.5981.36524.415.80794.6226 1.32813.6226.42057 0 .7775-.1273 1.0708-.3819.29883-.2545.45101-.6032.45654-1.0459h-1.87598v-2.4072zm10.3594 3.644v2.7061h-8.5249v-11.33057h8.5249v2.61475h-5.1133v1.64355h4.1338v2.51517h-4.1338v1.851zm11.0732 2.7061h-2.8305l-3.1045-5.0054c-.3985-.6419-.7997-1.42217-1.2036-2.34079.1826.73047.2739 1.35029.2739 1.85939v5.4868h-2.8223v-11.33057h3.2871l2.6397 4.15039c.5257.82455.9241 1.54948 1.1953 2.17478-.1771-.9684-.2656-1.95896-.2656-2.97165v-3.35352h2.8305zm10.5088-2.7061v2.7061h-8.5249v-11.33057h8.5249v2.61475h-5.1133v1.64355h4.1338v2.51517h-4.1338v1.851zm11.4717 2.7061h-3.8599l-1.6518-4.333h-1.0957v4.333h-3.478v-11.33057h5.9184c1.306 0 2.3187.30713 3.0381.92139.7249.60872 1.0874 1.4139 1.0874 2.41553 0 .65299-.1328 1.23128-.3984 1.73486-.2657.49809-.8025.93799-1.6104 1.31979zm-6.6074-6.75684h1.4858c.4372 0 .7886-.0913 1.0542-.27392s.3985-.45101.3985-.80518c0-.72493-.4455-1.0874-1.3365-1.0874h-1.602zm14.5097 6.75684-.6391-2.2329h-3.0381l-.6807 2.2329h-2.8222l3.5029-11.33057h3.6772l3.5445 11.33057zm-3.0878-4.7065h1.8427l-.9214-3.28715zm11.6875-3.90971v8.61621h-3.2955v-8.61621h-2.3491v-2.71436h7.9937v2.71436zm11.8701 5.91011v2.7061h-8.5249v-11.33057h8.5249v2.61475h-5.1133v1.64355h4.1338v2.51517h-4.1338v1.851zm13.9453-3.91792 2.9381.34863c-.365 1.53839-.987 2.70609-1.8673 3.50289.249.2103.6063.3155 1.0703.3155.211 0 .476-.0166.797-.0498v2.4404c-.459.1217-.907.1826-1.344.1826-1.0297 0-1.9178-.3044-2.6649-.9131-.7582.6475-1.8428.9712-3.2539.9712-1.3226 0-2.4128-.3071-3.2705-.9214-.8522-.6198-1.2784-1.4803-1.2784-2.5815 0-1.4665.8744-2.5041 2.6231-3.11281-.6143-.78027-.9214-1.51627-.9214-2.208 0-.87435.3293-1.56885.9878-2.0835s1.5633-.77197 2.7144-.77197c1.0846 0 1.9534.24625 2.6064.73877.6585.49251.9878 1.17317.9878 2.04199 0 .7194-.2158 1.32259-.6475 1.80957-.4316.48144-.9297.80794-1.4941.97945l1.1621 1.2369c.3763-.3708.6613-1.0127.855-1.92582zm-3.3535-.94629c.5534-.21582.83-.56722.83-1.0542 0-.24349-.0774-.44548-.2324-.60596-.1549-.16048-.3652-.24072-.6308-.24072-.2325 0-.4234.06917-.5728.20752-.1439.13834-.2158.30436-.2158.49805 0 .3597.2739.75813.8218 1.19531zm-1.3697 2.77241c-.5478.238-.8217.653-.8217 1.2452 0 .3818.1272.6917.3818.9297.2546.2324.606.3486 1.0542.3486.5312 0 .9574-.1522 1.2783-.4566z" fill="#fff"/><path d="m107.03 16v-11.33057h5.752c1.196 0 2.067.3016 2.615.90479s.822 1.29215.822 2.06689c0 .56446-.161 1.07634-.482 1.53565-.315.45377-.788.76644-1.419.93794 1.466.3542 2.2 1.2341 2.2 2.6397 0 .8411-.261 1.5937-.781 2.2578-.514.6585-1.618.9878-3.312.9878zm3.204-6.98926h1.61c.404 0 .689-.10237.855-.30713.166-.20475.249-.42334.249-.65576 0-.63086-.387-.94629-1.162-.94629h-1.552zm0 4.46586h1.693c.421 0 .728-.1024.922-.3072.199-.2103.298-.4454.298-.7055s-.096-.4981-.29-.7139c-.188-.2214-.537-.332-1.046-.332h-1.577zm16.245-.1827v2.7061h-8.525v-11.33057h8.525v2.61475h-5.114v1.64355h4.134v2.51517h-4.134v1.851zm15.721 2.7061h-3.86l-1.652-4.333h-1.095v4.333h-3.478v-11.33057h5.918c1.306 0 2.319.30713 3.038.92139.725.60872 1.088 1.4139 1.088 2.41553 0 .65299-.133 1.23128-.399 1.73486-.265.49809-.802.93799-1.61 1.31979zm-6.607-6.75684h1.486c.437 0 .788-.0913 1.054-.27392.265-.18262.398-.45101.398-.80518 0-.72493-.445-1.0874-1.336-1.0874h-1.602zm16.784 4.05074v2.7061h-8.525v-11.33057h8.525v2.61475h-5.113v1.64355h4.133v2.51517h-4.133v1.851zm15.581-8.62447-3.005 11.33057h-2.922l-1.586-6.25049-1.494 6.25049h-3.046l-3.013-11.33057h3.27l1.586 6.53267 1.544-6.53267h2.739l1.677 6.53267 1.585-6.53267zm6.814 11.33057-.639-2.2329h-3.038l-.68 2.2329h-2.823l3.503-11.33057h3.677l3.545 11.33057zm-3.087-4.7065h1.842l-.921-3.28715zm17.763 4.7065h-3.86l-1.651-4.333h-1.096v4.333h-3.478v-11.33057h5.918c1.306 0 2.319.30713 3.038.92139.725.60872 1.088 1.4139 1.088 2.41553 0 .65299-.133 1.23128-.399 1.73486-.265.49809-.802.93799-1.61 1.31979zm-6.607-6.75684h1.486c.437 0 .788-.0913 1.054-.27392.265-.18262.398-.45101.398-.80518 0-.72493-.445-1.0874-1.336-1.0874h-1.602zm8.259 6.75684v-11.33057h4.383c1.904 0 3.329.56446 4.275 1.69336.946 1.12891 1.419 2.4349 1.419 3.91801 0 1.6933-.509 3.0713-1.527 4.1338-1.013 1.0569-2.33 1.5854-3.951 1.5854zm3.478-2.6064h.905c.575 0 1.06-.2795 1.453-.8384.398-.5589.597-1.3198.597-2.2827 0-.82458-.177-1.53568-.531-2.13334-.349-.59766-.855-.89648-1.519-.89648h-.905zm16.602-.0997v2.7061h-8.525v-11.33057h8.525v2.61475h-5.114v1.64355h4.134v2.51517h-4.134v1.851zm1.386 2.7061v-11.33057h4.383c1.903 0 3.328.56446 4.275 1.69336.946 1.12891 1.419 2.4349 1.419 3.91801 0 1.6933-.509 3.0713-1.527 4.1338-1.013 1.0569-2.33 1.5854-3.951 1.5854zm3.478-2.6064h.905c.575 0 1.059-.2795 1.452-.8384.399-.5589.598-1.3198.598-2.2827 0-.82458-.177-1.53568-.531-2.13334-.349-.59766-.855-.89648-1.519-.89648h-.905zm11.762-8.72417-.946 7.51217h-2.1l-.888-7.51217zm-.39 8.30077v3.0298h-3.204v-3.0298z" fill="#fbff68"/></g><path d="m4.86 34.12c-.56 0-1.07-.11-1.53-.33-.45333-.2267-.80667-.54-1.06-.94l1.11-.93c.17333.26.39667.4667.67.62.28.1467.57.22.87.22.28667 0 .51667-.0633.69-.19s.26-.2933.26-.5c0-.2-.07667-.3733-.23-.52s-.40667-.28-.76-.4l-.6-.21c-1.16667-.4067-1.75-1.0833-1.75-2.03 0-.6533.22333-1.17.67-1.55.44667-.3867 1.02333-.58 1.73-.58.90667 0 1.65333.3267 2.24.98l-.96.99c-.34-.4067-.76333-.61-1.27-.61-.26 0-.48333.0567-.67.17-.18667.1067-.28.26-.28.46 0 .2067.08.37.24.49.16667.12.45333.2533.86.4l.57.21c1.12667.42 1.69 1.1233 1.69 2.11 0 .6333-.23333 1.15-.7 1.55-.46.3933-1.05667.59-1.79.59zm7.6269-.12-.94-2.84-.93 2.84h-1.36002l-1.66-5h1.46l.95002 3.2 1.01-3.2h1.05l1.02 3.2.94-3.2h1.47l-1.65 5zm5.6797.11c-.66 0-1.2167-.2567-1.67-.77-.4534-.5133-.68-1.1267-.68-1.84s.2266-1.3267.68-1.84c.4533-.5133 1.01-.77 1.67-.77.32 0 .6066.0667.86.2.2533.1333.4466.29.58.47v-.56h1.37v5h-1.37v-.56c-.1334.18-.3267.3367-.58.47-.2534.1333-.54.2-.86.2zm-.63-1.63c.2333.2533.54.38.92.38s.6833-.1267.91-.38c.2333-.2533.35-.58.35-.98s-.1167-.7267-.35-.98c-.2267-.2533-.53-.38-.91-.38s-.6867.1267-.92.38c-.2267.2533-.34.58-.34.98s.1133.7267.34.98zm6.1418 3.61h-1.37v-7.09h1.37v.56c.1267-.18.32-.3367.58-.47s.55-.2.87-.2c.66 0 1.2167.2567 1.67.77.4534.5133.68 1.1267.68 1.84s-.2266 1.3267-.68 1.84c-.4533.5133-1.01.77-1.67.77-.32 0-.61-.0667-.87-.2s-.4533-.29-.58-.47zm.23-3.61c.2334.2533.54.38.92.38s.6834-.1267.91-.38c.2334-.2533.35-.58.35-.98s-.1166-.7267-.35-.98c-.2266-.2533-.53-.38-.91-.38s-.6866.1267-.92.38c-.2266.2533-.34.58-.34.98s.1134.7267.34.98zm6.6645 1.64c-.56 0-1.07-.11-1.53-.33-.4533-.2267-.8067-.54-1.06-.94l1.11-.93c.1733.26.3967.4667.67.62.28.1467.57.22.87.22.2867 0 .5167-.0633.69-.19s.26-.2933.26-.5c0-.2-.0767-.3733-.23-.52s-.4067-.28-.76-.4l-.6-.21c-1.1667-.4067-1.75-1.0833-1.75-2.03 0-.6533.2233-1.17.67-1.55.4467-.3867 1.0233-.58 1.73-.58.9067 0 1.6533.3267 2.24.98l-.96.99c-.34-.4067-.7633-.61-1.27-.61-.26 0-.4833.0567-.67.17-.1867.1067-.28.26-.28.46 0 .2067.08.37.24.49.1667.12.4533.2533.86.4l.57.21c1.1267.42 1.69 1.1233 1.69 2.11 0 .6333-.2333 1.15-.7 1.55-.46.3933-1.0567.59-1.79.59zm4.8145 1.97h-1.37v-7.09h1.37v.56c.1267-.18.32-.3367.58-.47s.55-.2.87-.2c.66 0 1.2167.2567 1.67.77.4534.5133.68 1.1267.68 1.84s-.2266 1.3267-.68 1.84c-.4533.5133-1.01.77-1.67.77-.32 0-.61-.0667-.87-.2s-.4533-.29-.58-.47zm.23-3.61c.2334.2533.54.38.92.38s.6834-.1267.91-.38c.2334-.2533.35-.58.35-.98s-.1166-.7267-.35-.98c-.2266-.2533-.53-.38-.91-.38s-.6866.1267-.92.38c-.2266.2533-.34.58-.34.98s.1134.7267.34.98zm6.6019 1.63c-.66 0-1.2167-.2567-1.67-.77s-.68-1.1267-.68-1.84.2267-1.3267.68-1.84 1.01-.77 1.67-.77c.32 0 .6067.0667.86.2s.4467.29.58.47v-.56h1.37v5h-1.37v-.56c-.1333.18-.3267.3367-.58.47s-.54.2-.86.2zm-.63-1.63c.2333.2533.54.38.92.38s.6833-.1267.91-.38c.2333-.2533.35-.58.35-.98s-.1167-.7267-.35-.98c-.2267-.2533-.53-.38-.91-.38s-.6867.1267-.92.38c-.2267.2533-.34.58-.34.98s.1133.7267.34.98zm7.1019 1.63c-.7467 0-1.3767-.2467-1.89-.74-.5067-.5-.76-1.1233-.76-1.87s.2533-1.3667.76-1.86c.5133-.5 1.1433-.75 1.89-.75.5133 0 .98.1333 1.4.4.4266.26.75.6067.97 1.04l-1.19.64c-.1067-.24-.2634-.4333-.47-.58-.2-.1467-.4367-.22-.71-.22-.36 0-.6634.1267-.91.38-.24.2533-.36.57-.36.95s.12.6967.36.95c.2466.2533.55.38.91.38.2733 0 .51-.0733.71-.22.2066-.1467.3633-.34.47-.58l1.19.64c-.22.4333-.5434.7833-.97 1.05-.42.26-.8867.39-1.4.39zm5.5761 0c-.76 0-1.3933-.24-1.9-.72-.5-.48-.75-1.11-.75-1.89 0-.7467.25-1.3667.75-1.86.5-.5 1.1267-.75 1.88-.75.6934 0 1.2767.2167 1.75.65.4734.4267.71 1.03.71 1.81 0 .22-.0066.3767-.02.47h-3.74c.04.3267.1834.5833.43.77.2534.18.5534.27.9.27.5867 0 1.0167-.21 1.29-.63l1.02.76c-.5133.7467-1.2866 1.12-2.32 1.12zm-1.27-3.22h2.34c-.06-.2867-.1966-.5033-.41-.65-.2066-.1467-.4466-.22-.72-.22-.28 0-.5366.0733-.77.22-.2333.1467-.38.3633-.44.65zm7.6767-2.71c-.2333 0-.4367-.0833-.61-.25-.1733-.1733-.26-.38-.26-.62s.0867-.4433.26-.61c.1733-.1733.3767-.26.61-.26.2467 0 .4533.0867.62.26.1733.1667.26.37.26.61s-.0867.4467-.26.62c-.1667.1667-.3733.25-.62.25zm-.68 5.82v-5h1.37v5zm4.3655.11c-.9466 0-1.6333-.32-2.06-.96l.94-.8c.24.3867.6134.58 1.12.58.1534 0 .2834-.03.39-.09.1067-.06.16-.15.16-.27 0-.1067-.0466-.1933-.14-.26-.0866-.0733-.2633-.1467-.53-.22l-.37-.09c-.46-.12-.81-.32-1.05-.6-.2333-.28-.3433-.6133-.33-1 .0134-.4533.1934-.8167.54-1.09.3534-.28.8-.42 1.34-.42.7667 0 1.3434.28 1.73.84l-.9.73c-.2333-.2933-.5166-.44-.85-.44-.1333 0-.25.03-.35.09s-.15.1433-.15.25c0 .2.1634.3433.49.43l.47.14c.9667.26 1.45.7767 1.45 1.55 0 .4733-.18.8633-.54 1.17s-.8133.46-1.36.46zm7.5153 0c-.7467 0-1.3767-.2467-1.89-.74-.5067-.5-.76-1.1233-.76-1.87s.2533-1.3667.76-1.86c.5133-.5 1.1433-.75 1.89-.75.5133 0 .98.1333 1.4.4.4266.26.75.6067.97 1.04l-1.19.64c-.1067-.24-.2634-.4333-.47-.58-.2-.1467-.4367-.22-.71-.22-.36 0-.6634.1267-.91.38-.24.2533-.36.57-.36.95s.12.6967.36.95c.2466.2533.55.38.91.38.2733 0 .51-.0733.71-.22.2066-.1467.3633-.34.47-.58l1.19.64c-.22.4333-.5434.7833-.97 1.05-.42.26-.8867.39-1.4.39zm5.5761 0c-.76 0-1.3933-.24-1.9-.72-.5-.48-.75-1.11-.75-1.89 0-.7467.25-1.3667.75-1.86.5-.5 1.1267-.75 1.88-.75.6934 0 1.2767.2167 1.75.65.4734.4267.71 1.03.71 1.81 0 .22-.0066.3767-.02.47h-3.74c.04.3267.1834.5833.43.77.2534.18.5534.27.9.27.5867 0 1.0167-.21 1.29-.63l1.02.76c-.5133.7467-1.2866 1.12-2.32 1.12zm-1.27-3.22h2.34c-.06-.2867-.1966-.5033-.41-.65-.2066-.1467-.4466-.22-.72-.22-.28 0-.5366.0733-.77.22-.2333.1467-.38.3633-.44.65zm4.7213 3.11v-7.5h1.37v7.5zm5.0155.11c-.76 0-1.3933-.24-1.9-.72-.5-.48-.75-1.11-.75-1.89 0-.7467.25-1.3667.75-1.86.5-.5 1.1267-.75 1.88-.75.6934 0 1.2767.2167 1.75.65.4734.4267.71 1.03.71 1.81 0 .22-.0066.3767-.02.47h-3.74c.04.3267.1834.5833.43.77.2534.18.5534.27.9.27.5867 0 1.0167-.21 1.29-.63l1.02.76c-.5133.7467-1.2866 1.12-2.32 1.12zm-1.27-3.22h2.34c-.06-.2867-.1966-.5033-.41-.65-.2066-.1467-.4466-.22-.72-.22-.28 0-.5366.0733-.77.22-.2333.1467-.38.3633-.44.65zm7.5413 3.22c-.32 0-.61-.0667-.87-.2s-.4533-.29-.58-.47v.56h-1.37v-7.5h1.37v3.06c.1267-.18.32-.3367.58-.47s.55-.2.87-.2c.66 0 1.2167.2567 1.67.77s.68 1.1267.68 1.84-.2267 1.3267-.68 1.84-1.01.77-1.67.77zm-1.22-1.63c.2333.2533.54.38.92.38s.6833-.1267.91-.38c.2333-.2533.35-.58.35-.98s-.1167-.7267-.35-.98c-.2267-.2533-.53-.38-.91-.38s-.6867.1267-.92.38c-.2267.2533-.34.58-.34.98s.1133.7267.34.98zm4.5719 1.52v-5h1.37v.8c.0866-.2467.2433-.45.47-.61.2333-.1667.49-.25.77-.25.1733 0 .3266.02.46.06v1.39c-.22-.0733-.4267-.11-.62-.11-.3267 0-.59.12-.79.36-.1934.2333-.29.5567-.29.97v2.39zm5.7991.11c-.66 0-1.216-.2567-1.6696-.77-.4533-.5133-.68-1.1267-.68-1.84s.2267-1.3267.68-1.84c.4536-.5133 1.0096-.77 1.6696-.77.32 0 .607.0667.86.2.254.1333.447.29.58.47v-.56h1.37v5h-1.37v-.56c-.133.18-.326.3367-.58.47-.253.1333-.54.2-.86.2zm-.63-1.63c.234.2533.54.38.92.38s.684-.1267.91-.38c.234-.2533.35-.58.35-.98s-.116-.7267-.35-.98c-.226-.2533-.53-.38-.91-.38s-.686.1267-.92.38c-.226.2533-.34.58-.34.98s.114.7267.34.98zm7.192 1.58c-.56 0-1.02-.1533-1.38-.46-.353-.3133-.53-.7633-.53-1.35v-2.05h-1.01v-1.2h1.01v-1.39h1.37v1.39h1.41v1.2h-1.41v1.78c0 .3067.067.5267.2.66.134.1267.35.19.65.19.214 0 .4-.03.56-.09v1.21c-.24.0733-.53.11-.87.11zm2.528-5.88c-.233 0-.437-.0833-.61-.25-.173-.1733-.26-.38-.26-.62s.087-.4433.26-.61c.173-.1733.377-.26.61-.26.247 0 .453.0867.62.26.173.1667.26.37.26.61s-.087.4467-.26.62c-.167.1667-.373.25-.62.25zm-.68 5.82v-5h1.37v5zm2.685 0v-5h1.37v.57c.307-.4533.784-.68 1.43-.68.6 0 1.07.2 1.41.6.347.3933.52.92.52 1.58v2.93h-1.37v-2.7c0-.3667-.076-.65-.23-.85-.153-.2067-.37-.31-.65-.31-.333 0-.603.12-.81.36-.2.24-.3.5933-.3 1.06v2.44zm7.417-1.66c.246.24.546.36.9.36.353 0 .653-.12.9-.36.246-.24.37-.5467.37-.92s-.124-.68-.37-.92c-.247-.24-.547-.36-.9-.36-.354 0-.654.12-.9.36-.247.24-.37.5467-.37.92s.123.68.37.92zm.74 3.85c-1 0-1.777-.2667-2.33-.8l.75-1.02c.42.4133.94.62 1.56.62.4 0 .723-.1267.97-.38.246-.2533.37-.5833.37-.99v-.34c-.14.1933-.34.3533-.6.48-.26.12-.544.18-.85.18-.654 0-1.21-.2433-1.67-.73-.46-.4933-.69-1.09-.69-1.79 0-.7067.23-1.3033.69-1.79.46-.4933 1.016-.74 1.67-.74.313 0 .596.0633.85.19.26.12.46.28.6.48v-.56h1.37v4.61c0 .86-.247 1.5033-.74 1.93-.494.4333-1.144.65-1.95.65zm6.957-8.01c-.233 0-.437-.0833-.61-.25-.173-.1733-.26-.38-.26-.62s.087-.4433.26-.61c.173-.1733.377-.26.61-.26.247 0 .453.0867.62.26.173.1667.26.37.26.61s-.087.4467-.26.62c-.167.1667-.373.25-.62.25zm-.68 5.82v-5h1.37v5zm5.106.06c-.56 0-1.02-.1533-1.38-.46-.354-.3133-.53-.7633-.53-1.35v-2.05h-1.01v-1.2h1.01v-1.39h1.37v1.39h1.41v1.2h-1.41v1.78c0 .3067.066.5267.2.66.133.1267.35.19.65.19.213 0 .4-.03.56-.09v1.21c-.24.0733-.53.11-.87.11zm3.527.05c-.947 0-1.633-.32-2.06-.96l.94-.8c.24.3867.613.58 1.12.58.153 0 .283-.03.39-.09s.16-.15.16-.27c0-.1067-.047-.1933-.14-.26-.087-.0733-.263-.1467-.53-.22l-.37-.09c-.46-.12-.81-.32-1.05-.6-.233-.28-.343-.6133-.33-1 .013-.4533.193-.8167.54-1.09.353-.28.8-.42 1.34-.42.767 0 1.343.28 1.73.84l-.9.73c-.233-.2933-.517-.44-.85-.44-.133 0-.25.03-.35.09s-.15.1433-.15.25c0 .2.163.3433.49.43l.47.14c.967.26 1.45.7767 1.45 1.55 0 .4733-.18.8633-.54 1.17s-.813.46-1.36.46zm7.365 0c-.666 0-1.25-.2067-1.75-.62-.493-.4133-.753-.93-.78-1.55h1.42c.06.24.19.4367.39.59.207.1533.447.23.72.23.347 0 .617-.1033.81-.31.2-.2133.3-.4767.3-.79 0-.32-.103-.5833-.31-.79-.2-.2067-.46-.31-.78-.31-.273 0-.506.0667-.7.2-.193.1333-.33.3133-.41.54l-1.21-.37.8-4.03h3.46v1.33h-2.4l-.27 1.33c.254-.16.58-.24.98-.24.667 0 1.2.2267 1.6.68.407.4533.61 1.0433.61 1.77 0 .7067-.23 1.2733-.69 1.7-.453.4267-1.05.64-1.79.64zm5.963-.05c-.56 0-1.02-.1533-1.38-.46-.353-.3133-.53-.7633-.53-1.35v-2.05h-1.01v-1.2h1.01v-1.39h1.37v1.39h1.41v1.2h-1.41v1.78c0 .3067.067.5267.2.66.133.1267.35.19.65.19.213 0 .4-.03.56-.09v1.21c-.24.0733-.53.11-.87.11zm3.218-.06h-1.37v-7.5h1.37v3.07c.306-.4533.783-.68 1.43-.68.6 0 1.07.2 1.41.6.346.3933.52.92.52 1.58v2.93h-1.37v-2.7c0-.3667-.077-.65-.23-.85-.154-.2067-.37-.31-.65-.31-.334 0-.604.12-.81.36-.2.24-.3.5933-.3 1.06zm8.921.11c-.66 0-1.216-.2567-1.67-.77-.453-.5133-.68-1.1267-.68-1.84s.227-1.3267.68-1.84c.454-.5133 1.01-.77 1.67-.77.32 0 .607.0667.86.2.254.1333.447.29.58.47v-.56h1.37v5h-1.37v-.56c-.133.18-.326.3367-.58.47-.253.1333-.54.2-.86.2zm-.63-1.63c.234.2533.54.38.92.38s.684-.1267.91-.38c.234-.2533.35-.58.35-.98s-.116-.7267-.35-.98c-.226-.2533-.53-.38-.91-.38s-.686.1267-.92.38c-.226.2533-.34.58-.34.98s.114.7267.34.98zm4.772 1.52v-5h1.37v.57c.307-.4533.784-.68 1.43-.68.6 0 1.07.2 1.41.6.347.3933.52.92.52 1.58v2.93h-1.37v-2.7c0-.3667-.076-.65-.23-.85-.153-.2067-.37-.31-.65-.31-.333 0-.603.12-.81.36-.2.24-.3.5933-.3 1.06v2.44zm5.986 0v-5h1.371v.57c.306-.4533.783-.68 1.43-.68.6 0 1.07.2 1.41.6.346.3933.52.92.52 1.58v2.93h-1.37v-2.7c0-.3667-.077-.65-.23-.85-.154-.2067-.37-.31-.65-.31-.334 0-.604.12-.81.36-.2.24-.3.5933-.3 1.06v2.44zm6.667-5.82c-.234 0-.437-.0833-.61-.25-.174-.1733-.26-.38-.26-.62s.086-.4433.26-.61c.173-.1733.376-.26.61-.26.246 0 .453.0867.62.26.173.1667.26.37.26.61s-.087.4467-.26.62c-.167.1667-.374.25-.62.25zm-.68 5.82v-5h1.37v5zm4.245 0-2.21-5h1.51l1.32 3.2 1.32-3.2h1.53l-2.22 5zm6.317.11c-.76 0-1.393-.24-1.9-.72-.5-.48-.75-1.11-.75-1.89 0-.7467.25-1.3667.75-1.86.5-.5 1.127-.75 1.88-.75.694 0 1.277.2167 1.75.65.474.4267.71 1.03.71 1.81 0 .22-.006.3767-.02.47h-3.74c.04.3267.184.5833.43.77.254.18.554.27.9.27.587 0 1.017-.21 1.29-.63l1.02.76c-.513.7467-1.286 1.12-2.32 1.12zm-1.27-3.22h2.34c-.06-.2867-.196-.5033-.41-.65-.206-.1467-.446-.22-.72-.22-.28 0-.536.0733-.77.22-.233.1467-.38.3633-.44.65zm4.721 3.11v-5h1.371v.8c.086-.2467.243-.45.47-.61.233-.1667.49-.25.77-.25.173 0 .326.02.46.06v1.39c-.22-.0733-.427-.11-.62-.11-.327 0-.59.12-.79.36-.194.2333-.29.5567-.29.97v2.39zm5.518.11c-.946 0-1.633-.32-2.06-.96l.94-.8c.24.3867.614.58 1.12.58.154 0 .284-.03.39-.09.107-.06.16-.15.16-.27 0-.1067-.046-.1933-.14-.26-.086-.0733-.263-.1467-.53-.22l-.37-.09c-.46-.12-.81-.32-1.05-.6-.233-.28-.343-.6133-.33-1 .014-.4533.194-.8167.54-1.09.354-.28.8-.42 1.34-.42.767 0 1.344.28 1.73.84l-.9.73c-.233-.2933-.516-.44-.85-.44-.133 0-.25.03-.35.09s-.15.1433-.15.25c0 .2.164.3433.49.43l.47.14c.967.26 1.45.7767 1.45 1.55 0 .4733-.18.8633-.54 1.17s-.813.46-1.36.46zm4.94 0c-.66 0-1.216-.2567-1.67-.77-.453-.5133-.68-1.1267-.68-1.84s.227-1.3267.68-1.84c.454-.5133 1.01-.77 1.67-.77.32 0 .607.0667.86.2.254.1333.447.29.58.47v-.56h1.37v5h-1.37v-.56c-.133.18-.326.3367-.58.47-.253.1333-.54.2-.86.2zm-.63-1.63c.234.2533.54.38.92.38s.684-.1267.91-.38c.234-.2533.35-.58.35-.98s-.116-.7267-.35-.98c-.226-.2533-.53-.38-.91-.38s-.686.1267-.92.38c-.226.2533-.34.58-.34.98s.114.7267.34.98zm4.772 1.52v-5h1.37v.8c.087-.2467.243-.45.47-.61.233-.1667.49-.25.77-.25.173 0 .327.02.46.06v1.39c-.22-.0733-.427-.11-.62-.11-.327 0-.59.12-.79.36-.193.2333-.29.5567-.29.97v2.39zm5.845 2.09h-1.49l1.05-2.37-2.1-4.72h1.5l1.34 3.24 1.33-3.24h1.51zm4.154-4.65-.26-1.88v-2.66h1.38v2.66l-.27 1.88zm.42 2.64c-.28 0-.517-.0967-.71-.29-.194-.1933-.29-.43-.29-.71s.096-.5167.29-.71c.193-.1933.43-.29.71-.29.273 0 .506.1.7.3.2.1933.3.4267.3.7s-.1.51-.3.71c-.194.1933-.427.29-.7.29z" fill="#fff"/></svg>