<svg data-v-ba69a604="" data-v-9f94ea0e="" id="Layer_1" version="1.1" xmlns="http://www.w3.org/2000/svg" xmlns:xlink="http://www.w3.org/1999/xlink" x="0px" y="0px" viewBox="0 0 512 96" xml:space="preserve" class="index-rates-trustpilot__stars"><g data-v-ba69a604="" id="Trustpilot_ratings_4halfstar-RGB"><g data-v-ba69a604=""><rect data-v-ba69a604="" id="Rectangle-path" fill="#00B67A" width="96" height="96"></rect> <rect data-v-ba69a604="" x="104" fill="#00B67A" width="96" height="96"></rect> <rect data-v-ba69a604="" x="208" fill="#00B67A" width="96" height="96"></rect> <rect data-v-ba69a604="" x="312" fill="#00B67A" width="96" height="96"></rect> <g data-v-ba69a604="" id="Half" transform="translate(416.000000, 0.000000)"><rect data-v-ba69a604="" x="48" fill="#51354f" width="48" height="96"></rect> <rect data-v-ba69a604="" fill="#00B67A" width="48" height="96"></rect></g> <path data-v-ba69a604="" id="Shape" fill="#FFFFFF" d="M48,64.7L62.6,61l6.1,18.8L48,64.7z M81.6,40.4H55.9L48,16.2l-7.9,24.2H14.4l20.8,15l-7.9,24.2l20.8-15l12.8-9.2L81.6,40.4L81.6,40.4L81.6,40.4L81.6,40.4z"></path> <path data-v-ba69a604="" fill="#FFFFFF" d="M152,64.7l14.6-3.7l6.1,18.8L152,64.7z M185.6,40.4h-25.7L152,16.2l-7.9,24.2h-25.7l20.8,15l-7.9,24.2l20.8-15l12.8-9.2L185.6,40.4L185.6,40.4L185.6,40.4L185.6,40.4z"></path> <path data-v-ba69a604="" fill="#FFFFFF" d="M256,64.7l14.6-3.7l6.1,18.8L256,64.7z M289.6,40.4h-25.7L256,16.2l-7.9,24.2h-25.7l20.8,15l-7.9,24.2l20.8-15l12.8-9.2L289.6,40.4L289.6,40.4L289.6,40.4L289.6,40.4z"></path> <path data-v-ba69a604="" fill="#FFFFFF" d="M360,64.7l14.6-3.7l6.1,18.8L360,64.7z M393.6,40.4h-25.7L360,16.2l-7.9,24.2h-25.7l20.8,15l-7.9,24.2l20.8-15l12.8-9.2L393.6,40.4L393.6,40.4L393.6,40.4L393.6,40.4z"></path> <path data-v-ba69a604="" fill="#FFFFFF" d="M464,64.7l14.6-3.7l6.1,18.8L464,64.7z M497.6,40.4h-25.7L464,16.2l-7.9,24.2h-25.7l20.8,15l-7.9,24.2l20.8-15l12.8-9.2L497.6,40.4L497.6,40.4L497.6,40.4L497.6,40.4z"></path></g></g></svg>